0, 0, Header, 0, 1, 480
1, 0, Start_track
1, 0, SMPTE_offset, 96, 0, 0, 0, 0
1, 0, Time_signature, 4, 2, 24, 8
1, 0, Key_signature, 0, "major"
1, 0, Tempo, 500000
1, 0, Control_c, 0, 64, 127
1, 0, Control_c, 0, 64, 0
1, 0, Control_c, 0, 64, 127
1, 0, Note_on_c, 0, 77, 59
1, 12, Note_on_c, 0, 49, 17
1, 606, Note_on_c, 0, 56, 19
1, 608, Note_off_c, 0, 49, 64
1, 964, Note_on_c, 0, 73, 36
1, 982, Note_off_c, 0, 77, 64
1, 1168, Note_off_c, 0, 56, 64
1, 1186, Note_on_c, 0, 68, 42
1, 1216, Note_on_c, 0, 65, 18
1, 1220, Note_on_c, 0, 61, 16
1, 1228, Note_off_c, 0, 73, 64
1, 1586, Note_on_c, 0, 56, 24
1, 1760, Note_off_c, 0, 56, 64
1, 1946, Note_on_c, 0, 56, 19
1, 2100, Note_off_c, 0, 56, 64
1, 2298, Note_on_c, 0, 56, 19
1, 2342, Note_off_c, 0, 65, 64
1, 2366, Note_off_c, 0, 61, 64
1, 2472, Note_off_c, 0, 56, 64
1, 2608, Note_on_c, 0, 70, 47
1, 2640, Note_on_c, 0, 61, 24
1, 2650, Note_on_c, 0, 65, 23
1, 2720, Note_off_c, 0, 68, 64
1, 2910, Note_off_c, 0, 61, 64
1, 2920, Note_off_c, 0, 65, 64
1, 2992, Note_on_c, 0, 56, 17
1, 3218, Note_off_c, 0, 56, 64
1, 3408, Note_on_c, 0, 72, 48
1, 3416, Note_on_c, 0, 66, 26
1, 3432, Note_on_c, 0, 63, 28
1, 3476, Control_c, 0, 64, 0
1, 3524, Note_off_c, 0, 70, 64
1, 3738, Control_c, 0, 64, 127
1, 3836, Note_on_c, 0, 56, 16
1, 3982, Note_off_c, 0, 56, 64
1, 4208, Note_on_c, 0, 56, 29
1, 4338, Note_off_c, 0, 56, 64
1, 4562, Note_on_c, 0, 56, 29
1, 4816, Note_off_c, 0, 56, 64
1, 4910, Note_on_c, 0, 58, 15
1, 5074, Control_c, 0, 64, 0
1, 5256, Note_off_c, 0, 58, 64
1, 5274, Control_c, 0, 64, 127
1, 5276, Note_on_c, 0, 56, 25
1, 5420, Note_off_c, 0, 63, 64
1, 5552, Note_off_c, 0, 66, 64
1, 5628, Note_on_c, 0, 73, 60
1, 5634, Note_off_c, 0, 56, 64
1, 5640, Note_on_c, 0, 61, 31
1, 5662, Note_on_c, 0, 65, 27
1, 5762, Note_off_c, 0, 72, 64
1, 5872, Control_c, 0, 64, 0
1, 5986, Note_on_c, 0, 56, 30
1, 6042, Control_c, 0, 64, 127
1, 6080, Note_off_c, 0, 65, 64
1, 6156, Note_off_c, 0, 61, 64
1, 6298, Note_on_c, 0, 66, 38
1, 6302, Note_on_c, 0, 75, 75
1, 6308, Note_off_c, 0, 56, 64
1, 6322, Note_on_c, 0, 60, 37
1, 6524, Note_off_c, 0, 73, 64
1, 6534, Control_c, 0, 64, 0
1, 6702, Control_c, 0, 64, 127
1, 6738, Note_on_c, 0, 56, 24
1, 6852, Note_off_c, 0, 66, 64
1, 6994, Note_on_c, 0, 77, 71
1, 7004, Note_on_c, 0, 68, 35
1, 7102, Note_off_c, 0, 68, 64
1, 7142, Note_off_c, 0, 75, 64
1, 7234, Note_on_c, 0, 78, 72
1, 7234, Note_on_c, 0, 70, 45
1, 7272, Control_c, 0, 64, 0
1, 7318, Note_off_c, 0, 77, 64
1, 7450, Note_off_c, 0, 56, 64
1, 7502, Control_c, 0, 64, 127
1, 7626, Note_on_c, 0, 56, 35
1, 7774, Note_off_c, 0, 56, 64
1, 7960, Note_on_c, 0, 56, 23
1, 8088, Note_off_c, 0, 56, 64
1, 8130, Note_off_c, 0, 60, 64
1, 8336, Note_on_c, 0, 56, 29
1, 8446, Note_off_c, 0, 70, 64
1, 8642, Note_on_c, 0, 68, 29
1, 8644, Note_on_c, 0, 77, 74
1, 8678, Note_on_c, 0, 61, 26
1, 8776, Control_c, 0, 64, 0
1, 8816, Note_off_c, 0, 78, 64
1, 8824, Note_off_c, 0, 56, 64
1, 8962, Control_c, 0, 64, 127
1, 9014, Note_on_c, 0, 56, 29
1, 9019, Note_off_c, 0, 68, 64
1, 9068, Note_off_c, 0, 61, 64
1, 9110, Note_off_c, 0, 56, 64
1, 9168, Note_off_c, 0, 77, 64
1, 9344, Note_on_c, 0, 77, 60
1, 9346, Note_on_c, 0, 68, 24
1, 9362, Note_on_c, 0, 60, 22
1, 9514, Control_c, 0, 64, 0
1, 9666, Note_on_c, 0, 56, 24
1, 9714, Control_c, 0, 64, 127
1, 9800, Note_off_c, 0, 68, 64
1, 9872, Note_off_c, 0, 56, 64
1, 10072, Note_on_c, 0, 66, 23
1, 10414, Note_on_c, 0, 75, 36
1, 10468, Note_off_c, 0, 60, 64
1, 10468, Note_on_c, 0, 56, 14
1, 10604, Note_off_c, 0, 66, 64
1, 10612, Note_off_c, 0, 77, 64
1, 10636, Note_off_c, 0, 56, 64
1, 10893, Note_on_c, 0, 73, 34
1, 10899, Note_on_c, 0, 61, 17
1, 10916, Note_on_c, 0, 65, 17
1, 11038, Note_off_c, 0, 75, 64
1, 11050, Control_c, 0, 64, 0
1, 11280, Control_c, 0, 64, 127
1, 11332, Note_on_c, 0, 56, 21
1, 11352, Note_off_c, 0, 65, 64
1, 11394, Note_off_c, 0, 61, 64
1, 11484, Note_on_c, 0, 75, 71
1, 11544, Note_off_c, 0, 73, 64
1, 11604, Note_off_c, 0, 75, 64
1, 11676, Note_on_c, 0, 75, 66
1, 11732, Note_off_c, 0, 56, 64
1, 11732, Note_on_c, 0, 66, 15
1, 11784, Note_on_c, 0, 60, 11
1, 11862, Note_on_c, 0, 77, 75
1, 11886, Note_off_c, 0, 75, 64
1, 11976, Note_on_c, 0, 75, 60
1, 12028, Note_off_c, 0, 77, 64
1, 12110, Note_on_c, 0, 74, 76
1, 12134, Note_off_c, 0, 75, 64
1, 12158, Control_c, 0, 64, 0
1, 12244, Note_on_c, 0, 56, 21
1, 12246, Note_on_c, 0, 75, 53
1, 12300, Note_off_c, 0, 74, 64
1, 12356, Control_c, 0, 64, 127
1, 12382, Note_off_c, 0, 66, 64
1, 12414, Note_on_c, 0, 77, 61
1, 12436, Note_off_c, 0, 60, 64
1, 12436, Note_off_c, 0, 75, 64
1, 12552, Note_off_c, 0, 56, 64
1, 12572, Note_off_c, 0, 77, 64
1, 12594, Note_on_c, 0, 78, 50
1, 12842, Note_on_c, 0, 49, 21
1, 12848, Control_c, 0, 64, 0
1, 12940, Note_on_c, 0, 77, 52
1, 13048, Note_off_c, 0, 78, 64
1, 13324, Control_c, 0, 64, 127
1, 13526, Note_off_c, 0, 49, 64
1, 13528, Note_on_c, 0, 56, 21
1, 13872, Note_off_c, 0, 77, 64
1, 13888, Note_off_c, 0, 56, 64
1, 13902, Note_on_c, 0, 73, 22
1, 14108, Note_on_c, 0, 65, 22
1, 14111, Note_on_c, 0, 61, 20
1, 14122, Note_on_c, 0, 68, 31
1, 14180, Note_off_c, 0, 73, 64
1, 14538, Note_on_c, 0, 56, 22
1, 14698, Note_off_c, 0, 56, 64
1, 14934, Note_on_c, 0, 56, 18
1, 15052, Note_off_c, 0, 56, 64
1, 15338, Note_on_c, 0, 56, 20
1, 15432, Note_off_c, 0, 56, 64
1, 15660, Note_on_c, 0, 70, 35
1, 15682, Note_on_c, 0, 56, 19
1, 15777, Note_off_c, 0, 56, 64
1, 15781, Note_off_c, 0, 68, 64
1, 15900, Note_off_c, 0, 65, 64
1, 16024, Note_off_c, 0, 61, 64
1, 16060, Note_on_c, 0, 56, 21
1, 16162, Note_off_c, 0, 56, 64
1, 16424, Note_on_c, 0, 72, 39
1, 16442, Note_on_c, 0, 66, 20
1, 16450, Note_on_c, 0, 63, 25
1, 16460, Control_c, 0, 64, 0
1, 16540, Note_off_c, 0, 70, 64
1, 16736, Control_c, 0, 64, 127
1, 16790, Note_on_c, 0, 56, 26
1, 16880, Note_off_c, 0, 56, 64
1, 17124, Note_on_c, 0, 56, 28
1, 17198, Note_off_c, 0, 56, 64
1, 17468, Note_on_c, 0, 56, 19
1, 17700, Note_off_c, 0, 56, 64
1, 17794, Note_on_c, 0, 58, 13
1, 17858, Control_c, 0, 64, 0
1, 18088, Control_c, 0, 64, 127
1, 18148, Note_off_c, 0, 58, 64
1, 18200, Note_on_c, 0, 56, 15
1, 18258, Control_c, 0, 64, 0
1, 18390, Note_off_c, 0, 63, 64
1, 18456, Control_c, 0, 64, 127
1, 18512, Note_off_c, 0, 66, 64
1, 18622, Note_on_c, 0, 73, 55
1, 18650, Note_off_c, 0, 56, 64
1, 18662, Note_on_c, 0, 61, 19
1, 18690, Note_on_c, 0, 65, 15
1, 18808, Note_off_c, 0, 72, 64
1, 18902, Control_c, 0, 64, 0
1, 19038, Note_on_c, 0, 56, 28
1, 19088, Control_c, 0, 64, 127
1, 19150, Note_off_c, 0, 65, 64
1, 19266, Note_off_c, 0, 56, 64
1, 19288, Note_off_c, 0, 61, 64
1, 19360, Note_on_c, 0, 75, 72
1, 19386, Note_on_c, 0, 66, 20
1, 19388, Note_on_c, 0, 60, 19
1, 19514, Note_off_c, 0, 73, 64
1, 19578, Control_c, 0, 64, 0
1, 19748, Control_c, 0, 64, 127
1, 19751, Note_on_c, 0, 56, 25
1, 19882, Note_off_c, 0, 66, 64
1, 20090, Note_on_c, 0, 77, 70
1, 20120, Note_on_c, 0, 68, 22
1, 20180, Note_off_c, 0, 75, 64
1, 20194, Note_off_c, 0, 68, 64
1, 20308, Note_on_c, 0, 78, 74
1, 20330, Note_on_c, 0, 70, 37
1, 20362, Control_c, 0, 64, 0
1, 20374, Note_off_c, 0, 77, 64
1, 20532, Note_off_c, 0, 56, 64
1, 20592, Control_c, 0, 64, 127
1, 20734, Note_on_c, 0, 56, 21
1, 20760, Note_off_c, 0, 60, 64
1, 20844, Note_off_c, 0, 56, 64
1, 21100, Note_on_c, 0, 56, 34
1, 21174, Note_off_c, 0, 56, 64
1, 21440, Note_on_c, 0, 56, 29
1, 21560, Note_off_c, 0, 70, 64
1, 21626, Note_off_c, 0, 56, 64
1, 21758, Note_on_c, 0, 68, 30
1, 21768, Note_on_c, 0, 77, 68
1, 21780, Note_on_c, 0, 61, 32
1, 21992, Control_c, 0, 64, 0
1, 22014, Note_off_c, 0, 78, 64
1, 22096, Note_on_c, 0, 56, 34
1, 22148, Note_off_c, 0, 68, 64
1, 22160, Note_off_c, 0, 61, 64
1, 22190, Control_c, 0, 64, 127
1, 22288, Note_off_c, 0, 77, 64
1, 22330, Note_off_c, 0, 56, 64
1, 22442, Note_on_c, 0, 68, 28
1, 22464, Note_on_c, 0, 60, 24
1, 22508, Note_on_c, 0, 77, 62
1, 22590, Control_c, 0, 64, 0
1, 22806, Control_c, 0, 64, 127
1, 22872, Note_on_c, 0, 56, 20
1, 22950, Note_off_c, 0, 68, 64
1, 22986, Note_off_c, 0, 56, 64
1, 23276, Note_on_c, 0, 66, 20
1, 23684, Note_on_c, 0, 75, 38
1, 23712, Note_on_c, 0, 56, 17
1, 23756, Note_off_c, 0, 60, 64
1, 23866, Note_off_c, 0, 77, 64
1, 23866, Note_off_c, 0, 66, 64
1, 23882, Note_off_c, 0, 56, 64
1, 24182, Note_on_c, 0, 73, 27
1, 24198, Note_on_c, 0, 61, 14
1, 24222, Note_on_c, 0, 65, 10
1, 24388, Control_c, 0, 64, 0
1, 24484, Note_off_c, 0, 75, 64
1, 24622, Note_on_c, 0, 56, 18
1, 24630, Note_off_c, 0, 65, 64
1, 24648, Control_c, 0, 64, 127
1, 24660, Note_off_c, 0, 61, 64
1, 24854, Note_off_c, 0, 56, 64
1, 25140, Note_on_c, 0, 72, 49
1, 25178, Note_on_c, 0, 65, 11
1, 25180, Note_on_c, 0, 61, 16
1, 25198, Note_off_c, 0, 73, 64
1, 25320, Note_off_c, 0, 65, 64
1, 25454, Note_off_c, 0, 61, 64
1, 25532, Note_on_c, 0, 73, 57
1, 25554, Note_on_c, 0, 56, 23
1, 25634, Note_off_c, 0, 56, 64
1, 25668, Note_off_c, 0, 72, 64
1, 25912, Note_on_c, 0, 75, 58
1, 25932, Note_on_c, 0, 44, 31
1, 26032, Control_c, 0, 64, 0
1, 26052, Note_off_c, 0, 73, 64
1, 26268, Note_on_c, 0, 56, 31
1, 26292, Note_off_c, 0, 44, 64
1, 26308, Control_c, 0, 64, 127
1, 26334, Note_off_c, 0, 56, 64
1, 26450, Note_off_c, 0, 75, 64
1, 26602, Note_on_c, 0, 63, 32
1, 26628, Note_on_c, 0, 60, 18
1, 26662, Note_on_c, 0, 75, 63
1, 26826, Note_off_c, 0, 63, 64
1, 26898, Note_off_c, 0, 60, 64
1, 27004, Note_on_c, 0, 56, 33
1, 27326, Note_on_c, 0, 63, 35
1, 27344, Note_on_c, 0, 59, 25
1, 27354, Control_c, 0, 64, 0
1, 27416, Note_off_c, 0, 56, 64
1, 27552, Control_c, 0, 64, 127
1, 27590, Note_off_c, 0, 63, 64
1, 27668, Note_off_c, 0, 59, 64
1, 27670, Note_on_c, 0, 56, 39
1, 27834, Note_off_c, 0, 56, 64
1, 28016, Note_on_c, 0, 77, 80
1, 28028, Control_c, 0, 64, 0
1, 28033, Note_on_c, 0, 65, 42
1, 28038, Note_on_c, 0, 59, 31
1, 28050, Note_on_c, 0, 49, 26
1, 28084, Note_off_c, 0, 75, 64
1, 28208, Note_off_c, 0, 49, 64
1, 28230, Control_c, 0, 64, 127
1, 28320, Note_off_c, 0, 65, 64
1, 28324, Note_off_c, 0, 59, 64
1, 28352, Note_on_c, 0, 61, 37
1, 28498, Note_off_c, 0, 61, 64
1, 28690, Note_on_c, 0, 78, 79
1, 28710, Note_on_c, 0, 58, 28
1, 28722, Note_on_c, 0, 54, 27
1, 28790, Note_off_c, 0, 77, 64
1, 28828, Control_c, 0, 64, 0
1, 29044, Control_c, 0, 64, 127
1, 29100, Note_on_c, 0, 77, 83
1, 29104, Note_off_c, 0, 58, 64
1, 29144, Note_on_c, 0, 61, 26
1, 29206, Note_off_c, 0, 78, 64
1, 29246, Note_off_c, 0, 61, 64
1, 29304, Note_off_c, 0, 54, 64
1, 29418, Note_on_c, 0, 75, 78
1, 29444, Note_on_c, 0, 66, 30
1, 29450, Note_on_c, 0, 58, 26
1, 29580, Note_off_c, 0, 77, 64
1, 29610, Note_off_c, 0, 66, 64
1, 29718, Note_on_c, 0, 73, 75
1, 29754, Note_on_c, 0, 61, 39
1, 29818, Note_off_c, 0, 75, 64
1, 29830, Note_off_c, 0, 61, 64
1, 29850, Note_off_c, 0, 58, 64
1, 30054, Note_on_c, 0, 77, 72
1, 30066, Note_on_c, 0, 49, 34
1, 30074, Control_c, 0, 64, 0
1, 30136, Note_off_c, 0, 73, 64
1, 30334, Control_c, 0, 64, 127
1, 30336, Note_on_c, 0, 56, 29
1, 30348, Note_off_c, 0, 49, 64
1, 30608, Note_off_c, 0, 56, 64
1, 30666, Note_on_c, 0, 61, 27
1, 30669, Note_on_c, 0, 65, 32
1, 30858, Note_off_c, 0, 65, 64
1, 30980, Note_on_c, 0, 56, 28
1, 31004, Note_off_c, 0, 61, 64
1, 31216, Note_off_c, 0, 56, 64
1, 31388, Note_on_c, 0, 75, 54
1, 31450, Note_on_c, 0, 51, 31
1, 31502, Control_c, 0, 64, 0
1, 31512, Note_off_c, 0, 77, 64
1, 31748, Control_c, 0, 64, 127
1, 31754, Note_on_c, 0, 71, 71
1, 31790, Note_on_c, 0, 56, 28
1, 31794, Note_off_c, 0, 75, 64
1, 31882, Note_off_c, 0, 51, 64
1, 32052, Note_off_c, 0, 56, 64
1, 32052, Note_on_c, 0, 70, 66
1, 32076, Note_on_c, 0, 63, 33
1, 32146, Note_on_c, 0, 59, 11
1, 32152, Note_off_c, 0, 71, 64
1, 32362, Note_off_c, 0, 63, 64
1, 32386, Note_on_c, 0, 68, 60
1, 32398, Note_on_c, 0, 56, 28
1, 32410, Note_off_c, 0, 59, 64
1, 32478, Note_off_c, 0, 70, 64
1, 32616, Note_off_c, 0, 56, 64
1, 32722, Note_on_c, 0, 51, 29
1, 32726, Note_on_c, 0, 70, 43
1, 32730, Control_c, 0, 64, 0
1, 32754, Note_off_c, 0, 68, 64
1, 33008, Control_c, 0, 64, 127
1, 33090, Note_on_c, 0, 55, 27
1, 33156, Note_off_c, 0, 70, 64
1, 33182, Note_on_c, 0, 71, 52
1, 33276, Note_off_c, 0, 71, 64
1, 33290, Note_on_c, 0, 70, 36
1, 33378, Note_off_c, 0, 70, 64
1, 33400, Note_on_c, 0, 68, 42
1, 33514, Note_off_c, 0, 55, 64
1, 33516, Control_c, 0, 64, 0
1, 33516, Note_on_c, 0, 61, 29
1, 33532, Note_on_c, 0, 63, 24
1, 33600, Note_on_c, 0, 70, 46
1, 33636, Note_off_c, 0, 68, 64
1, 33826, Note_off_c, 0, 63, 64
1, 33838, Control_c, 0, 64, 127
1, 33912, Note_off_c, 0, 61, 64
1, 34002, Note_off_c, 0, 51, 64
1, 34020, Note_on_c, 0, 55, 23
1, 34094, Note_off_c, 0, 55, 64
1, 34240, Note_on_c, 0, 71, 45
1, 34298, Note_off_c, 0, 70, 64
1, 34398, Note_on_c, 0, 44, 32
1, 34406, Control_c, 0, 64, 0
1, 34426, Note_on_c, 0, 68, 44
1, 34492, Note_off_c, 0, 71, 64
1, 34682, Control_c, 0, 64, 127
1, 34700, Note_off_c, 0, 44, 64
1, 34734, Note_on_c, 0, 56, 36
1, 34756, Note_off_c, 0, 68, 64
1, 34794, Note_off_c, 0, 56, 64
1, 35038, Note_on_c, 0, 63, 44
1, 35086, Note_on_c, 0, 59, 17
1, 35090, Note_on_c, 0, 75, 68
1, 35214, Note_off_c, 0, 63, 64
1, 35400, Note_off_c, 0, 59, 64
1, 35418, Note_on_c, 0, 56, 28
1, 35688, Note_on_c, 0, 73, 67
1, 35698, Note_on_c, 0, 61, 40
1, 35708, Note_on_c, 0, 58, 25
1, 35746, Note_off_c, 0, 56, 64
1, 35804, Control_c, 0, 64, 0
1, 35824, Note_off_c, 0, 75, 64
1, 36020, Control_c, 0, 64, 127
1, 36054, Note_on_c, 0, 56, 32
1, 36057, Note_off_c, 0, 58, 64
1, 36080, Note_off_c, 0, 61, 64
1, 36336, Note_off_c, 0, 56, 64
1, 36372, Note_on_c, 0, 76, 52
1, 36400, Note_on_c, 0, 61, 15
1, 36414, Note_on_c, 0, 64, 25
1, 36450, Control_c, 0, 64, 0
1, 36464, Note_off_c, 0, 73, 64
1, 36634, Control_c, 0, 64, 127
1, 36678, Note_off_c, 0, 64, 64
1, 36740, Note_off_c, 0, 61, 64
1, 36746, Note_on_c, 0, 56, 20
1, 36816, Note_off_c, 0, 56, 64
1, 37138, Note_on_c, 0, 75, 37
1, 37142, Note_on_c, 0, 44, 24
1, 37202, Control_c, 0, 64, 0
1, 37254, Note_off_c, 0, 76, 64
1, 37448, Control_c, 0, 64, 127
1, 37486, Note_off_c, 0, 44, 64
1, 37528, Note_on_c, 0, 56, 26
1, 37592, Note_off_c, 0, 56, 64
1, 37738, Note_off_c, 0, 75, 64
1, 37930, Note_on_c, 0, 63, 27
1, 37946, Note_on_c, 0, 75, 59
1, 37970, Note_on_c, 0, 59, 24
1, 38312, Note_on_c, 0, 56, 27
1, 38398, Note_off_c, 0, 56, 64
1, 38614, Note_on_c, 0, 56, 35
1, 38680, Note_off_c, 0, 59, 64
1, 38694, Note_off_c, 0, 56, 64
1, 38852, Note_off_c, 0, 63, 64
1, 38928, Note_on_c, 0, 56, 36
1, 39136, Note_off_c, 0, 56, 64
1, 39246, Note_on_c, 0, 65, 33
1, 39249, Note_on_c, 0, 59, 39
1, 39256, Note_on_c, 0, 77, 79
1, 39360, Note_off_c, 0, 75, 64
1, 39618, Note_on_c, 0, 56, 37
1, 39738, Note_off_c, 0, 65, 64
1, 39826, Note_off_c, 0, 59, 64
1, 39954, Note_off_c, 0, 56, 64
1, 39990, Note_on_c, 0, 78, 72
1, 40018, Note_on_c, 0, 51, 47
1, 40082, Note_off_c, 0, 77, 64
1, 40198, Control_c, 0, 64, 0
1, 40368, Note_on_c, 0, 77, 83
1, 40384, Note_on_c, 0, 54, 50
1, 40398, Control_c, 0, 64, 127
1, 40482, Note_off_c, 0, 78, 64
1, 40516, Note_off_c, 0, 51, 64
1, 40688, Note_on_c, 0, 75, 79
1, 40696, Note_off_c, 0, 54, 64
1, 40696, Note_on_c, 0, 66, 31
1, 40708, Note_on_c, 0, 58, 35
1, 40784, Note_off_c, 0, 77, 64
1, 40822, Note_off_c, 0, 66, 64
1, 40990, Note_on_c, 0, 73, 73
1, 41006, Note_on_c, 0, 54, 46
1, 41114, Note_off_c, 0, 58, 64
1, 41117, Note_off_c, 0, 75, 64
1, 41194, Note_off_c, 0, 54, 64
1, 41332, Note_on_c, 0, 46, 50
1, 41346, Note_on_c, 0, 77, 75
1, 41412, Control_c, 0, 64, 0
1, 41442, Note_off_c, 0, 73, 64
1, 41674, Control_c, 0, 64, 127
1, 41684, Note_on_c, 0, 53, 60
1, 41698, Note_off_c, 0, 46, 64
1, 41730, Note_off_c, 0, 53, 64
1, 41978, Note_on_c, 0, 61, 32
1, 41984, Note_on_c, 0, 58, 27
1, 41992, Note_on_c, 0, 65, 39
1, 42122, Note_off_c, 0, 65, 64
1, 42156, Note_off_c, 0, 61, 64
1, 42206, Note_off_c, 0, 58, 64
1, 42316, Note_on_c, 0, 53, 59
1, 42374, Note_off_c, 0, 53, 64
1, 42652, Note_on_c, 0, 41, 68
1, 42734, Control_c, 0, 64, 0
1, 42876, Note_off_c, 0, 41, 64
1, 42918, Control_c, 0, 64, 127
1, 43070, Note_on_c, 0, 73, 66
1, 43110, Note_on_c, 0, 53, 61
1, 43188, Note_off_c, 0, 53, 64
1, 43196, Note_off_c, 0, 77, 64
1, 43450, Note_on_c, 0, 72, 79
1, 43468, Note_on_c, 0, 65, 37
1, 43472, Note_on_c, 0, 58, 23
1, 43474, Note_on_c, 0, 61, 34
1, 43530, Note_off_c, 0, 73, 64
1, 43558, Note_off_c, 0, 65, 64
1, 43578, Note_off_c, 0, 61, 64
1, 43590, Note_off_c, 0, 58, 64
1, 43778, Note_on_c, 0, 70, 75
1, 43804, Note_on_c, 0, 53, 51
1, 43850, Note_off_c, 0, 72, 64
1, 43860, Note_off_c, 0, 53, 64
1, 44070, Control_c, 0, 64, 0
1, 44090, Note_on_c, 0, 72, 73
1, 44110, Note_on_c, 0, 41, 44
1, 44152, Note_off_c, 0, 70, 64
1, 44246, Note_off_c, 0, 41, 64
1, 44270, Control_c, 0, 64, 127
1, 44452, Note_on_c, 0, 53, 58
1, 44530, Note_off_c, 0, 72, 64
1, 44530, Note_on_c, 0, 73, 53
1, 44634, Note_on_c, 0, 72, 46
1, 44710, Note_off_c, 0, 73, 64
1, 44746, Note_on_c, 0, 70, 64
1, 44766, Note_off_c, 0, 72, 64
1, 44872, Note_on_c, 0, 72, 50
1, 44892, Note_on_c, 0, 57, 19
1, 44894, Note_on_c, 0, 63, 29
1, 44914, Note_off_c, 0, 70, 64
1, 44914, Note_on_c, 0, 65, 16
1, 44924, Note_off_c, 0, 53, 64
1, 44992, Control_c, 0, 64, 0
1, 45182, Note_off_c, 0, 65, 64
1, 45192, Control_c, 0, 64, 127
1, 45260, Note_off_c, 0, 63, 64
1, 45320, Note_off_c, 0, 57, 64
1, 45376, Note_on_c, 0, 73, 40
1, 45424, Note_on_c, 0, 53, 34
1, 45454, Note_off_c, 0, 72, 64
1, 45498, Note_off_c, 0, 53, 64
1, 45830, Note_on_c, 0, 70, 30
1, 45838, Note_on_c, 0, 46, 21
1, 45898, Control_c, 0, 64, 0
1, 45940, Note_off_c, 0, 73, 64
1, 46130, Control_c, 0, 64, 127
1, 46236, Note_off_c, 0, 46, 64
1, 46270, Note_on_c, 0, 53, 23
1, 46336, Note_off_c, 0, 53, 64
1, 46414, Note_off_c, 0, 70, 64
1, 46548, Note_on_c, 0, 77, 78
1, 46564, Note_on_c, 0, 65, 35
1, 46568, Note_on_c, 0, 61, 26
1, 46748, Note_off_c, 0, 65, 64
1, 46862, Note_off_c, 0, 61, 64
1, 46884, Note_on_c, 0, 53, 46
1, 47170, Note_on_c, 0, 75, 82
1, 47202, Note_on_c, 0, 60, 28
1, 47204, Note_on_c, 0, 63, 48
1, 47304, Note_off_c, 0, 53, 64
1, 47320, Note_off_c, 0, 77, 64
1, 47482, Control_c, 0, 64, 0
1, 47566, Note_on_c, 0, 53, 45
1, 47610, Note_off_c, 0, 60, 64
1, 47636, Control_c, 0, 64, 127
1, 47666, Note_off_c, 0, 63, 64
1, 47672, Note_off_c, 0, 53, 64
1, 47802, Note_on_c, 0, 78, 81
1, 47816, Note_on_c, 0, 66, 49
1, 47850, Note_on_c, 0, 63, 38
1, 47932, Note_off_c, 0, 75, 64
1, 47970, Note_off_c, 0, 63, 64
1, 48072, Note_off_c, 0, 66, 64
1, 48130, Note_on_c, 0, 53, 61
1, 48314, Note_off_c, 0, 53, 64
1, 48398, Note_on_c, 0, 77, 84
1, 48418, Note_on_c, 0, 61, 38
1, 48430, Note_on_c, 0, 65, 35
1, 48506, Note_off_c, 0, 78, 64
1, 48542, Control_c, 0, 64, 0
1, 48710, Control_c, 0, 64, 127
1, 48722, Note_on_c, 0, 73, 81
1, 48732, Note_off_c, 0, 65, 64
1, 48756, Note_off_c, 0, 61, 64
1, 48774, Note_on_c, 0, 53, 41
1, 48874, Note_off_c, 0, 77, 64
1, 48926, Note_off_c, 0, 53, 64
1, 49000, Note_on_c, 0, 58, 27
1, 49016, Note_on_c, 0, 61, 36
1, 49022, Note_on_c, 0, 65, 24
1, 49078, Note_on_c, 0, 72, 82
1, 49132, Note_off_c, 0, 73, 64
1, 49276, Note_off_c, 0, 65, 64
1, 49298, Note_off_c, 0, 58, 64
1, 49330, Note_off_c, 0, 61, 64
1, 49388, Note_on_c, 0, 70, 72
1, 49460, Note_on_c, 0, 53, 42
1, 49472, Note_off_c, 0, 72, 64
1, 49686, Note_on_c, 0, 63, 35
1, 49700, Note_on_c, 0, 57, 31
1, 49742, Note_on_c, 0, 72, 62
1, 49756, Control_c, 0, 64, 0
1, 49814, Note_off_c, 0, 70, 64
1, 49826, Note_off_c, 0, 53, 64
1, 49986, Control_c, 0, 64, 127
1, 50068, Note_off_c, 0, 72, 64
1, 50070, Note_on_c, 0, 73, 44
1, 50108, Note_on_c, 0, 53, 47
1, 50182, Note_on_c, 0, 72, 32
1, 50242, Note_off_c, 0, 73, 64
1, 50322, Note_on_c, 0, 70, 47
1, 50324, Note_off_c, 0, 72, 64
1, 50472, Note_on_c, 0, 65, 23
1, 50498, Note_on_c, 0, 72, 50
1, 50528, Note_off_c, 0, 70, 64
1, 50540, Control_c, 0, 64, 0
1, 50600, Note_off_c, 0, 53, 64
1, 50754, Control_c, 0, 64, 127
1, 50792, Note_off_c, 0, 65, 64
1, 50882, Note_off_c, 0, 63, 64
1, 50910, Note_off_c, 0, 57, 64
1, 51022, Note_on_c, 0, 53, 17
1, 51102, Note_off_c, 0, 53, 64
1, 51212, Note_on_c, 0, 73, 36
1, 51252, Note_off_c, 0, 72, 64
1, 51414, Note_on_c, 0, 46, 29
1, 51416, Control_c, 0, 64, 0
1, 51436, Note_on_c, 0, 70, 36
1, 51526, Note_off_c, 0, 73, 64
1, 51768, Control_c, 0, 64, 127
1, 51776, Note_off_c, 0, 46, 64
1, 51812, Note_on_c, 0, 53, 32
1, 51874, Note_off_c, 0, 53, 64
1, 51910, Note_off_c, 0, 70, 64
1, 52118, Note_on_c, 0, 75, 65
1, 52158, Note_on_c, 0, 63, 31
1, 52162, Note_on_c, 0, 60, 27
1, 52360, Note_off_c, 0, 63, 64
1, 52392, Note_off_c, 0, 60, 64
1, 52476, Note_on_c, 0, 53, 39
1, 52766, Note_on_c, 0, 77, 81
1, 52768, Note_on_c, 0, 61, 37
1, 52778, Note_on_c, 0, 65, 38
1, 52804, Note_off_c, 0, 53, 64
1, 52844, Control_c, 0, 64, 0
1, 52904, Note_off_c, 0, 75, 64
1, 53014, Control_c, 0, 64, 127
1, 53062, Note_off_c, 0, 65, 64
1, 53142, Note_on_c, 0, 53, 45
1, 53174, Note_off_c, 0, 61, 64
1, 53390, Note_on_c, 0, 63, 47
1, 53402, Note_on_c, 0, 75, 79
1, 53408, Note_on_c, 0, 60, 39
1, 53480, Note_off_c, 0, 53, 64
1, 53524, Note_off_c, 0, 77, 64
1, 53692, Note_off_c, 0, 63, 64
1, 53756, Note_off_c, 0, 60, 64
1, 53756, Note_on_c, 0, 53, 58
1, 54102, Note_on_c, 0, 65, 52
1, 54102, Note_on_c, 0, 61, 47
1, 54134, Note_on_c, 0, 77, 81
1, 54196, Control_c, 0, 64, 0
1, 54230, Note_off_c, 0, 75, 64
1, 54338, Note_off_c, 0, 53, 64
1, 54380, Control_c, 0, 64, 127
1, 54540, Note_on_c, 0, 53, 53
1, 54594, Note_off_c, 0, 53, 64
1, 54866, Note_off_c, 0, 65, 64
1, 54918, Note_on_c, 0, 53, 24
1, 54996, Note_off_c, 0, 53, 64
1, 55052, Note_off_c, 0, 61, 64
1, 55276, Note_on_c, 0, 53, 49
1, 55412, Note_off_c, 0, 53, 64
1, 55678, Note_on_c, 0, 61, 28
1, 55688, Note_on_c, 0, 65, 26
1, 56070, Control_c, 0, 64, 0
1, 56106, Note_on_c, 0, 54, 37
1, 56212, Note_off_c, 0, 65, 64
1, 56270, Note_off_c, 0, 61, 64
1, 56286, Control_c, 0, 64, 127
1, 56630, Note_on_c, 0, 75, 48
1, 56652, Note_off_c, 0, 54, 64
1, 56666, Note_on_c, 0, 63, 29
1, 56678, Note_on_c, 0, 60, 22
1, 56792, Note_off_c, 0, 77, 64
1, 57130, Control_c, 0, 64, 0
1, 57146, Note_on_c, 0, 56, 21
1, 57340, Note_off_c, 0, 60, 64
1, 57345, Control_c, 0, 64, 127
1, 57386, Note_off_c, 0, 63, 64
1, 57578, Note_off_c, 0, 56, 64
1, 58034, Note_on_c, 0, 77, 34
1, 58050, Note_on_c, 0, 49, 22
1, 58068, Control_c, 0, 64, 0
1, 58124, Note_off_c, 0, 75, 64
1, 58422, Control_c, 0, 64, 127
1, 58874, Note_on_c, 0, 56, 24
1, 58936, Note_off_c, 0, 49, 64
1, 59308, Note_off_c, 0, 56, 64
1, 59334, Note_on_c, 0, 73, 26
1, 59354, Note_off_c, 0, 77, 64
1, 59498, Note_off_c, 0, 73, 64
1, 59544, Note_on_c, 0, 68, 36
1, 59568, Note_on_c, 0, 65, 19
1, 59596, Note_on_c, 0, 61, 12
1, 60006, Note_on_c, 0, 56, 17
1, 60172, Note_off_c, 0, 56, 64
1, 60374, Note_on_c, 0, 56, 19
1, 60484, Note_off_c, 0, 56, 64
1, 60734, Note_on_c, 0, 56, 21
1, 60758, Note_off_c, 0, 65, 64
1, 60798, Note_off_c, 0, 61, 64
1, 60962, Note_off_c, 0, 56, 64
1, 61148, Note_on_c, 0, 70, 39
1, 61172, Note_on_c, 0, 61, 22
1, 61186, Note_on_c, 0, 65, 19
1, 61236, Note_off_c, 0, 68, 64
1, 61248, Control_c, 0, 64, 0
1, 61418, Control_c, 0, 64, 127
1, 61484, Note_off_c, 0, 65, 64
1, 61528, Note_off_c, 0, 61, 64
1, 61562, Note_on_c, 0, 56, 23
1, 61652, Note_off_c, 0, 56, 64
1, 61890, Note_on_c, 0, 72, 50
1, 61910, Control_c, 0, 64, 0
1, 61922, Note_on_c, 0, 66, 21
1, 61925, Note_on_c, 0, 63, 28
1, 62014, Note_off_c, 0, 70, 64
1, 62232, Control_c, 0, 64, 127
1, 62270, Note_on_c, 0, 56, 18
1, 62380, Note_off_c, 0, 56, 64
1, 62632, Note_on_c, 0, 56, 23
1, 62744, Note_off_c, 0, 56, 64
1, 62980, Note_on_c, 0, 56, 24
1, 63136, Note_off_c, 0, 56, 64
1, 63312, Note_on_c, 0, 58, 17
1, 63414, Control_c, 0, 64, 0
1, 63654, Note_off_c, 0, 58, 64
1, 63662, Control_c, 0, 64, 127
1, 63684, Note_on_c, 0, 56, 19
1, 63758, Note_off_c, 0, 63, 64
1, 63892, Note_off_c, 0, 66, 64
1, 63970, Note_off_c, 0, 56, 64
1, 64012, Note_on_c, 0, 73, 66
1, 64032, Note_on_c, 0, 61, 28
1, 64052, Note_on_c, 0, 65, 23
1, 64174, Note_off_c, 0, 72, 64
1, 64198, Control_c, 0, 64, 0
1, 64384, Control_c, 0, 64, 127
1, 64390, Note_on_c, 0, 56, 28
1, 64452, Note_off_c, 0, 65, 64
1, 64508, Note_off_c, 0, 61, 64
1, 64568, Note_off_c, 0, 56, 64
1, 64768, Note_on_c, 0, 75, 73
1, 64778, Note_on_c, 0, 66, 24
1, 64786, Note_on_c, 0, 60, 24
1, 64936, Control_c, 0, 64, 0
1, 64944, Note_off_c, 0, 73, 64
1, 65104, Control_c, 0, 64, 127
1, 65244, Note_on_c, 0, 56, 22
1, 65304, Note_off_c, 0, 66, 64
1, 65382, Note_off_c, 0, 60, 64
1, 65516, Note_on_c, 0, 77, 70
1, 65530, Note_on_c, 0, 68, 34
1, 65604, Note_off_c, 0, 68, 64
1, 65642, Note_off_c, 0, 75, 64
1, 65746, Note_on_c, 0, 78, 70
1, 65758, Note_on_c, 0, 70, 31
1, 65794, Control_c, 0, 64, 0
1, 65822, Note_off_c, 0, 77, 64
1, 65932, Note_off_c, 0, 56, 64
1, 66028, Control_c, 0, 64, 127
1, 66188, Note_on_c, 0, 56, 29
1, 66350, Note_off_c, 0, 56, 64
1, 66560, Note_on_c, 0, 56, 21
1, 66678, Note_off_c, 0, 56, 64
1, 66942, Note_on_c, 0, 56, 20
1, 67192, Note_off_c, 0, 56, 64
1, 67224, Note_off_c, 0, 70, 64
1, 67268, Note_on_c, 0, 77, 46
1, 67272, Note_on_c, 0, 68, 27
1, 67302, Note_on_c, 0, 61, 22
1, 67394, Control_c, 0, 64, 0
1, 67484, Note_off_c, 0, 78, 64
1, 67610, Control_c, 0, 64, 127
1, 67632, Note_off_c, 0, 61, 64
1, 67634, Note_on_c, 0, 56, 19
1, 67642, Note_off_c, 0, 68, 64
1, 67808, Note_off_c, 0, 56, 64
1, 67826, Note_off_c, 0, 77, 64
1, 67970, Note_on_c, 0, 68, 23
1, 67980, Note_on_c, 0, 77, 52
1, 68010, Note_on_c, 0, 60, 14
1, 68056, Control_c, 0, 64, 0
1, 68270, Control_c, 0, 64, 127
1, 68344, Note_on_c, 0, 56, 19
1, 68398, Note_off_c, 0, 68, 64
1, 68468, Note_off_c, 0, 56, 64
1, 68654, Note_off_c, 0, 60, 64
1, 68831, Note_on_c, 0, 66, 11
1, 68870, Note_on_c, 0, 60, 2
1, 69034, Note_off_c, 0, 60, 64
1, 69202, Note_on_c, 0, 75, 39
1, 69254, Note_off_c, 0, 66, 64
1, 69254, Note_on_c, 0, 56, 20
1, 69414, Note_off_c, 0, 77, 64
1, 69448, Note_off_c, 0, 56, 64
1, 69680, Note_on_c, 0, 73, 34
1, 69708, Note_on_c, 0, 61, 18
1, 69722, Note_on_c, 0, 65, 13
1, 69796, Note_off_c, 0, 75, 64
1, 69930, Control_c, 0, 64, 0
1, 70056, Note_on_c, 0, 56, 28
1, 70126, Note_off_c, 0, 65, 64
1, 70130, Control_c, 0, 64, 127
1, 70212, Note_off_c, 0, 61, 64
1, 70216, Note_off_c, 0, 56, 64
1, 70436, Note_on_c, 0, 74, 61
1, 70464, Note_on_c, 0, 66, 16
1, 70480, Note_on_c, 0, 60, 12
1, 70484, Note_off_c, 0, 73, 64
1, 70644, Note_on_c, 0, 75, 66
1, 70684, Note_off_c, 0, 74, 64
1, 70792, Note_on_c, 0, 76, 67
1, 70830, Note_off_c, 0, 75, 64
1, 70948, Note_on_c, 0, 77, 62
1, 70974, Control_c, 0, 64, 0
1, 70979, Note_on_c, 0, 56, 19
1, 70990, Note_off_c, 0, 76, 64
1, 71122, Note_off_c, 0, 77, 64
1, 71130, Note_on_c, 0, 80, 42
1, 71236, Control_c, 0, 64, 127
1, 71298, Note_off_c, 0, 66, 64
1, 71332, Note_off_c, 0, 60, 64
1, 71335, Note_off_c, 0, 80, 64
1, 71354, Note_on_c, 0, 79, 30
1, 71386, Note_off_c, 0, 56, 64
1, 71456, Note_off_c, 0, 79, 64
1, 71538, Note_on_c, 0, 78, 39
1, 71598, Note_off_c, 0, 78, 64
1, 71848, Note_on_c, 0, 49, 15
1, 71860, Note_on_c, 0, 77, 45
1, 71896, Control_c, 0, 64, 0
1, 72234, Control_c, 0, 64, 127
1, 72462, Note_on_c, 0, 56, 19
1, 72496, Note_off_c, 0, 49, 64
1, 72702, Note_off_c, 0, 77, 64
1, 72732, Note_on_c, 0, 73, 18
1, 72735, Note_off_c, 0, 56, 64
1, 72830, Note_off_c, 0, 73, 64
1, 72932, Note_on_c, 0, 68, 33
1, 72982, Note_on_c, 0, 61, 20
1, 72994, Note_on_c, 0, 65, 21
1, 73272, Note_off_c, 0, 61, 64
1, 73366, Note_on_c, 0, 56, 15
1, 73466, Note_off_c, 0, 56, 64
1, 73734, Note_on_c, 0, 56, 22
1, 73852, Note_off_c, 0, 56, 64
1, 74096, Note_on_c, 0, 56, 23
1, 74174, Note_off_c, 0, 56, 64
1, 74416, Note_on_c, 0, 70, 36
1, 74426, Note_on_c, 0, 56, 25
1, 74516, Note_off_c, 0, 56, 64
1, 74616, Note_off_c, 0, 68, 64
1, 74652, Note_off_c, 0, 65, 64
1, 74798, Note_on_c, 0, 56, 21
1, 74886, Note_off_c, 0, 56, 64
1, 75130, Note_on_c, 0, 72, 47
1, 75138, Control_c, 0, 64, 0
1, 75154, Note_on_c, 0, 66, 24
1, 75164, Note_on_c, 0, 63, 24
1, 75268, Note_off_c, 0, 70, 64
1, 75414, Control_c, 0, 64, 127
1, 75494, Note_on_c, 0, 56, 23
1, 75586, Note_off_c, 0, 63, 64
1, 75590, Note_off_c, 0, 56, 64
1, 75822, Note_on_c, 0, 56, 24
1, 75908, Note_off_c, 0, 56, 64
1, 76176, Note_on_c, 0, 56, 25
1, 76282, Note_off_c, 0, 56, 64
1, 76506, Note_on_c, 0, 58, 17
1, 76614, Control_c, 0, 64, 0
1, 76814, Control_c, 0, 64, 127
1, 76846, Note_off_c, 0, 58, 64
1, 76886, Note_on_c, 0, 56, 17
1, 77034, Note_off_c, 0, 56, 64
1, 77110, Note_off_c, 0, 66, 64
1, 77238, Note_on_c, 0, 73, 55
1, 77282, Note_on_c, 0, 61, 21
1, 77282, Note_on_c, 0, 65, 26
1, 77382, Control_c, 0, 64, 0
1, 77414, Note_off_c, 0, 72, 64
1, 77566, Control_c, 0, 64, 127
1, 77620, Note_on_c, 0, 56, 19
1, 77666, Note_off_c, 0, 65, 64
1, 77680, Note_off_c, 0, 61, 64
1, 77880, Note_off_c, 0, 56, 64
1, 77920, Note_on_c, 0, 75, 60
1, 77928, Note_on_c, 0, 66, 34
1, 77956, Note_on_c, 0, 60, 24
1, 78088, Note_off_c, 0, 73, 64
1, 78104, Control_c, 0, 64, 0
1, 78288, Control_c, 0, 64, 127
1, 78376, Note_on_c, 0, 56, 16
1, 78526, Note_off_c, 0, 66, 64
1, 78746, Note_on_c, 0, 77, 50
1, 78748, Note_on_c, 0, 68, 22
1, 78824, Note_off_c, 0, 68, 64
1, 78878, Note_off_c, 0, 75, 64
1, 78974, Note_on_c, 0, 78, 55
1, 78980, Control_c, 0, 64, 0
1, 78980, Note_on_c, 0, 70, 27
1, 79036, Note_off_c, 0, 77, 64
1, 79152, Note_off_c, 0, 56, 64
1, 79224, Control_c, 0, 64, 127
1, 79454, Note_off_c, 0, 60, 64
1, 79454, Note_on_c, 0, 56, 22
1, 79632, Note_off_c, 0, 56, 64
1, 79888, Note_on_c, 0, 56, 19
1, 80020, Note_off_c, 0, 56, 64
1, 80092, Note_off_c, 0, 78, 64
1, 80202, Note_on_c, 0, 68, 23
1, 80218, Note_off_c, 0, 70, 64
1, 80260, Note_on_c, 0, 56, 10
1, 80272, Note_off_c, 0, 68, 64
1, 80508, Note_off_c, 0, 56, 64
1, 80570, Note_on_c, 0, 63, 27
1, 80580, Note_on_c, 0, 72, 42
1, 80990, Note_on_c, 0, 56, 30
1, 81116, Note_off_c, 0, 56, 64
1, 81206, Note_off_c, 0, 63, 64
1, 81462, Note_off_c, 0, 72, 64
1, 81465, Note_on_c, 0, 75, 43
1, 81512, Note_on_c, 0, 66, 8
1, 81594, Note_off_c, 0, 66, 64
1, 81614, Note_off_c, 0, 75, 64
1, 81960, Note_on_c, 0, 56, 14
1, 82090, Note_off_c, 0, 56, 64
1, 82376, Note_on_c, 0, 56, 23
1, 82524, Note_off_c, 0, 56, 64
1, 82724, Note_on_c, 0, 56, 21
1, 82900, Note_off_c, 0, 56, 64
1, 83058, Note_on_c, 0, 56, 22
1, 83216, Note_off_c, 0, 56, 64
1, 83424, Note_on_c, 0, 56, 22
1, 83540, Note_off_c, 0, 56, 64
1, 83744, Note_on_c, 0, 56, 21
1, 83864, Note_off_c, 0, 56, 64
1, 84128, Note_on_c, 0, 56, 14
1, 84194, Note_off_c, 0, 56, 64
1, 84634, Note_on_c, 0, 56, 30
1, 84648, Note_on_c, 0, 37, 29
1, 84674, Note_on_c, 0, 44, 2
1, 84832, Note_off_c, 0, 56, 64
1, 84892, Note_off_c, 0, 44, 64
1, 85022, Note_on_c, 0, 56, 31
1, 85150, Note_off_c, 0, 37, 64
1, 85160, Note_off_c, 0, 56, 64
1, 85364, Note_on_c, 0, 56, 37
1, 85366, Note_on_c, 0, 39, 32
1, 85372, Control_c, 0, 64, 0
1, 85380, Note_on_c, 0, 44, 34
1, 85530, Note_off_c, 0, 56, 64
1, 85618, Control_c, 0, 64, 127
1, 85676, Note_off_c, 0, 44, 64
1, 85696, Note_on_c, 0, 56, 30
1, 85760, Note_off_c, 0, 39, 64
1, 85822, Note_off_c, 0, 56, 64
1, 86006, Note_on_c, 0, 56, 28
1, 86016, Control_c, 0, 64, 0
1, 86020, Note_on_c, 0, 49, 36
1, 86025, Note_on_c, 0, 40, 54
1, 86164, Note_off_c, 0, 56, 64
1, 86248, Control_c, 0, 64, 127
1, 86338, Note_on_c, 0, 56, 33
1, 86378, Note_off_c, 0, 40, 64
1, 86470, Note_off_c, 0, 49, 64
1, 86470, Note_off_c, 0, 56, 64
1, 86662, Control_c, 0, 64, 0
1, 86674, Note_on_c, 0, 39, 39
1, 86682, Note_on_c, 0, 56, 35
1, 86694, Note_on_c, 0, 48, 30
1, 86822, Note_off_c, 0, 56, 64
1, 86876, Control_c, 0, 64, 127
1, 86904, Note_off_c, 0, 39, 64
1, 86980, Note_on_c, 0, 56, 28
1, 87042, Note_off_c, 0, 48, 64
1, 87106, Note_off_c, 0, 56, 64
1, 87286, Note_on_c, 0, 56, 38
1, 87292, Control_c, 0, 64, 0
1, 87298, Note_on_c, 0, 44, 51
1, 87308, Note_on_c, 0, 39, 43
1, 87468, Note_off_c, 0, 56, 64
1, 87508, Control_c, 0, 64, 127
1, 87574, Note_off_c, 0, 44, 64
1, 87594, Note_on_c, 0, 56, 33
1, 87746, Note_off_c, 0, 56, 64
1, 87878, Note_off_c, 0, 39, 64
1, 87906, Note_on_c, 0, 56, 41
1, 87916, Note_on_c, 0, 44, 56
1, 87922, Control_c, 0, 64, 0
1, 87926, Note_on_c, 0, 40, 51
1, 88056, Note_off_c, 0, 56, 64
1, 88168, Control_c, 0, 64, 127
1, 88218, Note_on_c, 0, 56, 44
1, 88354, Note_off_c, 0, 56, 64
1, 88356, Note_off_c, 0, 44, 64
1, 88378, Note_off_c, 0, 40, 64
1, 88516, Note_on_c, 0, 56, 38
1, 88526, Note_on_c, 0, 51, 55
1, 88540, Note_on_c, 0, 42, 41
1, 88552, Control_c, 0, 64, 0
1, 88680, Note_off_c, 0, 56, 64
1, 88798, Control_c, 0, 64, 127
1, 88828, Note_on_c, 0, 56, 33
1, 88952, Note_off_c, 0, 56, 64
1, 88968, Note_off_c, 0, 51, 64
1, 89102, Note_off_c, 0, 42, 64
1, 89132, Note_on_c, 0, 56, 32
1, 89150, Note_on_c, 0, 49, 42
1, 89180, Note_on_c, 0, 40, 39
1, 89182, Control_c, 0, 64, 0
1, 89288, Note_off_c, 0, 56, 64
1, 89428, Control_c, 0, 64, 127
1, 89462, Note_on_c, 0, 56, 33
1, 89540, Note_off_c, 0, 40, 64
1, 89550, Note_off_c, 0, 49, 64
1, 89594, Note_off_c, 0, 56, 64
1, 89760, Note_on_c, 0, 56, 35
1, 89762, Note_on_c, 0, 49, 57
1, 89778, Note_on_c, 0, 40, 59
1, 89812, Control_c, 0, 64, 0
1, 89934, Note_off_c, 0, 56, 64
1, 90026, Control_c, 0, 64, 127
1, 90062, Note_on_c, 0, 56, 34
1, 90194, Note_off_c, 0, 49, 64
1, 90204, Note_off_c, 0, 56, 64
1, 90370, Note_on_c, 0, 56, 44
1, 90388, Note_on_c, 0, 51, 50
1, 90396, Note_on_c, 0, 44, 52
1, 90396, Control_c, 0, 64, 0
1, 90406, Note_off_c, 0, 40, 64
1, 90548, Note_off_c, 0, 56, 64
1, 90642, Control_c, 0, 64, 127
1, 90670, Note_on_c, 0, 56, 38
1, 90826, Note_off_c, 0, 56, 64
1, 90902, Note_off_c, 0, 51, 64
1, 90952, Note_off_c, 0, 44, 64
1, 90988, Note_on_c, 0, 56, 34
1, 91018, Note_on_c, 0, 52, 51
1, 91024, Note_on_c, 0, 49, 37
1, 91072, Control_c, 0, 64, 0
1, 91168, Note_off_c, 0, 56, 64
1, 91286, Control_c, 0, 64, 127
1, 91306, Note_on_c, 0, 56, 26
1, 91412, Note_off_c, 0, 49, 64
1, 91450, Note_off_c, 0, 56, 64
1, 91580, Note_off_c, 0, 52, 64
1, 91622, Note_on_c, 0, 56, 32
1, 91656, Control_c, 0, 64, 0
1, 91668, Note_on_c, 0, 51, 28
1, 91686, Note_on_c, 0, 44, 22
1, 91792, Note_off_c, 0, 56, 64
1, 91902, Control_c, 0, 64, 127
1, 91952, Note_on_c, 0, 56, 33
1, 92018, Note_off_c, 0, 51, 64
1, 92086, Note_off_c, 0, 44, 64
1, 92086, Note_off_c, 0, 56, 64
1, 92244, Note_on_c, 0, 51, 36
1, 92247, Note_on_c, 0, 44, 48
1, 92250, Note_on_c, 0, 56, 37
1, 92308, Note_off_c, 0, 51, 64
1, 92312, Note_off_c, 0, 44, 64
1, 92328, Note_off_c, 0, 56, 64
1, 92568, Note_on_c, 0, 56, 25
1, 92672, Note_off_c, 0, 56, 64
1, 92856, Note_on_c, 0, 56, 28
1, 93000, Note_off_c, 0, 56, 64
1, 93156, Note_on_c, 0, 56, 27
1, 93278, Note_off_c, 0, 56, 64
1, 93470, Note_on_c, 0, 56, 30
1, 93590, Note_off_c, 0, 56, 64
1, 93754, Note_on_c, 0, 56, 29
1, 93856, Note_off_c, 0, 56, 64
1, 94040, Note_on_c, 0, 56, 23
1, 94148, Note_off_c, 0, 56, 64
1, 94336, Note_on_c, 0, 56, 28
1, 94432, Note_off_c, 0, 56, 64
1, 94622, Note_on_c, 0, 56, 24
1, 94746, Note_off_c, 0, 56, 64
1, 94928, Note_on_c, 0, 56, 25
1, 95040, Note_off_c, 0, 56, 64
1, 95212, Note_on_c, 0, 56, 23
1, 95242, Note_on_c, 0, 52, 41
1, 95250, Note_on_c, 0, 49, 24
1, 95252, Control_c, 0, 64, 0
1, 95396, Note_off_c, 0, 56, 64
1, 95482, Control_c, 0, 64, 127
1, 95532, Note_on_c, 0, 56, 29
1, 95620, Note_off_c, 0, 52, 64
1, 95656, Note_off_c, 0, 56, 64
1, 95666, Note_off_c, 0, 49, 64
1, 95820, Note_on_c, 0, 56, 30
1, 95828, Note_on_c, 0, 51, 49
1, 95856, Note_on_c, 0, 44, 38
1, 95866, Control_c, 0, 64, 0
1, 96002, Note_off_c, 0, 56, 64
1, 96066, Control_c, 0, 64, 127
1, 96130, Note_on_c, 0, 56, 33
1, 96222, Note_off_c, 0, 51, 64
1, 96252, Note_off_c, 0, 56, 64
1, 96392, Note_off_c, 0, 44, 64
1, 96426, Note_on_c, 0, 49, 59
1, 96426, Note_on_c, 0, 56, 33
1, 96450, Control_c, 0, 64, 0
1, 96470, Note_on_c, 0, 40, 42
1, 96582, Note_off_c, 0, 56, 64
1, 96634, Control_c, 0, 64, 127
1, 96706, Note_on_c, 0, 56, 35
1, 96726, Note_off_c, 0, 49, 64
1, 96830, Note_off_c, 0, 56, 64
1, 96942, Note_off_c, 0, 40, 64
1, 96988, Control_c, 0, 64, 0
1, 97014, Note_on_c, 0, 51, 68
1, 97022, Note_on_c, 0, 56, 37
1, 97028, Note_on_c, 0, 44, 53
1, 97154, Note_off_c, 0, 56, 64
1, 97218, Control_c, 0, 64, 127
1, 97310, Note_on_c, 0, 56, 43
1, 97406, Note_off_c, 0, 51, 64
1, 97426, Note_off_c, 0, 56, 64
1, 97578, Note_on_c, 0, 56, 48
1, 97586, Control_c, 0, 64, 0
1, 97586, Note_on_c, 0, 49, 65
1, 97606, Note_off_c, 0, 44, 64
1, 97612, Note_on_c, 0, 40, 63
1, 97740, Note_off_c, 0, 56, 64
1, 97786, Control_c, 0, 64, 127
1, 97884, Note_on_c, 0, 56, 41
1, 98008, Note_off_c, 0, 56, 64
1, 98052, Note_off_c, 0, 49, 64
1, 98162, Note_off_c, 0, 40, 64
1, 98162, Note_on_c, 0, 56, 42
1, 98182, Note_on_c, 0, 39, 46
1, 98185, Control_c, 0, 64, 0
1, 98188, Note_on_c, 0, 48, 60
1, 98348, Note_off_c, 0, 56, 64
1, 98400, Control_c, 0, 64, 127
1, 98462, Note_on_c, 0, 56, 38
1, 98526, Note_off_c, 0, 48, 64
1, 98586, Note_off_c, 0, 56, 64
1, 98742, Note_on_c, 0, 49, 57
1, 98748, Note_off_c, 0, 39, 64
1, 98748, Note_on_c, 0, 56, 39
1, 98754, Note_on_c, 0, 40, 66
1, 98770, Control_c, 0, 64, 0
1, 98902, Note_off_c, 0, 56, 64
1, 98984, Control_c, 0, 64, 127
1, 99026, Note_on_c, 0, 56, 46
1, 99154, Note_off_c, 0, 56, 64
1, 99266, Note_off_c, 0, 49, 64
1, 99302, Note_on_c, 0, 56, 54
1, 99332, Note_on_c, 0, 48, 57
1, 99338, Note_off_c, 0, 40, 64
1, 99338, Note_on_c, 0, 39, 50
1, 99462, Note_off_c, 0, 56, 64
1, 99580, Note_on_c, 0, 56, 43
1, 99686, Note_off_c, 0, 48, 64
1, 99722, Note_off_c, 0, 56, 64
1, 99846, Note_on_c, 0, 56, 34
1, 99860, Note_on_c, 0, 49, 69
1, 99876, Note_on_c, 0, 40, 68
1, 99896, Note_off_c, 0, 39, 64
1, 99984, Control_c, 0, 64, 0
1, 100034, Note_off_c, 0, 56, 64
1, 100136, Note_on_c, 0, 56, 43
1, 100136, Control_c, 0, 64, 127
1, 100276, Note_off_c, 0, 56, 64
1, 100332, Note_off_c, 0, 49, 64
1, 100426, Note_on_c, 0, 56, 44
1, 100432, Note_on_c, 0, 51, 73
1, 100452, Note_on_c, 0, 39, 43
1, 100506, Control_c, 0, 64, 0
1, 100524, Note_off_c, 0, 40, 64
1, 100592, Note_off_c, 0, 56, 64
1, 100690, Control_c, 0, 64, 127
1, 100716, Note_on_c, 0, 56, 48
1, 100864, Note_off_c, 0, 56, 64
1, 100898, Note_off_c, 0, 51, 64
1, 100988, Note_on_c, 0, 52, 86
1, 100988, Note_on_c, 0, 56, 47
1, 100996, Note_on_c, 0, 37, 61
1, 101004, Note_off_c, 0, 39, 64
1, 101074, Control_c, 0, 64, 0
1, 101168, Note_off_c, 0, 56, 64
1, 101280, Note_on_c, 0, 56, 45
1, 101290, Control_c, 0, 64, 127
1, 101396, Note_off_c, 0, 52, 64
1, 101448, Note_off_c, 0, 56, 64
1, 101562, Note_on_c, 0, 56, 53
1, 101574, Note_on_c, 0, 51, 64
1, 101588, Note_on_c, 0, 44, 60
1, 101642, Control_c, 0, 64, 0
1, 101664, Note_off_c, 0, 37, 64
1, 101810, Note_off_c, 0, 56, 64
1, 101870, Note_on_c, 0, 68, 51
1, 101886, Note_on_c, 0, 56, 55
1, 101888, Control_c, 0, 64, 127
1, 102010, Note_off_c, 0, 56, 64
1, 102030, Note_off_c, 0, 68, 64
1, 102166, Note_on_c, 0, 68, 22
1, 102182, Note_on_c, 0, 56, 26
1, 102266, Note_off_c, 0, 68, 64
1, 102266, Note_off_c, 0, 56, 64
1, 102456, Note_on_c, 0, 68, 33
1, 102466, Note_on_c, 0, 56, 28
1, 102534, Note_off_c, 0, 68, 64
1, 102544, Note_off_c, 0, 56, 64
1, 102734, Note_on_c, 0, 56, 32
1, 102742, Note_on_c, 0, 68, 36
1, 102818, Note_off_c, 0, 56, 64
1, 102830, Note_off_c, 0, 68, 64
1, 103008, Note_on_c, 0, 68, 38
1, 103020, Note_on_c, 0, 56, 38
1, 103094, Note_off_c, 0, 56, 64
1, 103112, Note_off_c, 0, 68, 64
1, 103276, Note_on_c, 0, 68, 39
1, 103296, Note_on_c, 0, 56, 30
1, 103370, Note_off_c, 0, 56, 64
1, 103374, Note_off_c, 0, 68, 64
1, 103426, Note_off_c, 0, 51, 64
1, 103498, Note_off_c, 0, 44, 64
1, 103572, Note_on_c, 0, 68, 42
1, 103572, Note_on_c, 0, 56, 38
1, 103652, Note_off_c, 0, 56, 64
1, 103662, Note_off_c, 0, 68, 64
1, 103882, Note_on_c, 0, 56, 39
1, 103892, Note_on_c, 0, 37, 69
1, 103898, Note_on_c, 0, 44, 54
1, 103900, Note_on_c, 0, 68, 39
1, 104080, Note_off_c, 0, 56, 64
1, 104086, Note_off_c, 0, 68, 64
1, 104208, Note_on_c, 0, 56, 36
1, 104208, Note_on_c, 0, 68, 32
1, 104266, Note_off_c, 0, 44, 64
1, 104352, Note_off_c, 0, 56, 64
1, 104374, Note_off_c, 0, 68, 64
1, 104498, Note_on_c, 0, 68, 34
1, 104508, Note_on_c, 0, 56, 43
1, 104514, Note_on_c, 0, 44, 59
1, 104519, Note_on_c, 0, 39, 66
1, 104612, Note_off_c, 0, 37, 64
1, 104626, Note_off_c, 0, 56, 64
1, 104650, Note_off_c, 0, 68, 64
1, 104796, Note_on_c, 0, 68, 55
1, 104799, Note_on_c, 0, 56, 47
1, 104922, Note_off_c, 0, 68, 64
1, 104922, Note_off_c, 0, 56, 64
1, 105078, Note_on_c, 0, 68, 56
1, 105086, Note_on_c, 0, 61, 62
1, 105089, Note_on_c, 0, 56, 47
1, 105092, Note_on_c, 0, 49, 65
1, 105100, Note_on_c, 0, 40, 85
1, 105100, Control_c, 0, 64, 0
1, 105112, Note_off_c, 0, 44, 64
1, 105132, Note_off_c, 0, 39, 64
1, 105246, Note_off_c, 0, 56, 64
1, 105254, Note_off_c, 0, 68, 64
1, 105346, Control_c, 0, 64, 127
1, 105362, Note_on_c, 0, 68, 44
1, 105370, Note_on_c, 0, 56, 42
1, 105498, Note_off_c, 0, 61, 64
1, 105498, Note_off_c, 0, 68, 64
1, 105501, Note_off_c, 0, 56, 64
1, 105552, Note_off_c, 0, 49, 64
1, 105624, Note_off_c, 0, 40, 64
1, 105646, Note_on_c, 0, 68, 58
1, 105656, Note_on_c, 0, 56, 45
1, 105660, Note_on_c, 0, 60, 59
1, 105662, Note_on_c, 0, 39, 51
1, 105665, Note_on_c, 0, 48, 50
1, 105796, Note_off_c, 0, 68, 64
1, 105799, Note_off_c, 0, 56, 64
1, 105884, Control_c, 0, 64, 0
1, 105928, Note_on_c, 0, 68, 55
1, 105944, Note_on_c, 0, 56, 44
1, 106068, Note_off_c, 0, 39, 64
1, 106068, Note_off_c, 0, 56, 64
1, 106084, Control_c, 0, 64, 127
1, 106087, Note_off_c, 0, 68, 64
1, 106200, Note_on_c, 0, 68, 40
1, 106212, Note_on_c, 0, 56, 45
1, 106224, Note_on_c, 0, 44, 79
1, 106236, Note_on_c, 0, 39, 61
1, 106258, Note_off_c, 0, 48, 64
1, 106334, Note_off_c, 0, 56, 64
1, 106356, Note_off_c, 0, 68, 64
1, 106500, Note_on_c, 0, 56, 53
1, 106502, Note_on_c, 0, 68, 60
1, 106630, Note_off_c, 0, 56, 64
1, 106644, Note_off_c, 0, 68, 64
1, 106650, Note_off_c, 0, 44, 64
1, 106682, Note_off_c, 0, 60, 64
1, 106778, Note_on_c, 0, 44, 81
1, 106780, Note_on_c, 0, 56, 56
1, 106782, Note_on_c, 0, 40, 90
1, 106786, Note_on_c, 0, 68, 58
1, 106806, Note_off_c, 0, 39, 64
1, 106924, Note_off_c, 0, 56, 64
1, 106932, Note_off_c, 0, 68, 64
1, 107058, Note_on_c, 0, 56, 54
1, 107061, Note_on_c, 0, 68, 55
1, 107154, Note_off_c, 0, 56, 64
1, 107188, Note_off_c, 0, 68, 64
1, 107330, Note_on_c, 0, 68, 70
1, 107338, Note_on_c, 0, 51, 62
1, 107342, Note_on_c, 0, 63, 76
1, 107344, Note_on_c, 0, 56, 61
1, 107358, Note_on_c, 0, 42, 66
1, 107380, Note_off_c, 0, 44, 64
1, 107386, Note_off_c, 0, 40, 64
1, 107390, Control_c, 0, 64, 0
1, 107506, Note_off_c, 0, 56, 64
1, 107520, Note_off_c, 0, 68, 64
1, 107624, Note_on_c, 0, 68, 52
1, 107630, Note_on_c, 0, 56, 61
1, 107636, Control_c, 0, 64, 127
1, 107756, Note_off_c, 0, 51, 64
1, 107760, Note_off_c, 0, 56, 64
1, 107780, Note_off_c, 0, 68, 64
1, 107912, Note_on_c, 0, 68, 62
1, 107912, Note_on_c, 0, 49, 64
1, 107912, Note_on_c, 0, 61, 72
1, 107915, Note_on_c, 0, 56, 52
1, 107920, Note_on_c, 0, 40, 79
1, 107930, Note_off_c, 0, 42, 64
1, 107968, Note_off_c, 0, 63, 64
1, 108020, Control_c, 0, 64, 0
1, 108092, Note_off_c, 0, 56, 64
1, 108108, Note_off_c, 0, 68, 64
1, 108188, Control_c, 0, 64, 127
1, 108196, Note_on_c, 0, 68, 48
1, 108201, Note_on_c, 0, 56, 53
1, 108272, Note_off_c, 0, 49, 64
1, 108286, Note_off_c, 0, 40, 64
1, 108332, Note_off_c, 0, 56, 64
1, 108370, Note_off_c, 0, 68, 64
1, 108468, Note_on_c, 0, 68, 48
1, 108478, Note_on_c, 0, 56, 65
1, 108482, Note_on_c, 0, 49, 88
1, 108498, Note_on_c, 0, 40, 95
1, 108632, Note_off_c, 0, 56, 64
1, 108654, Note_off_c, 0, 68, 64
1, 108764, Note_on_c, 0, 68, 52
1, 108774, Note_on_c, 0, 56, 66
1, 108846, Note_off_c, 0, 40, 64
1, 108864, Note_off_c, 0, 49, 64
1, 108888, Note_off_c, 0, 56, 64
1, 108898, Note_off_c, 0, 61, 64
1, 108914, Note_off_c, 0, 68, 64
1, 109034, Note_on_c, 0, 63, 85
1, 109037, Note_on_c, 0, 56, 73
1, 109037, Note_on_c, 0, 68, 67
1, 109037, Note_on_c, 0, 51, 88
1, 109048, Note_on_c, 0, 44, 81
1, 109064, Control_c, 0, 64, 0
1, 109202, Note_off_c, 0, 56, 64
1, 109214, Note_off_c, 0, 68, 64
1, 109264, Control_c, 0, 64, 127
1, 109322, Note_on_c, 0, 68, 62
1, 109338, Note_on_c, 0, 56, 69
1, 109466, Note_off_c, 0, 56, 64
1, 109490, Note_off_c, 0, 51, 64
1, 109510, Note_off_c, 0, 44, 64
1, 109510, Note_off_c, 0, 68, 64
1, 109528, Note_off_c, 0, 63, 64
1, 109582, Note_on_c, 0, 64, 98
1, 109585, Note_on_c, 0, 49, 76
1, 109588, Note_on_c, 0, 52, 89
1, 109594, Note_on_c, 0, 56, 73
1, 109638, Note_on_c, 0, 68, 5
1, 109664, Control_c, 0, 64, 0
1, 109732, Note_off_c, 0, 56, 64
1, 109770, Note_off_c, 0, 68, 64
1, 109848, Control_c, 0, 64, 127
1, 109866, Note_on_c, 0, 68, 65
1, 109876, Note_on_c, 0, 56, 66
1, 109932, Note_off_c, 0, 52, 64
1, 109988, Note_off_c, 0, 49, 64
1, 109998, Note_off_c, 0, 56, 64
1, 110016, Note_off_c, 0, 68, 64
1, 110116, Note_off_c, 0, 64, 64
1, 110142, Note_on_c, 0, 56, 78
1, 110142, Note_on_c, 0, 68, 69
1, 110145, Note_on_c, 0, 63, 90
1, 110156, Note_on_c, 0, 51, 91
1, 110162, Note_on_c, 0, 44, 88
1, 110170, Control_c, 0, 64, 0
1, 110298, Note_off_c, 0, 68, 64
1, 110312, Note_off_c, 0, 56, 64
1, 110324, Control_c, 0, 64, 127
1, 110388, Note_off_c, 0, 51, 64
1, 110438, Note_off_c, 0, 44, 64
1, 110466, Note_on_c, 0, 68, 70
1, 110474, Note_on_c, 0, 56, 58
1, 110546, Note_on_c, 0, 32, 88
1, 110568, Note_off_c, 0, 63, 64
1, 110596, Note_off_c, 0, 32, 64
1, 110628, Note_off_c, 0, 56, 64
1, 110658, Note_off_c, 0, 68, 64
1, 110766, Note_on_c, 0, 68, 64
1, 110772, Note_on_c, 0, 63, 88
1, 110774, Note_on_c, 0, 56, 74
1, 110802, Note_on_c, 0, 51, 95
1, 110812, Note_on_c, 0, 44, 86
1, 110922, Note_off_c, 0, 56, 64
1, 110968, Note_off_c, 0, 68, 64
1, 111063, Note_on_c, 0, 68, 53
1, 111076, Note_on_c, 0, 56, 62
1, 111212, Note_off_c, 0, 56, 64
1, 111234, Note_off_c, 0, 68, 64
1, 111336, Note_on_c, 0, 68, 56
1, 111354, Note_on_c, 0, 56, 62
1, 111472, Note_off_c, 0, 56, 64
1, 111508, Note_off_c, 0, 68, 64
1, 111604, Note_on_c, 0, 68, 54
1, 111610, Note_on_c, 0, 56, 72
1, 111760, Note_off_c, 0, 56, 64
1, 111792, Note_off_c, 0, 68, 64
1, 111882, Note_on_c, 0, 68, 64
1, 111896, Note_on_c, 0, 56, 78
1, 112062, Note_off_c, 0, 56, 64
1, 112086, Note_off_c, 0, 68, 64
1, 112162, Note_on_c, 0, 68, 67
1, 112168, Note_on_c, 0, 56, 77
1, 112228, Note_off_c, 0, 44, 64
1, 112298, Note_off_c, 0, 51, 64
1, 112318, Note_off_c, 0, 56, 64
1, 112342, Note_off_c, 0, 68, 64
1, 112398, Note_off_c, 0, 63, 64
1, 112450, Note_on_c, 0, 56, 90
1, 112450, Note_on_c, 0, 68, 76
1, 112588, Note_off_c, 0, 56, 64
1, 112606, Note_off_c, 0, 68, 64
1, 112740, Note_on_c, 0, 56, 81
1, 112740, Note_on_c, 0, 68, 90
1, 112828, Note_off_c, 0, 56, 64
1, 112838, Note_off_c, 0, 68, 64
1, 113064, Note_on_c, 0, 71, 104
1, 113067, Note_on_c, 0, 59, 100
1, 113067, Note_on_c, 0, 68, 83
1, 113067, Note_on_c, 0, 28, 103
1, 113070, Note_on_c, 0, 40, 114
1, 113070, Note_on_c, 0, 64, 94
1, 113302, Note_off_c, 0, 59, 64
1, 113322, Note_off_c, 0, 71, 64
1, 113382, Note_on_c, 0, 71, 94
1, 113386, Note_on_c, 0, 59, 80
1, 113396, Control_c, 0, 64, 0
1, 113566, Control_c, 0, 64, 127
1, 113584, Note_off_c, 0, 59, 64
1, 113598, Note_off_c, 0, 71, 64
1, 113658, Note_on_c, 0, 71, 90
1, 113664, Note_on_c, 0, 59, 72
1, 113748, Note_off_c, 0, 28, 64
1, 113778, Note_off_c, 0, 40, 64
1, 113806, Note_off_c, 0, 59, 64
1, 113828, Note_off_c, 0, 71, 64
1, 113900, Note_off_c, 0, 64, 64
1, 113928, Note_off_c, 0, 68, 64
1, 113952, Note_on_c, 0, 71, 91
1, 113952, Note_on_c, 0, 59, 84
1, 114082, Note_off_c, 0, 59, 64
1, 114110, Note_off_c, 0, 71, 64
1, 114244, Note_on_c, 0, 47, 103
1, 114244, Note_on_c, 0, 63, 94
1, 114246, Note_on_c, 0, 71, 101
1, 114248, Note_on_c, 0, 59, 99
1, 114248, Note_on_c, 0, 35, 114
1, 114250, Note_on_c, 0, 68, 83
1, 114319, Control_c, 0, 64, 0
1, 114472, Note_off_c, 0, 59, 64
1, 114477, Note_off_c, 0, 71, 64
1, 114498, Control_c, 0, 64, 127
1, 114536, Note_on_c, 0, 71, 93
1, 114536, Note_on_c, 0, 59, 85
1, 114696, Note_off_c, 0, 59, 64
1, 114710, Note_off_c, 0, 71, 64
1, 114792, Note_on_c, 0, 71, 80
1, 114800, Note_on_c, 0, 59, 69
1, 114896, Note_off_c, 0, 47, 64
1, 114924, Note_off_c, 0, 59, 64
1, 114942, Note_off_c, 0, 71, 64
1, 114966, Note_off_c, 0, 35, 64
1, 114994, Note_off_c, 0, 68, 64
1, 115052, Note_off_c, 0, 63, 64
1, 115066, Note_on_c, 0, 71, 91
1, 115069, Note_on_c, 0, 59, 79
1, 115174, Note_off_c, 0, 59, 64
1, 115192, Note_off_c, 0, 71, 64
1, 115348, Note_on_c, 0, 64, 99
1, 115348, Note_on_c, 0, 71, 106
1, 115348, Note_on_c, 0, 59, 102
1, 115348, Note_on_c, 0, 68, 83
1, 115351, Note_on_c, 0, 28, 106
1, 115354, Note_on_c, 0, 40, 118
1, 115364, Control_c, 0, 64, 0
1, 115556, Note_off_c, 0, 71, 64
1, 115556, Note_off_c, 0, 59, 64
1, 115580, Control_c, 0, 64, 127
1, 115616, Note_on_c, 0, 71, 91
1, 115619, Note_on_c, 0, 59, 87
1, 115774, Note_off_c, 0, 59, 64
1, 115802, Note_off_c, 0, 71, 64
1, 115862, Note_off_c, 0, 28, 64
1, 115892, Note_on_c, 0, 71, 75
1, 115900, Note_on_c, 0, 59, 76
1, 115990, Note_off_c, 0, 40, 64
1, 116012, Note_off_c, 0, 59, 64
1, 116054, Note_off_c, 0, 71, 64
1, 116060, Note_off_c, 0, 64, 64
1, 116092, Note_off_c, 0, 68, 64
1, 116190, Note_on_c, 0, 71, 87
1, 116196, Note_on_c, 0, 59, 67
1, 116340, Note_off_c, 0, 71, 64
1, 116343, Note_off_c, 0, 59, 64
1, 116514, Note_on_c, 0, 71, 105
1, 116516, Note_on_c, 0, 68, 84
1, 116516, Note_on_c, 0, 59, 101
1, 116518, Note_on_c, 0, 63, 92
1, 116526, Note_on_c, 0, 47, 105
1, 116526, Note_on_c, 0, 35, 110
1, 116624, Control_c, 0, 64, 0
1, 116758, Note_off_c, 0, 59, 64
1, 116768, Note_off_c, 0, 71, 64
1, 116808, Control_c, 0, 64, 127
1, 116830, Note_on_c, 0, 71, 92
1, 116830, Note_on_c, 0, 59, 80
1, 116920, Note_off_c, 0, 47, 64
1, 116954, Note_off_c, 0, 35, 64
1, 116990, Note_off_c, 0, 59, 64
1, 117004, Note_off_c, 0, 71, 64
1, 117094, Note_on_c, 0, 71, 77
1, 117094, Note_on_c, 0, 59, 73
1, 117236, Note_off_c, 0, 59, 64
1, 117258, Note_off_c, 0, 71, 64
1, 117356, Note_on_c, 0, 71, 82
1, 117358, Note_on_c, 0, 46, 99
1, 117362, Note_on_c, 0, 34, 96
1, 117364, Note_on_c, 0, 59, 78
1, 117458, Note_off_c, 0, 68, 64
1, 117496, Note_off_c, 0, 63, 64
1, 117528, Note_off_c, 0, 59, 64
1, 117542, Note_off_c, 0, 71, 64
1, 117546, Note_off_c, 0, 46, 64
1, 117582, Note_off_c, 0, 34, 64
1, 117624, Note_on_c, 0, 71, 95
1, 117628, Note_on_c, 0, 63, 100
1, 117630, Note_on_c, 0, 59, 98
1, 117630, Note_on_c, 0, 68, 89
1, 117630, Note_on_c, 0, 44, 105
1, 117636, Note_on_c, 0, 32, 97
1, 117638, Control_c, 0, 64, 0
1, 117844, Note_off_c, 0, 71, 64
1, 117844, Note_off_c, 0, 59, 64
1, 117868, Control_c, 0, 64, 127
1, 117910, Note_on_c, 0, 71, 88
1, 117916, Note_on_c, 0, 59, 78
1, 118064, Note_off_c, 0, 59, 64
1, 118067, Note_off_c, 0, 44, 64
1, 118094, Note_off_c, 0, 71, 64
1, 118110, Note_off_c, 0, 32, 64
1, 118192, Note_on_c, 0, 71, 76
1, 118194, Note_on_c, 0, 59, 86
1, 118344, Note_off_c, 0, 59, 64
1, 118364, Note_off_c, 0, 71, 64
1, 118378, Note_off_c, 0, 63, 64
1, 118384, Note_off_c, 0, 68, 64
1, 118488, Note_on_c, 0, 59, 89
1, 118490, Note_on_c, 0, 71, 95
1, 118620, Note_off_c, 0, 59, 64
1, 118648, Note_off_c, 0, 71, 64
1, 118786, Note_on_c, 0, 67, 90
1, 118786, Note_on_c, 0, 71, 103
1, 118786, Note_on_c, 0, 63, 90
1, 118786, Note_on_c, 0, 51, 106
1, 118789, Note_on_c, 0, 59, 101
1, 118792, Note_on_c, 0, 39, 101
1, 118792, Control_c, 0, 64, 0
1, 118972, Note_off_c, 0, 59, 64
1, 118990, Note_off_c, 0, 71, 64
1, 119032, Control_c, 0, 64, 127
1, 119056, Note_on_c, 0, 71, 83
1, 119066, Note_on_c, 0, 59, 63
1, 119210, Note_off_c, 0, 59, 64
1, 119246, Note_off_c, 0, 71, 64
1, 119274, Note_off_c, 0, 51, 64
1, 119348, Note_on_c, 0, 71, 78
1, 119356, Note_on_c, 0, 59, 85
1, 119474, Note_off_c, 0, 59, 64
1, 119490, Note_off_c, 0, 63, 64
1, 119522, Note_off_c, 0, 71, 64
1, 119564, Note_off_c, 0, 67, 64
1, 119654, Note_on_c, 0, 71, 97
1, 119654, Note_on_c, 0, 59, 83
1, 119688, Note_on_c, 0, 67, 14
1, 119716, Note_off_c, 0, 39, 64
1, 119746, Note_off_c, 0, 67, 64
1, 119760, Note_off_c, 0, 59, 64
1, 119768, Note_off_c, 0, 71, 64
1, 119974, Control_c, 0, 64, 0
1, 119986, Note_on_c, 0, 44, 93
1, 119990, Note_on_c, 0, 32, 83
1, 119990, Note_on_c, 0, 71, 100
1, 119994, Note_on_c, 0, 59, 93
1, 119994, Note_on_c, 0, 68, 80
1, 119994, Note_on_c, 0, 63, 83
1, 120174, Control_c, 0, 64, 127
1, 120180, Note_off_c, 0, 71, 64
1, 120210, Note_off_c, 0, 68, 64
1, 120224, Note_off_c, 0, 63, 64
1, 120356, Note_on_c, 0, 56, 80
1, 120480, Note_off_c, 0, 59, 64
1, 120572, Note_off_c, 0, 56, 64
1, 120662, Note_on_c, 0, 56, 55
1, 120866, Note_off_c, 0, 56, 64
1, 120964, Note_on_c, 0, 56, 60
1, 121134, Note_off_c, 0, 56, 64
1, 121256, Note_on_c, 0, 56, 43
1, 121404, Note_off_c, 0, 56, 64
1, 121414, Note_off_c, 0, 44, 64
1, 121568, Note_on_c, 0, 56, 40
1, 121700, Note_off_c, 0, 56, 64
1, 121886, Note_on_c, 0, 56, 36
1, 122032, Note_off_c, 0, 56, 64
1, 122144, Note_off_c, 0, 32, 64
1, 122196, Note_on_c, 0, 56, 38
1, 122348, Note_off_c, 0, 56, 64
1, 122548, Note_on_c, 0, 37, 63
1, 122550, Note_on_c, 0, 56, 35
1, 122554, Note_on_c, 0, 44, 47
1, 122570, Control_c, 0, 64, 0
1, 122750, Note_off_c, 0, 56, 64
1, 122816, Control_c, 0, 64, 127
1, 122884, Note_on_c, 0, 56, 40
1, 123018, Note_off_c, 0, 44, 64
1, 123060, Note_off_c, 0, 56, 64
1, 123184, Note_on_c, 0, 44, 66
1, 123196, Note_on_c, 0, 56, 38
1, 123202, Note_on_c, 0, 39, 50
1, 123276, Note_off_c, 0, 37, 64
1, 123352, Note_off_c, 0, 56, 64
1, 123492, Note_on_c, 0, 56, 45
1, 123492, Control_c, 0, 64, 0
1, 123646, Control_c, 0, 64, 127
1, 123658, Note_off_c, 0, 56, 64
1, 123808, Note_on_c, 0, 49, 54
1, 123810, Note_on_c, 0, 56, 36
1, 123830, Control_c, 0, 64, 0
1, 123852, Note_on_c, 0, 40, 59
1, 123902, Note_off_c, 0, 44, 64
1, 123970, Note_off_c, 0, 39, 64
1, 124036, Note_off_c, 0, 56, 64
1, 124044, Control_c, 0, 64, 127
1, 124108, Note_on_c, 0, 56, 45
1, 124274, Note_off_c, 0, 56, 64
1, 124384, Note_off_c, 0, 49, 64
1, 124398, Note_off_c, 0, 40, 64
1, 124434, Note_on_c, 0, 56, 27
1, 124440, Note_on_c, 0, 48, 43
1, 124460, Note_on_c, 0, 39, 32
1, 124460, Control_c, 0, 64, 0
1, 124630, Note_off_c, 0, 56, 64
1, 124660, Control_c, 0, 64, 127
1, 124726, Note_on_c, 0, 56, 34
1, 124786, Note_off_c, 0, 39, 64
1, 124886, Note_off_c, 0, 56, 64
1, 125012, Note_on_c, 0, 44, 51
1, 125014, Note_on_c, 0, 56, 29
1, 125028, Note_on_c, 0, 39, 42
1, 125154, Note_off_c, 0, 56, 64
1, 125178, Note_off_c, 0, 48, 64
1, 125212, Control_c, 0, 64, 0
1, 125326, Note_on_c, 0, 56, 52
1, 125368, Control_c, 0, 64, 127
1, 125452, Note_off_c, 0, 44, 64
1, 125474, Note_off_c, 0, 56, 64
1, 125606, Note_on_c, 0, 44, 66
1, 125614, Note_on_c, 0, 56, 43
1, 125622, Note_on_c, 0, 40, 68
1, 125670, Note_off_c, 0, 39, 64
1, 125784, Note_off_c, 0, 56, 64
1, 125892, Note_on_c, 0, 56, 47
1, 125904, Control_c, 0, 64, 0
1, 126054, Note_off_c, 0, 56, 64
1, 126056, Control_c, 0, 64, 127
1, 126180, Note_on_c, 0, 56, 49
1, 126198, Note_on_c, 0, 51, 61
1, 126204, Note_on_c, 0, 42, 52
1, 126220, Note_off_c, 0, 40, 64
1, 126252, Control_c, 0, 64, 0
1, 126254, Note_off_c, 0, 44, 64
1, 126424, Note_off_c, 0, 56, 64
1, 126442, Control_c, 0, 64, 127
1, 126490, Note_on_c, 0, 56, 58
1, 126650, Note_off_c, 0, 56, 64
1, 126734, Note_off_c, 0, 51, 64
1, 126788, Note_on_c, 0, 56, 45
1, 126790, Note_on_c, 0, 49, 57
1, 126806, Note_on_c, 0, 40, 57
1, 126814, Note_off_c, 0, 42, 64
1, 126842, Control_c, 0, 64, 0
1, 126990, Note_off_c, 0, 56, 64
1, 127026, Control_c, 0, 64, 127
1, 127064, Note_on_c, 0, 56, 50
1, 127184, Note_off_c, 0, 49, 64
1, 127226, Note_off_c, 0, 56, 64
1, 127232, Note_off_c, 0, 40, 64
1, 127342, Note_on_c, 0, 56, 45
1, 127364, Note_on_c, 0, 49, 84
1, 127382, Note_on_c, 0, 40, 81
1, 127456, Control_c, 0, 64, 0
1, 127558, Note_off_c, 0, 56, 64
1, 127610, Control_c, 0, 64, 127
1, 127664, Note_on_c, 0, 56, 44
1, 127794, Note_off_c, 0, 56, 64
1, 127800, Note_off_c, 0, 49, 64
1, 127942, Note_on_c, 0, 56, 63
1, 127966, Note_on_c, 0, 51, 76
1, 127978, Note_on_c, 0, 44, 58
1, 127994, Control_c, 0, 64, 0
1, 128076, Note_off_c, 0, 40, 64
1, 128146, Note_off_c, 0, 56, 64
1, 128224, Control_c, 0, 64, 127
1, 128240, Note_on_c, 0, 56, 47
1, 128388, Note_off_c, 0, 56, 64
1, 128486, Note_off_c, 0, 51, 64
1, 128524, Note_on_c, 0, 56, 50
1, 128550, Note_on_c, 0, 52, 73
1, 128558, Note_on_c, 0, 49, 39
1, 128664, Note_off_c, 0, 56, 64
1, 128688, Note_off_c, 0, 44, 64
1, 128824, Control_c, 0, 64, 0
1, 128836, Note_on_c, 0, 56, 57
1, 129008, Note_off_c, 0, 56, 64
1, 129008, Control_c, 0, 64, 127
1, 129122, Note_on_c, 0, 56, 36
1, 129140, Note_on_c, 0, 51, 68
1, 129168, Note_on_c, 0, 44, 44
1, 129190, Note_off_c, 0, 52, 64
1, 129200, Note_off_c, 0, 49, 64
1, 129350, Note_off_c, 0, 56, 64
1, 129470, Control_c, 0, 64, 0
1, 129473, Note_on_c, 0, 56, 46
1, 129632, Control_c, 0, 64, 127
1, 129644, Note_off_c, 0, 56, 64
1, 129652, Note_off_c, 0, 51, 64
1, 129676, Note_off_c, 0, 44, 64
1, 129776, Note_on_c, 0, 56, 44
1, 129808, Note_on_c, 0, 51, 68
1, 129820, Note_on_c, 0, 44, 65
1, 129944, Note_off_c, 0, 56, 64
1, 130120, Note_on_c, 0, 56, 46
1, 130254, Note_off_c, 0, 56, 64
1, 130418, Note_on_c, 0, 56, 44
1, 130548, Note_off_c, 0, 56, 64
1, 130704, Note_on_c, 0, 56, 42
1, 130828, Note_off_c, 0, 56, 64
1, 130992, Note_on_c, 0, 56, 36
1, 131124, Note_off_c, 0, 56, 64
1, 131294, Note_on_c, 0, 56, 28
1, 131402, Note_off_c, 0, 56, 64
1, 131566, Note_on_c, 0, 56, 32
1, 131690, Note_off_c, 0, 56, 64
1, 131856, Note_on_c, 0, 56, 28
1, 131958, Note_off_c, 0, 56, 64
1, 132138, Note_on_c, 0, 56, 24
1, 132264, Note_off_c, 0, 56, 64
1, 132438, Note_on_c, 0, 56, 27
1, 132560, Note_off_c, 0, 56, 64
1, 132612, Note_off_c, 0, 51, 64
1, 132648, Note_off_c, 0, 44, 64
1, 132740, Note_on_c, 0, 52, 64
1, 132742, Control_c, 0, 64, 0
1, 132744, Note_on_c, 0, 56, 26
1, 132774, Note_on_c, 0, 49, 25
1, 132914, Note_off_c, 0, 56, 64
1, 132972, Control_c, 0, 64, 127
1, 133060, Note_on_c, 0, 56, 33
1, 133146, Note_off_c, 0, 52, 64
1, 133174, Note_off_c, 0, 56, 64
1, 133358, Note_on_c, 0, 51, 56
1, 133360, Note_off_c, 0, 49, 64
1, 133370, Note_on_c, 0, 56, 26
1, 133390, Note_on_c, 0, 44, 41
1, 133498, Note_off_c, 0, 56, 64
1, 133510, Control_c, 0, 64, 0
1, 133656, Note_on_c, 0, 56, 40
1, 133680, Control_c, 0, 64, 127
1, 133768, Note_off_c, 0, 51, 64
1, 133784, Note_off_c, 0, 56, 64
1, 133896, Note_off_c, 0, 44, 64
1, 133946, Note_on_c, 0, 56, 37
1, 133954, Note_on_c, 0, 49, 55
1, 133980, Note_on_c, 0, 40, 52
1, 134068, Note_off_c, 0, 56, 64
1, 134240, Note_on_c, 0, 56, 44
1, 134370, Note_off_c, 0, 56, 64
1, 134386, Note_off_c, 0, 49, 64
1, 134526, Note_off_c, 0, 40, 64
1, 134532, Note_on_c, 0, 56, 41
1, 134546, Note_on_c, 0, 51, 52
1, 134560, Note_on_c, 0, 44, 45
1, 134570, Control_c, 0, 64, 0
1, 134722, Note_off_c, 0, 56, 64
1, 134770, Control_c, 0, 64, 127
1, 134868, Note_on_c, 0, 56, 38
1, 134972, Note_off_c, 0, 56, 64
1, 134992, Note_off_c, 0, 51, 64
1, 135164, Note_off_c, 0, 44, 64
1, 135164, Note_on_c, 0, 56, 32
1, 135184, Note_on_c, 0, 49, 51
1, 135208, Note_on_c, 0, 40, 49
1, 135216, Control_c, 0, 64, 0
1, 135352, Note_off_c, 0, 56, 64
1, 135400, Control_c, 0, 64, 127
1, 135468, Note_on_c, 0, 56, 35
1, 135531, Note_off_c, 0, 49, 64
1, 135596, Note_off_c, 0, 56, 64
1, 135624, Note_off_c, 0, 40, 64
1, 135770, Note_on_c, 0, 48, 59
1, 135770, Note_on_c, 0, 56, 32
1, 135782, Note_on_c, 0, 39, 38
1, 135784, Control_c, 0, 64, 0
1, 135936, Note_off_c, 0, 56, 64
1, 135954, Control_c, 0, 64, 127
1, 136056, Note_on_c, 0, 56, 30
1, 136098, Note_off_c, 0, 48, 64
1, 136182, Note_off_c, 0, 56, 64
1, 136288, Note_off_c, 0, 39, 64
1, 136334, Note_on_c, 0, 49, 61
1, 136345, Note_on_c, 0, 56, 40
1, 136354, Control_c, 0, 64, 0
1, 136357, Note_on_c, 0, 40, 58
1, 136504, Note_off_c, 0, 56, 64
1, 136552, Control_c, 0, 64, 127
1, 136622, Note_on_c, 0, 56, 39
1, 136750, Note_off_c, 0, 56, 64
1, 136796, Note_off_c, 0, 49, 64
1, 136804, Note_off_c, 0, 40, 64
1, 136910, Note_on_c, 0, 56, 41
1, 136916, Note_on_c, 0, 48, 60
1, 136922, Control_c, 0, 64, 0
1, 136922, Note_on_c, 0, 39, 50
1, 137106, Note_off_c, 0, 56, 64
1, 137136, Control_c, 0, 64, 127
1, 137222, Note_on_c, 0, 56, 38
1, 137302, Note_off_c, 0, 48, 64
1, 137356, Note_off_c, 0, 56, 64
1, 137502, Note_on_c, 0, 49, 59
1, 137504, Note_off_c, 0, 39, 64
1, 137508, Note_on_c, 0, 56, 31
1, 137520, Control_c, 0, 64, 0
1, 137522, Note_on_c, 0, 40, 55
1, 137668, Note_off_c, 0, 56, 64
1, 137736, Control_c, 0, 64, 127
1, 137790, Note_on_c, 0, 56, 41
1, 137920, Note_off_c, 0, 56, 64
1, 137966, Note_off_c, 0, 49, 64
1, 138078, Note_on_c, 0, 56, 41
1, 138088, Note_on_c, 0, 51, 60
1, 138100, Note_on_c, 0, 39, 47
1, 138120, Control_c, 0, 64, 0
1, 138128, Note_off_c, 0, 40, 64
1, 138222, Note_off_c, 0, 56, 64
1, 138334, Control_c, 0, 64, 127
1, 138378, Note_on_c, 0, 56, 48
1, 138496, Note_off_c, 0, 56, 64
1, 138538, Note_off_c, 0, 51, 64
1, 138648, Note_off_c, 0, 39, 64
1, 138656, Note_on_c, 0, 52, 69
1, 138656, Note_on_c, 0, 56, 49
1, 138664, Note_on_c, 0, 37, 48
1, 138688, Control_c, 0, 64, 0
1, 138834, Note_off_c, 0, 56, 64
1, 138918, Control_c, 0, 64, 127
1, 138944, Note_on_c, 0, 56, 39
1, 139058, Note_off_c, 0, 52, 64
1, 139114, Note_off_c, 0, 56, 64
1, 139256, Note_on_c, 0, 56, 41
1, 139266, Note_on_c, 0, 51, 60
1, 139269, Note_on_c, 0, 44, 54
1, 139334, Note_off_c, 0, 37, 64
1, 139478, Note_off_c, 0, 56, 64
1, 139576, Note_on_c, 0, 56, 36
1, 139598, Note_on_c, 0, 68, 41
1, 139626, Control_c, 0, 64, 0
1, 139760, Note_off_c, 0, 68, 64
1, 139778, Note_off_c, 0, 56, 64
1, 139810, Control_c, 0, 64, 127
1, 139858, Note_on_c, 0, 68, 28
1, 139866, Note_on_c, 0, 56, 40
1, 140012, Note_off_c, 0, 56, 64
1, 140016, Note_off_c, 0, 68, 64
1, 140136, Note_on_c, 0, 68, 33
1, 140150, Note_on_c, 0, 56, 36
1, 140240, Note_off_c, 0, 56, 64
1, 140286, Note_off_c, 0, 68, 64
1, 140400, Note_on_c, 0, 68, 30
1, 140422, Note_on_c, 0, 56, 40
1, 140520, Note_off_c, 0, 56, 64
1, 140548, Note_off_c, 0, 68, 64
1, 140678, Note_on_c, 0, 68, 43
1, 140680, Note_on_c, 0, 56, 44
1, 140780, Note_off_c, 0, 56, 64
1, 140820, Note_off_c, 0, 68, 64
1, 140952, Note_off_c, 0, 51, 64
1, 140952, Note_on_c, 0, 68, 51
1, 140960, Note_on_c, 0, 56, 47
1, 141040, Note_off_c, 0, 56, 64
1, 141078, Note_off_c, 0, 44, 64
1, 141082, Note_off_c, 0, 68, 64
1, 141236, Note_on_c, 0, 68, 59
1, 141250, Note_on_c, 0, 56, 44
1, 141336, Note_off_c, 0, 56, 64
1, 141378, Note_off_c, 0, 68, 64
1, 141548, Note_on_c, 0, 44, 70
1, 141554, Note_on_c, 0, 37, 71
1, 141554, Note_on_c, 0, 68, 44
1, 141560, Note_on_c, 0, 56, 42
1, 141654, Note_off_c, 0, 56, 64
1, 141714, Note_off_c, 0, 68, 64
1, 141868, Note_on_c, 0, 56, 48
1, 141868, Note_on_c, 0, 68, 59
1, 141878, Note_off_c, 0, 44, 64
1, 141998, Note_off_c, 0, 56, 64
1, 142022, Note_off_c, 0, 68, 64
1, 142042, Note_off_c, 0, 37, 64
1, 142154, Note_on_c, 0, 39, 62
1, 142154, Note_on_c, 0, 56, 50
1, 142157, Note_on_c, 0, 44, 70
1, 142162, Note_on_c, 0, 68, 54
1, 142312, Note_off_c, 0, 56, 64
1, 142330, Note_off_c, 0, 68, 64
1, 142442, Note_on_c, 0, 68, 47
1, 142456, Note_on_c, 0, 56, 57
1, 142580, Note_off_c, 0, 68, 64
1, 142582, Note_off_c, 0, 56, 64
1, 142714, Control_c, 0, 64, 0
1, 142718, Note_on_c, 0, 56, 67
1, 142722, Note_on_c, 0, 68, 67
1, 142724, Note_on_c, 0, 61, 65
1, 142730, Note_on_c, 0, 49, 55
1, 142736, Note_on_c, 0, 40, 82
1, 142756, Note_off_c, 0, 39, 64
1, 142880, Note_off_c, 0, 56, 64
1, 142902, Note_off_c, 0, 68, 64
1, 142944, Control_c, 0, 64, 127
1, 143014, Note_on_c, 0, 68, 54
1, 143020, Note_on_c, 0, 56, 57
1, 143132, Note_off_c, 0, 61, 64
1, 143152, Note_off_c, 0, 56, 64
1, 143166, Note_off_c, 0, 68, 64
1, 143212, Note_off_c, 0, 49, 64
1, 143236, Note_off_c, 0, 40, 64
1, 143292, Note_off_c, 0, 44, 64
1, 143298, Note_on_c, 0, 56, 58
1, 143298, Note_on_c, 0, 68, 64
1, 143308, Note_on_c, 0, 39, 57
1, 143311, Note_on_c, 0, 48, 62
1, 143311, Note_on_c, 0, 60, 62
1, 143458, Note_off_c, 0, 56, 64
1, 143484, Note_off_c, 0, 68, 64
1, 143544, Control_c, 0, 64, 0
1, 143584, Note_on_c, 0, 68, 47
1, 143600, Note_on_c, 0, 56, 57
1, 143698, Control_c, 0, 64, 127
1, 143734, Note_off_c, 0, 39, 64
1, 143737, Note_off_c, 0, 56, 64
1, 143762, Note_off_c, 0, 68, 64
1, 143830, Note_off_c, 0, 48, 64
1, 143830, Note_off_c, 0, 60, 64
1, 143866, Note_on_c, 0, 68, 47
1, 143880, Note_on_c, 0, 56, 56
1, 143886, Note_on_c, 0, 44, 76
1, 143892, Note_on_c, 0, 39, 66
1, 144022, Note_off_c, 0, 56, 64
1, 144052, Note_off_c, 0, 68, 64
1, 144170, Note_on_c, 0, 68, 52
1, 144170, Note_on_c, 0, 56, 62
1, 144214, Note_off_c, 0, 44, 64
1, 144312, Note_off_c, 0, 56, 64
1, 144330, Note_off_c, 0, 68, 64
1, 144460, Note_on_c, 0, 44, 82
1, 144460, Note_on_c, 0, 56, 67
1, 144460, Note_on_c, 0, 68, 69
1, 144463, Note_on_c, 0, 40, 91
1, 144484, Note_off_c, 0, 39, 64
1, 144496, Control_c, 0, 64, 0
1, 144624, Note_off_c, 0, 56, 64
1, 144632, Note_off_c, 0, 68, 64
1, 144650, Control_c, 0, 64, 127
1, 144740, Note_on_c, 0, 68, 55
1, 144742, Note_on_c, 0, 56, 62
1, 144828, Note_off_c, 0, 44, 64
1, 144836, Note_off_c, 0, 40, 64
1, 144858, Note_off_c, 0, 56, 64
1, 144886, Note_off_c, 0, 68, 64
1, 145022, Note_on_c, 0, 63, 77
1, 145024, Note_on_c, 0, 68, 77
1, 145024, Note_on_c, 0, 51, 80
1, 145024, Note_on_c, 0, 56, 69
1, 145030, Note_on_c, 0, 42, 75
1, 145064, Control_c, 0, 64, 0
1, 145186, Note_off_c, 0, 56, 64
1, 145204, Note_off_c, 0, 68, 64
1, 145248, Control_c, 0, 64, 127
1, 145292, Note_on_c, 0, 68, 56
1, 145306, Note_on_c, 0, 56, 58
1, 145434, Note_off_c, 0, 56, 64
1, 145436, Note_off_c, 0, 51, 64
1, 145462, Note_off_c, 0, 68, 64
1, 145578, Note_on_c, 0, 68, 57
1, 145580, Note_on_c, 0, 56, 64
1, 145580, Note_on_c, 0, 61, 75
1, 145588, Note_on_c, 0, 49, 75
1, 145598, Note_off_c, 0, 42, 64
1, 145598, Note_on_c, 0, 40, 84
1, 145632, Note_off_c, 0, 63, 64
1, 145634, Control_c, 0, 64, 0
1, 145740, Note_off_c, 0, 56, 64
1, 145764, Note_off_c, 0, 68, 64
1, 145818, Control_c, 0, 64, 127
1, 145868, Note_on_c, 0, 68, 52
1, 145878, Note_on_c, 0, 56, 67
1, 145930, Note_off_c, 0, 49, 64
1, 145938, Note_off_c, 0, 40, 64
1, 146000, Note_off_c, 0, 56, 64
1, 146044, Note_off_c, 0, 68, 64
1, 146142, Note_on_c, 0, 68, 52
1, 146148, Note_on_c, 0, 56, 64
1, 146162, Note_on_c, 0, 49, 88
1, 146176, Note_on_c, 0, 40, 94
1, 146294, Note_off_c, 0, 56, 64
1, 146328, Note_off_c, 0, 68, 64
1, 146430, Note_on_c, 0, 68, 56
1, 146433, Note_on_c, 0, 56, 66
1, 146534, Note_off_c, 0, 49, 64
1, 146538, Note_off_c, 0, 61, 64
1, 146544, Note_off_c, 0, 40, 64
1, 146550, Note_off_c, 0, 56, 64
1, 146592, Note_off_c, 0, 68, 64
1, 146714, Note_on_c, 0, 68, 73
1, 146716, Note_on_c, 0, 51, 83
1, 146716, Note_on_c, 0, 56, 75
1, 146718, Note_on_c, 0, 63, 78
1, 146724, Note_on_c, 0, 44, 74
1, 146760, Control_c, 0, 64, 0
1, 146876, Note_off_c, 0, 56, 64
1, 146892, Note_off_c, 0, 68, 64
1, 146924, Control_c, 0, 64, 127
1, 146998, Note_on_c, 0, 68, 64
1, 147010, Note_on_c, 0, 56, 68
1, 147124, Note_off_c, 0, 63, 64
1, 147170, Note_off_c, 0, 56, 64
1, 147178, Note_off_c, 0, 51, 64
1, 147198, Note_off_c, 0, 68, 64
1, 147214, Note_off_c, 0, 44, 64
1, 147276, Note_on_c, 0, 68, 60
1, 147282, Note_on_c, 0, 64, 92
1, 147284, Note_on_c, 0, 56, 75
1, 147287, Note_on_c, 0, 52, 92
1, 147296, Note_on_c, 0, 49, 72
1, 147338, Control_c, 0, 64, 0
1, 147428, Note_off_c, 0, 56, 64
1, 147456, Note_off_c, 0, 68, 64
1, 147508, Control_c, 0, 64, 127
1, 147570, Note_on_c, 0, 68, 67
1, 147570, Note_on_c, 0, 56, 70
1, 147622, Note_off_c, 0, 52, 64
1, 147672, Note_off_c, 0, 49, 64
1, 147686, Note_off_c, 0, 56, 64
1, 147716, Note_off_c, 0, 68, 64
1, 147758, Note_off_c, 0, 64, 64
1, 147854, Note_on_c, 0, 68, 83
1, 147856, Note_on_c, 0, 56, 81
1, 147856, Note_on_c, 0, 51, 91
1, 147856, Note_on_c, 0, 63, 86
1, 147860, Note_on_c, 0, 44, 88
1, 147862, Control_c, 0, 64, 0
1, 148012, Note_off_c, 0, 56, 64
1, 148030, Control_c, 0, 64, 127
1, 148032, Note_off_c, 0, 68, 64
1, 148042, Note_off_c, 0, 51, 64
1, 148086, Note_off_c, 0, 44, 64
1, 148150, Note_on_c, 0, 68, 65
1, 148156, Note_on_c, 0, 56, 71
1, 148204, Note_on_c, 0, 32, 90
1, 148262, Note_off_c, 0, 32, 64
1, 148272, Note_off_c, 0, 63, 64
1, 148306, Note_off_c, 0, 56, 64
1, 148330, Note_off_c, 0, 68, 64
1, 148454, Note_on_c, 0, 68, 81
1, 148454, Note_on_c, 0, 56, 83
1, 148454, Note_on_c, 0, 63, 86
1, 148472, Note_on_c, 0, 51, 95
1, 148482, Note_on_c, 0, 44, 84
1, 148630, Note_off_c, 0, 56, 64
1, 148668, Note_off_c, 0, 68, 64
1, 148746, Note_on_c, 0, 68, 58
1, 148760, Note_on_c, 0, 56, 68
1, 148926, Note_off_c, 0, 56, 64
1, 148934, Note_off_c, 0, 68, 64
1, 149002, Note_on_c, 0, 68, 63
1, 149012, Note_on_c, 0, 56, 55
1, 149142, Note_off_c, 0, 56, 64
1, 149180, Note_off_c, 0, 68, 64
1, 149262, Note_on_c, 0, 68, 57
1, 149278, Note_on_c, 0, 56, 75
1, 149394, Note_off_c, 0, 56, 64
1, 149436, Note_off_c, 0, 68, 64
1, 149470, Note_off_c, 0, 63, 64
1, 149552, Note_on_c, 0, 68, 81
1, 149554, Note_on_c, 0, 56, 81
1, 149688, Note_off_c, 0, 56, 64
1, 149718, Note_off_c, 0, 68, 64
1, 149826, Note_on_c, 0, 68, 75
1, 149828, Note_on_c, 0, 56, 79
1, 149884, Note_off_c, 0, 51, 64
1, 149964, Note_off_c, 0, 56, 64
1, 149994, Note_off_c, 0, 68, 64
1, 149997, Note_off_c, 0, 44, 64
1, 150102, Note_on_c, 0, 56, 84
1, 150102, Note_on_c, 0, 68, 71
1, 150204, Note_off_c, 0, 56, 64
1, 150236, Note_off_c, 0, 68, 64
1, 150386, Note_on_c, 0, 68, 80
1, 150386, Note_on_c, 0, 56, 78
1, 150454, Note_off_c, 0, 56, 64
1, 150490, Note_off_c, 0, 68, 64
1, 150720, Control_c, 0, 64, 0
1, 150726, Note_on_c, 0, 59, 101
1, 150728, Note_on_c, 0, 68, 86
1, 150728, Note_on_c, 0, 71, 105
1, 150730, Note_on_c, 0, 64, 98
1, 150736, Note_on_c, 0, 28, 103
1, 150738, Note_on_c, 0, 40, 113
1, 150948, Note_off_c, 0, 59, 64
1, 150950, Control_c, 0, 64, 127
1, 150960, Note_off_c, 0, 71, 64
1, 151040, Note_on_c, 0, 71, 77
1, 151044, Note_on_c, 0, 59, 69
1, 151086, Note_off_c, 0, 28, 64
1, 151150, Note_off_c, 0, 40, 64
1, 151176, Note_off_c, 0, 59, 64
1, 151216, Note_off_c, 0, 71, 64
1, 151324, Note_on_c, 0, 71, 78
1, 151326, Note_on_c, 0, 59, 78
1, 151412, Note_off_c, 0, 64, 64
1, 151426, Note_off_c, 0, 68, 64
1, 151436, Note_off_c, 0, 59, 64
1, 151472, Note_off_c, 0, 71, 64
1, 151610, Note_on_c, 0, 71, 98
1, 151620, Note_on_c, 0, 59, 75
1, 151716, Note_off_c, 0, 59, 64
1, 151740, Note_off_c, 0, 71, 64
1, 151888, Control_c, 0, 64, 0
1, 151918, Note_on_c, 0, 63, 95
1, 151920, Note_on_c, 0, 71, 103
1, 151920, Note_on_c, 0, 68, 83
1, 151922, Note_on_c, 0, 47, 105
1, 151924, Note_on_c, 0, 35, 113
1, 151926, Note_on_c, 0, 59, 98
1, 152132, Note_off_c, 0, 59, 64
1, 152134, Note_off_c, 0, 71, 64
1, 152148, Control_c, 0, 64, 127
1, 152220, Note_on_c, 0, 71, 78
1, 152224, Note_on_c, 0, 59, 72
1, 152376, Note_off_c, 0, 59, 64
1, 152412, Note_off_c, 0, 71, 64
1, 152498, Note_on_c, 0, 71, 75
1, 152506, Note_on_c, 0, 59, 81
1, 152516, Note_off_c, 0, 47, 64
1, 152618, Note_off_c, 0, 59, 64
1, 152646, Note_off_c, 0, 35, 64
1, 152650, Note_off_c, 0, 71, 64
1, 152656, Note_off_c, 0, 63, 64
1, 152682, Note_off_c, 0, 68, 64
1, 152790, Note_on_c, 0, 71, 97
1, 152798, Note_on_c, 0, 59, 76
1, 152886, Note_off_c, 0, 59, 64
1, 152930, Note_off_c, 0, 71, 64
1, 153084, Control_c, 0, 64, 0
1, 153096, Note_on_c, 0, 64, 96
1, 153096, Note_on_c, 0, 59, 101
1, 153096, Note_on_c, 0, 71, 102
1, 153096, Note_on_c, 0, 28, 104
1, 153099, Note_on_c, 0, 40, 117
1, 153099, Note_on_c, 0, 68, 79
1, 153312, Note_off_c, 0, 59, 64
1, 153314, Note_off_c, 0, 71, 64
1, 153330, Control_c, 0, 64, 127
1, 153394, Note_on_c, 0, 71, 76
1, 153394, Note_on_c, 0, 59, 72
1, 153538, Note_off_c, 0, 59, 64
1, 153574, Note_off_c, 0, 71, 64
1, 153658, Note_on_c, 0, 71, 78
1, 153670, Note_on_c, 0, 59, 84
1, 153740, Note_off_c, 0, 28, 64
1, 153782, Note_off_c, 0, 59, 64
1, 153810, Note_off_c, 0, 40, 64
1, 153824, Note_off_c, 0, 71, 64
1, 153850, Note_off_c, 0, 64, 64
1, 153852, Note_off_c, 0, 68, 64
1, 153930, Note_on_c, 0, 71, 83
1, 153933, Note_on_c, 0, 59, 82
1, 154044, Note_off_c, 0, 59, 64
1, 154066, Note_off_c, 0, 71, 64
1, 154212, Note_on_c, 0, 71, 101
1, 154216, Note_on_c, 0, 63, 92
1, 154216, Note_on_c, 0, 59, 106
1, 154216, Note_on_c, 0, 68, 84
1, 154230, Note_on_c, 0, 47, 104
1, 154234, Note_on_c, 0, 35, 110
1, 154252, Control_c, 0, 64, 0
1, 154424, Note_off_c, 0, 59, 64
1, 154438, Note_off_c, 0, 71, 64
1, 154468, Control_c, 0, 64, 127
1, 154502, Note_on_c, 0, 71, 89
1, 154508, Note_on_c, 0, 59, 75
1, 154674, Note_off_c, 0, 59, 64
1, 154704, Note_off_c, 0, 71, 64
1, 154744, Note_off_c, 0, 47, 64
1, 154794, Note_on_c, 0, 71, 75
1, 154804, Note_on_c, 0, 59, 73
1, 154846, Note_off_c, 0, 35, 64
1, 154960, Note_off_c, 0, 59, 64
1, 154972, Note_off_c, 0, 68, 64
1, 154984, Note_off_c, 0, 71, 64
1, 155122, Note_on_c, 0, 71, 100
1, 155124, Note_on_c, 0, 46, 97
1, 155124, Note_on_c, 0, 59, 85
1, 155126, Note_on_c, 0, 34, 94
1, 155226, Note_off_c, 0, 63, 64
1, 155284, Note_off_c, 0, 59, 64
1, 155294, Note_off_c, 0, 46, 64
1, 155302, Note_off_c, 0, 71, 64
1, 155322, Note_off_c, 0, 34, 64
1, 155406, Control_c, 0, 64, 0
1, 155406, Note_on_c, 0, 71, 97
1, 155409, Note_on_c, 0, 44, 104
1, 155409, Note_on_c, 0, 63, 94
1, 155412, Note_on_c, 0, 68, 84
1, 155414, Note_on_c, 0, 59, 102
1, 155416, Note_on_c, 0, 32, 98
1, 155614, Note_off_c, 0, 59, 64
1, 155620, Note_off_c, 0, 71, 64
1, 155636, Control_c, 0, 64, 127
1, 155684, Note_on_c, 0, 71, 86
1, 155690, Note_on_c, 0, 59, 76
1, 155848, Note_off_c, 0, 59, 64
1, 155866, Note_off_c, 0, 71, 64
1, 155930, Note_off_c, 0, 32, 64
1, 155972, Note_on_c, 0, 71, 76
1, 155977, Note_on_c, 0, 59, 73
1, 156096, Note_off_c, 0, 59, 64
1, 156118, Note_off_c, 0, 63, 64
1, 156128, Note_off_c, 0, 71, 64
1, 156148, Note_off_c, 0, 44, 64
1, 156180, Note_off_c, 0, 68, 64
1, 156264, Note_on_c, 0, 59, 75
1, 156266, Note_on_c, 0, 71, 96
1, 156356, Note_off_c, 0, 59, 64
1, 156382, Note_off_c, 0, 71, 64
1, 156542, Control_c, 0, 64, 0
1, 156572, Note_on_c, 0, 67, 92
1, 156576, Note_on_c, 0, 59, 99
1, 156576, Note_on_c, 0, 71, 105
1, 156576, Note_on_c, 0, 63, 90
1, 156582, Note_on_c, 0, 51, 104
1, 156586, Note_on_c, 0, 39, 98
1, 156766, Note_off_c, 0, 59, 64
1, 156769, Note_off_c, 0, 71, 64
1, 156788, Control_c, 0, 64, 127
1, 156866, Note_on_c, 0, 71, 76
1, 156872, Note_on_c, 0, 59, 74
1, 156960, Note_off_c, 0, 51, 64
1, 157002, Note_off_c, 0, 59, 64
1, 157038, Note_off_c, 0, 71, 64
1, 157152, Note_on_c, 0, 59, 76
1, 157152, Note_on_c, 0, 71, 77
1, 157202, Note_off_c, 0, 39, 64
1, 157268, Note_off_c, 0, 59, 64
1, 157276, Note_off_c, 0, 63, 64
1, 157304, Note_off_c, 0, 67, 64
1, 157314, Note_off_c, 0, 71, 64
1, 157456, Note_on_c, 0, 59, 72
1, 157459, Note_on_c, 0, 71, 91
1, 157560, Note_off_c, 0, 59, 64
1, 157580, Note_off_c, 0, 71, 64
1, 157802, Control_c, 0, 64, 0
1, 157814, Note_on_c, 0, 44, 93
1, 157816, Note_on_c, 0, 71, 103
1, 157819, Note_on_c, 0, 32, 87
1, 157819, Note_on_c, 0, 63, 86
1, 157819, Note_on_c, 0, 68, 79
1, 157822, Note_on_c, 0, 59, 98
1, 158078, Note_off_c, 0, 68, 64
1, 158172, Control_c, 0, 64, 127
1, 158198, Note_on_c, 0, 68, 75
1, 158376, Note_off_c, 0, 68, 64
1, 158504, Note_on_c, 0, 68, 71
1, 158530, Note_off_c, 0, 44, 64
1, 158562, Note_off_c, 0, 59, 64
1, 158594, Note_off_c, 0, 63, 64
1, 158656, Note_off_c, 0, 68, 64
1, 158674, Note_off_c, 0, 32, 64
1, 158784, Note_on_c, 0, 68, 59
1, 158888, Note_off_c, 0, 71, 64
1, 158916, Note_off_c, 0, 68, 64
1, 159064, Note_on_c, 0, 68, 65
1, 159202, Note_off_c, 0, 68, 64
1, 159344, Note_on_c, 0, 68, 61
1, 159484, Note_off_c, 0, 68, 64
1, 159634, Note_on_c, 0, 68, 44
1, 159748, Note_off_c, 0, 68, 64
1, 159960, Note_on_c, 0, 68, 37
1, 160102, Note_off_c, 0, 68, 64
1, 160350, Note_on_c, 0, 54, 62
1, 160354, Note_on_c, 0, 72, 72
1, 160364, Note_on_c, 0, 60, 57
1, 160367, Note_on_c, 0, 68, 42
1, 160367, Control_c, 0, 64, 0
1, 160376, Note_on_c, 0, 44, 40
1, 160380, Note_on_c, 0, 42, 28
1, 160630, Control_c, 0, 64, 127
1, 160646, Note_off_c, 0, 68, 64
1, 160752, Note_on_c, 0, 68, 30
1, 160914, Note_off_c, 0, 68, 64
1, 161096, Note_on_c, 0, 68, 40
1, 161244, Note_off_c, 0, 68, 64
1, 161386, Note_off_c, 0, 44, 64
1, 161394, Note_off_c, 0, 54, 64
1, 161408, Note_on_c, 0, 68, 46
1, 161432, Note_off_c, 0, 60, 64
1, 161452, Note_off_c, 0, 42, 64
1, 161548, Note_off_c, 0, 72, 64
1, 161568, Note_off_c, 0, 68, 64
1, 161756, Note_on_c, 0, 73, 70
1, 161764, Note_on_c, 0, 61, 65
1, 161768, Note_on_c, 0, 52, 54
1, 161782, Note_on_c, 0, 44, 40
1, 161786, Note_on_c, 0, 68, 40
1, 161794, Note_on_c, 0, 40, 42
1, 161890, Control_c, 0, 64, 0
1, 162004, Note_off_c, 0, 68, 64
1, 162088, Control_c, 0, 64, 127
1, 162106, Note_on_c, 0, 68, 31
1, 162216, Note_off_c, 0, 52, 64
1, 162218, Note_off_c, 0, 40, 64
1, 162266, Note_off_c, 0, 68, 64
1, 162340, Note_off_c, 0, 44, 64
1, 162398, Note_on_c, 0, 68, 42
1, 162418, Note_on_c, 0, 49, 55
1, 162418, Note_on_c, 0, 37, 61
1, 162518, Note_off_c, 0, 61, 64
1, 162558, Note_off_c, 0, 68, 64
1, 162684, Note_off_c, 0, 49, 64
1, 162730, Note_on_c, 0, 68, 50
1, 162896, Note_off_c, 0, 73, 64
1, 162916, Note_off_c, 0, 68, 64
1, 162919, Note_off_c, 0, 37, 64
1, 163120, Note_on_c, 0, 75, 70
1, 163128, Note_on_c, 0, 63, 65
1, 163134, Note_on_c, 0, 32, 56
1, 163136, Note_on_c, 0, 44, 55
1, 163136, Note_on_c, 0, 73, 47
1, 163146, Note_on_c, 0, 68, 37
1, 163150, Control_c, 0, 64, 0
1, 163328, Note_off_c, 0, 68, 64
1, 163364, Control_c, 0, 64, 127
1, 163502, Note_on_c, 0, 68, 47
1, 163612, Note_off_c, 0, 68, 64
1, 163812, Note_on_c, 0, 68, 40
1, 163893, Note_off_c, 0, 68, 64
1, 164096, Note_on_c, 0, 68, 41
1, 164176, Note_off_c, 0, 68, 64
1, 164400, Note_on_c, 0, 68, 43
1, 164476, Note_off_c, 0, 32, 64
1, 164482, Note_off_c, 0, 68, 64
1, 164520, Note_off_c, 0, 73, 64
1, 164570, Note_off_c, 0, 44, 64
1, 164582, Note_off_c, 0, 63, 64
1, 164730, Note_on_c, 0, 68, 37
1, 164810, Note_off_c, 0, 75, 64
1, 164844, Note_off_c, 0, 68, 64
1, 165006, Note_on_c, 0, 75, 71
1, 165018, Note_on_c, 0, 56, 42
1, 165021, Note_on_c, 0, 63, 54
1, 165026, Note_on_c, 0, 72, 51
1, 165042, Note_on_c, 0, 44, 39
1, 165044, Note_on_c, 0, 68, 29
1, 165142, Note_off_c, 0, 68, 64
1, 165208, Control_c, 0, 64, 0
1, 165354, Note_on_c, 0, 68, 53
1, 165362, Control_c, 0, 64, 127
1, 165378, Note_off_c, 0, 56, 64
1, 165396, Note_off_c, 0, 72, 64
1, 165432, Note_off_c, 0, 63, 64
1, 165462, Note_off_c, 0, 68, 64
1, 165516, Note_off_c, 0, 44, 64
1, 165594, Note_off_c, 0, 75, 64
1, 165774, Note_on_c, 0, 76, 62
1, 165778, Note_on_c, 0, 75, 63
1, 165784, Note_on_c, 0, 64, 47
1, 165798, Note_on_c, 0, 56, 33
1, 165802, Note_on_c, 0, 49, 38
1, 165810, Note_on_c, 0, 68, 32
1, 165822, Control_c, 0, 64, 0
1, 166036, Note_off_c, 0, 68, 64
1, 166038, Control_c, 0, 64, 127
1, 166212, Note_on_c, 0, 68, 35
1, 166298, Note_off_c, 0, 64, 64
1, 166320, Note_off_c, 0, 75, 64
1, 166340, Note_off_c, 0, 76, 64
1, 166374, Note_off_c, 0, 68, 64
1, 166546, Note_on_c, 0, 76, 60
1, 166548, Note_on_c, 0, 68, 36
1, 166560, Note_on_c, 0, 73, 37
1, 166568, Note_on_c, 0, 64, 36
1, 166722, Note_off_c, 0, 68, 64
1, 166888, Note_off_c, 0, 56, 64
1, 166888, Note_on_c, 0, 68, 41
1, 166908, Note_off_c, 0, 64, 64
1, 166940, Note_off_c, 0, 76, 64
1, 166976, Note_off_c, 0, 73, 64
1, 167010, Note_off_c, 0, 49, 64
1, 167010, Note_off_c, 0, 68, 64
1, 167192, Note_on_c, 0, 75, 56
1, 167204, Note_on_c, 0, 73, 38
1, 167206, Note_on_c, 0, 56, 36
1, 167208, Note_on_c, 0, 63, 41
1, 167214, Note_on_c, 0, 44, 37
1, 167222, Control_c, 0, 64, 0
1, 167225, Note_on_c, 0, 68, 25
1, 167328, Note_off_c, 0, 68, 64
1, 167436, Control_c, 0, 64, 127
1, 167540, Note_on_c, 0, 68, 38
1, 167570, Note_off_c, 0, 73, 64
1, 167610, Note_off_c, 0, 75, 64
1, 167616, Note_off_c, 0, 68, 64
1, 167620, Note_off_c, 0, 63, 64
1, 167844, Note_on_c, 0, 75, 52
1, 167860, Note_on_c, 0, 63, 31
1, 167876, Note_on_c, 0, 72, 33
1, 167878, Note_on_c, 0, 68, 25
1, 167942, Control_c, 0, 64, 0
1, 167966, Note_off_c, 0, 68, 64
1, 168096, Control_c, 0, 64, 127
1, 168182, Note_on_c, 0, 68, 37
1, 168246, Note_off_c, 0, 75, 64
1, 168260, Note_off_c, 0, 56, 64
1, 168262, Note_off_c, 0, 63, 64
1, 168264, Note_off_c, 0, 68, 64
1, 168274, Note_off_c, 0, 72, 64
1, 168314, Note_off_c, 0, 44, 64
1, 168610, Note_on_c, 0, 73, 41
1, 168616, Note_on_c, 0, 68, 27
1, 168618, Note_on_c, 0, 57, 24
1, 168618, Note_on_c, 0, 61, 32
1, 168634, Control_c, 0, 64, 0
1, 168638, Note_on_c, 0, 45, 22
1, 168850, Control_c, 0, 64, 127
1, 168878, Note_off_c, 0, 68, 64
1, 169056, Note_on_c, 0, 68, 29
1, 169194, Note_off_c, 0, 68, 64
1, 169392, Note_on_c, 0, 66, 26
1, 169502, Note_off_c, 0, 66, 64
1, 169710, Note_on_c, 0, 66, 29
1, 169788, Note_off_c, 0, 57, 64
1, 169834, Note_off_c, 0, 66, 64
1, 169837, Note_off_c, 0, 45, 64
1, 170002, Note_on_c, 0, 56, 30
1, 170018, Note_on_c, 0, 68, 32
1, 170021, Note_on_c, 0, 44, 25
1, 170134, Note_off_c, 0, 68, 64
1, 170314, Note_on_c, 0, 68, 34
1, 170394, Note_off_c, 0, 56, 64
1, 170421, Note_off_c, 0, 44, 64
1, 170421, Note_off_c, 0, 68, 64
1, 170616, Note_on_c, 0, 54, 44
1, 170619, Note_on_c, 0, 42, 35
1, 170632, Control_c, 0, 64, 0
1, 170648, Note_on_c, 0, 69, 27
1, 170800, Note_off_c, 0, 69, 64
1, 170816, Control_c, 0, 64, 127
1, 170922, Note_off_c, 0, 54, 64
1, 170970, Note_on_c, 0, 69, 28
1, 171014, Note_off_c, 0, 73, 64
1, 171034, Note_off_c, 0, 69, 64
1, 171048, Note_off_c, 0, 61, 64
1, 171060, Note_off_c, 0, 42, 64
1, 171368, Note_on_c, 0, 68, 53
1, 171370, Note_on_c, 0, 56, 43
1, 171378, Note_on_c, 0, 44, 45
1, 171384, Control_c, 0, 64, 0
1, 171408, Note_on_c, 0, 60, 36
1, 171414, Note_on_c, 0, 63, 34
1, 171600, Control_c, 0, 64, 127
1, 171610, Note_off_c, 0, 56, 64
1, 171734, Note_on_c, 0, 56, 29
1, 171856, Note_off_c, 0, 56, 64
1, 172006, Note_off_c, 0, 60, 64
1, 172036, Note_on_c, 0, 56, 37
1, 172140, Note_off_c, 0, 56, 64
1, 172168, Note_off_c, 0, 63, 64
1, 172306, Note_off_c, 0, 44, 64
1, 172312, Note_on_c, 0, 56, 37
1, 172402, Note_off_c, 0, 68, 64
1, 172410, Note_off_c, 0, 56, 64
1, 172622, Note_on_c, 0, 56, 40
1, 172624, Note_on_c, 0, 68, 46
1, 172630, Note_on_c, 0, 64, 50
1, 172642, Note_on_c, 0, 61, 40
1, 172645, Note_on_c, 0, 37, 46
1, 172648, Note_on_c, 0, 44, 32
1, 172676, Control_c, 0, 64, 0
1, 172786, Note_off_c, 0, 56, 64
1, 172874, Control_c, 0, 64, 127
1, 172944, Note_on_c, 0, 56, 44
1, 172992, Note_off_c, 0, 68, 64
1, 173010, Note_off_c, 0, 61, 64
1, 173020, Note_off_c, 0, 56, 64
1, 173128, Note_off_c, 0, 64, 64
1, 173224, Note_on_c, 0, 68, 58
1, 173227, Note_on_c, 0, 56, 46
1, 173240, Note_on_c, 0, 58, 30
1, 173242, Note_on_c, 0, 61, 46
1, 173356, Note_off_c, 0, 56, 64
1, 173474, Note_off_c, 0, 44, 64
1, 173512, Note_on_c, 0, 56, 48
1, 173538, Note_off_c, 0, 68, 64
1, 173624, Note_off_c, 0, 58, 64
1, 173626, Note_off_c, 0, 61, 64
1, 173642, Note_off_c, 0, 56, 64
1, 173670, Note_off_c, 0, 37, 64
1, 173798, Note_on_c, 0, 56, 47
1, 173806, Note_on_c, 0, 68, 49
1, 173812, Control_c, 0, 64, 0
1, 173816, Note_on_c, 0, 44, 48
1, 173818, Note_on_c, 0, 32, 46
1, 173824, Note_on_c, 0, 60, 44
1, 173824, Note_on_c, 0, 63, 47
1, 173956, Note_off_c, 0, 56, 64
1, 174012, Control_c, 0, 64, 127
1, 174036, Note_off_c, 0, 63, 64
1, 174050, Note_off_c, 0, 44, 64
1, 174050, Note_off_c, 0, 32, 64
1, 174102, Note_on_c, 0, 56, 51
1, 174124, Note_off_c, 0, 60, 64
1, 174154, Note_off_c, 0, 68, 64
1, 174204, Note_off_c, 0, 56, 64
1, 174378, Note_on_c, 0, 68, 59
1, 174380, Control_c, 0, 64, 0
1, 174382, Note_on_c, 0, 56, 50
1, 174384, Note_on_c, 0, 61, 51
1, 174388, Note_on_c, 0, 64, 59
1, 174396, Note_on_c, 0, 44, 50
1, 174398, Note_on_c, 0, 37, 61
1, 174496, Note_off_c, 0, 56, 64
1, 174612, Control_c, 0, 64, 127
1, 174660, Note_on_c, 0, 56, 50
1, 174716, Note_off_c, 0, 68, 64
1, 174748, Note_off_c, 0, 61, 64
1, 174778, Note_off_c, 0, 56, 64
1, 174836, Note_off_c, 0, 64, 64
1, 174952, Note_on_c, 0, 56, 47
1, 174956, Note_on_c, 0, 68, 64
1, 174966, Note_on_c, 0, 58, 38
1, 174984, Note_on_c, 0, 61, 56
1, 175074, Note_off_c, 0, 56, 64
1, 175232, Note_on_c, 0, 56, 54
1, 175264, Note_off_c, 0, 68, 64
1, 175300, Note_off_c, 0, 58, 64
1, 175362, Note_off_c, 0, 61, 64
1, 175362, Note_off_c, 0, 56, 64
1, 175506, Note_on_c, 0, 68, 62
1, 175508, Note_on_c, 0, 56, 59
1, 175528, Note_on_c, 0, 64, 57
1, 175544, Note_on_c, 0, 61, 48
1, 175614, Note_off_c, 0, 56, 64
1, 175738, Note_off_c, 0, 61, 64
1, 175744, Note_off_c, 0, 64, 64
1, 175768, Note_off_c, 0, 44, 64
1, 175804, Note_on_c, 0, 56, 52
1, 175840, Note_off_c, 0, 68, 64
1, 175852, Note_off_c, 0, 37, 64
1, 175898, Note_off_c, 0, 56, 64
1, 176070, Control_c, 0, 64, 0
1, 176078, Note_on_c, 0, 56, 50
1, 176078, Note_on_c, 0, 68, 50
1, 176081, Note_on_c, 0, 37, 56
1, 176090, Note_on_c, 0, 44, 34
1, 176092, Note_on_c, 0, 61, 44
1, 176098, Note_on_c, 0, 64, 49
1, 176218, Note_off_c, 0, 56, 64
1, 176286, Control_c, 0, 64, 127
1, 176304, Note_off_c, 0, 44, 64
1, 176380, Note_on_c, 0, 56, 46
1, 176392, Note_off_c, 0, 68, 64
1, 176418, Note_off_c, 0, 61, 64
1, 176422, Note_off_c, 0, 37, 64
1, 176482, Note_off_c, 0, 56, 64
1, 176532, Note_off_c, 0, 64, 64
1, 176670, Control_c, 0, 64, 0
1, 176674, Note_on_c, 0, 56, 44
1, 176678, Note_on_c, 0, 44, 29
1, 176678, Note_on_c, 0, 68, 47
1, 176680, Note_on_c, 0, 32, 31
1, 176690, Note_on_c, 0, 60, 38
1, 176696, Note_on_c, 0, 63, 40
1, 176834, Note_off_c, 0, 56, 64
1, 176900, Control_c, 0, 64, 127
1, 176982, Note_on_c, 0, 56, 41
1, 177050, Note_off_c, 0, 60, 64
1, 177078, Note_off_c, 0, 68, 64
1, 177080, Note_off_c, 0, 56, 64
1, 177104, Note_off_c, 0, 63, 64
1, 177288, Note_on_c, 0, 68, 44
1, 177298, Note_on_c, 0, 63, 34
1, 177300, Note_on_c, 0, 56, 41
1, 177302, Note_on_c, 0, 66, 28
1, 177392, Note_off_c, 0, 63, 64
1, 177404, Note_off_c, 0, 56, 64
1, 177482, Note_off_c, 0, 66, 64
1, 177488, Note_off_c, 0, 44, 64
1, 177584, Note_off_c, 0, 68, 64
1, 177640, Note_on_c, 0, 56, 30
1, 177662, Note_off_c, 0, 32, 64
1, 177718, Note_off_c, 0, 56, 64
1, 177930, Note_on_c, 0, 56, 23
1, 177936, Note_on_c, 0, 68, 29
1, 177936, Note_on_c, 0, 61, 33
1, 177940, Note_on_c, 0, 64, 25
1, 177942, Note_on_c, 0, 37, 26
1, 177942, Note_on_c, 0, 44, 36
1, 177945, Control_c, 0, 64, 0
1, 178090, Note_off_c, 0, 56, 64
1, 178144, Control_c, 0, 64, 127
1, 178154, Note_off_c, 0, 44, 64
1, 178260, Note_on_c, 0, 56, 25
1, 178304, Note_off_c, 0, 37, 64
1, 178316, Note_off_c, 0, 64, 64
1, 178320, Note_off_c, 0, 68, 64
1, 178324, Note_off_c, 0, 61, 64
1, 178346, Note_off_c, 0, 56, 64
1, 178622, Control_c, 0, 64, 0
1, 178648, Note_on_c, 0, 68, 32
1, 178650, Note_on_c, 0, 44, 39
1, 178652, Note_on_c, 0, 56, 24
1, 178654, Note_on_c, 0, 63, 36
1, 178660, Note_on_c, 0, 60, 14
1, 178668, Note_on_c, 0, 32, 20
1, 178824, Note_off_c, 0, 56, 64
1, 178836, Control_c, 0, 64, 127
1, 178994, Note_on_c, 0, 56, 41
1, 179068, Note_off_c, 0, 56, 64
1, 179270, Note_on_c, 0, 56, 36
1, 179346, Note_off_c, 0, 56, 64
1, 179526, Note_on_c, 0, 56, 31
1, 179606, Note_off_c, 0, 56, 64
1, 179744, Note_off_c, 0, 44, 64
1, 179820, Note_on_c, 0, 56, 28
1, 179896, Note_off_c, 0, 56, 64
1, 179980, Note_off_c, 0, 32, 64
1, 180118, Note_on_c, 0, 56, 23
1, 180194, Note_off_c, 0, 56, 64
1, 180406, Note_on_c, 0, 56, 30
1, 180474, Note_off_c, 0, 56, 64
1, 180520, Note_off_c, 0, 60, 64
1, 180714, Note_on_c, 0, 56, 26
1, 180720, Note_off_c, 0, 63, 64
1, 180746, Note_off_c, 0, 68, 64
1, 180782, Note_off_c, 0, 56, 64
1, 181066, Note_on_c, 0, 72, 47
1, 181068, Note_on_c, 0, 68, 38
1, 181071, Note_on_c, 0, 60, 43
1, 181071, Note_on_c, 0, 54, 31
1, 181078, Note_on_c, 0, 44, 31
1, 181082, Note_on_c, 0, 63, 38
1, 181116, Note_on_c, 0, 42, 15
1, 181244, Note_off_c, 0, 68, 64
1, 181250, Note_off_c, 0, 44, 64
1, 181414, Note_on_c, 0, 68, 40
1, 181422, Note_on_c, 0, 44, 40
1, 181480, Note_off_c, 0, 68, 64
1, 181484, Note_off_c, 0, 44, 64
1, 181686, Note_on_c, 0, 68, 37
1, 181704, Note_on_c, 0, 44, 36
1, 181738, Note_off_c, 0, 42, 64
1, 181748, Note_off_c, 0, 68, 64
1, 181766, Note_off_c, 0, 44, 64
1, 181790, Note_off_c, 0, 63, 64
1, 181970, Note_on_c, 0, 68, 45
1, 182002, Note_on_c, 0, 44, 39
1, 182010, Note_off_c, 0, 60, 64
1, 182010, Note_off_c, 0, 54, 64
1, 182036, Note_off_c, 0, 72, 64
1, 182068, Note_off_c, 0, 44, 64
1, 182071, Note_off_c, 0, 68, 64
1, 182260, Note_on_c, 0, 73, 73
1, 182262, Note_on_c, 0, 61, 81
1, 182284, Note_on_c, 0, 52, 60
1, 182284, Note_on_c, 0, 68, 47
1, 182287, Note_on_c, 0, 44, 37
1, 182294, Note_on_c, 0, 40, 50
1, 182390, Note_off_c, 0, 68, 64
1, 182554, Control_c, 0, 64, 0
1, 182588, Note_on_c, 0, 68, 52
1, 182710, Note_off_c, 0, 52, 64
1, 182710, Control_c, 0, 64, 127
1, 182713, Note_off_c, 0, 40, 64
1, 182734, Note_off_c, 0, 68, 64
1, 182750, Note_off_c, 0, 44, 64
1, 182884, Note_on_c, 0, 68, 57
1, 182898, Note_on_c, 0, 37, 68
1, 182898, Note_on_c, 0, 49, 59
1, 183014, Note_off_c, 0, 68, 64
1, 183214, Note_off_c, 0, 49, 64
1, 183228, Note_on_c, 0, 68, 59
1, 183354, Note_off_c, 0, 61, 64
1, 183404, Note_off_c, 0, 37, 64
1, 183407, Note_off_c, 0, 73, 64
1, 183412, Note_off_c, 0, 68, 64
1, 183534, Note_on_c, 0, 75, 79
1, 183536, Note_on_c, 0, 63, 83
1, 183544, Note_on_c, 0, 44, 77
1, 183546, Note_on_c, 0, 32, 76
1, 183550, Note_on_c, 0, 68, 58
1, 183558, Note_on_c, 0, 73, 62
1, 183646, Control_c, 0, 64, 0
1, 183752, Note_off_c, 0, 68, 64
1, 183814, Control_c, 0, 64, 127
1, 183860, Note_on_c, 0, 68, 50
1, 183976, Note_off_c, 0, 68, 64
1, 184130, Note_on_c, 0, 68, 57
1, 184242, Note_off_c, 0, 68, 64
1, 184388, Note_on_c, 0, 68, 60
1, 184522, Note_off_c, 0, 68, 64
1, 184672, Note_on_c, 0, 68, 62
1, 184756, Note_off_c, 0, 68, 64
1, 184996, Note_off_c, 0, 73, 64
1, 185004, Note_on_c, 0, 68, 51
1, 185068, Note_off_c, 0, 63, 64
1, 185090, Note_off_c, 0, 75, 64
1, 185095, Note_off_c, 0, 68, 64
1, 185258, Note_on_c, 0, 75, 86
1, 185266, Note_on_c, 0, 63, 77
1, 185268, Note_on_c, 0, 72, 68
1, 185272, Note_on_c, 0, 68, 62
1, 185420, Note_off_c, 0, 68, 64
1, 185568, Note_on_c, 0, 68, 64
1, 185612, Note_off_c, 0, 72, 64
1, 185636, Note_off_c, 0, 44, 64
1, 185656, Note_off_c, 0, 63, 64
1, 185659, Note_off_c, 0, 75, 64
1, 185690, Note_off_c, 0, 68, 64
1, 185728, Note_off_c, 0, 32, 64
1, 185910, Note_on_c, 0, 75, 78
1, 185912, Note_on_c, 0, 76, 88
1, 185919, Note_on_c, 0, 44, 66
1, 185923, Note_on_c, 0, 68, 59
1, 185927, Note_on_c, 0, 37, 67
1, 185927, Note_on_c, 0, 64, 57
1, 185972, Note_on_c, 0, 65, 23
1, 186116, Note_off_c, 0, 68, 64
1, 186196, Control_c, 0, 64, 0
1, 186208, Note_off_c, 0, 65, 64
1, 186326, Note_on_c, 0, 68, 55
1, 186336, Control_c, 0, 64, 127
1, 186452, Note_off_c, 0, 64, 64
1, 186460, Note_off_c, 0, 76, 64
1, 186476, Note_off_c, 0, 75, 64
1, 186510, Note_off_c, 0, 68, 64
1, 186606, Note_on_c, 0, 76, 85
1, 186608, Note_on_c, 0, 68, 50
1, 186610, Note_on_c, 0, 73, 73
1, 186618, Note_on_c, 0, 64, 75
1, 186756, Note_off_c, 0, 68, 64
1, 186842, Note_off_c, 0, 37, 64
1, 186868, Note_off_c, 0, 44, 64
1, 186898, Note_on_c, 0, 68, 76
1, 186958, Note_off_c, 0, 76, 64
1, 186960, Note_off_c, 0, 64, 64
1, 186976, Note_off_c, 0, 73, 64
1, 187088, Note_off_c, 0, 68, 64
1, 187174, Note_on_c, 0, 75, 90
1, 187180, Note_on_c, 0, 68, 55
1, 187184, Note_on_c, 0, 73, 76
1, 187184, Note_on_c, 0, 63, 88
1, 187188, Note_on_c, 0, 56, 81
1, 187196, Note_on_c, 0, 44, 82
1, 187382, Note_off_c, 0, 68, 64
1, 187510, Note_on_c, 0, 68, 69
1, 187518, Control_c, 0, 64, 0
1, 187568, Note_off_c, 0, 73, 64
1, 187642, Control_c, 0, 64, 127
1, 187684, Note_off_c, 0, 75, 64
1, 187700, Note_off_c, 0, 63, 64
1, 187702, Note_off_c, 0, 68, 64
1, 187788, Note_on_c, 0, 75, 76
1, 187791, Note_on_c, 0, 68, 50
1, 187794, Note_on_c, 0, 63, 75
1, 187796, Note_on_c, 0, 72, 80
1, 187886, Control_c, 0, 64, 0
1, 187968, Note_off_c, 0, 68, 64
1, 188010, Control_c, 0, 64, 127
1, 188050, Note_off_c, 0, 56, 64
1, 188096, Note_off_c, 0, 44, 64
1, 188146, Note_on_c, 0, 68, 75
1, 188180, Note_off_c, 0, 72, 64
1, 188196, Note_off_c, 0, 75, 64
1, 188290, Note_off_c, 0, 68, 64
1, 188294, Note_off_c, 0, 63, 64
1, 188510, Note_on_c, 0, 73, 86
1, 188513, Note_on_c, 0, 61, 83
1, 188513, Note_on_c, 0, 71, 89
1, 188513, Note_on_c, 0, 68, 73
1, 188526, Note_on_c, 0, 53, 108
1, 188530, Note_on_c, 0, 41, 94
1, 188700, Note_off_c, 0, 61, 64
1, 188908, Note_on_c, 0, 61, 77
1, 189138, Note_off_c, 0, 61, 64
1, 189246, Note_on_c, 0, 61, 76
1, 189420, Note_off_c, 0, 61, 64
1, 189554, Note_on_c, 0, 61, 86
1, 189644, Note_off_c, 0, 53, 64
1, 189656, Note_off_c, 0, 41, 64
1, 189664, Note_off_c, 0, 73, 64
1, 189668, Note_off_c, 0, 68, 64
1, 189698, Note_off_c, 0, 61, 64
1, 189742, Note_off_c, 0, 71, 64
1, 189834, Note_on_c, 0, 61, 96
1, 189837, Note_on_c, 0, 69, 75
1, 189837, Note_on_c, 0, 73, 90
1, 189837, Note_on_c, 0, 68, 76
1, 189842, Note_on_c, 0, 54, 97
1, 189844, Note_on_c, 0, 42, 88
1, 189900, Control_c, 0, 64, 0
1, 190022, Note_off_c, 0, 61, 64
1, 190084, Control_c, 0, 64, 127
1, 190134, Note_on_c, 0, 61, 79
1, 190226, Note_off_c, 0, 69, 64
1, 190228, Note_off_c, 0, 73, 64
1, 190228, Note_off_c, 0, 68, 64
1, 190296, Note_off_c, 0, 61, 64
1, 190414, Note_on_c, 0, 73, 88
1, 190418, Note_on_c, 0, 61, 88
1, 190418, Note_on_c, 0, 69, 71
1, 190418, Note_on_c, 0, 66, 69
1, 190468, Control_c, 0, 64, 0
1, 190552, Note_off_c, 0, 61, 64
1, 190606, Control_c, 0, 64, 127
1, 190676, Note_off_c, 0, 54, 64
1, 190724, Note_on_c, 0, 61, 82
1, 190730, Note_off_c, 0, 69, 64
1, 190740, Note_off_c, 0, 73, 64
1, 190758, Note_off_c, 0, 42, 64
1, 190776, Note_off_c, 0, 66, 64
1, 190822, Note_off_c, 0, 61, 64
1, 191006, Note_on_c, 0, 68, 83
1, 191010, Note_on_c, 0, 56, 88
1, 191014, Note_on_c, 0, 63, 81
1, 191016, Note_on_c, 0, 66, 70
1, 191022, Note_on_c, 0, 48, 87
1, 191022, Note_on_c, 0, 36, 95
1, 191162, Note_off_c, 0, 56, 64
1, 191342, Note_on_c, 0, 56, 78
1, 191530, Note_off_c, 0, 56, 64
1, 191620, Control_c, 0, 64, 0
1, 191644, Note_on_c, 0, 56, 77
1, 191804, Control_c, 0, 64, 127
1, 191850, Note_off_c, 0, 56, 64
1, 191954, Note_on_c, 0, 56, 65
1, 192050, Note_off_c, 0, 48, 64
1, 192053, Note_off_c, 0, 36, 64
1, 192114, Note_off_c, 0, 68, 64
1, 192120, Note_off_c, 0, 63, 64
1, 192126, Note_off_c, 0, 66, 64
1, 192128, Note_off_c, 0, 56, 64
1, 192238, Note_on_c, 0, 68, 89
1, 192240, Note_on_c, 0, 56, 85
1, 192242, Note_on_c, 0, 37, 95
1, 192242, Note_on_c, 0, 49, 93
1, 192244, Note_on_c, 0, 61, 78
1, 192248, Note_on_c, 0, 66, 69
1, 192432, Note_off_c, 0, 56, 64
1, 192512, Control_c, 0, 64, 0
1, 192562, Note_on_c, 0, 56, 86
1, 192650, Control_c, 0, 64, 127
1, 192688, Note_off_c, 0, 68, 64
1, 192704, Note_off_c, 0, 61, 64
1, 192708, Note_off_c, 0, 56, 64
1, 192740, Note_off_c, 0, 66, 64
1, 192880, Note_on_c, 0, 70, 84
1, 192886, Note_on_c, 0, 61, 72
1, 192886, Note_on_c, 0, 56, 82
1, 192896, Note_on_c, 0, 64, 83
1, 192916, Note_on_c, 0, 68, 44
1, 192958, Control_c, 0, 64, 0
1, 192978, Note_off_c, 0, 68, 64
1, 193074, Note_off_c, 0, 56, 64
1, 193096, Control_c, 0, 64, 127
1, 193200, Note_off_c, 0, 49, 64
1, 193208, Note_on_c, 0, 56, 80
1, 193232, Note_off_c, 0, 70, 64
1, 193254, Note_off_c, 0, 37, 64
1, 193290, Note_off_c, 0, 64, 64
1, 193344, Note_off_c, 0, 61, 64
1, 193352, Note_off_c, 0, 56, 64
1, 193558, Note_on_c, 0, 70, 83
1, 193564, Note_on_c, 0, 56, 80
1, 193566, Note_on_c, 0, 61, 74
1, 193572, Note_on_c, 0, 64, 80
1, 193576, Note_on_c, 0, 44, 97
1, 193580, Note_on_c, 0, 32, 88
1, 193768, Note_off_c, 0, 56, 64
1, 193924, Note_on_c, 0, 56, 75
1, 194100, Note_off_c, 0, 56, 64
1, 194238, Note_on_c, 0, 56, 68
1, 194362, Note_off_c, 0, 56, 64
1, 194454, Note_off_c, 0, 61, 64
1, 194472, Note_off_c, 0, 64, 64
1, 194498, Note_off_c, 0, 70, 64
1, 194554, Note_on_c, 0, 56, 70
1, 194674, Note_off_c, 0, 56, 64
1, 194812, Note_on_c, 0, 56, 76
1, 194815, Note_on_c, 0, 68, 84
1, 194826, Note_on_c, 0, 63, 76
1, 194828, Note_on_c, 0, 60, 70
1, 194862, Control_c, 0, 64, 0
1, 194998, Note_off_c, 0, 56, 64
1, 195032, Control_c, 0, 64, 127
1, 195098, Note_off_c, 0, 60, 64
1, 195114, Note_on_c, 0, 56, 70
1, 195126, Note_off_c, 0, 63, 64
1, 195160, Note_off_c, 0, 68, 64
1, 195244, Note_off_c, 0, 44, 64
1, 195244, Note_off_c, 0, 56, 64
1, 195312, Note_off_c, 0, 32, 64
1, 195402, Note_on_c, 0, 70, 90
1, 195405, Note_on_c, 0, 56, 83
1, 195410, Note_on_c, 0, 44, 90
1, 195410, Note_on_c, 0, 37, 92
1, 195410, Note_on_c, 0, 61, 78
1, 195413, Note_on_c, 0, 64, 80
1, 195478, Control_c, 0, 64, 0
1, 195568, Note_off_c, 0, 56, 64
1, 195630, Control_c, 0, 64, 127
1, 195666, Note_off_c, 0, 44, 64
1, 195698, Note_on_c, 0, 56, 77
1, 195704, Note_off_c, 0, 70, 64
1, 195756, Note_off_c, 0, 64, 64
1, 195759, Note_off_c, 0, 37, 64
1, 195810, Note_off_c, 0, 61, 64
1, 195820, Note_off_c, 0, 56, 64
1, 195992, Note_on_c, 0, 70, 86
1, 196000, Note_on_c, 0, 56, 83
1, 196000, Note_on_c, 0, 44, 91
1, 196003, Note_on_c, 0, 61, 78
1, 196006, Note_on_c, 0, 32, 87
1, 196008, Note_on_c, 0, 64, 88
1, 196144, Note_off_c, 0, 56, 64
1, 196294, Note_on_c, 0, 56, 60
1, 196424, Note_off_c, 0, 56, 64
1, 196618, Note_on_c, 0, 56, 68
1, 196752, Note_off_c, 0, 56, 64
1, 196952, Note_off_c, 0, 70, 64
1, 196954, Note_on_c, 0, 56, 58
1, 196980, Note_off_c, 0, 64, 64
1, 197026, Note_off_c, 0, 61, 64
1, 197084, Note_off_c, 0, 56, 64
1, 197260, Note_on_c, 0, 68, 68
1, 197264, Note_on_c, 0, 56, 57
1, 197274, Control_c, 0, 64, 0
1, 197278, Note_on_c, 0, 63, 55
1, 197286, Note_on_c, 0, 60, 48
1, 197462, Note_off_c, 0, 56, 64
1, 197520, Control_c, 0, 64, 127
1, 197582, Note_on_c, 0, 56, 42
1, 197596, Note_off_c, 0, 60, 64
1, 197620, Note_off_c, 0, 63, 64
1, 197622, Note_off_c, 0, 68, 64
1, 197660, Note_off_c, 0, 44, 64
1, 197706, Note_off_c, 0, 56, 64
1, 197748, Note_off_c, 0, 32, 64
1, 197948, Note_on_c, 0, 70, 60
1, 197958, Note_on_c, 0, 56, 34
1, 197966, Note_on_c, 0, 64, 50
1, 197968, Control_c, 0, 64, 0
1, 197980, Note_on_c, 0, 61, 44
1, 197982, Note_on_c, 0, 37, 44
1, 197990, Note_on_c, 0, 44, 33
1, 198128, Note_off_c, 0, 56, 64
1, 198212, Control_c, 0, 64, 127
1, 198242, Note_off_c, 0, 44, 64
1, 198298, Note_on_c, 0, 56, 44
1, 198324, Note_off_c, 0, 64, 64
1, 198340, Note_off_c, 0, 70, 64
1, 198396, Note_off_c, 0, 61, 64
1, 198430, Note_off_c, 0, 56, 64
1, 198466, Note_off_c, 0, 37, 64
1, 198744, Note_on_c, 0, 70, 46
1, 198760, Note_on_c, 0, 56, 31
1, 198766, Control_c, 0, 64, 0
1, 198774, Note_on_c, 0, 64, 50
1, 198776, Note_on_c, 0, 44, 43
1, 198780, Note_on_c, 0, 61, 40
1, 198792, Note_on_c, 0, 32, 23
1, 199058, Control_c, 0, 64, 127
1, 199070, Note_off_c, 0, 56, 64
1, 199226, Note_off_c, 0, 44, 64
1, 199326, Note_on_c, 0, 56, 26
1, 199340, Note_off_c, 0, 70, 64
1, 199398, Note_off_c, 0, 64, 64
1, 199450, Note_off_c, 0, 61, 64
1, 199538, Note_off_c, 0, 56, 64
1, 199768, Note_on_c, 0, 68, 33
1, 199770, Note_on_c, 0, 63, 39
1, 199778, Control_c, 0, 64, 0
1, 199789, Note_on_c, 0, 56, 20
1, 199800, Note_on_c, 0, 60, 22
1, 199822, Note_on_c, 0, 44, 25
1, 199970, Note_off_c, 0, 32, 64
1, 200018, Note_off_c, 0, 56, 64
1, 200072, Control_c, 0, 64, 127
1, 200174, Note_on_c, 0, 56, 44
1, 200240, Note_off_c, 0, 44, 64
1, 200366, Note_off_c, 0, 56, 64
1, 200568, Note_on_c, 0, 56, 41
1, 200738, Note_off_c, 0, 56, 64
1, 200958, Note_on_c, 0, 56, 28
1, 200978, Note_on_c, 0, 53, 47
1, 200992, Control_c, 0, 64, 0
1, 201194, Note_off_c, 0, 56, 64
1, 201224, Control_c, 0, 64, 127
1, 201426, Note_off_c, 0, 60, 64
1, 201460, Note_off_c, 0, 53, 64
1, 201463, Note_on_c, 0, 56, 26
1, 201488, Note_on_c, 0, 54, 29
1, 201500, Control_c, 0, 64, 0
1, 201776, Control_c, 0, 64, 127
1, 201818, Note_off_c, 0, 56, 64
1, 202090, Note_on_c, 0, 56, 22
1, 202114, Control_c, 0, 64, 0
1, 202120, Note_off_c, 0, 54, 64
1, 202164, Note_on_c, 0, 51, 28
1, 202330, Control_c, 0, 64, 127
1, 202382, Note_off_c, 0, 56, 64
1, 202442, Note_off_c, 0, 63, 64
1, 202504, Note_off_c, 0, 68, 64
1, 202554, Note_off_c, 0, 51, 64
1, 203078, Note_on_c, 0, 77, 56
1, 203116, Note_on_c, 0, 49, 23
1, 203144, Control_c, 0, 64, 0
1, 203574, Control_c, 0, 64, 127
1, 203832, Note_off_c, 0, 49, 64
1, 203904, Note_on_c, 0, 56, 17
1, 204130, Note_on_c, 0, 73, 33
1, 204156, Note_off_c, 0, 77, 64
1, 204182, Note_off_c, 0, 56, 64
1, 204386, Note_on_c, 0, 68, 40
1, 204418, Note_on_c, 0, 65, 21
1, 204440, Note_off_c, 0, 73, 64
1, 204444, Note_on_c, 0, 61, 14
1, 204862, Note_on_c, 0, 56, 15
1, 205044, Note_off_c, 0, 56, 64
1, 205282, Note_on_c, 0, 56, 26
1, 205428, Note_off_c, 0, 56, 64
1, 205654, Note_on_c, 0, 56, 26
1, 205800, Note_off_c, 0, 61, 64
1, 205806, Note_off_c, 0, 56, 64
1, 205894, Note_off_c, 0, 65, 64
1, 206006, Note_on_c, 0, 70, 36
1, 206018, Note_on_c, 0, 56, 32
1, 206094, Note_off_c, 0, 56, 64
1, 206154, Note_off_c, 0, 68, 64
1, 206358, Note_on_c, 0, 56, 34
1, 206492, Note_off_c, 0, 56, 64
1, 206716, Note_on_c, 0, 72, 47
1, 206722, Note_on_c, 0, 66, 24
1, 206756, Control_c, 0, 64, 0
1, 206764, Note_on_c, 0, 63, 23
1, 206868, Note_off_c, 0, 70, 64
1, 207082, Note_on_c, 0, 56, 28
1, 207154, Control_c, 0, 64, 127
1, 207228, Note_off_c, 0, 56, 64
1, 207456, Note_on_c, 0, 56, 20
1, 207612, Note_off_c, 0, 56, 64
1, 207830, Note_on_c, 0, 56, 18
1, 208020, Note_off_c, 0, 56, 64
1, 208190, Note_on_c, 0, 58, 16
1, 208276, Control_c, 0, 64, 0
1, 208506, Control_c, 0, 64, 127
1, 208562, Note_off_c, 0, 63, 64
1, 208588, Note_off_c, 0, 58, 64
1, 208612, Note_on_c, 0, 56, 14
1, 208706, Control_c, 0, 64, 0
1, 208892, Control_c, 0, 64, 127
1, 208948, Note_off_c, 0, 66, 64
1, 208954, Note_off_c, 0, 56, 64
1, 209084, Note_on_c, 0, 73, 41
1, 209120, Note_on_c, 0, 61, 17
1, 209123, Note_on_c, 0, 65, 18
1, 209244, Control_c, 0, 64, 0
1, 209258, Note_off_c, 0, 72, 64
1, 209414, Control_c, 0, 64, 127
1, 209500, Note_on_c, 0, 56, 23
1, 209534, Note_off_c, 0, 61, 64
1, 209556, Note_off_c, 0, 65, 64
1, 209642, Note_off_c, 0, 56, 64
1, 209838, Note_on_c, 0, 75, 61
1, 209868, Note_on_c, 0, 66, 12
1, 209878, Note_on_c, 0, 60, 24
1, 209966, Control_c, 0, 64, 0
1, 210012, Note_off_c, 0, 73, 64
1, 210150, Control_c, 0, 64, 127
1, 210332, Note_on_c, 0, 56, 24
1, 210462, Note_off_c, 0, 66, 64
1, 210672, Note_on_c, 0, 77, 55
1, 210684, Note_on_c, 0, 68, 25
1, 210808, Note_off_c, 0, 68, 64
1, 210854, Note_off_c, 0, 75, 64
1, 211014, Note_on_c, 0, 78, 48
1, 211026, Note_on_c, 0, 70, 28
1, 211042, Control_c, 0, 64, 0
1, 211068, Note_off_c, 0, 77, 64
1, 211262, Note_off_c, 0, 56, 64
1, 211272, Control_c, 0, 64, 127
1, 211522, Note_on_c, 0, 56, 25
1, 211566, Note_off_c, 0, 60, 64
1, 211680, Note_off_c, 0, 56, 64
1, 211882, Note_on_c, 0, 56, 22
1, 211996, Note_off_c, 0, 56, 64
1, 212250, Note_on_c, 0, 56, 14
1, 212642, Note_on_c, 0, 77, 36
1, 212644, Note_on_c, 0, 68, 17
1, 212651, Note_on_c, 0, 61, 10
1, 212678, Note_off_c, 0, 70, 64
1, 212686, Control_c, 0, 64, 0
1, 212814, Note_off_c, 0, 56, 64
1, 212838, Note_off_c, 0, 78, 64
1, 212932, Control_c, 0, 64, 127
1, 213056, Note_off_c, 0, 61, 64
1, 213084, Note_off_c, 0, 68, 64
1, 213150, Note_on_c, 0, 56, 8
1, 213300, Note_off_c, 0, 56, 64
1, 213302, Note_off_c, 0, 77, 64
1, 213450, Note_on_c, 0, 68, 18
1, 213492, Note_on_c, 0, 60, 10
1, 213528, Note_on_c, 0, 77, 49
1, 213654, Control_c, 0, 64, 0
1, 213838, Control_c, 0, 64, 127
1, 213884, Note_on_c, 0, 56, 19
1, 213950, Note_off_c, 0, 68, 64
1, 214068, Note_off_c, 0, 56, 64
1, 214194, Note_on_c, 0, 66, 29
1, 214540, Note_on_c, 0, 75, 36
1, 214542, Note_off_c, 0, 60, 64
1, 214592, Note_off_c, 0, 66, 64
1, 214595, Note_on_c, 0, 56, 19
1, 214652, Note_off_c, 0, 77, 64
1, 214760, Note_off_c, 0, 56, 64
1, 214952, Note_on_c, 0, 61, 22
1, 214962, Note_on_c, 0, 65, 19
1, 215040, Note_on_c, 0, 73, 41
1, 215128, Control_c, 0, 64, 0
1, 215244, Note_off_c, 0, 75, 64
1, 215344, Control_c, 0, 64, 127
1, 215420, Note_on_c, 0, 56, 31
1, 215452, Note_off_c, 0, 65, 64
1, 215494, Note_off_c, 0, 61, 64
1, 215602, Note_on_c, 0, 74, 69
1, 215638, Note_off_c, 0, 56, 64
1, 215672, Note_off_c, 0, 73, 64
1, 215864, Note_on_c, 0, 75, 69
1, 215910, Note_off_c, 0, 74, 64
1, 215910, Note_on_c, 0, 66, 15
1, 215928, Control_c, 0, 64, 0
1, 215948, Note_on_c, 0, 60, 15
1, 216090, Note_on_c, 0, 77, 70
1, 216102, Note_off_c, 0, 75, 64
1, 216204, Control_c, 0, 64, 127
1, 216218, Note_on_c, 0, 75, 54
1, 216246, Note_off_c, 0, 77, 64
1, 216362, Note_off_c, 0, 75, 64
1, 216362, Note_on_c, 0, 74, 66
1, 216468, Note_off_c, 0, 74, 64
1, 216482, Note_on_c, 0, 75, 51
1, 216536, Note_on_c, 0, 56, 21
1, 216574, Control_c, 0, 64, 0
1, 216616, Note_off_c, 0, 75, 64
1, 216642, Note_on_c, 0, 76, 49
1, 216810, Note_on_c, 0, 77, 44
1, 216812, Note_off_c, 0, 76, 64
1, 217010, Note_on_c, 0, 80, 36
1, 217014, Note_off_c, 0, 77, 64
1, 217050, Control_c, 0, 64, 127
1, 217180, Note_off_c, 0, 66, 64
1, 217186, Note_off_c, 0, 60, 64
1, 217252, Note_off_c, 0, 56, 64
1, 217276, Note_off_c, 0, 80, 64
1, 217284, Note_on_c, 0, 79, 39
1, 217406, Note_off_c, 0, 79, 64
1, 217578, Note_on_c, 0, 78, 24
1, 217662, Note_off_c, 0, 78, 64
1, 218050, Note_on_c, 0, 77, 45
1, 218078, Control_c, 0, 64, 0
1, 218080, Note_on_c, 0, 49, 15
1, 218586, Control_c, 0, 64, 127
1, 218598, Note_on_c, 0, 56, 22
1, 218674, Note_off_c, 0, 49, 64
1, 218994, Note_off_c, 0, 56, 64
1, 219032, Note_on_c, 0, 73, 27
1, 219035, Note_off_c, 0, 77, 64
1, 219184, Note_off_c, 0, 73, 64
1, 219242, Note_on_c, 0, 65, 16
1, 219242, Note_on_c, 0, 68, 36
1, 219244, Note_on_c, 0, 61, 14
1, 219744, Note_on_c, 0, 56, 13
1, 219862, Note_off_c, 0, 56, 64
1, 220142, Note_on_c, 0, 56, 20
1, 220254, Note_off_c, 0, 56, 64
1, 220526, Note_on_c, 0, 56, 18
1, 220606, Note_off_c, 0, 56, 64
1, 220856, Note_on_c, 0, 70, 27
1, 220882, Note_on_c, 0, 56, 24
1, 220884, Note_off_c, 0, 68, 64
1, 220968, Note_off_c, 0, 56, 64
1, 221108, Note_off_c, 0, 65, 64
1, 221130, Note_off_c, 0, 61, 64
1, 221288, Note_on_c, 0, 56, 17
1, 221368, Note_off_c, 0, 56, 64
1, 221754, Note_on_c, 0, 72, 33
1, 221756, Note_on_c, 0, 66, 14
1, 221766, Control_c, 0, 64, 0
1, 221768, Note_on_c, 0, 63, 20
1, 221884, Note_off_c, 0, 70, 64
1, 222090, Control_c, 0, 64, 127
1, 222188, Note_on_c, 0, 56, 18
1, 222244, Note_off_c, 0, 63, 64
1, 222278, Note_off_c, 0, 66, 64
1, 222312, Note_off_c, 0, 56, 64
1, 222612, Note_on_c, 0, 56, 22
1, 222778, Note_off_c, 0, 56, 64
1, 222986, Note_on_c, 0, 56, 12
1, 223164, Note_off_c, 0, 56, 64
1, 223428, Note_on_c, 0, 58, 9
1, 224158, Note_on_c, 0, 56, 9
1, 224166, Note_off_c, 0, 58, 64
1, 224444, Note_off_c, 0, 72, 64
1, 225338, Note_on_c, 0, 82, 67
1, 225462, Note_off_c, 0, 56, 64
1, 225992, Control_c, 0, 64, 0
1, 226438, Control_c, 0, 64, 127
1, 227452, Note_on_c, 0, 80, 62
1, 227756, Note_off_c, 0, 82, 64
1, 227928, Control_c, 0, 64, 0
1, 228082, Control_c, 0, 64, 127
1, 228264, Note_on_c, 0, 78, 67
1, 228508, Note_off_c, 0, 80, 64
1, 228588, Control_c, 0, 64, 0
1, 228758, Control_c, 0, 64, 127
1, 228904, Note_on_c, 0, 72, 69
1, 229118, Note_off_c, 0, 78, 64
1, 229172, Control_c, 0, 64, 0
1, 229372, Control_c, 0, 64, 127
1, 229476, Note_on_c, 0, 77, 64
1, 229616, Note_off_c, 0, 72, 64
1, 229650, Control_c, 0, 64, 0
1, 229926, Control_c, 0, 64, 127
1, 230086, Note_on_c, 0, 75, 50
1, 230258, Note_off_c, 0, 77, 64
1, 230324, Control_c, 0, 64, 0
1, 230540, Control_c, 0, 64, 127
1, 230640, Note_on_c, 0, 73, 34
1, 230714, Note_off_c, 0, 75, 64
1, 230848, Control_c, 0, 64, 0
1, 231078, Control_c, 0, 64, 127
1, 231388, Note_on_c, 0, 70, 20
1, 231398, Note_off_c, 0, 73, 64
1, 231432, Control_c, 0, 64, 0
1, 231662, Control_c, 0, 64, 127
1, 231804, Note_off_c, 0, 70, 64
1, 232276, Note_on_c, 0, 66, 22
1, 232290, Note_on_c, 0, 58, 7
1, 232293, Note_on_c, 0, 63, 29
1, 232312, Note_on_c, 0, 44, 22
1, 232842, Note_on_c, 0, 56, 27
1, 232946, Note_off_c, 0, 56, 64
1, 233212, Note_on_c, 0, 56, 21
1, 233298, Note_off_c, 0, 56, 64
1, 233508, Note_on_c, 0, 56, 20
1, 233586, Note_off_c, 0, 56, 64
1, 233782, Note_on_c, 0, 60, 39
1, 233796, Note_on_c, 0, 56, 17
1, 233856, Note_off_c, 0, 58, 64
1, 233886, Note_off_c, 0, 56, 64
1, 234096, Note_on_c, 0, 56, 18
1, 234182, Note_off_c, 0, 56, 64
1, 234424, Note_on_c, 0, 56, 22
1, 234504, Note_off_c, 0, 56, 64
1, 234758, Note_on_c, 0, 56, 20
1, 234838, Note_off_c, 0, 56, 64
1, 234892, Note_off_c, 0, 44, 64
1, 234922, Note_off_c, 0, 63, 64
1, 235164, Note_on_c, 0, 61, 34
1, 235167, Note_on_c, 0, 65, 30
1, 235196, Control_c, 0, 64, 0
1, 235208, Note_on_c, 0, 49, 19
1, 235226, Note_on_c, 0, 56, 12
1, 235280, Note_off_c, 0, 60, 64
1, 235396, Note_off_c, 0, 66, 64
1, 235444, Note_off_c, 0, 56, 64
1, 235504, Control_c, 0, 64, 127
1, 235674, Note_on_c, 0, 56, 25
1, 235784, Note_off_c, 0, 56, 64
1, 236056, Note_on_c, 0, 56, 17
1, 236162, Note_off_c, 0, 56, 64
1, 236382, Note_on_c, 0, 56, 20
1, 236482, Note_off_c, 0, 56, 64
1, 236736, Note_on_c, 0, 56, 17
1, 236810, Note_off_c, 0, 61, 64
1, 236866, Note_off_c, 0, 56, 64
1, 237062, Note_on_c, 0, 61, 50
1, 237102, Note_on_c, 0, 56, 13
1, 237198, Note_off_c, 0, 56, 64
1, 237428, Note_on_c, 0, 56, 26
1, 237434, Note_on_c, 0, 63, 56
1, 237436, Note_off_c, 0, 61, 64
1, 237538, Note_off_c, 0, 56, 64
1, 237926, Note_on_c, 0, 56, 27
1, 237988, Note_off_c, 0, 63, 64
1, 238016, Note_off_c, 0, 56, 64
1, 238070, Note_on_c, 0, 61, 54
1, 238122, Note_off_c, 0, 61, 64
1, 238198, Note_off_c, 0, 49, 64
1, 238238, Control_c, 0, 64, 0
1, 238248, Note_on_c, 0, 61, 52
1, 238248, Note_on_c, 0, 63, 49
1, 238264, Note_on_c, 0, 66, 37
1, 238282, Note_on_c, 0, 44, 19
1, 238284, Note_on_c, 0, 56, 16
1, 238300, Note_off_c, 0, 65, 64
1, 238434, Note_off_c, 0, 56, 64
1, 238514, Control_c, 0, 64, 127
1, 238624, Note_on_c, 0, 56, 27
1, 238728, Note_off_c, 0, 56, 64
1, 238944, Note_on_c, 0, 60, 66
1, 238960, Note_on_c, 0, 56, 28
1, 239056, Note_off_c, 0, 56, 64
1, 239078, Note_off_c, 0, 61, 64
1, 239272, Note_on_c, 0, 56, 26
1, 239368, Note_off_c, 0, 56, 64
1, 239712, Control_c, 0, 64, 0
1, 239717, Note_on_c, 0, 70, 45
1, 239748, Note_on_c, 0, 56, 26
1, 239850, Note_off_c, 0, 60, 64
1, 239928, Control_c, 0, 64, 127
1, 239932, Note_off_c, 0, 56, 64
1, 240174, Note_on_c, 0, 56, 29
1, 240300, Note_off_c, 0, 56, 64
1, 240550, Note_on_c, 0, 60, 59
1, 240564, Note_on_c, 0, 56, 26
1, 240670, Note_off_c, 0, 56, 64
1, 240808, Note_off_c, 0, 44, 64
1, 240842, Note_off_c, 0, 66, 64
1, 240858, Note_off_c, 0, 60, 64
1, 240860, Note_off_c, 0, 70, 64
1, 240870, Note_off_c, 0, 63, 64
1, 240888, Note_on_c, 0, 56, 26
1, 240986, Note_off_c, 0, 56, 64
1, 241310, Note_on_c, 0, 66, 49
1, 241316, Note_on_c, 0, 63, 51
1, 241320, Note_on_c, 0, 60, 56
1, 241322, Note_on_c, 0, 56, 38
1, 241334, Note_on_c, 0, 44, 38
1, 241464, Control_c, 0, 64, 0
1, 241588, Note_off_c, 0, 56, 64
1, 241650, Control_c, 0, 64, 127
1, 241866, Note_on_c, 0, 56, 23
1, 241974, Note_off_c, 0, 56, 64
1, 242282, Note_on_c, 0, 56, 19
1, 242378, Note_off_c, 0, 56, 64
1, 242644, Note_on_c, 0, 56, 17
1, 242740, Note_off_c, 0, 56, 64
1, 242986, Note_on_c, 0, 56, 16
1, 243094, Note_off_c, 0, 56, 64
1, 243326, Note_on_c, 0, 56, 17
1, 243436, Note_off_c, 0, 56, 64
1, 243684, Note_on_c, 0, 56, 16
1, 243806, Note_off_c, 0, 56, 64
1, 244048, Note_on_c, 0, 56, 14
1, 244152, Note_off_c, 0, 56, 64
1, 244155, Note_off_c, 0, 60, 64
1, 244198, Note_off_c, 0, 63, 64
1, 244284, Note_off_c, 0, 44, 64
1, 244498, Note_on_c, 0, 56, 12
1, 244501, Note_on_c, 0, 61, 27
1, 244508, Control_c, 0, 64, 0
1, 244508, Note_on_c, 0, 65, 36
1, 244514, Note_off_c, 0, 66, 64
1, 244520, Note_on_c, 0, 49, 16
1, 244798, Control_c, 0, 64, 127
1, 244808, Note_off_c, 0, 56, 64
1, 245034, Note_on_c, 0, 56, 28
1, 245152, Note_off_c, 0, 56, 64
1, 245468, Note_on_c, 0, 56, 22
1, 245586, Note_off_c, 0, 56, 64
1, 245872, Note_on_c, 0, 56, 20
1, 246012, Note_off_c, 0, 56, 64
1, 246334, Note_on_c, 0, 56, 15
1, 246340, Note_on_c, 0, 44, 24
1, 246482, Note_off_c, 0, 56, 64
1, 246492, Note_off_c, 0, 49, 64
1, 246804, Note_on_c, 0, 56, 15
1, 246980, Note_off_c, 0, 56, 64
1, 247364, Note_on_c, 0, 56, 14
1, 247556, Note_off_c, 0, 56, 64
1, 248090, Note_on_c, 0, 56, 5
1, 248438, Note_off_c, 0, 56, 64
1, 248494, Note_off_c, 0, 61, 64
1, 248668, Note_off_c, 0, 65, 64
1, 249182, Note_off_c, 0, 44, 64
1, 250012, Note_on_c, 0, 61, 15
1, 250016, Note_on_c, 0, 56, 13
1, 250022, Note_on_c, 0, 37, 18
1, 250022, Note_on_c, 0, 65, 19
1, 255360, Control_c, 0, 64, 0
1, 255360, End_track
0, 0, End_of_file
