0, 0, Header, 0, 1, 480
1, 0, Start_track
1, 0, SMPTE_offset, 96, 0, 0, 0, 0
1, 0, Time_signature, 4, 2, 24, 8
1, 0, Key_signature, 0, "major"
1, 0, Tempo, 500000
1, 0, Note_on_c, 0, 68, 43
1, 374, Note_off_c, 0, 68, 64
1, 377, Note_on_c, 0, 67, 27
1, 468, Note_on_c, 0, 68, 32
1, 516, Note_off_c, 0, 67, 64
1, 604, Note_on_c, 0, 72, 44
1, 612, Note_off_c, 0, 68, 64
1, 704, Note_on_c, 0, 70, 45
1, 740, Note_off_c, 0, 72, 64
1, 814, Note_on_c, 0, 67, 54
1, 816, Note_off_c, 0, 70, 64
1, 918, Note_on_c, 0, 68, 44
1, 922, Note_off_c, 0, 67, 64
1, 1008, Note_on_c, 0, 70, 47
1, 1011, Note_off_c, 0, 68, 64
1, 1092, Note_off_c, 0, 70, 64
1, 1100, Note_on_c, 0, 68, 49
1, 1230, Note_off_c, 0, 68, 64
1, 1232, Note_on_c, 0, 72, 47
1, 1318, Note_off_c, 0, 72, 64
1, 1318, Note_on_c, 0, 70, 45
1, 1436, Note_off_c, 0, 70, 64
1, 1436, Note_on_c, 0, 67, 50
1, 1518, Note_off_c, 0, 67, 64
1, 1530, Note_on_c, 0, 68, 40
1, 1638, Note_off_c, 0, 68, 64
1, 1638, Note_on_c, 0, 72, 38
1, 1730, Note_off_c, 0, 72, 64
1, 1730, Note_on_c, 0, 70, 36
1, 1823, Note_off_c, 0, 70, 64
1, 1832, Note_on_c, 0, 67, 26
1, 1908, Note_on_c, 0, 68, 46
1, 1912, Note_off_c, 0, 67, 64
1, 2028, Note_on_c, 0, 72, 35
1, 2032, Note_off_c, 0, 68, 64
1, 2104, Note_off_c, 0, 72, 64
1, 2112, Note_on_c, 0, 70, 32
1, 2220, Note_off_c, 0, 70, 64
1, 2220, Note_on_c, 0, 67, 35
1, 2324, Note_on_c, 0, 68, 33
1, 2326, Note_off_c, 0, 67, 64
1, 2420, Note_off_c, 0, 68, 64
1, 2452, Note_on_c, 0, 72, 32
1, 2596, Note_on_c, 0, 70, 33
1, 2598, Note_off_c, 0, 72, 64
1, 2696, Note_on_c, 0, 49, 30
1, 2722, Note_on_c, 0, 67, 26
1, 2728, Note_off_c, 0, 70, 64
1, 2750, Control_c, 0, 64, 127
1, 2754, Note_off_c, 0, 49, 64
1, 2802, Note_on_c, 0, 68, 38
1, 2828, Note_off_c, 0, 67, 64
1, 2898, Note_off_c, 0, 68, 64
1, 2904, Control_c, 0, 64, 0
1, 2936, Note_on_c, 0, 72, 33
1, 2940, Note_on_c, 0, 65, 21
1, 2942, Note_on_c, 0, 61, 11
1, 2944, Note_on_c, 0, 56, 42
1, 3004, Note_off_c, 0, 61, 64
1, 3016, Note_off_c, 0, 65, 64
1, 3016, Note_off_c, 0, 56, 64
1, 3024, Note_off_c, 0, 72, 64
1, 3039, Note_on_c, 0, 70, 35
1, 3132, Note_off_c, 0, 70, 64
1, 3156, Note_on_c, 0, 67, 36
1, 3162, Note_on_c, 0, 61, 27
1, 3162, Note_on_c, 0, 65, 34
1, 3165, Note_on_c, 0, 56, 41
1, 3222, Note_off_c, 0, 65, 64
1, 3232, Note_off_c, 0, 56, 64
1, 3240, Note_off_c, 0, 61, 64
1, 3252, Note_on_c, 0, 68, 41
1, 3256, Note_off_c, 0, 67, 64
1, 3344, Note_off_c, 0, 68, 64
1, 3376, Note_on_c, 0, 72, 41
1, 3388, Note_on_c, 0, 53, 84
1, 3440, Note_off_c, 0, 53, 64
1, 3470, Note_off_c, 0, 72, 64
1, 3482, Note_on_c, 0, 70, 40
1, 3564, Note_off_c, 0, 70, 64
1, 3578, Note_on_c, 0, 56, 56
1, 3580, Note_on_c, 0, 61, 43
1, 3581, Note_on_c, 0, 65, 45
1, 3581, Note_on_c, 0, 67, 47
1, 3638, Note_off_c, 0, 65, 64
1, 3642, Note_off_c, 0, 61, 64
1, 3654, Note_off_c, 0, 56, 64
1, 3688, Note_on_c, 0, 68, 44
1, 3690, Note_off_c, 0, 67, 64
1, 3790, Note_off_c, 0, 68, 64
1, 3796, Note_on_c, 0, 56, 52
1, 3802, Note_on_c, 0, 72, 58
1, 3814, Note_on_c, 0, 65, 23
1, 3860, Note_off_c, 0, 56, 64
1, 3880, Note_off_c, 0, 65, 64
1, 3906, Note_on_c, 0, 70, 55
1, 3940, Note_off_c, 0, 72, 64
1, 4000, Note_on_c, 0, 49, 68
1, 4012, Note_on_c, 0, 67, 64
1, 4036, Note_off_c, 0, 70, 64
1, 4044, Note_off_c, 0, 49, 64
1, 4072, Control_c, 0, 64, 127
1, 4104, Note_on_c, 0, 68, 66
1, 4132, Control_c, 0, 64, 0
1, 4140, Note_off_c, 0, 67, 64
1, 4198, Note_on_c, 0, 56, 54
1, 4204, Note_on_c, 0, 72, 67
1, 4207, Note_on_c, 0, 65, 36
1, 4234, Note_off_c, 0, 68, 64
1, 4257, Note_off_c, 0, 56, 64
1, 4272, Note_off_c, 0, 65, 64
1, 4300, Note_on_c, 0, 70, 62
1, 4330, Note_off_c, 0, 72, 64
1, 4396, Note_on_c, 0, 67, 72
1, 4398, Note_on_c, 0, 65, 31
1, 4406, Note_on_c, 0, 61, 46
1, 4409, Note_on_c, 0, 56, 38
1, 4424, Note_off_c, 0, 70, 64
1, 4456, Note_off_c, 0, 65, 64
1, 4464, Note_off_c, 0, 61, 64
1, 4472, Note_off_c, 0, 56, 64
1, 4484, Note_off_c, 0, 67, 64
1, 4492, Note_on_c, 0, 68, 64
1, 4590, Note_on_c, 0, 70, 73
1, 4604, Note_on_c, 0, 53, 72
1, 4620, Note_off_c, 0, 68, 64
1, 4624, Control_c, 0, 64, 127
1, 4648, Note_off_c, 0, 53, 64
1, 4680, Note_off_c, 0, 70, 64
1, 4686, Control_c, 0, 64, 0
1, 4696, Note_on_c, 0, 72, 72
1, 4772, Note_on_c, 0, 56, 52
1, 4774, Note_on_c, 0, 61, 35
1, 4775, Note_on_c, 0, 65, 44
1, 4778, Note_off_c, 0, 72, 64
1, 4790, Note_on_c, 0, 73, 73
1, 4828, Note_off_c, 0, 65, 64
1, 4836, Note_off_c, 0, 61, 64
1, 4840, Note_off_c, 0, 56, 64
1, 4882, Note_on_c, 0, 75, 81
1, 4900, Note_off_c, 0, 73, 64
1, 4980, Note_off_c, 0, 75, 64
1, 4983, Note_on_c, 0, 77, 88
1, 4995, Note_on_c, 0, 56, 53
1, 4996, Note_on_c, 0, 61, 35
1, 4998, Note_on_c, 0, 65, 20
1, 5050, Note_off_c, 0, 56, 64
1, 5062, Note_off_c, 0, 61, 64
1, 5062, Note_off_c, 0, 65, 64
1, 5080, Note_on_c, 0, 78, 84
1, 5110, Note_off_c, 0, 77, 64
1, 5204, Note_on_c, 0, 82, 86
1, 5207, Note_off_c, 0, 78, 64
1, 5210, Note_on_c, 0, 44, 79
1, 5258, Note_off_c, 0, 44, 64
1, 5346, Control_c, 0, 64, 127
1, 5414, Note_on_c, 0, 56, 45
1, 5418, Note_on_c, 0, 66, 56
1, 5420, Note_on_c, 0, 60, 33
1, 5470, Note_off_c, 0, 66, 64
1, 5478, Note_off_c, 0, 56, 64
1, 5486, Note_off_c, 0, 60, 64
1, 5524, Note_on_c, 0, 80, 73
1, 5546, Control_c, 0, 64, 0
1, 5560, Note_off_c, 0, 82, 64
1, 5616, Note_on_c, 0, 66, 49
1, 5620, Note_on_c, 0, 60, 45
1, 5622, Note_on_c, 0, 78, 75
1, 5626, Note_on_c, 0, 56, 34
1, 5654, Note_off_c, 0, 80, 64
1, 5664, Note_off_c, 0, 66, 64
1, 5683, Note_off_c, 0, 60, 64
1, 5688, Note_off_c, 0, 56, 64
1, 5698, Note_on_c, 0, 77, 67
1, 5722, Note_off_c, 0, 78, 64
1, 5734, Note_off_c, 0, 77, 64
1, 5802, Note_on_c, 0, 77, 61
1, 5804, Note_on_c, 0, 51, 65
1, 5852, Note_off_c, 0, 51, 64
1, 5868, Note_on_c, 0, 75, 64
1, 5880, Note_off_c, 0, 77, 64
1, 5920, Note_off_c, 0, 75, 64
1, 5952, Note_on_c, 0, 77, 76
1, 5974, Note_on_c, 0, 66, 52
1, 5980, Note_on_c, 0, 56, 49
1, 5984, Note_on_c, 0, 60, 17
1, 6000, Note_on_c, 0, 75, 55
1, 6028, Note_off_c, 0, 66, 64
1, 6040, Note_off_c, 0, 56, 64
1, 6048, Note_off_c, 0, 77, 64
1, 6052, Note_off_c, 0, 60, 64
1, 6095, Note_on_c, 0, 74, 64
1, 6114, Note_off_c, 0, 75, 64
1, 6188, Note_on_c, 0, 75, 64
1, 6191, Note_on_c, 0, 66, 51
1, 6200, Note_on_c, 0, 60, 27
1, 6204, Note_on_c, 0, 56, 48
1, 6208, Note_off_c, 0, 74, 64
1, 6236, Note_off_c, 0, 66, 64
1, 6262, Note_off_c, 0, 60, 64
1, 6272, Note_off_c, 0, 56, 64
1, 6434, Note_on_c, 0, 82, 72
1, 6440, Note_on_c, 0, 44, 65
1, 6454, Note_off_c, 0, 75, 64
1, 6490, Note_off_c, 0, 44, 64
1, 6560, Control_c, 0, 64, 127
1, 6686, Note_on_c, 0, 66, 37
1, 6690, Note_on_c, 0, 60, 23
1, 6750, Note_off_c, 0, 66, 64
1, 6764, Note_off_c, 0, 60, 64
1, 6780, Note_off_c, 0, 82, 64
1, 6796, Note_on_c, 0, 80, 60
1, 6900, Note_on_c, 0, 60, 16
1, 6908, Note_on_c, 0, 78, 59
1, 6910, Note_on_c, 0, 66, 34
1, 6934, Note_off_c, 0, 80, 64
1, 6974, Note_off_c, 0, 66, 64
1, 6994, Note_off_c, 0, 60, 64
1, 7012, Note_on_c, 0, 77, 58
1, 7013, Note_off_c, 0, 78, 64
1, 7054, Note_off_c, 0, 77, 64
1, 7068, Control_c, 0, 64, 0
1, 7134, Note_on_c, 0, 77, 47
1, 7144, Note_on_c, 0, 56, 37
1, 7214, Note_off_c, 0, 77, 64
1, 7217, Note_on_c, 0, 75, 56
1, 7236, Note_off_c, 0, 56, 64
1, 7278, Note_off_c, 0, 75, 64
1, 7294, Note_on_c, 0, 77, 60
1, 7358, Note_on_c, 0, 75, 56
1, 7382, Note_on_c, 0, 66, 22
1, 7386, Note_on_c, 0, 60, 37
1, 7398, Note_off_c, 0, 77, 64
1, 7446, Note_on_c, 0, 74, 55
1, 7456, Note_off_c, 0, 75, 64
1, 7456, Note_off_c, 0, 66, 64
1, 7456, Note_off_c, 0, 60, 64
1, 7513, Note_off_c, 0, 74, 64
1, 7522, Note_on_c, 0, 75, 65
1, 7622, Note_on_c, 0, 66, 37
1, 7624, Note_on_c, 0, 60, 38
1, 7638, Note_off_c, 0, 75, 64
1, 7646, Note_on_c, 0, 77, 55
1, 7674, Note_off_c, 0, 66, 64
1, 7690, Note_off_c, 0, 60, 64
1, 7756, Note_on_c, 0, 70, 44
1, 7772, Note_off_c, 0, 77, 64
1, 7826, Note_off_c, 0, 70, 64
1, 7836, Note_on_c, 0, 49, 55
1, 7852, Note_on_c, 0, 67, 55
1, 7884, Note_off_c, 0, 49, 64
1, 7896, Control_c, 0, 64, 127
1, 7946, Note_on_c, 0, 68, 61
1, 7952, Note_off_c, 0, 67, 64
1, 8020, Control_c, 0, 64, 0
1, 8038, Note_off_c, 0, 68, 64
1, 8048, Note_on_c, 0, 72, 57
1, 8048, Note_on_c, 0, 56, 42
1, 8054, Note_on_c, 0, 65, 37
1, 8054, Note_on_c, 0, 61, 32
1, 8106, Note_off_c, 0, 56, 64
1, 8110, Note_off_c, 0, 65, 64
1, 8120, Note_off_c, 0, 61, 64
1, 8138, Note_on_c, 0, 70, 60
1, 8174, Note_off_c, 0, 72, 64
1, 8240, Note_on_c, 0, 67, 67
1, 8258, Note_off_c, 0, 70, 64
1, 8261, Note_on_c, 0, 61, 37
1, 8264, Note_on_c, 0, 56, 40
1, 8322, Note_off_c, 0, 61, 64
1, 8322, Note_off_c, 0, 56, 64
1, 8346, Note_on_c, 0, 68, 60
1, 8354, Note_off_c, 0, 67, 64
1, 8442, Note_off_c, 0, 68, 64
1, 8462, Note_on_c, 0, 72, 61
1, 8474, Note_on_c, 0, 53, 60
1, 8526, Note_off_c, 0, 53, 64
1, 8562, Note_on_c, 0, 70, 47
1, 8568, Note_off_c, 0, 72, 64
1, 8642, Note_off_c, 0, 70, 64
1, 8652, Note_on_c, 0, 67, 59
1, 8658, Note_on_c, 0, 65, 45
1, 8662, Note_on_c, 0, 56, 44
1, 8662, Note_on_c, 0, 61, 47
1, 8712, Note_off_c, 0, 65, 64
1, 8724, Note_off_c, 0, 56, 64
1, 8724, Note_off_c, 0, 61, 64
1, 8758, Note_on_c, 0, 68, 60
1, 8768, Note_off_c, 0, 67, 64
1, 8850, Note_off_c, 0, 68, 64
1, 8864, Note_on_c, 0, 72, 59
1, 8872, Note_on_c, 0, 65, 33
1, 8884, Note_on_c, 0, 56, 40
1, 8894, Note_on_c, 0, 61, 16
1, 8940, Note_off_c, 0, 65, 64
1, 8943, Note_off_c, 0, 56, 64
1, 8950, Note_off_c, 0, 61, 64
1, 8960, Note_on_c, 0, 70, 54
1, 8994, Note_off_c, 0, 72, 64
1, 9052, Note_on_c, 0, 49, 61
1, 9054, Note_on_c, 0, 67, 65
1, 9064, Note_off_c, 0, 70, 64
1, 9100, Note_off_c, 0, 49, 64
1, 9110, Control_c, 0, 64, 127
1, 9148, Note_on_c, 0, 68, 64
1, 9182, Note_off_c, 0, 67, 64
1, 9244, Note_on_c, 0, 72, 63
1, 9250, Note_on_c, 0, 56, 43
1, 9252, Note_on_c, 0, 65, 39
1, 9256, Note_off_c, 0, 68, 64
1, 9296, Control_c, 0, 64, 0
1, 9308, Note_off_c, 0, 56, 64
1, 9308, Note_off_c, 0, 65, 64
1, 9324, Note_on_c, 0, 70, 60
1, 9378, Note_off_c, 0, 72, 64
1, 9416, Note_on_c, 0, 67, 70
1, 9432, Note_on_c, 0, 61, 50
1, 9442, Note_off_c, 0, 70, 64
1, 9448, Note_on_c, 0, 56, 42
1, 9452, Note_on_c, 0, 65, 34
1, 9496, Note_off_c, 0, 61, 64
1, 9500, Note_off_c, 0, 67, 64
1, 9506, Note_off_c, 0, 56, 64
1, 9510, Note_off_c, 0, 65, 64
1, 9522, Note_on_c, 0, 68, 65
1, 9612, Note_on_c, 0, 70, 76
1, 9626, Note_on_c, 0, 53, 56
1, 9628, Note_off_c, 0, 68, 64
1, 9680, Note_off_c, 0, 53, 64
1, 9710, Note_on_c, 0, 72, 76
1, 9720, Note_off_c, 0, 70, 64
1, 9804, Note_off_c, 0, 72, 64
1, 9806, Note_on_c, 0, 56, 47
1, 9809, Note_on_c, 0, 73, 77
1, 9809, Note_on_c, 0, 65, 41
1, 9812, Note_on_c, 0, 61, 37
1, 9864, Note_off_c, 0, 65, 64
1, 9867, Note_off_c, 0, 56, 64
1, 9874, Note_off_c, 0, 61, 64
1, 9902, Note_on_c, 0, 75, 77
1, 9932, Note_off_c, 0, 73, 64
1, 9992, Note_on_c, 0, 77, 84
1, 9994, Note_off_c, 0, 75, 64
1, 10010, Note_on_c, 0, 61, 38
1, 10016, Note_on_c, 0, 56, 52
1, 10048, Note_off_c, 0, 77, 64
1, 10066, Note_off_c, 0, 56, 64
1, 10070, Note_off_c, 0, 61, 64
1, 10090, Note_on_c, 0, 78, 81
1, 10194, Note_on_c, 0, 44, 76
1, 10196, Note_on_c, 0, 82, 82
1, 10202, Note_off_c, 0, 78, 64
1, 10236, Note_off_c, 0, 44, 64
1, 10324, Control_c, 0, 64, 127
1, 10416, Note_on_c, 0, 66, 45
1, 10420, Note_on_c, 0, 60, 29
1, 10424, Note_on_c, 0, 56, 46
1, 10474, Note_off_c, 0, 66, 64
1, 10486, Note_off_c, 0, 60, 64
1, 10486, Note_off_c, 0, 56, 64
1, 10524, Note_on_c, 0, 80, 73
1, 10562, Note_off_c, 0, 82, 64
1, 10630, Note_on_c, 0, 66, 46
1, 10632, Note_on_c, 0, 60, 17
1, 10634, Note_on_c, 0, 78, 68
1, 10637, Note_on_c, 0, 56, 25
1, 10664, Note_off_c, 0, 80, 64
1, 10682, Note_off_c, 0, 66, 64
1, 10706, Note_off_c, 0, 60, 64
1, 10708, Note_off_c, 0, 56, 64
1, 10710, Note_off_c, 0, 78, 64
1, 10713, Note_on_c, 0, 77, 69
1, 10738, Control_c, 0, 64, 0
1, 10750, Note_off_c, 0, 77, 64
1, 10820, Note_on_c, 0, 77, 59
1, 10834, Note_on_c, 0, 51, 56
1, 10874, Note_off_c, 0, 77, 64
1, 10884, Note_off_c, 0, 51, 64
1, 10892, Note_on_c, 0, 75, 58
1, 10940, Note_off_c, 0, 75, 64
1, 10950, Note_on_c, 0, 77, 68
1, 11010, Note_on_c, 0, 66, 36
1, 11024, Note_on_c, 0, 75, 44
1, 11027, Note_on_c, 0, 56, 34
1, 11060, Note_off_c, 0, 77, 64
1, 11076, Note_off_c, 0, 66, 64
1, 11090, Note_off_c, 0, 56, 64
1, 11106, Note_off_c, 0, 75, 64
1, 11120, Note_on_c, 0, 74, 51
1, 11188, Note_off_c, 0, 74, 64
1, 11230, Note_on_c, 0, 75, 54
1, 11230, Note_on_c, 0, 66, 32
1, 11232, Note_on_c, 0, 60, 22
1, 11236, Note_on_c, 0, 56, 11
1, 11294, Note_off_c, 0, 56, 64
1, 11302, Note_off_c, 0, 60, 64
1, 11304, Note_off_c, 0, 66, 64
1, 11442, Note_on_c, 0, 82, 52
1, 11458, Note_off_c, 0, 75, 64
1, 11458, Note_on_c, 0, 44, 52
1, 11510, Note_off_c, 0, 44, 64
1, 11554, Control_c, 0, 64, 127
1, 11704, Note_on_c, 0, 66, 28
1, 11712, Note_on_c, 0, 60, 12
1, 11770, Note_off_c, 0, 66, 64
1, 11780, Note_off_c, 0, 60, 64
1, 11802, Note_on_c, 0, 80, 56
1, 11812, Note_off_c, 0, 82, 64
1, 11896, Note_off_c, 0, 80, 64
1, 11896, Note_on_c, 0, 66, 15
1, 11906, Note_on_c, 0, 60, 36
1, 11920, Note_on_c, 0, 78, 51
1, 11972, Note_off_c, 0, 60, 64
1, 11972, Note_off_c, 0, 78, 64
1, 11975, Note_off_c, 0, 66, 64
1, 12012, Note_on_c, 0, 77, 54
1, 12062, Note_off_c, 0, 77, 64
1, 12062, Control_c, 0, 64, 0
1, 12120, Note_on_c, 0, 75, 47
1, 12134, Note_on_c, 0, 56, 29
1, 12172, Note_off_c, 0, 75, 64
1, 12194, Note_on_c, 0, 77, 61
1, 12202, Note_off_c, 0, 56, 64
1, 12230, Note_on_c, 0, 75, 64
1, 12236, Note_off_c, 0, 77, 64
1, 12310, Note_off_c, 0, 75, 64
1, 12318, Note_on_c, 0, 77, 50
1, 12342, Note_on_c, 0, 66, 32
1, 12354, Note_on_c, 0, 60, 31
1, 12392, Note_on_c, 0, 75, 55
1, 12400, Note_off_c, 0, 66, 64
1, 12418, Note_off_c, 0, 77, 64
1, 12428, Note_off_c, 0, 60, 64
1, 12494, Note_on_c, 0, 74, 47
1, 12500, Note_off_c, 0, 75, 64
1, 12572, Note_off_c, 0, 74, 64
1, 12586, Note_on_c, 0, 75, 51
1, 12589, Note_on_c, 0, 44, 55
1, 12650, Note_off_c, 0, 44, 64
1, 12730, Note_off_c, 0, 75, 64
1, 12733, Note_on_c, 0, 76, 58
1, 12814, Note_on_c, 0, 45, 52
1, 12816, Note_off_c, 0, 76, 64
1, 12866, Note_off_c, 0, 45, 64
1, 12882, Note_on_c, 0, 77, 60
1, 12906, Control_c, 0, 64, 127
1, 12984, Note_off_c, 0, 77, 64
1, 13000, Note_on_c, 0, 78, 52
1, 13066, Note_on_c, 0, 77, 59
1, 13092, Note_on_c, 0, 63, 46
1, 13096, Note_on_c, 0, 60, 28
1, 13098, Note_on_c, 0, 53, 42
1, 13112, Note_off_c, 0, 78, 64
1, 13118, Note_off_c, 0, 77, 64
1, 13138, Note_on_c, 0, 76, 53
1, 13144, Note_off_c, 0, 63, 64
1, 13158, Note_off_c, 0, 53, 64
1, 13170, Note_off_c, 0, 60, 64
1, 13234, Note_on_c, 0, 77, 56
1, 13244, Note_off_c, 0, 76, 64
1, 13290, Control_c, 0, 64, 0
1, 13295, Note_on_c, 0, 60, 20
1, 13314, Note_on_c, 0, 53, 46
1, 13314, Note_on_c, 0, 80, 67
1, 13332, Note_off_c, 0, 77, 64
1, 13362, Note_off_c, 0, 53, 64
1, 13368, Note_off_c, 0, 60, 64
1, 13418, Note_on_c, 0, 78, 67
1, 13464, Note_off_c, 0, 80, 64
1, 13490, Note_on_c, 0, 46, 65
1, 13524, Note_on_c, 0, 77, 71
1, 13534, Note_off_c, 0, 78, 64
1, 13540, Note_off_c, 0, 46, 64
1, 13582, Control_c, 0, 64, 127
1, 13606, Note_off_c, 0, 77, 64
1, 13616, Note_on_c, 0, 78, 57
1, 13680, Note_on_c, 0, 61, 54
1, 13684, Note_on_c, 0, 53, 72
1, 13716, Note_on_c, 0, 77, 63
1, 13744, Note_off_c, 0, 61, 64
1, 13744, Note_off_c, 0, 53, 64
1, 13747, Note_off_c, 0, 78, 64
1, 13772, Note_off_c, 0, 77, 64
1, 13798, Control_c, 0, 64, 0
1, 13798, Note_on_c, 0, 76, 55
1, 13872, Note_on_c, 0, 61, 50
1, 13884, Note_on_c, 0, 53, 37
1, 13894, Note_on_c, 0, 77, 74
1, 13904, Note_off_c, 0, 76, 64
1, 13930, Note_off_c, 0, 61, 64
1, 13942, Note_off_c, 0, 77, 64
1, 13946, Note_off_c, 0, 53, 64
1, 13970, Note_on_c, 0, 82, 66
1, 14030, Note_off_c, 0, 82, 64
1, 14060, Note_on_c, 0, 48, 53
1, 14074, Note_on_c, 0, 80, 84
1, 14112, Note_off_c, 0, 48, 64
1, 14132, Note_off_c, 0, 80, 64
1, 14136, Control_c, 0, 64, 127
1, 14140, Note_on_c, 0, 82, 55
1, 14204, Note_on_c, 0, 80, 78
1, 14264, Note_on_c, 0, 66, 44
1, 14274, Note_off_c, 0, 82, 64
1, 14274, Note_on_c, 0, 56, 44
1, 14280, Note_on_c, 0, 79, 91
1, 14284, Note_on_c, 0, 63, 43
1, 14304, Control_c, 0, 64, 0
1, 14310, Note_off_c, 0, 80, 64
1, 14324, Note_off_c, 0, 66, 64
1, 14336, Note_off_c, 0, 56, 64
1, 14336, Note_off_c, 0, 63, 64
1, 14362, Note_on_c, 0, 80, 86
1, 14406, Note_off_c, 0, 79, 64
1, 14454, Note_on_c, 0, 56, 31
1, 14456, Note_on_c, 0, 66, 45
1, 14462, Note_on_c, 0, 84, 89
1, 14488, Note_off_c, 0, 80, 64
1, 14506, Note_off_c, 0, 66, 64
1, 14516, Note_off_c, 0, 56, 64
1, 14558, Note_on_c, 0, 82, 73
1, 14600, Note_off_c, 0, 84, 64
1, 14640, Note_on_c, 0, 49, 62
1, 14652, Note_on_c, 0, 80, 78
1, 14684, Note_off_c, 0, 49, 64
1, 14687, Note_off_c, 0, 82, 64
1, 14687, Control_c, 0, 64, 127
1, 14736, Note_on_c, 0, 82, 81
1, 14770, Note_off_c, 0, 80, 64
1, 14826, Note_on_c, 0, 80, 80
1, 14842, Note_on_c, 0, 56, 39
1, 14852, Note_on_c, 0, 61, 38
1, 14858, Note_on_c, 0, 65, 29
1, 14878, Note_off_c, 0, 82, 64
1, 14902, Note_on_c, 0, 79, 81
1, 14920, Note_off_c, 0, 61, 64
1, 14920, Control_c, 0, 64, 0
1, 14923, Note_off_c, 0, 56, 64
1, 14923, Note_off_c, 0, 65, 64
1, 14930, Note_off_c, 0, 80, 64
1, 15000, Note_on_c, 0, 80, 75
1, 15010, Note_off_c, 0, 79, 64
1, 15098, Note_off_c, 0, 80, 64
1, 15098, Note_on_c, 0, 85, 71
1, 15188, Note_on_c, 0, 84, 79
1, 15191, Note_on_c, 0, 54, 51
1, 15194, Note_off_c, 0, 85, 64
1, 15258, Note_off_c, 0, 84, 64
1, 15264, Note_off_c, 0, 54, 64
1, 15292, Note_on_c, 0, 82, 64
1, 15366, Control_c, 0, 64, 127
1, 15380, Note_on_c, 0, 80, 65
1, 15390, Note_on_c, 0, 63, 39
1, 15394, Note_on_c, 0, 58, 25
1, 15420, Note_off_c, 0, 82, 64
1, 15446, Note_off_c, 0, 63, 64
1, 15470, Note_off_c, 0, 58, 64
1, 15476, Note_on_c, 0, 78, 63
1, 15520, Note_off_c, 0, 80, 64
1, 15536, Note_off_c, 0, 78, 64
1, 15558, Note_on_c, 0, 77, 57
1, 15626, Control_c, 0, 64, 0
1, 15636, Note_on_c, 0, 75, 57
1, 15644, Note_off_c, 0, 77, 64
1, 15714, Note_on_c, 0, 44, 45
1, 15732, Note_on_c, 0, 73, 64
1, 15770, Note_off_c, 0, 44, 64
1, 15790, Note_off_c, 0, 75, 64
1, 15818, Note_off_c, 0, 73, 64
1, 15822, Note_on_c, 0, 72, 54
1, 15826, Control_c, 0, 64, 127
1, 15916, Note_on_c, 0, 70, 47
1, 15924, Note_on_c, 0, 61, 32
1, 15936, Note_on_c, 0, 56, 23
1, 15936, Note_on_c, 0, 53, 34
1, 15942, Note_off_c, 0, 72, 64
1, 15990, Note_off_c, 0, 61, 64
1, 15998, Note_off_c, 0, 53, 64
1, 16006, Note_off_c, 0, 56, 64
1, 16008, Note_on_c, 0, 68, 54
1, 16064, Note_off_c, 0, 70, 64
1, 16072, Control_c, 0, 64, 0
1, 16094, Note_on_c, 0, 66, 58
1, 16154, Note_off_c, 0, 68, 64
1, 16182, Note_on_c, 0, 65, 57
1, 16190, Note_off_c, 0, 66, 64
1, 16274, Note_on_c, 0, 44, 43
1, 16280, Note_on_c, 0, 63, 67
1, 16284, Note_off_c, 0, 65, 64
1, 16332, Note_off_c, 0, 44, 64
1, 16356, Note_on_c, 0, 61, 73
1, 16416, Note_off_c, 0, 63, 64
1, 16454, Note_on_c, 0, 60, 70
1, 16464, Note_off_c, 0, 61, 64
1, 16470, Note_on_c, 0, 56, 36
1, 16478, Note_on_c, 0, 54, 43
1, 16532, Note_off_c, 0, 56, 64
1, 16535, Note_off_c, 0, 54, 64
1, 16542, Note_off_c, 0, 60, 64
1, 16556, Note_on_c, 0, 63, 65
1, 16616, Note_off_c, 0, 63, 64
1, 16650, Note_on_c, 0, 60, 30
1, 16652, Note_on_c, 0, 54, 35
1, 16652, Note_on_c, 0, 70, 53
1, 16654, Note_on_c, 0, 56, 10
1, 16714, Note_off_c, 0, 54, 64
1, 16720, Note_off_c, 0, 60, 64
1, 16732, Note_off_c, 0, 56, 64
1, 16748, Note_on_c, 0, 68, 60
1, 16784, Note_off_c, 0, 70, 64
1, 16816, Note_off_c, 0, 68, 64
1, 16846, Note_on_c, 0, 67, 61
1, 16858, Note_on_c, 0, 49, 39
1, 16916, Note_off_c, 0, 49, 64
1, 16918, Note_off_c, 0, 67, 64
1, 16956, Note_on_c, 0, 68, 52
1, 17054, Note_off_c, 0, 68, 64
1, 17066, Note_on_c, 0, 70, 55
1, 17082, Note_on_c, 0, 65, 27
1, 17084, Note_on_c, 0, 61, 19
1, 17086, Note_on_c, 0, 56, 29
1, 17128, Note_off_c, 0, 70, 64
1, 17162, Note_off_c, 0, 65, 64
1, 17166, Note_off_c, 0, 61, 64
1, 17172, Note_on_c, 0, 72, 57
1, 17186, Note_off_c, 0, 56, 64
1, 17240, Note_off_c, 0, 72, 64
1, 17278, Note_on_c, 0, 73, 47
1, 17356, Note_off_c, 0, 73, 64
1, 17376, Note_on_c, 0, 75, 53
1, 17430, Note_off_c, 0, 75, 64
1, 17480, Note_on_c, 0, 77, 53
1, 17506, Note_on_c, 0, 57, 39
1, 17526, Note_off_c, 0, 77, 64
1, 17564, Note_on_c, 0, 78, 53
1, 17618, Note_on_c, 0, 77, 42
1, 17630, Note_off_c, 0, 78, 64
1, 17700, Note_on_c, 0, 63, 30
1, 17708, Note_on_c, 0, 65, 26
1, 17714, Note_off_c, 0, 77, 64
1, 17717, Note_on_c, 0, 76, 45
1, 17762, Note_off_c, 0, 63, 64
1, 17774, Note_off_c, 0, 65, 64
1, 17802, Note_on_c, 0, 77, 52
1, 17826, Note_off_c, 0, 76, 64
1, 17862, Note_on_c, 0, 63, 25
1, 17863, Note_on_c, 0, 65, 26
1, 17906, Note_on_c, 0, 80, 60
1, 17914, Note_off_c, 0, 77, 64
1, 17927, Note_off_c, 0, 65, 64
1, 17932, Note_off_c, 0, 63, 64
1, 18008, Note_on_c, 0, 78, 60
1, 18046, Note_off_c, 0, 80, 64
1, 18084, Note_off_c, 0, 78, 64
1, 18086, Note_on_c, 0, 77, 59
1, 18092, Note_on_c, 0, 58, 40
1, 18116, Note_off_c, 0, 57, 64
1, 18154, Note_off_c, 0, 77, 64
1, 18186, Note_on_c, 0, 78, 61
1, 18296, Note_on_c, 0, 77, 69
1, 18296, Note_on_c, 0, 61, 42
1, 18299, Note_on_c, 0, 65, 33
1, 18314, Note_off_c, 0, 78, 64
1, 18342, Note_off_c, 0, 77, 64
1, 18358, Note_off_c, 0, 65, 64
1, 18364, Note_off_c, 0, 61, 64
1, 18372, Note_on_c, 0, 76, 60
1, 18448, Note_off_c, 0, 76, 64
1, 18476, Note_on_c, 0, 65, 24
1, 18480, Note_on_c, 0, 61, 41
1, 18483, Note_on_c, 0, 77, 72
1, 18500, Note_off_c, 0, 58, 64
1, 18526, Note_off_c, 0, 77, 64
1, 18534, Note_off_c, 0, 61, 64
1, 18538, Note_off_c, 0, 65, 64
1, 18546, Control_c, 0, 64, 127
1, 18564, Note_on_c, 0, 82, 62
1, 18612, Note_off_c, 0, 82, 64
1, 18638, Control_c, 0, 64, 0
1, 18668, Note_on_c, 0, 80, 72
1, 18702, Note_on_c, 0, 60, 30
1, 18714, Note_off_c, 0, 80, 64
1, 18728, Note_on_c, 0, 82, 53
1, 18796, Note_on_c, 0, 80, 66
1, 18858, Note_on_c, 0, 68, 31
1, 18861, Note_off_c, 0, 82, 64
1, 18868, Note_on_c, 0, 66, 25
1, 18878, Note_on_c, 0, 79, 88
1, 18912, Note_off_c, 0, 80, 64
1, 18918, Note_off_c, 0, 68, 64
1, 18936, Note_off_c, 0, 66, 64
1, 18980, Note_on_c, 0, 80, 72
1, 19006, Note_off_c, 0, 79, 64
1, 19058, Note_on_c, 0, 66, 15
1, 19060, Note_on_c, 0, 68, 33
1, 19082, Note_on_c, 0, 84, 85
1, 19090, Note_off_c, 0, 80, 64
1, 19123, Note_off_c, 0, 68, 64
1, 19150, Note_off_c, 0, 66, 64
1, 19184, Note_on_c, 0, 82, 75
1, 19210, Note_off_c, 0, 84, 64
1, 19213, Note_off_c, 0, 60, 64
1, 19278, Note_on_c, 0, 80, 84
1, 19296, Note_on_c, 0, 61, 35
1, 19302, Note_off_c, 0, 82, 64
1, 19374, Note_on_c, 0, 82, 64
1, 19386, Note_off_c, 0, 80, 64
1, 19472, Note_on_c, 0, 80, 59
1, 19506, Note_on_c, 0, 68, 30
1, 19507, Note_on_c, 0, 65, 32
1, 19524, Note_off_c, 0, 82, 64
1, 19576, Note_off_c, 0, 80, 64
1, 19580, Note_on_c, 0, 79, 62
1, 19630, Note_off_c, 0, 65, 64
1, 19660, Note_off_c, 0, 68, 64
1, 19682, Note_off_c, 0, 79, 64
1, 19682, Control_c, 0, 64, 127
1, 19702, Note_on_c, 0, 80, 46
1, 19714, Note_off_c, 0, 61, 64
1, 19754, Note_off_c, 0, 80, 64
1, 19806, Control_c, 0, 64, 0
1, 19812, Note_on_c, 0, 89, 45
1, 19892, Note_off_c, 0, 89, 64
1, 19912, Note_on_c, 0, 54, 40
1, 19930, Note_on_c, 0, 87, 50
1, 19992, Note_off_c, 0, 54, 64
1, 20020, Control_c, 0, 64, 127
1, 20048, Note_on_c, 0, 85, 53
1, 20070, Note_off_c, 0, 87, 64
1, 20136, Note_off_c, 0, 85, 64
1, 20140, Note_on_c, 0, 70, 47
1, 20152, Note_on_c, 0, 63, 7
1, 20153, Note_on_c, 0, 61, 25
1, 20156, Note_on_c, 0, 84, 57
1, 20200, Note_off_c, 0, 63, 64
1, 20202, Note_off_c, 0, 70, 64
1, 20220, Note_off_c, 0, 61, 64
1, 20262, Note_on_c, 0, 82, 45
1, 20278, Note_off_c, 0, 84, 64
1, 20354, Note_on_c, 0, 80, 58
1, 20428, Note_off_c, 0, 82, 64
1, 20450, Note_on_c, 0, 78, 59
1, 20466, Control_c, 0, 64, 0
1, 20496, Note_off_c, 0, 80, 64
1, 20554, Note_off_c, 0, 78, 64
1, 20554, Note_on_c, 0, 44, 52
1, 20554, Note_on_c, 0, 77, 59
1, 20604, Note_off_c, 0, 44, 64
1, 20654, Note_on_c, 0, 75, 56
1, 20666, Control_c, 0, 64, 127
1, 20668, Note_off_c, 0, 77, 64
1, 20764, Note_on_c, 0, 73, 53
1, 20772, Note_on_c, 0, 61, 35
1, 20778, Note_on_c, 0, 56, 22
1, 20786, Note_on_c, 0, 53, 26
1, 20816, Note_off_c, 0, 75, 64
1, 20850, Note_off_c, 0, 56, 64
1, 20850, Note_off_c, 0, 53, 64
1, 20858, Note_off_c, 0, 61, 64
1, 20872, Note_off_c, 0, 73, 64
1, 20874, Note_on_c, 0, 72, 50
1, 20978, Note_on_c, 0, 70, 51
1, 20990, Note_off_c, 0, 72, 64
1, 21004, Control_c, 0, 64, 0
1, 21080, Note_on_c, 0, 68, 63
1, 21132, Note_off_c, 0, 70, 64
1, 21202, Note_off_c, 0, 68, 64
1, 21202, Note_on_c, 0, 44, 48
1, 21204, Note_on_c, 0, 69, 43
1, 21266, Note_off_c, 0, 44, 64
1, 21333, Note_off_c, 0, 69, 64
1, 21338, Note_on_c, 0, 72, 50
1, 21452, Note_on_c, 0, 70, 43
1, 21456, Note_off_c, 0, 72, 64
1, 21476, Note_on_c, 0, 60, 27
1, 21478, Note_on_c, 0, 56, 39
1, 21482, Note_on_c, 0, 54, 27
1, 21546, Note_off_c, 0, 60, 64
1, 21549, Note_off_c, 0, 54, 64
1, 21550, Note_off_c, 0, 56, 64
1, 21580, Note_on_c, 0, 65, 36
1, 21583, Note_off_c, 0, 70, 64
1, 21700, Note_off_c, 0, 65, 64
1, 21702, Note_on_c, 0, 60, 27
1, 21705, Note_on_c, 0, 66, 30
1, 21708, Note_on_c, 0, 54, 28
1, 21710, Note_on_c, 0, 56, 26
1, 21770, Note_off_c, 0, 60, 64
1, 21778, Note_off_c, 0, 56, 64
1, 21782, Note_off_c, 0, 54, 64
1, 21855, Note_off_c, 0, 66, 64
1, 21858, Note_on_c, 0, 60, 44
1, 22020, Note_on_c, 0, 49, 32
1, 22027, Note_off_c, 0, 60, 64
1, 22036, Note_on_c, 0, 61, 42
1, 22166, Note_off_c, 0, 49, 64
1, 22172, Control_c, 0, 64, 127
1, 22197, Note_off_c, 0, 61, 64
1, 22460, Note_on_c, 0, 65, 18
1, 22463, Note_on_c, 0, 61, 24
1, 22463, Note_on_c, 0, 56, 21
1, 22584, Note_off_c, 0, 65, 64
1, 22590, Note_off_c, 0, 56, 64
1, 22658, Note_off_c, 0, 61, 64
1, 22756, Control_c, 0, 64, 0
1, 22774, Note_on_c, 0, 77, 43
1, 23052, Note_on_c, 0, 45, 39
1, 23108, Note_off_c, 0, 45, 64
1, 23138, Control_c, 0, 64, 127
1, 23258, Note_off_c, 0, 77, 64
1, 23264, Note_on_c, 0, 78, 42
1, 23340, Note_on_c, 0, 77, 50
1, 23376, Note_off_c, 0, 78, 64
1, 23400, Note_on_c, 0, 63, 34
1, 23406, Note_on_c, 0, 60, 28
1, 23414, Note_on_c, 0, 53, 57
1, 23432, Control_c, 0, 64, 0
1, 23448, Note_off_c, 0, 77, 64
1, 23460, Note_on_c, 0, 76, 40
1, 23463, Note_off_c, 0, 63, 64
1, 23476, Note_off_c, 0, 60, 64
1, 23484, Note_off_c, 0, 53, 64
1, 23536, Note_off_c, 0, 76, 64
1, 23542, Note_on_c, 0, 77, 49
1, 23630, Note_on_c, 0, 63, 52
1, 23630, Note_on_c, 0, 60, 17
1, 23635, Note_on_c, 0, 53, 49
1, 23662, Note_off_c, 0, 77, 64
1, 23668, Note_on_c, 0, 80, 58
1, 23678, Note_off_c, 0, 63, 64
1, 23690, Note_off_c, 0, 53, 64
1, 23700, Note_off_c, 0, 60, 64
1, 23770, Note_on_c, 0, 78, 63
1, 23806, Note_off_c, 0, 80, 64
1, 23866, Note_on_c, 0, 46, 56
1, 23880, Note_on_c, 0, 77, 66
1, 23900, Note_off_c, 0, 78, 64
1, 23922, Note_off_c, 0, 46, 64
1, 23938, Control_c, 0, 64, 127
1, 23984, Note_on_c, 0, 78, 60
1, 23996, Note_off_c, 0, 77, 64
1, 24080, Note_on_c, 0, 61, 41
1, 24084, Note_on_c, 0, 53, 59
1, 24098, Note_on_c, 0, 77, 52
1, 24138, Note_off_c, 0, 53, 64
1, 24138, Control_c, 0, 64, 0
1, 24142, Note_off_c, 0, 78, 64
1, 24144, Note_off_c, 0, 61, 64
1, 24182, Note_off_c, 0, 77, 64
1, 24186, Note_on_c, 0, 76, 58
1, 24296, Note_on_c, 0, 61, 47
1, 24300, Note_on_c, 0, 77, 57
1, 24300, Note_on_c, 0, 53, 43
1, 24302, Note_off_c, 0, 76, 64
1, 24356, Note_off_c, 0, 61, 64
1, 24360, Note_off_c, 0, 77, 64
1, 24360, Note_off_c, 0, 53, 64
1, 24388, Note_on_c, 0, 82, 60
1, 24444, Note_off_c, 0, 82, 64
1, 24502, Note_on_c, 0, 48, 57
1, 24510, Note_on_c, 0, 80, 71
1, 24538, Control_c, 0, 64, 127
1, 24550, Note_off_c, 0, 48, 64
1, 24568, Note_off_c, 0, 80, 64
1, 24586, Note_on_c, 0, 82, 56
1, 24666, Note_on_c, 0, 80, 60
1, 24720, Note_off_c, 0, 82, 64
1, 24736, Note_on_c, 0, 66, 45
1, 24744, Note_on_c, 0, 63, 43
1, 24750, Note_on_c, 0, 79, 80
1, 24750, Note_on_c, 0, 56, 30
1, 24760, Note_off_c, 0, 80, 64
1, 24798, Note_off_c, 0, 66, 64
1, 24798, Control_c, 0, 64, 0
1, 24802, Note_off_c, 0, 63, 64
1, 24822, Note_off_c, 0, 56, 64
1, 24828, Note_on_c, 0, 80, 74
1, 24866, Note_off_c, 0, 79, 64
1, 24934, Note_on_c, 0, 84, 79
1, 24937, Note_on_c, 0, 66, 50
1, 24938, Note_on_c, 0, 56, 35
1, 24961, Note_off_c, 0, 80, 64
1, 24986, Note_off_c, 0, 66, 64
1, 24994, Note_off_c, 0, 56, 64
1, 25030, Note_on_c, 0, 82, 69
1, 25074, Note_off_c, 0, 84, 64
1, 25124, Note_on_c, 0, 80, 75
1, 25144, Note_off_c, 0, 82, 64
1, 25144, Note_on_c, 0, 49, 60
1, 25184, Control_c, 0, 64, 127
1, 25190, Note_off_c, 0, 49, 64
1, 25206, Note_on_c, 0, 82, 68
1, 25232, Note_off_c, 0, 80, 64
1, 25300, Note_on_c, 0, 80, 65
1, 25342, Note_on_c, 0, 61, 48
1, 25344, Note_on_c, 0, 56, 45
1, 25354, Note_on_c, 0, 65, 33
1, 25374, Note_off_c, 0, 82, 64
1, 25398, Note_on_c, 0, 79, 82
1, 25406, Note_off_c, 0, 61, 64
1, 25410, Note_off_c, 0, 56, 64
1, 25414, Note_off_c, 0, 80, 64
1, 25414, Note_off_c, 0, 65, 64
1, 25428, Control_c, 0, 64, 0
1, 25506, Note_on_c, 0, 80, 62
1, 25512, Note_off_c, 0, 79, 64
1, 25606, Note_on_c, 0, 85, 61
1, 25612, Note_off_c, 0, 80, 64
1, 25698, Note_off_c, 0, 85, 64
1, 25698, Note_on_c, 0, 54, 42
1, 25708, Note_on_c, 0, 84, 76
1, 25772, Note_off_c, 0, 54, 64
1, 25802, Note_on_c, 0, 82, 58
1, 25814, Note_off_c, 0, 84, 64
1, 25828, Control_c, 0, 64, 127
1, 25896, Note_on_c, 0, 80, 55
1, 25910, Note_on_c, 0, 63, 30
1, 25912, Note_on_c, 0, 58, 30
1, 25932, Note_off_c, 0, 82, 64
1, 25970, Note_off_c, 0, 63, 64
1, 25976, Note_off_c, 0, 58, 64
1, 25980, Note_on_c, 0, 78, 65
1, 26040, Note_off_c, 0, 80, 64
1, 26050, Note_off_c, 0, 78, 64
1, 26075, Control_c, 0, 64, 0
1, 26075, Note_on_c, 0, 77, 58
1, 26154, Note_on_c, 0, 75, 62
1, 26206, Note_off_c, 0, 77, 64
1, 26252, Note_on_c, 0, 44, 30
1, 26266, Note_on_c, 0, 73, 61
1, 26320, Note_off_c, 0, 75, 64
1, 26323, Note_off_c, 0, 44, 64
1, 26344, Note_off_c, 0, 73, 64
1, 26350, Note_on_c, 0, 72, 62
1, 26352, Control_c, 0, 64, 127
1, 26446, Note_on_c, 0, 61, 39
1, 26449, Note_on_c, 0, 70, 53
1, 26458, Note_on_c, 0, 56, 33
1, 26462, Note_on_c, 0, 53, 49
1, 26492, Note_off_c, 0, 72, 64
1, 26514, Note_off_c, 0, 53, 64
1, 26516, Note_off_c, 0, 61, 64
1, 26520, Note_off_c, 0, 56, 64
1, 26536, Control_c, 0, 64, 0
1, 26556, Note_on_c, 0, 68, 50
1, 26624, Note_off_c, 0, 70, 64
1, 26640, Note_on_c, 0, 66, 56
1, 26718, Note_off_c, 0, 68, 64
1, 26736, Note_off_c, 0, 66, 64
1, 26738, Note_on_c, 0, 65, 61
1, 26824, Note_on_c, 0, 44, 55
1, 26842, Note_on_c, 0, 63, 68
1, 26844, Note_off_c, 0, 65, 64
1, 26878, Note_off_c, 0, 44, 64
1, 26924, Note_on_c, 0, 61, 71
1, 26934, Control_c, 0, 64, 127
1, 26970, Note_off_c, 0, 63, 64
1, 26980, Control_c, 0, 64, 0
1, 27008, Note_off_c, 0, 61, 64
1, 27013, Note_on_c, 0, 60, 70
1, 27020, Note_on_c, 0, 56, 44
1, 27022, Note_on_c, 0, 54, 54
1, 27074, Note_off_c, 0, 54, 64
1, 27077, Note_off_c, 0, 56, 64
1, 27088, Note_off_c, 0, 60, 64
1, 27128, Note_on_c, 0, 63, 53
1, 27178, Note_off_c, 0, 63, 64
1, 27204, Note_on_c, 0, 70, 57
1, 27228, Note_on_c, 0, 60, 39
1, 27236, Note_on_c, 0, 56, 24
1, 27239, Note_on_c, 0, 54, 32
1, 27294, Note_off_c, 0, 60, 64
1, 27306, Note_off_c, 0, 54, 64
1, 27308, Note_off_c, 0, 56, 64
1, 27320, Note_on_c, 0, 68, 53
1, 27344, Note_off_c, 0, 70, 64
1, 27374, Note_off_c, 0, 68, 64
1, 27404, Note_on_c, 0, 49, 55
1, 27410, Note_on_c, 0, 67, 63
1, 27452, Note_off_c, 0, 49, 64
1, 27474, Note_off_c, 0, 67, 64
1, 27522, Note_on_c, 0, 68, 56
1, 27594, Note_off_c, 0, 68, 64
1, 27620, Note_on_c, 0, 65, 33
1, 27620, Note_on_c, 0, 56, 43
1, 27620, Note_on_c, 0, 70, 48
1, 27626, Note_on_c, 0, 61, 7
1, 27674, Note_off_c, 0, 70, 64
1, 27677, Note_off_c, 0, 65, 64
1, 27678, Note_off_c, 0, 61, 64
1, 27692, Note_off_c, 0, 56, 64
1, 27718, Note_on_c, 0, 72, 61
1, 27774, Note_off_c, 0, 72, 64
1, 27824, Note_on_c, 0, 73, 53
1, 27900, Note_off_c, 0, 73, 64
1, 27912, Note_on_c, 0, 75, 58
1, 27964, Note_off_c, 0, 75, 64
1, 28020, Note_on_c, 0, 77, 58
1, 28028, Note_on_c, 0, 57, 54
1, 28062, Note_off_c, 0, 77, 64
1, 28096, Note_on_c, 0, 78, 61
1, 28154, Note_on_c, 0, 77, 44
1, 28176, Note_off_c, 0, 78, 64
1, 28232, Note_on_c, 0, 63, 39
1, 28234, Note_on_c, 0, 65, 27
1, 28238, Note_off_c, 0, 77, 64
1, 28250, Note_on_c, 0, 76, 55
1, 28284, Note_off_c, 0, 63, 64
1, 28294, Note_off_c, 0, 65, 64
1, 28318, Note_off_c, 0, 76, 64
1, 28324, Note_on_c, 0, 77, 57
1, 28432, Note_on_c, 0, 80, 66
1, 28432, Note_on_c, 0, 65, 12
1, 28432, Note_on_c, 0, 63, 30
1, 28442, Note_off_c, 0, 77, 64
1, 28488, Note_off_c, 0, 63, 64
1, 28504, Note_off_c, 0, 65, 64
1, 28526, Note_on_c, 0, 78, 65
1, 28566, Note_off_c, 0, 80, 64
1, 28590, Note_off_c, 0, 57, 64
1, 28612, Note_on_c, 0, 77, 63
1, 28620, Note_off_c, 0, 78, 64
1, 28620, Note_on_c, 0, 58, 49
1, 28686, Note_off_c, 0, 77, 64
1, 28706, Note_on_c, 0, 78, 64
1, 28782, Note_on_c, 0, 65, 36
1, 28788, Note_on_c, 0, 61, 54
1, 28820, Note_on_c, 0, 77, 63
1, 28840, Note_off_c, 0, 65, 64
1, 28848, Note_off_c, 0, 78, 64
1, 28850, Note_off_c, 0, 61, 64
1, 28874, Note_off_c, 0, 77, 64
1, 28894, Note_on_c, 0, 76, 63
1, 28998, Note_on_c, 0, 61, 59
1, 28998, Note_on_c, 0, 65, 33
1, 29000, Note_on_c, 0, 77, 64
1, 29008, Note_off_c, 0, 76, 64
1, 29036, Note_off_c, 0, 58, 64
1, 29048, Note_off_c, 0, 61, 64
1, 29051, Note_off_c, 0, 77, 64
1, 29054, Note_off_c, 0, 65, 64
1, 29070, Control_c, 0, 64, 127
1, 29080, Note_on_c, 0, 82, 68
1, 29136, Note_off_c, 0, 82, 64
1, 29146, Control_c, 0, 64, 0
1, 29186, Note_on_c, 0, 80, 79
1, 29206, Note_on_c, 0, 60, 34
1, 29240, Note_off_c, 0, 80, 64
1, 29258, Note_on_c, 0, 82, 59
1, 29324, Note_on_c, 0, 80, 73
1, 29362, Note_on_c, 0, 68, 29
1, 29362, Note_on_c, 0, 66, 30
1, 29392, Note_off_c, 0, 82, 64
1, 29404, Note_on_c, 0, 79, 89
1, 29424, Note_off_c, 0, 66, 64
1, 29426, Note_off_c, 0, 80, 64
1, 29426, Note_off_c, 0, 68, 64
1, 29488, Note_on_c, 0, 80, 76
1, 29528, Note_off_c, 0, 79, 64
1, 29594, Note_on_c, 0, 68, 29
1, 29598, Note_on_c, 0, 84, 74
1, 29600, Note_on_c, 0, 66, 16
1, 29606, Note_off_c, 0, 80, 64
1, 29658, Note_off_c, 0, 68, 64
1, 29672, Note_off_c, 0, 66, 64
1, 29686, Note_on_c, 0, 82, 67
1, 29710, Note_off_c, 0, 84, 64
1, 29712, Note_off_c, 0, 60, 64
1, 29792, Note_on_c, 0, 80, 72
1, 29802, Note_on_c, 0, 61, 30
1, 29812, Note_off_c, 0, 82, 64
1, 29870, Note_off_c, 0, 80, 64
1, 29876, Note_on_c, 0, 82, 55
1, 29984, Note_on_c, 0, 80, 52
1, 30012, Note_on_c, 0, 68, 28
1, 30016, Note_off_c, 0, 82, 64
1, 30030, Note_on_c, 0, 65, 21
1, 30086, Note_off_c, 0, 80, 64
1, 30090, Note_on_c, 0, 79, 57
1, 30161, Control_c, 0, 64, 127
1, 30165, Note_off_c, 0, 68, 64
1, 30168, Note_off_c, 0, 65, 64
1, 30192, Note_off_c, 0, 79, 64
1, 30202, Note_on_c, 0, 80, 44
1, 30216, Note_off_c, 0, 61, 64
1, 30286, Note_off_c, 0, 80, 64
1, 30330, Note_on_c, 0, 89, 38
1, 30346, Control_c, 0, 64, 0
1, 30438, Note_on_c, 0, 54, 31
1, 30478, Note_on_c, 0, 87, 42
1, 30494, Note_off_c, 0, 89, 64
1, 30546, Note_off_c, 0, 54, 64
1, 30546, Control_c, 0, 64, 127
1, 30590, Note_on_c, 0, 85, 45
1, 30592, Note_off_c, 0, 87, 64
1, 30678, Note_off_c, 0, 85, 64
1, 30704, Note_on_c, 0, 84, 57
1, 30706, Note_on_c, 0, 70, 38
1, 30754, Note_on_c, 0, 61, 23
1, 30766, Note_off_c, 0, 70, 64
1, 30814, Note_on_c, 0, 82, 37
1, 30828, Note_off_c, 0, 61, 64
1, 30842, Note_off_c, 0, 84, 64
1, 30906, Note_on_c, 0, 80, 48
1, 31002, Note_off_c, 0, 82, 64
1, 31005, Note_on_c, 0, 78, 60
1, 31022, Control_c, 0, 64, 0
1, 31070, Note_off_c, 0, 80, 64
1, 31108, Note_off_c, 0, 78, 64
1, 31110, Note_on_c, 0, 44, 49
1, 31122, Note_on_c, 0, 77, 55
1, 31160, Note_off_c, 0, 44, 64
1, 31206, Control_c, 0, 64, 127
1, 31230, Note_on_c, 0, 75, 51
1, 31234, Note_off_c, 0, 77, 64
1, 31334, Note_on_c, 0, 73, 50
1, 31336, Note_on_c, 0, 61, 28
1, 31352, Note_on_c, 0, 56, 24
1, 31360, Note_on_c, 0, 53, 38
1, 31392, Note_off_c, 0, 75, 64
1, 31418, Note_off_c, 0, 53, 64
1, 31426, Note_off_c, 0, 56, 64
1, 31430, Note_off_c, 0, 73, 64
1, 31430, Note_off_c, 0, 61, 64
1, 31442, Note_on_c, 0, 72, 48
1, 31542, Note_on_c, 0, 70, 55
1, 31550, Note_off_c, 0, 72, 64
1, 31606, Control_c, 0, 64, 0
1, 31664, Note_on_c, 0, 68, 52
1, 31710, Note_off_c, 0, 70, 64
1, 31754, Note_off_c, 0, 68, 64
1, 31780, Note_on_c, 0, 69, 41
1, 31786, Note_on_c, 0, 44, 43
1, 31882, Note_off_c, 0, 44, 64
1, 31888, Note_off_c, 0, 69, 64
1, 31938, Note_on_c, 0, 72, 42
1, 32066, Note_off_c, 0, 72, 64
1, 32066, Note_on_c, 0, 70, 36
1, 32090, Note_on_c, 0, 56, 36
1, 32090, Note_on_c, 0, 60, 31
1, 32094, Note_on_c, 0, 54, 30
1, 32160, Note_off_c, 0, 60, 64
1, 32160, Note_off_c, 0, 54, 64
1, 32164, Note_off_c, 0, 56, 64
1, 32228, Note_off_c, 0, 70, 64
1, 32238, Note_on_c, 0, 65, 28
1, 32376, Note_on_c, 0, 66, 26
1, 32382, Note_off_c, 0, 65, 64
1, 32385, Note_on_c, 0, 54, 23
1, 32385, Note_on_c, 0, 56, 22
1, 32385, Note_on_c, 0, 60, 16
1, 32460, Note_off_c, 0, 60, 64
1, 32476, Note_off_c, 0, 54, 64
1, 32480, Note_off_c, 0, 56, 64
1, 32538, Note_off_c, 0, 66, 64
1, 32552, Note_on_c, 0, 60, 43
1, 32796, Note_off_c, 0, 60, 64
1, 32810, Note_on_c, 0, 61, 46
1, 32812, Note_on_c, 0, 49, 23
1, 33006, Note_off_c, 0, 49, 64
1, 33020, Control_c, 0, 64, 127
1, 33052, Note_off_c, 0, 61, 64
1, 33404, Note_on_c, 0, 65, 8
1, 33406, Note_on_c, 0, 56, 9
1, 33410, Note_on_c, 0, 61, 15
1, 34068, Note_off_c, 0, 65, 64
1, 34090, Note_off_c, 0, 61, 64
1, 34140, Note_off_c, 0, 56, 64
1, 34194, Note_on_c, 0, 68, 40
1, 34232, Control_c, 0, 64, 0
1, 34606, Note_on_c, 0, 44, 25
1, 34616, Control_c, 0, 64, 127
1, 34740, Note_off_c, 0, 44, 64
1, 35124, Note_on_c, 0, 60, 23
1, 35126, Note_on_c, 0, 56, 20
1, 35128, Note_on_c, 0, 54, 21
1, 35210, Note_off_c, 0, 54, 64
1, 35268, Note_off_c, 0, 56, 64
1, 35288, Note_off_c, 0, 60, 64
1, 35458, Note_on_c, 0, 63, 52
1, 35478, Note_on_c, 0, 60, 15
1, 35484, Note_on_c, 0, 56, 10
1, 35488, Note_on_c, 0, 54, 3
1, 35538, Note_off_c, 0, 54, 64
1, 35548, Note_off_c, 0, 68, 64
1, 35568, Note_off_c, 0, 56, 64
1, 35572, Note_off_c, 0, 60, 64
1, 35748, Note_on_c, 0, 68, 53
1, 35792, Note_off_c, 0, 63, 64
1, 35796, Note_on_c, 0, 54, 12
1, 35796, Note_on_c, 0, 60, 6
1, 35798, Note_on_c, 0, 56, 4
1, 35858, Note_off_c, 0, 60, 64
1, 35872, Note_off_c, 0, 54, 64
1, 35888, Note_off_c, 0, 56, 64
1, 35992, Note_on_c, 0, 60, 28
1, 36004, Note_on_c, 0, 56, 22
1, 36018, Note_on_c, 0, 54, 26
1, 36076, Note_off_c, 0, 60, 64
1, 36096, Note_off_c, 0, 54, 64
1, 36124, Note_off_c, 0, 56, 64
1, 36268, Note_on_c, 0, 64, 62
1, 36280, Note_on_c, 0, 60, 27
1, 36280, Note_on_c, 0, 54, 29
1, 36284, Note_on_c, 0, 56, 28
1, 36314, Note_off_c, 0, 68, 64
1, 36354, Note_off_c, 0, 54, 64
1, 36362, Note_off_c, 0, 56, 64
1, 36377, Note_off_c, 0, 60, 64
1, 36528, Note_on_c, 0, 68, 53
1, 36554, Note_on_c, 0, 49, 29
1, 36558, Note_off_c, 0, 64, 64
1, 36584, Control_c, 0, 64, 0
1, 36760, Note_on_c, 0, 61, 42
1, 36760, Note_on_c, 0, 56, 37
1, 36823, Note_off_c, 0, 56, 64
1, 36830, Control_c, 0, 64, 127
1, 36840, Note_off_c, 0, 49, 64
1, 36840, Note_off_c, 0, 61, 64
1, 37012, Note_off_c, 0, 68, 64
1, 37020, Note_on_c, 0, 65, 60
1, 37028, Note_on_c, 0, 61, 36
1, 37028, Note_on_c, 0, 56, 35
1, 37088, Note_off_c, 0, 61, 64
1, 37090, Note_off_c, 0, 56, 64
1, 37260, Control_c, 0, 64, 0
1, 37322, Note_off_c, 0, 65, 64
1, 37324, Note_on_c, 0, 44, 36
1, 37328, Note_on_c, 0, 77, 57
1, 37466, Note_off_c, 0, 44, 64
1, 37490, Control_c, 0, 64, 127
1, 37698, Note_on_c, 0, 65, 22
1, 37703, Note_on_c, 0, 61, 26
1, 37704, Note_on_c, 0, 56, 30
1, 37792, Note_off_c, 0, 65, 64
1, 37805, Note_off_c, 0, 61, 64
1, 37808, Note_off_c, 0, 56, 64
1, 37854, Note_off_c, 0, 77, 64
1, 38020, Note_on_c, 0, 77, 66
1, 38050, Note_on_c, 0, 65, 24
1, 38060, Note_on_c, 0, 61, 28
1, 38064, Note_on_c, 0, 56, 20
1, 38118, Note_off_c, 0, 65, 64
1, 38134, Note_off_c, 0, 61, 64
1, 38140, Note_off_c, 0, 56, 64
1, 38212, Control_c, 0, 64, 0
1, 38308, Note_on_c, 0, 51, 50
1, 38412, Control_c, 0, 64, 127
1, 38440, Note_off_c, 0, 51, 64
1, 38568, Note_on_c, 0, 66, 37
1, 38576, Note_on_c, 0, 60, 23
1, 38578, Note_on_c, 0, 56, 35
1, 38648, Note_off_c, 0, 66, 64
1, 38648, Note_off_c, 0, 60, 64
1, 38658, Note_off_c, 0, 56, 64
1, 38840, Note_on_c, 0, 70, 62
1, 38854, Note_on_c, 0, 66, 36
1, 38854, Note_on_c, 0, 56, 34
1, 38860, Note_on_c, 0, 60, 33
1, 38892, Note_off_c, 0, 77, 64
1, 38912, Note_off_c, 0, 66, 64
1, 38918, Note_off_c, 0, 56, 64
1, 38922, Note_off_c, 0, 60, 64
1, 39088, Control_c, 0, 64, 0
1, 39124, Note_on_c, 0, 77, 73
1, 39134, Note_on_c, 0, 44, 59
1, 39166, Note_off_c, 0, 70, 64
1, 39196, Note_off_c, 0, 44, 64
1, 39272, Control_c, 0, 64, 127
1, 39388, Note_on_c, 0, 66, 39
1, 39396, Note_on_c, 0, 56, 34
1, 39398, Note_on_c, 0, 60, 9
1, 39452, Note_off_c, 0, 66, 64
1, 39462, Note_off_c, 0, 60, 64
1, 39464, Note_off_c, 0, 56, 64
1, 39608, Note_on_c, 0, 72, 75
1, 39636, Note_on_c, 0, 66, 36
1, 39650, Note_on_c, 0, 56, 29
1, 39668, Note_off_c, 0, 77, 64
1, 39696, Note_off_c, 0, 66, 64
1, 39720, Note_off_c, 0, 56, 64
1, 39794, Control_c, 0, 64, 0
1, 39852, Note_on_c, 0, 75, 72
1, 39888, Note_on_c, 0, 49, 48
1, 39900, Note_off_c, 0, 72, 64
1, 39993, Note_off_c, 0, 49, 64
1, 39996, Control_c, 0, 64, 127
1, 40128, Note_on_c, 0, 65, 39
1, 40128, Note_on_c, 0, 56, 32
1, 40134, Note_on_c, 0, 61, 29
1, 40182, Note_off_c, 0, 65, 64
1, 40198, Note_off_c, 0, 56, 64
1, 40204, Note_off_c, 0, 61, 64
1, 40344, Note_on_c, 0, 73, 74
1, 40366, Note_on_c, 0, 56, 48
1, 40368, Note_on_c, 0, 61, 37
1, 40370, Note_on_c, 0, 65, 38
1, 40430, Note_off_c, 0, 65, 64
1, 40434, Note_off_c, 0, 61, 64
1, 40440, Note_off_c, 0, 56, 64
1, 40462, Note_off_c, 0, 75, 64
1, 40646, Note_on_c, 0, 72, 65
1, 40670, Control_c, 0, 64, 0
1, 40686, Note_off_c, 0, 73, 64
1, 40696, Note_on_c, 0, 53, 50
1, 40902, Control_c, 0, 64, 127
1, 40912, Note_off_c, 0, 53, 64
1, 40912, Note_on_c, 0, 75, 48
1, 40934, Note_off_c, 0, 72, 64
1, 40962, Note_on_c, 0, 56, 30
1, 40968, Note_on_c, 0, 65, 11
1, 40970, Note_on_c, 0, 61, 26
1, 41042, Note_off_c, 0, 56, 64
1, 41044, Note_off_c, 0, 65, 64
1, 41048, Note_off_c, 0, 61, 64
1, 41094, Note_on_c, 0, 73, 52
1, 41178, Note_off_c, 0, 75, 64
1, 41230, Note_on_c, 0, 65, 26
1, 41238, Note_on_c, 0, 61, 36
1, 41248, Note_on_c, 0, 56, 39
1, 41294, Note_off_c, 0, 65, 64
1, 41304, Note_on_c, 0, 70, 57
1, 41308, Note_off_c, 0, 61, 64
1, 41318, Note_off_c, 0, 56, 64
1, 41368, Note_off_c, 0, 73, 64
1, 41574, Note_on_c, 0, 68, 49
1, 41576, Control_c, 0, 64, 0
1, 41596, Note_off_c, 0, 70, 64
1, 41610, Note_on_c, 0, 48, 32
1, 41808, Note_off_c, 0, 48, 64
1, 41838, Control_c, 0, 64, 127
1, 41920, Note_on_c, 0, 56, 26
1, 41922, Note_on_c, 0, 60, 19
1, 41924, Note_on_c, 0, 54, 20
1, 41999, Note_off_c, 0, 54, 64
1, 42004, Note_off_c, 0, 60, 64
1, 42022, Note_off_c, 0, 56, 64
1, 42196, Note_on_c, 0, 63, 52
1, 42210, Note_on_c, 0, 60, 21
1, 42212, Note_on_c, 0, 54, 32
1, 42214, Note_on_c, 0, 56, 12
1, 42220, Note_off_c, 0, 68, 64
1, 42274, Note_off_c, 0, 56, 64
1, 42276, Note_off_c, 0, 60, 64
1, 42276, Note_off_c, 0, 54, 64
1, 42392, Control_c, 0, 64, 0
1, 42462, Note_on_c, 0, 44, 55
1, 42468, Note_on_c, 0, 68, 48
1, 42522, Note_off_c, 0, 63, 64
1, 42576, Control_c, 0, 64, 127
1, 42584, Note_off_c, 0, 44, 64
1, 42730, Note_on_c, 0, 56, 38
1, 42734, Note_on_c, 0, 60, 29
1, 42734, Note_on_c, 0, 54, 41
1, 42794, Note_off_c, 0, 54, 64
1, 42796, Note_off_c, 0, 56, 64
1, 42806, Note_off_c, 0, 60, 64
1, 42968, Note_on_c, 0, 64, 71
1, 42971, Note_on_c, 0, 54, 46
1, 42974, Note_on_c, 0, 56, 11
1, 42980, Note_on_c, 0, 60, 21
1, 42984, Note_off_c, 0, 68, 64
1, 43028, Note_off_c, 0, 54, 64
1, 43048, Note_off_c, 0, 56, 64
1, 43052, Note_off_c, 0, 60, 64
1, 43190, Control_c, 0, 64, 0
1, 43226, Note_on_c, 0, 68, 64
1, 43236, Note_on_c, 0, 49, 48
1, 43268, Note_off_c, 0, 64, 64
1, 43420, Note_off_c, 0, 49, 64
1, 43420, Control_c, 0, 64, 127
1, 43458, Note_on_c, 0, 61, 46
1, 43464, Note_on_c, 0, 56, 47
1, 43524, Note_off_c, 0, 56, 64
1, 43530, Note_off_c, 0, 61, 64
1, 43696, Note_on_c, 0, 65, 75
1, 43698, Note_on_c, 0, 61, 43
1, 43701, Note_off_c, 0, 68, 64
1, 43702, Note_on_c, 0, 56, 33
1, 43762, Note_off_c, 0, 56, 64
1, 43764, Note_off_c, 0, 61, 64
1, 43958, Control_c, 0, 64, 0
1, 43986, Note_off_c, 0, 65, 64
1, 43992, Note_on_c, 0, 77, 79
1, 43992, Note_on_c, 0, 47, 53
1, 44138, Note_off_c, 0, 47, 64
1, 44174, Control_c, 0, 64, 127
1, 44320, Note_on_c, 0, 56, 32
1, 44320, Note_on_c, 0, 65, 28
1, 44322, Note_on_c, 0, 61, 33
1, 44394, Note_off_c, 0, 65, 64
1, 44396, Note_off_c, 0, 56, 64
1, 44398, Note_off_c, 0, 61, 64
1, 44602, Note_on_c, 0, 56, 39
1, 44612, Note_on_c, 0, 65, 31
1, 44618, Note_on_c, 0, 61, 18
1, 44668, Note_off_c, 0, 56, 64
1, 44674, Note_off_c, 0, 65, 64
1, 44682, Note_off_c, 0, 61, 64
1, 44754, Note_off_c, 0, 77, 64
1, 44854, Note_on_c, 0, 72, 64
1, 44866, Control_c, 0, 64, 0
1, 44902, Note_on_c, 0, 48, 46
1, 44904, Note_off_c, 0, 72, 64
1, 44906, Note_on_c, 0, 73, 72
1, 44972, Note_off_c, 0, 48, 64
1, 44980, Note_on_c, 0, 72, 52
1, 45004, Note_off_c, 0, 73, 64
1, 45050, Control_c, 0, 64, 127
1, 45056, Note_off_c, 0, 72, 64
1, 45068, Note_on_c, 0, 73, 68
1, 45128, Note_on_c, 0, 72, 63
1, 45202, Note_off_c, 0, 73, 64
1, 45222, Note_on_c, 0, 71, 82
1, 45232, Note_on_c, 0, 65, 33
1, 45234, Note_on_c, 0, 56, 37
1, 45236, Note_on_c, 0, 60, 22
1, 45262, Note_off_c, 0, 72, 64
1, 45306, Note_off_c, 0, 65, 64
1, 45382, Note_off_c, 0, 60, 64
1, 45398, Note_off_c, 0, 56, 64
1, 45480, Note_on_c, 0, 72, 86
1, 45500, Note_off_c, 0, 71, 64
1, 45772, Control_c, 0, 64, 0
1, 45786, Note_on_c, 0, 80, 64
1, 45806, Note_off_c, 0, 72, 64
1, 45814, Note_on_c, 0, 36, 31
1, 45906, Note_off_c, 0, 36, 64
1, 45972, Control_c, 0, 64, 127
1, 46134, Note_on_c, 0, 70, 42
1, 46190, Note_on_c, 0, 64, 15
1, 46196, Note_on_c, 0, 60, 10
1, 46196, Note_on_c, 0, 55, 6
1, 46220, Note_off_c, 0, 80, 64
1, 46266, Note_off_c, 0, 64, 64
1, 46276, Note_off_c, 0, 55, 64
1, 46296, Note_off_c, 0, 60, 64
1, 46456, Note_on_c, 0, 79, 65
1, 46528, Note_off_c, 0, 70, 64
1, 46742, Note_on_c, 0, 69, 36
1, 46748, Note_off_c, 0, 79, 64
1, 46770, Control_c, 0, 64, 0
1, 46772, Note_on_c, 0, 41, 23
1, 46936, Note_off_c, 0, 41, 64
1, 46970, Control_c, 0, 64, 127
1, 47024, Note_off_c, 0, 69, 64
1, 47026, Note_on_c, 0, 78, 43
1, 47292, Note_on_c, 0, 68, 31
1, 47300, Note_on_c, 0, 53, 27
1, 47300, Note_on_c, 0, 60, 19
1, 47340, Control_c, 0, 64, 0
1, 47364, Note_off_c, 0, 78, 64
1, 47570, Control_c, 0, 64, 127
1, 47580, Note_off_c, 0, 60, 64
1, 47604, Note_off_c, 0, 53, 64
1, 47606, Note_on_c, 0, 77, 30
1, 47640, Note_off_c, 0, 68, 64
1, 47724, Control_c, 0, 64, 0
1, 47892, Control_c, 0, 64, 127
1, 47926, Note_on_c, 0, 65, 33
1, 47976, Note_off_c, 0, 77, 64
1, 48294, Note_off_c, 0, 65, 64
1, 48308, Control_c, 0, 64, 0
1, 48316, Note_on_c, 0, 70, 29
1, 48476, Control_c, 0, 64, 127
1, 48554, Note_off_c, 0, 70, 64
1, 48802, Note_on_c, 0, 48, 17
1, 48826, Note_on_c, 0, 68, 36
1, 49024, Note_off_c, 0, 48, 64
1, 49228, Control_c, 0, 64, 0
1, 49250, Note_on_c, 0, 56, 27
1, 49252, Note_on_c, 0, 60, 7
1, 49254, Note_on_c, 0, 54, 15
1, 49344, Note_off_c, 0, 54, 64
1, 49367, Note_off_c, 0, 60, 64
1, 49394, Note_off_c, 0, 56, 64
1, 49398, Control_c, 0, 64, 127
1, 49526, Note_on_c, 0, 63, 46
1, 49534, Note_on_c, 0, 60, 24
1, 49534, Note_on_c, 0, 56, 20
1, 49536, Note_on_c, 0, 54, 24
1, 49582, Note_off_c, 0, 63, 64
1, 49592, Note_off_c, 0, 68, 64
1, 49604, Note_off_c, 0, 54, 64
1, 49606, Note_off_c, 0, 60, 64
1, 49606, Note_off_c, 0, 56, 64
1, 49780, Note_on_c, 0, 80, 51
1, 49814, Control_c, 0, 64, 0
1, 49834, Note_on_c, 0, 68, 64
1, 49836, Note_on_c, 0, 44, 46
1, 49940, Note_off_c, 0, 80, 64
1, 49956, Note_off_c, 0, 44, 64
1, 49966, Control_c, 0, 64, 127
1, 50102, Note_on_c, 0, 56, 36
1, 50102, Note_on_c, 0, 60, 20
1, 50108, Note_on_c, 0, 54, 36
1, 50168, Note_off_c, 0, 56, 64
1, 50171, Note_off_c, 0, 54, 64
1, 50180, Note_off_c, 0, 60, 64
1, 50216, Note_off_c, 0, 68, 64
1, 50336, Note_on_c, 0, 64, 81
1, 50339, Note_on_c, 0, 60, 25
1, 50340, Note_on_c, 0, 56, 17
1, 50346, Note_on_c, 0, 54, 38
1, 50372, Note_off_c, 0, 64, 64
1, 50408, Note_off_c, 0, 54, 64
1, 50416, Note_off_c, 0, 56, 64
1, 50418, Note_off_c, 0, 60, 64
1, 50550, Note_on_c, 0, 80, 71
1, 50596, Control_c, 0, 64, 0
1, 50608, Note_on_c, 0, 68, 73
1, 50608, Note_on_c, 0, 49, 37
1, 50720, Note_off_c, 0, 80, 64
1, 50796, Control_c, 0, 64, 127
1, 50800, Note_off_c, 0, 49, 64
1, 50834, Note_on_c, 0, 61, 39
1, 50838, Note_on_c, 0, 56, 35
1, 50900, Note_off_c, 0, 56, 64
1, 50904, Note_off_c, 0, 61, 64
1, 50940, Note_off_c, 0, 68, 64
1, 51098, Note_on_c, 0, 61, 34
1, 51106, Note_on_c, 0, 56, 33
1, 51112, Note_on_c, 0, 65, 81
1, 51148, Note_off_c, 0, 65, 64
1, 51166, Note_off_c, 0, 56, 64
1, 51168, Note_off_c, 0, 61, 64
1, 51252, Note_on_c, 0, 80, 48
1, 51334, Control_c, 0, 64, 0
1, 51350, Note_on_c, 0, 77, 73
1, 51353, Note_on_c, 0, 44, 33
1, 51390, Note_off_c, 0, 80, 64
1, 51494, Note_off_c, 0, 44, 64
1, 51534, Control_c, 0, 64, 127
1, 51662, Note_on_c, 0, 56, 31
1, 51664, Note_on_c, 0, 65, 38
1, 51668, Note_on_c, 0, 61, 30
1, 51728, Note_off_c, 0, 65, 64
1, 51738, Note_off_c, 0, 61, 64
1, 51742, Note_off_c, 0, 56, 64
1, 51804, Note_off_c, 0, 77, 64
1, 51966, Note_on_c, 0, 77, 74
1, 51976, Note_on_c, 0, 61, 41
1, 51979, Note_on_c, 0, 65, 28
1, 51982, Note_on_c, 0, 56, 26
1, 52036, Note_off_c, 0, 61, 64
1, 52044, Note_off_c, 0, 65, 64
1, 52046, Note_off_c, 0, 56, 64
1, 52080, Note_off_c, 0, 77, 64
1, 52164, Control_c, 0, 64, 0
1, 52164, Note_on_c, 0, 80, 55
1, 52204, Note_on_c, 0, 77, 57
1, 52220, Note_on_c, 0, 51, 54
1, 52286, Note_off_c, 0, 80, 64
1, 52286, Note_off_c, 0, 51, 64
1, 52364, Control_c, 0, 64, 127
1, 52474, Note_on_c, 0, 66, 18
1, 52478, Note_on_c, 0, 60, 16
1, 52480, Note_on_c, 0, 56, 25
1, 52550, Note_off_c, 0, 56, 64
1, 52552, Note_off_c, 0, 66, 64
1, 52560, Note_off_c, 0, 60, 64
1, 52696, Note_off_c, 0, 77, 64
1, 52714, Note_on_c, 0, 70, 47
1, 52714, Note_on_c, 0, 66, 41
1, 52724, Note_on_c, 0, 56, 34
1, 52724, Note_on_c, 0, 60, 9
1, 52766, Note_off_c, 0, 66, 64
1, 52794, Note_off_c, 0, 56, 64
1, 52794, Note_off_c, 0, 60, 64
1, 52902, Control_c, 0, 64, 0
1, 52920, Note_on_c, 0, 80, 50
1, 52956, Note_off_c, 0, 70, 64
1, 52976, Note_on_c, 0, 44, 59
1, 53001, Note_on_c, 0, 77, 61
1, 53034, Note_off_c, 0, 44, 64
1, 53036, Note_off_c, 0, 80, 64
1, 53086, Control_c, 0, 64, 127
1, 53222, Note_on_c, 0, 66, 37
1, 53224, Note_on_c, 0, 60, 5
1, 53226, Note_on_c, 0, 56, 32
1, 53280, Note_off_c, 0, 60, 64
1, 53292, Note_off_c, 0, 66, 64
1, 53298, Note_off_c, 0, 56, 64
1, 53470, Note_on_c, 0, 72, 55
1, 53476, Note_on_c, 0, 66, 38
1, 53484, Note_on_c, 0, 56, 34
1, 53532, Note_off_c, 0, 66, 64
1, 53544, Note_off_c, 0, 72, 64
1, 53552, Note_off_c, 0, 56, 64
1, 53654, Control_c, 0, 64, 0
1, 53662, Note_on_c, 0, 80, 56
1, 53704, Note_on_c, 0, 75, 64
1, 53734, Note_off_c, 0, 77, 64
1, 53734, Note_on_c, 0, 49, 44
1, 53831, Note_off_c, 0, 49, 64
1, 53837, Control_c, 0, 64, 127
1, 53862, Note_off_c, 0, 80, 64
1, 53972, Note_on_c, 0, 73, 65
1, 53980, Note_on_c, 0, 65, 41
1, 53986, Note_on_c, 0, 61, 44
1, 53986, Note_on_c, 0, 56, 34
1, 54036, Note_off_c, 0, 65, 64
1, 54050, Note_off_c, 0, 61, 64
1, 54052, Note_off_c, 0, 56, 64
1, 54076, Note_off_c, 0, 75, 64
1, 54216, Note_on_c, 0, 65, 37
1, 54216, Note_on_c, 0, 72, 70
1, 54222, Note_on_c, 0, 56, 36
1, 54224, Note_on_c, 0, 61, 37
1, 54268, Note_off_c, 0, 73, 64
1, 54288, Note_off_c, 0, 65, 64
1, 54304, Note_off_c, 0, 61, 64
1, 54306, Note_off_c, 0, 56, 64
1, 54416, Note_on_c, 0, 80, 52
1, 54458, Note_off_c, 0, 72, 64
1, 54468, Control_c, 0, 64, 0
1, 54504, Note_on_c, 0, 75, 50
1, 54524, Note_on_c, 0, 53, 39
1, 54604, Note_off_c, 0, 80, 64
1, 54772, Note_off_c, 0, 53, 64
1, 54776, Control_c, 0, 64, 127
1, 54838, Note_on_c, 0, 56, 25
1, 54840, Note_on_c, 0, 61, 24
1, 54842, Note_on_c, 0, 65, 23
1, 54926, Note_on_c, 0, 73, 40
1, 54962, Note_off_c, 0, 56, 64
1, 54968, Note_off_c, 0, 61, 64
1, 54984, Note_off_c, 0, 65, 64
1, 55058, Note_off_c, 0, 75, 64
1, 55250, Note_on_c, 0, 65, 29
1, 55252, Note_on_c, 0, 61, 24
1, 55254, Note_on_c, 0, 56, 26
1, 55322, Note_off_c, 0, 65, 64
1, 55328, Note_off_c, 0, 73, 64
1, 55334, Note_off_c, 0, 56, 64
1, 55348, Note_off_c, 0, 61, 64
1, 55424, Note_on_c, 0, 70, 30
1, 55492, Note_off_c, 0, 70, 64
1, 55522, Note_on_c, 0, 80, 47
1, 55590, Control_c, 0, 64, 0
1, 55594, Note_on_c, 0, 68, 50
1, 55620, Note_on_c, 0, 48, 28
1, 55726, Note_off_c, 0, 80, 64
1, 55790, Control_c, 0, 64, 127
1, 55830, Note_off_c, 0, 48, 64
1, 55892, Note_on_c, 0, 60, 29
1, 55895, Note_on_c, 0, 54, 42
1, 55900, Note_on_c, 0, 56, 28
1, 55966, Note_off_c, 0, 54, 64
1, 55978, Note_off_c, 0, 60, 64
1, 55980, Note_off_c, 0, 56, 64
1, 56128, Note_on_c, 0, 63, 65
1, 56134, Note_on_c, 0, 60, 23
1, 56137, Note_on_c, 0, 56, 29
1, 56142, Note_on_c, 0, 54, 35
1, 56164, Note_off_c, 0, 68, 64
1, 56178, Note_off_c, 0, 63, 64
1, 56200, Note_off_c, 0, 56, 64
1, 56202, Note_off_c, 0, 60, 64
1, 56204, Note_off_c, 0, 54, 64
1, 56326, Note_on_c, 0, 80, 65
1, 56370, Note_on_c, 0, 68, 62
1, 56384, Note_on_c, 0, 44, 62
1, 56464, Note_off_c, 0, 80, 64
1, 56476, Note_off_c, 0, 44, 64
1, 56614, Note_off_c, 0, 68, 64
1, 56636, Note_on_c, 0, 60, 44
1, 56644, Note_on_c, 0, 56, 39
1, 56648, Note_on_c, 0, 54, 41
1, 56704, Note_off_c, 0, 60, 64
1, 56707, Note_off_c, 0, 54, 64
1, 56710, Note_off_c, 0, 56, 64
1, 56860, Note_on_c, 0, 64, 82
1, 56864, Note_on_c, 0, 60, 39
1, 56864, Note_on_c, 0, 54, 54
1, 56896, Note_off_c, 0, 64, 64
1, 56918, Note_off_c, 0, 54, 64
1, 56928, Note_off_c, 0, 60, 64
1, 57094, Note_on_c, 0, 80, 65
1, 57152, Note_on_c, 0, 68, 68
1, 57158, Control_c, 0, 64, 0
1, 57176, Note_on_c, 0, 47, 61
1, 57312, Note_off_c, 0, 80, 64
1, 57352, Note_off_c, 0, 47, 64
1, 57356, Control_c, 0, 64, 127
1, 57530, Note_on_c, 0, 63, 43
1, 57540, Note_on_c, 0, 53, 49
1, 57542, Note_on_c, 0, 56, 31
1, 57594, Note_off_c, 0, 53, 64
1, 57616, Note_off_c, 0, 56, 64
1, 57620, Note_off_c, 0, 68, 64
1, 57620, Note_off_c, 0, 63, 64
1, 57794, Note_on_c, 0, 65, 74
1, 57798, Note_on_c, 0, 63, 55
1, 57806, Note_on_c, 0, 56, 39
1, 57810, Note_on_c, 0, 53, 36
1, 57840, Note_off_c, 0, 65, 64
1, 57846, Note_off_c, 0, 63, 64
1, 57866, Note_off_c, 0, 56, 64
1, 57870, Note_off_c, 0, 53, 64
1, 58094, Control_c, 0, 64, 0
1, 58099, Note_on_c, 0, 77, 69
1, 58118, Note_on_c, 0, 46, 54
1, 58256, Note_off_c, 0, 46, 64
1, 58278, Control_c, 0, 64, 127
1, 58394, Note_on_c, 0, 62, 42
1, 58405, Note_on_c, 0, 56, 36
1, 58407, Note_on_c, 0, 53, 25
1, 58458, Note_off_c, 0, 62, 64
1, 58473, Note_off_c, 0, 53, 64
1, 58487, Note_off_c, 0, 56, 64
1, 58682, Note_on_c, 0, 56, 30
1, 58684, Note_on_c, 0, 62, 39
1, 58684, Note_on_c, 0, 53, 54
1, 58736, Note_off_c, 0, 77, 64
1, 58742, Note_off_c, 0, 53, 64
1, 58744, Note_off_c, 0, 62, 64
1, 58756, Note_off_c, 0, 56, 64
1, 58924, Control_c, 0, 64, 0
1, 58958, Note_on_c, 0, 77, 72
1, 58966, Note_on_c, 0, 51, 48
1, 59154, Note_off_c, 0, 51, 64
1, 59154, Control_c, 0, 64, 127
1, 59298, Note_on_c, 0, 61, 36
1, 59298, Note_on_c, 0, 67, 46
1, 59486, Note_off_c, 0, 67, 64
1, 59572, Note_off_c, 0, 61, 64
1, 59604, Note_on_c, 0, 70, 62
1, 59744, Note_off_c, 0, 77, 64
1, 59862, Control_c, 0, 64, 0
1, 59918, Note_on_c, 0, 75, 60
1, 59954, Note_off_c, 0, 70, 64
1, 60123, Control_c, 0, 64, 127
1, 60296, Note_on_c, 0, 66, 22
1, 60303, Note_on_c, 0, 61, 21
1, 60436, Note_off_c, 0, 66, 64
1, 60544, Note_off_c, 0, 61, 64
1, 60718, Note_on_c, 0, 69, 41
1, 60748, Note_off_c, 0, 75, 64
1, 61014, Control_c, 0, 64, 0
1, 61078, Note_off_c, 0, 69, 64
1, 61094, Note_on_c, 0, 75, 41
1, 61100, Note_on_c, 0, 56, 33
1, 61218, Note_off_c, 0, 56, 64
1, 61276, Control_c, 0, 64, 127
1, 61530, Note_on_c, 0, 68, 36
1, 61542, Note_on_c, 0, 60, 21
1, 61592, Note_off_c, 0, 75, 64
1, 61884, Note_on_c, 0, 74, 48
1, 61940, Note_off_c, 0, 68, 64
1, 62128, Note_off_c, 0, 60, 64
1, 62196, Note_on_c, 0, 77, 43
1, 62212, Note_off_c, 0, 74, 64
1, 62320, Control_c, 0, 64, 0
1, 62536, Control_c, 0, 64, 127
1, 62570, Note_on_c, 0, 75, 37
1, 62584, Note_off_c, 0, 77, 64
1, 62674, Control_c, 0, 64, 0
1, 62904, Control_c, 0, 64, 127
1, 63070, Note_off_c, 0, 75, 64
1, 63116, Note_on_c, 0, 80, 30
1, 63118, Control_c, 0, 64, 0
1, 63350, Control_c, 0, 64, 127
1, 63368, Note_off_c, 0, 80, 64
1, 64068, Note_on_c, 0, 68, 26
1, 64298, Note_off_c, 0, 68, 64
1, 64324, Note_on_c, 0, 70, 23
1, 64406, Note_off_c, 0, 70, 64
1, 64408, Note_on_c, 0, 68, 22
1, 64488, Note_off_c, 0, 68, 64
1, 64498, Note_on_c, 0, 70, 29
1, 64576, Note_on_c, 0, 68, 37
1, 64580, Note_off_c, 0, 70, 64
1, 64654, Note_off_c, 0, 68, 64
1, 64664, Note_on_c, 0, 70, 38
1, 64686, Control_c, 0, 64, 0
1, 64734, Note_off_c, 0, 70, 64
1, 64739, Note_on_c, 0, 68, 41
1, 64824, Note_on_c, 0, 70, 42
1, 64830, Note_off_c, 0, 68, 64
1, 64856, Control_c, 0, 64, 127
1, 64914, Note_on_c, 0, 68, 39
1, 64920, Note_off_c, 0, 70, 64
1, 64992, Note_off_c, 0, 68, 64
1, 65006, Note_on_c, 0, 70, 40
1, 65082, Note_off_c, 0, 70, 64
1, 65098, Note_on_c, 0, 68, 36
1, 65164, Note_off_c, 0, 68, 64
1, 65198, Note_on_c, 0, 70, 31
1, 65259, Note_on_c, 0, 68, 34
1, 65268, Note_off_c, 0, 70, 64
1, 65338, Note_off_c, 0, 68, 64
1, 65352, Note_on_c, 0, 70, 33
1, 65422, Note_off_c, 0, 70, 64
1, 65428, Note_on_c, 0, 68, 32
1, 65504, Note_off_c, 0, 68, 64
1, 65504, Note_on_c, 0, 70, 40
1, 65576, Note_off_c, 0, 70, 64
1, 65596, Note_on_c, 0, 68, 35
1, 65660, Note_off_c, 0, 68, 64
1, 65670, Note_on_c, 0, 70, 44
1, 65728, Note_off_c, 0, 70, 64
1, 65754, Note_on_c, 0, 68, 36
1, 65814, Note_off_c, 0, 68, 64
1, 65816, Note_on_c, 0, 70, 43
1, 65874, Note_off_c, 0, 70, 64
1, 65892, Note_on_c, 0, 68, 39
1, 65954, Note_off_c, 0, 68, 64
1, 65954, Note_on_c, 0, 70, 44
1, 66008, Note_off_c, 0, 70, 64
1, 66022, Note_on_c, 0, 68, 50
1, 66084, Note_on_c, 0, 70, 48
1, 66088, Note_off_c, 0, 68, 64
1, 66152, Note_off_c, 0, 70, 64
1, 66176, Note_on_c, 0, 68, 50
1, 66232, Note_off_c, 0, 68, 64
1, 66242, Note_on_c, 0, 70, 50
1, 66292, Note_off_c, 0, 70, 64
1, 66318, Note_on_c, 0, 68, 49
1, 66370, Note_off_c, 0, 68, 64
1, 66392, Note_on_c, 0, 70, 36
1, 66452, Note_off_c, 0, 70, 64
1, 66455, Note_on_c, 0, 68, 48
1, 66510, Note_off_c, 0, 68, 64
1, 66516, Note_on_c, 0, 70, 56
1, 66568, Note_off_c, 0, 70, 64
1, 66580, Note_on_c, 0, 68, 50
1, 66654, Note_off_c, 0, 68, 64
1, 66654, Note_on_c, 0, 70, 50
1, 66710, Note_off_c, 0, 70, 64
1, 66720, Note_on_c, 0, 68, 61
1, 66788, Note_on_c, 0, 70, 53
1, 66790, Note_off_c, 0, 68, 64
1, 66842, Note_off_c, 0, 70, 64
1, 66870, Note_on_c, 0, 68, 58
1, 66926, Note_off_c, 0, 68, 64
1, 66932, Note_on_c, 0, 70, 50
1, 66980, Note_off_c, 0, 70, 64
1, 67002, Note_on_c, 0, 68, 58
1, 67066, Note_off_c, 0, 68, 64
1, 67070, Note_on_c, 0, 70, 38
1, 67124, Note_off_c, 0, 70, 64
1, 67134, Note_on_c, 0, 68, 55
1, 67180, Note_on_c, 0, 70, 63
1, 67190, Note_off_c, 0, 68, 64
1, 67256, Note_off_c, 0, 70, 64
1, 67260, Note_on_c, 0, 68, 45
1, 67326, Note_on_c, 0, 70, 60
1, 67332, Note_off_c, 0, 68, 64
1, 67398, Note_on_c, 0, 68, 57
1, 67452, Note_off_c, 0, 70, 64
1, 67486, Note_on_c, 0, 67, 68
1, 67490, Note_off_c, 0, 68, 64
1, 67574, Control_c, 0, 64, 0
1, 67598, Note_on_c, 0, 68, 56
1, 67622, Note_off_c, 0, 67, 64
1, 67708, Note_on_c, 0, 72, 62
1, 67724, Note_off_c, 0, 68, 64
1, 67810, Note_on_c, 0, 70, 53
1, 67814, Note_off_c, 0, 72, 64
1, 67878, Note_off_c, 0, 70, 64
1, 67896, Note_on_c, 0, 67, 47
1, 67988, Note_off_c, 0, 67, 64
1, 67992, Note_on_c, 0, 68, 53
1, 68060, Note_off_c, 0, 68, 64
1, 68106, Note_on_c, 0, 72, 41
1, 68174, Note_off_c, 0, 72, 64
1, 68190, Note_on_c, 0, 70, 38
1, 68256, Note_off_c, 0, 70, 64
1, 68282, Note_on_c, 0, 67, 44
1, 68358, Note_off_c, 0, 67, 64
1, 68360, Note_on_c, 0, 68, 57
1, 68424, Note_off_c, 0, 68, 64
1, 68464, Note_on_c, 0, 72, 46
1, 68538, Note_on_c, 0, 70, 48
1, 68542, Note_off_c, 0, 72, 64
1, 68612, Note_off_c, 0, 70, 64
1, 68626, Note_on_c, 0, 67, 64
1, 68712, Note_on_c, 0, 68, 66
1, 68715, Note_off_c, 0, 67, 64
1, 68742, Control_c, 0, 64, 127
1, 68810, Note_on_c, 0, 72, 60
1, 68812, Note_off_c, 0, 68, 64
1, 68880, Note_on_c, 0, 70, 64
1, 68926, Note_off_c, 0, 72, 64
1, 68962, Note_on_c, 0, 67, 74
1, 68998, Note_off_c, 0, 70, 64
1, 69044, Note_on_c, 0, 68, 83
1, 69050, Control_c, 0, 64, 0
1, 69090, Note_off_c, 0, 67, 64
1, 69142, Note_on_c, 0, 72, 89
1, 69168, Note_off_c, 0, 68, 64
1, 69230, Note_on_c, 0, 70, 77
1, 69280, Note_off_c, 0, 72, 64
1, 69322, Note_on_c, 0, 67, 81
1, 69364, Note_off_c, 0, 70, 64
1, 69414, Note_on_c, 0, 68, 84
1, 69446, Note_off_c, 0, 67, 64
1, 69504, Note_on_c, 0, 72, 81
1, 69520, Note_off_c, 0, 68, 64
1, 69588, Note_on_c, 0, 70, 71
1, 69624, Note_off_c, 0, 72, 64
1, 69702, Note_on_c, 0, 67, 90
1, 69702, Note_on_c, 0, 37, 106
1, 69722, Note_off_c, 0, 70, 64
1, 69788, Note_off_c, 0, 37, 64
1, 69818, Control_c, 0, 64, 127
1, 69824, Note_on_c, 0, 68, 75
1, 69882, Note_off_c, 0, 67, 64
1, 69948, Note_on_c, 0, 72, 79
1, 69960, Note_off_c, 0, 68, 64
1, 69966, Note_on_c, 0, 56, 70
1, 69968, Note_on_c, 0, 65, 78
1, 69970, Note_on_c, 0, 61, 74
1, 70010, Note_off_c, 0, 65, 64
1, 70022, Note_off_c, 0, 61, 64
1, 70030, Note_off_c, 0, 56, 64
1, 70058, Note_on_c, 0, 70, 70
1, 70096, Note_off_c, 0, 72, 64
1, 70162, Note_on_c, 0, 67, 75
1, 70182, Note_off_c, 0, 70, 64
1, 70200, Note_on_c, 0, 61, 48
1, 70200, Note_on_c, 0, 56, 79
1, 70202, Control_c, 0, 64, 0
1, 70204, Note_on_c, 0, 65, 42
1, 70244, Note_off_c, 0, 56, 64
1, 70258, Note_off_c, 0, 61, 64
1, 70260, Note_off_c, 0, 65, 64
1, 70266, Note_on_c, 0, 68, 83
1, 70312, Note_off_c, 0, 67, 64
1, 70384, Note_on_c, 0, 72, 87
1, 70388, Note_off_c, 0, 68, 64
1, 70396, Note_on_c, 0, 53, 106
1, 70452, Note_off_c, 0, 53, 64
1, 70482, Note_on_c, 0, 70, 70
1, 70524, Note_off_c, 0, 72, 64
1, 70572, Note_on_c, 0, 67, 73
1, 70598, Note_off_c, 0, 70, 64
1, 70601, Note_on_c, 0, 56, 64
1, 70606, Note_on_c, 0, 65, 55
1, 70608, Note_on_c, 0, 61, 56
1, 70654, Note_off_c, 0, 65, 64
1, 70656, Note_off_c, 0, 56, 64
1, 70664, Note_off_c, 0, 61, 64
1, 70670, Note_on_c, 0, 68, 76
1, 70706, Note_off_c, 0, 67, 64
1, 70774, Note_on_c, 0, 72, 75
1, 70782, Note_off_c, 0, 68, 64
1, 70814, Note_on_c, 0, 65, 43
1, 70818, Note_on_c, 0, 56, 67
1, 70818, Note_on_c, 0, 61, 34
1, 70862, Note_on_c, 0, 70, 67
1, 70870, Note_off_c, 0, 65, 64
1, 70870, Note_off_c, 0, 56, 64
1, 70890, Note_off_c, 0, 72, 64
1, 70890, Note_off_c, 0, 61, 64
1, 70964, Note_on_c, 0, 67, 78
1, 70982, Note_off_c, 0, 70, 64
1, 70984, Note_on_c, 0, 49, 77
1, 71026, Note_off_c, 0, 49, 64
1, 71060, Note_on_c, 0, 68, 79
1, 71096, Note_off_c, 0, 67, 64
1, 71166, Note_on_c, 0, 65, 53
1, 71168, Note_on_c, 0, 72, 80
1, 71170, Note_on_c, 0, 56, 62
1, 71172, Note_on_c, 0, 61, 42
1, 71180, Note_off_c, 0, 68, 64
1, 71186, Control_c, 0, 64, 127
1, 71218, Note_off_c, 0, 65, 64
1, 71230, Note_off_c, 0, 56, 64
1, 71232, Note_off_c, 0, 61, 64
1, 71260, Note_on_c, 0, 70, 72
1, 71310, Note_off_c, 0, 72, 64
1, 71348, Note_on_c, 0, 67, 81
1, 71362, Note_on_c, 0, 56, 56
1, 71366, Note_off_c, 0, 70, 64
1, 71374, Note_on_c, 0, 61, 37
1, 71374, Note_on_c, 0, 65, 38
1, 71402, Control_c, 0, 64, 0
1, 71418, Note_off_c, 0, 56, 64
1, 71434, Note_off_c, 0, 65, 64
1, 71438, Note_off_c, 0, 61, 64
1, 71438, Note_on_c, 0, 68, 83
1, 71458, Note_off_c, 0, 67, 64
1, 71522, Note_on_c, 0, 70, 84
1, 71536, Note_on_c, 0, 53, 89
1, 71564, Note_off_c, 0, 68, 64
1, 71570, Control_c, 0, 64, 127
1, 71586, Note_off_c, 0, 53, 64
1, 71614, Note_off_c, 0, 70, 64
1, 71616, Control_c, 0, 64, 0
1, 71618, Note_on_c, 0, 72, 89
1, 71704, Note_on_c, 0, 65, 55
1, 71708, Note_on_c, 0, 73, 86
1, 71710, Note_on_c, 0, 56, 59
1, 71714, Note_on_c, 0, 61, 57
1, 71728, Note_off_c, 0, 72, 64
1, 71754, Note_off_c, 0, 65, 64
1, 71764, Note_off_c, 0, 56, 64
1, 71770, Note_off_c, 0, 61, 64
1, 71790, Note_on_c, 0, 75, 86
1, 71828, Note_off_c, 0, 73, 64
1, 71884, Note_off_c, 0, 75, 64
1, 71887, Note_on_c, 0, 77, 88
1, 71908, Note_on_c, 0, 65, 65
1, 71912, Note_on_c, 0, 61, 50
1, 71918, Note_on_c, 0, 56, 50
1, 71954, Note_off_c, 0, 65, 64
1, 71974, Note_off_c, 0, 61, 64
1, 71988, Note_on_c, 0, 78, 93
1, 72034, Note_off_c, 0, 56, 64
1, 72042, Note_off_c, 0, 77, 64
1, 72164, Note_on_c, 0, 82, 91
1, 72188, Note_on_c, 0, 44, 53
1, 72198, Note_off_c, 0, 78, 64
1, 72250, Note_off_c, 0, 44, 64
1, 72262, Control_c, 0, 64, 127
1, 72400, Note_on_c, 0, 66, 64
1, 72408, Note_on_c, 0, 56, 40
1, 72410, Note_on_c, 0, 60, 33
1, 72446, Control_c, 0, 64, 0
1, 72452, Note_off_c, 0, 66, 64
1, 72470, Note_off_c, 0, 56, 64
1, 72476, Note_off_c, 0, 60, 64
1, 72516, Note_on_c, 0, 80, 84
1, 72576, Note_off_c, 0, 82, 64
1, 72592, Note_on_c, 0, 66, 55
1, 72592, Note_on_c, 0, 60, 36
1, 72598, Note_on_c, 0, 56, 38
1, 72614, Note_on_c, 0, 78, 83
1, 72650, Note_off_c, 0, 66, 64
1, 72662, Note_off_c, 0, 80, 64
1, 72662, Note_off_c, 0, 60, 64
1, 72676, Note_off_c, 0, 56, 64
1, 72698, Note_on_c, 0, 77, 65
1, 72706, Note_off_c, 0, 78, 64
1, 72738, Note_off_c, 0, 77, 64
1, 72788, Note_on_c, 0, 77, 91
1, 72808, Note_on_c, 0, 51, 60
1, 72854, Note_off_c, 0, 51, 64
1, 72876, Note_off_c, 0, 77, 64
1, 72880, Note_on_c, 0, 75, 72
1, 72940, Note_off_c, 0, 75, 64
1, 72958, Note_on_c, 0, 77, 65
1, 72984, Note_on_c, 0, 66, 41
1, 73002, Note_on_c, 0, 56, 44
1, 73030, Note_on_c, 0, 75, 72
1, 73050, Note_off_c, 0, 66, 64
1, 73064, Note_off_c, 0, 56, 64
1, 73086, Note_off_c, 0, 77, 64
1, 73104, Note_on_c, 0, 74, 82
1, 73136, Note_off_c, 0, 75, 64
1, 73194, Note_on_c, 0, 75, 81
1, 73194, Note_on_c, 0, 60, 35
1, 73196, Note_on_c, 0, 56, 50
1, 73197, Note_on_c, 0, 66, 54
1, 73234, Note_off_c, 0, 74, 64
1, 73240, Note_off_c, 0, 66, 64
1, 73254, Note_off_c, 0, 60, 64
1, 73256, Note_off_c, 0, 56, 64
1, 73428, Note_on_c, 0, 82, 76
1, 73430, Note_off_c, 0, 75, 64
1, 73438, Note_on_c, 0, 44, 76
1, 73492, Note_off_c, 0, 44, 64
1, 73536, Control_c, 0, 64, 127
1, 73656, Note_on_c, 0, 60, 41
1, 73660, Note_on_c, 0, 66, 55
1, 73710, Note_off_c, 0, 82, 64
1, 73724, Note_off_c, 0, 60, 64
1, 73730, Note_off_c, 0, 66, 64
1, 73774, Note_on_c, 0, 80, 70
1, 73880, Note_on_c, 0, 66, 45
1, 73880, Note_on_c, 0, 60, 19
1, 73886, Note_on_c, 0, 78, 69
1, 73908, Note_off_c, 0, 80, 64
1, 73942, Note_off_c, 0, 66, 64
1, 73944, Note_off_c, 0, 78, 64
1, 73958, Note_off_c, 0, 60, 64
1, 73966, Note_on_c, 0, 77, 66
1, 74006, Note_off_c, 0, 77, 64
1, 74058, Control_c, 0, 64, 0
1, 74078, Note_on_c, 0, 77, 58
1, 74100, Note_on_c, 0, 56, 47
1, 74136, Note_off_c, 0, 77, 64
1, 74152, Note_on_c, 0, 75, 59
1, 74166, Note_off_c, 0, 56, 64
1, 74208, Note_off_c, 0, 75, 64
1, 74222, Note_on_c, 0, 77, 56
1, 74272, Note_on_c, 0, 75, 65
1, 74296, Note_on_c, 0, 66, 33
1, 74302, Note_on_c, 0, 60, 34
1, 74312, Note_off_c, 0, 77, 64
1, 74356, Note_on_c, 0, 74, 68
1, 74362, Note_off_c, 0, 66, 64
1, 74370, Note_off_c, 0, 60, 64
1, 74378, Note_off_c, 0, 75, 64
1, 74420, Note_off_c, 0, 74, 64
1, 74460, Note_on_c, 0, 75, 30
1, 74522, Note_off_c, 0, 75, 64
1, 74522, Note_on_c, 0, 66, 37
1, 74526, Note_on_c, 0, 60, 14
1, 74532, Note_on_c, 0, 77, 56
1, 74576, Note_off_c, 0, 66, 64
1, 74584, Note_off_c, 0, 60, 64
1, 74646, Note_on_c, 0, 70, 46
1, 74668, Note_off_c, 0, 77, 64
1, 74718, Note_off_c, 0, 70, 64
1, 74730, Note_on_c, 0, 49, 43
1, 74742, Note_on_c, 0, 67, 51
1, 74750, Control_c, 0, 64, 127
1, 74784, Note_off_c, 0, 49, 64
1, 74842, Note_off_c, 0, 67, 64
1, 74844, Note_on_c, 0, 68, 53
1, 74904, Note_off_c, 0, 68, 64
1, 74920, Control_c, 0, 64, 0
1, 74938, Note_on_c, 0, 72, 39
1, 74944, Note_on_c, 0, 65, 28
1, 74949, Note_on_c, 0, 61, 27
1, 74950, Note_on_c, 0, 56, 38
1, 75010, Note_off_c, 0, 56, 64
1, 75012, Note_off_c, 0, 65, 64
1, 75015, Note_off_c, 0, 72, 64
1, 75021, Note_off_c, 0, 61, 64
1, 75024, Note_on_c, 0, 70, 49
1, 75100, Note_off_c, 0, 70, 64
1, 75128, Note_on_c, 0, 67, 44
1, 75150, Note_on_c, 0, 65, 25
1, 75153, Note_on_c, 0, 61, 17
1, 75153, Note_on_c, 0, 56, 37
1, 75214, Note_off_c, 0, 67, 64
1, 75216, Note_off_c, 0, 65, 64
1, 75216, Note_off_c, 0, 56, 64
1, 75228, Note_off_c, 0, 61, 64
1, 75230, Note_on_c, 0, 68, 48
1, 75308, Note_off_c, 0, 68, 64
1, 75344, Note_on_c, 0, 53, 78
1, 75350, Note_on_c, 0, 72, 37
1, 75380, Control_c, 0, 64, 127
1, 75404, Note_off_c, 0, 53, 64
1, 75424, Note_off_c, 0, 72, 64
1, 75444, Note_on_c, 0, 70, 36
1, 75518, Note_off_c, 0, 70, 64
1, 75538, Note_on_c, 0, 67, 46
1, 75544, Note_on_c, 0, 65, 45
1, 75546, Note_on_c, 0, 61, 37
1, 75550, Note_on_c, 0, 56, 44
1, 75580, Control_c, 0, 64, 0
1, 75598, Note_off_c, 0, 65, 64
1, 75606, Note_off_c, 0, 61, 64
1, 75612, Note_off_c, 0, 56, 64
1, 75620, Note_off_c, 0, 67, 64
1, 75622, Note_on_c, 0, 68, 57
1, 75708, Note_off_c, 0, 68, 64
1, 75738, Note_on_c, 0, 72, 63
1, 75752, Note_on_c, 0, 65, 26
1, 75758, Note_on_c, 0, 61, 35
1, 75766, Note_on_c, 0, 56, 45
1, 75816, Note_off_c, 0, 61, 64
1, 75816, Note_on_c, 0, 70, 67
1, 75820, Note_off_c, 0, 65, 64
1, 75826, Note_off_c, 0, 56, 64
1, 75857, Note_off_c, 0, 72, 64
1, 75930, Note_on_c, 0, 67, 67
1, 75940, Note_off_c, 0, 70, 64
1, 75954, Note_on_c, 0, 49, 53
1, 75996, Control_c, 0, 64, 127
1, 76004, Note_off_c, 0, 49, 64
1, 76026, Note_on_c, 0, 68, 75
1, 76072, Note_off_c, 0, 67, 64
1, 76130, Note_on_c, 0, 72, 75
1, 76134, Control_c, 0, 64, 0
1, 76140, Note_on_c, 0, 56, 47
1, 76140, Note_on_c, 0, 61, 34
1, 76144, Note_on_c, 0, 65, 46
1, 76158, Note_off_c, 0, 68, 64
1, 76198, Note_off_c, 0, 56, 64
1, 76198, Note_off_c, 0, 65, 64
1, 76204, Note_off_c, 0, 61, 64
1, 76220, Note_on_c, 0, 70, 68
1, 76272, Note_off_c, 0, 72, 64
1, 76314, Note_on_c, 0, 67, 81
1, 76334, Note_off_c, 0, 70, 64
1, 76342, Note_on_c, 0, 65, 27
1, 76346, Note_on_c, 0, 56, 29
1, 76354, Note_on_c, 0, 61, 32
1, 76412, Note_on_c, 0, 68, 77
1, 76414, Note_off_c, 0, 65, 64
1, 76417, Note_off_c, 0, 56, 64
1, 76418, Note_off_c, 0, 61, 64
1, 76424, Note_off_c, 0, 67, 64
1, 76508, Note_on_c, 0, 70, 76
1, 76534, Note_on_c, 0, 53, 76
1, 76536, Note_off_c, 0, 68, 64
1, 76578, Note_off_c, 0, 53, 64
1, 76590, Note_off_c, 0, 70, 64
1, 76602, Note_on_c, 0, 72, 78
1, 76694, Note_on_c, 0, 73, 85
1, 76702, Note_on_c, 0, 61, 39
1, 76704, Note_on_c, 0, 56, 51
1, 76706, Note_on_c, 0, 65, 48
1, 76708, Note_off_c, 0, 72, 64
1, 76758, Note_off_c, 0, 61, 64
1, 76758, Note_off_c, 0, 65, 64
1, 76764, Note_off_c, 0, 56, 64
1, 76786, Note_on_c, 0, 75, 89
1, 76826, Note_off_c, 0, 73, 64
1, 76888, Note_on_c, 0, 77, 96
1, 76890, Note_off_c, 0, 75, 64
1, 76906, Note_on_c, 0, 61, 37
1, 76906, Note_on_c, 0, 65, 38
1, 76909, Note_on_c, 0, 56, 55
1, 76962, Note_off_c, 0, 56, 64
1, 76965, Note_off_c, 0, 61, 64
1, 76968, Note_off_c, 0, 65, 64
1, 76988, Note_on_c, 0, 78, 92
1, 77018, Note_off_c, 0, 77, 64
1, 77104, Note_off_c, 0, 78, 64
1, 77104, Note_on_c, 0, 82, 90
1, 77108, Note_on_c, 0, 44, 69
1, 77154, Note_off_c, 0, 44, 64
1, 77240, Control_c, 0, 64, 127
1, 77320, Note_on_c, 0, 66, 53
1, 77330, Note_on_c, 0, 60, 41
1, 77332, Note_on_c, 0, 56, 42
1, 77374, Note_off_c, 0, 66, 64
1, 77390, Note_off_c, 0, 60, 64
1, 77392, Note_off_c, 0, 56, 64
1, 77428, Note_on_c, 0, 80, 72
1, 77456, Note_off_c, 0, 82, 64
1, 77524, Note_on_c, 0, 66, 47
1, 77524, Note_on_c, 0, 60, 14
1, 77530, Note_on_c, 0, 78, 70
1, 77532, Control_c, 0, 64, 0
1, 77562, Note_off_c, 0, 80, 64
1, 77574, Note_off_c, 0, 66, 64
1, 77588, Note_off_c, 0, 60, 64
1, 77608, Note_off_c, 0, 78, 64
1, 77610, Note_on_c, 0, 77, 60
1, 77650, Note_off_c, 0, 77, 64
1, 77706, Note_on_c, 0, 77, 78
1, 77726, Note_on_c, 0, 51, 49
1, 77758, Note_off_c, 0, 77, 64
1, 77778, Note_off_c, 0, 51, 64
1, 77780, Note_on_c, 0, 75, 50
1, 77832, Note_off_c, 0, 75, 64
1, 77832, Note_on_c, 0, 77, 69
1, 77916, Note_on_c, 0, 66, 41
1, 77918, Note_on_c, 0, 75, 45
1, 77926, Note_on_c, 0, 60, 18
1, 77930, Note_on_c, 0, 56, 40
1, 77954, Note_off_c, 0, 77, 64
1, 77986, Note_off_c, 0, 66, 64
1, 77992, Note_off_c, 0, 60, 64
1, 78006, Note_off_c, 0, 56, 64
1, 78014, Note_on_c, 0, 74, 60
1, 78026, Note_off_c, 0, 75, 64
1, 78118, Note_off_c, 0, 74, 64
1, 78118, Note_on_c, 0, 75, 59
1, 78132, Note_on_c, 0, 66, 51
1, 78140, Note_on_c, 0, 60, 36
1, 78140, Note_on_c, 0, 56, 44
1, 78182, Note_off_c, 0, 66, 64
1, 78202, Note_off_c, 0, 60, 64
1, 78202, Note_off_c, 0, 56, 64
1, 78356, Note_on_c, 0, 82, 58
1, 78382, Note_off_c, 0, 75, 64
1, 78385, Note_on_c, 0, 44, 59
1, 78434, Note_off_c, 0, 44, 64
1, 78484, Control_c, 0, 64, 127
1, 78618, Note_on_c, 0, 66, 34
1, 78628, Note_on_c, 0, 60, 10
1, 78684, Note_off_c, 0, 66, 64
1, 78690, Note_off_c, 0, 60, 64
1, 78706, Note_off_c, 0, 82, 64
1, 78718, Note_on_c, 0, 80, 55
1, 78830, Note_on_c, 0, 66, 29
1, 78834, Note_off_c, 0, 80, 64
1, 78834, Note_on_c, 0, 60, 35
1, 78837, Note_on_c, 0, 78, 54
1, 78892, Note_off_c, 0, 78, 64
1, 78894, Note_off_c, 0, 66, 64
1, 78904, Note_off_c, 0, 60, 64
1, 78936, Note_on_c, 0, 77, 54
1, 78982, Note_off_c, 0, 77, 64
1, 79048, Note_on_c, 0, 75, 53
1, 79092, Note_on_c, 0, 56, 7
1, 79096, Note_off_c, 0, 75, 64
1, 79130, Note_on_c, 0, 77, 57
1, 79144, Note_off_c, 0, 56, 64
1, 79168, Note_on_c, 0, 75, 49
1, 79176, Note_off_c, 0, 77, 64
1, 79258, Note_off_c, 0, 75, 64
1, 79264, Note_on_c, 0, 77, 43
1, 79278, Note_on_c, 0, 66, 39
1, 79330, Note_on_c, 0, 75, 67
1, 79333, Note_off_c, 0, 66, 64
1, 79344, Control_c, 0, 64, 0
1, 79350, Note_off_c, 0, 77, 64
1, 79428, Note_on_c, 0, 74, 58
1, 79430, Note_off_c, 0, 75, 64
1, 79530, Note_on_c, 0, 44, 55
1, 79533, Note_on_c, 0, 75, 53
1, 79550, Note_off_c, 0, 74, 64
1, 79608, Note_off_c, 0, 44, 64
1, 79666, Note_off_c, 0, 75, 64
1, 79670, Note_on_c, 0, 76, 62
1, 79802, Note_on_c, 0, 45, 47
1, 79822, Note_off_c, 0, 76, 64
1, 79830, Note_on_c, 0, 77, 60
1, 79852, Note_off_c, 0, 45, 64
1, 79882, Control_c, 0, 64, 127
1, 79954, Note_on_c, 0, 78, 51
1, 79958, Note_off_c, 0, 77, 64
1, 80034, Note_on_c, 0, 77, 51
1, 80076, Note_on_c, 0, 63, 42
1, 80079, Note_off_c, 0, 78, 64
1, 80082, Note_on_c, 0, 60, 14
1, 80084, Note_on_c, 0, 53, 45
1, 80086, Note_off_c, 0, 77, 64
1, 80106, Note_on_c, 0, 76, 45
1, 80128, Note_off_c, 0, 63, 64
1, 80140, Note_off_c, 0, 60, 64
1, 80146, Note_off_c, 0, 53, 64
1, 80208, Note_off_c, 0, 76, 64
1, 80210, Note_on_c, 0, 77, 49
1, 80250, Control_c, 0, 64, 0
1, 80255, Note_on_c, 0, 63, 36
1, 80258, Note_on_c, 0, 60, 36
1, 80264, Note_on_c, 0, 53, 40
1, 80296, Note_off_c, 0, 77, 64
1, 80298, Note_on_c, 0, 80, 66
1, 80308, Note_off_c, 0, 63, 64
1, 80316, Note_off_c, 0, 53, 64
1, 80318, Note_off_c, 0, 60, 64
1, 80408, Note_on_c, 0, 78, 60
1, 80434, Note_off_c, 0, 80, 64
1, 80476, Note_on_c, 0, 46, 62
1, 80508, Note_on_c, 0, 77, 69
1, 80516, Note_off_c, 0, 78, 64
1, 80534, Note_off_c, 0, 46, 64
1, 80588, Note_off_c, 0, 77, 64
1, 80588, Control_c, 0, 64, 127
1, 80598, Note_on_c, 0, 78, 58
1, 80688, Note_on_c, 0, 61, 50
1, 80694, Note_on_c, 0, 53, 76
1, 80696, Note_on_c, 0, 77, 63
1, 80726, Note_off_c, 0, 78, 64
1, 80750, Note_off_c, 0, 61, 64
1, 80754, Note_off_c, 0, 53, 64
1, 80798, Note_on_c, 0, 76, 62
1, 80816, Note_off_c, 0, 77, 64
1, 80836, Control_c, 0, 64, 0
1, 80886, Note_on_c, 0, 61, 46
1, 80888, Note_on_c, 0, 77, 66
1, 80898, Note_on_c, 0, 53, 57
1, 80936, Note_off_c, 0, 76, 64
1, 80954, Note_off_c, 0, 61, 64
1, 80956, Note_off_c, 0, 53, 64
1, 80986, Note_on_c, 0, 82, 66
1, 80998, Note_off_c, 0, 77, 64
1, 81046, Note_off_c, 0, 82, 64
1, 81088, Note_on_c, 0, 48, 52
1, 81094, Note_on_c, 0, 80, 80
1, 81142, Note_off_c, 0, 48, 64
1, 81158, Control_c, 0, 64, 127
1, 81174, Note_off_c, 0, 80, 64
1, 81174, Note_on_c, 0, 82, 58
1, 81232, Note_on_c, 0, 80, 71
1, 81284, Note_on_c, 0, 66, 48
1, 81287, Note_off_c, 0, 82, 64
1, 81290, Note_on_c, 0, 56, 26
1, 81292, Note_on_c, 0, 63, 52
1, 81306, Note_on_c, 0, 79, 88
1, 81338, Note_off_c, 0, 80, 64
1, 81342, Note_off_c, 0, 66, 64
1, 81352, Note_off_c, 0, 63, 64
1, 81366, Note_off_c, 0, 56, 64
1, 81389, Control_c, 0, 64, 0
1, 81394, Note_on_c, 0, 80, 83
1, 81440, Note_off_c, 0, 79, 64
1, 81484, Note_on_c, 0, 66, 55
1, 81492, Note_on_c, 0, 56, 32
1, 81500, Note_on_c, 0, 84, 83
1, 81530, Note_off_c, 0, 66, 64
1, 81533, Note_off_c, 0, 80, 64
1, 81556, Note_off_c, 0, 56, 64
1, 81590, Note_on_c, 0, 82, 77
1, 81644, Note_off_c, 0, 84, 64
1, 81684, Note_on_c, 0, 49, 62
1, 81700, Note_on_c, 0, 80, 78
1, 81726, Note_off_c, 0, 82, 64
1, 81726, Note_off_c, 0, 49, 64
1, 81756, Control_c, 0, 64, 127
1, 81776, Note_on_c, 0, 82, 79
1, 81806, Note_off_c, 0, 80, 64
1, 81864, Note_on_c, 0, 80, 80
1, 81884, Note_on_c, 0, 61, 46
1, 81888, Note_on_c, 0, 65, 41
1, 81888, Note_on_c, 0, 56, 33
1, 81920, Note_off_c, 0, 82, 64
1, 81944, Note_off_c, 0, 61, 64
1, 81944, Note_off_c, 0, 65, 64
1, 81954, Note_on_c, 0, 79, 75
1, 81957, Note_off_c, 0, 80, 64
1, 81962, Note_off_c, 0, 56, 64
1, 82050, Control_c, 0, 64, 0
1, 82050, Note_on_c, 0, 80, 60
1, 82076, Note_off_c, 0, 79, 64
1, 82150, Note_on_c, 0, 85, 65
1, 82156, Note_off_c, 0, 80, 64
1, 82240, Note_off_c, 0, 85, 64
1, 82240, Note_on_c, 0, 54, 54
1, 82254, Note_on_c, 0, 84, 78
1, 82320, Note_off_c, 0, 54, 64
1, 82352, Note_off_c, 0, 84, 64
1, 82352, Note_on_c, 0, 82, 57
1, 82418, Control_c, 0, 64, 127
1, 82446, Note_on_c, 0, 80, 64
1, 82460, Note_on_c, 0, 63, 48
1, 82470, Note_on_c, 0, 58, 38
1, 82476, Note_off_c, 0, 82, 64
1, 82508, Note_off_c, 0, 63, 64
1, 82528, Note_off_c, 0, 58, 64
1, 82532, Note_on_c, 0, 78, 62
1, 82588, Note_off_c, 0, 80, 64
1, 82622, Note_off_c, 0, 78, 64
1, 82626, Note_on_c, 0, 77, 57
1, 82678, Control_c, 0, 64, 0
1, 82702, Note_off_c, 0, 77, 64
1, 82710, Note_on_c, 0, 75, 50
1, 82790, Note_on_c, 0, 44, 48
1, 82800, Note_on_c, 0, 73, 62
1, 82840, Note_off_c, 0, 75, 64
1, 82842, Note_off_c, 0, 44, 64
1, 82892, Note_off_c, 0, 73, 64
1, 82894, Control_c, 0, 64, 127
1, 82896, Note_on_c, 0, 72, 45
1, 82982, Note_on_c, 0, 61, 48
1, 82984, Note_on_c, 0, 70, 55
1, 82988, Note_on_c, 0, 56, 27
1, 83000, Note_off_c, 0, 72, 64
1, 83056, Note_off_c, 0, 56, 64
1, 83058, Note_off_c, 0, 61, 64
1, 83090, Note_on_c, 0, 68, 52
1, 83124, Note_off_c, 0, 70, 64
1, 83170, Control_c, 0, 64, 0
1, 83182, Note_on_c, 0, 66, 52
1, 83242, Note_off_c, 0, 68, 64
1, 83264, Note_off_c, 0, 66, 64
1, 83278, Note_on_c, 0, 65, 50
1, 83352, Note_off_c, 0, 65, 64
1, 83356, Note_on_c, 0, 44, 56
1, 83384, Note_on_c, 0, 63, 63
1, 83404, Note_off_c, 0, 44, 64
1, 83460, Note_on_c, 0, 61, 64
1, 83478, Control_c, 0, 64, 127
1, 83488, Note_off_c, 0, 63, 64
1, 83518, Note_off_c, 0, 61, 64
1, 83540, Note_on_c, 0, 60, 66
1, 83548, Note_on_c, 0, 56, 48
1, 83550, Note_on_c, 0, 54, 42
1, 83568, Control_c, 0, 64, 0
1, 83604, Note_off_c, 0, 56, 64
1, 83606, Note_off_c, 0, 54, 64
1, 83627, Note_off_c, 0, 60, 64
1, 83640, Note_on_c, 0, 63, 70
1, 83696, Note_off_c, 0, 63, 64
1, 83756, Note_on_c, 0, 70, 51
1, 83766, Note_on_c, 0, 60, 14
1, 83768, Note_on_c, 0, 56, 18
1, 83768, Note_on_c, 0, 54, 36
1, 83825, Note_off_c, 0, 60, 64
1, 83826, Note_off_c, 0, 54, 64
1, 83842, Note_off_c, 0, 56, 64
1, 83842, Note_on_c, 0, 68, 55
1, 83884, Note_off_c, 0, 70, 64
1, 83898, Note_off_c, 0, 68, 64
1, 83936, Note_on_c, 0, 67, 65
1, 83946, Note_on_c, 0, 49, 47
1, 83998, Note_off_c, 0, 67, 64
1, 83998, Note_off_c, 0, 49, 64
1, 84042, Note_on_c, 0, 68, 53
1, 84062, Control_c, 0, 64, 127
1, 84114, Note_off_c, 0, 68, 64
1, 84132, Note_on_c, 0, 70, 50
1, 84150, Note_on_c, 0, 56, 36
1, 84153, Note_on_c, 0, 65, 28
1, 84182, Note_off_c, 0, 70, 64
1, 84196, Note_on_c, 0, 61, 15
1, 84212, Note_on_c, 0, 72, 66
1, 84216, Note_off_c, 0, 65, 64
1, 84216, Control_c, 0, 64, 0
1, 84221, Note_off_c, 0, 56, 64
1, 84262, Note_off_c, 0, 61, 64
1, 84278, Note_off_c, 0, 72, 64
1, 84320, Note_on_c, 0, 73, 62
1, 84412, Note_on_c, 0, 75, 54
1, 84432, Note_off_c, 0, 73, 64
1, 84462, Note_off_c, 0, 75, 64
1, 84490, Note_on_c, 0, 57, 46
1, 84508, Note_on_c, 0, 77, 63
1, 84550, Note_off_c, 0, 77, 64
1, 84598, Note_on_c, 0, 78, 60
1, 84652, Note_on_c, 0, 77, 38
1, 84660, Note_off_c, 0, 78, 64
1, 84702, Note_on_c, 0, 65, 29
1, 84704, Note_on_c, 0, 63, 41
1, 84738, Note_off_c, 0, 77, 64
1, 84748, Note_on_c, 0, 76, 51
1, 84758, Note_off_c, 0, 63, 64
1, 84764, Note_off_c, 0, 65, 64
1, 84818, Note_off_c, 0, 76, 64
1, 84832, Note_on_c, 0, 77, 50
1, 84910, Note_off_c, 0, 77, 64
1, 84916, Note_on_c, 0, 63, 18
1, 84920, Note_on_c, 0, 65, 18
1, 84928, Note_on_c, 0, 80, 59
1, 84984, Control_c, 0, 64, 127
1, 84986, Note_off_c, 0, 63, 64
1, 84987, Note_off_c, 0, 65, 64
1, 85022, Note_on_c, 0, 78, 60
1, 85066, Note_off_c, 0, 80, 64
1, 85076, Note_off_c, 0, 57, 64
1, 85094, Note_off_c, 0, 78, 64
1, 85104, Note_on_c, 0, 58, 50
1, 85114, Note_on_c, 0, 77, 60
1, 85152, Control_c, 0, 64, 0
1, 85168, Note_off_c, 0, 77, 64
1, 85206, Note_on_c, 0, 78, 59
1, 85292, Note_on_c, 0, 65, 43
1, 85300, Note_on_c, 0, 77, 56
1, 85300, Note_on_c, 0, 61, 42
1, 85334, Note_off_c, 0, 78, 64
1, 85352, Note_off_c, 0, 65, 64
1, 85352, Note_off_c, 0, 77, 64
1, 85360, Note_off_c, 0, 61, 64
1, 85370, Note_on_c, 0, 76, 61
1, 85460, Note_on_c, 0, 65, 33
1, 85468, Note_on_c, 0, 61, 34
1, 85471, Note_on_c, 0, 77, 60
1, 85476, Control_c, 0, 64, 127
1, 85482, Note_off_c, 0, 58, 64
1, 85498, Note_off_c, 0, 76, 64
1, 85524, Note_off_c, 0, 65, 64
1, 85526, Note_off_c, 0, 61, 64
1, 85544, Note_off_c, 0, 77, 64
1, 85552, Note_on_c, 0, 82, 66
1, 85602, Note_off_c, 0, 82, 64
1, 85644, Control_c, 0, 64, 0
1, 85670, Note_on_c, 0, 80, 74
1, 85684, Note_on_c, 0, 60, 45
1, 85724, Note_off_c, 0, 80, 64
1, 85742, Note_on_c, 0, 82, 61
1, 85812, Note_on_c, 0, 80, 68
1, 85852, Note_on_c, 0, 68, 37
1, 85856, Note_on_c, 0, 66, 34
1, 85868, Note_off_c, 0, 82, 64
1, 85886, Note_on_c, 0, 79, 85
1, 85912, Note_off_c, 0, 80, 64
1, 85912, Note_off_c, 0, 68, 64
1, 85914, Note_off_c, 0, 66, 64
1, 85978, Note_on_c, 0, 80, 80
1, 85994, Note_off_c, 0, 79, 64
1, 86076, Note_on_c, 0, 68, 38
1, 86080, Note_on_c, 0, 66, 31
1, 86084, Note_off_c, 0, 80, 64
1, 86084, Note_on_c, 0, 84, 85
1, 86138, Note_off_c, 0, 68, 64
1, 86144, Note_off_c, 0, 66, 64
1, 86172, Note_on_c, 0, 82, 70
1, 86182, Note_off_c, 0, 60, 64
1, 86196, Note_off_c, 0, 84, 64
1, 86284, Note_on_c, 0, 80, 73
1, 86292, Note_on_c, 0, 61, 39
1, 86310, Note_off_c, 0, 82, 64
1, 86370, Note_on_c, 0, 82, 66
1, 86388, Note_off_c, 0, 80, 64
1, 86484, Note_on_c, 0, 80, 53
1, 86508, Note_on_c, 0, 68, 34
1, 86512, Note_on_c, 0, 65, 32
1, 86522, Note_off_c, 0, 82, 64
1, 86592, Note_on_c, 0, 79, 62
1, 86600, Note_off_c, 0, 80, 64
1, 86600, Note_off_c, 0, 68, 64
1, 86644, Control_c, 0, 64, 127
1, 86650, Note_off_c, 0, 65, 64
1, 86696, Note_off_c, 0, 79, 64
1, 86706, Note_on_c, 0, 80, 48
1, 86732, Note_off_c, 0, 61, 64
1, 86752, Note_off_c, 0, 80, 64
1, 86812, Control_c, 0, 64, 0
1, 86820, Note_on_c, 0, 89, 35
1, 86894, Note_off_c, 0, 89, 64
1, 86920, Note_on_c, 0, 54, 43
1, 86926, Note_on_c, 0, 87, 52
1, 87004, Note_off_c, 0, 54, 64
1, 87012, Control_c, 0, 64, 127
1, 87022, Note_off_c, 0, 87, 64
1, 87044, Note_on_c, 0, 85, 52
1, 87106, Note_off_c, 0, 85, 64
1, 87140, Note_on_c, 0, 84, 59
1, 87150, Note_on_c, 0, 70, 40
1, 87154, Note_on_c, 0, 61, 35
1, 87206, Note_off_c, 0, 70, 64
1, 87216, Note_off_c, 0, 61, 64
1, 87234, Note_off_c, 0, 84, 64
1, 87252, Note_on_c, 0, 82, 48
1, 87352, Note_on_c, 0, 80, 60
1, 87410, Note_off_c, 0, 82, 64
1, 87452, Note_on_c, 0, 78, 61
1, 87472, Control_c, 0, 64, 0
1, 87512, Note_off_c, 0, 80, 64
1, 87534, Note_on_c, 0, 44, 45
1, 87560, Note_on_c, 0, 77, 62
1, 87568, Note_off_c, 0, 78, 64
1, 87586, Note_off_c, 0, 44, 64
1, 87656, Control_c, 0, 64, 127
1, 87660, Note_off_c, 0, 77, 64
1, 87662, Note_on_c, 0, 75, 53
1, 87762, Note_on_c, 0, 61, 31
1, 87768, Note_on_c, 0, 56, 25
1, 87776, Note_on_c, 0, 73, 58
1, 87828, Note_off_c, 0, 75, 64
1, 87838, Note_off_c, 0, 56, 64
1, 87854, Note_off_c, 0, 61, 64
1, 87882, Note_on_c, 0, 72, 50
1, 87890, Note_off_c, 0, 73, 64
1, 87968, Note_off_c, 0, 72, 64
1, 87980, Note_on_c, 0, 70, 58
1, 88088, Note_on_c, 0, 68, 62
1, 88104, Note_off_c, 0, 70, 64
1, 88104, Control_c, 0, 64, 0
1, 88202, Note_on_c, 0, 69, 54
1, 88202, Note_on_c, 0, 44, 43
1, 88214, Note_off_c, 0, 68, 64
1, 88266, Note_off_c, 0, 44, 64
1, 88274, Note_off_c, 0, 69, 64
1, 88332, Note_on_c, 0, 72, 46
1, 88420, Note_off_c, 0, 72, 64
1, 88432, Note_on_c, 0, 70, 38
1, 88460, Note_on_c, 0, 60, 31
1, 88464, Note_on_c, 0, 56, 41
1, 88467, Note_on_c, 0, 54, 38
1, 88528, Note_off_c, 0, 60, 64
1, 88528, Note_off_c, 0, 56, 64
1, 88532, Note_off_c, 0, 54, 64
1, 88562, Note_on_c, 0, 65, 42
1, 88580, Note_off_c, 0, 70, 64
1, 88676, Note_off_c, 0, 65, 64
1, 88682, Note_on_c, 0, 66, 37
1, 88696, Note_on_c, 0, 56, 31
1, 88698, Note_on_c, 0, 54, 46
1, 88756, Note_off_c, 0, 54, 64
1, 88764, Note_off_c, 0, 56, 64
1, 88786, Note_off_c, 0, 66, 64
1, 88830, Note_on_c, 0, 60, 31
1, 89006, Note_off_c, 0, 60, 64
1, 89030, Note_on_c, 0, 61, 44
1, 89034, Note_on_c, 0, 49, 26
1, 89161, Control_c, 0, 64, 127
1, 89176, Note_off_c, 0, 49, 64
1, 89192, Note_off_c, 0, 61, 64
1, 89474, Note_on_c, 0, 65, 25
1, 89482, Note_on_c, 0, 61, 17
1, 89484, Note_on_c, 0, 56, 20
1, 89580, Note_off_c, 0, 65, 64
1, 89592, Note_off_c, 0, 56, 64
1, 89594, Note_off_c, 0, 61, 64
1, 89748, Note_on_c, 0, 77, 47
1, 89824, Control_c, 0, 64, 0
1, 89994, Note_on_c, 0, 45, 33
1, 90058, Note_off_c, 0, 45, 64
1, 90070, Control_c, 0, 64, 127
1, 90192, Note_off_c, 0, 77, 64
1, 90198, Note_on_c, 0, 78, 47
1, 90272, Note_on_c, 0, 77, 53
1, 90290, Note_off_c, 0, 78, 64
1, 90318, Note_on_c, 0, 63, 38
1, 90324, Note_on_c, 0, 60, 39
1, 90328, Note_on_c, 0, 53, 32
1, 90356, Note_off_c, 0, 77, 64
1, 90374, Note_off_c, 0, 63, 64
1, 90382, Note_on_c, 0, 76, 50
1, 90386, Note_off_c, 0, 60, 64
1, 90400, Note_off_c, 0, 53, 64
1, 90422, Control_c, 0, 64, 0
1, 90448, Note_off_c, 0, 76, 64
1, 90470, Note_on_c, 0, 77, 48
1, 90558, Note_on_c, 0, 63, 28
1, 90566, Note_off_c, 0, 77, 64
1, 90574, Note_on_c, 0, 80, 62
1, 90620, Note_off_c, 0, 63, 64
1, 90676, Note_on_c, 0, 78, 61
1, 90708, Note_off_c, 0, 80, 64
1, 90774, Note_on_c, 0, 77, 64
1, 90784, Note_on_c, 0, 46, 35
1, 90786, Note_off_c, 0, 78, 64
1, 90806, Control_c, 0, 64, 127
1, 90854, Note_off_c, 0, 46, 64
1, 90872, Note_off_c, 0, 77, 64
1, 90872, Note_on_c, 0, 78, 56
1, 90978, Note_on_c, 0, 61, 42
1, 90978, Note_on_c, 0, 53, 51
1, 90996, Note_on_c, 0, 77, 60
1, 91014, Note_off_c, 0, 78, 64
1, 91022, Control_c, 0, 64, 0
1, 91034, Note_off_c, 0, 53, 64
1, 91036, Note_off_c, 0, 61, 64
1, 91062, Note_off_c, 0, 77, 64
1, 91068, Note_on_c, 0, 76, 55
1, 91154, Note_off_c, 0, 76, 64
1, 91174, Note_on_c, 0, 53, 23
1, 91176, Note_on_c, 0, 61, 45
1, 91180, Note_on_c, 0, 77, 62
1, 91226, Note_off_c, 0, 77, 64
1, 91240, Note_off_c, 0, 53, 64
1, 91240, Note_off_c, 0, 61, 64
1, 91262, Note_on_c, 0, 82, 62
1, 91322, Note_off_c, 0, 82, 64
1, 91380, Note_on_c, 0, 80, 74
1, 91392, Note_on_c, 0, 48, 47
1, 91422, Control_c, 0, 64, 127
1, 91434, Note_off_c, 0, 80, 64
1, 91444, Note_off_c, 0, 48, 64
1, 91464, Note_on_c, 0, 82, 55
1, 91524, Note_on_c, 0, 80, 62
1, 91588, Note_off_c, 0, 82, 64
1, 91604, Note_on_c, 0, 66, 38
1, 91608, Note_on_c, 0, 63, 37
1, 91610, Note_on_c, 0, 56, 31
1, 91616, Note_on_c, 0, 79, 75
1, 91636, Note_off_c, 0, 80, 64
1, 91638, Control_c, 0, 64, 0
1, 91662, Note_off_c, 0, 63, 64
1, 91666, Note_off_c, 0, 66, 64
1, 91678, Note_off_c, 0, 56, 64
1, 91694, Note_off_c, 0, 79, 64
1, 91694, Note_on_c, 0, 80, 73
1, 91800, Note_on_c, 0, 84, 74
1, 91803, Note_on_c, 0, 66, 24
1, 91808, Note_on_c, 0, 56, 31
1, 91810, Note_on_c, 0, 63, 17
1, 91828, Note_off_c, 0, 80, 64
1, 91866, Note_off_c, 0, 56, 64
1, 91869, Note_off_c, 0, 63, 64
1, 91876, Note_off_c, 0, 66, 64
1, 91882, Note_on_c, 0, 82, 64
1, 91930, Note_off_c, 0, 84, 64
1, 91980, Note_on_c, 0, 80, 70
1, 91984, Note_on_c, 0, 49, 44
1, 92000, Note_off_c, 0, 82, 64
1, 92020, Control_c, 0, 64, 127
1, 92040, Note_off_c, 0, 49, 64
1, 92060, Note_on_c, 0, 82, 67
1, 92078, Note_off_c, 0, 80, 64
1, 92154, Note_on_c, 0, 80, 65
1, 92178, Note_on_c, 0, 65, 39
1, 92178, Note_on_c, 0, 61, 36
1, 92180, Note_on_c, 0, 56, 31
1, 92208, Note_off_c, 0, 82, 64
1, 92234, Note_off_c, 0, 65, 64
1, 92237, Control_c, 0, 64, 0
1, 92242, Note_off_c, 0, 61, 64
1, 92248, Note_off_c, 0, 56, 64
1, 92252, Note_on_c, 0, 79, 73
1, 92264, Note_off_c, 0, 80, 64
1, 92350, Note_off_c, 0, 79, 64
1, 92352, Note_on_c, 0, 80, 54
1, 92426, Note_off_c, 0, 80, 64
1, 92456, Note_on_c, 0, 85, 48
1, 92510, Note_on_c, 0, 54, 39
1, 92536, Note_off_c, 0, 85, 64
1, 92542, Note_on_c, 0, 84, 67
1, 92572, Note_off_c, 0, 54, 64
1, 92638, Note_on_c, 0, 82, 43
1, 92644, Note_off_c, 0, 84, 64
1, 92682, Control_c, 0, 64, 127
1, 92724, Note_on_c, 0, 63, 40
1, 92730, Note_on_c, 0, 80, 47
1, 92730, Note_on_c, 0, 58, 31
1, 92766, Note_off_c, 0, 82, 64
1, 92776, Note_off_c, 0, 63, 64
1, 92790, Note_off_c, 0, 58, 64
1, 92798, Note_on_c, 0, 78, 55
1, 92818, Note_off_c, 0, 80, 64
1, 92866, Control_c, 0, 64, 0
1, 92886, Note_off_c, 0, 78, 64
1, 92886, Note_on_c, 0, 77, 54
1, 92970, Note_on_c, 0, 75, 49
1, 92978, Note_off_c, 0, 77, 64
1, 93048, Note_on_c, 0, 44, 42
1, 93066, Note_on_c, 0, 73, 53
1, 93092, Note_off_c, 0, 75, 64
1, 93108, Note_off_c, 0, 44, 64
1, 93142, Control_c, 0, 64, 127
1, 93150, Note_off_c, 0, 73, 64
1, 93150, Note_on_c, 0, 72, 50
1, 93235, Note_on_c, 0, 70, 52
1, 93238, Note_on_c, 0, 61, 46
1, 93240, Note_off_c, 0, 72, 64
1, 93242, Note_on_c, 0, 53, 41
1, 93242, Note_on_c, 0, 56, 15
1, 93280, Control_c, 0, 64, 0
1, 93294, Note_off_c, 0, 61, 64
1, 93298, Note_off_c, 0, 53, 64
1, 93304, Note_off_c, 0, 56, 64
1, 93340, Note_on_c, 0, 68, 40
1, 93374, Note_off_c, 0, 70, 64
1, 93396, Note_on_c, 0, 66, 53
1, 93440, Note_off_c, 0, 68, 64
1, 93502, Note_on_c, 0, 65, 45
1, 93506, Note_off_c, 0, 66, 64
1, 93566, Note_on_c, 0, 44, 49
1, 93584, Note_on_c, 0, 63, 69
1, 93586, Note_off_c, 0, 65, 64
1, 93622, Note_off_c, 0, 44, 64
1, 93658, Note_on_c, 0, 61, 66
1, 93684, Note_off_c, 0, 63, 64
1, 93710, Note_off_c, 0, 61, 64
1, 93742, Note_on_c, 0, 60, 63
1, 93748, Note_on_c, 0, 56, 55
1, 93752, Note_on_c, 0, 54, 50
1, 93792, Note_off_c, 0, 60, 64
1, 93802, Note_off_c, 0, 56, 64
1, 93804, Note_off_c, 0, 54, 64
1, 93842, Note_on_c, 0, 63, 60
1, 93890, Note_off_c, 0, 63, 64
1, 93908, Note_on_c, 0, 70, 49
1, 93930, Note_on_c, 0, 60, 46
1, 93940, Note_on_c, 0, 56, 26
1, 93940, Note_on_c, 0, 54, 20
1, 93988, Note_off_c, 0, 60, 64
1, 94010, Note_off_c, 0, 56, 64
1, 94010, Note_off_c, 0, 54, 64
1, 94010, Note_on_c, 0, 68, 60
1, 94038, Note_off_c, 0, 70, 64
1, 94062, Note_off_c, 0, 68, 64
1, 94100, Note_on_c, 0, 67, 70
1, 94102, Note_on_c, 0, 49, 53
1, 94148, Note_off_c, 0, 49, 64
1, 94160, Note_off_c, 0, 67, 64
1, 94202, Note_on_c, 0, 68, 61
1, 94278, Note_off_c, 0, 68, 64
1, 94281, Note_on_c, 0, 70, 65
1, 94294, Note_on_c, 0, 65, 35
1, 94314, Note_on_c, 0, 61, 17
1, 94314, Note_on_c, 0, 56, 12
1, 94330, Note_off_c, 0, 70, 64
1, 94356, Note_off_c, 0, 65, 64
1, 94360, Note_on_c, 0, 72, 72
1, 94366, Note_off_c, 0, 56, 64
1, 94372, Note_off_c, 0, 61, 64
1, 94414, Note_off_c, 0, 72, 64
1, 94458, Note_on_c, 0, 73, 68
1, 94534, Note_on_c, 0, 75, 70
1, 94540, Note_off_c, 0, 73, 64
1, 94574, Note_off_c, 0, 75, 64
1, 94620, Note_on_c, 0, 57, 72
1, 94642, Note_on_c, 0, 77, 51
1, 94690, Note_off_c, 0, 77, 64
1, 94704, Note_on_c, 0, 78, 72
1, 94754, Note_off_c, 0, 78, 64
1, 94757, Note_on_c, 0, 77, 75
1, 94796, Note_off_c, 0, 77, 64
1, 94814, Note_on_c, 0, 65, 47
1, 94817, Note_on_c, 0, 63, 54
1, 94828, Note_on_c, 0, 76, 75
1, 94862, Note_off_c, 0, 65, 64
1, 94864, Note_off_c, 0, 63, 64
1, 94898, Note_off_c, 0, 76, 64
1, 94910, Note_on_c, 0, 77, 61
1, 94986, Note_off_c, 0, 77, 64
1, 94992, Note_on_c, 0, 80, 74
1, 95006, Note_on_c, 0, 63, 31
1, 95006, Note_on_c, 0, 65, 28
1, 95064, Note_off_c, 0, 63, 64
1, 95066, Note_off_c, 0, 65, 64
1, 95084, Note_on_c, 0, 78, 75
1, 95138, Note_off_c, 0, 80, 64
1, 95140, Note_off_c, 0, 57, 64
1, 95156, Note_on_c, 0, 58, 49
1, 95174, Note_on_c, 0, 77, 78
1, 95194, Note_off_c, 0, 78, 64
1, 95250, Note_on_c, 0, 78, 79
1, 95252, Note_off_c, 0, 77, 64
1, 95313, Note_on_c, 0, 65, 38
1, 95314, Note_on_c, 0, 61, 57
1, 95336, Note_on_c, 0, 77, 64
1, 95371, Note_off_c, 0, 65, 64
1, 95372, Note_off_c, 0, 61, 64
1, 95392, Note_off_c, 0, 78, 64
1, 95418, Note_on_c, 0, 76, 67
1, 95441, Note_off_c, 0, 77, 64
1, 95504, Note_on_c, 0, 77, 81
1, 95506, Note_on_c, 0, 61, 47
1, 95508, Note_on_c, 0, 65, 31
1, 95544, Note_off_c, 0, 58, 64
1, 95550, Note_off_c, 0, 76, 64
1, 95560, Note_off_c, 0, 61, 64
1, 95568, Note_off_c, 0, 65, 64
1, 95594, Note_on_c, 0, 82, 66
1, 95610, Note_off_c, 0, 77, 64
1, 95644, Note_off_c, 0, 82, 64
1, 95696, Note_on_c, 0, 60, 40
1, 95698, Note_on_c, 0, 80, 84
1, 95752, Note_off_c, 0, 80, 64
1, 95766, Note_on_c, 0, 82, 52
1, 95830, Note_on_c, 0, 80, 75
1, 95850, Note_on_c, 0, 68, 37
1, 95852, Note_on_c, 0, 66, 33
1, 95880, Note_off_c, 0, 82, 64
1, 95902, Note_on_c, 0, 79, 87
1, 95910, Note_off_c, 0, 66, 64
1, 95914, Note_off_c, 0, 68, 64
1, 95944, Note_off_c, 0, 80, 64
1, 95994, Note_on_c, 0, 80, 89
1, 95996, Note_off_c, 0, 79, 64
1, 96082, Note_on_c, 0, 68, 32
1, 96086, Note_on_c, 0, 66, 40
1, 96106, Note_off_c, 0, 80, 64
1, 96106, Note_on_c, 0, 84, 80
1, 96142, Note_off_c, 0, 66, 64
1, 96168, Note_off_c, 0, 68, 64
1, 96196, Note_off_c, 0, 60, 64
1, 96220, Note_on_c, 0, 82, 68
1, 96244, Note_off_c, 0, 84, 64
1, 96334, Note_on_c, 0, 61, 28
1, 96340, Note_on_c, 0, 80, 65
1, 96346, Note_off_c, 0, 82, 64
1, 96462, Note_on_c, 0, 82, 47
1, 96464, Note_off_c, 0, 80, 64
1, 96614, Note_on_c, 0, 68, 26
1, 96616, Note_on_c, 0, 65, 22
1, 96622, Note_off_c, 0, 82, 64
1, 96628, Note_on_c, 0, 80, 46
1, 96740, Note_off_c, 0, 80, 64
1, 96796, Note_on_c, 0, 79, 51
1, 96892, Note_off_c, 0, 79, 64
1, 96938, Control_c, 0, 64, 127
1, 96941, Note_off_c, 0, 68, 64
1, 96958, Note_off_c, 0, 61, 64
1, 96984, Note_off_c, 0, 65, 64
1, 97038, Note_on_c, 0, 80, 49
1, 97112, Note_off_c, 0, 80, 64
1, 97480, Note_on_c, 0, 101, 31
1, 97676, Control_c, 0, 64, 0
1, 97800, Note_on_c, 0, 42, 24
1, 97902, Note_off_c, 0, 101, 64
1, 97902, Note_on_c, 0, 99, 29
1, 97968, Control_c, 0, 64, 127
1, 97996, Note_off_c, 0, 42, 64
1, 98076, Note_off_c, 0, 99, 64
1, 98102, Note_on_c, 0, 97, 21
1, 98268, Note_off_c, 0, 97, 64
1, 98268, Note_on_c, 0, 96, 23
1, 98396, Note_off_c, 0, 96, 64
1, 98402, Note_on_c, 0, 94, 39
1, 98478, Note_on_c, 0, 70, 13
1, 98534, Note_off_c, 0, 94, 64
1, 98546, Note_on_c, 0, 92, 32
1, 98554, Note_on_c, 0, 63, 9
1, 98602, Note_on_c, 0, 61, 2
1, 98646, Note_off_c, 0, 92, 64
1, 98666, Note_off_c, 0, 63, 64
1, 98666, Note_on_c, 0, 90, 32
1, 98676, Note_off_c, 0, 70, 64
1, 98684, Note_off_c, 0, 61, 64
1, 98786, Note_off_c, 0, 90, 64
1, 98794, Note_on_c, 0, 89, 27
1, 98876, Note_on_c, 0, 87, 41
1, 98878, Note_off_c, 0, 89, 64
1, 98976, Note_on_c, 0, 85, 49
1, 98982, Note_off_c, 0, 87, 64
1, 99062, Note_off_c, 0, 85, 64
1, 99066, Note_on_c, 0, 84, 55
1, 99142, Note_off_c, 0, 84, 64
1, 99146, Note_on_c, 0, 82, 56
1, 99212, Note_on_c, 0, 80, 67
1, 99276, Note_off_c, 0, 82, 64
1, 99284, Note_on_c, 0, 78, 69
1, 99348, Note_off_c, 0, 80, 64
1, 99358, Note_on_c, 0, 77, 69
1, 99360, Note_off_c, 0, 78, 64
1, 99426, Note_on_c, 0, 75, 62
1, 99434, Note_off_c, 0, 77, 64
1, 99498, Note_on_c, 0, 73, 71
1, 99542, Note_off_c, 0, 75, 64
1, 99564, Note_on_c, 0, 72, 62
1, 99570, Note_off_c, 0, 73, 64
1, 99614, Note_off_c, 0, 72, 64
1, 99626, Note_on_c, 0, 70, 72
1, 99706, Note_on_c, 0, 69, 86
1, 99724, Note_on_c, 0, 44, 54
1, 99762, Note_off_c, 0, 70, 64
1, 99764, Control_c, 0, 64, 0
1, 99882, Note_on_c, 0, 72, 87
1, 99916, Note_off_c, 0, 44, 64
1, 99928, Note_off_c, 0, 69, 64
1, 99934, Control_c, 0, 64, 127
1, 100010, Control_c, 0, 64, 0
1, 100026, Note_on_c, 0, 70, 86
1, 100036, Note_on_c, 0, 60, 57
1, 100038, Note_on_c, 0, 56, 58
1, 100039, Note_on_c, 0, 54, 61
1, 100090, Note_off_c, 0, 60, 64
1, 100094, Note_off_c, 0, 72, 64
1, 100099, Note_off_c, 0, 54, 64
1, 100108, Note_off_c, 0, 56, 64
1, 100196, Note_on_c, 0, 65, 96
1, 100222, Note_off_c, 0, 70, 64
1, 100402, Note_on_c, 0, 66, 87
1, 100405, Note_on_c, 0, 60, 63
1, 100405, Note_on_c, 0, 54, 72
1, 100408, Note_on_c, 0, 56, 44
1, 100454, Note_off_c, 0, 60, 64
1, 100457, Note_off_c, 0, 65, 64
1, 100466, Note_off_c, 0, 56, 64
1, 100490, Note_off_c, 0, 54, 64
1, 100612, Note_on_c, 0, 60, 93
1, 100636, Note_off_c, 0, 66, 64
1, 100940, Note_on_c, 0, 61, 101
1, 100958, Note_on_c, 0, 37, 62
1, 100978, Note_off_c, 0, 60, 64
1, 101270, Control_c, 0, 64, 127
1, 101306, Note_off_c, 0, 37, 64
1, 101708, Note_on_c, 0, 65, 53
1, 101713, Note_on_c, 0, 56, 46
1, 101716, Note_on_c, 0, 53, 70
1, 101766, Note_off_c, 0, 65, 64
1, 101771, Note_off_c, 0, 53, 64
1, 101787, Note_off_c, 0, 56, 64
1, 102614, Note_off_c, 0, 61, 64
1, 102930, Control_c, 0, 64, 0
1, 103680, Control_c, 0, 64, 0
1, 105600, Control_c, 0, 64, 0
1, 105600, End_track
0, 0, End_of_file
