0, 0, Header, 1, 8, 192
1, 0, Start_track
1, 0, Title_t, "Etude in C Minor"
1, 0, Copyright_t, "May NOT be used for commercial purposes."
1, 0, Text_t, "\012"
1, 0, Text_t, "Roll expression/accent tracks, where present, converted to MIDI velocties.\012"
1, 0, Text_t, "/music_category: Piano_Roll\012"
1, 0, Text_t, "/title: Etude in C Minor\012"
1, 0, Text_t, "/subtitle: Op 25 No 12\012"
1, 0, Text_t, "/roll_type: Duo-Art\012"
1, 0, Text_t, "/roll_manufacturer: QRS\012"
1, 0, Text_t, "/roll_number: 7287-1 (QRS1017)\012"
1, 0, Text_t, "/performer: Vladimir Horowitz\012"
1, 0, Text_t, "/composer: Chopin\012"
1, 0, Text_t, "/lyricist: \012"
1, 0, Text_t, "/roll_copyright: \012"
1, 0, Text_t, "/roll_date: \012"
1, 0, Text_t, "/scanned_by: Terry Smythe\012"
1, 0, Text_t, "/scan_system: Stibbons Mk3a\012"
1, 0, Text_t, "/date_scanned: 20 Oct 04\012"
1, 0, Text_t, "/owner: Milton Schenk\012"
1, 0, Time_signature, 4, 2, 24, 8
1, 0, Key_signature, 0, "major"
1, 0, Tempo, 500000
1, 0, Marker_t, "Standard MIDI:Duo-Art:LPI 121:Tempo  70: 10-20-2004"
1, 0, End_track
2, 0, Start_track
2, 0, Title_t, "Etude in C Minor"
2, 0, Program_c, 0, 0
2, 314, Note_on_c, 0, 36, 95
2, 314, Note_on_c, 0, 51, 95
2, 333, Control_c, 0, 64, 127
2, 393, Note_on_c, 0, 43, 60
2, 393, Note_on_c, 0, 55, 60
2, 411, Note_on_c, 0, 36, 0
2, 423, Note_on_c, 0, 51, 0
2, 430, Note_on_c, 0, 48, 60
2, 430, Note_on_c, 0, 63, 60
2, 453, Note_on_c, 0, 63, 0
2, 453, Note_on_c, 0, 48, 0
2, 453, Note_on_c, 0, 43, 0
2, 464, Note_on_c, 0, 55, 0
2, 473, Note_on_c, 0, 48, 60
2, 473, Note_on_c, 0, 63, 60
2, 528, Note_on_c, 0, 55, 60
2, 528, Note_on_c, 0, 67, 60
2, 534, Note_on_c, 0, 63, 0
2, 561, Note_on_c, 0, 48, 0
2, 568, Note_on_c, 0, 60, 60
2, 568, Note_on_c, 0, 75, 60
2, 586, Note_on_c, 0, 75, 0
2, 586, Note_on_c, 0, 67, 0
2, 586, Note_on_c, 0, 55, 0
2, 586, Note_on_c, 0, 60, 0
2, 606, Note_on_c, 0, 60, 60
2, 606, Note_on_c, 0, 75, 60
2, 631, Note_on_c, 0, 67, 60
2, 645, Note_on_c, 0, 79, 60
2, 666, Note_on_c, 0, 75, 0
2, 684, Note_on_c, 0, 87, 89
2, 686, Note_on_c, 0, 72, 89
2, 691, Note_on_c, 0, 79, 0
2, 691, Note_on_c, 0, 67, 0
2, 722, Note_on_c, 0, 60, 0
2, 726, Note_on_c, 0, 67, 60
2, 726, Note_on_c, 0, 79, 60
2, 747, Note_on_c, 0, 72, 0
2, 772, Note_on_c, 0, 87, 0
2, 781, Note_on_c, 0, 60, 57
2, 781, Note_on_c, 0, 75, 57
2, 801, Note_on_c, 0, 75, 0
2, 801, Note_on_c, 0, 79, 0
2, 801, Note_on_c, 0, 67, 0
2, 801, Note_on_c, 0, 60, 0
2, 822, Note_on_c, 0, 60, 52
2, 836, Note_on_c, 0, 75, 52
2, 863, Note_on_c, 0, 55, 52
2, 863, Note_on_c, 0, 67, 52
2, 886, Note_on_c, 0, 60, 0
2, 894, Note_on_c, 0, 48, 52
2, 914, Note_on_c, 0, 48, 0
2, 924, Note_on_c, 0, 63, 52
2, 929, Note_on_c, 0, 75, 0
2, 942, Note_on_c, 0, 67, 0
2, 944, Note_on_c, 0, 55, 0
2, 944, Note_on_c, 0, 63, 0
2, 951, Note_on_c, 0, 48, 52
2, 981, Note_on_c, 0, 63, 52
2, 1008, Note_on_c, 0, 55, 52
2, 1010, Note_on_c, 0, 43, 52
2, 1042, Note_on_c, 0, 48, 0
2, 1053, Control_c, 0, 64, 0
2, 1057, Note_on_c, 0, 43, 0
2, 1074, Note_on_c, 0, 50, 99
2, 1085, Note_on_c, 0, 55, 0
2, 1110, Note_on_c, 0, 63, 0
2, 1132, Note_on_c, 0, 36, 52
2, 1162, Note_on_c, 0, 41, 52
2, 1162, Note_on_c, 0, 56, 52
2, 1187, Note_on_c, 0, 48, 52
2, 1202, Note_on_c, 0, 62, 52
2, 1207, Control_c, 0, 64, 127
2, 1209, Note_on_c, 0, 48, 0
2, 1209, Note_on_c, 0, 41, 0
2, 1224, Note_on_c, 0, 56, 0
2, 1224, Note_on_c, 0, 62, 0
2, 1244, Note_on_c, 0, 48, 52
2, 1257, Note_on_c, 0, 62, 52
2, 1277, Note_on_c, 0, 36, 0
2, 1284, Note_on_c, 0, 53, 52
2, 1284, Note_on_c, 0, 68, 52
2, 1305, Note_on_c, 0, 50, 0
2, 1305, Note_on_c, 0, 62, 0
2, 1319, Note_on_c, 0, 48, 0
2, 1325, Note_on_c, 0, 60, 52
2, 1325, Note_on_c, 0, 74, 52
2, 1332, Note_on_c, 0, 53, 0
2, 1345, Note_on_c, 0, 68, 0
2, 1345, Note_on_c, 0, 60, 0
2, 1345, Note_on_c, 0, 74, 0
2, 1380, Note_on_c, 0, 60, 52
2, 1380, Note_on_c, 0, 74, 52
2, 1409, Note_on_c, 0, 65, 52
2, 1416, Note_on_c, 0, 74, 0
2, 1425, Note_on_c, 0, 80, 52
2, 1454, Note_on_c, 0, 74, 68
2, 1454, Note_on_c, 0, 86, 68
2, 1472, Note_on_c, 0, 80, 0
2, 1488, Note_on_c, 0, 65, 0
2, 1502, Note_on_c, 0, 60, 0
2, 1507, Note_on_c, 0, 80, 52
2, 1511, Note_on_c, 0, 74, 0
2, 1518, Note_on_c, 0, 65, 52
2, 1547, Note_on_c, 0, 60, 52
2, 1547, Note_on_c, 0, 74, 52
2, 1557, Note_on_c, 0, 86, 0
2, 1568, Note_on_c, 0, 80, 0
2, 1568, Note_on_c, 0, 74, 0
2, 1570, Note_on_c, 0, 60, 0
2, 1600, Note_on_c, 0, 65, 0
2, 1607, Note_on_c, 0, 60, 52
2, 1607, Note_on_c, 0, 74, 52
2, 1650, Note_on_c, 0, 53, 52
2, 1652, Note_on_c, 0, 68, 52
2, 1656, Note_on_c, 0, 60, 0
2, 1677, Note_on_c, 0, 48, 52
2, 1685, Note_on_c, 0, 74, 0
2, 1702, Note_on_c, 0, 48, 0
2, 1702, Note_on_c, 0, 53, 0
2, 1706, Note_on_c, 0, 62, 52
2, 1713, Note_on_c, 0, 68, 0
2, 1728, Note_on_c, 0, 62, 0
2, 1733, Note_on_c, 0, 48, 52
2, 1747, Note_on_c, 0, 62, 52
2, 1774, Note_on_c, 0, 41, 52
2, 1774, Note_on_c, 0, 56, 52
2, 1795, Note_on_c, 0, 48, 0
2, 1820, Control_c, 0, 64, 0
2, 1822, Note_on_c, 0, 41, 0
2, 1828, Note_on_c, 0, 53, 99
2, 1848, Note_on_c, 0, 56, 0
2, 1865, Note_on_c, 0, 62, 0
2, 1872, Note_on_c, 0, 36, 52
2, 1898, Note_on_c, 0, 44, 52
2, 1898, Note_on_c, 0, 60, 52
2, 1928, Control_c, 0, 64, 127
2, 1937, Note_on_c, 0, 65, 52
2, 1937, Note_on_c, 0, 48, 52
2, 1958, Note_on_c, 0, 48, 0
2, 1958, Note_on_c, 0, 65, 0
2, 1971, Note_on_c, 0, 44, 0
2, 1971, Note_on_c, 0, 60, 0
2, 1985, Note_on_c, 0, 36, 0
2, 1992, Note_on_c, 0, 48, 52
2, 1992, Note_on_c, 0, 65, 52
2, 2012, Note_on_c, 0, 53, 0
2, 2033, Note_on_c, 0, 72, 58
2, 2035, Note_on_c, 0, 56, 59
2, 2066, Note_on_c, 0, 65, 0
2, 2066, Note_on_c, 0, 48, 0
2, 2071, Note_on_c, 0, 77, 60
2, 2073, Note_on_c, 0, 60, 60
2, 2093, Note_on_c, 0, 60, 0
2, 2093, Note_on_c, 0, 77, 0
2, 2093, Note_on_c, 0, 56, 0
2, 2107, Note_on_c, 0, 72, 0
2, 2116, Note_on_c, 0, 60, 60
2, 2116, Note_on_c, 0, 77, 60
2, 2157, Note_on_c, 0, 68, 60
2, 2157, Note_on_c, 0, 84, 60
2, 2198, Note_on_c, 0, 72, 85
2, 2198, Note_on_c, 0, 89, 85
2, 2203, Note_on_c, 0, 84, 0
2, 2203, Note_on_c, 0, 68, 0
2, 2203, Note_on_c, 0, 60, 0
2, 2241, Note_on_c, 0, 68, 60
2, 2255, Note_on_c, 0, 84, 60
2, 2261, Note_on_c, 0, 77, 0
2, 2275, Note_on_c, 0, 72, 0
2, 2288, Note_on_c, 0, 89, 0
2, 2295, Note_on_c, 0, 77, 60
2, 2298, Note_on_c, 0, 60, 60
2, 2304, Note_on_c, 0, 68, 0
2, 2318, Note_on_c, 0, 84, 0
2, 2318, Note_on_c, 0, 77, 0
2, 2318, Note_on_c, 0, 60, 0
2, 2338, Note_on_c, 0, 60, 54
2, 2338, Note_on_c, 0, 77, 54
2, 2366, Note_on_c, 0, 72, 52
2, 2379, Note_on_c, 0, 56, 52
2, 2393, Note_on_c, 0, 48, 52
2, 2400, Note_on_c, 0, 77, 0
2, 2401, Note_on_c, 0, 60, 0
2, 2406, Note_on_c, 0, 65, 52
2, 2426, Note_on_c, 0, 56, 0
2, 2426, Note_on_c, 0, 72, 0
2, 2488, Note_on_c, 0, 44, 52
2, 2488, Note_on_c, 0, 60, 52
2, 2522, Note_on_c, 0, 48, 0
2, 2522, Note_on_c, 0, 65, 0
2, 2522, Control_c, 0, 64, 0
2, 2538, Note_on_c, 0, 44, 0
2, 2544, Note_on_c, 0, 51, 89
2, 2549, Note_on_c, 0, 60, 0
2, 2588, Note_on_c, 0, 36, 52
2, 2613, Note_on_c, 0, 43, 52
2, 2624, Note_on_c, 0, 55, 52
2, 2654, Note_on_c, 0, 48, 52
2, 2654, Note_on_c, 0, 63, 52
2, 2671, Control_c, 0, 64, 127
2, 2674, Note_on_c, 0, 63, 0
2, 2674, Note_on_c, 0, 43, 0
2, 2674, Note_on_c, 0, 48, 0
2, 2688, Note_on_c, 0, 55, 0
2, 2694, Note_on_c, 0, 48, 52
2, 2694, Note_on_c, 0, 63, 52
2, 2714, Note_on_c, 0, 36, 0
2, 2737, Note_on_c, 0, 55, 52
2, 2737, Note_on_c, 0, 67, 52
2, 2744, Note_on_c, 0, 51, 0
2, 2769, Note_on_c, 0, 63, 0
2, 2778, Note_on_c, 0, 60, 52
2, 2778, Note_on_c, 0, 75, 52
2, 2785, Note_on_c, 0, 48, 0
2, 2799, Note_on_c, 0, 60, 0
2, 2799, Note_on_c, 0, 67, 0
2, 2799, Note_on_c, 0, 75, 0
2, 2814, Note_on_c, 0, 55, 0
2, 2821, Note_on_c, 0, 60, 52
2, 2821, Note_on_c, 0, 75, 52
2, 2859, Note_on_c, 0, 67, 52
2, 2859, Note_on_c, 0, 79, 52
2, 2882, Note_on_c, 0, 75, 0
2, 2901, Note_on_c, 0, 72, 89
2, 2901, Note_on_c, 0, 87, 89
2, 2907, Note_on_c, 0, 79, 0
2, 2907, Note_on_c, 0, 67, 0
2, 2921, Note_on_c, 0, 60, 0
2, 2944, Note_on_c, 0, 67, 52
2, 2955, Note_on_c, 0, 79, 52
2, 2964, Note_on_c, 0, 72, 0
2, 2980, Note_on_c, 0, 60, 52
2, 2987, Note_on_c, 0, 87, 0
2, 2987, Note_on_c, 0, 79, 0
2, 2994, Note_on_c, 0, 75, 52
2, 3002, Note_on_c, 0, 67, 0
2, 3002, Note_on_c, 0, 60, 0
2, 3016, Note_on_c, 0, 75, 0
2, 3023, Note_on_c, 0, 60, 52
2, 3039, Note_on_c, 0, 75, 52
2, 3064, Note_on_c, 0, 55, 52
2, 3064, Note_on_c, 0, 67, 52
2, 3087, Note_on_c, 0, 60, 0
2, 3107, Note_on_c, 0, 48, 52
2, 3107, Note_on_c, 0, 63, 52
2, 3114, Note_on_c, 0, 75, 0
2, 3125, Note_on_c, 0, 48, 0
2, 3125, Note_on_c, 0, 63, 0
2, 3125, Note_on_c, 0, 55, 0
2, 3139, Note_on_c, 0, 67, 0
2, 3164, Note_on_c, 0, 48, 52
2, 3164, Note_on_c, 0, 63, 52
2, 3193, Note_on_c, 0, 43, 52
2, 3193, Note_on_c, 0, 55, 52
2, 3222, Note_on_c, 0, 48, 0
2, 3232, Note_on_c, 0, 50, 99
2, 3239, Note_on_c, 0, 43, 0
2, 3264, Control_c, 0, 64, 0
2, 3284, Note_on_c, 0, 36, 52
2, 3290, Note_on_c, 0, 55, 0
2, 3290, Note_on_c, 0, 63, 0
2, 3311, Note_on_c, 0, 56, 52
2, 3313, Note_on_c, 0, 41, 52
2, 3332, Control_c, 0, 64, 127
2, 3338, Note_on_c, 0, 48, 52
2, 3352, Note_on_c, 0, 62, 52
2, 3359, Note_on_c, 0, 48, 0
2, 3372, Note_on_c, 0, 41, 0
2, 3372, Note_on_c, 0, 56, 0
2, 3372, Note_on_c, 0, 62, 0
2, 3395, Note_on_c, 0, 48, 52
2, 3395, Note_on_c, 0, 62, 52
2, 3413, Note_on_c, 0, 36, 0
2, 3424, Note_on_c, 0, 50, 0
2, 3433, Note_on_c, 0, 53, 52
2, 3433, Note_on_c, 0, 68, 52
2, 3454, Note_on_c, 0, 62, 0
2, 3460, Note_on_c, 0, 60, 52
2, 3460, Note_on_c, 0, 74, 52
2, 3467, Note_on_c, 0, 48, 0
2, 3480, Note_on_c, 0, 74, 0
2, 3483, Note_on_c, 0, 60, 0
2, 3497, Note_on_c, 0, 53, 0
2, 3497, Note_on_c, 0, 68, 0
2, 3517, Note_on_c, 0, 60, 52
2, 3517, Note_on_c, 0, 74, 52
2, 3545, Note_on_c, 0, 80, 55
2, 3558, Note_on_c, 0, 65, 56
2, 3578, Note_on_c, 0, 80, 0
2, 3580, Note_on_c, 0, 60, 0
2, 3585, Note_on_c, 0, 86, 68
2, 3599, Note_on_c, 0, 72, 68
2, 3608, Note_on_c, 0, 65, 0
2, 3633, Note_on_c, 0, 74, 0
2, 3640, Note_on_c, 0, 65, 56
2, 3640, Note_on_c, 0, 80, 56
2, 3662, Note_on_c, 0, 72, 0
2, 3680, Note_on_c, 0, 60, 56
2, 3680, Note_on_c, 0, 74, 56
2, 3687, Note_on_c, 0, 86, 0
2, 3700, Note_on_c, 0, 60, 0
2, 3700, Note_on_c, 0, 80, 0
2, 3700, Note_on_c, 0, 74, 0
2, 3712, Note_on_c, 0, 65, 0
2, 3721, Note_on_c, 0, 60, 52
2, 3721, Note_on_c, 0, 74, 52
2, 3762, Note_on_c, 0, 53, 52
2, 3765, Note_on_c, 0, 68, 52
2, 3785, Note_on_c, 0, 60, 0
2, 3798, Note_on_c, 0, 74, 0
2, 3805, Note_on_c, 0, 48, 52
2, 3807, Note_on_c, 0, 62, 52
2, 3815, Note_on_c, 0, 53, 0
2, 3830, Note_on_c, 0, 68, 0
2, 3830, Note_on_c, 0, 62, 0
2, 3850, Note_on_c, 0, 62, 52
2, 3893, Note_on_c, 0, 41, 52
2, 3893, Note_on_c, 0, 56, 52
2, 3913, Note_on_c, 0, 48, 0
2, 3916, Note_on_c, 0, 62, 0
2, 3923, Control_c, 0, 64, 0
2, 3941, Note_on_c, 0, 41, 0
2, 3945, Note_on_c, 0, 51, 99
2, 3955, Note_on_c, 0, 56, 0
2, 3988, Note_on_c, 0, 36, 52
2, 4005, Note_on_c, 0, 41, 52
2, 4018, Note_on_c, 0, 56, 52
2, 4034, Control_c, 0, 64, 127
2, 4045, Note_on_c, 0, 47, 52
2, 4055, Note_on_c, 0, 63, 52
2, 4077, Note_on_c, 0, 63, 0
2, 4077, Note_on_c, 0, 41, 0
2, 4084, Note_on_c, 0, 48, 52
2, 4091, Note_on_c, 0, 56, 0
2, 4091, Note_on_c, 0, 47, 0
2, 4111, Note_on_c, 0, 63, 52
2, 4141, Note_on_c, 0, 53, 52
2, 4141, Note_on_c, 0, 68, 52
2, 4148, Note_on_c, 0, 51, 0
2, 4148, Note_on_c, 0, 36, 0
2, 4175, Note_on_c, 0, 63, 0
2, 4175, Note_on_c, 0, 48, 0
2, 4181, Note_on_c, 0, 59, 52
2, 4181, Note_on_c, 0, 75, 52
2, 4204, Note_on_c, 0, 75, 0
2, 4204, Note_on_c, 0, 53, 0
2, 4204, Note_on_c, 0, 68, 0
2, 4218, Note_on_c, 0, 59, 0
2, 4224, Note_on_c, 0, 60, 52
2, 4240, Note_on_c, 0, 75, 52
2, 4251, Note_on_c, 0, 65, 52
2, 4268, Note_on_c, 0, 80, 52
2, 4288, Note_on_c, 0, 75, 0
2, 4288, Note_on_c, 0, 60, 0
2, 4293, Note_on_c, 0, 71, 68
2, 4308, Note_on_c, 0, 87, 68
2, 4313, Note_on_c, 0, 65, 0
2, 4313, Note_on_c, 0, 80, 0
2, 4349, Note_on_c, 0, 65, 52
2, 4349, Note_on_c, 0, 80, 52
2, 4356, Note_on_c, 0, 71, 0
2, 4383, Note_on_c, 0, 87, 0
2, 4390, Note_on_c, 0, 60, 52
2, 4390, Note_on_c, 0, 75, 52
2, 4411, Note_on_c, 0, 75, 0
2, 4411, Note_on_c, 0, 80, 0
2, 4411, Note_on_c, 0, 65, 0
2, 4433, Note_on_c, 0, 59, 52
2, 4433, Note_on_c, 0, 75, 52
2, 4438, Note_on_c, 0, 60, 0
2, 4478, Note_on_c, 0, 53, 52
2, 4485, Note_on_c, 0, 59, 0
2, 4492, Note_on_c, 0, 68, 52
2, 4494, Control_c, 0, 64, 0
2, 4514, Note_on_c, 0, 75, 0
2, 4521, Note_on_c, 0, 48, 52
2, 4521, Note_on_c, 0, 63, 52
2, 4526, Note_on_c, 0, 68, 0
2, 4526, Control_c, 0, 64, 127
2, 4528, Note_on_c, 0, 53, 0
2, 4541, Note_on_c, 0, 63, 0
2, 4562, Note_on_c, 0, 63, 52
2, 4562, Note_on_c, 0, 47, 52
2, 4569, Note_on_c, 0, 48, 0
2, 4589, Note_on_c, 0, 41, 52
2, 4589, Note_on_c, 0, 56, 52
2, 4609, Note_on_c, 0, 47, 0
2, 4609, Note_on_c, 0, 63, 0
2, 4651, Note_on_c, 0, 41, 0
2, 4653, Note_on_c, 0, 48, 99
2, 4659, Control_c, 0, 64, 0
2, 4669, Note_on_c, 0, 36, 99
2, 4748, Note_on_c, 0, 51, 52
2, 4751, Note_on_c, 0, 43, 52
2, 4764, Control_c, 0, 64, 127
2, 4782, Note_on_c, 0, 36, 0
2, 4804, Note_on_c, 0, 60, 52
2, 4807, Note_on_c, 0, 56, 0
2, 4823, Note_on_c, 0, 43, 0
2, 4823, Note_on_c, 0, 60, 0
2, 4823, Note_on_c, 0, 48, 0
2, 4852, Note_on_c, 0, 51, 0
2, 4857, Note_on_c, 0, 48, 52
2, 4857, Note_on_c, 0, 60, 52
2, 4907, Note_on_c, 0, 60, 0
2, 4916, Note_on_c, 0, 55, 52
2, 4916, Note_on_c, 0, 63, 52
2, 4957, Note_on_c, 0, 60, 52
2, 4979, Note_on_c, 0, 72, 95
2, 4986, Note_on_c, 0, 63, 0
2, 4986, Control_c, 0, 64, 0
2, 5016, Note_on_c, 0, 55, 0
2, 5074, Note_on_c, 0, 55, 52
2, 5074, Note_on_c, 0, 63, 52
2, 5079, Note_on_c, 0, 48, 0
2, 5097, Note_on_c, 0, 60, 0
2, 5134, Control_c, 0, 64, 127
2, 5145, Note_on_c, 0, 48, 52
2, 5145, Note_on_c, 0, 60, 52
2, 5154, Note_on_c, 0, 55, 0
2, 5154, Note_on_c, 0, 63, 0
2, 5179, Note_on_c, 0, 72, 0
2, 5185, Note_on_c, 0, 55, 52
2, 5187, Note_on_c, 0, 63, 52
2, 5192, Note_on_c, 0, 60, 0
2, 5235, Note_on_c, 0, 60, 56
2, 5235, Note_on_c, 0, 70, 85
2, 5242, Note_on_c, 0, 55, 0
2, 5244, Note_on_c, 0, 63, 0
2, 5269, Note_on_c, 0, 48, 0
2, 5277, Note_on_c, 0, 55, 56
2, 5277, Note_on_c, 0, 63, 56
2, 5283, Note_on_c, 0, 60, 0
2, 5315, Note_on_c, 0, 60, 56
2, 5322, Note_on_c, 0, 55, 0
2, 5330, Note_on_c, 0, 48, 56
2, 5335, Note_on_c, 0, 63, 0
2, 5351, Note_on_c, 0, 70, 0
2, 5358, Note_on_c, 0, 55, 56
2, 5358, Note_on_c, 0, 63, 56
2, 5365, Note_on_c, 0, 60, 0
2, 5400, Note_on_c, 0, 68, 89
2, 5408, Note_on_c, 0, 63, 0
2, 5408, Note_on_c, 0, 55, 0
2, 5415, Note_on_c, 0, 60, 56
2, 5432, Note_on_c, 0, 48, 0
2, 5442, Note_on_c, 0, 55, 56
2, 5442, Note_on_c, 0, 63, 56
2, 5462, Note_on_c, 0, 60, 0
2, 5485, Note_on_c, 0, 48, 56
2, 5490, Note_on_c, 0, 55, 0
2, 5498, Note_on_c, 0, 60, 56
2, 5519, Note_on_c, 0, 63, 0
2, 5528, Note_on_c, 0, 55, 56
2, 5528, Note_on_c, 0, 62, 56
2, 5532, Note_on_c, 0, 68, 0
2, 5555, Note_on_c, 0, 59, 55
2, 5560, Note_on_c, 0, 60, 0
2, 5595, Note_on_c, 0, 67, 61
2, 5603, Control_c, 0, 64, 0
2, 5630, Note_on_c, 0, 55, 0
2, 5632, Note_on_c, 0, 62, 0
2, 5662, Note_on_c, 0, 55, 52
2, 5664, Note_on_c, 0, 62, 52
2, 5670, Note_on_c, 0, 59, 0
2, 5670, Note_on_c, 0, 48, 0
2, 5710, Control_c, 0, 64, 127
2, 5718, Note_on_c, 0, 48, 52
2, 5720, Note_on_c, 0, 59, 52
2, 5727, Note_on_c, 0, 62, 0
2, 5727, Note_on_c, 0, 55, 0
2, 5741, Note_on_c, 0, 67, 0
2, 5760, Note_on_c, 0, 55, 52
2, 5761, Note_on_c, 0, 61, 52
2, 5782, Note_on_c, 0, 59, 0
2, 5802, Note_on_c, 0, 58, 52
2, 5802, Note_on_c, 0, 67, 95
2, 5807, Note_on_c, 0, 61, 0
2, 5807, Note_on_c, 0, 55, 0
2, 5843, Note_on_c, 0, 55, 52
2, 5845, Note_on_c, 0, 61, 52
2, 5850, Note_on_c, 0, 48, 0
2, 5850, Note_on_c, 0, 58, 0
2, 5883, Note_on_c, 0, 48, 63
2, 5883, Note_on_c, 0, 58, 63
2, 5920, Note_on_c, 0, 61, 0
2, 5925, Note_on_c, 0, 53, 56
2, 5925, Note_on_c, 0, 60, 56
2, 5929, Note_on_c, 0, 55, 0
2, 5929, Note_on_c, 0, 58, 0
2, 5943, Note_on_c, 0, 67, 0
2, 5961, Note_on_c, 0, 57, 50
2, 5961, Note_on_c, 0, 65, 95
2, 5968, Control_c, 0, 64, 0
2, 5970, Note_on_c, 0, 60, 0
2, 5970, Note_on_c, 0, 53, 0
2, 6004, Note_on_c, 0, 60, 48
2, 6018, Note_on_c, 0, 53, 48
2, 6022, Note_on_c, 0, 57, 0
2, 6024, Note_on_c, 0, 48, 0
2, 6061, Note_on_c, 0, 48, 48
2, 6061, Note_on_c, 0, 57, 48
2, 6065, Note_on_c, 0, 53, 0
2, 6081, Note_on_c, 0, 60, 0
2, 6099, Note_on_c, 0, 53, 48
2, 6099, Note_on_c, 0, 59, 48
2, 6115, Control_c, 0, 64, 127
2, 6120, Note_on_c, 0, 65, 0
2, 6138, Note_on_c, 0, 57, 0
2, 6165, Note_on_c, 0, 53, 0
2, 6169, Note_on_c, 0, 56, 48
2, 6169, Note_on_c, 0, 65, 95
2, 6190, Note_on_c, 0, 59, 0
2, 6203, Note_on_c, 0, 48, 0
2, 6216, Note_on_c, 0, 56, 0
2, 6224, Note_on_c, 0, 53, 44
2, 6226, Note_on_c, 0, 59, 44
2, 6251, Note_on_c, 0, 48, 44
2, 6251, Note_on_c, 0, 56, 44
2, 6271, Note_on_c, 0, 53, 0
2, 6271, Note_on_c, 0, 65, 0
2, 6288, Note_on_c, 0, 59, 0
2, 6331, Note_on_c, 0, 56, 0
2, 6339, Control_c, 0, 64, 0
2, 6341, Note_on_c, 0, 48, 0
2, 6366, Note_on_c, 0, 36, 60
2, 6391, Note_on_c, 0, 51, 99
2, 6476, Control_c, 0, 64, 127
2, 6504, Note_on_c, 0, 43, 49
2, 6504, Note_on_c, 0, 55, 49
2, 6511, Note_on_c, 0, 36, 0
2, 6526, Note_on_c, 0, 51, 0
2, 6546, Note_on_c, 0, 48, 44
2, 6546, Note_on_c, 0, 63, 44
2, 6566, Note_on_c, 0, 43, 0
2, 6568, Note_on_c, 0, 63, 0
2, 6568, Note_on_c, 0, 48, 0
2, 6582, Note_on_c, 0, 55, 0
2, 6602, Note_on_c, 0, 48, 44
2, 6602, Note_on_c, 0, 63, 44
2, 6646, Note_on_c, 0, 55, 44
2, 6646, Note_on_c, 0, 67, 44
2, 6668, Note_on_c, 0, 63, 0
2, 6691, Note_on_c, 0, 60, 55
2, 6691, Note_on_c, 0, 75, 55
2, 6697, Note_on_c, 0, 48, 0
2, 6711, Note_on_c, 0, 60, 0
2, 6711, Note_on_c, 0, 67, 0
2, 6711, Note_on_c, 0, 75, 0
2, 6724, Note_on_c, 0, 55, 0
2, 6734, Note_on_c, 0, 60, 54
2, 6749, Note_on_c, 0, 75, 52
2, 6777, Note_on_c, 0, 67, 52
2, 6777, Note_on_c, 0, 79, 52
2, 6811, Note_on_c, 0, 75, 0
2, 6817, Note_on_c, 0, 72, 68
2, 6817, Note_on_c, 0, 87, 68
2, 6824, Note_on_c, 0, 79, 0
2, 6836, Note_on_c, 0, 67, 0
2, 6865, Note_on_c, 0, 60, 0
2, 6872, Note_on_c, 0, 67, 52
2, 6872, Note_on_c, 0, 79, 52
2, 6892, Note_on_c, 0, 72, 0
2, 6899, Note_on_c, 0, 60, 52
2, 6909, Note_on_c, 0, 87, 0
2, 6915, Note_on_c, 0, 75, 52
2, 6922, Note_on_c, 0, 79, 0
2, 6922, Note_on_c, 0, 60, 0
2, 6937, Note_on_c, 0, 67, 0
2, 6937, Note_on_c, 0, 75, 0
2, 6959, Note_on_c, 0, 60, 54
2, 6974, Note_on_c, 0, 75, 59
2, 7001, Note_on_c, 0, 55, 60
2, 7001, Note_on_c, 0, 67, 60
2, 7008, Note_on_c, 0, 60, 0
2, 7031, Note_on_c, 0, 48, 60
2, 7042, Note_on_c, 0, 63, 59
2, 7049, Note_on_c, 0, 48, 0
2, 7065, Note_on_c, 0, 75, 0
2, 7065, Note_on_c, 0, 63, 0
2, 7076, Note_on_c, 0, 55, 0
2, 7076, Note_on_c, 0, 67, 0
2, 7082, Note_on_c, 0, 48, 52
2, 7099, Note_on_c, 0, 63, 52
2, 7126, Note_on_c, 0, 43, 52
2, 7126, Note_on_c, 0, 55, 52
2, 7157, Note_on_c, 0, 48, 0
2, 7169, Control_c, 0, 64, 0
2, 7174, Note_on_c, 0, 43, 0
2, 7180, Note_on_c, 0, 36, 95
2, 7180, Note_on_c, 0, 50, 95
2, 7239, Note_on_c, 0, 55, 0
2, 7246, Note_on_c, 0, 41, 52
2, 7255, Note_on_c, 0, 63, 0
2, 7271, Note_on_c, 0, 56, 52
2, 7287, Note_on_c, 0, 48, 52
2, 7300, Note_on_c, 0, 62, 52
2, 7310, Note_on_c, 0, 48, 0
2, 7314, Control_c, 0, 64, 127
2, 7320, Note_on_c, 0, 62, 0
2, 7328, Note_on_c, 0, 48, 52
2, 7335, Note_on_c, 0, 41, 0
2, 7335, Note_on_c, 0, 56, 0
2, 7342, Note_on_c, 0, 62, 52
2, 7360, Note_on_c, 0, 50, 0
2, 7373, Note_on_c, 0, 36, 0
2, 7377, Note_on_c, 0, 53, 52
2, 7380, Note_on_c, 0, 68, 52
2, 7400, Note_on_c, 0, 62, 0
2, 7412, Note_on_c, 0, 48, 0
2, 7420, Note_on_c, 0, 60, 52
2, 7420, Note_on_c, 0, 74, 52
2, 7427, Note_on_c, 0, 53, 0
2, 7441, Note_on_c, 0, 68, 0
2, 7441, Note_on_c, 0, 60, 0
2, 7441, Note_on_c, 0, 74, 0
2, 7462, Note_on_c, 0, 74, 56
2, 7475, Note_on_c, 0, 60, 56
2, 7505, Note_on_c, 0, 65, 56
2, 7518, Note_on_c, 0, 80, 56
2, 7545, Note_on_c, 0, 72, 68
2, 7545, Note_on_c, 0, 86, 68
2, 7552, Note_on_c, 0, 80, 0
2, 7552, Note_on_c, 0, 65, 0
2, 7584, Note_on_c, 0, 65, 56
2, 7593, Note_on_c, 0, 74, 0
2, 7593, Note_on_c, 0, 60, 0
2, 7600, Note_on_c, 0, 80, 56
2, 7620, Note_on_c, 0, 72, 0
2, 7630, Note_on_c, 0, 60, 56
2, 7630, Note_on_c, 0, 74, 56
2, 7633, Note_on_c, 0, 86, 0
2, 7647, Note_on_c, 0, 60, 0
2, 7647, Note_on_c, 0, 74, 0
2, 7658, Note_on_c, 0, 80, 0
2, 7661, Note_on_c, 0, 65, 0
2, 7681, Note_on_c, 0, 60, 56
2, 7681, Note_on_c, 0, 74, 56
2, 7720, Note_on_c, 0, 53, 55
2, 7720, Note_on_c, 0, 68, 55
2, 7727, Note_on_c, 0, 60, 0
2, 7747, Note_on_c, 0, 48, 52
2, 7747, Note_on_c, 0, 62, 52
2, 7768, Note_on_c, 0, 62, 0
2, 7768, Note_on_c, 0, 74, 0
2, 7768, Note_on_c, 0, 48, 0
2, 7768, Note_on_c, 0, 53, 0
2, 7785, Note_on_c, 0, 68, 0
2, 7806, Note_on_c, 0, 48, 52
2, 7806, Note_on_c, 0, 62, 52
2, 7833, Note_on_c, 0, 41, 52
2, 7833, Note_on_c, 0, 56, 52
2, 7863, Note_on_c, 0, 36, 52
2, 7881, Note_on_c, 0, 48, 0
2, 7890, Note_on_c, 0, 53, 99
2, 7892, Control_c, 0, 64, 0
2, 7896, Note_on_c, 0, 41, 0
2, 7935, Note_on_c, 0, 56, 0
2, 7948, Note_on_c, 0, 62, 0
2, 7985, Note_on_c, 0, 44, 52
2, 7985, Note_on_c, 0, 60, 52
2, 7992, Note_on_c, 0, 36, 0
2, 8013, Note_on_c, 0, 48, 52
2, 8013, Note_on_c, 0, 65, 52
2, 8035, Note_on_c, 0, 65, 0
2, 8035, Note_on_c, 0, 44, 0
2, 8035, Note_on_c, 0, 48, 0
2, 8046, Control_c, 0, 64, 127
2, 8048, Note_on_c, 0, 60, 0
2, 8071, Note_on_c, 0, 48, 52
2, 8071, Note_on_c, 0, 65, 52
2, 8110, Note_on_c, 0, 56, 52
2, 8112, Note_on_c, 0, 72, 52
2, 8133, Note_on_c, 0, 65, 0
2, 8146, Note_on_c, 0, 53, 0
2, 8153, Note_on_c, 0, 60, 56
2, 8153, Note_on_c, 0, 77, 56
2, 8160, Note_on_c, 0, 48, 0
2, 8160, Note_on_c, 0, 56, 0
2, 8171, Note_on_c, 0, 60, 0
2, 8173, Note_on_c, 0, 72, 0
2, 8173, Note_on_c, 0, 77, 0
2, 8194, Note_on_c, 0, 60, 56
2, 8194, Note_on_c, 0, 77, 56
2, 8236, Note_on_c, 0, 68, 56
2, 8236, Note_on_c, 0, 84, 56
2, 8266, Note_on_c, 0, 72, 68
2, 8266, Note_on_c, 0, 89, 68
2, 8286, Note_on_c, 0, 68, 0
2, 8289, Note_on_c, 0, 84, 0
2, 8332, Note_on_c, 0, 68, 56
2, 8334, Note_on_c, 0, 84, 56
2, 8339, Note_on_c, 0, 60, 0
2, 8341, Note_on_c, 0, 77, 0
2, 8352, Note_on_c, 0, 72, 0
2, 8368, Note_on_c, 0, 89, 0
2, 8368, Note_on_c, 0, 68, 0
2, 8373, Note_on_c, 0, 60, 56
2, 8373, Note_on_c, 0, 77, 56
2, 8379, Note_on_c, 0, 84, 0
2, 8393, Note_on_c, 0, 77, 0
2, 8393, Note_on_c, 0, 60, 0
2, 8414, Note_on_c, 0, 60, 56
2, 8414, Note_on_c, 0, 77, 56
2, 8443, Note_on_c, 0, 72, 56
2, 8454, Note_on_c, 0, 56, 55
2, 8461, Note_on_c, 0, 60, 0
2, 8479, Note_on_c, 0, 48, 52
2, 8479, Note_on_c, 0, 65, 52
2, 8488, Note_on_c, 0, 77, 0
2, 8499, Note_on_c, 0, 48, 0
2, 8499, Note_on_c, 0, 65, 0
2, 8502, Note_on_c, 0, 56, 0
2, 8518, Note_on_c, 0, 72, 0
2, 8522, Note_on_c, 0, 48, 52
2, 8522, Note_on_c, 0, 65, 52
2, 8566, Note_on_c, 0, 44, 52
2, 8566, Note_on_c, 0, 60, 52
2, 8611, Note_on_c, 0, 60, 0
2, 8613, Note_on_c, 0, 48, 0
2, 8613, Note_on_c, 0, 65, 0
2, 8613, Note_on_c, 0, 44, 0
2, 8619, Note_on_c, 0, 36, 99
2, 8619, Note_on_c, 0, 52, 99
2, 8624, Control_c, 0, 64, 0
2, 8674, Note_on_c, 0, 43, 52
2, 8701, Note_on_c, 0, 60, 52
2, 8729, Note_on_c, 0, 48, 52
2, 8729, Note_on_c, 0, 64, 52
2, 8733, Control_c, 0, 64, 127
2, 8749, Note_on_c, 0, 64, 0
2, 8749, Note_on_c, 0, 36, 0
2, 8749, Note_on_c, 0, 43, 0
2, 8762, Note_on_c, 0, 60, 0
2, 8769, Note_on_c, 0, 64, 52
2, 8810, Note_on_c, 0, 55, 52
2, 8810, Note_on_c, 0, 72, 52
2, 8842, Note_on_c, 0, 64, 0
2, 8851, Note_on_c, 0, 60, 52
2, 8851, Note_on_c, 0, 76, 52
2, 8872, Note_on_c, 0, 76, 0
2, 8872, Note_on_c, 0, 48, 0
2, 8872, Note_on_c, 0, 52, 0
2, 8872, Note_on_c, 0, 60, 0
2, 8885, Note_on_c, 0, 55, 0
2, 8885, Note_on_c, 0, 72, 0
2, 8894, Note_on_c, 0, 76, 52
2, 8907, Note_on_c, 0, 60, 52
2, 8937, Note_on_c, 0, 67, 52
2, 8937, Note_on_c, 0, 84, 52
2, 8974, Note_on_c, 0, 84, 0
2, 8978, Note_on_c, 0, 72, 68
2, 8978, Note_on_c, 0, 88, 68
2, 8987, Note_on_c, 0, 67, 0
2, 8987, Note_on_c, 0, 76, 0
2, 9012, Note_on_c, 0, 60, 0
2, 9019, Note_on_c, 0, 84, 56
2, 9021, Note_on_c, 0, 67, 56
2, 9039, Note_on_c, 0, 88, 0
2, 9052, Note_on_c, 0, 72, 0
2, 9060, Note_on_c, 0, 60, 56
2, 9060, Note_on_c, 0, 76, 56
2, 9080, Note_on_c, 0, 60, 0
2, 9080, Note_on_c, 0, 67, 0
2, 9082, Note_on_c, 0, 84, 0
2, 9096, Note_on_c, 0, 76, 0
2, 9119, Note_on_c, 0, 60, 56
2, 9119, Note_on_c, 0, 76, 56
2, 9145, Note_on_c, 0, 55, 56
2, 9145, Note_on_c, 0, 72, 56
2, 9164, Note_on_c, 0, 60, 0
2, 9173, Note_on_c, 0, 48, 56
2, 9173, Note_on_c, 0, 64, 56
2, 9193, Note_on_c, 0, 64, 0
2, 9205, Note_on_c, 0, 48, 0
2, 9207, Note_on_c, 0, 76, 0
2, 9223, Note_on_c, 0, 55, 0
2, 9227, Note_on_c, 0, 48, 52
2, 9227, Note_on_c, 0, 64, 52
2, 9237, Note_on_c, 0, 72, 0
2, 9272, Note_on_c, 0, 43, 52
2, 9272, Note_on_c, 0, 60, 52
2, 9307, Note_on_c, 0, 64, 0
2, 9320, Note_on_c, 0, 48, 0
2, 9320, Note_on_c, 0, 43, 0
2, 9320, Control_c, 0, 64, 0
2, 9327, Note_on_c, 0, 41, 99
2, 9327, Note_on_c, 0, 56, 99
2, 9334, Note_on_c, 0, 60, 0
2, 9400, Note_on_c, 0, 61, 52
2, 9425, Note_on_c, 0, 49, 52
2, 9456, Control_c, 0, 64, 127
2, 9460, Note_on_c, 0, 49, 0
2, 9475, Note_on_c, 0, 61, 0
2, 9495, Note_on_c, 0, 53, 52
2, 9495, Note_on_c, 0, 68, 52
2, 9535, Note_on_c, 0, 61, 52
2, 9542, Note_on_c, 0, 56, 0
2, 9552, Note_on_c, 0, 73, 52
2, 9558, Note_on_c, 0, 68, 0
2, 9558, Note_on_c, 0, 53, 0
2, 9572, Note_on_c, 0, 41, 0
2, 9576, Note_on_c, 0, 65, 53
2, 9597, Note_on_c, 0, 61, 0
2, 9615, Note_on_c, 0, 73, 0
2, 9651, Note_on_c, 0, 80, 56
2, 9665, Note_on_c, 0, 73, 56
2, 9665, Note_on_c, 0, 85, 56
2, 9710, Note_on_c, 0, 80, 0
2, 9717, Note_on_c, 0, 92, 68
2, 9723, Note_on_c, 0, 73, 0
2, 9730, Note_on_c, 0, 77, 68
2, 9738, Note_on_c, 0, 85, 0
2, 9751, Note_on_c, 0, 65, 0
2, 9773, Note_on_c, 0, 73, 56
2, 9773, Note_on_c, 0, 85, 56
2, 9778, Note_on_c, 0, 77, 0
2, 9808, Note_on_c, 0, 65, 56
2, 9819, Note_on_c, 0, 92, 0
2, 9819, Note_on_c, 0, 73, 0
2, 9823, Control_c, 0, 64, 0
2, 9830, Note_on_c, 0, 85, 0
2, 9855, Note_on_c, 0, 80, 56
2, 9858, Control_c, 0, 64, 127
2, 9883, Note_on_c, 0, 73, 55
2, 9896, Note_on_c, 0, 61, 53
2, 9914, Note_on_c, 0, 80, 0
2, 9921, Note_on_c, 0, 68, 52
2, 9930, Note_on_c, 0, 65, 0
2, 9930, Note_on_c, 0, 61, 0
2, 9943, Note_on_c, 0, 73, 0
2, 9943, Note_on_c, 0, 68, 0
2, 9978, Note_on_c, 0, 53, 52
2, 9980, Note_on_c, 0, 68, 52
2, 9998, Control_c, 0, 64, 0
2, 10009, Note_on_c, 0, 53, 0
2, 10018, Note_on_c, 0, 49, 52
2, 10018, Note_on_c, 0, 61, 52
2, 10059, Note_on_c, 0, 43, 99
2, 10059, Note_on_c, 0, 55, 99
2, 10066, Note_on_c, 0, 49, 0
2, 10066, Note_on_c, 0, 68, 0
2, 10118, Note_on_c, 0, 61, 0
2, 10125, Note_on_c, 0, 50, 52
2, 10125, Note_on_c, 0, 59, 52
2, 10159, Control_c, 0, 64, 127
2, 10166, Note_on_c, 0, 53, 52
2, 10166, Note_on_c, 0, 67, 52
2, 10173, Note_on_c, 0, 59, 0
2, 10173, Note_on_c, 0, 50, 0
2, 10184, Note_on_c, 0, 67, 0
2, 10198, Note_on_c, 0, 53, 0
2, 10220, Note_on_c, 0, 67, 56
2, 10241, Note_on_c, 0, 43, 0
2, 10249, Note_on_c, 0, 62, 56
2, 10249, Note_on_c, 0, 71, 56
2, 10254, Note_on_c, 0, 67, 0
2, 10281, Note_on_c, 0, 55, 0
2, 10288, Note_on_c, 0, 65, 56
2, 10295, Note_on_c, 0, 62, 0
2, 10309, Note_on_c, 0, 71, 0
2, 10331, Note_on_c, 0, 67, 56
2, 10344, Note_on_c, 0, 79, 56
2, 10349, Note_on_c, 0, 65, 0
2, 10368, Note_on_c, 0, 74, 56
2, 10368, Note_on_c, 0, 83, 56
2, 10374, Note_on_c, 0, 79, 0
2, 10404, Note_on_c, 0, 83, 0
2, 10411, Note_on_c, 0, 77, 68
2, 10411, Note_on_c, 0, 91, 68
2, 10417, Note_on_c, 0, 74, 0
2, 10454, Note_on_c, 0, 74, 56
2, 10454, Note_on_c, 0, 83, 56
2, 10461, Note_on_c, 0, 67, 0
2, 10463, Note_on_c, 0, 77, 0
2, 10501, Note_on_c, 0, 91, 0
2, 10508, Note_on_c, 0, 67, 56
2, 10514, Note_on_c, 0, 83, 0
2, 10514, Note_on_c, 0, 74, 0
2, 10536, Note_on_c, 0, 79, 56
2, 10551, Note_on_c, 0, 65, 56
2, 10558, Note_on_c, 0, 67, 0
2, 10594, Note_on_c, 0, 62, 52
2, 10594, Note_on_c, 0, 71, 52
2, 10642, Note_on_c, 0, 65, 0
2, 10642, Note_on_c, 0, 79, 0
2, 10649, Note_on_c, 0, 55, 52
2, 10649, Note_on_c, 0, 67, 52
2, 10656, Note_on_c, 0, 71, 0
2, 10671, Note_on_c, 0, 62, 0
2, 10671, Note_on_c, 0, 67, 0
2, 10689, Note_on_c, 0, 50, 52
2, 10689, Note_on_c, 0, 67, 52
2, 10707, Control_c, 0, 64, 0
2, 10710, Note_on_c, 0, 55, 0
2, 10732, Note_on_c, 0, 43, 52
2, 10732, Note_on_c, 0, 59, 52
2, 10739, Control_c, 0, 64, 127
2, 10755, Note_on_c, 0, 67, 0
2, 10764, Note_on_c, 0, 50, 0
2, 10767, Note_on_c, 0, 59, 0
2, 10780, Note_on_c, 0, 43, 0
2, 10794, Control_c, 0, 64, 0
2, 10830, Note_on_c, 0, 36, 99
2, 10830, Note_on_c, 0, 52, 99
2, 10944, Control_c, 0, 64, 127
2, 10957, Note_on_c, 0, 43, 52
2, 10957, Note_on_c, 0, 55, 52
2, 10995, Note_on_c, 0, 48, 52
2, 10995, Note_on_c, 0, 64, 52
2, 11004, Note_on_c, 0, 43, 0
2, 11014, Note_on_c, 0, 48, 0
2, 11016, Note_on_c, 0, 64, 0
2, 11027, Note_on_c, 0, 55, 0
2, 11034, Note_on_c, 0, 48, 52
2, 11034, Note_on_c, 0, 64, 52
2, 11043, Note_on_c, 0, 52, 0
2, 11043, Note_on_c, 0, 36, 0
2, 11077, Note_on_c, 0, 55, 55
2, 11077, Note_on_c, 0, 67, 55
2, 11097, Note_on_c, 0, 64, 0
2, 11111, Note_on_c, 0, 48, 0
2, 11115, Note_on_c, 0, 60, 60
2, 11115, Note_on_c, 0, 76, 60
2, 11136, Note_on_c, 0, 76, 0
2, 11138, Note_on_c, 0, 60, 0
2, 11154, Note_on_c, 0, 55, 0
2, 11154, Note_on_c, 0, 67, 0
2, 11159, Note_on_c, 0, 76, 60
2, 11170, Note_on_c, 0, 60, 60
2, 11200, Note_on_c, 0, 67, 60
2, 11213, Note_on_c, 0, 79, 60
2, 11220, Note_on_c, 0, 76, 0
2, 11240, Note_on_c, 0, 72, 60
2, 11245, Note_on_c, 0, 60, 0
2, 11252, Note_on_c, 0, 88, 60
2, 11258, Note_on_c, 0, 79, 0
2, 11258, Note_on_c, 0, 72, 0
2, 11258, Note_on_c, 0, 67, 0
2, 11274, Note_on_c, 0, 88, 0
2, 11279, Note_on_c, 0, 72, 60
2, 11292, Note_on_c, 0, 88, 60
2, 11322, Note_on_c, 0, 91, 60
2, 11335, Note_on_c, 0, 79, 85
2, 11342, Note_on_c, 0, 88, 0
2, 11347, Note_on_c, 0, 100, 85
2, 11353, Note_on_c, 0, 91, 0
2, 11358, Note_on_c, 0, 84, 85
2, 11365, Note_on_c, 0, 79, 0
2, 11385, Note_on_c, 0, 91, 60
2, 11395, Note_on_c, 0, 72, 0
2, 11399, Note_on_c, 0, 79, 59
2, 11417, Note_on_c, 0, 84, 0
2, 11424, Note_on_c, 0, 72, 55
2, 11424, Note_on_c, 0, 88, 55
2, 11433, Note_on_c, 0, 100, 0
2, 11445, Note_on_c, 0, 72, 0
2, 11445, Note_on_c, 0, 91, 0
2, 11445, Note_on_c, 0, 88, 0
2, 11458, Note_on_c, 0, 79, 0
2, 11467, Note_on_c, 0, 72, 52
2, 11467, Note_on_c, 0, 88, 52
2, 11508, Note_on_c, 0, 67, 52
2, 11508, Note_on_c, 0, 79, 52
2, 11542, Note_on_c, 0, 88, 0
2, 11544, Note_on_c, 0, 72, 0
2, 11551, Note_on_c, 0, 60, 52
2, 11551, Note_on_c, 0, 76, 52
2, 11571, Note_on_c, 0, 76, 0
2, 11571, Note_on_c, 0, 79, 0
2, 11571, Note_on_c, 0, 67, 0
2, 11571, Note_on_c, 0, 60, 0
2, 11592, Note_on_c, 0, 76, 52
2, 11593, Note_on_c, 0, 60, 52
2, 11621, Note_on_c, 0, 67, 52
2, 11633, Note_on_c, 0, 55, 52
2, 11641, Note_on_c, 0, 60, 0
2, 11646, Note_on_c, 0, 48, 52
2, 11666, Note_on_c, 0, 48, 0
2, 11666, Note_on_c, 0, 76, 0
2, 11683, Note_on_c, 0, 67, 0
2, 11683, Note_on_c, 0, 55, 0
2, 11689, Note_on_c, 0, 48, 52
2, 11689, Note_on_c, 0, 64, 85
2, 11728, Note_on_c, 0, 55, 52
2, 11730, Note_on_c, 0, 43, 52
2, 11750, Note_on_c, 0, 48, 0
2, 11764, Note_on_c, 0, 43, 0
2, 11782, Note_on_c, 0, 48, 52
2, 11798, Note_on_c, 0, 43, 89
2, 11798, Note_on_c, 0, 52, 89
2, 11798, Note_on_c, 0, 36, 89
2, 11803, Note_on_c, 0, 55, 0
2, 11818, Note_on_c, 0, 43, 0
2, 11853, Note_on_c, 0, 43, 52
2, 11866, Note_on_c, 0, 55, 52
2, 11886, Note_on_c, 0, 48, 0
2, 11898, Control_c, 0, 64, 0
2, 11913, Note_on_c, 0, 43, 0
2, 11913, Note_on_c, 0, 52, 0
2, 11920, Note_on_c, 0, 47, 89
2, 11920, Note_on_c, 0, 50, 89
2, 11925, Note_on_c, 0, 55, 0
2, 11968, Note_on_c, 0, 36, 0
2, 11988, Note_on_c, 0, 55, 52
2, 11991, Note_on_c, 0, 43, 52
2, 11998, Note_on_c, 0, 64, 0
2, 12011, Control_c, 0, 64, 127
2, 12026, Note_on_c, 0, 43, 0
2, 12034, Note_on_c, 0, 36, 52
2, 12034, Note_on_c, 0, 62, 52
2, 12041, Note_on_c, 0, 47, 0
2, 12041, Note_on_c, 0, 55, 0
2, 12072, Note_on_c, 0, 55, 52
2, 12074, Note_on_c, 0, 43, 52
2, 12081, Note_on_c, 0, 50, 0
2, 12131, Note_on_c, 0, 50, 95
2, 12131, Note_on_c, 0, 53, 95
2, 12136, Note_on_c, 0, 55, 0
2, 12138, Note_on_c, 0, 43, 0
2, 12165, Note_on_c, 0, 36, 0
2, 12190, Note_on_c, 0, 43, 52
2, 12190, Note_on_c, 0, 55, 52
2, 12194, Note_on_c, 0, 62, 0
2, 12224, Note_on_c, 0, 43, 0
2, 12231, Note_on_c, 0, 67, 52
2, 12233, Note_on_c, 0, 36, 52
2, 12238, Note_on_c, 0, 55, 0
2, 12254, Note_on_c, 0, 50, 0
2, 12267, Note_on_c, 0, 53, 0
2, 12274, Note_on_c, 0, 43, 52
2, 12274, Note_on_c, 0, 55, 52
2, 12281, Note_on_c, 0, 36, 0
2, 12294, Note_on_c, 0, 67, 0
2, 12311, Note_on_c, 0, 43, 0
2, 12331, Note_on_c, 0, 36, 52
2, 12342, Note_on_c, 0, 43, 52
2, 12351, Note_on_c, 0, 55, 0
2, 12362, Control_c, 0, 64, 0
2, 12385, Note_on_c, 0, 48, 99
2, 12385, Note_on_c, 0, 52, 99
2, 12406, Note_on_c, 0, 43, 0
2, 12471, Note_on_c, 0, 43, 52
2, 12471, Note_on_c, 0, 55, 52
2, 12487, Control_c, 0, 64, 127
2, 12501, Note_on_c, 0, 48, 0
2, 12509, Note_on_c, 0, 64, 52
2, 12530, Note_on_c, 0, 64, 0
2, 12544, Note_on_c, 0, 55, 0
2, 12544, Note_on_c, 0, 43, 0
2, 12549, Note_on_c, 0, 48, 52
2, 12549, Note_on_c, 0, 64, 52
2, 12557, Note_on_c, 0, 36, 0
2, 12577, Note_on_c, 0, 55, 52
2, 12587, Note_on_c, 0, 52, 0
2, 12594, Note_on_c, 0, 67, 52
2, 12612, Note_on_c, 0, 64, 0
2, 12621, Note_on_c, 0, 60, 52
2, 12625, Note_on_c, 0, 48, 0
2, 12634, Note_on_c, 0, 76, 52
2, 12644, Note_on_c, 0, 60, 0
2, 12654, Note_on_c, 0, 76, 0
2, 12657, Note_on_c, 0, 55, 0
2, 12657, Note_on_c, 0, 67, 0
2, 12677, Note_on_c, 0, 60, 60
2, 12694, Note_on_c, 0, 76, 60
2, 12720, Note_on_c, 0, 67, 60
2, 12720, Note_on_c, 0, 79, 60
2, 12739, Note_on_c, 0, 76, 0
2, 12739, Note_on_c, 0, 60, 0
2, 12745, Note_on_c, 0, 72, 60
2, 12745, Note_on_c, 0, 88, 60
2, 12766, Note_on_c, 0, 88, 0
2, 12768, Note_on_c, 0, 72, 0
2, 12768, Note_on_c, 0, 67, 0
2, 12779, Note_on_c, 0, 79, 0
2, 12800, Note_on_c, 0, 72, 60
2, 12800, Note_on_c, 0, 88, 60
2, 12827, Note_on_c, 0, 79, 60
2, 12827, Note_on_c, 0, 91, 60
2, 12847, Note_on_c, 0, 88, 0
2, 12852, Note_on_c, 0, 84, 68
2, 12852, Note_on_c, 0, 100, 68
2, 12872, Note_on_c, 0, 91, 0
2, 12872, Note_on_c, 0, 79, 0
2, 12902, Note_on_c, 0, 72, 0
2, 12909, Note_on_c, 0, 79, 60
2, 12909, Note_on_c, 0, 91, 60
2, 12915, Note_on_c, 0, 84, 0
2, 12929, Note_on_c, 0, 100, 0
2, 12936, Note_on_c, 0, 72, 59
2, 12936, Note_on_c, 0, 88, 59
2, 12957, Note_on_c, 0, 88, 0
2, 12957, Note_on_c, 0, 91, 0
2, 12959, Note_on_c, 0, 72, 0
2, 12959, Note_on_c, 0, 79, 0
2, 12979, Note_on_c, 0, 72, 52
2, 12979, Note_on_c, 0, 88, 52
2, 13017, Note_on_c, 0, 79, 52
2, 13020, Note_on_c, 0, 67, 52
2, 13033, Note_on_c, 0, 76, 52
2, 13038, Note_on_c, 0, 88, 0
2, 13040, Note_on_c, 0, 72, 0
2, 13047, Note_on_c, 0, 60, 52
2, 13054, Note_on_c, 0, 76, 0
2, 13067, Note_on_c, 0, 67, 0
2, 13067, Note_on_c, 0, 79, 0
2, 13067, Note_on_c, 0, 60, 0
2, 13088, Note_on_c, 0, 76, 52
2, 13090, Note_on_c, 0, 60, 52
2, 13120, Note_on_c, 0, 55, 52
2, 13120, Note_on_c, 0, 67, 52
2, 13147, Note_on_c, 0, 48, 52
2, 13147, Note_on_c, 0, 64, 52
2, 13153, Note_on_c, 0, 60, 0
2, 13153, Note_on_c, 0, 76, 0
2, 13165, Note_on_c, 0, 64, 0
2, 13167, Note_on_c, 0, 48, 0
2, 13180, Note_on_c, 0, 55, 0
2, 13180, Note_on_c, 0, 67, 0
2, 13201, Note_on_c, 0, 64, 52
2, 13203, Note_on_c, 0, 48, 52
2, 13230, Note_on_c, 0, 55, 52
2, 13233, Note_on_c, 0, 43, 52
2, 13233, Control_c, 0, 64, 0
2, 13248, Note_on_c, 0, 43, 0
2, 13248, Note_on_c, 0, 48, 0
2, 13265, Control_c, 0, 64, 127
2, 13287, Note_on_c, 0, 48, 85
2, 13287, Note_on_c, 0, 52, 85
2, 13287, Note_on_c, 0, 43, 85
2, 13290, Note_on_c, 0, 36, 85
2, 13308, Note_on_c, 0, 43, 0
2, 13308, Note_on_c, 0, 55, 0
2, 13342, Note_on_c, 0, 43, 52
2, 13342, Note_on_c, 0, 55, 52
2, 13375, Note_on_c, 0, 52, 0
2, 13387, Note_on_c, 0, 48, 0
2, 13403, Note_on_c, 0, 43, 0
2, 13403, Control_c, 0, 64, 0
2, 13407, Note_on_c, 0, 47, 85
2, 13407, Note_on_c, 0, 50, 85
2, 13415, Note_on_c, 0, 55, 0
2, 13468, Note_on_c, 0, 36, 0
2, 13475, Note_on_c, 0, 43, 52
2, 13475, Note_on_c, 0, 55, 52
2, 13496, Note_on_c, 0, 64, 0
2, 13518, Note_on_c, 0, 62, 52
2, 13525, Note_on_c, 0, 43, 0
2, 13525, Note_on_c, 0, 55, 0
2, 13532, Note_on_c, 0, 36, 52
2, 13550, Control_c, 0, 64, 127
2, 13560, Note_on_c, 0, 43, 52
2, 13560, Note_on_c, 0, 55, 52
2, 13580, Note_on_c, 0, 50, 0
2, 13580, Note_on_c, 0, 47, 0
2, 13595, Note_on_c, 0, 43, 0
2, 13600, Note_on_c, 0, 45, 99
2, 13600, Note_on_c, 0, 48, 99
2, 13607, Note_on_c, 0, 55, 0
2, 13618, Note_on_c, 0, 36, 0
2, 13638, Note_on_c, 0, 55, 52
2, 13641, Note_on_c, 0, 43, 52
2, 13675, Note_on_c, 0, 62, 0
2, 13680, Note_on_c, 0, 60, 52
2, 13686, Note_on_c, 0, 55, 0
2, 13686, Control_c, 0, 64, 0
2, 13688, Note_on_c, 0, 43, 0
2, 13695, Note_on_c, 0, 36, 52
2, 13733, Note_on_c, 0, 55, 52
2, 13736, Note_on_c, 0, 43, 52
2, 13741, Note_on_c, 0, 45, 0
2, 13741, Note_on_c, 0, 60, 0
2, 13743, Note_on_c, 0, 36, 0
2, 13768, Note_on_c, 0, 48, 0
2, 13779, Note_on_c, 0, 36, 52
2, 13818, Note_on_c, 0, 50, 99
2, 13838, Note_on_c, 0, 55, 0
2, 13849, Control_c, 0, 64, 127
2, 13879, Note_on_c, 0, 43, 0
2, 13896, Note_on_c, 0, 55, 52
2, 13915, Note_on_c, 0, 43, 52
2, 13933, Note_on_c, 0, 36, 0
2, 13954, Note_on_c, 0, 47, 52
2, 13954, Note_on_c, 0, 62, 52
2, 13971, Note_on_c, 0, 43, 0
2, 13974, Note_on_c, 0, 50, 0
2, 13974, Note_on_c, 0, 62, 0
2, 13974, Note_on_c, 0, 55, 0
2, 13981, Note_on_c, 0, 48, 52
2, 13990, Note_on_c, 0, 47, 0
2, 13994, Note_on_c, 0, 62, 52
2, 14024, Note_on_c, 0, 55, 52
2, 14036, Note_on_c, 0, 67, 52
2, 14056, Note_on_c, 0, 62, 0
2, 14063, Note_on_c, 0, 59, 52
2, 14071, Note_on_c, 0, 48, 0
2, 14078, Note_on_c, 0, 74, 52
2, 14096, Note_on_c, 0, 67, 0
2, 14096, Note_on_c, 0, 55, 0
2, 14110, Note_on_c, 0, 59, 0
2, 14114, Note_on_c, 0, 60, 60
2, 14144, Note_on_c, 0, 67, 60
2, 14156, Note_on_c, 0, 79, 60
2, 14176, Note_on_c, 0, 74, 0
2, 14183, Note_on_c, 0, 71, 60
2, 14183, Note_on_c, 0, 86, 60
2, 14189, Note_on_c, 0, 60, 0
2, 14203, Note_on_c, 0, 79, 0
2, 14203, Note_on_c, 0, 86, 0
2, 14203, Note_on_c, 0, 67, 0
2, 14224, Note_on_c, 0, 86, 64
2, 14226, Note_on_c, 0, 72, 64
2, 14246, Note_on_c, 0, 71, 0
2, 14251, Note_on_c, 0, 91, 64
2, 14253, Note_on_c, 0, 79, 64
2, 14291, Note_on_c, 0, 98, 68
2, 14301, Note_on_c, 0, 79, 0
2, 14301, Note_on_c, 0, 91, 0
2, 14301, Note_on_c, 0, 86, 0
2, 14305, Note_on_c, 0, 83, 68
2, 14339, Note_on_c, 0, 72, 0
2, 14339, Control_c, 0, 64, 0
2, 14348, Note_on_c, 0, 91, 61
2, 14351, Note_on_c, 0, 79, 60
2, 14371, Note_on_c, 0, 83, 0
2, 14373, Control_c, 0, 64, 127
2, 14377, Note_on_c, 0, 72, 56
2, 14384, Control_c, 0, 64, 0
2, 14391, Note_on_c, 0, 86, 56
2, 14396, Note_on_c, 0, 79, 0
2, 14398, Note_on_c, 0, 98, 0
2, 14411, Note_on_c, 0, 91, 0
2, 14414, Note_on_c, 0, 86, 0
2, 14416, Control_c, 0, 64, 127
2, 14421, Note_on_c, 0, 71, 56
2, 14434, Note_on_c, 0, 86, 56
2, 14441, Note_on_c, 0, 72, 0
2, 14461, Note_on_c, 0, 79, 56
2, 14477, Note_on_c, 0, 67, 56
2, 14504, Note_on_c, 0, 74, 56
2, 14511, Note_on_c, 0, 86, 0
2, 14511, Note_on_c, 0, 71, 0
2, 14518, Note_on_c, 0, 60, 56
2, 14522, Note_on_c, 0, 74, 0
2, 14525, Note_on_c, 0, 67, 0
2, 14525, Note_on_c, 0, 79, 0
2, 14545, Note_on_c, 0, 59, 55
2, 14545, Note_on_c, 0, 74, 55
2, 14552, Note_on_c, 0, 60, 0
2, 14589, Note_on_c, 0, 55, 52
2, 14589, Note_on_c, 0, 67, 52
2, 14609, Note_on_c, 0, 59, 0
2, 14617, Note_on_c, 0, 48, 52
2, 14617, Note_on_c, 0, 62, 52
2, 14639, Note_on_c, 0, 62, 0
2, 14639, Note_on_c, 0, 67, 0
2, 14639, Note_on_c, 0, 74, 0
2, 14654, Note_on_c, 0, 55, 0
2, 14677, Note_on_c, 0, 47, 52
2, 14677, Note_on_c, 0, 62, 52
2, 14684, Note_on_c, 0, 48, 0
2, 14706, Note_on_c, 0, 43, 52
2, 14706, Note_on_c, 0, 55, 52
2, 14749, Note_on_c, 0, 36, 85
2, 14749, Note_on_c, 0, 50, 85
2, 14754, Note_on_c, 0, 43, 0
2, 14754, Note_on_c, 0, 47, 0
2, 14779, Note_on_c, 0, 55, 0
2, 14812, Note_on_c, 0, 55, 52
2, 14815, Note_on_c, 0, 43, 52
2, 14835, Note_on_c, 0, 50, 0
2, 14849, Control_c, 0, 64, 0
2, 14856, Note_on_c, 0, 48, 85
2, 14858, Note_on_c, 0, 45, 85
2, 14862, Note_on_c, 0, 62, 0
2, 14892, Note_on_c, 0, 36, 0
2, 14915, Note_on_c, 0, 41, 52
2, 14915, Note_on_c, 0, 53, 52
2, 14922, Note_on_c, 0, 43, 0
2, 14949, Note_on_c, 0, 53, 0
2, 14949, Control_c, 0, 64, 127
2, 14955, Note_on_c, 0, 36, 52
2, 14955, Note_on_c, 0, 60, 52
2, 14962, Note_on_c, 0, 41, 0
2, 14976, Note_on_c, 0, 55, 0
2, 14987, Note_on_c, 0, 45, 0
2, 14994, Note_on_c, 0, 53, 52
2, 14997, Note_on_c, 0, 41, 52
2, 15000, Note_on_c, 0, 48, 0
2, 15044, Note_on_c, 0, 53, 0
2, 15050, Note_on_c, 0, 45, 95
2, 15050, Note_on_c, 0, 48, 95
2, 15057, Note_on_c, 0, 41, 0
2, 15085, Control_c, 0, 64, 0
2, 15087, Note_on_c, 0, 36, 0
2, 15094, Note_on_c, 0, 41, 52
2, 15094, Note_on_c, 0, 53, 52
2, 15135, Note_on_c, 0, 36, 52
2, 15135, Note_on_c, 0, 57, 52
2, 15142, Note_on_c, 0, 53, 0
2, 15142, Note_on_c, 0, 41, 0
2, 15167, Note_on_c, 0, 48, 0
2, 15171, Note_on_c, 0, 53, 52
2, 15173, Note_on_c, 0, 41, 52
2, 15180, Note_on_c, 0, 57, 0
2, 15193, Note_on_c, 0, 36, 0
2, 15214, Note_on_c, 0, 48, 99
2, 15220, Note_on_c, 0, 53, 0
2, 15220, Note_on_c, 0, 45, 0
2, 15228, Note_on_c, 0, 36, 99
2, 15243, Note_on_c, 0, 60, 0
2, 15245, Note_on_c, 0, 41, 0
2, 15270, Control_c, 0, 64, 127
2, 15280, Note_on_c, 0, 53, 52
2, 15293, Note_on_c, 0, 44, 52
2, 15320, Note_on_c, 0, 60, 52
2, 15341, Note_on_c, 0, 60, 0
2, 15341, Note_on_c, 0, 44, 0
2, 15357, Note_on_c, 0, 53, 0
2, 15363, Note_on_c, 0, 60, 52
2, 15366, Control_c, 0, 64, 0
2, 15370, Note_on_c, 0, 36, 0
2, 15398, Control_c, 0, 64, 127
2, 15405, Note_on_c, 0, 56, 52
2, 15405, Note_on_c, 0, 65, 52
2, 15411, Note_on_c, 0, 60, 0
2, 15441, Note_on_c, 0, 48, 0
2, 15448, Note_on_c, 0, 60, 52
2, 15448, Note_on_c, 0, 72, 52
2, 15470, Note_on_c, 0, 72, 0
2, 15470, Note_on_c, 0, 60, 0
2, 15470, Note_on_c, 0, 56, 0
2, 15481, Note_on_c, 0, 65, 0
2, 15490, Note_on_c, 0, 60, 52
2, 15490, Note_on_c, 0, 72, 52
2, 15533, Note_on_c, 0, 68, 52
2, 15533, Note_on_c, 0, 77, 52
2, 15540, Note_on_c, 0, 72, 0
2, 15581, Note_on_c, 0, 68, 0
2, 15586, Note_on_c, 0, 72, 68
2, 15586, Note_on_c, 0, 84, 68
2, 15595, Note_on_c, 0, 77, 0
2, 15622, Note_on_c, 0, 72, 0
2, 15628, Note_on_c, 0, 68, 52
2, 15628, Note_on_c, 0, 77, 52
2, 15636, Note_on_c, 0, 60, 0
2, 15661, Note_on_c, 0, 84, 0
2, 15668, Note_on_c, 0, 60, 52
2, 15668, Note_on_c, 0, 72, 52
2, 15670, Note_on_c, 0, 77, 0
2, 15676, Note_on_c, 0, 68, 0
2, 15690, Note_on_c, 0, 60, 0
2, 15690, Note_on_c, 0, 72, 0
2, 15726, Note_on_c, 0, 60, 52
2, 15726, Note_on_c, 0, 72, 52
2, 15753, Note_on_c, 0, 65, 52
2, 15760, Note_on_c, 0, 60, 0
2, 15768, Note_on_c, 0, 56, 52
2, 15783, Note_on_c, 0, 48, 52
2, 15794, Note_on_c, 0, 60, 52
2, 15803, Note_on_c, 0, 72, 0
2, 15813, Note_on_c, 0, 56, 0
2, 15826, Note_on_c, 0, 60, 0
2, 15826, Note_on_c, 0, 65, 0
2, 15826, Control_c, 0, 64, 0
2, 15849, Note_on_c, 0, 60, 52
2, 15858, Control_c, 0, 64, 127
2, 15878, Note_on_c, 0, 44, 52
2, 15888, Note_on_c, 0, 53, 52
2, 15896, Note_on_c, 0, 48, 0
2, 15910, Control_c, 0, 64, 0
2, 15931, Note_on_c, 0, 48, 99
2, 15933, Note_on_c, 0, 36, 99
2, 15937, Note_on_c, 0, 44, 0
2, 15939, Note_on_c, 0, 53, 0
2, 16008, Note_on_c, 0, 60, 0
2, 16014, Note_on_c, 0, 52, 52
2, 16016, Note_on_c, 0, 43, 52
2, 16019, Control_c, 0, 64, 127
2, 16032, Note_on_c, 0, 48, 0
2, 16039, Note_on_c, 0, 60, 52
2, 16048, Note_on_c, 0, 36, 0
2, 16061, Note_on_c, 0, 43, 0
2, 16061, Note_on_c, 0, 60, 0
2, 16078, Note_on_c, 0, 52, 0
2, 16082, Note_on_c, 0, 48, 52
2, 16082, Note_on_c, 0, 60, 52
2, 16123, Note_on_c, 0, 55, 52
2, 16123, Note_on_c, 0, 64, 52
2, 16129, Note_on_c, 0, 60, 0
2, 16154, Note_on_c, 0, 48, 0
2, 16166, Note_on_c, 0, 60, 52
2, 16166, Note_on_c, 0, 72, 52
2, 16184, Note_on_c, 0, 72, 0
2, 16184, Note_on_c, 0, 60, 0
2, 16184, Note_on_c, 0, 64, 0
2, 16198, Note_on_c, 0, 55, 0
2, 16218, Note_on_c, 0, 60, 52
2, 16218, Note_on_c, 0, 72, 52
2, 16241, Note_on_c, 0, 72, 0
2, 16246, Note_on_c, 0, 76, 52
2, 16246, Note_on_c, 0, 67, 52
2, 16272, Note_on_c, 0, 72, 68
2, 16272, Note_on_c, 0, 84, 68
2, 16279, Note_on_c, 0, 76, 0
2, 16293, Note_on_c, 0, 67, 0
2, 16309, Note_on_c, 0, 60, 0
2, 16324, Note_on_c, 0, 67, 52
2, 16324, Note_on_c, 0, 76, 52
2, 16334, Note_on_c, 0, 72, 0
2, 16361, Note_on_c, 0, 84, 0
2, 16370, Note_on_c, 0, 60, 52
2, 16370, Note_on_c, 0, 72, 52
2, 16389, Note_on_c, 0, 72, 0
2, 16389, Note_on_c, 0, 60, 0
2, 16389, Note_on_c, 0, 67, 0
2, 16402, Note_on_c, 0, 76, 0
2, 16411, Note_on_c, 0, 72, 52
2, 16424, Note_on_c, 0, 60, 52
2, 16449, Note_on_c, 0, 55, 52
2, 16449, Note_on_c, 0, 64, 52
2, 16456, Note_on_c, 0, 60, 0
2, 16490, Note_on_c, 0, 48, 52
2, 16490, Note_on_c, 0, 60, 52
2, 16511, Note_on_c, 0, 72, 0
2, 16511, Note_on_c, 0, 64, 0
2, 16524, Note_on_c, 0, 48, 0
2, 16524, Note_on_c, 0, 55, 0
2, 16524, Note_on_c, 0, 60, 0
2, 16559, Note_on_c, 0, 48, 52
2, 16559, Note_on_c, 0, 60, 52
2, 16560, Control_c, 0, 64, 0
2, 16587, Note_on_c, 0, 52, 52
2, 16592, Control_c, 0, 64, 127
2, 16601, Note_on_c, 0, 43, 52
2, 16619, Note_on_c, 0, 48, 0
2, 16642, Note_on_c, 0, 32, 52
2, 16660, Note_on_c, 0, 43, 0
2, 16687, Note_on_c, 0, 52, 0
2, 16694, Note_on_c, 0, 39, 52
2, 16722, Control_c, 0, 64, 0
2, 16772, Note_on_c, 0, 48, 99
2, 16860, Note_on_c, 0, 39, 0
2, 16910, Control_c, 0, 64, 127
2, 16920, Note_on_c, 0, 39, 52
2, 16920, Note_on_c, 0, 51, 52
2, 16939, Note_on_c, 0, 60, 0
2, 16942, Note_on_c, 0, 32, 0
2, 16968, Note_on_c, 0, 48, 0
2, 16975, Note_on_c, 0, 44, 52
2, 16982, Note_on_c, 0, 39, 0
2, 16992, Note_on_c, 0, 60, 52
2, 16998, Note_on_c, 0, 44, 0
2, 17012, Note_on_c, 0, 60, 0
2, 17025, Note_on_c, 0, 51, 0
2, 17034, Note_on_c, 0, 44, 52
2, 17034, Note_on_c, 0, 60, 52
2, 17077, Note_on_c, 0, 51, 52
2, 17077, Note_on_c, 0, 63, 52
2, 17084, Note_on_c, 0, 60, 0
2, 17084, Note_on_c, 0, 44, 0
2, 17105, Note_on_c, 0, 56, 52
2, 17105, Note_on_c, 0, 72, 52
2, 17125, Note_on_c, 0, 72, 0
2, 17125, Note_on_c, 0, 56, 0
2, 17138, Note_on_c, 0, 63, 0
2, 17155, Note_on_c, 0, 51, 0
2, 17159, Note_on_c, 0, 56, 60
2, 17159, Note_on_c, 0, 72, 60
2, 17205, Note_on_c, 0, 63, 60
2, 17215, Note_on_c, 0, 75, 60
2, 17238, Note_on_c, 0, 56, 0
2, 17245, Note_on_c, 0, 84, 60
2, 17247, Note_on_c, 0, 68, 60
2, 17252, Note_on_c, 0, 75, 0
2, 17255, Note_on_c, 0, 72, 0
2, 17268, Note_on_c, 0, 84, 0
2, 17268, Note_on_c, 0, 63, 0
2, 17268, Note_on_c, 0, 68, 0
2, 17286, Note_on_c, 0, 84, 60
2, 17302, Note_on_c, 0, 68, 60
2, 17331, Note_on_c, 0, 75, 60
2, 17331, Note_on_c, 0, 87, 60
2, 17353, Note_on_c, 0, 96, 68
2, 17358, Note_on_c, 0, 87, 0
2, 17358, Note_on_c, 0, 75, 0
2, 17358, Note_on_c, 0, 84, 0
2, 17358, Note_on_c, 0, 68, 0
2, 17365, Note_on_c, 0, 80, 68
2, 17406, Note_on_c, 0, 75, 54
2, 17406, Note_on_c, 0, 87, 54
2, 17426, Note_on_c, 0, 80, 0
2, 17426, Note_on_c, 0, 96, 0
2, 17433, Note_on_c, 0, 68, 61
2, 17433, Note_on_c, 0, 84, 61
2, 17440, Note_on_c, 0, 87, 0
2, 17456, Note_on_c, 0, 75, 0
2, 17456, Note_on_c, 0, 68, 0
2, 17456, Note_on_c, 0, 84, 0
2, 17476, Note_on_c, 0, 68, 54
2, 17476, Note_on_c, 0, 84, 54
2, 17521, Note_on_c, 0, 63, 48
2, 17521, Note_on_c, 0, 75, 48
2, 17542, Note_on_c, 0, 84, 0
2, 17553, Control_c, 0, 64, 0
2, 17556, Note_on_c, 0, 68, 0
2, 17563, Note_on_c, 0, 56, 48
2, 17563, Note_on_c, 0, 72, 48
2, 17571, Note_on_c, 0, 75, 0
2, 17585, Note_on_c, 0, 63, 0
2, 17585, Note_on_c, 0, 56, 0
2, 17585, Note_on_c, 0, 72, 0
2, 17585, Control_c, 0, 64, 127
2, 17606, Note_on_c, 0, 56, 48
2, 17608, Note_on_c, 0, 72, 48
2, 17651, Note_on_c, 0, 51, 48
2, 17651, Note_on_c, 0, 63, 48
2, 17671, Note_on_c, 0, 72, 0
2, 17671, Note_on_c, 0, 56, 0
2, 17694, Note_on_c, 0, 44, 48
2, 17694, Note_on_c, 0, 60, 48
2, 17701, Note_on_c, 0, 63, 0
2, 17716, Note_on_c, 0, 60, 0
2, 17716, Note_on_c, 0, 44, 0
2, 17730, Note_on_c, 0, 51, 0
2, 17736, Note_on_c, 0, 60, 48
2, 17739, Note_on_c, 0, 44, 48
2, 17778, Note_on_c, 0, 39, 48
2, 17778, Note_on_c, 0, 51, 48
2, 17808, Note_on_c, 0, 32, 47
2, 17846, Note_on_c, 0, 48, 64
2, 17851, Note_on_c, 0, 39, 0
2, 17880, Note_on_c, 0, 51, 0
2, 17925, Note_on_c, 0, 51, 44
2, 17928, Note_on_c, 0, 39, 44
2, 17934, Note_on_c, 0, 44, 0
2, 17959, Note_on_c, 0, 48, 0
2, 17959, Note_on_c, 0, 60, 0
2, 17966, Note_on_c, 0, 43, 44
2, 17973, Control_c, 0, 64, 0
2, 18004, Note_on_c, 0, 39, 0
2, 18021, Note_on_c, 0, 46, 76
2, 18071, Note_on_c, 0, 51, 0
2, 18116, Note_on_c, 0, 51, 44
2, 18120, Control_c, 0, 64, 127
2, 18124, Note_on_c, 0, 32, 0
2, 18131, Note_on_c, 0, 39, 44
2, 18138, Note_on_c, 0, 43, 0
2, 18166, Note_on_c, 0, 51, 0
2, 18174, Note_on_c, 0, 32, 44
2, 18174, Note_on_c, 0, 58, 44
2, 18179, Note_on_c, 0, 39, 0
2, 18192, Note_on_c, 0, 46, 0
2, 18202, Note_on_c, 0, 51, 44
2, 18216, Note_on_c, 0, 39, 44
2, 18240, Note_on_c, 0, 46, 44
2, 18276, Note_on_c, 0, 39, 0
2, 18281, Note_on_c, 0, 49, 68
2, 18301, Note_on_c, 0, 51, 0
2, 18312, Note_on_c, 0, 58, 0
2, 18351, Note_on_c, 0, 39, 44
2, 18358, Note_on_c, 0, 32, 0
2, 18365, Note_on_c, 0, 51, 44
2, 18372, Note_on_c, 0, 46, 0
2, 18372, Note_on_c, 0, 49, 0
2, 18406, Note_on_c, 0, 32, 44
2, 18422, Note_on_c, 0, 63, 44
2, 18429, Note_on_c, 0, 39, 0
2, 18444, Note_on_c, 0, 51, 0
2, 18469, Note_on_c, 0, 63, 0
2, 18476, Note_on_c, 0, 39, 44
2, 18476, Note_on_c, 0, 51, 44
2, 18482, Note_on_c, 0, 32, 0
2, 18532, Note_on_c, 0, 32, 44
2, 18537, Note_on_c, 0, 39, 0
2, 18576, Control_c, 0, 64, 0
2, 18599, Note_on_c, 0, 48, 85
2, 18662, Note_on_c, 0, 51, 0
2, 18696, Note_on_c, 0, 39, 48
2, 18696, Note_on_c, 0, 51, 48
2, 18730, Control_c, 0, 64, 127
2, 18739, Note_on_c, 0, 44, 48
2, 18739, Note_on_c, 0, 60, 48
2, 18759, Note_on_c, 0, 60, 0
2, 18759, Note_on_c, 0, 32, 0
2, 18759, Note_on_c, 0, 44, 0
2, 18762, Note_on_c, 0, 39, 0
2, 18782, Note_on_c, 0, 44, 48
2, 18782, Note_on_c, 0, 60, 48
2, 18789, Note_on_c, 0, 51, 0
2, 18825, Note_on_c, 0, 51, 48
2, 18825, Note_on_c, 0, 63, 48
2, 18830, Note_on_c, 0, 48, 0
2, 18859, Note_on_c, 0, 60, 0
2, 18859, Note_on_c, 0, 44, 0
2, 18864, Note_on_c, 0, 72, 48
2, 18877, Note_on_c, 0, 56, 48
2, 18884, Note_on_c, 0, 63, 0
2, 18887, Note_on_c, 0, 72, 0
2, 18900, Note_on_c, 0, 56, 0
2, 18918, Note_on_c, 0, 56, 50
2, 18918, Note_on_c, 0, 72, 50
2, 18927, Note_on_c, 0, 51, 0
2, 18959, Note_on_c, 0, 63, 60
2, 18959, Note_on_c, 0, 75, 60
2, 18993, Note_on_c, 0, 72, 0
2, 18993, Note_on_c, 0, 56, 0
2, 19000, Note_on_c, 0, 84, 60
2, 19002, Note_on_c, 0, 68, 60
2, 19020, Note_on_c, 0, 63, 0
2, 19022, Note_on_c, 0, 75, 0
2, 19022, Note_on_c, 0, 84, 0
2, 19022, Note_on_c, 0, 68, 0
2, 19043, Note_on_c, 0, 68, 60
2, 19043, Note_on_c, 0, 84, 60
2, 19083, Note_on_c, 0, 75, 60
2, 19083, Note_on_c, 0, 87, 60
2, 19117, Note_on_c, 0, 87, 0
2, 19117, Note_on_c, 0, 68, 0
2, 19125, Note_on_c, 0, 80, 68
2, 19125, Note_on_c, 0, 96, 68
2, 19128, Note_on_c, 0, 75, 0
2, 19145, Note_on_c, 0, 84, 0
2, 19165, Note_on_c, 0, 75, 60
2, 19165, Note_on_c, 0, 87, 60
2, 19183, Note_on_c, 0, 80, 0
2, 19185, Note_on_c, 0, 96, 0
2, 19203, Note_on_c, 0, 68, 57
2, 19203, Note_on_c, 0, 84, 57
2, 19210, Note_on_c, 0, 87, 0
2, 19224, Note_on_c, 0, 75, 0
2, 19224, Note_on_c, 0, 68, 0
2, 19224, Note_on_c, 0, 84, 0
2, 19235, Control_c, 0, 64, 0
2, 19245, Note_on_c, 0, 68, 52
2, 19245, Note_on_c, 0, 84, 52
2, 19267, Control_c, 0, 64, 127
2, 19288, Note_on_c, 0, 63, 52
2, 19288, Note_on_c, 0, 75, 52
2, 19308, Note_on_c, 0, 68, 0
2, 19310, Note_on_c, 0, 84, 0
2, 19328, Note_on_c, 0, 56, 52
2, 19328, Note_on_c, 0, 72, 52
2, 19335, Note_on_c, 0, 63, 0
2, 19335, Note_on_c, 0, 75, 0
2, 19348, Note_on_c, 0, 56, 0
2, 19348, Note_on_c, 0, 72, 0
2, 19369, Note_on_c, 0, 56, 55
2, 19369, Note_on_c, 0, 72, 55
2, 19396, Note_on_c, 0, 51, 60
2, 19396, Note_on_c, 0, 63, 60
2, 19416, Note_on_c, 0, 56, 0
2, 19433, Note_on_c, 0, 72, 0
2, 19437, Note_on_c, 0, 44, 60
2, 19437, Note_on_c, 0, 60, 60
2, 19444, Note_on_c, 0, 63, 0
2, 19458, Note_on_c, 0, 60, 0
2, 19458, Note_on_c, 0, 44, 0
2, 19471, Note_on_c, 0, 51, 0
2, 19485, Control_c, 0, 64, 0
2, 19489, Note_on_c, 0, 44, 57
2, 19489, Note_on_c, 0, 60, 57
2, 19516, Note_on_c, 0, 51, 52
2, 19518, Note_on_c, 0, 39, 52
2, 19558, Note_on_c, 0, 32, 85
2, 19571, Note_on_c, 0, 48, 85
2, 19578, Note_on_c, 0, 39, 0
2, 19586, Control_c, 0, 64, 127
2, 19603, Note_on_c, 0, 51, 0
2, 19639, Note_on_c, 0, 39, 44
2, 19643, Note_on_c, 0, 44, 0
2, 19650, Note_on_c, 0, 51, 44
2, 19684, Note_on_c, 0, 60, 0
2, 19684, Control_c, 0, 64, 0
2, 19691, Note_on_c, 0, 43, 44
2, 19711, Note_on_c, 0, 39, 0
2, 19731, Note_on_c, 0, 46, 85
2, 19754, Note_on_c, 0, 48, 0
2, 19771, Note_on_c, 0, 51, 0
2, 19793, Control_c, 0, 64, 127
2, 19798, Note_on_c, 0, 32, 0
2, 19804, Note_on_c, 0, 51, 44
2, 19820, Note_on_c, 0, 39, 44
2, 19845, Note_on_c, 0, 32, 44
2, 19861, Note_on_c, 0, 58, 44
2, 19868, Note_on_c, 0, 39, 0
2, 19868, Note_on_c, 0, 51, 0
2, 19868, Note_on_c, 0, 43, 0
2, 19881, Note_on_c, 0, 46, 0
2, 19904, Note_on_c, 0, 39, 44
2, 19904, Note_on_c, 0, 51, 44
2, 19936, Control_c, 0, 64, 0
2, 19938, Note_on_c, 0, 58, 0
2, 19944, Note_on_c, 0, 44, 82
2, 19959, Note_on_c, 0, 41, 81
2, 19966, Note_on_c, 0, 39, 0
2, 19984, Note_on_c, 0, 51, 0
2, 20017, Note_on_c, 0, 39, 44
2, 20017, Note_on_c, 0, 51, 44
2, 20022, Note_on_c, 0, 32, 0
2, 20044, Control_c, 0, 64, 127
2, 20065, Note_on_c, 0, 39, 0
2, 20072, Note_on_c, 0, 56, 44
2, 20079, Note_on_c, 0, 51, 0
2, 20088, Note_on_c, 0, 32, 44
2, 20112, Note_on_c, 0, 39, 44
2, 20112, Note_on_c, 0, 51, 44
2, 20119, Note_on_c, 0, 32, 0
2, 20136, Note_on_c, 0, 44, 0
2, 20149, Note_on_c, 0, 41, 0
2, 20156, Note_on_c, 0, 32, 44
2, 20189, Control_c, 0, 64, 0
2, 20192, Note_on_c, 0, 39, 0
2, 20226, Note_on_c, 0, 46, 71
2, 20232, Note_on_c, 0, 56, 0
2, 20289, Note_on_c, 0, 51, 0
2, 20321, Note_on_c, 0, 51, 48
2, 20324, Note_on_c, 0, 39, 48
2, 20337, Control_c, 0, 64, 127
2, 20371, Note_on_c, 0, 39, 0
2, 20371, Note_on_c, 0, 46, 0
2, 20380, Note_on_c, 0, 43, 48
2, 20380, Note_on_c, 0, 58, 48
2, 20400, Note_on_c, 0, 58, 0
2, 20414, Note_on_c, 0, 32, 0
2, 20417, Note_on_c, 0, 43, 0
2, 20424, Note_on_c, 0, 58, 48
2, 20427, Note_on_c, 0, 51, 0
2, 20434, Note_on_c, 0, 44, 48
2, 20464, Note_on_c, 0, 51, 48
2, 20464, Note_on_c, 0, 63, 48
2, 20484, Note_on_c, 0, 44, 0
2, 20487, Note_on_c, 0, 58, 0
2, 20491, Note_on_c, 0, 70, 48
2, 20507, Note_on_c, 0, 55, 48
2, 20514, Note_on_c, 0, 70, 0
2, 20525, Note_on_c, 0, 63, 0
2, 20547, Note_on_c, 0, 56, 61
2, 20547, Note_on_c, 0, 70, 61
2, 20555, Note_on_c, 0, 51, 0
2, 20568, Note_on_c, 0, 55, 0
2, 20591, Note_on_c, 0, 63, 64
2, 20591, Note_on_c, 0, 75, 64
2, 20614, Note_on_c, 0, 67, 64
2, 20614, Note_on_c, 0, 82, 64
2, 20620, Note_on_c, 0, 56, 0
2, 20620, Note_on_c, 0, 70, 0
2, 20637, Note_on_c, 0, 82, 0
2, 20650, Note_on_c, 0, 63, 0
2, 20652, Note_on_c, 0, 75, 0
2, 20664, Note_on_c, 0, 67, 0
2, 20672, Note_on_c, 0, 68, 54
2, 20672, Note_on_c, 0, 82, 54
2, 20711, Note_on_c, 0, 75, 52
2, 20713, Note_on_c, 0, 87, 52
2, 20747, Note_on_c, 0, 87, 0
2, 20747, Note_on_c, 0, 75, 0
2, 20747, Note_on_c, 0, 82, 0
2, 20752, Note_on_c, 0, 79, 68
2, 20754, Note_on_c, 0, 94, 68
2, 20760, Note_on_c, 0, 68, 0
2, 20795, Note_on_c, 0, 75, 52
2, 20795, Note_on_c, 0, 87, 52
2, 20815, Note_on_c, 0, 79, 0
2, 20822, Note_on_c, 0, 82, 52
2, 20832, Note_on_c, 0, 94, 0
2, 20835, Note_on_c, 0, 68, 52
2, 20845, Note_on_c, 0, 82, 0
2, 20858, Note_on_c, 0, 87, 0
2, 20858, Note_on_c, 0, 75, 0
2, 20879, Note_on_c, 0, 67, 52
2, 20879, Note_on_c, 0, 82, 52
2, 20885, Note_on_c, 0, 68, 0
2, 20922, Note_on_c, 0, 63, 64
2, 20935, Note_on_c, 0, 75, 62
2, 20952, Note_on_c, 0, 67, 0
2, 20953, Note_on_c, 0, 82, 0
2, 20958, Note_on_c, 0, 56, 58
2, 20960, Note_on_c, 0, 70, 58
2, 20967, Note_on_c, 0, 63, 0
2, 20980, Note_on_c, 0, 75, 0
2, 20980, Note_on_c, 0, 70, 0
2, 20995, Note_on_c, 0, 56, 0
2, 21005, Note_on_c, 0, 70, 51
2, 21017, Note_on_c, 0, 55, 49
2, 21045, Note_on_c, 0, 51, 48
2, 21047, Note_on_c, 0, 63, 48
2, 21080, Note_on_c, 0, 70, 0
2, 21087, Note_on_c, 0, 44, 48
2, 21087, Note_on_c, 0, 58, 48
2, 21108, Note_on_c, 0, 58, 0
2, 21108, Note_on_c, 0, 55, 0
2, 21110, Note_on_c, 0, 63, 0
2, 21121, Note_on_c, 0, 44, 0
2, 21137, Note_on_c, 0, 51, 0
2, 21142, Note_on_c, 0, 43, 48
2, 21142, Note_on_c, 0, 58, 48
2, 21168, Note_on_c, 0, 39, 48
2, 21168, Note_on_c, 0, 51, 48
2, 21171, Note_on_c, 0, 32, 48
2, 21201, Note_on_c, 0, 43, 0
2, 21221, Note_on_c, 0, 46, 65
2, 21241, Note_on_c, 0, 39, 0
2, 21255, Note_on_c, 0, 51, 0
2, 21293, Note_on_c, 0, 39, 44
2, 21293, Note_on_c, 0, 51, 44
2, 21325, Note_on_c, 0, 58, 0
2, 21332, Note_on_c, 0, 41, 44
2, 21339, Note_on_c, 0, 46, 0
2, 21368, Note_on_c, 0, 39, 0
2, 21388, Note_on_c, 0, 44, 89
2, 21393, Control_c, 0, 64, 0
2, 21475, Note_on_c, 0, 37, 44
2, 21478, Note_on_c, 0, 32, 0
2, 21484, Note_on_c, 0, 49, 44
2, 21503, Control_c, 0, 64, 127
2, 21513, Note_on_c, 0, 56, 44
2, 21518, Note_on_c, 0, 37, 0
2, 21520, Note_on_c, 0, 49, 0
2, 21525, Note_on_c, 0, 32, 44
2, 21552, Note_on_c, 0, 37, 44
2, 21552, Note_on_c, 0, 49, 44
2, 21559, Note_on_c, 0, 41, 0
2, 21586, Note_on_c, 0, 51, 0
2, 21600, Note_on_c, 0, 37, 0
2, 21600, Note_on_c, 0, 49, 0
2, 21606, Note_on_c, 0, 41, 81
2, 21609, Note_on_c, 0, 32, 0
2, 21645, Note_on_c, 0, 37, 44
2, 21645, Note_on_c, 0, 49, 44
2, 21686, Note_on_c, 0, 53, 44
2, 21693, Note_on_c, 0, 49, 0
2, 21693, Note_on_c, 0, 37, 0
2, 21697, Note_on_c, 0, 32, 44
2, 21706, Note_on_c, 0, 41, 0
2, 21706, Note_on_c, 0, 44, 0
2, 21743, Note_on_c, 0, 37, 44
2, 21754, Note_on_c, 0, 49, 44
2, 21758, Control_c, 0, 64, 0
2, 21761, Note_on_c, 0, 32, 0
2, 21788, Note_on_c, 0, 37, 0
2, 21808, Note_on_c, 0, 32, 68
2, 21813, Note_on_c, 0, 56, 0
2, 21815, Note_on_c, 0, 49, 0
2, 21821, Note_on_c, 0, 44, 68
2, 21863, Note_on_c, 0, 40, 48
2, 21867, Control_c, 0, 64, 127
2, 21883, Note_on_c, 0, 53, 0
2, 21889, Note_on_c, 0, 49, 48
2, 21911, Note_on_c, 0, 32, 0
2, 21911, Note_on_c, 0, 40, 0
2, 21921, Note_on_c, 0, 44, 0
2, 21939, Note_on_c, 0, 49, 0
2, 21989, Note_on_c, 0, 44, 48
2, 21989, Note_on_c, 0, 56, 48
2, 22001, Note_on_c, 0, 52, 48
2, 22008, Note_on_c, 0, 56, 0
2, 22014, Note_on_c, 0, 61, 59
2, 22034, Note_on_c, 0, 44, 0
2, 22078, Note_on_c, 0, 61, 0
2, 22105, Note_on_c, 0, 52, 0
2, 22112, Note_on_c, 0, 56, 60
2, 22141, Note_on_c, 0, 64, 60
2, 22141, Note_on_c, 0, 73, 60
2, 22162, Note_on_c, 0, 73, 0
2, 22169, Note_on_c, 0, 68, 68
2, 22171, Note_on_c, 0, 64, 0
2, 22173, Note_on_c, 0, 56, 0
2, 22180, Note_on_c, 0, 80, 68
2, 22202, Note_on_c, 0, 68, 0
2, 22223, Note_on_c, 0, 64, 55
2, 22223, Note_on_c, 0, 73, 55
2, 22244, Note_on_c, 0, 80, 0
2, 22259, Note_on_c, 0, 68, 60
2, 22269, Note_on_c, 0, 64, 0
2, 22279, Note_on_c, 0, 68, 0
2, 22279, Note_on_c, 0, 73, 0
2, 22302, Note_on_c, 0, 68, 60
2, 22329, Note_on_c, 0, 52, 60
2, 22344, Note_on_c, 0, 61, 60
2, 22377, Note_on_c, 0, 68, 0
2, 22391, Note_on_c, 0, 52, 0
2, 22393, Note_on_c, 0, 61, 0
2, 22425, Note_on_c, 0, 44, 59
2, 22427, Note_on_c, 0, 56, 59
2, 22461, Note_on_c, 0, 44, 0
2, 22467, Note_on_c, 0, 40, 52
2, 22467, Note_on_c, 0, 49, 52
2, 22482, Note_on_c, 0, 32, 76
2, 22488, Note_on_c, 0, 56, 0
2, 22500, Note_on_c, 0, 40, 0
2, 22502, Note_on_c, 0, 49, 0
2, 22513, Control_c, 0, 64, 0
2, 22524, Note_on_c, 0, 44, 52
2, 22538, Note_on_c, 0, 39, 52
2, 22538, Note_on_c, 0, 48, 52
2, 22567, Note_on_c, 0, 56, 52
2, 22572, Note_on_c, 0, 44, 0
2, 22588, Note_on_c, 0, 56, 0
2, 22629, Note_on_c, 0, 32, 0
2, 22633, Control_c, 0, 64, 127
2, 22635, Note_on_c, 0, 44, 52
2, 22635, Note_on_c, 0, 56, 52
2, 22642, Note_on_c, 0, 48, 0
2, 22656, Note_on_c, 0, 56, 0
2, 22663, Note_on_c, 0, 51, 52
2, 22677, Note_on_c, 0, 60, 52
2, 22683, Note_on_c, 0, 44, 0
2, 22683, Note_on_c, 0, 39, 0
2, 22704, Note_on_c, 0, 56, 52
2, 22704, Note_on_c, 0, 68, 68
2, 22710, Note_on_c, 0, 51, 0
2, 22712, Note_on_c, 0, 60, 0
2, 22724, Note_on_c, 0, 56, 0
2, 22747, Note_on_c, 0, 51, 52
2, 22747, Note_on_c, 0, 60, 52
2, 22774, Note_on_c, 0, 44, 52
2, 22776, Note_on_c, 0, 56, 52
2, 22783, Note_on_c, 0, 68, 0
2, 22810, Note_on_c, 0, 56, 0
2, 22810, Note_on_c, 0, 60, 0
2, 22822, Note_on_c, 0, 51, 0
2, 22822, Note_on_c, 0, 44, 0
2, 22835, Control_c, 0, 64, 0
2, 22855, Note_on_c, 0, 32, 87
2, 22855, Note_on_c, 0, 42, 87
2, 22862, Control_c, 0, 67, 127
2, 22898, Note_on_c, 0, 38, 46
2, 22898, Note_on_c, 0, 48, 46
2, 22940, Note_on_c, 0, 54, 43
2, 22942, Control_c, 0, 64, 127
2, 22944, Note_on_c, 0, 32, 0
2, 22957, Note_on_c, 0, 54, 0
2, 22971, Note_on_c, 0, 48, 0
2, 22971, Note_on_c, 0, 38, 0
2, 22978, Note_on_c, 0, 54, 43
2, 22992, Note_on_c, 0, 44, 43
2, 23012, Note_on_c, 0, 54, 0
2, 23012, Note_on_c, 0, 42, 0
2, 23021, Note_on_c, 0, 50, 43
2, 23021, Note_on_c, 0, 60, 43
2, 23040, Note_on_c, 0, 44, 0
2, 23055, Note_on_c, 0, 60, 0
2, 23062, Note_on_c, 0, 56, 39
2, 23062, Note_on_c, 0, 66, 56
2, 23068, Note_on_c, 0, 50, 0
2, 23091, Note_on_c, 0, 60, 39
2, 23103, Note_on_c, 0, 50, 39
2, 23112, Note_on_c, 0, 56, 0
2, 23125, Note_on_c, 0, 66, 0
2, 23132, Note_on_c, 0, 44, 39
2, 23132, Note_on_c, 0, 54, 39
2, 23153, Note_on_c, 0, 60, 0
2, 23153, Note_on_c, 0, 50, 0
2, 23180, Note_on_c, 0, 54, 0
2, 23182, Note_on_c, 0, 44, 0
2, 23191, Control_c, 0, 64, 0
2, 23248, Note_on_c, 0, 31, 56
2, 23248, Note_on_c, 0, 43, 56
2, 23318, Note_on_c, 0, 38, 43
2, 23318, Note_on_c, 0, 47, 43
2, 23356, Note_on_c, 0, 55, 43
2, 23386, Control_c, 0, 64, 127
2, 23390, Note_on_c, 0, 55, 0
2, 23390, Note_on_c, 0, 43, 0
2, 23390, Note_on_c, 0, 47, 0
2, 23404, Note_on_c, 0, 38, 0
2, 23420, Note_on_c, 0, 31, 0
2, 23426, Note_on_c, 0, 43, 43
2, 23426, Note_on_c, 0, 55, 43
2, 23456, Note_on_c, 0, 50, 43
2, 23461, Note_on_c, 0, 55, 0
2, 23470, Note_on_c, 0, 59, 43
2, 23474, Note_on_c, 0, 43, 0
2, 23496, Note_on_c, 0, 55, 43
2, 23496, Note_on_c, 0, 67, 43
2, 23504, Note_on_c, 0, 59, 0
2, 23518, Note_on_c, 0, 50, 0
2, 23520, Note_on_c, 0, 67, 0
2, 23531, Note_on_c, 0, 55, 0
2, 23565, Note_on_c, 0, 55, 43
2, 23565, Note_on_c, 0, 67, 43
2, 23592, Note_on_c, 0, 62, 43
2, 23594, Note_on_c, 0, 71, 43
2, 23599, Note_on_c, 0, 67, 0
2, 23611, Note_on_c, 0, 55, 0
2, 23626, Note_on_c, 0, 71, 0
2, 23633, Note_on_c, 0, 79, 56
2, 23633, Note_on_c, 0, 67, 56
2, 23651, Control_c, 0, 67, 0
2, 23653, Note_on_c, 0, 62, 0
2, 23676, Note_on_c, 0, 71, 48
2, 23688, Note_on_c, 0, 62, 48
2, 23696, Note_on_c, 0, 67, 0
2, 23710, Note_on_c, 0, 79, 0
2, 23719, Note_on_c, 0, 55, 48
2, 23731, Note_on_c, 0, 67, 48
2, 23737, Note_on_c, 0, 62, 0
2, 23739, Note_on_c, 0, 71, 0
2, 23749, Note_on_c, 0, 55, 0
2, 23751, Note_on_c, 0, 67, 0
2, 23784, Note_on_c, 0, 55, 48
2, 23784, Note_on_c, 0, 67, 48
2, 23812, Note_on_c, 0, 50, 48
2, 23812, Note_on_c, 0, 59, 48
2, 23834, Note_on_c, 0, 55, 0
2, 23846, Note_on_c, 0, 67, 0
2, 23866, Note_on_c, 0, 55, 48
2, 23869, Note_on_c, 0, 43, 48
2, 23873, Note_on_c, 0, 50, 0
2, 23876, Note_on_c, 0, 59, 0
2, 23889, Note_on_c, 0, 43, 0
2, 23891, Note_on_c, 0, 55, 0
2, 23923, Note_on_c, 0, 43, 48
2, 23923, Note_on_c, 0, 55, 48
2, 23937, Note_on_c, 0, 38, 48
2, 23948, Note_on_c, 0, 47, 48
2, 23966, Note_on_c, 0, 43, 0
2, 23969, Note_on_c, 0, 55, 0
2, 23979, Control_c, 0, 64, 0
2, 23996, Note_on_c, 0, 38, 0
2, 23996, Note_on_c, 0, 47, 0
2, 24002, Note_on_c, 0, 31, 65
2, 24002, Note_on_c, 0, 44, 65
2, 24054, Note_on_c, 0, 39, 48
2, 24054, Note_on_c, 0, 48, 48
2, 24096, Note_on_c, 0, 43, 48
2, 24096, Note_on_c, 0, 56, 48
2, 24116, Note_on_c, 0, 56, 0
2, 24116, Note_on_c, 0, 43, 0
2, 24132, Note_on_c, 0, 39, 0
2, 24145, Note_on_c, 0, 48, 0
2, 24152, Note_on_c, 0, 43, 48
2, 24152, Note_on_c, 0, 56, 48
2, 24154, Control_c, 0, 64, 127
2, 24159, Note_on_c, 0, 31, 0
2, 24172, Note_on_c, 0, 44, 0
2, 24177, Note_on_c, 0, 51, 48
2, 24189, Note_on_c, 0, 60, 48
2, 24209, Note_on_c, 0, 43, 0
2, 24209, Note_on_c, 0, 56, 0
2, 24217, Note_on_c, 0, 55, 56
2, 24234, Note_on_c, 0, 68, 54
2, 24239, Note_on_c, 0, 60, 0
2, 24252, Note_on_c, 0, 55, 0
2, 24254, Note_on_c, 0, 51, 0
2, 24254, Note_on_c, 0, 68, 0
2, 24277, Note_on_c, 0, 55, 52
2, 24277, Note_on_c, 0, 68, 52
2, 24306, Note_on_c, 0, 72, 52
2, 24317, Note_on_c, 0, 63, 52
2, 24354, Note_on_c, 0, 68, 0
2, 24360, Note_on_c, 0, 67, 61
2, 24360, Note_on_c, 0, 80, 61
2, 24367, Note_on_c, 0, 63, 0
2, 24381, Note_on_c, 0, 72, 0
2, 24392, Note_on_c, 0, 55, 0
2, 24415, Note_on_c, 0, 63, 52
2, 24415, Note_on_c, 0, 72, 52
2, 24435, Note_on_c, 0, 67, 0
2, 24440, Note_on_c, 0, 55, 52
2, 24440, Note_on_c, 0, 68, 52
2, 24449, Note_on_c, 0, 80, 0
2, 24460, Note_on_c, 0, 55, 0
2, 24460, Note_on_c, 0, 63, 0
2, 24462, Note_on_c, 0, 68, 0
2, 24479, Note_on_c, 0, 72, 0
2, 24497, Note_on_c, 0, 55, 48
2, 24497, Note_on_c, 0, 68, 48
2, 24537, Note_on_c, 0, 51, 48
2, 24540, Note_on_c, 0, 60, 48
2, 24567, Note_on_c, 0, 43, 48
2, 24567, Note_on_c, 0, 56, 48
2, 24572, Note_on_c, 0, 55, 0
2, 24574, Note_on_c, 0, 68, 0
2, 24585, Note_on_c, 0, 43, 0
2, 24587, Note_on_c, 0, 56, 0
2, 24599, Note_on_c, 0, 60, 0
2, 24617, Note_on_c, 0, 51, 0
2, 24622, Note_on_c, 0, 43, 48
2, 24622, Note_on_c, 0, 56, 48
2, 24660, Note_on_c, 0, 39, 48
2, 24665, Control_c, 0, 64, 0
2, 24692, Note_on_c, 0, 43, 0
2, 24705, Note_on_c, 0, 39, 0
2, 24707, Note_on_c, 0, 56, 0
2, 24714, Note_on_c, 0, 48, 99
2, 24742, Note_on_c, 0, 31, 48
2, 24755, Note_on_c, 0, 38, 48
2, 24768, Note_on_c, 0, 53, 48
2, 24795, Note_on_c, 0, 44, 55
2, 24812, Control_c, 0, 64, 127
2, 24812, Note_on_c, 0, 60, 60
2, 24814, Note_on_c, 0, 38, 0
2, 24816, Note_on_c, 0, 44, 0
2, 24832, Note_on_c, 0, 53, 0
2, 24832, Note_on_c, 0, 60, 0
2, 24850, Note_on_c, 0, 44, 64
2, 24862, Note_on_c, 0, 60, 63
2, 24868, Note_on_c, 0, 31, 0
2, 24875, Note_on_c, 0, 50, 61
2, 24902, Note_on_c, 0, 65, 60
2, 24910, Note_on_c, 0, 48, 0
2, 24910, Note_on_c, 0, 60, 0
2, 24920, Note_on_c, 0, 44, 0
2, 24930, Note_on_c, 0, 56, 60
2, 24943, Note_on_c, 0, 72, 60
2, 24950, Note_on_c, 0, 56, 0
2, 24950, Note_on_c, 0, 50, 0
2, 24963, Note_on_c, 0, 65, 0
2, 24966, Note_on_c, 0, 72, 0
2, 24986, Note_on_c, 0, 56, 60
2, 25000, Note_on_c, 0, 72, 60
2, 25027, Note_on_c, 0, 62, 58
2, 25027, Note_on_c, 0, 77, 58
2, 25045, Note_on_c, 0, 56, 0
2, 25061, Note_on_c, 0, 62, 0
2, 25065, Note_on_c, 0, 68, 71
2, 25065, Note_on_c, 0, 84, 71
2, 25075, Note_on_c, 0, 77, 0
2, 25088, Note_on_c, 0, 72, 0
2, 25095, Note_on_c, 0, 62, 52
2, 25106, Note_on_c, 0, 77, 46
2, 25129, Note_on_c, 0, 68, 0
2, 25143, Note_on_c, 0, 84, 0
2, 25147, Note_on_c, 0, 56, 48
2, 25147, Note_on_c, 0, 72, 48
2, 25158, Note_on_c, 0, 62, 0
2, 25170, Note_on_c, 0, 72, 0
2, 25170, Note_on_c, 0, 56, 0
2, 25172, Note_on_c, 0, 77, 0
2, 25206, Note_on_c, 0, 56, 48
2, 25206, Note_on_c, 0, 72, 48
2, 25233, Note_on_c, 0, 50, 48
2, 25233, Note_on_c, 0, 65, 48
2, 25256, Note_on_c, 0, 56, 0
2, 25278, Note_on_c, 0, 44, 48
2, 25278, Note_on_c, 0, 60, 48
2, 25286, Note_on_c, 0, 72, 0
2, 25296, Note_on_c, 0, 50, 0
2, 25299, Note_on_c, 0, 60, 0
2, 25299, Note_on_c, 0, 44, 0
2, 25313, Note_on_c, 0, 65, 0
2, 25333, Note_on_c, 0, 44, 48
2, 25333, Note_on_c, 0, 60, 48
2, 25363, Note_on_c, 0, 38, 48
2, 25365, Note_on_c, 0, 53, 48
2, 25383, Note_on_c, 0, 44, 0
2, 25410, Control_c, 0, 64, 0
2, 25416, Note_on_c, 0, 47, 61
2, 25424, Note_on_c, 0, 60, 0
2, 25424, Note_on_c, 0, 38, 0
2, 25426, Note_on_c, 0, 53, 0
2, 25458, Note_on_c, 0, 38, 48
2, 25460, Note_on_c, 0, 31, 48
2, 25460, Note_on_c, 0, 53, 48
2, 25516, Note_on_c, 0, 43, 48
2, 25516, Note_on_c, 0, 59, 48
2, 25535, Note_on_c, 0, 43, 0
2, 25535, Note_on_c, 0, 38, 0
2, 25537, Note_on_c, 0, 53, 0
2, 25537, Note_on_c, 0, 59, 0
2, 25551, Note_on_c, 0, 31, 0
2, 25558, Note_on_c, 0, 43, 48
2, 25558, Note_on_c, 0, 59, 48
2, 25560, Control_c, 0, 64, 127
2, 25578, Note_on_c, 0, 47, 0
2, 25584, Note_on_c, 0, 50, 56
2, 25598, Note_on_c, 0, 65, 60
2, 25616, Note_on_c, 0, 43, 0
2, 25619, Note_on_c, 0, 59, 0
2, 25639, Note_on_c, 0, 55, 54
2, 25641, Note_on_c, 0, 71, 54
2, 25646, Note_on_c, 0, 50, 0
2, 25659, Note_on_c, 0, 71, 0
2, 25659, Note_on_c, 0, 55, 0
2, 25676, Note_on_c, 0, 65, 0
2, 25682, Note_on_c, 0, 55, 52
2, 25684, Note_on_c, 0, 71, 52
2, 25726, Note_on_c, 0, 62, 52
2, 25726, Note_on_c, 0, 77, 52
2, 25768, Note_on_c, 0, 67, 68
2, 25768, Note_on_c, 0, 83, 68
2, 25776, Note_on_c, 0, 77, 0
2, 25776, Note_on_c, 0, 62, 0
2, 25800, Note_on_c, 0, 55, 0
2, 25809, Note_on_c, 0, 62, 52
2, 25809, Note_on_c, 0, 77, 52
2, 25816, Note_on_c, 0, 71, 0
2, 25827, Note_on_c, 0, 67, 0
2, 25846, Note_on_c, 0, 83, 0
2, 25852, Note_on_c, 0, 55, 52
2, 25852, Note_on_c, 0, 71, 52
2, 25872, Note_on_c, 0, 71, 0
2, 25872, Note_on_c, 0, 62, 0
2, 25872, Note_on_c, 0, 77, 0
2, 25907, Note_on_c, 0, 71, 46
2, 25936, Note_on_c, 0, 65, 48
2, 25949, Note_on_c, 0, 50, 48
2, 25970, Note_on_c, 0, 55, 0
2, 25977, Note_on_c, 0, 43, 48
2, 25986, Note_on_c, 0, 71, 0
2, 25991, Note_on_c, 0, 59, 48
2, 25997, Note_on_c, 0, 50, 0
2, 25997, Note_on_c, 0, 43, 0
2, 26011, Note_on_c, 0, 65, 0
2, 26011, Note_on_c, 0, 59, 0
2, 26031, Note_on_c, 0, 43, 48
2, 26031, Note_on_c, 0, 59, 48
2, 26072, Note_on_c, 0, 38, 48
2, 26072, Note_on_c, 0, 53, 48
2, 26092, Note_on_c, 0, 43, 0
2, 26117, Control_c, 0, 64, 0
2, 26147, Note_on_c, 0, 38, 0
2, 26162, Note_on_c, 0, 53, 0
2, 26169, Note_on_c, 0, 47, 95
2, 26197, Note_on_c, 0, 31, 48
2, 26226, Control_c, 0, 64, 127
2, 26235, Note_on_c, 0, 38, 48
2, 26249, Note_on_c, 0, 53, 48
2, 26256, Note_on_c, 0, 59, 0
2, 26276, Note_on_c, 0, 43, 48
2, 26292, Note_on_c, 0, 59, 48
2, 26297, Note_on_c, 0, 43, 0
2, 26297, Note_on_c, 0, 38, 0
2, 26310, Note_on_c, 0, 53, 0
2, 26310, Note_on_c, 0, 59, 0
2, 26317, Note_on_c, 0, 43, 48
2, 26342, Note_on_c, 0, 50, 48
2, 26342, Note_on_c, 0, 59, 48
2, 26362, Note_on_c, 0, 31, 0
2, 26372, Note_on_c, 0, 65, 56
2, 26376, Note_on_c, 0, 43, 0
2, 26392, Note_on_c, 0, 59, 0
2, 26397, Note_on_c, 0, 55, 52
2, 26399, Note_on_c, 0, 71, 52
2, 26403, Note_on_c, 0, 50, 0
2, 26405, Note_on_c, 0, 47, 0
2, 26419, Note_on_c, 0, 55, 0
2, 26419, Note_on_c, 0, 71, 0
2, 26435, Note_on_c, 0, 65, 0
2, 26439, Note_on_c, 0, 55, 52
2, 26439, Note_on_c, 0, 71, 52
2, 26469, Note_on_c, 0, 62, 52
2, 26482, Note_on_c, 0, 77, 52
2, 26503, Note_on_c, 0, 55, 0
2, 26525, Note_on_c, 0, 67, 76
2, 26528, Note_on_c, 0, 83, 76
2, 26530, Note_on_c, 0, 62, 0
2, 26532, Note_on_c, 0, 77, 0
2, 26545, Note_on_c, 0, 71, 0
2, 26568, Note_on_c, 0, 62, 52
2, 26568, Note_on_c, 0, 77, 52
2, 26573, Note_on_c, 0, 67, 0
2, 26582, Note_on_c, 0, 55, 52
2, 26605, Note_on_c, 0, 83, 0
2, 26610, Note_on_c, 0, 71, 52
2, 26616, Note_on_c, 0, 55, 0
2, 26616, Note_on_c, 0, 62, 0
2, 26632, Note_on_c, 0, 77, 0
2, 26632, Note_on_c, 0, 71, 0
2, 26652, Note_on_c, 0, 55, 46
2, 26652, Note_on_c, 0, 71, 46
2, 26693, Note_on_c, 0, 50, 48
2, 26693, Note_on_c, 0, 65, 48
2, 26713, Note_on_c, 0, 55, 0
2, 26720, Note_on_c, 0, 43, 48
2, 26720, Note_on_c, 0, 59, 48
2, 26730, Note_on_c, 0, 71, 0
2, 26740, Note_on_c, 0, 43, 0
2, 26740, Note_on_c, 0, 59, 0
2, 26740, Note_on_c, 0, 50, 0
2, 26755, Note_on_c, 0, 65, 0
2, 26761, Note_on_c, 0, 43, 48
2, 26761, Note_on_c, 0, 59, 48
2, 26790, Note_on_c, 0, 38, 48
2, 26790, Note_on_c, 0, 53, 48
2, 26811, Note_on_c, 0, 43, 0
2, 26822, Control_c, 0, 64, 0
2, 26830, Note_on_c, 0, 32, 48
2, 26836, Note_on_c, 0, 38, 0
2, 26858, Note_on_c, 0, 48, 95
2, 26865, Note_on_c, 0, 53, 0
2, 26904, Note_on_c, 0, 59, 0
2, 26908, Note_on_c, 0, 41, 48
2, 26922, Note_on_c, 0, 53, 48
2, 26936, Note_on_c, 0, 44, 55
2, 26943, Note_on_c, 0, 32, 0
2, 26965, Note_on_c, 0, 60, 52
2, 26970, Control_c, 0, 64, 127
2, 26972, Note_on_c, 0, 44, 0
2, 26972, Note_on_c, 0, 41, 0
2, 26985, Note_on_c, 0, 60, 0
2, 26985, Note_on_c, 0, 53, 0
2, 27008, Note_on_c, 0, 44, 52
2, 27008, Note_on_c, 0, 60, 52
2, 27035, Note_on_c, 0, 53, 56
2, 27049, Note_on_c, 0, 65, 56
2, 27056, Note_on_c, 0, 60, 0
2, 27056, Note_on_c, 0, 44, 0
2, 27063, Note_on_c, 0, 72, 56
2, 27076, Note_on_c, 0, 56, 56
2, 27083, Note_on_c, 0, 72, 0
2, 27096, Note_on_c, 0, 65, 0
2, 27096, Note_on_c, 0, 56, 0
2, 27096, Note_on_c, 0, 53, 0
2, 27101, Note_on_c, 0, 72, 59
2, 27108, Note_on_c, 0, 48, 0
2, 27115, Note_on_c, 0, 56, 64
2, 27142, Note_on_c, 0, 65, 64
2, 27156, Note_on_c, 0, 77, 64
2, 27176, Note_on_c, 0, 65, 0
2, 27181, Note_on_c, 0, 68, 85
2, 27181, Note_on_c, 0, 84, 85
2, 27188, Note_on_c, 0, 56, 0
2, 27190, Note_on_c, 0, 77, 0
2, 27206, Note_on_c, 0, 72, 0
2, 27223, Note_on_c, 0, 65, 63
2, 27223, Note_on_c, 0, 77, 63
2, 27260, Note_on_c, 0, 68, 0
2, 27264, Note_on_c, 0, 72, 56
2, 27264, Note_on_c, 0, 56, 56
2, 27273, Note_on_c, 0, 84, 0
2, 27285, Note_on_c, 0, 72, 0
2, 27285, Note_on_c, 0, 56, 0
2, 27298, Note_on_c, 0, 65, 0
2, 27298, Note_on_c, 0, 77, 0
2, 27316, Note_on_c, 0, 56, 57
2, 27316, Note_on_c, 0, 72, 57
2, 27358, Note_on_c, 0, 53, 50
2, 27358, Note_on_c, 0, 65, 50
2, 27364, Note_on_c, 0, 56, 0
2, 27384, Note_on_c, 0, 44, 46
2, 27384, Note_on_c, 0, 60, 46
2, 27391, Note_on_c, 0, 72, 0
2, 27403, Note_on_c, 0, 44, 0
2, 27405, Note_on_c, 0, 60, 0
2, 27405, Note_on_c, 0, 53, 0
2, 27418, Note_on_c, 0, 65, 0
2, 27428, Note_on_c, 0, 44, 44
2, 27428, Note_on_c, 0, 60, 44
2, 27457, Note_on_c, 0, 41, 44
2, 27457, Note_on_c, 0, 53, 44
2, 27476, Note_on_c, 0, 60, 0
2, 27478, Note_on_c, 0, 44, 0
2, 27518, Note_on_c, 0, 41, 0
2, 27518, Note_on_c, 0, 53, 0
2, 27518, Control_c, 0, 64, 0
2, 27525, Note_on_c, 0, 51, 85
2, 27528, Note_on_c, 0, 33, 85
2, 27596, Note_on_c, 0, 42, 52
2, 27596, Note_on_c, 0, 54, 52
2, 27631, Note_on_c, 0, 33, 0
2, 27636, Note_on_c, 0, 45, 52
2, 27636, Note_on_c, 0, 63, 52
2, 27656, Note_on_c, 0, 63, 0
2, 27656, Note_on_c, 0, 54, 0
2, 27656, Note_on_c, 0, 45, 0
2, 27656, Note_on_c, 0, 42, 0
2, 27668, Control_c, 0, 64, 127
2, 27679, Note_on_c, 0, 63, 52
2, 27693, Note_on_c, 0, 45, 52
2, 27734, Note_on_c, 0, 54, 52
2, 27734, Note_on_c, 0, 66, 52
2, 27756, Note_on_c, 0, 45, 0
2, 27761, Note_on_c, 0, 57, 63
2, 27768, Note_on_c, 0, 51, 0
2, 27768, Note_on_c, 0, 63, 0
2, 27774, Note_on_c, 0, 75, 64
2, 27781, Note_on_c, 0, 57, 0
2, 27781, Note_on_c, 0, 54, 0
2, 27792, Note_on_c, 0, 66, 0
2, 27794, Note_on_c, 0, 75, 0
2, 27813, Note_on_c, 0, 57, 64
2, 27813, Note_on_c, 0, 75, 64
2, 27840, Note_on_c, 0, 66, 64
2, 27840, Note_on_c, 0, 78, 64
2, 27874, Note_on_c, 0, 75, 0
2, 27879, Note_on_c, 0, 87, 85
2, 27888, Note_on_c, 0, 78, 0
2, 27888, Note_on_c, 0, 66, 0
2, 27894, Note_on_c, 0, 69, 85
2, 27899, Note_on_c, 0, 57, 0
2, 27922, Note_on_c, 0, 78, 63
2, 27936, Note_on_c, 0, 66, 61
2, 27962, Note_on_c, 0, 57, 56
2, 27962, Note_on_c, 0, 75, 56
2, 27969, Note_on_c, 0, 69, 0
2, 27969, Note_on_c, 0, 87, 0
2, 27981, Note_on_c, 0, 57, 0
2, 27981, Note_on_c, 0, 75, 0
2, 27983, Note_on_c, 0, 66, 0
2, 27997, Note_on_c, 0, 78, 0
2, 28014, Note_on_c, 0, 75, 53
2, 28019, Note_on_c, 0, 57, 52
2, 28047, Note_on_c, 0, 66, 52
2, 28060, Note_on_c, 0, 54, 52
2, 28080, Note_on_c, 0, 57, 0
2, 28087, Note_on_c, 0, 45, 52
2, 28087, Note_on_c, 0, 63, 52
2, 28094, Note_on_c, 0, 75, 0
2, 28107, Note_on_c, 0, 45, 0
2, 28107, Note_on_c, 0, 54, 0
2, 28107, Note_on_c, 0, 63, 0
2, 28124, Note_on_c, 0, 66, 0
2, 28146, Note_on_c, 0, 45, 52
2, 28146, Note_on_c, 0, 63, 52
2, 28160, Note_on_c, 0, 54, 52
2, 28174, Note_on_c, 0, 42, 52
2, 28194, Note_on_c, 0, 45, 0
2, 28219, Note_on_c, 0, 42, 0
2, 28219, Control_c, 0, 64, 0
2, 28225, Note_on_c, 0, 50, 85
2, 28227, Note_on_c, 0, 34, 85
2, 28232, Note_on_c, 0, 63, 0
2, 28246, Note_on_c, 0, 54, 0
2, 28282, Note_on_c, 0, 55, 52
2, 28284, Note_on_c, 0, 43, 52
2, 28327, Control_c, 0, 64, 127
2, 28327, Note_on_c, 0, 46, 52
2, 28334, Note_on_c, 0, 34, 0
2, 28342, Note_on_c, 0, 62, 52
2, 28345, Note_on_c, 0, 43, 0
2, 28348, Note_on_c, 0, 46, 0
2, 28362, Note_on_c, 0, 62, 0
2, 28373, Note_on_c, 0, 55, 0
2, 28382, Note_on_c, 0, 46, 52
2, 28382, Note_on_c, 0, 62, 52
2, 28416, Note_on_c, 0, 50, 0
2, 28423, Note_on_c, 0, 55, 60
2, 28423, Note_on_c, 0, 67, 60
2, 28430, Note_on_c, 0, 62, 0
2, 28452, Note_on_c, 0, 74, 60
2, 28459, Note_on_c, 0, 46, 0
2, 28465, Note_on_c, 0, 58, 60
2, 28470, Note_on_c, 0, 67, 0
2, 28487, Note_on_c, 0, 58, 0
2, 28487, Note_on_c, 0, 55, 0
2, 28522, Note_on_c, 0, 58, 60
2, 28536, Note_on_c, 0, 67, 60
2, 28536, Note_on_c, 0, 79, 60
2, 28568, Note_on_c, 0, 79, 0
2, 28568, Note_on_c, 0, 67, 0
2, 28570, Note_on_c, 0, 58, 0
2, 28575, Note_on_c, 0, 86, 85
2, 28577, Note_on_c, 0, 70, 85
2, 28582, Note_on_c, 0, 74, 0
2, 28615, Note_on_c, 0, 67, 55
2, 28615, Note_on_c, 0, 79, 55
2, 28633, Note_on_c, 0, 70, 0
2, 28656, Note_on_c, 0, 58, 52
2, 28656, Note_on_c, 0, 74, 52
2, 28663, Note_on_c, 0, 86, 0
2, 28677, Note_on_c, 0, 58, 0
2, 28677, Note_on_c, 0, 79, 0
2, 28677, Note_on_c, 0, 67, 0
2, 28715, Note_on_c, 0, 58, 52
2, 28745, Note_on_c, 0, 55, 52
2, 28745, Note_on_c, 0, 67, 52
2, 28767, Note_on_c, 0, 58, 0
2, 28788, Note_on_c, 0, 46, 52
2, 28788, Note_on_c, 0, 62, 52
2, 28795, Note_on_c, 0, 74, 0
2, 28808, Note_on_c, 0, 67, 0
2, 28808, Note_on_c, 0, 62, 0
2, 28808, Note_on_c, 0, 55, 0
2, 28810, Note_on_c, 0, 46, 0
2, 28842, Note_on_c, 0, 46, 52
2, 28842, Note_on_c, 0, 62, 52
2, 28872, Note_on_c, 0, 43, 52
2, 28872, Note_on_c, 0, 55, 52
2, 28876, Note_on_c, 0, 46, 0
2, 28915, Note_on_c, 0, 35, 85
2, 28915, Note_on_c, 0, 50, 85
2, 28920, Note_on_c, 0, 55, 0
2, 28920, Note_on_c, 0, 43, 0
2, 28935, Control_c, 0, 64, 0
2, 28976, Note_on_c, 0, 62, 0
2, 28983, Note_on_c, 0, 56, 52
2, 28985, Note_on_c, 0, 41, 52
2, 29019, Note_on_c, 0, 35, 0
2, 29026, Note_on_c, 0, 62, 52
2, 29040, Note_on_c, 0, 47, 52
2, 29044, Note_on_c, 0, 56, 0
2, 29044, Control_c, 0, 64, 127
2, 29046, Note_on_c, 0, 62, 0
2, 29060, Note_on_c, 0, 41, 0
2, 29060, Note_on_c, 0, 47, 0
2, 29080, Note_on_c, 0, 47, 52
2, 29080, Note_on_c, 0, 62, 52
2, 29101, Note_on_c, 0, 50, 0
2, 29121, Note_on_c, 0, 53, 60
2, 29121, Note_on_c, 0, 68, 60
2, 29141, Note_on_c, 0, 62, 0
2, 29143, Note_on_c, 0, 47, 0
2, 29148, Note_on_c, 0, 74, 60
2, 29150, Note_on_c, 0, 59, 60
2, 29168, Note_on_c, 0, 59, 0
2, 29168, Note_on_c, 0, 53, 0
2, 29183, Note_on_c, 0, 68, 0
2, 29205, Note_on_c, 0, 59, 60
2, 29216, Note_on_c, 0, 80, 60
2, 29218, Note_on_c, 0, 65, 60
2, 29264, Note_on_c, 0, 65, 0
2, 29264, Note_on_c, 0, 80, 0
2, 29271, Note_on_c, 0, 71, 65
2, 29271, Note_on_c, 0, 86, 65
2, 29278, Note_on_c, 0, 74, 0
2, 29304, Note_on_c, 0, 59, 0
2, 29311, Note_on_c, 0, 65, 57
2, 29311, Note_on_c, 0, 80, 57
2, 29316, Note_on_c, 0, 71, 0
2, 29350, Note_on_c, 0, 59, 52
2, 29350, Note_on_c, 0, 74, 52
2, 29356, Note_on_c, 0, 86, 0
2, 29371, Note_on_c, 0, 80, 0
2, 29373, Note_on_c, 0, 59, 0
2, 29373, Note_on_c, 0, 65, 0
2, 29404, Note_on_c, 0, 59, 52
2, 29431, Note_on_c, 0, 53, 52
2, 29431, Note_on_c, 0, 68, 52
2, 29452, Note_on_c, 0, 59, 0
2, 29472, Note_on_c, 0, 62, 52
2, 29474, Note_on_c, 0, 47, 52
2, 29479, Note_on_c, 0, 74, 0
2, 29481, Note_on_c, 0, 53, 0
2, 29495, Note_on_c, 0, 68, 0
2, 29495, Note_on_c, 0, 62, 0
2, 29495, Note_on_c, 0, 47, 0
2, 29516, Note_on_c, 0, 47, 52
2, 29516, Note_on_c, 0, 62, 52
2, 29541, Note_on_c, 0, 56, 52
2, 29543, Note_on_c, 0, 41, 52
2, 29563, Note_on_c, 0, 47, 0
2, 29576, Note_on_c, 0, 62, 0
2, 29591, Note_on_c, 0, 56, 0
2, 29591, Note_on_c, 0, 41, 0
2, 29591, Control_c, 0, 64, 0
2, 29597, Note_on_c, 0, 36, 95
2, 29597, Note_on_c, 0, 51, 95
2, 29669, Note_on_c, 0, 41, 52
2, 29669, Note_on_c, 0, 56, 52
2, 29683, Note_on_c, 0, 48, 52
2, 29694, Note_on_c, 0, 63, 52
2, 29714, Note_on_c, 0, 63, 0
2, 29714, Note_on_c, 0, 48, 0
2, 29729, Note_on_c, 0, 56, 0
2, 29742, Control_c, 0, 64, 127
2, 29744, Note_on_c, 0, 36, 0
2, 29749, Note_on_c, 0, 63, 52
2, 29751, Note_on_c, 0, 48, 52
2, 29756, Note_on_c, 0, 41, 0
2, 29776, Note_on_c, 0, 53, 52
2, 29776, Note_on_c, 0, 68, 52
2, 29810, Note_on_c, 0, 63, 0
2, 29819, Note_on_c, 0, 60, 60
2, 29824, Note_on_c, 0, 48, 0
2, 29831, Note_on_c, 0, 75, 60
2, 29837, Note_on_c, 0, 60, 0
2, 29839, Note_on_c, 0, 53, 0
2, 29851, Note_on_c, 0, 68, 0
2, 29851, Note_on_c, 0, 51, 0
2, 29851, Note_on_c, 0, 75, 0
2, 29871, Note_on_c, 0, 75, 60
2, 29874, Note_on_c, 0, 60, 60
2, 29899, Note_on_c, 0, 65, 60
2, 29912, Note_on_c, 0, 80, 60
2, 29946, Note_on_c, 0, 80, 0
2, 29946, Note_on_c, 0, 75, 0
2, 29951, Note_on_c, 0, 72, 68
2, 29951, Note_on_c, 0, 87, 68
2, 29959, Note_on_c, 0, 65, 0
2, 29987, Note_on_c, 0, 60, 0
2, 29994, Note_on_c, 0, 65, 59
2, 29994, Note_on_c, 0, 80, 59
2, 30014, Note_on_c, 0, 72, 0
2, 30041, Note_on_c, 0, 87, 0
2, 30050, Note_on_c, 0, 60, 52
2, 30050, Note_on_c, 0, 75, 52
2, 30057, Note_on_c, 0, 65, 0
2, 30071, Note_on_c, 0, 80, 0
2, 30071, Note_on_c, 0, 60, 0
2, 30071, Note_on_c, 0, 75, 0
2, 30107, Note_on_c, 0, 75, 52
2, 30109, Note_on_c, 0, 60, 52
2, 30134, Note_on_c, 0, 68, 52
2, 30137, Note_on_c, 0, 53, 52
2, 30157, Note_on_c, 0, 60, 0
2, 30175, Note_on_c, 0, 63, 52
2, 30182, Note_on_c, 0, 75, 0
2, 30184, Note_on_c, 0, 53, 0
2, 30191, Note_on_c, 0, 48, 52
2, 30197, Note_on_c, 0, 68, 0
2, 30197, Note_on_c, 0, 63, 0
2, 30209, Note_on_c, 0, 48, 0
2, 30216, Note_on_c, 0, 63, 52
2, 30229, Note_on_c, 0, 48, 52
2, 30257, Note_on_c, 0, 56, 52
2, 30259, Note_on_c, 0, 41, 52
2, 30264, Note_on_c, 0, 63, 0
2, 30277, Note_on_c, 0, 48, 0
2, 30293, Control_c, 0, 64, 0
2, 30309, Note_on_c, 0, 41, 0
2, 30315, Note_on_c, 0, 27, 99
2, 30315, Note_on_c, 0, 39, 99
2, 30329, Note_on_c, 0, 55, 99
2, 30334, Note_on_c, 0, 56, 0
2, 30395, Note_on_c, 0, 44, 52
2, 30408, Note_on_c, 0, 60, 52
2, 30413, Control_c, 0, 64, 127
2, 30440, Note_on_c, 0, 44, 0
2, 30447, Note_on_c, 0, 51, 52
2, 30447, Note_on_c, 0, 67, 52
2, 30465, Note_on_c, 0, 67, 0
2, 30465, Note_on_c, 0, 60, 0
2, 30467, Note_on_c, 0, 39, 0
2, 30467, Note_on_c, 0, 51, 0
2, 30483, Note_on_c, 0, 27, 0
2, 30488, Note_on_c, 0, 67, 52
2, 30504, Note_on_c, 0, 51, 56
2, 30524, Note_on_c, 0, 72, 60
2, 30527, Note_on_c, 0, 56, 60
2, 30533, Note_on_c, 0, 55, 0
2, 30545, Note_on_c, 0, 67, 0
2, 30565, Note_on_c, 0, 79, 60
2, 30567, Note_on_c, 0, 63, 60
2, 30585, Note_on_c, 0, 63, 0
2, 30585, Note_on_c, 0, 79, 0
2, 30599, Note_on_c, 0, 56, 0
2, 30599, Note_on_c, 0, 51, 0
2, 30599, Note_on_c, 0, 72, 0
2, 30605, Note_on_c, 0, 79, 60
2, 30608, Note_on_c, 0, 63, 60
2, 30648, Note_on_c, 0, 84, 60
2, 30662, Note_on_c, 0, 68, 60
2, 30690, Note_on_c, 0, 91, 95
2, 30695, Note_on_c, 0, 75, 95
2, 30698, Note_on_c, 0, 68, 0
2, 30698, Note_on_c, 0, 84, 0
2, 30698, Note_on_c, 0, 63, 0
2, 30715, Note_on_c, 0, 79, 0
2, 30733, Note_on_c, 0, 84, 53
2, 30735, Note_on_c, 0, 68, 52
2, 30753, Note_on_c, 0, 75, 0
2, 30776, Note_on_c, 0, 79, 52
2, 30778, Note_on_c, 0, 63, 52
2, 30783, Note_on_c, 0, 91, 0
2, 30796, Note_on_c, 0, 79, 0
2, 30798, Note_on_c, 0, 63, 0
2, 30810, Note_on_c, 0, 84, 0
2, 30810, Note_on_c, 0, 68, 0
2, 30830, Note_on_c, 0, 63, 52
2, 30830, Note_on_c, 0, 79, 52
2, 30860, Note_on_c, 0, 56, 52
2, 30860, Note_on_c, 0, 72, 52
2, 30880, Note_on_c, 0, 63, 0
2, 30898, Note_on_c, 0, 67, 52
2, 30900, Note_on_c, 0, 51, 52
2, 30905, Note_on_c, 0, 79, 0
2, 30921, Note_on_c, 0, 67, 0
2, 30923, Note_on_c, 0, 56, 0
2, 30943, Note_on_c, 0, 67, 52
2, 30950, Note_on_c, 0, 72, 0
2, 30950, Control_c, 0, 64, 0
2, 30973, Note_on_c, 0, 60, 52
2, 30975, Note_on_c, 0, 44, 52
2, 30984, Control_c, 0, 64, 127
2, 31005, Note_on_c, 0, 38, 52
2, 31021, Note_on_c, 0, 51, 0
2, 31023, Note_on_c, 0, 44, 0
2, 31028, Note_on_c, 0, 53, 99
2, 31032, Control_c, 0, 64, 0
2, 31034, Note_on_c, 0, 60, 0
2, 31095, Note_on_c, 0, 60, 52
2, 31100, Note_on_c, 0, 44, 52
2, 31103, Note_on_c, 0, 67, 0
2, 31125, Note_on_c, 0, 50, 52
2, 31138, Note_on_c, 0, 65, 52
2, 31145, Control_c, 0, 64, 127
2, 31148, Note_on_c, 0, 50, 0
2, 31161, Note_on_c, 0, 44, 0
2, 31161, Note_on_c, 0, 65, 0
2, 31176, Note_on_c, 0, 53, 0
2, 31176, Note_on_c, 0, 60, 0
2, 31181, Note_on_c, 0, 65, 52
2, 31184, Note_on_c, 0, 50, 52
2, 31191, Note_on_c, 0, 38, 0
2, 31224, Note_on_c, 0, 56, 52
2, 31224, Note_on_c, 0, 72, 52
2, 31254, Note_on_c, 0, 62, 52
2, 31258, Note_on_c, 0, 65, 0
2, 31261, Note_on_c, 0, 50, 0
2, 31266, Note_on_c, 0, 77, 52
2, 31276, Note_on_c, 0, 62, 0
2, 31288, Note_on_c, 0, 77, 0
2, 31291, Note_on_c, 0, 56, 0
2, 31301, Note_on_c, 0, 72, 0
2, 31308, Note_on_c, 0, 77, 52
2, 31311, Note_on_c, 0, 62, 52
2, 31331, Control_c, 0, 64, 0
2, 31336, Note_on_c, 0, 84, 52
2, 31354, Note_on_c, 0, 68, 52
2, 31363, Control_c, 0, 64, 127
2, 31372, Note_on_c, 0, 77, 0
2, 31379, Note_on_c, 0, 89, 68
2, 31383, Note_on_c, 0, 74, 68
2, 31386, Note_on_c, 0, 84, 0
2, 31390, Note_on_c, 0, 62, 0
2, 31404, Note_on_c, 0, 68, 0
2, 31440, Note_on_c, 0, 84, 52
2, 31442, Note_on_c, 0, 68, 52
2, 31461, Note_on_c, 0, 74, 0
2, 31469, Note_on_c, 0, 62, 52
2, 31481, Note_on_c, 0, 77, 52
2, 31489, Note_on_c, 0, 62, 0
2, 31489, Note_on_c, 0, 89, 0
2, 31489, Note_on_c, 0, 68, 0
2, 31501, Note_on_c, 0, 84, 0
2, 31504, Note_on_c, 0, 77, 0
2, 31524, Note_on_c, 0, 77, 52
2, 31526, Note_on_c, 0, 62, 52
2, 31549, Note_on_c, 0, 56, 52
2, 31549, Note_on_c, 0, 71, 52
2, 31578, Note_on_c, 0, 50, 52
2, 31583, Note_on_c, 0, 62, 0
2, 31592, Note_on_c, 0, 65, 52
2, 31596, Note_on_c, 0, 77, 0
2, 31599, Note_on_c, 0, 50, 0
2, 31612, Note_on_c, 0, 65, 0
2, 31614, Note_on_c, 0, 56, 0
2, 31626, Note_on_c, 0, 71, 0
2, 31632, Note_on_c, 0, 50, 52
2, 31632, Note_on_c, 0, 65, 52
2, 31674, Note_on_c, 0, 59, 52
2, 31676, Note_on_c, 0, 44, 52
2, 31694, Note_on_c, 0, 50, 0
2, 31707, Note_on_c, 0, 65, 0
2, 31707, Control_c, 0, 64, 0
2, 31724, Note_on_c, 0, 59, 0
2, 31724, Note_on_c, 0, 44, 0
2, 31730, Note_on_c, 0, 43, 99
2, 31730, Note_on_c, 0, 56, 99
2, 31782, Note_on_c, 0, 50, 52
2, 31782, Note_on_c, 0, 59, 52
2, 31816, Control_c, 0, 64, 127
2, 31830, Note_on_c, 0, 56, 0
2, 31834, Note_on_c, 0, 68, 58
2, 31837, Note_on_c, 0, 53, 59
2, 31854, Note_on_c, 0, 68, 0
2, 31854, Note_on_c, 0, 59, 0
2, 31857, Note_on_c, 0, 43, 0
2, 31857, Note_on_c, 0, 50, 0
2, 31869, Control_c, 0, 64, 0
2, 31877, Note_on_c, 0, 55, 60
2, 31877, Note_on_c, 0, 68, 60
2, 31879, Note_on_c, 0, 53, 0
2, 31900, Control_c, 0, 64, 127
2, 31919, Note_on_c, 0, 62, 60
2, 31919, Note_on_c, 0, 71, 60
2, 31939, Note_on_c, 0, 68, 0
2, 31959, Note_on_c, 0, 65, 60
2, 31959, Note_on_c, 0, 80, 60
2, 31975, Note_on_c, 0, 80, 0
2, 31977, Note_on_c, 0, 71, 0
2, 31977, Note_on_c, 0, 62, 0
2, 31979, Note_on_c, 0, 55, 0
2, 31997, Note_on_c, 0, 67, 60
2, 32009, Note_on_c, 0, 80, 60
2, 32032, Note_on_c, 0, 65, 0
2, 32039, Note_on_c, 0, 74, 60
2, 32039, Note_on_c, 0, 83, 60
2, 32059, Note_on_c, 0, 80, 0
2, 32065, Note_on_c, 0, 77, 85
2, 32065, Note_on_c, 0, 92, 85
2, 32072, Note_on_c, 0, 83, 0
2, 32086, Note_on_c, 0, 74, 0
2, 32115, Note_on_c, 0, 67, 0
2, 32122, Note_on_c, 0, 74, 52
2, 32122, Note_on_c, 0, 83, 52
2, 32129, Note_on_c, 0, 77, 0
2, 32163, Note_on_c, 0, 67, 52
2, 32184, Note_on_c, 0, 92, 0
2, 32184, Note_on_c, 0, 83, 0
2, 32184, Note_on_c, 0, 74, 0
2, 32210, Note_on_c, 0, 67, 0
2, 32217, Note_on_c, 0, 65, 52
2, 32233, Note_on_c, 0, 80, 52
2, 32247, Note_on_c, 0, 71, 52
2, 32249, Note_on_c, 0, 62, 52
2, 32280, Note_on_c, 0, 65, 0
2, 32288, Note_on_c, 0, 55, 52
2, 32288, Note_on_c, 0, 68, 52
2, 32295, Note_on_c, 0, 80, 0
2, 32324, Note_on_c, 0, 62, 0
2, 32324, Note_on_c, 0, 68, 0
2, 32324, Note_on_c, 0, 71, 0
2, 32347, Note_on_c, 0, 53, 52
2, 32353, Note_on_c, 0, 68, 52
2, 32365, Note_on_c, 0, 55, 0
2, 32370, Note_on_c, 0, 50, 52
2, 32397, Note_on_c, 0, 59, 52
2, 32403, Note_on_c, 0, 53, 0
2, 32403, Control_c, 0, 64, 0
2, 32428, Note_on_c, 0, 68, 0
2, 32430, Note_on_c, 0, 59, 0
2, 32437, Note_on_c, 0, 55, 99
2, 32440, Note_on_c, 0, 43, 99
2, 32444, Note_on_c, 0, 50, 0
2, 32480, Note_on_c, 0, 50, 52
2, 32496, Note_on_c, 0, 59, 52
2, 32517, Note_on_c, 0, 55, 0
2, 32537, Note_on_c, 0, 53, 52
2, 32544, Note_on_c, 0, 59, 0
2, 32557, Note_on_c, 0, 50, 0
2, 32557, Control_c, 0, 64, 127
2, 32573, Note_on_c, 0, 53, 0
2, 32578, Note_on_c, 0, 55, 52
2, 32587, Note_on_c, 0, 43, 0
2, 32592, Note_on_c, 0, 67, 52
2, 32618, Note_on_c, 0, 62, 52
2, 32618, Note_on_c, 0, 71, 52
2, 32625, Note_on_c, 0, 67, 0
2, 32646, Note_on_c, 0, 65, 52
2, 32666, Note_on_c, 0, 55, 0
2, 32680, Note_on_c, 0, 62, 0
2, 32691, Note_on_c, 0, 71, 0
2, 32707, Note_on_c, 0, 65, 0
2, 32713, Note_on_c, 0, 67, 57
2, 32713, Note_on_c, 0, 79, 57
2, 32743, Note_on_c, 0, 74, 60
2, 32748, Note_on_c, 0, 79, 0
2, 32768, Note_on_c, 0, 83, 60
2, 32782, Note_on_c, 0, 77, 68
2, 32791, Note_on_c, 0, 83, 0
2, 32795, Note_on_c, 0, 91, 68
2, 32803, Note_on_c, 0, 74, 0
2, 32830, Note_on_c, 0, 67, 0
2, 32836, Note_on_c, 0, 74, 60
2, 32843, Note_on_c, 0, 77, 0
2, 32850, Note_on_c, 0, 83, 60
2, 32868, Note_on_c, 0, 91, 0
2, 32875, Note_on_c, 0, 67, 60
2, 32898, Note_on_c, 0, 83, 0
2, 32908, Note_on_c, 0, 74, 0
2, 32923, Note_on_c, 0, 67, 0
2, 32931, Note_on_c, 0, 79, 55
2, 32933, Note_on_c, 0, 65, 54
2, 32973, Note_on_c, 0, 71, 52
2, 32975, Note_on_c, 0, 62, 52
2, 32993, Note_on_c, 0, 65, 0
2, 32993, Note_on_c, 0, 79, 0
2, 33013, Note_on_c, 0, 67, 52
2, 33015, Note_on_c, 0, 55, 52
2, 33033, Note_on_c, 0, 67, 0
2, 33048, Note_on_c, 0, 62, 0
2, 33048, Note_on_c, 0, 71, 0
2, 33068, Note_on_c, 0, 67, 52
2, 33070, Note_on_c, 0, 53, 52
2, 33074, Note_on_c, 0, 55, 0
2, 33111, Note_on_c, 0, 50, 52
2, 33124, Note_on_c, 0, 59, 52
2, 33129, Note_on_c, 0, 67, 0
2, 33131, Note_on_c, 0, 53, 0
2, 33169, Note_on_c, 0, 50, 0
2, 33169, Note_on_c, 0, 59, 0
2, 33194, Note_on_c, 0, 43, 95
2, 33196, Note_on_c, 0, 31, 95
2, 33201, Control_c, 0, 64, 0
2, 33246, Note_on_c, 0, 47, 52
2, 33260, Note_on_c, 0, 38, 52
2, 33264, Control_c, 0, 64, 127
2, 33283, Note_on_c, 0, 55, 52
2, 33306, Note_on_c, 0, 55, 0
2, 33306, Note_on_c, 0, 47, 0
2, 33306, Note_on_c, 0, 43, 0
2, 33319, Note_on_c, 0, 38, 0
2, 33339, Note_on_c, 0, 43, 52
2, 33339, Note_on_c, 0, 55, 52
2, 33349, Note_on_c, 0, 31, 0
2, 33366, Note_on_c, 0, 50, 52
2, 33371, Note_on_c, 0, 55, 0
2, 33378, Note_on_c, 0, 59, 52
2, 33389, Note_on_c, 0, 43, 0
2, 33408, Note_on_c, 0, 55, 52
2, 33408, Note_on_c, 0, 67, 89
2, 33412, Note_on_c, 0, 50, 0
2, 33414, Note_on_c, 0, 59, 0
2, 33462, Note_on_c, 0, 50, 52
2, 33462, Note_on_c, 0, 59, 52
2, 33471, Note_on_c, 0, 55, 0
2, 33482, Note_on_c, 0, 67, 0
2, 33496, Note_on_c, 0, 59, 0
2, 33503, Note_on_c, 0, 55, 52
2, 33505, Note_on_c, 0, 43, 52
2, 33509, Note_on_c, 0, 50, 0
2, 33539, Note_on_c, 0, 43, 0
2, 33551, Note_on_c, 0, 55, 0
2, 33564, Control_c, 0, 64, 0
2, 33576, Note_on_c, 0, 32, 95
2, 33589, Note_on_c, 0, 43, 95
2, 33629, Note_on_c, 0, 48, 52
2, 33646, Note_on_c, 0, 36, 52
2, 33671, Note_on_c, 0, 44, 52
2, 33671, Note_on_c, 0, 55, 52
2, 33691, Note_on_c, 0, 55, 0
2, 33691, Note_on_c, 0, 44, 0
2, 33716, Control_c, 0, 64, 127
2, 33718, Note_on_c, 0, 48, 0
2, 33720, Note_on_c, 0, 36, 0
2, 33720, Note_on_c, 0, 32, 0
2, 33727, Note_on_c, 0, 44, 52
2, 33727, Note_on_c, 0, 55, 52
2, 33732, Note_on_c, 0, 43, 0
2, 33752, Note_on_c, 0, 48, 52
2, 33768, Note_on_c, 0, 60, 52
2, 33786, Note_on_c, 0, 55, 0
2, 33802, Note_on_c, 0, 48, 0
2, 33809, Note_on_c, 0, 56, 52
2, 33816, Note_on_c, 0, 60, 0
2, 33820, Note_on_c, 0, 67, 85
2, 33842, Note_on_c, 0, 44, 0
2, 33847, Note_on_c, 0, 48, 52
2, 33864, Note_on_c, 0, 60, 52
2, 33870, Note_on_c, 0, 56, 0
2, 33895, Note_on_c, 0, 67, 0
2, 33904, Note_on_c, 0, 55, 52
2, 33906, Note_on_c, 0, 44, 52
2, 33924, Note_on_c, 0, 60, 0
2, 33938, Note_on_c, 0, 48, 0
2, 33940, Note_on_c, 0, 44, 0
2, 33952, Note_on_c, 0, 55, 0
2, 33981, Control_c, 0, 64, 0
2, 33990, Note_on_c, 0, 33, 99
2, 33990, Note_on_c, 0, 43, 99
2, 34044, Note_on_c, 0, 49, 52
2, 34058, Note_on_c, 0, 37, 52
2, 34092, Control_c, 0, 64, 127
2, 34108, Note_on_c, 0, 49, 0
2, 34112, Note_on_c, 0, 45, 52
2, 34112, Note_on_c, 0, 55, 52
2, 34119, Note_on_c, 0, 37, 0
2, 34133, Note_on_c, 0, 55, 0
2, 34135, Note_on_c, 0, 45, 0
2, 34149, Note_on_c, 0, 43, 0
2, 34169, Note_on_c, 0, 45, 52
2, 34169, Note_on_c, 0, 55, 52
2, 34178, Note_on_c, 0, 33, 0
2, 34215, Note_on_c, 0, 49, 52
2, 34228, Note_on_c, 0, 61, 52
2, 34265, Note_on_c, 0, 49, 0
2, 34278, Note_on_c, 0, 61, 0
2, 34278, Note_on_c, 0, 55, 0
2, 34285, Note_on_c, 0, 57, 52
2, 34285, Note_on_c, 0, 67, 85
2, 34305, Note_on_c, 0, 45, 0
2, 34332, Note_on_c, 0, 57, 0
2, 34342, Note_on_c, 0, 49, 52
2, 34342, Note_on_c, 0, 61, 52
2, 34362, Note_on_c, 0, 67, 0
2, 34382, Note_on_c, 0, 45, 52
2, 34382, Note_on_c, 0, 55, 52
2, 34389, Note_on_c, 0, 49, 0
2, 34412, Note_on_c, 0, 61, 0
2, 34443, Note_on_c, 0, 45, 0
2, 34443, Note_on_c, 0, 55, 0
2, 34457, Control_c, 0, 64, 0
2, 34466, Note_on_c, 0, 34, 99
2, 34466, Note_on_c, 0, 43, 99
2, 34548, Note_on_c, 0, 37, 52
2, 34548, Note_on_c, 0, 49, 52
2, 34566, Control_c, 0, 64, 127
2, 34593, Note_on_c, 0, 37, 0
2, 34598, Note_on_c, 0, 55, 52
2, 34605, Note_on_c, 0, 43, 0
2, 34613, Note_on_c, 0, 46, 52
2, 34618, Note_on_c, 0, 49, 0
2, 34668, Note_on_c, 0, 37, 52
2, 34668, Note_on_c, 0, 49, 52
2, 34718, Note_on_c, 0, 46, 0
2, 34718, Note_on_c, 0, 34, 0
2, 34745, Note_on_c, 0, 37, 0
2, 34756, Note_on_c, 0, 49, 0
2, 34763, Note_on_c, 0, 35, 95
2, 34763, Note_on_c, 0, 43, 95
2, 34781, Control_c, 0, 64, 0
2, 34856, Note_on_c, 0, 38, 52
2, 34856, Note_on_c, 0, 50, 52
2, 34863, Note_on_c, 0, 55, 0
2, 34890, Control_c, 0, 64, 127
2, 34920, Note_on_c, 0, 43, 0
2, 34938, Note_on_c, 0, 55, 52
2, 34944, Note_on_c, 0, 50, 0
2, 34953, Note_on_c, 0, 47, 52
2, 34974, Note_on_c, 0, 38, 0
2, 35013, Note_on_c, 0, 47, 0
2, 35033, Note_on_c, 0, 50, 52
2, 35040, Note_on_c, 0, 35, 0
2, 35040, Note_on_c, 0, 55, 0
2, 35049, Note_on_c, 0, 38, 52
2, 35069, Control_c, 0, 64, 0
2, 35083, Note_on_c, 0, 50, 0
2, 35110, Note_on_c, 0, 38, 0
2, 35234, Note_on_c, 0, 51, 99
2, 35248, Note_on_c, 0, 36, 99
2, 35264, Control_c, 0, 64, 127
2, 35379, Note_on_c, 0, 36, 0
2, 35386, Note_on_c, 0, 55, 60
2, 35400, Note_on_c, 0, 43, 60
2, 35434, Note_on_c, 0, 51, 0
2, 35439, Note_on_c, 0, 48, 59
2, 35452, Note_on_c, 0, 63, 57
2, 35459, Note_on_c, 0, 48, 0
2, 35459, Note_on_c, 0, 43, 0
2, 35472, Note_on_c, 0, 63, 0
2, 35486, Note_on_c, 0, 55, 0
2, 35493, Note_on_c, 0, 48, 52
2, 35496, Note_on_c, 0, 63, 52
2, 35539, Note_on_c, 0, 55, 52
2, 35549, Note_on_c, 0, 67, 52
2, 35570, Note_on_c, 0, 63, 0
2, 35591, Note_on_c, 0, 60, 52
2, 35591, Note_on_c, 0, 75, 52
2, 35597, Note_on_c, 0, 48, 0
2, 35611, Note_on_c, 0, 60, 0
2, 35611, Note_on_c, 0, 67, 0
2, 35611, Note_on_c, 0, 75, 0
2, 35627, Note_on_c, 0, 55, 0
2, 35634, Note_on_c, 0, 60, 52
2, 35647, Note_on_c, 0, 75, 52
2, 35686, Note_on_c, 0, 79, 55
2, 35688, Note_on_c, 0, 67, 55
2, 35722, Note_on_c, 0, 75, 0
2, 35742, Note_on_c, 0, 72, 89
2, 35742, Note_on_c, 0, 87, 89
2, 35747, Note_on_c, 0, 67, 0
2, 35749, Note_on_c, 0, 79, 0
2, 35794, Note_on_c, 0, 67, 56
2, 35794, Note_on_c, 0, 79, 56
2, 35801, Note_on_c, 0, 60, 0
2, 35812, Note_on_c, 0, 72, 0
2, 35833, Note_on_c, 0, 60, 56
2, 35833, Note_on_c, 0, 75, 56
2, 35840, Note_on_c, 0, 87, 0
2, 35856, Note_on_c, 0, 60, 0
2, 35867, Note_on_c, 0, 79, 0
2, 35867, Note_on_c, 0, 67, 0
2, 35869, Note_on_c, 0, 75, 0
2, 35890, Note_on_c, 0, 60, 56
2, 35901, Note_on_c, 0, 75, 56
2, 35942, Note_on_c, 0, 55, 52
2, 35944, Note_on_c, 0, 67, 52
2, 35962, Note_on_c, 0, 60, 0
2, 35969, Note_on_c, 0, 48, 52
2, 35987, Note_on_c, 0, 75, 0
2, 35997, Note_on_c, 0, 63, 52
2, 36003, Note_on_c, 0, 48, 0
2, 36019, Note_on_c, 0, 67, 0
2, 36019, Note_on_c, 0, 55, 0
2, 36019, Note_on_c, 0, 63, 0
2, 36039, Note_on_c, 0, 48, 52
2, 36053, Note_on_c, 0, 63, 52
2, 36078, Note_on_c, 0, 55, 52
2, 36080, Note_on_c, 0, 43, 52
2, 36100, Control_c, 0, 64, 0
2, 36112, Note_on_c, 0, 48, 0
2, 36130, Note_on_c, 0, 50, 99
2, 36132, Note_on_c, 0, 36, 99
2, 36137, Note_on_c, 0, 43, 0
2, 36150, Note_on_c, 0, 63, 0
2, 36150, Note_on_c, 0, 55, 0
2, 36198, Note_on_c, 0, 56, 52
2, 36200, Note_on_c, 0, 41, 52
2, 36241, Note_on_c, 0, 48, 52
2, 36245, Control_c, 0, 64, 127
2, 36255, Note_on_c, 0, 62, 52
2, 36262, Note_on_c, 0, 48, 0
2, 36262, Note_on_c, 0, 36, 0
2, 36275, Note_on_c, 0, 41, 0
2, 36275, Note_on_c, 0, 62, 0
2, 36288, Note_on_c, 0, 56, 0
2, 36298, Note_on_c, 0, 48, 52
2, 36298, Note_on_c, 0, 62, 52
2, 36315, Note_on_c, 0, 50, 0
2, 36336, Note_on_c, 0, 53, 52
2, 36352, Note_on_c, 0, 68, 52
2, 36386, Note_on_c, 0, 48, 0
2, 36388, Note_on_c, 0, 62, 0
2, 36395, Note_on_c, 0, 60, 52
2, 36395, Note_on_c, 0, 74, 52
2, 36402, Note_on_c, 0, 53, 0
2, 36413, Note_on_c, 0, 74, 0
2, 36413, Note_on_c, 0, 60, 0
2, 36415, Note_on_c, 0, 68, 0
2, 36455, Note_on_c, 0, 60, 52
2, 36456, Note_on_c, 0, 74, 52
2, 36497, Note_on_c, 0, 65, 52
2, 36497, Note_on_c, 0, 80, 52
2, 36538, Note_on_c, 0, 72, 85
2, 36538, Note_on_c, 0, 86, 85
2, 36545, Note_on_c, 0, 80, 0
2, 36558, Note_on_c, 0, 65, 0
2, 36583, Note_on_c, 0, 60, 0
2, 36583, Note_on_c, 0, 74, 0
2, 36593, Note_on_c, 0, 80, 52
2, 36606, Note_on_c, 0, 65, 52
2, 36613, Note_on_c, 0, 72, 0
2, 36633, Note_on_c, 0, 60, 52
2, 36633, Note_on_c, 0, 74, 52
2, 36640, Note_on_c, 0, 86, 0
2, 36656, Note_on_c, 0, 60, 0
2, 36656, Note_on_c, 0, 74, 0
2, 36670, Note_on_c, 0, 80, 0
2, 36683, Note_on_c, 0, 65, 0
2, 36692, Note_on_c, 0, 60, 52
2, 36692, Note_on_c, 0, 74, 52
2, 36748, Note_on_c, 0, 53, 52
2, 36756, Note_on_c, 0, 60, 0
2, 36763, Note_on_c, 0, 68, 52
2, 36773, Note_on_c, 0, 48, 52
2, 36783, Note_on_c, 0, 74, 0
2, 36790, Note_on_c, 0, 62, 52
2, 36796, Note_on_c, 0, 48, 0
2, 36810, Note_on_c, 0, 53, 0
2, 36810, Note_on_c, 0, 62, 0
2, 36833, Note_on_c, 0, 48, 52
2, 36840, Note_on_c, 0, 68, 0
2, 36844, Note_on_c, 0, 62, 52
2, 36888, Note_on_c, 0, 56, 52
2, 36889, Note_on_c, 0, 41, 52
2, 36923, Note_on_c, 0, 48, 0
2, 36936, Note_on_c, 0, 41, 0
2, 36946, Note_on_c, 0, 36, 99
2, 36946, Note_on_c, 0, 53, 99
2, 36976, Control_c, 0, 64, 0
2, 36978, Note_on_c, 0, 56, 0
2, 36980, Note_on_c, 0, 62, 0
2, 37011, Note_on_c, 0, 60, 52
2, 37014, Note_on_c, 0, 44, 52
2, 37039, Control_c, 0, 64, 127
2, 37039, Note_on_c, 0, 48, 52
2, 37053, Note_on_c, 0, 65, 52
2, 37057, Note_on_c, 0, 48, 0
2, 37059, Note_on_c, 0, 53, 0
2, 37071, Note_on_c, 0, 36, 0
2, 37073, Note_on_c, 0, 44, 0
2, 37073, Note_on_c, 0, 65, 0
2, 37084, Note_on_c, 0, 60, 0
2, 37093, Note_on_c, 0, 48, 52
2, 37093, Note_on_c, 0, 65, 52
2, 37134, Note_on_c, 0, 56, 52
2, 37134, Note_on_c, 0, 72, 52
2, 37171, Note_on_c, 0, 65, 0
2, 37177, Note_on_c, 0, 60, 52
2, 37181, Note_on_c, 0, 48, 0
2, 37191, Note_on_c, 0, 77, 52
2, 37198, Note_on_c, 0, 60, 0
2, 37198, Note_on_c, 0, 56, 0
2, 37211, Note_on_c, 0, 77, 0
2, 37224, Note_on_c, 0, 72, 0
2, 37229, Note_on_c, 0, 60, 56
2, 37246, Note_on_c, 0, 77, 56
2, 37272, Note_on_c, 0, 68, 56
2, 37272, Note_on_c, 0, 84, 56
2, 37313, Note_on_c, 0, 72, 68
2, 37324, Note_on_c, 0, 89, 68
2, 37331, Note_on_c, 0, 84, 0
2, 37331, Note_on_c, 0, 68, 0
2, 37381, Note_on_c, 0, 68, 56
2, 37381, Note_on_c, 0, 84, 56
2, 37386, Note_on_c, 0, 60, 0
2, 37386, Note_on_c, 0, 77, 0
2, 37416, Note_on_c, 0, 72, 0
2, 37419, Note_on_c, 0, 60, 56
2, 37419, Note_on_c, 0, 77, 56
2, 37429, Note_on_c, 0, 89, 0
2, 37440, Note_on_c, 0, 60, 0
2, 37440, Note_on_c, 0, 68, 0
2, 37440, Note_on_c, 0, 77, 0
2, 37456, Note_on_c, 0, 84, 0
2, 37476, Note_on_c, 0, 60, 56
2, 37476, Note_on_c, 0, 77, 56
2, 37515, Note_on_c, 0, 56, 56
2, 37515, Note_on_c, 0, 72, 56
2, 37551, Note_on_c, 0, 60, 0
2, 37554, Note_on_c, 0, 77, 0
2, 37558, Note_on_c, 0, 48, 56
2, 37558, Note_on_c, 0, 65, 56
2, 37579, Note_on_c, 0, 65, 0
2, 37579, Note_on_c, 0, 48, 0
2, 37579, Note_on_c, 0, 56, 0
2, 37601, Note_on_c, 0, 48, 56
2, 37601, Note_on_c, 0, 65, 56
2, 37608, Note_on_c, 0, 72, 0
2, 37656, Note_on_c, 0, 44, 52
2, 37656, Note_on_c, 0, 60, 52
2, 37676, Note_on_c, 0, 65, 0
2, 37687, Note_on_c, 0, 48, 0
2, 37694, Note_on_c, 0, 36, 99
2, 37694, Note_on_c, 0, 51, 99
2, 37697, Control_c, 0, 64, 0
2, 37701, Note_on_c, 0, 44, 0
2, 37701, Note_on_c, 0, 60, 0
2, 37764, Note_on_c, 0, 43, 52
2, 37764, Note_on_c, 0, 55, 52
2, 37805, Control_c, 0, 64, 127
2, 37805, Note_on_c, 0, 48, 52
2, 37819, Note_on_c, 0, 63, 52
2, 37825, Note_on_c, 0, 48, 0
2, 37825, Note_on_c, 0, 43, 0
2, 37825, Note_on_c, 0, 36, 0
2, 37839, Note_on_c, 0, 63, 0
2, 37852, Note_on_c, 0, 55, 0
2, 37860, Note_on_c, 0, 48, 52
2, 37860, Note_on_c, 0, 63, 52
2, 37900, Note_on_c, 0, 55, 52
2, 37902, Note_on_c, 0, 67, 52
2, 37907, Note_on_c, 0, 51, 0
2, 37937, Note_on_c, 0, 48, 0
2, 37939, Note_on_c, 0, 63, 0
2, 37957, Note_on_c, 0, 60, 52
2, 37957, Note_on_c, 0, 75, 52
2, 37964, Note_on_c, 0, 55, 0
2, 37977, Note_on_c, 0, 67, 0
2, 37977, Note_on_c, 0, 60, 0
2, 37980, Note_on_c, 0, 75, 0
2, 38000, Note_on_c, 0, 60, 59
2, 38014, Note_on_c, 0, 75, 60
2, 38027, Note_on_c, 0, 67, 60
2, 38043, Note_on_c, 0, 79, 60
2, 38065, Note_on_c, 0, 75, 0
2, 38084, Note_on_c, 0, 72, 68
2, 38084, Note_on_c, 0, 87, 68
2, 38090, Note_on_c, 0, 79, 0
2, 38090, Note_on_c, 0, 67, 0
2, 38125, Note_on_c, 0, 79, 60
2, 38130, Note_on_c, 0, 60, 0
2, 38136, Note_on_c, 0, 67, 60
2, 38143, Note_on_c, 0, 72, 0
2, 38177, Note_on_c, 0, 60, 60
2, 38177, Note_on_c, 0, 75, 60
2, 38184, Note_on_c, 0, 67, 0
2, 38186, Note_on_c, 0, 87, 0
2, 38197, Note_on_c, 0, 79, 0
2, 38197, Note_on_c, 0, 60, 0
2, 38200, Note_on_c, 0, 75, 0
2, 38233, Note_on_c, 0, 60, 60
2, 38235, Note_on_c, 0, 75, 60
2, 38263, Note_on_c, 0, 55, 60
2, 38279, Note_on_c, 0, 67, 60
2, 38283, Note_on_c, 0, 60, 0
2, 38293, Note_on_c, 0, 48, 60
2, 38304, Note_on_c, 0, 63, 59
2, 38313, Note_on_c, 0, 75, 0
2, 38325, Note_on_c, 0, 48, 0
2, 38340, Note_on_c, 0, 67, 0
2, 38340, Note_on_c, 0, 63, 0
2, 38352, Note_on_c, 0, 55, 0
2, 38358, Note_on_c, 0, 48, 52
2, 38376, Note_on_c, 0, 63, 52
2, 38385, Note_on_c, 0, 55, 52
2, 38401, Note_on_c, 0, 43, 52
2, 38420, Note_on_c, 0, 48, 0
2, 38431, Control_c, 0, 64, 0
2, 38433, Note_on_c, 0, 43, 0
2, 38440, Note_on_c, 0, 36, 99
2, 38440, Note_on_c, 0, 50, 99
2, 38473, Note_on_c, 0, 63, 0
2, 38498, Note_on_c, 0, 55, 0
2, 38508, Note_on_c, 0, 41, 52
2, 38508, Note_on_c, 0, 56, 52
2, 38538, Control_c, 0, 64, 127
2, 38546, Note_on_c, 0, 48, 52
2, 38546, Note_on_c, 0, 62, 52
2, 38567, Note_on_c, 0, 62, 0
2, 38567, Note_on_c, 0, 41, 0
2, 38567, Note_on_c, 0, 48, 0
2, 38578, Note_on_c, 0, 36, 0
2, 38580, Note_on_c, 0, 56, 0
2, 38587, Note_on_c, 0, 48, 52
2, 38587, Note_on_c, 0, 62, 52
2, 38630, Note_on_c, 0, 53, 52
2, 38630, Note_on_c, 0, 68, 52
2, 38635, Note_on_c, 0, 50, 0
2, 38664, Note_on_c, 0, 62, 0
2, 38685, Note_on_c, 0, 60, 52
2, 38685, Note_on_c, 0, 74, 52
2, 38693, Note_on_c, 0, 48, 0
2, 38693, Note_on_c, 0, 53, 0
2, 38705, Note_on_c, 0, 60, 0
2, 38705, Note_on_c, 0, 68, 0
2, 38739, Note_on_c, 0, 60, 60
2, 38753, Note_on_c, 0, 65, 60
2, 38766, Note_on_c, 0, 80, 60
2, 38800, Note_on_c, 0, 80, 0
2, 38808, Note_on_c, 0, 72, 68
2, 38808, Note_on_c, 0, 86, 68
2, 38814, Note_on_c, 0, 65, 0
2, 38850, Note_on_c, 0, 80, 60
2, 38861, Note_on_c, 0, 65, 60
2, 38866, Note_on_c, 0, 72, 0
2, 38866, Note_on_c, 0, 74, 0
2, 38866, Note_on_c, 0, 60, 0
2, 38896, Note_on_c, 0, 86, 0
2, 38916, Note_on_c, 0, 60, 60
2, 38918, Note_on_c, 0, 74, 60
2, 38923, Note_on_c, 0, 80, 0
2, 38938, Note_on_c, 0, 65, 0
2, 38938, Note_on_c, 0, 60, 0
2, 38938, Note_on_c, 0, 74, 0
2, 38956, Note_on_c, 0, 60, 60
2, 38956, Note_on_c, 0, 74, 60
2, 38996, Note_on_c, 0, 53, 57
2, 38998, Note_on_c, 0, 68, 56
2, 39004, Note_on_c, 0, 60, 0
2, 39009, Note_on_c, 0, 48, 55
2, 39024, Note_on_c, 0, 62, 52
2, 39031, Note_on_c, 0, 74, 0
2, 39043, Note_on_c, 0, 48, 0
2, 39045, Note_on_c, 0, 62, 0
2, 39045, Note_on_c, 0, 53, 0
2, 39059, Note_on_c, 0, 68, 0
2, 39066, Note_on_c, 0, 48, 52
2, 39084, Note_on_c, 0, 62, 52
2, 39109, Note_on_c, 0, 41, 52
2, 39122, Note_on_c, 0, 56, 52
2, 39144, Note_on_c, 0, 62, 0
2, 39151, Control_c, 0, 64, 0
2, 39156, Note_on_c, 0, 48, 0
2, 39163, Note_on_c, 0, 36, 99
2, 39163, Note_on_c, 0, 51, 99
2, 39169, Note_on_c, 0, 41, 0
2, 39197, Note_on_c, 0, 56, 0
2, 39231, Note_on_c, 0, 41, 52
2, 39244, Note_on_c, 0, 56, 52
2, 39263, Control_c, 0, 64, 127
2, 39288, Note_on_c, 0, 47, 52
2, 39289, Note_on_c, 0, 63, 52
2, 39308, Note_on_c, 0, 41, 0
2, 39311, Note_on_c, 0, 63, 0
2, 39319, Note_on_c, 0, 36, 0
2, 39322, Note_on_c, 0, 56, 0
2, 39337, Note_on_c, 0, 47, 0
2, 39344, Note_on_c, 0, 48, 52
2, 39347, Note_on_c, 0, 63, 52
2, 39371, Note_on_c, 0, 53, 52
2, 39387, Note_on_c, 0, 68, 52
2, 39394, Note_on_c, 0, 51, 0
2, 39408, Note_on_c, 0, 63, 0
2, 39429, Note_on_c, 0, 59, 52
2, 39429, Note_on_c, 0, 75, 52
2, 39432, Note_on_c, 0, 48, 0
2, 39446, Note_on_c, 0, 53, 0
2, 39449, Note_on_c, 0, 75, 0
2, 39449, Note_on_c, 0, 68, 0
2, 39460, Note_on_c, 0, 59, 0
2, 39467, Note_on_c, 0, 60, 59
2, 39482, Note_on_c, 0, 75, 60
2, 39512, Note_on_c, 0, 65, 60
2, 39526, Note_on_c, 0, 80, 60
2, 39555, Note_on_c, 0, 71, 95
2, 39562, Note_on_c, 0, 75, 0
2, 39569, Note_on_c, 0, 87, 95
2, 39574, Note_on_c, 0, 80, 0
2, 39574, Note_on_c, 0, 65, 0
2, 39602, Note_on_c, 0, 60, 0
2, 39609, Note_on_c, 0, 65, 60
2, 39612, Note_on_c, 0, 80, 60
2, 39632, Note_on_c, 0, 71, 0
2, 39659, Note_on_c, 0, 87, 0
2, 39664, Note_on_c, 0, 60, 60
2, 39666, Note_on_c, 0, 75, 60
2, 39687, Note_on_c, 0, 80, 0
2, 39689, Note_on_c, 0, 75, 0
2, 39714, Note_on_c, 0, 60, 0
2, 39714, Note_on_c, 0, 65, 0
2, 39722, Note_on_c, 0, 59, 60
2, 39722, Note_on_c, 0, 75, 60
2, 39766, Note_on_c, 0, 68, 53
2, 39777, Note_on_c, 0, 53, 52
2, 39797, Note_on_c, 0, 59, 0
2, 39816, Note_on_c, 0, 75, 0
2, 39820, Note_on_c, 0, 48, 52
2, 39820, Note_on_c, 0, 63, 52
2, 39843, Note_on_c, 0, 68, 0
2, 39857, Note_on_c, 0, 53, 0
2, 39857, Note_on_c, 0, 63, 0
2, 39890, Note_on_c, 0, 47, 52
2, 39890, Note_on_c, 0, 63, 52
2, 39897, Note_on_c, 0, 48, 0
2, 39922, Note_on_c, 0, 47, 0
2, 39932, Note_on_c, 0, 41, 52
2, 39932, Note_on_c, 0, 56, 52
2, 39952, Note_on_c, 0, 63, 0
2, 39979, Note_on_c, 0, 41, 0
2, 39984, Note_on_c, 0, 36, 56
2, 39990, Control_c, 0, 64, 0
2, 40038, Note_on_c, 0, 48, 99
2, 40131, Control_c, 0, 64, 127
2, 40158, Note_on_c, 0, 51, 52
2, 40172, Note_on_c, 0, 43, 52
2, 40178, Note_on_c, 0, 48, 0
2, 40190, Note_on_c, 0, 36, 0
2, 40192, Note_on_c, 0, 56, 0
2, 40213, Note_on_c, 0, 48, 52
2, 40215, Note_on_c, 0, 60, 52
2, 40220, Note_on_c, 0, 43, 0
2, 40233, Note_on_c, 0, 60, 0
2, 40233, Note_on_c, 0, 48, 0
2, 40251, Note_on_c, 0, 51, 0
2, 40258, Note_on_c, 0, 48, 52
2, 40285, Note_on_c, 0, 60, 52
2, 40315, Note_on_c, 0, 55, 52
2, 40315, Note_on_c, 0, 63, 52
2, 40321, Note_on_c, 0, 60, 0
2, 40355, Note_on_c, 0, 60, 52
2, 40358, Control_c, 0, 64, 0
2, 40390, Note_on_c, 0, 63, 0
2, 40396, Note_on_c, 0, 72, 85
2, 40416, Note_on_c, 0, 55, 0
2, 40450, Note_on_c, 0, 55, 52
2, 40453, Note_on_c, 0, 63, 52
2, 40460, Note_on_c, 0, 60, 0
2, 40471, Note_on_c, 0, 48, 0
2, 40505, Control_c, 0, 64, 127
2, 40505, Note_on_c, 0, 48, 52
2, 40512, Note_on_c, 0, 63, 0
2, 40532, Note_on_c, 0, 60, 52
2, 40539, Note_on_c, 0, 55, 0
2, 40557, Note_on_c, 0, 63, 52
2, 40568, Note_on_c, 0, 55, 52
2, 40578, Note_on_c, 0, 60, 0
2, 40580, Note_on_c, 0, 72, 0
2, 40611, Note_on_c, 0, 70, 95
2, 40613, Note_on_c, 0, 48, 0
2, 40616, Note_on_c, 0, 63, 0
2, 40625, Note_on_c, 0, 60, 48
2, 40632, Note_on_c, 0, 55, 0
2, 40661, Note_on_c, 0, 60, 0
2, 40668, Note_on_c, 0, 55, 37
2, 40668, Note_on_c, 0, 63, 37
2, 40698, Note_on_c, 0, 48, 43
2, 40711, Note_on_c, 0, 60, 44
2, 40720, Note_on_c, 0, 63, 0
2, 40731, Note_on_c, 0, 55, 0
2, 40754, Note_on_c, 0, 63, 44
2, 40761, Note_on_c, 0, 60, 0
2, 40761, Note_on_c, 0, 70, 0
2, 40768, Note_on_c, 0, 55, 44
2, 40800, Note_on_c, 0, 48, 0
2, 40801, Note_on_c, 0, 63, 0
2, 40809, Note_on_c, 0, 60, 44
2, 40811, Note_on_c, 0, 68, 99
2, 40816, Note_on_c, 0, 55, 0
2, 40829, Note_on_c, 0, 60, 0
2, 40851, Note_on_c, 0, 55, 44
2, 40851, Note_on_c, 0, 63, 44
2, 40895, Note_on_c, 0, 48, 44
2, 40901, Note_on_c, 0, 55, 0
2, 40911, Note_on_c, 0, 60, 44
2, 40931, Note_on_c, 0, 63, 0
2, 40936, Note_on_c, 0, 55, 44
2, 40944, Note_on_c, 0, 68, 0
2, 40951, Note_on_c, 0, 62, 44
2, 40956, Note_on_c, 0, 60, 0
2, 40979, Control_c, 0, 64, 0
2, 40990, Note_on_c, 0, 59, 44
2, 41004, Note_on_c, 0, 67, 65
2, 41011, Note_on_c, 0, 62, 0
2, 41021, Note_on_c, 0, 55, 0
2, 41058, Note_on_c, 0, 55, 44
2, 41058, Note_on_c, 0, 62, 44
2, 41079, Note_on_c, 0, 59, 0
2, 41083, Control_c, 0, 64, 127
2, 41089, Note_on_c, 0, 48, 0
2, 41126, Note_on_c, 0, 48, 44
2, 41131, Note_on_c, 0, 55, 0
2, 41133, Note_on_c, 0, 62, 0
2, 41139, Note_on_c, 0, 59, 44
2, 41146, Note_on_c, 0, 67, 0
2, 41183, Note_on_c, 0, 55, 44
2, 41183, Note_on_c, 0, 61, 44
2, 41189, Note_on_c, 0, 59, 0
2, 41221, Note_on_c, 0, 58, 44
2, 41221, Note_on_c, 0, 67, 85
2, 41228, Note_on_c, 0, 61, 0
2, 41228, Note_on_c, 0, 55, 0
2, 41253, Note_on_c, 0, 58, 0
2, 41262, Note_on_c, 0, 55, 44
2, 41262, Note_on_c, 0, 61, 44
2, 41267, Note_on_c, 0, 48, 0
2, 41303, Note_on_c, 0, 48, 44
2, 41314, Note_on_c, 0, 58, 44
2, 41321, Note_on_c, 0, 61, 0
2, 41334, Note_on_c, 0, 58, 0
2, 41349, Note_on_c, 0, 55, 0
2, 41355, Note_on_c, 0, 53, 44
2, 41355, Note_on_c, 0, 60, 44
2, 41362, Note_on_c, 0, 67, 0
2, 41400, Control_c, 0, 64, 0
2, 41402, Note_on_c, 0, 53, 0
2, 41409, Note_on_c, 0, 57, 44
2, 41412, Note_on_c, 0, 65, 81
2, 41430, Note_on_c, 0, 60, 0
2, 41464, Note_on_c, 0, 60, 44
2, 41469, Note_on_c, 0, 48, 0
2, 41471, Note_on_c, 0, 57, 0
2, 41477, Note_on_c, 0, 53, 44
2, 41525, Note_on_c, 0, 53, 0
2, 41527, Note_on_c, 0, 48, 44
2, 41529, Note_on_c, 0, 57, 44
2, 41539, Note_on_c, 0, 60, 0
2, 41544, Control_c, 0, 64, 127
2, 41561, Note_on_c, 0, 65, 0
2, 41582, Note_on_c, 0, 53, 44
2, 41582, Note_on_c, 0, 59, 44
2, 41604, Note_on_c, 0, 57, 0
2, 41622, Note_on_c, 0, 65, 68
2, 41636, Control_c, 0, 64, 0
2, 41636, Note_on_c, 0, 56, 44
2, 41642, Note_on_c, 0, 59, 0
2, 41642, Note_on_c, 0, 53, 0
2, 41700, Note_on_c, 0, 56, 0
2, 41722, Note_on_c, 0, 53, 44
2, 41722, Note_on_c, 0, 59, 44
2, 41729, Note_on_c, 0, 48, 0
2, 41749, Control_c, 0, 64, 127
2, 41777, Note_on_c, 0, 48, 44
2, 41777, Note_on_c, 0, 56, 44
2, 41802, Note_on_c, 0, 59, 0
2, 41802, Note_on_c, 0, 53, 0
2, 41815, Note_on_c, 0, 65, 0
2, 41827, Note_on_c, 0, 56, 0
2, 41840, Note_on_c, 0, 48, 0
2, 41937, Control_c, 0, 64, 0
2, 41949, Note_on_c, 0, 51, 95
2, 41976, Note_on_c, 0, 36, 46
2, 42060, Note_on_c, 0, 43, 48
2, 42060, Note_on_c, 0, 55, 48
2, 42087, Control_c, 0, 64, 127
2, 42108, Note_on_c, 0, 51, 0
2, 42115, Note_on_c, 0, 48, 48
2, 42115, Note_on_c, 0, 63, 48
2, 42119, Note_on_c, 0, 36, 0
2, 42121, Note_on_c, 0, 43, 0
2, 42135, Note_on_c, 0, 55, 0
2, 42135, Note_on_c, 0, 48, 0
2, 42137, Note_on_c, 0, 63, 0
2, 42171, Note_on_c, 0, 48, 60
2, 42171, Note_on_c, 0, 63, 60
2, 42215, Note_on_c, 0, 55, 60
2, 42215, Note_on_c, 0, 67, 60
2, 42235, Note_on_c, 0, 63, 0
2, 42248, Note_on_c, 0, 48, 0
2, 42255, Note_on_c, 0, 60, 60
2, 42257, Note_on_c, 0, 75, 60
2, 42275, Note_on_c, 0, 55, 0
2, 42278, Note_on_c, 0, 67, 0
2, 42278, Note_on_c, 0, 60, 0
2, 42278, Note_on_c, 0, 75, 0
2, 42312, Note_on_c, 0, 60, 60
2, 42312, Note_on_c, 0, 75, 60
2, 42353, Note_on_c, 0, 67, 60
2, 42355, Note_on_c, 0, 79, 60
2, 42375, Note_on_c, 0, 75, 0
2, 42395, Note_on_c, 0, 72, 53
2, 42395, Note_on_c, 0, 87, 53
2, 42400, Note_on_c, 0, 67, 0
2, 42403, Note_on_c, 0, 79, 0
2, 42432, Note_on_c, 0, 60, 0
2, 42438, Note_on_c, 0, 67, 60
2, 42456, Note_on_c, 0, 79, 60
2, 42459, Note_on_c, 0, 72, 0
2, 42491, Note_on_c, 0, 87, 0
2, 42493, Note_on_c, 0, 60, 56
2, 42495, Note_on_c, 0, 75, 56
2, 42500, Note_on_c, 0, 67, 0
2, 42502, Note_on_c, 0, 79, 0
2, 42513, Note_on_c, 0, 60, 0
2, 42518, Note_on_c, 0, 75, 0
2, 42550, Note_on_c, 0, 60, 48
2, 42552, Note_on_c, 0, 75, 48
2, 42588, Note_on_c, 0, 55, 48
2, 42590, Note_on_c, 0, 67, 48
2, 42595, Note_on_c, 0, 60, 0
2, 42624, Note_on_c, 0, 75, 0
2, 42631, Note_on_c, 0, 48, 48
2, 42633, Note_on_c, 0, 63, 48
2, 42649, Note_on_c, 0, 48, 0
2, 42649, Note_on_c, 0, 55, 0
2, 42651, Note_on_c, 0, 67, 0
2, 42665, Note_on_c, 0, 63, 0
2, 42683, Note_on_c, 0, 48, 48
2, 42699, Note_on_c, 0, 63, 48
2, 42713, Note_on_c, 0, 55, 48
2, 42724, Note_on_c, 0, 43, 48
2, 42729, Control_c, 0, 64, 0
2, 42744, Note_on_c, 0, 48, 0
2, 42763, Note_on_c, 0, 36, 65
2, 42765, Note_on_c, 0, 50, 65
2, 42771, Note_on_c, 0, 43, 0
2, 42771, Note_on_c, 0, 55, 0
2, 42786, Note_on_c, 0, 63, 0
2, 42817, Note_on_c, 0, 41, 48
2, 42819, Note_on_c, 0, 56, 48
2, 42860, Note_on_c, 0, 48, 48
2, 42860, Note_on_c, 0, 62, 48
2, 42864, Note_on_c, 0, 36, 0
2, 42876, Control_c, 0, 64, 127
2, 42881, Note_on_c, 0, 41, 0
2, 42881, Note_on_c, 0, 48, 0
2, 42881, Note_on_c, 0, 62, 0
2, 42894, Note_on_c, 0, 56, 0
2, 42914, Note_on_c, 0, 48, 48
2, 42914, Note_on_c, 0, 62, 48
2, 42946, Note_on_c, 0, 50, 0
2, 42956, Note_on_c, 0, 53, 48
2, 42956, Note_on_c, 0, 68, 48
2, 42991, Note_on_c, 0, 62, 0
2, 42999, Note_on_c, 0, 60, 48
2, 43003, Note_on_c, 0, 48, 0
2, 43012, Note_on_c, 0, 74, 52
2, 43019, Note_on_c, 0, 60, 0
2, 43019, Note_on_c, 0, 53, 0
2, 43031, Note_on_c, 0, 74, 0
2, 43032, Note_on_c, 0, 68, 0
2, 43057, Note_on_c, 0, 60, 64
2, 43057, Note_on_c, 0, 74, 64
2, 43098, Note_on_c, 0, 65, 64
2, 43098, Note_on_c, 0, 80, 64
2, 43134, Note_on_c, 0, 80, 0
2, 43146, Note_on_c, 0, 65, 0
2, 43152, Note_on_c, 0, 72, 61
2, 43152, Note_on_c, 0, 86, 61
2, 43179, Note_on_c, 0, 80, 64
2, 43194, Note_on_c, 0, 65, 64
2, 43198, Note_on_c, 0, 60, 0
2, 43200, Note_on_c, 0, 74, 0
2, 43214, Note_on_c, 0, 72, 0
2, 43227, Note_on_c, 0, 86, 0
2, 43234, Note_on_c, 0, 74, 64
2, 43250, Note_on_c, 0, 60, 64
2, 43254, Note_on_c, 0, 74, 0
2, 43257, Note_on_c, 0, 80, 0
2, 43269, Note_on_c, 0, 65, 0
2, 43271, Note_on_c, 0, 60, 0
2, 43291, Note_on_c, 0, 60, 58
2, 43293, Note_on_c, 0, 74, 58
2, 43334, Note_on_c, 0, 53, 51
2, 43334, Note_on_c, 0, 68, 51
2, 43368, Note_on_c, 0, 60, 0
2, 43372, Note_on_c, 0, 48, 48
2, 43382, Note_on_c, 0, 74, 0
2, 43389, Note_on_c, 0, 62, 48
2, 43392, Note_on_c, 0, 68, 0
2, 43411, Note_on_c, 0, 48, 0
2, 43411, Note_on_c, 0, 53, 0
2, 43411, Note_on_c, 0, 62, 0
2, 43424, Control_c, 0, 67, 127
2, 43445, Note_on_c, 0, 48, 43
2, 43447, Note_on_c, 0, 62, 43
2, 43502, Note_on_c, 0, 41, 43
2, 43502, Note_on_c, 0, 56, 43
2, 43506, Note_on_c, 0, 48, 0
2, 43520, Control_c, 0, 64, 0
2, 43556, Note_on_c, 0, 36, 43
2, 43579, Note_on_c, 0, 41, 0
2, 43610, Note_on_c, 0, 52, 90
2, 43615, Note_on_c, 0, 56, 0
2, 43617, Note_on_c, 0, 62, 0
2, 43704, Note_on_c, 0, 43, 43
2, 43717, Control_c, 0, 64, 127
2, 43717, Note_on_c, 0, 58, 43
2, 43742, Note_on_c, 0, 48, 43
2, 43749, Note_on_c, 0, 43, 0
2, 43755, Note_on_c, 0, 64, 45
2, 43762, Note_on_c, 0, 58, 0
2, 43762, Note_on_c, 0, 48, 0
2, 43762, Note_on_c, 0, 52, 0
2, 43776, Note_on_c, 0, 64, 0
2, 43792, Note_on_c, 0, 36, 0
2, 43799, Note_on_c, 0, 48, 59
2, 43812, Note_on_c, 0, 64, 59
2, 43837, Note_on_c, 0, 55, 59
2, 43837, Note_on_c, 0, 70, 59
2, 43872, Note_on_c, 0, 64, 0
2, 43872, Note_on_c, 0, 48, 0
2, 43878, Note_on_c, 0, 60, 59
2, 43878, Note_on_c, 0, 76, 59
2, 43896, Note_on_c, 0, 76, 0
2, 43896, Note_on_c, 0, 60, 0
2, 43896, Note_on_c, 0, 55, 0
2, 43898, Note_on_c, 0, 70, 0
2, 43937, Note_on_c, 0, 60, 59
2, 43937, Note_on_c, 0, 76, 59
2, 43962, Note_on_c, 0, 67, 59
2, 43978, Note_on_c, 0, 82, 59
2, 44005, Note_on_c, 0, 72, 56
2, 44005, Note_on_c, 0, 88, 56
2, 44012, Note_on_c, 0, 82, 0
2, 44012, Note_on_c, 0, 67, 0
2, 44037, Note_on_c, 0, 60, 0
2, 44043, Note_on_c, 0, 67, 51
2, 44043, Note_on_c, 0, 82, 51
2, 44048, Note_on_c, 0, 76, 0
2, 44077, Note_on_c, 0, 72, 0
2, 44082, Note_on_c, 0, 76, 46
2, 44082, Note_on_c, 0, 60, 46
2, 44088, Note_on_c, 0, 67, 0
2, 44091, Note_on_c, 0, 88, 0
2, 44091, Control_c, 0, 67, 0
2, 44102, Note_on_c, 0, 76, 0
2, 44102, Note_on_c, 0, 82, 0
2, 44102, Note_on_c, 0, 60, 0
2, 44138, Note_on_c, 0, 60, 48
2, 44138, Note_on_c, 0, 76, 48
2, 44182, Note_on_c, 0, 55, 48
2, 44182, Note_on_c, 0, 70, 48
2, 44202, Note_on_c, 0, 60, 0
2, 44216, Note_on_c, 0, 76, 0
2, 44220, Note_on_c, 0, 48, 45
2, 44220, Note_on_c, 0, 64, 45
2, 44243, Note_on_c, 0, 48, 0
2, 44243, Note_on_c, 0, 70, 0
2, 44243, Note_on_c, 0, 55, 0
2, 44245, Note_on_c, 0, 64, 0
2, 44275, Note_on_c, 0, 48, 44
2, 44275, Note_on_c, 0, 64, 44
2, 44318, Note_on_c, 0, 43, 44
2, 44318, Note_on_c, 0, 58, 44
2, 44333, Note_on_c, 0, 48, 0
2, 44333, Control_c, 0, 64, 0
2, 44336, Note_on_c, 0, 64, 0
2, 44358, Note_on_c, 0, 37, 48
2, 44376, Note_on_c, 0, 43, 0
2, 44413, Note_on_c, 0, 53, 61
2, 44420, Note_on_c, 0, 58, 0
2, 44468, Note_on_c, 0, 44, 48
2, 44483, Control_c, 0, 64, 127
2, 44483, Note_on_c, 0, 56, 48
2, 44508, Note_on_c, 0, 49, 48
2, 44508, Note_on_c, 0, 65, 48
2, 44515, Note_on_c, 0, 44, 0
2, 44515, Note_on_c, 0, 37, 0
2, 44528, Note_on_c, 0, 49, 0
2, 44528, Note_on_c, 0, 65, 0
2, 44543, Note_on_c, 0, 56, 0
2, 44565, Note_on_c, 0, 49, 48
2, 44565, Note_on_c, 0, 65, 48
2, 44571, Note_on_c, 0, 53, 0
2, 44608, Note_on_c, 0, 56, 60
2, 44608, Note_on_c, 0, 68, 60
2, 44628, Note_on_c, 0, 49, 0
2, 44651, Note_on_c, 0, 61, 64
2, 44651, Note_on_c, 0, 77, 64
2, 44656, Note_on_c, 0, 56, 0
2, 44658, Note_on_c, 0, 68, 0
2, 44658, Note_on_c, 0, 65, 0
2, 44671, Note_on_c, 0, 61, 0
2, 44671, Note_on_c, 0, 77, 0
2, 44706, Note_on_c, 0, 61, 64
2, 44706, Note_on_c, 0, 77, 64
2, 44748, Note_on_c, 0, 68, 64
2, 44748, Note_on_c, 0, 80, 64
2, 44769, Note_on_c, 0, 61, 0
2, 44783, Note_on_c, 0, 77, 0
2, 44787, Note_on_c, 0, 73, 61
2, 44789, Note_on_c, 0, 89, 61
2, 44794, Note_on_c, 0, 68, 0
2, 44794, Note_on_c, 0, 80, 0
2, 44832, Note_on_c, 0, 68, 64
2, 44832, Note_on_c, 0, 80, 64
2, 44866, Note_on_c, 0, 73, 0
2, 44869, Note_on_c, 0, 89, 0
2, 44873, Note_on_c, 0, 61, 63
2, 44873, Note_on_c, 0, 77, 63
2, 44894, Note_on_c, 0, 77, 0
2, 44894, Note_on_c, 0, 80, 0
2, 44894, Note_on_c, 0, 68, 0
2, 44894, Note_on_c, 0, 61, 0
2, 44928, Note_on_c, 0, 61, 54
2, 44928, Note_on_c, 0, 77, 54
2, 44959, Note_on_c, 0, 68, 49
2, 44961, Control_c, 0, 64, 0
2, 44973, Note_on_c, 0, 56, 48
2, 44979, Note_on_c, 0, 61, 0
2, 44993, Note_on_c, 0, 77, 0
2, 44993, Control_c, 0, 64, 127
2, 45000, Note_on_c, 0, 49, 48
2, 45000, Note_on_c, 0, 65, 48
2, 45021, Note_on_c, 0, 65, 0
2, 45021, Note_on_c, 0, 56, 0
2, 45021, Note_on_c, 0, 68, 0
2, 45021, Note_on_c, 0, 49, 0
2, 45043, Note_on_c, 0, 49, 48
2, 45057, Note_on_c, 0, 65, 48
2, 45086, Note_on_c, 0, 44, 48
2, 45099, Note_on_c, 0, 56, 48
2, 45107, Note_on_c, 0, 49, 0
2, 45114, Note_on_c, 0, 37, 48
2, 45129, Control_c, 0, 64, 0
2, 45147, Note_on_c, 0, 44, 0
2, 45152, Note_on_c, 0, 53, 99
2, 45159, Note_on_c, 0, 56, 0
2, 45213, Note_on_c, 0, 65, 0
2, 45220, Note_on_c, 0, 44, 34
2, 45220, Note_on_c, 0, 56, 34
2, 45247, Note_on_c, 0, 49, 41
2, 45249, Control_c, 0, 64, 127
2, 45263, Note_on_c, 0, 65, 45
2, 45267, Note_on_c, 0, 49, 0
2, 45270, Note_on_c, 0, 53, 0
2, 45284, Note_on_c, 0, 56, 0
2, 45284, Note_on_c, 0, 44, 0
2, 45284, Note_on_c, 0, 65, 0
2, 45297, Note_on_c, 0, 37, 0
2, 45306, Note_on_c, 0, 49, 52
2, 45306, Note_on_c, 0, 65, 52
2, 45347, Note_on_c, 0, 56, 52
2, 45360, Note_on_c, 0, 68, 52
2, 45381, Note_on_c, 0, 65, 0
2, 45381, Note_on_c, 0, 49, 0
2, 45387, Note_on_c, 0, 61, 60
2, 45401, Note_on_c, 0, 77, 60
2, 45406, Note_on_c, 0, 56, 0
2, 45408, Note_on_c, 0, 68, 0
2, 45408, Note_on_c, 0, 61, 0
2, 45422, Note_on_c, 0, 77, 0
2, 45442, Note_on_c, 0, 61, 60
2, 45456, Note_on_c, 0, 77, 60
2, 45469, Note_on_c, 0, 68, 60
2, 45487, Note_on_c, 0, 80, 60
2, 45504, Note_on_c, 0, 61, 0
2, 45519, Note_on_c, 0, 77, 0
2, 45519, Note_on_c, 0, 68, 0
2, 45519, Note_on_c, 0, 80, 0
2, 45526, Note_on_c, 0, 73, 68
2, 45540, Note_on_c, 0, 89, 59
2, 45569, Note_on_c, 0, 68, 54
2, 45569, Note_on_c, 0, 80, 54
2, 45589, Note_on_c, 0, 89, 0
2, 45594, Note_on_c, 0, 61, 52
2, 45600, Note_on_c, 0, 73, 0
2, 45607, Note_on_c, 0, 77, 52
2, 45617, Note_on_c, 0, 61, 0
2, 45617, Note_on_c, 0, 68, 0
2, 45628, Note_on_c, 0, 80, 0
2, 45630, Note_on_c, 0, 77, 0
2, 45650, Note_on_c, 0, 61, 52
2, 45664, Note_on_c, 0, 77, 52
2, 45667, Control_c, 0, 64, 0
2, 45692, Note_on_c, 0, 56, 52
2, 45692, Note_on_c, 0, 68, 52
2, 45698, Control_c, 0, 64, 127
2, 45712, Note_on_c, 0, 77, 0
2, 45712, Note_on_c, 0, 61, 0
2, 45719, Note_on_c, 0, 49, 52
2, 45732, Note_on_c, 0, 65, 52
2, 45739, Note_on_c, 0, 49, 0
2, 45739, Note_on_c, 0, 68, 0
2, 45739, Note_on_c, 0, 56, 0
2, 45752, Note_on_c, 0, 65, 0
2, 45775, Note_on_c, 0, 49, 52
2, 45789, Note_on_c, 0, 65, 52
2, 45816, Note_on_c, 0, 44, 52
2, 45816, Note_on_c, 0, 56, 52
2, 45830, Note_on_c, 0, 37, 52
2, 45834, Control_c, 0, 64, 0
2, 45837, Note_on_c, 0, 49, 0
2, 45873, Note_on_c, 0, 56, 0
2, 45873, Note_on_c, 0, 44, 0
2, 45882, Note_on_c, 0, 52, 85
2, 45915, Note_on_c, 0, 65, 0
2, 45936, Note_on_c, 0, 43, 52
2, 45936, Note_on_c, 0, 58, 52
2, 45940, Control_c, 0, 64, 127
2, 45977, Note_on_c, 0, 49, 52
2, 45977, Note_on_c, 0, 64, 52
2, 45997, Note_on_c, 0, 58, 0
2, 45997, Note_on_c, 0, 43, 0
2, 46011, Note_on_c, 0, 64, 0
2, 46013, Note_on_c, 0, 37, 0
2, 46013, Note_on_c, 0, 49, 0
2, 46045, Note_on_c, 0, 64, 60
2, 46047, Note_on_c, 0, 49, 60
2, 46058, Note_on_c, 0, 55, 60
2, 46072, Note_on_c, 0, 70, 60
2, 46080, Note_on_c, 0, 52, 0
2, 46090, Note_on_c, 0, 64, 0
2, 46093, Note_on_c, 0, 49, 0
2, 46097, Note_on_c, 0, 61, 60
2, 46097, Note_on_c, 0, 76, 60
2, 46118, Note_on_c, 0, 76, 0
2, 46118, Note_on_c, 0, 61, 0
2, 46133, Note_on_c, 0, 55, 0
2, 46133, Note_on_c, 0, 70, 0
2, 46140, Note_on_c, 0, 76, 60
2, 46156, Note_on_c, 0, 61, 60
2, 46181, Note_on_c, 0, 67, 60
2, 46181, Note_on_c, 0, 82, 60
2, 46218, Note_on_c, 0, 67, 0
2, 46218, Note_on_c, 0, 61, 0
2, 46222, Note_on_c, 0, 73, 68
2, 46222, Note_on_c, 0, 88, 68
2, 46228, Note_on_c, 0, 82, 0
2, 46251, Note_on_c, 0, 67, 53
2, 46256, Note_on_c, 0, 76, 0
2, 46263, Note_on_c, 0, 82, 52
2, 46285, Note_on_c, 0, 73, 0
2, 46296, Note_on_c, 0, 88, 0
2, 46306, Note_on_c, 0, 61, 52
2, 46306, Note_on_c, 0, 76, 52
2, 46326, Note_on_c, 0, 76, 0
2, 46326, Note_on_c, 0, 82, 0
2, 46326, Note_on_c, 0, 67, 0
2, 46326, Note_on_c, 0, 61, 0
2, 46365, Note_on_c, 0, 61, 52
2, 46365, Note_on_c, 0, 76, 52
2, 46392, Note_on_c, 0, 55, 52
2, 46392, Note_on_c, 0, 70, 52
2, 46426, Note_on_c, 0, 76, 0
2, 46426, Note_on_c, 0, 61, 0
2, 46433, Note_on_c, 0, 49, 52
2, 46433, Note_on_c, 0, 64, 52
2, 46453, Note_on_c, 0, 64, 0
2, 46453, Note_on_c, 0, 70, 0
2, 46453, Note_on_c, 0, 55, 0
2, 46453, Note_on_c, 0, 49, 0
2, 46473, Note_on_c, 0, 49, 52
2, 46473, Note_on_c, 0, 64, 52
2, 46501, Note_on_c, 0, 43, 52
2, 46501, Note_on_c, 0, 58, 52
2, 46535, Note_on_c, 0, 49, 0
2, 46541, Note_on_c, 0, 37, 85
2, 46548, Note_on_c, 0, 43, 0
2, 46548, Control_c, 0, 64, 0
2, 46555, Note_on_c, 0, 53, 85
2, 46561, Note_on_c, 0, 58, 0
2, 46589, Note_on_c, 0, 64, 0
2, 46596, Note_on_c, 0, 44, 52
2, 46596, Note_on_c, 0, 59, 52
2, 46651, Note_on_c, 0, 49, 59
2, 46651, Note_on_c, 0, 65, 59
2, 46655, Control_c, 0, 64, 127
2, 46657, Note_on_c, 0, 44, 0
2, 46671, Note_on_c, 0, 49, 0
2, 46671, Note_on_c, 0, 59, 0
2, 46671, Note_on_c, 0, 65, 0
2, 46689, Note_on_c, 0, 49, 60
2, 46689, Note_on_c, 0, 65, 60
2, 46711, Note_on_c, 0, 37, 0
2, 46723, Note_on_c, 0, 53, 0
2, 46729, Note_on_c, 0, 56, 60
2, 46729, Note_on_c, 0, 71, 60
2, 46748, Note_on_c, 0, 49, 0
2, 46748, Note_on_c, 0, 65, 0
2, 46768, Note_on_c, 0, 61, 60
2, 46768, Note_on_c, 0, 77, 60
2, 46789, Note_on_c, 0, 77, 0
2, 46789, Note_on_c, 0, 61, 0
2, 46789, Note_on_c, 0, 56, 0
2, 46804, Note_on_c, 0, 71, 0
2, 46809, Note_on_c, 0, 77, 60
2, 46824, Note_on_c, 0, 61, 60
2, 46849, Note_on_c, 0, 68, 60
2, 46866, Note_on_c, 0, 83, 60
2, 46884, Note_on_c, 0, 61, 0
2, 46884, Note_on_c, 0, 77, 0
2, 46888, Note_on_c, 0, 89, 68
2, 46891, Note_on_c, 0, 73, 68
2, 46897, Note_on_c, 0, 83, 0
2, 46909, Note_on_c, 0, 68, 0
2, 46943, Note_on_c, 0, 83, 55
2, 46945, Note_on_c, 0, 68, 55
2, 46966, Note_on_c, 0, 89, 0
2, 46966, Note_on_c, 0, 73, 0
2, 46972, Note_on_c, 0, 77, 52
2, 46974, Note_on_c, 0, 61, 52
2, 46992, Note_on_c, 0, 61, 0
2, 46992, Note_on_c, 0, 68, 0
2, 46992, Note_on_c, 0, 83, 0
2, 46992, Note_on_c, 0, 77, 0
2, 47029, Note_on_c, 0, 61, 52
2, 47029, Note_on_c, 0, 77, 52
2, 47054, Note_on_c, 0, 71, 52
2, 47056, Note_on_c, 0, 56, 52
2, 47076, Note_on_c, 0, 61, 0
2, 47094, Note_on_c, 0, 65, 52
2, 47097, Note_on_c, 0, 49, 52
2, 47101, Note_on_c, 0, 77, 0
2, 47117, Note_on_c, 0, 65, 0
2, 47117, Note_on_c, 0, 56, 0
2, 47117, Note_on_c, 0, 71, 0
2, 47117, Note_on_c, 0, 49, 0
2, 47137, Note_on_c, 0, 65, 52
2, 47140, Note_on_c, 0, 49, 52
2, 47174, Control_c, 0, 64, 0
2, 47179, Note_on_c, 0, 59, 52
2, 47181, Note_on_c, 0, 44, 52
2, 47199, Note_on_c, 0, 49, 0
2, 47210, Note_on_c, 0, 38, 52
2, 47214, Note_on_c, 0, 65, 0
2, 47214, Note_on_c, 0, 59, 0
2, 47242, Note_on_c, 0, 44, 0
2, 47251, Note_on_c, 0, 55, 95
2, 47310, Note_on_c, 0, 43, 52
2, 47321, Note_on_c, 0, 59, 52
2, 47328, Control_c, 0, 64, 127
2, 47335, Note_on_c, 0, 50, 52
2, 47339, Note_on_c, 0, 38, 0
2, 47346, Note_on_c, 0, 67, 52
2, 47355, Note_on_c, 0, 50, 0
2, 47357, Note_on_c, 0, 43, 0
2, 47369, Note_on_c, 0, 67, 0
2, 47382, Note_on_c, 0, 59, 0
2, 47389, Note_on_c, 0, 50, 52
2, 47402, Note_on_c, 0, 67, 52
2, 47446, Note_on_c, 0, 71, 52
2, 47452, Note_on_c, 0, 67, 0
2, 47467, Note_on_c, 0, 55, 0
2, 47475, Note_on_c, 0, 79, 85
2, 47477, Note_on_c, 0, 62, 52
2, 47480, Note_on_c, 0, 71, 0
2, 47502, Note_on_c, 0, 55, 52
2, 47509, Note_on_c, 0, 50, 0
2, 47517, Note_on_c, 0, 71, 52
2, 47539, Note_on_c, 0, 62, 0
2, 47550, Note_on_c, 0, 79, 0
2, 47559, Note_on_c, 0, 50, 52
2, 47559, Note_on_c, 0, 67, 52
2, 47580, Note_on_c, 0, 55, 0
2, 47593, Note_on_c, 0, 71, 0
2, 47607, Note_on_c, 0, 67, 0
2, 47616, Note_on_c, 0, 38, 52
2, 47623, Note_on_c, 0, 50, 0
2, 47634, Control_c, 0, 64, 0
2, 47655, Note_on_c, 0, 56, 95
2, 47727, Note_on_c, 0, 41, 52
2, 47740, Note_on_c, 0, 59, 52
2, 47770, Note_on_c, 0, 50, 52
2, 47770, Note_on_c, 0, 68, 52
2, 47788, Control_c, 0, 64, 127
2, 47790, Note_on_c, 0, 68, 0
2, 47790, Note_on_c, 0, 56, 0
2, 47790, Note_on_c, 0, 38, 0
2, 47790, Note_on_c, 0, 41, 0
2, 47790, Note_on_c, 0, 50, 0
2, 47802, Note_on_c, 0, 59, 0
2, 47822, Note_on_c, 0, 68, 52
2, 47825, Note_on_c, 0, 50, 52
2, 47863, Note_on_c, 0, 71, 52
2, 47865, Note_on_c, 0, 53, 52
2, 47893, Note_on_c, 0, 62, 52
2, 47900, Note_on_c, 0, 53, 0
2, 47900, Note_on_c, 0, 71, 0
2, 47900, Note_on_c, 0, 68, 0
2, 47906, Note_on_c, 0, 80, 76
2, 47931, Note_on_c, 0, 50, 0
2, 47935, Note_on_c, 0, 71, 52
2, 47938, Note_on_c, 0, 53, 52
2, 47945, Note_on_c, 0, 62, 0
2, 47978, Note_on_c, 0, 68, 52
2, 47983, Note_on_c, 0, 80, 0
2, 47983, Note_on_c, 0, 27, 52
2, 47992, Note_on_c, 0, 50, 52
2, 47997, Note_on_c, 0, 71, 0
2, 48000, Note_on_c, 0, 53, 0
2, 48013, Control_c, 0, 64, 0
2, 48038, Note_on_c, 0, 68, 0
2, 48051, Note_on_c, 0, 50, 0
2, 48072, Note_on_c, 0, 55, 95
2, 48076, Note_on_c, 0, 39, 95
2, 48142, Note_on_c, 0, 60, 52
2, 48155, Note_on_c, 0, 48, 52
2, 48163, Control_c, 0, 64, 127
2, 48194, Note_on_c, 0, 51, 52
2, 48194, Note_on_c, 0, 67, 52
2, 48203, Note_on_c, 0, 39, 0
2, 48203, Note_on_c, 0, 27, 0
2, 48212, Note_on_c, 0, 60, 0
2, 48212, Note_on_c, 0, 67, 0
2, 48215, Note_on_c, 0, 55, 0
2, 48215, Note_on_c, 0, 51, 0
2, 48228, Note_on_c, 0, 48, 0
2, 48237, Note_on_c, 0, 67, 52
2, 48248, Note_on_c, 0, 51, 52
2, 48276, Note_on_c, 0, 72, 52
2, 48278, Note_on_c, 0, 60, 52
2, 48296, Note_on_c, 0, 67, 0
2, 48303, Note_on_c, 0, 63, 52
2, 48316, Note_on_c, 0, 79, 52
2, 48336, Note_on_c, 0, 79, 0
2, 48339, Note_on_c, 0, 60, 0
2, 48339, Note_on_c, 0, 63, 0
2, 48353, Note_on_c, 0, 72, 0
2, 48353, Note_on_c, 0, 51, 0
2, 48358, Note_on_c, 0, 79, 56
2, 48373, Note_on_c, 0, 63, 56
2, 48398, Note_on_c, 0, 84, 56
2, 48400, Note_on_c, 0, 72, 56
2, 48434, Note_on_c, 0, 63, 0
2, 48439, Note_on_c, 0, 91, 68
2, 48446, Note_on_c, 0, 84, 0
2, 48448, Note_on_c, 0, 72, 0
2, 48453, Note_on_c, 0, 75, 68
2, 48481, Note_on_c, 0, 72, 56
2, 48481, Note_on_c, 0, 84, 56
2, 48489, Note_on_c, 0, 79, 0
2, 48503, Note_on_c, 0, 75, 0
2, 48525, Note_on_c, 0, 63, 56
2, 48538, Note_on_c, 0, 79, 56
2, 48543, Note_on_c, 0, 91, 0
2, 48546, Note_on_c, 0, 63, 0
2, 48546, Note_on_c, 0, 72, 0
2, 48546, Control_c, 0, 64, 0
2, 48559, Note_on_c, 0, 84, 0
2, 48559, Note_on_c, 0, 79, 0
2, 48577, Control_c, 0, 64, 127
2, 48584, Note_on_c, 0, 63, 56
2, 48584, Note_on_c, 0, 79, 56
2, 48624, Note_on_c, 0, 60, 56
2, 48624, Note_on_c, 0, 72, 56
2, 48631, Note_on_c, 0, 63, 0
2, 48659, Note_on_c, 0, 79, 0
2, 48666, Note_on_c, 0, 67, 55
2, 48668, Note_on_c, 0, 51, 55
2, 48670, Note_on_c, 0, 60, 0
2, 48686, Note_on_c, 0, 67, 0
2, 48699, Note_on_c, 0, 72, 0
2, 48701, Note_on_c, 0, 51, 0
2, 48720, Note_on_c, 0, 67, 52
2, 48722, Note_on_c, 0, 51, 52
2, 48736, Note_on_c, 0, 48, 52
2, 48747, Note_on_c, 0, 60, 52
2, 48768, Note_on_c, 0, 60, 0
2, 48768, Note_on_c, 0, 67, 0
2, 48797, Note_on_c, 0, 51, 0
2, 48804, Note_on_c, 0, 60, 95
2, 48811, Note_on_c, 0, 48, 0
2, 48833, Note_on_c, 0, 40, 52
2, 48840, Control_c, 0, 64, 0
2, 48874, Note_on_c, 0, 48, 52
2, 48886, Note_on_c, 0, 67, 52
2, 48937, Note_on_c, 0, 72, 52
2, 48942, Note_on_c, 0, 52, 52
2, 48947, Control_c, 0, 64, 127
2, 48949, Note_on_c, 0, 60, 0
2, 48960, Note_on_c, 0, 72, 0
2, 48960, Note_on_c, 0, 67, 0
2, 48962, Note_on_c, 0, 52, 0
2, 48976, Note_on_c, 0, 40, 0
2, 48979, Note_on_c, 0, 72, 52
2, 48983, Note_on_c, 0, 52, 52
2, 49004, Control_c, 0, 64, 0
2, 49010, Note_on_c, 0, 60, 52
2, 49024, Note_on_c, 0, 79, 52
2, 49035, Control_c, 0, 64, 127
2, 49046, Note_on_c, 0, 52, 0
2, 49060, Note_on_c, 0, 72, 0
2, 49067, Note_on_c, 0, 84, 52
2, 49069, Note_on_c, 0, 64, 52
2, 49076, Note_on_c, 0, 60, 0
2, 49087, Note_on_c, 0, 79, 0
2, 49089, Note_on_c, 0, 48, 0
2, 49089, Note_on_c, 0, 84, 0
2, 49089, Note_on_c, 0, 64, 0
2, 49105, Note_on_c, 0, 84, 52
2, 49110, Note_on_c, 0, 64, 52
2, 49130, Control_c, 0, 64, 0
2, 49149, Note_on_c, 0, 91, 52
2, 49151, Note_on_c, 0, 72, 52
2, 49162, Control_c, 0, 64, 127
2, 49171, Note_on_c, 0, 64, 0
2, 49196, Note_on_c, 0, 91, 0
2, 49200, Note_on_c, 0, 96, 85
2, 49202, Note_on_c, 0, 76, 85
2, 49209, Note_on_c, 0, 72, 0
2, 49257, Note_on_c, 0, 72, 52
2, 49257, Note_on_c, 0, 91, 52
2, 49264, Note_on_c, 0, 84, 0
2, 49277, Note_on_c, 0, 76, 0
2, 49305, Note_on_c, 0, 96, 0
2, 49312, Note_on_c, 0, 64, 52
2, 49312, Note_on_c, 0, 84, 52
2, 49332, Note_on_c, 0, 84, 0
2, 49332, Note_on_c, 0, 64, 0
2, 49332, Note_on_c, 0, 91, 0
2, 49344, Note_on_c, 0, 72, 0
2, 49364, Note_on_c, 0, 84, 52
2, 49366, Note_on_c, 0, 64, 52
2, 49409, Note_on_c, 0, 60, 52
2, 49420, Note_on_c, 0, 79, 52
2, 49440, Note_on_c, 0, 84, 0
2, 49443, Note_on_c, 0, 64, 0
2, 49447, Note_on_c, 0, 72, 52
2, 49450, Note_on_c, 0, 52, 51
2, 49468, Note_on_c, 0, 79, 0
2, 49484, Note_on_c, 0, 60, 0
2, 49484, Note_on_c, 0, 72, 0
2, 49486, Note_on_c, 0, 52, 0
2, 49507, Note_on_c, 0, 52, 44
2, 49507, Note_on_c, 0, 72, 44
2, 49547, Note_on_c, 0, 48, 52
2, 49559, Note_on_c, 0, 67, 52
2, 49592, Note_on_c, 0, 67, 0
2, 49592, Note_on_c, 0, 72, 0
2, 49595, Note_on_c, 0, 52, 0
2, 49602, Note_on_c, 0, 41, 52
2, 49635, Note_on_c, 0, 48, 0
2, 49645, Note_on_c, 0, 58, 99
2, 49665, Control_c, 0, 64, 0
2, 49699, Note_on_c, 0, 48, 52
2, 49724, Note_on_c, 0, 60, 52
2, 49731, Control_c, 0, 64, 127
2, 49749, Note_on_c, 0, 70, 52
2, 49770, Note_on_c, 0, 70, 0
2, 49772, Note_on_c, 0, 60, 0
2, 49774, Note_on_c, 0, 41, 0
2, 49799, Note_on_c, 0, 48, 0
2, 49799, Note_on_c, 0, 58, 0
2, 49803, Note_on_c, 0, 70, 52
2, 49805, Note_on_c, 0, 53, 52
2, 49845, Note_on_c, 0, 72, 52
2, 49862, Note_on_c, 0, 60, 52
2, 49867, Note_on_c, 0, 70, 0
2, 49873, Note_on_c, 0, 65, 85
2, 49880, Note_on_c, 0, 60, 0
2, 49885, Note_on_c, 0, 82, 85
2, 49892, Note_on_c, 0, 72, 0
2, 49895, Note_on_c, 0, 53, 0
2, 49928, Note_on_c, 0, 60, 52
2, 49928, Note_on_c, 0, 72, 52
2, 49948, Note_on_c, 0, 65, 0
2, 49962, Note_on_c, 0, 82, 0
2, 49968, Note_on_c, 0, 70, 52
2, 49971, Note_on_c, 0, 53, 52
2, 49976, Note_on_c, 0, 60, 0
2, 49993, Note_on_c, 0, 53, 0
2, 50016, Note_on_c, 0, 70, 0
2, 50016, Note_on_c, 0, 72, 0
2, 50035, Control_c, 0, 64, 0
2, 50037, Note_on_c, 0, 56, 85
2, 50040, Note_on_c, 0, 41, 85
2, 50073, Note_on_c, 0, 56, 0
2, 50110, Note_on_c, 0, 60, 52
2, 50112, Note_on_c, 0, 48, 52
2, 50146, Note_on_c, 0, 60, 0
2, 50148, Control_c, 0, 64, 127
2, 50175, Note_on_c, 0, 48, 0
2, 50191, Note_on_c, 0, 41, 0
2, 50193, Note_on_c, 0, 68, 52
2, 50196, Note_on_c, 0, 53, 52
2, 50209, Note_on_c, 0, 56, 52
2, 50221, Note_on_c, 0, 60, 52
2, 50221, Note_on_c, 0, 72, 52
2, 50243, Note_on_c, 0, 56, 0
2, 50246, Control_c, 0, 64, 0
2, 50255, Note_on_c, 0, 68, 0
2, 50261, Note_on_c, 0, 65, 85
2, 50261, Note_on_c, 0, 80, 85
2, 50268, Note_on_c, 0, 72, 0
2, 50268, Note_on_c, 0, 60, 0
2, 50281, Note_on_c, 0, 53, 0
2, 50284, Control_c, 0, 64, 127
2, 50293, Control_c, 0, 64, 0
2, 50300, Note_on_c, 0, 72, 52
2, 50316, Note_on_c, 0, 60, 52
2, 50323, Note_on_c, 0, 65, 0
2, 50328, Control_c, 0, 64, 127
2, 50336, Note_on_c, 0, 80, 0
2, 50345, Note_on_c, 0, 68, 52
2, 50368, Note_on_c, 0, 60, 0
2, 50376, Note_on_c, 0, 68, 0
2, 50376, Note_on_c, 0, 72, 0
2, 50381, Control_c, 0, 64, 0
2, 50413, Note_on_c, 0, 53, 99
2, 50416, Note_on_c, 0, 41, 99
2, 50470, Note_on_c, 0, 48, 52
2, 50479, Note_on_c, 0, 53, 0
2, 50486, Note_on_c, 0, 56, 52
2, 50513, Note_on_c, 0, 53, 52
2, 50513, Note_on_c, 0, 65, 52
2, 50520, Control_c, 0, 64, 127
2, 50533, Note_on_c, 0, 65, 0
2, 50533, Note_on_c, 0, 53, 0
2, 50547, Note_on_c, 0, 41, 0
2, 50565, Note_on_c, 0, 53, 52
2, 50565, Note_on_c, 0, 65, 52
2, 50594, Note_on_c, 0, 60, 52
2, 50599, Note_on_c, 0, 65, 0
2, 50601, Note_on_c, 0, 56, 0
2, 50601, Note_on_c, 0, 48, 0
2, 50606, Note_on_c, 0, 68, 52
2, 50633, Note_on_c, 0, 65, 71
2, 50644, Note_on_c, 0, 77, 71
2, 50651, Note_on_c, 0, 68, 0
2, 50654, Note_on_c, 0, 60, 0
2, 50654, Control_c, 0, 64, 0
2, 50669, Note_on_c, 0, 53, 0
2, 50686, Control_c, 0, 64, 127
2, 50688, Note_on_c, 0, 60, 52
2, 50688, Note_on_c, 0, 68, 52
2, 50694, Note_on_c, 0, 65, 0
2, 50724, Note_on_c, 0, 77, 0
2, 50731, Note_on_c, 0, 65, 52
2, 50733, Note_on_c, 0, 53, 52
2, 50739, Control_c, 0, 64, 0
2, 50751, Note_on_c, 0, 60, 0
2, 50753, Note_on_c, 0, 68, 0
2, 50771, Control_c, 0, 64, 127
2, 50781, Note_on_c, 0, 65, 0
2, 50783, Note_on_c, 0, 53, 0
2, 50828, Control_c, 0, 64, 0
2, 50834, Note_on_c, 0, 41, 99
2, 50834, Note_on_c, 0, 50, 99
2, 50891, Note_on_c, 0, 48, 52
2, 50905, Note_on_c, 0, 56, 52
2, 50926, Note_on_c, 0, 50, 0
2, 50937, Note_on_c, 0, 41, 0
2, 50937, Control_c, 0, 64, 127
2, 50941, Note_on_c, 0, 62, 52
2, 50944, Note_on_c, 0, 53, 52
2, 50964, Note_on_c, 0, 53, 0
2, 50964, Note_on_c, 0, 56, 0
2, 50964, Note_on_c, 0, 48, 0
2, 50964, Note_on_c, 0, 62, 0
2, 50998, Note_on_c, 0, 62, 52
2, 51000, Note_on_c, 0, 53, 52
2, 51041, Note_on_c, 0, 60, 52
2, 51041, Note_on_c, 0, 68, 52
2, 51048, Note_on_c, 0, 53, 0
2, 51075, Note_on_c, 0, 62, 0
2, 51075, Note_on_c, 0, 60, 0
2, 51075, Note_on_c, 0, 68, 0
2, 51082, Note_on_c, 0, 65, 68
2, 51082, Note_on_c, 0, 74, 68
2, 51112, Note_on_c, 0, 60, 52
2, 51112, Note_on_c, 0, 68, 52
2, 51132, Note_on_c, 0, 65, 0
2, 51144, Note_on_c, 0, 74, 0
2, 51150, Note_on_c, 0, 62, 52
2, 51152, Note_on_c, 0, 53, 52
2, 51170, Note_on_c, 0, 68, 0
2, 51172, Note_on_c, 0, 60, 0
2, 51200, Note_on_c, 0, 62, 0
2, 51200, Control_c, 0, 64, 0
2, 51202, Note_on_c, 0, 53, 0
2, 51209, Note_on_c, 0, 31, 52
2, 51209, Note_on_c, 0, 43, 52
2, 51264, Note_on_c, 0, 51, 99
2, 51264, Note_on_c, 0, 60, 99
2, 51317, Note_on_c, 0, 55, 52
2, 51317, Note_on_c, 0, 67, 52
2, 51324, Note_on_c, 0, 60, 0
2, 51349, Note_on_c, 0, 67, 0
2, 51352, Note_on_c, 0, 55, 0
2, 51352, Control_c, 0, 64, 127
2, 51354, Note_on_c, 0, 31, 0
2, 51354, Note_on_c, 0, 43, 0
2, 51384, Note_on_c, 0, 55, 52
2, 51384, Note_on_c, 0, 67, 52
2, 51417, Note_on_c, 0, 67, 0
2, 51433, Note_on_c, 0, 51, 0
2, 51438, Note_on_c, 0, 63, 52
2, 51438, Note_on_c, 0, 72, 52
2, 51472, Note_on_c, 0, 55, 0
2, 51474, Note_on_c, 0, 79, 52
2, 51477, Note_on_c, 0, 67, 52
2, 51483, Control_c, 0, 64, 0
2, 51495, Note_on_c, 0, 79, 0
2, 51497, Note_on_c, 0, 67, 0
2, 51512, Note_on_c, 0, 72, 0
2, 51512, Note_on_c, 0, 63, 0
2, 51515, Control_c, 0, 64, 127
2, 51530, Note_on_c, 0, 79, 52
2, 51533, Note_on_c, 0, 67, 52
2, 51565, Note_on_c, 0, 79, 0
2, 51567, Control_c, 0, 64, 0
2, 51574, Note_on_c, 0, 84, 52
2, 51576, Note_on_c, 0, 75, 52
2, 51599, Control_c, 0, 64, 127
2, 51615, Note_on_c, 0, 91, 71
2, 51617, Note_on_c, 0, 79, 71
2, 51622, Note_on_c, 0, 84, 0
2, 51624, Note_on_c, 0, 75, 0
2, 51640, Note_on_c, 0, 67, 0
2, 51651, Control_c, 0, 64, 0
2, 51658, Note_on_c, 0, 84, 52
2, 51665, Note_on_c, 0, 79, 0
2, 51673, Note_on_c, 0, 75, 52
2, 51683, Control_c, 0, 64, 127
2, 51700, Note_on_c, 0, 79, 52
2, 51703, Note_on_c, 0, 67, 52
2, 51705, Note_on_c, 0, 91, 0
2, 51721, Note_on_c, 0, 79, 0
2, 51723, Note_on_c, 0, 67, 0
2, 51735, Note_on_c, 0, 84, 0
2, 51737, Note_on_c, 0, 75, 0
2, 51757, Note_on_c, 0, 67, 52
2, 51757, Note_on_c, 0, 79, 52
2, 51798, Note_on_c, 0, 72, 52
2, 51798, Note_on_c, 0, 63, 52
2, 51803, Note_on_c, 0, 67, 0
2, 51830, Note_on_c, 0, 79, 0
2, 51840, Note_on_c, 0, 55, 52
2, 51840, Note_on_c, 0, 67, 52
2, 51846, Note_on_c, 0, 63, 0
2, 51860, Note_on_c, 0, 67, 0
2, 51862, Note_on_c, 0, 55, 0
2, 51875, Note_on_c, 0, 72, 0
2, 51885, Note_on_c, 0, 55, 52
2, 51885, Note_on_c, 0, 67, 52
2, 51912, Note_on_c, 0, 51, 52
2, 51912, Note_on_c, 0, 60, 52
2, 51932, Note_on_c, 0, 67, 0
2, 51957, Note_on_c, 0, 55, 0
2, 51963, Note_on_c, 0, 56, 95
2, 51966, Note_on_c, 0, 43, 95
2, 51970, Note_on_c, 0, 60, 0
2, 51984, Note_on_c, 0, 51, 0
2, 51984, Control_c, 0, 64, 0
2, 52045, Note_on_c, 0, 51, 52
2, 52045, Note_on_c, 0, 60, 52
2, 52073, Note_on_c, 0, 55, 52
2, 52073, Note_on_c, 0, 68, 52
2, 52093, Note_on_c, 0, 68, 0
2, 52093, Note_on_c, 0, 55, 0
2, 52093, Control_c, 0, 64, 127
2, 52104, Note_on_c, 0, 60, 0
2, 52127, Note_on_c, 0, 55, 52
2, 52127, Note_on_c, 0, 68, 52
2, 52133, Note_on_c, 0, 51, 0
2, 52133, Note_on_c, 0, 43, 0
2, 52148, Note_on_c, 0, 56, 0
2, 52168, Note_on_c, 0, 63, 60
2, 52168, Note_on_c, 0, 72, 60
2, 52188, Note_on_c, 0, 68, 0
2, 52201, Note_on_c, 0, 55, 0
2, 52206, Note_on_c, 0, 67, 60
2, 52206, Note_on_c, 0, 80, 60
2, 52226, Note_on_c, 0, 80, 0
2, 52229, Note_on_c, 0, 67, 0
2, 52229, Note_on_c, 0, 63, 0
2, 52240, Note_on_c, 0, 72, 0
2, 52261, Note_on_c, 0, 67, 60
2, 52261, Note_on_c, 0, 80, 60
2, 52288, Note_on_c, 0, 84, 60
2, 52290, Note_on_c, 0, 75, 60
2, 52321, Note_on_c, 0, 80, 0
2, 52329, Note_on_c, 0, 79, 68
2, 52329, Note_on_c, 0, 92, 68
2, 52349, Note_on_c, 0, 75, 0
2, 52349, Note_on_c, 0, 84, 0
2, 52390, Note_on_c, 0, 67, 0
2, 52396, Note_on_c, 0, 75, 52
2, 52396, Note_on_c, 0, 84, 52
2, 52417, Note_on_c, 0, 79, 0
2, 52438, Note_on_c, 0, 67, 52
2, 52438, Note_on_c, 0, 80, 52
2, 52444, Note_on_c, 0, 92, 0
2, 52458, Note_on_c, 0, 67, 0
2, 52458, Note_on_c, 0, 80, 0
2, 52458, Note_on_c, 0, 75, 0
2, 52471, Note_on_c, 0, 84, 0
2, 52492, Note_on_c, 0, 67, 52
2, 52492, Note_on_c, 0, 80, 52
2, 52533, Note_on_c, 0, 72, 52
2, 52535, Note_on_c, 0, 63, 52
2, 52556, Note_on_c, 0, 67, 0
2, 52562, Note_on_c, 0, 55, 52
2, 52574, Note_on_c, 0, 68, 52
2, 52581, Note_on_c, 0, 80, 0
2, 52594, Note_on_c, 0, 55, 0
2, 52594, Note_on_c, 0, 63, 0
2, 52594, Note_on_c, 0, 68, 0
2, 52608, Note_on_c, 0, 72, 0
2, 52628, Note_on_c, 0, 55, 52
2, 52628, Note_on_c, 0, 68, 52
2, 52656, Note_on_c, 0, 51, 52
2, 52656, Note_on_c, 0, 60, 52
2, 52676, Control_c, 0, 64, 0
2, 52703, Note_on_c, 0, 55, 0
2, 52714, Note_on_c, 0, 43, 95
2, 52714, Note_on_c, 0, 56, 95
2, 52719, Note_on_c, 0, 60, 0
2, 52719, Note_on_c, 0, 51, 0
2, 52769, Note_on_c, 0, 50, 52
2, 52769, Note_on_c, 0, 59, 52
2, 52776, Note_on_c, 0, 68, 0
2, 52807, Note_on_c, 0, 53, 52
2, 52819, Note_on_c, 0, 68, 52
2, 52823, Control_c, 0, 64, 127
2, 52829, Note_on_c, 0, 50, 0
2, 52841, Note_on_c, 0, 59, 0
2, 52841, Note_on_c, 0, 43, 0
2, 52841, Note_on_c, 0, 68, 0
2, 52857, Note_on_c, 0, 53, 0
2, 52861, Note_on_c, 0, 55, 52
2, 52875, Note_on_c, 0, 68, 52
2, 52882, Note_on_c, 0, 56, 0
2, 52902, Note_on_c, 0, 62, 52
2, 52902, Note_on_c, 0, 71, 52
2, 52922, Note_on_c, 0, 68, 0
2, 52947, Note_on_c, 0, 65, 52
2, 52952, Note_on_c, 0, 55, 0
2, 52961, Note_on_c, 0, 80, 59
2, 52968, Note_on_c, 0, 62, 0
2, 52979, Note_on_c, 0, 71, 0
2, 52979, Note_on_c, 0, 80, 0
2, 53002, Note_on_c, 0, 67, 64
2, 53009, Note_on_c, 0, 65, 0
2, 53016, Note_on_c, 0, 80, 64
2, 53057, Note_on_c, 0, 74, 64
2, 53057, Note_on_c, 0, 83, 64
2, 53077, Note_on_c, 0, 80, 0
2, 53095, Note_on_c, 0, 77, 68
2, 53095, Note_on_c, 0, 92, 68
2, 53104, Note_on_c, 0, 83, 0
2, 53115, Note_on_c, 0, 74, 0
2, 53142, Note_on_c, 0, 67, 0
2, 53152, Note_on_c, 0, 74, 58
2, 53152, Note_on_c, 0, 83, 58
2, 53159, Note_on_c, 0, 77, 0
2, 53192, Note_on_c, 0, 67, 60
2, 53199, Note_on_c, 0, 92, 0
2, 53206, Note_on_c, 0, 80, 60
2, 53227, Note_on_c, 0, 80, 0
2, 53227, Note_on_c, 0, 83, 0
2, 53242, Note_on_c, 0, 74, 0
2, 53242, Note_on_c, 0, 67, 0
2, 53262, Note_on_c, 0, 65, 60
2, 53262, Note_on_c, 0, 80, 60
2, 53304, Note_on_c, 0, 62, 60
2, 53304, Note_on_c, 0, 71, 60
2, 53337, Note_on_c, 0, 65, 0
2, 53360, Note_on_c, 0, 55, 60
2, 53360, Note_on_c, 0, 68, 60
2, 53367, Note_on_c, 0, 80, 0
2, 53383, Note_on_c, 0, 62, 0
2, 53394, Note_on_c, 0, 68, 0
2, 53394, Note_on_c, 0, 71, 0
2, 53408, Note_on_c, 0, 55, 0
2, 53417, Note_on_c, 0, 53, 60
2, 53432, Note_on_c, 0, 68, 60
2, 53460, Note_on_c, 0, 50, 60
2, 53460, Note_on_c, 0, 59, 60
2, 53480, Note_on_c, 0, 53, 0
2, 53507, Control_c, 0, 64, 0
2, 53521, Note_on_c, 0, 50, 0
2, 53523, Note_on_c, 0, 59, 0
2, 53530, Note_on_c, 0, 55, 85
2, 53532, Note_on_c, 0, 43, 85
2, 53550, Note_on_c, 0, 68, 0
2, 53582, Note_on_c, 0, 50, 60
2, 53582, Note_on_c, 0, 59, 60
2, 53639, Note_on_c, 0, 53, 60
2, 53653, Note_on_c, 0, 67, 60
2, 53655, Control_c, 0, 64, 127
2, 53660, Note_on_c, 0, 50, 0
2, 53662, Note_on_c, 0, 43, 0
2, 53670, Note_on_c, 0, 55, 0
2, 53673, Note_on_c, 0, 59, 0
2, 53673, Note_on_c, 0, 67, 0
2, 53687, Note_on_c, 0, 53, 0
2, 53707, Note_on_c, 0, 55, 60
2, 53707, Note_on_c, 0, 67, 60
2, 53750, Note_on_c, 0, 62, 60
2, 53750, Note_on_c, 0, 71, 60
2, 53770, Note_on_c, 0, 67, 0
2, 53798, Note_on_c, 0, 55, 0
2, 53805, Note_on_c, 0, 65, 60
2, 53805, Note_on_c, 0, 79, 60
2, 53827, Note_on_c, 0, 62, 0
2, 53841, Note_on_c, 0, 79, 0
2, 53852, Note_on_c, 0, 71, 0
2, 53875, Note_on_c, 0, 67, 60
2, 53875, Note_on_c, 0, 79, 60
2, 53883, Note_on_c, 0, 65, 0
2, 53918, Control_c, 0, 64, 0
2, 53931, Note_on_c, 0, 74, 60
2, 53931, Note_on_c, 0, 83, 60
2, 53950, Control_c, 0, 64, 127
2, 53952, Note_on_c, 0, 79, 0
2, 54001, Note_on_c, 0, 77, 95
2, 54001, Note_on_c, 0, 91, 95
2, 54006, Note_on_c, 0, 74, 0
2, 54022, Note_on_c, 0, 83, 0
2, 54070, Note_on_c, 0, 74, 60
2, 54070, Note_on_c, 0, 83, 60
2, 54076, Note_on_c, 0, 77, 0
2, 54076, Note_on_c, 0, 67, 0
2, 54143, Note_on_c, 0, 67, 60
2, 54143, Note_on_c, 0, 79, 60
2, 54146, Note_on_c, 0, 91, 0
2, 54158, Note_on_c, 0, 74, 0
2, 54169, Note_on_c, 0, 79, 0
2, 54171, Note_on_c, 0, 83, 0
2, 54199, Note_on_c, 0, 67, 0
2, 54206, Note_on_c, 0, 65, 60
2, 54206, Note_on_c, 0, 79, 60
2, 54303, Note_on_c, 0, 62, 60
2, 54303, Note_on_c, 0, 71, 60
2, 54310, Note_on_c, 0, 65, 0
2, 54394, Note_on_c, 0, 62, 0
2, 54398, Note_on_c, 0, 55, 60
2, 54401, Note_on_c, 0, 67, 60
2, 54408, Note_on_c, 0, 79, 0
2, 54408, Note_on_c, 0, 71, 0
2, 54459, Note_on_c, 0, 67, 0
2, 54471, Note_on_c, 0, 55, 0
2, 54539, Note_on_c, 0, 50, 67
2, 54539, Note_on_c, 0, 67, 67
2, 54672, Note_on_c, 0, 43, 67
2, 54674, Note_on_c, 0, 59, 67
2, 54679, Note_on_c, 0, 50, 0
2, 54711, Note_on_c, 0, 67, 0
2, 54747, Note_on_c, 0, 43, 0
2, 54749, Note_on_c, 0, 59, 0
2, 54829, Control_c, 0, 64, 0
2, 54906, Note_on_c, 0, 36, 99
2, 54906, Note_on_c, 0, 52, 99
2, 54906, Note_on_c, 0, 55, 99
2, 54906, Note_on_c, 0, 60, 99
2, 54906, Note_on_c, 0, 64, 99
2, 54936, Control_c, 0, 64, 127
2, 55022, Note_on_c, 0, 55, 0
2, 55022, Note_on_c, 0, 36, 0
2, 55062, Note_on_c, 0, 52, 0
2, 55069, Note_on_c, 0, 43, 67
2, 55069, Note_on_c, 0, 55, 67
2, 55076, Note_on_c, 0, 64, 0
2, 55090, Note_on_c, 0, 60, 0
2, 55110, Note_on_c, 0, 48, 67
2, 55124, Note_on_c, 0, 64, 67
2, 55128, Note_on_c, 0, 43, 0
2, 55142, Note_on_c, 0, 64, 0
2, 55142, Note_on_c, 0, 48, 0
2, 55155, Note_on_c, 0, 55, 0
2, 55178, Note_on_c, 0, 48, 67
2, 55178, Note_on_c, 0, 64, 67
2, 55219, Note_on_c, 0, 55, 67
2, 55222, Note_on_c, 0, 67, 67
2, 55239, Note_on_c, 0, 64, 0
2, 55253, Note_on_c, 0, 48, 0
2, 55262, Note_on_c, 0, 76, 67
2, 55273, Note_on_c, 0, 60, 67
2, 55280, Note_on_c, 0, 76, 0
2, 55292, Note_on_c, 0, 60, 0
2, 55292, Note_on_c, 0, 55, 0
2, 55296, Note_on_c, 0, 67, 0
2, 55317, Note_on_c, 0, 60, 64
2, 55317, Note_on_c, 0, 76, 64
2, 55355, Note_on_c, 0, 67, 64
2, 55355, Note_on_c, 0, 79, 64
2, 55375, Note_on_c, 0, 76, 0
2, 55425, Note_on_c, 0, 72, 64
2, 55425, Note_on_c, 0, 88, 64
2, 55430, Note_on_c, 0, 60, 0
2, 55443, Note_on_c, 0, 67, 0
2, 55445, Note_on_c, 0, 79, 0
2, 55445, Note_on_c, 0, 72, 0
2, 55445, Note_on_c, 0, 88, 0
2, 55477, Note_on_c, 0, 72, 64
2, 55480, Note_on_c, 0, 88, 64
2, 55520, Note_on_c, 0, 91, 64
2, 55534, Note_on_c, 0, 79, 64
2, 55540, Note_on_c, 0, 88, 0
2, 55586, Note_on_c, 0, 100, 71
2, 55593, Note_on_c, 0, 79, 0
2, 55593, Note_on_c, 0, 91, 0
2, 55600, Note_on_c, 0, 84, 71
2, 55643, Note_on_c, 0, 79, 64
2, 55643, Note_on_c, 0, 91, 64
2, 55647, Note_on_c, 0, 72, 0
2, 55650, Note_on_c, 0, 84, 0
2, 55677, Note_on_c, 0, 100, 0
2, 55695, Note_on_c, 0, 72, 64
2, 55700, Note_on_c, 0, 88, 64
2, 55718, Note_on_c, 0, 88, 0
2, 55718, Note_on_c, 0, 79, 0
2, 55718, Note_on_c, 0, 91, 0
2, 55718, Note_on_c, 0, 72, 0
2, 55750, Note_on_c, 0, 72, 64
2, 55750, Note_on_c, 0, 88, 64
2, 55776, Note_on_c, 0, 79, 64
2, 55790, Note_on_c, 0, 67, 64
2, 55810, Note_on_c, 0, 72, 0
2, 55822, Note_on_c, 0, 88, 0
2, 55828, Note_on_c, 0, 60, 60
2, 55831, Note_on_c, 0, 76, 60
2, 55851, Note_on_c, 0, 76, 0
2, 55851, Note_on_c, 0, 60, 0
2, 55851, Note_on_c, 0, 79, 0
2, 55865, Note_on_c, 0, 67, 0
2, 55885, Note_on_c, 0, 60, 60
2, 55885, Note_on_c, 0, 76, 60
2, 55926, Note_on_c, 0, 55, 60
2, 55928, Note_on_c, 0, 67, 60
2, 55946, Note_on_c, 0, 60, 0
2, 55965, Note_on_c, 0, 76, 0
2, 55969, Note_on_c, 0, 48, 60
2, 55969, Note_on_c, 0, 64, 60
2, 55988, Note_on_c, 0, 64, 0
2, 55988, Note_on_c, 0, 67, 0
2, 55988, Note_on_c, 0, 55, 0
2, 55988, Note_on_c, 0, 48, 0
2, 56010, Note_on_c, 0, 48, 60
2, 56010, Note_on_c, 0, 64, 76
2, 56046, Note_on_c, 0, 43, 60
2, 56048, Note_on_c, 0, 55, 60
2, 56066, Note_on_c, 0, 48, 0
2, 56069, Note_on_c, 0, 43, 0
2, 56105, Note_on_c, 0, 36, 76
2, 56105, Note_on_c, 0, 40, 76
2, 56105, Note_on_c, 0, 43, 76
2, 56105, Note_on_c, 0, 48, 76
2, 56105, Note_on_c, 0, 52, 76
2, 56110, Note_on_c, 0, 55, 0
2, 56139, Note_on_c, 0, 43, 0
2, 56173, Note_on_c, 0, 43, 60
2, 56173, Note_on_c, 0, 55, 60
2, 56194, Note_on_c, 0, 48, 0
2, 56208, Note_on_c, 0, 52, 0
2, 56232, Note_on_c, 0, 50, 87
2, 56234, Control_c, 0, 64, 0
2, 56236, Note_on_c, 0, 43, 0
2, 56246, Note_on_c, 0, 47, 85
2, 56251, Note_on_c, 0, 55, 0
2, 56293, Note_on_c, 0, 36, 0
2, 56303, Note_on_c, 0, 55, 60
2, 56316, Note_on_c, 0, 43, 64
2, 56323, Note_on_c, 0, 64, 0
2, 56341, Control_c, 0, 64, 127
2, 56357, Note_on_c, 0, 36, 64
2, 56359, Note_on_c, 0, 62, 64
2, 56375, Note_on_c, 0, 43, 0
2, 56377, Note_on_c, 0, 47, 0
2, 56391, Note_on_c, 0, 55, 0
2, 56391, Note_on_c, 0, 50, 0
2, 56427, Note_on_c, 0, 43, 64
2, 56427, Note_on_c, 0, 55, 64
2, 56468, Note_on_c, 0, 50, 60
2, 56468, Note_on_c, 0, 53, 60
2, 56474, Note_on_c, 0, 55, 0
2, 56474, Note_on_c, 0, 43, 0
2, 56484, Control_c, 0, 64, 0
2, 56516, Control_c, 0, 64, 127
2, 56520, Note_on_c, 0, 62, 0
2, 56524, Note_on_c, 0, 43, 64
2, 56524, Note_on_c, 0, 55, 64
2, 56531, Note_on_c, 0, 36, 0
2, 56545, Note_on_c, 0, 40, 0
2, 56568, Note_on_c, 0, 67, 64
2, 56572, Note_on_c, 0, 43, 0
2, 56579, Note_on_c, 0, 36, 64
2, 56602, Note_on_c, 0, 55, 0
2, 56616, Note_on_c, 0, 50, 0
2, 56617, Note_on_c, 0, 53, 0
2, 56636, Note_on_c, 0, 43, 64
2, 56636, Note_on_c, 0, 55, 64
2, 56644, Note_on_c, 0, 67, 0
2, 56669, Note_on_c, 0, 55, 0
2, 56690, Note_on_c, 0, 48, 99
2, 56690, Note_on_c, 0, 64, 76
2, 56694, Control_c, 0, 64, 0
2, 56704, Note_on_c, 0, 52, 99
2, 56704, Note_on_c, 0, 55, 99
2, 56706, Note_on_c, 0, 60, 99
2, 56717, Note_on_c, 0, 40, 99
2, 56767, Note_on_c, 0, 43, 0
2, 56783, Note_on_c, 0, 55, 0
2, 56812, Note_on_c, 0, 64, 0
2, 56817, Note_on_c, 0, 43, 83
2, 56817, Note_on_c, 0, 55, 83
2, 56842, Control_c, 0, 64, 127
2, 56844, Note_on_c, 0, 64, 79
2, 56849, Note_on_c, 0, 43, 0
2, 56862, Note_on_c, 0, 48, 0
2, 56864, Note_on_c, 0, 64, 0
2, 56864, Note_on_c, 0, 52, 0
2, 56879, Note_on_c, 0, 36, 0
2, 56892, Note_on_c, 0, 55, 0
2, 56899, Note_on_c, 0, 48, 70
2, 56901, Note_on_c, 0, 64, 70
2, 56917, Note_on_c, 0, 40, 0
2, 56921, Note_on_c, 0, 60, 0
2, 56926, Note_on_c, 0, 55, 66
2, 56955, Note_on_c, 0, 67, 62
2, 56962, Note_on_c, 0, 64, 0
2, 56985, Note_on_c, 0, 60, 57
2, 56985, Note_on_c, 0, 76, 57
2, 56989, Note_on_c, 0, 48, 0
2, 57007, Note_on_c, 0, 60, 0
2, 57007, Note_on_c, 0, 76, 0
2, 57021, Note_on_c, 0, 67, 0
2, 57027, Note_on_c, 0, 76, 52
2, 57032, Note_on_c, 0, 55, 0
2, 57042, Note_on_c, 0, 60, 52
2, 57069, Note_on_c, 0, 67, 52
2, 57069, Note_on_c, 0, 79, 52
2, 57089, Note_on_c, 0, 76, 0
2, 57109, Note_on_c, 0, 72, 55
2, 57112, Note_on_c, 0, 88, 56
2, 57117, Note_on_c, 0, 60, 0
2, 57130, Note_on_c, 0, 67, 0
2, 57132, Note_on_c, 0, 88, 0
2, 57132, Note_on_c, 0, 72, 0
2, 57145, Note_on_c, 0, 79, 0
2, 57166, Note_on_c, 0, 72, 56
2, 57168, Note_on_c, 0, 88, 56
2, 57193, Note_on_c, 0, 79, 56
2, 57209, Note_on_c, 0, 91, 56
2, 57230, Note_on_c, 0, 88, 0
2, 57243, Note_on_c, 0, 91, 0
2, 57243, Note_on_c, 0, 79, 0
2, 57250, Note_on_c, 0, 84, 71
2, 57252, Note_on_c, 0, 100, 71
2, 57282, Note_on_c, 0, 72, 0
2, 57290, Note_on_c, 0, 79, 52
2, 57290, Note_on_c, 0, 91, 52
2, 57297, Note_on_c, 0, 84, 0
2, 57325, Note_on_c, 0, 100, 0
2, 57330, Note_on_c, 0, 72, 59
2, 57332, Note_on_c, 0, 88, 60
2, 57347, Note_on_c, 0, 79, 0
2, 57350, Note_on_c, 0, 91, 0
2, 57350, Note_on_c, 0, 72, 0
2, 57350, Note_on_c, 0, 88, 0
2, 57370, Note_on_c, 0, 72, 60
2, 57372, Note_on_c, 0, 88, 60
2, 57413, Note_on_c, 0, 79, 60
2, 57425, Note_on_c, 0, 67, 60
2, 57447, Note_on_c, 0, 88, 0
2, 57454, Note_on_c, 0, 76, 60
2, 57460, Note_on_c, 0, 72, 0
2, 57465, Note_on_c, 0, 60, 58
2, 57475, Note_on_c, 0, 76, 0
2, 57485, Note_on_c, 0, 67, 0
2, 57485, Note_on_c, 0, 79, 0
2, 57485, Note_on_c, 0, 60, 0
2, 57504, Note_on_c, 0, 60, 56
2, 57506, Note_on_c, 0, 76, 56
2, 57533, Note_on_c, 0, 67, 56
2, 57558, Note_on_c, 0, 55, 56
2, 57565, Note_on_c, 0, 60, 0
2, 57572, Note_on_c, 0, 48, 56
2, 57575, Note_on_c, 0, 64, 56
2, 57581, Note_on_c, 0, 76, 0
2, 57595, Note_on_c, 0, 64, 0
2, 57603, Note_on_c, 0, 48, 0
2, 57608, Note_on_c, 0, 67, 0
2, 57622, Note_on_c, 0, 55, 0
2, 57628, Note_on_c, 0, 48, 56
2, 57631, Note_on_c, 0, 64, 68
2, 57658, Note_on_c, 0, 55, 56
2, 57672, Note_on_c, 0, 43, 56
2, 57690, Note_on_c, 0, 43, 0
2, 57705, Note_on_c, 0, 48, 0
2, 57723, Note_on_c, 0, 48, 71
2, 57723, Note_on_c, 0, 52, 71
2, 57723, Note_on_c, 0, 36, 71
2, 57723, Note_on_c, 0, 43, 71
2, 57744, Note_on_c, 0, 55, 0
2, 57758, Note_on_c, 0, 43, 0
2, 57794, Note_on_c, 0, 43, 56
2, 57794, Note_on_c, 0, 55, 56
2, 57841, Note_on_c, 0, 52, 0
2, 57846, Note_on_c, 0, 47, 95
2, 57846, Note_on_c, 0, 50, 95
2, 57848, Control_c, 0, 64, 0
2, 57851, Note_on_c, 0, 48, 0
2, 57866, Note_on_c, 0, 43, 0
2, 57880, Note_on_c, 0, 55, 0
2, 57918, Note_on_c, 0, 36, 0
2, 57930, Note_on_c, 0, 43, 64
2, 57930, Note_on_c, 0, 55, 64
2, 57936, Note_on_c, 0, 64, 0
2, 57968, Note_on_c, 0, 62, 64
2, 57973, Note_on_c, 0, 43, 0
2, 57975, Note_on_c, 0, 55, 0
2, 57980, Note_on_c, 0, 36, 64
2, 57996, Control_c, 0, 64, 127
2, 58016, Note_on_c, 0, 47, 0
2, 58023, Note_on_c, 0, 43, 64
2, 58023, Note_on_c, 0, 55, 64
2, 58028, Note_on_c, 0, 50, 0
2, 58050, Note_on_c, 0, 45, 95
2, 58055, Note_on_c, 0, 43, 0
2, 58059, Note_on_c, 0, 62, 0
2, 58064, Note_on_c, 0, 48, 95
2, 58071, Note_on_c, 0, 55, 0
2, 58098, Note_on_c, 0, 36, 0
2, 58104, Note_on_c, 0, 43, 64
2, 58104, Note_on_c, 0, 55, 64
2, 58141, Note_on_c, 0, 36, 83
2, 58156, Note_on_c, 0, 60, 80
2, 58163, Note_on_c, 0, 43, 0
2, 58166, Note_on_c, 0, 55, 0
2, 58193, Note_on_c, 0, 45, 0
2, 58198, Note_on_c, 0, 43, 74
2, 58198, Note_on_c, 0, 55, 74
2, 58206, Note_on_c, 0, 60, 0
2, 58218, Note_on_c, 0, 55, 0
2, 58218, Note_on_c, 0, 36, 0
2, 58229, Note_on_c, 0, 48, 0
2, 58252, Note_on_c, 0, 36, 99
2, 58254, Note_on_c, 0, 50, 99
2, 58254, Note_on_c, 0, 55, 99
2, 58266, Note_on_c, 0, 47, 99
2, 58268, Note_on_c, 0, 62, 99
2, 58286, Control_c, 0, 64, 0
2, 58313, Note_on_c, 0, 55, 0
2, 58313, Note_on_c, 0, 43, 0
2, 58326, Note_on_c, 0, 36, 0
2, 58344, Control_c, 0, 64, 127
2, 58361, Note_on_c, 0, 43, 80
2, 58361, Note_on_c, 0, 55, 80
2, 58408, Note_on_c, 0, 62, 0
2, 58422, Note_on_c, 0, 47, 0
2, 58429, Note_on_c, 0, 48, 70
2, 58444, Note_on_c, 0, 62, 56
2, 58449, Note_on_c, 0, 43, 0
2, 58449, Note_on_c, 0, 50, 0
2, 58451, Note_on_c, 0, 55, 0
2, 58486, Note_on_c, 0, 55, 60
2, 58488, Note_on_c, 0, 67, 60
2, 58508, Note_on_c, 0, 62, 0
2, 58522, Note_on_c, 0, 48, 0
2, 58531, Note_on_c, 0, 59, 60
2, 58531, Note_on_c, 0, 74, 60
2, 58551, Note_on_c, 0, 55, 0
2, 58554, Note_on_c, 0, 67, 0
2, 58554, Note_on_c, 0, 59, 0
2, 58587, Note_on_c, 0, 60, 60
2, 58614, Note_on_c, 0, 67, 60
2, 58614, Note_on_c, 0, 79, 60
2, 58621, Note_on_c, 0, 74, 0
2, 58651, Note_on_c, 0, 60, 0
2, 58671, Note_on_c, 0, 71, 60
2, 58674, Note_on_c, 0, 86, 60
2, 58676, Note_on_c, 0, 67, 0
2, 58678, Note_on_c, 0, 79, 0
2, 58694, Note_on_c, 0, 86, 0
2, 58714, Note_on_c, 0, 72, 60
2, 58714, Note_on_c, 0, 86, 60
2, 58719, Note_on_c, 0, 71, 0
2, 58755, Note_on_c, 0, 79, 60
2, 58757, Note_on_c, 0, 91, 60
2, 58796, Note_on_c, 0, 83, 71
2, 58799, Note_on_c, 0, 98, 71
2, 58802, Note_on_c, 0, 91, 0
2, 58802, Note_on_c, 0, 79, 0
2, 58805, Note_on_c, 0, 86, 0
2, 58837, Note_on_c, 0, 79, 56
2, 58837, Note_on_c, 0, 91, 56
2, 58844, Note_on_c, 0, 72, 0
2, 58846, Note_on_c, 0, 83, 0
2, 58873, Note_on_c, 0, 98, 0
2, 58877, Note_on_c, 0, 72, 52
2, 58880, Note_on_c, 0, 86, 52
2, 58902, Note_on_c, 0, 86, 0
2, 58902, Note_on_c, 0, 79, 0
2, 58902, Note_on_c, 0, 91, 0
2, 58937, Note_on_c, 0, 71, 52
2, 58939, Note_on_c, 0, 86, 52
2, 58944, Note_on_c, 0, 72, 0
2, 58980, Note_on_c, 0, 67, 52
2, 58982, Note_on_c, 0, 79, 52
2, 58989, Note_on_c, 0, 71, 0
2, 59016, Note_on_c, 0, 86, 0
2, 59020, Note_on_c, 0, 60, 52
2, 59020, Note_on_c, 0, 74, 52
2, 59043, Note_on_c, 0, 67, 0
2, 59043, Note_on_c, 0, 79, 0
2, 59070, Note_on_c, 0, 60, 0
2, 59077, Note_on_c, 0, 59, 52
2, 59102, Note_on_c, 0, 55, 52
2, 59104, Note_on_c, 0, 67, 52
2, 59125, Note_on_c, 0, 59, 0
2, 59140, Note_on_c, 0, 74, 0
2, 59145, Note_on_c, 0, 48, 56
2, 59147, Note_on_c, 0, 62, 56
2, 59154, Note_on_c, 0, 67, 0
2, 59168, Note_on_c, 0, 62, 0
2, 59179, Note_on_c, 0, 55, 0
2, 59188, Note_on_c, 0, 62, 56
2, 59200, Note_on_c, 0, 47, 56
2, 59207, Note_on_c, 0, 48, 0
2, 59229, Note_on_c, 0, 55, 56
2, 59235, Note_on_c, 0, 47, 0
2, 59254, Note_on_c, 0, 43, 56
2, 59274, Note_on_c, 0, 43, 0
2, 59292, Note_on_c, 0, 47, 99
2, 59292, Note_on_c, 0, 50, 99
2, 59292, Note_on_c, 0, 36, 99
2, 59292, Note_on_c, 0, 43, 99
2, 59302, Note_on_c, 0, 55, 0
2, 59313, Note_on_c, 0, 43, 0
2, 59345, Note_on_c, 0, 43, 56
2, 59347, Note_on_c, 0, 55, 56
2, 59365, Note_on_c, 0, 50, 0
2, 59365, Note_on_c, 0, 47, 0
2, 59380, Note_on_c, 0, 62, 0
2, 59392, Note_on_c, 0, 43, 0
2, 59401, Note_on_c, 0, 45, 89
2, 59401, Note_on_c, 0, 48, 89
2, 59403, Control_c, 0, 64, 0
2, 59447, Note_on_c, 0, 36, 0
2, 59455, Note_on_c, 0, 41, 56
2, 59455, Note_on_c, 0, 53, 56
2, 59490, Note_on_c, 0, 41, 0
2, 59492, Note_on_c, 0, 53, 0
2, 59496, Note_on_c, 0, 36, 56
2, 59496, Note_on_c, 0, 60, 56
2, 59520, Note_on_c, 0, 55, 0
2, 59533, Note_on_c, 0, 45, 0
2, 59542, Note_on_c, 0, 41, 60
2, 59542, Note_on_c, 0, 53, 60
2, 59546, Note_on_c, 0, 48, 0
2, 59558, Control_c, 0, 64, 127
2, 59590, Note_on_c, 0, 41, 0
2, 59598, Note_on_c, 0, 45, 81
2, 59598, Note_on_c, 0, 48, 81
2, 59605, Note_on_c, 0, 53, 0
2, 59630, Note_on_c, 0, 36, 0
2, 59653, Note_on_c, 0, 41, 60
2, 59653, Note_on_c, 0, 53, 60
2, 59678, Note_on_c, 0, 36, 60
2, 59680, Note_on_c, 0, 57, 60
2, 59693, Control_c, 0, 64, 0
2, 59698, Note_on_c, 0, 41, 0
2, 59700, Note_on_c, 0, 53, 0
2, 59700, Note_on_c, 0, 45, 0
2, 59725, Note_on_c, 0, 48, 0
2, 59725, Note_on_c, 0, 36, 0
2, 59732, Note_on_c, 0, 41, 60
2, 59732, Note_on_c, 0, 53, 60
2, 59739, Note_on_c, 0, 60, 0
2, 59755, Note_on_c, 0, 57, 0
2, 59773, Note_on_c, 0, 32, 85
2, 59775, Note_on_c, 0, 44, 85
2, 59782, Note_on_c, 0, 41, 0
2, 59782, Note_on_c, 0, 53, 0
2, 59788, Note_on_c, 0, 60, 85
2, 59788, Note_on_c, 0, 48, 85
2, 59805, Control_c, 0, 64, 127
2, 59848, Note_on_c, 0, 60, 0
2, 59856, Note_on_c, 0, 53, 60
2, 59861, Note_on_c, 0, 48, 0
2, 59875, Note_on_c, 0, 32, 0
2, 59913, Note_on_c, 0, 48, 64
2, 59913, Note_on_c, 0, 60, 64
2, 59918, Note_on_c, 0, 44, 0
2, 59934, Note_on_c, 0, 53, 0
2, 59934, Note_on_c, 0, 48, 0
2, 59934, Note_on_c, 0, 60, 0
2, 59952, Note_on_c, 0, 48, 64
2, 59954, Note_on_c, 0, 60, 64
2, 59981, Note_on_c, 0, 65, 64
2, 59986, Note_on_c, 0, 60, 0
2, 59995, Note_on_c, 0, 56, 64
2, 60013, Note_on_c, 0, 48, 0
2, 60023, Note_on_c, 0, 72, 62
2, 60041, Note_on_c, 0, 60, 59
2, 60045, Note_on_c, 0, 56, 0
2, 60048, Note_on_c, 0, 72, 0
2, 60061, Note_on_c, 0, 65, 0
2, 60061, Note_on_c, 0, 60, 0
2, 60083, Note_on_c, 0, 60, 56
2, 60083, Note_on_c, 0, 72, 56
2, 60124, Note_on_c, 0, 68, 56
2, 60124, Note_on_c, 0, 77, 56
2, 60129, Note_on_c, 0, 72, 0
2, 60154, Note_on_c, 0, 60, 0
2, 60161, Note_on_c, 0, 72, 56
2, 60163, Note_on_c, 0, 84, 56
2, 60181, Note_on_c, 0, 72, 0
2, 60181, Note_on_c, 0, 68, 0
2, 60183, Note_on_c, 0, 77, 0
2, 60183, Note_on_c, 0, 84, 0
2, 60215, Note_on_c, 0, 72, 56
2, 60215, Note_on_c, 0, 84, 56
2, 60261, Note_on_c, 0, 80, 56
2, 60261, Note_on_c, 0, 89, 56
2, 60267, Note_on_c, 0, 84, 0
2, 60301, Note_on_c, 0, 84, 68
2, 60301, Note_on_c, 0, 96, 68
2, 60306, Note_on_c, 0, 80, 0
2, 60308, Note_on_c, 0, 89, 0
2, 60311, Control_c, 0, 64, 0
2, 60333, Note_on_c, 0, 72, 0
2, 60339, Note_on_c, 0, 89, 56
2, 60342, Control_c, 0, 64, 127
2, 60349, Note_on_c, 0, 84, 0
2, 60356, Note_on_c, 0, 80, 56
2, 60376, Note_on_c, 0, 96, 0
2, 60383, Note_on_c, 0, 72, 56
2, 60383, Note_on_c, 0, 84, 56
2, 60387, Note_on_c, 0, 80, 0
2, 60389, Note_on_c, 0, 89, 0
2, 60401, Note_on_c, 0, 72, 0
2, 60403, Note_on_c, 0, 84, 0
2, 60426, Note_on_c, 0, 72, 52
2, 60426, Note_on_c, 0, 84, 52
2, 60467, Note_on_c, 0, 68, 52
2, 60467, Note_on_c, 0, 77, 52
2, 60474, Note_on_c, 0, 72, 0
2, 60501, Note_on_c, 0, 84, 0
2, 60505, Note_on_c, 0, 60, 52
2, 60505, Note_on_c, 0, 72, 52
2, 60526, Note_on_c, 0, 60, 0
2, 60528, Note_on_c, 0, 72, 0
2, 60544, Note_on_c, 0, 68, 0
2, 60544, Note_on_c, 0, 77, 0
2, 60549, Note_on_c, 0, 72, 41
2, 60562, Note_on_c, 0, 60, 43
2, 60596, Note_on_c, 0, 60, 0
2, 60602, Note_on_c, 0, 56, 44
2, 60602, Note_on_c, 0, 65, 44
2, 60630, Note_on_c, 0, 48, 44
2, 60630, Note_on_c, 0, 60, 44
2, 60639, Note_on_c, 0, 72, 0
2, 60650, Note_on_c, 0, 48, 0
2, 60650, Note_on_c, 0, 56, 0
2, 60650, Note_on_c, 0, 60, 0
2, 60666, Note_on_c, 0, 65, 0
2, 60675, Note_on_c, 0, 48, 99
2, 60675, Note_on_c, 0, 60, 99
2, 60727, Note_on_c, 0, 44, 60
2, 60727, Note_on_c, 0, 53, 60
2, 60734, Note_on_c, 0, 48, 0
2, 60761, Note_on_c, 0, 44, 0
2, 60768, Note_on_c, 0, 36, 60
2, 60768, Note_on_c, 0, 48, 60
2, 60775, Note_on_c, 0, 53, 0
2, 60800, Note_on_c, 0, 36, 0
2, 60825, Note_on_c, 0, 44, 60
2, 60825, Note_on_c, 0, 53, 60
2, 60829, Note_on_c, 0, 48, 0
2, 60852, Control_c, 0, 64, 0
2, 60870, Note_on_c, 0, 53, 0
2, 60870, Note_on_c, 0, 44, 0
2, 60875, Note_on_c, 0, 36, 99
2, 60875, Note_on_c, 0, 48, 99
2, 60924, Note_on_c, 0, 60, 0
2, 60934, Note_on_c, 0, 53, 60
2, 60938, Note_on_c, 0, 48, 0
2, 60945, Note_on_c, 0, 44, 60
2, 60963, Control_c, 0, 64, 127
2, 60984, Note_on_c, 0, 48, 60
2, 60985, Note_on_c, 0, 60, 60
2, 60990, Note_on_c, 0, 44, 0
2, 60992, Note_on_c, 0, 53, 0
2, 61031, Note_on_c, 0, 36, 0
2, 61031, Note_on_c, 0, 48, 0
2, 61038, Note_on_c, 0, 44, 60
2, 61038, Note_on_c, 0, 53, 60
2, 61079, Note_on_c, 0, 36, 93
2, 61080, Note_on_c, 0, 48, 92
2, 61088, Note_on_c, 0, 53, 0
2, 61088, Note_on_c, 0, 44, 0
2, 61135, Note_on_c, 0, 44, 60
2, 61135, Note_on_c, 0, 53, 60
2, 61140, Note_on_c, 0, 48, 0
2, 61167, Note_on_c, 0, 60, 0
2, 61167, Note_on_c, 0, 36, 0
2, 61183, Note_on_c, 0, 44, 0
2, 61183, Note_on_c, 0, 53, 0
2, 61190, Note_on_c, 0, 48, 60
2, 61192, Note_on_c, 0, 62, 60
2, 61215, Note_on_c, 0, 53, 60
2, 61230, Note_on_c, 0, 44, 60
2, 61235, Note_on_c, 0, 48, 0
2, 61265, Note_on_c, 0, 62, 0
2, 61283, Note_on_c, 0, 48, 95
2, 61283, Note_on_c, 0, 60, 95
2, 61283, Note_on_c, 0, 36, 95
2, 61290, Note_on_c, 0, 53, 0
2, 61303, Note_on_c, 0, 44, 0
2, 61348, Note_on_c, 0, 44, 60
2, 61348, Note_on_c, 0, 53, 60
2, 61357, Note_on_c, 0, 60, 0
2, 61380, Note_on_c, 0, 48, 0
2, 61396, Note_on_c, 0, 53, 0
2, 61396, Note_on_c, 0, 44, 0
2, 61423, Note_on_c, 0, 36, 0
2, 61430, Note_on_c, 0, 48, 60
2, 61446, Note_on_c, 0, 60, 60
2, 61473, Note_on_c, 0, 56, 60
2, 61482, Note_on_c, 0, 60, 0
2, 61487, Note_on_c, 0, 65, 60
2, 61493, Note_on_c, 0, 48, 0
2, 61513, Note_on_c, 0, 60, 60
2, 61516, Note_on_c, 0, 72, 60
2, 61535, Note_on_c, 0, 60, 0
2, 61535, Note_on_c, 0, 56, 0
2, 61553, Note_on_c, 0, 72, 0
2, 61563, Note_on_c, 0, 65, 0
2, 61570, Note_on_c, 0, 60, 60
2, 61588, Note_on_c, 0, 72, 60
2, 61616, Note_on_c, 0, 68, 60
2, 61625, Note_on_c, 0, 72, 0
2, 61634, Note_on_c, 0, 77, 60
2, 61652, Note_on_c, 0, 60, 0
2, 61659, Note_on_c, 0, 72, 60
2, 61659, Note_on_c, 0, 84, 60
2, 61681, Note_on_c, 0, 72, 0
2, 61684, Note_on_c, 0, 84, 0
2, 61695, Note_on_c, 0, 77, 0
2, 61695, Note_on_c, 0, 68, 0
2, 61718, Note_on_c, 0, 72, 60
2, 61718, Note_on_c, 0, 84, 60
2, 61761, Note_on_c, 0, 80, 60
2, 61768, Note_on_c, 0, 84, 0
2, 61773, Note_on_c, 0, 89, 60
2, 61804, Note_on_c, 0, 84, 76
2, 61804, Note_on_c, 0, 96, 76
2, 61823, Note_on_c, 0, 80, 0
2, 61824, Note_on_c, 0, 89, 0
2, 61851, Note_on_c, 0, 72, 0
2, 61851, Note_on_c, 0, 84, 0
2, 61858, Note_on_c, 0, 80, 60
2, 61858, Note_on_c, 0, 89, 60
2, 61879, Note_on_c, 0, 96, 0
2, 61899, Note_on_c, 0, 72, 60
2, 61901, Note_on_c, 0, 84, 60
2, 61921, Note_on_c, 0, 84, 0
2, 61921, Note_on_c, 0, 72, 0
2, 61921, Note_on_c, 0, 80, 0
2, 61924, Note_on_c, 0, 89, 0
2, 61940, Note_on_c, 0, 72, 60
2, 61940, Note_on_c, 0, 84, 60
2, 61988, Note_on_c, 0, 72, 0
2, 61994, Note_on_c, 0, 68, 60
2, 61994, Note_on_c, 0, 77, 60
2, 62026, Note_on_c, 0, 72, 60
2, 62033, Note_on_c, 0, 84, 0
2, 62038, Note_on_c, 0, 60, 60
2, 62046, Note_on_c, 0, 72, 0
2, 62058, Note_on_c, 0, 68, 0
2, 62058, Note_on_c, 0, 60, 0
2, 62060, Note_on_c, 0, 77, 0
2, 62067, Note_on_c, 0, 72, 60
2, 62081, Note_on_c, 0, 60, 60
2, 62121, Note_on_c, 0, 56, 60
2, 62121, Note_on_c, 0, 65, 60
2, 62141, Note_on_c, 0, 60, 0
2, 62174, Note_on_c, 0, 72, 0
2, 62178, Note_on_c, 0, 48, 60
2, 62178, Note_on_c, 0, 60, 60
2, 62187, Note_on_c, 0, 56, 0
2, 62199, Note_on_c, 0, 48, 0
2, 62201, Note_on_c, 0, 65, 0
2, 62201, Note_on_c, 0, 60, 0
2, 62221, Note_on_c, 0, 48, 85
2, 62221, Note_on_c, 0, 60, 85
2, 62262, Note_on_c, 0, 44, 60
2, 62262, Note_on_c, 0, 53, 60
2, 62280, Note_on_c, 0, 48, 0
2, 62314, Note_on_c, 0, 36, 60
2, 62316, Note_on_c, 0, 48, 60
2, 62321, Note_on_c, 0, 44, 0
2, 62323, Note_on_c, 0, 53, 0
2, 62369, Note_on_c, 0, 44, 60
2, 62369, Note_on_c, 0, 53, 60
2, 62376, Note_on_c, 0, 48, 0
2, 62391, Note_on_c, 0, 36, 0
2, 62400, Control_c, 0, 64, 0
2, 62419, Note_on_c, 0, 44, 0
2, 62425, Note_on_c, 0, 48, 99
2, 62432, Note_on_c, 0, 53, 0
2, 62441, Note_on_c, 0, 36, 99
2, 62509, Note_on_c, 0, 44, 60
2, 62509, Note_on_c, 0, 53, 60
2, 62529, Note_on_c, 0, 48, 0
2, 62529, Note_on_c, 0, 60, 0
2, 62554, Control_c, 0, 64, 127
2, 62570, Note_on_c, 0, 53, 0
2, 62574, Note_on_c, 0, 48, 99
2, 62574, Note_on_c, 0, 60, 99
2, 62595, Note_on_c, 0, 44, 0
2, 62627, Note_on_c, 0, 53, 60
2, 62640, Note_on_c, 0, 44, 60
2, 62659, Note_on_c, 0, 36, 0
2, 62659, Note_on_c, 0, 48, 0
2, 62684, Control_c, 0, 64, 0
2, 62686, Note_on_c, 0, 44, 0
2, 62702, Note_on_c, 0, 53, 0
2, 62706, Note_on_c, 0, 36, 99
2, 62706, Note_on_c, 0, 48, 99
2, 62779, Note_on_c, 0, 44, 60
2, 62779, Note_on_c, 0, 53, 60
2, 62784, Note_on_c, 0, 48, 0
2, 62784, Note_on_c, 0, 60, 0
2, 62795, Control_c, 0, 64, 127
2, 62840, Note_on_c, 0, 53, 0
2, 62860, Note_on_c, 0, 48, 99
2, 62862, Note_on_c, 0, 56, 99
2, 62862, Note_on_c, 0, 62, 99
2, 62912, Note_on_c, 0, 44, 0
2, 62955, Note_on_c, 0, 53, 60
2, 62960, Note_on_c, 0, 44, 60
2, 62978, Note_on_c, 0, 48, 0
2, 62992, Note_on_c, 0, 36, 0
2, 63005, Note_on_c, 0, 44, 0
2, 63019, Note_on_c, 0, 56, 0
2, 63037, Note_on_c, 0, 36, 63
2, 63047, Note_on_c, 0, 53, 0
2, 63053, Note_on_c, 0, 52, 86
2, 63057, Control_c, 0, 64, 0
2, 63130, Note_on_c, 0, 62, 0
2, 63135, Note_on_c, 0, 43, 60
2, 63135, Note_on_c, 0, 55, 60
2, 63207, Note_on_c, 0, 60, 60
2, 63207, Note_on_c, 0, 64, 99
2, 63207, Note_on_c, 0, 48, 60
2, 63212, Control_c, 0, 64, 127
2, 63214, Note_on_c, 0, 55, 0
2, 63214, Note_on_c, 0, 43, 0
2, 63214, Note_on_c, 0, 52, 0
2, 63262, Note_on_c, 0, 43, 60
2, 63262, Note_on_c, 0, 55, 60
2, 63282, Note_on_c, 0, 48, 0
2, 63310, Note_on_c, 0, 43, 0
2, 63310, Note_on_c, 0, 36, 0
2, 63316, Note_on_c, 0, 52, 99
2, 63318, Note_on_c, 0, 31, 99
2, 63325, Note_on_c, 0, 55, 0
2, 63368, Note_on_c, 0, 64, 0
2, 63368, Note_on_c, 0, 60, 0
2, 63375, Note_on_c, 0, 43, 60
2, 63375, Note_on_c, 0, 55, 60
2, 63382, Note_on_c, 0, 52, 0
2, 63416, Note_on_c, 0, 60, 60
2, 63416, Note_on_c, 0, 64, 60
2, 63416, Note_on_c, 0, 48, 60
2, 63420, Note_on_c, 0, 43, 0
2, 63423, Note_on_c, 0, 55, 0
2, 63438, Note_on_c, 0, 31, 0
2, 63458, Note_on_c, 0, 43, 60
2, 63458, Note_on_c, 0, 55, 60
2, 63508, Note_on_c, 0, 52, 60
2, 63515, Note_on_c, 0, 43, 0
2, 63518, Note_on_c, 0, 55, 0
2, 63518, Note_on_c, 0, 48, 0
2, 63523, Note_on_c, 0, 36, 85
2, 63568, Note_on_c, 0, 43, 60
2, 63568, Note_on_c, 0, 55, 60
2, 63572, Note_on_c, 0, 60, 0
2, 63572, Note_on_c, 0, 64, 0
2, 63575, Note_on_c, 0, 52, 0
2, 63608, Note_on_c, 0, 55, 0
2, 63611, Note_on_c, 0, 43, 0
2, 63620, Note_on_c, 0, 60, 60
2, 63620, Note_on_c, 0, 64, 60
2, 63620, Note_on_c, 0, 48, 60
2, 63661, Note_on_c, 0, 43, 60
2, 63661, Note_on_c, 0, 55, 60
2, 63678, Note_on_c, 0, 48, 0
2, 63690, Note_on_c, 0, 36, 0
2, 63708, Note_on_c, 0, 43, 0
2, 63715, Note_on_c, 0, 31, 85
2, 63715, Note_on_c, 0, 52, 85
2, 63721, Note_on_c, 0, 55, 0
2, 63760, Note_on_c, 0, 60, 0
2, 63771, Note_on_c, 0, 43, 60
2, 63776, Note_on_c, 0, 52, 0
2, 63776, Note_on_c, 0, 64, 0
2, 63783, Note_on_c, 0, 55, 60
2, 63790, Note_on_c, 0, 31, 0
2, 63815, Note_on_c, 0, 55, 0
2, 63815, Note_on_c, 0, 43, 0
2, 63824, Note_on_c, 0, 60, 60
2, 63826, Note_on_c, 0, 48, 60
2, 63826, Note_on_c, 0, 64, 60
2, 63866, Note_on_c, 0, 43, 60
2, 63866, Note_on_c, 0, 55, 60
2, 63901, Note_on_c, 0, 43, 0
2, 63901, Note_on_c, 0, 48, 0
2, 63919, Note_on_c, 0, 36, 85
2, 63919, Note_on_c, 0, 52, 85
2, 63928, Note_on_c, 0, 55, 0
2, 63966, Note_on_c, 0, 52, 0
2, 63976, Note_on_c, 0, 55, 60
2, 63983, Note_on_c, 0, 60, 0
2, 63983, Note_on_c, 0, 64, 0
2, 63991, Note_on_c, 0, 43, 60
2, 64021, Note_on_c, 0, 43, 0
2, 64023, Note_on_c, 0, 55, 0
2, 64030, Note_on_c, 0, 60, 60
2, 64030, Note_on_c, 0, 64, 60
2, 64030, Note_on_c, 0, 48, 60
2, 64082, Note_on_c, 0, 43, 60
2, 64082, Note_on_c, 0, 55, 60
2, 64103, Note_on_c, 0, 48, 0
2, 64103, Note_on_c, 0, 36, 0
2, 64114, Note_on_c, 0, 43, 0
2, 64136, Note_on_c, 0, 31, 85
2, 64146, Note_on_c, 0, 52, 85
2, 64168, Note_on_c, 0, 55, 0
2, 64196, Note_on_c, 0, 64, 0
2, 64196, Note_on_c, 0, 52, 0
2, 64196, Note_on_c, 0, 60, 0
2, 64202, Note_on_c, 0, 55, 74
2, 64204, Note_on_c, 0, 43, 74
2, 64211, Note_on_c, 0, 31, 0
2, 64261, Note_on_c, 0, 60, 67
2, 64261, Note_on_c, 0, 64, 67
2, 64266, Note_on_c, 0, 55, 0
2, 64274, Note_on_c, 0, 48, 67
2, 64279, Note_on_c, 0, 43, 0
2, 64316, Note_on_c, 0, 55, 67
2, 64329, Note_on_c, 0, 43, 67
2, 64336, Note_on_c, 0, 48, 0
2, 64377, Note_on_c, 0, 43, 0
2, 64391, Note_on_c, 0, 55, 0
2, 64397, Note_on_c, 0, 36, 99
2, 64397, Note_on_c, 0, 52, 99
2, 64445, Note_on_c, 0, 52, 0
2, 64452, Note_on_c, 0, 55, 67
2, 64461, Note_on_c, 0, 64, 0
2, 64461, Note_on_c, 0, 60, 0
2, 64467, Note_on_c, 0, 43, 67
2, 64531, Note_on_c, 0, 43, 0
2, 64537, Note_on_c, 0, 60, 67
2, 64537, Note_on_c, 0, 64, 67
2, 64537, Note_on_c, 0, 48, 67
2, 64559, Note_on_c, 0, 55, 0
2, 64608, Note_on_c, 0, 43, 67
2, 64608, Note_on_c, 0, 55, 67
2, 64642, Note_on_c, 0, 48, 0
2, 64672, Note_on_c, 0, 43, 0
2, 64672, Note_on_c, 0, 36, 0
2, 64705, Note_on_c, 0, 31, 99
2, 64705, Note_on_c, 0, 52, 99
2, 64726, Note_on_c, 0, 55, 0
2, 64769, Note_on_c, 0, 52, 0
2, 64782, Note_on_c, 0, 31, 0
2, 64787, Note_on_c, 0, 43, 88
2, 64794, Note_on_c, 0, 64, 0
2, 64794, Note_on_c, 0, 60, 0
2, 64799, Note_on_c, 0, 55, 88
2, 64885, Note_on_c, 0, 60, 88
2, 64885, Note_on_c, 0, 64, 88
2, 64885, Note_on_c, 0, 48, 88
2, 64892, Note_on_c, 0, 43, 0
2, 64907, Note_on_c, 0, 55, 0
2, 64967, Note_on_c, 0, 48, 0
2, 65000, Note_on_c, 0, 43, 88
2, 65000, Note_on_c, 0, 55, 88
2, 65109, Note_on_c, 0, 43, 0
2, 65123, Note_on_c, 0, 55, 0
2, 65157, Note_on_c, 0, 52, 99
2, 65157, Note_on_c, 0, 55, 99
2, 65159, Note_on_c, 0, 36, 99
2, 65163, Control_c, 0, 64, 0
2, 65390, Control_c, 0, 64, 127
2, 65515, Note_on_c, 0, 52, 0
2, 65526, Control_c, 0, 64, 0
2, 65542, Note_on_c, 0, 60, 0
2, 65544, Note_on_c, 0, 36, 0
2, 65558, Note_on_c, 0, 55, 0
2, 65558, Note_on_c, 0, 64, 0
2, 65560, Control_c, 0, 64, 127
2, 65571, Control_c, 0, 64, 0
2, 65603, Control_c, 0, 64, 127
2, 65868, Note_on_c, 0, 72, 99
2, 65868, Note_on_c, 0, 76, 99
2, 65868, Note_on_c, 0, 64, 99
2, 65868, Note_on_c, 0, 67, 99
2, 65871, Note_on_c, 0, 55, 99
2, 65871, Note_on_c, 0, 60, 99
2, 65871, Note_on_c, 0, 48, 99
2, 65871, Note_on_c, 0, 52, 99
2, 65929, Note_on_c, 0, 52, 0
2, 65929, Note_on_c, 0, 60, 0
2, 65929, Note_on_c, 0, 64, 0
2, 65929, Note_on_c, 0, 67, 0
2, 65941, Control_c, 0, 64, 0
2, 65943, Note_on_c, 0, 55, 0
2, 65943, Note_on_c, 0, 48, 0
2, 65954, Note_on_c, 0, 76, 0
2, 65954, Note_on_c, 0, 72, 0
2, 65973, Control_c, 0, 64, 127
2, 66031, Control_c, 0, 64, 0
2, 66064, Control_c, 0, 64, 127
2, 66326, Control_c, 0, 64, 0
2, 66358, Control_c, 0, 64, 127
2, 66451, Control_c, 0, 64, 0
2, 66482, Control_c, 0, 64, 127
2, 66600, Control_c, 0, 64, 0
2, 66632, Control_c, 0, 64, 127
2, 66684, Control_c, 0, 64, 0
2, 66717, Control_c, 0, 64, 127
2, 66848, Control_c, 0, 64, 0
2, 66880, Control_c, 0, 64, 127
2, 66927, Control_c, 0, 64, 0
2, 66959, Control_c, 0, 64, 127
2, 67007, Control_c, 0, 64, 0
2, 67038, Control_c, 0, 64, 127
2, 67133, Control_c, 0, 64, 0
2, 67133, End_track
3, 0, Start_track
3, 0, Title_t, ""
3, 0, End_track
4, 0, Start_track
4, 0, Title_t, ""
4, 0, End_track
5, 0, Start_track
5, 0, Title_t, ""
5, 0, End_track
6, 0, Start_track
6, 0, Title_t, "Scan of a player piano roll"
6, 0, End_track
7, 0, Start_track
7, 0, Title_t, "by Terry Smythe, Winnipeg, Canada"
7, 0, End_track
8, 0, Start_track
8, 1, Copyright_t, "\012__________________________________________________________\012Kunst der Fuge comment: this is the Contributor's property.\012Can *not* be used for commercial purposes without authorization!\012Copyright by Contributor - Kunst der Fuge,  2002-05\012http://www.kunstderfuge.com/thanks.htm -> Contributors' list\012http://www.kunstderfuge.com/notes.htm -> Terms & conditions"
8, 1, End_track
0, 0, End_of_file
