0, 0, Header, 1, 8, 192
1, 0, Start_track
1, 0, Title_t, "Etude in E Flat Minor"
1, 0, Copyright_t, "May NOT be used for commercial purposes."
1, 0, Text_t, "\012"
1, 0, Text_t, "Roll expression/accent tracks, where present, converted to MIDI velocties.\012"
1, 0, Text_t, "/music_category: Piano_Roll\012"
1, 0, Text_t, "/title: Etude in E Flat Minor\012"
1, 0, Text_t, "/subtitle: Opus 10 No 6\012"
1, 0, Text_t, "/roll_type: Duo-Art\012"
1, 0, Text_t, "/roll_manufacturer: QRS\012"
1, 0, Text_t, "/roll_number: 7287-2 (QRS 1016)\012"
1, 0, Text_t, "/performer: Vladimir Horowitz\012"
1, 0, Text_t, "/composer: Chopin\012"
1, 0, Text_t, "/lyricist: \012"
1, 0, Text_t, "/roll_copyright: \012"
1, 0, Text_t, "/roll_date: \012"
1, 0, Text_t, "/scanned_by: Terry Smythe\012"
1, 0, Text_t, "/scan_system: Stibbons Mk3a\012"
1, 0, Text_t, "/date_scanned: 20 Oct 04\012"
1, 0, Text_t, "/owner: Milton Schenk\012"
1, 0, Time_signature, 4, 2, 24, 8
1, 0, Key_signature, 0, "major"
1, 0, Tempo, 500000
1, 0, Marker_t, "Standard MIDI:Duo-Art:LPI 117:Tempo  70: 10-20-2004"
1, 0, End_track
2, 0, Start_track
2, 0, Title_t, "Etude in E Flat Minor"
2, 0, Program_c, 0, 0
2, 3, Control_c, 0, 64, 127
2, 23, Control_c, 0, 64, 0
2, 187, Control_c, 0, 67, 127
2, 369, Note_on_c, 0, 66, 39
2, 501, Control_c, 0, 64, 127
2, 733, Note_on_c, 0, 66, 0
2, 913, Note_on_c, 0, 66, 44
2, 925, Note_on_c, 0, 58, 33
2, 925, Note_on_c, 0, 51, 33
2, 958, Control_c, 0, 64, 0
2, 1211, Control_c, 0, 64, 127
2, 1234, Note_on_c, 0, 59, 33
2, 1251, Control_c, 0, 64, 0
2, 1270, Note_on_c, 0, 58, 0
2, 1387, Note_on_c, 0, 57, 33
2, 1406, Note_on_c, 0, 59, 0
2, 1558, Note_on_c, 0, 59, 33
2, 1575, Note_on_c, 0, 57, 0
2, 1697, Note_on_c, 0, 58, 33
2, 1717, Note_on_c, 0, 59, 0
2, 1839, Note_on_c, 0, 54, 33
2, 1844, Note_on_c, 0, 58, 0
2, 1964, Note_on_c, 0, 58, 33
2, 1996, Note_on_c, 0, 54, 0
2, 2121, Note_on_c, 0, 59, 33
2, 2139, Note_on_c, 0, 58, 0
2, 2245, Note_on_c, 0, 57, 33
2, 2263, Note_on_c, 0, 59, 0
2, 2402, Note_on_c, 0, 59, 33
2, 2406, Note_on_c, 0, 57, 0
2, 2533, Note_on_c, 0, 66, 0
2, 2554, Note_on_c, 0, 58, 33
2, 2557, Note_on_c, 0, 65, 44
2, 2573, Note_on_c, 0, 59, 0
2, 2671, Control_c, 0, 64, 127
2, 2728, Note_on_c, 0, 63, 28
2, 2775, Note_on_c, 0, 65, 0
2, 2775, Note_on_c, 0, 58, 0
2, 2788, Note_on_c, 0, 51, 0
2, 2809, Note_on_c, 0, 53, 33
2, 2882, Note_on_c, 0, 59, 39
2, 2913, Control_c, 0, 64, 0
2, 2952, Note_on_c, 0, 70, 44
2, 3124, Note_on_c, 0, 61, 33
2, 3154, Control_c, 0, 64, 127
2, 3188, Note_on_c, 0, 59, 0
2, 3253, Note_on_c, 0, 58, 33
2, 3288, Note_on_c, 0, 61, 0
2, 3386, Note_on_c, 0, 61, 33
2, 3417, Note_on_c, 0, 58, 0
2, 3511, Note_on_c, 0, 59, 33
2, 3572, Note_on_c, 0, 61, 0
2, 3637, Note_on_c, 0, 56, 33
2, 3658, Note_on_c, 0, 59, 0
2, 3726, Note_on_c, 0, 70, 0
2, 3750, Note_on_c, 0, 68, 39
2, 3755, Control_c, 0, 64, 0
2, 3764, Note_on_c, 0, 59, 33
2, 3825, Note_on_c, 0, 56, 0
2, 3864, Control_c, 0, 64, 127
2, 3888, Note_on_c, 0, 61, 33
2, 4003, Note_on_c, 0, 58, 33
2, 4010, Note_on_c, 0, 59, 0
2, 4033, Note_on_c, 0, 53, 0
2, 4036, Note_on_c, 0, 63, 0
2, 4066, Note_on_c, 0, 61, 0
2, 4129, Note_on_c, 0, 61, 33
2, 4134, Note_on_c, 0, 58, 0
2, 4256, Note_on_c, 0, 59, 33
2, 4373, Note_on_c, 0, 68, 0
2, 4381, Note_on_c, 0, 56, 33
2, 4385, Note_on_c, 0, 61, 0
2, 4402, Note_on_c, 0, 59, 0
2, 4411, Note_on_c, 0, 65, 44
2, 4566, Note_on_c, 0, 50, 33
2, 4570, Control_c, 0, 64, 0
2, 4578, Note_on_c, 0, 71, 52
2, 4763, Control_c, 0, 64, 127
2, 4845, Note_on_c, 0, 58, 33
2, 4854, Note_on_c, 0, 56, 0
2, 4973, Note_on_c, 0, 55, 33
2, 5007, Note_on_c, 0, 58, 0
2, 5087, Note_on_c, 0, 58, 33
2, 5147, Note_on_c, 0, 55, 0
2, 5213, Note_on_c, 0, 56, 33
2, 5217, Note_on_c, 0, 58, 0
2, 5326, Note_on_c, 0, 53, 33
2, 5347, Note_on_c, 0, 56, 0
2, 5443, Control_c, 0, 64, 0
2, 5452, Note_on_c, 0, 56, 33
2, 5473, Note_on_c, 0, 53, 0
2, 5597, Note_on_c, 0, 58, 33
2, 5602, Control_c, 0, 64, 127
2, 5630, Note_on_c, 0, 56, 0
2, 5656, Control_c, 0, 64, 0
2, 5688, Control_c, 0, 64, 127
2, 5721, Note_on_c, 0, 55, 33
2, 5729, Note_on_c, 0, 58, 0
2, 5883, Note_on_c, 0, 58, 33
2, 5916, Note_on_c, 0, 55, 0
2, 6000, Control_c, 0, 64, 0
2, 6022, Note_on_c, 0, 70, 39
2, 6026, Note_on_c, 0, 71, 0
2, 6049, Note_on_c, 0, 56, 33
2, 6111, Note_on_c, 0, 58, 0
2, 6122, Note_on_c, 0, 65, 0
2, 6153, Control_c, 0, 64, 127
2, 6235, Note_on_c, 0, 65, 39
2, 6282, Note_on_c, 0, 70, 0
2, 6282, Note_on_c, 0, 50, 0
2, 6282, Control_c, 0, 64, 0
2, 6314, Control_c, 0, 64, 127
2, 6343, Note_on_c, 0, 56, 0
2, 6453, Control_c, 0, 64, 0
2, 6477, Note_on_c, 0, 70, 44
2, 6490, Note_on_c, 0, 64, 33
2, 6490, Note_on_c, 0, 55, 33
2, 6506, Note_on_c, 0, 49, 33
2, 6524, Note_on_c, 0, 65, 0
2, 6685, Note_on_c, 0, 56, 33
2, 6692, Control_c, 0, 64, 127
2, 6732, Note_on_c, 0, 55, 0
2, 6814, Note_on_c, 0, 54, 33
2, 6816, Note_on_c, 0, 56, 0
2, 6938, Note_on_c, 0, 56, 33
2, 6973, Note_on_c, 0, 54, 0
2, 7046, Note_on_c, 0, 55, 33
2, 7079, Note_on_c, 0, 56, 0
2, 7177, Note_on_c, 0, 52, 33
2, 7224, Note_on_c, 0, 55, 0
2, 7304, Note_on_c, 0, 55, 33
2, 7337, Note_on_c, 0, 52, 0
2, 7339, Control_c, 0, 64, 0
2, 7449, Note_on_c, 0, 56, 33
2, 7538, Note_on_c, 0, 55, 0
2, 7566, Control_c, 0, 64, 127
2, 7576, Note_on_c, 0, 54, 33
2, 7608, Note_on_c, 0, 56, 0
2, 7665, Control_c, 0, 64, 0
2, 7698, Note_on_c, 0, 56, 33
2, 7698, Control_c, 0, 64, 127
2, 7730, Note_on_c, 0, 64, 0
2, 7750, Control_c, 0, 64, 0
2, 7841, Note_on_c, 0, 55, 28
2, 7873, Note_on_c, 0, 54, 0
2, 7901, Note_on_c, 0, 56, 0
2, 7946, Control_c, 0, 64, 127
2, 7993, Note_on_c, 0, 63, 48
2, 8000, Note_on_c, 0, 49, 0
2, 8026, Note_on_c, 0, 70, 0
2, 8124, Note_on_c, 0, 47, 39
2, 8160, Note_on_c, 0, 75, 39
2, 8169, Control_c, 0, 64, 0
2, 8373, Control_c, 0, 64, 127
2, 8452, Note_on_c, 0, 56, 39
2, 8516, Note_on_c, 0, 55, 0
2, 8600, Note_on_c, 0, 54, 31
2, 8608, Note_on_c, 0, 56, 0
2, 8746, Note_on_c, 0, 56, 33
2, 8776, Note_on_c, 0, 54, 0
2, 8858, Note_on_c, 0, 55, 33
2, 8891, Note_on_c, 0, 56, 0
2, 8935, Control_c, 0, 64, 0
2, 8969, Control_c, 0, 64, 127
2, 8987, Note_on_c, 0, 51, 33
2, 9048, Note_on_c, 0, 55, 0
2, 9137, Note_on_c, 0, 56, 33
2, 9142, Control_c, 0, 64, 0
2, 9200, Note_on_c, 0, 51, 0
2, 9296, Control_c, 0, 64, 127
2, 9304, Note_on_c, 0, 58, 33
2, 9351, Note_on_c, 0, 56, 0
2, 9364, Note_on_c, 0, 75, 0
2, 9416, Note_on_c, 0, 73, 48
2, 9437, Control_c, 0, 64, 0
2, 9442, Note_on_c, 0, 55, 33
2, 9447, Note_on_c, 0, 58, 0
2, 9585, Note_on_c, 0, 71, 44
2, 9611, Note_on_c, 0, 58, 33
2, 9616, Note_on_c, 0, 73, 0
2, 9688, Note_on_c, 0, 55, 0
2, 9754, Note_on_c, 0, 68, 44
2, 9761, Note_on_c, 0, 71, 0
2, 9775, Note_on_c, 0, 63, 0
2, 9784, Note_on_c, 0, 56, 44
2, 9817, Note_on_c, 0, 58, 0
2, 9932, Control_c, 0, 64, 127
2, 9941, Note_on_c, 0, 63, 44
2, 9962, Note_on_c, 0, 68, 0
2, 10044, Note_on_c, 0, 56, 0
2, 10044, Note_on_c, 0, 47, 0
2, 10073, Control_c, 0, 64, 0
2, 10105, Control_c, 0, 64, 127
2, 10213, Note_on_c, 0, 66, 39
2, 10213, Note_on_c, 0, 62, 39
2, 10225, Note_on_c, 0, 46, 39
2, 10225, Note_on_c, 0, 56, 39
2, 10229, Note_on_c, 0, 63, 0
2, 10244, Control_c, 0, 64, 0
2, 10401, Control_c, 0, 64, 127
2, 10403, Note_on_c, 0, 58, 33
2, 10424, Note_on_c, 0, 56, 0
2, 10515, Note_on_c, 0, 55, 33
2, 10549, Note_on_c, 0, 58, 0
2, 10654, Note_on_c, 0, 58, 33
2, 10658, Note_on_c, 0, 66, 0
2, 10689, Note_on_c, 0, 55, 0
2, 10762, Note_on_c, 0, 62, 0
2, 10800, Note_on_c, 0, 56, 33
2, 10834, Note_on_c, 0, 46, 0
2, 10848, Note_on_c, 0, 58, 0
2, 10943, Note_on_c, 0, 65, 34
2, 10956, Note_on_c, 0, 53, 33
2, 10977, Note_on_c, 0, 56, 0
2, 11094, Note_on_c, 0, 53, 0
2, 11133, Note_on_c, 0, 63, 43
2, 11162, Note_on_c, 0, 47, 28
2, 11162, Note_on_c, 0, 54, 28
2, 11162, Note_on_c, 0, 59, 28
2, 11182, Control_c, 0, 64, 0
2, 11193, Note_on_c, 0, 65, 0
2, 11305, Note_on_c, 0, 56, 33
2, 11341, Control_c, 0, 64, 127
2, 11421, Note_on_c, 0, 53, 33
2, 11423, Note_on_c, 0, 54, 0
2, 11481, Note_on_c, 0, 56, 0
2, 11494, Note_on_c, 0, 59, 0
2, 11543, Note_on_c, 0, 56, 33
2, 11580, Note_on_c, 0, 53, 0
2, 11674, Note_on_c, 0, 54, 33
2, 11681, Note_on_c, 0, 63, 0
2, 11749, Note_on_c, 0, 56, 0
2, 11805, Note_on_c, 0, 51, 33
2, 11824, Note_on_c, 0, 47, 0
2, 11878, Note_on_c, 0, 54, 0
2, 11946, Control_c, 0, 64, 0
2, 11955, Note_on_c, 0, 64, 60
2, 11955, Note_on_c, 0, 59, 39
2, 11967, Note_on_c, 0, 44, 39
2, 11967, Note_on_c, 0, 56, 39
2, 12056, Note_on_c, 0, 51, 0
2, 12096, Control_c, 0, 64, 127
2, 12117, Note_on_c, 0, 58, 39
2, 12229, Note_on_c, 0, 55, 39
2, 12248, Note_on_c, 0, 56, 0
2, 12263, Note_on_c, 0, 58, 0
2, 12316, Control_c, 0, 64, 0
2, 12349, Control_c, 0, 64, 127
2, 12384, Note_on_c, 0, 58, 39
2, 12406, Note_on_c, 0, 59, 0
2, 12529, Note_on_c, 0, 56, 39
2, 12549, Note_on_c, 0, 55, 0
2, 12590, Note_on_c, 0, 64, 0
2, 12607, Note_on_c, 0, 58, 0
2, 12687, Note_on_c, 0, 52, 39
2, 12750, Note_on_c, 0, 44, 0
2, 12876, Note_on_c, 0, 56, 0
2, 12902, Control_c, 0, 64, 0
2, 12912, Note_on_c, 0, 63, 48
2, 12926, Note_on_c, 0, 60, 48
2, 12926, Note_on_c, 0, 54, 48
2, 12937, Note_on_c, 0, 45, 39
2, 12956, Note_on_c, 0, 52, 0
2, 13078, Note_on_c, 0, 56, 39
2, 13183, Control_c, 0, 64, 127
2, 13217, Note_on_c, 0, 53, 39
2, 13230, Note_on_c, 0, 54, 0
2, 13233, Note_on_c, 0, 56, 0
2, 13352, Note_on_c, 0, 56, 39
2, 13414, Note_on_c, 0, 45, 0
2, 13507, Note_on_c, 0, 54, 39
2, 13512, Note_on_c, 0, 53, 0
2, 13565, Note_on_c, 0, 56, 0
2, 13565, Note_on_c, 0, 60, 0
2, 13664, Note_on_c, 0, 63, 0
2, 13687, Note_on_c, 0, 60, 39
2, 13721, Note_on_c, 0, 54, 0
2, 13833, Note_on_c, 0, 63, 39
2, 13851, Note_on_c, 0, 60, 0
2, 13894, Control_c, 0, 64, 0
2, 13905, Note_on_c, 0, 62, 39
2, 13913, Note_on_c, 0, 63, 0
2, 13922, Note_on_c, 0, 46, 39
2, 13922, Note_on_c, 0, 53, 39
2, 13922, Note_on_c, 0, 58, 39
2, 14079, Note_on_c, 0, 56, 32
2, 14084, Note_on_c, 0, 53, 0
2, 14093, Control_c, 0, 64, 127
2, 14196, Note_on_c, 0, 52, 33
2, 14201, Note_on_c, 0, 56, 0
2, 14342, Note_on_c, 0, 54, 33
2, 14375, Note_on_c, 0, 52, 0
2, 14461, Control_c, 0, 64, 0
2, 14471, Note_on_c, 0, 53, 33
2, 14518, Note_on_c, 0, 54, 0
2, 14569, Control_c, 0, 64, 127
2, 14607, Note_on_c, 0, 56, 42
2, 14625, Note_on_c, 0, 58, 0
2, 14625, Note_on_c, 0, 62, 0
2, 14656, Note_on_c, 0, 53, 0
2, 14745, Note_on_c, 0, 54, 28
2, 14745, Note_on_c, 0, 59, 28
2, 14745, Note_on_c, 0, 63, 28
2, 14752, Control_c, 0, 64, 0
2, 14876, Note_on_c, 0, 56, 0
2, 14897, Note_on_c, 0, 57, 43
2, 14900, Control_c, 0, 64, 127
2, 14932, Note_on_c, 0, 59, 0
2, 14958, Note_on_c, 0, 54, 0
2, 15012, Note_on_c, 0, 63, 0
2, 15036, Note_on_c, 0, 64, 56
2, 15038, Control_c, 0, 64, 0
2, 15049, Note_on_c, 0, 55, 43
2, 15052, Note_on_c, 0, 57, 0
2, 15064, Note_on_c, 0, 60, 43
2, 15240, Control_c, 0, 64, 127
2, 15254, Note_on_c, 0, 58, 43
2, 15272, Note_on_c, 0, 46, 0
2, 15317, Note_on_c, 0, 55, 0
2, 15430, Control_c, 0, 64, 0
2, 15439, Note_on_c, 0, 65, 48
2, 15453, Note_on_c, 0, 61, 43
2, 15453, Note_on_c, 0, 56, 43
2, 15460, Note_on_c, 0, 60, 0
2, 15460, Note_on_c, 0, 64, 0
2, 15516, Note_on_c, 0, 58, 0
2, 15724, Note_on_c, 0, 62, 39
2, 15742, Note_on_c, 0, 59, 39
2, 15760, Note_on_c, 0, 61, 0
2, 15774, Note_on_c, 0, 56, 0
2, 15880, Control_c, 0, 64, 127
2, 15966, Note_on_c, 0, 65, 0
2, 15994, Note_on_c, 0, 59, 0
2, 16104, Note_on_c, 0, 62, 0
2, 16126, Note_on_c, 0, 66, 34
2, 16140, Note_on_c, 0, 63, 39
2, 16140, Note_on_c, 0, 51, 39
2, 16142, Control_c, 0, 64, 0
2, 16152, Note_on_c, 0, 58, 39
2, 16365, Note_on_c, 0, 59, 33
2, 16384, Note_on_c, 0, 58, 0
2, 16426, Control_c, 0, 64, 127
2, 16511, Note_on_c, 0, 57, 33
2, 16517, Note_on_c, 0, 59, 0
2, 16656, Note_on_c, 0, 59, 33
2, 16677, Note_on_c, 0, 57, 0
2, 16799, Note_on_c, 0, 58, 33
2, 16805, Note_on_c, 0, 59, 0
2, 16873, Control_c, 0, 64, 0
2, 16906, Control_c, 0, 64, 127
2, 16946, Note_on_c, 0, 54, 33
2, 16953, Note_on_c, 0, 58, 0
2, 17075, Note_on_c, 0, 58, 33
2, 17077, Control_c, 0, 64, 0
2, 17122, Note_on_c, 0, 54, 0
2, 17183, Control_c, 0, 64, 127
2, 17197, Note_on_c, 0, 59, 33
2, 17216, Note_on_c, 0, 58, 0
2, 17333, Note_on_c, 0, 57, 33
2, 17352, Note_on_c, 0, 59, 0
2, 17473, Note_on_c, 0, 59, 33
2, 17478, Note_on_c, 0, 57, 0
2, 17563, Note_on_c, 0, 63, 0
2, 17574, Control_c, 0, 64, 0
2, 17605, Note_on_c, 0, 59, 0
2, 17616, Note_on_c, 0, 58, 33
2, 17644, Note_on_c, 0, 65, 52
2, 17649, Note_on_c, 0, 66, 0
2, 17774, Control_c, 0, 64, 127
2, 17830, Note_on_c, 0, 63, 44
2, 17849, Note_on_c, 0, 58, 0
2, 17877, Note_on_c, 0, 65, 0
2, 17877, Note_on_c, 0, 51, 0
2, 17914, Note_on_c, 0, 53, 33
2, 17956, Note_on_c, 0, 59, 33
2, 18003, Control_c, 0, 64, 0
2, 18076, Note_on_c, 0, 70, 56
2, 18245, Control_c, 0, 64, 127
2, 18247, Note_on_c, 0, 61, 33
2, 18291, Note_on_c, 0, 59, 0
2, 18384, Note_on_c, 0, 58, 33
2, 18413, Note_on_c, 0, 61, 0
2, 18507, Note_on_c, 0, 61, 33
2, 18580, Note_on_c, 0, 58, 0
2, 18629, Note_on_c, 0, 59, 33
2, 18754, Note_on_c, 0, 56, 33
2, 18770, Note_on_c, 0, 59, 0
2, 18815, Note_on_c, 0, 70, 0
2, 18826, Note_on_c, 0, 61, 0
2, 18862, Note_on_c, 0, 68, 39
2, 18864, Control_c, 0, 64, 0
2, 18873, Note_on_c, 0, 59, 33
2, 19002, Note_on_c, 0, 61, 33
2, 19018, Control_c, 0, 64, 127
2, 19078, Note_on_c, 0, 63, 0
2, 19124, Note_on_c, 0, 59, 0
2, 19133, Note_on_c, 0, 58, 33
2, 19169, Note_on_c, 0, 56, 0
2, 19169, Note_on_c, 0, 61, 0
2, 19262, Note_on_c, 0, 61, 33
2, 19270, Note_on_c, 0, 58, 0
2, 19270, Note_on_c, 0, 53, 0
2, 19396, Note_on_c, 0, 59, 33
2, 19429, Note_on_c, 0, 61, 0
2, 19488, Note_on_c, 0, 68, 0
2, 19525, Note_on_c, 0, 56, 39
2, 19530, Note_on_c, 0, 59, 0
2, 19553, Note_on_c, 0, 65, 56
2, 19682, Note_on_c, 0, 50, 39
2, 19710, Control_c, 0, 64, 0
2, 19725, Note_on_c, 0, 71, 56
2, 19865, Control_c, 0, 64, 127
2, 19946, Note_on_c, 0, 58, 33
2, 19951, Note_on_c, 0, 56, 0
2, 20073, Note_on_c, 0, 55, 33
2, 20092, Note_on_c, 0, 58, 0
2, 20203, Note_on_c, 0, 58, 33
2, 20256, Control_c, 0, 64, 0
2, 20289, Control_c, 0, 64, 127
2, 20329, Note_on_c, 0, 56, 33
2, 20348, Note_on_c, 0, 55, 0
2, 20378, Note_on_c, 0, 58, 0
2, 20455, Note_on_c, 0, 53, 33
2, 20458, Control_c, 0, 64, 0
2, 20491, Control_c, 0, 64, 127
2, 20493, Note_on_c, 0, 56, 0
2, 20587, Note_on_c, 0, 56, 33
2, 20590, Control_c, 0, 64, 0
2, 20619, Note_on_c, 0, 53, 0
2, 20712, Note_on_c, 0, 58, 33
2, 20749, Note_on_c, 0, 56, 0
2, 20788, Control_c, 0, 64, 127
2, 20845, Note_on_c, 0, 55, 33
2, 20863, Note_on_c, 0, 58, 0
2, 21004, Note_on_c, 0, 58, 33
2, 21037, Note_on_c, 0, 55, 0
2, 21112, Note_on_c, 0, 56, 33
2, 21117, Note_on_c, 0, 65, 0
2, 21140, Control_c, 0, 64, 0
2, 21154, Note_on_c, 0, 70, 39
2, 21159, Note_on_c, 0, 58, 0
2, 21170, Note_on_c, 0, 71, 0
2, 21292, Control_c, 0, 64, 127
2, 21365, Note_on_c, 0, 50, 0
2, 21375, Note_on_c, 0, 65, 28
2, 21405, Note_on_c, 0, 70, 0
2, 21447, Note_on_c, 0, 56, 0
2, 21611, Note_on_c, 0, 70, 39
2, 21625, Note_on_c, 0, 64, 39
2, 21640, Note_on_c, 0, 55, 39
2, 21640, Note_on_c, 0, 49, 39
2, 21642, Control_c, 0, 64, 0
2, 21670, Note_on_c, 0, 65, 0
2, 21792, Note_on_c, 0, 56, 33
2, 21794, Control_c, 0, 64, 127
2, 21841, Note_on_c, 0, 55, 0
2, 21923, Note_on_c, 0, 54, 33
2, 21942, Note_on_c, 0, 56, 0
2, 22055, Note_on_c, 0, 56, 33
2, 22102, Note_on_c, 0, 54, 0
2, 22170, Note_on_c, 0, 55, 33
2, 22230, Note_on_c, 0, 56, 0
2, 22312, Note_on_c, 0, 52, 33
2, 22359, Note_on_c, 0, 55, 0
2, 22417, Control_c, 0, 64, 0
2, 22453, Note_on_c, 0, 55, 39
2, 22568, Note_on_c, 0, 56, 39
2, 22570, Control_c, 0, 64, 127
2, 22629, Note_on_c, 0, 55, 0
2, 22680, Note_on_c, 0, 54, 39
2, 22687, Note_on_c, 0, 52, 0
2, 22702, Note_on_c, 0, 64, 0
2, 22716, Note_on_c, 0, 56, 0
2, 22809, Note_on_c, 0, 56, 39
2, 22824, Control_c, 0, 64, 0
2, 22943, Note_on_c, 0, 54, 0
2, 22947, Note_on_c, 0, 55, 28
2, 22950, Control_c, 0, 67, 0
2, 22955, Note_on_c, 0, 56, 0
2, 22983, Control_c, 0, 64, 127
2, 23093, Note_on_c, 0, 63, 65
2, 23098, Note_on_c, 0, 49, 0
2, 23112, Note_on_c, 0, 70, 0
2, 23210, Control_c, 0, 64, 0
2, 23220, Note_on_c, 0, 47, 44
2, 23290, Note_on_c, 0, 75, 65
2, 23379, Control_c, 0, 64, 127
2, 23464, Note_on_c, 0, 56, 44
2, 23466, Note_on_c, 0, 55, 0
2, 23466, Control_c, 0, 64, 0
2, 23498, Control_c, 0, 64, 127
2, 23590, Note_on_c, 0, 54, 44
2, 23637, Note_on_c, 0, 56, 0
2, 23733, Note_on_c, 0, 56, 44
2, 23808, Note_on_c, 0, 54, 0
2, 23855, Note_on_c, 0, 55, 44
2, 23895, Control_c, 0, 67, 127
2, 23918, Note_on_c, 0, 56, 0
2, 23979, Note_on_c, 0, 51, 39
2, 24071, Note_on_c, 0, 55, 0
2, 24127, Control_c, 0, 64, 0
2, 24150, Note_on_c, 0, 56, 39
2, 24282, Control_c, 0, 64, 127
2, 24316, Note_on_c, 0, 58, 39
2, 24352, Note_on_c, 0, 56, 0
2, 24427, Note_on_c, 0, 73, 48
2, 24457, Note_on_c, 0, 55, 39
2, 24462, Control_c, 0, 64, 0
2, 24474, Note_on_c, 0, 75, 0
2, 24476, Note_on_c, 0, 58, 0
2, 24560, Control_c, 0, 64, 127
2, 24605, Note_on_c, 0, 71, 39
2, 24617, Control_c, 0, 64, 0
2, 24636, Note_on_c, 0, 58, 43
2, 24640, Note_on_c, 0, 73, 0
2, 24669, Note_on_c, 0, 55, 0
2, 24724, Control_c, 0, 64, 127
2, 24753, Note_on_c, 0, 47, 0
2, 24767, Note_on_c, 0, 63, 0
2, 24771, Control_c, 0, 64, 0
2, 24791, Note_on_c, 0, 56, 39
2, 24791, Note_on_c, 0, 68, 33
2, 24795, Note_on_c, 0, 71, 0
2, 24825, Note_on_c, 0, 58, 0
2, 24924, Note_on_c, 0, 47, 33
2, 24978, Note_on_c, 0, 63, 39
2, 24984, Note_on_c, 0, 68, 0
2, 25015, Control_c, 0, 64, 127
2, 25072, Note_on_c, 0, 47, 0
2, 25100, Note_on_c, 0, 56, 0
2, 25114, Note_on_c, 0, 51, 0
2, 25231, Note_on_c, 0, 63, 0
2, 25241, Note_on_c, 0, 62, 43
2, 25241, Note_on_c, 0, 66, 43
2, 25249, Control_c, 0, 64, 0
2, 25257, Note_on_c, 0, 56, 43
2, 25271, Note_on_c, 0, 46, 43
2, 25454, Note_on_c, 0, 58, 33
2, 25464, Control_c, 0, 64, 127
2, 25488, Note_on_c, 0, 56, 0
2, 25599, Note_on_c, 0, 55, 33
2, 25632, Note_on_c, 0, 58, 0
2, 25646, Note_on_c, 0, 62, 0
2, 25726, Note_on_c, 0, 58, 33
2, 25773, Note_on_c, 0, 55, 0
2, 25799, Note_on_c, 0, 66, 0
2, 25864, Note_on_c, 0, 56, 33
2, 25885, Note_on_c, 0, 46, 0
2, 25913, Note_on_c, 0, 58, 0
2, 26021, Note_on_c, 0, 65, 39
2, 26035, Note_on_c, 0, 53, 33
2, 26054, Note_on_c, 0, 56, 0
2, 26111, Note_on_c, 0, 53, 0
2, 26262, Note_on_c, 0, 63, 33
2, 26283, Control_c, 0, 64, 0
2, 26288, Note_on_c, 0, 54, 28
2, 26288, Note_on_c, 0, 47, 28
2, 26293, Note_on_c, 0, 65, 0
2, 26303, Note_on_c, 0, 59, 28
2, 26335, Note_on_c, 0, 54, 0
2, 26434, Control_c, 0, 64, 127
2, 26443, Note_on_c, 0, 56, 33
2, 26469, Note_on_c, 0, 54, 33
2, 26532, Note_on_c, 0, 54, 0
2, 26568, Note_on_c, 0, 53, 33
2, 26605, Note_on_c, 0, 56, 0
2, 26605, Control_c, 0, 64, 0
2, 26638, Control_c, 0, 64, 127
2, 26711, Note_on_c, 0, 56, 33
2, 26715, Note_on_c, 0, 53, 0
2, 26811, Control_c, 0, 64, 0
2, 26825, Note_on_c, 0, 63, 0
2, 26834, Note_on_c, 0, 54, 33
2, 26844, Control_c, 0, 64, 127
2, 26912, Note_on_c, 0, 59, 0
2, 26926, Note_on_c, 0, 47, 0
2, 26940, Note_on_c, 0, 56, 0
2, 26961, Note_on_c, 0, 51, 33
2, 27022, Note_on_c, 0, 54, 0
2, 27144, Note_on_c, 0, 44, 43
2, 27144, Note_on_c, 0, 59, 43
2, 27144, Note_on_c, 0, 64, 53
2, 27151, Control_c, 0, 64, 0
2, 27156, Note_on_c, 0, 56, 43
2, 27228, Note_on_c, 0, 64, 0
2, 27228, Note_on_c, 0, 51, 0
2, 27265, Note_on_c, 0, 64, 33
2, 27379, Note_on_c, 0, 58, 33
2, 27390, Control_c, 0, 64, 127
2, 27498, Note_on_c, 0, 56, 0
2, 27512, Note_on_c, 0, 58, 0
2, 27524, Note_on_c, 0, 55, 33
2, 27657, Note_on_c, 0, 59, 0
2, 27681, Note_on_c, 0, 58, 33
2, 27833, Control_c, 0, 64, 0
2, 27840, Note_on_c, 0, 56, 33
2, 27870, Note_on_c, 0, 58, 0
2, 27870, Note_on_c, 0, 55, 0
2, 28070, Note_on_c, 0, 52, 33
2, 28077, Control_c, 0, 64, 127
2, 28101, Note_on_c, 0, 64, 0
2, 28117, Note_on_c, 0, 44, 0
2, 28201, Note_on_c, 0, 56, 0
2, 28201, Note_on_c, 0, 52, 0
2, 28368, Note_on_c, 0, 62, 39
2, 28377, Note_on_c, 0, 56, 39
2, 28377, Note_on_c, 0, 53, 39
2, 28379, Note_on_c, 0, 46, 39
2, 28389, Control_c, 0, 64, 0
2, 28562, Note_on_c, 0, 54, 33
2, 28584, Note_on_c, 0, 53, 0
2, 28705, Note_on_c, 0, 52, 33
2, 28724, Note_on_c, 0, 54, 0
2, 28879, Note_on_c, 0, 54, 33
2, 28912, Note_on_c, 0, 52, 0
2, 29073, Note_on_c, 0, 53, 33
2, 29109, Note_on_c, 0, 54, 0
2, 29179, Control_c, 0, 64, 127
2, 29207, Note_on_c, 0, 46, 0
2, 29247, Note_on_c, 0, 62, 0
2, 29261, Control_c, 0, 64, 0
2, 29294, Control_c, 0, 64, 127
2, 29299, Note_on_c, 0, 46, 33
2, 29354, Note_on_c, 0, 63, 39
2, 29362, Note_on_c, 0, 53, 0
2, 29458, Note_on_c, 0, 63, 0
2, 29640, Control_c, 0, 64, 0
2, 29643, Note_on_c, 0, 63, 39
2, 29645, Note_on_c, 0, 54, 39
2, 29673, Note_on_c, 0, 39, 33
2, 29689, Note_on_c, 0, 56, 0
2, 29896, Note_on_c, 0, 47, 33
2, 29929, Note_on_c, 0, 46, 0
2, 30027, Note_on_c, 0, 45, 38
2, 30074, Note_on_c, 0, 47, 0
2, 30166, Note_on_c, 0, 47, 33
2, 30198, Note_on_c, 0, 45, 0
2, 30307, Note_on_c, 0, 46, 38
2, 30367, Note_on_c, 0, 47, 0
2, 30370, Note_on_c, 0, 39, 0
2, 30435, Note_on_c, 0, 42, 39
2, 30513, Note_on_c, 0, 46, 0
2, 30590, Note_on_c, 0, 39, 43
2, 30623, Note_on_c, 0, 42, 0
2, 30731, Note_on_c, 0, 41, 43
2, 30766, Note_on_c, 0, 39, 0
2, 30888, Note_on_c, 0, 38, 39
2, 30890, Note_on_c, 0, 63, 0
2, 30904, Note_on_c, 0, 54, 0
2, 30937, Note_on_c, 0, 41, 0
2, 31047, Note_on_c, 0, 41, 39
2, 31063, Note_on_c, 0, 38, 0
2, 31219, Note_on_c, 0, 39, 33
2, 31268, Note_on_c, 0, 41, 0
2, 31434, Note_on_c, 0, 35, 33
2, 31479, Note_on_c, 0, 39, 0
2, 31704, Note_on_c, 0, 65, 39
2, 31704, Note_on_c, 0, 63, 39
2, 31729, Note_on_c, 0, 58, 43
2, 31744, Note_on_c, 0, 34, 43
2, 31776, Note_on_c, 0, 35, 0
2, 31842, Control_c, 0, 64, 127
2, 31887, Note_on_c, 0, 58, 0
2, 31950, Note_on_c, 0, 59, 33
2, 32079, Note_on_c, 0, 57, 33
2, 32081, Note_on_c, 0, 59, 0
2, 32201, Note_on_c, 0, 59, 33
2, 32222, Note_on_c, 0, 57, 0
2, 32318, Note_on_c, 0, 58, 33
2, 32334, Note_on_c, 0, 59, 0
2, 32388, Note_on_c, 0, 63, 0
2, 32417, Note_on_c, 0, 58, 0
2, 32425, Note_on_c, 0, 53, 33
2, 32458, Note_on_c, 0, 65, 0
2, 32529, Control_c, 0, 64, 0
2, 32538, Note_on_c, 0, 65, 44
2, 32552, Note_on_c, 0, 62, 43
2, 32564, Note_on_c, 0, 58, 43
2, 32564, Note_on_c, 0, 46, 43
2, 32609, Note_on_c, 0, 53, 0
2, 32663, Control_c, 0, 64, 127
2, 32681, Note_on_c, 0, 58, 0
2, 32690, Note_on_c, 0, 59, 39
2, 32710, Note_on_c, 0, 34, 0
2, 32752, Note_on_c, 0, 59, 0
2, 32796, Note_on_c, 0, 62, 0
2, 32803, Note_on_c, 0, 57, 39
2, 32902, Note_on_c, 0, 59, 39
2, 32921, Note_on_c, 0, 65, 0
2, 32951, Note_on_c, 0, 57, 0
2, 32991, Note_on_c, 0, 59, 0
2, 33002, Note_on_c, 0, 67, 60
2, 33014, Note_on_c, 0, 61, 39
2, 33025, Note_on_c, 0, 58, 39
2, 33101, Note_on_c, 0, 67, 0
2, 33120, Note_on_c, 0, 58, 0
2, 33120, Note_on_c, 0, 61, 0
2, 33144, Control_c, 0, 64, 0
2, 33157, Note_on_c, 0, 53, 39
2, 33176, Control_c, 0, 64, 127
2, 33178, Note_on_c, 0, 46, 0
2, 33261, Note_on_c, 0, 41, 39
2, 33293, Note_on_c, 0, 53, 0
2, 33314, Note_on_c, 0, 68, 59
2, 33314, Note_on_c, 0, 67, 59
2, 33319, Control_c, 0, 64, 0
2, 33328, Note_on_c, 0, 60, 43
2, 33342, Note_on_c, 0, 56, 43
2, 33429, Control_c, 0, 64, 127
2, 33455, Note_on_c, 0, 55, 43
2, 33474, Note_on_c, 0, 56, 0
2, 33488, Note_on_c, 0, 41, 0
2, 33565, Note_on_c, 0, 52, 33
2, 33614, Note_on_c, 0, 55, 0
2, 33643, Note_on_c, 0, 67, 0
2, 33680, Note_on_c, 0, 55, 43
2, 33687, Note_on_c, 0, 68, 0
2, 33698, Note_on_c, 0, 52, 0
2, 33760, Note_on_c, 0, 60, 0
2, 33781, Note_on_c, 0, 53, 39
2, 33802, Note_on_c, 0, 55, 0
2, 33887, Note_on_c, 0, 48, 39
2, 33933, Note_on_c, 0, 53, 0
2, 33996, Note_on_c, 0, 65, 42
2, 33999, Control_c, 0, 64, 0
2, 34010, Note_on_c, 0, 47, 43
2, 34013, Note_on_c, 0, 56, 43
2, 34013, Note_on_c, 0, 62, 43
2, 34013, Note_on_c, 0, 68, 44
2, 34032, Note_on_c, 0, 48, 0
2, 34123, Note_on_c, 0, 48, 43
2, 34144, Note_on_c, 0, 47, 0
2, 34194, Control_c, 0, 64, 127
2, 34252, Note_on_c, 0, 46, 43
2, 34271, Note_on_c, 0, 48, 0
2, 34298, Control_c, 0, 64, 0
2, 34383, Note_on_c, 0, 48, 39
2, 34404, Note_on_c, 0, 46, 0
2, 34542, Note_on_c, 0, 47, 42
2, 34561, Note_on_c, 0, 48, 0
2, 34695, Control_c, 0, 64, 127
2, 34709, Note_on_c, 0, 35, 43
2, 34740, Note_on_c, 0, 62, 0
2, 34768, Note_on_c, 0, 56, 0
2, 34799, Note_on_c, 0, 65, 0
2, 34799, Note_on_c, 0, 68, 0
2, 34901, Note_on_c, 0, 65, 39
2, 34901, Note_on_c, 0, 67, 39
2, 34916, Control_c, 0, 64, 0
2, 34918, Note_on_c, 0, 47, 0
2, 34927, Note_on_c, 0, 36, 39
2, 34929, Note_on_c, 0, 62, 40
2, 34945, Note_on_c, 0, 35, 0
2, 35054, Note_on_c, 0, 63, 43
2, 35067, Control_c, 0, 64, 127
2, 35087, Note_on_c, 0, 62, 0
2, 35166, Note_on_c, 0, 61, 34
2, 35199, Note_on_c, 0, 63, 0
2, 35281, Note_on_c, 0, 63, 33
2, 35328, Note_on_c, 0, 61, 0
2, 35379, Note_on_c, 0, 62, 33
2, 35384, Note_on_c, 0, 63, 0
2, 35509, Note_on_c, 0, 55, 41
2, 35513, Note_on_c, 0, 67, 0
2, 35516, Note_on_c, 0, 62, 0
2, 35527, Note_on_c, 0, 65, 0
2, 35548, Note_on_c, 0, 48, 39
2, 35591, Control_c, 0, 64, 0
2, 35618, Note_on_c, 0, 60, 39
2, 35621, Note_on_c, 0, 67, 34
2, 35621, Note_on_c, 0, 64, 34
2, 35680, Note_on_c, 0, 55, 0
2, 35708, Note_on_c, 0, 36, 0
2, 35745, Note_on_c, 0, 62, 39
2, 35771, Control_c, 0, 64, 127
2, 35807, Note_on_c, 0, 60, 0
2, 35844, Note_on_c, 0, 59, 39
2, 35849, Note_on_c, 0, 62, 0
2, 35919, Note_on_c, 0, 64, 0
2, 35953, Note_on_c, 0, 62, 39
2, 35973, Note_on_c, 0, 67, 0
2, 35987, Note_on_c, 0, 59, 0
2, 36062, Note_on_c, 0, 60, 39
2, 36062, Note_on_c, 0, 63, 39
2, 36062, Note_on_c, 0, 69, 56
2, 36080, Note_on_c, 0, 62, 0
2, 36137, Note_on_c, 0, 69, 0
2, 36151, Note_on_c, 0, 63, 0
2, 36151, Note_on_c, 0, 60, 0
2, 36158, Note_on_c, 0, 55, 39
2, 36210, Control_c, 0, 67, 0
2, 36254, Note_on_c, 0, 43, 44
2, 36298, Note_on_c, 0, 70, 65
2, 36301, Note_on_c, 0, 55, 0
2, 36301, Note_on_c, 0, 48, 0
2, 36311, Note_on_c, 0, 69, 65
2, 36324, Control_c, 0, 64, 0
2, 36324, Note_on_c, 0, 58, 44
2, 36324, Note_on_c, 0, 62, 44
2, 36434, Control_c, 0, 64, 127
2, 36467, Note_on_c, 0, 57, 44
2, 36486, Note_on_c, 0, 58, 0
2, 36528, Note_on_c, 0, 43, 0
2, 36550, Note_on_c, 0, 54, 44
2, 36584, Note_on_c, 0, 57, 0
2, 36669, Note_on_c, 0, 57, 44
2, 36719, Note_on_c, 0, 54, 0
2, 36748, Note_on_c, 0, 69, 0
2, 36758, Note_on_c, 0, 55, 44
2, 36823, Note_on_c, 0, 57, 0
2, 36840, Note_on_c, 0, 62, 0
2, 36878, Note_on_c, 0, 50, 44
2, 36901, Note_on_c, 0, 70, 0
2, 36927, Note_on_c, 0, 55, 0
2, 36981, Note_on_c, 0, 49, 48
2, 37011, Note_on_c, 0, 70, 61
2, 37013, Note_on_c, 0, 50, 0
2, 37023, Note_on_c, 0, 58, 48
2, 37023, Note_on_c, 0, 64, 61
2, 37023, Note_on_c, 0, 67, 61
2, 37023, Control_c, 0, 64, 0
2, 37147, Note_on_c, 0, 50, 48
2, 37161, Control_c, 0, 64, 127
2, 37166, Note_on_c, 0, 49, 0
2, 37246, Note_on_c, 0, 48, 44
2, 37290, Note_on_c, 0, 50, 0
2, 37342, Note_on_c, 0, 50, 44
2, 37431, Note_on_c, 0, 48, 0
2, 37480, Note_on_c, 0, 49, 48
2, 37485, Note_on_c, 0, 50, 0
2, 37501, Note_on_c, 0, 64, 0
2, 37515, Note_on_c, 0, 70, 0
2, 37530, Note_on_c, 0, 58, 0
2, 37579, Note_on_c, 0, 43, 48
2, 37649, Note_on_c, 0, 44, 48
2, 37668, Note_on_c, 0, 43, 0
2, 37680, Control_c, 0, 64, 0
2, 37684, Note_on_c, 0, 49, 0
2, 37722, Note_on_c, 0, 71, 68
2, 37735, Note_on_c, 0, 64, 68
2, 37735, Note_on_c, 0, 59, 48
2, 37782, Note_on_c, 0, 67, 0
2, 37876, Note_on_c, 0, 66, 48
2, 37902, Control_c, 0, 64, 127
2, 37909, Note_on_c, 0, 64, 0
2, 37992, Note_on_c, 0, 63, 48
2, 38026, Note_on_c, 0, 66, 0
2, 38089, Note_on_c, 0, 66, 44
2, 38169, Note_on_c, 0, 63, 0
2, 38205, Note_on_c, 0, 64, 44
2, 38223, Note_on_c, 0, 71, 0
2, 38235, Note_on_c, 0, 59, 0
2, 38237, Note_on_c, 0, 66, 0
2, 38317, Note_on_c, 0, 59, 48
2, 38328, Note_on_c, 0, 37, 48
2, 38361, Note_on_c, 0, 44, 0
2, 38374, Note_on_c, 0, 49, 48
2, 38395, Note_on_c, 0, 64, 0
2, 38427, Note_on_c, 0, 69, 65
2, 38427, Note_on_c, 0, 64, 65
2, 38429, Control_c, 0, 64, 0
2, 38530, Control_c, 0, 64, 127
2, 38563, Note_on_c, 0, 66, 44
2, 38582, Note_on_c, 0, 64, 0
2, 38676, Note_on_c, 0, 63, 44
2, 38694, Note_on_c, 0, 66, 0
2, 38764, Note_on_c, 0, 69, 0
2, 38774, Note_on_c, 0, 66, 44
2, 38809, Note_on_c, 0, 59, 0
2, 38835, Note_on_c, 0, 63, 0
2, 38875, Note_on_c, 0, 68, 61
2, 38889, Note_on_c, 0, 64, 61
2, 38894, Note_on_c, 0, 66, 0
2, 38894, Note_on_c, 0, 49, 0
2, 38920, Note_on_c, 0, 37, 0
2, 39004, Note_on_c, 0, 59, 44
2, 39008, Note_on_c, 0, 64, 0
2, 39067, Note_on_c, 0, 68, 0
2, 39133, Note_on_c, 0, 68, 61
2, 39133, Note_on_c, 0, 64, 61
2, 39144, Note_on_c, 0, 42, 48
2, 39144, Note_on_c, 0, 30, 48
2, 39146, Note_on_c, 0, 61, 48
2, 39146, Control_c, 0, 64, 0
2, 39262, Control_c, 0, 64, 127
2, 39315, Note_on_c, 0, 63, 48
2, 39320, Note_on_c, 0, 61, 0
2, 39351, Note_on_c, 0, 59, 0
2, 39414, Note_on_c, 0, 60, 48
2, 39419, Note_on_c, 0, 63, 0
2, 39531, Note_on_c, 0, 63, 48
2, 39569, Note_on_c, 0, 64, 0
2, 39583, Note_on_c, 0, 60, 0
2, 39644, Note_on_c, 0, 61, 48
2, 39676, Note_on_c, 0, 30, 0
2, 39707, Note_on_c, 0, 68, 0
2, 39743, Note_on_c, 0, 54, 48
2, 39777, Note_on_c, 0, 61, 0
2, 39790, Note_on_c, 0, 42, 0
2, 39798, Note_on_c, 0, 32, 48
2, 39813, Note_on_c, 0, 44, 48
2, 39829, Control_c, 0, 64, 0
2, 39834, Note_on_c, 0, 63, 0
2, 39857, Note_on_c, 0, 61, 48
2, 39857, Note_on_c, 0, 64, 53
2, 39857, Note_on_c, 0, 66, 53
2, 39915, Note_on_c, 0, 54, 0
2, 40000, Note_on_c, 0, 63, 48
2, 40000, Control_c, 0, 64, 127
2, 40061, Note_on_c, 0, 61, 0
2, 40115, Note_on_c, 0, 60, 48
2, 40117, Note_on_c, 0, 63, 0
2, 40230, Note_on_c, 0, 63, 48
2, 40253, Note_on_c, 0, 64, 0
2, 40307, Note_on_c, 0, 44, 0
2, 40307, Note_on_c, 0, 60, 0
2, 40343, Note_on_c, 0, 33, 48
2, 40343, Note_on_c, 0, 45, 48
2, 40343, Note_on_c, 0, 61, 48
2, 40361, Note_on_c, 0, 63, 0
2, 40417, Note_on_c, 0, 32, 0
2, 40469, Note_on_c, 0, 54, 48
2, 40474, Note_on_c, 0, 33, 0
2, 40502, Note_on_c, 0, 61, 0
2, 40544, Note_on_c, 0, 54, 0
2, 40572, Note_on_c, 0, 45, 0
2, 40588, Note_on_c, 0, 66, 0
2, 40596, Note_on_c, 0, 35, 52
2, 40609, Note_on_c, 0, 47, 52
2, 40642, Control_c, 0, 64, 0
2, 40668, Note_on_c, 0, 61, 52
2, 40668, Note_on_c, 0, 64, 65
2, 40668, Note_on_c, 0, 69, 65
2, 40835, Control_c, 0, 64, 127
2, 40847, Note_on_c, 0, 63, 59
2, 40865, Note_on_c, 0, 61, 0
2, 40945, Note_on_c, 0, 60, 44
2, 40952, Note_on_c, 0, 63, 0
2, 41060, Note_on_c, 0, 63, 44
2, 41079, Note_on_c, 0, 64, 0
2, 41137, Note_on_c, 0, 60, 0
2, 41151, Note_on_c, 0, 69, 0
2, 41175, Note_on_c, 0, 61, 44
2, 41235, Note_on_c, 0, 63, 0
2, 41261, Control_c, 0, 64, 0
2, 41294, Control_c, 0, 64, 127
2, 41306, Note_on_c, 0, 54, 44
2, 41393, Control_c, 0, 64, 0
2, 41416, Note_on_c, 0, 68, 65
2, 41416, Note_on_c, 0, 63, 44
2, 41421, Note_on_c, 0, 61, 0
2, 41445, Note_on_c, 0, 59, 44
2, 41498, Control_c, 0, 64, 127
2, 41545, Note_on_c, 0, 54, 0
2, 41552, Note_on_c, 0, 61, 44
2, 41573, Note_on_c, 0, 59, 0
2, 41651, Note_on_c, 0, 57, 44
2, 41669, Note_on_c, 0, 61, 0
2, 41737, Note_on_c, 0, 68, 0
2, 41763, Note_on_c, 0, 61, 44
2, 41782, Note_on_c, 0, 63, 0
2, 41829, Note_on_c, 0, 35, 0
2, 41861, Note_on_c, 0, 66, 57
2, 41866, Note_on_c, 0, 57, 0
2, 41874, Note_on_c, 0, 59, 44
2, 41874, Note_on_c, 0, 63, 44
2, 41892, Note_on_c, 0, 61, 0
2, 41993, Note_on_c, 0, 47, 0
2, 42012, Note_on_c, 0, 54, 44
2, 42033, Note_on_c, 0, 66, 0
2, 42033, Note_on_c, 0, 63, 0
2, 42033, Note_on_c, 0, 59, 0
2, 42168, Note_on_c, 0, 66, 53
2, 42168, Note_on_c, 0, 63, 44
2, 42188, Control_c, 0, 64, 0
2, 42197, Note_on_c, 0, 59, 44
2, 42197, Note_on_c, 0, 47, 44
2, 42199, Note_on_c, 0, 40, 44
2, 42349, Control_c, 0, 64, 127
2, 42360, Note_on_c, 0, 61, 44
2, 42380, Note_on_c, 0, 54, 0
2, 42406, Control_c, 0, 64, 0
2, 42441, Control_c, 0, 64, 127
2, 42453, Note_on_c, 0, 59, 0
2, 42479, Note_on_c, 0, 61, 0
2, 42487, Note_on_c, 0, 57, 44
2, 42602, Note_on_c, 0, 61, 38
2, 42609, Note_on_c, 0, 63, 0
2, 42609, Note_on_c, 0, 66, 0
2, 42708, Control_c, 0, 64, 0
2, 42731, Note_on_c, 0, 64, 38
2, 42731, Note_on_c, 0, 68, 38
2, 42739, Note_on_c, 0, 57, 0
2, 42745, Note_on_c, 0, 59, 38
2, 42765, Note_on_c, 0, 61, 0
2, 42841, Control_c, 0, 67, 127
2, 42853, Control_c, 0, 64, 127
2, 42931, Note_on_c, 0, 56, 33
2, 42949, Note_on_c, 0, 68, 0
2, 42949, Note_on_c, 0, 59, 0
2, 42963, Note_on_c, 0, 64, 0
2, 43043, Note_on_c, 0, 68, 39
2, 43057, Note_on_c, 0, 59, 33
2, 43076, Control_c, 0, 64, 0
2, 43085, Note_on_c, 0, 64, 33
2, 43090, Note_on_c, 0, 56, 0
2, 43184, Note_on_c, 0, 61, 33
2, 43193, Control_c, 0, 64, 127
2, 43285, Note_on_c, 0, 59, 0
2, 43308, Note_on_c, 0, 57, 33
2, 43313, Note_on_c, 0, 61, 0
2, 43407, Note_on_c, 0, 61, 33
2, 43456, Note_on_c, 0, 47, 0
2, 43470, Note_on_c, 0, 40, 0
2, 43487, Note_on_c, 0, 57, 0
2, 43533, Control_c, 0, 67, 0
2, 43537, Note_on_c, 0, 59, 38
2, 43630, Note_on_c, 0, 68, 0
2, 43630, Note_on_c, 0, 64, 0
2, 43653, Note_on_c, 0, 56, 38
2, 43672, Note_on_c, 0, 59, 0
2, 43685, Note_on_c, 0, 61, 0
2, 43824, Note_on_c, 0, 68, 65
2, 43836, Note_on_c, 0, 66, 65
2, 43838, Note_on_c, 0, 48, 48
2, 43840, Note_on_c, 0, 36, 48
2, 43845, Control_c, 0, 64, 0
2, 43864, Note_on_c, 0, 63, 48
2, 43953, Control_c, 0, 64, 127
2, 43967, Note_on_c, 0, 56, 0
2, 44002, Note_on_c, 0, 64, 44
2, 44038, Note_on_c, 0, 63, 0
2, 44134, Note_on_c, 0, 62, 44
2, 44138, Note_on_c, 0, 64, 0
2, 44230, Note_on_c, 0, 64, 44
2, 44267, Note_on_c, 0, 62, 0
2, 44342, Note_on_c, 0, 63, 44
2, 44361, Note_on_c, 0, 66, 0
2, 44375, Note_on_c, 0, 64, 0
2, 44379, Note_on_c, 0, 36, 0
2, 44389, Note_on_c, 0, 48, 0
2, 44454, Note_on_c, 0, 56, 44
2, 44487, Note_on_c, 0, 68, 0
2, 44558, Control_c, 0, 64, 0
2, 44584, Note_on_c, 0, 63, 0
2, 44604, Note_on_c, 0, 61, 48
2, 44604, Note_on_c, 0, 64, 61
2, 44604, Note_on_c, 0, 68, 61
2, 44621, Note_on_c, 0, 49, 48
2, 44625, Note_on_c, 0, 37, 48
2, 44755, Control_c, 0, 64, 127
2, 44771, Note_on_c, 0, 63, 48
2, 44776, Note_on_c, 0, 61, 0
2, 44776, Note_on_c, 0, 56, 0
2, 44865, Note_on_c, 0, 60, 48
2, 44872, Note_on_c, 0, 63, 0
2, 44930, Note_on_c, 0, 49, 0
2, 44996, Note_on_c, 0, 63, 44
2, 45005, Note_on_c, 0, 37, 0
2, 45015, Note_on_c, 0, 64, 0
2, 45046, Note_on_c, 0, 68, 0
2, 45111, Note_on_c, 0, 68, 61
2, 45125, Note_on_c, 0, 61, 44
2, 45160, Note_on_c, 0, 60, 0
2, 45218, Note_on_c, 0, 63, 0
2, 45287, Note_on_c, 0, 56, 44
2, 45308, Note_on_c, 0, 61, 0
2, 45336, Note_on_c, 0, 56, 0
2, 45408, Note_on_c, 0, 32, 44
2, 45470, Control_c, 0, 67, 127
2, 45530, Note_on_c, 0, 73, 52
2, 45542, Control_c, 0, 64, 0
2, 45603, Note_on_c, 0, 63, 39
2, 45620, Note_on_c, 0, 44, 39
2, 45725, Control_c, 0, 64, 127
2, 45765, Note_on_c, 0, 63, 0
2, 45774, Note_on_c, 0, 64, 39
2, 45784, Note_on_c, 0, 32, 0
2, 45894, Note_on_c, 0, 64, 0
2, 45903, Note_on_c, 0, 62, 39
2, 46028, Note_on_c, 0, 64, 39
2, 46034, Note_on_c, 0, 62, 0
2, 46080, Control_c, 0, 64, 0
2, 46114, Control_c, 0, 64, 127
2, 46142, Note_on_c, 0, 63, 39
2, 46161, Note_on_c, 0, 64, 0
2, 46215, Note_on_c, 0, 73, 0
2, 46283, Note_on_c, 0, 56, 44
2, 46405, Control_c, 0, 64, 0
2, 46421, Note_on_c, 0, 72, 44
2, 46517, Control_c, 0, 64, 127
2, 46566, Note_on_c, 0, 63, 0
2, 46579, Note_on_c, 0, 64, 33
2, 46665, Note_on_c, 0, 64, 0
2, 46675, Note_on_c, 0, 62, 33
2, 46771, Note_on_c, 0, 56, 0
2, 46808, Note_on_c, 0, 64, 33
2, 46815, Note_on_c, 0, 62, 0
2, 46920, Note_on_c, 0, 63, 33
2, 46942, Note_on_c, 0, 64, 0
2, 46953, Note_on_c, 0, 72, 0
2, 46953, Note_on_c, 0, 68, 0
2, 46984, Note_on_c, 0, 44, 0
2, 47066, Note_on_c, 0, 56, 33
2, 47111, Note_on_c, 0, 56, 0
2, 47136, Note_on_c, 0, 63, 0
2, 47244, Note_on_c, 0, 68, 48
2, 47244, Note_on_c, 0, 66, 48
2, 47252, Control_c, 0, 64, 0
2, 47270, Note_on_c, 0, 63, 39
2, 47272, Note_on_c, 0, 48, 39
2, 47272, Note_on_c, 0, 36, 39
2, 47403, Control_c, 0, 64, 127
2, 47406, Note_on_c, 0, 64, 39
2, 47481, Note_on_c, 0, 64, 0
2, 47495, Note_on_c, 0, 63, 0
2, 47533, Note_on_c, 0, 62, 39
2, 47655, Note_on_c, 0, 64, 39
2, 47673, Note_on_c, 0, 66, 0
2, 47743, Note_on_c, 0, 62, 0
2, 47767, Note_on_c, 0, 63, 33
2, 47785, Note_on_c, 0, 68, 0
2, 47785, Note_on_c, 0, 64, 0
2, 47785, Control_c, 0, 64, 0
2, 47821, Control_c, 0, 64, 127
2, 47831, Note_on_c, 0, 48, 0
2, 47832, Note_on_c, 0, 36, 0
2, 47912, Note_on_c, 0, 56, 33
2, 48067, Note_on_c, 0, 68, 48
2, 48093, Control_c, 0, 64, 0
2, 48114, Note_on_c, 0, 64, 43
2, 48114, Note_on_c, 0, 61, 43
2, 48117, Note_on_c, 0, 49, 43
2, 48119, Note_on_c, 0, 63, 0
2, 48119, Note_on_c, 0, 37, 43
2, 48135, Note_on_c, 0, 56, 0
2, 48208, Control_c, 0, 64, 127
2, 48257, Note_on_c, 0, 63, 42
2, 48360, Note_on_c, 0, 63, 0
2, 48360, Note_on_c, 0, 61, 0
2, 48385, Note_on_c, 0, 60, 39
2, 48496, Note_on_c, 0, 63, 39
2, 48501, Note_on_c, 0, 64, 0
2, 48515, Note_on_c, 0, 68, 0
2, 48528, Note_on_c, 0, 60, 0
2, 48646, Note_on_c, 0, 63, 0
2, 48648, Control_c, 0, 64, 0
2, 48670, Note_on_c, 0, 61, 39
2, 48670, Note_on_c, 0, 64, 39
2, 48670, Note_on_c, 0, 68, 39
2, 48772, Control_c, 0, 64, 127
2, 48813, Note_on_c, 0, 64, 0
2, 48836, Note_on_c, 0, 56, 39
2, 48840, Note_on_c, 0, 49, 0
2, 48857, Note_on_c, 0, 37, 0
2, 48866, Note_on_c, 0, 61, 0
2, 48894, Note_on_c, 0, 56, 0
2, 49195, Control_c, 0, 64, 0
2, 49251, Note_on_c, 0, 76, 28
2, 49251, Note_on_c, 0, 72, 28
2, 49268, Note_on_c, 0, 32, 39
2, 49268, Note_on_c, 0, 44, 39
2, 49417, Control_c, 0, 64, 127
2, 49427, Note_on_c, 0, 69, 39
2, 49474, Note_on_c, 0, 68, 0
2, 49582, Note_on_c, 0, 67, 39
2, 49600, Note_on_c, 0, 69, 0
2, 49629, Note_on_c, 0, 32, 0
2, 49710, Note_on_c, 0, 69, 39
2, 49729, Note_on_c, 0, 76, 0
2, 49785, Note_on_c, 0, 72, 0
2, 49785, Note_on_c, 0, 67, 0
2, 49837, Note_on_c, 0, 68, 39
2, 49870, Note_on_c, 0, 69, 0
2, 49949, Note_on_c, 0, 63, 39
2, 50092, Control_c, 0, 64, 0
2, 50116, Note_on_c, 0, 75, 34
2, 50130, Note_on_c, 0, 72, 34
2, 50214, Note_on_c, 0, 63, 0
2, 50240, Control_c, 0, 64, 127
2, 50266, Note_on_c, 0, 69, 35
2, 50315, Note_on_c, 0, 68, 0
2, 50381, Note_on_c, 0, 67, 33
2, 50385, Note_on_c, 0, 69, 0
2, 50491, Note_on_c, 0, 69, 33
2, 50507, Note_on_c, 0, 67, 0
2, 50620, Note_on_c, 0, 68, 33
2, 50639, Note_on_c, 0, 69, 0
2, 50641, Note_on_c, 0, 44, 0
2, 50666, Note_on_c, 0, 75, 0
2, 50723, Note_on_c, 0, 72, 0
2, 50723, Note_on_c, 0, 68, 0
2, 50763, Note_on_c, 0, 56, 33
2, 50856, Note_on_c, 0, 56, 0
2, 50897, Control_c, 0, 64, 0
2, 50908, Note_on_c, 0, 68, 39
2, 50920, Note_on_c, 0, 66, 39
2, 50934, Note_on_c, 0, 36, 43
2, 50934, Note_on_c, 0, 48, 43
2, 50934, Note_on_c, 0, 63, 43
2, 51047, Control_c, 0, 64, 127
2, 51074, Note_on_c, 0, 64, 39
2, 51108, Note_on_c, 0, 63, 0
2, 51171, Note_on_c, 0, 62, 39
2, 51178, Note_on_c, 0, 64, 0
2, 51269, Note_on_c, 0, 64, 39
2, 51290, Note_on_c, 0, 62, 0
2, 51368, Note_on_c, 0, 63, 39
2, 51386, Note_on_c, 0, 66, 0
2, 51401, Note_on_c, 0, 64, 0
2, 51401, Control_c, 0, 67, 0
2, 51414, Note_on_c, 0, 48, 0
2, 51445, Note_on_c, 0, 68, 0
2, 51502, Note_on_c, 0, 56, 44
2, 51520, Note_on_c, 0, 63, 0
2, 51551, Note_on_c, 0, 56, 0
2, 51602, Note_on_c, 0, 65, 53
2, 51602, Note_on_c, 0, 68, 53
2, 51602, Note_on_c, 0, 71, 53
2, 51617, Control_c, 0, 64, 0
2, 51625, Note_on_c, 0, 39, 44
2, 51628, Note_on_c, 0, 51, 44
2, 51645, Note_on_c, 0, 36, 0
2, 51745, Note_on_c, 0, 66, 44
2, 51757, Control_c, 0, 64, 127
2, 51806, Note_on_c, 0, 65, 0
2, 51856, Note_on_c, 0, 64, 44
2, 51863, Note_on_c, 0, 66, 0
2, 51890, Note_on_c, 0, 68, 0
2, 51959, Note_on_c, 0, 66, 44
2, 51965, Note_on_c, 0, 71, 0
2, 52017, Note_on_c, 0, 65, 61
2, 52029, Note_on_c, 0, 71, 61
2, 52029, Note_on_c, 0, 68, 61
2, 52048, Note_on_c, 0, 66, 0
2, 52061, Note_on_c, 0, 51, 0
2, 52061, Note_on_c, 0, 64, 0
2, 52137, Note_on_c, 0, 59, 48
2, 52155, Note_on_c, 0, 71, 0
2, 52172, Note_on_c, 0, 68, 0
2, 52172, Note_on_c, 0, 65, 0
2, 52224, Note_on_c, 0, 71, 65
2, 52238, Note_on_c, 0, 68, 65
2, 52238, Control_c, 0, 64, 0
2, 52240, Note_on_c, 0, 39, 0
2, 52249, Note_on_c, 0, 65, 48
2, 52249, Note_on_c, 0, 50, 48
2, 52261, Note_on_c, 0, 38, 48
2, 52344, Control_c, 0, 64, 127
2, 52347, Note_on_c, 0, 59, 0
2, 52402, Note_on_c, 0, 66, 44
2, 52418, Note_on_c, 0, 65, 0
2, 52477, Note_on_c, 0, 66, 0
2, 52484, Note_on_c, 0, 64, 44
2, 52547, Note_on_c, 0, 68, 0
2, 52573, Note_on_c, 0, 66, 44
2, 52578, Note_on_c, 0, 71, 0
2, 52589, Note_on_c, 0, 38, 0
2, 52591, Note_on_c, 0, 64, 0
2, 52648, Note_on_c, 0, 65, 61
2, 52648, Note_on_c, 0, 68, 61
2, 52648, Note_on_c, 0, 70, 61
2, 52667, Note_on_c, 0, 66, 0
2, 52706, Note_on_c, 0, 50, 0
2, 52749, Note_on_c, 0, 68, 0
2, 52749, Note_on_c, 0, 65, 0
2, 52749, Note_on_c, 0, 70, 0
2, 52755, Note_on_c, 0, 58, 48
2, 52805, Note_on_c, 0, 58, 0
2, 52817, Note_on_c, 0, 73, 61
2, 52826, Note_on_c, 0, 41, 48
2, 52828, Note_on_c, 0, 53, 48
2, 52828, Control_c, 0, 64, 0
2, 52830, Note_on_c, 0, 70, 61
2, 52845, Note_on_c, 0, 67, 48
2, 52936, Control_c, 0, 64, 127
2, 52944, Note_on_c, 0, 68, 44
2, 52973, Note_on_c, 0, 67, 0
2, 53041, Note_on_c, 0, 66, 44
2, 53046, Note_on_c, 0, 68, 0
2, 53091, Note_on_c, 0, 70, 0
2, 53114, Note_on_c, 0, 68, 44
2, 53133, Note_on_c, 0, 73, 0
2, 53183, Note_on_c, 0, 73, 61
2, 53183, Note_on_c, 0, 70, 61
2, 53194, Note_on_c, 0, 67, 61
2, 53199, Note_on_c, 0, 66, 0
2, 53253, Note_on_c, 0, 68, 0
2, 53276, Note_on_c, 0, 61, 48
2, 53279, Note_on_c, 0, 41, 0
2, 53321, Note_on_c, 0, 67, 0
2, 53334, Note_on_c, 0, 73, 0
2, 53334, Note_on_c, 0, 70, 0
2, 53347, Note_on_c, 0, 53, 0
2, 53368, Control_c, 0, 64, 0
2, 53370, Note_on_c, 0, 70, 76
2, 53370, Note_on_c, 0, 67, 76
2, 53373, Note_on_c, 0, 73, 76
2, 53381, Note_on_c, 0, 52, 52
2, 53394, Note_on_c, 0, 40, 55
2, 53417, Note_on_c, 0, 61, 0
2, 53477, Control_c, 0, 64, 127
2, 53508, Note_on_c, 0, 68, 56
2, 53527, Note_on_c, 0, 67, 0
2, 53567, Note_on_c, 0, 66, 52
2, 53586, Note_on_c, 0, 68, 0
2, 53649, Note_on_c, 0, 68, 52
2, 53654, Note_on_c, 0, 70, 0
2, 53698, Note_on_c, 0, 73, 0
2, 53698, Note_on_c, 0, 66, 0
2, 53742, Note_on_c, 0, 72, 68
2, 53742, Note_on_c, 0, 70, 68
2, 53752, Note_on_c, 0, 67, 68
2, 53771, Note_on_c, 0, 40, 0
2, 53773, Note_on_c, 0, 68, 0
2, 53815, Note_on_c, 0, 52, 0
2, 53853, Note_on_c, 0, 60, 52
2, 53857, Note_on_c, 0, 72, 0
2, 53885, Note_on_c, 0, 67, 0
2, 53885, Note_on_c, 0, 70, 0
2, 53914, Note_on_c, 0, 60, 0
2, 53952, Note_on_c, 0, 43, 60
2, 53965, Control_c, 0, 64, 0
2, 53968, Note_on_c, 0, 55, 60
2, 53968, Note_on_c, 0, 69, 76
2, 53968, Note_on_c, 0, 72, 76
2, 53973, Note_on_c, 0, 75, 76
2, 54087, Note_on_c, 0, 70, 53
2, 54122, Control_c, 0, 64, 127
2, 54171, Note_on_c, 0, 68, 52
2, 54192, Note_on_c, 0, 70, 0
2, 54207, Note_on_c, 0, 69, 0
2, 54261, Note_on_c, 0, 70, 52
2, 54277, Note_on_c, 0, 43, 0
2, 54277, Note_on_c, 0, 55, 0
2, 54293, Note_on_c, 0, 75, 0
2, 54322, Note_on_c, 0, 72, 0
2, 54364, Note_on_c, 0, 68, 0
2, 54366, Note_on_c, 0, 42, 60
2, 54371, Note_on_c, 0, 54, 60
2, 54373, Note_on_c, 0, 69, 76
2, 54373, Note_on_c, 0, 72, 76
2, 54373, Note_on_c, 0, 75, 76
2, 54404, Note_on_c, 0, 70, 0
2, 54493, Note_on_c, 0, 63, 53
2, 54526, Note_on_c, 0, 75, 0
2, 54537, Note_on_c, 0, 54, 0
2, 54540, Note_on_c, 0, 72, 0
2, 54570, Note_on_c, 0, 69, 0
2, 54582, Note_on_c, 0, 63, 0
2, 54594, Note_on_c, 0, 42, 0
2, 54615, Note_on_c, 0, 39, 64
2, 54617, Note_on_c, 0, 51, 64
2, 54620, Note_on_c, 0, 72, 95
2, 54620, Note_on_c, 0, 69, 95
2, 54622, Note_on_c, 0, 78, 95
2, 54628, Control_c, 0, 64, 0
2, 54737, Note_on_c, 0, 72, 0
2, 54742, Control_c, 0, 64, 127
2, 54789, Note_on_c, 0, 70, 52
2, 54838, Note_on_c, 0, 69, 0
2, 54891, Note_on_c, 0, 68, 52
2, 54911, Note_on_c, 0, 70, 0
2, 54990, Note_on_c, 0, 70, 52
2, 55091, Note_on_c, 0, 69, 52
2, 55126, Note_on_c, 0, 70, 0
2, 55156, Note_on_c, 0, 78, 0
2, 55213, Note_on_c, 0, 68, 0
2, 55220, Note_on_c, 0, 66, 52
2, 55257, Note_on_c, 0, 69, 0
2, 55275, Control_c, 0, 64, 0
2, 55322, Note_on_c, 0, 69, 68
2, 55322, Note_on_c, 0, 72, 68
2, 55322, Note_on_c, 0, 77, 68
2, 55415, Note_on_c, 0, 72, 0
2, 55433, Note_on_c, 0, 70, 51
2, 55454, Note_on_c, 0, 69, 0
2, 55454, Control_c, 0, 64, 127
2, 55494, Note_on_c, 0, 66, 0
2, 55560, Note_on_c, 0, 68, 44
2, 55564, Note_on_c, 0, 70, 0
2, 55656, Note_on_c, 0, 70, 44
2, 55717, Note_on_c, 0, 68, 0
2, 55761, Note_on_c, 0, 77, 0
2, 55768, Note_on_c, 0, 69, 44
2, 55869, Note_on_c, 0, 39, 0
2, 55881, Note_on_c, 0, 66, 44
2, 55885, Note_on_c, 0, 70, 0
2, 55897, Note_on_c, 0, 51, 0
2, 55899, Note_on_c, 0, 69, 0
2, 55935, Note_on_c, 0, 38, 44
2, 55977, Note_on_c, 0, 50, 44
2, 56019, Control_c, 0, 64, 0
2, 56036, Note_on_c, 0, 65, 61
2, 56036, Note_on_c, 0, 68, 61
2, 56036, Note_on_c, 0, 70, 61
2, 56040, Note_on_c, 0, 66, 0
2, 56166, Control_c, 0, 64, 127
2, 56275, Note_on_c, 0, 66, 44
2, 56307, Note_on_c, 0, 65, 0
2, 56371, Note_on_c, 0, 64, 44
2, 56392, Note_on_c, 0, 66, 0
2, 56488, Note_on_c, 0, 66, 44
2, 56520, Note_on_c, 0, 64, 0
2, 56582, Note_on_c, 0, 65, 44
2, 56642, Note_on_c, 0, 68, 0
2, 56657, Note_on_c, 0, 70, 0
2, 56685, Note_on_c, 0, 50, 0
2, 56691, Note_on_c, 0, 58, 44
2, 56725, Note_on_c, 0, 66, 0
2, 56725, Note_on_c, 0, 65, 0
2, 56805, Note_on_c, 0, 49, 44
2, 56805, Control_c, 0, 64, 0
2, 56807, Note_on_c, 0, 64, 68
2, 56807, Note_on_c, 0, 68, 68
2, 56807, Note_on_c, 0, 70, 68
2, 56816, Note_on_c, 0, 37, 44
2, 56837, Note_on_c, 0, 38, 0
2, 56956, Control_c, 0, 64, 127
2, 56976, Note_on_c, 0, 66, 44
2, 56994, Note_on_c, 0, 58, 0
2, 57081, Note_on_c, 0, 64, 0
2, 57091, Note_on_c, 0, 63, 44
2, 57093, Note_on_c, 0, 66, 0
2, 57189, Note_on_c, 0, 66, 44
2, 57224, Note_on_c, 0, 68, 0
2, 57240, Note_on_c, 0, 70, 0
2, 57289, Note_on_c, 0, 70, 68
2, 57304, Note_on_c, 0, 67, 68
2, 57304, Note_on_c, 0, 64, 68
2, 57325, Note_on_c, 0, 63, 0
2, 57393, Note_on_c, 0, 49, 0
2, 57449, Note_on_c, 0, 58, 44
2, 57468, Note_on_c, 0, 70, 0
2, 57481, Note_on_c, 0, 67, 0
2, 57481, Note_on_c, 0, 64, 0
2, 57540, Note_on_c, 0, 66, 0
2, 57566, Note_on_c, 0, 37, 0
2, 57606, Note_on_c, 0, 64, 65
2, 57606, Note_on_c, 0, 48, 56
2, 57608, Note_on_c, 0, 70, 65
2, 57608, Note_on_c, 0, 67, 65
2, 57618, Note_on_c, 0, 36, 59
2, 57620, Control_c, 0, 64, 0
2, 57772, Note_on_c, 0, 65, 47
2, 57777, Note_on_c, 0, 58, 0
2, 57796, Control_c, 0, 64, 127
2, 57819, Note_on_c, 0, 64, 0
2, 57888, Note_on_c, 0, 62, 44
2, 57892, Note_on_c, 0, 65, 0
2, 58000, Note_on_c, 0, 65, 44
2, 58007, Note_on_c, 0, 62, 0
2, 58019, Note_on_c, 0, 67, 0
2, 58099, Note_on_c, 0, 64, 44
2, 58122, Note_on_c, 0, 65, 0
2, 58213, Note_on_c, 0, 58, 44
2, 58218, Note_on_c, 0, 64, 0
2, 58246, Note_on_c, 0, 70, 0
2, 58330, Control_c, 0, 64, 0
2, 58330, Note_on_c, 0, 66, 53
2, 58330, Note_on_c, 0, 69, 53
2, 58343, Note_on_c, 0, 63, 44
2, 58413, Note_on_c, 0, 58, 0
2, 58466, Note_on_c, 0, 65, 44
2, 58466, Control_c, 0, 64, 127
2, 58567, Note_on_c, 0, 65, 0
2, 58590, Note_on_c, 0, 62, 44
2, 58598, Note_on_c, 0, 63, 0
2, 58691, Note_on_c, 0, 65, 44
2, 58795, Note_on_c, 0, 62, 0
2, 58801, Note_on_c, 0, 63, 44
2, 58837, Note_on_c, 0, 65, 0
2, 58914, Note_on_c, 0, 48, 0
2, 58923, Note_on_c, 0, 57, 48
2, 58943, Note_on_c, 0, 63, 0
2, 58970, Note_on_c, 0, 69, 0
2, 58970, Note_on_c, 0, 66, 0
2, 58982, Note_on_c, 0, 36, 0
2, 59062, Note_on_c, 0, 47, 48
2, 59062, Note_on_c, 0, 66, 44
2, 59062, Note_on_c, 0, 69, 44
2, 59062, Note_on_c, 0, 35, 48
2, 59064, Note_on_c, 0, 63, 48
2, 59066, Control_c, 0, 64, 0
2, 59125, Note_on_c, 0, 57, 0
2, 59247, Note_on_c, 0, 65, 44
2, 59263, Control_c, 0, 64, 127
2, 59292, Note_on_c, 0, 63, 0
2, 59304, Control_c, 0, 67, 127
2, 59359, Note_on_c, 0, 62, 39
2, 59395, Note_on_c, 0, 65, 0
2, 59447, Note_on_c, 0, 65, 39
2, 59453, Note_on_c, 0, 66, 0
2, 59496, Note_on_c, 0, 62, 0
2, 59549, Note_on_c, 0, 69, 0
2, 59575, Note_on_c, 0, 63, 39
2, 59608, Note_on_c, 0, 65, 0
2, 59676, Note_on_c, 0, 57, 39
2, 59791, Note_on_c, 0, 65, 39
2, 59796, Control_c, 0, 64, 0
2, 59805, Note_on_c, 0, 68, 39
2, 59805, Note_on_c, 0, 62, 39
2, 59824, Note_on_c, 0, 57, 0
2, 59824, Note_on_c, 0, 63, 0
2, 59960, Note_on_c, 0, 63, 39
2, 59981, Control_c, 0, 64, 127
2, 59995, Note_on_c, 0, 62, 0
2, 60086, Note_on_c, 0, 61, 39
2, 60091, Note_on_c, 0, 63, 0
2, 60194, Note_on_c, 0, 65, 0
2, 60201, Note_on_c, 0, 63, 39
2, 60222, Note_on_c, 0, 68, 0
2, 60279, Note_on_c, 0, 61, 0
2, 60330, Note_on_c, 0, 62, 39
2, 60330, Note_on_c, 0, 65, 39
2, 60330, Note_on_c, 0, 68, 39
2, 60478, Note_on_c, 0, 63, 0
2, 60489, Note_on_c, 0, 56, 39
2, 60520, Note_on_c, 0, 65, 0
2, 60536, Note_on_c, 0, 62, 0
2, 60578, Note_on_c, 0, 68, 0
2, 60595, Note_on_c, 0, 47, 0
2, 60668, Note_on_c, 0, 35, 0
2, 60715, Note_on_c, 0, 68, 39
2, 60724, Control_c, 0, 64, 0
2, 60729, Note_on_c, 0, 64, 39
2, 60731, Note_on_c, 0, 61, 39
2, 60731, Note_on_c, 0, 46, 39
2, 60733, Note_on_c, 0, 34, 39
2, 60837, Note_on_c, 0, 56, 0
2, 60931, Note_on_c, 0, 63, 39
2, 60937, Control_c, 0, 64, 127
2, 61033, Note_on_c, 0, 63, 0
2, 61045, Note_on_c, 0, 60, 39
2, 61064, Note_on_c, 0, 61, 0
2, 61170, Note_on_c, 0, 63, 39
2, 61175, Note_on_c, 0, 60, 0
2, 61204, Note_on_c, 0, 64, 0
2, 61207, Control_c, 0, 64, 0
2, 61240, Control_c, 0, 64, 127
2, 61272, Note_on_c, 0, 61, 39
2, 61388, Note_on_c, 0, 61, 0
2, 61397, Note_on_c, 0, 56, 39
2, 61399, Note_on_c, 0, 63, 0
2, 61469, Note_on_c, 0, 56, 0
2, 61481, Note_on_c, 0, 68, 0
2, 61502, Control_c, 0, 64, 0
2, 61505, Note_on_c, 0, 67, 39
2, 61507, Note_on_c, 0, 64, 39
2, 61507, Note_on_c, 0, 61, 39
2, 61632, Note_on_c, 0, 63, 39
2, 61659, Control_c, 0, 64, 127
2, 61749, Note_on_c, 0, 63, 0
2, 61758, Note_on_c, 0, 60, 39
2, 61851, Note_on_c, 0, 46, 0
2, 61872, Note_on_c, 0, 63, 39
2, 61908, Note_on_c, 0, 61, 0
2, 61965, Note_on_c, 0, 60, 0
2, 61999, Note_on_c, 0, 61, 39
2, 62035, Note_on_c, 0, 63, 0
2, 62145, Note_on_c, 0, 55, 39
2, 62147, Note_on_c, 0, 67, 0
2, 62147, Note_on_c, 0, 64, 0
2, 62161, Note_on_c, 0, 61, 0
2, 62306, Note_on_c, 0, 34, 0
2, 62339, Note_on_c, 0, 67, 39
2, 62339, Note_on_c, 0, 64, 39
2, 62351, Control_c, 0, 64, 0
2, 62353, Note_on_c, 0, 61, 43
2, 62355, Note_on_c, 0, 45, 43
2, 62358, Note_on_c, 0, 33, 43
2, 62400, Note_on_c, 0, 55, 0
2, 62503, Note_on_c, 0, 63, 39
2, 62527, Control_c, 0, 64, 127
2, 62614, Note_on_c, 0, 60, 39
2, 62618, Note_on_c, 0, 63, 0
2, 62635, Note_on_c, 0, 61, 0
2, 62731, Note_on_c, 0, 63, 39
2, 62750, Note_on_c, 0, 64, 0
2, 62794, Note_on_c, 0, 60, 0
2, 62846, Note_on_c, 0, 61, 39
2, 62879, Note_on_c, 0, 63, 0
2, 62960, Note_on_c, 0, 55, 39
2, 62975, Note_on_c, 0, 67, 0
2, 63019, Note_on_c, 0, 61, 0
2, 63073, Note_on_c, 0, 60, 39
2, 63073, Note_on_c, 0, 64, 44
2, 63073, Note_on_c, 0, 67, 44
2, 63085, Control_c, 0, 64, 0
2, 63195, Control_c, 0, 64, 127
2, 63197, Note_on_c, 0, 62, 39
2, 63233, Note_on_c, 0, 55, 0
2, 63317, Note_on_c, 0, 62, 0
2, 63329, Note_on_c, 0, 59, 39
2, 63334, Note_on_c, 0, 60, 0
2, 63457, Note_on_c, 0, 62, 39
2, 63488, Note_on_c, 0, 64, 0
2, 63498, Note_on_c, 0, 67, 0
2, 63581, Note_on_c, 0, 67, 56
2, 63594, Note_on_c, 0, 64, 56
2, 63596, Note_on_c, 0, 60, 39
2, 63600, Note_on_c, 0, 59, 0
2, 63727, Note_on_c, 0, 62, 0
2, 63753, Note_on_c, 0, 55, 39
2, 63784, Note_on_c, 0, 64, 0
2, 63825, Note_on_c, 0, 67, 0
2, 63828, Note_on_c, 0, 60, 0
2, 63994, Control_c, 0, 64, 0
2, 64008, Note_on_c, 0, 67, 48
2, 64008, Note_on_c, 0, 63, 43
2, 64010, Note_on_c, 0, 59, 43
2, 64044, Note_on_c, 0, 55, 0
2, 64187, Control_c, 0, 64, 127
2, 64233, Note_on_c, 0, 60, 39
2, 64320, Note_on_c, 0, 59, 0
2, 64358, Note_on_c, 0, 58, 39
2, 64363, Note_on_c, 0, 60, 0
2, 64485, Note_on_c, 0, 60, 39
2, 64503, Note_on_c, 0, 58, 0
2, 64517, Note_on_c, 0, 63, 0
2, 64543, Note_on_c, 0, 67, 0
2, 64564, Control_c, 0, 64, 0
2, 64597, Control_c, 0, 64, 127
2, 64611, Note_on_c, 0, 59, 39
2, 64646, Note_on_c, 0, 60, 0
2, 64730, Note_on_c, 0, 59, 0
2, 64737, Note_on_c, 0, 54, 39
2, 64867, Note_on_c, 0, 66, 39
2, 64867, Note_on_c, 0, 63, 39
2, 64880, Note_on_c, 0, 59, 39
2, 64890, Control_c, 0, 64, 0
2, 65036, Note_on_c, 0, 60, 33
2, 65047, Control_c, 0, 64, 127
2, 65057, Note_on_c, 0, 54, 0
2, 65082, Note_on_c, 0, 59, 0
2, 65161, Note_on_c, 0, 58, 33
2, 65166, Note_on_c, 0, 60, 0
2, 65275, Note_on_c, 0, 60, 33
2, 65296, Note_on_c, 0, 58, 0
2, 65399, Note_on_c, 0, 59, 33
2, 65434, Note_on_c, 0, 60, 0
2, 65450, Note_on_c, 0, 45, 0
2, 65546, Note_on_c, 0, 54, 33
2, 65551, Note_on_c, 0, 63, 0
2, 65563, Note_on_c, 0, 59, 0
2, 65591, Note_on_c, 0, 66, 0
2, 65664, Note_on_c, 0, 33, 0
2, 65724, Note_on_c, 0, 66, 39
2, 65736, Control_c, 0, 64, 0
2, 65738, Note_on_c, 0, 62, 43
2, 65753, Note_on_c, 0, 58, 43
2, 65753, Note_on_c, 0, 46, 43
2, 65755, Note_on_c, 0, 34, 43
2, 65760, Note_on_c, 0, 54, 0
2, 65905, Note_on_c, 0, 59, 39
2, 65954, Control_c, 0, 64, 127
2, 66023, Note_on_c, 0, 59, 0
2, 66023, Note_on_c, 0, 58, 0
2, 66029, Note_on_c, 0, 57, 39
2, 66163, Note_on_c, 0, 59, 39
2, 66212, Note_on_c, 0, 57, 0
2, 66306, Note_on_c, 0, 58, 39
2, 66312, Note_on_c, 0, 59, 0
2, 66381, Note_on_c, 0, 62, 0
2, 66395, Note_on_c, 0, 66, 0
2, 66421, Note_on_c, 0, 53, 39
2, 66426, Note_on_c, 0, 58, 0
2, 66550, Note_on_c, 0, 65, 39
2, 66559, Control_c, 0, 64, 0
2, 66566, Note_on_c, 0, 62, 43
2, 66577, Note_on_c, 0, 58, 43
2, 66599, Note_on_c, 0, 53, 0
2, 66673, Control_c, 0, 64, 127
2, 66707, Note_on_c, 0, 59, 43
2, 66751, Note_on_c, 0, 58, 0
2, 66845, Note_on_c, 0, 57, 39
2, 66850, Note_on_c, 0, 59, 0
2, 66985, Note_on_c, 0, 59, 39
2, 67032, Note_on_c, 0, 57, 0
2, 67047, Note_on_c, 0, 62, 0
2, 67047, Note_on_c, 0, 65, 0
2, 67047, Control_c, 0, 64, 0
2, 67080, Control_c, 0, 64, 127
2, 67128, Control_c, 0, 64, 0
2, 67140, Note_on_c, 0, 65, 44
2, 67154, Note_on_c, 0, 62, 39
2, 67174, Note_on_c, 0, 58, 39
2, 67176, Note_on_c, 0, 59, 0
2, 67286, Control_c, 0, 64, 127
2, 67340, Note_on_c, 0, 53, 39
2, 67384, Note_on_c, 0, 53, 0
2, 67410, Note_on_c, 0, 65, 0
2, 67478, Note_on_c, 0, 58, 0
2, 67481, Note_on_c, 0, 62, 0
2, 67506, Control_c, 0, 64, 0
2, 67548, Note_on_c, 0, 65, 44
2, 67560, Note_on_c, 0, 60, 39
2, 67560, Note_on_c, 0, 57, 39
2, 67691, Control_c, 0, 64, 127
2, 67717, Note_on_c, 0, 58, 33
2, 67722, Note_on_c, 0, 57, 0
2, 67722, Note_on_c, 0, 60, 0
2, 67850, Note_on_c, 0, 58, 0
2, 67858, Note_on_c, 0, 56, 33
2, 68031, Note_on_c, 0, 58, 33
2, 68050, Note_on_c, 0, 56, 0
2, 68174, Note_on_c, 0, 58, 0
2, 68198, Note_on_c, 0, 57, 33
2, 68258, Note_on_c, 0, 57, 0
2, 68378, Note_on_c, 0, 53, 33
2, 68493, Note_on_c, 0, 65, 0
2, 68556, Control_c, 0, 64, 0
2, 68561, Note_on_c, 0, 53, 0
2, 68570, Note_on_c, 0, 58, 39
2, 68570, Note_on_c, 0, 62, 39
2, 68570, Note_on_c, 0, 65, 34
2, 68765, Note_on_c, 0, 59, 43
2, 68772, Note_on_c, 0, 58, 0
2, 68955, Note_on_c, 0, 57, 33
2, 68974, Note_on_c, 0, 59, 0
2, 69201, Note_on_c, 0, 59, 33
2, 69206, Note_on_c, 0, 57, 0
2, 69459, Note_on_c, 0, 58, 33
2, 69480, Note_on_c, 0, 59, 0
2, 69768, Control_c, 0, 64, 127
2, 69853, Note_on_c, 0, 53, 33
2, 69930, Note_on_c, 0, 53, 0
2, 69954, Note_on_c, 0, 34, 0
2, 70001, Note_on_c, 0, 58, 0
2, 70017, Note_on_c, 0, 46, 0
2, 70035, Note_on_c, 0, 62, 0
2, 70061, Note_on_c, 0, 65, 0
2, 70533, Control_c, 0, 64, 0
2, 70577, Note_on_c, 0, 66, 33
2, 70586, Note_on_c, 0, 51, 33
2, 70589, Note_on_c, 0, 58, 33
2, 70814, Note_on_c, 0, 59, 33
2, 70833, Note_on_c, 0, 58, 0
2, 70973, Note_on_c, 0, 57, 33
2, 70992, Note_on_c, 0, 59, 0
2, 71147, Note_on_c, 0, 59, 33
2, 71149, Note_on_c, 0, 57, 0
2, 71285, Note_on_c, 0, 58, 33
2, 71287, Note_on_c, 0, 59, 0
2, 71419, Note_on_c, 0, 54, 33
2, 71424, Note_on_c, 0, 58, 0
2, 71552, Note_on_c, 0, 58, 33
2, 71583, Note_on_c, 0, 54, 0
2, 71698, Note_on_c, 0, 58, 0
2, 71705, Note_on_c, 0, 59, 33
2, 71850, Note_on_c, 0, 57, 33
2, 71857, Note_on_c, 0, 59, 0
2, 72024, Note_on_c, 0, 59, 33
2, 72028, Note_on_c, 0, 57, 0
2, 72155, Note_on_c, 0, 58, 33
2, 72160, Note_on_c, 0, 59, 0
2, 72212, Note_on_c, 0, 65, 44
2, 72246, Note_on_c, 0, 66, 0
2, 72396, Control_c, 0, 64, 127
2, 72455, Note_on_c, 0, 63, 39
2, 72472, Note_on_c, 0, 58, 0
2, 72472, Note_on_c, 0, 65, 0
2, 72500, Note_on_c, 0, 51, 0
2, 72534, Note_on_c, 0, 53, 33
2, 72622, Note_on_c, 0, 59, 33
2, 72690, Control_c, 0, 64, 0
2, 72706, Note_on_c, 0, 70, 44
2, 72882, Control_c, 0, 64, 127
2, 72903, Note_on_c, 0, 61, 33
2, 72938, Note_on_c, 0, 59, 0
2, 73046, Note_on_c, 0, 58, 33
2, 73080, Note_on_c, 0, 61, 0
2, 73156, Note_on_c, 0, 61, 33
2, 73191, Note_on_c, 0, 58, 0
2, 73287, Note_on_c, 0, 59, 33
2, 73345, Note_on_c, 0, 61, 0
2, 73425, Note_on_c, 0, 56, 33
2, 73430, Note_on_c, 0, 59, 0
2, 73491, Control_c, 0, 64, 0
2, 73522, Note_on_c, 0, 68, 39
2, 73529, Note_on_c, 0, 70, 0
2, 73534, Note_on_c, 0, 59, 33
2, 73625, Note_on_c, 0, 63, 0
2, 73662, Note_on_c, 0, 61, 33
2, 73686, Control_c, 0, 64, 127
2, 73726, Note_on_c, 0, 56, 0
2, 73768, Note_on_c, 0, 59, 0
2, 73805, Note_on_c, 0, 58, 33
2, 73852, Note_on_c, 0, 61, 0
2, 73864, Note_on_c, 0, 53, 0
2, 73929, Note_on_c, 0, 61, 33
2, 73934, Note_on_c, 0, 58, 0
2, 74061, Note_on_c, 0, 59, 33
2, 74204, Note_on_c, 0, 56, 33
2, 74220, Note_on_c, 0, 59, 0
2, 74220, Note_on_c, 0, 61, 0
2, 74244, Note_on_c, 0, 65, 56
2, 74251, Note_on_c, 0, 68, 0
2, 74403, Control_c, 0, 64, 0
2, 74405, Note_on_c, 0, 50, 39
2, 74422, Note_on_c, 0, 71, 60
2, 74636, Control_c, 0, 64, 127
2, 74682, Note_on_c, 0, 58, 39
2, 74687, Note_on_c, 0, 56, 0
2, 74795, Note_on_c, 0, 55, 39
2, 74841, Note_on_c, 0, 58, 0
2, 74933, Note_on_c, 0, 58, 39
2, 74982, Note_on_c, 0, 55, 0
2, 75020, Control_c, 0, 64, 0
2, 75052, Control_c, 0, 64, 127
2, 75064, Note_on_c, 0, 56, 39
2, 75085, Note_on_c, 0, 58, 0
2, 75198, Note_on_c, 0, 53, 39
2, 75207, Note_on_c, 0, 56, 0
2, 75329, Note_on_c, 0, 56, 39
2, 75348, Note_on_c, 0, 53, 0
2, 75358, Control_c, 0, 64, 0
2, 75472, Note_on_c, 0, 58, 39
2, 75491, Note_on_c, 0, 56, 0
2, 75601, Note_on_c, 0, 58, 0
2, 75610, Note_on_c, 0, 55, 39
2, 75768, Note_on_c, 0, 58, 39
2, 75800, Note_on_c, 0, 55, 0
2, 75891, Note_on_c, 0, 56, 39
2, 75927, Note_on_c, 0, 58, 0
2, 75936, Note_on_c, 0, 70, 39
2, 75938, Note_on_c, 0, 71, 0
2, 76052, Control_c, 0, 64, 127
2, 76107, Note_on_c, 0, 65, 0
2, 76152, Note_on_c, 0, 50, 0
2, 76161, Note_on_c, 0, 65, 34
2, 76208, Note_on_c, 0, 70, 0
2, 76248, Note_on_c, 0, 56, 0
2, 76316, Control_c, 0, 64, 0
2, 76349, Control_c, 0, 64, 127
2, 76405, Control_c, 0, 64, 0
2, 76416, Note_on_c, 0, 70, 44
2, 76457, Note_on_c, 0, 55, 39
2, 76457, Note_on_c, 0, 49, 39
2, 76459, Note_on_c, 0, 64, 39
2, 76492, Note_on_c, 0, 65, 0
2, 76642, Note_on_c, 0, 56, 39
2, 76691, Note_on_c, 0, 55, 0
2, 76787, Note_on_c, 0, 54, 39
2, 76790, Note_on_c, 0, 56, 0
2, 76914, Note_on_c, 0, 56, 39
2, 76933, Note_on_c, 0, 54, 0
2, 77052, Note_on_c, 0, 55, 39
2, 77088, Note_on_c, 0, 56, 0
2, 77182, Note_on_c, 0, 52, 39
2, 77244, Note_on_c, 0, 55, 0
2, 77322, Note_on_c, 0, 55, 39
2, 77366, Note_on_c, 0, 52, 0
2, 77455, Note_on_c, 0, 56, 33
2, 77505, Note_on_c, 0, 55, 0
2, 77587, Note_on_c, 0, 54, 33
2, 77592, Note_on_c, 0, 56, 0
2, 77728, Note_on_c, 0, 56, 33
2, 77760, Note_on_c, 0, 64, 0
2, 77866, Note_on_c, 0, 55, 34
2, 77870, Note_on_c, 0, 54, 0
2, 77931, Note_on_c, 0, 56, 0
2, 77933, Control_c, 0, 64, 127
2, 77990, Note_on_c, 0, 49, 0
2, 78037, Note_on_c, 0, 63, 56
2, 78198, Note_on_c, 0, 47, 39
2, 78248, Control_c, 0, 64, 0
2, 78264, Note_on_c, 0, 75, 39
2, 78455, Control_c, 0, 64, 127
2, 78478, Note_on_c, 0, 70, 0
2, 78489, Note_on_c, 0, 56, 39
2, 78536, Note_on_c, 0, 55, 0
2, 78632, Note_on_c, 0, 54, 39
2, 78639, Note_on_c, 0, 56, 0
2, 78773, Note_on_c, 0, 56, 39
2, 78792, Note_on_c, 0, 54, 0
2, 78900, Note_on_c, 0, 55, 39
2, 78918, Note_on_c, 0, 56, 0
2, 79029, Note_on_c, 0, 51, 39
2, 79078, Note_on_c, 0, 55, 0
2, 79183, Control_c, 0, 64, 0
2, 79200, Note_on_c, 0, 56, 39
2, 79235, Note_on_c, 0, 51, 0
2, 79333, Control_c, 0, 64, 127
2, 79366, Note_on_c, 0, 58, 39
2, 79413, Note_on_c, 0, 56, 0
2, 79476, Control_c, 0, 64, 0
2, 79492, Note_on_c, 0, 73, 44
2, 79507, Note_on_c, 0, 55, 43
2, 79509, Note_on_c, 0, 75, 0
2, 79512, Note_on_c, 0, 58, 0
2, 79659, Note_on_c, 0, 71, 39
2, 79702, Note_on_c, 0, 58, 33
2, 79704, Note_on_c, 0, 73, 0
2, 79778, Note_on_c, 0, 55, 0
2, 79853, Note_on_c, 0, 68, 39
2, 79874, Note_on_c, 0, 71, 0
2, 79877, Note_on_c, 0, 63, 0
2, 79898, Note_on_c, 0, 56, 39
2, 79920, Note_on_c, 0, 58, 0
2, 80041, Control_c, 0, 64, 127
2, 80081, Note_on_c, 0, 63, 39
2, 80100, Note_on_c, 0, 68, 0
2, 80147, Note_on_c, 0, 56, 0
2, 80191, Note_on_c, 0, 47, 0
2, 80407, Note_on_c, 0, 66, 44
2, 80421, Note_on_c, 0, 62, 43
2, 80430, Note_on_c, 0, 56, 43
2, 80430, Control_c, 0, 64, 0
2, 80437, Note_on_c, 0, 46, 43
2, 80440, Note_on_c, 0, 63, 0
2, 80622, Control_c, 0, 64, 127
2, 80641, Note_on_c, 0, 58, 33
2, 80702, Note_on_c, 0, 56, 0
2, 80786, Note_on_c, 0, 58, 0
2, 80796, Note_on_c, 0, 55, 33
2, 80892, Control_c, 0, 64, 0
2, 80925, Control_c, 0, 64, 127
2, 80937, Note_on_c, 0, 58, 33
2, 80988, Note_on_c, 0, 55, 0
2, 81025, Note_on_c, 0, 66, 0
2, 81082, Note_on_c, 0, 56, 33
2, 81087, Note_on_c, 0, 58, 0
2, 81122, Note_on_c, 0, 46, 0
2, 81237, Note_on_c, 0, 65, 33
2, 81256, Note_on_c, 0, 53, 33
2, 81258, Note_on_c, 0, 62, 0
2, 81261, Note_on_c, 0, 56, 0
2, 81347, Note_on_c, 0, 53, 0
2, 81410, Control_c, 0, 64, 0
2, 81441, Note_on_c, 0, 63, 33
2, 81471, Note_on_c, 0, 59, 34
2, 81471, Note_on_c, 0, 54, 34
2, 81474, Note_on_c, 0, 47, 34
2, 81488, Note_on_c, 0, 65, 0
2, 81635, Note_on_c, 0, 56, 33
2, 81677, Control_c, 0, 64, 127
2, 81739, Note_on_c, 0, 54, 0
2, 81762, Note_on_c, 0, 53, 33
2, 81792, Note_on_c, 0, 56, 0
2, 81887, Note_on_c, 0, 56, 33
2, 81908, Note_on_c, 0, 53, 0
2, 81992, Note_on_c, 0, 63, 0
2, 82032, Note_on_c, 0, 54, 33
2, 82055, Note_on_c, 0, 47, 0
2, 82079, Note_on_c, 0, 56, 0
2, 82121, Note_on_c, 0, 59, 0
2, 82175, Note_on_c, 0, 51, 33
2, 82210, Note_on_c, 0, 54, 0
2, 82344, Note_on_c, 0, 64, 34
2, 82371, Note_on_c, 0, 59, 43
2, 82371, Control_c, 0, 64, 0
2, 82374, Note_on_c, 0, 56, 42
2, 82376, Note_on_c, 0, 44, 42
2, 82461, Note_on_c, 0, 51, 0
2, 82526, Note_on_c, 0, 58, 33
2, 82589, Control_c, 0, 64, 127
2, 82627, Note_on_c, 0, 56, 0
2, 82639, Note_on_c, 0, 58, 0
2, 82664, Note_on_c, 0, 55, 33
2, 82807, Note_on_c, 0, 59, 0
2, 82817, Note_on_c, 0, 58, 33
2, 82864, Note_on_c, 0, 55, 0
2, 82960, Note_on_c, 0, 56, 33
2, 82967, Note_on_c, 0, 44, 0
2, 82995, Note_on_c, 0, 58, 0
2, 83051, Note_on_c, 0, 64, 0
2, 83070, Control_c, 0, 64, 0
2, 83091, Note_on_c, 0, 52, 33
2, 83103, Control_c, 0, 64, 127
2, 83272, Note_on_c, 0, 62, 33
2, 83281, Control_c, 0, 64, 0
2, 83288, Note_on_c, 0, 53, 39
2, 83288, Note_on_c, 0, 46, 39
2, 83306, Note_on_c, 0, 52, 0
2, 83443, Note_on_c, 0, 54, 33
2, 83462, Note_on_c, 0, 53, 0
2, 83600, Note_on_c, 0, 52, 33
2, 83616, Note_on_c, 0, 54, 0
2, 83752, Note_on_c, 0, 54, 33
2, 83773, Note_on_c, 0, 52, 0
2, 83924, Note_on_c, 0, 53, 33
2, 83942, Note_on_c, 0, 54, 0
2, 84041, Note_on_c, 0, 46, 0
2, 84104, Control_c, 0, 64, 127
2, 84137, Note_on_c, 0, 46, 33
2, 84156, Note_on_c, 0, 62, 0
2, 84212, Note_on_c, 0, 53, 0
2, 84218, Note_on_c, 0, 63, 39
2, 84369, Note_on_c, 0, 56, 0
2, 84395, Note_on_c, 0, 63, 0
2, 84413, Control_c, 0, 64, 0
2, 84416, Note_on_c, 0, 64, 39
2, 84430, Note_on_c, 0, 56, 43
2, 84430, Note_on_c, 0, 59, 43
2, 84446, Note_on_c, 0, 44, 43
2, 84451, Note_on_c, 0, 46, 0
2, 84613, Note_on_c, 0, 58, 39
2, 84636, Control_c, 0, 64, 127
2, 84744, Note_on_c, 0, 58, 0
2, 84756, Note_on_c, 0, 55, 39
2, 84761, Note_on_c, 0, 56, 0
2, 84911, Note_on_c, 0, 58, 39
2, 84945, Note_on_c, 0, 55, 0
2, 85023, Note_on_c, 0, 58, 0
2, 85060, Note_on_c, 0, 56, 39
2, 85067, Control_c, 0, 64, 0
2, 85250, Control_c, 0, 64, 127
2, 85276, Note_on_c, 0, 52, 39
2, 85304, Control_c, 0, 64, 0
2, 85337, Note_on_c, 0, 44, 0
2, 85340, Control_c, 0, 64, 127
2, 85366, Note_on_c, 0, 59, 0
2, 85379, Note_on_c, 0, 64, 0
2, 85478, Control_c, 0, 64, 0
2, 85501, Note_on_c, 0, 62, 39
2, 85515, Note_on_c, 0, 53, 39
2, 85532, Note_on_c, 0, 46, 39
2, 85536, Note_on_c, 0, 52, 0
2, 85698, Note_on_c, 0, 54, 36
2, 85719, Note_on_c, 0, 53, 0
2, 85853, Note_on_c, 0, 52, 33
2, 85860, Note_on_c, 0, 54, 0
2, 86016, Note_on_c, 0, 54, 33
2, 86021, Note_on_c, 0, 52, 0
2, 86184, Note_on_c, 0, 53, 33
2, 86231, Note_on_c, 0, 54, 0
2, 86303, Note_on_c, 0, 46, 0
2, 86327, Control_c, 0, 64, 127
2, 86331, Note_on_c, 0, 62, 0
2, 86343, Note_on_c, 0, 56, 0
2, 86397, Note_on_c, 0, 46, 33
2, 86462, Note_on_c, 0, 53, 0
2, 86488, Note_on_c, 0, 63, 28
2, 86603, Control_c, 0, 64, 0
2, 86645, Note_on_c, 0, 44, 33
2, 86650, Note_on_c, 0, 63, 0
2, 86688, Note_on_c, 0, 64, 44
2, 86692, Note_on_c, 0, 46, 0
2, 86713, Note_on_c, 0, 59, 33
2, 86713, Note_on_c, 0, 56, 33
2, 86896, Note_on_c, 0, 58, 33
2, 86966, Control_c, 0, 64, 127
2, 87011, Note_on_c, 0, 58, 0
2, 87032, Note_on_c, 0, 55, 33
2, 87053, Note_on_c, 0, 56, 0
2, 87161, Note_on_c, 0, 59, 0
2, 87201, Note_on_c, 0, 58, 33
2, 87351, Control_c, 0, 64, 0
2, 87369, Note_on_c, 0, 55, 0
2, 87405, Note_on_c, 0, 56, 33
2, 87442, Note_on_c, 0, 58, 0
2, 87597, Control_c, 0, 64, 127
2, 87647, Note_on_c, 0, 52, 33
2, 87665, Note_on_c, 0, 56, 0
2, 87665, Note_on_c, 0, 64, 0
2, 87679, Note_on_c, 0, 44, 0
2, 87862, Note_on_c, 0, 52, 0
2, 87984, Control_c, 0, 64, 0
2, 88000, Note_on_c, 0, 73, 39
2, 88012, Note_on_c, 0, 64, 39
2, 88042, Note_on_c, 0, 45, 39
2, 88042, Note_on_c, 0, 57, 39
2, 88042, Note_on_c, 0, 61, 39
2, 88164, Control_c, 0, 64, 127
2, 88211, Note_on_c, 0, 45, 0
2, 88214, Note_on_c, 0, 57, 0
2, 88286, Note_on_c, 0, 73, 0
2, 88343, Note_on_c, 0, 61, 0
2, 88349, Note_on_c, 0, 52, 33
2, 88445, Note_on_c, 0, 64, 0
2, 88486, Note_on_c, 0, 52, 0
2, 88523, Control_c, 0, 64, 0
2, 88525, Note_on_c, 0, 68, 39
2, 88554, Note_on_c, 0, 62, 43
2, 88562, Note_on_c, 0, 47, 43
2, 88567, Note_on_c, 0, 59, 43
2, 88720, Control_c, 0, 64, 127
2, 88764, Note_on_c, 0, 52, 33
2, 88795, Note_on_c, 0, 47, 0
2, 88800, Note_on_c, 0, 59, 0
2, 88802, Note_on_c, 0, 62, 0
2, 88924, Note_on_c, 0, 68, 0
2, 88926, Control_c, 0, 64, 0
2, 88945, Note_on_c, 0, 69, 44
2, 88970, Note_on_c, 0, 49, 39
2, 88970, Note_on_c, 0, 61, 39
2, 88970, Note_on_c, 0, 64, 39
2, 89016, Note_on_c, 0, 52, 0
2, 89102, Control_c, 0, 64, 127
2, 89151, Note_on_c, 0, 61, 0
2, 89203, Note_on_c, 0, 52, 39
2, 89352, Note_on_c, 0, 64, 0
2, 89374, Note_on_c, 0, 44, 39
2, 89390, Note_on_c, 0, 59, 39
2, 89414, Note_on_c, 0, 69, 0
2, 89424, Note_on_c, 0, 52, 0
2, 89424, Note_on_c, 0, 49, 0
2, 89442, Control_c, 0, 64, 0
2, 89453, Note_on_c, 0, 68, 52
2, 89557, Control_c, 0, 64, 127
2, 89648, Note_on_c, 0, 52, 39
2, 89653, Note_on_c, 0, 66, 44
2, 89713, Note_on_c, 0, 68, 0
2, 89784, Control_c, 0, 64, 0
2, 89794, Note_on_c, 0, 66, 0
2, 89814, Note_on_c, 0, 51, 39
2, 89817, Note_on_c, 0, 64, 44
2, 89833, Note_on_c, 0, 52, 0
2, 89978, Control_c, 0, 64, 127
2, 90021, Note_on_c, 0, 52, 39
2, 90164, Control_c, 0, 64, 0
2, 90206, Note_on_c, 0, 54, 43
2, 90227, Note_on_c, 0, 52, 0
2, 90302, Control_c, 0, 64, 127
2, 90344, Note_on_c, 0, 51, 0
2, 90373, Note_on_c, 0, 44, 0
2, 90455, Note_on_c, 0, 56, 43
2, 90461, Note_on_c, 0, 54, 0
2, 90622, Control_c, 0, 64, 0
2, 90649, Note_on_c, 0, 46, 39
2, 90739, Note_on_c, 0, 63, 39
2, 90741, Note_on_c, 0, 64, 0
2, 91080, Note_on_c, 0, 58, 39
2, 91085, Note_on_c, 0, 59, 0
2, 91285, Note_on_c, 0, 57, 39
2, 91290, Note_on_c, 0, 58, 0
2, 91542, Note_on_c, 0, 57, 0
2, 91550, Note_on_c, 0, 58, 39
2, 91610, Note_on_c, 0, 56, 0
2, 91781, Note_on_c, 0, 62, 28
2, 91781, Note_on_c, 0, 53, 28
2, 91789, Note_on_c, 0, 63, 0
2, 92134, Note_on_c, 0, 54, 39
2, 92152, Note_on_c, 0, 53, 0
2, 92220, Note_on_c, 0, 58, 0
2, 92232, Control_c, 0, 64, 127
2, 92545, Control_c, 0, 64, 0
2, 92591, Note_on_c, 0, 39, 39
2, 92625, Note_on_c, 0, 63, 44
2, 92646, Note_on_c, 0, 62, 0
2, 92787, Control_c, 0, 64, 127
2, 93005, Control_c, 0, 64, 0
2, 93036, Note_on_c, 0, 47, 39
2, 93088, Note_on_c, 0, 46, 0
2, 93191, Note_on_c, 0, 46, 39
2, 93240, Note_on_c, 0, 47, 0
2, 93348, Note_on_c, 0, 50, 39
2, 93479, Note_on_c, 0, 46, 0
2, 93488, Note_on_c, 0, 51, 39
2, 93507, Note_on_c, 0, 50, 0
2, 93521, Note_on_c, 0, 54, 0
2, 93641, Note_on_c, 0, 53, 39
2, 93732, Note_on_c, 0, 51, 0
2, 93786, Note_on_c, 0, 54, 28
2, 93875, Note_on_c, 0, 53, 0
2, 93929, Note_on_c, 0, 47, 39
2, 94067, Note_on_c, 0, 46, 39
2, 94100, Note_on_c, 0, 47, 0
2, 94222, Note_on_c, 0, 50, 39
2, 94226, Note_on_c, 0, 54, 0
2, 94379, Note_on_c, 0, 51, 39
2, 94400, Note_on_c, 0, 50, 0
2, 94536, Note_on_c, 0, 53, 39
2, 94584, Note_on_c, 0, 51, 0
2, 94709, Note_on_c, 0, 54, 39
2, 94726, Note_on_c, 0, 53, 0
2, 94878, Note_on_c, 0, 47, 39
2, 94911, Note_on_c, 0, 46, 0
2, 95054, Note_on_c, 0, 46, 39
2, 95088, Note_on_c, 0, 47, 0
2, 95115, Note_on_c, 0, 54, 0
2, 95221, Note_on_c, 0, 50, 39
2, 95418, Note_on_c, 0, 51, 39
2, 95462, Note_on_c, 0, 50, 0
2, 95636, Note_on_c, 0, 53, 33
2, 95673, Note_on_c, 0, 51, 0
2, 95852, Note_on_c, 0, 54, 33
2, 95884, Note_on_c, 0, 53, 0
2, 96081, Note_on_c, 0, 47, 33
2, 96112, Note_on_c, 0, 46, 0
2, 96250, Note_on_c, 0, 54, 0
2, 96273, Note_on_c, 0, 46, 33
2, 96322, Note_on_c, 0, 47, 0
2, 96571, Note_on_c, 0, 50, 33
2, 96939, Note_on_c, 0, 51, 33
2, 97000, Note_on_c, 0, 50, 0
2, 97486, Note_on_c, 0, 53, 33
2, 97533, Note_on_c, 0, 51, 0
2, 98512, Note_on_c, 0, 53, 0
2, 98549, Note_on_c, 0, 55, 28
2, 98718, Control_c, 0, 64, 127
2, 98897, Control_c, 0, 64, 0
2, 98929, Control_c, 0, 64, 127
2, 99053, Note_on_c, 0, 46, 0
2, 99056, Note_on_c, 0, 39, 0
2, 99066, Note_on_c, 0, 63, 0
2, 99066, Note_on_c, 0, 55, 0
2, 100524, Control_c, 0, 64, 0
2, 100559, Control_c, 0, 64, 127
2, 100734, Control_c, 0, 64, 0
2, 100768, Control_c, 0, 64, 127
2, 100903, Control_c, 0, 64, 0
2, 100936, Control_c, 0, 64, 127
2, 101259, Control_c, 0, 67, 0
2, 101323, Control_c, 0, 64, 0
2, 101323, End_track
3, 0, Start_track
3, 0, Title_t, ""
3, 0, End_track
4, 0, Start_track
4, 0, Title_t, ""
4, 0, End_track
5, 0, Start_track
5, 0, Title_t, ""
5, 0, End_track
6, 0, Start_track
6, 0, Title_t, "Scan of a player piano roll"
6, 0, End_track
7, 0, Start_track
7, 0, Title_t, "by Terry Smythe, Winnipeg, Canada"
7, 0, End_track
8, 0, Start_track
8, 1, Copyright_t, "\012__________________________________________________________\012Kunst der Fuge comment: this is the Contributor's property.\012Can *not* be used for commercial purposes without authorization!\012Copyright by Contributor - Kunst der Fuge,  2002-05\012http://www.kunstderfuge.com/thanks.htm -> Contributors' list\012http://www.kunstderfuge.com/notes.htm -> Terms & conditions"
8, 1, End_track
0, 0, End_of_file
