0, 0, Header, 1, 7, 192
1, 0, Start_track
1, 0, Title_t, "55502A"
1, 0, Copyright_t, "May NOT be used for commercial purposes."
1, 0, Text_t, "Roll expression/accent tracks, where present, converted to MIDI velocties.\012"
1, 0, Time_signature, 4, 2, 24, 8
1, 0, Key_signature, 0, "major"
1, 0, Tempo, 500000
1, 0, Marker_t, "Standard MIDI:LPI 132:Tempo  60: 08-24-2003"
1, 0, End_track
2, 0, Start_track
2, 0, Title_t, "Etude (Black Keys) Op 10 No 5 G Flat Major"
2, 356, Note_on_c, 0, 54, 52
2, 373, Note_on_c, 0, 58, 51
2, 400, Note_on_c, 0, 61, 51
2, 414, Note_on_c, 0, 66, 61
2, 414, Note_on_c, 0, 90, 61
2, 456, Note_on_c, 0, 94, 59
2, 482, Note_on_c, 0, 90, 0
2, 500, Note_on_c, 0, 66, 0
2, 500, Note_on_c, 0, 54, 0
2, 507, Note_on_c, 0, 85, 58
2, 534, Note_on_c, 0, 85, 0
2, 534, Note_on_c, 0, 94, 0
2, 539, Note_on_c, 0, 54, 53
2, 539, Note_on_c, 0, 59, 53
2, 542, Note_on_c, 0, 58, 0
2, 542, Note_on_c, 0, 61, 0
2, 542, Note_on_c, 0, 63, 53
2, 542, Note_on_c, 0, 66, 53
2, 542, Note_on_c, 0, 90, 60
2, 566, Note_on_c, 0, 66, 0
2, 566, Note_on_c, 0, 54, 0
2, 566, Note_on_c, 0, 59, 0
2, 566, Note_on_c, 0, 87, 53
2, 569, Note_on_c, 0, 90, 0
2, 576, Note_on_c, 0, 63, 0
2, 603, Note_on_c, 0, 90, 55
2, 611, Note_on_c, 0, 87, 0
2, 619, Note_on_c, 0, 90, 0
2, 624, Note_on_c, 0, 85, 55
2, 641, Note_on_c, 0, 85, 0
2, 641, Note_on_c, 0, 66, 55
2, 650, Note_on_c, 0, 54, 65
2, 650, Note_on_c, 0, 58, 63
2, 650, Note_on_c, 0, 61, 66
2, 658, Note_on_c, 0, 90, 60
2, 675, Note_on_c, 0, 82, 54
2, 699, Note_on_c, 0, 82, 0
2, 699, Note_on_c, 0, 85, 60
2, 726, Note_on_c, 0, 54, 0
2, 736, Note_on_c, 0, 78, 57
2, 763, Note_on_c, 0, 78, 0
2, 763, Note_on_c, 0, 85, 0
2, 763, Note_on_c, 0, 61, 0
2, 763, Note_on_c, 0, 66, 0
2, 763, Note_on_c, 0, 58, 0
2, 763, Note_on_c, 0, 90, 0
2, 772, Note_on_c, 0, 82, 53
2, 787, Note_on_c, 0, 42, 47
2, 790, Note_on_c, 0, 54, 43
2, 797, Note_on_c, 0, 82, 0
2, 807, Note_on_c, 0, 78, 55
2, 824, Note_on_c, 0, 42, 0
2, 834, Note_on_c, 0, 78, 0
2, 834, Note_on_c, 0, 54, 0
2, 834, Note_on_c, 0, 82, 60
2, 858, Note_on_c, 0, 82, 0
2, 870, Note_on_c, 0, 73, 55
2, 904, Note_on_c, 0, 73, 0
2, 907, Note_on_c, 0, 63, 42
2, 907, Note_on_c, 0, 66, 58
2, 907, Note_on_c, 0, 78, 56
2, 914, Note_on_c, 0, 59, 44
2, 924, Note_on_c, 0, 78, 0
2, 934, Note_on_c, 0, 75, 55
2, 941, Note_on_c, 0, 63, 0
2, 951, Note_on_c, 0, 59, 0
2, 951, Note_on_c, 0, 66, 0
2, 960, Note_on_c, 0, 78, 57
2, 978, Note_on_c, 0, 75, 0
2, 997, Note_on_c, 0, 78, 0
2, 1007, Note_on_c, 0, 61, 60
2, 1007, Note_on_c, 0, 73, 55
2, 1016, Note_on_c, 0, 66, 59
2, 1024, Note_on_c, 0, 73, 0
2, 1024, Note_on_c, 0, 58, 56
2, 1036, Note_on_c, 0, 78, 60
2, 1044, Note_on_c, 0, 66, 0
2, 1061, Note_on_c, 0, 70, 58
2, 1090, Note_on_c, 0, 70, 0
2, 1098, Note_on_c, 0, 73, 53
2, 1117, Note_on_c, 0, 61, 0
2, 1125, Note_on_c, 0, 66, 58
2, 1144, Note_on_c, 0, 73, 0
2, 1163, Note_on_c, 0, 70, 59
2, 1187, Note_on_c, 0, 37, 53
2, 1187, Note_on_c, 0, 49, 57
2, 1187, Note_on_c, 0, 61, 60
2, 1214, Note_on_c, 0, 78, 0
2, 1214, Note_on_c, 0, 73, 56
2, 1231, Note_on_c, 0, 68, 57
2, 1244, Note_on_c, 0, 73, 0
2, 1258, Note_on_c, 0, 61, 0
2, 1261, Note_on_c, 0, 68, 0
2, 1275, Note_on_c, 0, 73, 56
2, 1293, Note_on_c, 0, 56, 43
2, 1296, Note_on_c, 0, 65, 53
2, 1305, Note_on_c, 0, 61, 42
2, 1322, Note_on_c, 0, 66, 0
2, 1332, Note_on_c, 0, 68, 53
2, 1346, Note_on_c, 0, 68, 0
2, 1349, Note_on_c, 0, 56, 0
2, 1359, Note_on_c, 0, 80, 56
2, 1373, Note_on_c, 0, 80, 0
2, 1395, Note_on_c, 0, 56, 44
2, 1403, Note_on_c, 0, 59, 43
2, 1403, Note_on_c, 0, 63, 46
2, 1403, Note_on_c, 0, 68, 63
2, 1420, Note_on_c, 0, 65, 0
2, 1420, Note_on_c, 0, 61, 0
2, 1420, Note_on_c, 0, 73, 0
2, 1423, Note_on_c, 0, 37, 0
2, 1423, Note_on_c, 0, 58, 0
2, 1423, Note_on_c, 0, 49, 0
2, 1423, Note_on_c, 0, 80, 65
2, 1431, Note_on_c, 0, 56, 0
2, 1431, Note_on_c, 0, 59, 0
2, 1434, Note_on_c, 0, 63, 0
2, 1434, Note_on_c, 0, 70, 0
2, 1441, Note_on_c, 0, 68, 0
2, 1441, Note_on_c, 0, 80, 0
2, 1441, Note_on_c, 0, 75, 54
2, 1468, Note_on_c, 0, 75, 0
2, 1486, Note_on_c, 0, 80, 55
2, 1495, Note_on_c, 0, 44, 42
2, 1522, Note_on_c, 0, 80, 0
2, 1522, Note_on_c, 0, 75, 53
2, 1530, Note_on_c, 0, 44, 0
2, 1537, Note_on_c, 0, 87, 57
2, 1547, Note_on_c, 0, 75, 0
2, 1566, Note_on_c, 0, 87, 0
2, 1585, Note_on_c, 0, 49, 42
2, 1593, Note_on_c, 0, 75, 58
2, 1617, Note_on_c, 0, 75, 0
2, 1617, Note_on_c, 0, 87, 55
2, 1644, Note_on_c, 0, 87, 0
2, 1654, Note_on_c, 0, 80, 58
2, 1671, Note_on_c, 0, 80, 0
2, 1680, Note_on_c, 0, 87, 57
2, 1688, Note_on_c, 0, 56, 41
2, 1688, Note_on_c, 0, 59, 47
2, 1688, Note_on_c, 0, 63, 44
2, 1707, Note_on_c, 0, 87, 0
2, 1727, Note_on_c, 0, 80, 56
2, 1744, Note_on_c, 0, 80, 0
2, 1744, Note_on_c, 0, 59, 0
2, 1744, Note_on_c, 0, 56, 0
2, 1758, Note_on_c, 0, 92, 57
2, 1785, Note_on_c, 0, 92, 0
2, 1795, Note_on_c, 0, 56, 48
2, 1795, Note_on_c, 0, 59, 41
2, 1795, Note_on_c, 0, 80, 56
2, 1804, Note_on_c, 0, 61, 43
2, 1814, Note_on_c, 0, 92, 59
2, 1828, Note_on_c, 0, 63, 0
2, 1846, Note_on_c, 0, 85, 55
2, 1855, Note_on_c, 0, 92, 0
2, 1863, Note_on_c, 0, 85, 0
2, 1882, Note_on_c, 0, 92, 53
2, 1906, Note_on_c, 0, 85, 53
2, 1914, Note_on_c, 0, 61, 0
2, 1914, Note_on_c, 0, 54, 43
2, 1938, Note_on_c, 0, 58, 43
2, 1947, Note_on_c, 0, 97, 54
2, 1957, Note_on_c, 0, 61, 44
2, 1965, Note_on_c, 0, 59, 0
2, 1965, Note_on_c, 0, 49, 0
2, 1965, Note_on_c, 0, 56, 0
2, 1968, Note_on_c, 0, 85, 0
2, 1975, Note_on_c, 0, 80, 0
2, 1975, Note_on_c, 0, 92, 0
2, 1975, Note_on_c, 0, 66, 60
2, 1983, Note_on_c, 0, 97, 0
2, 1983, Note_on_c, 0, 90, 65
2, 2007, Note_on_c, 0, 90, 0
2, 2010, Note_on_c, 0, 94, 57
2, 2015, Note_on_c, 0, 66, 0
2, 2034, Note_on_c, 0, 85, 58
2, 2043, Note_on_c, 0, 54, 0
2, 2051, Note_on_c, 0, 94, 0
2, 2061, Note_on_c, 0, 85, 0
2, 2068, Note_on_c, 0, 59, 48
2, 2068, Note_on_c, 0, 63, 45
2, 2068, Note_on_c, 0, 66, 55
2, 2071, Note_on_c, 0, 90, 54
2, 2079, Note_on_c, 0, 54, 44
2, 2088, Note_on_c, 0, 58, 0
2, 2096, Note_on_c, 0, 61, 0
2, 2096, Note_on_c, 0, 87, 54
2, 2099, Note_on_c, 0, 90, 0
2, 2107, Note_on_c, 0, 63, 0
2, 2107, Note_on_c, 0, 66, 0
2, 2107, Note_on_c, 0, 59, 0
2, 2116, Note_on_c, 0, 54, 0
2, 2134, Note_on_c, 0, 87, 0
2, 2141, Note_on_c, 0, 90, 59
2, 2168, Note_on_c, 0, 90, 0
2, 2171, Note_on_c, 0, 85, 58
2, 2179, Note_on_c, 0, 61, 58
2, 2186, Note_on_c, 0, 66, 60
2, 2189, Note_on_c, 0, 85, 0
2, 2197, Note_on_c, 0, 58, 56
2, 2200, Note_on_c, 0, 54, 56
2, 2217, Note_on_c, 0, 90, 58
2, 2227, Note_on_c, 0, 82, 54
2, 2241, Note_on_c, 0, 82, 0
2, 2254, Note_on_c, 0, 85, 57
2, 2278, Note_on_c, 0, 78, 59
2, 2287, Note_on_c, 0, 54, 0
2, 2295, Note_on_c, 0, 78, 0
2, 2319, Note_on_c, 0, 82, 57
2, 2336, Note_on_c, 0, 82, 0
2, 2336, Note_on_c, 0, 85, 0
2, 2336, Note_on_c, 0, 90, 0
2, 2336, Note_on_c, 0, 54, 42
2, 2346, Note_on_c, 0, 42, 48
2, 2355, Note_on_c, 0, 78, 55
2, 2363, Note_on_c, 0, 61, 0
2, 2363, Note_on_c, 0, 66, 0
2, 2366, Note_on_c, 0, 58, 0
2, 2374, Note_on_c, 0, 54, 0
2, 2374, Note_on_c, 0, 42, 0
2, 2381, Note_on_c, 0, 82, 57
2, 2391, Note_on_c, 0, 78, 0
2, 2410, Note_on_c, 0, 73, 60
2, 2420, Note_on_c, 0, 82, 0
2, 2447, Note_on_c, 0, 73, 0
2, 2456, Note_on_c, 0, 63, 46
2, 2456, Note_on_c, 0, 66, 58
2, 2456, Note_on_c, 0, 78, 57
2, 2459, Note_on_c, 0, 59, 47
2, 2491, Note_on_c, 0, 59, 0
2, 2491, Note_on_c, 0, 63, 0
2, 2491, Note_on_c, 0, 75, 54
2, 2494, Note_on_c, 0, 66, 0
2, 2520, Note_on_c, 0, 75, 0
2, 2528, Note_on_c, 0, 78, 0
2, 2547, Note_on_c, 0, 73, 59
2, 2567, Note_on_c, 0, 73, 0
2, 2567, Note_on_c, 0, 61, 56
2, 2567, Note_on_c, 0, 66, 56
2, 2574, Note_on_c, 0, 58, 53
2, 2582, Note_on_c, 0, 78, 54
2, 2592, Note_on_c, 0, 66, 0
2, 2592, Note_on_c, 0, 70, 58
2, 2609, Note_on_c, 0, 70, 0
2, 2621, Note_on_c, 0, 73, 57
2, 2653, Note_on_c, 0, 73, 0
2, 2653, Note_on_c, 0, 78, 0
2, 2653, Note_on_c, 0, 66, 54
2, 2680, Note_on_c, 0, 58, 0
2, 2680, Note_on_c, 0, 61, 0
2, 2680, Note_on_c, 0, 70, 60
2, 2689, Note_on_c, 0, 66, 0
2, 2716, Note_on_c, 0, 70, 0
2, 2721, Note_on_c, 0, 63, 58
2, 2731, Note_on_c, 0, 47, 58
2, 2758, Note_on_c, 0, 75, 53
2, 2777, Note_on_c, 0, 63, 0
2, 2786, Note_on_c, 0, 75, 0
2, 2794, Note_on_c, 0, 68, 55
2, 2821, Note_on_c, 0, 68, 0
2, 2821, Note_on_c, 0, 75, 59
2, 2831, Note_on_c, 0, 56, 46
2, 2831, Note_on_c, 0, 63, 44
2, 2850, Note_on_c, 0, 75, 0
2, 2867, Note_on_c, 0, 68, 55
2, 2894, Note_on_c, 0, 80, 55
2, 2911, Note_on_c, 0, 75, 56
2, 2919, Note_on_c, 0, 80, 0
2, 2938, Note_on_c, 0, 47, 0
2, 2938, Note_on_c, 0, 75, 0
2, 2955, Note_on_c, 0, 80, 55
2, 2979, Note_on_c, 0, 75, 53
2, 2989, Note_on_c, 0, 80, 0
2, 2989, Note_on_c, 0, 47, 42
2, 3006, Note_on_c, 0, 87, 56
2, 3048, Note_on_c, 0, 46, 48
2, 3048, Note_on_c, 0, 80, 57
2, 3057, Note_on_c, 0, 92, 56
2, 3076, Note_on_c, 0, 47, 0
2, 3081, Note_on_c, 0, 53, 42
2, 3096, Note_on_c, 0, 62, 44
2, 3113, Note_on_c, 0, 82, 62
2, 3122, Note_on_c, 0, 63, 0
2, 3122, Note_on_c, 0, 92, 0
2, 3122, Note_on_c, 0, 80, 0
2, 3122, Note_on_c, 0, 56, 0
2, 3122, Note_on_c, 0, 75, 0
2, 3122, Note_on_c, 0, 87, 0
2, 3122, Note_on_c, 0, 68, 0
2, 3130, Note_on_c, 0, 82, 0
2, 3140, Note_on_c, 0, 94, 50
2, 3157, Note_on_c, 0, 94, 0
2, 3181, Note_on_c, 0, 82, 47
2, 3193, Note_on_c, 0, 58, 47
2, 3196, Note_on_c, 0, 82, 0
2, 3206, Note_on_c, 0, 65, 50
2, 3206, Note_on_c, 0, 94, 48
2, 3233, Note_on_c, 0, 94, 0
2, 3240, Note_on_c, 0, 74, 49
2, 3240, Note_on_c, 0, 82, 53
2, 3267, Note_on_c, 0, 82, 0
2, 3267, Note_on_c, 0, 94, 51
2, 3294, Note_on_c, 0, 94, 0
2, 3299, Note_on_c, 0, 82, 53
2, 3326, Note_on_c, 0, 82, 0
2, 3343, Note_on_c, 0, 94, 54
2, 3360, Note_on_c, 0, 94, 0
2, 3368, Note_on_c, 0, 82, 52
2, 3395, Note_on_c, 0, 82, 0
2, 3395, Note_on_c, 0, 94, 54
2, 3419, Note_on_c, 0, 94, 0
2, 3429, Note_on_c, 0, 82, 47
2, 3443, Note_on_c, 0, 82, 0
2, 3453, Note_on_c, 0, 94, 53
2, 3472, Note_on_c, 0, 94, 0
2, 3480, Note_on_c, 0, 82, 50
2, 3489, Note_on_c, 0, 58, 0
2, 3506, Note_on_c, 0, 65, 0
2, 3506, Note_on_c, 0, 46, 0
2, 3506, Note_on_c, 0, 53, 0
2, 3506, Note_on_c, 0, 62, 0
2, 3506, Note_on_c, 0, 74, 0
2, 3514, Note_on_c, 0, 82, 0
2, 3517, Note_on_c, 0, 94, 52
2, 3531, Note_on_c, 0, 94, 0
2, 3531, Note_on_c, 0, 58, 47
2, 3541, Note_on_c, 0, 61, 42
2, 3541, Note_on_c, 0, 90, 66
2, 3544, Note_on_c, 0, 54, 43
2, 3544, Note_on_c, 0, 66, 61
2, 3568, Note_on_c, 0, 58, 0
2, 3577, Note_on_c, 0, 54, 0
2, 3577, Note_on_c, 0, 61, 0
2, 3577, Note_on_c, 0, 66, 0
2, 3587, Note_on_c, 0, 94, 54
2, 3587, Control_c, 0, 67, 127
2, 3590, Note_on_c, 0, 90, 0
2, 3614, Note_on_c, 0, 94, 0
2, 3633, Note_on_c, 0, 85, 50
2, 3641, Note_on_c, 0, 54, 47
2, 3658, Note_on_c, 0, 85, 0
2, 3658, Note_on_c, 0, 63, 45
2, 3658, Note_on_c, 0, 66, 54
2, 3658, Note_on_c, 0, 90, 49
2, 3661, Note_on_c, 0, 59, 47
2, 3675, Note_on_c, 0, 54, 0
2, 3685, Note_on_c, 0, 90, 0
2, 3695, Note_on_c, 0, 63, 0
2, 3695, Note_on_c, 0, 66, 0
2, 3695, Note_on_c, 0, 59, 0
2, 3704, Note_on_c, 0, 87, 52
2, 3726, Note_on_c, 0, 90, 53
2, 3734, Note_on_c, 0, 87, 0
2, 3753, Note_on_c, 0, 90, 0
2, 3753, Note_on_c, 0, 85, 52
2, 3770, Note_on_c, 0, 85, 0
2, 3770, Note_on_c, 0, 54, 47
2, 3770, Note_on_c, 0, 58, 46
2, 3770, Note_on_c, 0, 61, 44
2, 3780, Note_on_c, 0, 66, 50
2, 3788, Note_on_c, 0, 90, 49
2, 3815, Note_on_c, 0, 82, 52
2, 3832, Note_on_c, 0, 82, 0
2, 3832, Note_on_c, 0, 85, 53
2, 3859, Note_on_c, 0, 78, 48
2, 3868, Note_on_c, 0, 54, 0
2, 3888, Note_on_c, 0, 78, 0
2, 3905, Note_on_c, 0, 82, 48
2, 3924, Note_on_c, 0, 82, 0
2, 3924, Note_on_c, 0, 54, 48
2, 3927, Note_on_c, 0, 85, 0
2, 3935, Note_on_c, 0, 90, 0
2, 3935, Note_on_c, 0, 42, 46
2, 3935, Note_on_c, 0, 78, 51
2, 3944, Note_on_c, 0, 66, 0
2, 3944, Note_on_c, 0, 58, 0
2, 3944, Note_on_c, 0, 61, 0
2, 3961, Note_on_c, 0, 54, 0
2, 3961, Note_on_c, 0, 82, 50
2, 3964, Note_on_c, 0, 42, 0
2, 3969, Note_on_c, 0, 78, 0
2, 3988, Note_on_c, 0, 82, 0
2, 4006, Note_on_c, 0, 73, 50
2, 4034, Note_on_c, 0, 73, 0
2, 4044, Note_on_c, 0, 59, 43
2, 4044, Note_on_c, 0, 63, 45
2, 4044, Note_on_c, 0, 66, 48
2, 4044, Note_on_c, 0, 78, 47
2, 4071, Note_on_c, 0, 78, 0
2, 4080, Note_on_c, 0, 59, 0
2, 4080, Note_on_c, 0, 63, 0
2, 4080, Note_on_c, 0, 66, 0
2, 4088, Note_on_c, 0, 75, 48
2, 4122, Note_on_c, 0, 78, 54
2, 4125, Note_on_c, 0, 75, 0
2, 4152, Note_on_c, 0, 78, 0
2, 4161, Note_on_c, 0, 61, 44
2, 4161, Note_on_c, 0, 66, 53
2, 4164, Note_on_c, 0, 58, 47
2, 4172, Note_on_c, 0, 73, 50
2, 4189, Note_on_c, 0, 66, 0
2, 4199, Note_on_c, 0, 73, 0
2, 4206, Note_on_c, 0, 78, 50
2, 4224, Note_on_c, 0, 70, 48
2, 4243, Note_on_c, 0, 70, 0
2, 4243, Note_on_c, 0, 61, 0
2, 4243, Note_on_c, 0, 73, 48
2, 4260, Note_on_c, 0, 66, 52
2, 4279, Note_on_c, 0, 73, 0
2, 4287, Note_on_c, 0, 70, 48
2, 4314, Note_on_c, 0, 61, 60
2, 4321, Note_on_c, 0, 37, 56
2, 4331, Note_on_c, 0, 49, 53
2, 4348, Note_on_c, 0, 73, 50
2, 4366, Note_on_c, 0, 73, 0
2, 4366, Note_on_c, 0, 78, 0
2, 4375, Note_on_c, 0, 61, 0
2, 4383, Note_on_c, 0, 68, 53
2, 4400, Note_on_c, 0, 68, 0
2, 4403, Note_on_c, 0, 70, 0
2, 4408, Note_on_c, 0, 56, 41
2, 4408, Note_on_c, 0, 73, 48
2, 4417, Note_on_c, 0, 61, 44
2, 4417, Note_on_c, 0, 65, 48
2, 4444, Note_on_c, 0, 66, 0
2, 4452, Note_on_c, 0, 68, 53
2, 4455, Note_on_c, 0, 56, 0
2, 4469, Note_on_c, 0, 80, 52
2, 4487, Note_on_c, 0, 80, 0
2, 4487, Note_on_c, 0, 68, 0
2, 4496, Note_on_c, 0, 73, 0
2, 4504, Note_on_c, 0, 56, 47
2, 4504, Note_on_c, 0, 59, 47
2, 4504, Note_on_c, 0, 63, 47
2, 4513, Note_on_c, 0, 68, 49
2, 4523, Note_on_c, 0, 49, 0
2, 4523, Note_on_c, 0, 58, 0
2, 4523, Note_on_c, 0, 65, 0
2, 4523, Note_on_c, 0, 37, 0
2, 4523, Note_on_c, 0, 61, 0
2, 4531, Note_on_c, 0, 59, 0
2, 4531, Note_on_c, 0, 63, 0
2, 4531, Note_on_c, 0, 56, 0
2, 4531, Note_on_c, 0, 80, 49
2, 4548, Note_on_c, 0, 68, 0
2, 4565, Note_on_c, 0, 75, 56
2, 4602, Note_on_c, 0, 44, 46
2, 4609, Note_on_c, 0, 80, 0
2, 4636, Note_on_c, 0, 44, 0
2, 4636, Note_on_c, 0, 75, 0
2, 4646, Note_on_c, 0, 87, 61
2, 4663, Note_on_c, 0, 87, 0
2, 4682, Note_on_c, 0, 75, 61
2, 4690, Note_on_c, 0, 49, 48
2, 4717, Note_on_c, 0, 75, 0
2, 4717, Note_on_c, 0, 87, 60
2, 4734, Note_on_c, 0, 87, 0
2, 4747, Note_on_c, 0, 80, 56
2, 4771, Note_on_c, 0, 80, 0
2, 4778, Note_on_c, 0, 87, 59
2, 4788, Note_on_c, 0, 56, 42
2, 4798, Note_on_c, 0, 59, 44
2, 4798, Note_on_c, 0, 63, 47
2, 4807, Note_on_c, 0, 87, 0
2, 4815, Note_on_c, 0, 80, 54
2, 4839, Note_on_c, 0, 80, 0
2, 4847, Note_on_c, 0, 92, 57
2, 4849, Note_on_c, 0, 56, 0
2, 4867, Note_on_c, 0, 59, 0
2, 4874, Control_c, 0, 67, 0
2, 4877, Note_on_c, 0, 92, 0
2, 4885, Note_on_c, 0, 80, 60
2, 4897, Note_on_c, 0, 56, 44
2, 4897, Note_on_c, 0, 61, 45
2, 4912, Note_on_c, 0, 59, 45
2, 4912, Note_on_c, 0, 92, 60
2, 4920, Note_on_c, 0, 63, 0
2, 4937, Note_on_c, 0, 92, 0
2, 4946, Note_on_c, 0, 85, 59
2, 4964, Note_on_c, 0, 85, 0
2, 4964, Note_on_c, 0, 92, 61
2, 4983, Note_on_c, 0, 61, 0
2, 4991, Note_on_c, 0, 54, 52
2, 5015, Note_on_c, 0, 58, 48
2, 5024, Note_on_c, 0, 61, 51
2, 5024, Note_on_c, 0, 85, 58
2, 5034, Note_on_c, 0, 97, 56
2, 5041, Note_on_c, 0, 49, 0
2, 5051, Note_on_c, 0, 56, 0
2, 5051, Note_on_c, 0, 59, 0
2, 5061, Note_on_c, 0, 92, 0
2, 5061, Note_on_c, 0, 80, 0
2, 5061, Note_on_c, 0, 66, 66
2, 5068, Note_on_c, 0, 85, 0
2, 5078, Note_on_c, 0, 97, 0
2, 5086, Note_on_c, 0, 90, 66
2, 5103, Note_on_c, 0, 54, 0
2, 5112, Note_on_c, 0, 90, 0
2, 5112, Note_on_c, 0, 66, 0
2, 5112, Note_on_c, 0, 94, 61
2, 5139, Note_on_c, 0, 85, 57
2, 5149, Note_on_c, 0, 94, 0
2, 5157, Note_on_c, 0, 54, 53
2, 5157, Note_on_c, 0, 63, 47
2, 5164, Note_on_c, 0, 66, 57
2, 5167, Note_on_c, 0, 85, 0
2, 5167, Note_on_c, 0, 59, 50
2, 5167, Note_on_c, 0, 90, 56
2, 5177, Note_on_c, 0, 61, 0
2, 5184, Note_on_c, 0, 63, 0
2, 5184, Note_on_c, 0, 58, 0
2, 5184, Note_on_c, 0, 54, 0
2, 5192, Note_on_c, 0, 90, 0
2, 5200, Note_on_c, 0, 87, 57
2, 5203, Note_on_c, 0, 59, 0
2, 5203, Note_on_c, 0, 66, 0
2, 5227, Note_on_c, 0, 90, 53
2, 5230, Note_on_c, 0, 87, 0
2, 5258, Note_on_c, 0, 90, 0
2, 5273, Note_on_c, 0, 85, 53
2, 5282, Note_on_c, 0, 61, 60
2, 5282, Note_on_c, 0, 66, 56
2, 5290, Note_on_c, 0, 85, 0
2, 5293, Note_on_c, 0, 54, 63
2, 5293, Note_on_c, 0, 58, 65
2, 5301, Note_on_c, 0, 90, 53
2, 5318, Note_on_c, 0, 82, 56
2, 5342, Note_on_c, 0, 82, 0
2, 5342, Note_on_c, 0, 85, 55
2, 5369, Note_on_c, 0, 78, 57
2, 5378, Note_on_c, 0, 54, 0
2, 5396, Note_on_c, 0, 78, 0
2, 5413, Note_on_c, 0, 82, 55
2, 5430, Note_on_c, 0, 82, 0
2, 5430, Note_on_c, 0, 42, 60
2, 5430, Note_on_c, 0, 54, 59
2, 5430, Note_on_c, 0, 78, 57
2, 5433, Note_on_c, 0, 85, 0
2, 5441, Note_on_c, 0, 90, 0
2, 5448, Note_on_c, 0, 78, 0
2, 5451, Note_on_c, 0, 61, 0
2, 5451, Note_on_c, 0, 58, 0
2, 5451, Note_on_c, 0, 66, 0
2, 5459, Note_on_c, 0, 82, 55
2, 5472, Note_on_c, 0, 54, 0
2, 5472, Note_on_c, 0, 42, 0
2, 5496, Note_on_c, 0, 82, 0
2, 5496, Note_on_c, 0, 73, 53
2, 5522, Note_on_c, 0, 78, 56
2, 5525, Note_on_c, 0, 59, 42
2, 5525, Note_on_c, 0, 66, 57
2, 5533, Note_on_c, 0, 63, 48
2, 5541, Note_on_c, 0, 73, 0
2, 5553, Note_on_c, 0, 78, 0
2, 5563, Note_on_c, 0, 66, 0
2, 5563, Note_on_c, 0, 63, 0
2, 5570, Note_on_c, 0, 59, 0
2, 5570, Note_on_c, 0, 75, 53
2, 5597, Note_on_c, 0, 78, 60
2, 5607, Note_on_c, 0, 75, 0
2, 5626, Note_on_c, 0, 78, 0
2, 5626, Note_on_c, 0, 73, 55
2, 5640, Note_on_c, 0, 61, 47
2, 5643, Note_on_c, 0, 66, 53
2, 5651, Note_on_c, 0, 73, 0
2, 5654, Note_on_c, 0, 58, 45
2, 5662, Note_on_c, 0, 78, 55
2, 5690, Note_on_c, 0, 66, 0
2, 5695, Note_on_c, 0, 70, 57
2, 5712, Note_on_c, 0, 70, 0
2, 5712, Note_on_c, 0, 61, 0
2, 5715, Note_on_c, 0, 58, 0
2, 5715, Note_on_c, 0, 78, 0
2, 5725, Note_on_c, 0, 73, 56
2, 5752, Note_on_c, 0, 73, 0
2, 5752, Note_on_c, 0, 66, 59
2, 5779, Note_on_c, 0, 70, 57
2, 5788, Note_on_c, 0, 66, 0
2, 5810, Note_on_c, 0, 63, 59
2, 5813, Note_on_c, 0, 48, 44
2, 5821, Note_on_c, 0, 70, 0
2, 5845, Note_on_c, 0, 75, 64
2, 5864, Note_on_c, 0, 75, 0
2, 5864, Note_on_c, 0, 68, 64
2, 5891, Note_on_c, 0, 68, 0
2, 5915, Note_on_c, 0, 75, 65
2, 5918, Note_on_c, 0, 56, 41
2, 5918, Note_on_c, 0, 66, 60
2, 5935, Note_on_c, 0, 75, 0
2, 5945, Note_on_c, 0, 68, 65
2, 5978, Note_on_c, 0, 80, 60
2, 5996, Note_on_c, 0, 80, 0
2, 5996, Note_on_c, 0, 75, 60
2, 6010, Note_on_c, 0, 75, 0
2, 6029, Note_on_c, 0, 80, 61
2, 6044, Note_on_c, 0, 80, 0
2, 6056, Note_on_c, 0, 75, 64
2, 6071, Note_on_c, 0, 44, 46
2, 6078, Note_on_c, 0, 87, 65
2, 6096, Note_on_c, 0, 87, 0
2, 6098, Note_on_c, 0, 75, 0
2, 6108, Note_on_c, 0, 80, 65
2, 6140, Note_on_c, 0, 87, 64
2, 6149, Note_on_c, 0, 49, 48
2, 6159, Note_on_c, 0, 75, 66
2, 6167, Note_on_c, 0, 87, 0
2, 6174, Note_on_c, 0, 80, 0
2, 6177, Note_on_c, 0, 48, 0
2, 6177, Note_on_c, 0, 44, 0
2, 6185, Note_on_c, 0, 66, 0
2, 6199, Note_on_c, 0, 87, 70
2, 6214, Note_on_c, 0, 87, 0
2, 6214, Note_on_c, 0, 56, 0
2, 6236, Note_on_c, 0, 80, 70
2, 6255, Note_on_c, 0, 56, 47
2, 6269, Note_on_c, 0, 87, 70
2, 6272, Note_on_c, 0, 65, 68
2, 6289, Note_on_c, 0, 73, 66
2, 6292, Note_on_c, 0, 80, 0
2, 6300, Note_on_c, 0, 63, 0
2, 6317, Note_on_c, 0, 75, 0
2, 6335, Note_on_c, 0, 85, 68
2, 6349, Note_on_c, 0, 85, 0
2, 6359, Note_on_c, 0, 80, 69
2, 6376, Note_on_c, 0, 80, 0
2, 6390, Note_on_c, 0, 85, 59
2, 6412, Note_on_c, 0, 87, 0
2, 6420, Note_on_c, 0, 80, 66
2, 6439, Note_on_c, 0, 85, 0
2, 6452, Note_on_c, 0, 92, 59
2, 6517, Note_on_c, 0, 85, 62
2, 6544, Note_on_c, 0, 97, 65
2, 6563, Note_on_c, 0, 92, 0
2, 6571, Note_on_c, 0, 68, 0
2, 6588, Note_on_c, 0, 60, 46
2, 6617, Note_on_c, 0, 49, 0
2, 6617, Note_on_c, 0, 56, 0
2, 6617, Note_on_c, 0, 66, 63
2, 6624, Note_on_c, 0, 92, 60
2, 6627, Note_on_c, 0, 68, 61
2, 6635, Note_on_c, 0, 65, 0
2, 6652, Note_on_c, 0, 73, 0
2, 6655, Note_on_c, 0, 92, 0
2, 6655, Note_on_c, 0, 85, 0
2, 6672, Note_on_c, 0, 94, 61
2, 6682, Note_on_c, 0, 68, 0
2, 6690, Note_on_c, 0, 66, 0
2, 6697, Note_on_c, 0, 92, 59
2, 6710, Note_on_c, 0, 97, 0
2, 6734, Note_on_c, 0, 68, 55
2, 6734, Note_on_c, 0, 87, 53
2, 6744, Note_on_c, 0, 56, 44
2, 6746, Note_on_c, 0, 66, 56
2, 6754, Note_on_c, 0, 87, 0
2, 6771, Note_on_c, 0, 99, 53
2, 6805, Note_on_c, 0, 87, 55
2, 6822, Note_on_c, 0, 87, 0
2, 6840, Note_on_c, 0, 99, 0
2, 6840, Note_on_c, 0, 92, 0
2, 6840, Note_on_c, 0, 80, 0
2, 6840, Note_on_c, 0, 85, 59
2, 6842, Note_on_c, 0, 94, 0
2, 6850, Note_on_c, 0, 61, 45
2, 6853, Note_on_c, 0, 65, 57
2, 6853, Note_on_c, 0, 70, 54
2, 6861, Note_on_c, 0, 85, 0
2, 6880, Note_on_c, 0, 66, 0
2, 6880, Note_on_c, 0, 60, 0
2, 6880, Note_on_c, 0, 68, 0
2, 6880, Note_on_c, 0, 56, 0
2, 6888, Note_on_c, 0, 87, 58
2, 6890, Note_on_c, 0, 65, 0
2, 6927, Note_on_c, 0, 85, 59
2, 6936, Note_on_c, 0, 56, 43
2, 6946, Note_on_c, 0, 87, 0
2, 6946, Note_on_c, 0, 80, 57
2, 6956, Note_on_c, 0, 85, 0
2, 6956, Note_on_c, 0, 65, 57
2, 6956, Note_on_c, 0, 68, 55
2, 6963, Note_on_c, 0, 80, 0
2, 6973, Note_on_c, 0, 70, 0
2, 6973, Note_on_c, 0, 61, 0
2, 6973, Note_on_c, 0, 92, 57
2, 6985, Note_on_c, 0, 65, 0
2, 7003, Note_on_c, 0, 68, 0
2, 7010, Note_on_c, 0, 92, 0
2, 7013, Note_on_c, 0, 80, 54
2, 7031, Note_on_c, 0, 80, 0
2, 7057, Note_on_c, 0, 80, 54
2, 7060, Note_on_c, 0, 60, 42
2, 7078, Note_on_c, 0, 66, 56
2, 7078, Note_on_c, 0, 70, 53
2, 7085, Note_on_c, 0, 80, 0
2, 7095, Note_on_c, 0, 60, 0
2, 7095, Note_on_c, 0, 82, 56
2, 7103, Note_on_c, 0, 70, 0
2, 7112, Note_on_c, 0, 66, 0
2, 7122, Note_on_c, 0, 56, 0
2, 7122, Note_on_c, 0, 80, 54
2, 7139, Note_on_c, 0, 82, 0
2, 7158, Note_on_c, 0, 66, 60
2, 7158, Note_on_c, 0, 68, 53
2, 7158, Note_on_c, 0, 75, 56
2, 7166, Note_on_c, 0, 56, 46
2, 7190, Note_on_c, 0, 87, 59
2, 7239, Note_on_c, 0, 75, 0
2, 7239, Note_on_c, 0, 73, 59
2, 7247, Note_on_c, 0, 68, 0
2, 7259, Note_on_c, 0, 65, 59
2, 7267, Note_on_c, 0, 73, 0
2, 7267, Note_on_c, 0, 61, 47
2, 7272, Note_on_c, 0, 75, 56
2, 7274, Note_on_c, 0, 56, 0
2, 7274, Note_on_c, 0, 66, 0
2, 7311, Note_on_c, 0, 73, 59
2, 7319, Note_on_c, 0, 56, 45
2, 7343, Note_on_c, 0, 68, 75
2, 7362, Note_on_c, 0, 73, 0
2, 7362, Note_on_c, 0, 65, 0
2, 7362, Note_on_c, 0, 61, 0
2, 7389, Note_on_c, 0, 75, 0
2, 7403, Note_on_c, 0, 87, 0
2, 7403, Note_on_c, 0, 80, 0
2, 7422, Note_on_c, 0, 48, 48
2, 7456, Note_on_c, 0, 75, 55
2, 7464, Note_on_c, 0, 56, 0
2, 7500, Note_on_c, 0, 75, 0
2, 7508, Note_on_c, 0, 82, 55
2, 7511, Note_on_c, 0, 56, 43
2, 7525, Note_on_c, 0, 63, 42
2, 7525, Note_on_c, 0, 66, 54
2, 7533, Note_on_c, 0, 80, 56
2, 7552, Note_on_c, 0, 56, 0
2, 7560, Note_on_c, 0, 80, 0
2, 7569, Note_on_c, 0, 75, 58
2, 7586, Note_on_c, 0, 73, 63
2, 7594, Note_on_c, 0, 61, 45
2, 7594, Note_on_c, 0, 65, 59
2, 7604, Note_on_c, 0, 56, 41
2, 7611, Note_on_c, 0, 75, 0
2, 7611, Note_on_c, 0, 63, 0
2, 7611, Note_on_c, 0, 82, 0
2, 7611, Note_on_c, 0, 68, 0
2, 7611, Note_on_c, 0, 66, 0
2, 7621, Note_on_c, 0, 61, 0
2, 7621, Note_on_c, 0, 65, 0
2, 7621, Note_on_c, 0, 73, 0
2, 7624, Note_on_c, 0, 48, 0
2, 7632, Note_on_c, 0, 56, 0
2, 7632, Note_on_c, 0, 80, 61
2, 7668, Note_on_c, 0, 85, 60
2, 7676, Note_on_c, 0, 80, 0
2, 7693, Note_on_c, 0, 87, 66
2, 7703, Note_on_c, 0, 85, 0
2, 7703, Note_on_c, 0, 49, 43
2, 7729, Note_on_c, 0, 85, 66
2, 7739, Note_on_c, 0, 49, 0
2, 7739, Note_on_c, 0, 87, 0
2, 7747, Note_on_c, 0, 82, 63
2, 7766, Note_on_c, 0, 85, 0
2, 7778, Note_on_c, 0, 80, 70
2, 7781, Note_on_c, 0, 82, 0
2, 7781, Note_on_c, 0, 44, 47
2, 7808, Note_on_c, 0, 80, 0
2, 7811, Note_on_c, 0, 87, 71
2, 7819, Note_on_c, 0, 44, 0
2, 7846, Note_on_c, 0, 87, 0
2, 7846, Note_on_c, 0, 92, 68
2, 7870, Note_on_c, 0, 92, 0
2, 7870, Note_on_c, 0, 94, 68
2, 7879, Note_on_c, 0, 56, 47
2, 7879, Note_on_c, 0, 60, 42
2, 7889, Note_on_c, 0, 66, 70
2, 7896, Note_on_c, 0, 92, 72
2, 7899, Note_on_c, 0, 94, 0
2, 7907, Note_on_c, 0, 60, 0
2, 7917, Note_on_c, 0, 56, 0
2, 7926, Note_on_c, 0, 92, 0
2, 7926, Note_on_c, 0, 66, 0
2, 7934, Note_on_c, 0, 87, 70
2, 7953, Note_on_c, 0, 37, 44
2, 7958, Note_on_c, 0, 87, 0
2, 7961, Note_on_c, 0, 85, 64
2, 7980, Note_on_c, 0, 37, 0
2, 7994, Note_on_c, 0, 92, 65
2, 7997, Note_on_c, 0, 85, 0
2, 8021, Note_on_c, 0, 97, 59
2, 8034, Note_on_c, 0, 92, 0
2, 8041, Note_on_c, 0, 56, 41
2, 8049, Note_on_c, 0, 61, 43
2, 8049, Note_on_c, 0, 65, 62
2, 8049, Note_on_c, 0, 99, 61
2, 8078, Note_on_c, 0, 99, 0
2, 8078, Note_on_c, 0, 56, 0
2, 8078, Note_on_c, 0, 65, 0
2, 8086, Note_on_c, 0, 61, 0
2, 8095, Note_on_c, 0, 94, 63
2, 8112, Note_on_c, 0, 94, 0
2, 8112, Note_on_c, 0, 97, 0
2, 8120, Note_on_c, 0, 92, 61
2, 8139, Note_on_c, 0, 94, 66
2, 8149, Note_on_c, 0, 44, 43
2, 8176, Note_on_c, 0, 44, 0
2, 8184, Note_on_c, 0, 94, 0
2, 8201, Note_on_c, 0, 60, 43
2, 8204, Note_on_c, 0, 92, 0
2, 8221, Note_on_c, 0, 66, 51
2, 8221, Note_on_c, 0, 68, 52
2, 8221, Note_on_c, 0, 87, 49
2, 8238, Note_on_c, 0, 87, 0
2, 8238, Note_on_c, 0, 60, 0
2, 8241, Note_on_c, 0, 99, 54
2, 8246, Note_on_c, 0, 68, 0
2, 8256, Note_on_c, 0, 66, 0
2, 8273, Note_on_c, 0, 99, 0
2, 8282, Note_on_c, 0, 87, 53
2, 8300, Note_on_c, 0, 87, 0
2, 8317, Note_on_c, 0, 85, 52
2, 8325, Note_on_c, 0, 70, 50
2, 8334, Note_on_c, 0, 85, 0
2, 8334, Note_on_c, 0, 61, 44
2, 8334, Note_on_c, 0, 65, 48
2, 8344, Note_on_c, 0, 87, 48
2, 8363, Note_on_c, 0, 65, 0
2, 8377, Note_on_c, 0, 85, 52
2, 8380, Note_on_c, 0, 87, 0
2, 8407, Note_on_c, 0, 85, 0
2, 8407, Note_on_c, 0, 80, 52
2, 8417, Note_on_c, 0, 56, 47
2, 8417, Note_on_c, 0, 65, 50
2, 8417, Note_on_c, 0, 68, 47
2, 8424, Note_on_c, 0, 92, 50
2, 8434, Note_on_c, 0, 61, 0
2, 8434, Note_on_c, 0, 70, 0
2, 8442, Note_on_c, 0, 56, 0
2, 8442, Note_on_c, 0, 65, 0
2, 8451, Note_on_c, 0, 68, 0
2, 8461, Note_on_c, 0, 92, 0
2, 8502, Note_on_c, 0, 70, 54
2, 8505, Note_on_c, 0, 60, 45
2, 8505, Note_on_c, 0, 66, 49
2, 8522, Note_on_c, 0, 80, 0
2, 8522, Note_on_c, 0, 82, 50
2, 8542, Note_on_c, 0, 66, 0
2, 8568, Note_on_c, 0, 80, 50
2, 8583, Note_on_c, 0, 68, 50
2, 8592, Note_on_c, 0, 56, 48
2, 8592, Note_on_c, 0, 66, 49
2, 8592, Note_on_c, 0, 75, 48
2, 8607, Note_on_c, 0, 75, 0
2, 8619, Note_on_c, 0, 87, 49
2, 8643, Note_on_c, 0, 82, 0
2, 8643, Note_on_c, 0, 75, 51
2, 8661, Note_on_c, 0, 80, 0
2, 8670, Note_on_c, 0, 75, 0
2, 8678, Note_on_c, 0, 65, 52
2, 8678, Note_on_c, 0, 73, 49
2, 8681, Note_on_c, 0, 61, 45
2, 8688, Note_on_c, 0, 56, 0
2, 8693, Note_on_c, 0, 73, 0
2, 8698, Note_on_c, 0, 66, 0
2, 8698, Note_on_c, 0, 60, 0
2, 8706, Note_on_c, 0, 70, 0
2, 8706, Note_on_c, 0, 68, 0
2, 8706, Note_on_c, 0, 75, 48
2, 8720, Note_on_c, 0, 73, 48
2, 8723, Note_on_c, 0, 87, 0
2, 8731, Note_on_c, 0, 56, 43
2, 8760, Note_on_c, 0, 68, 66
2, 8782, Note_on_c, 0, 75, 0
2, 8782, Note_on_c, 0, 61, 0
2, 8782, Note_on_c, 0, 65, 0
2, 8784, Note_on_c, 0, 73, 0
2, 8853, Note_on_c, 0, 48, 47
2, 8880, Note_on_c, 0, 80, 54
2, 8889, Note_on_c, 0, 56, 0
2, 8897, Note_on_c, 0, 80, 0
2, 8904, Note_on_c, 0, 78, 52
2, 8922, Note_on_c, 0, 78, 0
2, 8931, Note_on_c, 0, 56, 43
2, 8931, Note_on_c, 0, 63, 46
2, 8931, Note_on_c, 0, 80, 50
2, 8941, Note_on_c, 0, 66, 50
2, 8949, Note_on_c, 0, 80, 0
2, 8949, Note_on_c, 0, 78, 48
2, 8976, Note_on_c, 0, 80, 48
2, 8983, Note_on_c, 0, 78, 0
2, 9000, Note_on_c, 0, 80, 0
2, 9010, Note_on_c, 0, 90, 51
2, 9037, Note_on_c, 0, 80, 52
2, 9054, Note_on_c, 0, 78, 47
2, 9062, Note_on_c, 0, 80, 0
2, 9070, Note_on_c, 0, 78, 0
2, 9082, Note_on_c, 0, 36, 47
2, 9090, Note_on_c, 0, 80, 54
2, 9099, Note_on_c, 0, 68, 0
2, 9099, Note_on_c, 0, 90, 0
2, 9104, Note_on_c, 0, 80, 0
2, 9107, Note_on_c, 0, 78, 48
2, 9126, Note_on_c, 0, 48, 0
2, 9141, Note_on_c, 0, 80, 49
2, 9155, Note_on_c, 0, 80, 0
2, 9158, Note_on_c, 0, 68, 66
2, 9168, Note_on_c, 0, 78, 0
2, 9168, Note_on_c, 0, 48, 51
2, 9185, Note_on_c, 0, 80, 48
2, 9212, Note_on_c, 0, 80, 0
2, 9219, Note_on_c, 0, 63, 0
2, 9219, Note_on_c, 0, 56, 0
2, 9229, Note_on_c, 0, 66, 0
2, 9239, Note_on_c, 0, 78, 48
2, 9253, Note_on_c, 0, 78, 0
2, 9261, Note_on_c, 0, 80, 50
2, 9264, Note_on_c, 0, 56, 46
2, 9264, Note_on_c, 0, 63, 44
2, 9281, Note_on_c, 0, 80, 0
2, 9281, Note_on_c, 0, 66, 48
2, 9290, Note_on_c, 0, 78, 51
2, 9314, Note_on_c, 0, 80, 50
2, 9324, Note_on_c, 0, 78, 0
2, 9338, Note_on_c, 0, 80, 0
2, 9348, Note_on_c, 0, 90, 47
2, 9365, Note_on_c, 0, 56, 0
2, 9365, Note_on_c, 0, 68, 0
2, 9365, Note_on_c, 0, 63, 0
2, 9365, Note_on_c, 0, 66, 0
2, 9365, Note_on_c, 0, 80, 54
2, 9373, Note_on_c, 0, 90, 0
2, 9383, Note_on_c, 0, 80, 0
2, 9385, Note_on_c, 0, 36, 0
2, 9393, Note_on_c, 0, 48, 0
2, 9393, Note_on_c, 0, 78, 48
2, 9410, Note_on_c, 0, 78, 0
2, 9430, Note_on_c, 0, 80, 47
2, 9437, Note_on_c, 0, 36, 42
2, 9445, Note_on_c, 0, 80, 0
2, 9455, Note_on_c, 0, 48, 47
2, 9455, Note_on_c, 0, 78, 53
2, 9481, Note_on_c, 0, 36, 0
2, 9481, Note_on_c, 0, 80, 48
2, 9491, Note_on_c, 0, 48, 0
2, 9499, Note_on_c, 0, 78, 0
2, 9516, Note_on_c, 0, 49, 54
2, 9516, Note_on_c, 0, 70, 62
2, 9526, Note_on_c, 0, 37, 47
2, 9545, Note_on_c, 0, 82, 66
2, 9572, Note_on_c, 0, 82, 0
2, 9572, Note_on_c, 0, 80, 0
2, 9581, Note_on_c, 0, 78, 57
2, 9596, Note_on_c, 0, 78, 0
2, 9613, Note_on_c, 0, 66, 57
2, 9616, Note_on_c, 0, 58, 48
2, 9616, Note_on_c, 0, 61, 45
2, 9616, Note_on_c, 0, 82, 60
2, 9630, Note_on_c, 0, 82, 0
2, 9640, Note_on_c, 0, 78, 56
2, 9669, Note_on_c, 0, 82, 59
2, 9676, Note_on_c, 0, 58, 0
2, 9676, Note_on_c, 0, 66, 0
2, 9676, Note_on_c, 0, 70, 0
2, 9676, Note_on_c, 0, 61, 0
2, 9684, Note_on_c, 0, 78, 0
2, 9696, Note_on_c, 0, 82, 0
2, 9704, Note_on_c, 0, 90, 55
2, 9714, Note_on_c, 0, 36, 58
2, 9723, Note_on_c, 0, 48, 54
2, 9733, Note_on_c, 0, 82, 56
2, 9743, Note_on_c, 0, 90, 0
2, 9743, Note_on_c, 0, 37, 0
2, 9743, Note_on_c, 0, 49, 0
2, 9750, Note_on_c, 0, 48, 0
2, 9750, Note_on_c, 0, 78, 59
2, 9760, Note_on_c, 0, 82, 0
2, 9760, Note_on_c, 0, 36, 0
2, 9779, Note_on_c, 0, 78, 0
2, 9796, Note_on_c, 0, 82, 59
2, 9814, Note_on_c, 0, 49, 60
2, 9823, Note_on_c, 0, 82, 0
2, 9823, Note_on_c, 0, 37, 55
2, 9826, Note_on_c, 0, 78, 60
2, 9853, Note_on_c, 0, 37, 0
2, 9853, Note_on_c, 0, 49, 0
2, 9861, Note_on_c, 0, 82, 66
2, 9888, Note_on_c, 0, 82, 0
2, 9897, Note_on_c, 0, 78, 0
2, 9905, Note_on_c, 0, 70, 65
2, 9908, Note_on_c, 0, 50, 58
2, 9915, Note_on_c, 0, 38, 60
2, 9933, Note_on_c, 0, 82, 54
2, 9957, Note_on_c, 0, 78, 59
2, 9960, Note_on_c, 0, 82, 0
2, 9986, Note_on_c, 0, 78, 0
2, 9986, Note_on_c, 0, 82, 59
2, 10004, Note_on_c, 0, 82, 0
2, 10004, Note_on_c, 0, 58, 47
2, 10004, Note_on_c, 0, 66, 59
2, 10021, Note_on_c, 0, 78, 58
2, 10050, Note_on_c, 0, 78, 0
2, 10050, Note_on_c, 0, 82, 54
2, 10077, Note_on_c, 0, 82, 0
2, 10080, Note_on_c, 0, 37, 63
2, 10087, Note_on_c, 0, 49, 67
2, 10087, Note_on_c, 0, 90, 60
2, 10097, Note_on_c, 0, 38, 0
2, 10104, Note_on_c, 0, 66, 0
2, 10104, Note_on_c, 0, 58, 0
2, 10104, Note_on_c, 0, 70, 0
2, 10104, Note_on_c, 0, 82, 57
2, 10107, Note_on_c, 0, 50, 0
2, 10112, Note_on_c, 0, 37, 0
2, 10122, Note_on_c, 0, 49, 0
2, 10122, Note_on_c, 0, 90, 0
2, 10129, Note_on_c, 0, 82, 0
2, 10132, Note_on_c, 0, 78, 60
2, 10147, Note_on_c, 0, 78, 0
2, 10166, Note_on_c, 0, 82, 60
2, 10176, Note_on_c, 0, 38, 67
2, 10195, Note_on_c, 0, 82, 0
2, 10195, Note_on_c, 0, 50, 60
2, 10202, Note_on_c, 0, 78, 55
2, 10215, Note_on_c, 0, 38, 0
2, 10220, Note_on_c, 0, 78, 0
2, 10223, Note_on_c, 0, 50, 0
2, 10230, Note_on_c, 0, 82, 61
2, 10259, Note_on_c, 0, 82, 0
2, 10269, Note_on_c, 0, 51, 70
2, 10276, Note_on_c, 0, 39, 68
2, 10276, Note_on_c, 0, 78, 55
2, 10300, Note_on_c, 0, 78, 0
2, 10300, Note_on_c, 0, 82, 55
2, 10327, Note_on_c, 0, 78, 64
2, 10370, Note_on_c, 0, 82, 0
2, 10397, Note_on_c, 0, 78, 0
2, 10397, Note_on_c, 0, 94, 60
2, 10405, Note_on_c, 0, 58, 43
2, 10417, Note_on_c, 0, 66, 65
2, 10432, Note_on_c, 0, 82, 63
2, 10465, Note_on_c, 0, 78, 62
2, 10475, Note_on_c, 0, 82, 0
2, 10497, Note_on_c, 0, 78, 0
2, 10497, Note_on_c, 0, 92, 68
2, 10534, Note_on_c, 0, 51, 0
2, 10534, Note_on_c, 0, 39, 0
2, 10541, Note_on_c, 0, 82, 67
2, 10565, Note_on_c, 0, 82, 0
2, 10565, Note_on_c, 0, 78, 65
2, 10589, Note_on_c, 0, 39, 59
2, 10592, Note_on_c, 0, 78, 0
2, 10592, Note_on_c, 0, 51, 60
2, 10602, Note_on_c, 0, 90, 61
2, 10619, Note_on_c, 0, 94, 0
2, 10627, Note_on_c, 0, 82, 61
2, 10636, Note_on_c, 0, 92, 0
2, 10654, Note_on_c, 0, 78, 63
2, 10661, Note_on_c, 0, 82, 0
2, 10690, Note_on_c, 0, 78, 0
2, 10700, Note_on_c, 0, 40, 67
2, 10704, Note_on_c, 0, 85, 61
2, 10714, Note_on_c, 0, 39, 0
2, 10714, Note_on_c, 0, 52, 62
2, 10724, Note_on_c, 0, 90, 0
2, 10731, Note_on_c, 0, 51, 0
2, 10731, Note_on_c, 0, 82, 61
2, 10770, Note_on_c, 0, 78, 62
2, 10777, Note_on_c, 0, 82, 0
2, 10777, Note_on_c, 0, 66, 0
2, 10777, Note_on_c, 0, 58, 0
2, 10809, Note_on_c, 0, 94, 62
2, 10819, Note_on_c, 0, 78, 0
2, 10819, Note_on_c, 0, 58, 44
2, 10828, Note_on_c, 0, 66, 65
2, 10846, Note_on_c, 0, 82, 65
2, 10872, Note_on_c, 0, 82, 0
2, 10890, Note_on_c, 0, 78, 68
2, 10904, Note_on_c, 0, 78, 0
2, 10912, Note_on_c, 0, 92, 63
2, 10931, Note_on_c, 0, 40, 0
2, 10931, Note_on_c, 0, 82, 68
2, 10939, Note_on_c, 0, 52, 0
2, 10951, Note_on_c, 0, 78, 65
2, 10959, Note_on_c, 0, 82, 0
2, 10978, Note_on_c, 0, 78, 0
2, 10995, Note_on_c, 0, 40, 60
2, 10995, Note_on_c, 0, 52, 56
2, 10998, Note_on_c, 0, 90, 68
2, 11027, Note_on_c, 0, 82, 65
2, 11046, Note_on_c, 0, 78, 66
2, 11056, Note_on_c, 0, 85, 0
2, 11065, Note_on_c, 0, 94, 0
2, 11073, Note_on_c, 0, 92, 0
2, 11083, Note_on_c, 0, 82, 0
2, 11083, Note_on_c, 0, 41, 63
2, 11092, Note_on_c, 0, 53, 64
2, 11092, Note_on_c, 0, 73, 65
2, 11110, Note_on_c, 0, 40, 0
2, 11117, Note_on_c, 0, 78, 0
2, 11117, Note_on_c, 0, 52, 0
2, 11120, Note_on_c, 0, 66, 0
2, 11130, Note_on_c, 0, 85, 66
2, 11144, Note_on_c, 0, 85, 0
2, 11147, Note_on_c, 0, 90, 0
2, 11147, Note_on_c, 0, 82, 64
2, 11164, Note_on_c, 0, 58, 0
2, 11182, Note_on_c, 0, 85, 66
2, 11201, Note_on_c, 0, 85, 0
2, 11201, Note_on_c, 0, 61, 49
2, 11210, Note_on_c, 0, 58, 49
2, 11218, Note_on_c, 0, 65, 63
2, 11240, Note_on_c, 0, 85, 69
2, 11262, Note_on_c, 0, 97, 64
2, 11280, Note_on_c, 0, 65, 0
2, 11289, Note_on_c, 0, 85, 0
2, 11289, Note_on_c, 0, 53, 0
2, 11289, Note_on_c, 0, 61, 0
2, 11289, Note_on_c, 0, 41, 0
2, 11289, Note_on_c, 0, 58, 0
2, 11289, Note_on_c, 0, 94, 64
2, 11299, Note_on_c, 0, 97, 0
2, 11299, Note_on_c, 0, 73, 0
2, 11299, Note_on_c, 0, 82, 0
2, 11308, Note_on_c, 0, 40, 67
2, 11308, Note_on_c, 0, 52, 69
2, 11326, Note_on_c, 0, 97, 62
2, 11335, Note_on_c, 0, 52, 0
2, 11335, Note_on_c, 0, 40, 0
2, 11345, Note_on_c, 0, 94, 0
2, 11354, Note_on_c, 0, 85, 69
2, 11372, Note_on_c, 0, 97, 0
2, 11379, Note_on_c, 0, 85, 0
2, 11397, Note_on_c, 0, 53, 63
2, 11409, Note_on_c, 0, 85, 63
2, 11417, Note_on_c, 0, 41, 69
2, 11434, Note_on_c, 0, 53, 0
2, 11434, Note_on_c, 0, 82, 69
2, 11444, Note_on_c, 0, 41, 0
2, 11487, Note_on_c, 0, 82, 0
2, 11490, Note_on_c, 0, 85, 0
2, 11497, Note_on_c, 0, 73, 62
2, 11507, Note_on_c, 0, 42, 64
2, 11507, Note_on_c, 0, 54, 69
2, 11534, Note_on_c, 0, 85, 63
2, 11551, Note_on_c, 0, 85, 0
2, 11559, Note_on_c, 0, 82, 68
2, 11578, Note_on_c, 0, 85, 62
2, 11595, Note_on_c, 0, 85, 0
2, 11605, Note_on_c, 0, 61, 50
2, 11613, Note_on_c, 0, 58, 45
2, 11613, Note_on_c, 0, 64, 44
2, 11630, Note_on_c, 0, 85, 66
2, 11654, Note_on_c, 0, 97, 62
2, 11666, Note_on_c, 0, 85, 0
2, 11671, Note_on_c, 0, 94, 65
2, 11695, Note_on_c, 0, 41, 69
2, 11695, Note_on_c, 0, 53, 63
2, 11712, Note_on_c, 0, 54, 0
2, 11715, Note_on_c, 0, 61, 0
2, 11715, Note_on_c, 0, 73, 0
2, 11715, Note_on_c, 0, 64, 0
2, 11715, Note_on_c, 0, 42, 0
2, 11715, Note_on_c, 0, 58, 0
2, 11723, Note_on_c, 0, 41, 0
2, 11723, Note_on_c, 0, 53, 0
2, 11723, Note_on_c, 0, 94, 0
2, 11740, Note_on_c, 0, 85, 65
2, 11750, Note_on_c, 0, 82, 0
2, 11750, Note_on_c, 0, 97, 0
2, 11758, Note_on_c, 0, 85, 0
2, 11784, Note_on_c, 0, 42, 67
2, 11792, Note_on_c, 0, 85, 65
2, 11802, Note_on_c, 0, 54, 65
2, 11809, Control_c, 0, 64, 127
2, 11819, Note_on_c, 0, 82, 63
2, 11822, Note_on_c, 0, 85, 0
2, 11822, Note_on_c, 0, 42, 0
2, 11830, Note_on_c, 0, 54, 0
2, 11849, Note_on_c, 0, 85, 68
2, 11863, Note_on_c, 0, 85, 0
2, 11866, Note_on_c, 0, 82, 0
2, 11874, Note_on_c, 0, 55, 68
2, 11881, Note_on_c, 0, 73, 66
2, 11891, Note_on_c, 0, 43, 64
2, 11910, Note_on_c, 0, 85, 67
2, 11918, Note_on_c, 0, 55, 0
2, 11926, Note_on_c, 0, 82, 62
2, 11928, Note_on_c, 0, 85, 0
2, 11955, Note_on_c, 0, 85, 65
2, 11963, Note_on_c, 0, 61, 49
2, 11971, Note_on_c, 0, 55, 47
2, 11971, Note_on_c, 0, 64, 45
2, 12022, Note_on_c, 0, 97, 67
2, 12046, Note_on_c, 0, 85, 0
2, 12053, Note_on_c, 0, 92, 62
2, 12056, Note_on_c, 0, 97, 0
2, 12064, Note_on_c, 0, 44, 66
2, 12064, Note_on_c, 0, 56, 67
2, 12073, Note_on_c, 0, 82, 0
2, 12091, Note_on_c, 0, 55, 0
2, 12091, Note_on_c, 0, 43, 0
2, 12098, Note_on_c, 0, 97, 67
2, 12108, Note_on_c, 0, 56, 0
2, 12108, Note_on_c, 0, 61, 0
2, 12108, Note_on_c, 0, 64, 0
2, 12116, Note_on_c, 0, 85, 66
2, 12133, Note_on_c, 0, 85, 0
2, 12152, Note_on_c, 0, 56, 54
2, 12152, Note_on_c, 0, 61, 51
2, 12152, Note_on_c, 0, 64, 52
2, 12179, Note_on_c, 0, 85, 59
2, 12193, Note_on_c, 0, 85, 0
2, 12196, Note_on_c, 0, 73, 0
2, 12196, Note_on_c, 0, 92, 0
2, 12204, Note_on_c, 0, 80, 59
2, 12207, Note_on_c, 0, 97, 0
2, 12231, Note_on_c, 0, 85, 66
2, 12248, Note_on_c, 0, 85, 0
2, 12265, Control_c, 0, 64, 0
2, 12265, Note_on_c, 0, 57, 68
2, 12265, Note_on_c, 0, 73, 62
2, 12273, Note_on_c, 0, 45, 72
2, 12281, Note_on_c, 0, 80, 0
2, 12288, Note_on_c, 0, 61, 0
2, 12291, Note_on_c, 0, 64, 0
2, 12291, Note_on_c, 0, 44, 0
2, 12291, Note_on_c, 0, 56, 0
2, 12299, Note_on_c, 0, 85, 66
2, 12318, Note_on_c, 0, 85, 0
2, 12318, Note_on_c, 0, 57, 0
2, 12328, Note_on_c, 0, 78, 59
2, 12336, Note_on_c, 0, 73, 0
2, 12369, Note_on_c, 0, 85, 66
2, 12379, Note_on_c, 0, 57, 48
2, 12379, Note_on_c, 0, 63, 54
2, 12386, Note_on_c, 0, 66, 62
2, 12406, Note_on_c, 0, 73, 60
2, 12413, Note_on_c, 0, 66, 0
2, 12423, Note_on_c, 0, 73, 0
2, 12466, Note_on_c, 0, 73, 65
2, 12485, Note_on_c, 0, 73, 0
2, 12485, Note_on_c, 0, 66, 61
2, 12493, Note_on_c, 0, 45, 0
2, 12531, Note_on_c, 0, 73, 65
2, 12541, Note_on_c, 0, 61, 68
2, 12555, Note_on_c, 0, 61, 0
2, 12555, Note_on_c, 0, 45, 69
2, 12582, Note_on_c, 0, 33, 72
2, 12600, Note_on_c, 0, 61, 67
2, 12617, Note_on_c, 0, 61, 0
2, 12626, Note_on_c, 0, 54, 67
2, 12682, Note_on_c, 0, 61, 69
2, 12808, Note_on_c, 0, 33, 0
2, 12816, Note_on_c, 0, 32, 52
2, 12825, Note_on_c, 0, 44, 52
2, 12828, Note_on_c, 0, 54, 0
2, 12847, Note_on_c, 0, 51, 66
2, 12857, Note_on_c, 0, 45, 0
2, 12857, Note_on_c, 0, 61, 0
2, 12871, Note_on_c, 0, 57, 0
2, 12874, Note_on_c, 0, 63, 0
2, 12891, Note_on_c, 0, 54, 48
2, 12899, Control_c, 0, 64, 127
2, 12909, Note_on_c, 0, 54, 0
2, 12928, Note_on_c, 0, 61, 54
2, 12942, Note_on_c, 0, 61, 0
2, 12945, Note_on_c, 0, 63, 49
2, 12972, Note_on_c, 0, 63, 0
2, 12972, Note_on_c, 0, 78, 0
2, 12972, Note_on_c, 0, 73, 0
2, 12972, Note_on_c, 0, 85, 0
2, 12980, Note_on_c, 0, 54, 51
2, 13016, Note_on_c, 0, 66, 0
2, 13016, Note_on_c, 0, 61, 47
2, 13033, Note_on_c, 0, 61, 0
2, 13033, Note_on_c, 0, 63, 52
2, 13051, Note_on_c, 0, 63, 0
2, 13087, Note_on_c, 0, 66, 63
2, 13095, Note_on_c, 0, 61, 60
2, 13104, Note_on_c, 0, 66, 0
2, 13131, Note_on_c, 0, 63, 61
2, 13151, Note_on_c, 0, 63, 0
2, 13170, Note_on_c, 0, 66, 59
2, 13184, Note_on_c, 0, 66, 0
2, 13194, Note_on_c, 0, 73, 59
2, 13211, Note_on_c, 0, 73, 0
2, 13211, Note_on_c, 0, 63, 64
2, 13240, Note_on_c, 0, 66, 66
2, 13267, Note_on_c, 0, 66, 0
2, 13267, Note_on_c, 0, 73, 63
2, 13291, Note_on_c, 0, 73, 0
2, 13308, Note_on_c, 0, 75, 66
2, 13337, Note_on_c, 0, 75, 0
2, 13337, Note_on_c, 0, 66, 62
2, 13344, Note_on_c, 0, 61, 0
2, 13371, Note_on_c, 0, 66, 0
2, 13371, Note_on_c, 0, 56, 47
2, 13371, Note_on_c, 0, 73, 63
2, 13398, Note_on_c, 0, 73, 0
2, 13398, Note_on_c, 0, 75, 62
2, 13413, Note_on_c, 0, 75, 0
2, 13413, Note_on_c, 0, 61, 54
2, 13422, Note_on_c, 0, 66, 64
2, 13422, Note_on_c, 0, 78, 64
2, 13456, Note_on_c, 0, 78, 0
2, 13464, Note_on_c, 0, 73, 62
2, 13490, Note_on_c, 0, 56, 0
2, 13490, Note_on_c, 0, 75, 65
2, 13498, Note_on_c, 0, 61, 0
2, 13511, Note_on_c, 0, 66, 0
2, 13525, Note_on_c, 0, 78, 61
2, 13535, Note_on_c, 0, 75, 0
2, 13542, Note_on_c, 0, 78, 0
2, 13542, Note_on_c, 0, 56, 53
2, 13552, Note_on_c, 0, 61, 48
2, 13552, Note_on_c, 0, 66, 64
2, 13560, Note_on_c, 0, 56, 0
2, 13572, Note_on_c, 0, 85, 65
2, 13580, Note_on_c, 0, 66, 0
2, 13580, Note_on_c, 0, 61, 0
2, 13587, Note_on_c, 0, 78, 65
2, 13605, Note_on_c, 0, 56, 64
2, 13605, Note_on_c, 0, 75, 82
2, 13612, Note_on_c, 0, 61, 66
2, 13612, Note_on_c, 0, 66, 85
2, 13641, Note_on_c, 0, 85, 0
2, 13675, Note_on_c, 0, 78, 0
2, 13682, Note_on_c, 0, 87, 65
2, 13687, Note_on_c, 0, 75, 0
2, 13690, Note_on_c, 0, 85, 62
2, 13704, Note_on_c, 0, 78, 66
2, 13707, Note_on_c, 0, 85, 0
2, 13734, Note_on_c, 0, 78, 0
2, 13742, Note_on_c, 0, 75, 64
2, 13771, Note_on_c, 0, 75, 0
2, 13780, Note_on_c, 0, 85, 64
2, 13788, Note_on_c, 0, 73, 0
2, 13798, Note_on_c, 0, 87, 0
2, 13805, Note_on_c, 0, 78, 66
2, 13820, Note_on_c, 0, 78, 0
2, 13823, Note_on_c, 0, 75, 62
2, 13849, Note_on_c, 0, 75, 0
2, 13857, Note_on_c, 0, 73, 62
2, 13889, Note_on_c, 0, 73, 0
2, 13896, Note_on_c, 0, 78, 60
2, 13906, Note_on_c, 0, 66, 0
2, 13916, Note_on_c, 0, 75, 60
2, 13943, Note_on_c, 0, 75, 0
2, 13955, Note_on_c, 0, 73, 66
2, 13972, Note_on_c, 0, 73, 0
2, 13982, Note_on_c, 0, 66, 61
2, 14001, Note_on_c, 0, 63, 0
2, 14009, Note_on_c, 0, 75, 60
2, 14012, Note_on_c, 0, 66, 0
2, 14029, Note_on_c, 0, 73, 61
2, 14046, Note_on_c, 0, 73, 0
2, 14056, Note_on_c, 0, 66, 66
2, 14065, Note_on_c, 0, 63, 61
2, 14083, Note_on_c, 0, 66, 0
2, 14092, Note_on_c, 0, 63, 0
2, 14100, Note_on_c, 0, 61, 0
2, 14100, Note_on_c, 0, 73, 61
2, 14136, Note_on_c, 0, 66, 62
2, 14146, Note_on_c, 0, 63, 64
2, 14163, Note_on_c, 0, 66, 0
2, 14173, Note_on_c, 0, 63, 0
2, 14173, Note_on_c, 0, 61, 65
2, 14202, Note_on_c, 0, 66, 62
2, 14233, Note_on_c, 0, 63, 60
2, 14280, Note_on_c, 0, 56, 0
2, 14323, Note_on_c, 0, 44, 0
2, 14323, Note_on_c, 0, 32, 0
2, 14330, Note_on_c, 0, 63, 0
2, 14338, Note_on_c, 0, 56, 79
2, 14348, Note_on_c, 0, 66, 0
2, 14365, Note_on_c, 0, 51, 0
2, 14365, Note_on_c, 0, 54, 0
2, 14373, Note_on_c, 0, 32, 60
2, 14382, Note_on_c, 0, 44, 61
2, 14390, Note_on_c, 0, 63, 62
2, 14409, Note_on_c, 0, 66, 66
2, 14417, Note_on_c, 0, 61, 0
2, 14420, Note_on_c, 0, 63, 0
2, 14434, Control_c, 0, 64, 0
2, 14437, Note_on_c, 0, 66, 0
2, 14437, Note_on_c, 0, 68, 64
2, 14451, Note_on_c, 0, 63, 64
2, 14454, Note_on_c, 0, 68, 0
2, 14454, Note_on_c, 0, 73, 0
2, 14454, Note_on_c, 0, 85, 0
2, 14454, Note_on_c, 0, 78, 0
2, 14462, Note_on_c, 0, 75, 0
2, 14479, Note_on_c, 0, 66, 61
2, 14498, Note_on_c, 0, 68, 59
2, 14508, Note_on_c, 0, 66, 0
2, 14542, Note_on_c, 0, 68, 0
2, 14542, Note_on_c, 0, 75, 60
2, 14559, Note_on_c, 0, 75, 0
2, 14573, Control_c, 0, 64, 127
2, 14576, Note_on_c, 0, 66, 60
2, 14603, Note_on_c, 0, 68, 62
2, 14620, Note_on_c, 0, 75, 66
2, 14630, Note_on_c, 0, 68, 0
2, 14647, Note_on_c, 0, 75, 0
2, 14647, Note_on_c, 0, 78, 62
2, 14674, Note_on_c, 0, 78, 0
2, 14691, Note_on_c, 0, 56, 0
2, 14691, Note_on_c, 0, 68, 60
2, 14709, Note_on_c, 0, 75, 60
2, 14726, Note_on_c, 0, 78, 64
2, 14736, Note_on_c, 0, 75, 0
2, 14743, Note_on_c, 0, 78, 0
2, 14753, Note_on_c, 0, 56, 51
2, 14762, Note_on_c, 0, 66, 0
2, 14762, Note_on_c, 0, 80, 61
2, 14789, Note_on_c, 0, 80, 0
2, 14799, Note_on_c, 0, 75, 60
2, 14807, Note_on_c, 0, 68, 0
2, 14807, Note_on_c, 0, 60, 52
2, 14826, Note_on_c, 0, 78, 60
2, 14833, Note_on_c, 0, 66, 66
2, 14853, Note_on_c, 0, 78, 0
2, 14860, Note_on_c, 0, 80, 64
2, 14870, Note_on_c, 0, 68, 59
2, 14887, Note_on_c, 0, 80, 0
2, 14887, Note_on_c, 0, 87, 59
2, 14914, Note_on_c, 0, 78, 64
2, 14955, Note_on_c, 0, 80, 65
2, 14973, Note_on_c, 0, 56, 0
2, 14980, Note_on_c, 0, 68, 0
2, 14980, Note_on_c, 0, 60, 0
2, 14983, Note_on_c, 0, 66, 0
2, 15000, Note_on_c, 0, 87, 0
2, 15024, Note_on_c, 0, 90, 62
2, 15032, Note_on_c, 0, 56, 50
2, 15040, Note_on_c, 0, 60, 52
2, 15049, Note_on_c, 0, 66, 62
2, 15049, Note_on_c, 0, 68, 64
2, 15052, Note_on_c, 0, 80, 0
2, 15057, Note_on_c, 0, 56, 0
2, 15065, Note_on_c, 0, 68, 0
2, 15068, Note_on_c, 0, 60, 0
2, 15068, Note_on_c, 0, 66, 0
2, 15068, Note_on_c, 0, 87, 65
2, 15095, Note_on_c, 0, 78, 0
2, 15102, Note_on_c, 0, 56, 60
2, 15102, Note_on_c, 0, 60, 61
2, 15105, Note_on_c, 0, 87, 0
2, 15120, Note_on_c, 0, 66, 79
2, 15120, Note_on_c, 0, 68, 84
2, 15120, Note_on_c, 0, 80, 84
2, 15134, Note_on_c, 0, 80, 0
2, 15163, Note_on_c, 0, 78, 54
2, 15180, Note_on_c, 0, 78, 0
2, 15183, Note_on_c, 0, 87, 54
2, 15200, Note_on_c, 0, 75, 0
2, 15208, Note_on_c, 0, 80, 53
2, 15232, Note_on_c, 0, 78, 52
2, 15235, Note_on_c, 0, 80, 0
2, 15259, Note_on_c, 0, 78, 0
2, 15259, Note_on_c, 0, 75, 50
2, 15295, Note_on_c, 0, 75, 0
2, 15303, Note_on_c, 0, 80, 50
2, 15327, Note_on_c, 0, 78, 50
2, 15336, Note_on_c, 0, 68, 0
2, 15354, Note_on_c, 0, 75, 47
2, 15373, Note_on_c, 0, 78, 0
2, 15387, Note_on_c, 0, 75, 0
2, 15395, Note_on_c, 0, 68, 47
2, 15429, Note_on_c, 0, 78, 48
2, 15432, Note_on_c, 0, 68, 0
2, 15458, Note_on_c, 0, 75, 53
2, 15468, Note_on_c, 0, 66, 0
2, 15495, Note_on_c, 0, 75, 0
2, 15503, Note_on_c, 0, 68, 54
2, 15520, Note_on_c, 0, 68, 0
2, 15532, Note_on_c, 0, 66, 50
2, 15556, Note_on_c, 0, 66, 0
2, 15556, Note_on_c, 0, 75, 49
2, 15593, Note_on_c, 0, 63, 0
2, 15593, Note_on_c, 0, 68, 49
2, 15622, Note_on_c, 0, 68, 0
2, 15622, Note_on_c, 0, 66, 48
2, 15644, Note_on_c, 0, 63, 49
2, 15647, Note_on_c, 0, 66, 0
2, 15671, Note_on_c, 0, 63, 0
2, 15680, Note_on_c, 0, 68, 53
2, 15707, Note_on_c, 0, 66, 50
2, 15726, Note_on_c, 0, 56, 0
2, 15745, Note_on_c, 0, 63, 51
2, 15779, Note_on_c, 0, 66, 0
2, 15798, Note_on_c, 0, 56, 54
2, 15806, Note_on_c, 0, 63, 0
2, 15855, Note_on_c, 0, 66, 51
2, 15863, Note_on_c, 0, 56, 0
2, 15863, Note_on_c, 0, 60, 0
2, 15870, Note_on_c, 0, 32, 0
2, 15870, Note_on_c, 0, 44, 0
2, 15870, Note_on_c, 0, 63, 50
2, 15904, Control_c, 0, 64, 0
2, 15907, Note_on_c, 0, 63, 0
2, 15907, Note_on_c, 0, 68, 0
2, 15907, Note_on_c, 0, 75, 0
2, 15907, Note_on_c, 0, 66, 0
2, 15907, Note_on_c, 0, 78, 0
2, 15910, Note_on_c, 0, 80, 0
2, 15910, Note_on_c, 0, 87, 0
2, 15910, Note_on_c, 0, 90, 0
2, 15959, Note_on_c, 0, 25, 63
2, 15961, Note_on_c, 0, 61, 60
2, 15988, Note_on_c, 0, 37, 66
2, 16027, Note_on_c, 0, 73, 50
2, 16044, Note_on_c, 0, 73, 0
2, 16052, Note_on_c, 0, 68, 47
2, 16079, Note_on_c, 0, 68, 0
2, 16079, Note_on_c, 0, 73, 53
2, 16103, Note_on_c, 0, 73, 0
2, 16120, Note_on_c, 0, 68, 48
2, 16139, Note_on_c, 0, 56, 44
2, 16139, Note_on_c, 0, 80, 52
2, 16156, Note_on_c, 0, 80, 0
2, 16176, Note_on_c, 0, 65, 66
2, 16176, Note_on_c, 0, 73, 60
2, 16193, Note_on_c, 0, 61, 0
2, 16193, Note_on_c, 0, 37, 0
2, 16200, Note_on_c, 0, 25, 0
2, 16203, Note_on_c, 0, 68, 0
2, 16213, Note_on_c, 0, 80, 62
2, 16221, Note_on_c, 0, 73, 0
2, 16249, Note_on_c, 0, 80, 0
2, 16273, Note_on_c, 0, 68, 47
2, 16293, Note_on_c, 0, 68, 0
2, 16296, Note_on_c, 0, 73, 47
2, 16310, Note_on_c, 0, 73, 0
2, 16329, Note_on_c, 0, 68, 54
2, 16366, Note_on_c, 0, 73, 51
2, 16390, Note_on_c, 0, 73, 0
2, 16390, Note_on_c, 0, 68, 0
2, 16399, Note_on_c, 0, 61, 64
2, 16426, Note_on_c, 0, 73, 50
2, 16440, Note_on_c, 0, 73, 0
2, 16458, Note_on_c, 0, 68, 48
2, 16475, Note_on_c, 0, 68, 0
2, 16485, Note_on_c, 0, 73, 48
2, 16504, Note_on_c, 0, 73, 0
2, 16513, Note_on_c, 0, 68, 53
2, 16540, Note_on_c, 0, 80, 51
2, 16562, Note_on_c, 0, 55, 60
2, 16565, Note_on_c, 0, 80, 0
2, 16565, Note_on_c, 0, 68, 0
2, 16573, Note_on_c, 0, 73, 48
2, 16583, Note_on_c, 0, 56, 0
2, 16585, Note_on_c, 0, 64, 58
2, 16609, Note_on_c, 0, 65, 0
2, 16609, Note_on_c, 0, 73, 0
2, 16609, Note_on_c, 0, 80, 52
2, 16638, Note_on_c, 0, 68, 49
2, 16662, Note_on_c, 0, 68, 0
2, 16681, Note_on_c, 0, 73, 51
2, 16699, Note_on_c, 0, 73, 0
2, 16699, Note_on_c, 0, 56, 41
2, 16699, Note_on_c, 0, 65, 47
2, 16708, Note_on_c, 0, 61, 0
2, 16716, Note_on_c, 0, 68, 54
2, 16719, Note_on_c, 0, 64, 0
2, 16727, Note_on_c, 0, 55, 0
2, 16744, Note_on_c, 0, 73, 53
2, 16771, Note_on_c, 0, 73, 0
2, 16771, Note_on_c, 0, 49, 61
2, 16780, Note_on_c, 0, 68, 0
2, 16780, Note_on_c, 0, 61, 60
2, 16798, Note_on_c, 0, 80, 0
2, 16817, Note_on_c, 0, 73, 52
2, 16829, Note_on_c, 0, 73, 0
2, 16839, Note_on_c, 0, 68, 55
2, 16875, Note_on_c, 0, 73, 53
2, 16893, Note_on_c, 0, 73, 0
2, 16929, Note_on_c, 0, 73, 50
2, 16948, Note_on_c, 0, 56, 0
2, 16948, Note_on_c, 0, 65, 0
2, 16948, Note_on_c, 0, 85, 49
2, 16966, Note_on_c, 0, 61, 0
2, 16975, Note_on_c, 0, 85, 0
2, 16975, Note_on_c, 0, 73, 0
2, 16983, Note_on_c, 0, 80, 67
2, 16992, Note_on_c, 0, 56, 47
2, 16997, Note_on_c, 0, 65, 67
2, 17007, Note_on_c, 0, 61, 45
2, 17010, Note_on_c, 0, 85, 62
2, 17043, Note_on_c, 0, 73, 54
2, 17053, Note_on_c, 0, 68, 0
2, 17061, Note_on_c, 0, 73, 0
2, 17102, Note_on_c, 0, 73, 52
2, 17119, Note_on_c, 0, 73, 0
2, 17119, Note_on_c, 0, 68, 48
2, 17129, Note_on_c, 0, 80, 0
2, 17146, Note_on_c, 0, 73, 48
2, 17173, Note_on_c, 0, 73, 0
2, 17197, Note_on_c, 0, 80, 49
2, 17214, Note_on_c, 0, 80, 0
2, 17224, Note_on_c, 0, 73, 54
2, 17256, Note_on_c, 0, 80, 52
2, 17278, Note_on_c, 0, 85, 0
2, 17278, Note_on_c, 0, 61, 0
2, 17316, Note_on_c, 0, 80, 0
2, 17328, Note_on_c, 0, 92, 53
2, 17343, Note_on_c, 0, 92, 0
2, 17343, Note_on_c, 0, 55, 57
2, 17343, Note_on_c, 0, 61, 55
2, 17346, Note_on_c, 0, 64, 53
2, 17346, Note_on_c, 0, 85, 54
2, 17360, Note_on_c, 0, 56, 0
2, 17360, Note_on_c, 0, 65, 0
2, 17373, Note_on_c, 0, 92, 48
2, 17380, Note_on_c, 0, 61, 0
2, 17390, Note_on_c, 0, 73, 0
2, 17393, Note_on_c, 0, 80, 47
2, 17439, Note_on_c, 0, 56, 54
2, 17442, Note_on_c, 0, 61, 54
2, 17449, Note_on_c, 0, 65, 54
2, 17457, Note_on_c, 0, 73, 53
2, 17460, Note_on_c, 0, 80, 0
2, 17468, Note_on_c, 0, 64, 0
2, 17468, Note_on_c, 0, 55, 0
2, 17487, Note_on_c, 0, 80, 50
2, 17511, Note_on_c, 0, 49, 0
2, 17520, Note_on_c, 0, 73, 0
2, 17564, Note_on_c, 0, 49, 65
2, 17564, Note_on_c, 0, 73, 52
2, 17581, Note_on_c, 0, 73, 0
2, 17581, Note_on_c, 0, 80, 0
2, 17591, Note_on_c, 0, 85, 0
2, 17598, Note_on_c, 0, 75, 48
2, 17601, Note_on_c, 0, 92, 0
2, 17609, Note_on_c, 0, 56, 0
2, 17609, Note_on_c, 0, 65, 0
2, 17616, Note_on_c, 0, 61, 0
2, 17626, Note_on_c, 0, 73, 52
2, 17645, Note_on_c, 0, 75, 0
2, 17672, Note_on_c, 0, 56, 43
2, 17680, Note_on_c, 0, 61, 42
2, 17683, Note_on_c, 0, 87, 50
2, 17690, Note_on_c, 0, 65, 50
2, 17708, Note_on_c, 0, 85, 49
2, 17717, Note_on_c, 0, 61, 0
2, 17720, Note_on_c, 0, 68, 0
2, 17735, Note_on_c, 0, 99, 49
2, 17761, Note_on_c, 0, 99, 0
2, 17771, Note_on_c, 0, 66, 49
2, 17771, Note_on_c, 0, 97, 49
2, 17788, Note_on_c, 0, 61, 42
2, 17796, Note_on_c, 0, 57, 46
2, 17796, Note_on_c, 0, 99, 51
2, 17799, Note_on_c, 0, 97, 0
2, 17804, Note_on_c, 0, 61, 0
2, 17808, Note_on_c, 0, 85, 0
2, 17832, Note_on_c, 0, 97, 49
2, 17842, Note_on_c, 0, 87, 0
2, 17847, Note_on_c, 0, 61, 41
2, 17850, Note_on_c, 0, 85, 53
2, 17859, Note_on_c, 0, 58, 44
2, 17867, Note_on_c, 0, 85, 0
2, 17867, Note_on_c, 0, 67, 50
2, 17875, Note_on_c, 0, 61, 0
2, 17875, Note_on_c, 0, 87, 54
2, 17894, Note_on_c, 0, 59, 45
2, 17902, Note_on_c, 0, 85, 67
2, 17916, Note_on_c, 0, 73, 0
2, 17916, Note_on_c, 0, 61, 44
2, 17950, Note_on_c, 0, 68, 71
2, 17950, Note_on_c, 0, 73, 70
2, 17964, Note_on_c, 0, 73, 0
2, 17967, Note_on_c, 0, 58, 0
2, 17967, Note_on_c, 0, 57, 0
2, 17967, Note_on_c, 0, 66, 0
2, 17976, Note_on_c, 0, 67, 0
2, 17976, Note_on_c, 0, 97, 0
2, 17976, Note_on_c, 0, 99, 0
2, 17976, Note_on_c, 0, 75, 48
2, 17996, Note_on_c, 0, 87, 0
2, 18010, Note_on_c, 0, 73, 53
2, 18027, Note_on_c, 0, 75, 0
2, 18030, Note_on_c, 0, 85, 0
2, 18038, Note_on_c, 0, 87, 51
2, 18052, Note_on_c, 0, 61, 0
2, 18070, Note_on_c, 0, 85, 53
2, 18096, Note_on_c, 0, 99, 48
2, 18114, Note_on_c, 0, 61, 45
2, 18114, Note_on_c, 0, 67, 52
2, 18117, Note_on_c, 0, 58, 48
2, 18117, Note_on_c, 0, 97, 51
2, 18144, Note_on_c, 0, 61, 0
2, 18153, Note_on_c, 0, 97, 0
2, 18180, Note_on_c, 0, 97, 50
2, 18202, Note_on_c, 0, 61, 47
2, 18202, Note_on_c, 0, 66, 54
2, 18212, Note_on_c, 0, 87, 0
2, 18212, Note_on_c, 0, 57, 45
2, 18231, Note_on_c, 0, 56, 0
2, 18231, Note_on_c, 0, 65, 0
2, 18231, Note_on_c, 0, 59, 0
2, 18239, Note_on_c, 0, 85, 0
2, 18246, Note_on_c, 0, 87, 54
2, 18280, Note_on_c, 0, 85, 50
2, 18294, Note_on_c, 0, 56, 46
2, 18294, Note_on_c, 0, 59, 45
2, 18294, Note_on_c, 0, 65, 50
2, 18304, Note_on_c, 0, 87, 0
2, 18313, Note_on_c, 0, 57, 0
2, 18313, Note_on_c, 0, 58, 0
2, 18313, Note_on_c, 0, 73, 0
2, 18323, Note_on_c, 0, 66, 0
2, 18323, Note_on_c, 0, 68, 0
2, 18331, Note_on_c, 0, 67, 0
2, 18348, Note_on_c, 0, 99, 0
2, 18384, Note_on_c, 0, 99, 50
2, 18399, Note_on_c, 0, 49, 0
2, 18402, Note_on_c, 0, 97, 0
2, 18429, Note_on_c, 0, 97, 50
2, 18448, Note_on_c, 0, 85, 0
2, 18453, Note_on_c, 0, 37, 45
2, 18453, Note_on_c, 0, 49, 42
2, 18480, Note_on_c, 0, 85, 51
2, 18508, Note_on_c, 0, 85, 0
2, 18523, Note_on_c, 0, 87, 47
2, 18540, Note_on_c, 0, 65, 0
2, 18540, Note_on_c, 0, 59, 0
2, 18550, Note_on_c, 0, 61, 0
2, 18550, Note_on_c, 0, 85, 49
2, 18603, Note_on_c, 0, 59, 46
2, 18603, Note_on_c, 0, 65, 49
2, 18603, Note_on_c, 0, 68, 52
2, 18621, Note_on_c, 0, 61, 47
2, 18624, Note_on_c, 0, 99, 0
2, 18657, Note_on_c, 0, 99, 49
2, 18691, Note_on_c, 0, 85, 0
2, 18718, Note_on_c, 0, 70, 53
2, 18727, Note_on_c, 0, 87, 0
2, 18727, Note_on_c, 0, 85, 49
2, 18735, Note_on_c, 0, 59, 0
2, 18743, Note_on_c, 0, 61, 0
2, 18762, Note_on_c, 0, 65, 0
2, 18762, Note_on_c, 0, 85, 0
2, 18762, Note_on_c, 0, 87, 48
2, 18795, Note_on_c, 0, 59, 41
2, 18798, Note_on_c, 0, 85, 49
2, 18803, Note_on_c, 0, 61, 48
2, 18830, Note_on_c, 0, 65, 65
2, 18840, Note_on_c, 0, 71, 72
2, 18842, Note_on_c, 0, 97, 0
2, 18869, Note_on_c, 0, 70, 0
2, 18869, Note_on_c, 0, 97, 69
2, 18879, Note_on_c, 0, 99, 0
2, 18911, Control_c, 0, 64, 127
2, 18913, Note_on_c, 0, 97, 0
2, 18913, Note_on_c, 0, 99, 51
2, 18933, Note_on_c, 0, 85, 0
2, 18940, Note_on_c, 0, 97, 47
2, 18977, Note_on_c, 0, 99, 0
2, 18977, Note_on_c, 0, 87, 0
2, 18977, Note_on_c, 0, 85, 52
2, 19004, Note_on_c, 0, 85, 0
2, 19008, Note_on_c, 0, 87, 48
2, 19047, Note_on_c, 0, 85, 48
2, 19152, Note_on_c, 0, 70, 62
2, 19169, Note_on_c, 0, 71, 0
2, 19172, Note_on_c, 0, 87, 0
2, 19199, Note_on_c, 0, 99, 50
2, 19201, Note_on_c, 0, 97, 0
2, 19233, Note_on_c, 0, 97, 52
2, 19262, Note_on_c, 0, 99, 0
2, 19383, Note_on_c, 0, 68, 0
2, 19419, Note_on_c, 0, 85, 0
2, 19419, Control_c, 0, 67, 127
2, 19443, Note_on_c, 0, 68, 65
2, 19463, Note_on_c, 0, 85, 60
2, 19470, Note_on_c, 0, 70, 0
2, 19516, Note_on_c, 0, 87, 64
2, 19536, Note_on_c, 0, 85, 0
2, 19577, Note_on_c, 0, 85, 65
2, 19596, Note_on_c, 0, 87, 0
2, 19634, Control_c, 0, 64, 0
2, 19700, Note_on_c, 0, 54, 41
2, 19703, Note_on_c, 0, 61, 0
2, 19727, Note_on_c, 0, 58, 47
2, 19734, Note_on_c, 0, 61, 43
2, 19737, Note_on_c, 0, 85, 0
2, 19745, Note_on_c, 0, 56, 0
2, 19745, Note_on_c, 0, 49, 0
2, 19745, Note_on_c, 0, 59, 0
2, 19745, Note_on_c, 0, 37, 0
2, 19754, Note_on_c, 0, 66, 60
2, 19764, Note_on_c, 0, 90, 66
2, 19772, Note_on_c, 0, 65, 0
2, 19772, Note_on_c, 0, 94, 48
2, 19779, Note_on_c, 0, 68, 0
2, 19782, Note_on_c, 0, 97, 0
2, 19790, Note_on_c, 0, 90, 0
2, 19800, Note_on_c, 0, 66, 0
2, 19807, Note_on_c, 0, 54, 0
2, 19810, Note_on_c, 0, 94, 0
2, 19810, Note_on_c, 0, 85, 51
2, 19837, Note_on_c, 0, 85, 0
2, 19854, Note_on_c, 0, 54, 45
2, 19854, Note_on_c, 0, 59, 41
2, 19854, Note_on_c, 0, 63, 44
2, 19854, Note_on_c, 0, 66, 47
2, 19864, Note_on_c, 0, 90, 51
2, 19881, Note_on_c, 0, 90, 0
2, 19881, Note_on_c, 0, 61, 0
2, 19881, Note_on_c, 0, 58, 0
2, 19891, Note_on_c, 0, 63, 0
2, 19891, Note_on_c, 0, 59, 0
2, 19891, Note_on_c, 0, 54, 0
2, 19891, Note_on_c, 0, 66, 0
2, 19891, Note_on_c, 0, 87, 54
2, 19918, Note_on_c, 0, 90, 50
2, 19920, Note_on_c, 0, 87, 0
2, 19947, Note_on_c, 0, 90, 0
2, 19947, Note_on_c, 0, 85, 47
2, 19965, Note_on_c, 0, 85, 0
2, 19974, Note_on_c, 0, 61, 53
2, 19974, Note_on_c, 0, 66, 48
2, 19984, Note_on_c, 0, 54, 53
2, 19984, Note_on_c, 0, 58, 54
2, 19984, Note_on_c, 0, 90, 50
2, 20011, Note_on_c, 0, 82, 52
2, 20028, Note_on_c, 0, 82, 0
2, 20036, Note_on_c, 0, 85, 54
2, 20069, Note_on_c, 0, 78, 53
2, 20082, Note_on_c, 0, 85, 0
2, 20082, Note_on_c, 0, 90, 0
2, 20089, Note_on_c, 0, 66, 0
2, 20089, Note_on_c, 0, 54, 0
2, 20089, Note_on_c, 0, 61, 0
2, 20089, Note_on_c, 0, 78, 0
2, 20089, Note_on_c, 0, 58, 0
2, 20097, Note_on_c, 0, 82, 54
2, 20116, Note_on_c, 0, 82, 0
2, 20134, Note_on_c, 0, 42, 43
2, 20134, Note_on_c, 0, 78, 59
2, 20151, Note_on_c, 0, 54, 45
2, 20160, Note_on_c, 0, 78, 0
2, 20160, Note_on_c, 0, 82, 61
2, 20168, Note_on_c, 0, 42, 0
2, 20178, Note_on_c, 0, 54, 0
2, 20187, Note_on_c, 0, 82, 0
2, 20205, Note_on_c, 0, 73, 48
2, 20219, Note_on_c, 0, 78, 47
2, 20236, Note_on_c, 0, 59, 43
2, 20236, Note_on_c, 0, 63, 47
2, 20239, Note_on_c, 0, 73, 0
2, 20247, Note_on_c, 0, 78, 0
2, 20247, Note_on_c, 0, 66, 52
2, 20256, Note_on_c, 0, 75, 49
2, 20264, Note_on_c, 0, 59, 0
2, 20264, Note_on_c, 0, 63, 0
2, 20274, Note_on_c, 0, 66, 0
2, 20291, Note_on_c, 0, 75, 0
2, 20291, Note_on_c, 0, 78, 52
2, 20308, Note_on_c, 0, 78, 0
2, 20318, Note_on_c, 0, 73, 49
2, 20326, Note_on_c, 0, 61, 44
2, 20335, Note_on_c, 0, 73, 0
2, 20335, Note_on_c, 0, 58, 43
2, 20345, Note_on_c, 0, 66, 52
2, 20354, Note_on_c, 0, 78, 52
2, 20362, Note_on_c, 0, 66, 0
2, 20370, Note_on_c, 0, 70, 49
2, 20399, Note_on_c, 0, 70, 0
2, 20408, Note_on_c, 0, 73, 53
2, 20425, Note_on_c, 0, 66, 53
2, 20435, Note_on_c, 0, 61, 0
2, 20459, Note_on_c, 0, 73, 0
2, 20472, Note_on_c, 0, 70, 52
2, 20496, Note_on_c, 0, 49, 57
2, 20503, Note_on_c, 0, 61, 56
2, 20511, Note_on_c, 0, 37, 58
2, 20540, Note_on_c, 0, 73, 47
2, 20554, Note_on_c, 0, 61, 0
2, 20562, Note_on_c, 0, 68, 53
2, 20565, Note_on_c, 0, 73, 0
2, 20592, Note_on_c, 0, 68, 0
2, 20599, Note_on_c, 0, 56, 41
2, 20607, Note_on_c, 0, 61, 46
2, 20607, Note_on_c, 0, 65, 50
2, 20610, Note_on_c, 0, 73, 52
2, 20632, Note_on_c, 0, 68, 50
2, 20635, Note_on_c, 0, 66, 0
2, 20649, Note_on_c, 0, 56, 0
2, 20659, Note_on_c, 0, 68, 0
2, 20659, Note_on_c, 0, 80, 51
2, 20676, Note_on_c, 0, 80, 0
2, 20676, Note_on_c, 0, 70, 0
2, 20676, Note_on_c, 0, 78, 0
2, 20676, Note_on_c, 0, 73, 0
2, 20676, Note_on_c, 0, 49, 0
2, 20684, Note_on_c, 0, 58, 0
2, 20687, Note_on_c, 0, 37, 0
2, 20694, Note_on_c, 0, 56, 45
2, 20694, Note_on_c, 0, 68, 64
2, 20697, Note_on_c, 0, 63, 41
2, 20712, Note_on_c, 0, 59, 43
2, 20724, Note_on_c, 0, 65, 0
2, 20724, Note_on_c, 0, 80, 46
2, 20732, Note_on_c, 0, 63, 0
2, 20732, Note_on_c, 0, 61, 0
2, 20732, Note_on_c, 0, 68, 0
2, 20732, Note_on_c, 0, 56, 0
2, 20739, Note_on_c, 0, 80, 0
2, 20749, Note_on_c, 0, 59, 0
2, 20749, Note_on_c, 0, 75, 52
2, 20766, Note_on_c, 0, 75, 0
2, 20785, Note_on_c, 0, 80, 53
2, 20788, Note_on_c, 0, 44, 42
2, 20815, Note_on_c, 0, 44, 0
2, 20815, Note_on_c, 0, 80, 0
2, 20815, Note_on_c, 0, 75, 50
2, 20828, Note_on_c, 0, 87, 49
2, 20856, Note_on_c, 0, 87, 0
2, 20883, Note_on_c, 0, 49, 43
2, 20893, Note_on_c, 0, 75, 0
2, 20907, Note_on_c, 0, 87, 54
2, 20927, Note_on_c, 0, 87, 0
2, 20944, Note_on_c, 0, 80, 48
2, 20961, Note_on_c, 0, 80, 0
2, 20961, Note_on_c, 0, 56, 47
2, 20971, Note_on_c, 0, 59, 48
2, 20971, Note_on_c, 0, 87, 51
2, 20978, Note_on_c, 0, 63, 42
2, 21005, Note_on_c, 0, 63, 0
2, 21005, Note_on_c, 0, 56, 0
2, 21005, Note_on_c, 0, 87, 0
2, 21005, Note_on_c, 0, 80, 52
2, 21023, Note_on_c, 0, 80, 0
2, 21023, Note_on_c, 0, 59, 0
2, 21023, Note_on_c, 0, 92, 54
2, 21051, Note_on_c, 0, 56, 44
2, 21059, Note_on_c, 0, 61, 43
2, 21059, Note_on_c, 0, 80, 48
2, 21069, Note_on_c, 0, 59, 47
2, 21096, Note_on_c, 0, 80, 0
2, 21096, Note_on_c, 0, 92, 0
2, 21103, Note_on_c, 0, 85, 49
2, 21118, Note_on_c, 0, 85, 0
2, 21127, Note_on_c, 0, 92, 51
2, 21144, Note_on_c, 0, 61, 0
2, 21162, Note_on_c, 0, 54, 48
2, 21162, Note_on_c, 0, 85, 52
2, 21169, Note_on_c, 0, 58, 49
2, 21196, Note_on_c, 0, 59, 0
2, 21196, Note_on_c, 0, 61, 46
2, 21204, Note_on_c, 0, 97, 51
2, 21214, Note_on_c, 0, 56, 0
2, 21214, Note_on_c, 0, 49, 0
2, 21214, Note_on_c, 0, 85, 0
2, 21221, Note_on_c, 0, 92, 0
2, 21231, Note_on_c, 0, 66, 62
2, 21231, Note_on_c, 0, 90, 64
2, 21239, Note_on_c, 0, 97, 0
2, 21248, Note_on_c, 0, 94, 49
2, 21258, Note_on_c, 0, 90, 0
2, 21265, Note_on_c, 0, 54, 0
2, 21273, Note_on_c, 0, 66, 0
2, 21283, Note_on_c, 0, 94, 0
2, 21283, Note_on_c, 0, 85, 51
2, 21307, Note_on_c, 0, 85, 0
2, 21307, Note_on_c, 0, 54, 43
2, 21307, Note_on_c, 0, 63, 42
2, 21316, Note_on_c, 0, 90, 50
2, 21324, Note_on_c, 0, 59, 46
2, 21324, Note_on_c, 0, 66, 54
2, 21332, Note_on_c, 0, 61, 0
2, 21341, Note_on_c, 0, 90, 0
2, 21341, Note_on_c, 0, 58, 0
2, 21341, Note_on_c, 0, 63, 0
2, 21341, Note_on_c, 0, 54, 0
2, 21351, Note_on_c, 0, 66, 0
2, 21351, Note_on_c, 0, 87, 54
2, 21359, Note_on_c, 0, 59, 0
2, 21385, Note_on_c, 0, 90, 50
2, 21388, Note_on_c, 0, 87, 0
2, 21412, Note_on_c, 0, 90, 0
2, 21422, Note_on_c, 0, 85, 53
2, 21446, Note_on_c, 0, 61, 59
2, 21449, Note_on_c, 0, 85, 0
2, 21449, Note_on_c, 0, 54, 54
2, 21449, Note_on_c, 0, 58, 56
2, 21449, Note_on_c, 0, 66, 49
2, 21449, Note_on_c, 0, 90, 52
2, 21480, Note_on_c, 0, 82, 47
2, 21500, Note_on_c, 0, 82, 0
2, 21519, Note_on_c, 0, 85, 51
2, 21536, Note_on_c, 0, 54, 0
2, 21544, Note_on_c, 0, 78, 54
2, 21561, Note_on_c, 0, 78, 0
2, 21571, Note_on_c, 0, 82, 54
2, 21588, Note_on_c, 0, 54, 42
2, 21596, Note_on_c, 0, 61, 0
2, 21596, Note_on_c, 0, 42, 43
2, 21599, Note_on_c, 0, 58, 0
2, 21599, Note_on_c, 0, 66, 0
2, 21599, Note_on_c, 0, 85, 0
2, 21599, Note_on_c, 0, 90, 0
2, 21599, Note_on_c, 0, 82, 0
2, 21603, Note_on_c, 0, 78, 59
2, 21625, Note_on_c, 0, 54, 0
2, 21625, Note_on_c, 0, 42, 0
2, 21633, Note_on_c, 0, 78, 0
2, 21643, Note_on_c, 0, 82, 54
2, 21667, Note_on_c, 0, 82, 0
2, 21670, Note_on_c, 0, 73, 54
2, 21694, Note_on_c, 0, 73, 0
2, 21694, Note_on_c, 0, 63, 46
2, 21694, Note_on_c, 0, 66, 53
2, 21703, Note_on_c, 0, 59, 46
2, 21703, Note_on_c, 0, 78, 51
2, 21725, Note_on_c, 0, 66, 0
2, 21730, Note_on_c, 0, 75, 50
2, 21733, Note_on_c, 0, 63, 0
2, 21741, Note_on_c, 0, 59, 0
2, 21768, Note_on_c, 0, 75, 0
2, 21782, Note_on_c, 0, 78, 0
2, 21801, Note_on_c, 0, 58, 46
2, 21811, Note_on_c, 0, 61, 45
2, 21811, Note_on_c, 0, 66, 47
2, 21811, Note_on_c, 0, 73, 47
2, 21825, Note_on_c, 0, 73, 0
2, 21825, Note_on_c, 0, 78, 51
2, 21838, Note_on_c, 0, 66, 0
2, 21857, Note_on_c, 0, 70, 52
2, 21884, Note_on_c, 0, 70, 0
2, 21891, Note_on_c, 0, 73, 54
2, 21911, Note_on_c, 0, 66, 50
2, 21937, Note_on_c, 0, 70, 47
2, 21974, Note_on_c, 0, 47, 59
2, 21984, Note_on_c, 0, 63, 59
2, 22001, Note_on_c, 0, 70, 0
2, 22001, Note_on_c, 0, 78, 0
2, 22001, Note_on_c, 0, 73, 0
2, 22001, Note_on_c, 0, 61, 0
2, 22001, Note_on_c, 0, 75, 47
2, 22004, Note_on_c, 0, 66, 0
2, 22008, Note_on_c, 0, 58, 0
2, 22028, Note_on_c, 0, 63, 0
2, 22028, Note_on_c, 0, 75, 0
2, 22035, Note_on_c, 0, 68, 50
2, 22050, Note_on_c, 0, 68, 0
2, 22069, Note_on_c, 0, 56, 46
2, 22069, Note_on_c, 0, 63, 42
2, 22079, Note_on_c, 0, 75, 48
2, 22086, Note_on_c, 0, 68, 53
2, 22132, Note_on_c, 0, 80, 52
2, 22159, Note_on_c, 0, 80, 0
2, 22176, Note_on_c, 0, 62, 47
2, 22176, Note_on_c, 0, 70, 62
2, 22189, Note_on_c, 0, 53, 43
2, 22189, Note_on_c, 0, 58, 43
2, 22194, Note_on_c, 0, 70, 0
2, 22197, Note_on_c, 0, 63, 0
2, 22197, Note_on_c, 0, 75, 0
2, 22197, Note_on_c, 0, 68, 0
2, 22204, Note_on_c, 0, 56, 0
2, 22204, Note_on_c, 0, 62, 0
2, 22204, Note_on_c, 0, 82, 49
2, 22207, Note_on_c, 0, 47, 0
2, 22222, Note_on_c, 0, 82, 0
2, 22224, Note_on_c, 0, 58, 0
2, 22224, Note_on_c, 0, 53, 0
2, 22234, Note_on_c, 0, 70, 51
2, 22261, Note_on_c, 0, 70, 0
2, 22261, Note_on_c, 0, 46, 60
2, 22261, Note_on_c, 0, 82, 53
2, 22278, Note_on_c, 0, 82, 0
2, 22288, Note_on_c, 0, 46, 0
2, 22291, Note_on_c, 0, 70, 50
2, 22327, Note_on_c, 0, 70, 0
2, 22327, Note_on_c, 0, 82, 48
2, 22354, Note_on_c, 0, 82, 0
2, 22354, Note_on_c, 0, 75, 65
2, 22357, Note_on_c, 0, 47, 53
2, 22389, Note_on_c, 0, 87, 50
2, 22416, Note_on_c, 0, 87, 0
2, 22416, Note_on_c, 0, 80, 52
2, 22433, Note_on_c, 0, 80, 0
2, 22442, Note_on_c, 0, 56, 48
2, 22442, Note_on_c, 0, 87, 52
2, 22460, Note_on_c, 0, 87, 0
2, 22460, Note_on_c, 0, 63, 46
2, 22469, Note_on_c, 0, 47, 0
2, 22479, Note_on_c, 0, 75, 0
2, 22479, Note_on_c, 0, 56, 0
2, 22487, Note_on_c, 0, 63, 0
2, 22487, Note_on_c, 0, 80, 53
2, 22501, Note_on_c, 0, 92, 47
2, 22513, Note_on_c, 0, 80, 0
2, 22540, Note_on_c, 0, 92, 0
2, 22550, Note_on_c, 0, 53, 41
2, 22550, Note_on_c, 0, 62, 43
2, 22558, Note_on_c, 0, 58, 43
2, 22558, Note_on_c, 0, 82, 59
2, 22577, Note_on_c, 0, 62, 0
2, 22577, Note_on_c, 0, 94, 66
2, 22584, Note_on_c, 0, 53, 0
2, 22584, Note_on_c, 0, 82, 0
2, 22584, Control_c, 0, 67, 0
2, 22594, Note_on_c, 0, 58, 0
2, 22604, Note_on_c, 0, 94, 0
2, 22621, Note_on_c, 0, 82, 49
2, 22648, Note_on_c, 0, 82, 0
2, 22648, Note_on_c, 0, 94, 52
2, 22648, Note_on_c, 0, 46, 47
2, 22675, Note_on_c, 0, 46, 0
2, 22675, Note_on_c, 0, 94, 0
2, 22682, Note_on_c, 0, 82, 52
2, 22702, Note_on_c, 0, 82, 0
2, 22709, Note_on_c, 0, 47, 41
2, 22709, Note_on_c, 0, 94, 64
2, 22736, Note_on_c, 0, 94, 0
2, 22746, Note_on_c, 0, 82, 60
2, 22768, Note_on_c, 0, 94, 48
2, 22797, Note_on_c, 0, 94, 0
2, 22797, Note_on_c, 0, 87, 48
2, 22814, Note_on_c, 0, 59, 48
2, 22817, Note_on_c, 0, 63, 43
2, 22817, Note_on_c, 0, 68, 48
2, 22824, Note_on_c, 0, 94, 47
2, 22839, Note_on_c, 0, 80, 50
2, 22866, Note_on_c, 0, 82, 0
2, 22883, Note_on_c, 0, 92, 49
2, 22897, Note_on_c, 0, 92, 0
2, 22900, Note_on_c, 0, 94, 0
2, 22900, Note_on_c, 0, 87, 0
2, 22918, Note_on_c, 0, 49, 47
2, 22935, Note_on_c, 0, 92, 47
2, 22944, Note_on_c, 0, 47, 0
2, 22944, Note_on_c, 0, 63, 0
2, 22944, Note_on_c, 0, 59, 0
2, 22962, Note_on_c, 0, 92, 0
2, 22962, Note_on_c, 0, 85, 53
2, 22989, Note_on_c, 0, 61, 47
2, 22996, Note_on_c, 0, 58, 45
2, 22996, Note_on_c, 0, 66, 50
2, 22996, Note_on_c, 0, 92, 53
2, 23023, Note_on_c, 0, 78, 52
2, 23033, Note_on_c, 0, 85, 0
2, 23050, Note_on_c, 0, 80, 0
2, 23050, Note_on_c, 0, 90, 49
2, 23064, Note_on_c, 0, 92, 0
2, 23072, Note_on_c, 0, 47, 47
2, 23082, Note_on_c, 0, 73, 52
2, 23091, Note_on_c, 0, 59, 42
2, 23099, Note_on_c, 0, 49, 0
2, 23107, Note_on_c, 0, 85, 50
2, 23110, Note_on_c, 0, 58, 0
2, 23110, Note_on_c, 0, 66, 0
2, 23117, Note_on_c, 0, 59, 0
2, 23117, Note_on_c, 0, 61, 0
2, 23125, Note_on_c, 0, 85, 0
2, 23128, Note_on_c, 0, 68, 0
2, 23128, Note_on_c, 0, 80, 53
2, 23155, Note_on_c, 0, 80, 0
2, 23164, Note_on_c, 0, 85, 53
2, 23169, Note_on_c, 0, 68, 53
2, 23172, Note_on_c, 0, 59, 44
2, 23172, Note_on_c, 0, 61, 42
2, 23172, Note_on_c, 0, 65, 49
2, 23196, Note_on_c, 0, 80, 54
2, 23199, Note_on_c, 0, 78, 0
2, 23223, Note_on_c, 0, 92, 50
2, 23232, Note_on_c, 0, 90, 0
2, 23247, Note_on_c, 0, 85, 0
2, 23256, Note_on_c, 0, 46, 41
2, 23264, Note_on_c, 0, 78, 50
2, 23267, Note_on_c, 0, 58, 42
2, 23275, Note_on_c, 0, 47, 0
2, 23275, Note_on_c, 0, 80, 0
2, 23282, Note_on_c, 0, 65, 0
2, 23282, Note_on_c, 0, 59, 0
2, 23282, Note_on_c, 0, 68, 0
2, 23290, Note_on_c, 0, 90, 50
2, 23293, Note_on_c, 0, 58, 0
2, 23303, Note_on_c, 0, 61, 0
2, 23310, Note_on_c, 0, 85, 51
2, 23320, Note_on_c, 0, 92, 0
2, 23320, Note_on_c, 0, 90, 0
2, 23337, Note_on_c, 0, 85, 0
2, 23347, Note_on_c, 0, 58, 48
2, 23347, Note_on_c, 0, 61, 45
2, 23347, Note_on_c, 0, 66, 51
2, 23347, Note_on_c, 0, 70, 53
2, 23347, Note_on_c, 0, 90, 53
2, 23390, Note_on_c, 0, 85, 49
2, 23407, Note_on_c, 0, 97, 47
2, 23417, Note_on_c, 0, 90, 0
2, 23441, Note_on_c, 0, 47, 41
2, 23441, Note_on_c, 0, 59, 41
2, 23460, Note_on_c, 0, 82, 62
2, 23468, Note_on_c, 0, 70, 0
2, 23468, Note_on_c, 0, 58, 0
2, 23468, Note_on_c, 0, 73, 0
2, 23468, Note_on_c, 0, 46, 0
2, 23468, Note_on_c, 0, 66, 0
2, 23468, Note_on_c, 0, 78, 0
2, 23468, Note_on_c, 0, 61, 0
2, 23475, Note_on_c, 0, 94, 53
2, 23478, Note_on_c, 0, 85, 0
2, 23488, Note_on_c, 0, 59, 0
2, 23502, Note_on_c, 0, 87, 47
2, 23512, Note_on_c, 0, 97, 0
2, 23531, Note_on_c, 0, 59, 48
2, 23541, Note_on_c, 0, 63, 47
2, 23541, Note_on_c, 0, 68, 50
2, 23574, Note_on_c, 0, 80, 53
2, 23598, Note_on_c, 0, 92, 49
2, 23601, Note_on_c, 0, 80, 0
2, 23601, Note_on_c, 0, 82, 0
2, 23616, Note_on_c, 0, 92, 0
2, 23618, Note_on_c, 0, 94, 0
2, 23645, Note_on_c, 0, 80, 62
2, 23653, Note_on_c, 0, 49, 41
2, 23661, Note_on_c, 0, 92, 54
2, 23664, Note_on_c, 0, 87, 0
2, 23671, Note_on_c, 0, 59, 0
2, 23674, Note_on_c, 0, 47, 0
2, 23682, Note_on_c, 0, 68, 0
2, 23682, Note_on_c, 0, 63, 0
2, 23689, Note_on_c, 0, 92, 0
2, 23699, Note_on_c, 0, 85, 52
2, 23726, Note_on_c, 0, 61, 43
2, 23726, Note_on_c, 0, 70, 53
2, 23736, Note_on_c, 0, 58, 45
2, 23736, Note_on_c, 0, 66, 50
2, 23736, Note_on_c, 0, 92, 52
2, 23753, Note_on_c, 0, 78, 47
2, 23762, Note_on_c, 0, 85, 0
2, 23796, Note_on_c, 0, 80, 0
2, 23796, Note_on_c, 0, 90, 48
2, 23813, Note_on_c, 0, 47, 43
2, 23813, Note_on_c, 0, 59, 42
2, 23816, Note_on_c, 0, 73, 66
2, 23831, Note_on_c, 0, 92, 0
2, 23840, Note_on_c, 0, 78, 0
2, 23840, Note_on_c, 0, 49, 0
2, 23840, Note_on_c, 0, 70, 0
2, 23840, Note_on_c, 0, 58, 0
2, 23840, Note_on_c, 0, 66, 0
2, 23840, Note_on_c, 0, 85, 59
2, 23850, Note_on_c, 0, 61, 0
2, 23850, Note_on_c, 0, 59, 0
2, 23857, Note_on_c, 0, 85, 0
2, 23867, Note_on_c, 0, 80, 52
2, 23884, Note_on_c, 0, 80, 0
2, 23894, Note_on_c, 0, 59, 42
2, 23894, Note_on_c, 0, 61, 41
2, 23894, Note_on_c, 0, 65, 50
2, 23894, Note_on_c, 0, 68, 52
2, 23902, Note_on_c, 0, 85, 53
2, 23926, Note_on_c, 0, 80, 53
2, 23945, Note_on_c, 0, 92, 50
2, 23952, Note_on_c, 0, 90, 0
2, 23979, Note_on_c, 0, 85, 0
2, 23987, Note_on_c, 0, 46, 49
2, 23987, Note_on_c, 0, 78, 66
2, 23997, Note_on_c, 0, 58, 45
2, 24004, Note_on_c, 0, 47, 0
2, 24014, Note_on_c, 0, 90, 52
2, 24022, Note_on_c, 0, 58, 0
2, 24022, Note_on_c, 0, 59, 0
2, 24031, Note_on_c, 0, 61, 0
2, 24039, Note_on_c, 0, 90, 0
2, 24048, Note_on_c, 0, 85, 51
2, 24066, Note_on_c, 0, 85, 0
2, 24066, Note_on_c, 0, 58, 46
2, 24069, Note_on_c, 0, 66, 51
2, 24069, Note_on_c, 0, 70, 50
2, 24073, Note_on_c, 0, 90, 49
2, 24076, Note_on_c, 0, 61, 42
2, 24084, Note_on_c, 0, 92, 0
2, 24084, Note_on_c, 0, 46, 0
2, 24084, Note_on_c, 0, 78, 0
2, 24084, Note_on_c, 0, 65, 0
2, 24084, Note_on_c, 0, 73, 0
2, 24087, Note_on_c, 0, 80, 0
2, 24095, Note_on_c, 0, 68, 0
2, 24107, Note_on_c, 0, 58, 0
2, 24107, Note_on_c, 0, 70, 0
2, 24107, Note_on_c, 0, 66, 0
2, 24115, Note_on_c, 0, 90, 0
2, 24115, Note_on_c, 0, 61, 0
2, 24115, Note_on_c, 0, 85, 52
2, 24132, Note_on_c, 0, 97, 54
2, 24142, Note_on_c, 0, 85, 0
2, 24168, Note_on_c, 0, 97, 0
2, 24178, Note_on_c, 0, 59, 44
2, 24186, Note_on_c, 0, 82, 60
2, 24189, Note_on_c, 0, 47, 47
2, 24206, Note_on_c, 0, 94, 53
2, 24220, Note_on_c, 0, 94, 0
2, 24240, Note_on_c, 0, 87, 51
2, 24264, Note_on_c, 0, 68, 52
2, 24264, Note_on_c, 0, 94, 51
2, 24273, Note_on_c, 0, 56, 44
2, 24273, Note_on_c, 0, 63, 44
2, 24297, Note_on_c, 0, 82, 0
2, 24307, Note_on_c, 0, 80, 49
2, 24321, Note_on_c, 0, 92, 48
2, 24334, Note_on_c, 0, 94, 0
2, 24341, Note_on_c, 0, 87, 0
2, 24368, Note_on_c, 0, 82, 50
2, 24392, Note_on_c, 0, 94, 53
2, 24416, Note_on_c, 0, 87, 49
2, 24419, Note_on_c, 0, 47, 0
2, 24427, Note_on_c, 0, 80, 0
2, 24446, Note_on_c, 0, 92, 0
2, 24463, Note_on_c, 0, 47, 57
2, 24487, Note_on_c, 0, 80, 49
2, 24490, Note_on_c, 0, 82, 0
2, 24514, Note_on_c, 0, 94, 0
2, 24514, Note_on_c, 0, 92, 49
2, 24548, Note_on_c, 0, 82, 67
2, 24551, Note_on_c, 0, 87, 0
2, 24558, Note_on_c, 0, 48, 61
2, 24566, Note_on_c, 0, 47, 0
2, 24574, Note_on_c, 0, 59, 0
2, 24574, Note_on_c, 0, 94, 70
2, 24591, Note_on_c, 0, 94, 0
2, 24600, Note_on_c, 0, 56, 0
2, 24605, Note_on_c, 0, 87, 56
2, 24608, Note_on_c, 0, 63, 0
2, 24616, Note_on_c, 0, 68, 0
2, 24619, Note_on_c, 0, 80, 0
2, 24628, Note_on_c, 0, 92, 0
2, 24636, Note_on_c, 0, 94, 50
2, 24655, Note_on_c, 0, 82, 0
2, 24655, Note_on_c, 0, 63, 47
2, 24655, Note_on_c, 0, 66, 53
2, 24655, Note_on_c, 0, 68, 50
2, 24655, Note_on_c, 0, 92, 56
2, 24658, Note_on_c, 0, 56, 43
2, 24658, Note_on_c, 0, 80, 49
2, 24663, Note_on_c, 0, 94, 0
2, 24692, Note_on_c, 0, 87, 0
2, 24711, Note_on_c, 0, 82, 51
2, 24719, Note_on_c, 0, 94, 54
2, 24755, Note_on_c, 0, 94, 0
2, 24755, Note_on_c, 0, 48, 0
2, 24763, Note_on_c, 0, 87, 52
2, 24785, Note_on_c, 0, 80, 0
2, 24799, Note_on_c, 0, 94, 57
2, 24802, Note_on_c, 0, 48, 68
2, 24821, Note_on_c, 0, 92, 0
2, 24848, Note_on_c, 0, 80, 55
2, 24865, Note_on_c, 0, 56, 0
2, 24865, Note_on_c, 0, 82, 0
2, 24865, Note_on_c, 0, 66, 0
2, 24875, Note_on_c, 0, 63, 0
2, 24875, Note_on_c, 0, 68, 0
2, 24875, Note_on_c, 0, 92, 51
2, 24912, Note_on_c, 0, 94, 0
2, 24940, Note_on_c, 0, 85, 73
2, 24943, Note_on_c, 0, 49, 66
2, 24956, Note_on_c, 0, 80, 0
2, 24963, Note_on_c, 0, 48, 0
2, 24963, Note_on_c, 0, 87, 0
2, 24992, Note_on_c, 0, 94, 45
2, 25000, Note_on_c, 0, 92, 0
2, 25029, Note_on_c, 0, 80, 50
2, 25038, Note_on_c, 0, 85, 0
2, 25072, Note_on_c, 0, 92, 51
2, 25075, Control_c, 0, 64, 127
2, 25082, Note_on_c, 0, 94, 0
2, 25111, Note_on_c, 0, 80, 0
2, 25111, Note_on_c, 0, 85, 44
2, 25148, Note_on_c, 0, 56, 46
2, 25155, Note_on_c, 0, 92, 0
2, 25155, Note_on_c, 0, 94, 48
2, 25173, Note_on_c, 0, 61, 51
2, 25185, Note_on_c, 0, 85, 0
2, 25185, Note_on_c, 0, 80, 52
2, 25193, Note_on_c, 0, 66, 46
2, 25200, Note_on_c, 0, 68, 51
2, 25210, Note_on_c, 0, 94, 0
2, 25227, Note_on_c, 0, 92, 45
2, 25247, Note_on_c, 0, 80, 0
2, 25256, Note_on_c, 0, 85, 49
2, 25273, Note_on_c, 0, 92, 0
2, 25281, Note_on_c, 0, 94, 62
2, 25286, Note_on_c, 0, 66, 0
2, 25310, Note_on_c, 0, 85, 0
2, 25313, Note_on_c, 0, 68, 0
2, 25320, Note_on_c, 0, 80, 59
2, 25330, Note_on_c, 0, 66, 62
2, 25338, Note_on_c, 0, 92, 62
2, 25341, Note_on_c, 0, 94, 0
2, 25355, Note_on_c, 0, 68, 60
2, 25365, Note_on_c, 0, 80, 0
2, 25365, Note_on_c, 0, 73, 59
2, 25393, Note_on_c, 0, 85, 52
2, 25401, Note_on_c, 0, 92, 0
2, 25406, Note_on_c, 0, 94, 46
2, 25418, Note_on_c, 0, 85, 0
2, 25436, Note_on_c, 0, 80, 53
2, 25453, Note_on_c, 0, 94, 0
2, 25467, Note_on_c, 0, 92, 48
2, 25470, Note_on_c, 0, 25, 49
2, 25488, Note_on_c, 0, 80, 0
2, 25497, Note_on_c, 0, 85, 53
2, 25521, Note_on_c, 0, 94, 49
2, 25534, Note_on_c, 0, 92, 0
2, 25556, Note_on_c, 0, 80, 50
2, 25559, Note_on_c, 0, 85, 0
2, 25566, Note_on_c, 0, 49, 0
2, 25585, Note_on_c, 0, 94, 0
2, 25593, Note_on_c, 0, 92, 52
2, 25620, Note_on_c, 0, 56, 0
2, 25620, Note_on_c, 0, 80, 0
2, 25628, Note_on_c, 0, 85, 46
2, 25631, Note_on_c, 0, 49, 52
2, 25640, Note_on_c, 0, 61, 0
2, 25648, Note_on_c, 0, 92, 0
2, 25656, Note_on_c, 0, 94, 49
2, 25678, Note_on_c, 0, 56, 50
2, 25685, Note_on_c, 0, 66, 0
2, 25690, Note_on_c, 0, 80, 50
2, 25693, Note_on_c, 0, 61, 49
2, 25717, Note_on_c, 0, 92, 51
2, 25734, Note_on_c, 0, 66, 47
2, 25768, Note_on_c, 0, 99, 65
2, 25969, Note_on_c, 0, 97, 57
2, 25972, Note_on_c, 0, 94, 0
2, 25985, Note_on_c, 0, 99, 0
2, 26040, Note_on_c, 0, 94, 53
2, 26048, Note_on_c, 0, 92, 0
2, 26116, Note_on_c, 0, 92, 56
2, 26160, Note_on_c, 0, 90, 54
2, 26177, Note_on_c, 0, 85, 0
2, 26196, Note_on_c, 0, 87, 53
2, 26247, Note_on_c, 0, 80, 0
2, 26247, Note_on_c, 0, 85, 58
2, 26290, Note_on_c, 0, 82, 54
2, 26317, Note_on_c, 0, 68, 0
2, 26317, Note_on_c, 0, 80, 58
2, 26358, Note_on_c, 0, 78, 59
2, 26361, Note_on_c, 0, 49, 0
2, 26380, Note_on_c, 0, 73, 0
2, 26388, Note_on_c, 0, 56, 0
2, 26407, Note_on_c, 0, 75, 56
2, 26422, Note_on_c, 0, 49, 48
2, 26431, Note_on_c, 0, 66, 0
2, 26439, Note_on_c, 0, 56, 41
2, 26448, Note_on_c, 0, 73, 60
2, 26466, Control_c, 0, 64, 0
2, 26466, Note_on_c, 0, 59, 44
2, 26490, Note_on_c, 0, 68, 76
2, 26507, Note_on_c, 0, 73, 0
2, 26507, Note_on_c, 0, 94, 0
2, 26507, Note_on_c, 0, 80, 0
2, 26507, Note_on_c, 0, 78, 0
2, 26507, Note_on_c, 0, 97, 0
2, 26507, Note_on_c, 0, 85, 0
2, 26507, Note_on_c, 0, 87, 0
2, 26507, Note_on_c, 0, 82, 0
2, 26507, Note_on_c, 0, 75, 0
2, 26517, Note_on_c, 0, 90, 0
2, 26517, Note_on_c, 0, 92, 0
2, 26517, Note_on_c, 0, 63, 46
2, 26526, Note_on_c, 0, 66, 47
2, 26544, Note_on_c, 0, 61, 0
2, 26544, Note_on_c, 0, 25, 0
2, 26858, Note_on_c, 0, 61, 43
2, 26876, Note_on_c, 0, 63, 0
2, 26909, Note_on_c, 0, 70, 41
2, 26936, Note_on_c, 0, 68, 0
2, 26936, Note_on_c, 0, 66, 0
2, 26936, Note_on_c, 0, 65, 48
2, 27189, Note_on_c, 0, 59, 0
2, 27247, Note_on_c, 0, 59, 44
2, 27332, Note_on_c, 0, 68, 56
2, 27346, Note_on_c, 0, 70, 0
2, 27431, Note_on_c, 0, 58, 43
2, 27448, Note_on_c, 0, 61, 0
2, 27448, Note_on_c, 0, 56, 0
2, 27448, Note_on_c, 0, 65, 0
2, 27448, Note_on_c, 0, 59, 0
2, 27448, Note_on_c, 0, 54, 43
2, 27467, Note_on_c, 0, 49, 0
2, 27521, Note_on_c, 0, 66, 64
2, 27545, Note_on_c, 0, 68, 0
2, 27642, Note_on_c, 0, 61, 42
2, 27696, Note_on_c, 0, 59, 45
2, 27713, Note_on_c, 0, 58, 0
2, 27732, Note_on_c, 0, 92, 56
2, 27740, Note_on_c, 0, 68, 60
2, 27749, Note_on_c, 0, 92, 0
2, 27771, Note_on_c, 0, 94, 57
2, 27795, Note_on_c, 0, 92, 57
2, 27822, Note_on_c, 0, 54, 0
2, 27822, Note_on_c, 0, 56, 43
2, 27830, Note_on_c, 0, 85, 60
2, 27849, Note_on_c, 0, 85, 0
2, 27852, Note_on_c, 0, 65, 57
2, 27852, Note_on_c, 0, 97, 55
2, 27869, Note_on_c, 0, 94, 0
2, 27879, Note_on_c, 0, 66, 0
2, 27879, Note_on_c, 0, 54, 45
2, 27906, Note_on_c, 0, 85, 55
2, 27920, Note_on_c, 0, 58, 47
2, 27933, Note_on_c, 0, 85, 0
2, 27940, Note_on_c, 0, 59, 0
2, 27940, Note_on_c, 0, 87, 59
2, 27948, Note_on_c, 0, 66, 60
2, 27958, Note_on_c, 0, 97, 0
2, 27965, Note_on_c, 0, 85, 60
2, 27968, Note_on_c, 0, 65, 0
2, 27968, Note_on_c, 0, 92, 0
2, 27983, Note_on_c, 0, 87, 0
2, 27983, Note_on_c, 0, 61, 0
2, 28000, Note_on_c, 0, 78, 59
2, 28017, Note_on_c, 0, 78, 0
2, 28017, Note_on_c, 0, 61, 43
2, 28027, Note_on_c, 0, 90, 55
2, 28049, Note_on_c, 0, 85, 0
2, 28063, Note_on_c, 0, 68, 0
2, 28063, Note_on_c, 0, 78, 55
2, 28082, Note_on_c, 0, 59, 41
2, 28090, Note_on_c, 0, 80, 59
2, 28100, Note_on_c, 0, 58, 0
2, 28107, Note_on_c, 0, 80, 0
2, 28110, Note_on_c, 0, 68, 59
2, 28137, Note_on_c, 0, 82, 59
2, 28161, Note_on_c, 0, 80, 60
2, 28171, Note_on_c, 0, 56, 0
2, 28214, Note_on_c, 0, 56, 45
2, 28222, Note_on_c, 0, 73, 60
2, 28229, Note_on_c, 0, 65, 64
2, 28251, Note_on_c, 0, 66, 0
2, 28269, Note_on_c, 0, 54, 0
2, 28312, Note_on_c, 0, 54, 44
2, 28321, Note_on_c, 0, 58, 43
2, 28345, Note_on_c, 0, 56, 0
2, 28345, Note_on_c, 0, 59, 0
2, 28355, Note_on_c, 0, 90, 0
2, 28355, Note_on_c, 0, 78, 0
2, 28379, Note_on_c, 0, 82, 0
2, 28382, Note_on_c, 0, 80, 0
2, 28382, Note_on_c, 0, 66, 56
2, 28399, Note_on_c, 0, 65, 0
2, 28416, Note_on_c, 0, 78, 56
2, 28455, Note_on_c, 0, 80, 54
2, 28467, Note_on_c, 0, 80, 0
2, 28467, Note_on_c, 0, 78, 0
2, 28477, Note_on_c, 0, 82, 60
2, 28513, Note_on_c, 0, 73, 0
2, 28513, Note_on_c, 0, 80, 53
2, 28531, Note_on_c, 0, 53, 46
2, 28540, Note_on_c, 0, 80, 0
2, 28540, Note_on_c, 0, 78, 55
2, 28548, Note_on_c, 0, 54, 0
2, 28551, Note_on_c, 0, 59, 46
2, 28568, Note_on_c, 0, 63, 47
2, 28578, Note_on_c, 0, 58, 0
2, 28585, Note_on_c, 0, 73, 53
2, 28612, Note_on_c, 0, 68, 0
2, 28612, Note_on_c, 0, 82, 0
2, 28622, Note_on_c, 0, 80, 57
2, 28630, Note_on_c, 0, 61, 0
2, 28639, Note_on_c, 0, 85, 61
2, 28649, Note_on_c, 0, 80, 0
2, 28656, Note_on_c, 0, 85, 0
2, 28666, Note_on_c, 0, 87, 61
2, 28676, Note_on_c, 0, 61, 49
2, 28695, Note_on_c, 0, 49, 42
2, 28704, Note_on_c, 0, 78, 0
2, 28704, Note_on_c, 0, 85, 57
2, 28719, Note_on_c, 0, 63, 0
2, 28722, Note_on_c, 0, 80, 60
2, 28746, Note_on_c, 0, 85, 0
2, 28770, Note_on_c, 0, 63, 45
2, 28770, Note_on_c, 0, 78, 57
2, 28779, Note_on_c, 0, 54, 44
2, 28779, Note_on_c, 0, 58, 45
2, 28789, Note_on_c, 0, 80, 0
2, 28797, Note_on_c, 0, 61, 0
2, 28806, Note_on_c, 0, 59, 0
2, 28806, Note_on_c, 0, 53, 0
2, 28816, Note_on_c, 0, 49, 0
2, 28816, Note_on_c, 0, 85, 56
2, 28824, Note_on_c, 0, 90, 57
2, 28831, Note_on_c, 0, 87, 0
2, 28848, Note_on_c, 0, 90, 0
2, 28848, Note_on_c, 0, 92, 61
2, 28856, Note_on_c, 0, 49, 43
2, 28856, Note_on_c, 0, 61, 45
2, 28875, Note_on_c, 0, 85, 0
2, 28880, Note_on_c, 0, 90, 56
2, 28899, Note_on_c, 0, 63, 0
2, 28909, Note_on_c, 0, 92, 0
2, 28909, Note_on_c, 0, 87, 61
2, 28936, Note_on_c, 0, 53, 49
2, 28944, Note_on_c, 0, 85, 57
2, 28951, Note_on_c, 0, 59, 47
2, 28951, Note_on_c, 0, 63, 45
2, 28954, Note_on_c, 0, 54, 0
2, 28962, Note_on_c, 0, 49, 0
2, 28969, Note_on_c, 0, 61, 0
2, 28969, Note_on_c, 0, 78, 0
2, 28969, Note_on_c, 0, 73, 0
2, 28969, Note_on_c, 0, 92, 55
2, 28972, Note_on_c, 0, 58, 0
2, 28982, Note_on_c, 0, 66, 0
2, 28990, Note_on_c, 0, 87, 0
2, 28994, Note_on_c, 0, 97, 61
2, 28997, Note_on_c, 0, 92, 0
2, 28997, Note_on_c, 0, 90, 0
2, 29016, Note_on_c, 0, 49, 47
2, 29024, Note_on_c, 0, 97, 0
2, 29034, Note_on_c, 0, 99, 55
2, 29041, Note_on_c, 0, 61, 43
2, 29061, Note_on_c, 0, 97, 60
2, 29070, Note_on_c, 0, 92, 55
2, 29088, Note_on_c, 0, 92, 0
2, 29095, Note_on_c, 0, 90, 57
2, 29098, Note_on_c, 0, 58, 44
2, 29106, Note_on_c, 0, 54, 44
2, 29123, Note_on_c, 0, 61, 0
2, 29126, Note_on_c, 0, 90, 0
2, 29126, Note_on_c, 0, 59, 0
2, 29126, Note_on_c, 0, 85, 0
2, 29126, Note_on_c, 0, 49, 0
2, 29134, Note_on_c, 0, 53, 0
2, 29141, Note_on_c, 0, 66, 47
2, 29141, Note_on_c, 0, 92, 48
2, 29151, Note_on_c, 0, 97, 0
2, 29159, Note_on_c, 0, 99, 0
2, 29168, Note_on_c, 0, 63, 0
2, 29173, Note_on_c, 0, 90, 47
2, 29176, Note_on_c, 0, 92, 0
2, 29184, Note_on_c, 0, 61, 45
2, 29196, Note_on_c, 0, 85, 52
2, 29210, Note_on_c, 0, 85, 0
2, 29210, Note_on_c, 0, 90, 0
2, 29210, Note_on_c, 0, 97, 54
2, 29244, Note_on_c, 0, 85, 53
2, 29247, Note_on_c, 0, 59, 48
2, 29255, Note_on_c, 0, 97, 0
2, 29262, Note_on_c, 0, 85, 0
2, 29272, Note_on_c, 0, 58, 0
2, 29289, Note_on_c, 0, 68, 49
2, 29289, Note_on_c, 0, 85, 54
2, 29308, Note_on_c, 0, 85, 0
2, 29308, Note_on_c, 0, 87, 48
2, 29316, Note_on_c, 0, 66, 0
2, 29345, Note_on_c, 0, 85, 52
2, 29362, Note_on_c, 0, 80, 53
2, 29379, Note_on_c, 0, 80, 0
2, 29379, Note_on_c, 0, 56, 48
2, 29399, Note_on_c, 0, 54, 0
2, 29406, Note_on_c, 0, 65, 48
2, 29406, Note_on_c, 0, 92, 49
2, 29424, Note_on_c, 0, 80, 53
2, 29441, Note_on_c, 0, 80, 0
2, 29450, Note_on_c, 0, 54, 47
2, 29472, Note_on_c, 0, 58, 48
2, 29487, Note_on_c, 0, 80, 47
2, 29495, Note_on_c, 0, 59, 0
2, 29497, Note_on_c, 0, 56, 0
2, 29502, Note_on_c, 0, 82, 50
2, 29505, Note_on_c, 0, 87, 0
2, 29508, Note_on_c, 0, 66, 49
2, 29516, Note_on_c, 0, 92, 0
2, 29516, Note_on_c, 0, 61, 0
2, 29516, Note_on_c, 0, 80, 0
2, 29516, Note_on_c, 0, 85, 0
2, 29523, Note_on_c, 0, 65, 0
2, 29543, Note_on_c, 0, 80, 53
2, 29557, Note_on_c, 0, 61, 43
2, 29560, Note_on_c, 0, 82, 0
2, 29568, Note_on_c, 0, 78, 48
2, 29577, Note_on_c, 0, 68, 0
2, 29596, Note_on_c, 0, 78, 0
2, 29596, Note_on_c, 0, 59, 45
2, 29596, Note_on_c, 0, 90, 49
2, 29616, Note_on_c, 0, 58, 0
2, 29623, Note_on_c, 0, 68, 53
2, 29633, Note_on_c, 0, 78, 54
2, 29647, Note_on_c, 0, 61, 0
2, 29650, Note_on_c, 0, 80, 0
2, 29650, Note_on_c, 0, 66, 0
2, 29660, Note_on_c, 0, 90, 0
2, 29664, Note_on_c, 0, 73, 67
2, 29667, Note_on_c, 0, 78, 0
2, 29704, Note_on_c, 0, 68, 0
2, 29704, Note_on_c, 0, 59, 0
2, 29755, Note_on_c, 0, 56, 44
2, 29764, Note_on_c, 0, 65, 47
2, 29844, Note_on_c, 0, 56, 0
2, 29844, Note_on_c, 0, 54, 0
2, 29861, Note_on_c, 0, 65, 0
2, 29898, Note_on_c, 0, 54, 42
2, 29898, Note_on_c, 0, 58, 42
2, 29898, Note_on_c, 0, 66, 53
2, 29917, Note_on_c, 0, 78, 50
2, 29944, Note_on_c, 0, 80, 50
2, 29968, Note_on_c, 0, 80, 0
2, 29976, Note_on_c, 0, 78, 0
2, 29976, Note_on_c, 0, 61, 42
2, 29976, Note_on_c, 0, 82, 54
2, 29995, Note_on_c, 0, 73, 0
2, 30012, Note_on_c, 0, 80, 49
2, 30036, Note_on_c, 0, 80, 0
2, 30046, Note_on_c, 0, 78, 49
2, 30053, Note_on_c, 0, 63, 45
2, 30071, Note_on_c, 0, 53, 44
2, 30071, Note_on_c, 0, 59, 47
2, 30071, Note_on_c, 0, 73, 62
2, 30088, Note_on_c, 0, 54, 0
2, 30097, Note_on_c, 0, 61, 0
2, 30097, Note_on_c, 0, 58, 0
2, 30105, Note_on_c, 0, 80, 55
2, 30132, Note_on_c, 0, 80, 0
2, 30132, Note_on_c, 0, 82, 0
2, 30132, Note_on_c, 0, 78, 0
2, 30132, Note_on_c, 0, 85, 50
2, 30140, Note_on_c, 0, 61, 42
2, 30147, Note_on_c, 0, 85, 0
2, 30155, Note_on_c, 0, 49, 49
2, 30155, Note_on_c, 0, 87, 55
2, 30165, Note_on_c, 0, 66, 0
2, 30172, Note_on_c, 0, 53, 0
2, 30172, Note_on_c, 0, 59, 0
2, 30187, Note_on_c, 0, 85, 51
2, 30199, Note_on_c, 0, 63, 0
2, 30207, Note_on_c, 0, 80, 50
2, 30216, Note_on_c, 0, 85, 0
2, 30231, Note_on_c, 0, 54, 47
2, 30240, Note_on_c, 0, 63, 48
2, 30240, Note_on_c, 0, 78, 65
2, 30248, Note_on_c, 0, 58, 43
2, 30282, Note_on_c, 0, 61, 0
2, 30282, Note_on_c, 0, 49, 0
2, 30282, Note_on_c, 0, 85, 54
2, 30299, Note_on_c, 0, 90, 50
2, 30302, Note_on_c, 0, 80, 0
2, 30302, Note_on_c, 0, 87, 0
2, 30302, Note_on_c, 0, 73, 0
2, 30312, Note_on_c, 0, 85, 0
2, 30316, Note_on_c, 0, 90, 0
2, 30324, Note_on_c, 0, 49, 49
2, 30324, Note_on_c, 0, 61, 46
2, 30324, Note_on_c, 0, 92, 54
2, 30358, Note_on_c, 0, 90, 53
2, 30365, Note_on_c, 0, 63, 0
2, 30365, Note_on_c, 0, 53, 43
2, 30373, Note_on_c, 0, 85, 51
2, 30376, Note_on_c, 0, 92, 0
2, 30384, Note_on_c, 0, 54, 0
2, 30384, Note_on_c, 0, 59, 49
2, 30391, Note_on_c, 0, 85, 0
2, 30404, Note_on_c, 0, 58, 0
2, 30411, Note_on_c, 0, 80, 62
2, 30419, Note_on_c, 0, 78, 0
2, 30419, Note_on_c, 0, 63, 45
2, 30429, Note_on_c, 0, 49, 0
2, 30429, Note_on_c, 0, 90, 0
2, 30438, Note_on_c, 0, 85, 49
2, 30446, Note_on_c, 0, 61, 0
2, 30454, Note_on_c, 0, 92, 50
2, 30468, Note_on_c, 0, 85, 0
2, 30473, Note_on_c, 0, 92, 0
2, 30476, Note_on_c, 0, 94, 54
2, 30483, Note_on_c, 0, 49, 45
2, 30501, Note_on_c, 0, 61, 44
2, 30504, Note_on_c, 0, 94, 0
2, 30508, Note_on_c, 0, 92, 57
2, 30530, Note_on_c, 0, 61, 0
2, 30548, Note_on_c, 0, 85, 57
2, 30555, Note_on_c, 0, 54, 48
2, 30565, Note_on_c, 0, 85, 0
2, 30565, Note_on_c, 0, 92, 0
2, 30575, Note_on_c, 0, 53, 0
2, 30575, Note_on_c, 0, 61, 47
2, 30577, Note_on_c, 0, 49, 0
2, 30577, Note_on_c, 0, 94, 64
2, 30601, Note_on_c, 0, 59, 0
2, 30601, Note_on_c, 0, 63, 0
2, 30601, Note_on_c, 0, 70, 66
2, 30609, Note_on_c, 0, 85, 64
2, 30638, Note_on_c, 0, 92, 63
2, 30665, Note_on_c, 0, 92, 0
2, 30665, Note_on_c, 0, 85, 0
2, 30684, Note_on_c, 0, 82, 58
2, 30698, Note_on_c, 0, 92, 58
2, 30716, Note_on_c, 0, 82, 0
2, 30735, Note_on_c, 0, 85, 56
2, 30762, Note_on_c, 0, 90, 55
2, 30769, Note_on_c, 0, 80, 0
2, 30777, Note_on_c, 0, 82, 56
2, 30816, Note_on_c, 0, 85, 0
2, 30816, Note_on_c, 0, 87, 60
2, 30823, Note_on_c, 0, 49, 43
2, 30831, Note_on_c, 0, 56, 47
2, 30840, Note_on_c, 0, 59, 48
2, 30843, Note_on_c, 0, 80, 57
2, 30851, Note_on_c, 0, 65, 56
2, 30861, Note_on_c, 0, 54, 0
2, 30888, Note_on_c, 0, 82, 0
2, 30888, Note_on_c, 0, 85, 55
2, 30905, Note_on_c, 0, 73, 57
2, 30912, Note_on_c, 0, 54, 50
2, 30922, Note_on_c, 0, 73, 0
2, 30922, Note_on_c, 0, 58, 45
2, 30925, Note_on_c, 0, 80, 0
2, 30942, Note_on_c, 0, 49, 0
2, 30942, Note_on_c, 0, 56, 0
2, 30942, Note_on_c, 0, 66, 77
2, 30950, Note_on_c, 0, 70, 0
2, 30950, Note_on_c, 0, 59, 0
2, 30960, Note_on_c, 0, 82, 67
2, 30967, Note_on_c, 0, 73, 67
2, 30970, Note_on_c, 0, 61, 0
2, 30970, Note_on_c, 0, 65, 0
2, 30978, Note_on_c, 0, 87, 0
2, 30978, Note_on_c, 0, 92, 0
2, 30978, Note_on_c, 0, 85, 0
2, 30981, Note_on_c, 0, 94, 0
2, 30988, Note_on_c, 0, 90, 0
2, 30988, Note_on_c, 0, 80, 54
2, 31006, Note_on_c, 0, 80, 0
2, 31006, Note_on_c, 0, 73, 0
2, 31020, Note_on_c, 0, 70, 54
2, 31023, Note_on_c, 0, 82, 0
2, 31069, Note_on_c, 0, 70, 0
2, 31069, Note_on_c, 0, 80, 58
2, 31086, Note_on_c, 0, 73, 54
2, 31104, Note_on_c, 0, 78, 59
2, 31132, Note_on_c, 0, 70, 55
2, 31161, Note_on_c, 0, 73, 0
2, 31171, Note_on_c, 0, 37, 47
2, 31178, Note_on_c, 0, 75, 55
2, 31198, Note_on_c, 0, 47, 41
2, 31205, Note_on_c, 0, 68, 58
2, 31213, Note_on_c, 0, 53, 62
2, 31232, Note_on_c, 0, 70, 0
2, 31232, Note_on_c, 0, 73, 58
2, 31242, Note_on_c, 0, 54, 0
2, 31273, Note_on_c, 0, 61, 59
2, 31276, Note_on_c, 0, 42, 59
2, 31286, Note_on_c, 0, 46, 59
2, 31291, Note_on_c, 0, 61, 0
2, 31294, Note_on_c, 0, 53, 0
2, 31294, Note_on_c, 0, 37, 0
2, 31301, Note_on_c, 0, 54, 64
2, 31301, Note_on_c, 0, 70, 72
2, 31304, Note_on_c, 0, 47, 0
2, 31304, Note_on_c, 0, 68, 0
2, 31328, Note_on_c, 0, 73, 0
2, 31328, Note_on_c, 0, 58, 0
2, 31328, Note_on_c, 0, 78, 0
2, 31328, Note_on_c, 0, 61, 59
2, 31331, Note_on_c, 0, 80, 0
2, 31331, Note_on_c, 0, 75, 0
2, 31331, Note_on_c, 0, 66, 0
2, 31355, Note_on_c, 0, 70, 0
2, 31368, Note_on_c, 0, 61, 0
2, 31375, Note_on_c, 0, 68, 55
2, 31394, Note_on_c, 0, 68, 0
2, 31402, Note_on_c, 0, 58, 54
2, 31419, Note_on_c, 0, 58, 0
2, 31441, Note_on_c, 0, 68, 59
2, 31456, Note_on_c, 0, 61, 53
2, 31492, Note_on_c, 0, 66, 58
2, 31500, Note_on_c, 0, 58, 57
2, 31527, Note_on_c, 0, 61, 0
2, 31535, Note_on_c, 0, 63, 58
2, 31561, Note_on_c, 0, 56, 56
2, 31571, Note_on_c, 0, 37, 58
2, 31595, Note_on_c, 0, 61, 60
2, 31608, Note_on_c, 0, 58, 0
2, 31615, Note_on_c, 0, 42, 0
2, 31625, Note_on_c, 0, 54, 0
2, 31625, Note_on_c, 0, 68, 0
2, 31625, Note_on_c, 0, 66, 0
2, 31632, Note_on_c, 0, 49, 57
2, 31650, Note_on_c, 0, 46, 0
2, 31662, Note_on_c, 0, 63, 0
2, 31667, Note_on_c, 0, 30, 53
2, 31670, Note_on_c, 0, 42, 59
2, 31670, Note_on_c, 0, 58, 58
2, 31687, Note_on_c, 0, 54, 57
2, 31697, Note_on_c, 0, 56, 0
2, 31697, Note_on_c, 0, 49, 0
2, 31706, Note_on_c, 0, 37, 0
2, 31724, Note_on_c, 0, 61, 0
2, 31731, Note_on_c, 0, 63, 56
2, 31758, Note_on_c, 0, 37, 55
2, 31768, Note_on_c, 0, 49, 60
2, 31790, Note_on_c, 0, 61, 63
2, 31793, Note_on_c, 0, 58, 0
2, 31810, Note_on_c, 0, 42, 0
2, 31810, Note_on_c, 0, 30, 0
2, 31827, Note_on_c, 0, 54, 0
2, 31827, Note_on_c, 0, 56, 64
2, 31859, Note_on_c, 0, 58, 64
2, 31872, Note_on_c, 0, 42, 59
2, 31879, Note_on_c, 0, 63, 0
2, 31879, Note_on_c, 0, 30, 66
2, 31894, Note_on_c, 0, 54, 61
2, 31896, Note_on_c, 0, 37, 0
2, 31904, Note_on_c, 0, 49, 0
2, 31938, Note_on_c, 0, 61, 0
2, 31945, Note_on_c, 0, 63, 62
2, 31953, Note_on_c, 0, 37, 64
2, 31963, Note_on_c, 0, 25, 61
2, 31972, Note_on_c, 0, 49, 64
2, 31975, Note_on_c, 0, 56, 0
2, 31983, Note_on_c, 0, 37, 0
2, 31992, Note_on_c, 0, 63, 0
2, 32002, Note_on_c, 0, 25, 0
2, 32002, Note_on_c, 0, 54, 0
2, 32002, Note_on_c, 0, 58, 0
2, 32012, Note_on_c, 0, 49, 0
2, 32019, Note_on_c, 0, 61, 64
2, 32022, Note_on_c, 0, 42, 0
2, 32030, Note_on_c, 0, 30, 0
2, 32049, Note_on_c, 0, 61, 0
2, 32057, Note_on_c, 0, 56, 60
2, 32084, Note_on_c, 0, 30, 62
2, 32084, Note_on_c, 0, 42, 60
2, 32103, Note_on_c, 0, 58, 59
2, 32130, Note_on_c, 0, 58, 0
2, 32139, Note_on_c, 0, 56, 0
2, 32193, Note_on_c, 0, 58, 59
2, 32193, Note_on_c, 0, 61, 59
2, 32210, Note_on_c, 0, 56, 57
2, 32249, Note_on_c, 0, 54, 41
2, 32258, Control_c, 0, 64, 127
2, 32268, Note_on_c, 0, 61, 0
2, 32295, Note_on_c, 0, 63, 42
2, 32295, Note_on_c, 0, 66, 66
2, 32304, Note_on_c, 0, 58, 0
2, 32341, Note_on_c, 0, 61, 42
2, 32349, Note_on_c, 0, 66, 0
2, 32366, Note_on_c, 0, 42, 0
2, 32369, Note_on_c, 0, 58, 45
2, 32376, Note_on_c, 0, 63, 0
2, 32413, Note_on_c, 0, 61, 0
2, 32413, Note_on_c, 0, 42, 45
2, 32413, Note_on_c, 0, 66, 66
2, 32413, Note_on_c, 0, 70, 66
2, 32442, Note_on_c, 0, 56, 0
2, 32449, Note_on_c, 0, 58, 0
2, 32452, Note_on_c, 0, 63, 48
2, 32460, Note_on_c, 0, 49, 47
2, 32468, Note_on_c, 0, 70, 0
2, 32477, Note_on_c, 0, 42, 0
2, 32487, Note_on_c, 0, 61, 41
2, 32495, Note_on_c, 0, 58, 45
2, 32521, Note_on_c, 0, 42, 42
2, 32531, Note_on_c, 0, 66, 0
2, 32531, Note_on_c, 0, 49, 0
2, 32539, Note_on_c, 0, 70, 61
2, 32539, Note_on_c, 0, 73, 64
2, 32548, Note_on_c, 0, 58, 0
2, 32570, Note_on_c, 0, 49, 45
2, 32580, Note_on_c, 0, 68, 64
2, 32590, Note_on_c, 0, 58, 45
2, 32597, Note_on_c, 0, 66, 66
2, 32615, Note_on_c, 0, 73, 0
2, 32615, Note_on_c, 0, 54, 0
2, 32615, Note_on_c, 0, 70, 0
2, 32624, Note_on_c, 0, 46, 44
2, 32634, Note_on_c, 0, 75, 61
2, 32648, Note_on_c, 0, 78, 61
2, 32658, Note_on_c, 0, 61, 0
2, 32658, Note_on_c, 0, 54, 43
2, 32675, Note_on_c, 0, 78, 0
2, 32685, Note_on_c, 0, 49, 0
2, 32685, Note_on_c, 0, 73, 65
2, 32699, Note_on_c, 0, 61, 42
2, 32702, Note_on_c, 0, 75, 0
2, 32719, Note_on_c, 0, 70, 66
2, 32732, Note_on_c, 0, 58, 0
2, 32732, Note_on_c, 0, 63, 0
2, 32739, Note_on_c, 0, 68, 0
2, 32739, Note_on_c, 0, 49, 42
2, 32747, Note_on_c, 0, 78, 60
2, 32750, Note_on_c, 0, 73, 0
2, 32750, Note_on_c, 0, 82, 62
2, 32758, Note_on_c, 0, 66, 0
2, 32775, Note_on_c, 0, 58, 42
2, 32775, Note_on_c, 0, 75, 63
2, 32794, Note_on_c, 0, 82, 0
2, 32802, Note_on_c, 0, 54, 0
2, 32802, Note_on_c, 0, 66, 60
2, 32819, Note_on_c, 0, 73, 59
2, 32822, Note_on_c, 0, 61, 0
2, 32836, Note_on_c, 0, 78, 0
2, 32836, Note_on_c, 0, 70, 0
2, 32851, Note_on_c, 0, 54, 48
2, 32856, Note_on_c, 0, 82, 63
2, 32856, Note_on_c, 0, 85, 65
2, 32870, Note_on_c, 0, 61, 45
2, 32880, Note_on_c, 0, 58, 0
2, 32880, Note_on_c, 0, 80, 63
2, 32887, Note_on_c, 0, 66, 0
2, 32890, Note_on_c, 0, 85, 0
2, 32898, Note_on_c, 0, 70, 63
2, 32905, Note_on_c, 0, 78, 59
2, 32923, Note_on_c, 0, 82, 0
2, 32923, Note_on_c, 0, 73, 0
2, 32932, Note_on_c, 0, 58, 45
2, 32940, Note_on_c, 0, 66, 61
2, 32950, Note_on_c, 0, 87, 60
2, 32950, Note_on_c, 0, 90, 63
2, 32957, Note_on_c, 0, 61, 0
2, 32957, Note_on_c, 0, 85, 59
2, 32965, Note_on_c, 0, 90, 0
2, 32975, Note_on_c, 0, 73, 62
2, 32984, Note_on_c, 0, 82, 61
2, 32992, Note_on_c, 0, 70, 0
2, 32992, Note_on_c, 0, 87, 0
2, 33001, Note_on_c, 0, 85, 0
2, 33009, Note_on_c, 0, 61, 45
2, 33017, Note_on_c, 0, 78, 0
2, 33020, Note_on_c, 0, 94, 61
2, 33037, Note_on_c, 0, 90, 62
2, 33047, Note_on_c, 0, 70, 63
2, 33061, Note_on_c, 0, 85, 63
2, 33061, Note_on_c, 0, 87, 63
2, 33064, Note_on_c, 0, 90, 0
2, 33064, Note_on_c, 0, 66, 0
2, 33072, Note_on_c, 0, 78, 65
2, 33086, Note_on_c, 0, 70, 0
2, 33089, Note_on_c, 0, 87, 0
2, 33096, Note_on_c, 0, 82, 0
2, 33104, Note_on_c, 0, 78, 0
2, 33107, Note_on_c, 0, 85, 0
2, 33115, Note_on_c, 0, 66, 64
2, 33122, Note_on_c, 0, 90, 60
2, 33132, Note_on_c, 0, 46, 0
2, 33135, Note_on_c, 0, 94, 0
2, 33143, Note_on_c, 0, 87, 61
2, 33150, Note_on_c, 0, 70, 63
2, 33153, Note_on_c, 0, 90, 0
2, 33158, Note_on_c, 0, 61, 0
2, 33158, Note_on_c, 0, 85, 61
2, 33168, Note_on_c, 0, 87, 0
2, 33168, Note_on_c, 0, 78, 61
2, 33168, Note_on_c, 0, 82, 66
2, 33185, Note_on_c, 0, 75, 0
2, 33185, Note_on_c, 0, 80, 0
2, 33192, Note_on_c, 0, 70, 0
2, 33192, Note_on_c, 0, 85, 0
2, 33210, Note_on_c, 0, 78, 0
2, 33210, Note_on_c, 0, 94, 63
2, 33219, Note_on_c, 0, 61, 44
2, 33219, Note_on_c, 0, 90, 66
2, 33237, Note_on_c, 0, 87, 66
2, 33251, Note_on_c, 0, 87, 0
2, 33254, Note_on_c, 0, 90, 0
2, 33254, Note_on_c, 0, 70, 62
2, 33262, Note_on_c, 0, 66, 0
2, 33271, Note_on_c, 0, 70, 0
2, 33274, Note_on_c, 0, 78, 61
2, 33274, Note_on_c, 0, 85, 62
2, 33288, Note_on_c, 0, 85, 0
2, 33301, Note_on_c, 0, 82, 0
2, 33309, Note_on_c, 0, 87, 62
2, 33316, Note_on_c, 0, 78, 0
2, 33326, Note_on_c, 0, 66, 47
2, 33329, Note_on_c, 0, 90, 48
2, 33334, Note_on_c, 0, 70, 60
2, 33336, Note_on_c, 0, 85, 59
2, 33344, Note_on_c, 0, 90, 0
2, 33347, Note_on_c, 0, 94, 0
2, 33352, Note_on_c, 0, 49, 0
2, 33352, Note_on_c, 0, 61, 0
2, 33360, Note_on_c, 0, 82, 58
2, 33369, Note_on_c, 0, 87, 0
2, 33379, Note_on_c, 0, 78, 57
2, 33403, Note_on_c, 0, 49, 42
2, 33406, Note_on_c, 0, 85, 0
2, 33413, Note_on_c, 0, 61, 48
2, 33413, Note_on_c, 0, 90, 58
2, 33413, Note_on_c, 0, 94, 60
2, 33437, Note_on_c, 0, 87, 53
2, 33440, Note_on_c, 0, 90, 0
2, 33445, Note_on_c, 0, 54, 0
2, 33448, Note_on_c, 0, 66, 0
2, 33453, Note_on_c, 0, 87, 0
2, 33475, Note_on_c, 0, 85, 54
2, 33489, Note_on_c, 0, 85, 0
2, 33506, Note_on_c, 0, 54, 45
2, 33509, Note_on_c, 0, 82, 0
2, 33509, Note_on_c, 0, 90, 50
2, 33512, Note_on_c, 0, 66, 53
2, 33517, Note_on_c, 0, 87, 50
2, 33539, Note_on_c, 0, 94, 0
2, 33539, Note_on_c, 0, 85, 54
2, 33547, Note_on_c, 0, 90, 0
2, 33574, Note_on_c, 0, 49, 0
2, 33581, Note_on_c, 0, 82, 52
2, 33584, Note_on_c, 0, 87, 0
2, 33611, Note_on_c, 0, 85, 0
2, 33619, Note_on_c, 0, 90, 48
2, 33622, Note_on_c, 0, 94, 47
2, 33626, Note_on_c, 0, 37, 44
2, 33634, Note_on_c, 0, 49, 48
2, 33663, Note_on_c, 0, 87, 54
2, 33671, Note_on_c, 0, 90, 0
2, 33671, Note_on_c, 0, 42, 0
2, 33671, Note_on_c, 0, 54, 0
2, 33671, Note_on_c, 0, 82, 0
2, 33683, Note_on_c, 0, 85, 53
2, 33732, Note_on_c, 0, 42, 48
2, 33732, Note_on_c, 0, 54, 50
2, 33740, Note_on_c, 0, 82, 68
2, 33744, Note_on_c, 0, 90, 70
2, 33749, Note_on_c, 0, 30, 0
2, 33752, Note_on_c, 0, 73, 0
2, 33752, Note_on_c, 0, 58, 0
2, 33752, Note_on_c, 0, 66, 0
2, 33752, Note_on_c, 0, 61, 0
2, 33752, Note_on_c, 0, 37, 0
2, 33752, Note_on_c, 0, 49, 0
2, 33779, Note_on_c, 0, 94, 0
2, 33787, Note_on_c, 0, 70, 0
2, 33787, Note_on_c, 0, 82, 0
2, 33852, Note_on_c, 0, 70, 71
2, 33852, Note_on_c, 0, 82, 71
2, 33852, Note_on_c, 0, 94, 69
2, 33879, Note_on_c, 0, 78, 0
2, 33888, Note_on_c, 0, 90, 0
2, 33896, Note_on_c, 0, 80, 72
2, 33896, Note_on_c, 0, 92, 71
2, 33913, Note_on_c, 0, 68, 73
2, 33933, Note_on_c, 0, 87, 0
2, 33940, Note_on_c, 0, 78, 76
2, 33953, Note_on_c, 0, 90, 71
2, 33953, Note_on_c, 0, 102, 70
2, 33960, Note_on_c, 0, 66, 76
2, 33987, Note_on_c, 0, 85, 0
2, 33992, Note_on_c, 0, 75, 70
2, 33992, Note_on_c, 0, 87, 75
2, 33997, Note_on_c, 0, 99, 77
2, 34002, Note_on_c, 0, 63, 70
2, 34021, Note_on_c, 0, 94, 0
2, 34029, Note_on_c, 0, 70, 0
2, 34041, Note_on_c, 0, 82, 0
2, 34041, Note_on_c, 0, 73, 72
2, 34041, Note_on_c, 0, 97, 73
2, 34049, Note_on_c, 0, 61, 74
2, 34049, Note_on_c, 0, 85, 75
2, 34066, Note_on_c, 0, 68, 0
2, 34074, Note_on_c, 0, 92, 0
2, 34086, Note_on_c, 0, 80, 0
2, 34091, Note_on_c, 0, 70, 77
2, 34094, Note_on_c, 0, 94, 71
2, 34102, Note_on_c, 0, 58, 73
2, 34102, Note_on_c, 0, 82, 75
2, 34126, Note_on_c, 0, 54, 0
2, 34126, Note_on_c, 0, 78, 0
2, 34126, Note_on_c, 0, 66, 0
2, 34126, Note_on_c, 0, 68, 74
2, 34138, Note_on_c, 0, 90, 0
2, 34138, Note_on_c, 0, 56, 76
2, 34138, Note_on_c, 0, 92, 74
2, 34146, Note_on_c, 0, 80, 75
2, 34173, Note_on_c, 0, 87, 0
2, 34182, Note_on_c, 0, 63, 0
2, 34190, Note_on_c, 0, 75, 0
2, 34190, Note_on_c, 0, 54, 74
2, 34193, Note_on_c, 0, 66, 77
2, 34200, Note_on_c, 0, 90, 71
2, 34208, Note_on_c, 0, 78, 74
2, 34225, Note_on_c, 0, 85, 0
2, 34225, Note_on_c, 0, 61, 0
2, 34235, Note_on_c, 0, 73, 0
2, 34243, Note_on_c, 0, 51, 73
2, 34243, Note_on_c, 0, 63, 77
2, 34246, Note_on_c, 0, 87, 74
2, 34253, Note_on_c, 0, 75, 75
2, 34263, Note_on_c, 0, 102, 0
2, 34280, Note_on_c, 0, 58, 0
2, 34280, Note_on_c, 0, 70, 0
2, 34297, Note_on_c, 0, 49, 72
2, 34297, Note_on_c, 0, 61, 79
2, 34300, Note_on_c, 0, 85, 72
2, 34308, Note_on_c, 0, 82, 0
2, 34308, Note_on_c, 0, 73, 79
2, 34316, Note_on_c, 0, 56, 0
2, 34343, Note_on_c, 0, 68, 0
2, 34343, Note_on_c, 0, 70, 78
2, 34350, Note_on_c, 0, 46, 72
2, 34350, Note_on_c, 0, 58, 76
2, 34353, Note_on_c, 0, 80, 0
2, 34361, Note_on_c, 0, 82, 76
2, 34380, Note_on_c, 0, 54, 0
2, 34388, Note_on_c, 0, 78, 0
2, 34388, Note_on_c, 0, 42, 0
2, 34388, Note_on_c, 0, 56, 78
2, 34395, Note_on_c, 0, 44, 73
2, 34398, Note_on_c, 0, 66, 0
2, 34406, Note_on_c, 0, 68, 79
2, 34414, Note_on_c, 0, 80, 78
2, 34433, Note_on_c, 0, 63, 0
2, 34433, Note_on_c, 0, 75, 0
2, 34442, Note_on_c, 0, 51, 0
2, 34442, Note_on_c, 0, 54, 73
2, 34447, Note_on_c, 0, 42, 74
2, 34457, Note_on_c, 0, 78, 76
2, 34460, Note_on_c, 0, 66, 75
2, 34487, Note_on_c, 0, 49, 0
2, 34491, Note_on_c, 0, 61, 0
2, 34491, Note_on_c, 0, 39, 77
2, 34494, Note_on_c, 0, 73, 0
2, 34494, Note_on_c, 0, 75, 78
2, 34502, Note_on_c, 0, 63, 76
2, 34512, Note_on_c, 0, 51, 74
2, 34526, Note_on_c, 0, 46, 0
2, 34536, Note_on_c, 0, 70, 0
2, 34540, Note_on_c, 0, 37, 75
2, 34540, Note_on_c, 0, 49, 76
2, 34545, Note_on_c, 0, 58, 0
2, 34553, Note_on_c, 0, 61, 73
2, 34560, Note_on_c, 0, 73, 80
2, 34578, Note_on_c, 0, 56, 0
2, 34578, Note_on_c, 0, 44, 0
2, 34595, Note_on_c, 0, 34, 78
2, 34595, Note_on_c, 0, 46, 74
2, 34595, Note_on_c, 0, 70, 81
2, 34598, Note_on_c, 0, 68, 0
2, 34603, Note_on_c, 0, 58, 76
2, 34630, Note_on_c, 0, 54, 0
2, 34630, Note_on_c, 0, 42, 0
2, 34632, Note_on_c, 0, 66, 0
2, 34645, Note_on_c, 0, 44, 75
2, 34650, Note_on_c, 0, 56, 73
2, 34657, Note_on_c, 0, 68, 79
2, 34689, Note_on_c, 0, 42, 76
2, 34692, Note_on_c, 0, 54, 80
2, 34700, Note_on_c, 0, 66, 75
2, 34707, Note_on_c, 0, 30, 78
2, 34717, Note_on_c, 0, 39, 0
2, 34720, Note_on_c, 0, 44, 0
2, 34720, Note_on_c, 0, 78, 0
2, 34720, Note_on_c, 0, 82, 0
2, 34720, Note_on_c, 0, 75, 0
2, 34720, Note_on_c, 0, 87, 0
2, 34720, Note_on_c, 0, 68, 0
2, 34720, Note_on_c, 0, 56, 0
2, 34720, Note_on_c, 0, 73, 0
2, 34720, Note_on_c, 0, 90, 0
2, 34720, Note_on_c, 0, 51, 0
2, 34720, Note_on_c, 0, 85, 0
2, 34728, Note_on_c, 0, 63, 0
2, 34730, Note_on_c, 0, 99, 0
2, 34730, Note_on_c, 0, 80, 0
2, 34730, Note_on_c, 0, 97, 0
2, 34730, Note_on_c, 0, 70, 0
2, 34730, Note_on_c, 0, 94, 0
2, 34730, Note_on_c, 0, 92, 0
2, 34752, Control_c, 0, 64, 0
2, 34818, Note_on_c, 0, 54, 0
2, 34847, Note_on_c, 0, 61, 0
2, 34856, Note_on_c, 0, 66, 0
2, 34883, Note_on_c, 0, 54, 81
2, 34921, Note_on_c, 0, 61, 79
2, 34929, Note_on_c, 0, 70, 84
2, 34932, Note_on_c, 0, 66, 82
2, 34932, Note_on_c, 0, 82, 83
2, 34932, Note_on_c, 0, 85, 79
2, 34932, Note_on_c, 0, 94, 85
2, 34940, Note_on_c, 0, 90, 83
2, 34993, Note_on_c, 0, 34, 0
2, 34993, Note_on_c, 0, 37, 0
2, 35001, Note_on_c, 0, 66, 0
2, 35001, Note_on_c, 0, 54, 0
2, 35001, Note_on_c, 0, 30, 0
2, 35001, Note_on_c, 0, 61, 0
2, 35001, Note_on_c, 0, 49, 0
2, 35001, Note_on_c, 0, 58, 0
2, 35001, Note_on_c, 0, 70, 0
2, 35001, Note_on_c, 0, 42, 0
2, 35001, Note_on_c, 0, 46, 0
2, 35004, Note_on_c, 0, 85, 0
2, 35004, Note_on_c, 0, 82, 0
2, 35004, Note_on_c, 0, 90, 0
2, 35004, Note_on_c, 0, 94, 0
2, 35077, Control_c, 0, 64, 127
2, 35217, Note_on_c, 0, 30, 85
2, 35225, Note_on_c, 0, 42, 85
2, 35228, Note_on_c, 0, 54, 79
2, 35536, Control_c, 0, 64, 0
2, 35703, Note_on_c, 0, 30, 0
2, 35706, Note_on_c, 0, 42, 0
2, 35713, Note_on_c, 0, 54, 0
2, 35713, End_track
3, 0, Start_track
3, 0, Title_t, "c/b Chopin"
3, 0, End_track
4, 0, Start_track
4, 0, Title_t, "p/b Mark Hambourg"
4, 0, End_track
5, 0, Start_track
5, 0, Title_t, "Ampico # 55502"
5, 0, End_track
6, 0, Start_track
6, 0, Title_t, "Scan of a player piano roll"
6, 0, End_track
7, 0, Start_track
7, 0, Title_t, "by Terry Smythe, Winnipeg, Canada"
7, 0, End_track
0, 0, End_of_file
