0, 0, Header, 0, 2, 384
1, 0, Start_track
1, 0, Title_t, "Chopin's Mazurkas (played by © Ron Lubetsky)"
1, 0, Control_c, 0, 0, 0
1, 0, Program_c, 0, 0
1, 0, Time_signature, 4, 2, 96, 8
1, 0, Sequencer_specific, 3, 0, 0, 65
1, 0, Tempo, 500000
1, 36, Note_on_c, 0, 72, 39
1, 516, Note_on_c, 0, 55, 19
1, 524, Note_on_c, 0, 61, 16
1, 528, Note_on_c, 0, 64, 19
1, 576, Control_c, 0, 64, 0
1, 628, Control_c, 0, 64, 127
1, 724, Note_off_c, 0, 64, 64
1, 740, Note_off_c, 0, 61, 64
1, 868, Note_off_c, 0, 55, 64
1, 892, Note_on_c, 0, 70, 33
1, 912, Note_off_c, 0, 72, 64
1, 964, Note_on_c, 0, 68, 39
1, 984, Note_off_c, 0, 70, 64
1, 988, Note_on_c, 0, 56, 1
1, 996, Note_on_c, 0, 63, 15
1, 1032, Note_on_c, 0, 60, 18
1, 1060, Control_c, 0, 64, 0
1, 1120, Control_c, 0, 64, 127
1, 1180, Note_off_c, 0, 56, 64
1, 1184, Note_on_c, 0, 70, 37
1, 1232, Note_off_c, 0, 68, 64
1, 1260, Note_off_c, 0, 60, 64
1, 1340, Note_on_c, 0, 72, 42
1, 1356, Note_on_c, 0, 51, 22
1, 1364, Note_off_c, 0, 70, 64
1, 1400, Control_c, 0, 64, 0
1, 1420, Control_c, 0, 64, 127
1, 1484, Note_off_c, 0, 63, 64
1, 1492, Note_off_c, 0, 51, 64
1, 1692, Note_on_c, 0, 64, 22
1, 1692, Note_on_c, 0, 55, 16
1, 1700, Note_on_c, 0, 61, 16
1, 1744, Control_c, 0, 64, 0
1, 1816, Control_c, 0, 64, 127
1, 1848, Note_off_c, 0, 64, 64
1, 1876, Note_off_c, 0, 61, 64
1, 1932, Note_on_c, 0, 70, 37
1, 1956, Note_off_c, 0, 72, 64
1, 1980, Note_off_c, 0, 55, 64
1, 2008, Note_on_c, 0, 68, 42
1, 2028, Note_off_c, 0, 70, 64
1, 2028, Note_on_c, 0, 63, 23
1, 2036, Note_on_c, 0, 56, 23
1, 2052, Note_on_c, 0, 60, 19
1, 2060, Control_c, 0, 64, 0
1, 2116, Control_c, 0, 64, 127
1, 2196, Note_on_c, 0, 77, 39
1, 2220, Note_off_c, 0, 68, 64
1, 2312, Note_off_c, 0, 56, 64
1, 2356, Note_on_c, 0, 75, 32
1, 2364, Note_on_c, 0, 51, 31
1, 2368, Note_off_c, 0, 77, 64
1, 2372, Control_c, 0, 64, 0
1, 2388, Note_off_c, 0, 60, 64
1, 2412, Control_c, 0, 64, 127
1, 2476, Note_off_c, 0, 75, 64
1, 2484, Note_off_c, 0, 51, 64
1, 2508, Note_off_c, 0, 63, 64
1, 2668, Note_on_c, 0, 72, 35
1, 2680, Note_on_c, 0, 61, 22
1, 2680, Note_on_c, 0, 55, 23
1, 2692, Note_on_c, 0, 64, 22
1, 2740, Control_c, 0, 64, 0
1, 2780, Control_c, 0, 64, 127
1, 2828, Note_off_c, 0, 64, 64
1, 2860, Note_off_c, 0, 61, 64
1, 2900, Note_on_c, 0, 70, 28
1, 2912, Note_off_c, 0, 72, 64
1, 2948, Note_off_c, 0, 55, 64
1, 2984, Note_on_c, 0, 68, 31
1, 3000, Note_off_c, 0, 70, 64
1, 3008, Note_on_c, 0, 63, 26
1, 3016, Note_on_c, 0, 60, 23
1, 3016, Note_on_c, 0, 56, 9
1, 3044, Control_c, 0, 64, 0
1, 3120, Control_c, 0, 64, 127
1, 3144, Note_on_c, 0, 70, 36
1, 3184, Note_off_c, 0, 68, 64
1, 3288, Note_off_c, 0, 56, 64
1, 3288, Note_off_c, 0, 60, 64
1, 3308, Note_on_c, 0, 72, 35
1, 3320, Note_off_c, 0, 70, 64
1, 3320, Note_on_c, 0, 51, 28
1, 3336, Note_off_c, 0, 63, 64
1, 3348, Control_c, 0, 64, 0
1, 3384, Control_c, 0, 64, 127
1, 3544, Note_off_c, 0, 51, 64
1, 3684, Note_on_c, 0, 63, 27
1, 3688, Note_on_c, 0, 61, 16
1, 3692, Note_on_c, 0, 56, 26
1, 3748, Note_off_c, 0, 72, 64
1, 3748, Control_c, 0, 64, 0
1, 3832, Control_c, 0, 64, 127
1, 3944, Note_on_c, 0, 55, 23
1, 3948, Note_off_c, 0, 56, 64
1, 4044, Note_on_c, 0, 53, 14
1, 4048, Note_off_c, 0, 55, 64
1, 4108, Control_c, 0, 64, 0
1, 4216, Note_on_c, 0, 55, 26
1, 4224, Note_off_c, 0, 53, 64
1, 4448, Note_on_c, 0, 51, 14
1, 4520, Note_off_c, 0, 55, 64
1, 4540, Control_c, 0, 64, 127
1, 4652, Note_off_c, 0, 51, 64
1, 4656, Note_off_c, 0, 61, 64
1, 4656, Note_off_c, 0, 63, 64
1, 4972, Note_on_c, 0, 72, 39
1, 4984, Note_on_c, 0, 61, 23
1, 4984, Note_on_c, 0, 55, 28
1, 4996, Note_on_c, 0, 64, 28
1, 5032, Control_c, 0, 64, 0
1, 5080, Control_c, 0, 64, 127
1, 5136, Note_off_c, 0, 64, 64
1, 5160, Note_off_c, 0, 61, 64
1, 5232, Note_off_c, 0, 55, 64
1, 5244, Note_on_c, 0, 70, 40
1, 5252, Note_off_c, 0, 72, 64
1, 5328, Note_on_c, 0, 63, 32
1, 5336, Note_on_c, 0, 68, 44
1, 5336, Note_on_c, 0, 56, 16
1, 5348, Note_off_c, 0, 70, 64
1, 5372, Control_c, 0, 64, 0
1, 5380, Note_on_c, 0, 60, 22
1, 5428, Control_c, 0, 64, 127
1, 5500, Note_on_c, 0, 70, 36
1, 5520, Note_off_c, 0, 68, 64
1, 5624, Note_off_c, 0, 60, 64
1, 5644, Note_on_c, 0, 72, 42
1, 5656, Note_off_c, 0, 70, 64
1, 5656, Note_on_c, 0, 51, 37
1, 5660, Note_off_c, 0, 56, 64
1, 5684, Control_c, 0, 64, 0
1, 5732, Control_c, 0, 64, 127
1, 5792, Note_off_c, 0, 63, 64
1, 5804, Note_off_c, 0, 51, 64
1, 5960, Note_on_c, 0, 64, 31
1, 5960, Note_on_c, 0, 55, 29
1, 5964, Note_on_c, 0, 61, 28
1, 5996, Control_c, 0, 64, 0
1, 6028, Control_c, 0, 64, 127
1, 6092, Tempo, 500000
1, 6092, Note_off_c, 0, 64, 64
1, 6132, Note_off_c, 0, 61, 64
1, 6224, Note_on_c, 0, 70, 39
1, 6240, Note_off_c, 0, 55, 64
1, 6256, Note_off_c, 0, 72, 64
1, 6284, Note_on_c, 0, 56, 29
1, 6288, Note_on_c, 0, 63, 29
1, 6292, Note_on_c, 0, 68, 40
1, 6300, Note_off_c, 0, 70, 64
1, 6316, Control_c, 0, 64, 0
1, 6352, Control_c, 0, 64, 127
1, 6492, Note_on_c, 0, 79, 44
1, 6660, Note_off_c, 0, 56, 64
1, 6668, Note_on_c, 0, 77, 39
1, 6684, Note_on_c, 0, 59, 32
1, 6708, Note_off_c, 0, 79, 64
1, 6728, Control_c, 0, 64, 0
1, 6796, Control_c, 0, 64, 127
1, 6900, Note_off_c, 0, 59, 64
1, 6948, Note_off_c, 0, 63, 64
1, 7060, Note_off_c, 0, 68, 64
1, 7080, Note_off_c, 0, 77, 64
1, 7116, Note_on_c, 0, 70, 42
1, 7124, Note_on_c, 0, 51, 28
1, 7124, Note_on_c, 0, 63, 22
1, 7124, Note_on_c, 0, 67, 26
1, 7132, Note_on_c, 0, 58, 28
1, 7204, Control_c, 0, 64, 0
1, 7252, Control_c, 0, 64, 127
1, 7336, Note_off_c, 0, 58, 64
1, 7364, Note_off_c, 0, 67, 64
1, 7380, Note_off_c, 0, 63, 64
1, 7520, Note_on_c, 0, 68, 40
1, 7532, Note_off_c, 0, 70, 64
1, 7532, Note_on_c, 0, 59, 29
1, 7540, Note_on_c, 0, 62, 26
1, 7556, Control_c, 0, 64, 0
1, 7580, Control_c, 0, 64, 127
1, 7600, Note_off_c, 0, 51, 64
1, 7832, Note_on_c, 0, 79, 37
1, 7920, Note_on_c, 0, 77, 35
1, 7924, Note_on_c, 0, 51, 33
1, 7952, Note_off_c, 0, 79, 64
1, 7992, Note_off_c, 0, 59, 64
1, 8028, Note_off_c, 0, 62, 64
1, 8228, Note_off_c, 0, 68, 64
1, 8300, Note_on_c, 0, 68, 37
1, 8320, Note_on_c, 0, 62, 27
1, 8320, Note_on_c, 0, 59, 31
1, 8332, Note_off_c, 0, 77, 64
1, 8336, Note_off_c, 0, 51, 64
1, 8368, Control_c, 0, 64, 0
1, 8444, Control_c, 0, 64, 127
1, 8656, Note_on_c, 0, 79, 28
1, 8756, Note_on_c, 0, 51, 26
1, 8760, Note_on_c, 0, 77, 39
1, 8800, Note_off_c, 0, 79, 64
1, 8812, Control_c, 0, 64, 0
1, 8856, Note_off_c, 0, 59, 64
1, 8872, Control_c, 0, 64, 127
1, 8912, Note_off_c, 0, 62, 64
1, 9272, Note_off_c, 0, 68, 64
1, 9312, Note_on_c, 0, 63, 16
1, 9316, Note_on_c, 0, 67, 18
1, 9324, Note_on_c, 0, 70, 27
1, 9336, Note_on_c, 0, 58, 16
1, 9348, Note_off_c, 0, 77, 64
1, 9412, Control_c, 0, 64, 0
1, 9476, Control_c, 0, 64, 127
1, 9676, Note_off_c, 0, 51, 64
1, 9700, Note_off_c, 0, 58, 64
1, 9708, Note_off_c, 0, 63, 64
1, 9724, Note_off_c, 0, 70, 64
1, 9824, Note_off_c, 0, 67, 64
1, 9996, Note_on_c, 0, 72, 41
1, 10000, Note_on_c, 0, 61, 36
1, 10016, Note_on_c, 0, 64, 27
1, 10024, Note_on_c, 0, 55, 28
1, 10060, Control_c, 0, 64, 0
1, 10112, Control_c, 0, 64, 127
1, 10180, Note_off_c, 0, 64, 64
1, 10196, Note_off_c, 0, 61, 64
1, 10284, Note_off_c, 0, 55, 64
1, 10300, Note_on_c, 0, 70, 32
1, 10336, Note_off_c, 0, 72, 64
1, 10368, Note_on_c, 0, 56, 22
1, 10372, Note_on_c, 0, 63, 41
1, 10388, Note_on_c, 0, 68, 40
1, 10412, Note_off_c, 0, 70, 64
1, 10412, Note_on_c, 0, 60, 20
1, 10436, Control_c, 0, 64, 0
1, 10484, Control_c, 0, 64, 127
1, 10556, Note_on_c, 0, 70, 46
1, 10604, Note_off_c, 0, 68, 64
1, 10716, Note_on_c, 0, 72, 44
1, 10732, Note_on_c, 0, 51, 41
1, 10740, Note_off_c, 0, 70, 64
1, 10752, Control_c, 0, 64, 0
1, 10760, Note_off_c, 0, 60, 64
1, 10764, Note_off_c, 0, 56, 64
1, 10776, Control_c, 0, 64, 127
1, 10860, Note_off_c, 0, 51, 64
1, 10904, Note_off_c, 0, 63, 64
1, 11028, Note_on_c, 0, 55, 40
1, 11032, Note_on_c, 0, 64, 36
1, 11040, Note_on_c, 0, 61, 37
1, 11052, Control_c, 0, 64, 0
1, 11092, Control_c, 0, 64, 127
1, 11160, Note_off_c, 0, 64, 64
1, 11176, Note_off_c, 0, 61, 64
1, 11260, Note_off_c, 0, 55, 64
1, 11264, Note_on_c, 0, 70, 41
1, 11288, Note_off_c, 0, 72, 64
1, 11336, Note_on_c, 0, 68, 40
1, 11344, Note_on_c, 0, 63, 44
1, 11348, Note_off_c, 0, 70, 64
1, 11348, Note_on_c, 0, 60, 42
1, 11356, Note_on_c, 0, 56, 23
1, 11380, Control_c, 0, 64, 0
1, 11416, Control_c, 0, 64, 127
1, 11508, Note_on_c, 0, 77, 44
1, 11556, Note_off_c, 0, 68, 64
1, 11668, Note_on_c, 0, 75, 44
1, 11680, Note_on_c, 0, 51, 28
1, 11688, Note_off_c, 0, 77, 64
1, 11688, Control_c, 0, 64, 0
1, 11708, Note_off_c, 0, 56, 64
1, 11708, Control_c, 0, 64, 127
1, 11732, Note_off_c, 0, 60, 64
1, 11756, Note_off_c, 0, 75, 64
1, 11776, Note_off_c, 0, 51, 64
1, 11820, Note_off_c, 0, 63, 64
1, 11996, Note_on_c, 0, 72, 48
1, 12008, Note_on_c, 0, 61, 24
1, 12016, Note_on_c, 0, 55, 28
1, 12020, Note_on_c, 0, 64, 22
1, 12048, Control_c, 0, 64, 0
1, 12104, Control_c, 0, 64, 127
1, 12164, Note_off_c, 0, 64, 64
1, 12204, Note_off_c, 0, 61, 64
1, 12240, Note_on_c, 0, 70, 40
1, 12280, Note_off_c, 0, 72, 64
1, 12284, Note_off_c, 0, 55, 64
1, 12360, Note_on_c, 0, 67, 44
1, 12372, Note_on_c, 0, 63, 35
1, 12380, Note_off_c, 0, 70, 64
1, 12392, Note_on_c, 0, 60, 36
1, 12392, Note_on_c, 0, 56, 19
1, 12412, Control_c, 0, 64, 0
1, 12448, Control_c, 0, 64, 127
1, 12500, Note_on_c, 0, 68, 40
1, 12540, Note_off_c, 0, 67, 64
1, 12636, Note_on_c, 0, 70, 41
1, 12656, Note_off_c, 0, 60, 64
1, 12656, Note_off_c, 0, 56, 64
1, 12660, Note_off_c, 0, 68, 64
1, 12764, Note_on_c, 0, 51, 23
1, 12796, Note_on_c, 0, 71, 33
1, 12820, Note_off_c, 0, 70, 64
1, 12836, Control_c, 0, 64, 0
1, 12856, Note_off_c, 0, 63, 64
1, 12856, Control_c, 0, 64, 127
1, 12936, Note_on_c, 0, 73, 52
1, 12944, Note_off_c, 0, 71, 64
1, 13048, Note_off_c, 0, 73, 64
1, 13148, Note_on_c, 0, 72, 49
1, 13164, Note_off_c, 0, 51, 64
1, 13204, Note_off_c, 0, 72, 64
1, 13248, Note_on_c, 0, 72, 49
1, 13316, Note_on_c, 0, 63, 45
1, 13316, Note_on_c, 0, 56, 32
1, 13328, Note_on_c, 0, 61, 28
1, 13332, Note_off_c, 0, 72, 64
1, 13420, Control_c, 0, 64, 0
1, 13624, Note_on_c, 0, 55, 40
1, 13632, Note_off_c, 0, 56, 64
1, 13724, Note_on_c, 0, 53, 39
1, 13756, Note_off_c, 0, 55, 64
1, 13920, Note_on_c, 0, 55, 41
1, 13924, Note_off_c, 0, 53, 64
1, 14172, Note_on_c, 0, 51, 20
1, 14220, Note_off_c, 0, 55, 64
1, 14352, Control_c, 0, 64, 127
1, 14516, Note_off_c, 0, 63, 64
1, 14516, Note_off_c, 0, 51, 64
1, 14548, Note_off_c, 0, 61, 64
1, 14768, Note_on_c, 0, 72, 40
1, 14776, Note_on_c, 0, 61, 29
1, 14784, Note_on_c, 0, 64, 27
1, 14792, Note_on_c, 0, 55, 27
1, 14812, Control_c, 0, 64, 0
1, 14864, Control_c, 0, 64, 127
1, 14908, Note_off_c, 0, 64, 64
1, 14940, Note_off_c, 0, 61, 64
1, 15016, Note_off_c, 0, 55, 64
1, 15044, Note_off_c, 0, 72, 64
1, 15064, Note_on_c, 0, 70, 27
1, 15108, Note_on_c, 0, 63, 33
1, 15112, Note_on_c, 0, 56, 23
1, 15116, Note_on_c, 0, 68, 36
1, 15124, Note_off_c, 0, 70, 64
1, 15140, Note_on_c, 0, 60, 18
1, 15156, Control_c, 0, 64, 0
1, 15192, Control_c, 0, 64, 127
1, 15276, Note_on_c, 0, 70, 58
1, 15300, Note_off_c, 0, 68, 64
1, 15420, Note_off_c, 0, 60, 64
1, 15444, Note_off_c, 0, 56, 64
1, 15444, Note_on_c, 0, 72, 50
1, 15468, Note_off_c, 0, 70, 64
1, 15468, Note_on_c, 0, 51, 26
1, 15472, Control_c, 0, 64, 0
1, 15532, Control_c, 0, 64, 127
1, 15572, Note_off_c, 0, 51, 64
1, 15620, Note_off_c, 0, 63, 64
1, 15772, Note_on_c, 0, 61, 32
1, 15784, Note_on_c, 0, 64, 23
1, 15792, Note_on_c, 0, 55, 27
1, 15896, Note_on_c, 0, 70, 45
1, 15916, Note_off_c, 0, 64, 64
1, 15916, Note_off_c, 0, 55, 64
1, 15920, Note_off_c, 0, 61, 64
1, 15924, Note_off_c, 0, 72, 64
1, 15972, Note_on_c, 0, 72, 46
1, 15984, Note_off_c, 0, 70, 64
1, 16032, Note_on_c, 0, 70, 62
1, 16052, Note_off_c, 0, 72, 64
1, 16096, Note_on_c, 0, 68, 61
1, 16108, Note_off_c, 0, 70, 64
1, 16120, Note_on_c, 0, 63, 36
1, 16120, Note_on_c, 0, 56, 36
1, 16132, Note_on_c, 0, 60, 42
1, 16156, Control_c, 0, 64, 0
1, 16180, Note_off_c, 0, 56, 64
1, 16184, Note_off_c, 0, 60, 64
1, 16196, Control_c, 0, 64, 127
1, 16216, Note_off_c, 0, 63, 64
1, 16324, Note_off_c, 0, 68, 64
1, 16468, Note_on_c, 0, 80, 57
1, 16540, Note_on_c, 0, 71, 32
1, 16544, Note_on_c, 0, 62, 40
1, 16556, Note_on_c, 0, 68, 36
1, 16560, Note_on_c, 0, 77, 58
1, 16592, Note_off_c, 0, 80, 64
1, 16608, Control_c, 0, 64, 0
1, 16628, Control_c, 0, 64, 127
1, 16700, Note_off_c, 0, 71, 64
1, 16728, Note_off_c, 0, 62, 64
1, 16752, Note_off_c, 0, 68, 64
1, 16988, Note_on_c, 0, 67, 32
1, 16988, Note_on_c, 0, 63, 36
1, 16996, Note_on_c, 0, 70, 53
1, 17048, Note_off_c, 0, 77, 64
1, 17060, Control_c, 0, 64, 0
1, 17080, Control_c, 0, 64, 127
1, 17156, Note_off_c, 0, 67, 64
1, 17304, Note_on_c, 0, 72, 49
1, 17320, Note_off_c, 0, 70, 64
1, 17356, Note_off_c, 0, 63, 64
1, 17384, Note_on_c, 0, 73, 58
1, 17388, Note_on_c, 0, 65, 28
1, 17388, Note_on_c, 0, 58, 40
1, 17408, Control_c, 0, 64, 0
1, 17416, Note_off_c, 0, 72, 64
1, 17444, Control_c, 0, 64, 127
1, 17512, Note_off_c, 0, 65, 64
1, 17748, Note_off_c, 0, 58, 64
1, 17756, Note_on_c, 0, 51, 29
1, 17756, Note_on_c, 0, 67, 49
1, 17756, Note_on_c, 0, 63, 46
1, 17760, Note_on_c, 0, 72, 53
1, 17764, Note_off_c, 0, 73, 64
1, 18044, Note_on_c, 0, 70, 36
1, 18044, Note_on_c, 0, 61, 36
1, 18056, Note_off_c, 0, 63, 64
1, 18056, Note_off_c, 0, 72, 64
1, 18080, Note_off_c, 0, 67, 64
1, 18164, Note_on_c, 0, 65, 48
1, 18168, Note_off_c, 0, 51, 64
1, 18172, Note_on_c, 0, 68, 53
1, 18172, Note_on_c, 0, 56, 27
1, 18172, Note_on_c, 0, 73, 44
1, 18192, Note_off_c, 0, 61, 64
1, 18200, Note_off_c, 0, 70, 64
1, 18248, Control_c, 0, 64, 0
1, 18316, Control_c, 0, 64, 127
1, 18556, Note_on_c, 0, 63, 29
1, 18568, Note_off_c, 0, 68, 64
1, 18568, Note_on_c, 0, 72, 44
1, 18596, Note_off_c, 0, 73, 64
1, 18652, Note_off_c, 0, 65, 64
1, 18668, Note_on_c, 0, 60, 36
1, 18676, Note_on_c, 0, 68, 35
1, 18688, Note_off_c, 0, 72, 64
1, 18692, Note_off_c, 0, 63, 64
1, 18724, Control_c, 0, 64, 0
1, 18908, Control_c, 0, 64, 127
1, 19192, Note_off_c, 0, 60, 64
1, 19196, Note_on_c, 0, 65, 48
1, 19204, Note_off_c, 0, 68, 64
1, 19244, Note_off_c, 0, 56, 64
1, 19584, Note_on_c, 0, 73, 55
1, 19608, Control_c, 0, 64, 0
1, 19632, Note_off_c, 0, 65, 64
1, 19648, Control_c, 0, 64, 127
1, 19708, Note_off_c, 0, 73, 64
1, 19920, Note_on_c, 0, 70, 53
1, 19936, Note_on_c, 0, 46, 24
1, 19940, Note_on_c, 0, 61, 41
1, 19972, Control_c, 0, 64, 0
1, 20024, Control_c, 0, 64, 127
1, 20076, Note_off_c, 0, 61, 64
1, 20100, Note_off_c, 0, 46, 64
1, 20208, Note_on_c, 0, 73, 42
1, 20268, Note_off_c, 0, 70, 64
1, 20296, Note_on_c, 0, 65, 50
1, 20300, Note_on_c, 0, 77, 50
1, 20308, Note_on_c, 0, 61, 52
1, 20316, Note_on_c, 0, 53, 40
1, 20316, Note_on_c, 0, 46, 36
1, 20324, Note_off_c, 0, 73, 64
1, 20364, Control_c, 0, 64, 0
1, 20432, Control_c, 0, 64, 127
1, 20440, Note_off_c, 0, 65, 64
1, 20632, Note_on_c, 0, 76, 58
1, 20644, Note_off_c, 0, 77, 64
1, 20668, Note_off_c, 0, 53, 64
1, 20672, Note_off_c, 0, 61, 64
1, 20680, Note_off_c, 0, 46, 64
1, 20860, Note_on_c, 0, 72, 36
1, 20892, Note_off_c, 0, 76, 64
1, 20936, Note_on_c, 0, 46, 49
1, 20948, Note_on_c, 0, 60, 42
1, 20952, Note_on_c, 0, 75, 49
1, 20964, Note_on_c, 0, 53, 42
1, 20976, Note_off_c, 0, 72, 64
1, 20984, Control_c, 0, 64, 0
1, 21024, Control_c, 0, 64, 127
1, 21056, Note_off_c, 0, 46, 64
1, 21068, Note_off_c, 0, 53, 64
1, 21076, Note_off_c, 0, 60, 64
1, 21116, Note_on_c, 0, 73, 54
1, 21124, Note_off_c, 0, 75, 64
1, 21252, Note_on_c, 0, 82, 57
1, 21264, Note_on_c, 0, 70, 55
1, 21264, Note_on_c, 0, 46, 49
1, 21276, Note_on_c, 0, 61, 50
1, 21280, Note_off_c, 0, 73, 64
1, 21280, Note_on_c, 0, 53, 44
1, 21320, Control_c, 0, 64, 0
1, 21360, Control_c, 0, 64, 127
1, 21416, Note_off_c, 0, 82, 64
1, 21492, Note_on_c, 0, 73, 49
1, 21504, Note_off_c, 0, 70, 64
1, 21540, Note_on_c, 0, 75, 50
1, 21544, Note_off_c, 0, 73, 64
1, 21600, Note_on_c, 0, 73, 55
1, 21616, Note_off_c, 0, 46, 64
1, 21616, Note_off_c, 0, 53, 64
1, 21616, Note_off_c, 0, 75, 64
1, 21628, Note_off_c, 0, 61, 64
1, 21940, Note_on_c, 0, 70, 49
1, 21940, Note_on_c, 0, 61, 49
1, 21940, Note_on_c, 0, 46, 50
1, 21948, Note_on_c, 0, 53, 42
1, 21956, Note_off_c, 0, 73, 64
1, 21972, Control_c, 0, 64, 0
1, 21988, Control_c, 0, 64, 127
1, 22040, Note_off_c, 0, 46, 64
1, 22040, Note_off_c, 0, 53, 64
1, 22052, Note_off_c, 0, 61, 64
1, 22092, Note_on_c, 0, 73, 49
1, 22100, Note_off_c, 0, 70, 64
1, 22252, Note_on_c, 0, 77, 58
1, 22260, Note_on_c, 0, 65, 46
1, 22260, Note_on_c, 0, 61, 50
1, 22260, Note_on_c, 0, 46, 50
1, 22268, Note_off_c, 0, 73, 64
1, 22268, Note_on_c, 0, 53, 48
1, 22300, Control_c, 0, 64, 0
1, 22356, Note_off_c, 0, 65, 64
1, 22376, Control_c, 0, 64, 127
1, 22556, Note_on_c, 0, 76, 50
1, 22580, Note_off_c, 0, 53, 64
1, 22588, Note_off_c, 0, 46, 64
1, 22604, Note_off_c, 0, 61, 64
1, 22692, Note_on_c, 0, 72, 57
1, 22704, Note_off_c, 0, 76, 64
1, 22828, Note_on_c, 0, 75, 57
1, 22836, Note_on_c, 0, 46, 49
1, 22844, Note_on_c, 0, 60, 42
1, 22848, Note_on_c, 0, 53, 46
1, 22856, Note_off_c, 0, 72, 64
1, 22860, Control_c, 0, 64, 0
1, 22896, Control_c, 0, 64, 127
1, 22932, Note_off_c, 0, 46, 64
1, 22940, Note_off_c, 0, 53, 64
1, 22944, Note_off_c, 0, 60, 64
1, 22956, Note_on_c, 0, 73, 62
1, 22964, Note_off_c, 0, 75, 64
1, 23120, Note_off_c, 0, 77, 64
1, 23124, Note_on_c, 0, 82, 57
1, 23128, Note_on_c, 0, 70, 62
1, 23140, Note_off_c, 0, 73, 64
1, 23144, Note_on_c, 0, 46, 50
1, 23148, Note_on_c, 0, 61, 58
1, 23152, Note_on_c, 0, 53, 44
1, 23180, Control_c, 0, 64, 0
1, 23236, Control_c, 0, 64, 127
1, 23400, Note_off_c, 0, 70, 64
1, 23416, Note_on_c, 0, 76, 50
1, 23452, Note_off_c, 0, 53, 64
1, 23464, Note_off_c, 0, 61, 64
1, 23476, Note_off_c, 0, 46, 64
1, 23544, Note_off_c, 0, 76, 64
1, 23548, Note_on_c, 0, 72, 58
1, 23704, Note_on_c, 0, 75, 66
1, 23704, Note_on_c, 0, 46, 50
1, 23716, Note_on_c, 0, 60, 46
1, 23732, Note_off_c, 0, 72, 64
1, 23732, Note_on_c, 0, 53, 49
1, 23736, Control_c, 0, 64, 0
1, 23768, Control_c, 0, 64, 127
1, 23804, Note_off_c, 0, 46, 64
1, 23828, Note_off_c, 0, 53, 64
1, 23836, Note_on_c, 0, 73, 62
1, 23852, Note_off_c, 0, 60, 64
1, 23856, Note_off_c, 0, 75, 64
1, 23980, Note_off_c, 0, 82, 64
1, 23996, Note_on_c, 0, 82, 62
1, 23996, Note_on_c, 0, 70, 63
1, 24012, Note_off_c, 0, 73, 64
1, 24016, Note_on_c, 0, 61, 55
1, 24020, Note_on_c, 0, 46, 45
1, 24024, Note_on_c, 0, 53, 49
1, 24068, Control_c, 0, 64, 0
1, 24144, Control_c, 0, 64, 127
1, 24284, Note_off_c, 0, 70, 64
1, 24288, Note_on_c, 0, 76, 58
1, 24420, Note_on_c, 0, 72, 62
1, 24432, Note_off_c, 0, 53, 64
1, 24432, Note_off_c, 0, 76, 64
1, 24468, Tempo, 500000
1, 24468, Note_off_c, 0, 61, 64
1, 24468, Note_off_c, 0, 46, 64
1, 24600, Note_on_c, 0, 75, 62
1, 24620, Note_on_c, 0, 60, 49
1, 24620, Note_on_c, 0, 46, 49
1, 24628, Note_on_c, 0, 53, 48
1, 24636, Note_off_c, 0, 72, 64
1, 24664, Control_c, 0, 64, 0
1, 24720, Control_c, 0, 64, 127
1, 24772, Note_on_c, 0, 73, 63
1, 24784, Note_off_c, 0, 75, 64
1, 24788, Note_off_c, 0, 46, 64
1, 24808, Note_off_c, 0, 60, 64
1, 24820, Note_off_c, 0, 53, 64
1, 24964, Note_off_c, 0, 82, 64
1, 25000, Note_on_c, 0, 70, 58
1, 25012, Note_on_c, 0, 82, 58
1, 25024, Note_on_c, 0, 61, 48
1, 25028, Note_on_c, 0, 46, 48
1, 25032, Note_off_c, 0, 73, 64
1, 25040, Note_on_c, 0, 53, 40
1, 25108, Control_c, 0, 64, 0
1, 25196, Control_c, 0, 64, 127
1, 25560, Note_on_c, 0, 73, 58
1, 25584, Note_off_c, 0, 70, 64
1, 25592, Note_off_c, 0, 82, 64
1, 25600, Note_off_c, 0, 53, 64
1, 25616, Note_off_c, 0, 46, 64
1, 25664, Note_off_c, 0, 61, 64
1, 26020, Note_on_c, 0, 64, 28
1, 26020, Note_on_c, 0, 58, 37
1, 26028, Note_on_c, 0, 55, 18
1, 26088, Control_c, 0, 64, 0
1, 26108, Control_c, 0, 64, 127
1, 26260, Note_off_c, 0, 58, 64
1, 26276, Note_off_c, 0, 64, 64
1, 26332, Note_off_c, 0, 55, 64
1, 26464, Note_on_c, 0, 71, 50
1, 26468, Note_on_c, 0, 56, 36
1, 26484, Note_off_c, 0, 73, 64
1, 26484, Note_on_c, 0, 64, 39
1, 26484, Note_on_c, 0, 59, 36
1, 26556, Control_c, 0, 64, 0
1, 26596, Control_c, 0, 64, 127
1, 26780, Note_off_c, 0, 56, 64
1, 26828, Note_off_c, 0, 64, 64
1, 26832, Note_off_c, 0, 59, 64
1, 26964, Note_on_c, 0, 73, 48
1, 26976, Note_on_c, 0, 55, 23
1, 26988, Note_off_c, 0, 71, 64
1, 26988, Note_on_c, 0, 64, 32
1, 26988, Note_on_c, 0, 58, 36
1, 27056, Control_c, 0, 64, 0
1, 27092, Control_c, 0, 64, 127
1, 27332, Note_off_c, 0, 64, 64
1, 27348, Note_off_c, 0, 55, 64
1, 27356, Note_off_c, 0, 58, 64
1, 27540, Note_on_c, 0, 71, 37
1, 27540, Note_on_c, 0, 59, 35
1, 27548, Note_on_c, 0, 56, 26
1, 27556, Note_off_c, 0, 73, 64
1, 27564, Note_on_c, 0, 64, 28
1, 27644, Control_c, 0, 64, 0
1, 27720, Control_c, 0, 64, 127
1, 27932, Note_off_c, 0, 59, 64
1, 28000, Note_off_c, 0, 56, 64
1, 28028, Note_off_c, 0, 64, 64
1, 28268, Note_on_c, 0, 61, 20
1, 28268, Note_on_c, 0, 70, 37
1, 28272, Note_on_c, 0, 55, 23
1, 28276, Note_on_c, 0, 64, 18
1, 28308, Note_off_c, 0, 71, 64
1, 28416, Control_c, 0, 64, 0
1, 28476, Control_c, 0, 64, 127
1, 28988, Note_off_c, 0, 70, 64
1, 29004, Note_on_c, 0, 72, 29
1, 29052, Control_c, 0, 64, 0
1, 29068, Control_c, 0, 64, 127
1, 29200, Note_off_c, 0, 64, 64
1, 29212, Note_off_c, 0, 61, 64
1, 29220, Note_off_c, 0, 55, 64
1, 29436, Note_on_c, 0, 70, 40
1, 29452, Note_off_c, 0, 72, 64
1, 29512, Note_on_c, 0, 56, 16
1, 29524, Note_on_c, 0, 63, 20
1, 29524, Note_on_c, 0, 68, 40
1, 29536, Note_on_c, 0, 60, 27
1, 29540, Note_off_c, 0, 70, 64
1, 29604, Control_c, 0, 64, 0
1, 29620, Control_c, 0, 64, 127
1, 29732, Note_off_c, 0, 56, 64
1, 29740, Note_on_c, 0, 70, 40
1, 29804, Note_off_c, 0, 68, 64
1, 29912, Note_on_c, 0, 72, 44
1, 29920, Note_off_c, 0, 70, 64
1, 29936, Note_on_c, 0, 51, 22
1, 29976, Note_off_c, 0, 60, 64
1, 29988, Control_c, 0, 64, 0
1, 30008, Control_c, 0, 64, 127
1, 30076, Note_off_c, 0, 51, 64
1, 30132, Note_off_c, 0, 63, 64
1, 30240, Note_on_c, 0, 64, 29
1, 30248, Note_on_c, 0, 61, 32
1, 30264, Note_on_c, 0, 55, 19
1, 30304, Control_c, 0, 64, 0
1, 30324, Control_c, 0, 64, 127
1, 30408, Note_off_c, 0, 64, 64
1, 30444, Note_off_c, 0, 61, 64
1, 30500, Note_on_c, 0, 70, 44
1, 30508, Note_off_c, 0, 55, 64
1, 30516, Note_off_c, 0, 72, 64
1, 30568, Note_on_c, 0, 68, 42
1, 30580, Note_on_c, 0, 56, 28
1, 30596, Note_on_c, 0, 63, 28
1, 30600, Note_off_c, 0, 70, 64
1, 30636, Note_on_c, 0, 60, 13
1, 30852, Note_on_c, 0, 77, 44
1, 30868, Note_off_c, 0, 56, 64
1, 30892, Note_off_c, 0, 60, 64
1, 30900, Note_off_c, 0, 68, 64
1, 30940, Note_on_c, 0, 75, 44
1, 30960, Note_off_c, 0, 77, 64
1, 30964, Note_on_c, 0, 51, 22
1, 31000, Control_c, 0, 64, 0
1, 31036, Control_c, 0, 64, 127
1, 31124, Note_off_c, 0, 51, 64
1, 31128, Note_off_c, 0, 75, 64
1, 31148, Note_off_c, 0, 63, 64
1, 31328, Note_on_c, 0, 64, 29
1, 31340, Note_on_c, 0, 61, 24
1, 31344, Note_on_c, 0, 72, 49
1, 31352, Note_on_c, 0, 55, 26
1, 31424, Control_c, 0, 64, 0
1, 31444, Control_c, 0, 64, 127
1, 31500, Note_off_c, 0, 64, 64
1, 31568, Note_off_c, 0, 61, 64
1, 31612, Note_on_c, 0, 70, 53
1, 31620, Note_off_c, 0, 72, 64
1, 31684, Note_off_c, 0, 55, 64
1, 31740, Note_on_c, 0, 68, 36
1, 31756, Note_off_c, 0, 70, 64
1, 31768, Note_on_c, 0, 63, 32
1, 31768, Note_on_c, 0, 56, 32
1, 31796, Note_on_c, 0, 60, 24
1, 31948, Note_on_c, 0, 70, 46
1, 31984, Note_off_c, 0, 68, 64
1, 32068, Note_off_c, 0, 56, 64
1, 32116, Note_off_c, 0, 60, 64
1, 32148, Note_on_c, 0, 71, 53
1, 32152, Note_on_c, 0, 51, 32
1, 32172, Note_off_c, 0, 70, 64
1, 32236, Note_off_c, 0, 63, 64
1, 32272, Note_on_c, 0, 73, 48
1, 32284, Note_off_c, 0, 71, 64
1, 32404, Note_off_c, 0, 73, 64
1, 32484, Note_on_c, 0, 72, 49
1, 32548, Note_off_c, 0, 72, 64
1, 32596, Note_on_c, 0, 72, 42
1, 32672, Note_on_c, 0, 56, 36
1, 32684, Note_on_c, 0, 63, 49
1, 32692, Note_on_c, 0, 61, 29
1, 32700, Note_off_c, 0, 72, 64
1, 32716, Note_off_c, 0, 51, 64
1, 32768, Control_c, 0, 64, 0
1, 32900, Control_c, 0, 64, 127
1, 33016, Note_on_c, 0, 55, 36
1, 33036, Note_off_c, 0, 56, 64
1, 33120, Note_on_c, 0, 53, 35
1, 33128, Note_off_c, 0, 55, 64
1, 33156, Control_c, 0, 64, 0
1, 33308, Note_off_c, 0, 53, 64
1, 33316, Note_on_c, 0, 55, 36
1, 33508, Note_on_c, 0, 51, 35
1, 33556, Control_c, 0, 64, 127
1, 33604, Note_off_c, 0, 55, 64
1, 33648, Note_off_c, 0, 51, 64
1, 33676, Note_off_c, 0, 63, 64
1, 33680, Note_off_c, 0, 61, 64
1, 33988, Note_on_c, 0, 61, 23
1, 33988, Note_on_c, 0, 72, 42
1, 33996, Note_on_c, 0, 64, 29
1, 34004, Note_on_c, 0, 55, 26
1, 34036, Control_c, 0, 64, 0
1, 34076, Control_c, 0, 64, 127
1, 34120, Note_off_c, 0, 64, 64
1, 34144, Note_off_c, 0, 61, 64
1, 34204, Note_off_c, 0, 55, 64
1, 34240, Note_on_c, 0, 70, 20
1, 34244, Note_off_c, 0, 72, 64
1, 34308, Note_on_c, 0, 68, 44
1, 34316, Note_off_c, 0, 70, 64
1, 34320, Note_on_c, 0, 56, 22
1, 34324, Note_on_c, 0, 63, 27
1, 34328, Note_on_c, 0, 60, 29
1, 34348, Control_c, 0, 64, 0
1, 34416, Control_c, 0, 64, 127
1, 34520, Note_on_c, 0, 70, 33
1, 34580, Note_off_c, 0, 68, 64
1, 34604, Note_off_c, 0, 56, 64
1, 34644, Note_on_c, 0, 72, 48
1, 34648, Note_off_c, 0, 70, 64
1, 34652, Note_off_c, 0, 60, 64
1, 34664, Note_on_c, 0, 51, 29
1, 34676, Control_c, 0, 64, 0
1, 34732, Control_c, 0, 64, 127
1, 34796, Note_off_c, 0, 51, 64
1, 34808, Note_off_c, 0, 63, 64
1, 34972, Note_on_c, 0, 61, 29
1, 34980, Note_on_c, 0, 64, 28
1, 34992, Note_on_c, 0, 55, 24
1, 35012, Control_c, 0, 64, 0
1, 35048, Control_c, 0, 64, 127
1, 35112, Note_off_c, 0, 64, 64
1, 35140, Note_off_c, 0, 61, 64
1, 35200, Note_off_c, 0, 55, 64
1, 35244, Note_on_c, 0, 70, 42
1, 35252, Note_off_c, 0, 72, 64
1, 35308, Note_on_c, 0, 63, 29
1, 35308, Note_on_c, 0, 56, 22
1, 35312, Note_on_c, 0, 68, 49
1, 35328, Note_off_c, 0, 70, 64
1, 35332, Note_on_c, 0, 60, 22
1, 35356, Control_c, 0, 64, 0
1, 35372, Control_c, 0, 64, 127
1, 35488, Note_off_c, 0, 60, 64
1, 35508, Note_on_c, 0, 79, 42
1, 35684, Note_on_c, 0, 77, 44
1, 35692, Note_on_c, 0, 59, 33
1, 35728, Control_c, 0, 64, 0
1, 35744, Note_off_c, 0, 79, 64
1, 35748, Control_c, 0, 64, 127
1, 35768, Note_off_c, 0, 56, 64
1, 35836, Note_off_c, 0, 59, 64
1, 35908, Note_off_c, 0, 68, 64
1, 36044, Note_off_c, 0, 77, 64
1, 36060, Note_on_c, 0, 70, 44
1, 36060, Note_on_c, 0, 67, 40
1, 36076, Note_on_c, 0, 51, 29
1, 36084, Note_on_c, 0, 58, 16
1, 36108, Control_c, 0, 64, 0
1, 36184, Control_c, 0, 64, 127
1, 36224, Note_off_c, 0, 58, 64
1, 36236, Note_off_c, 0, 67, 64
1, 36312, Note_off_c, 0, 63, 64
1, 36432, Note_on_c, 0, 68, 42
1, 36432, Note_on_c, 0, 62, 15
1, 36456, Note_on_c, 0, 59, 28
1, 36460, Note_off_c, 0, 70, 64
1, 36468, Note_off_c, 0, 51, 64
1, 36488, Control_c, 0, 64, 0
1, 36532, Control_c, 0, 64, 127
1, 36712, Note_on_c, 0, 79, 41
1, 36804, Note_on_c, 0, 77, 48
1, 36816, Note_on_c, 0, 51, 29
1, 36840, Control_c, 0, 64, 0
1, 36852, Note_off_c, 0, 59, 64
1, 36852, Note_off_c, 0, 79, 64
1, 36880, Control_c, 0, 64, 127
1, 36884, Note_off_c, 0, 62, 64
1, 37112, Note_off_c, 0, 68, 64
1, 37184, Note_on_c, 0, 68, 42
1, 37196, Note_off_c, 0, 51, 64
1, 37204, Note_on_c, 0, 59, 31
1, 37208, Note_off_c, 0, 77, 64
1, 37216, Note_on_c, 0, 62, 24
1, 37276, Control_c, 0, 64, 0
1, 37312, Control_c, 0, 64, 127
1, 37568, Note_on_c, 0, 79, 33
1, 37668, Note_on_c, 0, 77, 48
1, 37676, Note_on_c, 0, 51, 22
1, 37700, Note_off_c, 0, 79, 64
1, 37740, Control_c, 0, 64, 0
1, 37756, Control_c, 0, 64, 127
1, 37800, Note_off_c, 0, 59, 64
1, 37876, Note_off_c, 0, 62, 64
1, 38220, Note_off_c, 0, 68, 64
1, 38280, Note_on_c, 0, 70, 40
1, 38292, Note_on_c, 0, 63, 18
1, 38296, Note_on_c, 0, 67, 20
1, 38300, Note_on_c, 0, 58, 16
1, 38312, Note_off_c, 0, 77, 64
1, 38404, Control_c, 0, 64, 0
1, 38436, Control_c, 0, 64, 127
1, 38556, Note_off_c, 0, 51, 64
1, 38612, Note_off_c, 0, 58, 64
1, 38656, Note_off_c, 0, 63, 64
1, 38708, Note_off_c, 0, 70, 64
1, 38852, Note_off_c, 0, 67, 64
1, 39008, Note_on_c, 0, 72, 42
1, 39016, Note_on_c, 0, 61, 27
1, 39036, Note_on_c, 0, 55, 22
1, 39036, Note_on_c, 0, 64, 24
1, 39104, Control_c, 0, 64, 0
1, 39140, Control_c, 0, 64, 127
1, 39204, Note_off_c, 0, 61, 64
1, 39216, Note_off_c, 0, 64, 64
1, 39324, Note_on_c, 0, 70, 40
1, 39328, Note_off_c, 0, 55, 64
1, 39352, Note_off_c, 0, 72, 64
1, 39384, Note_on_c, 0, 56, 29
1, 39400, Note_on_c, 0, 63, 27
1, 39412, Note_on_c, 0, 60, 27
1, 39420, Note_on_c, 0, 68, 44
1, 39440, Note_off_c, 0, 70, 64
1, 39448, Control_c, 0, 64, 0
1, 39520, Control_c, 0, 64, 127
1, 39588, Note_on_c, 0, 70, 49
1, 39628, Note_off_c, 0, 68, 64
1, 39748, Note_off_c, 0, 56, 64
1, 39756, Note_off_c, 0, 60, 64
1, 39760, Note_on_c, 0, 72, 45
1, 39764, Note_off_c, 0, 70, 64
1, 39764, Note_on_c, 0, 51, 35
1, 39784, Control_c, 0, 64, 0
1, 39820, Control_c, 0, 64, 127
1, 39876, Note_off_c, 0, 63, 64
1, 39896, Tempo, 500000
1, 39896, Note_off_c, 0, 51, 64
1, 40084, Note_on_c, 0, 61, 33
1, 40096, Note_on_c, 0, 64, 32
1, 40096, Note_on_c, 0, 55, 28
1, 40112, Control_c, 0, 64, 0
1, 40172, Control_c, 0, 64, 127
1, 40224, Note_off_c, 0, 64, 64
1, 40240, Note_off_c, 0, 61, 64
1, 40340, Note_on_c, 0, 70, 44
1, 40352, Note_off_c, 0, 72, 64
1, 40352, Note_off_c, 0, 55, 64
1, 40412, Note_on_c, 0, 68, 40
1, 40424, Note_on_c, 0, 56, 18
1, 40428, Note_off_c, 0, 70, 64
1, 40432, Note_on_c, 0, 63, 29
1, 40436, Note_on_c, 0, 60, 23
1, 40452, Control_c, 0, 64, 0
1, 40476, Control_c, 0, 64, 127
1, 40596, Note_on_c, 0, 77, 39
1, 40688, Note_off_c, 0, 56, 64
1, 40704, Note_off_c, 0, 60, 64
1, 40748, Note_on_c, 0, 51, 28
1, 40756, Note_on_c, 0, 75, 40
1, 40772, Note_off_c, 0, 77, 64
1, 40772, Control_c, 0, 64, 0
1, 40812, Control_c, 0, 64, 127
1, 40872, Note_off_c, 0, 51, 64
1, 40872, Note_off_c, 0, 75, 64
1, 40928, Note_off_c, 0, 63, 64
1, 40944, Note_off_c, 0, 68, 64
1, 41128, Note_on_c, 0, 61, 23
1, 41136, Note_on_c, 0, 72, 45
1, 41148, Note_on_c, 0, 55, 28
1, 41156, Note_on_c, 0, 64, 22
1, 41264, Note_on_c, 0, 71, 41
1, 41276, Note_off_c, 0, 64, 64
1, 41308, Note_off_c, 0, 61, 64
1, 41332, Note_off_c, 0, 72, 64
1, 41368, Note_on_c, 0, 70, 49
1, 41404, Note_off_c, 0, 71, 64
1, 41408, Note_off_c, 0, 55, 64
1, 41500, Note_on_c, 0, 67, 42
1, 41516, Note_on_c, 0, 63, 32
1, 41524, Note_on_c, 0, 56, 23
1, 41528, Note_on_c, 0, 60, 29
1, 41532, Note_off_c, 0, 70, 64
1, 41560, Control_c, 0, 64, 0
1, 41600, Control_c, 0, 64, 127
1, 41636, Note_on_c, 0, 68, 33
1, 41660, Note_off_c, 0, 67, 64
1, 41720, Note_off_c, 0, 60, 64
1, 41756, Note_off_c, 0, 56, 64
1, 41776, Note_on_c, 0, 70, 44
1, 41804, Note_off_c, 0, 68, 64
1, 41868, Note_off_c, 0, 63, 64
1, 41924, Note_on_c, 0, 51, 28
1, 41940, Note_on_c, 0, 71, 36
1, 41964, Note_off_c, 0, 70, 64
1, 42060, Note_on_c, 0, 73, 42
1, 42076, Note_off_c, 0, 71, 64
1, 42176, Note_off_c, 0, 73, 64
1, 42280, Note_on_c, 0, 72, 44
1, 42332, Note_off_c, 0, 72, 64
1, 42396, Note_on_c, 0, 72, 52
1, 42480, Note_on_c, 0, 63, 42
1, 42492, Note_on_c, 0, 56, 29
1, 42496, Note_off_c, 0, 72, 64
1, 42496, Note_on_c, 0, 61, 24
1, 42508, Note_off_c, 0, 51, 64
1, 42556, Control_c, 0, 64, 0
1, 42796, Note_off_c, 0, 56, 64
1, 42796, Note_on_c, 0, 55, 31
1, 42820, Control_c, 0, 64, 127
1, 42892, Note_on_c, 0, 53, 28
1, 42904, Note_off_c, 0, 55, 64
1, 43112, Note_off_c, 0, 53, 64
1, 43124, Note_on_c, 0, 55, 29
1, 43272, Control_c, 0, 64, 0
1, 43380, Note_on_c, 0, 51, 28
1, 43452, Note_off_c, 0, 55, 64
1, 43620, Control_c, 0, 64, 127
1, 43732, Note_off_c, 0, 51, 64
1, 43772, Note_off_c, 0, 61, 64
1, 43804, Note_off_c, 0, 63, 64
1, 44028, Note_on_c, 0, 61, 39
1, 44040, Note_on_c, 0, 72, 52
1, 44044, Note_on_c, 0, 64, 42
1, 44056, Note_on_c, 0, 55, 29
1, 44092, Control_c, 0, 64, 0
1, 44144, Control_c, 0, 64, 127
1, 44184, Note_off_c, 0, 64, 64
1, 44208, Note_off_c, 0, 61, 64
1, 44308, Note_off_c, 0, 72, 64
1, 44308, Note_on_c, 0, 70, 28
1, 44320, Note_off_c, 0, 55, 64
1, 44384, Note_on_c, 0, 56, 42
1, 44388, Note_on_c, 0, 68, 58
1, 44400, Note_on_c, 0, 63, 44
1, 44404, Note_off_c, 0, 70, 64
1, 44416, Note_on_c, 0, 60, 29
1, 44436, Control_c, 0, 64, 0
1, 44492, Control_c, 0, 64, 127
1, 44556, Note_on_c, 0, 70, 58
1, 44596, Note_off_c, 0, 68, 64
1, 44636, Note_off_c, 0, 60, 64
1, 44644, Note_off_c, 0, 56, 64
1, 44732, Note_on_c, 0, 72, 58
1, 44732, Note_on_c, 0, 51, 37
1, 44740, Control_c, 0, 64, 0
1, 44756, Note_off_c, 0, 70, 64
1, 44764, Control_c, 0, 64, 127
1, 44852, Note_off_c, 0, 51, 64
1, 44868, Note_off_c, 0, 63, 64
1, 45052, Note_on_c, 0, 64, 44
1, 45052, Note_on_c, 0, 61, 31
1, 45052, Note_on_c, 0, 55, 44
1, 45148, Note_on_c, 0, 70, 50
1, 45160, Note_off_c, 0, 72, 64
1, 45164, Note_off_c, 0, 64, 64
1, 45164, Note_off_c, 0, 61, 64
1, 45192, Note_off_c, 0, 70, 64
1, 45200, Note_on_c, 0, 72, 48
1, 45220, Note_off_c, 0, 55, 64
1, 45268, Note_on_c, 0, 70, 59
1, 45284, Note_off_c, 0, 72, 64
1, 45340, Note_on_c, 0, 68, 57
1, 45356, Note_off_c, 0, 70, 64
1, 45372, Note_on_c, 0, 56, 44
1, 45376, Note_on_c, 0, 63, 44
1, 45388, Note_on_c, 0, 60, 42
1, 45468, Note_off_c, 0, 56, 64
1, 45468, Note_off_c, 0, 60, 64
1, 45544, Note_off_c, 0, 63, 64
1, 45600, Note_off_c, 0, 68, 64
1, 45652, Note_on_c, 0, 80, 50
1, 45748, Note_on_c, 0, 68, 52
1, 45752, Note_on_c, 0, 71, 50
1, 45752, Note_on_c, 0, 77, 62
1, 45752, Note_on_c, 0, 62, 52
1, 45788, Note_off_c, 0, 80, 64
1, 45860, Note_off_c, 0, 71, 64
1, 45896, Note_off_c, 0, 62, 64
1, 45904, Note_off_c, 0, 68, 64
1, 46172, Note_on_c, 0, 63, 48
1, 46172, Note_on_c, 0, 67, 48
1, 46176, Note_on_c, 0, 70, 63
1, 46220, Control_c, 0, 64, 0
1, 46224, Note_off_c, 0, 77, 64
1, 46276, Control_c, 0, 64, 127
1, 46372, Note_off_c, 0, 67, 64
1, 46508, Note_on_c, 0, 72, 52
1, 46532, Note_off_c, 0, 70, 64
1, 46572, Note_on_c, 0, 65, 48
1, 46572, Note_on_c, 0, 58, 58
1, 46572, Note_on_c, 0, 73, 70
1, 46596, Note_off_c, 0, 63, 64
1, 46604, Note_off_c, 0, 72, 64
1, 46628, Control_c, 0, 64, 0
1, 46664, Control_c, 0, 64, 127
1, 46900, Note_off_c, 0, 73, 64
1, 46924, Note_off_c, 0, 58, 64
1, 46956, Note_off_c, 0, 65, 64
1, 46972, Note_on_c, 0, 72, 63
1, 46972, Note_on_c, 0, 51, 45
1, 46980, Note_on_c, 0, 67, 58
1, 46980, Note_on_c, 0, 63, 52
1, 47024, Control_c, 0, 64, 0
1, 47044, Control_c, 0, 64, 127
1, 47216, Note_off_c, 0, 72, 64
1, 47236, Note_on_c, 0, 70, 36
1, 47236, Note_on_c, 0, 61, 48
1, 47240, Note_off_c, 0, 63, 64
1, 47264, Note_off_c, 0, 67, 64
1, 47276, Note_off_c, 0, 51, 64
1, 47320, Note_on_c, 0, 73, 63
1, 47324, Note_on_c, 0, 68, 70
1, 47324, Note_on_c, 0, 65, 59
1, 47332, Note_on_c, 0, 56, 44
1, 47364, Note_off_c, 0, 70, 64
1, 47364, Note_off_c, 0, 61, 64
1, 47404, Control_c, 0, 64, 0
1, 47460, Control_c, 0, 64, 127
1, 47676, Note_on_c, 0, 72, 62
1, 47676, Note_on_c, 0, 63, 52
1, 47712, Note_off_c, 0, 73, 64
1, 47716, Note_off_c, 0, 68, 64
1, 47772, Note_on_c, 0, 60, 53
1, 47776, Note_on_c, 0, 68, 65
1, 47780, Note_off_c, 0, 65, 64
1, 47816, Note_off_c, 0, 63, 64
1, 47820, Note_off_c, 0, 72, 64
1, 47856, Control_c, 0, 64, 0
1, 47992, Control_c, 0, 64, 127
1, 48224, Control_c, 0, 64, 0
1, 48300, Note_on_c, 0, 65, 72
1, 48312, Note_off_c, 0, 68, 64
1, 48324, Note_off_c, 0, 60, 64
1, 48360, Note_off_c, 0, 56, 64
1, 48420, Control_c, 0, 64, 127
1, 48676, Note_on_c, 0, 73, 58
1, 48712, Control_c, 0, 64, 0
1, 48724, Note_off_c, 0, 65, 64
1, 48736, Control_c, 0, 64, 127
1, 48804, Note_off_c, 0, 73, 64
1, 49044, Note_on_c, 0, 70, 54
1, 49052, Tempo, 500000
1, 49052, Note_on_c, 0, 61, 50
1, 49052, Note_on_c, 0, 46, 53
1, 49052, Note_on_c, 0, 53, 29
1, 49224, Note_off_c, 0, 61, 64
1, 49240, Note_off_c, 0, 46, 64
1, 49244, Note_off_c, 0, 53, 64
1, 49336, Note_on_c, 0, 73, 49
1, 49392, Note_off_c, 0, 70, 64
1, 49400, Note_on_c, 0, 61, 53
1, 49412, Note_on_c, 0, 46, 42
1, 49420, Note_on_c, 0, 77, 57
1, 49424, Note_on_c, 0, 53, 41
1, 49428, Note_on_c, 0, 65, 58
1, 49436, Note_off_c, 0, 73, 64
1, 49464, Control_c, 0, 64, 0
1, 49528, Control_c, 0, 64, 127
1, 49564, Note_off_c, 0, 65, 64
1, 49760, Note_off_c, 0, 77, 64
1, 49764, Note_on_c, 0, 76, 54
1, 49792, Note_off_c, 0, 53, 64
1, 49808, Note_off_c, 0, 46, 64
1, 49816, Note_off_c, 0, 61, 64
1, 50016, Note_on_c, 0, 72, 48
1, 50040, Note_off_c, 0, 76, 64
1, 50072, Note_on_c, 0, 46, 49
1, 50088, Note_on_c, 0, 60, 44
1, 50088, Note_on_c, 0, 75, 62
1, 50104, Note_on_c, 0, 53, 44
1, 50104, Control_c, 0, 64, 0
1, 50120, Note_off_c, 0, 72, 64
1, 50148, Control_c, 0, 64, 127
1, 50240, Note_off_c, 0, 60, 64
1, 50256, Note_off_c, 0, 46, 64
1, 50260, Note_off_c, 0, 53, 64
1, 50312, Note_on_c, 0, 73, 55
1, 50328, Note_off_c, 0, 75, 64
1, 50424, Note_on_c, 0, 70, 57
1, 50424, Note_on_c, 0, 82, 63
1, 50436, Note_off_c, 0, 73, 64
1, 50444, Note_on_c, 0, 61, 53
1, 50444, Note_on_c, 0, 46, 36
1, 50444, Note_on_c, 0, 53, 48
1, 50500, Control_c, 0, 64, 0
1, 50572, Control_c, 0, 64, 127
1, 50656, Note_off_c, 0, 82, 64
1, 50720, Note_on_c, 0, 73, 50
1, 50736, Note_off_c, 0, 70, 64
1, 50776, Note_off_c, 0, 73, 64
1, 50776, Note_on_c, 0, 75, 52
1, 50812, Note_off_c, 0, 53, 64
1, 50824, Note_on_c, 0, 73, 55
1, 50832, Note_off_c, 0, 46, 64
1, 50840, Note_off_c, 0, 75, 64
1, 50844, Note_off_c, 0, 61, 64
1, 51144, Note_on_c, 0, 61, 53
1, 51152, Note_on_c, 0, 70, 49
1, 51152, Control_c, 0, 64, 0
1, 51164, Note_off_c, 0, 73, 64
1, 51164, Note_on_c, 0, 46, 49
1, 51168, Note_on_c, 0, 53, 41
1, 51216, Control_c, 0, 64, 127
1, 51308, Note_off_c, 0, 46, 64
1, 51308, Note_off_c, 0, 53, 64
1, 51312, Note_off_c, 0, 61, 64
1, 51324, Note_off_c, 0, 70, 64
1, 51324, Note_on_c, 0, 73, 55
1, 51480, Note_on_c, 0, 61, 55
1, 51484, Note_on_c, 0, 77, 58
1, 51492, Note_on_c, 0, 46, 50
1, 51492, Note_on_c, 0, 65, 55
1, 51500, Note_off_c, 0, 73, 64
1, 51504, Note_on_c, 0, 53, 48
1, 51544, Control_c, 0, 64, 0
1, 51600, Control_c, 0, 64, 127
1, 51708, Note_off_c, 0, 65, 64
1, 51792, Note_on_c, 0, 76, 53
1, 51840, Note_off_c, 0, 53, 64
1, 51852, Note_off_c, 0, 46, 64
1, 51876, Note_off_c, 0, 61, 64
1, 51924, Note_on_c, 0, 72, 41
1, 51952, Note_off_c, 0, 76, 64
1, 52080, Note_on_c, 0, 75, 62
1, 52096, Note_on_c, 0, 60, 49
1, 52100, Note_on_c, 0, 46, 49
1, 52104, Note_on_c, 0, 53, 49
1, 52116, Note_off_c, 0, 72, 64
1, 52120, Control_c, 0, 64, 0
1, 52144, Control_c, 0, 64, 127
1, 52208, Note_on_c, 0, 73, 63
1, 52216, Note_off_c, 0, 46, 64
1, 52220, Note_off_c, 0, 75, 64
1, 52224, Note_off_c, 0, 60, 64
1, 52232, Note_off_c, 0, 53, 64
1, 52376, Note_off_c, 0, 77, 64
1, 52384, Note_on_c, 0, 70, 62
1, 52388, Note_on_c, 0, 82, 52
1, 52396, Note_off_c, 0, 73, 64
1, 52400, Note_on_c, 0, 46, 53
1, 52412, Note_on_c, 0, 61, 58
1, 52412, Note_on_c, 0, 53, 49
1, 52448, Control_c, 0, 64, 0
1, 52504, Control_c, 0, 64, 127
1, 52668, Note_off_c, 0, 70, 64
1, 52688, Note_on_c, 0, 76, 55
1, 52752, Note_off_c, 0, 61, 64
1, 52752, Note_off_c, 0, 53, 64
1, 52768, Note_off_c, 0, 46, 64
1, 52808, Note_off_c, 0, 76, 64
1, 52816, Note_on_c, 0, 72, 58
1, 52964, Note_on_c, 0, 75, 57
1, 52984, Note_on_c, 0, 46, 48
1, 52988, Note_on_c, 0, 60, 54
1, 52992, Note_on_c, 0, 53, 50
1, 53004, Note_off_c, 0, 72, 64
1, 53016, Control_c, 0, 64, 0
1, 53036, Control_c, 0, 64, 127
1, 53096, Note_on_c, 0, 73, 62
1, 53100, Note_off_c, 0, 60, 64
1, 53112, Note_off_c, 0, 75, 64
1, 53112, Note_off_c, 0, 46, 64
1, 53112, Note_off_c, 0, 53, 64
1, 53220, Note_off_c, 0, 82, 64
1, 53264, Note_on_c, 0, 82, 59
1, 53268, Note_off_c, 0, 73, 64
1, 53268, Note_on_c, 0, 70, 61
1, 53280, Note_on_c, 0, 61, 58
1, 53288, Note_on_c, 0, 53, 49
1, 53288, Note_on_c, 0, 46, 42
1, 53336, Control_c, 0, 64, 0
1, 53372, Control_c, 0, 64, 127
1, 53600, Note_off_c, 0, 70, 64
1, 53612, Note_on_c, 0, 76, 55
1, 53688, Note_off_c, 0, 46, 64
1, 53692, Note_off_c, 0, 61, 64
1, 53692, Note_off_c, 0, 53, 64
1, 53760, Note_off_c, 0, 76, 64
1, 53776, Note_on_c, 0, 72, 53
1, 53960, Note_on_c, 0, 75, 53
1, 53960, Note_on_c, 0, 60, 48
1, 53964, Note_on_c, 0, 46, 49
1, 53968, Note_on_c, 0, 53, 44
1, 53992, Note_off_c, 0, 72, 64
1, 54004, Control_c, 0, 64, 0
1, 54040, Control_c, 0, 64, 127
1, 54152, Note_on_c, 0, 73, 62
1, 54160, Note_off_c, 0, 75, 64
1, 54168, Note_off_c, 0, 60, 64
1, 54168, Note_off_c, 0, 46, 64
1, 54184, Note_off_c, 0, 53, 64
1, 54416, Note_off_c, 0, 82, 64
1, 54440, Note_on_c, 0, 70, 61
1, 54440, Note_on_c, 0, 61, 42
1, 54440, Note_on_c, 0, 46, 42
1, 54452, Note_on_c, 0, 82, 72
1, 54456, Note_on_c, 0, 53, 36
1, 54464, Note_off_c, 0, 73, 64
1, 54544, Control_c, 0, 64, 0
1, 54596, Control_c, 0, 64, 127
1, 54884, Note_off_c, 0, 53, 64
1, 54924, Note_off_c, 0, 46, 64
1, 54960, Note_on_c, 0, 73, 58
1, 54972, Note_off_c, 0, 82, 64
1, 54984, Note_off_c, 0, 70, 64
1, 54992, Note_off_c, 0, 61, 64
1, 55396, Note_on_c, 0, 64, 32
1, 55404, Note_on_c, 0, 55, 29
1, 55408, Note_on_c, 0, 58, 24
1, 55468, Control_c, 0, 64, 0
1, 55484, Control_c, 0, 64, 127
1, 55640, Note_off_c, 0, 58, 64
1, 55644, Note_off_c, 0, 64, 64
1, 55660, Note_off_c, 0, 55, 64
1, 55848, Note_on_c, 0, 56, 35
1, 55848, Note_on_c, 0, 71, 52
1, 55860, Note_on_c, 0, 64, 33
1, 55868, Note_on_c, 0, 59, 29
1, 55872, Note_off_c, 0, 73, 64
1, 56136, Note_off_c, 0, 56, 64
1, 56160, Note_off_c, 0, 59, 64
1, 56184, Note_off_c, 0, 64, 64
1, 56340, Note_on_c, 0, 73, 45
1, 56356, Note_on_c, 0, 55, 23
1, 56368, Note_on_c, 0, 64, 22
1, 56376, Note_on_c, 0, 58, 32
1, 56388, Note_off_c, 0, 71, 64
1, 56464, Control_c, 0, 64, 0
1, 56488, Control_c, 0, 64, 127
1, 56712, Note_off_c, 0, 64, 64
1, 56764, Note_off_c, 0, 58, 64
1, 56780, Note_off_c, 0, 55, 64
1, 56888, Note_on_c, 0, 71, 36
1, 56896, Note_on_c, 0, 64, 28
1, 56900, Note_on_c, 0, 56, 22
1, 56908, Note_off_c, 0, 73, 64
1, 56912, Note_on_c, 0, 59, 28
1, 56984, Control_c, 0, 64, 0
1, 57020, Control_c, 0, 64, 127
1, 57308, Note_off_c, 0, 59, 64
1, 57368, Note_off_c, 0, 56, 64
1, 57380, Note_off_c, 0, 64, 64
1, 57600, Note_on_c, 0, 70, 36
1, 57616, Note_on_c, 0, 61, 18
1, 57616, Note_on_c, 0, 55, 22
1, 57624, Note_on_c, 0, 64, 18
1, 57660, Note_off_c, 0, 71, 64
1, 57740, Control_c, 0, 64, 0
1, 57804, Control_c, 0, 64, 127
1, 58296, Note_on_c, 0, 72, 40
1, 58320, Note_off_c, 0, 70, 64
1, 58392, Note_off_c, 0, 64, 64
1, 58404, Note_off_c, 0, 61, 64
1, 58424, Note_off_c, 0, 55, 64
1, 58704, Note_on_c, 0, 70, 37
1, 58728, Note_off_c, 0, 72, 64
1, 58776, Note_on_c, 0, 63, 33
1, 58776, Note_on_c, 0, 56, 27
1, 58784, Note_on_c, 0, 68, 45
1, 58792, Note_on_c, 0, 60, 32
1, 58808, Note_off_c, 0, 70, 64
1, 59000, Note_on_c, 0, 70, 27
1, 59064, Note_off_c, 0, 56, 64
1, 59064, Note_off_c, 0, 68, 64
1, 59140, Note_off_c, 0, 60, 64
1, 59144, Note_on_c, 0, 72, 48
1, 59160, Note_on_c, 0, 51, 23
1, 59168, Note_off_c, 0, 70, 64
1, 59260, Note_off_c, 0, 63, 64
1, 59292, Note_off_c, 0, 51, 64
1, 59472, Note_on_c, 0, 61, 28
1, 59488, Note_on_c, 0, 64, 31
1, 59488, Note_on_c, 0, 55, 27
1, 59604, Note_off_c, 0, 64, 64
1, 59628, Note_off_c, 0, 61, 64
1, 59692, Note_off_c, 0, 55, 64
1, 59744, Note_on_c, 0, 70, 36
1, 59764, Note_off_c, 0, 72, 64
1, 59812, Note_on_c, 0, 63, 40
1, 59816, Note_on_c, 0, 68, 41
1, 59816, Note_on_c, 0, 56, 22
1, 59836, Note_off_c, 0, 70, 64
1, 59844, Note_on_c, 0, 60, 23
1, 59860, Control_c, 0, 64, 0
1, 59896, Control_c, 0, 64, 127
1, 60072, Note_off_c, 0, 60, 64
1, 60084, Note_off_c, 0, 56, 64
1, 60084, Note_on_c, 0, 77, 41
1, 60124, Note_off_c, 0, 68, 64
1, 60140, Note_on_c, 0, 51, 28
1, 60160, Note_on_c, 0, 75, 40
1, 60176, Note_off_c, 0, 77, 64
1, 60272, Note_off_c, 0, 75, 64
1, 60284, Note_off_c, 0, 51, 64
1, 60312, Note_off_c, 0, 63, 64
1, 60524, Note_on_c, 0, 64, 22
1, 60524, Note_on_c, 0, 55, 32
1, 60528, Note_on_c, 0, 72, 44
1, 60528, Note_on_c, 0, 61, 27
1, 60684, Note_off_c, 0, 64, 64
1, 60752, Note_off_c, 0, 61, 64
1, 60836, Note_off_c, 0, 55, 64
1, 60840, Note_on_c, 0, 70, 35
1, 60872, Note_off_c, 0, 72, 64
1, 60968, Note_on_c, 0, 63, 36
1, 60968, Note_on_c, 0, 60, 22
1, 60968, Note_on_c, 0, 56, 24
1, 60972, Note_on_c, 0, 68, 40
1, 61008, Note_off_c, 0, 70, 64
1, 61168, Note_on_c, 0, 70, 42
1, 61180, Note_off_c, 0, 60, 64
1, 61216, Note_off_c, 0, 68, 64
1, 61260, Note_off_c, 0, 56, 64
1, 61352, Note_on_c, 0, 71, 35
1, 61352, Note_on_c, 0, 51, 29
1, 61368, Note_off_c, 0, 70, 64
1, 61412, Note_off_c, 0, 63, 64
1, 61528, Note_on_c, 0, 73, 36
1, 61540, Note_off_c, 0, 71, 64
1, 61688, Note_off_c, 0, 73, 64
1, 61728, Note_on_c, 0, 72, 36
1, 61796, Note_off_c, 0, 72, 64
1, 61844, Note_on_c, 0, 72, 50
1, 61880, Note_on_c, 0, 61, 23
1, 61880, Note_on_c, 0, 56, 29
1, 61904, Note_on_c, 0, 63, 45
1, 61928, Note_off_c, 0, 72, 64
1, 61944, Note_off_c, 0, 51, 64
1, 61952, Control_c, 0, 64, 0
1, 62036, Control_c, 0, 64, 127
1, 62208, Note_on_c, 0, 55, 37
1, 62228, Note_off_c, 0, 56, 64
1, 62304, Note_on_c, 0, 53, 36
1, 62316, Control_c, 0, 64, 0
1, 62360, Note_off_c, 0, 55, 64
1, 62528, Note_on_c, 0, 55, 29
1, 62552, Note_off_c, 0, 53, 64
1, 62756, Note_on_c, 0, 51, 31
1, 62776, Note_off_c, 0, 55, 64
1, 62872, Control_c, 0, 64, 127
1, 63016, Note_off_c, 0, 51, 64
1, 63056, Note_off_c, 0, 61, 64
1, 63064, Note_off_c, 0, 63, 64
1, 63320, Note_on_c, 0, 61, 29
1, 63332, Note_on_c, 0, 72, 44
1, 63336, Note_on_c, 0, 55, 32
1, 63348, Note_on_c, 0, 64, 27
1, 63384, Control_c, 0, 64, 0
1, 63420, Control_c, 0, 64, 127
1, 63492, Note_off_c, 0, 64, 64
1, 63504, Note_off_c, 0, 61, 64
1, 63608, Note_off_c, 0, 55, 64
1, 63624, Note_off_c, 0, 72, 64
1, 63624, Note_on_c, 0, 70, 23
1, 63684, Note_on_c, 0, 56, 24
1, 63696, Note_on_c, 0, 68, 42
1, 63700, Note_on_c, 0, 63, 40
1, 63716, Note_off_c, 0, 70, 64
1, 63724, Note_on_c, 0, 60, 32
1, 63740, Control_c, 0, 64, 0
1, 63808, Control_c, 0, 64, 127
1, 63872, Note_on_c, 0, 70, 36
1, 63904, Note_off_c, 0, 68, 64
1, 63964, Note_off_c, 0, 60, 64
1, 63988, Note_off_c, 0, 56, 64
1, 64032, Note_on_c, 0, 72, 44
1, 64052, Note_on_c, 0, 51, 22
1, 64068, Note_off_c, 0, 70, 64
1, 64068, Control_c, 0, 64, 0
1, 64088, Control_c, 0, 64, 127
1, 64152, Note_off_c, 0, 63, 64
1, 64168, Note_off_c, 0, 51, 64
1, 64348, Note_on_c, 0, 64, 31
1, 64348, Note_on_c, 0, 61, 36
1, 64360, Note_on_c, 0, 55, 28
1, 64400, Control_c, 0, 64, 0
1, 64416, Control_c, 0, 64, 127
1, 64496, Note_off_c, 0, 64, 64
1, 64504, Note_off_c, 0, 61, 64
1, 64600, Note_off_c, 0, 55, 64
1, 64604, Note_on_c, 0, 70, 44
1, 64616, Note_off_c, 0, 72, 64
1, 64676, Note_on_c, 0, 56, 33
1, 64684, Note_on_c, 0, 63, 36
1, 64692, Note_on_c, 0, 68, 36
1, 64692, Note_on_c, 0, 60, 36
1, 64732, Note_off_c, 0, 70, 64
1, 64824, Note_off_c, 0, 60, 64
1, 64872, Note_on_c, 0, 79, 41
1, 64900, Note_off_c, 0, 68, 64
1, 65012, Note_on_c, 0, 77, 44
1, 65024, Note_off_c, 0, 79, 64
1, 65028, Note_on_c, 0, 59, 41
1, 65060, Control_c, 0, 64, 0
1, 65096, Note_off_c, 0, 56, 64
1, 65096, Control_c, 0, 64, 127
1, 65192, Note_off_c, 0, 59, 64
1, 65352, Note_off_c, 0, 77, 64
1, 65356, Note_on_c, 0, 70, 44
1, 65372, Note_on_c, 0, 67, 36
1, 65376, Note_on_c, 0, 51, 32
1, 65392, Note_on_c, 0, 58, 20
1, 65416, Control_c, 0, 64, 0
1, 65476, Control_c, 0, 64, 127
1, 65556, Note_off_c, 0, 67, 64
1, 65560, Note_off_c, 0, 58, 64
1, 65604, Note_off_c, 0, 63, 64
1, 65724, Note_on_c, 0, 68, 49
1, 65728, Note_on_c, 0, 59, 36
1, 65732, Note_on_c, 0, 62, 27
1, 65740, Note_off_c, 0, 51, 64
1, 65744, Note_off_c, 0, 70, 64
1, 65752, Control_c, 0, 64, 0
1, 65788, Control_c, 0, 64, 127
1, 66020, Note_on_c, 0, 79, 33
1, 66092, Note_on_c, 0, 51, 33
1, 66096, Note_on_c, 0, 77, 44
1, 66112, Note_off_c, 0, 79, 64
1, 66136, Note_off_c, 0, 59, 64
1, 66144, Control_c, 0, 64, 0
1, 66184, Control_c, 0, 64, 127
1, 66240, Note_off_c, 0, 62, 64
1, 66408, Note_off_c, 0, 68, 64
1, 66512, Note_on_c, 0, 68, 44
1, 66524, Note_off_c, 0, 51, 64
1, 66524, Note_on_c, 0, 59, 32
1, 66528, Note_off_c, 0, 77, 64
1, 66528, Note_on_c, 0, 62, 28
1, 66588, Control_c, 0, 64, 0
1, 66644, Control_c, 0, 64, 127
1, 66924, Note_on_c, 0, 79, 23
1, 66996, Note_on_c, 0, 51, 31
1, 67000, Note_on_c, 0, 77, 40
1, 67032, Note_off_c, 0, 79, 64
1, 67056, Control_c, 0, 64, 0
1, 67088, Note_off_c, 0, 59, 64
1, 67092, Control_c, 0, 64, 127
1, 67160, Note_off_c, 0, 62, 64
1, 67604, Note_off_c, 0, 77, 64
1, 67616, Note_off_c, 0, 68, 64
1, 67616, Note_on_c, 0, 63, 19
1, 67616, Note_on_c, 0, 70, 39
1, 67616, Note_on_c, 0, 58, 22
1, 67632, Note_on_c, 0, 67, 20
1, 67720, Control_c, 0, 64, 0
1, 67752, Control_c, 0, 64, 127
1, 67892, Note_off_c, 0, 51, 64
1, 67956, Note_off_c, 0, 63, 64
1, 67956, Note_off_c, 0, 58, 64
1, 68000, Note_off_c, 0, 70, 64
1, 68108, Note_off_c, 0, 67, 64
1, 68244, Note_on_c, 0, 72, 29
1, 68256, Note_on_c, 0, 61, 27
1, 68272, Note_on_c, 0, 64, 23
1, 68272, Note_on_c, 0, 55, 22
1, 68340, Control_c, 0, 64, 0
1, 68380, Control_c, 0, 64, 127
1, 68464, Note_off_c, 0, 61, 64
1, 68464, Note_off_c, 0, 64, 64
1, 68536, Note_on_c, 0, 70, 20
1, 68568, Note_off_c, 0, 72, 64
1, 68592, Note_off_c, 0, 55, 64
1, 68620, Note_on_c, 0, 68, 36
1, 68628, Note_on_c, 0, 56, 23
1, 68640, Note_off_c, 0, 70, 64
1, 68648, Note_on_c, 0, 63, 19
1, 68672, Note_on_c, 0, 60, 14
1, 68704, Control_c, 0, 64, 0
1, 68724, Control_c, 0, 64, 127
1, 68808, Note_on_c, 0, 70, 41
1, 68848, Note_off_c, 0, 68, 64
1, 68920, Note_off_c, 0, 60, 64
1, 68952, Note_off_c, 0, 56, 64
1, 68960, Note_on_c, 0, 72, 36
1, 68972, Note_off_c, 0, 70, 64
1, 68980, Note_on_c, 0, 51, 33
1, 68988, Control_c, 0, 64, 0
1, 69044, Control_c, 0, 64, 127
1, 69112, Note_off_c, 0, 51, 64
1, 69116, Note_off_c, 0, 63, 64
1, 69296, Note_on_c, 0, 61, 22
1, 69300, Note_on_c, 0, 64, 24
1, 69308, Note_on_c, 0, 55, 19
1, 69336, Control_c, 0, 64, 0
1, 69360, Control_c, 0, 64, 127
1, 69432, Note_off_c, 0, 64, 64
1, 69452, Note_off_c, 0, 61, 64
1, 69528, Note_on_c, 0, 70, 36
1, 69536, Note_off_c, 0, 72, 64
1, 69576, Note_off_c, 0, 55, 64
1, 69592, Note_on_c, 0, 60, 24
1, 69604, Note_on_c, 0, 68, 33
1, 69608, Note_on_c, 0, 63, 29
1, 69608, Note_on_c, 0, 56, 23
1, 69628, Note_off_c, 0, 70, 64
1, 69804, Note_off_c, 0, 60, 64
1, 69804, Note_on_c, 0, 77, 35
1, 69812, Note_off_c, 0, 56, 64
1, 69884, Note_off_c, 0, 68, 64
1, 69952, Note_on_c, 0, 75, 29
1, 69960, Note_off_c, 0, 77, 64
1, 69972, Note_on_c, 0, 51, 28
1, 70092, Note_off_c, 0, 75, 64
1, 70116, Note_off_c, 0, 51, 64
1, 70136, Note_off_c, 0, 63, 64
1, 70388, Note_on_c, 0, 55, 18
1, 70396, Note_on_c, 0, 61, 16
1, 70412, Note_on_c, 0, 72, 35
1, 70412, Note_on_c, 0, 64, 16
1, 70472, Control_c, 0, 64, 0
1, 70496, Control_c, 0, 64, 127
1, 70584, Note_on_c, 0, 71, 28
1, 70632, Note_off_c, 0, 72, 64
1, 70632, Note_off_c, 0, 64, 64
1, 70656, Note_off_c, 0, 61, 64
1, 70700, Note_on_c, 0, 70, 27
1, 70724, Note_off_c, 0, 71, 64
1, 70784, Note_off_c, 0, 55, 64
1, 70836, Note_on_c, 0, 67, 36
1, 70848, Note_on_c, 0, 60, 14
1, 70856, Note_on_c, 0, 56, 1
1, 70856, Note_on_c, 0, 63, 24
1, 70872, Note_off_c, 0, 70, 64
1, 70936, Control_c, 0, 64, 0
1, 70956, Control_c, 0, 64, 127
1, 70976, Note_on_c, 0, 68, 39
1, 71024, Note_off_c, 0, 67, 64
1, 71076, Note_off_c, 0, 60, 64
1, 71124, Note_on_c, 0, 70, 36
1, 71152, Note_off_c, 0, 68, 64
1, 71232, Note_off_c, 0, 56, 64
1, 71296, Note_on_c, 0, 71, 35
1, 71296, Note_on_c, 0, 51, 26
1, 71308, Note_off_c, 0, 70, 64
1, 71344, Control_c, 0, 64, 0
1, 71364, Note_off_c, 0, 63, 64
1, 71388, Control_c, 0, 64, 127
1, 71428, Note_on_c, 0, 73, 35
1, 71464, Note_off_c, 0, 71, 64
1, 71564, Note_off_c, 0, 73, 64
1, 71660, Note_on_c, 0, 72, 36
1, 71712, Note_off_c, 0, 72, 64
1, 71756, Note_on_c, 0, 72, 42
1, 71816, Note_on_c, 0, 63, 37
1, 71816, Note_on_c, 0, 56, 27
1, 71828, Note_off_c, 0, 72, 64
1, 71828, Note_on_c, 0, 61, 23
1, 71860, Note_off_c, 0, 51, 64
1, 71904, Control_c, 0, 64, 0
1, 72040, Control_c, 0, 64, 127
1, 72108, Note_on_c, 0, 55, 27
1, 72112, Note_off_c, 0, 56, 64
1, 72204, Note_on_c, 0, 53, 28
1, 72212, Note_off_c, 0, 55, 64
1, 72392, Control_c, 0, 64, 0
1, 72404, Note_off_c, 0, 53, 64
1, 72428, Note_on_c, 0, 55, 28
1, 72684, Note_on_c, 0, 51, 18
1, 72808, Note_off_c, 0, 55, 64
1, 72816, Control_c, 0, 64, 127
1, 72976, Note_off_c, 0, 51, 64
1, 73012, Note_off_c, 0, 61, 64
1, 73036, Note_off_c, 0, 63, 64
1, 73292, Note_on_c, 0, 61, 31
1, 73304, Note_on_c, 0, 72, 48
1, 73312, Note_on_c, 0, 64, 24
1, 73312, Note_on_c, 0, 55, 36
1, 73352, Control_c, 0, 64, 0
1, 73388, Control_c, 0, 64, 127
1, 73464, Note_off_c, 0, 61, 64
1, 73472, Note_off_c, 0, 64, 64
1, 73544, Note_off_c, 0, 55, 64
1, 73568, Note_on_c, 0, 70, 44
1, 73580, Note_off_c, 0, 72, 64
1, 73656, Note_on_c, 0, 56, 20
1, 73664, Note_on_c, 0, 68, 39
1, 73664, Note_on_c, 0, 63, 31
1, 73680, Note_on_c, 0, 60, 29
1, 73684, Note_off_c, 0, 70, 64
1, 73692, Control_c, 0, 64, 0
1, 73760, Control_c, 0, 64, 127
1, 73840, Note_on_c, 0, 70, 29
1, 73880, Note_off_c, 0, 68, 64
1, 73904, Note_off_c, 0, 56, 64
1, 73912, Note_off_c, 0, 60, 64
1, 74004, Note_on_c, 0, 72, 45
1, 74016, Note_on_c, 0, 51, 29
1, 74028, Note_off_c, 0, 70, 64
1, 74036, Control_c, 0, 64, 0
1, 74052, Control_c, 0, 64, 127
1, 74124, Note_off_c, 0, 51, 64
1, 74140, Note_off_c, 0, 63, 64
1, 74352, Note_on_c, 0, 64, 28
1, 74356, Note_on_c, 0, 61, 22
1, 74376, Note_on_c, 0, 55, 22
1, 74464, Note_on_c, 0, 70, 45
1, 74472, Note_off_c, 0, 64, 64
1, 74476, Note_off_c, 0, 61, 64
1, 74492, Note_off_c, 0, 72, 64
1, 74520, Note_off_c, 0, 55, 64
1, 74524, Note_off_c, 0, 70, 64
1, 74532, Note_on_c, 0, 72, 44
1, 74596, Note_on_c, 0, 70, 53
1, 74612, Note_off_c, 0, 72, 64
1, 74672, Note_on_c, 0, 68, 53
1, 74680, Note_off_c, 0, 70, 64
1, 74684, Note_on_c, 0, 56, 29
1, 74688, Note_on_c, 0, 63, 42
1, 74688, Note_on_c, 0, 60, 44
1, 74688, Control_c, 0, 64, 0
1, 74728, Control_c, 0, 64, 127
1, 74752, Note_off_c, 0, 56, 64
1, 74752, Note_off_c, 0, 60, 64
1, 74780, Note_off_c, 0, 68, 64
1, 74788, Note_off_c, 0, 63, 64
1, 74972, Note_on_c, 0, 80, 44
1, 75064, Note_on_c, 0, 62, 42
1, 75068, Note_on_c, 0, 68, 44
1, 75080, Note_on_c, 0, 71, 39
1, 75080, Note_on_c, 0, 77, 45
1, 75080, Control_c, 0, 64, 0
1, 75100, Note_off_c, 0, 80, 64
1, 75124, Control_c, 0, 64, 127
1, 75212, Note_off_c, 0, 77, 64
1, 75232, Note_off_c, 0, 71, 64
1, 75288, Note_off_c, 0, 62, 64
1, 75288, Note_off_c, 0, 68, 64
1, 75468, Note_on_c, 0, 67, 28
1, 75472, Note_on_c, 0, 70, 52
1, 75480, Note_on_c, 0, 63, 39
1, 75496, Control_c, 0, 64, 0
1, 75532, Control_c, 0, 64, 127
1, 75588, Note_off_c, 0, 67, 64
1, 75776, Note_off_c, 0, 63, 64
1, 75804, Note_on_c, 0, 72, 37
1, 75816, Note_off_c, 0, 70, 64
1, 75880, Note_on_c, 0, 73, 54
1, 75880, Note_on_c, 0, 58, 45
1, 75880, Note_on_c, 0, 65, 39
1, 75904, Note_off_c, 0, 72, 64
1, 75916, Control_c, 0, 64, 0
1, 75940, Control_c, 0, 64, 127
1, 76180, Note_off_c, 0, 58, 64
1, 76192, Note_off_c, 0, 73, 64
1, 76212, Note_off_c, 0, 65, 64
1, 76276, Note_on_c, 0, 51, 22
1, 76280, Note_on_c, 0, 72, 48
1, 76288, Note_on_c, 0, 63, 42
1, 76292, Note_on_c, 0, 67, 44
1, 76564, Note_off_c, 0, 72, 64
1, 76580, Note_on_c, 0, 70, 33
1, 76584, Note_on_c, 0, 61, 45
1, 76600, Note_off_c, 0, 63, 64
1, 76652, Note_off_c, 0, 67, 64
1, 76660, Note_off_c, 0, 51, 64
1, 76680, Note_on_c, 0, 73, 53
1, 76700, Note_on_c, 0, 56, 22
1, 76712, Note_on_c, 0, 65, 44
1, 76724, Note_off_c, 0, 70, 64
1, 76724, Note_off_c, 0, 61, 64
1, 76792, Control_c, 0, 64, 0
1, 76840, Control_c, 0, 64, 127
1, 77080, Note_off_c, 0, 73, 64
1, 77088, Note_on_c, 0, 72, 48
1, 77108, Note_on_c, 0, 63, 29
1, 77172, Note_off_c, 0, 65, 64
1, 77172, Note_on_c, 0, 60, 29
1, 77184, Note_on_c, 0, 68, 44
1, 77220, Note_off_c, 0, 72, 64
1, 77248, Note_off_c, 0, 63, 64
1, 77256, Control_c, 0, 64, 0
1, 77360, Control_c, 0, 64, 127
1, 77556, Note_off_c, 0, 56, 64
1, 77556, Note_off_c, 0, 68, 64
1, 77608, Note_off_c, 0, 60, 64
1, 77652, Note_on_c, 0, 59, 39
1, 77656, Control_c, 0, 64, 0
1, 77712, Control_c, 0, 64, 127
1, 78052, Note_off_c, 0, 59, 64
1, 78156, Note_on_c, 0, 47, 32
1, 78408, Note_off_c, 0, 47, 64
1, 78444, Note_on_c, 0, 69, 31
1, 78536, Note_off_c, 0, 69, 64
1, 78536, Note_on_c, 0, 66, 33
1, 78544, Note_on_c, 0, 51, 19
1, 78544, Note_on_c, 0, 47, 24
1, 78552, Note_on_c, 0, 57, 22
1, 78604, Control_c, 0, 64, 0
1, 78624, Control_c, 0, 64, 127
1, 78720, Note_off_c, 0, 51, 64
1, 78720, Note_off_c, 0, 47, 64
1, 78728, Note_off_c, 0, 57, 64
1, 78908, Note_on_c, 0, 57, 22
1, 78932, Note_on_c, 0, 51, 14
1, 78936, Note_on_c, 0, 47, 15
1, 79092, Note_off_c, 0, 51, 64
1, 79120, Note_off_c, 0, 47, 64
1, 79120, Note_on_c, 0, 71, 44
1, 79136, Note_off_c, 0, 57, 64
1, 79172, Note_off_c, 0, 66, 64
1, 79268, Note_on_c, 0, 68, 44
1, 79284, Note_on_c, 0, 40, 32
1, 79296, Control_c, 0, 64, 0
1, 79304, Note_off_c, 0, 71, 64
1, 79332, Control_c, 0, 64, 127
1, 79524, Note_on_c, 0, 59, 32
1, 79536, Note_off_c, 0, 68, 64
1, 79604, Note_on_c, 0, 56, 33
1, 79616, Note_on_c, 0, 64, 49
1, 79632, Note_off_c, 0, 59, 64
1, 79640, Tempo, 500000
1, 79640, Note_on_c, 0, 52, 20
1, 79816, Note_off_c, 0, 52, 64
1, 79828, Note_off_c, 0, 56, 64
1, 79932, Note_on_c, 0, 68, 49
1, 79944, Note_off_c, 0, 64, 64
1, 79948, Note_on_c, 0, 59, 28
1, 79952, Note_on_c, 0, 52, 22
1, 79956, Note_on_c, 0, 56, 28
1, 80120, Note_off_c, 0, 40, 64
1, 80188, Note_off_c, 0, 52, 64
1, 80272, Note_off_c, 0, 68, 64
1, 80280, Note_on_c, 0, 51, 29
1, 80284, Note_on_c, 0, 71, 46
1, 80300, Control_c, 0, 64, 0
1, 80352, Control_c, 0, 64, 127
1, 80360, Note_off_c, 0, 59, 64
1, 80392, Note_off_c, 0, 56, 64
1, 80516, Note_off_c, 0, 51, 64
1, 80524, Note_off_c, 0, 71, 64
1, 80532, Note_on_c, 0, 73, 29
1, 80612, Note_on_c, 0, 70, 61
1, 80612, Note_on_c, 0, 63, 22
1, 80612, Note_on_c, 0, 55, 32
1, 80616, Note_on_c, 0, 51, 27
1, 80632, Control_c, 0, 64, 0
1, 80644, Note_off_c, 0, 73, 64
1, 80668, Control_c, 0, 64, 127
1, 80840, Note_off_c, 0, 55, 64
1, 80844, Note_off_c, 0, 51, 64
1, 80852, Note_off_c, 0, 63, 64
1, 80924, Note_on_c, 0, 61, 32
1, 80932, Note_on_c, 0, 51, 26
1, 80940, Note_on_c, 0, 55, 22
1, 81068, Note_on_c, 0, 75, 52
1, 81088, Note_off_c, 0, 70, 64
1, 81128, Note_off_c, 0, 55, 64
1, 81144, Note_off_c, 0, 61, 64
1, 81216, Note_off_c, 0, 51, 64
1, 81224, Note_on_c, 0, 44, 36
1, 81256, Note_on_c, 0, 71, 55
1, 81260, Control_c, 0, 64, 0
1, 81264, Note_off_c, 0, 75, 64
1, 81300, Control_c, 0, 64, 127
1, 81384, Note_off_c, 0, 71, 64
1, 81464, Note_on_c, 0, 63, 40
1, 81532, Note_on_c, 0, 56, 19
1, 81544, Note_on_c, 0, 59, 36
1, 81552, Note_on_c, 0, 68, 52
1, 81564, Note_off_c, 0, 63, 64
1, 81564, Control_c, 0, 64, 0
1, 81608, Control_c, 0, 64, 127
1, 81752, Note_off_c, 0, 56, 64
1, 81792, Note_off_c, 0, 59, 64
1, 81812, Note_off_c, 0, 68, 64
1, 81840, Note_on_c, 0, 56, 36
1, 81848, Note_on_c, 0, 71, 57
1, 81848, Note_on_c, 0, 63, 29
1, 81852, Note_on_c, 0, 59, 36
1, 81872, Control_c, 0, 64, 0
1, 81892, Control_c, 0, 64, 127
1, 81988, Note_off_c, 0, 71, 64
1, 82052, Note_off_c, 0, 56, 64
1, 82084, Note_off_c, 0, 59, 64
1, 82088, Note_off_c, 0, 44, 64
1, 82092, Note_off_c, 0, 63, 64
1, 82132, Note_on_c, 0, 75, 63
1, 82372, Note_on_c, 0, 76, 41
1, 82396, Note_off_c, 0, 75, 64
1, 82460, Note_on_c, 0, 59, 28
1, 82468, Note_on_c, 0, 64, 33
1, 82468, Note_on_c, 0, 55, 32
1, 82472, Note_on_c, 0, 73, 44
1, 82508, Note_off_c, 0, 76, 64
1, 82660, Note_off_c, 0, 55, 64
1, 82672, Note_off_c, 0, 59, 64
1, 82696, Note_off_c, 0, 64, 64
1, 82736, Note_on_c, 0, 58, 32
1, 82740, Note_on_c, 0, 54, 32
1, 82760, Note_on_c, 0, 64, 39
1, 82876, Note_on_c, 0, 78, 57
1, 82884, Note_off_c, 0, 73, 64
1, 82928, Note_off_c, 0, 58, 64
1, 82948, Note_off_c, 0, 64, 64
1, 82968, Note_off_c, 0, 54, 64
1, 82988, Control_c, 0, 64, 0
1, 83028, Note_on_c, 0, 75, 54
1, 83040, Note_off_c, 0, 78, 64
1, 83048, Note_on_c, 0, 47, 36
1, 83068, Control_c, 0, 64, 0
1, 83104, Control_c, 0, 64, 127
1, 83132, Control_c, 0, 64, 0
1, 83172, Note_on_c, 0, 71, 52
1, 83244, Note_off_c, 0, 75, 64
1, 83312, Note_on_c, 0, 69, 54
1, 83328, Note_on_c, 0, 69, 54
1, 83328, Note_on_c, 0, 63, 33
1, 83336, Note_on_c, 0, 54, 32
1, 83344, Note_on_c, 0, 57, 29
1, 83348, Note_off_c, 0, 71, 64
1, 83376, Control_c, 0, 64, 0
1, 83396, Control_c, 0, 64, 127
1, 83428, Note_off_c, 0, 69, 64
1, 83480, Note_off_c, 0, 54, 64
1, 83488, Note_off_c, 0, 57, 64
1, 83528, Note_off_c, 0, 63, 64
1, 83636, Note_on_c, 0, 57, 28
1, 83644, Note_on_c, 0, 63, 32
1, 83644, Note_on_c, 0, 54, 23
1, 83752, Note_on_c, 0, 73, 42
1, 83780, Note_off_c, 0, 57, 64
1, 83788, Note_off_c, 0, 63, 64
1, 83812, Note_off_c, 0, 54, 64
1, 83884, Note_off_c, 0, 69, 64
1, 83912, Note_off_c, 0, 47, 64
1, 83912, Note_on_c, 0, 47, 36
1, 83924, Note_on_c, 0, 71, 48
1, 83944, Note_off_c, 0, 73, 64
1, 83948, Control_c, 0, 64, 0
1, 83968, Control_c, 0, 64, 127
1, 84032, Note_on_c, 0, 68, 50
1, 84044, Note_off_c, 0, 47, 64
1, 84056, Note_off_c, 0, 71, 64
1, 84160, Note_on_c, 0, 66, 27
1, 84180, Note_off_c, 0, 68, 64
1, 84180, Note_on_c, 0, 54, 35
1, 84188, Note_on_c, 0, 57, 35
1, 84212, Note_on_c, 0, 63, 36
1, 84300, Note_on_c, 0, 69, 37
1, 84312, Note_off_c, 0, 66, 64
1, 84380, Note_off_c, 0, 54, 64
1, 84384, Note_off_c, 0, 57, 64
1, 84432, Note_off_c, 0, 63, 64
1, 84444, Note_on_c, 0, 75, 44
1, 84452, Note_on_c, 0, 54, 16
1, 84464, Tempo, 500000
1, 84464, Note_off_c, 0, 69, 64
1, 84464, Note_on_c, 0, 57, 32
1, 84464, Note_on_c, 0, 63, 26
1, 84572, Note_off_c, 0, 75, 64
1, 84576, Note_on_c, 0, 71, 49
1, 84720, Note_off_c, 0, 54, 64
1, 84720, Note_off_c, 0, 63, 64
1, 84728, Note_off_c, 0, 57, 64
1, 84728, Note_on_c, 0, 47, 26
1, 84728, Note_on_c, 0, 69, 48
1, 84732, Note_off_c, 0, 71, 64
1, 84864, Note_on_c, 0, 73, 48
1, 84888, Note_off_c, 0, 69, 64
1, 84996, Note_on_c, 0, 63, 33
1, 85000, Note_off_c, 0, 73, 64
1, 85004, Note_on_c, 0, 54, 27
1, 85012, Note_on_c, 0, 57, 28
1, 85016, Note_on_c, 0, 71, 44
1, 85132, Note_on_c, 0, 68, 44
1, 85172, Note_off_c, 0, 71, 64
1, 85180, Note_off_c, 0, 54, 64
1, 85180, Note_off_c, 0, 57, 64
1, 85228, Note_off_c, 0, 63, 64
1, 85264, Note_on_c, 0, 66, 45
1, 85272, Note_on_c, 0, 63, 22
1, 85276, Note_off_c, 0, 68, 64
1, 85308, Note_on_c, 0, 57, 22
1, 85312, Note_on_c, 0, 54, 14
1, 85400, Note_on_c, 0, 69, 39
1, 85412, Note_off_c, 0, 66, 64
1, 85460, Note_off_c, 0, 54, 64
1, 85488, Note_off_c, 0, 63, 64
1, 85496, Note_off_c, 0, 57, 64
1, 85536, Note_on_c, 0, 68, 48
1, 85560, Note_off_c, 0, 69, 64
1, 85568, Control_c, 0, 64, 0
1, 85588, Control_c, 0, 64, 127
1, 85592, Note_off_c, 0, 47, 64
1, 85676, Note_on_c, 0, 69, 42
1, 85696, Note_off_c, 0, 68, 64
1, 85808, Note_on_c, 0, 66, 42
1, 85812, Note_on_c, 0, 51, 28
1, 85816, Note_on_c, 0, 57, 24
1, 85824, Note_on_c, 0, 47, 23
1, 85944, Note_off_c, 0, 69, 64
1, 85976, Note_off_c, 0, 47, 64
1, 86020, Note_off_c, 0, 57, 64
1, 86024, Note_off_c, 0, 51, 64
1, 86092, Note_on_c, 0, 57, 29
1, 86100, Note_on_c, 0, 51, 22
1, 86100, Note_on_c, 0, 47, 29
1, 86248, Note_off_c, 0, 51, 64
1, 86252, Note_on_c, 0, 71, 44
1, 86272, Note_off_c, 0, 57, 64
1, 86284, Note_off_c, 0, 66, 64
1, 86284, Note_off_c, 0, 47, 64
1, 86364, Note_on_c, 0, 68, 44
1, 86372, Note_on_c, 0, 40, 28
1, 86388, Note_off_c, 0, 71, 64
1, 86388, Control_c, 0, 64, 0
1, 86424, Control_c, 0, 64, 127
1, 86580, Note_on_c, 0, 59, 27
1, 86592, Note_off_c, 0, 68, 64
1, 86632, Note_on_c, 0, 52, 28
1, 86640, Note_on_c, 0, 56, 29
1, 86656, Note_on_c, 0, 64, 46
1, 86664, Note_off_c, 0, 59, 64
1, 86816, Note_off_c, 0, 56, 64
1, 86840, Note_off_c, 0, 52, 64
1, 86908, Note_on_c, 0, 68, 49
1, 86916, Note_off_c, 0, 64, 64
1, 86920, Note_on_c, 0, 56, 27
1, 86924, Note_on_c, 0, 52, 20
1, 86952, Note_on_c, 0, 59, 13
1, 87096, Note_off_c, 0, 52, 64
1, 87172, Note_off_c, 0, 68, 64
1, 87184, Note_on_c, 0, 71, 46
1, 87204, Note_on_c, 0, 51, 33
1, 87224, Note_off_c, 0, 40, 64
1, 87300, Note_off_c, 0, 59, 64
1, 87316, Note_off_c, 0, 56, 64
1, 87368, Note_off_c, 0, 51, 64
1, 87376, Note_on_c, 0, 73, 52
1, 87396, Note_off_c, 0, 71, 64
1, 87464, Note_on_c, 0, 70, 57
1, 87472, Note_on_c, 0, 55, 36
1, 87472, Note_on_c, 0, 63, 36
1, 87484, Note_off_c, 0, 73, 64
1, 87488, Note_on_c, 0, 51, 28
1, 87492, Control_c, 0, 64, 0
1, 87528, Control_c, 0, 64, 127
1, 87608, Note_off_c, 0, 55, 64
1, 87616, Note_off_c, 0, 51, 64
1, 87640, Note_off_c, 0, 63, 64
1, 87752, Note_on_c, 0, 61, 36
1, 87760, Note_on_c, 0, 51, 36
1, 87764, Note_on_c, 0, 55, 36
1, 87880, Note_off_c, 0, 55, 64
1, 87896, Note_on_c, 0, 75, 53
1, 87900, Note_off_c, 0, 70, 64
1, 87908, Note_off_c, 0, 61, 64
1, 87928, Note_off_c, 0, 51, 64
1, 88020, Note_on_c, 0, 44, 39
1, 88024, Note_off_c, 0, 75, 64
1, 88040, Note_on_c, 0, 71, 58
1, 88060, Control_c, 0, 64, 0
1, 88080, Control_c, 0, 64, 127
1, 88224, Note_off_c, 0, 71, 64
1, 88224, Note_on_c, 0, 63, 48
1, 88272, Note_on_c, 0, 59, 36
1, 88296, Note_on_c, 0, 68, 57
1, 88296, Note_on_c, 0, 56, 18
1, 88308, Note_off_c, 0, 63, 64
1, 88332, Control_c, 0, 64, 0
1, 88356, Control_c, 0, 64, 127
1, 88448, Note_off_c, 0, 56, 64
1, 88496, Note_off_c, 0, 59, 64
1, 88532, Note_off_c, 0, 68, 64
1, 88560, Note_on_c, 0, 63, 41
1, 88564, Note_on_c, 0, 71, 58
1, 88564, Note_on_c, 0, 59, 36
1, 88576, Note_on_c, 0, 56, 32
1, 88740, Note_off_c, 0, 71, 64
1, 88788, Note_off_c, 0, 59, 64
1, 88796, Note_off_c, 0, 56, 64
1, 88828, Note_off_c, 0, 63, 64
1, 88840, Note_on_c, 0, 75, 63
1, 88864, Note_off_c, 0, 44, 64
1, 89028, Note_on_c, 0, 76, 61
1, 89048, Note_off_c, 0, 75, 64
1, 89108, Note_on_c, 0, 64, 35
1, 89120, Note_on_c, 0, 55, 37
1, 89120, Note_on_c, 0, 73, 75
1, 89128, Note_on_c, 0, 59, 24
1, 89128, Control_c, 0, 64, 0
1, 89144, Note_off_c, 0, 76, 64
1, 89152, Control_c, 0, 64, 127
1, 89288, Note_off_c, 0, 55, 64
1, 89296, Note_off_c, 0, 59, 64
1, 89304, Note_off_c, 0, 64, 64
1, 89364, Note_on_c, 0, 58, 36
1, 89364, Note_on_c, 0, 54, 39
1, 89376, Note_on_c, 0, 64, 37
1, 89500, Note_off_c, 0, 73, 64
1, 89520, Note_off_c, 0, 64, 64
1, 89532, Note_off_c, 0, 54, 64
1, 89536, Note_on_c, 0, 78, 67
1, 89572, Note_off_c, 0, 58, 64
1, 89652, Note_off_c, 0, 78, 64
1, 89660, Note_on_c, 0, 75, 66
1, 89668, Note_on_c, 0, 47, 41
1, 89692, Control_c, 0, 64, 0
1, 89712, Control_c, 0, 64, 127
1, 89796, Note_on_c, 0, 71, 57
1, 89824, Note_off_c, 0, 75, 64
1, 89916, Note_on_c, 0, 69, 66
1, 89932, Note_on_c, 0, 63, 42
1, 89932, Note_on_c, 0, 54, 44
1, 89936, Note_on_c, 0, 57, 24
1, 89948, Control_c, 0, 64, 0
1, 89960, Note_off_c, 0, 71, 64
1, 90016, Control_c, 0, 64, 127
1, 90104, Note_off_c, 0, 63, 64
1, 90112, Note_off_c, 0, 54, 64
1, 90112, Note_off_c, 0, 57, 64
1, 90168, Note_off_c, 0, 69, 64
1, 90168, Note_on_c, 0, 57, 42
1, 90176, Note_on_c, 0, 63, 37
1, 90180, Note_on_c, 0, 54, 32
1, 90304, Note_on_c, 0, 73, 55
1, 90320, Note_off_c, 0, 54, 64
1, 90344, Note_off_c, 0, 57, 64
1, 90360, Note_off_c, 0, 63, 64
1, 90452, Note_on_c, 0, 71, 54
1, 90464, Control_c, 0, 64, 0
1, 90476, Note_off_c, 0, 73, 64
1, 90488, Control_c, 0, 64, 127
1, 90520, Note_off_c, 0, 47, 64
1, 90560, Note_on_c, 0, 68, 55
1, 90600, Note_off_c, 0, 71, 64
1, 90680, Note_on_c, 0, 66, 57
1, 90692, Note_on_c, 0, 47, 26
1, 90696, Note_on_c, 0, 51, 19
1, 90700, Note_on_c, 0, 57, 22
1, 90716, Note_off_c, 0, 68, 64
1, 90840, Note_off_c, 0, 51, 64
1, 90864, Note_off_c, 0, 57, 64
1, 90892, Note_off_c, 0, 47, 64
1, 90936, Note_on_c, 0, 57, 44
1, 90936, Note_on_c, 0, 51, 33
1, 90952, Note_on_c, 0, 47, 24
1, 90968, Note_on_c, 0, 69, 50
1, 90992, Note_off_c, 0, 66, 64
1, 91052, Note_off_c, 0, 51, 64
1, 91056, Note_off_c, 0, 47, 64
1, 91068, Note_off_c, 0, 57, 64
1, 91088, Control_c, 0, 64, 0
1, 91152, Control_c, 0, 64, 127
1, 91248, Note_on_c, 0, 68, 58
1, 91248, Note_on_c, 0, 40, 31
1, 91256, Note_off_c, 0, 69, 64
1, 91264, Control_c, 0, 64, 0
1, 91284, Control_c, 0, 64, 127
1, 91440, Note_on_c, 0, 59, 33
1, 91480, Note_off_c, 0, 68, 64
1, 91520, Note_on_c, 0, 56, 28
1, 91528, Note_off_c, 0, 59, 64
1, 91528, Note_on_c, 0, 64, 39
1, 91532, Note_on_c, 0, 52, 11
1, 91568, Control_c, 0, 64, 0
1, 91588, Control_c, 0, 64, 127
1, 91708, Note_off_c, 0, 40, 64
1, 91732, Note_off_c, 0, 52, 64
1, 91776, Note_off_c, 0, 56, 64
1, 91792, Note_off_c, 0, 64, 64
1, 91792, Note_on_c, 0, 68, 61
1, 92072, Note_on_c, 0, 54, 20
1, 92076, Note_on_c, 0, 64, 22
1, 92080, Note_on_c, 0, 59, 28
1, 92140, Note_off_c, 0, 68, 64
1, 92144, Note_on_c, 0, 70, 15
1, 92148, Note_off_c, 0, 54, 64
1, 92168, Note_off_c, 0, 59, 64
1, 92168, Note_off_c, 0, 64, 64
1, 92188, Note_off_c, 0, 70, 64
1, 92208, Note_on_c, 0, 71, 36
1, 92296, Note_off_c, 0, 71, 64
1, 92300, Note_on_c, 0, 73, 48
1, 92312, Note_on_c, 0, 64, 35
1, 92312, Note_on_c, 0, 59, 33
1, 92316, Note_on_c, 0, 54, 33
1, 92400, Note_off_c, 0, 59, 64
1, 92404, Note_off_c, 0, 64, 64
1, 92408, Note_off_c, 0, 54, 64
1, 92536, Note_off_c, 0, 73, 64
1, 92560, Note_on_c, 0, 75, 26
1, 92568, Note_on_c, 0, 64, 29
1, 92580, Note_on_c, 0, 54, 26
1, 92592, Note_off_c, 0, 75, 64
1, 92596, Note_on_c, 0, 58, 19
1, 92620, Note_on_c, 0, 76, 49
1, 92648, Note_off_c, 0, 64, 64
1, 92656, Note_off_c, 0, 58, 64
1, 92664, Note_off_c, 0, 54, 64
1, 92696, Note_on_c, 0, 78, 61
1, 92720, Note_off_c, 0, 76, 64
1, 92800, Note_on_c, 0, 80, 58
1, 92808, Note_on_c, 0, 61, 37
1, 92816, Note_off_c, 0, 78, 64
1, 92824, Note_on_c, 0, 54, 31
1, 92828, Note_on_c, 0, 64, 36
1, 92888, Note_on_c, 0, 82, 61
1, 92896, Note_off_c, 0, 80, 64
1, 92904, Note_off_c, 0, 61, 64
1, 92908, Note_off_c, 0, 54, 64
1, 92920, Note_off_c, 0, 64, 64
1, 92944, Note_off_c, 0, 82, 64
1, 92964, Note_on_c, 0, 83, 55
1, 93036, Note_on_c, 0, 85, 74
1, 93040, Note_on_c, 0, 54, 50
1, 93048, Note_on_c, 0, 58, 40
1, 93060, Note_on_c, 0, 64, 36
1, 93064, Note_off_c, 0, 83, 64
1, 93128, Note_off_c, 0, 58, 64
1, 93132, Note_off_c, 0, 54, 64
1, 93152, Note_off_c, 0, 64, 64
1, 93264, Note_off_c, 0, 85, 64
1, 93292, Note_on_c, 0, 87, 66
1, 93296, Note_on_c, 0, 54, 57
1, 93312, Note_on_c, 0, 64, 37
1, 93312, Note_on_c, 0, 59, 57
1, 93352, Note_off_c, 0, 54, 64
1, 93356, Note_off_c, 0, 59, 64
1, 93384, Note_off_c, 0, 64, 64
1, 93476, Note_off_c, 0, 87, 64
1, 93548, Note_on_c, 0, 68, 29
1, 93572, Note_on_c, 0, 59, 27
1, 93580, Note_on_c, 0, 54, 19
1, 93588, Note_on_c, 0, 64, 18
1, 93620, Note_on_c, 0, 70, 37
1, 93632, Note_off_c, 0, 68, 64
1, 93648, Note_off_c, 0, 59, 64
1, 93648, Note_off_c, 0, 54, 64
1, 93652, Tempo, 500000
1, 93652, Note_off_c, 0, 64, 64
1, 93692, Note_off_c, 0, 70, 64
1, 93716, Note_on_c, 0, 71, 32
1, 93792, Note_on_c, 0, 73, 50
1, 93808, Note_on_c, 0, 59, 26
1, 93808, Note_on_c, 0, 54, 31
1, 93812, Note_on_c, 0, 64, 31
1, 93828, Note_off_c, 0, 71, 64
1, 93884, Note_off_c, 0, 64, 64
1, 93892, Note_off_c, 0, 59, 64
1, 93896, Note_off_c, 0, 54, 64
1, 93936, Note_off_c, 0, 73, 64
1, 93944, Note_on_c, 0, 75, 35
1, 94016, Note_off_c, 0, 75, 64
1, 94028, Note_on_c, 0, 76, 45
1, 94060, Note_on_c, 0, 58, 36
1, 94072, Note_on_c, 0, 54, 28
1, 94088, Note_on_c, 0, 64, 22
1, 94116, Note_on_c, 0, 78, 59
1, 94128, Note_off_c, 0, 64, 64
1, 94132, Note_off_c, 0, 76, 64
1, 94136, Note_off_c, 0, 58, 64
1, 94140, Note_off_c, 0, 54, 64
1, 94200, Note_on_c, 0, 80, 48
1, 94212, Note_off_c, 0, 78, 64
1, 94268, Note_off_c, 0, 80, 64
1, 94288, Note_on_c, 0, 82, 48
1, 94296, Note_on_c, 0, 54, 62
1, 94312, Note_on_c, 0, 64, 59
1, 94344, Note_off_c, 0, 82, 64
1, 94368, Note_on_c, 0, 83, 22
1, 94380, Note_off_c, 0, 64, 64
1, 94392, Note_off_c, 0, 54, 64
1, 94440, Note_on_c, 0, 85, 66
1, 94476, Note_off_c, 0, 83, 64
1, 94552, Note_off_c, 0, 85, 64
1, 94568, Note_on_c, 0, 87, 74
1, 94568, Control_c, 0, 64, 0
1, 94576, Note_on_c, 0, 59, 50
1, 94580, Note_on_c, 0, 63, 50
1, 94580, Note_on_c, 0, 54, 39
1, 94616, Control_c, 0, 64, 127
1, 94648, Note_off_c, 0, 54, 64
1, 94652, Note_off_c, 0, 59, 64
1, 94652, Note_off_c, 0, 63, 64
1, 94752, Note_off_c, 0, 87, 64
1, 94860, Note_on_c, 0, 59, 44
1, 94864, Note_on_c, 0, 63, 42
1, 94868, Note_on_c, 0, 54, 40
1, 94936, Note_off_c, 0, 63, 64
1, 94936, Note_off_c, 0, 54, 64
1, 94940, Note_off_c, 0, 59, 64
1, 95104, Control_c, 0, 64, 0
1, 95112, Note_on_c, 0, 68, 33
1, 95124, Tempo, 500000
1, 95124, Note_on_c, 0, 64, 28
1, 95124, Note_on_c, 0, 59, 31
1, 95124, Note_on_c, 0, 54, 26
1, 95132, Control_c, 0, 64, 127
1, 95180, Note_on_c, 0, 70, 33
1, 95188, Note_off_c, 0, 59, 64
1, 95192, Note_off_c, 0, 64, 64
1, 95196, Note_off_c, 0, 54, 64
1, 95204, Note_off_c, 0, 68, 64
1, 95244, Note_off_c, 0, 70, 64
1, 95268, Note_on_c, 0, 71, 35
1, 95344, Note_on_c, 0, 73, 52
1, 95348, Note_on_c, 0, 59, 29
1, 95356, Note_on_c, 0, 64, 33
1, 95356, Note_on_c, 0, 54, 33
1, 95372, Note_off_c, 0, 71, 64
1, 95420, Note_off_c, 0, 59, 64
1, 95420, Note_off_c, 0, 64, 64
1, 95424, Note_off_c, 0, 54, 64
1, 95552, Note_off_c, 0, 73, 64
1, 95592, Note_on_c, 0, 58, 29
1, 95604, Note_on_c, 0, 75, 50
1, 95604, Note_on_c, 0, 64, 28
1, 95612, Note_on_c, 0, 54, 26
1, 95644, Note_off_c, 0, 58, 64
1, 95664, Note_off_c, 0, 75, 64
1, 95668, Note_on_c, 0, 76, 36
1, 95684, Note_off_c, 0, 54, 64
1, 95696, Note_off_c, 0, 64, 64
1, 95740, Note_on_c, 0, 78, 58
1, 95780, Note_off_c, 0, 76, 64
1, 95836, Note_on_c, 0, 80, 49
1, 95836, Note_on_c, 0, 64, 40
1, 95840, Note_on_c, 0, 61, 44
1, 95844, Note_on_c, 0, 54, 36
1, 95852, Note_off_c, 0, 78, 64
1, 95904, Note_off_c, 0, 64, 64
1, 95904, Note_on_c, 0, 82, 46
1, 95908, Note_off_c, 0, 61, 64
1, 95916, Note_off_c, 0, 54, 64
1, 95944, Note_off_c, 0, 80, 64
1, 95964, Note_on_c, 0, 83, 58
1, 95976, Note_off_c, 0, 82, 64
1, 96060, Note_off_c, 0, 83, 64
1, 96092, Note_on_c, 0, 85, 74
1, 96092, Note_on_c, 0, 64, 50
1, 96092, Note_on_c, 0, 54, 52
1, 96092, Note_on_c, 0, 58, 18
1, 96164, Note_off_c, 0, 64, 64
1, 96164, Note_off_c, 0, 54, 64
1, 96164, Note_off_c, 0, 58, 64
1, 96312, Note_on_c, 0, 87, 66
1, 96324, Note_on_c, 0, 63, 44
1, 96324, Note_on_c, 0, 59, 50
1, 96332, Note_on_c, 0, 54, 40
1, 96340, Note_off_c, 0, 85, 64
1, 96388, Note_off_c, 0, 54, 64
1, 96396, Note_off_c, 0, 59, 64
1, 96404, Note_off_c, 0, 63, 64
1, 96496, Note_off_c, 0, 87, 64
1, 96580, Note_on_c, 0, 68, 28
1, 96588, Note_on_c, 0, 59, 29
1, 96588, Note_on_c, 0, 54, 28
1, 96596, Note_on_c, 0, 64, 28
1, 96648, Note_on_c, 0, 70, 33
1, 96652, Note_off_c, 0, 54, 64
1, 96660, Note_off_c, 0, 59, 64
1, 96668, Note_off_c, 0, 68, 64
1, 96668, Note_off_c, 0, 64, 64
1, 96712, Note_off_c, 0, 70, 64
1, 96724, Note_on_c, 0, 71, 32
1, 96812, Note_on_c, 0, 73, 48
1, 96820, Note_off_c, 0, 71, 64
1, 96824, Note_on_c, 0, 54, 33
1, 96832, Note_on_c, 0, 64, 28
1, 96836, Note_on_c, 0, 59, 27
1, 96896, Note_off_c, 0, 64, 64
1, 96904, Note_off_c, 0, 59, 64
1, 96928, Note_off_c, 0, 54, 64
1, 96960, Note_on_c, 0, 75, 48
1, 96964, Note_off_c, 0, 73, 64
1, 97020, Note_off_c, 0, 75, 64
1, 97052, Note_on_c, 0, 76, 50
1, 97068, Note_on_c, 0, 58, 37
1, 97076, Note_on_c, 0, 64, 24
1, 97088, Note_on_c, 0, 54, 33
1, 97140, Note_on_c, 0, 78, 52
1, 97148, Note_off_c, 0, 54, 64
1, 97152, Note_off_c, 0, 58, 64
1, 97160, Note_off_c, 0, 64, 64
1, 97172, Note_off_c, 0, 76, 64
1, 97228, Note_on_c, 0, 80, 45
1, 97268, Note_off_c, 0, 78, 64
1, 97316, Note_on_c, 0, 54, 54
1, 97324, Note_on_c, 0, 64, 50
1, 97352, Note_off_c, 0, 80, 64
1, 97352, Note_on_c, 0, 82, 45
1, 97408, Note_on_c, 0, 83, 57
1, 97424, Note_off_c, 0, 82, 64
1, 97424, Note_on_c, 0, 83, 44
1, 97512, Note_on_c, 0, 85, 67
1, 97616, Note_off_c, 0, 64, 64
1, 97636, Note_on_c, 0, 87, 70
1, 97644, Note_on_c, 0, 63, 39
1, 97648, Note_off_c, 0, 54, 64
1, 97656, Note_on_c, 0, 59, 48
1, 97660, Note_off_c, 0, 83, 64
1, 97660, Note_off_c, 0, 83, 64
1, 97664, Note_off_c, 0, 85, 64
1, 97676, Control_c, 0, 64, 0
1, 97692, Control_c, 0, 64, 127
1, 97820, Note_off_c, 0, 87, 64
1, 98068, Note_on_c, 0, 71, 44
1, 98092, Note_off_c, 0, 63, 64
1, 98108, Control_c, 0, 64, 0
1, 98144, Note_off_c, 0, 59, 64
1, 98144, Control_c, 0, 64, 127
1, 98404, Note_on_c, 0, 68, 41
1, 98432, Note_off_c, 0, 71, 64
1, 98600, Note_off_c, 0, 68, 64
1, 98616, Note_on_c, 0, 69, 36
1, 98684, Note_on_c, 0, 66, 50
1, 98684, Note_on_c, 0, 57, 23
1, 98700, Note_on_c, 0, 51, 23
1, 98708, Note_off_c, 0, 69, 64
1, 98712, Note_on_c, 0, 47, 14
1, 98808, Note_off_c, 0, 47, 64
1, 98824, Note_off_c, 0, 51, 64
1, 98828, Note_off_c, 0, 57, 64
1, 98964, Note_on_c, 0, 57, 23
1, 98964, Note_on_c, 0, 47, 23
1, 98972, Note_on_c, 0, 51, 19
1, 99088, Note_off_c, 0, 66, 64
1, 99100, Note_on_c, 0, 71, 44
1, 99108, Note_off_c, 0, 51, 64
1, 99112, Note_off_c, 0, 47, 64
1, 99120, Note_off_c, 0, 57, 64
1, 99208, Note_on_c, 0, 68, 48
1, 99228, Note_off_c, 0, 71, 64
1, 99228, Note_on_c, 0, 40, 28
1, 99412, Note_off_c, 0, 68, 64
1, 99412, Note_on_c, 0, 59, 31
1, 99468, Note_on_c, 0, 56, 36
1, 99476, Note_on_c, 0, 52, 31
1, 99488, Note_on_c, 0, 64, 50
1, 99500, Note_off_c, 0, 59, 64
1, 99516, Control_c, 0, 64, 0
1, 99536, Control_c, 0, 64, 127
1, 99588, Note_off_c, 0, 52, 64
1, 99596, Note_off_c, 0, 56, 64
1, 99720, Note_off_c, 0, 64, 64
1, 99728, Note_on_c, 0, 56, 27
1, 99736, Note_on_c, 0, 68, 50
1, 99736, Note_on_c, 0, 52, 27
1, 99752, Control_c, 0, 64, 0
1, 99760, Note_on_c, 0, 59, 26
1, 99788, Control_c, 0, 64, 127
1, 99892, Note_off_c, 0, 52, 64
1, 99980, Note_off_c, 0, 68, 64
1, 99988, Note_on_c, 0, 51, 32
1, 100004, Note_on_c, 0, 71, 42
1, 100068, Note_off_c, 0, 40, 64
1, 100072, Note_off_c, 0, 59, 64
1, 100112, Note_off_c, 0, 56, 64
1, 100124, Note_off_c, 0, 51, 64
1, 100172, Note_off_c, 0, 71, 64
1, 100176, Note_on_c, 0, 73, 49
1, 100256, Note_on_c, 0, 63, 35
1, 100268, Note_on_c, 0, 70, 61
1, 100268, Note_on_c, 0, 55, 28
1, 100276, Note_on_c, 0, 51, 28
1, 100284, Control_c, 0, 64, 0
1, 100296, Note_off_c, 0, 73, 64
1, 100308, Control_c, 0, 64, 127
1, 100384, Note_off_c, 0, 55, 64
1, 100392, Note_off_c, 0, 63, 64
1, 100396, Note_off_c, 0, 51, 64
1, 100524, Note_on_c, 0, 61, 35
1, 100524, Note_on_c, 0, 51, 39
1, 100532, Note_on_c, 0, 55, 36
1, 100616, Note_off_c, 0, 70, 64
1, 100632, Note_on_c, 0, 75, 52
1, 100648, Note_off_c, 0, 61, 64
1, 100660, Note_off_c, 0, 55, 64
1, 100692, Note_off_c, 0, 51, 64
1, 100752, Note_off_c, 0, 75, 64
1, 100776, Note_on_c, 0, 44, 40
1, 100780, Note_on_c, 0, 71, 55
1, 100804, Control_c, 0, 64, 0
1, 100840, Control_c, 0, 64, 127
1, 100888, Note_off_c, 0, 71, 64
1, 100960, Note_on_c, 0, 63, 40
1, 101024, Note_on_c, 0, 56, 24
1, 101028, Note_on_c, 0, 68, 63
1, 101036, Note_on_c, 0, 59, 14
1, 101044, Note_off_c, 0, 63, 64
1, 101124, Note_off_c, 0, 56, 64
1, 101144, Note_off_c, 0, 59, 64
1, 101224, Note_off_c, 0, 68, 64
1, 101276, Note_on_c, 0, 59, 36
1, 101284, Note_on_c, 0, 71, 53
1, 101292, Note_on_c, 0, 56, 41
1, 101296, Note_on_c, 0, 63, 41
1, 101464, Note_off_c, 0, 71, 64
1, 101500, Note_off_c, 0, 56, 64
1, 101524, Note_off_c, 0, 59, 64
1, 101532, Control_c, 0, 64, 0
1, 101540, Note_on_c, 0, 75, 59
1, 101548, Note_off_c, 0, 63, 64
1, 101556, Control_c, 0, 64, 127
1, 101632, Note_off_c, 0, 44, 64
1, 101680, Note_off_c, 0, 75, 64
1, 101732, Note_on_c, 0, 76, 46
1, 101788, Note_on_c, 0, 59, 29
1, 101788, Note_on_c, 0, 55, 29
1, 101796, Note_on_c, 0, 64, 29
1, 101804, Note_on_c, 0, 73, 74
1, 101816, Control_c, 0, 64, 0
1, 101836, Note_off_c, 0, 76, 64
1, 101872, Control_c, 0, 64, 127
1, 101884, Note_off_c, 0, 59, 64
1, 101892, Note_off_c, 0, 55, 64
1, 101924, Note_off_c, 0, 64, 64
1, 102092, Note_on_c, 0, 64, 36
1, 102096, Note_on_c, 0, 54, 39
1, 102108, Note_on_c, 0, 58, 33
1, 102212, Note_off_c, 0, 64, 64
1, 102220, Note_off_c, 0, 58, 64
1, 102248, Note_off_c, 0, 54, 64
1, 102252, Note_off_c, 0, 73, 64
1, 102256, Note_on_c, 0, 78, 57
1, 102408, Note_on_c, 0, 75, 62
1, 102416, Note_off_c, 0, 78, 64
1, 102416, Note_on_c, 0, 47, 29
1, 102428, Control_c, 0, 64, 0
1, 102448, Control_c, 0, 64, 127
1, 102556, Note_on_c, 0, 71, 55
1, 102592, Note_off_c, 0, 75, 64
1, 102676, Note_on_c, 0, 69, 57
1, 102688, Note_on_c, 0, 63, 36
1, 102688, Note_on_c, 0, 57, 39
1, 102696, Note_on_c, 0, 54, 22
1, 102704, Control_c, 0, 64, 0
1, 102716, Note_off_c, 0, 71, 64
1, 102732, Control_c, 0, 64, 127
1, 102796, Note_off_c, 0, 54, 64
1, 102800, Note_off_c, 0, 57, 64
1, 102808, Note_off_c, 0, 63, 64
1, 102880, Note_off_c, 0, 47, 64
1, 102940, Note_off_c, 0, 69, 64
1, 102940, Note_on_c, 0, 73, 50
1, 102952, Note_on_c, 0, 63, 29
1, 102964, Note_on_c, 0, 57, 24
1, 102968, Note_on_c, 0, 54, 29
1, 103044, Note_off_c, 0, 63, 64
1, 103060, Note_off_c, 0, 57, 64
1, 103096, Note_off_c, 0, 54, 64
1, 103208, Control_c, 0, 64, 0
1, 103216, Note_on_c, 0, 47, 36
1, 103228, Note_on_c, 0, 71, 50
1, 103248, Control_c, 0, 64, 127
1, 103252, Note_off_c, 0, 73, 64
1, 103332, Note_on_c, 0, 68, 52
1, 103344, Note_off_c, 0, 71, 64
1, 103436, Note_on_c, 0, 54, 31
1, 103440, Note_off_c, 0, 68, 64
1, 103444, Note_on_c, 0, 66, 61
1, 103452, Note_on_c, 0, 57, 31
1, 103460, Note_on_c, 0, 63, 40
1, 103560, Note_on_c, 0, 69, 53
1, 103580, Note_off_c, 0, 66, 64
1, 103584, Note_off_c, 0, 54, 64
1, 103596, Note_off_c, 0, 57, 64
1, 103640, Note_off_c, 0, 63, 64
1, 103676, Note_on_c, 0, 75, 55
1, 103680, Note_off_c, 0, 47, 64
1, 103680, Note_on_c, 0, 63, 23
1, 103680, Note_on_c, 0, 54, 18
1, 103692, Note_on_c, 0, 57, 44
1, 103708, Note_on_c, 0, 66, 23
1, 103716, Note_off_c, 0, 69, 64
1, 103788, Note_off_c, 0, 75, 64
1, 103796, Note_off_c, 0, 66, 64
1, 103800, Note_on_c, 0, 71, 50
1, 103848, Note_off_c, 0, 63, 64
1, 103872, Note_off_c, 0, 57, 64
1, 103884, Note_off_c, 0, 54, 64
1, 103912, Note_off_c, 0, 71, 64
1, 103920, Note_on_c, 0, 47, 28
1, 103920, Note_on_c, 0, 69, 49
1, 103940, Control_c, 0, 64, 0
1, 103964, Control_c, 0, 64, 127
1, 104040, Note_off_c, 0, 69, 64
1, 104044, Note_on_c, 0, 73, 48
1, 104148, Note_on_c, 0, 71, 50
1, 104156, Note_off_c, 0, 73, 64
1, 104156, Note_on_c, 0, 57, 24
1, 104172, Note_on_c, 0, 63, 29
1, 104176, Note_on_c, 0, 54, 13
1, 104264, Note_on_c, 0, 68, 28
1, 104272, Note_off_c, 0, 71, 64
1, 104292, Note_off_c, 0, 54, 64
1, 104300, Note_off_c, 0, 57, 64
1, 104308, Note_off_c, 0, 63, 64
1, 104356, Note_off_c, 0, 68, 64
1, 104376, Note_on_c, 0, 66, 41
1, 104376, Note_on_c, 0, 63, 19
1, 104396, Note_off_c, 0, 47, 64
1, 104396, Note_on_c, 0, 57, 24
1, 104404, Note_on_c, 0, 54, 19
1, 104468, Note_off_c, 0, 66, 64
1, 104492, Note_on_c, 0, 69, 40
1, 104500, Note_off_c, 0, 63, 64
1, 104532, Note_off_c, 0, 57, 64
1, 104552, Note_off_c, 0, 54, 64
1, 104600, Note_on_c, 0, 68, 45
1, 104616, Control_c, 0, 64, 0
1, 104652, Note_off_c, 0, 69, 64
1, 104672, Control_c, 0, 64, 127
1, 104752, Note_on_c, 0, 69, 41
1, 104764, Note_off_c, 0, 68, 64
1, 104852, Note_on_c, 0, 51, 23
1, 104860, Note_on_c, 0, 47, 27
1, 104868, Note_on_c, 0, 57, 22
1, 104884, Note_on_c, 0, 66, 40
1, 104904, Note_off_c, 0, 69, 64
1, 104988, Note_off_c, 0, 47, 64
1, 105000, Note_off_c, 0, 57, 64
1, 105004, Note_off_c, 0, 51, 64
1, 105144, Note_on_c, 0, 57, 26
1, 105148, Note_on_c, 0, 47, 28
1, 105152, Note_on_c, 0, 51, 28
1, 105260, Note_off_c, 0, 66, 64
1, 105268, Note_on_c, 0, 71, 44
1, 105312, Note_off_c, 0, 57, 64
1, 105320, Note_off_c, 0, 51, 64
1, 105324, Note_off_c, 0, 47, 64
1, 105340, Control_c, 0, 64, 0
1, 105408, Control_c, 0, 64, 127
1, 105416, Note_on_c, 0, 68, 48
1, 105420, Note_on_c, 0, 40, 31
1, 105428, Note_off_c, 0, 71, 64
1, 105440, Control_c, 0, 64, 0
1, 105496, Control_c, 0, 64, 127
1, 105612, Note_on_c, 0, 59, 33
1, 105624, Note_off_c, 0, 68, 64
1, 105684, Note_on_c, 0, 52, 35
1, 105692, Note_on_c, 0, 56, 37
1, 105696, Note_on_c, 0, 64, 42
1, 105704, Note_off_c, 0, 59, 64
1, 105716, Control_c, 0, 64, 0
1, 105736, Control_c, 0, 64, 127
1, 105844, Note_off_c, 0, 52, 64
1, 105860, Note_off_c, 0, 56, 64
1, 105908, Note_on_c, 0, 59, 15
1, 105928, Note_on_c, 0, 56, 28
1, 105936, Note_off_c, 0, 64, 64
1, 105944, Note_on_c, 0, 68, 48
1, 105944, Note_on_c, 0, 52, 24
1, 106168, Note_off_c, 0, 52, 64
1, 106184, Note_off_c, 0, 68, 64
1, 106188, Note_on_c, 0, 71, 48
1, 106200, Note_on_c, 0, 51, 35
1, 106212, Control_c, 0, 64, 0
1, 106268, Control_c, 0, 64, 127
1, 106288, Note_off_c, 0, 40, 64
1, 106292, Note_off_c, 0, 59, 64
1, 106308, Note_off_c, 0, 56, 64
1, 106344, Note_off_c, 0, 71, 64
1, 106344, Note_off_c, 0, 51, 64
1, 106352, Note_on_c, 0, 73, 48
1, 106440, Note_on_c, 0, 70, 52
1, 106452, Note_off_c, 0, 73, 64
1, 106452, Note_on_c, 0, 63, 41
1, 106456, Note_on_c, 0, 55, 32
1, 106464, Note_on_c, 0, 51, 32
1, 106476, Control_c, 0, 64, 0
1, 106492, Control_c, 0, 64, 127
1, 106584, Note_off_c, 0, 55, 64
1, 106628, Note_off_c, 0, 51, 64
1, 106640, Note_off_c, 0, 63, 64
1, 106716, Note_on_c, 0, 61, 36
1, 106732, Note_on_c, 0, 55, 37
1, 106732, Note_on_c, 0, 51, 36
1, 106828, Note_off_c, 0, 61, 64
1, 106828, Note_off_c, 0, 55, 64
1, 106860, Note_off_c, 0, 51, 64
1, 106872, Note_on_c, 0, 75, 50
1, 106880, Note_off_c, 0, 70, 64
1, 107004, Control_c, 0, 64, 0
1, 107048, Note_on_c, 0, 44, 39
1, 107052, Note_off_c, 0, 75, 64
1, 107060, Control_c, 0, 64, 0
1, 107072, Note_on_c, 0, 71, 55
1, 107072, Control_c, 0, 64, 127
1, 107116, Control_c, 0, 64, 127
1, 107188, Note_off_c, 0, 71, 64
1, 107276, Note_on_c, 0, 63, 50
1, 107340, Note_on_c, 0, 59, 20
1, 107360, Note_on_c, 0, 68, 54
1, 107364, Note_off_c, 0, 63, 64
1, 107364, Note_on_c, 0, 56, 33
1, 107492, Note_off_c, 0, 59, 64
1, 107508, Note_off_c, 0, 56, 64
1, 107540, Note_off_c, 0, 68, 64
1, 107600, Note_on_c, 0, 59, 40
1, 107604, Note_on_c, 0, 71, 55
1, 107612, Note_on_c, 0, 63, 18
1, 107620, Note_on_c, 0, 56, 22
1, 107628, Control_c, 0, 64, 0
1, 107664, Control_c, 0, 64, 127
1, 107764, Note_off_c, 0, 71, 64
1, 107792, Note_off_c, 0, 63, 64
1, 107808, Note_off_c, 0, 59, 64
1, 107816, Note_off_c, 0, 56, 64
1, 107840, Note_on_c, 0, 75, 58
1, 107924, Note_off_c, 0, 44, 64
1, 107964, Note_off_c, 0, 75, 64
1, 108032, Note_on_c, 0, 76, 49
1, 108084, Note_on_c, 0, 55, 36
1, 108096, Note_on_c, 0, 64, 32
1, 108104, Note_on_c, 0, 73, 67
1, 108112, Note_on_c, 0, 59, 35
1, 108148, Note_off_c, 0, 76, 64
1, 108212, Note_off_c, 0, 55, 64
1, 108236, Note_off_c, 0, 59, 64
1, 108244, Note_off_c, 0, 64, 64
1, 108364, Note_on_c, 0, 58, 40
1, 108364, Note_on_c, 0, 54, 39
1, 108376, Note_on_c, 0, 64, 36
1, 108480, Note_off_c, 0, 58, 64
1, 108492, Note_off_c, 0, 64, 64
1, 108508, Note_off_c, 0, 73, 64
1, 108508, Note_off_c, 0, 54, 64
1, 108508, Note_on_c, 0, 78, 58
1, 108652, Note_on_c, 0, 75, 66
1, 108664, Note_off_c, 0, 78, 64
1, 108664, Note_on_c, 0, 47, 28
1, 108668, Control_c, 0, 64, 0
1, 108692, Control_c, 0, 64, 127
1, 108776, Note_on_c, 0, 71, 62
1, 108788, Note_off_c, 0, 75, 64
1, 108892, Note_on_c, 0, 69, 57
1, 108896, Note_off_c, 0, 71, 64
1, 108912, Note_on_c, 0, 54, 36
1, 108920, Note_on_c, 0, 63, 36
1, 108924, Note_on_c, 0, 57, 36
1, 108936, Control_c, 0, 64, 0
1, 108960, Control_c, 0, 64, 127
1, 109060, Note_off_c, 0, 57, 64
1, 109076, Note_off_c, 0, 63, 64
1, 109080, Note_off_c, 0, 54, 64
1, 109160, Note_on_c, 0, 63, 32
1, 109184, Note_on_c, 0, 57, 32
1, 109184, Note_on_c, 0, 54, 44
1, 109272, Note_on_c, 0, 73, 44
1, 109276, Note_off_c, 0, 63, 64
1, 109296, Note_off_c, 0, 57, 64
1, 109312, Note_off_c, 0, 69, 64
1, 109316, Note_off_c, 0, 54, 64
1, 109392, Note_off_c, 0, 73, 64
1, 109424, Note_on_c, 0, 71, 48
1, 109496, Note_off_c, 0, 47, 64
1, 109524, Note_off_c, 0, 71, 64
1, 109524, Note_on_c, 0, 68, 52
1, 109664, Note_off_c, 0, 68, 64
1, 109668, Note_on_c, 0, 51, 29
1, 109672, Note_on_c, 0, 66, 53
1, 109684, Note_on_c, 0, 47, 24
1, 109692, Note_on_c, 0, 57, 24
1, 109792, Note_off_c, 0, 47, 64
1, 109804, Note_off_c, 0, 51, 64
1, 109820, Note_off_c, 0, 57, 64
1, 109888, Note_on_c, 0, 47, 42
1, 109908, Note_off_c, 0, 66, 64
1, 109924, Note_on_c, 0, 51, 32
1, 109928, Note_on_c, 0, 57, 28
1, 110020, Note_off_c, 0, 47, 64
1, 110028, Note_off_c, 0, 57, 64
1, 110032, Note_on_c, 0, 69, 33
1, 110064, Note_off_c, 0, 51, 64
1, 110156, Note_on_c, 0, 68, 50
1, 110164, Note_off_c, 0, 69, 64
1, 110184, Note_on_c, 0, 40, 32
1, 110300, Note_on_c, 0, 59, 42
1, 110336, Note_off_c, 0, 68, 64
1, 110420, Note_off_c, 0, 59, 64
1, 110428, Note_on_c, 0, 64, 46
1, 110456, Note_on_c, 0, 56, 28
1, 110460, Note_on_c, 0, 52, 18
1, 110476, Control_c, 0, 64, 0
1, 110556, Control_c, 0, 64, 127
1, 110656, Note_off_c, 0, 40, 64
1, 110716, Note_on_c, 0, 68, 61
1, 110720, Note_off_c, 0, 52, 64
1, 110720, Note_off_c, 0, 64, 64
1, 110744, Note_off_c, 0, 56, 64
1, 110956, Note_on_c, 0, 54, 23
1, 110976, Note_on_c, 0, 59, 28
1, 111000, Note_on_c, 0, 64, 14
1, 111028, Note_on_c, 0, 70, 16
1, 111036, Note_off_c, 0, 68, 64
1, 111072, Note_off_c, 0, 54, 64
1, 111072, Note_off_c, 0, 59, 64
1, 111076, Note_off_c, 0, 64, 64
1, 111084, Note_off_c, 0, 70, 64
1, 111108, Note_on_c, 0, 71, 32
1, 111196, Note_off_c, 0, 71, 64
1, 111196, Note_on_c, 0, 73, 45
1, 111204, Note_on_c, 0, 54, 36
1, 111216, Note_on_c, 0, 64, 29
1, 111232, Note_on_c, 0, 59, 27
1, 111300, Note_off_c, 0, 64, 64
1, 111304, Note_off_c, 0, 54, 64
1, 111304, Note_off_c, 0, 59, 64
1, 111412, Note_off_c, 0, 73, 64
1, 111428, Note_on_c, 0, 75, 36
1, 111436, Note_on_c, 0, 54, 39
1, 111452, Note_on_c, 0, 58, 37
1, 111456, Note_on_c, 0, 64, 20
1, 111480, Note_off_c, 0, 75, 64
1, 111508, Note_on_c, 0, 76, 45
1, 111528, Note_off_c, 0, 64, 64
1, 111540, Note_off_c, 0, 58, 64
1, 111544, Note_off_c, 0, 54, 64
1, 111580, Note_on_c, 0, 78, 54
1, 111608, Note_off_c, 0, 76, 64
1, 111676, Note_on_c, 0, 80, 55
1, 111696, Note_on_c, 0, 54, 41
1, 111700, Note_off_c, 0, 78, 64
1, 111708, Note_on_c, 0, 64, 44
1, 111708, Note_on_c, 0, 61, 45
1, 111764, Note_off_c, 0, 61, 64
1, 111772, Note_on_c, 0, 82, 24
1, 111776, Note_off_c, 0, 64, 64
1, 111788, Note_off_c, 0, 80, 64
1, 111788, Note_off_c, 0, 54, 64
1, 111820, Note_off_c, 0, 82, 64
1, 111836, Note_on_c, 0, 83, 58
1, 111916, Note_on_c, 0, 85, 74
1, 111916, Note_on_c, 0, 58, 44
1, 111924, Note_on_c, 0, 64, 37
1, 111940, Note_on_c, 0, 54, 29
1, 111948, Note_off_c, 0, 83, 64
1, 111996, Note_off_c, 0, 64, 64
1, 112008, Note_off_c, 0, 58, 64
1, 112008, Note_off_c, 0, 54, 64
1, 112152, Note_on_c, 0, 87, 68
1, 112164, Note_off_c, 0, 85, 64
1, 112172, Note_on_c, 0, 63, 53
1, 112176, Note_on_c, 0, 54, 52
1, 112184, Note_on_c, 0, 59, 57
1, 112236, Note_off_c, 0, 54, 64
1, 112244, Note_off_c, 0, 59, 64
1, 112248, Note_off_c, 0, 63, 64
1, 112336, Note_off_c, 0, 87, 64
1, 112384, Note_on_c, 0, 68, 26
1, 112416, Note_on_c, 0, 54, 28
1, 112424, Note_on_c, 0, 64, 22
1, 112428, Note_on_c, 0, 59, 23
1, 112468, Note_on_c, 0, 70, 29
1, 112476, Note_off_c, 0, 59, 64
1, 112484, Note_off_c, 0, 68, 64
1, 112488, Note_off_c, 0, 64, 64
1, 112492, Note_off_c, 0, 54, 64
1, 112528, Note_off_c, 0, 70, 64
1, 112560, Note_on_c, 0, 71, 32
1, 112632, Note_on_c, 0, 73, 48
1, 112644, Note_on_c, 0, 64, 36
1, 112648, Note_on_c, 0, 54, 36
1, 112660, Note_off_c, 0, 71, 64
1, 112660, Note_on_c, 0, 59, 35
1, 112708, Note_off_c, 0, 59, 64
1, 112716, Note_off_c, 0, 54, 64
1, 112728, Note_off_c, 0, 64, 64
1, 112780, Note_off_c, 0, 73, 64
1, 112788, Note_on_c, 0, 75, 29
1, 112836, Note_off_c, 0, 75, 64
1, 112864, Note_on_c, 0, 58, 35
1, 112876, Note_on_c, 0, 76, 41
1, 112880, Note_on_c, 0, 54, 27
1, 112892, Note_on_c, 0, 64, 31
1, 112928, Note_off_c, 0, 54, 64
1, 112936, Note_on_c, 0, 78, 52
1, 112940, Note_off_c, 0, 58, 64
1, 112940, Note_off_c, 0, 64, 64
1, 112964, Note_off_c, 0, 76, 64
1, 113008, Note_on_c, 0, 80, 48
1, 113036, Note_off_c, 0, 78, 64
1, 113100, Note_on_c, 0, 82, 35
1, 113120, Note_off_c, 0, 80, 64
1, 113120, Note_on_c, 0, 54, 62
1, 113132, Note_on_c, 0, 64, 44
1, 113148, Note_off_c, 0, 82, 64
1, 113176, Note_on_c, 0, 83, 52
1, 113196, Note_off_c, 0, 64, 64
1, 113212, Note_off_c, 0, 54, 64
1, 113260, Note_on_c, 0, 85, 52
1, 113280, Note_off_c, 0, 83, 64
1, 113336, Note_on_c, 0, 59, 53
1, 113340, Note_on_c, 0, 63, 61
1, 113352, Note_on_c, 0, 87, 72
1, 113352, Note_on_c, 0, 54, 50
1, 113368, Note_off_c, 0, 85, 64
1, 113380, Note_off_c, 0, 54, 64
1, 113396, Note_off_c, 0, 59, 64
1, 113396, Note_off_c, 0, 63, 64
1, 113536, Note_off_c, 0, 87, 64
1, 113604, Note_on_c, 0, 59, 53
1, 113612, Note_on_c, 0, 63, 57
1, 113624, Note_on_c, 0, 54, 46
1, 113668, Note_off_c, 0, 54, 64
1, 113692, Note_off_c, 0, 59, 64
1, 113700, Note_off_c, 0, 63, 64
1, 113852, Control_c, 0, 64, 0
1, 113860, Note_on_c, 0, 68, 37
1, 113864, Note_on_c, 0, 54, 29
1, 113872, Note_on_c, 0, 64, 26
1, 113872, Note_on_c, 0, 59, 23
1, 113892, Control_c, 0, 64, 127
1, 113928, Note_on_c, 0, 70, 39
1, 113936, Note_off_c, 0, 59, 64
1, 113940, Note_off_c, 0, 54, 64
1, 113944, Note_off_c, 0, 64, 64
1, 113964, Note_off_c, 0, 68, 64
1, 114004, Note_off_c, 0, 70, 64
1, 114020, Note_on_c, 0, 71, 36
1, 114084, Note_on_c, 0, 54, 33
1, 114096, Note_on_c, 0, 73, 52
1, 114096, Note_on_c, 0, 64, 28
1, 114096, Note_on_c, 0, 59, 29
1, 114120, Note_off_c, 0, 71, 64
1, 114160, Note_off_c, 0, 64, 64
1, 114164, Note_off_c, 0, 59, 64
1, 114168, Note_off_c, 0, 54, 64
1, 114308, Note_off_c, 0, 73, 64
1, 114316, Note_on_c, 0, 75, 48
1, 114336, Note_on_c, 0, 58, 44
1, 114340, Note_on_c, 0, 64, 41
1, 114364, Note_on_c, 0, 54, 26
1, 114388, Note_off_c, 0, 75, 64
1, 114396, Note_off_c, 0, 54, 64
1, 114408, Note_on_c, 0, 76, 48
1, 114416, Note_off_c, 0, 64, 64
1, 114420, Note_off_c, 0, 58, 64
1, 114484, Note_on_c, 0, 78, 57
1, 114508, Note_off_c, 0, 76, 64
1, 114556, Note_on_c, 0, 80, 24
1, 114560, Note_on_c, 0, 61, 48
1, 114560, Note_on_c, 0, 54, 45
1, 114568, Note_on_c, 0, 64, 50
1, 114580, Note_off_c, 0, 78, 64
1, 114608, Note_on_c, 0, 82, 52
1, 114620, Note_off_c, 0, 54, 64
1, 114624, Note_off_c, 0, 61, 64
1, 114632, Note_off_c, 0, 64, 64
1, 114652, Note_off_c, 0, 80, 64
1, 114696, Note_off_c, 0, 82, 64
1, 114712, Note_on_c, 0, 83, 57
1, 114788, Note_on_c, 0, 64, 52
1, 114792, Note_on_c, 0, 85, 74
1, 114792, Note_on_c, 0, 54, 50
1, 114800, Note_on_c, 0, 58, 36
1, 114820, Note_off_c, 0, 83, 64
1, 114864, Note_off_c, 0, 54, 64
1, 114864, Note_off_c, 0, 58, 64
1, 114868, Note_off_c, 0, 64, 64
1, 115040, Note_on_c, 0, 87, 70
1, 115048, Note_off_c, 0, 85, 64
1, 115052, Note_on_c, 0, 59, 52
1, 115056, Note_on_c, 0, 63, 50
1, 115072, Note_on_c, 0, 54, 33
1, 115104, Note_off_c, 0, 54, 64
1, 115124, Note_off_c, 0, 59, 64
1, 115136, Note_off_c, 0, 63, 64
1, 115224, Note_off_c, 0, 87, 64
1, 115292, Note_on_c, 0, 68, 36
1, 115296, Note_on_c, 0, 64, 29
1, 115304, Note_on_c, 0, 54, 28
1, 115316, Note_on_c, 0, 59, 37
1, 115364, Note_off_c, 0, 64, 64
1, 115376, Note_off_c, 0, 54, 64
1, 115380, Note_off_c, 0, 59, 64
1, 115380, Note_on_c, 0, 70, 39
1, 115400, Note_off_c, 0, 68, 64
1, 115440, Note_off_c, 0, 70, 64
1, 115464, Note_on_c, 0, 71, 39
1, 115536, Note_on_c, 0, 54, 42
1, 115540, Note_on_c, 0, 73, 54
1, 115544, Note_on_c, 0, 59, 36
1, 115552, Note_on_c, 0, 64, 31
1, 115564, Note_off_c, 0, 71, 64
1, 115600, Note_off_c, 0, 59, 64
1, 115604, Note_off_c, 0, 54, 64
1, 115608, Note_off_c, 0, 64, 64
1, 115680, Note_on_c, 0, 75, 48
1, 115700, Note_off_c, 0, 73, 64
1, 115756, Note_off_c, 0, 75, 64
1, 115768, Note_on_c, 0, 64, 50
1, 115776, Note_on_c, 0, 76, 48
1, 115780, Note_on_c, 0, 54, 44
1, 115792, Note_on_c, 0, 58, 57
1, 115840, Note_off_c, 0, 64, 64
1, 115848, Note_off_c, 0, 54, 64
1, 115848, Note_off_c, 0, 58, 64
1, 115856, Note_on_c, 0, 78, 59
1, 115892, Note_off_c, 0, 76, 64
1, 115936, Note_on_c, 0, 80, 44
1, 115976, Note_off_c, 0, 78, 64
1, 116024, Note_on_c, 0, 54, 70
1, 116032, Note_on_c, 0, 64, 71
1, 116036, Note_on_c, 0, 82, 62
1, 116060, Note_off_c, 0, 80, 64
1, 116104, Note_off_c, 0, 82, 64
1, 116128, Note_on_c, 0, 83, 65
1, 116236, Note_on_c, 0, 85, 57
1, 116260, Note_off_c, 0, 83, 64
1, 116324, Note_on_c, 0, 59, 54
1, 116332, Note_off_c, 0, 54, 64
1, 116340, Note_off_c, 0, 64, 64
1, 116348, Note_on_c, 0, 63, 36
1, 116356, Note_on_c, 0, 87, 79
1, 116372, Control_c, 0, 64, 0
1, 116380, Note_off_c, 0, 85, 64
1, 116408, Control_c, 0, 64, 127
1, 116540, Note_off_c, 0, 87, 64
1, 116804, Note_on_c, 0, 71, 36
1, 116844, Control_c, 0, 64, 0
1, 116880, Note_off_c, 0, 63, 64
1, 116900, Control_c, 0, 64, 127
1, 116908, Note_off_c, 0, 59, 64
1, 117124, Note_on_c, 0, 68, 32
1, 117156, Note_off_c, 0, 71, 64
1, 117372, Note_off_c, 0, 68, 64
1, 117388, Note_on_c, 0, 69, 32
1, 117452, Note_on_c, 0, 51, 15
1, 117452, Note_on_c, 0, 47, 16
1, 117460, Note_on_c, 0, 66, 35
1, 117460, Note_on_c, 0, 57, 18
1, 117484, Note_off_c, 0, 69, 64
1, 117492, Control_c, 0, 64, 0
1, 117524, Control_c, 0, 64, 127
1, 117576, Note_off_c, 0, 47, 64
1, 117580, Note_off_c, 0, 51, 64
1, 117588, Note_off_c, 0, 57, 64
1, 117740, Note_on_c, 0, 51, 23
1, 117744, Note_on_c, 0, 47, 23
1, 117748, Note_on_c, 0, 57, 20
1, 117876, Note_off_c, 0, 51, 64
1, 117884, Note_off_c, 0, 57, 64
1, 117892, Note_off_c, 0, 66, 64
1, 117900, Note_on_c, 0, 71, 36
1, 117912, Note_off_c, 0, 47, 64
1, 118092, Note_on_c, 0, 68, 41
1, 118092, Note_on_c, 0, 40, 32
1, 118112, Note_off_c, 0, 71, 64
1, 118124, Control_c, 0, 64, 0
1, 118156, Control_c, 0, 64, 127
1, 118352, Note_on_c, 0, 59, 28
1, 118360, Note_off_c, 0, 68, 64
1, 118412, Note_on_c, 0, 52, 18
1, 118416, Note_on_c, 0, 56, 23
1, 118424, Note_on_c, 0, 64, 40
1, 118440, Note_off_c, 0, 59, 64
1, 118552, Note_off_c, 0, 52, 64
1, 118576, Note_off_c, 0, 56, 64
1, 118656, Note_on_c, 0, 56, 15
1, 118656, Note_on_c, 0, 59, 23
1, 118668, Note_off_c, 0, 64, 64
1, 118672, Note_on_c, 0, 52, 22
1, 118684, Note_on_c, 0, 68, 39
1, 118824, Note_off_c, 0, 52, 64
1, 118928, Note_off_c, 0, 68, 64
1, 118940, Note_on_c, 0, 51, 26
1, 118944, Note_on_c, 0, 71, 37
1, 118980, Note_off_c, 0, 40, 64
1, 119040, Note_off_c, 0, 59, 64
1, 119060, Note_off_c, 0, 56, 64
1, 119068, Note_off_c, 0, 51, 64
1, 119132, Note_off_c, 0, 71, 64
1, 119132, Note_on_c, 0, 73, 37
1, 119204, Note_on_c, 0, 63, 33
1, 119216, Note_on_c, 0, 55, 27
1, 119220, Note_on_c, 0, 70, 41
1, 119220, Note_on_c, 0, 51, 23
1, 119236, Control_c, 0, 64, 0
1, 119244, Note_off_c, 0, 73, 64
1, 119260, Control_c, 0, 64, 127
1, 119332, Note_off_c, 0, 55, 64
1, 119364, Note_off_c, 0, 51, 64
1, 119368, Note_off_c, 0, 63, 64
1, 119476, Note_on_c, 0, 61, 29
1, 119492, Note_on_c, 0, 55, 29
1, 119492, Note_on_c, 0, 51, 31
1, 119608, Note_off_c, 0, 55, 64
1, 119612, Note_off_c, 0, 61, 64
1, 119628, Note_off_c, 0, 51, 64
1, 119672, Note_on_c, 0, 75, 41
1, 119688, Note_off_c, 0, 70, 64
1, 119804, Note_on_c, 0, 44, 31
1, 119820, Note_off_c, 0, 75, 64
1, 119820, Note_on_c, 0, 71, 48
1, 119828, Control_c, 0, 64, 0
1, 119888, Control_c, 0, 64, 127
1, 119948, Note_off_c, 0, 71, 64
1, 120012, Note_on_c, 0, 63, 37
1, 120084, Note_on_c, 0, 56, 31
1, 120092, Note_on_c, 0, 68, 45
1, 120100, Note_on_c, 0, 59, 26
1, 120108, Note_off_c, 0, 63, 64
1, 120180, Note_off_c, 0, 56, 64
1, 120204, Note_off_c, 0, 59, 64
1, 120296, Note_off_c, 0, 68, 64
1, 120340, Note_on_c, 0, 59, 28
1, 120344, Note_on_c, 0, 56, 28
1, 120348, Note_on_c, 0, 71, 46
1, 120364, Note_on_c, 0, 63, 36
1, 120372, Control_c, 0, 64, 0
1, 120392, Control_c, 0, 64, 127
1, 120484, Note_off_c, 0, 71, 64
1, 120548, Note_off_c, 0, 56, 64
1, 120556, Note_off_c, 0, 59, 64
1, 120572, Note_off_c, 0, 63, 64
1, 120596, Note_on_c, 0, 75, 45
1, 120668, Note_off_c, 0, 44, 64
1, 120724, Note_off_c, 0, 75, 64
1, 120776, Note_on_c, 0, 76, 45
1, 120852, Note_on_c, 0, 64, 22
1, 120860, Note_on_c, 0, 55, 26
1, 120860, Note_on_c, 0, 58, 26
1, 120868, Note_on_c, 0, 73, 49
1, 120884, Note_off_c, 0, 76, 64
1, 120984, Note_off_c, 0, 55, 64
1, 120996, Note_off_c, 0, 64, 64
1, 120996, Note_off_c, 0, 58, 64
1, 121124, Note_on_c, 0, 58, 20
1, 121132, Note_on_c, 0, 64, 31
1, 121132, Note_on_c, 0, 54, 35
1, 121248, Note_off_c, 0, 73, 64
1, 121248, Note_off_c, 0, 64, 64
1, 121252, Note_off_c, 0, 58, 64
1, 121252, Note_off_c, 0, 54, 64
1, 121260, Note_on_c, 0, 78, 46
1, 121404, Note_on_c, 0, 75, 52
1, 121404, Note_on_c, 0, 47, 31
1, 121416, Note_off_c, 0, 78, 64
1, 121416, Control_c, 0, 64, 0
1, 121452, Control_c, 0, 64, 127
1, 121528, Note_off_c, 0, 75, 64
1, 121528, Note_on_c, 0, 71, 45
1, 121644, Note_on_c, 0, 69, 45
1, 121652, Note_off_c, 0, 71, 64
1, 121660, Note_on_c, 0, 54, 26
1, 121668, Note_on_c, 0, 57, 29
1, 121684, Note_on_c, 0, 63, 24
1, 121688, Control_c, 0, 64, 0
1, 121708, Control_c, 0, 64, 127
1, 121788, Note_off_c, 0, 54, 64
1, 121800, Note_off_c, 0, 57, 64
1, 121812, Note_off_c, 0, 63, 64
1, 121864, Note_off_c, 0, 47, 64
1, 121896, Note_on_c, 0, 73, 32
1, 121908, Note_on_c, 0, 63, 26
1, 121908, Note_on_c, 0, 57, 26
1, 121908, Note_on_c, 0, 54, 26
1, 121988, Note_off_c, 0, 69, 64
1, 122020, Note_off_c, 0, 63, 64
1, 122024, Note_off_c, 0, 57, 64
1, 122024, Note_off_c, 0, 54, 64
1, 122172, Note_on_c, 0, 47, 24
1, 122204, Note_on_c, 0, 71, 27
1, 122228, Note_off_c, 0, 73, 64
1, 122300, Note_off_c, 0, 71, 64
1, 122308, Note_on_c, 0, 68, 40
1, 122412, Note_off_c, 0, 68, 64
1, 122416, Note_on_c, 0, 66, 32
1, 122424, Note_on_c, 0, 57, 23
1, 122424, Note_on_c, 0, 54, 23
1, 122444, Note_on_c, 0, 63, 31
1, 122540, Note_on_c, 0, 69, 32
1, 122544, Note_off_c, 0, 54, 64
1, 122552, Note_off_c, 0, 66, 64
1, 122552, Note_off_c, 0, 57, 64
1, 122592, Note_off_c, 0, 63, 64
1, 122652, Note_on_c, 0, 63, 20
1, 122664, Note_on_c, 0, 75, 37
1, 122668, Note_off_c, 0, 47, 64
1, 122672, Note_off_c, 0, 69, 64
1, 122672, Note_on_c, 0, 57, 24
1, 122688, Note_on_c, 0, 54, 15
1, 122700, Note_on_c, 0, 66, 16
1, 122780, Note_off_c, 0, 75, 64
1, 122780, Note_on_c, 0, 71, 37
1, 122788, Note_off_c, 0, 63, 64
1, 122788, Note_off_c, 0, 66, 64
1, 122828, Note_off_c, 0, 57, 64
1, 122840, Note_off_c, 0, 54, 64
1, 122904, Note_on_c, 0, 69, 37
1, 122908, Note_off_c, 0, 71, 64
1, 122908, Note_on_c, 0, 47, 28
1, 123028, Note_on_c, 0, 73, 37
1, 123060, Note_off_c, 0, 69, 64
1, 123124, Note_on_c, 0, 71, 41
1, 123136, Note_on_c, 0, 63, 29
1, 123136, Note_on_c, 0, 57, 26
1, 123144, Note_off_c, 0, 73, 64
1, 123144, Note_on_c, 0, 54, 16
1, 123236, Note_on_c, 0, 68, 28
1, 123256, Note_off_c, 0, 71, 64
1, 123256, Note_off_c, 0, 57, 64
1, 123260, Note_off_c, 0, 63, 64
1, 123268, Note_off_c, 0, 54, 64
1, 123344, Note_off_c, 0, 68, 64
1, 123352, Note_on_c, 0, 66, 39
1, 123352, Note_on_c, 0, 63, 23
1, 123360, Note_off_c, 0, 47, 64
1, 123360, Note_on_c, 0, 57, 23
1, 123368, Note_on_c, 0, 54, 20
1, 123460, Note_off_c, 0, 66, 64
1, 123464, Note_off_c, 0, 63, 64
1, 123468, Note_on_c, 0, 69, 37
1, 123492, Note_off_c, 0, 57, 64
1, 123512, Note_off_c, 0, 54, 64
1, 123572, Note_on_c, 0, 68, 52
1, 123592, Control_c, 0, 64, 0
1, 123600, Note_off_c, 0, 69, 64
1, 123616, Control_c, 0, 64, 127
1, 123700, Note_on_c, 0, 69, 31
1, 123712, Note_off_c, 0, 68, 64
1, 123812, Note_on_c, 0, 51, 22
1, 123824, Note_on_c, 0, 66, 41
1, 123824, Note_on_c, 0, 47, 22
1, 123828, Note_on_c, 0, 57, 19
1, 123836, Note_off_c, 0, 69, 64
1, 123836, Control_c, 0, 64, 0
1, 123860, Control_c, 0, 64, 127
1, 123928, Note_off_c, 0, 51, 64
1, 123944, Note_off_c, 0, 47, 64
1, 123964, Note_off_c, 0, 57, 64
1, 124068, Note_on_c, 0, 57, 22
1, 124068, Note_on_c, 0, 51, 19
1, 124080, Note_on_c, 0, 47, 14
1, 124172, Note_off_c, 0, 51, 64
1, 124180, Note_off_c, 0, 47, 64
1, 124184, Note_off_c, 0, 57, 64
1, 124188, Note_on_c, 0, 71, 36
1, 124200, Note_off_c, 0, 66, 64
1, 124336, Note_on_c, 0, 40, 18
1, 124340, Note_on_c, 0, 68, 39
1, 124352, Note_off_c, 0, 71, 64
1, 124384, Control_c, 0, 64, 0
1, 124408, Control_c, 0, 64, 127
1, 124536, Note_on_c, 0, 59, 28
1, 124548, Note_off_c, 0, 68, 64
1, 124596, Note_on_c, 0, 64, 37
1, 124604, Note_on_c, 0, 56, 26
1, 124612, Note_on_c, 0, 52, 23
1, 124620, Note_off_c, 0, 59, 64
1, 124704, Note_off_c, 0, 56, 64
1, 124704, Note_off_c, 0, 52, 64
1, 124840, Note_off_c, 0, 64, 64
1, 124852, Note_on_c, 0, 68, 39
1, 124852, Note_on_c, 0, 56, 16
1, 124856, Note_on_c, 0, 52, 16
1, 124864, Note_on_c, 0, 59, 18
1, 125016, Note_off_c, 0, 52, 64
1, 125084, Note_off_c, 0, 68, 64
1, 125096, Note_on_c, 0, 71, 33
1, 125104, Note_on_c, 0, 51, 28
1, 125200, Note_off_c, 0, 59, 64
1, 125204, Note_off_c, 0, 40, 64
1, 125236, Note_off_c, 0, 56, 64
1, 125252, Note_off_c, 0, 51, 64
1, 125264, Note_off_c, 0, 71, 64
1, 125264, Note_on_c, 0, 73, 35
1, 125356, Note_on_c, 0, 70, 29
1, 125364, Note_on_c, 0, 55, 28
1, 125364, Note_on_c, 0, 51, 26
1, 125368, Note_off_c, 0, 73, 64
1, 125368, Note_on_c, 0, 63, 31
1, 125384, Control_c, 0, 64, 0
1, 125412, Control_c, 0, 64, 127
1, 125516, Note_off_c, 0, 55, 64
1, 125520, Note_off_c, 0, 51, 64
1, 125532, Note_off_c, 0, 63, 64
1, 125668, Note_on_c, 0, 61, 27
1, 125684, Note_on_c, 0, 51, 23
1, 125692, Note_on_c, 0, 55, 14
1, 125704, Control_c, 0, 64, 0
1, 125728, Control_c, 0, 64, 127
1, 125836, Note_off_c, 0, 61, 64
1, 125840, Note_off_c, 0, 70, 64
1, 125852, Note_off_c, 0, 51, 64
1, 125852, Note_off_c, 0, 55, 64
1, 125860, Note_on_c, 0, 75, 40
1, 126024, Note_off_c, 0, 75, 64
1, 126028, Note_on_c, 0, 44, 31
1, 126048, Note_on_c, 0, 71, 41
1, 126088, Control_c, 0, 64, 0
1, 126124, Control_c, 0, 64, 127
1, 126160, Note_off_c, 0, 71, 64
1, 126228, Note_on_c, 0, 63, 36
1, 126312, Note_on_c, 0, 68, 48
1, 126324, Note_on_c, 0, 56, 28
1, 126332, Note_off_c, 0, 63, 64
1, 126340, Note_on_c, 0, 59, 26
1, 126340, Control_c, 0, 64, 0
1, 126364, Control_c, 0, 64, 127
1, 126456, Note_off_c, 0, 56, 64
1, 126476, Note_off_c, 0, 59, 64
1, 126484, Note_off_c, 0, 68, 64
1, 126568, Note_on_c, 0, 63, 26
1, 126568, Note_on_c, 0, 71, 46
1, 126568, Note_on_c, 0, 59, 28
1, 126580, Note_on_c, 0, 56, 26
1, 126596, Control_c, 0, 64, 0
1, 126620, Control_c, 0, 64, 127
1, 126724, Note_off_c, 0, 71, 64
1, 126776, Note_off_c, 0, 63, 64
1, 126776, Note_off_c, 0, 59, 64
1, 126788, Note_off_c, 0, 56, 64
1, 126812, Note_on_c, 0, 75, 50
1, 126916, Note_off_c, 0, 44, 64
1, 126996, Note_off_c, 0, 75, 64
1, 126996, Note_on_c, 0, 76, 46
1, 127052, Note_on_c, 0, 55, 28
1, 127064, Note_on_c, 0, 73, 42
1, 127068, Note_on_c, 0, 64, 23
1, 127072, Note_on_c, 0, 59, 28
1, 127100, Note_off_c, 0, 76, 64
1, 127188, Note_off_c, 0, 55, 64
1, 127252, Note_off_c, 0, 59, 64
1, 127256, Note_off_c, 0, 64, 64
1, 127332, Note_on_c, 0, 58, 31
1, 127332, Note_on_c, 0, 54, 31
1, 127336, Note_on_c, 0, 64, 31
1, 127428, Note_off_c, 0, 73, 64
1, 127448, Note_on_c, 0, 78, 46
1, 127460, Note_off_c, 0, 64, 64
1, 127464, Note_off_c, 0, 58, 64
1, 127476, Note_off_c, 0, 54, 64
1, 127604, Note_off_c, 0, 78, 64
1, 127604, Note_on_c, 0, 75, 50
1, 127616, Note_on_c, 0, 47, 28
1, 127636, Control_c, 0, 64, 0
1, 127652, Control_c, 0, 64, 127
1, 127728, Note_on_c, 0, 71, 49
1, 127732, Note_off_c, 0, 75, 64
1, 127848, Note_on_c, 0, 69, 41
1, 127848, Note_on_c, 0, 57, 24
1, 127848, Note_on_c, 0, 54, 24
1, 127852, Note_on_c, 0, 63, 26
1, 127876, Control_c, 0, 64, 0
1, 127888, Note_off_c, 0, 71, 64
1, 127904, Control_c, 0, 64, 127
1, 127980, Note_off_c, 0, 57, 64
1, 127984, Note_off_c, 0, 54, 64
1, 128020, Note_off_c, 0, 63, 64
1, 128128, Note_on_c, 0, 63, 37
1, 128136, Note_on_c, 0, 57, 24
1, 128144, Note_on_c, 0, 54, 29
1, 128244, Note_off_c, 0, 63, 64
1, 128256, Note_off_c, 0, 54, 64
1, 128268, Note_off_c, 0, 57, 64
1, 128276, Note_on_c, 0, 73, 41
1, 128284, Note_off_c, 0, 69, 64
1, 128424, Note_on_c, 0, 71, 46
1, 128432, Note_off_c, 0, 73, 64
1, 128452, Note_off_c, 0, 47, 64
1, 128540, Note_on_c, 0, 68, 42
1, 128552, Note_off_c, 0, 71, 64
1, 128660, Note_off_c, 0, 68, 64
1, 128672, Note_on_c, 0, 66, 42
1, 128684, Note_on_c, 0, 57, 16
1, 128692, Note_on_c, 0, 47, 19
1, 128696, Note_on_c, 0, 51, 16
1, 128800, Note_off_c, 0, 51, 64
1, 128812, Note_off_c, 0, 57, 64
1, 128816, Note_off_c, 0, 47, 64
1, 128960, Note_on_c, 0, 57, 22
1, 128976, Note_on_c, 0, 51, 22
1, 128976, Note_on_c, 0, 47, 26
1, 129068, Note_off_c, 0, 51, 64
1, 129076, Note_off_c, 0, 47, 64
1, 129088, Note_off_c, 0, 57, 64
1, 129108, Note_off_c, 0, 66, 64
1, 129160, Note_on_c, 0, 69, 32
1, 129336, Note_on_c, 0, 40, 28
1, 129344, Note_on_c, 0, 68, 45
1, 129364, Control_c, 0, 64, 0
1, 129368, Note_off_c, 0, 69, 64
1, 129388, Control_c, 0, 64, 127
1, 129588, Note_off_c, 0, 68, 64
1, 129600, Note_on_c, 0, 59, 37
1, 129716, Note_on_c, 0, 56, 26
1, 129720, Note_on_c, 0, 64, 39
1, 129724, Note_on_c, 0, 52, 24
1, 129780, Control_c, 0, 64, 0
1, 129796, Control_c, 0, 64, 127
1, 129824, Note_off_c, 0, 59, 64
1, 130148, Note_off_c, 0, 64, 64
1, 130240, Note_on_c, 0, 64, 42
1, 130284, Control_c, 0, 64, 0
1, 130324, Control_c, 0, 64, 127
1, 130572, Note_off_c, 0, 40, 64
1, 130752, Note_off_c, 0, 52, 64
1, 130828, Note_on_c, 0, 72, 33
1, 130828, Note_on_c, 0, 55, 15
1, 130836, Control_c, 0, 64, 0
1, 130840, Note_off_c, 0, 56, 64
1, 130848, Note_on_c, 0, 61, 14
1, 130872, Control_c, 0, 64, 127
1, 130908, Control_c, 0, 64, 0
1, 130960, Control_c, 0, 64, 127
1, 131068, Note_off_c, 0, 61, 64
1, 131184, Note_off_c, 0, 55, 64
1, 131216, Note_on_c, 0, 70, 26
1, 131244, Note_off_c, 0, 72, 64
1, 131292, Note_on_c, 0, 60, 16
1, 131292, Note_on_c, 0, 56, 1
1, 131324, Note_on_c, 0, 68, 33
1, 131328, Note_on_c, 0, 63, 11
1, 131332, Note_off_c, 0, 64, 64
1, 131392, Note_off_c, 0, 70, 64
1, 131396, Control_c, 0, 64, 0
1, 131452, Control_c, 0, 64, 127
1, 131500, Note_on_c, 0, 70, 35
1, 131552, Note_off_c, 0, 68, 64
1, 131724, Note_on_c, 0, 51, 15
1, 131732, Note_on_c, 0, 72, 36
1, 131756, Note_off_c, 0, 70, 64
1, 131804, Note_off_c, 0, 60, 64
1, 131820, Note_off_c, 0, 63, 64
1, 131824, Note_off_c, 0, 56, 64
1, 132028, Note_off_c, 0, 51, 64
1, 132140, Note_on_c, 0, 64, 27
1, 132148, Note_on_c, 0, 61, 18
1, 132148, Note_on_c, 0, 55, 18
1, 132260, Control_c, 0, 64, 0
1, 132280, Control_c, 0, 64, 127
1, 132304, Note_off_c, 0, 64, 64
1, 132332, Note_off_c, 0, 61, 64
1, 132428, Note_off_c, 0, 55, 64
1, 132464, Note_on_c, 0, 70, 41
1, 132472, Note_off_c, 0, 72, 64
1, 132540, Note_on_c, 0, 68, 49
1, 132560, Note_on_c, 0, 63, 33
1, 132568, Note_off_c, 0, 70, 64
1, 132580, Note_on_c, 0, 60, 18
1, 132588, Note_on_c, 0, 56, 14
1, 132624, Control_c, 0, 64, 0
1, 132660, Control_c, 0, 64, 127
1, 132704, Note_off_c, 0, 68, 64
1, 132736, Note_on_c, 0, 77, 49
1, 132812, Note_off_c, 0, 60, 64
1, 132884, Note_off_c, 0, 56, 64
1, 132928, Note_on_c, 0, 75, 44
1, 132936, Note_on_c, 0, 51, 28
1, 132956, Note_off_c, 0, 77, 64
1, 133044, Note_off_c, 0, 75, 64
1, 133064, Note_off_c, 0, 51, 64
1, 133100, Note_off_c, 0, 63, 64
1, 133320, Note_on_c, 0, 61, 20
1, 133324, Note_on_c, 0, 72, 44
1, 133328, Note_on_c, 0, 64, 24
1, 133336, Note_on_c, 0, 55, 23
1, 133472, Note_off_c, 0, 64, 64
1, 133492, Note_off_c, 0, 61, 64
1, 133596, Note_off_c, 0, 55, 64
1, 133608, Note_off_c, 0, 72, 64
1, 133608, Note_on_c, 0, 70, 27
1, 133700, Note_on_c, 0, 63, 33
1, 133708, Note_off_c, 0, 70, 64
1, 133708, Note_on_c, 0, 60, 28
1, 133720, Note_on_c, 0, 56, 15
1, 133724, Note_on_c, 0, 68, 44
1, 133740, Control_c, 0, 64, 0
1, 133776, Control_c, 0, 64, 127
1, 133904, Note_on_c, 0, 70, 36
1, 133916, Note_off_c, 0, 60, 64
1, 133936, Note_off_c, 0, 56, 64
1, 133960, Note_off_c, 0, 68, 64
1, 134080, Note_on_c, 0, 72, 44
1, 134096, Note_off_c, 0, 70, 64
1, 134108, Note_on_c, 0, 51, 19
1, 134112, Note_off_c, 0, 63, 64
1, 134516, Note_on_c, 0, 63, 29
1, 134516, Note_on_c, 0, 56, 33
1, 134524, Note_on_c, 0, 61, 18
1, 134548, Note_off_c, 0, 51, 64
1, 134556, Note_off_c, 0, 72, 64
1, 134600, Control_c, 0, 64, 0
1, 134652, Control_c, 0, 64, 127
1, 134840, Note_on_c, 0, 55, 29
1, 134852, Note_off_c, 0, 56, 64
1, 134940, Note_on_c, 0, 53, 24
1, 134984, Note_off_c, 0, 55, 64
1, 135192, Note_on_c, 0, 55, 20
1, 135204, Note_off_c, 0, 53, 64
1, 135228, Control_c, 0, 64, 0
1, 135484, Note_on_c, 0, 51, 22
1, 135596, Note_off_c, 0, 55, 64
1, 135616, Control_c, 0, 64, 127
1, 135716, Note_off_c, 0, 51, 64
1, 135736, Note_off_c, 0, 61, 64
1, 135764, Note_off_c, 0, 63, 64
1, 136092, Note_on_c, 0, 72, 36
1, 136100, Note_on_c, 0, 55, 24
1, 136104, Note_on_c, 0, 61, 22
1, 136104, Note_on_c, 0, 64, 22
1, 136140, Control_c, 0, 64, 0
1, 136192, Control_c, 0, 64, 127
1, 136280, Note_off_c, 0, 64, 64
1, 136288, Note_off_c, 0, 61, 64
1, 136320, Note_off_c, 0, 55, 64
1, 136376, Note_on_c, 0, 70, 36
1, 136404, Note_off_c, 0, 72, 64
1, 136464, Note_on_c, 0, 63, 18
1, 136468, Note_on_c, 0, 68, 50
1, 136476, Note_on_c, 0, 56, 16
1, 136492, Note_off_c, 0, 70, 64
1, 136644, Tempo, 500000
1, 136644, Note_on_c, 0, 70, 49
1, 136680, Tempo, 500000
1, 136680, Note_off_c, 0, 68, 64
1, 136680, Note_off_c, 0, 56, 64
1, 136812, Note_on_c, 0, 72, 44
1, 136816, Note_off_c, 0, 70, 64
1, 136816, Note_on_c, 0, 51, 29
1, 136840, Control_c, 0, 64, 0
1, 136880, Control_c, 0, 64, 127
1, 136932, Note_off_c, 0, 51, 64
1, 136936, Note_off_c, 0, 63, 64
1, 137152, Note_on_c, 0, 64, 29
1, 137152, Note_on_c, 0, 61, 29
1, 137160, Note_on_c, 0, 55, 28
1, 137272, Note_off_c, 0, 64, 64
1, 137280, Note_off_c, 0, 61, 64
1, 137324, Note_off_c, 0, 55, 64
1, 137416, Note_on_c, 0, 70, 41
1, 137444, Note_off_c, 0, 72, 64
1, 137488, Note_on_c, 0, 63, 36
1, 137492, Note_on_c, 0, 60, 36
1, 137504, Note_on_c, 0, 68, 39
1, 137508, Note_on_c, 0, 56, 16
1, 137524, Note_off_c, 0, 70, 64
1, 137596, Note_off_c, 0, 60, 64
1, 137680, Note_on_c, 0, 79, 46
1, 137828, Note_off_c, 0, 56, 64
1, 137848, Note_on_c, 0, 77, 44
1, 137868, Note_off_c, 0, 79, 64
1, 137876, Note_on_c, 0, 59, 35
1, 137880, Control_c, 0, 64, 0
1, 137920, Control_c, 0, 64, 127
1, 137956, Note_off_c, 0, 68, 64
1, 138000, Note_off_c, 0, 59, 64
1, 138208, Note_on_c, 0, 70, 46
1, 138216, Note_on_c, 0, 67, 41
1, 138228, Note_off_c, 0, 77, 64
1, 138232, Note_on_c, 0, 51, 29
1, 138264, Note_on_c, 0, 58, 11
1, 138268, Control_c, 0, 64, 0
1, 138304, Control_c, 0, 64, 127
1, 138356, Note_off_c, 0, 58, 64
1, 138396, Note_off_c, 0, 67, 64
1, 138432, Note_off_c, 0, 63, 64
1, 138520, Note_off_c, 0, 51, 64
1, 138564, Note_off_c, 0, 70, 64
1, 138568, Note_on_c, 0, 68, 49
1, 138576, Note_on_c, 0, 62, 24
1, 138584, Note_on_c, 0, 59, 29
1, 138600, Control_c, 0, 64, 0
1, 138656, Control_c, 0, 64, 127
1, 138860, Note_on_c, 0, 79, 35
1, 138940, Note_on_c, 0, 77, 45
1, 138940, Note_on_c, 0, 51, 22
1, 138980, Control_c, 0, 64, 0
1, 138984, Note_off_c, 0, 79, 64
1, 139012, Note_off_c, 0, 59, 64
1, 139016, Note_off_c, 0, 62, 64
1, 139024, Control_c, 0, 64, 127
1, 139028, Note_off_c, 0, 68, 64
1, 139340, Note_off_c, 0, 51, 64
1, 139340, Note_on_c, 0, 68, 44
1, 139344, Note_off_c, 0, 77, 64
1, 139356, Note_on_c, 0, 59, 29
1, 139360, Note_on_c, 0, 62, 24
1, 139412, Control_c, 0, 64, 0
1, 139448, Control_c, 0, 64, 127
1, 139704, Note_on_c, 0, 79, 28
1, 139796, Note_on_c, 0, 51, 24
1, 139800, Note_on_c, 0, 77, 31
1, 139824, Note_off_c, 0, 79, 64
1, 139860, Control_c, 0, 64, 0
1, 139888, Note_off_c, 0, 59, 64
1, 139896, Control_c, 0, 64, 127
1, 139912, Note_off_c, 0, 62, 64
1, 139960, Note_off_c, 0, 68, 64
1, 140416, Note_off_c, 0, 77, 64
1, 140420, Note_on_c, 0, 70, 33
1, 140428, Note_on_c, 0, 63, 14
1, 140444, Note_on_c, 0, 67, 27
1, 140444, Note_on_c, 0, 58, 14
1, 140524, Control_c, 0, 64, 0
1, 140600, Control_c, 0, 64, 127
1, 140808, Note_off_c, 0, 51, 64
1, 140876, Note_off_c, 0, 58, 64
1, 140904, Note_off_c, 0, 63, 64
1, 140980, Note_off_c, 0, 67, 64
1, 140984, Note_off_c, 0, 70, 64
1, 141328, Note_on_c, 0, 72, 41
1, 141328, Note_on_c, 0, 61, 23
1, 141340, Note_on_c, 0, 55, 24
1, 141344, Note_on_c, 0, 64, 24
1, 141400, Control_c, 0, 64, 0
1, 141476, Control_c, 0, 64, 127
1, 141520, Note_off_c, 0, 61, 64
1, 141520, Note_off_c, 0, 64, 64
1, 141612, Note_off_c, 0, 55, 64
1, 141616, Note_on_c, 0, 70, 27
1, 141628, Note_off_c, 0, 72, 64
1, 141696, Note_on_c, 0, 68, 42
1, 141712, Note_on_c, 0, 63, 28
1, 141724, Note_off_c, 0, 70, 64
1, 141732, Note_on_c, 0, 56, 13
1, 141736, Note_on_c, 0, 60, 22
1, 141768, Control_c, 0, 64, 0
1, 141804, Control_c, 0, 64, 127
1, 141872, Note_on_c, 0, 70, 44
1, 141880, Note_off_c, 0, 68, 64
1, 141980, Note_off_c, 0, 56, 64
1, 141992, Note_off_c, 0, 60, 64
1, 142048, Note_on_c, 0, 72, 36
1, 142068, Note_on_c, 0, 51, 16
1, 142076, Note_off_c, 0, 70, 64
1, 142084, Control_c, 0, 64, 0
1, 142120, Control_c, 0, 64, 127
1, 142196, Note_off_c, 0, 63, 64
1, 142200, Note_off_c, 0, 51, 64
1, 142376, Note_on_c, 0, 61, 28
1, 142392, Note_on_c, 0, 64, 29
1, 142412, Note_on_c, 0, 55, 16
1, 142424, Control_c, 0, 64, 0
1, 142452, Control_c, 0, 64, 127
1, 142508, Note_off_c, 0, 64, 64
1, 142536, Note_off_c, 0, 61, 64
1, 142592, Note_off_c, 0, 72, 64
1, 142596, Note_off_c, 0, 55, 64
1, 142600, Note_on_c, 0, 70, 42
1, 142688, Note_on_c, 0, 68, 41
1, 142696, Note_off_c, 0, 70, 64
1, 142704, Note_on_c, 0, 63, 29
1, 142712, Note_on_c, 0, 60, 27
1, 142716, Note_on_c, 0, 56, 16
1, 142860, Note_on_c, 0, 77, 36
1, 142948, Note_off_c, 0, 56, 64
1, 142984, Note_off_c, 0, 60, 64
1, 143032, Note_off_c, 0, 68, 64
1, 143032, Note_on_c, 0, 75, 36
1, 143032, Note_on_c, 0, 51, 33
1, 143048, Note_off_c, 0, 77, 64
1, 143124, Note_off_c, 0, 75, 64
1, 143132, Note_off_c, 0, 51, 64
1, 143192, Note_off_c, 0, 63, 64
1, 143404, Note_on_c, 0, 72, 36
1, 143404, Note_on_c, 0, 61, 29
1, 143412, Note_on_c, 0, 55, 27
1, 143420, Note_on_c, 0, 64, 22
1, 143552, Note_off_c, 0, 64, 64
1, 143612, Note_off_c, 0, 61, 64
1, 143656, Note_on_c, 0, 70, 36
1, 143684, Note_off_c, 0, 72, 64
1, 143744, Note_off_c, 0, 55, 64
1, 143820, Note_on_c, 0, 67, 33
1, 143828, Note_on_c, 0, 63, 33
1, 143840, Note_on_c, 0, 56, 20
1, 143844, Note_off_c, 0, 70, 64
1, 143844, Note_on_c, 0, 60, 24
1, 143884, Control_c, 0, 64, 0
1, 143904, Control_c, 0, 64, 127
1, 143960, Note_on_c, 0, 68, 28
1, 143996, Note_off_c, 0, 67, 64
1, 144032, Note_off_c, 0, 60, 64
1, 144084, Note_on_c, 0, 70, 28
1, 144096, Note_off_c, 0, 56, 64
1, 144116, Note_off_c, 0, 68, 64
1, 144216, Note_off_c, 0, 63, 64
1, 144232, Note_on_c, 0, 51, 33
1, 144248, Note_on_c, 0, 71, 29
1, 144252, Control_c, 0, 64, 0
1, 144304, Tempo, 500000
1, 144304, Note_off_c, 0, 70, 64
1, 144336, Control_c, 0, 64, 127
1, 144356, Note_on_c, 0, 73, 36
1, 144372, Note_off_c, 0, 71, 64
1, 144480, Note_off_c, 0, 73, 64
1, 144568, Note_on_c, 0, 72, 22
1, 144604, Note_off_c, 0, 72, 64
1, 144664, Note_on_c, 0, 72, 36
1, 144724, Note_on_c, 0, 63, 36
1, 144736, Note_off_c, 0, 72, 64
1, 144760, Note_on_c, 0, 61, 16
1, 144772, Note_on_c, 0, 56, 23
1, 144808, Note_off_c, 0, 51, 64
1, 144820, Control_c, 0, 64, 0
1, 145028, Note_on_c, 0, 55, 29
1, 145032, Note_off_c, 0, 56, 64
1, 145040, Control_c, 0, 64, 127
1, 145132, Note_on_c, 0, 53, 32
1, 145140, Note_off_c, 0, 55, 64
1, 145364, Note_on_c, 0, 55, 23
1, 145364, Control_c, 0, 64, 0
1, 145376, Note_off_c, 0, 53, 64
1, 145620, Note_on_c, 0, 51, 29
1, 145680, Note_off_c, 0, 55, 64
1, 145824, Control_c, 0, 64, 127
1, 145896, Note_off_c, 0, 51, 64
1, 145956, Note_off_c, 0, 61, 64
1, 145956, Note_off_c, 0, 63, 64
1, 146216, Note_on_c, 0, 64, 37
1, 146224, Note_on_c, 0, 61, 36
1, 146232, Note_on_c, 0, 55, 37
1, 146236, Note_on_c, 0, 72, 45
1, 146264, Control_c, 0, 64, 0
1, 146320, Control_c, 0, 64, 127
1, 146344, Note_off_c, 0, 64, 64
1, 146384, Note_off_c, 0, 61, 64
1, 146488, Note_off_c, 0, 55, 64
1, 146492, Note_on_c, 0, 70, 33
1, 146504, Note_off_c, 0, 72, 64
1, 146572, Note_on_c, 0, 56, 20
1, 146576, Note_on_c, 0, 68, 45
1, 146584, Note_on_c, 0, 63, 33
1, 146604, Note_off_c, 0, 70, 64
1, 146604, Note_on_c, 0, 60, 31
1, 146624, Control_c, 0, 64, 0
1, 146648, Control_c, 0, 64, 127
1, 146748, Note_on_c, 0, 70, 35
1, 146768, Note_off_c, 0, 68, 64
1, 146768, Note_off_c, 0, 60, 64
1, 146844, Note_off_c, 0, 56, 64
1, 146892, Note_on_c, 0, 72, 46
1, 146900, Note_off_c, 0, 70, 64
1, 146920, Note_on_c, 0, 51, 31
1, 146936, Control_c, 0, 64, 0
1, 146972, Control_c, 0, 64, 127
1, 146996, Note_off_c, 0, 51, 64
1, 147032, Note_off_c, 0, 63, 64
1, 147216, Note_on_c, 0, 61, 26
1, 147232, Note_on_c, 0, 64, 27
1, 147248, Note_on_c, 0, 55, 18
1, 147324, Note_off_c, 0, 61, 64
1, 147332, Note_off_c, 0, 64, 64
1, 147352, Note_off_c, 0, 72, 64
1, 147352, Note_on_c, 0, 70, 39
1, 147360, Note_off_c, 0, 55, 64
1, 147420, Note_on_c, 0, 72, 44
1, 147452, Note_off_c, 0, 70, 64
1, 147452, Tempo, 500000
1, 147468, Note_on_c, 0, 70, 50
1, 147488, Note_off_c, 0, 72, 64
1, 147544, Note_on_c, 0, 68, 50
1, 147552, Note_on_c, 0, 56, 28
1, 147556, Note_on_c, 0, 63, 31
1, 147560, Note_on_c, 0, 60, 36
1, 147568, Note_off_c, 0, 70, 64
1, 147572, Control_c, 0, 64, 0
1, 147592, Control_c, 0, 64, 127
1, 147616, Note_off_c, 0, 56, 64
1, 147620, Note_off_c, 0, 60, 64
1, 147640, Note_off_c, 0, 68, 64
1, 147656, Note_off_c, 0, 63, 64
1, 147808, Note_on_c, 0, 80, 50
1, 147880, Note_on_c, 0, 62, 50
1, 147888, Note_on_c, 0, 77, 54
1, 147892, Note_on_c, 0, 71, 46
1, 147892, Note_on_c, 0, 68, 46
1, 147904, Note_off_c, 0, 80, 64
1, 148052, Note_off_c, 0, 71, 64
1, 148080, Note_off_c, 0, 77, 64
1, 148088, Note_off_c, 0, 68, 64
1, 148100, Note_off_c, 0, 62, 64
1, 148220, Note_on_c, 0, 70, 50
1, 148228, Note_on_c, 0, 63, 54
1, 148244, Note_on_c, 0, 67, 45
1, 148256, Control_c, 0, 64, 0
1, 148308, Control_c, 0, 64, 127
1, 148352, Note_off_c, 0, 67, 64
1, 148472, Note_on_c, 0, 72, 50
1, 148484, Note_off_c, 0, 70, 64
1, 148484, Note_off_c, 0, 63, 64
1, 148528, Note_on_c, 0, 58, 55
1, 148540, Note_on_c, 0, 73, 65
1, 148540, Note_on_c, 0, 65, 52
1, 148572, Note_off_c, 0, 72, 64
1, 148608, Note_off_c, 0, 65, 64
1, 148632, Note_off_c, 0, 58, 64
1, 148788, Note_off_c, 0, 73, 64
1, 148852, Note_on_c, 0, 72, 58
1, 148852, Note_on_c, 0, 67, 55
1, 148852, Note_on_c, 0, 51, 24
1, 148864, Note_on_c, 0, 63, 52
1, 148968, Note_off_c, 0, 51, 64
1, 149044, Note_off_c, 0, 72, 64
1, 149080, Note_on_c, 0, 70, 45
1, 149080, Note_on_c, 0, 61, 52
1, 149096, Note_off_c, 0, 63, 64
1, 149116, Note_off_c, 0, 67, 64
1, 149164, Note_on_c, 0, 73, 59
1, 149168, Note_on_c, 0, 65, 62
1, 149168, Note_on_c, 0, 56, 29
1, 149200, Note_off_c, 0, 70, 64
1, 149212, Note_off_c, 0, 61, 64
1, 149228, Control_c, 0, 64, 0
1, 149280, Control_c, 0, 64, 127
1, 149456, Note_on_c, 0, 72, 42
1, 149456, Note_on_c, 0, 63, 42
1, 149464, Note_off_c, 0, 73, 64
1, 149520, Note_off_c, 0, 65, 64
1, 149544, Note_on_c, 0, 68, 42
1, 149544, Note_on_c, 0, 60, 36
1, 149560, Note_off_c, 0, 72, 64
1, 149580, Note_off_c, 0, 63, 64
1, 149792, Control_c, 0, 64, 0
1, 150000, Note_on_c, 0, 65, 48
1, 150032, Note_off_c, 0, 68, 64
1, 150152, Control_c, 0, 64, 127
1, 150216, Note_off_c, 0, 56, 64
1, 150236, Note_off_c, 0, 60, 64
1, 150480, Note_on_c, 0, 73, 57
1, 150512, Control_c, 0, 64, 0
1, 150544, Note_off_c, 0, 65, 64
1, 150584, Control_c, 0, 64, 127
1, 150820, Note_on_c, 0, 70, 57
1, 150824, Note_on_c, 0, 61, 44
1, 150824, Note_on_c, 0, 46, 44
1, 150844, Note_on_c, 0, 53, 46
1, 150856, Note_off_c, 0, 73, 64
1, 150860, Control_c, 0, 64, 0
1, 150892, Control_c, 0, 64, 127
1, 150940, Note_off_c, 0, 61, 64
1, 150940, Note_off_c, 0, 46, 64
1, 150944, Note_off_c, 0, 53, 64
1, 151048, Note_on_c, 0, 73, 44
1, 151108, Note_off_c, 0, 70, 64
1, 151132, Note_on_c, 0, 61, 54
1, 151136, Note_on_c, 0, 46, 49
1, 151144, Note_on_c, 0, 65, 55
1, 151148, Note_on_c, 0, 77, 53
1, 151152, Note_on_c, 0, 53, 40
1, 151164, Note_off_c, 0, 73, 64
1, 151188, Control_c, 0, 64, 0
1, 151256, Control_c, 0, 64, 127
1, 151312, Note_off_c, 0, 65, 64
1, 151440, Note_off_c, 0, 77, 64
1, 151464, Note_on_c, 0, 76, 57
1, 151468, Note_off_c, 0, 53, 64
1, 151480, Note_off_c, 0, 61, 64
1, 151488, Note_off_c, 0, 46, 64
1, 151672, Note_on_c, 0, 72, 55
1, 151680, Note_off_c, 0, 76, 64
1, 151728, Note_on_c, 0, 46, 46
1, 151736, Note_on_c, 0, 60, 48
1, 151740, Note_on_c, 0, 53, 49
1, 151752, Note_on_c, 0, 75, 53
1, 151772, Control_c, 0, 64, 0
1, 151780, Note_off_c, 0, 72, 64
1, 151808, Control_c, 0, 64, 127
1, 151840, Note_off_c, 0, 60, 64
1, 151860, Note_off_c, 0, 46, 64
1, 151860, Note_off_c, 0, 53, 64
1, 151912, Note_on_c, 0, 73, 62
1, 151928, Tempo, 500000
1, 151928, Note_off_c, 0, 75, 64
1, 152020, Note_on_c, 0, 61, 53
1, 152020, Note_on_c, 0, 46, 49
1, 152032, Note_on_c, 0, 82, 62
1, 152032, Note_on_c, 0, 53, 48
1, 152036, Note_on_c, 0, 70, 57
1, 152048, Note_off_c, 0, 73, 64
1, 152060, Control_c, 0, 64, 0
1, 152112, Control_c, 0, 64, 127
1, 152152, Note_off_c, 0, 82, 64
1, 152224, Note_on_c, 0, 73, 62
1, 152232, Note_off_c, 0, 70, 64
1, 152272, Note_on_c, 0, 75, 58
1, 152280, Note_off_c, 0, 73, 64
1, 152320, Note_off_c, 0, 53, 64
1, 152324, Note_on_c, 0, 73, 62
1, 152336, Note_off_c, 0, 61, 64
1, 152344, Note_off_c, 0, 46, 64
1, 152344, Note_off_c, 0, 75, 64
1, 152596, Note_on_c, 0, 70, 58
1, 152600, Note_off_c, 0, 73, 64
1, 152600, Note_on_c, 0, 61, 63
1, 152600, Note_on_c, 0, 53, 48
1, 152600, Note_on_c, 0, 46, 62
1, 152628, Control_c, 0, 64, 0
1, 152656, Note_off_c, 0, 61, 64
1, 152656, Note_off_c, 0, 53, 64
1, 152660, Note_off_c, 0, 46, 64
1, 152664, Control_c, 0, 64, 127
1, 152744, Note_on_c, 0, 73, 48
1, 152756, Note_off_c, 0, 70, 64
1, 152876, Note_off_c, 0, 73, 64
1, 152880, Note_on_c, 0, 77, 57
1, 152884, Note_on_c, 0, 65, 61
1, 152892, Note_on_c, 0, 46, 58
1, 152892, Note_on_c, 0, 61, 63
1, 152900, Note_on_c, 0, 53, 48
1, 152904, Control_c, 0, 64, 0
1, 152960, Control_c, 0, 64, 127
1, 153032, Note_off_c, 0, 65, 64
1, 153164, Note_on_c, 0, 76, 53
1, 153216, Note_off_c, 0, 61, 64
1, 153216, Note_off_c, 0, 53, 64
1, 153220, Note_off_c, 0, 46, 64
1, 153280, Note_on_c, 0, 72, 54
1, 153304, Note_off_c, 0, 76, 64
1, 153408, Note_on_c, 0, 75, 63
1, 153424, Note_off_c, 0, 72, 64
1, 153424, Note_on_c, 0, 53, 50
1, 153432, Note_on_c, 0, 60, 55
1, 153432, Note_on_c, 0, 46, 50
1, 153448, Control_c, 0, 64, 0
1, 153472, Control_c, 0, 64, 127
1, 153504, Note_off_c, 0, 46, 64
1, 153524, Note_off_c, 0, 60, 64
1, 153528, Note_off_c, 0, 53, 64
1, 153528, Note_on_c, 0, 73, 66
1, 153536, Note_off_c, 0, 75, 64
1, 153668, Note_on_c, 0, 82, 70
1, 153676, Note_off_c, 0, 73, 64
1, 153684, Note_on_c, 0, 70, 66
1, 153688, Note_on_c, 0, 61, 62
1, 153704, Note_on_c, 0, 46, 58
1, 153708, Note_on_c, 0, 53, 50
1, 153712, Note_off_c, 0, 77, 64
1, 153720, Control_c, 0, 64, 0
1, 153760, Control_c, 0, 64, 127
1, 153904, Note_off_c, 0, 70, 64
1, 153932, Note_on_c, 0, 76, 55
1, 153992, Note_off_c, 0, 53, 64
1, 154000, Note_off_c, 0, 61, 64
1, 154012, Note_off_c, 0, 46, 64
1, 154040, Note_off_c, 0, 76, 64
1, 154040, Note_on_c, 0, 72, 58
1, 154176, Note_on_c, 0, 75, 63
1, 154188, Note_on_c, 0, 46, 49
1, 154196, Note_on_c, 0, 60, 58
1, 154200, Note_on_c, 0, 53, 49
1, 154204, Note_off_c, 0, 72, 64
1, 154220, Control_c, 0, 64, 0
1, 154240, Control_c, 0, 64, 127
1, 154280, Note_off_c, 0, 60, 64
1, 154284, Note_off_c, 0, 46, 64
1, 154292, Note_off_c, 0, 53, 64
1, 154296, Note_on_c, 0, 73, 66
1, 154304, Note_off_c, 0, 75, 64
1, 154420, Note_off_c, 0, 82, 64
1, 154452, Note_on_c, 0, 82, 66
1, 154460, Note_on_c, 0, 70, 66
1, 154464, Note_off_c, 0, 73, 64
1, 154480, Note_on_c, 0, 61, 55
1, 154484, Note_on_c, 0, 46, 39
1, 154492, Note_on_c, 0, 53, 40
1, 154512, Control_c, 0, 64, 0
1, 154536, Control_c, 0, 64, 127
1, 154736, Note_off_c, 0, 70, 64
1, 154736, Note_on_c, 0, 76, 58
1, 154828, Note_off_c, 0, 53, 64
1, 154836, Note_off_c, 0, 61, 64
1, 154848, Note_off_c, 0, 46, 64
1, 154872, Note_off_c, 0, 76, 64
1, 154876, Note_on_c, 0, 72, 62
1, 155032, Note_on_c, 0, 75, 66
1, 155048, Note_on_c, 0, 46, 46
1, 155056, Note_on_c, 0, 60, 54
1, 155060, Note_on_c, 0, 53, 49
1, 155068, Note_off_c, 0, 72, 64
1, 155080, Control_c, 0, 64, 0
1, 155096, Control_c, 0, 64, 127
1, 155180, Note_off_c, 0, 75, 64
1, 155180, Note_on_c, 0, 73, 63
1, 155192, Note_off_c, 0, 53, 64
1, 155200, Note_off_c, 0, 46, 64
1, 155200, Note_off_c, 0, 60, 64
1, 155316, Note_off_c, 0, 82, 64
1, 155392, Note_on_c, 0, 70, 53
1, 155396, Note_on_c, 0, 82, 62
1, 155404, Note_off_c, 0, 73, 64
1, 155404, Note_on_c, 0, 61, 50
1, 155416, Note_on_c, 0, 46, 41
1, 155416, Note_on_c, 0, 53, 33
1, 155484, Control_c, 0, 64, 0
1, 155528, Control_c, 0, 64, 127
1, 155784, Note_off_c, 0, 82, 64
1, 155788, Note_off_c, 0, 53, 64
1, 155792, Note_on_c, 0, 73, 59
1, 155804, Note_off_c, 0, 70, 64
1, 155808, Note_off_c, 0, 46, 64
1, 155864, Note_off_c, 0, 61, 64
1, 156192, Note_on_c, 0, 55, 26
1, 156196, Note_on_c, 0, 64, 36
1, 156196, Note_on_c, 0, 58, 36
1, 156232, Control_c, 0, 64, 0
1, 156288, Control_c, 0, 64, 127
1, 156436, Note_off_c, 0, 64, 64
1, 156444, Note_off_c, 0, 58, 64
1, 156484, Note_off_c, 0, 55, 64
1, 156712, Note_on_c, 0, 56, 26
1, 156728, Note_on_c, 0, 71, 48
1, 156736, Note_on_c, 0, 64, 32
1, 156748, Note_off_c, 0, 73, 64
1, 156760, Note_on_c, 0, 59, 22
1, 157000, Note_off_c, 0, 56, 64
1, 157008, Note_off_c, 0, 59, 64
1, 157040, Note_off_c, 0, 64, 64
1, 157160, Note_on_c, 0, 73, 49
1, 157184, Note_on_c, 0, 55, 27
1, 157188, Note_on_c, 0, 58, 22
1, 157196, Note_on_c, 0, 64, 27
1, 157200, Note_off_c, 0, 71, 64
1, 157244, Control_c, 0, 64, 0
1, 157292, Control_c, 0, 64, 127
1, 157432, Note_off_c, 0, 64, 64
1, 157480, Note_off_c, 0, 58, 64
1, 157584, Note_off_c, 0, 55, 64
1, 157620, Note_on_c, 0, 71, 40
1, 157632, Note_on_c, 0, 64, 24
1, 157632, Note_on_c, 0, 56, 23
1, 157640, Note_on_c, 0, 59, 40
1, 157648, Note_off_c, 0, 73, 64
1, 157720, Control_c, 0, 64, 0
1, 157744, Control_c, 0, 64, 127
1, 157980, Note_off_c, 0, 59, 64
1, 158092, Note_off_c, 0, 64, 64
1, 158096, Note_off_c, 0, 56, 64
1, 158168, Note_on_c, 0, 64, 19
1, 158168, Note_on_c, 0, 55, 27
1, 158180, Note_on_c, 0, 61, 27
1, 158200, Note_on_c, 0, 70, 37
1, 158244, Note_off_c, 0, 71, 64
1, 158344, Control_c, 0, 64, 0
1, 158424, Control_c, 0, 64, 127
1, 158984, Note_on_c, 0, 72, 42
1, 159016, Note_off_c, 0, 70, 64
1, 159024, Control_c, 0, 64, 0
1, 159048, Note_off_c, 0, 64, 64
1, 159048, Control_c, 0, 64, 127
1, 159060, Note_off_c, 0, 55, 64
1, 159072, Note_off_c, 0, 61, 64
1, 159368, Note_on_c, 0, 70, 44
1, 159424, Note_off_c, 0, 72, 64
1, 159456, Note_off_c, 0, 70, 64
1, 159464, Note_on_c, 0, 56, 24
1, 159480, Note_on_c, 0, 63, 29
1, 159480, Note_on_c, 0, 68, 45
1, 159496, Note_on_c, 0, 60, 36
1, 159688, Note_off_c, 0, 56, 64
1, 159712, Note_on_c, 0, 70, 50
1, 159732, Note_off_c, 0, 68, 64
1, 159856, Note_off_c, 0, 60, 64
1, 159880, Note_off_c, 0, 70, 64
1, 159880, Note_on_c, 0, 72, 55
1, 159892, Note_on_c, 0, 51, 40
1, 159932, Control_c, 0, 64, 0
1, 159956, Control_c, 0, 64, 127
1, 160028, Note_off_c, 0, 51, 64
1, 160064, Note_off_c, 0, 63, 64
1, 160232, Note_on_c, 0, 61, 32
1, 160244, Note_on_c, 0, 64, 36
1, 160256, Note_on_c, 0, 55, 24
1, 160296, Control_c, 0, 64, 0
1, 160316, Control_c, 0, 64, 127
1, 160356, Note_off_c, 0, 72, 64
1, 160368, Note_off_c, 0, 64, 64
1, 160412, Note_off_c, 0, 61, 64
1, 160440, Note_off_c, 0, 55, 64
1, 160512, Note_on_c, 0, 70, 53
1, 160584, Note_on_c, 0, 68, 55
1, 160584, Note_on_c, 0, 56, 40
1, 160588, Note_on_c, 0, 63, 48
1, 160604, Note_off_c, 0, 70, 64
1, 160620, Note_on_c, 0, 60, 24
1, 160836, Note_on_c, 0, 77, 40
1, 160840, Note_off_c, 0, 56, 64
1, 160876, Note_off_c, 0, 60, 64
1, 160928, Note_on_c, 0, 75, 52
1, 160932, Note_off_c, 0, 77, 64
1, 160936, Note_on_c, 0, 51, 42
1, 161020, Note_off_c, 0, 75, 64
1, 161040, Note_off_c, 0, 68, 64
1, 161040, Note_off_c, 0, 51, 64
1, 161064, Note_off_c, 0, 63, 64
1, 161308, Note_on_c, 0, 61, 32
1, 161312, Note_on_c, 0, 55, 39
1, 161320, Note_on_c, 0, 72, 53
1, 161328, Note_on_c, 0, 64, 29
1, 161360, Control_c, 0, 64, 0
1, 161380, Control_c, 0, 64, 127
1, 161444, Note_off_c, 0, 64, 64
1, 161480, Note_off_c, 0, 61, 64
1, 161560, Note_on_c, 0, 70, 50
1, 161584, Note_off_c, 0, 72, 64
1, 161600, Note_off_c, 0, 55, 64
1, 161720, Note_on_c, 0, 68, 45
1, 161732, Note_on_c, 0, 63, 28
1, 161736, Note_on_c, 0, 56, 22
1, 161744, Note_on_c, 0, 60, 32
1, 161748, Note_off_c, 0, 70, 64
1, 161760, Control_c, 0, 64, 0
1, 161780, Control_c, 0, 64, 127
1, 161888, Note_off_c, 0, 68, 64
1, 161904, Note_on_c, 0, 70, 32
1, 161908, Note_off_c, 0, 60, 64
1, 161984, Note_off_c, 0, 70, 64
1, 161992, Note_off_c, 0, 63, 64
1, 162044, Note_off_c, 0, 56, 64
1, 162084, Note_on_c, 0, 71, 46
1, 162096, Note_on_c, 0, 51, 29
1, 162208, Note_on_c, 0, 73, 49
1, 162212, Note_off_c, 0, 71, 64
1, 162304, Note_off_c, 0, 73, 64
1, 162420, Note_on_c, 0, 72, 52
1, 162460, Note_off_c, 0, 72, 64
1, 162516, Note_on_c, 0, 72, 57
1, 162572, Note_on_c, 0, 63, 53
1, 162584, Note_on_c, 0, 56, 40
1, 162592, Note_off_c, 0, 72, 64
1, 162592, Note_on_c, 0, 61, 32
1, 162608, Note_off_c, 0, 51, 64
1, 162696, Control_c, 0, 64, 0
1, 162872, Note_on_c, 0, 55, 44
1, 162876, Note_off_c, 0, 56, 64
1, 162960, Note_on_c, 0, 53, 40
1, 162968, Note_off_c, 0, 55, 64
1, 163140, Note_off_c, 0, 53, 64
1, 163168, Note_on_c, 0, 55, 32
1, 163416, Note_on_c, 0, 51, 35
1, 163524, Control_c, 0, 64, 127
1, 163592, Note_off_c, 0, 55, 64
1, 163644, Note_off_c, 0, 51, 64
1, 163656, Note_off_c, 0, 63, 64
1, 163696, Note_off_c, 0, 61, 64
1, 164020, Note_on_c, 0, 72, 53
1, 164024, Note_on_c, 0, 61, 42
1, 164032, Note_on_c, 0, 55, 42
1, 164036, Note_on_c, 0, 64, 40
1, 164048, Control_c, 0, 64, 0
1, 164120, Control_c, 0, 64, 127
1, 164180, Note_off_c, 0, 61, 64
1, 164180, Note_off_c, 0, 64, 64
1, 164296, Note_off_c, 0, 55, 64
1, 164308, Note_on_c, 0, 70, 50
1, 164324, Note_off_c, 0, 72, 64
1, 164360, Note_on_c, 0, 56, 29
1, 164380, Note_on_c, 0, 63, 44
1, 164388, Note_on_c, 0, 68, 58
1, 164416, Note_off_c, 0, 70, 64
1, 164424, Note_on_c, 0, 60, 23
1, 164460, Control_c, 0, 64, 0
1, 164480, Control_c, 0, 64, 127
1, 164552, Note_on_c, 0, 70, 41
1, 164556, Note_off_c, 0, 56, 64
1, 164560, Note_off_c, 0, 68, 64
1, 164624, Note_off_c, 0, 60, 64
1, 164720, Note_on_c, 0, 72, 54
1, 164720, Note_on_c, 0, 51, 40
1, 164748, Control_c, 0, 64, 0
1, 164760, Note_off_c, 0, 70, 64
1, 164768, Control_c, 0, 64, 127
1, 164840, Note_off_c, 0, 51, 64
1, 164852, Note_off_c, 0, 63, 64
1, 165036, Note_on_c, 0, 61, 41
1, 165044, Note_on_c, 0, 64, 40
1, 165048, Note_on_c, 0, 55, 36
1, 165072, Control_c, 0, 64, 0
1, 165096, Control_c, 0, 64, 127
1, 165156, Note_off_c, 0, 64, 64
1, 165168, Note_off_c, 0, 61, 64
1, 165276, Note_off_c, 0, 55, 64
1, 165288, Note_on_c, 0, 70, 54
1, 165320, Note_off_c, 0, 72, 64
1, 165360, Note_on_c, 0, 63, 49
1, 165368, Note_on_c, 0, 56, 32
1, 165376, Note_on_c, 0, 60, 40
1, 165380, Note_on_c, 0, 68, 48
1, 165416, Note_off_c, 0, 70, 64
1, 165496, Note_off_c, 0, 60, 64
1, 165544, Note_on_c, 0, 79, 52
1, 165620, Note_off_c, 0, 68, 64
1, 165696, Note_on_c, 0, 77, 50
1, 165716, Note_on_c, 0, 59, 49
1, 165732, Note_off_c, 0, 56, 64
1, 165732, Note_off_c, 0, 79, 64
1, 165848, Note_off_c, 0, 59, 64
1, 166024, Note_off_c, 0, 77, 64
1, 166040, Note_on_c, 0, 70, 55
1, 166044, Note_on_c, 0, 67, 45
1, 166052, Note_on_c, 0, 51, 36
1, 166096, Control_c, 0, 64, 0
1, 166120, Control_c, 0, 64, 127
1, 166188, Note_off_c, 0, 67, 64
1, 166280, Note_off_c, 0, 63, 64
1, 166400, Note_off_c, 0, 51, 64
1, 166408, Note_on_c, 0, 68, 58
1, 166408, Note_on_c, 0, 62, 50
1, 166412, Note_on_c, 0, 59, 48
1, 166416, Note_off_c, 0, 70, 64
1, 166440, Control_c, 0, 64, 0
1, 166492, Control_c, 0, 64, 127
1, 166696, Note_on_c, 0, 79, 42
1, 166792, Note_on_c, 0, 77, 58
1, 166820, Note_off_c, 0, 79, 64
1, 166820, Note_on_c, 0, 51, 35
1, 166844, Control_c, 0, 64, 0
1, 166880, Note_off_c, 0, 59, 64
1, 166888, Control_c, 0, 64, 127
1, 166936, Note_off_c, 0, 62, 64
1, 167120, Note_off_c, 0, 68, 64
1, 167196, Note_on_c, 0, 68, 58
1, 167200, Note_off_c, 0, 51, 64
1, 167204, Note_off_c, 0, 77, 64
1, 167216, Note_on_c, 0, 59, 48
1, 167224, Note_on_c, 0, 62, 36
1, 167264, Control_c, 0, 64, 0
1, 167300, Control_c, 0, 64, 127
1, 167568, Note_on_c, 0, 79, 36
1, 167684, Note_on_c, 0, 77, 49
1, 167684, Note_on_c, 0, 51, 27
1, 167720, Note_off_c, 0, 79, 64
1, 167748, Control_c, 0, 64, 0
1, 167792, Note_off_c, 0, 59, 64
1, 167792, Control_c, 0, 64, 127
1, 167840, Note_off_c, 0, 62, 64
1, 168184, Note_off_c, 0, 68, 64
1, 168312, Note_off_c, 0, 77, 64
1, 168328, Note_on_c, 0, 70, 44
1, 168328, Note_on_c, 0, 67, 23
1, 168340, Note_on_c, 0, 63, 29
1, 168340, Note_on_c, 0, 58, 27
1, 168460, Control_c, 0, 64, 0
1, 168512, Control_c, 0, 64, 127
1, 168676, Note_off_c, 0, 51, 64
1, 168736, Note_off_c, 0, 63, 64
1, 168752, Note_off_c, 0, 58, 64
1, 168824, Note_off_c, 0, 70, 64
1, 168952, Note_off_c, 0, 67, 64
1, 169084, Note_on_c, 0, 72, 40
1, 169104, Note_on_c, 0, 61, 19
1, 169116, Note_on_c, 0, 64, 20
1, 169128, Note_on_c, 0, 55, 16
1, 169184, Control_c, 0, 64, 0
1, 169236, Control_c, 0, 64, 127
1, 169304, Note_off_c, 0, 64, 64
1, 169364, Note_off_c, 0, 61, 64
1, 169432, Note_on_c, 0, 70, 39
1, 169448, Note_off_c, 0, 72, 64
1, 169472, Note_off_c, 0, 55, 64
1, 169508, Note_on_c, 0, 63, 20
1, 169508, Note_on_c, 0, 68, 41
1, 169512, Note_on_c, 0, 56, 32
1, 169520, Note_on_c, 0, 60, 15
1, 169532, Note_off_c, 0, 70, 64
1, 169608, Control_c, 0, 64, 0
1, 169640, Control_c, 0, 64, 127
1, 169660, Note_off_c, 0, 60, 64
1, 169696, Note_on_c, 0, 70, 35
1, 169732, Note_off_c, 0, 68, 64
1, 169840, Note_off_c, 0, 56, 64
1, 169872, Note_on_c, 0, 72, 41
1, 169876, Note_off_c, 0, 70, 64
1, 169888, Note_on_c, 0, 51, 39
1, 169972, Note_off_c, 0, 63, 64
1, 170012, Note_off_c, 0, 51, 64
1, 170204, Note_on_c, 0, 61, 27
1, 170208, Note_on_c, 0, 55, 35
1, 170216, Note_on_c, 0, 64, 28
1, 170344, Note_off_c, 0, 64, 64
1, 170368, Note_off_c, 0, 61, 64
1, 170464, Note_on_c, 0, 70, 44
1, 170472, Note_off_c, 0, 72, 64
1, 170492, Note_off_c, 0, 55, 64
1, 170524, Note_on_c, 0, 68, 44
1, 170540, Note_off_c, 0, 70, 64
1, 170540, Note_on_c, 0, 56, 29
1, 170552, Note_on_c, 0, 63, 33
1, 170556, Note_on_c, 0, 60, 28
1, 170736, Note_on_c, 0, 77, 42
1, 170768, Note_off_c, 0, 68, 64
1, 170824, Note_off_c, 0, 60, 64
1, 170832, Note_off_c, 0, 56, 64
1, 170880, Note_on_c, 0, 75, 44
1, 170896, Note_on_c, 0, 51, 32
1, 170904, Note_off_c, 0, 77, 64
1, 170904, Control_c, 0, 64, 0
1, 170928, Control_c, 0, 64, 127
1, 170960, Note_off_c, 0, 75, 64
1, 171000, Note_off_c, 0, 51, 64
1, 171036, Note_off_c, 0, 63, 64
1, 171280, Note_on_c, 0, 72, 40
1, 171280, Note_on_c, 0, 61, 28
1, 171292, Note_on_c, 0, 64, 29
1, 171292, Note_on_c, 0, 55, 32
1, 171428, Note_off_c, 0, 61, 64
1, 171428, Note_off_c, 0, 64, 64
1, 171428, Note_on_c, 0, 71, 44
1, 171448, Note_off_c, 0, 72, 64
1, 171536, Note_on_c, 0, 70, 42
1, 171556, Note_off_c, 0, 71, 64
1, 171592, Note_off_c, 0, 55, 64
1, 171664, Note_on_c, 0, 67, 40
1, 171680, Note_off_c, 0, 70, 64
1, 171680, Note_on_c, 0, 63, 36
1, 171696, Note_on_c, 0, 60, 24
1, 171704, Note_on_c, 0, 56, 19
1, 171728, Control_c, 0, 64, 0
1, 171784, Control_c, 0, 64, 127
1, 171792, Note_on_c, 0, 68, 49
1, 171824, Note_off_c, 0, 67, 64
1, 171912, Note_off_c, 0, 60, 64
1, 171916, Note_off_c, 0, 56, 64
1, 171932, Note_on_c, 0, 70, 36
1, 171968, Note_off_c, 0, 68, 64
1, 172076, Note_on_c, 0, 51, 32
1, 172080, Note_on_c, 0, 71, 45
1, 172096, Note_off_c, 0, 70, 64
1, 172116, Note_off_c, 0, 63, 64
1, 172136, Control_c, 0, 64, 0
1, 172172, Control_c, 0, 64, 127
1, 172200, Note_on_c, 0, 73, 40
1, 172208, Note_off_c, 0, 71, 64
1, 172288, Note_off_c, 0, 73, 64
1, 172404, Note_on_c, 0, 72, 46
1, 172460, Note_off_c, 0, 72, 64
1, 172504, Note_on_c, 0, 72, 40
1, 172548, Note_on_c, 0, 63, 44
1, 172560, Note_off_c, 0, 72, 64
1, 172564, Note_on_c, 0, 56, 39
1, 172576, Note_on_c, 0, 61, 28
1, 172588, Note_off_c, 0, 51, 64
1, 172664, Control_c, 0, 64, 0
1, 172840, Note_off_c, 0, 56, 64
1, 172848, Note_on_c, 0, 55, 28
1, 172928, Note_on_c, 0, 53, 39
1, 172932, Note_off_c, 0, 55, 64
1, 173120, Note_off_c, 0, 53, 64
1, 173140, Note_on_c, 0, 55, 32
1, 173364, Note_on_c, 0, 51, 31
1, 173480, Tempo, 500000
1, 173480, Control_c, 0, 64, 127
1, 173524, Note_off_c, 0, 55, 64
1, 173572, Note_off_c, 0, 63, 64
1, 173608, Note_off_c, 0, 51, 64
1, 173636, Note_off_c, 0, 61, 64
1, 173932, Note_on_c, 0, 72, 67
1, 173944, Note_on_c, 0, 61, 42
1, 173948, Note_on_c, 0, 64, 42
1, 173948, Note_on_c, 0, 55, 40
1, 173984, Control_c, 0, 64, 0
1, 174004, Control_c, 0, 64, 127
1, 174080, Note_off_c, 0, 64, 64
1, 174092, Note_off_c, 0, 61, 64
1, 174204, Note_off_c, 0, 72, 64
1, 174204, Note_on_c, 0, 70, 39
1, 174212, Note_off_c, 0, 55, 64
1, 174276, Note_on_c, 0, 63, 50
1, 174280, Note_on_c, 0, 68, 52
1, 174308, Note_on_c, 0, 56, 19
1, 174316, Note_off_c, 0, 70, 64
1, 174316, Note_on_c, 0, 60, 24
1, 174324, Control_c, 0, 64, 0
1, 174348, Control_c, 0, 64, 127
1, 174432, Note_on_c, 0, 70, 53
1, 174464, Note_off_c, 0, 60, 64
1, 174476, Note_off_c, 0, 68, 64
1, 174524, Note_off_c, 0, 56, 64
1, 174600, Note_on_c, 0, 72, 58
1, 174620, Note_on_c, 0, 51, 42
1, 174628, Note_off_c, 0, 70, 64
1, 174720, Note_off_c, 0, 51, 64
1, 174740, Note_off_c, 0, 63, 64
1, 174940, Note_on_c, 0, 64, 44
1, 174940, Note_on_c, 0, 61, 35
1, 174948, Note_on_c, 0, 55, 44
1, 175020, Note_on_c, 0, 70, 44
1, 175028, Note_off_c, 0, 61, 64
1, 175032, Note_off_c, 0, 64, 64
1, 175040, Note_off_c, 0, 72, 64
1, 175084, Note_on_c, 0, 72, 54
1, 175108, Note_off_c, 0, 70, 64
1, 175116, Note_off_c, 0, 55, 64
1, 175156, Note_on_c, 0, 70, 44
1, 175164, Note_off_c, 0, 72, 64
1, 175232, Note_on_c, 0, 68, 68
1, 175232, Note_on_c, 0, 56, 48
1, 175244, Note_off_c, 0, 70, 64
1, 175244, Note_on_c, 0, 60, 52
1, 175244, Note_on_c, 0, 63, 48
1, 175284, Note_off_c, 0, 68, 64
1, 175336, Note_off_c, 0, 56, 64
1, 175336, Note_off_c, 0, 60, 64
1, 175396, Note_off_c, 0, 63, 64
1, 175512, Note_on_c, 0, 80, 57
1, 175592, Note_on_c, 0, 77, 63
1, 175604, Note_off_c, 0, 80, 64
1, 175608, Note_on_c, 0, 71, 54
1, 175608, Note_on_c, 0, 68, 57
1, 175608, Note_on_c, 0, 62, 53
1, 175732, Note_off_c, 0, 71, 64
1, 175752, Note_off_c, 0, 62, 64
1, 175760, Note_off_c, 0, 77, 64
1, 175772, Note_off_c, 0, 68, 64
1, 175972, Note_on_c, 0, 70, 58
1, 175976, Note_on_c, 0, 63, 58
1, 175992, Note_on_c, 0, 67, 42
1, 176028, Control_c, 0, 64, 0
1, 176044, Control_c, 0, 64, 127
1, 176124, Note_off_c, 0, 67, 64
1, 176292, Note_on_c, 0, 72, 54
1, 176316, Note_off_c, 0, 70, 64
1, 176352, Note_on_c, 0, 73, 68
1, 176360, Note_off_c, 0, 63, 64
1, 176360, Note_on_c, 0, 58, 50
1, 176376, Note_on_c, 0, 65, 44
1, 176380, Note_off_c, 0, 72, 64
1, 176396, Control_c, 0, 64, 0
1, 176416, Control_c, 0, 64, 127
1, 176684, Note_off_c, 0, 58, 64
1, 176692, Note_off_c, 0, 65, 64
1, 176768, Note_on_c, 0, 51, 26
1, 176772, Note_on_c, 0, 72, 58
1, 176776, Note_on_c, 0, 67, 57
1, 176780, Note_on_c, 0, 63, 45
1, 176788, Note_off_c, 0, 73, 64
1, 176816, Control_c, 0, 64, 0
1, 176856, Control_c, 0, 64, 127
1, 177128, Note_on_c, 0, 70, 54
1, 177140, Note_off_c, 0, 72, 64
1, 177140, Note_on_c, 0, 61, 52
1, 177152, Note_off_c, 0, 51, 64
1, 177176, Note_off_c, 0, 63, 64
1, 177188, Note_off_c, 0, 67, 64
1, 177260, Note_on_c, 0, 56, 37
1, 177260, Note_on_c, 0, 65, 58
1, 177264, Note_on_c, 0, 73, 61
1, 177264, Note_on_c, 0, 68, 63
1, 177280, Note_off_c, 0, 61, 64
1, 177288, Note_off_c, 0, 70, 64
1, 177380, Control_c, 0, 64, 0
1, 177448, Control_c, 0, 64, 127
1, 177808, Note_on_c, 0, 63, 39
1, 177820, Note_off_c, 0, 68, 64
1, 177820, Note_on_c, 0, 72, 52
1, 177828, Note_off_c, 0, 73, 64
1, 177960, Note_on_c, 0, 68, 52
1, 177964, Note_on_c, 0, 60, 19
1, 178036, Control_c, 0, 64, 0
1, 178044, Note_off_c, 0, 72, 64
1, 178048, Note_off_c, 0, 65, 64
1, 178052, Note_off_c, 0, 63, 64
1, 179940, Note_off_c, 0, 68, 64
1, 179944, Note_off_c, 0, 60, 64
1, 179948, Note_off_c, 0, 56, 64
1, 179948, End_track
2, 0, Start_track
2, 1, Copyright_t, "__________________________________________________________\012\012KUNSTDERFUGE.COM GREAT CLASSICAL MIDI COLLECTION\012__________________________________________________________\012\012KUNST-DER-FUGE CONTRIBUTOR's PROPERTY\012Copyright by Contributor & Kunst der Fuge, © 2006\012\012Contributors' list: http://kunstderfuge.com/thanks.htm\012Terms and conditions: http://kunstderfuge.com/notes.htm\012__________________________________________________________\012\012NO WEBSITE MAY PUBLISH THIS FILE WITHOUT PERMISSION\012NO COMMERCIAL USE ALLOWED, NOR BY SALES NOR by eBay!\012PLEASE REPORT ANY ABUSE TO INFO@ONCLASSICAL.COM\012__________________________________________________________\012\012Thousands of free classical MIDI files at kunstderfuge.com"
2, 1, End_track
0, 0, End_of_file
