0, 0, Header, 0, 2, 384
1, 0, Start_track
1, 0, Title_t, "Chopin's Mazurkas (played by © Ron Lubetsky)"
1, 0, Control_c, 0, 0, 0
1, 0, Program_c, 0, 0
1, 0, Time_signature, 4, 2, 96, 8
1, 0, Sequencer_specific, 3, 0, 0, 65
1, 0, Tempo, 500000
1, 612, Control_c, 0, 64, 127
1, 952, Control_c, 0, 64, 0
1, 1120, Note_on_c, 0, 76, 50
1, 1176, Control_c, 0, 64, 127
1, 1392, Control_c, 0, 64, 0
1, 1428, Note_on_c, 0, 77, 59
1, 1452, Note_off_c, 0, 76, 64
1, 1512, Control_c, 0, 64, 127
1, 1648, Note_on_c, 0, 76, 55
1, 1680, Note_off_c, 0, 77, 64
1, 1720, Note_on_c, 0, 57, 29
1, 1732, Note_on_c, 0, 65, 33
1, 1732, Note_on_c, 0, 62, 35
1, 1740, Control_c, 0, 64, 0
1, 1748, Note_on_c, 0, 74, 59
1, 1772, Note_off_c, 0, 76, 64
1, 1852, Control_c, 0, 64, 127
1, 2008, Note_off_c, 0, 57, 64
1, 2008, Note_off_c, 0, 65, 64
1, 2008, Note_off_c, 0, 62, 64
1, 2008, Note_off_c, 0, 74, 64
1, 2120, Note_on_c, 0, 77, 58
1, 2120, Note_on_c, 0, 62, 28
1, 2120, Note_on_c, 0, 57, 37
1, 2148, Note_on_c, 0, 65, 31
1, 2260, Control_c, 0, 64, 0
1, 2348, Control_c, 0, 64, 127
1, 2416, Note_off_c, 0, 62, 64
1, 2416, Note_off_c, 0, 57, 64
1, 2444, Note_off_c, 0, 65, 64
1, 2464, Note_off_c, 0, 77, 64
1, 2540, Note_on_c, 0, 77, 57
1, 2840, Note_on_c, 0, 57, 29
1, 2848, Note_on_c, 0, 60, 28
1, 2860, Note_on_c, 0, 65, 37
1, 2888, Control_c, 0, 64, 0
1, 2976, Control_c, 0, 64, 127
1, 3136, Note_off_c, 0, 57, 64
1, 3144, Note_off_c, 0, 60, 64
1, 3156, Note_off_c, 0, 65, 64
1, 3244, Note_on_c, 0, 76, 44
1, 3252, Note_on_c, 0, 60, 24
1, 3264, Note_on_c, 0, 57, 22
1, 3268, Note_on_c, 0, 64, 27
1, 3272, Note_off_c, 0, 77, 64
1, 3292, Control_c, 0, 64, 0
1, 3384, Control_c, 0, 64, 127
1, 3504, Note_off_c, 0, 76, 64
1, 3520, Note_off_c, 0, 64, 64
1, 3528, Note_off_c, 0, 60, 64
1, 3544, Note_off_c, 0, 57, 64
1, 3564, Note_on_c, 0, 74, 49
1, 3624, Note_off_c, 0, 74, 64
1, 3640, Note_on_c, 0, 76, 50
1, 3688, Note_on_c, 0, 74, 52
1, 3704, Note_off_c, 0, 76, 64
1, 3772, Note_on_c, 0, 73, 53
1, 3784, Note_off_c, 0, 74, 64
1, 3848, Control_c, 0, 64, 0
1, 3856, Note_on_c, 0, 62, 57
1, 3864, Note_on_c, 0, 56, 41
1, 3864, Note_on_c, 0, 52, 55
1, 3880, Note_off_c, 0, 73, 64
1, 3880, Note_on_c, 0, 74, 55
1, 3932, Control_c, 0, 64, 127
1, 4004, Note_on_c, 0, 75, 58
1, 4060, Note_off_c, 0, 74, 64
1, 4112, Note_off_c, 0, 62, 64
1, 4120, Note_off_c, 0, 56, 64
1, 4120, Note_off_c, 0, 52, 64
1, 4136, Note_on_c, 0, 62, 53
1, 4136, Note_on_c, 0, 56, 36
1, 4144, Note_on_c, 0, 76, 62
1, 4144, Note_on_c, 0, 52, 50
1, 4160, Note_off_c, 0, 75, 64
1, 4160, Control_c, 0, 64, 0
1, 4216, Control_c, 0, 64, 127
1, 4268, Note_on_c, 0, 71, 63
1, 4296, Note_off_c, 0, 76, 64
1, 4380, Note_off_c, 0, 56, 64
1, 4384, Note_off_c, 0, 62, 64
1, 4392, Control_c, 0, 64, 0
1, 4400, Note_off_c, 0, 52, 64
1, 4416, Note_on_c, 0, 74, 70
1, 4448, Note_off_c, 0, 71, 64
1, 4468, Control_c, 0, 64, 127
1, 4744, Note_on_c, 0, 45, 44
1, 5128, Note_on_c, 0, 72, 53
1, 5128, Note_on_c, 0, 52, 33
1, 5136, Note_on_c, 0, 60, 33
1, 5160, Note_off_c, 0, 74, 64
1, 5168, Control_c, 0, 64, 0
1, 5236, Control_c, 0, 64, 127
1, 5320, Note_off_c, 0, 45, 64
1, 5492, Note_off_c, 0, 72, 64
1, 5520, Note_off_c, 0, 52, 64
1, 5528, Note_on_c, 0, 69, 52
1, 5532, Note_off_c, 0, 60, 64
1, 5640, Note_on_c, 0, 71, 36
1, 5648, Note_off_c, 0, 69, 64
1, 5708, Note_on_c, 0, 69, 58
1, 5728, Note_off_c, 0, 71, 64
1, 5776, Note_on_c, 0, 52, 46
1, 5784, Note_on_c, 0, 60, 40
1, 5788, Note_on_c, 0, 68, 72
1, 5800, Note_off_c, 0, 69, 64
1, 5808, Control_c, 0, 64, 0
1, 5856, Control_c, 0, 64, 127
1, 6060, Note_on_c, 0, 69, 65
1, 6068, Note_on_c, 0, 45, 49
1, 6076, Control_c, 0, 64, 0
1, 6084, Note_off_c, 0, 68, 64
1, 6140, Note_off_c, 0, 52, 64
1, 6144, Control_c, 0, 64, 127
1, 6156, Note_off_c, 0, 60, 64
1, 6268, Note_off_c, 0, 45, 64
1, 6324, Note_on_c, 0, 71, 79
1, 6360, Note_off_c, 0, 69, 64
1, 6584, Note_on_c, 0, 76, 75
1, 6592, Note_on_c, 0, 55, 26
1, 6596, Note_on_c, 0, 52, 26
1, 6600, Note_off_c, 0, 71, 64
1, 6600, Note_on_c, 0, 59, 24
1, 6632, Control_c, 0, 64, 0
1, 6748, Control_c, 0, 64, 127
1, 6888, Note_off_c, 0, 76, 64
1, 6896, Note_on_c, 0, 47, 24
1, 7124, Note_off_c, 0, 47, 64
1, 7144, Note_off_c, 0, 55, 64
1, 7148, Note_off_c, 0, 52, 64
1, 7152, Note_off_c, 0, 59, 64
1, 7220, Control_c, 0, 64, 0
1, 7228, Note_on_c, 0, 71, 70
1, 7272, Control_c, 0, 64, 127
1, 7356, Note_on_c, 0, 67, 74
1, 7392, Note_off_c, 0, 71, 64
1, 7504, Note_off_c, 0, 67, 64
1, 7504, Note_on_c, 0, 47, 61
1, 7504, Note_on_c, 0, 59, 58
1, 7504, Note_on_c, 0, 64, 78
1, 7516, Note_on_c, 0, 55, 58
1, 7524, Control_c, 0, 64, 0
1, 7576, Control_c, 0, 64, 127
1, 7636, Note_on_c, 0, 71, 72
1, 7668, Note_off_c, 0, 64, 64
1, 7768, Note_off_c, 0, 47, 64
1, 7768, Note_off_c, 0, 59, 64
1, 7780, Note_off_c, 0, 55, 64
1, 7784, Note_on_c, 0, 54, 62
1, 7788, Note_on_c, 0, 59, 66
1, 7792, Note_on_c, 0, 63, 81
1, 7792, Note_on_c, 0, 47, 62
1, 7804, Note_off_c, 0, 71, 64
1, 7820, Control_c, 0, 64, 0
1, 7920, Control_c, 0, 64, 127
1, 8048, Note_off_c, 0, 54, 64
1, 8052, Note_off_c, 0, 59, 64
1, 8056, Note_off_c, 0, 47, 64
1, 8168, Note_on_c, 0, 64, 70
1, 8176, Note_off_c, 0, 63, 64
1, 8180, Note_on_c, 0, 59, 57
1, 8180, Note_on_c, 0, 52, 62
1, 8180, Note_on_c, 0, 55, 61
1, 8192, Control_c, 0, 64, 0
1, 8300, Control_c, 0, 64, 127
1, 8444, Note_off_c, 0, 59, 64
1, 8444, Note_off_c, 0, 52, 64
1, 8444, Note_off_c, 0, 55, 64
1, 8668, Note_on_c, 0, 40, 68
1, 8696, Control_c, 0, 64, 0
1, 8768, Control_c, 0, 64, 127
1, 8844, Note_off_c, 0, 64, 64
1, 9124, Note_off_c, 0, 40, 64
1, 9136, Note_on_c, 0, 76, 53
1, 9408, Note_on_c, 0, 77, 55
1, 9428, Control_c, 0, 64, 0
1, 9440, Note_off_c, 0, 76, 64
1, 9528, Control_c, 0, 64, 127
1, 9616, Note_on_c, 0, 76, 48
1, 9624, Note_off_c, 0, 77, 64
1, 9672, Note_on_c, 0, 65, 37
1, 9672, Note_on_c, 0, 62, 41
1, 9672, Note_on_c, 0, 57, 53
1, 9688, Note_on_c, 0, 74, 52
1, 9720, Note_off_c, 0, 76, 64
1, 9732, Control_c, 0, 64, 0
1, 9784, Control_c, 0, 64, 127
1, 9968, Note_off_c, 0, 65, 64
1, 9968, Note_off_c, 0, 62, 64
1, 9968, Note_off_c, 0, 57, 64
1, 9968, Note_on_c, 0, 77, 59
1, 9980, Control_c, 0, 64, 0
1, 9988, Note_off_c, 0, 74, 64
1, 9992, Note_on_c, 0, 65, 42
1, 9992, Note_on_c, 0, 62, 33
1, 9992, Note_on_c, 0, 57, 48
1, 10064, Control_c, 0, 64, 127
1, 10092, Note_off_c, 0, 77, 64
1, 10232, Note_off_c, 0, 62, 64
1, 10236, Note_off_c, 0, 57, 64
1, 10244, Note_off_c, 0, 65, 64
1, 10256, Note_on_c, 0, 77, 67
1, 10260, Control_c, 0, 64, 0
1, 10328, Control_c, 0, 64, 127
1, 10520, Note_on_c, 0, 57, 35
1, 10524, Note_on_c, 0, 60, 40
1, 10544, Note_on_c, 0, 65, 36
1, 10552, Control_c, 0, 64, 0
1, 10592, Control_c, 0, 64, 127
1, 10816, Note_off_c, 0, 57, 64
1, 10820, Note_off_c, 0, 60, 64
1, 10828, Note_on_c, 0, 76, 52
1, 10832, Note_on_c, 0, 57, 41
1, 10840, Note_off_c, 0, 65, 64
1, 10840, Note_on_c, 0, 60, 33
1, 10848, Note_on_c, 0, 64, 29
1, 10872, Note_off_c, 0, 77, 64
1, 10876, Control_c, 0, 64, 0
1, 10948, Control_c, 0, 64, 127
1, 11024, Note_off_c, 0, 76, 64
1, 11080, Note_off_c, 0, 60, 64
1, 11084, Note_off_c, 0, 64, 64
1, 11088, Note_off_c, 0, 57, 64
1, 11132, Note_on_c, 0, 74, 53
1, 11188, Note_on_c, 0, 76, 41
1, 11200, Note_off_c, 0, 74, 64
1, 11248, Note_on_c, 0, 74, 59
1, 11264, Note_off_c, 0, 76, 64
1, 11336, Note_off_c, 0, 74, 64
1, 11336, Note_on_c, 0, 73, 67
1, 11364, Note_on_c, 0, 52, 57
1, 11376, Note_on_c, 0, 62, 57
1, 11376, Note_on_c, 0, 56, 45
1, 11396, Control_c, 0, 64, 0
1, 11436, Note_on_c, 0, 74, 62
1, 11456, Note_off_c, 0, 73, 64
1, 11480, Control_c, 0, 64, 127
1, 11540, Note_on_c, 0, 75, 55
1, 11600, Note_off_c, 0, 74, 64
1, 11628, Note_off_c, 0, 52, 64
1, 11640, Note_off_c, 0, 62, 64
1, 11640, Note_off_c, 0, 56, 64
1, 11648, Control_c, 0, 64, 0
1, 11660, Note_on_c, 0, 56, 33
1, 11664, Note_on_c, 0, 62, 44
1, 11668, Note_on_c, 0, 76, 59
1, 11672, Note_on_c, 0, 52, 45
1, 11684, Note_off_c, 0, 75, 64
1, 11716, Control_c, 0, 64, 127
1, 11772, Note_on_c, 0, 71, 62
1, 11804, Note_off_c, 0, 76, 64
1, 11856, Note_off_c, 0, 71, 64
1, 11908, Note_on_c, 0, 71, 59
1, 11928, Note_off_c, 0, 52, 64
1, 11952, Note_off_c, 0, 56, 64
1, 11964, Control_c, 0, 64, 0
1, 11980, Note_off_c, 0, 62, 64
1, 12000, Note_on_c, 0, 74, 62
1, 12008, Note_off_c, 0, 71, 64
1, 12044, Control_c, 0, 64, 127
1, 12464, Note_on_c, 0, 57, 31
1, 12472, Note_on_c, 0, 53, 31
1, 12472, Control_c, 0, 64, 0
1, 12476, Note_on_c, 0, 62, 32
1, 12544, Control_c, 0, 64, 127
1, 12768, Note_off_c, 0, 57, 64
1, 12776, Note_off_c, 0, 53, 64
1, 12780, Note_off_c, 0, 62, 64
1, 12880, Note_on_c, 0, 72, 46
1, 12916, Note_on_c, 0, 57, 29
1, 12932, Note_off_c, 0, 74, 64
1, 12932, Note_on_c, 0, 53, 24
1, 12932, Note_on_c, 0, 60, 32
1, 12992, Control_c, 0, 64, 0
1, 13076, Control_c, 0, 64, 127
1, 13224, Note_off_c, 0, 53, 64
1, 13268, Note_off_c, 0, 57, 64
1, 13276, Note_off_c, 0, 72, 64
1, 13280, Note_on_c, 0, 69, 59
1, 13296, Note_off_c, 0, 60, 64
1, 13416, Note_on_c, 0, 70, 75
1, 13452, Note_off_c, 0, 69, 64
1, 13520, Note_on_c, 0, 69, 61
1, 13544, Note_off_c, 0, 70, 64
1, 13632, Note_on_c, 0, 63, 40
1, 13636, Note_on_c, 0, 53, 40
1, 13636, Note_on_c, 0, 67, 70
1, 13648, Note_off_c, 0, 69, 64
1, 13648, Note_on_c, 0, 60, 36
1, 13664, Control_c, 0, 64, 0
1, 13740, Control_c, 0, 64, 127
1, 13936, Note_off_c, 0, 63, 64
1, 13940, Note_off_c, 0, 53, 64
1, 13952, Note_off_c, 0, 60, 64
1, 14000, Note_on_c, 0, 69, 65
1, 14024, Note_on_c, 0, 63, 37
1, 14032, Note_on_c, 0, 60, 50
1, 14040, Note_off_c, 0, 67, 64
1, 14040, Note_on_c, 0, 53, 36
1, 14056, Control_c, 0, 64, 0
1, 14120, Control_c, 0, 64, 127
1, 14328, Note_off_c, 0, 63, 64
1, 14336, Note_off_c, 0, 60, 64
1, 14344, Note_off_c, 0, 53, 64
1, 14492, Note_on_c, 0, 70, 66
1, 14496, Note_on_c, 0, 58, 35
1, 14496, Note_on_c, 0, 62, 41
1, 14508, Note_off_c, 0, 69, 64
1, 14576, Control_c, 0, 64, 0
1, 14676, Control_c, 0, 64, 127
1, 15112, Note_on_c, 0, 74, 41
1, 15128, Note_on_c, 0, 65, 28
1, 15140, Note_off_c, 0, 70, 64
1, 15144, Note_off_c, 0, 62, 64
1, 15168, Control_c, 0, 64, 0
1, 15328, Control_c, 0, 64, 127
1, 15596, Note_off_c, 0, 58, 64
1, 15816, Note_off_c, 0, 65, 64
1, 15868, Note_off_c, 0, 74, 64
1, 16292, Note_on_c, 0, 69, 55
1, 16452, Control_c, 0, 64, 0
1, 16520, Note_on_c, 0, 68, 66
1, 16540, Note_off_c, 0, 69, 64
1, 16616, Note_on_c, 0, 64, 44
1, 16628, Note_on_c, 0, 62, 57
1, 16640, Note_off_c, 0, 68, 64
1, 16640, Note_on_c, 0, 52, 40
1, 16640, Note_on_c, 0, 59, 45
1, 16716, Control_c, 0, 64, 127
1, 16884, Note_off_c, 0, 62, 64
1, 16896, Note_off_c, 0, 52, 64
1, 16896, Note_off_c, 0, 59, 64
1, 16920, Note_on_c, 0, 52, 48
1, 16928, Note_on_c, 0, 68, 66
1, 16936, Note_on_c, 0, 62, 54
1, 16944, Note_off_c, 0, 64, 64
1, 16944, Note_on_c, 0, 59, 36
1, 16952, Control_c, 0, 64, 0
1, 17008, Control_c, 0, 64, 127
1, 17176, Note_off_c, 0, 52, 64
1, 17192, Note_off_c, 0, 62, 64
1, 17200, Note_off_c, 0, 59, 64
1, 17256, Note_on_c, 0, 69, 67
1, 17260, Note_on_c, 0, 60, 65
1, 17272, Note_off_c, 0, 68, 64
1, 17272, Note_on_c, 0, 45, 36
1, 17280, Note_on_c, 0, 52, 33
1, 17292, Control_c, 0, 64, 0
1, 17360, Control_c, 0, 64, 127
1, 17608, Note_off_c, 0, 52, 64
1, 17684, Note_off_c, 0, 45, 64
1, 17736, Note_on_c, 0, 33, 44
1, 17768, Control_c, 0, 64, 0
1, 17828, Note_off_c, 0, 60, 64
1, 17840, Control_c, 0, 64, 127
1, 17900, Note_off_c, 0, 69, 64
1, 18160, Note_on_c, 0, 76, 45
1, 18168, Control_c, 0, 64, 0
1, 18184, Note_off_c, 0, 33, 64
1, 18260, Control_c, 0, 64, 127
1, 18440, Note_on_c, 0, 77, 44
1, 18464, Note_off_c, 0, 76, 64
1, 18640, Note_on_c, 0, 76, 36
1, 18648, Note_off_c, 0, 77, 64
1, 18696, Note_on_c, 0, 57, 39
1, 18708, Note_on_c, 0, 62, 32
1, 18712, Control_c, 0, 64, 0
1, 18724, Note_on_c, 0, 65, 26
1, 18728, Note_on_c, 0, 74, 41
1, 18744, Note_off_c, 0, 76, 64
1, 18808, Control_c, 0, 64, 127
1, 18952, Note_off_c, 0, 57, 64
1, 18964, Note_off_c, 0, 62, 64
1, 18980, Note_off_c, 0, 65, 64
1, 18988, Note_on_c, 0, 77, 45
1, 19004, Note_on_c, 0, 62, 28
1, 19004, Control_c, 0, 64, 0
1, 19016, Note_on_c, 0, 57, 27
1, 19016, Note_on_c, 0, 65, 24
1, 19036, Note_off_c, 0, 74, 64
1, 19084, Control_c, 0, 64, 127
1, 19120, Note_off_c, 0, 77, 64
1, 19256, Note_off_c, 0, 57, 64
1, 19268, Note_off_c, 0, 62, 64
1, 19280, Note_off_c, 0, 65, 64
1, 19280, Note_on_c, 0, 77, 49
1, 19532, Note_on_c, 0, 60, 35
1, 19540, Note_on_c, 0, 57, 24
1, 19548, Control_c, 0, 64, 0
1, 19556, Note_on_c, 0, 65, 28
1, 19616, Control_c, 0, 64, 127
1, 19788, Note_off_c, 0, 60, 64
1, 19796, Note_off_c, 0, 57, 64
1, 19812, Note_off_c, 0, 65, 64
1, 19836, Note_on_c, 0, 60, 26
1, 19840, Note_on_c, 0, 57, 31
1, 19844, Note_on_c, 0, 64, 26
1, 19844, Note_on_c, 0, 76, 36
1, 19872, Note_off_c, 0, 77, 64
1, 19872, Control_c, 0, 64, 0
1, 19920, Control_c, 0, 64, 127
1, 20032, Note_off_c, 0, 76, 64
1, 20072, Note_on_c, 0, 74, 36
1, 20096, Note_off_c, 0, 60, 64
1, 20100, Note_off_c, 0, 64, 64
1, 20112, Note_off_c, 0, 57, 64
1, 20116, Control_c, 0, 64, 0
1, 20132, Note_on_c, 0, 76, 37
1, 20168, Note_off_c, 0, 74, 64
1, 20172, Control_c, 0, 64, 127
1, 20200, Note_on_c, 0, 74, 44
1, 20208, Note_off_c, 0, 76, 64
1, 20280, Note_on_c, 0, 73, 52
1, 20292, Note_off_c, 0, 74, 64
1, 20356, Note_on_c, 0, 56, 40
1, 20364, Note_on_c, 0, 62, 31
1, 20372, Note_on_c, 0, 52, 23
1, 20380, Control_c, 0, 64, 0
1, 20396, Note_on_c, 0, 74, 49
1, 20424, Note_off_c, 0, 73, 64
1, 20432, Control_c, 0, 64, 127
1, 20492, Note_on_c, 0, 75, 42
1, 20524, Note_off_c, 0, 74, 64
1, 20612, Note_off_c, 0, 56, 64
1, 20620, Note_off_c, 0, 62, 64
1, 20624, Note_on_c, 0, 56, 29
1, 20624, Note_on_c, 0, 76, 44
1, 20624, Control_c, 0, 64, 0
1, 20628, Note_off_c, 0, 52, 64
1, 20640, Note_off_c, 0, 75, 64
1, 20640, Note_on_c, 0, 62, 36
1, 20640, Note_on_c, 0, 52, 36
1, 20728, Control_c, 0, 64, 127
1, 20740, Note_on_c, 0, 71, 41
1, 20768, Note_off_c, 0, 76, 64
1, 20824, Note_off_c, 0, 62, 64
1, 20840, Note_off_c, 0, 56, 64
1, 20852, Note_off_c, 0, 52, 64
1, 20856, Control_c, 0, 64, 0
1, 20872, Note_on_c, 0, 74, 46
1, 20916, Note_off_c, 0, 71, 64
1, 20928, Control_c, 0, 64, 127
1, 21132, Note_on_c, 0, 45, 36
1, 21188, Control_c, 0, 64, 0
1, 21252, Control_c, 0, 64, 127
1, 21452, Note_on_c, 0, 72, 41
1, 21468, Note_on_c, 0, 52, 24
1, 21480, Note_on_c, 0, 60, 19
1, 21496, Control_c, 0, 64, 0
1, 21504, Note_off_c, 0, 74, 64
1, 21568, Control_c, 0, 64, 127
1, 21588, Note_off_c, 0, 45, 64
1, 21768, Note_off_c, 0, 72, 64
1, 21768, Note_on_c, 0, 69, 45
1, 21820, Note_off_c, 0, 52, 64
1, 21844, Note_off_c, 0, 60, 64
1, 21856, Note_on_c, 0, 71, 39
1, 21868, Note_off_c, 0, 69, 64
1, 21944, Note_off_c, 0, 71, 64
1, 21944, Note_on_c, 0, 69, 46
1, 22012, Note_on_c, 0, 60, 32
1, 22012, Note_on_c, 0, 52, 32
1, 22016, Control_c, 0, 64, 0
1, 22024, Note_on_c, 0, 68, 48
1, 22064, Note_off_c, 0, 69, 64
1, 22088, Control_c, 0, 64, 127
1, 22288, Note_on_c, 0, 69, 48
1, 22300, Note_on_c, 0, 45, 27
1, 22304, Control_c, 0, 64, 0
1, 22312, Note_off_c, 0, 68, 64
1, 22388, Control_c, 0, 64, 127
1, 22396, Note_off_c, 0, 60, 64
1, 22396, Note_off_c, 0, 52, 64
1, 22544, Note_on_c, 0, 71, 52
1, 22556, Note_off_c, 0, 45, 64
1, 22576, Note_off_c, 0, 69, 64
1, 22848, Note_on_c, 0, 76, 57
1, 22852, Note_on_c, 0, 59, 27
1, 22860, Note_on_c, 0, 52, 33
1, 22860, Note_on_c, 0, 55, 33
1, 22864, Note_off_c, 0, 71, 64
1, 22876, Control_c, 0, 64, 0
1, 22964, Tempo, 500000
1, 22964, Control_c, 0, 64, 127
1, 23200, Note_off_c, 0, 52, 64
1, 23208, Control_c, 0, 64, 0
1, 23216, Note_on_c, 0, 47, 44
1, 23268, Control_c, 0, 64, 127
1, 23292, Note_off_c, 0, 76, 64
1, 23492, Note_off_c, 0, 47, 64
1, 23504, Note_off_c, 0, 55, 64
1, 23524, Note_off_c, 0, 59, 64
1, 23596, Note_on_c, 0, 71, 54
1, 23700, Note_on_c, 0, 67, 52
1, 23740, Note_off_c, 0, 71, 64
1, 23796, Control_c, 0, 64, 0
1, 23812, Note_on_c, 0, 64, 62
1, 23824, Note_on_c, 0, 59, 52
1, 23824, Note_on_c, 0, 47, 49
1, 23824, Note_on_c, 0, 55, 52
1, 23836, Note_off_c, 0, 67, 64
1, 23884, Control_c, 0, 64, 127
1, 23944, Note_on_c, 0, 71, 58
1, 23984, Note_off_c, 0, 64, 64
1, 23988, Note_off_c, 0, 47, 64
1, 23988, Note_off_c, 0, 55, 64
1, 23992, Note_off_c, 0, 59, 64
1, 24072, Note_on_c, 0, 63, 62
1, 24076, Note_on_c, 0, 59, 54
1, 24076, Note_on_c, 0, 54, 54
1, 24088, Note_on_c, 0, 47, 49
1, 24104, Note_off_c, 0, 71, 64
1, 24108, Control_c, 0, 64, 0
1, 24196, Control_c, 0, 64, 127
1, 24284, Note_off_c, 0, 47, 64
1, 24312, Note_off_c, 0, 54, 64
1, 24348, Note_off_c, 0, 59, 64
1, 24436, Note_on_c, 0, 64, 54
1, 24436, Control_c, 0, 64, 0
1, 24448, Note_on_c, 0, 52, 50
1, 24448, Note_on_c, 0, 59, 46
1, 24448, Note_on_c, 0, 55, 49
1, 24452, Note_off_c, 0, 63, 64
1, 24536, Control_c, 0, 64, 127
1, 24836, Note_off_c, 0, 59, 64
1, 24860, Note_off_c, 0, 55, 64
1, 24900, Note_off_c, 0, 52, 64
1, 24900, Note_on_c, 0, 40, 55
1, 24924, Control_c, 0, 64, 0
1, 24996, Control_c, 0, 64, 127
1, 25128, Note_off_c, 0, 64, 64
1, 25288, Note_on_c, 0, 76, 41
1, 25340, Control_c, 0, 64, 0
1, 25356, Note_off_c, 0, 40, 64
1, 25416, Control_c, 0, 64, 127
1, 25564, Control_c, 0, 64, 0
1, 25572, Note_on_c, 0, 77, 41
1, 25604, Note_off_c, 0, 76, 64
1, 25624, Control_c, 0, 64, 127
1, 25760, Note_on_c, 0, 76, 36
1, 25792, Note_off_c, 0, 77, 64
1, 25808, Note_on_c, 0, 57, 29
1, 25820, Note_on_c, 0, 65, 26
1, 25828, Note_on_c, 0, 62, 23
1, 25832, Note_on_c, 0, 74, 32
1, 25844, Control_c, 0, 64, 0
1, 25864, Note_off_c, 0, 76, 64
1, 25912, Control_c, 0, 64, 127
1, 26080, Note_off_c, 0, 57, 64
1, 26092, Note_off_c, 0, 65, 64
1, 26096, Note_on_c, 0, 77, 41
1, 26100, Note_off_c, 0, 62, 64
1, 26104, Control_c, 0, 64, 0
1, 26112, Note_on_c, 0, 65, 23
1, 26112, Note_on_c, 0, 62, 24
1, 26116, Note_on_c, 0, 57, 24
1, 26132, Note_off_c, 0, 74, 64
1, 26176, Control_c, 0, 64, 127
1, 26220, Note_off_c, 0, 77, 64
1, 26368, Note_on_c, 0, 77, 45
1, 26384, Note_off_c, 0, 57, 64
1, 26392, Note_off_c, 0, 65, 64
1, 26396, Note_off_c, 0, 62, 64
1, 26608, Note_on_c, 0, 60, 28
1, 26612, Note_on_c, 0, 57, 27
1, 26616, Note_on_c, 0, 65, 26
1, 26640, Control_c, 0, 64, 0
1, 26692, Control_c, 0, 64, 127
1, 26880, Note_off_c, 0, 60, 64
1, 26884, Note_off_c, 0, 57, 64
1, 26888, Note_off_c, 0, 65, 64
1, 26892, Control_c, 0, 64, 0
1, 26908, Note_on_c, 0, 64, 29
1, 26908, Note_on_c, 0, 60, 28
1, 26908, Note_on_c, 0, 57, 28
1, 26916, Note_on_c, 0, 76, 45
1, 26944, Note_off_c, 0, 77, 64
1, 26980, Control_c, 0, 64, 127
1, 27080, Note_off_c, 0, 76, 64
1, 27152, Note_on_c, 0, 74, 31
1, 27164, Control_c, 0, 64, 0
1, 27180, Note_off_c, 0, 64, 64
1, 27180, Note_off_c, 0, 60, 64
1, 27180, Note_off_c, 0, 57, 64
1, 27208, Note_on_c, 0, 76, 40
1, 27228, Control_c, 0, 64, 127
1, 27240, Note_off_c, 0, 74, 64
1, 27268, Note_on_c, 0, 74, 41
1, 27280, Note_off_c, 0, 76, 64
1, 27340, Note_on_c, 0, 73, 46
1, 27356, Note_off_c, 0, 74, 64
1, 27424, Note_on_c, 0, 52, 26
1, 27424, Note_on_c, 0, 56, 24
1, 27436, Note_on_c, 0, 62, 28
1, 27436, Note_on_c, 0, 74, 42
1, 27444, Control_c, 0, 64, 0
1, 27476, Note_off_c, 0, 73, 64
1, 27492, Control_c, 0, 64, 127
1, 27544, Note_on_c, 0, 75, 41
1, 27580, Note_off_c, 0, 74, 64
1, 27664, Note_off_c, 0, 52, 64
1, 27664, Note_off_c, 0, 56, 64
1, 27676, Note_off_c, 0, 62, 64
1, 27684, Note_on_c, 0, 76, 40
1, 27684, Note_on_c, 0, 62, 26
1, 27692, Note_on_c, 0, 56, 20
1, 27696, Control_c, 0, 64, 0
1, 27708, Note_off_c, 0, 75, 64
1, 27708, Note_on_c, 0, 52, 24
1, 27740, Control_c, 0, 64, 127
1, 27768, Note_on_c, 0, 71, 46
1, 27812, Note_off_c, 0, 76, 64
1, 27828, Note_off_c, 0, 71, 64
1, 27884, Note_on_c, 0, 71, 45
1, 27924, Note_off_c, 0, 62, 64
1, 27932, Note_off_c, 0, 56, 64
1, 27948, Note_off_c, 0, 52, 64
1, 27952, Control_c, 0, 64, 0
1, 27968, Note_on_c, 0, 74, 46
1, 27984, Note_off_c, 0, 71, 64
1, 28028, Control_c, 0, 64, 127
1, 28356, Note_on_c, 0, 53, 19
1, 28372, Note_on_c, 0, 62, 19
1, 28372, Note_on_c, 0, 57, 26
1, 28388, Control_c, 0, 64, 0
1, 28452, Control_c, 0, 64, 127
1, 28652, Note_off_c, 0, 53, 64
1, 28668, Note_off_c, 0, 62, 64
1, 28668, Note_off_c, 0, 57, 64
1, 28760, Note_on_c, 0, 72, 41
1, 28796, Note_on_c, 0, 57, 18
1, 28800, Note_off_c, 0, 74, 64
1, 28800, Note_on_c, 0, 60, 22
1, 28800, Note_on_c, 0, 53, 16
1, 28852, Control_c, 0, 64, 0
1, 28952, Control_c, 0, 64, 127
1, 29132, Note_off_c, 0, 53, 64
1, 29144, Note_off_c, 0, 72, 64
1, 29144, Note_off_c, 0, 57, 64
1, 29148, Note_on_c, 0, 69, 46
1, 29156, Note_off_c, 0, 60, 64
1, 29244, Note_on_c, 0, 70, 49
1, 29272, Note_off_c, 0, 69, 64
1, 29356, Note_on_c, 0, 69, 46
1, 29372, Note_off_c, 0, 70, 64
1, 29444, Note_on_c, 0, 63, 31
1, 29448, Control_c, 0, 64, 0
1, 29460, Note_on_c, 0, 60, 33
1, 29460, Note_on_c, 0, 53, 39
1, 29460, Note_on_c, 0, 67, 49
1, 29468, Note_off_c, 0, 69, 64
1, 29528, Control_c, 0, 64, 127
1, 29740, Note_off_c, 0, 63, 64
1, 29756, Note_off_c, 0, 60, 64
1, 29756, Note_off_c, 0, 53, 64
1, 29780, Note_on_c, 0, 60, 26
1, 29784, Note_on_c, 0, 69, 52
1, 29792, Note_on_c, 0, 53, 31
1, 29792, Note_on_c, 0, 63, 31
1, 29824, Note_off_c, 0, 67, 64
1, 29840, Control_c, 0, 64, 0
1, 29932, Control_c, 0, 64, 127
1, 30076, Note_off_c, 0, 60, 64
1, 30088, Note_off_c, 0, 53, 64
1, 30088, Note_off_c, 0, 63, 64
1, 30228, Note_on_c, 0, 58, 26
1, 30228, Note_on_c, 0, 62, 32
1, 30232, Note_on_c, 0, 70, 49
1, 30272, Note_off_c, 0, 69, 64
1, 30324, Control_c, 0, 64, 0
1, 30408, Control_c, 0, 64, 127
1, 30840, Note_on_c, 0, 65, 23
1, 30852, Note_on_c, 0, 74, 41
1, 30880, Note_off_c, 0, 70, 64
1, 30892, Note_off_c, 0, 62, 64
1, 30952, Control_c, 0, 64, 0
1, 31056, Control_c, 0, 64, 127
1, 31380, Note_off_c, 0, 58, 64
1, 31380, Note_off_c, 0, 65, 64
1, 31380, Note_off_c, 0, 74, 64
1, 31660, Control_c, 0, 64, 0
1, 31936, Note_on_c, 0, 69, 57
1, 31988, Control_c, 0, 64, 0
1, 32056, Control_c, 0, 64, 127
1, 32156, Note_on_c, 0, 68, 41
1, 32172, Note_off_c, 0, 69, 64
1, 32220, Note_on_c, 0, 64, 57
1, 32228, Note_on_c, 0, 52, 48
1, 32236, Note_on_c, 0, 59, 44
1, 32244, Control_c, 0, 64, 0
1, 32252, Note_off_c, 0, 68, 64
1, 32252, Note_on_c, 0, 62, 36
1, 32324, Control_c, 0, 64, 127
1, 32468, Note_off_c, 0, 52, 64
1, 32476, Note_off_c, 0, 59, 64
1, 32492, Note_off_c, 0, 62, 64
1, 32532, Note_on_c, 0, 68, 55
1, 32532, Note_on_c, 0, 52, 52
1, 32544, Note_on_c, 0, 62, 39
1, 32544, Note_on_c, 0, 59, 41
1, 32556, Control_c, 0, 64, 0
1, 32564, Note_off_c, 0, 64, 64
1, 32604, Control_c, 0, 64, 127
1, 32772, Note_off_c, 0, 52, 64
1, 32784, Note_off_c, 0, 62, 64
1, 32784, Note_off_c, 0, 59, 64
1, 32824, Note_on_c, 0, 69, 57
1, 32824, Note_on_c, 0, 60, 52
1, 32832, Note_on_c, 0, 52, 55
1, 32840, Note_on_c, 0, 45, 57
1, 32860, Control_c, 0, 64, 0
1, 32868, Note_off_c, 0, 68, 64
1, 32940, Control_c, 0, 64, 127
1, 33128, Note_off_c, 0, 52, 64
1, 33136, Note_off_c, 0, 45, 64
1, 33236, Note_on_c, 0, 33, 66
1, 33260, Control_c, 0, 64, 0
1, 33292, Note_off_c, 0, 60, 64
1, 33320, Control_c, 0, 64, 127
1, 33380, Note_off_c, 0, 69, 64
1, 33568, Note_off_c, 0, 33, 64
1, 33684, Note_on_c, 0, 71, 53
1, 33916, Control_c, 0, 64, 0
1, 33940, Note_off_c, 0, 71, 64
1, 33944, Note_on_c, 0, 72, 57
1, 33972, Control_c, 0, 64, 127
1, 34116, Note_on_c, 0, 74, 53
1, 34156, Note_off_c, 0, 72, 64
1, 34248, Note_on_c, 0, 75, 62
1, 34260, Note_on_c, 0, 60, 35
1, 34260, Note_on_c, 0, 56, 45
1, 34268, Note_on_c, 0, 66, 41
1, 34284, Note_off_c, 0, 74, 64
1, 34296, Control_c, 0, 64, 0
1, 34300, Control_c, 0, 64, 0
1, 34356, Control_c, 0, 64, 127
1, 34364, Control_c, 0, 64, 127
1, 34452, Note_off_c, 0, 75, 64
1, 34532, Note_off_c, 0, 60, 64
1, 34532, Note_off_c, 0, 56, 64
1, 34536, Note_on_c, 0, 75, 63
1, 34540, Note_off_c, 0, 66, 64
1, 34540, Note_on_c, 0, 56, 45
1, 34548, Note_on_c, 0, 66, 32
1, 34548, Note_on_c, 0, 60, 41
1, 34552, Control_c, 0, 64, 0
1, 34620, Control_c, 0, 64, 127
1, 34748, Note_off_c, 0, 75, 64
1, 34752, Note_on_c, 0, 77, 54
1, 34804, Note_on_c, 0, 75, 63
1, 34808, Control_c, 0, 64, 0
1, 34812, Note_off_c, 0, 56, 64
1, 34820, Note_off_c, 0, 66, 64
1, 34820, Note_off_c, 0, 60, 64
1, 34832, Control_c, 0, 64, 127
1, 34844, Note_off_c, 0, 77, 64
1, 35076, Note_on_c, 0, 66, 44
1, 35084, Note_on_c, 0, 55, 41
1, 35084, Note_on_c, 0, 60, 45
1, 35108, Control_c, 0, 64, 0
1, 35140, Control_c, 0, 64, 127
1, 35348, Note_off_c, 0, 66, 64
1, 35356, Note_off_c, 0, 55, 64
1, 35356, Note_off_c, 0, 60, 64
1, 35356, Note_on_c, 0, 74, 53
1, 35384, Note_on_c, 0, 55, 36
1, 35388, Note_on_c, 0, 67, 36
1, 35396, Note_off_c, 0, 75, 64
1, 35404, Note_on_c, 0, 59, 35
1, 35412, Control_c, 0, 64, 0
1, 35468, Control_c, 0, 64, 127
1, 35636, Control_c, 0, 64, 0
1, 35644, Note_off_c, 0, 59, 64
1, 35644, Note_on_c, 0, 72, 58
1, 35664, Note_off_c, 0, 74, 64
1, 35664, Note_off_c, 0, 67, 64
1, 35684, Control_c, 0, 64, 127
1, 35692, Note_off_c, 0, 55, 64
1, 35756, Note_on_c, 0, 74, 52
1, 35796, Note_off_c, 0, 72, 64
1, 35860, Note_on_c, 0, 66, 36
1, 35872, Note_on_c, 0, 60, 36
1, 35884, Note_on_c, 0, 75, 62
1, 35884, Note_on_c, 0, 56, 37
1, 35920, Control_c, 0, 64, 0
1, 35932, Note_off_c, 0, 74, 64
1, 35976, Control_c, 0, 64, 127
1, 36052, Note_off_c, 0, 75, 64
1, 36132, Note_off_c, 0, 66, 64
1, 36144, Note_off_c, 0, 60, 64
1, 36144, Note_on_c, 0, 75, 62
1, 36152, Note_on_c, 0, 66, 44
1, 36156, Note_off_c, 0, 56, 64
1, 36168, Note_on_c, 0, 56, 41
1, 36172, Note_on_c, 0, 60, 42
1, 36172, Control_c, 0, 64, 0
1, 36244, Control_c, 0, 64, 127
1, 36328, Note_off_c, 0, 56, 64
1, 36340, Note_off_c, 0, 60, 64
1, 36344, Note_on_c, 0, 77, 53
1, 36352, Note_off_c, 0, 75, 64
1, 36412, Note_off_c, 0, 66, 64
1, 36420, Note_on_c, 0, 75, 66
1, 36452, Note_off_c, 0, 77, 64
1, 36680, Note_on_c, 0, 56, 32
1, 36692, Note_on_c, 0, 59, 41
1, 36700, Note_on_c, 0, 65, 32
1, 36708, Control_c, 0, 64, 0
1, 36768, Tempo, 500000
1, 36768, Control_c, 0, 64, 127
1, 36940, Note_off_c, 0, 56, 64
1, 36952, Note_off_c, 0, 59, 64
1, 36960, Note_off_c, 0, 65, 64
1, 36964, Note_on_c, 0, 56, 45
1, 36972, Note_on_c, 0, 74, 53
1, 36972, Note_on_c, 0, 58, 42
1, 36980, Note_on_c, 0, 65, 36
1, 36988, Note_off_c, 0, 75, 64
1, 37000, Control_c, 0, 64, 0
1, 37048, Control_c, 0, 64, 127
1, 37204, Note_off_c, 0, 58, 64
1, 37220, Control_c, 0, 64, 0
1, 37232, Note_off_c, 0, 56, 64
1, 37244, Note_off_c, 0, 65, 64
1, 37248, Note_on_c, 0, 82, 76
1, 37256, Note_off_c, 0, 74, 64
1, 37304, Control_c, 0, 64, 127
1, 37496, Note_on_c, 0, 55, 41
1, 37504, Note_on_c, 0, 65, 53
1, 37504, Note_on_c, 0, 58, 57
1, 37528, Control_c, 0, 64, 0
1, 37548, Control_c, 0, 64, 127
1, 37752, Note_off_c, 0, 55, 64
1, 37760, Note_off_c, 0, 65, 64
1, 37760, Note_off_c, 0, 58, 64
1, 37784, Note_on_c, 0, 64, 36
1, 37792, Note_on_c, 0, 73, 50
1, 37792, Note_on_c, 0, 55, 31
1, 37800, Note_on_c, 0, 58, 31
1, 37812, Control_c, 0, 64, 0
1, 37832, Note_off_c, 0, 82, 64
1, 37884, Control_c, 0, 64, 127
1, 37936, Note_off_c, 0, 58, 64
1, 37944, Note_off_c, 0, 55, 64
1, 37980, Note_off_c, 0, 64, 64
1, 38056, Note_off_c, 0, 73, 64
1, 38056, Note_on_c, 0, 81, 65
1, 38060, Control_c, 0, 64, 0
1, 38112, Control_c, 0, 64, 127
1, 38300, Note_on_c, 0, 55, 40
1, 38300, Note_on_c, 0, 64, 41
1, 38304, Note_on_c, 0, 57, 41
1, 38556, Note_off_c, 0, 55, 64
1, 38556, Note_off_c, 0, 64, 64
1, 38560, Note_off_c, 0, 57, 64
1, 38584, Note_on_c, 0, 72, 46
1, 38584, Note_on_c, 0, 54, 35
1, 38592, Note_on_c, 0, 63, 32
1, 38596, Note_on_c, 0, 57, 27
1, 38612, Note_off_c, 0, 81, 64
1, 38620, Control_c, 0, 64, 0
1, 38672, Control_c, 0, 64, 127
1, 38828, Note_off_c, 0, 54, 64
1, 38844, Note_on_c, 0, 80, 53
1, 38852, Note_off_c, 0, 57, 64
1, 38872, Note_off_c, 0, 63, 64
1, 38904, Note_off_c, 0, 72, 64
1, 39104, Note_on_c, 0, 53, 41
1, 39108, Note_on_c, 0, 63, 46
1, 39112, Note_on_c, 0, 56, 42
1, 39140, Control_c, 0, 64, 0
1, 39184, Control_c, 0, 64, 127
1, 39360, Note_off_c, 0, 53, 64
1, 39364, Note_off_c, 0, 63, 64
1, 39368, Note_off_c, 0, 56, 64
1, 39396, Note_on_c, 0, 71, 49
1, 39416, Note_on_c, 0, 56, 27
1, 39416, Note_on_c, 0, 53, 32
1, 39424, Note_off_c, 0, 80, 64
1, 39424, Note_on_c, 0, 62, 27
1, 39432, Control_c, 0, 64, 0
1, 39520, Control_c, 0, 64, 127
1, 39636, Note_off_c, 0, 56, 64
1, 39640, Note_off_c, 0, 53, 64
1, 39660, Note_off_c, 0, 62, 64
1, 39672, Note_on_c, 0, 79, 52
1, 39688, Note_off_c, 0, 71, 64
1, 39976, Note_on_c, 0, 62, 29
1, 39976, Note_on_c, 0, 55, 29
1, 39976, Note_on_c, 0, 52, 29
1, 39992, Control_c, 0, 64, 0
1, 40084, Control_c, 0, 64, 127
1, 40140, Note_on_c, 0, 70, 46
1, 40192, Note_off_c, 0, 79, 64
1, 40232, Note_off_c, 0, 62, 64
1, 40232, Note_off_c, 0, 55, 64
1, 40232, Note_off_c, 0, 52, 64
1, 40336, Note_on_c, 0, 52, 27
1, 40344, Note_on_c, 0, 55, 32
1, 40352, Note_on_c, 0, 69, 40
1, 40352, Note_on_c, 0, 61, 31
1, 40368, Control_c, 0, 64, 0
1, 40372, Note_off_c, 0, 70, 64
1, 40436, Control_c, 0, 64, 127
1, 40512, Note_on_c, 0, 76, 54
1, 40536, Note_off_c, 0, 69, 64
1, 40600, Note_off_c, 0, 52, 64
1, 40608, Note_off_c, 0, 55, 64
1, 40616, Note_off_c, 0, 61, 64
1, 40676, Note_on_c, 0, 77, 49
1, 40688, Note_on_c, 0, 53, 39
1, 40696, Note_on_c, 0, 62, 44
1, 40696, Note_on_c, 0, 50, 44
1, 40712, Note_off_c, 0, 76, 64
1, 40712, Control_c, 0, 64, 0
1, 40764, Control_c, 0, 64, 127
1, 40844, Note_on_c, 0, 76, 52
1, 40880, Note_off_c, 0, 77, 64
1, 40976, Note_off_c, 0, 53, 64
1, 40980, Note_on_c, 0, 74, 59
1, 40980, Control_c, 0, 64, 0
1, 40984, Note_off_c, 0, 62, 64
1, 40984, Note_off_c, 0, 50, 64
1, 40988, Note_on_c, 0, 62, 2
1, 40988, Note_on_c, 0, 65, 40
1, 40988, Note_on_c, 0, 57, 50
1, 41000, Control_c, 0, 64, 0
1, 41004, Note_off_c, 0, 76, 64
1, 41040, Control_c, 0, 64, 127
1, 41068, Control_c, 0, 64, 127
1, 41168, Note_off_c, 0, 62, 64
1, 41208, Note_off_c, 0, 57, 64
1, 41212, Note_off_c, 0, 65, 64
1, 41248, Note_on_c, 0, 62, 44
1, 41252, Note_on_c, 0, 65, 44
1, 41252, Note_on_c, 0, 57, 41
1, 41268, Note_on_c, 0, 77, 62
1, 41272, Control_c, 0, 64, 0
1, 41304, Note_off_c, 0, 74, 64
1, 41328, Control_c, 0, 64, 127
1, 41396, Note_off_c, 0, 77, 64
1, 41552, Note_on_c, 0, 77, 65
1, 41564, Control_c, 0, 64, 0
1, 41608, Note_off_c, 0, 57, 64
1, 41612, Note_off_c, 0, 62, 64
1, 41616, Note_off_c, 0, 65, 64
1, 41624, Control_c, 0, 64, 127
1, 41808, Note_on_c, 0, 60, 33
1, 41808, Note_on_c, 0, 65, 39
1, 41828, Note_on_c, 0, 57, 32
1, 42048, Note_off_c, 0, 60, 64
1, 42048, Note_off_c, 0, 65, 64
1, 42068, Note_off_c, 0, 57, 64
1, 42072, Note_on_c, 0, 60, 36
1, 42076, Note_on_c, 0, 76, 50
1, 42084, Note_on_c, 0, 57, 37
1, 42088, Note_on_c, 0, 64, 29
1, 42100, Control_c, 0, 64, 0
1, 42120, Note_off_c, 0, 77, 64
1, 42156, Control_c, 0, 64, 127
1, 42276, Note_off_c, 0, 76, 64
1, 42328, Note_off_c, 0, 64, 64
1, 42336, Note_off_c, 0, 60, 64
1, 42348, Note_off_c, 0, 57, 64
1, 42348, Note_on_c, 0, 74, 61
1, 42408, Note_on_c, 0, 76, 54
1, 42432, Note_off_c, 0, 74, 64
1, 42488, Note_on_c, 0, 74, 63
1, 42504, Note_off_c, 0, 76, 64
1, 42576, Note_on_c, 0, 73, 67
1, 42604, Note_off_c, 0, 74, 64
1, 42648, Control_c, 0, 64, 0
1, 42656, Note_on_c, 0, 74, 49
1, 42664, Note_on_c, 0, 62, 29
1, 42664, Note_on_c, 0, 56, 55
1, 42664, Note_on_c, 0, 52, 35
1, 42684, Note_off_c, 0, 73, 64
1, 42712, Control_c, 0, 64, 127
1, 42792, Note_on_c, 0, 75, 59
1, 42816, Note_off_c, 0, 74, 64
1, 42904, Note_off_c, 0, 62, 64
1, 42904, Note_off_c, 0, 56, 64
1, 42904, Note_off_c, 0, 52, 64
1, 42932, Note_on_c, 0, 52, 49
1, 42932, Note_on_c, 0, 56, 44
1, 42936, Note_on_c, 0, 76, 57
1, 42948, Note_on_c, 0, 62, 39
1, 42968, Control_c, 0, 64, 0
1, 42972, Note_off_c, 0, 75, 64
1, 43020, Control_c, 0, 64, 127
1, 43088, Note_on_c, 0, 71, 44
1, 43168, Note_off_c, 0, 76, 64
1, 43276, Note_on_c, 0, 74, 53
1, 43296, Note_off_c, 0, 71, 64
1, 43304, Note_off_c, 0, 52, 64
1, 43312, Control_c, 0, 64, 0
1, 43316, Note_off_c, 0, 56, 64
1, 43344, Note_off_c, 0, 62, 64
1, 43368, Control_c, 0, 64, 127
1, 43580, Note_on_c, 0, 62, 36
1, 43580, Note_on_c, 0, 57, 35
1, 43600, Note_on_c, 0, 53, 29
1, 43628, Control_c, 0, 64, 0
1, 43680, Control_c, 0, 64, 127
1, 43844, Note_off_c, 0, 62, 64
1, 43844, Note_off_c, 0, 57, 64
1, 43864, Note_off_c, 0, 53, 64
1, 43956, Note_on_c, 0, 72, 36
1, 43960, Note_on_c, 0, 53, 27
1, 43968, Note_on_c, 0, 57, 27
1, 43976, Note_on_c, 0, 60, 35
1, 43992, Note_off_c, 0, 74, 64
1, 44008, Control_c, 0, 64, 0
1, 44068, Control_c, 0, 64, 127
1, 44284, Note_off_c, 0, 53, 64
1, 44304, Note_off_c, 0, 57, 64
1, 44308, Note_off_c, 0, 72, 64
1, 44308, Note_on_c, 0, 69, 58
1, 44320, Note_off_c, 0, 60, 64
1, 44448, Note_on_c, 0, 70, 66
1, 44484, Note_off_c, 0, 69, 64
1, 44560, Note_on_c, 0, 69, 55
1, 44572, Note_off_c, 0, 70, 64
1, 44644, Note_on_c, 0, 63, 40
1, 44656, Note_on_c, 0, 53, 31
1, 44660, Note_on_c, 0, 60, 36
1, 44668, Note_on_c, 0, 67, 66
1, 44688, Control_c, 0, 64, 0
1, 44708, Note_off_c, 0, 69, 64
1, 44744, Control_c, 0, 64, 127
1, 44940, Note_off_c, 0, 63, 64
1, 44952, Note_off_c, 0, 53, 64
1, 44956, Note_off_c, 0, 60, 64
1, 45032, Note_on_c, 0, 69, 63
1, 45044, Note_on_c, 0, 53, 37
1, 45048, Note_on_c, 0, 63, 41
1, 45048, Note_on_c, 0, 60, 39
1, 45072, Control_c, 0, 64, 0
1, 45080, Note_off_c, 0, 67, 64
1, 45108, Control_c, 0, 64, 127
1, 45340, Note_off_c, 0, 53, 64
1, 45344, Note_off_c, 0, 63, 64
1, 45344, Note_off_c, 0, 60, 64
1, 45488, Note_on_c, 0, 70, 70
1, 45496, Note_on_c, 0, 62, 49
1, 45508, Note_on_c, 0, 58, 40
1, 45524, Note_off_c, 0, 69, 64
1, 45540, Control_c, 0, 64, 0
1, 45624, Control_c, 0, 64, 127
1, 46012, Note_on_c, 0, 74, 53
1, 46032, Note_on_c, 0, 65, 28
1, 46040, Note_off_c, 0, 70, 64
1, 46072, Control_c, 0, 64, 0
1, 46112, Note_off_c, 0, 62, 64
1, 46164, Control_c, 0, 64, 127
1, 46232, Note_off_c, 0, 58, 64
1, 46568, Note_off_c, 0, 65, 64
1, 46600, Note_off_c, 0, 74, 64
1, 47228, Note_on_c, 0, 69, 66
1, 47304, Control_c, 0, 64, 0
1, 47340, Control_c, 0, 64, 127
1, 47476, Note_on_c, 0, 68, 62
1, 47512, Note_off_c, 0, 69, 64
1, 47560, Note_on_c, 0, 64, 70
1, 47580, Note_on_c, 0, 62, 71
1, 47592, Note_on_c, 0, 52, 65
1, 47600, Note_off_c, 0, 68, 64
1, 47608, Control_c, 0, 64, 0
1, 47660, Control_c, 0, 64, 127
1, 47820, Note_off_c, 0, 62, 64
1, 47832, Note_off_c, 0, 52, 64
1, 47840, Note_on_c, 0, 68, 67
1, 47852, Note_on_c, 0, 62, 70
1, 47852, Note_on_c, 0, 52, 62
1, 47864, Note_off_c, 0, 64, 64
1, 47872, Control_c, 0, 64, 0
1, 47912, Control_c, 0, 64, 127
1, 48092, Note_off_c, 0, 62, 64
1, 48092, Note_off_c, 0, 52, 64
1, 48120, Note_on_c, 0, 69, 72
1, 48128, Note_on_c, 0, 60, 63
1, 48128, Note_on_c, 0, 45, 54
1, 48140, Note_off_c, 0, 68, 64
1, 48144, Note_on_c, 0, 52, 37
1, 48144, Control_c, 0, 64, 0
1, 48208, Control_c, 0, 64, 127
1, 48364, Note_off_c, 0, 60, 64
1, 48416, Note_on_c, 0, 33, 67
1, 48444, Note_off_c, 0, 69, 64
1, 48512, Note_off_c, 0, 45, 64
1, 48528, Note_off_c, 0, 52, 64
1, 48668, Note_off_c, 0, 33, 64
1, 48720, Note_on_c, 0, 71, 45
1, 48760, Control_c, 0, 64, 0
1, 48784, Control_c, 0, 64, 127
1, 49064, Note_on_c, 0, 72, 44
1, 49076, Note_off_c, 0, 71, 64
1, 49212, Note_on_c, 0, 74, 41
1, 49248, Note_off_c, 0, 72, 64
1, 49336, Control_c, 0, 64, 0
1, 49344, Note_on_c, 0, 75, 46
1, 49344, Note_on_c, 0, 56, 28
1, 49352, Note_on_c, 0, 66, 24
1, 49360, Note_on_c, 0, 60, 31
1, 49376, Note_off_c, 0, 74, 64
1, 49436, Control_c, 0, 64, 127
1, 49548, Note_off_c, 0, 75, 64
1, 49584, Note_off_c, 0, 56, 64
1, 49592, Note_off_c, 0, 66, 64
1, 49600, Note_off_c, 0, 60, 64
1, 49616, Note_on_c, 0, 75, 49
1, 49620, Note_on_c, 0, 56, 31
1, 49632, Note_on_c, 0, 66, 26
1, 49636, Note_on_c, 0, 60, 31
1, 49652, Control_c, 0, 64, 0
1, 49704, Control_c, 0, 64, 127
1, 49836, Note_off_c, 0, 75, 64
1, 49844, Note_off_c, 0, 60, 64
1, 49844, Note_on_c, 0, 77, 41
1, 49860, Note_off_c, 0, 56, 64
1, 49876, Note_off_c, 0, 66, 64
1, 49912, Note_on_c, 0, 75, 49
1, 49952, Note_off_c, 0, 77, 64
1, 50172, Note_on_c, 0, 55, 26
1, 50192, Note_on_c, 0, 60, 31
1, 50196, Note_on_c, 0, 66, 15
1, 50208, Control_c, 0, 64, 0
1, 50264, Control_c, 0, 64, 127
1, 50412, Note_off_c, 0, 55, 64
1, 50432, Note_off_c, 0, 60, 64
1, 50436, Note_off_c, 0, 66, 64
1, 50480, Note_on_c, 0, 55, 26
1, 50488, Note_on_c, 0, 59, 39
1, 50488, Note_on_c, 0, 74, 46
1, 50516, Note_on_c, 0, 67, 36
1, 50524, Note_off_c, 0, 75, 64
1, 50536, Control_c, 0, 64, 0
1, 50580, Control_c, 0, 64, 127
1, 50680, Note_off_c, 0, 67, 64
1, 50780, Note_on_c, 0, 72, 41
1, 50784, Control_c, 0, 64, 0
1, 50792, Note_off_c, 0, 74, 64
1, 50804, Note_off_c, 0, 55, 64
1, 50812, Note_off_c, 0, 59, 64
1, 50832, Control_c, 0, 64, 127
1, 50904, Note_on_c, 0, 74, 36
1, 50948, Note_off_c, 0, 72, 64
1, 51028, Note_on_c, 0, 60, 33
1, 51032, Note_on_c, 0, 56, 31
1, 51036, Note_on_c, 0, 75, 46
1, 51036, Note_on_c, 0, 66, 26
1, 51068, Control_c, 0, 64, 0
1, 51120, Note_off_c, 0, 74, 64
1, 51120, Control_c, 0, 64, 127
1, 51188, Note_off_c, 0, 75, 64
1, 51268, Note_off_c, 0, 60, 64
1, 51272, Note_off_c, 0, 56, 64
1, 51276, Note_off_c, 0, 66, 64
1, 51296, Note_on_c, 0, 75, 49
1, 51308, Note_on_c, 0, 66, 36
1, 51308, Note_on_c, 0, 56, 36
1, 51312, Note_on_c, 0, 60, 36
1, 51324, Control_c, 0, 64, 0
1, 51392, Control_c, 0, 64, 127
1, 51488, Note_off_c, 0, 60, 64
1, 51500, Note_off_c, 0, 75, 64
1, 51500, Note_on_c, 0, 77, 41
1, 51524, Note_off_c, 0, 56, 64
1, 51548, Note_off_c, 0, 66, 64
1, 51568, Note_on_c, 0, 75, 46
1, 51596, Note_off_c, 0, 77, 64
1, 51832, Note_on_c, 0, 56, 31
1, 51844, Note_on_c, 0, 59, 37
1, 51848, Note_on_c, 0, 65, 27
1, 51868, Control_c, 0, 64, 0
1, 51920, Control_c, 0, 64, 127
1, 52072, Note_off_c, 0, 56, 64
1, 52084, Note_off_c, 0, 59, 64
1, 52088, Note_off_c, 0, 65, 64
1, 52124, Note_on_c, 0, 56, 28
1, 52124, Note_on_c, 0, 58, 31
1, 52124, Note_on_c, 0, 74, 40
1, 52136, Note_off_c, 0, 75, 64
1, 52144, Note_on_c, 0, 65, 26
1, 52156, Control_c, 0, 64, 0
1, 52224, Control_c, 0, 64, 127
1, 52400, Note_off_c, 0, 58, 64
1, 52408, Note_off_c, 0, 56, 64
1, 52408, Control_c, 0, 64, 0
1, 52416, Note_on_c, 0, 82, 63
1, 52424, Note_off_c, 0, 65, 64
1, 52460, Note_off_c, 0, 74, 64
1, 52468, Control_c, 0, 64, 127
1, 52664, Note_on_c, 0, 65, 32
1, 52664, Note_on_c, 0, 58, 28
1, 52664, Note_on_c, 0, 55, 35
1, 52692, Control_c, 0, 64, 0
1, 52748, Control_c, 0, 64, 127
1, 52904, Note_off_c, 0, 65, 64
1, 52904, Note_off_c, 0, 58, 64
1, 52904, Note_off_c, 0, 55, 64
1, 52936, Note_on_c, 0, 73, 41
1, 52944, Note_on_c, 0, 58, 29
1, 52952, Note_on_c, 0, 55, 32
1, 52956, Note_on_c, 0, 64, 27
1, 52968, Note_off_c, 0, 82, 64
1, 52984, Control_c, 0, 64, 0
1, 53056, Control_c, 0, 64, 127
1, 53192, Note_off_c, 0, 55, 64
1, 53208, Note_off_c, 0, 58, 64
1, 53224, Note_on_c, 0, 81, 55
1, 53232, Note_off_c, 0, 64, 64
1, 53240, Note_off_c, 0, 73, 64
1, 53464, Note_on_c, 0, 55, 27
1, 53468, Note_on_c, 0, 64, 28
1, 53468, Note_on_c, 0, 57, 33
1, 53504, Control_c, 0, 64, 0
1, 53552, Control_c, 0, 64, 127
1, 53704, Note_off_c, 0, 55, 64
1, 53708, Note_off_c, 0, 64, 64
1, 53708, Note_off_c, 0, 57, 64
1, 53756, Note_on_c, 0, 63, 35
1, 53760, Note_on_c, 0, 57, 1
1, 53764, Note_on_c, 0, 72, 35
1, 53764, Note_on_c, 0, 54, 28
1, 53776, Note_off_c, 0, 81, 64
1, 53792, Control_c, 0, 64, 0
1, 53864, Control_c, 0, 64, 127
1, 53904, Note_off_c, 0, 57, 64
1, 54008, Note_off_c, 0, 54, 64
1, 54020, Note_off_c, 0, 63, 64
1, 54028, Note_on_c, 0, 80, 45
1, 54076, Note_off_c, 0, 72, 64
1, 54292, Note_on_c, 0, 63, 26
1, 54292, Note_on_c, 0, 56, 31
1, 54292, Note_on_c, 0, 53, 31
1, 54308, Control_c, 0, 64, 0
1, 54380, Control_c, 0, 64, 127
1, 54532, Note_off_c, 0, 63, 64
1, 54532, Note_off_c, 0, 56, 64
1, 54532, Note_off_c, 0, 53, 64
1, 54560, Note_on_c, 0, 71, 44
1, 54584, Note_off_c, 0, 80, 64
1, 54584, Note_on_c, 0, 56, 26
1, 54592, Note_on_c, 0, 53, 26
1, 54596, Note_on_c, 0, 62, 28
1, 54620, Control_c, 0, 64, 0
1, 54704, Control_c, 0, 64, 127
1, 54808, Note_off_c, 0, 53, 64
1, 54824, Note_off_c, 0, 56, 64
1, 54836, Note_on_c, 0, 79, 46
1, 54852, Note_off_c, 0, 62, 64
1, 54864, Note_off_c, 0, 71, 64
1, 55132, Note_on_c, 0, 52, 24
1, 55132, Note_on_c, 0, 55, 28
1, 55132, Note_on_c, 0, 62, 26
1, 55168, Control_c, 0, 64, 0
1, 55244, Control_c, 0, 64, 127
1, 55312, Note_on_c, 0, 70, 42
1, 55352, Note_off_c, 0, 79, 64
1, 55436, Note_off_c, 0, 52, 64
1, 55436, Note_off_c, 0, 55, 64
1, 55436, Note_off_c, 0, 62, 64
1, 55504, Note_on_c, 0, 52, 24
1, 55508, Note_on_c, 0, 69, 36
1, 55516, Note_off_c, 0, 70, 64
1, 55516, Note_on_c, 0, 61, 23
1, 55524, Note_on_c, 0, 55, 24
1, 55540, Control_c, 0, 64, 0
1, 55592, Control_c, 0, 64, 127
1, 55636, Note_off_c, 0, 52, 64
1, 55648, Note_off_c, 0, 55, 64
1, 55664, Note_on_c, 0, 76, 41
1, 55672, Note_off_c, 0, 69, 64
1, 55676, Note_off_c, 0, 61, 64
1, 55820, Note_on_c, 0, 77, 41
1, 55844, Note_off_c, 0, 76, 64
1, 55848, Note_on_c, 0, 62, 31
1, 55848, Note_on_c, 0, 53, 27
1, 55856, Note_on_c, 0, 50, 29
1, 55868, Control_c, 0, 64, 0
1, 55920, Control_c, 0, 64, 127
1, 55984, Note_on_c, 0, 76, 52
1, 56032, Note_off_c, 0, 77, 64
1, 56088, Note_off_c, 0, 62, 64
1, 56088, Note_off_c, 0, 53, 64
1, 56096, Note_off_c, 0, 50, 64
1, 56120, Note_on_c, 0, 74, 52
1, 56124, Note_on_c, 0, 62, 37
1, 56128, Note_on_c, 0, 57, 26
1, 56136, Note_on_c, 0, 65, 39
1, 56136, Control_c, 0, 64, 0
1, 56152, Note_off_c, 0, 76, 64
1, 56168, Control_c, 0, 64, 127
1, 56364, Note_off_c, 0, 62, 64
1, 56368, Note_off_c, 0, 57, 64
1, 56376, Note_off_c, 0, 65, 64
1, 56392, Note_on_c, 0, 62, 35
1, 56392, Note_on_c, 0, 57, 40
1, 56396, Note_on_c, 0, 77, 52
1, 56396, Note_on_c, 0, 65, 35
1, 56412, Control_c, 0, 64, 0
1, 56428, Note_off_c, 0, 74, 64
1, 56448, Control_c, 0, 64, 127
1, 56500, Note_off_c, 0, 77, 64
1, 56664, Control_c, 0, 64, 0
1, 56680, Note_on_c, 0, 77, 62
1, 56700, Note_off_c, 0, 57, 64
1, 56700, Note_off_c, 0, 65, 64
1, 56720, Note_off_c, 0, 62, 64
1, 56744, Control_c, 0, 64, 127
1, 56932, Note_on_c, 0, 65, 36
1, 56940, Note_on_c, 0, 60, 37
1, 56944, Note_on_c, 0, 57, 35
1, 57172, Note_off_c, 0, 65, 64
1, 57180, Note_off_c, 0, 60, 64
1, 57184, Note_off_c, 0, 57, 64
1, 57220, Note_on_c, 0, 76, 41
1, 57224, Note_on_c, 0, 64, 28
1, 57224, Note_on_c, 0, 60, 27
1, 57232, Note_on_c, 0, 57, 28
1, 57252, Note_off_c, 0, 77, 64
1, 57252, Control_c, 0, 64, 0
1, 57304, Control_c, 0, 64, 127
1, 57396, Note_off_c, 0, 76, 64
1, 57452, Note_on_c, 0, 74, 46
1, 57472, Note_off_c, 0, 64, 64
1, 57476, Note_off_c, 0, 60, 64
1, 57488, Note_off_c, 0, 57, 64
1, 57528, Note_on_c, 0, 76, 41
1, 57568, Note_off_c, 0, 74, 64
1, 57584, Note_on_c, 0, 74, 46
1, 57608, Note_off_c, 0, 76, 64
1, 57668, Note_on_c, 0, 73, 55
1, 57700, Note_off_c, 0, 74, 64
1, 57712, Note_on_c, 0, 56, 27
1, 57716, Note_on_c, 0, 52, 18
1, 57720, Note_on_c, 0, 62, 27
1, 57728, Control_c, 0, 64, 0
1, 57756, Note_on_c, 0, 74, 45
1, 57784, Note_off_c, 0, 73, 64
1, 57808, Control_c, 0, 64, 127
1, 57880, Note_on_c, 0, 75, 46
1, 57916, Note_off_c, 0, 74, 64
1, 57936, Note_off_c, 0, 56, 64
1, 57940, Note_off_c, 0, 52, 64
1, 57944, Note_off_c, 0, 62, 64
1, 57992, Note_on_c, 0, 56, 18
1, 58000, Note_on_c, 0, 62, 22
1, 58004, Note_on_c, 0, 52, 23
1, 58024, Control_c, 0, 64, 0
1, 58036, Note_on_c, 0, 76, 39
1, 58068, Control_c, 0, 64, 127
1, 58080, Note_off_c, 0, 75, 64
1, 58164, Note_on_c, 0, 71, 41
1, 58236, Note_off_c, 0, 76, 64
1, 58256, Note_off_c, 0, 71, 64
1, 58316, Note_off_c, 0, 52, 64
1, 58328, Note_on_c, 0, 74, 44
1, 58348, Note_off_c, 0, 56, 64
1, 58392, Note_off_c, 0, 62, 64
1, 58724, Note_on_c, 0, 57, 22
1, 58736, Note_on_c, 0, 62, 22
1, 58736, Note_on_c, 0, 53, 22
1, 58776, Control_c, 0, 64, 0
1, 58848, Control_c, 0, 64, 127
1, 59036, Note_off_c, 0, 57, 64
1, 59048, Note_off_c, 0, 62, 64
1, 59048, Note_off_c, 0, 53, 64
1, 59212, Note_on_c, 0, 72, 32
1, 59228, Note_on_c, 0, 57, 26
1, 59240, Note_on_c, 0, 60, 27
1, 59240, Note_on_c, 0, 53, 20
1, 59252, Note_off_c, 0, 74, 64
1, 59292, Control_c, 0, 64, 0
1, 59368, Control_c, 0, 64, 127
1, 59512, Note_off_c, 0, 57, 64
1, 59592, Note_off_c, 0, 53, 64
1, 59612, Note_off_c, 0, 72, 64
1, 59616, Note_on_c, 0, 69, 48
1, 59628, Note_off_c, 0, 60, 64
1, 59724, Note_on_c, 0, 70, 59
1, 59752, Note_off_c, 0, 69, 64
1, 59828, Note_on_c, 0, 69, 45
1, 59856, Note_off_c, 0, 70, 64
1, 59912, Note_on_c, 0, 63, 41
1, 59920, Note_on_c, 0, 67, 52
1, 59924, Note_on_c, 0, 53, 33
1, 59928, Note_on_c, 0, 60, 32
1, 59936, Control_c, 0, 64, 0
1, 59964, Note_off_c, 0, 69, 64
1, 60004, Control_c, 0, 64, 127
1, 60216, Note_off_c, 0, 63, 64
1, 60228, Note_off_c, 0, 53, 64
1, 60232, Note_off_c, 0, 60, 64
1, 60296, Note_on_c, 0, 69, 52
1, 60308, Note_on_c, 0, 63, 32
1, 60312, Note_on_c, 0, 53, 28
1, 60320, Note_on_c, 0, 60, 31
1, 60348, Note_off_c, 0, 67, 64
1, 60356, Control_c, 0, 64, 0
1, 60380, Control_c, 0, 64, 127
1, 60612, Note_off_c, 0, 63, 64
1, 60616, Note_off_c, 0, 53, 64
1, 60624, Note_off_c, 0, 60, 64
1, 60756, Note_on_c, 0, 70, 48
1, 60768, Note_on_c, 0, 58, 32
1, 60768, Note_on_c, 0, 62, 36
1, 60792, Note_off_c, 0, 69, 64
1, 60828, Control_c, 0, 64, 0
1, 60912, Control_c, 0, 64, 127
1, 61376, Note_on_c, 0, 74, 41
1, 61388, Note_on_c, 0, 65, 23
1, 61404, Note_off_c, 0, 70, 64
1, 61472, Control_c, 0, 64, 0
1, 61492, Note_off_c, 0, 62, 64
1, 61552, Control_c, 0, 64, 127
1, 61856, Note_off_c, 0, 58, 64
1, 62040, Note_off_c, 0, 65, 64
1, 62060, Note_off_c, 0, 74, 64
1, 62228, Note_on_c, 0, 69, 45
1, 62264, Control_c, 0, 64, 0
1, 62328, Control_c, 0, 64, 127
1, 62456, Note_on_c, 0, 68, 49
1, 62468, Note_off_c, 0, 69, 64
1, 62528, Note_on_c, 0, 64, 46
1, 62540, Note_on_c, 0, 52, 52
1, 62544, Note_on_c, 0, 62, 53
1, 62548, Note_on_c, 0, 59, 49
1, 62552, Note_off_c, 0, 68, 64
1, 62576, Control_c, 0, 64, 0
1, 62612, Control_c, 0, 64, 127
1, 62780, Note_off_c, 0, 52, 64
1, 62784, Note_off_c, 0, 62, 64
1, 62788, Note_off_c, 0, 59, 64
1, 62824, Note_on_c, 0, 68, 55
1, 62836, Note_on_c, 0, 52, 46
1, 62840, Note_on_c, 0, 62, 55
1, 62848, Note_off_c, 0, 64, 64
1, 62848, Note_on_c, 0, 59, 41
1, 62860, Control_c, 0, 64, 0
1, 62900, Control_c, 0, 64, 127
1, 63076, Note_off_c, 0, 52, 64
1, 63080, Note_off_c, 0, 62, 64
1, 63088, Note_off_c, 0, 59, 64
1, 63140, Note_on_c, 0, 69, 61
1, 63160, Note_off_c, 0, 68, 64
1, 63168, Control_c, 0, 64, 0
1, 63216, Control_c, 0, 64, 127
1, 63432, Note_on_c, 0, 45, 35
1, 63440, Note_on_c, 0, 57, 28
1, 63452, Note_on_c, 0, 61, 39
1, 63456, Note_on_c, 0, 64, 41
1, 63672, Note_off_c, 0, 45, 64
1, 63680, Note_off_c, 0, 57, 64
1, 63684, Note_off_c, 0, 61, 64
1, 63688, Note_off_c, 0, 64, 64
1, 63732, Note_on_c, 0, 61, 39
1, 63744, Note_off_c, 0, 69, 64
1, 63744, Note_on_c, 0, 45, 29
1, 63744, Note_on_c, 0, 64, 39
1, 63752, Note_on_c, 0, 57, 28
1, 63964, Note_off_c, 0, 61, 64
1, 63976, Note_off_c, 0, 64, 64
1, 64032, Note_on_c, 0, 67, 46
1, 64036, Note_on_c, 0, 73, 52
1, 64112, Note_off_c, 0, 67, 64
1, 64116, Note_off_c, 0, 73, 64
1, 64240, Note_on_c, 0, 67, 39
1, 64244, Note_on_c, 0, 73, 48
1, 64296, Note_off_c, 0, 67, 64
1, 64332, Note_on_c, 0, 74, 52
1, 64336, Note_off_c, 0, 73, 64
1, 64336, Note_on_c, 0, 66, 50
1, 64348, Note_on_c, 0, 50, 48
1, 64356, Note_off_c, 0, 57, 64
1, 64384, Note_off_c, 0, 45, 64
1, 64572, Note_off_c, 0, 66, 64
1, 64592, Note_off_c, 0, 74, 64
1, 64628, Note_on_c, 0, 71, 45
1, 64628, Note_on_c, 0, 65, 39
1, 64628, Note_on_c, 0, 38, 52
1, 64644, Control_c, 0, 64, 0
1, 64652, Note_off_c, 0, 50, 64
1, 64688, Control_c, 0, 64, 127
1, 64904, Note_on_c, 0, 68, 50
1, 64912, Note_off_c, 0, 71, 64
1, 64912, Note_off_c, 0, 65, 64
1, 64920, Note_on_c, 0, 40, 46
1, 64928, Note_on_c, 0, 62, 46
1, 64944, Control_c, 0, 64, 0
1, 64972, Note_off_c, 0, 38, 64
1, 65000, Control_c, 0, 64, 127
1, 65068, Note_off_c, 0, 62, 64
1, 65132, Note_off_c, 0, 68, 64
1, 65144, Note_on_c, 0, 64, 36
1, 65208, Note_on_c, 0, 69, 46
1, 65208, Note_on_c, 0, 61, 46
1, 65208, Note_on_c, 0, 45, 45
1, 65240, Control_c, 0, 64, 0
1, 65248, Note_off_c, 0, 64, 64
1, 65264, Note_off_c, 0, 40, 64
1, 65320, Control_c, 0, 64, 127
1, 65376, Note_off_c, 0, 61, 64
1, 65404, Note_off_c, 0, 69, 64
1, 65520, Note_on_c, 0, 52, 36
1, 65552, Note_off_c, 0, 45, 64
1, 65656, Note_on_c, 0, 71, 37
1, 65660, Note_on_c, 0, 68, 45
1, 65812, Note_on_c, 0, 73, 46
1, 65812, Control_c, 0, 64, 0
1, 65820, Note_on_c, 0, 57, 46
1, 65828, Note_off_c, 0, 68, 64
1, 65828, Note_on_c, 0, 67, 50
1, 65844, Note_off_c, 0, 52, 64
1, 65848, Note_off_c, 0, 71, 64
1, 65876, Control_c, 0, 64, 127
1, 65944, Note_off_c, 0, 73, 64
1, 66016, Note_off_c, 0, 67, 64
1, 66032, Note_on_c, 0, 76, 36
1, 66104, Note_on_c, 0, 74, 44
1, 66104, Control_c, 0, 64, 0
1, 66120, Note_on_c, 0, 66, 57
1, 66128, Note_on_c, 0, 50, 49
1, 66132, Note_off_c, 0, 76, 64
1, 66156, Control_c, 0, 64, 127
1, 66164, Note_off_c, 0, 57, 64
1, 66268, Note_off_c, 0, 66, 64
1, 66356, Note_off_c, 0, 74, 64
1, 66400, Note_on_c, 0, 38, 39
1, 66408, Note_on_c, 0, 71, 46
1, 66408, Note_on_c, 0, 65, 41
1, 66412, Control_c, 0, 64, 0
1, 66472, Note_off_c, 0, 50, 64
1, 66476, Control_c, 0, 64, 127
1, 66692, Note_off_c, 0, 71, 64
1, 66692, Note_off_c, 0, 65, 64
1, 66696, Note_on_c, 0, 68, 48
1, 66696, Note_on_c, 0, 62, 36
1, 66708, Note_on_c, 0, 40, 50
1, 66720, Control_c, 0, 64, 0
1, 66744, Note_off_c, 0, 38, 64
1, 66776, Control_c, 0, 64, 127
1, 66792, Note_on_c, 0, 66, 45
1, 66800, Note_off_c, 0, 68, 64
1, 66824, Note_off_c, 0, 62, 64
1, 66884, Note_on_c, 0, 64, 37
1, 66900, Note_off_c, 0, 66, 64
1, 66988, Note_on_c, 0, 69, 50
1, 66992, Note_on_c, 0, 61, 49
1, 67000, Note_on_c, 0, 45, 36
1, 67004, Control_c, 0, 64, 0
1, 67020, Note_off_c, 0, 64, 64
1, 67052, Note_off_c, 0, 40, 64
1, 67096, Control_c, 0, 64, 127
1, 67264, Note_on_c, 0, 52, 42
1, 67272, Note_off_c, 0, 69, 64
1, 67272, Note_off_c, 0, 61, 64
1, 67344, Note_off_c, 0, 45, 64
1, 67420, Note_on_c, 0, 71, 28
1, 67424, Note_on_c, 0, 68, 31
1, 67488, Note_off_c, 0, 71, 64
1, 67528, Note_off_c, 0, 68, 64
1, 67568, Control_c, 0, 64, 0
1, 67584, Note_on_c, 0, 73, 53
1, 67584, Note_on_c, 0, 67, 57
1, 67592, Note_on_c, 0, 57, 44
1, 67600, Note_off_c, 0, 52, 64
1, 67624, Note_off_c, 0, 73, 64
1, 67632, Note_off_c, 0, 67, 64
1, 67640, Control_c, 0, 64, 127
1, 67692, Note_on_c, 0, 67, 50
1, 67700, Note_on_c, 0, 73, 53
1, 67744, Note_off_c, 0, 67, 64
1, 67748, Note_off_c, 0, 73, 64
1, 67784, Note_on_c, 0, 73, 50
1, 67796, Note_on_c, 0, 67, 45
1, 67844, Note_off_c, 0, 73, 64
1, 67844, Note_off_c, 0, 67, 64
1, 67904, Control_c, 0, 64, 0
1, 67908, Note_on_c, 0, 74, 54
1, 67912, Note_on_c, 0, 66, 58
1, 67920, Note_off_c, 0, 57, 64
1, 67928, Note_on_c, 0, 50, 46
1, 67936, Control_c, 0, 64, 127
1, 68040, Note_off_c, 0, 66, 64
1, 68164, Note_off_c, 0, 74, 64
1, 68200, Note_on_c, 0, 71, 52
1, 68208, Note_on_c, 0, 65, 50
1, 68208, Note_on_c, 0, 38, 41
1, 68220, Control_c, 0, 64, 0
1, 68256, Control_c, 0, 64, 127
1, 68264, Note_off_c, 0, 71, 64
1, 68272, Note_off_c, 0, 50, 64
1, 68288, Note_off_c, 0, 65, 64
1, 68476, Note_on_c, 0, 62, 36
1, 68484, Note_on_c, 0, 68, 53
1, 68504, Note_on_c, 0, 40, 41
1, 68524, Note_off_c, 0, 62, 64
1, 68552, Note_off_c, 0, 38, 64
1, 68552, Note_off_c, 0, 68, 64
1, 68576, Note_on_c, 0, 62, 37
1, 68580, Note_on_c, 0, 66, 59
1, 68660, Note_off_c, 0, 66, 64
1, 68664, Note_off_c, 0, 62, 64
1, 68680, Note_on_c, 0, 62, 37
1, 68688, Note_on_c, 0, 64, 50
1, 68760, Note_off_c, 0, 64, 64
1, 68768, Note_off_c, 0, 62, 64
1, 68792, Note_on_c, 0, 69, 52
1, 68792, Note_on_c, 0, 61, 58
1, 68800, Note_on_c, 0, 45, 37
1, 68812, Control_c, 0, 64, 0
1, 68848, Note_off_c, 0, 40, 64
1, 68880, Control_c, 0, 64, 127
1, 68976, Note_off_c, 0, 61, 64
1, 68984, Note_off_c, 0, 69, 64
1, 69080, Note_on_c, 0, 52, 41
1, 69144, Note_off_c, 0, 45, 64
1, 69212, Note_on_c, 0, 68, 46
1, 69216, Note_on_c, 0, 71, 50
1, 69272, Note_off_c, 0, 71, 64
1, 69284, Note_off_c, 0, 68, 64
1, 69372, Note_on_c, 0, 67, 48
1, 69372, Control_c, 0, 64, 0
1, 69384, Note_on_c, 0, 73, 65
1, 69384, Note_on_c, 0, 57, 48
1, 69404, Control_c, 0, 64, 127
1, 69408, Note_off_c, 0, 67, 64
1, 69424, Note_off_c, 0, 52, 64
1, 69440, Note_off_c, 0, 73, 64
1, 69496, Note_on_c, 0, 74, 52
1, 69500, Note_on_c, 0, 67, 42
1, 69552, Note_off_c, 0, 67, 64
1, 69584, Note_off_c, 0, 74, 64
1, 69600, Note_on_c, 0, 76, 57
1, 69608, Note_on_c, 0, 67, 50
1, 69680, Note_off_c, 0, 76, 64
1, 69688, Note_off_c, 0, 67, 64
1, 69720, Note_on_c, 0, 66, 62
1, 69720, Note_on_c, 0, 74, 52
1, 69728, Note_off_c, 0, 57, 64
1, 69736, Note_on_c, 0, 50, 45
1, 69736, Control_c, 0, 64, 0
1, 69756, Control_c, 0, 64, 127
1, 69844, Note_off_c, 0, 74, 64
1, 69848, Note_off_c, 0, 66, 64
1, 70016, Note_on_c, 0, 65, 50
1, 70028, Note_on_c, 0, 71, 45
1, 70044, Note_on_c, 0, 38, 29
1, 70048, Control_c, 0, 64, 0
1, 70072, Note_off_c, 0, 50, 64
1, 70104, Note_off_c, 0, 71, 64
1, 70112, Control_c, 0, 64, 127
1, 70120, Note_off_c, 0, 65, 64
1, 70344, Note_on_c, 0, 68, 52
1, 70344, Control_c, 0, 64, 0
1, 70352, Note_on_c, 0, 40, 55
1, 70352, Note_on_c, 0, 62, 45
1, 70376, Control_c, 0, 64, 127
1, 70388, Note_off_c, 0, 38, 64
1, 70424, Note_off_c, 0, 62, 64
1, 70440, Note_on_c, 0, 66, 59
1, 70456, Note_on_c, 0, 62, 35
1, 70460, Note_off_c, 0, 68, 64
1, 70536, Note_off_c, 0, 66, 64
1, 70536, Note_off_c, 0, 62, 64
1, 70556, Note_on_c, 0, 62, 45
1, 70556, Note_on_c, 0, 64, 45
1, 70628, Note_off_c, 0, 64, 64
1, 70636, Note_on_c, 0, 61, 50
1, 70640, Tempo, 500000
1, 70640, Note_off_c, 0, 62, 64
1, 70640, Note_on_c, 0, 69, 53
1, 70648, Note_on_c, 0, 45, 45
1, 70660, Control_c, 0, 64, 0
1, 70692, Note_off_c, 0, 40, 64
1, 70748, Control_c, 0, 64, 127
1, 70888, Note_off_c, 0, 61, 64
1, 70912, Note_off_c, 0, 69, 64
1, 70964, Note_on_c, 0, 57, 49
1, 70992, Note_off_c, 0, 45, 64
1, 71256, Note_on_c, 0, 61, 61
1, 71260, Note_on_c, 0, 73, 63
1, 71260, Note_on_c, 0, 54, 55
1, 71260, Note_on_c, 0, 69, 54
1, 71288, Control_c, 0, 64, 0
1, 71308, Note_off_c, 0, 57, 64
1, 71320, Note_off_c, 0, 69, 64
1, 71344, Note_off_c, 0, 61, 64
1, 71344, Note_off_c, 0, 73, 64
1, 71348, Control_c, 0, 64, 127
1, 71452, Note_on_c, 0, 73, 61
1, 71452, Note_on_c, 0, 69, 54
1, 71460, Note_on_c, 0, 61, 53
1, 71504, Note_off_c, 0, 73, 64
1, 71504, Note_off_c, 0, 69, 64
1, 71536, Note_on_c, 0, 71, 66
1, 71540, Note_on_c, 0, 74, 57
1, 71552, Note_on_c, 0, 62, 67
1, 71556, Note_off_c, 0, 61, 64
1, 71588, Control_c, 0, 64, 0
1, 71636, Note_off_c, 0, 71, 64
1, 71640, Control_c, 0, 64, 127
1, 71844, Note_on_c, 0, 59, 55
1, 71852, Note_off_c, 0, 74, 64
1, 71852, Note_on_c, 0, 68, 59
1, 71856, Note_on_c, 0, 71, 49
1, 71868, Control_c, 0, 64, 0
1, 71900, Note_off_c, 0, 62, 64
1, 71904, Control_c, 0, 64, 127
1, 71932, Note_off_c, 0, 68, 64
1, 71948, Note_off_c, 0, 59, 64
1, 71968, Note_off_c, 0, 71, 64
1, 71988, Note_off_c, 0, 54, 64
1, 72112, Note_on_c, 0, 54, 33
1, 72132, Note_on_c, 0, 61, 62
1, 72132, Note_on_c, 0, 73, 57
1, 72140, Note_on_c, 0, 69, 62
1, 72220, Note_off_c, 0, 73, 64
1, 72228, Note_off_c, 0, 69, 64
1, 72228, Note_on_c, 0, 68, 57
1, 72228, Note_on_c, 0, 59, 57
1, 72236, Note_off_c, 0, 61, 64
1, 72236, Note_on_c, 0, 71, 53
1, 72300, Note_off_c, 0, 68, 64
1, 72324, Note_on_c, 0, 57, 53
1, 72328, Note_on_c, 0, 69, 57
1, 72332, Note_off_c, 0, 71, 64
1, 72332, Note_on_c, 0, 66, 59
1, 72344, Note_off_c, 0, 59, 64
1, 72376, Note_off_c, 0, 66, 64
1, 72388, Note_off_c, 0, 69, 64
1, 72428, Note_on_c, 0, 74, 66
1, 72428, Note_on_c, 0, 71, 53
1, 72436, Note_on_c, 0, 62, 59
1, 72440, Control_c, 0, 64, 0
1, 72464, Note_off_c, 0, 57, 64
1, 72516, Control_c, 0, 64, 127
1, 72536, Note_off_c, 0, 71, 64
1, 72732, Note_off_c, 0, 74, 64
1, 72740, Note_on_c, 0, 71, 55
1, 72740, Note_on_c, 0, 68, 57
1, 72740, Note_on_c, 0, 59, 57
1, 72788, Note_off_c, 0, 62, 64
1, 72812, Note_off_c, 0, 68, 64
1, 72824, Note_off_c, 0, 59, 64
1, 72828, Note_off_c, 0, 71, 64
1, 72840, Note_off_c, 0, 54, 64
1, 73012, Note_on_c, 0, 54, 61
1, 73016, Note_on_c, 0, 73, 62
1, 73020, Note_on_c, 0, 69, 66
1, 73020, Note_on_c, 0, 61, 62
1, 73040, Control_c, 0, 64, 0
1, 73088, Note_off_c, 0, 73, 64
1, 73092, Note_off_c, 0, 69, 64
1, 73100, Control_c, 0, 64, 127
1, 73112, Note_off_c, 0, 61, 64
1, 73208, Note_on_c, 0, 69, 61
1, 73212, Note_on_c, 0, 73, 52
1, 73224, Note_on_c, 0, 61, 59
1, 73268, Note_off_c, 0, 69, 64
1, 73276, Note_off_c, 0, 73, 64
1, 73316, Note_on_c, 0, 74, 66
1, 73316, Note_on_c, 0, 71, 59
1, 73332, Note_on_c, 0, 62, 68
1, 73336, Note_off_c, 0, 61, 64
1, 73344, Control_c, 0, 64, 0
1, 73364, Control_c, 0, 64, 127
1, 73404, Note_off_c, 0, 71, 64
1, 73612, Note_off_c, 0, 74, 64
1, 73612, Note_on_c, 0, 71, 59
1, 73616, Note_on_c, 0, 59, 55
1, 73620, Note_on_c, 0, 68, 63
1, 73636, Note_off_c, 0, 62, 64
1, 73692, Note_off_c, 0, 59, 64
1, 73704, Note_off_c, 0, 68, 64
1, 73716, Note_off_c, 0, 71, 64
1, 73740, Note_off_c, 0, 54, 64
1, 73872, Note_on_c, 0, 54, 46
1, 73876, Note_on_c, 0, 73, 57
1, 73876, Note_on_c, 0, 69, 58
1, 73876, Note_on_c, 0, 61, 63
1, 73900, Control_c, 0, 64, 0
1, 73940, Note_on_c, 0, 68, 22
1, 73940, Control_c, 0, 64, 127
1, 73944, Note_on_c, 0, 71, 49
1, 73944, Note_on_c, 0, 59, 53
1, 73972, Note_off_c, 0, 73, 64
1, 73980, Note_off_c, 0, 69, 64
1, 74012, Note_off_c, 0, 61, 64
1, 74036, Note_on_c, 0, 69, 59
1, 74036, Note_on_c, 0, 66, 62
1, 74036, Note_on_c, 0, 57, 57
1, 74076, Note_off_c, 0, 68, 64
1, 74080, Note_off_c, 0, 54, 64
1, 74080, Note_off_c, 0, 71, 64
1, 74080, Note_off_c, 0, 59, 64
1, 74124, Control_c, 0, 64, 127
1, 74136, Note_on_c, 0, 90, 94
1, 74136, Note_on_c, 0, 78, 62
1, 74136, Note_on_c, 0, 54, 68
1, 74136, Note_on_c, 0, 42, 62
1, 74292, Note_off_c, 0, 69, 64
1, 74292, Note_off_c, 0, 66, 64
1, 74292, Note_off_c, 0, 57, 64
1, 74380, Note_off_c, 0, 90, 64
1, 74380, Note_off_c, 0, 78, 64
1, 74380, Note_off_c, 0, 54, 64
1, 74380, Note_off_c, 0, 42, 64
1, 74508, Note_on_c, 0, 78, 55
1, 74508, Note_on_c, 0, 90, 91
1, 74508, Note_on_c, 0, 42, 68
1, 74512, Note_on_c, 0, 54, 58
1, 74796, Note_off_c, 0, 78, 64
1, 74796, Note_off_c, 0, 90, 64
1, 74796, Note_off_c, 0, 42, 64
1, 74800, Note_off_c, 0, 54, 64
1, 74844, Note_on_c, 0, 54, 57
1, 74844, Note_on_c, 0, 73, 63
1, 74844, Note_on_c, 0, 61, 57
1, 74848, Note_on_c, 0, 69, 61
1, 74876, Control_c, 0, 64, 0
1, 74916, Note_off_c, 0, 69, 64
1, 74920, Note_off_c, 0, 73, 64
1, 74928, Note_off_c, 0, 61, 64
1, 74928, Control_c, 0, 64, 127
1, 75048, Note_on_c, 0, 61, 50
1, 75056, Note_on_c, 0, 69, 55
1, 75064, Note_on_c, 0, 73, 50
1, 75108, Note_on_c, 0, 74, 57
1, 75120, Note_off_c, 0, 73, 64
1, 75132, Note_on_c, 0, 62, 66
1, 75136, Note_on_c, 0, 71, 52
1, 75148, Note_off_c, 0, 61, 64
1, 75156, Note_off_c, 0, 69, 64
1, 75160, Control_c, 0, 64, 0
1, 75220, Note_off_c, 0, 71, 64
1, 75232, Control_c, 0, 64, 127
1, 75436, Note_on_c, 0, 71, 57
1, 75436, Note_on_c, 0, 59, 61
1, 75436, Note_on_c, 0, 68, 57
1, 75448, Note_off_c, 0, 74, 64
1, 75476, Note_off_c, 0, 62, 64
1, 75508, Note_off_c, 0, 68, 64
1, 75520, Note_off_c, 0, 71, 64
1, 75532, Note_off_c, 0, 59, 64
1, 75572, Note_off_c, 0, 54, 64
1, 75728, Note_on_c, 0, 54, 55
1, 75728, Note_on_c, 0, 73, 62
1, 75728, Note_on_c, 0, 69, 62
1, 75728, Note_on_c, 0, 61, 66
1, 75792, Note_on_c, 0, 68, 57
1, 75804, Note_off_c, 0, 69, 64
1, 75812, Note_off_c, 0, 73, 64
1, 75820, Note_on_c, 0, 59, 57
1, 75836, Note_on_c, 0, 71, 50
1, 75840, Note_off_c, 0, 61, 64
1, 75868, Note_off_c, 0, 68, 64
1, 75912, Note_on_c, 0, 69, 53
1, 75916, Note_on_c, 0, 66, 66
1, 75920, Note_off_c, 0, 71, 64
1, 75944, Note_off_c, 0, 59, 64
1, 75944, Note_on_c, 0, 57, 52
1, 75964, Note_off_c, 0, 66, 64
1, 75980, Note_off_c, 0, 69, 64
1, 76012, Note_on_c, 0, 74, 63
1, 76020, Note_on_c, 0, 62, 66
1, 76024, Note_on_c, 0, 71, 62
1, 76044, Control_c, 0, 64, 0
1, 76060, Note_off_c, 0, 57, 64
1, 76104, Control_c, 0, 64, 127
1, 76116, Note_off_c, 0, 71, 64
1, 76304, Note_off_c, 0, 74, 64
1, 76312, Note_on_c, 0, 68, 62
1, 76320, Note_on_c, 0, 59, 54
1, 76324, Note_on_c, 0, 71, 61
1, 76368, Note_off_c, 0, 68, 64
1, 76376, Note_off_c, 0, 71, 64
1, 76384, Note_off_c, 0, 62, 64
1, 76516, Note_off_c, 0, 59, 64
1, 76588, Note_on_c, 0, 61, 50
1, 76592, Note_on_c, 0, 69, 55
1, 76596, Note_on_c, 0, 73, 57
1, 76744, Note_off_c, 0, 61, 64
1, 76752, Note_on_c, 0, 75, 59
1, 76764, Note_on_c, 0, 59, 40
1, 76776, Note_off_c, 0, 73, 64
1, 76828, Note_off_c, 0, 69, 64
1, 76940, Note_on_c, 0, 76, 59
1, 76940, Note_on_c, 0, 68, 63
1, 76948, Note_on_c, 0, 52, 52
1, 76964, Note_off_c, 0, 75, 64
1, 76980, Note_off_c, 0, 54, 64
1, 77032, Control_c, 0, 64, 0
1, 77212, Control_c, 0, 64, 127
1, 77324, Note_off_c, 0, 59, 64
1, 77348, Note_off_c, 0, 68, 64
1, 77432, Note_off_c, 0, 76, 64
1, 77556, Note_on_c, 0, 73, 53
1, 77556, Note_on_c, 0, 69, 52
1, 77568, Note_on_c, 0, 61, 49
1, 77724, Note_on_c, 0, 75, 36
1, 77732, Note_on_c, 0, 59, 36
1, 77748, Note_off_c, 0, 73, 64
1, 77752, Note_off_c, 0, 69, 64
1, 77764, Note_off_c, 0, 61, 64
1, 77916, Note_off_c, 0, 52, 64
1, 77936, Note_off_c, 0, 75, 64
1, 77940, Note_on_c, 0, 78, 54
1, 77952, Note_on_c, 0, 68, 40
1, 77956, Note_on_c, 0, 52, 26
1, 78044, Note_on_c, 0, 76, 52
1, 78052, Note_off_c, 0, 78, 64
1, 78064, Control_c, 0, 64, 0
1, 78276, Control_c, 0, 64, 127
1, 78332, Note_off_c, 0, 76, 64
1, 78508, Note_off_c, 0, 59, 64
1, 78700, Note_on_c, 0, 74, 41
1, 78740, Note_off_c, 0, 68, 64
1, 78924, Note_off_c, 0, 52, 64
1, 78956, Note_on_c, 0, 73, 50
1, 78964, Note_off_c, 0, 74, 64
1, 78964, Note_on_c, 0, 67, 46
1, 78972, Note_on_c, 0, 57, 49
1, 78980, Control_c, 0, 64, 0
1, 79044, Note_off_c, 0, 67, 64
1, 79056, Control_c, 0, 64, 127
1, 79068, Note_off_c, 0, 73, 64
1, 79180, Note_on_c, 0, 73, 45
1, 79188, Note_on_c, 0, 67, 36
1, 79232, Note_off_c, 0, 67, 64
1, 79268, Note_on_c, 0, 74, 50
1, 79280, Note_on_c, 0, 66, 45
1, 79284, Note_off_c, 0, 73, 64
1, 79304, Note_on_c, 0, 50, 27
1, 79308, Control_c, 0, 64, 0
1, 79316, Note_off_c, 0, 57, 64
1, 79380, Control_c, 0, 64, 127
1, 79524, Note_off_c, 0, 66, 64
1, 79548, Note_off_c, 0, 74, 64
1, 79600, Note_on_c, 0, 71, 52
1, 79604, Note_on_c, 0, 65, 50
1, 79620, Note_on_c, 0, 38, 45
1, 79648, Note_off_c, 0, 50, 64
1, 79672, Note_off_c, 0, 71, 64
1, 79708, Note_off_c, 0, 65, 64
1, 79928, Note_on_c, 0, 62, 49
1, 79932, Note_on_c, 0, 68, 53
1, 79940, Note_on_c, 0, 40, 52
1, 79964, Note_off_c, 0, 38, 64
1, 79964, Control_c, 0, 64, 0
1, 80036, Control_c, 0, 64, 127
1, 80092, Note_off_c, 0, 62, 64
1, 80156, Note_on_c, 0, 64, 41
1, 80164, Note_off_c, 0, 68, 64
1, 80224, Note_on_c, 0, 69, 46
1, 80240, Note_on_c, 0, 61, 58
1, 80248, Note_on_c, 0, 45, 36
1, 80252, Control_c, 0, 64, 0
1, 80268, Note_off_c, 0, 64, 64
1, 80284, Note_off_c, 0, 40, 64
1, 80284, Control_c, 0, 64, 127
1, 80332, Note_off_c, 0, 61, 64
1, 80396, Note_off_c, 0, 69, 64
1, 80548, Note_on_c, 0, 52, 49
1, 80592, Note_off_c, 0, 45, 64
1, 80684, Note_on_c, 0, 71, 52
1, 80684, Note_on_c, 0, 68, 52
1, 80836, Note_on_c, 0, 73, 46
1, 80848, Note_on_c, 0, 67, 46
1, 80848, Note_on_c, 0, 57, 50
1, 80860, Note_off_c, 0, 68, 64
1, 80872, Control_c, 0, 64, 0
1, 80884, Note_off_c, 0, 71, 64
1, 80892, Note_off_c, 0, 52, 64
1, 80928, Control_c, 0, 64, 127
1, 80952, Note_off_c, 0, 73, 64
1, 81020, Note_off_c, 0, 67, 64
1, 81072, Note_on_c, 0, 76, 45
1, 81124, Note_on_c, 0, 50, 46
1, 81136, Note_on_c, 0, 74, 49
1, 81148, Note_on_c, 0, 66, 50
1, 81160, Note_off_c, 0, 76, 64
1, 81172, Control_c, 0, 64, 0
1, 81192, Note_off_c, 0, 57, 64
1, 81204, Control_c, 0, 64, 127
1, 81328, Note_off_c, 0, 66, 64
1, 81388, Note_off_c, 0, 74, 64
1, 81436, Note_on_c, 0, 71, 49
1, 81444, Note_on_c, 0, 38, 36
1, 81444, Note_on_c, 0, 65, 46
1, 81456, Control_c, 0, 64, 0
1, 81468, Note_off_c, 0, 50, 64
1, 81508, Note_off_c, 0, 71, 64
1, 81512, Control_c, 0, 64, 127
1, 81540, Note_off_c, 0, 65, 64
1, 81752, Note_on_c, 0, 68, 50
1, 81752, Note_on_c, 0, 40, 52
1, 81756, Note_on_c, 0, 62, 49
1, 81772, Control_c, 0, 64, 0
1, 81788, Note_off_c, 0, 38, 64
1, 81796, Control_c, 0, 64, 127
1, 81836, Note_on_c, 0, 66, 46
1, 81868, Note_off_c, 0, 62, 64
1, 81872, Note_off_c, 0, 68, 64
1, 81932, Note_on_c, 0, 64, 39
1, 81956, Note_off_c, 0, 66, 64
1, 82040, Note_on_c, 0, 69, 53
1, 82044, Note_on_c, 0, 45, 36
1, 82052, Note_on_c, 0, 61, 57
1, 82064, Control_c, 0, 64, 0
1, 82072, Note_off_c, 0, 64, 64
1, 82096, Note_off_c, 0, 40, 64
1, 82124, Control_c, 0, 64, 127
1, 82152, Note_off_c, 0, 61, 64
1, 82172, Note_off_c, 0, 69, 64
1, 82340, Note_on_c, 0, 52, 48
1, 82388, Note_off_c, 0, 45, 64
1, 82468, Note_on_c, 0, 68, 46
1, 82472, Note_on_c, 0, 71, 46
1, 82524, Note_off_c, 0, 71, 64
1, 82540, Note_off_c, 0, 68, 64
1, 82620, Control_c, 0, 64, 0
1, 82632, Note_on_c, 0, 73, 50
1, 82636, Note_on_c, 0, 67, 50
1, 82644, Note_on_c, 0, 57, 46
1, 82672, Control_c, 0, 64, 127
1, 82680, Note_off_c, 0, 73, 64
1, 82684, Note_off_c, 0, 52, 64
1, 82684, Note_off_c, 0, 67, 64
1, 82744, Note_on_c, 0, 73, 46
1, 82744, Note_on_c, 0, 67, 45
1, 82780, Note_off_c, 0, 67, 64
1, 82788, Note_off_c, 0, 73, 64
1, 82828, Note_on_c, 0, 67, 53
1, 82840, Note_on_c, 0, 73, 46
1, 82888, Note_off_c, 0, 73, 64
1, 82908, Note_off_c, 0, 67, 64
1, 82948, Control_c, 0, 64, 0
1, 82956, Note_on_c, 0, 74, 49
1, 82956, Note_on_c, 0, 66, 52
1, 82968, Note_on_c, 0, 50, 50
1, 82988, Note_off_c, 0, 57, 64
1, 82992, Control_c, 0, 64, 127
1, 83160, Note_off_c, 0, 66, 64
1, 83212, Note_off_c, 0, 74, 64
1, 83244, Note_on_c, 0, 71, 49
1, 83244, Note_on_c, 0, 38, 46
1, 83252, Note_on_c, 0, 65, 49
1, 83256, Control_c, 0, 64, 0
1, 83296, Control_c, 0, 64, 127
1, 83304, Note_off_c, 0, 71, 64
1, 83312, Note_off_c, 0, 50, 64
1, 83324, Note_off_c, 0, 65, 64
1, 83520, Note_on_c, 0, 68, 46
1, 83528, Note_on_c, 0, 62, 45
1, 83540, Note_on_c, 0, 40, 46
1, 83568, Note_off_c, 0, 62, 64
1, 83580, Note_off_c, 0, 68, 64
1, 83588, Note_off_c, 0, 38, 64
1, 83616, Note_on_c, 0, 66, 53
1, 83632, Note_on_c, 0, 62, 41
1, 83664, Note_off_c, 0, 62, 64
1, 83676, Note_off_c, 0, 66, 64
1, 83708, Note_on_c, 0, 62, 41
1, 83720, Note_on_c, 0, 64, 45
1, 83748, Note_off_c, 0, 62, 64
1, 83780, Note_off_c, 0, 64, 64
1, 83832, Note_on_c, 0, 45, 46
1, 83836, Note_on_c, 0, 69, 49
1, 83844, Note_on_c, 0, 61, 52
1, 83856, Control_c, 0, 64, 0
1, 83884, Note_off_c, 0, 40, 64
1, 83908, Control_c, 0, 64, 127
1, 84020, Note_off_c, 0, 61, 64
1, 84040, Note_off_c, 0, 69, 64
1, 84124, Note_on_c, 0, 52, 45
1, 84176, Note_off_c, 0, 45, 64
1, 84272, Note_on_c, 0, 68, 41
1, 84280, Note_on_c, 0, 71, 50
1, 84324, Note_off_c, 0, 68, 64
1, 84336, Note_off_c, 0, 71, 64
1, 84424, Note_on_c, 0, 73, 57
1, 84436, Note_on_c, 0, 57, 46
1, 84440, Tempo, 500000
1, 84440, Note_on_c, 0, 67, 41
1, 84464, Note_off_c, 0, 52, 64
1, 84464, Note_off_c, 0, 67, 64
1, 84472, Note_off_c, 0, 73, 64
1, 84536, Note_on_c, 0, 67, 45
1, 84544, Note_on_c, 0, 74, 46
1, 84576, Note_off_c, 0, 67, 64
1, 84604, Note_off_c, 0, 74, 64
1, 84640, Note_on_c, 0, 67, 46
1, 84648, Note_on_c, 0, 76, 48
1, 84720, Note_off_c, 0, 67, 64
1, 84724, Note_off_c, 0, 76, 64
1, 84760, Note_on_c, 0, 74, 41
1, 84760, Note_on_c, 0, 66, 54
1, 84776, Note_off_c, 0, 57, 64
1, 84780, Control_c, 0, 64, 0
1, 84788, Note_on_c, 0, 50, 45
1, 84820, Control_c, 0, 64, 127
1, 84916, Note_off_c, 0, 74, 64
1, 84928, Note_off_c, 0, 66, 64
1, 85064, Note_on_c, 0, 65, 45
1, 85072, Note_on_c, 0, 71, 49
1, 85088, Control_c, 0, 64, 0
1, 85104, Note_on_c, 0, 38, 26
1, 85128, Note_off_c, 0, 50, 64
1, 85152, Control_c, 0, 64, 127
1, 85160, Note_off_c, 0, 71, 64
1, 85184, Note_off_c, 0, 65, 64
1, 85412, Note_on_c, 0, 68, 46
1, 85416, Note_on_c, 0, 62, 46
1, 85420, Note_on_c, 0, 40, 39
1, 85448, Note_off_c, 0, 38, 64
1, 85480, Note_off_c, 0, 68, 64
1, 85508, Note_on_c, 0, 66, 58
1, 85588, Note_off_c, 0, 62, 64
1, 85608, Note_on_c, 0, 64, 41
1, 85616, Note_off_c, 0, 66, 64
1, 85708, Note_on_c, 0, 69, 50
1, 85708, Control_c, 0, 64, 0
1, 85720, Note_on_c, 0, 61, 58
1, 85720, Note_on_c, 0, 45, 48
1, 85728, Note_off_c, 0, 64, 64
1, 85764, Note_off_c, 0, 40, 64
1, 85792, Control_c, 0, 64, 127
1, 85872, Note_off_c, 0, 61, 64
1, 85896, Note_off_c, 0, 69, 64
1, 85996, Note_on_c, 0, 57, 52
1, 86064, Note_off_c, 0, 45, 64
1, 86268, Control_c, 0, 64, 0
1, 86304, Note_on_c, 0, 54, 52
1, 86304, Note_on_c, 0, 73, 61
1, 86304, Note_on_c, 0, 61, 66
1, 86312, Note_on_c, 0, 69, 61
1, 86340, Note_off_c, 0, 57, 64
1, 86380, Note_off_c, 0, 69, 64
1, 86388, Note_off_c, 0, 61, 64
1, 86392, Note_off_c, 0, 73, 64
1, 86404, Control_c, 0, 64, 127
1, 86508, Note_on_c, 0, 73, 52
1, 86512, Note_on_c, 0, 69, 57
1, 86512, Note_on_c, 0, 61, 66
1, 86560, Note_off_c, 0, 69, 64
1, 86568, Note_off_c, 0, 73, 64
1, 86592, Note_on_c, 0, 74, 62
1, 86600, Note_on_c, 0, 71, 57
1, 86600, Control_c, 0, 64, 0
1, 86612, Note_on_c, 0, 62, 72
1, 86616, Note_off_c, 0, 61, 64
1, 86696, Note_off_c, 0, 71, 64
1, 86712, Control_c, 0, 64, 127
1, 86912, Note_on_c, 0, 59, 52
1, 86916, Note_on_c, 0, 71, 52
1, 86916, Note_on_c, 0, 68, 62
1, 86936, Note_off_c, 0, 74, 64
1, 86936, Note_off_c, 0, 62, 64
1, 87008, Note_off_c, 0, 68, 64
1, 87016, Note_off_c, 0, 71, 64
1, 87024, Note_off_c, 0, 59, 64
1, 87032, Note_off_c, 0, 54, 64
1, 87176, Note_on_c, 0, 69, 62
1, 87176, Note_on_c, 0, 54, 59
1, 87180, Note_on_c, 0, 73, 61
1, 87184, Note_on_c, 0, 61, 66
1, 87200, Control_c, 0, 64, 0
1, 87244, Control_c, 0, 64, 127
1, 87268, Note_on_c, 0, 68, 67
1, 87272, Note_on_c, 0, 59, 62
1, 87280, Note_on_c, 0, 71, 57
1, 87288, Note_off_c, 0, 69, 64
1, 87288, Note_off_c, 0, 73, 64
1, 87296, Note_off_c, 0, 61, 64
1, 87336, Note_off_c, 0, 68, 64
1, 87368, Note_on_c, 0, 69, 57
1, 87380, Note_off_c, 0, 71, 64
1, 87380, Note_on_c, 0, 66, 55
1, 87396, Note_on_c, 0, 57, 50
1, 87400, Note_off_c, 0, 59, 64
1, 87432, Note_off_c, 0, 69, 64
1, 87452, Note_off_c, 0, 66, 64
1, 87472, Note_on_c, 0, 74, 62
1, 87480, Note_on_c, 0, 62, 67
1, 87484, Note_on_c, 0, 71, 58
1, 87504, Note_off_c, 0, 57, 64
1, 87508, Control_c, 0, 64, 0
1, 87576, Note_off_c, 0, 71, 64
1, 87580, Control_c, 0, 64, 127
1, 87784, Note_on_c, 0, 68, 59
1, 87796, Note_on_c, 0, 59, 61
1, 87800, Note_off_c, 0, 74, 64
1, 87800, Note_on_c, 0, 71, 57
1, 87840, Note_off_c, 0, 62, 64
1, 87864, Note_off_c, 0, 68, 64
1, 87868, Note_off_c, 0, 59, 64
1, 87888, Note_off_c, 0, 71, 64
1, 87904, Note_off_c, 0, 54, 64
1, 88072, Note_on_c, 0, 54, 39
1, 88076, Note_on_c, 0, 69, 66
1, 88076, Note_on_c, 0, 61, 57
1, 88080, Note_on_c, 0, 73, 63
1, 88096, Control_c, 0, 64, 0
1, 88144, Note_off_c, 0, 69, 64
1, 88156, Note_off_c, 0, 73, 64
1, 88160, Control_c, 0, 64, 127
1, 88168, Note_off_c, 0, 61, 64
1, 88264, Note_on_c, 0, 73, 41
1, 88272, Note_on_c, 0, 61, 62
1, 88272, Note_on_c, 0, 69, 53
1, 88320, Note_off_c, 0, 73, 64
1, 88320, Note_off_c, 0, 69, 64
1, 88360, Note_on_c, 0, 74, 62
1, 88360, Note_on_c, 0, 71, 62
1, 88368, Note_off_c, 0, 61, 64
1, 88372, Note_on_c, 0, 62, 70
1, 88376, Control_c, 0, 64, 0
1, 88432, Control_c, 0, 64, 127
1, 88460, Note_off_c, 0, 71, 64
1, 88648, Control_c, 0, 64, 0
1, 88660, Note_on_c, 0, 71, 62
1, 88660, Note_on_c, 0, 68, 63
1, 88668, Note_on_c, 0, 59, 52
1, 88672, Note_off_c, 0, 74, 64
1, 88688, Note_off_c, 0, 62, 64
1, 88692, Control_c, 0, 64, 127
1, 88736, Note_off_c, 0, 68, 64
1, 88748, Note_off_c, 0, 71, 64
1, 88752, Note_off_c, 0, 59, 64
1, 88800, Note_off_c, 0, 54, 64
1, 88908, Note_on_c, 0, 54, 59
1, 88916, Note_on_c, 0, 61, 61
1, 88916, Control_c, 0, 64, 0
1, 88920, Note_on_c, 0, 69, 57
1, 88928, Note_on_c, 0, 73, 52
1, 88928, Note_on_c, 0, 66, 67
1, 88956, Control_c, 0, 64, 127
1, 89012, Note_off_c, 0, 66, 64
1, 89012, Note_on_c, 0, 68, 45
1, 89016, Note_off_c, 0, 73, 64
1, 89016, Note_on_c, 0, 59, 36
1, 89020, Note_on_c, 0, 71, 52
1, 89028, Note_off_c, 0, 61, 64
1, 89044, Note_off_c, 0, 69, 64
1, 89080, Note_off_c, 0, 68, 64
1, 89088, Note_on_c, 0, 69, 54
1, 89088, Note_on_c, 0, 66, 52
1, 89088, Note_on_c, 0, 57, 40
1, 89104, Note_off_c, 0, 71, 64
1, 89112, Note_off_c, 0, 59, 64
1, 89132, Note_off_c, 0, 54, 64
1, 89160, Note_off_c, 0, 66, 64
1, 89164, Note_off_c, 0, 69, 64
1, 89176, Note_off_c, 0, 57, 64
1, 89224, Note_on_c, 0, 42, 65
1, 89232, Note_on_c, 0, 90, 102
1, 89232, Note_on_c, 0, 78, 62
1, 89236, Note_on_c, 0, 54, 68
1, 89512, Note_off_c, 0, 42, 64
1, 89520, Note_off_c, 0, 90, 64
1, 89520, Note_off_c, 0, 78, 64
1, 89524, Note_off_c, 0, 54, 64
1, 89528, Note_on_c, 0, 90, 100
1, 89528, Note_on_c, 0, 78, 62
1, 89528, Note_on_c, 0, 42, 68
1, 89528, Note_on_c, 0, 54, 67
1, 89816, Note_off_c, 0, 90, 64
1, 89816, Note_off_c, 0, 78, 64
1, 89816, Note_off_c, 0, 42, 64
1, 89816, Note_off_c, 0, 54, 64
1, 89836, Note_on_c, 0, 69, 66
1, 89836, Note_on_c, 0, 61, 36
1, 89836, Note_on_c, 0, 54, 58
1, 89840, Note_on_c, 0, 73, 50
1, 89872, Note_off_c, 0, 61, 64
1, 89872, Control_c, 0, 64, 0
1, 89904, Note_off_c, 0, 69, 64
1, 89932, Note_off_c, 0, 73, 64
1, 89936, Control_c, 0, 64, 127
1, 90068, Note_on_c, 0, 61, 62
1, 90068, Note_on_c, 0, 73, 53
1, 90068, Note_on_c, 0, 69, 70
1, 90120, Note_off_c, 0, 73, 64
1, 90120, Note_off_c, 0, 69, 64
1, 90136, Note_off_c, 0, 61, 64
1, 90152, Note_on_c, 0, 62, 63
1, 90160, Note_on_c, 0, 74, 66
1, 90160, Note_on_c, 0, 71, 62
1, 90236, Note_off_c, 0, 71, 64
1, 90460, Note_on_c, 0, 71, 62
1, 90468, Note_on_c, 0, 59, 57
1, 90468, Note_on_c, 0, 68, 63
1, 90480, Control_c, 0, 64, 0
1, 90488, Note_off_c, 0, 74, 64
1, 90492, Note_off_c, 0, 62, 64
1, 90504, Control_c, 0, 64, 127
1, 90564, Note_off_c, 0, 54, 64
1, 90612, Note_off_c, 0, 68, 64
1, 90672, Note_off_c, 0, 59, 64
1, 90672, Note_off_c, 0, 71, 64
1, 90740, Note_on_c, 0, 73, 62
1, 90740, Note_on_c, 0, 69, 63
1, 90744, Note_on_c, 0, 54, 59
1, 90752, Note_on_c, 0, 61, 62
1, 90812, Note_off_c, 0, 73, 64
1, 90816, Note_off_c, 0, 69, 64
1, 90836, Note_on_c, 0, 68, 55
1, 90840, Note_on_c, 0, 59, 52
1, 90844, Note_on_c, 0, 71, 62
1, 90856, Note_off_c, 0, 61, 64
1, 90900, Note_off_c, 0, 68, 64
1, 90936, Note_on_c, 0, 66, 61
1, 90936, Note_on_c, 0, 57, 26
1, 90940, Note_on_c, 0, 69, 55
1, 90952, Note_off_c, 0, 71, 64
1, 90976, Note_off_c, 0, 59, 64
1, 91000, Note_off_c, 0, 69, 64
1, 91016, Note_off_c, 0, 57, 64
1, 91032, Note_off_c, 0, 66, 64
1, 91032, Note_on_c, 0, 74, 66
1, 91048, Note_on_c, 0, 71, 62
1, 91048, Note_on_c, 0, 62, 66
1, 91060, Control_c, 0, 64, 0
1, 91120, Control_c, 0, 64, 127
1, 91152, Note_off_c, 0, 71, 64
1, 91344, Note_on_c, 0, 59, 50
1, 91344, Note_on_c, 0, 71, 58
1, 91352, Note_on_c, 0, 68, 61
1, 91364, Note_off_c, 0, 74, 64
1, 91392, Note_off_c, 0, 62, 64
1, 91460, Note_off_c, 0, 68, 64
1, 91576, Note_off_c, 0, 59, 64
1, 91596, Note_off_c, 0, 71, 64
1, 91632, Note_on_c, 0, 73, 61
1, 91632, Note_on_c, 0, 69, 63
1, 91636, Note_on_c, 0, 61, 41
1, 91692, Note_off_c, 0, 73, 64
1, 91788, Note_off_c, 0, 61, 64
1, 91788, Note_on_c, 0, 59, 55
1, 91800, Note_on_c, 0, 75, 66
1, 91872, Note_off_c, 0, 54, 64
1, 91888, Note_off_c, 0, 69, 64
1, 91988, Note_off_c, 0, 75, 64
1, 92004, Note_on_c, 0, 52, 36
1, 92004, Note_on_c, 0, 68, 63
1, 92012, Note_on_c, 0, 76, 57
1, 92080, Control_c, 0, 64, 0
1, 92320, Control_c, 0, 64, 127
1, 92480, Note_off_c, 0, 76, 64
1, 92512, Note_off_c, 0, 59, 64
1, 92620, Note_off_c, 0, 68, 64
1, 92712, Note_on_c, 0, 73, 61
1, 92712, Note_on_c, 0, 69, 55
1, 92720, Note_on_c, 0, 61, 55
1, 92756, Control_c, 0, 64, 0
1, 92792, Control_c, 0, 64, 127
1, 92888, Note_on_c, 0, 59, 55
1, 92904, Note_on_c, 0, 75, 57
1, 92912, Note_off_c, 0, 73, 64
1, 92960, Note_off_c, 0, 69, 64
1, 92984, Note_off_c, 0, 61, 64
1, 93004, Note_off_c, 0, 52, 64
1, 93164, Note_on_c, 0, 52, 52
1, 93204, Note_on_c, 0, 68, 45
1, 93212, Note_on_c, 0, 78, 52
1, 93228, Note_off_c, 0, 75, 64
1, 93288, Control_c, 0, 64, 0
1, 93296, Note_on_c, 0, 76, 57
1, 93312, Note_off_c, 0, 78, 64
1, 93556, Control_c, 0, 64, 127
1, 93648, Note_off_c, 0, 76, 64
1, 93848, Note_off_c, 0, 59, 64
1, 94096, Note_on_c, 0, 74, 50
1, 94268, Note_off_c, 0, 68, 64
1, 94276, Note_off_c, 0, 52, 64
1, 94312, Note_off_c, 0, 74, 64
1, 94456, Note_on_c, 0, 67, 41
1, 94460, Note_on_c, 0, 73, 46
1, 94472, Note_on_c, 0, 57, 31
1, 94516, Control_c, 0, 64, 0
1, 94572, Note_off_c, 0, 73, 64
1, 94572, Control_c, 0, 64, 127
1, 94632, Note_off_c, 0, 67, 64
1, 94728, Note_on_c, 0, 73, 41
1, 94784, Note_on_c, 0, 74, 46
1, 94792, Note_on_c, 0, 66, 31
1, 94808, Note_off_c, 0, 73, 64
1, 94820, Note_off_c, 0, 57, 64
1, 94824, Note_on_c, 0, 50, 45
1, 94836, Control_c, 0, 64, 0
1, 94908, Control_c, 0, 64, 127
1, 95044, Note_off_c, 0, 74, 64
1, 95064, Note_off_c, 0, 66, 64
1, 95112, Note_on_c, 0, 71, 48
1, 95128, Note_on_c, 0, 65, 41
1, 95136, Note_on_c, 0, 38, 44
1, 95152, Control_c, 0, 64, 0
1, 95168, Note_off_c, 0, 50, 64
1, 95192, Control_c, 0, 64, 127
1, 95216, Note_off_c, 0, 71, 64
1, 95292, Note_off_c, 0, 65, 64
1, 95440, Note_on_c, 0, 68, 41
1, 95452, Note_on_c, 0, 40, 44
1, 95452, Note_on_c, 0, 62, 46
1, 95472, Control_c, 0, 64, 0
1, 95480, Note_off_c, 0, 38, 64
1, 95524, Control_c, 0, 64, 127
1, 95620, Note_off_c, 0, 62, 64
1, 95668, Note_off_c, 0, 68, 64
1, 95692, Note_on_c, 0, 64, 37
1, 95744, Note_on_c, 0, 69, 49
1, 95756, Note_on_c, 0, 45, 39
1, 95768, Note_on_c, 0, 61, 54
1, 95776, Control_c, 0, 64, 0
1, 95788, Note_off_c, 0, 64, 64
1, 95796, Note_off_c, 0, 40, 64
1, 95864, Control_c, 0, 64, 127
1, 95948, Note_off_c, 0, 61, 64
1, 95976, Note_off_c, 0, 69, 64
1, 96060, Note_on_c, 0, 52, 40
1, 96088, Note_off_c, 0, 45, 64
1, 96212, Note_on_c, 0, 68, 45
1, 96224, Note_on_c, 0, 71, 49
1, 96376, Note_on_c, 0, 73, 53
1, 96380, Note_on_c, 0, 57, 44
1, 96388, Note_on_c, 0, 67, 41
1, 96396, Note_off_c, 0, 68, 64
1, 96404, Note_off_c, 0, 52, 64
1, 96408, Control_c, 0, 64, 0
1, 96428, Note_off_c, 0, 71, 64
1, 96448, Control_c, 0, 64, 127
1, 96516, Note_off_c, 0, 73, 64
1, 96628, Note_off_c, 0, 67, 64
1, 96628, Note_on_c, 0, 76, 52
1, 96696, Note_on_c, 0, 50, 48
1, 96704, Note_on_c, 0, 74, 46
1, 96712, Note_on_c, 0, 66, 58
1, 96724, Note_off_c, 0, 57, 64
1, 96724, Note_off_c, 0, 76, 64
1, 96916, Note_off_c, 0, 66, 64
1, 96964, Note_off_c, 0, 74, 64
1, 97012, Note_on_c, 0, 71, 50
1, 97020, Note_on_c, 0, 65, 45
1, 97032, Control_c, 0, 64, 0
1, 97036, Note_on_c, 0, 38, 20
1, 97056, Note_off_c, 0, 50, 64
1, 97072, Control_c, 0, 64, 127
1, 97104, Note_off_c, 0, 71, 64
1, 97160, Note_off_c, 0, 65, 64
1, 97316, Note_on_c, 0, 68, 46
1, 97328, Note_on_c, 0, 62, 46
1, 97336, Note_on_c, 0, 40, 37
1, 97352, Control_c, 0, 64, 0
1, 97376, Control_c, 0, 64, 127
1, 97380, Note_off_c, 0, 38, 64
1, 97408, Note_on_c, 0, 66, 40
1, 97436, Note_off_c, 0, 68, 64
1, 97448, Note_off_c, 0, 62, 64
1, 97496, Note_on_c, 0, 64, 48
1, 97520, Note_off_c, 0, 66, 64
1, 97604, Note_on_c, 0, 69, 45
1, 97604, Note_on_c, 0, 61, 50
1, 97624, Note_on_c, 0, 45, 31
1, 97632, Note_off_c, 0, 64, 64
1, 97636, Control_c, 0, 64, 0
1, 97680, Note_off_c, 0, 40, 64
1, 97700, Control_c, 0, 64, 127
1, 97764, Note_off_c, 0, 61, 64
1, 97848, Note_off_c, 0, 69, 64
1, 97896, Note_on_c, 0, 52, 39
1, 97968, Note_off_c, 0, 45, 64
1, 98056, Note_on_c, 0, 71, 37
1, 98064, Note_on_c, 0, 68, 50
1, 98164, Note_off_c, 0, 68, 64
1, 98172, Note_off_c, 0, 71, 64
1, 98212, Note_on_c, 0, 73, 58
1, 98220, Note_on_c, 0, 57, 41
1, 98224, Note_on_c, 0, 67, 55
1, 98240, Note_off_c, 0, 52, 64
1, 98268, Note_off_c, 0, 73, 64
1, 98272, Note_off_c, 0, 67, 64
1, 98324, Note_on_c, 0, 67, 50
1, 98332, Note_on_c, 0, 73, 54
1, 98360, Note_off_c, 0, 67, 64
1, 98380, Note_off_c, 0, 73, 64
1, 98416, Note_on_c, 0, 73, 52
1, 98420, Note_on_c, 0, 67, 59
1, 98456, Note_off_c, 0, 67, 64
1, 98472, Note_off_c, 0, 73, 64
1, 98532, Note_on_c, 0, 74, 54
1, 98540, Control_c, 0, 64, 0
1, 98552, Note_on_c, 0, 66, 57
1, 98556, Note_on_c, 0, 50, 45
1, 98564, Note_off_c, 0, 57, 64
1, 98568, Control_c, 0, 64, 127
1, 98728, Note_off_c, 0, 66, 64
1, 98772, Note_off_c, 0, 74, 64
1, 98844, Note_on_c, 0, 71, 48
1, 98852, Note_on_c, 0, 65, 46
1, 98852, Note_on_c, 0, 38, 45
1, 98864, Control_c, 0, 64, 0
1, 98896, Control_c, 0, 64, 127
1, 98900, Note_off_c, 0, 50, 64
1, 98904, Note_off_c, 0, 71, 64
1, 98936, Note_off_c, 0, 65, 64
1, 99136, Note_on_c, 0, 68, 52
1, 99140, Note_on_c, 0, 62, 50
1, 99152, Note_on_c, 0, 40, 49
1, 99196, Note_off_c, 0, 38, 64
1, 99200, Note_off_c, 0, 62, 64
1, 99208, Note_off_c, 0, 68, 64
1, 99236, Note_on_c, 0, 66, 62
1, 99248, Note_on_c, 0, 62, 45
1, 99336, Note_off_c, 0, 66, 64
1, 99336, Note_on_c, 0, 64, 45
1, 99372, Note_off_c, 0, 62, 64
1, 99408, Note_off_c, 0, 64, 64
1, 99440, Note_on_c, 0, 69, 52
1, 99448, Note_on_c, 0, 61, 58
1, 99464, Note_on_c, 0, 45, 31
1, 99480, Control_c, 0, 64, 0
1, 99496, Note_off_c, 0, 40, 64
1, 99548, Control_c, 0, 64, 127
1, 99636, Note_off_c, 0, 61, 64
1, 99656, Note_off_c, 0, 69, 64
1, 99748, Note_on_c, 0, 52, 32
1, 99808, Note_off_c, 0, 45, 64
1, 99900, Note_on_c, 0, 68, 41
1, 99904, Note_on_c, 0, 71, 45
1, 99964, Note_off_c, 0, 68, 64
1, 99964, Note_off_c, 0, 71, 64
1, 100064, Note_on_c, 0, 67, 46
1, 100068, Note_on_c, 0, 73, 58
1, 100076, Note_on_c, 0, 57, 41
1, 100088, Note_off_c, 0, 67, 64
1, 100092, Note_off_c, 0, 52, 64
1, 100120, Note_off_c, 0, 73, 64
1, 100192, Note_on_c, 0, 74, 53
1, 100196, Note_on_c, 0, 67, 52
1, 100236, Note_off_c, 0, 67, 64
1, 100248, Note_off_c, 0, 74, 64
1, 100288, Note_on_c, 0, 67, 59
1, 100296, Note_on_c, 0, 76, 57
1, 100328, Note_off_c, 0, 67, 64
1, 100372, Note_off_c, 0, 76, 64
1, 100404, Note_on_c, 0, 50, 48
1, 100408, Note_on_c, 0, 66, 57
1, 100412, Note_on_c, 0, 74, 57
1, 100420, Note_off_c, 0, 57, 64
1, 100480, Note_off_c, 0, 74, 64
1, 100540, Note_off_c, 0, 66, 64
1, 100728, Note_on_c, 0, 65, 45
1, 100736, Note_on_c, 0, 71, 46
1, 100744, Note_on_c, 0, 38, 32
1, 100748, Note_off_c, 0, 50, 64
1, 100768, Control_c, 0, 64, 0
1, 100820, Control_c, 0, 64, 127
1, 100856, Note_off_c, 0, 71, 64
1, 100908, Note_off_c, 0, 65, 64
1, 101088, Note_off_c, 0, 38, 64
1, 101088, Note_on_c, 0, 68, 48
1, 101096, Note_on_c, 0, 62, 53
1, 101100, Note_on_c, 0, 40, 45
1, 101152, Note_off_c, 0, 62, 64
1, 101164, Note_off_c, 0, 68, 64
1, 101196, Note_on_c, 0, 66, 58
1, 101196, Note_on_c, 0, 62, 42
1, 101264, Note_off_c, 0, 62, 64
1, 101312, Note_off_c, 0, 66, 64
1, 101312, Note_on_c, 0, 62, 53
1, 101316, Note_on_c, 0, 64, 45
1, 101400, Note_off_c, 0, 62, 64
1, 101424, Note_off_c, 0, 64, 64
1, 101444, Note_off_c, 0, 40, 64
1, 101452, Note_on_c, 0, 69, 50
1, 101464, Note_on_c, 0, 61, 52
1, 101472, Note_on_c, 0, 33, 31
1, 101476, Note_on_c, 0, 45, 31
1, 101492, Control_c, 0, 64, 0
1, 101548, Control_c, 0, 64, 127
1, 101628, Note_off_c, 0, 61, 64
1, 101664, Note_off_c, 0, 69, 64
1, 101856, Note_off_c, 0, 33, 64
1, 101860, Note_off_c, 0, 45, 64
1, 102000, Note_on_c, 0, 76, 57
1, 102052, Control_c, 0, 64, 0
1, 102108, Control_c, 0, 64, 127
1, 102292, Control_c, 0, 64, 0
1, 102348, Control_c, 0, 64, 127
1, 102388, Note_on_c, 0, 77, 50
1, 102404, Note_off_c, 0, 76, 64
1, 102652, Note_off_c, 0, 77, 64
1, 102672, Note_on_c, 0, 76, 52
1, 102720, Note_on_c, 0, 62, 41
1, 102720, Note_on_c, 0, 65, 36
1, 102732, Note_on_c, 0, 57, 24
1, 102740, Note_on_c, 0, 74, 48
1, 102752, Control_c, 0, 64, 0
1, 102772, Note_off_c, 0, 76, 64
1, 102824, Control_c, 0, 64, 127
1, 102984, Note_off_c, 0, 62, 64
1, 102984, Note_off_c, 0, 65, 64
1, 102996, Note_off_c, 0, 57, 64
1, 103036, Note_on_c, 0, 77, 52
1, 103048, Note_on_c, 0, 62, 28
1, 103048, Note_on_c, 0, 57, 44
1, 103052, Note_on_c, 0, 65, 41
1, 103064, Note_off_c, 0, 74, 64
1, 103076, Control_c, 0, 64, 0
1, 103144, Control_c, 0, 64, 127
1, 103200, Note_off_c, 0, 77, 64
1, 103328, Note_on_c, 0, 77, 50
1, 103340, Control_c, 0, 64, 0
1, 103348, Note_off_c, 0, 57, 64
1, 103348, Note_off_c, 0, 65, 64
1, 103364, Note_off_c, 0, 62, 64
1, 103400, Control_c, 0, 64, 127
1, 103604, Note_on_c, 0, 65, 36
1, 103608, Note_on_c, 0, 60, 36
1, 103616, Note_on_c, 0, 57, 31
1, 103640, Control_c, 0, 64, 0
1, 103712, Control_c, 0, 64, 127
1, 103868, Note_off_c, 0, 65, 64
1, 103872, Note_off_c, 0, 60, 64
1, 103880, Note_off_c, 0, 57, 64
1, 103896, Note_on_c, 0, 76, 45
1, 103896, Control_c, 0, 64, 0
1, 103912, Note_on_c, 0, 64, 35
1, 103912, Note_on_c, 0, 60, 32
1, 103912, Note_on_c, 0, 57, 35
1, 103920, Note_off_c, 0, 77, 64
1, 103984, Control_c, 0, 64, 127
1, 104092, Note_off_c, 0, 76, 64
1, 104136, Note_off_c, 0, 64, 64
1, 104136, Note_off_c, 0, 60, 64
1, 104152, Note_on_c, 0, 74, 55
1, 104156, Note_off_c, 0, 57, 64
1, 104184, Note_on_c, 0, 76, 52
1, 104208, Note_off_c, 0, 74, 64
1, 104256, Note_on_c, 0, 74, 59
1, 104280, Note_off_c, 0, 76, 64
1, 104340, Note_on_c, 0, 73, 63
1, 104348, Note_off_c, 0, 74, 64
1, 104424, Note_off_c, 0, 73, 64
1, 104432, Note_on_c, 0, 74, 59
1, 104436, Note_on_c, 0, 56, 36
1, 104444, Note_on_c, 0, 52, 37
1, 104448, Note_on_c, 0, 62, 40
1, 104464, Control_c, 0, 64, 0
1, 104520, Control_c, 0, 64, 127
1, 104572, Note_on_c, 0, 75, 54
1, 104608, Note_off_c, 0, 74, 64
1, 104700, Note_off_c, 0, 56, 64
1, 104708, Note_off_c, 0, 52, 64
1, 104712, Note_off_c, 0, 62, 64
1, 104712, Note_on_c, 0, 56, 39
1, 104720, Note_off_c, 0, 75, 64
1, 104724, Note_on_c, 0, 76, 55
1, 104728, Note_on_c, 0, 52, 41
1, 104732, Note_on_c, 0, 62, 35
1, 104744, Control_c, 0, 64, 0
1, 104800, Control_c, 0, 64, 127
1, 104848, Note_on_c, 0, 71, 66
1, 104892, Note_off_c, 0, 76, 64
1, 104932, Note_off_c, 0, 56, 64
1, 104932, Note_off_c, 0, 62, 64
1, 104944, Note_off_c, 0, 52, 64
1, 105004, Note_on_c, 0, 74, 59
1, 105040, Note_off_c, 0, 71, 64
1, 105332, Note_on_c, 0, 45, 36
1, 105408, Control_c, 0, 64, 0
1, 105472, Control_c, 0, 64, 127
1, 105708, Note_on_c, 0, 52, 39
1, 105728, Note_on_c, 0, 72, 49
1, 105732, Note_on_c, 0, 60, 26
1, 105748, Control_c, 0, 64, 0
1, 105780, Control_c, 0, 64, 127
1, 105792, Note_off_c, 0, 74, 64
1, 106048, Note_off_c, 0, 72, 64
1, 106056, Note_off_c, 0, 45, 64
1, 106060, Note_on_c, 0, 69, 49
1, 106072, Note_off_c, 0, 52, 64
1, 106072, Note_off_c, 0, 60, 64
1, 106144, Note_off_c, 0, 69, 64
1, 106144, Note_on_c, 0, 71, 48
1, 106196, Note_on_c, 0, 69, 68
1, 106216, Note_off_c, 0, 71, 64
1, 106280, Note_off_c, 0, 69, 64
1, 106292, Note_on_c, 0, 52, 50
1, 106292, Note_on_c, 0, 60, 44
1, 106296, Note_on_c, 0, 68, 76
1, 106312, Control_c, 0, 64, 0
1, 106384, Control_c, 0, 64, 127
1, 106568, Note_on_c, 0, 45, 49
1, 106572, Note_on_c, 0, 69, 63
1, 106592, Note_off_c, 0, 68, 64
1, 106592, Control_c, 0, 64, 0
1, 106644, Control_c, 0, 64, 127
1, 106704, Note_off_c, 0, 52, 64
1, 106720, Note_off_c, 0, 60, 64
1, 106784, Note_off_c, 0, 45, 64
1, 106832, Note_on_c, 0, 71, 66
1, 106836, Note_off_c, 0, 69, 64
1, 107124, Note_on_c, 0, 55, 58
1, 107128, Note_on_c, 0, 76, 70
1, 107140, Note_on_c, 0, 52, 58
1, 107148, Note_off_c, 0, 71, 64
1, 107148, Note_on_c, 0, 59, 49
1, 107164, Control_c, 0, 64, 0
1, 107248, Control_c, 0, 64, 127
1, 107376, Note_off_c, 0, 76, 64
1, 107432, Note_on_c, 0, 47, 55
1, 107436, Note_off_c, 0, 55, 64
1, 107452, Note_off_c, 0, 52, 64
1, 107460, Note_off_c, 0, 59, 64
1, 107680, Note_off_c, 0, 47, 64
1, 107764, Control_c, 0, 64, 0
1, 107776, Note_on_c, 0, 71, 70
1, 107824, Control_c, 0, 64, 127
1, 107916, Note_on_c, 0, 67, 62
1, 107944, Note_off_c, 0, 71, 64
1, 108056, Note_on_c, 0, 64, 78
1, 108064, Note_on_c, 0, 59, 63
1, 108072, Note_off_c, 0, 67, 64
1, 108072, Note_on_c, 0, 55, 66
1, 108072, Note_on_c, 0, 47, 65
1, 108088, Control_c, 0, 64, 0
1, 108140, Control_c, 0, 64, 127
1, 108184, Note_on_c, 0, 71, 63
1, 108224, Note_off_c, 0, 64, 64
1, 108304, Note_off_c, 0, 59, 64
1, 108312, Note_off_c, 0, 55, 64
1, 108312, Note_off_c, 0, 47, 64
1, 108324, Note_on_c, 0, 54, 58
1, 108324, Note_on_c, 0, 63, 78
1, 108324, Note_on_c, 0, 59, 62
1, 108324, Note_on_c, 0, 47, 62
1, 108368, Control_c, 0, 64, 0
1, 108380, Note_off_c, 0, 71, 64
1, 108436, Control_c, 0, 64, 127
1, 108588, Note_off_c, 0, 54, 64
1, 108588, Note_off_c, 0, 59, 64
1, 108588, Note_off_c, 0, 47, 64
1, 108672, Note_on_c, 0, 64, 71
1, 108676, Note_off_c, 0, 63, 64
1, 108684, Note_on_c, 0, 52, 61
1, 108688, Note_on_c, 0, 59, 54
1, 108696, Note_on_c, 0, 55, 61
1, 108712, Control_c, 0, 64, 0
1, 108764, Control_c, 0, 64, 127
1, 109080, Note_off_c, 0, 52, 64
1, 109080, Note_off_c, 0, 59, 64
1, 109088, Note_off_c, 0, 55, 64
1, 109104, Note_on_c, 0, 40, 62
1, 109124, Control_c, 0, 64, 0
1, 109184, Control_c, 0, 64, 127
1, 109324, Note_off_c, 0, 64, 64
1, 109480, Note_on_c, 0, 76, 49
1, 109484, Note_off_c, 0, 40, 64
1, 109504, Control_c, 0, 64, 0
1, 109556, Control_c, 0, 64, 127
1, 109760, Note_on_c, 0, 77, 57
1, 109792, Note_off_c, 0, 76, 64
1, 109956, Note_on_c, 0, 76, 53
1, 109968, Note_off_c, 0, 77, 64
1, 110016, Note_on_c, 0, 57, 54
1, 110024, Note_on_c, 0, 65, 48
1, 110024, Note_on_c, 0, 62, 53
1, 110032, Note_on_c, 0, 74, 59
1, 110052, Control_c, 0, 64, 0
1, 110060, Note_off_c, 0, 76, 64
1, 110120, Control_c, 0, 64, 127
1, 110256, Note_off_c, 0, 57, 64
1, 110264, Note_off_c, 0, 65, 64
1, 110264, Note_off_c, 0, 62, 64
1, 110292, Note_on_c, 0, 77, 59
1, 110304, Note_off_c, 0, 74, 64
1, 110316, Note_on_c, 0, 65, 36
1, 110320, Note_on_c, 0, 57, 45
1, 110328, Note_on_c, 0, 62, 31
1, 110328, Control_c, 0, 64, 0
1, 110388, Control_c, 0, 64, 127
1, 110444, Note_off_c, 0, 77, 64
1, 110552, Note_off_c, 0, 57, 64
1, 110572, Note_off_c, 0, 65, 64
1, 110576, Note_on_c, 0, 77, 70
1, 110584, Note_off_c, 0, 62, 64
1, 110848, Note_on_c, 0, 65, 39
1, 110856, Note_on_c, 0, 60, 36
1, 110856, Note_on_c, 0, 57, 36
1, 110896, Control_c, 0, 64, 0
1, 110936, Control_c, 0, 64, 127
1, 111088, Note_off_c, 0, 65, 64
1, 111096, Note_off_c, 0, 60, 64
1, 111096, Note_off_c, 0, 57, 64
1, 111140, Note_on_c, 0, 76, 53
1, 111148, Note_on_c, 0, 64, 40
1, 111152, Note_on_c, 0, 57, 45
1, 111160, Note_on_c, 0, 60, 40
1, 111168, Control_c, 0, 64, 0
1, 111176, Note_off_c, 0, 77, 64
1, 111220, Control_c, 0, 64, 127
1, 111324, Note_off_c, 0, 76, 64
1, 111392, Note_on_c, 0, 74, 54
1, 111396, Note_off_c, 0, 64, 64
1, 111400, Note_off_c, 0, 60, 64
1, 111412, Note_off_c, 0, 57, 64
1, 111432, Control_c, 0, 64, 0
1, 111444, Note_on_c, 0, 76, 54
1, 111460, Note_off_c, 0, 74, 64
1, 111480, Control_c, 0, 64, 127
1, 111504, Note_on_c, 0, 74, 65
1, 111528, Note_off_c, 0, 76, 64
1, 111580, Note_on_c, 0, 73, 67
1, 111592, Note_off_c, 0, 74, 64
1, 111700, Note_on_c, 0, 62, 52
1, 111700, Note_on_c, 0, 56, 52
1, 111700, Note_on_c, 0, 52, 52
1, 111700, Note_on_c, 0, 74, 63
1, 111712, Note_off_c, 0, 73, 64
1, 111720, Control_c, 0, 64, 0
1, 111768, Control_c, 0, 64, 127
1, 111844, Note_on_c, 0, 75, 55
1, 111888, Note_off_c, 0, 74, 64
1, 111940, Note_off_c, 0, 62, 64
1, 111940, Note_off_c, 0, 56, 64
1, 111940, Note_off_c, 0, 52, 64
1, 112008, Note_on_c, 0, 76, 44
1, 112016, Note_on_c, 0, 52, 50
1, 112016, Note_on_c, 0, 56, 46
1, 112016, Note_on_c, 0, 62, 50
1, 112028, Note_off_c, 0, 75, 64
1, 112052, Control_c, 0, 64, 0
1, 112088, Control_c, 0, 64, 127
1, 112144, Note_off_c, 0, 76, 64
1, 112156, Note_on_c, 0, 71, 66
1, 112224, Note_off_c, 0, 71, 64
1, 112272, Note_on_c, 0, 71, 57
1, 112300, Note_off_c, 0, 52, 64
1, 112340, Note_off_c, 0, 56, 64
1, 112348, Control_c, 0, 64, 0
1, 112360, Note_off_c, 0, 62, 64
1, 112364, Note_on_c, 0, 74, 59
1, 112384, Note_off_c, 0, 71, 64
1, 112440, Control_c, 0, 64, 127
1, 112664, Note_on_c, 0, 57, 48
1, 112672, Note_on_c, 0, 62, 31
1, 112680, Note_on_c, 0, 53, 35
1, 112696, Control_c, 0, 64, 0
1, 112748, Control_c, 0, 64, 127
1, 112904, Note_off_c, 0, 57, 64
1, 112912, Note_off_c, 0, 62, 64
1, 112920, Note_off_c, 0, 53, 64
1, 113048, Note_on_c, 0, 72, 53
1, 113056, Note_on_c, 0, 57, 36
1, 113072, Note_on_c, 0, 60, 36
1, 113096, Note_on_c, 0, 53, 20
1, 113100, Note_off_c, 0, 74, 64
1, 113100, Control_c, 0, 64, 0
1, 113176, Control_c, 0, 64, 127
1, 113340, Note_off_c, 0, 53, 64
1, 113344, Note_off_c, 0, 57, 64
1, 113352, Note_off_c, 0, 72, 64
1, 113360, Note_off_c, 0, 60, 64
1, 113428, Note_on_c, 0, 69, 48
1, 113592, Note_on_c, 0, 70, 62
1, 113620, Note_off_c, 0, 69, 64
1, 113676, Note_on_c, 0, 69, 70
1, 113688, Note_off_c, 0, 70, 64
1, 113788, Note_off_c, 0, 69, 64
1, 113800, Note_on_c, 0, 67, 72
1, 113800, Note_on_c, 0, 60, 39
1, 113804, Note_on_c, 0, 63, 42
1, 113804, Note_on_c, 0, 53, 32
1, 113828, Control_c, 0, 64, 0
1, 113852, Control_c, 0, 64, 127
1, 114024, Note_off_c, 0, 67, 64
1, 114064, Note_off_c, 0, 60, 64
1, 114068, Note_off_c, 0, 63, 64
1, 114068, Note_off_c, 0, 53, 64
1, 114148, Note_on_c, 0, 69, 58
1, 114160, Note_on_c, 0, 63, 52
1, 114168, Note_on_c, 0, 53, 53
1, 114176, Note_on_c, 0, 60, 57
1, 114240, Control_c, 0, 64, 0
1, 114260, Control_c, 0, 64, 127
1, 114424, Note_off_c, 0, 63, 64
1, 114432, Note_off_c, 0, 53, 64
1, 114440, Note_off_c, 0, 60, 64
1, 114540, Note_on_c, 0, 62, 50
1, 114540, Note_on_c, 0, 70, 80
1, 114556, Note_on_c, 0, 58, 40
1, 114576, Note_off_c, 0, 69, 64
1, 114600, Control_c, 0, 64, 0
1, 114704, Control_c, 0, 64, 127
1, 115144, Note_on_c, 0, 74, 54
1, 115168, Note_on_c, 0, 65, 29
1, 115180, Note_off_c, 0, 70, 64
1, 115216, Control_c, 0, 64, 0
1, 115612, Control_c, 0, 64, 127
1, 115896, Note_off_c, 0, 62, 64
1, 115916, Note_off_c, 0, 58, 64
1, 116008, Note_off_c, 0, 74, 64
1, 116032, Note_off_c, 0, 65, 64
1, 116232, Note_on_c, 0, 69, 72
1, 116248, Control_c, 0, 64, 0
1, 116448, Note_on_c, 0, 68, 66
1, 116452, Note_off_c, 0, 69, 64
1, 116532, Note_on_c, 0, 52, 68
1, 116532, Note_on_c, 0, 59, 33
1, 116532, Note_on_c, 0, 62, 67
1, 116532, Note_on_c, 0, 64, 66
1, 116568, Control_c, 0, 64, 127
1, 116584, Note_off_c, 0, 68, 64
1, 116672, Note_off_c, 0, 64, 64
1, 116772, Note_off_c, 0, 52, 64
1, 116772, Note_off_c, 0, 59, 64
1, 116772, Note_off_c, 0, 62, 64
1, 116812, Note_on_c, 0, 68, 71
1, 116812, Note_on_c, 0, 52, 54
1, 116820, Note_on_c, 0, 59, 52
1, 116824, Note_on_c, 0, 62, 67
1, 116848, Control_c, 0, 64, 0
1, 116904, Control_c, 0, 64, 127
1, 117052, Note_off_c, 0, 52, 64
1, 117060, Note_off_c, 0, 59, 64
1, 117064, Note_off_c, 0, 62, 64
1, 117088, Note_on_c, 0, 52, 53
1, 117104, Note_on_c, 0, 69, 72
1, 117104, Note_on_c, 0, 45, 53
1, 117116, Note_on_c, 0, 60, 65
1, 117132, Note_off_c, 0, 68, 64
1, 117140, Control_c, 0, 64, 0
1, 117232, Control_c, 0, 64, 127
1, 117408, Note_off_c, 0, 60, 64
1, 117432, Note_on_c, 0, 33, 70
1, 117472, Note_off_c, 0, 52, 64
1, 117488, Note_off_c, 0, 45, 64
1, 117540, Note_off_c, 0, 69, 64
1, 117708, Note_off_c, 0, 33, 64
1, 117748, Note_on_c, 0, 71, 52
1, 117748, Control_c, 0, 64, 0
1, 117808, Control_c, 0, 64, 127
1, 118020, Note_off_c, 0, 71, 64
1, 118032, Note_on_c, 0, 72, 57
1, 118152, Note_on_c, 0, 74, 52
1, 118156, Note_off_c, 0, 72, 64
1, 118276, Note_on_c, 0, 75, 62
1, 118288, Note_on_c, 0, 56, 41
1, 118300, Note_on_c, 0, 60, 44
1, 118304, Note_on_c, 0, 66, 39
1, 118324, Control_c, 0, 64, 0
1, 118332, Note_off_c, 0, 74, 64
1, 118392, Control_c, 0, 64, 127
1, 118468, Note_off_c, 0, 75, 64
1, 118528, Note_off_c, 0, 56, 64
1, 118540, Note_off_c, 0, 60, 64
1, 118544, Note_off_c, 0, 66, 64
1, 118560, Note_on_c, 0, 75, 66
1, 118568, Note_on_c, 0, 66, 46
1, 118572, Note_on_c, 0, 60, 49
1, 118572, Note_on_c, 0, 56, 49
1, 118596, Control_c, 0, 64, 0
1, 118664, Control_c, 0, 64, 127
1, 118796, Note_off_c, 0, 75, 64
1, 118800, Note_on_c, 0, 77, 53
1, 118816, Note_off_c, 0, 60, 64
1, 118832, Note_off_c, 0, 56, 64
1, 118872, Note_on_c, 0, 75, 66
1, 118880, Note_off_c, 0, 66, 64
1, 118896, Note_off_c, 0, 77, 64
1, 119128, Note_on_c, 0, 66, 46
1, 119128, Note_on_c, 0, 55, 50
1, 119140, Note_on_c, 0, 60, 46
1, 119156, Control_c, 0, 64, 0
1, 119216, Control_c, 0, 64, 127
1, 119368, Note_off_c, 0, 66, 64
1, 119368, Note_off_c, 0, 55, 64
1, 119380, Note_off_c, 0, 60, 64
1, 119440, Note_on_c, 0, 74, 53
1, 119444, Note_on_c, 0, 67, 35
1, 119444, Note_on_c, 0, 59, 42
1, 119452, Note_on_c, 0, 55, 22
1, 119476, Note_off_c, 0, 75, 64
1, 119480, Control_c, 0, 64, 0
1, 119548, Control_c, 0, 64, 127
1, 119628, Note_off_c, 0, 74, 64
1, 119728, Note_on_c, 0, 72, 57
1, 119764, Note_off_c, 0, 59, 64
1, 119776, Note_off_c, 0, 67, 64
1, 119788, Note_off_c, 0, 55, 64
1, 119840, Note_on_c, 0, 74, 53
1, 119876, Note_off_c, 0, 72, 64
1, 119976, Note_on_c, 0, 66, 49
1, 119976, Note_on_c, 0, 56, 49
1, 119984, Note_on_c, 0, 75, 62
1, 119988, Note_on_c, 0, 60, 48
1, 119996, Control_c, 0, 64, 0
1, 120048, Note_off_c, 0, 74, 64
1, 120056, Control_c, 0, 64, 127
1, 120136, Note_off_c, 0, 75, 64
1, 120216, Note_off_c, 0, 66, 64
1, 120216, Note_off_c, 0, 56, 64
1, 120228, Note_off_c, 0, 60, 64
1, 120240, Note_on_c, 0, 75, 66
1, 120248, Note_on_c, 0, 66, 46
1, 120256, Note_on_c, 0, 60, 42
1, 120264, Note_on_c, 0, 56, 41
1, 120264, Control_c, 0, 64, 0
1, 120336, Control_c, 0, 64, 127
1, 120428, Note_off_c, 0, 75, 64
1, 120440, Note_on_c, 0, 77, 52
1, 120452, Note_off_c, 0, 60, 64
1, 120456, Note_off_c, 0, 56, 64
1, 120484, Note_off_c, 0, 66, 64
1, 120512, Control_c, 0, 64, 0
1, 120516, Note_on_c, 0, 75, 71
1, 120548, Note_off_c, 0, 77, 64
1, 120572, Control_c, 0, 64, 127
1, 120776, Note_on_c, 0, 59, 41
1, 120784, Note_on_c, 0, 65, 36
1, 120784, Note_on_c, 0, 56, 29
1, 120812, Control_c, 0, 64, 0
1, 120832, Control_c, 0, 64, 127
1, 121016, Note_off_c, 0, 59, 64
1, 121024, Note_off_c, 0, 65, 64
1, 121024, Note_off_c, 0, 56, 64
1, 121048, Note_on_c, 0, 58, 48
1, 121060, Note_on_c, 0, 74, 50
1, 121060, Note_on_c, 0, 56, 40
1, 121068, Note_on_c, 0, 65, 36
1, 121088, Control_c, 0, 64, 0
1, 121100, Note_off_c, 0, 75, 64
1, 121160, Control_c, 0, 64, 127
1, 121304, Note_off_c, 0, 58, 64
1, 121308, Note_off_c, 0, 56, 64
1, 121336, Note_on_c, 0, 82, 76
1, 121340, Note_off_c, 0, 65, 64
1, 121352, Control_c, 0, 64, 0
1, 121380, Note_off_c, 0, 74, 64
1, 121408, Control_c, 0, 64, 127
1, 121600, Note_on_c, 0, 65, 45
1, 121600, Note_on_c, 0, 58, 40
1, 121604, Note_on_c, 0, 55, 36
1, 121840, Note_off_c, 0, 65, 64
1, 121840, Note_off_c, 0, 58, 64
1, 121844, Note_off_c, 0, 55, 64
1, 121880, Note_on_c, 0, 73, 59
1, 121880, Note_on_c, 0, 58, 42
1, 121888, Note_on_c, 0, 64, 48
1, 121896, Note_off_c, 0, 82, 64
1, 121896, Note_on_c, 0, 55, 42
1, 121908, Control_c, 0, 64, 0
1, 121980, Control_c, 0, 64, 127
1, 122148, Note_off_c, 0, 55, 64
1, 122156, Note_on_c, 0, 81, 66
1, 122160, Note_off_c, 0, 73, 64
1, 122160, Note_off_c, 0, 58, 64
1, 122184, Note_off_c, 0, 64, 64
1, 122380, Note_on_c, 0, 55, 46
1, 122384, Note_on_c, 0, 57, 46
1, 122392, Note_on_c, 0, 64, 46
1, 122424, Control_c, 0, 64, 0
1, 122476, Control_c, 0, 64, 127
1, 122620, Note_off_c, 0, 55, 64
1, 122624, Note_off_c, 0, 57, 64
1, 122632, Note_off_c, 0, 64, 64
1, 122680, Note_on_c, 0, 72, 54
1, 122704, Note_on_c, 0, 57, 32
1, 122704, Note_on_c, 0, 63, 41
1, 122708, Note_off_c, 0, 81, 64
1, 122708, Note_on_c, 0, 54, 41
1, 122732, Control_c, 0, 64, 0
1, 122804, Control_c, 0, 64, 127
1, 122960, Note_off_c, 0, 54, 64
1, 122960, Note_off_c, 0, 57, 64
1, 122968, Note_on_c, 0, 80, 58
1, 123004, Note_off_c, 0, 63, 64
1, 123008, Note_off_c, 0, 72, 64
1, 123248, Note_on_c, 0, 63, 41
1, 123256, Note_on_c, 0, 56, 37
1, 123264, Note_on_c, 0, 53, 24
1, 123292, Control_c, 0, 64, 0
1, 123360, Control_c, 0, 64, 127
1, 123488, Note_off_c, 0, 63, 64
1, 123496, Note_off_c, 0, 56, 64
1, 123504, Note_off_c, 0, 53, 64
1, 123588, Note_on_c, 0, 71, 48
1, 123596, Note_on_c, 0, 53, 28
1, 123600, Note_on_c, 0, 62, 35
1, 123600, Note_on_c, 0, 56, 29
1, 123612, Note_off_c, 0, 80, 64
1, 123632, Control_c, 0, 64, 0
1, 123736, Control_c, 0, 64, 127
1, 123884, Note_off_c, 0, 53, 64
1, 123904, Note_off_c, 0, 56, 64
1, 123904, Note_on_c, 0, 79, 50
1, 123920, Note_off_c, 0, 62, 64
1, 123936, Note_off_c, 0, 71, 64
1, 124232, Note_on_c, 0, 55, 20
1, 124232, Note_on_c, 0, 62, 26
1, 124240, Note_on_c, 0, 52, 20
1, 124272, Control_c, 0, 64, 0
1, 124360, Control_c, 0, 64, 127
1, 124424, Note_on_c, 0, 70, 42
1, 124444, Note_off_c, 0, 79, 64
1, 124472, Note_off_c, 0, 55, 64
1, 124472, Note_off_c, 0, 62, 64
1, 124480, Note_off_c, 0, 52, 64
1, 124652, Note_off_c, 0, 70, 64
1, 124660, Note_on_c, 0, 55, 35
1, 124660, Note_on_c, 0, 61, 37
1, 124660, Note_on_c, 0, 52, 40
1, 124664, Note_on_c, 0, 69, 53
1, 124692, Control_c, 0, 64, 0
1, 124760, Control_c, 0, 64, 127
1, 124856, Note_on_c, 0, 76, 57
1, 124900, Note_off_c, 0, 55, 64
1, 124900, Note_off_c, 0, 61, 64
1, 124900, Note_off_c, 0, 52, 64
1, 124916, Note_off_c, 0, 69, 64
1, 125040, Note_on_c, 0, 77, 62
1, 125048, Note_on_c, 0, 53, 48
1, 125064, Note_off_c, 0, 76, 64
1, 125064, Note_on_c, 0, 62, 37
1, 125064, Note_on_c, 0, 50, 48
1, 125080, Control_c, 0, 64, 0
1, 125148, Control_c, 0, 64, 127
1, 125208, Note_on_c, 0, 76, 66
1, 125252, Note_off_c, 0, 77, 64
1, 125312, Note_off_c, 0, 53, 64
1, 125328, Note_off_c, 0, 62, 64
1, 125328, Note_off_c, 0, 50, 64
1, 125352, Note_on_c, 0, 74, 78
1, 125356, Note_on_c, 0, 62, 48
1, 125364, Note_on_c, 0, 65, 52
1, 125376, Note_off_c, 0, 76, 64
1, 125380, Note_on_c, 0, 57, 36
1, 125388, Control_c, 0, 64, 0
1, 125432, Control_c, 0, 64, 127
1, 125596, Note_off_c, 0, 62, 64
1, 125604, Note_off_c, 0, 65, 64
1, 125620, Note_off_c, 0, 57, 64
1, 125628, Note_on_c, 0, 77, 71
1, 125632, Note_on_c, 0, 57, 44
1, 125640, Note_on_c, 0, 65, 45
1, 125644, Note_on_c, 0, 62, 48
1, 125664, Control_c, 0, 64, 0
1, 125672, Note_off_c, 0, 74, 64
1, 125716, Control_c, 0, 64, 127
1, 125740, Note_off_c, 0, 77, 64
1, 125916, Note_on_c, 0, 77, 67
1, 125920, Note_off_c, 0, 57, 64
1, 125936, Control_c, 0, 64, 0
1, 125952, Note_off_c, 0, 65, 64
1, 125960, Note_off_c, 0, 62, 64
1, 125984, Control_c, 0, 64, 127
1, 126176, Note_on_c, 0, 65, 44
1, 126176, Note_on_c, 0, 60, 44
1, 126188, Note_on_c, 0, 57, 31
1, 126228, Control_c, 0, 64, 0
1, 126248, Control_c, 0, 64, 127
1, 126416, Note_off_c, 0, 65, 64
1, 126416, Note_off_c, 0, 60, 64
1, 126428, Note_off_c, 0, 57, 64
1, 126468, Note_on_c, 0, 76, 62
1, 126476, Note_on_c, 0, 60, 42
1, 126480, Note_on_c, 0, 64, 35
1, 126484, Note_on_c, 0, 57, 42
1, 126500, Control_c, 0, 64, 0
1, 126512, Note_off_c, 0, 77, 64
1, 126572, Control_c, 0, 64, 127
1, 126672, Note_off_c, 0, 76, 64
1, 126744, Note_off_c, 0, 60, 64
1, 126744, Note_off_c, 0, 64, 64
1, 126744, Note_on_c, 0, 74, 63
1, 126756, Note_off_c, 0, 57, 64
1, 126808, Note_on_c, 0, 76, 50
1, 126820, Note_off_c, 0, 74, 64
1, 126876, Note_on_c, 0, 74, 65
1, 126892, Note_off_c, 0, 76, 64
1, 126964, Note_on_c, 0, 73, 78
1, 126968, Note_off_c, 0, 74, 64
1, 127024, Note_on_c, 0, 62, 44
1, 127036, Note_on_c, 0, 56, 42
1, 127040, Control_c, 0, 64, 0
1, 127048, Note_on_c, 0, 52, 35
1, 127056, Note_on_c, 0, 74, 70
1, 127064, Note_off_c, 0, 73, 64
1, 127120, Control_c, 0, 64, 127
1, 127188, Note_on_c, 0, 75, 68
1, 127224, Note_off_c, 0, 74, 64
1, 127264, Note_off_c, 0, 62, 64
1, 127276, Note_off_c, 0, 56, 64
1, 127288, Note_off_c, 0, 52, 64
1, 127332, Note_on_c, 0, 52, 36
1, 127332, Note_on_c, 0, 56, 39
1, 127336, Note_on_c, 0, 76, 66
1, 127344, Note_on_c, 0, 62, 36
1, 127348, Note_off_c, 0, 75, 64
1, 127368, Control_c, 0, 64, 0
1, 127440, Control_c, 0, 64, 127
1, 127484, Note_on_c, 0, 71, 76
1, 127532, Note_off_c, 0, 76, 64
1, 127644, Note_on_c, 0, 74, 70
1, 127664, Control_c, 0, 64, 0
1, 127688, Note_off_c, 0, 52, 64
1, 127692, Note_off_c, 0, 71, 64
1, 127712, Note_off_c, 0, 56, 64
1, 127724, Note_off_c, 0, 62, 64
1, 127740, Control_c, 0, 64, 127
1, 128012, Note_on_c, 0, 62, 37
1, 128016, Note_on_c, 0, 57, 29
1, 128032, Note_on_c, 0, 53, 36
1, 128068, Control_c, 0, 64, 0
1, 128116, Control_c, 0, 64, 127
1, 128372, Note_off_c, 0, 62, 64
1, 128376, Note_off_c, 0, 57, 64
1, 128392, Note_off_c, 0, 53, 64
1, 128436, Note_on_c, 0, 72, 53
1, 128456, Note_on_c, 0, 60, 28
1, 128468, Note_on_c, 0, 57, 28
1, 128468, Note_on_c, 0, 53, 22
1, 128476, Note_off_c, 0, 74, 64
1, 128516, Control_c, 0, 64, 0
1, 128616, Control_c, 0, 64, 127
1, 128880, Note_off_c, 0, 53, 64
1, 128884, Note_off_c, 0, 57, 64
1, 128888, Note_off_c, 0, 72, 64
1, 128888, Note_on_c, 0, 69, 66
1, 128912, Note_off_c, 0, 60, 64
1, 129044, Note_on_c, 0, 70, 79
1, 129068, Note_off_c, 0, 69, 64
1, 129156, Note_on_c, 0, 69, 59
1, 129176, Note_off_c, 0, 70, 64
1, 129268, Note_on_c, 0, 67, 78
1, 129272, Note_on_c, 0, 63, 48
1, 129280, Note_off_c, 0, 69, 64
1, 129288, Note_on_c, 0, 60, 37
1, 129288, Note_on_c, 0, 53, 36
1, 129300, Control_c, 0, 64, 0
1, 129368, Control_c, 0, 64, 127
1, 129576, Note_off_c, 0, 63, 64
1, 129592, Note_off_c, 0, 60, 64
1, 129592, Note_off_c, 0, 53, 64
1, 129728, Note_on_c, 0, 69, 72
1, 129736, Note_on_c, 0, 63, 54
1, 129744, Note_on_c, 0, 53, 36
1, 129748, Note_on_c, 0, 60, 44
1, 129764, Note_off_c, 0, 67, 64
1, 129820, Control_c, 0, 64, 0
1, 129876, Control_c, 0, 64, 127
1, 130048, Note_off_c, 0, 63, 64
1, 130056, Note_off_c, 0, 53, 64
1, 130060, Note_off_c, 0, 60, 64
1, 130280, Note_on_c, 0, 70, 67
1, 130300, Note_on_c, 0, 58, 36
1, 130300, Note_on_c, 0, 62, 46
1, 130312, Note_off_c, 0, 69, 64
1, 130392, Control_c, 0, 64, 0
1, 130468, Control_c, 0, 64, 127
1, 131088, Note_on_c, 0, 74, 41
1, 131100, Note_on_c, 0, 65, 31
1, 131112, Note_off_c, 0, 70, 64
1, 131168, Note_off_c, 0, 62, 64
1, 131212, Control_c, 0, 64, 0
1, 131284, Control_c, 0, 64, 127
1, 131688, Note_off_c, 0, 58, 64
1, 131928, Note_off_c, 0, 65, 64
1, 132036, Note_off_c, 0, 74, 64
1, 132544, Note_on_c, 0, 69, 78
1, 132568, Control_c, 0, 64, 0
1, 132628, Control_c, 0, 64, 127
1, 132792, Note_on_c, 0, 68, 74
1, 132804, Note_off_c, 0, 69, 64
1, 132876, Note_on_c, 0, 64, 70
1, 132892, Note_on_c, 0, 62, 80
1, 132904, Note_on_c, 0, 52, 67
1, 132916, Note_on_c, 0, 59, 52
1, 132924, Note_off_c, 0, 68, 64
1, 132940, Control_c, 0, 64, 0
1, 132980, Control_c, 0, 64, 127
1, 133056, Note_off_c, 0, 62, 64
1, 133208, Note_off_c, 0, 52, 64
1, 133220, Note_off_c, 0, 59, 64
1, 133252, Note_on_c, 0, 68, 79
1, 133260, Note_on_c, 0, 62, 78
1, 133260, Note_on_c, 0, 52, 70
1, 133268, Note_off_c, 0, 64, 64
1, 133268, Note_on_c, 0, 59, 65
1, 133288, Control_c, 0, 64, 0
1, 133336, Control_c, 0, 64, 127
1, 133496, Note_off_c, 0, 62, 64
1, 133564, Note_off_c, 0, 52, 64
1, 133572, Note_off_c, 0, 59, 64
1, 133632, Note_off_c, 0, 68, 64
1, 133676, Note_on_c, 0, 69, 83
1, 133676, Note_on_c, 0, 52, 67
1, 133688, Note_on_c, 0, 60, 78
1, 133692, Note_on_c, 0, 45, 61
1, 133720, Control_c, 0, 64, 0
1, 133772, Control_c, 0, 64, 127
1, 133980, Note_off_c, 0, 52, 64
1, 133996, Note_off_c, 0, 45, 64
1, 134296, Note_on_c, 0, 33, 84
1, 134400, Control_c, 0, 64, 0
1, 134520, Control_c, 0, 64, 127
1, 134620, Note_off_c, 0, 33, 64
1, 134744, Note_off_c, 0, 69, 64
1, 134760, Note_off_c, 0, 60, 64
1, 134912, Control_c, 0, 64, 0
1, 134912, End_track
2, 0, Start_track
2, 1, Copyright_t, "__________________________________________________________\012\012KUNSTDERFUGE.COM GREAT CLASSICAL MIDI COLLECTION\012__________________________________________________________\012\012KUNST-DER-FUGE CONTRIBUTOR's PROPERTY\012Copyright by Contributor & Kunst der Fuge, © 2006\012\012Contributors' list: http://kunstderfuge.com/thanks.htm\012Terms and conditions: http://kunstderfuge.com/notes.htm\012__________________________________________________________\012\012NO WEBSITE MAY PUBLISH THIS FILE WITHOUT PERMISSION\012NO COMMERCIAL USE ALLOWED, NOR BY SALES NOR by eBay!\012PLEASE REPORT ANY ABUSE TO INFO@ONCLASSICAL.COM\012__________________________________________________________\012\012Thousands of free classical MIDI files at kunstderfuge.com"
2, 1, End_track
0, 0, End_of_file
