0, 0, Header, 0, 2, 384
1, 0, Start_track
1, 0, Title_t, "Chopin's Mazurkas (played by © Ron Lubetsky)"
1, 0, Control_c, 0, 0, 0
1, 0, Program_c, 0, 0
1, 0, Time_signature, 4, 2, 96, 8
1, 0, Sequencer_specific, 3, 0, 0, 65
1, 0, Tempo, 500000
1, 568, Control_c, 0, 64, 0
1, 660, Control_c, 0, 64, 127
1, 864, Note_on_c, 0, 57, 24
1, 868, Note_on_c, 0, 59, 28
1, 872, Note_on_c, 0, 65, 22
1, 1348, Note_off_c, 0, 57, 64
1, 1356, Note_off_c, 0, 65, 64
1, 1376, Note_on_c, 0, 57, 22
1, 1380, Note_on_c, 0, 60, 26
1, 1384, Note_on_c, 0, 65, 22
1, 1460, Note_off_c, 0, 59, 64
1, 1860, Note_off_c, 0, 57, 64
1, 1868, Note_off_c, 0, 65, 64
1, 1876, Note_on_c, 0, 62, 22
1, 1884, Note_on_c, 0, 65, 22
1, 1892, Note_on_c, 0, 57, 22
1, 1980, Note_off_c, 0, 60, 64
1, 2368, Note_off_c, 0, 65, 64
1, 2376, Note_off_c, 0, 57, 64
1, 2400, Note_on_c, 0, 65, 29
1, 2416, Note_on_c, 0, 59, 37
1, 2416, Note_on_c, 0, 57, 29
1, 2544, Note_off_c, 0, 62, 64
1, 2880, Note_off_c, 0, 65, 64
1, 2896, Note_off_c, 0, 57, 64
1, 2940, Note_on_c, 0, 65, 28
1, 2944, Note_on_c, 0, 60, 33
1, 2944, Note_on_c, 0, 57, 32
1, 3056, Note_off_c, 0, 59, 64
1, 3420, Note_off_c, 0, 65, 64
1, 3424, Note_off_c, 0, 57, 64
1, 3472, Note_on_c, 0, 65, 36
1, 3472, Note_on_c, 0, 62, 36
1, 3484, Note_on_c, 0, 57, 36
1, 3588, Note_off_c, 0, 60, 64
1, 3952, Note_off_c, 0, 65, 64
1, 3964, Note_off_c, 0, 57, 64
1, 4004, Note_on_c, 0, 65, 35
1, 4016, Note_on_c, 0, 59, 39
1, 4020, Note_on_c, 0, 57, 35
1, 4148, Note_off_c, 0, 62, 64
1, 4636, Note_off_c, 0, 65, 64
1, 4652, Note_off_c, 0, 57, 64
1, 4660, Note_on_c, 0, 65, 40
1, 4660, Note_on_c, 0, 57, 40
1, 4664, Note_on_c, 0, 60, 37
1, 4756, Control_c, 0, 64, 0
1, 4788, Note_off_c, 0, 59, 64
1, 4808, Control_c, 0, 64, 127
1, 5420, Note_on_c, 0, 62, 29
1, 5540, Note_off_c, 0, 65, 64
1, 5540, Note_off_c, 0, 57, 64
1, 5544, Note_off_c, 0, 60, 64
1, 5772, Note_on_c, 0, 64, 28
1, 5820, Note_off_c, 0, 62, 64
1, 6028, Note_on_c, 0, 62, 26
1, 6052, Note_off_c, 0, 64, 64
1, 6440, Note_on_c, 0, 65, 18
1, 6448, Note_on_c, 0, 60, 24
1, 6448, Note_on_c, 0, 57, 20
1, 6524, Note_off_c, 0, 62, 64
1, 6584, Control_c, 0, 64, 0
1, 6788, Control_c, 0, 64, 127
1, 8708, Note_on_c, 0, 71, 36
1, 8720, Note_on_c, 0, 62, 15
1, 8952, Note_off_c, 0, 57, 64
1, 8952, Note_off_c, 0, 60, 64
1, 9004, Note_off_c, 0, 65, 64
1, 9140, Note_on_c, 0, 72, 33
1, 9172, Note_off_c, 0, 71, 64
1, 9200, Note_off_c, 0, 62, 64
1, 9260, Note_on_c, 0, 74, 40
1, 9276, Note_on_c, 0, 65, 22
1, 9276, Note_on_c, 0, 62, 23
1, 9284, Note_on_c, 0, 57, 24
1, 9292, Note_off_c, 0, 72, 64
1, 9756, Note_off_c, 0, 65, 64
1, 9756, Note_off_c, 0, 62, 64
1, 9764, Note_off_c, 0, 57, 64
1, 9812, Note_on_c, 0, 65, 22
1, 9812, Note_on_c, 0, 62, 23
1, 9812, Note_on_c, 0, 69, 48
1, 9816, Note_on_c, 0, 57, 22
1, 9876, Note_off_c, 0, 74, 64
1, 10100, Note_off_c, 0, 69, 64
1, 10232, Note_on_c, 0, 69, 49
1, 10292, Note_off_c, 0, 65, 64
1, 10292, Note_off_c, 0, 62, 64
1, 10296, Note_off_c, 0, 57, 64
1, 10308, Note_on_c, 0, 72, 44
1, 10332, Note_on_c, 0, 65, 23
1, 10332, Note_on_c, 0, 60, 29
1, 10344, Note_on_c, 0, 57, 22
1, 10348, Note_off_c, 0, 69, 64
1, 10420, Control_c, 0, 64, 0
1, 10440, Control_c, 0, 64, 127
1, 10780, Note_off_c, 0, 60, 64
1, 10780, Note_off_c, 0, 65, 64
1, 10792, Note_off_c, 0, 57, 64
1, 10792, Note_on_c, 0, 65, 27
1, 10800, Note_on_c, 0, 57, 23
1, 10804, Note_on_c, 0, 60, 27
1, 11240, Note_off_c, 0, 65, 64
1, 11248, Note_off_c, 0, 57, 64
1, 11252, Note_off_c, 0, 60, 64
1, 11280, Note_on_c, 0, 71, 49
1, 11280, Note_on_c, 0, 65, 27
1, 11288, Note_on_c, 0, 57, 23
1, 11292, Note_on_c, 0, 60, 24
1, 11304, Note_off_c, 0, 72, 64
1, 11532, Note_off_c, 0, 71, 64
1, 11540, Note_on_c, 0, 72, 52
1, 11728, Note_off_c, 0, 65, 64
1, 11736, Note_off_c, 0, 57, 64
1, 11740, Note_off_c, 0, 60, 64
1, 11796, Note_on_c, 0, 65, 27
1, 11796, Note_on_c, 0, 60, 33
1, 11800, Note_on_c, 0, 74, 50
1, 11808, Note_on_c, 0, 55, 24
1, 11820, Note_off_c, 0, 72, 64
1, 11872, Control_c, 0, 64, 0
1, 11892, Control_c, 0, 64, 127
1, 12040, Note_on_c, 0, 76, 45
1, 12072, Note_off_c, 0, 74, 64
1, 12244, Note_off_c, 0, 65, 64
1, 12244, Note_off_c, 0, 60, 64
1, 12256, Note_off_c, 0, 55, 64
1, 12260, Note_on_c, 0, 77, 45
1, 12260, Note_on_c, 0, 59, 44
1, 12272, Note_on_c, 0, 65, 29
1, 12276, Note_on_c, 0, 55, 33
1, 12292, Note_off_c, 0, 76, 64
1, 12348, Control_c, 0, 64, 0
1, 12388, Control_c, 0, 64, 127
1, 12772, Note_off_c, 0, 59, 64
1, 12784, Note_off_c, 0, 65, 64
1, 12788, Note_off_c, 0, 55, 64
1, 12836, Note_on_c, 0, 65, 18
1, 12836, Note_on_c, 0, 59, 24
1, 12848, Note_on_c, 0, 55, 18
1, 12864, Note_on_c, 0, 79, 59
1, 12884, Note_off_c, 0, 77, 64
1, 13332, Note_on_c, 0, 74, 50
1, 13352, Note_off_c, 0, 79, 64
1, 13396, Note_off_c, 0, 65, 64
1, 13396, Note_off_c, 0, 59, 64
1, 13408, Note_off_c, 0, 55, 64
1, 13440, Note_on_c, 0, 76, 52
1, 13452, Note_on_c, 0, 55, 22
1, 13456, Note_on_c, 0, 64, 22
1, 13460, Note_off_c, 0, 74, 64
1, 13464, Note_on_c, 0, 59, 22
1, 13520, Control_c, 0, 64, 0
1, 13588, Control_c, 0, 64, 127
1, 13836, Note_off_c, 0, 55, 64
1, 13840, Note_off_c, 0, 64, 64
1, 13848, Note_off_c, 0, 59, 64
1, 13892, Note_on_c, 0, 64, 24
1, 13900, Note_on_c, 0, 55, 18
1, 13920, Note_on_c, 0, 59, 15
1, 14276, Note_off_c, 0, 64, 64
1, 14284, Note_off_c, 0, 55, 64
1, 14304, Note_off_c, 0, 59, 64
1, 14328, Note_on_c, 0, 64, 24
1, 14344, Note_on_c, 0, 59, 22
1, 14348, Note_on_c, 0, 55, 22
1, 14808, Note_off_c, 0, 64, 64
1, 14816, Note_on_c, 0, 58, 15
1, 14824, Note_off_c, 0, 59, 64
1, 14828, Note_off_c, 0, 55, 64
1, 14840, Note_on_c, 0, 64, 22
1, 14840, Note_on_c, 0, 54, 15
1, 14864, Note_on_c, 0, 78, 50
1, 14900, Note_off_c, 0, 76, 64
1, 15296, Note_off_c, 0, 58, 64
1, 15304, Note_on_c, 0, 58, 15
1, 15320, Note_off_c, 0, 64, 64
1, 15320, Note_off_c, 0, 54, 64
1, 15328, Note_on_c, 0, 75, 29
1, 15328, Note_on_c, 0, 63, 15
1, 15328, Note_on_c, 0, 54, 15
1, 15364, Note_off_c, 0, 78, 64
1, 15688, Note_off_c, 0, 58, 64
1, 15712, Note_off_c, 0, 54, 64
1, 15712, Note_off_c, 0, 63, 64
1, 15716, Note_on_c, 0, 58, 23
1, 15728, Note_on_c, 0, 54, 15
1, 15732, Note_on_c, 0, 63, 15
1, 16132, Note_off_c, 0, 58, 64
1, 16144, Note_off_c, 0, 54, 64
1, 16148, Note_off_c, 0, 63, 64
1, 16196, Note_on_c, 0, 63, 23
1, 16196, Note_on_c, 0, 57, 22
1, 16208, Note_on_c, 0, 77, 48
1, 16208, Note_on_c, 0, 53, 15
1, 16216, Note_off_c, 0, 75, 64
1, 16676, Note_off_c, 0, 63, 64
1, 16676, Note_off_c, 0, 57, 64
1, 16688, Note_off_c, 0, 53, 64
1, 16708, Note_on_c, 0, 74, 41
1, 16716, Note_on_c, 0, 62, 22
1, 16716, Note_on_c, 0, 57, 15
1, 16732, Note_on_c, 0, 53, 15
1, 16752, Note_off_c, 0, 77, 64
1, 16764, Tempo, 500000
1, 16764, Control_c, 0, 64, 0
1, 16848, Control_c, 0, 64, 127
1, 17112, Note_off_c, 0, 57, 64
1, 17112, Note_off_c, 0, 62, 64
1, 17128, Note_off_c, 0, 53, 64
1, 17136, Note_on_c, 0, 53, 15
1, 17152, Note_on_c, 0, 62, 15
1, 17160, Note_on_c, 0, 57, 15
1, 17616, Note_off_c, 0, 53, 64
1, 17632, Note_off_c, 0, 62, 64
1, 17640, Note_off_c, 0, 57, 64
1, 17664, Note_on_c, 0, 56, 32
1, 17668, Note_on_c, 0, 52, 22
1, 17680, Note_on_c, 0, 62, 15
1, 17716, Control_c, 0, 64, 0
1, 17728, Note_on_c, 0, 76, 42
1, 17752, Note_off_c, 0, 74, 64
1, 17788, Control_c, 0, 64, 127
1, 17824, Note_on_c, 0, 71, 49
1, 17848, Note_off_c, 0, 76, 64
1, 18048, Note_off_c, 0, 56, 64
1, 18052, Note_off_c, 0, 52, 64
1, 18064, Note_off_c, 0, 62, 64
1, 18120, Note_on_c, 0, 56, 32
1, 18128, Note_on_c, 0, 52, 33
1, 18136, Note_on_c, 0, 62, 22
1, 18168, Control_c, 0, 64, 0
1, 18200, Control_c, 0, 64, 127
1, 18504, Note_off_c, 0, 56, 64
1, 18512, Note_off_c, 0, 52, 64
1, 18520, Note_off_c, 0, 62, 64
1, 18540, Note_on_c, 0, 56, 40
1, 18548, Note_on_c, 0, 62, 23
1, 18568, Note_on_c, 0, 52, 24
1, 18924, Note_off_c, 0, 56, 64
1, 18932, Note_off_c, 0, 62, 64
1, 18952, Note_off_c, 0, 52, 64
1, 19012, Note_on_c, 0, 57, 32
1, 19012, Note_on_c, 0, 52, 22
1, 19012, Note_on_c, 0, 62, 22
1, 19072, Note_off_c, 0, 71, 64
1, 19084, Note_on_c, 0, 72, 42
1, 19152, Control_c, 0, 64, 0
1, 19200, Note_on_c, 0, 68, 52
1, 19224, Note_off_c, 0, 72, 64
1, 19228, Control_c, 0, 64, 127
1, 19540, Note_off_c, 0, 57, 64
1, 19540, Note_off_c, 0, 52, 64
1, 19540, Note_off_c, 0, 62, 64
1, 19588, Note_on_c, 0, 62, 24
1, 19588, Note_on_c, 0, 52, 27
1, 19596, Note_on_c, 0, 59, 32
1, 19668, Control_c, 0, 64, 0
1, 19704, Control_c, 0, 64, 127
1, 20036, Note_off_c, 0, 52, 64
1, 20036, Note_off_c, 0, 62, 64
1, 20044, Note_off_c, 0, 59, 64
1, 20124, Note_on_c, 0, 62, 22
1, 20124, Note_on_c, 0, 59, 32
1, 20124, Note_on_c, 0, 52, 22
1, 20144, Note_off_c, 0, 68, 64
1, 20792, Note_on_c, 0, 45, 40
1, 20804, Note_off_c, 0, 62, 64
1, 20804, Note_off_c, 0, 59, 64
1, 20804, Note_off_c, 0, 52, 64
1, 20852, Note_on_c, 0, 71, 42
1, 20928, Control_c, 0, 64, 0
1, 21016, Control_c, 0, 64, 127
1, 21188, Note_on_c, 0, 72, 32
1, 21228, Note_off_c, 0, 71, 64
1, 21360, Note_on_c, 0, 71, 36
1, 21408, Note_off_c, 0, 72, 64
1, 21456, Note_off_c, 0, 45, 64
1, 21524, Note_on_c, 0, 69, 48
1, 21532, Note_on_c, 0, 57, 24
1, 21536, Note_on_c, 0, 62, 24
1, 21544, Note_on_c, 0, 65, 22
1, 21552, Note_off_c, 0, 71, 64
1, 21744, Note_on_c, 0, 71, 45
1, 21800, Note_off_c, 0, 69, 64
1, 21912, Note_on_c, 0, 72, 44
1, 21944, Note_off_c, 0, 71, 64
1, 22040, Note_off_c, 0, 57, 64
1, 22044, Note_off_c, 0, 62, 64
1, 22052, Note_off_c, 0, 65, 64
1, 22096, Note_on_c, 0, 62, 24
1, 22104, Note_on_c, 0, 76, 49
1, 22104, Note_on_c, 0, 65, 24
1, 22112, Note_on_c, 0, 57, 24
1, 22120, Control_c, 0, 64, 0
1, 22144, Note_off_c, 0, 72, 64
1, 22144, Control_c, 0, 64, 127
1, 22376, Note_off_c, 0, 76, 64
1, 22412, Note_on_c, 0, 74, 49
1, 22492, Note_off_c, 0, 74, 64
1, 22500, Note_on_c, 0, 69, 50
1, 22568, Note_off_c, 0, 69, 64
1, 22604, Note_off_c, 0, 62, 64
1, 22608, Note_on_c, 0, 69, 52
1, 22612, Note_off_c, 0, 65, 64
1, 22616, Note_off_c, 0, 57, 64
1, 22688, Note_on_c, 0, 65, 24
1, 22692, Note_on_c, 0, 72, 52
1, 22696, Note_on_c, 0, 60, 32
1, 22700, Note_on_c, 0, 57, 24
1, 22704, Note_off_c, 0, 69, 64
1, 22736, Control_c, 0, 64, 0
1, 22796, Control_c, 0, 64, 127
1, 23128, Note_off_c, 0, 65, 64
1, 23136, Note_off_c, 0, 60, 64
1, 23144, Note_off_c, 0, 57, 64
1, 23184, Note_on_c, 0, 65, 35
1, 23184, Note_on_c, 0, 57, 37
1, 23196, Note_on_c, 0, 60, 40
1, 23400, Note_off_c, 0, 72, 64
1, 23624, Note_off_c, 0, 65, 64
1, 23628, Note_off_c, 0, 57, 64
1, 23640, Note_off_c, 0, 60, 64
1, 23676, Note_on_c, 0, 65, 22
1, 23676, Note_on_c, 0, 60, 22
1, 23692, Note_on_c, 0, 71, 42
1, 23704, Note_on_c, 0, 57, 18
1, 23876, Note_on_c, 0, 72, 42
1, 23896, Note_off_c, 0, 71, 64
1, 24060, Note_off_c, 0, 65, 64
1, 24060, Note_off_c, 0, 60, 64
1, 24088, Note_off_c, 0, 57, 64
1, 24096, Note_on_c, 0, 74, 52
1, 24104, Note_on_c, 0, 65, 24
1, 24112, Note_off_c, 0, 72, 64
1, 24116, Note_on_c, 0, 60, 24
1, 24116, Note_on_c, 0, 55, 23
1, 24240, Control_c, 0, 64, 0
1, 24264, Control_c, 0, 64, 127
1, 24284, Note_on_c, 0, 76, 50
1, 24324, Note_off_c, 0, 74, 64
1, 24368, Note_on_c, 0, 74, 50
1, 24396, Note_off_c, 0, 76, 64
1, 24456, Note_on_c, 0, 73, 50
1, 24496, Note_off_c, 0, 74, 64
1, 24552, Note_on_c, 0, 74, 49
1, 24564, Note_off_c, 0, 73, 64
1, 24612, Note_on_c, 0, 75, 48
1, 24616, Note_off_c, 0, 65, 64
1, 24628, Note_off_c, 0, 55, 64
1, 24628, Note_off_c, 0, 60, 64
1, 24636, Note_off_c, 0, 74, 64
1, 24688, Note_on_c, 0, 55, 22
1, 24692, Note_on_c, 0, 65, 24
1, 24692, Note_on_c, 0, 60, 24
1, 24724, Note_on_c, 0, 76, 48
1, 24736, Note_off_c, 0, 75, 64
1, 24808, Note_on_c, 0, 77, 45
1, 24824, Note_off_c, 0, 76, 64
1, 24916, Note_on_c, 0, 79, 44
1, 24952, Note_off_c, 0, 77, 64
1, 25016, Note_on_c, 0, 80, 44
1, 25052, Note_off_c, 0, 79, 64
1, 25072, Note_off_c, 0, 55, 64
1, 25076, Note_off_c, 0, 65, 64
1, 25076, Note_off_c, 0, 60, 64
1, 25104, Note_on_c, 0, 65, 35
1, 25112, Note_on_c, 0, 83, 44
1, 25116, Note_on_c, 0, 59, 42
1, 25120, Note_on_c, 0, 55, 22
1, 25136, Note_off_c, 0, 80, 64
1, 25208, Note_on_c, 0, 81, 42
1, 25224, Note_off_c, 0, 83, 64
1, 25264, Control_c, 0, 64, 0
1, 25300, Control_c, 0, 64, 127
1, 25316, Note_on_c, 0, 79, 42
1, 25328, Note_off_c, 0, 81, 64
1, 25436, Note_on_c, 0, 77, 40
1, 25460, Note_off_c, 0, 79, 64
1, 25520, Note_off_c, 0, 65, 64
1, 25532, Note_off_c, 0, 59, 64
1, 25536, Note_off_c, 0, 55, 64
1, 25560, Note_on_c, 0, 76, 45
1, 25564, Note_on_c, 0, 64, 35
1, 25572, Note_on_c, 0, 59, 28
1, 25580, Note_off_c, 0, 77, 64
1, 25580, Note_on_c, 0, 55, 20
1, 25664, Control_c, 0, 64, 0
1, 25712, Control_c, 0, 64, 127
1, 25864, Control_c, 0, 64, 0
1, 25932, Control_c, 0, 64, 127
1, 26004, Note_off_c, 0, 64, 64
1, 26016, Note_off_c, 0, 59, 64
1, 26016, Note_on_c, 0, 64, 35
1, 26024, Note_off_c, 0, 55, 64
1, 26052, Note_on_c, 0, 59, 28
1, 26056, Note_on_c, 0, 55, 28
1, 26108, Control_c, 0, 64, 0
1, 26176, Control_c, 0, 64, 127
1, 26460, Note_off_c, 0, 64, 64
1, 26492, Note_off_c, 0, 59, 64
1, 26496, Note_off_c, 0, 55, 64
1, 26496, Note_on_c, 0, 64, 36
1, 26496, Note_on_c, 0, 55, 40
1, 26504, Note_on_c, 0, 59, 28
1, 26536, Control_c, 0, 64, 0
1, 26576, Control_c, 0, 64, 127
1, 26936, Note_off_c, 0, 64, 64
1, 26940, Note_off_c, 0, 55, 64
1, 26944, Note_off_c, 0, 59, 64
1, 26960, Note_on_c, 0, 58, 28
1, 26972, Note_on_c, 0, 54, 33
1, 26992, Note_on_c, 0, 64, 35
1, 27008, Control_c, 0, 64, 0
1, 27032, Note_off_c, 0, 76, 64
1, 27080, Control_c, 0, 64, 127
1, 27400, Note_off_c, 0, 58, 64
1, 27416, Note_off_c, 0, 54, 64
1, 27436, Note_off_c, 0, 64, 64
1, 27436, Note_on_c, 0, 58, 20
1, 27436, Note_on_c, 0, 54, 20
1, 27464, Note_on_c, 0, 63, 27
1, 27532, Note_on_c, 0, 78, 54
1, 27564, Control_c, 0, 64, 0
1, 27624, Tempo, 500000
1, 27624, Note_on_c, 0, 75, 45
1, 27632, Control_c, 0, 64, 127
1, 27656, Note_off_c, 0, 78, 64
1, 27940, Note_off_c, 0, 54, 64
1, 27940, Note_off_c, 0, 58, 64
1, 27968, Note_off_c, 0, 63, 64
1, 27968, Note_on_c, 0, 58, 22
1, 27980, Note_on_c, 0, 63, 22
1, 27980, Note_on_c, 0, 54, 22
1, 28044, Control_c, 0, 64, 0
1, 28084, Control_c, 0, 64, 127
1, 28412, Note_off_c, 0, 58, 64
1, 28420, Note_off_c, 0, 63, 64
1, 28420, Note_off_c, 0, 54, 64
1, 28464, Note_on_c, 0, 53, 19
1, 28472, Note_off_c, 0, 75, 64
1, 28484, Note_on_c, 0, 63, 22
1, 28488, Note_on_c, 0, 57, 18
1, 28544, Control_c, 0, 64, 0
1, 28572, Note_on_c, 0, 76, 31
1, 28580, Control_c, 0, 64, 127
1, 28636, Note_on_c, 0, 77, 36
1, 28684, Note_off_c, 0, 76, 64
1, 28708, Note_on_c, 0, 80, 31
1, 28736, Note_off_c, 0, 77, 64
1, 28784, Note_on_c, 0, 79, 32
1, 28796, Note_off_c, 0, 80, 64
1, 28868, Note_on_c, 0, 78, 48
1, 28884, Note_off_c, 0, 79, 64
1, 28924, Note_on_c, 0, 77, 45
1, 28940, Note_off_c, 0, 78, 64
1, 28972, Note_off_c, 0, 53, 64
1, 28988, Note_off_c, 0, 63, 64
1, 28996, Note_off_c, 0, 57, 64
1, 29012, Note_on_c, 0, 74, 49
1, 29036, Note_on_c, 0, 57, 14
1, 29036, Note_on_c, 0, 53, 13
1, 29040, Note_on_c, 0, 62, 18
1, 29048, Note_off_c, 0, 77, 64
1, 29068, Control_c, 0, 64, 0
1, 29120, Control_c, 0, 64, 127
1, 29476, Note_off_c, 0, 53, 64
1, 29476, Note_off_c, 0, 57, 64
1, 29480, Note_off_c, 0, 62, 64
1, 29492, Note_on_c, 0, 57, 22
1, 29500, Note_on_c, 0, 53, 24
1, 29508, Note_on_c, 0, 62, 13
1, 29908, Note_on_c, 0, 80, 48
1, 29976, Note_off_c, 0, 74, 64
1, 30000, Note_off_c, 0, 57, 64
1, 30008, Note_off_c, 0, 53, 64
1, 30016, Note_off_c, 0, 62, 64
1, 30028, Note_on_c, 0, 84, 66
1, 30052, Note_on_c, 0, 52, 44
1, 30068, Note_off_c, 0, 80, 64
1, 30068, Note_on_c, 0, 40, 39
1, 30088, Control_c, 0, 64, 0
1, 30136, Control_c, 0, 64, 127
1, 30292, Note_off_c, 0, 84, 64
1, 30440, Note_on_c, 0, 83, 44
1, 30496, Note_on_c, 0, 84, 48
1, 30508, Note_off_c, 0, 83, 64
1, 30560, Note_off_c, 0, 52, 64
1, 30564, Note_on_c, 0, 83, 49
1, 30584, Note_off_c, 0, 84, 64
1, 30628, Note_on_c, 0, 62, 33
1, 30636, Note_on_c, 0, 80, 58
1, 30636, Note_on_c, 0, 59, 24
1, 30648, Note_on_c, 0, 52, 32
1, 30652, Note_off_c, 0, 40, 64
1, 30672, Note_off_c, 0, 83, 64
1, 30676, Control_c, 0, 64, 0
1, 30752, Control_c, 0, 64, 127
1, 30796, Note_off_c, 0, 80, 64
1, 31136, Note_off_c, 0, 62, 64
1, 31144, Note_off_c, 0, 59, 64
1, 31156, Note_off_c, 0, 52, 64
1, 31212, Note_on_c, 0, 68, 44
1, 31240, Note_on_c, 0, 59, 24
1, 31240, Note_on_c, 0, 52, 24
1, 31240, Note_on_c, 0, 62, 24
1, 31268, Control_c, 0, 64, 0
1, 31308, Control_c, 0, 64, 127
1, 31844, Note_on_c, 0, 45, 33
1, 31856, Note_on_c, 0, 69, 40
1, 31892, Note_off_c, 0, 68, 64
1, 31908, Note_off_c, 0, 59, 64
1, 31908, Note_off_c, 0, 52, 64
1, 31908, Note_off_c, 0, 62, 64
1, 31916, Control_c, 0, 64, 0
1, 31984, Control_c, 0, 64, 127
1, 32436, Note_on_c, 0, 60, 26
1, 32444, Note_on_c, 0, 52, 1
1, 32448, Note_on_c, 0, 57, 33
1, 32520, Note_off_c, 0, 45, 64
1, 32876, Note_off_c, 0, 60, 64
1, 32888, Note_off_c, 0, 52, 64
1, 32888, Note_off_c, 0, 57, 64
1, 32948, Note_on_c, 0, 64, 16
1, 32948, Note_on_c, 0, 60, 16
1, 32948, Note_on_c, 0, 57, 27
1, 33316, Note_off_c, 0, 69, 64
1, 33428, Note_off_c, 0, 64, 64
1, 33428, Note_off_c, 0, 60, 64
1, 33428, Note_off_c, 0, 57, 64
1, 33440, Note_on_c, 0, 71, 36
1, 33464, Note_on_c, 0, 57, 16
1, 33476, Note_on_c, 0, 65, 20
1, 33488, Note_on_c, 0, 62, 14
1, 33548, Control_c, 0, 64, 0
1, 33588, Control_c, 0, 64, 127
1, 33856, Note_on_c, 0, 72, 29
1, 33908, Note_off_c, 0, 57, 64
1, 33912, Note_off_c, 0, 71, 64
1, 33916, Note_off_c, 0, 65, 64
1, 33928, Note_off_c, 0, 62, 64
1, 33948, Note_on_c, 0, 74, 29
1, 33964, Note_on_c, 0, 62, 16
1, 33964, Note_on_c, 0, 57, 16
1, 33976, Note_on_c, 0, 65, 20
1, 33996, Note_off_c, 0, 72, 64
1, 34020, Control_c, 0, 64, 0
1, 34056, Control_c, 0, 64, 127
1, 34404, Note_off_c, 0, 62, 64
1, 34404, Note_off_c, 0, 57, 64
1, 34412, Note_on_c, 0, 69, 36
1, 34420, Note_off_c, 0, 65, 64
1, 34420, Note_on_c, 0, 57, 16
1, 34424, Note_on_c, 0, 62, 18
1, 34436, Note_on_c, 0, 65, 20
1, 34472, Control_c, 0, 64, 0
1, 34484, Note_off_c, 0, 74, 64
1, 34516, Control_c, 0, 64, 127
1, 34692, Note_off_c, 0, 69, 64
1, 34780, Note_on_c, 0, 69, 41
1, 34856, Note_on_c, 0, 72, 36
1, 34864, Note_off_c, 0, 57, 64
1, 34868, Note_off_c, 0, 62, 64
1, 34876, Note_off_c, 0, 65, 64
1, 34888, Note_on_c, 0, 65, 31
1, 34892, Note_on_c, 0, 57, 16
1, 34900, Note_off_c, 0, 69, 64
1, 34900, Note_on_c, 0, 60, 20
1, 34952, Control_c, 0, 64, 0
1, 34988, Control_c, 0, 64, 127
1, 35272, Note_off_c, 0, 65, 64
1, 35276, Note_off_c, 0, 57, 64
1, 35284, Note_off_c, 0, 60, 64
1, 35288, Note_on_c, 0, 65, 33
1, 35292, Note_on_c, 0, 57, 16
1, 35300, Note_on_c, 0, 60, 20
1, 35364, Control_c, 0, 64, 0
1, 35388, Control_c, 0, 64, 127
1, 35732, Note_off_c, 0, 57, 64
1, 35732, Note_off_c, 0, 65, 64
1, 35740, Note_off_c, 0, 60, 64
1, 35772, Note_on_c, 0, 60, 20
1, 35772, Note_on_c, 0, 57, 20
1, 35784, Note_on_c, 0, 65, 20
1, 35852, Note_on_c, 0, 71, 36
1, 35876, Note_off_c, 0, 72, 64
1, 36048, Note_on_c, 0, 72, 41
1, 36084, Note_off_c, 0, 71, 64
1, 36236, Note_off_c, 0, 60, 64
1, 36236, Note_off_c, 0, 57, 64
1, 36248, Note_off_c, 0, 65, 64
1, 36284, Note_on_c, 0, 60, 18
1, 36284, Note_on_c, 0, 55, 20
1, 36304, Note_on_c, 0, 65, 20
1, 36332, Note_on_c, 0, 74, 18
1, 36384, Note_off_c, 0, 72, 64
1, 36392, Note_on_c, 0, 76, 36
1, 36412, Note_off_c, 0, 74, 64
1, 36452, Note_on_c, 0, 74, 41
1, 36488, Note_off_c, 0, 76, 64
1, 36576, Note_on_c, 0, 73, 35
1, 36596, Note_off_c, 0, 74, 64
1, 36764, Note_off_c, 0, 60, 64
1, 36764, Note_off_c, 0, 55, 64
1, 36784, Note_off_c, 0, 65, 64
1, 36796, Note_on_c, 0, 74, 41
1, 36796, Note_on_c, 0, 65, 20
1, 36796, Note_on_c, 0, 55, 1
1, 36804, Note_on_c, 0, 59, 20
1, 36820, Note_off_c, 0, 73, 64
1, 36948, Note_on_c, 0, 76, 41
1, 36980, Note_off_c, 0, 74, 64
1, 37076, Note_on_c, 0, 77, 36
1, 37092, Note_off_c, 0, 76, 64
1, 37228, Note_off_c, 0, 55, 64
1, 37228, Note_off_c, 0, 65, 64
1, 37236, Note_off_c, 0, 59, 64
1, 37252, Note_on_c, 0, 79, 36
1, 37260, Note_on_c, 0, 59, 18
1, 37264, Note_off_c, 0, 77, 64
1, 37276, Note_on_c, 0, 65, 20
1, 37276, Note_on_c, 0, 55, 16
1, 37308, Control_c, 0, 64, 0
1, 37364, Control_c, 0, 64, 127
1, 37672, Note_off_c, 0, 79, 64
1, 37688, Note_on_c, 0, 74, 41
1, 37724, Note_off_c, 0, 59, 64
1, 37740, Note_off_c, 0, 65, 64
1, 37740, Note_off_c, 0, 55, 64
1, 37788, Note_on_c, 0, 59, 20
1, 37792, Note_on_c, 0, 55, 18
1, 37800, Note_on_c, 0, 64, 16
1, 37800, Note_on_c, 0, 76, 41
1, 37844, Note_off_c, 0, 74, 64
1, 37844, Control_c, 0, 64, 0
1, 37900, Control_c, 0, 64, 127
1, 38172, Note_off_c, 0, 59, 64
1, 38176, Note_off_c, 0, 55, 64
1, 38184, Note_off_c, 0, 64, 64
1, 38220, Note_on_c, 0, 64, 16
1, 38232, Note_on_c, 0, 59, 16
1, 38244, Note_on_c, 0, 55, 16
1, 38604, Note_off_c, 0, 64, 64
1, 38616, Note_off_c, 0, 59, 64
1, 38628, Note_off_c, 0, 55, 64
1, 38640, Note_on_c, 0, 64, 18
1, 38644, Note_on_c, 0, 59, 20
1, 38644, Note_on_c, 0, 55, 16
1, 39080, Note_off_c, 0, 64, 64
1, 39088, Note_off_c, 0, 59, 64
1, 39088, Note_off_c, 0, 55, 64
1, 39124, Note_on_c, 0, 58, 16
1, 39136, Note_on_c, 0, 54, 16
1, 39140, Note_on_c, 0, 78, 46
1, 39144, Note_on_c, 0, 64, 18
1, 39164, Note_off_c, 0, 76, 64
1, 39188, Control_c, 0, 64, 0
1, 39236, Control_c, 0, 64, 127
1, 39564, Note_off_c, 0, 58, 64
1, 39580, Note_off_c, 0, 54, 64
1, 39584, Note_off_c, 0, 64, 64
1, 39588, Note_on_c, 0, 58, 16
1, 39588, Note_on_c, 0, 54, 16
1, 39620, Note_on_c, 0, 75, 33
1, 39620, Note_on_c, 0, 63, 16
1, 39652, Note_off_c, 0, 78, 64
1, 39972, Note_off_c, 0, 54, 64
1, 39972, Note_off_c, 0, 58, 64
1, 40004, Note_off_c, 0, 63, 64
1, 40008, Note_on_c, 0, 58, 20
1, 40008, Note_on_c, 0, 54, 18
1, 40028, Note_on_c, 0, 63, 18
1, 40392, Note_off_c, 0, 58, 64
1, 40392, Note_off_c, 0, 54, 64
1, 40412, Note_off_c, 0, 63, 64
1, 40456, Note_on_c, 0, 77, 40
1, 40468, Note_on_c, 0, 63, 18
1, 40476, Note_on_c, 0, 57, 20
1, 40476, Note_on_c, 0, 53, 16
1, 40488, Note_off_c, 0, 75, 64
1, 40516, Control_c, 0, 64, 0
1, 40552, Control_c, 0, 64, 127
1, 40852, Note_off_c, 0, 63, 64
1, 40860, Note_off_c, 0, 57, 64
1, 40860, Note_off_c, 0, 53, 64
1, 40908, Note_on_c, 0, 62, 18
1, 40908, Note_on_c, 0, 57, 16
1, 40912, Note_on_c, 0, 53, 14
1, 40932, Note_on_c, 0, 74, 26
1, 40932, Control_c, 0, 64, 0
1, 40980, Control_c, 0, 64, 127
1, 41020, Note_off_c, 0, 77, 64
1, 41260, Note_off_c, 0, 62, 64
1, 41260, Note_off_c, 0, 57, 64
1, 41264, Note_off_c, 0, 53, 64
1, 41284, Note_on_c, 0, 53, 18
1, 41284, Note_on_c, 0, 57, 20
1, 41292, Note_on_c, 0, 62, 20
1, 41724, Note_off_c, 0, 53, 64
1, 41728, Note_off_c, 0, 57, 64
1, 41732, Note_off_c, 0, 62, 64
1, 41740, Note_on_c, 0, 56, 20
1, 41740, Note_on_c, 0, 62, 16
1, 41748, Note_on_c, 0, 52, 16
1, 41820, Note_on_c, 0, 76, 46
1, 41884, Control_c, 0, 64, 0
1, 41904, Note_off_c, 0, 74, 64
1, 41924, Note_on_c, 0, 71, 35
1, 41940, Control_c, 0, 64, 127
1, 42124, Note_off_c, 0, 76, 64
1, 42180, Note_off_c, 0, 56, 64
1, 42180, Note_off_c, 0, 62, 64
1, 42192, Note_off_c, 0, 52, 64
1, 42212, Note_on_c, 0, 56, 31
1, 42236, Note_on_c, 0, 62, 26
1, 42236, Note_on_c, 0, 52, 26
1, 42596, Note_off_c, 0, 56, 64
1, 42620, Note_off_c, 0, 62, 64
1, 42620, Note_off_c, 0, 52, 64
1, 42632, Note_on_c, 0, 56, 46
1, 42644, Note_on_c, 0, 62, 33
1, 42656, Note_on_c, 0, 52, 20
1, 42692, Control_c, 0, 64, 0
1, 42708, Control_c, 0, 64, 127
1, 43016, Note_off_c, 0, 56, 64
1, 43028, Note_off_c, 0, 62, 64
1, 43040, Note_off_c, 0, 52, 64
1, 43068, Note_on_c, 0, 52, 20
1, 43076, Note_on_c, 0, 62, 18
1, 43076, Note_on_c, 0, 57, 35
1, 43092, Note_off_c, 0, 71, 64
1, 43096, Note_on_c, 0, 72, 46
1, 43156, Control_c, 0, 64, 0
1, 43188, Control_c, 0, 64, 127
1, 43208, Note_on_c, 0, 68, 53
1, 43444, Note_off_c, 0, 72, 64
1, 43512, Note_off_c, 0, 52, 64
1, 43516, Note_off_c, 0, 62, 64
1, 43516, Note_off_c, 0, 57, 64
1, 43568, Note_on_c, 0, 52, 33
1, 43576, Note_on_c, 0, 59, 35
1, 43580, Note_on_c, 0, 62, 26
1, 43636, Control_c, 0, 64, 0
1, 43688, Control_c, 0, 64, 127
1, 44008, Note_off_c, 0, 52, 64
1, 44020, Note_off_c, 0, 59, 64
1, 44024, Note_off_c, 0, 62, 64
1, 44076, Note_on_c, 0, 52, 20
1, 44084, Note_on_c, 0, 59, 35
1, 44084, Note_on_c, 0, 62, 20
1, 44332, Note_off_c, 0, 68, 64
1, 44520, Note_on_c, 0, 71, 36
1, 44632, Note_off_c, 0, 71, 64
1, 44696, Note_on_c, 0, 71, 36
1, 44708, Note_on_c, 0, 45, 33
1, 44748, Note_off_c, 0, 52, 64
1, 44752, Note_off_c, 0, 59, 64
1, 44756, Note_off_c, 0, 62, 64
1, 44772, Control_c, 0, 64, 0
1, 44788, Note_off_c, 0, 71, 64
1, 44812, Control_c, 0, 64, 127
1, 44836, Note_on_c, 0, 71, 45
1, 44892, Note_off_c, 0, 71, 64
1, 44940, Note_on_c, 0, 71, 45
1, 44996, Note_off_c, 0, 71, 64
1, 45040, Note_on_c, 0, 71, 41
1, 45132, Note_off_c, 0, 71, 64
1, 45164, Note_on_c, 0, 72, 45
1, 45268, Note_on_c, 0, 71, 45
1, 45292, Note_off_c, 0, 72, 64
1, 45356, Note_on_c, 0, 57, 32
1, 45368, Note_on_c, 0, 65, 22
1, 45380, Note_on_c, 0, 62, 22
1, 45392, Note_on_c, 0, 69, 41
1, 45400, Note_off_c, 0, 71, 64
1, 45404, Note_off_c, 0, 45, 64
1, 45404, Control_c, 0, 64, 0
1, 45456, Control_c, 0, 64, 127
1, 45560, Note_on_c, 0, 71, 41
1, 45588, Note_off_c, 0, 69, 64
1, 45684, Note_on_c, 0, 72, 41
1, 45704, Note_off_c, 0, 71, 64
1, 45796, Note_off_c, 0, 57, 64
1, 45812, Note_off_c, 0, 65, 64
1, 45820, Note_off_c, 0, 62, 64
1, 45836, Note_on_c, 0, 76, 36
1, 45852, Note_on_c, 0, 62, 22
1, 45856, Note_on_c, 0, 65, 14
1, 45868, Note_on_c, 0, 57, 14
1, 45876, Note_off_c, 0, 72, 64
1, 45908, Control_c, 0, 64, 0
1, 45960, Control_c, 0, 64, 127
1, 46020, Note_off_c, 0, 76, 64
1, 46028, Note_on_c, 0, 74, 36
1, 46180, Note_off_c, 0, 74, 64
1, 46180, Note_on_c, 0, 69, 42
1, 46224, Note_off_c, 0, 69, 64
1, 46268, Note_on_c, 0, 69, 41
1, 46332, Note_off_c, 0, 62, 64
1, 46336, Note_off_c, 0, 65, 64
1, 46348, Note_off_c, 0, 57, 64
1, 46348, Note_on_c, 0, 72, 41
1, 46360, Note_off_c, 0, 69, 64
1, 46364, Note_on_c, 0, 65, 28
1, 46372, Note_on_c, 0, 60, 28
1, 46376, Note_on_c, 0, 57, 16
1, 46416, Control_c, 0, 64, 0
1, 46456, Control_c, 0, 64, 127
1, 46748, Note_off_c, 0, 65, 64
1, 46756, Note_off_c, 0, 60, 64
1, 46760, Note_off_c, 0, 57, 64
1, 46772, Note_on_c, 0, 65, 28
1, 46780, Note_on_c, 0, 60, 26
1, 46788, Note_on_c, 0, 57, 26
1, 47252, Note_off_c, 0, 72, 64
1, 47252, Note_off_c, 0, 65, 64
1, 47260, Note_off_c, 0, 60, 64
1, 47268, Note_off_c, 0, 57, 64
1, 47268, Note_on_c, 0, 65, 16
1, 47280, Note_on_c, 0, 56, 16
1, 47288, Note_on_c, 0, 60, 16
1, 47300, Note_on_c, 0, 71, 32
1, 47508, Note_on_c, 0, 72, 36
1, 47512, Note_off_c, 0, 71, 64
1, 47708, Note_off_c, 0, 65, 64
1, 47724, Note_off_c, 0, 56, 64
1, 47732, Note_off_c, 0, 60, 64
1, 47740, Note_on_c, 0, 65, 16
1, 47740, Note_on_c, 0, 55, 26
1, 47788, Note_on_c, 0, 74, 32
1, 47788, Note_on_c, 0, 60, 28
1, 47804, Note_off_c, 0, 72, 64
1, 47848, Control_c, 0, 64, 0
1, 47884, Control_c, 0, 64, 127
1, 47992, Note_off_c, 0, 74, 64
1, 47992, Note_on_c, 0, 76, 33
1, 48100, Note_on_c, 0, 74, 33
1, 48160, Note_off_c, 0, 76, 64
1, 48172, Control_c, 0, 64, 0
1, 48200, Note_on_c, 0, 73, 20
1, 48228, Note_off_c, 0, 74, 64
1, 48236, Control_c, 0, 64, 127
1, 48248, Note_off_c, 0, 65, 64
1, 48248, Note_off_c, 0, 55, 64
1, 48292, Note_off_c, 0, 60, 64
1, 48296, Note_on_c, 0, 55, 28
1, 48304, Note_on_c, 0, 65, 16
1, 48304, Note_on_c, 0, 59, 28
1, 48340, Note_off_c, 0, 73, 64
1, 48344, Note_on_c, 0, 74, 36
1, 48468, Note_on_c, 0, 83, 20
1, 48560, Note_off_c, 0, 74, 64
1, 48564, Note_on_c, 0, 77, 26
1, 48584, Note_off_c, 0, 83, 64
1, 48660, Note_on_c, 0, 81, 29
1, 48688, Note_off_c, 0, 77, 64
1, 48760, Note_on_c, 0, 76, 32
1, 48804, Note_off_c, 0, 55, 64
1, 48808, Note_off_c, 0, 81, 64
1, 48812, Note_off_c, 0, 65, 64
1, 48812, Note_off_c, 0, 59, 64
1, 48844, Note_on_c, 0, 65, 33
1, 48844, Note_on_c, 0, 55, 14
1, 48852, Note_on_c, 0, 59, 16
1, 48860, Note_on_c, 0, 79, 36
1, 48880, Note_off_c, 0, 76, 64
1, 48948, Note_on_c, 0, 74, 37
1, 48952, Note_off_c, 0, 79, 64
1, 49036, Note_off_c, 0, 74, 64
1, 49056, Note_on_c, 0, 77, 32
1, 49132, Note_on_c, 0, 69, 32
1, 49184, Note_off_c, 0, 77, 64
1, 49228, Note_on_c, 0, 67, 31
1, 49268, Note_off_c, 0, 69, 64
1, 49320, Note_on_c, 0, 74, 29
1, 49348, Note_off_c, 0, 55, 64
1, 49348, Note_off_c, 0, 65, 64
1, 49348, Note_off_c, 0, 67, 64
1, 49356, Note_off_c, 0, 59, 64
1, 49380, Note_on_c, 0, 64, 14
1, 49384, Note_on_c, 0, 59, 16
1, 49388, Note_on_c, 0, 55, 16
1, 49408, Note_on_c, 0, 76, 42
1, 49432, Control_c, 0, 64, 0
1, 49444, Note_off_c, 0, 74, 64
1, 49500, Control_c, 0, 64, 127
1, 49820, Note_off_c, 0, 64, 64
1, 49824, Note_off_c, 0, 59, 64
1, 49832, Note_off_c, 0, 55, 64
1, 49856, Note_on_c, 0, 64, 28
1, 49856, Note_on_c, 0, 55, 28
1, 49868, Note_on_c, 0, 59, 16
1, 49904, Control_c, 0, 64, 0
1, 49940, Control_c, 0, 64, 127
1, 50300, Note_off_c, 0, 64, 64
1, 50300, Note_off_c, 0, 55, 64
1, 50308, Note_off_c, 0, 59, 64
1, 50324, Note_on_c, 0, 64, 26
1, 50332, Note_on_c, 0, 55, 16
1, 50336, Note_on_c, 0, 59, 26
1, 50764, Note_off_c, 0, 64, 64
1, 50772, Note_off_c, 0, 55, 64
1, 50780, Note_off_c, 0, 59, 64
1, 50796, Note_on_c, 0, 58, 16
1, 50804, Note_on_c, 0, 64, 22
1, 50812, Note_on_c, 0, 54, 16
1, 50984, Note_off_c, 0, 76, 64
1, 51180, Note_off_c, 0, 58, 64
1, 51188, Note_off_c, 0, 64, 64
1, 51196, Note_off_c, 0, 54, 64
1, 51220, Note_on_c, 0, 54, 16
1, 51236, Note_on_c, 0, 63, 28
1, 51236, Note_on_c, 0, 58, 28
1, 51360, Note_on_c, 0, 78, 36
1, 51436, Control_c, 0, 64, 0
1, 51468, Note_on_c, 0, 75, 45
1, 51476, Control_c, 0, 64, 127
1, 51492, Note_off_c, 0, 78, 64
1, 51804, Note_off_c, 0, 54, 64
1, 51820, Note_off_c, 0, 63, 64
1, 51820, Note_off_c, 0, 58, 64
1, 51840, Note_on_c, 0, 58, 16
1, 51844, Note_on_c, 0, 54, 26
1, 51852, Note_on_c, 0, 63, 28
1, 52348, Note_off_c, 0, 58, 64
1, 52352, Note_off_c, 0, 54, 64
1, 52360, Note_off_c, 0, 63, 64
1, 52388, Note_on_c, 0, 57, 14
1, 52396, Note_on_c, 0, 53, 14
1, 52400, Note_on_c, 0, 63, 22
1, 52452, Note_off_c, 0, 75, 64
1, 52492, Control_c, 0, 64, 0
1, 52504, Note_on_c, 0, 76, 32
1, 52540, Control_c, 0, 64, 127
1, 52588, Note_on_c, 0, 77, 23
1, 52612, Note_off_c, 0, 76, 64
1, 52676, Note_on_c, 0, 80, 28
1, 52688, Note_off_c, 0, 77, 64
1, 52752, Note_on_c, 0, 79, 24
1, 52784, Note_off_c, 0, 80, 64
1, 52836, Note_on_c, 0, 78, 28
1, 52844, Note_off_c, 0, 79, 64
1, 52892, Note_on_c, 0, 77, 40
1, 52908, Note_off_c, 0, 78, 64
1, 52972, Note_off_c, 0, 57, 64
1, 52972, Note_on_c, 0, 74, 42
1, 52976, Note_off_c, 0, 53, 64
1, 52984, Note_off_c, 0, 63, 64
1, 52996, Note_on_c, 0, 53, 16
1, 53000, Note_on_c, 0, 62, 16
1, 53004, Note_on_c, 0, 57, 16
1, 53008, Note_off_c, 0, 77, 64
1, 53036, Control_c, 0, 64, 0
1, 53108, Control_c, 0, 64, 127
1, 53440, Note_off_c, 0, 53, 64
1, 53440, Note_off_c, 0, 62, 64
1, 53448, Note_off_c, 0, 57, 64
1, 53476, Note_on_c, 0, 62, 28
1, 53484, Note_on_c, 0, 53, 14
1, 53492, Note_on_c, 0, 57, 23
1, 53940, Note_on_c, 0, 80, 41
1, 53972, Note_off_c, 0, 74, 64
1, 54028, Note_on_c, 0, 84, 36
1, 54052, Note_on_c, 0, 40, 36
1, 54056, Note_off_c, 0, 62, 64
1, 54056, Note_on_c, 0, 52, 40
1, 54064, Note_off_c, 0, 80, 64
1, 54068, Note_off_c, 0, 53, 64
1, 54076, Note_off_c, 0, 57, 64
1, 54080, Control_c, 0, 64, 0
1, 54116, Control_c, 0, 64, 127
1, 54256, Note_off_c, 0, 84, 64
1, 54420, Note_on_c, 0, 83, 36
1, 54476, Note_on_c, 0, 84, 41
1, 54496, Note_off_c, 0, 83, 64
1, 54536, Note_on_c, 0, 83, 41
1, 54564, Note_off_c, 0, 52, 64
1, 54564, Note_off_c, 0, 84, 64
1, 54596, Note_on_c, 0, 59, 33
1, 54600, Note_on_c, 0, 80, 50
1, 54608, Note_on_c, 0, 62, 20
1, 54616, Note_on_c, 0, 52, 1
1, 54628, Note_off_c, 0, 83, 64
1, 54644, Control_c, 0, 64, 0
1, 54700, Control_c, 0, 64, 127
1, 54720, Note_off_c, 0, 40, 64
1, 54736, Note_off_c, 0, 80, 64
1, 55100, Note_off_c, 0, 59, 64
1, 55116, Note_off_c, 0, 62, 64
1, 55124, Note_off_c, 0, 52, 64
1, 55164, Note_on_c, 0, 68, 42
1, 55164, Note_on_c, 0, 62, 20
1, 55180, Note_on_c, 0, 52, 20
1, 55184, Note_on_c, 0, 59, 20
1, 55772, Note_on_c, 0, 69, 32
1, 55780, Note_on_c, 0, 45, 27
1, 55808, Note_off_c, 0, 68, 64
1, 55836, Note_off_c, 0, 62, 64
1, 55848, Note_off_c, 0, 52, 64
1, 55852, Note_off_c, 0, 59, 64
1, 55852, Control_c, 0, 64, 0
1, 55916, Control_c, 0, 64, 127
1, 56280, Note_on_c, 0, 52, 23
1, 56292, Note_on_c, 0, 60, 14
1, 56756, Note_on_c, 0, 64, 48
1, 56768, Note_off_c, 0, 69, 64
1, 56828, Note_off_c, 0, 45, 64
1, 56864, Note_off_c, 0, 52, 64
1, 56864, Note_off_c, 0, 60, 64
1, 57180, Note_on_c, 0, 76, 40
1, 57180, Note_on_c, 0, 56, 28
1, 57212, Note_off_c, 0, 64, 64
1, 57212, Note_on_c, 0, 47, 22
1, 57224, Control_c, 0, 64, 0
1, 57276, Control_c, 0, 64, 127
1, 57584, Note_on_c, 0, 75, 39
1, 57596, Note_on_c, 0, 40, 29
1, 57620, Control_c, 0, 64, 0
1, 57624, Note_off_c, 0, 76, 64
1, 57660, Control_c, 0, 64, 127
1, 57700, Note_off_c, 0, 56, 64
1, 57732, Note_off_c, 0, 47, 64
1, 57732, Note_on_c, 0, 71, 40
1, 57740, Note_off_c, 0, 75, 64
1, 57916, Note_off_c, 0, 40, 64
1, 57924, Note_on_c, 0, 74, 35
1, 57932, Note_on_c, 0, 40, 39
1, 57960, Note_off_c, 0, 71, 64
1, 58060, Note_off_c, 0, 74, 64
1, 58068, Note_on_c, 0, 71, 44
1, 58240, Note_on_c, 0, 74, 39
1, 58252, Note_on_c, 0, 48, 36
1, 58264, Note_on_c, 0, 57, 22
1, 58284, Note_off_c, 0, 71, 64
1, 58284, Control_c, 0, 64, 0
1, 58324, Control_c, 0, 64, 127
1, 58348, Note_on_c, 0, 76, 39
1, 58388, Note_off_c, 0, 74, 64
1, 58436, Note_on_c, 0, 74, 42
1, 58484, Note_off_c, 0, 76, 64
1, 58492, Note_off_c, 0, 40, 64
1, 58540, Note_on_c, 0, 72, 42
1, 58556, Note_on_c, 0, 40, 24
1, 58564, Note_off_c, 0, 74, 64
1, 58588, Control_c, 0, 64, 0
1, 58628, Control_c, 0, 64, 127
1, 58772, Note_off_c, 0, 48, 64
1, 58780, Note_off_c, 0, 57, 64
1, 58844, Note_off_c, 0, 40, 64
1, 58852, Note_on_c, 0, 81, 45
1, 58868, Note_off_c, 0, 72, 64
1, 58900, Note_on_c, 0, 40, 33
1, 58916, Control_c, 0, 64, 0
1, 58920, Note_on_c, 0, 69, 37
1, 58956, Control_c, 0, 64, 127
1, 58980, Note_off_c, 0, 81, 64
1, 59220, Note_on_c, 0, 56, 36
1, 59236, Note_on_c, 0, 76, 44
1, 59236, Note_on_c, 0, 47, 45
1, 59264, Control_c, 0, 64, 0
1, 59280, Note_off_c, 0, 69, 64
1, 59292, Control_c, 0, 64, 127
1, 59316, Note_on_c, 0, 77, 44
1, 59356, Note_off_c, 0, 76, 64
1, 59376, Note_on_c, 0, 76, 48
1, 59404, Note_off_c, 0, 77, 64
1, 59556, Note_off_c, 0, 40, 64
1, 59556, Note_on_c, 0, 75, 48
1, 59568, Note_on_c, 0, 40, 45
1, 59592, Control_c, 0, 64, 0
1, 59596, Note_off_c, 0, 76, 64
1, 59612, Control_c, 0, 64, 127
1, 59644, Note_on_c, 0, 71, 40
1, 59684, Note_off_c, 0, 75, 64
1, 59740, Note_off_c, 0, 56, 64
1, 59752, Tempo, 500000
1, 59752, Note_off_c, 0, 47, 64
1, 59872, Note_off_c, 0, 40, 64
1, 59888, Note_on_c, 0, 74, 58
1, 59888, Note_on_c, 0, 40, 44
1, 59900, Control_c, 0, 64, 0
1, 59920, Control_c, 0, 64, 127
1, 59928, Note_off_c, 0, 71, 64
1, 60012, Note_off_c, 0, 74, 64
1, 60036, Note_on_c, 0, 71, 48
1, 60184, Note_on_c, 0, 45, 22
1, 60188, Note_on_c, 0, 54, 28
1, 60200, Note_on_c, 0, 74, 45
1, 60204, Note_off_c, 0, 71, 64
1, 60292, Note_on_c, 0, 76, 44
1, 60308, Note_off_c, 0, 74, 64
1, 60364, Note_on_c, 0, 74, 52
1, 60396, Note_off_c, 0, 76, 64
1, 60452, Note_off_c, 0, 40, 64
1, 60468, Note_on_c, 0, 73, 61
1, 60484, Note_off_c, 0, 74, 64
1, 60500, Note_on_c, 0, 40, 52
1, 60680, Note_off_c, 0, 73, 64
1, 60700, Note_off_c, 0, 45, 64
1, 60704, Note_off_c, 0, 54, 64
1, 60728, Note_on_c, 0, 72, 53
1, 60780, Note_off_c, 0, 40, 64
1, 60804, Note_on_c, 0, 63, 62
1, 60820, Note_on_c, 0, 40, 44
1, 60832, Note_off_c, 0, 72, 64
1, 60844, Control_c, 0, 64, 0
1, 60864, Control_c, 0, 64, 127
1, 60972, Note_off_c, 0, 63, 64
1, 61064, Note_on_c, 0, 64, 44
1, 61108, Note_on_c, 0, 56, 35
1, 61128, Note_on_c, 0, 47, 50
1, 61132, Note_on_c, 0, 76, 54
1, 61156, Control_c, 0, 64, 0
1, 61212, Note_off_c, 0, 64, 64
1, 61212, Control_c, 0, 64, 127
1, 61316, Note_off_c, 0, 56, 64
1, 61324, Note_off_c, 0, 47, 64
1, 61428, Note_off_c, 0, 40, 64
1, 61432, Note_on_c, 0, 75, 57
1, 61448, Note_on_c, 0, 40, 57
1, 61456, Note_off_c, 0, 76, 64
1, 61456, Control_c, 0, 64, 0
1, 61496, Control_c, 0, 64, 127
1, 61548, Note_on_c, 0, 71, 52
1, 61584, Note_off_c, 0, 75, 64
1, 61728, Note_off_c, 0, 40, 64
1, 61732, Note_on_c, 0, 74, 52
1, 61736, Note_on_c, 0, 40, 53
1, 61744, Note_off_c, 0, 71, 64
1, 61748, Control_c, 0, 64, 0
1, 61768, Control_c, 0, 64, 127
1, 61800, Note_on_c, 0, 71, 57
1, 61848, Note_off_c, 0, 74, 64
1, 62040, Note_on_c, 0, 54, 35
1, 62052, Note_on_c, 0, 74, 53
1, 62060, Note_on_c, 0, 45, 50
1, 62068, Note_off_c, 0, 71, 64
1, 62084, Control_c, 0, 64, 0
1, 62100, Control_c, 0, 64, 127
1, 62132, Note_on_c, 0, 76, 44
1, 62140, Note_off_c, 0, 74, 64
1, 62192, Note_on_c, 0, 74, 58
1, 62232, Note_off_c, 0, 45, 64
1, 62244, Note_off_c, 0, 76, 64
1, 62252, Note_off_c, 0, 54, 64
1, 62256, Note_off_c, 0, 40, 64
1, 62312, Note_on_c, 0, 72, 33
1, 62336, Note_on_c, 0, 40, 58
1, 62340, Note_off_c, 0, 74, 64
1, 62376, Note_off_c, 0, 72, 64
1, 62580, Note_on_c, 0, 76, 59
1, 62580, Note_on_c, 0, 84, 61
1, 62636, Note_off_c, 0, 40, 64
1, 62680, Note_on_c, 0, 69, 63
1, 62700, Note_on_c, 0, 40, 67
1, 62712, Control_c, 0, 64, 0
1, 62720, Note_off_c, 0, 84, 64
1, 62744, Note_off_c, 0, 76, 64
1, 62748, Control_c, 0, 64, 127
1, 63076, Note_on_c, 0, 70, 68
1, 63084, Note_on_c, 0, 67, 62
1, 63100, Control_c, 0, 64, 0
1, 63112, Note_off_c, 0, 40, 64
1, 63140, Note_off_c, 0, 69, 64
1, 63156, Control_c, 0, 64, 127
1, 63196, Note_on_c, 0, 76, 67
1, 63200, Note_on_c, 0, 66, 67
1, 63224, Note_off_c, 0, 67, 64
1, 63252, Note_off_c, 0, 70, 64
1, 63308, Note_on_c, 0, 74, 65
1, 63324, Note_on_c, 0, 69, 62
1, 63324, Note_on_c, 0, 65, 68
1, 63332, Note_off_c, 0, 66, 64
1, 63340, Note_off_c, 0, 76, 64
1, 63444, Note_on_c, 0, 71, 65
1, 63452, Note_on_c, 0, 68, 67
1, 63452, Note_on_c, 0, 64, 68
1, 63468, Note_off_c, 0, 65, 64
1, 63476, Note_off_c, 0, 74, 64
1, 63480, Note_off_c, 0, 69, 64
1, 63480, Control_c, 0, 64, 0
1, 63564, Control_c, 0, 64, 127
1, 63828, Note_off_c, 0, 71, 64
1, 63836, Note_off_c, 0, 68, 64
1, 63836, Note_off_c, 0, 64, 64
1, 64036, Note_on_c, 0, 71, 58
1, 64036, Note_on_c, 0, 68, 57
1, 64036, Note_on_c, 0, 64, 58
1, 64112, Control_c, 0, 64, 0
1, 64152, Control_c, 0, 64, 127
1, 64684, Note_off_c, 0, 68, 64
1, 64696, Note_on_c, 0, 70, 44
1, 64700, Note_on_c, 0, 67, 37
1, 64708, Note_off_c, 0, 64, 64
1, 64708, Note_off_c, 0, 71, 64
1, 64732, Control_c, 0, 64, 0
1, 64768, Control_c, 0, 64, 127
1, 64892, Note_on_c, 0, 76, 42
1, 64896, Note_off_c, 0, 67, 64
1, 64908, Note_on_c, 0, 66, 29
1, 64924, Note_off_c, 0, 70, 64
1, 65060, Note_on_c, 0, 74, 35
1, 65084, Note_on_c, 0, 65, 36
1, 65096, Note_on_c, 0, 69, 26
1, 65116, Note_off_c, 0, 76, 64
1, 65128, Note_off_c, 0, 66, 64
1, 65308, Note_on_c, 0, 68, 39
1, 65316, Note_on_c, 0, 71, 37
1, 65316, Note_on_c, 0, 64, 24
1, 65336, Note_off_c, 0, 69, 64
1, 65340, Note_off_c, 0, 74, 64
1, 65348, Note_off_c, 0, 65, 64
1, 65460, Control_c, 0, 64, 0
1, 65644, Control_c, 0, 64, 127
1, 65728, Control_c, 0, 64, 0
1, 65832, Tempo, 500000
1, 65832, Control_c, 0, 64, 127
1, 67620, Note_on_c, 0, 62, 9
1, 67624, Note_on_c, 0, 65, 9
1, 67644, Note_on_c, 0, 57, 9
1, 67656, Note_off_c, 0, 64, 64
1, 67728, Control_c, 0, 64, 0
1, 67764, Control_c, 0, 64, 127
1, 68104, Note_on_c, 0, 72, 24
1, 68128, Note_off_c, 0, 71, 64
1, 68204, Note_off_c, 0, 62, 64
1, 68208, Note_off_c, 0, 65, 64
1, 68224, Note_off_c, 0, 57, 64
1, 68224, Note_on_c, 0, 74, 24
1, 68232, Note_on_c, 0, 65, 20
1, 68252, Note_on_c, 0, 62, 16
1, 68264, Note_off_c, 0, 72, 64
1, 68264, Note_on_c, 0, 57, 13
1, 68616, Note_off_c, 0, 65, 64
1, 68636, Note_off_c, 0, 62, 64
1, 68648, Note_off_c, 0, 57, 64
1, 68680, Note_on_c, 0, 65, 20
1, 68700, Note_on_c, 0, 62, 20
1, 68704, Note_on_c, 0, 57, 16
1, 68952, Note_off_c, 0, 74, 64
1, 69012, Note_on_c, 0, 69, 33
1, 69044, Note_off_c, 0, 68, 64
1, 69072, Note_off_c, 0, 69, 64
1, 69104, Note_on_c, 0, 69, 36
1, 69120, Note_off_c, 0, 65, 64
1, 69144, Note_off_c, 0, 57, 64
1, 69144, Note_off_c, 0, 62, 64
1, 69184, Note_on_c, 0, 65, 14
1, 69196, Note_on_c, 0, 72, 40
1, 69196, Note_on_c, 0, 60, 14
1, 69208, Note_on_c, 0, 57, 14
1, 69220, Note_off_c, 0, 69, 64
1, 69268, Control_c, 0, 64, 0
1, 69304, Control_c, 0, 64, 127
1, 69568, Note_off_c, 0, 65, 64
1, 69580, Note_off_c, 0, 60, 64
1, 69592, Note_off_c, 0, 57, 64
1, 69624, Note_on_c, 0, 65, 20
1, 69640, Note_off_c, 0, 72, 64
1, 69640, Note_on_c, 0, 57, 20
1, 69644, Note_on_c, 0, 60, 20
1, 70068, Note_off_c, 0, 65, 64
1, 70080, Note_off_c, 0, 57, 64
1, 70088, Note_off_c, 0, 60, 64
1, 70088, Note_on_c, 0, 65, 20
1, 70120, Note_on_c, 0, 71, 36
1, 70120, Note_on_c, 0, 60, 14
1, 70120, Note_on_c, 0, 57, 16
1, 70360, Note_off_c, 0, 71, 64
1, 70368, Note_on_c, 0, 72, 40
1, 70472, Note_off_c, 0, 65, 64
1, 70504, Note_off_c, 0, 60, 64
1, 70504, Note_off_c, 0, 57, 64
1, 70528, Note_on_c, 0, 55, 13
1, 70548, Note_on_c, 0, 60, 20
1, 70556, Note_off_c, 0, 72, 64
1, 70560, Note_on_c, 0, 65, 22
1, 70620, Note_on_c, 0, 74, 31
1, 70672, Note_on_c, 0, 76, 36
1, 70684, Note_off_c, 0, 74, 64
1, 70740, Note_on_c, 0, 74, 42
1, 70772, Note_off_c, 0, 76, 64
1, 70956, Note_on_c, 0, 73, 36
1, 70968, Note_off_c, 0, 74, 64
1, 71036, Note_off_c, 0, 55, 64
1, 71056, Note_off_c, 0, 60, 64
1, 71068, Note_off_c, 0, 65, 64
1, 71112, Note_on_c, 0, 65, 9
1, 71112, Note_on_c, 0, 55, 14
1, 71128, Note_on_c, 0, 59, 20
1, 71152, Note_on_c, 0, 74, 36
1, 71164, Note_off_c, 0, 73, 64
1, 71296, Note_on_c, 0, 76, 44
1, 71336, Note_off_c, 0, 74, 64
1, 71420, Note_on_c, 0, 77, 36
1, 71448, Note_off_c, 0, 76, 64
1, 71552, Note_off_c, 0, 65, 64
1, 71552, Note_off_c, 0, 55, 64
1, 71572, Note_off_c, 0, 59, 64
1, 71572, Note_on_c, 0, 79, 40
1, 71588, Note_on_c, 0, 59, 20
1, 71592, Note_on_c, 0, 55, 13
1, 71600, Note_on_c, 0, 65, 13
1, 71604, Note_off_c, 0, 77, 64
1, 71628, Control_c, 0, 64, 0
1, 71684, Control_c, 0, 64, 127
1, 71784, Note_off_c, 0, 79, 64
1, 72016, Note_on_c, 0, 74, 40
1, 72096, Note_off_c, 0, 59, 64
1, 72096, Note_off_c, 0, 55, 64
1, 72108, Note_off_c, 0, 65, 64
1, 72132, Note_on_c, 0, 76, 40
1, 72132, Note_on_c, 0, 59, 20
1, 72140, Note_on_c, 0, 64, 14
1, 72140, Note_on_c, 0, 55, 13
1, 72152, Note_off_c, 0, 74, 64
1, 72180, Control_c, 0, 64, 0
1, 72236, Control_c, 0, 64, 127
1, 72516, Note_off_c, 0, 59, 64
1, 72524, Note_off_c, 0, 55, 64
1, 72524, Note_off_c, 0, 64, 64
1, 72568, Note_on_c, 0, 64, 14
1, 72584, Note_on_c, 0, 59, 20
1, 72588, Note_on_c, 0, 55, 13
1, 72952, Note_off_c, 0, 64, 64
1, 72968, Note_off_c, 0, 59, 64
1, 72972, Note_off_c, 0, 55, 64
1, 73000, Note_on_c, 0, 64, 16
1, 73000, Note_on_c, 0, 55, 14
1, 73012, Note_on_c, 0, 59, 20
1, 73384, Note_off_c, 0, 64, 64
1, 73384, Note_off_c, 0, 55, 64
1, 73396, Note_off_c, 0, 59, 64
1, 73456, Note_on_c, 0, 54, 11
1, 73456, Note_on_c, 0, 58, 11
1, 73464, Note_on_c, 0, 78, 44
1, 73472, Note_on_c, 0, 64, 13
1, 73508, Note_off_c, 0, 76, 64
1, 73512, Control_c, 0, 64, 0
1, 73568, Control_c, 0, 64, 127
1, 73840, Note_off_c, 0, 54, 64
1, 73840, Note_off_c, 0, 58, 64
1, 73856, Note_off_c, 0, 64, 64
1, 73904, Note_on_c, 0, 54, 10
1, 73912, Note_on_c, 0, 75, 23
1, 73912, Note_on_c, 0, 58, 14
1, 73936, Note_on_c, 0, 63, 5
1, 73960, Note_off_c, 0, 78, 64
1, 73976, Control_c, 0, 64, 0
1, 74024, Control_c, 0, 64, 127
1, 74288, Note_off_c, 0, 54, 64
1, 74296, Note_off_c, 0, 58, 64
1, 74320, Note_off_c, 0, 63, 64
1, 74324, Note_on_c, 0, 58, 9
1, 74328, Note_on_c, 0, 54, 10
1, 74336, Note_on_c, 0, 63, 9
1, 74708, Note_off_c, 0, 58, 64
1, 74712, Note_off_c, 0, 54, 64
1, 74720, Note_off_c, 0, 63, 64
1, 74776, Note_off_c, 0, 75, 64
1, 74788, Note_on_c, 0, 63, 10
1, 74796, Note_on_c, 0, 77, 45
1, 74804, Note_on_c, 0, 53, 10
1, 74804, Note_on_c, 0, 57, 14
1, 74836, Control_c, 0, 64, 0
1, 74892, Control_c, 0, 64, 127
1, 75172, Note_off_c, 0, 63, 64
1, 75188, Note_off_c, 0, 53, 64
1, 75188, Note_off_c, 0, 57, 64
1, 75224, Note_on_c, 0, 74, 24
1, 75232, Note_on_c, 0, 57, 20
1, 75244, Note_on_c, 0, 62, 14
1, 75244, Note_on_c, 0, 53, 14
1, 75256, Note_off_c, 0, 77, 64
1, 75304, Control_c, 0, 64, 0
1, 75328, Control_c, 0, 64, 127
1, 75584, Note_off_c, 0, 57, 64
1, 75596, Note_off_c, 0, 53, 64
1, 75596, Note_off_c, 0, 62, 64
1, 75616, Note_on_c, 0, 57, 14
1, 75616, Note_on_c, 0, 53, 11
1, 75620, Note_on_c, 0, 62, 11
1, 76000, Note_off_c, 0, 57, 64
1, 76000, Note_off_c, 0, 53, 64
1, 76004, Note_off_c, 0, 62, 64
1, 76040, Note_on_c, 0, 52, 16
1, 76048, Note_on_c, 0, 56, 22
1, 76064, Note_on_c, 0, 62, 16
1, 76124, Note_on_c, 0, 76, 32
1, 76124, Control_c, 0, 64, 0
1, 76148, Note_off_c, 0, 74, 64
1, 76164, Control_c, 0, 64, 127
1, 76208, Note_on_c, 0, 71, 36
1, 76224, Note_off_c, 0, 76, 64
1, 76424, Note_off_c, 0, 52, 64
1, 76432, Note_off_c, 0, 56, 64
1, 76448, Note_off_c, 0, 62, 64
1, 76448, Note_on_c, 0, 56, 14
1, 76488, Note_on_c, 0, 52, 16
1, 76488, Note_on_c, 0, 62, 20
1, 76560, Control_c, 0, 64, 0
1, 76596, Control_c, 0, 64, 127
1, 76832, Note_off_c, 0, 56, 64
1, 76872, Note_off_c, 0, 52, 64
1, 76872, Note_off_c, 0, 62, 64
1, 76892, Note_on_c, 0, 56, 44
1, 76908, Note_on_c, 0, 62, 26
1, 76920, Note_on_c, 0, 52, 10
1, 77276, Note_off_c, 0, 56, 64
1, 77292, Note_off_c, 0, 62, 64
1, 77304, Note_off_c, 0, 52, 64
1, 77348, Note_on_c, 0, 62, 16
1, 77352, Note_on_c, 0, 52, 20
1, 77352, Note_on_c, 0, 57, 39
1, 77424, Control_c, 0, 64, 0
1, 77432, Note_off_c, 0, 71, 64
1, 77432, Note_on_c, 0, 72, 36
1, 77484, Control_c, 0, 64, 127
1, 77528, Note_on_c, 0, 68, 58
1, 77564, Note_off_c, 0, 72, 64
1, 77788, Note_off_c, 0, 62, 64
1, 77792, Note_off_c, 0, 52, 64
1, 77796, Note_off_c, 0, 57, 64
1, 77820, Note_on_c, 0, 59, 28
1, 77828, Note_on_c, 0, 62, 22
1, 77840, Note_on_c, 0, 52, 20
1, 77868, Control_c, 0, 64, 0
1, 77936, Control_c, 0, 64, 127
1, 78264, Note_off_c, 0, 59, 64
1, 78272, Note_off_c, 0, 62, 64
1, 78280, Note_off_c, 0, 52, 64
1, 78296, Control_c, 0, 64, 0
1, 78308, Note_on_c, 0, 59, 28
1, 78312, Note_on_c, 0, 62, 22
1, 78320, Note_on_c, 0, 52, 20
1, 78328, Control_c, 0, 64, 127
1, 78504, Note_off_c, 0, 68, 64
1, 78716, Note_on_c, 0, 71, 36
1, 78800, Note_off_c, 0, 71, 64
1, 78924, Note_on_c, 0, 71, 36
1, 78932, Note_on_c, 0, 45, 50
1, 78976, Note_off_c, 0, 59, 64
1, 78980, Note_off_c, 0, 62, 64
1, 78984, Control_c, 0, 64, 0
1, 78988, Note_off_c, 0, 52, 64
1, 79004, Control_c, 0, 64, 127
1, 79016, Note_off_c, 0, 71, 64
1, 79112, Note_on_c, 0, 71, 36
1, 79276, Note_on_c, 0, 72, 36
1, 79284, Note_off_c, 0, 71, 64
1, 79392, Note_off_c, 0, 45, 64
1, 79420, Note_on_c, 0, 71, 36
1, 79476, Note_off_c, 0, 72, 64
1, 79548, Note_on_c, 0, 57, 22
1, 79560, Note_on_c, 0, 65, 16
1, 79564, Note_on_c, 0, 62, 22
1, 79584, Note_on_c, 0, 69, 40
1, 79608, Note_off_c, 0, 71, 64
1, 79624, Control_c, 0, 64, 0
1, 79648, Control_c, 0, 64, 127
1, 79792, Note_on_c, 0, 71, 36
1, 79924, Note_on_c, 0, 72, 40
1, 79936, Note_off_c, 0, 69, 64
1, 79960, Note_off_c, 0, 71, 64
1, 80012, Note_off_c, 0, 57, 64
1, 80024, Note_off_c, 0, 65, 64
1, 80028, Note_off_c, 0, 62, 64
1, 80076, Note_on_c, 0, 76, 36
1, 80092, Note_on_c, 0, 65, 26
1, 80092, Note_on_c, 0, 62, 22
1, 80092, Note_on_c, 0, 57, 22
1, 80116, Note_off_c, 0, 72, 64
1, 80132, Control_c, 0, 64, 0
1, 80152, Control_c, 0, 64, 127
1, 80352, Note_off_c, 0, 76, 64
1, 80364, Note_on_c, 0, 74, 40
1, 80452, Note_off_c, 0, 74, 64
1, 80480, Note_on_c, 0, 69, 29
1, 80536, Note_off_c, 0, 69, 64
1, 80556, Note_on_c, 0, 69, 40
1, 80624, Note_off_c, 0, 65, 64
1, 80624, Note_off_c, 0, 62, 64
1, 80624, Note_off_c, 0, 57, 64
1, 80636, Note_on_c, 0, 72, 40
1, 80648, Note_off_c, 0, 69, 64
1, 80652, Note_on_c, 0, 60, 14
1, 80652, Note_on_c, 0, 57, 22
1, 80664, Control_c, 0, 64, 0
1, 80672, Note_on_c, 0, 65, 14
1, 80720, Control_c, 0, 64, 127
1, 81004, Note_off_c, 0, 60, 64
1, 81004, Note_off_c, 0, 57, 64
1, 81024, Note_off_c, 0, 65, 64
1, 81040, Note_on_c, 0, 57, 22
1, 81048, Note_on_c, 0, 65, 16
1, 81048, Note_on_c, 0, 60, 22
1, 81100, Control_c, 0, 64, 0
1, 81120, Control_c, 0, 64, 127
1, 81324, Tempo, 500000
1, 81324, Note_off_c, 0, 72, 64
1, 81424, Note_off_c, 0, 57, 64
1, 81432, Note_off_c, 0, 60, 64
1, 81432, Note_off_c, 0, 65, 64
1, 81492, Note_on_c, 0, 56, 11
1, 81496, Note_on_c, 0, 65, 22
1, 81496, Note_on_c, 0, 60, 22
1, 81520, Note_on_c, 0, 71, 28
1, 81688, Note_on_c, 0, 72, 28
1, 81704, Note_off_c, 0, 71, 64
1, 81808, Note_on_c, 0, 73, 28
1, 81864, Note_off_c, 0, 72, 64
1, 81932, Note_off_c, 0, 56, 64
1, 81936, Note_off_c, 0, 65, 64
1, 81940, Note_off_c, 0, 60, 64
1, 81980, Note_on_c, 0, 74, 36
1, 81992, Note_on_c, 0, 60, 14
1, 81996, Note_off_c, 0, 73, 64
1, 82004, Note_on_c, 0, 65, 14
1, 82012, Note_on_c, 0, 55, 11
1, 82044, Control_c, 0, 64, 0
1, 82072, Control_c, 0, 64, 127
1, 82164, Note_off_c, 0, 74, 64
1, 82164, Note_on_c, 0, 76, 14
1, 82244, Note_on_c, 0, 74, 29
1, 82288, Note_off_c, 0, 76, 64
1, 82328, Note_on_c, 0, 73, 23
1, 82332, Note_off_c, 0, 74, 64
1, 82376, Note_off_c, 0, 60, 64
1, 82388, Note_off_c, 0, 65, 64
1, 82396, Note_off_c, 0, 55, 64
1, 82416, Note_off_c, 0, 73, 64
1, 82416, Note_on_c, 0, 74, 36
1, 82452, Note_on_c, 0, 65, 14
1, 82464, Note_on_c, 0, 60, 14
1, 82480, Note_on_c, 0, 55, 14
1, 82508, Note_off_c, 0, 74, 64
1, 82512, Note_on_c, 0, 75, 32
1, 82608, Note_on_c, 0, 76, 36
1, 82612, Note_off_c, 0, 75, 64
1, 82688, Note_off_c, 0, 76, 64
1, 82692, Note_on_c, 0, 77, 28
1, 82792, Note_off_c, 0, 77, 64
1, 82796, Tempo, 500000
1, 82796, Note_on_c, 0, 79, 23
1, 82888, Note_on_c, 0, 80, 28
1, 82892, Note_off_c, 0, 65, 64
1, 82892, Note_off_c, 0, 79, 64
1, 82900, Note_off_c, 0, 60, 64
1, 82916, Note_off_c, 0, 55, 64
1, 82932, Note_on_c, 0, 59, 14
1, 82960, Note_on_c, 0, 55, 14
1, 82972, Note_on_c, 0, 65, 14
1, 82988, Note_on_c, 0, 83, 28
1, 83020, Note_off_c, 0, 80, 64
1, 83076, Note_on_c, 0, 81, 24
1, 83104, Note_off_c, 0, 83, 64
1, 83180, Note_on_c, 0, 79, 24
1, 83204, Note_off_c, 0, 81, 64
1, 83292, Note_on_c, 0, 77, 26
1, 83340, Note_off_c, 0, 79, 64
1, 83376, Note_off_c, 0, 59, 64
1, 83400, Note_off_c, 0, 55, 64
1, 83412, Note_off_c, 0, 65, 64
1, 83420, Note_on_c, 0, 76, 37
1, 83420, Note_on_c, 0, 64, 14
1, 83428, Note_on_c, 0, 59, 20
1, 83440, Note_on_c, 0, 55, 11
1, 83456, Note_off_c, 0, 77, 64
1, 83476, Control_c, 0, 64, 0
1, 83536, Control_c, 0, 64, 127
1, 83804, Note_off_c, 0, 64, 64
1, 83812, Note_off_c, 0, 59, 64
1, 83824, Note_off_c, 0, 55, 64
1, 83872, Note_on_c, 0, 55, 20
1, 83876, Note_on_c, 0, 64, 14
1, 83876, Note_on_c, 0, 59, 14
1, 84256, Note_off_c, 0, 55, 64
1, 84260, Note_off_c, 0, 64, 64
1, 84260, Note_off_c, 0, 59, 64
1, 84304, Note_on_c, 0, 64, 14
1, 84304, Note_on_c, 0, 55, 14
1, 84316, Note_on_c, 0, 59, 16
1, 84688, Note_off_c, 0, 55, 64
1, 84688, Note_off_c, 0, 64, 64
1, 84700, Note_off_c, 0, 59, 64
1, 84748, Note_on_c, 0, 58, 24
1, 84748, Note_on_c, 0, 54, 24
1, 84760, Note_on_c, 0, 64, 20
1, 84816, Control_c, 0, 64, 0
1, 84852, Control_c, 0, 64, 127
1, 85084, Note_off_c, 0, 76, 64
1, 85132, Note_off_c, 0, 58, 64
1, 85132, Note_off_c, 0, 54, 64
1, 85144, Note_off_c, 0, 64, 64
1, 85172, Note_on_c, 0, 54, 15
1, 85180, Note_on_c, 0, 58, 16
1, 85204, Note_on_c, 0, 63, 16
1, 85240, Note_on_c, 0, 78, 36
1, 85320, Note_on_c, 0, 75, 44
1, 85328, Control_c, 0, 64, 0
1, 85360, Note_off_c, 0, 78, 64
1, 85368, Control_c, 0, 64, 127
1, 85612, Note_off_c, 0, 54, 64
1, 85620, Note_off_c, 0, 58, 64
1, 85644, Note_off_c, 0, 63, 64
1, 85692, Note_on_c, 0, 58, 16
1, 85704, Note_on_c, 0, 54, 27
1, 85716, Note_on_c, 0, 63, 16
1, 86028, Note_off_c, 0, 75, 64
1, 86132, Note_off_c, 0, 58, 64
1, 86144, Note_off_c, 0, 54, 64
1, 86156, Note_off_c, 0, 63, 64
1, 86184, Note_on_c, 0, 57, 15
1, 86196, Note_on_c, 0, 53, 1
1, 86200, Note_on_c, 0, 63, 18
1, 86292, Note_on_c, 0, 76, 28
1, 86340, Note_on_c, 0, 77, 40
1, 86392, Note_off_c, 0, 76, 64
1, 86424, Note_on_c, 0, 80, 33
1, 86432, Note_off_c, 0, 77, 64
1, 86504, Note_on_c, 0, 79, 36
1, 86524, Note_off_c, 0, 80, 64
1, 86584, Note_on_c, 0, 78, 31
1, 86596, Note_off_c, 0, 79, 64
1, 86644, Note_on_c, 0, 77, 44
1, 86660, Note_off_c, 0, 78, 64
1, 86692, Note_off_c, 0, 57, 64
1, 86704, Note_off_c, 0, 53, 64
1, 86708, Note_off_c, 0, 63, 64
1, 86732, Note_on_c, 0, 74, 48
1, 86748, Note_on_c, 0, 53, 16
1, 86756, Note_on_c, 0, 57, 24
1, 86764, Note_off_c, 0, 77, 64
1, 86768, Note_on_c, 0, 62, 16
1, 86812, Control_c, 0, 64, 0
1, 86868, Control_c, 0, 64, 127
1, 87188, Note_off_c, 0, 53, 64
1, 87196, Note_off_c, 0, 57, 64
1, 87208, Note_off_c, 0, 62, 64
1, 87264, Note_on_c, 0, 62, 20
1, 87268, Note_on_c, 0, 57, 27
1, 87268, Note_on_c, 0, 53, 16
1, 87708, Note_on_c, 0, 80, 52
1, 87772, Note_off_c, 0, 62, 64
1, 87776, Note_off_c, 0, 53, 64
1, 87776, Note_off_c, 0, 57, 64
1, 87780, Note_off_c, 0, 74, 64
1, 87824, Note_on_c, 0, 84, 52
1, 87840, Note_on_c, 0, 40, 35
1, 87852, Note_off_c, 0, 80, 64
1, 87860, Control_c, 0, 64, 0
1, 87892, Control_c, 0, 64, 127
1, 88072, Note_off_c, 0, 84, 64
1, 88228, Note_on_c, 0, 83, 42
1, 88284, Note_on_c, 0, 84, 42
1, 88292, Note_off_c, 0, 83, 64
1, 88352, Note_on_c, 0, 83, 50
1, 88372, Note_off_c, 0, 84, 64
1, 88396, Note_on_c, 0, 59, 32
1, 88408, Note_on_c, 0, 62, 24
1, 88420, Note_on_c, 0, 80, 52
1, 88424, Note_on_c, 0, 52, 24
1, 88444, Control_c, 0, 64, 0
1, 88452, Note_off_c, 0, 83, 64
1, 88484, Control_c, 0, 64, 127
1, 88508, Note_off_c, 0, 40, 64
1, 88580, Note_off_c, 0, 80, 64
1, 88980, Note_off_c, 0, 59, 64
1, 88992, Note_off_c, 0, 62, 64
1, 89008, Note_off_c, 0, 52, 64
1, 89028, Note_on_c, 0, 68, 44
1, 89052, Note_on_c, 0, 62, 15
1, 89052, Note_on_c, 0, 52, 15
1, 89052, Note_on_c, 0, 59, 15
1, 89100, Control_c, 0, 64, 0
1, 89120, Control_c, 0, 64, 127
1, 89660, Note_on_c, 0, 69, 27
1, 89660, Note_on_c, 0, 45, 29
1, 89684, Note_off_c, 0, 68, 64
1, 89684, Control_c, 0, 64, 0
1, 89720, Note_off_c, 0, 52, 64
1, 89720, Note_off_c, 0, 62, 64
1, 89724, Note_off_c, 0, 59, 64
1, 89776, Control_c, 0, 64, 127
1, 90204, Note_on_c, 0, 61, 20
1, 90212, Note_on_c, 0, 57, 15
1, 90216, Note_on_c, 0, 52, 15
1, 90784, Note_off_c, 0, 61, 64
1, 90792, Note_off_c, 0, 57, 64
1, 90796, Note_off_c, 0, 52, 64
1, 90804, Note_on_c, 0, 61, 15
1, 90840, Note_on_c, 0, 57, 14
1, 90844, Note_on_c, 0, 52, 14
1, 90928, Note_off_c, 0, 69, 64
1, 90940, Note_off_c, 0, 45, 64
1, 91248, Note_off_c, 0, 61, 64
1, 91280, Note_off_c, 0, 57, 64
1, 91284, Note_off_c, 0, 52, 64
1, 91396, Note_on_c, 0, 61, 19
1, 91400, Note_on_c, 0, 45, 29
1, 91404, Note_on_c, 0, 73, 31
1, 91416, Note_on_c, 0, 52, 20
1, 91584, Note_off_c, 0, 45, 64
1, 91612, Note_off_c, 0, 52, 64
1, 91620, Note_on_c, 0, 71, 16
1, 91656, Note_off_c, 0, 73, 64
1, 91796, Note_off_c, 0, 61, 64
1, 91796, Note_on_c, 0, 52, 22
1, 91804, Note_on_c, 0, 69, 29
1, 91808, Note_on_c, 0, 61, 31
1, 91816, Note_on_c, 0, 45, 16
1, 91844, Note_off_c, 0, 71, 64
1, 91908, Note_off_c, 0, 45, 64
1, 91916, Note_off_c, 0, 52, 64
1, 92160, Note_on_c, 0, 66, 39
1, 92164, Note_off_c, 0, 61, 64
1, 92172, Note_off_c, 0, 69, 64
1, 92176, Note_on_c, 0, 61, 33
1, 92176, Note_on_c, 0, 52, 29
1, 92176, Note_on_c, 0, 45, 26
1, 92284, Note_off_c, 0, 52, 64
1, 92296, Note_off_c, 0, 45, 64
1, 92400, Note_on_c, 0, 68, 35
1, 92428, Note_off_c, 0, 66, 64
1, 92452, Note_off_c, 0, 61, 64
1, 92468, Note_on_c, 0, 66, 39
1, 92524, Note_on_c, 0, 64, 42
1, 92536, Note_off_c, 0, 68, 64
1, 92536, Note_on_c, 0, 45, 31
1, 92536, Note_on_c, 0, 52, 33
1, 92540, Note_on_c, 0, 62, 39
1, 92604, Note_off_c, 0, 66, 64
1, 92608, Note_off_c, 0, 62, 64
1, 92644, Note_off_c, 0, 52, 64
1, 92648, Note_off_c, 0, 45, 64
1, 92724, Note_on_c, 0, 62, 37
1, 92764, Note_off_c, 0, 62, 64
1, 92868, Note_on_c, 0, 62, 39
1, 92880, Note_on_c, 0, 52, 33
1, 92880, Note_on_c, 0, 45, 29
1, 92972, Note_off_c, 0, 52, 64
1, 92972, Note_off_c, 0, 45, 64
1, 93204, Note_on_c, 0, 52, 33
1, 93204, Note_on_c, 0, 45, 33
1, 93216, Note_on_c, 0, 61, 37
1, 93228, Note_off_c, 0, 62, 64
1, 93300, Note_off_c, 0, 52, 64
1, 93312, Note_off_c, 0, 45, 64
1, 93352, Note_on_c, 0, 59, 42
1, 93432, Note_off_c, 0, 61, 64
1, 93520, Note_on_c, 0, 61, 45
1, 93524, Note_off_c, 0, 59, 64
1, 93528, Note_on_c, 0, 73, 48
1, 93540, Note_on_c, 0, 52, 28
1, 93540, Note_on_c, 0, 45, 22
1, 93564, Note_off_c, 0, 64, 64
1, 93652, Note_off_c, 0, 45, 64
1, 93664, Note_off_c, 0, 52, 64
1, 93684, Note_on_c, 0, 71, 35
1, 93736, Note_off_c, 0, 73, 64
1, 93804, Note_off_c, 0, 61, 64
1, 93852, Note_on_c, 0, 52, 29
1, 93860, Note_on_c, 0, 61, 48
1, 93864, Note_on_c, 0, 69, 42
1, 93872, Note_on_c, 0, 45, 26
1, 93884, Control_c, 0, 64, 0
1, 93908, Control_c, 0, 64, 127
1, 93952, Note_off_c, 0, 71, 64
1, 93964, Note_off_c, 0, 52, 64
1, 93964, Note_off_c, 0, 45, 64
1, 94164, Note_off_c, 0, 61, 64
1, 94176, Note_on_c, 0, 66, 35
1, 94184, Note_off_c, 0, 69, 64
1, 94184, Note_on_c, 0, 61, 39
1, 94188, Note_on_c, 0, 52, 33
1, 94196, Note_on_c, 0, 45, 29
1, 94272, Note_off_c, 0, 52, 64
1, 94280, Note_off_c, 0, 45, 64
1, 94388, Note_off_c, 0, 61, 64
1, 94388, Note_on_c, 0, 68, 35
1, 94412, Note_off_c, 0, 66, 64
1, 94448, Note_on_c, 0, 66, 35
1, 94504, Note_on_c, 0, 64, 37
1, 94512, Note_on_c, 0, 62, 42
1, 94520, Note_on_c, 0, 45, 31
1, 94520, Note_on_c, 0, 52, 37
1, 94564, Note_off_c, 0, 68, 64
1, 94572, Note_off_c, 0, 62, 64
1, 94584, Note_off_c, 0, 66, 64
1, 94612, Note_off_c, 0, 52, 64
1, 94620, Note_off_c, 0, 45, 64
1, 94644, Note_on_c, 0, 62, 42
1, 94688, Note_off_c, 0, 62, 64
1, 94764, Note_on_c, 0, 62, 48
1, 94828, Note_off_c, 0, 62, 64
1, 94836, Note_on_c, 0, 52, 26
1, 94844, Note_on_c, 0, 45, 22
1, 94856, Note_on_c, 0, 62, 44
1, 94936, Note_off_c, 0, 52, 64
1, 94936, Note_off_c, 0, 45, 64
1, 95164, Note_on_c, 0, 61, 40
1, 95176, Note_on_c, 0, 52, 37
1, 95180, Note_on_c, 0, 45, 33
1, 95200, Note_off_c, 0, 62, 64
1, 95268, Note_off_c, 0, 45, 64
1, 95272, Note_off_c, 0, 52, 64
1, 95316, Note_on_c, 0, 59, 48
1, 95376, Note_off_c, 0, 61, 64
1, 95472, Note_off_c, 0, 64, 64
1, 95484, Note_on_c, 0, 52, 31
1, 95484, Note_on_c, 0, 45, 22
1, 95484, Note_on_c, 0, 62, 31
1, 95488, Note_on_c, 0, 64, 36
1, 95556, Note_off_c, 0, 59, 64
1, 95588, Note_off_c, 0, 52, 64
1, 95604, Note_off_c, 0, 45, 64
1, 95620, Note_on_c, 0, 66, 35
1, 95672, Note_off_c, 0, 64, 64
1, 95676, Note_off_c, 0, 62, 64
1, 95780, Note_on_c, 0, 68, 40
1, 95784, Note_on_c, 0, 45, 28
1, 95792, Note_on_c, 0, 62, 37
1, 95792, Note_on_c, 0, 52, 33
1, 95796, Note_on_c, 0, 64, 35
1, 95796, Note_on_c, 0, 59, 24
1, 95852, Note_off_c, 0, 66, 64
1, 95864, Note_off_c, 0, 64, 64
1, 95868, Note_off_c, 0, 62, 64
1, 95888, Note_off_c, 0, 59, 64
1, 95892, Note_off_c, 0, 45, 64
1, 95892, Note_off_c, 0, 52, 64
1, 96096, Note_on_c, 0, 69, 42
1, 96104, Note_on_c, 0, 62, 39
1, 96108, Note_off_c, 0, 68, 64
1, 96108, Note_on_c, 0, 64, 37
1, 96120, Note_on_c, 0, 52, 31
1, 96120, Note_on_c, 0, 45, 31
1, 96124, Note_on_c, 0, 59, 26
1, 96196, Note_off_c, 0, 52, 64
1, 96204, Note_off_c, 0, 59, 64
1, 96208, Note_off_c, 0, 64, 64
1, 96208, Note_off_c, 0, 45, 64
1, 96216, Note_off_c, 0, 62, 64
1, 96420, Note_on_c, 0, 64, 1
1, 96424, Note_on_c, 0, 59, 29
1, 96424, Note_on_c, 0, 45, 29
1, 96432, Note_on_c, 0, 62, 39
1, 96432, Note_on_c, 0, 52, 35
1, 96436, Note_on_c, 0, 71, 44
1, 96476, Note_off_c, 0, 69, 64
1, 96500, Note_off_c, 0, 52, 64
1, 96504, Note_off_c, 0, 45, 64
1, 96508, Note_off_c, 0, 59, 64
1, 96508, Note_off_c, 0, 62, 64
1, 96516, Note_off_c, 0, 64, 64
1, 96576, Note_on_c, 0, 73, 61
1, 96684, Note_off_c, 0, 71, 64
1, 96712, Note_on_c, 0, 64, 31
1, 96724, Note_on_c, 0, 68, 37
1, 96724, Note_on_c, 0, 62, 50
1, 96732, Note_on_c, 0, 74, 52
1, 96732, Note_on_c, 0, 59, 37
1, 96732, Note_on_c, 0, 45, 37
1, 96740, Note_on_c, 0, 52, 40
1, 96780, Note_off_c, 0, 73, 64
1, 96796, Note_off_c, 0, 62, 64
1, 96796, Note_off_c, 0, 64, 64
1, 96808, Note_off_c, 0, 52, 64
1, 96824, Note_off_c, 0, 45, 64
1, 96824, Note_off_c, 0, 59, 64
1, 96896, Note_off_c, 0, 68, 64
1, 97044, Note_on_c, 0, 75, 50
1, 97048, Note_on_c, 0, 68, 52
1, 97060, Note_on_c, 0, 62, 50
1, 97060, Note_on_c, 0, 59, 45
1, 97060, Note_on_c, 0, 52, 52
1, 97068, Note_on_c, 0, 45, 35
1, 97072, Note_on_c, 0, 64, 40
1, 97084, Note_off_c, 0, 74, 64
1, 97120, Note_off_c, 0, 45, 64
1, 97124, Note_off_c, 0, 68, 64
1, 97132, Note_off_c, 0, 59, 64
1, 97132, Note_off_c, 0, 52, 64
1, 97140, Note_off_c, 0, 64, 64
1, 97164, Note_off_c, 0, 62, 64
1, 97352, Note_on_c, 0, 64, 36
1, 97356, Note_on_c, 0, 68, 57
1, 97356, Note_on_c, 0, 62, 58
1, 97380, Note_on_c, 0, 76, 54
1, 97380, Note_on_c, 0, 59, 44
1, 97380, Note_on_c, 0, 52, 50
1, 97380, Note_on_c, 0, 45, 36
1, 97424, Note_off_c, 0, 68, 64
1, 97436, Note_off_c, 0, 75, 64
1, 97440, Note_off_c, 0, 64, 64
1, 97448, Note_off_c, 0, 45, 64
1, 97452, Note_off_c, 0, 52, 64
1, 97460, Note_off_c, 0, 59, 64
1, 97468, Note_off_c, 0, 62, 64
1, 97488, Note_on_c, 0, 74, 52
1, 97516, Note_off_c, 0, 76, 64
1, 97644, Note_on_c, 0, 71, 37
1, 97644, Note_on_c, 0, 62, 37
1, 97648, Note_on_c, 0, 64, 44
1, 97656, Note_on_c, 0, 68, 42
1, 97660, Note_on_c, 0, 59, 44
1, 97668, Note_on_c, 0, 45, 37
1, 97672, Note_on_c, 0, 52, 44
1, 97692, Note_off_c, 0, 74, 64
1, 97724, Note_off_c, 0, 64, 64
1, 97740, Note_off_c, 0, 62, 64
1, 97740, Note_off_c, 0, 68, 64
1, 97748, Note_off_c, 0, 52, 64
1, 97752, Note_off_c, 0, 45, 64
1, 97756, Note_off_c, 0, 59, 64
1, 97956, Note_on_c, 0, 68, 35
1, 97968, Note_on_c, 0, 64, 1
1, 97980, Note_on_c, 0, 62, 42
1, 97984, Note_on_c, 0, 73, 50
1, 97984, Note_on_c, 0, 59, 40
1, 97992, Note_on_c, 0, 52, 40
1, 97992, Note_on_c, 0, 45, 39
1, 98048, Note_off_c, 0, 68, 64
1, 98068, Note_off_c, 0, 64, 64
1, 98068, Note_off_c, 0, 59, 64
1, 98076, Note_off_c, 0, 71, 64
1, 98076, Note_off_c, 0, 52, 64
1, 98080, Note_off_c, 0, 62, 64
1, 98088, Note_off_c, 0, 45, 64
1, 98308, Note_on_c, 0, 69, 50
1, 98308, Note_on_c, 0, 52, 48
1, 98312, Note_on_c, 0, 61, 57
1, 98320, Note_on_c, 0, 45, 48
1, 98320, Control_c, 0, 64, 0
1, 98344, Note_off_c, 0, 73, 64
1, 98348, Control_c, 0, 64, 127
1, 98372, Note_off_c, 0, 52, 64
1, 98404, Note_off_c, 0, 45, 64
1, 98456, Note_on_c, 0, 73, 50
1, 98508, Note_off_c, 0, 69, 64
1, 98532, Note_off_c, 0, 61, 64
1, 98636, Note_on_c, 0, 68, 53
1, 98640, Note_on_c, 0, 71, 54
1, 98648, Note_on_c, 0, 59, 57
1, 98660, Note_on_c, 0, 52, 57
1, 98660, Note_on_c, 0, 64, 57
1, 98660, Note_on_c, 0, 40, 54
1, 98680, Note_off_c, 0, 73, 64
1, 98724, Control_c, 0, 64, 0
1, 98924, Control_c, 0, 64, 127
1, 99068, Note_on_c, 0, 62, 39
1, 99072, Note_on_c, 0, 66, 37
1, 99124, Note_off_c, 0, 68, 64
1, 99136, Note_off_c, 0, 59, 64
1, 99148, Note_off_c, 0, 64, 64
1, 99404, Note_off_c, 0, 71, 64
1, 99408, Note_off_c, 0, 62, 64
1, 99412, Note_off_c, 0, 66, 64
1, 99424, Note_off_c, 0, 52, 64
1, 99428, Note_off_c, 0, 40, 64
1, 99532, Note_on_c, 0, 61, 44
1, 99532, Note_on_c, 0, 73, 44
1, 99544, Note_on_c, 0, 52, 33
1, 99552, Note_on_c, 0, 45, 35
1, 99600, Control_c, 0, 64, 0
1, 99620, Control_c, 0, 64, 127
1, 99700, Note_on_c, 0, 71, 35
1, 99752, Note_off_c, 0, 52, 64
1, 99752, Note_off_c, 0, 45, 64
1, 99780, Note_off_c, 0, 73, 64
1, 99824, Note_off_c, 0, 61, 64
1, 99884, Note_on_c, 0, 52, 42
1, 99884, Note_on_c, 0, 45, 42
1, 99892, Note_on_c, 0, 61, 52
1, 99896, Note_on_c, 0, 69, 44
1, 99908, Control_c, 0, 64, 0
1, 99932, Control_c, 0, 64, 127
1, 99984, Note_off_c, 0, 71, 64
1, 99988, Note_off_c, 0, 52, 64
1, 100000, Note_off_c, 0, 45, 64
1, 100180, Note_off_c, 0, 61, 64
1, 100200, Note_on_c, 0, 66, 44
1, 100208, Note_on_c, 0, 61, 52
1, 100212, Note_on_c, 0, 52, 42
1, 100220, Note_on_c, 0, 45, 33
1, 100284, Note_off_c, 0, 69, 64
1, 100296, Note_off_c, 0, 45, 64
1, 100308, Note_off_c, 0, 52, 64
1, 100412, Note_off_c, 0, 61, 64
1, 100416, Note_on_c, 0, 68, 44
1, 100440, Note_off_c, 0, 66, 64
1, 100472, Note_on_c, 0, 66, 39
1, 100524, Note_on_c, 0, 64, 44
1, 100536, Note_on_c, 0, 62, 53
1, 100544, Note_on_c, 0, 52, 44
1, 100544, Note_on_c, 0, 45, 39
1, 100552, Note_off_c, 0, 68, 64
1, 100596, Note_off_c, 0, 62, 64
1, 100608, Note_off_c, 0, 66, 64
1, 100632, Note_off_c, 0, 52, 64
1, 100632, Note_off_c, 0, 45, 64
1, 100692, Note_on_c, 0, 62, 42
1, 100748, Note_off_c, 0, 62, 64
1, 100836, Note_on_c, 0, 62, 54
1, 100840, Note_on_c, 0, 52, 44
1, 100848, Note_on_c, 0, 45, 39
1, 100932, Note_off_c, 0, 52, 64
1, 100944, Note_off_c, 0, 45, 64
1, 101148, Note_on_c, 0, 52, 44
1, 101148, Note_on_c, 0, 45, 42
1, 101152, Note_on_c, 0, 61, 45
1, 101176, Control_c, 0, 64, 0
1, 101188, Note_off_c, 0, 62, 64
1, 101196, Control_c, 0, 64, 127
1, 101244, Note_off_c, 0, 52, 64
1, 101248, Note_off_c, 0, 45, 64
1, 101284, Note_on_c, 0, 59, 53
1, 101332, Note_off_c, 0, 61, 64
1, 101444, Note_on_c, 0, 73, 50
1, 101448, Note_on_c, 0, 61, 57
1, 101456, Note_on_c, 0, 52, 42
1, 101456, Note_on_c, 0, 45, 39
1, 101468, Control_c, 0, 64, 0
1, 101488, Control_c, 0, 64, 127
1, 101492, Note_off_c, 0, 59, 64
1, 101500, Note_off_c, 0, 64, 64
1, 101560, Note_off_c, 0, 52, 64
1, 101564, Note_off_c, 0, 45, 64
1, 101596, Note_on_c, 0, 71, 29
1, 101608, Note_off_c, 0, 73, 64
1, 101748, Note_on_c, 0, 52, 44
1, 101756, Note_on_c, 0, 45, 44
1, 101760, Note_on_c, 0, 69, 50
1, 101764, Note_off_c, 0, 61, 64
1, 101768, Note_on_c, 0, 61, 54
1, 101772, Control_c, 0, 64, 0
1, 101800, Control_c, 0, 64, 127
1, 101852, Note_off_c, 0, 52, 64
1, 101852, Note_off_c, 0, 45, 64
1, 101868, Note_off_c, 0, 71, 64
1, 102028, Note_off_c, 0, 61, 64
1, 102036, Note_on_c, 0, 66, 50
1, 102056, Note_on_c, 0, 61, 54
1, 102064, Note_on_c, 0, 52, 44
1, 102068, Note_on_c, 0, 45, 40
1, 102088, Note_off_c, 0, 69, 64
1, 102148, Note_off_c, 0, 52, 64
1, 102148, Note_off_c, 0, 45, 64
1, 102188, Note_off_c, 0, 66, 64
1, 102244, Note_on_c, 0, 68, 62
1, 102292, Note_on_c, 0, 66, 39
1, 102356, Note_off_c, 0, 68, 64
1, 102356, Note_on_c, 0, 62, 52
1, 102372, Note_on_c, 0, 64, 44
1, 102372, Note_on_c, 0, 52, 45
1, 102376, Note_on_c, 0, 45, 44
1, 102380, Note_off_c, 0, 61, 64
1, 102412, Note_off_c, 0, 66, 64
1, 102420, Note_off_c, 0, 62, 64
1, 102460, Note_off_c, 0, 52, 64
1, 102460, Note_off_c, 0, 45, 64
1, 102484, Note_on_c, 0, 62, 53
1, 102540, Note_off_c, 0, 62, 64
1, 102604, Note_on_c, 0, 62, 50
1, 102636, Note_off_c, 0, 62, 64
1, 102688, Note_on_c, 0, 62, 57
1, 102692, Note_on_c, 0, 52, 48
1, 102692, Note_on_c, 0, 45, 44
1, 102756, Note_off_c, 0, 52, 64
1, 102760, Note_off_c, 0, 45, 64
1, 102988, Note_on_c, 0, 61, 50
1, 103000, Note_on_c, 0, 52, 44
1, 103000, Note_on_c, 0, 45, 44
1, 103036, Note_off_c, 0, 62, 64
1, 103084, Note_off_c, 0, 45, 64
1, 103088, Note_off_c, 0, 52, 64
1, 103108, Note_on_c, 0, 59, 53
1, 103152, Note_off_c, 0, 61, 64
1, 103228, Note_off_c, 0, 59, 64
1, 103252, Note_off_c, 0, 64, 64
1, 103280, Note_on_c, 0, 62, 55
1, 103284, Note_on_c, 0, 64, 49
1, 103284, Note_on_c, 0, 59, 35
1, 103284, Note_on_c, 0, 45, 45
1, 103292, Note_on_c, 0, 52, 46
1, 103368, Note_off_c, 0, 45, 64
1, 103388, Note_off_c, 0, 62, 64
1, 103388, Note_off_c, 0, 59, 64
1, 103396, Note_off_c, 0, 52, 64
1, 103412, Note_on_c, 0, 66, 54
1, 103460, Note_off_c, 0, 64, 64
1, 103556, Note_on_c, 0, 68, 50
1, 103568, Note_on_c, 0, 64, 50
1, 103572, Note_on_c, 0, 62, 50
1, 103572, Note_on_c, 0, 59, 36
1, 103572, Note_on_c, 0, 52, 50
1, 103576, Note_on_c, 0, 45, 50
1, 103604, Note_off_c, 0, 66, 64
1, 103640, Note_off_c, 0, 62, 64
1, 103656, Note_off_c, 0, 64, 64
1, 103664, Note_off_c, 0, 45, 64
1, 103668, Note_off_c, 0, 52, 64
1, 103676, Note_off_c, 0, 59, 64
1, 103848, Note_on_c, 0, 59, 37
1, 103860, Note_off_c, 0, 68, 64
1, 103864, Note_on_c, 0, 69, 50
1, 103864, Note_on_c, 0, 62, 50
1, 103872, Note_on_c, 0, 64, 52
1, 103872, Note_on_c, 0, 52, 52
1, 103880, Note_on_c, 0, 45, 49
1, 103944, Note_off_c, 0, 62, 64
1, 103948, Note_off_c, 0, 64, 64
1, 103952, Note_off_c, 0, 59, 64
1, 103956, Note_off_c, 0, 52, 64
1, 103956, Note_off_c, 0, 45, 64
1, 104136, Note_on_c, 0, 64, 46
1, 104140, Note_on_c, 0, 71, 55
1, 104144, Note_on_c, 0, 62, 50
1, 104148, Note_on_c, 0, 68, 39
1, 104148, Note_on_c, 0, 45, 45
1, 104156, Note_on_c, 0, 52, 46
1, 104156, Note_on_c, 0, 59, 39
1, 104176, Note_off_c, 0, 69, 64
1, 104224, Note_off_c, 0, 64, 64
1, 104232, Note_off_c, 0, 62, 64
1, 104232, Note_off_c, 0, 52, 64
1, 104236, Note_off_c, 0, 68, 64
1, 104236, Note_off_c, 0, 45, 64
1, 104260, Note_off_c, 0, 59, 64
1, 104296, Note_on_c, 0, 72, 54
1, 104360, Note_off_c, 0, 71, 64
1, 104436, Control_c, 0, 64, 0
1, 104452, Note_on_c, 0, 57, 40
1, 104452, Note_on_c, 0, 52, 57
1, 104452, Note_on_c, 0, 45, 54
1, 104452, Note_on_c, 0, 61, 67
1, 104464, Note_on_c, 0, 69, 52
1, 104480, Control_c, 0, 64, 127
1, 104484, Note_on_c, 0, 73, 63
1, 104516, Note_off_c, 0, 61, 64
1, 104524, Note_off_c, 0, 72, 64
1, 104548, Note_off_c, 0, 52, 64
1, 104552, Note_off_c, 0, 45, 64
1, 104556, Note_off_c, 0, 57, 64
1, 104572, Note_off_c, 0, 69, 64
1, 104756, Note_on_c, 0, 61, 71
1, 104768, Note_on_c, 0, 69, 59
1, 104784, Note_on_c, 0, 57, 41
1, 104784, Note_on_c, 0, 45, 48
1, 104784, Note_on_c, 0, 52, 50
1, 104816, Note_off_c, 0, 61, 64
1, 104820, Note_off_c, 0, 69, 64
1, 104868, Note_off_c, 0, 45, 64
1, 104876, Note_off_c, 0, 52, 64
1, 104888, Note_off_c, 0, 57, 64
1, 104892, Note_on_c, 0, 66, 70
1, 104900, Note_on_c, 0, 78, 70
1, 104924, Note_off_c, 0, 73, 64
1, 104976, Note_off_c, 0, 66, 64
1, 105064, Note_on_c, 0, 59, 48
1, 105064, Note_on_c, 0, 45, 39
1, 105068, Note_on_c, 0, 52, 57
1, 105072, Note_on_c, 0, 64, 57
1, 105076, Note_on_c, 0, 68, 62
1, 105076, Note_on_c, 0, 76, 65
1, 105088, Note_off_c, 0, 78, 64
1, 105164, Note_off_c, 0, 59, 64
1, 105172, Note_off_c, 0, 52, 64
1, 105180, Note_off_c, 0, 45, 64
1, 105188, Note_off_c, 0, 64, 64
1, 105212, Note_on_c, 0, 71, 62
1, 105224, Note_off_c, 0, 68, 64
1, 105252, Note_off_c, 0, 76, 64
1, 105348, Note_on_c, 0, 45, 52
1, 105348, Note_on_c, 0, 73, 62
1, 105360, Note_on_c, 0, 69, 62
1, 105360, Note_on_c, 0, 61, 72
1, 105364, Note_on_c, 0, 52, 54
1, 105372, Control_c, 0, 64, 0
1, 105384, Note_off_c, 0, 71, 64
1, 105436, Control_c, 0, 64, 127
1, 105440, Note_off_c, 0, 45, 64
1, 105472, Note_off_c, 0, 52, 64
1, 105500, Note_off_c, 0, 69, 64
1, 105536, Note_off_c, 0, 61, 64
1, 105652, Note_on_c, 0, 69, 67
1, 105660, Note_on_c, 0, 52, 57
1, 105660, Note_on_c, 0, 45, 40
1, 105660, Note_on_c, 0, 61, 62
1, 105748, Note_off_c, 0, 52, 64
1, 105760, Note_off_c, 0, 61, 64
1, 105764, Note_off_c, 0, 69, 64
1, 105772, Note_off_c, 0, 45, 64
1, 105800, Note_on_c, 0, 66, 71
1, 105804, Note_on_c, 0, 78, 67
1, 105844, Note_off_c, 0, 73, 64
1, 105884, Note_off_c, 0, 66, 64
1, 105928, Note_on_c, 0, 62, 66
1, 105932, Note_on_c, 0, 64, 54
1, 105940, Note_on_c, 0, 68, 54
1, 105944, Note_on_c, 0, 45, 41
1, 105960, Note_on_c, 0, 76, 48
1, 105964, Note_on_c, 0, 59, 32
1, 105976, Note_on_c, 0, 52, 20
1, 105996, Note_off_c, 0, 78, 64
1, 106064, Note_off_c, 0, 59, 64
1, 106100, Note_off_c, 0, 52, 64
1, 106112, Note_on_c, 0, 75, 50
1, 106120, Note_off_c, 0, 45, 64
1, 106148, Note_off_c, 0, 68, 64
1, 106176, Note_off_c, 0, 76, 64
1, 106184, Note_off_c, 0, 62, 64
1, 106188, Note_off_c, 0, 64, 64
1, 106260, Note_on_c, 0, 52, 42
1, 106268, Note_on_c, 0, 59, 33
1, 106268, Note_on_c, 0, 45, 31
1, 106272, Note_on_c, 0, 74, 50
1, 106276, Note_on_c, 0, 62, 54
1, 106280, Note_on_c, 0, 68, 48
1, 106280, Note_on_c, 0, 64, 32
1, 106300, Control_c, 0, 64, 0
1, 106332, Note_off_c, 0, 75, 64
1, 106340, Control_c, 0, 64, 127
1, 106388, Note_off_c, 0, 59, 64
1, 106392, Note_off_c, 0, 45, 64
1, 106396, Note_off_c, 0, 52, 64
1, 106404, Note_off_c, 0, 62, 64
1, 106412, Note_off_c, 0, 64, 64
1, 106484, Note_off_c, 0, 68, 64
1, 106588, Note_on_c, 0, 52, 35
1, 106596, Note_on_c, 0, 59, 27
1, 106596, Note_on_c, 0, 45, 23
1, 106596, Note_on_c, 0, 64, 35
1, 106684, Note_off_c, 0, 59, 64
1, 106688, Note_off_c, 0, 52, 64
1, 106700, Note_off_c, 0, 45, 64
1, 106740, Note_on_c, 0, 72, 35
1, 106772, Note_off_c, 0, 74, 64
1, 106772, Note_off_c, 0, 64, 64
1, 106936, Note_on_c, 0, 61, 44
1, 106940, Note_on_c, 0, 69, 58
1, 106944, Note_on_c, 0, 73, 48
1, 106956, Note_on_c, 0, 52, 35
1, 106960, Note_off_c, 0, 72, 64
1, 106960, Note_on_c, 0, 45, 29
1, 106996, Control_c, 0, 64, 0
1, 107016, Control_c, 0, 64, 127
1, 107072, Note_off_c, 0, 52, 64
1, 107080, Note_off_c, 0, 45, 64
1, 107088, Note_on_c, 0, 71, 42
1, 107116, Note_off_c, 0, 73, 64
1, 107144, Note_off_c, 0, 69, 64
1, 107216, Note_off_c, 0, 61, 64
1, 107236, Note_on_c, 0, 69, 52
1, 107236, Note_on_c, 0, 52, 44
1, 107248, Note_on_c, 0, 45, 42
1, 107252, Control_c, 0, 64, 0
1, 107260, Note_on_c, 0, 61, 44
1, 107272, Note_off_c, 0, 71, 64
1, 107312, Control_c, 0, 64, 127
1, 107328, Note_off_c, 0, 52, 64
1, 107332, Note_off_c, 0, 45, 64
1, 107508, Note_off_c, 0, 61, 64
1, 107536, Note_on_c, 0, 52, 44
1, 107540, Note_on_c, 0, 66, 50
1, 107548, Note_on_c, 0, 61, 44
1, 107556, Note_off_c, 0, 69, 64
1, 107556, Note_on_c, 0, 45, 39
1, 107564, Control_c, 0, 64, 0
1, 107584, Control_c, 0, 64, 127
1, 107608, Note_off_c, 0, 45, 64
1, 107620, Note_off_c, 0, 52, 64
1, 107700, Note_on_c, 0, 68, 48
1, 107752, Note_off_c, 0, 66, 64
1, 107756, Note_on_c, 0, 66, 35
1, 107808, Note_off_c, 0, 61, 64
1, 107816, Control_c, 0, 64, 0
1, 107836, Note_off_c, 0, 68, 64
1, 107848, Note_on_c, 0, 64, 44
1, 107852, Note_on_c, 0, 62, 44
1, 107864, Note_on_c, 0, 52, 39
1, 107868, Note_on_c, 0, 45, 39
1, 107888, Control_c, 0, 64, 127
1, 107892, Note_off_c, 0, 66, 64
1, 107912, Note_off_c, 0, 62, 64
1, 107936, Note_off_c, 0, 52, 64
1, 107944, Note_off_c, 0, 45, 64
1, 107980, Note_on_c, 0, 62, 50
1, 108036, Note_off_c, 0, 62, 64
1, 108108, Note_on_c, 0, 62, 53
1, 108124, Note_on_c, 0, 52, 50
1, 108132, Note_on_c, 0, 45, 44
1, 108144, Control_c, 0, 64, 0
1, 108164, Control_c, 0, 64, 127
1, 108192, Note_off_c, 0, 45, 64
1, 108200, Note_off_c, 0, 52, 64
1, 108396, Note_on_c, 0, 61, 48
1, 108400, Control_c, 0, 64, 0
1, 108412, Note_on_c, 0, 52, 53
1, 108412, Note_on_c, 0, 45, 48
1, 108448, Control_c, 0, 64, 127
1, 108456, Note_off_c, 0, 62, 64
1, 108492, Note_off_c, 0, 52, 64
1, 108492, Note_off_c, 0, 45, 64
1, 108548, Note_on_c, 0, 59, 54
1, 108588, Note_off_c, 0, 61, 64
1, 108684, Note_on_c, 0, 73, 53
1, 108684, Note_on_c, 0, 45, 37
1, 108692, Note_on_c, 0, 61, 53
1, 108692, Note_on_c, 0, 52, 22
1, 108700, Control_c, 0, 64, 0
1, 108720, Note_off_c, 0, 64, 64
1, 108728, Control_c, 0, 64, 127
1, 108732, Note_off_c, 0, 59, 64
1, 108784, Note_off_c, 0, 52, 64
1, 108796, Note_off_c, 0, 45, 64
1, 108812, Note_on_c, 0, 71, 39
1, 108844, Note_off_c, 0, 73, 64
1, 108944, Note_off_c, 0, 61, 64
1, 108968, Note_on_c, 0, 52, 44
1, 108976, Note_on_c, 0, 45, 42
1, 108980, Note_on_c, 0, 69, 50
1, 108996, Note_on_c, 0, 61, 50
1, 109004, Note_off_c, 0, 71, 64
1, 109012, Control_c, 0, 64, 0
1, 109036, Control_c, 0, 64, 127
1, 109060, Note_off_c, 0, 52, 64
1, 109064, Note_off_c, 0, 45, 64
1, 109252, Note_off_c, 0, 61, 64
1, 109264, Note_on_c, 0, 66, 53
1, 109264, Note_on_c, 0, 61, 57
1, 109276, Note_on_c, 0, 52, 45
1, 109284, Note_on_c, 0, 45, 44
1, 109292, Note_off_c, 0, 69, 64
1, 109344, Note_off_c, 0, 52, 64
1, 109356, Note_off_c, 0, 45, 64
1, 109416, Note_on_c, 0, 68, 53
1, 109440, Note_off_c, 0, 66, 64
1, 109476, Note_off_c, 0, 61, 64
1, 109488, Note_on_c, 0, 66, 50
1, 109528, Note_off_c, 0, 68, 64
1, 109552, Note_on_c, 0, 64, 44
1, 109556, Note_on_c, 0, 62, 53
1, 109580, Note_off_c, 0, 66, 64
1, 109580, Note_on_c, 0, 45, 42
1, 109592, Note_on_c, 0, 52, 36
1, 109604, Note_off_c, 0, 62, 64
1, 109668, Note_off_c, 0, 52, 64
1, 109668, Note_on_c, 0, 62, 54
1, 109676, Note_off_c, 0, 45, 64
1, 109720, Note_off_c, 0, 62, 64
1, 109768, Note_on_c, 0, 62, 48
1, 109812, Note_off_c, 0, 62, 64
1, 109856, Note_on_c, 0, 62, 58
1, 109872, Note_on_c, 0, 52, 48
1, 109876, Note_on_c, 0, 45, 44
1, 109932, Note_off_c, 0, 45, 64
1, 109944, Note_off_c, 0, 52, 64
1, 110140, Control_c, 0, 64, 0
1, 110148, Note_on_c, 0, 61, 50
1, 110156, Note_on_c, 0, 52, 44
1, 110156, Note_on_c, 0, 45, 42
1, 110180, Note_off_c, 0, 62, 64
1, 110184, Control_c, 0, 64, 127
1, 110240, Note_off_c, 0, 52, 64
1, 110244, Note_off_c, 0, 45, 64
1, 110272, Note_on_c, 0, 59, 54
1, 110300, Note_off_c, 0, 61, 64
1, 110384, Note_off_c, 0, 64, 64
1, 110420, Note_on_c, 0, 64, 40
1, 110420, Note_on_c, 0, 62, 44
1, 110420, Note_on_c, 0, 52, 31
1, 110432, Note_on_c, 0, 45, 35
1, 110444, Control_c, 0, 64, 0
1, 110460, Note_off_c, 0, 59, 64
1, 110464, Control_c, 0, 64, 127
1, 110508, Note_off_c, 0, 45, 64
1, 110516, Note_off_c, 0, 52, 64
1, 110540, Note_on_c, 0, 66, 36
1, 110588, Note_off_c, 0, 62, 64
1, 110596, Note_off_c, 0, 64, 64
1, 110680, Note_on_c, 0, 68, 40
1, 110692, Note_on_c, 0, 64, 42
1, 110692, Note_on_c, 0, 52, 37
1, 110700, Note_on_c, 0, 62, 42
1, 110700, Note_on_c, 0, 45, 37
1, 110756, Note_off_c, 0, 66, 64
1, 110780, Note_off_c, 0, 45, 64
1, 110784, Note_off_c, 0, 52, 64
1, 110784, Note_off_c, 0, 62, 64
1, 110788, Note_off_c, 0, 64, 64
1, 110972, Note_on_c, 0, 69, 44
1, 110972, Note_on_c, 0, 64, 44
1, 110972, Note_on_c, 0, 62, 44
1, 110988, Note_on_c, 0, 52, 40
1, 110992, Note_off_c, 0, 68, 64
1, 111000, Note_on_c, 0, 45, 36
1, 111056, Note_off_c, 0, 64, 64
1, 111060, Note_off_c, 0, 52, 64
1, 111060, Note_off_c, 0, 45, 64
1, 111068, Note_off_c, 0, 62, 64
1, 111264, Note_on_c, 0, 71, 50
1, 111268, Note_on_c, 0, 64, 22
1, 111272, Note_on_c, 0, 62, 44
1, 111272, Note_on_c, 0, 52, 42
1, 111272, Note_on_c, 0, 45, 44
1, 111300, Note_off_c, 0, 69, 64
1, 111336, Note_off_c, 0, 64, 64
1, 111348, Note_off_c, 0, 52, 64
1, 111348, Note_off_c, 0, 45, 64
1, 111368, Note_off_c, 0, 62, 64
1, 111400, Note_on_c, 0, 73, 67
1, 111448, Note_off_c, 0, 71, 64
1, 111536, Note_on_c, 0, 74, 57
1, 111536, Note_on_c, 0, 64, 62
1, 111540, Note_on_c, 0, 62, 58
1, 111548, Note_on_c, 0, 68, 59
1, 111552, Note_on_c, 0, 52, 50
1, 111552, Note_on_c, 0, 45, 48
1, 111572, Note_off_c, 0, 73, 64
1, 111620, Note_off_c, 0, 64, 64
1, 111620, Note_off_c, 0, 68, 64
1, 111620, Note_off_c, 0, 45, 64
1, 111628, Note_off_c, 0, 62, 64
1, 111628, Note_off_c, 0, 52, 64
1, 111828, Note_on_c, 0, 75, 61
1, 111828, Note_on_c, 0, 68, 67
1, 111836, Note_on_c, 0, 45, 50
1, 111848, Note_on_c, 0, 52, 53
1, 111848, Note_on_c, 0, 64, 67
1, 111856, Note_on_c, 0, 62, 45
1, 111872, Note_off_c, 0, 74, 64
1, 111916, Note_off_c, 0, 68, 64
1, 111920, Note_off_c, 0, 45, 64
1, 111920, Note_off_c, 0, 62, 64
1, 111928, Note_off_c, 0, 52, 64
1, 111932, Note_off_c, 0, 64, 64
1, 112112, Note_on_c, 0, 68, 53
1, 112124, Note_on_c, 0, 64, 57
1, 112132, Note_on_c, 0, 62, 50
1, 112132, Note_on_c, 0, 52, 57
1, 112140, Note_on_c, 0, 45, 53
1, 112144, Note_on_c, 0, 76, 53
1, 112176, Note_off_c, 0, 75, 64
1, 112196, Note_off_c, 0, 64, 64
1, 112212, Note_off_c, 0, 62, 64
1, 112212, Note_off_c, 0, 52, 64
1, 112220, Note_off_c, 0, 45, 64
1, 112252, Note_on_c, 0, 74, 57
1, 112308, Note_off_c, 0, 68, 64
1, 112308, Note_off_c, 0, 76, 64
1, 112420, Note_on_c, 0, 64, 62
1, 112420, Note_on_c, 0, 62, 54
1, 112424, Note_on_c, 0, 71, 62
1, 112428, Note_on_c, 0, 68, 61
1, 112428, Note_on_c, 0, 52, 50
1, 112428, Note_on_c, 0, 45, 50
1, 112468, Note_off_c, 0, 74, 64
1, 112548, Note_off_c, 0, 64, 64
1, 112556, Note_off_c, 0, 52, 64
1, 112560, Note_off_c, 0, 68, 64
1, 112560, Note_off_c, 0, 45, 64
1, 112576, Note_off_c, 0, 62, 64
1, 112724, Note_on_c, 0, 68, 54
1, 112724, Note_on_c, 0, 64, 54
1, 112724, Note_on_c, 0, 62, 48
1, 112732, Note_on_c, 0, 73, 50
1, 112740, Note_off_c, 0, 71, 64
1, 112748, Note_on_c, 0, 45, 44
1, 112756, Note_on_c, 0, 52, 44
1, 112832, Note_off_c, 0, 52, 64
1, 112852, Note_off_c, 0, 45, 64
1, 112868, Note_on_c, 0, 71, 39
1, 112892, Note_off_c, 0, 73, 64
1, 112912, Note_off_c, 0, 62, 64
1, 112928, Note_off_c, 0, 68, 64
1, 112928, Note_off_c, 0, 64, 64
1, 113040, Note_on_c, 0, 69, 54
1, 113048, Note_on_c, 0, 61, 63
1, 113056, Note_on_c, 0, 52, 50
1, 113056, Note_on_c, 0, 45, 48
1, 113068, Control_c, 0, 64, 0
1, 113080, Note_off_c, 0, 71, 64
1, 113092, Control_c, 0, 64, 127
1, 113124, Note_off_c, 0, 52, 64
1, 113152, Note_off_c, 0, 45, 64
1, 113196, Note_on_c, 0, 73, 52
1, 113200, Note_off_c, 0, 69, 64
1, 113264, Note_off_c, 0, 61, 64
1, 113352, Note_on_c, 0, 68, 61
1, 113360, Note_on_c, 0, 64, 58
1, 113360, Note_on_c, 0, 52, 61
1, 113364, Note_on_c, 0, 71, 61
1, 113364, Note_on_c, 0, 59, 62
1, 113364, Note_on_c, 0, 40, 58
1, 113396, Note_off_c, 0, 73, 64
1, 113432, Control_c, 0, 64, 0
1, 113808, Control_c, 0, 64, 127
1, 113900, Note_off_c, 0, 59, 64
1, 113960, Note_on_c, 0, 66, 44
1, 113960, Note_on_c, 0, 62, 57
1, 113992, Note_off_c, 0, 68, 64
1, 114000, Note_off_c, 0, 64, 64
1, 114236, Note_off_c, 0, 66, 64
1, 114236, Note_off_c, 0, 62, 64
1, 114240, Note_off_c, 0, 52, 64
1, 114244, Note_off_c, 0, 40, 64
1, 114244, Note_off_c, 0, 71, 64
1, 114292, Note_on_c, 0, 61, 35
1, 114304, Note_on_c, 0, 64, 39
1, 114316, Note_on_c, 0, 73, 44
1, 114316, Note_on_c, 0, 52, 37
1, 114316, Note_on_c, 0, 45, 35
1, 114336, Control_c, 0, 64, 0
1, 114388, Control_c, 0, 64, 127
1, 114420, Note_off_c, 0, 52, 64
1, 114444, Note_off_c, 0, 45, 64
1, 114456, Note_on_c, 0, 71, 44
1, 114468, Note_off_c, 0, 64, 64
1, 114468, Note_off_c, 0, 73, 64
1, 114604, Note_off_c, 0, 61, 64
1, 114628, Note_on_c, 0, 61, 58
1, 114628, Note_on_c, 0, 52, 42
1, 114632, Note_on_c, 0, 69, 44
1, 114632, Note_on_c, 0, 45, 42
1, 114644, Note_off_c, 0, 71, 64
1, 114660, Control_c, 0, 64, 0
1, 114696, Control_c, 0, 64, 127
1, 114724, Note_off_c, 0, 52, 64
1, 114732, Note_off_c, 0, 45, 64
1, 114892, Note_off_c, 0, 61, 64
1, 114924, Note_on_c, 0, 61, 44
1, 114932, Note_on_c, 0, 66, 44
1, 114932, Note_on_c, 0, 45, 35
1, 114940, Note_on_c, 0, 52, 31
1, 114976, Note_off_c, 0, 69, 64
1, 115020, Note_off_c, 0, 52, 64
1, 115024, Note_off_c, 0, 45, 64
1, 115116, Note_on_c, 0, 68, 35
1, 115132, Note_off_c, 0, 66, 64
1, 115148, Note_on_c, 0, 66, 39
1, 115164, Note_off_c, 0, 61, 64
1, 115220, Note_on_c, 0, 64, 44
1, 115236, Note_on_c, 0, 62, 48
1, 115244, Note_on_c, 0, 52, 42
1, 115244, Control_c, 0, 64, 0
1, 115260, Note_off_c, 0, 66, 64
1, 115260, Note_on_c, 0, 45, 35
1, 115276, Control_c, 0, 64, 127
1, 115292, Note_off_c, 0, 62, 64
1, 115324, Note_off_c, 0, 52, 64
1, 115328, Note_off_c, 0, 45, 64
1, 115364, Note_off_c, 0, 68, 64
1, 115364, Note_on_c, 0, 62, 48
1, 115412, Note_off_c, 0, 62, 64
1, 115508, Control_c, 0, 64, 0
1, 115516, Note_on_c, 0, 52, 44
1, 115516, Note_on_c, 0, 45, 44
1, 115528, Note_on_c, 0, 62, 53
1, 115568, Control_c, 0, 64, 127
1, 115588, Note_off_c, 0, 52, 64
1, 115596, Note_off_c, 0, 45, 64
1, 115796, Note_on_c, 0, 61, 50
1, 115800, Note_on_c, 0, 45, 44
1, 115804, Note_on_c, 0, 52, 50
1, 115804, Control_c, 0, 64, 0
1, 115848, Control_c, 0, 64, 127
1, 115868, Note_off_c, 0, 62, 64
1, 115872, Note_off_c, 0, 45, 64
1, 115880, Note_off_c, 0, 52, 64
1, 115940, Note_on_c, 0, 59, 57
1, 115988, Note_off_c, 0, 61, 64
1, 116092, Note_on_c, 0, 52, 42
1, 116092, Note_on_c, 0, 45, 44
1, 116092, Control_c, 0, 64, 0
1, 116104, Note_on_c, 0, 73, 54
1, 116104, Note_on_c, 0, 61, 54
1, 116120, Control_c, 0, 64, 127
1, 116160, Note_off_c, 0, 59, 64
1, 116184, Note_off_c, 0, 64, 64
1, 116188, Note_off_c, 0, 52, 64
1, 116188, Note_off_c, 0, 45, 64
1, 116220, Note_on_c, 0, 71, 48
1, 116264, Note_off_c, 0, 73, 64
1, 116368, Note_off_c, 0, 61, 64
1, 116372, Note_on_c, 0, 52, 44
1, 116380, Note_on_c, 0, 69, 44
1, 116380, Note_on_c, 0, 45, 44
1, 116384, Control_c, 0, 64, 0
1, 116396, Note_on_c, 0, 61, 57
1, 116428, Control_c, 0, 64, 127
1, 116440, Note_off_c, 0, 71, 64
1, 116460, Note_off_c, 0, 52, 64
1, 116476, Note_off_c, 0, 45, 64
1, 116644, Note_off_c, 0, 61, 64
1, 116652, Note_on_c, 0, 66, 50
1, 116652, Note_on_c, 0, 61, 53
1, 116668, Note_on_c, 0, 52, 44
1, 116668, Note_on_c, 0, 45, 44
1, 116684, Note_off_c, 0, 69, 64
1, 116740, Note_off_c, 0, 52, 64
1, 116752, Note_off_c, 0, 45, 64
1, 116836, Note_on_c, 0, 68, 44
1, 116852, Note_off_c, 0, 66, 64
1, 116864, Note_on_c, 0, 66, 35
1, 116932, Note_off_c, 0, 61, 64
1, 116932, Note_on_c, 0, 64, 50
1, 116956, Note_on_c, 0, 62, 52
1, 116964, Control_c, 0, 64, 0
1, 116972, Note_off_c, 0, 68, 64
1, 116980, Note_off_c, 0, 66, 64
1, 116980, Note_on_c, 0, 52, 44
1, 116988, Note_on_c, 0, 45, 44
1, 116996, Control_c, 0, 64, 127
1, 117012, Note_off_c, 0, 62, 64
1, 117068, Note_off_c, 0, 52, 64
1, 117068, Note_off_c, 0, 45, 64
1, 117068, Note_on_c, 0, 62, 54
1, 117120, Note_off_c, 0, 62, 64
1, 117152, Note_on_c, 0, 62, 54
1, 117208, Note_off_c, 0, 62, 64
1, 117252, Note_on_c, 0, 62, 57
1, 117260, Note_on_c, 0, 52, 44
1, 117264, Note_on_c, 0, 45, 44
1, 117340, Note_off_c, 0, 52, 64
1, 117344, Note_off_c, 0, 45, 64
1, 117528, Control_c, 0, 64, 0
1, 117552, Note_on_c, 0, 61, 48
1, 117552, Note_on_c, 0, 52, 39
1, 117552, Note_on_c, 0, 45, 42
1, 117572, Control_c, 0, 64, 127
1, 117596, Note_off_c, 0, 62, 64
1, 117640, Note_off_c, 0, 45, 64
1, 117648, Note_off_c, 0, 52, 64
1, 117676, Note_on_c, 0, 59, 50
1, 117692, Note_off_c, 0, 61, 64
1, 117812, Note_off_c, 0, 64, 64
1, 117820, Note_on_c, 0, 64, 50
1, 117824, Note_on_c, 0, 62, 53
1, 117824, Note_on_c, 0, 52, 48
1, 117840, Note_on_c, 0, 45, 40
1, 117860, Note_off_c, 0, 59, 64
1, 117920, Note_off_c, 0, 52, 64
1, 117936, Note_off_c, 0, 62, 64
1, 117956, Note_off_c, 0, 45, 64
1, 117956, Note_on_c, 0, 66, 37
1, 118000, Note_off_c, 0, 64, 64
1, 118088, Note_on_c, 0, 68, 37
1, 118100, Note_on_c, 0, 64, 42
1, 118100, Note_on_c, 0, 62, 37
1, 118100, Note_on_c, 0, 52, 35
1, 118108, Note_on_c, 0, 59, 33
1, 118112, Note_on_c, 0, 45, 40
1, 118156, Note_off_c, 0, 66, 64
1, 118156, Note_off_c, 0, 62, 64
1, 118176, Note_off_c, 0, 64, 64
1, 118188, Note_off_c, 0, 59, 64
1, 118192, Note_off_c, 0, 45, 64
1, 118196, Note_off_c, 0, 52, 64
1, 118392, Note_on_c, 0, 69, 40
1, 118392, Note_on_c, 0, 64, 39
1, 118404, Note_on_c, 0, 62, 39
1, 118408, Note_on_c, 0, 52, 39
1, 118408, Note_on_c, 0, 45, 41
1, 118416, Note_on_c, 0, 59, 29
1, 118436, Note_off_c, 0, 68, 64
1, 118472, Note_off_c, 0, 45, 64
1, 118476, Note_off_c, 0, 64, 64
1, 118476, Note_off_c, 0, 62, 64
1, 118484, Note_off_c, 0, 52, 64
1, 118484, Note_off_c, 0, 59, 64
1, 118680, Note_on_c, 0, 62, 41
1, 118680, Note_on_c, 0, 45, 48
1, 118684, Note_on_c, 0, 68, 39
1, 118684, Note_on_c, 0, 64, 39
1, 118684, Note_on_c, 0, 52, 44
1, 118684, Note_on_c, 0, 71, 52
1, 118696, Note_on_c, 0, 59, 44
1, 118720, Note_off_c, 0, 69, 64
1, 118752, Note_off_c, 0, 59, 64
1, 118760, Note_off_c, 0, 45, 64
1, 118760, Note_off_c, 0, 52, 64
1, 118776, Note_off_c, 0, 62, 64
1, 118792, Note_off_c, 0, 64, 64
1, 118804, Note_off_c, 0, 68, 64
1, 118816, Note_on_c, 0, 73, 61
1, 118840, Note_off_c, 0, 71, 64
1, 118948, Note_on_c, 0, 68, 54
1, 118948, Note_on_c, 0, 45, 52
1, 118956, Note_on_c, 0, 74, 54
1, 118960, Note_on_c, 0, 64, 58
1, 118960, Note_on_c, 0, 62, 57
1, 118960, Note_on_c, 0, 59, 46
1, 118960, Note_on_c, 0, 52, 49
1, 119004, Note_off_c, 0, 73, 64
1, 119016, Note_off_c, 0, 62, 64
1, 119020, Note_off_c, 0, 68, 64
1, 119028, Note_off_c, 0, 59, 64
1, 119036, Note_off_c, 0, 45, 64
1, 119044, Note_off_c, 0, 64, 64
1, 119044, Note_off_c, 0, 52, 64
1, 119260, Note_on_c, 0, 76, 57
1, 119260, Note_on_c, 0, 68, 57
1, 119260, Note_on_c, 0, 64, 63
1, 119272, Note_on_c, 0, 62, 50
1, 119280, Note_on_c, 0, 59, 55
1, 119280, Note_on_c, 0, 52, 53
1, 119288, Note_on_c, 0, 45, 54
1, 119304, Note_off_c, 0, 74, 64
1, 119332, Note_off_c, 0, 68, 64
1, 119340, Note_off_c, 0, 45, 64
1, 119344, Note_off_c, 0, 64, 64
1, 119356, Note_off_c, 0, 59, 64
1, 119356, Note_off_c, 0, 52, 64
1, 119360, Note_off_c, 0, 62, 64
1, 119560, Control_c, 0, 64, 0
1, 119584, Note_on_c, 0, 68, 58
1, 119588, Note_on_c, 0, 62, 68
1, 119588, Note_on_c, 0, 77, 62
1, 119600, Note_on_c, 0, 59, 62
1, 119600, Note_on_c, 0, 52, 63
1, 119600, Note_on_c, 0, 45, 65
1, 119616, Note_off_c, 0, 76, 64
1, 119632, Note_off_c, 0, 68, 64
1, 119636, Control_c, 0, 64, 127
1, 119648, Note_off_c, 0, 45, 64
1, 119656, Note_off_c, 0, 52, 64
1, 119668, Note_off_c, 0, 59, 64
1, 119672, Note_off_c, 0, 62, 64
1, 119828, Note_off_c, 0, 77, 64
1, 119876, Note_on_c, 0, 76, 45
1, 119876, Note_on_c, 0, 64, 63
1, 119992, Note_on_c, 0, 67, 46
1, 120000, Note_off_c, 0, 76, 64
1, 120036, Note_on_c, 0, 79, 65
1, 120052, Note_off_c, 0, 64, 64
1, 120060, Note_on_c, 0, 77, 72
1, 120068, Note_on_c, 0, 65, 65
1, 120092, Note_off_c, 0, 67, 64
1, 120104, Note_off_c, 0, 79, 64
1, 120144, Control_c, 0, 64, 0
1, 120196, Control_c, 0, 64, 127
1, 120736, Note_on_c, 0, 76, 62
1, 120740, Note_on_c, 0, 64, 58
1, 120772, Note_off_c, 0, 77, 64
1, 120804, Note_off_c, 0, 65, 64
1, 120900, Note_off_c, 0, 76, 64
1, 120900, Note_on_c, 0, 67, 59
1, 120916, Note_on_c, 0, 79, 68
1, 120924, Note_off_c, 0, 64, 64
1, 120924, Note_on_c, 0, 77, 71
1, 120952, Note_on_c, 0, 65, 58
1, 120988, Note_off_c, 0, 67, 64
1, 120992, Note_off_c, 0, 79, 64
1, 121028, Control_c, 0, 64, 0
1, 121068, Control_c, 0, 64, 127
1, 121448, Note_on_c, 0, 76, 70
1, 121452, Note_on_c, 0, 64, 63
1, 121468, Note_off_c, 0, 77, 64
1, 121488, Note_off_c, 0, 65, 64
1, 121580, Note_on_c, 0, 77, 78
1, 121588, Note_on_c, 0, 65, 76
1, 121612, Note_off_c, 0, 64, 64
1, 121620, Note_off_c, 0, 76, 64
1, 121628, Control_c, 0, 64, 0
1, 121728, Control_c, 0, 64, 127
1, 122964, Note_on_c, 0, 71, 42
1, 123060, Note_off_c, 0, 77, 64
1, 123300, Note_on_c, 0, 62, 20
1, 123312, Note_on_c, 0, 57, 16
1, 123760, Note_on_c, 0, 72, 35
1, 123804, Note_off_c, 0, 62, 64
1, 123820, Note_off_c, 0, 57, 64
1, 123844, Note_off_c, 0, 71, 64
1, 123848, Note_on_c, 0, 74, 44
1, 123868, Note_on_c, 0, 57, 27
1, 123876, Note_on_c, 0, 62, 20
1, 123892, Tempo, 500000
1, 123892, Note_off_c, 0, 72, 64
1, 124376, Note_off_c, 0, 57, 64
1, 124380, Tempo, 500000
1, 124380, Note_off_c, 0, 62, 64
1, 124404, Note_on_c, 0, 57, 16
1, 124420, Note_on_c, 0, 69, 44
1, 124420, Note_on_c, 0, 62, 27
1, 124776, Note_off_c, 0, 74, 64
1, 124856, Note_off_c, 0, 69, 64
1, 124900, Note_off_c, 0, 57, 64
1, 124912, Note_off_c, 0, 62, 64
1, 124980, Note_on_c, 0, 60, 27
1, 124980, Note_on_c, 0, 57, 13
1, 125008, Note_on_c, 0, 69, 44
1, 125108, Note_on_c, 0, 72, 52
1, 125152, Control_c, 0, 64, 0
1, 125180, Note_off_c, 0, 69, 64
1, 125188, Control_c, 0, 64, 127
1, 125364, Note_off_c, 0, 60, 64
1, 125364, Note_off_c, 0, 57, 64
1, 125424, Tempo, 500000
1, 125520, Note_on_c, 0, 60, 27
1, 125520, Note_on_c, 0, 57, 27
1, 125904, Note_off_c, 0, 60, 64
1, 125904, Note_off_c, 0, 57, 64
1, 125972, Note_on_c, 0, 57, 16
1, 125984, Note_on_c, 0, 60, 36
1, 126028, Note_on_c, 0, 71, 42
1, 126068, Note_off_c, 0, 72, 64
1, 126228, Note_on_c, 0, 72, 37
1, 126356, Note_off_c, 0, 57, 64
1, 126368, Note_off_c, 0, 60, 64
1, 126380, Note_off_c, 0, 71, 64
1, 126396, Note_off_c, 0, 65, 64
1, 126404, Note_on_c, 0, 60, 27
1, 126408, Note_on_c, 0, 55, 36
1, 126440, Note_on_c, 0, 65, 35
1, 126504, Note_on_c, 0, 74, 37
1, 126524, Note_off_c, 0, 72, 64
1, 126556, Note_on_c, 0, 76, 44
1, 126580, Note_off_c, 0, 74, 64
1, 126636, Note_on_c, 0, 74, 48
1, 126664, Note_off_c, 0, 76, 64
1, 126804, Note_on_c, 0, 73, 35
1, 126852, Note_off_c, 0, 74, 64
1, 126984, Note_off_c, 0, 60, 64
1, 126992, Note_off_c, 0, 55, 64
1, 126996, Note_on_c, 0, 74, 45
1, 127024, Note_off_c, 0, 73, 64
1, 127028, Note_on_c, 0, 59, 15
1, 127044, Note_on_c, 0, 55, 1
1, 127144, Note_on_c, 0, 76, 53
1, 127192, Note_off_c, 0, 74, 64
1, 127264, Note_on_c, 0, 77, 50
1, 127296, Note_off_c, 0, 76, 64
1, 127380, Note_off_c, 0, 59, 64
1, 127396, Note_off_c, 0, 55, 64
1, 127404, Note_on_c, 0, 79, 45
1, 127424, Note_on_c, 0, 59, 33
1, 127424, Note_on_c, 0, 55, 27
1, 127448, Note_off_c, 0, 77, 64
1, 127476, Control_c, 0, 64, 0
1, 127504, Control_c, 0, 64, 127
1, 127556, Note_off_c, 0, 79, 64
1, 127644, Note_off_c, 0, 65, 64
1, 127800, Note_on_c, 0, 74, 44
1, 127828, Note_off_c, 0, 55, 64
1, 127828, Note_off_c, 0, 59, 64
1, 127880, Note_on_c, 0, 64, 16
1, 127900, Note_on_c, 0, 76, 48
1, 127912, Note_on_c, 0, 59, 27
1, 127912, Note_on_c, 0, 55, 16
1, 127932, Note_off_c, 0, 74, 64
1, 127956, Control_c, 0, 64, 0
1, 128004, Control_c, 0, 64, 127
1, 128264, Note_off_c, 0, 64, 64
1, 128296, Note_off_c, 0, 59, 64
1, 128296, Note_off_c, 0, 55, 64
1, 128308, Note_on_c, 0, 64, 27
1, 128320, Note_on_c, 0, 59, 27
1, 128320, Note_on_c, 0, 55, 20
1, 128692, Note_off_c, 0, 64, 64
1, 128704, Note_off_c, 0, 59, 64
1, 128704, Note_off_c, 0, 55, 64
1, 128708, Note_on_c, 0, 64, 16
1, 128720, Note_on_c, 0, 59, 27
1, 128724, Note_on_c, 0, 55, 16
1, 129092, Note_off_c, 0, 64, 64
1, 129092, Note_on_c, 0, 54, 14
1, 129104, Note_off_c, 0, 59, 64
1, 129104, Note_on_c, 0, 58, 22
1, 129108, Note_off_c, 0, 55, 64
1, 129116, Note_on_c, 0, 64, 16
1, 129164, Note_on_c, 0, 78, 52
1, 129188, Control_c, 0, 64, 0
1, 129204, Note_off_c, 0, 76, 64
1, 129228, Control_c, 0, 64, 127
1, 129476, Note_off_c, 0, 54, 64
1, 129488, Note_off_c, 0, 58, 64
1, 129500, Note_off_c, 0, 64, 64
1, 129544, Note_on_c, 0, 63, 14
1, 129556, Note_on_c, 0, 58, 20
1, 129568, Note_on_c, 0, 54, 14
1, 129588, Note_on_c, 0, 75, 36
1, 129640, Note_off_c, 0, 78, 64
1, 129928, Note_off_c, 0, 63, 64
1, 129940, Note_off_c, 0, 58, 64
1, 129952, Note_off_c, 0, 54, 64
1, 129956, Note_on_c, 0, 54, 16
1, 129964, Note_on_c, 0, 58, 16
1, 129972, Note_on_c, 0, 63, 16
1, 130340, Note_off_c, 0, 54, 64
1, 130348, Note_off_c, 0, 58, 64
1, 130356, Note_off_c, 0, 63, 64
1, 130368, Note_on_c, 0, 53, 22
1, 130380, Note_on_c, 0, 63, 16
1, 130380, Note_on_c, 0, 57, 22
1, 130412, Note_on_c, 0, 77, 45
1, 130428, Note_off_c, 0, 75, 64
1, 130476, Control_c, 0, 64, 0
1, 130512, Control_c, 0, 64, 127
1, 130752, Note_off_c, 0, 53, 64
1, 130764, Note_off_c, 0, 57, 64
1, 130764, Note_off_c, 0, 63, 64
1, 130804, Note_on_c, 0, 74, 35
1, 130812, Note_on_c, 0, 62, 26
1, 130812, Note_on_c, 0, 57, 22
1, 130824, Note_on_c, 0, 53, 14
1, 130860, Note_off_c, 0, 77, 64
1, 131164, Note_off_c, 0, 62, 64
1, 131164, Note_off_c, 0, 57, 64
1, 131176, Note_off_c, 0, 53, 64
1, 131188, Note_on_c, 0, 57, 22
1, 131200, Note_on_c, 0, 62, 22
1, 131204, Note_on_c, 0, 53, 14
1, 131596, Note_off_c, 0, 57, 64
1, 131604, Note_off_c, 0, 62, 64
1, 131604, Note_on_c, 0, 52, 22
1, 131608, Note_off_c, 0, 53, 64
1, 131608, Note_on_c, 0, 56, 14
1, 131636, Note_on_c, 0, 62, 14
1, 131724, Note_on_c, 0, 76, 48
1, 131744, Note_off_c, 0, 74, 64
1, 131800, Control_c, 0, 64, 0
1, 131820, Control_c, 0, 64, 127
1, 131828, Note_on_c, 0, 71, 48
1, 131852, Note_off_c, 0, 76, 64
1, 132024, Note_off_c, 0, 52, 64
1, 132032, Note_off_c, 0, 56, 64
1, 132056, Note_off_c, 0, 62, 64
1, 132104, Note_on_c, 0, 56, 29
1, 132116, Note_on_c, 0, 62, 22
1, 132128, Note_on_c, 0, 52, 22
1, 132424, Note_off_c, 0, 56, 64
1, 132436, Note_off_c, 0, 62, 64
1, 132448, Note_off_c, 0, 52, 64
1, 132452, Note_on_c, 0, 52, 29
1, 132460, Note_on_c, 0, 56, 31
1, 132468, Note_on_c, 0, 62, 29
1, 132692, Note_off_c, 0, 71, 64
1, 132820, Note_off_c, 0, 52, 64
1, 132828, Note_off_c, 0, 56, 64
1, 132836, Note_off_c, 0, 62, 64
1, 132848, Note_on_c, 0, 62, 14
1, 132848, Note_on_c, 0, 52, 22
1, 132856, Note_on_c, 0, 57, 42
1, 132964, Note_on_c, 0, 72, 50
1, 133028, Control_c, 0, 64, 0
1, 133040, Note_on_c, 0, 68, 53
1, 133072, Note_off_c, 0, 72, 64
1, 133088, Control_c, 0, 64, 127
1, 133332, Note_off_c, 0, 62, 64
1, 133332, Note_off_c, 0, 52, 64
1, 133340, Note_off_c, 0, 57, 64
1, 133388, Note_on_c, 0, 62, 20
1, 133388, Note_on_c, 0, 59, 31
1, 133396, Note_on_c, 0, 52, 22
1, 133460, Control_c, 0, 64, 0
1, 133480, Tempo, 500000
1, 133480, Control_c, 0, 64, 127
1, 133752, Note_off_c, 0, 59, 64
1, 133752, Note_off_c, 0, 62, 64
1, 133760, Note_off_c, 0, 52, 64
1, 133820, Note_on_c, 0, 62, 28
1, 133828, Note_on_c, 0, 59, 42
1, 133844, Note_on_c, 0, 52, 14
1, 133976, Note_off_c, 0, 68, 64
1, 134248, Note_on_c, 0, 71, 48
1, 134320, Note_off_c, 0, 71, 64
1, 134376, Note_off_c, 0, 62, 64
1, 134384, Note_off_c, 0, 59, 64
1, 134400, Note_off_c, 0, 52, 64
1, 134412, Note_on_c, 0, 45, 50
1, 134416, Note_on_c, 0, 71, 44
1, 134484, Control_c, 0, 64, 0
1, 134504, Control_c, 0, 64, 127
1, 134656, Note_on_c, 0, 72, 48
1, 134688, Note_off_c, 0, 71, 64
1, 134824, Note_on_c, 0, 71, 39
1, 134876, Note_off_c, 0, 72, 64
1, 134972, Note_on_c, 0, 57, 16
1, 134988, Note_on_c, 0, 65, 16
1, 134988, Note_on_c, 0, 62, 14
1, 134996, Note_on_c, 0, 69, 44
1, 135044, Note_off_c, 0, 71, 64
1, 135080, Note_off_c, 0, 45, 64
1, 135176, Note_on_c, 0, 71, 35
1, 135224, Note_off_c, 0, 69, 64
1, 135320, Note_on_c, 0, 72, 44
1, 135360, Note_off_c, 0, 71, 64
1, 135452, Note_off_c, 0, 72, 64
1, 135468, Note_on_c, 0, 72, 36
1, 135480, Note_off_c, 0, 57, 64
1, 135484, Note_off_c, 0, 65, 64
1, 135496, Note_off_c, 0, 62, 64
1, 135500, Note_on_c, 0, 57, 22
1, 135512, Note_on_c, 0, 65, 22
1, 135516, Note_on_c, 0, 62, 16
1, 135524, Note_on_c, 0, 76, 50
1, 135548, Note_off_c, 0, 72, 64
1, 135704, Note_on_c, 0, 74, 42
1, 135732, Note_off_c, 0, 76, 64
1, 135936, Note_off_c, 0, 74, 64
1, 135960, Note_on_c, 0, 69, 48
1, 136020, Note_off_c, 0, 69, 64
1, 136056, Note_on_c, 0, 69, 50
1, 136084, Note_off_c, 0, 57, 64
1, 136092, Note_off_c, 0, 65, 64
1, 136096, Note_off_c, 0, 62, 64
1, 136144, Note_on_c, 0, 72, 50
1, 136156, Note_on_c, 0, 65, 28
1, 136168, Note_on_c, 0, 60, 36
1, 136168, Note_on_c, 0, 57, 29
1, 136176, Note_off_c, 0, 69, 64
1, 136212, Control_c, 0, 64, 0
1, 136264, Control_c, 0, 64, 127
1, 136540, Note_off_c, 0, 65, 64
1, 136552, Note_off_c, 0, 60, 64
1, 136552, Note_off_c, 0, 57, 64
1, 136568, Note_on_c, 0, 57, 22
1, 136572, Note_on_c, 0, 65, 26
1, 136572, Note_on_c, 0, 60, 22
1, 136716, Note_off_c, 0, 72, 64
1, 136952, Note_off_c, 0, 57, 64
1, 136956, Note_off_c, 0, 60, 64
1, 136956, Note_off_c, 0, 65, 64
1, 136968, Note_on_c, 0, 56, 29
1, 136984, Note_on_c, 0, 65, 22
1, 136996, Note_on_c, 0, 60, 22
1, 137004, Note_on_c, 0, 71, 40
1, 137160, Note_on_c, 0, 72, 40
1, 137212, Note_off_c, 0, 71, 64
1, 137292, Note_on_c, 0, 73, 44
1, 137344, Note_off_c, 0, 72, 64
1, 137352, Note_off_c, 0, 56, 64
1, 137368, Note_off_c, 0, 65, 64
1, 137380, Note_off_c, 0, 60, 64
1, 137444, Note_on_c, 0, 60, 22
1, 137456, Note_on_c, 0, 65, 22
1, 137456, Note_on_c, 0, 55, 22
1, 137460, Note_on_c, 0, 74, 42
1, 137488, Note_off_c, 0, 73, 64
1, 137604, Note_on_c, 0, 84, 45
1, 137668, Note_off_c, 0, 74, 64
1, 137728, Note_on_c, 0, 83, 42
1, 137764, Note_off_c, 0, 84, 64
1, 137812, Note_off_c, 0, 60, 64
1, 137824, Note_off_c, 0, 65, 64
1, 137824, Note_off_c, 0, 55, 64
1, 137836, Note_on_c, 0, 55, 14
1, 137848, Note_on_c, 0, 65, 22
1, 137848, Note_on_c, 0, 59, 31
1, 137852, Note_on_c, 0, 72, 44
1, 137884, Note_off_c, 0, 83, 64
1, 137972, Note_on_c, 0, 71, 40
1, 138020, Note_off_c, 0, 72, 64
1, 138116, Note_on_c, 0, 81, 37
1, 138176, Note_off_c, 0, 71, 64
1, 138180, Note_off_c, 0, 55, 64
1, 138192, Note_off_c, 0, 65, 64
1, 138192, Note_off_c, 0, 59, 64
1, 138208, Note_on_c, 0, 65, 20
1, 138232, Note_on_c, 0, 59, 36
1, 138232, Note_on_c, 0, 55, 16
1, 138240, Note_on_c, 0, 79, 44
1, 138260, Note_off_c, 0, 81, 64
1, 138340, Note_on_c, 0, 69, 24
1, 138384, Note_off_c, 0, 79, 64
1, 138464, Note_on_c, 0, 67, 44
1, 138484, Note_off_c, 0, 69, 64
1, 138592, Note_off_c, 0, 65, 64
1, 138612, Note_on_c, 0, 76, 48
1, 138616, Note_off_c, 0, 55, 64
1, 138616, Note_off_c, 0, 59, 64
1, 138632, Note_on_c, 0, 59, 29
1, 138640, Note_off_c, 0, 67, 64
1, 138644, Note_on_c, 0, 55, 22
1, 138648, Note_on_c, 0, 64, 26
1, 138696, Control_c, 0, 64, 0
1, 138744, Control_c, 0, 64, 127
1, 139040, Note_off_c, 0, 59, 64
1, 139048, Note_off_c, 0, 55, 64
1, 139052, Note_off_c, 0, 64, 64
1, 139076, Note_on_c, 0, 55, 14
1, 139084, Note_on_c, 0, 64, 22
1, 139096, Note_on_c, 0, 59, 22
1, 139428, Note_off_c, 0, 55, 64
1, 139436, Note_off_c, 0, 64, 64
1, 139444, Note_on_c, 0, 64, 22
1, 139444, Note_on_c, 0, 55, 22
1, 139448, Note_off_c, 0, 59, 64
1, 139460, Note_on_c, 0, 59, 22
1, 139844, Note_on_c, 0, 54, 22
1, 139848, Note_off_c, 0, 55, 64
1, 139848, Note_off_c, 0, 64, 64
1, 139856, Note_on_c, 0, 58, 22
1, 139864, Note_off_c, 0, 59, 64
1, 139872, Note_on_c, 0, 64, 22
1, 140008, Note_off_c, 0, 76, 64
1, 140228, Note_off_c, 0, 54, 64
1, 140240, Note_off_c, 0, 58, 64
1, 140256, Note_off_c, 0, 64, 64
1, 140256, Note_on_c, 0, 58, 27
1, 140280, Note_on_c, 0, 63, 33
1, 140280, Note_on_c, 0, 54, 26
1, 140388, Note_on_c, 0, 78, 50
1, 140428, Control_c, 0, 64, 0
1, 140484, Note_on_c, 0, 75, 54
1, 140500, Note_off_c, 0, 78, 64
1, 140504, Control_c, 0, 64, 127
1, 140732, Note_off_c, 0, 58, 64
1, 140760, Note_off_c, 0, 63, 64
1, 140760, Note_off_c, 0, 54, 64
1, 140784, Note_on_c, 0, 58, 16
1, 140792, Note_on_c, 0, 54, 20
1, 140800, Note_on_c, 0, 63, 27
1, 141136, Note_off_c, 0, 75, 64
1, 141224, Note_off_c, 0, 58, 64
1, 141232, Note_off_c, 0, 54, 64
1, 141240, Note_off_c, 0, 63, 64
1, 141248, Note_on_c, 0, 53, 20
1, 141252, Tempo, 500000
1, 141252, Note_on_c, 0, 57, 16
1, 141272, Note_on_c, 0, 63, 16
1, 141328, Note_on_c, 0, 76, 35
1, 141404, Note_on_c, 0, 77, 36
1, 141440, Note_off_c, 0, 76, 64
1, 141464, Note_on_c, 0, 80, 26
1, 141488, Note_off_c, 0, 77, 64
1, 141536, Note_on_c, 0, 79, 33
1, 141556, Note_off_c, 0, 80, 64
1, 141628, Note_on_c, 0, 78, 36
1, 141640, Note_off_c, 0, 79, 64
1, 141692, Note_on_c, 0, 77, 36
1, 141720, Note_off_c, 0, 78, 64
1, 141752, Note_off_c, 0, 53, 64
1, 141756, Note_off_c, 0, 57, 64
1, 141772, Note_on_c, 0, 74, 42
1, 141780, Note_off_c, 0, 63, 64
1, 141784, Note_on_c, 0, 53, 13
1, 141792, Note_on_c, 0, 57, 16
1, 141796, Note_on_c, 0, 62, 16
1, 141804, Note_off_c, 0, 77, 64
1, 141816, Control_c, 0, 64, 0
1, 141872, Control_c, 0, 64, 127
1, 142168, Note_off_c, 0, 53, 64
1, 142176, Note_off_c, 0, 57, 64
1, 142180, Note_off_c, 0, 62, 64
1, 142228, Note_on_c, 0, 53, 11
1, 142236, Note_on_c, 0, 62, 11
1, 142236, Note_on_c, 0, 57, 11
1, 142248, Note_off_c, 0, 74, 64
1, 142696, Note_on_c, 0, 80, 62
1, 142800, Note_on_c, 0, 88, 63
1, 142804, Note_on_c, 0, 84, 67
1, 142808, Note_on_c, 0, 40, 54
1, 142824, Note_off_c, 0, 80, 64
1, 142868, Control_c, 0, 64, 0
1, 142892, Control_c, 0, 64, 127
1, 142896, Note_off_c, 0, 53, 64
1, 142904, Note_off_c, 0, 62, 64
1, 142908, Note_off_c, 0, 57, 64
1, 143244, Note_off_c, 0, 88, 64
1, 143256, Note_off_c, 0, 84, 64
1, 143288, Note_on_c, 0, 83, 54
1, 143300, Note_on_c, 0, 88, 58
1, 143404, Note_off_c, 0, 88, 64
1, 143412, Note_off_c, 0, 83, 64
1, 143420, Note_on_c, 0, 88, 50
1, 143420, Note_on_c, 0, 80, 58
1, 143428, Note_on_c, 0, 52, 33
1, 143440, Note_on_c, 0, 62, 22
1, 143440, Note_on_c, 0, 59, 24
1, 143468, Control_c, 0, 64, 0
1, 143476, Note_off_c, 0, 40, 64
1, 143520, Control_c, 0, 64, 127
1, 143592, Note_off_c, 0, 88, 64
1, 143628, Note_off_c, 0, 80, 64
1, 144012, Note_off_c, 0, 52, 64
1, 144020, Note_off_c, 0, 62, 64
1, 144020, Note_off_c, 0, 59, 64
1, 144036, Note_on_c, 0, 68, 52
1, 144052, Note_on_c, 0, 52, 13
1, 144064, Note_on_c, 0, 62, 15
1, 144064, Note_on_c, 0, 59, 1
1, 144544, Note_on_c, 0, 69, 33
1, 144560, Note_on_c, 0, 45, 28
1, 144592, Note_off_c, 0, 68, 64
1, 144608, Control_c, 0, 64, 0
1, 144636, Note_off_c, 0, 52, 64
1, 144644, Note_off_c, 0, 62, 64
1, 144648, Note_off_c, 0, 59, 64
1, 144660, Control_c, 0, 64, 127
1, 145016, Note_on_c, 0, 52, 22
1, 145020, Note_on_c, 0, 60, 14
1, 145080, Note_off_c, 0, 69, 64
1, 145400, Note_off_c, 0, 52, 64
1, 145404, Note_off_c, 0, 60, 64
1, 145424, Note_on_c, 0, 76, 50
1, 145424, Note_on_c, 0, 60, 22
1, 145432, Note_on_c, 0, 52, 33
1, 145668, Note_off_c, 0, 45, 64
1, 145812, Note_on_c, 0, 45, 37
1, 145864, Note_off_c, 0, 52, 64
1, 145884, Note_off_c, 0, 60, 64
1, 146144, Note_on_c, 0, 75, 48
1, 146176, Note_off_c, 0, 76, 64
1, 146212, Note_on_c, 0, 54, 22
1, 146216, Note_on_c, 0, 60, 22
1, 146236, Note_on_c, 0, 69, 45
1, 146252, Control_c, 0, 64, 0
1, 146284, Note_off_c, 0, 75, 64
1, 146308, Control_c, 0, 64, 127
1, 146364, Note_off_c, 0, 69, 64
1, 146596, Note_off_c, 0, 54, 64
1, 146600, Note_off_c, 0, 60, 64
1, 146620, Note_on_c, 0, 63, 48
1, 146628, Note_on_c, 0, 60, 31
1, 146628, Note_on_c, 0, 54, 24
1, 146932, Note_off_c, 0, 45, 64
1, 146972, Note_on_c, 0, 75, 45
1, 146988, Note_off_c, 0, 63, 64
1, 146988, Note_on_c, 0, 45, 33
1, 146996, Note_on_c, 0, 69, 37
1, 147012, Note_off_c, 0, 60, 64
1, 147012, Note_off_c, 0, 54, 64
1, 147024, Control_c, 0, 64, 0
1, 147084, Control_c, 0, 64, 127
1, 147276, Note_on_c, 0, 60, 29
1, 147304, Note_on_c, 0, 53, 39
1, 147660, Note_off_c, 0, 60, 64
1, 147680, Note_on_c, 0, 60, 29
1, 147688, Note_off_c, 0, 53, 64
1, 147712, Note_on_c, 0, 53, 22
1, 148008, Note_off_c, 0, 45, 64
1, 148056, Note_on_c, 0, 45, 22
1, 148064, Note_off_c, 0, 60, 64
1, 148076, Note_off_c, 0, 75, 64
1, 148088, Note_off_c, 0, 69, 64
1, 148096, Note_off_c, 0, 53, 64
1, 148316, Note_on_c, 0, 74, 45
1, 148392, Note_on_c, 0, 53, 28
1, 148392, Note_on_c, 0, 59, 22
1, 148408, Note_on_c, 0, 68, 48
1, 148444, Control_c, 0, 64, 0
1, 148468, Note_off_c, 0, 74, 64
1, 148500, Control_c, 0, 64, 127
1, 148776, Note_off_c, 0, 53, 64
1, 148776, Note_off_c, 0, 59, 64
1, 148792, Note_on_c, 0, 62, 42
1, 148796, Note_on_c, 0, 59, 29
1, 148796, Note_on_c, 0, 53, 29
1, 148828, Note_off_c, 0, 68, 64
1, 149120, Note_off_c, 0, 45, 64
1, 149180, Note_off_c, 0, 53, 64
1, 149180, Note_off_c, 0, 59, 64
1, 149180, Note_on_c, 0, 68, 40
1, 149188, Note_on_c, 0, 74, 40
1, 149204, Note_on_c, 0, 45, 40
1, 149236, Control_c, 0, 64, 0
1, 149260, Note_off_c, 0, 62, 64
1, 149296, Control_c, 0, 64, 127
1, 149548, Note_on_c, 0, 58, 28
1, 149548, Note_on_c, 0, 53, 31
1, 149868, Note_off_c, 0, 58, 64
1, 149868, Note_off_c, 0, 53, 64
1, 149916, Note_on_c, 0, 58, 24
1, 149924, Note_on_c, 0, 53, 24
1, 150240, Note_off_c, 0, 45, 64
1, 150256, Note_on_c, 0, 45, 37
1, 150292, Control_c, 0, 64, 0
1, 150300, Note_off_c, 0, 58, 64
1, 150308, Note_off_c, 0, 53, 64
1, 150328, Control_c, 0, 64, 127
1, 150368, Note_off_c, 0, 68, 64
1, 150380, Note_off_c, 0, 74, 64
1, 150524, Note_on_c, 0, 73, 44
1, 150580, Note_on_c, 0, 58, 22
1, 150584, Note_on_c, 0, 67, 45
1, 150596, Note_on_c, 0, 52, 26
1, 150628, Control_c, 0, 64, 0
1, 150652, Note_off_c, 0, 73, 64
1, 150684, Control_c, 0, 64, 127
1, 150964, Note_off_c, 0, 58, 64
1, 150980, Note_off_c, 0, 52, 64
1, 150980, Note_on_c, 0, 61, 36
1, 150988, Note_on_c, 0, 58, 22
1, 151004, Note_on_c, 0, 52, 22
1, 151028, Note_off_c, 0, 67, 64
1, 151276, Note_off_c, 0, 45, 64
1, 151364, Note_off_c, 0, 61, 64
1, 151372, Note_off_c, 0, 58, 64
1, 151376, Note_on_c, 0, 72, 50
1, 151384, Note_on_c, 0, 66, 33
1, 151384, Note_on_c, 0, 45, 37
1, 151388, Note_off_c, 0, 52, 64
1, 151456, Control_c, 0, 64, 0
1, 151504, Control_c, 0, 64, 127
1, 151720, Note_on_c, 0, 57, 22
1, 151732, Note_on_c, 0, 51, 28
1, 152040, Note_off_c, 0, 57, 64
1, 152052, Note_off_c, 0, 51, 64
1, 152076, Note_on_c, 0, 57, 22
1, 152080, Note_on_c, 0, 51, 42
1, 152180, Note_off_c, 0, 66, 64
1, 152196, Note_off_c, 0, 72, 64
1, 152196, Note_off_c, 0, 57, 64
1, 152196, Note_off_c, 0, 51, 64
1, 152364, Note_off_c, 0, 45, 64
1, 152448, Note_on_c, 0, 71, 39
1, 152456, Note_on_c, 0, 65, 37
1, 152464, Note_on_c, 0, 45, 40
1, 152604, Note_on_c, 0, 72, 50
1, 152652, Note_off_c, 0, 71, 64
1, 152708, Note_off_c, 0, 65, 64
1, 152796, Note_on_c, 0, 74, 52
1, 152800, Note_on_c, 0, 57, 28
1, 152812, Note_off_c, 0, 72, 64
1, 152812, Note_on_c, 0, 50, 29
1, 152820, Note_on_c, 0, 65, 45
1, 152992, Note_off_c, 0, 65, 64
1, 153184, Note_off_c, 0, 57, 64
1, 153196, Note_off_c, 0, 50, 64
1, 153232, Note_on_c, 0, 69, 48
1, 153232, Note_on_c, 0, 50, 37
1, 153244, Note_on_c, 0, 65, 45
1, 153248, Note_on_c, 0, 57, 33
1, 153288, Note_off_c, 0, 74, 64
1, 153296, Control_c, 0, 64, 0
1, 153332, Control_c, 0, 64, 127
1, 153464, Note_off_c, 0, 65, 64
1, 153668, Note_off_c, 0, 45, 64
1, 153716, Note_on_c, 0, 72, 48
1, 153716, Note_on_c, 0, 64, 33
1, 153732, Note_on_c, 0, 45, 36
1, 153764, Note_off_c, 0, 69, 64
1, 153772, Control_c, 0, 64, 0
1, 153780, Note_off_c, 0, 50, 64
1, 153796, Note_off_c, 0, 57, 64
1, 153876, Control_c, 0, 64, 127
1, 154172, Note_on_c, 0, 52, 28
1, 154180, Note_on_c, 0, 60, 14
1, 154540, Note_off_c, 0, 52, 64
1, 154548, Note_off_c, 0, 60, 64
1, 154556, Note_off_c, 0, 72, 64
1, 154572, Note_on_c, 0, 76, 32
1, 154588, Note_on_c, 0, 60, 23
1, 154588, Note_on_c, 0, 52, 28
1, 154620, Note_off_c, 0, 64, 64
1, 154632, Control_c, 0, 64, 0
1, 154652, Control_c, 0, 64, 127
1, 154812, Note_off_c, 0, 45, 64
1, 154948, Note_off_c, 0, 60, 64
1, 154960, Note_on_c, 0, 45, 20
1, 154964, Note_off_c, 0, 52, 64
1, 155204, Note_on_c, 0, 75, 29
1, 155260, Note_off_c, 0, 76, 64
1, 155300, Note_on_c, 0, 54, 29
1, 155300, Note_on_c, 0, 69, 31
1, 155304, Note_on_c, 0, 60, 29
1, 155348, Note_off_c, 0, 75, 64
1, 155388, Note_off_c, 0, 69, 64
1, 155584, Note_on_c, 0, 81, 42
1, 155684, Note_off_c, 0, 54, 64
1, 155688, Note_off_c, 0, 60, 64
1, 155700, Note_on_c, 0, 63, 36
1, 155700, Note_on_c, 0, 60, 23
1, 155712, Note_on_c, 0, 54, 16
1, 155792, Note_off_c, 0, 81, 64
1, 156012, Note_off_c, 0, 45, 64
1, 156084, Note_off_c, 0, 60, 64
1, 156096, Note_off_c, 0, 54, 64
1, 156100, Note_on_c, 0, 75, 31
1, 156116, Note_on_c, 0, 45, 20
1, 156124, Note_off_c, 0, 63, 64
1, 156124, Note_on_c, 0, 69, 23
1, 156128, Control_c, 0, 64, 0
1, 156196, Control_c, 0, 64, 127
1, 156464, Note_on_c, 0, 60, 29
1, 156476, Note_on_c, 0, 53, 26
1, 156500, Control_c, 0, 64, 0
1, 156520, Control_c, 0, 64, 127
1, 156784, Note_off_c, 0, 60, 64
1, 156796, Note_off_c, 0, 53, 64
1, 156812, Note_on_c, 0, 53, 29
1, 156816, Note_on_c, 0, 60, 23
1, 157096, Note_off_c, 0, 45, 64
1, 157164, Note_off_c, 0, 60, 64
1, 157164, Note_on_c, 0, 45, 20
1, 157212, Note_off_c, 0, 53, 64
1, 157244, Note_off_c, 0, 69, 64
1, 157268, Note_off_c, 0, 75, 64
1, 157420, Note_on_c, 0, 74, 32
1, 157500, Note_on_c, 0, 53, 16
1, 157500, Note_on_c, 0, 59, 16
1, 157516, Note_on_c, 0, 68, 31
1, 157552, Note_off_c, 0, 74, 64
1, 157608, Note_off_c, 0, 68, 64
1, 157768, Note_on_c, 0, 81, 39
1, 157884, Note_off_c, 0, 53, 64
1, 157884, Note_off_c, 0, 59, 64
1, 157900, Note_on_c, 0, 62, 20
1, 157916, Note_on_c, 0, 59, 23
1, 157940, Note_on_c, 0, 53, 15
1, 158020, Note_off_c, 0, 81, 64
1, 158204, Note_off_c, 0, 45, 64
1, 158244, Note_on_c, 0, 68, 29
1, 158252, Note_on_c, 0, 74, 29
1, 158268, Note_on_c, 0, 45, 27
1, 158288, Control_c, 0, 64, 0
1, 158300, Note_off_c, 0, 59, 64
1, 158308, Note_off_c, 0, 62, 64
1, 158324, Note_off_c, 0, 53, 64
1, 158364, Control_c, 0, 64, 127
1, 158572, Control_c, 0, 64, 0
1, 158580, Note_on_c, 0, 58, 37
1, 158600, Note_on_c, 0, 53, 23
1, 158628, Control_c, 0, 64, 127
1, 158900, Note_off_c, 0, 58, 64
1, 158920, Note_off_c, 0, 53, 64
1, 158928, Note_on_c, 0, 58, 27
1, 158964, Note_on_c, 0, 53, 16
1, 159272, Note_off_c, 0, 45, 64
1, 159284, Note_off_c, 0, 53, 64
1, 159292, Control_c, 0, 64, 0
1, 159300, Note_off_c, 0, 58, 64
1, 159316, Control_c, 0, 64, 127
1, 159324, Note_on_c, 0, 45, 29
1, 159424, Note_off_c, 0, 68, 64
1, 159432, Note_off_c, 0, 74, 64
1, 159512, Note_on_c, 0, 73, 24
1, 159612, Note_on_c, 0, 67, 31
1, 159628, Note_on_c, 0, 58, 16
1, 159640, Note_on_c, 0, 52, 15
1, 159672, Note_off_c, 0, 73, 64
1, 159712, Note_off_c, 0, 67, 64
1, 159916, Note_on_c, 0, 81, 42
1, 159948, Note_off_c, 0, 58, 64
1, 159960, Note_off_c, 0, 52, 64
1, 159988, Note_on_c, 0, 58, 29
1, 160016, Note_on_c, 0, 52, 18
1, 160020, Note_on_c, 0, 61, 32
1, 160136, Note_off_c, 0, 81, 64
1, 160324, Note_off_c, 0, 61, 64
1, 160372, Note_off_c, 0, 45, 64
1, 160372, Note_off_c, 0, 58, 64
1, 160380, Note_on_c, 0, 66, 29
1, 160380, Note_on_c, 0, 72, 31
1, 160392, Note_on_c, 0, 45, 29
1, 160400, Note_off_c, 0, 52, 64
1, 160412, Control_c, 0, 64, 0
1, 160468, Control_c, 0, 64, 127
1, 160700, Note_on_c, 0, 51, 37
1, 160712, Note_on_c, 0, 57, 23
1, 160732, Control_c, 0, 64, 0
1, 160796, Control_c, 0, 64, 127
1, 161020, Note_off_c, 0, 51, 64
1, 161032, Note_off_c, 0, 57, 64
1, 161068, Note_on_c, 0, 51, 27
1, 161072, Note_on_c, 0, 57, 23
1, 161316, Note_off_c, 0, 45, 64
1, 161368, Note_off_c, 0, 66, 64
1, 161368, Note_off_c, 0, 72, 64
1, 161412, Note_on_c, 0, 71, 40
1, 161424, Note_on_c, 0, 65, 35
1, 161436, Note_on_c, 0, 45, 28
1, 161452, Note_off_c, 0, 51, 64
1, 161456, Note_off_c, 0, 57, 64
1, 161600, Note_on_c, 0, 72, 31
1, 161636, Note_off_c, 0, 71, 64
1, 161680, Note_off_c, 0, 65, 64
1, 161784, Note_on_c, 0, 74, 39
1, 161796, Note_off_c, 0, 72, 64
1, 161808, Note_on_c, 0, 65, 23
1, 161812, Note_on_c, 0, 57, 24
1, 161824, Note_on_c, 0, 50, 24
1, 161844, Control_c, 0, 64, 0
1, 161896, Control_c, 0, 64, 127
1, 162012, Note_off_c, 0, 65, 64
1, 162196, Note_off_c, 0, 57, 64
1, 162208, Note_off_c, 0, 50, 64
1, 162244, Note_on_c, 0, 69, 35
1, 162256, Note_off_c, 0, 74, 64
1, 162256, Note_on_c, 0, 65, 26
1, 162268, Note_on_c, 0, 57, 24
1, 162280, Note_on_c, 0, 50, 23
1, 162328, Control_c, 0, 64, 0
1, 162348, Control_c, 0, 64, 127
1, 162492, Note_off_c, 0, 65, 64
1, 162716, Note_off_c, 0, 45, 64
1, 162816, Note_on_c, 0, 72, 32
1, 162820, Note_on_c, 0, 64, 23
1, 162824, Note_on_c, 0, 45, 22
1, 162848, Note_off_c, 0, 69, 64
1, 162892, Control_c, 0, 64, 0
1, 162908, Note_off_c, 0, 57, 64
1, 162916, Note_off_c, 0, 50, 64
1, 162964, Control_c, 0, 64, 127
1, 163264, Note_on_c, 0, 52, 18
1, 163276, Note_on_c, 0, 60, 14
1, 163584, Note_off_c, 0, 60, 64
1, 163592, Note_off_c, 0, 52, 64
1, 163648, Note_on_c, 0, 52, 24
1, 163668, Note_on_c, 0, 60, 16
1, 163864, Note_off_c, 0, 45, 64
1, 164024, Note_on_c, 0, 45, 15
1, 164104, Note_off_c, 0, 52, 64
1, 164108, Control_c, 0, 64, 0
1, 164124, Note_off_c, 0, 60, 64
1, 164128, Control_c, 0, 64, 127
1, 164396, Note_on_c, 0, 52, 27
1, 164420, Note_on_c, 0, 60, 14
1, 164764, Note_off_c, 0, 64, 64
1, 164764, Note_on_c, 0, 69, 42
1, 164784, Note_off_c, 0, 72, 64
1, 165100, Note_off_c, 0, 52, 64
1, 165132, Note_on_c, 0, 72, 35
1, 165156, Note_off_c, 0, 60, 64
1, 165160, Note_off_c, 0, 45, 64
1, 165176, Note_off_c, 0, 69, 64
1, 165220, Control_c, 0, 64, 0
1, 165252, Control_c, 0, 64, 127
1, 165512, Note_on_c, 0, 60, 13
1, 165524, Note_on_c, 0, 52, 13
1, 165900, Note_on_c, 0, 45, 10
1, 165972, Note_off_c, 0, 60, 64
1, 165984, Note_off_c, 0, 52, 64
1, 166284, Note_on_c, 0, 52, 18
1, 166300, Note_on_c, 0, 60, 11
1, 166320, Note_off_c, 0, 45, 64
1, 166708, Note_on_c, 0, 45, 10
1, 166868, Note_off_c, 0, 72, 64
1, 167160, Note_on_c, 0, 72, 32
1, 167248, Note_off_c, 0, 52, 64
1, 167264, Note_off_c, 0, 60, 64
1, 167644, Note_off_c, 0, 45, 64
1, 167848, Note_on_c, 0, 69, 23
1, 167908, Note_off_c, 0, 72, 64
1, 168716, Control_c, 0, 64, 0
1, 168864, Control_c, 0, 64, 127
1, 170156, Note_on_c, 0, 59, 23
1, 170168, Note_on_c, 0, 57, 23
1, 170172, Note_on_c, 0, 65, 23
1, 170556, Note_off_c, 0, 57, 64
1, 170568, Note_off_c, 0, 65, 64
1, 170624, Note_on_c, 0, 60, 35
1, 170632, Note_on_c, 0, 65, 26
1, 170636, Note_on_c, 0, 57, 32
1, 170660, Note_off_c, 0, 59, 64
1, 171036, Note_off_c, 0, 57, 64
1, 171080, Note_off_c, 0, 65, 64
1, 171100, Note_on_c, 0, 65, 23
1, 171100, Note_on_c, 0, 62, 29
1, 171108, Note_on_c, 0, 57, 29
1, 171184, Note_off_c, 0, 60, 64
1, 171516, Note_off_c, 0, 57, 64
1, 171548, Note_off_c, 0, 65, 64
1, 171612, Note_on_c, 0, 57, 28
1, 171612, Note_on_c, 0, 59, 35
1, 171612, Note_on_c, 0, 65, 28
1, 171672, Note_off_c, 0, 62, 64
1, 172072, Note_off_c, 0, 57, 64
1, 172084, Note_off_c, 0, 65, 64
1, 172112, Note_on_c, 0, 65, 18
1, 172116, Note_on_c, 0, 60, 29
1, 172124, Note_on_c, 0, 57, 24
1, 172196, Note_off_c, 0, 59, 64
1, 172596, Note_off_c, 0, 57, 64
1, 172664, Note_off_c, 0, 65, 64
1, 172716, Note_on_c, 0, 65, 23
1, 172724, Note_on_c, 0, 62, 22
1, 172732, Note_on_c, 0, 57, 22
1, 172796, Note_off_c, 0, 60, 64
1, 173248, Note_off_c, 0, 57, 64
1, 173276, Note_off_c, 0, 65, 64
1, 173312, Note_on_c, 0, 65, 22
1, 173320, Note_on_c, 0, 57, 26
1, 173320, Note_on_c, 0, 59, 26
1, 173440, Note_off_c, 0, 62, 64
1, 173956, Note_off_c, 0, 57, 64
1, 173992, Note_off_c, 0, 65, 64
1, 174016, Note_on_c, 0, 57, 18
1, 174016, Note_on_c, 0, 65, 18
1, 174020, Note_on_c, 0, 60, 18
1, 174156, Note_off_c, 0, 59, 64
1, 174280, Note_off_c, 0, 69, 64
1, 174816, Note_on_c, 0, 62, 22
1, 175020, Note_off_c, 0, 57, 64
1, 175020, Note_off_c, 0, 65, 64
1, 175028, Note_off_c, 0, 60, 64
1, 175104, Note_on_c, 0, 64, 19
1, 175200, Note_off_c, 0, 62, 64
1, 175448, Note_off_c, 0, 64, 64
1, 175452, Note_on_c, 0, 62, 22
1, 175948, Note_on_c, 0, 65, 20
1, 175960, Note_on_c, 0, 60, 16
1, 175964, Note_on_c, 0, 57, 16
1, 176116, Control_c, 0, 64, 0
1, 176180, Note_off_c, 0, 62, 64
1, 176236, Control_c, 0, 64, 127
1, 179980, Control_c, 0, 64, 0
1, 180492, Note_off_c, 0, 57, 64
1, 180492, Note_off_c, 0, 60, 64
1, 180500, Note_off_c, 0, 65, 64
1, 180500, End_track
2, 0, Start_track
2, 1, Copyright_t, "__________________________________________________________\012\012KUNSTDERFUGE.COM GREAT CLASSICAL MIDI COLLECTION\012__________________________________________________________\012\012KUNST-DER-FUGE CONTRIBUTOR's PROPERTY\012Copyright by Contributor & Kunst der Fuge, © 2006\012\012Contributors' list: http://kunstderfuge.com/thanks.htm\012Terms and conditions: http://kunstderfuge.com/notes.htm\012__________________________________________________________\012\012NO WEBSITE MAY PUBLISH THIS FILE WITHOUT PERMISSION\012NO COMMERCIAL USE ALLOWED, NOR BY SALES NOR by eBay!\012PLEASE REPORT ANY ABUSE TO INFO@ONCLASSICAL.COM\012__________________________________________________________\012\012Thousands of free classical MIDI files at kunstderfuge.com"
2, 1, End_track
0, 0, End_of_file
