0, 0, Header, 0, 2, 384
1, 0, Start_track
1, 0, Title_t, "Chopin's Mazurkas (played by © Ron Lubetsky)"
1, 0, Control_c, 0, 0, 0
1, 0, Program_c, 0, 0
1, 0, Time_signature, 4, 2, 96, 8
1, 0, Sequencer_specific, 3, 0, 0, 65
1, 0, Tempo, 500000
1, 192, Control_c, 0, 64, 0
1, 260, Control_c, 0, 64, 127
1, 288, Note_on_c, 0, 74, 38
1, 456, Note_off_c, 0, 74, 64
1, 552, Note_on_c, 0, 74, 38
1, 560, Control_c, 0, 64, 0
1, 564, Note_on_c, 0, 47, 32
1, 624, Control_c, 0, 64, 127
1, 664, Note_on_c, 0, 76, 32
1, 680, Note_off_c, 0, 74, 64
1, 748, Note_on_c, 0, 74, 39
1, 768, Note_off_c, 0, 76, 64
1, 784, Control_c, 0, 64, 0
1, 820, Note_on_c, 0, 73, 42
1, 844, Note_off_c, 0, 74, 64
1, 848, Note_on_c, 0, 54, 32
1, 856, Note_on_c, 0, 62, 24
1, 880, Control_c, 0, 64, 127
1, 932, Note_off_c, 0, 47, 64
1, 940, Note_off_c, 0, 54, 64
1, 944, Note_off_c, 0, 62, 64
1, 1092, Note_on_c, 0, 62, 31
1, 1096, Note_on_c, 0, 71, 45
1, 1100, Note_on_c, 0, 54, 38
1, 1112, Note_off_c, 0, 73, 64
1, 1180, Note_off_c, 0, 62, 64
1, 1192, Note_off_c, 0, 54, 64
1, 1352, Note_on_c, 0, 42, 38
1, 1364, Control_c, 0, 64, 0
1, 1376, Note_on_c, 0, 70, 39
1, 1392, Control_c, 0, 64, 127
1, 1412, Note_off_c, 0, 71, 64
1, 1480, Note_on_c, 0, 67, 38
1, 1488, Note_on_c, 0, 79, 38
1, 1496, Note_off_c, 0, 70, 64
1, 1584, Control_c, 0, 64, 0
1, 1588, Note_on_c, 0, 66, 47
1, 1596, Note_on_c, 0, 78, 45
1, 1612, Note_off_c, 0, 67, 64
1, 1620, Note_off_c, 0, 79, 64
1, 1628, Note_on_c, 0, 58, 38
1, 1628, Note_on_c, 0, 54, 36
1, 1632, Note_on_c, 0, 64, 28
1, 1672, Control_c, 0, 64, 127
1, 1716, Note_off_c, 0, 58, 64
1, 1716, Note_off_c, 0, 54, 64
1, 1720, Note_off_c, 0, 42, 64
1, 1720, Note_off_c, 0, 64, 64
1, 1852, Note_on_c, 0, 54, 30
1, 1856, Note_on_c, 0, 64, 31
1, 1856, Note_on_c, 0, 58, 38
1, 1864, Note_off_c, 0, 66, 64
1, 1872, Note_off_c, 0, 78, 64
1, 1940, Note_off_c, 0, 54, 64
1, 1944, Note_off_c, 0, 64, 64
1, 1948, Note_off_c, 0, 58, 64
1, 2008, Note_on_c, 0, 74, 64
1, 2064, Note_off_c, 0, 74, 64
1, 2100, Note_on_c, 0, 74, 71
1, 2112, Control_c, 0, 64, 0
1, 2120, Note_on_c, 0, 47, 57
1, 2168, Control_c, 0, 64, 127
1, 2212, Note_on_c, 0, 76, 60
1, 2216, Note_off_c, 0, 74, 64
1, 2284, Note_on_c, 0, 74, 71
1, 2296, Control_c, 0, 64, 0
1, 2308, Note_off_c, 0, 76, 64
1, 2336, Note_on_c, 0, 54, 49
1, 2344, Note_on_c, 0, 62, 45
1, 2348, Note_on_c, 0, 73, 75
1, 2376, Note_off_c, 0, 74, 64
1, 2384, Control_c, 0, 64, 127
1, 2428, Note_off_c, 0, 54, 64
1, 2436, Note_off_c, 0, 62, 64
1, 2488, Note_off_c, 0, 47, 64
1, 2600, Note_on_c, 0, 71, 61
1, 2600, Note_on_c, 0, 62, 52
1, 2600, Note_on_c, 0, 54, 49
1, 2620, Note_off_c, 0, 73, 64
1, 2688, Note_off_c, 0, 62, 64
1, 2688, Note_off_c, 0, 54, 64
1, 2828, Note_on_c, 0, 42, 53
1, 2836, Control_c, 0, 64, 0
1, 2840, Note_on_c, 0, 69, 61
1, 2864, Note_off_c, 0, 71, 64
1, 2888, Control_c, 0, 64, 127
1, 2952, Note_on_c, 0, 68, 84
1, 2988, Note_off_c, 0, 69, 64
1, 3048, Control_c, 0, 64, 0
1, 3072, Note_on_c, 0, 66, 71
1, 3092, Note_off_c, 0, 68, 64
1, 3112, Note_on_c, 0, 57, 49
1, 3116, Note_on_c, 0, 54, 38
1, 3124, Note_on_c, 0, 61, 38
1, 3144, Control_c, 0, 64, 127
1, 3196, Note_off_c, 0, 42, 64
1, 3200, Note_off_c, 0, 57, 64
1, 3208, Note_off_c, 0, 54, 64
1, 3212, Note_off_c, 0, 61, 64
1, 3292, Note_off_c, 0, 66, 64
1, 3304, Note_on_c, 0, 61, 41
1, 3312, Note_on_c, 0, 57, 38
1, 3312, Note_on_c, 0, 54, 35
1, 3396, Note_off_c, 0, 61, 64
1, 3400, Note_off_c, 0, 57, 64
1, 3400, Note_off_c, 0, 54, 64
1, 3492, Control_c, 0, 64, 127
1, 3568, Control_c, 0, 64, 0
1, 3576, Note_on_c, 0, 71, 42
1, 3584, Note_on_c, 0, 43, 46
1, 3644, Control_c, 0, 64, 127
1, 3668, Note_off_c, 0, 71, 64
1, 3668, Note_on_c, 0, 73, 41
1, 3752, Note_on_c, 0, 71, 41
1, 3760, Control_c, 0, 64, 0
1, 3772, Note_off_c, 0, 73, 64
1, 3828, Note_on_c, 0, 69, 42
1, 3836, Note_on_c, 0, 59, 32
1, 3836, Note_on_c, 0, 50, 41
1, 3852, Note_off_c, 0, 71, 64
1, 3856, Control_c, 0, 64, 127
1, 3928, Note_off_c, 0, 59, 64
1, 3928, Note_off_c, 0, 50, 64
1, 3952, Note_off_c, 0, 43, 64
1, 4064, Note_on_c, 0, 59, 26
1, 4084, Note_on_c, 0, 50, 43
1, 4092, Note_on_c, 0, 67, 41
1, 4116, Note_off_c, 0, 69, 64
1, 4152, Note_off_c, 0, 59, 64
1, 4172, Note_off_c, 0, 50, 64
1, 4304, Control_c, 0, 64, 0
1, 4312, Note_on_c, 0, 38, 38
1, 4324, Note_on_c, 0, 66, 42
1, 4328, Note_off_c, 0, 67, 64
1, 4368, Control_c, 0, 64, 127
1, 4436, Note_off_c, 0, 66, 64
1, 4448, Note_on_c, 0, 76, 45
1, 4448, Note_on_c, 0, 64, 45
1, 4528, Control_c, 0, 64, 0
1, 4552, Note_on_c, 0, 74, 47
1, 4552, Note_on_c, 0, 62, 42
1, 4564, Note_on_c, 0, 50, 32
1, 4572, Note_on_c, 0, 57, 34
1, 4576, Note_on_c, 0, 54, 41
1, 4584, Note_off_c, 0, 76, 64
1, 4584, Note_off_c, 0, 64, 64
1, 4620, Control_c, 0, 64, 127
1, 4656, Note_off_c, 0, 50, 64
1, 4660, Note_off_c, 0, 57, 64
1, 4664, Note_off_c, 0, 54, 64
1, 4680, Note_off_c, 0, 38, 64
1, 4788, Note_on_c, 0, 57, 30
1, 4788, Note_on_c, 0, 54, 31
1, 4788, Note_on_c, 0, 50, 23
1, 4868, Note_off_c, 0, 62, 64
1, 4868, Note_off_c, 0, 74, 64
1, 4876, Note_off_c, 0, 57, 64
1, 4876, Note_off_c, 0, 54, 64
1, 4876, Note_off_c, 0, 50, 64
1, 5024, Note_on_c, 0, 67, 67
1, 5032, Note_on_c, 0, 40, 38
1, 5048, Control_c, 0, 64, 0
1, 5128, Note_on_c, 0, 69, 64
1, 5140, Control_c, 0, 64, 127
1, 5148, Note_off_c, 0, 67, 64
1, 5200, Note_on_c, 0, 67, 63
1, 5224, Note_off_c, 0, 69, 64
1, 5232, Control_c, 0, 64, 0
1, 5260, Note_on_c, 0, 66, 75
1, 5276, Note_on_c, 0, 55, 30
1, 5276, Note_on_c, 0, 49, 46
1, 5276, Note_on_c, 0, 47, 38
1, 5304, Note_off_c, 0, 67, 64
1, 5336, Control_c, 0, 64, 127
1, 5364, Note_off_c, 0, 55, 64
1, 5364, Note_off_c, 0, 49, 64
1, 5364, Note_off_c, 0, 47, 64
1, 5400, Note_off_c, 0, 40, 64
1, 5504, Control_c, 0, 64, 0
1, 5528, Note_on_c, 0, 64, 68
1, 5528, Note_on_c, 0, 52, 35
1, 5532, Note_on_c, 0, 46, 45
1, 5532, Note_on_c, 0, 42, 45
1, 5540, Note_off_c, 0, 66, 64
1, 5576, Control_c, 0, 64, 127
1, 5616, Note_off_c, 0, 52, 64
1, 5620, Note_off_c, 0, 46, 64
1, 5620, Note_off_c, 0, 42, 64
1, 5768, Note_on_c, 0, 62, 61
1, 5784, Control_c, 0, 64, 0
1, 5792, Note_off_c, 0, 64, 64
1, 5792, Note_on_c, 0, 35, 73
1, 5856, Control_c, 0, 64, 127
1, 5880, Note_on_c, 0, 61, 78
1, 5912, Note_off_c, 0, 62, 64
1, 6004, Control_c, 0, 64, 0
1, 6016, Note_on_c, 0, 50, 38
1, 6016, Note_on_c, 0, 42, 43
1, 6024, Note_on_c, 0, 59, 69
1, 6040, Note_off_c, 0, 61, 64
1, 6120, Control_c, 0, 64, 127
1, 6196, Note_off_c, 0, 35, 64
1, 6248, Note_off_c, 0, 42, 64
1, 6256, Note_off_c, 0, 50, 64
1, 6268, Note_off_c, 0, 59, 64
1, 6532, Note_on_c, 0, 74, 45
1, 6592, Note_off_c, 0, 74, 64
1, 6604, Control_c, 0, 64, 0
1, 6640, Note_on_c, 0, 74, 45
1, 6652, Note_on_c, 0, 47, 38
1, 6716, Control_c, 0, 64, 127
1, 6740, Note_on_c, 0, 76, 34
1, 6752, Note_off_c, 0, 74, 64
1, 6820, Note_on_c, 0, 74, 46
1, 6824, Control_c, 0, 64, 0
1, 6844, Note_off_c, 0, 76, 64
1, 6888, Note_on_c, 0, 73, 39
1, 6904, Control_c, 0, 64, 127
1, 6912, Note_on_c, 0, 62, 30
1, 6920, Note_off_c, 0, 74, 64
1, 6920, Note_on_c, 0, 54, 32
1, 7004, Note_off_c, 0, 62, 64
1, 7008, Note_off_c, 0, 54, 64
1, 7016, Note_off_c, 0, 47, 64
1, 7132, Note_on_c, 0, 62, 30
1, 7144, Note_on_c, 0, 54, 41
1, 7160, Note_off_c, 0, 73, 64
1, 7160, Note_on_c, 0, 71, 45
1, 7220, Note_off_c, 0, 62, 64
1, 7232, Note_off_c, 0, 54, 64
1, 7384, Control_c, 0, 64, 0
1, 7392, Note_on_c, 0, 42, 42
1, 7408, Note_on_c, 0, 70, 42
1, 7436, Note_off_c, 0, 71, 64
1, 7440, Control_c, 0, 64, 127
1, 7572, Note_on_c, 0, 67, 34
1, 7580, Note_on_c, 0, 79, 41
1, 7592, Note_off_c, 0, 70, 64
1, 7632, Control_c, 0, 64, 0
1, 7648, Note_on_c, 0, 54, 30
1, 7656, Note_on_c, 0, 64, 42
1, 7656, Note_on_c, 0, 58, 45
1, 7664, Note_on_c, 0, 78, 52
1, 7664, Note_on_c, 0, 66, 54
1, 7672, Note_off_c, 0, 67, 64
1, 7680, Note_off_c, 0, 79, 64
1, 7736, Note_off_c, 0, 54, 64
1, 7736, Control_c, 0, 64, 127
1, 7744, Note_off_c, 0, 58, 64
1, 7744, Note_off_c, 0, 64, 64
1, 7760, Note_off_c, 0, 42, 64
1, 7852, Note_off_c, 0, 66, 64
1, 7852, Note_off_c, 0, 78, 64
1, 7880, Note_on_c, 0, 64, 15
1, 7892, Note_on_c, 0, 58, 28
1, 7896, Note_on_c, 0, 54, 23
1, 7968, Note_off_c, 0, 64, 64
1, 7984, Note_off_c, 0, 58, 64
1, 7988, Note_off_c, 0, 54, 64
1, 8044, Note_on_c, 0, 74, 63
1, 8096, Note_off_c, 0, 74, 64
1, 8132, Note_on_c, 0, 74, 65
1, 8140, Control_c, 0, 64, 0
1, 8152, Note_on_c, 0, 47, 53
1, 8228, Control_c, 0, 64, 127
1, 8244, Note_on_c, 0, 76, 52
1, 8256, Note_off_c, 0, 74, 64
1, 8308, Note_on_c, 0, 74, 64
1, 8324, Control_c, 0, 64, 0
1, 8336, Note_off_c, 0, 76, 64
1, 8372, Note_on_c, 0, 73, 71
1, 8380, Note_on_c, 0, 62, 34
1, 8384, Note_on_c, 0, 54, 46
1, 8396, Note_off_c, 0, 74, 64
1, 8408, Control_c, 0, 64, 127
1, 8468, Note_off_c, 0, 62, 64
1, 8472, Note_off_c, 0, 54, 64
1, 8516, Note_off_c, 0, 47, 64
1, 8604, Note_on_c, 0, 71, 61
1, 8612, Note_on_c, 0, 62, 46
1, 8616, Note_on_c, 0, 54, 50
1, 8632, Note_off_c, 0, 73, 64
1, 8700, Note_off_c, 0, 62, 64
1, 8704, Note_off_c, 0, 54, 64
1, 8844, Control_c, 0, 64, 0
1, 8852, Note_on_c, 0, 42, 53
1, 8856, Note_on_c, 0, 69, 64
1, 8876, Note_off_c, 0, 71, 64
1, 8920, Control_c, 0, 64, 127
1, 9020, Note_on_c, 0, 68, 46
1, 9048, Note_off_c, 0, 69, 64
1, 9060, Control_c, 0, 64, 0
1, 9080, Note_on_c, 0, 66, 69
1, 9108, Note_on_c, 0, 57, 38
1, 9112, Note_on_c, 0, 61, 38
1, 9112, Note_on_c, 0, 54, 34
1, 9128, Note_off_c, 0, 68, 64
1, 9176, Control_c, 0, 64, 127
1, 9200, Note_off_c, 0, 57, 64
1, 9204, Note_off_c, 0, 61, 64
1, 9204, Note_off_c, 0, 54, 64
1, 9216, Note_off_c, 0, 42, 64
1, 9276, Note_off_c, 0, 66, 64
1, 9300, Note_on_c, 0, 57, 30
1, 9300, Note_on_c, 0, 54, 35
1, 9312, Note_on_c, 0, 61, 36
1, 9392, Note_off_c, 0, 57, 64
1, 9392, Note_off_c, 0, 54, 64
1, 9400, Note_off_c, 0, 61, 64
1, 9496, Note_on_c, 0, 71, 42
1, 9552, Note_off_c, 0, 71, 64
1, 9580, Control_c, 0, 64, 0
1, 9592, Note_on_c, 0, 71, 43
1, 9592, Note_on_c, 0, 43, 38
1, 9672, Control_c, 0, 64, 127
1, 9688, Note_on_c, 0, 73, 38
1, 9700, Note_off_c, 0, 71, 64
1, 9752, Note_on_c, 0, 71, 36
1, 9764, Control_c, 0, 64, 0
1, 9788, Note_off_c, 0, 73, 64
1, 9812, Note_on_c, 0, 59, 30
1, 9824, Note_on_c, 0, 69, 38
1, 9824, Note_on_c, 0, 50, 38
1, 9864, Control_c, 0, 64, 127
1, 9872, Note_off_c, 0, 71, 64
1, 9904, Note_off_c, 0, 59, 64
1, 9912, Note_off_c, 0, 50, 64
1, 9960, Note_off_c, 0, 43, 64
1, 10008, Control_c, 0, 64, 0
1, 10052, Note_on_c, 0, 59, 24
1, 10060, Note_on_c, 0, 50, 38
1, 10068, Note_on_c, 0, 67, 38
1, 10072, Control_c, 0, 64, 127
1, 10088, Note_off_c, 0, 69, 64
1, 10144, Note_off_c, 0, 59, 64
1, 10152, Note_off_c, 0, 50, 64
1, 10284, Control_c, 0, 64, 0
1, 10292, Note_on_c, 0, 66, 35
1, 10304, Note_on_c, 0, 38, 31
1, 10328, Note_off_c, 0, 67, 64
1, 10352, Control_c, 0, 64, 127
1, 10460, Note_on_c, 0, 76, 31
1, 10464, Note_on_c, 0, 64, 38
1, 10488, Note_off_c, 0, 66, 64
1, 10512, Control_c, 0, 64, 0
1, 10528, Note_on_c, 0, 74, 38
1, 10532, Note_on_c, 0, 62, 41
1, 10536, Note_on_c, 0, 57, 31
1, 10536, Note_on_c, 0, 54, 35
1, 10544, Note_off_c, 0, 76, 64
1, 10548, Note_on_c, 0, 50, 31
1, 10552, Note_off_c, 0, 64, 64
1, 10624, Note_off_c, 0, 57, 64
1, 10624, Note_off_c, 0, 54, 64
1, 10624, Control_c, 0, 64, 127
1, 10640, Note_off_c, 0, 50, 64
1, 10668, Note_off_c, 0, 38, 64
1, 10728, Control_c, 0, 64, 0
1, 10748, Control_c, 0, 64, 127
1, 10756, Note_on_c, 0, 57, 27
1, 10768, Note_on_c, 0, 54, 24
1, 10768, Note_on_c, 0, 50, 10
1, 10848, Note_off_c, 0, 57, 64
1, 10860, Note_off_c, 0, 54, 64
1, 10860, Note_off_c, 0, 50, 64
1, 10884, Note_off_c, 0, 74, 64
1, 10892, Note_off_c, 0, 62, 64
1, 10924, Note_on_c, 0, 67, 84
1, 10980, Note_off_c, 0, 67, 64
1, 11016, Note_on_c, 0, 40, 32
1, 11024, Note_on_c, 0, 67, 76
1, 11024, Control_c, 0, 64, 0
1, 11080, Control_c, 0, 64, 127
1, 11104, Note_on_c, 0, 69, 67
1, 11136, Note_off_c, 0, 67, 64
1, 11180, Note_on_c, 0, 67, 63
1, 11204, Note_off_c, 0, 69, 64
1, 11232, Control_c, 0, 64, 0
1, 11240, Note_on_c, 0, 66, 82
1, 11248, Note_on_c, 0, 47, 49
1, 11248, Note_on_c, 0, 49, 49
1, 11256, Note_on_c, 0, 55, 47
1, 11284, Note_off_c, 0, 67, 64
1, 11312, Control_c, 0, 64, 127
1, 11336, Note_off_c, 0, 47, 64
1, 11336, Note_off_c, 0, 49, 64
1, 11344, Note_off_c, 0, 55, 64
1, 11384, Note_off_c, 0, 40, 64
1, 11480, Note_on_c, 0, 64, 67
1, 11488, Note_on_c, 0, 52, 26
1, 11488, Note_on_c, 0, 42, 50
1, 11492, Note_on_c, 0, 46, 43
1, 11496, Control_c, 0, 64, 0
1, 11508, Note_off_c, 0, 66, 64
1, 11580, Note_off_c, 0, 52, 64
1, 11580, Note_off_c, 0, 42, 64
1, 11580, Control_c, 0, 64, 127
1, 11584, Note_off_c, 0, 46, 64
1, 11744, Note_on_c, 0, 62, 64
1, 11752, Note_on_c, 0, 35, 76
1, 11764, Note_off_c, 0, 64, 64
1, 11768, Control_c, 0, 64, 0
1, 11856, Control_c, 0, 64, 127
1, 11940, Note_on_c, 0, 61, 57
1, 11956, Note_off_c, 0, 62, 64
1, 12024, Note_on_c, 0, 59, 69
1, 12040, Note_on_c, 0, 50, 50
1, 12040, Note_on_c, 0, 42, 49
1, 12048, Note_off_c, 0, 61, 64
1, 12064, Control_c, 0, 64, 0
1, 12160, Control_c, 0, 64, 127
1, 12276, Note_off_c, 0, 35, 64
1, 12300, Note_off_c, 0, 42, 64
1, 12300, Note_off_c, 0, 50, 64
1, 12340, Note_on_c, 0, 66, 67
1, 12384, Note_off_c, 0, 59, 64
1, 12596, Note_on_c, 0, 37, 52
1, 12604, Note_on_c, 0, 65, 52
1, 12616, Control_c, 0, 64, 0
1, 12624, Note_off_c, 0, 66, 64
1, 12644, Control_c, 0, 64, 0
1, 12692, Control_c, 0, 64, 127
1, 12728, Note_on_c, 0, 66, 49
1, 12772, Note_off_c, 0, 65, 64
1, 12832, Control_c, 0, 64, 0
1, 12840, Note_on_c, 0, 50, 32
1, 12848, Note_on_c, 0, 62, 38
1, 12848, Note_on_c, 0, 59, 24
1, 12848, Note_on_c, 0, 68, 49
1, 12856, Note_on_c, 0, 54, 32
1, 12884, Note_off_c, 0, 66, 64
1, 12916, Control_c, 0, 64, 127
1, 12928, Note_off_c, 0, 50, 64
1, 12936, Note_off_c, 0, 62, 64
1, 12936, Note_off_c, 0, 59, 64
1, 12944, Note_off_c, 0, 54, 64
1, 12960, Note_off_c, 0, 37, 64
1, 13080, Control_c, 0, 64, 0
1, 13096, Note_on_c, 0, 61, 38
1, 13104, Note_on_c, 0, 59, 31
1, 13104, Note_on_c, 0, 53, 36
1, 13104, Note_on_c, 0, 69, 52
1, 13104, Note_on_c, 0, 49, 38
1, 13120, Note_off_c, 0, 68, 64
1, 13140, Control_c, 0, 64, 127
1, 13188, Note_off_c, 0, 61, 64
1, 13192, Note_off_c, 0, 59, 64
1, 13192, Note_off_c, 0, 53, 64
1, 13196, Note_off_c, 0, 49, 64
1, 13212, Note_on_c, 0, 68, 38
1, 13244, Note_off_c, 0, 69, 64
1, 13320, Control_c, 0, 64, 0
1, 13332, Note_on_c, 0, 66, 52
1, 13332, Note_on_c, 0, 42, 57
1, 13340, Note_on_c, 0, 61, 28
1, 13352, Note_off_c, 0, 68, 64
1, 13376, Control_c, 0, 64, 127
1, 13428, Note_off_c, 0, 61, 64
1, 13432, Note_on_c, 0, 68, 42
1, 13476, Note_off_c, 0, 66, 64
1, 13536, Control_c, 0, 64, 0
1, 13544, Note_on_c, 0, 61, 46
1, 13548, Note_on_c, 0, 54, 38
1, 13548, Note_on_c, 0, 69, 53
1, 13552, Note_on_c, 0, 57, 20
1, 13572, Note_off_c, 0, 68, 64
1, 13608, Control_c, 0, 64, 127
1, 13632, Note_off_c, 0, 61, 64
1, 13636, Note_off_c, 0, 54, 64
1, 13640, Note_off_c, 0, 57, 64
1, 13700, Note_off_c, 0, 42, 64
1, 13768, Control_c, 0, 64, 0
1, 13780, Note_on_c, 0, 57, 38
1, 13780, Note_on_c, 0, 53, 32
1, 13788, Note_on_c, 0, 71, 52
1, 13788, Note_on_c, 0, 63, 38
1, 13800, Note_off_c, 0, 69, 64
1, 13836, Control_c, 0, 64, 127
1, 13872, Note_off_c, 0, 53, 64
1, 13872, Note_off_c, 0, 57, 64
1, 13876, Note_off_c, 0, 63, 64
1, 13892, Note_on_c, 0, 69, 46
1, 13908, Note_off_c, 0, 71, 64
1, 14004, Note_on_c, 0, 68, 60
1, 14004, Note_on_c, 0, 64, 30
1, 14004, Note_on_c, 0, 59, 34
1, 14004, Control_c, 0, 64, 0
1, 14016, Note_on_c, 0, 52, 42
1, 14024, Note_off_c, 0, 69, 64
1, 14060, Control_c, 0, 64, 127
1, 14096, Note_off_c, 0, 64, 64
1, 14096, Note_off_c, 0, 59, 64
1, 14104, Note_off_c, 0, 52, 64
1, 14104, Note_on_c, 0, 69, 52
1, 14164, Note_off_c, 0, 68, 64
1, 14204, Control_c, 0, 64, 0
1, 14216, Note_on_c, 0, 65, 38
1, 14216, Note_on_c, 0, 62, 38
1, 14224, Note_on_c, 0, 52, 39
1, 14224, Note_on_c, 0, 71, 58
1, 14224, Note_on_c, 0, 57, 45
1, 14260, Note_off_c, 0, 69, 64
1, 14276, Control_c, 0, 64, 127
1, 14304, Note_off_c, 0, 65, 64
1, 14304, Note_off_c, 0, 62, 64
1, 14312, Note_off_c, 0, 52, 64
1, 14312, Note_off_c, 0, 57, 64
1, 14452, Note_on_c, 0, 62, 42
1, 14452, Note_on_c, 0, 64, 38
1, 14452, Note_on_c, 0, 56, 45
1, 14452, Note_on_c, 0, 52, 45
1, 14456, Note_on_c, 0, 73, 61
1, 14460, Control_c, 0, 64, 0
1, 14476, Note_off_c, 0, 71, 64
1, 14492, Control_c, 0, 64, 127
1, 14540, Note_off_c, 0, 62, 64
1, 14544, Note_off_c, 0, 64, 64
1, 14544, Note_off_c, 0, 56, 64
1, 14544, Note_off_c, 0, 52, 64
1, 14552, Note_on_c, 0, 71, 47
1, 14564, Note_off_c, 0, 73, 64
1, 14660, Note_on_c, 0, 45, 53
1, 14672, Note_on_c, 0, 69, 63
1, 14672, Note_on_c, 0, 64, 47
1, 14680, Control_c, 0, 64, 0
1, 14696, Note_off_c, 0, 71, 64
1, 14736, Control_c, 0, 64, 127
1, 14760, Note_off_c, 0, 64, 64
1, 14780, Note_on_c, 0, 71, 52
1, 14828, Note_off_c, 0, 69, 64
1, 14868, Control_c, 0, 64, 0
1, 14896, Note_on_c, 0, 69, 47
1, 14900, Note_on_c, 0, 64, 31
1, 14900, Note_on_c, 0, 57, 45
1, 14904, Note_on_c, 0, 73, 58
1, 14936, Control_c, 0, 64, 127
1, 14964, Note_off_c, 0, 71, 64
1, 14984, Note_off_c, 0, 69, 64
1, 14992, Note_off_c, 0, 64, 64
1, 14992, Note_off_c, 0, 57, 64
1, 15024, Note_off_c, 0, 45, 64
1, 15096, Control_c, 0, 64, 0
1, 15112, Note_on_c, 0, 61, 39
1, 15120, Note_on_c, 0, 75, 64
1, 15120, Note_on_c, 0, 57, 34
1, 15120, Note_on_c, 0, 67, 49
1, 15148, Control_c, 0, 64, 127
1, 15160, Note_off_c, 0, 73, 64
1, 15204, Note_off_c, 0, 61, 64
1, 15208, Note_off_c, 0, 57, 64
1, 15212, Note_off_c, 0, 67, 64
1, 15220, Note_on_c, 0, 73, 64
1, 15236, Note_off_c, 0, 75, 64
1, 15316, Control_c, 0, 64, 0
1, 15324, Note_on_c, 0, 63, 50
1, 15328, Note_on_c, 0, 56, 54
1, 15328, Note_on_c, 0, 72, 53
1, 15328, Note_on_c, 0, 68, 52
1, 15336, Note_off_c, 0, 73, 64
1, 15364, Control_c, 0, 64, 127
1, 15412, Note_off_c, 0, 63, 64
1, 15416, Note_off_c, 0, 56, 64
1, 15420, Note_off_c, 0, 68, 64
1, 15432, Note_on_c, 0, 73, 61
1, 15456, Note_off_c, 0, 72, 64
1, 15504, Control_c, 0, 64, 0
1, 15540, Note_on_c, 0, 61, 46
1, 15548, Note_on_c, 0, 69, 54
1, 15548, Note_on_c, 0, 66, 52
1, 15548, Note_on_c, 0, 56, 43
1, 15548, Note_on_c, 0, 75, 61
1, 15564, Note_off_c, 0, 73, 64
1, 15588, Control_c, 0, 64, 127
1, 15632, Note_off_c, 0, 61, 64
1, 15636, Note_off_c, 0, 69, 64
1, 15636, Note_off_c, 0, 66, 64
1, 15636, Note_off_c, 0, 56, 64
1, 15748, Control_c, 0, 64, 0
1, 15760, Note_on_c, 0, 68, 54
1, 15764, Note_on_c, 0, 66, 45
1, 15764, Note_on_c, 0, 60, 46
1, 15764, Note_on_c, 0, 56, 47
1, 15768, Note_on_c, 0, 77, 60
1, 15788, Note_off_c, 0, 75, 64
1, 15788, Control_c, 0, 64, 127
1, 15848, Note_off_c, 0, 68, 64
1, 15856, Note_off_c, 0, 66, 64
1, 15856, Note_off_c, 0, 60, 64
1, 15856, Note_off_c, 0, 56, 64
1, 15860, Note_on_c, 0, 75, 65
1, 15868, Note_off_c, 0, 77, 64
1, 15944, Control_c, 0, 64, 0
1, 15968, Note_on_c, 0, 73, 65
1, 15968, Note_on_c, 0, 71, 57
1, 15976, Note_on_c, 0, 49, 67
1, 15984, Note_off_c, 0, 75, 64
1, 16000, Control_c, 0, 64, 127
1, 16060, Note_off_c, 0, 71, 64
1, 16060, Note_on_c, 0, 75, 69
1, 16112, Note_off_c, 0, 73, 64
1, 16176, Note_on_c, 0, 61, 52
1, 16176, Control_c, 0, 64, 0
1, 16180, Note_on_c, 0, 73, 54
1, 16180, Note_on_c, 0, 71, 45
1, 16184, Note_on_c, 0, 77, 61
1, 16184, Note_on_c, 0, 68, 46
1, 16216, Note_off_c, 0, 75, 64
1, 16224, Control_c, 0, 64, 127
1, 16264, Note_off_c, 0, 61, 64
1, 16272, Note_off_c, 0, 71, 64
1, 16276, Note_off_c, 0, 68, 64
1, 16344, Note_off_c, 0, 49, 64
1, 16344, Note_off_c, 0, 73, 64
1, 16352, Note_off_c, 0, 77, 64
1, 16364, Control_c, 0, 64, 0
1, 16392, Note_on_c, 0, 69, 49
1, 16392, Note_on_c, 0, 61, 42
1, 16396, Note_on_c, 0, 73, 45
1, 16396, Note_on_c, 0, 78, 69
1, 16440, Control_c, 0, 64, 127
1, 16480, Note_off_c, 0, 69, 64
1, 16480, Note_off_c, 0, 61, 64
1, 16484, Note_off_c, 0, 73, 64
1, 16484, Note_off_c, 0, 78, 64
1, 16608, Note_on_c, 0, 77, 61
1, 16608, Note_on_c, 0, 71, 49
1, 16608, Note_on_c, 0, 68, 61
1, 16608, Note_on_c, 0, 61, 46
1, 16616, Note_on_c, 0, 73, 49
1, 16700, Note_off_c, 0, 71, 64
1, 16700, Note_off_c, 0, 61, 64
1, 16708, Note_off_c, 0, 73, 64
1, 16708, Note_on_c, 0, 78, 58
1, 16716, Note_off_c, 0, 77, 64
1, 16716, Note_on_c, 0, 66, 72
1, 16728, Note_off_c, 0, 68, 64
1, 16768, Control_c, 0, 64, 0
1, 16800, Note_on_c, 0, 80, 69
1, 16800, Note_on_c, 0, 71, 49
1, 16800, Note_on_c, 0, 65, 69
1, 16800, Note_on_c, 0, 61, 46
1, 16804, Note_on_c, 0, 73, 52
1, 16812, Note_off_c, 0, 78, 64
1, 16832, Note_off_c, 0, 66, 64
1, 16840, Control_c, 0, 64, 127
1, 16892, Note_off_c, 0, 71, 64
1, 16892, Note_off_c, 0, 65, 64
1, 16892, Note_off_c, 0, 61, 64
1, 16896, Note_off_c, 0, 73, 64
1, 16948, Note_off_c, 0, 80, 64
1, 17004, Control_c, 0, 64, 0
1, 17024, Note_on_c, 0, 73, 64
1, 17024, Note_on_c, 0, 71, 58
1, 17024, Note_on_c, 0, 65, 69
1, 17024, Note_on_c, 0, 61, 53
1, 17032, Note_on_c, 0, 81, 65
1, 17056, Control_c, 0, 64, 127
1, 17116, Note_off_c, 0, 73, 64
1, 17116, Note_off_c, 0, 71, 64
1, 17116, Note_off_c, 0, 65, 64
1, 17116, Note_off_c, 0, 61, 64
1, 17184, Note_off_c, 0, 81, 64
1, 17260, Note_on_c, 0, 78, 69
1, 17272, Note_on_c, 0, 42, 61
1, 17276, Control_c, 0, 64, 0
1, 17336, Control_c, 0, 64, 127
1, 17504, Note_on_c, 0, 73, 47
1, 17504, Note_on_c, 0, 69, 41
1, 17504, Note_on_c, 0, 66, 41
1, 17512, Note_on_c, 0, 54, 38
1, 17520, Note_on_c, 0, 61, 43
1, 17588, Note_off_c, 0, 78, 64
1, 17652, Note_off_c, 0, 42, 64
1, 17656, Note_off_c, 0, 73, 64
1, 17656, Note_off_c, 0, 69, 64
1, 17656, Note_off_c, 0, 66, 64
1, 17668, Note_off_c, 0, 54, 64
1, 17672, Note_off_c, 0, 61, 64
1, 17768, Note_on_c, 0, 56, 32
1, 17768, Note_on_c, 0, 50, 34
1, 17768, Note_on_c, 0, 66, 78
1, 17776, Note_on_c, 0, 60, 45
1, 17796, Control_c, 0, 64, 0
1, 17856, Note_off_c, 0, 56, 64
1, 17856, Note_off_c, 0, 50, 64
1, 17864, Note_off_c, 0, 60, 64
1, 17876, Control_c, 0, 64, 127
1, 17992, Control_c, 0, 64, 0
1, 18008, Note_on_c, 0, 61, 38
1, 18012, Note_on_c, 0, 56, 38
1, 18012, Note_on_c, 0, 49, 30
1, 18016, Note_on_c, 0, 65, 67
1, 18040, Note_off_c, 0, 66, 64
1, 18072, Control_c, 0, 64, 127
1, 18100, Note_off_c, 0, 61, 64
1, 18100, Note_off_c, 0, 56, 64
1, 18100, Note_off_c, 0, 49, 64
1, 18104, Note_on_c, 0, 66, 58
1, 18128, Note_off_c, 0, 65, 64
1, 18200, Control_c, 0, 64, 0
1, 18232, Note_on_c, 0, 68, 68
1, 18240, Note_off_c, 0, 66, 64
1, 18240, Note_on_c, 0, 49, 30
1, 18240, Note_on_c, 0, 54, 34
1, 18244, Note_on_c, 0, 62, 38
1, 18244, Note_on_c, 0, 59, 30
1, 18268, Control_c, 0, 64, 127
1, 18328, Note_off_c, 0, 49, 64
1, 18332, Note_off_c, 0, 54, 64
1, 18332, Note_off_c, 0, 62, 64
1, 18336, Note_off_c, 0, 59, 64
1, 18464, Control_c, 0, 64, 0
1, 18476, Note_on_c, 0, 61, 34
1, 18476, Note_on_c, 0, 69, 61
1, 18484, Note_on_c, 0, 59, 30
1, 18488, Note_on_c, 0, 53, 31
1, 18492, Note_off_c, 0, 68, 64
1, 18496, Note_on_c, 0, 49, 30
1, 18524, Control_c, 0, 64, 127
1, 18564, Note_off_c, 0, 61, 64
1, 18564, Note_on_c, 0, 68, 61
1, 18576, Note_off_c, 0, 59, 64
1, 18576, Note_off_c, 0, 53, 64
1, 18584, Note_off_c, 0, 49, 64
1, 18588, Note_off_c, 0, 69, 64
1, 18656, Control_c, 0, 64, 0
1, 18680, Note_on_c, 0, 66, 57
1, 18680, Note_on_c, 0, 61, 31
1, 18696, Note_off_c, 0, 68, 64
1, 18700, Note_on_c, 0, 42, 53
1, 18744, Control_c, 0, 64, 127
1, 18772, Note_off_c, 0, 61, 64
1, 18784, Note_on_c, 0, 68, 43
1, 18832, Note_off_c, 0, 66, 64
1, 18872, Control_c, 0, 64, 0
1, 18896, Note_on_c, 0, 57, 28
1, 18896, Note_on_c, 0, 54, 31
1, 18896, Note_on_c, 0, 69, 63
1, 18900, Note_on_c, 0, 61, 38
1, 18932, Control_c, 0, 64, 127
1, 18944, Note_off_c, 0, 68, 64
1, 18984, Note_off_c, 0, 57, 64
1, 18984, Note_off_c, 0, 54, 64
1, 18988, Note_off_c, 0, 61, 64
1, 19068, Note_off_c, 0, 42, 64
1, 19100, Control_c, 0, 64, 0
1, 19120, Note_on_c, 0, 53, 42
1, 19124, Note_on_c, 0, 71, 60
1, 19124, Note_on_c, 0, 63, 49
1, 19124, Note_on_c, 0, 57, 36
1, 19152, Note_off_c, 0, 69, 64
1, 19164, Control_c, 0, 64, 127
1, 19208, Note_off_c, 0, 53, 64
1, 19216, Note_off_c, 0, 63, 64
1, 19216, Note_off_c, 0, 57, 64
1, 19232, Note_on_c, 0, 69, 50
1, 19236, Note_off_c, 0, 71, 64
1, 19312, Control_c, 0, 64, 0
1, 19316, Note_on_c, 0, 64, 34
1, 19316, Note_on_c, 0, 59, 34
1, 19316, Note_on_c, 0, 52, 46
1, 19328, Note_on_c, 0, 68, 64
1, 19344, Note_off_c, 0, 69, 64
1, 19372, Control_c, 0, 64, 127
1, 19408, Note_off_c, 0, 64, 64
1, 19408, Note_off_c, 0, 59, 64
1, 19408, Note_off_c, 0, 52, 64
1, 19424, Note_on_c, 0, 69, 52
1, 19488, Note_off_c, 0, 68, 64
1, 19516, Control_c, 0, 64, 0
1, 19536, Note_on_c, 0, 65, 47
1, 19536, Note_on_c, 0, 62, 34
1, 19536, Note_on_c, 0, 57, 45
1, 19536, Note_on_c, 0, 52, 24
1, 19536, Note_on_c, 0, 71, 58
1, 19584, Note_off_c, 0, 69, 64
1, 19584, Control_c, 0, 64, 127
1, 19624, Note_off_c, 0, 65, 64
1, 19624, Note_off_c, 0, 62, 64
1, 19624, Note_off_c, 0, 57, 64
1, 19624, Note_off_c, 0, 52, 64
1, 19704, Control_c, 0, 64, 0
1, 19752, Note_on_c, 0, 64, 43
1, 19752, Note_on_c, 0, 62, 41
1, 19760, Note_on_c, 0, 73, 61
1, 19760, Note_on_c, 0, 56, 42
1, 19760, Note_on_c, 0, 52, 42
1, 19772, Note_off_c, 0, 71, 64
1, 19780, Control_c, 0, 64, 127
1, 19844, Note_off_c, 0, 64, 64
1, 19844, Note_off_c, 0, 62, 64
1, 19844, Note_on_c, 0, 71, 52
1, 19848, Note_off_c, 0, 56, 64
1, 19848, Note_off_c, 0, 52, 64
1, 19860, Tempo, 500000
1, 19860, Note_off_c, 0, 73, 64
1, 19924, Tempo, 500000
1, 19924, Control_c, 0, 64, 0
1, 19936, Tempo, 500000
1, 19936, Note_on_c, 0, 45, 61
1, 19944, Note_on_c, 0, 69, 58
1, 19948, Note_on_c, 0, 64, 47
1, 19960, Note_off_c, 0, 71, 64
1, 19968, Control_c, 0, 64, 127
1, 20036, Note_off_c, 0, 64, 64
1, 20040, Note_on_c, 0, 71, 53
1, 20088, Note_off_c, 0, 69, 64
1, 20120, Control_c, 0, 64, 0
1, 20152, Note_on_c, 0, 57, 47
1, 20160, Note_on_c, 0, 69, 53
1, 20160, Note_on_c, 0, 64, 52
1, 20164, Note_on_c, 0, 73, 58
1, 20192, Control_c, 0, 64, 127
1, 20212, Note_off_c, 0, 71, 64
1, 20244, Note_off_c, 0, 57, 64
1, 20248, Note_off_c, 0, 69, 64
1, 20248, Note_off_c, 0, 64, 64
1, 20300, Note_off_c, 0, 45, 64
1, 20356, Note_on_c, 0, 67, 49
1, 20356, Note_on_c, 0, 57, 45
1, 20360, Note_on_c, 0, 75, 65
1, 20360, Note_on_c, 0, 64, 46
1, 20396, Note_off_c, 0, 73, 64
1, 20444, Note_off_c, 0, 67, 64
1, 20444, Note_off_c, 0, 57, 64
1, 20452, Note_off_c, 0, 64, 64
1, 20452, Note_on_c, 0, 73, 53
1, 20480, Note_off_c, 0, 75, 64
1, 20548, Control_c, 0, 64, 0
1, 20564, Note_on_c, 0, 56, 52
1, 20572, Note_on_c, 0, 68, 52
1, 20572, Note_on_c, 0, 63, 50
1, 20576, Note_on_c, 0, 72, 49
1, 20596, Note_off_c, 0, 73, 64
1, 20596, Control_c, 0, 64, 127
1, 20652, Note_off_c, 0, 56, 64
1, 20660, Note_off_c, 0, 68, 64
1, 20660, Note_off_c, 0, 63, 64
1, 20672, Note_on_c, 0, 73, 60
1, 20712, Note_off_c, 0, 72, 64
1, 20744, Control_c, 0, 64, 0
1, 20764, Note_on_c, 0, 66, 46
1, 20764, Note_on_c, 0, 56, 42
1, 20768, Note_on_c, 0, 69, 56
1, 20772, Note_on_c, 0, 61, 46
1, 20776, Note_on_c, 0, 75, 60
1, 20796, Control_c, 0, 64, 127
1, 20812, Note_off_c, 0, 73, 64
1, 20852, Note_off_c, 0, 66, 64
1, 20852, Note_off_c, 0, 56, 64
1, 20856, Note_off_c, 0, 69, 64
1, 20864, Note_off_c, 0, 61, 64
1, 20956, Note_on_c, 0, 66, 49
1, 20964, Note_on_c, 0, 68, 50
1, 20964, Note_on_c, 0, 60, 46
1, 20964, Note_on_c, 0, 56, 46
1, 20964, Note_on_c, 0, 77, 60
1, 21000, Note_off_c, 0, 75, 64
1, 21044, Note_off_c, 0, 66, 64
1, 21052, Note_off_c, 0, 68, 64
1, 21052, Note_off_c, 0, 60, 64
1, 21052, Note_off_c, 0, 56, 64
1, 21060, Note_on_c, 0, 75, 65
1, 21092, Note_off_c, 0, 77, 64
1, 21168, Note_on_c, 0, 73, 69
1, 21172, Note_on_c, 0, 71, 42
1, 21176, Note_on_c, 0, 49, 69
1, 21180, Note_off_c, 0, 75, 64
1, 21180, Control_c, 0, 64, 0
1, 21208, Control_c, 0, 64, 127
1, 21264, Note_off_c, 0, 71, 64
1, 21268, Note_on_c, 0, 75, 61
1, 21312, Note_off_c, 0, 73, 64
1, 21328, Control_c, 0, 64, 0
1, 21364, Note_on_c, 0, 73, 38
1, 21372, Note_on_c, 0, 71, 38
1, 21376, Note_on_c, 0, 77, 65
1, 21380, Tempo, 500000
1, 21380, Note_on_c, 0, 68, 54
1, 21380, Note_on_c, 0, 61, 56
1, 21384, Tempo, 500000
1, 21404, Control_c, 0, 64, 127
1, 21436, Note_off_c, 0, 75, 64
1, 21444, Tempo, 500000
1, 21448, Tempo, 500000
1, 21460, Note_off_c, 0, 71, 64
1, 21468, Note_off_c, 0, 68, 64
1, 21468, Note_off_c, 0, 61, 64
1, 21508, Note_off_c, 0, 73, 64
1, 21512, Note_off_c, 0, 77, 64
1, 21544, Note_off_c, 0, 49, 64
1, 21564, Note_on_c, 0, 78, 64
1, 21564, Note_on_c, 0, 73, 54
1, 21564, Note_on_c, 0, 69, 52
1, 21576, Note_on_c, 0, 61, 49
1, 21652, Note_off_c, 0, 73, 64
1, 21652, Note_off_c, 0, 69, 64
1, 21664, Note_off_c, 0, 61, 64
1, 21728, Note_off_c, 0, 78, 64
1, 21776, Note_on_c, 0, 77, 60
1, 21776, Note_on_c, 0, 71, 38
1, 21780, Note_on_c, 0, 68, 42
1, 21780, Note_on_c, 0, 73, 53
1, 21788, Note_on_c, 0, 61, 46
1, 21864, Note_off_c, 0, 71, 64
1, 21868, Note_off_c, 0, 68, 64
1, 21872, Note_off_c, 0, 73, 64
1, 21876, Note_off_c, 0, 61, 64
1, 21908, Note_on_c, 0, 71, 57
1, 21908, Note_on_c, 0, 66, 71
1, 21912, Note_off_c, 0, 77, 64
1, 21916, Note_on_c, 0, 86, 68
1, 21916, Note_on_c, 0, 74, 58
1, 21916, Note_on_c, 0, 61, 50
1, 21952, Note_off_c, 0, 71, 64
1, 21960, Note_off_c, 0, 61, 64
1, 21964, Note_off_c, 0, 66, 64
1, 21984, Note_on_c, 0, 71, 49
1, 21988, Note_on_c, 0, 85, 69
1, 21988, Note_on_c, 0, 73, 76
1, 21988, Note_on_c, 0, 65, 69
1, 21988, Note_on_c, 0, 61, 52
1, 22024, Note_off_c, 0, 86, 64
1, 22024, Note_off_c, 0, 74, 64
1, 22072, Note_off_c, 0, 71, 64
1, 22076, Note_off_c, 0, 65, 64
1, 22080, Note_off_c, 0, 61, 64
1, 22160, Note_off_c, 0, 85, 64
1, 22160, Note_off_c, 0, 73, 64
1, 22192, Control_c, 0, 64, 0
1, 22212, Note_on_c, 0, 71, 50
1, 22216, Note_on_c, 0, 73, 69
1, 22220, Note_on_c, 0, 65, 64
1, 22220, Note_on_c, 0, 61, 53
1, 22220, Note_on_c, 0, 80, 65
1, 22256, Control_c, 0, 64, 127
1, 22300, Note_off_c, 0, 71, 64
1, 22308, Note_off_c, 0, 73, 64
1, 22308, Note_off_c, 0, 65, 64
1, 22308, Note_off_c, 0, 61, 64
1, 22344, Note_on_c, 0, 81, 61
1, 22364, Note_off_c, 0, 80, 64
1, 22440, Control_c, 0, 64, 0
1, 22464, Note_on_c, 0, 78, 78
1, 22464, Note_on_c, 0, 42, 61
1, 22468, Note_off_c, 0, 81, 64
1, 22520, Control_c, 0, 64, 127
1, 22768, Note_on_c, 0, 54, 34
1, 22772, Note_on_c, 0, 69, 46
1, 22772, Note_on_c, 0, 66, 45
1, 22772, Note_on_c, 0, 61, 50
1, 22780, Note_on_c, 0, 73, 50
1, 22804, Control_c, 0, 64, 0
1, 22832, Note_off_c, 0, 42, 64
1, 22860, Control_c, 0, 64, 127
1, 22920, Note_off_c, 0, 78, 64
1, 22924, Note_off_c, 0, 54, 64
1, 22928, Note_off_c, 0, 69, 64
1, 22928, Note_off_c, 0, 66, 64
1, 22928, Note_off_c, 0, 61, 64
1, 22932, Note_off_c, 0, 73, 64
1, 23016, Note_on_c, 0, 78, 58
1, 23100, Note_off_c, 0, 78, 64
1, 23192, Note_on_c, 0, 78, 61
1, 23236, Note_on_c, 0, 80, 58
1, 23244, Note_off_c, 0, 78, 64
1, 23268, Control_c, 0, 64, 0
1, 23284, Note_on_c, 0, 47, 39
1, 23292, Note_on_c, 0, 78, 61
1, 23324, Note_off_c, 0, 80, 64
1, 23344, Control_c, 0, 64, 127
1, 23372, Note_off_c, 0, 78, 64
1, 23372, Note_on_c, 0, 77, 58
1, 23468, Control_c, 0, 64, 0
1, 23488, Note_on_c, 0, 78, 58
1, 23504, Note_on_c, 0, 59, 26
1, 23504, Note_on_c, 0, 54, 30
1, 23508, Note_off_c, 0, 77, 64
1, 23508, Note_on_c, 0, 62, 32
1, 23536, Control_c, 0, 64, 127
1, 23592, Note_off_c, 0, 59, 64
1, 23592, Note_off_c, 0, 54, 64
1, 23600, Note_off_c, 0, 62, 64
1, 23652, Note_off_c, 0, 47, 64
1, 23720, Note_on_c, 0, 74, 45
1, 23720, Note_on_c, 0, 62, 30
1, 23720, Note_on_c, 0, 59, 20
1, 23720, Note_on_c, 0, 54, 30
1, 23752, Note_off_c, 0, 78, 64
1, 23812, Note_off_c, 0, 62, 64
1, 23812, Note_off_c, 0, 59, 64
1, 23812, Note_off_c, 0, 54, 64
1, 23916, Note_on_c, 0, 73, 52
1, 23928, Note_on_c, 0, 42, 52
1, 23932, Control_c, 0, 64, 0
1, 23940, Note_off_c, 0, 74, 64
1, 23984, Control_c, 0, 64, 127
1, 24092, Control_c, 0, 64, 0
1, 24156, Note_on_c, 0, 69, 49
1, 24164, Note_off_c, 0, 73, 64
1, 24168, Note_on_c, 0, 57, 30
1, 24168, Note_on_c, 0, 54, 28
1, 24172, Control_c, 0, 64, 127
1, 24176, Note_on_c, 0, 61, 28
1, 24260, Note_off_c, 0, 57, 64
1, 24260, Note_off_c, 0, 54, 64
1, 24264, Note_off_c, 0, 61, 64
1, 24292, Note_off_c, 0, 42, 64
1, 24348, Note_on_c, 0, 61, 26
1, 24348, Note_on_c, 0, 57, 20
1, 24348, Note_on_c, 0, 54, 30
1, 24432, Note_on_c, 0, 78, 58
1, 24436, Note_off_c, 0, 61, 64
1, 24436, Note_off_c, 0, 57, 64
1, 24436, Note_off_c, 0, 54, 64
1, 24496, Note_off_c, 0, 78, 64
1, 24496, Note_on_c, 0, 80, 58
1, 24516, Note_off_c, 0, 69, 64
1, 24544, Note_on_c, 0, 78, 58
1, 24544, Note_on_c, 0, 50, 43
1, 24556, Tempo, 500000
1, 24556, Control_c, 0, 64, 0
1, 24584, Note_off_c, 0, 80, 64
1, 24600, Control_c, 0, 64, 127
1, 24608, Note_on_c, 0, 77, 52
1, 24620, Note_off_c, 0, 78, 64
1, 24708, Control_c, 0, 64, 0
1, 24732, Note_on_c, 0, 78, 58
1, 24740, Note_on_c, 0, 57, 30
1, 24740, Note_on_c, 0, 54, 15
1, 24744, Note_on_c, 0, 62, 15
1, 24756, Note_off_c, 0, 77, 64
1, 24772, Control_c, 0, 64, 127
1, 24832, Note_off_c, 0, 57, 64
1, 24832, Note_off_c, 0, 54, 64
1, 24836, Note_off_c, 0, 62, 64
1, 24904, Note_off_c, 0, 50, 64
1, 24920, Note_on_c, 0, 57, 20
1, 24924, Note_on_c, 0, 62, 30
1, 24928, Note_on_c, 0, 54, 23
1, 24936, Note_on_c, 0, 74, 50
1, 24960, Note_off_c, 0, 78, 64
1, 25008, Note_off_c, 0, 57, 64
1, 25012, Note_off_c, 0, 62, 64
1, 25016, Note_off_c, 0, 54, 64
1, 25156, Control_c, 0, 64, 0
1, 25160, Note_on_c, 0, 73, 52
1, 25168, Note_on_c, 0, 45, 42
1, 25188, Note_off_c, 0, 74, 64
1, 25232, Control_c, 0, 64, 127
1, 25336, Control_c, 0, 64, 0
1, 25384, Note_on_c, 0, 69, 52
1, 25400, Control_c, 0, 64, 127
1, 25408, Note_on_c, 0, 61, 30
1, 25408, Note_on_c, 0, 57, 13
1, 25408, Note_on_c, 0, 52, 30
1, 25420, Note_off_c, 0, 73, 64
1, 25496, Note_off_c, 0, 61, 64
1, 25496, Note_off_c, 0, 57, 64
1, 25496, Note_off_c, 0, 52, 64
1, 25536, Note_off_c, 0, 45, 64
1, 25572, Note_on_c, 0, 52, 20
1, 25580, Note_on_c, 0, 61, 41
1, 25584, Note_on_c, 0, 57, 26
1, 25664, Note_off_c, 0, 52, 64
1, 25672, Note_off_c, 0, 61, 64
1, 25672, Note_on_c, 0, 78, 57
1, 25676, Note_off_c, 0, 57, 64
1, 25736, Note_off_c, 0, 78, 64
1, 25736, Note_on_c, 0, 80, 58
1, 25744, Note_off_c, 0, 69, 64
1, 25776, Control_c, 0, 64, 0
1, 25788, Note_on_c, 0, 78, 58
1, 25796, Note_on_c, 0, 47, 46
1, 25828, Note_off_c, 0, 80, 64
1, 25860, Control_c, 0, 64, 127
1, 25888, Note_on_c, 0, 77, 50
1, 25900, Note_off_c, 0, 78, 64
1, 25952, Control_c, 0, 64, 0
1, 25976, Note_on_c, 0, 54, 31
1, 25980, Note_on_c, 0, 62, 32
1, 25984, Note_on_c, 0, 59, 30
1, 25988, Note_on_c, 0, 78, 61
1, 26000, Control_c, 0, 64, 127
1, 26008, Note_off_c, 0, 77, 64
1, 26064, Note_off_c, 0, 54, 64
1, 26072, Note_off_c, 0, 62, 64
1, 26072, Note_off_c, 0, 59, 64
1, 26160, Note_off_c, 0, 47, 64
1, 26196, Note_on_c, 0, 59, 20
1, 26200, Note_on_c, 0, 54, 30
1, 26204, Note_on_c, 0, 74, 46
1, 26204, Note_on_c, 0, 62, 24
1, 26224, Note_off_c, 0, 78, 64
1, 26284, Note_off_c, 0, 59, 64
1, 26288, Note_off_c, 0, 54, 64
1, 26296, Note_off_c, 0, 62, 64
1, 26392, Control_c, 0, 64, 0
1, 26400, Note_on_c, 0, 73, 47
1, 26404, Note_on_c, 0, 52, 42
1, 26416, Note_off_c, 0, 74, 64
1, 26484, Control_c, 0, 64, 127
1, 26580, Control_c, 0, 64, 0
1, 26620, Control_c, 0, 64, 127
1, 26628, Note_on_c, 0, 61, 17
1, 26632, Note_on_c, 0, 69, 46
1, 26636, Note_off_c, 0, 73, 64
1, 26640, Note_on_c, 0, 64, 26
1, 26640, Note_on_c, 0, 57, 27
1, 26720, Note_off_c, 0, 61, 64
1, 26728, Note_off_c, 0, 64, 64
1, 26728, Note_off_c, 0, 57, 64
1, 26772, Note_off_c, 0, 52, 64
1, 26808, Note_on_c, 0, 57, 27
1, 26812, Note_on_c, 0, 64, 30
1, 26812, Note_on_c, 0, 61, 28
1, 26876, Note_on_c, 0, 68, 58
1, 26896, Note_off_c, 0, 57, 64
1, 26900, Note_off_c, 0, 69, 64
1, 26904, Note_off_c, 0, 64, 64
1, 26904, Note_off_c, 0, 61, 64
1, 26940, Note_on_c, 0, 78, 38
1, 26952, Note_off_c, 0, 68, 64
1, 26984, Note_on_c, 0, 80, 63
1, 26996, Note_off_c, 0, 78, 64
1, 27028, Note_on_c, 0, 40, 42
1, 27040, Control_c, 0, 64, 0
1, 27056, Note_on_c, 0, 78, 58
1, 27092, Note_off_c, 0, 80, 64
1, 27116, Control_c, 0, 64, 127
1, 27136, Note_on_c, 0, 77, 49
1, 27160, Note_off_c, 0, 78, 64
1, 27216, Control_c, 0, 64, 0
1, 27236, Note_on_c, 0, 78, 63
1, 27236, Note_on_c, 0, 52, 30
1, 27248, Note_on_c, 0, 56, 31
1, 27248, Note_on_c, 0, 62, 34
1, 27252, Note_off_c, 0, 77, 64
1, 27264, Control_c, 0, 64, 127
1, 27328, Note_off_c, 0, 52, 64
1, 27336, Note_off_c, 0, 56, 64
1, 27340, Note_off_c, 0, 62, 64
1, 27392, Note_off_c, 0, 40, 64
1, 27452, Note_on_c, 0, 56, 27
1, 27456, Note_on_c, 0, 52, 20
1, 27460, Note_on_c, 0, 62, 24
1, 27464, Note_on_c, 0, 74, 42
1, 27488, Note_off_c, 0, 78, 64
1, 27544, Note_off_c, 0, 56, 64
1, 27544, Note_off_c, 0, 52, 64
1, 27552, Note_off_c, 0, 62, 64
1, 27692, Control_c, 0, 64, 0
1, 27708, Note_on_c, 0, 45, 45
1, 27720, Note_on_c, 0, 73, 49
1, 27752, Note_off_c, 0, 74, 64
1, 27768, Control_c, 0, 64, 127
1, 27964, Note_on_c, 0, 69, 46
1, 27984, Note_off_c, 0, 73, 64
1, 27992, Note_on_c, 0, 52, 30
1, 28000, Note_on_c, 0, 61, 32
1, 28000, Note_on_c, 0, 57, 27
1, 28072, Note_off_c, 0, 45, 64
1, 28080, Note_off_c, 0, 52, 64
1, 28088, Note_off_c, 0, 61, 64
1, 28088, Note_off_c, 0, 57, 64
1, 28224, Note_on_c, 0, 61, 24
1, 28224, Note_on_c, 0, 57, 19
1, 28228, Note_on_c, 0, 52, 19
1, 28312, Note_off_c, 0, 61, 64
1, 28312, Note_off_c, 0, 57, 64
1, 28316, Note_off_c, 0, 52, 64
1, 28324, Note_off_c, 0, 69, 64
1, 28360, Note_on_c, 0, 78, 43
1, 28416, Note_on_c, 0, 80, 43
1, 28424, Note_off_c, 0, 78, 64
1, 28460, Control_c, 0, 64, 0
1, 28472, Note_on_c, 0, 78, 41
1, 28472, Note_on_c, 0, 47, 24
1, 28512, Note_off_c, 0, 80, 64
1, 28544, Control_c, 0, 64, 127
1, 28576, Note_on_c, 0, 77, 34
1, 28584, Note_off_c, 0, 78, 64
1, 28632, Control_c, 0, 64, 0
1, 28672, Control_c, 0, 64, 127
1, 28688, Note_on_c, 0, 78, 45
1, 28688, Note_on_c, 0, 62, 6
1, 28688, Note_on_c, 0, 59, 15
1, 28688, Note_on_c, 0, 54, 20
1, 28692, Note_off_c, 0, 77, 64
1, 28780, Note_off_c, 0, 62, 64
1, 28780, Note_off_c, 0, 59, 64
1, 28780, Note_off_c, 0, 54, 64
1, 28840, Note_off_c, 0, 47, 64
1, 28880, Note_on_c, 0, 59, 15
1, 28884, Note_on_c, 0, 74, 36
1, 28888, Note_on_c, 0, 54, 19
1, 28892, Note_on_c, 0, 62, 19
1, 28932, Note_off_c, 0, 78, 64
1, 28972, Note_off_c, 0, 59, 64
1, 28976, Note_off_c, 0, 54, 64
1, 28984, Note_off_c, 0, 62, 64
1, 29088, Control_c, 0, 64, 0
1, 29100, Note_on_c, 0, 42, 35
1, 29100, Note_on_c, 0, 73, 32
1, 29120, Note_off_c, 0, 74, 64
1, 29148, Control_c, 0, 64, 127
1, 29268, Control_c, 0, 64, 0
1, 29320, Control_c, 0, 64, 127
1, 29328, Note_on_c, 0, 69, 31
1, 29328, Note_on_c, 0, 57, 20
1, 29328, Note_on_c, 0, 54, 17
1, 29332, Note_on_c, 0, 61, 23
1, 29364, Note_off_c, 0, 73, 64
1, 29420, Note_off_c, 0, 57, 64
1, 29420, Note_off_c, 0, 54, 64
1, 29424, Note_off_c, 0, 61, 64
1, 29464, Note_off_c, 0, 42, 64
1, 29520, Note_on_c, 0, 54, 10
1, 29528, Note_on_c, 0, 57, 23
1, 29532, Note_on_c, 0, 61, 19
1, 29612, Note_off_c, 0, 54, 64
1, 29616, Note_off_c, 0, 57, 64
1, 29620, Note_off_c, 0, 61, 64
1, 29656, Note_on_c, 0, 78, 42
1, 29688, Note_off_c, 0, 69, 64
1, 29708, Note_on_c, 0, 80, 42
1, 29720, Note_off_c, 0, 78, 64
1, 29748, Note_on_c, 0, 50, 21
1, 29748, Control_c, 0, 64, 0
1, 29760, Note_on_c, 0, 78, 41
1, 29800, Note_off_c, 0, 80, 64
1, 29812, Control_c, 0, 64, 127
1, 29852, Note_on_c, 0, 77, 38
1, 29860, Note_off_c, 0, 78, 64
1, 29908, Control_c, 0, 64, 0
1, 29952, Note_on_c, 0, 57, 13
1, 29956, Note_on_c, 0, 62, 19
1, 29956, Note_on_c, 0, 54, 20
1, 29960, Note_on_c, 0, 78, 41
1, 29980, Note_off_c, 0, 77, 64
1, 29984, Control_c, 0, 64, 127
1, 30040, Note_off_c, 0, 57, 64
1, 30048, Note_off_c, 0, 62, 64
1, 30048, Note_off_c, 0, 54, 64
1, 30116, Note_off_c, 0, 50, 64
1, 30168, Note_on_c, 0, 62, 19
1, 30168, Note_on_c, 0, 57, 19
1, 30176, Note_on_c, 0, 74, 30
1, 30180, Note_on_c, 0, 54, 17
1, 30248, Note_off_c, 0, 78, 64
1, 30256, Note_off_c, 0, 62, 64
1, 30256, Note_off_c, 0, 57, 64
1, 30268, Note_off_c, 0, 54, 64
1, 30384, Control_c, 0, 64, 0
1, 30392, Note_on_c, 0, 73, 36
1, 30396, Note_on_c, 0, 45, 31
1, 30408, Note_off_c, 0, 74, 64
1, 30456, Control_c, 0, 64, 127
1, 30564, Control_c, 0, 64, 0
1, 30588, Control_c, 0, 64, 127
1, 30604, Note_on_c, 0, 69, 34
1, 30604, Note_on_c, 0, 61, 19
1, 30608, Note_on_c, 0, 57, 16
1, 30608, Note_on_c, 0, 52, 15
1, 30632, Note_off_c, 0, 73, 64
1, 30692, Note_off_c, 0, 61, 64
1, 30700, Note_off_c, 0, 57, 64
1, 30700, Note_off_c, 0, 52, 64
1, 30760, Note_off_c, 0, 45, 64
1, 30808, Note_on_c, 0, 57, 16
1, 30816, Note_on_c, 0, 52, 17
1, 30816, Note_on_c, 0, 61, 15
1, 30896, Note_off_c, 0, 57, 64
1, 30904, Note_off_c, 0, 52, 64
1, 30908, Note_off_c, 0, 61, 64
1, 30924, Note_on_c, 0, 78, 36
1, 30964, Note_off_c, 0, 69, 64
1, 30984, Note_off_c, 0, 78, 64
1, 30984, Note_on_c, 0, 80, 38
1, 31008, Control_c, 0, 64, 0
1, 31020, Note_on_c, 0, 47, 26
1, 31028, Note_on_c, 0, 78, 38
1, 31072, Note_off_c, 0, 80, 64
1, 31088, Control_c, 0, 64, 127
1, 31116, Note_on_c, 0, 77, 36
1, 31132, Note_off_c, 0, 78, 64
1, 31208, Note_on_c, 0, 62, 20
1, 31220, Note_on_c, 0, 59, 15
1, 31220, Note_on_c, 0, 54, 21
1, 31228, Note_on_c, 0, 78, 41
1, 31248, Note_off_c, 0, 77, 64
1, 31296, Note_off_c, 0, 62, 64
1, 31312, Note_off_c, 0, 59, 64
1, 31312, Note_off_c, 0, 54, 64
1, 31384, Note_off_c, 0, 47, 64
1, 31432, Note_on_c, 0, 74, 31
1, 31448, Note_on_c, 0, 54, 10
1, 31448, Note_on_c, 0, 59, 15
1, 31460, Note_on_c, 0, 62, 15
1, 31468, Note_off_c, 0, 78, 64
1, 31536, Note_off_c, 0, 54, 64
1, 31536, Note_off_c, 0, 59, 64
1, 31552, Note_off_c, 0, 62, 64
1, 31644, Note_on_c, 0, 73, 31
1, 31652, Note_off_c, 0, 74, 64
1, 31652, Control_c, 0, 64, 0
1, 31660, Note_on_c, 0, 52, 26
1, 31740, Control_c, 0, 64, 127
1, 31884, Note_on_c, 0, 64, 16
1, 31884, Note_on_c, 0, 57, 16
1, 31892, Note_on_c, 0, 69, 28
1, 31896, Note_on_c, 0, 61, 13
1, 31908, Note_off_c, 0, 73, 64
1, 31972, Note_off_c, 0, 64, 64
1, 31972, Note_off_c, 0, 57, 64
1, 31984, Note_off_c, 0, 61, 64
1, 32028, Note_off_c, 0, 52, 64
1, 32108, Note_on_c, 0, 64, 17
1, 32108, Note_on_c, 0, 61, 15
1, 32112, Note_on_c, 0, 57, 13
1, 32180, Note_on_c, 0, 68, 38
1, 32196, Note_off_c, 0, 64, 64
1, 32196, Note_off_c, 0, 61, 64
1, 32200, Note_off_c, 0, 69, 64
1, 32200, Note_off_c, 0, 57, 64
1, 32256, Note_on_c, 0, 78, 23
1, 32280, Note_off_c, 0, 68, 64
1, 32296, Note_on_c, 0, 80, 39
1, 32316, Note_off_c, 0, 78, 64
1, 32332, Note_on_c, 0, 40, 19
1, 32340, Control_c, 0, 64, 0
1, 32364, Note_on_c, 0, 78, 38
1, 32392, Note_off_c, 0, 80, 64
1, 32416, Control_c, 0, 64, 127
1, 32472, Note_off_c, 0, 78, 64
1, 32476, Note_on_c, 0, 77, 31
1, 32556, Note_on_c, 0, 52, 16
1, 32556, Note_on_c, 0, 62, 16
1, 32560, Note_on_c, 0, 56, 6
1, 32568, Note_on_c, 0, 78, 39
1, 32592, Note_off_c, 0, 77, 64
1, 32644, Note_off_c, 0, 52, 64
1, 32648, Note_off_c, 0, 62, 64
1, 32652, Note_off_c, 0, 56, 64
1, 32696, Note_off_c, 0, 40, 64
1, 32800, Note_on_c, 0, 56, 9
1, 32800, Note_on_c, 0, 52, 8
1, 32804, Note_on_c, 0, 62, 16
1, 32812, Note_on_c, 0, 74, 30
1, 32824, Note_off_c, 0, 78, 64
1, 32888, Note_off_c, 0, 56, 64
1, 32888, Note_off_c, 0, 52, 64
1, 32896, Note_off_c, 0, 62, 64
1, 33064, Control_c, 0, 64, 0
1, 33076, Note_on_c, 0, 73, 32
1, 33076, Note_on_c, 0, 45, 24
1, 33092, Control_c, 0, 64, 0
1, 33112, Note_off_c, 0, 74, 64
1, 33136, Control_c, 0, 64, 127
1, 33408, Note_on_c, 0, 69, 30
1, 33420, Note_on_c, 0, 57, 15
1, 33424, Note_on_c, 0, 61, 17
1, 33444, Note_off_c, 0, 45, 64
1, 33464, Note_off_c, 0, 73, 64
1, 33508, Note_off_c, 0, 57, 64
1, 33512, Note_off_c, 0, 61, 64
1, 33740, Note_on_c, 0, 66, 60
1, 33740, Note_on_c, 0, 59, 26
1, 33740, Note_on_c, 0, 56, 23
1, 33740, Note_on_c, 0, 47, 12
1, 33748, Note_on_c, 0, 62, 26
1, 33768, Note_off_c, 0, 69, 64
1, 33772, Control_c, 0, 64, 0
1, 33828, Note_off_c, 0, 47, 64
1, 33828, Note_off_c, 0, 56, 64
1, 33828, Note_off_c, 0, 59, 64
1, 33836, Note_off_c, 0, 62, 64
1, 33840, Control_c, 0, 64, 127
1, 34020, Control_c, 0, 64, 0
1, 34032, Note_on_c, 0, 65, 64
1, 34032, Note_on_c, 0, 59, 30
1, 34032, Note_on_c, 0, 49, 32
1, 34036, Note_on_c, 0, 62, 34
1, 34040, Note_off_c, 0, 66, 64
1, 34048, Note_on_c, 0, 56, 35
1, 34084, Control_c, 0, 64, 127
1, 34124, Note_off_c, 0, 59, 64
1, 34124, Note_off_c, 0, 49, 64
1, 34128, Note_off_c, 0, 62, 64
1, 34132, Note_on_c, 0, 66, 58
1, 34136, Note_off_c, 0, 56, 64
1, 34156, Note_off_c, 0, 65, 64
1, 34232, Control_c, 0, 64, 0
1, 34256, Note_on_c, 0, 49, 32
1, 34256, Note_on_c, 0, 62, 32
1, 34256, Note_on_c, 0, 59, 24
1, 34256, Note_on_c, 0, 54, 35
1, 34264, Note_on_c, 0, 68, 56
1, 34272, Note_off_c, 0, 66, 64
1, 34284, Control_c, 0, 64, 127
1, 34344, Note_off_c, 0, 49, 64
1, 34348, Note_off_c, 0, 62, 64
1, 34348, Note_off_c, 0, 59, 64
1, 34348, Note_off_c, 0, 54, 64
1, 34464, Control_c, 0, 64, 0
1, 34480, Note_on_c, 0, 53, 19
1, 34480, Note_on_c, 0, 49, 31
1, 34484, Note_on_c, 0, 69, 58
1, 34488, Note_on_c, 0, 59, 31
1, 34492, Note_on_c, 0, 61, 31
1, 34516, Control_c, 0, 64, 127
1, 34524, Note_off_c, 0, 68, 64
1, 34572, Note_off_c, 0, 53, 64
1, 34572, Note_off_c, 0, 49, 64
1, 34576, Note_off_c, 0, 59, 64
1, 34576, Note_on_c, 0, 68, 46
1, 34584, Note_off_c, 0, 61, 64
1, 34592, Note_off_c, 0, 69, 64
1, 34680, Control_c, 0, 64, 0
1, 34688, Note_off_c, 0, 68, 64
1, 34688, Note_on_c, 0, 61, 38
1, 34688, Note_on_c, 0, 66, 60
1, 34704, Note_on_c, 0, 42, 38
1, 34724, Control_c, 0, 64, 127
1, 34776, Note_off_c, 0, 61, 64
1, 34792, Note_on_c, 0, 68, 35
1, 34832, Note_off_c, 0, 66, 64
1, 34868, Control_c, 0, 64, 0
1, 34892, Note_on_c, 0, 69, 58
1, 34892, Note_on_c, 0, 54, 39
1, 34904, Note_on_c, 0, 57, 39
1, 34904, Note_on_c, 0, 61, 42
1, 34916, Note_off_c, 0, 68, 64
1, 34932, Control_c, 0, 64, 127
1, 34980, Note_off_c, 0, 54, 64
1, 34992, Note_off_c, 0, 57, 64
1, 34996, Note_off_c, 0, 61, 64
1, 35008, Control_c, 0, 64, 0
1, 35068, Note_off_c, 0, 42, 64
1, 35076, Control_c, 0, 64, 0
1, 35096, Note_on_c, 0, 63, 46
1, 35096, Note_on_c, 0, 57, 36
1, 35100, Note_on_c, 0, 53, 35
1, 35100, Note_on_c, 0, 71, 58
1, 35120, Note_off_c, 0, 69, 64
1, 35132, Control_c, 0, 64, 127
1, 35184, Note_off_c, 0, 63, 64
1, 35184, Note_off_c, 0, 57, 64
1, 35188, Note_off_c, 0, 53, 64
1, 35208, Note_on_c, 0, 69, 52
1, 35224, Note_off_c, 0, 71, 64
1, 35280, Control_c, 0, 64, 0
1, 35300, Note_on_c, 0, 68, 64
1, 35300, Note_on_c, 0, 64, 52
1, 35300, Note_on_c, 0, 59, 49
1, 35304, Note_on_c, 0, 52, 47
1, 35320, Note_off_c, 0, 69, 64
1, 35332, Control_c, 0, 64, 127
1, 35380, Note_on_c, 0, 69, 50
1, 35392, Note_off_c, 0, 59, 64
1, 35392, Note_off_c, 0, 64, 64
1, 35396, Note_off_c, 0, 52, 64
1, 35436, Note_off_c, 0, 68, 64
1, 35472, Control_c, 0, 64, 0
1, 35488, Note_on_c, 0, 57, 50
1, 35488, Note_on_c, 0, 71, 65
1, 35492, Note_on_c, 0, 65, 52
1, 35492, Note_on_c, 0, 62, 45
1, 35492, Note_on_c, 0, 52, 34
1, 35524, Control_c, 0, 64, 127
1, 35536, Note_off_c, 0, 69, 64
1, 35576, Note_off_c, 0, 57, 64
1, 35584, Note_off_c, 0, 65, 64
1, 35584, Note_off_c, 0, 62, 64
1, 35584, Note_off_c, 0, 52, 64
1, 35656, Control_c, 0, 64, 0
1, 35688, Note_on_c, 0, 73, 69
1, 35696, Note_on_c, 0, 64, 50
1, 35696, Note_on_c, 0, 62, 39
1, 35704, Note_off_c, 0, 71, 64
1, 35708, Note_on_c, 0, 56, 36
1, 35708, Note_on_c, 0, 52, 42
1, 35724, Control_c, 0, 64, 127
1, 35776, Note_on_c, 0, 71, 58
1, 35788, Note_off_c, 0, 64, 64
1, 35788, Note_off_c, 0, 62, 64
1, 35792, Note_off_c, 0, 73, 64
1, 35796, Note_off_c, 0, 56, 64
1, 35796, Note_off_c, 0, 52, 64
1, 35872, Control_c, 0, 64, 0
1, 35884, Note_on_c, 0, 45, 69
1, 35892, Note_on_c, 0, 69, 64
1, 35904, Note_off_c, 0, 71, 64
1, 35908, Note_on_c, 0, 64, 53
1, 35924, Control_c, 0, 64, 127
1, 35984, Note_on_c, 0, 71, 53
1, 35996, Note_off_c, 0, 64, 64
1, 36016, Note_off_c, 0, 69, 64
1, 36040, Control_c, 0, 64, 0
1, 36096, Note_on_c, 0, 57, 46
1, 36100, Note_on_c, 0, 69, 58
1, 36104, Note_on_c, 0, 73, 64
1, 36104, Note_on_c, 0, 64, 31
1, 36120, Control_c, 0, 64, 127
1, 36148, Note_off_c, 0, 71, 64
1, 36184, Note_off_c, 0, 57, 64
1, 36192, Note_off_c, 0, 69, 64
1, 36196, Note_off_c, 0, 64, 64
1, 36248, Note_off_c, 0, 45, 64
1, 36264, Control_c, 0, 64, 0
1, 36284, Control_c, 0, 64, 127
1, 36296, Note_on_c, 0, 57, 46
1, 36300, Note_on_c, 0, 61, 49
1, 36300, Note_on_c, 0, 75, 69
1, 36300, Note_on_c, 0, 67, 52
1, 36336, Note_off_c, 0, 73, 64
1, 36384, Note_off_c, 0, 57, 64
1, 36388, Note_off_c, 0, 61, 64
1, 36388, Note_on_c, 0, 73, 64
1, 36392, Note_off_c, 0, 67, 64
1, 36408, Note_off_c, 0, 75, 64
1, 36468, Control_c, 0, 64, 0
1, 36492, Note_on_c, 0, 56, 58
1, 36500, Note_on_c, 0, 72, 61
1, 36504, Note_off_c, 0, 73, 64
1, 36504, Note_on_c, 0, 63, 47
1, 36508, Note_on_c, 0, 68, 53
1, 36536, Control_c, 0, 64, 127
1, 36580, Note_off_c, 0, 56, 64
1, 36592, Note_off_c, 0, 63, 64
1, 36596, Note_off_c, 0, 68, 64
1, 36596, Note_on_c, 0, 73, 68
1, 36624, Note_off_c, 0, 72, 64
1, 36648, Control_c, 0, 64, 0
1, 36684, Note_on_c, 0, 56, 23
1, 36688, Note_on_c, 0, 61, 52
1, 36688, Note_on_c, 0, 69, 61
1, 36688, Note_on_c, 0, 66, 46
1, 36696, Note_on_c, 0, 75, 69
1, 36720, Note_off_c, 0, 73, 64
1, 36720, Control_c, 0, 64, 127
1, 36772, Note_off_c, 0, 56, 64
1, 36776, Note_off_c, 0, 61, 64
1, 36780, Note_off_c, 0, 69, 64
1, 36780, Note_off_c, 0, 66, 64
1, 36880, Note_on_c, 0, 60, 58
1, 36880, Note_on_c, 0, 56, 56
1, 36888, Note_on_c, 0, 68, 61
1, 36892, Note_on_c, 0, 77, 64
1, 36892, Note_on_c, 0, 66, 54
1, 36912, Note_off_c, 0, 75, 64
1, 36972, Note_off_c, 0, 60, 64
1, 36972, Note_off_c, 0, 56, 64
1, 36976, Note_off_c, 0, 68, 64
1, 36980, Note_off_c, 0, 66, 64
1, 36980, Note_on_c, 0, 75, 54
1, 37000, Note_off_c, 0, 77, 64
1, 37084, Note_on_c, 0, 49, 76
1, 37084, Control_c, 0, 64, 0
1, 37096, Note_off_c, 0, 75, 64
1, 37096, Note_on_c, 0, 73, 73
1, 37104, Note_on_c, 0, 71, 60
1, 37120, Control_c, 0, 64, 127
1, 37176, Note_on_c, 0, 75, 71
1, 37192, Note_off_c, 0, 71, 64
1, 37228, Control_c, 0, 64, 0
1, 37240, Note_off_c, 0, 73, 64
1, 37260, Note_on_c, 0, 61, 58
1, 37264, Note_on_c, 0, 71, 50
1, 37264, Note_on_c, 0, 68, 60
1, 37272, Note_on_c, 0, 73, 50
1, 37276, Note_on_c, 0, 77, 69
1, 37312, Control_c, 0, 64, 127
1, 37336, Note_off_c, 0, 75, 64
1, 37348, Note_off_c, 0, 61, 64
1, 37356, Note_off_c, 0, 71, 64
1, 37356, Note_off_c, 0, 68, 64
1, 37360, Note_off_c, 0, 73, 64
1, 37420, Note_off_c, 0, 77, 64
1, 37448, Note_off_c, 0, 49, 64
1, 37456, Control_c, 0, 64, 0
1, 37472, Note_on_c, 0, 78, 75
1, 37476, Note_on_c, 0, 73, 57
1, 37476, Note_on_c, 0, 69, 60
1, 37476, Note_on_c, 0, 61, 56
1, 37484, Control_c, 0, 64, 127
1, 37568, Note_off_c, 0, 73, 64
1, 37568, Note_off_c, 0, 69, 64
1, 37568, Note_off_c, 0, 61, 64
1, 37648, Note_off_c, 0, 78, 64
1, 37680, Note_on_c, 0, 71, 54
1, 37688, Note_on_c, 0, 73, 53
1, 37688, Note_on_c, 0, 68, 71
1, 37688, Note_on_c, 0, 61, 54
1, 37692, Note_on_c, 0, 77, 63
1, 37772, Note_off_c, 0, 71, 64
1, 37772, Note_on_c, 0, 78, 61
1, 37776, Note_off_c, 0, 73, 64
1, 37776, Note_off_c, 0, 61, 64
1, 37780, Note_off_c, 0, 77, 64
1, 37792, Note_on_c, 0, 66, 75
1, 37804, Note_off_c, 0, 68, 64
1, 37860, Note_on_c, 0, 71, 50
1, 37860, Note_on_c, 0, 65, 72
1, 37860, Note_on_c, 0, 61, 56
1, 37868, Note_on_c, 0, 80, 75
1, 37868, Note_on_c, 0, 73, 58
1, 37884, Note_off_c, 0, 78, 64
1, 37896, Note_off_c, 0, 66, 64
1, 37952, Note_off_c, 0, 71, 64
1, 37952, Note_off_c, 0, 65, 64
1, 37952, Note_off_c, 0, 61, 64
1, 37956, Note_off_c, 0, 73, 64
1, 38016, Note_off_c, 0, 80, 64
1, 38092, Control_c, 0, 64, 0
1, 38104, Note_on_c, 0, 61, 58
1, 38104, Note_on_c, 0, 81, 72
1, 38104, Note_on_c, 0, 73, 46
1, 38104, Note_on_c, 0, 71, 52
1, 38104, Note_on_c, 0, 65, 73
1, 38128, Control_c, 0, 64, 127
1, 38192, Note_off_c, 0, 61, 64
1, 38192, Note_off_c, 0, 73, 64
1, 38192, Note_off_c, 0, 71, 64
1, 38192, Note_off_c, 0, 65, 64
1, 38200, Control_c, 0, 64, 0
1, 38268, Note_off_c, 0, 81, 64
1, 38276, Control_c, 0, 64, 0
1, 38304, Note_on_c, 0, 78, 68
1, 38304, Note_on_c, 0, 42, 71
1, 38312, Control_c, 0, 64, 0
1, 38392, Control_c, 0, 64, 127
1, 38532, Note_on_c, 0, 69, 53
1, 38532, Note_on_c, 0, 61, 50
1, 38544, Note_on_c, 0, 73, 54
1, 38544, Note_on_c, 0, 66, 17
1, 38544, Note_on_c, 0, 54, 1
1, 38648, Note_off_c, 0, 78, 64
1, 38688, Note_off_c, 0, 69, 64
1, 38688, Note_off_c, 0, 61, 64
1, 38696, Note_off_c, 0, 73, 64
1, 38696, Note_off_c, 0, 66, 64
1, 38700, Note_off_c, 0, 54, 64
1, 38788, Note_off_c, 0, 42, 64
1, 38812, Note_on_c, 0, 66, 60
1, 38812, Control_c, 0, 64, 0
1, 38816, Note_on_c, 0, 56, 46
1, 38816, Note_on_c, 0, 50, 36
1, 38820, Note_on_c, 0, 60, 43
1, 38900, Control_c, 0, 64, 127
1, 38904, Note_off_c, 0, 56, 64
1, 38904, Note_off_c, 0, 50, 64
1, 38908, Note_off_c, 0, 60, 64
1, 39036, Control_c, 0, 64, 0
1, 39048, Note_on_c, 0, 49, 41
1, 39052, Note_on_c, 0, 56, 43
1, 39056, Note_on_c, 0, 61, 38
1, 39056, Note_on_c, 0, 65, 60
1, 39080, Note_off_c, 0, 66, 64
1, 39116, Control_c, 0, 64, 127
1, 39136, Note_off_c, 0, 49, 64
1, 39140, Note_off_c, 0, 56, 64
1, 39144, Note_off_c, 0, 61, 64
1, 39164, Note_on_c, 0, 66, 56
1, 39168, Note_off_c, 0, 65, 64
1, 39228, Control_c, 0, 64, 0
1, 39268, Note_on_c, 0, 62, 39
1, 39268, Note_on_c, 0, 54, 38
1, 39268, Note_on_c, 0, 49, 42
1, 39272, Note_on_c, 0, 68, 61
1, 39272, Note_on_c, 0, 59, 31
1, 39280, Note_off_c, 0, 66, 64
1, 39300, Control_c, 0, 64, 127
1, 39356, Note_off_c, 0, 62, 64
1, 39360, Note_off_c, 0, 54, 64
1, 39360, Note_off_c, 0, 49, 64
1, 39364, Note_off_c, 0, 59, 64
1, 39460, Control_c, 0, 64, 0
1, 39488, Note_on_c, 0, 49, 24
1, 39488, Note_on_c, 0, 59, 23
1, 39488, Note_on_c, 0, 61, 31
1, 39488, Note_on_c, 0, 53, 31
1, 39496, Note_on_c, 0, 69, 61
1, 39516, Control_c, 0, 64, 127
1, 39528, Note_off_c, 0, 68, 64
1, 39576, Note_off_c, 0, 49, 64
1, 39576, Note_off_c, 0, 59, 64
1, 39580, Note_off_c, 0, 61, 64
1, 39580, Note_off_c, 0, 53, 64
1, 39584, Note_on_c, 0, 68, 50
1, 39592, Note_off_c, 0, 69, 64
1, 39684, Control_c, 0, 64, 0
1, 39692, Note_on_c, 0, 61, 47
1, 39692, Note_on_c, 0, 42, 61
1, 39692, Note_on_c, 0, 66, 54
1, 39696, Note_off_c, 0, 68, 64
1, 39744, Control_c, 0, 64, 127
1, 39780, Note_off_c, 0, 61, 64
1, 39784, Note_on_c, 0, 68, 46
1, 39804, Note_off_c, 0, 66, 64
1, 39872, Control_c, 0, 64, 0
1, 39888, Note_on_c, 0, 69, 61
1, 39888, Note_on_c, 0, 57, 30
1, 39888, Note_on_c, 0, 54, 27
1, 39892, Note_on_c, 0, 61, 49
1, 39924, Control_c, 0, 64, 127
1, 39928, Note_off_c, 0, 68, 64
1, 39980, Note_off_c, 0, 54, 64
1, 39980, Note_off_c, 0, 57, 64
1, 39984, Note_off_c, 0, 61, 64
1, 40060, Note_off_c, 0, 42, 64
1, 40064, Control_c, 0, 64, 0
1, 40080, Note_on_c, 0, 71, 50
1, 40080, Note_on_c, 0, 53, 42
1, 40088, Note_on_c, 0, 57, 38
1, 40092, Note_on_c, 0, 63, 50
1, 40116, Note_off_c, 0, 69, 64
1, 40120, Control_c, 0, 64, 127
1, 40172, Note_off_c, 0, 53, 64
1, 40176, Note_off_c, 0, 57, 64
1, 40180, Note_off_c, 0, 63, 64
1, 40184, Note_on_c, 0, 69, 50
1, 40192, Note_off_c, 0, 71, 64
1, 40264, Control_c, 0, 64, 0
1, 40276, Note_on_c, 0, 68, 61
1, 40280, Note_on_c, 0, 64, 38
1, 40280, Note_on_c, 0, 59, 46
1, 40280, Note_on_c, 0, 52, 46
1, 40292, Control_c, 0, 64, 127
1, 40304, Note_off_c, 0, 69, 64
1, 40364, Note_on_c, 0, 69, 41
1, 40368, Note_off_c, 0, 64, 64
1, 40368, Note_off_c, 0, 59, 64
1, 40368, Note_off_c, 0, 52, 64
1, 40408, Note_off_c, 0, 68, 64
1, 40444, Control_c, 0, 64, 0
1, 40464, Note_on_c, 0, 57, 41
1, 40464, Note_on_c, 0, 52, 38
1, 40472, Note_on_c, 0, 65, 49
1, 40472, Note_on_c, 0, 62, 42
1, 40476, Note_on_c, 0, 71, 58
1, 40512, Control_c, 0, 64, 127
1, 40536, Note_off_c, 0, 69, 64
1, 40556, Note_off_c, 0, 57, 64
1, 40556, Note_off_c, 0, 52, 64
1, 40560, Note_off_c, 0, 65, 64
1, 40560, Note_off_c, 0, 62, 64
1, 40624, Control_c, 0, 64, 0
1, 40668, Note_on_c, 0, 73, 61
1, 40672, Note_on_c, 0, 56, 34
1, 40680, Note_on_c, 0, 62, 45
1, 40680, Note_on_c, 0, 52, 36
1, 40680, Note_on_c, 0, 64, 47
1, 40696, Control_c, 0, 64, 127
1, 40704, Note_off_c, 0, 71, 64
1, 40752, Note_on_c, 0, 71, 46
1, 40760, Note_off_c, 0, 56, 64
1, 40768, Note_off_c, 0, 62, 64
1, 40768, Note_off_c, 0, 52, 64
1, 40768, Note_off_c, 0, 64, 64
1, 40772, Note_off_c, 0, 73, 64
1, 40856, Note_on_c, 0, 69, 58
1, 40864, Note_on_c, 0, 45, 61
1, 40868, Note_on_c, 0, 64, 39
1, 40872, Note_off_c, 0, 71, 64
1, 40940, Note_on_c, 0, 71, 56
1, 40956, Note_off_c, 0, 64, 64
1, 40992, Note_off_c, 0, 69, 64
1, 41012, Control_c, 0, 64, 0
1, 41040, Note_on_c, 0, 57, 46
1, 41048, Note_on_c, 0, 69, 53
1, 41052, Note_on_c, 0, 64, 50
1, 41056, Note_on_c, 0, 73, 61
1, 41076, Control_c, 0, 64, 127
1, 41088, Note_off_c, 0, 71, 64
1, 41128, Note_off_c, 0, 57, 64
1, 41136, Note_off_c, 0, 69, 64
1, 41140, Note_off_c, 0, 64, 64
1, 41228, Note_off_c, 0, 45, 64
1, 41240, Note_on_c, 0, 67, 45
1, 41240, Note_on_c, 0, 61, 50
1, 41240, Note_on_c, 0, 57, 38
1, 41248, Note_on_c, 0, 75, 64
1, 41272, Note_off_c, 0, 73, 64
1, 41328, Note_off_c, 0, 67, 64
1, 41328, Note_off_c, 0, 61, 64
1, 41328, Note_off_c, 0, 57, 64
1, 41328, Note_on_c, 0, 73, 53
1, 41344, Note_off_c, 0, 75, 64
1, 41416, Control_c, 0, 64, 0
1, 41428, Note_on_c, 0, 56, 53
1, 41432, Note_on_c, 0, 63, 52
1, 41436, Note_on_c, 0, 72, 58
1, 41440, Note_on_c, 0, 68, 52
1, 41460, Note_off_c, 0, 73, 64
1, 41464, Control_c, 0, 64, 127
1, 41516, Note_off_c, 0, 56, 64
1, 41520, Note_off_c, 0, 63, 64
1, 41528, Note_off_c, 0, 68, 64
1, 41528, Note_on_c, 0, 73, 58
1, 41552, Note_off_c, 0, 72, 64
1, 41576, Control_c, 0, 64, 0
1, 41612, Note_on_c, 0, 68, 52
1, 41612, Note_on_c, 0, 61, 46
1, 41612, Note_on_c, 0, 56, 46
1, 41620, Note_on_c, 0, 66, 52
1, 41624, Note_on_c, 0, 75, 61
1, 41648, Control_c, 0, 64, 127
1, 41652, Note_off_c, 0, 73, 64
1, 41700, Note_off_c, 0, 68, 64
1, 41700, Note_off_c, 0, 61, 64
1, 41704, Note_off_c, 0, 56, 64
1, 41712, Note_off_c, 0, 66, 64
1, 41808, Note_on_c, 0, 66, 52
1, 41812, Note_on_c, 0, 77, 61
1, 41824, Note_on_c, 0, 60, 50
1, 41824, Note_on_c, 0, 56, 50
1, 41828, Note_on_c, 0, 68, 57
1, 41840, Note_off_c, 0, 75, 64
1, 41900, Note_off_c, 0, 66, 64
1, 41904, Note_on_c, 0, 75, 69
1, 41912, Note_off_c, 0, 60, 64
1, 41912, Note_off_c, 0, 56, 64
1, 41920, Note_off_c, 0, 77, 64
1, 41920, Note_off_c, 0, 68, 64
1, 41996, Note_on_c, 0, 71, 26
1, 42004, Note_on_c, 0, 49, 67
1, 42008, Note_on_c, 0, 73, 75
1, 42008, Note_on_c, 0, 61, 50
1, 42016, Note_off_c, 0, 75, 64
1, 42084, Note_off_c, 0, 71, 64
1, 42088, Note_on_c, 0, 75, 64
1, 42096, Note_off_c, 0, 61, 64
1, 42124, Note_off_c, 0, 73, 64
1, 42176, Control_c, 0, 64, 0
1, 42180, Note_on_c, 0, 77, 69
1, 42184, Note_on_c, 0, 71, 46
1, 42188, Note_on_c, 0, 73, 53
1, 42188, Note_on_c, 0, 68, 61
1, 42188, Note_on_c, 0, 61, 69
1, 42224, Note_off_c, 0, 75, 64
1, 42224, Control_c, 0, 64, 127
1, 42276, Note_off_c, 0, 71, 64
1, 42276, Note_off_c, 0, 73, 64
1, 42276, Note_off_c, 0, 68, 64
1, 42276, Note_off_c, 0, 61, 64
1, 42352, Note_off_c, 0, 77, 64
1, 42368, Note_off_c, 0, 49, 64
1, 42384, Note_on_c, 0, 69, 58
1, 42392, Note_on_c, 0, 78, 73
1, 42392, Note_on_c, 0, 73, 61
1, 42392, Note_on_c, 0, 61, 64
1, 42476, Note_off_c, 0, 69, 64
1, 42480, Note_off_c, 0, 73, 64
1, 42480, Note_off_c, 0, 61, 64
1, 42552, Note_off_c, 0, 78, 64
1, 42596, Note_on_c, 0, 77, 61
1, 42596, Note_on_c, 0, 73, 53
1, 42596, Note_on_c, 0, 71, 43
1, 42596, Note_on_c, 0, 61, 61
1, 42600, Note_on_c, 0, 68, 58
1, 42688, Note_off_c, 0, 73, 64
1, 42688, Note_off_c, 0, 71, 64
1, 42688, Note_off_c, 0, 61, 64
1, 42692, Note_off_c, 0, 68, 64
1, 42732, Note_on_c, 0, 86, 69
1, 42732, Note_on_c, 0, 74, 61
1, 42732, Note_on_c, 0, 71, 46
1, 42732, Note_on_c, 0, 61, 50
1, 42736, Note_on_c, 0, 66, 50
1, 42760, Note_off_c, 0, 77, 64
1, 42772, Note_off_c, 0, 71, 64
1, 42772, Note_off_c, 0, 61, 64
1, 42776, Note_off_c, 0, 66, 64
1, 42788, Control_c, 0, 64, 0
1, 42808, Note_on_c, 0, 85, 69
1, 42816, Note_on_c, 0, 73, 54
1, 42816, Note_on_c, 0, 71, 56
1, 42820, Note_on_c, 0, 65, 60
1, 42820, Note_on_c, 0, 61, 56
1, 42824, Note_off_c, 0, 86, 64
1, 42824, Note_off_c, 0, 74, 64
1, 42864, Control_c, 0, 64, 127
1, 42904, Note_off_c, 0, 71, 64
1, 42908, Note_off_c, 0, 65, 64
1, 42912, Note_off_c, 0, 61, 64
1, 43008, Note_off_c, 0, 85, 64
1, 43016, Note_off_c, 0, 73, 64
1, 43020, Control_c, 0, 64, 0
1, 43032, Note_on_c, 0, 80, 78
1, 43040, Note_on_c, 0, 65, 71
1, 43044, Note_on_c, 0, 73, 61
1, 43048, Note_on_c, 0, 71, 72
1, 43048, Note_on_c, 0, 61, 71
1, 43080, Control_c, 0, 64, 127
1, 43128, Note_off_c, 0, 65, 64
1, 43136, Note_off_c, 0, 73, 64
1, 43136, Note_off_c, 0, 71, 64
1, 43136, Note_off_c, 0, 61, 64
1, 43156, Note_on_c, 0, 81, 61
1, 43168, Note_off_c, 0, 80, 64
1, 43260, Control_c, 0, 64, 0
1, 43276, Note_on_c, 0, 69, 76
1, 43276, Note_on_c, 0, 66, 78
1, 43276, Note_on_c, 0, 61, 32
1, 43284, Note_on_c, 0, 78, 78
1, 43284, Note_on_c, 0, 54, 64
1, 43288, Note_off_c, 0, 81, 64
1, 43324, Control_c, 0, 64, 127
1, 43364, Note_off_c, 0, 69, 64
1, 43364, Note_off_c, 0, 66, 64
1, 43364, Note_off_c, 0, 61, 64
1, 43372, Note_off_c, 0, 54, 64
1, 43456, Note_off_c, 0, 78, 64
1, 43632, Note_on_c, 0, 90, 69
1, 43632, Note_on_c, 0, 78, 69
1, 43640, Note_on_c, 0, 54, 73
1, 43640, Note_on_c, 0, 42, 69
1, 43688, Control_c, 0, 64, 0
1, 43788, Control_c, 0, 64, 127
1, 43920, Note_off_c, 0, 90, 64
1, 43928, Note_off_c, 0, 78, 64
1, 43944, Note_off_c, 0, 54, 64
1, 43944, Note_off_c, 0, 42, 64
1, 44156, Control_c, 0, 64, 0
1, 44200, Control_c, 0, 64, 0
1, 44200, End_track
2, 0, Start_track
2, 1, Copyright_t, "__________________________________________________________\012\012KUNSTDERFUGE.COM GREAT CLASSICAL MIDI COLLECTION\012__________________________________________________________\012\012KUNST-DER-FUGE CONTRIBUTOR's PROPERTY\012Copyright by Contributor & Kunst der Fuge, © 2006\012\012Contributors' list: http://kunstderfuge.com/thanks.htm\012Terms and conditions: http://kunstderfuge.com/notes.htm\012__________________________________________________________\012\012NO WEBSITE MAY PUBLISH THIS FILE WITHOUT PERMISSION\012NO COMMERCIAL USE ALLOWED, NOR BY SALES NOR by eBay!\012PLEASE REPORT ANY ABUSE TO INFO@ONCLASSICAL.COM\012__________________________________________________________\012\012Thousands of free classical MIDI files at kunstderfuge.com"
2, 1, End_track
0, 0, End_of_file
