0, 0, Header, 0, 2, 384
1, 0, Start_track
1, 0, Title_t, "Chopin's Mazurkas (played by © Ron Lubetsky)"
1, 0, Control_c, 0, 0, 0
1, 0, Program_c, 0, 0
1, 0, Time_signature, 4, 2, 96, 8
1, 0, Sequencer_specific, 3, 0, 0, 65
1, 0, Tempo, 500000
1, 140, Control_c, 0, 64, 127
1, 632, Note_on_c, 0, 43, 66
1, 644, Note_on_c, 0, 55, 66
1, 680, Note_off_c, 0, 43, 64
1, 692, Note_off_c, 0, 55, 64
1, 848, Note_on_c, 0, 55, 66
1, 848, Note_on_c, 0, 43, 66
1, 896, Note_off_c, 0, 55, 64
1, 896, Note_off_c, 0, 43, 64
1, 1064, Note_on_c, 0, 55, 66
1, 1068, Note_on_c, 0, 43, 66
1, 1112, Note_off_c, 0, 55, 64
1, 1116, Note_off_c, 0, 43, 64
1, 1284, Note_on_c, 0, 55, 63
1, 1284, Note_on_c, 0, 43, 63
1, 1332, Note_off_c, 0, 55, 64
1, 1332, Note_off_c, 0, 43, 64
1, 1500, Note_on_c, 0, 43, 57
1, 1508, Note_on_c, 0, 55, 57
1, 1548, Note_off_c, 0, 43, 64
1, 1556, Note_off_c, 0, 55, 64
1, 1724, Note_on_c, 0, 55, 50
1, 1724, Note_on_c, 0, 43, 50
1, 1772, Note_off_c, 0, 55, 64
1, 1772, Note_off_c, 0, 43, 64
1, 1940, Note_on_c, 0, 55, 46
1, 1944, Note_on_c, 0, 43, 46
1, 1988, Note_off_c, 0, 55, 64
1, 1992, Note_off_c, 0, 43, 64
1, 2156, Note_on_c, 0, 55, 41
1, 2180, Note_on_c, 0, 43, 41
1, 2204, Note_off_c, 0, 55, 64
1, 2228, Note_off_c, 0, 43, 64
1, 2384, Note_on_c, 0, 55, 35
1, 2388, Note_on_c, 0, 43, 35
1, 2432, Note_off_c, 0, 55, 64
1, 2436, Note_off_c, 0, 43, 64
1, 2596, Note_on_c, 0, 43, 32
1, 2596, Note_on_c, 0, 55, 32
1, 2644, Note_off_c, 0, 43, 64
1, 2644, Note_off_c, 0, 55, 64
1, 2804, Note_on_c, 0, 55, 26
1, 2816, Note_on_c, 0, 43, 26
1, 2852, Note_off_c, 0, 55, 64
1, 2864, Note_off_c, 0, 43, 64
1, 2992, Note_on_c, 0, 43, 24
1, 3012, Note_on_c, 0, 55, 24
1, 3040, Note_off_c, 0, 43, 64
1, 3060, Note_off_c, 0, 55, 64
1, 3196, Note_on_c, 0, 74, 36
1, 3208, Note_on_c, 0, 59, 31
1, 3212, Note_on_c, 0, 65, 35
1, 3224, Note_on_c, 0, 55, 27
1, 3268, Note_off_c, 0, 74, 64
1, 3268, Note_on_c, 0, 76, 39
1, 3296, Note_off_c, 0, 65, 64
1, 3300, Note_off_c, 0, 55, 64
1, 3304, Note_off_c, 0, 59, 64
1, 3340, Note_on_c, 0, 74, 42
1, 3352, Note_off_c, 0, 76, 64
1, 3380, Control_c, 0, 64, 0
1, 3404, Note_on_c, 0, 67, 44
1, 3404, Note_on_c, 0, 64, 29
1, 3408, Note_on_c, 0, 60, 24
1, 3408, Note_on_c, 0, 55, 16
1, 3428, Note_off_c, 0, 74, 64
1, 3436, Control_c, 0, 64, 127
1, 3472, Note_off_c, 0, 55, 64
1, 3476, Note_off_c, 0, 60, 64
1, 3484, Note_off_c, 0, 64, 64
1, 3596, Note_on_c, 0, 60, 40
1, 3600, Note_on_c, 0, 72, 33
1, 3612, Note_on_c, 0, 64, 35
1, 3620, Note_on_c, 0, 55, 31
1, 3652, Note_off_c, 0, 67, 64
1, 3672, Note_off_c, 0, 55, 64
1, 3692, Note_off_c, 0, 60, 64
1, 3696, Note_off_c, 0, 64, 64
1, 3724, Note_off_c, 0, 72, 64
1, 3732, Note_on_c, 0, 76, 36
1, 3780, Control_c, 0, 64, 0
1, 3788, Note_on_c, 0, 74, 41
1, 3804, Note_off_c, 0, 76, 64
1, 3804, Note_on_c, 0, 55, 29
1, 3812, Note_on_c, 0, 59, 29
1, 3816, Note_on_c, 0, 65, 27
1, 3832, Control_c, 0, 64, 127
1, 3864, Note_off_c, 0, 74, 64
1, 3864, Note_on_c, 0, 76, 40
1, 3884, Note_off_c, 0, 59, 64
1, 3892, Note_off_c, 0, 55, 64
1, 3900, Note_off_c, 0, 65, 64
1, 3928, Note_on_c, 0, 74, 40
1, 3948, Note_off_c, 0, 76, 64
1, 3968, Control_c, 0, 64, 0
1, 3996, Note_on_c, 0, 67, 53
1, 4000, Note_off_c, 0, 74, 64
1, 4008, Note_on_c, 0, 60, 20
1, 4012, Note_on_c, 0, 55, 11
1, 4016, Control_c, 0, 64, 127
1, 4024, Note_on_c, 0, 64, 18
1, 4072, Note_off_c, 0, 55, 64
1, 4076, Note_off_c, 0, 60, 64
1, 4084, Note_off_c, 0, 64, 64
1, 4164, Control_c, 0, 64, 0
1, 4188, Note_on_c, 0, 72, 41
1, 4188, Note_on_c, 0, 60, 45
1, 4192, Note_on_c, 0, 64, 40
1, 4208, Note_on_c, 0, 55, 31
1, 4212, Control_c, 0, 64, 127
1, 4244, Note_off_c, 0, 67, 64
1, 4260, Note_off_c, 0, 55, 64
1, 4272, Note_off_c, 0, 60, 64
1, 4276, Note_off_c, 0, 64, 64
1, 4336, Note_on_c, 0, 76, 40
1, 4348, Note_off_c, 0, 72, 64
1, 4380, Note_on_c, 0, 55, 41
1, 4392, Note_on_c, 0, 65, 44
1, 4392, Note_on_c, 0, 59, 41
1, 4396, Note_on_c, 0, 81, 46
1, 4412, Note_off_c, 0, 76, 64
1, 4452, Note_off_c, 0, 59, 64
1, 4460, Note_off_c, 0, 55, 64
1, 4460, Note_off_c, 0, 65, 64
1, 4572, Note_on_c, 0, 79, 41
1, 4592, Note_on_c, 0, 65, 27
1, 4592, Note_on_c, 0, 59, 31
1, 4596, Note_on_c, 0, 55, 31
1, 4600, Note_off_c, 0, 81, 64
1, 4664, Note_off_c, 0, 59, 64
1, 4672, Note_off_c, 0, 55, 64
1, 4684, Note_off_c, 0, 65, 64
1, 4692, Note_off_c, 0, 79, 64
1, 4752, Note_on_c, 0, 76, 24
1, 4804, Note_on_c, 0, 65, 20
1, 4804, Note_on_c, 0, 77, 46
1, 4812, Note_on_c, 0, 59, 23
1, 4812, Note_on_c, 0, 55, 26
1, 4844, Note_off_c, 0, 76, 64
1, 4860, Note_off_c, 0, 59, 64
1, 4864, Note_off_c, 0, 65, 64
1, 4872, Note_off_c, 0, 55, 64
1, 4904, Note_off_c, 0, 77, 64
1, 4932, Note_on_c, 0, 74, 41
1, 4980, Control_c, 0, 64, 0
1, 5016, Note_on_c, 0, 72, 37
1, 5016, Note_on_c, 0, 48, 36
1, 5020, Note_off_c, 0, 74, 64
1, 5028, Control_c, 0, 64, 127
1, 5072, Note_off_c, 0, 48, 64
1, 5160, Note_off_c, 0, 72, 64
1, 5164, Note_on_c, 0, 76, 35
1, 5188, Note_on_c, 0, 64, 23
1, 5200, Note_on_c, 0, 79, 32
1, 5200, Note_on_c, 0, 60, 27
1, 5200, Note_on_c, 0, 55, 31
1, 5244, Note_off_c, 0, 76, 64
1, 5244, Note_off_c, 0, 55, 64
1, 5264, Note_off_c, 0, 64, 64
1, 5264, Note_off_c, 0, 60, 64
1, 5324, Note_off_c, 0, 79, 64
1, 5328, Note_on_c, 0, 83, 31
1, 5368, Note_on_c, 0, 60, 31
1, 5372, Note_on_c, 0, 86, 55
1, 5380, Note_on_c, 0, 64, 31
1, 5380, Note_on_c, 0, 55, 31
1, 5408, Note_off_c, 0, 83, 64
1, 5436, Note_off_c, 0, 60, 64
1, 5436, Note_off_c, 0, 55, 64
1, 5452, Note_off_c, 0, 64, 64
1, 5472, Note_off_c, 0, 86, 64
1, 5496, Note_on_c, 0, 84, 59
1, 5556, Control_c, 0, 64, 0
1, 5568, Note_off_c, 0, 84, 64
1, 5580, Note_on_c, 0, 59, 36
1, 5580, Note_on_c, 0, 55, 36
1, 5580, Note_on_c, 0, 74, 44
1, 5584, Note_on_c, 0, 65, 33
1, 5592, Control_c, 0, 64, 127
1, 5628, Note_off_c, 0, 59, 64
1, 5640, Note_off_c, 0, 55, 64
1, 5644, Note_off_c, 0, 65, 64
1, 5644, Note_on_c, 0, 76, 41
1, 5648, Note_off_c, 0, 74, 64
1, 5716, Note_on_c, 0, 74, 29
1, 5728, Note_off_c, 0, 76, 64
1, 5744, Control_c, 0, 64, 0
1, 5760, Note_on_c, 0, 55, 18
1, 5764, Note_on_c, 0, 67, 50
1, 5764, Note_on_c, 0, 64, 23
1, 5764, Note_on_c, 0, 60, 23
1, 5788, Note_off_c, 0, 74, 64
1, 5800, Control_c, 0, 64, 127
1, 5828, Note_off_c, 0, 55, 64
1, 5856, Note_off_c, 0, 64, 64
1, 5860, Note_off_c, 0, 60, 64
1, 5980, Note_on_c, 0, 72, 46
1, 5988, Note_on_c, 0, 64, 36
1, 5988, Note_on_c, 0, 60, 37
1, 5988, Note_on_c, 0, 55, 32
1, 6004, Note_off_c, 0, 67, 64
1, 6036, Note_off_c, 0, 55, 64
1, 6068, Note_off_c, 0, 60, 64
1, 6080, Note_off_c, 0, 64, 64
1, 6104, Note_off_c, 0, 72, 64
1, 6104, Note_on_c, 0, 76, 41
1, 6152, Control_c, 0, 64, 0
1, 6156, Note_on_c, 0, 55, 32
1, 6160, Note_on_c, 0, 65, 33
1, 6160, Note_on_c, 0, 59, 32
1, 6164, Note_off_c, 0, 76, 64
1, 6164, Note_on_c, 0, 74, 42
1, 6204, Control_c, 0, 64, 127
1, 6232, Note_off_c, 0, 65, 64
1, 6232, Note_on_c, 0, 76, 46
1, 6236, Note_off_c, 0, 55, 64
1, 6236, Note_off_c, 0, 59, 64
1, 6244, Note_off_c, 0, 74, 64
1, 6296, Note_on_c, 0, 74, 45
1, 6308, Note_off_c, 0, 76, 64
1, 6344, Control_c, 0, 64, 0
1, 6352, Note_on_c, 0, 64, 31
1, 6360, Note_on_c, 0, 55, 16
1, 6360, Note_on_c, 0, 67, 53
1, 6360, Note_on_c, 0, 60, 27
1, 6380, Note_off_c, 0, 74, 64
1, 6396, Control_c, 0, 64, 127
1, 6420, Note_off_c, 0, 55, 64
1, 6432, Note_off_c, 0, 64, 64
1, 6440, Note_off_c, 0, 60, 64
1, 6532, Note_on_c, 0, 64, 41
1, 6532, Control_c, 0, 64, 0
1, 6552, Note_on_c, 0, 72, 36
1, 6552, Note_on_c, 0, 60, 46
1, 6556, Note_on_c, 0, 55, 41
1, 6572, Control_c, 0, 64, 127
1, 6608, Note_off_c, 0, 67, 64
1, 6628, Note_off_c, 0, 64, 64
1, 6628, Note_off_c, 0, 55, 64
1, 6640, Note_off_c, 0, 60, 64
1, 6696, Note_on_c, 0, 76, 36
1, 6708, Note_off_c, 0, 72, 64
1, 6720, Control_c, 0, 64, 0
1, 6764, Note_on_c, 0, 65, 27
1, 6764, Note_on_c, 0, 55, 29
1, 6768, Note_on_c, 0, 81, 46
1, 6768, Note_on_c, 0, 59, 29
1, 6776, Control_c, 0, 64, 127
1, 6784, Note_off_c, 0, 76, 64
1, 6832, Note_off_c, 0, 65, 64
1, 6840, Note_off_c, 0, 55, 64
1, 6840, Note_off_c, 0, 59, 64
1, 6956, Note_off_c, 0, 81, 64
1, 6956, Note_on_c, 0, 79, 41
1, 6956, Note_on_c, 0, 65, 26
1, 6960, Note_on_c, 0, 59, 27
1, 6960, Note_on_c, 0, 55, 31
1, 7016, Note_off_c, 0, 59, 64
1, 7036, Note_off_c, 0, 55, 64
1, 7040, Note_off_c, 0, 65, 64
1, 7088, Note_off_c, 0, 79, 64
1, 7100, Note_on_c, 0, 76, 40
1, 7164, Note_on_c, 0, 65, 20
1, 7168, Note_on_c, 0, 77, 41
1, 7172, Note_on_c, 0, 59, 29
1, 7172, Note_on_c, 0, 55, 31
1, 7200, Note_off_c, 0, 76, 64
1, 7228, Note_off_c, 0, 59, 64
1, 7236, Note_off_c, 0, 65, 64
1, 7236, Note_off_c, 0, 55, 64
1, 7252, Note_off_c, 0, 77, 64
1, 7300, Note_on_c, 0, 74, 41
1, 7324, Control_c, 0, 64, 0
1, 7340, Note_on_c, 0, 72, 40
1, 7340, Note_on_c, 0, 48, 40
1, 7356, Note_off_c, 0, 74, 64
1, 7356, Control_c, 0, 64, 127
1, 7396, Note_off_c, 0, 48, 64
1, 7464, Note_off_c, 0, 72, 64
1, 7472, Note_on_c, 0, 74, 41
1, 7536, Note_on_c, 0, 60, 24
1, 7544, Note_on_c, 0, 76, 45
1, 7544, Note_on_c, 0, 64, 22
1, 7544, Note_on_c, 0, 55, 27
1, 7592, Note_off_c, 0, 55, 64
1, 7604, Note_off_c, 0, 74, 64
1, 7604, Note_off_c, 0, 60, 64
1, 7616, Note_off_c, 0, 64, 64
1, 7672, Note_on_c, 0, 71, 35
1, 7684, Note_off_c, 0, 76, 64
1, 7724, Note_on_c, 0, 64, 41
1, 7724, Note_on_c, 0, 60, 45
1, 7728, Note_on_c, 0, 55, 40
1, 7748, Note_on_c, 0, 74, 41
1, 7764, Note_off_c, 0, 71, 64
1, 7788, Note_off_c, 0, 64, 64
1, 7788, Note_off_c, 0, 55, 64
1, 7796, Note_off_c, 0, 60, 64
1, 7840, Note_off_c, 0, 74, 64
1, 7864, Note_on_c, 0, 72, 44
1, 7900, Note_on_c, 0, 50, 46
1, 7916, Note_on_c, 0, 54, 48
1, 7916, Note_on_c, 0, 60, 44
1, 7916, Control_c, 0, 64, 0
1, 7924, Note_on_c, 0, 69, 63
1, 7940, Control_c, 0, 64, 127
1, 7948, Note_off_c, 0, 72, 64
1, 7988, Note_off_c, 0, 60, 64
1, 7992, Note_off_c, 0, 50, 64
1, 7992, Note_off_c, 0, 54, 64
1, 8000, Note_on_c, 0, 71, 61
1, 8012, Note_off_c, 0, 69, 64
1, 8060, Note_on_c, 0, 69, 54
1, 8064, Control_c, 0, 64, 0
1, 8076, Note_off_c, 0, 71, 64
1, 8108, Note_on_c, 0, 55, 31
1, 8108, Note_on_c, 0, 50, 13
1, 8112, Note_on_c, 0, 59, 33
1, 8124, Note_on_c, 0, 62, 66
1, 8136, Note_off_c, 0, 69, 64
1, 8136, Control_c, 0, 64, 127
1, 8172, Note_off_c, 0, 59, 64
1, 8192, Note_off_c, 0, 50, 64
1, 8196, Note_off_c, 0, 55, 64
1, 8292, Control_c, 0, 64, 0
1, 8304, Note_on_c, 0, 67, 57
1, 8304, Note_on_c, 0, 50, 50
1, 8308, Note_on_c, 0, 55, 50
1, 8312, Note_on_c, 0, 59, 59
1, 8332, Control_c, 0, 64, 127
1, 8340, Note_off_c, 0, 62, 64
1, 8356, Note_off_c, 0, 50, 64
1, 8384, Note_off_c, 0, 59, 64
1, 8388, Note_off_c, 0, 55, 64
1, 8432, Note_off_c, 0, 67, 64
1, 8432, Note_on_c, 0, 71, 48
1, 8484, Note_on_c, 0, 69, 59
1, 8492, Note_off_c, 0, 71, 64
1, 8496, Note_on_c, 0, 60, 46
1, 8496, Note_on_c, 0, 54, 46
1, 8496, Note_on_c, 0, 50, 46
1, 8504, Control_c, 0, 64, 0
1, 8544, Note_on_c, 0, 71, 57
1, 8552, Note_off_c, 0, 60, 64
1, 8560, Control_c, 0, 64, 127
1, 8568, Note_off_c, 0, 69, 64
1, 8568, Note_off_c, 0, 54, 64
1, 8568, Note_off_c, 0, 50, 64
1, 8620, Note_on_c, 0, 69, 54
1, 8640, Note_off_c, 0, 71, 64
1, 8676, Note_on_c, 0, 59, 35
1, 8676, Note_on_c, 0, 55, 35
1, 8684, Note_on_c, 0, 50, 32
1, 8688, Note_on_c, 0, 62, 59
1, 8692, Control_c, 0, 64, 0
1, 8704, Note_off_c, 0, 69, 64
1, 8724, Control_c, 0, 64, 127
1, 8736, Note_off_c, 0, 50, 64
1, 8744, Note_off_c, 0, 55, 64
1, 8748, Note_off_c, 0, 59, 64
1, 8892, Note_on_c, 0, 59, 27
1, 8892, Note_on_c, 0, 55, 54
1, 8892, Note_on_c, 0, 50, 31
1, 8896, Note_on_c, 0, 67, 53
1, 8940, Note_off_c, 0, 59, 64
1, 8944, Note_off_c, 0, 62, 64
1, 8956, Note_off_c, 0, 55, 64
1, 8960, Note_off_c, 0, 50, 64
1, 9032, Note_on_c, 0, 71, 59
1, 9048, Note_off_c, 0, 67, 64
1, 9076, Control_c, 0, 64, 0
1, 9092, Note_on_c, 0, 50, 44
1, 9100, Note_on_c, 0, 54, 46
1, 9104, Note_on_c, 0, 60, 44
1, 9108, Note_on_c, 0, 76, 61
1, 9124, Note_off_c, 0, 71, 64
1, 9132, Control_c, 0, 64, 127
1, 9156, Note_off_c, 0, 54, 64
1, 9164, Note_off_c, 0, 50, 64
1, 9172, Note_off_c, 0, 60, 64
1, 9256, Control_c, 0, 64, 0
1, 9284, Note_on_c, 0, 74, 57
1, 9296, Note_on_c, 0, 54, 40
1, 9296, Control_c, 0, 64, 127
1, 9308, Note_on_c, 0, 60, 33
1, 9308, Note_on_c, 0, 50, 40
1, 9316, Note_off_c, 0, 76, 64
1, 9372, Note_off_c, 0, 50, 64
1, 9376, Note_off_c, 0, 54, 64
1, 9380, Note_off_c, 0, 60, 64
1, 9412, Note_off_c, 0, 74, 64
1, 9452, Note_on_c, 0, 71, 42
1, 9460, Control_c, 0, 64, 0
1, 9496, Note_on_c, 0, 54, 46
1, 9496, Note_on_c, 0, 50, 37
1, 9500, Note_on_c, 0, 60, 31
1, 9504, Note_on_c, 0, 72, 57
1, 9512, Control_c, 0, 64, 127
1, 9532, Note_off_c, 0, 71, 64
1, 9556, Note_off_c, 0, 60, 64
1, 9560, Note_off_c, 0, 54, 64
1, 9572, Note_off_c, 0, 50, 64
1, 9596, Note_off_c, 0, 72, 64
1, 9628, Note_on_c, 0, 69, 44
1, 9660, Control_c, 0, 64, 0
1, 9668, Note_on_c, 0, 43, 41
1, 9672, Note_on_c, 0, 67, 50
1, 9708, Control_c, 0, 64, 127
1, 9712, Note_off_c, 0, 69, 64
1, 9712, Note_off_c, 0, 43, 64
1, 9808, Note_on_c, 0, 71, 40
1, 9868, Note_off_c, 0, 67, 64
1, 9872, Note_on_c, 0, 55, 40
1, 9876, Note_on_c, 0, 59, 35
1, 9876, Note_on_c, 0, 50, 37
1, 9880, Note_on_c, 0, 74, 54
1, 9924, Note_off_c, 0, 50, 64
1, 9932, Note_off_c, 0, 59, 64
1, 9940, Note_off_c, 0, 55, 64
1, 9948, Note_off_c, 0, 71, 64
1, 9988, Note_on_c, 0, 78, 45
1, 10036, Note_off_c, 0, 74, 64
1, 10060, Note_on_c, 0, 59, 48
1, 10060, Note_on_c, 0, 55, 57
1, 10060, Note_on_c, 0, 50, 50
1, 10068, Note_on_c, 0, 81, 65
1, 10092, Note_off_c, 0, 78, 64
1, 10116, Note_off_c, 0, 50, 64
1, 10128, Note_off_c, 0, 59, 64
1, 10136, Note_off_c, 0, 55, 64
1, 10164, Note_off_c, 0, 81, 64
1, 10180, Note_on_c, 0, 79, 66
1, 10236, Control_c, 0, 64, 0
1, 10256, Note_off_c, 0, 79, 64
1, 10268, Note_on_c, 0, 69, 59
1, 10284, Note_on_c, 0, 50, 46
1, 10288, Note_on_c, 0, 54, 42
1, 10288, Control_c, 0, 64, 127
1, 10300, Note_on_c, 0, 60, 36
1, 10308, Note_off_c, 0, 69, 64
1, 10332, Note_on_c, 0, 71, 54
1, 10340, Note_off_c, 0, 60, 64
1, 10364, Note_off_c, 0, 50, 64
1, 10368, Note_off_c, 0, 54, 64
1, 10416, Note_off_c, 0, 71, 64
1, 10416, Note_on_c, 0, 69, 50
1, 10424, Control_c, 0, 64, 0
1, 10448, Note_on_c, 0, 59, 20
1, 10456, Note_on_c, 0, 55, 31
1, 10456, Note_on_c, 0, 50, 27
1, 10464, Note_on_c, 0, 62, 59
1, 10468, Note_off_c, 0, 69, 64
1, 10484, Note_off_c, 0, 59, 64
1, 10508, Control_c, 0, 64, 127
1, 10528, Note_off_c, 0, 55, 64
1, 10548, Note_off_c, 0, 50, 64
1, 10628, Control_c, 0, 64, 0
1, 10640, Note_off_c, 0, 62, 64
1, 10660, Note_on_c, 0, 50, 31
1, 10660, Note_on_c, 0, 59, 59
1, 10664, Note_on_c, 0, 67, 48
1, 10668, Note_on_c, 0, 55, 59
1, 10680, Control_c, 0, 64, 127
1, 10728, Note_off_c, 0, 50, 64
1, 10732, Note_off_c, 0, 59, 64
1, 10764, Note_off_c, 0, 55, 64
1, 10772, Note_off_c, 0, 67, 64
1, 10772, Note_on_c, 0, 71, 53
1, 10828, Note_on_c, 0, 60, 41
1, 10828, Note_on_c, 0, 69, 57
1, 10832, Note_on_c, 0, 54, 45
1, 10832, Note_on_c, 0, 50, 42
1, 10840, Note_off_c, 0, 71, 64
1, 10840, Control_c, 0, 64, 0
1, 10872, Control_c, 0, 64, 127
1, 10900, Note_off_c, 0, 60, 64
1, 10916, Note_on_c, 0, 71, 50
1, 10924, Note_off_c, 0, 54, 64
1, 10928, Note_off_c, 0, 69, 64
1, 10932, Note_off_c, 0, 50, 64
1, 10976, Note_on_c, 0, 69, 42
1, 11000, Note_off_c, 0, 71, 64
1, 11012, Control_c, 0, 64, 0
1, 11024, Note_on_c, 0, 59, 40
1, 11024, Note_on_c, 0, 55, 33
1, 11024, Note_on_c, 0, 50, 15
1, 11036, Note_on_c, 0, 62, 55
1, 11036, Control_c, 0, 64, 127
1, 11048, Note_off_c, 0, 69, 64
1, 11088, Note_off_c, 0, 55, 64
1, 11092, Note_off_c, 0, 59, 64
1, 11092, Note_off_c, 0, 50, 64
1, 11180, Control_c, 0, 64, 0
1, 11220, Control_c, 0, 64, 127
1, 11228, Note_on_c, 0, 50, 36
1, 11232, Note_on_c, 0, 67, 53
1, 11236, Note_on_c, 0, 59, 36
1, 11240, Note_on_c, 0, 55, 59
1, 11276, Note_off_c, 0, 62, 64
1, 11276, Note_off_c, 0, 59, 64
1, 11280, Note_off_c, 0, 50, 64
1, 11304, Note_off_c, 0, 55, 64
1, 11348, Note_off_c, 0, 67, 64
1, 11372, Note_on_c, 0, 71, 42
1, 11404, Control_c, 0, 64, 0
1, 11420, Note_on_c, 0, 54, 50
1, 11424, Note_on_c, 0, 60, 46
1, 11428, Note_off_c, 0, 71, 64
1, 11436, Note_on_c, 0, 50, 45
1, 11440, Note_on_c, 0, 78, 66
1, 11444, Control_c, 0, 64, 127
1, 11484, Note_off_c, 0, 54, 64
1, 11484, Note_off_c, 0, 60, 64
1, 11504, Note_off_c, 0, 50, 64
1, 11524, Note_off_c, 0, 78, 64
1, 11584, Control_c, 0, 64, 0
1, 11616, Note_on_c, 0, 54, 50
1, 11620, Note_on_c, 0, 60, 42
1, 11624, Note_on_c, 0, 76, 59
1, 11624, Note_on_c, 0, 50, 46
1, 11636, Control_c, 0, 64, 127
1, 11676, Note_off_c, 0, 54, 64
1, 11676, Note_off_c, 0, 50, 64
1, 11684, Note_off_c, 0, 60, 64
1, 11728, Note_off_c, 0, 76, 64
1, 11756, Note_on_c, 0, 71, 50
1, 11772, Control_c, 0, 64, 0
1, 11812, Note_on_c, 0, 72, 42
1, 11812, Note_on_c, 0, 50, 40
1, 11820, Note_on_c, 0, 60, 31
1, 11824, Note_on_c, 0, 54, 42
1, 11836, Control_c, 0, 64, 127
1, 11844, Note_off_c, 0, 71, 64
1, 11864, Note_off_c, 0, 50, 64
1, 11876, Note_off_c, 0, 54, 64
1, 11884, Note_off_c, 0, 60, 64
1, 11904, Note_off_c, 0, 72, 64
1, 11948, Note_on_c, 0, 69, 45
1, 11968, Control_c, 0, 64, 0
1, 12004, Note_on_c, 0, 43, 46
1, 12012, Note_off_c, 0, 69, 64
1, 12016, Note_on_c, 0, 67, 53
1, 12044, Control_c, 0, 64, 127
1, 12068, Note_off_c, 0, 43, 64
1, 12136, Note_on_c, 0, 71, 46
1, 12172, Note_off_c, 0, 67, 64
1, 12208, Note_on_c, 0, 50, 40
1, 12212, Note_on_c, 0, 74, 57
1, 12216, Note_on_c, 0, 55, 33
1, 12220, Note_on_c, 0, 59, 33
1, 12256, Note_off_c, 0, 71, 64
1, 12280, Note_off_c, 0, 55, 64
1, 12288, Note_off_c, 0, 59, 64
1, 12308, Note_off_c, 0, 50, 64
1, 12320, Note_off_c, 0, 74, 64
1, 12344, Note_on_c, 0, 78, 42
1, 12380, Note_on_c, 0, 59, 59
1, 12388, Note_off_c, 0, 78, 64
1, 12388, Note_on_c, 0, 81, 72
1, 12388, Note_on_c, 0, 55, 59
1, 12388, Note_on_c, 0, 50, 59
1, 12440, Note_off_c, 0, 50, 64
1, 12452, Note_off_c, 0, 59, 64
1, 12452, Note_off_c, 0, 55, 64
1, 12472, Note_off_c, 0, 81, 64
1, 12496, Note_on_c, 0, 79, 41
1, 12564, Control_c, 0, 64, 0
1, 12568, Note_on_c, 0, 74, 75
1, 12568, Note_on_c, 0, 59, 63
1, 12568, Note_on_c, 0, 55, 63
1, 12572, Note_on_c, 0, 65, 63
1, 12592, Note_off_c, 0, 79, 64
1, 12612, Control_c, 0, 64, 127
1, 12632, Note_on_c, 0, 76, 70
1, 12636, Note_off_c, 0, 59, 64
1, 12636, Note_off_c, 0, 55, 64
1, 12636, Note_off_c, 0, 65, 64
1, 12676, Note_off_c, 0, 74, 64
1, 12696, Note_on_c, 0, 74, 74
1, 12716, Note_off_c, 0, 76, 64
1, 12728, Control_c, 0, 64, 0
1, 12748, Note_on_c, 0, 55, 22
1, 12756, Note_on_c, 0, 60, 50
1, 12760, Note_off_c, 0, 74, 64
1, 12768, Note_on_c, 0, 67, 87
1, 12768, Note_on_c, 0, 64, 53
1, 12796, Control_c, 0, 64, 127
1, 12812, Note_off_c, 0, 55, 64
1, 12828, Note_off_c, 0, 60, 64
1, 12832, Note_off_c, 0, 64, 64
1, 12952, Note_on_c, 0, 72, 63
1, 12952, Note_on_c, 0, 60, 80
1, 12952, Note_on_c, 0, 55, 40
1, 12960, Note_on_c, 0, 64, 72
1, 13000, Note_off_c, 0, 67, 64
1, 13020, Note_off_c, 0, 55, 64
1, 13036, Note_off_c, 0, 60, 64
1, 13044, Note_off_c, 0, 64, 64
1, 13068, Note_off_c, 0, 72, 64
1, 13076, Note_on_c, 0, 76, 62
1, 13128, Control_c, 0, 64, 0
1, 13152, Note_on_c, 0, 74, 66
1, 13156, Note_on_c, 0, 65, 57
1, 13156, Note_on_c, 0, 59, 59
1, 13164, Note_off_c, 0, 76, 64
1, 13168, Note_on_c, 0, 55, 57
1, 13176, Control_c, 0, 64, 127
1, 13228, Note_off_c, 0, 65, 64
1, 13228, Note_on_c, 0, 76, 75
1, 13232, Note_off_c, 0, 59, 64
1, 13240, Note_off_c, 0, 74, 64
1, 13244, Note_off_c, 0, 55, 64
1, 13292, Note_on_c, 0, 74, 61
1, 13308, Control_c, 0, 64, 0
1, 13320, Note_off_c, 0, 76, 64
1, 13336, Note_on_c, 0, 60, 41
1, 13344, Note_on_c, 0, 67, 84
1, 13348, Note_on_c, 0, 64, 46
1, 13352, Note_on_c, 0, 55, 23
1, 13360, Note_off_c, 0, 74, 64
1, 13364, Control_c, 0, 64, 127
1, 13388, Note_off_c, 0, 55, 64
1, 13416, Note_off_c, 0, 60, 64
1, 13436, Note_off_c, 0, 64, 64
1, 13504, Control_c, 0, 64, 0
1, 13532, Note_on_c, 0, 64, 75
1, 13536, Note_on_c, 0, 60, 75
1, 13544, Note_on_c, 0, 72, 61
1, 13548, Note_on_c, 0, 55, 41
1, 13556, Control_c, 0, 64, 127
1, 13580, Note_off_c, 0, 55, 64
1, 13588, Note_off_c, 0, 67, 64
1, 13624, Note_off_c, 0, 60, 64
1, 13628, Note_off_c, 0, 64, 64
1, 13644, Control_c, 0, 64, 0
1, 13676, Note_on_c, 0, 76, 65
1, 13692, Note_off_c, 0, 72, 64
1, 13700, Control_c, 0, 64, 127
1, 13700, Control_c, 0, 64, 0
1, 13732, Note_on_c, 0, 59, 57
1, 13732, Note_on_c, 0, 65, 54
1, 13740, Note_on_c, 0, 55, 57
1, 13748, Note_on_c, 0, 81, 76
1, 13772, Note_off_c, 0, 76, 64
1, 13776, Tempo, 500000
1, 13776, Control_c, 0, 64, 127
1, 13808, Note_off_c, 0, 59, 64
1, 13812, Note_off_c, 0, 65, 64
1, 13812, Note_off_c, 0, 55, 64
1, 13896, Control_c, 0, 64, 0
1, 13916, Control_c, 0, 64, 127
1, 13924, Note_on_c, 0, 79, 65
1, 13928, Note_on_c, 0, 65, 50
1, 13936, Note_on_c, 0, 59, 57
1, 13940, Note_on_c, 0, 55, 53
1, 13944, Note_off_c, 0, 81, 64
1, 14004, Note_off_c, 0, 55, 64
1, 14012, Note_off_c, 0, 65, 64
1, 14016, Note_off_c, 0, 59, 64
1, 14052, Note_off_c, 0, 79, 64
1, 14080, Note_on_c, 0, 76, 40
1, 14116, Note_on_c, 0, 65, 37
1, 14124, Note_on_c, 0, 77, 61
1, 14132, Note_on_c, 0, 59, 57
1, 14132, Note_on_c, 0, 55, 50
1, 14148, Note_off_c, 0, 76, 64
1, 14188, Note_off_c, 0, 65, 64
1, 14196, Note_off_c, 0, 59, 64
1, 14200, Note_off_c, 0, 55, 64
1, 14216, Note_off_c, 0, 77, 64
1, 14260, Note_on_c, 0, 74, 71
1, 14264, Control_c, 0, 64, 0
1, 14312, Note_on_c, 0, 72, 57
1, 14312, Note_on_c, 0, 48, 57
1, 14336, Control_c, 0, 64, 127
1, 14344, Note_off_c, 0, 74, 64
1, 14360, Note_off_c, 0, 48, 64
1, 14424, Note_on_c, 0, 76, 57
1, 14444, Control_c, 0, 64, 0
1, 14480, Note_off_c, 0, 72, 64
1, 14488, Note_on_c, 0, 79, 50
1, 14504, Note_on_c, 0, 60, 50
1, 14504, Note_on_c, 0, 55, 44
1, 14508, Note_on_c, 0, 64, 46
1, 14520, Control_c, 0, 64, 127
1, 14560, Note_off_c, 0, 55, 64
1, 14564, Note_off_c, 0, 76, 64
1, 14568, Note_off_c, 0, 60, 64
1, 14568, Note_off_c, 0, 64, 64
1, 14584, Note_off_c, 0, 79, 64
1, 14616, Note_on_c, 0, 83, 35
1, 14684, Note_off_c, 0, 83, 64
1, 14684, Note_on_c, 0, 86, 70
1, 14688, Note_on_c, 0, 64, 76
1, 14692, Note_on_c, 0, 60, 71
1, 14692, Note_on_c, 0, 55, 71
1, 14748, Note_off_c, 0, 55, 64
1, 14760, Note_off_c, 0, 64, 64
1, 14760, Note_off_c, 0, 60, 64
1, 14768, Note_off_c, 0, 86, 64
1, 14824, Note_on_c, 0, 84, 61
1, 14844, Control_c, 0, 64, 0
1, 14880, Note_on_c, 0, 59, 59
1, 14892, Note_on_c, 0, 55, 57
1, 14892, Note_on_c, 0, 74, 81
1, 14892, Note_on_c, 0, 65, 57
1, 14896, Note_off_c, 0, 84, 64
1, 14912, Control_c, 0, 64, 127
1, 14952, Note_off_c, 0, 59, 64
1, 14952, Note_on_c, 0, 76, 52
1, 14956, Note_off_c, 0, 74, 64
1, 14956, Note_off_c, 0, 65, 64
1, 14972, Note_off_c, 0, 55, 64
1, 15012, Note_on_c, 0, 74, 66
1, 15016, Control_c, 0, 64, 0
1, 15048, Note_off_c, 0, 76, 64
1, 15076, Note_on_c, 0, 67, 89
1, 15076, Note_on_c, 0, 64, 48
1, 15076, Note_on_c, 0, 55, 29
1, 15080, Note_on_c, 0, 60, 41
1, 15088, Note_off_c, 0, 74, 64
1, 15108, Control_c, 0, 64, 127
1, 15136, Note_off_c, 0, 55, 64
1, 15156, Note_off_c, 0, 64, 64
1, 15160, Note_off_c, 0, 60, 64
1, 15216, Control_c, 0, 64, 0
1, 15264, Note_on_c, 0, 60, 75
1, 15264, Note_on_c, 0, 72, 70
1, 15272, Note_on_c, 0, 55, 45
1, 15272, Note_on_c, 0, 64, 80
1, 15280, Control_c, 0, 64, 127
1, 15316, Note_off_c, 0, 67, 64
1, 15320, Note_off_c, 0, 55, 64
1, 15344, Note_off_c, 0, 60, 64
1, 15352, Note_off_c, 0, 64, 64
1, 15384, Note_off_c, 0, 72, 64
1, 15404, Note_on_c, 0, 76, 67
1, 15444, Control_c, 0, 64, 0
1, 15472, Note_on_c, 0, 59, 53
1, 15476, Note_on_c, 0, 55, 50
1, 15480, Note_on_c, 0, 74, 71
1, 15480, Note_on_c, 0, 65, 54
1, 15488, Note_off_c, 0, 76, 64
1, 15496, Control_c, 0, 64, 127
1, 15544, Note_off_c, 0, 59, 64
1, 15544, Note_off_c, 0, 65, 64
1, 15544, Note_on_c, 0, 76, 62
1, 15552, Note_off_c, 0, 55, 64
1, 15552, Note_off_c, 0, 74, 64
1, 15620, Note_on_c, 0, 74, 57
1, 15628, Note_off_c, 0, 76, 64
1, 15636, Control_c, 0, 64, 0
1, 15664, Note_on_c, 0, 67, 84
1, 15664, Note_on_c, 0, 64, 45
1, 15668, Note_on_c, 0, 60, 41
1, 15672, Note_on_c, 0, 55, 42
1, 15680, Note_off_c, 0, 74, 64
1, 15688, Control_c, 0, 64, 127
1, 15736, Note_off_c, 0, 55, 64
1, 15744, Note_off_c, 0, 60, 64
1, 15748, Note_off_c, 0, 64, 64
1, 15852, Note_on_c, 0, 60, 81
1, 15856, Note_on_c, 0, 72, 59
1, 15860, Note_on_c, 0, 64, 81
1, 15864, Note_on_c, 0, 55, 72
1, 15916, Note_off_c, 0, 67, 64
1, 15928, Note_off_c, 0, 55, 64
1, 15944, Note_off_c, 0, 60, 64
1, 15944, Note_off_c, 0, 64, 64
1, 15992, Note_off_c, 0, 72, 64
1, 15992, Note_on_c, 0, 76, 66
1, 16016, Control_c, 0, 64, 0
1, 16056, Note_on_c, 0, 55, 53
1, 16064, Note_on_c, 0, 65, 54
1, 16064, Note_on_c, 0, 59, 55
1, 16064, Note_on_c, 0, 81, 76
1, 16084, Note_off_c, 0, 76, 64
1, 16088, Control_c, 0, 64, 127
1, 16128, Note_off_c, 0, 55, 64
1, 16136, Note_off_c, 0, 59, 64
1, 16140, Note_off_c, 0, 65, 64
1, 16236, Note_on_c, 0, 79, 70
1, 16244, Note_on_c, 0, 65, 53
1, 16244, Note_on_c, 0, 59, 57
1, 16244, Note_on_c, 0, 55, 54
1, 16272, Note_off_c, 0, 81, 64
1, 16312, Note_off_c, 0, 59, 64
1, 16320, Note_off_c, 0, 55, 64
1, 16324, Note_off_c, 0, 65, 64
1, 16364, Note_on_c, 0, 76, 67
1, 16392, Note_off_c, 0, 79, 64
1, 16424, Note_on_c, 0, 77, 70
1, 16436, Note_on_c, 0, 59, 50
1, 16436, Note_on_c, 0, 55, 44
1, 16440, Note_on_c, 0, 65, 41
1, 16448, Note_off_c, 0, 76, 64
1, 16492, Note_off_c, 0, 59, 64
1, 16496, Note_off_c, 0, 65, 64
1, 16504, Note_off_c, 0, 55, 64
1, 16516, Note_off_c, 0, 77, 64
1, 16572, Note_on_c, 0, 74, 33
1, 16612, Note_off_c, 0, 74, 64
1, 16620, Control_c, 0, 64, 0
1, 16632, Note_on_c, 0, 48, 61
1, 16640, Note_on_c, 0, 72, 59
1, 16668, Control_c, 0, 64, 127
1, 16688, Note_off_c, 0, 48, 64
1, 16744, Note_off_c, 0, 72, 64
1, 16756, Note_on_c, 0, 74, 67
1, 16804, Control_c, 0, 64, 0
1, 16808, Note_on_c, 0, 76, 57
1, 16816, Note_on_c, 0, 60, 50
1, 16820, Note_on_c, 0, 64, 45
1, 16828, Note_on_c, 0, 55, 46
1, 16840, Control_c, 0, 64, 127
1, 16876, Note_off_c, 0, 74, 64
1, 16876, Note_off_c, 0, 60, 64
1, 16876, Note_off_c, 0, 55, 64
1, 16888, Note_off_c, 0, 64, 64
1, 16920, Note_off_c, 0, 76, 64
1, 16936, Note_on_c, 0, 71, 70
1, 17008, Note_on_c, 0, 64, 72
1, 17008, Note_on_c, 0, 60, 75
1, 17016, Note_on_c, 0, 55, 72
1, 17024, Note_on_c, 0, 74, 78
1, 17032, Note_off_c, 0, 71, 64
1, 17056, Note_off_c, 0, 64, 64
1, 17064, Note_off_c, 0, 60, 64
1, 17080, Note_off_c, 0, 55, 64
1, 17108, Note_off_c, 0, 74, 64
1, 17140, Note_on_c, 0, 72, 66
1, 17192, Note_on_c, 0, 60, 50
1, 17192, Note_on_c, 0, 50, 50
1, 17196, Note_on_c, 0, 54, 50
1, 17204, Note_off_c, 0, 72, 64
1, 17204, Note_on_c, 0, 69, 54
1, 17212, Control_c, 0, 64, 0
1, 17248, Control_c, 0, 64, 127
1, 17252, Note_off_c, 0, 60, 64
1, 17264, Note_off_c, 0, 50, 64
1, 17272, Note_off_c, 0, 54, 64
1, 17272, Note_off_c, 0, 69, 64
1, 17280, Note_on_c, 0, 71, 63
1, 17332, Note_on_c, 0, 69, 50
1, 17364, Note_off_c, 0, 71, 64
1, 17372, Control_c, 0, 64, 0
1, 17400, Note_on_c, 0, 59, 41
1, 17404, Note_on_c, 0, 50, 35
1, 17408, Note_on_c, 0, 55, 35
1, 17412, Note_on_c, 0, 62, 67
1, 17420, Note_off_c, 0, 69, 64
1, 17432, Control_c, 0, 64, 127
1, 17460, Note_off_c, 0, 50, 64
1, 17464, Note_off_c, 0, 59, 64
1, 17480, Note_off_c, 0, 55, 64
1, 17556, Control_c, 0, 64, 0
1, 17576, Control_c, 0, 64, 127
1, 17580, Note_on_c, 0, 59, 50
1, 17580, Note_on_c, 0, 55, 63
1, 17584, Note_on_c, 0, 67, 54
1, 17592, Note_on_c, 0, 50, 31
1, 17632, Note_off_c, 0, 62, 64
1, 17656, Note_off_c, 0, 59, 64
1, 17656, Note_off_c, 0, 55, 64
1, 17660, Note_off_c, 0, 50, 64
1, 17712, Note_off_c, 0, 67, 64
1, 17724, Note_on_c, 0, 71, 53
1, 17760, Control_c, 0, 64, 0
1, 17780, Note_on_c, 0, 69, 48
1, 17788, Note_on_c, 0, 54, 50
1, 17796, Note_on_c, 0, 60, 45
1, 17800, Note_on_c, 0, 50, 46
1, 17808, Note_off_c, 0, 71, 64
1, 17820, Control_c, 0, 64, 127
1, 17852, Note_on_c, 0, 71, 57
1, 17856, Note_off_c, 0, 54, 64
1, 17856, Note_off_c, 0, 60, 64
1, 17856, Note_off_c, 0, 50, 64
1, 17868, Note_off_c, 0, 69, 64
1, 17920, Note_on_c, 0, 69, 46
1, 17932, Control_c, 0, 64, 0
1, 17952, Note_off_c, 0, 71, 64
1, 17968, Note_on_c, 0, 62, 66
1, 17972, Note_on_c, 0, 59, 40
1, 17972, Note_on_c, 0, 55, 37
1, 17972, Note_on_c, 0, 50, 15
1, 17988, Control_c, 0, 64, 127
1, 18000, Note_off_c, 0, 69, 64
1, 18040, Note_off_c, 0, 55, 64
1, 18040, Note_off_c, 0, 50, 64
1, 18044, Note_off_c, 0, 59, 64
1, 18156, Note_on_c, 0, 59, 66
1, 18160, Note_on_c, 0, 67, 53
1, 18164, Note_on_c, 0, 55, 62
1, 18168, Note_on_c, 0, 50, 31
1, 18216, Note_off_c, 0, 62, 64
1, 18232, Note_off_c, 0, 59, 64
1, 18236, Note_off_c, 0, 50, 64
1, 18240, Note_off_c, 0, 55, 64
1, 18304, Note_on_c, 0, 71, 50
1, 18312, Note_off_c, 0, 67, 64
1, 18344, Control_c, 0, 64, 0
1, 18348, Note_on_c, 0, 76, 59
1, 18356, Note_on_c, 0, 54, 50
1, 18364, Note_on_c, 0, 50, 46
1, 18368, Note_on_c, 0, 60, 46
1, 18384, Note_off_c, 0, 71, 64
1, 18392, Control_c, 0, 64, 127
1, 18420, Note_off_c, 0, 54, 64
1, 18420, Note_off_c, 0, 60, 64
1, 18424, Note_off_c, 0, 50, 64
1, 18552, Note_off_c, 0, 76, 64
1, 18560, Note_on_c, 0, 74, 63
1, 18568, Note_on_c, 0, 60, 45
1, 18568, Note_on_c, 0, 54, 50
1, 18568, Note_on_c, 0, 50, 46
1, 18624, Note_off_c, 0, 54, 64
1, 18632, Note_off_c, 0, 50, 64
1, 18640, Note_off_c, 0, 60, 64
1, 18688, Note_on_c, 0, 71, 57
1, 18696, Note_off_c, 0, 74, 64
1, 18752, Note_on_c, 0, 72, 54
1, 18752, Note_on_c, 0, 60, 40
1, 18756, Note_on_c, 0, 50, 44
1, 18764, Note_on_c, 0, 54, 48
1, 18768, Note_off_c, 0, 71, 64
1, 18808, Note_off_c, 0, 60, 64
1, 18808, Note_off_c, 0, 54, 64
1, 18812, Note_off_c, 0, 50, 64
1, 18848, Note_off_c, 0, 72, 64
1, 18868, Note_on_c, 0, 69, 57
1, 18896, Control_c, 0, 64, 0
1, 18928, Note_on_c, 0, 67, 57
1, 18932, Note_on_c, 0, 43, 50
1, 18952, Note_off_c, 0, 69, 64
1, 18976, Control_c, 0, 64, 127
1, 19000, Note_off_c, 0, 43, 64
1, 19072, Note_on_c, 0, 71, 50
1, 19092, Note_off_c, 0, 67, 64
1, 19112, Note_on_c, 0, 59, 41
1, 19112, Note_on_c, 0, 50, 40
1, 19116, Note_on_c, 0, 55, 41
1, 19120, Note_on_c, 0, 74, 48
1, 19160, Note_off_c, 0, 50, 64
1, 19164, Note_off_c, 0, 59, 64
1, 19176, Note_off_c, 0, 55, 64
1, 19216, Note_off_c, 0, 71, 64
1, 19232, Note_off_c, 0, 74, 64
1, 19240, Note_on_c, 0, 78, 53
1, 19276, Note_on_c, 0, 81, 57
1, 19284, Note_on_c, 0, 59, 66
1, 19284, Note_on_c, 0, 50, 62
1, 19284, Note_on_c, 0, 55, 71
1, 19320, Note_off_c, 0, 78, 64
1, 19324, Note_off_c, 0, 50, 64
1, 19336, Note_off_c, 0, 59, 64
1, 19348, Note_off_c, 0, 55, 64
1, 19360, Note_off_c, 0, 81, 64
1, 19404, Note_on_c, 0, 79, 57
1, 19452, Control_c, 0, 64, 0
1, 19464, Note_off_c, 0, 79, 64
1, 19468, Note_on_c, 0, 69, 63
1, 19468, Note_on_c, 0, 60, 50
1, 19468, Note_on_c, 0, 54, 50
1, 19468, Note_on_c, 0, 50, 46
1, 19516, Control_c, 0, 64, 127
1, 19532, Note_off_c, 0, 60, 64
1, 19532, Note_off_c, 0, 54, 64
1, 19544, Note_off_c, 0, 50, 64
1, 19544, Note_on_c, 0, 71, 59
1, 19548, Note_off_c, 0, 69, 64
1, 19624, Note_on_c, 0, 69, 50
1, 19632, Note_off_c, 0, 71, 64
1, 19652, Control_c, 0, 64, 0
1, 19672, Note_on_c, 0, 59, 41
1, 19672, Note_on_c, 0, 55, 40
1, 19672, Note_on_c, 0, 50, 15
1, 19688, Note_on_c, 0, 62, 70
1, 19704, Note_off_c, 0, 69, 64
1, 19712, Control_c, 0, 64, 127
1, 19740, Note_off_c, 0, 50, 64
1, 19744, Note_off_c, 0, 59, 64
1, 19748, Note_off_c, 0, 55, 64
1, 19860, Note_on_c, 0, 59, 63
1, 19864, Note_on_c, 0, 55, 63
1, 19864, Note_on_c, 0, 67, 66
1, 19872, Note_on_c, 0, 50, 31
1, 19924, Note_off_c, 0, 62, 64
1, 19940, Note_off_c, 0, 50, 64
1, 19944, Note_off_c, 0, 59, 64
1, 19944, Note_off_c, 0, 55, 64
1, 19984, Note_off_c, 0, 67, 64
1, 20024, Note_on_c, 0, 71, 59
1, 20040, Control_c, 0, 64, 0
1, 20072, Note_on_c, 0, 50, 46
1, 20076, Note_on_c, 0, 54, 50
1, 20080, Note_on_c, 0, 60, 46
1, 20080, Note_on_c, 0, 69, 63
1, 20100, Control_c, 0, 64, 127
1, 20108, Note_off_c, 0, 71, 64
1, 20124, Note_off_c, 0, 60, 64
1, 20128, Note_on_c, 0, 71, 54
1, 20132, Note_off_c, 0, 50, 64
1, 20140, Note_off_c, 0, 54, 64
1, 20160, Note_off_c, 0, 69, 64
1, 20180, Control_c, 0, 64, 0
1, 20200, Note_on_c, 0, 69, 57
1, 20212, Note_off_c, 0, 71, 64
1, 20236, Note_on_c, 0, 50, 15
1, 20240, Note_on_c, 0, 55, 40
1, 20244, Note_on_c, 0, 62, 75
1, 20248, Note_on_c, 0, 59, 41
1, 20260, Note_off_c, 0, 69, 64
1, 20264, Control_c, 0, 64, 127
1, 20304, Note_off_c, 0, 50, 64
1, 20316, Note_off_c, 0, 55, 64
1, 20320, Note_off_c, 0, 59, 64
1, 20444, Note_on_c, 0, 59, 63
1, 20448, Note_on_c, 0, 67, 50
1, 20448, Note_on_c, 0, 55, 71
1, 20448, Note_on_c, 0, 50, 31
1, 20480, Note_off_c, 0, 62, 64
1, 20512, Note_off_c, 0, 59, 64
1, 20516, Note_off_c, 0, 50, 64
1, 20524, Note_off_c, 0, 55, 64
1, 20564, Note_off_c, 0, 67, 64
1, 20576, Note_on_c, 0, 71, 42
1, 20608, Control_c, 0, 64, 0
1, 20624, Note_off_c, 0, 71, 64
1, 20628, Note_on_c, 0, 54, 50
1, 20632, Note_on_c, 0, 50, 50
1, 20636, Note_on_c, 0, 60, 50
1, 20644, Note_on_c, 0, 78, 67
1, 20660, Note_off_c, 0, 54, 64
1, 20668, Control_c, 0, 64, 127
1, 20688, Note_off_c, 0, 50, 64
1, 20688, Note_off_c, 0, 60, 64
1, 20728, Note_off_c, 0, 78, 64
1, 20792, Control_c, 0, 64, 0
1, 20832, Note_on_c, 0, 76, 59
1, 20832, Note_on_c, 0, 54, 50
1, 20832, Note_on_c, 0, 50, 46
1, 20840, Note_on_c, 0, 60, 48
1, 20864, Control_c, 0, 64, 127
1, 20872, Note_off_c, 0, 54, 64
1, 20872, Note_off_c, 0, 50, 64
1, 20900, Note_off_c, 0, 60, 64
1, 20956, Note_off_c, 0, 76, 64
1, 20980, Note_on_c, 0, 71, 53
1, 21032, Note_on_c, 0, 72, 59
1, 21032, Note_on_c, 0, 50, 44
1, 21036, Note_on_c, 0, 60, 40
1, 21036, Note_on_c, 0, 54, 46
1, 21080, Note_off_c, 0, 71, 64
1, 21088, Note_off_c, 0, 54, 64
1, 21100, Note_off_c, 0, 50, 64
1, 21104, Note_off_c, 0, 60, 64
1, 21116, Note_off_c, 0, 72, 64
1, 21160, Note_on_c, 0, 69, 48
1, 21188, Control_c, 0, 64, 0
1, 21216, Note_off_c, 0, 69, 64
1, 21216, Note_on_c, 0, 67, 63
1, 21216, Note_on_c, 0, 43, 46
1, 21248, Control_c, 0, 64, 127
1, 21268, Note_off_c, 0, 43, 64
1, 21336, Note_off_c, 0, 67, 64
1, 21336, Note_on_c, 0, 71, 53
1, 21388, Note_on_c, 0, 74, 41
1, 21392, Note_on_c, 0, 50, 41
1, 21392, Note_on_c, 0, 55, 41
1, 21392, Note_on_c, 0, 59, 41
1, 21420, Note_off_c, 0, 71, 64
1, 21448, Note_off_c, 0, 50, 64
1, 21456, Note_off_c, 0, 74, 64
1, 21456, Note_off_c, 0, 55, 64
1, 21460, Note_off_c, 0, 59, 64
1, 21516, Note_on_c, 0, 78, 50
1, 21556, Note_on_c, 0, 50, 72
1, 21560, Note_on_c, 0, 81, 57
1, 21560, Note_on_c, 0, 59, 66
1, 21560, Note_on_c, 0, 55, 71
1, 21588, Note_off_c, 0, 78, 64
1, 21612, Note_off_c, 0, 50, 64
1, 21616, Note_off_c, 0, 59, 64
1, 21620, Note_off_c, 0, 55, 64
1, 21672, Note_off_c, 0, 81, 64
1, 21696, Note_on_c, 0, 79, 45
1, 21740, Control_c, 0, 64, 0
1, 21760, Note_on_c, 0, 55, 87
1, 21760, Note_on_c, 0, 43, 81
1, 21776, Note_off_c, 0, 79, 64
1, 21788, Control_c, 0, 64, 127
1, 21808, Note_off_c, 0, 55, 64
1, 21808, Note_off_c, 0, 43, 64
1, 21912, Control_c, 0, 64, 0
1, 21960, Note_on_c, 0, 43, 83
1, 21968, Note_on_c, 0, 55, 81
1, 21988, Control_c, 0, 64, 127
1, 22008, Note_off_c, 0, 43, 64
1, 22016, Note_off_c, 0, 55, 64
1, 22164, Note_on_c, 0, 55, 75
1, 22168, Note_on_c, 0, 43, 76
1, 22212, Note_off_c, 0, 55, 64
1, 22216, Note_off_c, 0, 43, 64
1, 22352, Note_on_c, 0, 55, 70
1, 22360, Note_on_c, 0, 43, 72
1, 22400, Note_off_c, 0, 55, 64
1, 22408, Note_off_c, 0, 43, 64
1, 22548, Note_on_c, 0, 55, 66
1, 22552, Note_on_c, 0, 43, 66
1, 22596, Note_off_c, 0, 55, 64
1, 22600, Note_off_c, 0, 43, 64
1, 22744, Note_on_c, 0, 43, 63
1, 22752, Note_on_c, 0, 55, 62
1, 22792, Note_off_c, 0, 43, 64
1, 22800, Note_off_c, 0, 55, 64
1, 22944, Note_on_c, 0, 55, 50
1, 22956, Note_on_c, 0, 43, 50
1, 22992, Note_off_c, 0, 55, 64
1, 23004, Note_off_c, 0, 43, 64
1, 23160, Note_on_c, 0, 55, 48
1, 23160, Note_on_c, 0, 43, 50
1, 23236, Note_off_c, 0, 55, 64
1, 23236, Note_off_c, 0, 43, 64
1, 23376, Note_on_c, 0, 55, 41
1, 23376, Note_on_c, 0, 43, 41
1, 23472, Note_off_c, 0, 55, 64
1, 23472, Note_off_c, 0, 43, 64
1, 23592, Note_on_c, 0, 43, 32
1, 23592, Note_on_c, 0, 55, 32
1, 23692, Note_off_c, 0, 43, 64
1, 23696, Note_off_c, 0, 55, 64
1, 23820, Note_on_c, 0, 55, 32
1, 23828, Note_on_c, 0, 43, 29
1, 23940, Note_off_c, 0, 55, 64
1, 23944, Note_off_c, 0, 43, 64
1, 24072, Note_on_c, 0, 43, 24
1, 24072, Note_on_c, 0, 55, 26
1, 24428, Control_c, 0, 64, 0
1, 24536, Note_off_c, 0, 43, 64
1, 24540, Tempo, 500000
1, 24540, Note_off_c, 0, 55, 64
1, 24540, End_track
2, 0, Start_track
2, 1, Copyright_t, "__________________________________________________________\012\012KUNSTDERFUGE.COM GREAT CLASSICAL MIDI COLLECTION\012__________________________________________________________\012\012KUNST-DER-FUGE CONTRIBUTOR's PROPERTY\012Copyright by Contributor & Kunst der Fuge, © 2006\012\012Contributors' list: http://kunstderfuge.com/thanks.htm\012Terms and conditions: http://kunstderfuge.com/notes.htm\012__________________________________________________________\012\012NO WEBSITE MAY PUBLISH THIS FILE WITHOUT PERMISSION\012NO COMMERCIAL USE ALLOWED, NOR BY SALES NOR by eBay!\012PLEASE REPORT ANY ABUSE TO INFO@ONCLASSICAL.COM\012__________________________________________________________\012\012Thousands of free classical MIDI files at kunstderfuge.com"
2, 1, End_track
0, 0, End_of_file
