0, 0, Header, 0, 2, 384
1, 0, Start_track
1, 0, Title_t, "Chopin's Mazurkas (played by © Ron Lubetsky)"
1, 0, Control_c, 0, 0, 0
1, 0, Program_c, 0, 0
1, 0, Time_signature, 4, 2, 96, 8
1, 0, Sequencer_specific, 3, 0, 0, 65
1, 0, Tempo, 500000
1, 276, Control_c, 0, 64, 0
1, 412, Control_c, 0, 64, 127
1, 1028, Control_c, 0, 64, 0
1, 1040, Note_on_c, 0, 67, 47
1, 1168, Control_c, 0, 64, 127
1, 1284, Control_c, 0, 64, 0
1, 1376, Control_c, 0, 64, 127
1, 1552, Note_on_c, 0, 70, 35
1, 1584, Note_off_c, 0, 67, 64
1, 1596, Note_on_c, 0, 68, 43
1, 1644, Note_off_c, 0, 70, 64
1, 1668, Note_on_c, 0, 62, 38
1, 1680, Note_on_c, 0, 67, 46
1, 1680, Note_on_c, 0, 55, 24
1, 1684, Control_c, 0, 64, 0
1, 1696, Note_off_c, 0, 68, 64
1, 1724, Control_c, 0, 64, 127
1, 1844, Note_off_c, 0, 62, 64
1, 1848, Note_on_c, 0, 71, 43
1, 1852, Note_off_c, 0, 55, 64
1, 1888, Note_off_c, 0, 67, 64
1, 1980, Control_c, 0, 64, 0
1, 2000, Note_on_c, 0, 72, 43
1, 2012, Note_on_c, 0, 55, 35
1, 2016, Note_on_c, 0, 65, 43
1, 2024, Note_on_c, 0, 62, 28
1, 2052, Note_off_c, 0, 71, 64
1, 2068, Control_c, 0, 64, 127
1, 2140, Note_on_c, 0, 74, 42
1, 2164, Note_off_c, 0, 72, 64
1, 2184, Note_off_c, 0, 55, 64
1, 2200, Note_off_c, 0, 62, 64
1, 2284, Note_on_c, 0, 77, 45
1, 2292, Note_off_c, 0, 74, 64
1, 2332, Note_on_c, 0, 75, 49
1, 2356, Note_off_c, 0, 65, 64
1, 2372, Note_off_c, 0, 77, 64
1, 2444, Note_on_c, 0, 74, 49
1, 2464, Note_off_c, 0, 75, 64
1, 2600, Control_c, 0, 64, 0
1, 2612, Note_on_c, 0, 55, 27
1, 2612, Note_on_c, 0, 72, 46
1, 2612, Note_on_c, 0, 48, 30
1, 2620, Note_on_c, 0, 63, 38
1, 2644, Note_off_c, 0, 74, 64
1, 2664, Note_off_c, 0, 55, 64
1, 2664, Note_off_c, 0, 48, 64
1, 2672, Note_off_c, 0, 63, 64
1, 2692, Control_c, 0, 64, 127
1, 2924, Note_on_c, 0, 55, 34
1, 2924, Note_on_c, 0, 48, 31
1, 2932, Note_on_c, 0, 63, 41
1, 2976, Note_off_c, 0, 55, 64
1, 2976, Note_off_c, 0, 48, 64
1, 2984, Note_off_c, 0, 63, 64
1, 3196, Note_off_c, 0, 72, 64
1, 3236, Note_on_c, 0, 74, 41
1, 3372, Note_on_c, 0, 75, 38
1, 3384, Note_off_c, 0, 74, 64
1, 3504, Note_on_c, 0, 79, 42
1, 3508, Note_off_c, 0, 75, 64
1, 3520, Control_c, 0, 64, 0
1, 3532, Note_on_c, 0, 59, 31
1, 3532, Note_on_c, 0, 55, 31
1, 3536, Note_on_c, 0, 65, 41
1, 3548, Note_on_c, 0, 77, 47
1, 3552, Note_on_c, 0, 48, 26
1, 3580, Control_c, 0, 64, 127
1, 3588, Note_off_c, 0, 79, 64
1, 3588, Note_off_c, 0, 59, 64
1, 3588, Note_off_c, 0, 55, 64
1, 3588, Note_off_c, 0, 65, 64
1, 3604, Note_off_c, 0, 48, 64
1, 3848, Note_on_c, 0, 75, 38
1, 3852, Note_on_c, 0, 62, 31
1, 3852, Note_on_c, 0, 48, 27
1, 3852, Note_on_c, 0, 65, 31
1, 3868, Note_off_c, 0, 77, 64
1, 3868, Note_on_c, 0, 55, 24
1, 3904, Note_off_c, 0, 62, 64
1, 3904, Note_off_c, 0, 48, 64
1, 3908, Note_off_c, 0, 65, 64
1, 3920, Note_off_c, 0, 55, 64
1, 3996, Note_on_c, 0, 74, 42
1, 4000, Note_off_c, 0, 75, 64
1, 4124, Note_off_c, 0, 74, 64
1, 4136, Note_on_c, 0, 74, 52
1, 4268, Note_on_c, 0, 75, 52
1, 4300, Note_off_c, 0, 74, 64
1, 4412, Note_on_c, 0, 72, 45
1, 4412, Note_on_c, 0, 63, 38
1, 4420, Note_on_c, 0, 60, 38
1, 4424, Note_on_c, 0, 55, 36
1, 4432, Note_on_c, 0, 48, 31
1, 4436, Note_off_c, 0, 75, 64
1, 4448, Control_c, 0, 64, 0
1, 4468, Note_off_c, 0, 63, 64
1, 4472, Note_off_c, 0, 60, 64
1, 4476, Note_off_c, 0, 55, 64
1, 4484, Note_off_c, 0, 48, 64
1, 4716, Control_c, 0, 64, 127
1, 4760, Note_on_c, 0, 60, 36
1, 4764, Note_on_c, 0, 55, 31
1, 4768, Note_on_c, 0, 63, 31
1, 4772, Note_on_c, 0, 48, 30
1, 4812, Note_off_c, 0, 60, 64
1, 4816, Note_off_c, 0, 55, 64
1, 4820, Note_off_c, 0, 63, 64
1, 4824, Note_off_c, 0, 48, 64
1, 5044, Note_on_c, 0, 62, 69
1, 5068, Note_off_c, 0, 72, 64
1, 5220, Note_on_c, 0, 65, 56
1, 5236, Note_off_c, 0, 62, 64
1, 5272, Note_on_c, 0, 63, 65
1, 5304, Note_off_c, 0, 65, 64
1, 5364, Note_on_c, 0, 50, 49
1, 5376, Note_on_c, 0, 57, 50
1, 5380, Note_on_c, 0, 62, 54
1, 5388, Control_c, 0, 64, 0
1, 5404, Note_off_c, 0, 63, 64
1, 5504, Note_on_c, 0, 66, 54
1, 5536, Note_off_c, 0, 50, 64
1, 5548, Note_off_c, 0, 57, 64
1, 5640, Note_on_c, 0, 67, 58
1, 5648, Note_on_c, 0, 57, 49
1, 5652, Note_off_c, 0, 66, 64
1, 5652, Note_on_c, 0, 60, 61
1, 5656, Control_c, 0, 64, 127
1, 5668, Note_on_c, 0, 50, 43
1, 5700, Note_off_c, 0, 62, 64
1, 5768, Note_on_c, 0, 69, 58
1, 5792, Note_off_c, 0, 67, 64
1, 5824, Note_off_c, 0, 57, 64
1, 5840, Note_off_c, 0, 50, 64
1, 5916, Note_on_c, 0, 72, 65
1, 5932, Note_off_c, 0, 69, 64
1, 5956, Note_on_c, 0, 70, 64
1, 5972, Note_off_c, 0, 60, 64
1, 6000, Note_off_c, 0, 72, 64
1, 6068, Note_on_c, 0, 69, 69
1, 6092, Note_off_c, 0, 70, 64
1, 6220, Note_on_c, 0, 55, 46
1, 6220, Note_on_c, 0, 43, 54
1, 6228, Note_on_c, 0, 67, 61
1, 6232, Note_on_c, 0, 58, 46
1, 6240, Control_c, 0, 64, 0
1, 6256, Note_off_c, 0, 69, 64
1, 6292, Control_c, 0, 64, 127
1, 6508, Note_on_c, 0, 46, 58
1, 6512, Note_off_c, 0, 43, 64
1, 6512, Note_on_c, 0, 62, 43
1, 6524, Note_off_c, 0, 58, 64
1, 6540, Control_c, 0, 64, 0
1, 6592, Control_c, 0, 64, 127
1, 6808, Note_on_c, 0, 63, 42
1, 6816, Note_off_c, 0, 46, 64
1, 6820, Note_on_c, 0, 69, 61
1, 6820, Note_on_c, 0, 48, 60
1, 6852, Note_off_c, 0, 67, 64
1, 6872, Control_c, 0, 64, 0
1, 6896, Note_off_c, 0, 62, 64
1, 6908, Control_c, 0, 64, 127
1, 6944, Note_on_c, 0, 70, 64
1, 6964, Note_off_c, 0, 69, 64
1, 7000, Note_off_c, 0, 63, 64
1, 7064, Note_on_c, 0, 74, 56
1, 7068, Note_off_c, 0, 70, 64
1, 7092, Note_on_c, 0, 67, 56
1, 7092, Note_on_c, 0, 63, 56
1, 7100, Note_on_c, 0, 45, 54
1, 7112, Note_on_c, 0, 72, 64
1, 7116, Control_c, 0, 64, 0
1, 7144, Note_off_c, 0, 48, 64
1, 7148, Note_off_c, 0, 74, 64
1, 7172, Control_c, 0, 64, 127
1, 7296, Control_c, 0, 64, 0
1, 7352, Control_c, 0, 64, 127
1, 7412, Note_on_c, 0, 70, 58
1, 7424, Note_on_c, 0, 60, 53
1, 7428, Note_on_c, 0, 66, 49
1, 7436, Note_off_c, 0, 67, 64
1, 7436, Note_off_c, 0, 63, 64
1, 7440, Note_on_c, 0, 50, 50
1, 7460, Control_c, 0, 64, 0
1, 7508, Control_c, 0, 64, 127
1, 7556, Note_on_c, 0, 69, 56
1, 7588, Note_off_c, 0, 70, 64
1, 7636, Note_off_c, 0, 72, 64
1, 7692, Note_off_c, 0, 45, 64
1, 7732, Note_on_c, 0, 67, 71
1, 7744, Note_off_c, 0, 66, 64
1, 7752, Note_off_c, 0, 60, 64
1, 7756, Control_c, 0, 64, 0
1, 7760, Note_off_c, 0, 69, 64
1, 7796, Note_off_c, 0, 50, 64
1, 7836, Note_off_c, 0, 55, 64
1, 7844, Control_c, 0, 64, 127
1, 8056, Note_on_c, 0, 62, 45
1, 8068, Note_on_c, 0, 59, 36
1, 8092, Note_on_c, 0, 43, 45
1, 8108, Control_c, 0, 64, 0
1, 8164, Control_c, 0, 64, 127
1, 8420, Note_on_c, 0, 63, 31
1, 8432, Note_on_c, 0, 60, 47
1, 8440, Note_off_c, 0, 62, 64
1, 8444, Note_on_c, 0, 55, 26
1, 8452, Note_off_c, 0, 59, 64
1, 8576, Note_on_c, 0, 64, 46
1, 8588, Note_off_c, 0, 63, 64
1, 8588, Note_on_c, 0, 61, 42
1, 8608, Note_off_c, 0, 60, 64
1, 8616, Note_off_c, 0, 55, 64
1, 8788, Note_on_c, 0, 62, 43
1, 8792, Control_c, 0, 64, 0
1, 8800, Note_on_c, 0, 65, 45
1, 8816, Note_on_c, 0, 55, 28
1, 8820, Note_off_c, 0, 61, 64
1, 8828, Note_off_c, 0, 64, 64
1, 8836, Control_c, 0, 64, 127
1, 8880, Note_off_c, 0, 43, 64
1, 8964, Note_off_c, 0, 62, 64
1, 8972, Note_off_c, 0, 65, 64
1, 8992, Note_off_c, 0, 55, 64
1, 9028, Note_on_c, 0, 68, 43
1, 9036, Note_off_c, 0, 67, 64
1, 9068, Note_on_c, 0, 70, 43
1, 9084, Note_off_c, 0, 68, 64
1, 9140, Note_on_c, 0, 68, 43
1, 9156, Note_off_c, 0, 70, 64
1, 9172, Note_on_c, 0, 65, 38
1, 9180, Note_on_c, 0, 62, 38
1, 9180, Note_on_c, 0, 55, 35
1, 9196, Note_on_c, 0, 67, 53
1, 9204, Note_off_c, 0, 68, 64
1, 9348, Note_off_c, 0, 65, 64
1, 9356, Note_off_c, 0, 55, 64
1, 9356, Note_off_c, 0, 62, 64
1, 9364, Note_on_c, 0, 71, 45
1, 9428, Note_off_c, 0, 67, 64
1, 9504, Control_c, 0, 64, 0
1, 9512, Note_on_c, 0, 65, 28
1, 9516, Note_on_c, 0, 72, 45
1, 9516, Note_on_c, 0, 62, 31
1, 9516, Note_on_c, 0, 55, 31
1, 9544, Note_off_c, 0, 71, 64
1, 9544, Note_on_c, 0, 67, 1
1, 9580, Control_c, 0, 64, 127
1, 9652, Note_on_c, 0, 74, 43
1, 9676, Note_off_c, 0, 72, 64
1, 9688, Note_off_c, 0, 65, 64
1, 9688, Note_off_c, 0, 62, 64
1, 9688, Note_off_c, 0, 55, 64
1, 9700, Note_off_c, 0, 67, 64
1, 9784, Note_on_c, 0, 77, 43
1, 9804, Note_off_c, 0, 74, 64
1, 9828, Note_on_c, 0, 75, 46
1, 9868, Note_off_c, 0, 77, 64
1, 9932, Note_on_c, 0, 74, 43
1, 9956, Note_off_c, 0, 75, 64
1, 10064, Note_on_c, 0, 72, 43
1, 10072, Note_on_c, 0, 48, 31
1, 10076, Note_on_c, 0, 55, 32
1, 10084, Note_on_c, 0, 63, 38
1, 10084, Control_c, 0, 64, 0
1, 10124, Note_off_c, 0, 74, 64
1, 10124, Note_off_c, 0, 48, 64
1, 10128, Note_off_c, 0, 55, 64
1, 10136, Note_off_c, 0, 63, 64
1, 10400, Note_on_c, 0, 63, 41
1, 10412, Note_on_c, 0, 48, 35
1, 10416, Note_on_c, 0, 55, 38
1, 10432, Control_c, 0, 64, 127
1, 10452, Note_off_c, 0, 63, 64
1, 10464, Note_off_c, 0, 48, 64
1, 10468, Note_off_c, 0, 55, 64
1, 10708, Note_on_c, 0, 74, 43
1, 10740, Note_off_c, 0, 72, 64
1, 10820, Note_on_c, 0, 75, 49
1, 10860, Note_off_c, 0, 74, 64
1, 10932, Note_off_c, 0, 75, 64
1, 10936, Note_on_c, 0, 79, 38
1, 10956, Note_on_c, 0, 65, 38
1, 10956, Note_on_c, 0, 48, 31
1, 10960, Note_on_c, 0, 59, 31
1, 10972, Note_on_c, 0, 77, 42
1, 10972, Note_on_c, 0, 55, 34
1, 10984, Control_c, 0, 64, 0
1, 11008, Note_off_c, 0, 65, 64
1, 11008, Note_off_c, 0, 48, 64
1, 11012, Note_off_c, 0, 59, 64
1, 11028, Note_off_c, 0, 55, 64
1, 11044, Note_off_c, 0, 79, 64
1, 11044, Control_c, 0, 64, 127
1, 11260, Note_on_c, 0, 75, 38
1, 11272, Note_on_c, 0, 62, 31
1, 11276, Note_on_c, 0, 65, 38
1, 11276, Note_on_c, 0, 48, 31
1, 11284, Note_on_c, 0, 55, 26
1, 11296, Note_off_c, 0, 77, 64
1, 11312, Control_c, 0, 64, 127
1, 11324, Note_off_c, 0, 62, 64
1, 11328, Note_off_c, 0, 65, 64
1, 11328, Note_off_c, 0, 48, 64
1, 11336, Note_off_c, 0, 55, 64
1, 11420, Note_on_c, 0, 74, 45
1, 11436, Note_off_c, 0, 75, 64
1, 11476, Note_off_c, 0, 74, 64
1, 11528, Note_on_c, 0, 74, 52
1, 11644, Note_on_c, 0, 75, 49
1, 11660, Note_off_c, 0, 74, 64
1, 11760, Control_c, 0, 64, 0
1, 11776, Note_on_c, 0, 63, 38
1, 11780, Note_on_c, 0, 72, 41
1, 11784, Note_on_c, 0, 55, 41
1, 11788, Note_off_c, 0, 75, 64
1, 11788, Note_on_c, 0, 48, 38
1, 11792, Note_on_c, 0, 60, 41
1, 11828, Note_off_c, 0, 63, 64
1, 11836, Note_off_c, 0, 55, 64
1, 11844, Note_off_c, 0, 48, 64
1, 11844, Note_off_c, 0, 60, 64
1, 12156, Control_c, 0, 64, 127
1, 12168, Note_on_c, 0, 55, 27
1, 12172, Note_on_c, 0, 63, 38
1, 12180, Note_on_c, 0, 60, 31
1, 12180, Note_on_c, 0, 48, 31
1, 12220, Note_off_c, 0, 55, 64
1, 12224, Note_off_c, 0, 63, 64
1, 12236, Note_off_c, 0, 60, 64
1, 12236, Note_off_c, 0, 48, 64
1, 12456, Note_on_c, 0, 62, 67
1, 12468, Note_off_c, 0, 72, 64
1, 12660, Note_on_c, 0, 63, 61
1, 12672, Note_off_c, 0, 62, 64
1, 12696, Note_on_c, 0, 65, 50
1, 12728, Note_off_c, 0, 63, 64
1, 12756, Note_on_c, 0, 63, 61
1, 12772, Control_c, 0, 64, 0
1, 12776, Note_on_c, 0, 60, 58
1, 12788, Note_on_c, 0, 50, 58
1, 12796, Note_on_c, 0, 57, 49
1, 12804, Note_off_c, 0, 65, 64
1, 12820, Note_on_c, 0, 62, 63
1, 12832, Note_off_c, 0, 63, 64
1, 12844, Note_off_c, 0, 60, 64
1, 12848, Control_c, 0, 64, 127
1, 12964, Note_off_c, 0, 50, 64
1, 12968, Note_on_c, 0, 66, 67
1, 12972, Note_off_c, 0, 57, 64
1, 13100, Note_on_c, 0, 67, 68
1, 13116, Note_on_c, 0, 57, 50
1, 13120, Note_off_c, 0, 66, 64
1, 13124, Note_on_c, 0, 50, 54
1, 13128, Note_on_c, 0, 60, 60
1, 13128, Control_c, 0, 64, 0
1, 13148, Note_off_c, 0, 62, 64
1, 13164, Control_c, 0, 64, 127
1, 13264, Note_on_c, 0, 69, 54
1, 13292, Note_off_c, 0, 67, 64
1, 13292, Note_off_c, 0, 57, 64
1, 13300, Note_off_c, 0, 50, 64
1, 13404, Note_on_c, 0, 72, 61
1, 13436, Note_off_c, 0, 69, 64
1, 13452, Note_on_c, 0, 70, 61
1, 13472, Note_off_c, 0, 60, 64
1, 13488, Note_off_c, 0, 72, 64
1, 13556, Note_on_c, 0, 69, 64
1, 13580, Note_off_c, 0, 70, 64
1, 13696, Note_on_c, 0, 43, 54
1, 13708, Note_on_c, 0, 55, 42
1, 13708, Note_on_c, 0, 67, 50
1, 13712, Note_on_c, 0, 58, 41
1, 13728, Note_off_c, 0, 69, 64
1, 13728, Control_c, 0, 64, 0
1, 13780, Control_c, 0, 64, 127
1, 13984, Note_on_c, 0, 62, 46
1, 13992, Note_on_c, 0, 46, 58
1, 13996, Note_off_c, 0, 43, 64
1, 14012, Note_off_c, 0, 58, 64
1, 14016, Control_c, 0, 64, 0
1, 14036, Control_c, 0, 64, 127
1, 14312, Note_on_c, 0, 69, 60
1, 14320, Note_off_c, 0, 46, 64
1, 14324, Note_on_c, 0, 63, 39
1, 14324, Note_on_c, 0, 48, 54
1, 14336, Note_off_c, 0, 67, 64
1, 14340, Note_off_c, 0, 62, 64
1, 14360, Control_c, 0, 64, 0
1, 14420, Control_c, 0, 64, 127
1, 14480, Note_on_c, 0, 70, 50
1, 14496, Note_off_c, 0, 69, 64
1, 14580, Note_off_c, 0, 63, 64
1, 14600, Note_on_c, 0, 74, 56
1, 14616, Note_off_c, 0, 70, 64
1, 14656, Note_on_c, 0, 63, 50
1, 14656, Note_on_c, 0, 45, 53
1, 14660, Note_on_c, 0, 72, 65
1, 14660, Note_on_c, 0, 67, 42
1, 14672, Control_c, 0, 64, 0
1, 14684, Note_off_c, 0, 74, 64
1, 14696, Note_off_c, 0, 48, 64
1, 14732, Control_c, 0, 64, 127
1, 14976, Note_on_c, 0, 66, 50
1, 14976, Note_on_c, 0, 60, 46
1, 14976, Note_on_c, 0, 50, 38
1, 14976, Note_on_c, 0, 70, 36
1, 15012, Note_off_c, 0, 63, 64
1, 15012, Note_off_c, 0, 72, 64
1, 15020, Note_off_c, 0, 67, 64
1, 15028, Control_c, 0, 64, 0
1, 15060, Note_off_c, 0, 45, 64
1, 15084, Control_c, 0, 64, 127
1, 15132, Note_on_c, 0, 69, 61
1, 15152, Note_off_c, 0, 70, 64
1, 15196, Control_c, 0, 64, 0
1, 15332, Note_off_c, 0, 66, 64
1, 15332, Note_off_c, 0, 50, 64
1, 15332, Note_on_c, 0, 67, 69
1, 15340, Note_off_c, 0, 69, 64
1, 15360, Note_off_c, 0, 60, 64
1, 15360, Note_on_c, 0, 43, 50
1, 15380, Control_c, 0, 64, 0
1, 15408, Note_off_c, 0, 55, 64
1, 15440, Control_c, 0, 64, 127
1, 15736, Note_on_c, 0, 62, 49
1, 15744, Note_on_c, 0, 59, 46
1, 15748, Note_on_c, 0, 55, 49
1, 15772, Control_c, 0, 64, 0
1, 15824, Control_c, 0, 64, 127
1, 15956, Note_off_c, 0, 43, 64
1, 16116, Note_off_c, 0, 67, 64
1, 16204, Note_on_c, 0, 67, 64
1, 16204, Note_on_c, 0, 58, 21
1, 16204, Note_on_c, 0, 52, 43
1, 16212, Note_on_c, 0, 61, 49
1, 16248, Note_off_c, 0, 62, 64
1, 16260, Note_off_c, 0, 59, 64
1, 16264, Note_off_c, 0, 55, 64
1, 16272, Control_c, 0, 64, 0
1, 16312, Control_c, 0, 64, 127
1, 16536, Note_off_c, 0, 67, 64
1, 16584, Note_on_c, 0, 67, 60
1, 16644, Note_off_c, 0, 67, 64
1, 16692, Note_on_c, 0, 67, 73
1, 16708, Note_on_c, 0, 44, 73
1, 16736, Control_c, 0, 64, 0
1, 16760, Control_c, 0, 64, 127
1, 16896, Note_on_c, 0, 68, 60
1, 16936, Note_off_c, 0, 67, 64
1, 17040, Note_off_c, 0, 58, 64
1, 17068, Note_on_c, 0, 60, 69
1, 17072, Note_off_c, 0, 61, 64
1, 17076, Note_on_c, 0, 56, 41
1, 17076, Note_on_c, 0, 53, 32
1, 17092, Control_c, 0, 64, 0
1, 17124, Note_off_c, 0, 52, 64
1, 17128, Control_c, 0, 64, 127
1, 17308, Note_off_c, 0, 56, 64
1, 17308, Note_off_c, 0, 53, 64
1, 17360, Note_on_c, 0, 53, 50
1, 17364, Note_on_c, 0, 56, 53
1, 17384, Note_off_c, 0, 44, 64
1, 17476, Note_on_c, 0, 67, 61
1, 17512, Note_off_c, 0, 68, 64
1, 17600, Note_off_c, 0, 56, 64
1, 17604, Note_off_c, 0, 53, 64
1, 17644, Note_on_c, 0, 32, 69
1, 17656, Note_off_c, 0, 67, 64
1, 17656, Note_on_c, 0, 64, 61
1, 17664, Control_c, 0, 64, 0
1, 17684, Control_c, 0, 64, 127
1, 17848, Note_on_c, 0, 65, 69
1, 17868, Note_off_c, 0, 64, 64
1, 17948, Note_on_c, 0, 56, 46
1, 17956, Note_on_c, 0, 48, 49
1, 17964, Note_on_c, 0, 74, 67
1, 17996, Note_off_c, 0, 65, 64
1, 18184, Note_off_c, 0, 56, 64
1, 18188, Note_off_c, 0, 48, 64
1, 18252, Note_on_c, 0, 56, 46
1, 18260, Note_on_c, 0, 53, 49
1, 18300, Note_off_c, 0, 32, 64
1, 18412, Note_on_c, 0, 72, 61
1, 18444, Note_off_c, 0, 74, 64
1, 18484, Note_off_c, 0, 56, 64
1, 18496, Note_off_c, 0, 53, 64
1, 18556, Note_on_c, 0, 34, 67
1, 18580, Note_on_c, 0, 65, 64
1, 18600, Note_off_c, 0, 72, 64
1, 18604, Control_c, 0, 64, 0
1, 18656, Control_c, 0, 64, 127
1, 18708, Note_on_c, 0, 67, 46
1, 18796, Note_off_c, 0, 65, 64
1, 18820, Note_off_c, 0, 60, 64
1, 18872, Note_on_c, 0, 46, 54
1, 18872, Note_on_c, 0, 60, 53
1, 18876, Note_on_c, 0, 56, 58
1, 18960, Control_c, 0, 64, 0
1, 18996, Control_c, 0, 64, 127
1, 19108, Note_off_c, 0, 46, 64
1, 19112, Note_off_c, 0, 56, 64
1, 19172, Note_on_c, 0, 62, 69
1, 19192, Note_on_c, 0, 56, 53
1, 19196, Note_on_c, 0, 46, 53
1, 19220, Note_off_c, 0, 60, 64
1, 19232, Note_off_c, 0, 34, 64
1, 19372, Note_on_c, 0, 65, 64
1, 19396, Note_off_c, 0, 62, 64
1, 19408, Note_off_c, 0, 67, 64
1, 19428, Note_off_c, 0, 56, 64
1, 19432, Note_off_c, 0, 46, 64
1, 19532, Note_on_c, 0, 39, 64
1, 19544, Note_on_c, 0, 63, 69
1, 19548, Control_c, 0, 64, 0
1, 19568, Note_off_c, 0, 65, 64
1, 19584, Control_c, 0, 64, 127
1, 19796, Note_off_c, 0, 63, 64
1, 19796, Note_on_c, 0, 70, 50
1, 19848, Note_off_c, 0, 70, 64
1, 19912, Note_on_c, 0, 70, 75
1, 19980, Note_on_c, 0, 58, 28
1, 19980, Note_on_c, 0, 79, 63
1, 19980, Note_on_c, 0, 67, 57
1, 19988, Note_on_c, 0, 63, 38
1, 19996, Note_off_c, 0, 70, 64
1, 20028, Control_c, 0, 64, 0
1, 20068, Control_c, 0, 64, 127
1, 20192, Note_off_c, 0, 39, 64
1, 20212, Note_off_c, 0, 58, 64
1, 20216, Note_off_c, 0, 67, 64
1, 20220, Note_off_c, 0, 63, 64
1, 20348, Note_on_c, 0, 67, 54
1, 20348, Note_on_c, 0, 59, 50
1, 20352, Note_on_c, 0, 63, 52
1, 20496, Note_on_c, 0, 77, 56
1, 20536, Note_off_c, 0, 79, 64
1, 20584, Note_off_c, 0, 67, 64
1, 20584, Note_off_c, 0, 59, 64
1, 20588, Note_off_c, 0, 63, 64
1, 20660, Note_on_c, 0, 63, 30
1, 20660, Note_on_c, 0, 60, 61
1, 20660, Note_on_c, 0, 75, 64
1, 20668, Note_on_c, 0, 68, 56
1, 20692, Control_c, 0, 64, 0
1, 20712, Note_off_c, 0, 77, 64
1, 20736, Control_c, 0, 64, 127
1, 20892, Note_off_c, 0, 63, 64
1, 20892, Note_off_c, 0, 60, 64
1, 20904, Note_off_c, 0, 68, 64
1, 20908, Note_on_c, 0, 62, 61
1, 20924, Note_on_c, 0, 72, 60
1, 20932, Note_off_c, 0, 75, 64
1, 20964, Note_on_c, 0, 70, 69
1, 20988, Note_on_c, 0, 67, 56
1, 20988, Note_on_c, 0, 63, 54
1, 21000, Note_off_c, 0, 62, 64
1, 21008, Note_off_c, 0, 72, 64
1, 21012, Control_c, 0, 64, 0
1, 21064, Control_c, 0, 64, 127
1, 21312, Note_on_c, 0, 74, 56
1, 21316, Note_off_c, 0, 70, 64
1, 21340, Note_off_c, 0, 67, 64
1, 21340, Note_off_c, 0, 63, 64
1, 21360, Control_c, 0, 64, 0
1, 21364, Note_on_c, 0, 68, 63
1, 21364, Note_on_c, 0, 63, 41
1, 21364, Note_on_c, 0, 56, 43
1, 21372, Note_on_c, 0, 72, 57
1, 21436, Control_c, 0, 64, 127
1, 21444, Note_off_c, 0, 74, 64
1, 21716, Note_off_c, 0, 63, 64
1, 21716, Note_off_c, 0, 68, 64
1, 21716, Note_on_c, 0, 70, 64
1, 21716, Note_on_c, 0, 58, 46
1, 21720, Note_on_c, 0, 65, 52
1, 21732, Note_on_c, 0, 62, 52
1, 21744, Note_off_c, 0, 72, 64
1, 21748, Control_c, 0, 64, 0
1, 21752, Note_off_c, 0, 56, 64
1, 21772, Control_c, 0, 64, 127
1, 22068, Note_off_c, 0, 58, 64
1, 22072, Note_off_c, 0, 65, 64
1, 22072, Note_on_c, 0, 68, 38
1, 22084, Note_off_c, 0, 62, 64
1, 22112, Note_off_c, 0, 70, 64
1, 22196, Note_on_c, 0, 67, 50
1, 22200, Note_on_c, 0, 63, 64
1, 22208, Note_on_c, 0, 58, 45
1, 22208, Note_on_c, 0, 51, 46
1, 22224, Note_off_c, 0, 68, 64
1, 22308, Control_c, 0, 64, 0
1, 22396, Tempo, 500000
1, 22396, Control_c, 0, 64, 127
1, 23048, Note_on_c, 0, 59, 36
1, 23056, Note_off_c, 0, 63, 64
1, 23060, Note_on_c, 0, 62, 60
1, 23064, Note_off_c, 0, 51, 64
1, 23064, Note_off_c, 0, 58, 64
1, 23076, Note_on_c, 0, 55, 49
1, 23132, Control_c, 0, 64, 0
1, 23184, Control_c, 0, 64, 127
1, 23296, Note_on_c, 0, 65, 54
1, 23328, Note_off_c, 0, 59, 64
1, 23340, Note_off_c, 0, 62, 64
1, 23376, Note_off_c, 0, 67, 64
1, 23456, Note_on_c, 0, 48, 42
1, 23464, Note_on_c, 0, 60, 54
1, 23468, Note_on_c, 0, 63, 64
1, 23496, Note_off_c, 0, 65, 64
1, 23516, Control_c, 0, 64, 0
1, 23556, Control_c, 0, 64, 127
1, 23776, Note_off_c, 0, 55, 64
1, 23796, Note_off_c, 0, 48, 64
1, 23796, Note_on_c, 0, 67, 46
1, 23840, Note_off_c, 0, 63, 64
1, 23856, Note_on_c, 0, 56, 41
1, 23856, Note_on_c, 0, 41, 58
1, 23864, Note_on_c, 0, 65, 60
1, 23908, Note_off_c, 0, 67, 64
1, 23924, Control_c, 0, 64, 0
1, 23972, Control_c, 0, 64, 127
1, 24192, Note_off_c, 0, 56, 64
1, 24192, Note_off_c, 0, 41, 64
1, 24392, Note_on_c, 0, 62, 53
1, 24404, Note_on_c, 0, 50, 31
1, 24412, Note_on_c, 0, 43, 30
1, 24428, Note_off_c, 0, 65, 64
1, 24472, Control_c, 0, 64, 0
1, 24512, Note_off_c, 0, 60, 64
1, 24552, Control_c, 0, 64, 127
1, 24680, Note_on_c, 0, 59, 38
1, 24692, Note_off_c, 0, 62, 64
1, 24976, Note_on_c, 0, 55, 35
1, 25004, Note_off_c, 0, 59, 64
1, 25064, Control_c, 0, 64, 0
1, 25136, Control_c, 0, 64, 127
1, 25224, Note_off_c, 0, 50, 64
1, 25232, Note_off_c, 0, 43, 64
1, 25532, Note_on_c, 0, 61, 46
1, 25532, Note_on_c, 0, 67, 61
1, 25540, Note_on_c, 0, 40, 31
1, 25544, Note_on_c, 0, 58, 46
1, 25596, Control_c, 0, 64, 0
1, 25616, Control_c, 0, 64, 127
1, 25680, Note_off_c, 0, 55, 64
1, 25808, Note_off_c, 0, 67, 64
1, 25860, Note_on_c, 0, 67, 61
1, 25920, Note_off_c, 0, 67, 64
1, 25984, Note_on_c, 0, 41, 64
1, 25992, Note_on_c, 0, 67, 58
1, 26016, Control_c, 0, 64, 0
1, 26020, Note_off_c, 0, 40, 64
1, 26036, Control_c, 0, 64, 127
1, 26152, Note_on_c, 0, 68, 63
1, 26192, Note_off_c, 0, 67, 64
1, 26324, Note_on_c, 0, 60, 41
1, 26328, Note_on_c, 0, 56, 49
1, 26356, Control_c, 0, 64, 0
1, 26376, Control_c, 0, 64, 127
1, 26412, Note_off_c, 0, 61, 64
1, 26424, Note_off_c, 0, 58, 64
1, 26476, Note_off_c, 0, 41, 64
1, 26564, Note_off_c, 0, 56, 64
1, 26680, Note_on_c, 0, 48, 23
1, 26684, Note_on_c, 0, 56, 34
1, 26808, Note_on_c, 0, 67, 71
1, 26856, Note_off_c, 0, 68, 64
1, 26916, Note_off_c, 0, 48, 64
1, 26920, Note_off_c, 0, 56, 64
1, 26992, Note_on_c, 0, 32, 65
1, 27000, Note_on_c, 0, 64, 63
1, 27008, Note_off_c, 0, 67, 64
1, 27032, Control_c, 0, 64, 0
1, 27072, Control_c, 0, 64, 127
1, 27232, Note_on_c, 0, 65, 63
1, 27272, Note_off_c, 0, 64, 64
1, 27340, Note_on_c, 0, 56, 52
1, 27348, Note_on_c, 0, 74, 75
1, 27356, Note_on_c, 0, 48, 36
1, 27396, Note_off_c, 0, 65, 64
1, 27576, Note_off_c, 0, 56, 64
1, 27592, Note_off_c, 0, 48, 64
1, 27652, Note_on_c, 0, 56, 43
1, 27660, Note_off_c, 0, 32, 64
1, 27660, Note_on_c, 0, 53, 45
1, 27792, Note_on_c, 0, 72, 57
1, 27824, Note_off_c, 0, 74, 64
1, 27888, Note_off_c, 0, 56, 64
1, 27896, Note_off_c, 0, 53, 64
1, 27956, Note_on_c, 0, 34, 69
1, 27968, Note_on_c, 0, 65, 61
1, 27984, Note_off_c, 0, 72, 64
1, 28008, Control_c, 0, 64, 0
1, 28052, Control_c, 0, 64, 127
1, 28120, Note_on_c, 0, 67, 64
1, 28208, Note_off_c, 0, 60, 64
1, 28220, Note_off_c, 0, 65, 64
1, 28272, Note_on_c, 0, 60, 47
1, 28276, Note_on_c, 0, 46, 58
1, 28280, Note_on_c, 0, 56, 58
1, 28512, Note_off_c, 0, 46, 64
1, 28516, Note_off_c, 0, 56, 64
1, 28600, Note_on_c, 0, 46, 50
1, 28608, Note_on_c, 0, 56, 53
1, 28608, Note_on_c, 0, 62, 69
1, 28620, Note_off_c, 0, 34, 64
1, 28644, Note_off_c, 0, 60, 64
1, 28788, Note_on_c, 0, 65, 63
1, 28800, Note_off_c, 0, 67, 64
1, 28808, Note_off_c, 0, 62, 64
1, 28836, Note_off_c, 0, 46, 64
1, 28840, Note_off_c, 0, 56, 64
1, 28928, Note_on_c, 0, 39, 68
1, 28940, Note_on_c, 0, 63, 75
1, 28952, Note_off_c, 0, 65, 64
1, 29232, Note_on_c, 0, 70, 60
1, 29256, Note_off_c, 0, 63, 64
1, 29320, Note_on_c, 0, 75, 73
1, 29320, Note_on_c, 0, 58, 38
1, 29336, Note_on_c, 0, 63, 46
1, 29336, Note_on_c, 0, 67, 53
1, 29352, Note_off_c, 0, 70, 64
1, 29356, Control_c, 0, 64, 0
1, 29428, Control_c, 0, 64, 127
1, 29552, Note_off_c, 0, 58, 64
1, 29568, Note_off_c, 0, 63, 64
1, 29572, Note_off_c, 0, 67, 64
1, 29672, Note_on_c, 0, 67, 41
1, 29672, Note_on_c, 0, 57, 46
1, 29692, Note_on_c, 0, 60, 39
1, 29704, Control_c, 0, 64, 0
1, 29740, Control_c, 0, 64, 127
1, 29768, Note_off_c, 0, 39, 64
1, 29904, Note_off_c, 0, 67, 64
1, 29908, Note_off_c, 0, 57, 64
1, 29928, Note_off_c, 0, 60, 64
1, 29996, Note_on_c, 0, 74, 69
1, 30008, Note_on_c, 0, 57, 49
1, 30012, Note_off_c, 0, 75, 64
1, 30016, Note_on_c, 0, 66, 50
1, 30016, Note_on_c, 0, 60, 53
1, 30240, Note_off_c, 0, 57, 64
1, 30248, Note_off_c, 0, 66, 64
1, 30252, Note_off_c, 0, 60, 64
1, 30332, Note_on_c, 0, 73, 64
1, 30340, Note_on_c, 0, 66, 49
1, 30340, Note_on_c, 0, 57, 50
1, 30348, Note_on_c, 0, 60, 49
1, 30352, Control_c, 0, 64, 0
1, 30368, Note_off_c, 0, 74, 64
1, 30408, Control_c, 0, 64, 127
1, 30552, Note_on_c, 0, 74, 58
1, 30576, Note_off_c, 0, 66, 64
1, 30576, Note_off_c, 0, 57, 64
1, 30584, Note_off_c, 0, 73, 64
1, 30584, Note_off_c, 0, 60, 64
1, 30624, Note_on_c, 0, 75, 64
1, 30636, Note_on_c, 0, 66, 49
1, 30652, Note_on_c, 0, 60, 46
1, 30652, Note_on_c, 0, 56, 49
1, 30660, Control_c, 0, 64, 0
1, 30672, Note_off_c, 0, 74, 64
1, 30700, Control_c, 0, 64, 127
1, 30872, Note_on_c, 0, 74, 61
1, 30928, Note_off_c, 0, 75, 64
1, 30952, Note_on_c, 0, 67, 57
1, 30964, Control_c, 0, 64, 0
1, 30976, Note_on_c, 0, 59, 42
1, 30976, Note_on_c, 0, 55, 31
1, 30988, Note_off_c, 0, 74, 64
1, 31024, Control_c, 0, 64, 127
1, 31032, Note_off_c, 0, 66, 64
1, 31048, Note_off_c, 0, 56, 64
1, 31048, Note_off_c, 0, 60, 64
1, 31208, Note_off_c, 0, 59, 64
1, 31208, Note_off_c, 0, 55, 64
1, 31312, Note_on_c, 0, 73, 60
1, 31316, Note_on_c, 0, 66, 50
1, 31316, Note_on_c, 0, 57, 36
1, 31320, Note_on_c, 0, 55, 38
1, 31328, Note_off_c, 0, 67, 64
1, 31332, Control_c, 0, 64, 0
1, 31384, Control_c, 0, 64, 127
1, 31536, Note_on_c, 0, 74, 60
1, 31552, Note_off_c, 0, 66, 64
1, 31552, Note_off_c, 0, 57, 64
1, 31556, Note_off_c, 0, 55, 64
1, 31592, Note_off_c, 0, 73, 64
1, 31608, Note_on_c, 0, 75, 63
1, 31612, Note_on_c, 0, 66, 45
1, 31624, Note_on_c, 0, 57, 53
1, 31628, Note_on_c, 0, 55, 43
1, 31656, Note_off_c, 0, 74, 64
1, 31836, Note_on_c, 0, 74, 54
1, 31848, Note_off_c, 0, 66, 64
1, 31860, Note_off_c, 0, 57, 64
1, 31864, Note_off_c, 0, 55, 64
1, 31884, Note_off_c, 0, 75, 64
1, 31928, Note_on_c, 0, 59, 46
1, 31932, Note_on_c, 0, 55, 50
1, 31936, Note_on_c, 0, 79, 65
1, 31944, Note_on_c, 0, 65, 49
1, 31960, Note_off_c, 0, 74, 64
1, 31968, Control_c, 0, 64, 0
1, 32044, Control_c, 0, 64, 127
1, 32164, Note_off_c, 0, 59, 64
1, 32168, Note_off_c, 0, 55, 64
1, 32176, Note_off_c, 0, 65, 64
1, 32264, Note_on_c, 0, 73, 54
1, 32280, Note_on_c, 0, 57, 49
1, 32284, Note_on_c, 0, 66, 46
1, 32292, Note_on_c, 0, 55, 46
1, 32304, Control_c, 0, 64, 0
1, 32312, Note_off_c, 0, 79, 64
1, 32332, Control_c, 0, 64, 127
1, 32504, Note_on_c, 0, 74, 57
1, 32516, Note_off_c, 0, 57, 64
1, 32520, Note_off_c, 0, 66, 64
1, 32524, Note_off_c, 0, 73, 64
1, 32528, Note_off_c, 0, 55, 64
1, 32592, Note_on_c, 0, 75, 58
1, 32592, Note_on_c, 0, 66, 47
1, 32596, Note_on_c, 0, 57, 46
1, 32608, Note_on_c, 0, 55, 38
1, 32628, Note_off_c, 0, 74, 64
1, 32824, Note_off_c, 0, 66, 64
1, 32832, Note_off_c, 0, 57, 64
1, 32844, Note_off_c, 0, 55, 64
1, 32856, Note_on_c, 0, 74, 46
1, 32920, Note_off_c, 0, 75, 64
1, 32936, Note_on_c, 0, 67, 52
1, 32944, Note_on_c, 0, 59, 46
1, 32952, Note_on_c, 0, 55, 31
1, 32960, Note_off_c, 0, 74, 64
1, 32976, Control_c, 0, 64, 0
1, 33044, Control_c, 0, 64, 127
1, 33176, Note_off_c, 0, 59, 64
1, 33184, Note_off_c, 0, 55, 64
1, 33312, Note_on_c, 0, 73, 54
1, 33324, Note_on_c, 0, 66, 38
1, 33324, Note_on_c, 0, 57, 41
1, 33336, Note_off_c, 0, 67, 64
1, 33336, Note_on_c, 0, 55, 30
1, 33356, Control_c, 0, 64, 0
1, 33428, Control_c, 0, 64, 127
1, 33560, Note_off_c, 0, 66, 64
1, 33560, Note_off_c, 0, 57, 64
1, 33572, Note_off_c, 0, 55, 64
1, 33640, Note_on_c, 0, 74, 46
1, 33672, Note_off_c, 0, 73, 64
1, 33712, Note_on_c, 0, 55, 34
1, 33712, Note_on_c, 0, 66, 39
1, 33720, Note_on_c, 0, 75, 57
1, 33724, Note_on_c, 0, 57, 34
1, 33768, Note_off_c, 0, 74, 64
1, 33944, Note_off_c, 0, 55, 64
1, 33948, Note_off_c, 0, 66, 64
1, 33960, Note_off_c, 0, 57, 64
1, 34088, Note_on_c, 0, 74, 46
1, 34140, Note_off_c, 0, 75, 64
1, 34240, Note_on_c, 0, 65, 38
1, 34240, Note_on_c, 0, 59, 36
1, 34256, Note_on_c, 0, 79, 52
1, 34260, Note_on_c, 0, 55, 36
1, 34292, Note_off_c, 0, 74, 64
1, 34352, Control_c, 0, 64, 0
1, 34448, Control_c, 0, 64, 127
1, 34728, Note_on_c, 0, 73, 43
1, 34764, Note_off_c, 0, 79, 64
1, 34976, Note_on_c, 0, 74, 50
1, 35004, Note_off_c, 0, 73, 64
1, 35064, Note_on_c, 0, 75, 46
1, 35084, Note_off_c, 0, 74, 64
1, 35304, Note_on_c, 0, 74, 53
1, 35356, Note_off_c, 0, 75, 64
1, 35396, Note_on_c, 0, 67, 57
1, 35428, Note_off_c, 0, 74, 64
1, 35492, Control_c, 0, 64, 0
1, 35548, Control_c, 0, 64, 127
1, 35744, Note_on_c, 0, 73, 50
1, 35984, Note_on_c, 0, 74, 46
1, 36012, Note_off_c, 0, 73, 64
1, 36092, Note_on_c, 0, 75, 58
1, 36116, Note_off_c, 0, 74, 64
1, 36388, Note_on_c, 0, 74, 41
1, 36428, Note_off_c, 0, 75, 64
1, 36616, Note_on_c, 0, 79, 46
1, 36636, Note_off_c, 0, 74, 64
1, 37112, Note_on_c, 0, 73, 43
1, 37156, Control_c, 0, 64, 0
1, 37176, Note_off_c, 0, 79, 64
1, 37228, Control_c, 0, 64, 127
1, 37448, Note_on_c, 0, 74, 46
1, 37496, Note_off_c, 0, 73, 64
1, 37608, Note_on_c, 0, 75, 46
1, 37660, Note_off_c, 0, 74, 64
1, 38036, Note_on_c, 0, 74, 46
1, 38088, Note_off_c, 0, 75, 64
1, 38292, Note_on_c, 0, 80, 46
1, 38320, Note_off_c, 0, 74, 64
1, 38404, Control_c, 0, 64, 0
1, 38456, Control_c, 0, 64, 127
1, 39448, Note_on_c, 0, 79, 31
1, 39472, Note_off_c, 0, 80, 64
1, 39712, Note_off_c, 0, 55, 64
1, 39712, Note_off_c, 0, 59, 64
1, 39712, Note_off_c, 0, 65, 64
1, 39716, Note_off_c, 0, 67, 64
1, 40036, Note_on_c, 0, 67, 27
1, 40052, Note_off_c, 0, 79, 64
1, 40236, Note_on_c, 0, 70, 36
1, 40252, Note_off_c, 0, 67, 64
1, 40288, Note_on_c, 0, 68, 50
1, 40316, Note_off_c, 0, 70, 64
1, 40388, Note_on_c, 0, 67, 46
1, 40396, Note_off_c, 0, 68, 64
1, 40400, Note_on_c, 0, 62, 28
1, 40400, Note_on_c, 0, 55, 24
1, 40412, Control_c, 0, 64, 0
1, 40452, Control_c, 0, 64, 127
1, 40580, Note_on_c, 0, 71, 45
1, 40636, Note_off_c, 0, 62, 64
1, 40636, Note_off_c, 0, 55, 64
1, 40720, Note_on_c, 0, 65, 46
1, 40720, Note_on_c, 0, 55, 30
1, 40720, Note_on_c, 0, 72, 46
1, 40728, Note_on_c, 0, 62, 30
1, 40732, Note_off_c, 0, 67, 64
1, 40752, Note_off_c, 0, 71, 64
1, 40856, Note_on_c, 0, 74, 49
1, 40880, Note_off_c, 0, 72, 64
1, 40956, Note_off_c, 0, 55, 64
1, 40964, Note_off_c, 0, 62, 64
1, 41000, Note_on_c, 0, 77, 52
1, 41020, Note_off_c, 0, 74, 64
1, 41044, Note_on_c, 0, 75, 53
1, 41048, Note_off_c, 0, 65, 64
1, 41048, Control_c, 0, 64, 0
1, 41084, Note_off_c, 0, 77, 64
1, 41156, Note_on_c, 0, 74, 53
1, 41172, Note_off_c, 0, 75, 64
1, 41296, Note_on_c, 0, 48, 28
1, 41308, Note_on_c, 0, 72, 50
1, 41308, Note_on_c, 0, 63, 36
1, 41308, Note_on_c, 0, 55, 30
1, 41336, Note_off_c, 0, 74, 64
1, 41336, Control_c, 0, 64, 0
1, 41348, Note_off_c, 0, 48, 64
1, 41360, Note_off_c, 0, 63, 64
1, 41360, Note_off_c, 0, 55, 64
1, 41384, Control_c, 0, 64, 127
1, 41596, Note_on_c, 0, 63, 36
1, 41608, Note_on_c, 0, 55, 26
1, 41608, Note_on_c, 0, 48, 30
1, 41648, Note_off_c, 0, 63, 64
1, 41660, Note_off_c, 0, 55, 64
1, 41660, Note_off_c, 0, 48, 64
1, 41884, Note_on_c, 0, 74, 52
1, 41928, Note_off_c, 0, 72, 64
1, 42020, Note_on_c, 0, 75, 46
1, 42024, Note_off_c, 0, 74, 64
1, 42152, Note_on_c, 0, 79, 38
1, 42164, Note_on_c, 0, 48, 30
1, 42168, Note_on_c, 0, 59, 28
1, 42172, Note_on_c, 0, 55, 30
1, 42184, Note_on_c, 0, 65, 30
1, 42188, Note_on_c, 0, 77, 43
1, 42216, Note_off_c, 0, 48, 64
1, 42224, Note_off_c, 0, 79, 64
1, 42224, Note_off_c, 0, 59, 64
1, 42224, Note_off_c, 0, 55, 64
1, 42236, Note_off_c, 0, 65, 64
1, 42248, Note_off_c, 0, 75, 64
1, 42464, Note_on_c, 0, 75, 50
1, 42464, Note_on_c, 0, 48, 21
1, 42480, Note_off_c, 0, 77, 64
1, 42480, Note_on_c, 0, 55, 27
1, 42484, Note_on_c, 0, 62, 19
1, 42488, Note_on_c, 0, 65, 15
1, 42520, Note_off_c, 0, 48, 64
1, 42532, Note_off_c, 0, 55, 64
1, 42536, Note_off_c, 0, 62, 64
1, 42544, Note_off_c, 0, 65, 64
1, 42612, Note_on_c, 0, 74, 53
1, 42624, Note_off_c, 0, 75, 64
1, 42688, Note_off_c, 0, 74, 64
1, 42732, Note_on_c, 0, 74, 58
1, 42864, Note_on_c, 0, 75, 58
1, 42888, Note_off_c, 0, 74, 64
1, 42996, Note_on_c, 0, 63, 32
1, 43000, Note_on_c, 0, 72, 53
1, 43008, Note_off_c, 0, 75, 64
1, 43016, Note_on_c, 0, 60, 35
1, 43016, Note_on_c, 0, 55, 30
1, 43016, Control_c, 0, 64, 0
1, 43028, Note_on_c, 0, 48, 26
1, 43048, Note_off_c, 0, 63, 64
1, 43048, Control_c, 0, 64, 127
1, 43068, Note_off_c, 0, 60, 64
1, 43068, Note_off_c, 0, 55, 64
1, 43080, Note_off_c, 0, 48, 64
1, 43300, Control_c, 0, 64, 0
1, 43312, Note_on_c, 0, 63, 31
1, 43324, Note_on_c, 0, 55, 31
1, 43328, Note_on_c, 0, 48, 31
1, 43328, Note_on_c, 0, 60, 35
1, 43364, Note_off_c, 0, 63, 64
1, 43372, Control_c, 0, 64, 127
1, 43376, Note_off_c, 0, 55, 64
1, 43380, Note_off_c, 0, 48, 64
1, 43384, Note_off_c, 0, 60, 64
1, 43600, Note_on_c, 0, 62, 60
1, 43612, Note_off_c, 0, 72, 64
1, 43764, Note_on_c, 0, 65, 42
1, 43796, Note_off_c, 0, 62, 64
1, 43820, Note_on_c, 0, 63, 67
1, 43856, Note_off_c, 0, 65, 64
1, 43884, Control_c, 0, 64, 0
1, 43900, Note_on_c, 0, 62, 68
1, 43908, Note_on_c, 0, 57, 67
1, 43916, Note_off_c, 0, 63, 64
1, 43916, Note_on_c, 0, 50, 60
1, 43952, Control_c, 0, 64, 127
1, 44040, Note_on_c, 0, 66, 61
1, 44144, Note_off_c, 0, 57, 64
1, 44152, Note_off_c, 0, 50, 64
1, 44160, Control_c, 0, 64, 0
1, 44184, Note_on_c, 0, 67, 69
1, 44188, Note_on_c, 0, 60, 68
1, 44192, Note_on_c, 0, 57, 64
1, 44200, Note_off_c, 0, 66, 64
1, 44200, Note_on_c, 0, 50, 64
1, 44224, Note_off_c, 0, 62, 64
1, 44224, Control_c, 0, 64, 127
1, 44332, Note_on_c, 0, 69, 60
1, 44344, Note_off_c, 0, 67, 64
1, 44428, Note_off_c, 0, 57, 64
1, 44432, Note_off_c, 0, 50, 64
1, 44436, Note_on_c, 0, 72, 61
1, 44448, Note_off_c, 0, 69, 64
1, 44496, Note_on_c, 0, 70, 80
1, 44500, Note_off_c, 0, 60, 64
1, 44512, Note_off_c, 0, 72, 64
1, 44624, Note_on_c, 0, 69, 52
1, 44640, Note_off_c, 0, 70, 64
1, 44756, Note_on_c, 0, 67, 64
1, 44764, Control_c, 0, 64, 0
1, 44776, Note_on_c, 0, 55, 35
1, 44776, Note_on_c, 0, 58, 46
1, 44776, Note_on_c, 0, 43, 50
1, 44792, Note_off_c, 0, 69, 64
1, 44844, Control_c, 0, 64, 127
1, 45064, Note_on_c, 0, 46, 60
1, 45068, Note_on_c, 0, 62, 41
1, 45072, Note_off_c, 0, 58, 64
1, 45072, Note_off_c, 0, 43, 64
1, 45116, Control_c, 0, 64, 0
1, 45168, Control_c, 0, 64, 127
1, 45404, Note_on_c, 0, 69, 67
1, 45408, Note_on_c, 0, 63, 54
1, 45408, Note_on_c, 0, 48, 57
1, 45420, Note_off_c, 0, 46, 64
1, 45424, Note_off_c, 0, 62, 64
1, 45444, Note_off_c, 0, 67, 64
1, 45472, Control_c, 0, 64, 0
1, 45524, Control_c, 0, 64, 127
1, 45584, Note_on_c, 0, 70, 50
1, 45616, Note_off_c, 0, 69, 64
1, 45648, Note_off_c, 0, 63, 64
1, 45692, Note_on_c, 0, 74, 63
1, 45696, Note_off_c, 0, 70, 64
1, 45704, Control_c, 0, 64, 127
1, 45756, Note_on_c, 0, 72, 61
1, 45756, Note_on_c, 0, 67, 57
1, 45756, Note_on_c, 0, 63, 57
1, 45756, Note_on_c, 0, 45, 56
1, 45760, Control_c, 0, 64, 0
1, 45792, Note_off_c, 0, 48, 64
1, 45804, Note_off_c, 0, 74, 64
1, 45808, Control_c, 0, 64, 127
1, 46056, Note_on_c, 0, 70, 60
1, 46064, Note_on_c, 0, 60, 47
1, 46064, Note_on_c, 0, 50, 60
1, 46064, Note_on_c, 0, 66, 50
1, 46088, Note_off_c, 0, 72, 64
1, 46096, Note_off_c, 0, 63, 64
1, 46096, Note_off_c, 0, 67, 64
1, 46100, Control_c, 0, 64, 0
1, 46124, Note_off_c, 0, 45, 64
1, 46156, Control_c, 0, 64, 127
1, 46208, Note_on_c, 0, 69, 71
1, 46232, Note_off_c, 0, 70, 64
1, 46388, Note_on_c, 0, 67, 73
1, 46396, Note_off_c, 0, 55, 64
1, 46408, Note_off_c, 0, 50, 64
1, 46408, Note_off_c, 0, 60, 64
1, 46408, Note_off_c, 0, 69, 64
1, 46412, Note_off_c, 0, 66, 64
1, 46416, Control_c, 0, 64, 0
1, 46492, Control_c, 0, 64, 127
1, 46800, Note_on_c, 0, 62, 54
1, 46800, Note_on_c, 0, 59, 52
1, 46800, Note_on_c, 0, 43, 49
1, 46840, Control_c, 0, 64, 0
1, 46896, Control_c, 0, 64, 127
1, 47184, Note_on_c, 0, 55, 45
1, 47188, Note_on_c, 0, 63, 39
1, 47188, Note_on_c, 0, 60, 53
1, 47200, Note_off_c, 0, 62, 64
1, 47200, Note_off_c, 0, 59, 64
1, 47316, Note_on_c, 0, 61, 32
1, 47320, Note_on_c, 0, 64, 42
1, 47352, Note_off_c, 0, 60, 64
1, 47356, Note_off_c, 0, 55, 64
1, 47388, Note_off_c, 0, 63, 64
1, 47484, Control_c, 0, 64, 0
1, 47496, Note_on_c, 0, 65, 46
1, 47496, Note_on_c, 0, 62, 45
1, 47512, Note_on_c, 0, 55, 41
1, 47524, Note_off_c, 0, 61, 64
1, 47528, Note_off_c, 0, 64, 64
1, 47536, Control_c, 0, 64, 127
1, 47552, Note_off_c, 0, 43, 64
1, 47672, Note_off_c, 0, 62, 64
1, 47672, Note_off_c, 0, 65, 64
1, 47688, Note_off_c, 0, 55, 64
1, 47712, Note_on_c, 0, 68, 39
1, 47740, Note_on_c, 0, 70, 47
1, 47764, Note_off_c, 0, 67, 64
1, 47764, Note_off_c, 0, 68, 64
1, 47800, Note_on_c, 0, 68, 41
1, 47824, Note_off_c, 0, 70, 64
1, 47884, Note_on_c, 0, 67, 47
1, 47900, Note_off_c, 0, 68, 64
1, 47900, Note_on_c, 0, 65, 34
1, 47908, Note_on_c, 0, 62, 34
1, 47912, Control_c, 0, 64, 0
1, 47920, Note_on_c, 0, 55, 32
1, 47948, Control_c, 0, 64, 127
1, 48072, Note_off_c, 0, 65, 64
1, 48084, Note_off_c, 0, 62, 64
1, 48092, Note_off_c, 0, 55, 64
1, 48092, Note_on_c, 0, 71, 31
1, 48116, Note_off_c, 0, 67, 64
1, 48232, Note_on_c, 0, 65, 34
1, 48240, Note_on_c, 0, 72, 39
1, 48240, Note_on_c, 0, 62, 31
1, 48240, Note_on_c, 0, 55, 27
1, 48260, Note_off_c, 0, 71, 64
1, 48264, Control_c, 0, 64, 0
1, 48300, Control_c, 0, 64, 127
1, 48372, Note_on_c, 0, 74, 41
1, 48384, Note_off_c, 0, 62, 64
1, 48400, Note_off_c, 0, 72, 64
1, 48440, Note_off_c, 0, 65, 64
1, 48448, Note_off_c, 0, 55, 64
1, 48504, Note_on_c, 0, 77, 38
1, 48528, Note_off_c, 0, 74, 64
1, 48552, Note_on_c, 0, 75, 47
1, 48588, Note_off_c, 0, 77, 64
1, 48672, Note_on_c, 0, 74, 42
1, 48696, Note_off_c, 0, 75, 64
1, 48808, Note_on_c, 0, 72, 45
1, 48808, Note_on_c, 0, 48, 27
1, 48816, Note_on_c, 0, 55, 27
1, 48824, Note_on_c, 0, 63, 34
1, 48844, Control_c, 0, 64, 0
1, 48860, Note_off_c, 0, 48, 64
1, 48868, Control_c, 0, 64, 127
1, 48872, Note_off_c, 0, 55, 64
1, 48880, Note_off_c, 0, 63, 64
1, 48888, Note_off_c, 0, 74, 64
1, 49144, Control_c, 0, 64, 0
1, 49152, Note_on_c, 0, 55, 34
1, 49152, Note_on_c, 0, 48, 34
1, 49160, Note_on_c, 0, 63, 36
1, 49204, Control_c, 0, 64, 127
1, 49208, Note_off_c, 0, 55, 64
1, 49208, Note_off_c, 0, 48, 64
1, 49212, Note_off_c, 0, 63, 64
1, 49412, Note_on_c, 0, 74, 41
1, 49448, Note_off_c, 0, 72, 64
1, 49516, Note_on_c, 0, 75, 45
1, 49548, Note_off_c, 0, 74, 64
1, 49628, Note_on_c, 0, 79, 41
1, 49636, Note_off_c, 0, 75, 64
1, 49648, Control_c, 0, 64, 0
1, 49672, Note_on_c, 0, 65, 32
1, 49680, Note_on_c, 0, 59, 26
1, 49688, Note_on_c, 0, 55, 27
1, 49688, Note_on_c, 0, 77, 41
1, 49692, Note_on_c, 0, 48, 24
1, 49724, Note_off_c, 0, 65, 64
1, 49732, Note_off_c, 0, 59, 64
1, 49736, Note_off_c, 0, 79, 64
1, 49740, Note_off_c, 0, 55, 64
1, 49740, Control_c, 0, 64, 127
1, 49744, Note_off_c, 0, 48, 64
1, 49960, Control_c, 0, 64, 0
1, 49968, Note_on_c, 0, 75, 39
1, 49972, Note_on_c, 0, 65, 23
1, 49972, Note_on_c, 0, 62, 26
1, 49984, Note_on_c, 0, 48, 26
1, 49992, Note_off_c, 0, 77, 64
1, 49996, Note_on_c, 0, 55, 23
1, 50020, Control_c, 0, 64, 127
1, 50024, Note_off_c, 0, 65, 64
1, 50024, Note_off_c, 0, 62, 64
1, 50040, Note_off_c, 0, 48, 64
1, 50048, Note_off_c, 0, 55, 64
1, 50112, Note_on_c, 0, 74, 36
1, 50116, Note_off_c, 0, 75, 64
1, 50192, Note_off_c, 0, 74, 64
1, 50232, Note_on_c, 0, 74, 42
1, 50352, Note_on_c, 0, 75, 45
1, 50368, Note_off_c, 0, 74, 64
1, 50452, Control_c, 0, 64, 0
1, 50484, Note_off_c, 0, 75, 64
1, 50488, Note_on_c, 0, 72, 42
1, 50488, Note_on_c, 0, 63, 34
1, 50500, Note_on_c, 0, 60, 34
1, 50500, Note_on_c, 0, 55, 27
1, 50500, Note_on_c, 0, 48, 32
1, 50540, Note_off_c, 0, 63, 64
1, 50552, Note_off_c, 0, 60, 64
1, 50552, Note_off_c, 0, 55, 64
1, 50552, Note_off_c, 0, 48, 64
1, 50812, Control_c, 0, 64, 127
1, 50824, Note_on_c, 0, 63, 32
1, 50832, Note_on_c, 0, 55, 31
1, 50840, Note_on_c, 0, 48, 31
1, 50844, Note_on_c, 0, 60, 32
1, 50876, Note_off_c, 0, 63, 64
1, 50884, Note_off_c, 0, 55, 64
1, 50892, Note_off_c, 0, 48, 64
1, 50896, Note_off_c, 0, 60, 64
1, 51116, Note_on_c, 0, 74, 45
1, 51144, Note_off_c, 0, 72, 64
1, 51232, Note_on_c, 0, 75, 38
1, 51248, Note_off_c, 0, 74, 64
1, 51344, Note_off_c, 0, 75, 64
1, 51344, Note_on_c, 0, 79, 36
1, 51364, Control_c, 0, 64, 0
1, 51376, Note_on_c, 0, 65, 34
1, 51376, Note_on_c, 0, 55, 31
1, 51384, Note_on_c, 0, 59, 31
1, 51392, Note_on_c, 0, 48, 31
1, 51392, Note_on_c, 0, 77, 31
1, 51428, Note_off_c, 0, 65, 64
1, 51428, Note_off_c, 0, 55, 64
1, 51436, Note_off_c, 0, 59, 64
1, 51444, Note_off_c, 0, 79, 64
1, 51444, Note_off_c, 0, 48, 64
1, 51460, Control_c, 0, 64, 127
1, 51652, Note_on_c, 0, 75, 45
1, 51664, Note_on_c, 0, 55, 35
1, 51664, Note_on_c, 0, 48, 34
1, 51672, Note_on_c, 0, 65, 19
1, 51676, Note_on_c, 0, 59, 38
1, 51680, Note_off_c, 0, 77, 64
1, 51720, Note_off_c, 0, 55, 64
1, 51720, Note_off_c, 0, 48, 64
1, 51728, Note_off_c, 0, 65, 64
1, 51728, Note_off_c, 0, 59, 64
1, 51800, Note_on_c, 0, 74, 38
1, 51820, Note_off_c, 0, 75, 64
1, 51904, Control_c, 0, 64, 0
1, 51928, Note_on_c, 0, 80, 52
1, 51940, Note_off_c, 0, 74, 64
1, 52056, Note_on_c, 0, 74, 45
1, 52072, Control_c, 0, 64, 127
1, 52096, Note_off_c, 0, 80, 64
1, 52196, Control_c, 0, 64, 0
1, 52208, Note_on_c, 0, 79, 45
1, 52220, Note_on_c, 0, 65, 17
1, 52224, Note_on_c, 0, 48, 26
1, 52228, Note_on_c, 0, 55, 21
1, 52236, Note_off_c, 0, 74, 64
1, 52236, Note_on_c, 0, 59, 24
1, 52244, Note_on_c, 0, 77, 28
1, 52256, Control_c, 0, 64, 127
1, 52272, Note_off_c, 0, 65, 64
1, 52276, Note_off_c, 0, 48, 64
1, 52280, Note_off_c, 0, 55, 64
1, 52288, Note_off_c, 0, 59, 64
1, 52312, Note_off_c, 0, 79, 64
1, 52616, Note_on_c, 0, 75, 42
1, 52616, Control_c, 0, 64, 127
1, 52640, Note_on_c, 0, 59, 10
1, 52640, Note_on_c, 0, 48, 23
1, 52648, Note_on_c, 0, 55, 15
1, 52656, Note_on_c, 0, 65, 17
1, 52664, Note_off_c, 0, 77, 64
1, 52696, Note_off_c, 0, 59, 64
1, 52696, Note_off_c, 0, 48, 64
1, 52704, Note_off_c, 0, 55, 64
1, 52708, Note_off_c, 0, 65, 64
1, 52776, Note_on_c, 0, 74, 41
1, 52808, Note_off_c, 0, 75, 64
1, 53016, Note_on_c, 0, 36, 54
1, 53028, Note_on_c, 0, 80, 46
1, 53036, Control_c, 0, 64, 0
1, 53048, Note_off_c, 0, 74, 64
1, 53076, Control_c, 0, 64, 127
1, 53280, Note_on_c, 0, 74, 41
1, 53340, Note_off_c, 0, 80, 64
1, 53488, Note_on_c, 0, 79, 38
1, 53500, Note_on_c, 0, 59, 36
1, 53504, Note_on_c, 0, 56, 35
1, 53512, Note_off_c, 0, 74, 64
1, 53516, Note_on_c, 0, 65, 38
1, 53540, Note_on_c, 0, 77, 28
1, 53624, Note_off_c, 0, 79, 64
1, 53736, Note_off_c, 0, 59, 64
1, 53740, Note_off_c, 0, 56, 64
1, 53752, Note_off_c, 0, 65, 64
1, 53972, Note_on_c, 0, 75, 38
1, 53980, Note_on_c, 0, 65, 24
1, 53980, Note_on_c, 0, 59, 34
1, 53980, Note_on_c, 0, 56, 23
1, 54016, Control_c, 0, 64, 0
1, 54024, Note_off_c, 0, 77, 64
1, 54068, Control_c, 0, 64, 127
1, 54200, Note_on_c, 0, 74, 38
1, 54228, Note_off_c, 0, 75, 64
1, 54280, Note_off_c, 0, 36, 64
1, 54296, Note_off_c, 0, 74, 64
1, 54392, Note_on_c, 0, 74, 38
1, 54576, Note_off_c, 0, 59, 64
1, 54576, Note_off_c, 0, 56, 64
1, 54576, Note_on_c, 0, 75, 42
1, 54616, Note_off_c, 0, 65, 64
1, 54616, Note_off_c, 0, 74, 64
1, 54840, Note_on_c, 0, 72, 38
1, 54856, Note_on_c, 0, 56, 28
1, 54860, Note_on_c, 0, 65, 23
1, 54860, Note_on_c, 0, 60, 28
1, 54876, Note_off_c, 0, 75, 64
1, 55356, Note_off_c, 0, 56, 64
1, 55360, Note_off_c, 0, 60, 64
1, 55360, Note_off_c, 0, 65, 64
1, 55468, Note_on_c, 0, 60, 20
1, 55472, Note_on_c, 0, 65, 20
1, 55472, Note_on_c, 0, 56, 21
1, 55520, Control_c, 0, 64, 0
1, 55540, Control_c, 0, 64, 127
1, 56104, Note_off_c, 0, 60, 64
1, 56104, Note_off_c, 0, 65, 64
1, 56108, Note_off_c, 0, 56, 64
1, 56172, Note_on_c, 0, 62, 23
1, 56176, Note_on_c, 0, 50, 27
1, 56236, Control_c, 0, 64, 0
1, 56320, Control_c, 0, 64, 127
1, 56536, Note_on_c, 0, 51, 23
1, 56548, Note_on_c, 0, 63, 27
1, 56572, Note_off_c, 0, 50, 64
1, 56584, Note_off_c, 0, 62, 64
1, 56968, Note_on_c, 0, 48, 17
1, 56972, Note_on_c, 0, 60, 16
1, 57000, Note_off_c, 0, 63, 64
1, 57040, Note_off_c, 0, 51, 64
1, 57048, Control_c, 0, 64, 0
1, 57444, Control_c, 0, 64, 127
1, 60112, Note_off_c, 0, 48, 64
1, 60176, Note_off_c, 0, 60, 64
1, 60196, Note_off_c, 0, 72, 64
1, 60332, Control_c, 0, 64, 0
1, 60332, End_track
2, 0, Start_track
2, 1, Copyright_t, "__________________________________________________________\012\012KUNSTDERFUGE.COM GREAT CLASSICAL MIDI COLLECTION\012__________________________________________________________\012\012KUNST-DER-FUGE CONTRIBUTOR's PROPERTY\012Copyright by Contributor & Kunst der Fuge, © 2006\012\012Contributors' list: http://kunstderfuge.com/thanks.htm\012Terms and conditions: http://kunstderfuge.com/notes.htm\012__________________________________________________________\012\012NO WEBSITE MAY PUBLISH THIS FILE WITHOUT PERMISSION\012NO COMMERCIAL USE ALLOWED, NOR BY SALES NOR by eBay!\012PLEASE REPORT ANY ABUSE TO INFO@ONCLASSICAL.COM\012__________________________________________________________\012\012Thousands of free classical MIDI files at kunstderfuge.com"
2, 1, End_track
0, 0, End_of_file
