0, 0, Header, 0, 2, 480
1, 0, Start_track
1, 0, SMPTE_offset, 96, 0, 0, 0, 0
1, 0, Time_signature, 4, 2, 24, 8
1, 0, Key_signature, 0, "major"
1, 0, Tempo, 500000
1, 0, Note_on_c, 0, 64, 35
1, 288, Note_on_c, 0, 69, 42
1, 366, Note_off_c, 0, 64, 64
1, 586, Note_on_c, 0, 68, 39
1, 589, Note_on_c, 0, 49, 24
1, 640, Note_off_c, 0, 69, 64
1, 786, Note_off_c, 0, 49, 64
1, 788, Control_c, 0, 64, 127
1, 834, Note_off_c, 0, 68, 64
1, 1226, Note_on_c, 0, 73, 39
1, 1266, Note_on_c, 0, 64, 14
1, 1270, Note_on_c, 0, 56, 7
1, 1292, Note_on_c, 0, 61, 12
1, 1372, Control_c, 0, 64, 0
1, 1556, Control_c, 0, 64, 127
1, 1584, Note_off_c, 0, 64, 64
1, 1588, Note_off_c, 0, 56, 64
1, 1596, Note_off_c, 0, 61, 64
1, 1828, Note_on_c, 0, 56, 21
1, 1846, Note_on_c, 0, 64, 19
1, 1860, Note_on_c, 0, 61, 13
1, 1958, Note_off_c, 0, 64, 64
1, 1961, Note_off_c, 0, 61, 64
1, 1986, Note_off_c, 0, 56, 64
1, 2082, Note_on_c, 0, 75, 48
1, 2102, Note_off_c, 0, 73, 64
1, 2310, Note_on_c, 0, 73, 54
1, 2324, Control_c, 0, 64, 0
1, 2336, Note_off_c, 0, 75, 64
1, 2356, Note_on_c, 0, 51, 26
1, 2494, Control_c, 0, 64, 127
1, 2526, Note_off_c, 0, 51, 64
1, 2550, Note_on_c, 0, 72, 53
1, 2608, Note_off_c, 0, 73, 64
1, 2770, Note_on_c, 0, 75, 50
1, 2788, Note_on_c, 0, 66, 17
1, 2800, Control_c, 0, 64, 0
1, 2804, Note_off_c, 0, 72, 64
1, 2804, Note_on_c, 0, 56, 25
1, 2856, Note_on_c, 0, 60, 14
1, 3002, Note_off_c, 0, 60, 64
1, 3016, Control_c, 0, 64, 127
1, 3019, Note_off_c, 0, 66, 64
1, 3032, Note_off_c, 0, 56, 64
1, 3278, Note_on_c, 0, 66, 18
1, 3286, Note_on_c, 0, 56, 26
1, 3326, Note_on_c, 0, 60, 14
1, 3402, Note_off_c, 0, 66, 64
1, 3470, Note_off_c, 0, 60, 64
1, 3542, Note_off_c, 0, 56, 64
1, 3792, Note_off_c, 0, 75, 64
1, 3930, Note_on_c, 0, 48, 31
1, 3936, Control_c, 0, 64, 0
1, 4122, Control_c, 0, 64, 127
1, 4174, Note_off_c, 0, 48, 64
1, 4512, Note_on_c, 0, 75, 64
1, 4540, Note_on_c, 0, 66, 15
1, 4543, Note_on_c, 0, 63, 19
1, 4556, Note_on_c, 0, 56, 15
1, 4704, Note_off_c, 0, 66, 64
1, 4712, Note_off_c, 0, 56, 64
1, 4742, Note_off_c, 0, 63, 64
1, 5002, Note_on_c, 0, 56, 28
1, 5014, Note_on_c, 0, 66, 23
1, 5020, Note_on_c, 0, 63, 27
1, 5088, Note_off_c, 0, 63, 64
1, 5098, Note_off_c, 0, 66, 64
1, 5154, Note_off_c, 0, 56, 64
1, 5216, Note_on_c, 0, 76, 73
1, 5248, Note_off_c, 0, 75, 64
1, 5428, Control_c, 0, 64, 0
1, 5440, Note_on_c, 0, 49, 39
1, 5440, Note_on_c, 0, 75, 68
1, 5496, Note_off_c, 0, 76, 64
1, 5580, Control_c, 0, 64, 127
1, 5598, Note_off_c, 0, 49, 64
1, 5656, Note_on_c, 0, 73, 65
1, 5716, Note_off_c, 0, 75, 64
1, 5888, Control_c, 0, 64, 0
1, 5894, Note_on_c, 0, 56, 23
1, 5896, Note_on_c, 0, 76, 60
1, 5914, Note_on_c, 0, 61, 17
1, 5914, Note_on_c, 0, 64, 26
1, 5920, Note_off_c, 0, 73, 64
1, 6094, Note_off_c, 0, 64, 64
1, 6150, Control_c, 0, 64, 127
1, 6156, Note_off_c, 0, 61, 64
1, 6176, Note_off_c, 0, 56, 64
1, 6442, Note_on_c, 0, 56, 25
1, 6462, Note_on_c, 0, 61, 15
1, 6474, Note_on_c, 0, 64, 22
1, 6672, Note_off_c, 0, 61, 64
1, 6698, Note_off_c, 0, 64, 64
1, 6716, Note_off_c, 0, 56, 64
1, 6764, Note_off_c, 0, 76, 64
1, 6914, Note_on_c, 0, 52, 42
1, 6920, Control_c, 0, 64, 0
1, 7086, Control_c, 0, 64, 127
1, 7114, Note_off_c, 0, 52, 64
1, 7446, Note_on_c, 0, 68, 23
1, 7452, Note_on_c, 0, 80, 78
1, 7454, Note_on_c, 0, 56, 18
1, 7480, Note_on_c, 0, 61, 23
1, 7694, Note_off_c, 0, 56, 64
1, 7740, Note_off_c, 0, 61, 64
1, 7743, Note_off_c, 0, 68, 64
1, 8056, Note_on_c, 0, 68, 28
1, 8090, Note_on_c, 0, 56, 14
1, 8096, Note_on_c, 0, 61, 28
1, 8210, Note_off_c, 0, 68, 64
1, 8236, Note_off_c, 0, 61, 64
1, 8258, Note_off_c, 0, 56, 64
1, 8306, Note_on_c, 0, 81, 83
1, 8370, Note_off_c, 0, 80, 64
1, 8648, Note_on_c, 0, 80, 79
1, 8660, Note_on_c, 0, 51, 23
1, 8686, Control_c, 0, 64, 0
1, 8714, Note_off_c, 0, 81, 64
1, 8838, Control_c, 0, 64, 127
1, 8890, Note_off_c, 0, 51, 64
1, 8912, Note_on_c, 0, 79, 88
1, 8983, Note_off_c, 0, 80, 64
1, 9142, Note_on_c, 0, 58, 15
1, 9156, Note_on_c, 0, 61, 26
1, 9168, Note_on_c, 0, 67, 18
1, 9224, Note_on_c, 0, 75, 65
1, 9312, Note_off_c, 0, 79, 64
1, 9376, Control_c, 0, 64, 0
1, 9514, Control_c, 0, 64, 127
1, 9532, Note_off_c, 0, 67, 64
1, 9540, Note_off_c, 0, 58, 64
1, 9548, Note_off_c, 0, 61, 64
1, 9784, Note_on_c, 0, 67, 33
1, 9792, Note_on_c, 0, 58, 21
1, 9794, Note_on_c, 0, 61, 29
1, 9878, Note_off_c, 0, 67, 64
1, 9944, Note_off_c, 0, 61, 64
1, 9947, Note_off_c, 0, 58, 64
1, 10014, Note_on_c, 0, 76, 74
1, 10086, Note_off_c, 0, 75, 64
1, 10268, Control_c, 0, 64, 0
1, 10280, Note_on_c, 0, 78, 76
1, 10290, Note_on_c, 0, 44, 39
1, 10350, Note_off_c, 0, 76, 64
1, 10452, Control_c, 0, 64, 127
1, 10464, Note_off_c, 0, 44, 64
1, 10754, Note_on_c, 0, 80, 64
1, 10766, Note_on_c, 0, 66, 15
1, 10782, Note_on_c, 0, 56, 18
1, 10810, Note_on_c, 0, 60, 14
1, 10834, Note_off_c, 0, 78, 64
1, 10912, Control_c, 0, 64, 0
1, 11030, Note_off_c, 0, 66, 64
1, 11044, Note_off_c, 0, 56, 64
1, 11052, Control_c, 0, 64, 127
1, 11058, Note_off_c, 0, 60, 64
1, 11314, Note_on_c, 0, 66, 19
1, 11350, Note_on_c, 0, 60, 15
1, 11364, Note_on_c, 0, 56, 15
1, 11472, Note_off_c, 0, 56, 64
1, 11482, Note_off_c, 0, 66, 64
1, 11524, Note_off_c, 0, 60, 64
1, 11662, Note_on_c, 0, 78, 37
1, 11734, Note_off_c, 0, 80, 64
1, 11982, Note_off_c, 0, 78, 64
1, 12002, Note_on_c, 0, 76, 35
1, 12032, Note_on_c, 0, 49, 20
1, 12035, Control_c, 0, 64, 0
1, 12204, Control_c, 0, 64, 127
1, 12228, Note_off_c, 0, 49, 64
1, 12280, Note_on_c, 0, 75, 39
1, 12306, Note_off_c, 0, 76, 64
1, 12540, Note_on_c, 0, 73, 49
1, 12542, Note_on_c, 0, 61, 18
1, 12560, Note_on_c, 0, 64, 19
1, 12578, Note_on_c, 0, 56, 8
1, 12606, Note_off_c, 0, 75, 64
1, 12692, Control_c, 0, 64, 0
1, 12762, Note_off_c, 0, 64, 64
1, 12798, Note_off_c, 0, 61, 64
1, 12802, Control_c, 0, 64, 127
1, 12832, Note_off_c, 0, 56, 64
1, 12988, Note_on_c, 0, 71, 50
1, 13030, Note_on_c, 0, 61, 13
1, 13034, Note_on_c, 0, 55, 11
1, 13046, Note_off_c, 0, 73, 64
1, 13048, Note_on_c, 0, 64, 17
1, 13134, Note_off_c, 0, 64, 64
1, 13146, Note_off_c, 0, 55, 64
1, 13188, Note_off_c, 0, 61, 64
1, 13252, Note_on_c, 0, 69, 38
1, 13264, Note_off_c, 0, 71, 64
1, 13540, Control_c, 0, 64, 0
1, 13542, Note_on_c, 0, 68, 33
1, 13554, Note_off_c, 0, 69, 64
1, 13562, Note_on_c, 0, 49, 21
1, 13770, Control_c, 0, 64, 127
1, 13784, Note_off_c, 0, 49, 64
1, 13846, Note_off_c, 0, 68, 64
1, 14170, Note_on_c, 0, 73, 50
1, 14176, Note_on_c, 0, 64, 28
1, 14184, Note_on_c, 0, 61, 11
1, 14187, Note_on_c, 0, 56, 16
1, 14510, Note_off_c, 0, 64, 64
1, 14518, Note_off_c, 0, 61, 64
1, 14538, Note_off_c, 0, 56, 64
1, 14716, Note_on_c, 0, 56, 27
1, 14730, Note_on_c, 0, 61, 28
1, 14736, Note_on_c, 0, 64, 32
1, 14938, Note_off_c, 0, 64, 64
1, 14958, Note_on_c, 0, 75, 60
1, 14974, Note_off_c, 0, 61, 64
1, 14988, Note_off_c, 0, 73, 64
1, 15012, Note_off_c, 0, 56, 64
1, 15188, Note_on_c, 0, 73, 62
1, 15200, Control_c, 0, 64, 0
1, 15204, Note_on_c, 0, 51, 32
1, 15240, Note_off_c, 0, 75, 64
1, 15368, Control_c, 0, 64, 127
1, 15418, Note_off_c, 0, 51, 64
1, 15430, Note_on_c, 0, 72, 59
1, 15484, Note_off_c, 0, 73, 64
1, 15650, Note_on_c, 0, 66, 28
1, 15670, Note_on_c, 0, 75, 54
1, 15682, Note_on_c, 0, 56, 20
1, 15692, Note_on_c, 0, 60, 19
1, 15706, Note_off_c, 0, 72, 64
1, 15860, Control_c, 0, 64, 0
1, 15968, Control_c, 0, 64, 127
1, 15982, Note_off_c, 0, 66, 64
1, 15982, Note_off_c, 0, 56, 64
1, 15990, Note_off_c, 0, 60, 64
1, 16198, Note_on_c, 0, 66, 29
1, 16230, Note_on_c, 0, 56, 18
1, 16236, Note_on_c, 0, 60, 20
1, 16341, Note_off_c, 0, 66, 64
1, 16388, Note_off_c, 0, 60, 64
1, 16392, Note_off_c, 0, 56, 64
1, 16650, Note_on_c, 0, 48, 32
1, 16660, Control_c, 0, 64, 0
1, 16782, Control_c, 0, 64, 127
1, 16812, Note_off_c, 0, 75, 64
1, 16832, Note_off_c, 0, 48, 64
1, 17086, Note_on_c, 0, 66, 30
1, 17102, Note_on_c, 0, 63, 30
1, 17110, Note_on_c, 0, 75, 70
1, 17114, Note_on_c, 0, 56, 13
1, 17276, Note_off_c, 0, 66, 64
1, 17296, Note_off_c, 0, 63, 64
1, 17308, Note_off_c, 0, 56, 64
1, 17578, Note_on_c, 0, 56, 41
1, 17578, Note_on_c, 0, 66, 29
1, 17590, Note_on_c, 0, 63, 42
1, 17650, Note_off_c, 0, 66, 64
1, 17680, Note_off_c, 0, 63, 64
1, 17744, Note_off_c, 0, 56, 64
1, 17798, Note_on_c, 0, 76, 72
1, 17844, Note_off_c, 0, 75, 64
1, 18022, Note_on_c, 0, 75, 75
1, 18028, Control_c, 0, 64, 0
1, 18028, Note_on_c, 0, 49, 42
1, 18086, Note_off_c, 0, 76, 64
1, 18180, Control_c, 0, 64, 127
1, 18220, Note_off_c, 0, 49, 64
1, 18236, Note_on_c, 0, 73, 73
1, 18306, Note_off_c, 0, 75, 64
1, 18452, Note_on_c, 0, 56, 41
1, 18462, Note_on_c, 0, 76, 68
1, 18466, Note_on_c, 0, 64, 42
1, 18536, Note_off_c, 0, 73, 64
1, 18580, Control_c, 0, 64, 0
1, 18722, Note_off_c, 0, 64, 64
1, 18734, Control_c, 0, 64, 127
1, 18848, Note_off_c, 0, 56, 64
1, 18960, Note_on_c, 0, 54, 42
1, 18960, Note_on_c, 0, 64, 37
1, 18963, Note_on_c, 0, 58, 29
1, 19072, Control_c, 0, 64, 0
1, 19186, Note_off_c, 0, 64, 64
1, 19194, Control_c, 0, 64, 127
1, 19258, Note_off_c, 0, 58, 64
1, 19284, Note_off_c, 0, 54, 64
1, 19486, Note_on_c, 0, 71, 91
1, 19502, Control_c, 0, 64, 0
1, 19520, Note_on_c, 0, 47, 37
1, 19542, Note_off_c, 0, 76, 64
1, 19686, Control_c, 0, 64, 127
1, 19696, Note_off_c, 0, 47, 64
1, 19760, Note_off_c, 0, 71, 64
1, 20062, Note_on_c, 0, 64, 35
1, 20068, Note_on_c, 0, 56, 24
1, 20078, Note_on_c, 0, 59, 22
1, 20130, Note_on_c, 0, 83, 107
1, 20300, Control_c, 0, 64, 0
1, 20424, Control_c, 0, 64, 127
1, 20452, Note_off_c, 0, 64, 64
1, 20484, Note_off_c, 0, 59, 64
1, 20496, Note_off_c, 0, 56, 64
1, 20646, Note_on_c, 0, 64, 65
1, 20648, Note_on_c, 0, 56, 46
1, 20654, Note_on_c, 0, 59, 45
1, 20778, Note_off_c, 0, 64, 64
1, 20786, Note_off_c, 0, 59, 64
1, 20830, Note_off_c, 0, 56, 64
1, 20866, Note_on_c, 0, 85, 80
1, 20930, Note_off_c, 0, 83, 64
1, 21094, Note_on_c, 0, 83, 101
1, 21114, Control_c, 0, 64, 0
1, 21130, Note_on_c, 0, 47, 39
1, 21202, Note_off_c, 0, 85, 64
1, 21254, Control_c, 0, 64, 127
1, 21258, Note_off_c, 0, 47, 64
1, 21334, Note_on_c, 0, 82, 81
1, 21422, Note_off_c, 0, 83, 64
1, 21532, Note_on_c, 0, 61, 35
1, 21536, Note_on_c, 0, 64, 44
1, 21538, Note_on_c, 0, 54, 28
1, 21594, Note_on_c, 0, 78, 86
1, 21666, Note_off_c, 0, 82, 64
1, 21822, Note_off_c, 0, 54, 64
1, 21824, Note_off_c, 0, 64, 64
1, 21848, Note_off_c, 0, 61, 64
1, 22046, Note_on_c, 0, 64, 57
1, 22052, Note_on_c, 0, 54, 56
1, 22062, Note_on_c, 0, 61, 42
1, 22104, Note_off_c, 0, 64, 64
1, 22128, Note_off_c, 0, 61, 64
1, 22170, Note_off_c, 0, 54, 64
1, 22290, Note_on_c, 0, 80, 87
1, 22386, Note_off_c, 0, 78, 64
1, 22590, Control_c, 0, 64, 0
1, 22594, Note_on_c, 0, 81, 91
1, 22614, Note_on_c, 0, 35, 50
1, 22674, Note_off_c, 0, 80, 64
1, 22770, Note_off_c, 0, 35, 64
1, 22790, Control_c, 0, 64, 127
1, 23114, Note_on_c, 0, 63, 36
1, 23117, Note_on_c, 0, 83, 103
1, 23136, Note_on_c, 0, 59, 26
1, 23146, Note_on_c, 0, 54, 37
1, 23206, Note_off_c, 0, 81, 64
1, 23250, Control_c, 0, 64, 0
1, 23404, Control_c, 0, 64, 127
1, 23418, Note_off_c, 0, 63, 64
1, 23432, Note_off_c, 0, 54, 64
1, 23442, Note_off_c, 0, 59, 64
1, 23646, Note_on_c, 0, 63, 46
1, 23667, Note_on_c, 0, 54, 34
1, 23684, Note_on_c, 0, 59, 25
1, 23756, Note_off_c, 0, 59, 64
1, 23770, Note_off_c, 0, 63, 64
1, 23824, Note_off_c, 0, 54, 64
1, 23988, Note_on_c, 0, 81, 74
1, 24048, Note_off_c, 0, 83, 64
1, 24334, Note_on_c, 0, 80, 66
1, 24362, Note_off_c, 0, 81, 64
1, 24372, Control_c, 0, 64, 0
1, 24384, Note_on_c, 0, 40, 50
1, 24526, Control_c, 0, 64, 127
1, 24534, Note_off_c, 0, 40, 64
1, 24594, Note_off_c, 0, 80, 64
1, 24606, Note_on_c, 0, 75, 60
1, 24742, Note_off_c, 0, 75, 64
1, 24792, Note_on_c, 0, 76, 42
1, 24844, Note_off_c, 0, 76, 64
1, 24846, Note_on_c, 0, 78, 56
1, 24906, Note_on_c, 0, 76, 70
1, 24928, Note_on_c, 0, 64, 27
1, 24936, Note_on_c, 0, 56, 18
1, 24958, Note_on_c, 0, 59, 15
1, 24996, Note_off_c, 0, 78, 64
1, 25018, Control_c, 0, 64, 0
1, 25160, Note_on_c, 0, 75, 71
1, 25186, Control_c, 0, 64, 127
1, 25222, Note_off_c, 0, 76, 64
1, 25258, Note_off_c, 0, 64, 64
1, 25326, Note_off_c, 0, 59, 64
1, 25374, Note_off_c, 0, 56, 64
1, 25392, Note_on_c, 0, 76, 62
1, 25430, Note_off_c, 0, 75, 64
1, 25448, Control_c, 0, 64, 0
1, 25612, Note_on_c, 0, 78, 57
1, 25658, Note_off_c, 0, 76, 64
1, 25936, Note_on_c, 0, 80, 48
1, 25954, Note_off_c, 0, 78, 64
1, 25964, Note_on_c, 0, 48, 17
1, 26170, Control_c, 0, 64, 127
1, 26196, Note_off_c, 0, 48, 64
1, 26580, Note_on_c, 0, 66, 15
1, 26600, Note_on_c, 0, 63, 19
1, 26606, Note_on_c, 0, 56, 18
1, 26780, Note_off_c, 0, 56, 64
1, 26826, Note_off_c, 0, 66, 64
1, 26840, Note_on_c, 0, 75, 38
1, 26854, Note_off_c, 0, 80, 64
1, 26904, Note_off_c, 0, 63, 64
1, 27086, Note_on_c, 0, 80, 48
1, 27090, Note_off_c, 0, 75, 64
1, 27184, Control_c, 0, 64, 0
1, 27330, Note_on_c, 0, 78, 42
1, 27370, Note_off_c, 0, 80, 64
1, 27640, Note_on_c, 0, 49, 22
1, 27648, Note_on_c, 0, 76, 39
1, 27658, Note_off_c, 0, 78, 64
1, 27784, Control_c, 0, 64, 127
1, 27814, Note_off_c, 0, 49, 64
1, 28212, Note_on_c, 0, 72, 27
1, 28234, Note_on_c, 0, 64, 27
1, 28264, Note_on_c, 0, 56, 12
1, 28264, Note_on_c, 0, 61, 8
1, 28322, Note_off_c, 0, 76, 64
1, 28402, Note_off_c, 0, 64, 64
1, 28434, Note_on_c, 0, 75, 41
1, 28442, Note_off_c, 0, 72, 64
1, 28478, Note_off_c, 0, 61, 64
1, 28534, Note_off_c, 0, 56, 64
1, 28537, Control_c, 0, 64, 0
1, 28638, Note_on_c, 0, 73, 52
1, 28706, Note_off_c, 0, 75, 64
1, 28852, Note_on_c, 0, 71, 65
1, 28876, Note_off_c, 0, 73, 64
1, 29048, Note_off_c, 0, 71, 64
1, 29066, Note_on_c, 0, 37, 41
1, 29076, Note_on_c, 0, 69, 44
1, 29132, Note_off_c, 0, 37, 64
1, 29166, Control_c, 0, 64, 127
1, 29208, Note_off_c, 0, 69, 64
1, 29450, Note_on_c, 0, 69, 39
1, 29568, Note_on_c, 0, 64, 24
1, 29568, Note_on_c, 0, 55, 23
1, 29568, Note_on_c, 0, 61, 28
1, 29674, Control_c, 0, 64, 0
1, 29826, Note_off_c, 0, 64, 64
1, 29842, Control_c, 0, 64, 127
1, 29850, Note_off_c, 0, 55, 64
1, 29852, Note_off_c, 0, 61, 64
1, 29912, Note_off_c, 0, 69, 64
1, 30162, Note_on_c, 0, 61, 18
1, 30164, Note_on_c, 0, 69, 34
1, 30168, Note_on_c, 0, 64, 23
1, 30186, Note_on_c, 0, 55, 18
1, 30266, Note_off_c, 0, 64, 64
1, 30282, Note_off_c, 0, 55, 64
1, 30306, Note_off_c, 0, 61, 64
1, 30588, Note_off_c, 0, 69, 64
1, 30622, Note_on_c, 0, 68, 46
1, 30642, Control_c, 0, 64, 0
1, 30660, Note_on_c, 0, 49, 22
1, 30810, Control_c, 0, 64, 127
1, 30836, Note_off_c, 0, 49, 64
1, 30924, Note_on_c, 0, 73, 61
1, 30970, Note_off_c, 0, 68, 64
1, 31154, Note_on_c, 0, 75, 67
1, 31168, Note_on_c, 0, 61, 21
1, 31171, Note_on_c, 0, 64, 31
1, 31182, Note_on_c, 0, 56, 20
1, 31212, Note_off_c, 0, 73, 64
1, 31234, Note_off_c, 0, 75, 64
1, 31350, Note_off_c, 0, 64, 64
1, 31376, Note_on_c, 0, 76, 73
1, 31426, Note_off_c, 0, 61, 64
1, 31454, Note_off_c, 0, 56, 64
1, 31586, Note_on_c, 0, 80, 76
1, 31614, Note_off_c, 0, 76, 64
1, 31640, Control_c, 0, 64, 0
1, 31796, Note_on_c, 0, 85, 61
1, 31816, Note_off_c, 0, 80, 64
1, 32058, Note_on_c, 0, 80, 66
1, 32072, Note_off_c, 0, 85, 64
1, 32074, Note_on_c, 0, 48, 21
1, 32208, Control_c, 0, 64, 127
1, 32304, Note_off_c, 0, 48, 64
1, 32542, Note_on_c, 0, 63, 27
1, 32574, Note_on_c, 0, 56, 28
1, 32704, Note_off_c, 0, 63, 64
1, 32744, Note_off_c, 0, 56, 64
1, 32770, Note_on_c, 0, 75, 58
1, 32788, Note_off_c, 0, 80, 64
1, 33016, Note_on_c, 0, 80, 64
1, 33042, Note_off_c, 0, 75, 64
1, 33116, Control_c, 0, 64, 0
1, 33248, Note_on_c, 0, 78, 62
1, 33296, Note_off_c, 0, 80, 64
1, 33536, Note_on_c, 0, 37, 31
1, 33598, Note_on_c, 0, 76, 53
1, 33618, Note_off_c, 0, 78, 64
1, 33738, Note_off_c, 0, 37, 64
1, 33746, Control_c, 0, 64, 127
1, 34100, Note_on_c, 0, 72, 55
1, 34122, Note_on_c, 0, 64, 38
1, 34134, Note_on_c, 0, 56, 28
1, 34156, Note_off_c, 0, 76, 64
1, 34338, Note_off_c, 0, 64, 64
1, 34366, Note_on_c, 0, 75, 62
1, 34380, Note_off_c, 0, 56, 64
1, 34394, Note_off_c, 0, 72, 64
1, 34580, Note_on_c, 0, 73, 62
1, 34586, Note_on_c, 0, 56, 37
1, 34590, Control_c, 0, 64, 0
1, 34598, Note_on_c, 0, 64, 33
1, 34600, Note_on_c, 0, 58, 28
1, 34620, Note_off_c, 0, 75, 64
1, 34674, Note_off_c, 0, 64, 64
1, 34714, Control_c, 0, 64, 127
1, 34738, Note_off_c, 0, 56, 64
1, 34752, Note_off_c, 0, 58, 64
1, 34792, Note_on_c, 0, 70, 62
1, 34806, Note_off_c, 0, 73, 64
1, 34872, Note_off_c, 0, 70, 64
1, 34992, Note_on_c, 0, 63, 65
1, 35018, Note_on_c, 0, 39, 36
1, 35154, Note_off_c, 0, 39, 64
1, 35194, Note_off_c, 0, 63, 64
1, 35222, Note_on_c, 0, 64, 69
1, 35274, Note_off_c, 0, 64, 64
1, 35320, Note_on_c, 0, 63, 62
1, 35370, Note_off_c, 0, 63, 64
1, 35380, Note_on_c, 0, 64, 63
1, 35452, Note_on_c, 0, 63, 56
1, 35464, Note_on_c, 0, 59, 41
1, 35486, Note_on_c, 0, 51, 33
1, 35502, Note_on_c, 0, 56, 40
1, 35512, Note_off_c, 0, 64, 64
1, 35512, Control_c, 0, 64, 0
1, 35630, Note_off_c, 0, 56, 64
1, 35690, Note_off_c, 0, 59, 64
1, 35692, Note_off_c, 0, 51, 64
1, 35696, Control_c, 0, 64, 127
1, 35698, Note_on_c, 0, 62, 73
1, 35728, Note_off_c, 0, 63, 64
1, 35932, Note_on_c, 0, 63, 73
1, 35954, Note_on_c, 0, 61, 32
1, 35972, Note_off_c, 0, 62, 64
1, 35972, Control_c, 0, 64, 0
1, 35975, Note_on_c, 0, 55, 33
1, 36014, Note_on_c, 0, 51, 25
1, 36172, Control_c, 0, 64, 127
1, 36177, Note_off_c, 0, 61, 64
1, 36188, Note_off_c, 0, 55, 64
1, 36191, Note_on_c, 0, 71, 81
1, 36206, Note_off_c, 0, 63, 64
1, 36238, Note_off_c, 0, 51, 64
1, 36496, Control_c, 0, 64, 0
1, 36516, Note_on_c, 0, 68, 68
1, 36528, Note_on_c, 0, 44, 38
1, 36540, Note_off_c, 0, 71, 64
1, 36710, Control_c, 0, 64, 127
1, 36796, Note_off_c, 0, 68, 64
1, 36796, Note_off_c, 0, 44, 64
1, 36862, Note_on_c, 0, 56, 63
1, 37150, Note_on_c, 0, 59, 35
1, 37158, Note_on_c, 0, 50, 46
1, 37226, Note_on_c, 0, 68, 44
1, 37238, Note_off_c, 0, 56, 64
1, 37294, Control_c, 0, 64, 0
1, 37448, Control_c, 0, 64, 127
1, 37468, Note_on_c, 0, 52, 64
1, 37504, Note_off_c, 0, 50, 64
1, 37572, Control_c, 0, 64, 0
1, 37694, Control_c, 0, 64, 127
1, 37742, Note_off_c, 0, 52, 64
1, 37742, Note_on_c, 0, 51, 50
1, 37802, Control_c, 0, 64, 0
1, 37976, Note_off_c, 0, 59, 64
1, 37986, Control_c, 0, 64, 127
1, 38046, Note_off_c, 0, 51, 64
1, 38056, Note_on_c, 0, 47, 40
1, 38110, Control_c, 0, 64, 0
1, 38232, Control_c, 0, 64, 127
1, 38342, Note_off_c, 0, 47, 64
1, 38562, Note_off_c, 0, 68, 64
1, 38576, Note_on_c, 0, 80, 58
1, 38586, Control_c, 0, 64, 0
1, 38589, Note_on_c, 0, 44, 38
1, 38820, Note_off_c, 0, 44, 64
1, 38846, Control_c, 0, 64, 127
1, 39298, Note_on_c, 0, 66, 14
1, 39320, Note_on_c, 0, 60, 15
1, 39330, Note_on_c, 0, 51, 11
1, 39630, Note_off_c, 0, 66, 64
1, 39650, Note_on_c, 0, 75, 46
1, 39720, Note_off_c, 0, 80, 64
1, 39888, Note_off_c, 0, 60, 64
1, 39954, Note_on_c, 0, 80, 53
1, 39992, Note_off_c, 0, 75, 64
1, 40008, Note_off_c, 0, 51, 64
1, 40222, Note_on_c, 0, 78, 46
1, 40274, Note_off_c, 0, 80, 64
1, 40522, Control_c, 0, 64, 0
1, 40542, Note_on_c, 0, 76, 38
1, 40550, Note_on_c, 0, 49, 23
1, 40586, Note_off_c, 0, 78, 64
1, 40752, Control_c, 0, 64, 127
1, 40755, Note_off_c, 0, 49, 64
1, 41076, Note_on_c, 0, 72, 35
1, 41092, Note_on_c, 0, 56, 18
1, 41104, Note_on_c, 0, 64, 25
1, 41120, Note_on_c, 0, 61, 12
1, 41192, Note_off_c, 0, 76, 64
1, 41244, Control_c, 0, 64, 0
1, 41322, Note_on_c, 0, 75, 43
1, 41374, Note_off_c, 0, 72, 64
1, 41384, Note_off_c, 0, 64, 64
1, 41398, Control_c, 0, 64, 127
1, 41450, Note_off_c, 0, 61, 64
1, 41488, Note_off_c, 0, 56, 64
1, 41540, Note_on_c, 0, 73, 47
1, 41566, Control_c, 0, 64, 0
1, 41586, Note_off_c, 0, 75, 64
1, 41764, Note_on_c, 0, 71, 63
1, 41784, Note_off_c, 0, 73, 64
1, 41874, Control_c, 0, 64, 127
1, 41952, Note_off_c, 0, 71, 64
1, 41996, Note_on_c, 0, 37, 23
1, 42006, Note_on_c, 0, 69, 41
1, 42072, Note_off_c, 0, 37, 64
1, 42136, Note_off_c, 0, 69, 64
1, 42472, Note_on_c, 0, 69, 45
1, 42530, Note_off_c, 0, 69, 64
1, 42602, Note_on_c, 0, 69, 42
1, 42636, Note_on_c, 0, 64, 28
1, 42656, Note_on_c, 0, 55, 23
1, 42794, Control_c, 0, 64, 0
1, 42954, Note_off_c, 0, 64, 64
1, 42964, Control_c, 0, 64, 127
1, 42980, Note_off_c, 0, 55, 64
1, 43016, Note_off_c, 0, 69, 64
1, 43146, Note_on_c, 0, 69, 58
1, 43174, Note_on_c, 0, 64, 31
1, 43180, Note_on_c, 0, 55, 28
1, 43254, Note_off_c, 0, 64, 64
1, 43302, Note_off_c, 0, 55, 64
1, 43606, Note_off_c, 0, 69, 64
1, 43622, Note_on_c, 0, 68, 64
1, 43624, Control_c, 0, 64, 0
1, 43654, Note_on_c, 0, 49, 34
1, 43820, Note_off_c, 0, 49, 64
1, 43856, Control_c, 0, 64, 127
1, 43918, Note_on_c, 0, 73, 62
1, 43964, Note_off_c, 0, 68, 64
1, 44140, Note_on_c, 0, 75, 79
1, 44146, Note_on_c, 0, 56, 32
1, 44156, Note_on_c, 0, 64, 35
1, 44196, Note_off_c, 0, 73, 64
1, 44206, Note_on_c, 0, 61, 7
1, 44222, Note_off_c, 0, 75, 64
1, 44226, Note_off_c, 0, 64, 64
1, 44264, Note_off_c, 0, 56, 64
1, 44267, Note_off_c, 0, 61, 64
1, 44348, Note_on_c, 0, 76, 74
1, 44552, Note_on_c, 0, 80, 74
1, 44582, Note_off_c, 0, 76, 64
1, 44582, Note_on_c, 0, 49, 39
1, 44594, Control_c, 0, 64, 0
1, 44772, Note_on_c, 0, 85, 64
1, 44788, Note_off_c, 0, 80, 64
1, 44791, Control_c, 0, 64, 127
1, 44866, Note_off_c, 0, 49, 64
1, 44978, Control_c, 0, 64, 0
1, 45022, Note_on_c, 0, 80, 60
1, 45034, Note_on_c, 0, 48, 28
1, 45056, Note_off_c, 0, 85, 64
1, 45254, Control_c, 0, 64, 127
1, 45274, Note_off_c, 0, 48, 64
1, 45490, Note_on_c, 0, 63, 36
1, 45534, Note_on_c, 0, 56, 13
1, 45542, Note_on_c, 0, 51, 8
1, 45624, Note_off_c, 0, 63, 64
1, 45682, Note_off_c, 0, 56, 64
1, 45726, Note_off_c, 0, 80, 64
1, 45732, Note_on_c, 0, 75, 55
1, 45744, Note_off_c, 0, 51, 64
1, 46016, Note_on_c, 0, 80, 65
1, 46036, Note_on_c, 0, 47, 31
1, 46038, Note_off_c, 0, 75, 64
1, 46038, Control_c, 0, 64, 0
1, 46206, Control_c, 0, 64, 127
1, 46248, Note_off_c, 0, 47, 64
1, 46258, Note_on_c, 0, 79, 74
1, 46294, Note_off_c, 0, 80, 64
1, 46488, Note_on_c, 0, 78, 72
1, 46498, Control_c, 0, 64, 0
1, 46498, Note_on_c, 0, 46, 33
1, 46536, Note_off_c, 0, 79, 64
1, 46698, Control_c, 0, 64, 127
1, 46722, Note_on_c, 0, 76, 63
1, 46756, Note_off_c, 0, 78, 64
1, 46790, Note_off_c, 0, 46, 64
1, 46894, Note_off_c, 0, 76, 64
1, 46928, Note_on_c, 0, 72, 60
1, 46944, Note_on_c, 0, 61, 33
1, 47006, Note_on_c, 0, 52, 27
1, 47106, Note_off_c, 0, 61, 64
1, 47154, Note_on_c, 0, 75, 64
1, 47176, Note_off_c, 0, 72, 64
1, 47320, Note_off_c, 0, 52, 64
1, 47380, Note_on_c, 0, 73, 50
1, 47382, Note_on_c, 0, 45, 47
1, 47390, Control_c, 0, 64, 0
1, 47416, Note_off_c, 0, 75, 64
1, 47590, Control_c, 0, 64, 127
1, 47600, Note_off_c, 0, 73, 64
1, 47614, Note_on_c, 0, 67, 58
1, 47730, Note_off_c, 0, 45, 64
1, 47820, Note_off_c, 0, 67, 64
1, 47820, Control_c, 0, 64, 0
1, 47823, Note_on_c, 0, 68, 52
1, 47860, Note_on_c, 0, 44, 40
1, 48006, Note_off_c, 0, 44, 64
1, 48034, Control_c, 0, 64, 127
1, 48074, Note_on_c, 0, 69, 44
1, 48078, Note_off_c, 0, 68, 64
1, 48188, Note_off_c, 0, 69, 64
1, 48274, Note_on_c, 0, 68, 51
1, 48326, Note_off_c, 0, 68, 64
1, 48352, Note_on_c, 0, 69, 55
1, 48394, Note_on_c, 0, 56, 25
1, 48402, Note_on_c, 0, 64, 33
1, 48410, Note_on_c, 0, 68, 47
1, 48466, Note_off_c, 0, 69, 64
1, 48496, Control_c, 0, 64, 0
1, 48620, Note_off_c, 0, 56, 64
1, 48650, Control_c, 0, 64, 127
1, 48660, Note_on_c, 0, 67, 67
1, 48662, Note_off_c, 0, 64, 64
1, 48678, Note_off_c, 0, 68, 64
1, 48816, Note_on_c, 0, 56, 23
1, 48880, Control_c, 0, 64, 0
1, 48886, Note_on_c, 0, 60, 25
1, 48890, Note_on_c, 0, 68, 57
1, 48914, Note_off_c, 0, 67, 64
1, 48922, Note_on_c, 0, 66, 28
1, 49082, Note_off_c, 0, 66, 64
1, 49096, Control_c, 0, 64, 127
1, 49104, Note_off_c, 0, 60, 64
1, 49134, Note_on_c, 0, 76, 55
1, 49136, Note_off_c, 0, 68, 64
1, 49142, Note_off_c, 0, 56, 64
1, 49372, Control_c, 0, 64, 0
1, 49426, Note_on_c, 0, 49, 24
1, 49434, Note_on_c, 0, 73, 45
1, 49458, Note_off_c, 0, 76, 64
1, 49632, Control_c, 0, 64, 127
1, 49684, Note_off_c, 0, 49, 64
1, 49764, Note_off_c, 0, 73, 64
1, 49774, Note_on_c, 0, 61, 50
1, 50204, Note_on_c, 0, 73, 39
1, 50232, Control_c, 0, 64, 0
1, 50234, Note_on_c, 0, 56, 24
1, 50246, Note_on_c, 0, 64, 15
1, 50602, Control_c, 0, 64, 127
1, 50605, Note_off_c, 0, 64, 64
1, 51030, Note_off_c, 0, 56, 64
1, 51064, Note_on_c, 0, 59, 30
1, 51184, Control_c, 0, 64, 0
1, 51276, Control_c, 0, 64, 127
1, 51386, Note_on_c, 0, 57, 41
1, 51416, Note_off_c, 0, 59, 64
1, 51642, Note_on_c, 0, 63, 54
1, 51644, Note_off_c, 0, 57, 64
1, 51644, Note_on_c, 0, 56, 40
1, 51646, Control_c, 0, 64, 0
1, 51662, Note_off_c, 0, 73, 64
1, 51846, Control_c, 0, 64, 127
1, 51922, Note_off_c, 0, 63, 64
1, 51944, Note_off_c, 0, 56, 64
1, 51992, Note_on_c, 0, 55, 35
1, 52076, Note_on_c, 0, 63, 61
1, 52108, Note_off_c, 0, 61, 64
1, 52118, Note_off_c, 0, 63, 64
1, 52190, Note_on_c, 0, 63, 61
1, 52198, Note_on_c, 0, 54, 51
1, 52216, Note_off_c, 0, 55, 64
1, 52216, Note_on_c, 0, 60, 47
1, 52246, Control_c, 0, 64, 0
1, 52476, Control_c, 0, 64, 127
1, 52644, Note_on_c, 0, 65, 68
1, 52649, Note_off_c, 0, 54, 64
1, 52652, Note_on_c, 0, 56, 28
1, 52656, Note_on_c, 0, 61, 49
1, 52660, Note_off_c, 0, 60, 64
1, 52676, Control_c, 0, 64, 0
1, 52676, Note_on_c, 0, 53, 70
1, 52688, Note_off_c, 0, 63, 64
1, 52898, Note_off_c, 0, 56, 64
1, 52906, Control_c, 0, 64, 127
1, 53070, Note_off_c, 0, 61, 64
1, 53084, Note_on_c, 0, 60, 66
1, 53088, Note_off_c, 0, 53, 64
1, 53098, Note_on_c, 0, 56, 39
1, 53122, Control_c, 0, 64, 0
1, 53122, Note_on_c, 0, 51, 48
1, 53152, Note_off_c, 0, 65, 64
1, 53298, Note_on_c, 0, 68, 61
1, 53366, Control_c, 0, 64, 127
1, 53506, Control_c, 0, 64, 0
1, 53532, Note_on_c, 0, 66, 62
1, 53542, Note_on_c, 0, 44, 45
1, 53624, Note_off_c, 0, 68, 64
1, 53796, Control_c, 0, 64, 127
1, 54082, Note_off_c, 0, 60, 64
1, 54090, Note_on_c, 0, 61, 41
1, 54090, Note_on_c, 0, 65, 54
1, 54100, Note_off_c, 0, 51, 64
1, 54110, Note_on_c, 0, 49, 29
1, 54120, Control_c, 0, 64, 0
1, 54138, Note_off_c, 0, 66, 64
1, 54238, Note_off_c, 0, 44, 64
1, 54366, Control_c, 0, 64, 127
1, 54560, Note_off_c, 0, 65, 64
1, 54568, Note_on_c, 0, 58, 36
1, 54578, Note_on_c, 0, 42, 41
1, 54582, Note_off_c, 0, 61, 64
1, 54584, Note_off_c, 0, 49, 64
1, 54584, Note_on_c, 0, 63, 52
1, 54596, Control_c, 0, 64, 0
1, 54796, Control_c, 0, 64, 127
1, 54828, Note_off_c, 0, 63, 64
1, 54872, Note_off_c, 0, 56, 64
1, 54940, Note_on_c, 0, 63, 54
1, 54986, Note_off_c, 0, 63, 64
1, 55058, Note_on_c, 0, 63, 60
1, 55094, Note_on_c, 0, 54, 37
1, 55134, Control_c, 0, 64, 0
1, 55364, Control_c, 0, 64, 127
1, 55466, Note_off_c, 0, 58, 64
1, 55486, Control_c, 0, 64, 0
1, 55490, Note_on_c, 0, 65, 40
1, 55500, Note_on_c, 0, 44, 35
1, 55516, Note_off_c, 0, 63, 64
1, 55526, Note_on_c, 0, 60, 24
1, 55560, Note_off_c, 0, 42, 64
1, 55748, Control_c, 0, 64, 127
1, 55796, Note_off_c, 0, 54, 64
1, 55826, Note_off_c, 0, 60, 64
1, 55994, Control_c, 0, 64, 0
1, 55998, Note_off_c, 0, 65, 64
1, 56014, Note_on_c, 0, 63, 40
1, 56024, Note_on_c, 0, 54, 39
1, 56040, Note_on_c, 0, 46, 28
1, 56054, Note_off_c, 0, 44, 64
1, 56254, Control_c, 0, 64, 127
1, 56356, Note_off_c, 0, 63, 64
1, 56440, Note_on_c, 0, 62, 20
1, 56544, Note_off_c, 0, 62, 64
1, 56548, Control_c, 0, 64, 0
1, 56550, Note_on_c, 0, 56, 33
1, 56558, Note_off_c, 0, 46, 64
1, 56580, Note_on_c, 0, 63, 33
1, 56592, Note_on_c, 0, 48, 16
1, 56854, Control_c, 0, 64, 127
1, 56944, Note_off_c, 0, 54, 64
1, 57030, Note_off_c, 0, 48, 64
1, 57030, Note_on_c, 0, 61, 37
1, 57038, Control_c, 0, 64, 0
1, 57042, Note_on_c, 0, 53, 46
1, 57044, Note_on_c, 0, 49, 24
1, 57098, Note_off_c, 0, 63, 64
1, 57284, Control_c, 0, 64, 127
1, 57286, Note_off_c, 0, 53, 64
1, 57356, Note_off_c, 0, 49, 64
1, 57440, Note_off_c, 0, 56, 64
1, 57598, Note_on_c, 0, 56, 6
1, 57730, Control_c, 0, 64, 0
1, 57740, Note_on_c, 0, 63, 64
1, 57744, Note_on_c, 0, 51, 43
1, 57748, Note_on_c, 0, 32, 29
1, 57752, Note_on_c, 0, 44, 35
1, 57886, Note_off_c, 0, 32, 64
1, 57889, Note_off_c, 0, 51, 64
1, 57898, Control_c, 0, 64, 127
1, 57910, Note_off_c, 0, 56, 64
1, 57915, Note_off_c, 0, 44, 64
1, 57944, Note_off_c, 0, 61, 64
1, 57956, Note_off_c, 0, 63, 64
1, 58158, Note_on_c, 0, 63, 65
1, 58202, Note_off_c, 0, 63, 64
1, 58268, Note_on_c, 0, 63, 70
1, 58284, Note_on_c, 0, 56, 43
1, 58290, Note_on_c, 0, 54, 54
1, 58294, Note_on_c, 0, 60, 39
1, 58550, Note_off_c, 0, 60, 64
1, 58732, Note_on_c, 0, 65, 70
1, 58735, Note_on_c, 0, 61, 60
1, 58754, Note_on_c, 0, 53, 74
1, 58760, Note_off_c, 0, 54, 64
1, 58774, Note_off_c, 0, 63, 64
1, 58966, Note_off_c, 0, 56, 64
1, 59054, Note_off_c, 0, 61, 64
1, 59150, Note_on_c, 0, 68, 73
1, 59166, Note_on_c, 0, 56, 40
1, 59166, Note_on_c, 0, 60, 52
1, 59169, Note_off_c, 0, 53, 64
1, 59190, Note_on_c, 0, 51, 50
1, 59190, Control_c, 0, 64, 0
1, 59222, Note_off_c, 0, 65, 64
1, 59368, Note_on_c, 0, 70, 68
1, 59390, Control_c, 0, 64, 127
1, 59424, Note_off_c, 0, 68, 64
1, 59574, Control_c, 0, 64, 0
1, 59582, Note_on_c, 0, 66, 75
1, 59588, Note_on_c, 0, 44, 52
1, 59654, Note_off_c, 0, 70, 64
1, 59804, Control_c, 0, 64, 127
1, 59894, Note_off_c, 0, 56, 64
1, 59940, Note_off_c, 0, 60, 64
1, 60120, Note_off_c, 0, 51, 64
1, 60120, Note_on_c, 0, 61, 46
1, 60120, Note_on_c, 0, 56, 23
1, 60123, Note_on_c, 0, 65, 59
1, 60128, Note_on_c, 0, 49, 28
1, 60134, Note_off_c, 0, 44, 64
1, 60174, Control_c, 0, 64, 0
1, 60177, Note_off_c, 0, 66, 64
1, 60358, Control_c, 0, 64, 127
1, 60400, Note_off_c, 0, 61, 64
1, 60572, Control_c, 0, 64, 0
1, 60590, Note_on_c, 0, 63, 70
1, 60592, Note_on_c, 0, 42, 31
1, 60602, Note_on_c, 0, 58, 36
1, 60612, Note_off_c, 0, 65, 64
1, 60622, Note_off_c, 0, 49, 64
1, 60688, Note_off_c, 0, 58, 64
1, 60772, Control_c, 0, 64, 127
1, 60908, Note_off_c, 0, 63, 64
1, 60918, Note_off_c, 0, 56, 64
1, 60966, Note_on_c, 0, 73, 53
1, 61070, Note_on_c, 0, 54, 50
1, 61072, Note_on_c, 0, 63, 68
1, 61102, Note_off_c, 0, 73, 64
1, 61358, Note_off_c, 0, 54, 64
1, 61526, Note_on_c, 0, 65, 48
1, 61536, Note_on_c, 0, 60, 32
1, 61550, Note_off_c, 0, 63, 64
1, 61550, Note_on_c, 0, 53, 47
1, 61553, Note_on_c, 0, 44, 37
1, 61572, Note_off_c, 0, 42, 64
1, 61572, Control_c, 0, 64, 0
1, 61740, Control_c, 0, 64, 127
1, 61748, Note_off_c, 0, 53, 64
1, 61753, Note_off_c, 0, 65, 64
1, 61848, Note_on_c, 0, 63, 57
1, 61894, Note_off_c, 0, 63, 64
1, 61912, Note_on_c, 0, 65, 53
1, 61924, Control_c, 0, 64, 0
1, 61966, Note_off_c, 0, 65, 64
1, 61966, Note_on_c, 0, 54, 41
1, 61972, Note_on_c, 0, 63, 64
1, 61994, Note_on_c, 0, 46, 20
1, 62028, Note_off_c, 0, 44, 64
1, 62162, Note_off_c, 0, 60, 64
1, 62186, Control_c, 0, 64, 127
1, 62318, Note_off_c, 0, 63, 64
1, 62344, Note_on_c, 0, 62, 38
1, 62448, Control_c, 0, 64, 0
1, 62468, Note_off_c, 0, 62, 64
1, 62496, Note_on_c, 0, 63, 51
1, 62499, Note_on_c, 0, 56, 13
1, 62506, Note_on_c, 0, 48, 26
1, 62514, Note_off_c, 0, 46, 64
1, 62848, Control_c, 0, 64, 127
1, 62980, Note_off_c, 0, 54, 64
1, 63120, Note_off_c, 0, 48, 64
1, 63144, Note_on_c, 0, 49, 21
1, 63146, Note_on_c, 0, 61, 34
1, 63154, Control_c, 0, 64, 0
1, 63170, Note_off_c, 0, 63, 64
1, 63170, Note_on_c, 0, 53, 31
1, 63416, Control_c, 0, 64, 127
1, 63422, Note_off_c, 0, 53, 64
1, 63470, Note_off_c, 0, 49, 64
1, 63492, Note_off_c, 0, 56, 64
1, 63714, Note_off_c, 0, 61, 64
1, 63730, Note_on_c, 0, 37, 44
1, 63732, Note_on_c, 0, 68, 59
1, 63776, Note_off_c, 0, 68, 64
1, 63788, Note_off_c, 0, 37, 64
1, 64074, Note_on_c, 0, 68, 70
1, 64118, Note_off_c, 0, 68, 64
1, 64166, Note_on_c, 0, 68, 83
1, 64178, Note_on_c, 0, 63, 55
1, 64198, Note_on_c, 0, 65, 44
1, 64210, Note_on_c, 0, 59, 33
1, 64462, Note_off_c, 0, 65, 64
1, 64470, Note_off_c, 0, 63, 64
1, 64596, Note_on_c, 0, 70, 72
1, 64610, Note_on_c, 0, 66, 55
1, 64640, Note_on_c, 0, 58, 27
1, 64642, Note_on_c, 0, 61, 34
1, 64646, Note_off_c, 0, 68, 64
1, 64650, Note_off_c, 0, 59, 64
1, 64658, Control_c, 0, 64, 0
1, 64814, Control_c, 0, 64, 127
1, 64984, Note_off_c, 0, 58, 64
1, 64998, Note_on_c, 0, 49, 44
1, 65000, Note_on_c, 0, 73, 69
1, 65006, Note_off_c, 0, 61, 64
1, 65014, Note_off_c, 0, 66, 64
1, 65060, Note_off_c, 0, 70, 64
1, 65060, Control_c, 0, 64, 0
1, 65228, Control_c, 0, 64, 127
1, 65386, Note_on_c, 0, 71, 70
1, 65391, Note_off_c, 0, 73, 64
1, 65430, Note_off_c, 0, 71, 64
1, 65506, Note_on_c, 0, 71, 54
1, 65530, Note_on_c, 0, 65, 43
1, 65532, Note_on_c, 0, 63, 32
1, 65538, Note_on_c, 0, 56, 27
1, 65596, Control_c, 0, 64, 0
1, 65792, Note_off_c, 0, 63, 64
1, 65795, Control_c, 0, 64, 127
1, 65860, Note_off_c, 0, 56, 64
1, 66012, Note_on_c, 0, 70, 66
1, 66022, Note_on_c, 0, 66, 41
1, 66042, Note_off_c, 0, 71, 64
1, 66048, Note_off_c, 0, 65, 64
1, 66058, Control_c, 0, 64, 0
1, 66060, Note_on_c, 0, 61, 30
1, 66068, Note_on_c, 0, 58, 19
1, 66198, Note_off_c, 0, 49, 64
1, 66226, Control_c, 0, 64, 127
1, 66308, Note_off_c, 0, 70, 64
1, 66320, Note_off_c, 0, 58, 64
1, 66362, Note_off_c, 0, 61, 64
1, 66398, Note_on_c, 0, 68, 70
1, 66426, Note_on_c, 0, 49, 48
1, 66442, Control_c, 0, 64, 0
1, 66612, Control_c, 0, 64, 127
1, 66668, Note_off_c, 0, 68, 64
1, 66706, Note_on_c, 0, 75, 66
1, 66752, Note_off_c, 0, 66, 64
1, 66796, Note_on_c, 0, 68, 80
1, 66804, Note_on_c, 0, 63, 50
1, 66806, Note_on_c, 0, 65, 49
1, 66810, Control_c, 0, 64, 0
1, 66832, Note_on_c, 0, 59, 42
1, 66844, Note_off_c, 0, 75, 64
1, 67026, Control_c, 0, 64, 127
1, 67034, Note_off_c, 0, 59, 64
1, 67068, Note_off_c, 0, 63, 64
1, 67194, Note_on_c, 0, 70, 72
1, 67202, Note_on_c, 0, 66, 53
1, 67216, Note_on_c, 0, 61, 48
1, 67219, Note_on_c, 0, 58, 35
1, 67226, Control_c, 0, 64, 0
1, 67228, Note_off_c, 0, 68, 64
1, 67234, Note_off_c, 0, 65, 64
1, 67394, Control_c, 0, 64, 127
1, 67404, Note_off_c, 0, 61, 64
1, 67416, Note_off_c, 0, 70, 64
1, 67480, Note_off_c, 0, 58, 64
1, 67496, Note_on_c, 0, 68, 45
1, 67532, Note_off_c, 0, 66, 64
1, 67552, Note_off_c, 0, 68, 64
1, 67555, Note_on_c, 0, 70, 71
1, 67592, Note_on_c, 0, 63, 57
1, 67595, Control_c, 0, 64, 0
1, 67608, Note_on_c, 0, 68, 70
1, 67608, Note_on_c, 0, 59, 30
1, 67622, Note_on_c, 0, 54, 52
1, 67668, Note_off_c, 0, 70, 64
1, 67780, Note_off_c, 0, 59, 64
1, 67794, Control_c, 0, 64, 127
1, 67812, Note_off_c, 0, 54, 64
1, 67836, Note_off_c, 0, 49, 64
1, 67839, Note_off_c, 0, 63, 64
1, 67934, Note_on_c, 0, 67, 66
1, 67944, Note_off_c, 0, 68, 64
1, 67980, Note_off_c, 0, 67, 64
1, 68072, Note_on_c, 0, 68, 65
1, 68072, Note_on_c, 0, 49, 34
1, 68075, Note_on_c, 0, 59, 67
1, 68092, Note_on_c, 0, 53, 55
1, 68098, Note_on_c, 0, 61, 45
1, 68116, Control_c, 0, 64, 0
1, 68332, Control_c, 0, 64, 127
1, 68440, Note_off_c, 0, 53, 64
1, 68480, Note_off_c, 0, 59, 64
1, 68694, Note_on_c, 0, 54, 29
1, 68702, Note_on_c, 0, 42, 29
1, 68710, Note_on_c, 0, 58, 53
1, 68748, Note_on_c, 0, 66, 48
1, 68836, Note_off_c, 0, 68, 64
1, 68854, Control_c, 0, 64, 0
1, 69068, Note_off_c, 0, 54, 64
1, 69084, Control_c, 0, 64, 127
1, 69098, Note_off_c, 0, 49, 64
1, 69128, Note_off_c, 0, 61, 64
1, 69130, Note_off_c, 0, 58, 64
1, 69138, Note_off_c, 0, 42, 64
1, 69212, Note_off_c, 0, 66, 64
1, 69254, Note_on_c, 0, 37, 65
1, 69300, Control_c, 0, 64, 0
1, 69440, Note_off_c, 0, 37, 64
1, 69454, Control_c, 0, 64, 127
1, 69588, Note_on_c, 0, 68, 70
1, 69634, Note_off_c, 0, 68, 64
1, 69700, Note_on_c, 0, 68, 70
1, 69710, Note_on_c, 0, 65, 64
1, 69716, Note_on_c, 0, 63, 56
1, 69732, Note_on_c, 0, 59, 46
1, 69990, Note_off_c, 0, 63, 64
1, 70012, Note_off_c, 0, 65, 64
1, 70120, Note_on_c, 0, 70, 73
1, 70128, Note_on_c, 0, 66, 54
1, 70144, Note_on_c, 0, 61, 50
1, 70152, Note_on_c, 0, 58, 28
1, 70156, Note_off_c, 0, 59, 64
1, 70170, Note_off_c, 0, 68, 64
1, 70236, Control_c, 0, 64, 0
1, 70328, Control_c, 0, 64, 127
1, 70500, Note_off_c, 0, 66, 64
1, 70518, Note_off_c, 0, 61, 64
1, 70520, Note_on_c, 0, 73, 71
1, 70530, Control_c, 0, 64, 0
1, 70530, Note_on_c, 0, 49, 55
1, 70548, Note_off_c, 0, 58, 64
1, 70574, Note_off_c, 0, 70, 64
1, 70728, Control_c, 0, 64, 127
1, 70850, Note_on_c, 0, 71, 68
1, 70852, Note_off_c, 0, 73, 64
1, 70892, Note_off_c, 0, 71, 64
1, 70956, Note_on_c, 0, 71, 74
1, 70968, Note_on_c, 0, 61, 37
1, 70980, Note_on_c, 0, 65, 55
1, 70983, Note_on_c, 0, 56, 43
1, 71128, Control_c, 0, 64, 0
1, 71266, Control_c, 0, 64, 127
1, 71342, Note_on_c, 0, 70, 75
1, 71345, Note_off_c, 0, 56, 64
1, 71349, Note_on_c, 0, 66, 53
1, 71364, Note_on_c, 0, 54, 59
1, 71386, Note_off_c, 0, 65, 64
1, 71388, Note_off_c, 0, 71, 64
1, 71404, Note_off_c, 0, 49, 64
1, 71404, Control_c, 0, 64, 0
1, 71558, Control_c, 0, 64, 127
1, 71630, Note_off_c, 0, 54, 64
1, 71676, Note_off_c, 0, 70, 64
1, 71722, Note_on_c, 0, 75, 84
1, 71736, Note_off_c, 0, 61, 64
1, 71740, Note_on_c, 0, 51, 73
1, 71898, Note_off_c, 0, 66, 64
1, 72008, Note_off_c, 0, 75, 64
1, 72034, Note_on_c, 0, 73, 74
1, 72076, Note_off_c, 0, 73, 64
1, 72156, Note_on_c, 0, 73, 73
1, 72164, Note_on_c, 0, 63, 48
1, 72170, Note_on_c, 0, 67, 74
1, 72180, Note_on_c, 0, 58, 43
1, 72250, Control_c, 0, 64, 0
1, 72466, Control_c, 0, 64, 127
1, 72582, Note_on_c, 0, 68, 59
1, 72584, Note_on_c, 0, 71, 91
1, 72586, Note_off_c, 0, 58, 64
1, 72594, Note_on_c, 0, 56, 64
1, 72644, Note_off_c, 0, 67, 64
1, 72676, Note_off_c, 0, 73, 64
1, 72696, Control_c, 0, 64, 0
1, 72864, Control_c, 0, 64, 127
1, 72984, Note_off_c, 0, 51, 64
1, 73094, Note_on_c, 0, 76, 82
1, 73118, Note_on_c, 0, 52, 76
1, 73182, Note_off_c, 0, 56, 64
1, 73192, Note_off_c, 0, 71, 64
1, 73294, Control_c, 0, 64, 0
1, 73392, Note_off_c, 0, 63, 64
1, 73494, Control_c, 0, 64, 127
1, 73640, Note_on_c, 0, 74, 93
1, 73704, Note_off_c, 0, 76, 64
1, 73724, Note_off_c, 0, 68, 64
1, 73758, Note_off_c, 0, 74, 64
1, 73848, Note_on_c, 0, 74, 81
1, 73862, Note_on_c, 0, 64, 46
1, 73880, Note_on_c, 0, 68, 48
1, 73884, Note_on_c, 0, 59, 32
1, 74228, Note_off_c, 0, 59, 64
1, 74230, Note_off_c, 0, 68, 64
1, 74232, Note_off_c, 0, 64, 64
1, 74414, Note_on_c, 0, 68, 79
1, 74436, Note_on_c, 0, 64, 67
1, 74444, Note_on_c, 0, 59, 58
1, 74562, Note_off_c, 0, 64, 64
1, 74662, Note_off_c, 0, 59, 64
1, 74724, Note_off_c, 0, 52, 64
1, 74954, Note_on_c, 0, 67, 87
1, 74980, Note_on_c, 0, 45, 57
1, 75060, Note_off_c, 0, 68, 64
1, 75108, Control_c, 0, 64, 0
1, 75308, Control_c, 0, 64, 127
1, 75354, Note_off_c, 0, 45, 64
1, 75432, Note_off_c, 0, 67, 64
1, 75580, Note_on_c, 0, 73, 88
1, 75594, Note_on_c, 0, 67, 66
1, 75594, Note_on_c, 0, 64, 70
1, 75624, Note_on_c, 0, 57, 19
1, 75658, Note_off_c, 0, 74, 64
1, 75994, Note_off_c, 0, 67, 64
1, 76016, Note_off_c, 0, 57, 64
1, 76019, Note_off_c, 0, 64, 64
1, 76186, Note_on_c, 0, 63, 64
1, 76188, Note_on_c, 0, 67, 65
1, 76194, Note_on_c, 0, 57, 44
1, 76376, Note_off_c, 0, 67, 64
1, 76406, Note_off_c, 0, 63, 64
1, 76412, Note_off_c, 0, 57, 64
1, 76462, Note_on_c, 0, 75, 82
1, 76536, Note_off_c, 0, 73, 64
1, 76702, Note_on_c, 0, 44, 62
1, 76758, Note_on_c, 0, 73, 86
1, 76838, Note_off_c, 0, 75, 64
1, 76874, Control_c, 0, 64, 0
1, 77028, Control_c, 0, 64, 127
1, 77032, Note_off_c, 0, 44, 64
1, 77170, Note_on_c, 0, 72, 78
1, 77234, Note_off_c, 0, 73, 64
1, 77302, Note_on_c, 0, 75, 84
1, 77308, Note_on_c, 0, 63, 43
1, 77308, Note_on_c, 0, 66, 36
1, 77324, Note_on_c, 0, 56, 32
1, 77354, Note_off_c, 0, 72, 64
1, 77536, Control_c, 0, 64, 0
1, 77704, Control_c, 0, 64, 127
1, 77736, Note_off_c, 0, 66, 64
1, 77742, Note_off_c, 0, 56, 64
1, 77932, Note_on_c, 0, 56, 26
1, 77994, Note_on_c, 0, 61, 24
1, 78012, Note_on_c, 0, 71, 81
1, 78052, Note_on_c, 0, 66, 22
1, 78062, Note_off_c, 0, 63, 64
1, 78146, Note_off_c, 0, 75, 64
1, 78182, Control_c, 0, 64, 0
1, 78310, Note_on_c, 0, 69, 76
1, 78320, Control_c, 0, 64, 127
1, 78388, Note_off_c, 0, 71, 64
1, 78488, Note_off_c, 0, 66, 64
1, 78532, Note_off_c, 0, 56, 64
1, 78578, Note_on_c, 0, 68, 76
1, 78602, Note_off_c, 0, 61, 64
1, 78648, Note_off_c, 0, 69, 64
1, 78810, Control_c, 0, 64, 0
1, 78964, Control_c, 0, 64, 127
1, 79048, Note_on_c, 0, 66, 21
1, 79060, Note_on_c, 0, 56, 22
1, 79074, Note_on_c, 0, 60, 14
1, 79100, Note_on_c, 0, 75, 64
1, 79188, Note_off_c, 0, 68, 64
1, 79272, Control_c, 0, 64, 0
1, 79410, Control_c, 0, 64, 127
1, 79432, Note_off_c, 0, 66, 64
1, 79446, Note_off_c, 0, 60, 64
1, 79456, Note_off_c, 0, 56, 64
1, 79610, Note_on_c, 0, 66, 37
1, 79628, Note_on_c, 0, 56, 29
1, 79652, Note_on_c, 0, 60, 20
1, 79756, Note_off_c, 0, 60, 64
1, 79774, Note_off_c, 0, 66, 64
1, 79826, Note_off_c, 0, 56, 64
1, 79864, Note_on_c, 0, 76, 63
1, 79906, Note_off_c, 0, 75, 64
1, 80104, Note_on_c, 0, 75, 62
1, 80124, Note_on_c, 0, 49, 36
1, 80132, Control_c, 0, 64, 0
1, 80180, Note_off_c, 0, 76, 64
1, 80302, Control_c, 0, 64, 127
1, 80305, Note_off_c, 0, 49, 64
1, 80476, Note_on_c, 0, 73, 55
1, 80556, Note_off_c, 0, 75, 64
1, 80622, Note_on_c, 0, 56, 26
1, 80624, Note_on_c, 0, 76, 63
1, 80630, Note_on_c, 0, 64, 34
1, 80636, Note_on_c, 0, 61, 24
1, 80686, Note_off_c, 0, 73, 64
1, 80854, Control_c, 0, 64, 0
1, 80976, Control_c, 0, 64, 127
1, 80981, Note_off_c, 0, 64, 64
1, 81040, Note_on_c, 0, 71, 87
1, 81094, Note_off_c, 0, 61, 64
1, 81130, Note_off_c, 0, 76, 64
1, 81146, Note_off_c, 0, 56, 64
1, 81296, Note_on_c, 0, 69, 76
1, 81370, Note_off_c, 0, 71, 64
1, 81584, Note_on_c, 0, 68, 81
1, 81594, Note_on_c, 0, 40, 71
1, 81626, Note_off_c, 0, 69, 64
1, 81668, Control_c, 0, 64, 0
1, 81818, Note_off_c, 0, 40, 64
1, 81822, Control_c, 0, 64, 127
1, 82086, Note_on_c, 0, 80, 88
1, 82089, Note_on_c, 0, 61, 52
1, 82096, Note_on_c, 0, 49, 55
1, 82106, Note_on_c, 0, 56, 49
1, 82174, Note_off_c, 0, 68, 64
1, 82386, Note_off_c, 0, 49, 64
1, 82402, Note_off_c, 0, 61, 64
1, 82448, Note_off_c, 0, 56, 64
1, 82600, Note_on_c, 0, 61, 59
1, 82614, Note_on_c, 0, 56, 43
1, 82622, Note_on_c, 0, 49, 52
1, 82746, Note_off_c, 0, 61, 64
1, 82814, Note_off_c, 0, 56, 64
1, 82846, Note_on_c, 0, 81, 91
1, 82866, Note_off_c, 0, 49, 64
1, 82910, Note_off_c, 0, 80, 64
1, 83108, Note_on_c, 0, 39, 75
1, 83124, Note_on_c, 0, 80, 89
1, 83220, Control_c, 0, 64, 0
1, 83228, Note_off_c, 0, 81, 64
1, 83374, Control_c, 0, 64, 127
1, 83390, Note_on_c, 0, 79, 94
1, 83398, Note_off_c, 0, 39, 64
1, 83454, Note_off_c, 0, 80, 64
1, 83630, Note_on_c, 0, 58, 37
1, 83633, Note_on_c, 0, 61, 32
1, 83684, Note_on_c, 0, 51, 13
1, 83734, Note_on_c, 0, 75, 85
1, 83824, Note_off_c, 0, 79, 64
1, 83912, Control_c, 0, 64, 0
1, 84004, Control_c, 0, 64, 127
1, 84014, Note_off_c, 0, 61, 64
1, 84050, Note_off_c, 0, 51, 64
1, 84140, Note_off_c, 0, 58, 64
1, 84196, Note_on_c, 0, 61, 70
1, 84212, Note_on_c, 0, 51, 49
1, 84224, Note_on_c, 0, 55, 48
1, 84338, Note_off_c, 0, 55, 64
1, 84344, Note_off_c, 0, 61, 64
1, 84406, Note_off_c, 0, 51, 64
1, 84432, Note_on_c, 0, 76, 89
1, 84460, Note_off_c, 0, 75, 64
1, 84664, Control_c, 0, 64, 0
1, 84672, Note_on_c, 0, 78, 89
1, 84684, Note_on_c, 0, 44, 61
1, 84748, Note_off_c, 0, 76, 64
1, 84880, Control_c, 0, 64, 127
1, 84910, Note_off_c, 0, 44, 64
1, 85142, Note_on_c, 0, 80, 75
1, 85158, Note_on_c, 0, 56, 32
1, 85168, Note_on_c, 0, 60, 40
1, 85192, Note_on_c, 0, 51, 27
1, 85218, Note_off_c, 0, 78, 64
1, 85402, Control_c, 0, 64, 0
1, 85454, Note_off_c, 0, 56, 64
1, 85480, Note_off_c, 0, 60, 64
1, 85502, Note_off_c, 0, 51, 64
1, 85526, Control_c, 0, 64, 127
1, 85772, Note_on_c, 0, 66, 18
1, 85780, Note_on_c, 0, 56, 29
1, 85830, Note_on_c, 0, 60, 20
1, 85894, Note_off_c, 0, 66, 64
1, 85920, Note_off_c, 0, 60, 64
1, 85938, Note_off_c, 0, 56, 64
1, 86104, Note_on_c, 0, 78, 59
1, 86208, Note_off_c, 0, 80, 64
1, 86468, Note_on_c, 0, 37, 26
1, 86470, Note_on_c, 0, 76, 50
1, 86478, Control_c, 0, 64, 0
1, 86516, Note_off_c, 0, 78, 64
1, 86646, Control_c, 0, 64, 127
1, 86652, Note_off_c, 0, 37, 64
1, 86780, Note_on_c, 0, 75, 51
1, 86838, Note_off_c, 0, 76, 64
1, 87070, Note_on_c, 0, 73, 50
1, 87098, Note_on_c, 0, 56, 24
1, 87104, Note_on_c, 0, 64, 24
1, 87111, Note_on_c, 0, 61, 20
1, 87128, Note_off_c, 0, 75, 64
1, 87256, Note_off_c, 0, 64, 64
1, 87256, Note_off_c, 0, 61, 64
1, 87368, Note_off_c, 0, 56, 64
1, 87556, Note_on_c, 0, 71, 48
1, 87566, Note_on_c, 0, 55, 16
1, 87570, Control_c, 0, 64, 0
1, 87586, Note_on_c, 0, 61, 17
1, 87590, Note_on_c, 0, 64, 23
1, 87598, Note_off_c, 0, 73, 64
1, 87708, Control_c, 0, 64, 127
1, 87724, Note_off_c, 0, 64, 64
1, 87772, Note_off_c, 0, 55, 64
1, 87772, Note_off_c, 0, 61, 64
1, 87822, Note_on_c, 0, 69, 35
1, 87868, Note_off_c, 0, 71, 64
1, 88106, Note_on_c, 0, 68, 31
1, 88106, Control_c, 0, 64, 0
1, 88126, Note_on_c, 0, 49, 22
1, 88136, Note_off_c, 0, 69, 64
1, 88352, Control_c, 0, 64, 127
1, 88392, Note_off_c, 0, 49, 64
1, 88656, Note_off_c, 0, 68, 64
1, 88728, Note_on_c, 0, 73, 35
1, 88755, Note_on_c, 0, 64, 29
1, 88768, Note_on_c, 0, 56, 21
1, 88786, Note_on_c, 0, 61, 15
1, 88962, Note_off_c, 0, 64, 64
1, 89014, Note_off_c, 0, 61, 64
1, 89024, Note_off_c, 0, 56, 64
1, 89276, Note_on_c, 0, 56, 26
1, 89280, Note_on_c, 0, 64, 34
1, 89290, Control_c, 0, 64, 0
1, 89290, Note_on_c, 0, 61, 18
1, 89398, Control_c, 0, 64, 127
1, 89456, Note_off_c, 0, 64, 64
1, 89498, Note_off_c, 0, 56, 64
1, 89508, Note_off_c, 0, 61, 64
1, 89524, Note_on_c, 0, 75, 52
1, 89536, Note_off_c, 0, 73, 64
1, 89750, Control_c, 0, 64, 0
1, 89752, Note_on_c, 0, 73, 52
1, 89788, Note_on_c, 0, 51, 29
1, 89796, Note_off_c, 0, 75, 64
1, 89934, Control_c, 0, 64, 127
1, 89996, Note_off_c, 0, 51, 64
1, 90006, Note_on_c, 0, 72, 56
1, 90084, Note_off_c, 0, 73, 64
1, 90242, Control_c, 0, 64, 0
1, 90244, Note_on_c, 0, 66, 16
1, 90252, Note_on_c, 0, 75, 42
1, 90264, Note_off_c, 0, 72, 64
1, 90276, Note_on_c, 0, 56, 13
1, 90298, Note_on_c, 0, 60, 20
1, 90474, Control_c, 0, 64, 127
1, 90548, Note_off_c, 0, 66, 64
1, 90580, Note_off_c, 0, 60, 64
1, 90586, Note_off_c, 0, 56, 64
1, 90734, Note_on_c, 0, 71, 55
1, 90774, Note_on_c, 0, 66, 22
1, 90786, Note_on_c, 0, 56, 15
1, 90794, Note_on_c, 0, 60, 12
1, 90810, Note_off_c, 0, 75, 64
1, 90886, Note_off_c, 0, 66, 64
1, 90900, Note_off_c, 0, 60, 64
1, 90942, Note_off_c, 0, 56, 64
1, 90980, Note_on_c, 0, 69, 52
1, 91040, Note_off_c, 0, 71, 64
1, 91256, Note_on_c, 0, 48, 43
1, 91256, Note_on_c, 0, 68, 55
1, 91270, Note_off_c, 0, 69, 64
1, 91318, Control_c, 0, 64, 0
1, 91532, Control_c, 0, 64, 127
1, 91564, Note_off_c, 0, 48, 64
1, 91646, Note_off_c, 0, 68, 64
1, 91750, Note_on_c, 0, 66, 41
1, 91752, Note_on_c, 0, 75, 72
1, 91772, Note_on_c, 0, 63, 41
1, 91786, Note_on_c, 0, 56, 21
1, 91892, Note_off_c, 0, 56, 64
1, 91912, Note_off_c, 0, 63, 64
1, 91982, Note_off_c, 0, 66, 64
1, 92208, Note_on_c, 0, 66, 32
1, 92224, Note_on_c, 0, 56, 27
1, 92240, Note_on_c, 0, 63, 33
1, 92322, Note_off_c, 0, 63, 64
1, 92348, Note_off_c, 0, 66, 64
1, 92404, Note_off_c, 0, 56, 64
1, 92526, Note_on_c, 0, 76, 78
1, 92582, Note_off_c, 0, 75, 64
1, 92812, Note_on_c, 0, 75, 78
1, 92828, Note_on_c, 0, 47, 65
1, 92840, Control_c, 0, 64, 0
1, 92878, Note_off_c, 0, 76, 64
1, 93022, Note_off_c, 0, 47, 64
1, 93024, Control_c, 0, 64, 127
1, 93192, Note_on_c, 0, 73, 71
1, 93292, Note_off_c, 0, 75, 64
1, 93310, Note_on_c, 0, 68, 43
1, 93310, Note_on_c, 0, 56, 38
1, 93313, Note_on_c, 0, 77, 88
1, 93326, Note_on_c, 0, 61, 36
1, 93364, Note_off_c, 0, 73, 64
1, 93552, Note_off_c, 0, 68, 64
1, 93618, Note_off_c, 0, 61, 64
1, 93660, Note_off_c, 0, 56, 64
1, 93764, Note_on_c, 0, 61, 62
1, 93767, Note_on_c, 0, 56, 54
1, 93924, Note_off_c, 0, 56, 64
1, 93926, Note_off_c, 0, 61, 64
1, 94200, Note_on_c, 0, 75, 83
1, 94208, Note_on_c, 0, 46, 70
1, 94222, Control_c, 0, 64, 0
1, 94250, Note_off_c, 0, 77, 64
1, 94390, Control_c, 0, 64, 127
1, 94412, Note_off_c, 0, 46, 64
1, 94453, Note_on_c, 0, 73, 79
1, 94544, Note_off_c, 0, 75, 64
1, 94664, Note_on_c, 0, 78, 88
1, 94682, Note_on_c, 0, 66, 64
1, 94692, Note_on_c, 0, 61, 60
1, 94696, Note_on_c, 0, 54, 68
1, 94742, Note_off_c, 0, 73, 64
1, 94760, Note_off_c, 0, 66, 64
1, 94798, Note_off_c, 0, 61, 64
1, 94826, Note_off_c, 0, 54, 64
1, 95092, Note_on_c, 0, 75, 90
1, 95106, Note_on_c, 0, 45, 85
1, 95128, Control_c, 0, 64, 0
1, 95142, Note_off_c, 0, 78, 64
1, 95294, Note_off_c, 0, 45, 64
1, 95298, Control_c, 0, 64, 127
1, 95336, Note_on_c, 0, 73, 89
1, 95424, Note_off_c, 0, 75, 64
1, 95558, Note_on_c, 0, 79, 105
1, 95568, Note_on_c, 0, 67, 88
1, 95574, Note_on_c, 0, 61, 72
1, 95584, Note_on_c, 0, 52, 72
1, 95586, Note_on_c, 0, 57, 63
1, 95642, Note_off_c, 0, 73, 64
1, 95744, Control_c, 0, 64, 0
1, 95866, Control_c, 0, 64, 127
1, 95942, Note_off_c, 0, 67, 64
1, 95954, Note_on_c, 0, 75, 88
1, 96028, Note_off_c, 0, 79, 64
1, 96050, Note_off_c, 0, 61, 64
1, 96198, Note_off_c, 0, 57, 64
1, 96204, Note_off_c, 0, 52, 64
1, 96214, Note_on_c, 0, 73, 88
1, 96246, Note_off_c, 0, 75, 64
1, 96584, Note_on_c, 0, 85, 80
1, 96624, Note_off_c, 0, 73, 64
1, 96726, Control_c, 0, 64, 0
1, 96972, Control_c, 0, 64, 127
1, 97056, Note_off_c, 0, 85, 64
1, 97342, Control_c, 0, 64, 0
1, 97976, Note_on_c, 0, 44, 33
1, 97980, Note_on_c, 0, 68, 44
1, 98136, Note_off_c, 0, 44, 64
1, 98146, Control_c, 0, 64, 127
1, 98216, Note_off_c, 0, 68, 64
1, 98282, Note_on_c, 0, 69, 41
1, 98340, Note_off_c, 0, 69, 64
1, 98396, Note_on_c, 0, 68, 44
1, 98442, Note_off_c, 0, 68, 64
1, 98442, Note_on_c, 0, 69, 39
1, 98504, Note_on_c, 0, 68, 61
1, 98510, Note_on_c, 0, 56, 28
1, 98520, Note_on_c, 0, 61, 33
1, 98523, Note_on_c, 0, 64, 24
1, 98576, Control_c, 0, 64, 0
1, 98594, Note_off_c, 0, 69, 64
1, 98720, Note_off_c, 0, 56, 64
1, 98722, Note_off_c, 0, 64, 64
1, 98730, Note_on_c, 0, 67, 77
1, 98746, Control_c, 0, 64, 127
1, 98760, Note_off_c, 0, 61, 64
1, 98778, Note_off_c, 0, 68, 64
1, 98916, Control_c, 0, 64, 0
1, 98938, Note_on_c, 0, 68, 66
1, 98956, Note_on_c, 0, 60, 39
1, 98966, Note_on_c, 0, 56, 25
1, 98990, Note_on_c, 0, 54, 36
1, 99000, Note_off_c, 0, 67, 64
1, 99098, Control_c, 0, 64, 127
1, 99108, Note_off_c, 0, 60, 64
1, 99134, Note_off_c, 0, 56, 64
1, 99150, Note_off_c, 0, 54, 64
1, 99182, Note_on_c, 0, 76, 64
1, 99198, Note_off_c, 0, 68, 64
1, 99438, Control_c, 0, 64, 0
1, 99468, Note_on_c, 0, 73, 55
1, 99470, Note_on_c, 0, 68, 54
1, 99484, Note_off_c, 0, 76, 64
1, 99484, Note_on_c, 0, 37, 29
1, 99634, Note_off_c, 0, 37, 64
1, 99652, Control_c, 0, 64, 127
1, 99732, Note_off_c, 0, 73, 64
1, 99782, Note_on_c, 0, 61, 49
1, 99834, Note_off_c, 0, 68, 64
1, 100118, Note_off_c, 0, 61, 64
1, 100134, Note_on_c, 0, 73, 48
1, 100140, Note_on_c, 0, 56, 16
1, 100150, Note_on_c, 0, 64, 20
1, 100324, Note_off_c, 0, 64, 64
1, 100390, Note_off_c, 0, 56, 64
1, 100648, Note_on_c, 0, 56, 23
1, 100670, Note_on_c, 0, 64, 24
1, 100884, Note_off_c, 0, 64, 64
1, 100964, Note_off_c, 0, 56, 64
1, 101020, Note_off_c, 0, 73, 64
1, 101294, Note_on_c, 0, 52, 41
1, 101313, Control_c, 0, 64, 0
1, 101466, Control_c, 0, 64, 127
1, 101520, Note_off_c, 0, 52, 64
1, 101822, Note_on_c, 0, 80, 65
1, 101844, Note_on_c, 0, 68, 20
1, 101854, Note_on_c, 0, 61, 23
1, 101864, Note_on_c, 0, 56, 14
1, 101972, Note_off_c, 0, 56, 64
1, 101996, Note_off_c, 0, 68, 64
1, 102030, Note_off_c, 0, 61, 64
1, 102314, Note_on_c, 0, 68, 34
1, 102328, Note_on_c, 0, 56, 26
1, 102350, Note_on_c, 0, 61, 28
1, 102422, Note_off_c, 0, 68, 64
1, 102456, Note_off_c, 0, 61, 64
1, 102498, Note_off_c, 0, 56, 64
1, 102538, Note_on_c, 0, 81, 80
1, 102604, Note_off_c, 0, 80, 64
1, 102794, Note_on_c, 0, 80, 78
1, 102818, Note_on_c, 0, 51, 32
1, 102846, Note_off_c, 0, 81, 64
1, 103044, Note_on_c, 0, 79, 82
1, 103088, Note_off_c, 0, 80, 64
1, 103182, Note_on_c, 0, 58, 17
1, 103300, Note_on_c, 0, 61, 22
1, 103324, Control_c, 0, 64, 0
1, 103348, Note_on_c, 0, 68, 61
1, 103358, Note_on_c, 0, 75, 48
1, 103374, Note_off_c, 0, 79, 64
1, 103550, Note_off_c, 0, 58, 64
1, 103555, Control_c, 0, 64, 127
1, 103560, Note_off_c, 0, 61, 64
1, 103690, Note_off_c, 0, 68, 64
1, 103696, Note_on_c, 0, 67, 55
1, 103768, Note_off_c, 0, 67, 64
1, 103886, Note_on_c, 0, 58, 9
1, 103988, Note_on_c, 0, 61, 20
1, 104016, Control_c, 0, 64, 0
1, 104032, Note_on_c, 0, 63, 56
1, 104186, Note_off_c, 0, 58, 64
1, 104196, Note_off_c, 0, 61, 64
1, 104216, Control_c, 0, 64, 127
1, 104242, Note_off_c, 0, 51, 64
1, 104376, Note_off_c, 0, 63, 64
1, 104520, Note_on_c, 0, 78, 57
1, 104538, Control_c, 0, 64, 0
1, 104544, Note_on_c, 0, 44, 29
1, 104568, Note_off_c, 0, 75, 64
1, 104736, Note_off_c, 0, 44, 64
1, 104738, Control_c, 0, 64, 127
1, 105022, Note_on_c, 0, 80, 64
1, 105024, Note_on_c, 0, 66, 30
1, 105072, Note_on_c, 0, 56, 10
1, 105075, Note_off_c, 0, 78, 64
1, 105078, Note_on_c, 0, 60, 9
1, 105112, Note_on_c, 0, 51, 7
1, 105168, Control_c, 0, 64, 0
1, 105258, Note_off_c, 0, 60, 64
1, 105306, Control_c, 0, 64, 127
1, 105340, Note_off_c, 0, 56, 64
1, 105367, Note_off_c, 0, 51, 64
1, 105408, Note_off_c, 0, 66, 64
1, 105634, Note_on_c, 0, 68, 50
1, 105684, Note_on_c, 0, 56, 11
1, 105690, Note_on_c, 0, 60, 8
1, 105712, Note_on_c, 0, 51, 6
1, 105862, Note_off_c, 0, 80, 64
1, 105896, Note_off_c, 0, 60, 64
1, 105918, Note_on_c, 0, 78, 54
1, 105952, Note_off_c, 0, 56, 64
1, 105954, Note_off_c, 0, 51, 64
1, 105968, Note_off_c, 0, 78, 64
1, 106182, Note_on_c, 0, 76, 52
1, 106197, Note_on_c, 0, 49, 22
1, 106234, Note_off_c, 0, 76, 64
1, 106406, Note_on_c, 0, 75, 48
1, 106426, Note_on_c, 0, 66, 38
1, 106430, Note_off_c, 0, 68, 64
1, 106588, Note_off_c, 0, 66, 64
1, 106648, Note_on_c, 0, 73, 40
1, 106660, Note_on_c, 0, 64, 52
1, 106664, Note_off_c, 0, 75, 64
1, 106670, Note_on_c, 0, 56, 31
1, 106702, Note_off_c, 0, 73, 64
1, 106770, Note_off_c, 0, 56, 64
1, 106822, Note_off_c, 0, 49, 64
1, 106830, Note_off_c, 0, 64, 64
1, 106870, Note_on_c, 0, 63, 65
1, 107002, Note_off_c, 0, 63, 64
1, 107054, Note_on_c, 0, 55, 27
1, 107100, Note_on_c, 0, 71, 54
1, 107106, Note_on_c, 0, 61, 52
1, 107120, Control_c, 0, 64, 0
1, 107158, Note_on_c, 0, 64, 42
1, 107212, Note_off_c, 0, 64, 64
1, 107242, Control_c, 0, 64, 127
1, 107272, Note_off_c, 0, 55, 64
1, 107362, Note_on_c, 0, 69, 46
1, 107374, Note_off_c, 0, 71, 64
1, 107420, Note_off_c, 0, 69, 64
1, 107454, Note_off_c, 0, 61, 64
1, 107624, Note_on_c, 0, 68, 45
1, 107642, Control_c, 0, 64, 0
1, 107650, Note_on_c, 0, 37, 35
1, 107652, Note_on_c, 0, 59, 39
1, 107825, Control_c, 0, 64, 127
1, 107852, Note_off_c, 0, 59, 64
1, 107872, Note_off_c, 0, 37, 64
1, 107962, Note_on_c, 0, 57, 42
1, 108022, Note_off_c, 0, 57, 64
1, 108048, Note_off_c, 0, 68, 64
1, 108208, Note_on_c, 0, 56, 66
1, 108266, Note_off_c, 0, 56, 64
1, 108474, Note_on_c, 0, 73, 75
1, 108480, Note_on_c, 0, 56, 2
1, 108678, Note_on_c, 0, 64, 2
1, 108782, Note_off_c, 0, 64, 64
1, 108790, Note_off_c, 0, 56, 64
1, 108904, Note_on_c, 0, 56, 15
1, 108968, Note_on_c, 0, 61, 68
1, 108990, Note_on_c, 0, 64, 25
1, 109086, Control_c, 0, 64, 0
1, 109224, Control_c, 0, 64, 127
1, 109312, Note_on_c, 0, 75, 67
1, 109326, Note_off_c, 0, 64, 64
1, 109356, Note_off_c, 0, 56, 64
1, 109368, Note_off_c, 0, 73, 64
1, 109578, Control_c, 0, 64, 0
1, 109582, Note_on_c, 0, 51, 31
1, 109590, Note_on_c, 0, 73, 72
1, 109612, Note_off_c, 0, 75, 64
1, 109648, Note_off_c, 0, 61, 64
1, 109686, Control_c, 0, 64, 127
1, 109750, Note_off_c, 0, 73, 64
1, 109778, Note_off_c, 0, 51, 64
1, 109842, Note_on_c, 0, 63, 62
1, 109845, Note_on_c, 0, 72, 60
1, 109932, Note_off_c, 0, 63, 64
1, 109988, Note_on_c, 0, 56, 17
1, 110070, Note_on_c, 0, 61, 64
1, 110078, Note_on_c, 0, 75, 63
1, 110086, Control_c, 0, 64, 0
1, 110130, Note_on_c, 0, 66, 20
1, 110192, Control_c, 0, 64, 127
1, 110204, Note_off_c, 0, 66, 64
1, 110206, Note_off_c, 0, 72, 64
1, 110212, Note_off_c, 0, 75, 64
1, 110276, Note_off_c, 0, 61, 64
1, 110326, Note_on_c, 0, 60, 69
1, 110360, Note_off_c, 0, 56, 64
1, 110472, Note_off_c, 0, 60, 64
1, 110598, Note_on_c, 0, 63, 55
1, 110622, Control_c, 0, 64, 0
1, 110626, Note_on_c, 0, 71, 60
1, 110632, Note_on_c, 0, 66, 10
1, 110688, Note_on_c, 0, 56, 19
1, 110706, Note_on_c, 0, 60, 10
1, 110792, Note_off_c, 0, 66, 64
1, 110792, Control_c, 0, 64, 127
1, 110818, Note_off_c, 0, 60, 64
1, 110858, Note_off_c, 0, 56, 64
1, 110922, Note_off_c, 0, 71, 64
1, 110928, Note_on_c, 0, 69, 54
1, 111042, Note_off_c, 0, 69, 64
1, 111072, Note_off_c, 0, 63, 64
1, 111184, Note_on_c, 0, 68, 61
1, 111198, Note_on_c, 0, 59, 52
1, 111214, Note_on_c, 0, 48, 27
1, 111222, Control_c, 0, 64, 0
1, 111360, Control_c, 0, 64, 127
1, 111370, Note_off_c, 0, 59, 64
1, 111382, Note_off_c, 0, 48, 64
1, 111452, Note_on_c, 0, 57, 67
1, 111498, Note_off_c, 0, 57, 64
1, 111550, Note_off_c, 0, 68, 64
1, 111724, Note_on_c, 0, 66, 34
1, 111732, Note_on_c, 0, 56, 36
1, 111792, Note_on_c, 0, 75, 84
1, 112152, Note_off_c, 0, 56, 64
1, 112154, Note_off_c, 0, 66, 64
1, 112244, Note_on_c, 0, 66, 40
1, 112252, Note_on_c, 0, 56, 29
1, 112282, Control_c, 0, 64, 0
1, 112390, Control_c, 0, 64, 127
1, 112426, Note_off_c, 0, 66, 64
1, 112454, Note_off_c, 0, 56, 64
1, 112496, Note_on_c, 0, 76, 82
1, 112552, Note_off_c, 0, 75, 64
1, 112734, Note_on_c, 0, 75, 84
1, 112750, Note_on_c, 0, 47, 51
1, 112760, Control_c, 0, 64, 0
1, 112786, Note_off_c, 0, 76, 64
1, 112876, Note_off_c, 0, 47, 64
1, 112882, Control_c, 0, 64, 127
1, 112960, Note_off_c, 0, 75, 64
1, 112960, Note_on_c, 0, 73, 85
1, 113046, Note_off_c, 0, 73, 64
1, 113136, Note_on_c, 0, 56, 43
1, 113172, Note_on_c, 0, 61, 42
1, 113202, Note_on_c, 0, 77, 93
1, 113208, Note_on_c, 0, 87, 76
1, 113214, Note_on_c, 0, 68, 49
1, 113448, Note_on_c, 0, 85, 90
1, 113476, Note_off_c, 0, 87, 64
1, 113648, Note_off_c, 0, 68, 64
1, 113702, Note_off_c, 0, 85, 64
1, 113732, Note_on_c, 0, 89, 96
1, 113738, Note_off_c, 0, 61, 64
1, 113786, Note_off_c, 0, 56, 64
1, 113826, Note_off_c, 0, 89, 64
1, 113902, Note_off_c, 0, 77, 64
1, 114222, Note_on_c, 0, 75, 92
1, 114226, Note_on_c, 0, 46, 80
1, 114230, Note_on_c, 0, 34, 79
1, 114272, Control_c, 0, 64, 0
1, 114358, Note_off_c, 0, 34, 64
1, 114388, Control_c, 0, 64, 127
1, 114408, Note_off_c, 0, 46, 64
1, 114496, Note_on_c, 0, 73, 86
1, 114516, Note_off_c, 0, 75, 64
1, 114538, Note_off_c, 0, 73, 64
1, 114774, Note_on_c, 0, 78, 94
1, 114778, Note_on_c, 0, 87, 92
1, 114780, Note_on_c, 0, 66, 76
1, 114794, Note_on_c, 0, 61, 78
1, 114806, Note_on_c, 0, 54, 74
1, 114818, Note_off_c, 0, 66, 64
1, 114848, Note_off_c, 0, 61, 64
1, 114918, Note_off_c, 0, 54, 64
1, 114996, Note_on_c, 0, 85, 84
1, 115062, Note_off_c, 0, 87, 64
1, 115192, Note_off_c, 0, 85, 64
1, 115212, Note_off_c, 0, 78, 64
1, 115340, Note_on_c, 0, 90, 96
1, 115348, Note_on_c, 0, 45, 94
1, 115350, Note_on_c, 0, 33, 99
1, 115354, Note_on_c, 0, 75, 83
1, 115392, Note_on_c, 0, 43, 36
1, 115416, Control_c, 0, 64, 0
1, 115434, Note_off_c, 0, 90, 64
1, 115464, Note_off_c, 0, 43, 64
1, 115566, Note_off_c, 0, 33, 64
1, 115568, Note_off_c, 0, 75, 64
1, 115571, Control_c, 0, 64, 127
1, 115614, Note_off_c, 0, 45, 64
1, 115644, Note_on_c, 0, 73, 86
1, 115758, Note_off_c, 0, 73, 64
1, 115922, Note_on_c, 0, 57, 63
1, 115942, Note_on_c, 0, 61, 78
1, 115966, Note_on_c, 0, 67, 94
1, 115974, Note_on_c, 0, 87, 94
1, 115981, Note_on_c, 0, 79, 97
1, 116170, Note_off_c, 0, 57, 64
1, 116188, Note_off_c, 0, 67, 64
1, 116248, Note_off_c, 0, 61, 64
1, 116260, Note_off_c, 0, 87, 64
1, 116268, Note_on_c, 0, 85, 93
1, 116598, Note_on_c, 0, 75, 92
1, 116600, Note_on_c, 0, 91, 92
1, 116742, Note_off_c, 0, 85, 64
1, 116878, Note_off_c, 0, 75, 64
1, 116950, Note_on_c, 0, 73, 94
1, 117070, Note_off_c, 0, 73, 64
1, 117562, Note_on_c, 0, 97, 92
1, 117662, Note_off_c, 0, 97, 64
1, 118660, Note_off_c, 0, 79, 64
1, 118696, Note_off_c, 0, 91, 64
1, 118906, Control_c, 0, 64, 0
1, 119604, Note_on_c, 0, 56, 88
1, 119614, Note_on_c, 0, 44, 71
1, 119617, Note_on_c, 0, 32, 58
1, 119842, Control_c, 0, 64, 127
1, 119846, Note_off_c, 0, 32, 64
1, 119918, Note_off_c, 0, 44, 64
1, 120048, Note_on_c, 0, 57, 84
1, 120112, Note_off_c, 0, 56, 64
1, 120242, Note_off_c, 0, 57, 64
1, 120378, Note_on_c, 0, 56, 48
1, 120432, Note_off_c, 0, 56, 64
1, 120435, Note_on_c, 0, 57, 69
1, 120488, Note_on_c, 0, 56, 76
1, 120491, Note_on_c, 0, 61, 75
1, 120494, Note_on_c, 0, 52, 75
1, 120570, Note_off_c, 0, 57, 64
1, 120640, Note_off_c, 0, 52, 64
1, 120786, Note_off_c, 0, 61, 64
1, 120789, Note_on_c, 0, 55, 91
1, 120802, Note_off_c, 0, 56, 64
1, 121040, Control_c, 0, 64, 0
1, 121052, Note_on_c, 0, 54, 62
1, 121054, Note_on_c, 0, 60, 72
1, 121060, Note_on_c, 0, 56, 86
1, 121070, Note_off_c, 0, 55, 64
1, 121232, Note_off_c, 0, 60, 64
1, 121240, Control_c, 0, 64, 127
1, 121336, Note_off_c, 0, 54, 64
1, 121394, Note_on_c, 0, 64, 89
1, 121464, Note_off_c, 0, 56, 64
1, 121868, Note_on_c, 0, 37, 83
1, 121876, Note_on_c, 0, 61, 90
1, 121952, Note_off_c, 0, 64, 64
1, 121992, Control_c, 0, 64, 0
1, 122240, Control_c, 0, 64, 127
1, 122260, Note_off_c, 0, 37, 64
1, 122314, Note_off_c, 0, 61, 64
1, 122856, Note_on_c, 0, 49, 69
1, 123044, Note_on_c, 0, 61, 82
1, 123048, Note_on_c, 0, 73, 66
1, 123056, Note_on_c, 0, 64, 70
1, 123068, Note_off_c, 0, 49, 64
1, 125028, Note_off_c, 0, 73, 64
1, 125042, Note_off_c, 0, 64, 64
1, 125052, Note_off_c, 0, 61, 64
1, 125112, Control_c, 0, 64, 0
1, 126720, Control_c, 0, 64, 0
1, 126720, End_track
2, 0, Start_track
2, 1, Copyright_t, "\012__________________________________________________________\012Kunst der Fuge comment: this is the Contributor's property.\012Can *not* be used for commercial purposes without authorization!\012Copyright by Contributor - Kunst der Fuge,  2002-05\012http://www.kunstderfuge.com/thanks.htm -> Contributors' list\012http://www.kunstderfuge.com/notes.htm -> Terms & conditions"
2, 1, End_track
0, 0, End_of_file
