0, 0, Header, 0, 2, 384
1, 0, Start_track
1, 0, Title_t, "Chopin's Mazurkas (played by © Ron Lubetsky)"
1, 0, Time_signature, 4, 2, 96, 8
1, 0, Sequencer_specific, 3, 0, 0, 65
1, 0, Tempo, 500000
1, 960, Control_c, 0, 64, 127
1, 1068, Note_on_c, 0, 61, 64
1, 1368, Note_on_c, 0, 66, 74
1, 1372, Note_off_c, 0, 61, 64
1, 1372, Control_c, 0, 64, 0
1, 1380, Note_on_c, 0, 30, 64
1, 1448, Control_c, 0, 64, 127
1, 1736, Note_on_c, 0, 61, 33
1, 1744, Note_on_c, 0, 49, 26
1, 1760, Note_on_c, 0, 57, 33
1, 1808, Note_off_c, 0, 57, 64
1, 1816, Note_off_c, 0, 49, 64
1, 1820, Note_off_c, 0, 61, 64
1, 1848, Note_on_c, 0, 68, 67
1, 1852, Note_off_c, 0, 30, 64
1, 1872, Note_off_c, 0, 66, 64
1, 1944, Note_off_c, 0, 68, 64
1, 1972, Note_on_c, 0, 69, 72
1, 1984, Note_on_c, 0, 61, 40
1, 1988, Note_on_c, 0, 57, 54
1, 1988, Note_on_c, 0, 49, 54
1, 2024, Note_off_c, 0, 57, 64
1, 2032, Note_off_c, 0, 61, 64
1, 2056, Note_off_c, 0, 49, 64
1, 2084, Note_on_c, 0, 72, 67
1, 2120, Note_off_c, 0, 69, 64
1, 2216, Note_on_c, 0, 42, 80
1, 2220, Note_on_c, 0, 74, 60
1, 2232, Note_off_c, 0, 72, 64
1, 2288, Note_on_c, 0, 76, 69
1, 2312, Note_off_c, 0, 74, 64
1, 2372, Note_on_c, 0, 74, 75
1, 2388, Note_off_c, 0, 76, 64
1, 2408, Control_c, 0, 64, 0
1, 2432, Note_on_c, 0, 57, 60
1, 2436, Note_on_c, 0, 66, 66
1, 2440, Note_on_c, 0, 73, 86
1, 2448, Note_on_c, 0, 61, 60
1, 2456, Note_off_c, 0, 74, 64
1, 2496, Note_off_c, 0, 61, 64
1, 2500, Note_off_c, 0, 66, 64
1, 2500, Control_c, 0, 64, 127
1, 2516, Note_off_c, 0, 57, 64
1, 2660, Note_off_c, 0, 42, 64
1, 2732, Note_on_c, 0, 61, 62
1, 2732, Note_on_c, 0, 57, 66
1, 2736, Note_on_c, 0, 78, 78
1, 2744, Note_on_c, 0, 66, 43
1, 2760, Note_off_c, 0, 73, 64
1, 2848, Note_off_c, 0, 61, 64
1, 2848, Note_off_c, 0, 57, 64
1, 2896, Note_off_c, 0, 66, 64
1, 2972, Note_on_c, 0, 54, 47
1, 2976, Note_on_c, 0, 73, 73
1, 3008, Note_off_c, 0, 78, 64
1, 3056, Note_on_c, 0, 74, 62
1, 3064, Note_off_c, 0, 73, 64
1, 3120, Note_on_c, 0, 73, 69
1, 3148, Note_off_c, 0, 74, 64
1, 3168, Control_c, 0, 64, 0
1, 3184, Note_on_c, 0, 71, 73
1, 3196, Note_on_c, 0, 66, 67
1, 3196, Note_on_c, 0, 59, 62
1, 3200, Note_off_c, 0, 73, 64
1, 3212, Note_on_c, 0, 62, 58
1, 3244, Control_c, 0, 64, 127
1, 3248, Note_off_c, 0, 62, 64
1, 3256, Note_off_c, 0, 66, 64
1, 3256, Note_off_c, 0, 59, 64
1, 3468, Note_on_c, 0, 66, 55
1, 3472, Note_on_c, 0, 62, 58
1, 3476, Note_on_c, 0, 78, 69
1, 3488, Note_on_c, 0, 59, 54
1, 3512, Note_off_c, 0, 66, 64
1, 3512, Note_off_c, 0, 62, 64
1, 3520, Note_off_c, 0, 59, 64
1, 3556, Note_off_c, 0, 71, 64
1, 3564, Note_off_c, 0, 54, 64
1, 3696, Note_on_c, 0, 42, 69
1, 3708, Note_on_c, 0, 71, 67
1, 3728, Note_off_c, 0, 78, 64
1, 3776, Note_on_c, 0, 73, 73
1, 3800, Note_off_c, 0, 71, 64
1, 3840, Note_on_c, 0, 71, 59
1, 3872, Note_off_c, 0, 73, 64
1, 3912, Note_on_c, 0, 69, 64
1, 3924, Control_c, 0, 64, 0
1, 3936, Note_off_c, 0, 71, 64
1, 3940, Note_on_c, 0, 66, 69
1, 3940, Note_on_c, 0, 61, 51
1, 3948, Note_on_c, 0, 57, 29
1, 3956, Control_c, 0, 64, 127
1, 3992, Note_off_c, 0, 66, 64
1, 4008, Note_off_c, 0, 61, 64
1, 4020, Note_off_c, 0, 57, 64
1, 4152, Note_off_c, 0, 42, 64
1, 4160, Note_on_c, 0, 61, 51
1, 4160, Note_on_c, 0, 73, 69
1, 4176, Note_on_c, 0, 57, 62
1, 4176, Note_on_c, 0, 49, 58
1, 4224, Note_off_c, 0, 61, 64
1, 4236, Note_off_c, 0, 49, 64
1, 4240, Note_off_c, 0, 57, 64
1, 4244, Note_off_c, 0, 69, 64
1, 4408, Note_on_c, 0, 69, 62
1, 4412, Note_on_c, 0, 37, 78
1, 4424, Note_off_c, 0, 73, 64
1, 4424, Control_c, 0, 64, 0
1, 4448, Control_c, 0, 64, 127
1, 4480, Note_on_c, 0, 71, 62
1, 4488, Note_off_c, 0, 69, 64
1, 4544, Note_on_c, 0, 69, 64
1, 4564, Note_off_c, 0, 71, 64
1, 4604, Note_on_c, 0, 59, 65
1, 4604, Note_on_c, 0, 53, 54
1, 4616, Note_on_c, 0, 49, 58
1, 4620, Control_c, 0, 64, 0
1, 4632, Note_on_c, 0, 68, 69
1, 4636, Note_off_c, 0, 69, 64
1, 4664, Control_c, 0, 64, 127
1, 4676, Note_off_c, 0, 59, 64
1, 4684, Note_off_c, 0, 53, 64
1, 4684, Note_off_c, 0, 49, 64
1, 4852, Note_off_c, 0, 37, 64
1, 4892, Note_on_c, 0, 73, 69
1, 4904, Note_on_c, 0, 59, 67
1, 4904, Note_on_c, 0, 53, 47
1, 4904, Note_on_c, 0, 49, 47
1, 4940, Note_off_c, 0, 68, 64
1, 4964, Note_off_c, 0, 59, 64
1, 4972, Note_off_c, 0, 53, 64
1, 4984, Note_off_c, 0, 49, 64
1, 5116, Note_on_c, 0, 68, 78
1, 5124, Note_on_c, 0, 42, 74
1, 5148, Note_off_c, 0, 73, 64
1, 5192, Note_on_c, 0, 69, 62
1, 5200, Note_off_c, 0, 68, 64
1, 5256, Note_on_c, 0, 68, 69
1, 5276, Note_off_c, 0, 69, 64
1, 5316, Note_on_c, 0, 57, 62
1, 5316, Note_on_c, 0, 49, 69
1, 5316, Control_c, 0, 64, 0
1, 5332, Note_on_c, 0, 66, 70
1, 5332, Note_on_c, 0, 54, 62
1, 5340, Note_off_c, 0, 68, 64
1, 5368, Control_c, 0, 64, 127
1, 5384, Note_off_c, 0, 57, 64
1, 5384, Note_off_c, 0, 49, 64
1, 5388, Note_off_c, 0, 54, 64
1, 5576, Note_off_c, 0, 42, 64
1, 5592, Note_on_c, 0, 73, 74
1, 5608, Note_on_c, 0, 54, 60
1, 5616, Note_on_c, 0, 57, 62
1, 5616, Note_on_c, 0, 51, 50
1, 5632, Control_c, 0, 64, 0
1, 5652, Note_off_c, 0, 66, 64
1, 5688, Control_c, 0, 64, 127
1, 5704, Note_off_c, 0, 51, 64
1, 5724, Note_off_c, 0, 54, 64
1, 5728, Note_off_c, 0, 57, 64
1, 5880, Note_on_c, 0, 44, 67
1, 5892, Note_on_c, 0, 66, 77
1, 5920, Control_c, 0, 64, 0
1, 5924, Note_off_c, 0, 73, 64
1, 5944, Control_c, 0, 64, 127
1, 5980, Note_on_c, 0, 68, 77
1, 5988, Note_off_c, 0, 66, 64
1, 6048, Note_on_c, 0, 66, 65
1, 6076, Note_off_c, 0, 68, 64
1, 6124, Note_on_c, 0, 64, 73
1, 6136, Note_on_c, 0, 61, 73
1, 6136, Note_on_c, 0, 52, 60
1, 6144, Note_on_c, 0, 56, 55
1, 6152, Note_off_c, 0, 66, 64
1, 6156, Control_c, 0, 64, 0
1, 6180, Control_c, 0, 64, 127
1, 6212, Note_off_c, 0, 52, 64
1, 6216, Note_off_c, 0, 56, 64
1, 6224, Note_off_c, 0, 61, 64
1, 6252, Note_on_c, 0, 68, 74
1, 6272, Note_off_c, 0, 64, 64
1, 6348, Note_off_c, 0, 44, 64
1, 6368, Control_c, 0, 64, 0
1, 6380, Note_on_c, 0, 63, 77
1, 6384, Note_on_c, 0, 56, 57
1, 6392, Note_on_c, 0, 54, 58
1, 6396, Note_on_c, 0, 60, 55
1, 6408, Note_off_c, 0, 68, 64
1, 6424, Control_c, 0, 64, 127
1, 6440, Note_off_c, 0, 60, 64
1, 6452, Note_off_c, 0, 56, 64
1, 6456, Note_off_c, 0, 54, 64
1, 6520, Note_on_c, 0, 68, 65
1, 6548, Note_off_c, 0, 63, 64
1, 6588, Note_off_c, 0, 68, 64
1, 6660, Note_on_c, 0, 68, 73
1, 6716, Note_on_c, 0, 37, 60
1, 6736, Note_on_c, 0, 61, 85
1, 6756, Control_c, 0, 64, 0
1, 6768, Note_off_c, 0, 68, 64
1, 6800, Control_c, 0, 64, 127
1, 7032, Note_on_c, 0, 49, 42
1, 7044, Note_on_c, 0, 53, 49
1, 7052, Note_off_c, 0, 61, 64
1, 7056, Note_on_c, 0, 59, 29
1, 7140, Note_off_c, 0, 53, 64
1, 7140, Note_off_c, 0, 59, 64
1, 7144, Note_off_c, 0, 49, 64
1, 7156, Note_on_c, 0, 62, 63
1, 7164, Note_on_c, 0, 71, 65
1, 7208, Note_off_c, 0, 37, 64
1, 7284, Note_off_c, 0, 62, 64
1, 7288, Note_on_c, 0, 61, 70
1, 7292, Note_off_c, 0, 71, 64
1, 7292, Note_on_c, 0, 69, 65
1, 7312, Note_on_c, 0, 49, 60
1, 7324, Note_on_c, 0, 59, 58
1, 7328, Note_on_c, 0, 56, 58
1, 7368, Note_off_c, 0, 59, 64
1, 7372, Note_off_c, 0, 56, 64
1, 7400, Note_off_c, 0, 49, 64
1, 7404, Note_off_c, 0, 61, 64
1, 7404, Note_on_c, 0, 68, 75
1, 7416, Note_off_c, 0, 69, 64
1, 7436, Note_on_c, 0, 65, 71
1, 7528, Note_off_c, 0, 65, 64
1, 7544, Note_off_c, 0, 68, 64
1, 7572, Note_on_c, 0, 66, 83
1, 7576, Note_on_c, 0, 42, 65
1, 7584, Control_c, 0, 64, 0
1, 7672, Control_c, 0, 64, 127
1, 7860, Note_on_c, 0, 49, 64
1, 7868, Note_on_c, 0, 61, 66
1, 7872, Note_off_c, 0, 66, 64
1, 7872, Note_on_c, 0, 68, 69
1, 7880, Note_on_c, 0, 57, 62
1, 7940, Note_off_c, 0, 49, 64
1, 7940, Note_off_c, 0, 57, 64
1, 7944, Note_off_c, 0, 61, 64
1, 7952, Note_off_c, 0, 68, 64
1, 7960, Note_on_c, 0, 66, 75
1, 8068, Note_off_c, 0, 42, 64
1, 8076, Note_on_c, 0, 69, 80
1, 8080, Note_off_c, 0, 66, 64
1, 8088, Note_on_c, 0, 61, 44
1, 8096, Note_on_c, 0, 57, 60
1, 8100, Note_on_c, 0, 49, 39
1, 8132, Note_off_c, 0, 57, 64
1, 8136, Note_off_c, 0, 61, 64
1, 8148, Note_off_c, 0, 49, 64
1, 8184, Note_on_c, 0, 72, 70
1, 8208, Note_off_c, 0, 69, 64
1, 8316, Note_on_c, 0, 74, 66
1, 8316, Note_on_c, 0, 42, 80
1, 8348, Note_off_c, 0, 72, 64
1, 8400, Note_on_c, 0, 76, 75
1, 8412, Note_off_c, 0, 74, 64
1, 8444, Note_on_c, 0, 74, 75
1, 8472, Note_off_c, 0, 76, 64
1, 8484, Control_c, 0, 64, 0
1, 8508, Note_on_c, 0, 54, 69
1, 8512, Note_on_c, 0, 64, 73
1, 8516, Note_on_c, 0, 58, 71
1, 8524, Note_on_c, 0, 73, 97
1, 8544, Note_off_c, 0, 74, 64
1, 8564, Note_off_c, 0, 58, 64
1, 8568, Note_off_c, 0, 54, 64
1, 8572, Note_off_c, 0, 64, 64
1, 8580, Control_c, 0, 64, 127
1, 8744, Note_off_c, 0, 73, 64
1, 8748, Note_off_c, 0, 42, 64
1, 8760, Note_on_c, 0, 78, 83
1, 8760, Note_on_c, 0, 64, 70
1, 8768, Note_on_c, 0, 54, 35
1, 8784, Note_on_c, 0, 58, 43
1, 8808, Note_off_c, 0, 64, 64
1, 8816, Note_off_c, 0, 54, 64
1, 8820, Note_off_c, 0, 58, 64
1, 8968, Control_c, 0, 64, 0
1, 8976, Note_on_c, 0, 47, 59
1, 8984, Note_on_c, 0, 73, 67
1, 8996, Note_off_c, 0, 78, 64
1, 8996, Control_c, 0, 64, 127
1, 9064, Note_off_c, 0, 73, 64
1, 9064, Note_on_c, 0, 74, 57
1, 9112, Note_on_c, 0, 73, 71
1, 9132, Note_off_c, 0, 74, 64
1, 9172, Note_on_c, 0, 64, 62
1, 9172, Note_on_c, 0, 54, 58
1, 9184, Note_on_c, 0, 71, 67
1, 9188, Control_c, 0, 64, 0
1, 9196, Note_off_c, 0, 73, 64
1, 9228, Control_c, 0, 64, 127
1, 9240, Note_off_c, 0, 54, 64
1, 9240, Note_off_c, 0, 64, 64
1, 9432, Note_on_c, 0, 54, 58
1, 9440, Note_on_c, 0, 78, 69
1, 9448, Note_on_c, 0, 62, 46
1, 9452, Note_off_c, 0, 47, 64
1, 9488, Note_off_c, 0, 71, 64
1, 9488, Note_off_c, 0, 62, 64
1, 9516, Note_off_c, 0, 54, 64
1, 9652, Note_on_c, 0, 71, 65
1, 9664, Note_on_c, 0, 42, 74
1, 9668, Note_off_c, 0, 78, 64
1, 9728, Note_on_c, 0, 73, 62
1, 9736, Note_off_c, 0, 71, 64
1, 9776, Note_on_c, 0, 71, 59
1, 9816, Note_off_c, 0, 73, 64
1, 9852, Note_on_c, 0, 54, 64
1, 9860, Note_on_c, 0, 61, 69
1, 9864, Note_on_c, 0, 69, 64
1, 9884, Note_off_c, 0, 71, 64
1, 9888, Control_c, 0, 64, 0
1, 9920, Control_c, 0, 64, 127
1, 9944, Note_off_c, 0, 54, 64
1, 9960, Note_off_c, 0, 61, 64
1, 10072, Note_off_c, 0, 42, 64
1, 10112, Note_on_c, 0, 51, 55
1, 10128, Note_on_c, 0, 61, 57
1, 10128, Note_on_c, 0, 57, 57
1, 10140, Note_on_c, 0, 73, 73
1, 10184, Control_c, 0, 64, 0
1, 10188, Note_off_c, 0, 69, 64
1, 10212, Note_off_c, 0, 51, 64
1, 10224, Control_c, 0, 64, 127
1, 10368, Note_off_c, 0, 61, 64
1, 10368, Note_off_c, 0, 57, 64
1, 10392, Note_on_c, 0, 52, 41
1, 10428, Control_c, 0, 64, 0
1, 10444, Note_on_c, 0, 66, 69
1, 10480, Note_off_c, 0, 73, 64
1, 10504, Control_c, 0, 64, 127
1, 10516, Note_on_c, 0, 68, 74
1, 10528, Note_off_c, 0, 66, 64
1, 10572, Note_on_c, 0, 66, 64
1, 10600, Note_off_c, 0, 68, 64
1, 10632, Note_on_c, 0, 64, 70
1, 10648, Note_off_c, 0, 66, 64
1, 10648, Note_on_c, 0, 61, 63
1, 10660, Note_on_c, 0, 57, 56
1, 10720, Note_off_c, 0, 57, 64
1, 10724, Note_off_c, 0, 61, 64
1, 10880, Note_on_c, 0, 61, 55
1, 10880, Note_on_c, 0, 73, 67
1, 10888, Note_on_c, 0, 57, 64
1, 10916, Note_off_c, 0, 52, 64
1, 10920, Note_off_c, 0, 61, 64
1, 10924, Note_off_c, 0, 57, 64
1, 10944, Note_off_c, 0, 64, 64
1, 11104, Control_c, 0, 64, 0
1, 11112, Note_on_c, 0, 64, 65
1, 11120, Note_on_c, 0, 40, 62
1, 11140, Note_off_c, 0, 73, 64
1, 11168, Control_c, 0, 64, 127
1, 11184, Note_on_c, 0, 66, 69
1, 11204, Note_off_c, 0, 64, 64
1, 11256, Note_on_c, 0, 64, 69
1, 11280, Note_off_c, 0, 66, 64
1, 11284, Control_c, 0, 64, 0
1, 11324, Note_on_c, 0, 63, 77
1, 11332, Note_on_c, 0, 54, 56
1, 11348, Control_c, 0, 64, 127
1, 11352, Note_off_c, 0, 64, 64
1, 11352, Note_on_c, 0, 57, 29
1, 11388, Note_off_c, 0, 57, 64
1, 11408, Note_off_c, 0, 54, 64
1, 11588, Note_off_c, 0, 40, 64
1, 11608, Note_on_c, 0, 73, 66
1, 11612, Note_on_c, 0, 54, 57
1, 11620, Note_on_c, 0, 57, 39
1, 11652, Note_off_c, 0, 57, 64
1, 11660, Note_off_c, 0, 54, 64
1, 11700, Note_off_c, 0, 63, 64
1, 11888, Note_on_c, 0, 40, 58
1, 11896, Note_on_c, 0, 62, 67
1, 11908, Note_off_c, 0, 73, 64
1, 11920, Control_c, 0, 64, 0
1, 11992, Control_c, 0, 64, 127
1, 12040, Note_on_c, 0, 71, 59
1, 12076, Note_off_c, 0, 62, 64
1, 12160, Note_on_c, 0, 73, 65
1, 12208, Note_off_c, 0, 71, 64
1, 12272, Note_on_c, 0, 74, 62
1, 12292, Note_off_c, 0, 73, 64
1, 12368, Note_on_c, 0, 73, 50
1, 12376, Note_off_c, 0, 74, 64
1, 12392, Note_on_c, 0, 62, 56
1, 12404, Note_on_c, 0, 56, 49
1, 12404, Note_on_c, 0, 52, 48
1, 12432, Note_off_c, 0, 40, 64
1, 12452, Note_off_c, 0, 62, 64
1, 12452, Note_off_c, 0, 56, 64
1, 12456, Note_off_c, 0, 52, 64
1, 12492, Note_on_c, 0, 71, 52
1, 12496, Note_off_c, 0, 73, 64
1, 12612, Note_on_c, 0, 73, 58
1, 12620, Note_on_c, 0, 45, 47
1, 12624, Control_c, 0, 64, 0
1, 12644, Note_off_c, 0, 71, 64
1, 12672, Control_c, 0, 64, 127
1, 12716, Note_on_c, 0, 71, 49
1, 12756, Note_off_c, 0, 73, 64
1, 12824, Note_on_c, 0, 57, 21
1, 12832, Note_on_c, 0, 61, 49
1, 12832, Note_on_c, 0, 52, 36
1, 12840, Note_on_c, 0, 69, 60
1, 12872, Note_off_c, 0, 71, 64
1, 12872, Note_off_c, 0, 57, 64
1, 12876, Note_off_c, 0, 52, 64
1, 12896, Note_off_c, 0, 61, 64
1, 13088, Note_off_c, 0, 45, 64
1, 13092, Note_on_c, 0, 40, 44
1, 13104, Note_on_c, 0, 73, 58
1, 13144, Note_off_c, 0, 69, 64
1, 13228, Note_on_c, 0, 74, 52
1, 13256, Note_off_c, 0, 73, 64
1, 13408, Note_on_c, 0, 76, 57
1, 13416, Note_on_c, 0, 33, 49
1, 13436, Control_c, 0, 64, 0
1, 13444, Note_off_c, 0, 74, 64
1, 13500, Note_off_c, 0, 40, 64
1, 13544, Tempo, 500000
1, 13544, Control_c, 0, 64, 127
1, 13816, Note_on_c, 0, 57, 28
1, 13828, Note_on_c, 0, 55, 25
1, 13832, Note_on_c, 0, 64, 29
1, 13900, Note_off_c, 0, 76, 64
1, 13924, Note_off_c, 0, 64, 64
1, 13936, Note_off_c, 0, 55, 64
1, 13952, Note_off_c, 0, 57, 64
1, 14104, Note_on_c, 0, 78, 51
1, 14120, Note_on_c, 0, 64, 31
1, 14120, Note_on_c, 0, 57, 29
1, 14124, Control_c, 0, 64, 0
1, 14140, Note_on_c, 0, 55, 20
1, 14152, Control_c, 0, 64, 127
1, 14200, Note_off_c, 0, 55, 64
1, 14208, Note_off_c, 0, 64, 64
1, 14228, Note_on_c, 0, 76, 46
1, 14240, Note_off_c, 0, 57, 64
1, 14284, Note_off_c, 0, 33, 64
1, 14304, Note_off_c, 0, 78, 64
1, 14372, Note_on_c, 0, 75, 41
1, 14384, Note_on_c, 0, 54, 32
1, 14388, Note_off_c, 0, 76, 64
1, 14388, Note_on_c, 0, 63, 40
1, 14388, Note_on_c, 0, 57, 39
1, 14408, Control_c, 0, 64, 0
1, 14428, Control_c, 0, 64, 127
1, 14468, Note_off_c, 0, 63, 64
1, 14480, Note_off_c, 0, 57, 64
1, 14484, Note_off_c, 0, 54, 64
1, 14544, Note_off_c, 0, 75, 64
1, 14616, Note_on_c, 0, 71, 51
1, 14628, Note_on_c, 0, 63, 35
1, 14628, Note_on_c, 0, 54, 39
1, 14636, Note_on_c, 0, 57, 34
1, 14724, Note_off_c, 0, 54, 64
1, 14724, Note_off_c, 0, 57, 64
1, 14740, Note_on_c, 0, 73, 58
1, 14744, Note_off_c, 0, 63, 64
1, 14772, Note_off_c, 0, 71, 64
1, 14860, Note_on_c, 0, 62, 37
1, 14860, Note_on_c, 0, 57, 43
1, 14860, Control_c, 0, 64, 0
1, 14872, Note_off_c, 0, 73, 64
1, 14880, Note_on_c, 0, 74, 48
1, 14880, Note_on_c, 0, 53, 32
1, 14896, Control_c, 0, 64, 127
1, 14908, Note_off_c, 0, 62, 64
1, 14916, Note_off_c, 0, 57, 64
1, 14924, Note_off_c, 0, 53, 64
1, 15132, Note_on_c, 0, 62, 51
1, 15140, Note_on_c, 0, 45, 48
1, 15144, Note_off_c, 0, 74, 64
1, 15156, Control_c, 0, 64, 0
1, 15180, Control_c, 0, 64, 127
1, 15256, Note_on_c, 0, 71, 51
1, 15288, Note_off_c, 0, 62, 64
1, 15364, Note_on_c, 0, 73, 54
1, 15364, Note_on_c, 0, 56, 44
1, 15376, Note_on_c, 0, 52, 43
1, 15380, Control_c, 0, 64, 0
1, 15388, Note_on_c, 0, 62, 29
1, 15404, Control_c, 0, 64, 127
1, 15416, Note_off_c, 0, 71, 64
1, 15460, Note_off_c, 0, 56, 64
1, 15464, Note_off_c, 0, 62, 64
1, 15476, Note_off_c, 0, 52, 64
1, 15476, Note_on_c, 0, 74, 55
1, 15496, Note_off_c, 0, 73, 64
1, 15584, Note_on_c, 0, 73, 51
1, 15592, Note_on_c, 0, 62, 41
1, 15596, Note_off_c, 0, 74, 64
1, 15600, Note_on_c, 0, 56, 40
1, 15600, Note_on_c, 0, 52, 37
1, 15616, Note_off_c, 0, 45, 64
1, 15640, Note_off_c, 0, 62, 64
1, 15644, Note_off_c, 0, 52, 64
1, 15652, Note_off_c, 0, 56, 64
1, 15700, Note_on_c, 0, 71, 51
1, 15728, Note_off_c, 0, 73, 64
1, 15796, Note_on_c, 0, 45, 58
1, 15812, Note_on_c, 0, 73, 58
1, 15828, Control_c, 0, 64, 0
1, 15840, Note_off_c, 0, 71, 64
1, 15868, Control_c, 0, 64, 127
1, 15908, Note_on_c, 0, 71, 51
1, 15996, Note_off_c, 0, 73, 64
1, 16016, Note_on_c, 0, 61, 32
1, 16032, Note_off_c, 0, 71, 64
1, 16044, Note_on_c, 0, 69, 57
1, 16052, Note_on_c, 0, 57, 43
1, 16060, Note_on_c, 0, 52, 39
1, 16068, Note_off_c, 0, 61, 64
1, 16088, Note_off_c, 0, 57, 64
1, 16116, Note_off_c, 0, 52, 64
1, 16260, Note_off_c, 0, 45, 64
1, 16292, Note_on_c, 0, 40, 50
1, 16308, Note_on_c, 0, 73, 58
1, 16348, Note_off_c, 0, 69, 64
1, 16424, Note_on_c, 0, 74, 54
1, 16432, Note_off_c, 0, 73, 64
1, 16480, Control_c, 0, 64, 0
1, 16584, Note_on_c, 0, 76, 49
1, 16604, Note_on_c, 0, 33, 54
1, 16620, Note_off_c, 0, 74, 64
1, 16644, Note_off_c, 0, 40, 64
1, 16656, Tempo, 500000
1, 16656, Control_c, 0, 64, 127
1, 16912, Note_on_c, 0, 64, 20
1, 16912, Note_on_c, 0, 57, 41
1, 16912, Note_on_c, 0, 55, 20
1, 16968, Note_off_c, 0, 76, 64
1, 17008, Note_off_c, 0, 64, 64
1, 17024, Note_off_c, 0, 55, 64
1, 17032, Note_off_c, 0, 57, 64
1, 17176, Note_on_c, 0, 55, 32
1, 17184, Note_on_c, 0, 58, 41
1, 17192, Note_on_c, 0, 64, 32
1, 17200, Note_on_c, 0, 78, 51
1, 17248, Note_off_c, 0, 55, 64
1, 17260, Note_off_c, 0, 58, 64
1, 17260, Note_off_c, 0, 78, 64
1, 17272, Note_off_c, 0, 64, 64
1, 17288, Note_on_c, 0, 76, 48
1, 17332, Note_on_c, 0, 78, 58
1, 17352, Note_off_c, 0, 76, 64
1, 17396, Note_on_c, 0, 76, 55
1, 17424, Note_off_c, 0, 78, 64
1, 17432, Note_off_c, 0, 33, 64
1, 17472, Note_on_c, 0, 54, 29
1, 17472, Control_c, 0, 64, 0
1, 17480, Note_on_c, 0, 75, 58
1, 17488, Note_on_c, 0, 63, 42
1, 17500, Note_on_c, 0, 59, 34
1, 17512, Note_off_c, 0, 76, 64
1, 17540, Control_c, 0, 64, 127
1, 17576, Note_off_c, 0, 63, 64
1, 17576, Note_off_c, 0, 59, 64
1, 17588, Note_off_c, 0, 54, 64
1, 17712, Note_off_c, 0, 75, 64
1, 17760, Note_on_c, 0, 71, 55
1, 17760, Note_on_c, 0, 63, 40
1, 17760, Note_on_c, 0, 54, 37
1, 17772, Note_on_c, 0, 59, 39
1, 17836, Note_off_c, 0, 59, 64
1, 17840, Note_off_c, 0, 63, 64
1, 17848, Note_off_c, 0, 54, 64
1, 17864, Note_on_c, 0, 73, 58
1, 17908, Note_off_c, 0, 71, 64
1, 17996, Note_off_c, 0, 73, 64
1, 18008, Note_on_c, 0, 59, 37
1, 18016, Note_on_c, 0, 74, 51
1, 18016, Note_on_c, 0, 62, 41
1, 18020, Note_on_c, 0, 53, 35
1, 18032, Note_on_c, 0, 69, 51
1, 18032, Control_c, 0, 64, 0
1, 18048, Control_c, 0, 64, 0
1, 18080, Control_c, 0, 64, 127
1, 18092, Note_off_c, 0, 62, 64
1, 18092, Control_c, 0, 64, 127
1, 18112, Note_off_c, 0, 59, 64
1, 18136, Note_off_c, 0, 53, 64
1, 18260, Control_c, 0, 64, 0
1, 18268, Note_on_c, 0, 62, 54
1, 18276, Note_off_c, 0, 74, 64
1, 18276, Note_off_c, 0, 69, 64
1, 18280, Note_on_c, 0, 45, 56
1, 18372, Control_c, 0, 64, 127
1, 18376, Note_on_c, 0, 71, 49
1, 18400, Note_off_c, 0, 62, 64
1, 18480, Control_c, 0, 64, 0
1, 18492, Note_on_c, 0, 68, 52
1, 18492, Note_on_c, 0, 59, 39
1, 18492, Note_on_c, 0, 52, 26
1, 18496, Note_on_c, 0, 62, 44
1, 18512, Note_on_c, 0, 73, 64
1, 18524, Control_c, 0, 64, 127
1, 18548, Note_off_c, 0, 52, 64
1, 18564, Note_off_c, 0, 59, 64
1, 18568, Note_off_c, 0, 71, 64
1, 18588, Note_off_c, 0, 62, 64
1, 18640, Note_on_c, 0, 74, 54
1, 18648, Note_off_c, 0, 68, 64
1, 18664, Note_off_c, 0, 73, 64
1, 18720, Note_off_c, 0, 45, 64
1, 18752, Note_on_c, 0, 52, 39
1, 18752, Note_on_c, 0, 56, 41
1, 18760, Note_on_c, 0, 73, 64
1, 18760, Note_on_c, 0, 64, 47
1, 18764, Note_on_c, 0, 62, 28
1, 18772, Control_c, 0, 64, 0
1, 18788, Note_off_c, 0, 74, 64
1, 18832, Note_off_c, 0, 56, 64
1, 18832, Control_c, 0, 64, 127
1, 18840, Note_off_c, 0, 62, 64
1, 18856, Note_off_c, 0, 52, 64
1, 18880, Note_on_c, 0, 71, 54
1, 18904, Note_off_c, 0, 73, 64
1, 18916, Note_off_c, 0, 64, 64
1, 18920, Control_c, 0, 64, 127
1, 18992, Note_on_c, 0, 73, 63
1, 18992, Note_on_c, 0, 45, 51
1, 19012, Note_off_c, 0, 71, 64
1, 19016, Control_c, 0, 64, 0
1, 19072, Control_c, 0, 64, 127
1, 19092, Note_on_c, 0, 71, 58
1, 19156, Note_off_c, 0, 73, 64
1, 19208, Control_c, 0, 64, 0
1, 19216, Note_off_c, 0, 71, 64
1, 19216, Note_on_c, 0, 69, 64
1, 19224, Note_on_c, 0, 57, 35
1, 19232, Note_on_c, 0, 61, 47
1, 19240, Note_on_c, 0, 52, 20
1, 19280, Control_c, 0, 64, 127
1, 19300, Note_off_c, 0, 61, 64
1, 19312, Note_off_c, 0, 57, 64
1, 19320, Note_off_c, 0, 52, 64
1, 19448, Note_off_c, 0, 45, 64
1, 19512, Note_on_c, 0, 49, 42
1, 19516, Note_on_c, 0, 59, 44
1, 19524, Note_off_c, 0, 69, 64
1, 19536, Note_on_c, 0, 53, 34
1, 19556, Note_on_c, 0, 68, 63
1, 19568, Control_c, 0, 64, 0
1, 19604, Note_off_c, 0, 59, 64
1, 19616, Note_off_c, 0, 53, 64
1, 19624, Control_c, 0, 64, 127
1, 19632, Note_off_c, 0, 49, 64
1, 19676, Note_on_c, 0, 69, 70
1, 19684, Note_off_c, 0, 68, 64
1, 19820, Note_on_c, 0, 66, 70
1, 19832, Note_off_c, 0, 69, 64
1, 19836, Note_on_c, 0, 42, 52
1, 19860, Control_c, 0, 64, 0
1, 19912, Control_c, 0, 64, 127
1, 20120, Note_on_c, 0, 61, 50
1, 20120, Note_on_c, 0, 49, 44
1, 20124, Note_on_c, 0, 57, 44
1, 20132, Note_on_c, 0, 54, 50
1, 20200, Note_off_c, 0, 66, 64
1, 20200, Note_off_c, 0, 61, 64
1, 20200, Note_off_c, 0, 49, 64
1, 20208, Note_off_c, 0, 57, 64
1, 20216, Note_off_c, 0, 54, 64
1, 20220, Note_on_c, 0, 68, 66
1, 20308, Note_off_c, 0, 68, 64
1, 20320, Note_off_c, 0, 42, 64
1, 20336, Note_on_c, 0, 57, 44
1, 20344, Note_on_c, 0, 69, 69
1, 20344, Note_on_c, 0, 61, 50
1, 20348, Note_on_c, 0, 54, 44
1, 20360, Note_on_c, 0, 49, 46
1, 20420, Note_off_c, 0, 57, 64
1, 20424, Note_off_c, 0, 61, 64
1, 20432, Note_off_c, 0, 54, 64
1, 20440, Note_off_c, 0, 49, 64
1, 20464, Note_on_c, 0, 72, 62
1, 20480, Note_off_c, 0, 69, 64
1, 20516, Control_c, 0, 64, 0
1, 20548, Note_on_c, 0, 42, 74
1, 20548, Note_on_c, 0, 74, 71
1, 20560, Control_c, 0, 64, 127
1, 20568, Note_off_c, 0, 72, 64
1, 20640, Note_on_c, 0, 76, 56
1, 20648, Note_off_c, 0, 74, 64
1, 20720, Note_on_c, 0, 74, 71
1, 20724, Control_c, 0, 64, 0
1, 20744, Note_off_c, 0, 76, 64
1, 20772, Note_on_c, 0, 61, 74
1, 20772, Note_on_c, 0, 57, 36
1, 20776, Note_on_c, 0, 73, 73
1, 20776, Note_on_c, 0, 66, 74
1, 20804, Note_off_c, 0, 74, 64
1, 20804, Control_c, 0, 64, 127
1, 20856, Note_off_c, 0, 42, 64
1, 20856, Note_off_c, 0, 61, 64
1, 20856, Note_off_c, 0, 57, 64
1, 20856, Note_off_c, 0, 66, 64
1, 21016, Note_off_c, 0, 73, 64
1, 21036, Note_on_c, 0, 61, 36
1, 21048, Note_on_c, 0, 78, 67
1, 21048, Note_on_c, 0, 57, 69
1, 21056, Note_on_c, 0, 66, 63
1, 21120, Note_off_c, 0, 61, 64
1, 21132, Note_off_c, 0, 57, 64
1, 21140, Note_off_c, 0, 66, 64
1, 21172, Control_c, 0, 64, 127
1, 21272, Note_on_c, 0, 47, 58
1, 21288, Note_on_c, 0, 73, 80
1, 21320, Note_off_c, 0, 78, 64
1, 21360, Note_on_c, 0, 74, 56
1, 21368, Note_off_c, 0, 73, 64
1, 21416, Note_on_c, 0, 73, 69
1, 21444, Note_off_c, 0, 74, 64
1, 21460, Control_c, 0, 64, 0
1, 21468, Note_on_c, 0, 64, 66
1, 21472, Note_on_c, 0, 54, 69
1, 21480, Note_on_c, 0, 72, 58
1, 21504, Note_off_c, 0, 73, 64
1, 21516, Note_off_c, 0, 64, 64
1, 21520, Note_off_c, 0, 54, 64
1, 21528, Control_c, 0, 64, 127
1, 21716, Note_off_c, 0, 72, 64
1, 21720, Note_off_c, 0, 47, 64
1, 21720, Note_on_c, 0, 54, 36
1, 21724, Note_on_c, 0, 71, 65
1, 21728, Note_on_c, 0, 78, 73
1, 21732, Note_on_c, 0, 62, 41
1, 21792, Note_off_c, 0, 62, 64
1, 21804, Note_off_c, 0, 54, 64
1, 21924, Note_off_c, 0, 71, 64
1, 21956, Note_on_c, 0, 42, 73
1, 21960, Note_off_c, 0, 78, 64
1, 21968, Note_on_c, 0, 71, 62
1, 21972, Control_c, 0, 64, 0
1, 21992, Control_c, 0, 64, 127
1, 22028, Note_on_c, 0, 73, 71
1, 22048, Note_off_c, 0, 71, 64
1, 22088, Note_on_c, 0, 71, 62
1, 22120, Note_off_c, 0, 73, 64
1, 22160, Note_on_c, 0, 70, 73
1, 22160, Note_on_c, 0, 61, 71
1, 22160, Control_c, 0, 64, 0
1, 22176, Note_on_c, 0, 54, 55
1, 22192, Note_off_c, 0, 71, 64
1, 22208, Control_c, 0, 64, 127
1, 22224, Note_off_c, 0, 61, 64
1, 22228, Note_off_c, 0, 54, 64
1, 22304, Note_off_c, 0, 70, 64
1, 22392, Note_on_c, 0, 69, 69
1, 22396, Note_off_c, 0, 42, 64
1, 22400, Note_on_c, 0, 73, 69
1, 22412, Note_on_c, 0, 54, 56
1, 22416, Note_on_c, 0, 61, 50
1, 22504, Note_off_c, 0, 61, 64
1, 22512, Note_off_c, 0, 54, 64
1, 22600, Note_off_c, 0, 69, 64
1, 22620, Note_off_c, 0, 73, 64
1, 22624, Note_on_c, 0, 69, 70
1, 22648, Control_c, 0, 64, 0
1, 22656, Note_on_c, 0, 49, 69
1, 22684, Control_c, 0, 64, 127
1, 22712, Note_off_c, 0, 69, 64
1, 22716, Note_on_c, 0, 71, 56
1, 22768, Note_on_c, 0, 69, 59
1, 22812, Note_off_c, 0, 71, 64
1, 22836, Control_c, 0, 64, 0
1, 22840, Note_on_c, 0, 61, 36
1, 22840, Note_on_c, 0, 53, 57
1, 22852, Note_on_c, 0, 68, 83
1, 22864, Control_c, 0, 64, 127
1, 22896, Note_off_c, 0, 69, 64
1, 22904, Note_off_c, 0, 61, 64
1, 22956, Note_off_c, 0, 53, 64
1, 23004, Note_off_c, 0, 68, 64
1, 23060, Control_c, 0, 64, 0
1, 23068, Note_on_c, 0, 59, 63
1, 23068, Note_on_c, 0, 53, 64
1, 23076, Note_on_c, 0, 73, 73
1, 23092, Control_c, 0, 64, 127
1, 23104, Note_off_c, 0, 59, 64
1, 23112, Note_off_c, 0, 53, 64
1, 23200, Note_off_c, 0, 49, 64
1, 23292, Note_on_c, 0, 68, 69
1, 23304, Note_on_c, 0, 42, 59
1, 23312, Note_off_c, 0, 73, 64
1, 23320, Control_c, 0, 64, 0
1, 23364, Note_on_c, 0, 69, 57
1, 23380, Control_c, 0, 64, 127
1, 23384, Note_off_c, 0, 68, 64
1, 23432, Note_on_c, 0, 68, 62
1, 23456, Note_off_c, 0, 69, 64
1, 23500, Note_on_c, 0, 67, 67
1, 23512, Control_c, 0, 64, 0
1, 23520, Note_off_c, 0, 68, 64
1, 23528, Note_on_c, 0, 57, 71
1, 23560, Control_c, 0, 64, 127
1, 23584, Note_off_c, 0, 57, 64
1, 23696, Note_off_c, 0, 67, 64
1, 23748, Note_off_c, 0, 42, 64
1, 23764, Note_on_c, 0, 51, 56
1, 23768, Note_on_c, 0, 57, 41
1, 23768, Note_on_c, 0, 73, 73
1, 23780, Note_on_c, 0, 66, 67
1, 23780, Note_on_c, 0, 61, 47
1, 23788, Control_c, 0, 64, 0
1, 23796, Control_c, 0, 64, 0
1, 23860, Control_c, 0, 64, 127
1, 23864, Note_off_c, 0, 51, 64
1, 23912, Note_off_c, 0, 57, 64
1, 23944, Note_off_c, 0, 61, 64
1, 23976, Note_off_c, 0, 66, 64
1, 24048, Note_on_c, 0, 66, 64
1, 24056, Control_c, 0, 64, 0
1, 24064, Note_on_c, 0, 44, 50
1, 24072, Note_off_c, 0, 73, 64
1, 24104, Note_on_c, 0, 68, 56
1, 24120, Control_c, 0, 64, 127
1, 24128, Note_off_c, 0, 66, 64
1, 24168, Note_on_c, 0, 66, 56
1, 24200, Note_off_c, 0, 68, 64
1, 24268, Control_c, 0, 64, 0
1, 24280, Note_on_c, 0, 65, 52
1, 24284, Note_off_c, 0, 66, 64
1, 24284, Note_on_c, 0, 56, 56
1, 24348, Control_c, 0, 64, 127
1, 24380, Note_on_c, 0, 64, 52
1, 24384, Note_off_c, 0, 56, 64
1, 24384, Note_on_c, 0, 68, 62
1, 24424, Note_off_c, 0, 65, 64
1, 24424, Control_c, 0, 64, 127
1, 24504, Note_off_c, 0, 68, 64
1, 24512, Note_off_c, 0, 44, 64
1, 24516, Note_on_c, 0, 63, 70
1, 24520, Note_off_c, 0, 64, 64
1, 24536, Note_on_c, 0, 54, 58
1, 24544, Note_on_c, 0, 60, 59
1, 24576, Note_off_c, 0, 60, 64
1, 24588, Note_off_c, 0, 54, 64
1, 24648, Note_on_c, 0, 68, 63
1, 24672, Note_off_c, 0, 63, 64
1, 24744, Note_off_c, 0, 68, 64
1, 24760, Note_on_c, 0, 61, 69
1, 24768, Note_on_c, 0, 37, 60
1, 24792, Control_c, 0, 64, 0
1, 24832, Control_c, 0, 64, 127
1, 24884, Note_on_c, 0, 62, 62
1, 24896, Note_off_c, 0, 61, 64
1, 24928, Note_on_c, 0, 64, 60
1, 24948, Note_off_c, 0, 62, 64
1, 24984, Note_on_c, 0, 62, 67
1, 25012, Note_off_c, 0, 64, 64
1, 25016, Control_c, 0, 64, 0
1, 25036, Note_on_c, 0, 49, 55
1, 25048, Note_on_c, 0, 59, 59
1, 25056, Note_on_c, 0, 61, 71
1, 25060, Note_on_c, 0, 53, 40
1, 25064, Note_off_c, 0, 62, 64
1, 25084, Control_c, 0, 64, 127
1, 25112, Note_off_c, 0, 49, 64
1, 25112, Note_off_c, 0, 59, 64
1, 25120, Note_off_c, 0, 53, 64
1, 25160, Note_off_c, 0, 61, 64
1, 25180, Note_on_c, 0, 62, 71
1, 25184, Note_on_c, 0, 71, 70
1, 25224, Note_off_c, 0, 37, 64
1, 25268, Note_off_c, 0, 62, 64
1, 25312, Note_on_c, 0, 56, 41
1, 25312, Note_on_c, 0, 61, 79
1, 25320, Note_on_c, 0, 69, 71
1, 25324, Note_on_c, 0, 59, 64
1, 25324, Note_on_c, 0, 49, 59
1, 25328, Note_off_c, 0, 71, 64
1, 25360, Note_off_c, 0, 59, 64
1, 25376, Note_off_c, 0, 56, 64
1, 25380, Note_off_c, 0, 49, 64
1, 25388, Note_off_c, 0, 61, 64
1, 25448, Note_on_c, 0, 68, 81
1, 25448, Note_on_c, 0, 65, 82
1, 25456, Note_off_c, 0, 69, 64
1, 25508, Control_c, 0, 64, 127
1, 25608, Note_on_c, 0, 66, 90
1, 25616, Note_off_c, 0, 68, 64
1, 25616, Note_off_c, 0, 65, 64
1, 25624, Note_on_c, 0, 42, 80
1, 25644, Control_c, 0, 64, 0
1, 25708, Control_c, 0, 64, 127
1, 25848, Control_c, 0, 64, 0
1, 25864, Note_on_c, 0, 56, 27
1, 25868, Note_on_c, 0, 68, 62
1, 25880, Note_on_c, 0, 49, 50
1, 25884, Note_off_c, 0, 66, 64
1, 25884, Note_off_c, 0, 56, 64
1, 25884, Note_on_c, 0, 61, 59
1, 25904, Control_c, 0, 64, 127
1, 25956, Note_off_c, 0, 68, 64
1, 25960, Note_on_c, 0, 66, 77
1, 25976, Note_off_c, 0, 49, 64
1, 25980, Note_off_c, 0, 61, 64
1, 26072, Note_on_c, 0, 69, 50
1, 26076, Note_off_c, 0, 66, 64
1, 26088, Note_on_c, 0, 61, 57
1, 26108, Note_off_c, 0, 42, 64
1, 26112, Note_on_c, 0, 49, 55
1, 26132, Note_on_c, 0, 56, 27
1, 26148, Note_off_c, 0, 61, 64
1, 26152, Note_off_c, 0, 56, 64
1, 26156, Control_c, 0, 64, 0
1, 26160, Note_off_c, 0, 49, 64
1, 26188, Note_on_c, 0, 72, 63
1, 26212, Note_off_c, 0, 69, 64
1, 26284, Note_on_c, 0, 74, 59
1, 26288, Control_c, 0, 64, 0
1, 26304, Note_on_c, 0, 42, 77
1, 26308, Note_off_c, 0, 72, 64
1, 26316, Control_c, 0, 64, 127
1, 26360, Note_on_c, 0, 76, 62
1, 26380, Note_off_c, 0, 74, 64
1, 26416, Note_on_c, 0, 74, 73
1, 26432, Note_off_c, 0, 76, 64
1, 26476, Control_c, 0, 64, 0
1, 26488, Note_on_c, 0, 73, 85
1, 26496, Note_on_c, 0, 64, 71
1, 26496, Note_on_c, 0, 54, 62
1, 26504, Note_on_c, 0, 58, 71
1, 26512, Note_off_c, 0, 74, 64
1, 26540, Note_off_c, 0, 64, 64
1, 26548, Note_off_c, 0, 54, 64
1, 26548, Note_off_c, 0, 58, 64
1, 26568, Control_c, 0, 64, 127
1, 26736, Note_off_c, 0, 42, 64
1, 26804, Note_on_c, 0, 78, 73
1, 26804, Note_on_c, 0, 64, 65
1, 26816, Note_off_c, 0, 73, 64
1, 26816, Note_on_c, 0, 54, 46
1, 26824, Note_on_c, 0, 58, 57
1, 26828, Note_on_c, 0, 66, 73
1, 26864, Note_off_c, 0, 64, 64
1, 26868, Note_off_c, 0, 58, 64
1, 26872, Note_off_c, 0, 54, 64
1, 27032, Note_on_c, 0, 47, 59
1, 27060, Note_off_c, 0, 66, 64
1, 27072, Note_on_c, 0, 73, 66
1, 27108, Note_off_c, 0, 78, 64
1, 27144, Note_off_c, 0, 73, 64
1, 27144, Note_on_c, 0, 74, 58
1, 27192, Note_on_c, 0, 73, 69
1, 27224, Note_off_c, 0, 74, 64
1, 27240, Control_c, 0, 64, 0
1, 27248, Note_on_c, 0, 64, 62
1, 27252, Note_on_c, 0, 54, 62
1, 27264, Note_on_c, 0, 72, 69
1, 27288, Note_off_c, 0, 73, 64
1, 27288, Control_c, 0, 64, 127
1, 27304, Note_off_c, 0, 64, 64
1, 27312, Note_off_c, 0, 54, 64
1, 27492, Note_off_c, 0, 72, 64
1, 27508, Note_off_c, 0, 47, 64
1, 27512, Note_on_c, 0, 62, 71
1, 27516, Note_on_c, 0, 78, 73
1, 27524, Note_on_c, 0, 71, 69
1, 27524, Note_on_c, 0, 54, 58
1, 27568, Note_off_c, 0, 62, 64
1, 27576, Note_off_c, 0, 54, 64
1, 27600, Note_off_c, 0, 71, 64
1, 27736, Note_off_c, 0, 78, 64
1, 27736, Note_on_c, 0, 71, 71
1, 27752, Note_on_c, 0, 42, 73
1, 27808, Note_on_c, 0, 73, 69
1, 27832, Note_off_c, 0, 71, 64
1, 27872, Note_on_c, 0, 71, 59
1, 27892, Note_off_c, 0, 73, 64
1, 27920, Note_on_c, 0, 70, 60
1, 27944, Note_on_c, 0, 54, 62
1, 27952, Note_on_c, 0, 61, 74
1, 27952, Control_c, 0, 64, 0
1, 27960, Note_off_c, 0, 71, 64
1, 28000, Note_off_c, 0, 54, 64
1, 28000, Note_off_c, 0, 61, 64
1, 28008, Control_c, 0, 64, 127
1, 28056, Note_off_c, 0, 70, 64
1, 28192, Note_off_c, 0, 42, 64
1, 28192, Note_on_c, 0, 73, 69
1, 28196, Note_on_c, 0, 69, 71
1, 28196, Note_on_c, 0, 61, 37
1, 28208, Note_on_c, 0, 54, 54
1, 28224, Control_c, 0, 64, 0
1, 28280, Control_c, 0, 64, 127
1, 28380, Note_on_c, 0, 50, 59
1, 28388, Note_off_c, 0, 61, 64
1, 28392, Note_off_c, 0, 54, 64
1, 28480, Note_off_c, 0, 69, 64
1, 28500, Note_on_c, 0, 66, 70
1, 28536, Note_off_c, 0, 73, 64
1, 28556, Control_c, 0, 64, 0
1, 28656, Control_c, 0, 64, 127
1, 28772, Note_on_c, 0, 61, 55
1, 28784, Note_on_c, 0, 54, 44
1, 28860, Note_on_c, 0, 68, 59
1, 28864, Note_off_c, 0, 61, 64
1, 28884, Note_off_c, 0, 54, 64
1, 28888, Note_off_c, 0, 66, 64
1, 28992, Note_on_c, 0, 69, 73
1, 29004, Note_off_c, 0, 68, 64
1, 29008, Note_on_c, 0, 54, 49
1, 29008, Note_on_c, 0, 59, 57
1, 29112, Note_off_c, 0, 59, 64
1, 29116, Note_on_c, 0, 71, 59
1, 29124, Note_off_c, 0, 69, 64
1, 29144, Note_off_c, 0, 54, 64
1, 29196, Note_off_c, 0, 71, 64
1, 29200, Note_off_c, 0, 50, 64
1, 29200, Control_c, 0, 64, 0
1, 29212, Note_on_c, 0, 69, 69
1, 29236, Note_on_c, 0, 49, 62
1, 29264, Control_c, 0, 64, 127
1, 29276, Note_on_c, 0, 71, 69
1, 29284, Note_off_c, 0, 69, 64
1, 29352, Note_on_c, 0, 69, 74
1, 29368, Note_off_c, 0, 71, 64
1, 29392, Control_c, 0, 64, 0
1, 29416, Note_on_c, 0, 68, 78
1, 29424, Note_on_c, 0, 54, 55
1, 29440, Note_on_c, 0, 59, 50
1, 29448, Note_off_c, 0, 69, 64
1, 29476, Control_c, 0, 64, 127
1, 29512, Note_off_c, 0, 54, 64
1, 29512, Note_off_c, 0, 59, 64
1, 29720, Note_on_c, 0, 53, 41
1, 29728, Note_on_c, 0, 59, 36
1, 29736, Control_c, 0, 64, 0
1, 29760, Note_on_c, 0, 73, 66
1, 29776, Note_off_c, 0, 68, 64
1, 29816, Control_c, 0, 64, 127
1, 29952, Note_off_c, 0, 49, 64
1, 29988, Note_on_c, 0, 50, 46
1, 30008, Note_off_c, 0, 53, 64
1, 30060, Note_off_c, 0, 59, 64
1, 30088, Note_on_c, 0, 66, 74
1, 30120, Note_off_c, 0, 73, 64
1, 30132, Control_c, 0, 64, 0
1, 30216, Control_c, 0, 64, 127
1, 30344, Note_on_c, 0, 61, 39
1, 30352, Note_on_c, 0, 54, 47
1, 30436, Note_on_c, 0, 68, 62
1, 30444, Note_off_c, 0, 61, 64
1, 30464, Note_off_c, 0, 54, 64
1, 30476, Note_off_c, 0, 66, 64
1, 30536, Note_off_c, 0, 68, 64
1, 30560, Note_on_c, 0, 69, 64
1, 30592, Note_on_c, 0, 54, 47
1, 30700, Note_on_c, 0, 73, 40
1, 30740, Note_on_c, 0, 71, 72
1, 30752, Note_off_c, 0, 54, 64
1, 30764, Note_off_c, 0, 73, 64
1, 30780, Note_off_c, 0, 69, 64
1, 30856, Note_off_c, 0, 71, 64
1, 30880, Note_on_c, 0, 69, 69
1, 30892, Note_off_c, 0, 50, 64
1, 30904, Note_on_c, 0, 49, 58
1, 30920, Control_c, 0, 64, 0
1, 30988, Note_on_c, 0, 71, 66
1, 30992, Control_c, 0, 64, 127
1, 31000, Note_off_c, 0, 69, 64
1, 31064, Note_on_c, 0, 69, 59
1, 31076, Note_off_c, 0, 71, 64
1, 31144, Note_on_c, 0, 54, 36
1, 31160, Note_on_c, 0, 59, 47
1, 31200, Note_on_c, 0, 68, 82
1, 31256, Note_off_c, 0, 69, 64
1, 31316, Note_off_c, 0, 59, 64
1, 31584, Note_off_c, 0, 54, 64
1, 31628, Note_off_c, 0, 68, 64
1, 31636, Note_on_c, 0, 53, 31
1, 31644, Note_on_c, 0, 73, 64
1, 31656, Note_on_c, 0, 59, 29
1, 31672, Control_c, 0, 64, 0
1, 31748, Control_c, 0, 64, 127
1, 31872, Note_off_c, 0, 49, 64
1, 31932, Note_on_c, 0, 50, 28
1, 31960, Note_off_c, 0, 53, 64
1, 32016, Note_on_c, 0, 66, 77
1, 32028, Note_off_c, 0, 73, 64
1, 32032, Note_off_c, 0, 59, 64
1, 32068, Control_c, 0, 64, 0
1, 32156, Control_c, 0, 64, 127
1, 32332, Note_on_c, 0, 54, 43
1, 32340, Note_on_c, 0, 61, 29
1, 32428, Note_off_c, 0, 66, 64
1, 32440, Note_on_c, 0, 68, 59
1, 32448, Note_off_c, 0, 61, 64
1, 32452, Note_off_c, 0, 54, 64
1, 32560, Note_off_c, 0, 68, 64
1, 32608, Note_on_c, 0, 69, 59
1, 32632, Note_on_c, 0, 54, 27
1, 32644, Note_on_c, 0, 59, 29
1, 32732, Note_on_c, 0, 71, 60
1, 32752, Note_off_c, 0, 54, 64
1, 32764, Note_off_c, 0, 59, 64
1, 32772, Note_off_c, 0, 69, 64
1, 32832, Note_off_c, 0, 50, 64
1, 32908, Note_on_c, 0, 35, 56
1, 32960, Control_c, 0, 64, 0
1, 32992, Note_on_c, 0, 73, 64
1, 33036, Control_c, 0, 64, 127
1, 33052, Note_off_c, 0, 71, 64
1, 33244, Note_on_c, 0, 76, 64
1, 33280, Note_off_c, 0, 73, 64
1, 33384, Note_on_c, 0, 74, 64
1, 33388, Note_on_c, 0, 66, 29
1, 33396, Control_c, 0, 64, 0
1, 33400, Note_on_c, 0, 59, 3
1, 33400, Note_on_c, 0, 62, 3
1, 33404, Note_on_c, 0, 56, 41
1, 33412, Note_off_c, 0, 76, 64
1, 33472, Control_c, 0, 64, 127
1, 33600, Note_off_c, 0, 74, 64
1, 33668, Note_off_c, 0, 66, 64
1, 33684, Note_off_c, 0, 59, 64
1, 33684, Note_off_c, 0, 62, 64
1, 33684, Note_off_c, 0, 56, 64
1, 33840, Note_off_c, 0, 35, 64
1, 33884, Note_on_c, 0, 66, 77
1, 33968, Note_off_c, 0, 66, 64
1, 34048, Note_on_c, 0, 66, 62
1, 34208, Note_on_c, 0, 65, 66
1, 34240, Note_off_c, 0, 66, 64
1, 34376, Note_on_c, 0, 69, 62
1, 34376, Note_on_c, 0, 37, 55
1, 34408, Note_off_c, 0, 65, 64
1, 34412, Control_c, 0, 64, 0
1, 34512, Control_c, 0, 64, 127
1, 34720, Note_on_c, 0, 49, 46
1, 34732, Note_on_c, 0, 65, 56
1, 34748, Note_on_c, 0, 59, 29
1, 34752, Note_off_c, 0, 37, 64
1, 34800, Note_off_c, 0, 49, 64
1, 34848, Note_off_c, 0, 59, 64
1, 34912, Note_on_c, 0, 68, 62
1, 34920, Note_off_c, 0, 69, 64
1, 34956, Note_off_c, 0, 65, 64
1, 35116, Note_on_c, 0, 59, 39
1, 35160, Note_on_c, 0, 70, 58
1, 35172, Note_off_c, 0, 68, 64
1, 35176, Note_on_c, 0, 65, 66
1, 35224, Control_c, 0, 64, 0
1, 35276, Control_c, 0, 64, 127
1, 35396, Note_off_c, 0, 70, 64
1, 35416, Note_on_c, 0, 71, 64
1, 35600, Note_on_c, 0, 72, 63
1, 35624, Note_off_c, 0, 71, 64
1, 35744, Note_on_c, 0, 73, 60
1, 35804, Note_off_c, 0, 72, 64
1, 35928, Note_on_c, 0, 77, 63
1, 35960, Control_c, 0, 64, 0
1, 35972, Note_off_c, 0, 73, 64
1, 36012, Control_c, 0, 64, 127
1, 36044, Note_off_c, 0, 65, 64
1, 36108, Note_off_c, 0, 59, 64
1, 36136, Note_on_c, 0, 75, 58
1, 36144, Note_off_c, 0, 77, 64
1, 36148, Note_on_c, 0, 71, 50
1, 36224, Note_off_c, 0, 75, 64
1, 36276, Note_off_c, 0, 71, 64
1, 36408, Note_on_c, 0, 73, 60
1, 36416, Note_on_c, 0, 42, 49
1, 36416, Note_on_c, 0, 70, 41
1, 36464, Control_c, 0, 64, 0
1, 36548, Control_c, 0, 64, 127
1, 36704, Note_off_c, 0, 73, 64
1, 36736, Note_off_c, 0, 70, 64
1, 36768, Note_on_c, 0, 49, 48
1, 36800, Note_off_c, 0, 42, 64
1, 36992, Note_on_c, 0, 69, 50
1, 37004, Note_on_c, 0, 72, 50
1, 37064, Note_off_c, 0, 49, 64
1, 37076, Control_c, 0, 64, 0
1, 37088, Note_on_c, 0, 61, 56
1, 37092, Note_off_c, 0, 69, 64
1, 37096, Note_on_c, 0, 51, 48
1, 37120, Note_off_c, 0, 72, 64
1, 37152, Control_c, 0, 64, 127
1, 37320, Note_on_c, 0, 68, 56
1, 37404, Note_off_c, 0, 61, 64
1, 37416, Note_on_c, 0, 71, 59
1, 37428, Note_on_c, 0, 53, 52
1, 37432, Note_off_c, 0, 51, 64
1, 37444, Control_c, 0, 64, 0
1, 37456, Note_off_c, 0, 68, 64
1, 37504, Control_c, 0, 64, 127
1, 37608, Note_off_c, 0, 71, 64
1, 37648, Note_off_c, 0, 53, 64
1, 37656, Note_on_c, 0, 70, 51
1, 37684, Note_on_c, 0, 66, 42
1, 37736, Note_on_c, 0, 54, 54
1, 37752, Note_on_c, 0, 61, 69
1, 37752, Control_c, 0, 64, 0
1, 37780, Note_off_c, 0, 66, 64
1, 37792, Note_off_c, 0, 70, 64
1, 37828, Control_c, 0, 64, 127
1, 37856, Note_off_c, 0, 61, 64
1, 38036, Note_on_c, 0, 70, 55
1, 38036, Note_on_c, 0, 66, 55
1, 38088, Note_off_c, 0, 70, 64
1, 38088, Note_off_c, 0, 66, 64
1, 38112, Note_off_c, 0, 54, 64
1, 38120, Note_on_c, 0, 64, 63
1, 38120, Control_c, 0, 64, 0
1, 38132, Note_on_c, 0, 61, 43
1, 38136, Note_on_c, 0, 70, 60
1, 38216, Control_c, 0, 64, 127
1, 38296, Note_off_c, 0, 64, 64
1, 38360, Note_off_c, 0, 70, 64
1, 38464, Note_on_c, 0, 66, 58
1, 38472, Note_on_c, 0, 63, 65
1, 38480, Note_off_c, 0, 61, 64
1, 38484, Control_c, 0, 64, 0
1, 38588, Control_c, 0, 64, 127
1, 38820, Note_on_c, 0, 47, 58
1, 38836, Control_c, 0, 64, 0
1, 38904, Control_c, 0, 64, 127
1, 38988, Note_off_c, 0, 66, 64
1, 39024, Note_off_c, 0, 63, 64
1, 39032, Note_on_c, 0, 71, 32
1, 39040, Note_on_c, 0, 75, 54
1, 39148, Note_on_c, 0, 66, 60
1, 39160, Note_off_c, 0, 71, 64
1, 39160, Note_on_c, 0, 63, 44
1, 39160, Note_on_c, 0, 59, 44
1, 39160, Note_on_c, 0, 54, 44
1, 39168, Note_off_c, 0, 75, 64
1, 39232, Note_off_c, 0, 47, 64
1, 39376, Note_on_c, 0, 73, 59
1, 39484, Control_c, 0, 64, 0
1, 39496, Note_on_c, 0, 77, 65
1, 39496, Note_on_c, 0, 35, 65
1, 39504, Note_off_c, 0, 63, 64
1, 39504, Note_off_c, 0, 59, 64
1, 39504, Note_off_c, 0, 54, 64
1, 39512, Note_off_c, 0, 73, 64
1, 39532, Note_off_c, 0, 66, 64
1, 39544, Control_c, 0, 64, 127
1, 39664, Note_off_c, 0, 77, 64
1, 39688, Note_on_c, 0, 75, 36
1, 39692, Note_on_c, 0, 78, 57
1, 39808, Note_off_c, 0, 75, 64
1, 39836, Note_on_c, 0, 66, 62
1, 39836, Note_on_c, 0, 54, 41
1, 39848, Note_on_c, 0, 63, 50
1, 39860, Tempo, 500000
1, 39860, Note_off_c, 0, 78, 64
1, 39904, Note_off_c, 0, 66, 64
1, 39920, Note_off_c, 0, 63, 64
1, 39932, Note_off_c, 0, 54, 64
1, 40008, Note_on_c, 0, 75, 54
1, 40024, Note_on_c, 0, 78, 58
1, 40096, Note_on_c, 0, 80, 67
1, 40108, Note_off_c, 0, 75, 64
1, 40124, Note_off_c, 0, 78, 64
1, 40152, Note_on_c, 0, 78, 69
1, 40188, Note_off_c, 0, 80, 64
1, 40208, Note_on_c, 0, 54, 31
1, 40212, Note_on_c, 0, 73, 54
1, 40220, Note_on_c, 0, 77, 67
1, 40228, Note_on_c, 0, 66, 37
1, 40236, Control_c, 0, 64, 0
1, 40272, Note_off_c, 0, 78, 64
1, 40292, Control_c, 0, 64, 127
1, 40328, Note_off_c, 0, 66, 64
1, 40336, Note_off_c, 0, 35, 64
1, 40364, Note_on_c, 0, 75, 64
1, 40368, Note_on_c, 0, 71, 56
1, 40376, Note_off_c, 0, 73, 64
1, 40384, Note_off_c, 0, 77, 64
1, 40440, Note_off_c, 0, 54, 64
1, 40456, Note_off_c, 0, 75, 64
1, 40488, Note_off_c, 0, 71, 64
1, 40552, Control_c, 0, 64, 0
1, 40568, Note_on_c, 0, 73, 69
1, 40568, Note_on_c, 0, 42, 59
1, 40576, Note_on_c, 0, 70, 64
1, 40632, Control_c, 0, 64, 127
1, 40928, Note_on_c, 0, 49, 58
1, 40944, Note_off_c, 0, 70, 64
1, 40952, Note_off_c, 0, 42, 64
1, 40960, Note_off_c, 0, 73, 64
1, 41152, Note_on_c, 0, 72, 50
1, 41152, Note_on_c, 0, 69, 36
1, 41188, Note_off_c, 0, 49, 64
1, 41212, Note_off_c, 0, 72, 64
1, 41228, Note_on_c, 0, 61, 66
1, 41228, Control_c, 0, 64, 0
1, 41248, Note_off_c, 0, 69, 64
1, 41260, Note_on_c, 0, 51, 52
1, 41336, Control_c, 0, 64, 127
1, 41460, Note_on_c, 0, 68, 59
1, 41556, Note_off_c, 0, 61, 64
1, 41564, Note_on_c, 0, 71, 62
1, 41568, Note_on_c, 0, 53, 50
1, 41576, Note_off_c, 0, 51, 64
1, 41588, Control_c, 0, 64, 0
1, 41592, Note_off_c, 0, 68, 64
1, 41640, Control_c, 0, 64, 127
1, 41680, Note_off_c, 0, 53, 64
1, 41696, Note_off_c, 0, 71, 64
1, 41772, Note_on_c, 0, 66, 46
1, 41792, Note_on_c, 0, 70, 49
1, 41864, Note_off_c, 0, 66, 64
1, 41864, Note_on_c, 0, 54, 50
1, 41880, Note_on_c, 0, 61, 64
1, 41904, Note_off_c, 0, 70, 64
1, 41912, Control_c, 0, 64, 0
1, 41968, Control_c, 0, 64, 127
1, 41984, Note_off_c, 0, 61, 64
1, 42096, Note_off_c, 0, 54, 64
1, 42096, Note_on_c, 0, 70, 59
1, 42096, Note_on_c, 0, 66, 46
1, 42180, Note_on_c, 0, 69, 59
1, 42184, Note_on_c, 0, 63, 66
1, 42192, Note_off_c, 0, 70, 64
1, 42192, Note_off_c, 0, 66, 64
1, 42208, Note_on_c, 0, 61, 46
1, 42240, Control_c, 0, 64, 0
1, 42308, Control_c, 0, 64, 127
1, 42448, Note_off_c, 0, 63, 64
1, 42448, Note_off_c, 0, 61, 64
1, 42460, Note_off_c, 0, 69, 64
1, 42528, Control_c, 0, 64, 0
1, 42536, Note_on_c, 0, 68, 62
1, 42536, Note_on_c, 0, 66, 58
1, 42548, Note_on_c, 0, 60, 59
1, 42652, Control_c, 0, 64, 127
1, 42888, Note_on_c, 0, 44, 55
1, 42896, Note_off_c, 0, 60, 64
1, 42944, Note_off_c, 0, 68, 64
1, 42944, Note_off_c, 0, 66, 64
1, 43120, Note_on_c, 0, 72, 59
1, 43188, Control_c, 0, 64, 0
1, 43200, Note_on_c, 0, 66, 59
1, 43200, Note_on_c, 0, 58, 51
1, 43208, Note_on_c, 0, 68, 69
1, 43216, Note_off_c, 0, 72, 64
1, 43216, Note_on_c, 0, 56, 46
1, 43276, Control_c, 0, 64, 127
1, 43328, Note_off_c, 0, 56, 64
1, 43344, Note_off_c, 0, 58, 64
1, 43356, Note_off_c, 0, 44, 64
1, 43368, Note_off_c, 0, 66, 64
1, 43416, Note_off_c, 0, 68, 64
1, 43416, Note_on_c, 0, 73, 58
1, 43512, Control_c, 0, 64, 0
1, 43528, Note_on_c, 0, 74, 65
1, 43528, Note_on_c, 0, 56, 55
1, 43548, Note_on_c, 0, 59, 43
1, 43552, Note_off_c, 0, 73, 64
1, 43592, Control_c, 0, 64, 127
1, 43620, Note_off_c, 0, 56, 64
1, 43624, Note_off_c, 0, 59, 64
1, 43692, Note_on_c, 0, 75, 59
1, 43712, Note_off_c, 0, 74, 64
1, 43816, Control_c, 0, 64, 0
1, 43820, Note_on_c, 0, 60, 43
1, 43820, Note_on_c, 0, 56, 58
1, 43828, Note_on_c, 0, 68, 69
1, 43828, Note_on_c, 0, 66, 67
1, 43852, Note_off_c, 0, 75, 64
1, 43908, Note_off_c, 0, 60, 64
1, 43920, Note_off_c, 0, 56, 64
1, 43924, Control_c, 0, 64, 127
1, 43988, Note_on_c, 0, 78, 62
1, 44000, Note_off_c, 0, 68, 64
1, 44000, Note_off_c, 0, 66, 64
1, 44140, Note_on_c, 0, 56, 36
1, 44152, Note_on_c, 0, 65, 55
1, 44152, Note_on_c, 0, 49, 51
1, 44156, Control_c, 0, 64, 0
1, 44164, Note_on_c, 0, 61, 49
1, 44176, Note_on_c, 0, 77, 64
1, 44216, Note_off_c, 0, 78, 64
1, 44240, Control_c, 0, 64, 127
1, 44284, Note_off_c, 0, 56, 64
1, 44296, Note_off_c, 0, 49, 64
1, 44308, Note_off_c, 0, 61, 64
1, 44328, Note_off_c, 0, 65, 64
1, 44352, Note_off_c, 0, 77, 64
1, 44408, Note_on_c, 0, 70, 71
1, 44480, Note_off_c, 0, 70, 64
1, 44496, Note_on_c, 0, 70, 74
1, 44512, Note_on_c, 0, 44, 62
1, 44520, Control_c, 0, 64, 0
1, 44592, Control_c, 0, 64, 127
1, 44836, Note_on_c, 0, 56, 56
1, 44844, Note_on_c, 0, 66, 71
1, 44848, Note_on_c, 0, 63, 57
1, 44864, Control_c, 0, 64, 0
1, 44920, Control_c, 0, 64, 127
1, 44936, Note_off_c, 0, 63, 64
1, 44952, Note_off_c, 0, 56, 64
1, 44984, Note_off_c, 0, 44, 64
1, 45000, Note_off_c, 0, 66, 64
1, 45048, Note_off_c, 0, 70, 64
1, 45048, Note_on_c, 0, 72, 60
1, 45104, Note_on_c, 0, 70, 55
1, 45120, Note_off_c, 0, 72, 64
1, 45144, Note_on_c, 0, 68, 64
1, 45156, Note_on_c, 0, 66, 42
1, 45172, Note_on_c, 0, 56, 57
1, 45180, Note_on_c, 0, 58, 50
1, 45184, Note_off_c, 0, 70, 64
1, 45196, Control_c, 0, 64, 0
1, 45252, Control_c, 0, 64, 127
1, 45264, Note_off_c, 0, 56, 64
1, 45276, Note_off_c, 0, 58, 64
1, 45340, Note_off_c, 0, 66, 64
1, 45352, Note_off_c, 0, 68, 64
1, 45396, Note_on_c, 0, 73, 59
1, 45472, Note_on_c, 0, 59, 39
1, 45476, Note_on_c, 0, 56, 55
1, 45480, Note_on_c, 0, 74, 64
1, 45512, Control_c, 0, 64, 0
1, 45528, Note_off_c, 0, 73, 64
1, 45544, Note_off_c, 0, 59, 64
1, 45560, Control_c, 0, 64, 127
1, 45568, Note_off_c, 0, 56, 64
1, 45624, Note_on_c, 0, 75, 62
1, 45656, Note_off_c, 0, 74, 64
1, 45784, Note_on_c, 0, 66, 69
1, 45784, Note_on_c, 0, 56, 58
1, 45788, Note_on_c, 0, 68, 73
1, 45804, Note_on_c, 0, 60, 40
1, 45816, Note_off_c, 0, 75, 64
1, 45816, Control_c, 0, 64, 0
1, 45848, Control_c, 0, 64, 127
1, 45864, Note_off_c, 0, 60, 64
1, 45876, Note_off_c, 0, 56, 64
1, 45960, Note_off_c, 0, 66, 64
1, 45960, Note_off_c, 0, 68, 64
1, 45960, Note_on_c, 0, 78, 63
1, 46152, Note_on_c, 0, 49, 56
1, 46160, Note_on_c, 0, 61, 54
1, 46168, Note_on_c, 0, 77, 62
1, 46168, Note_on_c, 0, 65, 62
1, 46184, Note_on_c, 0, 56, 26
1, 46188, Note_off_c, 0, 78, 64
1, 46188, Control_c, 0, 64, 0
1, 46244, Control_c, 0, 64, 127
1, 46324, Note_off_c, 0, 49, 64
1, 46336, Note_off_c, 0, 61, 64
1, 46344, Note_off_c, 0, 77, 64
1, 46344, Note_off_c, 0, 65, 64
1, 46360, Note_off_c, 0, 56, 64
1, 46452, Note_on_c, 0, 71, 62
1, 46456, Note_on_c, 0, 75, 62
1, 46504, Note_off_c, 0, 71, 64
1, 46508, Note_off_c, 0, 75, 64
1, 46552, Note_on_c, 0, 71, 69
1, 46556, Note_on_c, 0, 75, 71
1, 46576, Note_on_c, 0, 42, 66
1, 46596, Control_c, 0, 64, 0
1, 46696, Control_c, 0, 64, 127
1, 46944, Note_off_c, 0, 42, 64
1, 47000, Note_off_c, 0, 75, 64
1, 47000, Note_on_c, 0, 49, 41
1, 47008, Note_off_c, 0, 71, 64
1, 47224, Note_on_c, 0, 70, 56
1, 47236, Note_on_c, 0, 73, 44
1, 47272, Note_off_c, 0, 49, 64
1, 47296, Note_on_c, 0, 61, 69
1, 47304, Note_on_c, 0, 51, 60
1, 47320, Control_c, 0, 64, 0
1, 47348, Note_off_c, 0, 70, 64
1, 47348, Note_off_c, 0, 73, 64
1, 47396, Control_c, 0, 64, 127
1, 47544, Note_on_c, 0, 69, 58
1, 47612, Note_off_c, 0, 61, 64
1, 47628, Note_off_c, 0, 51, 64
1, 47628, Note_on_c, 0, 72, 64
1, 47632, Control_c, 0, 64, 0
1, 47648, Note_on_c, 0, 53, 60
1, 47712, Control_c, 0, 64, 127
1, 47716, Note_off_c, 0, 69, 64
1, 47736, Note_off_c, 0, 72, 64
1, 47864, Note_on_c, 0, 71, 55
1, 47872, Note_on_c, 0, 68, 59
1, 47924, Note_off_c, 0, 53, 64
1, 47952, Note_on_c, 0, 61, 73
1, 47960, Note_on_c, 0, 54, 57
1, 47976, Note_off_c, 0, 71, 64
1, 47976, Note_off_c, 0, 68, 64
1, 47976, Control_c, 0, 64, 0
1, 48036, Control_c, 0, 64, 127
1, 48056, Note_off_c, 0, 61, 64
1, 48188, Note_on_c, 0, 70, 55
1, 48204, Note_on_c, 0, 66, 64
1, 48244, Note_off_c, 0, 66, 64
1, 48264, Note_off_c, 0, 70, 64
1, 48296, Note_on_c, 0, 70, 64
1, 48296, Note_on_c, 0, 64, 63
1, 48308, Note_on_c, 0, 61, 43
1, 48328, Control_c, 0, 64, 0
1, 48340, Note_off_c, 0, 54, 64
1, 48428, Control_c, 0, 64, 127
1, 48496, Note_off_c, 0, 64, 64
1, 48500, Note_off_c, 0, 70, 64
1, 48616, Note_off_c, 0, 61, 64
1, 48640, Note_on_c, 0, 66, 58
1, 48644, Note_on_c, 0, 63, 62
1, 48656, Control_c, 0, 64, 0
1, 48756, Control_c, 0, 64, 127
1, 48976, Control_c, 0, 64, 0
1, 48984, Note_on_c, 0, 47, 56
1, 49064, Control_c, 0, 64, 127
1, 49148, Note_off_c, 0, 63, 64
1, 49212, Note_off_c, 0, 66, 64
1, 49240, Note_on_c, 0, 71, 47
1, 49248, Note_on_c, 0, 75, 55
1, 49316, Note_on_c, 0, 54, 57
1, 49324, Note_on_c, 0, 63, 59
1, 49328, Note_on_c, 0, 66, 69
1, 49352, Note_off_c, 0, 71, 64
1, 49364, Note_off_c, 0, 75, 64
1, 49488, Note_off_c, 0, 63, 64
1, 49560, Note_off_c, 0, 47, 64
1, 49564, Note_on_c, 0, 73, 62
1, 49656, Note_off_c, 0, 54, 64
1, 49664, Note_on_c, 0, 35, 79
1, 49672, Note_on_c, 0, 77, 64
1, 49672, Control_c, 0, 64, 0
1, 49720, Note_off_c, 0, 66, 64
1, 49720, Note_off_c, 0, 73, 64
1, 49748, Control_c, 0, 64, 127
1, 49820, Note_off_c, 0, 77, 64
1, 49856, Note_on_c, 0, 78, 62
1, 49864, Note_on_c, 0, 75, 51
1, 49984, Note_off_c, 0, 75, 64
1, 49988, Note_off_c, 0, 78, 64
1, 50024, Note_on_c, 0, 63, 58
1, 50024, Note_on_c, 0, 54, 47
1, 50028, Note_on_c, 0, 66, 62
1, 50096, Note_off_c, 0, 54, 64
1, 50104, Note_off_c, 0, 63, 64
1, 50176, Note_off_c, 0, 66, 64
1, 50228, Note_on_c, 0, 75, 33
1, 50244, Note_on_c, 0, 78, 55
1, 50272, Note_off_c, 0, 75, 64
1, 50312, Note_on_c, 0, 80, 69
1, 50328, Note_off_c, 0, 78, 64
1, 50360, Note_on_c, 0, 78, 69
1, 50396, Note_off_c, 0, 80, 64
1, 50412, Note_on_c, 0, 73, 57
1, 50420, Note_on_c, 0, 77, 69
1, 50424, Note_on_c, 0, 66, 48
1, 50432, Note_on_c, 0, 54, 36
1, 50468, Note_off_c, 0, 78, 64
1, 50468, Control_c, 0, 64, 0
1, 50524, Control_c, 0, 64, 127
1, 50532, Note_off_c, 0, 35, 64
1, 50552, Note_off_c, 0, 66, 64
1, 50556, Note_off_c, 0, 54, 64
1, 50604, Note_off_c, 0, 73, 64
1, 50612, Note_off_c, 0, 77, 64
1, 50612, Note_on_c, 0, 75, 64
1, 50620, Note_on_c, 0, 71, 55
1, 50660, Note_off_c, 0, 75, 64
1, 50680, Note_off_c, 0, 71, 64
1, 50796, Note_on_c, 0, 73, 69
1, 50796, Note_on_c, 0, 42, 62
1, 50800, Note_on_c, 0, 70, 69
1, 50816, Control_c, 0, 64, 0
1, 50904, Control_c, 0, 64, 127
1, 51120, Control_c, 0, 64, 0
1, 51128, Note_off_c, 0, 70, 64
1, 51128, Note_on_c, 0, 49, 60
1, 51152, Note_off_c, 0, 42, 64
1, 51160, Note_off_c, 0, 73, 64
1, 51160, Control_c, 0, 64, 127
1, 51340, Note_on_c, 0, 69, 55
1, 51348, Note_on_c, 0, 72, 47
1, 51396, Note_off_c, 0, 49, 64
1, 51424, Note_on_c, 0, 61, 73
1, 51448, Control_c, 0, 64, 0
1, 51464, Note_off_c, 0, 69, 64
1, 51464, Note_on_c, 0, 51, 56
1, 51472, Note_off_c, 0, 72, 64
1, 51508, Control_c, 0, 64, 127
1, 51656, Note_on_c, 0, 68, 54
1, 51748, Note_off_c, 0, 61, 64
1, 51748, Note_on_c, 0, 71, 63
1, 51756, Note_off_c, 0, 51, 64
1, 51760, Note_on_c, 0, 53, 59
1, 51764, Control_c, 0, 64, 0
1, 51776, Note_off_c, 0, 68, 64
1, 51836, Control_c, 0, 64, 127
1, 51860, Note_off_c, 0, 71, 64
1, 51960, Note_on_c, 0, 66, 32
1, 51968, Note_on_c, 0, 70, 62
1, 52004, Note_off_c, 0, 53, 64
1, 52036, Note_on_c, 0, 54, 50
1, 52048, Note_on_c, 0, 61, 69
1, 52068, Control_c, 0, 64, 0
1, 52080, Note_off_c, 0, 66, 64
1, 52088, Note_off_c, 0, 70, 64
1, 52136, Control_c, 0, 64, 127
1, 52160, Note_off_c, 0, 61, 64
1, 52268, Note_on_c, 0, 66, 32
1, 52272, Note_on_c, 0, 70, 56
1, 52304, Note_on_c, 0, 54, 50
1, 52344, Note_on_c, 0, 69, 57
1, 52360, Note_on_c, 0, 63, 59
1, 52360, Note_on_c, 0, 61, 43
1, 52372, Note_off_c, 0, 54, 64
1, 52372, Note_off_c, 0, 66, 64
1, 52372, Note_off_c, 0, 70, 64
1, 52404, Control_c, 0, 64, 0
1, 52492, Control_c, 0, 64, 127
1, 52528, Note_off_c, 0, 54, 64
1, 52636, Note_off_c, 0, 69, 64
1, 52644, Note_off_c, 0, 63, 64
1, 52648, Note_off_c, 0, 61, 64
1, 52676, Note_on_c, 0, 66, 62
1, 52684, Note_on_c, 0, 68, 59
1, 52688, Note_on_c, 0, 60, 65
1, 52696, Control_c, 0, 64, 0
1, 52784, Control_c, 0, 64, 127
1, 52992, Note_off_c, 0, 60, 64
1, 53008, Note_off_c, 0, 68, 64
1, 53008, Note_on_c, 0, 44, 62
1, 53020, Note_off_c, 0, 66, 64
1, 53240, Note_on_c, 0, 72, 58
1, 53304, Note_on_c, 0, 66, 58
1, 53308, Note_on_c, 0, 68, 59
1, 53316, Note_on_c, 0, 58, 56
1, 53316, Note_on_c, 0, 56, 50
1, 53328, Note_off_c, 0, 72, 64
1, 53336, Control_c, 0, 64, 0
1, 53420, Control_c, 0, 64, 127
1, 53424, Note_off_c, 0, 58, 64
1, 53424, Note_off_c, 0, 56, 64
1, 53472, Note_off_c, 0, 66, 64
1, 53472, Note_off_c, 0, 68, 64
1, 53480, Note_off_c, 0, 44, 64
1, 53544, Note_on_c, 0, 73, 58
1, 53628, Note_on_c, 0, 74, 67
1, 53636, Note_on_c, 0, 59, 58
1, 53640, Note_on_c, 0, 56, 62
1, 53640, Control_c, 0, 64, 0
1, 53664, Note_off_c, 0, 73, 64
1, 53680, Control_c, 0, 64, 127
1, 53724, Note_off_c, 0, 59, 64
1, 53728, Note_off_c, 0, 56, 64
1, 53792, Note_on_c, 0, 75, 58
1, 53832, Note_off_c, 0, 74, 64
1, 53920, Note_on_c, 0, 66, 69
1, 53932, Note_on_c, 0, 68, 73
1, 53936, Note_on_c, 0, 56, 56
1, 53956, Note_on_c, 0, 60, 41
1, 53956, Control_c, 0, 64, 0
1, 53984, Note_off_c, 0, 75, 64
1, 54016, Control_c, 0, 64, 127
1, 54024, Note_off_c, 0, 56, 64
1, 54024, Note_off_c, 0, 60, 64
1, 54060, Note_on_c, 0, 78, 62
1, 54120, Note_off_c, 0, 66, 64
1, 54132, Note_off_c, 0, 68, 64
1, 54240, Note_on_c, 0, 56, 59
1, 54244, Note_on_c, 0, 49, 52
1, 54252, Note_on_c, 0, 65, 47
1, 54252, Note_on_c, 0, 61, 59
1, 54260, Note_on_c, 0, 77, 57
1, 54268, Control_c, 0, 64, 0
1, 54272, Note_off_c, 0, 78, 64
1, 54344, Control_c, 0, 64, 127
1, 54412, Note_off_c, 0, 56, 64
1, 54416, Note_off_c, 0, 49, 64
1, 54424, Note_off_c, 0, 65, 64
1, 54424, Note_off_c, 0, 61, 64
1, 54432, Note_off_c, 0, 77, 64
1, 54464, Note_on_c, 0, 70, 63
1, 54532, Note_off_c, 0, 70, 64
1, 54548, Note_on_c, 0, 70, 71
1, 54560, Note_on_c, 0, 44, 62
1, 54584, Control_c, 0, 64, 0
1, 54684, Control_c, 0, 64, 127
1, 54884, Control_c, 0, 64, 0
1, 54888, Note_on_c, 0, 56, 56
1, 54892, Note_on_c, 0, 66, 77
1, 54904, Note_on_c, 0, 63, 32
1, 54936, Note_off_c, 0, 70, 64
1, 54940, Control_c, 0, 64, 127
1, 54984, Note_off_c, 0, 56, 64
1, 55008, Note_on_c, 0, 72, 47
1, 55032, Note_off_c, 0, 63, 64
1, 55040, Note_off_c, 0, 66, 64
1, 55044, Note_off_c, 0, 44, 64
1, 55072, Note_on_c, 0, 70, 80
1, 55116, Note_off_c, 0, 72, 64
1, 55176, Note_off_c, 0, 70, 64
1, 55188, Note_on_c, 0, 66, 73
1, 55200, Note_on_c, 0, 56, 65
1, 55208, Note_on_c, 0, 68, 62
1, 55212, Note_on_c, 0, 58, 32
1, 55220, Control_c, 0, 64, 0
1, 55280, Control_c, 0, 64, 127
1, 55300, Note_off_c, 0, 56, 64
1, 55300, Note_off_c, 0, 58, 64
1, 55356, Note_off_c, 0, 66, 64
1, 55384, Note_on_c, 0, 73, 58
1, 55400, Note_off_c, 0, 68, 64
1, 55496, Note_on_c, 0, 56, 62
1, 55508, Note_on_c, 0, 74, 65
1, 55508, Note_on_c, 0, 59, 58
1, 55520, Note_off_c, 0, 73, 64
1, 55520, Control_c, 0, 64, 0
1, 55556, Control_c, 0, 64, 127
1, 55580, Note_off_c, 0, 56, 64
1, 55584, Note_off_c, 0, 59, 64
1, 55660, Note_on_c, 0, 75, 69
1, 55684, Note_off_c, 0, 74, 64
1, 55804, Note_on_c, 0, 66, 58
1, 55808, Note_on_c, 0, 68, 63
1, 55816, Note_on_c, 0, 56, 60
1, 55820, Control_c, 0, 64, 0
1, 55836, Note_on_c, 0, 60, 47
1, 55848, Note_off_c, 0, 75, 64
1, 55880, Control_c, 0, 64, 127
1, 55900, Note_off_c, 0, 60, 64
1, 55912, Note_off_c, 0, 56, 64
1, 55968, Note_off_c, 0, 68, 64
1, 55988, Note_on_c, 0, 78, 69
1, 56004, Note_off_c, 0, 66, 64
1, 56112, Control_c, 0, 64, 0
1, 56132, Note_on_c, 0, 49, 58
1, 56136, Note_on_c, 0, 61, 56
1, 56136, Note_on_c, 0, 56, 74
1, 56148, Note_on_c, 0, 77, 69
1, 56152, Note_on_c, 0, 65, 58
1, 56168, Control_c, 0, 64, 127
1, 56184, Note_off_c, 0, 78, 64
1, 56336, Note_on_c, 0, 47, 73
1, 56432, Note_off_c, 0, 49, 64
1, 56568, Note_on_c, 0, 46, 59
1, 56592, Note_off_c, 0, 47, 64
1, 56592, Control_c, 0, 64, 0
1, 56648, Note_off_c, 0, 61, 64
1, 56648, Note_off_c, 0, 56, 64
1, 56648, Note_on_c, 0, 80, 89
1, 56660, Note_off_c, 0, 77, 64
1, 56664, Note_off_c, 0, 65, 64
1, 56676, Control_c, 0, 64, 127
1, 56980, Note_on_c, 0, 58, 36
1, 56992, Note_on_c, 0, 74, 60
1, 56992, Note_on_c, 0, 68, 44
1, 57124, Note_on_c, 0, 79, 62
1, 57160, Note_off_c, 0, 46, 64
1, 57160, Note_off_c, 0, 80, 64
1, 57160, Note_off_c, 0, 58, 64
1, 57172, Note_off_c, 0, 74, 64
1, 57172, Note_off_c, 0, 68, 64
1, 57260, Note_on_c, 0, 75, 66
1, 57260, Note_on_c, 0, 73, 54
1, 57260, Note_on_c, 0, 67, 44
1, 57260, Note_on_c, 0, 63, 54
1, 57260, Note_on_c, 0, 58, 55
1, 57260, Note_on_c, 0, 51, 54
1, 57288, Control_c, 0, 64, 0
1, 57308, Note_off_c, 0, 79, 64
1, 57308, Control_c, 0, 64, 127
1, 57384, Note_on_c, 0, 77, 62
1, 57416, Note_off_c, 0, 75, 64
1, 57440, Note_off_c, 0, 73, 64
1, 57440, Note_off_c, 0, 67, 64
1, 57440, Note_off_c, 0, 63, 64
1, 57440, Note_off_c, 0, 58, 64
1, 57440, Note_off_c, 0, 51, 64
1, 57504, Note_on_c, 0, 44, 60
1, 57512, Note_on_c, 0, 78, 72
1, 57544, Note_off_c, 0, 77, 64
1, 57600, Note_on_c, 0, 80, 65
1, 57632, Note_off_c, 0, 78, 64
1, 57664, Note_on_c, 0, 78, 65
1, 57676, Note_off_c, 0, 80, 64
1, 57780, Note_on_c, 0, 56, 44
1, 57784, Note_on_c, 0, 72, 55
1, 57784, Note_on_c, 0, 66, 56
1, 57788, Note_on_c, 0, 77, 67
1, 57800, Note_off_c, 0, 78, 64
1, 57808, Control_c, 0, 64, 0
1, 57828, Control_c, 0, 64, 127
1, 57912, Note_on_c, 0, 75, 64
1, 57944, Note_off_c, 0, 77, 64
1, 57960, Note_off_c, 0, 56, 64
1, 57964, Note_off_c, 0, 72, 64
1, 57964, Note_off_c, 0, 66, 64
1, 58004, Note_off_c, 0, 44, 64
1, 58028, Note_on_c, 0, 49, 43
1, 58032, Note_on_c, 0, 77, 64
1, 58032, Control_c, 0, 64, 0
1, 58036, Note_on_c, 0, 61, 41
1, 58036, Note_on_c, 0, 56, 41
1, 58044, Note_on_c, 0, 71, 63
1, 58048, Note_on_c, 0, 65, 48
1, 58048, Control_c, 0, 64, 127
1, 58056, Note_off_c, 0, 75, 64
1, 58064, Control_c, 0, 64, 0
1, 58080, Control_c, 0, 64, 127
1, 58168, Note_on_c, 0, 73, 66
1, 58208, Note_off_c, 0, 49, 64
1, 58212, Note_off_c, 0, 77, 64
1, 58216, Note_off_c, 0, 61, 64
1, 58216, Note_off_c, 0, 56, 64
1, 58224, Note_off_c, 0, 71, 64
1, 58224, Note_off_c, 0, 65, 64
1, 58324, Note_on_c, 0, 76, 71
1, 58336, Note_on_c, 0, 42, 51
1, 58348, Note_off_c, 0, 73, 64
1, 58352, Control_c, 0, 64, 0
1, 58416, Control_c, 0, 64, 127
1, 58580, Note_on_c, 0, 64, 42
1, 58584, Note_on_c, 0, 54, 28
1, 58592, Note_on_c, 0, 70, 42
1, 58712, Note_on_c, 0, 75, 63
1, 58736, Note_off_c, 0, 76, 64
1, 58760, Note_off_c, 0, 64, 64
1, 58764, Note_off_c, 0, 54, 64
1, 58768, Note_off_c, 0, 70, 64
1, 58820, Note_off_c, 0, 42, 64
1, 58828, Note_on_c, 0, 71, 64
1, 58828, Note_on_c, 0, 69, 44
1, 58828, Note_on_c, 0, 63, 56
1, 58828, Note_on_c, 0, 59, 42
1, 58828, Note_on_c, 0, 54, 56
1, 58832, Note_on_c, 0, 47, 44
1, 58848, Note_off_c, 0, 75, 64
1, 58936, Note_on_c, 0, 73, 52
1, 58952, Note_off_c, 0, 71, 64
1, 59008, Note_off_c, 0, 69, 64
1, 59008, Note_off_c, 0, 63, 64
1, 59008, Note_off_c, 0, 59, 64
1, 59008, Note_off_c, 0, 54, 64
1, 59012, Note_off_c, 0, 47, 64
1, 59072, Note_on_c, 0, 74, 52
1, 59084, Note_on_c, 0, 40, 55
1, 59104, Note_off_c, 0, 73, 64
1, 59180, Note_on_c, 0, 76, 65
1, 59200, Note_off_c, 0, 74, 64
1, 59252, Note_on_c, 0, 74, 66
1, 59272, Note_off_c, 0, 76, 64
1, 59344, Note_on_c, 0, 62, 50
1, 59348, Note_on_c, 0, 73, 58
1, 59352, Note_on_c, 0, 68, 56
1, 59356, Note_on_c, 0, 52, 31
1, 59400, Note_off_c, 0, 74, 64
1, 59472, Note_off_c, 0, 73, 64
1, 59472, Note_on_c, 0, 71, 62
1, 59524, Note_off_c, 0, 62, 64
1, 59528, Note_off_c, 0, 68, 64
1, 59536, Note_off_c, 0, 40, 64
1, 59536, Note_off_c, 0, 52, 64
1, 59624, Note_on_c, 0, 69, 64
1, 59628, Note_on_c, 0, 61, 60
1, 59632, Note_on_c, 0, 73, 62
1, 59632, Note_on_c, 0, 45, 32
1, 59644, Note_off_c, 0, 71, 64
1, 59644, Note_on_c, 0, 57, 24
1, 59656, Control_c, 0, 64, 0
1, 59744, Control_c, 0, 64, 127
1, 59944, Note_off_c, 0, 69, 64
1, 59948, Note_off_c, 0, 61, 64
1, 59952, Note_off_c, 0, 73, 64
1, 59956, Note_off_c, 0, 45, 64
1, 59964, Note_off_c, 0, 57, 64
1, 59980, Note_on_c, 0, 73, 74
1, 60008, Note_on_c, 0, 39, 44
1, 60008, Control_c, 0, 64, 0
1, 60072, Control_c, 0, 64, 127
1, 60296, Note_on_c, 0, 61, 50
1, 60296, Note_on_c, 0, 51, 51
1, 60304, Note_on_c, 0, 67, 48
1, 60352, Note_off_c, 0, 73, 64
1, 60436, Note_on_c, 0, 72, 62
1, 60476, Note_off_c, 0, 61, 64
1, 60476, Note_off_c, 0, 51, 64
1, 60480, Note_off_c, 0, 67, 64
1, 60536, Note_off_c, 0, 39, 64
1, 60552, Control_c, 0, 64, 0
1, 60556, Note_on_c, 0, 56, 48
1, 60556, Note_on_c, 0, 51, 48
1, 60556, Note_on_c, 0, 44, 43
1, 60564, Note_on_c, 0, 60, 54
1, 60564, Note_on_c, 0, 66, 57
1, 60568, Note_on_c, 0, 68, 66
1, 60568, Control_c, 0, 64, 127
1, 60584, Note_off_c, 0, 72, 64
1, 60600, Control_c, 0, 64, 127
1, 60684, Note_on_c, 0, 70, 54
1, 60708, Note_off_c, 0, 68, 64
1, 60736, Note_off_c, 0, 56, 64
1, 60736, Note_off_c, 0, 51, 64
1, 60736, Note_off_c, 0, 44, 64
1, 60744, Note_off_c, 0, 60, 64
1, 60744, Note_off_c, 0, 66, 64
1, 60804, Note_on_c, 0, 71, 60
1, 60820, Note_on_c, 0, 37, 50
1, 60824, Note_off_c, 0, 70, 64
1, 60824, Control_c, 0, 64, 0
1, 60852, Control_c, 0, 64, 127
1, 60904, Note_on_c, 0, 73, 57
1, 60936, Note_off_c, 0, 71, 64
1, 60968, Note_on_c, 0, 71, 55
1, 60984, Note_off_c, 0, 73, 64
1, 61056, Control_c, 0, 64, 0
1, 61076, Note_on_c, 0, 70, 56
1, 61076, Note_on_c, 0, 65, 56
1, 61076, Note_on_c, 0, 49, 34
1, 61076, Note_on_c, 0, 59, 47
1, 61092, Control_c, 0, 64, 127
1, 61112, Note_off_c, 0, 71, 64
1, 61196, Note_on_c, 0, 68, 50
1, 61200, Note_off_c, 0, 70, 64
1, 61256, Note_off_c, 0, 65, 64
1, 61256, Note_off_c, 0, 49, 64
1, 61256, Note_off_c, 0, 59, 64
1, 61288, Note_off_c, 0, 37, 64
1, 61320, Note_off_c, 0, 68, 64
1, 61320, Note_on_c, 0, 70, 69
1, 61320, Note_on_c, 0, 58, 50
1, 61320, Note_on_c, 0, 54, 39
1, 61320, Note_on_c, 0, 42, 37
1, 61320, Control_c, 0, 64, 0
1, 61324, Note_on_c, 0, 49, 41
1, 61360, Control_c, 0, 64, 127
1, 61444, Note_on_c, 0, 66, 49
1, 61480, Note_off_c, 0, 70, 64
1, 61496, Note_off_c, 0, 42, 64
1, 61496, Note_off_c, 0, 54, 64
1, 61496, Note_off_c, 0, 58, 64
1, 61504, Note_off_c, 0, 49, 64
1, 61560, Note_on_c, 0, 54, 51
1, 61560, Control_c, 0, 64, 0
1, 61568, Note_on_c, 0, 63, 75
1, 61568, Note_on_c, 0, 47, 51
1, 61572, Note_on_c, 0, 59, 63
1, 61600, Note_off_c, 0, 66, 64
1, 61624, Control_c, 0, 64, 127
1, 61780, Note_off_c, 0, 47, 64
1, 61788, Note_off_c, 0, 54, 64
1, 61808, Note_off_c, 0, 63, 64
1, 61812, Note_off_c, 0, 59, 64
1, 61844, Note_on_c, 0, 47, 46
1, 61848, Note_on_c, 0, 63, 49
1, 61856, Note_on_c, 0, 66, 64
1, 61860, Note_on_c, 0, 54, 52
1, 61880, Control_c, 0, 64, 0
1, 61900, Control_c, 0, 64, 127
1, 61964, Note_on_c, 0, 68, 65
1, 61988, Note_off_c, 0, 66, 64
1, 62024, Note_off_c, 0, 47, 64
1, 62028, Note_off_c, 0, 63, 64
1, 62044, Note_off_c, 0, 54, 64
1, 62100, Note_on_c, 0, 54, 55
1, 62100, Note_on_c, 0, 70, 64
1, 62108, Note_off_c, 0, 68, 64
1, 62112, Note_on_c, 0, 63, 60
1, 62112, Note_on_c, 0, 42, 55
1, 62112, Control_c, 0, 64, 0
1, 62136, Control_c, 0, 64, 127
1, 62232, Note_on_c, 0, 71, 67
1, 62256, Note_off_c, 0, 70, 64
1, 62280, Note_off_c, 0, 54, 64
1, 62292, Note_off_c, 0, 63, 64
1, 62292, Note_off_c, 0, 42, 64
1, 62352, Note_on_c, 0, 63, 59
1, 62352, Note_on_c, 0, 54, 58
1, 62356, Control_c, 0, 64, 0
1, 62368, Note_on_c, 0, 47, 59
1, 62380, Control_c, 0, 64, 127
1, 62432, Note_on_c, 0, 73, 62
1, 62464, Note_off_c, 0, 71, 64
1, 62508, Note_on_c, 0, 71, 63
1, 62524, Note_off_c, 0, 73, 64
1, 62536, Note_off_c, 0, 63, 64
1, 62536, Note_off_c, 0, 54, 64
1, 62548, Note_off_c, 0, 47, 64
1, 62588, Note_on_c, 0, 54, 49
1, 62604, Note_on_c, 0, 61, 58
1, 62608, Note_on_c, 0, 70, 80
1, 62616, Note_on_c, 0, 49, 36
1, 62640, Note_off_c, 0, 71, 64
1, 62712, Note_on_c, 0, 68, 58
1, 62752, Note_off_c, 0, 70, 64
1, 62768, Note_off_c, 0, 54, 64
1, 62788, Note_off_c, 0, 61, 64
1, 62800, Note_off_c, 0, 49, 64
1, 62828, Note_on_c, 0, 61, 47
1, 62828, Control_c, 0, 64, 0
1, 62840, Note_on_c, 0, 70, 77
1, 62840, Note_on_c, 0, 54, 58
1, 62848, Note_on_c, 0, 42, 64
1, 62860, Note_off_c, 0, 68, 64
1, 62872, Control_c, 0, 64, 127
1, 62964, Note_on_c, 0, 66, 57
1, 62996, Note_off_c, 0, 70, 64
1, 63012, Note_off_c, 0, 61, 64
1, 63020, Note_off_c, 0, 54, 64
1, 63032, Note_off_c, 0, 42, 64
1, 63064, Control_c, 0, 64, 0
1, 63080, Note_on_c, 0, 54, 47
1, 63088, Note_on_c, 0, 63, 60
1, 63092, Note_on_c, 0, 47, 59
1, 63112, Note_off_c, 0, 66, 64
1, 63120, Control_c, 0, 64, 127
1, 63212, Note_on_c, 0, 65, 50
1, 63260, Note_off_c, 0, 54, 64
1, 63272, Note_off_c, 0, 63, 64
1, 63272, Note_off_c, 0, 47, 64
1, 63276, Control_c, 0, 64, 0
1, 63328, Note_on_c, 0, 54, 43
1, 63332, Note_on_c, 0, 66, 55
1, 63336, Note_on_c, 0, 63, 58
1, 63340, Note_on_c, 0, 47, 56
1, 63348, Note_off_c, 0, 65, 64
1, 63368, Control_c, 0, 64, 127
1, 63452, Note_on_c, 0, 68, 64
1, 63480, Note_off_c, 0, 66, 64
1, 63508, Note_off_c, 0, 54, 64
1, 63512, Control_c, 0, 64, 0
1, 63516, Note_off_c, 0, 63, 64
1, 63520, Note_off_c, 0, 47, 64
1, 63576, Note_on_c, 0, 63, 50
1, 63576, Note_on_c, 0, 70, 64
1, 63580, Note_on_c, 0, 54, 40
1, 63588, Note_on_c, 0, 42, 56
1, 63604, Control_c, 0, 64, 127
1, 63608, Note_off_c, 0, 68, 64
1, 63696, Note_on_c, 0, 71, 64
1, 63720, Note_off_c, 0, 70, 64
1, 63756, Note_off_c, 0, 63, 64
1, 63764, Note_off_c, 0, 54, 64
1, 63768, Note_off_c, 0, 42, 64
1, 63780, Control_c, 0, 64, 0
1, 63820, Note_on_c, 0, 63, 60
1, 63828, Note_on_c, 0, 54, 55
1, 63840, Note_on_c, 0, 47, 62
1, 63848, Control_c, 0, 64, 127
1, 63916, Note_on_c, 0, 73, 58
1, 63932, Note_off_c, 0, 71, 64
1, 63968, Note_on_c, 0, 71, 73
1, 64004, Note_off_c, 0, 63, 64
1, 64008, Note_off_c, 0, 73, 64
1, 64012, Note_off_c, 0, 54, 64
1, 64020, Note_off_c, 0, 47, 64
1, 64028, Control_c, 0, 64, 0
1, 64076, Note_on_c, 0, 47, 50
1, 64080, Note_on_c, 0, 53, 50
1, 64084, Note_on_c, 0, 63, 58
1, 64096, Note_on_c, 0, 70, 56
1, 64104, Control_c, 0, 64, 127
1, 64128, Note_off_c, 0, 71, 64
1, 64192, Note_on_c, 0, 68, 73
1, 64232, Note_off_c, 0, 70, 64
1, 64260, Note_off_c, 0, 47, 64
1, 64260, Note_off_c, 0, 53, 64
1, 64264, Note_off_c, 0, 63, 64
1, 64340, Note_on_c, 0, 46, 44
1, 64344, Note_on_c, 0, 53, 47
1, 64348, Note_on_c, 0, 70, 92
1, 64360, Note_on_c, 0, 62, 66
1, 64372, Control_c, 0, 64, 0
1, 64376, Note_off_c, 0, 68, 64
1, 64440, Control_c, 0, 64, 127
1, 64532, Note_off_c, 0, 46, 64
1, 64536, Note_off_c, 0, 53, 64
1, 64540, Note_off_c, 0, 70, 64
1, 64552, Note_off_c, 0, 62, 64
1, 64760, Note_on_c, 0, 34, 67
1, 64764, Note_on_c, 0, 80, 95
1, 64776, Control_c, 0, 64, 0
1, 64848, Control_c, 0, 64, 127
1, 65112, Note_on_c, 0, 68, 72
1, 65112, Note_on_c, 0, 58, 59
1, 65116, Note_on_c, 0, 74, 67
1, 65244, Note_on_c, 0, 79, 71
1, 65256, Note_off_c, 0, 80, 64
1, 65276, Note_off_c, 0, 34, 64
1, 65292, Note_off_c, 0, 68, 64
1, 65292, Note_off_c, 0, 58, 64
1, 65296, Note_off_c, 0, 74, 64
1, 65360, Note_on_c, 0, 58, 57
1, 65360, Note_on_c, 0, 51, 58
1, 65360, Note_on_c, 0, 67, 2
1, 65360, Note_on_c, 0, 63, 60
1, 65364, Note_on_c, 0, 75, 74
1, 65364, Note_on_c, 0, 73, 48
1, 65392, Note_off_c, 0, 79, 64
1, 65392, Control_c, 0, 64, 0
1, 65408, Control_c, 0, 64, 127
1, 65480, Note_on_c, 0, 77, 66
1, 65504, Note_off_c, 0, 75, 64
1, 65540, Note_off_c, 0, 58, 64
1, 65540, Note_off_c, 0, 51, 64
1, 65540, Note_off_c, 0, 67, 64
1, 65540, Note_off_c, 0, 63, 64
1, 65544, Note_off_c, 0, 73, 64
1, 65608, Note_on_c, 0, 73, 74
1, 65608, Note_on_c, 0, 66, 69
1, 65608, Note_on_c, 0, 58, 32
1, 65608, Note_on_c, 0, 46, 62
1, 65612, Note_on_c, 0, 78, 74
1, 65628, Control_c, 0, 64, 0
1, 65632, Note_off_c, 0, 77, 64
1, 65656, Control_c, 0, 64, 127
1, 65716, Note_on_c, 0, 80, 70
1, 65752, Note_off_c, 0, 78, 64
1, 65784, Note_off_c, 0, 73, 64
1, 65784, Note_off_c, 0, 66, 64
1, 65784, Note_off_c, 0, 58, 64
1, 65784, Note_off_c, 0, 46, 64
1, 65784, Note_on_c, 0, 78, 70
1, 65816, Note_off_c, 0, 80, 64
1, 65864, Control_c, 0, 64, 0
1, 65880, Note_on_c, 0, 72, 71
1, 65880, Note_on_c, 0, 66, 72
1, 65880, Note_on_c, 0, 56, 51
1, 65888, Note_on_c, 0, 44, 59
1, 65896, Control_c, 0, 64, 127
1, 65912, Note_on_c, 0, 77, 75
1, 65940, Tempo, 500000
1, 65940, Note_off_c, 0, 78, 64
1, 66024, Note_on_c, 0, 77, 36
1, 66028, Note_off_c, 0, 77, 64
1, 66032, Note_on_c, 0, 75, 75
1, 66060, Note_off_c, 0, 56, 64
1, 66060, Note_off_c, 0, 66, 64
1, 66060, Note_off_c, 0, 72, 64
1, 66068, Note_off_c, 0, 44, 64
1, 66068, Note_off_c, 0, 77, 64
1, 66144, Note_on_c, 0, 65, 40
1, 66144, Note_on_c, 0, 61, 59
1, 66144, Control_c, 0, 64, 0
1, 66152, Note_off_c, 0, 75, 64
1, 66152, Note_on_c, 0, 71, 50
1, 66152, Note_on_c, 0, 56, 59
1, 66152, Note_on_c, 0, 49, 57
1, 66152, Note_on_c, 0, 77, 70
1, 66176, Control_c, 0, 64, 127
1, 66204, Control_c, 0, 64, 127
1, 66268, Note_on_c, 0, 73, 78
1, 66300, Note_off_c, 0, 77, 64
1, 66324, Note_off_c, 0, 65, 64
1, 66324, Note_off_c, 0, 61, 64
1, 66328, Note_off_c, 0, 71, 64
1, 66328, Note_off_c, 0, 56, 64
1, 66328, Note_off_c, 0, 49, 64
1, 66388, Note_on_c, 0, 64, 64
1, 66392, Note_on_c, 0, 44, 58
1, 66392, Note_on_c, 0, 76, 73
1, 66392, Note_on_c, 0, 71, 57
1, 66392, Note_on_c, 0, 56, 41
1, 66400, Note_off_c, 0, 73, 64
1, 66424, Control_c, 0, 64, 0
1, 66440, Control_c, 0, 64, 127
1, 66568, Note_off_c, 0, 64, 64
1, 66568, Note_off_c, 0, 44, 64
1, 66572, Note_off_c, 0, 71, 64
1, 66572, Note_off_c, 0, 56, 64
1, 66660, Note_on_c, 0, 42, 57
1, 66664, Note_on_c, 0, 54, 39
1, 66664, Note_on_c, 0, 70, 74
1, 66664, Note_on_c, 0, 64, 65
1, 66684, Control_c, 0, 64, 0
1, 66700, Control_c, 0, 64, 127
1, 66796, Note_on_c, 0, 75, 59
1, 66812, Note_off_c, 0, 76, 64
1, 66840, Note_off_c, 0, 42, 64
1, 66840, Note_off_c, 0, 54, 64
1, 66844, Note_off_c, 0, 70, 64
1, 66844, Note_off_c, 0, 64, 64
1, 66936, Note_on_c, 0, 47, 52
1, 66936, Note_on_c, 0, 54, 32
1, 66936, Note_on_c, 0, 59, 32
1, 66936, Note_on_c, 0, 63, 71
1, 66936, Note_on_c, 0, 69, 64
1, 66940, Note_on_c, 0, 71, 72
1, 66944, Control_c, 0, 64, 0
1, 66964, Control_c, 0, 64, 127
1, 66972, Note_off_c, 0, 75, 64
1, 66988, Control_c, 0, 64, 127
1, 67068, Note_on_c, 0, 73, 55
1, 67116, Note_off_c, 0, 47, 64
1, 67116, Note_off_c, 0, 54, 64
1, 67116, Note_off_c, 0, 59, 64
1, 67116, Note_off_c, 0, 63, 64
1, 67116, Note_off_c, 0, 69, 64
1, 67120, Note_off_c, 0, 71, 64
1, 67192, Note_on_c, 0, 74, 60
1, 67192, Note_on_c, 0, 42, 63
1, 67192, Note_on_c, 0, 62, 60
1, 67192, Note_on_c, 0, 69, 60
1, 67192, Note_on_c, 0, 54, 27
1, 67208, Note_off_c, 0, 73, 64
1, 67288, Note_on_c, 0, 76, 65
1, 67300, Note_off_c, 0, 74, 64
1, 67352, Note_on_c, 0, 74, 64
1, 67372, Note_off_c, 0, 42, 64
1, 67372, Note_off_c, 0, 62, 64
1, 67372, Note_off_c, 0, 69, 64
1, 67372, Note_off_c, 0, 54, 64
1, 67372, Note_off_c, 0, 76, 64
1, 67436, Control_c, 0, 64, 0
1, 67476, Note_on_c, 0, 68, 55
1, 67476, Note_on_c, 0, 73, 55
1, 67476, Note_on_c, 0, 62, 59
1, 67480, Note_on_c, 0, 52, 29
1, 67480, Note_on_c, 0, 40, 51
1, 67496, Note_off_c, 0, 74, 64
1, 67504, Control_c, 0, 64, 127
1, 67616, Note_on_c, 0, 71, 57
1, 67640, Note_off_c, 0, 73, 64
1, 67656, Note_off_c, 0, 52, 64
1, 67656, Note_off_c, 0, 62, 64
1, 67656, Note_off_c, 0, 68, 64
1, 67660, Note_off_c, 0, 40, 64
1, 67776, Note_on_c, 0, 73, 66
1, 67776, Note_on_c, 0, 69, 39
1, 67776, Note_on_c, 0, 61, 46
1, 67776, Note_on_c, 0, 57, 35
1, 67776, Note_on_c, 0, 52, 35
1, 67776, Note_on_c, 0, 45, 36
1, 67792, Control_c, 0, 64, 0
1, 67812, Note_off_c, 0, 71, 64
1, 67824, Control_c, 0, 64, 0
1, 67896, Control_c, 0, 64, 127
1, 68112, Note_off_c, 0, 73, 64
1, 68112, Note_off_c, 0, 69, 64
1, 68112, Note_off_c, 0, 61, 64
1, 68112, Note_off_c, 0, 57, 64
1, 68112, Note_off_c, 0, 52, 64
1, 68112, Note_off_c, 0, 45, 64
1, 68148, Note_on_c, 0, 61, 58
1, 68148, Note_on_c, 0, 73, 71
1, 68148, Note_on_c, 0, 68, 36
1, 68148, Note_on_c, 0, 52, 27
1, 68148, Note_on_c, 0, 40, 9
1, 68164, Control_c, 0, 64, 0
1, 68220, Control_c, 0, 64, 127
1, 68328, Note_off_c, 0, 61, 64
1, 68328, Note_off_c, 0, 68, 64
1, 68328, Note_off_c, 0, 52, 64
1, 68328, Note_off_c, 0, 40, 64
1, 68432, Control_c, 0, 64, 0
1, 68448, Note_on_c, 0, 39, 54
1, 68448, Note_on_c, 0, 67, 50
1, 68448, Note_on_c, 0, 51, 41
1, 68452, Note_on_c, 0, 61, 34
1, 68464, Control_c, 0, 64, 127
1, 68568, Note_on_c, 0, 72, 59
1, 68592, Note_off_c, 0, 73, 64
1, 68628, Note_off_c, 0, 39, 64
1, 68628, Note_off_c, 0, 67, 64
1, 68628, Note_off_c, 0, 51, 64
1, 68632, Note_off_c, 0, 61, 64
1, 68680, Note_on_c, 0, 44, 42
1, 68680, Note_on_c, 0, 56, 41
1, 68684, Note_on_c, 0, 68, 65
1, 68684, Note_on_c, 0, 66, 48
1, 68684, Note_on_c, 0, 60, 41
1, 68684, Note_on_c, 0, 51, 41
1, 68688, Control_c, 0, 64, 0
1, 68716, Note_off_c, 0, 72, 64
1, 68720, Control_c, 0, 64, 127
1, 68800, Note_on_c, 0, 70, 54
1, 68812, Note_off_c, 0, 68, 64
1, 68860, Note_off_c, 0, 44, 64
1, 68860, Note_off_c, 0, 56, 64
1, 68864, Note_off_c, 0, 66, 64
1, 68864, Note_off_c, 0, 60, 64
1, 68864, Note_off_c, 0, 51, 64
1, 68940, Note_on_c, 0, 66, 37
1, 68940, Note_on_c, 0, 51, 28
1, 68940, Note_on_c, 0, 39, 43
1, 68944, Note_on_c, 0, 71, 59
1, 68956, Note_off_c, 0, 70, 64
1, 69028, Note_on_c, 0, 73, 42
1, 69036, Note_off_c, 0, 71, 64
1, 69088, Note_on_c, 0, 71, 57
1, 69104, Note_off_c, 0, 73, 64
1, 69120, Note_off_c, 0, 66, 64
1, 69120, Note_off_c, 0, 51, 64
1, 69120, Note_off_c, 0, 39, 64
1, 69180, Control_c, 0, 64, 0
1, 69196, Note_on_c, 0, 49, 32
1, 69196, Note_on_c, 0, 37, 37
1, 69200, Note_on_c, 0, 70, 60
1, 69200, Note_on_c, 0, 65, 43
1, 69204, Note_on_c, 0, 59, 36
1, 69216, Note_off_c, 0, 71, 64
1, 69216, Control_c, 0, 64, 127
1, 69308, Note_on_c, 0, 68, 56
1, 69320, Note_off_c, 0, 70, 64
1, 69376, Note_off_c, 0, 49, 64
1, 69376, Note_off_c, 0, 37, 64
1, 69380, Note_off_c, 0, 65, 64
1, 69384, Note_off_c, 0, 59, 64
1, 69420, Control_c, 0, 64, 0
1, 69428, Note_on_c, 0, 70, 59
1, 69428, Note_on_c, 0, 58, 43
1, 69428, Note_on_c, 0, 54, 32
1, 69432, Note_off_c, 0, 68, 64
1, 69432, Note_on_c, 0, 42, 32
1, 69480, Control_c, 0, 64, 127
1, 69564, Note_on_c, 0, 66, 48
1, 69572, Note_off_c, 0, 70, 64
1, 69608, Note_off_c, 0, 58, 64
1, 69608, Note_off_c, 0, 54, 64
1, 69608, Note_off_c, 0, 42, 64
1, 69652, Control_c, 0, 64, 0
1, 69664, Note_on_c, 0, 47, 58
1, 69664, Note_on_c, 0, 54, 58
1, 69664, Note_on_c, 0, 63, 73
1, 69664, Note_on_c, 0, 59, 70
1, 69692, Note_off_c, 0, 66, 64
1, 69732, Control_c, 0, 64, 127
1, 69900, Note_off_c, 0, 47, 64
1, 69900, Note_off_c, 0, 54, 64
1, 69900, Note_off_c, 0, 63, 64
1, 69900, Note_off_c, 0, 59, 64
1, 69912, Note_on_c, 0, 63, 58
1, 69924, Note_on_c, 0, 66, 66
1, 69928, Note_on_c, 0, 54, 46
1, 69964, Note_on_c, 0, 47, 27
1, 70032, Note_on_c, 0, 68, 63
1, 70048, Note_off_c, 0, 66, 64
1, 70096, Note_off_c, 0, 63, 64
1, 70112, Note_off_c, 0, 54, 64
1, 70148, Note_off_c, 0, 47, 64
1, 70152, Control_c, 0, 64, 0
1, 70164, Note_on_c, 0, 70, 59
1, 70164, Note_on_c, 0, 63, 60
1, 70168, Note_on_c, 0, 54, 56
1, 70172, Note_off_c, 0, 68, 64
1, 70172, Note_on_c, 0, 42, 63
1, 70200, Control_c, 0, 64, 127
1, 70284, Note_on_c, 0, 71, 72
1, 70308, Note_off_c, 0, 70, 64
1, 70344, Note_off_c, 0, 63, 64
1, 70352, Note_off_c, 0, 54, 64
1, 70356, Note_off_c, 0, 42, 64
1, 70376, Control_c, 0, 64, 0
1, 70396, Note_on_c, 0, 63, 60
1, 70408, Note_on_c, 0, 47, 58
1, 70416, Note_on_c, 0, 54, 42
1, 70460, Control_c, 0, 64, 127
1, 70468, Note_on_c, 0, 73, 67
1, 70484, Note_off_c, 0, 71, 64
1, 70544, Note_on_c, 0, 71, 56
1, 70556, Note_off_c, 0, 73, 64
1, 70580, Note_off_c, 0, 63, 64
1, 70580, Control_c, 0, 64, 0
1, 70592, Note_off_c, 0, 47, 64
1, 70596, Note_off_c, 0, 54, 64
1, 70632, Note_on_c, 0, 61, 51
1, 70632, Note_on_c, 0, 42, 64
1, 70640, Note_on_c, 0, 54, 46
1, 70644, Note_on_c, 0, 70, 73
1, 70664, Note_off_c, 0, 71, 64
1, 70672, Control_c, 0, 64, 127
1, 70744, Note_on_c, 0, 68, 59
1, 70776, Note_off_c, 0, 70, 64
1, 70812, Note_off_c, 0, 42, 64
1, 70812, Note_off_c, 0, 61, 64
1, 70824, Note_off_c, 0, 54, 64
1, 70832, Control_c, 0, 64, 0
1, 70864, Note_on_c, 0, 70, 74
1, 70864, Note_on_c, 0, 61, 56
1, 70872, Note_on_c, 0, 42, 56
1, 70880, Note_off_c, 0, 68, 64
1, 70880, Note_on_c, 0, 54, 40
1, 70892, Control_c, 0, 64, 127
1, 70992, Note_on_c, 0, 66, 62
1, 71020, Note_off_c, 0, 70, 64
1, 71048, Note_off_c, 0, 61, 64
1, 71052, Control_c, 0, 64, 0
1, 71056, Note_off_c, 0, 42, 64
1, 71064, Note_off_c, 0, 54, 64
1, 71092, Note_on_c, 0, 54, 56
1, 71100, Note_on_c, 0, 63, 65
1, 71104, Note_on_c, 0, 47, 55
1, 71128, Control_c, 0, 64, 127
1, 71136, Note_off_c, 0, 66, 64
1, 71208, Note_on_c, 0, 65, 56
1, 71268, Control_c, 0, 64, 0
1, 71272, Note_off_c, 0, 54, 64
1, 71280, Note_off_c, 0, 63, 64
1, 71288, Note_off_c, 0, 47, 64
1, 71308, Note_on_c, 0, 54, 57
1, 71320, Note_on_c, 0, 63, 58
1, 71328, Note_on_c, 0, 66, 56
1, 71332, Note_on_c, 0, 47, 46
1, 71344, Note_off_c, 0, 65, 64
1, 71344, Control_c, 0, 64, 127
1, 71436, Note_on_c, 0, 68, 62
1, 71464, Note_off_c, 0, 66, 64
1, 71492, Note_off_c, 0, 54, 64
1, 71500, Note_off_c, 0, 63, 64
1, 71500, Control_c, 0, 64, 0
1, 71512, Note_off_c, 0, 47, 64
1, 71536, Control_c, 0, 64, 127
1, 71548, Note_on_c, 0, 54, 56
1, 71548, Note_on_c, 0, 42, 63
1, 71556, Note_on_c, 0, 70, 64
1, 71560, Note_on_c, 0, 63, 54
1, 71580, Note_off_c, 0, 68, 64
1, 71688, Note_on_c, 0, 71, 73
1, 71728, Note_off_c, 0, 54, 64
1, 71728, Note_off_c, 0, 42, 64
1, 71740, Control_c, 0, 64, 0
1, 71744, Note_off_c, 0, 63, 64
1, 71752, Note_off_c, 0, 70, 64
1, 71776, Note_on_c, 0, 54, 52
1, 71788, Note_on_c, 0, 63, 62
1, 71788, Note_on_c, 0, 47, 58
1, 71800, Control_c, 0, 64, 127
1, 71848, Note_on_c, 0, 73, 62
1, 71876, Note_off_c, 0, 71, 64
1, 71932, Note_on_c, 0, 71, 62
1, 71956, Note_off_c, 0, 73, 64
1, 71960, Note_off_c, 0, 54, 64
1, 71960, Control_c, 0, 64, 0
1, 71972, Note_off_c, 0, 63, 64
1, 71972, Note_off_c, 0, 47, 64
1, 72004, Note_on_c, 0, 54, 46
1, 72012, Note_on_c, 0, 61, 49
1, 72020, Note_on_c, 0, 70, 62
1, 72020, Note_on_c, 0, 47, 42
1, 72032, Control_c, 0, 64, 127
1, 72044, Note_off_c, 0, 71, 64
1, 72120, Note_on_c, 0, 68, 73
1, 72168, Note_off_c, 0, 70, 64
1, 72180, Control_c, 0, 64, 0
1, 72184, Note_off_c, 0, 54, 64
1, 72192, Note_off_c, 0, 61, 64
1, 72204, Note_off_c, 0, 47, 64
1, 72216, Note_on_c, 0, 54, 46
1, 72224, Note_on_c, 0, 42, 69
1, 72228, Note_on_c, 0, 70, 82
1, 72228, Note_on_c, 0, 61, 25
1, 72244, Note_off_c, 0, 68, 64
1, 72248, Control_c, 0, 64, 127
1, 72332, Note_on_c, 0, 66, 50
1, 72368, Note_off_c, 0, 70, 64
1, 72400, Note_off_c, 0, 54, 64
1, 72404, Note_off_c, 0, 42, 64
1, 72404, Control_c, 0, 64, 0
1, 72408, Note_off_c, 0, 61, 64
1, 72432, Note_on_c, 0, 54, 62
1, 72436, Note_on_c, 0, 63, 59
1, 72444, Note_on_c, 0, 70, 73
1, 72444, Note_on_c, 0, 47, 58
1, 72452, Control_c, 0, 64, 127
1, 72468, Note_off_c, 0, 66, 64
1, 72532, Note_on_c, 0, 68, 66
1, 72564, Note_off_c, 0, 70, 64
1, 72600, Control_c, 0, 64, 0
1, 72612, Note_off_c, 0, 54, 64
1, 72616, Note_off_c, 0, 63, 64
1, 72624, Note_off_c, 0, 47, 64
1, 72640, Note_on_c, 0, 61, 62
1, 72648, Note_on_c, 0, 54, 46
1, 72652, Note_on_c, 0, 70, 74
1, 72652, Note_on_c, 0, 42, 58
1, 72672, Control_c, 0, 64, 127
1, 72692, Note_off_c, 0, 68, 64
1, 72744, Note_on_c, 0, 66, 56
1, 72760, Note_off_c, 0, 70, 64
1, 72804, Control_c, 0, 64, 0
1, 72820, Note_off_c, 0, 61, 64
1, 72832, Note_off_c, 0, 54, 64
1, 72836, Note_off_c, 0, 42, 64
1, 72856, Note_on_c, 0, 63, 59
1, 72864, Note_on_c, 0, 70, 74
1, 72864, Note_on_c, 0, 54, 58
1, 72872, Note_on_c, 0, 47, 48
1, 72880, Control_c, 0, 64, 127
1, 72888, Note_off_c, 0, 66, 64
1, 72956, Note_on_c, 0, 68, 70
1, 72988, Note_off_c, 0, 70, 64
1, 73024, Control_c, 0, 64, 0
1, 73040, Note_off_c, 0, 63, 64
1, 73048, Note_off_c, 0, 54, 64
1, 73056, Note_off_c, 0, 47, 64
1, 73060, Note_on_c, 0, 61, 62
1, 73064, Note_on_c, 0, 70, 77
1, 73076, Note_on_c, 0, 54, 42
1, 73076, Note_on_c, 0, 42, 55
1, 73088, Control_c, 0, 64, 127
1, 73100, Note_off_c, 0, 68, 64
1, 73156, Note_on_c, 0, 66, 59
1, 73192, Note_off_c, 0, 70, 64
1, 73216, Control_c, 0, 64, 0
1, 73240, Note_off_c, 0, 61, 64
1, 73256, Note_off_c, 0, 54, 64
1, 73256, Note_off_c, 0, 42, 64
1, 73272, Note_on_c, 0, 70, 77
1, 73280, Note_on_c, 0, 54, 58
1, 73280, Note_on_c, 0, 63, 59
1, 73284, Note_on_c, 0, 47, 62
1, 73292, Note_off_c, 0, 66, 64
1, 73296, Control_c, 0, 64, 127
1, 73360, Note_on_c, 0, 68, 67
1, 73372, Note_off_c, 0, 70, 64
1, 73424, Control_c, 0, 64, 0
1, 73460, Note_off_c, 0, 54, 64
1, 73464, Note_off_c, 0, 63, 64
1, 73464, Note_on_c, 0, 61, 60
1, 73468, Note_off_c, 0, 47, 64
1, 73472, Note_on_c, 0, 70, 80
1, 73484, Note_on_c, 0, 42, 46
1, 73484, Control_c, 0, 64, 127
1, 73496, Note_on_c, 0, 54, 55
1, 73500, Note_off_c, 0, 68, 64
1, 73568, Note_on_c, 0, 66, 73
1, 73592, Note_off_c, 0, 70, 64
1, 73648, Note_off_c, 0, 61, 64
1, 73648, Control_c, 0, 64, 0
1, 73664, Note_off_c, 0, 42, 64
1, 73676, Note_off_c, 0, 54, 64
1, 73680, Note_on_c, 0, 63, 50
1, 73688, Note_on_c, 0, 54, 57
1, 73692, Note_on_c, 0, 69, 74
1, 73696, Note_on_c, 0, 47, 56
1, 73712, Control_c, 0, 64, 127
1, 73724, Note_off_c, 0, 66, 64
1, 73788, Note_on_c, 0, 68, 72
1, 73820, Note_off_c, 0, 69, 64
1, 73824, Control_c, 0, 64, 0
1, 73864, Note_off_c, 0, 63, 64
1, 73872, Note_off_c, 0, 54, 64
1, 73880, Note_off_c, 0, 47, 64
1, 73884, Note_on_c, 0, 61, 54
1, 73896, Note_on_c, 0, 42, 43
1, 73896, Note_on_c, 0, 54, 59
1, 73912, Note_on_c, 0, 69, 49
1, 73920, Control_c, 0, 64, 127
1, 73928, Note_off_c, 0, 68, 64
1, 74004, Note_on_c, 0, 66, 41
1, 74040, Note_off_c, 0, 69, 64
1, 74064, Note_off_c, 0, 61, 64
1, 74076, Control_c, 0, 64, 0
1, 74080, Note_off_c, 0, 42, 64
1, 74080, Note_off_c, 0, 54, 64
1, 74116, Note_on_c, 0, 69, 57
1, 74116, Note_on_c, 0, 63, 46
1, 74128, Note_on_c, 0, 47, 55
1, 74128, Note_on_c, 0, 54, 41
1, 74140, Note_off_c, 0, 66, 64
1, 74152, Control_c, 0, 64, 127
1, 74216, Note_on_c, 0, 68, 55
1, 74232, Note_off_c, 0, 69, 64
1, 74300, Note_off_c, 0, 63, 64
1, 74308, Note_off_c, 0, 47, 64
1, 74312, Note_off_c, 0, 54, 64
1, 74324, Control_c, 0, 64, 0
1, 74332, Note_on_c, 0, 61, 47
1, 74344, Note_on_c, 0, 54, 46
1, 74344, Note_on_c, 0, 42, 49
1, 74348, Note_on_c, 0, 69, 44
1, 74372, Note_off_c, 0, 68, 64
1, 74372, Control_c, 0, 64, 127
1, 74452, Note_on_c, 0, 66, 63
1, 74476, Note_off_c, 0, 69, 64
1, 74516, Note_off_c, 0, 61, 64
1, 74528, Note_off_c, 0, 54, 64
1, 74528, Note_off_c, 0, 42, 64
1, 74560, Control_c, 0, 64, 0
1, 74576, Note_on_c, 0, 54, 33
1, 74584, Note_on_c, 0, 69, 43
1, 74584, Note_on_c, 0, 47, 41
1, 74588, Note_on_c, 0, 63, 36
1, 74604, Note_off_c, 0, 66, 64
1, 74636, Control_c, 0, 64, 127
1, 74704, Note_on_c, 0, 68, 49
1, 74712, Note_off_c, 0, 69, 64
1, 74760, Note_off_c, 0, 54, 64
1, 74764, Note_off_c, 0, 47, 64
1, 74772, Note_off_c, 0, 63, 64
1, 74812, Control_c, 0, 64, 0
1, 74840, Note_on_c, 0, 42, 35
1, 74844, Note_on_c, 0, 61, 40
1, 74852, Note_on_c, 0, 69, 48
1, 74856, Note_on_c, 0, 54, 26
1, 74872, Note_off_c, 0, 68, 64
1, 74888, Control_c, 0, 64, 127
1, 74996, Note_on_c, 0, 66, 39
1, 75008, Note_off_c, 0, 69, 64
1, 75024, Note_off_c, 0, 42, 64
1, 75028, Note_off_c, 0, 61, 64
1, 75040, Note_off_c, 0, 54, 64
1, 75152, Note_off_c, 0, 66, 64
1, 75220, Control_c, 0, 64, 0
1, 75244, Note_on_c, 0, 63, 47
1, 75244, Note_on_c, 0, 69, 54
1, 75256, Note_on_c, 0, 35, 47
1, 75320, Control_c, 0, 64, 127
1, 75632, Note_on_c, 0, 42, 56
1, 75640, Note_off_c, 0, 35, 64
1, 75784, Note_on_c, 0, 47, 55
1, 75816, Note_off_c, 0, 42, 64
1, 75884, Note_on_c, 0, 56, 57
1, 75908, Note_off_c, 0, 47, 64
1, 75980, Note_on_c, 0, 54, 58
1, 75992, Note_off_c, 0, 56, 64
1, 76044, Note_on_c, 0, 56, 64
1, 76052, Note_off_c, 0, 54, 64
1, 76104, Note_on_c, 0, 54, 56
1, 76124, Note_off_c, 0, 56, 64
1, 76152, Control_c, 0, 64, 0
1, 76180, Note_on_c, 0, 47, 74
1, 76212, Note_off_c, 0, 54, 64
1, 76420, Control_c, 0, 64, 127
1, 76432, Note_on_c, 0, 59, 63
1, 76452, Note_off_c, 0, 47, 64
1, 76524, Note_off_c, 0, 59, 64
1, 76684, Note_off_c, 0, 69, 64
1, 76708, Note_on_c, 0, 40, 66
1, 76712, Note_on_c, 0, 69, 64
1, 76712, Note_on_c, 0, 62, 63
1, 76712, Control_c, 0, 64, 0
1, 76760, Tempo, 500000
1, 76760, Note_off_c, 0, 63, 64
1, 76780, Tempo, 500000
1, 76780, Control_c, 0, 64, 127
1, 77072, Note_on_c, 0, 47, 55
1, 77104, Note_off_c, 0, 40, 64
1, 77204, Note_on_c, 0, 52, 51
1, 77236, Note_off_c, 0, 47, 64
1, 77308, Note_on_c, 0, 61, 56
1, 77340, Note_off_c, 0, 52, 64
1, 77424, Note_on_c, 0, 59, 57
1, 77428, Note_on_c, 0, 68, 77
1, 77440, Note_off_c, 0, 61, 64
1, 77468, Note_on_c, 0, 61, 55
1, 77484, Note_off_c, 0, 59, 64
1, 77492, Note_off_c, 0, 69, 64
1, 77532, Note_on_c, 0, 59, 55
1, 77556, Note_off_c, 0, 61, 64
1, 77560, Control_c, 0, 64, 0
1, 77624, Note_on_c, 0, 52, 73
1, 77644, Note_off_c, 0, 59, 64
1, 77744, Control_c, 0, 64, 127
1, 77868, Note_on_c, 0, 64, 58
1, 77892, Note_off_c, 0, 52, 64
1, 77960, Note_off_c, 0, 64, 64
1, 78140, Note_off_c, 0, 62, 64
1, 78160, Note_on_c, 0, 62, 69
1, 78168, Note_on_c, 0, 33, 59
1, 78172, Note_on_c, 0, 67, 64
1, 78196, Control_c, 0, 64, 0
1, 78228, Note_off_c, 0, 68, 64
1, 78256, Control_c, 0, 64, 127
1, 78288, Tempo, 500000
1, 78532, Note_on_c, 0, 40, 57
1, 78548, Note_off_c, 0, 33, 64
1, 78656, Note_on_c, 0, 45, 51
1, 78684, Note_off_c, 0, 40, 64
1, 78752, Note_on_c, 0, 54, 64
1, 78780, Note_off_c, 0, 45, 64
1, 78868, Note_on_c, 0, 52, 52
1, 78868, Note_on_c, 0, 61, 69
1, 78884, Note_off_c, 0, 54, 64
1, 78900, Note_off_c, 0, 62, 64
1, 78908, Note_on_c, 0, 54, 55
1, 78944, Note_off_c, 0, 52, 64
1, 78980, Note_on_c, 0, 52, 52
1, 78992, Control_c, 0, 64, 0
1, 78996, Note_off_c, 0, 54, 64
1, 79064, Note_on_c, 0, 45, 67
1, 79100, Note_off_c, 0, 52, 64
1, 79232, Control_c, 0, 64, 127
1, 79308, Note_on_c, 0, 57, 58
1, 79312, Note_off_c, 0, 45, 64
1, 79400, Note_off_c, 0, 57, 64
1, 79548, Note_off_c, 0, 67, 64
1, 79576, Note_on_c, 0, 67, 66
1, 79580, Note_on_c, 0, 38, 64
1, 79584, Note_on_c, 0, 60, 62
1, 79600, Control_c, 0, 64, 0
1, 79636, Note_off_c, 0, 61, 64
1, 79644, Control_c, 0, 64, 127
1, 79972, Note_on_c, 0, 45, 54
1, 79996, Note_off_c, 0, 38, 64
1, 80124, Note_on_c, 0, 50, 51
1, 80132, Note_off_c, 0, 45, 64
1, 80220, Note_on_c, 0, 59, 62
1, 80252, Note_off_c, 0, 50, 64
1, 80320, Note_on_c, 0, 57, 52
1, 80328, Note_off_c, 0, 59, 64
1, 80344, Note_on_c, 0, 66, 70
1, 80368, Note_off_c, 0, 60, 64
1, 80396, Note_on_c, 0, 59, 54
1, 80416, Note_off_c, 0, 57, 64
1, 80432, Note_off_c, 0, 67, 64
1, 80436, Note_on_c, 0, 57, 47
1, 80456, Note_off_c, 0, 59, 64
1, 80516, Note_on_c, 0, 50, 62
1, 80532, Control_c, 0, 64, 0
1, 80612, Control_c, 0, 64, 127
1, 80756, Note_off_c, 0, 50, 64
1, 80784, Note_on_c, 0, 62, 60
1, 80800, Control_c, 0, 64, 127
1, 81104, Note_on_c, 0, 61, 44
1, 81116, Note_on_c, 0, 49, 46
1, 81120, Note_off_c, 0, 62, 64
1, 81132, Control_c, 0, 64, 0
1, 81212, Control_c, 0, 64, 127
1, 81452, Note_off_c, 0, 57, 64
1, 81452, Note_off_c, 0, 61, 64
1, 81480, Note_off_c, 0, 49, 64
1, 81532, Control_c, 0, 64, 127
1, 81600, Note_on_c, 0, 68, 46
1, 81652, Note_off_c, 0, 66, 64
1, 81692, Note_off_c, 0, 68, 64
1, 81724, Note_on_c, 0, 69, 51
1, 81836, Note_on_c, 0, 72, 55
1, 81872, Note_off_c, 0, 69, 64
1, 81956, Note_on_c, 0, 74, 42
1, 81972, Note_off_c, 0, 72, 64
1, 81988, Control_c, 0, 64, 0
1, 82020, Note_on_c, 0, 76, 54
1, 82036, Note_off_c, 0, 74, 64
1, 82092, Note_on_c, 0, 74, 54
1, 82116, Note_off_c, 0, 76, 64
1, 82164, Note_on_c, 0, 73, 59
1, 82180, Note_off_c, 0, 74, 64
1, 82404, Note_on_c, 0, 78, 55
1, 82424, Control_c, 0, 64, 127
1, 82432, Note_off_c, 0, 73, 64
1, 82636, Note_on_c, 0, 73, 66
1, 82636, Control_c, 0, 64, 0
1, 82644, Note_on_c, 0, 49, 52
1, 82660, Control_c, 0, 64, 127
1, 82668, Note_off_c, 0, 78, 64
1, 82704, Note_on_c, 0, 74, 51
1, 82708, Note_off_c, 0, 73, 64
1, 82728, Note_off_c, 0, 49, 64
1, 82760, Note_on_c, 0, 73, 60
1, 82788, Note_off_c, 0, 74, 64
1, 82840, Note_on_c, 0, 72, 55
1, 82848, Note_off_c, 0, 73, 64
1, 82952, Note_on_c, 0, 56, 54
1, 83068, Note_on_c, 0, 57, 50
1, 83092, Note_off_c, 0, 56, 64
1, 83100, Note_on_c, 0, 78, 63
1, 83184, Note_off_c, 0, 57, 64
1, 83192, Note_on_c, 0, 60, 59
1, 83228, Note_off_c, 0, 72, 64
1, 83288, Note_off_c, 0, 60, 64
1, 83324, Note_on_c, 0, 71, 55
1, 83324, Note_on_c, 0, 62, 65
1, 83348, Note_off_c, 0, 78, 64
1, 83396, Note_on_c, 0, 73, 62
1, 83404, Note_on_c, 0, 64, 69
1, 83416, Note_off_c, 0, 71, 64
1, 83420, Note_off_c, 0, 62, 64
1, 83436, Control_c, 0, 64, 0
1, 83456, Note_on_c, 0, 71, 57
1, 83460, Note_on_c, 0, 62, 60
1, 83476, Note_off_c, 0, 73, 64
1, 83480, Note_off_c, 0, 64, 64
1, 83540, Note_on_c, 0, 70, 66
1, 83552, Note_off_c, 0, 71, 64
1, 83556, Note_on_c, 0, 61, 64
1, 83580, Note_off_c, 0, 62, 64
1, 83676, Control_c, 0, 64, 127
1, 83736, Control_c, 0, 64, 0
1, 83780, Note_off_c, 0, 70, 64
1, 83800, Note_off_c, 0, 61, 64
1, 83808, Note_on_c, 0, 73, 63
1, 83808, Note_on_c, 0, 66, 63
1, 83820, Note_on_c, 0, 69, 63
1, 83844, Control_c, 0, 64, 127
1, 83884, Note_off_c, 0, 66, 64
1, 83928, Note_off_c, 0, 69, 64
1, 83940, Note_off_c, 0, 73, 64
1, 84052, Note_on_c, 0, 61, 59
1, 84060, Note_on_c, 0, 69, 54
1, 84116, Note_on_c, 0, 71, 55
1, 84124, Note_on_c, 0, 62, 69
1, 84132, Note_off_c, 0, 69, 64
1, 84136, Note_off_c, 0, 61, 64
1, 84196, Note_off_c, 0, 62, 64
1, 84196, Note_on_c, 0, 69, 59
1, 84200, Note_on_c, 0, 61, 65
1, 84212, Note_off_c, 0, 71, 64
1, 84260, Note_on_c, 0, 68, 69
1, 84268, Control_c, 0, 64, 0
1, 84272, Note_off_c, 0, 69, 64
1, 84276, Note_off_c, 0, 61, 64
1, 84280, Note_on_c, 0, 60, 72
1, 84304, Control_c, 0, 64, 127
1, 84388, Note_off_c, 0, 68, 64
1, 84512, Note_on_c, 0, 73, 66
1, 84520, Note_on_c, 0, 61, 77
1, 84528, Note_on_c, 0, 59, 62
1, 84532, Note_off_c, 0, 60, 64
1, 84540, Control_c, 0, 64, 0
1, 84572, Control_c, 0, 64, 127
1, 84604, Note_off_c, 0, 59, 64
1, 84636, Note_off_c, 0, 61, 64
1, 84728, Note_off_c, 0, 73, 64
1, 84752, Note_on_c, 0, 68, 62
1, 84772, Control_c, 0, 64, 0
1, 84780, Note_on_c, 0, 59, 56
1, 84812, Control_c, 0, 64, 127
1, 84820, Note_on_c, 0, 69, 64
1, 84828, Note_on_c, 0, 61, 72
1, 84836, Note_off_c, 0, 68, 64
1, 84856, Note_off_c, 0, 59, 64
1, 84884, Note_on_c, 0, 68, 65
1, 84892, Note_off_c, 0, 61, 64
1, 84896, Note_on_c, 0, 59, 57
1, 84908, Note_off_c, 0, 69, 64
1, 84964, Control_c, 0, 64, 0
1, 84972, Note_on_c, 0, 67, 74
1, 84976, Note_off_c, 0, 68, 64
1, 84980, Note_on_c, 0, 58, 64
1, 84996, Note_off_c, 0, 59, 64
1, 85020, Control_c, 0, 64, 127
1, 85200, Note_off_c, 0, 67, 64
1, 85212, Control_c, 0, 64, 0
1, 85220, Note_off_c, 0, 58, 64
1, 85228, Note_on_c, 0, 73, 75
1, 85228, Note_on_c, 0, 57, 65
1, 85228, Note_on_c, 0, 66, 82
1, 85288, Control_c, 0, 64, 127
1, 85360, Note_off_c, 0, 66, 64
1, 85452, Note_off_c, 0, 73, 64
1, 85476, Note_on_c, 0, 66, 80
1, 85488, Note_on_c, 0, 56, 66
1, 85488, Control_c, 0, 64, 0
1, 85516, Note_off_c, 0, 57, 64
1, 85528, Control_c, 0, 64, 127
1, 85556, Note_on_c, 0, 68, 73
1, 85560, Note_off_c, 0, 66, 64
1, 85608, Note_on_c, 0, 66, 70
1, 85636, Note_off_c, 0, 68, 64
1, 85708, Note_on_c, 0, 65, 74
1, 85720, Control_c, 0, 64, 0
1, 85724, Note_off_c, 0, 66, 64
1, 85724, Note_on_c, 0, 44, 65
1, 85772, Control_c, 0, 64, 127
1, 85840, Note_off_c, 0, 65, 64
1, 85844, Note_on_c, 0, 68, 74
1, 85852, Note_on_c, 0, 64, 72
1, 85924, Note_off_c, 0, 56, 64
1, 85952, Note_off_c, 0, 64, 64
1, 85980, Control_c, 0, 64, 0
1, 85988, Note_off_c, 0, 68, 64
1, 85988, Note_on_c, 0, 54, 69
1, 85996, Note_on_c, 0, 63, 80
1, 85996, Note_on_c, 0, 60, 63
1, 86024, Control_c, 0, 64, 127
1, 86048, Note_off_c, 0, 60, 64
1, 86056, Note_off_c, 0, 54, 64
1, 86128, Note_on_c, 0, 68, 81
1, 86140, Note_off_c, 0, 63, 64
1, 86164, Note_off_c, 0, 44, 64
1, 86272, Note_on_c, 0, 61, 85
1, 86276, Note_on_c, 0, 37, 71
1, 86288, Control_c, 0, 64, 0
1, 86320, Control_c, 0, 64, 127
1, 86328, Note_off_c, 0, 68, 64
1, 86388, Note_off_c, 0, 61, 64
1, 86396, Note_on_c, 0, 62, 55
1, 86460, Note_off_c, 0, 62, 64
1, 86460, Note_on_c, 0, 64, 60
1, 86512, Note_on_c, 0, 62, 77
1, 86528, Control_c, 0, 64, 0
1, 86532, Note_off_c, 0, 64, 64
1, 86556, Note_on_c, 0, 59, 67
1, 86560, Note_on_c, 0, 61, 78
1, 86572, Note_on_c, 0, 53, 54
1, 86572, Note_on_c, 0, 49, 48
1, 86580, Note_off_c, 0, 62, 64
1, 86592, Control_c, 0, 64, 127
1, 86616, Note_off_c, 0, 49, 64
1, 86628, Note_off_c, 0, 59, 64
1, 86636, Note_off_c, 0, 53, 64
1, 86700, Note_off_c, 0, 61, 64
1, 86724, Note_on_c, 0, 62, 72
1, 86732, Note_off_c, 0, 37, 64
1, 86736, Note_on_c, 0, 71, 70
1, 86860, Note_off_c, 0, 62, 64
1, 86868, Control_c, 0, 64, 0
1, 86884, Note_on_c, 0, 69, 72
1, 86892, Note_on_c, 0, 61, 78
1, 86900, Note_on_c, 0, 49, 62
1, 86908, Note_on_c, 0, 59, 71
1, 86908, Note_on_c, 0, 53, 67
1, 86912, Note_off_c, 0, 71, 64
1, 86920, Control_c, 0, 64, 127
1, 86956, Note_off_c, 0, 59, 64
1, 86964, Note_off_c, 0, 49, 64
1, 86968, Note_off_c, 0, 53, 64
1, 87012, Note_off_c, 0, 61, 64
1, 87036, Note_on_c, 0, 68, 73
1, 87048, Note_off_c, 0, 69, 64
1, 87052, Note_on_c, 0, 65, 54
1, 87172, Note_off_c, 0, 65, 64
1, 87220, Note_off_c, 0, 68, 64
1, 87232, Note_on_c, 0, 66, 93
1, 87236, Control_c, 0, 64, 0
1, 87248, Note_on_c, 0, 42, 83
1, 87248, Note_on_c, 0, 30, 72
1, 87292, Tempo, 500000
1, 87292, Control_c, 0, 64, 127
1, 87540, Note_on_c, 0, 49, 59
1, 87552, Note_on_c, 0, 61, 69
1, 87552, Note_on_c, 0, 68, 69
1, 87556, Note_off_c, 0, 66, 64
1, 87564, Note_on_c, 0, 57, 64
1, 87608, Note_off_c, 0, 49, 64
1, 87616, Note_off_c, 0, 57, 64
1, 87624, Note_off_c, 0, 61, 64
1, 87632, Note_off_c, 0, 68, 64
1, 87652, Note_on_c, 0, 66, 78
1, 87740, Note_off_c, 0, 30, 64
1, 87740, Note_off_c, 0, 42, 64
1, 87756, Note_off_c, 0, 66, 64
1, 87760, Note_on_c, 0, 69, 64
1, 87772, Note_on_c, 0, 61, 59
1, 87784, Note_on_c, 0, 57, 59
1, 87784, Note_on_c, 0, 49, 57
1, 87824, Note_off_c, 0, 57, 64
1, 87828, Note_off_c, 0, 49, 64
1, 87836, Note_off_c, 0, 61, 64
1, 87876, Note_on_c, 0, 72, 70
1, 87912, Note_off_c, 0, 69, 64
1, 87984, Note_on_c, 0, 74, 64
1, 88004, Note_on_c, 0, 42, 77
1, 88008, Note_off_c, 0, 72, 64
1, 88076, Note_on_c, 0, 76, 70
1, 88092, Note_off_c, 0, 74, 64
1, 88132, Note_on_c, 0, 74, 70
1, 88160, Note_off_c, 0, 76, 64
1, 88164, Control_c, 0, 64, 0
1, 88192, Note_on_c, 0, 73, 87
1, 88204, Note_on_c, 0, 64, 69
1, 88204, Note_on_c, 0, 58, 74
1, 88204, Note_on_c, 0, 54, 73
1, 88220, Note_off_c, 0, 74, 64
1, 88244, Note_off_c, 0, 54, 64
1, 88248, Note_off_c, 0, 64, 64
1, 88252, Note_off_c, 0, 58, 64
1, 88432, Note_off_c, 0, 42, 64
1, 88476, Note_on_c, 0, 78, 73
1, 88476, Control_c, 0, 64, 127
1, 88488, Note_off_c, 0, 73, 64
1, 88496, Note_on_c, 0, 66, 74
1, 88504, Note_on_c, 0, 58, 73
1, 88508, Note_on_c, 0, 54, 74
1, 88516, Note_on_c, 0, 64, 73
1, 88556, Note_off_c, 0, 58, 64
1, 88556, Note_off_c, 0, 54, 64
1, 88556, Note_off_c, 0, 64, 64
1, 88676, Note_off_c, 0, 66, 64
1, 88716, Tempo, 500000
1, 88748, Note_on_c, 0, 73, 71
1, 88756, Note_on_c, 0, 47, 62
1, 88772, Note_off_c, 0, 78, 64
1, 88820, Note_on_c, 0, 74, 62
1, 88824, Note_off_c, 0, 73, 64
1, 88884, Note_on_c, 0, 73, 73
1, 88904, Note_off_c, 0, 74, 64
1, 88928, Control_c, 0, 64, 0
1, 88936, Note_on_c, 0, 64, 69
1, 88944, Note_on_c, 0, 54, 67
1, 88948, Note_on_c, 0, 72, 77
1, 88964, Note_off_c, 0, 73, 64
1, 88992, Note_off_c, 0, 64, 64
1, 88996, Note_off_c, 0, 54, 64
1, 89020, Control_c, 0, 64, 127
1, 89184, Control_c, 0, 64, 0
1, 89224, Note_on_c, 0, 54, 65
1, 89228, Note_off_c, 0, 47, 64
1, 89228, Note_on_c, 0, 78, 70
1, 89228, Note_on_c, 0, 71, 69
1, 89228, Note_on_c, 0, 62, 73
1, 89244, Control_c, 0, 64, 127
1, 89252, Note_off_c, 0, 72, 64
1, 89284, Note_off_c, 0, 62, 64
1, 89300, Note_off_c, 0, 54, 64
1, 89356, Note_off_c, 0, 71, 64
1, 89468, Note_on_c, 0, 71, 59
1, 89472, Control_c, 0, 64, 0
1, 89480, Note_off_c, 0, 78, 64
1, 89480, Note_on_c, 0, 42, 73
1, 89496, Control_c, 0, 64, 127
1, 89536, Note_on_c, 0, 73, 73
1, 89556, Note_off_c, 0, 71, 64
1, 89608, Note_on_c, 0, 71, 63
1, 89624, Note_off_c, 0, 73, 64
1, 89668, Note_on_c, 0, 62, 66
1, 89672, Control_c, 0, 64, 0
1, 89680, Note_on_c, 0, 70, 71
1, 89684, Note_on_c, 0, 54, 73
1, 89704, Note_off_c, 0, 71, 64
1, 89716, Control_c, 0, 64, 127
1, 89732, Note_off_c, 0, 62, 64
1, 89732, Note_off_c, 0, 54, 64
1, 89884, Note_off_c, 0, 70, 64
1, 89920, Note_off_c, 0, 42, 64
1, 89984, Note_on_c, 0, 54, 58
1, 89988, Note_on_c, 0, 73, 69
1, 89996, Note_on_c, 0, 69, 70
1, 89996, Note_on_c, 0, 61, 62
1, 90024, Control_c, 0, 64, 0
1, 90056, Control_c, 0, 64, 127
1, 90068, Note_off_c, 0, 61, 64
1, 90080, Note_off_c, 0, 54, 64
1, 90140, Note_off_c, 0, 73, 64
1, 90264, Note_off_c, 0, 69, 64
1, 90284, Note_on_c, 0, 50, 56
1, 90344, Note_on_c, 0, 66, 77
1, 90404, Control_c, 0, 64, 0
1, 90468, Control_c, 0, 64, 127
1, 90628, Note_on_c, 0, 61, 58
1, 90640, Note_on_c, 0, 54, 41
1, 90724, Note_off_c, 0, 61, 64
1, 90724, Note_off_c, 0, 54, 64
1, 90724, Note_on_c, 0, 68, 62
1, 90744, Note_off_c, 0, 66, 64
1, 90840, Note_on_c, 0, 69, 67
1, 90844, Note_off_c, 0, 68, 64
1, 90852, Note_on_c, 0, 59, 64
1, 90852, Note_on_c, 0, 54, 41
1, 90936, Note_off_c, 0, 59, 64
1, 90948, Note_on_c, 0, 71, 60
1, 90952, Note_off_c, 0, 54, 64
1, 90956, Note_off_c, 0, 50, 64
1, 90964, Note_off_c, 0, 69, 64
1, 91024, Control_c, 0, 64, 0
1, 91032, Note_off_c, 0, 71, 64
1, 91040, Note_on_c, 0, 69, 71
1, 91072, Note_on_c, 0, 49, 64
1, 91080, Control_c, 0, 64, 127
1, 91120, Note_on_c, 0, 71, 62
1, 91132, Note_off_c, 0, 69, 64
1, 91192, Note_on_c, 0, 69, 69
1, 91208, Note_off_c, 0, 71, 64
1, 91240, Control_c, 0, 64, 0
1, 91256, Note_on_c, 0, 59, 49
1, 91256, Note_on_c, 0, 54, 47
1, 91260, Note_on_c, 0, 68, 80
1, 91292, Note_off_c, 0, 69, 64
1, 91312, Control_c, 0, 64, 127
1, 91348, Note_off_c, 0, 59, 64
1, 91364, Note_off_c, 0, 54, 64
1, 91484, Note_off_c, 0, 49, 64
1, 91576, Note_on_c, 0, 53, 42
1, 91580, Note_on_c, 0, 59, 48
1, 91600, Note_on_c, 0, 73, 66
1, 91620, Control_c, 0, 64, 0
1, 91624, Note_off_c, 0, 68, 64
1, 91668, Control_c, 0, 64, 127
1, 91872, Note_off_c, 0, 53, 64
1, 91892, Note_on_c, 0, 50, 47
1, 91948, Note_off_c, 0, 59, 64
1, 91992, Note_on_c, 0, 66, 77
1, 92016, Note_off_c, 0, 73, 64
1, 92024, Control_c, 0, 64, 0
1, 92088, Control_c, 0, 64, 127
1, 92260, Note_on_c, 0, 61, 33
1, 92272, Note_on_c, 0, 54, 50
1, 92340, Note_off_c, 0, 61, 64
1, 92348, Note_off_c, 0, 66, 64
1, 92348, Note_on_c, 0, 68, 60
1, 92368, Note_off_c, 0, 54, 64
1, 92468, Note_on_c, 0, 69, 66
1, 92488, Note_off_c, 0, 68, 64
1, 92488, Note_on_c, 0, 54, 50
1, 92496, Note_on_c, 0, 59, 50
1, 92524, Note_off_c, 0, 50, 64
1, 92576, Note_on_c, 0, 73, 69
1, 92596, Note_off_c, 0, 59, 64
1, 92604, Note_off_c, 0, 54, 64
1, 92616, Note_on_c, 0, 71, 75
1, 92620, Note_off_c, 0, 73, 64
1, 92640, Note_off_c, 0, 69, 64
1, 92692, Note_on_c, 0, 69, 71
1, 92700, Note_off_c, 0, 71, 64
1, 92704, Note_on_c, 0, 49, 59
1, 92716, Control_c, 0, 64, 0
1, 92752, Control_c, 0, 64, 127
1, 92780, Note_on_c, 0, 71, 62
1, 92804, Note_off_c, 0, 69, 64
1, 92868, Note_on_c, 0, 69, 63
1, 92888, Note_off_c, 0, 71, 64
1, 92932, Note_on_c, 0, 54, 50
1, 92940, Control_c, 0, 64, 0
1, 92952, Note_on_c, 0, 59, 41
1, 92960, Note_on_c, 0, 68, 70
1, 92980, Control_c, 0, 64, 127
1, 92988, Note_off_c, 0, 69, 64
1, 93056, Note_off_c, 0, 59, 64
1, 93096, Note_off_c, 0, 54, 64
1, 93216, Note_off_c, 0, 49, 64
1, 93324, Note_on_c, 0, 53, 36
1, 93340, Note_on_c, 0, 59, 47
1, 93392, Note_on_c, 0, 73, 69
1, 93416, Note_off_c, 0, 68, 64
1, 93444, Control_c, 0, 64, 0
1, 93496, Control_c, 0, 64, 127
1, 93736, Note_off_c, 0, 53, 64
1, 93736, Note_on_c, 0, 50, 41
1, 93804, Note_off_c, 0, 59, 64
1, 93888, Note_on_c, 0, 66, 77
1, 93928, Note_off_c, 0, 73, 64
1, 93952, Control_c, 0, 64, 0
1, 94012, Control_c, 0, 64, 127
1, 94252, Note_on_c, 0, 61, 55
1, 94264, Note_on_c, 0, 54, 39
1, 94360, Note_off_c, 0, 61, 64
1, 94376, Note_off_c, 0, 66, 64
1, 94376, Note_on_c, 0, 68, 66
1, 94384, Note_off_c, 0, 54, 64
1, 94496, Note_off_c, 0, 50, 64
1, 94496, Note_off_c, 0, 68, 64
1, 94508, Note_on_c, 0, 69, 62
1, 94520, Note_on_c, 0, 54, 49
1, 94532, Note_on_c, 0, 59, 50
1, 94568, Note_off_c, 0, 54, 64
1, 94584, Note_off_c, 0, 59, 64
1, 94636, Note_on_c, 0, 71, 64
1, 94692, Note_off_c, 0, 69, 64
1, 94756, Control_c, 0, 64, 0
1, 94768, Note_on_c, 0, 44, 63
1, 94768, Note_on_c, 0, 73, 69
1, 94796, Control_c, 0, 64, 127
1, 94808, Note_off_c, 0, 71, 64
1, 94896, Note_on_c, 0, 76, 69
1, 94932, Note_off_c, 0, 73, 64
1, 95028, Note_on_c, 0, 74, 65
1, 95040, Note_on_c, 0, 66, 70
1, 95048, Note_off_c, 0, 76, 64
1, 95056, Note_on_c, 0, 56, 32
1, 95060, Note_on_c, 0, 59, 58
1, 95068, Note_on_c, 0, 62, 46
1, 95072, Control_c, 0, 64, 0
1, 95108, Control_c, 0, 64, 127
1, 95188, Note_off_c, 0, 74, 64
1, 95224, Note_off_c, 0, 66, 64
1, 95232, Note_off_c, 0, 62, 64
1, 95252, Note_off_c, 0, 59, 64
1, 95292, Note_off_c, 0, 56, 64
1, 95572, Note_on_c, 0, 66, 67
1, 95592, Note_off_c, 0, 44, 64
1, 95680, Note_off_c, 0, 66, 64
1, 95768, Note_on_c, 0, 66, 64
1, 95920, Note_on_c, 0, 65, 66
1, 95936, Note_off_c, 0, 66, 64
1, 96092, Note_on_c, 0, 49, 58
1, 96104, Note_on_c, 0, 69, 65
1, 96112, Note_on_c, 0, 59, 29
1, 96140, Control_c, 0, 64, 0
1, 96188, Note_off_c, 0, 59, 64
1, 96192, Control_c, 0, 64, 127
1, 96228, Note_off_c, 0, 65, 64
1, 96420, Note_on_c, 0, 50, 58
1, 96424, Note_on_c, 0, 65, 55
1, 96432, Note_on_c, 0, 59, 42
1, 96436, Control_c, 0, 64, 0
1, 96444, Note_off_c, 0, 49, 64
1, 96444, Note_off_c, 0, 69, 64
1, 96492, Control_c, 0, 64, 127
1, 96556, Note_on_c, 0, 68, 64
1, 96592, Note_off_c, 0, 65, 64
1, 96624, Note_off_c, 0, 50, 64
1, 96624, Note_off_c, 0, 68, 64
1, 96684, Note_on_c, 0, 68, 66
1, 96756, Note_off_c, 0, 59, 64
1, 96816, Note_on_c, 0, 66, 74
1, 96848, Note_off_c, 0, 68, 64
1, 96904, Note_off_c, 0, 66, 64
1, 96940, Note_on_c, 0, 71, 63
1, 96952, Note_on_c, 0, 50, 64
1, 96964, Note_on_c, 0, 60, 59
1, 96988, Control_c, 0, 64, 0
1, 97016, Control_c, 0, 64, 127
1, 97024, Note_off_c, 0, 60, 64
1, 97208, Note_on_c, 0, 66, 59
1, 97216, Note_off_c, 0, 50, 64
1, 97224, Note_on_c, 0, 60, 58
1, 97224, Note_on_c, 0, 51, 59
1, 97260, Note_off_c, 0, 71, 64
1, 97316, Note_off_c, 0, 66, 64
1, 97340, Note_on_c, 0, 69, 46
1, 97368, Note_off_c, 0, 60, 64
1, 97436, Note_off_c, 0, 69, 64
1, 97472, Note_on_c, 0, 67, 59
1, 97480, Note_on_c, 0, 60, 57
1, 97484, Note_off_c, 0, 51, 64
1, 97492, Note_on_c, 0, 52, 62
1, 97500, Control_c, 0, 64, 0
1, 97524, Control_c, 0, 64, 127
1, 97568, Note_off_c, 0, 60, 64
1, 97588, Note_on_c, 0, 68, 70
1, 97616, Note_off_c, 0, 67, 64
1, 97700, Note_off_c, 0, 68, 64
1, 97708, Control_c, 0, 64, 0
1, 97716, Note_on_c, 0, 40, 58
1, 97716, Note_on_c, 0, 69, 63
1, 97724, Note_on_c, 0, 61, 77
1, 97764, Control_c, 0, 64, 127
1, 97804, Note_off_c, 0, 52, 64
1, 97828, Note_on_c, 0, 68, 56
1, 97836, Note_off_c, 0, 69, 64
1, 97852, Note_off_c, 0, 61, 64
1, 97896, Note_off_c, 0, 68, 64
1, 97924, Note_off_c, 0, 40, 64
1, 97952, Note_on_c, 0, 68, 67
1, 97956, Control_c, 0, 64, 0
1, 97964, Note_on_c, 0, 41, 63
1, 97964, Note_on_c, 0, 73, 69
1, 97964, Note_on_c, 0, 62, 67
1, 97984, Control_c, 0, 64, 127
1, 98068, Note_off_c, 0, 68, 64
1, 98084, Note_off_c, 0, 62, 64
1, 98088, Note_off_c, 0, 73, 64
1, 98092, Note_on_c, 0, 71, 64
1, 98160, Note_off_c, 0, 71, 64
1, 98212, Control_c, 0, 64, 0
1, 98220, Note_on_c, 0, 62, 67
1, 98224, Note_off_c, 0, 41, 64
1, 98224, Note_on_c, 0, 71, 69
1, 98224, Note_on_c, 0, 42, 77
1, 98236, Note_on_c, 0, 66, 73
1, 98244, Control_c, 0, 64, 127
1, 98292, Note_off_c, 0, 66, 64
1, 98340, Note_off_c, 0, 62, 64
1, 98344, Note_off_c, 0, 71, 64
1, 98368, Note_on_c, 0, 70, 65
1, 98372, Note_on_c, 0, 61, 80
1, 98416, Note_off_c, 0, 61, 64
1, 98456, Note_off_c, 0, 70, 64
1, 98540, Note_on_c, 0, 74, 77
1, 98540, Note_on_c, 0, 70, 77
1, 98544, Note_on_c, 0, 64, 73
1, 98552, Note_on_c, 0, 54, 62
1, 98560, Control_c, 0, 64, 0
1, 98576, Control_c, 0, 64, 127
1, 98668, Note_off_c, 0, 42, 64
1, 98724, Note_off_c, 0, 70, 64
1, 98728, Note_off_c, 0, 64, 64
1, 98772, Note_off_c, 0, 54, 64
1, 98856, Note_on_c, 0, 70, 69
1, 98856, Note_on_c, 0, 64, 73
1, 98868, Note_on_c, 0, 55, 58
1, 98868, Note_on_c, 0, 43, 56
1, 98876, Control_c, 0, 64, 0
1, 98908, Control_c, 0, 64, 127
1, 98936, Note_off_c, 0, 43, 64
1, 98960, Note_off_c, 0, 55, 64
1, 98984, Note_off_c, 0, 74, 64
1, 99028, Note_on_c, 0, 73, 66
1, 99044, Note_off_c, 0, 70, 64
1, 99064, Note_off_c, 0, 64, 64
1, 99104, Note_off_c, 0, 73, 64
1, 99140, Control_c, 0, 64, 0
1, 99144, Note_on_c, 0, 64, 77
1, 99148, Note_on_c, 0, 68, 77
1, 99152, Note_on_c, 0, 73, 74
1, 99152, Control_c, 0, 64, 127
1, 99156, Note_on_c, 0, 44, 66
1, 99160, Note_on_c, 0, 56, 69
1, 99188, Note_off_c, 0, 64, 64
1, 99192, Control_c, 0, 64, 127
1, 99196, Note_off_c, 0, 68, 64
1, 99212, Note_off_c, 0, 44, 64
1, 99224, Note_off_c, 0, 56, 64
1, 99284, Note_off_c, 0, 73, 64
1, 99348, Note_on_c, 0, 72, 66
1, 99348, Note_on_c, 0, 68, 73
1, 99348, Note_on_c, 0, 63, 73
1, 99384, Note_off_c, 0, 68, 64
1, 99384, Note_off_c, 0, 63, 64
1, 99388, Note_off_c, 0, 72, 64
1, 99440, Note_on_c, 0, 56, 64
1, 99452, Note_on_c, 0, 80, 89
1, 99452, Note_on_c, 0, 72, 80
1, 99452, Note_on_c, 0, 68, 70
1, 99452, Note_on_c, 0, 66, 56
1, 99452, Note_on_c, 0, 63, 67
1, 99472, Control_c, 0, 64, 0
1, 99496, Note_off_c, 0, 66, 64
1, 99504, Note_off_c, 0, 68, 64
1, 99508, Note_off_c, 0, 72, 64
1, 99508, Control_c, 0, 64, 127
1, 99516, Note_off_c, 0, 56, 64
1, 99528, Note_off_c, 0, 63, 64
1, 99740, Note_on_c, 0, 63, 58
1, 99740, Note_on_c, 0, 56, 44
1, 99744, Note_on_c, 0, 66, 56
1, 99748, Note_on_c, 0, 72, 69
1, 99748, Note_on_c, 0, 68, 73
1, 99764, Note_off_c, 0, 63, 64
1, 99768, Note_off_c, 0, 56, 64
1, 99784, Note_off_c, 0, 80, 64
1, 99788, Note_off_c, 0, 66, 64
1, 99840, Note_off_c, 0, 72, 64
1, 99904, Note_on_c, 0, 78, 80
1, 100012, Note_off_c, 0, 78, 64
1, 100044, Note_off_c, 0, 68, 64
1, 100100, Note_on_c, 0, 49, 85
1, 100100, Note_on_c, 0, 37, 80
1, 100104, Note_on_c, 0, 78, 102
1, 100116, Control_c, 0, 64, 0
1, 100148, Control_c, 0, 64, 127
1, 100484, Note_off_c, 0, 49, 64
1, 100484, Note_off_c, 0, 37, 64
1, 100488, Note_on_c, 0, 68, 59
1, 100488, Note_on_c, 0, 56, 58
1, 100492, Note_on_c, 0, 71, 58
1, 100492, Note_on_c, 0, 65, 51
1, 100500, Note_on_c, 0, 61, 56
1, 100548, Note_off_c, 0, 56, 64
1, 100552, Note_off_c, 0, 61, 64
1, 100580, Note_off_c, 0, 68, 64
1, 100596, Note_off_c, 0, 65, 64
1, 100616, Note_off_c, 0, 71, 64
1, 100628, Note_on_c, 0, 77, 65
1, 100668, Note_off_c, 0, 78, 64
1, 100812, Note_on_c, 0, 68, 58
1, 100816, Note_on_c, 0, 65, 60
1, 100816, Note_on_c, 0, 56, 46
1, 100824, Note_on_c, 0, 71, 72
1, 100828, Note_on_c, 0, 61, 48
1, 100856, Note_off_c, 0, 77, 64
1, 100880, Note_off_c, 0, 61, 64
1, 100884, Note_off_c, 0, 56, 64
1, 100896, Note_off_c, 0, 65, 64
1, 100908, Note_off_c, 0, 68, 64
1, 100980, Note_on_c, 0, 73, 70
1, 101068, Note_off_c, 0, 71, 64
1, 101140, Note_on_c, 0, 76, 63
1, 101176, Note_off_c, 0, 73, 64
1, 101308, Note_on_c, 0, 75, 58
1, 101340, Note_off_c, 0, 76, 64
1, 101460, Note_on_c, 0, 74, 55
1, 101464, Note_on_c, 0, 49, 52
1, 101468, Note_on_c, 0, 65, 59
1, 101468, Note_on_c, 0, 59, 58
1, 101488, Note_off_c, 0, 75, 64
1, 101532, Note_on_c, 0, 76, 55
1, 101544, Note_off_c, 0, 74, 64
1, 101616, Note_on_c, 0, 74, 58
1, 101636, Note_off_c, 0, 49, 64
1, 101640, Note_off_c, 0, 76, 64
1, 101644, Note_off_c, 0, 65, 64
1, 101644, Note_off_c, 0, 59, 64
1, 101748, Note_on_c, 0, 73, 52
1, 101756, Note_on_c, 0, 49, 37
1, 101760, Note_on_c, 0, 57, 55
1, 101764, Note_off_c, 0, 74, 64
1, 101768, Note_on_c, 0, 65, 57
1, 101876, Note_off_c, 0, 65, 64
1, 101888, Note_on_c, 0, 71, 52
1, 101892, Note_on_c, 0, 56, 54
1, 101916, Note_off_c, 0, 73, 64
1, 101928, Note_off_c, 0, 57, 64
1, 101936, Note_off_c, 0, 49, 64
1, 102052, Note_on_c, 0, 61, 54
1, 102068, Note_on_c, 0, 42, 93
1, 102092, Note_on_c, 0, 73, 51
1, 102092, Note_on_c, 0, 69, 48
1, 102116, Note_off_c, 0, 71, 64
1, 102116, Note_off_c, 0, 56, 64
1, 102152, Control_c, 0, 64, 0
1, 102180, Note_off_c, 0, 61, 64
1, 102188, Control_c, 0, 64, 127
1, 102240, Note_on_c, 0, 49, 72
1, 102252, Note_off_c, 0, 73, 64
1, 102264, Note_on_c, 0, 71, 60
1, 102268, Note_on_c, 0, 68, 67
1, 102272, Note_off_c, 0, 42, 64
1, 102276, Note_off_c, 0, 69, 64
1, 102444, Note_on_c, 0, 69, 67
1, 102448, Note_off_c, 0, 49, 64
1, 102456, Note_off_c, 0, 68, 64
1, 102456, Note_on_c, 0, 66, 46
1, 102456, Note_on_c, 0, 61, 94
1, 102476, Note_off_c, 0, 71, 64
1, 102484, Control_c, 0, 64, 0
1, 102528, Control_c, 0, 64, 127
1, 102728, Note_off_c, 0, 61, 64
1, 102784, Tempo, 500000
1, 102784, Note_on_c, 0, 57, 69
1, 102796, Control_c, 0, 64, 0
1, 102828, Control_c, 0, 64, 127
1, 102876, Note_off_c, 0, 57, 64
1, 103012, Note_on_c, 0, 54, 74
1, 103064, Note_off_c, 0, 54, 64
1, 103068, Note_off_c, 0, 69, 64
1, 103084, Control_c, 0, 64, 0
1, 103096, Note_off_c, 0, 66, 64
1, 103112, Note_on_c, 0, 54, 71
1, 103124, Control_c, 0, 64, 127
1, 103288, Note_on_c, 0, 53, 65
1, 103400, Note_off_c, 0, 54, 64
1, 103456, Note_on_c, 0, 57, 71
1, 103492, Note_off_c, 0, 53, 64
1, 103568, Control_c, 0, 64, 0
1, 103580, Note_on_c, 0, 61, 71
1, 103620, Control_c, 0, 64, 127
1, 103736, Note_on_c, 0, 66, 69
1, 103776, Note_off_c, 0, 61, 64
1, 103828, Note_off_c, 0, 66, 64
1, 103836, Note_off_c, 0, 57, 64
1, 103872, Note_on_c, 0, 56, 77
1, 103872, Note_on_c, 0, 68, 62
1, 103872, Note_on_c, 0, 65, 63
1, 103916, Note_off_c, 0, 65, 64
1, 103952, Note_off_c, 0, 56, 64
1, 103964, Note_off_c, 0, 68, 64
1, 104000, Note_on_c, 0, 56, 70
1, 104008, Note_on_c, 0, 65, 63
1, 104008, Note_on_c, 0, 61, 74
1, 104012, Note_on_c, 0, 71, 66
1, 104052, Note_off_c, 0, 65, 64
1, 104124, Note_off_c, 0, 71, 64
1, 104140, Note_on_c, 0, 66, 63
1, 104144, Note_on_c, 0, 69, 62
1, 104164, Note_on_c, 0, 54, 74
1, 104172, Note_off_c, 0, 56, 64
1, 104184, Note_off_c, 0, 66, 64
1, 104184, Control_c, 0, 64, 0
1, 104200, Note_off_c, 0, 61, 64
1, 104260, Control_c, 0, 64, 127
1, 104276, Note_off_c, 0, 69, 64
1, 104316, Note_on_c, 0, 59, 73
1, 104328, Note_off_c, 0, 54, 64
1, 104452, Note_on_c, 0, 62, 62
1, 104588, Note_on_c, 0, 68, 63
1, 104656, Note_off_c, 0, 62, 64
1, 104680, Note_off_c, 0, 68, 64
1, 104712, Note_on_c, 0, 57, 67
1, 104716, Note_on_c, 0, 66, 49
1, 104720, Note_off_c, 0, 59, 64
1, 104720, Note_on_c, 0, 69, 64
1, 104776, Note_off_c, 0, 69, 64
1, 104784, Note_off_c, 0, 66, 64
1, 104824, Note_off_c, 0, 57, 64
1, 104844, Note_on_c, 0, 73, 73
1, 104852, Note_on_c, 0, 55, 66
1, 104860, Note_on_c, 0, 62, 55
1, 104860, Note_on_c, 0, 65, 57
1, 104868, Control_c, 0, 64, 0
1, 104888, Control_c, 0, 64, 127
1, 104896, Note_off_c, 0, 65, 64
1, 104936, Note_off_c, 0, 73, 64
1, 104984, Note_on_c, 0, 71, 64
1, 104984, Note_on_c, 0, 56, 77
1, 104996, Note_off_c, 0, 55, 64
1, 105020, Control_c, 0, 64, 0
1, 105048, Note_off_c, 0, 62, 64
1, 105096, Control_c, 0, 64, 127
1, 105104, Note_off_c, 0, 71, 64
1, 105120, Note_off_c, 0, 56, 64
1, 105120, Note_on_c, 0, 57, 69
1, 105236, Note_off_c, 0, 57, 64
1, 105240, Note_on_c, 0, 56, 67
1, 105248, Note_on_c, 0, 64, 69
1, 105344, Note_off_c, 0, 56, 64
1, 105368, Note_on_c, 0, 69, 64
1, 105376, Note_on_c, 0, 61, 80
1, 105412, Note_off_c, 0, 64, 64
1, 105444, Note_off_c, 0, 61, 64
1, 105484, Note_on_c, 0, 68, 64
1, 105488, Note_on_c, 0, 71, 60
1, 105496, Note_on_c, 0, 59, 77
1, 105512, Note_off_c, 0, 69, 64
1, 105544, Note_off_c, 0, 68, 64
1, 105576, Note_off_c, 0, 59, 64
1, 105584, Note_off_c, 0, 71, 64
1, 105624, Control_c, 0, 64, 0
1, 105632, Note_on_c, 0, 67, 69
1, 105632, Note_on_c, 0, 74, 70
1, 105636, Note_on_c, 0, 64, 59
1, 105636, Note_on_c, 0, 59, 73
1, 105672, Control_c, 0, 64, 127
1, 105744, Note_off_c, 0, 59, 64
1, 105744, Note_on_c, 0, 73, 63
1, 105760, Note_off_c, 0, 74, 64
1, 105772, Note_on_c, 0, 58, 85
1, 105864, Note_off_c, 0, 73, 64
1, 105896, Note_off_c, 0, 58, 64
1, 105904, Control_c, 0, 64, 0
1, 105912, Note_on_c, 0, 62, 80
1, 105972, Control_c, 0, 64, 127
1, 105992, Note_off_c, 0, 67, 64
1, 105996, Note_off_c, 0, 64, 64
1, 106096, Note_on_c, 0, 71, 73
1, 106148, Note_off_c, 0, 71, 64
1, 106176, Note_on_c, 0, 71, 73
1, 106304, Note_on_c, 0, 61, 73
1, 106308, Note_on_c, 0, 70, 82
1, 106328, Note_off_c, 0, 71, 64
1, 106332, Note_off_c, 0, 62, 64
1, 106348, Note_off_c, 0, 61, 64
1, 106368, Note_off_c, 0, 70, 64
1, 106444, Note_on_c, 0, 66, 58
1, 106444, Note_on_c, 0, 63, 77
1, 106448, Note_on_c, 0, 69, 71
1, 106448, Note_on_c, 0, 61, 73
1, 106524, Note_off_c, 0, 66, 64
1, 106532, Note_off_c, 0, 63, 64
1, 106580, Note_on_c, 0, 68, 74
1, 106588, Note_off_c, 0, 61, 64
1, 106592, Note_on_c, 0, 60, 59
1, 106604, Note_off_c, 0, 69, 64
1, 106644, Note_off_c, 0, 68, 64
1, 106688, Note_off_c, 0, 60, 64
1, 106772, Note_on_c, 0, 68, 92
1, 106780, Control_c, 0, 64, 0
1, 106960, Control_c, 0, 64, 127
1, 107232, Note_on_c, 0, 66, 69
1, 107268, Note_off_c, 0, 68, 64
1, 107300, Note_off_c, 0, 66, 64
1, 107368, Control_c, 0, 64, 0
1, 107380, Note_on_c, 0, 66, 78
1, 107392, Control_c, 0, 64, 127
1, 107460, Note_off_c, 0, 66, 64
1, 107612, Note_on_c, 0, 68, 77
1, 107616, Note_on_c, 0, 65, 77
1, 107660, Note_off_c, 0, 68, 64
1, 107668, Note_off_c, 0, 65, 64
1, 107708, Note_on_c, 0, 80, 77
1, 107716, Note_on_c, 0, 68, 80
1, 107724, Note_on_c, 0, 65, 78
1, 107732, Control_c, 0, 64, 0
1, 107796, Control_c, 0, 64, 127
1, 108008, Note_off_c, 0, 80, 64
1, 108036, Note_off_c, 0, 68, 64
1, 108080, Note_off_c, 0, 65, 64
1, 108228, Note_on_c, 0, 78, 73
1, 108228, Note_on_c, 0, 72, 77
1, 108232, Note_on_c, 0, 68, 69
1, 108236, Note_on_c, 0, 63, 85
1, 108292, Note_off_c, 0, 78, 64
1, 108292, Note_off_c, 0, 72, 64
1, 108296, Note_off_c, 0, 68, 64
1, 108300, Note_off_c, 0, 63, 64
1, 108324, Note_on_c, 0, 68, 73
1, 108328, Note_on_c, 0, 72, 77
1, 108332, Note_on_c, 0, 78, 80
1, 108340, Note_on_c, 0, 63, 83
1, 108348, Control_c, 0, 64, 0
1, 108392, Control_c, 0, 64, 127
1, 108424, Note_off_c, 0, 72, 64
1, 108432, Note_off_c, 0, 63, 64
1, 108440, Note_off_c, 0, 68, 64
1, 108456, Note_off_c, 0, 78, 64
1, 108648, Note_on_c, 0, 61, 80
1, 108656, Note_on_c, 0, 73, 78
1, 108664, Note_on_c, 0, 77, 69
1, 108664, Note_on_c, 0, 68, 63
1, 108688, Control_c, 0, 64, 127
1, 108704, Note_off_c, 0, 61, 64
1, 108708, Note_off_c, 0, 68, 64
1, 108712, Note_off_c, 0, 73, 64
1, 108720, Note_off_c, 0, 77, 64
1, 108736, Control_c, 0, 64, 0
1, 108748, Note_on_c, 0, 77, 77
1, 108748, Note_on_c, 0, 68, 77
1, 108752, Note_on_c, 0, 73, 78
1, 108756, Note_on_c, 0, 61, 85
1, 108800, Control_c, 0, 64, 127
1, 108884, Note_off_c, 0, 61, 64
1, 108892, Note_off_c, 0, 73, 64
1, 108904, Note_off_c, 0, 68, 64
1, 108912, Note_off_c, 0, 77, 64
1, 109216, Note_on_c, 0, 74, 64
1, 109216, Note_on_c, 0, 65, 56
1, 109220, Note_on_c, 0, 59, 62
1, 109224, Note_on_c, 0, 68, 63
1, 109360, Note_off_c, 0, 74, 64
1, 109372, Note_on_c, 0, 66, 70
1, 109372, Note_on_c, 0, 57, 62
1, 109376, Note_on_c, 0, 74, 64
1, 109376, Note_on_c, 0, 69, 73
1, 109404, Note_off_c, 0, 65, 64
1, 109408, Note_off_c, 0, 59, 64
1, 109412, Note_off_c, 0, 68, 64
1, 109416, Control_c, 0, 64, 0
1, 109436, Control_c, 0, 64, 127
1, 109600, Note_off_c, 0, 66, 64
1, 109604, Note_off_c, 0, 74, 64
1, 109604, Note_off_c, 0, 69, 64
1, 109612, Note_on_c, 0, 71, 37
1, 109616, Note_on_c, 0, 76, 59
1, 109616, Note_on_c, 0, 56, 60
1, 109620, Note_on_c, 0, 64, 56
1, 109632, Note_off_c, 0, 57, 64
1, 109708, Note_on_c, 0, 74, 66
1, 109728, Note_off_c, 0, 76, 64
1, 109800, Note_off_c, 0, 64, 64
1, 109824, Note_on_c, 0, 73, 73
1, 109824, Note_on_c, 0, 69, 69
1, 109836, Note_on_c, 0, 64, 64
1, 109836, Note_on_c, 0, 57, 59
1, 109840, Note_off_c, 0, 74, 64
1, 109848, Note_off_c, 0, 71, 64
1, 109880, Control_c, 0, 64, 0
1, 109908, Note_off_c, 0, 56, 64
1, 109928, Control_c, 0, 64, 127
1, 110200, Note_off_c, 0, 73, 64
1, 110204, Note_off_c, 0, 69, 64
1, 110216, Note_off_c, 0, 64, 64
1, 110216, Note_off_c, 0, 57, 64
1, 110248, Note_on_c, 0, 51, 62
1, 110252, Note_on_c, 0, 66, 55
1, 110260, Note_on_c, 0, 69, 70
1, 110260, Note_on_c, 0, 73, 64
1, 110312, Control_c, 0, 64, 0
1, 110396, Tempo, 500000
1, 110396, Control_c, 0, 64, 127
1, 110636, Note_off_c, 0, 66, 64
1, 110644, Note_off_c, 0, 69, 64
1, 110644, Note_on_c, 0, 71, 70
1, 110656, Note_off_c, 0, 73, 64
1, 110868, Note_on_c, 0, 73, 55
1, 110876, Note_off_c, 0, 71, 64
1, 110876, Note_on_c, 0, 61, 69
1, 110880, Note_on_c, 0, 68, 55
1, 110892, Note_on_c, 0, 53, 58
1, 110908, Note_off_c, 0, 51, 64
1, 110960, Note_on_c, 0, 71, 64
1, 110984, Note_off_c, 0, 73, 64
1, 111052, Note_off_c, 0, 61, 64
1, 111080, Note_off_c, 0, 68, 64
1, 111080, Note_off_c, 0, 71, 64
1, 111080, Note_on_c, 0, 54, 69
1, 111084, Note_on_c, 0, 61, 59
1, 111092, Note_off_c, 0, 53, 64
1, 111092, Note_on_c, 0, 69, 62
1, 111096, Note_on_c, 0, 66, 64
1, 111116, Control_c, 0, 64, 0
1, 111180, Control_c, 0, 64, 127
1, 111528, Note_on_c, 0, 67, 62
1, 111532, Note_on_c, 0, 62, 62
1, 111540, Note_on_c, 0, 59, 49
1, 111540, Note_on_c, 0, 47, 47
1, 111576, Note_off_c, 0, 54, 64
1, 111580, Note_off_c, 0, 61, 64
1, 111588, Note_off_c, 0, 69, 64
1, 111592, Note_off_c, 0, 66, 64
1, 111604, Control_c, 0, 64, 0
1, 111664, Control_c, 0, 64, 127
1, 111988, Note_off_c, 0, 47, 64
1, 112000, Note_on_c, 0, 55, 46
1, 112004, Control_c, 0, 64, 0
1, 112020, Control_c, 0, 64, 127
1, 112108, Note_off_c, 0, 59, 64
1, 112288, Note_on_c, 0, 66, 62
1, 112300, Note_on_c, 0, 48, 54
1, 112348, Note_off_c, 0, 62, 64
1, 112396, Note_on_c, 0, 64, 56
1, 112428, Note_off_c, 0, 66, 64
1, 112508, Note_on_c, 0, 52, 55
1, 112520, Note_off_c, 0, 48, 64
1, 112524, Note_on_c, 0, 60, 62
1, 112540, Control_c, 0, 64, 0
1, 112580, Note_off_c, 0, 64, 64
1, 112612, Control_c, 0, 64, 127
1, 113020, Note_on_c, 0, 59, 46
1, 113032, Note_on_c, 0, 50, 49
1, 113052, Note_off_c, 0, 52, 64
1, 113060, Note_off_c, 0, 60, 64
1, 113076, Control_c, 0, 64, 0
1, 113152, Control_c, 0, 64, 127
1, 113444, Note_off_c, 0, 67, 64
1, 113484, Note_on_c, 0, 66, 57
1, 113488, Note_on_c, 0, 56, 52
1, 113508, Note_off_c, 0, 59, 64
1, 113516, Note_off_c, 0, 55, 64
1, 113536, Control_c, 0, 64, 0
1, 113584, Control_c, 0, 64, 127
1, 113740, Note_on_c, 0, 57, 57
1, 113744, Note_on_c, 0, 60, 56
1, 113772, Note_off_c, 0, 56, 64
1, 114072, Note_off_c, 0, 66, 64
1, 114104, Note_on_c, 0, 61, 46
1, 114112, Note_on_c, 0, 69, 57
1, 114116, Note_on_c, 0, 49, 48
1, 114124, Note_on_c, 0, 66, 57
1, 114140, Note_off_c, 0, 60, 64
1, 114148, Note_off_c, 0, 50, 64
1, 114176, Control_c, 0, 64, 0
1, 114180, Note_off_c, 0, 57, 64
1, 114180, Control_c, 0, 64, 0
1, 114224, Control_c, 0, 64, 127
1, 114260, Control_c, 0, 64, 127
1, 114852, Note_on_c, 0, 37, 46
1, 114864, Note_on_c, 0, 59, 40
1, 114864, Note_on_c, 0, 68, 55
1, 114876, Note_off_c, 0, 69, 64
1, 114964, Note_off_c, 0, 61, 64
1, 114984, Control_c, 0, 64, 0
1, 115048, Control_c, 0, 64, 127
1, 115184, Note_on_c, 0, 65, 58
1, 115184, Tempo, 500000
1, 115200, Note_off_c, 0, 66, 64
1, 115524, Note_on_c, 0, 58, 47
1, 115536, Note_on_c, 0, 66, 43
1, 115540, Note_on_c, 0, 42, 39
1, 115552, Note_off_c, 0, 65, 64
1, 115568, Note_off_c, 0, 37, 64
1, 115580, Note_off_c, 0, 59, 64
1, 115580, Note_off_c, 0, 68, 64
1, 115628, Control_c, 0, 64, 0
1, 115704, Control_c, 0, 64, 127
1, 116048, Note_off_c, 0, 58, 64
1, 116072, Note_off_c, 0, 66, 64
1, 116480, Note_on_c, 0, 73, 52
1, 116572, Control_c, 0, 64, 0
1, 116624, Control_c, 0, 64, 127
1, 116940, Note_off_c, 0, 49, 64
1, 116944, Note_off_c, 0, 42, 64
1, 117512, Note_on_c, 0, 64, 47
1, 117608, Control_c, 0, 64, 0
1, 117636, Control_c, 0, 64, 127
1, 117768, Note_on_c, 0, 63, 59
1, 117804, Note_off_c, 0, 64, 64
1, 117996, Note_on_c, 0, 65, 62
1, 118020, Note_off_c, 0, 63, 64
1, 118220, Note_on_c, 0, 54, 35
1, 118220, Note_on_c, 0, 66, 57
1, 118220, Note_on_c, 0, 47, 47
1, 118264, Note_off_c, 0, 65, 64
1, 118268, Control_c, 0, 64, 0
1, 118288, Control_c, 0, 64, 127
1, 118348, Note_off_c, 0, 73, 64
1, 118444, Note_on_c, 0, 68, 62
1, 118476, Note_off_c, 0, 66, 64
1, 118632, Note_off_c, 0, 54, 64
1, 118636, Note_off_c, 0, 47, 64
1, 118640, Note_on_c, 0, 63, 58
1, 118652, Note_on_c, 0, 70, 63
1, 118652, Note_on_c, 0, 42, 47
1, 118672, Note_on_c, 0, 54, 35
1, 118688, Note_off_c, 0, 68, 64
1, 118840, Note_on_c, 0, 71, 63
1, 118864, Note_off_c, 0, 70, 64
1, 118956, Note_off_c, 0, 63, 64
1, 118968, Note_off_c, 0, 42, 64
1, 118988, Note_off_c, 0, 54, 64
1, 119016, Note_on_c, 0, 63, 57
1, 119024, Note_on_c, 0, 54, 46
1, 119032, Note_on_c, 0, 47, 59
1, 119064, Control_c, 0, 64, 0
1, 119084, Control_c, 0, 64, 127
1, 119180, Note_on_c, 0, 73, 65
1, 119212, Note_off_c, 0, 71, 64
1, 119252, Note_on_c, 0, 71, 69
1, 119284, Note_off_c, 0, 73, 64
1, 119332, Note_off_c, 0, 63, 64
1, 119340, Note_off_c, 0, 54, 64
1, 119344, Note_off_c, 0, 47, 64
1, 119360, Note_on_c, 0, 70, 71
1, 119368, Note_on_c, 0, 49, 50
1, 119368, Note_on_c, 0, 61, 59
1, 119380, Note_on_c, 0, 54, 41
1, 119392, Note_off_c, 0, 71, 64
1, 119408, Control_c, 0, 64, 0
1, 119424, Control_c, 0, 64, 127
1, 119528, Note_on_c, 0, 68, 62
1, 119556, Note_off_c, 0, 70, 64
1, 119644, Note_off_c, 0, 49, 64
1, 119644, Note_off_c, 0, 61, 64
1, 119656, Note_off_c, 0, 54, 64
1, 119672, Note_on_c, 0, 70, 59
1, 119676, Note_off_c, 0, 68, 64
1, 119680, Note_on_c, 0, 61, 62
1, 119680, Note_on_c, 0, 42, 56
1, 119692, Note_on_c, 0, 54, 44
1, 119712, Control_c, 0, 64, 0
1, 119732, Control_c, 0, 64, 127
1, 119824, Note_on_c, 0, 66, 65
1, 119860, Note_off_c, 0, 70, 64
1, 119956, Note_off_c, 0, 42, 64
1, 119956, Note_off_c, 0, 61, 64
1, 119968, Note_off_c, 0, 54, 64
1, 119984, Note_on_c, 0, 63, 65
1, 119984, Note_on_c, 0, 54, 40
1, 119984, Control_c, 0, 64, 0
1, 119996, Note_on_c, 0, 47, 44
1, 120016, Note_off_c, 0, 66, 64
1, 120024, Control_c, 0, 64, 127
1, 120104, Note_on_c, 0, 65, 63
1, 120192, Note_off_c, 0, 63, 64
1, 120192, Note_off_c, 0, 54, 64
1, 120208, Note_off_c, 0, 47, 64
1, 120248, Note_on_c, 0, 54, 47
1, 120256, Note_on_c, 0, 63, 62
1, 120264, Note_on_c, 0, 66, 77
1, 120264, Note_on_c, 0, 47, 58
1, 120272, Note_off_c, 0, 65, 64
1, 120384, Note_on_c, 0, 68, 63
1, 120432, Note_off_c, 0, 66, 64
1, 120456, Note_off_c, 0, 54, 64
1, 120468, Note_off_c, 0, 63, 64
1, 120472, Note_off_c, 0, 47, 64
1, 120512, Note_on_c, 0, 42, 56
1, 120520, Note_on_c, 0, 63, 52
1, 120524, Note_on_c, 0, 54, 50
1, 120528, Note_on_c, 0, 70, 81
1, 120560, Note_off_c, 0, 68, 64
1, 120672, Note_on_c, 0, 71, 63
1, 120720, Note_off_c, 0, 42, 64
1, 120728, Note_off_c, 0, 63, 64
1, 120732, Note_off_c, 0, 70, 64
1, 120736, Note_off_c, 0, 54, 64
1, 120816, Note_off_c, 0, 71, 64
1, 120816, Note_on_c, 0, 47, 58
1, 120816, Note_on_c, 0, 63, 65
1, 120820, Note_on_c, 0, 54, 40
1, 120916, Note_on_c, 0, 73, 59
1, 121004, Note_on_c, 0, 71, 55
1, 121024, Note_off_c, 0, 47, 64
1, 121028, Note_off_c, 0, 63, 64
1, 121032, Note_off_c, 0, 54, 64
1, 121032, Note_off_c, 0, 73, 64
1, 121080, Note_on_c, 0, 70, 74
1, 121092, Note_on_c, 0, 54, 50
1, 121096, Control_c, 0, 64, 0
1, 121100, Note_on_c, 0, 61, 55
1, 121104, Note_on_c, 0, 49, 50
1, 121112, Control_c, 0, 64, 127
1, 121136, Note_off_c, 0, 71, 64
1, 121208, Note_on_c, 0, 68, 50
1, 121244, Note_off_c, 0, 70, 64
1, 121276, Note_off_c, 0, 54, 64
1, 121280, Note_off_c, 0, 61, 64
1, 121288, Note_off_c, 0, 49, 64
1, 121308, Note_on_c, 0, 42, 51
1, 121320, Note_on_c, 0, 61, 65
1, 121324, Note_on_c, 0, 70, 83
1, 121328, Note_on_c, 0, 54, 48
1, 121356, Note_off_c, 0, 68, 64
1, 121488, Note_off_c, 0, 42, 64
1, 121504, Note_off_c, 0, 61, 64
1, 121512, Note_off_c, 0, 54, 64
1, 121516, Note_off_c, 0, 70, 64
1, 121564, Note_on_c, 0, 63, 72
1, 121576, Note_on_c, 0, 47, 55
1, 121580, Note_on_c, 0, 54, 41
1, 121672, Note_on_c, 0, 65, 62
1, 121748, Note_off_c, 0, 63, 64
1, 121760, Note_off_c, 0, 47, 64
1, 121760, Note_off_c, 0, 54, 64
1, 121796, Note_on_c, 0, 63, 59
1, 121796, Note_on_c, 0, 54, 49
1, 121804, Note_on_c, 0, 66, 65
1, 121804, Note_on_c, 0, 47, 59
1, 121816, Note_off_c, 0, 65, 64
1, 121904, Note_on_c, 0, 68, 58
1, 121940, Note_off_c, 0, 66, 64
1, 121980, Note_off_c, 0, 63, 64
1, 121980, Note_off_c, 0, 54, 64
1, 121984, Note_off_c, 0, 47, 64
1, 122016, Note_on_c, 0, 42, 59
1, 122024, Note_on_c, 0, 70, 71
1, 122024, Note_on_c, 0, 63, 56
1, 122028, Note_on_c, 0, 54, 55
1, 122044, Note_off_c, 0, 68, 64
1, 122128, Note_on_c, 0, 71, 55
1, 122200, Note_off_c, 0, 42, 64
1, 122208, Note_off_c, 0, 70, 64
1, 122208, Note_off_c, 0, 63, 64
1, 122212, Note_off_c, 0, 54, 64
1, 122244, Note_on_c, 0, 54, 58
1, 122256, Note_on_c, 0, 63, 82
1, 122256, Note_on_c, 0, 47, 57
1, 122316, Note_on_c, 0, 73, 62
1, 122360, Note_off_c, 0, 71, 64
1, 122392, Note_on_c, 0, 71, 62
1, 122416, Note_off_c, 0, 73, 64
1, 122428, Note_off_c, 0, 54, 64
1, 122436, Note_off_c, 0, 63, 64
1, 122436, Note_off_c, 0, 47, 64
1, 122460, Note_on_c, 0, 54, 56
1, 122472, Note_on_c, 0, 70, 73
1, 122472, Note_on_c, 0, 49, 42
1, 122484, Note_on_c, 0, 61, 54
1, 122496, Note_off_c, 0, 71, 64
1, 122580, Note_on_c, 0, 68, 47
1, 122596, Note_off_c, 0, 70, 64
1, 122640, Note_off_c, 0, 54, 64
1, 122656, Note_off_c, 0, 49, 64
1, 122668, Note_off_c, 0, 61, 64
1, 122680, Note_on_c, 0, 70, 74
1, 122688, Note_on_c, 0, 42, 64
1, 122692, Note_on_c, 0, 61, 50
1, 122696, Note_off_c, 0, 68, 64
1, 122696, Note_on_c, 0, 54, 46
1, 122792, Note_on_c, 0, 66, 70
1, 122816, Note_off_c, 0, 70, 64
1, 122872, Note_off_c, 0, 42, 64
1, 122872, Note_off_c, 0, 61, 64
1, 122880, Note_off_c, 0, 54, 64
1, 122892, Note_on_c, 0, 54, 50
1, 122892, Note_on_c, 0, 47, 58
1, 122904, Note_on_c, 0, 63, 73
1, 122924, Note_off_c, 0, 66, 64
1, 123004, Note_on_c, 0, 65, 60
1, 123044, Note_off_c, 0, 54, 64
1, 123044, Note_off_c, 0, 47, 64
1, 123052, Note_off_c, 0, 63, 64
1, 123092, Control_c, 0, 64, 0
1, 123104, Note_on_c, 0, 54, 57
1, 123104, Note_on_c, 0, 47, 62
1, 123108, Note_on_c, 0, 63, 59
1, 123116, Note_on_c, 0, 66, 56
1, 123124, Control_c, 0, 64, 127
1, 123136, Note_off_c, 0, 65, 64
1, 123200, Note_on_c, 0, 68, 57
1, 123232, Note_off_c, 0, 66, 64
1, 123252, Note_off_c, 0, 54, 64
1, 123252, Note_off_c, 0, 47, 64
1, 123260, Note_off_c, 0, 63, 64
1, 123312, Note_on_c, 0, 63, 50
1, 123316, Note_on_c, 0, 70, 65
1, 123324, Note_on_c, 0, 54, 48
1, 123324, Note_on_c, 0, 42, 73
1, 123348, Note_off_c, 0, 68, 64
1, 123416, Note_on_c, 0, 71, 52
1, 123464, Note_off_c, 0, 63, 64
1, 123472, Note_off_c, 0, 54, 64
1, 123472, Note_off_c, 0, 42, 64
1, 123488, Note_off_c, 0, 70, 64
1, 123496, Control_c, 0, 64, 0
1, 123516, Control_c, 0, 64, 127
1, 123528, Note_on_c, 0, 63, 72
1, 123536, Note_on_c, 0, 54, 59
1, 123544, Note_on_c, 0, 47, 62
1, 123588, Note_on_c, 0, 73, 63
1, 123608, Note_off_c, 0, 71, 64
1, 123668, Note_on_c, 0, 71, 55
1, 123680, Note_off_c, 0, 63, 64
1, 123688, Note_off_c, 0, 54, 64
1, 123692, Note_off_c, 0, 47, 64
1, 123696, Note_off_c, 0, 73, 64
1, 123720, Note_on_c, 0, 54, 58
1, 123744, Note_on_c, 0, 61, 56
1, 123744, Note_on_c, 0, 49, 36
1, 123752, Note_on_c, 0, 70, 47
1, 123768, Note_off_c, 0, 71, 64
1, 123836, Note_on_c, 0, 68, 69
1, 123856, Note_off_c, 0, 70, 64
1, 123868, Note_off_c, 0, 54, 64
1, 123892, Note_off_c, 0, 61, 64
1, 123892, Note_off_c, 0, 49, 64
1, 123916, Control_c, 0, 64, 0
1, 123924, Note_on_c, 0, 70, 71
1, 123928, Note_on_c, 0, 61, 50
1, 123936, Note_on_c, 0, 42, 66
1, 123944, Note_off_c, 0, 68, 64
1, 123948, Control_c, 0, 64, 127
1, 123956, Note_on_c, 0, 54, 50
1, 124032, Note_on_c, 0, 66, 56
1, 124052, Note_off_c, 0, 70, 64
1, 124080, Note_off_c, 0, 61, 64
1, 124084, Note_off_c, 0, 42, 64
1, 124104, Note_off_c, 0, 54, 64
1, 124108, Control_c, 0, 64, 0
1, 124132, Note_on_c, 0, 63, 58
1, 124132, Note_on_c, 0, 70, 69
1, 124132, Control_c, 0, 64, 127
1, 124140, Note_off_c, 0, 66, 64
1, 124144, Note_on_c, 0, 54, 43
1, 124144, Note_on_c, 0, 47, 50
1, 124220, Note_on_c, 0, 68, 43
1, 124232, Note_off_c, 0, 70, 64
1, 124280, Note_off_c, 0, 63, 64
1, 124296, Note_off_c, 0, 54, 64
1, 124296, Note_off_c, 0, 47, 64
1, 124316, Note_on_c, 0, 70, 69
1, 124316, Note_on_c, 0, 61, 55
1, 124328, Note_on_c, 0, 42, 50
1, 124336, Note_off_c, 0, 68, 64
1, 124348, Note_on_c, 0, 54, 43
1, 124420, Note_on_c, 0, 66, 43
1, 124440, Note_off_c, 0, 70, 64
1, 124468, Note_off_c, 0, 61, 64
1, 124476, Note_off_c, 0, 42, 64
1, 124496, Note_off_c, 0, 54, 64
1, 124520, Note_on_c, 0, 63, 58
1, 124520, Note_on_c, 0, 70, 69
1, 124540, Note_off_c, 0, 66, 64
1, 124540, Note_on_c, 0, 54, 57
1, 124544, Note_on_c, 0, 47, 59
1, 124600, Note_on_c, 0, 68, 80
1, 124624, Note_off_c, 0, 70, 64
1, 124672, Note_off_c, 0, 63, 64
1, 124688, Note_off_c, 0, 54, 64
1, 124692, Note_off_c, 0, 47, 64
1, 124704, Note_on_c, 0, 70, 73
1, 124712, Note_on_c, 0, 61, 58
1, 124724, Note_on_c, 0, 42, 57
1, 124728, Note_off_c, 0, 68, 64
1, 124740, Note_on_c, 0, 54, 47
1, 124788, Note_on_c, 0, 66, 77
1, 124816, Note_off_c, 0, 70, 64
1, 124864, Note_off_c, 0, 61, 64
1, 124864, Control_c, 0, 64, 0
1, 124872, Note_off_c, 0, 42, 64
1, 124892, Note_off_c, 0, 54, 64
1, 124900, Control_c, 0, 64, 127
1, 124908, Note_on_c, 0, 70, 72
1, 124908, Note_on_c, 0, 63, 59
1, 124920, Note_on_c, 0, 47, 55
1, 124924, Note_on_c, 0, 54, 55
1, 124944, Note_off_c, 0, 66, 64
1, 124984, Note_on_c, 0, 68, 81
1, 125000, Note_off_c, 0, 70, 64
1, 125040, Control_c, 0, 64, 0
1, 125060, Note_off_c, 0, 63, 64
1, 125060, Control_c, 0, 64, 127
1, 125068, Note_off_c, 0, 47, 64
1, 125072, Note_off_c, 0, 54, 64
1, 125084, Note_on_c, 0, 61, 58
1, 125088, Note_on_c, 0, 70, 73
1, 125092, Note_on_c, 0, 42, 64
1, 125108, Note_on_c, 0, 54, 55
1, 125120, Note_off_c, 0, 68, 64
1, 125164, Note_on_c, 0, 66, 82
1, 125184, Note_off_c, 0, 70, 64
1, 125232, Note_off_c, 0, 61, 64
1, 125244, Note_off_c, 0, 42, 64
1, 125256, Note_off_c, 0, 54, 64
1, 125272, Note_on_c, 0, 63, 57
1, 125276, Note_on_c, 0, 70, 75
1, 125284, Note_on_c, 0, 47, 58
1, 125292, Note_on_c, 0, 54, 59
1, 125316, Note_off_c, 0, 66, 64
1, 125356, Note_on_c, 0, 68, 64
1, 125376, Note_off_c, 0, 70, 64
1, 125404, Control_c, 0, 64, 0
1, 125420, Note_off_c, 0, 63, 64
1, 125424, Control_c, 0, 64, 127
1, 125432, Note_off_c, 0, 47, 64
1, 125440, Note_off_c, 0, 54, 64
1, 125456, Note_on_c, 0, 61, 62
1, 125456, Note_on_c, 0, 42, 64
1, 125468, Note_on_c, 0, 54, 59
1, 125468, Note_on_c, 0, 70, 73
1, 125484, Note_off_c, 0, 68, 64
1, 125544, Note_on_c, 0, 66, 65
1, 125568, Control_c, 0, 64, 0
1, 125572, Note_off_c, 0, 70, 64
1, 125600, Control_c, 0, 64, 127
1, 125604, Note_off_c, 0, 61, 64
1, 125604, Note_off_c, 0, 42, 64
1, 125616, Note_off_c, 0, 54, 64
1, 125628, Note_on_c, 0, 47, 49
1, 125636, Note_on_c, 0, 54, 63
1, 125640, Note_on_c, 0, 63, 58
1, 125648, Note_on_c, 0, 70, 75
1, 125672, Note_off_c, 0, 66, 64
1, 125728, Note_on_c, 0, 68, 60
1, 125748, Note_off_c, 0, 70, 64
1, 125764, Control_c, 0, 64, 0
1, 125780, Note_off_c, 0, 47, 64
1, 125784, Note_off_c, 0, 54, 64
1, 125792, Note_off_c, 0, 63, 64
1, 125792, Control_c, 0, 64, 127
1, 125820, Note_on_c, 0, 42, 67
1, 125824, Note_on_c, 0, 61, 59
1, 125828, Note_on_c, 0, 54, 60
1, 125832, Note_on_c, 0, 70, 70
1, 125864, Note_off_c, 0, 68, 64
1, 125908, Note_on_c, 0, 66, 60
1, 125924, Note_off_c, 0, 70, 64
1, 125952, Control_c, 0, 64, 0
1, 125972, Note_off_c, 0, 42, 64
1, 125972, Note_off_c, 0, 61, 64
1, 125976, Note_off_c, 0, 54, 64
1, 125988, Control_c, 0, 64, 127
1, 126000, Note_on_c, 0, 47, 59
1, 126008, Note_on_c, 0, 63, 59
1, 126008, Note_on_c, 0, 54, 66
1, 126016, Note_on_c, 0, 70, 73
1, 126040, Note_off_c, 0, 66, 64
1, 126104, Note_on_c, 0, 68, 57
1, 126120, Note_off_c, 0, 70, 64
1, 126132, Control_c, 0, 64, 0
1, 126148, Note_off_c, 0, 47, 64
1, 126160, Note_off_c, 0, 63, 64
1, 126160, Note_off_c, 0, 54, 64
1, 126168, Control_c, 0, 64, 127
1, 126216, Note_on_c, 0, 70, 87
1, 126216, Note_on_c, 0, 61, 75
1, 126216, Note_on_c, 0, 54, 86
1, 126228, Note_on_c, 0, 42, 80
1, 126236, Note_off_c, 0, 68, 64
1, 126376, Note_off_c, 0, 61, 64
1, 126400, Note_off_c, 0, 70, 64
1, 126416, Note_off_c, 0, 54, 64
1, 126432, Note_off_c, 0, 42, 64
1, 126552, Control_c, 0, 64, 0
1, 126900, Note_on_c, 0, 37, 83
1, 126996, Control_c, 0, 64, 127
1, 127144, Note_on_c, 0, 63, 64
1, 127188, Note_off_c, 0, 63, 64
1, 127204, Control_c, 0, 64, 0
1, 127224, Control_c, 0, 64, 127
1, 127232, Tempo, 500000
1, 127232, Note_on_c, 0, 63, 82
1, 127496, Note_off_c, 0, 37, 64
1, 127564, Note_on_c, 0, 37, 52
1, 127572, Note_on_c, 0, 49, 50
1, 127580, Note_on_c, 0, 59, 55
1, 127580, Note_on_c, 0, 53, 55
1, 127584, Control_c, 0, 64, 0
1, 127616, Control_c, 0, 64, 127
1, 127720, Note_off_c, 0, 63, 64
1, 127724, Note_on_c, 0, 65, 73
1, 127840, Note_off_c, 0, 65, 64
1, 127852, Note_off_c, 0, 37, 64
1, 127860, Note_off_c, 0, 49, 64
1, 127868, Note_off_c, 0, 59, 64
1, 127868, Note_off_c, 0, 53, 64
1, 127868, Note_on_c, 0, 65, 86
1, 127868, Note_on_c, 0, 58, 63
1, 127872, Note_on_c, 0, 54, 55
1, 127880, Note_on_c, 0, 49, 50
1, 127884, Note_on_c, 0, 42, 47
1, 127904, Control_c, 0, 64, 0
1, 127996, Control_c, 0, 64, 127
1, 128080, Note_off_c, 0, 65, 64
1, 128096, Note_on_c, 0, 66, 69
1, 128144, Note_off_c, 0, 66, 64
1, 128164, Control_c, 0, 64, 0
1, 128180, Note_on_c, 0, 66, 73
1, 128216, Control_c, 0, 64, 127
1, 128252, Note_off_c, 0, 58, 64
1, 128256, Note_off_c, 0, 54, 64
1, 128260, Note_off_c, 0, 49, 64
1, 128264, Note_off_c, 0, 42, 64
1, 128436, Note_on_c, 0, 49, 46
1, 128448, Note_on_c, 0, 54, 55
1, 128448, Note_on_c, 0, 37, 52
1, 128460, Note_on_c, 0, 58, 55
1, 128628, Note_on_c, 0, 65, 63
1, 128640, Note_off_c, 0, 66, 64
1, 128732, Note_on_c, 0, 63, 72
1, 128748, Note_off_c, 0, 65, 64
1, 128768, Note_off_c, 0, 49, 64
1, 128784, Note_on_c, 0, 65, 62
1, 128796, Note_off_c, 0, 63, 64
1, 128820, Note_on_c, 0, 49, 32
1, 128820, Note_on_c, 0, 53, 49
1, 128820, Control_c, 0, 64, 0
1, 128832, Note_off_c, 0, 54, 64
1, 128832, Note_off_c, 0, 37, 64
1, 128832, Note_on_c, 0, 63, 73
1, 128832, Note_on_c, 0, 59, 41
1, 128832, Note_on_c, 0, 44, 32
1, 128836, Control_c, 0, 64, 0
1, 128840, Note_off_c, 0, 58, 64
1, 128860, Control_c, 0, 64, 127
1, 128872, Control_c, 0, 64, 127
1, 128876, Note_off_c, 0, 65, 64
1, 128908, Note_off_c, 0, 63, 64
1, 128976, Note_on_c, 0, 61, 73
1, 128988, Note_on_c, 0, 61, 73
1, 129040, Note_off_c, 0, 49, 64
1, 129044, Note_off_c, 0, 53, 64
1, 129052, Note_off_c, 0, 44, 64
1, 129052, Note_off_c, 0, 59, 64
1, 129120, Control_c, 0, 64, 0
1, 129132, Note_off_c, 0, 61, 64
1, 129132, Note_on_c, 0, 63, 78
1, 129144, Note_off_c, 0, 61, 64
1, 129172, Control_c, 0, 64, 127
1, 129436, Control_c, 0, 64, 0
1, 129448, Note_on_c, 0, 53, 49
1, 129448, Note_on_c, 0, 49, 49
1, 129448, Note_on_c, 0, 37, 50
1, 129456, Note_on_c, 0, 59, 52
1, 129472, Control_c, 0, 64, 127
1, 129476, Control_c, 0, 64, 0
1, 129520, Control_c, 0, 64, 127
1, 129616, Note_on_c, 0, 65, 55
1, 129664, Note_off_c, 0, 63, 64
1, 129740, Note_off_c, 0, 49, 64
1, 129756, Note_on_c, 0, 54, 55
1, 129756, Note_on_c, 0, 49, 55
1, 129756, Note_on_c, 0, 58, 62
1, 129764, Note_on_c, 0, 42, 55
1, 129768, Note_on_c, 0, 66, 77
1, 129780, Note_off_c, 0, 53, 64
1, 129780, Note_off_c, 0, 37, 64
1, 129780, Control_c, 0, 64, 0
1, 129784, Control_c, 0, 64, 127
1, 129788, Note_off_c, 0, 59, 64
1, 129796, Note_off_c, 0, 65, 64
1, 129848, Control_c, 0, 64, 127
1, 129976, Note_off_c, 0, 54, 64
1, 129976, Note_off_c, 0, 49, 64
1, 129980, Note_off_c, 0, 58, 64
1, 129984, Note_off_c, 0, 42, 64
1, 130096, Note_on_c, 0, 63, 73
1, 130096, Control_c, 0, 64, 0
1, 130132, Note_off_c, 0, 66, 64
1, 130148, Control_c, 0, 64, 127
1, 130424, Control_c, 0, 64, 0
1, 130432, Note_on_c, 0, 58, 62
1, 130432, Note_on_c, 0, 54, 55
1, 130436, Note_on_c, 0, 42, 48
1, 130440, Note_on_c, 0, 49, 46
1, 130460, Control_c, 0, 64, 127
1, 130480, Tempo, 500000
1, 130480, Control_c, 0, 64, 127
1, 130720, Note_off_c, 0, 54, 64
1, 130720, Note_off_c, 0, 58, 64
1, 130724, Note_off_c, 0, 42, 64
1, 130724, Note_off_c, 0, 49, 64
1, 130752, Note_on_c, 0, 49, 52
1, 130756, Note_on_c, 0, 37, 55
1, 130760, Note_on_c, 0, 59, 62
1, 130760, Note_on_c, 0, 53, 55
1, 130768, Control_c, 0, 64, 0
1, 130792, Control_c, 0, 64, 127
1, 130836, Control_c, 0, 64, 127
1, 130956, Note_off_c, 0, 63, 64
1, 130980, Note_on_c, 0, 63, 74
1, 131016, Note_off_c, 0, 63, 64
1, 131040, Note_off_c, 0, 59, 64
1, 131060, Note_off_c, 0, 37, 64
1, 131068, Note_on_c, 0, 63, 74
1, 131076, Note_off_c, 0, 49, 64
1, 131080, Control_c, 0, 64, 0
1, 131088, Note_off_c, 0, 53, 64
1, 131116, Control_c, 0, 64, 127
1, 131364, Note_on_c, 0, 53, 55
1, 131364, Note_on_c, 0, 49, 46
1, 131368, Note_on_c, 0, 59, 49
1, 131376, Note_on_c, 0, 37, 48
1, 131392, Control_c, 0, 64, 127
1, 131404, Control_c, 0, 64, 0
1, 131436, Control_c, 0, 64, 127
1, 131536, Note_on_c, 0, 65, 64
1, 131576, Note_off_c, 0, 63, 64
1, 131584, Note_off_c, 0, 53, 64
1, 131584, Note_off_c, 0, 49, 64
1, 131588, Note_off_c, 0, 59, 64
1, 131600, Note_off_c, 0, 37, 64
1, 131684, Note_on_c, 0, 53, 55
1, 131688, Note_on_c, 0, 68, 71
1, 131692, Note_on_c, 0, 58, 59
1, 131696, Note_on_c, 0, 38, 50
1, 131704, Note_on_c, 0, 50, 52
1, 131708, Control_c, 0, 64, 0
1, 131712, Control_c, 0, 64, 127
1, 131736, Note_off_c, 0, 65, 64
1, 131744, Control_c, 0, 64, 127
1, 131912, Note_on_c, 0, 66, 55
1, 131936, Note_off_c, 0, 68, 64
1, 131940, Note_off_c, 0, 53, 64
1, 131948, Note_off_c, 0, 58, 64
1, 131948, Note_off_c, 0, 66, 64
1, 131952, Note_off_c, 0, 38, 64
1, 131960, Note_off_c, 0, 50, 64
1, 131992, Note_on_c, 0, 51, 55
1, 131996, Note_on_c, 0, 66, 73
1, 132008, Note_on_c, 0, 58, 65
1, 132016, Note_on_c, 0, 54, 62
1, 132024, Note_on_c, 0, 39, 51
1, 132028, Control_c, 0, 64, 0
1, 132044, Control_c, 0, 64, 127
1, 132064, Control_c, 0, 64, 127
1, 132248, Note_off_c, 0, 51, 64
1, 132264, Note_off_c, 0, 58, 64
1, 132272, Note_off_c, 0, 54, 64
1, 132280, Note_off_c, 0, 39, 64
1, 132324, Note_on_c, 0, 34, 57
1, 132328, Control_c, 0, 64, 0
1, 132336, Note_on_c, 0, 46, 57
1, 132340, Note_on_c, 0, 61, 57
1, 132340, Note_on_c, 0, 54, 59
1, 132372, Control_c, 0, 64, 127
1, 132472, Note_on_c, 0, 65, 64
1, 132504, Note_off_c, 0, 66, 64
1, 132580, Note_off_c, 0, 34, 64
1, 132592, Note_off_c, 0, 46, 64
1, 132596, Note_off_c, 0, 61, 64
1, 132596, Note_off_c, 0, 54, 64
1, 132616, Note_off_c, 0, 65, 64
1, 132616, Note_on_c, 0, 63, 71
1, 132648, Note_on_c, 0, 65, 63
1, 132668, Note_off_c, 0, 63, 64
1, 132700, Note_on_c, 0, 56, 56
1, 132708, Note_on_c, 0, 54, 56
1, 132708, Note_on_c, 0, 35, 56
1, 132708, Note_on_c, 0, 63, 73
1, 132720, Note_on_c, 0, 47, 56
1, 132720, Control_c, 0, 64, 0
1, 132732, Control_c, 0, 64, 127
1, 132760, Note_off_c, 0, 65, 64
1, 132768, Control_c, 0, 64, 127
1, 132888, Note_on_c, 0, 61, 62
1, 132908, Note_off_c, 0, 63, 64
1, 132956, Note_off_c, 0, 56, 64
1, 132964, Note_off_c, 0, 54, 64
1, 133028, Note_on_c, 0, 44, 58
1, 133028, Note_on_c, 0, 32, 58
1, 133032, Note_on_c, 0, 54, 56
1, 133040, Note_on_c, 0, 59, 56
1, 133044, Note_on_c, 0, 63, 78
1, 133068, Note_off_c, 0, 61, 64
1, 133072, Control_c, 0, 64, 127
1, 133072, Control_c, 0, 64, 0
1, 133108, Note_off_c, 0, 35, 64
1, 133120, Note_off_c, 0, 47, 64
1, 133120, Control_c, 0, 64, 127
1, 133288, Note_off_c, 0, 54, 64
1, 133296, Note_off_c, 0, 59, 64
1, 133400, Control_c, 0, 64, 127
1, 133408, Note_off_c, 0, 44, 64
1, 133408, Note_off_c, 0, 32, 64
1, 133420, Note_on_c, 0, 59, 58
1, 133424, Note_on_c, 0, 53, 56
1, 133424, Note_on_c, 0, 37, 69
1, 133424, Note_on_c, 0, 25, 69
1, 133428, Note_on_c, 0, 65, 86
1, 133440, Control_c, 0, 64, 0
1, 133464, Note_off_c, 0, 63, 64
1, 133464, Control_c, 0, 64, 127
1, 133676, Note_off_c, 0, 59, 64
1, 133680, Note_off_c, 0, 25, 64
1, 133680, Note_off_c, 0, 37, 64
1, 133680, Note_off_c, 0, 53, 64
1, 133816, Note_on_c, 0, 68, 73
1, 133820, Note_on_c, 0, 53, 56
1, 133824, Note_on_c, 0, 59, 56
1, 133824, Note_on_c, 0, 25, 69
1, 133836, Note_off_c, 0, 65, 64
1, 133836, Note_on_c, 0, 37, 78
1, 133848, Control_c, 0, 64, 0
1, 133896, Control_c, 0, 64, 127
1, 134076, Note_off_c, 0, 53, 64
1, 134080, Note_off_c, 0, 59, 64
1, 134080, Note_off_c, 0, 25, 64
1, 134092, Note_off_c, 0, 37, 64
1, 134304, Note_on_c, 0, 66, 71
1, 134308, Note_off_c, 0, 68, 64
1, 134360, Note_off_c, 0, 66, 64
1, 134400, Note_on_c, 0, 66, 79
1, 134404, Note_on_c, 0, 54, 62
1, 134404, Note_on_c, 0, 30, 55
1, 134408, Note_on_c, 0, 58, 62
1, 134408, Note_on_c, 0, 42, 62
1, 134440, Control_c, 0, 64, 0
1, 134756, Control_c, 0, 64, 127
1, 134912, Note_off_c, 0, 66, 64
1, 134916, Note_off_c, 0, 54, 64
1, 134916, Note_off_c, 0, 30, 64
1, 134916, Control_c, 0, 64, 0
1, 134920, Note_off_c, 0, 58, 64
1, 134920, Note_off_c, 0, 42, 64
1, 134920, End_track
2, 0, Start_track
2, 1, Copyright_t, "__________________________________________________________\012\012KUNSTDERFUGE.COM GREAT CLASSICAL MIDI COLLECTION\012__________________________________________________________\012\012KUNST-DER-FUGE CONTRIBUTOR's PROPERTY\012Copyright by Contributor & Kunst der Fuge, © 2006\012\012Contributors' list: http://kunstderfuge.com/thanks.htm\012Terms and conditions: http://kunstderfuge.com/notes.htm\012__________________________________________________________\012\012NO WEBSITE MAY PUBLISH THIS FILE WITHOUT PERMISSION\012NO COMMERCIAL USE ALLOWED, NOR BY SALES NOR by eBay!\012PLEASE REPORT ANY ABUSE TO INFO@ONCLASSICAL.COM\012__________________________________________________________\012\012Thousands of free classical MIDI files at kunstderfuge.com"
2, 1, End_track
0, 0, End_of_file
