0, 0, Header, 0, 2, 384
1, 0, Start_track
1, 0, Title_t, "Chopin's Mazurkas (played by © Ron Lubetsky)"
1, 0, Time_signature, 4, 2, 96, 8
1, 0, Sequencer_specific, 3, 0, 0, 65
1, 0, Tempo, 500000
1, 4, Note_on_c, 0, 48, 59
1, 8, Note_on_c, 0, 36, 59
1, 8, Note_on_c, 0, 60, 81
1, 12, Note_on_c, 0, 64, 73
1, 12, Note_on_c, 0, 55, 77
1, 68, Note_off_c, 0, 48, 64
1, 72, Note_off_c, 0, 36, 64
1, 72, Note_off_c, 0, 60, 64
1, 76, Note_off_c, 0, 64, 64
1, 76, Note_off_c, 0, 55, 64
1, 124, Note_on_c, 0, 62, 106
1, 132, Note_on_c, 0, 48, 82
1, 132, Note_on_c, 0, 55, 85
1, 136, Note_on_c, 0, 65, 98
1, 140, Note_on_c, 0, 36, 85
1, 196, Note_off_c, 0, 62, 64
1, 204, Note_off_c, 0, 48, 64
1, 204, Note_off_c, 0, 55, 64
1, 208, Note_off_c, 0, 65, 64
1, 208, Note_off_c, 0, 36, 64
1, 256, Note_on_c, 0, 48, 96
1, 260, Note_on_c, 0, 36, 102
1, 264, Note_on_c, 0, 67, 100
1, 268, Note_on_c, 0, 64, 107
1, 276, Note_on_c, 0, 55, 86
1, 340, Note_off_c, 0, 48, 64
1, 344, Note_off_c, 0, 36, 64
1, 348, Note_off_c, 0, 67, 64
1, 352, Note_off_c, 0, 64, 64
1, 360, Note_off_c, 0, 55, 64
1, 556, Note_on_c, 0, 65, 109
1, 564, Note_on_c, 0, 69, 115
1, 564, Note_on_c, 0, 57, 115
1, 576, Note_on_c, 0, 36, 110
1, 576, Note_on_c, 0, 48, 106
1, 616, Control_c, 0, 64, 127
1, 784, Note_off_c, 0, 65, 64
1, 788, Note_off_c, 0, 69, 64
1, 792, Note_off_c, 0, 57, 64
1, 800, Note_off_c, 0, 36, 64
1, 804, Note_off_c, 0, 48, 64
1, 832, Control_c, 0, 64, 0
1, 856, Note_on_c, 0, 64, 87
1, 856, Note_on_c, 0, 67, 90
1, 872, Note_on_c, 0, 36, 90
1, 872, Note_on_c, 0, 48, 85
1, 880, Note_on_c, 0, 55, 91
1, 928, Note_off_c, 0, 64, 64
1, 928, Note_off_c, 0, 67, 64
1, 944, Note_off_c, 0, 36, 64
1, 944, Note_off_c, 0, 48, 64
1, 952, Note_off_c, 0, 55, 64
1, 984, Note_on_c, 0, 55, 93
1, 984, Note_on_c, 0, 64, 100
1, 988, Note_on_c, 0, 36, 91
1, 988, Note_on_c, 0, 60, 90
1, 992, Note_on_c, 0, 48, 97
1, 1052, Note_off_c, 0, 55, 64
1, 1052, Note_off_c, 0, 64, 64
1, 1056, Note_off_c, 0, 36, 64
1, 1056, Note_off_c, 0, 60, 64
1, 1060, Note_off_c, 0, 48, 64
1, 1112, Note_on_c, 0, 48, 106
1, 1112, Note_on_c, 0, 60, 106
1, 1116, Note_on_c, 0, 55, 97
1, 1116, Note_on_c, 0, 36, 96
1, 1196, Note_off_c, 0, 48, 64
1, 1196, Note_off_c, 0, 60, 64
1, 1204, Note_off_c, 0, 55, 64
1, 1204, Note_off_c, 0, 36, 64
1, 1408, Note_on_c, 0, 55, 121
1, 1412, Note_on_c, 0, 62, 123
1, 1420, Note_on_c, 0, 36, 123
1, 1420, Note_on_c, 0, 48, 123
1, 1440, Control_c, 0, 64, 127
1, 1612, Note_off_c, 0, 55, 64
1, 1612, Note_off_c, 0, 62, 64
1, 1624, Note_off_c, 0, 36, 64
1, 1624, Note_off_c, 0, 48, 64
1, 1700, Note_on_c, 0, 55, 96
1, 1700, Note_on_c, 0, 60, 102
1, 1700, Note_on_c, 0, 64, 106
1, 1700, Note_on_c, 0, 36, 86
1, 1708, Note_on_c, 0, 48, 90
1, 1728, Control_c, 0, 64, 0
1, 1768, Note_off_c, 0, 55, 64
1, 1768, Note_off_c, 0, 60, 64
1, 1768, Note_off_c, 0, 64, 64
1, 1768, Note_off_c, 0, 36, 64
1, 1776, Note_off_c, 0, 48, 64
1, 1832, Note_on_c, 0, 36, 96
1, 1836, Note_on_c, 0, 48, 102
1, 1836, Note_on_c, 0, 55, 95
1, 1836, Note_on_c, 0, 62, 102
1, 1836, Note_on_c, 0, 65, 106
1, 1904, Note_off_c, 0, 36, 64
1, 1904, Note_off_c, 0, 48, 64
1, 1904, Note_off_c, 0, 55, 64
1, 1904, Note_off_c, 0, 62, 64
1, 1908, Note_off_c, 0, 65, 64
1, 1964, Note_on_c, 0, 67, 106
1, 1964, Note_on_c, 0, 48, 107
1, 1968, Note_on_c, 0, 55, 96
1, 1968, Note_on_c, 0, 36, 100
1, 1972, Note_on_c, 0, 64, 106
1, 2084, Note_off_c, 0, 67, 64
1, 2088, Note_off_c, 0, 48, 64
1, 2092, Note_off_c, 0, 55, 64
1, 2092, Note_off_c, 0, 36, 64
1, 2092, Note_off_c, 0, 64, 64
1, 2244, Note_on_c, 0, 60, 111
1, 2244, Note_on_c, 0, 48, 121
1, 2244, Note_on_c, 0, 41, 123
1, 2252, Note_on_c, 0, 69, 117
1, 2252, Note_on_c, 0, 65, 111
1, 2252, Note_on_c, 0, 57, 115
1, 2304, Control_c, 0, 64, 127
1, 2324, Control_c, 0, 64, 0
1, 2364, Control_c, 0, 64, 127
1, 2472, Note_off_c, 0, 60, 64
1, 2472, Note_off_c, 0, 48, 64
1, 2472, Note_off_c, 0, 41, 64
1, 2484, Note_off_c, 0, 69, 64
1, 2484, Note_off_c, 0, 65, 64
1, 2484, Note_off_c, 0, 57, 64
1, 2532, Note_on_c, 0, 67, 117
1, 2540, Note_on_c, 0, 64, 103
1, 2544, Note_on_c, 0, 55, 100
1, 2548, Note_on_c, 0, 60, 104
1, 2548, Note_on_c, 0, 48, 92
1, 2552, Note_on_c, 0, 36, 103
1, 2556, Control_c, 0, 64, 0
1, 2568, Control_c, 0, 64, 0
1, 2596, Note_off_c, 0, 60, 64
1, 2600, Note_off_c, 0, 64, 64
1, 2604, Note_off_c, 0, 67, 64
1, 2604, Note_off_c, 0, 55, 64
1, 2608, Note_off_c, 0, 36, 64
1, 2608, Control_c, 0, 64, 127
1, 2612, Note_off_c, 0, 48, 64
1, 2684, Note_on_c, 0, 55, 109
1, 2688, Note_on_c, 0, 64, 123
1, 2688, Note_on_c, 0, 60, 112
1, 2696, Note_on_c, 0, 36, 110
1, 2700, Note_on_c, 0, 48, 117
1, 2740, Note_off_c, 0, 60, 64
1, 2740, Note_off_c, 0, 48, 64
1, 2748, Note_off_c, 0, 55, 64
1, 2752, Note_off_c, 0, 36, 64
1, 2756, Note_off_c, 0, 64, 64
1, 2824, Control_c, 0, 64, 0
1, 2836, Note_on_c, 0, 67, 123
1, 2836, Note_on_c, 0, 64, 123
1, 2852, Note_on_c, 0, 36, 112
1, 2852, Note_on_c, 0, 55, 110
1, 2860, Note_on_c, 0, 48, 118
1, 2896, Control_c, 0, 64, 127
1, 3036, Note_off_c, 0, 67, 64
1, 3036, Note_off_c, 0, 64, 64
1, 3052, Note_off_c, 0, 36, 64
1, 3052, Note_off_c, 0, 55, 64
1, 3060, Note_off_c, 0, 48, 64
1, 3088, Control_c, 0, 64, 0
1, 3124, Control_c, 0, 64, 127
1, 3136, Control_c, 0, 64, 0
1, 3144, Note_on_c, 0, 71, 83
1, 3208, Control_c, 0, 64, 127
1, 3256, Note_on_c, 0, 72, 78
1, 3280, Note_off_c, 0, 71, 64
1, 3388, Note_on_c, 0, 57, 47
1, 3388, Note_on_c, 0, 54, 53
1, 3396, Note_on_c, 0, 74, 88
1, 3396, Note_on_c, 0, 62, 47
1, 3396, Note_on_c, 0, 60, 47
1, 3408, Note_off_c, 0, 72, 64
1, 3416, Control_c, 0, 64, 0
1, 3452, Control_c, 0, 64, 127
1, 3456, Note_off_c, 0, 74, 64
1, 3472, Note_off_c, 0, 57, 64
1, 3476, Note_off_c, 0, 54, 64
1, 3480, Note_off_c, 0, 62, 64
1, 3480, Note_off_c, 0, 60, 64
1, 3516, Note_on_c, 0, 74, 88
1, 3580, Note_off_c, 0, 74, 64
1, 3620, Control_c, 0, 64, 0
1, 3632, Note_on_c, 0, 76, 71
1, 3640, Note_on_c, 0, 59, 56
1, 3644, Note_on_c, 0, 62, 56
1, 3644, Note_on_c, 0, 55, 53
1, 3644, Note_on_c, 0, 53, 56
1, 3672, Note_on_c, 0, 74, 90
1, 3716, Note_off_c, 0, 76, 64
1, 3728, Note_off_c, 0, 59, 64
1, 3732, Control_c, 0, 64, 127
1, 3740, Note_off_c, 0, 53, 64
1, 3752, Note_off_c, 0, 55, 64
1, 3780, Note_off_c, 0, 62, 64
1, 3884, Control_c, 0, 64, 0
1, 3916, Note_on_c, 0, 67, 83
1, 3920, Note_on_c, 0, 62, 51
1, 3920, Note_on_c, 0, 59, 47
1, 3920, Note_on_c, 0, 55, 41
1, 3920, Note_on_c, 0, 53, 47
1, 3928, Note_off_c, 0, 74, 64
1, 3948, Control_c, 0, 64, 127
1, 3980, Note_off_c, 0, 53, 64
1, 3988, Note_off_c, 0, 62, 64
1, 3988, Note_off_c, 0, 55, 64
1, 4000, Note_off_c, 0, 59, 64
1, 4044, Note_on_c, 0, 71, 62
1, 4068, Note_off_c, 0, 67, 64
1, 4156, Control_c, 0, 64, 0
1, 4164, Note_on_c, 0, 52, 51
1, 4172, Note_on_c, 0, 60, 53
1, 4172, Note_on_c, 0, 55, 41
1, 4172, Note_on_c, 0, 72, 95
1, 4192, Note_off_c, 0, 71, 64
1, 4224, Control_c, 0, 64, 127
1, 4300, Note_off_c, 0, 60, 64
1, 4304, Note_on_c, 0, 74, 66
1, 4312, Note_off_c, 0, 72, 64
1, 4320, Note_off_c, 0, 52, 64
1, 4320, Note_off_c, 0, 55, 64
1, 4396, Control_c, 0, 64, 0
1, 4416, Note_on_c, 0, 64, 57
1, 4424, Note_on_c, 0, 48, 57
1, 4424, Note_on_c, 0, 76, 87
1, 4432, Note_on_c, 0, 55, 46
1, 4456, Note_off_c, 0, 74, 64
1, 4488, Control_c, 0, 64, 127
1, 4544, Note_on_c, 0, 77, 93
1, 4580, Note_off_c, 0, 64, 64
1, 4588, Note_off_c, 0, 76, 64
1, 4592, Note_off_c, 0, 55, 64
1, 4620, Note_off_c, 0, 48, 64
1, 4688, Note_on_c, 0, 79, 83
1, 4732, Note_off_c, 0, 77, 64
1, 4804, Note_on_c, 0, 80, 96
1, 4852, Note_off_c, 0, 79, 64
1, 4892, Control_c, 0, 64, 0
1, 4924, Note_on_c, 0, 43, 87
1, 4940, Note_on_c, 0, 81, 101
1, 4956, Control_c, 0, 64, 127
1, 4964, Note_off_c, 0, 80, 64
1, 4996, Note_off_c, 0, 81, 64
1, 5052, Note_on_c, 0, 81, 87
1, 5108, Note_off_c, 0, 81, 64
1, 5144, Note_on_c, 0, 83, 101
1, 5164, Control_c, 0, 64, 0
1, 5180, Note_on_c, 0, 65, 71
1, 5184, Note_on_c, 0, 59, 71
1, 5188, Note_on_c, 0, 55, 71
1, 5192, Note_on_c, 0, 81, 91
1, 5228, Note_off_c, 0, 83, 64
1, 5228, Control_c, 0, 64, 127
1, 5276, Note_off_c, 0, 59, 64
1, 5284, Note_off_c, 0, 55, 64
1, 5296, Note_off_c, 0, 65, 64
1, 5356, Note_off_c, 0, 43, 64
1, 5432, Note_on_c, 0, 59, 46
1, 5432, Note_on_c, 0, 65, 40
1, 5436, Note_on_c, 0, 55, 51
1, 5444, Note_on_c, 0, 79, 110
1, 5460, Note_off_c, 0, 81, 64
1, 5548, Note_off_c, 0, 59, 64
1, 5548, Note_off_c, 0, 65, 64
1, 5552, Note_off_c, 0, 55, 64
1, 5572, Note_on_c, 0, 74, 70
1, 5584, Note_off_c, 0, 79, 64
1, 5680, Note_on_c, 0, 48, 66
1, 5688, Note_on_c, 0, 77, 100
1, 5688, Control_c, 0, 64, 0
1, 5700, Note_off_c, 0, 74, 64
1, 5744, Control_c, 0, 64, 127
1, 5752, Note_off_c, 0, 77, 64
1, 5808, Note_on_c, 0, 77, 91
1, 5868, Note_off_c, 0, 77, 64
1, 5892, Note_on_c, 0, 79, 93
1, 5924, Note_on_c, 0, 57, 71
1, 5932, Note_on_c, 0, 65, 63
1, 5940, Note_on_c, 0, 77, 87
1, 5948, Control_c, 0, 64, 0
1, 5972, Note_off_c, 0, 79, 64
1, 5980, Control_c, 0, 64, 127
1, 6180, Note_off_c, 0, 48, 64
1, 6188, Note_on_c, 0, 64, 53
1, 6192, Control_c, 0, 64, 0
1, 6200, Note_on_c, 0, 55, 50
1, 6200, Note_on_c, 0, 76, 72
1, 6204, Note_off_c, 0, 57, 64
1, 6212, Note_off_c, 0, 65, 64
1, 6220, Note_off_c, 0, 77, 64
1, 6236, Control_c, 0, 64, 127
1, 6340, Control_c, 0, 64, 0
1, 6376, Control_c, 0, 64, 127
1, 6392, Note_off_c, 0, 64, 64
1, 6404, Note_off_c, 0, 55, 64
1, 6404, Note_off_c, 0, 76, 64
1, 6428, Note_on_c, 0, 69, 53
1, 6448, Note_on_c, 0, 74, 81
1, 6448, Control_c, 0, 64, 0
1, 6460, Note_on_c, 0, 54, 53
1, 6460, Note_on_c, 0, 57, 47
1, 6464, Note_on_c, 0, 62, 40
1, 6476, Note_on_c, 0, 60, 31
1, 6488, Note_off_c, 0, 69, 64
1, 6500, Control_c, 0, 64, 127
1, 6512, Note_off_c, 0, 74, 64
1, 6544, Note_off_c, 0, 57, 64
1, 6552, Note_off_c, 0, 54, 64
1, 6560, Note_off_c, 0, 60, 64
1, 6572, Note_on_c, 0, 74, 88
1, 6584, Note_off_c, 0, 62, 64
1, 6628, Note_off_c, 0, 74, 64
1, 6660, Note_on_c, 0, 76, 71
1, 6692, Note_on_c, 0, 62, 53
1, 6692, Note_on_c, 0, 55, 53
1, 6700, Note_on_c, 0, 74, 96
1, 6700, Note_on_c, 0, 53, 52
1, 6708, Note_on_c, 0, 59, 45
1, 6712, Control_c, 0, 64, 0
1, 6736, Note_off_c, 0, 76, 64
1, 6752, Control_c, 0, 64, 127
1, 6792, Note_off_c, 0, 53, 64
1, 6796, Note_off_c, 0, 59, 64
1, 6804, Note_off_c, 0, 55, 64
1, 6808, Note_off_c, 0, 62, 64
1, 6916, Note_off_c, 0, 74, 64
1, 6944, Control_c, 0, 64, 0
1, 6956, Note_on_c, 0, 62, 53
1, 6964, Note_on_c, 0, 59, 53
1, 6964, Note_on_c, 0, 55, 47
1, 6964, Note_on_c, 0, 53, 50
1, 6972, Note_on_c, 0, 67, 101
1, 6996, Control_c, 0, 64, 127
1, 7028, Note_off_c, 0, 59, 64
1, 7028, Note_off_c, 0, 53, 64
1, 7036, Note_off_c, 0, 62, 64
1, 7036, Note_off_c, 0, 55, 64
1, 7072, Note_on_c, 0, 71, 90
1, 7100, Note_off_c, 0, 67, 64
1, 7192, Note_on_c, 0, 72, 88
1, 7196, Control_c, 0, 64, 0
1, 7200, Note_on_c, 0, 60, 51
1, 7204, Note_on_c, 0, 52, 50
1, 7204, Note_on_c, 0, 55, 53
1, 7212, Note_off_c, 0, 71, 64
1, 7212, Control_c, 0, 64, 0
1, 7232, Control_c, 0, 64, 127
1, 7268, Control_c, 0, 64, 127
1, 7288, Note_off_c, 0, 55, 64
1, 7316, Note_off_c, 0, 60, 64
1, 7320, Note_on_c, 0, 74, 76
1, 7344, Note_off_c, 0, 52, 64
1, 7348, Note_off_c, 0, 72, 64
1, 7432, Note_on_c, 0, 76, 88
1, 7444, Note_on_c, 0, 64, 53
1, 7444, Control_c, 0, 64, 0
1, 7460, Note_on_c, 0, 55, 50
1, 7468, Note_off_c, 0, 74, 64
1, 7468, Note_on_c, 0, 48, 50
1, 7496, Control_c, 0, 64, 127
1, 7544, Note_on_c, 0, 77, 88
1, 7552, Note_off_c, 0, 64, 64
1, 7560, Note_off_c, 0, 76, 64
1, 7580, Note_off_c, 0, 55, 64
1, 7604, Note_off_c, 0, 48, 64
1, 7676, Note_off_c, 0, 77, 64
1, 7676, Note_on_c, 0, 79, 91
1, 7788, Note_on_c, 0, 84, 90
1, 7804, Note_off_c, 0, 79, 64
1, 7924, Note_on_c, 0, 83, 85
1, 7932, Note_on_c, 0, 43, 77
1, 7948, Control_c, 0, 64, 0
1, 7952, Note_off_c, 0, 84, 64
1, 7980, Control_c, 0, 64, 127
1, 8048, Note_on_c, 0, 81, 76
1, 8092, Note_off_c, 0, 83, 64
1, 8108, Note_off_c, 0, 81, 64
1, 8116, Note_on_c, 0, 83, 62
1, 8148, Note_on_c, 0, 81, 75
1, 8176, Note_off_c, 0, 83, 64
1, 8180, Control_c, 0, 64, 0
1, 8188, Note_on_c, 0, 65, 47
1, 8196, Note_on_c, 0, 55, 47
1, 8204, Note_on_c, 0, 62, 40
1, 8204, Note_on_c, 0, 77, 97
1, 8220, Control_c, 0, 64, 127
1, 8244, Note_off_c, 0, 81, 64
1, 8276, Note_off_c, 0, 55, 64
1, 8280, Note_off_c, 0, 62, 64
1, 8288, Note_off_c, 0, 65, 64
1, 8316, Note_on_c, 0, 74, 74
1, 8360, Note_off_c, 0, 77, 64
1, 8376, Note_off_c, 0, 43, 64
1, 8424, Note_on_c, 0, 71, 97
1, 8424, Note_on_c, 0, 65, 47
1, 8428, Note_on_c, 0, 55, 53
1, 8436, Note_on_c, 0, 62, 47
1, 8452, Note_off_c, 0, 74, 64
1, 8484, Note_off_c, 0, 65, 64
1, 8484, Note_off_c, 0, 62, 64
1, 8500, Note_off_c, 0, 55, 64
1, 8532, Note_on_c, 0, 67, 83
1, 8568, Note_off_c, 0, 71, 64
1, 8656, Control_c, 0, 64, 0
1, 8676, Note_on_c, 0, 64, 71
1, 8684, Note_off_c, 0, 67, 64
1, 8684, Note_on_c, 0, 48, 71
1, 8684, Note_on_c, 0, 72, 71
1, 8724, Control_c, 0, 64, 127
1, 8784, Note_on_c, 0, 74, 63
1, 8820, Note_off_c, 0, 72, 64
1, 8832, Note_off_c, 0, 48, 64
1, 8848, Note_on_c, 0, 76, 78
1, 8856, Note_off_c, 0, 64, 64
1, 8872, Note_off_c, 0, 74, 64
1, 8892, Note_on_c, 0, 67, 76
1, 8924, Control_c, 0, 64, 0
1, 8932, Note_on_c, 0, 48, 1
1, 8940, Note_on_c, 0, 60, 25
1, 8940, Note_on_c, 0, 55, 38
1, 8944, Note_on_c, 0, 64, 77
1, 8944, Note_on_c, 0, 72, 88
1, 8968, Note_off_c, 0, 76, 64
1, 9016, Control_c, 0, 64, 127
1, 9032, Note_off_c, 0, 67, 64
1, 9076, Note_off_c, 0, 55, 64
1, 9080, Note_off_c, 0, 48, 64
1, 9084, Note_off_c, 0, 60, 64
1, 9092, Note_off_c, 0, 64, 64
1, 9092, Note_off_c, 0, 72, 64
1, 9188, Note_on_c, 0, 71, 71
1, 9304, Note_on_c, 0, 72, 88
1, 9344, Note_off_c, 0, 71, 64
1, 9356, Control_c, 0, 64, 0
1, 9388, Control_c, 0, 64, 127
1, 9408, Control_c, 0, 64, 0
1, 9412, Note_on_c, 0, 60, 62
1, 9412, Note_on_c, 0, 57, 66
1, 9412, Note_on_c, 0, 54, 70
1, 9420, Note_on_c, 0, 62, 53
1, 9424, Note_on_c, 0, 74, 93
1, 9452, Note_off_c, 0, 72, 64
1, 9476, Control_c, 0, 64, 127
1, 9484, Note_off_c, 0, 74, 64
1, 9492, Note_off_c, 0, 60, 64
1, 9496, Note_off_c, 0, 57, 64
1, 9500, Note_off_c, 0, 54, 64
1, 9500, Note_off_c, 0, 62, 64
1, 9548, Note_on_c, 0, 74, 93
1, 9608, Note_off_c, 0, 74, 64
1, 9644, Note_on_c, 0, 76, 81
1, 9652, Control_c, 0, 64, 0
1, 9664, Note_on_c, 0, 62, 66
1, 9672, Note_on_c, 0, 55, 62
1, 9672, Note_on_c, 0, 53, 51
1, 9684, Note_on_c, 0, 74, 88
1, 9684, Note_on_c, 0, 59, 51
1, 9708, Note_off_c, 0, 76, 64
1, 9744, Control_c, 0, 64, 127
1, 9756, Note_off_c, 0, 53, 64
1, 9764, Note_off_c, 0, 55, 64
1, 9764, Note_off_c, 0, 59, 64
1, 9780, Note_off_c, 0, 62, 64
1, 9908, Control_c, 0, 64, 0
1, 9916, Note_on_c, 0, 67, 95
1, 9920, Note_on_c, 0, 62, 62
1, 9924, Note_on_c, 0, 53, 62
1, 9928, Note_on_c, 0, 59, 51
1, 9936, Note_on_c, 0, 55, 51
1, 9948, Control_c, 0, 64, 127
1, 9956, Note_off_c, 0, 74, 64
1, 9980, Note_off_c, 0, 59, 64
1, 9988, Note_off_c, 0, 62, 64
1, 9988, Note_off_c, 0, 53, 64
1, 9988, Note_off_c, 0, 55, 64
1, 10032, Note_on_c, 0, 71, 76
1, 10068, Note_off_c, 0, 67, 64
1, 10148, Control_c, 0, 64, 0
1, 10160, Note_on_c, 0, 55, 66
1, 10164, Note_on_c, 0, 52, 63
1, 10164, Note_on_c, 0, 72, 100
1, 10168, Note_on_c, 0, 60, 58
1, 10172, Note_off_c, 0, 71, 64
1, 10220, Control_c, 0, 64, 0
1, 10224, Control_c, 0, 64, 127
1, 10252, Control_c, 0, 64, 127
1, 10292, Note_on_c, 0, 74, 76
1, 10296, Note_off_c, 0, 72, 64
1, 10296, Note_off_c, 0, 60, 64
1, 10300, Note_off_c, 0, 55, 64
1, 10340, Note_off_c, 0, 52, 64
1, 10400, Control_c, 0, 64, 0
1, 10412, Note_on_c, 0, 64, 65
1, 10412, Note_on_c, 0, 55, 57
1, 10412, Note_on_c, 0, 48, 72
1, 10412, Note_on_c, 0, 76, 95
1, 10440, Note_off_c, 0, 74, 64
1, 10460, Control_c, 0, 64, 127
1, 10528, Note_on_c, 0, 77, 93
1, 10532, Note_off_c, 0, 64, 64
1, 10548, Note_off_c, 0, 76, 64
1, 10564, Note_off_c, 0, 55, 64
1, 10576, Note_off_c, 0, 48, 64
1, 10660, Note_on_c, 0, 79, 91
1, 10692, Note_off_c, 0, 77, 64
1, 10776, Note_on_c, 0, 80, 88
1, 10792, Note_off_c, 0, 79, 64
1, 10856, Control_c, 0, 64, 0
1, 10892, Note_on_c, 0, 43, 95
1, 10908, Note_on_c, 0, 81, 96
1, 10936, Control_c, 0, 64, 127
1, 10956, Note_off_c, 0, 80, 64
1, 10972, Note_off_c, 0, 81, 64
1, 11024, Note_on_c, 0, 81, 78
1, 11084, Note_off_c, 0, 81, 64
1, 11108, Note_on_c, 0, 83, 103
1, 11132, Control_c, 0, 64, 0
1, 11140, Note_on_c, 0, 59, 65
1, 11140, Note_on_c, 0, 65, 32
1, 11140, Note_on_c, 0, 55, 50
1, 11152, Note_on_c, 0, 81, 100
1, 11180, Control_c, 0, 64, 127
1, 11200, Note_off_c, 0, 83, 64
1, 11228, Note_off_c, 0, 59, 64
1, 11228, Note_off_c, 0, 55, 64
1, 11236, Note_off_c, 0, 65, 64
1, 11332, Note_off_c, 0, 43, 64
1, 11376, Note_on_c, 0, 59, 62
1, 11380, Note_on_c, 0, 55, 70
1, 11388, Note_on_c, 0, 65, 62
1, 11392, Note_on_c, 0, 79, 102
1, 11408, Note_off_c, 0, 81, 64
1, 11456, Note_off_c, 0, 59, 64
1, 11460, Note_off_c, 0, 55, 64
1, 11460, Note_off_c, 0, 65, 64
1, 11516, Note_on_c, 0, 74, 71
1, 11556, Note_off_c, 0, 79, 64
1, 11620, Note_on_c, 0, 48, 71
1, 11628, Note_on_c, 0, 77, 101
1, 11632, Control_c, 0, 64, 0
1, 11644, Note_off_c, 0, 74, 64
1, 11680, Note_off_c, 0, 77, 64
1, 11700, Control_c, 0, 64, 127
1, 11748, Note_on_c, 0, 77, 93
1, 11800, Note_off_c, 0, 77, 64
1, 11844, Note_on_c, 0, 79, 91
1, 11856, Control_c, 0, 64, 0
1, 11868, Note_on_c, 0, 65, 62
1, 11868, Note_on_c, 0, 57, 65
1, 11880, Note_on_c, 0, 77, 85
1, 11920, Note_off_c, 0, 79, 64
1, 11924, Control_c, 0, 64, 127
1, 12108, Note_off_c, 0, 48, 64
1, 12108, Note_on_c, 0, 64, 66
1, 12108, Note_on_c, 0, 55, 62
1, 12124, Note_on_c, 0, 76, 77
1, 12132, Note_off_c, 0, 65, 64
1, 12132, Note_off_c, 0, 57, 64
1, 12144, Note_off_c, 0, 77, 64
1, 12144, Control_c, 0, 64, 0
1, 12180, Control_c, 0, 64, 127
1, 12192, Note_off_c, 0, 64, 64
1, 12192, Note_off_c, 0, 55, 64
1, 12204, Note_off_c, 0, 76, 64
1, 12292, Control_c, 0, 64, 0
1, 12324, Note_on_c, 0, 69, 63
1, 12328, Control_c, 0, 64, 127
1, 12356, Note_on_c, 0, 74, 78
1, 12368, Note_on_c, 0, 62, 46
1, 12368, Note_on_c, 0, 60, 56
1, 12372, Control_c, 0, 64, 0
1, 12376, Note_on_c, 0, 57, 66
1, 12376, Note_on_c, 0, 54, 62
1, 12400, Note_off_c, 0, 69, 64
1, 12432, Note_off_c, 0, 74, 64
1, 12440, Control_c, 0, 64, 127
1, 12460, Note_off_c, 0, 57, 64
1, 12472, Note_off_c, 0, 60, 64
1, 12480, Note_off_c, 0, 62, 64
1, 12484, Note_off_c, 0, 54, 64
1, 12488, Note_on_c, 0, 74, 88
1, 12544, Note_off_c, 0, 74, 64
1, 12588, Note_on_c, 0, 76, 88
1, 12612, Note_on_c, 0, 62, 88
1, 12612, Note_on_c, 0, 55, 71
1, 12612, Control_c, 0, 64, 0
1, 12624, Note_on_c, 0, 59, 76
1, 12624, Note_on_c, 0, 53, 66
1, 12632, Note_on_c, 0, 74, 90
1, 12672, Note_off_c, 0, 76, 64
1, 12680, Control_c, 0, 64, 127
1, 12692, Note_off_c, 0, 53, 64
1, 12700, Note_off_c, 0, 55, 64
1, 12700, Note_off_c, 0, 59, 64
1, 12708, Note_off_c, 0, 62, 64
1, 12852, Note_off_c, 0, 74, 64
1, 12852, Note_on_c, 0, 67, 85
1, 12872, Note_on_c, 0, 62, 57
1, 12872, Note_on_c, 0, 59, 65
1, 12880, Note_on_c, 0, 55, 53
1, 12880, Note_on_c, 0, 53, 56
1, 12936, Note_off_c, 0, 59, 64
1, 12940, Note_off_c, 0, 55, 64
1, 12948, Note_off_c, 0, 62, 64
1, 12948, Note_off_c, 0, 53, 64
1, 12984, Note_on_c, 0, 71, 78
1, 13000, Note_off_c, 0, 67, 64
1, 13100, Note_on_c, 0, 60, 66
1, 13100, Note_on_c, 0, 55, 66
1, 13100, Note_on_c, 0, 52, 66
1, 13104, Control_c, 0, 64, 0
1, 13116, Note_on_c, 0, 72, 88
1, 13116, Control_c, 0, 64, 0
1, 13132, Note_off_c, 0, 71, 64
1, 13152, Control_c, 0, 64, 127
1, 13176, Control_c, 0, 64, 127
1, 13240, Note_off_c, 0, 55, 64
1, 13244, Note_off_c, 0, 60, 64
1, 13244, Note_on_c, 0, 74, 78
1, 13280, Note_off_c, 0, 72, 64
1, 13316, Note_off_c, 0, 52, 64
1, 13332, Control_c, 0, 64, 0
1, 13356, Note_on_c, 0, 55, 65
1, 13356, Note_on_c, 0, 64, 70
1, 13364, Note_on_c, 0, 76, 78
1, 13380, Note_on_c, 0, 48, 70
1, 13400, Note_off_c, 0, 74, 64
1, 13404, Control_c, 0, 64, 127
1, 13500, Note_on_c, 0, 77, 83
1, 13508, Note_off_c, 0, 64, 64
1, 13516, Note_off_c, 0, 76, 64
1, 13528, Note_off_c, 0, 55, 64
1, 13552, Note_off_c, 0, 48, 64
1, 13624, Note_on_c, 0, 79, 77
1, 13656, Note_off_c, 0, 77, 64
1, 13732, Note_on_c, 0, 84, 90
1, 13756, Note_off_c, 0, 79, 64
1, 13836, Control_c, 0, 64, 0
1, 13852, Note_on_c, 0, 83, 90
1, 13868, Note_on_c, 0, 43, 70
1, 13876, Note_off_c, 0, 84, 64
1, 13904, Control_c, 0, 64, 127
1, 13968, Note_on_c, 0, 81, 88
1, 13988, Note_off_c, 0, 83, 64
1, 14036, Note_on_c, 0, 83, 63
1, 14068, Note_off_c, 0, 81, 64
1, 14072, Note_on_c, 0, 81, 83
1, 14084, Control_c, 0, 64, 0
1, 14096, Note_on_c, 0, 62, 41
1, 14100, Note_on_c, 0, 65, 58
1, 14100, Note_on_c, 0, 55, 51
1, 14104, Note_on_c, 0, 77, 100
1, 14112, Note_off_c, 0, 83, 64
1, 14120, Control_c, 0, 64, 127
1, 14160, Note_off_c, 0, 81, 64
1, 14204, Note_off_c, 0, 55, 64
1, 14220, Note_off_c, 0, 62, 64
1, 14220, Note_off_c, 0, 65, 64
1, 14220, Note_on_c, 0, 74, 79
1, 14240, Note_off_c, 0, 77, 64
1, 14300, Note_off_c, 0, 43, 64
1, 14328, Note_on_c, 0, 71, 97
1, 14332, Note_on_c, 0, 55, 70
1, 14344, Note_on_c, 0, 65, 62
1, 14344, Note_on_c, 0, 62, 63
1, 14348, Note_off_c, 0, 74, 64
1, 14436, Note_off_c, 0, 55, 64
1, 14444, Note_off_c, 0, 65, 64
1, 14444, Note_off_c, 0, 62, 64
1, 14444, Note_on_c, 0, 67, 76
1, 14460, Note_off_c, 0, 71, 64
1, 14568, Control_c, 0, 64, 0
1, 14572, Note_on_c, 0, 48, 66
1, 14580, Note_on_c, 0, 64, 78
1, 14592, Note_on_c, 0, 72, 78
1, 14616, Note_off_c, 0, 67, 64
1, 14628, Control_c, 0, 64, 127
1, 14676, Note_on_c, 0, 74, 65
1, 14716, Note_on_c, 0, 67, 76
1, 14724, Note_off_c, 0, 72, 64
1, 14748, Note_off_c, 0, 64, 64
1, 14748, Control_c, 0, 64, 0
1, 14756, Note_on_c, 0, 76, 81
1, 14768, Note_off_c, 0, 48, 64
1, 14784, Control_c, 0, 64, 127
1, 14792, Note_off_c, 0, 74, 64
1, 14808, Control_c, 0, 64, 0
1, 14820, Note_on_c, 0, 60, 63
1, 14820, Note_on_c, 0, 55, 43
1, 14824, Note_on_c, 0, 72, 78
1, 14824, Note_on_c, 0, 64, 77
1, 14828, Note_on_c, 0, 48, 82
1, 14844, Note_off_c, 0, 67, 64
1, 14844, Note_off_c, 0, 76, 64
1, 14876, Control_c, 0, 64, 127
1, 15004, Note_off_c, 0, 60, 64
1, 15004, Note_off_c, 0, 55, 64
1, 15012, Note_off_c, 0, 72, 64
1, 15012, Note_off_c, 0, 64, 64
1, 15012, Note_off_c, 0, 48, 64
1, 15068, Note_on_c, 0, 71, 87
1, 15136, Control_c, 0, 64, 0
1, 15204, Note_on_c, 0, 72, 72
1, 15220, Note_off_c, 0, 71, 64
1, 15324, Note_on_c, 0, 50, 82
1, 15324, Note_on_c, 0, 62, 82
1, 15332, Note_on_c, 0, 57, 79
1, 15332, Note_on_c, 0, 60, 79
1, 15332, Note_on_c, 0, 66, 90
1, 15332, Note_on_c, 0, 74, 86
1, 15356, Note_off_c, 0, 72, 64
1, 15364, Control_c, 0, 64, 127
1, 15388, Note_off_c, 0, 57, 64
1, 15392, Note_off_c, 0, 50, 64
1, 15392, Note_off_c, 0, 66, 64
1, 15396, Note_off_c, 0, 62, 64
1, 15404, Note_off_c, 0, 60, 64
1, 15416, Note_off_c, 0, 74, 64
1, 15484, Note_on_c, 0, 74, 90
1, 15484, Note_on_c, 0, 50, 76
1, 15492, Note_on_c, 0, 66, 90
1, 15492, Note_on_c, 0, 62, 70
1, 15492, Note_on_c, 0, 60, 79
1, 15492, Note_on_c, 0, 57, 76
1, 15528, Control_c, 0, 64, 0
1, 15556, Note_on_c, 0, 59, 79
1, 15556, Note_on_c, 0, 55, 90
1, 15564, Note_on_c, 0, 71, 103
1, 15564, Note_on_c, 0, 67, 95
1, 15568, Note_off_c, 0, 66, 64
1, 15568, Note_off_c, 0, 60, 64
1, 15572, Note_off_c, 0, 50, 64
1, 15576, Note_off_c, 0, 62, 64
1, 15580, Note_off_c, 0, 74, 64
1, 15580, Note_off_c, 0, 57, 64
1, 15620, Control_c, 0, 64, 127
1, 15668, Note_off_c, 0, 55, 64
1, 15672, Note_off_c, 0, 59, 64
1, 15680, Note_off_c, 0, 67, 64
1, 15688, Note_off_c, 0, 71, 64
1, 15736, Control_c, 0, 64, 127
1, 15744, Control_c, 0, 64, 127
1, 15792, Control_c, 0, 64, 0
1, 15816, Note_on_c, 0, 31, 96
1, 15820, Note_on_c, 0, 79, 95
1, 15820, Note_on_c, 0, 67, 85
1, 15820, Note_on_c, 0, 71, 95
1, 15820, Note_on_c, 0, 43, 87
1, 15824, Note_on_c, 0, 74, 96
1, 15848, Control_c, 0, 64, 127
1, 16020, Note_off_c, 0, 31, 64
1, 16024, Note_off_c, 0, 79, 64
1, 16024, Note_off_c, 0, 67, 64
1, 16028, Note_off_c, 0, 71, 64
1, 16028, Note_off_c, 0, 43, 64
1, 16028, Note_off_c, 0, 74, 64
1, 16052, Control_c, 0, 64, 0
1, 16068, Note_on_c, 0, 62, 81
1, 16068, Note_on_c, 0, 60, 82
1, 16068, Note_on_c, 0, 57, 87
1, 16072, Note_on_c, 0, 66, 95
1, 16072, Note_on_c, 0, 50, 85
1, 16076, Note_on_c, 0, 74, 90
1, 16108, Note_off_c, 0, 62, 64
1, 16112, Control_c, 0, 64, 127
1, 16116, Note_off_c, 0, 57, 64
1, 16128, Note_off_c, 0, 66, 64
1, 16136, Note_off_c, 0, 74, 64
1, 16144, Note_off_c, 0, 60, 64
1, 16148, Note_off_c, 0, 50, 64
1, 16212, Note_on_c, 0, 50, 64
1, 16224, Note_on_c, 0, 57, 72
1, 16228, Note_on_c, 0, 62, 82
1, 16228, Note_on_c, 0, 60, 79
1, 16236, Note_on_c, 0, 74, 87
1, 16236, Note_on_c, 0, 69, 90
1, 16236, Note_on_c, 0, 66, 90
1, 16304, Control_c, 0, 64, 0
1, 16324, Note_on_c, 0, 67, 107
1, 16328, Note_off_c, 0, 50, 64
1, 16328, Note_off_c, 0, 57, 64
1, 16328, Note_off_c, 0, 60, 64
1, 16328, Note_on_c, 0, 59, 98
1, 16328, Note_on_c, 0, 55, 87
1, 16336, Note_off_c, 0, 69, 64
1, 16336, Note_off_c, 0, 66, 64
1, 16340, Note_off_c, 0, 62, 64
1, 16340, Note_off_c, 0, 74, 64
1, 16364, Control_c, 0, 64, 127
1, 16448, Note_off_c, 0, 67, 64
1, 16452, Note_off_c, 0, 59, 64
1, 16452, Note_off_c, 0, 55, 64
1, 16484, Control_c, 0, 64, 127
1, 16516, Control_c, 0, 64, 127
1, 16556, Control_c, 0, 64, 0
1, 16568, Note_on_c, 0, 71, 96
1, 16568, Note_on_c, 0, 62, 98
1, 16572, Note_on_c, 0, 67, 98
1, 16576, Note_on_c, 0, 43, 107
1, 16576, Note_on_c, 0, 31, 97
1, 16652, Control_c, 0, 64, 127
1, 16676, Note_on_c, 0, 72, 77
1, 16684, Note_on_c, 0, 69, 76
1, 16708, Note_off_c, 0, 71, 64
1, 16708, Note_off_c, 0, 67, 64
1, 16720, Note_off_c, 0, 62, 64
1, 16780, Note_off_c, 0, 43, 64
1, 16780, Note_off_c, 0, 31, 64
1, 16804, Control_c, 0, 64, 0
1, 16828, Note_on_c, 0, 60, 81
1, 16828, Note_on_c, 0, 74, 90
1, 16832, Note_on_c, 0, 50, 90
1, 16840, Note_on_c, 0, 57, 64
1, 16840, Note_on_c, 0, 62, 82
1, 16844, Note_off_c, 0, 72, 64
1, 16848, Note_off_c, 0, 69, 64
1, 16848, Note_on_c, 0, 66, 95
1, 16864, Control_c, 0, 64, 127
1, 16892, Note_off_c, 0, 50, 64
1, 16892, Note_off_c, 0, 57, 64
1, 16900, Note_off_c, 0, 60, 64
1, 16900, Note_off_c, 0, 62, 64
1, 16900, Note_off_c, 0, 66, 64
1, 16908, Note_off_c, 0, 74, 64
1, 16996, Note_on_c, 0, 62, 70
1, 17000, Note_on_c, 0, 57, 87
1, 17004, Note_on_c, 0, 60, 79
1, 17004, Note_on_c, 0, 50, 85
1, 17008, Note_on_c, 0, 66, 90
1, 17012, Note_on_c, 0, 74, 91
1, 17048, Control_c, 0, 64, 0
1, 17092, Note_on_c, 0, 67, 95
1, 17096, Note_on_c, 0, 71, 98
1, 17096, Note_on_c, 0, 55, 97
1, 17104, Note_off_c, 0, 60, 64
1, 17104, Note_on_c, 0, 59, 97
1, 17112, Note_off_c, 0, 50, 64
1, 17112, Note_off_c, 0, 66, 64
1, 17112, Note_off_c, 0, 74, 64
1, 17116, Note_off_c, 0, 62, 64
1, 17116, Note_off_c, 0, 57, 64
1, 17124, Control_c, 0, 64, 127
1, 17208, Note_off_c, 0, 67, 64
1, 17212, Note_off_c, 0, 71, 64
1, 17212, Note_off_c, 0, 55, 64
1, 17220, Note_off_c, 0, 59, 64
1, 17280, Control_c, 0, 64, 127
1, 17316, Control_c, 0, 64, 0
1, 17328, Note_on_c, 0, 43, 100
1, 17340, Note_on_c, 0, 71, 96
1, 17340, Note_on_c, 0, 67, 95
1, 17340, Note_on_c, 0, 79, 107
1, 17340, Note_on_c, 0, 31, 107
1, 17368, Control_c, 0, 64, 127
1, 17532, Note_off_c, 0, 43, 64
1, 17544, Note_off_c, 0, 71, 64
1, 17544, Note_off_c, 0, 67, 64
1, 17548, Note_off_c, 0, 79, 64
1, 17548, Note_off_c, 0, 31, 64
1, 17564, Control_c, 0, 64, 0
1, 17580, Note_on_c, 0, 66, 95
1, 17580, Note_on_c, 0, 60, 87
1, 17592, Note_on_c, 0, 62, 90
1, 17596, Note_on_c, 0, 50, 90
1, 17596, Note_on_c, 0, 74, 90
1, 17596, Note_on_c, 0, 57, 79
1, 17636, Note_off_c, 0, 62, 64
1, 17644, Control_c, 0, 64, 127
1, 17652, Note_off_c, 0, 66, 64
1, 17656, Note_off_c, 0, 60, 64
1, 17656, Note_off_c, 0, 57, 64
1, 17660, Note_off_c, 0, 50, 64
1, 17668, Note_off_c, 0, 74, 64
1, 17740, Note_on_c, 0, 66, 90
1, 17740, Note_on_c, 0, 60, 64
1, 17740, Note_on_c, 0, 57, 73
1, 17740, Note_on_c, 0, 50, 64
1, 17740, Note_on_c, 0, 74, 79
1, 17744, Note_on_c, 0, 62, 63
1, 17804, Note_off_c, 0, 62, 64
1, 17812, Control_c, 0, 64, 0
1, 17816, Note_off_c, 0, 74, 64
1, 17840, Note_off_c, 0, 66, 64
1, 17840, Note_on_c, 0, 55, 87
1, 17840, Note_on_c, 0, 62, 82
1, 17840, Note_on_c, 0, 71, 87
1, 17844, Note_off_c, 0, 60, 64
1, 17848, Note_on_c, 0, 74, 86
1, 17852, Note_off_c, 0, 50, 64
1, 17852, Note_on_c, 0, 67, 90
1, 17852, Note_on_c, 0, 59, 97
1, 17856, Note_off_c, 0, 57, 64
1, 17884, Control_c, 0, 64, 127
1, 17992, Note_off_c, 0, 67, 64
1, 17996, Note_off_c, 0, 55, 64
1, 18008, Note_off_c, 0, 62, 64
1, 18012, Note_off_c, 0, 59, 64
1, 18016, Note_off_c, 0, 74, 64
1, 18028, Note_off_c, 0, 71, 64
1, 18112, Control_c, 0, 64, 127
1, 18156, Note_on_c, 0, 76, 71
1, 18188, Note_on_c, 0, 69, 56
1, 18188, Note_on_c, 0, 54, 53
1, 18200, Note_on_c, 0, 74, 78
1, 18200, Control_c, 0, 64, 0
1, 18212, Note_on_c, 0, 62, 53
1, 18212, Note_on_c, 0, 60, 40
1, 18236, Note_off_c, 0, 76, 64
1, 18260, Control_c, 0, 64, 127
1, 18292, Note_off_c, 0, 60, 64
1, 18296, Note_off_c, 0, 54, 64
1, 18304, Note_off_c, 0, 62, 64
1, 18328, Note_on_c, 0, 73, 97
1, 18340, Note_off_c, 0, 74, 64
1, 18444, Note_on_c, 0, 62, 62
1, 18444, Control_c, 0, 64, 0
1, 18456, Note_on_c, 0, 76, 88
1, 18456, Note_on_c, 0, 59, 53
1, 18456, Note_on_c, 0, 53, 50
1, 18468, Note_on_c, 0, 68, 75
1, 18472, Note_off_c, 0, 73, 64
1, 18484, Control_c, 0, 64, 127
1, 18504, Note_off_c, 0, 69, 64
1, 18540, Note_off_c, 0, 59, 64
1, 18548, Note_off_c, 0, 53, 64
1, 18560, Note_on_c, 0, 74, 78
1, 18568, Note_off_c, 0, 62, 64
1, 18580, Note_off_c, 0, 76, 64
1, 18684, Control_c, 0, 64, 0
1, 18708, Note_on_c, 0, 67, 93
1, 18712, Note_on_c, 0, 59, 32
1, 18724, Note_on_c, 0, 62, 32
1, 18724, Note_on_c, 0, 53, 31
1, 18740, Note_off_c, 0, 68, 64
1, 18740, Note_off_c, 0, 74, 64
1, 18756, Control_c, 0, 64, 127
1, 18828, Note_off_c, 0, 53, 64
1, 18836, Note_off_c, 0, 59, 64
1, 18848, Note_off_c, 0, 62, 64
1, 18940, Note_on_c, 0, 69, 90
1, 18948, Note_on_c, 0, 53, 46
1, 18948, Control_c, 0, 64, 0
1, 18956, Note_on_c, 0, 62, 43
1, 18956, Note_on_c, 0, 59, 43
1, 18956, Note_on_c, 0, 55, 47
1, 18968, Note_off_c, 0, 67, 64
1, 18992, Note_off_c, 0, 59, 64
1, 18996, Control_c, 0, 64, 127
1, 19004, Note_off_c, 0, 55, 64
1, 19016, Note_off_c, 0, 53, 64
1, 19024, Note_off_c, 0, 62, 64
1, 19044, Note_on_c, 0, 71, 76
1, 19092, Note_off_c, 0, 69, 64
1, 19168, Note_off_c, 0, 71, 64
1, 19172, Note_on_c, 0, 55, 53
1, 19172, Note_on_c, 0, 52, 53
1, 19176, Note_on_c, 0, 60, 40
1, 19184, Note_on_c, 0, 72, 87
1, 19204, Control_c, 0, 64, 0
1, 19252, Control_c, 0, 64, 127
1, 19308, Note_on_c, 0, 74, 88
1, 19320, Note_off_c, 0, 72, 64
1, 19364, Note_off_c, 0, 55, 64
1, 19368, Note_off_c, 0, 52, 64
1, 19368, Note_off_c, 0, 60, 64
1, 19416, Control_c, 0, 64, 0
1, 19428, Note_on_c, 0, 48, 56
1, 19428, Note_on_c, 0, 76, 97
1, 19436, Note_on_c, 0, 55, 56
1, 19440, Note_on_c, 0, 64, 43
1, 19460, Note_off_c, 0, 74, 64
1, 19468, Control_c, 0, 64, 127
1, 19528, Note_off_c, 0, 64, 64
1, 19548, Note_on_c, 0, 77, 96
1, 19572, Note_off_c, 0, 76, 64
1, 19572, Note_off_c, 0, 55, 64
1, 19596, Note_off_c, 0, 48, 64
1, 19668, Control_c, 0, 64, 127
1, 19680, Note_on_c, 0, 79, 103
1, 19696, Note_off_c, 0, 77, 64
1, 19788, Note_on_c, 0, 80, 93
1, 19832, Note_off_c, 0, 79, 64
1, 19892, Control_c, 0, 64, 0
1, 19912, Note_on_c, 0, 43, 95
1, 19920, Note_on_c, 0, 81, 96
1, 19944, Note_off_c, 0, 80, 64
1, 19948, Control_c, 0, 64, 127
1, 19976, Note_off_c, 0, 81, 64
1, 20032, Note_on_c, 0, 81, 91
1, 20096, Note_off_c, 0, 81, 64
1, 20140, Control_c, 0, 64, 0
1, 20152, Note_on_c, 0, 83, 101
1, 20164, Note_on_c, 0, 55, 47
1, 20168, Note_on_c, 0, 59, 50
1, 20180, Note_on_c, 0, 65, 32
1, 20180, Note_on_c, 0, 81, 96
1, 20200, Control_c, 0, 64, 127
1, 20236, Note_off_c, 0, 83, 64
1, 20252, Note_off_c, 0, 55, 64
1, 20252, Note_off_c, 0, 59, 64
1, 20300, Note_off_c, 0, 65, 64
1, 20356, Note_off_c, 0, 43, 64
1, 20388, Note_on_c, 0, 79, 95
1, 20408, Note_on_c, 0, 59, 40
1, 20412, Note_on_c, 0, 55, 46
1, 20416, Note_on_c, 0, 65, 31
1, 20432, Note_off_c, 0, 81, 64
1, 20460, Note_off_c, 0, 59, 64
1, 20484, Note_off_c, 0, 55, 64
1, 20484, Note_off_c, 0, 65, 64
1, 20516, Note_on_c, 0, 74, 70
1, 20556, Note_off_c, 0, 79, 64
1, 20632, Note_on_c, 0, 77, 101
1, 20648, Note_off_c, 0, 74, 64
1, 20648, Control_c, 0, 64, 0
1, 20652, Note_on_c, 0, 48, 57
1, 20688, Note_off_c, 0, 77, 64
1, 20704, Control_c, 0, 64, 127
1, 20756, Note_on_c, 0, 77, 93
1, 20820, Note_off_c, 0, 77, 64
1, 20856, Note_on_c, 0, 79, 93
1, 20880, Note_on_c, 0, 57, 51
1, 20880, Note_on_c, 0, 77, 90
1, 20880, Note_on_c, 0, 65, 35
1, 20884, Control_c, 0, 64, 0
1, 20936, Note_off_c, 0, 79, 64
1, 20944, Control_c, 0, 64, 127
1, 21128, Note_off_c, 0, 77, 64
1, 21132, Note_on_c, 0, 55, 47
1, 21132, Note_on_c, 0, 76, 85
1, 21136, Note_off_c, 0, 48, 64
1, 21136, Note_on_c, 0, 64, 26
1, 21144, Note_off_c, 0, 57, 64
1, 21144, Note_off_c, 0, 65, 64
1, 21188, Note_off_c, 0, 64, 64
1, 21192, Note_off_c, 0, 76, 64
1, 21204, Note_off_c, 0, 55, 64
1, 21280, Control_c, 0, 64, 127
1, 21340, Note_on_c, 0, 69, 52
1, 21364, Note_on_c, 0, 74, 88
1, 21368, Note_on_c, 0, 62, 25
1, 21368, Note_on_c, 0, 60, 43
1, 21368, Note_on_c, 0, 57, 53
1, 21368, Note_on_c, 0, 54, 46
1, 21396, Note_off_c, 0, 69, 64
1, 21396, Control_c, 0, 64, 0
1, 21440, Control_c, 0, 64, 127
1, 21460, Note_off_c, 0, 74, 64
1, 21476, Note_off_c, 0, 62, 64
1, 21476, Note_off_c, 0, 60, 64
1, 21476, Note_off_c, 0, 57, 64
1, 21476, Note_off_c, 0, 54, 64
1, 21500, Tempo, 500000
1, 21500, Note_on_c, 0, 74, 93
1, 21580, Note_off_c, 0, 74, 64
1, 21580, Note_on_c, 0, 76, 78
1, 21600, Control_c, 0, 64, 0
1, 21608, Note_on_c, 0, 62, 62
1, 21620, Note_on_c, 0, 74, 91
1, 21620, Note_on_c, 0, 55, 52
1, 21628, Note_on_c, 0, 59, 53
1, 21636, Note_on_c, 0, 53, 50
1, 21660, Note_off_c, 0, 76, 64
1, 21672, Control_c, 0, 64, 127
1, 21704, Note_off_c, 0, 55, 64
1, 21704, Note_off_c, 0, 53, 64
1, 21708, Note_off_c, 0, 59, 64
1, 21712, Note_off_c, 0, 62, 64
1, 21856, Note_on_c, 0, 67, 96
1, 21860, Note_on_c, 0, 53, 47
1, 21872, Note_on_c, 0, 62, 46
1, 21872, Note_on_c, 0, 59, 47
1, 21872, Note_on_c, 0, 55, 47
1, 21876, Note_off_c, 0, 74, 64
1, 21876, Control_c, 0, 64, 0
1, 21904, Control_c, 0, 64, 127
1, 21920, Note_off_c, 0, 59, 64
1, 21928, Note_off_c, 0, 62, 64
1, 21932, Note_off_c, 0, 53, 64
1, 21932, Note_off_c, 0, 55, 64
1, 21968, Note_on_c, 0, 71, 72
1, 21984, Note_off_c, 0, 67, 64
1, 22092, Note_on_c, 0, 72, 83
1, 22096, Note_on_c, 0, 60, 47
1, 22100, Note_on_c, 0, 55, 53
1, 22100, Note_on_c, 0, 52, 51
1, 22104, Note_off_c, 0, 71, 64
1, 22112, Control_c, 0, 64, 0
1, 22168, Control_c, 0, 64, 127
1, 22208, Note_off_c, 0, 60, 64
1, 22208, Note_off_c, 0, 55, 64
1, 22216, Note_on_c, 0, 74, 66
1, 22248, Note_off_c, 0, 72, 64
1, 22280, Note_off_c, 0, 52, 64
1, 22320, Control_c, 0, 64, 0
1, 22336, Note_on_c, 0, 76, 75
1, 22344, Note_on_c, 0, 48, 62
1, 22360, Note_on_c, 0, 55, 40
1, 22360, Note_on_c, 0, 64, 53
1, 22376, Note_off_c, 0, 74, 64
1, 22392, Control_c, 0, 64, 127
1, 22464, Note_on_c, 0, 77, 88
1, 22468, Note_off_c, 0, 55, 64
1, 22472, Note_off_c, 0, 64, 64
1, 22484, Note_off_c, 0, 76, 64
1, 22484, Note_off_c, 0, 48, 64
1, 22592, Note_on_c, 0, 79, 88
1, 22612, Note_off_c, 0, 77, 64
1, 22652, Control_c, 0, 64, 127
1, 22704, Note_on_c, 0, 84, 88
1, 22712, Note_off_c, 0, 79, 64
1, 22816, Note_on_c, 0, 83, 91
1, 22828, Control_c, 0, 64, 0
1, 22836, Note_on_c, 0, 43, 70
1, 22840, Note_off_c, 0, 84, 64
1, 22868, Control_c, 0, 64, 127
1, 22916, Note_off_c, 0, 83, 64
1, 22956, Note_on_c, 0, 81, 75
1, 23008, Note_on_c, 0, 83, 57
1, 23040, Note_off_c, 0, 81, 64
1, 23048, Note_on_c, 0, 81, 81
1, 23064, Note_on_c, 0, 65, 46
1, 23076, Note_off_c, 0, 83, 64
1, 23080, Note_on_c, 0, 59, 35
1, 23080, Note_on_c, 0, 55, 35
1, 23092, Note_on_c, 0, 77, 100
1, 23096, Control_c, 0, 64, 0
1, 23124, Control_c, 0, 64, 127
1, 23128, Note_off_c, 0, 81, 64
1, 23136, Note_off_c, 0, 65, 64
1, 23136, Note_off_c, 0, 59, 64
1, 23136, Note_off_c, 0, 55, 64
1, 23192, Note_on_c, 0, 74, 78
1, 23200, Note_off_c, 0, 77, 64
1, 23272, Note_off_c, 0, 43, 64
1, 23296, Note_on_c, 0, 71, 93
1, 23304, Note_on_c, 0, 55, 53
1, 23304, Note_on_c, 0, 65, 40
1, 23304, Note_on_c, 0, 59, 50
1, 23324, Note_off_c, 0, 74, 64
1, 23360, Note_off_c, 0, 65, 64
1, 23360, Note_off_c, 0, 59, 64
1, 23392, Note_off_c, 0, 55, 64
1, 23448, Note_on_c, 0, 67, 76
1, 23480, Note_off_c, 0, 71, 64
1, 23552, Control_c, 0, 64, 0
1, 23564, Note_on_c, 0, 48, 71
1, 23564, Note_on_c, 0, 72, 78
1, 23564, Note_on_c, 0, 64, 62
1, 23604, Note_off_c, 0, 67, 64
1, 23632, Control_c, 0, 64, 127
1, 23640, Note_on_c, 0, 74, 57
1, 23688, Note_off_c, 0, 72, 64
1, 23688, Note_off_c, 0, 64, 64
1, 23688, Note_on_c, 0, 76, 78
1, 23724, Note_off_c, 0, 74, 64
1, 23732, Note_on_c, 0, 67, 88
1, 23740, Note_off_c, 0, 48, 64
1, 23784, Note_on_c, 0, 55, 22
1, 23788, Note_off_c, 0, 76, 64
1, 23788, Note_on_c, 0, 48, 32
1, 23788, Note_on_c, 0, 60, 25
1, 23788, Note_on_c, 0, 72, 85
1, 23796, Note_on_c, 0, 64, 71
1, 23816, Control_c, 0, 64, 0
1, 23848, Note_off_c, 0, 67, 64
1, 23868, Control_c, 0, 64, 127
1, 23988, Note_off_c, 0, 55, 64
1, 23992, Note_off_c, 0, 48, 64
1, 23992, Note_off_c, 0, 60, 64
1, 23992, Note_off_c, 0, 72, 64
1, 24000, Note_off_c, 0, 64, 64
1, 24044, Note_on_c, 0, 71, 76
1, 24164, Note_on_c, 0, 72, 82
1, 24200, Note_off_c, 0, 71, 64
1, 24280, Control_c, 0, 64, 0
1, 24308, Note_on_c, 0, 57, 72
1, 24308, Note_on_c, 0, 62, 70
1, 24312, Note_on_c, 0, 50, 79
1, 24312, Note_on_c, 0, 60, 77
1, 24312, Note_on_c, 0, 66, 90
1, 24312, Note_on_c, 0, 74, 90
1, 24352, Note_off_c, 0, 72, 64
1, 24352, Control_c, 0, 64, 127
1, 24384, Note_off_c, 0, 66, 64
1, 24396, Note_off_c, 0, 60, 64
1, 24396, Note_off_c, 0, 74, 64
1, 24404, Note_off_c, 0, 57, 64
1, 24404, Note_off_c, 0, 62, 64
1, 24404, Note_off_c, 0, 50, 64
1, 24460, Note_on_c, 0, 66, 82
1, 24460, Note_on_c, 0, 62, 70
1, 24460, Note_on_c, 0, 50, 52
1, 24460, Note_on_c, 0, 74, 81
1, 24460, Note_on_c, 0, 57, 79
1, 24468, Note_on_c, 0, 60, 79
1, 24520, Control_c, 0, 64, 0
1, 24536, Note_off_c, 0, 57, 64
1, 24540, Note_off_c, 0, 74, 64
1, 24540, Note_on_c, 0, 55, 90
1, 24540, Note_on_c, 0, 71, 100
1, 24544, Note_on_c, 0, 59, 97
1, 24544, Note_on_c, 0, 67, 95
1, 24548, Note_off_c, 0, 50, 64
1, 24552, Note_off_c, 0, 62, 64
1, 24556, Note_off_c, 0, 66, 64
1, 24576, Note_off_c, 0, 60, 64
1, 24616, Control_c, 0, 64, 127
1, 24656, Note_off_c, 0, 55, 64
1, 24656, Note_off_c, 0, 71, 64
1, 24660, Note_off_c, 0, 59, 64
1, 24660, Note_off_c, 0, 67, 64
1, 24680, Control_c, 0, 64, 127
1, 24776, Control_c, 0, 64, 0
1, 24792, Note_on_c, 0, 74, 93
1, 24796, Note_on_c, 0, 67, 93
1, 24800, Note_on_c, 0, 43, 86
1, 24800, Note_on_c, 0, 71, 104
1, 24800, Note_on_c, 0, 31, 75
1, 24800, Note_on_c, 0, 79, 99
1, 24860, Control_c, 0, 64, 127
1, 25000, Note_off_c, 0, 74, 64
1, 25000, Note_off_c, 0, 67, 64
1, 25004, Note_off_c, 0, 43, 64
1, 25004, Note_off_c, 0, 71, 64
1, 25004, Note_off_c, 0, 31, 64
1, 25004, Note_off_c, 0, 79, 64
1, 25012, Control_c, 0, 64, 0
1, 25044, Note_on_c, 0, 69, 80
1, 25048, Note_on_c, 0, 66, 80
1, 25048, Note_on_c, 0, 62, 76
1, 25056, Note_on_c, 0, 74, 76
1, 25056, Note_on_c, 0, 60, 76
1, 25056, Note_on_c, 0, 57, 73
1, 25056, Note_on_c, 0, 50, 77
1, 25092, Control_c, 0, 64, 127
1, 25100, Note_off_c, 0, 62, 64
1, 25104, Note_off_c, 0, 60, 64
1, 25108, Note_off_c, 0, 69, 64
1, 25112, Note_off_c, 0, 57, 64
1, 25112, Note_off_c, 0, 50, 64
1, 25116, Note_off_c, 0, 66, 64
1, 25124, Note_off_c, 0, 74, 64
1, 25204, Note_on_c, 0, 50, 65
1, 25208, Note_on_c, 0, 57, 64
1, 25208, Note_on_c, 0, 60, 54
1, 25208, Note_on_c, 0, 62, 77
1, 25208, Note_on_c, 0, 66, 76
1, 25208, Note_on_c, 0, 69, 73
1, 25208, Note_on_c, 0, 74, 76
1, 25272, Control_c, 0, 64, 0
1, 25296, Note_on_c, 0, 67, 103
1, 25300, Note_off_c, 0, 50, 64
1, 25300, Note_on_c, 0, 59, 95
1, 25304, Note_on_c, 0, 55, 82
1, 25308, Note_off_c, 0, 57, 64
1, 25308, Note_off_c, 0, 60, 64
1, 25308, Note_off_c, 0, 62, 64
1, 25308, Note_off_c, 0, 66, 64
1, 25308, Note_off_c, 0, 69, 64
1, 25308, Note_off_c, 0, 74, 64
1, 25344, Control_c, 0, 64, 127
1, 25412, Note_off_c, 0, 67, 64
1, 25416, Note_off_c, 0, 59, 64
1, 25420, Note_off_c, 0, 55, 64
1, 25448, Control_c, 0, 64, 127
1, 25468, Control_c, 0, 64, 127
1, 25548, Control_c, 0, 64, 0
1, 25560, Note_on_c, 0, 62, 102
1, 25560, Note_on_c, 0, 43, 90
1, 25560, Note_on_c, 0, 31, 90
1, 25568, Note_on_c, 0, 71, 106
1, 25568, Note_on_c, 0, 55, 87
1, 25568, Note_on_c, 0, 67, 102
1, 25624, Control_c, 0, 64, 127
1, 25648, Note_off_c, 0, 67, 64
1, 25668, Note_on_c, 0, 72, 91
1, 25684, Note_off_c, 0, 55, 64
1, 25696, Note_off_c, 0, 62, 64
1, 25708, Note_off_c, 0, 43, 64
1, 25708, Note_off_c, 0, 31, 64
1, 25724, Note_off_c, 0, 71, 64
1, 25788, Control_c, 0, 64, 0
1, 25804, Note_on_c, 0, 60, 82
1, 25804, Note_on_c, 0, 74, 90
1, 25804, Note_on_c, 0, 50, 91
1, 25804, Note_on_c, 0, 62, 90
1, 25804, Note_on_c, 0, 66, 97
1, 25812, Note_on_c, 0, 57, 70
1, 25820, Note_off_c, 0, 72, 64
1, 25856, Control_c, 0, 64, 127
1, 25888, Note_off_c, 0, 60, 64
1, 25888, Note_off_c, 0, 74, 64
1, 25888, Note_off_c, 0, 50, 64
1, 25888, Note_off_c, 0, 62, 64
1, 25888, Note_off_c, 0, 66, 64
1, 25896, Note_off_c, 0, 57, 64
1, 25964, Note_on_c, 0, 62, 79
1, 25964, Note_on_c, 0, 66, 95
1, 25968, Note_on_c, 0, 60, 77
1, 25972, Note_on_c, 0, 74, 95
1, 25972, Note_on_c, 0, 57, 79
1, 25972, Note_on_c, 0, 50, 81
1, 26024, Control_c, 0, 64, 0
1, 26068, Note_on_c, 0, 55, 95
1, 26068, Note_on_c, 0, 59, 97
1, 26072, Note_off_c, 0, 62, 64
1, 26072, Note_off_c, 0, 66, 64
1, 26072, Note_on_c, 0, 71, 98
1, 26076, Note_off_c, 0, 60, 64
1, 26080, Tempo, 500000
1, 26080, Note_off_c, 0, 74, 64
1, 26080, Note_off_c, 0, 57, 64
1, 26080, Note_off_c, 0, 50, 64
1, 26080, Note_on_c, 0, 67, 95
1, 26104, Control_c, 0, 64, 127
1, 26176, Control_c, 0, 64, 127
1, 26180, Note_off_c, 0, 55, 64
1, 26180, Note_off_c, 0, 59, 64
1, 26184, Note_off_c, 0, 71, 64
1, 26188, Note_off_c, 0, 67, 64
1, 26292, Control_c, 0, 64, 0
1, 26308, Note_on_c, 0, 71, 116
1, 26308, Note_on_c, 0, 67, 105
1, 26308, Note_on_c, 0, 31, 110
1, 26312, Note_on_c, 0, 79, 117
1, 26316, Note_on_c, 0, 43, 93
1, 26376, Control_c, 0, 64, 127
1, 26512, Note_off_c, 0, 71, 64
1, 26516, Note_off_c, 0, 67, 64
1, 26516, Note_off_c, 0, 31, 64
1, 26516, Note_off_c, 0, 79, 64
1, 26524, Note_off_c, 0, 43, 64
1, 26560, Control_c, 0, 64, 0
1, 26576, Note_on_c, 0, 74, 95
1, 26576, Note_on_c, 0, 66, 95
1, 26576, Note_on_c, 0, 50, 91
1, 26576, Note_on_c, 0, 57, 87
1, 26580, Note_on_c, 0, 62, 82
1, 26580, Note_on_c, 0, 60, 90
1, 26604, Control_c, 0, 64, 127
1, 26656, Note_off_c, 0, 74, 64
1, 26656, Note_off_c, 0, 66, 64
1, 26656, Note_off_c, 0, 50, 64
1, 26660, Note_off_c, 0, 57, 64
1, 26664, Note_off_c, 0, 62, 64
1, 26664, Note_off_c, 0, 60, 64
1, 26728, Note_on_c, 0, 57, 72
1, 26728, Note_on_c, 0, 50, 73
1, 26732, Note_on_c, 0, 74, 91
1, 26736, Note_on_c, 0, 62, 81
1, 26740, Note_on_c, 0, 66, 90
1, 26740, Note_on_c, 0, 60, 56
1, 26800, Control_c, 0, 64, 0
1, 26808, Note_off_c, 0, 62, 64
1, 26816, Note_off_c, 0, 74, 64
1, 26824, Note_on_c, 0, 74, 90
1, 26824, Note_on_c, 0, 59, 98
1, 26828, Note_off_c, 0, 57, 64
1, 26828, Note_off_c, 0, 50, 64
1, 26828, Note_on_c, 0, 71, 103
1, 26828, Note_on_c, 0, 67, 97
1, 26828, Note_on_c, 0, 55, 86
1, 26832, Note_on_c, 0, 62, 87
1, 26840, Note_off_c, 0, 66, 64
1, 26840, Note_off_c, 0, 60, 64
1, 26876, Control_c, 0, 64, 127
1, 27000, Control_c, 0, 64, 127
1, 27028, Note_off_c, 0, 74, 64
1, 27028, Note_off_c, 0, 59, 64
1, 27032, Note_off_c, 0, 71, 64
1, 27032, Note_off_c, 0, 67, 64
1, 27032, Note_off_c, 0, 55, 64
1, 27036, Note_off_c, 0, 62, 64
1, 27104, Note_on_c, 0, 76, 76
1, 27140, Note_on_c, 0, 69, 76
1, 27144, Control_c, 0, 64, 0
1, 27156, Note_on_c, 0, 74, 72
1, 27156, Note_on_c, 0, 62, 32
1, 27156, Note_on_c, 0, 60, 35
1, 27156, Note_on_c, 0, 54, 47
1, 27180, Note_off_c, 0, 76, 64
1, 27208, Control_c, 0, 64, 127
1, 27260, Note_off_c, 0, 54, 64
1, 27272, Note_off_c, 0, 60, 64
1, 27284, Note_on_c, 0, 73, 82
1, 27288, Note_off_c, 0, 62, 64
1, 27304, Note_off_c, 0, 74, 64
1, 27392, Note_on_c, 0, 62, 53
1, 27392, Note_on_c, 0, 59, 43
1, 27392, Control_c, 0, 64, 0
1, 27396, Note_on_c, 0, 55, 43
1, 27404, Note_on_c, 0, 53, 47
1, 27404, Note_on_c, 0, 68, 66
1, 27412, Note_on_c, 0, 76, 101
1, 27428, Note_off_c, 0, 69, 64
1, 27440, Note_off_c, 0, 73, 64
1, 27444, Note_off_c, 0, 59, 64
1, 27444, Control_c, 0, 64, 127
1, 27468, Note_off_c, 0, 53, 64
1, 27488, Note_off_c, 0, 55, 64
1, 27496, Note_off_c, 0, 62, 64
1, 27516, Note_on_c, 0, 74, 75
1, 27540, Note_off_c, 0, 76, 64
1, 27644, Control_c, 0, 64, 0
1, 27656, Note_on_c, 0, 55, 43
1, 27656, Note_on_c, 0, 67, 92
1, 27656, Note_on_c, 0, 62, 51
1, 27656, Note_on_c, 0, 59, 46
1, 27668, Note_on_c, 0, 53, 46
1, 27684, Note_off_c, 0, 68, 64
1, 27692, Note_off_c, 0, 74, 64
1, 27712, Control_c, 0, 64, 127
1, 27732, Note_off_c, 0, 53, 64
1, 27744, Note_off_c, 0, 55, 64
1, 27744, Note_off_c, 0, 59, 64
1, 27780, Note_off_c, 0, 62, 64
1, 27908, Note_on_c, 0, 69, 91
1, 27908, Control_c, 0, 64, 0
1, 27916, Note_on_c, 0, 62, 50
1, 27924, Note_on_c, 0, 53, 47
1, 27924, Note_on_c, 0, 59, 40
1, 27928, Note_on_c, 0, 55, 41
1, 27948, Control_c, 0, 64, 127
1, 27972, Note_off_c, 0, 67, 64
1, 28028, Note_off_c, 0, 55, 64
1, 28032, Note_on_c, 0, 71, 87
1, 28040, Note_off_c, 0, 59, 64
1, 28044, Note_off_c, 0, 53, 64
1, 28048, Note_off_c, 0, 62, 64
1, 28060, Note_off_c, 0, 69, 64
1, 28152, Note_on_c, 0, 60, 51
1, 28152, Note_on_c, 0, 52, 51
1, 28160, Note_on_c, 0, 72, 95
1, 28172, Control_c, 0, 64, 0
1, 28208, Note_off_c, 0, 71, 64
1, 28224, Control_c, 0, 64, 127
1, 28268, Note_off_c, 0, 60, 64
1, 28292, Note_on_c, 0, 74, 81
1, 28304, Note_off_c, 0, 52, 64
1, 28308, Note_off_c, 0, 72, 64
1, 28396, Note_on_c, 0, 76, 102
1, 28404, Note_on_c, 0, 64, 41
1, 28408, Note_on_c, 0, 48, 53
1, 28412, Control_c, 0, 64, 0
1, 28420, Note_on_c, 0, 55, 47
1, 28444, Note_off_c, 0, 74, 64
1, 28488, Control_c, 0, 64, 127
1, 28528, Note_off_c, 0, 64, 64
1, 28528, Note_on_c, 0, 77, 89
1, 28540, Note_off_c, 0, 76, 64
1, 28564, Note_off_c, 0, 55, 64
1, 28592, Note_off_c, 0, 48, 64
1, 28660, Note_on_c, 0, 79, 91
1, 28692, Note_off_c, 0, 77, 64
1, 28772, Note_on_c, 0, 80, 88
1, 28796, Note_off_c, 0, 79, 64
1, 28876, Control_c, 0, 64, 0
1, 28884, Note_on_c, 0, 43, 95
1, 28892, Note_on_c, 0, 81, 96
1, 28916, Control_c, 0, 64, 127
1, 28932, Note_off_c, 0, 80, 64
1, 28944, Note_off_c, 0, 81, 64
1, 28996, Note_on_c, 0, 81, 93
1, 29068, Note_off_c, 0, 81, 64
1, 29116, Note_on_c, 0, 83, 90
1, 29132, Control_c, 0, 64, 0
1, 29144, Note_on_c, 0, 65, 71
1, 29152, Note_on_c, 0, 55, 71
1, 29156, Note_on_c, 0, 81, 104
1, 29156, Note_on_c, 0, 59, 60
1, 29184, Control_c, 0, 64, 127
1, 29208, Note_off_c, 0, 83, 64
1, 29216, Note_off_c, 0, 59, 64
1, 29236, Note_off_c, 0, 55, 64
1, 29240, Note_off_c, 0, 65, 64
1, 29324, Note_off_c, 0, 43, 64
1, 29352, Note_on_c, 0, 79, 96
1, 29364, Note_on_c, 0, 55, 53
1, 29372, Note_on_c, 0, 65, 43
1, 29372, Note_on_c, 0, 59, 40
1, 29380, Note_off_c, 0, 81, 64
1, 29424, Note_off_c, 0, 59, 64
1, 29436, Note_off_c, 0, 55, 64
1, 29444, Note_off_c, 0, 65, 64
1, 29484, Note_on_c, 0, 74, 75
1, 29508, Note_off_c, 0, 79, 64
1, 29608, Note_on_c, 0, 77, 106
1, 29612, Note_on_c, 0, 48, 70
1, 29624, Note_off_c, 0, 74, 64
1, 29624, Control_c, 0, 64, 0
1, 29656, Control_c, 0, 64, 127
1, 29668, Note_off_c, 0, 77, 64
1, 29724, Note_on_c, 0, 77, 93
1, 29788, Note_off_c, 0, 77, 64
1, 29816, Note_on_c, 0, 79, 91
1, 29840, Note_on_c, 0, 57, 71
1, 29844, Note_on_c, 0, 65, 63
1, 29860, Note_on_c, 0, 77, 103
1, 29864, Control_c, 0, 64, 0
1, 29908, Note_off_c, 0, 79, 64
1, 29940, Control_c, 0, 64, 127
1, 30076, Control_c, 0, 64, 0
1, 30092, Note_on_c, 0, 64, 62
1, 30092, Note_on_c, 0, 55, 47
1, 30100, Note_off_c, 0, 48, 64
1, 30100, Note_off_c, 0, 57, 64
1, 30100, Note_on_c, 0, 76, 82
1, 30108, Note_off_c, 0, 65, 64
1, 30124, Note_off_c, 0, 77, 64
1, 30140, Control_c, 0, 64, 127
1, 30164, Note_off_c, 0, 55, 64
1, 30164, Note_off_c, 0, 76, 64
1, 30176, Note_off_c, 0, 64, 64
1, 30308, Note_on_c, 0, 69, 57
1, 30340, Control_c, 0, 64, 0
1, 30348, Note_on_c, 0, 74, 81
1, 30348, Note_on_c, 0, 54, 58
1, 30356, Note_on_c, 0, 62, 26
1, 30356, Note_on_c, 0, 60, 47
1, 30384, Note_off_c, 0, 69, 64
1, 30396, Control_c, 0, 64, 127
1, 30436, Note_off_c, 0, 74, 64
1, 30452, Note_off_c, 0, 54, 64
1, 30460, Note_off_c, 0, 62, 64
1, 30460, Note_off_c, 0, 60, 64
1, 30476, Note_on_c, 0, 74, 90
1, 30572, Note_off_c, 0, 74, 64
1, 30572, Control_c, 0, 64, 0
1, 30584, Note_on_c, 0, 76, 88
1, 30596, Note_on_c, 0, 53, 47
1, 30596, Note_on_c, 0, 55, 50
1, 30604, Note_on_c, 0, 59, 53
1, 30604, Note_on_c, 0, 62, 71
1, 30612, Note_on_c, 0, 74, 96
1, 30652, Control_c, 0, 64, 127
1, 30672, Note_off_c, 0, 76, 64
1, 30692, Note_off_c, 0, 59, 64
1, 30700, Note_off_c, 0, 55, 64
1, 30708, Note_off_c, 0, 62, 64
1, 30712, Note_off_c, 0, 53, 64
1, 30840, Note_on_c, 0, 62, 53
1, 30844, Note_on_c, 0, 67, 101
1, 30856, Note_on_c, 0, 59, 40
1, 30860, Note_off_c, 0, 74, 64
1, 30860, Note_on_c, 0, 55, 47
1, 30860, Note_on_c, 0, 53, 47
1, 30860, Control_c, 0, 64, 0
1, 30884, Control_c, 0, 64, 127
1, 30920, Note_off_c, 0, 59, 64
1, 30932, Note_off_c, 0, 53, 64
1, 30936, Note_off_c, 0, 62, 64
1, 30936, Note_off_c, 0, 55, 64
1, 30960, Note_on_c, 0, 71, 78
1, 30984, Note_off_c, 0, 67, 64
1, 31076, Note_on_c, 0, 55, 47
1, 31080, Note_on_c, 0, 60, 47
1, 31084, Note_on_c, 0, 52, 47
1, 31088, Control_c, 0, 64, 0
1, 31096, Note_on_c, 0, 72, 102
1, 31132, Note_off_c, 0, 71, 64
1, 31164, Control_c, 0, 64, 127
1, 31204, Note_off_c, 0, 55, 64
1, 31204, Note_off_c, 0, 60, 64
1, 31228, Note_on_c, 0, 74, 75
1, 31264, Note_off_c, 0, 52, 64
1, 31272, Note_off_c, 0, 72, 64
1, 31324, Control_c, 0, 64, 0
1, 31332, Note_on_c, 0, 48, 47
1, 31336, Note_on_c, 0, 64, 53
1, 31340, Note_on_c, 0, 76, 88
1, 31348, Note_on_c, 0, 55, 51
1, 31360, Note_off_c, 0, 74, 64
1, 31396, Control_c, 0, 64, 127
1, 31464, Note_on_c, 0, 77, 88
1, 31480, Note_off_c, 0, 76, 64
1, 31492, Note_off_c, 0, 64, 64
1, 31492, Note_off_c, 0, 55, 64
1, 31504, Note_off_c, 0, 48, 64
1, 31580, Note_on_c, 0, 79, 88
1, 31612, Note_off_c, 0, 77, 64
1, 31676, Control_c, 0, 64, 0
1, 31700, Note_on_c, 0, 84, 88
1, 31716, Note_off_c, 0, 79, 64
1, 31824, Note_on_c, 0, 83, 88
1, 31824, Control_c, 0, 64, 0
1, 31840, Note_on_c, 0, 43, 72
1, 31844, Note_off_c, 0, 84, 64
1, 31868, Control_c, 0, 64, 127
1, 31940, Note_on_c, 0, 81, 68
1, 31956, Note_off_c, 0, 83, 64
1, 32000, Note_on_c, 0, 83, 78
1, 32028, Note_off_c, 0, 81, 64
1, 32044, Note_on_c, 0, 81, 76
1, 32064, Control_c, 0, 64, 0
1, 32080, Note_off_c, 0, 83, 64
1, 32084, Note_on_c, 0, 62, 40
1, 32088, Note_on_c, 0, 65, 47
1, 32096, Note_on_c, 0, 55, 43
1, 32100, Note_on_c, 0, 77, 104
1, 32112, Control_c, 0, 64, 127
1, 32148, Note_off_c, 0, 81, 64
1, 32192, Note_off_c, 0, 62, 64
1, 32192, Note_on_c, 0, 74, 63
1, 32196, Note_off_c, 0, 65, 64
1, 32204, Note_off_c, 0, 55, 64
1, 32224, Note_off_c, 0, 77, 64
1, 32276, Note_off_c, 0, 43, 64
1, 32300, Note_on_c, 0, 71, 97
1, 32308, Note_on_c, 0, 62, 43
1, 32308, Note_on_c, 0, 65, 47
1, 32308, Note_on_c, 0, 55, 53
1, 32324, Note_off_c, 0, 74, 64
1, 32412, Note_off_c, 0, 62, 64
1, 32416, Note_off_c, 0, 65, 64
1, 32416, Note_off_c, 0, 55, 64
1, 32416, Note_on_c, 0, 67, 71
1, 32440, Note_off_c, 0, 71, 64
1, 32544, Control_c, 0, 64, 0
1, 32548, Note_on_c, 0, 64, 71
1, 32560, Note_on_c, 0, 72, 78
1, 32564, Note_on_c, 0, 48, 70
1, 32580, Note_off_c, 0, 67, 64
1, 32624, Control_c, 0, 64, 127
1, 32656, Note_on_c, 0, 74, 62
1, 32696, Note_off_c, 0, 72, 64
1, 32700, Note_off_c, 0, 48, 64
1, 32716, Note_on_c, 0, 76, 88
1, 32740, Note_off_c, 0, 74, 64
1, 32756, Note_on_c, 0, 67, 71
1, 32792, Control_c, 0, 64, 0
1, 32796, Note_off_c, 0, 64, 64
1, 32812, Note_on_c, 0, 55, 26
1, 32820, Note_on_c, 0, 72, 83
1, 32820, Note_on_c, 0, 60, 25
1, 32820, Note_on_c, 0, 48, 82
1, 32824, Note_on_c, 0, 64, 70
1, 32840, Note_off_c, 0, 76, 64
1, 32860, Control_c, 0, 64, 127
1, 32880, Note_off_c, 0, 67, 64
1, 33076, Note_off_c, 0, 55, 64
1, 33084, Note_off_c, 0, 72, 64
1, 33084, Note_off_c, 0, 60, 64
1, 33084, Note_off_c, 0, 48, 64
1, 33088, Note_off_c, 0, 64, 64
1, 33140, Note_on_c, 0, 72, 64
1, 33396, Control_c, 0, 64, 0
1, 33420, Note_on_c, 0, 48, 68
1, 33428, Note_on_c, 0, 84, 92
1, 33492, Control_c, 0, 64, 127
1, 33512, Note_off_c, 0, 72, 64
1, 33664, Note_off_c, 0, 84, 64
1, 33764, Note_on_c, 0, 70, 81
1, 33768, Note_on_c, 0, 79, 88
1, 33780, Note_on_c, 0, 55, 36
1, 33780, Note_on_c, 0, 60, 49
1, 33788, Note_on_c, 0, 64, 33
1, 33892, Note_off_c, 0, 48, 64
1, 33968, Note_off_c, 0, 60, 64
1, 33972, Note_off_c, 0, 55, 64
1, 33976, Note_off_c, 0, 64, 64
1, 34056, Note_on_c, 0, 55, 27
1, 34068, Note_on_c, 0, 64, 27
1, 34068, Note_on_c, 0, 60, 17
1, 34156, Note_on_c, 0, 81, 66
1, 34156, Note_on_c, 0, 72, 66
1, 34172, Note_off_c, 0, 70, 64
1, 34176, Note_off_c, 0, 79, 64
1, 34228, Note_off_c, 0, 55, 64
1, 34268, Note_off_c, 0, 64, 64
1, 34276, Note_off_c, 0, 60, 64
1, 34300, Note_on_c, 0, 77, 75
1, 34300, Note_on_c, 0, 69, 75
1, 34308, Note_off_c, 0, 81, 64
1, 34308, Note_off_c, 0, 72, 64
1, 34308, Note_on_c, 0, 53, 69
1, 34324, Control_c, 0, 64, 0
1, 34372, Control_c, 0, 64, 127
1, 34444, Note_off_c, 0, 77, 64
1, 34444, Note_off_c, 0, 69, 64
1, 34464, Note_on_c, 0, 72, 86
1, 34548, Note_off_c, 0, 72, 64
1, 34564, Note_on_c, 0, 84, 99
1, 34564, Note_on_c, 0, 72, 69
1, 34564, Control_c, 0, 64, 0
1, 34580, Note_on_c, 0, 65, 42
1, 34580, Note_on_c, 0, 60, 42
1, 34584, Note_on_c, 0, 57, 51
1, 34620, Control_c, 0, 64, 127
1, 34668, Note_off_c, 0, 57, 64
1, 34676, Note_off_c, 0, 60, 64
1, 34688, Note_off_c, 0, 65, 64
1, 34824, Note_off_c, 0, 53, 64
1, 34836, Note_on_c, 0, 65, 51
1, 34836, Note_on_c, 0, 60, 38
1, 34836, Note_on_c, 0, 57, 51
1, 34908, Note_off_c, 0, 65, 64
1, 34908, Note_off_c, 0, 60, 64
1, 34908, Note_off_c, 0, 57, 64
1, 34928, Note_on_c, 0, 78, 79
1, 34932, Note_on_c, 0, 75, 68
1, 34968, Note_off_c, 0, 84, 64
1, 34968, Note_off_c, 0, 72, 64
1, 35052, Note_on_c, 0, 76, 79
1, 35060, Note_on_c, 0, 79, 82
1, 35068, Note_on_c, 0, 48, 69
1, 35076, Control_c, 0, 64, 0
1, 35096, Note_off_c, 0, 78, 64
1, 35100, Note_off_c, 0, 75, 64
1, 35112, Control_c, 0, 64, 127
1, 35192, Note_on_c, 0, 81, 75
1, 35192, Note_on_c, 0, 78, 81
1, 35212, Note_off_c, 0, 76, 64
1, 35220, Note_off_c, 0, 79, 64
1, 35328, Control_c, 0, 64, 0
1, 35332, Note_on_c, 0, 72, 52
1, 35340, Note_on_c, 0, 79, 86
1, 35340, Note_on_c, 0, 60, 27
1, 35348, Note_on_c, 0, 82, 104
1, 35348, Note_on_c, 0, 64, 30
1, 35356, Note_off_c, 0, 78, 64
1, 35360, Control_c, 0, 64, 127
1, 35368, Note_off_c, 0, 81, 64
1, 35432, Note_off_c, 0, 72, 64
1, 35440, Note_off_c, 0, 60, 64
1, 35448, Note_off_c, 0, 64, 64
1, 35512, Note_off_c, 0, 48, 64
1, 35572, Note_on_c, 0, 70, 42
1, 35572, Note_on_c, 0, 60, 42
1, 35576, Note_on_c, 0, 64, 33
1, 35668, Note_off_c, 0, 70, 64
1, 35668, Note_off_c, 0, 60, 64
1, 35676, Note_off_c, 0, 64, 64
1, 35692, Note_on_c, 0, 80, 38
1, 35696, Note_on_c, 0, 83, 75
1, 35756, Note_off_c, 0, 79, 64
1, 35792, Note_off_c, 0, 82, 64
1, 35812, Control_c, 0, 64, 0
1, 35820, Note_on_c, 0, 53, 64
1, 35832, Note_on_c, 0, 86, 88
1, 35872, Note_off_c, 0, 80, 64
1, 35872, Control_c, 0, 64, 127
1, 35876, Note_off_c, 0, 83, 64
1, 35960, Note_off_c, 0, 86, 64
1, 35980, Note_on_c, 0, 84, 64
1, 35988, Note_on_c, 0, 80, 70
1, 36068, Control_c, 0, 64, 0
1, 36084, Note_on_c, 0, 81, 55
1, 36088, Note_on_c, 0, 60, 60
1, 36088, Note_on_c, 0, 69, 60
1, 36092, Note_on_c, 0, 89, 79
1, 36100, Note_off_c, 0, 53, 64
1, 36104, Note_off_c, 0, 80, 64
1, 36108, Control_c, 0, 64, 127
1, 36124, Note_off_c, 0, 84, 64
1, 36276, Note_off_c, 0, 81, 64
1, 36288, Note_off_c, 0, 89, 64
1, 36324, Note_on_c, 0, 72, 86
1, 36324, Note_on_c, 0, 65, 60
1, 36328, Note_on_c, 0, 57, 51
1, 36348, Note_off_c, 0, 60, 64
1, 36352, Note_off_c, 0, 69, 64
1, 36572, Note_on_c, 0, 84, 97
1, 36588, Note_off_c, 0, 72, 64
1, 36588, Note_off_c, 0, 65, 64
1, 36588, Note_on_c, 0, 48, 73
1, 36588, Control_c, 0, 64, 0
1, 36592, Note_off_c, 0, 57, 64
1, 36632, Control_c, 0, 64, 127
1, 36840, Note_on_c, 0, 79, 81
1, 36844, Note_on_c, 0, 55, 17
1, 36844, Note_on_c, 0, 70, 93
1, 36844, Note_on_c, 0, 64, 27
1, 36844, Note_on_c, 0, 60, 42
1, 36860, Note_off_c, 0, 84, 64
1, 36868, Control_c, 0, 64, 0
1, 36888, Control_c, 0, 64, 127
1, 36936, Note_off_c, 0, 60, 64
1, 36936, Note_off_c, 0, 64, 64
1, 36952, Note_off_c, 0, 55, 64
1, 37040, Note_off_c, 0, 48, 64
1, 37092, Note_on_c, 0, 64, 42
1, 37100, Note_on_c, 0, 60, 36
1, 37100, Note_on_c, 0, 55, 17
1, 37180, Note_off_c, 0, 55, 64
1, 37196, Note_on_c, 0, 72, 79
1, 37204, Note_on_c, 0, 81, 55
1, 37228, Note_off_c, 0, 70, 64
1, 37228, Note_off_c, 0, 79, 64
1, 37268, Note_off_c, 0, 60, 64
1, 37320, Note_off_c, 0, 64, 64
1, 37324, Note_on_c, 0, 65, 67
1, 37328, Note_on_c, 0, 53, 86
1, 37328, Note_on_c, 0, 69, 69
1, 37332, Note_on_c, 0, 77, 68
1, 37344, Note_off_c, 0, 72, 64
1, 37348, Note_off_c, 0, 81, 64
1, 37348, Control_c, 0, 64, 0
1, 37384, Control_c, 0, 64, 127
1, 37448, Note_on_c, 0, 72, 79
1, 37460, Note_off_c, 0, 69, 64
1, 37492, Note_off_c, 0, 65, 64
1, 37500, Note_off_c, 0, 77, 64
1, 37556, Control_c, 0, 64, 0
1, 37572, Note_on_c, 0, 69, 73
1, 37572, Note_on_c, 0, 57, 57
1, 37576, Note_on_c, 0, 65, 52
1, 37580, Note_on_c, 0, 77, 93
1, 37600, Note_off_c, 0, 72, 64
1, 37628, Control_c, 0, 64, 127
1, 37728, Note_off_c, 0, 65, 64
1, 37748, Note_off_c, 0, 57, 64
1, 37796, Note_on_c, 0, 65, 67
1, 37804, Note_on_c, 0, 62, 60
1, 37840, Note_off_c, 0, 69, 64
1, 37880, Note_off_c, 0, 65, 64
1, 37892, Note_off_c, 0, 62, 64
1, 37920, Note_on_c, 0, 76, 60
1, 37920, Note_on_c, 0, 72, 79
1, 37932, Note_off_c, 0, 77, 64
1, 38028, Note_off_c, 0, 72, 64
1, 38040, Note_on_c, 0, 72, 34
1, 38040, Note_on_c, 0, 65, 30
1, 38040, Note_on_c, 0, 55, 39
1, 38044, Note_on_c, 0, 74, 89
1, 38048, Note_on_c, 0, 62, 30
1, 38060, Note_off_c, 0, 53, 64
1, 38076, Control_c, 0, 64, 0
1, 38080, Note_off_c, 0, 76, 64
1, 38104, Note_off_c, 0, 62, 64
1, 38124, Control_c, 0, 64, 127
1, 38132, Note_off_c, 0, 65, 64
1, 38132, Note_off_c, 0, 55, 64
1, 38176, Note_on_c, 0, 76, 61
1, 38204, Note_off_c, 0, 74, 64
1, 38300, Note_on_c, 0, 71, 51
1, 38300, Note_on_c, 0, 77, 86
1, 38316, Note_on_c, 0, 55, 42
1, 38316, Note_on_c, 0, 65, 42
1, 38324, Note_on_c, 0, 62, 42
1, 38332, Note_off_c, 0, 72, 64
1, 38332, Note_off_c, 0, 76, 64
1, 38332, Note_on_c, 0, 79, 101
1, 38360, Note_off_c, 0, 77, 64
1, 38388, Note_on_c, 0, 77, 99
1, 38404, Note_off_c, 0, 79, 64
1, 38416, Note_off_c, 0, 55, 64
1, 38424, Note_off_c, 0, 62, 64
1, 38444, Note_off_c, 0, 65, 64
1, 38464, Note_off_c, 0, 71, 64
1, 38464, Note_on_c, 0, 76, 93
1, 38516, Note_off_c, 0, 77, 64
1, 38564, Note_on_c, 0, 71, 81
1, 38572, Note_on_c, 0, 55, 60
1, 38572, Note_on_c, 0, 65, 44
1, 38572, Note_on_c, 0, 62, 48
1, 38576, Note_on_c, 0, 77, 105
1, 38604, Note_off_c, 0, 76, 64
1, 38624, Note_off_c, 0, 62, 64
1, 38640, Note_off_c, 0, 65, 64
1, 38648, Note_off_c, 0, 71, 64
1, 38648, Note_off_c, 0, 55, 64
1, 38688, Note_on_c, 0, 78, 89
1, 38724, Note_off_c, 0, 77, 64
1, 38816, Control_c, 0, 64, 0
1, 38824, Note_on_c, 0, 48, 75
1, 38828, Note_on_c, 0, 81, 91
1, 38836, Note_on_c, 0, 70, 84
1, 38868, Note_off_c, 0, 78, 64
1, 38876, Control_c, 0, 64, 127
1, 38948, Note_on_c, 0, 79, 65
1, 38980, Note_off_c, 0, 70, 64
1, 39012, Note_off_c, 0, 81, 64
1, 39068, Control_c, 0, 64, 0
1, 39076, Note_on_c, 0, 60, 57
1, 39084, Note_on_c, 0, 64, 42
1, 39084, Note_on_c, 0, 76, 105
1, 39084, Note_on_c, 0, 70, 81
1, 39084, Note_on_c, 0, 55, 42
1, 39104, Note_off_c, 0, 79, 64
1, 39124, Control_c, 0, 64, 127
1, 39136, Note_off_c, 0, 60, 64
1, 39148, Note_off_c, 0, 55, 64
1, 39164, Note_off_c, 0, 64, 64
1, 39196, Note_off_c, 0, 70, 64
1, 39308, Note_on_c, 0, 60, 53
1, 39312, Note_on_c, 0, 64, 39
1, 39320, Note_on_c, 0, 55, 39
1, 39324, Note_on_c, 0, 70, 82
1, 39332, Note_on_c, 0, 74, 77
1, 39340, Note_off_c, 0, 76, 64
1, 39364, Note_off_c, 0, 60, 64
1, 39388, Note_off_c, 0, 64, 64
1, 39388, Note_off_c, 0, 55, 64
1, 39400, Note_off_c, 0, 48, 64
1, 39516, Note_on_c, 0, 72, 56
1, 39520, Note_off_c, 0, 70, 64
1, 39528, Note_off_c, 0, 74, 64
1, 39560, Control_c, 0, 64, 0
1, 39568, Note_on_c, 0, 48, 77
1, 39596, Note_on_c, 0, 84, 97
1, 39620, Note_off_c, 0, 72, 64
1, 39632, Control_c, 0, 64, 127
1, 39820, Note_on_c, 0, 70, 104
1, 39828, Note_on_c, 0, 55, 19
1, 39828, Note_on_c, 0, 64, 36
1, 39828, Note_on_c, 0, 60, 20
1, 39832, Note_on_c, 0, 79, 88
1, 39832, Control_c, 0, 64, 0
1, 39872, Note_off_c, 0, 84, 64
1, 39884, Note_off_c, 0, 60, 64
1, 39888, Control_c, 0, 64, 127
1, 39904, Note_off_c, 0, 64, 64
1, 39916, Note_off_c, 0, 55, 64
1, 40024, Note_off_c, 0, 48, 64
1, 40076, Note_on_c, 0, 60, 33
1, 40084, Note_on_c, 0, 55, 28
1, 40088, Note_on_c, 0, 64, 36
1, 40164, Note_on_c, 0, 81, 57
1, 40164, Note_on_c, 0, 72, 57
1, 40196, Note_off_c, 0, 55, 64
1, 40204, Note_off_c, 0, 79, 64
1, 40212, Note_off_c, 0, 60, 64
1, 40216, Note_off_c, 0, 70, 64
1, 40264, Note_off_c, 0, 64, 64
1, 40300, Control_c, 0, 64, 0
1, 40308, Note_on_c, 0, 53, 82
1, 40312, Note_on_c, 0, 77, 70
1, 40316, Note_on_c, 0, 69, 77
1, 40340, Note_off_c, 0, 81, 64
1, 40340, Note_off_c, 0, 72, 64
1, 40384, Control_c, 0, 64, 127
1, 40468, Note_on_c, 0, 72, 81
1, 40480, Note_off_c, 0, 77, 64
1, 40484, Note_off_c, 0, 69, 64
1, 40528, Note_off_c, 0, 72, 64
1, 40544, Control_c, 0, 64, 0
1, 40556, Note_on_c, 0, 84, 105
1, 40556, Note_on_c, 0, 65, 36
1, 40560, Note_on_c, 0, 57, 39
1, 40564, Note_on_c, 0, 72, 30
1, 40564, Note_on_c, 0, 60, 19
1, 40604, Control_c, 0, 64, 127
1, 40656, Note_off_c, 0, 65, 64
1, 40660, Note_off_c, 0, 57, 64
1, 40660, Note_off_c, 0, 60, 64
1, 40792, Note_on_c, 0, 65, 39
1, 40796, Note_on_c, 0, 57, 53
1, 40800, Note_on_c, 0, 60, 52
1, 40812, Note_off_c, 0, 53, 64
1, 40832, Note_off_c, 0, 60, 64
1, 40840, Note_off_c, 0, 65, 64
1, 40852, Note_off_c, 0, 57, 64
1, 40904, Note_on_c, 0, 78, 69
1, 40908, Note_on_c, 0, 75, 68
1, 40948, Note_off_c, 0, 72, 64
1, 40952, Note_off_c, 0, 84, 64
1, 41036, Control_c, 0, 64, 0
1, 41044, Note_on_c, 0, 76, 69
1, 41052, Note_off_c, 0, 75, 64
1, 41052, Note_on_c, 0, 48, 81
1, 41052, Note_on_c, 0, 79, 81
1, 41056, Note_off_c, 0, 78, 64
1, 41100, Control_c, 0, 64, 127
1, 41172, Note_on_c, 0, 81, 60
1, 41172, Note_on_c, 0, 78, 79
1, 41184, Note_off_c, 0, 76, 64
1, 41192, Note_off_c, 0, 79, 64
1, 41292, Control_c, 0, 64, 0
1, 41300, Note_on_c, 0, 60, 42
1, 41300, Note_on_c, 0, 64, 42
1, 41304, Note_on_c, 0, 82, 99
1, 41304, Note_on_c, 0, 79, 86
1, 41304, Note_on_c, 0, 72, 53
1, 41312, Note_off_c, 0, 81, 64
1, 41312, Note_off_c, 0, 78, 64
1, 41340, Control_c, 0, 64, 127
1, 41396, Note_off_c, 0, 60, 64
1, 41400, Note_off_c, 0, 64, 64
1, 41400, Note_off_c, 0, 72, 64
1, 41492, Note_off_c, 0, 48, 64
1, 41524, Note_on_c, 0, 70, 49
1, 41528, Note_on_c, 0, 64, 42
1, 41528, Note_on_c, 0, 60, 33
1, 41588, Note_off_c, 0, 64, 64
1, 41600, Note_off_c, 0, 70, 64
1, 41608, Note_off_c, 0, 60, 64
1, 41636, Note_on_c, 0, 80, 73
1, 41644, Note_on_c, 0, 83, 68
1, 41660, Note_off_c, 0, 79, 64
1, 41660, Note_off_c, 0, 82, 64
1, 41772, Note_on_c, 0, 86, 104
1, 41772, Control_c, 0, 64, 0
1, 41776, Note_off_c, 0, 80, 64
1, 41780, Note_off_c, 0, 83, 64
1, 41788, Note_on_c, 0, 53, 55
1, 41836, Control_c, 0, 64, 127
1, 41896, Note_off_c, 0, 86, 64
1, 41924, Note_on_c, 0, 84, 82
1, 41924, Note_on_c, 0, 80, 68
1, 42008, Note_on_c, 0, 60, 52
1, 42016, Note_on_c, 0, 81, 75
1, 42016, Note_on_c, 0, 69, 60
1, 42016, Note_on_c, 0, 89, 99
1, 42020, Note_off_c, 0, 80, 64
1, 42040, Note_off_c, 0, 84, 64
1, 42052, Note_off_c, 0, 53, 64
1, 42168, Note_off_c, 0, 81, 64
1, 42172, Note_off_c, 0, 89, 64
1, 42220, Note_off_c, 0, 60, 64
1, 42240, Note_on_c, 0, 65, 44
1, 42244, Note_on_c, 0, 57, 51
1, 42244, Note_on_c, 0, 72, 81
1, 42248, Note_off_c, 0, 69, 64
1, 42476, Control_c, 0, 64, 0
1, 42492, Note_on_c, 0, 84, 93
1, 42504, Note_on_c, 0, 48, 73
1, 42508, Note_off_c, 0, 72, 64
1, 42520, Note_off_c, 0, 65, 64
1, 42524, Note_off_c, 0, 57, 64
1, 42556, Control_c, 0, 64, 127
1, 42744, Note_on_c, 0, 55, 36
1, 42744, Note_on_c, 0, 64, 42
1, 42744, Note_on_c, 0, 60, 42
1, 42756, Note_on_c, 0, 70, 86
1, 42756, Note_on_c, 0, 79, 81
1, 42756, Control_c, 0, 64, 0
1, 42776, Note_off_c, 0, 84, 64
1, 42784, Control_c, 0, 64, 127
1, 42812, Note_off_c, 0, 60, 64
1, 42828, Note_off_c, 0, 55, 64
1, 42832, Note_off_c, 0, 64, 64
1, 42948, Note_off_c, 0, 48, 64
1, 42972, Note_on_c, 0, 64, 44
1, 42984, Note_on_c, 0, 55, 28
1, 42988, Note_on_c, 0, 60, 36
1, 43064, Note_on_c, 0, 72, 86
1, 43068, Note_on_c, 0, 81, 60
1, 43084, Note_off_c, 0, 70, 64
1, 43084, Note_off_c, 0, 79, 64
1, 43108, Note_off_c, 0, 55, 64
1, 43108, Note_off_c, 0, 60, 64
1, 43108, Note_off_c, 0, 64, 64
1, 43204, Note_on_c, 0, 65, 83
1, 43204, Note_on_c, 0, 57, 75
1, 43208, Note_on_c, 0, 53, 75
1, 43212, Note_on_c, 0, 69, 83
1, 43220, Note_on_c, 0, 77, 75
1, 43220, Note_on_c, 0, 60, 70
1, 43228, Note_off_c, 0, 72, 64
1, 43232, Note_off_c, 0, 81, 64
1, 43252, Control_c, 0, 64, 0
1, 43308, Note_off_c, 0, 65, 64
1, 43308, Note_off_c, 0, 57, 64
1, 43308, Note_off_c, 0, 53, 64
1, 43316, Note_off_c, 0, 69, 64
1, 43320, Note_off_c, 0, 77, 64
1, 43320, Note_off_c, 0, 60, 64
1, 43492, Note_on_c, 0, 58, 97
1, 43492, Note_on_c, 0, 55, 81
1, 43500, Note_on_c, 0, 81, 99
1, 43500, Note_on_c, 0, 50, 99
1, 43500, Note_on_c, 0, 46, 99
1, 43500, Note_on_c, 0, 74, 99
1, 43512, Note_on_c, 0, 67, 99
1, 43736, Control_c, 0, 64, 127
1, 44116, Note_on_c, 0, 79, 79
1, 44140, Note_off_c, 0, 81, 64
1, 44156, Note_off_c, 0, 58, 64
1, 44160, Note_off_c, 0, 55, 64
1, 44164, Note_off_c, 0, 50, 64
1, 44164, Note_off_c, 0, 46, 64
1, 44168, Note_off_c, 0, 74, 64
1, 44176, Note_off_c, 0, 67, 64
1, 44276, Control_c, 0, 64, 0
1, 44292, Note_on_c, 0, 72, 93
1, 44292, Note_on_c, 0, 64, 84
1, 44296, Note_off_c, 0, 79, 64
1, 44296, Note_on_c, 0, 70, 99
1, 44308, Note_on_c, 0, 48, 79
1, 44364, Note_off_c, 0, 48, 64
1, 44368, Note_off_c, 0, 64, 64
1, 44372, Note_off_c, 0, 70, 64
1, 44420, Note_on_c, 0, 73, 106
1, 44444, Note_off_c, 0, 72, 64
1, 44544, Note_on_c, 0, 60, 77
1, 44544, Note_on_c, 0, 55, 67
1, 44544, Note_on_c, 0, 48, 77
1, 44548, Note_on_c, 0, 64, 94
1, 44556, Note_off_c, 0, 73, 64
1, 44556, Note_on_c, 0, 72, 90
1, 44556, Note_on_c, 0, 70, 95
1, 44616, Note_off_c, 0, 55, 64
1, 44620, Note_off_c, 0, 60, 64
1, 44620, Note_off_c, 0, 48, 64
1, 44628, Note_off_c, 0, 64, 64
1, 44644, Note_off_c, 0, 70, 64
1, 44652, Note_on_c, 0, 74, 83
1, 44676, Note_off_c, 0, 72, 64
1, 44760, Note_on_c, 0, 64, 94
1, 44768, Note_off_c, 0, 74, 64
1, 44768, Note_on_c, 0, 72, 89
1, 44768, Note_on_c, 0, 60, 83
1, 44768, Note_on_c, 0, 55, 83
1, 44768, Note_on_c, 0, 48, 89
1, 44768, Note_on_c, 0, 70, 112
1, 44844, Note_off_c, 0, 48, 64
1, 44852, Note_off_c, 0, 70, 64
1, 44860, Note_off_c, 0, 64, 64
1, 44860, Note_off_c, 0, 55, 64
1, 44872, Note_on_c, 0, 76, 112
1, 44876, Note_off_c, 0, 60, 64
1, 44904, Note_off_c, 0, 72, 64
1, 45016, Note_on_c, 0, 60, 110
1, 45016, Note_on_c, 0, 57, 107
1, 45020, Note_on_c, 0, 53, 107
1, 45032, Note_on_c, 0, 77, 111
1, 45032, Note_on_c, 0, 69, 112
1, 45032, Note_on_c, 0, 65, 110
1, 45052, Note_off_c, 0, 76, 64
1, 45076, Control_c, 0, 64, 127
1, 45132, Note_off_c, 0, 60, 64
1, 45132, Note_off_c, 0, 57, 64
1, 45136, Note_off_c, 0, 53, 64
1, 45148, Note_off_c, 0, 77, 64
1, 45148, Note_off_c, 0, 69, 64
1, 45148, Note_off_c, 0, 65, 64
1, 45308, Control_c, 0, 64, 0
1, 45324, Note_on_c, 0, 81, 110
1, 45324, Note_on_c, 0, 41, 110
1, 45332, Note_on_c, 0, 89, 106
1, 45332, Note_on_c, 0, 77, 110
1, 45332, Note_on_c, 0, 53, 110
1, 45404, Control_c, 0, 64, 127
1, 45528, Note_off_c, 0, 81, 64
1, 45528, Note_off_c, 0, 41, 64
1, 45536, Note_off_c, 0, 89, 64
1, 45540, Note_off_c, 0, 77, 64
1, 45540, Note_off_c, 0, 53, 64
1, 45740, Control_c, 0, 64, 0
1, 46100, Note_on_c, 0, 60, 90
1, 46100, Note_on_c, 0, 48, 82
1, 46100, Note_on_c, 0, 36, 87
1, 46100, Note_on_c, 0, 55, 85
1, 46104, Note_on_c, 0, 64, 85
1, 46156, Note_off_c, 0, 55, 64
1, 46164, Note_off_c, 0, 60, 64
1, 46164, Note_off_c, 0, 48, 64
1, 46172, Note_off_c, 0, 36, 64
1, 46172, Note_off_c, 0, 64, 64
1, 46220, Note_on_c, 0, 62, 100
1, 46220, Note_on_c, 0, 48, 96
1, 46220, Note_on_c, 0, 36, 98
1, 46224, Note_on_c, 0, 65, 100
1, 46228, Note_on_c, 0, 55, 86
1, 46284, Note_off_c, 0, 62, 64
1, 46284, Note_off_c, 0, 48, 64
1, 46284, Note_off_c, 0, 36, 64
1, 46288, Note_off_c, 0, 65, 64
1, 46292, Note_off_c, 0, 55, 64
1, 46348, Note_on_c, 0, 36, 100
1, 46352, Note_on_c, 0, 67, 102
1, 46356, Note_on_c, 0, 55, 96
1, 46356, Note_on_c, 0, 64, 107
1, 46356, Note_on_c, 0, 48, 98
1, 46420, Note_off_c, 0, 36, 64
1, 46424, Note_off_c, 0, 67, 64
1, 46428, Note_off_c, 0, 55, 64
1, 46428, Note_off_c, 0, 64, 64
1, 46428, Note_off_c, 0, 48, 64
1, 46640, Note_on_c, 0, 69, 107
1, 46640, Note_on_c, 0, 65, 107
1, 46652, Note_on_c, 0, 55, 102
1, 46652, Note_on_c, 0, 48, 107
1, 46656, Note_on_c, 0, 36, 107
1, 46680, Control_c, 0, 64, 127
1, 46824, Note_off_c, 0, 69, 64
1, 46824, Note_off_c, 0, 65, 64
1, 46836, Note_off_c, 0, 55, 64
1, 46836, Note_off_c, 0, 48, 64
1, 46836, Note_off_c, 0, 36, 64
1, 46900, Control_c, 0, 64, 0
1, 46920, Note_on_c, 0, 67, 100
1, 46920, Note_on_c, 0, 64, 102
1, 46932, Note_on_c, 0, 55, 86
1, 46932, Note_on_c, 0, 48, 90
1, 46944, Note_on_c, 0, 36, 93
1, 46972, Note_off_c, 0, 64, 64
1, 46972, Note_off_c, 0, 55, 64
1, 46984, Note_off_c, 0, 67, 64
1, 46988, Note_off_c, 0, 48, 64
1, 46996, Note_off_c, 0, 36, 64
1, 47040, Note_on_c, 0, 64, 106
1, 47040, Note_on_c, 0, 60, 106
1, 47040, Note_on_c, 0, 55, 100
1, 47040, Note_on_c, 0, 48, 102
1, 47040, Note_on_c, 0, 36, 93
1, 47076, Note_off_c, 0, 60, 64
1, 47088, Note_off_c, 0, 64, 64
1, 47092, Note_off_c, 0, 55, 64
1, 47092, Note_off_c, 0, 48, 64
1, 47104, Note_off_c, 0, 36, 64
1, 47168, Note_on_c, 0, 48, 107
1, 47168, Note_on_c, 0, 36, 102
1, 47180, Note_on_c, 0, 60, 107
1, 47180, Note_on_c, 0, 55, 106
1, 47232, Note_off_c, 0, 48, 64
1, 47232, Note_off_c, 0, 36, 64
1, 47244, Note_off_c, 0, 60, 64
1, 47244, Note_off_c, 0, 55, 64
1, 47456, Control_c, 0, 64, 127
1, 47464, Note_on_c, 0, 55, 107
1, 47472, Note_on_c, 0, 36, 107
1, 47472, Note_on_c, 0, 48, 107
1, 47472, Note_on_c, 0, 62, 107
1, 47616, Note_off_c, 0, 55, 64
1, 47624, Note_off_c, 0, 36, 64
1, 47624, Note_off_c, 0, 48, 64
1, 47624, Note_off_c, 0, 62, 64
1, 47720, Note_on_c, 0, 64, 107
1, 47720, Note_on_c, 0, 55, 102
1, 47732, Note_on_c, 0, 60, 107
1, 47732, Control_c, 0, 64, 0
1, 47744, Note_on_c, 0, 48, 96
1, 47744, Note_on_c, 0, 36, 90
1, 47768, Note_off_c, 0, 60, 64
1, 47772, Note_off_c, 0, 55, 64
1, 47780, Note_off_c, 0, 64, 64
1, 47788, Note_off_c, 0, 48, 64
1, 47796, Note_off_c, 0, 36, 64
1, 47852, Note_on_c, 0, 55, 106
1, 47856, Note_on_c, 0, 65, 102
1, 47856, Note_on_c, 0, 60, 107
1, 47868, Note_on_c, 0, 36, 96
1, 47872, Note_on_c, 0, 48, 102
1, 47892, Note_off_c, 0, 60, 64
1, 47900, Note_off_c, 0, 55, 64
1, 47912, Note_off_c, 0, 65, 64
1, 47916, Note_off_c, 0, 36, 64
1, 47916, Note_off_c, 0, 48, 64
1, 47960, Note_on_c, 0, 48, 102
1, 47972, Note_on_c, 0, 64, 93
1, 47972, Note_on_c, 0, 60, 106
1, 47972, Note_on_c, 0, 55, 100
1, 47976, Note_on_c, 0, 67, 107
1, 47984, Note_on_c, 0, 36, 102
1, 48024, Note_off_c, 0, 48, 64
1, 48036, Note_off_c, 0, 64, 64
1, 48036, Note_off_c, 0, 60, 64
1, 48036, Note_off_c, 0, 55, 64
1, 48040, Note_off_c, 0, 67, 64
1, 48044, Note_off_c, 0, 36, 64
1, 48256, Note_on_c, 0, 41, 103
1, 48256, Note_on_c, 0, 48, 103
1, 48268, Note_on_c, 0, 69, 103
1, 48268, Note_on_c, 0, 65, 102
1, 48268, Note_on_c, 0, 60, 103
1, 48268, Note_on_c, 0, 57, 102
1, 48316, Control_c, 0, 64, 127
1, 48444, Note_off_c, 0, 41, 64
1, 48448, Note_off_c, 0, 48, 64
1, 48456, Note_off_c, 0, 69, 64
1, 48456, Note_off_c, 0, 65, 64
1, 48456, Note_off_c, 0, 60, 64
1, 48456, Note_off_c, 0, 57, 64
1, 48532, Control_c, 0, 64, 0
1, 48556, Note_on_c, 0, 67, 102
1, 48556, Note_on_c, 0, 64, 103
1, 48556, Note_on_c, 0, 60, 97
1, 48556, Note_on_c, 0, 55, 93
1, 48556, Note_on_c, 0, 48, 90
1, 48556, Note_on_c, 0, 36, 90
1, 48620, Note_off_c, 0, 67, 64
1, 48620, Note_off_c, 0, 64, 64
1, 48620, Note_off_c, 0, 60, 64
1, 48620, Note_off_c, 0, 55, 64
1, 48620, Note_off_c, 0, 48, 64
1, 48620, Note_off_c, 0, 36, 64
1, 48620, Control_c, 0, 64, 0
1, 48688, Note_on_c, 0, 60, 93
1, 48688, Note_on_c, 0, 48, 93
1, 48688, Note_on_c, 0, 36, 86
1, 48688, Control_c, 0, 64, 127
1, 48692, Note_on_c, 0, 55, 90
1, 48696, Note_on_c, 0, 64, 103
1, 48748, Note_off_c, 0, 60, 64
1, 48748, Note_off_c, 0, 48, 64
1, 48748, Note_off_c, 0, 36, 64
1, 48748, Note_off_c, 0, 55, 64
1, 48752, Note_off_c, 0, 64, 64
1, 48824, Note_on_c, 0, 67, 107
1, 48824, Note_on_c, 0, 36, 96
1, 48828, Note_on_c, 0, 64, 103
1, 48832, Note_on_c, 0, 48, 100
1, 48836, Note_on_c, 0, 55, 93
1, 48888, Control_c, 0, 64, 0
1, 48972, Control_c, 0, 64, 127
1, 49016, Note_off_c, 0, 67, 64
1, 49016, Note_off_c, 0, 36, 64
1, 49020, Note_off_c, 0, 64, 64
1, 49020, Note_off_c, 0, 48, 64
1, 49024, Note_off_c, 0, 55, 64
1, 49156, Control_c, 0, 64, 0
1, 49196, Note_on_c, 0, 71, 78
1, 49260, Control_c, 0, 64, 127
1, 49304, Note_on_c, 0, 72, 78
1, 49340, Note_off_c, 0, 71, 64
1, 49440, Note_on_c, 0, 74, 87
1, 49444, Note_on_c, 0, 57, 41
1, 49452, Note_on_c, 0, 62, 41
1, 49452, Note_on_c, 0, 54, 46
1, 49452, Note_on_c, 0, 60, 38
1, 49468, Note_off_c, 0, 72, 64
1, 49532, Note_off_c, 0, 74, 64
1, 49548, Note_off_c, 0, 60, 64
1, 49556, Note_off_c, 0, 57, 64
1, 49560, Note_off_c, 0, 62, 64
1, 49564, Note_off_c, 0, 54, 64
1, 49564, Note_on_c, 0, 74, 86
1, 49644, Note_off_c, 0, 74, 64
1, 49656, Control_c, 0, 64, 0
1, 49668, Note_on_c, 0, 76, 78
1, 49672, Note_on_c, 0, 62, 52
1, 49684, Note_on_c, 0, 74, 97
1, 49688, Note_on_c, 0, 59, 46
1, 49696, Note_on_c, 0, 55, 41
1, 49704, Note_on_c, 0, 53, 45
1, 49720, Note_off_c, 0, 76, 64
1, 49732, Control_c, 0, 64, 127
1, 49776, Note_off_c, 0, 53, 64
1, 49780, Note_off_c, 0, 59, 64
1, 49780, Note_off_c, 0, 55, 64
1, 49804, Note_off_c, 0, 62, 64
1, 49804, Note_off_c, 0, 74, 64
1, 49908, Control_c, 0, 64, 0
1, 49932, Note_on_c, 0, 62, 52
1, 49940, Note_on_c, 0, 59, 47
1, 49940, Note_on_c, 0, 55, 41
1, 49944, Note_on_c, 0, 67, 78
1, 49944, Note_on_c, 0, 53, 52
1, 49972, Control_c, 0, 64, 127
1, 50004, Note_off_c, 0, 62, 64
1, 50008, Note_off_c, 0, 55, 64
1, 50008, Note_off_c, 0, 53, 64
1, 50012, Note_off_c, 0, 59, 64
1, 50044, Note_on_c, 0, 71, 72
1, 50096, Note_off_c, 0, 67, 64
1, 50168, Control_c, 0, 64, 0
1, 50176, Note_on_c, 0, 64, 41
1, 50176, Note_on_c, 0, 52, 34
1, 50180, Note_on_c, 0, 72, 97
1, 50180, Note_on_c, 0, 60, 47
1, 50196, Note_off_c, 0, 71, 64
1, 50216, Control_c, 0, 64, 127
1, 50284, Note_off_c, 0, 64, 64
1, 50300, Note_on_c, 0, 74, 79
1, 50316, Note_off_c, 0, 60, 64
1, 50332, Note_off_c, 0, 52, 64
1, 50336, Note_off_c, 0, 72, 64
1, 50396, Control_c, 0, 64, 0
1, 50412, Note_on_c, 0, 76, 96
1, 50428, Note_on_c, 0, 64, 55
1, 50432, Note_on_c, 0, 48, 56
1, 50436, Note_on_c, 0, 55, 50
1, 50448, Note_off_c, 0, 74, 64
1, 50460, Control_c, 0, 64, 127
1, 50508, Note_off_c, 0, 64, 64
1, 50536, Note_off_c, 0, 55, 64
1, 50540, Note_on_c, 0, 77, 92
1, 50552, Note_off_c, 0, 76, 64
1, 50568, Note_off_c, 0, 48, 64
1, 50668, Note_on_c, 0, 79, 96
1, 50684, Note_off_c, 0, 77, 64
1, 50764, Note_on_c, 0, 80, 97
1, 50804, Note_off_c, 0, 79, 64
1, 50860, Control_c, 0, 64, 0
1, 50880, Note_on_c, 0, 43, 87
1, 50892, Note_on_c, 0, 81, 109
1, 50908, Note_off_c, 0, 80, 64
1, 50940, Control_c, 0, 64, 127
1, 50976, Note_off_c, 0, 81, 64
1, 51004, Note_on_c, 0, 81, 85
1, 51084, Note_off_c, 0, 81, 64
1, 51100, Control_c, 0, 64, 0
1, 51112, Note_on_c, 0, 83, 97
1, 51140, Note_on_c, 0, 55, 63
1, 51140, Note_on_c, 0, 59, 52
1, 51148, Note_on_c, 0, 65, 52
1, 51148, Note_on_c, 0, 81, 109
1, 51176, Control_c, 0, 64, 127
1, 51192, Note_off_c, 0, 83, 64
1, 51216, Note_off_c, 0, 55, 64
1, 51216, Note_off_c, 0, 59, 64
1, 51220, Note_off_c, 0, 65, 64
1, 51340, Note_off_c, 0, 43, 64
1, 51360, Note_on_c, 0, 65, 46
1, 51364, Note_on_c, 0, 79, 96
1, 51364, Note_on_c, 0, 59, 46
1, 51372, Note_on_c, 0, 55, 50
1, 51388, Note_off_c, 0, 81, 64
1, 51428, Note_off_c, 0, 65, 64
1, 51432, Note_off_c, 0, 59, 64
1, 51440, Note_off_c, 0, 55, 64
1, 51476, Note_on_c, 0, 74, 81
1, 51504, Note_off_c, 0, 79, 64
1, 51600, Note_on_c, 0, 48, 63
1, 51608, Note_on_c, 0, 77, 108
1, 51624, Control_c, 0, 64, 0
1, 51640, Note_off_c, 0, 74, 64
1, 51668, Note_off_c, 0, 77, 64
1, 51676, Control_c, 0, 64, 127
1, 51720, Note_on_c, 0, 77, 87
1, 51780, Note_off_c, 0, 77, 64
1, 51828, Note_on_c, 0, 79, 95
1, 51840, Note_on_c, 0, 65, 61
1, 51844, Note_on_c, 0, 57, 50
1, 51852, Note_on_c, 0, 77, 100
1, 51856, Control_c, 0, 64, 0
1, 51892, Control_c, 0, 64, 127
1, 51924, Note_off_c, 0, 79, 64
1, 52080, Note_on_c, 0, 55, 50
1, 52088, Control_c, 0, 64, 0
1, 52100, Note_on_c, 0, 76, 83
1, 52100, Note_on_c, 0, 64, 52
1, 52116, Control_c, 0, 64, 127
1, 52124, Note_off_c, 0, 65, 64
1, 52128, Note_off_c, 0, 57, 64
1, 52132, Note_off_c, 0, 77, 64
1, 52156, Note_off_c, 0, 55, 64
1, 52164, Note_off_c, 0, 64, 64
1, 52168, Note_off_c, 0, 76, 64
1, 52172, Note_off_c, 0, 48, 64
1, 52308, Note_on_c, 0, 69, 63
1, 52332, Note_on_c, 0, 62, 45
1, 52332, Note_on_c, 0, 57, 46
1, 52332, Note_on_c, 0, 54, 54
1, 52340, Note_on_c, 0, 60, 52
1, 52340, Note_on_c, 0, 74, 69
1, 52344, Control_c, 0, 64, 0
1, 52364, Note_off_c, 0, 69, 64
1, 52408, Control_c, 0, 64, 127
1, 52420, Note_off_c, 0, 74, 64
1, 52440, Note_off_c, 0, 54, 64
1, 52444, Note_off_c, 0, 57, 64
1, 52444, Note_off_c, 0, 60, 64
1, 52452, Note_off_c, 0, 62, 64
1, 52464, Note_on_c, 0, 74, 87
1, 52524, Note_off_c, 0, 74, 64
1, 52572, Control_c, 0, 64, 0
1, 52580, Note_on_c, 0, 76, 83
1, 52600, Note_on_c, 0, 62, 63
1, 52600, Note_on_c, 0, 55, 61
1, 52608, Note_on_c, 0, 59, 52
1, 52608, Note_on_c, 0, 53, 61
1, 52608, Note_on_c, 0, 74, 96
1, 52632, Control_c, 0, 64, 127
1, 52660, Note_off_c, 0, 76, 64
1, 52704, Note_off_c, 0, 59, 64
1, 52708, Note_off_c, 0, 55, 64
1, 52716, Note_off_c, 0, 62, 64
1, 52720, Note_off_c, 0, 53, 64
1, 52812, Control_c, 0, 64, 0
1, 52828, Note_on_c, 0, 53, 52
1, 52832, Note_on_c, 0, 62, 52
1, 52836, Note_on_c, 0, 55, 46
1, 52844, Note_off_c, 0, 74, 64
1, 52844, Note_on_c, 0, 67, 85
1, 52844, Note_on_c, 0, 59, 52
1, 52868, Control_c, 0, 64, 127
1, 52900, Note_off_c, 0, 53, 64
1, 52900, Note_off_c, 0, 62, 64
1, 52900, Note_off_c, 0, 59, 64
1, 52908, Note_off_c, 0, 55, 64
1, 52948, Note_on_c, 0, 71, 72
1, 52980, Note_off_c, 0, 67, 64
1, 53068, Control_c, 0, 64, 0
1, 53080, Note_on_c, 0, 72, 86
1, 53088, Note_on_c, 0, 60, 46
1, 53088, Note_on_c, 0, 55, 46
1, 53088, Note_on_c, 0, 52, 52
1, 53096, Note_off_c, 0, 71, 64
1, 53132, Control_c, 0, 64, 127
1, 53212, Note_on_c, 0, 74, 61
1, 53220, Note_off_c, 0, 60, 64
1, 53252, Note_off_c, 0, 72, 64
1, 53272, Note_off_c, 0, 52, 64
1, 53284, Note_off_c, 0, 55, 64
1, 53296, Control_c, 0, 64, 0
1, 53312, Note_on_c, 0, 64, 52
1, 53316, Note_on_c, 0, 76, 86
1, 53324, Note_on_c, 0, 55, 40
1, 53328, Note_on_c, 0, 48, 52
1, 53348, Note_off_c, 0, 74, 64
1, 53364, Control_c, 0, 64, 127
1, 53436, Note_on_c, 0, 77, 86
1, 53472, Note_off_c, 0, 76, 64
1, 53476, Note_off_c, 0, 64, 64
1, 53504, Note_off_c, 0, 55, 64
1, 53516, Control_c, 0, 64, 0
1, 53532, Note_off_c, 0, 48, 64
1, 53568, Note_on_c, 0, 79, 83
1, 53588, Control_c, 0, 64, 127
1, 53628, Note_off_c, 0, 77, 64
1, 53636, Control_c, 0, 64, 0
1, 53672, Note_on_c, 0, 84, 78
1, 53700, Control_c, 0, 64, 127
1, 53708, Note_off_c, 0, 79, 64
1, 53792, Note_on_c, 0, 83, 86
1, 53796, Control_c, 0, 64, 0
1, 53812, Note_on_c, 0, 43, 76
1, 53840, Note_off_c, 0, 84, 64
1, 53844, Control_c, 0, 64, 127
1, 53916, Note_on_c, 0, 81, 78
1, 53928, Note_off_c, 0, 83, 64
1, 53964, Note_on_c, 0, 83, 78
1, 54004, Note_off_c, 0, 81, 64
1, 54012, Note_on_c, 0, 81, 86
1, 54036, Note_on_c, 0, 55, 54
1, 54044, Note_on_c, 0, 62, 23
1, 54048, Note_on_c, 0, 65, 36
1, 54052, Note_off_c, 0, 83, 64
1, 54052, Control_c, 0, 64, 0
1, 54072, Note_on_c, 0, 77, 86
1, 54108, Control_c, 0, 64, 127
1, 54116, Note_off_c, 0, 81, 64
1, 54128, Note_off_c, 0, 55, 64
1, 54136, Note_off_c, 0, 62, 64
1, 54160, Note_off_c, 0, 65, 64
1, 54172, Note_on_c, 0, 74, 91
1, 54208, Note_off_c, 0, 77, 64
1, 54260, Note_off_c, 0, 43, 64
1, 54280, Note_on_c, 0, 71, 91
1, 54288, Note_on_c, 0, 55, 52
1, 54292, Note_off_c, 0, 74, 64
1, 54296, Note_on_c, 0, 65, 50
1, 54296, Note_on_c, 0, 62, 47
1, 54348, Note_off_c, 0, 62, 64
1, 54356, Note_off_c, 0, 55, 64
1, 54356, Note_off_c, 0, 65, 64
1, 54392, Note_on_c, 0, 67, 72
1, 54412, Note_off_c, 0, 71, 64
1, 54520, Note_on_c, 0, 48, 68
1, 54520, Control_c, 0, 64, 0
1, 54528, Note_on_c, 0, 64, 68
1, 54536, Note_on_c, 0, 72, 78
1, 54580, Note_off_c, 0, 67, 64
1, 54584, Control_c, 0, 64, 127
1, 54632, Note_on_c, 0, 74, 63
1, 54668, Note_off_c, 0, 72, 64
1, 54676, Note_on_c, 0, 67, 78
1, 54696, Note_off_c, 0, 64, 64
1, 54700, Note_off_c, 0, 48, 64
1, 54712, Note_on_c, 0, 76, 69
1, 54744, Note_off_c, 0, 74, 64
1, 54764, Control_c, 0, 64, 0
1, 54772, Note_on_c, 0, 60, 41
1, 54772, Note_on_c, 0, 48, 68
1, 54772, Note_on_c, 0, 72, 87
1, 54776, Note_on_c, 0, 64, 68
1, 54776, Note_on_c, 0, 55, 16
1, 54804, Note_off_c, 0, 67, 64
1, 54812, Note_off_c, 0, 76, 64
1, 54844, Control_c, 0, 64, 127
1, 55004, Note_off_c, 0, 60, 64
1, 55004, Note_off_c, 0, 48, 64
1, 55004, Note_off_c, 0, 72, 64
1, 55008, Note_off_c, 0, 64, 64
1, 55008, Note_off_c, 0, 55, 64
1, 55012, Note_on_c, 0, 71, 112
1, 55148, Note_on_c, 0, 72, 112
1, 55156, Note_off_c, 0, 71, 64
1, 55244, Control_c, 0, 64, 0
1, 55276, Note_on_c, 0, 50, 103
1, 55284, Note_on_c, 0, 57, 106
1, 55284, Note_on_c, 0, 74, 112
1, 55288, Note_on_c, 0, 60, 112
1, 55292, Note_on_c, 0, 66, 127
1, 55292, Note_on_c, 0, 62, 108
1, 55304, Note_off_c, 0, 72, 64
1, 55320, Note_off_c, 0, 62, 64
1, 55328, Note_off_c, 0, 66, 64
1, 55336, Note_off_c, 0, 50, 64
1, 55340, Note_off_c, 0, 60, 64
1, 55344, Note_off_c, 0, 74, 64
1, 55348, Note_off_c, 0, 57, 64
1, 55456, Note_on_c, 0, 66, 93
1, 55456, Note_on_c, 0, 50, 112
1, 55460, Note_on_c, 0, 62, 90
1, 55460, Note_on_c, 0, 60, 87
1, 55464, Note_on_c, 0, 57, 106
1, 55468, Note_on_c, 0, 74, 112
1, 55536, Note_on_c, 0, 67, 115
1, 55540, Note_on_c, 0, 59, 112
1, 55540, Note_on_c, 0, 55, 112
1, 55540, Note_on_c, 0, 71, 122
1, 55544, Note_off_c, 0, 66, 64
1, 55548, Note_off_c, 0, 62, 64
1, 55548, Note_off_c, 0, 60, 64
1, 55552, Note_off_c, 0, 57, 64
1, 55556, Note_off_c, 0, 50, 64
1, 55568, Note_off_c, 0, 74, 64
1, 55612, Control_c, 0, 64, 127
1, 55652, Note_off_c, 0, 67, 64
1, 55652, Note_off_c, 0, 59, 64
1, 55652, Note_off_c, 0, 55, 64
1, 55656, Note_off_c, 0, 71, 64
1, 55744, Control_c, 0, 64, 0
1, 55780, Note_on_c, 0, 67, 126
1, 55780, Note_on_c, 0, 43, 120
1, 55780, Note_on_c, 0, 31, 122
1, 55796, Note_on_c, 0, 79, 127
1, 55796, Note_on_c, 0, 74, 107
1, 55796, Note_on_c, 0, 71, 127
1, 55820, Control_c, 0, 64, 127
1, 55872, Control_c, 0, 64, 0
1, 55932, Control_c, 0, 64, 127
1, 55988, Note_off_c, 0, 67, 64
1, 55988, Note_off_c, 0, 43, 64
1, 55988, Note_off_c, 0, 31, 64
1, 56000, Note_off_c, 0, 79, 64
1, 56000, Note_off_c, 0, 74, 64
1, 56000, Note_off_c, 0, 71, 64
1, 56028, Control_c, 0, 64, 0
1, 56036, Note_on_c, 0, 69, 93
1, 56036, Note_on_c, 0, 62, 112
1, 56040, Note_on_c, 0, 66, 115
1, 56040, Note_on_c, 0, 57, 112
1, 56044, Note_on_c, 0, 74, 116
1, 56044, Note_on_c, 0, 60, 112
1, 56044, Note_on_c, 0, 50, 103
1, 56068, Control_c, 0, 64, 127
1, 56080, Note_off_c, 0, 66, 64
1, 56092, Note_off_c, 0, 62, 64
1, 56096, Note_off_c, 0, 57, 64
1, 56096, Note_off_c, 0, 50, 64
1, 56104, Note_off_c, 0, 74, 64
1, 56112, Note_off_c, 0, 60, 64
1, 56132, Note_off_c, 0, 69, 64
1, 56204, Note_on_c, 0, 66, 93
1, 56212, Note_on_c, 0, 69, 93
1, 56216, Note_on_c, 0, 62, 103
1, 56216, Note_on_c, 0, 50, 83
1, 56224, Note_on_c, 0, 74, 106
1, 56224, Note_on_c, 0, 60, 116
1, 56224, Note_on_c, 0, 57, 91
1, 56260, Control_c, 0, 64, 0
1, 56304, Note_off_c, 0, 66, 64
1, 56308, Note_off_c, 0, 69, 64
1, 56308, Note_off_c, 0, 50, 64
1, 56308, Note_on_c, 0, 55, 127
1, 56312, Note_on_c, 0, 67, 127
1, 56312, Note_on_c, 0, 59, 127
1, 56320, Control_c, 0, 64, 127
1, 56328, Note_off_c, 0, 74, 64
1, 56332, Note_off_c, 0, 60, 64
1, 56332, Note_off_c, 0, 57, 64
1, 56340, Note_off_c, 0, 62, 64
1, 56372, Control_c, 0, 64, 0
1, 56420, Note_off_c, 0, 55, 64
1, 56428, Note_off_c, 0, 67, 64
1, 56428, Note_off_c, 0, 59, 64
1, 56432, Control_c, 0, 64, 127
1, 56528, Note_on_c, 0, 43, 122
1, 56528, Control_c, 0, 64, 0
1, 56536, Note_on_c, 0, 31, 112
1, 56544, Note_on_c, 0, 71, 116
1, 56544, Note_on_c, 0, 67, 126
1, 56544, Note_on_c, 0, 62, 120
1, 56608, Note_off_c, 0, 67, 64
1, 56620, Note_off_c, 0, 62, 64
1, 56620, Control_c, 0, 64, 127
1, 56644, Note_on_c, 0, 69, 47
1, 56652, Note_on_c, 0, 72, 121
1, 56704, Note_off_c, 0, 71, 64
1, 56732, Note_off_c, 0, 43, 64
1, 56740, Note_off_c, 0, 31, 64
1, 56768, Control_c, 0, 64, 0
1, 56800, Note_on_c, 0, 50, 106
1, 56800, Note_on_c, 0, 57, 112
1, 56800, Note_on_c, 0, 60, 112
1, 56800, Note_on_c, 0, 62, 112
1, 56800, Note_on_c, 0, 74, 112
1, 56808, Note_off_c, 0, 69, 64
1, 56812, Note_off_c, 0, 72, 64
1, 56812, Note_on_c, 0, 66, 122
1, 56828, Control_c, 0, 64, 127
1, 56844, Note_off_c, 0, 62, 64
1, 56848, Note_off_c, 0, 57, 64
1, 56856, Note_off_c, 0, 66, 64
1, 56860, Note_off_c, 0, 50, 64
1, 56860, Note_off_c, 0, 60, 64
1, 56868, Note_off_c, 0, 74, 64
1, 56980, Note_on_c, 0, 62, 106
1, 56984, Note_on_c, 0, 66, 91
1, 56984, Note_on_c, 0, 60, 83
1, 56984, Note_on_c, 0, 50, 85
1, 56992, Note_on_c, 0, 74, 115
1, 56992, Note_on_c, 0, 57, 91
1, 57004, Control_c, 0, 64, 0
1, 57056, Note_off_c, 0, 62, 64
1, 57056, Note_on_c, 0, 55, 115
1, 57060, Note_on_c, 0, 67, 127
1, 57060, Note_on_c, 0, 59, 116
1, 57064, Note_off_c, 0, 66, 64
1, 57064, Note_off_c, 0, 60, 64
1, 57064, Note_off_c, 0, 50, 64
1, 57064, Note_on_c, 0, 71, 127
1, 57068, Note_off_c, 0, 74, 64
1, 57068, Note_off_c, 0, 57, 64
1, 57104, Control_c, 0, 64, 127
1, 57172, Note_off_c, 0, 55, 64
1, 57176, Note_off_c, 0, 67, 64
1, 57176, Note_off_c, 0, 59, 64
1, 57180, Note_off_c, 0, 71, 64
1, 57308, Control_c, 0, 64, 0
1, 57316, Note_on_c, 0, 74, 126
1, 57324, Note_on_c, 0, 71, 127
1, 57324, Note_on_c, 0, 67, 127
1, 57324, Note_on_c, 0, 43, 126
1, 57324, Note_on_c, 0, 31, 122
1, 57324, Note_on_c, 0, 79, 127
1, 57376, Control_c, 0, 64, 127
1, 57524, Note_off_c, 0, 74, 64
1, 57528, Note_off_c, 0, 71, 64
1, 57528, Note_off_c, 0, 67, 64
1, 57528, Note_off_c, 0, 43, 64
1, 57528, Note_off_c, 0, 31, 64
1, 57528, Note_off_c, 0, 79, 64
1, 57556, Control_c, 0, 64, 0
1, 57572, Note_on_c, 0, 74, 127
1, 57572, Note_on_c, 0, 66, 122
1, 57572, Note_on_c, 0, 62, 112
1, 57584, Note_on_c, 0, 60, 112
1, 57592, Note_on_c, 0, 57, 112
1, 57592, Note_on_c, 0, 50, 116
1, 57620, Control_c, 0, 64, 127
1, 57624, Note_off_c, 0, 62, 64
1, 57632, Note_off_c, 0, 57, 64
1, 57636, Note_off_c, 0, 66, 64
1, 57644, Note_off_c, 0, 60, 64
1, 57644, Note_off_c, 0, 50, 64
1, 57656, Note_off_c, 0, 74, 64
1, 57740, Note_on_c, 0, 50, 70
1, 57748, Note_on_c, 0, 66, 93
1, 57748, Note_on_c, 0, 57, 93
1, 57752, Note_on_c, 0, 74, 97
1, 57752, Note_on_c, 0, 62, 87
1, 57752, Note_on_c, 0, 60, 93
1, 57820, Control_c, 0, 64, 0
1, 57832, Note_off_c, 0, 74, 64
1, 57844, Note_off_c, 0, 66, 64
1, 57844, Note_off_c, 0, 57, 64
1, 57844, Note_on_c, 0, 74, 93
1, 57844, Note_on_c, 0, 71, 122
1, 57848, Note_on_c, 0, 55, 108
1, 57852, Note_off_c, 0, 62, 64
1, 57852, Note_off_c, 0, 60, 64
1, 57852, Note_on_c, 0, 59, 116
1, 57852, Note_on_c, 0, 67, 127
1, 57864, Note_off_c, 0, 50, 64
1, 57888, Control_c, 0, 64, 127
1, 57932, Control_c, 0, 64, 0
1, 58092, Note_off_c, 0, 71, 64
1, 58092, Note_off_c, 0, 55, 64
1, 58092, Note_off_c, 0, 59, 64
1, 58092, Note_off_c, 0, 67, 64
1, 58092, Control_c, 0, 64, 127
1, 58096, Note_off_c, 0, 74, 64
1, 58176, Note_on_c, 0, 76, 81
1, 58200, Note_on_c, 0, 54, 50
1, 58208, Note_on_c, 0, 62, 46
1, 58208, Note_on_c, 0, 69, 75
1, 58208, Note_on_c, 0, 60, 35
1, 58220, Note_on_c, 0, 74, 87
1, 58236, Control_c, 0, 64, 0
1, 58240, Note_off_c, 0, 76, 64
1, 58288, Control_c, 0, 64, 127
1, 58320, Note_off_c, 0, 54, 64
1, 58332, Note_off_c, 0, 60, 64
1, 58344, Note_on_c, 0, 73, 90
1, 58348, Note_off_c, 0, 62, 64
1, 58372, Note_off_c, 0, 74, 64
1, 58464, Note_on_c, 0, 68, 66
1, 58472, Note_on_c, 0, 62, 53
1, 58472, Control_c, 0, 64, 0
1, 58476, Note_on_c, 0, 53, 51
1, 58484, Note_off_c, 0, 69, 64
1, 58484, Note_on_c, 0, 59, 47
1, 58492, Note_on_c, 0, 76, 88
1, 58508, Control_c, 0, 64, 127
1, 58520, Note_off_c, 0, 73, 64
1, 58556, Note_off_c, 0, 59, 64
1, 58564, Note_off_c, 0, 62, 64
1, 58564, Note_off_c, 0, 53, 64
1, 58584, Note_on_c, 0, 74, 89
1, 58620, Note_off_c, 0, 76, 64
1, 58708, Control_c, 0, 64, 0
1, 58720, Note_on_c, 0, 53, 51
1, 58720, Note_on_c, 0, 67, 79
1, 58728, Note_on_c, 0, 59, 46
1, 58732, Note_on_c, 0, 62, 46
1, 58740, Note_off_c, 0, 68, 64
1, 58764, Note_off_c, 0, 74, 64
1, 58800, Control_c, 0, 64, 127
1, 58836, Note_off_c, 0, 53, 64
1, 58848, Note_off_c, 0, 59, 64
1, 58864, Note_off_c, 0, 62, 64
1, 58972, Note_on_c, 0, 69, 90
1, 58976, Control_c, 0, 64, 0
1, 58988, Note_on_c, 0, 59, 47
1, 58992, Note_on_c, 0, 62, 53
1, 58992, Note_on_c, 0, 55, 51
1, 58992, Note_on_c, 0, 53, 51
1, 59020, Control_c, 0, 64, 127
1, 59028, Note_off_c, 0, 67, 64
1, 59044, Note_off_c, 0, 59, 64
1, 59056, Note_off_c, 0, 55, 64
1, 59056, Note_off_c, 0, 53, 64
1, 59060, Note_off_c, 0, 62, 64
1, 59092, Note_on_c, 0, 71, 82
1, 59140, Note_off_c, 0, 69, 64
1, 59212, Note_on_c, 0, 60, 41
1, 59220, Note_on_c, 0, 72, 93
1, 59220, Note_on_c, 0, 52, 51
1, 59224, Note_on_c, 0, 55, 53
1, 59244, Note_off_c, 0, 71, 64
1, 59244, Control_c, 0, 64, 0
1, 59312, Control_c, 0, 64, 127
1, 59348, Note_on_c, 0, 74, 90
1, 59380, Note_off_c, 0, 72, 64
1, 59428, Note_off_c, 0, 60, 64
1, 59436, Note_off_c, 0, 55, 64
1, 59440, Note_off_c, 0, 52, 64
1, 59456, Control_c, 0, 64, 0
1, 59468, Note_on_c, 0, 76, 100
1, 59472, Note_on_c, 0, 64, 51
1, 59476, Note_on_c, 0, 48, 43
1, 59484, Note_on_c, 0, 55, 51
1, 59504, Note_off_c, 0, 74, 64
1, 59544, Control_c, 0, 64, 127
1, 59588, Note_on_c, 0, 77, 95
1, 59608, Note_off_c, 0, 64, 64
1, 59616, Note_off_c, 0, 76, 64
1, 59636, Note_off_c, 0, 55, 64
1, 59660, Note_off_c, 0, 48, 64
1, 59716, Note_on_c, 0, 79, 99
1, 59716, Control_c, 0, 64, 0
1, 59724, Note_off_c, 0, 77, 64
1, 59780, Control_c, 0, 64, 127
1, 59828, Note_on_c, 0, 80, 96
1, 59868, Note_off_c, 0, 79, 64
1, 59924, Control_c, 0, 64, 0
1, 59940, Note_on_c, 0, 43, 95
1, 59956, Note_on_c, 0, 81, 108
1, 59988, Note_off_c, 0, 80, 64
1, 60004, Control_c, 0, 64, 127
1, 60016, Note_off_c, 0, 81, 64
1, 60064, Note_on_c, 0, 81, 97
1, 60124, Note_off_c, 0, 81, 64
1, 60172, Note_on_c, 0, 83, 103
1, 60172, Note_on_c, 0, 55, 71
1, 60180, Note_on_c, 0, 59, 43
1, 60188, Control_c, 0, 64, 0
1, 60192, Note_on_c, 0, 65, 53
1, 60208, Note_on_c, 0, 81, 115
1, 60256, Note_off_c, 0, 83, 64
1, 60268, Control_c, 0, 64, 127
1, 60276, Note_off_c, 0, 59, 64
1, 60288, Note_off_c, 0, 55, 64
1, 60324, Note_off_c, 0, 65, 64
1, 60396, Note_off_c, 0, 43, 64
1, 60428, Note_on_c, 0, 59, 46
1, 60428, Note_on_c, 0, 79, 102
1, 60428, Note_on_c, 0, 55, 50
1, 60436, Note_on_c, 0, 65, 47
1, 60468, Note_off_c, 0, 81, 64
1, 60516, Note_off_c, 0, 65, 64
1, 60520, Note_off_c, 0, 59, 64
1, 60524, Note_off_c, 0, 55, 64
1, 60548, Note_on_c, 0, 74, 82
1, 60576, Note_off_c, 0, 79, 64
1, 60660, Note_on_c, 0, 48, 65
1, 60672, Note_on_c, 0, 77, 100
1, 60676, Note_off_c, 0, 74, 64
1, 60692, Control_c, 0, 64, 0
1, 60736, Note_off_c, 0, 77, 64
1, 60748, Control_c, 0, 64, 127
1, 60788, Note_on_c, 0, 77, 93
1, 60852, Note_off_c, 0, 77, 64
1, 60904, Note_on_c, 0, 79, 95
1, 60912, Note_on_c, 0, 57, 63
1, 60916, Note_on_c, 0, 65, 62
1, 60932, Note_on_c, 0, 77, 91
1, 60932, Control_c, 0, 64, 0
1, 60988, Note_off_c, 0, 79, 64
1, 60988, Control_c, 0, 64, 127
1, 61164, Note_on_c, 0, 64, 31
1, 61164, Note_on_c, 0, 55, 53
1, 61168, Note_off_c, 0, 48, 64
1, 61172, Note_on_c, 0, 76, 85
1, 61184, Note_off_c, 0, 57, 64
1, 61192, Note_off_c, 0, 65, 64
1, 61196, Note_off_c, 0, 77, 64
1, 61232, Note_off_c, 0, 64, 64
1, 61236, Note_off_c, 0, 55, 64
1, 61236, Note_off_c, 0, 76, 64
1, 61364, Note_on_c, 0, 69, 45
1, 61408, Note_on_c, 0, 57, 53
1, 61408, Note_on_c, 0, 62, 40
1, 61408, Note_on_c, 0, 74, 81
1, 61412, Note_on_c, 0, 54, 47
1, 61424, Note_off_c, 0, 69, 64
1, 61428, Control_c, 0, 64, 0
1, 61476, Note_off_c, 0, 74, 64
1, 61488, Control_c, 0, 64, 127
1, 61496, Note_off_c, 0, 57, 64
1, 61512, Note_off_c, 0, 54, 64
1, 61524, Note_off_c, 0, 62, 64
1, 61540, Note_on_c, 0, 74, 90
1, 61596, Note_off_c, 0, 74, 64
1, 61656, Note_on_c, 0, 76, 83
1, 61656, Note_on_c, 0, 62, 57
1, 61656, Note_on_c, 0, 55, 56
1, 61668, Note_on_c, 0, 59, 45
1, 61668, Note_on_c, 0, 53, 56
1, 61684, Note_on_c, 0, 74, 100
1, 61684, Control_c, 0, 64, 0
1, 61732, Note_off_c, 0, 76, 64
1, 61740, Control_c, 0, 64, 127
1, 61744, Note_off_c, 0, 53, 64
1, 61756, Note_off_c, 0, 55, 64
1, 61756, Note_off_c, 0, 59, 64
1, 61760, Note_off_c, 0, 62, 64
1, 61896, Control_c, 0, 64, 0
1, 61908, Note_on_c, 0, 67, 90
1, 61912, Note_on_c, 0, 59, 50
1, 61916, Note_on_c, 0, 62, 50
1, 61916, Note_on_c, 0, 55, 47
1, 61924, Note_on_c, 0, 53, 47
1, 61932, Control_c, 0, 64, 127
1, 61940, Note_off_c, 0, 74, 64
1, 61964, Note_off_c, 0, 59, 64
1, 61980, Note_off_c, 0, 62, 64
1, 61980, Note_off_c, 0, 53, 64
1, 61984, Note_off_c, 0, 55, 64
1, 62028, Note_on_c, 0, 71, 88
1, 62068, Note_off_c, 0, 67, 64
1, 62152, Note_on_c, 0, 52, 51
1, 62152, Control_c, 0, 64, 0
1, 62156, Note_on_c, 0, 55, 53
1, 62156, Note_on_c, 0, 60, 56
1, 62160, Note_on_c, 0, 72, 88
1, 62188, Note_off_c, 0, 71, 64
1, 62228, Control_c, 0, 64, 127
1, 62284, Note_on_c, 0, 74, 72
1, 62324, Note_off_c, 0, 72, 64
1, 62340, Note_off_c, 0, 52, 64
1, 62344, Note_off_c, 0, 55, 64
1, 62344, Note_off_c, 0, 60, 64
1, 62396, Note_on_c, 0, 76, 90
1, 62408, Note_on_c, 0, 64, 53
1, 62408, Note_on_c, 0, 48, 51
1, 62408, Control_c, 0, 64, 0
1, 62428, Note_on_c, 0, 55, 46
1, 62436, Note_off_c, 0, 74, 64
1, 62464, Control_c, 0, 64, 127
1, 62528, Note_on_c, 0, 77, 81
1, 62532, Note_off_c, 0, 64, 64
1, 62540, Note_off_c, 0, 76, 64
1, 62560, Note_off_c, 0, 55, 64
1, 62588, Note_off_c, 0, 48, 64
1, 62656, Note_on_c, 0, 79, 83
1, 62680, Control_c, 0, 64, 0
1, 62700, Note_off_c, 0, 77, 64
1, 62744, Control_c, 0, 64, 127
1, 62780, Note_on_c, 0, 84, 87
1, 62808, Note_off_c, 0, 79, 64
1, 62896, Control_c, 0, 64, 0
1, 62912, Note_on_c, 0, 83, 75
1, 62916, Note_on_c, 0, 43, 74
1, 62940, Note_off_c, 0, 84, 64
1, 62952, Control_c, 0, 64, 127
1, 63044, Note_off_c, 0, 83, 64
1, 63052, Note_on_c, 0, 81, 74
1, 63096, Note_on_c, 0, 83, 72
1, 63124, Note_off_c, 0, 81, 64
1, 63132, Note_on_c, 0, 81, 83
1, 63164, Control_c, 0, 64, 0
1, 63172, Note_on_c, 0, 55, 38
1, 63172, Note_on_c, 0, 65, 48
1, 63176, Note_off_c, 0, 83, 64
1, 63180, Note_on_c, 0, 62, 43
1, 63180, Note_on_c, 0, 77, 83
1, 63208, Control_c, 0, 64, 127
1, 63220, Note_off_c, 0, 81, 64
1, 63264, Note_off_c, 0, 55, 64
1, 63284, Note_off_c, 0, 65, 64
1, 63288, Note_off_c, 0, 62, 64
1, 63296, Note_on_c, 0, 74, 70
1, 63304, Note_off_c, 0, 77, 64
1, 63364, Note_off_c, 0, 43, 64
1, 63396, Note_on_c, 0, 62, 49
1, 63400, Note_on_c, 0, 71, 86
1, 63404, Note_on_c, 0, 55, 53
1, 63404, Note_on_c, 0, 65, 49
1, 63448, Note_off_c, 0, 74, 64
1, 63468, Note_off_c, 0, 65, 64
1, 63472, Note_off_c, 0, 55, 64
1, 63476, Note_off_c, 0, 62, 64
1, 63536, Note_off_c, 0, 71, 64
1, 63560, Note_on_c, 0, 67, 85
1, 63668, Control_c, 0, 64, 0
1, 63672, Note_on_c, 0, 48, 63
1, 63672, Note_on_c, 0, 64, 70
1, 63676, Note_on_c, 0, 72, 73
1, 63728, Control_c, 0, 64, 127
1, 63736, Note_off_c, 0, 67, 64
1, 63784, Note_on_c, 0, 74, 46
1, 63820, Note_on_c, 0, 67, 66
1, 63844, Note_off_c, 0, 72, 64
1, 63864, Note_off_c, 0, 48, 64
1, 63864, Note_off_c, 0, 64, 64
1, 63872, Note_on_c, 0, 76, 69
1, 63908, Note_off_c, 0, 74, 64
1, 63932, Note_off_c, 0, 67, 64
1, 63948, Note_on_c, 0, 48, 44
1, 63948, Note_on_c, 0, 55, 35
1, 63948, Note_on_c, 0, 60, 19
1, 63956, Note_on_c, 0, 72, 71
1, 63960, Note_on_c, 0, 64, 72
1, 63992, Control_c, 0, 64, 0
1, 63996, Note_off_c, 0, 76, 64
1, 64172, Control_c, 0, 64, 127
1, 64500, Control_c, 0, 64, 0
1, 64624, Note_off_c, 0, 48, 64
1, 64624, Note_off_c, 0, 55, 64
1, 64624, Note_off_c, 0, 60, 64
1, 64628, Note_off_c, 0, 72, 64
1, 64636, Note_off_c, 0, 64, 64
1, 64636, End_track
2, 0, Start_track
2, 1, Copyright_t, "__________________________________________________________\012\012KUNSTDERFUGE.COM GREAT CLASSICAL MIDI COLLECTION\012__________________________________________________________\012\012KUNST-DER-FUGE CONTRIBUTOR's PROPERTY\012Copyright by Contributor & Kunst der Fuge, © 2006\012\012Contributors' list: http://kunstderfuge.com/thanks.htm\012Terms and conditions: http://kunstderfuge.com/notes.htm\012__________________________________________________________\012\012NO WEBSITE MAY PUBLISH THIS FILE WITHOUT PERMISSION\012NO COMMERCIAL USE ALLOWED, NOR BY SALES NOR by eBay!\012PLEASE REPORT ANY ABUSE TO INFO@ONCLASSICAL.COM\012__________________________________________________________\012\012Thousands of free classical MIDI files at kunstderfuge.com"
2, 1, End_track
0, 0, End_of_file
