0, 0, Header, 0, 1, 480
1, 0, Start_track
1, 0, Title_t, "Mendelssohn: Lieder ohne Worte Opus 19 Nr. 1"
1, 0, Copyright_t, "Copyright © 2014 by Bernd Krueger"
1, 0, Text_t, "Bernd Krueger"
1, 0, Text_t, "Andante con moto"
1, 0, Text_t, "Erstellt: 27.9.2014\012"
1, 0, Text_t, "Dauer: 2:46 Minuten\012"
1, 0, Time_signature, 4, 2, 24, 8
1, 0, Key_signature, 4, "major"
1, 0, Tempo, 635324
1, 0, Marker_t, "Andante con moto"
1, 0, Program_c, 0, 0
1, 0, Program_c, 0, 0
1, 0, Note_on_c, 0, 47, 28
1, 0, Note_on_c, 0, 40, 40
1, 0, Program_c, 0, 0
1, 19, Tempo, 641711
1, 21, Control_c, 0, 64, 127
1, 115, Tempo, 638298
1, 120, Note_on_c, 0, 47, 0
1, 120, Note_on_c, 0, 52, 20
1, 192, Tempo, 634921
1, 240, Note_on_c, 0, 52, 0
1, 240, Note_on_c, 0, 56, 21
1, 269, Tempo, 631579
1, 346, Tempo, 628272
1, 360, Note_on_c, 0, 56, 0
1, 360, Note_on_c, 0, 59, 20
1, 423, Tempo, 625000
1, 480, Note_on_c, 0, 59, 0
1, 480, Note_on_c, 0, 47, 26
1, 499, Tempo, 621762
1, 600, Note_on_c, 0, 47, 0
1, 600, Note_on_c, 0, 52, 20
1, 615, Tempo, 625000
1, 711, Tempo, 628272
1, 720, Note_on_c, 0, 52, 0
1, 720, Note_on_c, 0, 56, 21
1, 807, Tempo, 631579
1, 840, Note_on_c, 0, 56, 0
1, 840, Note_on_c, 0, 59, 19
1, 903, Tempo, 634921
1, 960, Note_on_c, 0, 59, 0
1, 960, Note_on_c, 0, 40, 0
1, 960, Note_on_c, 0, 47, 28
1, 960, Note_on_c, 0, 44, 42
1, 991, Control_c, 0, 64, 0
1, 999, Tempo, 638298
1, 1052, Control_c, 0, 64, 127
1, 1080, Note_on_c, 0, 47, 0
1, 1080, Note_on_c, 0, 52, 21
1, 1095, Tempo, 634921
1, 1191, Tempo, 631579
1, 1200, Note_on_c, 0, 52, 0
1, 1200, Note_on_c, 0, 56, 21
1, 1287, Tempo, 628272
1, 1320, Note_on_c, 0, 56, 0
1, 1320, Note_on_c, 0, 59, 20
1, 1383, Tempo, 625000
1, 1440, Note_on_c, 0, 59, 0
1, 1440, Note_on_c, 0, 47, 27
1, 1479, Tempo, 621762
1, 1560, Note_on_c, 0, 47, 0
1, 1560, Note_on_c, 0, 52, 23
1, 1575, Tempo, 625000
1, 1671, Tempo, 628272
1, 1680, Note_on_c, 0, 52, 0
1, 1680, Note_on_c, 0, 56, 22
1, 1767, Tempo, 631579
1, 1800, Note_on_c, 0, 56, 0
1, 1800, Note_on_c, 0, 59, 20
1, 1863, Tempo, 634921
1, 1901, Tempo, 628272
1, 1920, Note_on_c, 0, 59, 0
1, 1920, Note_on_c, 0, 44, 0
1, 1920, Note_on_c, 0, 47, 31
1, 1920, Note_on_c, 0, 42, 45
1, 1927, Control_c, 0, 64, 0
1, 2012, Control_c, 0, 64, 127
1, 2040, Note_on_c, 0, 47, 0
1, 2040, Note_on_c, 0, 51, 23
1, 2055, Tempo, 625000
1, 2160, Note_on_c, 0, 51, 0
1, 2160, Note_on_c, 0, 57, 23
1, 2208, Tempo, 621762
1, 2280, Note_on_c, 0, 57, 0
1, 2280, Note_on_c, 0, 59, 23
1, 2362, Tempo, 618557
1, 2400, Note_on_c, 0, 59, 0
1, 2400, Note_on_c, 0, 47, 30
1, 2458, Tempo, 621762
1, 2520, Note_on_c, 0, 47, 0
1, 2520, Note_on_c, 0, 51, 23
1, 2554, Tempo, 625000
1, 2631, Tempo, 628272
1, 2640, Note_on_c, 0, 51, 0
1, 2640, Note_on_c, 0, 57, 23
1, 2727, Tempo, 631579
1, 2760, Note_on_c, 0, 57, 0
1, 2760, Note_on_c, 0, 59, 22
1, 2803, Tempo, 634921
1, 2880, Tempo, 648298
1, 2880, Note_on_c, 0, 59, 0
1, 2880, Note_on_c, 0, 42, 0
1, 2880, Note_on_c, 0, 47, 32
1, 2880, Note_on_c, 0, 35, 41
1, 3000, Note_on_c, 0, 47, 0
1, 3000, Note_on_c, 0, 51, 25
1, 3120, Note_on_c, 0, 51, 0
1, 3120, Note_on_c, 0, 54, 26
1, 3240, Note_on_c, 0, 54, 0
1, 3240, Note_on_c, 0, 59, 29
1, 3360, Tempo, 632111
1, 3360, Note_on_c, 0, 59, 0
1, 3360, Note_on_c, 0, 35, 0
1, 3360, Note_on_c, 0, 69, 51
1, 3360, Note_on_c, 0, 47, 31
1, 3380, Control_c, 0, 64, 0
1, 3452, Control_c, 0, 64, 127
1, 3480, Note_on_c, 0, 47, 0
1, 3480, Note_on_c, 0, 51, 26
1, 3600, Note_on_c, 0, 51, 0
1, 3600, Note_on_c, 0, 54, 32
1, 3720, Note_on_c, 0, 54, 0
1, 3720, Note_on_c, 0, 59, 34
1, 3840, Tempo, 619835
1, 3840, Marker_t, "Teil 1"
1, 3840, Note_on_c, 0, 59, 0
1, 3840, Note_on_c, 0, 69, 0
1, 3840, Note_on_c, 0, 68, 57
1, 3840, Note_on_c, 0, 47, 40
1, 3840, Note_on_c, 0, 40, 46
1, 3848, Control_c, 0, 64, 0
1, 3939, Control_c, 0, 64, 127
1, 3960, Note_on_c, 0, 47, 0
1, 3960, Note_on_c, 0, 52, 26
1, 4080, Note_on_c, 0, 52, 0
1, 4080, Note_on_c, 0, 56, 26
1, 4200, Note_on_c, 0, 56, 0
1, 4200, Note_on_c, 0, 59, 25
1, 4320, Tempo, 635324
1, 4320, Note_on_c, 0, 59, 0
1, 4320, Note_on_c, 0, 40, 0
1, 4320, Note_on_c, 0, 68, 0
1, 4320, Note_on_c, 0, 66, 48
1, 4320, Note_on_c, 0, 47, 32
1, 4320, Note_on_c, 0, 42, 42
1, 4338, Control_c, 0, 64, 0
1, 4419, Control_c, 0, 64, 127
1, 4440, Note_on_c, 0, 47, 0
1, 4440, Note_on_c, 0, 51, 25
1, 4560, Note_on_c, 0, 51, 0
1, 4560, Note_on_c, 0, 57, 25
1, 4680, Note_on_c, 0, 57, 0
1, 4680, Note_on_c, 0, 59, 23
1, 4800, Tempo, 644953
1, 4800, Note_on_c, 0, 59, 0
1, 4800, Note_on_c, 0, 42, 0
1, 4800, Note_on_c, 0, 66, 0
1, 4800, Note_on_c, 0, 64, 48
1, 4800, Note_on_c, 0, 47, 33
1, 4800, Note_on_c, 0, 44, 42
1, 4817, Control_c, 0, 64, 0
1, 4899, Control_c, 0, 64, 127
1, 4920, Note_on_c, 0, 47, 0
1, 4920, Note_on_c, 0, 52, 27
1, 5040, Note_on_c, 0, 52, 0
1, 5040, Note_on_c, 0, 56, 34
1, 5160, Tempo, 717875
1, 5160, Note_on_c, 0, 56, 0
1, 5160, Note_on_c, 0, 59, 44
1, 5250, Note_on_c, 0, 64, 0
1, 5280, Tempo, 619835
1, 5280, Note_on_c, 0, 59, 0
1, 5280, Note_on_c, 0, 44, 0
1, 5280, Note_on_c, 0, 76, 69
1, 5280, Note_on_c, 0, 54, 53
1, 5280, Note_on_c, 0, 46, 42
1, 5298, Control_c, 0, 64, 0
1, 5358, Control_c, 0, 64, 127
1, 5400, Note_on_c, 0, 54, 0
1, 5400, Note_on_c, 0, 61, 31
1, 5520, Note_on_c, 0, 61, 0
1, 5520, Note_on_c, 0, 64, 39
1, 5640, Note_on_c, 0, 64, 0
1, 5640, Note_on_c, 0, 66, 23
1, 5722, Tempo, 628272
1, 5760, Note_on_c, 0, 66, 0
1, 5760, Note_on_c, 0, 46, 0
1, 5760, Note_on_c, 0, 76, 0
1, 5760, Note_on_c, 0, 75, 68
1, 5760, Note_on_c, 0, 54, 35
1, 5760, Note_on_c, 0, 47, 46
1, 5778, Control_c, 0, 64, 0
1, 5812, Control_c, 0, 64, 127
1, 5837, Tempo, 625000
1, 5880, Note_on_c, 0, 54, 0
1, 5880, Note_on_c, 0, 59, 26
1, 5952, Tempo, 621762
1, 6000, Note_on_c, 0, 59, 0
1, 6000, Note_on_c, 0, 63, 26
1, 6067, Tempo, 618557
1, 6120, Note_on_c, 0, 63, 0
1, 6120, Note_on_c, 0, 66, 25
1, 6183, Tempo, 615385
1, 6240, Tempo, 632111
1, 6240, Note_on_c, 0, 66, 0
1, 6240, Note_on_c, 0, 47, 0
1, 6240, Note_on_c, 0, 75, 0
1, 6240, Note_on_c, 0, 73, 56
1, 6240, Note_on_c, 0, 54, 32
1, 6240, Note_on_c, 0, 49, 42
1, 6257, Control_c, 0, 64, 0
1, 6320, Control_c, 0, 64, 127
1, 6360, Note_on_c, 0, 54, 0
1, 6360, Note_on_c, 0, 58, 25
1, 6480, Note_on_c, 0, 58, 0
1, 6480, Note_on_c, 0, 64, 25
1, 6600, Note_on_c, 0, 64, 0
1, 6600, Note_on_c, 0, 66, 23
1, 6720, Note_on_c, 0, 66, 0
1, 6720, Note_on_c, 0, 49, 0
1, 6720, Note_on_c, 0, 73, 0
1, 6720, Note_on_c, 0, 71, 52
1, 6720, Note_on_c, 0, 54, 33
1, 6720, Note_on_c, 0, 51, 37
1, 6737, Control_c, 0, 64, 0
1, 6761, Tempo, 628272
1, 6812, Control_c, 0, 64, 127
1, 6818, Tempo, 631579
1, 6840, Note_on_c, 0, 54, 0
1, 6840, Note_on_c, 0, 59, 27
1, 6876, Tempo, 634921
1, 6914, Tempo, 638298
1, 6960, Note_on_c, 0, 59, 0
1, 6960, Note_on_c, 0, 63, 33
1, 6972, Tempo, 641711
1, 7029, Tempo, 645161
1, 7068, Tempo, 648649
1, 7080, Tempo, 690528
1, 7080, Note_on_c, 0, 63, 0
1, 7080, Note_on_c, 0, 66, 40
1, 7170, Note_on_c, 0, 71, 0
1, 7200, Tempo, 632111
1, 7200, Note_on_c, 0, 66, 0
1, 7200, Note_on_c, 0, 51, 0
1, 7200, Note_on_c, 0, 73, 61
1, 7200, Note_on_c, 0, 56, 46
1, 7200, Note_on_c, 0, 53, 42
1, 7217, Control_c, 0, 64, 0
1, 7303, Control_c, 0, 64, 127
1, 7320, Note_on_c, 0, 56, 0
1, 7320, Note_on_c, 0, 59, 26
1, 7440, Note_on_c, 0, 59, 0
1, 7440, Note_on_c, 0, 61, 25
1, 7560, Note_on_c, 0, 61, 0
1, 7560, Note_on_c, 0, 68, 23
1, 7680, Note_on_c, 0, 68, 0
1, 7680, Note_on_c, 0, 53, 0
1, 7680, Note_on_c, 0, 73, 0
1, 7680, Note_on_c, 0, 69, 62
1, 7680, Note_on_c, 0, 54, 46
1, 7689, Control_c, 0, 64, 0
1, 7737, Control_c, 0, 64, 127
1, 7800, Note_on_c, 0, 57, 26
1, 7920, Note_on_c, 0, 57, 0
1, 7920, Note_on_c, 0, 61, 26
1, 8040, Note_on_c, 0, 61, 0
1, 8040, Note_on_c, 0, 64, 25
1, 8160, Note_on_c, 0, 64, 0
1, 8160, Note_on_c, 0, 54, 0
1, 8160, Note_on_c, 0, 69, 0
1, 8160, Note_on_c, 0, 71, 52
1, 8160, Note_on_c, 0, 54, 32
1, 8160, Note_on_c, 0, 47, 42
1, 8171, Control_c, 0, 64, 0
1, 8203, Control_c, 0, 64, 127
1, 8280, Note_on_c, 0, 54, 0
1, 8280, Note_on_c, 0, 57, 25
1, 8400, Note_on_c, 0, 57, 0
1, 8400, Note_on_c, 0, 71, 0
1, 8400, Note_on_c, 0, 66, 47
1, 8400, Note_on_c, 0, 59, 25
1, 8520, Note_on_c, 0, 59, 0
1, 8520, Note_on_c, 0, 63, 23
1, 8640, Tempo, 613811
1, 8640, Note_on_c, 0, 63, 0
1, 8640, Note_on_c, 0, 66, 0
1, 8640, Note_on_c, 0, 47, 0
1, 8640, Note_on_c, 0, 68, 52
1, 8640, Note_on_c, 0, 52, 42
1, 8654, Control_c, 0, 64, 0
1, 8697, Control_c, 0, 64, 127
1, 8760, Note_on_c, 0, 56, 25
1, 8880, Tempo, 634921
1, 8880, Note_on_c, 0, 56, 0
1, 8880, Note_on_c, 0, 68, 0
1, 8880, Note_on_c, 0, 69, 50
1, 8880, Note_on_c, 0, 59, 25
1, 8884, Control_c, 0, 64, 0
1, 8919, Control_c, 0, 64, 127
1, 8940, Note_on_c, 0, 69, 0
1, 8940, Note_on_c, 0, 68, 39
1, 9000, Note_on_c, 0, 68, 0
1, 9000, Note_on_c, 0, 59, 0
1, 9000, Note_on_c, 0, 66, 42
1, 9000, Note_on_c, 0, 64, 24
1, 9060, Tempo, 670391
1, 9060, Note_on_c, 0, 66, 0
1, 9060, Note_on_c, 0, 68, 34
1, 9120, Tempo, 638298
1, 9120, Note_on_c, 0, 68, 0
1, 9120, Note_on_c, 0, 64, 0
1, 9120, Note_on_c, 0, 52, 0
1, 9120, Note_on_c, 0, 71, 52
1, 9120, Note_on_c, 0, 52, 31
1, 9120, Note_on_c, 0, 45, 42
1, 9128, Control_c, 0, 64, 0
1, 9177, Control_c, 0, 64, 127
1, 9240, Note_on_c, 0, 52, 0
1, 9240, Note_on_c, 0, 54, 26
1, 9360, Tempo, 652174
1, 9360, Note_on_c, 0, 54, 0
1, 9360, Note_on_c, 0, 71, 0
1, 9360, Note_on_c, 0, 69, 52
1, 9360, Note_on_c, 0, 61, 25
1, 9480, Note_on_c, 0, 61, 0
1, 9480, Note_on_c, 0, 64, 23
1, 9600, Note_on_c, 0, 64, 0
1, 9600, Note_on_c, 0, 69, 0
1, 9600, Note_on_c, 0, 45, 0
1, 9600, Note_on_c, 0, 68, 52
1, 9600, Note_on_c, 0, 52, 35
1, 9600, Note_on_c, 0, 47, 46
1, 9608, Control_c, 0, 64, 0
1, 9706, Control_c, 0, 64, 127
1, 9720, Note_on_c, 0, 52, 0
1, 9720, Note_on_c, 0, 56, 26
1, 9840, Note_on_c, 0, 56, 0
1, 9840, Note_on_c, 0, 59, 26
1, 9960, Note_on_c, 0, 59, 0
1, 9960, Note_on_c, 0, 64, 25
1, 10080, Tempo, 658328
1, 10080, Note_on_c, 0, 64, 0
1, 10080, Note_on_c, 0, 52, 32
1, 10200, Note_on_c, 0, 52, 0
1, 10200, Note_on_c, 0, 56, 25
1, 10320, Note_on_c, 0, 56, 0
1, 10320, Note_on_c, 0, 59, 25
1, 10440, Tempo, 747384
1, 10440, Note_on_c, 0, 59, 0
1, 10440, Note_on_c, 0, 64, 23
1, 10560, Tempo, 665262
1, 10560, Note_on_c, 0, 64, 0
1, 10560, Note_on_c, 0, 47, 0
1, 10560, Note_on_c, 0, 68, 0
1, 10560, Note_on_c, 0, 66, 48
1, 10560, Note_on_c, 0, 51, 29
1, 10560, Note_on_c, 0, 47, 38
1, 10571, Control_c, 0, 64, 0
1, 10645, Control_c, 0, 64, 127
1, 10680, Note_on_c, 0, 51, 0
1, 10680, Note_on_c, 0, 54, 25
1, 10800, Note_on_c, 0, 54, 0
1, 10800, Note_on_c, 0, 47, 0
1, 10800, Note_on_c, 0, 66, 0
1, 10800, Note_on_c, 0, 59, 25
1, 10920, Note_on_c, 0, 59, 0
1, 10920, Note_on_c, 0, 63, 24
1, 11040, Tempo, 632111
1, 11040, Note_on_c, 0, 63, 0
1, 11040, Note_on_c, 0, 69, 51
1, 11040, Note_on_c, 0, 47, 31
1, 11040, Note_on_c, 0, 39, 42
1, 11042, Tempo, 641711
1, 11060, Control_c, 0, 64, 0
1, 11132, Control_c, 0, 64, 127
1, 11138, Tempo, 638298
1, 11160, Note_on_c, 0, 47, 0
1, 11160, Note_on_c, 0, 54, 27
1, 11215, Tempo, 634921
1, 11280, Note_on_c, 0, 54, 0
1, 11280, Note_on_c, 0, 57, 29
1, 11292, Tempo, 631579
1, 11369, Tempo, 628272
1, 11400, Note_on_c, 0, 57, 0
1, 11400, Note_on_c, 0, 59, 32
1, 11445, Tempo, 625000
1, 11520, Note_on_c, 0, 59, 0
1, 11520, Note_on_c, 0, 39, 0
1, 11520, Note_on_c, 0, 69, 0
1, 11520, Note_on_c, 0, 68, 57
1, 11520, Note_on_c, 0, 47, 40
1, 11520, Note_on_c, 0, 40, 46
1, 11522, Tempo, 621762
1, 11528, Control_c, 0, 64, 0
1, 11619, Control_c, 0, 64, 127
1, 11640, Note_on_c, 0, 47, 0
1, 11640, Note_on_c, 0, 52, 26
1, 11760, Note_on_c, 0, 52, 0
1, 11760, Note_on_c, 0, 56, 29
1, 11880, Note_on_c, 0, 56, 0
1, 11880, Note_on_c, 0, 59, 31
1, 12000, Tempo, 635324
1, 12000, Note_on_c, 0, 59, 0
1, 12000, Note_on_c, 0, 40, 0
1, 12000, Note_on_c, 0, 68, 0
1, 12000, Note_on_c, 0, 66, 48
1, 12000, Note_on_c, 0, 47, 38
1, 12000, Note_on_c, 0, 42, 42
1, 12018, Control_c, 0, 64, 0
1, 12099, Control_c, 0, 64, 127
1, 12120, Note_on_c, 0, 47, 0
1, 12120, Note_on_c, 0, 51, 25
1, 12240, Note_on_c, 0, 51, 0
1, 12240, Note_on_c, 0, 57, 30
1, 12360, Note_on_c, 0, 57, 0
1, 12360, Note_on_c, 0, 59, 26
1, 12480, Tempo, 644953
1, 12480, Note_on_c, 0, 59, 0
1, 12480, Note_on_c, 0, 42, 0
1, 12480, Note_on_c, 0, 66, 0
1, 12480, Note_on_c, 0, 64, 48
1, 12480, Note_on_c, 0, 47, 33
1, 12480, Note_on_c, 0, 44, 42
1, 12497, Control_c, 0, 64, 0
1, 12579, Control_c, 0, 64, 127
1, 12600, Note_on_c, 0, 47, 0
1, 12600, Note_on_c, 0, 52, 29
1, 12720, Note_on_c, 0, 52, 0
1, 12720, Note_on_c, 0, 56, 31
1, 12840, Tempo, 717875
1, 12840, Note_on_c, 0, 56, 0
1, 12840, Note_on_c, 0, 59, 36
1, 12930, Note_on_c, 0, 64, 0
1, 12960, Tempo, 619835
1, 12960, Note_on_c, 0, 59, 0
1, 12960, Note_on_c, 0, 44, 0
1, 12960, Note_on_c, 0, 76, 70
1, 12960, Note_on_c, 0, 54, 42
1, 12960, Note_on_c, 0, 46, 42
1, 12978, Control_c, 0, 64, 0
1, 13038, Control_c, 0, 64, 127
1, 13080, Note_on_c, 0, 54, 0
1, 13080, Note_on_c, 0, 61, 30
1, 13200, Note_on_c, 0, 61, 0
1, 13200, Note_on_c, 0, 64, 32
1, 13320, Note_on_c, 0, 64, 0
1, 13320, Note_on_c, 0, 66, 29
1, 13440, Tempo, 619835
1, 13440, Note_on_c, 0, 66, 0
1, 13440, Note_on_c, 0, 46, 0
1, 13440, Note_on_c, 0, 76, 0
1, 13440, Note_on_c, 0, 75, 71
1, 13440, Note_on_c, 0, 54, 35
1, 13440, Note_on_c, 0, 47, 46
1, 13458, Control_c, 0, 64, 0
1, 13492, Control_c, 0, 64, 127
1, 13560, Note_on_c, 0, 54, 0
1, 13560, Note_on_c, 0, 59, 26
1, 13680, Note_on_c, 0, 59, 0
1, 13680, Note_on_c, 0, 63, 26
1, 13800, Note_on_c, 0, 63, 0
1, 13800, Note_on_c, 0, 66, 25
1, 13920, Tempo, 632111
1, 13920, Note_on_c, 0, 66, 0
1, 13920, Note_on_c, 0, 47, 0
1, 13920, Note_on_c, 0, 75, 0
1, 13920, Note_on_c, 0, 73, 54
1, 13920, Note_on_c, 0, 54, 32
1, 13920, Note_on_c, 0, 49, 42
1, 13937, Control_c, 0, 64, 0
1, 14000, Control_c, 0, 64, 127
1, 14040, Note_on_c, 0, 54, 0
1, 14040, Note_on_c, 0, 58, 25
1, 14160, Note_on_c, 0, 58, 0
1, 14160, Note_on_c, 0, 64, 25
1, 14280, Note_on_c, 0, 64, 0
1, 14280, Note_on_c, 0, 66, 23
1, 14400, Note_on_c, 0, 66, 0
1, 14400, Note_on_c, 0, 49, 0
1, 14400, Note_on_c, 0, 73, 0
1, 14400, Note_on_c, 0, 71, 64
1, 14400, Note_on_c, 0, 54, 33
1, 14400, Note_on_c, 0, 51, 37
1, 14417, Control_c, 0, 64, 0
1, 14492, Control_c, 0, 64, 127
1, 14520, Note_on_c, 0, 54, 0
1, 14520, Note_on_c, 0, 59, 38
1, 14640, Note_on_c, 0, 59, 0
1, 14640, Note_on_c, 0, 63, 39
1, 14760, Tempo, 672269
1, 14760, Note_on_c, 0, 63, 0
1, 14760, Note_on_c, 0, 66, 48
1, 14850, Note_on_c, 0, 71, 0
1, 14880, Note_on_c, 0, 66, 0
1, 14880, Note_on_c, 0, 51, 0
1, 14880, Note_on_c, 0, 80, 78
1, 14880, Note_on_c, 0, 59, 54
1, 14880, Note_on_c, 0, 52, 42
1, 14904, Control_c, 0, 64, 0
1, 14960, Control_c, 0, 64, 127
1, 15000, Note_on_c, 0, 59, 0
1, 15000, Note_on_c, 0, 61, 35
1, 15120, Note_on_c, 0, 61, 0
1, 15120, Note_on_c, 0, 68, 40
1, 15240, Note_on_c, 0, 68, 0
1, 15240, Note_on_c, 0, 71, 33
1, 15360, Tempo, 654950
1, 15360, Note_on_c, 0, 71, 0
1, 15360, Note_on_c, 0, 52, 0
1, 15360, Note_on_c, 0, 80, 0
1, 15360, Note_on_c, 0, 73, 67
1, 15360, Note_on_c, 0, 59, 42
1, 15360, Note_on_c, 0, 49, 48
1, 15360, Control_c, 0, 64, 0
1, 15466, Control_c, 0, 64, 127
1, 15480, Note_on_c, 0, 59, 0
1, 15480, Note_on_c, 0, 61, 29
1, 15600, Note_on_c, 0, 61, 0
1, 15600, Note_on_c, 0, 68, 29
1, 15720, Note_on_c, 0, 68, 0
1, 15720, Note_on_c, 0, 71, 29
1, 15840, Tempo, 672269
1, 15840, Note_on_c, 0, 71, 0
1, 15840, Note_on_c, 0, 49, 0
1, 15840, Note_on_c, 0, 59, 38
1, 15840, Note_on_c, 0, 56, 54
1, 15960, Note_on_c, 0, 59, 0
1, 15960, Note_on_c, 0, 61, 26
1, 16080, Note_on_c, 0, 61, 0
1, 16080, Note_on_c, 0, 68, 26
1, 16200, Note_on_c, 0, 68, 0
1, 16200, Note_on_c, 0, 71, 26
1, 16320, Tempo, 675828
1, 16320, Note_on_c, 0, 71, 0
1, 16320, Note_on_c, 0, 56, 0
1, 16320, Note_on_c, 0, 59, 35
1, 16320, Note_on_c, 0, 52, 49
1, 16338, Control_c, 0, 64, 0
1, 16440, Note_on_c, 0, 59, 0
1, 16440, Note_on_c, 0, 61, 27
1, 16454, Control_c, 0, 64, 127
1, 16560, Note_on_c, 0, 61, 0
1, 16560, Note_on_c, 0, 68, 27
1, 16680, Note_on_c, 0, 68, 0
1, 16680, Note_on_c, 0, 71, 27
1, 16790, Note_on_c, 0, 73, 0
1, 16800, Tempo, 690528
1, 16800, Note_on_c, 0, 71, 0
1, 16800, Note_on_c, 0, 80, 54
1, 16800, Note_on_c, 0, 59, 35
1, 16824, Control_c, 0, 64, 0
1, 16880, Control_c, 0, 64, 127
1, 16920, Note_on_c, 0, 59, 0
1, 16920, Note_on_c, 0, 61, 18
1, 17040, Note_on_c, 0, 61, 0
1, 17040, Note_on_c, 0, 68, 19
1, 17160, Note_on_c, 0, 68, 0
1, 17160, Note_on_c, 0, 71, 20
1, 17280, Tempo, 702001
1, 17280, Note_on_c, 0, 71, 0
1, 17280, Note_on_c, 0, 80, 0
1, 17280, Note_on_c, 0, 73, 47
1, 17280, Note_on_c, 0, 59, 29
1, 17280, Control_c, 0, 64, 0
1, 17386, Control_c, 0, 64, 127
1, 17400, Note_on_c, 0, 59, 0
1, 17400, Note_on_c, 0, 61, 20
1, 17520, Note_on_c, 0, 61, 0
1, 17520, Note_on_c, 0, 68, 20
1, 17640, Note_on_c, 0, 68, 0
1, 17640, Note_on_c, 0, 71, 20
1, 17760, Tempo, 722892
1, 17760, Note_on_c, 0, 71, 0
1, 17760, Note_on_c, 0, 52, 0
1, 17760, Note_on_c, 0, 59, 26
1, 17760, Note_on_c, 0, 56, 37
1, 17880, Note_on_c, 0, 59, 0
1, 17880, Note_on_c, 0, 61, 18
1, 18000, Note_on_c, 0, 61, 0
1, 18000, Note_on_c, 0, 68, 18
1, 18120, Tempo, 760842
1, 18120, Note_on_c, 0, 68, 0
1, 18120, Note_on_c, 0, 71, 18
1, 18240, Tempo, 698162
1, 18240, Note_on_c, 0, 71, 0
1, 18240, Note_on_c, 0, 56, 0
1, 18240, Note_on_c, 0, 59, 24
1, 18240, Note_on_c, 0, 53, 34
1, 18258, Control_c, 0, 64, 0
1, 18360, Note_on_c, 0, 59, 0
1, 18360, Note_on_c, 0, 61, 18
1, 18374, Control_c, 0, 64, 127
1, 18480, Note_on_c, 0, 61, 0
1, 18480, Note_on_c, 0, 68, 18
1, 18600, Note_on_c, 0, 68, 0
1, 18600, Note_on_c, 0, 71, 18
1, 18710, Note_on_c, 0, 73, 0
1, 18720, Tempo, 632111
1, 18720, Note_on_c, 0, 71, 0
1, 18720, Note_on_c, 0, 73, 61
1, 18720, Note_on_c, 0, 59, 31
1, 18722, Tempo, 666667
1, 18737, Control_c, 0, 64, 0
1, 18780, Tempo, 662983
1, 18818, Tempo, 659341
1, 18823, Control_c, 0, 64, 127
1, 18840, Note_on_c, 0, 59, 0
1, 18840, Note_on_c, 0, 61, 26
1, 18876, Tempo, 655738
1, 18914, Tempo, 652174
1, 18960, Note_on_c, 0, 61, 0
1, 18960, Note_on_c, 0, 68, 25
1, 18972, Tempo, 648649
1, 19010, Tempo, 645161
1, 19068, Tempo, 641711
1, 19080, Note_on_c, 0, 68, 0
1, 19080, Note_on_c, 0, 71, 23
1, 19106, Tempo, 638298
1, 19164, Tempo, 634921
1, 19190, Note_on_c, 0, 73, 0
1, 19200, Note_on_c, 0, 71, 0
1, 19200, Note_on_c, 0, 53, 0
1, 19200, Note_on_c, 0, 73, 62
1, 19200, Note_on_c, 0, 58, 29
1, 19200, Note_on_c, 0, 54, 46
1, 19202, Tempo, 631579
1, 19209, Control_c, 0, 64, 0
1, 19257, Control_c, 0, 64, 127
1, 19320, Note_on_c, 0, 58, 0
1, 19320, Note_on_c, 0, 61, 25
1, 19440, Note_on_c, 0, 61, 0
1, 19440, Note_on_c, 0, 66, 29
1, 19560, Note_on_c, 0, 66, 0
1, 19560, Note_on_c, 0, 70, 25
1, 19680, Note_on_c, 0, 70, 0
1, 19680, Note_on_c, 0, 54, 0
1, 19680, Note_on_c, 0, 73, 0
1, 19680, Note_on_c, 0, 76, 57
1, 19680, Note_on_c, 0, 54, 32
1, 19680, Note_on_c, 0, 46, 42
1, 19691, Control_c, 0, 64, 0
1, 19723, Control_c, 0, 64, 127
1, 19800, Note_on_c, 0, 54, 0
1, 19800, Note_on_c, 0, 61, 25
1, 19920, Note_on_c, 0, 61, 0
1, 19920, Note_on_c, 0, 64, 25
1, 20040, Note_on_c, 0, 64, 0
1, 20040, Note_on_c, 0, 66, 23
1, 20160, Tempo, 619835
1, 20160, Note_on_c, 0, 66, 0
1, 20160, Note_on_c, 0, 46, 0
1, 20160, Note_on_c, 0, 76, 0
1, 20160, Note_on_c, 0, 75, 50
1, 20160, Note_on_c, 0, 54, 29
1, 20160, Note_on_c, 0, 47, 42
1, 20174, Control_c, 0, 64, 0
1, 20217, Control_c, 0, 64, 127
1, 20280, Note_on_c, 0, 54, 0
1, 20280, Note_on_c, 0, 59, 25
1, 20400, Tempo, 635324
1, 20400, Note_on_c, 0, 59, 0
1, 20400, Note_on_c, 0, 63, 25
1, 20460, Tempo, 641711
1, 20520, Note_on_c, 0, 63, 0
1, 20520, Note_on_c, 0, 66, 24
1, 20580, Tempo, 751880
1, 20640, Tempo, 654950
1, 20640, Note_on_c, 0, 66, 0
1, 20640, Note_on_c, 0, 47, 0
1, 20640, Note_on_c, 0, 75, 0
1, 20640, Note_on_c, 0, 73, 50
1, 20640, Note_on_c, 0, 52, 42
1, 20662, Control_c, 0, 64, 0
1, 20697, Control_c, 0, 64, 127
1, 20760, Note_on_c, 0, 56, 26
1, 20880, Note_on_c, 0, 56, 0
1, 20880, Note_on_c, 0, 73, 0
1, 20880, Note_on_c, 0, 68, 43
1, 20880, Note_on_c, 0, 61, 25
1, 21000, Tempo, 717875
1, 21000, Note_on_c, 0, 61, 0
1, 21000, Note_on_c, 0, 64, 23
1, 21120, Tempo, 658328
1, 21120, Note_on_c, 0, 64, 0
1, 21120, Note_on_c, 0, 68, 0
1, 21120, Note_on_c, 0, 52, 0
1, 21120, Note_on_c, 0, 71, 49
1, 21120, Note_on_c, 0, 54, 46
1, 21128, Control_c, 0, 64, 0
1, 21226, Control_c, 0, 64, 127
1, 21240, Note_on_c, 0, 59, 26
1, 21360, Note_on_c, 0, 59, 0
1, 21360, Note_on_c, 0, 63, 26
1, 21480, Note_on_c, 0, 63, 0
1, 21480, Note_on_c, 0, 66, 25
1, 21600, Tempo, 658328
1, 21600, Note_on_c, 0, 66, 0
1, 21600, Note_on_c, 0, 54, 0
1, 21600, Note_on_c, 0, 54, 32
1, 21720, Note_on_c, 0, 54, 0
1, 21720, Note_on_c, 0, 59, 25
1, 21840, Note_on_c, 0, 59, 0
1, 21840, Note_on_c, 0, 63, 25
1, 21960, Tempo, 747384
1, 21960, Note_on_c, 0, 63, 0
1, 21960, Note_on_c, 0, 66, 23
1, 22080, Tempo, 665262
1, 22080, Note_on_c, 0, 66, 0
1, 22080, Note_on_c, 0, 71, 0
1, 22080, Note_on_c, 0, 70, 44
1, 22080, Note_on_c, 0, 54, 29
1, 22091, Control_c, 0, 64, 0
1, 22165, Control_c, 0, 64, 127
1, 22200, Note_on_c, 0, 54, 0
1, 22200, Note_on_c, 0, 61, 31
1, 22320, Note_on_c, 0, 61, 0
1, 22320, Note_on_c, 0, 64, 38
1, 22440, Note_on_c, 0, 64, 0
1, 22440, Note_on_c, 0, 66, 44
1, 22560, Note_on_c, 0, 66, 0
1, 22560, Note_on_c, 0, 54, 49
1, 22560, Note_on_c, 0, 42, 38
1, 22680, Note_on_c, 0, 54, 0
1, 22680, Note_on_c, 0, 61, 33
1, 22800, Note_on_c, 0, 61, 0
1, 22800, Note_on_c, 0, 64, 41
1, 22920, Note_on_c, 0, 64, 0
1, 22920, Note_on_c, 0, 66, 31
1, 23040, Tempo, 658328
1, 23040, Note_on_c, 0, 66, 0
1, 23040, Note_on_c, 0, 70, 0
1, 23040, Note_on_c, 0, 69, 43
1, 23040, Note_on_c, 0, 54, 32
1, 23048, Control_c, 0, 64, 0
1, 23146, Control_c, 0, 64, 127
1, 23160, Note_on_c, 0, 54, 0
1, 23160, Note_on_c, 0, 60, 26
1, 23280, Note_on_c, 0, 60, 0
1, 23280, Note_on_c, 0, 63, 30
1, 23400, Note_on_c, 0, 63, 0
1, 23400, Note_on_c, 0, 66, 38
1, 23520, Tempo, 658328
1, 23520, Note_on_c, 0, 66, 0
1, 23520, Note_on_c, 0, 42, 0
1, 23520, Note_on_c, 0, 54, 41
1, 23520, Note_on_c, 0, 42, 40
1, 23640, Note_on_c, 0, 54, 0
1, 23640, Note_on_c, 0, 60, 25
1, 23760, Note_on_c, 0, 60, 0
1, 23760, Note_on_c, 0, 63, 25
1, 23880, Tempo, 747384
1, 23880, Note_on_c, 0, 63, 0
1, 23880, Note_on_c, 0, 66, 23
1, 24000, Tempo, 665262
1, 24000, Note_on_c, 0, 66, 0
1, 24000, Note_on_c, 0, 42, 0
1, 24000, Note_on_c, 0, 69, 0
1, 24000, Note_on_c, 0, 68, 36
1, 24000, Note_on_c, 0, 52, 29
1, 24000, Note_on_c, 0, 40, 34
1, 24011, Control_c, 0, 64, 0
1, 24085, Control_c, 0, 64, 127
1, 24120, Note_on_c, 0, 52, 0
1, 24120, Note_on_c, 0, 56, 25
1, 24240, Note_on_c, 0, 56, 0
1, 24240, Note_on_c, 0, 68, 0
1, 24240, Note_on_c, 0, 61, 25
1, 24360, Note_on_c, 0, 61, 0
1, 24360, Note_on_c, 0, 64, 24
1, 24470, Note_on_c, 0, 64, 0
1, 24480, Tempo, 632111
1, 24480, Note_on_c, 0, 40, 0
1, 24480, Note_on_c, 0, 68, 63
1, 24480, Note_on_c, 0, 52, 31
1, 24480, Note_on_c, 0, 39, 39
1, 24497, Control_c, 0, 64, 0
1, 24583, Control_c, 0, 64, 127
1, 24600, Note_on_c, 0, 52, 0
1, 24600, Note_on_c, 0, 56, 30
1, 24720, Note_on_c, 0, 56, 0
1, 24720, Note_on_c, 0, 61, 33
1, 24840, Note_on_c, 0, 61, 0
1, 24840, Note_on_c, 0, 64, 38
1, 24960, Note_on_c, 0, 64, 0
1, 24960, Note_on_c, 0, 39, 0
1, 24960, Note_on_c, 0, 68, 0
1, 24960, Note_on_c, 0, 70, 70
1, 24960, Note_on_c, 0, 52, 45
1, 24960, Note_on_c, 0, 37, 48
1, 24969, Control_c, 0, 64, 0
1, 25017, Control_c, 0, 64, 127
1, 25080, Note_on_c, 0, 52, 0
1, 25080, Note_on_c, 0, 58, 30
1, 25200, Note_on_c, 0, 58, 0
1, 25200, Note_on_c, 0, 64, 32
1, 25320, Note_on_c, 0, 64, 0
1, 25320, Note_on_c, 0, 66, 41
1, 25440, Note_on_c, 0, 66, 0
1, 25440, Note_on_c, 0, 37, 0
1, 25440, Note_on_c, 0, 70, 0
1, 25440, Note_on_c, 0, 71, 81
1, 25440, Note_on_c, 0, 52, 46
1, 25440, Note_on_c, 0, 47, 53
1, 25451, Control_c, 0, 64, 0
1, 25483, Control_c, 0, 64, 127
1, 25560, Note_on_c, 0, 52, 0
1, 25560, Note_on_c, 0, 59, 33
1, 25680, Note_on_c, 0, 59, 0
1, 25680, Note_on_c, 0, 64, 43
1, 25800, Note_on_c, 0, 64, 0
1, 25800, Note_on_c, 0, 66, 53
1, 25920, Tempo, 622859
1, 25920, Note_on_c, 0, 66, 0
1, 25920, Note_on_c, 0, 47, 0
1, 25920, Note_on_c, 0, 71, 0
1, 25920, Note_on_c, 0, 75, 89
1, 25920, Note_on_c, 0, 54, 58
1, 25920, Note_on_c, 0, 46, 57
1, 25934, Control_c, 0, 64, 0
1, 25977, Control_c, 0, 64, 127
1, 26040, Note_on_c, 0, 54, 0
1, 26040, Note_on_c, 0, 61, 40
1, 26160, Tempo, 635324
1, 26160, Note_on_c, 0, 61, 0
1, 26160, Note_on_c, 0, 64, 46
1, 26220, Tempo, 641711
1, 26280, Note_on_c, 0, 64, 0
1, 26280, Note_on_c, 0, 66, 38
1, 26340, Tempo, 751880
1, 26400, Tempo, 654950
1, 26400, Note_on_c, 0, 66, 0
1, 26400, Note_on_c, 0, 46, 0
1, 26400, Note_on_c, 0, 75, 0
1, 26400, Note_on_c, 0, 73, 75
1, 26400, Note_on_c, 0, 54, 40
1, 26400, Note_on_c, 0, 42, 62
1, 26422, Control_c, 0, 64, 0
1, 26457, Control_c, 0, 64, 127
1, 26520, Note_on_c, 0, 54, 0
1, 26520, Note_on_c, 0, 58, 32
1, 26640, Note_on_c, 0, 58, 0
1, 26640, Note_on_c, 0, 64, 31
1, 26760, Tempo, 717875
1, 26760, Note_on_c, 0, 64, 0
1, 26760, Note_on_c, 0, 73, 0
1, 26760, Note_on_c, 0, 71, 67
1, 26760, Note_on_c, 0, 66, 28
1, 26870, Note_on_c, 0, 71, 0
1, 26880, Tempo, 658328
1, 26880, Note_on_c, 0, 66, 0
1, 26880, Note_on_c, 0, 42, 0
1, 26880, Note_on_c, 0, 71, 80
1, 26880, Note_on_c, 0, 54, 36
1, 26880, Note_on_c, 0, 47, 55
1, 26888, Control_c, 0, 64, 0
1, 26986, Control_c, 0, 64, 127
1, 27000, Note_on_c, 0, 54, 0
1, 27000, Note_on_c, 0, 59, 32
1, 27120, Note_on_c, 0, 59, 0
1, 27120, Note_on_c, 0, 63, 32
1, 27240, Note_on_c, 0, 63, 0
1, 27240, Note_on_c, 0, 66, 31
1, 27360, Tempo, 658328
1, 27360, Note_on_c, 0, 66, 0
1, 27360, Note_on_c, 0, 54, 40
1, 27480, Note_on_c, 0, 54, 0
1, 27480, Note_on_c, 0, 59, 31
1, 27600, Note_on_c, 0, 59, 0
1, 27600, Note_on_c, 0, 63, 31
1, 27720, Tempo, 747384
1, 27720, Note_on_c, 0, 63, 0
1, 27720, Note_on_c, 0, 66, 28
1, 27840, Tempo, 665262
1, 27840, Note_on_c, 0, 66, 0
1, 27840, Note_on_c, 0, 71, 0
1, 27840, Note_on_c, 0, 51, 36
1, 27960, Note_on_c, 0, 51, 0
1, 27960, Note_on_c, 0, 54, 31
1, 28080, Note_on_c, 0, 54, 0
1, 28080, Note_on_c, 0, 59, 31
1, 28200, Note_on_c, 0, 59, 0
1, 28200, Note_on_c, 0, 63, 30
1, 28320, Tempo, 632111
1, 28320, Note_on_c, 0, 63, 0
1, 28320, Note_on_c, 0, 47, 0
1, 28320, Note_on_c, 0, 69, 51
1, 28320, Note_on_c, 0, 47, 31
1, 28323, Control_c, 0, 64, 0
1, 28340, Control_c, 0, 64, 0
1, 28412, Control_c, 0, 64, 127
1, 28440, Note_on_c, 0, 47, 0
1, 28440, Note_on_c, 0, 51, 26
1, 28560, Note_on_c, 0, 51, 0
1, 28560, Note_on_c, 0, 54, 32
1, 28680, Note_on_c, 0, 54, 0
1, 28680, Note_on_c, 0, 59, 34
1, 28800, Tempo, 619835
1, 28800, Marker_t, "Teil 1 Wiederholung"
1, 28800, Note_on_c, 0, 59, 0
1, 28800, Note_on_c, 0, 69, 0
1, 28800, Note_on_c, 0, 68, 57
1, 28800, Note_on_c, 0, 47, 40
1, 28800, Note_on_c, 0, 40, 46
1, 28808, Control_c, 0, 64, 0
1, 28899, Control_c, 0, 64, 127
1, 28920, Note_on_c, 0, 47, 0
1, 28920, Note_on_c, 0, 52, 26
1, 29040, Note_on_c, 0, 52, 0
1, 29040, Note_on_c, 0, 56, 26
1, 29160, Note_on_c, 0, 56, 0
1, 29160, Note_on_c, 0, 59, 25
1, 29280, Tempo, 635324
1, 29280, Note_on_c, 0, 59, 0
1, 29280, Note_on_c, 0, 40, 0
1, 29280, Note_on_c, 0, 68, 0
1, 29280, Note_on_c, 0, 66, 48
1, 29280, Note_on_c, 0, 47, 32
1, 29280, Note_on_c, 0, 42, 42
1, 29298, Control_c, 0, 64, 0
1, 29379, Control_c, 0, 64, 127
1, 29400, Note_on_c, 0, 47, 0
1, 29400, Note_on_c, 0, 51, 25
1, 29520, Note_on_c, 0, 51, 0
1, 29520, Note_on_c, 0, 57, 25
1, 29640, Note_on_c, 0, 57, 0
1, 29640, Note_on_c, 0, 59, 23
1, 29760, Tempo, 644953
1, 29760, Note_on_c, 0, 59, 0
1, 29760, Note_on_c, 0, 42, 0
1, 29760, Note_on_c, 0, 66, 0
1, 29760, Note_on_c, 0, 64, 48
1, 29760, Note_on_c, 0, 47, 33
1, 29760, Note_on_c, 0, 44, 42
1, 29777, Control_c, 0, 64, 0
1, 29859, Control_c, 0, 64, 127
1, 29880, Note_on_c, 0, 47, 0
1, 29880, Note_on_c, 0, 52, 27
1, 30000, Note_on_c, 0, 52, 0
1, 30000, Note_on_c, 0, 56, 34
1, 30120, Tempo, 688152
1, 30120, Note_on_c, 0, 56, 0
1, 30120, Note_on_c, 0, 59, 44
1, 30210, Note_on_c, 0, 64, 0
1, 30240, Tempo, 630318
1, 30240, Note_on_c, 0, 59, 0
1, 30240, Note_on_c, 0, 44, 0
1, 30240, Note_on_c, 0, 76, 66
1, 30240, Note_on_c, 0, 54, 53
1, 30240, Note_on_c, 0, 46, 42
1, 30258, Control_c, 0, 64, 0
1, 30318, Control_c, 0, 64, 127
1, 30360, Note_on_c, 0, 54, 0
1, 30360, Note_on_c, 0, 61, 31
1, 30480, Note_on_c, 0, 61, 0
1, 30480, Note_on_c, 0, 64, 39
1, 30600, Note_on_c, 0, 64, 0
1, 30600, Note_on_c, 0, 66, 23
1, 30682, Tempo, 628272
1, 30720, Note_on_c, 0, 66, 0
1, 30720, Note_on_c, 0, 46, 0
1, 30720, Note_on_c, 0, 76, 0
1, 30720, Note_on_c, 0, 75, 62
1, 30720, Note_on_c, 0, 54, 35
1, 30720, Note_on_c, 0, 47, 46
1, 30738, Control_c, 0, 64, 0
1, 30772, Control_c, 0, 64, 127
1, 30797, Tempo, 625000
1, 30840, Note_on_c, 0, 54, 0
1, 30840, Note_on_c, 0, 59, 26
1, 30912, Tempo, 621762
1, 30960, Note_on_c, 0, 59, 0
1, 30960, Note_on_c, 0, 63, 26
1, 31027, Tempo, 618557
1, 31080, Note_on_c, 0, 63, 0
1, 31080, Note_on_c, 0, 66, 25
1, 31143, Tempo, 615385
1, 31200, Tempo, 632111
1, 31200, Note_on_c, 0, 66, 0
1, 31200, Note_on_c, 0, 47, 0
1, 31200, Note_on_c, 0, 75, 0
1, 31200, Note_on_c, 0, 73, 52
1, 31200, Note_on_c, 0, 54, 32
1, 31200, Note_on_c, 0, 49, 42
1, 31217, Control_c, 0, 64, 0
1, 31280, Control_c, 0, 64, 127
1, 31320, Note_on_c, 0, 54, 0
1, 31320, Note_on_c, 0, 58, 25
1, 31440, Note_on_c, 0, 58, 0
1, 31440, Note_on_c, 0, 64, 25
1, 31560, Note_on_c, 0, 64, 0
1, 31560, Note_on_c, 0, 66, 23
1, 31680, Note_on_c, 0, 66, 0
1, 31680, Note_on_c, 0, 49, 0
1, 31680, Note_on_c, 0, 73, 0
1, 31680, Note_on_c, 0, 71, 52
1, 31680, Note_on_c, 0, 54, 33
1, 31680, Note_on_c, 0, 51, 37
1, 31697, Control_c, 0, 64, 0
1, 31721, Tempo, 628272
1, 31772, Control_c, 0, 64, 127
1, 31778, Tempo, 631579
1, 31800, Note_on_c, 0, 54, 0
1, 31800, Note_on_c, 0, 59, 27
1, 31836, Tempo, 634921
1, 31874, Tempo, 638298
1, 31920, Note_on_c, 0, 59, 0
1, 31920, Note_on_c, 0, 63, 33
1, 31932, Tempo, 641711
1, 31989, Tempo, 645161
1, 32028, Tempo, 648649
1, 32040, Tempo, 690528
1, 32040, Note_on_c, 0, 63, 0
1, 32040, Note_on_c, 0, 66, 40
1, 32130, Note_on_c, 0, 71, 0
1, 32160, Tempo, 632111
1, 32160, Note_on_c, 0, 66, 0
1, 32160, Note_on_c, 0, 51, 0
1, 32160, Note_on_c, 0, 73, 61
1, 32160, Note_on_c, 0, 56, 46
1, 32160, Note_on_c, 0, 53, 42
1, 32177, Control_c, 0, 64, 0
1, 32263, Control_c, 0, 64, 127
1, 32280, Note_on_c, 0, 56, 0
1, 32280, Note_on_c, 0, 59, 26
1, 32400, Note_on_c, 0, 59, 0
1, 32400, Note_on_c, 0, 61, 25
1, 32520, Note_on_c, 0, 61, 0
1, 32520, Note_on_c, 0, 68, 23
1, 32640, Note_on_c, 0, 68, 0
1, 32640, Note_on_c, 0, 53, 0
1, 32640, Note_on_c, 0, 73, 0
1, 32640, Note_on_c, 0, 69, 62
1, 32640, Note_on_c, 0, 54, 46
1, 32649, Control_c, 0, 64, 0
1, 32697, Control_c, 0, 64, 127
1, 32760, Note_on_c, 0, 57, 26
1, 32880, Note_on_c, 0, 57, 0
1, 32880, Note_on_c, 0, 61, 26
1, 33000, Note_on_c, 0, 61, 0
1, 33000, Note_on_c, 0, 64, 25
1, 33120, Note_on_c, 0, 64, 0
1, 33120, Note_on_c, 0, 54, 0
1, 33120, Note_on_c, 0, 69, 0
1, 33120, Note_on_c, 0, 71, 52
1, 33120, Note_on_c, 0, 54, 32
1, 33120, Note_on_c, 0, 47, 42
1, 33131, Control_c, 0, 64, 0
1, 33163, Control_c, 0, 64, 127
1, 33240, Note_on_c, 0, 54, 0
1, 33240, Note_on_c, 0, 57, 25
1, 33360, Note_on_c, 0, 57, 0
1, 33360, Note_on_c, 0, 71, 0
1, 33360, Note_on_c, 0, 66, 47
1, 33360, Note_on_c, 0, 59, 25
1, 33480, Note_on_c, 0, 59, 0
1, 33480, Note_on_c, 0, 63, 23
1, 33600, Tempo, 613811
1, 33600, Note_on_c, 0, 63, 0
1, 33600, Note_on_c, 0, 66, 0
1, 33600, Note_on_c, 0, 47, 0
1, 33600, Note_on_c, 0, 68, 52
1, 33600, Note_on_c, 0, 52, 42
1, 33614, Control_c, 0, 64, 0
1, 33657, Control_c, 0, 64, 127
1, 33720, Note_on_c, 0, 56, 25
1, 33840, Tempo, 634921
1, 33840, Note_on_c, 0, 56, 0
1, 33840, Note_on_c, 0, 68, 0
1, 33840, Note_on_c, 0, 69, 50
1, 33840, Note_on_c, 0, 59, 25
1, 33844, Control_c, 0, 64, 0
1, 33879, Control_c, 0, 64, 127
1, 33900, Note_on_c, 0, 69, 0
1, 33900, Note_on_c, 0, 68, 39
1, 33960, Note_on_c, 0, 68, 0
1, 33960, Note_on_c, 0, 59, 0
1, 33960, Note_on_c, 0, 66, 42
1, 33960, Note_on_c, 0, 64, 24
1, 34020, Tempo, 670391
1, 34020, Note_on_c, 0, 66, 0
1, 34020, Note_on_c, 0, 68, 34
1, 34080, Tempo, 638298
1, 34080, Note_on_c, 0, 68, 0
1, 34080, Note_on_c, 0, 64, 0
1, 34080, Note_on_c, 0, 52, 0
1, 34080, Note_on_c, 0, 71, 52
1, 34080, Note_on_c, 0, 52, 31
1, 34080, Note_on_c, 0, 45, 42
1, 34088, Control_c, 0, 64, 0
1, 34137, Control_c, 0, 64, 127
1, 34200, Note_on_c, 0, 52, 0
1, 34200, Note_on_c, 0, 54, 26
1, 34320, Tempo, 652174
1, 34320, Note_on_c, 0, 54, 0
1, 34320, Note_on_c, 0, 71, 0
1, 34320, Note_on_c, 0, 69, 52
1, 34320, Note_on_c, 0, 61, 25
1, 34440, Note_on_c, 0, 61, 0
1, 34440, Note_on_c, 0, 64, 23
1, 34560, Tempo, 657967
1, 34560, Note_on_c, 0, 64, 0
1, 34560, Note_on_c, 0, 69, 0
1, 34560, Note_on_c, 0, 45, 0
1, 34560, Note_on_c, 0, 68, 52
1, 34560, Note_on_c, 0, 52, 35
1, 34560, Note_on_c, 0, 47, 46
1, 34568, Control_c, 0, 64, 0
1, 34666, Control_c, 0, 64, 127
1, 34680, Note_on_c, 0, 52, 0
1, 34680, Note_on_c, 0, 56, 26
1, 34800, Note_on_c, 0, 56, 0
1, 34800, Note_on_c, 0, 59, 26
1, 34920, Note_on_c, 0, 59, 0
1, 34920, Note_on_c, 0, 64, 25
1, 35040, Tempo, 658328
1, 35040, Note_on_c, 0, 64, 0
1, 35040, Note_on_c, 0, 52, 32
1, 35160, Note_on_c, 0, 52, 0
1, 35160, Note_on_c, 0, 56, 25
1, 35280, Note_on_c, 0, 56, 0
1, 35280, Note_on_c, 0, 59, 25
1, 35400, Tempo, 747384
1, 35400, Note_on_c, 0, 59, 0
1, 35400, Note_on_c, 0, 64, 23
1, 35520, Tempo, 665262
1, 35520, Note_on_c, 0, 64, 0
1, 35520, Note_on_c, 0, 47, 0
1, 35520, Note_on_c, 0, 68, 0
1, 35520, Note_on_c, 0, 66, 48
1, 35520, Note_on_c, 0, 51, 29
1, 35520, Note_on_c, 0, 47, 38
1, 35531, Control_c, 0, 64, 0
1, 35605, Control_c, 0, 64, 127
1, 35640, Note_on_c, 0, 51, 0
1, 35640, Note_on_c, 0, 54, 25
1, 35760, Note_on_c, 0, 54, 0
1, 35760, Note_on_c, 0, 47, 0
1, 35760, Note_on_c, 0, 66, 0
1, 35760, Note_on_c, 0, 59, 25
1, 35880, Note_on_c, 0, 59, 0
1, 35880, Note_on_c, 0, 63, 24
1, 36000, Tempo, 632111
1, 36000, Note_on_c, 0, 63, 0
1, 36000, Note_on_c, 0, 69, 51
1, 36000, Note_on_c, 0, 47, 31
1, 36000, Note_on_c, 0, 39, 42
1, 36002, Tempo, 641711
1, 36020, Control_c, 0, 64, 0
1, 36092, Control_c, 0, 64, 127
1, 36098, Tempo, 638298
1, 36120, Note_on_c, 0, 47, 0
1, 36120, Note_on_c, 0, 54, 27
1, 36175, Tempo, 634921
1, 36240, Note_on_c, 0, 54, 0
1, 36240, Note_on_c, 0, 57, 29
1, 36252, Tempo, 631579
1, 36329, Tempo, 628272
1, 36360, Note_on_c, 0, 57, 0
1, 36360, Note_on_c, 0, 59, 32
1, 36405, Tempo, 625000
1, 36480, Note_on_c, 0, 59, 0
1, 36480, Note_on_c, 0, 39, 0
1, 36480, Note_on_c, 0, 69, 0
1, 36480, Note_on_c, 0, 68, 57
1, 36480, Note_on_c, 0, 47, 40
1, 36480, Note_on_c, 0, 40, 46
1, 36482, Tempo, 621762
1, 36488, Control_c, 0, 64, 0
1, 36579, Control_c, 0, 64, 127
1, 36600, Note_on_c, 0, 47, 0
1, 36600, Note_on_c, 0, 52, 26
1, 36720, Note_on_c, 0, 52, 0
1, 36720, Note_on_c, 0, 56, 29
1, 36840, Note_on_c, 0, 56, 0
1, 36840, Note_on_c, 0, 59, 31
1, 36960, Tempo, 635324
1, 36960, Note_on_c, 0, 59, 0
1, 36960, Note_on_c, 0, 40, 0
1, 36960, Note_on_c, 0, 68, 0
1, 36960, Note_on_c, 0, 66, 48
1, 36960, Note_on_c, 0, 47, 38
1, 36960, Note_on_c, 0, 42, 42
1, 36978, Control_c, 0, 64, 0
1, 37059, Control_c, 0, 64, 127
1, 37080, Note_on_c, 0, 47, 0
1, 37080, Note_on_c, 0, 51, 25
1, 37200, Note_on_c, 0, 51, 0
1, 37200, Note_on_c, 0, 57, 30
1, 37320, Note_on_c, 0, 57, 0
1, 37320, Note_on_c, 0, 59, 26
1, 37440, Tempo, 644953
1, 37440, Note_on_c, 0, 59, 0
1, 37440, Note_on_c, 0, 42, 0
1, 37440, Note_on_c, 0, 66, 0
1, 37440, Note_on_c, 0, 64, 48
1, 37440, Note_on_c, 0, 47, 33
1, 37440, Note_on_c, 0, 44, 42
1, 37457, Control_c, 0, 64, 0
1, 37539, Control_c, 0, 64, 127
1, 37560, Note_on_c, 0, 47, 0
1, 37560, Note_on_c, 0, 52, 29
1, 37680, Note_on_c, 0, 52, 0
1, 37680, Note_on_c, 0, 56, 31
1, 37800, Tempo, 717875
1, 37800, Note_on_c, 0, 56, 0
1, 37800, Note_on_c, 0, 59, 36
1, 37890, Note_on_c, 0, 64, 0
1, 37920, Tempo, 643846
1, 37920, Note_on_c, 0, 59, 0
1, 37920, Note_on_c, 0, 44, 0
1, 37920, Note_on_c, 0, 76, 70
1, 37920, Note_on_c, 0, 54, 42
1, 37920, Note_on_c, 0, 46, 42
1, 37938, Control_c, 0, 64, 0
1, 37998, Control_c, 0, 64, 127
1, 38040, Note_on_c, 0, 54, 0
1, 38040, Note_on_c, 0, 61, 30
1, 38160, Note_on_c, 0, 61, 0
1, 38160, Note_on_c, 0, 64, 32
1, 38280, Note_on_c, 0, 64, 0
1, 38280, Note_on_c, 0, 66, 29
1, 38400, Tempo, 614188
1, 38400, Note_on_c, 0, 66, 0
1, 38400, Note_on_c, 0, 46, 0
1, 38400, Note_on_c, 0, 76, 0
1, 38400, Note_on_c, 0, 75, 71
1, 38400, Note_on_c, 0, 54, 35
1, 38400, Note_on_c, 0, 47, 46
1, 38418, Control_c, 0, 64, 0
1, 38452, Control_c, 0, 64, 127
1, 38520, Note_on_c, 0, 54, 0
1, 38520, Note_on_c, 0, 59, 26
1, 38640, Note_on_c, 0, 59, 0
1, 38640, Note_on_c, 0, 63, 26
1, 38760, Note_on_c, 0, 63, 0
1, 38760, Note_on_c, 0, 66, 25
1, 38880, Tempo, 632111
1, 38880, Note_on_c, 0, 66, 0
1, 38880, Note_on_c, 0, 47, 0
1, 38880, Note_on_c, 0, 75, 0
1, 38880, Note_on_c, 0, 73, 54
1, 38880, Note_on_c, 0, 54, 32
1, 38880, Note_on_c, 0, 49, 42
1, 38897, Control_c, 0, 64, 0
1, 38960, Control_c, 0, 64, 127
1, 39000, Note_on_c, 0, 54, 0
1, 39000, Note_on_c, 0, 58, 25
1, 39120, Note_on_c, 0, 58, 0
1, 39120, Note_on_c, 0, 64, 25
1, 39240, Note_on_c, 0, 64, 0
1, 39240, Note_on_c, 0, 66, 23
1, 39360, Note_on_c, 0, 66, 0
1, 39360, Note_on_c, 0, 49, 0
1, 39360, Note_on_c, 0, 73, 0
1, 39360, Note_on_c, 0, 71, 64
1, 39360, Note_on_c, 0, 54, 33
1, 39360, Note_on_c, 0, 51, 37
1, 39377, Control_c, 0, 64, 0
1, 39452, Control_c, 0, 64, 127
1, 39480, Note_on_c, 0, 54, 0
1, 39480, Note_on_c, 0, 59, 38
1, 39600, Note_on_c, 0, 59, 0
1, 39600, Note_on_c, 0, 63, 39
1, 39720, Tempo, 672269
1, 39720, Note_on_c, 0, 63, 0
1, 39720, Note_on_c, 0, 66, 48
1, 39810, Note_on_c, 0, 71, 0
1, 39840, Note_on_c, 0, 66, 0
1, 39840, Note_on_c, 0, 51, 0
1, 39840, Note_on_c, 0, 80, 78
1, 39840, Note_on_c, 0, 59, 54
1, 39840, Note_on_c, 0, 52, 42
1, 39864, Control_c, 0, 64, 0
1, 39920, Control_c, 0, 64, 127
1, 39960, Note_on_c, 0, 59, 0
1, 39960, Note_on_c, 0, 61, 35
1, 40080, Note_on_c, 0, 61, 0
1, 40080, Note_on_c, 0, 68, 40
1, 40200, Note_on_c, 0, 68, 0
1, 40200, Note_on_c, 0, 71, 33
1, 40320, Tempo, 654950
1, 40320, Note_on_c, 0, 71, 0
1, 40320, Note_on_c, 0, 52, 0
1, 40320, Note_on_c, 0, 80, 0
1, 40320, Note_on_c, 0, 73, 67
1, 40320, Note_on_c, 0, 59, 42
1, 40320, Note_on_c, 0, 49, 48
1, 40320, Control_c, 0, 64, 0
1, 40426, Control_c, 0, 64, 127
1, 40440, Note_on_c, 0, 59, 0
1, 40440, Note_on_c, 0, 61, 29
1, 40560, Note_on_c, 0, 61, 0
1, 40560, Note_on_c, 0, 68, 29
1, 40680, Note_on_c, 0, 68, 0
1, 40680, Note_on_c, 0, 71, 29
1, 40800, Tempo, 672269
1, 40800, Note_on_c, 0, 71, 0
1, 40800, Note_on_c, 0, 49, 0
1, 40800, Note_on_c, 0, 59, 38
1, 40800, Note_on_c, 0, 56, 54
1, 40920, Note_on_c, 0, 59, 0
1, 40920, Note_on_c, 0, 61, 26
1, 41040, Note_on_c, 0, 61, 0
1, 41040, Note_on_c, 0, 68, 26
1, 41160, Note_on_c, 0, 68, 0
1, 41160, Note_on_c, 0, 71, 26
1, 41280, Tempo, 675828
1, 41280, Note_on_c, 0, 71, 0
1, 41280, Note_on_c, 0, 56, 0
1, 41280, Note_on_c, 0, 59, 35
1, 41280, Note_on_c, 0, 52, 49
1, 41298, Control_c, 0, 64, 0
1, 41400, Note_on_c, 0, 59, 0
1, 41400, Note_on_c, 0, 61, 27
1, 41414, Control_c, 0, 64, 127
1, 41520, Note_on_c, 0, 61, 0
1, 41520, Note_on_c, 0, 68, 27
1, 41640, Note_on_c, 0, 68, 0
1, 41640, Note_on_c, 0, 71, 27
1, 41730, Note_on_c, 0, 73, 0
1, 41760, Tempo, 690528
1, 41760, Note_on_c, 0, 71, 0
1, 41760, Note_on_c, 0, 80, 54
1, 41760, Note_on_c, 0, 59, 35
1, 41784, Control_c, 0, 64, 0
1, 41840, Control_c, 0, 64, 127
1, 41880, Note_on_c, 0, 59, 0
1, 41880, Note_on_c, 0, 61, 18
1, 42000, Note_on_c, 0, 61, 0
1, 42000, Note_on_c, 0, 68, 19
1, 42120, Note_on_c, 0, 68, 0
1, 42120, Note_on_c, 0, 71, 20
1, 42240, Tempo, 702001
1, 42240, Note_on_c, 0, 71, 0
1, 42240, Note_on_c, 0, 80, 0
1, 42240, Note_on_c, 0, 73, 47
1, 42240, Note_on_c, 0, 59, 29
1, 42240, Control_c, 0, 64, 0
1, 42346, Control_c, 0, 64, 127
1, 42360, Note_on_c, 0, 59, 0
1, 42360, Note_on_c, 0, 61, 20
1, 42480, Note_on_c, 0, 61, 0
1, 42480, Note_on_c, 0, 68, 20
1, 42600, Note_on_c, 0, 68, 0
1, 42600, Note_on_c, 0, 71, 20
1, 42720, Tempo, 722892
1, 42720, Note_on_c, 0, 71, 0
1, 42720, Note_on_c, 0, 52, 0
1, 42720, Note_on_c, 0, 59, 26
1, 42720, Note_on_c, 0, 56, 37
1, 42840, Note_on_c, 0, 59, 0
1, 42840, Note_on_c, 0, 61, 18
1, 42960, Note_on_c, 0, 61, 0
1, 42960, Note_on_c, 0, 68, 18
1, 43080, Tempo, 760842
1, 43080, Note_on_c, 0, 68, 0
1, 43080, Note_on_c, 0, 71, 18
1, 43200, Tempo, 698162
1, 43200, Note_on_c, 0, 71, 0
1, 43200, Note_on_c, 0, 56, 0
1, 43200, Note_on_c, 0, 59, 24
1, 43200, Note_on_c, 0, 53, 34
1, 43218, Control_c, 0, 64, 0
1, 43320, Note_on_c, 0, 59, 0
1, 43320, Note_on_c, 0, 61, 18
1, 43334, Control_c, 0, 64, 127
1, 43440, Note_on_c, 0, 61, 0
1, 43440, Note_on_c, 0, 68, 18
1, 43560, Note_on_c, 0, 68, 0
1, 43560, Note_on_c, 0, 71, 18
1, 43650, Note_on_c, 0, 73, 0
1, 43680, Tempo, 632111
1, 43680, Note_on_c, 0, 71, 0
1, 43680, Note_on_c, 0, 73, 56
1, 43680, Note_on_c, 0, 59, 31
1, 43682, Tempo, 666667
1, 43697, Control_c, 0, 64, 0
1, 43740, Tempo, 662983
1, 43778, Tempo, 659341
1, 43783, Control_c, 0, 64, 127
1, 43800, Note_on_c, 0, 59, 0
1, 43800, Note_on_c, 0, 61, 26
1, 43836, Tempo, 655738
1, 43874, Tempo, 652174
1, 43920, Note_on_c, 0, 61, 0
1, 43920, Note_on_c, 0, 68, 25
1, 43932, Tempo, 648649
1, 43970, Tempo, 645161
1, 44028, Tempo, 641711
1, 44040, Note_on_c, 0, 68, 0
1, 44040, Note_on_c, 0, 71, 23
1, 44066, Tempo, 638298
1, 44124, Tempo, 634921
1, 44150, Note_on_c, 0, 73, 0
1, 44160, Note_on_c, 0, 71, 0
1, 44160, Note_on_c, 0, 53, 0
1, 44160, Note_on_c, 0, 73, 62
1, 44160, Note_on_c, 0, 58, 29
1, 44160, Note_on_c, 0, 54, 46
1, 44162, Tempo, 631579
1, 44169, Control_c, 0, 64, 0
1, 44217, Control_c, 0, 64, 127
1, 44280, Note_on_c, 0, 58, 0
1, 44280, Note_on_c, 0, 61, 25
1, 44400, Note_on_c, 0, 61, 0
1, 44400, Note_on_c, 0, 66, 29
1, 44520, Note_on_c, 0, 66, 0
1, 44520, Note_on_c, 0, 70, 25
1, 44640, Note_on_c, 0, 70, 0
1, 44640, Note_on_c, 0, 54, 0
1, 44640, Note_on_c, 0, 73, 0
1, 44640, Note_on_c, 0, 76, 57
1, 44640, Note_on_c, 0, 54, 32
1, 44640, Note_on_c, 0, 46, 42
1, 44651, Control_c, 0, 64, 0
1, 44683, Control_c, 0, 64, 127
1, 44760, Note_on_c, 0, 54, 0
1, 44760, Note_on_c, 0, 61, 25
1, 44880, Note_on_c, 0, 61, 0
1, 44880, Note_on_c, 0, 64, 25
1, 45000, Note_on_c, 0, 64, 0
1, 45000, Note_on_c, 0, 66, 23
1, 45120, Tempo, 619835
1, 45120, Note_on_c, 0, 66, 0
1, 45120, Note_on_c, 0, 46, 0
1, 45120, Note_on_c, 0, 76, 0
1, 45120, Note_on_c, 0, 75, 51
1, 45120, Note_on_c, 0, 54, 29
1, 45120, Note_on_c, 0, 47, 42
1, 45134, Control_c, 0, 64, 0
1, 45177, Control_c, 0, 64, 127
1, 45240, Note_on_c, 0, 54, 0
1, 45240, Note_on_c, 0, 59, 25
1, 45360, Tempo, 635324
1, 45360, Note_on_c, 0, 59, 0
1, 45360, Note_on_c, 0, 63, 25
1, 45420, Tempo, 641711
1, 45480, Note_on_c, 0, 63, 0
1, 45480, Note_on_c, 0, 66, 24
1, 45540, Tempo, 751880
1, 45600, Tempo, 654950
1, 45600, Note_on_c, 0, 66, 0
1, 45600, Note_on_c, 0, 47, 0
1, 45600, Note_on_c, 0, 75, 0
1, 45600, Note_on_c, 0, 73, 50
1, 45600, Note_on_c, 0, 52, 42
1, 45622, Control_c, 0, 64, 0
1, 45657, Control_c, 0, 64, 127
1, 45720, Note_on_c, 0, 56, 26
1, 45840, Note_on_c, 0, 56, 0
1, 45840, Note_on_c, 0, 73, 0
1, 45840, Note_on_c, 0, 68, 44
1, 45840, Note_on_c, 0, 61, 25
1, 45960, Tempo, 717875
1, 45960, Note_on_c, 0, 61, 0
1, 45960, Note_on_c, 0, 64, 23
1, 46080, Tempo, 658328
1, 46080, Note_on_c, 0, 64, 0
1, 46080, Note_on_c, 0, 68, 0
1, 46080, Note_on_c, 0, 52, 0
1, 46080, Note_on_c, 0, 71, 50
1, 46080, Note_on_c, 0, 54, 46
1, 46088, Control_c, 0, 64, 0
1, 46186, Control_c, 0, 64, 127
1, 46200, Note_on_c, 0, 59, 26
1, 46320, Note_on_c, 0, 59, 0
1, 46320, Note_on_c, 0, 63, 26
1, 46440, Note_on_c, 0, 63, 0
1, 46440, Note_on_c, 0, 66, 25
1, 46560, Tempo, 658328
1, 46560, Note_on_c, 0, 66, 0
1, 46560, Note_on_c, 0, 54, 0
1, 46560, Note_on_c, 0, 54, 32
1, 46680, Note_on_c, 0, 54, 0
1, 46680, Note_on_c, 0, 59, 25
1, 46800, Note_on_c, 0, 59, 0
1, 46800, Note_on_c, 0, 63, 25
1, 46920, Tempo, 747384
1, 46920, Note_on_c, 0, 63, 0
1, 46920, Note_on_c, 0, 66, 23
1, 47040, Tempo, 665262
1, 47040, Note_on_c, 0, 66, 0
1, 47040, Note_on_c, 0, 71, 0
1, 47040, Note_on_c, 0, 70, 44
1, 47040, Note_on_c, 0, 54, 29
1, 47051, Control_c, 0, 64, 0
1, 47125, Control_c, 0, 64, 127
1, 47160, Note_on_c, 0, 54, 0
1, 47160, Note_on_c, 0, 61, 31
1, 47280, Note_on_c, 0, 61, 0
1, 47280, Note_on_c, 0, 64, 38
1, 47400, Note_on_c, 0, 64, 0
1, 47400, Note_on_c, 0, 66, 44
1, 47520, Note_on_c, 0, 66, 0
1, 47520, Note_on_c, 0, 54, 49
1, 47520, Note_on_c, 0, 42, 38
1, 47640, Note_on_c, 0, 54, 0
1, 47640, Note_on_c, 0, 61, 33
1, 47760, Note_on_c, 0, 61, 0
1, 47760, Note_on_c, 0, 64, 41
1, 47880, Note_on_c, 0, 64, 0
1, 47880, Note_on_c, 0, 66, 31
1, 48000, Tempo, 658328
1, 48000, Note_on_c, 0, 66, 0
1, 48000, Note_on_c, 0, 70, 0
1, 48000, Note_on_c, 0, 69, 43
1, 48000, Note_on_c, 0, 54, 32
1, 48008, Control_c, 0, 64, 0
1, 48106, Control_c, 0, 64, 127
1, 48120, Note_on_c, 0, 54, 0
1, 48120, Note_on_c, 0, 60, 26
1, 48240, Note_on_c, 0, 60, 0
1, 48240, Note_on_c, 0, 63, 30
1, 48360, Note_on_c, 0, 63, 0
1, 48360, Note_on_c, 0, 66, 38
1, 48480, Tempo, 658328
1, 48480, Note_on_c, 0, 66, 0
1, 48480, Note_on_c, 0, 42, 0
1, 48480, Note_on_c, 0, 54, 41
1, 48480, Note_on_c, 0, 42, 40
1, 48600, Note_on_c, 0, 54, 0
1, 48600, Note_on_c, 0, 60, 25
1, 48720, Note_on_c, 0, 60, 0
1, 48720, Note_on_c, 0, 63, 25
1, 48840, Tempo, 747384
1, 48840, Note_on_c, 0, 63, 0
1, 48840, Note_on_c, 0, 66, 23
1, 48960, Tempo, 665262
1, 48960, Note_on_c, 0, 66, 0
1, 48960, Note_on_c, 0, 42, 0
1, 48960, Note_on_c, 0, 69, 0
1, 48960, Note_on_c, 0, 68, 36
1, 48960, Note_on_c, 0, 52, 29
1, 48960, Note_on_c, 0, 40, 34
1, 48971, Control_c, 0, 64, 0
1, 49045, Control_c, 0, 64, 127
1, 49080, Note_on_c, 0, 52, 0
1, 49080, Note_on_c, 0, 56, 25
1, 49200, Note_on_c, 0, 56, 0
1, 49200, Note_on_c, 0, 68, 0
1, 49200, Note_on_c, 0, 61, 25
1, 49320, Note_on_c, 0, 61, 0
1, 49320, Note_on_c, 0, 64, 24
1, 49430, Note_on_c, 0, 64, 0
1, 49440, Tempo, 632111
1, 49440, Note_on_c, 0, 40, 0
1, 49440, Note_on_c, 0, 68, 63
1, 49440, Note_on_c, 0, 52, 31
1, 49440, Note_on_c, 0, 39, 39
1, 49457, Control_c, 0, 64, 0
1, 49543, Control_c, 0, 64, 127
1, 49560, Note_on_c, 0, 52, 0
1, 49560, Note_on_c, 0, 56, 30
1, 49680, Note_on_c, 0, 56, 0
1, 49680, Note_on_c, 0, 61, 33
1, 49800, Note_on_c, 0, 61, 0
1, 49800, Note_on_c, 0, 64, 38
1, 49920, Note_on_c, 0, 64, 0
1, 49920, Note_on_c, 0, 39, 0
1, 49920, Note_on_c, 0, 68, 0
1, 49920, Note_on_c, 0, 70, 70
1, 49920, Note_on_c, 0, 52, 45
1, 49920, Note_on_c, 0, 37, 48
1, 49929, Control_c, 0, 64, 0
1, 49977, Control_c, 0, 64, 127
1, 50040, Note_on_c, 0, 52, 0
1, 50040, Note_on_c, 0, 58, 30
1, 50160, Note_on_c, 0, 58, 0
1, 50160, Note_on_c, 0, 64, 32
1, 50280, Note_on_c, 0, 64, 0
1, 50280, Note_on_c, 0, 66, 41
1, 50400, Note_on_c, 0, 66, 0
1, 50400, Note_on_c, 0, 37, 0
1, 50400, Note_on_c, 0, 70, 0
1, 50400, Note_on_c, 0, 71, 81
1, 50400, Note_on_c, 0, 52, 46
1, 50400, Note_on_c, 0, 47, 53
1, 50411, Control_c, 0, 64, 0
1, 50443, Control_c, 0, 64, 127
1, 50520, Note_on_c, 0, 52, 0
1, 50520, Note_on_c, 0, 59, 33
1, 50640, Note_on_c, 0, 59, 0
1, 50640, Note_on_c, 0, 64, 43
1, 50760, Note_on_c, 0, 64, 0
1, 50760, Note_on_c, 0, 66, 53
1, 50880, Tempo, 622859
1, 50880, Note_on_c, 0, 66, 0
1, 50880, Note_on_c, 0, 47, 0
1, 50880, Note_on_c, 0, 71, 0
1, 50880, Note_on_c, 0, 75, 89
1, 50880, Note_on_c, 0, 54, 58
1, 50880, Note_on_c, 0, 46, 57
1, 50894, Control_c, 0, 64, 0
1, 50937, Control_c, 0, 64, 127
1, 51000, Note_on_c, 0, 54, 0
1, 51000, Note_on_c, 0, 61, 40
1, 51120, Tempo, 635324
1, 51120, Note_on_c, 0, 61, 0
1, 51120, Note_on_c, 0, 64, 46
1, 51180, Tempo, 641711
1, 51240, Note_on_c, 0, 64, 0
1, 51240, Note_on_c, 0, 66, 38
1, 51300, Tempo, 751880
1, 51360, Tempo, 654950
1, 51360, Note_on_c, 0, 66, 0
1, 51360, Note_on_c, 0, 46, 0
1, 51360, Note_on_c, 0, 75, 0
1, 51360, Note_on_c, 0, 73, 75
1, 51360, Note_on_c, 0, 54, 40
1, 51360, Note_on_c, 0, 42, 62
1, 51382, Control_c, 0, 64, 0
1, 51417, Control_c, 0, 64, 127
1, 51480, Note_on_c, 0, 54, 0
1, 51480, Note_on_c, 0, 58, 32
1, 51600, Note_on_c, 0, 58, 0
1, 51600, Note_on_c, 0, 64, 31
1, 51720, Tempo, 717875
1, 51720, Note_on_c, 0, 64, 0
1, 51720, Note_on_c, 0, 73, 0
1, 51720, Note_on_c, 0, 71, 67
1, 51720, Note_on_c, 0, 66, 28
1, 51830, Note_on_c, 0, 71, 0
1, 51840, Tempo, 658328
1, 51840, Note_on_c, 0, 66, 0
1, 51840, Note_on_c, 0, 42, 0
1, 51840, Note_on_c, 0, 71, 80
1, 51840, Note_on_c, 0, 54, 36
1, 51840, Note_on_c, 0, 47, 55
1, 51848, Control_c, 0, 64, 0
1, 51946, Control_c, 0, 64, 127
1, 51960, Note_on_c, 0, 54, 0
1, 51960, Note_on_c, 0, 59, 32
1, 52080, Note_on_c, 0, 59, 0
1, 52080, Note_on_c, 0, 63, 32
1, 52200, Note_on_c, 0, 63, 0
1, 52200, Note_on_c, 0, 66, 31
1, 52320, Tempo, 658328
1, 52320, Note_on_c, 0, 66, 0
1, 52320, Note_on_c, 0, 54, 40
1, 52440, Note_on_c, 0, 54, 0
1, 52440, Note_on_c, 0, 59, 31
1, 52560, Note_on_c, 0, 59, 0
1, 52560, Note_on_c, 0, 63, 31
1, 52680, Tempo, 747384
1, 52680, Note_on_c, 0, 63, 0
1, 52680, Note_on_c, 0, 66, 28
1, 52800, Tempo, 665262
1, 52800, Note_on_c, 0, 66, 0
1, 52800, Note_on_c, 0, 71, 0
1, 52800, Note_on_c, 0, 51, 36
1, 52920, Note_on_c, 0, 51, 0
1, 52920, Note_on_c, 0, 54, 31
1, 53040, Note_on_c, 0, 54, 0
1, 53040, Note_on_c, 0, 59, 31
1, 53160, Note_on_c, 0, 59, 0
1, 53160, Note_on_c, 0, 63, 30
1, 53280, Tempo, 595888
1, 53280, Note_on_c, 0, 63, 0
1, 53280, Note_on_c, 0, 47, 0
1, 53280, Note_on_c, 0, 66, 51
1, 53280, Note_on_c, 0, 51, 31
1, 53283, Control_c, 0, 64, 0
1, 53300, Control_c, 0, 64, 0
1, 53372, Control_c, 0, 64, 127
1, 53400, Note_on_c, 0, 51, 0
1, 53400, Note_on_c, 0, 54, 26
1, 53460, Note_on_c, 0, 66, 0
1, 53520, Tempo, 627025
1, 53520, Note_on_c, 0, 54, 0
1, 53520, Note_on_c, 0, 66, 51
1, 53520, Note_on_c, 0, 59, 32
1, 53640, Note_on_c, 0, 59, 0
1, 53640, Note_on_c, 0, 63, 34
1, 53700, Note_on_c, 0, 66, 0
1, 53760, Tempo, 619835
1, 53760, Marker_t, "Teil 2"
1, 53760, Note_on_c, 0, 63, 0
1, 53760, Note_on_c, 0, 67, 57
1, 53760, Note_on_c, 0, 47, 40
1, 53760, Note_on_c, 0, 40, 46
1, 53768, Control_c, 0, 64, 0
1, 53859, Control_c, 0, 64, 127
1, 53880, Note_on_c, 0, 47, 0
1, 53880, Note_on_c, 0, 52, 26
1, 54000, Note_on_c, 0, 52, 0
1, 54000, Note_on_c, 0, 55, 26
1, 54120, Note_on_c, 0, 55, 0
1, 54120, Note_on_c, 0, 59, 26
1, 54240, Tempo, 635324
1, 54240, Note_on_c, 0, 59, 0
1, 54240, Note_on_c, 0, 67, 0
1, 54240, Note_on_c, 0, 66, 50
1, 54240, Note_on_c, 0, 47, 33
1, 54258, Control_c, 0, 64, 0
1, 54339, Control_c, 0, 64, 127
1, 54360, Note_on_c, 0, 47, 0
1, 54360, Note_on_c, 0, 52, 26
1, 54480, Note_on_c, 0, 52, 0
1, 54480, Note_on_c, 0, 66, 0
1, 54480, Note_on_c, 0, 64, 51
1, 54480, Note_on_c, 0, 55, 27
1, 54600, Note_on_c, 0, 55, 0
1, 54600, Note_on_c, 0, 59, 25
1, 54720, Tempo, 644953
1, 54720, Note_on_c, 0, 59, 0
1, 54720, Note_on_c, 0, 64, 0
1, 54720, Note_on_c, 0, 40, 0
1, 54720, Note_on_c, 0, 69, 53
1, 54720, Note_on_c, 0, 48, 36
1, 54720, Note_on_c, 0, 42, 46
1, 54737, Control_c, 0, 64, 0
1, 54819, Control_c, 0, 64, 127
1, 54840, Note_on_c, 0, 48, 0
1, 54840, Note_on_c, 0, 50, 30
1, 54960, Note_on_c, 0, 50, 0
1, 54960, Note_on_c, 0, 57, 38
1, 55080, Tempo, 717875
1, 55080, Note_on_c, 0, 57, 0
1, 55080, Note_on_c, 0, 60, 51
1, 55170, Note_on_c, 0, 69, 0
1, 55200, Tempo, 592944
1, 55200, Note_on_c, 0, 60, 0
1, 55200, Note_on_c, 0, 42, 0
1, 55200, Note_on_c, 0, 69, 65
1, 55200, Note_on_c, 0, 50, 49
1, 55218, Control_c, 0, 64, 0
1, 55278, Control_c, 0, 64, 127
1, 55320, Note_on_c, 0, 54, 36
1, 55380, Note_on_c, 0, 69, 0
1, 55440, Tempo, 617347
1, 55440, Note_on_c, 0, 54, 0
1, 55440, Note_on_c, 0, 69, 64
1, 55440, Note_on_c, 0, 60, 46
1, 55560, Note_on_c, 0, 60, 0
1, 55560, Note_on_c, 0, 62, 27
1, 55620, Note_on_c, 0, 69, 0
1, 55642, Tempo, 628272
1, 55680, Tempo, 619835
1, 55680, Note_on_c, 0, 62, 0
1, 55680, Note_on_c, 0, 50, 0
1, 55680, Note_on_c, 0, 71, 75
1, 55680, Note_on_c, 0, 50, 49
1, 55680, Note_on_c, 0, 43, 56
1, 55688, Control_c, 0, 64, 0
1, 55779, Control_c, 0, 64, 127
1, 55800, Note_on_c, 0, 50, 0
1, 55800, Note_on_c, 0, 55, 32
1, 55920, Note_on_c, 0, 55, 0
1, 55920, Note_on_c, 0, 59, 32
1, 56040, Note_on_c, 0, 59, 0
1, 56040, Note_on_c, 0, 62, 31
1, 56160, Tempo, 635324
1, 56160, Note_on_c, 0, 62, 0
1, 56160, Note_on_c, 0, 71, 0
1, 56160, Note_on_c, 0, 69, 61
1, 56160, Note_on_c, 0, 52, 41
1, 56178, Control_c, 0, 64, 0
1, 56259, Control_c, 0, 64, 127
1, 56280, Note_on_c, 0, 52, 0
1, 56280, Note_on_c, 0, 55, 32
1, 56400, Note_on_c, 0, 55, 0
1, 56400, Note_on_c, 0, 69, 0
1, 56400, Note_on_c, 0, 67, 63
1, 56400, Note_on_c, 0, 59, 33
1, 56520, Note_on_c, 0, 59, 0
1, 56520, Note_on_c, 0, 64, 30
1, 56640, Tempo, 644953
1, 56640, Note_on_c, 0, 64, 0
1, 56640, Note_on_c, 0, 67, 0
1, 56640, Note_on_c, 0, 43, 0
1, 56640, Note_on_c, 0, 72, 69
1, 56640, Note_on_c, 0, 52, 44
1, 56640, Note_on_c, 0, 45, 56
1, 56657, Control_c, 0, 64, 0
1, 56739, Control_c, 0, 64, 127
1, 56760, Note_on_c, 0, 52, 0
1, 56760, Note_on_c, 0, 57, 36
1, 56880, Note_on_c, 0, 57, 0
1, 56880, Note_on_c, 0, 60, 46
1, 57000, Tempo, 717875
1, 57000, Note_on_c, 0, 60, 0
1, 57000, Note_on_c, 0, 64, 42
1, 57090, Note_on_c, 0, 72, 0
1, 57120, Tempo, 607964
1, 57120, Note_on_c, 0, 64, 0
1, 57120, Note_on_c, 0, 72, 78
1, 57120, Note_on_c, 0, 51, 46
1, 57138, Control_c, 0, 64, 0
1, 57198, Control_c, 0, 64, 127
1, 57240, Note_on_c, 0, 51, 0
1, 57240, Note_on_c, 0, 57, 44
1, 57300, Note_on_c, 0, 72, 0
1, 57360, Tempo, 614188
1, 57360, Note_on_c, 0, 57, 0
1, 57360, Note_on_c, 0, 72, 72
1, 57360, Note_on_c, 0, 60, 55
1, 57480, Tempo, 650830
1, 57480, Note_on_c, 0, 60, 0
1, 57480, Note_on_c, 0, 66, 33
1, 57540, Note_on_c, 0, 72, 0
1, 57562, Tempo, 628272
1, 57600, Tempo, 619835
1, 57600, Note_on_c, 0, 66, 0
1, 57600, Note_on_c, 0, 45, 0
1, 57600, Note_on_c, 0, 74, 86
1, 57600, Note_on_c, 0, 50, 58
1, 57600, Note_on_c, 0, 47, 67
1, 57608, Control_c, 0, 64, 0
1, 57699, Control_c, 0, 64, 127
1, 57720, Note_on_c, 0, 50, 0
1, 57720, Note_on_c, 0, 55, 38
1, 57840, Note_on_c, 0, 55, 0
1, 57840, Note_on_c, 0, 62, 38
1, 57960, Note_on_c, 0, 62, 0
1, 57960, Note_on_c, 0, 67, 37
1, 58080, Tempo, 635324
1, 58080, Note_on_c, 0, 67, 0
1, 58080, Note_on_c, 0, 74, 0
1, 58080, Note_on_c, 0, 72, 72
1, 58080, Note_on_c, 0, 55, 48
1, 58098, Control_c, 0, 64, 0
1, 58179, Control_c, 0, 64, 127
1, 58200, Note_on_c, 0, 55, 0
1, 58200, Note_on_c, 0, 59, 38
1, 58320, Note_on_c, 0, 59, 0
1, 58320, Note_on_c, 0, 72, 0
1, 58320, Note_on_c, 0, 71, 74
1, 58320, Note_on_c, 0, 62, 38
1, 58440, Tempo, 696136
1, 58440, Note_on_c, 0, 62, 0
1, 58440, Note_on_c, 0, 67, 35
1, 58560, Tempo, 644953
1, 58560, Note_on_c, 0, 67, 0
1, 58560, Note_on_c, 0, 71, 0
1, 58560, Note_on_c, 0, 47, 0
1, 58560, Note_on_c, 0, 79, 86
1, 58560, Note_on_c, 0, 55, 52
1, 58560, Note_on_c, 0, 48, 66
1, 58577, Control_c, 0, 64, 0
1, 58659, Control_c, 0, 64, 127
1, 58680, Note_on_c, 0, 55, 0
1, 58680, Note_on_c, 0, 64, 45
1, 58800, Note_on_c, 0, 64, 0
1, 58800, Note_on_c, 0, 67, 54
1, 58920, Tempo, 717875
1, 58920, Note_on_c, 0, 67, 0
1, 58920, Note_on_c, 0, 72, 63
1, 59010, Note_on_c, 0, 79, 0
1, 59040, Tempo, 619835
1, 59040, Note_on_c, 0, 72, 0
1, 59040, Note_on_c, 0, 78, 85
1, 59040, Note_on_c, 0, 55, 56
1, 59058, Control_c, 0, 64, 0
1, 59118, Control_c, 0, 64, 127
1, 59160, Note_on_c, 0, 55, 0
1, 59160, Note_on_c, 0, 64, 52
1, 59280, Note_on_c, 0, 64, 0
1, 59280, Note_on_c, 0, 78, 0
1, 59280, Note_on_c, 0, 76, 70
1, 59280, Note_on_c, 0, 67, 56
1, 59400, Note_on_c, 0, 67, 0
1, 59400, Note_on_c, 0, 72, 39
1, 59482, Tempo, 628272
1, 59520, Tempo, 644953
1, 59520, Note_on_c, 0, 72, 0
1, 59520, Note_on_c, 0, 76, 0
1, 59520, Note_on_c, 0, 48, 0
1, 59520, Note_on_c, 0, 74, 81
1, 59520, Note_on_c, 0, 54, 52
1, 59520, Note_on_c, 0, 50, 66
1, 59537, Control_c, 0, 64, 0
1, 59619, Control_c, 0, 64, 127
1, 59640, Note_on_c, 0, 54, 0
1, 59640, Note_on_c, 0, 60, 45
1, 59760, Note_on_c, 0, 60, 0
1, 59760, Note_on_c, 0, 62, 54
1, 59880, Tempo, 657967
1, 59880, Note_on_c, 0, 62, 0
1, 59880, Note_on_c, 0, 69, 50
1, 59970, Note_on_c, 0, 74, 0
1, 60000, Tempo, 619835
1, 60000, Note_on_c, 0, 69, 0
1, 60000, Note_on_c, 0, 50, 0
1, 60000, Note_on_c, 0, 74, 74
1, 60000, Note_on_c, 0, 55, 56
1, 60000, Note_on_c, 0, 52, 62
1, 60018, Control_c, 0, 64, 0
1, 60078, Control_c, 0, 64, 127
1, 60120, Note_on_c, 0, 55, 0
1, 60120, Note_on_c, 0, 60, 52
1, 60240, Note_on_c, 0, 60, 0
1, 60240, Note_on_c, 0, 62, 56
1, 60360, Note_on_c, 0, 62, 0
1, 60360, Note_on_c, 0, 67, 39
1, 60442, Tempo, 628272
1, 60480, Note_on_c, 0, 67, 0
1, 60480, Note_on_c, 0, 52, 0
1, 60480, Note_on_c, 0, 74, 0
1, 60480, Note_on_c, 0, 74, 68
1, 60480, Note_on_c, 0, 62, 62
1, 60480, Note_on_c, 0, 60, 52
1, 60480, Note_on_c, 0, 57, 52
1, 60480, Note_on_c, 0, 54, 52
1, 60486, Control_c, 0, 64, 0
1, 60560, Control_c, 0, 64, 127
1, 60600, Note_on_c, 0, 74, 0
1, 60600, Note_on_c, 0, 78, 64
1, 60720, Note_on_c, 0, 78, 0
1, 60720, Note_on_c, 0, 81, 69
1, 60840, Note_on_c, 0, 81, 0
1, 60840, Note_on_c, 0, 84, 69
1, 60949, Control_c, 0, 64, 0
1, 60960, Note_on_c, 0, 84, 0
1, 60960, Note_on_c, 0, 54, 0
1, 60960, Note_on_c, 0, 62, 0
1, 60960, Note_on_c, 0, 60, 0
1, 60960, Note_on_c, 0, 57, 0
1, 60960, Note_on_c, 0, 83, 74
1, 61080, Note_on_c, 0, 83, 0
1, 61080, Note_on_c, 0, 81, 66
1, 61200, Note_on_c, 0, 81, 0
1, 61200, Note_on_c, 0, 79, 70
1, 61320, Note_on_c, 0, 79, 0
1, 61320, Note_on_c, 0, 78, 65
1, 61440, Tempo, 633647
1, 61440, Note_on_c, 0, 78, 0
1, 61440, Note_on_c, 0, 76, 70
1, 61560, Note_on_c, 0, 76, 0
1, 61560, Note_on_c, 0, 75, 64
1, 61680, Note_on_c, 0, 75, 0
1, 61680, Note_on_c, 0, 78, 70
1, 62040, Note_on_c, 0, 78, 0
1, 62040, Note_on_c, 0, 76, 66
1, 62160, Note_on_c, 0, 76, 0
1, 62160, Note_on_c, 0, 74, 64
1, 62280, Note_on_c, 0, 74, 0
1, 62280, Note_on_c, 0, 72, 58
1, 62400, Note_on_c, 0, 72, 0
1, 62400, Note_on_c, 0, 71, 64
1, 62402, Tempo, 643846
1, 62520, Note_on_c, 0, 71, 0
1, 62520, Note_on_c, 0, 69, 57
1, 62640, Note_on_c, 0, 69, 0
1, 62640, Note_on_c, 0, 68, 61
1, 62760, Note_on_c, 0, 68, 0
1, 62760, Note_on_c, 0, 69, 50
1, 62863, Tempo, 661594
1, 62880, Note_on_c, 0, 69, 0
1, 62880, Note_on_c, 0, 68, 46
1, 62882, Tempo, 680349
1, 62921, Tempo, 684229
1, 62940, Tempo, 688152
1, 62978, Tempo, 692121
1, 62997, Tempo, 696136
1, 63000, Note_on_c, 0, 68, 0
1, 63000, Note_on_c, 0, 69, 46
1, 63036, Tempo, 700198
1, 63055, Tempo, 704308
1, 63060, Note_on_c, 0, 69, 0
1, 63120, Tempo, 782371
1, 63120, Note_on_c, 0, 71, 46
1, 63180, Note_on_c, 0, 71, 0
1, 63240, Tempo, 913381
1, 63240, Note_on_c, 0, 72, 41
1, 63300, Note_on_c, 0, 72, 0
1, 63324, Tempo, 743587
1, 63343, Tempo, 748223
1, 63360, Tempo, 619835
1, 63360, Note_on_c, 0, 74, 50
1, 63368, Control_c, 0, 64, 0
1, 63459, Control_c, 0, 64, 127
1, 63480, Note_on_c, 0, 59, 26
1, 63600, Note_on_c, 0, 59, 0
1, 63600, Note_on_c, 0, 62, 26
1, 63720, Note_on_c, 0, 62, 0
1, 63720, Note_on_c, 0, 67, 25
1, 63840, Tempo, 635324
1, 63840, Note_on_c, 0, 67, 0
1, 63840, Note_on_c, 0, 74, 0
1, 63840, Note_on_c, 0, 71, 46
1, 63840, Note_on_c, 0, 55, 32
1, 63840, Note_on_c, 0, 47, 42
1, 63858, Control_c, 0, 64, 0
1, 63939, Control_c, 0, 64, 127
1, 63960, Note_on_c, 0, 55, 0
1, 63960, Note_on_c, 0, 59, 25
1, 64080, Note_on_c, 0, 59, 0
1, 64080, Note_on_c, 0, 62, 25
1, 64200, Note_on_c, 0, 62, 0
1, 64200, Note_on_c, 0, 67, 23
1, 64320, Tempo, 644953
1, 64320, Note_on_c, 0, 67, 0
1, 64320, Note_on_c, 0, 47, 0
1, 64320, Note_on_c, 0, 71, 0
1, 64320, Note_on_c, 0, 69, 46
1, 64320, Note_on_c, 0, 55, 33
1, 64320, Note_on_c, 0, 48, 42
1, 64337, Control_c, 0, 64, 0
1, 64419, Control_c, 0, 64, 127
1, 64440, Note_on_c, 0, 55, 0
1, 64440, Note_on_c, 0, 57, 27
1, 64560, Note_on_c, 0, 57, 0
1, 64560, Note_on_c, 0, 64, 34
1, 64680, Tempo, 717875
1, 64680, Note_on_c, 0, 64, 0
1, 64680, Note_on_c, 0, 67, 44
1, 64770, Note_on_c, 0, 69, 0
1, 64800, Tempo, 619835
1, 64800, Note_on_c, 0, 67, 0
1, 64800, Note_on_c, 0, 76, 56
1, 64800, Note_on_c, 0, 55, 53
1, 64818, Control_c, 0, 64, 0
1, 64878, Control_c, 0, 64, 127
1, 64920, Note_on_c, 0, 55, 0
1, 64920, Note_on_c, 0, 57, 31
1, 65040, Note_on_c, 0, 57, 0
1, 65040, Note_on_c, 0, 64, 39
1, 65160, Note_on_c, 0, 64, 0
1, 65160, Note_on_c, 0, 67, 23
1, 65242, Tempo, 628272
1, 65280, Note_on_c, 0, 67, 0
1, 65280, Note_on_c, 0, 76, 0
1, 65280, Note_on_c, 0, 48, 0
1, 65280, Note_on_c, 0, 74, 57
1, 65280, Note_on_c, 0, 55, 35
1, 65280, Note_on_c, 0, 50, 46
1, 65298, Control_c, 0, 64, 0
1, 65344, Control_c, 0, 64, 127
1, 65357, Tempo, 625000
1, 65400, Note_on_c, 0, 55, 0
1, 65400, Note_on_c, 0, 59, 26
1, 65472, Tempo, 621762
1, 65520, Note_on_c, 0, 59, 0
1, 65520, Note_on_c, 0, 62, 26
1, 65587, Tempo, 618557
1, 65640, Note_on_c, 0, 62, 0
1, 65640, Note_on_c, 0, 67, 25
1, 65703, Tempo, 615385
1, 65760, Tempo, 632111
1, 65760, Note_on_c, 0, 67, 0
1, 65760, Note_on_c, 0, 74, 0
1, 65760, Note_on_c, 0, 71, 48
1, 65760, Note_on_c, 0, 55, 32
1, 65777, Control_c, 0, 64, 0
1, 65840, Control_c, 0, 64, 127
1, 65880, Note_on_c, 0, 55, 0
1, 65880, Note_on_c, 0, 59, 25
1, 66000, Note_on_c, 0, 59, 0
1, 66000, Note_on_c, 0, 62, 25
1, 66120, Note_on_c, 0, 62, 0
1, 66120, Note_on_c, 0, 67, 23
1, 66240, Note_on_c, 0, 67, 0
1, 66240, Note_on_c, 0, 71, 0
1, 66240, Note_on_c, 0, 50, 0
1, 66240, Note_on_c, 0, 69, 48
1, 66240, Note_on_c, 0, 55, 33
1, 66240, Note_on_c, 0, 52, 37
1, 66257, Control_c, 0, 64, 0
1, 66281, Tempo, 628272
1, 66332, Control_c, 0, 64, 127
1, 66338, Tempo, 631579
1, 66360, Note_on_c, 0, 55, 0
1, 66360, Note_on_c, 0, 57, 27
1, 66396, Tempo, 634921
1, 66434, Tempo, 638298
1, 66480, Note_on_c, 0, 57, 0
1, 66480, Note_on_c, 0, 61, 33
1, 66492, Tempo, 641711
1, 66549, Tempo, 645161
1, 66588, Tempo, 648649
1, 66600, Tempo, 690528
1, 66600, Note_on_c, 0, 61, 0
1, 66600, Note_on_c, 0, 67, 40
1, 66690, Note_on_c, 0, 69, 0
1, 66720, Tempo, 632111
1, 66720, Note_on_c, 0, 67, 0
1, 66720, Note_on_c, 0, 52, 0
1, 66720, Note_on_c, 0, 71, 56
1, 66720, Note_on_c, 0, 57, 46
1, 66720, Note_on_c, 0, 54, 42
1, 66737, Control_c, 0, 64, 0
1, 66823, Control_c, 0, 64, 127
1, 66840, Note_on_c, 0, 57, 0
1, 66840, Note_on_c, 0, 60, 26
1, 66960, Note_on_c, 0, 60, 0
1, 66960, Note_on_c, 0, 71, 0
1, 66960, Note_on_c, 0, 72, 49
1, 66960, Note_on_c, 0, 62, 25
1, 67080, Note_on_c, 0, 62, 0
1, 67080, Note_on_c, 0, 69, 23
1, 67200, Tempo, 595888
1, 67200, Note_on_c, 0, 69, 0
1, 67200, Note_on_c, 0, 72, 0
1, 67200, Note_on_c, 0, 54, 0
1, 67200, Note_on_c, 0, 71, 57
1, 67200, Note_on_c, 0, 55, 46
1, 67218, Control_c, 0, 64, 0
1, 67262, Control_c, 0, 64, 127
1, 67320, Note_on_c, 0, 71, 0
1, 67320, Note_on_c, 0, 59, 26
1, 67392, Tempo, 621762
1, 67440, Note_on_c, 0, 59, 0
1, 67440, Note_on_c, 0, 71, 47
1, 67440, Note_on_c, 0, 62, 26
1, 67507, Tempo, 618557
1, 67560, Note_on_c, 0, 62, 0
1, 67560, Note_on_c, 0, 67, 25
1, 67623, Tempo, 615385
1, 67680, Tempo, 632111
1, 67680, Note_on_c, 0, 67, 0
1, 67680, Note_on_c, 0, 71, 0
1, 67680, Note_on_c, 0, 55, 0
1, 67680, Note_on_c, 0, 74, 54
1, 67680, Note_on_c, 0, 55, 32
1, 67697, Control_c, 0, 64, 0
1, 67760, Control_c, 0, 64, 127
1, 67800, Note_on_c, 0, 55, 0
1, 67800, Note_on_c, 0, 59, 25
1, 67920, Note_on_c, 0, 59, 0
1, 67920, Note_on_c, 0, 74, 0
1, 67920, Note_on_c, 0, 71, 48
1, 67920, Note_on_c, 0, 62, 25
1, 68040, Note_on_c, 0, 62, 0
1, 68040, Note_on_c, 0, 67, 23
1, 68130, Note_on_c, 0, 71, 0
1, 68160, Note_on_c, 0, 67, 0
1, 68160, Note_on_c, 0, 71, 53
1, 68160, Note_on_c, 0, 52, 33
1, 68160, Note_on_c, 0, 48, 37
1, 68177, Control_c, 0, 64, 0
1, 68201, Tempo, 628272
1, 68252, Control_c, 0, 64, 127
1, 68258, Tempo, 631579
1, 68280, Note_on_c, 0, 52, 0
1, 68280, Note_on_c, 0, 57, 27
1, 68316, Tempo, 634921
1, 68354, Tempo, 638298
1, 68400, Note_on_c, 0, 57, 0
1, 68400, Note_on_c, 0, 71, 0
1, 68400, Note_on_c, 0, 69, 48
1, 68400, Note_on_c, 0, 60, 33
1, 68412, Tempo, 641711
1, 68469, Tempo, 645161
1, 68508, Tempo, 648649
1, 68520, Tempo, 690528
1, 68520, Note_on_c, 0, 60, 0
1, 68520, Note_on_c, 0, 64, 31
1, 68640, Tempo, 650830
1, 68640, Note_on_c, 0, 64, 0
1, 68640, Note_on_c, 0, 69, 0
1, 68640, Note_on_c, 0, 67, 40
1, 68640, Note_on_c, 0, 52, 37
1, 68657, Control_c, 0, 64, 0
1, 68743, Control_c, 0, 64, 127
1, 68760, Note_on_c, 0, 52, 0
1, 68760, Note_on_c, 0, 57, 26
1, 68880, Note_on_c, 0, 57, 0
1, 68880, Note_on_c, 0, 67, 0
1, 68880, Note_on_c, 0, 69, 40
1, 68880, Note_on_c, 0, 60, 25
1, 69000, Tempo, 725602
1, 69000, Note_on_c, 0, 60, 0
1, 69000, Note_on_c, 0, 64, 23
1, 69120, Tempo, 633647
1, 69120, Note_on_c, 0, 64, 0
1, 69120, Note_on_c, 0, 69, 0
1, 69120, Note_on_c, 0, 48, 0
1, 69120, Note_on_c, 0, 71, 47
1, 69120, Note_on_c, 0, 51, 32
1, 69120, Note_on_c, 0, 47, 40
1, 69138, Control_c, 0, 64, 0
1, 69197, Tempo, 625000
1, 69198, Control_c, 0, 64, 127
1, 69240, Note_on_c, 0, 51, 0
1, 69240, Note_on_c, 0, 54, 26
1, 69312, Tempo, 621762
1, 69360, Note_on_c, 0, 54, 0
1, 69360, Note_on_c, 0, 59, 26
1, 69427, Tempo, 618557
1, 69480, Note_on_c, 0, 59, 0
1, 69480, Note_on_c, 0, 63, 25
1, 69543, Tempo, 615385
1, 69600, Tempo, 632111
1, 69600, Note_on_c, 0, 63, 0
1, 69600, Note_on_c, 0, 51, 32
1, 69720, Note_on_c, 0, 51, 0
1, 69720, Note_on_c, 0, 54, 25
1, 69840, Note_on_c, 0, 54, 0
1, 69840, Note_on_c, 0, 59, 25
1, 69960, Note_on_c, 0, 59, 0
1, 69960, Note_on_c, 0, 63, 23
1, 70080, Note_on_c, 0, 63, 0
1, 70080, Note_on_c, 0, 51, 33
1, 70121, Tempo, 628272
1, 70178, Tempo, 631579
1, 70200, Note_on_c, 0, 51, 0
1, 70200, Note_on_c, 0, 54, 27
1, 70236, Tempo, 634921
1, 70274, Tempo, 638298
1, 70320, Note_on_c, 0, 54, 0
1, 70320, Note_on_c, 0, 59, 26
1, 70332, Tempo, 641711
1, 70389, Tempo, 645161
1, 70428, Tempo, 648649
1, 70440, Tempo, 690528
1, 70440, Note_on_c, 0, 59, 0
1, 70440, Note_on_c, 0, 63, 26
1, 70560, Tempo, 632111
1, 70560, Note_on_c, 0, 63, 0
1, 70560, Note_on_c, 0, 51, 30
1, 70680, Note_on_c, 0, 51, 0
1, 70680, Note_on_c, 0, 54, 26
1, 70800, Tempo, 657967
1, 70800, Note_on_c, 0, 54, 0
1, 70800, Note_on_c, 0, 59, 25
1, 70920, Note_on_c, 0, 59, 0
1, 70920, Note_on_c, 0, 63, 22
1, 71040, Tempo, 643846
1, 71040, Note_on_c, 0, 63, 0
1, 71040, Note_on_c, 0, 47, 0
1, 71040, Note_on_c, 0, 50, 32
1, 71040, Note_on_c, 0, 43, 34
1, 71058, Control_c, 0, 64, 0
1, 71102, Control_c, 0, 64, 127
1, 71160, Note_on_c, 0, 50, 0
1, 71160, Note_on_c, 0, 55, 19
1, 71280, Tempo, 657967
1, 71280, Note_on_c, 0, 55, 0
1, 71280, Note_on_c, 0, 71, 0
1, 71280, Note_on_c, 0, 71, 35
1, 71280, Note_on_c, 0, 59, 19
1, 71400, Note_on_c, 0, 59, 0
1, 71400, Note_on_c, 0, 67, 18
1, 71520, Tempo, 684229
1, 71520, Note_on_c, 0, 67, 0
1, 71520, Note_on_c, 0, 71, 0
1, 71520, Note_on_c, 0, 74, 40
1, 71520, Note_on_c, 0, 50, 24
1, 71537, Control_c, 0, 64, 0
1, 71600, Control_c, 0, 64, 127
1, 71640, Note_on_c, 0, 50, 0
1, 71640, Note_on_c, 0, 55, 18
1, 71760, Note_on_c, 0, 55, 0
1, 71760, Note_on_c, 0, 74, 0
1, 71760, Note_on_c, 0, 71, 36
1, 71760, Note_on_c, 0, 59, 18
1, 71880, Note_on_c, 0, 59, 0
1, 71880, Note_on_c, 0, 67, 17
1, 71970, Note_on_c, 0, 71, 0
1, 72000, Note_on_c, 0, 67, 0
1, 72000, Note_on_c, 0, 43, 0
1, 72000, Note_on_c, 0, 71, 39
1, 72000, Note_on_c, 0, 52, 24
1, 72000, Note_on_c, 0, 48, 27
1, 72017, Control_c, 0, 64, 0
1, 72041, Tempo, 628272
1, 72092, Control_c, 0, 64, 127
1, 72098, Tempo, 631579
1, 72120, Note_on_c, 0, 52, 0
1, 72120, Note_on_c, 0, 57, 20
1, 72156, Tempo, 634921
1, 72194, Tempo, 638298
1, 72240, Note_on_c, 0, 57, 0
1, 72240, Note_on_c, 0, 71, 0
1, 72240, Note_on_c, 0, 69, 36
1, 72240, Note_on_c, 0, 60, 24
1, 72252, Tempo, 641711
1, 72309, Tempo, 645161
1, 72348, Tempo, 648649
1, 72360, Tempo, 782371
1, 72360, Note_on_c, 0, 60, 0
1, 72360, Note_on_c, 0, 64, 23
1, 72480, Tempo, 730016
1, 72480, Note_on_c, 0, 64, 0
1, 72480, Note_on_c, 0, 69, 0
1, 72480, Note_on_c, 0, 67, 30
1, 72480, Note_on_c, 0, 52, 27
1, 72497, Control_c, 0, 64, 0
1, 72583, Control_c, 0, 64, 127
1, 72600, Note_on_c, 0, 52, 0
1, 72600, Note_on_c, 0, 57, 19
1, 72720, Note_on_c, 0, 57, 0
1, 72720, Note_on_c, 0, 67, 0
1, 72720, Note_on_c, 0, 69, 30
1, 72720, Note_on_c, 0, 60, 18
1, 72840, Tempo, 797978
1, 72840, Note_on_c, 0, 60, 0
1, 72840, Note_on_c, 0, 64, 17
1, 72960, Tempo, 688152
1, 72960, Note_on_c, 0, 64, 0
1, 72960, Note_on_c, 0, 69, 0
1, 72960, Note_on_c, 0, 48, 0
1, 72960, Note_on_c, 0, 71, 35
1, 72960, Note_on_c, 0, 51, 24
1, 72960, Note_on_c, 0, 47, 30
1, 72978, Control_c, 0, 64, 0
1, 72981, Tempo, 688152
1, 73020, Tempo, 684229
1, 73045, Control_c, 0, 64, 127
1, 73058, Tempo, 680349
1, 73080, Note_on_c, 0, 51, 0
1, 73080, Note_on_c, 0, 54, 19
1, 73097, Tempo, 676514
1, 73135, Tempo, 672721
1, 73173, Tempo, 668971
1, 73193, Tempo, 665262
1, 73200, Note_on_c, 0, 54, 0
1, 73200, Note_on_c, 0, 59, 19
1, 73320, Note_on_c, 0, 59, 0
1, 73320, Note_on_c, 0, 63, 18
1, 73440, Tempo, 692121
1, 73440, Note_on_c, 0, 63, 0
1, 73440, Note_on_c, 0, 54, 25
1, 73560, Note_on_c, 0, 54, 0
1, 73560, Note_on_c, 0, 57, 19
1, 73680, Note_on_c, 0, 57, 0
1, 73680, Note_on_c, 0, 59, 19
1, 73800, Note_on_c, 0, 59, 0
1, 73800, Note_on_c, 0, 63, 27
1, 73920, Note_on_c, 0, 63, 0
1, 73920, Note_on_c, 0, 52, 31
1, 73920, Control_c, 0, 64, 0
1, 73980, Tempo, 688152
1, 74006, Control_c, 0, 64, 127
1, 74037, Tempo, 684229
1, 74040, Note_on_c, 0, 52, 0
1, 74040, Note_on_c, 0, 55, 27
1, 74095, Tempo, 680349
1, 74153, Tempo, 676514
1, 74160, Note_on_c, 0, 55, 0
1, 74160, Note_on_c, 0, 59, 30
1, 74210, Tempo, 672721
1, 74268, Tempo, 668971
1, 74280, Note_on_c, 0, 59, 0
1, 74280, Note_on_c, 0, 64, 32
1, 74325, Tempo, 665262
1, 74364, Tempo, 661594
1, 74400, Tempo, 652955
1, 74400, Note_on_c, 0, 64, 0
1, 74400, Note_on_c, 0, 71, 0
1, 74400, Note_on_c, 0, 70, 49
1, 74400, Note_on_c, 0, 52, 34
1, 74402, Control_c, 0, 64, 0
1, 74476, Control_c, 0, 64, 127
1, 74520, Note_on_c, 0, 52, 0
1, 74520, Note_on_c, 0, 55, 30
1, 74640, Note_on_c, 0, 55, 0
1, 74640, Note_on_c, 0, 59, 32
1, 74760, Note_on_c, 0, 59, 0
1, 74760, Note_on_c, 0, 64, 34
1, 74880, Tempo, 639046
1, 74880, Note_on_c, 0, 64, 0
1, 74880, Note_on_c, 0, 70, 0
1, 74880, Note_on_c, 0, 47, 0
1, 74880, Note_on_c, 0, 71, 57
1, 74880, Note_on_c, 0, 51, 35
1, 74880, Note_on_c, 0, 47, 46
1, 74898, Control_c, 0, 64, 0
1, 74944, Control_c, 0, 64, 127
1, 75000, Note_on_c, 0, 51, 0
1, 75000, Note_on_c, 0, 54, 26
1, 75120, Note_on_c, 0, 54, 0
1, 75120, Note_on_c, 0, 59, 26
1, 75240, Note_on_c, 0, 59, 0
1, 75240, Note_on_c, 0, 63, 25
1, 75360, Tempo, 632111
1, 75360, Note_on_c, 0, 63, 0
1, 75360, Note_on_c, 0, 54, 32
1, 75480, Note_on_c, 0, 54, 0
1, 75480, Note_on_c, 0, 57, 25
1, 75600, Note_on_c, 0, 57, 0
1, 75600, Note_on_c, 0, 59, 25
1, 75720, Note_on_c, 0, 59, 0
1, 75720, Note_on_c, 0, 63, 23
1, 75840, Note_on_c, 0, 63, 0
1, 75840, Note_on_c, 0, 71, 0
1, 75840, Note_on_c, 0, 52, 33
1, 75857, Control_c, 0, 64, 0
1, 75881, Tempo, 628272
1, 75932, Control_c, 0, 64, 127
1, 75938, Tempo, 631579
1, 75960, Note_on_c, 0, 52, 0
1, 75960, Note_on_c, 0, 55, 27
1, 75996, Tempo, 634921
1, 76034, Tempo, 638298
1, 76080, Note_on_c, 0, 55, 0
1, 76080, Note_on_c, 0, 59, 33
1, 76092, Tempo, 641711
1, 76149, Tempo, 645161
1, 76188, Tempo, 648649
1, 76200, Tempo, 690528
1, 76200, Note_on_c, 0, 59, 0
1, 76200, Note_on_c, 0, 64, 40
1, 76320, Tempo, 643846
1, 76320, Note_on_c, 0, 64, 0
1, 76320, Note_on_c, 0, 72, 54
1, 76320, Note_on_c, 0, 52, 34
1, 76340, Control_c, 0, 64, 0
1, 76393, Control_c, 0, 64, 127
1, 76440, Note_on_c, 0, 52, 0
1, 76440, Note_on_c, 0, 55, 30
1, 76560, Note_on_c, 0, 55, 0
1, 76560, Note_on_c, 0, 59, 32
1, 76680, Note_on_c, 0, 59, 0
1, 76680, Note_on_c, 0, 64, 34
1, 76800, Tempo, 643846
1, 76800, Note_on_c, 0, 64, 0
1, 76800, Note_on_c, 0, 72, 0
1, 76800, Note_on_c, 0, 47, 0
1, 76800, Note_on_c, 0, 71, 57
1, 76800, Note_on_c, 0, 51, 35
1, 76800, Note_on_c, 0, 47, 46
1, 76818, Control_c, 0, 64, 0
1, 76864, Control_c, 0, 64, 127
1, 76920, Note_on_c, 0, 51, 0
1, 76920, Note_on_c, 0, 54, 26
1, 77040, Note_on_c, 0, 54, 0
1, 77040, Note_on_c, 0, 59, 26
1, 77160, Note_on_c, 0, 59, 0
1, 77160, Note_on_c, 0, 63, 25
1, 77280, Tempo, 632111
1, 77280, Note_on_c, 0, 63, 0
1, 77280, Note_on_c, 0, 51, 32
1, 77400, Note_on_c, 0, 51, 0
1, 77400, Note_on_c, 0, 54, 25
1, 77520, Note_on_c, 0, 54, 0
1, 77520, Note_on_c, 0, 59, 25
1, 77640, Note_on_c, 0, 59, 0
1, 77640, Note_on_c, 0, 63, 23
1, 77760, Note_on_c, 0, 63, 0
1, 77760, Note_on_c, 0, 71, 0
1, 77760, Note_on_c, 0, 54, 33
1, 77774, Control_c, 0, 64, 0
1, 77801, Tempo, 628272
1, 77858, Tempo, 631579
1, 77859, Control_c, 0, 64, 127
1, 77880, Note_on_c, 0, 54, 0
1, 77880, Note_on_c, 0, 57, 27
1, 77916, Tempo, 634921
1, 77954, Tempo, 638298
1, 78000, Note_on_c, 0, 57, 0
1, 78000, Note_on_c, 0, 59, 33
1, 78012, Tempo, 641711
1, 78069, Tempo, 645161
1, 78108, Tempo, 648649
1, 78120, Tempo, 690528
1, 78120, Note_on_c, 0, 59, 0
1, 78120, Note_on_c, 0, 63, 40
1, 78240, Tempo, 632111
1, 78240, Note_on_c, 0, 63, 0
1, 78240, Note_on_c, 0, 47, 0
1, 78240, Note_on_c, 0, 69, 71
1, 78240, Note_on_c, 0, 51, 43
1, 78260, Control_c, 0, 64, 0
1, 78332, Control_c, 0, 64, 127
1, 78360, Note_on_c, 0, 51, 0
1, 78360, Note_on_c, 0, 54, 36
1, 78480, Note_on_c, 0, 54, 0
1, 78480, Note_on_c, 0, 59, 44
1, 78600, Note_on_c, 0, 59, 0
1, 78600, Note_on_c, 0, 63, 47
1, 78720, Tempo, 619835
1, 78720, Note_on_c, 0, 63, 0
1, 78720, Note_on_c, 0, 69, 0
1, 78720, Note_on_c, 0, 68, 79
1, 78720, Note_on_c, 0, 47, 56
1, 78720, Note_on_c, 0, 40, 64
1, 78728, Control_c, 0, 64, 0
1, 78819, Control_c, 0, 64, 127
1, 78840, Note_on_c, 0, 47, 0
1, 78840, Note_on_c, 0, 52, 37
1, 78960, Note_on_c, 0, 52, 0
1, 78960, Note_on_c, 0, 56, 38
1, 79080, Note_on_c, 0, 56, 0
1, 79080, Note_on_c, 0, 59, 38
1, 79200, Tempo, 635324
1, 79200, Note_on_c, 0, 59, 0
1, 79200, Note_on_c, 0, 40, 0
1, 79200, Note_on_c, 0, 68, 0
1, 79200, Note_on_c, 0, 66, 67
1, 79200, Note_on_c, 0, 47, 50
1, 79200, Note_on_c, 0, 42, 58
1, 79218, Control_c, 0, 64, 0
1, 79299, Control_c, 0, 64, 127
1, 79320, Note_on_c, 0, 47, 0
1, 79320, Note_on_c, 0, 51, 43
1, 79440, Note_on_c, 0, 51, 0
1, 79440, Note_on_c, 0, 57, 46
1, 79560, Note_on_c, 0, 57, 0
1, 79560, Note_on_c, 0, 59, 48
1, 79680, Tempo, 644953
1, 79680, Note_on_c, 0, 59, 0
1, 79680, Note_on_c, 0, 42, 0
1, 79680, Note_on_c, 0, 66, 0
1, 79680, Note_on_c, 0, 64, 67
1, 79680, Note_on_c, 0, 47, 59
1, 79680, Note_on_c, 0, 44, 58
1, 79697, Control_c, 0, 64, 0
1, 79779, Control_c, 0, 64, 127
1, 79800, Note_on_c, 0, 47, 0
1, 79800, Note_on_c, 0, 52, 48
1, 79920, Note_on_c, 0, 52, 0
1, 79920, Note_on_c, 0, 56, 63
1, 80040, Tempo, 717875
1, 80040, Note_on_c, 0, 56, 0
1, 80040, Note_on_c, 0, 59, 61
1, 80130, Note_on_c, 0, 64, 0
1, 80160, Tempo, 619835
1, 80160, Note_on_c, 0, 59, 0
1, 80160, Note_on_c, 0, 44, 0
1, 80160, Note_on_c, 0, 76, 78
1, 80160, Note_on_c, 0, 54, 74
1, 80160, Note_on_c, 0, 46, 58
1, 80178, Control_c, 0, 64, 0
1, 80238, Control_c, 0, 64, 127
1, 80280, Note_on_c, 0, 54, 0
1, 80280, Note_on_c, 0, 61, 43
1, 80400, Note_on_c, 0, 61, 0
1, 80400, Note_on_c, 0, 64, 54
1, 80520, Note_on_c, 0, 64, 0
1, 80520, Note_on_c, 0, 66, 32
1, 80602, Tempo, 628272
1, 80640, Note_on_c, 0, 66, 0
1, 80640, Note_on_c, 0, 46, 0
1, 80640, Note_on_c, 0, 76, 0
1, 80640, Note_on_c, 0, 75, 79
1, 80640, Note_on_c, 0, 54, 49
1, 80640, Note_on_c, 0, 47, 64
1, 80658, Control_c, 0, 64, 0
1, 80692, Control_c, 0, 64, 127
1, 80717, Tempo, 625000
1, 80760, Note_on_c, 0, 54, 0
1, 80760, Note_on_c, 0, 59, 36
1, 80832, Tempo, 621762
1, 80880, Note_on_c, 0, 59, 0
1, 80880, Note_on_c, 0, 63, 36
1, 80947, Tempo, 618557
1, 81000, Note_on_c, 0, 63, 0
1, 81000, Note_on_c, 0, 66, 35
1, 81063, Tempo, 615385
1, 81120, Tempo, 632111
1, 81120, Note_on_c, 0, 66, 0
1, 81120, Note_on_c, 0, 47, 0
1, 81120, Note_on_c, 0, 75, 0
1, 81120, Note_on_c, 0, 73, 67
1, 81120, Note_on_c, 0, 54, 44
1, 81120, Note_on_c, 0, 49, 58
1, 81137, Control_c, 0, 64, 0
1, 81200, Control_c, 0, 64, 127
1, 81240, Note_on_c, 0, 54, 0
1, 81240, Note_on_c, 0, 58, 35
1, 81360, Note_on_c, 0, 58, 0
1, 81360, Note_on_c, 0, 64, 35
1, 81480, Note_on_c, 0, 64, 0
1, 81480, Note_on_c, 0, 66, 32
1, 81600, Note_on_c, 0, 66, 0
1, 81600, Note_on_c, 0, 49, 0
1, 81600, Note_on_c, 0, 73, 0
1, 81600, Note_on_c, 0, 71, 67
1, 81600, Note_on_c, 0, 54, 46
1, 81600, Note_on_c, 0, 51, 51
1, 81617, Control_c, 0, 64, 0
1, 81641, Tempo, 628272
1, 81692, Control_c, 0, 64, 127
1, 81698, Tempo, 631579
1, 81720, Note_on_c, 0, 54, 0
1, 81720, Note_on_c, 0, 59, 37
1, 81756, Tempo, 634921
1, 81794, Tempo, 638298
1, 81840, Note_on_c, 0, 59, 0
1, 81840, Note_on_c, 0, 63, 46
1, 81852, Tempo, 641711
1, 81909, Tempo, 645161
1, 81948, Tempo, 648649
1, 81960, Tempo, 690528
1, 81960, Note_on_c, 0, 63, 0
1, 81960, Note_on_c, 0, 66, 56
1, 82050, Note_on_c, 0, 71, 0
1, 82080, Tempo, 632111
1, 82080, Note_on_c, 0, 66, 0
1, 82080, Note_on_c, 0, 51, 0
1, 82080, Note_on_c, 0, 73, 78
1, 82080, Note_on_c, 0, 56, 64
1, 82080, Note_on_c, 0, 53, 58
1, 82097, Control_c, 0, 64, 0
1, 82183, Control_c, 0, 64, 127
1, 82200, Note_on_c, 0, 56, 0
1, 82200, Note_on_c, 0, 59, 48
1, 82320, Note_on_c, 0, 59, 0
1, 82320, Note_on_c, 0, 61, 51
1, 82440, Note_on_c, 0, 61, 0
1, 82440, Note_on_c, 0, 68, 38
1, 82560, Note_on_c, 0, 68, 0
1, 82560, Note_on_c, 0, 53, 0
1, 82560, Note_on_c, 0, 73, 0
1, 82560, Note_on_c, 0, 69, 79
1, 82560, Note_on_c, 0, 57, 49
1, 82560, Note_on_c, 0, 54, 64
1, 82569, Control_c, 0, 64, 0
1, 82617, Control_c, 0, 64, 127
1, 82680, Note_on_c, 0, 57, 0
1, 82680, Note_on_c, 0, 61, 46
1, 82800, Note_on_c, 0, 61, 0
1, 82800, Note_on_c, 0, 69, 0
1, 82800, Note_on_c, 0, 73, 75
1, 82800, Note_on_c, 0, 64, 49
1, 82920, Note_on_c, 0, 64, 0
1, 82920, Note_on_c, 0, 66, 45
1, 83040, Note_on_c, 0, 66, 0
1, 83040, Note_on_c, 0, 73, 0
1, 83040, Note_on_c, 0, 54, 0
1, 83040, Note_on_c, 0, 71, 67
1, 83040, Note_on_c, 0, 54, 57
1, 83040, Note_on_c, 0, 47, 58
1, 83051, Control_c, 0, 64, 0
1, 83101, Control_c, 0, 64, 127
1, 83160, Note_on_c, 0, 54, 0
1, 83160, Note_on_c, 0, 57, 45
1, 83280, Note_on_c, 0, 57, 0
1, 83280, Note_on_c, 0, 71, 0
1, 83280, Note_on_c, 0, 66, 60
1, 83280, Note_on_c, 0, 59, 45
1, 83400, Note_on_c, 0, 59, 0
1, 83400, Note_on_c, 0, 63, 41
1, 83520, Tempo, 613811
1, 83520, Note_on_c, 0, 63, 0
1, 83520, Note_on_c, 0, 66, 0
1, 83520, Note_on_c, 0, 47, 0
1, 83520, Note_on_c, 0, 68, 67
1, 83520, Note_on_c, 0, 52, 58
1, 83534, Control_c, 0, 64, 0
1, 83590, Control_c, 0, 64, 127
1, 83640, Note_on_c, 0, 56, 45
1, 83730, Note_on_c, 0, 68, 0
1, 83760, Tempo, 634921
1, 83760, Note_on_c, 0, 56, 0
1, 83760, Note_on_c, 0, 68, 57
1, 83760, Note_on_c, 0, 59, 45
1, 83764, Control_c, 0, 64, 0
1, 83811, Control_c, 0, 64, 127
1, 83880, Note_on_c, 0, 59, 0
1, 83880, Note_on_c, 0, 64, 42
1, 83940, Tempo, 670391
1, 84000, Tempo, 638298
1, 84000, Note_on_c, 0, 64, 0
1, 84000, Note_on_c, 0, 68, 0
1, 84000, Note_on_c, 0, 52, 0
1, 84000, Note_on_c, 0, 71, 67
1, 84000, Note_on_c, 0, 49, 58
1, 84008, Control_c, 0, 64, 0
1, 84078, Control_c, 0, 64, 127
1, 84120, Note_on_c, 0, 52, 46
1, 84240, Tempo, 652174
1, 84240, Note_on_c, 0, 52, 0
1, 84240, Note_on_c, 0, 71, 0
1, 84240, Note_on_c, 0, 69, 57
1, 84240, Note_on_c, 0, 57, 45
1, 84360, Note_on_c, 0, 57, 0
1, 84360, Note_on_c, 0, 64, 41
1, 84480, Note_on_c, 0, 64, 0
1, 84480, Note_on_c, 0, 69, 0
1, 84480, Note_on_c, 0, 49, 0
1, 84480, Note_on_c, 0, 68, 67
1, 84480, Note_on_c, 0, 52, 63
1, 84480, Note_on_c, 0, 47, 64
1, 84488, Control_c, 0, 64, 0
1, 84586, Control_c, 0, 64, 127
1, 84600, Note_on_c, 0, 52, 0
1, 84600, Note_on_c, 0, 56, 46
1, 84720, Note_on_c, 0, 56, 0
1, 84720, Note_on_c, 0, 59, 46
1, 84840, Note_on_c, 0, 59, 0
1, 84840, Note_on_c, 0, 64, 45
1, 84960, Tempo, 658328
1, 84960, Note_on_c, 0, 64, 0
1, 84960, Note_on_c, 0, 52, 57
1, 85080, Note_on_c, 0, 52, 0
1, 85080, Note_on_c, 0, 56, 45
1, 85200, Note_on_c, 0, 56, 0
1, 85200, Note_on_c, 0, 59, 45
1, 85320, Tempo, 747384
1, 85320, Note_on_c, 0, 59, 0
1, 85320, Note_on_c, 0, 64, 41
1, 85440, Tempo, 665262
1, 85440, Note_on_c, 0, 64, 0
1, 85440, Note_on_c, 0, 68, 0
1, 85440, Note_on_c, 0, 66, 61
1, 85440, Note_on_c, 0, 51, 52
1, 85451, Control_c, 0, 64, 0
1, 85525, Control_c, 0, 64, 127
1, 85560, Note_on_c, 0, 51, 0
1, 85560, Note_on_c, 0, 54, 46
1, 85680, Note_on_c, 0, 54, 0
1, 85680, Note_on_c, 0, 66, 0
1, 85680, Note_on_c, 0, 59, 40
1, 85800, Note_on_c, 0, 59, 0
1, 85800, Note_on_c, 0, 63, 35
1, 85920, Tempo, 632111
1, 85920, Note_on_c, 0, 63, 0
1, 85920, Note_on_c, 0, 47, 0
1, 85920, Note_on_c, 0, 68, 51
1, 85920, Note_on_c, 0, 51, 30
1, 85920, Note_on_c, 0, 45, 37
1, 85940, Control_c, 0, 64, 0
1, 86012, Control_c, 0, 64, 127
1, 86040, Note_on_c, 0, 51, 0
1, 86040, Note_on_c, 0, 54, 26
1, 86160, Tempo, 649421
1, 86160, Note_on_c, 0, 54, 0
1, 86160, Note_on_c, 0, 68, 0
1, 86160, Note_on_c, 0, 69, 45
1, 86160, Note_on_c, 0, 59, 32
1, 86280, Note_on_c, 0, 59, 0
1, 86280, Note_on_c, 0, 63, 34
1, 86400, Tempo, 619835
1, 86400, Note_on_c, 0, 63, 0
1, 86400, Note_on_c, 0, 69, 0
1, 86400, Note_on_c, 0, 45, 0
1, 86400, Note_on_c, 0, 71, 57
1, 86400, Note_on_c, 0, 52, 40
1, 86400, Note_on_c, 0, 44, 46
1, 86408, Control_c, 0, 64, 0
1, 86499, Control_c, 0, 64, 127
1, 86520, Note_on_c, 0, 52, 0
1, 86520, Note_on_c, 0, 56, 26
1, 86640, Note_on_c, 0, 56, 0
1, 86640, Note_on_c, 0, 59, 26
1, 86760, Note_on_c, 0, 59, 0
1, 86760, Note_on_c, 0, 64, 25
1, 86880, Tempo, 635324
1, 86880, Note_on_c, 0, 64, 0
1, 86880, Note_on_c, 0, 71, 0
1, 86880, Note_on_c, 0, 68, 48
1, 86880, Note_on_c, 0, 52, 32
1, 86898, Control_c, 0, 64, 0
1, 86979, Control_c, 0, 64, 127
1, 87000, Note_on_c, 0, 52, 0
1, 87000, Note_on_c, 0, 56, 25
1, 87120, Note_on_c, 0, 56, 0
1, 87120, Note_on_c, 0, 59, 25
1, 87240, Note_on_c, 0, 59, 0
1, 87240, Note_on_c, 0, 64, 23
1, 87360, Tempo, 644953
1, 87360, Note_on_c, 0, 64, 0
1, 87360, Note_on_c, 0, 68, 0
1, 87360, Note_on_c, 0, 44, 0
1, 87360, Note_on_c, 0, 66, 48
1, 87360, Note_on_c, 0, 52, 33
1, 87360, Note_on_c, 0, 45, 42
1, 87377, Control_c, 0, 64, 0
1, 87459, Control_c, 0, 64, 127
1, 87480, Note_on_c, 0, 52, 0
1, 87480, Note_on_c, 0, 54, 27
1, 87600, Note_on_c, 0, 54, 0
1, 87600, Note_on_c, 0, 61, 34
1, 87720, Tempo, 717875
1, 87720, Note_on_c, 0, 61, 0
1, 87720, Note_on_c, 0, 64, 44
1, 87810, Note_on_c, 0, 66, 0
1, 87840, Tempo, 619835
1, 87840, Note_on_c, 0, 64, 0
1, 87840, Note_on_c, 0, 73, 56
1, 87840, Note_on_c, 0, 52, 53
1, 87858, Control_c, 0, 64, 0
1, 87918, Control_c, 0, 64, 127
1, 87960, Note_on_c, 0, 52, 0
1, 87960, Note_on_c, 0, 54, 31
1, 88080, Note_on_c, 0, 54, 0
1, 88080, Note_on_c, 0, 61, 39
1, 88200, Note_on_c, 0, 61, 0
1, 88200, Note_on_c, 0, 64, 23
1, 88282, Tempo, 628272
1, 88320, Note_on_c, 0, 64, 0
1, 88320, Note_on_c, 0, 73, 0
1, 88320, Note_on_c, 0, 45, 0
1, 88320, Note_on_c, 0, 71, 57
1, 88320, Note_on_c, 0, 52, 35
1, 88320, Note_on_c, 0, 47, 46
1, 88338, Control_c, 0, 64, 0
1, 88372, Control_c, 0, 64, 127
1, 88397, Tempo, 625000
1, 88440, Note_on_c, 0, 52, 0
1, 88440, Note_on_c, 0, 56, 26
1, 88512, Tempo, 621762
1, 88560, Note_on_c, 0, 56, 0
1, 88560, Note_on_c, 0, 59, 26
1, 88627, Tempo, 618557
1, 88680, Note_on_c, 0, 59, 0
1, 88680, Note_on_c, 0, 64, 25
1, 88743, Tempo, 615385
1, 88800, Tempo, 632111
1, 88800, Note_on_c, 0, 64, 0
1, 88800, Note_on_c, 0, 71, 0
1, 88800, Note_on_c, 0, 68, 48
1, 88800, Note_on_c, 0, 52, 32
1, 88920, Note_on_c, 0, 52, 0
1, 88920, Note_on_c, 0, 56, 25
1, 89040, Note_on_c, 0, 56, 0
1, 89040, Note_on_c, 0, 59, 25
1, 89160, Note_on_c, 0, 59, 0
1, 89160, Note_on_c, 0, 64, 23
1, 89280, Note_on_c, 0, 64, 0
1, 89280, Note_on_c, 0, 68, 0
1, 89280, Note_on_c, 0, 47, 0
1, 89280, Note_on_c, 0, 66, 49
1, 89280, Note_on_c, 0, 52, 33
1, 89280, Note_on_c, 0, 49, 38
1, 89297, Control_c, 0, 64, 0
1, 89321, Tempo, 628272
1, 89372, Control_c, 0, 64, 127
1, 89378, Tempo, 631579
1, 89400, Note_on_c, 0, 52, 0
1, 89400, Note_on_c, 0, 54, 28
1, 89436, Tempo, 634921
1, 89474, Tempo, 638298
1, 89520, Note_on_c, 0, 54, 0
1, 89520, Note_on_c, 0, 58, 34
1, 89532, Tempo, 641711
1, 89589, Tempo, 645161
1, 89628, Tempo, 648649
1, 89640, Tempo, 690528
1, 89640, Note_on_c, 0, 58, 0
1, 89640, Note_on_c, 0, 64, 42
1, 89730, Note_on_c, 0, 66, 0
1, 89760, Tempo, 619835
1, 89760, Note_on_c, 0, 64, 0
1, 89760, Note_on_c, 0, 76, 64
1, 89760, Note_on_c, 0, 54, 55
1, 89778, Control_c, 0, 64, 0
1, 89838, Control_c, 0, 64, 127
1, 89880, Note_on_c, 0, 54, 0
1, 89880, Note_on_c, 0, 58, 32
1, 90000, Note_on_c, 0, 58, 0
1, 90000, Note_on_c, 0, 64, 41
1, 90120, Note_on_c, 0, 64, 0
1, 90120, Note_on_c, 0, 66, 24
1, 90202, Tempo, 628272
1, 90240, Note_on_c, 0, 66, 0
1, 90240, Note_on_c, 0, 76, 0
1, 90240, Note_on_c, 0, 49, 0
1, 90240, Note_on_c, 0, 76, 60
1, 90240, Note_on_c, 0, 56, 37
1, 90240, Note_on_c, 0, 47, 49
1, 90258, Control_c, 0, 64, 0
1, 90292, Control_c, 0, 64, 127
1, 90317, Tempo, 625000
1, 90360, Note_on_c, 0, 56, 0
1, 90360, Note_on_c, 0, 59, 27
1, 90432, Tempo, 621762
1, 90480, Note_on_c, 0, 59, 0
1, 90480, Note_on_c, 0, 64, 28
1, 90547, Tempo, 618557
1, 90600, Note_on_c, 0, 64, 0
1, 90600, Note_on_c, 0, 68, 27
1, 90663, Tempo, 615385
1, 90720, Tempo, 632111
1, 90720, Note_on_c, 0, 68, 0
1, 90720, Note_on_c, 0, 76, 0
1, 90720, Note_on_c, 0, 71, 52
1, 90720, Note_on_c, 0, 56, 34
1, 90840, Note_on_c, 0, 56, 0
1, 90840, Note_on_c, 0, 59, 27
1, 90960, Note_on_c, 0, 59, 0
1, 90960, Note_on_c, 0, 64, 27
1, 91080, Note_on_c, 0, 64, 0
1, 91080, Note_on_c, 0, 68, 25
1, 91200, Note_on_c, 0, 68, 0
1, 91200, Note_on_c, 0, 47, 0
1, 91200, Note_on_c, 0, 57, 36
1, 91200, Note_on_c, 0, 47, 40
1, 91217, Control_c, 0, 64, 0
1, 91241, Tempo, 628272
1, 91292, Control_c, 0, 64, 127
1, 91298, Tempo, 631579
1, 91320, Note_on_c, 0, 57, 0
1, 91320, Note_on_c, 0, 59, 29
1, 91356, Tempo, 634921
1, 91394, Tempo, 638298
1, 91430, Note_on_c, 0, 71, 0
1, 91440, Tempo, 634921
1, 91440, Note_on_c, 0, 59, 0
1, 91440, Note_on_c, 0, 71, 56
1, 91440, Note_on_c, 0, 64, 36
1, 91444, Control_c, 0, 64, 0
1, 91479, Control_c, 0, 64, 127
1, 91560, Note_on_c, 0, 64, 0
1, 91560, Note_on_c, 0, 66, 44
1, 91620, Tempo, 670391
1, 91680, Tempo, 638298
1, 91680, Note_on_c, 0, 66, 0
1, 91680, Note_on_c, 0, 71, 0
1, 91680, Note_on_c, 0, 73, 62
1, 91680, Note_on_c, 0, 57, 36
1, 91688, Control_c, 0, 64, 0
1, 91737, Control_c, 0, 64, 127
1, 91800, Note_on_c, 0, 57, 0
1, 91800, Note_on_c, 0, 59, 37
1, 91920, Tempo, 652174
1, 91920, Note_on_c, 0, 59, 0
1, 91920, Note_on_c, 0, 73, 0
1, 91920, Note_on_c, 0, 71, 61
1, 91920, Note_on_c, 0, 63, 42
1, 92040, Note_on_c, 0, 63, 0
1, 92040, Note_on_c, 0, 66, 37
1, 92160, Note_on_c, 0, 66, 0
1, 92160, Note_on_c, 0, 71, 0
1, 92160, Note_on_c, 0, 47, 0
1, 92160, Note_on_c, 0, 69, 55
1, 92160, Note_on_c, 0, 54, 49
1, 92160, Note_on_c, 0, 52, 55
1, 92168, Control_c, 0, 64, 0
1, 92266, Control_c, 0, 64, 127
1, 92280, Note_on_c, 0, 54, 0
1, 92280, Note_on_c, 0, 57, 37
1, 92400, Note_on_c, 0, 57, 0
1, 92400, Note_on_c, 0, 59, 43
1, 92520, Note_on_c, 0, 59, 0
1, 92520, Note_on_c, 0, 63, 36
1, 92640, Tempo, 658328
1, 92640, Note_on_c, 0, 63, 0
1, 92640, Note_on_c, 0, 52, 0
1, 92640, Note_on_c, 0, 54, 35
1, 92640, Note_on_c, 0, 47, 46
1, 92760, Note_on_c, 0, 54, 0
1, 92760, Note_on_c, 0, 57, 44
1, 92880, Note_on_c, 0, 57, 0
1, 92880, Note_on_c, 0, 59, 44
1, 93000, Tempo, 747384
1, 93000, Note_on_c, 0, 59, 0
1, 93000, Note_on_c, 0, 63, 39
1, 93120, Tempo, 665262
1, 93120, Note_on_c, 0, 63, 0
1, 93120, Note_on_c, 0, 47, 0
1, 93120, Note_on_c, 0, 69, 0
1, 93120, Note_on_c, 0, 68, 53
1, 93120, Note_on_c, 0, 52, 53
1, 93131, Control_c, 0, 64, 0
1, 93205, Control_c, 0, 64, 127
1, 93240, Note_on_c, 0, 56, 46
1, 93360, Tempo, 640410
1, 93360, Note_on_c, 0, 56, 0
1, 93360, Note_on_c, 0, 68, 0
1, 93360, Note_on_c, 0, 66, 60
1, 93360, Note_on_c, 0, 59, 40
1, 93480, Note_on_c, 0, 59, 0
1, 93480, Note_on_c, 0, 64, 34
1, 93600, Tempo, 617347
1, 93600, Note_on_c, 0, 64, 0
1, 93600, Note_on_c, 0, 66, 0
1, 93600, Note_on_c, 0, 52, 0
1, 93600, Note_on_c, 0, 68, 61
1, 93600, Note_on_c, 0, 52, 36
1, 93620, Control_c, 0, 64, 0
1, 93692, Control_c, 0, 64, 127
1, 93720, Note_on_c, 0, 52, 0
1, 93720, Note_on_c, 0, 56, 31
1, 93840, Tempo, 661594
1, 93840, Note_on_c, 0, 56, 0
1, 93840, Note_on_c, 0, 68, 0
1, 93840, Note_on_c, 0, 69, 61
1, 93840, Note_on_c, 0, 59, 38
1, 93960, Note_on_c, 0, 59, 0
1, 93960, Note_on_c, 0, 64, 41
1, 94080, Tempo, 619835
1, 94080, Note_on_c, 0, 64, 0
1, 94080, Note_on_c, 0, 69, 0
1, 94080, Note_on_c, 0, 71, 68
1, 94080, Note_on_c, 0, 52, 48
1, 94088, Control_c, 0, 64, 0
1, 94179, Control_c, 0, 64, 127
1, 94200, Note_on_c, 0, 52, 0
1, 94200, Note_on_c, 0, 56, 31
1, 94320, Note_on_c, 0, 56, 0
1, 94320, Note_on_c, 0, 59, 31
1, 94440, Note_on_c, 0, 59, 0
1, 94440, Note_on_c, 0, 64, 30
1, 94560, Tempo, 635324
1, 94560, Note_on_c, 0, 64, 0
1, 94560, Note_on_c, 0, 71, 0
1, 94560, Note_on_c, 0, 68, 59
1, 94560, Note_on_c, 0, 52, 39
1, 94560, Note_on_c, 0, 47, 47
1, 94680, Note_on_c, 0, 52, 0
1, 94680, Note_on_c, 0, 56, 31
1, 94800, Note_on_c, 0, 56, 0
1, 94800, Note_on_c, 0, 59, 31
1, 94920, Note_on_c, 0, 59, 0
1, 94920, Note_on_c, 0, 64, 28
1, 95004, Tempo, 642467
1, 95040, Note_on_c, 0, 64, 0
1, 95040, Note_on_c, 0, 47, 0
1, 95040, Note_on_c, 0, 68, 0
1, 95040, Note_on_c, 0, 66, 60
1, 95040, Note_on_c, 0, 52, 41
1, 95040, Note_on_c, 0, 46, 52
1, 95057, Control_c, 0, 64, 0
1, 95080, Tempo, 645925
1, 95138, Tempo, 649421
1, 95139, Control_c, 0, 64, 127
1, 95160, Note_on_c, 0, 52, 0
1, 95160, Note_on_c, 0, 54, 34
1, 95196, Tempo, 652955
1, 95272, Tempo, 656527
1, 95280, Note_on_c, 0, 54, 0
1, 95280, Note_on_c, 0, 61, 42
1, 95330, Tempo, 660139
1, 95388, Tempo, 663790
1, 95400, Tempo, 717875
1, 95400, Note_on_c, 0, 61, 0
1, 95400, Note_on_c, 0, 64, 55
1, 95490, Note_on_c, 0, 66, 0
1, 95520, Tempo, 619835
1, 95520, Note_on_c, 0, 64, 0
1, 95520, Note_on_c, 0, 46, 0
1, 95520, Note_on_c, 0, 73, 71
1, 95520, Note_on_c, 0, 51, 67
1, 95520, Note_on_c, 0, 45, 47
1, 95538, Control_c, 0, 64, 0
1, 95598, Control_c, 0, 64, 127
1, 95640, Note_on_c, 0, 51, 0
1, 95640, Note_on_c, 0, 54, 39
1, 95760, Note_on_c, 0, 54, 0
1, 95760, Note_on_c, 0, 63, 49
1, 95880, Note_on_c, 0, 63, 0
1, 95880, Note_on_c, 0, 66, 29
1, 95962, Tempo, 628272
1, 96000, Note_on_c, 0, 66, 0
1, 96000, Note_on_c, 0, 45, 0
1, 96000, Note_on_c, 0, 73, 0
1, 96000, Note_on_c, 0, 71, 73
1, 96000, Note_on_c, 0, 52, 45
1, 96000, Note_on_c, 0, 44, 59
1, 96018, Control_c, 0, 64, 0
1, 96052, Control_c, 0, 64, 127
1, 96077, Tempo, 625000
1, 96120, Note_on_c, 0, 52, 0
1, 96120, Note_on_c, 0, 56, 33
1, 96192, Tempo, 621762
1, 96240, Note_on_c, 0, 56, 0
1, 96240, Note_on_c, 0, 59, 33
1, 96307, Tempo, 618557
1, 96360, Note_on_c, 0, 59, 0
1, 96360, Note_on_c, 0, 64, 32
1, 96423, Tempo, 615385
1, 96480, Tempo, 632111
1, 96480, Note_on_c, 0, 64, 0
1, 96480, Note_on_c, 0, 44, 0
1, 96480, Note_on_c, 0, 71, 0
1, 96480, Note_on_c, 0, 68, 62
1, 96480, Note_on_c, 0, 52, 41
1, 96480, Note_on_c, 0, 47, 53
1, 96600, Note_on_c, 0, 52, 0
1, 96600, Note_on_c, 0, 56, 32
1, 96720, Note_on_c, 0, 56, 0
1, 96720, Note_on_c, 0, 59, 32
1, 96840, Note_on_c, 0, 59, 0
1, 96840, Note_on_c, 0, 64, 30
1, 96960, Note_on_c, 0, 64, 0
1, 96960, Note_on_c, 0, 47, 0
1, 96960, Note_on_c, 0, 68, 0
1, 96960, Note_on_c, 0, 66, 63
1, 96960, Note_on_c, 0, 52, 43
1, 96960, Note_on_c, 0, 46, 60
1, 96977, Control_c, 0, 64, 0
1, 97001, Tempo, 628272
1, 97052, Control_c, 0, 64, 127
1, 97058, Tempo, 631579
1, 97080, Note_on_c, 0, 52, 0
1, 97080, Note_on_c, 0, 54, 35
1, 97116, Tempo, 634921
1, 97154, Tempo, 638298
1, 97200, Note_on_c, 0, 54, 0
1, 97200, Note_on_c, 0, 61, 43
1, 97212, Tempo, 641711
1, 97269, Tempo, 645161
1, 97308, Tempo, 648649
1, 97320, Tempo, 690528
1, 97320, Note_on_c, 0, 61, 0
1, 97320, Note_on_c, 0, 64, 53
1, 97410, Note_on_c, 0, 66, 0
1, 97440, Tempo, 619835
1, 97440, Note_on_c, 0, 64, 0
1, 97440, Note_on_c, 0, 46, 0
1, 97440, Note_on_c, 0, 76, 75
1, 97440, Note_on_c, 0, 54, 71
1, 97440, Note_on_c, 0, 49, 61
1, 97458, Control_c, 0, 64, 0
1, 97518, Control_c, 0, 64, 127
1, 97560, Note_on_c, 0, 54, 0
1, 97560, Note_on_c, 0, 58, 41
1, 97680, Note_on_c, 0, 58, 0
1, 97680, Note_on_c, 0, 64, 52
1, 97800, Note_on_c, 0, 64, 0
1, 97800, Note_on_c, 0, 66, 31
1, 97882, Tempo, 628272
1, 97920, Note_on_c, 0, 66, 0
1, 97920, Note_on_c, 0, 49, 0
1, 97920, Note_on_c, 0, 76, 0
1, 97920, Note_on_c, 0, 75, 77
1, 97920, Note_on_c, 0, 54, 47
1, 97920, Note_on_c, 0, 47, 62
1, 97938, Control_c, 0, 64, 0
1, 97972, Control_c, 0, 64, 127
1, 97997, Tempo, 625000
1, 98040, Note_on_c, 0, 54, 0
1, 98040, Note_on_c, 0, 59, 35
1, 98112, Tempo, 621762
1, 98160, Note_on_c, 0, 59, 0
1, 98160, Note_on_c, 0, 63, 35
1, 98227, Tempo, 618557
1, 98280, Note_on_c, 0, 63, 0
1, 98280, Note_on_c, 0, 66, 34
1, 98343, Tempo, 615385
1, 98400, Tempo, 632111
1, 98400, Note_on_c, 0, 66, 0
1, 98400, Note_on_c, 0, 47, 0
1, 98400, Note_on_c, 0, 75, 0
1, 98400, Note_on_c, 0, 73, 66
1, 98400, Note_on_c, 0, 58, 44
1, 98400, Note_on_c, 0, 52, 58
1, 98417, Control_c, 0, 64, 0
1, 98520, Note_on_c, 0, 58, 0
1, 98520, Note_on_c, 0, 61, 34
1, 98520, Control_c, 0, 64, 127
1, 98640, Note_on_c, 0, 61, 0
1, 98640, Note_on_c, 0, 64, 34
1, 98760, Note_on_c, 0, 64, 0
1, 98760, Note_on_c, 0, 67, 31
1, 98880, Note_on_c, 0, 67, 0
1, 98880, Note_on_c, 0, 52, 0
1, 98880, Note_on_c, 0, 73, 0
1, 98880, Note_on_c, 0, 71, 69
1, 98880, Note_on_c, 0, 59, 46
1, 98880, Note_on_c, 0, 51, 64
1, 98892, Control_c, 0, 64, 0
1, 98921, Tempo, 628272
1, 98978, Tempo, 631579
1, 98983, Control_c, 0, 64, 127
1, 99000, Note_on_c, 0, 59, 0
1, 99000, Note_on_c, 0, 63, 37
1, 99036, Tempo, 634921
1, 99074, Tempo, 638298
1, 99120, Tempo, 634921
1, 99120, Note_on_c, 0, 63, 0
1, 99120, Note_on_c, 0, 71, 0
1, 99120, Note_on_c, 0, 75, 70
1, 99120, Note_on_c, 0, 66, 46
1, 99240, Note_on_c, 0, 66, 0
1, 99240, Note_on_c, 0, 69, 56
1, 99300, Tempo, 670391
1, 99360, Tempo, 638298
1, 99360, Note_on_c, 0, 69, 0
1, 99360, Note_on_c, 0, 75, 0
1, 99360, Note_on_c, 0, 51, 0
1, 99360, Note_on_c, 0, 78, 75
1, 99360, Note_on_c, 0, 63, 46
1, 99360, Note_on_c, 0, 59, 61
1, 99480, Note_on_c, 0, 63, 0
1, 99480, Note_on_c, 0, 66, 46
1, 99600, Tempo, 652174
1, 99600, Note_on_c, 0, 66, 0
1, 99600, Note_on_c, 0, 78, 0
1, 99600, Note_on_c, 0, 81, 77
1, 99600, Note_on_c, 0, 69, 53
1, 99720, Note_on_c, 0, 69, 0
1, 99720, Note_on_c, 0, 71, 46
1, 99840, Note_on_c, 0, 71, 0
1, 99840, Note_on_c, 0, 81, 0
1, 99840, Note_on_c, 0, 59, 0
1, 99840, Note_on_c, 0, 80, 75
1, 99840, Note_on_c, 0, 59, 60
1, 99840, Note_on_c, 0, 52, 68
1, 99848, Control_c, 0, 64, 0
1, 99946, Control_c, 0, 64, 127
1, 99960, Note_on_c, 0, 59, 0
1, 99960, Note_on_c, 0, 64, 46
1, 100080, Note_on_c, 0, 64, 0
1, 100080, Note_on_c, 0, 80, 0
1, 100080, Note_on_c, 0, 75, 63
1, 100080, Note_on_c, 0, 68, 53
1, 100200, Note_on_c, 0, 68, 0
1, 100200, Note_on_c, 0, 71, 44
1, 100320, Tempo, 658328
1, 100320, Note_on_c, 0, 71, 0
1, 100320, Note_on_c, 0, 75, 0
1, 100320, Note_on_c, 0, 52, 0
1, 100320, Note_on_c, 0, 78, 71
1, 100320, Note_on_c, 0, 60, 43
1, 100320, Note_on_c, 0, 56, 58
1, 100334, Control_c, 0, 64, 0
1, 100417, Control_c, 0, 64, 127
1, 100440, Note_on_c, 0, 60, 0
1, 100440, Note_on_c, 0, 64, 46
1, 100560, Note_on_c, 0, 64, 0
1, 100560, Note_on_c, 0, 78, 0
1, 100560, Note_on_c, 0, 76, 64
1, 100560, Note_on_c, 0, 68, 53
1, 100680, Tempo, 747384
1, 100680, Note_on_c, 0, 68, 0
1, 100680, Note_on_c, 0, 72, 47
1, 100800, Tempo, 665262
1, 100800, Note_on_c, 0, 72, 0
1, 100800, Note_on_c, 0, 76, 0
1, 100800, Note_on_c, 0, 56, 0
1, 100800, Note_on_c, 0, 75, 63
1, 100800, Note_on_c, 0, 57, 63
1, 100811, Control_c, 0, 64, 0
1, 100885, Control_c, 0, 64, 127
1, 100920, Note_on_c, 0, 61, 54
1, 101040, Note_on_c, 0, 61, 0
1, 101040, Note_on_c, 0, 75, 0
1, 101040, Note_on_c, 0, 73, 54
1, 101040, Note_on_c, 0, 64, 47
1, 101160, Note_on_c, 0, 64, 0
1, 101160, Note_on_c, 0, 66, 40
1, 101280, Note_on_c, 0, 66, 0
1, 101280, Note_on_c, 0, 73, 0
1, 101280, Note_on_c, 0, 57, 0
1, 101280, Note_on_c, 0, 69, 59
1, 101280, Note_on_c, 0, 52, 43
1, 101280, Note_on_c, 0, 45, 57
1, 101400, Note_on_c, 0, 52, 0
1, 101400, Note_on_c, 0, 54, 53
1, 101520, Note_on_c, 0, 54, 0
1, 101520, Note_on_c, 0, 69, 0
1, 101520, Note_on_c, 0, 66, 51
1, 101520, Note_on_c, 0, 57, 53
1, 101640, Note_on_c, 0, 57, 0
1, 101640, Note_on_c, 0, 60, 47
1, 101760, Note_on_c, 0, 60, 0
1, 101760, Note_on_c, 0, 66, 0
1, 101760, Note_on_c, 0, 45, 0
1, 101760, Note_on_c, 0, 64, 63
1, 101760, Note_on_c, 0, 47, 63
1, 101774, Control_c, 0, 64, 0
1, 101880, Note_on_c, 0, 52, 43
1, 101937, Control_c, 0, 64, 127
1, 102000, Note_on_c, 0, 52, 0
1, 102000, Note_on_c, 0, 56, 40
1, 102120, Note_on_c, 0, 56, 0
1, 102120, Note_on_c, 0, 59, 34
1, 102240, Note_on_c, 0, 59, 0
1, 102240, Note_on_c, 0, 47, 0
1, 102240, Note_on_c, 0, 47, 42
1, 102360, Note_on_c, 0, 47, 0
1, 102360, Note_on_c, 0, 52, 34
1, 102480, Note_on_c, 0, 52, 0
1, 102480, Note_on_c, 0, 56, 40
1, 102600, Note_on_c, 0, 56, 0
1, 102600, Note_on_c, 0, 59, 36
1, 102720, Tempo, 665262
1, 102720, Note_on_c, 0, 59, 0
1, 102720, Note_on_c, 0, 64, 0
1, 102720, Note_on_c, 0, 63, 44
1, 102720, Note_on_c, 0, 47, 29
1, 102731, Control_c, 0, 64, 0
1, 102777, Tempo, 665262
1, 102805, Control_c, 0, 64, 127
1, 102840, Note_on_c, 0, 47, 0
1, 102840, Note_on_c, 0, 54, 31
1, 102911, Tempo, 661594
1, 102960, Note_on_c, 0, 54, 0
1, 102960, Note_on_c, 0, 57, 38
1, 103026, Tempo, 657967
1, 103080, Note_on_c, 0, 57, 0
1, 103080, Note_on_c, 0, 59, 44
1, 103141, Tempo, 654379
1, 103200, Note_on_c, 0, 59, 0
1, 103200, Note_on_c, 0, 47, 49
1, 103200, Note_on_c, 0, 35, 38
1, 103257, Tempo, 650830
1, 103320, Note_on_c, 0, 47, 0
1, 103320, Note_on_c, 0, 54, 33
1, 103372, Tempo, 654379
1, 103440, Note_on_c, 0, 54, 0
1, 103440, Note_on_c, 0, 57, 41
1, 103487, Tempo, 657967
1, 103560, Note_on_c, 0, 57, 0
1, 103560, Note_on_c, 0, 59, 31
1, 103602, Tempo, 661594
1, 103680, Note_on_c, 0, 59, 0
1, 103680, Note_on_c, 0, 63, 0
1, 103680, Note_on_c, 0, 62, 43
1, 103680, Note_on_c, 0, 47, 32
1, 103688, Control_c, 0, 64, 0
1, 103717, Tempo, 665262
1, 103786, Control_c, 0, 64, 127
1, 103800, Note_on_c, 0, 47, 0
1, 103800, Note_on_c, 0, 53, 26
1, 103920, Note_on_c, 0, 53, 0
1, 103920, Note_on_c, 0, 56, 30
1, 104040, Note_on_c, 0, 56, 0
1, 104040, Note_on_c, 0, 59, 38
1, 104160, Tempo, 658328
1, 104160, Note_on_c, 0, 59, 0
1, 104160, Note_on_c, 0, 35, 0
1, 104160, Note_on_c, 0, 47, 41
1, 104160, Note_on_c, 0, 35, 40
1, 104280, Note_on_c, 0, 47, 0
1, 104280, Note_on_c, 0, 53, 25
1, 104400, Note_on_c, 0, 53, 0
1, 104400, Note_on_c, 0, 56, 25
1, 104520, Tempo, 747384
1, 104520, Note_on_c, 0, 56, 0
1, 104520, Note_on_c, 0, 59, 23
1, 104640, Tempo, 665262
1, 104640, Note_on_c, 0, 59, 0
1, 104640, Note_on_c, 0, 35, 0
1, 104640, Note_on_c, 0, 62, 0
1, 104640, Note_on_c, 0, 61, 36
1, 104640, Note_on_c, 0, 45, 29
1, 104640, Note_on_c, 0, 33, 34
1, 104651, Control_c, 0, 64, 0
1, 104725, Control_c, 0, 64, 127
1, 104760, Note_on_c, 0, 45, 0
1, 104760, Note_on_c, 0, 49, 25
1, 104880, Note_on_c, 0, 49, 0
1, 104880, Note_on_c, 0, 61, 0
1, 104880, Note_on_c, 0, 54, 25
1, 105000, Note_on_c, 0, 54, 0
1, 105000, Note_on_c, 0, 57, 24
1, 105110, Note_on_c, 0, 57, 0
1, 105120, Tempo, 632111
1, 105120, Note_on_c, 0, 33, 0
1, 105120, Note_on_c, 0, 61, 56
1, 105120, Note_on_c, 0, 45, 31
1, 105120, Note_on_c, 0, 32, 39
1, 105137, Control_c, 0, 64, 0
1, 105223, Control_c, 0, 64, 127
1, 105240, Note_on_c, 0, 45, 0
1, 105240, Note_on_c, 0, 49, 30
1, 105360, Note_on_c, 0, 49, 0
1, 105360, Note_on_c, 0, 54, 33
1, 105480, Note_on_c, 0, 54, 0
1, 105480, Note_on_c, 0, 57, 38
1, 105600, Note_on_c, 0, 57, 0
1, 105600, Note_on_c, 0, 32, 0
1, 105600, Note_on_c, 0, 61, 0
1, 105600, Note_on_c, 0, 63, 58
1, 105600, Note_on_c, 0, 45, 45
1, 105600, Note_on_c, 0, 30, 48
1, 105609, Control_c, 0, 64, 0
1, 105657, Control_c, 0, 64, 127
1, 105720, Note_on_c, 0, 45, 0
1, 105720, Note_on_c, 0, 51, 30
1, 105840, Note_on_c, 0, 51, 0
1, 105840, Note_on_c, 0, 57, 32
1, 105960, Note_on_c, 0, 57, 0
1, 105960, Note_on_c, 0, 59, 37
1, 106080, Note_on_c, 0, 59, 0
1, 106080, Note_on_c, 0, 30, 0
1, 106080, Note_on_c, 0, 63, 0
1, 106080, Note_on_c, 0, 64, 65
1, 106080, Note_on_c, 0, 45, 41
1, 106080, Note_on_c, 0, 40, 53
1, 106091, Control_c, 0, 64, 0
1, 106158, Control_c, 0, 64, 127
1, 106200, Note_on_c, 0, 45, 0
1, 106200, Note_on_c, 0, 52, 33
1, 106320, Note_on_c, 0, 52, 0
1, 106320, Note_on_c, 0, 57, 37
1, 106440, Note_on_c, 0, 57, 0
1, 106440, Note_on_c, 0, 59, 41
1, 106560, Tempo, 622859
1, 106560, Note_on_c, 0, 59, 0
1, 106560, Note_on_c, 0, 40, 0
1, 106560, Note_on_c, 0, 64, 0
1, 106560, Note_on_c, 0, 68, 70
1, 106560, Note_on_c, 0, 47, 45
1, 106560, Note_on_c, 0, 39, 57
1, 106574, Control_c, 0, 64, 0
1, 106617, Control_c, 0, 64, 127
1, 106680, Note_on_c, 0, 47, 0
1, 106680, Note_on_c, 0, 54, 35
1, 106800, Tempo, 635324
1, 106800, Note_on_c, 0, 54, 0
1, 106800, Note_on_c, 0, 57, 46
1, 106860, Tempo, 641711
1, 106920, Note_on_c, 0, 57, 0
1, 106920, Note_on_c, 0, 59, 38
1, 106980, Tempo, 751880
1, 107040, Tempo, 654950
1, 107040, Note_on_c, 0, 59, 0
1, 107040, Note_on_c, 0, 39, 0
1, 107040, Note_on_c, 0, 68, 0
1, 107040, Note_on_c, 0, 66, 63
1, 107040, Note_on_c, 0, 47, 40
1, 107040, Note_on_c, 0, 35, 49
1, 107062, Control_c, 0, 64, 0
1, 107124, Control_c, 0, 64, 127
1, 107160, Note_on_c, 0, 47, 0
1, 107160, Note_on_c, 0, 51, 32
1, 107280, Note_on_c, 0, 51, 0
1, 107280, Note_on_c, 0, 57, 31
1, 107400, Tempo, 717875
1, 107400, Note_on_c, 0, 57, 0
1, 107400, Note_on_c, 0, 66, 0
1, 107400, Note_on_c, 0, 64, 53
1, 107400, Note_on_c, 0, 59, 28
1, 107510, Note_on_c, 0, 64, 0
1, 107520, Tempo, 658328
1, 107520, Note_on_c, 0, 59, 0
1, 107520, Note_on_c, 0, 35, 0
1, 107520, Note_on_c, 0, 64, 66
1, 107520, Note_on_c, 0, 47, 36
1, 107520, Note_on_c, 0, 40, 55
1, 107528, Control_c, 0, 64, 0
1, 107626, Control_c, 0, 64, 127
1, 107640, Note_on_c, 0, 47, 0
1, 107640, Note_on_c, 0, 52, 32
1, 107760, Note_on_c, 0, 52, 0
1, 107760, Note_on_c, 0, 56, 32
1, 107880, Note_on_c, 0, 56, 0
1, 107880, Note_on_c, 0, 59, 31
1, 108000, Tempo, 658328
1, 108000, Note_on_c, 0, 59, 0
1, 108000, Note_on_c, 0, 47, 40
1, 108120, Note_on_c, 0, 47, 0
1, 108120, Note_on_c, 0, 52, 31
1, 108240, Note_on_c, 0, 52, 0
1, 108240, Note_on_c, 0, 56, 31
1, 108360, Tempo, 747384
1, 108360, Note_on_c, 0, 56, 0
1, 108360, Note_on_c, 0, 59, 28
1, 108470, Note_on_c, 0, 40, 0
1, 108480, Tempo, 665262
1, 108480, Note_on_c, 0, 59, 0
1, 108480, Note_on_c, 0, 64, 0
1, 108480, Note_on_c, 0, 47, 36
1, 108480, Note_on_c, 0, 40, 47
1, 108600, Note_on_c, 0, 47, 0
1, 108600, Note_on_c, 0, 52, 31
1, 108720, Note_on_c, 0, 52, 0
1, 108720, Note_on_c, 0, 56, 31
1, 108840, Note_on_c, 0, 56, 0
1, 108840, Note_on_c, 0, 59, 30
1, 108960, Tempo, 652955
1, 108960, Note_on_c, 0, 59, 0
1, 108960, Note_on_c, 0, 62, 49
1, 108960, Note_on_c, 0, 47, 34
1, 108962, Control_c, 0, 64, 0
1, 109036, Control_c, 0, 64, 127
1, 109080, Note_on_c, 0, 47, 0
1, 109080, Note_on_c, 0, 52, 30
1, 109200, Note_on_c, 0, 52, 0
1, 109200, Note_on_c, 0, 56, 31
1, 109320, Note_on_c, 0, 56, 0
1, 109320, Note_on_c, 0, 59, 33
1, 109440, Tempo, 639046
1, 109440, Note_on_c, 0, 59, 0
1, 109440, Note_on_c, 0, 62, 0
1, 109440, Note_on_c, 0, 61, 55
1, 109440, Note_on_c, 0, 45, 33
1, 109458, Control_c, 0, 64, 0
1, 109504, Control_c, 0, 64, 127
1, 109560, Note_on_c, 0, 45, 0
1, 109560, Note_on_c, 0, 49, 24
1, 109680, Note_on_c, 0, 49, 0
1, 109680, Note_on_c, 0, 52, 24
1, 109800, Note_on_c, 0, 52, 0
1, 109800, Note_on_c, 0, 57, 23
1, 109920, Tempo, 632111
1, 109920, Note_on_c, 0, 57, 0
1, 109920, Note_on_c, 0, 45, 30
1, 110040, Note_on_c, 0, 45, 0
1, 110040, Note_on_c, 0, 49, 23
1, 110160, Note_on_c, 0, 49, 0
1, 110160, Note_on_c, 0, 52, 23
1, 110280, Note_on_c, 0, 52, 0
1, 110280, Note_on_c, 0, 57, 20
1, 110390, Note_on_c, 0, 40, 0
1, 110400, Note_on_c, 0, 57, 0
1, 110400, Note_on_c, 0, 61, 0
1, 110400, Note_on_c, 0, 45, 29
1, 110400, Note_on_c, 0, 40, 42
1, 110441, Tempo, 628272
1, 110498, Tempo, 631579
1, 110520, Note_on_c, 0, 45, 0
1, 110520, Note_on_c, 0, 49, 24
1, 110556, Tempo, 634921
1, 110594, Tempo, 638298
1, 110640, Note_on_c, 0, 49, 0
1, 110640, Note_on_c, 0, 52, 29
1, 110652, Tempo, 641711
1, 110709, Tempo, 645161
1, 110748, Tempo, 648649
1, 110760, Tempo, 690528
1, 110760, Note_on_c, 0, 52, 0
1, 110760, Note_on_c, 0, 57, 35
1, 110880, Tempo, 652955
1, 110880, Note_on_c, 0, 57, 0
1, 110880, Note_on_c, 0, 60, 42
1, 110880, Note_on_c, 0, 45, 29
1, 110882, Control_c, 0, 64, 0
1, 110956, Control_c, 0, 64, 127
1, 111000, Note_on_c, 0, 45, 0
1, 111000, Note_on_c, 0, 48, 25
1, 111120, Note_on_c, 0, 48, 0
1, 111120, Note_on_c, 0, 52, 27
1, 111240, Note_on_c, 0, 52, 0
1, 111240, Note_on_c, 0, 57, 28
1, 111360, Tempo, 639046
1, 111360, Note_on_c, 0, 57, 0
1, 111360, Note_on_c, 0, 60, 0
1, 111360, Note_on_c, 0, 59, 47
1, 111360, Note_on_c, 0, 42, 29
1, 111378, Control_c, 0, 64, 0
1, 111424, Control_c, 0, 64, 127
1, 111480, Note_on_c, 0, 42, 0
1, 111480, Note_on_c, 0, 47, 21
1, 111600, Note_on_c, 0, 47, 0
1, 111600, Note_on_c, 0, 51, 21
1, 111720, Note_on_c, 0, 51, 0
1, 111720, Note_on_c, 0, 57, 20
1, 111840, Tempo, 632111
1, 111840, Note_on_c, 0, 57, 0
1, 111840, Note_on_c, 0, 42, 25
1, 111960, Note_on_c, 0, 42, 0
1, 111960, Note_on_c, 0, 47, 20
1, 112080, Note_on_c, 0, 47, 0
1, 112080, Note_on_c, 0, 51, 19
1, 112200, Note_on_c, 0, 51, 0
1, 112200, Note_on_c, 0, 57, 17
1, 112310, Note_on_c, 0, 40, 0
1, 112320, Note_on_c, 0, 57, 0
1, 112320, Note_on_c, 0, 59, 0
1, 112320, Note_on_c, 0, 42, 25
1, 112320, Note_on_c, 0, 40, 36
1, 112361, Tempo, 628272
1, 112418, Tempo, 631579
1, 112440, Note_on_c, 0, 42, 0
1, 112440, Note_on_c, 0, 47, 20
1, 112476, Tempo, 634921
1, 112514, Tempo, 638298
1, 112560, Note_on_c, 0, 47, 0
1, 112560, Note_on_c, 0, 51, 24
1, 112572, Tempo, 641711
1, 112629, Tempo, 645161
1, 112668, Tempo, 648649
1, 112680, Tempo, 690528
1, 112680, Note_on_c, 0, 51, 0
1, 112680, Note_on_c, 0, 57, 30
1, 112800, Tempo, 672721
1, 112800, Note_on_c, 0, 57, 0
1, 112800, Note_on_c, 0, 68, 36
1, 112800, Note_on_c, 0, 47, 25
1, 112802, Control_c, 0, 64, 0
1, 112876, Control_c, 0, 64, 127
1, 112920, Note_on_c, 0, 47, 0
1, 112920, Note_on_c, 0, 51, 21
1, 113040, Note_on_c, 0, 51, 0
1, 113040, Note_on_c, 0, 68, 0
1, 113040, Note_on_c, 0, 66, 35
1, 113040, Note_on_c, 0, 57, 23
1, 113160, Note_on_c, 0, 57, 0
1, 113160, Note_on_c, 0, 59, 24
1, 113280, Tempo, 650830
1, 113280, Note_on_c, 0, 59, 0
1, 113280, Note_on_c, 0, 66, 0
1, 113280, Note_on_c, 0, 64, 39
1, 113280, Note_on_c, 0, 47, 24
1, 113298, Control_c, 0, 64, 0
1, 113344, Control_c, 0, 64, 127
1, 113400, Note_on_c, 0, 47, 0
1, 113400, Note_on_c, 0, 52, 18
1, 113520, Note_on_c, 0, 52, 0
1, 113520, Note_on_c, 0, 56, 18
1, 113640, Note_on_c, 0, 56, 0
1, 113640, Note_on_c, 0, 59, 17
1, 113760, Tempo, 637010
1, 113760, Note_on_c, 0, 59, 0
1, 113760, Note_on_c, 0, 47, 22
1, 113880, Note_on_c, 0, 47, 0
1, 113880, Note_on_c, 0, 52, 17
1, 114000, Note_on_c, 0, 52, 0
1, 114000, Note_on_c, 0, 56, 17
1, 114120, Note_on_c, 0, 56, 0
1, 114120, Note_on_c, 0, 59, 16
1, 114230, Note_on_c, 0, 40, 0
1, 114240, Note_on_c, 0, 59, 0
1, 114240, Note_on_c, 0, 64, 0
1, 114240, Note_on_c, 0, 47, 23
1, 114240, Note_on_c, 0, 40, 32
1, 114251, Control_c, 0, 64, 0
1, 114281, Tempo, 628272
1, 114338, Tempo, 631579
1, 114360, Note_on_c, 0, 47, 0
1, 114360, Note_on_c, 0, 52, 15
1, 114374, Control_c, 0, 64, 127
1, 114396, Tempo, 634921
1, 114434, Tempo, 638298
1, 114480, Note_on_c, 0, 52, 0
1, 114480, Note_on_c, 0, 56, 19
1, 114492, Tempo, 641711
1, 114549, Tempo, 645161
1, 114600, Tempo, 721241
1, 114600, Note_on_c, 0, 56, 0
1, 114600, Note_on_c, 0, 59, 22
1, 114720, Tempo, 684229
1, 114720, Note_on_c, 0, 59, 0
1, 114720, Note_on_c, 0, 68, 34
1, 114720, Note_on_c, 0, 47, 24
1, 114840, Note_on_c, 0, 47, 0
1, 114840, Note_on_c, 0, 52, 18
1, 114960, Note_on_c, 0, 52, 0
1, 114960, Note_on_c, 0, 56, 20
1, 115080, Note_on_c, 0, 56, 0
1, 115080, Note_on_c, 0, 59, 20
1, 115200, Tempo, 672721
1, 115200, Note_on_c, 0, 59, 0
1, 115200, Note_on_c, 0, 68, 0
1, 115200, Note_on_c, 0, 64, 38
1, 115200, Note_on_c, 0, 47, 24
1, 115320, Note_on_c, 0, 47, 0
1, 115320, Note_on_c, 0, 52, 17
1, 115440, Note_on_c, 0, 52, 0
1, 115440, Note_on_c, 0, 56, 17
1, 115560, Note_on_c, 0, 56, 0
1, 115560, Note_on_c, 0, 59, 17
1, 115670, Note_on_c, 0, 40, 0
1, 115680, Note_on_c, 0, 59, 0
1, 115680, Note_on_c, 0, 47, 21
1, 115680, Note_on_c, 0, 40, 24
1, 115800, Note_on_c, 0, 47, 0
1, 115800, Note_on_c, 0, 52, 17
1, 115920, Note_on_c, 0, 52, 0
1, 115920, Note_on_c, 0, 56, 16
1, 116040, Note_on_c, 0, 56, 0
1, 116040, Note_on_c, 0, 59, 14
1, 116141, Tempo, 670466
1, 116150, Note_on_c, 0, 40, 0
1, 116150, Note_on_c, 0, 64, 0
1, 116160, Note_on_c, 0, 59, 0
1, 116160, Note_on_c, 0, 64, 38
1, 116160, Note_on_c, 0, 47, 24
1, 116160, Note_on_c, 0, 40, 24
1, 116180, Tempo, 674233
1, 116199, Tempo, 678043
1, 116237, Tempo, 681896
1, 116257, Tempo, 685793
1, 116280, Note_on_c, 0, 47, 0
1, 116280, Note_on_c, 0, 52, 17
1, 116295, Tempo, 689734
1, 116314, Tempo, 693722
1, 116353, Tempo, 697756
1, 116372, Tempo, 701836
1, 116400, Note_on_c, 0, 52, 0
1, 116400, Note_on_c, 0, 56, 17
1, 116410, Tempo, 705965
1, 116429, Tempo, 710143
1, 116449, Tempo, 714371
1, 116487, Tempo, 718649
1, 116506, Tempo, 722979
1, 116520, Note_on_c, 0, 56, 0
1, 116520, Note_on_c, 0, 59, 17
1, 116545, Tempo, 727361
1, 116564, Tempo, 731797
1, 116602, Tempo, 736287
1, 116621, Tempo, 740832
1, 116630, Note_on_c, 0, 40, 0
1, 116640, Note_on_c, 0, 59, 0
1, 116640, Note_on_c, 0, 47, 21
1, 116640, Note_on_c, 0, 40, 23
1, 116660, Tempo, 745434
1, 116679, Tempo, 750094
1, 116717, Tempo, 754812
1, 116756, Tempo, 764429
1, 116760, Tempo, 816438
1, 116760, Note_on_c, 0, 47, 0
1, 116760, Note_on_c, 0, 52, 17
1, 116880, Tempo, 882483
1, 116880, Note_on_c, 0, 52, 0
1, 116880, Note_on_c, 0, 56, 16
1, 117000, Tempo, 1212366
1, 117000, Note_on_c, 0, 56, 0
1, 117000, Note_on_c, 0, 59, 14
1, 117110, Note_on_c, 0, 40, 0
1, 117110, Note_on_c, 0, 64, 0
1, 117120, Note_on_c, 0, 59, 0
1, 117120, Note_on_c, 0, 56, 19
1, 117120, Note_on_c, 0, 64, 26
1, 117120, Note_on_c, 0, 40, 15
1, 117120, Note_on_c, 0, 47, 15
1, 119040, Note_on_c, 0, 47, 0
1, 119040, Note_on_c, 0, 56, 0
1, 119040, Note_on_c, 0, 64, 0
1, 119040, Note_on_c, 0, 40, 0
1, 120480, Control_c, 0, 64, 0
1, 120480, End_track
0, 0, End_of_file
