0, 0, Header, 1, 5, 192
1, 0, Start_track
1, 0, Title_t, "Francis Poulenc: Cinq Impromptus - 1.Très agité"
1, 0, Copyright_t, "Adaptation for Disklavier pianos, by: Robert C. Kuhmann (c) 2012."
1, 0, Text_t, "By Lyndon Meyer\012"
1, 0, Time_signature, 4, 3, 12, 8
1, 0, Key_signature, 0, "major"
1, 0, Tempo, 666667
1, 5779, Tempo, 674157
1, 5798, Tempo, 681818
1, 5817, Tempo, 689655
1, 5836, Tempo, 697674
1, 5856, Tempo, 705882
1, 5875, Tempo, 714286
1, 5894, Tempo, 722892
1, 5913, Tempo, 731707
1, 5932, Tempo, 740741
1, 5952, Tempo, 750000
1, 5971, Tempo, 759494
1, 5990, Tempo, 769231
1, 6009, Tempo, 779221
1, 6028, Tempo, 789474
1, 6048, Tempo, 800000
1, 6067, Tempo, 810811
1, 6086, Tempo, 821918
1, 6105, Tempo, 833333
1, 6124, Tempo, 845070
1, 6144, Tempo, 857143
1, 6163, Tempo, 869565
1, 6182, Tempo, 882353
1, 6201, Tempo, 895522
1, 6220, Tempo, 909091
1, 6240, Tempo, 923077
1, 6259, Tempo, 937500
1, 6278, Tempo, 952381
1, 6297, Tempo, 967742
1, 6316, Tempo, 983607
1, 6336, Tempo, 1000000
1, 6355, Tempo, 1016949
1, 6374, Tempo, 1034483
1, 6393, Tempo, 1052632
1, 6412, Tempo, 1071429
1, 6432, Tempo, 1090909
1, 6451, Tempo, 1111111
1, 6470, Tempo, 1132075
1, 6489, Tempo, 1153846
1, 6508, Tempo, 1176471
1, 6528, Tempo, 1200000
1, 6547, Tempo, 1224490
1, 6566, Tempo, 1250000
1, 6585, Tempo, 1276596
1, 6604, Tempo, 1304348
1, 6624, Tempo, 1333333
1, 6643, Tempo, 1363636
1, 6662, Tempo, 1395349
1, 6681, Tempo, 1428571
1, 6700, Tempo, 1463415
1, 6720, Tempo, 1500000
1, 6739, Tempo, 1538462
1, 6758, Tempo, 1578947
1, 6777, Tempo, 1621622
1, 6796, Tempo, 1666667
1, 6816, Tempo, 1714286
1, 6835, Tempo, 1764706
1, 6854, Tempo, 1818182
1, 6873, Tempo, 1875000
1, 6892, Tempo, 1935484
1, 6912, Tempo, 2000000
1, 6931, Tempo, 2068966
1, 6950, Tempo, 2142857
1, 6969, Tempo, 2222222
1, 6988, Tempo, 2307692
1, 7008, Tempo, 2400000
1, 7027, Tempo, 2500000
1, 7046, Tempo, 2608696
1, 7065, Tempo, 2727273
1, 7084, Tempo, 2857143
1, 7104, Tempo, 3000000
1, 7123, Tempo, 3157895
1, 7142, Tempo, 3333333
1, 7161, Tempo, 3529412
1, 7180, Tempo, 3750000
1, 7200, Tempo, 4000000
1, 7219, Tempo, 4285714
1, 7238, Tempo, 4615385
1, 7257, Tempo, 5000000
1, 7276, Tempo, 5454545
1, 7296, Tempo, 6000000
1, 7296, End_track
2, 0, Start_track
2, 0, Title_t, "Grand Piano"
2, 0, Program_c, 0, 0
2, 0, Control_c, 0, 7, 115
2, 0, Control_c, 0, 10, 86
2, 32, Note_on_c, 0, 64, 58
2, 64, Note_on_c, 0, 64, 0
2, 64, Note_on_c, 0, 66, 61
2, 96, Note_on_c, 0, 66, 0
2, 96, Note_on_c, 0, 71, 64
2, 128, Note_on_c, 0, 71, 0
2, 128, Note_on_c, 0, 66, 67
2, 160, Note_on_c, 0, 66, 0
2, 160, Note_on_c, 0, 67, 71
2, 192, Note_on_c, 0, 67, 0
2, 192, Note_on_c, 0, 76, 75
2, 224, Note_on_c, 0, 76, 0
2, 224, Note_on_c, 0, 74, 79
2, 256, Note_on_c, 0, 74, 0
2, 256, Note_on_c, 0, 72, 83
2, 288, Note_on_c, 0, 72, 0
2, 288, Note_on_c, 0, 71, 87
2, 352, Note_on_c, 0, 71, 0
2, 352, Note_on_c, 0, 69, 87
2, 368, Note_on_c, 0, 69, 0
2, 384, Note_on_c, 0, 83, 87
2, 448, Note_on_c, 0, 83, 0
2, 448, Note_on_c, 0, 80, 87
2, 456, Note_on_c, 0, 80, 0
2, 456, Note_on_c, 0, 83, 87
2, 464, Note_on_c, 0, 83, 0
2, 464, Note_on_c, 0, 80, 87
2, 480, Note_on_c, 0, 80, 0
2, 480, Note_on_c, 0, 79, 87
2, 512, Note_on_c, 0, 79, 0
2, 512, Note_on_c, 0, 74, 87
2, 544, Note_on_c, 0, 74, 0
2, 544, Note_on_c, 0, 67, 87
2, 576, Note_on_c, 0, 67, 0
2, 576, Note_on_c, 0, 68, 87
2, 608, Note_on_c, 0, 68, 0
2, 608, Note_on_c, 0, 73, 87
2, 640, Note_on_c, 0, 73, 0
2, 640, Note_on_c, 0, 76, 87
2, 672, Note_on_c, 0, 76, 0
2, 672, Note_on_c, 0, 67, 87
2, 744, Note_on_c, 0, 67, 0
2, 800, Note_on_c, 0, 54, 103
2, 832, Note_on_c, 0, 54, 0
2, 832, Note_on_c, 0, 55, 103
2, 864, Note_on_c, 0, 55, 0
2, 864, Note_on_c, 0, 56, 103
2, 928, Note_on_c, 0, 56, 0
2, 928, Note_on_c, 0, 59, 103
2, 960, Note_on_c, 0, 59, 0
2, 992, Note_on_c, 0, 61, 103
2, 1024, Note_on_c, 0, 61, 0
2, 1024, Note_on_c, 0, 62, 103
2, 1056, Note_on_c, 0, 62, 0
2, 1056, Note_on_c, 0, 63, 103
2, 1088, Note_on_c, 0, 63, 0
2, 1088, Note_on_c, 0, 64, 103
2, 1120, Note_on_c, 0, 64, 0
2, 1120, Note_on_c, 0, 65, 103
2, 1152, Note_on_c, 0, 65, 0
2, 1152, Note_on_c, 0, 66, 103
2, 1174, Note_on_c, 0, 66, 0
2, 1184, Note_on_c, 0, 66, 103
2, 1206, Note_on_c, 0, 66, 0
2, 1216, Note_on_c, 0, 66, 103
2, 1238, Note_on_c, 0, 66, 0
2, 1248, Note_on_c, 0, 66, 103
2, 1280, Note_on_c, 0, 66, 0
2, 1280, Note_on_c, 0, 65, 103
2, 1312, Note_on_c, 0, 65, 0
2, 1312, Note_on_c, 0, 64, 103
2, 1344, Note_on_c, 0, 64, 0
2, 1344, Note_on_c, 0, 63, 103
2, 1376, Note_on_c, 0, 63, 0
2, 1376, Note_on_c, 0, 66, 103
2, 1408, Note_on_c, 0, 66, 0
2, 1408, Note_on_c, 0, 67, 103
2, 1440, Note_on_c, 0, 67, 0
2, 1440, Note_on_c, 0, 68, 103
2, 1536, Note_on_c, 0, 68, 0
2, 1536, Note_on_c, 0, 71, 70
2, 1568, Note_on_c, 0, 71, 0
2, 1568, Note_on_c, 0, 59, 70
2, 1600, Note_on_c, 0, 59, 0
2, 1600, Note_on_c, 0, 63, 70
2, 1632, Note_on_c, 0, 63, 0
2, 1632, Note_on_c, 0, 70, 70
2, 1664, Note_on_c, 0, 70, 0
2, 1664, Note_on_c, 0, 60, 70
2, 1696, Note_on_c, 0, 60, 0
2, 1696, Note_on_c, 0, 64, 70
2, 1728, Note_on_c, 0, 64, 0
2, 1728, Note_on_c, 0, 62, 70
2, 1760, Note_on_c, 0, 62, 0
2, 1760, Note_on_c, 0, 67, 70
2, 1792, Note_on_c, 0, 67, 0
2, 1792, Note_on_c, 0, 63, 70
2, 1824, Note_on_c, 0, 63, 0
2, 1824, Note_on_c, 0, 68, 40
2, 1856, Note_on_c, 0, 68, 0
2, 1856, Note_on_c, 0, 64, 40
2, 1888, Note_on_c, 0, 64, 0
2, 1888, Note_on_c, 0, 69, 40
2, 1920, Note_on_c, 0, 69, 0
2, 1920, Note_on_c, 0, 76, 70
2, 1952, Note_on_c, 0, 76, 0
2, 1952, Note_on_c, 0, 64, 70
2, 1984, Note_on_c, 0, 64, 0
2, 1984, Note_on_c, 0, 68, 70
2, 2016, Note_on_c, 0, 68, 0
2, 2016, Note_on_c, 0, 75, 70
2, 2048, Note_on_c, 0, 75, 0
2, 2048, Note_on_c, 0, 65, 70
2, 2080, Note_on_c, 0, 65, 0
2, 2080, Note_on_c, 0, 69, 70
2, 2112, Note_on_c, 0, 69, 0
2, 2112, Note_on_c, 0, 65, 70
2, 2144, Note_on_c, 0, 65, 0
2, 2144, Note_on_c, 0, 69, 70
2, 2176, Note_on_c, 0, 69, 0
2, 2176, Note_on_c, 0, 66, 70
2, 2208, Note_on_c, 0, 66, 0
2, 2208, Note_on_c, 0, 70, 87
2, 2240, Note_on_c, 0, 70, 0
2, 2240, Note_on_c, 0, 65, 87
2, 2272, Note_on_c, 0, 65, 0
2, 2272, Note_on_c, 0, 76, 87
2, 2288, Note_on_c, 0, 76, 0
2, 2304, Note_on_c, 0, 83, 70
2, 2368, Note_on_c, 0, 83, 0
2, 2368, Note_on_c, 0, 80, 70
2, 2376, Note_on_c, 0, 80, 0
2, 2376, Note_on_c, 0, 83, 70
2, 2384, Note_on_c, 0, 83, 0
2, 2384, Note_on_c, 0, 80, 70
2, 2400, Note_on_c, 0, 80, 0
2, 2400, Note_on_c, 0, 79, 70
2, 2432, Note_on_c, 0, 79, 0
2, 2432, Note_on_c, 0, 74, 70
2, 2464, Note_on_c, 0, 74, 0
2, 2464, Note_on_c, 0, 67, 70
2, 2496, Note_on_c, 0, 67, 0
2, 2496, Note_on_c, 0, 68, 70
2, 2528, Note_on_c, 0, 68, 0
2, 2528, Note_on_c, 0, 73, 70
2, 2560, Note_on_c, 0, 73, 0
2, 2560, Note_on_c, 0, 76, 70
2, 2592, Note_on_c, 0, 76, 0
2, 2592, Note_on_c, 0, 67, 70
2, 2624, Note_on_c, 0, 67, 0
2, 2624, Note_on_c, 0, 66, 70
2, 2656, Note_on_c, 0, 66, 0
2, 2656, Note_on_c, 0, 65, 70
2, 2688, Note_on_c, 0, 65, 0
2, 2720, Note_on_c, 0, 66, 72
2, 2752, Note_on_c, 0, 66, 0
2, 2752, Note_on_c, 0, 68, 75
2, 2784, Note_on_c, 0, 68, 0
2, 2784, Note_on_c, 0, 70, 78
2, 2848, Note_on_c, 0, 70, 0
2, 2848, Note_on_c, 0, 66, 84
2, 2864, Note_on_c, 0, 66, 0
2, 2880, Note_on_c, 0, 60, 87
2, 2912, Note_on_c, 0, 60, 0
2, 2912, Note_on_c, 0, 61, 87
2, 2944, Note_on_c, 0, 61, 0
2, 2944, Note_on_c, 0, 62, 87
2, 2976, Note_on_c, 0, 62, 0
2, 2976, Note_on_c, 0, 63, 87
2, 3008, Note_on_c, 0, 63, 0
2, 3008, Note_on_c, 0, 64, 87
2, 3040, Note_on_c, 0, 64, 0
2, 3040, Note_on_c, 0, 65, 87
2, 3056, Note_on_c, 0, 65, 0
2, 3072, Note_on_c, 0, 75, 70
2, 3360, Note_on_c, 0, 75, 0
2, 3360, Note_on_c, 0, 76, 70
2, 3456, Note_on_c, 0, 76, 0
2, 3456, Note_on_c, 0, 75, 70
2, 3744, Note_on_c, 0, 75, 0
2, 3744, Note_on_c, 0, 76, 70
2, 3840, Note_on_c, 0, 76, 0
2, 3840, Note_on_c, 0, 68, 70
2, 3936, Note_on_c, 0, 68, 0
2, 3936, Note_on_c, 0, 70, 70
2, 4032, Note_on_c, 0, 70, 0
2, 4032, Note_on_c, 0, 66, 70
2, 4128, Note_on_c, 0, 66, 0
2, 4128, Note_on_c, 0, 68, 70
2, 4224, Note_on_c, 0, 68, 0
2, 4256, Note_on_c, 0, 63, 103
2, 4256, Note_on_c, 0, 66, 103
2, 4277, Note_on_c, 0, 66, 0
2, 4277, Note_on_c, 0, 63, 0
2, 4288, Note_on_c, 0, 63, 103
2, 4288, Note_on_c, 0, 66, 103
2, 4309, Note_on_c, 0, 66, 0
2, 4309, Note_on_c, 0, 63, 0
2, 4320, Note_on_c, 0, 63, 103
2, 4320, Note_on_c, 0, 66, 103
2, 4352, Note_on_c, 0, 66, 0
2, 4352, Note_on_c, 0, 63, 0
2, 4368, Note_on_c, 0, 63, 103
2, 4368, Note_on_c, 0, 66, 103
2, 4400, Note_on_c, 0, 66, 0
2, 4400, Note_on_c, 0, 63, 0
2, 4416, Note_on_c, 0, 62, 103
2, 4416, Note_on_c, 0, 68, 103
2, 4512, Note_on_c, 0, 68, 0
2, 4512, Note_on_c, 0, 62, 0
2, 4512, Note_on_c, 0, 61, 103
2, 4512, Note_on_c, 0, 66, 103
2, 4608, Note_on_c, 0, 66, 0
2, 4608, Note_on_c, 0, 61, 0
2, 4640, Note_on_c, 0, 63, 103
2, 4640, Note_on_c, 0, 66, 103
2, 4672, Note_on_c, 0, 66, 0
2, 4672, Note_on_c, 0, 63, 0
2, 4672, Note_on_c, 0, 62, 103
2, 4672, Note_on_c, 0, 68, 103
2, 4704, Note_on_c, 0, 68, 0
2, 4704, Note_on_c, 0, 62, 0
2, 4704, Note_on_c, 0, 61, 103
2, 4704, Note_on_c, 0, 66, 103
2, 4736, Note_on_c, 0, 66, 0
2, 4736, Note_on_c, 0, 61, 0
2, 4736, Note_on_c, 0, 60, 103
2, 4736, Note_on_c, 0, 65, 103
2, 4768, Note_on_c, 0, 65, 0
2, 4768, Note_on_c, 0, 60, 0
2, 4768, Note_on_c, 0, 59, 103
2, 4768, Note_on_c, 0, 64, 103
2, 4800, Note_on_c, 0, 64, 0
2, 4800, Note_on_c, 0, 59, 0
2, 4800, Note_on_c, 0, 58, 103
2, 4800, Note_on_c, 0, 63, 103
2, 4832, Note_on_c, 0, 63, 0
2, 4832, Note_on_c, 0, 58, 0
2, 4832, Note_on_c, 0, 56, 103
2, 4832, Note_on_c, 0, 62, 103
2, 4864, Note_on_c, 0, 62, 0
2, 4864, Note_on_c, 0, 56, 0
2, 4864, Note_on_c, 0, 61, 103
2, 4864, Note_on_c, 0, 66, 103
2, 4896, Note_on_c, 0, 66, 0
2, 4896, Note_on_c, 0, 61, 0
2, 4896, Note_on_c, 0, 63, 103
2, 4896, Note_on_c, 0, 68, 103
2, 4992, Note_on_c, 0, 68, 0
2, 4992, Note_on_c, 0, 63, 0
2, 5024, Note_on_c, 0, 55, 49
2, 5056, Note_on_c, 0, 55, 0
2, 5056, Note_on_c, 0, 63, 58
2, 5088, Note_on_c, 0, 63, 0
2, 5088, Note_on_c, 0, 62, 67
2, 5120, Note_on_c, 0, 62, 0
2, 5120, Note_on_c, 0, 68, 76
2, 5152, Note_on_c, 0, 68, 0
2, 5152, Note_on_c, 0, 67, 85
2, 5184, Note_on_c, 0, 67, 0
2, 5184, Note_on_c, 0, 78, 94
2, 5216, Note_on_c, 0, 78, 0
2, 5216, Note_on_c, 0, 77, 103
2, 5248, Note_on_c, 0, 77, 0
2, 5248, Note_on_c, 0, 82, 112
2, 5280, Note_on_c, 0, 82, 0
2, 5280, Note_on_c, 0, 78, 122
2, 5312, Note_on_c, 0, 78, 0
2, 5408, Note_on_c, 0, 64, 122
2, 5440, Note_on_c, 0, 64, 0
2, 5440, Note_on_c, 0, 51, 122
2, 5472, Note_on_c, 0, 51, 0
2, 5472, Note_on_c, 0, 63, 122
2, 5520, Note_on_c, 0, 63, 0
2, 5520, Note_on_c, 0, 50, 122
2, 5568, Note_on_c, 0, 50, 0
2, 5568, Note_on_c, 0, 62, 122
2, 5664, Note_on_c, 0, 62, 0
2, 5664, Note_on_c, 0, 49, 122
2, 5760, Note_on_c, 0, 49, 0
2, 5760, Note_on_c, 0, 75, 40
2, 5856, Note_on_c, 0, 62, 39
2, 5952, Note_on_c, 0, 62, 0
2, 5952, Note_on_c, 0, 75, 0
2, 5952, Note_on_c, 0, 76, 38
2, 6048, Note_on_c, 0, 61, 37
2, 6144, Note_on_c, 0, 61, 0
2, 6144, Note_on_c, 0, 76, 0
2, 6144, Note_on_c, 0, 75, 36
2, 6240, Note_on_c, 0, 62, 35
2, 6336, Note_on_c, 0, 62, 0
2, 6336, Note_on_c, 0, 75, 0
2, 6336, Note_on_c, 0, 76, 33
2, 6432, Note_on_c, 0, 63, 31
2, 6528, Note_on_c, 0, 63, 0
2, 6528, Note_on_c, 0, 76, 0
2, 6528, Note_on_c, 0, 75, 29
2, 6624, Note_on_c, 0, 62, 27
2, 6720, Note_on_c, 0, 62, 0
2, 6720, Note_on_c, 0, 75, 0
2, 6720, Note_on_c, 0, 76, 25
2, 6816, Note_on_c, 0, 63, 23
2, 6912, Note_on_c, 0, 63, 0
2, 6912, Note_on_c, 0, 76, 0
2, 6912, Note_on_c, 0, 75, 21
2, 7008, Note_on_c, 0, 62, 19
2, 7104, Note_on_c, 0, 62, 0
2, 7104, Note_on_c, 0, 75, 0
2, 7104, Note_on_c, 0, 76, 17
2, 7200, Note_on_c, 0, 63, 15
2, 7680, Note_on_c, 0, 63, 0
2, 7680, Note_on_c, 0, 76, 0
2, 7680, End_track
3, 0, Start_track
3, 0, Title_t, "Grand Piano"
3, 0, Program_c, 0, 0
3, 0, Control_c, 0, 7, 115
3, 0, Control_c, 0, 10, 79
3, 3104, Note_on_c, 0, 62, 50
3, 3136, Note_on_c, 0, 62, 0
3, 3136, Note_on_c, 0, 61, 50
3, 3168, Note_on_c, 0, 61, 0
3, 3168, Note_on_c, 0, 63, 50
3, 3200, Note_on_c, 0, 63, 0
3, 3200, Note_on_c, 0, 60, 50
3, 3232, Note_on_c, 0, 60, 0
3, 3232, Note_on_c, 0, 61, 50
3, 3264, Note_on_c, 0, 61, 0
3, 3264, Note_on_c, 0, 62, 50
3, 3296, Note_on_c, 0, 62, 0
3, 3296, Note_on_c, 0, 64, 50
3, 3328, Note_on_c, 0, 64, 0
3, 3328, Note_on_c, 0, 61, 50
3, 3360, Note_on_c, 0, 61, 0
3, 3392, Note_on_c, 0, 62, 50
3, 3424, Note_on_c, 0, 62, 0
3, 3424, Note_on_c, 0, 61, 50
3, 3456, Note_on_c, 0, 61, 0
3, 3488, Note_on_c, 0, 62, 50
3, 3520, Note_on_c, 0, 62, 0
3, 3520, Note_on_c, 0, 61, 50
3, 3552, Note_on_c, 0, 61, 0
3, 3552, Note_on_c, 0, 63, 50
3, 3584, Note_on_c, 0, 63, 0
3, 3584, Note_on_c, 0, 60, 50
3, 3616, Note_on_c, 0, 60, 0
3, 3616, Note_on_c, 0, 61, 50
3, 3648, Note_on_c, 0, 61, 0
3, 3648, Note_on_c, 0, 62, 80
3, 3680, Note_on_c, 0, 62, 0
3, 3680, Note_on_c, 0, 64, 80
3, 3712, Note_on_c, 0, 64, 0
3, 3712, Note_on_c, 0, 61, 80
3, 3744, Note_on_c, 0, 61, 0
3, 3776, Note_on_c, 0, 62, 80
3, 3808, Note_on_c, 0, 62, 0
3, 3808, Note_on_c, 0, 61, 80
3, 3840, Note_on_c, 0, 61, 0
3, 3840, Note_on_c, 0, 63, 80
3, 3872, Note_on_c, 0, 63, 0
3, 3872, Note_on_c, 0, 62, 80
3, 3904, Note_on_c, 0, 62, 0
3, 3904, Note_on_c, 0, 61, 80
3, 3936, Note_on_c, 0, 61, 0
3, 3936, Note_on_c, 0, 60, 80
3, 3968, Note_on_c, 0, 60, 0
3, 3968, Note_on_c, 0, 59, 80
3, 4000, Note_on_c, 0, 59, 0
3, 4000, Note_on_c, 0, 58, 80
3, 4032, Note_on_c, 0, 58, 0
3, 4192, Note_on_c, 0, 60, 80
3, 4224, Note_on_c, 0, 60, 0
3, 4224, End_track
4, 0, Start_track
4, 0, Title_t, "Grand Piano"
4, 0, Program_c, 0, 0
4, 0, Control_c, 0, 7, 115
4, 0, Control_c, 0, 10, 41
4, 0, Note_on_c, 0, 48, 35
4, 32, Note_on_c, 0, 48, 0
4, 32, Note_on_c, 0, 60, 38
4, 64, Note_on_c, 0, 60, 0
4, 64, Note_on_c, 0, 62, 41
4, 96, Note_on_c, 0, 62, 0
4, 96, Note_on_c, 0, 50, 44
4, 128, Note_on_c, 0, 50, 0
4, 128, Note_on_c, 0, 62, 47
4, 160, Note_on_c, 0, 62, 0
4, 160, Note_on_c, 0, 64, 50
4, 192, Note_on_c, 0, 64, 0
4, 192, Note_on_c, 0, 62, 53
4, 224, Note_on_c, 0, 62, 0
4, 224, Note_on_c, 0, 54, 57
4, 256, Note_on_c, 0, 54, 0
4, 256, Note_on_c, 0, 55, 61
4, 288, Note_on_c, 0, 55, 0
4, 288, Note_on_c, 0, 57, 65
4, 320, Note_on_c, 0, 57, 0
4, 320, Note_on_c, 0, 59, 65
4, 352, Note_on_c, 0, 59, 0
4, 352, Note_on_c, 0, 60, 65
4, 368, Note_on_c, 0, 60, 0
4, 384, Note_on_c, 0, 58, 65
4, 416, Note_on_c, 0, 58, 0
4, 416, Note_on_c, 0, 51, 65
4, 448, Note_on_c, 0, 51, 0
4, 448, Note_on_c, 0, 43, 65
4, 480, Note_on_c, 0, 43, 0
4, 480, Note_on_c, 0, 59, 65
4, 512, Note_on_c, 0, 59, 0
4, 512, Note_on_c, 0, 51, 65
4, 544, Note_on_c, 0, 51, 0
4, 544, Note_on_c, 0, 44, 65
4, 576, Note_on_c, 0, 44, 0
4, 576, Note_on_c, 0, 60, 65
4, 608, Note_on_c, 0, 60, 0
4, 608, Note_on_c, 0, 53, 65
4, 640, Note_on_c, 0, 53, 0
4, 640, Note_on_c, 0, 45, 65
4, 672, Note_on_c, 0, 45, 0
4, 672, Note_on_c, 0, 61, 65
4, 704, Note_on_c, 0, 61, 0
4, 704, Note_on_c, 0, 54, 65
4, 736, Note_on_c, 0, 54, 0
4, 736, Note_on_c, 0, 46, 65
4, 768, Note_on_c, 0, 46, 0
4, 768, Note_on_c, 0, 51, 98
4, 800, Note_on_c, 0, 51, 0
4, 800, Note_on_c, 0, 44, 98
4, 832, Note_on_c, 0, 44, 0
4, 832, Note_on_c, 0, 43, 98
4, 864, Note_on_c, 0, 43, 0
4, 864, Note_on_c, 0, 36, 98
4, 896, Note_on_c, 0, 36, 0
4, 896, Note_on_c, 0, 43, 98
4, 928, Note_on_c, 0, 43, 0
4, 928, Note_on_c, 0, 44, 98
4, 944, Note_on_c, 0, 44, 0
4, 960, Note_on_c, 0, 50, 98
4, 992, Note_on_c, 0, 50, 0
4, 992, Note_on_c, 0, 42, 98
4, 1024, Note_on_c, 0, 42, 0
4, 1024, Note_on_c, 0, 41, 98
4, 1056, Note_on_c, 0, 41, 0
4, 1056, Note_on_c, 0, 35, 98
4, 1088, Note_on_c, 0, 35, 0
4, 1088, Note_on_c, 0, 41, 98
4, 1120, Note_on_c, 0, 41, 0
4, 1120, Note_on_c, 0, 41, 98
4, 1136, Note_on_c, 0, 41, 0
4, 1152, Note_on_c, 0, 51, 98
4, 1184, Note_on_c, 0, 51, 0
4, 1184, Note_on_c, 0, 44, 98
4, 1216, Note_on_c, 0, 44, 0
4, 1216, Note_on_c, 0, 43, 98
4, 1248, Note_on_c, 0, 43, 0
4, 1248, Note_on_c, 0, 36, 98
4, 1280, Note_on_c, 0, 36, 0
4, 1280, Note_on_c, 0, 43, 98
4, 1312, Note_on_c, 0, 43, 0
4, 1312, Note_on_c, 0, 44, 98
4, 1328, Note_on_c, 0, 44, 0
4, 1344, Note_on_c, 0, 50, 98
4, 1376, Note_on_c, 0, 50, 0
4, 1376, Note_on_c, 0, 42, 98
4, 1408, Note_on_c, 0, 42, 0
4, 1408, Note_on_c, 0, 41, 98
4, 1440, Note_on_c, 0, 41, 0
4, 1440, Note_on_c, 0, 35, 98
4, 1536, Note_on_c, 0, 35, 0
4, 1536, Note_on_c, 0, 55, 65
4, 1568, Note_on_c, 0, 55, 0
4, 1568, Note_on_c, 0, 47, 65
4, 1600, Note_on_c, 0, 47, 0
4, 1600, Note_on_c, 0, 40, 65
4, 1632, Note_on_c, 0, 40, 0
4, 1632, Note_on_c, 0, 54, 65
4, 1664, Note_on_c, 0, 54, 0
4, 1664, Note_on_c, 0, 44, 65
4, 1696, Note_on_c, 0, 44, 0
4, 1696, Note_on_c, 0, 39, 65
4, 1728, Note_on_c, 0, 39, 0
4, 1728, Note_on_c, 0, 58, 65
4, 1760, Note_on_c, 0, 58, 0
4, 1760, Note_on_c, 0, 49, 65
4, 1792, Note_on_c, 0, 49, 0
4, 1792, Note_on_c, 0, 42, 65
4, 1824, Note_on_c, 0, 42, 0
4, 1824, Note_on_c, 0, 57, 35
4, 1856, Note_on_c, 0, 57, 0
4, 1856, Note_on_c, 0, 48, 35
4, 1888, Note_on_c, 0, 48, 0
4, 1888, Note_on_c, 0, 41, 35
4, 1920, Note_on_c, 0, 41, 0
4, 1920, Note_on_c, 0, 61, 65
4, 1952, Note_on_c, 0, 61, 0
4, 1952, Note_on_c, 0, 51, 65
4, 1984, Note_on_c, 0, 51, 0
4, 1984, Note_on_c, 0, 44, 65
4, 2016, Note_on_c, 0, 44, 0
4, 2016, Note_on_c, 0, 59, 65
4, 2048, Note_on_c, 0, 59, 0
4, 2048, Note_on_c, 0, 50, 65
4, 2080, Note_on_c, 0, 50, 0
4, 2080, Note_on_c, 0, 43, 65
4, 2112, Note_on_c, 0, 43, 0
4, 2112, Note_on_c, 0, 64, 65
4, 2144, Note_on_c, 0, 64, 0
4, 2144, Note_on_c, 0, 60, 65
4, 2176, Note_on_c, 0, 60, 0
4, 2176, Note_on_c, 0, 63, 65
4, 2208, Note_on_c, 0, 63, 0
4, 2208, Note_on_c, 0, 59, 82
4, 2240, Note_on_c, 0, 59, 0
4, 2240, Note_on_c, 0, 63, 82
4, 2272, Note_on_c, 0, 63, 0
4, 2272, Note_on_c, 0, 54, 82
4, 2304, Note_on_c, 0, 54, 0
4, 2304, Note_on_c, 0, 58, 65
4, 2336, Note_on_c, 0, 58, 0
4, 2336, Note_on_c, 0, 51, 65
4, 2368, Note_on_c, 0, 51, 0
4, 2368, Note_on_c, 0, 43, 65
4, 2400, Note_on_c, 0, 43, 0
4, 2400, Note_on_c, 0, 59, 65
4, 2432, Note_on_c, 0, 59, 0
4, 2432, Note_on_c, 0, 51, 65
4, 2464, Note_on_c, 0, 51, 0
4, 2464, Note_on_c, 0, 44, 65
4, 2496, Note_on_c, 0, 44, 0
4, 2496, Note_on_c, 0, 60, 65
4, 2528, Note_on_c, 0, 60, 0
4, 2528, Note_on_c, 0, 53, 65
4, 2560, Note_on_c, 0, 53, 0
4, 2560, Note_on_c, 0, 45, 65
4, 2592, Note_on_c, 0, 45, 0
4, 2592, Note_on_c, 0, 61, 65
4, 2624, Note_on_c, 0, 61, 0
4, 2624, Note_on_c, 0, 54, 65
4, 2656, Note_on_c, 0, 54, 0
4, 2656, Note_on_c, 0, 46, 65
4, 2688, Note_on_c, 0, 46, 0
4, 2688, Note_on_c, 0, 54, 65
4, 2720, Note_on_c, 0, 54, 0
4, 2720, Note_on_c, 0, 44, 67
4, 2752, Note_on_c, 0, 44, 0
4, 2752, Note_on_c, 0, 39, 70
4, 2784, Note_on_c, 0, 39, 0
4, 2784, Note_on_c, 0, 61, 73
4, 2816, Note_on_c, 0, 61, 0
4, 2816, Note_on_c, 0, 60, 76
4, 2848, Note_on_c, 0, 60, 0
4, 2848, Note_on_c, 0, 58, 79
4, 2880, Note_on_c, 0, 58, 0
4, 2880, Note_on_c, 0, 56, 82
4, 2912, Note_on_c, 0, 56, 0
4, 2912, Note_on_c, 0, 54, 82
4, 2944, Note_on_c, 0, 54, 0
4, 2944, Note_on_c, 0, 53, 82
4, 2976, Note_on_c, 0, 53, 0
4, 2976, Note_on_c, 0, 51, 82
4, 3008, Note_on_c, 0, 51, 0
4, 3008, Note_on_c, 0, 49, 82
4, 3040, Note_on_c, 0, 49, 0
4, 3040, Note_on_c, 0, 48, 82
4, 3072, Note_on_c, 0, 48, 0
4, 3072, Note_on_c, 0, 51, 35
4, 3104, Note_on_c, 0, 51, 0
4, 3104, Note_on_c, 0, 44, 35
4, 3136, Note_on_c, 0, 44, 0
4, 3136, Note_on_c, 0, 43, 35
4, 3168, Note_on_c, 0, 43, 0
4, 3168, Note_on_c, 0, 52, 35
4, 3200, Note_on_c, 0, 52, 0
4, 3200, Note_on_c, 0, 43, 35
4, 3232, Note_on_c, 0, 43, 0
4, 3232, Note_on_c, 0, 36, 35
4, 3264, Note_on_c, 0, 36, 0
4, 3264, Note_on_c, 0, 51, 35
4, 3296, Note_on_c, 0, 51, 0
4, 3296, Note_on_c, 0, 44, 35
4, 3328, Note_on_c, 0, 44, 0
4, 3328, Note_on_c, 0, 43, 35
4, 3360, Note_on_c, 0, 43, 0
4, 3360, Note_on_c, 0, 50, 35
4, 3392, Note_on_c, 0, 50, 0
4, 3392, Note_on_c, 0, 42, 35
4, 3424, Note_on_c, 0, 42, 0
4, 3424, Note_on_c, 0, 35, 35
4, 3456, Note_on_c, 0, 35, 0
4, 3456, Note_on_c, 0, 51, 35
4, 3488, Note_on_c, 0, 51, 0
4, 3488, Note_on_c, 0, 44, 35
4, 3520, Note_on_c, 0, 44, 0
4, 3520, Note_on_c, 0, 43, 35
4, 3552, Note_on_c, 0, 43, 0
4, 3552, Note_on_c, 0, 52, 35
4, 3584, Note_on_c, 0, 52, 0
4, 3584, Note_on_c, 0, 43, 35
4, 3616, Note_on_c, 0, 43, 0
4, 3616, Note_on_c, 0, 36, 35
4, 3648, Note_on_c, 0, 36, 0
4, 3648, Note_on_c, 0, 51, 65
4, 3680, Note_on_c, 0, 51, 0
4, 3680, Note_on_c, 0, 44, 65
4, 3712, Note_on_c, 0, 44, 0
4, 3712, Note_on_c, 0, 43, 65
4, 3744, Note_on_c, 0, 43, 0
4, 3744, Note_on_c, 0, 50, 65
4, 3776, Note_on_c, 0, 50, 0
4, 3776, Note_on_c, 0, 42, 65
4, 3808, Note_on_c, 0, 42, 0
4, 3808, Note_on_c, 0, 35, 65
4, 3840, Note_on_c, 0, 35, 0
4, 4032, Note_on_c, 0, 55, 65
4, 4064, Note_on_c, 0, 55, 0
4, 4064, Note_on_c, 0, 56, 65
4, 4096, Note_on_c, 0, 56, 0
4, 4096, Note_on_c, 0, 57, 65
4, 4128, Note_on_c, 0, 57, 0
4, 4128, Note_on_c, 0, 58, 65
4, 4160, Note_on_c, 0, 58, 0
4, 4160, Note_on_c, 0, 59, 65
4, 4192, Note_on_c, 0, 59, 0
4, 4224, Note_on_c, 0, 47, 98
4, 4224, Note_on_c, 0, 56, 98
4, 4256, Note_on_c, 0, 56, 0
4, 4256, Note_on_c, 0, 47, 0
4, 4256, Note_on_c, 0, 40, 98
4, 4288, Note_on_c, 0, 40, 0
4, 4288, Note_on_c, 0, 46, 98
4, 4288, Note_on_c, 0, 55, 98
4, 4320, Note_on_c, 0, 55, 0
4, 4320, Note_on_c, 0, 46, 0
4, 4368, Note_on_c, 0, 54, 98
4, 4368, Note_on_c, 0, 61, 98
4, 4416, Note_on_c, 0, 61, 0
4, 4416, Note_on_c, 0, 54, 0
4, 4448, Note_on_c, 0, 53, 98
4, 4448, Note_on_c, 0, 60, 98
4, 4480, Note_on_c, 0, 60, 0
4, 4480, Note_on_c, 0, 53, 0
4, 4480, Note_on_c, 0, 52, 98
4, 4480, Note_on_c, 0, 59, 98
4, 4512, Note_on_c, 0, 59, 0
4, 4512, Note_on_c, 0, 52, 0
4, 4512, Note_on_c, 0, 51, 98
4, 4512, Note_on_c, 0, 58, 98
4, 4560, Note_on_c, 0, 58, 0
4, 4560, Note_on_c, 0, 51, 0
4, 4560, Note_on_c, 0, 50, 98
4, 4560, Note_on_c, 0, 57, 98
4, 4608, Note_on_c, 0, 57, 0
4, 4608, Note_on_c, 0, 50, 0
4, 4608, Note_on_c, 0, 47, 98
4, 4608, Note_on_c, 0, 56, 98
4, 4640, Note_on_c, 0, 56, 0
4, 4640, Note_on_c, 0, 47, 0
4, 4640, Note_on_c, 0, 40, 98
4, 4672, Note_on_c, 0, 40, 0
4, 4672, Note_on_c, 0, 46, 98
4, 4672, Note_on_c, 0, 55, 98
4, 4704, Note_on_c, 0, 55, 0
4, 4704, Note_on_c, 0, 46, 0
4, 4704, Note_on_c, 0, 39, 98
4, 4736, Note_on_c, 0, 39, 0
4, 4736, Note_on_c, 0, 45, 98
4, 4736, Note_on_c, 0, 54, 98
4, 4768, Note_on_c, 0, 54, 0
4, 4768, Note_on_c, 0, 45, 0
4, 4768, Note_on_c, 0, 38, 98
4, 4800, Note_on_c, 0, 38, 0
4, 4800, Note_on_c, 0, 43, 98
4, 4800, Note_on_c, 0, 53, 98
4, 4832, Note_on_c, 0, 53, 0
4, 4832, Note_on_c, 0, 43, 0
4, 4832, Note_on_c, 0, 36, 98
4, 4864, Note_on_c, 0, 36, 0
4, 4864, Note_on_c, 0, 43, 98
4, 4896, Note_on_c, 0, 43, 0
4, 4896, Note_on_c, 0, 52, 98
4, 4992, Note_on_c, 0, 52, 0
4, 4992, Note_on_c, 0, 51, 35
4, 5024, Note_on_c, 0, 51, 0
4, 5024, Note_on_c, 0, 44, 44
4, 5056, Note_on_c, 0, 44, 0
4, 5056, Note_on_c, 0, 43, 53
4, 5088, Note_on_c, 0, 43, 0
4, 5088, Note_on_c, 0, 36, 62
4, 5120, Note_on_c, 0, 36, 0
4, 5120, Note_on_c, 0, 43, 71
4, 5152, Note_on_c, 0, 43, 0
4, 5152, Note_on_c, 0, 44, 80
4, 5184, Note_on_c, 0, 44, 0
4, 5184, Note_on_c, 0, 50, 89
4, 5216, Note_on_c, 0, 50, 0
4, 5216, Note_on_c, 0, 42, 98
4, 5248, Note_on_c, 0, 42, 0
4, 5248, Note_on_c, 0, 41, 107
4, 5280, Note_on_c, 0, 41, 0
4, 5280, Note_on_c, 0, 35, 117
4, 5312, Note_on_c, 0, 35, 0
4, 5376, Note_on_c, 0, 52, 117
4, 5408, Note_on_c, 0, 52, 0
4, 5408, Note_on_c, 0, 44, 117
4, 5440, Note_on_c, 0, 44, 0
4, 5440, Note_on_c, 0, 43, 117
4, 5472, Note_on_c, 0, 43, 0
4, 5472, Note_on_c, 0, 36, 117
4, 5504, Note_on_c, 0, 36, 0
4, 5504, Note_on_c, 0, 43, 117
4, 5536, Note_on_c, 0, 43, 0
4, 5536, Note_on_c, 0, 44, 117
4, 5568, Note_on_c, 0, 44, 0
4, 5568, Note_on_c, 0, 51, 117
4, 5600, Note_on_c, 0, 51, 0
4, 5600, Note_on_c, 0, 44, 117
4, 5632, Note_on_c, 0, 44, 0
4, 5632, Note_on_c, 0, 43, 117
4, 5664, Note_on_c, 0, 43, 0
4, 5664, Note_on_c, 0, 36, 117
4, 5696, Note_on_c, 0, 36, 0
4, 5696, Note_on_c, 0, 43, 117
4, 5728, Note_on_c, 0, 43, 0
4, 5728, Note_on_c, 0, 44, 117
4, 5760, Note_on_c, 0, 44, 0
4, 5760, Note_on_c, 0, 52, 35
4, 5792, Note_on_c, 0, 52, 0
4, 5792, Note_on_c, 0, 44, 35
4, 5824, Note_on_c, 0, 44, 0
4, 5824, Note_on_c, 0, 43, 35
4, 5856, Note_on_c, 0, 43, 0
4, 5856, Note_on_c, 0, 36, 35
4, 5888, Note_on_c, 0, 36, 0
4, 5888, Note_on_c, 0, 43, 35
4, 5920, Note_on_c, 0, 43, 0
4, 5920, Note_on_c, 0, 44, 35
4, 5952, Note_on_c, 0, 44, 0
4, 5952, Note_on_c, 0, 51, 35
4, 5984, Note_on_c, 0, 51, 0
4, 5984, Note_on_c, 0, 44, 35
4, 6016, Note_on_c, 0, 44, 0
4, 6016, Note_on_c, 0, 43, 35
4, 6048, Note_on_c, 0, 43, 0
4, 6048, Note_on_c, 0, 36, 35
4, 6080, Note_on_c, 0, 36, 0
4, 6080, Note_on_c, 0, 43, 35
4, 6112, Note_on_c, 0, 43, 0
4, 6112, Note_on_c, 0, 44, 35
4, 6144, Note_on_c, 0, 44, 0
4, 6144, Note_on_c, 0, 52, 35
4, 6176, Note_on_c, 0, 52, 0
4, 6176, Note_on_c, 0, 44, 35
4, 6208, Note_on_c, 0, 44, 0
4, 6208, Note_on_c, 0, 43, 35
4, 6240, Note_on_c, 0, 43, 0
4, 6240, Note_on_c, 0, 36, 35
4, 6272, Note_on_c, 0, 36, 0
4, 6272, Note_on_c, 0, 43, 35
4, 6304, Note_on_c, 0, 43, 0
4, 6304, Note_on_c, 0, 44, 35
4, 6336, Note_on_c, 0, 44, 0
4, 6336, Note_on_c, 0, 51, 35
4, 6368, Note_on_c, 0, 51, 0
4, 6368, Note_on_c, 0, 44, 35
4, 6400, Note_on_c, 0, 44, 0
4, 6400, Note_on_c, 0, 43, 35
4, 6432, Note_on_c, 0, 43, 0
4, 6432, Note_on_c, 0, 36, 35
4, 6464, Note_on_c, 0, 36, 0
4, 6464, Note_on_c, 0, 43, 35
4, 6496, Note_on_c, 0, 43, 0
4, 6496, Note_on_c, 0, 44, 35
4, 6528, Note_on_c, 0, 44, 0
4, 6528, Note_on_c, 0, 52, 35
4, 6560, Note_on_c, 0, 52, 0
4, 6560, Note_on_c, 0, 44, 35
4, 6592, Note_on_c, 0, 44, 0
4, 6592, Note_on_c, 0, 43, 34
4, 6624, Note_on_c, 0, 43, 0
4, 6624, Note_on_c, 0, 36, 33
4, 6656, Note_on_c, 0, 36, 0
4, 6656, Note_on_c, 0, 43, 32
4, 6688, Note_on_c, 0, 43, 0
4, 6688, Note_on_c, 0, 44, 31
4, 6720, Note_on_c, 0, 44, 0
4, 6720, Note_on_c, 0, 51, 31
4, 6752, Note_on_c, 0, 51, 0
4, 6752, Note_on_c, 0, 44, 30
4, 6784, Note_on_c, 0, 44, 0
4, 6784, Note_on_c, 0, 43, 29
4, 6816, Note_on_c, 0, 43, 0
4, 6816, Note_on_c, 0, 36, 28
4, 6848, Note_on_c, 0, 36, 0
4, 6848, Note_on_c, 0, 43, 27
4, 6880, Note_on_c, 0, 43, 0
4, 6880, Note_on_c, 0, 44, 26
4, 6912, Note_on_c, 0, 44, 0
4, 6912, Note_on_c, 0, 52, 25
4, 6944, Note_on_c, 0, 52, 0
4, 6944, Note_on_c, 0, 44, 24
4, 6976, Note_on_c, 0, 44, 0
4, 6976, Note_on_c, 0, 43, 23
4, 7008, Note_on_c, 0, 43, 0
4, 7008, Note_on_c, 0, 36, 22
4, 7040, Note_on_c, 0, 36, 0
4, 7040, Note_on_c, 0, 43, 21
4, 7072, Note_on_c, 0, 43, 0
4, 7072, Note_on_c, 0, 44, 20
4, 7104, Note_on_c, 0, 44, 0
4, 7104, Note_on_c, 0, 51, 19
4, 7136, Note_on_c, 0, 51, 0
4, 7136, Note_on_c, 0, 44, 18
4, 7168, Note_on_c, 0, 44, 0
4, 7168, Note_on_c, 0, 43, 17
4, 7200, Note_on_c, 0, 43, 0
4, 7200, Note_on_c, 0, 24, 16
4, 7200, Note_on_c, 0, 36, 16
4, 7680, Note_on_c, 0, 36, 0
4, 7680, Note_on_c, 0, 24, 0
4, 7680, End_track
5, 0, Start_track
5, 0, Title_t, "Grand Piano"
5, 0, Program_c, 0, 0
5, 0, Control_c, 0, 7, 115
5, 0, Control_c, 0, 10, 48
5, 3840, Note_on_c, 0, 52, 105
5, 3872, Note_on_c, 0, 52, 0
5, 3872, Note_on_c, 0, 44, 105
5, 3904, Note_on_c, 0, 44, 0
5, 3904, Note_on_c, 0, 43, 105
5, 3936, Note_on_c, 0, 43, 0
5, 3936, Note_on_c, 0, 36, 105
5, 3968, Note_on_c, 0, 36, 0
5, 3968, Note_on_c, 0, 43, 105
5, 4000, Note_on_c, 0, 43, 0
5, 4000, Note_on_c, 0, 44, 105
5, 4032, Note_on_c, 0, 44, 0
5, 4032, Note_on_c, 0, 50, 105
5, 4064, Note_on_c, 0, 50, 0
5, 4064, Note_on_c, 0, 42, 105
5, 4096, Note_on_c, 0, 42, 0
5, 4096, Note_on_c, 0, 41, 105
5, 4128, Note_on_c, 0, 41, 0
5, 4128, Note_on_c, 0, 35, 105
5, 4160, Note_on_c, 0, 35, 0
5, 4160, Note_on_c, 0, 41, 105
5, 4192, Note_on_c, 0, 41, 0
5, 4192, Note_on_c, 0, 42, 105
5, 4224, Note_on_c, 0, 42, 0
5, 4224, End_track
0, 0, End_of_file
