0, 0, Header, 1, 5, 192
1, 0, Start_track
1, 0, Title_t, "Francis Poulenc: Cinq Impromptus - 3. Très modéré"
1, 0, Copyright_t, "Adaptation for Disklavier pianos, by: Robert C. Kuhmann (c) 2012."
1, 0, Text_t, "By Lyndon Meyer\012"
1, 0, Time_signature, 3, 2, 24, 8
1, 0, Key_signature, 1, "major"
1, 0, Tempo, 952381
1, 6336, Time_signature, 4, 2, 24, 8
1, 7872, Time_signature, 2, 2, 24, 8
1, 8256, Time_signature, 4, 2, 24, 8
1, 9792, Time_signature, 7, 2, 24, 8
1, 11136, Time_signature, 6, 2, 24, 8
1, 13085, Tempo, 967742
1, 13115, Tempo, 983607
1, 13144, Tempo, 1000000
1, 13174, Tempo, 1016949
1, 13203, Tempo, 1034483
1, 13233, Tempo, 1052632
1, 13262, Tempo, 1071429
1, 13292, Tempo, 1090909
1, 13321, Tempo, 1111111
1, 13351, Tempo, 1132075
1, 13380, Tempo, 1153846
1, 13410, Tempo, 1176471
1, 13440, Time_signature, 3, 2, 24, 8
1, 13440, Tempo, 952381
1, 14016, Time_signature, 2, 2, 24, 8
1, 14032, Tempo, 967742
1, 14049, Tempo, 983607
1, 14066, Tempo, 1000000
1, 14082, Tempo, 1016949
1, 14099, Tempo, 1034483
1, 14116, Tempo, 1052632
1, 14132, Tempo, 1071429
1, 14149, Tempo, 1090909
1, 14166, Tempo, 1111111
1, 14182, Tempo, 1132075
1, 14199, Tempo, 1153846
1, 14216, Tempo, 1176471
1, 14233, Tempo, 1200000
1, 14249, Tempo, 1224490
1, 14266, Tempo, 1250000
1, 14283, Tempo, 1276596
1, 14299, Tempo, 1304348
1, 14316, Tempo, 1333333
1, 14333, Tempo, 1363636
1, 14349, Tempo, 1395349
1, 14366, Tempo, 1428571
1, 14383, Tempo, 1463415
1, 14400, Time_signature, 3, 2, 24, 8
1, 14400, Tempo, 952381
1, 16128, Time_signature, 6, 2, 24, 8
1, 16216, Tempo, 967742
1, 16305, Tempo, 983607
1, 16393, Tempo, 1000000
1, 16482, Tempo, 1016949
1, 16571, Tempo, 1034483
1, 16659, Tempo, 1052632
1, 16748, Tempo, 1071429
1, 16836, Tempo, 1090909
1, 16925, Tempo, 1111111
1, 17014, Tempo, 1132075
1, 17102, Tempo, 1153846
1, 17191, Tempo, 1176471
1, 17280, Tempo, 740741
1, 17290, Tempo, 750000
1, 17300, Tempo, 759494
1, 17310, Tempo, 769231
1, 17320, Tempo, 779221
1, 17331, Tempo, 789474
1, 17341, Tempo, 800000
1, 17351, Tempo, 810811
1, 17361, Tempo, 821918
1, 17372, Tempo, 833333
1, 17382, Tempo, 845070
1, 17392, Tempo, 857143
1, 17402, Tempo, 869565
1, 17412, Tempo, 882353
1, 17423, Tempo, 895522
1, 17433, Tempo, 909091
1, 17443, Tempo, 923077
1, 17453, Tempo, 937500
1, 17464, Tempo, 952381
1, 17474, Tempo, 967742
1, 17484, Tempo, 983607
1, 17494, Tempo, 1000000
1, 17505, Tempo, 1016949
1, 17515, Tempo, 1034483
1, 17525, Tempo, 1052632
1, 17535, Tempo, 1071429
1, 17545, Tempo, 1090909
1, 17556, Tempo, 1111111
1, 17566, Tempo, 1132075
1, 17576, Tempo, 1153846
1, 17586, Tempo, 1176471
1, 17597, Tempo, 1200000
1, 17607, Tempo, 1224490
1, 17617, Tempo, 1250000
1, 17627, Tempo, 1276596
1, 17638, Tempo, 1304348
1, 17648, Tempo, 1333333
1, 17658, Tempo, 1363636
1, 17668, Tempo, 1395349
1, 17678, Tempo, 1428571
1, 17689, Tempo, 1463415
1, 17699, Tempo, 1500000
1, 17709, Tempo, 1538462
1, 17719, Tempo, 1578947
1, 17730, Tempo, 1621622
1, 17740, Tempo, 1666667
1, 17750, Tempo, 1714286
1, 17760, Tempo, 1764706
1, 17771, Tempo, 1818182
1, 17781, Tempo, 1875000
1, 17791, Tempo, 1935484
1, 17801, Tempo, 2000000
1, 17811, Tempo, 2068966
1, 17822, Tempo, 2142857
1, 17832, Tempo, 2222222
1, 17842, Tempo, 2307692
1, 17852, Tempo, 2400000
1, 17863, Tempo, 2500000
1, 17873, Tempo, 2608696
1, 17883, Tempo, 2727273
1, 17893, Tempo, 2857143
1, 17904, Tempo, 3000000
1, 17904, End_track
2, 0, Start_track
2, 0, Title_t, "Grand Piano"
2, 0, Program_c, 0, 0
2, 0, Control_c, 0, 7, 115
2, 0, Control_c, 0, 10, 86
2, 1056, Note_on_c, 0, 72, 87
2, 1124, Note_on_c, 0, 72, 0
2, 1152, Note_on_c, 0, 71, 87
2, 1536, Note_on_c, 0, 71, 0
2, 1632, Note_on_c, 0, 72, 87
2, 1700, Note_on_c, 0, 72, 0
2, 1728, Note_on_c, 0, 71, 87
2, 2016, Note_on_c, 0, 71, 0
2, 2016, Note_on_c, 0, 67, 87
2, 2112, Note_on_c, 0, 67, 0
2, 2112, Note_on_c, 0, 72, 87
2, 2208, Note_on_c, 0, 72, 0
2, 2208, Note_on_c, 0, 66, 87
2, 2304, Note_on_c, 0, 66, 0
2, 2304, Note_on_c, 0, 67, 87
2, 2688, Note_on_c, 0, 67, 0
2, 3456, Note_on_c, 0, 62, 55
2, 3456, Note_on_c, 0, 73, 55
2, 3552, Note_on_c, 0, 73, 0
2, 3552, Note_on_c, 0, 62, 0
2, 3552, Note_on_c, 0, 62, 55
2, 3552, Note_on_c, 0, 73, 55
2, 3600, Note_on_c, 0, 73, 0
2, 3600, Note_on_c, 0, 62, 0
2, 3600, Note_on_c, 0, 62, 55
2, 3600, Note_on_c, 0, 73, 55
2, 3648, Note_on_c, 0, 73, 0
2, 3648, Note_on_c, 0, 62, 0
2, 3648, Note_on_c, 0, 62, 55
2, 3648, Note_on_c, 0, 73, 55
2, 3744, Note_on_c, 0, 73, 0
2, 3744, Note_on_c, 0, 62, 0
2, 3744, Note_on_c, 0, 63, 55
2, 3744, Note_on_c, 0, 71, 55
2, 3840, Note_on_c, 0, 71, 0
2, 3840, Note_on_c, 0, 63, 0
2, 3840, Note_on_c, 0, 64, 55
2, 3840, Note_on_c, 0, 70, 55
2, 3936, Note_on_c, 0, 70, 0
2, 3936, Note_on_c, 0, 64, 0
2, 3936, Note_on_c, 0, 66, 55
2, 3936, Note_on_c, 0, 68, 55
2, 4004, Note_on_c, 0, 68, 0
2, 4004, Note_on_c, 0, 66, 0
2, 4032, Note_on_c, 0, 63, 55
2, 4032, Note_on_c, 0, 66, 55
2, 4128, Note_on_c, 0, 66, 0
2, 4128, Note_on_c, 0, 63, 0
2, 4128, Note_on_c, 0, 62, 55
2, 4128, Note_on_c, 0, 70, 55
2, 4224, Note_on_c, 0, 70, 0
2, 4224, Note_on_c, 0, 62, 0
2, 4224, Note_on_c, 0, 63, 55
2, 4224, Note_on_c, 0, 71, 55
2, 4320, Note_on_c, 0, 71, 0
2, 4320, Note_on_c, 0, 63, 0
2, 4320, Note_on_c, 0, 64, 55
2, 4320, Note_on_c, 0, 70, 55
2, 4368, Note_on_c, 0, 70, 0
2, 4368, Note_on_c, 0, 64, 0
2, 4368, Note_on_c, 0, 66, 55
2, 4368, Note_on_c, 0, 71, 55
2, 4416, Note_on_c, 0, 71, 0
2, 4416, Note_on_c, 0, 66, 0
2, 4416, Note_on_c, 0, 68, 55
2, 4416, Note_on_c, 0, 73, 55
2, 4536, Note_on_c, 0, 73, 0
2, 4536, Note_on_c, 0, 68, 0
2, 4608, Note_on_c, 0, 62, 70
2, 4608, Note_on_c, 0, 73, 70
2, 4656, Note_on_c, 0, 73, 0
2, 4656, Note_on_c, 0, 62, 0
2, 4656, Note_on_c, 0, 62, 70
2, 4656, Note_on_c, 0, 73, 70
2, 4704, Note_on_c, 0, 73, 0
2, 4704, Note_on_c, 0, 62, 0
2, 4704, Note_on_c, 0, 62, 70
2, 4704, Note_on_c, 0, 73, 70
2, 4752, Note_on_c, 0, 73, 0
2, 4752, Note_on_c, 0, 62, 0
2, 4752, Note_on_c, 0, 62, 70
2, 4752, Note_on_c, 0, 73, 70
2, 4800, Note_on_c, 0, 73, 0
2, 4800, Note_on_c, 0, 62, 0
2, 4800, Note_on_c, 0, 62, 70
2, 4800, Note_on_c, 0, 73, 70
2, 4896, Note_on_c, 0, 73, 0
2, 4896, Note_on_c, 0, 62, 0
2, 4896, Note_on_c, 0, 63, 70
2, 4896, Note_on_c, 0, 71, 70
2, 4992, Note_on_c, 0, 71, 0
2, 4992, Note_on_c, 0, 63, 0
2, 4992, Note_on_c, 0, 64, 70
2, 4992, Note_on_c, 0, 70, 70
2, 5088, Note_on_c, 0, 70, 0
2, 5088, Note_on_c, 0, 64, 0
2, 5088, Note_on_c, 0, 66, 70
2, 5088, Note_on_c, 0, 68, 70
2, 5156, Note_on_c, 0, 68, 0
2, 5156, Note_on_c, 0, 66, 0
2, 5184, Note_on_c, 0, 63, 70
2, 5184, Note_on_c, 0, 66, 70
2, 5280, Note_on_c, 0, 66, 0
2, 5280, Note_on_c, 0, 63, 0
2, 5280, Note_on_c, 0, 62, 70
2, 5280, Note_on_c, 0, 70, 70
2, 5376, Note_on_c, 0, 70, 0
2, 5376, Note_on_c, 0, 62, 0
2, 5376, Note_on_c, 0, 61, 70
2, 5376, Note_on_c, 0, 71, 70
2, 5472, Note_on_c, 0, 71, 0
2, 5472, Note_on_c, 0, 61, 0
2, 5472, Note_on_c, 0, 62, 70
2, 5472, Note_on_c, 0, 70, 70
2, 5520, Note_on_c, 0, 70, 0
2, 5520, Note_on_c, 0, 68, 70
2, 5568, Note_on_c, 0, 68, 0
2, 5568, Note_on_c, 0, 62, 0
2, 5568, Note_on_c, 0, 64, 70
2, 5568, Note_on_c, 0, 66, 70
2, 5760, Note_on_c, 0, 66, 0
2, 5760, Note_on_c, 0, 64, 0
2, 5808, Note_on_c, 0, 49, 122
2, 5842, Note_on_c, 0, 49, 0
2, 5856, Note_on_c, 0, 50, 122
2, 5890, Note_on_c, 0, 50, 0
2, 5904, Note_on_c, 0, 51, 122
2, 5938, Note_on_c, 0, 51, 0
2, 6000, Note_on_c, 0, 52, 122
2, 6048, Note_on_c, 0, 52, 0
2, 6096, Note_on_c, 0, 53, 122
2, 6144, Note_on_c, 0, 53, 0
2, 6192, Note_on_c, 0, 52, 102
2, 6240, Note_on_c, 0, 52, 0
2, 6288, Note_on_c, 0, 51, 81
2, 6336, Note_on_c, 0, 51, 0
2, 6336, Note_on_c, 0, 61, 87
2, 6528, Note_on_c, 0, 61, 0
2, 6528, Note_on_c, 0, 59, 87
2, 6624, Note_on_c, 0, 59, 0
2, 6624, Note_on_c, 0, 58, 87
2, 6816, Note_on_c, 0, 58, 0
2, 6816, Note_on_c, 0, 59, 87
2, 6912, Note_on_c, 0, 59, 0
2, 6912, Note_on_c, 0, 61, 87
2, 7104, Note_on_c, 0, 61, 0
2, 7104, Note_on_c, 0, 61, 87
2, 7104, Note_on_c, 0, 73, 87
2, 7296, Note_on_c, 0, 73, 0
2, 7296, Note_on_c, 0, 61, 0
2, 7296, Note_on_c, 0, 59, 87
2, 7296, Note_on_c, 0, 71, 87
2, 7392, Note_on_c, 0, 71, 0
2, 7392, Note_on_c, 0, 59, 0
2, 7392, Note_on_c, 0, 58, 87
2, 7392, Note_on_c, 0, 70, 87
2, 7584, Note_on_c, 0, 70, 0
2, 7584, Note_on_c, 0, 58, 0
2, 7584, Note_on_c, 0, 59, 87
2, 7584, Note_on_c, 0, 71, 87
2, 7680, Note_on_c, 0, 71, 0
2, 7680, Note_on_c, 0, 59, 0
2, 7680, Note_on_c, 0, 61, 87
2, 7680, Note_on_c, 0, 73, 87
2, 7872, Note_on_c, 0, 73, 0
2, 7872, Note_on_c, 0, 61, 0
2, 7920, Note_on_c, 0, 63, 70
2, 7968, Note_on_c, 0, 63, 0
2, 7968, Note_on_c, 0, 68, 70
2, 8016, Note_on_c, 0, 68, 0
2, 8016, Note_on_c, 0, 74, 70
2, 8064, Note_on_c, 0, 74, 0
2, 8064, Note_on_c, 0, 71, 70
2, 8256, Note_on_c, 0, 71, 0
2, 8304, Note_on_c, 0, 61, 70
2, 8352, Note_on_c, 0, 61, 0
2, 8352, Note_on_c, 0, 66, 70
2, 8400, Note_on_c, 0, 66, 0
2, 8400, Note_on_c, 0, 72, 70
2, 8448, Note_on_c, 0, 72, 0
2, 8448, Note_on_c, 0, 69, 70
2, 8496, Note_on_c, 0, 69, 0
2, 8496, Note_on_c, 0, 66, 70
2, 8544, Note_on_c, 0, 66, 0
2, 8544, Note_on_c, 0, 68, 70
2, 8592, Note_on_c, 0, 68, 0
2, 8592, Note_on_c, 0, 64, 70
2, 8640, Note_on_c, 0, 64, 0
2, 8640, Note_on_c, 0, 67, 87
2, 8736, Note_on_c, 0, 63, 70
2, 9024, Note_on_c, 0, 63, 0
2, 9024, Note_on_c, 0, 67, 0
2, 9072, Note_on_c, 0, 58, 87
2, 9106, Note_on_c, 0, 58, 0
2, 9120, Note_on_c, 0, 61, 87
2, 9154, Note_on_c, 0, 61, 0
2, 9168, Note_on_c, 0, 57, 87
2, 9202, Note_on_c, 0, 57, 0
2, 9216, Note_on_c, 0, 56, 87
2, 9250, Note_on_c, 0, 56, 0
2, 9264, Note_on_c, 0, 55, 87
2, 9298, Note_on_c, 0, 55, 0
2, 9312, Note_on_c, 0, 54, 87
2, 9346, Note_on_c, 0, 54, 0
2, 9360, Note_on_c, 0, 53, 87
2, 9394, Note_on_c, 0, 53, 0
2, 9408, Note_on_c, 0, 52, 87
2, 9442, Note_on_c, 0, 52, 0
2, 9456, Note_on_c, 0, 51, 87
2, 9490, Note_on_c, 0, 51, 0
2, 9504, Note_on_c, 0, 54, 87
2, 9538, Note_on_c, 0, 54, 0
2, 9552, Note_on_c, 0, 50, 87
2, 9586, Note_on_c, 0, 50, 0
2, 9600, Note_on_c, 0, 49, 87
2, 9792, Note_on_c, 0, 49, 0
2, 9792, Note_on_c, 0, 57, 70
2, 9792, Note_on_c, 0, 61, 70
2, 10080, Note_on_c, 0, 58, 73
2, 10080, Note_on_c, 0, 62, 73
2, 10176, Note_on_c, 0, 65, 74
2, 10272, Note_on_c, 0, 62, 0
2, 10272, Note_on_c, 0, 62, 75
2, 10368, Note_on_c, 0, 63, 76
2, 10368, Note_on_c, 0, 67, 76
2, 10560, Note_on_c, 0, 65, 0
2, 10560, Note_on_c, 0, 65, 78
2, 10560, Note_on_c, 0, 69, 78
2, 10752, Note_on_c, 0, 67, 0
2, 10752, Note_on_c, 0, 67, 80
2, 10752, Note_on_c, 0, 71, 80
2, 10848, Note_on_c, 0, 72, 81
2, 10944, Note_on_c, 0, 69, 0
2, 10944, Note_on_c, 0, 69, 83
2, 11136, Note_on_c, 0, 69, 0
2, 11136, Note_on_c, 0, 71, 0
2, 11136, Note_on_c, 0, 62, 0
2, 11136, Note_on_c, 0, 57, 0
2, 11136, Note_on_c, 0, 63, 0
2, 11136, Note_on_c, 0, 67, 0
2, 11136, Note_on_c, 0, 72, 0
2, 11136, Note_on_c, 0, 65, 0
2, 11136, Note_on_c, 0, 59, 1
2, 11136, Note_on_c, 0, 59, 0
2, 11136, Note_on_c, 0, 60, 1
2, 11136, Note_on_c, 0, 60, 0
2, 11136, Note_on_c, 0, 72, 87
2, 11136, Note_on_c, 0, 76, 87
2, 11136, Note_on_c, 0, 79, 87
2, 11136, Note_on_c, 0, 84, 87
2, 11328, Note_on_c, 0, 71, 87
2, 11328, Note_on_c, 0, 74, 87
2, 11328, Note_on_c, 0, 83, 87
2, 11520, Note_on_c, 0, 83, 0
2, 11520, Note_on_c, 0, 76, 0
2, 11520, Note_on_c, 0, 74, 0
2, 11520, Note_on_c, 0, 79, 0
2, 11520, Note_on_c, 0, 71, 0
2, 11520, Note_on_c, 0, 72, 0
2, 11520, Note_on_c, 0, 84, 0
2, 11520, Note_on_c, 0, 70, 87
2, 11520, Note_on_c, 0, 73, 87
2, 11520, Note_on_c, 0, 78, 87
2, 11520, Note_on_c, 0, 82, 87
2, 11808, Note_on_c, 0, 69, 87
2, 11808, Note_on_c, 0, 81, 87
2, 11904, Note_on_c, 0, 81, 0
2, 11904, Note_on_c, 0, 69, 0
2, 11904, Note_on_c, 0, 78, 0
2, 11904, Note_on_c, 0, 73, 0
2, 11904, Note_on_c, 0, 70, 0
2, 11904, Note_on_c, 0, 82, 0
2, 11904, Note_on_c, 0, 70, 87
2, 11904, Note_on_c, 0, 75, 87
2, 11904, Note_on_c, 0, 78, 87
2, 11904, Note_on_c, 0, 82, 87
2, 12000, Note_on_c, 0, 69, 87
2, 12000, Note_on_c, 0, 81, 87
2, 12096, Note_on_c, 0, 82, 0
2, 12096, Note_on_c, 0, 70, 0
2, 12096, Note_on_c, 0, 70, 87
2, 12096, Note_on_c, 0, 74, 87
2, 12096, Note_on_c, 0, 77, 87
2, 12096, Note_on_c, 0, 82, 87
2, 12192, Note_on_c, 0, 71, 87
2, 12192, Note_on_c, 0, 83, 87
2, 12288, Note_on_c, 0, 83, 0
2, 12288, Note_on_c, 0, 82, 0
2, 12288, Note_on_c, 0, 74, 0
2, 12288, Note_on_c, 0, 75, 0
2, 12288, Note_on_c, 0, 70, 0
2, 12288, Note_on_c, 0, 78, 0
2, 12288, Note_on_c, 0, 69, 0
2, 12288, Note_on_c, 0, 81, 0
2, 12288, Note_on_c, 0, 77, 0
2, 12288, Note_on_c, 0, 71, 0
2, 12288, Note_on_c, 0, 72, 87
2, 12288, Note_on_c, 0, 76, 87
2, 12288, Note_on_c, 0, 79, 87
2, 12288, Note_on_c, 0, 84, 87
2, 12480, Note_on_c, 0, 71, 87
2, 12480, Note_on_c, 0, 74, 87
2, 12480, Note_on_c, 0, 83, 87
2, 12672, Note_on_c, 0, 83, 0
2, 12672, Note_on_c, 0, 76, 0
2, 12672, Note_on_c, 0, 74, 0
2, 12672, Note_on_c, 0, 79, 0
2, 12672, Note_on_c, 0, 71, 0
2, 12672, Note_on_c, 0, 72, 0
2, 12672, Note_on_c, 0, 84, 0
2, 12672, Note_on_c, 0, 70, 87
2, 12672, Note_on_c, 0, 73, 87
2, 12672, Note_on_c, 0, 78, 87
2, 12672, Note_on_c, 0, 82, 87
2, 12960, Note_on_c, 0, 69, 87
2, 12960, Note_on_c, 0, 81, 87
2, 13056, Note_on_c, 0, 81, 0
2, 13056, Note_on_c, 0, 69, 0
2, 13056, Note_on_c, 0, 78, 0
2, 13056, Note_on_c, 0, 73, 0
2, 13056, Note_on_c, 0, 70, 0
2, 13056, Note_on_c, 0, 82, 0
2, 13056, Note_on_c, 0, 68, 87
2, 13056, Note_on_c, 0, 80, 87
2, 13152, Note_on_c, 0, 67, 83
2, 13152, Note_on_c, 0, 79, 83
2, 13248, Note_on_c, 0, 66, 79
2, 13248, Note_on_c, 0, 78, 79
2, 13344, Note_on_c, 0, 77, 75
2, 13440, Note_on_c, 0, 77, 0
2, 13440, Note_on_c, 0, 80, 0
2, 13440, Note_on_c, 0, 78, 0
2, 13440, Note_on_c, 0, 67, 0
2, 13440, Note_on_c, 0, 66, 0
2, 13440, Note_on_c, 0, 68, 0
2, 13440, Note_on_c, 0, 79, 0
2, 13536, Note_on_c, 0, 61, 70
2, 13568, Note_on_c, 0, 61, 0
2, 13568, Note_on_c, 0, 62, 70
2, 13600, Note_on_c, 0, 62, 0
2, 13600, Note_on_c, 0, 63, 70
2, 13632, Note_on_c, 0, 63, 0
2, 13632, Note_on_c, 0, 64, 70
2, 13776, Note_on_c, 0, 64, 0
2, 13776, Note_on_c, 0, 65, 70
2, 13824, Note_on_c, 0, 65, 0
2, 13824, Note_on_c, 0, 66, 70
2, 14016, Note_on_c, 0, 66, 0
2, 14112, Note_on_c, 0, 61, 70
2, 14144, Note_on_c, 0, 61, 0
2, 14144, Note_on_c, 0, 62, 70
2, 14176, Note_on_c, 0, 62, 0
2, 14176, Note_on_c, 0, 63, 70
2, 14208, Note_on_c, 0, 63, 0
2, 14208, Note_on_c, 0, 64, 70
2, 14280, Note_on_c, 0, 64, 0
2, 14280, Note_on_c, 0, 65, 70
2, 14304, Note_on_c, 0, 65, 0
2, 14304, Note_on_c, 0, 70, 70
2, 14312, Note_on_c, 0, 70, 0
2, 14312, Note_on_c, 0, 66, 70
2, 14376, Note_on_c, 0, 66, 0
2, 14400, Note_on_c, 0, 73, 87
2, 14688, Note_on_c, 0, 73, 0
2, 14688, Note_on_c, 0, 70, 87
2, 14784, Note_on_c, 0, 70, 0
2, 14784, Note_on_c, 0, 71, 87
2, 14880, Note_on_c, 0, 71, 0
2, 14880, Note_on_c, 0, 78, 87
2, 14976, Note_on_c, 0, 78, 0
2, 14976, Note_on_c, 0, 73, 87
2, 15048, Note_on_c, 0, 73, 0
2, 15072, Note_on_c, 0, 70, 87
2, 15120, Note_on_c, 0, 70, 0
2, 15120, Note_on_c, 0, 71, 87
2, 15168, Note_on_c, 0, 71, 0
2, 15168, Note_on_c, 0, 73, 87
2, 15240, Note_on_c, 0, 73, 0
2, 15264, Note_on_c, 0, 70, 87
2, 15312, Note_on_c, 0, 70, 0
2, 15312, Note_on_c, 0, 71, 87
2, 15360, Note_on_c, 0, 71, 0
2, 15360, Note_on_c, 0, 73, 87
2, 15456, Note_on_c, 0, 73, 0
2, 15456, Note_on_c, 0, 68, 87
2, 15528, Note_on_c, 0, 68, 0
2, 15552, Note_on_c, 0, 73, 87
2, 15840, Note_on_c, 0, 73, 0
2, 15840, Note_on_c, 0, 70, 87
2, 15936, Note_on_c, 0, 70, 0
2, 15936, Note_on_c, 0, 71, 87
2, 16032, Note_on_c, 0, 71, 0
2, 16032, Note_on_c, 0, 78, 87
2, 16104, Note_on_c, 0, 78, 0
2, 16128, Note_on_c, 0, 62, 87
2, 16224, Note_on_c, 0, 62, 0
2, 16224, Note_on_c, 0, 66, 87
2, 16296, Note_on_c, 0, 66, 0
2, 16320, Note_on_c, 0, 67, 87
2, 16416, Note_on_c, 0, 67, 0
2, 16416, Note_on_c, 0, 63, 87
2, 16488, Note_on_c, 0, 63, 0
2, 16512, Note_on_c, 0, 64, 87
2, 16608, Note_on_c, 0, 64, 0
2, 16608, Note_on_c, 0, 68, 87
2, 16680, Note_on_c, 0, 68, 0
2, 16704, Note_on_c, 0, 69, 87
2, 16800, Note_on_c, 0, 69, 0
2, 16800, Note_on_c, 0, 65, 87
2, 16872, Note_on_c, 0, 65, 0
2, 16896, Note_on_c, 0, 66, 87
2, 16992, Note_on_c, 0, 66, 0
2, 16992, Note_on_c, 0, 70, 87
2, 17064, Note_on_c, 0, 70, 0
2, 17088, Note_on_c, 0, 71, 87
2, 17184, Note_on_c, 0, 71, 0
2, 17184, Note_on_c, 0, 67, 87
2, 17256, Note_on_c, 0, 67, 0
2, 17328, Note_on_c, 0, 62, 70
2, 17376, Note_on_c, 0, 64, 68
2, 17424, Note_on_c, 0, 66, 66
2, 17472, Note_on_c, 0, 68, 64
2, 17520, Note_on_c, 0, 69, 62
2, 17568, Note_on_c, 0, 71, 60
2, 17616, Note_on_c, 0, 73, 58
2, 17664, Note_on_c, 0, 75, 55
2, 17712, Note_on_c, 0, 76, 52
2, 17760, Note_on_c, 0, 78, 49
2, 17808, Note_on_c, 0, 80, 46
2, 17856, Note_on_c, 0, 82, 43
2, 17952, Note_on_c, 0, 68, 0
2, 17952, Note_on_c, 0, 69, 40
2, 17952, Note_on_c, 0, 84, 40
2, 18720, Note_on_c, 0, 84, 0
2, 18720, Note_on_c, 0, 82, 0
2, 18720, Note_on_c, 0, 80, 0
2, 18720, Note_on_c, 0, 69, 0
2, 18720, Note_on_c, 0, 61, 0
2, 18720, Note_on_c, 0, 73, 0
2, 18720, Note_on_c, 0, 62, 0
2, 18720, Note_on_c, 0, 64, 0
2, 18720, Note_on_c, 0, 58, 0
2, 18720, Note_on_c, 0, 66, 0
2, 18720, Note_on_c, 0, 78, 0
2, 18720, Note_on_c, 0, 75, 0
2, 18720, Note_on_c, 0, 71, 0
2, 18720, Note_on_c, 0, 69, 0
2, 18720, Note_on_c, 0, 76, 0
2, 18720, Note_on_c, 0, 63, 1
2, 18720, Note_on_c, 0, 63, 0
2, 18720, Note_on_c, 0, 68, 1
2, 18720, Note_on_c, 0, 68, 0
2, 18720, Note_on_c, 0, 70, 1
2, 18720, Note_on_c, 0, 70, 0
2, 18720, End_track
3, 0, Start_track
3, 0, Title_t, "Grand Piano"
3, 0, Program_c, 0, 0
3, 0, Control_c, 0, 7, 115
3, 0, Control_c, 0, 10, 80
3, 72, Note_on_c, 0, 61, 75
3, 96, Note_on_c, 0, 61, 0
3, 96, Note_on_c, 0, 62, 75
3, 168, Note_on_c, 0, 62, 0
3, 168, Note_on_c, 0, 63, 75
3, 192, Note_on_c, 0, 63, 0
3, 192, Note_on_c, 0, 64, 75
3, 264, Note_on_c, 0, 64, 0
3, 264, Note_on_c, 0, 65, 75
3, 288, Note_on_c, 0, 65, 0
3, 288, Note_on_c, 0, 66, 75
3, 360, Note_on_c, 0, 66, 0
3, 360, Note_on_c, 0, 74, 75
3, 384, Note_on_c, 0, 74, 0
3, 384, Note_on_c, 0, 71, 75
3, 576, Note_on_c, 0, 71, 0
3, 648, Note_on_c, 0, 67, 75
3, 672, Note_on_c, 0, 67, 0
3, 672, Note_on_c, 0, 71, 75
3, 744, Note_on_c, 0, 71, 0
3, 744, Note_on_c, 0, 67, 75
3, 768, Note_on_c, 0, 67, 0
3, 768, Note_on_c, 0, 61, 75
3, 840, Note_on_c, 0, 61, 0
3, 840, Note_on_c, 0, 62, 75
3, 864, Note_on_c, 0, 62, 0
3, 864, Note_on_c, 0, 63, 75
3, 936, Note_on_c, 0, 63, 0
3, 936, Note_on_c, 0, 64, 75
3, 960, Note_on_c, 0, 64, 0
3, 960, Note_on_c, 0, 65, 75
3, 1056, Note_on_c, 0, 65, 0
3, 1248, Note_on_c, 0, 61, 75
3, 1296, Note_on_c, 0, 61, 0
3, 1296, Note_on_c, 0, 61, 75
3, 1344, Note_on_c, 0, 61, 0
3, 1344, Note_on_c, 0, 61, 75
3, 1440, Note_on_c, 0, 61, 0
3, 1440, Note_on_c, 0, 62, 75
3, 1536, Note_on_c, 0, 62, 0
3, 1536, Note_on_c, 0, 63, 75
3, 1632, Note_on_c, 0, 63, 0
3, 1632, Note_on_c, 0, 64, 75
3, 1728, Note_on_c, 0, 64, 0
3, 1824, Note_on_c, 0, 61, 75
3, 1872, Note_on_c, 0, 61, 0
3, 1872, Note_on_c, 0, 61, 75
3, 1920, Note_on_c, 0, 61, 0
3, 1920, Note_on_c, 0, 61, 75
3, 2016, Note_on_c, 0, 61, 0
3, 2016, Note_on_c, 0, 62, 75
3, 2112, Note_on_c, 0, 62, 0
3, 2112, Note_on_c, 0, 63, 75
3, 2208, Note_on_c, 0, 63, 0
3, 2208, Note_on_c, 0, 64, 75
3, 2304, Note_on_c, 0, 64, 0
3, 2400, Note_on_c, 0, 61, 92
3, 2432, Note_on_c, 0, 61, 0
3, 2432, Note_on_c, 0, 62, 92
3, 2464, Note_on_c, 0, 62, 0
3, 2464, Note_on_c, 0, 63, 92
3, 2496, Note_on_c, 0, 63, 0
3, 2496, Note_on_c, 0, 64, 92
3, 2568, Note_on_c, 0, 64, 0
3, 2568, Note_on_c, 0, 65, 92
3, 2592, Note_on_c, 0, 65, 0
3, 2592, Note_on_c, 0, 66, 92
3, 2880, Note_on_c, 0, 66, 0
3, 2976, Note_on_c, 0, 61, 75
3, 3008, Note_on_c, 0, 61, 0
3, 3008, Note_on_c, 0, 62, 75
3, 3040, Note_on_c, 0, 62, 0
3, 3040, Note_on_c, 0, 63, 75
3, 3072, Note_on_c, 0, 63, 0
3, 3072, Note_on_c, 0, 64, 75
3, 3216, Note_on_c, 0, 64, 0
3, 3216, Note_on_c, 0, 65, 75
3, 3264, Note_on_c, 0, 65, 0
3, 3264, Note_on_c, 0, 66, 75
3, 3456, Note_on_c, 0, 66, 0
3, 6384, Note_on_c, 0, 50, 75
3, 6416, Note_on_c, 0, 50, 0
3, 6480, Note_on_c, 0, 50, 75
3, 6512, Note_on_c, 0, 50, 0
3, 6576, Note_on_c, 0, 51, 75
3, 6608, Note_on_c, 0, 51, 0
3, 6672, Note_on_c, 0, 52, 75
3, 6704, Note_on_c, 0, 52, 0
3, 6768, Note_on_c, 0, 53, 75
3, 6800, Note_on_c, 0, 53, 0
3, 6864, Note_on_c, 0, 55, 75
3, 6896, Note_on_c, 0, 55, 0
3, 6960, Note_on_c, 0, 56, 75
3, 6992, Note_on_c, 0, 56, 0
3, 7056, Note_on_c, 0, 56, 75
3, 7088, Note_on_c, 0, 56, 0
3, 7152, Note_on_c, 0, 63, 75
3, 7152, Note_on_c, 0, 68, 75
3, 7248, Note_on_c, 0, 68, 0
3, 7248, Note_on_c, 0, 63, 0
3, 7248, Note_on_c, 0, 63, 75
3, 7248, Note_on_c, 0, 68, 75
3, 7296, Note_on_c, 0, 68, 0
3, 7296, Note_on_c, 0, 63, 0
3, 7344, Note_on_c, 0, 62, 75
3, 7344, Note_on_c, 0, 67, 75
3, 7392, Note_on_c, 0, 67, 0
3, 7392, Note_on_c, 0, 62, 0
3, 7440, Note_on_c, 0, 61, 75
3, 7440, Note_on_c, 0, 66, 75
3, 7536, Note_on_c, 0, 66, 0
3, 7536, Note_on_c, 0, 61, 0
3, 7536, Note_on_c, 0, 61, 75
3, 7536, Note_on_c, 0, 66, 75
3, 7584, Note_on_c, 0, 66, 0
3, 7584, Note_on_c, 0, 61, 0
3, 7632, Note_on_c, 0, 62, 75
3, 7632, Note_on_c, 0, 67, 75
3, 7680, Note_on_c, 0, 67, 0
3, 7680, Note_on_c, 0, 62, 0
3, 7728, Note_on_c, 0, 63, 75
3, 7728, Note_on_c, 0, 68, 75
3, 7824, Note_on_c, 0, 68, 0
3, 7824, Note_on_c, 0, 63, 0
3, 7824, Note_on_c, 0, 63, 75
3, 7824, Note_on_c, 0, 68, 75
3, 7872, Note_on_c, 0, 68, 0
3, 7872, Note_on_c, 0, 63, 0
3, 10176, Note_on_c, 0, 61, 79
3, 10272, Note_on_c, 0, 66, 80
3, 10464, Note_on_c, 0, 64, 82
3, 10464, Note_on_c, 0, 68, 82
3, 10656, Note_on_c, 0, 66, 0
3, 10656, Note_on_c, 0, 66, 84
3, 10656, Note_on_c, 0, 70, 84
3, 10848, Note_on_c, 0, 68, 0
3, 10848, Note_on_c, 0, 68, 86
3, 10944, Note_on_c, 0, 73, 88
3, 11136, Note_on_c, 0, 73, 0
3, 11136, Note_on_c, 0, 64, 0
3, 11136, Note_on_c, 0, 70, 0
3, 11136, Note_on_c, 0, 61, 0
3, 11136, Note_on_c, 0, 68, 0
3, 11136, Note_on_c, 0, 66, 0
3, 13056, Note_on_c, 0, 70, 92
3, 13056, Note_on_c, 0, 75, 92
3, 13248, Note_on_c, 0, 74, 84
3, 13440, Note_on_c, 0, 74, 0
3, 13440, Note_on_c, 0, 75, 0
3, 13440, Note_on_c, 0, 70, 0
3, 14496, Note_on_c, 0, 61, 75
3, 14544, Note_on_c, 0, 61, 0
3, 14544, Note_on_c, 0, 61, 75
3, 14592, Note_on_c, 0, 61, 0
3, 14592, Note_on_c, 0, 61, 75
3, 14688, Note_on_c, 0, 61, 0
3, 14688, Note_on_c, 0, 62, 75
3, 14784, Note_on_c, 0, 62, 0
3, 14784, Note_on_c, 0, 63, 75
3, 14976, Note_on_c, 0, 63, 0
3, 15072, Note_on_c, 0, 62, 75
3, 15264, Note_on_c, 0, 62, 0
3, 15264, Note_on_c, 0, 63, 75
3, 15456, Note_on_c, 0, 63, 0
3, 15456, Note_on_c, 0, 64, 75
3, 15552, Note_on_c, 0, 64, 0
3, 15648, Note_on_c, 0, 61, 75
3, 15696, Note_on_c, 0, 61, 0
3, 15696, Note_on_c, 0, 61, 75
3, 15744, Note_on_c, 0, 61, 0
3, 15744, Note_on_c, 0, 61, 75
3, 15840, Note_on_c, 0, 61, 0
3, 15840, Note_on_c, 0, 62, 75
3, 15936, Note_on_c, 0, 62, 0
3, 15936, Note_on_c, 0, 63, 75
3, 16128, Note_on_c, 0, 63, 0
3, 16128, End_track
4, 0, Start_track
4, 0, Title_t, "Grand Piano"
4, 0, Program_c, 0, 0
4, 0, Control_c, 0, 7, 115
4, 0, Control_c, 0, 10, 41
4, 0, Note_on_c, 0, 43, 70
4, 32, Note_on_c, 0, 43, 0
4, 96, Note_on_c, 0, 59, 70
4, 128, Note_on_c, 0, 59, 0
4, 192, Note_on_c, 0, 45, 70
4, 224, Note_on_c, 0, 45, 0
4, 288, Note_on_c, 0, 60, 70
4, 320, Note_on_c, 0, 60, 0
4, 384, Note_on_c, 0, 50, 70
4, 416, Note_on_c, 0, 50, 0
4, 480, Note_on_c, 0, 62, 70
4, 512, Note_on_c, 0, 62, 0
4, 576, Note_on_c, 0, 43, 70
4, 608, Note_on_c, 0, 43, 0
4, 672, Note_on_c, 0, 59, 70
4, 704, Note_on_c, 0, 59, 0
4, 768, Note_on_c, 0, 45, 70
4, 800, Note_on_c, 0, 45, 0
4, 864, Note_on_c, 0, 60, 70
4, 896, Note_on_c, 0, 60, 0
4, 960, Note_on_c, 0, 50, 70
4, 992, Note_on_c, 0, 50, 0
4, 1056, Note_on_c, 0, 62, 70
4, 1088, Note_on_c, 0, 62, 0
4, 1152, Note_on_c, 0, 43, 70
4, 1184, Note_on_c, 0, 43, 0
4, 1248, Note_on_c, 0, 59, 70
4, 1280, Note_on_c, 0, 59, 0
4, 1344, Note_on_c, 0, 45, 70
4, 1376, Note_on_c, 0, 45, 0
4, 1440, Note_on_c, 0, 60, 70
4, 1472, Note_on_c, 0, 60, 0
4, 1536, Note_on_c, 0, 50, 70
4, 1568, Note_on_c, 0, 50, 0
4, 1632, Note_on_c, 0, 62, 70
4, 1664, Note_on_c, 0, 62, 0
4, 1728, Note_on_c, 0, 43, 70
4, 1760, Note_on_c, 0, 43, 0
4, 1824, Note_on_c, 0, 59, 70
4, 1856, Note_on_c, 0, 59, 0
4, 1920, Note_on_c, 0, 45, 70
4, 1952, Note_on_c, 0, 45, 0
4, 2016, Note_on_c, 0, 60, 70
4, 2048, Note_on_c, 0, 60, 0
4, 2112, Note_on_c, 0, 50, 70
4, 2144, Note_on_c, 0, 50, 0
4, 2208, Note_on_c, 0, 62, 70
4, 2240, Note_on_c, 0, 62, 0
4, 2304, Note_on_c, 0, 43, 70
4, 2336, Note_on_c, 0, 43, 0
4, 2400, Note_on_c, 0, 59, 70
4, 2432, Note_on_c, 0, 59, 0
4, 2496, Note_on_c, 0, 45, 70
4, 2528, Note_on_c, 0, 45, 0
4, 2592, Note_on_c, 0, 60, 70
4, 2624, Note_on_c, 0, 60, 0
4, 2688, Note_on_c, 0, 50, 70
4, 2720, Note_on_c, 0, 50, 0
4, 2784, Note_on_c, 0, 62, 70
4, 2816, Note_on_c, 0, 62, 0
4, 2880, Note_on_c, 0, 43, 70
4, 2912, Note_on_c, 0, 43, 0
4, 2976, Note_on_c, 0, 59, 70
4, 3008, Note_on_c, 0, 59, 0
4, 3072, Note_on_c, 0, 45, 70
4, 3104, Note_on_c, 0, 45, 0
4, 3168, Note_on_c, 0, 60, 70
4, 3200, Note_on_c, 0, 60, 0
4, 3264, Note_on_c, 0, 50, 70
4, 3296, Note_on_c, 0, 50, 0
4, 3360, Note_on_c, 0, 62, 70
4, 3392, Note_on_c, 0, 62, 0
4, 3456, Note_on_c, 0, 43, 70
4, 3488, Note_on_c, 0, 43, 0
4, 3552, Note_on_c, 0, 59, 70
4, 3584, Note_on_c, 0, 59, 0
4, 3648, Note_on_c, 0, 45, 70
4, 3680, Note_on_c, 0, 45, 0
4, 3744, Note_on_c, 0, 60, 70
4, 3776, Note_on_c, 0, 60, 0
4, 3840, Note_on_c, 0, 50, 70
4, 3872, Note_on_c, 0, 50, 0
4, 3936, Note_on_c, 0, 62, 70
4, 3968, Note_on_c, 0, 62, 0
4, 4032, Note_on_c, 0, 43, 70
4, 4064, Note_on_c, 0, 43, 0
4, 4128, Note_on_c, 0, 59, 70
4, 4160, Note_on_c, 0, 59, 0
4, 4224, Note_on_c, 0, 45, 70
4, 4256, Note_on_c, 0, 45, 0
4, 4320, Note_on_c, 0, 60, 70
4, 4352, Note_on_c, 0, 60, 0
4, 4416, Note_on_c, 0, 50, 70
4, 4448, Note_on_c, 0, 50, 0
4, 4512, Note_on_c, 0, 62, 70
4, 4544, Note_on_c, 0, 62, 0
4, 4608, Note_on_c, 0, 43, 70
4, 4640, Note_on_c, 0, 43, 0
4, 4704, Note_on_c, 0, 59, 70
4, 4736, Note_on_c, 0, 59, 0
4, 4800, Note_on_c, 0, 45, 70
4, 4832, Note_on_c, 0, 45, 0
4, 4896, Note_on_c, 0, 60, 70
4, 4928, Note_on_c, 0, 60, 0
4, 4992, Note_on_c, 0, 50, 70
4, 5024, Note_on_c, 0, 50, 0
4, 5088, Note_on_c, 0, 62, 70
4, 5120, Note_on_c, 0, 62, 0
4, 5184, Note_on_c, 0, 43, 70
4, 5216, Note_on_c, 0, 43, 0
4, 5280, Note_on_c, 0, 59, 70
4, 5312, Note_on_c, 0, 59, 0
4, 5376, Note_on_c, 0, 45, 70
4, 5408, Note_on_c, 0, 45, 0
4, 5472, Note_on_c, 0, 60, 70
4, 5504, Note_on_c, 0, 60, 0
4, 5568, Note_on_c, 0, 50, 70
4, 5600, Note_on_c, 0, 50, 0
4, 5664, Note_on_c, 0, 62, 70
4, 5696, Note_on_c, 0, 62, 0
4, 5760, Note_on_c, 0, 41, 70
4, 5792, Note_on_c, 0, 41, 0
4, 5856, Note_on_c, 0, 55, 70
4, 5888, Note_on_c, 0, 55, 0
4, 5952, Note_on_c, 0, 43, 70
4, 5984, Note_on_c, 0, 43, 0
4, 6048, Note_on_c, 0, 57, 70
4, 6080, Note_on_c, 0, 57, 0
4, 6144, Note_on_c, 0, 41, 70
4, 6176, Note_on_c, 0, 41, 0
4, 6240, Note_on_c, 0, 55, 70
4, 6272, Note_on_c, 0, 55, 0
4, 6336, Note_on_c, 0, 41, 70
4, 6368, Note_on_c, 0, 41, 0
4, 6432, Note_on_c, 0, 55, 70
4, 6464, Note_on_c, 0, 55, 0
4, 6528, Note_on_c, 0, 43, 70
4, 6560, Note_on_c, 0, 43, 0
4, 6624, Note_on_c, 0, 57, 70
4, 6656, Note_on_c, 0, 57, 0
4, 6720, Note_on_c, 0, 41, 70
4, 6752, Note_on_c, 0, 41, 0
4, 6816, Note_on_c, 0, 55, 70
4, 6848, Note_on_c, 0, 55, 0
4, 6912, Note_on_c, 0, 43, 70
4, 6944, Note_on_c, 0, 43, 0
4, 7008, Note_on_c, 0, 57, 70
4, 7040, Note_on_c, 0, 57, 0
4, 7104, Note_on_c, 0, 41, 70
4, 7200, Note_on_c, 0, 55, 70
4, 7296, Note_on_c, 0, 55, 0
4, 7296, Note_on_c, 0, 41, 0
4, 7296, Note_on_c, 0, 43, 70
4, 7392, Note_on_c, 0, 43, 0
4, 7392, Note_on_c, 0, 57, 70
4, 7488, Note_on_c, 0, 41, 70
4, 7584, Note_on_c, 0, 41, 0
4, 7584, Note_on_c, 0, 57, 0
4, 7584, Note_on_c, 0, 55, 70
4, 7680, Note_on_c, 0, 55, 0
4, 7680, Note_on_c, 0, 43, 70
4, 7776, Note_on_c, 0, 57, 70
4, 7872, Note_on_c, 0, 57, 0
4, 7872, Note_on_c, 0, 43, 0
4, 7872, Note_on_c, 0, 41, 70
4, 7904, Note_on_c, 0, 41, 0
4, 7968, Note_on_c, 0, 55, 70
4, 8000, Note_on_c, 0, 55, 0
4, 8064, Note_on_c, 0, 43, 70
4, 8096, Note_on_c, 0, 43, 0
4, 8160, Note_on_c, 0, 57, 70
4, 8192, Note_on_c, 0, 57, 0
4, 8256, Note_on_c, 0, 41, 70
4, 8288, Note_on_c, 0, 41, 0
4, 8352, Note_on_c, 0, 55, 70
4, 8384, Note_on_c, 0, 55, 0
4, 8448, Note_on_c, 0, 43, 70
4, 8480, Note_on_c, 0, 43, 0
4, 8544, Note_on_c, 0, 57, 70
4, 8576, Note_on_c, 0, 57, 0
4, 8640, Note_on_c, 0, 41, 70
4, 8736, Note_on_c, 0, 55, 70
4, 8832, Note_on_c, 0, 43, 70
4, 8928, Note_on_c, 0, 57, 70
4, 9024, Note_on_c, 0, 57, 0
4, 9024, Note_on_c, 0, 41, 0
4, 9024, Note_on_c, 0, 55, 0
4, 9024, Note_on_c, 0, 43, 0
4, 9024, Note_on_c, 0, 55, 70
4, 9120, Note_on_c, 0, 55, 0
4, 9120, Note_on_c, 0, 57, 70
4, 9168, Note_on_c, 0, 57, 0
4, 9216, Note_on_c, 0, 59, 70
4, 9312, Note_on_c, 0, 59, 0
4, 9312, Note_on_c, 0, 57, 70
4, 9360, Note_on_c, 0, 57, 0
4, 9408, Note_on_c, 0, 55, 70
4, 9504, Note_on_c, 0, 55, 0
4, 9504, Note_on_c, 0, 57, 70
4, 9552, Note_on_c, 0, 57, 0
4, 9600, Note_on_c, 0, 59, 70
4, 9696, Note_on_c, 0, 57, 70
4, 9888, Note_on_c, 0, 50, 70
4, 10080, Note_on_c, 0, 57, 0
4, 10080, Note_on_c, 0, 57, 70
4, 10272, Note_on_c, 0, 50, 0
4, 10272, Note_on_c, 0, 50, 70
4, 10464, Note_on_c, 0, 57, 0
4, 10464, Note_on_c, 0, 57, 70
4, 10656, Note_on_c, 0, 50, 0
4, 10656, Note_on_c, 0, 50, 70
4, 10848, Note_on_c, 0, 57, 0
4, 10848, Note_on_c, 0, 57, 70
4, 11040, Note_on_c, 0, 50, 0
4, 11040, Note_on_c, 0, 50, 70
4, 11136, Note_on_c, 0, 50, 0
4, 11136, Note_on_c, 0, 57, 0
4, 11136, Note_on_c, 0, 59, 0
4, 11232, Note_on_c, 0, 48, 87
4, 11328, Note_on_c, 0, 55, 87
4, 11328, Note_on_c, 0, 64, 87
4, 11424, Note_on_c, 0, 48, 0
4, 11424, Note_on_c, 0, 48, 87
4, 11520, Note_on_c, 0, 48, 0
4, 11520, Note_on_c, 0, 64, 0
4, 11520, Note_on_c, 0, 55, 0
4, 11616, Note_on_c, 0, 51, 87
4, 11712, Note_on_c, 0, 61, 87
4, 11712, Note_on_c, 0, 66, 87
4, 11808, Note_on_c, 0, 51, 0
4, 11808, Note_on_c, 0, 51, 87
4, 11904, Note_on_c, 0, 51, 0
4, 11904, Note_on_c, 0, 66, 0
4, 11904, Note_on_c, 0, 61, 0
4, 12000, Note_on_c, 0, 53, 87
4, 12096, Note_on_c, 0, 59, 87
4, 12096, Note_on_c, 0, 65, 87
4, 12192, Note_on_c, 0, 53, 0
4, 12192, Note_on_c, 0, 53, 87
4, 12288, Note_on_c, 0, 53, 0
4, 12288, Note_on_c, 0, 65, 0
4, 12288, Note_on_c, 0, 59, 0
4, 12384, Note_on_c, 0, 48, 87
4, 12480, Note_on_c, 0, 55, 87
4, 12480, Note_on_c, 0, 64, 87
4, 12576, Note_on_c, 0, 48, 0
4, 12576, Note_on_c, 0, 48, 87
4, 12672, Note_on_c, 0, 48, 0
4, 12672, Note_on_c, 0, 64, 0
4, 12672, Note_on_c, 0, 55, 0
4, 12768, Note_on_c, 0, 51, 85
4, 12864, Note_on_c, 0, 61, 83
4, 12864, Note_on_c, 0, 66, 83
4, 12960, Note_on_c, 0, 51, 0
4, 12960, Note_on_c, 0, 51, 81
4, 13056, Note_on_c, 0, 51, 0
4, 13056, Note_on_c, 0, 66, 0
4, 13056, Note_on_c, 0, 61, 0
4, 13152, Note_on_c, 0, 53, 77
4, 13248, Note_on_c, 0, 59, 75
4, 13248, Note_on_c, 0, 65, 75
4, 13344, Note_on_c, 0, 53, 0
4, 13344, Note_on_c, 0, 53, 73
4, 13440, Note_on_c, 0, 53, 0
4, 13440, Note_on_c, 0, 65, 0
4, 13440, Note_on_c, 0, 59, 0
4, 13440, Note_on_c, 0, 43, 70
4, 13472, Note_on_c, 0, 43, 0
4, 13536, Note_on_c, 0, 59, 70
4, 13568, Note_on_c, 0, 59, 0
4, 13632, Note_on_c, 0, 45, 70
4, 13664, Note_on_c, 0, 45, 0
4, 13728, Note_on_c, 0, 60, 70
4, 13760, Note_on_c, 0, 60, 0
4, 13824, Note_on_c, 0, 50, 70
4, 13856, Note_on_c, 0, 50, 0
4, 13920, Note_on_c, 0, 62, 70
4, 13952, Note_on_c, 0, 62, 0
4, 14016, Note_on_c, 0, 43, 70
4, 14048, Note_on_c, 0, 43, 0
4, 14112, Note_on_c, 0, 59, 70
4, 14144, Note_on_c, 0, 59, 0
4, 14208, Note_on_c, 0, 58, 70
4, 14240, Note_on_c, 0, 58, 0
4, 14304, Note_on_c, 0, 38, 70
4, 14336, Note_on_c, 0, 38, 0
4, 14400, Note_on_c, 0, 43, 70
4, 14432, Note_on_c, 0, 43, 0
4, 14496, Note_on_c, 0, 59, 70
4, 14528, Note_on_c, 0, 59, 0
4, 14592, Note_on_c, 0, 45, 70
4, 14624, Note_on_c, 0, 45, 0
4, 14688, Note_on_c, 0, 60, 70
4, 14720, Note_on_c, 0, 60, 0
4, 14784, Note_on_c, 0, 50, 70
4, 14816, Note_on_c, 0, 50, 0
4, 14880, Note_on_c, 0, 62, 70
4, 14912, Note_on_c, 0, 62, 0
4, 14976, Note_on_c, 0, 43, 70
4, 15008, Note_on_c, 0, 43, 0
4, 15072, Note_on_c, 0, 59, 70
4, 15104, Note_on_c, 0, 59, 0
4, 15168, Note_on_c, 0, 45, 70
4, 15200, Note_on_c, 0, 45, 0
4, 15264, Note_on_c, 0, 60, 70
4, 15296, Note_on_c, 0, 60, 0
4, 15360, Note_on_c, 0, 50, 70
4, 15392, Note_on_c, 0, 50, 0
4, 15456, Note_on_c, 0, 62, 70
4, 15488, Note_on_c, 0, 62, 0
4, 15552, Note_on_c, 0, 43, 70
4, 15584, Note_on_c, 0, 43, 0
4, 15648, Note_on_c, 0, 59, 70
4, 15680, Note_on_c, 0, 59, 0
4, 15744, Note_on_c, 0, 45, 70
4, 15776, Note_on_c, 0, 45, 0
4, 15840, Note_on_c, 0, 60, 70
4, 15872, Note_on_c, 0, 60, 0
4, 15936, Note_on_c, 0, 50, 70
4, 16128, Note_on_c, 0, 50, 0
4, 16128, Note_on_c, 0, 62, 70
4, 16320, Note_on_c, 0, 62, 0
4, 16320, Note_on_c, 0, 61, 70
4, 16512, Note_on_c, 0, 61, 0
4, 16512, Note_on_c, 0, 60, 70
4, 16704, Note_on_c, 0, 60, 0
4, 16704, Note_on_c, 0, 63, 70
4, 16896, Note_on_c, 0, 63, 0
4, 16896, Note_on_c, 0, 64, 70
4, 17088, Note_on_c, 0, 64, 0
4, 17088, Note_on_c, 0, 60, 70
4, 17280, Note_on_c, 0, 60, 0
4, 17280, Note_on_c, 0, 61, 70
4, 17436, Note_on_c, 0, 53, 64
4, 17592, Note_on_c, 0, 59, 57
4, 17748, Note_on_c, 0, 43, 50
4, 18720, Note_on_c, 0, 43, 0
4, 18720, Note_on_c, 0, 61, 0
4, 18720, Note_on_c, 0, 53, 0
4, 18720, Note_on_c, 0, 59, 0
4, 18720, End_track
5, 0, Start_track
5, 0, Title_t, "Grand Piano"
5, 0, Program_c, 0, 0
5, 0, Control_c, 0, 7, 115
5, 0, Control_c, 0, 10, 48
5, 9024, Note_on_c, 0, 41, 75
5, 9056, Note_on_c, 0, 41, 0
5, 9216, Note_on_c, 0, 43, 75
5, 9248, Note_on_c, 0, 43, 0
5, 9408, Note_on_c, 0, 41, 75
5, 9440, Note_on_c, 0, 41, 0
5, 9600, Note_on_c, 0, 43, 75
5, 9792, Note_on_c, 0, 41, 75
5, 9984, Note_on_c, 0, 43, 0
5, 9984, Note_on_c, 0, 43, 75
5, 10176, Note_on_c, 0, 41, 0
5, 10176, Note_on_c, 0, 41, 75
5, 10368, Note_on_c, 0, 43, 0
5, 10368, Note_on_c, 0, 43, 75
5, 10560, Note_on_c, 0, 41, 0
5, 10560, Note_on_c, 0, 41, 75
5, 10752, Note_on_c, 0, 43, 0
5, 10752, Note_on_c, 0, 43, 75
5, 10944, Note_on_c, 0, 41, 0
5, 10944, Note_on_c, 0, 41, 75
5, 11136, Note_on_c, 0, 41, 0
5, 11136, Note_on_c, 0, 43, 0
5, 11136, Note_on_c, 0, 36, 92
5, 11136, Note_on_c, 0, 43, 92
5, 11136, Note_on_c, 0, 52, 92
5, 11520, Note_on_c, 0, 52, 0
5, 11520, Note_on_c, 0, 43, 0
5, 11520, Note_on_c, 0, 36, 0
5, 11520, Note_on_c, 0, 39, 92
5, 11520, Note_on_c, 0, 49, 92
5, 11520, Note_on_c, 0, 54, 92
5, 11904, Note_on_c, 0, 54, 0
5, 11904, Note_on_c, 0, 49, 0
5, 11904, Note_on_c, 0, 39, 0
5, 11904, Note_on_c, 0, 42, 92
5, 11904, Note_on_c, 0, 53, 92
5, 11904, Note_on_c, 0, 59, 92
5, 12000, Note_on_c, 0, 53, 0
5, 12096, Note_on_c, 0, 59, 0
5, 12288, Note_on_c, 0, 42, 0
5, 12288, Note_on_c, 0, 36, 92
5, 12288, Note_on_c, 0, 43, 92
5, 12288, Note_on_c, 0, 52, 92
5, 12672, Note_on_c, 0, 52, 0
5, 12672, Note_on_c, 0, 43, 0
5, 12672, Note_on_c, 0, 36, 0
5, 12672, Note_on_c, 0, 39, 92
5, 12672, Note_on_c, 0, 49, 92
5, 12672, Note_on_c, 0, 54, 92
5, 13056, Note_on_c, 0, 54, 0
5, 13056, Note_on_c, 0, 49, 0
5, 13056, Note_on_c, 0, 39, 0
5, 13056, Note_on_c, 0, 42, 84
5, 13056, Note_on_c, 0, 53, 84
5, 13056, Note_on_c, 0, 59, 84
5, 13152, Note_on_c, 0, 53, 0
5, 13248, Note_on_c, 0, 59, 0
5, 13440, Note_on_c, 0, 42, 0
5, 17280, Note_on_c, 0, 54, 75
5, 17436, Note_on_c, 0, 60, 69
5, 17592, Note_on_c, 0, 51, 62
5, 17748, Note_on_c, 0, 58, 55
5, 17904, Note_on_c, 0, 31, 45
5, 17952, Note_on_c, 0, 57, 45
5, 18720, Note_on_c, 0, 57, 0
5, 18720, Note_on_c, 0, 60, 0
5, 18720, Note_on_c, 0, 51, 0
5, 18720, Note_on_c, 0, 54, 0
5, 18720, Note_on_c, 0, 31, 0
5, 18720, Note_on_c, 0, 58, 0
5, 18720, End_track
0, 0, End_of_file
