0, 0, Header, 1, 5, 192
1, 0, Start_track
1, 0, Title_t, "Francis Poulenc: Cinq Impromptus - 4. Violent"
1, 0, Copyright_t, "Adaptation for Disklavier pianos, by: Robert C. Kuhmann (c) 2012."
1, 0, Text_t, "By Lyndon Meyer\012"
1, 0, Time_signature, 3, 2, 24, 8
1, 0, Key_signature, 0, "major"
1, 0, Tempo, 227273
1, 576, Time_signature, 4, 2, 24, 8
1, 1344, Time_signature, 3, 2, 24, 8
1, 16896, Time_signature, 5, 2, 24, 8
1, 18827, Tempo, 228137
1, 18838, Tempo, 229008
1, 18850, Tempo, 229885
1, 18861, Tempo, 230769
1, 18873, Tempo, 231660
1, 18884, Tempo, 232558
1, 18896, Tempo, 233463
1, 18907, Tempo, 234375
1, 18918, Tempo, 235294
1, 18930, Tempo, 236220
1, 18941, Tempo, 237154
1, 18953, Tempo, 238095
1, 18964, Tempo, 239044
1, 18976, Tempo, 240000
1, 18987, Tempo, 240964
1, 18998, Tempo, 241935
1, 19010, Tempo, 242915
1, 19021, Tempo, 243902
1, 19033, Tempo, 244898
1, 19044, Tempo, 245902
1, 19056, Tempo, 246914
1, 19067, Tempo, 247934
1, 19078, Tempo, 248963
1, 19090, Tempo, 250000
1, 19101, Tempo, 251046
1, 19113, Tempo, 252101
1, 19124, Tempo, 253165
1, 19136, Tempo, 254237
1, 19147, Tempo, 255319
1, 19158, Tempo, 256410
1, 19170, Tempo, 257511
1, 19181, Tempo, 258621
1, 19193, Tempo, 259740
1, 19204, Tempo, 260870
1, 19216, Tempo, 262009
1, 19227, Tempo, 263158
1, 19238, Tempo, 264317
1, 19250, Tempo, 265487
1, 19261, Tempo, 266667
1, 19273, Tempo, 267857
1, 19284, Tempo, 269058
1, 19296, Tempo, 270270
1, 19307, Tempo, 271493
1, 19318, Tempo, 272727
1, 19330, Tempo, 273973
1, 19341, Tempo, 275229
1, 19353, Tempo, 276498
1, 19364, Tempo, 277778
1, 19376, Tempo, 279070
1, 19387, Tempo, 280374
1, 19398, Tempo, 281690
1, 19410, Tempo, 283019
1, 19421, Tempo, 284360
1, 19433, Tempo, 285714
1, 19444, Tempo, 287081
1, 19456, Tempo, 288462
1, 19467, Tempo, 289855
1, 19478, Tempo, 291262
1, 19490, Tempo, 292683
1, 19501, Tempo, 294118
1, 19513, Tempo, 295567
1, 19524, Tempo, 297030
1, 19536, Tempo, 298507
1, 19547, Tempo, 300000
1, 19558, Tempo, 301508
1, 19570, Tempo, 303030
1, 19581, Tempo, 304569
1, 19593, Tempo, 306122
1, 19604, Tempo, 307692
1, 19616, Tempo, 309278
1, 19627, Tempo, 310881
1, 19638, Tempo, 312500
1, 19650, Tempo, 314136
1, 19661, Tempo, 315789
1, 19673, Tempo, 317460
1, 19684, Tempo, 319149
1, 19696, Tempo, 320856
1, 19707, Tempo, 322581
1, 19718, Tempo, 324324
1, 19730, Tempo, 326087
1, 19741, Tempo, 327869
1, 19753, Tempo, 329670
1, 19764, Tempo, 331492
1, 19776, Time_signature, 2, 2, 24, 8
1, 19776, Tempo, 227273
1, 20160, Time_signature, 3, 2, 24, 8
1, 20736, Time_signature, 4, 2, 24, 8
1, 21504, Time_signature, 3, 2, 24, 8
1, 38208, Time_signature, 2, 2, 24, 8
1, 38592, Time_signature, 3, 2, 24, 8
1, 39744, Time_signature, 2, 2, 24, 8
1, 40128, Time_signature, 3, 2, 24, 8
1, 40128, End_track
2, 0, Start_track
2, 0, Title_t, "Grand Piano"
2, 0, Program_c, 0, 0
2, 0, Control_c, 0, 7, 115
2, 0, Control_c, 0, 10, 85
2, 192, Note_on_c, 0, 72, 112
2, 192, Note_on_c, 0, 76, 112
2, 192, Note_on_c, 0, 79, 112
2, 192, Note_on_c, 0, 84, 112
2, 384, Note_on_c, 0, 74, 112
2, 384, Note_on_c, 0, 78, 112
2, 384, Note_on_c, 0, 81, 112
2, 384, Note_on_c, 0, 86, 112
2, 576, Note_on_c, 0, 79, 0
2, 576, Note_on_c, 0, 76, 0
2, 576, Note_on_c, 0, 76, 112
2, 576, Note_on_c, 0, 79, 112
2, 576, Note_on_c, 0, 83, 112
2, 576, Note_on_c, 0, 88, 112
2, 768, Note_on_c, 0, 79, 0
2, 768, Note_on_c, 0, 84, 0
2, 768, Note_on_c, 0, 72, 0
2, 768, Note_on_c, 0, 72, 112
2, 768, Note_on_c, 0, 79, 112
2, 768, Note_on_c, 0, 84, 112
2, 864, Note_on_c, 0, 79, 0
2, 864, Note_on_c, 0, 76, 0
2, 864, Note_on_c, 0, 76, 112
2, 864, Note_on_c, 0, 79, 112
2, 960, Note_on_c, 0, 74, 0
2, 960, Note_on_c, 0, 86, 0
2, 960, Note_on_c, 0, 74, 112
2, 960, Note_on_c, 0, 86, 112
2, 1056, Note_on_c, 0, 81, 0
2, 1056, Note_on_c, 0, 78, 0
2, 1056, Note_on_c, 0, 78, 112
2, 1056, Note_on_c, 0, 81, 112
2, 1152, Note_on_c, 0, 76, 0
2, 1152, Note_on_c, 0, 79, 0
2, 1152, Note_on_c, 0, 83, 0
2, 1152, Note_on_c, 0, 88, 0
2, 1152, Note_on_c, 0, 76, 112
2, 1152, Note_on_c, 0, 79, 112
2, 1152, Note_on_c, 0, 83, 112
2, 1152, Note_on_c, 0, 88, 112
2, 1344, Note_on_c, 0, 88, 0
2, 1344, Note_on_c, 0, 81, 0
2, 1344, Note_on_c, 0, 84, 0
2, 1344, Note_on_c, 0, 78, 0
2, 1344, Note_on_c, 0, 72, 0
2, 1344, Note_on_c, 0, 86, 0
2, 1344, Note_on_c, 0, 79, 0
2, 1344, Note_on_c, 0, 76, 0
2, 1344, Note_on_c, 0, 74, 0
2, 1344, Note_on_c, 0, 83, 0
2, 1344, Note_on_c, 0, 72, 77
2, 1440, Note_on_c, 0, 72, 0
2, 1440, Note_on_c, 0, 74, 78
2, 1536, Note_on_c, 0, 74, 0
2, 1536, Note_on_c, 0, 75, 79
2, 1632, Note_on_c, 0, 75, 0
2, 1632, Note_on_c, 0, 77, 80
2, 1728, Note_on_c, 0, 77, 0
2, 1728, Note_on_c, 0, 79, 81
2, 1824, Note_on_c, 0, 79, 0
2, 1824, Note_on_c, 0, 81, 83
2, 1920, Note_on_c, 0, 81, 0
2, 1920, Note_on_c, 0, 83, 85
2, 2112, Note_on_c, 0, 83, 0
2, 2112, Note_on_c, 0, 81, 89
2, 2208, Note_on_c, 0, 81, 0
2, 2208, Note_on_c, 0, 83, 91
2, 2304, Note_on_c, 0, 83, 0
2, 2304, Note_on_c, 0, 79, 93
2, 2448, Note_on_c, 0, 79, 0
2, 2496, Note_on_c, 0, 68, 93
2, 2688, Note_on_c, 0, 68, 0
2, 2688, Note_on_c, 0, 66, 93
2, 2784, Note_on_c, 0, 66, 0
2, 2784, Note_on_c, 0, 68, 93
2, 2880, Note_on_c, 0, 68, 0
2, 2880, Note_on_c, 0, 64, 93
2, 3024, Note_on_c, 0, 64, 0
2, 3072, Note_on_c, 0, 63, 93
2, 3168, Note_on_c, 0, 63, 0
2, 3168, Note_on_c, 0, 64, 93
2, 3264, Note_on_c, 0, 64, 0
2, 3264, Note_on_c, 0, 61, 93
2, 3360, Note_on_c, 0, 61, 0
2, 3360, Note_on_c, 0, 59, 93
2, 3456, Note_on_c, 0, 59, 0
2, 3456, Note_on_c, 0, 61, 93
2, 3600, Note_on_c, 0, 61, 0
2, 3648, Note_on_c, 0, 81, 77
2, 3936, Note_on_c, 0, 81, 0
2, 3936, Note_on_c, 0, 79, 77
2, 3984, Note_on_c, 0, 79, 0
2, 3984, Note_on_c, 0, 81, 77
2, 4032, Note_on_c, 0, 81, 0
2, 4032, Note_on_c, 0, 79, 77
2, 4224, Note_on_c, 0, 79, 0
2, 4224, Note_on_c, 0, 78, 77
2, 4416, Note_on_c, 0, 78, 0
2, 4416, Note_on_c, 0, 76, 77
2, 4944, Note_on_c, 0, 76, 0
2, 4992, Note_on_c, 0, 78, 77
2, 5088, Note_on_c, 0, 78, 0
2, 5088, Note_on_c, 0, 74, 77
2, 5184, Note_on_c, 0, 74, 0
2, 5184, Note_on_c, 0, 76, 77
2, 5376, Note_on_c, 0, 76, 0
2, 5376, Note_on_c, 0, 79, 77
2, 5472, Note_on_c, 0, 79, 0
2, 5472, Note_on_c, 0, 78, 77
2, 5568, Note_on_c, 0, 78, 0
2, 5568, Note_on_c, 0, 76, 77
2, 5904, Note_on_c, 0, 76, 0
2, 5952, Note_on_c, 0, 79, 60
2, 6240, Note_on_c, 0, 79, 0
2, 6240, Note_on_c, 0, 77, 60
2, 6288, Note_on_c, 0, 77, 0
2, 6288, Note_on_c, 0, 79, 60
2, 6336, Note_on_c, 0, 79, 0
2, 6336, Note_on_c, 0, 77, 60
2, 6528, Note_on_c, 0, 77, 0
2, 6528, Note_on_c, 0, 71, 60
2, 6720, Note_on_c, 0, 71, 0
2, 6720, Note_on_c, 0, 69, 60
2, 6912, Note_on_c, 0, 69, 0
2, 6912, Note_on_c, 0, 74, 60
2, 7104, Note_on_c, 0, 74, 0
2, 7104, Note_on_c, 0, 79, 60
2, 7296, Note_on_c, 0, 79, 0
2, 7296, Note_on_c, 0, 77, 60
2, 7392, Note_on_c, 0, 77, 0
2, 7392, Note_on_c, 0, 79, 60
2, 7488, Note_on_c, 0, 79, 0
2, 7488, Note_on_c, 0, 71, 60
2, 7584, Note_on_c, 0, 71, 0
2, 7584, Note_on_c, 0, 69, 60
2, 7680, Note_on_c, 0, 69, 0
2, 7680, Note_on_c, 0, 71, 60
2, 8208, Note_on_c, 0, 71, 0
2, 8256, Note_on_c, 0, 61, 60
2, 8448, Note_on_c, 0, 61, 0
2, 8448, Note_on_c, 0, 63, 60
2, 8544, Note_on_c, 0, 63, 0
2, 8544, Note_on_c, 0, 61, 60
2, 8640, Note_on_c, 0, 61, 0
2, 8640, Note_on_c, 0, 60, 60
2, 8784, Note_on_c, 0, 60, 0
2, 8832, Note_on_c, 0, 59, 60
2, 8928, Note_on_c, 0, 59, 0
2, 8928, Note_on_c, 0, 61, 60
2, 9024, Note_on_c, 0, 61, 0
2, 9024, Note_on_c, 0, 58, 60
2, 9120, Note_on_c, 0, 58, 0
2, 9120, Note_on_c, 0, 57, 60
2, 9216, Note_on_c, 0, 57, 0
2, 9216, Note_on_c, 0, 56, 60
2, 9360, Note_on_c, 0, 56, 0
2, 9408, Note_on_c, 0, 59, 60
2, 9600, Note_on_c, 0, 59, 0
2, 9600, Note_on_c, 0, 55, 60
2, 9696, Note_on_c, 0, 55, 0
2, 9696, Note_on_c, 0, 54, 60
2, 9792, Note_on_c, 0, 54, 0
2, 9792, Note_on_c, 0, 53, 60
2, 9936, Note_on_c, 0, 53, 0
2, 9984, Note_on_c, 0, 51, 60
2, 10176, Note_on_c, 0, 51, 0
2, 10176, Note_on_c, 0, 56, 60
2, 10368, Note_on_c, 0, 56, 0
2, 10368, Note_on_c, 0, 56, 60
2, 10560, Note_on_c, 0, 56, 0
2, 10560, Note_on_c, 0, 56, 60
2, 10752, Note_on_c, 0, 56, 0
2, 10752, Note_on_c, 0, 55, 60
2, 10848, Note_on_c, 0, 55, 0
2, 10848, Note_on_c, 0, 53, 60
2, 10944, Note_on_c, 0, 53, 0
2, 10944, Note_on_c, 0, 55, 60
2, 11088, Note_on_c, 0, 55, 0
2, 11136, Note_on_c, 0, 52, 60
2, 11232, Note_on_c, 0, 52, 0
2, 11232, Note_on_c, 0, 54, 64
2, 11328, Note_on_c, 0, 54, 0
2, 11328, Note_on_c, 0, 56, 68
2, 11424, Note_on_c, 0, 56, 0
2, 11424, Note_on_c, 0, 58, 72
2, 11520, Note_on_c, 0, 58, 0
2, 11520, Note_on_c, 0, 59, 77
2, 11712, Note_on_c, 0, 59, 0
2, 11712, Note_on_c, 0, 59, 77
2, 11904, Note_on_c, 0, 59, 0
2, 11904, Note_on_c, 0, 58, 77
2, 12000, Note_on_c, 0, 58, 0
2, 12000, Note_on_c, 0, 56, 77
2, 12096, Note_on_c, 0, 56, 0
2, 12096, Note_on_c, 0, 58, 77
2, 12240, Note_on_c, 0, 58, 0
2, 12288, Note_on_c, 0, 55, 60
2, 12480, Note_on_c, 0, 55, 0
2, 12480, Note_on_c, 0, 61, 50
2, 12672, Note_on_c, 0, 61, 0
2, 12672, Note_on_c, 0, 54, 40
2, 12672, Note_on_c, 0, 60, 40
2, 12816, Note_on_c, 0, 60, 0
2, 12816, Note_on_c, 0, 54, 0
2, 12864, Note_on_c, 0, 53, 60
2, 13056, Note_on_c, 0, 53, 0
2, 13056, Note_on_c, 0, 59, 50
2, 13248, Note_on_c, 0, 59, 0
2, 13248, Note_on_c, 0, 52, 40
2, 13248, Note_on_c, 0, 58, 40
2, 13392, Note_on_c, 0, 58, 0
2, 13392, Note_on_c, 0, 52, 0
2, 13440, Note_on_c, 0, 55, 60
2, 13536, Note_on_c, 0, 55, 0
2, 13536, Note_on_c, 0, 54, 60
2, 13632, Note_on_c, 0, 54, 0
2, 13632, Note_on_c, 0, 55, 60
2, 13824, Note_on_c, 0, 55, 0
2, 13824, Note_on_c, 0, 53, 60
2, 14016, Note_on_c, 0, 53, 0
2, 14016, Note_on_c, 0, 52, 60
2, 14208, Note_on_c, 0, 52, 0
2, 14208, Note_on_c, 0, 55, 60
2, 14400, Note_on_c, 0, 55, 0
2, 14400, Note_on_c, 0, 51, 60
2, 14544, Note_on_c, 0, 51, 0
2, 14592, Note_on_c, 0, 50, 60
2, 14784, Note_on_c, 0, 50, 0
2, 14784, Note_on_c, 0, 57, 60
2, 14976, Note_on_c, 0, 57, 0
2, 14976, Note_on_c, 0, 49, 60
2, 14976, Note_on_c, 0, 56, 60
2, 15120, Note_on_c, 0, 56, 0
2, 15120, Note_on_c, 0, 49, 0
2, 15168, Note_on_c, 0, 48, 60
2, 15360, Note_on_c, 0, 48, 0
2, 15360, Note_on_c, 0, 55, 30
2, 15552, Note_on_c, 0, 55, 0
2, 15552, Note_on_c, 0, 47, 30
2, 15552, Note_on_c, 0, 54, 30
2, 15696, Note_on_c, 0, 54, 0
2, 15696, Note_on_c, 0, 47, 0
2, 15744, Note_on_c, 0, 44, 30
2, 15840, Note_on_c, 0, 44, 0
2, 15840, Note_on_c, 0, 43, 30
2, 15936, Note_on_c, 0, 43, 0
2, 15936, Note_on_c, 0, 44, 30
2, 16128, Note_on_c, 0, 44, 0
2, 16128, Note_on_c, 0, 43, 30
2, 16272, Note_on_c, 0, 43, 0
2, 16320, Note_on_c, 0, 42, 30
2, 16416, Note_on_c, 0, 42, 0
2, 16416, Note_on_c, 0, 41, 30
2, 16512, Note_on_c, 0, 41, 0
2, 16512, Note_on_c, 0, 42, 30
2, 16704, Note_on_c, 0, 42, 0
2, 16704, Note_on_c, 0, 43, 30
2, 16848, Note_on_c, 0, 43, 0
2, 16896, Note_on_c, 0, 44, 15
2, 17088, Note_on_c, 0, 44, 0
2, 17088, Note_on_c, 0, 43, 15
2, 17280, Note_on_c, 0, 43, 0
2, 17280, Note_on_c, 0, 45, 15
2, 17472, Note_on_c, 0, 45, 0
2, 17472, Note_on_c, 0, 46, 15
2, 17664, Note_on_c, 0, 46, 0
2, 17664, Note_on_c, 0, 47, 15
2, 17808, Note_on_c, 0, 47, 0
2, 17856, Note_on_c, 0, 44, 15
2, 18048, Note_on_c, 0, 44, 0
2, 18048, Note_on_c, 0, 43, 15
2, 18240, Note_on_c, 0, 43, 0
2, 18240, Note_on_c, 0, 42, 15
2, 18432, Note_on_c, 0, 42, 0
2, 18432, Note_on_c, 0, 45, 15
2, 18624, Note_on_c, 0, 45, 0
2, 18624, Note_on_c, 0, 41, 15
2, 18768, Note_on_c, 0, 41, 0
2, 18816, Note_on_c, 0, 40, 15
2, 19008, Note_on_c, 0, 40, 0
2, 19008, Note_on_c, 0, 44, 15
2, 19200, Note_on_c, 0, 44, 0
2, 19200, Note_on_c, 0, 39, 15
2, 19392, Note_on_c, 0, 39, 0
2, 19392, Note_on_c, 0, 38, 15
2, 19584, Note_on_c, 0, 38, 0
2, 19584, Note_on_c, 0, 41, 15
2, 19728, Note_on_c, 0, 41, 0
2, 20352, Note_on_c, 0, 72, 112
2, 20352, Note_on_c, 0, 76, 112
2, 20352, Note_on_c, 0, 79, 112
2, 20352, Note_on_c, 0, 84, 112
2, 20544, Note_on_c, 0, 74, 112
2, 20544, Note_on_c, 0, 78, 112
2, 20544, Note_on_c, 0, 81, 112
2, 20544, Note_on_c, 0, 86, 112
2, 20736, Note_on_c, 0, 79, 0
2, 20736, Note_on_c, 0, 76, 0
2, 20736, Note_on_c, 0, 76, 112
2, 20736, Note_on_c, 0, 79, 112
2, 20736, Note_on_c, 0, 83, 112
2, 20736, Note_on_c, 0, 88, 112
2, 20928, Note_on_c, 0, 79, 0
2, 20928, Note_on_c, 0, 84, 0
2, 20928, Note_on_c, 0, 72, 0
2, 20928, Note_on_c, 0, 72, 112
2, 20928, Note_on_c, 0, 79, 112
2, 20928, Note_on_c, 0, 84, 112
2, 21024, Note_on_c, 0, 79, 0
2, 21024, Note_on_c, 0, 76, 0
2, 21024, Note_on_c, 0, 76, 112
2, 21024, Note_on_c, 0, 79, 112
2, 21120, Note_on_c, 0, 74, 0
2, 21120, Note_on_c, 0, 86, 0
2, 21120, Note_on_c, 0, 74, 112
2, 21120, Note_on_c, 0, 86, 112
2, 21216, Note_on_c, 0, 81, 0
2, 21216, Note_on_c, 0, 78, 0
2, 21216, Note_on_c, 0, 78, 112
2, 21216, Note_on_c, 0, 81, 112
2, 21312, Note_on_c, 0, 76, 0
2, 21312, Note_on_c, 0, 79, 0
2, 21312, Note_on_c, 0, 83, 0
2, 21312, Note_on_c, 0, 88, 0
2, 21312, Note_on_c, 0, 76, 112
2, 21312, Note_on_c, 0, 79, 112
2, 21312, Note_on_c, 0, 83, 112
2, 21312, Note_on_c, 0, 88, 112
2, 21504, Note_on_c, 0, 88, 0
2, 21504, Note_on_c, 0, 81, 0
2, 21504, Note_on_c, 0, 84, 0
2, 21504, Note_on_c, 0, 78, 0
2, 21504, Note_on_c, 0, 72, 0
2, 21504, Note_on_c, 0, 86, 0
2, 21504, Note_on_c, 0, 79, 0
2, 21504, Note_on_c, 0, 76, 0
2, 21504, Note_on_c, 0, 74, 0
2, 21504, Note_on_c, 0, 83, 0
2, 21504, Note_on_c, 0, 74, 77
2, 21696, Note_on_c, 0, 74, 0
2, 21696, Note_on_c, 0, 79, 77
2, 21792, Note_on_c, 0, 79, 0
2, 21792, Note_on_c, 0, 74, 77
2, 21888, Note_on_c, 0, 74, 0
2, 21888, Note_on_c, 0, 72, 77
2, 22032, Note_on_c, 0, 72, 0
2, 22080, Note_on_c, 0, 75, 77
2, 22272, Note_on_c, 0, 75, 0
2, 22272, Note_on_c, 0, 73, 77
2, 22368, Note_on_c, 0, 73, 0
2, 22368, Note_on_c, 0, 75, 77
2, 22464, Note_on_c, 0, 75, 0
2, 22464, Note_on_c, 0, 71, 77
2, 22656, Note_on_c, 0, 71, 0
2, 22656, Note_on_c, 0, 70, 77
2, 22752, Note_on_c, 0, 70, 0
2, 22752, Note_on_c, 0, 71, 77
2, 22848, Note_on_c, 0, 71, 0
2, 22848, Note_on_c, 0, 68, 77
2, 22944, Note_on_c, 0, 68, 0
2, 22944, Note_on_c, 0, 66, 77
2, 23040, Note_on_c, 0, 66, 0
2, 23040, Note_on_c, 0, 68, 77
2, 23184, Note_on_c, 0, 68, 0
2, 23232, Note_on_c, 0, 64, 77
2, 23232, Note_on_c, 0, 68, 77
2, 23232, Note_on_c, 0, 75, 77
2, 23616, Note_on_c, 0, 75, 0
2, 23616, Note_on_c, 0, 68, 0
2, 23616, Note_on_c, 0, 64, 0
2, 23616, Note_on_c, 0, 66, 72
2, 23616, Note_on_c, 0, 73, 72
2, 23808, Note_on_c, 0, 73, 0
2, 23808, Note_on_c, 0, 66, 0
2, 23808, Note_on_c, 0, 62, 69
2, 23808, Note_on_c, 0, 65, 69
2, 24000, Note_on_c, 0, 65, 0
2, 24000, Note_on_c, 0, 62, 0
2, 24000, Note_on_c, 0, 63, 66
2, 24000, Note_on_c, 0, 66, 66
2, 24192, Note_on_c, 0, 66, 0
2, 24192, Note_on_c, 0, 63, 0
2, 24192, Note_on_c, 0, 64, 63
2, 24192, Note_on_c, 0, 69, 63
2, 24336, Note_on_c, 0, 69, 0
2, 24336, Note_on_c, 0, 64, 0
2, 24384, Note_on_c, 0, 72, 60
2, 24576, Note_on_c, 0, 72, 0
2, 24576, Note_on_c, 0, 74, 68
2, 24672, Note_on_c, 0, 74, 0
2, 24672, Note_on_c, 0, 76, 72
2, 24768, Note_on_c, 0, 76, 0
2, 24768, Note_on_c, 0, 78, 77
2, 24912, Note_on_c, 0, 78, 0
2, 24960, Note_on_c, 0, 63, 60
2, 25056, Note_on_c, 0, 63, 0
2, 25056, Note_on_c, 0, 61, 60
2, 25152, Note_on_c, 0, 61, 0
2, 25152, Note_on_c, 0, 63, 60
2, 25248, Note_on_c, 0, 63, 0
2, 25248, Note_on_c, 0, 59, 60
2, 25344, Note_on_c, 0, 59, 0
2, 25344, Note_on_c, 0, 58, 60
2, 25488, Note_on_c, 0, 58, 0
2, 25536, Note_on_c, 0, 62, 77
2, 25536, Note_on_c, 0, 66, 77
2, 25536, Note_on_c, 0, 73, 77
2, 25920, Note_on_c, 0, 73, 0
2, 25920, Note_on_c, 0, 66, 0
2, 25920, Note_on_c, 0, 62, 0
2, 25920, Note_on_c, 0, 64, 77
2, 25920, Note_on_c, 0, 71, 77
2, 26112, Note_on_c, 0, 71, 0
2, 26112, Note_on_c, 0, 64, 0
2, 26112, Note_on_c, 0, 60, 77
2, 26112, Note_on_c, 0, 63, 77
2, 26304, Note_on_c, 0, 63, 0
2, 26304, Note_on_c, 0, 60, 0
2, 26304, Note_on_c, 0, 61, 77
2, 26304, Note_on_c, 0, 64, 77
2, 26496, Note_on_c, 0, 64, 0
2, 26496, Note_on_c, 0, 61, 0
2, 26496, Note_on_c, 0, 62, 77
2, 26496, Note_on_c, 0, 66, 77
2, 26640, Note_on_c, 0, 66, 0
2, 26640, Note_on_c, 0, 62, 0
2, 26688, Note_on_c, 0, 55, 93
2, 26688, Note_on_c, 0, 58, 93
2, 26688, Note_on_c, 0, 61, 93
2, 26688, Note_on_c, 0, 67, 93
2, 27072, Note_on_c, 0, 67, 0
2, 27072, Note_on_c, 0, 55, 0
2, 27072, Note_on_c, 0, 58, 0
2, 27072, Note_on_c, 0, 61, 0
2, 27072, Note_on_c, 0, 57, 93
2, 27072, Note_on_c, 0, 61, 93
2, 27072, Note_on_c, 0, 64, 93
2, 27072, Note_on_c, 0, 69, 93
2, 27264, Note_on_c, 0, 69, 0
2, 27264, Note_on_c, 0, 57, 0
2, 27264, Note_on_c, 0, 61, 0
2, 27264, Note_on_c, 0, 64, 0
2, 27264, Note_on_c, 0, 63, 93
2, 27264, Note_on_c, 0, 66, 93
2, 27264, Note_on_c, 0, 71, 93
2, 27456, Note_on_c, 0, 71, 0
2, 27456, Note_on_c, 0, 66, 0
2, 27456, Note_on_c, 0, 63, 0
2, 27456, Note_on_c, 0, 64, 93
2, 27456, Note_on_c, 0, 67, 93
2, 27456, Note_on_c, 0, 72, 93
2, 27648, Note_on_c, 0, 72, 0
2, 27648, Note_on_c, 0, 67, 0
2, 27648, Note_on_c, 0, 64, 0
2, 27648, Note_on_c, 0, 66, 93
2, 27648, Note_on_c, 0, 70, 93
2, 27648, Note_on_c, 0, 73, 93
2, 27840, Note_on_c, 0, 73, 0
2, 27840, Note_on_c, 0, 70, 0
2, 27840, Note_on_c, 0, 66, 0
2, 27840, Note_on_c, 0, 67, 93
2, 27840, Note_on_c, 0, 72, 93
2, 27840, Note_on_c, 0, 75, 93
2, 28032, Note_on_c, 0, 75, 0
2, 28032, Note_on_c, 0, 72, 0
2, 28032, Note_on_c, 0, 67, 0
2, 28032, Note_on_c, 0, 73, 93
2, 28032, Note_on_c, 0, 76, 93
2, 28224, Note_on_c, 0, 76, 0
2, 28224, Note_on_c, 0, 73, 0
2, 28224, Note_on_c, 0, 75, 93
2, 28224, Note_on_c, 0, 78, 93
2, 28416, Note_on_c, 0, 78, 0
2, 28416, Note_on_c, 0, 75, 0
2, 28416, Note_on_c, 0, 76, 93
2, 28416, Note_on_c, 0, 79, 93
2, 28608, Note_on_c, 0, 79, 0
2, 28608, Note_on_c, 0, 76, 0
2, 28608, Note_on_c, 0, 78, 93
2, 28608, Note_on_c, 0, 81, 93
2, 28800, Note_on_c, 0, 81, 0
2, 28800, Note_on_c, 0, 78, 0
2, 28800, Note_on_c, 0, 79, 93
2, 28800, Note_on_c, 0, 82, 93
2, 28944, Note_on_c, 0, 82, 0
2, 28944, Note_on_c, 0, 79, 0
2, 28992, Note_on_c, 0, 76, 93
2, 28992, Note_on_c, 0, 81, 93
2, 28992, Note_on_c, 0, 88, 93
2, 29376, Note_on_c, 0, 88, 0
2, 29376, Note_on_c, 0, 81, 0
2, 29376, Note_on_c, 0, 76, 0
2, 29376, Note_on_c, 0, 73, 93
2, 29376, Note_on_c, 0, 85, 93
2, 29568, Note_on_c, 0, 85, 0
2, 29568, Note_on_c, 0, 73, 0
2, 29568, Note_on_c, 0, 70, 93
2, 29568, Note_on_c, 0, 82, 93
2, 29760, Note_on_c, 0, 82, 0
2, 29760, Note_on_c, 0, 70, 0
2, 29760, Note_on_c, 0, 67, 93
2, 29760, Note_on_c, 0, 79, 93
2, 30144, Note_on_c, 0, 79, 0
2, 30144, Note_on_c, 0, 67, 0
2, 30144, Note_on_c, 0, 76, 60
2, 30432, Note_on_c, 0, 76, 0
2, 30432, Note_on_c, 0, 69, 60
2, 30480, Note_on_c, 0, 69, 0
2, 30480, Note_on_c, 0, 76, 60
2, 30528, Note_on_c, 0, 76, 0
2, 30528, Note_on_c, 0, 69, 60
2, 30720, Note_on_c, 0, 69, 0
2, 30720, Note_on_c, 0, 64, 60
2, 30912, Note_on_c, 0, 64, 0
2, 30912, Note_on_c, 0, 67, 60
2, 31104, Note_on_c, 0, 67, 0
2, 31104, Note_on_c, 0, 63, 60
2, 31248, Note_on_c, 0, 63, 0
2, 31296, Note_on_c, 0, 57, 60
2, 31296, Note_on_c, 0, 61, 60
2, 31296, Note_on_c, 0, 71, 60
2, 33600, Note_on_c, 0, 71, 0
2, 33600, Note_on_c, 0, 61, 0
2, 33600, Note_on_c, 0, 57, 0
2, 33600, Note_on_c, 0, 56, 60
2, 33792, Note_on_c, 0, 56, 0
2, 33792, Note_on_c, 0, 59, 60
2, 33984, Note_on_c, 0, 59, 0
2, 33984, Note_on_c, 0, 55, 60
2, 34176, Note_on_c, 0, 55, 0
2, 34176, Note_on_c, 0, 54, 60
2, 34272, Note_on_c, 0, 54, 0
2, 34272, Note_on_c, 0, 57, 60
2, 34368, Note_on_c, 0, 57, 0
2, 34368, Note_on_c, 0, 53, 60
2, 34464, Note_on_c, 0, 53, 0
2, 34464, Note_on_c, 0, 52, 60
2, 34560, Note_on_c, 0, 52, 0
2, 34560, Note_on_c, 0, 51, 60
2, 34704, Note_on_c, 0, 51, 0
2, 34752, Note_on_c, 0, 50, 60
2, 34944, Note_on_c, 0, 50, 0
2, 34944, Note_on_c, 0, 49, 58
2, 35136, Note_on_c, 0, 49, 0
2, 35136, Note_on_c, 0, 48, 56
2, 35328, Note_on_c, 0, 48, 0
2, 35328, Note_on_c, 0, 47, 54
2, 35520, Note_on_c, 0, 47, 0
2, 35520, Note_on_c, 0, 46, 51
2, 35712, Note_on_c, 0, 46, 0
2, 35712, Note_on_c, 0, 45, 48
2, 35904, Note_on_c, 0, 45, 0
2, 35904, Note_on_c, 0, 44, 45
2, 36096, Note_on_c, 0, 44, 0
2, 36096, Note_on_c, 0, 43, 42
2, 36288, Note_on_c, 0, 43, 0
2, 36288, Note_on_c, 0, 42, 39
2, 36480, Note_on_c, 0, 42, 0
2, 36480, Note_on_c, 0, 41, 36
2, 36672, Note_on_c, 0, 41, 0
2, 36672, Note_on_c, 0, 40, 33
2, 36864, Note_on_c, 0, 40, 0
2, 36864, Note_on_c, 0, 39, 30
2, 37056, Note_on_c, 0, 39, 0
2, 37056, Note_on_c, 0, 48, 77
2, 37440, Note_on_c, 0, 48, 0
2, 37440, Note_on_c, 0, 36, 77
2, 37632, Note_on_c, 0, 36, 0
2, 37632, Note_on_c, 0, 42, 77
2, 37728, Note_on_c, 0, 42, 0
2, 37728, Note_on_c, 0, 43, 77
2, 37824, Note_on_c, 0, 43, 0
2, 37824, Note_on_c, 0, 41, 77
2, 38016, Note_on_c, 0, 41, 0
2, 38016, Note_on_c, 0, 40, 77
2, 38112, Note_on_c, 0, 40, 0
2, 38112, Note_on_c, 0, 38, 77
2, 38208, Note_on_c, 0, 38, 0
2, 38208, Note_on_c, 0, 39, 77
2, 38400, Note_on_c, 0, 39, 0
2, 38400, Note_on_c, 0, 36, 77
2, 38544, Note_on_c, 0, 36, 0
2, 38592, Note_on_c, 0, 42, 77
2, 38784, Note_on_c, 0, 42, 0
2, 38784, Note_on_c, 0, 43, 77
2, 38880, Note_on_c, 0, 43, 0
2, 38880, Note_on_c, 0, 41, 77
2, 38976, Note_on_c, 0, 41, 0
2, 38976, Note_on_c, 0, 40, 77
2, 39168, Note_on_c, 0, 40, 0
2, 39168, Note_on_c, 0, 39, 77
2, 39360, Note_on_c, 0, 39, 0
2, 39360, Note_on_c, 0, 42, 77
2, 39552, Note_on_c, 0, 42, 0
2, 39552, Note_on_c, 0, 37, 77
2, 39744, Note_on_c, 0, 37, 0
2, 39744, Note_on_c, 0, 41, 77
2, 39936, Note_on_c, 0, 41, 0
2, 39936, Note_on_c, 0, 36, 77
2, 40128, Note_on_c, 0, 36, 0
2, 40128, Note_on_c, 0, 42, 77
2, 40320, Note_on_c, 0, 42, 0
2, 40320, Note_on_c, 0, 43, 77
2, 40512, Note_on_c, 0, 43, 0
2, 40512, Note_on_c, 0, 42, 77
2, 40608, Note_on_c, 0, 42, 0
2, 40608, Note_on_c, 0, 40, 77
2, 40704, Note_on_c, 0, 40, 0
2, 40704, Note_on_c, 0, 39, 77
2, 41088, Note_on_c, 0, 39, 0
2, 41088, Note_on_c, 0, 38, 77
2, 41280, Note_on_c, 0, 38, 0
2, 41280, Note_on_c, 0, 37, 77
2, 41472, Note_on_c, 0, 37, 0
2, 41472, Note_on_c, 0, 41, 77
2, 41664, Note_on_c, 0, 41, 0
2, 41664, Note_on_c, 0, 40, 77
2, 41760, Note_on_c, 0, 40, 0
2, 41760, Note_on_c, 0, 37, 77
2, 41856, Note_on_c, 0, 37, 0
2, 41856, Note_on_c, 0, 36, 77
2, 42144, Note_on_c, 0, 36, 0
2, 42816, Note_on_c, 0, 71, 77
2, 42816, Note_on_c, 0, 72, 77
2, 42816, Note_on_c, 0, 84, 77
2, 42912, Note_on_c, 0, 84, 0
2, 42912, Note_on_c, 0, 72, 0
2, 42912, Note_on_c, 0, 71, 0
2, 42912, End_track
3, 0, Start_track
3, 0, Title_t, "Grand Piano"
3, 0, Program_c, 0, 0
3, 0, Control_c, 0, 7, 115
3, 0, Control_c, 0, 10, 79
3, 192, Note_on_c, 0, 62, 111
3, 192, Note_on_c, 0, 66, 111
3, 192, Note_on_c, 0, 69, 111
3, 384, Note_on_c, 0, 60, 111
3, 384, Note_on_c, 0, 64, 111
3, 384, Note_on_c, 0, 68, 111
3, 576, Note_on_c, 0, 64, 0
3, 576, Note_on_c, 0, 64, 111
3, 576, Note_on_c, 0, 71, 111
3, 576, Note_on_c, 0, 80, 111
3, 768, Note_on_c, 0, 69, 0
3, 768, Note_on_c, 0, 62, 0
3, 768, Note_on_c, 0, 66, 0
3, 768, Note_on_c, 0, 62, 111
3, 768, Note_on_c, 0, 66, 111
3, 768, Note_on_c, 0, 69, 111
3, 960, Note_on_c, 0, 60, 0
3, 960, Note_on_c, 0, 68, 0
3, 960, Note_on_c, 0, 64, 0
3, 960, Note_on_c, 0, 60, 111
3, 960, Note_on_c, 0, 64, 111
3, 960, Note_on_c, 0, 68, 111
3, 1152, Note_on_c, 0, 64, 0
3, 1152, Note_on_c, 0, 71, 0
3, 1152, Note_on_c, 0, 80, 0
3, 1152, Note_on_c, 0, 64, 111
3, 1152, Note_on_c, 0, 71, 111
3, 1152, Note_on_c, 0, 80, 111
3, 1344, Note_on_c, 0, 80, 0
3, 1344, Note_on_c, 0, 68, 0
3, 1344, Note_on_c, 0, 66, 0
3, 1344, Note_on_c, 0, 60, 0
3, 1344, Note_on_c, 0, 62, 0
3, 1344, Note_on_c, 0, 69, 0
3, 1344, Note_on_c, 0, 64, 0
3, 1344, Note_on_c, 0, 71, 0
3, 5952, Note_on_c, 0, 63, 29
3, 5952, Note_on_c, 0, 68, 29
3, 6144, Note_on_c, 0, 68, 0
3, 6144, Note_on_c, 0, 63, 0
3, 6336, Note_on_c, 0, 63, 29
3, 6336, Note_on_c, 0, 68, 29
3, 6480, Note_on_c, 0, 68, 0
3, 6480, Note_on_c, 0, 63, 0
3, 6528, Note_on_c, 0, 61, 29
3, 6528, Note_on_c, 0, 66, 29
3, 6720, Note_on_c, 0, 66, 0
3, 6720, Note_on_c, 0, 61, 0
3, 6912, Note_on_c, 0, 61, 29
3, 6912, Note_on_c, 0, 66, 29
3, 7056, Note_on_c, 0, 66, 0
3, 7056, Note_on_c, 0, 61, 0
3, 7104, Note_on_c, 0, 63, 29
3, 7104, Note_on_c, 0, 68, 29
3, 7296, Note_on_c, 0, 68, 0
3, 7296, Note_on_c, 0, 63, 0
3, 7488, Note_on_c, 0, 63, 29
3, 7488, Note_on_c, 0, 68, 29
3, 7632, Note_on_c, 0, 68, 0
3, 7632, Note_on_c, 0, 63, 0
3, 7680, Note_on_c, 0, 61, 29
3, 7680, Note_on_c, 0, 66, 29
3, 7872, Note_on_c, 0, 66, 0
3, 7872, Note_on_c, 0, 61, 0
3, 8064, Note_on_c, 0, 61, 29
3, 8064, Note_on_c, 0, 66, 29
3, 8208, Note_on_c, 0, 66, 0
3, 8208, Note_on_c, 0, 61, 0
3, 20352, Note_on_c, 0, 62, 111
3, 20352, Note_on_c, 0, 66, 111
3, 20352, Note_on_c, 0, 69, 111
3, 20544, Note_on_c, 0, 60, 111
3, 20544, Note_on_c, 0, 64, 111
3, 20544, Note_on_c, 0, 68, 111
3, 20736, Note_on_c, 0, 64, 0
3, 20736, Note_on_c, 0, 64, 111
3, 20736, Note_on_c, 0, 71, 111
3, 20736, Note_on_c, 0, 80, 111
3, 20928, Note_on_c, 0, 69, 0
3, 20928, Note_on_c, 0, 62, 0
3, 20928, Note_on_c, 0, 66, 0
3, 20928, Note_on_c, 0, 62, 111
3, 20928, Note_on_c, 0, 66, 111
3, 20928, Note_on_c, 0, 69, 111
3, 21120, Note_on_c, 0, 60, 0
3, 21120, Note_on_c, 0, 68, 0
3, 21120, Note_on_c, 0, 64, 0
3, 21120, Note_on_c, 0, 60, 111
3, 21120, Note_on_c, 0, 64, 111
3, 21120, Note_on_c, 0, 68, 111
3, 21312, Note_on_c, 0, 64, 0
3, 21312, Note_on_c, 0, 71, 0
3, 21312, Note_on_c, 0, 80, 0
3, 21312, Note_on_c, 0, 64, 111
3, 21312, Note_on_c, 0, 71, 111
3, 21312, Note_on_c, 0, 80, 111
3, 21504, Note_on_c, 0, 80, 0
3, 21504, Note_on_c, 0, 68, 0
3, 21504, Note_on_c, 0, 66, 0
3, 21504, Note_on_c, 0, 60, 0
3, 21504, Note_on_c, 0, 62, 0
3, 21504, Note_on_c, 0, 69, 0
3, 21504, Note_on_c, 0, 64, 0
3, 21504, Note_on_c, 0, 71, 0
3, 28224, Note_on_c, 0, 67, 92
3, 28320, Note_on_c, 0, 67, 0
3, 28320, Note_on_c, 0, 70, 92
3, 28416, Note_on_c, 0, 70, 0
3, 28416, Note_on_c, 0, 72, 92
3, 28512, Note_on_c, 0, 72, 0
3, 28512, Note_on_c, 0, 73, 92
3, 28608, Note_on_c, 0, 73, 0
3, 28608, Note_on_c, 0, 75, 92
3, 28704, Note_on_c, 0, 75, 0
3, 28704, Note_on_c, 0, 76, 92
3, 28800, Note_on_c, 0, 76, 0
3, 28800, Note_on_c, 0, 78, 92
3, 28896, Note_on_c, 0, 78, 0
3, 29184, Note_on_c, 0, 66, 92
3, 29376, Note_on_c, 0, 66, 0
3, 29376, Note_on_c, 0, 65, 92
3, 29568, Note_on_c, 0, 65, 0
3, 29568, Note_on_c, 0, 64, 92
3, 29760, Note_on_c, 0, 64, 0
3, 29760, Note_on_c, 0, 63, 92
3, 29952, Note_on_c, 0, 73, 92
3, 30144, Note_on_c, 0, 73, 0
3, 30144, Note_on_c, 0, 63, 0
3, 31296, Note_on_c, 0, 68, 29
3, 31680, Note_on_c, 0, 68, 0
3, 31680, Note_on_c, 0, 67, 29
3, 31872, Note_on_c, 0, 67, 0
3, 31872, Note_on_c, 0, 66, 29
3, 32064, Note_on_c, 0, 66, 0
3, 32064, Note_on_c, 0, 65, 29
3, 32256, Note_on_c, 0, 65, 0
3, 32256, Note_on_c, 0, 64, 29
3, 32448, Note_on_c, 0, 64, 0
3, 32448, Note_on_c, 0, 63, 29
3, 32640, Note_on_c, 0, 63, 0
3, 32640, Note_on_c, 0, 66, 29
3, 32832, Note_on_c, 0, 66, 0
3, 32832, Note_on_c, 0, 62, 29
3, 33024, Note_on_c, 0, 62, 0
3, 33024, Note_on_c, 0, 61, 29
3, 33216, Note_on_c, 0, 61, 0
3, 33216, Note_on_c, 0, 60, 29
3, 33408, Note_on_c, 0, 60, 0
3, 33408, Note_on_c, 0, 57, 29
3, 33600, Note_on_c, 0, 57, 0
3, 33600, End_track
4, 0, Start_track
4, 0, Title_t, "Grand Piano"
4, 0, Program_c, 0, 0
4, 0, Control_c, 0, 7, 115
4, 0, Control_c, 0, 10, 41
4, 1344, Note_on_c, 0, 63, 82
4, 1440, Note_on_c, 0, 63, 0
4, 1440, Note_on_c, 0, 65, 83
4, 1536, Note_on_c, 0, 65, 0
4, 1536, Note_on_c, 0, 67, 84
4, 1632, Note_on_c, 0, 67, 0
4, 1632, Note_on_c, 0, 69, 85
4, 1728, Note_on_c, 0, 69, 0
4, 1728, Note_on_c, 0, 71, 86
4, 1824, Note_on_c, 0, 71, 0
4, 1824, Note_on_c, 0, 72, 88
4, 1920, Note_on_c, 0, 72, 0
4, 1920, Note_on_c, 0, 74, 90
4, 2112, Note_on_c, 0, 74, 0
4, 2112, Note_on_c, 0, 72, 94
4, 2208, Note_on_c, 0, 72, 0
4, 2208, Note_on_c, 0, 74, 96
4, 2304, Note_on_c, 0, 74, 0
4, 2304, Note_on_c, 0, 71, 98
4, 2448, Note_on_c, 0, 71, 0
4, 2496, Note_on_c, 0, 71, 98
4, 2688, Note_on_c, 0, 71, 0
4, 2688, Note_on_c, 0, 67, 98
4, 2880, Note_on_c, 0, 67, 0
4, 2880, Note_on_c, 0, 71, 98
4, 3024, Note_on_c, 0, 71, 0
4, 3072, Note_on_c, 0, 65, 98
4, 3264, Note_on_c, 0, 65, 0
4, 3264, Note_on_c, 0, 69, 98
4, 3456, Note_on_c, 0, 69, 0
4, 3456, Note_on_c, 0, 64, 98
4, 3600, Note_on_c, 0, 64, 0
4, 3648, Note_on_c, 0, 58, 98
4, 3648, Note_on_c, 0, 69, 98
4, 3840, Note_on_c, 0, 69, 0
4, 3840, Note_on_c, 0, 58, 0
4, 3840, Note_on_c, 0, 60, 98
4, 3840, Note_on_c, 0, 71, 98
4, 4032, Note_on_c, 0, 71, 0
4, 4032, Note_on_c, 0, 60, 0
4, 4032, Note_on_c, 0, 62, 98
4, 4032, Note_on_c, 0, 72, 98
4, 4224, Note_on_c, 0, 72, 0
4, 4224, Note_on_c, 0, 62, 0
4, 4224, Note_on_c, 0, 64, 98
4, 4224, Note_on_c, 0, 74, 98
4, 4416, Note_on_c, 0, 74, 0
4, 4416, Note_on_c, 0, 64, 0
4, 4416, Note_on_c, 0, 62, 98
4, 4416, Note_on_c, 0, 72, 98
4, 4608, Note_on_c, 0, 72, 0
4, 4608, Note_on_c, 0, 62, 0
4, 4608, Note_on_c, 0, 60, 98
4, 4608, Note_on_c, 0, 71, 98
4, 4752, Note_on_c, 0, 71, 0
4, 4752, Note_on_c, 0, 60, 0
4, 4800, Note_on_c, 0, 58, 98
4, 4800, Note_on_c, 0, 69, 98
4, 4992, Note_on_c, 0, 69, 0
4, 4992, Note_on_c, 0, 58, 0
4, 4992, Note_on_c, 0, 60, 98
4, 4992, Note_on_c, 0, 71, 98
4, 5184, Note_on_c, 0, 71, 0
4, 5184, Note_on_c, 0, 60, 0
4, 5184, Note_on_c, 0, 62, 98
4, 5184, Note_on_c, 0, 72, 98
4, 5376, Note_on_c, 0, 72, 0
4, 5376, Note_on_c, 0, 62, 0
4, 5376, Note_on_c, 0, 64, 98
4, 5376, Note_on_c, 0, 74, 98
4, 5568, Note_on_c, 0, 74, 0
4, 5568, Note_on_c, 0, 64, 0
4, 5568, Note_on_c, 0, 62, 98
4, 5568, Note_on_c, 0, 72, 98
4, 5760, Note_on_c, 0, 72, 0
4, 5760, Note_on_c, 0, 62, 0
4, 5760, Note_on_c, 0, 60, 98
4, 5760, Note_on_c, 0, 71, 98
4, 5904, Note_on_c, 0, 71, 0
4, 5904, Note_on_c, 0, 60, 0
4, 6144, Note_on_c, 0, 55, 35
4, 6336, Note_on_c, 0, 55, 0
4, 6720, Note_on_c, 0, 51, 35
4, 6912, Note_on_c, 0, 51, 0
4, 7296, Note_on_c, 0, 55, 35
4, 7488, Note_on_c, 0, 55, 0
4, 7872, Note_on_c, 0, 51, 35
4, 8064, Note_on_c, 0, 51, 0
4, 8256, Note_on_c, 0, 70, 82
4, 8640, Note_on_c, 0, 70, 0
4, 8640, Note_on_c, 0, 65, 82
4, 8784, Note_on_c, 0, 65, 0
4, 8832, Note_on_c, 0, 64, 82
4, 9024, Note_on_c, 0, 64, 0
4, 9024, Note_on_c, 0, 69, 82
4, 9216, Note_on_c, 0, 69, 0
4, 9216, Note_on_c, 0, 63, 82
4, 9408, Note_on_c, 0, 63, 0
4, 9408, Note_on_c, 0, 62, 82
4, 9792, Note_on_c, 0, 62, 0
4, 9792, Note_on_c, 0, 61, 82
4, 9984, Note_on_c, 0, 61, 0
4, 10560, Note_on_c, 0, 70, 65
4, 11088, Note_on_c, 0, 70, 0
4, 11136, Note_on_c, 0, 71, 65
4, 11712, Note_on_c, 0, 71, 0
4, 11712, Note_on_c, 0, 68, 65
4, 11712, Note_on_c, 0, 73, 65
4, 12096, Note_on_c, 0, 73, 0
4, 12096, Note_on_c, 0, 68, 0
4, 12096, Note_on_c, 0, 66, 65
4, 12288, Note_on_c, 0, 66, 0
4, 12288, Note_on_c, 0, 64, 65
4, 12480, Note_on_c, 0, 64, 0
4, 12480, Note_on_c, 0, 72, 55
4, 12672, Note_on_c, 0, 72, 0
4, 12672, Note_on_c, 0, 63, 45
4, 12672, Note_on_c, 0, 74, 45
4, 12816, Note_on_c, 0, 74, 0
4, 12816, Note_on_c, 0, 63, 0
4, 12864, Note_on_c, 0, 62, 65
4, 13056, Note_on_c, 0, 62, 0
4, 13056, Note_on_c, 0, 70, 55
4, 13248, Note_on_c, 0, 70, 0
4, 13248, Note_on_c, 0, 61, 45
4, 13248, Note_on_c, 0, 72, 45
4, 13392, Note_on_c, 0, 72, 0
4, 13392, Note_on_c, 0, 61, 0
4, 13440, Note_on_c, 0, 71, 98
4, 13824, Note_on_c, 0, 71, 0
4, 13824, Note_on_c, 0, 70, 87
4, 14016, Note_on_c, 0, 70, 0
4, 14016, Note_on_c, 0, 69, 82
4, 14208, Note_on_c, 0, 69, 0
4, 14208, Note_on_c, 0, 68, 77
4, 14400, Note_on_c, 0, 68, 0
4, 14400, Note_on_c, 0, 67, 71
4, 14544, Note_on_c, 0, 67, 0
4, 14592, Note_on_c, 0, 61, 65
4, 14784, Note_on_c, 0, 61, 0
4, 14784, Note_on_c, 0, 66, 65
4, 14976, Note_on_c, 0, 66, 0
4, 14976, Note_on_c, 0, 60, 65
4, 15120, Note_on_c, 0, 60, 0
4, 15168, Note_on_c, 0, 59, 65
4, 15360, Note_on_c, 0, 59, 0
4, 15360, Note_on_c, 0, 65, 35
4, 15552, Note_on_c, 0, 65, 0
4, 15552, Note_on_c, 0, 58, 35
4, 15696, Note_on_c, 0, 58, 0
4, 15744, Note_on_c, 0, 50, 65
4, 15744, Note_on_c, 0, 63, 65
4, 16320, Note_on_c, 0, 63, 0
4, 16320, Note_on_c, 0, 50, 0
4, 16320, Note_on_c, 0, 49, 65
4, 16320, Note_on_c, 0, 62, 65
4, 16896, Note_on_c, 0, 62, 0
4, 16896, Note_on_c, 0, 49, 0
4, 16896, Note_on_c, 0, 50, 65
4, 16896, Note_on_c, 0, 63, 65
4, 17472, Note_on_c, 0, 63, 0
4, 17472, Note_on_c, 0, 50, 0
4, 17472, Note_on_c, 0, 49, 56
4, 17472, Note_on_c, 0, 62, 56
4, 17856, Note_on_c, 0, 62, 0
4, 17856, Note_on_c, 0, 49, 0
4, 17856, Note_on_c, 0, 50, 50
4, 17856, Note_on_c, 0, 63, 50
4, 18432, Note_on_c, 0, 63, 0
4, 18432, Note_on_c, 0, 50, 0
4, 18432, Note_on_c, 0, 49, 41
4, 18432, Note_on_c, 0, 62, 41
4, 18816, Note_on_c, 0, 62, 0
4, 18816, Note_on_c, 0, 49, 0
4, 18816, Note_on_c, 0, 50, 35
4, 18816, Note_on_c, 0, 63, 35
4, 19392, Note_on_c, 0, 63, 0
4, 19392, Note_on_c, 0, 50, 0
4, 19392, Note_on_c, 0, 49, 26
4, 19392, Note_on_c, 0, 62, 26
4, 19776, Note_on_c, 0, 62, 0
4, 19776, Note_on_c, 0, 49, 0
4, 21504, Note_on_c, 0, 63, 82
4, 21600, Note_on_c, 0, 63, 0
4, 21600, Note_on_c, 0, 65, 82
4, 21696, Note_on_c, 0, 65, 0
4, 21696, Note_on_c, 0, 67, 82
4, 21792, Note_on_c, 0, 67, 0
4, 21792, Note_on_c, 0, 69, 82
4, 21888, Note_on_c, 0, 69, 0
4, 21888, Note_on_c, 0, 71, 82
4, 22032, Note_on_c, 0, 71, 0
4, 22080, Note_on_c, 0, 68, 82
4, 22464, Note_on_c, 0, 68, 0
4, 23232, Note_on_c, 0, 58, 82
4, 23424, Note_on_c, 0, 58, 0
4, 23424, Note_on_c, 0, 42, 80
4, 23616, Note_on_c, 0, 42, 0
4, 23616, Note_on_c, 0, 54, 77
4, 23808, Note_on_c, 0, 54, 0
4, 23808, Note_on_c, 0, 47, 74
4, 24000, Note_on_c, 0, 47, 0
4, 24000, Note_on_c, 0, 57, 71
4, 24192, Note_on_c, 0, 57, 0
4, 24192, Note_on_c, 0, 60, 68
4, 24336, Note_on_c, 0, 60, 0
4, 24384, Note_on_c, 0, 68, 65
4, 24576, Note_on_c, 0, 68, 0
4, 24576, Note_on_c, 0, 69, 73
4, 24768, Note_on_c, 0, 69, 0
4, 24768, Note_on_c, 0, 70, 82
4, 24912, Note_on_c, 0, 70, 0
4, 24960, Note_on_c, 0, 67, 65
4, 24960, Note_on_c, 0, 71, 65
4, 25488, Note_on_c, 0, 71, 0
4, 25488, Note_on_c, 0, 67, 0
4, 25536, Note_on_c, 0, 56, 82
4, 25728, Note_on_c, 0, 56, 0
4, 25728, Note_on_c, 0, 40, 82
4, 25920, Note_on_c, 0, 40, 0
4, 25920, Note_on_c, 0, 47, 82
4, 26112, Note_on_c, 0, 47, 0
4, 26112, Note_on_c, 0, 45, 82
4, 26304, Note_on_c, 0, 45, 0
4, 26304, Note_on_c, 0, 52, 82
4, 26496, Note_on_c, 0, 52, 0
4, 26496, Note_on_c, 0, 55, 82
4, 26640, Note_on_c, 0, 55, 0
4, 26880, Note_on_c, 0, 46, 98
4, 27072, Note_on_c, 0, 46, 0
4, 27072, Note_on_c, 0, 54, 98
4, 27264, Note_on_c, 0, 54, 0
4, 27264, Note_on_c, 0, 55, 98
4, 27456, Note_on_c, 0, 55, 0
4, 27456, Note_on_c, 0, 58, 98
4, 27648, Note_on_c, 0, 58, 0
4, 27648, Note_on_c, 0, 60, 98
4, 27840, Note_on_c, 0, 60, 0
4, 27840, Note_on_c, 0, 61, 98
4, 27936, Note_on_c, 0, 61, 0
4, 27936, Note_on_c, 0, 63, 98
4, 28032, Note_on_c, 0, 63, 0
4, 28032, Note_on_c, 0, 64, 98
4, 28128, Note_on_c, 0, 64, 0
4, 28128, Note_on_c, 0, 66, 98
4, 28224, Note_on_c, 0, 66, 0
4, 29184, Note_on_c, 0, 55, 98
4, 29184, Note_on_c, 0, 58, 98
4, 30144, Note_on_c, 0, 58, 0
4, 30144, Note_on_c, 0, 55, 0
4, 30144, Note_on_c, 0, 61, 65
4, 30336, Note_on_c, 0, 61, 0
4, 30336, Note_on_c, 0, 60, 65
4, 30528, Note_on_c, 0, 60, 0
4, 30528, Note_on_c, 0, 58, 65
4, 30720, Note_on_c, 0, 58, 0
4, 30720, Note_on_c, 0, 57, 65
4, 30912, Note_on_c, 0, 57, 0
4, 30912, Note_on_c, 0, 56, 65
4, 31104, Note_on_c, 0, 56, 0
4, 31104, Note_on_c, 0, 55, 65
4, 31248, Note_on_c, 0, 55, 0
4, 31488, Note_on_c, 0, 49, 35
4, 31680, Note_on_c, 0, 49, 0
4, 31680, Note_on_c, 0, 50, 35
4, 31872, Note_on_c, 0, 50, 0
4, 31872, Note_on_c, 0, 51, 35
4, 32064, Note_on_c, 0, 51, 0
4, 32064, Note_on_c, 0, 52, 35
4, 32256, Note_on_c, 0, 52, 0
4, 32256, Note_on_c, 0, 53, 35
4, 32448, Note_on_c, 0, 53, 0
4, 32448, Note_on_c, 0, 54, 35
4, 32640, Note_on_c, 0, 54, 0
4, 32640, Note_on_c, 0, 55, 35
4, 32832, Note_on_c, 0, 55, 0
4, 32832, Note_on_c, 0, 56, 35
4, 33024, Note_on_c, 0, 56, 0
4, 33024, Note_on_c, 0, 57, 35
4, 33408, Note_on_c, 0, 57, 0
4, 33600, Note_on_c, 0, 63, 82
4, 33984, Note_on_c, 0, 63, 0
4, 33984, Note_on_c, 0, 62, 82
4, 34176, Note_on_c, 0, 62, 0
4, 34176, Note_on_c, 0, 61, 82
4, 34368, Note_on_c, 0, 61, 0
4, 35328, Note_on_c, 0, 51, 78
4, 35904, Note_on_c, 0, 51, 0
4, 35904, Note_on_c, 0, 50, 74
4, 36480, Note_on_c, 0, 50, 0
4, 36480, Note_on_c, 0, 49, 70
4, 37056, Note_on_c, 0, 49, 0
4, 37056, End_track
5, 0, Start_track
5, 0, Title_t, "Grand Piano"
5, 0, Program_c, 0, 0
5, 0, Control_c, 0, 7, 115
5, 0, Control_c, 0, 10, 48
5, 0, Note_on_c, 0, 26, 122
5, 0, Note_on_c, 0, 38, 122
5, 1344, Note_on_c, 0, 38, 0
5, 1344, Note_on_c, 0, 26, 0
5, 9984, Note_on_c, 0, 60, 70
5, 10368, Note_on_c, 0, 60, 0
5, 10368, Note_on_c, 0, 68, 70
5, 10560, Note_on_c, 0, 68, 0
5, 10560, Note_on_c, 0, 65, 70
5, 10944, Note_on_c, 0, 65, 0
5, 10944, Note_on_c, 0, 63, 70
5, 11088, Note_on_c, 0, 63, 0
5, 11136, Note_on_c, 0, 64, 70
5, 11328, Note_on_c, 0, 64, 0
5, 11328, Note_on_c, 0, 66, 70
5, 11520, Note_on_c, 0, 66, 0
5, 11520, Note_on_c, 0, 68, 70
5, 11712, Note_on_c, 0, 68, 0
5, 13440, Note_on_c, 0, 60, 103
5, 14592, Note_on_c, 0, 60, 0
5, 19776, Note_on_c, 0, 62, 122
5, 19872, Note_on_c, 0, 48, 122
5, 19968, Note_on_c, 0, 52, 122
5, 20064, Note_on_c, 0, 38, 122
5, 20160, Note_on_c, 0, 26, 122
5, 21504, Note_on_c, 0, 26, 0
5, 21504, Note_on_c, 0, 52, 0
5, 21504, Note_on_c, 0, 62, 0
5, 21504, Note_on_c, 0, 48, 0
5, 21504, Note_on_c, 0, 38, 0
5, 22080, Note_on_c, 0, 64, 87
5, 22272, Note_on_c, 0, 64, 0
5, 22272, Note_on_c, 0, 63, 87
5, 22464, Note_on_c, 0, 63, 0
5, 22464, Note_on_c, 0, 62, 87
5, 22656, Note_on_c, 0, 62, 0
5, 22656, Note_on_c, 0, 61, 87
5, 22848, Note_on_c, 0, 61, 0
5, 22848, Note_on_c, 0, 60, 87
5, 23040, Note_on_c, 0, 60, 0
5, 23040, Note_on_c, 0, 59, 87
5, 23232, Note_on_c, 0, 59, 0
5, 24384, Note_on_c, 0, 64, 70
5, 24912, Note_on_c, 0, 64, 0
5, 26688, Note_on_c, 0, 27, 103
5, 26688, Note_on_c, 0, 39, 103
5, 28992, Note_on_c, 0, 39, 0
5, 28992, Note_on_c, 0, 27, 0
5, 28992, Note_on_c, 0, 24, 103
5, 28992, Note_on_c, 0, 36, 103
5, 30144, Note_on_c, 0, 36, 0
5, 30144, Note_on_c, 0, 24, 0
5, 31296, Note_on_c, 0, 30, 70
5, 31296, Note_on_c, 0, 42, 70
5, 33600, Note_on_c, 0, 42, 0
5, 33600, Note_on_c, 0, 30, 0
5, 37248, Note_on_c, 0, 24, 87
5, 37248, Note_on_c, 0, 36, 87
5, 37248, Note_on_c, 0, 38, 87
5, 37344, Note_on_c, 0, 38, 0
5, 37344, Note_on_c, 0, 36, 0
5, 37344, Note_on_c, 0, 24, 0
5, 38400, Note_on_c, 0, 24, 87
5, 38400, Note_on_c, 0, 36, 87
5, 38400, Note_on_c, 0, 38, 87
5, 38496, Note_on_c, 0, 38, 0
5, 38496, Note_on_c, 0, 36, 0
5, 38496, Note_on_c, 0, 24, 0
5, 39552, Note_on_c, 0, 24, 87
5, 39552, Note_on_c, 0, 36, 87
5, 39552, Note_on_c, 0, 38, 87
5, 39648, Note_on_c, 0, 38, 0
5, 39648, Note_on_c, 0, 36, 0
5, 39648, Note_on_c, 0, 24, 0
5, 40896, Note_on_c, 0, 24, 87
5, 40896, Note_on_c, 0, 36, 87
5, 40896, Note_on_c, 0, 38, 87
5, 40992, Note_on_c, 0, 38, 0
5, 40992, Note_on_c, 0, 36, 0
5, 40992, Note_on_c, 0, 24, 0
5, 42048, Note_on_c, 0, 24, 87
5, 42048, Note_on_c, 0, 36, 87
5, 42048, Note_on_c, 0, 38, 87
5, 42144, Note_on_c, 0, 38, 0
5, 42144, Note_on_c, 0, 36, 0
5, 42144, Note_on_c, 0, 24, 0
5, 42816, Note_on_c, 0, 24, 87
5, 42816, Note_on_c, 0, 36, 87
5, 42816, Note_on_c, 0, 38, 87
5, 42912, Note_on_c, 0, 38, 0
5, 42912, Note_on_c, 0, 36, 0
5, 42912, Note_on_c, 0, 24, 0
5, 42912, End_track
0, 0, End_of_file
