0, 0, Header, 1, 2, 240
1, 0, Start_track
1, 0, Title_t, "POULENC, Francis - 'Hymne, 2nd mvt of his Trois Pieces', Seq Terence Bloem"
1, 0, Copyright_t, "Adaptation for Disklavier pianos, by: Robert C. Kuhmann (c) 2012."
1, 0, Time_signature, 4, 2, 24, 8
1, 0, Key_signature, 0, "major"
1, 0, Tempo, 952381
1, 12480, Time_signature, 2, 2, 24, 8
1, 12960, Time_signature, 4, 2, 24, 8
1, 18960, Tempo, 983607
1, 19200, Tempo, 1000000
1, 19440, Tempo, 1034483
1, 19680, Tempo, 952381
1, 33120, Time_signature, 3, 2, 24, 8
1, 33840, Time_signature, 3, 3, 12, 8
1, 34200, Time_signature, 4, 2, 24, 8
1, 34440, Tempo, 1000000
1, 34680, Tempo, 1071429
1, 34920, Tempo, 1132075
1, 35160, Time_signature, 5, 2, 24, 8
1, 35160, Tempo, 952381
1, 35400, Tempo, 952381
1, 35640, Tempo, 952381
1, 35880, Tempo, 952381
1, 36120, Tempo, 952381
1, 36360, Time_signature, 4, 2, 24, 8
1, 49800, Time_signature, 3, 2, 24, 8
1, 49800, End_track
2, 0, Start_track
2, 0, Title_t, "Piano"
2, 0, Program_c, 0, 0
2, 0, Control_c, 0, 7, 115
2, 0, Note_on_c, 0, 75, 85
2, 0, Note_on_c, 0, 39, 85
2, 0, Note_on_c, 0, 67, 85
2, 0, Note_on_c, 0, 70, 85
2, 0, Note_on_c, 0, 27, 85
2, 0, Note_on_c, 0, 63, 85
2, 192, Note_on_c, 0, 63, 0
2, 192, Note_on_c, 0, 39, 0
2, 192, Note_on_c, 0, 67, 0
2, 192, Note_on_c, 0, 75, 0
2, 192, Note_on_c, 0, 27, 0
2, 192, Note_on_c, 0, 70, 0
2, 240, Note_on_c, 0, 51, 85
2, 240, Note_on_c, 0, 70, 85
2, 240, Note_on_c, 0, 58, 85
2, 240, Note_on_c, 0, 39, 85
2, 240, Note_on_c, 0, 63, 85
2, 240, Note_on_c, 0, 67, 85
2, 384, Note_on_c, 0, 67, 0
2, 384, Note_on_c, 0, 70, 0
2, 384, Note_on_c, 0, 58, 0
2, 384, Note_on_c, 0, 51, 0
2, 384, Note_on_c, 0, 63, 0
2, 384, Note_on_c, 0, 39, 0
2, 450, Note_on_c, 0, 62, 85
2, 450, Note_on_c, 0, 70, 85
2, 450, Note_on_c, 0, 68, 85
2, 450, Note_on_c, 0, 50, 85
2, 450, Note_on_c, 0, 75, 85
2, 450, Note_on_c, 0, 80, 85
2, 474, Note_on_c, 0, 80, 0
2, 474, Note_on_c, 0, 70, 0
2, 474, Note_on_c, 0, 68, 0
2, 474, Note_on_c, 0, 62, 0
2, 474, Note_on_c, 0, 75, 0
2, 474, Note_on_c, 0, 50, 0
2, 480, Note_on_c, 0, 79, 85
2, 480, Note_on_c, 0, 67, 85
2, 480, Note_on_c, 0, 51, 85
2, 480, Note_on_c, 0, 70, 85
2, 480, Note_on_c, 0, 75, 85
2, 480, Note_on_c, 0, 63, 85
2, 672, Note_on_c, 0, 63, 0
2, 672, Note_on_c, 0, 67, 0
2, 672, Note_on_c, 0, 51, 0
2, 672, Note_on_c, 0, 79, 0
2, 672, Note_on_c, 0, 75, 0
2, 672, Note_on_c, 0, 70, 0
2, 840, Note_on_c, 0, 39, 85
2, 840, Note_on_c, 0, 51, 85
2, 840, Note_on_c, 0, 58, 85
2, 840, Note_on_c, 0, 63, 85
2, 840, Note_on_c, 0, 67, 85
2, 840, Note_on_c, 0, 70, 85
2, 936, Note_on_c, 0, 70, 0
2, 936, Note_on_c, 0, 51, 0
2, 936, Note_on_c, 0, 58, 0
2, 936, Note_on_c, 0, 39, 0
2, 936, Note_on_c, 0, 67, 0
2, 936, Note_on_c, 0, 63, 0
2, 960, Note_on_c, 0, 67, 85
2, 960, Note_on_c, 0, 63, 85
2, 960, Note_on_c, 0, 27, 85
2, 960, Note_on_c, 0, 70, 85
2, 960, Note_on_c, 0, 75, 85
2, 960, Note_on_c, 0, 39, 85
2, 1152, Note_on_c, 0, 39, 0
2, 1152, Note_on_c, 0, 63, 0
2, 1152, Note_on_c, 0, 27, 0
2, 1152, Note_on_c, 0, 67, 0
2, 1152, Note_on_c, 0, 75, 0
2, 1152, Note_on_c, 0, 70, 0
2, 1200, Note_on_c, 0, 63, 85
2, 1200, Note_on_c, 0, 39, 85
2, 1200, Note_on_c, 0, 67, 85
2, 1200, Note_on_c, 0, 51, 85
2, 1200, Note_on_c, 0, 70, 85
2, 1200, Note_on_c, 0, 58, 85
2, 1344, Note_on_c, 0, 58, 0
2, 1344, Note_on_c, 0, 39, 0
2, 1344, Note_on_c, 0, 67, 0
2, 1344, Note_on_c, 0, 63, 0
2, 1344, Note_on_c, 0, 70, 0
2, 1344, Note_on_c, 0, 51, 0
2, 1410, Note_on_c, 0, 80, 85
2, 1410, Note_on_c, 0, 75, 85
2, 1410, Note_on_c, 0, 62, 85
2, 1410, Note_on_c, 0, 70, 85
2, 1410, Note_on_c, 0, 68, 85
2, 1410, Note_on_c, 0, 50, 85
2, 1434, Note_on_c, 0, 50, 0
2, 1434, Note_on_c, 0, 75, 0
2, 1434, Note_on_c, 0, 62, 0
2, 1434, Note_on_c, 0, 80, 0
2, 1434, Note_on_c, 0, 68, 0
2, 1434, Note_on_c, 0, 70, 0
2, 1440, Note_on_c, 0, 63, 85
2, 1440, Note_on_c, 0, 79, 85
2, 1440, Note_on_c, 0, 67, 85
2, 1440, Note_on_c, 0, 51, 85
2, 1440, Note_on_c, 0, 70, 85
2, 1440, Note_on_c, 0, 75, 85
2, 1632, Note_on_c, 0, 75, 0
2, 1632, Note_on_c, 0, 79, 0
2, 1632, Note_on_c, 0, 67, 0
2, 1632, Note_on_c, 0, 63, 0
2, 1632, Note_on_c, 0, 70, 0
2, 1632, Note_on_c, 0, 51, 0
2, 1800, Note_on_c, 0, 39, 85
2, 1800, Note_on_c, 0, 51, 85
2, 1800, Note_on_c, 0, 58, 85
2, 1800, Note_on_c, 0, 63, 85
2, 1800, Note_on_c, 0, 67, 85
2, 1800, Note_on_c, 0, 70, 85
2, 1896, Note_on_c, 0, 70, 0
2, 1896, Note_on_c, 0, 51, 0
2, 1896, Note_on_c, 0, 58, 0
2, 1896, Note_on_c, 0, 39, 0
2, 1896, Note_on_c, 0, 67, 0
2, 1896, Note_on_c, 0, 63, 0
2, 1920, Note_on_c, 0, 27, 85
2, 1920, Note_on_c, 0, 63, 85
2, 1920, Note_on_c, 0, 68, 85
2, 1920, Note_on_c, 0, 70, 85
2, 1920, Note_on_c, 0, 39, 85
2, 1920, Note_on_c, 0, 75, 85
2, 2112, Note_on_c, 0, 75, 0
2, 2112, Note_on_c, 0, 63, 0
2, 2112, Note_on_c, 0, 68, 0
2, 2112, Note_on_c, 0, 27, 0
2, 2112, Note_on_c, 0, 39, 0
2, 2112, Note_on_c, 0, 70, 0
2, 2160, Note_on_c, 0, 51, 85
2, 2160, Note_on_c, 0, 58, 85
2, 2160, Note_on_c, 0, 63, 85
2, 2160, Note_on_c, 0, 68, 85
2, 2160, Note_on_c, 0, 70, 85
2, 2160, Note_on_c, 0, 39, 85
2, 2304, Note_on_c, 0, 39, 0
2, 2304, Note_on_c, 0, 58, 0
2, 2304, Note_on_c, 0, 63, 0
2, 2304, Note_on_c, 0, 51, 0
2, 2304, Note_on_c, 0, 70, 0
2, 2304, Note_on_c, 0, 68, 0
2, 2370, Note_on_c, 0, 87, 85
2, 2370, Note_on_c, 0, 63, 85
2, 2394, Note_on_c, 0, 63, 0
2, 2394, Note_on_c, 0, 87, 0
2, 2400, Note_on_c, 0, 82, 85
2, 2400, Note_on_c, 0, 94, 85
2, 2400, Note_on_c, 0, 58, 85
2, 2400, Note_on_c, 0, 70, 85
2, 2592, Note_on_c, 0, 70, 0
2, 2592, Note_on_c, 0, 82, 0
2, 2592, Note_on_c, 0, 94, 0
2, 2592, Note_on_c, 0, 58, 0
2, 2850, Note_on_c, 0, 77, 85
2, 2850, Note_on_c, 0, 82, 85
2, 2850, Note_on_c, 0, 70, 85
2, 2874, Note_on_c, 0, 70, 0
2, 2874, Note_on_c, 0, 82, 0
2, 2874, Note_on_c, 0, 77, 0
2, 2880, Note_on_c, 0, 82, 85
2, 2880, Note_on_c, 0, 75, 85
2, 2880, Note_on_c, 0, 78, 85
2, 3072, Note_on_c, 0, 78, 0
2, 3072, Note_on_c, 0, 75, 0
2, 3072, Note_on_c, 0, 82, 0
2, 3120, Note_on_c, 0, 77, 85
2, 3120, Note_on_c, 0, 82, 85
2, 3120, Note_on_c, 0, 73, 85
2, 3264, Note_on_c, 0, 73, 0
2, 3264, Note_on_c, 0, 82, 0
2, 3264, Note_on_c, 0, 77, 0
2, 3300, Note_on_c, 0, 71, 85
2, 3300, Note_on_c, 0, 82, 85
2, 3300, Note_on_c, 0, 75, 85
2, 3324, Note_on_c, 0, 75, 0
2, 3324, Note_on_c, 0, 82, 0
2, 3324, Note_on_c, 0, 71, 0
2, 3330, Note_on_c, 0, 73, 85
2, 3330, Note_on_c, 0, 77, 85
2, 3354, Note_on_c, 0, 77, 0
2, 3354, Note_on_c, 0, 73, 0
2, 3360, Note_on_c, 0, 70, 85
2, 3360, Note_on_c, 0, 73, 85
2, 3360, Note_on_c, 0, 82, 85
2, 3552, Note_on_c, 0, 82, 0
2, 3552, Note_on_c, 0, 73, 0
2, 3552, Note_on_c, 0, 70, 0
2, 3810, Note_on_c, 0, 71, 85
2, 3810, Note_on_c, 0, 80, 85
2, 3810, Note_on_c, 0, 75, 85
2, 3834, Note_on_c, 0, 75, 0
2, 3834, Note_on_c, 0, 80, 0
2, 3834, Note_on_c, 0, 71, 0
2, 3840, Note_on_c, 0, 78, 85
2, 3840, Note_on_c, 0, 73, 85
2, 3840, Note_on_c, 0, 70, 85
2, 4032, Note_on_c, 0, 70, 0
2, 4032, Note_on_c, 0, 73, 0
2, 4032, Note_on_c, 0, 78, 0
2, 4080, Note_on_c, 0, 77, 85
2, 4080, Note_on_c, 0, 68, 85
2, 4080, Note_on_c, 0, 71, 85
2, 4224, Note_on_c, 0, 68, 0
2, 4224, Note_on_c, 0, 77, 0
2, 4260, Note_on_c, 0, 70, 85
2, 4260, Note_on_c, 0, 78, 85
2, 4284, Note_on_c, 0, 78, 0
2, 4284, Note_on_c, 0, 70, 0
2, 4284, Note_on_c, 0, 71, 0
2, 4290, Note_on_c, 0, 68, 85
2, 4290, Note_on_c, 0, 77, 85
2, 4314, Note_on_c, 0, 77, 0
2, 4314, Note_on_c, 0, 68, 0
2, 4320, Note_on_c, 0, 70, 85
2, 4320, Note_on_c, 0, 75, 85
2, 4320, Note_on_c, 0, 66, 85
2, 4512, Note_on_c, 0, 66, 0
2, 4512, Note_on_c, 0, 75, 0
2, 4512, Note_on_c, 0, 70, 0
2, 4770, Note_on_c, 0, 73, 85
2, 4770, Note_on_c, 0, 68, 85
2, 4770, Note_on_c, 0, 65, 85
2, 4794, Note_on_c, 0, 65, 0
2, 4794, Note_on_c, 0, 68, 0
2, 4794, Note_on_c, 0, 73, 0
2, 4800, Note_on_c, 0, 61, 85
2, 4800, Note_on_c, 0, 65, 85
2, 4800, Note_on_c, 0, 70, 85
2, 4992, Note_on_c, 0, 70, 0
2, 4992, Note_on_c, 0, 65, 0
2, 4992, Note_on_c, 0, 61, 0
2, 5040, Note_on_c, 0, 59, 85
2, 5040, Note_on_c, 0, 63, 85
2, 5040, Note_on_c, 0, 68, 85
2, 5064, Note_on_c, 0, 68, 0
2, 5064, Note_on_c, 0, 63, 0
2, 5064, Note_on_c, 0, 59, 0
2, 5070, Note_on_c, 0, 61, 85
2, 5070, Note_on_c, 0, 65, 85
2, 5094, Note_on_c, 0, 65, 0
2, 5094, Note_on_c, 0, 61, 0
2, 5100, Note_on_c, 0, 59, 85
2, 5100, Note_on_c, 0, 63, 85
2, 5100, Note_on_c, 0, 68, 85
2, 5124, Note_on_c, 0, 68, 0
2, 5124, Note_on_c, 0, 63, 0
2, 5124, Note_on_c, 0, 59, 0
2, 5130, Note_on_c, 0, 61, 85
2, 5130, Note_on_c, 0, 65, 85
2, 5154, Note_on_c, 0, 65, 0
2, 5154, Note_on_c, 0, 61, 0
2, 5160, Note_on_c, 0, 59, 85
2, 5160, Note_on_c, 0, 68, 85
2, 5160, Note_on_c, 0, 63, 85
2, 5184, Note_on_c, 0, 63, 0
2, 5184, Note_on_c, 0, 68, 0
2, 5184, Note_on_c, 0, 59, 0
2, 5190, Note_on_c, 0, 61, 85
2, 5190, Note_on_c, 0, 65, 85
2, 5214, Note_on_c, 0, 65, 0
2, 5214, Note_on_c, 0, 61, 0
2, 5220, Note_on_c, 0, 59, 85
2, 5220, Note_on_c, 0, 63, 85
2, 5220, Note_on_c, 0, 68, 85
2, 5244, Note_on_c, 0, 68, 0
2, 5244, Note_on_c, 0, 63, 0
2, 5244, Note_on_c, 0, 59, 0
2, 5250, Note_on_c, 0, 61, 85
2, 5250, Note_on_c, 0, 65, 85
2, 5274, Note_on_c, 0, 65, 0
2, 5274, Note_on_c, 0, 61, 0
2, 5280, Note_on_c, 0, 58, 85
2, 5280, Note_on_c, 0, 62, 85
2, 5280, Note_on_c, 0, 70, 85
2, 5664, Note_on_c, 0, 70, 0
2, 5664, Note_on_c, 0, 62, 0
2, 5664, Note_on_c, 0, 58, 0
2, 5760, Note_on_c, 0, 51, 85
2, 5760, Note_on_c, 0, 66, 85
2, 5760, Note_on_c, 0, 39, 85
2, 5760, Note_on_c, 0, 70, 85
2, 5784, Note_on_c, 0, 70, 0
2, 5784, Note_on_c, 0, 66, 0
2, 5790, Note_on_c, 0, 65, 85
2, 5814, Note_on_c, 0, 65, 0
2, 5820, Note_on_c, 0, 70, 85
2, 5820, Note_on_c, 0, 66, 85
2, 5856, Note_on_c, 0, 39, 0
2, 5856, Note_on_c, 0, 51, 0
2, 5964, Note_on_c, 0, 70, 0
2, 5964, Note_on_c, 0, 66, 0
2, 6000, Note_on_c, 0, 66, 85
2, 6000, Note_on_c, 0, 37, 85
2, 6000, Note_on_c, 0, 69, 85
2, 6000, Note_on_c, 0, 49, 85
2, 6024, Note_on_c, 0, 69, 0
2, 6024, Note_on_c, 0, 66, 0
2, 6030, Note_on_c, 0, 64, 85
2, 6054, Note_on_c, 0, 64, 0
2, 6060, Note_on_c, 0, 66, 85
2, 6096, Note_on_c, 0, 37, 0
2, 6096, Note_on_c, 0, 49, 0
2, 6156, Note_on_c, 0, 66, 0
2, 6180, Note_on_c, 0, 48, 85
2, 6180, Note_on_c, 0, 68, 85
2, 6180, Note_on_c, 0, 36, 85
2, 6180, Note_on_c, 0, 63, 85
2, 6228, Note_on_c, 0, 63, 0
2, 6228, Note_on_c, 0, 48, 0
2, 6228, Note_on_c, 0, 68, 0
2, 6228, Note_on_c, 0, 36, 0
2, 6240, Note_on_c, 0, 38, 85
2, 6240, Note_on_c, 0, 68, 85
2, 6240, Note_on_c, 0, 65, 85
2, 6240, Note_on_c, 0, 50, 85
2, 6264, Note_on_c, 0, 65, 0
2, 6264, Note_on_c, 0, 68, 0
2, 6270, Note_on_c, 0, 63, 85
2, 6294, Note_on_c, 0, 63, 0
2, 6300, Note_on_c, 0, 65, 85
2, 6432, Note_on_c, 0, 38, 0
2, 6432, Note_on_c, 0, 50, 0
2, 6444, Note_on_c, 0, 65, 0
2, 6660, Note_on_c, 0, 67, 85
2, 6660, Note_on_c, 0, 64, 85
2, 6660, Note_on_c, 0, 47, 85
2, 6660, Note_on_c, 0, 35, 85
2, 6684, Note_on_c, 0, 64, 0
2, 6684, Note_on_c, 0, 67, 0
2, 6690, Note_on_c, 0, 62, 85
2, 6708, Note_on_c, 0, 47, 0
2, 6708, Note_on_c, 0, 35, 0
2, 6714, Note_on_c, 0, 62, 0
2, 6720, Note_on_c, 0, 61, 85
2, 6720, Note_on_c, 0, 34, 85
2, 6720, Note_on_c, 0, 46, 85
2, 6720, Note_on_c, 0, 66, 85
2, 6816, Note_on_c, 0, 46, 0
2, 6816, Note_on_c, 0, 34, 0
2, 6912, Note_on_c, 0, 61, 0
2, 6912, Note_on_c, 0, 66, 0
2, 6960, Note_on_c, 0, 62, 85
2, 6960, Note_on_c, 0, 35, 85
2, 6960, Note_on_c, 0, 66, 85
2, 6960, Note_on_c, 0, 47, 85
2, 7056, Note_on_c, 0, 47, 0
2, 7056, Note_on_c, 0, 62, 0
2, 7056, Note_on_c, 0, 35, 0
2, 7056, Note_on_c, 0, 66, 0
2, 7140, Note_on_c, 0, 45, 85
2, 7140, Note_on_c, 0, 65, 85
2, 7140, Note_on_c, 0, 62, 85
2, 7140, Note_on_c, 0, 33, 85
2, 7164, Note_on_c, 0, 62, 0
2, 7164, Note_on_c, 0, 65, 0
2, 7170, Note_on_c, 0, 60, 85
2, 7188, Note_on_c, 0, 45, 0
2, 7188, Note_on_c, 0, 33, 0
2, 7194, Note_on_c, 0, 60, 0
2, 7200, Note_on_c, 0, 32, 85
2, 7200, Note_on_c, 0, 44, 85
2, 7200, Note_on_c, 0, 59, 85
2, 7200, Note_on_c, 0, 64, 85
2, 7392, Note_on_c, 0, 64, 0
2, 7392, Note_on_c, 0, 32, 0
2, 7392, Note_on_c, 0, 44, 0
2, 7392, Note_on_c, 0, 59, 0
2, 7620, Note_on_c, 0, 44, 85
2, 7620, Note_on_c, 0, 64, 85
2, 7620, Note_on_c, 0, 59, 85
2, 7639, Note_on_c, 0, 44, 0
2, 7644, Note_on_c, 0, 44, 85
2, 7663, Note_on_c, 0, 44, 0
2, 7668, Note_on_c, 0, 59, 0
2, 7668, Note_on_c, 0, 64, 0
2, 7668, Note_on_c, 0, 44, 85
2, 7680, Note_on_c, 0, 45, 85
2, 7680, Note_on_c, 0, 60, 85
2, 7680, Note_on_c, 0, 71, 85
2, 7687, Note_on_c, 0, 44, 0
2, 7872, Note_on_c, 0, 45, 0
2, 7872, Note_on_c, 0, 60, 0
2, 7872, Note_on_c, 0, 71, 0
2, 7920, Note_on_c, 0, 64, 85
2, 7920, Note_on_c, 0, 59, 85
2, 7920, Note_on_c, 0, 43, 85
2, 8064, Note_on_c, 0, 43, 0
2, 8064, Note_on_c, 0, 59, 0
2, 8064, Note_on_c, 0, 64, 0
2, 8100, Note_on_c, 0, 64, 85
2, 8100, Note_on_c, 0, 60, 85
2, 8100, Note_on_c, 0, 45, 85
2, 8124, Note_on_c, 0, 45, 0
2, 8124, Note_on_c, 0, 60, 0
2, 8124, Note_on_c, 0, 64, 0
2, 8130, Note_on_c, 0, 59, 85
2, 8130, Note_on_c, 0, 43, 85
2, 8154, Note_on_c, 0, 43, 0
2, 8154, Note_on_c, 0, 59, 0
2, 8160, Note_on_c, 0, 63, 85
2, 8160, Note_on_c, 0, 42, 85
2, 8160, Note_on_c, 0, 58, 85
2, 8352, Note_on_c, 0, 42, 0
2, 8496, Note_on_c, 0, 58, 0
2, 8496, Note_on_c, 0, 63, 0
2, 8580, Note_on_c, 0, 41, 85
2, 8580, Note_on_c, 0, 56, 85
2, 8580, Note_on_c, 0, 63, 85
2, 8628, Note_on_c, 0, 63, 0
2, 8628, Note_on_c, 0, 56, 0
2, 8628, Note_on_c, 0, 41, 0
2, 8640, Note_on_c, 0, 70, 85
2, 8640, Note_on_c, 0, 38, 85
2, 8640, Note_on_c, 0, 54, 85
2, 8832, Note_on_c, 0, 54, 0
2, 8832, Note_on_c, 0, 38, 0
2, 8832, Note_on_c, 0, 70, 0
2, 8880, Note_on_c, 0, 44, 85
2, 8880, Note_on_c, 0, 54, 85
2, 8880, Note_on_c, 0, 59, 85
2, 8904, Note_on_c, 0, 44, 0
2, 8910, Note_on_c, 0, 46, 85
2, 8934, Note_on_c, 0, 46, 0
2, 8940, Note_on_c, 0, 44, 85
2, 8964, Note_on_c, 0, 44, 0
2, 8970, Note_on_c, 0, 46, 85
2, 8994, Note_on_c, 0, 46, 0
2, 9000, Note_on_c, 0, 44, 85
2, 9024, Note_on_c, 0, 44, 0
2, 9030, Note_on_c, 0, 46, 85
2, 9054, Note_on_c, 0, 46, 0
2, 9060, Note_on_c, 0, 42, 85
2, 9072, Note_on_c, 0, 59, 0
2, 9072, Note_on_c, 0, 54, 0
2, 9084, Note_on_c, 0, 42, 0
2, 9090, Note_on_c, 0, 44, 85
2, 9114, Note_on_c, 0, 44, 0
2, 9120, Note_on_c, 0, 46, 85
2, 9120, Note_on_c, 0, 53, 85
2, 9120, Note_on_c, 0, 62, 85
2, 9504, Note_on_c, 0, 62, 0
2, 9504, Note_on_c, 0, 53, 0
2, 9504, Note_on_c, 0, 46, 0
2, 9600, Note_on_c, 0, 42, 85
2, 9600, Note_on_c, 0, 53, 85
2, 9600, Note_on_c, 0, 58, 85
2, 9600, Note_on_c, 0, 61, 85
2, 9600, Note_on_c, 0, 65, 85
2, 9600, Note_on_c, 0, 70, 85
2, 9792, Note_on_c, 0, 70, 0
2, 9792, Note_on_c, 0, 53, 0
2, 9792, Note_on_c, 0, 58, 0
2, 9792, Note_on_c, 0, 42, 0
2, 9792, Note_on_c, 0, 65, 0
2, 9792, Note_on_c, 0, 61, 0
2, 9840, Note_on_c, 0, 49, 85
2, 9840, Note_on_c, 0, 54, 85
2, 9840, Note_on_c, 0, 58, 85
2, 9840, Note_on_c, 0, 61, 85
2, 9840, Note_on_c, 0, 66, 85
2, 9840, Note_on_c, 0, 70, 85
2, 9984, Note_on_c, 0, 70, 0
2, 9984, Note_on_c, 0, 54, 0
2, 9984, Note_on_c, 0, 58, 0
2, 9984, Note_on_c, 0, 49, 0
2, 9984, Note_on_c, 0, 66, 0
2, 9984, Note_on_c, 0, 61, 0
2, 10050, Note_on_c, 0, 42, 85
2, 10050, Note_on_c, 0, 53, 85
2, 10050, Note_on_c, 0, 56, 85
2, 10050, Note_on_c, 0, 61, 85
2, 10050, Note_on_c, 0, 70, 85
2, 10074, Note_on_c, 0, 70, 0
2, 10074, Note_on_c, 0, 56, 0
2, 10074, Note_on_c, 0, 42, 0
2, 10074, Note_on_c, 0, 53, 0
2, 10074, Note_on_c, 0, 61, 0
2, 10080, Note_on_c, 0, 39, 85
2, 10080, Note_on_c, 0, 54, 85
2, 10080, Note_on_c, 0, 58, 85
2, 10080, Note_on_c, 0, 63, 85
2, 10080, Note_on_c, 0, 70, 85
2, 10272, Note_on_c, 0, 70, 0
2, 10272, Note_on_c, 0, 58, 0
2, 10272, Note_on_c, 0, 39, 0
2, 10272, Note_on_c, 0, 54, 0
2, 10272, Note_on_c, 0, 63, 0
2, 10440, Note_on_c, 0, 39, 85
2, 10440, Note_on_c, 0, 54, 85
2, 10440, Note_on_c, 0, 58, 85
2, 10440, Note_on_c, 0, 63, 85
2, 10440, Note_on_c, 0, 70, 85
2, 10536, Note_on_c, 0, 70, 0
2, 10536, Note_on_c, 0, 58, 0
2, 10536, Note_on_c, 0, 39, 0
2, 10536, Note_on_c, 0, 54, 0
2, 10536, Note_on_c, 0, 63, 0
2, 10560, Note_on_c, 0, 61, 85
2, 10560, Note_on_c, 0, 65, 85
2, 10560, Note_on_c, 0, 70, 85
2, 10560, Note_on_c, 0, 42, 85
2, 10560, Note_on_c, 0, 53, 85
2, 10560, Note_on_c, 0, 58, 85
2, 10752, Note_on_c, 0, 58, 0
2, 10752, Note_on_c, 0, 65, 0
2, 10752, Note_on_c, 0, 70, 0
2, 10752, Note_on_c, 0, 61, 0
2, 10752, Note_on_c, 0, 53, 0
2, 10752, Note_on_c, 0, 42, 0
2, 10800, Note_on_c, 0, 61, 85
2, 10800, Note_on_c, 0, 66, 85
2, 10800, Note_on_c, 0, 70, 85
2, 10800, Note_on_c, 0, 49, 85
2, 10800, Note_on_c, 0, 54, 85
2, 10800, Note_on_c, 0, 58, 85
2, 10944, Note_on_c, 0, 58, 0
2, 10944, Note_on_c, 0, 66, 0
2, 10944, Note_on_c, 0, 70, 0
2, 10944, Note_on_c, 0, 61, 0
2, 10944, Note_on_c, 0, 54, 0
2, 10944, Note_on_c, 0, 49, 0
2, 11010, Note_on_c, 0, 32, 85
2, 11010, Note_on_c, 0, 47, 85
2, 11010, Note_on_c, 0, 56, 85
2, 11010, Note_on_c, 0, 61, 85
2, 11010, Note_on_c, 0, 70, 85
2, 11034, Note_on_c, 0, 70, 0
2, 11034, Note_on_c, 0, 47, 0
2, 11034, Note_on_c, 0, 32, 0
2, 11034, Note_on_c, 0, 61, 0
2, 11040, Note_on_c, 0, 59, 85
2, 11040, Note_on_c, 0, 54, 85
2, 11040, Note_on_c, 0, 63, 85
2, 11040, Note_on_c, 0, 70, 85
2, 11424, Note_on_c, 0, 70, 0
2, 11424, Note_on_c, 0, 54, 0
2, 11424, Note_on_c, 0, 56, 0
2, 11424, Note_on_c, 0, 59, 0
2, 11424, Note_on_c, 0, 63, 0
2, 11520, Note_on_c, 0, 53, 85
2, 11520, Note_on_c, 0, 58, 85
2, 11520, Note_on_c, 0, 61, 85
2, 11520, Note_on_c, 0, 65, 85
2, 11520, Note_on_c, 0, 70, 85
2, 11520, Note_on_c, 0, 42, 85
2, 11712, Note_on_c, 0, 42, 0
2, 11712, Note_on_c, 0, 58, 0
2, 11712, Note_on_c, 0, 61, 0
2, 11712, Note_on_c, 0, 53, 0
2, 11712, Note_on_c, 0, 70, 0
2, 11712, Note_on_c, 0, 65, 0
2, 11760, Note_on_c, 0, 54, 85
2, 11760, Note_on_c, 0, 58, 85
2, 11760, Note_on_c, 0, 61, 85
2, 11760, Note_on_c, 0, 66, 85
2, 11760, Note_on_c, 0, 70, 85
2, 11760, Note_on_c, 0, 49, 85
2, 11904, Note_on_c, 0, 49, 0
2, 11904, Note_on_c, 0, 58, 0
2, 11904, Note_on_c, 0, 61, 0
2, 11904, Note_on_c, 0, 54, 0
2, 11904, Note_on_c, 0, 70, 0
2, 11904, Note_on_c, 0, 66, 0
2, 11970, Note_on_c, 0, 41, 85
2, 11970, Note_on_c, 0, 49, 85
2, 11970, Note_on_c, 0, 56, 85
2, 11970, Note_on_c, 0, 61, 85
2, 11970, Note_on_c, 0, 70, 85
2, 11994, Note_on_c, 0, 70, 0
2, 11994, Note_on_c, 0, 49, 0
2, 11994, Note_on_c, 0, 41, 0
2, 11994, Note_on_c, 0, 61, 0
2, 12000, Note_on_c, 0, 46, 85
2, 12000, Note_on_c, 0, 41, 85
2, 12000, Note_on_c, 0, 63, 85
2, 12000, Note_on_c, 0, 70, 85
2, 12192, Note_on_c, 0, 70, 0
2, 12192, Note_on_c, 0, 41, 0
2, 12192, Note_on_c, 0, 56, 0
2, 12192, Note_on_c, 0, 46, 0
2, 12192, Note_on_c, 0, 63, 0
2, 12240, Note_on_c, 0, 29, 85
2, 12240, Note_on_c, 0, 51, 85
2, 12336, Note_on_c, 0, 51, 0
2, 12336, Note_on_c, 0, 29, 0
2, 12480, Note_on_c, 0, 22, 85
2, 12480, Note_on_c, 0, 34, 85
2, 12480, Note_on_c, 0, 58, 85
2, 12480, Note_on_c, 0, 62, 85
2, 12480, Note_on_c, 0, 65, 85
2, 12480, Note_on_c, 0, 70, 85
2, 12864, Note_on_c, 0, 70, 0
2, 12864, Note_on_c, 0, 34, 0
2, 12864, Note_on_c, 0, 58, 0
2, 12864, Note_on_c, 0, 22, 0
2, 12864, Note_on_c, 0, 65, 0
2, 12864, Note_on_c, 0, 62, 0
2, 12960, Note_on_c, 0, 70, 85
2, 12960, Note_on_c, 0, 63, 85
2, 12960, Note_on_c, 0, 15, 85
2, 12960, Note_on_c, 0, 75, 85
2, 12960, Note_on_c, 0, 27, 85
2, 12960, Note_on_c, 0, 67, 85
2, 13152, Note_on_c, 0, 67, 0
2, 13152, Note_on_c, 0, 63, 0
2, 13152, Note_on_c, 0, 15, 0
2, 13152, Note_on_c, 0, 70, 0
2, 13152, Note_on_c, 0, 27, 0
2, 13152, Note_on_c, 0, 75, 0
2, 13200, Note_on_c, 0, 63, 85
2, 13200, Note_on_c, 0, 67, 85
2, 13200, Note_on_c, 0, 39, 85
2, 13200, Note_on_c, 0, 70, 85
2, 13200, Note_on_c, 0, 58, 85
2, 13200, Note_on_c, 0, 27, 85
2, 13344, Note_on_c, 0, 27, 0
2, 13344, Note_on_c, 0, 67, 0
2, 13344, Note_on_c, 0, 39, 0
2, 13344, Note_on_c, 0, 63, 0
2, 13344, Note_on_c, 0, 58, 0
2, 13344, Note_on_c, 0, 70, 0
2, 13410, Note_on_c, 0, 92, 85
2, 13410, Note_on_c, 0, 75, 85
2, 13410, Note_on_c, 0, 82, 85
2, 13410, Note_on_c, 0, 80, 85
2, 13410, Note_on_c, 0, 62, 85
2, 13410, Note_on_c, 0, 87, 85
2, 13434, Note_on_c, 0, 87, 0
2, 13434, Note_on_c, 0, 75, 0
2, 13434, Note_on_c, 0, 82, 0
2, 13434, Note_on_c, 0, 92, 0
2, 13434, Note_on_c, 0, 62, 0
2, 13434, Note_on_c, 0, 80, 0
2, 13440, Note_on_c, 0, 75, 85
2, 13440, Note_on_c, 0, 91, 85
2, 13440, Note_on_c, 0, 79, 85
2, 13440, Note_on_c, 0, 63, 85
2, 13440, Note_on_c, 0, 82, 85
2, 13440, Note_on_c, 0, 87, 85
2, 13632, Note_on_c, 0, 87, 0
2, 13632, Note_on_c, 0, 91, 0
2, 13632, Note_on_c, 0, 79, 0
2, 13632, Note_on_c, 0, 75, 0
2, 13632, Note_on_c, 0, 82, 0
2, 13632, Note_on_c, 0, 63, 0
2, 13800, Note_on_c, 0, 39, 85
2, 13800, Note_on_c, 0, 51, 85
2, 13800, Note_on_c, 0, 58, 85
2, 13800, Note_on_c, 0, 63, 85
2, 13800, Note_on_c, 0, 67, 85
2, 13800, Note_on_c, 0, 70, 85
2, 13896, Note_on_c, 0, 70, 0
2, 13896, Note_on_c, 0, 51, 0
2, 13896, Note_on_c, 0, 58, 0
2, 13896, Note_on_c, 0, 39, 0
2, 13896, Note_on_c, 0, 67, 0
2, 13896, Note_on_c, 0, 63, 0
2, 13920, Note_on_c, 0, 70, 85
2, 13920, Note_on_c, 0, 67, 85
2, 13920, Note_on_c, 0, 39, 85
2, 13920, Note_on_c, 0, 75, 85
2, 13920, Note_on_c, 0, 27, 85
2, 13920, Note_on_c, 0, 63, 85
2, 14112, Note_on_c, 0, 63, 0
2, 14112, Note_on_c, 0, 67, 0
2, 14112, Note_on_c, 0, 39, 0
2, 14112, Note_on_c, 0, 70, 0
2, 14112, Note_on_c, 0, 27, 0
2, 14112, Note_on_c, 0, 75, 0
2, 14160, Note_on_c, 0, 63, 85
2, 14160, Note_on_c, 0, 39, 85
2, 14160, Note_on_c, 0, 58, 85
2, 14160, Note_on_c, 0, 70, 85
2, 14160, Note_on_c, 0, 51, 85
2, 14160, Note_on_c, 0, 67, 85
2, 14304, Note_on_c, 0, 67, 0
2, 14304, Note_on_c, 0, 39, 0
2, 14304, Note_on_c, 0, 58, 0
2, 14304, Note_on_c, 0, 63, 0
2, 14304, Note_on_c, 0, 51, 0
2, 14304, Note_on_c, 0, 70, 0
2, 14370, Note_on_c, 0, 50, 85
2, 14370, Note_on_c, 0, 87, 85
2, 14370, Note_on_c, 0, 80, 85
2, 14370, Note_on_c, 0, 92, 85
2, 14370, Note_on_c, 0, 75, 85
2, 14370, Note_on_c, 0, 82, 85
2, 14394, Note_on_c, 0, 82, 0
2, 14394, Note_on_c, 0, 87, 0
2, 14394, Note_on_c, 0, 80, 0
2, 14394, Note_on_c, 0, 50, 0
2, 14394, Note_on_c, 0, 75, 0
2, 14394, Note_on_c, 0, 92, 0
2, 14400, Note_on_c, 0, 87, 85
2, 14400, Note_on_c, 0, 82, 85
2, 14400, Note_on_c, 0, 63, 85
2, 14400, Note_on_c, 0, 75, 85
2, 14400, Note_on_c, 0, 91, 85
2, 14400, Note_on_c, 0, 79, 85
2, 14592, Note_on_c, 0, 79, 0
2, 14592, Note_on_c, 0, 82, 0
2, 14592, Note_on_c, 0, 63, 0
2, 14592, Note_on_c, 0, 87, 0
2, 14592, Note_on_c, 0, 91, 0
2, 14592, Note_on_c, 0, 75, 0
2, 14760, Note_on_c, 0, 39, 85
2, 14760, Note_on_c, 0, 51, 85
2, 14760, Note_on_c, 0, 58, 85
2, 14760, Note_on_c, 0, 63, 85
2, 14760, Note_on_c, 0, 67, 85
2, 14760, Note_on_c, 0, 70, 85
2, 14856, Note_on_c, 0, 70, 0
2, 14856, Note_on_c, 0, 51, 0
2, 14856, Note_on_c, 0, 58, 0
2, 14856, Note_on_c, 0, 39, 0
2, 14856, Note_on_c, 0, 67, 0
2, 14856, Note_on_c, 0, 63, 0
2, 14880, Note_on_c, 0, 63, 85
2, 14880, Note_on_c, 0, 68, 85
2, 14880, Note_on_c, 0, 27, 85
2, 14880, Note_on_c, 0, 75, 85
2, 14880, Note_on_c, 0, 39, 85
2, 14880, Note_on_c, 0, 70, 85
2, 15072, Note_on_c, 0, 70, 0
2, 15072, Note_on_c, 0, 68, 0
2, 15072, Note_on_c, 0, 27, 0
2, 15072, Note_on_c, 0, 63, 0
2, 15072, Note_on_c, 0, 39, 0
2, 15072, Note_on_c, 0, 75, 0
2, 15120, Note_on_c, 0, 51, 85
2, 15120, Note_on_c, 0, 68, 85
2, 15120, Note_on_c, 0, 58, 85
2, 15120, Note_on_c, 0, 70, 85
2, 15120, Note_on_c, 0, 63, 85
2, 15120, Note_on_c, 0, 39, 85
2, 15264, Note_on_c, 0, 39, 0
2, 15264, Note_on_c, 0, 68, 0
2, 15264, Note_on_c, 0, 58, 0
2, 15264, Note_on_c, 0, 51, 0
2, 15264, Note_on_c, 0, 63, 0
2, 15264, Note_on_c, 0, 70, 0
2, 15330, Note_on_c, 0, 87, 85
2, 15330, Note_on_c, 0, 63, 85
2, 15354, Note_on_c, 0, 63, 0
2, 15354, Note_on_c, 0, 87, 0
2, 15360, Note_on_c, 0, 70, 85
2, 15360, Note_on_c, 0, 58, 85
2, 15360, Note_on_c, 0, 82, 85
2, 15360, Note_on_c, 0, 94, 85
2, 15552, Note_on_c, 0, 94, 0
2, 15552, Note_on_c, 0, 70, 0
2, 15552, Note_on_c, 0, 58, 0
2, 15552, Note_on_c, 0, 82, 0
2, 15720, Note_on_c, 0, 34, 85
2, 15720, Note_on_c, 0, 46, 85
2, 15720, Note_on_c, 0, 58, 85
2, 15816, Note_on_c, 0, 58, 0
2, 15816, Note_on_c, 0, 46, 0
2, 15816, Note_on_c, 0, 34, 0
2, 15840, Note_on_c, 0, 70, 85
2, 15840, Note_on_c, 0, 58, 85
2, 16128, Note_on_c, 0, 70, 0
2, 16200, Note_on_c, 0, 82, 85
2, 16224, Note_on_c, 0, 58, 0
2, 16296, Note_on_c, 0, 82, 0
2, 16320, Note_on_c, 0, 70, 85
2, 16320, Note_on_c, 0, 94, 85
2, 16704, Note_on_c, 0, 94, 0
2, 16704, Note_on_c, 0, 70, 0
2, 16800, Note_on_c, 0, 42, 85
2, 16800, Note_on_c, 0, 78, 85
2, 16800, Note_on_c, 0, 30, 85
2, 16848, Note_on_c, 0, 30, 0
2, 16848, Note_on_c, 0, 42, 0
2, 16860, Note_on_c, 0, 64, 85
2, 16860, Note_on_c, 0, 61, 85
2, 16860, Note_on_c, 0, 58, 85
2, 16896, Note_on_c, 0, 78, 0
2, 16908, Note_on_c, 0, 64, 0
2, 16908, Note_on_c, 0, 61, 0
2, 16908, Note_on_c, 0, 58, 0
2, 16920, Note_on_c, 0, 54, 85
2, 16920, Note_on_c, 0, 58, 85
2, 16920, Note_on_c, 0, 90, 85
2, 16920, Note_on_c, 0, 61, 85
2, 16968, Note_on_c, 0, 61, 0
2, 16968, Note_on_c, 0, 54, 0
2, 16968, Note_on_c, 0, 58, 0
2, 16980, Note_on_c, 0, 57, 85
2, 16980, Note_on_c, 0, 64, 85
2, 16980, Note_on_c, 0, 61, 85
2, 17028, Note_on_c, 0, 61, 0
2, 17028, Note_on_c, 0, 64, 0
2, 17028, Note_on_c, 0, 57, 0
2, 17040, Note_on_c, 0, 57, 85
2, 17040, Note_on_c, 0, 61, 85
2, 17040, Note_on_c, 0, 55, 85
2, 17088, Note_on_c, 0, 55, 0
2, 17088, Note_on_c, 0, 90, 0
2, 17088, Note_on_c, 0, 57, 0
2, 17088, Note_on_c, 0, 61, 0
2, 17100, Note_on_c, 0, 57, 85
2, 17100, Note_on_c, 0, 61, 85
2, 17100, Note_on_c, 0, 88, 85
2, 17100, Note_on_c, 0, 64, 85
2, 17148, Note_on_c, 0, 64, 0
2, 17148, Note_on_c, 0, 57, 0
2, 17148, Note_on_c, 0, 61, 0
2, 17148, Note_on_c, 0, 88, 0
2, 17160, Note_on_c, 0, 85, 85
2, 17160, Note_on_c, 0, 61, 85
2, 17160, Note_on_c, 0, 52, 85
2, 17160, Note_on_c, 0, 58, 85
2, 17208, Note_on_c, 0, 58, 0
2, 17208, Note_on_c, 0, 85, 0
2, 17208, Note_on_c, 0, 61, 0
2, 17208, Note_on_c, 0, 52, 0
2, 17220, Note_on_c, 0, 61, 85
2, 17220, Note_on_c, 0, 64, 85
2, 17220, Note_on_c, 0, 82, 85
2, 17220, Note_on_c, 0, 58, 85
2, 17268, Note_on_c, 0, 58, 0
2, 17268, Note_on_c, 0, 61, 0
2, 17268, Note_on_c, 0, 64, 0
2, 17268, Note_on_c, 0, 82, 0
2, 17280, Note_on_c, 0, 58, 85
2, 17280, Note_on_c, 0, 61, 85
2, 17280, Note_on_c, 0, 79, 85
2, 17280, Note_on_c, 0, 54, 85
2, 17328, Note_on_c, 0, 54, 0
2, 17328, Note_on_c, 0, 58, 0
2, 17328, Note_on_c, 0, 61, 0
2, 17328, Note_on_c, 0, 79, 0
2, 17340, Note_on_c, 0, 64, 85
2, 17340, Note_on_c, 0, 61, 85
2, 17340, Note_on_c, 0, 78, 85
2, 17340, Note_on_c, 0, 57, 85
2, 17388, Note_on_c, 0, 57, 0
2, 17388, Note_on_c, 0, 64, 0
2, 17388, Note_on_c, 0, 61, 0
2, 17388, Note_on_c, 0, 78, 0
2, 17400, Note_on_c, 0, 57, 85
2, 17400, Note_on_c, 0, 76, 85
2, 17400, Note_on_c, 0, 55, 85
2, 17400, Note_on_c, 0, 61, 85
2, 17448, Note_on_c, 0, 61, 0
2, 17448, Note_on_c, 0, 55, 0
2, 17448, Note_on_c, 0, 57, 0
2, 17460, Note_on_c, 0, 61, 85
2, 17460, Note_on_c, 0, 58, 85
2, 17460, Note_on_c, 0, 64, 85
2, 17508, Note_on_c, 0, 64, 0
2, 17508, Note_on_c, 0, 58, 0
2, 17508, Note_on_c, 0, 61, 0
2, 17520, Note_on_c, 0, 58, 85
2, 17520, Note_on_c, 0, 61, 85
2, 17520, Note_on_c, 0, 54, 85
2, 17568, Note_on_c, 0, 54, 0
2, 17568, Note_on_c, 0, 76, 0
2, 17568, Note_on_c, 0, 58, 0
2, 17568, Note_on_c, 0, 61, 0
2, 17580, Note_on_c, 0, 79, 85
2, 17580, Note_on_c, 0, 58, 85
2, 17580, Note_on_c, 0, 61, 85
2, 17580, Note_on_c, 0, 64, 85
2, 17628, Note_on_c, 0, 64, 0
2, 17628, Note_on_c, 0, 79, 0
2, 17628, Note_on_c, 0, 58, 0
2, 17628, Note_on_c, 0, 61, 0
2, 17640, Note_on_c, 0, 78, 85
2, 17640, Note_on_c, 0, 55, 85
2, 17640, Note_on_c, 0, 58, 85
2, 17640, Note_on_c, 0, 61, 85
2, 17688, Note_on_c, 0, 61, 0
2, 17688, Note_on_c, 0, 78, 0
2, 17688, Note_on_c, 0, 55, 0
2, 17688, Note_on_c, 0, 58, 0
2, 17700, Note_on_c, 0, 76, 85
2, 17700, Note_on_c, 0, 61, 85
2, 17700, Note_on_c, 0, 58, 85
2, 17700, Note_on_c, 0, 64, 85
2, 17748, Note_on_c, 0, 64, 0
2, 17748, Note_on_c, 0, 76, 0
2, 17748, Note_on_c, 0, 61, 0
2, 17748, Note_on_c, 0, 58, 0
2, 17760, Note_on_c, 0, 42, 85
2, 17760, Note_on_c, 0, 74, 85
2, 17760, Note_on_c, 0, 30, 85
2, 17808, Note_on_c, 0, 30, 0
2, 17808, Note_on_c, 0, 74, 0
2, 17808, Note_on_c, 0, 42, 0
2, 17820, Note_on_c, 0, 62, 85
2, 17820, Note_on_c, 0, 78, 85
2, 17820, Note_on_c, 0, 59, 85
2, 17868, Note_on_c, 0, 59, 0
2, 17868, Note_on_c, 0, 78, 0
2, 17868, Note_on_c, 0, 62, 0
2, 17880, Note_on_c, 0, 83, 85
2, 17880, Note_on_c, 0, 59, 85
2, 17880, Note_on_c, 0, 54, 85
2, 17928, Note_on_c, 0, 54, 0
2, 17928, Note_on_c, 0, 59, 0
2, 17940, Note_on_c, 0, 62, 85
2, 17940, Note_on_c, 0, 59, 85
2, 17976, Note_on_c, 0, 83, 0
2, 17988, Note_on_c, 0, 59, 0
2, 17988, Note_on_c, 0, 62, 0
2, 18000, Note_on_c, 0, 50, 85
2, 18000, Note_on_c, 0, 59, 85
2, 18030, Note_on_c, 0, 82, 85
2, 18048, Note_on_c, 0, 59, 0
2, 18048, Note_on_c, 0, 50, 0
2, 18054, Note_on_c, 0, 82, 0
2, 18060, Note_on_c, 0, 83, 85
2, 18060, Note_on_c, 0, 62, 85
2, 18060, Note_on_c, 0, 59, 85
2, 18084, Note_on_c, 0, 83, 0
2, 18090, Note_on_c, 0, 85, 85
2, 18108, Note_on_c, 0, 59, 0
2, 18108, Note_on_c, 0, 62, 0
2, 18114, Note_on_c, 0, 85, 0
2, 18120, Note_on_c, 0, 88, 85
2, 18120, Note_on_c, 0, 54, 85
2, 18120, Note_on_c, 0, 59, 85
2, 18144, Note_on_c, 0, 88, 0
2, 18150, Note_on_c, 0, 86, 85
2, 18168, Note_on_c, 0, 59, 0
2, 18168, Note_on_c, 0, 54, 0
2, 18174, Note_on_c, 0, 86, 0
2, 18180, Note_on_c, 0, 85, 85
2, 18180, Note_on_c, 0, 62, 85
2, 18180, Note_on_c, 0, 59, 85
2, 18204, Note_on_c, 0, 85, 0
2, 18210, Note_on_c, 0, 83, 85
2, 18228, Note_on_c, 0, 59, 0
2, 18228, Note_on_c, 0, 62, 0
2, 18234, Note_on_c, 0, 83, 0
2, 18240, Note_on_c, 0, 59, 85
2, 18240, Note_on_c, 0, 55, 85
2, 18240, Note_on_c, 0, 82, 85
2, 18264, Note_on_c, 0, 82, 0
2, 18270, Note_on_c, 0, 83, 85
2, 18288, Note_on_c, 0, 55, 0
2, 18288, Note_on_c, 0, 59, 0
2, 18294, Note_on_c, 0, 83, 0
2, 18300, Note_on_c, 0, 59, 85
2, 18300, Note_on_c, 0, 85, 85
2, 18300, Note_on_c, 0, 62, 85
2, 18324, Note_on_c, 0, 85, 0
2, 18330, Note_on_c, 0, 86, 85
2, 18348, Note_on_c, 0, 62, 0
2, 18348, Note_on_c, 0, 59, 0
2, 18354, Note_on_c, 0, 86, 0
2, 18360, Note_on_c, 0, 83, 85
2, 18360, Note_on_c, 0, 54, 85
2, 18360, Note_on_c, 0, 59, 85
2, 18384, Note_on_c, 0, 83, 0
2, 18390, Note_on_c, 0, 78, 85
2, 18408, Note_on_c, 0, 59, 0
2, 18408, Note_on_c, 0, 54, 0
2, 18414, Note_on_c, 0, 78, 0
2, 18420, Note_on_c, 0, 62, 85
2, 18420, Note_on_c, 0, 59, 85
2, 18420, Note_on_c, 0, 83, 85
2, 18444, Note_on_c, 0, 83, 0
2, 18450, Note_on_c, 0, 81, 85
2, 18468, Note_on_c, 0, 59, 0
2, 18468, Note_on_c, 0, 62, 0
2, 18474, Note_on_c, 0, 81, 0
2, 18480, Note_on_c, 0, 79, 85
2, 18480, Note_on_c, 0, 50, 85
2, 18480, Note_on_c, 0, 59, 85
2, 18504, Note_on_c, 0, 79, 0
2, 18510, Note_on_c, 0, 78, 85
2, 18528, Note_on_c, 0, 59, 0
2, 18528, Note_on_c, 0, 50, 0
2, 18534, Note_on_c, 0, 78, 0
2, 18540, Note_on_c, 0, 76, 85
2, 18540, Note_on_c, 0, 59, 85
2, 18540, Note_on_c, 0, 62, 85
2, 18564, Note_on_c, 0, 76, 0
2, 18570, Note_on_c, 0, 74, 85
2, 18588, Note_on_c, 0, 62, 0
2, 18588, Note_on_c, 0, 59, 0
2, 18594, Note_on_c, 0, 74, 0
2, 18600, Note_on_c, 0, 78, 85
2, 18600, Note_on_c, 0, 59, 85
2, 18600, Note_on_c, 0, 54, 85
2, 18624, Note_on_c, 0, 78, 0
2, 18630, Note_on_c, 0, 76, 85
2, 18648, Note_on_c, 0, 54, 0
2, 18648, Note_on_c, 0, 59, 0
2, 18654, Note_on_c, 0, 76, 0
2, 18660, Note_on_c, 0, 72, 85
2, 18660, Note_on_c, 0, 59, 85
2, 18660, Note_on_c, 0, 62, 85
2, 18684, Note_on_c, 0, 72, 0
2, 18690, Note_on_c, 0, 71, 85
2, 18708, Note_on_c, 0, 62, 0
2, 18708, Note_on_c, 0, 59, 0
2, 18714, Note_on_c, 0, 71, 0
2, 18720, Note_on_c, 0, 42, 85
2, 18720, Note_on_c, 0, 30, 85
2, 18720, Note_on_c, 0, 70, 85
2, 18768, Note_on_c, 0, 30, 0
2, 18768, Note_on_c, 0, 42, 0
2, 18780, Note_on_c, 0, 64, 85
2, 18780, Note_on_c, 0, 61, 85
2, 18828, Note_on_c, 0, 61, 0
2, 18828, Note_on_c, 0, 64, 0
2, 18840, Note_on_c, 0, 54, 85
2, 18840, Note_on_c, 0, 61, 85
2, 18864, Note_on_c, 0, 70, 0
2, 18888, Note_on_c, 0, 61, 0
2, 18888, Note_on_c, 0, 54, 0
2, 18900, Note_on_c, 0, 79, 85
2, 18900, Note_on_c, 0, 64, 85
2, 18900, Note_on_c, 0, 61, 85
2, 18900, Note_on_c, 0, 55, 85
2, 18948, Note_on_c, 0, 55, 0
2, 18948, Note_on_c, 0, 79, 0
2, 18948, Note_on_c, 0, 64, 0
2, 18948, Note_on_c, 0, 61, 0
2, 18960, Note_on_c, 0, 58, 85
2, 18960, Note_on_c, 0, 64, 85
2, 18960, Note_on_c, 0, 78, 85
2, 18960, Note_on_c, 0, 61, 85
2, 19008, Note_on_c, 0, 61, 0
2, 19008, Note_on_c, 0, 58, 0
2, 19008, Note_on_c, 0, 64, 0
2, 19008, Note_on_c, 0, 78, 0
2, 19020, Note_on_c, 0, 76, 85
2, 19020, Note_on_c, 0, 57, 85
2, 19068, Note_on_c, 0, 57, 0
2, 19068, Note_on_c, 0, 76, 0
2, 19080, Note_on_c, 0, 74, 85
2, 19080, Note_on_c, 0, 55, 85
2, 19128, Note_on_c, 0, 55, 0
2, 19128, Note_on_c, 0, 74, 0
2, 19140, Note_on_c, 0, 73, 85
2, 19140, Note_on_c, 0, 54, 85
2, 19188, Note_on_c, 0, 54, 0
2, 19188, Note_on_c, 0, 73, 0
2, 19200, Note_on_c, 0, 42, 85
2, 19200, Note_on_c, 0, 71, 85
2, 19248, Note_on_c, 0, 71, 0
2, 19248, Note_on_c, 0, 42, 0
2, 19260, Note_on_c, 0, 59, 85
2, 19260, Note_on_c, 0, 62, 85
2, 19260, Note_on_c, 0, 74, 85
2, 19308, Note_on_c, 0, 74, 0
2, 19308, Note_on_c, 0, 62, 0
2, 19308, Note_on_c, 0, 59, 0
2, 19320, Note_on_c, 0, 59, 85
2, 19320, Note_on_c, 0, 54, 85
2, 19320, Note_on_c, 0, 78, 85
2, 19368, Note_on_c, 0, 54, 0
2, 19368, Note_on_c, 0, 59, 0
2, 19380, Note_on_c, 0, 62, 85
2, 19380, Note_on_c, 0, 59, 85
2, 19428, Note_on_c, 0, 59, 0
2, 19428, Note_on_c, 0, 62, 0
2, 19440, Note_on_c, 0, 50, 85
2, 19440, Note_on_c, 0, 59, 85
2, 19488, Note_on_c, 0, 59, 0
2, 19488, Note_on_c, 0, 50, 0
2, 19488, Note_on_c, 0, 78, 0
2, 19500, Note_on_c, 0, 83, 85
2, 19500, Note_on_c, 0, 62, 85
2, 19500, Note_on_c, 0, 59, 85
2, 19548, Note_on_c, 0, 59, 0
2, 19548, Note_on_c, 0, 62, 0
2, 19548, Note_on_c, 0, 83, 0
2, 19560, Note_on_c, 0, 86, 85
2, 19560, Note_on_c, 0, 54, 85
2, 19560, Note_on_c, 0, 59, 85
2, 19608, Note_on_c, 0, 59, 0
2, 19608, Note_on_c, 0, 54, 0
2, 19608, Note_on_c, 0, 86, 0
2, 19620, Note_on_c, 0, 85, 85
2, 19620, Note_on_c, 0, 62, 85
2, 19620, Note_on_c, 0, 59, 85
2, 19668, Note_on_c, 0, 59, 0
2, 19668, Note_on_c, 0, 62, 0
2, 19668, Note_on_c, 0, 85, 0
2, 19680, Note_on_c, 0, 84, 85
2, 19680, Note_on_c, 0, 32, 85
2, 19680, Note_on_c, 0, 44, 85
2, 19704, Note_on_c, 0, 84, 0
2, 19710, Note_on_c, 0, 72, 85
2, 19728, Note_on_c, 0, 44, 0
2, 19728, Note_on_c, 0, 32, 0
2, 19734, Note_on_c, 0, 72, 0
2, 19740, Note_on_c, 0, 65, 85
2, 19740, Note_on_c, 0, 60, 85
2, 19740, Note_on_c, 0, 77, 85
2, 19764, Note_on_c, 0, 77, 0
2, 19770, Note_on_c, 0, 79, 85
2, 19788, Note_on_c, 0, 60, 0
2, 19788, Note_on_c, 0, 65, 0
2, 19794, Note_on_c, 0, 79, 0
2, 19800, Note_on_c, 0, 82, 85
2, 19800, Note_on_c, 0, 56, 85
2, 19800, Note_on_c, 0, 60, 85
2, 19824, Note_on_c, 0, 82, 0
2, 19830, Note_on_c, 0, 80, 85
2, 19848, Note_on_c, 0, 60, 0
2, 19848, Note_on_c, 0, 56, 0
2, 19854, Note_on_c, 0, 80, 0
2, 19860, Note_on_c, 0, 65, 85
2, 19860, Note_on_c, 0, 60, 85
2, 19860, Note_on_c, 0, 79, 85
2, 19884, Note_on_c, 0, 79, 0
2, 19890, Note_on_c, 0, 77, 85
2, 19908, Note_on_c, 0, 60, 0
2, 19908, Note_on_c, 0, 65, 0
2, 19914, Note_on_c, 0, 77, 0
2, 19920, Note_on_c, 0, 60, 85
2, 19920, Note_on_c, 0, 55, 85
2, 19920, Note_on_c, 0, 76, 85
2, 19944, Note_on_c, 0, 76, 0
2, 19950, Note_on_c, 0, 77, 85
2, 19968, Note_on_c, 0, 55, 0
2, 19968, Note_on_c, 0, 60, 0
2, 19974, Note_on_c, 0, 77, 0
2, 19980, Note_on_c, 0, 60, 85
2, 19980, Note_on_c, 0, 65, 85
2, 19980, Note_on_c, 0, 79, 85
2, 20004, Note_on_c, 0, 79, 0
2, 20010, Note_on_c, 0, 80, 85
2, 20028, Note_on_c, 0, 65, 0
2, 20028, Note_on_c, 0, 60, 0
2, 20034, Note_on_c, 0, 80, 0
2, 20040, Note_on_c, 0, 77, 85
2, 20040, Note_on_c, 0, 61, 85
2, 20040, Note_on_c, 0, 56, 85
2, 20064, Note_on_c, 0, 77, 0
2, 20070, Note_on_c, 0, 73, 85
2, 20094, Note_on_c, 0, 73, 0
2, 20100, Note_on_c, 0, 68, 85
2, 20124, Note_on_c, 0, 68, 0
2, 20130, Note_on_c, 0, 65, 85
2, 20136, Note_on_c, 0, 56, 0
2, 20136, Note_on_c, 0, 61, 0
2, 20154, Note_on_c, 0, 65, 0
2, 20160, Note_on_c, 0, 44, 85
2, 20160, Note_on_c, 0, 32, 85
2, 20160, Note_on_c, 0, 72, 85
2, 20208, Note_on_c, 0, 72, 0
2, 20208, Note_on_c, 0, 32, 0
2, 20208, Note_on_c, 0, 44, 0
2, 20220, Note_on_c, 0, 60, 85
2, 20220, Note_on_c, 0, 53, 85
2, 20244, Note_on_c, 0, 53, 0
2, 20250, Note_on_c, 0, 56, 85
2, 20268, Note_on_c, 0, 60, 0
2, 20274, Note_on_c, 0, 56, 0
2, 20280, Note_on_c, 0, 60, 85
2, 20280, Note_on_c, 0, 65, 85
2, 20304, Note_on_c, 0, 60, 0
2, 20310, Note_on_c, 0, 63, 85
2, 20328, Note_on_c, 0, 65, 0
2, 20334, Note_on_c, 0, 63, 0
2, 20340, Note_on_c, 0, 68, 85
2, 20340, Note_on_c, 0, 61, 85
2, 20364, Note_on_c, 0, 61, 0
2, 20370, Note_on_c, 0, 60, 85
2, 20388, Note_on_c, 0, 68, 0
2, 20394, Note_on_c, 0, 60, 0
2, 20400, Note_on_c, 0, 71, 85
2, 20400, Note_on_c, 0, 59, 85
2, 20424, Note_on_c, 0, 59, 0
2, 20430, Note_on_c, 0, 61, 85
2, 20448, Note_on_c, 0, 71, 0
2, 20454, Note_on_c, 0, 61, 0
2, 20460, Note_on_c, 0, 62, 85
2, 20460, Note_on_c, 0, 56, 85
2, 20484, Note_on_c, 0, 56, 0
2, 20490, Note_on_c, 0, 60, 85
2, 20508, Note_on_c, 0, 62, 0
2, 20514, Note_on_c, 0, 60, 0
2, 20520, Note_on_c, 0, 67, 85
2, 20520, Note_on_c, 0, 53, 85
2, 20544, Note_on_c, 0, 53, 0
2, 20550, Note_on_c, 0, 59, 85
2, 20568, Note_on_c, 0, 67, 0
2, 20574, Note_on_c, 0, 59, 0
2, 20580, Note_on_c, 0, 65, 85
2, 20580, Note_on_c, 0, 50, 85
2, 20604, Note_on_c, 0, 50, 0
2, 20610, Note_on_c, 0, 56, 85
2, 20628, Note_on_c, 0, 65, 0
2, 20634, Note_on_c, 0, 56, 0
2, 20640, Note_on_c, 0, 40, 85
2, 20640, Note_on_c, 0, 72, 85
2, 20688, Note_on_c, 0, 72, 0
2, 20700, Note_on_c, 0, 60, 85
2, 20700, Note_on_c, 0, 67, 85
2, 20736, Note_on_c, 0, 40, 0
2, 20748, Note_on_c, 0, 67, 0
2, 20748, Note_on_c, 0, 60, 0
2, 20760, Note_on_c, 0, 79, 85
2, 20760, Note_on_c, 0, 52, 85
2, 20760, Note_on_c, 0, 60, 85
2, 20808, Note_on_c, 0, 60, 0
2, 20808, Note_on_c, 0, 52, 0
2, 20820, Note_on_c, 0, 64, 85
2, 20820, Note_on_c, 0, 60, 85
2, 20868, Note_on_c, 0, 60, 0
2, 20868, Note_on_c, 0, 64, 0
2, 20880, Note_on_c, 0, 55, 85
2, 20880, Note_on_c, 0, 60, 85
2, 20928, Note_on_c, 0, 60, 0
2, 20928, Note_on_c, 0, 55, 0
2, 20928, Note_on_c, 0, 79, 0
2, 20940, Note_on_c, 0, 64, 85
2, 20940, Note_on_c, 0, 76, 85
2, 20940, Note_on_c, 0, 60, 85
2, 20988, Note_on_c, 0, 60, 0
2, 20988, Note_on_c, 0, 76, 0
2, 20988, Note_on_c, 0, 64, 0
2, 21000, Note_on_c, 0, 59, 85
2, 21000, Note_on_c, 0, 72, 85
2, 21048, Note_on_c, 0, 72, 0
2, 21060, Note_on_c, 0, 71, 85
2, 21096, Note_on_c, 0, 59, 0
2, 21108, Note_on_c, 0, 71, 0
2, 21120, Note_on_c, 0, 28, 85
2, 21120, Note_on_c, 0, 70, 85
2, 21180, Note_on_c, 0, 61, 85
2, 21180, Note_on_c, 0, 66, 85
2, 21216, Note_on_c, 0, 28, 0
2, 21240, Note_on_c, 0, 66, 85
2, 21288, Note_on_c, 0, 70, 0
2, 21288, Note_on_c, 0, 66, 0
2, 21288, Note_on_c, 0, 61, 0
2, 21300, Note_on_c, 0, 61, 85
2, 21348, Note_on_c, 0, 61, 0
2, 21408, Note_on_c, 0, 66, 0
2, 21420, Note_on_c, 0, 66, 85
2, 21420, Note_on_c, 0, 61, 85
2, 21468, Note_on_c, 0, 61, 0
2, 21480, Note_on_c, 0, 58, 85
2, 21516, Note_on_c, 0, 66, 0
2, 21528, Note_on_c, 0, 58, 0
2, 21540, Note_on_c, 0, 66, 85
2, 21540, Note_on_c, 0, 54, 85
2, 21588, Note_on_c, 0, 54, 0
2, 21588, Note_on_c, 0, 66, 0
2, 21600, Note_on_c, 0, 38, 85
2, 21648, Note_on_c, 0, 38, 0
2, 21660, Note_on_c, 0, 66, 85
2, 21660, Note_on_c, 0, 70, 85
2, 21660, Note_on_c, 0, 62, 85
2, 21708, Note_on_c, 0, 62, 0
2, 21708, Note_on_c, 0, 70, 0
2, 21708, Note_on_c, 0, 66, 0
2, 21720, Note_on_c, 0, 59, 85
2, 21720, Note_on_c, 0, 71, 85
2, 21768, Note_on_c, 0, 71, 0
2, 21768, Note_on_c, 0, 59, 0
2, 21780, Note_on_c, 0, 73, 85
2, 21780, Note_on_c, 0, 55, 85
2, 21828, Note_on_c, 0, 55, 0
2, 21828, Note_on_c, 0, 73, 0
2, 21840, Note_on_c, 0, 65, 85
2, 21840, Note_on_c, 0, 43, 85
2, 21840, Note_on_c, 0, 76, 85
2, 21888, Note_on_c, 0, 76, 0
2, 21888, Note_on_c, 0, 43, 0
2, 21888, Note_on_c, 0, 65, 0
2, 21900, Note_on_c, 0, 59, 85
2, 21900, Note_on_c, 0, 74, 85
2, 21948, Note_on_c, 0, 74, 0
2, 21948, Note_on_c, 0, 59, 0
2, 21960, Note_on_c, 0, 55, 85
2, 21960, Note_on_c, 0, 67, 85
2, 22008, Note_on_c, 0, 67, 0
2, 22008, Note_on_c, 0, 55, 0
2, 22020, Note_on_c, 0, 50, 85
2, 22020, Note_on_c, 0, 69, 85
2, 22068, Note_on_c, 0, 69, 0
2, 22068, Note_on_c, 0, 50, 0
2, 22080, Note_on_c, 0, 70, 85
2, 22080, Note_on_c, 0, 58, 85
2, 22080, Note_on_c, 0, 63, 85
2, 22080, Note_on_c, 0, 36, 85
2, 22128, Note_on_c, 0, 63, 0
2, 22128, Note_on_c, 0, 58, 0
2, 22140, Note_on_c, 0, 58, 85
2, 22176, Note_on_c, 0, 36, 0
2, 22188, Note_on_c, 0, 70, 0
2, 22200, Note_on_c, 0, 66, 85
2, 22248, Note_on_c, 0, 66, 0
2, 22248, Note_on_c, 0, 58, 0
2, 22260, Note_on_c, 0, 58, 85
2, 22308, Note_on_c, 0, 58, 0
2, 22320, Note_on_c, 0, 58, 85
2, 22380, Note_on_c, 0, 58, 85
2, 22416, Note_on_c, 0, 58, 0
2, 22428, Note_on_c, 0, 58, 0
2, 22440, Note_on_c, 0, 63, 85
2, 22440, Note_on_c, 0, 54, 85
2, 22488, Note_on_c, 0, 63, 0
2, 22500, Note_on_c, 0, 58, 85
2, 22536, Note_on_c, 0, 54, 0
2, 22548, Note_on_c, 0, 58, 0
2, 22560, Note_on_c, 0, 52, 85
2, 22560, Note_on_c, 0, 68, 85
2, 22560, Note_on_c, 0, 71, 85
2, 22560, Note_on_c, 0, 40, 85
2, 22560, Note_on_c, 0, 63, 85
2, 22608, Note_on_c, 0, 63, 0
2, 22608, Note_on_c, 0, 68, 0
2, 22620, Note_on_c, 0, 63, 85
2, 22620, Note_on_c, 0, 68, 85
2, 22656, Note_on_c, 0, 52, 0
2, 22656, Note_on_c, 0, 40, 0
2, 22716, Note_on_c, 0, 63, 0
2, 22716, Note_on_c, 0, 68, 0
2, 22740, Note_on_c, 0, 68, 85
2, 22740, Note_on_c, 0, 63, 85
2, 22788, Note_on_c, 0, 63, 0
2, 22788, Note_on_c, 0, 68, 0
2, 22800, Note_on_c, 0, 67, 85
2, 22800, Note_on_c, 0, 62, 85
2, 22848, Note_on_c, 0, 62, 0
2, 22848, Note_on_c, 0, 67, 0
2, 22848, Note_on_c, 0, 71, 0
2, 22860, Note_on_c, 0, 72, 85
2, 22908, Note_on_c, 0, 72, 0
2, 22920, Note_on_c, 0, 72, 85
2, 22920, Note_on_c, 0, 67, 85
2, 22920, Note_on_c, 0, 45, 85
2, 22920, Note_on_c, 0, 62, 85
2, 22920, Note_on_c, 0, 33, 85
2, 22968, Note_on_c, 0, 62, 0
2, 22968, Note_on_c, 0, 67, 0
2, 22968, Note_on_c, 0, 72, 0
2, 22980, Note_on_c, 0, 71, 85
2, 23016, Note_on_c, 0, 45, 0
2, 23016, Note_on_c, 0, 33, 0
2, 23028, Note_on_c, 0, 71, 0
2, 23040, Note_on_c, 0, 61, 85
2, 23040, Note_on_c, 0, 71, 85
2, 23040, Note_on_c, 0, 66, 85
2, 23040, Note_on_c, 0, 38, 85
2, 23040, Note_on_c, 0, 50, 85
2, 23088, Note_on_c, 0, 66, 0
2, 23088, Note_on_c, 0, 61, 0
2, 23088, Note_on_c, 0, 71, 0
2, 23100, Note_on_c, 0, 69, 85
2, 23136, Note_on_c, 0, 38, 0
2, 23136, Note_on_c, 0, 50, 0
2, 23148, Note_on_c, 0, 69, 0
2, 23160, Note_on_c, 0, 76, 85
2, 23160, Note_on_c, 0, 65, 85
2, 23160, Note_on_c, 0, 69, 85
2, 23160, Note_on_c, 0, 60, 85
2, 23208, Note_on_c, 0, 60, 0
2, 23208, Note_on_c, 0, 69, 0
2, 23208, Note_on_c, 0, 65, 0
2, 23220, Note_on_c, 0, 71, 85
2, 23256, Note_on_c, 0, 76, 0
2, 23268, Note_on_c, 0, 71, 0
2, 23280, Note_on_c, 0, 64, 85
2, 23280, Note_on_c, 0, 69, 85
2, 23280, Note_on_c, 0, 72, 85
2, 23280, Note_on_c, 0, 88, 85
2, 23328, Note_on_c, 0, 72, 0
2, 23328, Note_on_c, 0, 64, 0
2, 23328, Note_on_c, 0, 69, 0
2, 23340, Note_on_c, 0, 64, 85
2, 23340, Note_on_c, 0, 69, 85
2, 23376, Note_on_c, 0, 88, 0
2, 23400, Note_on_c, 0, 59, 85
2, 23436, Note_on_c, 0, 69, 0
2, 23436, Note_on_c, 0, 64, 0
2, 23460, Note_on_c, 0, 64, 85
2, 23460, Note_on_c, 0, 69, 85
2, 23496, Note_on_c, 0, 59, 0
2, 23508, Note_on_c, 0, 69, 0
2, 23508, Note_on_c, 0, 64, 0
2, 23520, Note_on_c, 0, 71, 85
2, 23520, Note_on_c, 0, 63, 85
2, 23520, Note_on_c, 0, 52, 85
2, 23520, Note_on_c, 0, 68, 85
2, 23568, Note_on_c, 0, 68, 0
2, 23568, Note_on_c, 0, 71, 0
2, 23568, Note_on_c, 0, 63, 0
2, 23580, Note_on_c, 0, 63, 85
2, 23580, Note_on_c, 0, 68, 85
2, 23616, Note_on_c, 0, 52, 0
2, 23676, Note_on_c, 0, 68, 0
2, 23676, Note_on_c, 0, 63, 0
2, 23700, Note_on_c, 0, 68, 85
2, 23700, Note_on_c, 0, 63, 85
2, 23700, Note_on_c, 0, 72, 85
2, 23748, Note_on_c, 0, 72, 0
2, 23748, Note_on_c, 0, 63, 0
2, 23748, Note_on_c, 0, 68, 0
2, 23760, Note_on_c, 0, 62, 85
2, 23760, Note_on_c, 0, 67, 85
2, 23760, Note_on_c, 0, 72, 85
2, 23808, Note_on_c, 0, 72, 0
2, 23808, Note_on_c, 0, 67, 0
2, 23808, Note_on_c, 0, 62, 0
2, 23820, Note_on_c, 0, 71, 85
2, 23868, Note_on_c, 0, 71, 0
2, 23880, Note_on_c, 0, 45, 85
2, 23880, Note_on_c, 0, 71, 85
2, 23880, Note_on_c, 0, 67, 85
2, 23880, Note_on_c, 0, 62, 85
2, 23880, Note_on_c, 0, 33, 85
2, 23928, Note_on_c, 0, 62, 0
2, 23928, Note_on_c, 0, 67, 0
2, 23928, Note_on_c, 0, 71, 0
2, 23940, Note_on_c, 0, 76, 85
2, 23976, Note_on_c, 0, 45, 0
2, 23976, Note_on_c, 0, 33, 0
2, 23988, Note_on_c, 0, 76, 0
2, 24000, Note_on_c, 0, 38, 85
2, 24000, Note_on_c, 0, 61, 85
2, 24000, Note_on_c, 0, 66, 85
2, 24000, Note_on_c, 0, 71, 85
2, 24048, Note_on_c, 0, 71, 0
2, 24048, Note_on_c, 0, 66, 0
2, 24048, Note_on_c, 0, 61, 0
2, 24060, Note_on_c, 0, 66, 85
2, 24060, Note_on_c, 0, 61, 85
2, 24096, Note_on_c, 0, 38, 0
2, 24120, Note_on_c, 0, 57, 85
2, 24156, Note_on_c, 0, 61, 0
2, 24156, Note_on_c, 0, 66, 0
2, 24180, Note_on_c, 0, 60, 85
2, 24180, Note_on_c, 0, 66, 85
2, 24216, Note_on_c, 0, 57, 0
2, 24228, Note_on_c, 0, 66, 0
2, 24228, Note_on_c, 0, 60, 0
2, 24240, Note_on_c, 0, 64, 85
2, 24240, Note_on_c, 0, 69, 85
2, 24240, Note_on_c, 0, 65, 85
2, 24240, Note_on_c, 0, 60, 85
2, 24288, Note_on_c, 0, 60, 0
2, 24288, Note_on_c, 0, 65, 0
2, 24288, Note_on_c, 0, 69, 0
2, 24300, Note_on_c, 0, 71, 85
2, 24348, Note_on_c, 0, 71, 0
2, 24360, Note_on_c, 0, 72, 85
2, 24408, Note_on_c, 0, 72, 0
2, 24420, Note_on_c, 0, 74, 85
2, 24432, Note_on_c, 0, 64, 0
2, 24468, Note_on_c, 0, 74, 0
2, 24480, Note_on_c, 0, 63, 85
2, 24480, Note_on_c, 0, 68, 85
2, 24480, Note_on_c, 0, 53, 85
2, 24480, Note_on_c, 0, 75, 85
2, 24528, Note_on_c, 0, 75, 0
2, 24528, Note_on_c, 0, 63, 0
2, 24528, Note_on_c, 0, 68, 0
2, 24540, Note_on_c, 0, 63, 85
2, 24540, Note_on_c, 0, 68, 85
2, 24624, Note_on_c, 0, 53, 0
2, 24636, Note_on_c, 0, 68, 0
2, 24636, Note_on_c, 0, 63, 0
2, 24660, Note_on_c, 0, 52, 85
2, 24660, Note_on_c, 0, 70, 85
2, 24708, Note_on_c, 0, 70, 0
2, 24708, Note_on_c, 0, 52, 0
2, 24720, Note_on_c, 0, 53, 85
2, 24720, Note_on_c, 0, 71, 85
2, 24720, Note_on_c, 0, 68, 85
2, 24720, Note_on_c, 0, 63, 85
2, 24768, Note_on_c, 0, 63, 0
2, 24768, Note_on_c, 0, 53, 0
2, 24768, Note_on_c, 0, 71, 0
2, 24768, Note_on_c, 0, 68, 0
2, 24780, Note_on_c, 0, 73, 85
2, 24780, Note_on_c, 0, 55, 85
2, 24828, Note_on_c, 0, 55, 0
2, 24828, Note_on_c, 0, 73, 0
2, 24840, Note_on_c, 0, 74, 85
2, 24840, Note_on_c, 0, 56, 85
2, 24888, Note_on_c, 0, 56, 0
2, 24888, Note_on_c, 0, 74, 0
2, 24900, Note_on_c, 0, 77, 85
2, 24900, Note_on_c, 0, 59, 85
2, 24948, Note_on_c, 0, 59, 0
2, 24948, Note_on_c, 0, 77, 0
2, 24960, Note_on_c, 0, 57, 85
2, 24960, Note_on_c, 0, 65, 85
2, 24960, Note_on_c, 0, 71, 85
2, 24960, Note_on_c, 0, 76, 85
2, 25008, Note_on_c, 0, 76, 0
2, 25008, Note_on_c, 0, 71, 0
2, 25008, Note_on_c, 0, 65, 0
2, 25020, Note_on_c, 0, 65, 85
2, 25020, Note_on_c, 0, 71, 85
2, 25116, Note_on_c, 0, 71, 0
2, 25116, Note_on_c, 0, 65, 0
2, 25140, Note_on_c, 0, 65, 85
2, 25140, Note_on_c, 0, 71, 85
2, 25152, Note_on_c, 0, 57, 0
2, 25200, Note_on_c, 0, 76, 85
2, 25200, Note_on_c, 0, 56, 85
2, 25248, Note_on_c, 0, 76, 0
2, 25248, Note_on_c, 0, 65, 0
2, 25248, Note_on_c, 0, 71, 0
2, 25260, Note_on_c, 0, 75, 85
2, 25308, Note_on_c, 0, 75, 0
2, 25320, Note_on_c, 0, 74, 85
2, 25368, Note_on_c, 0, 74, 0
2, 25380, Note_on_c, 0, 75, 85
2, 25392, Note_on_c, 0, 56, 0
2, 25428, Note_on_c, 0, 75, 0
2, 25440, Note_on_c, 0, 64, 85
2, 25440, Note_on_c, 0, 75, 85
2, 25440, Note_on_c, 0, 71, 85
2, 25440, Note_on_c, 0, 55, 85
2, 25488, Note_on_c, 0, 71, 0
2, 25488, Note_on_c, 0, 64, 0
2, 25488, Note_on_c, 0, 75, 0
2, 25500, Note_on_c, 0, 76, 85
2, 25548, Note_on_c, 0, 76, 0
2, 25560, Note_on_c, 0, 78, 85
2, 25560, Note_on_c, 0, 71, 85
2, 25608, Note_on_c, 0, 71, 0
2, 25608, Note_on_c, 0, 78, 0
2, 25620, Note_on_c, 0, 79, 85
2, 25632, Note_on_c, 0, 55, 0
2, 25668, Note_on_c, 0, 79, 0
2, 25680, Note_on_c, 0, 60, 85
2, 25680, Note_on_c, 0, 83, 85
2, 25680, Note_on_c, 0, 70, 85
2, 25728, Note_on_c, 0, 70, 0
2, 25728, Note_on_c, 0, 83, 0
2, 25740, Note_on_c, 0, 79, 85
2, 25776, Note_on_c, 0, 60, 0
2, 25788, Note_on_c, 0, 79, 0
2, 25800, Note_on_c, 0, 67, 85
2, 25800, Note_on_c, 0, 71, 85
2, 25800, Note_on_c, 0, 74, 85
2, 25848, Note_on_c, 0, 74, 0
2, 25848, Note_on_c, 0, 71, 0
2, 25860, Note_on_c, 0, 76, 85
2, 25896, Note_on_c, 0, 67, 0
2, 25908, Note_on_c, 0, 76, 0
2, 25920, Note_on_c, 0, 78, 85
2, 25920, Note_on_c, 0, 70, 85
2, 25920, Note_on_c, 0, 54, 85
2, 25920, Note_on_c, 0, 61, 85
2, 25968, Note_on_c, 0, 70, 0
2, 25980, Note_on_c, 0, 70, 85
2, 26076, Note_on_c, 0, 70, 0
2, 26100, Note_on_c, 0, 70, 85
2, 26112, Note_on_c, 0, 61, 0
2, 26112, Note_on_c, 0, 54, 0
2, 26148, Note_on_c, 0, 78, 0
2, 26148, Note_on_c, 0, 70, 0
2, 26160, Note_on_c, 0, 63, 85
2, 26160, Note_on_c, 0, 71, 85
2, 26160, Note_on_c, 0, 66, 85
2, 26160, Note_on_c, 0, 59, 85
2, 26208, Note_on_c, 0, 66, 0
2, 26208, Note_on_c, 0, 63, 0
2, 26220, Note_on_c, 0, 63, 85
2, 26220, Note_on_c, 0, 66, 85
2, 26256, Note_on_c, 0, 59, 0
2, 26316, Note_on_c, 0, 66, 0
2, 26316, Note_on_c, 0, 63, 0
2, 26340, Note_on_c, 0, 66, 85
2, 26340, Note_on_c, 0, 63, 85
2, 26388, Note_on_c, 0, 63, 0
2, 26388, Note_on_c, 0, 66, 0
2, 26388, Note_on_c, 0, 71, 0
2, 26400, Note_on_c, 0, 40, 85
2, 26400, Note_on_c, 0, 57, 85
2, 26400, Note_on_c, 0, 65, 85
2, 26400, Note_on_c, 0, 71, 85
2, 26400, Note_on_c, 0, 62, 85
2, 26448, Note_on_c, 0, 62, 0
2, 26448, Note_on_c, 0, 65, 0
2, 26448, Note_on_c, 0, 57, 0
2, 26460, Note_on_c, 0, 62, 85
2, 26460, Note_on_c, 0, 65, 85
2, 26460, Note_on_c, 0, 57, 85
2, 26496, Note_on_c, 0, 40, 0
2, 26556, Note_on_c, 0, 65, 0
2, 26556, Note_on_c, 0, 57, 0
2, 26556, Note_on_c, 0, 62, 0
2, 26580, Note_on_c, 0, 57, 85
2, 26580, Note_on_c, 0, 62, 85
2, 26580, Note_on_c, 0, 65, 85
2, 26628, Note_on_c, 0, 65, 0
2, 26628, Note_on_c, 0, 62, 0
2, 26628, Note_on_c, 0, 57, 0
2, 26640, Note_on_c, 0, 57, 85
2, 26640, Note_on_c, 0, 62, 85
2, 26640, Note_on_c, 0, 65, 85
2, 26640, Note_on_c, 0, 64, 85
2, 26688, Note_on_c, 0, 65, 0
2, 26688, Note_on_c, 0, 62, 0
2, 26688, Note_on_c, 0, 71, 0
2, 26688, Note_on_c, 0, 57, 0
2, 26700, Note_on_c, 0, 72, 85
2, 26736, Note_on_c, 0, 64, 0
2, 26748, Note_on_c, 0, 72, 0
2, 26760, Note_on_c, 0, 72, 85
2, 26760, Note_on_c, 0, 52, 85
2, 26760, Note_on_c, 0, 64, 85
2, 26760, Note_on_c, 0, 68, 85
2, 26760, Note_on_c, 0, 62, 85
2, 26808, Note_on_c, 0, 62, 0
2, 26808, Note_on_c, 0, 64, 0
2, 26808, Note_on_c, 0, 68, 0
2, 26808, Note_on_c, 0, 72, 0
2, 26820, Note_on_c, 0, 71, 85
2, 26856, Note_on_c, 0, 52, 0
2, 26868, Note_on_c, 0, 71, 0
2, 26880, Note_on_c, 0, 71, 85
2, 26880, Note_on_c, 0, 63, 85
2, 26880, Note_on_c, 0, 29, 85
2, 26880, Note_on_c, 0, 67, 85
2, 26928, Note_on_c, 0, 67, 0
2, 26928, Note_on_c, 0, 71, 0
2, 26928, Note_on_c, 0, 63, 0
2, 26940, Note_on_c, 0, 69, 85
2, 26976, Note_on_c, 0, 29, 0
2, 26988, Note_on_c, 0, 69, 0
2, 27000, Note_on_c, 0, 69, 85
2, 27000, Note_on_c, 0, 63, 85
2, 27000, Note_on_c, 0, 60, 85
2, 27000, Note_on_c, 0, 67, 85
2, 27048, Note_on_c, 0, 67, 0
2, 27048, Note_on_c, 0, 60, 0
2, 27048, Note_on_c, 0, 69, 0
2, 27060, Note_on_c, 0, 71, 85
2, 27096, Note_on_c, 0, 63, 0
2, 27108, Note_on_c, 0, 71, 0
2, 27120, Note_on_c, 0, 55, 85
2, 27120, Note_on_c, 0, 64, 85
2, 27120, Note_on_c, 0, 67, 85
2, 27120, Note_on_c, 0, 72, 85
2, 27168, Note_on_c, 0, 72, 0
2, 27168, Note_on_c, 0, 67, 0
2, 27168, Note_on_c, 0, 64, 0
2, 27180, Note_on_c, 0, 67, 85
2, 27180, Note_on_c, 0, 64, 85
2, 27228, Note_on_c, 0, 64, 0
2, 27228, Note_on_c, 0, 67, 0
2, 27240, Note_on_c, 0, 67, 85
2, 27288, Note_on_c, 0, 67, 0
2, 27300, Note_on_c, 0, 64, 85
2, 27312, Note_on_c, 0, 55, 0
2, 27348, Note_on_c, 0, 64, 0
2, 27360, Note_on_c, 0, 58, 85
2, 27360, Note_on_c, 0, 48, 85
2, 27360, Note_on_c, 0, 63, 85
2, 27360, Note_on_c, 0, 66, 85
2, 27408, Note_on_c, 0, 63, 0
2, 27408, Note_on_c, 0, 58, 0
2, 27420, Note_on_c, 0, 63, 85
2, 27420, Note_on_c, 0, 58, 85
2, 27504, Note_on_c, 0, 48, 0
2, 27516, Note_on_c, 0, 58, 0
2, 27516, Note_on_c, 0, 63, 0
2, 27540, Note_on_c, 0, 63, 85
2, 27540, Note_on_c, 0, 58, 85
2, 27540, Note_on_c, 0, 50, 85
2, 27588, Note_on_c, 0, 50, 0
2, 27588, Note_on_c, 0, 66, 0
2, 27588, Note_on_c, 0, 63, 0
2, 27588, Note_on_c, 0, 58, 0
2, 27600, Note_on_c, 0, 51, 85
2, 27600, Note_on_c, 0, 57, 85
2, 27600, Note_on_c, 0, 62, 85
2, 27600, Note_on_c, 0, 65, 85
2, 27648, Note_on_c, 0, 62, 0
2, 27648, Note_on_c, 0, 51, 0
2, 27648, Note_on_c, 0, 57, 0
2, 27660, Note_on_c, 0, 57, 85
2, 27660, Note_on_c, 0, 54, 85
2, 27660, Note_on_c, 0, 62, 85
2, 27708, Note_on_c, 0, 54, 0
2, 27720, Note_on_c, 0, 48, 85
2, 27756, Note_on_c, 0, 62, 0
2, 27756, Note_on_c, 0, 57, 0
2, 27780, Note_on_c, 0, 57, 85
2, 27780, Note_on_c, 0, 62, 85
2, 27828, Note_on_c, 0, 62, 0
2, 27828, Note_on_c, 0, 57, 0
2, 27828, Note_on_c, 0, 65, 0
2, 27840, Note_on_c, 0, 61, 85
2, 27840, Note_on_c, 0, 64, 85
2, 27840, Note_on_c, 0, 56, 85
2, 27888, Note_on_c, 0, 56, 0
2, 27888, Note_on_c, 0, 61, 0
2, 27900, Note_on_c, 0, 61, 85
2, 27900, Note_on_c, 0, 56, 85
2, 27936, Note_on_c, 0, 48, 0
2, 27960, Note_on_c, 0, 46, 85
2, 27996, Note_on_c, 0, 56, 0
2, 27996, Note_on_c, 0, 61, 0
2, 28020, Note_on_c, 0, 56, 85
2, 28020, Note_on_c, 0, 61, 85
2, 28116, Note_on_c, 0, 61, 0
2, 28116, Note_on_c, 0, 56, 0
2, 28140, Note_on_c, 0, 56, 85
2, 28140, Note_on_c, 0, 61, 85
2, 28152, Note_on_c, 0, 46, 0
2, 28188, Note_on_c, 0, 64, 0
2, 28188, Note_on_c, 0, 56, 0
2, 28188, Note_on_c, 0, 61, 0
2, 28200, Note_on_c, 0, 49, 85
2, 28200, Note_on_c, 0, 60, 85
2, 28248, Note_on_c, 0, 60, 0
2, 28260, Note_on_c, 0, 55, 85
2, 28308, Note_on_c, 0, 55, 0
2, 28320, Note_on_c, 0, 60, 85
2, 28320, Note_on_c, 0, 63, 85
2, 28320, Note_on_c, 0, 72, 85
2, 28320, Note_on_c, 0, 24, 85
2, 28320, Note_on_c, 0, 36, 85
2, 28320, Note_on_c, 0, 68, 85
2, 28392, Note_on_c, 0, 49, 0
2, 28416, Note_on_c, 0, 36, 0
2, 28416, Note_on_c, 0, 63, 0
2, 28416, Note_on_c, 0, 72, 0
2, 28416, Note_on_c, 0, 60, 0
2, 28416, Note_on_c, 0, 68, 0
2, 28416, Note_on_c, 0, 24, 0
2, 28440, Note_on_c, 0, 60, 85
2, 28440, Note_on_c, 0, 27, 85
2, 28440, Note_on_c, 0, 68, 85
2, 28440, Note_on_c, 0, 63, 85
2, 28464, Note_on_c, 0, 27, 0
2, 28470, Note_on_c, 0, 44, 85
2, 28494, Note_on_c, 0, 44, 0
2, 28500, Note_on_c, 0, 48, 85
2, 28512, Note_on_c, 0, 63, 0
2, 28512, Note_on_c, 0, 60, 0
2, 28512, Note_on_c, 0, 68, 0
2, 28524, Note_on_c, 0, 48, 0
2, 28530, Note_on_c, 0, 73, 85
2, 28530, Note_on_c, 0, 51, 85
2, 28554, Note_on_c, 0, 51, 0
2, 28554, Note_on_c, 0, 73, 0
2, 28560, Note_on_c, 0, 63, 85
2, 28560, Note_on_c, 0, 58, 85
2, 28560, Note_on_c, 0, 68, 85
2, 28560, Note_on_c, 0, 72, 85
2, 28560, Note_on_c, 0, 60, 85
2, 28584, Note_on_c, 0, 58, 0
2, 28590, Note_on_c, 0, 60, 85
2, 28614, Note_on_c, 0, 60, 0
2, 28620, Note_on_c, 0, 56, 85
2, 28644, Note_on_c, 0, 56, 0
2, 28650, Note_on_c, 0, 58, 85
2, 28674, Note_on_c, 0, 58, 0
2, 28680, Note_on_c, 0, 55, 85
2, 28704, Note_on_c, 0, 55, 0
2, 28704, Note_on_c, 0, 60, 0
2, 28704, Note_on_c, 0, 63, 0
2, 28704, Note_on_c, 0, 68, 0
2, 28704, Note_on_c, 0, 72, 0
2, 28710, Note_on_c, 0, 56, 85
2, 28734, Note_on_c, 0, 56, 0
2, 28740, Note_on_c, 0, 60, 85
2, 28740, Note_on_c, 0, 63, 85
2, 28740, Note_on_c, 0, 68, 85
2, 28740, Note_on_c, 0, 53, 85
2, 28764, Note_on_c, 0, 53, 0
2, 28770, Note_on_c, 0, 55, 85
2, 28788, Note_on_c, 0, 60, 0
2, 28788, Note_on_c, 0, 68, 0
2, 28788, Note_on_c, 0, 63, 0
2, 28794, Note_on_c, 0, 55, 0
2, 28800, Note_on_c, 0, 72, 85
2, 28800, Note_on_c, 0, 60, 85
2, 28800, Note_on_c, 0, 63, 85
2, 28800, Note_on_c, 0, 51, 85
2, 28800, Note_on_c, 0, 68, 85
2, 28824, Note_on_c, 0, 51, 0
2, 28830, Note_on_c, 0, 53, 85
2, 28854, Note_on_c, 0, 53, 0
2, 28860, Note_on_c, 0, 49, 85
2, 28884, Note_on_c, 0, 49, 0
2, 28890, Note_on_c, 0, 51, 85
2, 28896, Note_on_c, 0, 63, 0
2, 28896, Note_on_c, 0, 68, 0
2, 28896, Note_on_c, 0, 72, 0
2, 28896, Note_on_c, 0, 60, 0
2, 28914, Note_on_c, 0, 51, 0
2, 28920, Note_on_c, 0, 60, 85
2, 28920, Note_on_c, 0, 47, 85
2, 28920, Note_on_c, 0, 72, 85
2, 28920, Note_on_c, 0, 63, 85
2, 28944, Note_on_c, 0, 47, 0
2, 28950, Note_on_c, 0, 49, 85
2, 28974, Note_on_c, 0, 49, 0
2, 28980, Note_on_c, 0, 46, 85
2, 28992, Note_on_c, 0, 63, 0
2, 28992, Note_on_c, 0, 60, 0
2, 28992, Note_on_c, 0, 72, 0
2, 29004, Note_on_c, 0, 46, 0
2, 29010, Note_on_c, 0, 48, 85
2, 29010, Note_on_c, 0, 73, 85
2, 29034, Note_on_c, 0, 73, 0
2, 29034, Note_on_c, 0, 48, 0
2, 29040, Note_on_c, 0, 72, 85
2, 29040, Note_on_c, 0, 68, 85
2, 29040, Note_on_c, 0, 60, 85
2, 29040, Note_on_c, 0, 63, 85
2, 29040, Note_on_c, 0, 44, 85
2, 29064, Note_on_c, 0, 44, 0
2, 29070, Note_on_c, 0, 46, 85
2, 29094, Note_on_c, 0, 46, 0
2, 29100, Note_on_c, 0, 43, 85
2, 29124, Note_on_c, 0, 43, 0
2, 29130, Note_on_c, 0, 44, 85
2, 29154, Note_on_c, 0, 44, 0
2, 29160, Note_on_c, 0, 41, 85
2, 29184, Note_on_c, 0, 41, 0
2, 29184, Note_on_c, 0, 60, 0
2, 29184, Note_on_c, 0, 72, 0
2, 29184, Note_on_c, 0, 68, 0
2, 29184, Note_on_c, 0, 63, 0
2, 29190, Note_on_c, 0, 43, 85
2, 29214, Note_on_c, 0, 43, 0
2, 29220, Note_on_c, 0, 60, 85
2, 29220, Note_on_c, 0, 63, 85
2, 29220, Note_on_c, 0, 68, 85
2, 29220, Note_on_c, 0, 39, 85
2, 29244, Note_on_c, 0, 39, 0
2, 29250, Note_on_c, 0, 41, 85
2, 29268, Note_on_c, 0, 60, 0
2, 29268, Note_on_c, 0, 68, 0
2, 29268, Note_on_c, 0, 63, 0
2, 29274, Note_on_c, 0, 41, 0
2, 29280, Note_on_c, 0, 60, 85
2, 29280, Note_on_c, 0, 72, 85
2, 29280, Note_on_c, 0, 32, 85
2, 29280, Note_on_c, 0, 63, 85
2, 29280, Note_on_c, 0, 68, 85
2, 29304, Note_on_c, 0, 32, 0
2, 29310, Note_on_c, 0, 34, 85
2, 29334, Note_on_c, 0, 34, 0
2, 29340, Note_on_c, 0, 36, 85
2, 29364, Note_on_c, 0, 36, 0
2, 29370, Note_on_c, 0, 37, 85
2, 29376, Note_on_c, 0, 63, 0
2, 29376, Note_on_c, 0, 68, 0
2, 29376, Note_on_c, 0, 60, 0
2, 29376, Note_on_c, 0, 72, 0
2, 29394, Note_on_c, 0, 37, 0
2, 29400, Note_on_c, 0, 66, 85
2, 29400, Note_on_c, 0, 38, 85
2, 29400, Note_on_c, 0, 59, 85
2, 29400, Note_on_c, 0, 63, 85
2, 29400, Note_on_c, 0, 71, 85
2, 29424, Note_on_c, 0, 38, 0
2, 29430, Note_on_c, 0, 40, 85
2, 29454, Note_on_c, 0, 40, 0
2, 29460, Note_on_c, 0, 42, 85
2, 29484, Note_on_c, 0, 42, 0
2, 29490, Note_on_c, 0, 44, 85
2, 29514, Note_on_c, 0, 44, 0
2, 29520, Note_on_c, 0, 45, 85
2, 29544, Note_on_c, 0, 45, 0
2, 29550, Note_on_c, 0, 47, 85
2, 29568, Note_on_c, 0, 63, 0
2, 29568, Note_on_c, 0, 71, 0
2, 29568, Note_on_c, 0, 66, 0
2, 29568, Note_on_c, 0, 59, 0
2, 29574, Note_on_c, 0, 47, 0
2, 29580, Note_on_c, 0, 58, 85
2, 29580, Note_on_c, 0, 49, 85
2, 29580, Note_on_c, 0, 70, 85
2, 29604, Note_on_c, 0, 49, 0
2, 29610, Note_on_c, 0, 51, 85
2, 29628, Note_on_c, 0, 70, 0
2, 29628, Note_on_c, 0, 58, 0
2, 29634, Note_on_c, 0, 51, 0
2, 29640, Note_on_c, 0, 52, 85
2, 29640, Note_on_c, 0, 61, 85
2, 29640, Note_on_c, 0, 69, 85
2, 29640, Note_on_c, 0, 64, 85
2, 29640, Note_on_c, 0, 57, 85
2, 29664, Note_on_c, 0, 52, 0
2, 29670, Note_on_c, 0, 54, 85
2, 29688, Note_on_c, 0, 64, 0
2, 29688, Note_on_c, 0, 57, 0
2, 29688, Note_on_c, 0, 61, 0
2, 29688, Note_on_c, 0, 69, 0
2, 29694, Note_on_c, 0, 54, 0
2, 29700, Note_on_c, 0, 61, 85
2, 29700, Note_on_c, 0, 56, 85
2, 29700, Note_on_c, 0, 73, 85
2, 29724, Note_on_c, 0, 56, 0
2, 29730, Note_on_c, 0, 57, 85
2, 29748, Note_on_c, 0, 73, 0
2, 29748, Note_on_c, 0, 61, 0
2, 29754, Note_on_c, 0, 57, 0
2, 29760, Note_on_c, 0, 69, 85
2, 29760, Note_on_c, 0, 42, 85
2, 29760, Note_on_c, 0, 30, 85
2, 29760, Note_on_c, 0, 63, 85
2, 29760, Note_on_c, 0, 75, 85
2, 29760, Note_on_c, 0, 66, 85
2, 29856, Note_on_c, 0, 66, 0
2, 29856, Note_on_c, 0, 42, 0
2, 29856, Note_on_c, 0, 30, 0
2, 29856, Note_on_c, 0, 69, 0
2, 29856, Note_on_c, 0, 75, 0
2, 29856, Note_on_c, 0, 63, 0
2, 29880, Note_on_c, 0, 57, 85
2, 29880, Note_on_c, 0, 69, 85
2, 29880, Note_on_c, 0, 45, 85
2, 29904, Note_on_c, 0, 45, 0
2, 29910, Note_on_c, 0, 47, 85
2, 29934, Note_on_c, 0, 47, 0
2, 29940, Note_on_c, 0, 49, 85
2, 29952, Note_on_c, 0, 69, 0
2, 29952, Note_on_c, 0, 57, 0
2, 29964, Note_on_c, 0, 49, 0
2, 29970, Note_on_c, 0, 79, 85
2, 29970, Note_on_c, 0, 51, 85
2, 29970, Note_on_c, 0, 67, 85
2, 29994, Note_on_c, 0, 67, 0
2, 29994, Note_on_c, 0, 51, 0
2, 29994, Note_on_c, 0, 79, 0
2, 30000, Note_on_c, 0, 66, 85
2, 30000, Note_on_c, 0, 78, 85
2, 30000, Note_on_c, 0, 52, 85
2, 30024, Note_on_c, 0, 52, 0
2, 30030, Note_on_c, 0, 54, 85
2, 30054, Note_on_c, 0, 54, 0
2, 30060, Note_on_c, 0, 56, 85
2, 30084, Note_on_c, 0, 56, 0
2, 30090, Note_on_c, 0, 57, 85
2, 30096, Note_on_c, 0, 78, 0
2, 30096, Note_on_c, 0, 66, 0
2, 30114, Note_on_c, 0, 57, 0
2, 30120, Note_on_c, 0, 69, 85
2, 30120, Note_on_c, 0, 75, 85
2, 30120, Note_on_c, 0, 59, 85
2, 30144, Note_on_c, 0, 59, 0
2, 30150, Note_on_c, 0, 61, 85
2, 30174, Note_on_c, 0, 61, 0
2, 30180, Note_on_c, 0, 63, 85
2, 30204, Note_on_c, 0, 63, 0
2, 30210, Note_on_c, 0, 64, 85
2, 30216, Note_on_c, 0, 75, 0
2, 30216, Note_on_c, 0, 69, 0
2, 30234, Note_on_c, 0, 64, 0
2, 30240, Note_on_c, 0, 78, 85
2, 30240, Note_on_c, 0, 82, 85
2, 30240, Note_on_c, 0, 44, 85
2, 30240, Note_on_c, 0, 87, 85
2, 30240, Note_on_c, 0, 75, 85
2, 30240, Note_on_c, 0, 32, 85
2, 30288, Note_on_c, 0, 32, 0
2, 30288, Note_on_c, 0, 82, 0
2, 30288, Note_on_c, 0, 44, 0
2, 30288, Note_on_c, 0, 78, 0
2, 30288, Note_on_c, 0, 75, 0
2, 30288, Note_on_c, 0, 87, 0
2, 30300, Note_on_c, 0, 56, 85
2, 30300, Note_on_c, 0, 70, 85
2, 30300, Note_on_c, 0, 51, 85
2, 30300, Note_on_c, 0, 75, 85
2, 30348, Note_on_c, 0, 75, 0
2, 30348, Note_on_c, 0, 56, 0
2, 30348, Note_on_c, 0, 70, 0
2, 30348, Note_on_c, 0, 51, 0
2, 30360, Note_on_c, 0, 75, 85
2, 30360, Note_on_c, 0, 70, 85
2, 30360, Note_on_c, 0, 56, 85
2, 30360, Note_on_c, 0, 61, 85
2, 30408, Note_on_c, 0, 61, 0
2, 30408, Note_on_c, 0, 75, 0
2, 30408, Note_on_c, 0, 70, 0
2, 30408, Note_on_c, 0, 56, 0
2, 30420, Note_on_c, 0, 66, 85
2, 30420, Note_on_c, 0, 82, 85
2, 30420, Note_on_c, 0, 78, 85
2, 30420, Note_on_c, 0, 61, 85
2, 30468, Note_on_c, 0, 61, 0
2, 30468, Note_on_c, 0, 66, 0
2, 30468, Note_on_c, 0, 82, 0
2, 30468, Note_on_c, 0, 78, 0
2, 30480, Note_on_c, 0, 66, 85
2, 30480, Note_on_c, 0, 72, 85
2, 30480, Note_on_c, 0, 75, 85
2, 30480, Note_on_c, 0, 81, 85
2, 30480, Note_on_c, 0, 57, 85
2, 30480, Note_on_c, 0, 87, 85
2, 30528, Note_on_c, 0, 87, 0
2, 30528, Note_on_c, 0, 72, 0
2, 30528, Note_on_c, 0, 75, 0
2, 30528, Note_on_c, 0, 66, 0
2, 30528, Note_on_c, 0, 57, 0
2, 30528, Note_on_c, 0, 81, 0
2, 30540, Note_on_c, 0, 88, 85
2, 30540, Note_on_c, 0, 76, 85
2, 30540, Note_on_c, 0, 63, 85
2, 30588, Note_on_c, 0, 63, 0
2, 30588, Note_on_c, 0, 76, 0
2, 30588, Note_on_c, 0, 88, 0
2, 30600, Note_on_c, 0, 76, 85
2, 30600, Note_on_c, 0, 63, 85
2, 30600, Note_on_c, 0, 88, 85
2, 30600, Note_on_c, 0, 81, 85
2, 30648, Note_on_c, 0, 81, 0
2, 30648, Note_on_c, 0, 76, 0
2, 30648, Note_on_c, 0, 63, 0
2, 30648, Note_on_c, 0, 88, 0
2, 30660, Note_on_c, 0, 66, 85
2, 30660, Note_on_c, 0, 87, 85
2, 30660, Note_on_c, 0, 57, 85
2, 30660, Note_on_c, 0, 75, 85
2, 30708, Note_on_c, 0, 75, 0
2, 30708, Note_on_c, 0, 66, 0
2, 30708, Note_on_c, 0, 87, 0
2, 30708, Note_on_c, 0, 57, 0
2, 30720, Note_on_c, 0, 75, 85
2, 30720, Note_on_c, 0, 80, 85
2, 30720, Note_on_c, 0, 87, 85
2, 30720, Note_on_c, 0, 37, 85
2, 30720, Note_on_c, 0, 49, 85
2, 30768, Note_on_c, 0, 49, 0
2, 30768, Note_on_c, 0, 87, 0
2, 30768, Note_on_c, 0, 75, 0
2, 30768, Note_on_c, 0, 80, 0
2, 30768, Note_on_c, 0, 37, 0
2, 30780, Note_on_c, 0, 80, 85
2, 30780, Note_on_c, 0, 61, 85
2, 30780, Note_on_c, 0, 85, 85
2, 30780, Note_on_c, 0, 52, 85
2, 30780, Note_on_c, 0, 73, 85
2, 30828, Note_on_c, 0, 73, 0
2, 30828, Note_on_c, 0, 85, 0
2, 30828, Note_on_c, 0, 80, 0
2, 30828, Note_on_c, 0, 61, 0
2, 30828, Note_on_c, 0, 52, 0
2, 30840, Note_on_c, 0, 80, 85
2, 30840, Note_on_c, 0, 61, 85
2, 30840, Note_on_c, 0, 73, 85
2, 30840, Note_on_c, 0, 52, 85
2, 30840, Note_on_c, 0, 85, 85
2, 30888, Note_on_c, 0, 85, 0
2, 30888, Note_on_c, 0, 73, 0
2, 30888, Note_on_c, 0, 80, 0
2, 30888, Note_on_c, 0, 61, 0
2, 30888, Note_on_c, 0, 52, 0
2, 30900, Note_on_c, 0, 74, 85
2, 30900, Note_on_c, 0, 64, 85
2, 30900, Note_on_c, 0, 56, 85
2, 30900, Note_on_c, 0, 86, 85
2, 30948, Note_on_c, 0, 86, 0
2, 30948, Note_on_c, 0, 74, 0
2, 30948, Note_on_c, 0, 64, 0
2, 30948, Note_on_c, 0, 56, 0
2, 30960, Note_on_c, 0, 61, 85
2, 30960, Note_on_c, 0, 68, 85
2, 30960, Note_on_c, 0, 88, 85
2, 30960, Note_on_c, 0, 83, 85
2, 30960, Note_on_c, 0, 80, 85
2, 30960, Note_on_c, 0, 76, 85
2, 31008, Note_on_c, 0, 76, 0
2, 31008, Note_on_c, 0, 68, 0
2, 31008, Note_on_c, 0, 88, 0
2, 31008, Note_on_c, 0, 61, 0
2, 31008, Note_on_c, 0, 80, 0
2, 31008, Note_on_c, 0, 83, 0
2, 31020, Note_on_c, 0, 61, 85
2, 31020, Note_on_c, 0, 68, 85
2, 31020, Note_on_c, 0, 83, 85
2, 31020, Note_on_c, 0, 76, 85
2, 31068, Note_on_c, 0, 76, 0
2, 31068, Note_on_c, 0, 61, 0
2, 31068, Note_on_c, 0, 68, 0
2, 31068, Note_on_c, 0, 83, 0
2, 31080, Note_on_c, 0, 56, 85
2, 31080, Note_on_c, 0, 64, 85
2, 31080, Note_on_c, 0, 80, 85
2, 31080, Note_on_c, 0, 73, 85
2, 31128, Note_on_c, 0, 73, 0
2, 31128, Note_on_c, 0, 56, 0
2, 31128, Note_on_c, 0, 64, 0
2, 31128, Note_on_c, 0, 80, 0
2, 31140, Note_on_c, 0, 52, 85
2, 31140, Note_on_c, 0, 61, 85
2, 31140, Note_on_c, 0, 76, 85
2, 31140, Note_on_c, 0, 71, 85
2, 31188, Note_on_c, 0, 71, 0
2, 31188, Note_on_c, 0, 52, 0
2, 31188, Note_on_c, 0, 61, 0
2, 31188, Note_on_c, 0, 76, 0
2, 31200, Note_on_c, 0, 75, 85
2, 31200, Note_on_c, 0, 87, 85
2, 31200, Note_on_c, 0, 44, 85
2, 31200, Note_on_c, 0, 82, 85
2, 31200, Note_on_c, 0, 78, 85
2, 31200, Note_on_c, 0, 32, 85
2, 31248, Note_on_c, 0, 32, 0
2, 31248, Note_on_c, 0, 87, 0
2, 31248, Note_on_c, 0, 44, 0
2, 31248, Note_on_c, 0, 75, 0
2, 31248, Note_on_c, 0, 78, 0
2, 31248, Note_on_c, 0, 82, 0
2, 31260, Note_on_c, 0, 56, 85
2, 31260, Note_on_c, 0, 70, 85
2, 31260, Note_on_c, 0, 51, 85
2, 31260, Note_on_c, 0, 75, 85
2, 31308, Note_on_c, 0, 75, 0
2, 31308, Note_on_c, 0, 56, 0
2, 31308, Note_on_c, 0, 70, 0
2, 31308, Note_on_c, 0, 51, 0
2, 31320, Note_on_c, 0, 75, 85
2, 31320, Note_on_c, 0, 70, 85
2, 31320, Note_on_c, 0, 56, 85
2, 31320, Note_on_c, 0, 61, 85
2, 31368, Note_on_c, 0, 61, 0
2, 31368, Note_on_c, 0, 75, 0
2, 31368, Note_on_c, 0, 70, 0
2, 31368, Note_on_c, 0, 56, 0
2, 31380, Note_on_c, 0, 61, 85
2, 31380, Note_on_c, 0, 78, 85
2, 31380, Note_on_c, 0, 82, 85
2, 31380, Note_on_c, 0, 66, 85
2, 31428, Note_on_c, 0, 66, 0
2, 31428, Note_on_c, 0, 61, 0
2, 31428, Note_on_c, 0, 78, 0
2, 31428, Note_on_c, 0, 82, 0
2, 31440, Note_on_c, 0, 66, 85
2, 31440, Note_on_c, 0, 87, 85
2, 31440, Note_on_c, 0, 75, 85
2, 31440, Note_on_c, 0, 81, 85
2, 31440, Note_on_c, 0, 57, 85
2, 31440, Note_on_c, 0, 72, 85
2, 31488, Note_on_c, 0, 72, 0
2, 31488, Note_on_c, 0, 87, 0
2, 31488, Note_on_c, 0, 75, 0
2, 31488, Note_on_c, 0, 66, 0
2, 31488, Note_on_c, 0, 57, 0
2, 31488, Note_on_c, 0, 81, 0
2, 31500, Note_on_c, 0, 63, 85
2, 31500, Note_on_c, 0, 76, 85
2, 31500, Note_on_c, 0, 88, 85
2, 31548, Note_on_c, 0, 88, 0
2, 31548, Note_on_c, 0, 76, 0
2, 31548, Note_on_c, 0, 63, 0
2, 31560, Note_on_c, 0, 81, 85
2, 31560, Note_on_c, 0, 88, 85
2, 31560, Note_on_c, 0, 63, 85
2, 31560, Note_on_c, 0, 76, 85
2, 31608, Note_on_c, 0, 76, 0
2, 31608, Note_on_c, 0, 81, 0
2, 31608, Note_on_c, 0, 88, 0
2, 31608, Note_on_c, 0, 63, 0
2, 31620, Note_on_c, 0, 75, 85
2, 31620, Note_on_c, 0, 57, 85
2, 31620, Note_on_c, 0, 87, 85
2, 31620, Note_on_c, 0, 66, 85
2, 31668, Note_on_c, 0, 66, 0
2, 31668, Note_on_c, 0, 75, 0
2, 31668, Note_on_c, 0, 57, 0
2, 31668, Note_on_c, 0, 87, 0
2, 31680, Note_on_c, 0, 75, 85
2, 31680, Note_on_c, 0, 37, 85
2, 31680, Note_on_c, 0, 87, 85
2, 31680, Note_on_c, 0, 80, 85
2, 31680, Note_on_c, 0, 49, 85
2, 31728, Note_on_c, 0, 49, 0
2, 31728, Note_on_c, 0, 87, 0
2, 31728, Note_on_c, 0, 75, 0
2, 31728, Note_on_c, 0, 37, 0
2, 31728, Note_on_c, 0, 80, 0
2, 31740, Note_on_c, 0, 80, 85
2, 31740, Note_on_c, 0, 52, 85
2, 31740, Note_on_c, 0, 85, 85
2, 31740, Note_on_c, 0, 61, 85
2, 31740, Note_on_c, 0, 73, 85
2, 31788, Note_on_c, 0, 73, 0
2, 31788, Note_on_c, 0, 85, 0
2, 31788, Note_on_c, 0, 80, 0
2, 31788, Note_on_c, 0, 52, 0
2, 31788, Note_on_c, 0, 61, 0
2, 31800, Note_on_c, 0, 80, 85
2, 31800, Note_on_c, 0, 52, 85
2, 31800, Note_on_c, 0, 73, 85
2, 31800, Note_on_c, 0, 61, 85
2, 31800, Note_on_c, 0, 85, 85
2, 31848, Note_on_c, 0, 85, 0
2, 31848, Note_on_c, 0, 73, 0
2, 31848, Note_on_c, 0, 80, 0
2, 31848, Note_on_c, 0, 52, 0
2, 31848, Note_on_c, 0, 61, 0
2, 31860, Note_on_c, 0, 86, 85
2, 31860, Note_on_c, 0, 56, 85
2, 31860, Note_on_c, 0, 74, 85
2, 31860, Note_on_c, 0, 64, 85
2, 31908, Note_on_c, 0, 64, 0
2, 31908, Note_on_c, 0, 86, 0
2, 31908, Note_on_c, 0, 56, 0
2, 31908, Note_on_c, 0, 74, 0
2, 31920, Note_on_c, 0, 61, 85
2, 31920, Note_on_c, 0, 68, 85
2, 31920, Note_on_c, 0, 88, 85
2, 31920, Note_on_c, 0, 83, 85
2, 31920, Note_on_c, 0, 80, 85
2, 31920, Note_on_c, 0, 76, 85
2, 31968, Note_on_c, 0, 76, 0
2, 31968, Note_on_c, 0, 68, 0
2, 31968, Note_on_c, 0, 88, 0
2, 31968, Note_on_c, 0, 61, 0
2, 31968, Note_on_c, 0, 80, 0
2, 31968, Note_on_c, 0, 83, 0
2, 31980, Note_on_c, 0, 61, 85
2, 31980, Note_on_c, 0, 68, 85
2, 31980, Note_on_c, 0, 83, 85
2, 32028, Note_on_c, 0, 83, 0
2, 32028, Note_on_c, 0, 68, 0
2, 32028, Note_on_c, 0, 61, 0
2, 32040, Note_on_c, 0, 61, 85
2, 32040, Note_on_c, 0, 68, 85
2, 32088, Note_on_c, 0, 68, 0
2, 32088, Note_on_c, 0, 61, 0
2, 32100, Note_on_c, 0, 56, 85
2, 32100, Note_on_c, 0, 64, 85
2, 32148, Note_on_c, 0, 64, 0
2, 32148, Note_on_c, 0, 56, 0
2, 32160, Note_on_c, 0, 37, 85
2, 32160, Note_on_c, 0, 67, 85
2, 32208, Note_on_c, 0, 67, 0
2, 32220, Note_on_c, 0, 59, 85
2, 32220, Note_on_c, 0, 64, 85
2, 32256, Note_on_c, 0, 37, 0
2, 32268, Note_on_c, 0, 64, 0
2, 32268, Note_on_c, 0, 59, 0
2, 32280, Note_on_c, 0, 64, 85
2, 32280, Note_on_c, 0, 79, 85
2, 32328, Note_on_c, 0, 79, 0
2, 32328, Note_on_c, 0, 64, 0
2, 32340, Note_on_c, 0, 61, 85
2, 32340, Note_on_c, 0, 71, 85
2, 32340, Note_on_c, 0, 79, 85
2, 32388, Note_on_c, 0, 79, 0
2, 32388, Note_on_c, 0, 71, 0
2, 32388, Note_on_c, 0, 61, 0
2, 32400, Note_on_c, 0, 59, 85
2, 32400, Note_on_c, 0, 79, 85
2, 32448, Note_on_c, 0, 79, 0
2, 32448, Note_on_c, 0, 59, 0
2, 32460, Note_on_c, 0, 76, 85
2, 32460, Note_on_c, 0, 55, 85
2, 32508, Note_on_c, 0, 55, 0
2, 32508, Note_on_c, 0, 76, 0
2, 32520, Note_on_c, 0, 52, 85
2, 32520, Note_on_c, 0, 72, 85
2, 32568, Note_on_c, 0, 72, 0
2, 32568, Note_on_c, 0, 52, 0
2, 32580, Note_on_c, 0, 67, 85
2, 32580, Note_on_c, 0, 48, 85
2, 32628, Note_on_c, 0, 48, 0
2, 32628, Note_on_c, 0, 67, 0
2, 32640, Note_on_c, 0, 58, 85
2, 32640, Note_on_c, 0, 58, 85
2, 32640, Note_on_c, 0, 30, 85
2, 32688, Note_on_c, 0, 30, 0
2, 32688, Note_on_c, 0, 58, 0
2, 32700, Note_on_c, 0, 52, 85
2, 32700, Note_on_c, 0, 54, 85
2, 32736, Note_on_c, 0, 58, 0
2, 32748, Note_on_c, 0, 54, 0
2, 32748, Note_on_c, 0, 52, 0
2, 32760, Note_on_c, 0, 60, 85
2, 32760, Note_on_c, 0, 52, 85
2, 32808, Note_on_c, 0, 60, 0
2, 32820, Note_on_c, 0, 58, 85
2, 32844, Note_on_c, 0, 58, 0
2, 32850, Note_on_c, 0, 67, 85
2, 32856, Note_on_c, 0, 52, 0
2, 32874, Note_on_c, 0, 67, 0
2, 32880, Note_on_c, 0, 66, 85
2, 32880, Note_on_c, 0, 54, 85
2, 32928, Note_on_c, 0, 66, 0
2, 32940, Note_on_c, 0, 60, 85
2, 32976, Note_on_c, 0, 54, 0
2, 32988, Note_on_c, 0, 60, 0
2, 33000, Note_on_c, 0, 64, 85
2, 33000, Note_on_c, 0, 58, 85
2, 33048, Note_on_c, 0, 64, 0
2, 33060, Note_on_c, 0, 60, 85
2, 33096, Note_on_c, 0, 58, 0
2, 33108, Note_on_c, 0, 60, 0
2, 33120, Note_on_c, 0, 65, 85
2, 33168, Note_on_c, 0, 65, 0
2, 33180, Note_on_c, 0, 59, 85
2, 33180, Note_on_c, 0, 56, 85
2, 33180, Note_on_c, 0, 48, 85
2, 33180, Note_on_c, 0, 62, 85
2, 33228, Note_on_c, 0, 62, 0
2, 33228, Note_on_c, 0, 59, 0
2, 33228, Note_on_c, 0, 56, 0
2, 33228, Note_on_c, 0, 48, 0
2, 33240, Note_on_c, 0, 68, 85
2, 33288, Note_on_c, 0, 68, 0
2, 33300, Note_on_c, 0, 64, 85
2, 33300, Note_on_c, 0, 60, 85
2, 33300, Note_on_c, 0, 56, 85
2, 33300, Note_on_c, 0, 47, 85
2, 33348, Note_on_c, 0, 47, 0
2, 33348, Note_on_c, 0, 64, 0
2, 33348, Note_on_c, 0, 60, 0
2, 33348, Note_on_c, 0, 56, 0
2, 33360, Note_on_c, 0, 77, 85
2, 33408, Note_on_c, 0, 77, 0
2, 33420, Note_on_c, 0, 56, 85
2, 33420, Note_on_c, 0, 69, 85
2, 33420, Note_on_c, 0, 59, 85
2, 33420, Note_on_c, 0, 48, 85
2, 33468, Note_on_c, 0, 48, 0
2, 33468, Note_on_c, 0, 56, 0
2, 33468, Note_on_c, 0, 69, 0
2, 33468, Note_on_c, 0, 59, 0
2, 33480, Note_on_c, 0, 76, 85
2, 33528, Note_on_c, 0, 76, 0
2, 33540, Note_on_c, 0, 64, 85
2, 33540, Note_on_c, 0, 57, 85
2, 33540, Note_on_c, 0, 53, 85
2, 33540, Note_on_c, 0, 67, 85
2, 33588, Note_on_c, 0, 67, 0
2, 33588, Note_on_c, 0, 64, 0
2, 33588, Note_on_c, 0, 57, 0
2, 33588, Note_on_c, 0, 53, 0
2, 33600, Note_on_c, 0, 80, 85
2, 33648, Note_on_c, 0, 80, 0
2, 33660, Note_on_c, 0, 60, 85
2, 33660, Note_on_c, 0, 71, 85
2, 33660, Note_on_c, 0, 77, 85
2, 33708, Note_on_c, 0, 77, 0
2, 33708, Note_on_c, 0, 71, 0
2, 33708, Note_on_c, 0, 60, 0
2, 33720, Note_on_c, 0, 86, 85
2, 33768, Note_on_c, 0, 86, 0
2, 33780, Note_on_c, 0, 68, 85
2, 33780, Note_on_c, 0, 74, 85
2, 33780, Note_on_c, 0, 79, 85
2, 33828, Note_on_c, 0, 79, 0
2, 33828, Note_on_c, 0, 74, 0
2, 33828, Note_on_c, 0, 68, 0
2, 33840, Note_on_c, 0, 96, 85
2, 33840, Note_on_c, 0, 81, 85
2, 33936, Note_on_c, 0, 81, 0
2, 33936, Note_on_c, 0, 96, 0
2, 34000, Note_on_c, 0, 86, 85
2, 34000, Note_on_c, 0, 93, 85
2, 34000, Note_on_c, 0, 77, 85
2, 34032, Note_on_c, 0, 77, 0
2, 34032, Note_on_c, 0, 93, 0
2, 34032, Note_on_c, 0, 86, 0
2, 34040, Note_on_c, 0, 84, 85
2, 34040, Note_on_c, 0, 76, 85
2, 34072, Note_on_c, 0, 76, 0
2, 34072, Note_on_c, 0, 84, 0
2, 34080, Note_on_c, 0, 84, 85
2, 34080, Note_on_c, 0, 89, 85
2, 34080, Note_on_c, 0, 74, 85
2, 34112, Note_on_c, 0, 74, 0
2, 34112, Note_on_c, 0, 89, 0
2, 34112, Note_on_c, 0, 84, 0
2, 34120, Note_on_c, 0, 83, 85
2, 34120, Note_on_c, 0, 72, 85
2, 34152, Note_on_c, 0, 72, 0
2, 34152, Note_on_c, 0, 83, 0
2, 34160, Note_on_c, 0, 69, 85
2, 34160, Note_on_c, 0, 71, 85
2, 34192, Note_on_c, 0, 71, 0
2, 34192, Note_on_c, 0, 69, 0
2, 34200, Note_on_c, 0, 68, 85
2, 34200, Note_on_c, 0, 84, 85
2, 34232, Note_on_c, 0, 84, 0
2, 34232, Note_on_c, 0, 68, 0
2, 34240, Note_on_c, 0, 72, 85
2, 34240, Note_on_c, 0, 74, 85
2, 34272, Note_on_c, 0, 74, 0
2, 34272, Note_on_c, 0, 72, 0
2, 34280, Note_on_c, 0, 77, 85
2, 34280, Note_on_c, 0, 67, 85
2, 34312, Note_on_c, 0, 67, 0
2, 34312, Note_on_c, 0, 77, 0
2, 34320, Note_on_c, 0, 80, 85
2, 34320, Note_on_c, 0, 68, 85
2, 34352, Note_on_c, 0, 68, 0
2, 34352, Note_on_c, 0, 80, 0
2, 34360, Note_on_c, 0, 71, 85
2, 34360, Note_on_c, 0, 65, 85
2, 34392, Note_on_c, 0, 65, 0
2, 34392, Note_on_c, 0, 71, 0
2, 34400, Note_on_c, 0, 74, 85
2, 34400, Note_on_c, 0, 67, 85
2, 34432, Note_on_c, 0, 67, 0
2, 34432, Note_on_c, 0, 74, 0
2, 34440, Note_on_c, 0, 63, 85
2, 34440, Note_on_c, 0, 77, 85
2, 34472, Note_on_c, 0, 77, 0
2, 34472, Note_on_c, 0, 63, 0
2, 34480, Note_on_c, 0, 65, 85
2, 34480, Note_on_c, 0, 68, 85
2, 34512, Note_on_c, 0, 68, 0
2, 34512, Note_on_c, 0, 65, 0
2, 34520, Note_on_c, 0, 71, 85
2, 34520, Note_on_c, 0, 62, 85
2, 34552, Note_on_c, 0, 62, 0
2, 34552, Note_on_c, 0, 71, 0
2, 34560, Note_on_c, 0, 63, 85
2, 34560, Note_on_c, 0, 74, 85
2, 34592, Note_on_c, 0, 74, 0
2, 34592, Note_on_c, 0, 63, 0
2, 34600, Note_on_c, 0, 65, 85
2, 34600, Note_on_c, 0, 60, 85
2, 34632, Note_on_c, 0, 60, 0
2, 34632, Note_on_c, 0, 65, 0
2, 34640, Note_on_c, 0, 62, 85
2, 34640, Note_on_c, 0, 68, 85
2, 34672, Note_on_c, 0, 68, 0
2, 34672, Note_on_c, 0, 62, 0
2, 34680, Note_on_c, 0, 72, 85
2, 34680, Note_on_c, 0, 56, 85
2, 34712, Note_on_c, 0, 56, 0
2, 34712, Note_on_c, 0, 72, 0
2, 34720, Note_on_c, 0, 60, 85
2, 34720, Note_on_c, 0, 62, 85
2, 34752, Note_on_c, 0, 62, 0
2, 34752, Note_on_c, 0, 60, 0
2, 34760, Note_on_c, 0, 65, 85
2, 34760, Note_on_c, 0, 55, 85
2, 34792, Note_on_c, 0, 55, 0
2, 34792, Note_on_c, 0, 65, 0
2, 34800, Note_on_c, 0, 57, 85
2, 34800, Note_on_c, 0, 68, 85
2, 34832, Note_on_c, 0, 68, 0
2, 34832, Note_on_c, 0, 57, 0
2, 34840, Note_on_c, 0, 59, 85
2, 34840, Note_on_c, 0, 53, 85
2, 34872, Note_on_c, 0, 53, 0
2, 34872, Note_on_c, 0, 59, 0
2, 34880, Note_on_c, 0, 55, 85
2, 34880, Note_on_c, 0, 62, 85
2, 34912, Note_on_c, 0, 62, 0
2, 34912, Note_on_c, 0, 55, 0
2, 34920, Note_on_c, 0, 51, 85
2, 34920, Note_on_c, 0, 65, 85
2, 34952, Note_on_c, 0, 65, 0
2, 34952, Note_on_c, 0, 51, 0
2, 34960, Note_on_c, 0, 53, 85
2, 34960, Note_on_c, 0, 56, 85
2, 34992, Note_on_c, 0, 56, 0
2, 34992, Note_on_c, 0, 53, 0
2, 35000, Note_on_c, 0, 50, 85
2, 35000, Note_on_c, 0, 59, 85
2, 35032, Note_on_c, 0, 59, 0
2, 35032, Note_on_c, 0, 50, 0
2, 35040, Note_on_c, 0, 51, 85
2, 35040, Note_on_c, 0, 62, 85
2, 35072, Note_on_c, 0, 62, 0
2, 35072, Note_on_c, 0, 51, 0
2, 35080, Note_on_c, 0, 50, 85
2, 35080, Note_on_c, 0, 53, 85
2, 35112, Note_on_c, 0, 53, 0
2, 35112, Note_on_c, 0, 50, 0
2, 35120, Note_on_c, 0, 47, 85
2, 35120, Note_on_c, 0, 56, 85
2, 35152, Note_on_c, 0, 56, 0
2, 35152, Note_on_c, 0, 47, 0
2, 35160, Note_on_c, 0, 36, 85
2, 35160, Note_on_c, 0, 60, 85
2, 35256, Note_on_c, 0, 60, 0
2, 35256, Note_on_c, 0, 36, 0
2, 35280, Note_on_c, 0, 55, 85
2, 35280, Note_on_c, 0, 52, 85
2, 35280, Note_on_c, 0, 84, 85
2, 35280, Note_on_c, 0, 79, 85
2, 35280, Note_on_c, 0, 76, 85
2, 35280, Note_on_c, 0, 72, 85
2, 35280, Note_on_c, 0, 64, 85
2, 35280, Note_on_c, 0, 60, 85
2, 35376, Note_on_c, 0, 60, 0
2, 35376, Note_on_c, 0, 55, 0
2, 35376, Note_on_c, 0, 76, 0
2, 35376, Note_on_c, 0, 52, 0
2, 35376, Note_on_c, 0, 84, 0
2, 35376, Note_on_c, 0, 79, 0
2, 35376, Note_on_c, 0, 72, 0
2, 35376, Note_on_c, 0, 64, 0
2, 35400, Note_on_c, 0, 52, 85
2, 35400, Note_on_c, 0, 43, 85
2, 35400, Note_on_c, 0, 36, 85
2, 35400, Note_on_c, 0, 72, 85
2, 35400, Note_on_c, 0, 67, 85
2, 35400, Note_on_c, 0, 64, 85
2, 35400, Note_on_c, 0, 60, 85
2, 35592, Note_on_c, 0, 60, 0
2, 35592, Note_on_c, 0, 67, 0
2, 35592, Note_on_c, 0, 43, 0
2, 35592, Note_on_c, 0, 36, 0
2, 35592, Note_on_c, 0, 52, 0
2, 35592, Note_on_c, 0, 64, 0
2, 35592, Note_on_c, 0, 72, 0
2, 35640, Note_on_c, 0, 67, 85
2, 35640, Note_on_c, 0, 55, 85
2, 35784, Note_on_c, 0, 55, 0
2, 35784, Note_on_c, 0, 67, 0
2, 35850, Note_on_c, 0, 60, 85
2, 35850, Note_on_c, 0, 72, 85
2, 35874, Note_on_c, 0, 72, 0
2, 35874, Note_on_c, 0, 60, 0
2, 35880, Note_on_c, 0, 67, 85
2, 35880, Note_on_c, 0, 79, 85
2, 36264, Note_on_c, 0, 79, 0
2, 36264, Note_on_c, 0, 67, 0
2, 36330, Note_on_c, 0, 64, 85
2, 36330, Note_on_c, 0, 76, 85
2, 36354, Note_on_c, 0, 76, 0
2, 36354, Note_on_c, 0, 64, 0
2, 36360, Note_on_c, 0, 79, 85
2, 36360, Note_on_c, 0, 67, 85
2, 36504, Note_on_c, 0, 67, 0
2, 36504, Note_on_c, 0, 79, 0
2, 36570, Note_on_c, 0, 76, 85
2, 36570, Note_on_c, 0, 64, 85
2, 36594, Note_on_c, 0, 64, 0
2, 36594, Note_on_c, 0, 76, 0
2, 36600, Note_on_c, 0, 67, 85
2, 36600, Note_on_c, 0, 79, 85
2, 36744, Note_on_c, 0, 79, 0
2, 36744, Note_on_c, 0, 67, 0
2, 36780, Note_on_c, 0, 76, 85
2, 36780, Note_on_c, 0, 70, 85
2, 36796, Note_on_c, 0, 76, 0
2, 36800, Note_on_c, 0, 79, 85
2, 36816, Note_on_c, 0, 79, 0
2, 36820, Note_on_c, 0, 81, 85
2, 36828, Note_on_c, 0, 70, 0
2, 36836, Note_on_c, 0, 81, 0
2, 36840, Note_on_c, 0, 73, 85
2, 36840, Note_on_c, 0, 82, 85
2, 37032, Note_on_c, 0, 82, 0
2, 37032, Note_on_c, 0, 73, 0
2, 37260, Note_on_c, 0, 71, 85
2, 37260, Note_on_c, 0, 75, 85
2, 37260, Note_on_c, 0, 78, 85
2, 37308, Note_on_c, 0, 78, 0
2, 37308, Note_on_c, 0, 75, 0
2, 37308, Note_on_c, 0, 71, 0
2, 37320, Note_on_c, 0, 77, 85
2, 37320, Note_on_c, 0, 70, 85
2, 37320, Note_on_c, 0, 74, 85
2, 37512, Note_on_c, 0, 74, 0
2, 37512, Note_on_c, 0, 77, 0
2, 37560, Note_on_c, 0, 75, 85
2, 37560, Note_on_c, 0, 78, 85
2, 37704, Note_on_c, 0, 78, 0
2, 37704, Note_on_c, 0, 75, 0
2, 37704, Note_on_c, 0, 70, 0
2, 37740, Note_on_c, 0, 80, 85
2, 37740, Note_on_c, 0, 76, 85
2, 37740, Note_on_c, 0, 72, 85
2, 37756, Note_on_c, 0, 72, 0
2, 37760, Note_on_c, 0, 72, 85
2, 37776, Note_on_c, 0, 72, 0
2, 37780, Note_on_c, 0, 72, 85
2, 37788, Note_on_c, 0, 76, 0
2, 37788, Note_on_c, 0, 80, 0
2, 37796, Note_on_c, 0, 72, 0
2, 37800, Note_on_c, 0, 74, 85
2, 37800, Note_on_c, 0, 76, 85
2, 37800, Note_on_c, 0, 70, 85
2, 38088, Note_on_c, 0, 70, 0
2, 38088, Note_on_c, 0, 76, 0
2, 38088, Note_on_c, 0, 74, 0
2, 38220, Note_on_c, 0, 70, 85
2, 38220, Note_on_c, 0, 75, 85
2, 38220, Note_on_c, 0, 67, 85
2, 38268, Note_on_c, 0, 67, 0
2, 38268, Note_on_c, 0, 75, 0
2, 38268, Note_on_c, 0, 70, 0
2, 38280, Note_on_c, 0, 65, 85
2, 38280, Note_on_c, 0, 73, 85
2, 38280, Note_on_c, 0, 68, 85
2, 38472, Note_on_c, 0, 68, 0
2, 38472, Note_on_c, 0, 73, 0
2, 38472, Note_on_c, 0, 65, 0
2, 38520, Note_on_c, 0, 75, 85
2, 38520, Note_on_c, 0, 70, 85
2, 38520, Note_on_c, 0, 67, 85
2, 38664, Note_on_c, 0, 67, 0
2, 38664, Note_on_c, 0, 70, 0
2, 38664, Note_on_c, 0, 75, 0
2, 38700, Note_on_c, 0, 66, 85
2, 38700, Note_on_c, 0, 68, 85
2, 38700, Note_on_c, 0, 64, 85
2, 38748, Note_on_c, 0, 64, 0
2, 38748, Note_on_c, 0, 68, 0
2, 38748, Note_on_c, 0, 66, 0
2, 38760, Note_on_c, 0, 70, 85
2, 38760, Note_on_c, 0, 65, 85
2, 38760, Note_on_c, 0, 62, 85
2, 39144, Note_on_c, 0, 62, 0
2, 39144, Note_on_c, 0, 65, 0
2, 39144, Note_on_c, 0, 70, 0
2, 39240, Note_on_c, 0, 51, 85
2, 39240, Note_on_c, 0, 66, 85
2, 39240, Note_on_c, 0, 77, 85
2, 39252, Note_on_c, 0, 77, 0
2, 39255, Note_on_c, 0, 78, 85
2, 39267, Note_on_c, 0, 78, 0
2, 39270, Note_on_c, 0, 80, 85
2, 39282, Note_on_c, 0, 80, 0
2, 39285, Note_on_c, 0, 82, 85
2, 39297, Note_on_c, 0, 82, 0
2, 39300, Note_on_c, 0, 87, 85
2, 39300, Note_on_c, 0, 77, 85
2, 39432, Note_on_c, 0, 66, 0
2, 39432, Note_on_c, 0, 51, 0
2, 39444, Note_on_c, 0, 87, 0
2, 39444, Note_on_c, 0, 77, 0
2, 39480, Note_on_c, 0, 75, 85
2, 39480, Note_on_c, 0, 65, 85
2, 39480, Note_on_c, 0, 85, 85
2, 39480, Note_on_c, 0, 55, 85
2, 39624, Note_on_c, 0, 55, 0
2, 39624, Note_on_c, 0, 75, 0
2, 39624, Note_on_c, 0, 65, 0
2, 39624, Note_on_c, 0, 85, 0
2, 39660, Note_on_c, 0, 78, 85
2, 39660, Note_on_c, 0, 59, 85
2, 39660, Note_on_c, 0, 87, 85
2, 39708, Note_on_c, 0, 87, 0
2, 39708, Note_on_c, 0, 59, 0
2, 39708, Note_on_c, 0, 78, 0
2, 39720, Note_on_c, 0, 89, 85
2, 39720, Note_on_c, 0, 82, 85
2, 39720, Note_on_c, 0, 64, 85
2, 39720, Note_on_c, 0, 67, 85
2, 40008, Note_on_c, 0, 67, 0
2, 40008, Note_on_c, 0, 89, 0
2, 40008, Note_on_c, 0, 82, 0
2, 40080, Note_on_c, 0, 74, 85
2, 40080, Note_on_c, 0, 90, 85
2, 40080, Note_on_c, 0, 80, 85
2, 40176, Note_on_c, 0, 80, 0
2, 40176, Note_on_c, 0, 90, 0
2, 40176, Note_on_c, 0, 74, 0
2, 40200, Note_on_c, 0, 89, 85
2, 40200, Note_on_c, 0, 71, 85
2, 40200, Note_on_c, 0, 78, 85
2, 40392, Note_on_c, 0, 78, 0
2, 40392, Note_on_c, 0, 71, 0
2, 40392, Note_on_c, 0, 89, 0
2, 40440, Note_on_c, 0, 87, 85
2, 40440, Note_on_c, 0, 77, 85
2, 40440, Note_on_c, 0, 67, 85
2, 40584, Note_on_c, 0, 67, 0
2, 40584, Note_on_c, 0, 64, 0
2, 40584, Note_on_c, 0, 87, 0
2, 40584, Note_on_c, 0, 77, 0
2, 40620, Note_on_c, 0, 75, 85
2, 40620, Note_on_c, 0, 85, 85
2, 40620, Note_on_c, 0, 65, 85
2, 40620, Note_on_c, 0, 60, 85
2, 40668, Note_on_c, 0, 60, 0
2, 40668, Note_on_c, 0, 75, 0
2, 40668, Note_on_c, 0, 85, 0
2, 40680, Note_on_c, 0, 74, 85
2, 40680, Note_on_c, 0, 82, 85
2, 40680, Note_on_c, 0, 59, 85
2, 40968, Note_on_c, 0, 82, 0
2, 40968, Note_on_c, 0, 74, 0
2, 41064, Note_on_c, 0, 65, 0
2, 41064, Note_on_c, 0, 59, 0
2, 41100, Note_on_c, 0, 70, 85
2, 41148, Note_on_c, 0, 70, 0
2, 41160, Note_on_c, 0, 70, 85
2, 41160, Note_on_c, 0, 63, 85
2, 41160, Note_on_c, 0, 59, 85
2, 41184, Note_on_c, 0, 59, 0
2, 41190, Note_on_c, 0, 61, 85
2, 41214, Note_on_c, 0, 61, 0
2, 41220, Note_on_c, 0, 59, 85
2, 41352, Note_on_c, 0, 63, 0
2, 41352, Note_on_c, 0, 70, 0
2, 41364, Note_on_c, 0, 59, 0
2, 41400, Note_on_c, 0, 65, 85
2, 41400, Note_on_c, 0, 68, 85
2, 41400, Note_on_c, 0, 61, 85
2, 41544, Note_on_c, 0, 61, 0
2, 41544, Note_on_c, 0, 68, 0
2, 41580, Note_on_c, 0, 73, 85
2, 41580, Note_on_c, 0, 59, 85
2, 41628, Note_on_c, 0, 59, 0
2, 41628, Note_on_c, 0, 73, 0
2, 41628, Note_on_c, 0, 65, 0
2, 41640, Note_on_c, 0, 61, 85
2, 41640, Note_on_c, 0, 58, 85
2, 41640, Note_on_c, 0, 66, 85
2, 42024, Note_on_c, 0, 66, 0
2, 42024, Note_on_c, 0, 58, 0
2, 42024, Note_on_c, 0, 61, 0
2, 42060, Note_on_c, 0, 63, 85
2, 42060, Note_on_c, 0, 59, 85
2, 42084, Note_on_c, 0, 59, 0
2, 42084, Note_on_c, 0, 63, 0
2, 42090, Note_on_c, 0, 61, 85
2, 42090, Note_on_c, 0, 58, 85
2, 42114, Note_on_c, 0, 58, 0
2, 42114, Note_on_c, 0, 61, 0
2, 42120, Note_on_c, 0, 66, 85
2, 42120, Note_on_c, 0, 59, 85
2, 42120, Note_on_c, 0, 56, 85
2, 42312, Note_on_c, 0, 56, 0
2, 42312, Note_on_c, 0, 59, 0
2, 42312, Note_on_c, 0, 66, 0
2, 42360, Note_on_c, 0, 58, 85
2, 42360, Note_on_c, 0, 65, 85
2, 42360, Note_on_c, 0, 62, 85
2, 42504, Note_on_c, 0, 65, 0
2, 42504, Note_on_c, 0, 58, 0
2, 42540, Note_on_c, 0, 56, 85
2, 42540, Note_on_c, 0, 70, 85
2, 42588, Note_on_c, 0, 70, 0
2, 42588, Note_on_c, 0, 56, 0
2, 42588, Note_on_c, 0, 62, 0
2, 42600, Note_on_c, 0, 54, 85
2, 42600, Note_on_c, 0, 58, 85
2, 42600, Note_on_c, 0, 63, 85
2, 42888, Note_on_c, 0, 63, 0
2, 42888, Note_on_c, 0, 58, 0
2, 42888, Note_on_c, 0, 54, 0
2, 43020, Note_on_c, 0, 30, 85
2, 43020, Note_on_c, 0, 42, 85
2, 43020, Note_on_c, 0, 53, 85
2, 43020, Note_on_c, 0, 58, 85
2, 43020, Note_on_c, 0, 63, 85
2, 43068, Note_on_c, 0, 63, 0
2, 43068, Note_on_c, 0, 53, 0
2, 43068, Note_on_c, 0, 30, 0
2, 43068, Note_on_c, 0, 42, 0
2, 43068, Note_on_c, 0, 58, 0
2, 43080, Note_on_c, 0, 44, 85
2, 43080, Note_on_c, 0, 32, 85
2, 43080, Note_on_c, 0, 55, 85
2, 43080, Note_on_c, 0, 60, 85
2, 43080, Note_on_c, 0, 65, 85
2, 43272, Note_on_c, 0, 65, 0
2, 43272, Note_on_c, 0, 55, 0
2, 43272, Note_on_c, 0, 44, 0
2, 43272, Note_on_c, 0, 32, 0
2, 43272, Note_on_c, 0, 60, 0
2, 43320, Note_on_c, 0, 67, 85
2, 43320, Note_on_c, 0, 34, 85
2, 43320, Note_on_c, 0, 46, 85
2, 43320, Note_on_c, 0, 57, 85
2, 43320, Note_on_c, 0, 62, 85
2, 43464, Note_on_c, 0, 62, 0
2, 43464, Note_on_c, 0, 46, 0
2, 43464, Note_on_c, 0, 67, 0
2, 43464, Note_on_c, 0, 34, 0
2, 43464, Note_on_c, 0, 57, 0
2, 43500, Note_on_c, 0, 36, 85
2, 43500, Note_on_c, 0, 48, 85
2, 43500, Note_on_c, 0, 59, 85
2, 43500, Note_on_c, 0, 64, 85
2, 43500, Note_on_c, 0, 69, 85
2, 43548, Note_on_c, 0, 64, 0
2, 43548, Note_on_c, 0, 59, 0
2, 43548, Note_on_c, 0, 36, 0
2, 43548, Note_on_c, 0, 48, 0
2, 43560, Note_on_c, 0, 38, 85
2, 43560, Note_on_c, 0, 50, 85
2, 43560, Note_on_c, 0, 61, 85
2, 43560, Note_on_c, 0, 66, 85
2, 43848, Note_on_c, 0, 66, 0
2, 43848, Note_on_c, 0, 50, 0
2, 43848, Note_on_c, 0, 69, 0
2, 43848, Note_on_c, 0, 38, 0
2, 43848, Note_on_c, 0, 61, 0
2, 43980, Note_on_c, 0, 50, 85
2, 43980, Note_on_c, 0, 40, 85
2, 43980, Note_on_c, 0, 60, 85
2, 43980, Note_on_c, 0, 55, 85
2, 44028, Note_on_c, 0, 55, 0
2, 44028, Note_on_c, 0, 50, 0
2, 44028, Note_on_c, 0, 40, 0
2, 44028, Note_on_c, 0, 60, 0
2, 44040, Note_on_c, 0, 62, 85
2, 44040, Note_on_c, 0, 42, 85
2, 44040, Note_on_c, 0, 52, 85
2, 44040, Note_on_c, 0, 57, 85
2, 44232, Note_on_c, 0, 57, 0
2, 44232, Note_on_c, 0, 62, 0
2, 44232, Note_on_c, 0, 42, 0
2, 44232, Note_on_c, 0, 52, 0
2, 44280, Note_on_c, 0, 43, 85
2, 44280, Note_on_c, 0, 54, 85
2, 44280, Note_on_c, 0, 59, 85
2, 44280, Note_on_c, 0, 64, 85
2, 44424, Note_on_c, 0, 64, 0
2, 44424, Note_on_c, 0, 43, 0
2, 44424, Note_on_c, 0, 54, 0
2, 44424, Note_on_c, 0, 59, 0
2, 44460, Note_on_c, 0, 33, 85
2, 44460, Note_on_c, 0, 45, 85
2, 44460, Note_on_c, 0, 56, 85
2, 44460, Note_on_c, 0, 61, 85
2, 44508, Note_on_c, 0, 61, 0
2, 44508, Note_on_c, 0, 33, 0
2, 44508, Note_on_c, 0, 45, 0
2, 44520, Note_on_c, 0, 34, 85
2, 44520, Note_on_c, 0, 46, 85
2, 44520, Note_on_c, 0, 70, 85
2, 44520, Note_on_c, 0, 63, 85
2, 44904, Note_on_c, 0, 63, 0
2, 44904, Note_on_c, 0, 46, 0
2, 44904, Note_on_c, 0, 56, 0
2, 44904, Note_on_c, 0, 34, 0
2, 44904, Note_on_c, 0, 70, 0
2, 45000, Note_on_c, 0, 39, 85
2, 45000, Note_on_c, 0, 75, 85
2, 45000, Note_on_c, 0, 67, 85
2, 45000, Note_on_c, 0, 70, 85
2, 45000, Note_on_c, 0, 63, 85
2, 45000, Note_on_c, 0, 27, 85
2, 45192, Note_on_c, 0, 27, 0
2, 45192, Note_on_c, 0, 75, 0
2, 45192, Note_on_c, 0, 67, 0
2, 45192, Note_on_c, 0, 39, 0
2, 45192, Note_on_c, 0, 63, 0
2, 45192, Note_on_c, 0, 70, 0
2, 45240, Note_on_c, 0, 51, 85
2, 45240, Note_on_c, 0, 39, 85
2, 45240, Note_on_c, 0, 70, 85
2, 45240, Note_on_c, 0, 63, 85
2, 45240, Note_on_c, 0, 58, 85
2, 45240, Note_on_c, 0, 67, 85
2, 45384, Note_on_c, 0, 67, 0
2, 45384, Note_on_c, 0, 39, 0
2, 45384, Note_on_c, 0, 70, 0
2, 45384, Note_on_c, 0, 51, 0
2, 45384, Note_on_c, 0, 58, 0
2, 45384, Note_on_c, 0, 63, 0
2, 45450, Note_on_c, 0, 75, 85
2, 45450, Note_on_c, 0, 62, 85
2, 45450, Note_on_c, 0, 80, 85
2, 45450, Note_on_c, 0, 82, 85
2, 45450, Note_on_c, 0, 87, 85
2, 45450, Note_on_c, 0, 92, 85
2, 45474, Note_on_c, 0, 92, 0
2, 45474, Note_on_c, 0, 62, 0
2, 45474, Note_on_c, 0, 80, 0
2, 45474, Note_on_c, 0, 75, 0
2, 45474, Note_on_c, 0, 87, 0
2, 45474, Note_on_c, 0, 82, 0
2, 45480, Note_on_c, 0, 79, 85
2, 45480, Note_on_c, 0, 75, 85
2, 45480, Note_on_c, 0, 63, 85
2, 45480, Note_on_c, 0, 87, 85
2, 45480, Note_on_c, 0, 91, 85
2, 45480, Note_on_c, 0, 82, 85
2, 45672, Note_on_c, 0, 82, 0
2, 45672, Note_on_c, 0, 75, 0
2, 45672, Note_on_c, 0, 63, 0
2, 45672, Note_on_c, 0, 79, 0
2, 45672, Note_on_c, 0, 91, 0
2, 45672, Note_on_c, 0, 87, 0
2, 45840, Note_on_c, 0, 51, 85
2, 45840, Note_on_c, 0, 39, 85
2, 45840, Note_on_c, 0, 58, 85
2, 45840, Note_on_c, 0, 63, 85
2, 45840, Note_on_c, 0, 67, 85
2, 45840, Note_on_c, 0, 70, 85
2, 45936, Note_on_c, 0, 70, 0
2, 45936, Note_on_c, 0, 39, 0
2, 45936, Note_on_c, 0, 58, 0
2, 45936, Note_on_c, 0, 51, 0
2, 45936, Note_on_c, 0, 67, 0
2, 45936, Note_on_c, 0, 63, 0
2, 45960, Note_on_c, 0, 39, 85
2, 45960, Note_on_c, 0, 67, 85
2, 45960, Note_on_c, 0, 27, 85
2, 45960, Note_on_c, 0, 75, 85
2, 45960, Note_on_c, 0, 63, 85
2, 45960, Note_on_c, 0, 70, 85
2, 46152, Note_on_c, 0, 70, 0
2, 46152, Note_on_c, 0, 67, 0
2, 46152, Note_on_c, 0, 27, 0
2, 46152, Note_on_c, 0, 39, 0
2, 46152, Note_on_c, 0, 63, 0
2, 46152, Note_on_c, 0, 75, 0
2, 46200, Note_on_c, 0, 63, 85
2, 46200, Note_on_c, 0, 39, 85
2, 46200, Note_on_c, 0, 58, 85
2, 46200, Note_on_c, 0, 70, 85
2, 46200, Note_on_c, 0, 51, 85
2, 46200, Note_on_c, 0, 67, 85
2, 46344, Note_on_c, 0, 67, 0
2, 46344, Note_on_c, 0, 39, 0
2, 46344, Note_on_c, 0, 58, 0
2, 46344, Note_on_c, 0, 63, 0
2, 46344, Note_on_c, 0, 51, 0
2, 46344, Note_on_c, 0, 70, 0
2, 46410, Note_on_c, 0, 87, 85
2, 46410, Note_on_c, 0, 80, 85
2, 46410, Note_on_c, 0, 62, 85
2, 46410, Note_on_c, 0, 75, 85
2, 46410, Note_on_c, 0, 82, 85
2, 46410, Note_on_c, 0, 92, 85
2, 46434, Note_on_c, 0, 92, 0
2, 46434, Note_on_c, 0, 80, 0
2, 46434, Note_on_c, 0, 62, 0
2, 46434, Note_on_c, 0, 87, 0
2, 46434, Note_on_c, 0, 82, 0
2, 46434, Note_on_c, 0, 75, 0
2, 46440, Note_on_c, 0, 63, 85
2, 46440, Note_on_c, 0, 82, 85
2, 46440, Note_on_c, 0, 87, 85
2, 46440, Note_on_c, 0, 79, 85
2, 46440, Note_on_c, 0, 91, 85
2, 46440, Note_on_c, 0, 75, 85
2, 46632, Note_on_c, 0, 75, 0
2, 46632, Note_on_c, 0, 82, 0
2, 46632, Note_on_c, 0, 87, 0
2, 46632, Note_on_c, 0, 63, 0
2, 46632, Note_on_c, 0, 91, 0
2, 46632, Note_on_c, 0, 79, 0
2, 46800, Note_on_c, 0, 39, 85
2, 46800, Note_on_c, 0, 51, 85
2, 46800, Note_on_c, 0, 58, 85
2, 46800, Note_on_c, 0, 63, 85
2, 46800, Note_on_c, 0, 67, 85
2, 46800, Note_on_c, 0, 70, 85
2, 46896, Note_on_c, 0, 70, 0
2, 46896, Note_on_c, 0, 51, 0
2, 46896, Note_on_c, 0, 58, 0
2, 46896, Note_on_c, 0, 39, 0
2, 46896, Note_on_c, 0, 67, 0
2, 46896, Note_on_c, 0, 63, 0
2, 46920, Note_on_c, 0, 67, 85
2, 46920, Note_on_c, 0, 27, 85
2, 46920, Note_on_c, 0, 75, 85
2, 46920, Note_on_c, 0, 63, 85
2, 46920, Note_on_c, 0, 70, 85
2, 46920, Note_on_c, 0, 39, 85
2, 47112, Note_on_c, 0, 39, 0
2, 47112, Note_on_c, 0, 27, 0
2, 47112, Note_on_c, 0, 75, 0
2, 47112, Note_on_c, 0, 67, 0
2, 47112, Note_on_c, 0, 70, 0
2, 47112, Note_on_c, 0, 63, 0
2, 47160, Note_on_c, 0, 67, 85
2, 47160, Note_on_c, 0, 63, 85
2, 47160, Note_on_c, 0, 39, 85
2, 47160, Note_on_c, 0, 58, 85
2, 47160, Note_on_c, 0, 70, 85
2, 47160, Note_on_c, 0, 51, 85
2, 47304, Note_on_c, 0, 51, 0
2, 47304, Note_on_c, 0, 63, 0
2, 47304, Note_on_c, 0, 39, 0
2, 47304, Note_on_c, 0, 67, 0
2, 47304, Note_on_c, 0, 70, 0
2, 47304, Note_on_c, 0, 58, 0
2, 47370, Note_on_c, 0, 58, 85
2, 47370, Note_on_c, 0, 70, 85
2, 47370, Note_on_c, 0, 87, 85
2, 47370, Note_on_c, 0, 82, 85
2, 47370, Note_on_c, 0, 80, 85
2, 47370, Note_on_c, 0, 75, 85
2, 47394, Note_on_c, 0, 75, 0
2, 47394, Note_on_c, 0, 70, 0
2, 47394, Note_on_c, 0, 87, 0
2, 47394, Note_on_c, 0, 58, 0
2, 47394, Note_on_c, 0, 80, 0
2, 47394, Note_on_c, 0, 82, 0
2, 47400, Note_on_c, 0, 70, 85
2, 47400, Note_on_c, 0, 60, 85
2, 47400, Note_on_c, 0, 82, 85
2, 47400, Note_on_c, 0, 87, 85
2, 47400, Note_on_c, 0, 94, 85
2, 47592, Note_on_c, 0, 94, 0
2, 47592, Note_on_c, 0, 82, 0
2, 47592, Note_on_c, 0, 70, 0
2, 47592, Note_on_c, 0, 60, 0
2, 47592, Note_on_c, 0, 87, 0
2, 47760, Note_on_c, 0, 22, 85
2, 47760, Note_on_c, 0, 34, 85
2, 47760, Note_on_c, 0, 58, 85
2, 47760, Note_on_c, 0, 63, 85
2, 47760, Note_on_c, 0, 68, 85
2, 47760, Note_on_c, 0, 70, 85
2, 47856, Note_on_c, 0, 70, 0
2, 47856, Note_on_c, 0, 34, 0
2, 47856, Note_on_c, 0, 58, 0
2, 47856, Note_on_c, 0, 22, 0
2, 47856, Note_on_c, 0, 68, 0
2, 47856, Note_on_c, 0, 63, 0
2, 47880, Note_on_c, 0, 75, 85
2, 47880, Note_on_c, 0, 70, 85
2, 47880, Note_on_c, 0, 68, 85
2, 47880, Note_on_c, 0, 63, 85
2, 47880, Note_on_c, 0, 34, 85
2, 47880, Note_on_c, 0, 46, 85
2, 48072, Note_on_c, 0, 46, 0
2, 48072, Note_on_c, 0, 70, 0
2, 48072, Note_on_c, 0, 68, 0
2, 48072, Note_on_c, 0, 75, 0
2, 48072, Note_on_c, 0, 34, 0
2, 48072, Note_on_c, 0, 63, 0
2, 48120, Note_on_c, 0, 58, 85
2, 48120, Note_on_c, 0, 63, 85
2, 48120, Note_on_c, 0, 68, 85
2, 48120, Note_on_c, 0, 70, 85
2, 48264, Note_on_c, 0, 70, 0
2, 48264, Note_on_c, 0, 58, 0
2, 48264, Note_on_c, 0, 63, 0
2, 48264, Note_on_c, 0, 68, 0
2, 48330, Note_on_c, 0, 70, 85
2, 48330, Note_on_c, 0, 60, 85
2, 48354, Note_on_c, 0, 70, 0
2, 48360, Note_on_c, 0, 82, 85
2, 48360, Note_on_c, 0, 72, 85
2, 48552, Note_on_c, 0, 82, 0
2, 48720, Note_on_c, 0, 58, 85
2, 48744, Note_on_c, 0, 72, 0
2, 48744, Note_on_c, 0, 60, 0
2, 48816, Note_on_c, 0, 58, 0
2, 48840, Note_on_c, 0, 70, 85
2, 48840, Note_on_c, 0, 60, 85
2, 48840, Note_on_c, 0, 72, 85
2, 48936, Note_on_c, 0, 70, 0
2, 49200, Note_on_c, 0, 70, 85
2, 49224, Note_on_c, 0, 72, 0
2, 49296, Note_on_c, 0, 70, 0
2, 49320, Note_on_c, 0, 72, 85
2, 49320, Note_on_c, 0, 94, 85
2, 49512, Note_on_c, 0, 94, 0
2, 49704, Note_on_c, 0, 72, 0
2, 49704, Note_on_c, 0, 60, 0
2, 49800, Note_on_c, 0, 43, 85
2, 49800, Note_on_c, 0, 46, 85
2, 49800, Note_on_c, 0, 51, 85
2, 49800, Note_on_c, 0, 55, 85
2, 49800, Note_on_c, 0, 55, 85
2, 49800, Note_on_c, 0, 58, 85
2, 49800, Note_on_c, 0, 63, 85
2, 49800, Note_on_c, 0, 67, 85
2, 50520, Note_on_c, 0, 67, 0
2, 50520, Note_on_c, 0, 43, 0
2, 50520, Note_on_c, 0, 55, 0
2, 50520, Note_on_c, 0, 46, 0
2, 50520, Note_on_c, 0, 51, 0
2, 50520, Note_on_c, 0, 55, 0
2, 50520, Note_on_c, 0, 58, 0
2, 50520, Note_on_c, 0, 63, 0
2, 50520, Note_on_c, 0, 43, 85
2, 50520, Note_on_c, 0, 46, 85
2, 50520, Note_on_c, 0, 55, 85
2, 50520, Note_on_c, 0, 55, 85
2, 50520, Note_on_c, 0, 58, 85
2, 50520, Note_on_c, 0, 67, 85
2, 51000, Note_on_c, 0, 67, 0
2, 51000, Note_on_c, 0, 46, 0
2, 51000, Note_on_c, 0, 55, 0
2, 51000, Note_on_c, 0, 43, 0
2, 51000, Note_on_c, 0, 58, 0
2, 51000, Note_on_c, 0, 55, 0
2, 51000, Note_on_c, 0, 67, 85
2, 51000, Note_on_c, 0, 82, 85
2, 51120, Note_on_c, 0, 82, 0
2, 51120, Note_on_c, 0, 67, 0
2, 51240, Note_on_c, 0, 103, 85
2, 51240, Note_on_c, 0, 94, 85
2, 51360, Note_on_c, 0, 94, 0
2, 51360, Note_on_c, 0, 103, 0
2, 51360, End_track
0, 0, End_of_file
