0, 0, Header, 1, 8, 192
1, 0, Start_track
1, 0, Title_t, "66753A"
1, 0, Copyright_t, "May NOT be used for commercial purposes."
1, 0, Text_t, "Roll expression/accent tracks, where present, converted to MIDI velocties.\012"
1, 0, Time_signature, 4, 2, 24, 8
1, 0, Key_signature, 0, "major"
1, 0, Tempo, 500000
1, 0, Marker_t, "Standard MIDI:LPI 119:Tempo  65: 08-23-2003"
1, 0, End_track
2, 0, Start_track
2, 0, Title_t, "Ballade Op 10 No 2 D Major"
2, 4, Control_c, 0, 67, 127
2, 91, Note_on_c, 0, 54, 46
2, 103, Note_on_c, 0, 66, 45
2, 322, Note_on_c, 0, 38, 51
2, 408, Control_c, 0, 64, 127
2, 503, Note_on_c, 0, 57, 50
2, 503, Note_on_c, 0, 69, 44
2, 540, Note_on_c, 0, 66, 0
2, 540, Note_on_c, 0, 54, 0
2, 664, Note_on_c, 0, 45, 54
2, 828, Note_on_c, 0, 66, 47
2, 828, Note_on_c, 0, 78, 46
2, 890, Note_on_c, 0, 57, 0
2, 890, Note_on_c, 0, 69, 0
2, 983, Note_on_c, 0, 50, 53
2, 1149, Note_on_c, 0, 69, 53
2, 1152, Note_on_c, 0, 57, 43
2, 1206, Note_on_c, 0, 66, 0
2, 1209, Note_on_c, 0, 78, 0
2, 1269, Note_on_c, 0, 45, 0
2, 1316, Note_on_c, 0, 45, 48
2, 1507, Note_on_c, 0, 54, 43
2, 1507, Note_on_c, 0, 66, 51
2, 1557, Note_on_c, 0, 69, 0
2, 1560, Note_on_c, 0, 57, 0
2, 1634, Note_on_c, 0, 38, 0
2, 1677, Control_c, 0, 64, 0
2, 1681, Note_on_c, 0, 38, 44
2, 1902, Note_on_c, 0, 69, 49
2, 1912, Note_on_c, 0, 57, 45
2, 1942, Control_c, 0, 64, 127
2, 1954, Note_on_c, 0, 54, 0
2, 1954, Note_on_c, 0, 66, 0
2, 2011, Note_on_c, 0, 45, 0
2, 2070, Note_on_c, 0, 45, 47
2, 2333, Note_on_c, 0, 78, 53
2, 2336, Note_on_c, 0, 66, 51
2, 2366, Note_on_c, 0, 69, 0
2, 2391, Note_on_c, 0, 57, 0
2, 2438, Note_on_c, 0, 50, 0
2, 2497, Note_on_c, 0, 50, 46
2, 2582, Control_c, 0, 67, 0
2, 2788, Note_on_c, 0, 45, 0
2, 2826, Control_c, 0, 64, 0
2, 2831, Note_on_c, 0, 45, 42
2, 2912, Note_on_c, 0, 69, 63
2, 2929, Note_on_c, 0, 66, 0
2, 2932, Note_on_c, 0, 78, 0
2, 3064, Note_on_c, 0, 57, 46
2, 3126, Note_on_c, 0, 66, 47
2, 3206, Note_on_c, 0, 74, 69
2, 3233, Note_on_c, 0, 69, 0
2, 3265, Note_on_c, 0, 38, 0
2, 3278, Control_c, 0, 64, 127
2, 3325, Note_on_c, 0, 50, 0
2, 3392, Note_on_c, 0, 38, 49
2, 3494, Note_on_c, 0, 57, 0
2, 3504, Note_on_c, 0, 45, 0
2, 3533, Note_on_c, 0, 66, 0
2, 3536, Note_on_c, 0, 57, 43
2, 3593, Note_on_c, 0, 66, 54
2, 3648, Note_on_c, 0, 73, 66
2, 3697, Note_on_c, 0, 74, 0
2, 3784, Note_on_c, 0, 45, 49
2, 3801, Note_on_c, 0, 38, 0
2, 4022, Note_on_c, 0, 69, 60
2, 4022, Note_on_c, 0, 71, 64
2, 4027, Note_on_c, 0, 62, 50
2, 4036, Control_c, 0, 64, 0
2, 4061, Note_on_c, 0, 73, 0
2, 4069, Note_on_c, 0, 66, 0
2, 4270, Note_on_c, 0, 50, 55
2, 4299, Note_on_c, 0, 67, 58
2, 4349, Note_on_c, 0, 69, 0
2, 4498, Note_on_c, 0, 61, 42
2, 4537, Note_on_c, 0, 62, 0
2, 4537, Note_on_c, 0, 66, 47
2, 4584, Note_on_c, 0, 69, 62
2, 4607, Note_on_c, 0, 71, 0
2, 4611, Note_on_c, 0, 67, 0
2, 4632, Control_c, 0, 64, 127
2, 4658, Control_c, 0, 67, 127
2, 4663, Note_on_c, 0, 45, 0
2, 4773, Note_on_c, 0, 61, 0
2, 4805, Note_on_c, 0, 45, 49
2, 4810, Control_c, 0, 64, 0
2, 4820, Note_on_c, 0, 50, 0
2, 4824, Note_on_c, 0, 69, 0
2, 4832, Note_on_c, 0, 67, 64
2, 4842, Note_on_c, 0, 66, 0
2, 4845, Note_on_c, 0, 64, 41
2, 4848, Note_on_c, 0, 61, 45
2, 4959, Control_c, 0, 64, 127
2, 5053, Note_on_c, 0, 57, 0
2, 5073, Control_c, 0, 64, 0
2, 5078, Note_on_c, 0, 62, 54
2, 5081, Note_on_c, 0, 66, 65
2, 5088, Note_on_c, 0, 57, 47
2, 5104, Note_on_c, 0, 64, 0
2, 5112, Note_on_c, 0, 61, 0
2, 5114, Note_on_c, 0, 67, 0
2, 5233, Note_on_c, 0, 38, 64
2, 5305, Note_on_c, 0, 45, 0
2, 5432, Control_c, 0, 64, 127
2, 5631, Note_on_c, 0, 45, 45
2, 5639, Note_on_c, 0, 64, 44
2, 5639, Note_on_c, 0, 67, 55
2, 5678, Note_on_c, 0, 62, 0
2, 5683, Note_on_c, 0, 66, 0
2, 5747, Note_on_c, 0, 66, 59
2, 5747, Note_on_c, 0, 69, 60
2, 5780, Note_on_c, 0, 67, 0
2, 5783, Note_on_c, 0, 64, 0
2, 5817, Control_c, 0, 64, 0
2, 5862, Note_on_c, 0, 64, 62
2, 5867, Note_on_c, 0, 61, 61
2, 5902, Note_on_c, 0, 66, 0
2, 5902, Note_on_c, 0, 69, 0
2, 6016, Note_on_c, 0, 50, 62
2, 6055, Note_on_c, 0, 45, 0
2, 6071, Control_c, 0, 67, 0
2, 6157, Control_c, 0, 64, 127
2, 6271, Note_on_c, 0, 57, 0
2, 6293, Control_c, 0, 64, 0
2, 6298, Note_on_c, 0, 45, 51
2, 6308, Note_on_c, 0, 66, 54
2, 6311, Note_on_c, 0, 62, 54
2, 6343, Note_on_c, 0, 64, 0
2, 6343, Note_on_c, 0, 61, 0
2, 6356, Note_on_c, 0, 50, 0
2, 6410, Note_on_c, 0, 64, 47
2, 6410, Note_on_c, 0, 67, 59
2, 6437, Note_on_c, 0, 62, 0
2, 6442, Note_on_c, 0, 66, 0
2, 6502, Note_on_c, 0, 62, 51
2, 6502, Note_on_c, 0, 66, 59
2, 6509, Note_on_c, 0, 59, 47
2, 6539, Note_on_c, 0, 67, 0
2, 6547, Note_on_c, 0, 64, 0
2, 6554, Note_on_c, 0, 38, 0
2, 6706, Note_on_c, 0, 38, 61
2, 6761, Control_c, 0, 64, 127
2, 6764, Note_on_c, 0, 45, 0
2, 6828, Note_on_c, 0, 57, 48
2, 6828, Note_on_c, 0, 69, 64
2, 6831, Note_on_c, 0, 61, 53
2, 6831, Note_on_c, 0, 64, 52
2, 6873, Note_on_c, 0, 66, 0
2, 6881, Note_on_c, 0, 59, 0
2, 6881, Note_on_c, 0, 62, 0
2, 6990, Note_on_c, 0, 45, 66
2, 7109, Control_c, 0, 64, 0
2, 7109, Note_on_c, 0, 55, 51
2, 7172, Note_on_c, 0, 62, 50
2, 7181, Note_on_c, 0, 57, 0
2, 7201, Note_on_c, 0, 61, 0
2, 7206, Note_on_c, 0, 67, 55
2, 7236, Note_on_c, 0, 64, 0
2, 7273, Note_on_c, 0, 71, 47
2, 7289, Note_on_c, 0, 69, 0
2, 7406, Note_on_c, 0, 50, 56
2, 7481, Note_on_c, 0, 45, 0
2, 7490, Control_c, 0, 64, 127
2, 7609, Note_on_c, 0, 61, 50
2, 7617, Note_on_c, 0, 57, 48
2, 7622, Note_on_c, 0, 64, 49
2, 7627, Note_on_c, 0, 69, 53
2, 7642, Control_c, 0, 64, 0
2, 7650, Note_on_c, 0, 62, 0
2, 7662, Note_on_c, 0, 55, 0
2, 7662, Note_on_c, 0, 71, 0
2, 7667, Note_on_c, 0, 67, 0
2, 7724, Control_c, 0, 67, 127
2, 7766, Note_on_c, 0, 45, 56
2, 7960, Note_on_c, 0, 59, 49
2, 7960, Note_on_c, 0, 62, 53
2, 7975, Note_on_c, 0, 66, 59
2, 7988, Note_on_c, 0, 61, 0
2, 7991, Note_on_c, 0, 57, 0
2, 7991, Note_on_c, 0, 69, 0
2, 7991, Note_on_c, 0, 64, 0
2, 8023, Note_on_c, 0, 38, 0
2, 8023, Control_c, 0, 64, 127
2, 8092, Note_on_c, 0, 38, 49
2, 8276, Note_on_c, 0, 45, 0
2, 8276, Note_on_c, 0, 61, 43
2, 8285, Note_on_c, 0, 69, 54
2, 8288, Note_on_c, 0, 57, 44
2, 8288, Note_on_c, 0, 64, 43
2, 8304, Control_c, 0, 64, 0
2, 8319, Note_on_c, 0, 59, 0
2, 8327, Note_on_c, 0, 66, 0
2, 8336, Note_on_c, 0, 62, 0
2, 8441, Note_on_c, 0, 45, 48
2, 8550, Note_on_c, 0, 55, 47
2, 8585, Note_on_c, 0, 57, 0
2, 8597, Note_on_c, 0, 62, 47
2, 8622, Note_on_c, 0, 61, 0
2, 8630, Note_on_c, 0, 67, 49
2, 8677, Control_c, 0, 64, 127
2, 8677, Note_on_c, 0, 71, 63
2, 8685, Note_on_c, 0, 64, 0
2, 8719, Note_on_c, 0, 69, 0
2, 8749, Note_on_c, 0, 50, 0
2, 8818, Note_on_c, 0, 50, 48
2, 8853, Note_on_c, 0, 45, 0
2, 9000, Control_c, 0, 64, 0
2, 9009, Note_on_c, 0, 69, 60
2, 9014, Note_on_c, 0, 57, 45
2, 9014, Note_on_c, 0, 61, 43
2, 9014, Note_on_c, 0, 64, 42
2, 9047, Note_on_c, 0, 62, 0
2, 9051, Note_on_c, 0, 67, 0
2, 9051, Control_c, 0, 67, 0
2, 9064, Note_on_c, 0, 71, 0
2, 9064, Note_on_c, 0, 55, 0
2, 9178, Note_on_c, 0, 45, 41
2, 9352, Note_on_c, 0, 54, 49
2, 9377, Note_on_c, 0, 57, 0
2, 9427, Note_on_c, 0, 62, 54
2, 9456, Note_on_c, 0, 61, 0
2, 9494, Note_on_c, 0, 66, 50
2, 9499, Control_c, 0, 64, 127
2, 9504, Note_on_c, 0, 64, 0
2, 9558, Note_on_c, 0, 74, 71
2, 9583, Note_on_c, 0, 69, 0
2, 9646, Note_on_c, 0, 38, 0
2, 9720, Note_on_c, 0, 38, 66
2, 9822, Note_on_c, 0, 66, 0
2, 9872, Note_on_c, 0, 45, 0
2, 9877, Note_on_c, 0, 69, 56
2, 9880, Note_on_c, 0, 66, 58
2, 9885, Note_on_c, 0, 64, 42
2, 9897, Note_on_c, 0, 62, 0
2, 9902, Note_on_c, 0, 54, 0
2, 9907, Note_on_c, 0, 74, 0
2, 10068, Note_on_c, 0, 45, 51
2, 10071, Note_on_c, 0, 50, 0
2, 10176, Note_on_c, 0, 66, 0
2, 10225, Note_on_c, 0, 62, 43
2, 10225, Note_on_c, 0, 66, 64
2, 10228, Note_on_c, 0, 71, 63
2, 10250, Note_on_c, 0, 69, 0
2, 10255, Note_on_c, 0, 64, 0
2, 10379, Note_on_c, 0, 50, 50
2, 10526, Note_on_c, 0, 57, 51
2, 10563, Note_on_c, 0, 62, 0
2, 10632, Note_on_c, 0, 72, 62
2, 10659, Note_on_c, 0, 45, 0
2, 10664, Note_on_c, 0, 71, 0
2, 10781, Note_on_c, 0, 45, 59
2, 10871, Control_c, 0, 64, 0
2, 10920, Note_on_c, 0, 59, 62
2, 10945, Note_on_c, 0, 57, 0
2, 10980, Note_on_c, 0, 67, 51
2, 11002, Note_on_c, 0, 66, 0
2, 11032, Note_on_c, 0, 71, 53
2, 11077, Note_on_c, 0, 72, 0
2, 11102, Note_on_c, 0, 38, 0
2, 11107, Note_on_c, 0, 79, 72
2, 11159, Control_c, 0, 64, 127
2, 11226, Note_on_c, 0, 38, 60
2, 11370, Note_on_c, 0, 67, 0
2, 11395, Control_c, 0, 64, 0
2, 11407, Note_on_c, 0, 64, 49
2, 11410, Note_on_c, 0, 67, 67
2, 11415, Note_on_c, 0, 73, 60
2, 11430, Note_on_c, 0, 50, 0
2, 11433, Note_on_c, 0, 45, 0
2, 11438, Note_on_c, 0, 59, 0
2, 11458, Note_on_c, 0, 79, 0
2, 11590, Note_on_c, 0, 45, 55
2, 11652, Control_c, 0, 64, 127
2, 11689, Note_on_c, 0, 67, 0
2, 11719, Note_on_c, 0, 71, 0
2, 11761, Note_on_c, 0, 71, 62
2, 11761, Note_on_c, 0, 74, 67
2, 11769, Note_on_c, 0, 62, 54
2, 11769, Note_on_c, 0, 67, 66
2, 11784, Note_on_c, 0, 73, 0
2, 11802, Note_on_c, 0, 64, 0
2, 11943, Note_on_c, 0, 50, 61
2, 12095, Control_c, 0, 67, 127
2, 12137, Note_on_c, 0, 61, 55
2, 12144, Note_on_c, 0, 67, 0
2, 12169, Note_on_c, 0, 62, 0
2, 12179, Note_on_c, 0, 67, 54
2, 12196, Note_on_c, 0, 71, 0
2, 12206, Control_c, 0, 64, 0
2, 12226, Note_on_c, 0, 71, 54
2, 12290, Note_on_c, 0, 76, 71
2, 12306, Note_on_c, 0, 45, 0
2, 12309, Note_on_c, 0, 74, 0
2, 12453, Note_on_c, 0, 45, 50
2, 12698, Note_on_c, 0, 69, 61
2, 12701, Note_on_c, 0, 64, 72
2, 12704, Note_on_c, 0, 67, 0
2, 12704, Note_on_c, 0, 66, 65
2, 12717, Note_on_c, 0, 38, 0
2, 12732, Note_on_c, 0, 76, 0
2, 12732, Note_on_c, 0, 71, 0
2, 12732, Note_on_c, 0, 61, 0
2, 12749, Control_c, 0, 64, 127
2, 12868, Note_on_c, 0, 38, 62
2, 13017, Note_on_c, 0, 45, 0
2, 13236, Note_on_c, 0, 45, 47
2, 13253, Note_on_c, 0, 50, 0
2, 13298, Note_on_c, 0, 62, 61
2, 13338, Note_on_c, 0, 64, 0
2, 13447, Note_on_c, 0, 62, 0
2, 13485, Note_on_c, 0, 62, 53
2, 13488, Control_c, 0, 64, 0
2, 13701, Note_on_c, 0, 50, 50
2, 13768, Control_c, 0, 64, 127
2, 13942, Note_on_c, 0, 45, 0
2, 14059, Control_c, 0, 67, 0
2, 14071, Note_on_c, 0, 45, 45
2, 14098, Note_on_c, 0, 66, 0
2, 14150, Note_on_c, 0, 69, 0
2, 14162, Note_on_c, 0, 62, 0
2, 14205, Control_c, 0, 64, 0
2, 14217, Note_on_c, 0, 74, 68
2, 14227, Note_on_c, 0, 66, 68
2, 14281, Note_on_c, 0, 50, 0
2, 14281, Note_on_c, 0, 45, 0
2, 14314, Note_on_c, 0, 38, 0
2, 14411, Note_on_c, 0, 35, 57
2, 14565, Control_c, 0, 64, 127
2, 14585, Note_on_c, 0, 64, 54
2, 14592, Note_on_c, 0, 66, 0
2, 14592, Note_on_c, 0, 73, 66
2, 14619, Note_on_c, 0, 74, 0
2, 14738, Note_on_c, 0, 42, 50
2, 14756, Note_on_c, 0, 71, 64
2, 14759, Note_on_c, 0, 62, 47
2, 14785, Note_on_c, 0, 73, 0
2, 14801, Note_on_c, 0, 64, 0
2, 14945, Control_c, 0, 64, 0
2, 14960, Note_on_c, 0, 61, 62
2, 14968, Note_on_c, 0, 66, 66
2, 14995, Note_on_c, 0, 62, 0
2, 15007, Note_on_c, 0, 71, 0
2, 15117, Note_on_c, 0, 47, 59
2, 15151, Note_on_c, 0, 42, 0
2, 15286, Note_on_c, 0, 59, 57
2, 15286, Note_on_c, 0, 62, 59
2, 15318, Note_on_c, 0, 61, 0
2, 15318, Note_on_c, 0, 66, 0
2, 15365, Control_c, 0, 64, 127
2, 15450, Note_on_c, 0, 42, 54
2, 15611, Note_on_c, 0, 61, 53
2, 15616, Note_on_c, 0, 66, 64
2, 15650, Note_on_c, 0, 59, 0
2, 15650, Note_on_c, 0, 62, 0
2, 15680, Note_on_c, 0, 35, 0
2, 15787, Control_c, 0, 64, 0
2, 15794, Note_on_c, 0, 35, 60
2, 15821, Note_on_c, 0, 71, 67
2, 15824, Note_on_c, 0, 62, 66
2, 15913, Note_on_c, 0, 61, 0
2, 15913, Note_on_c, 0, 66, 0
2, 15968, Note_on_c, 0, 71, 0
2, 15968, Note_on_c, 0, 64, 61
2, 16023, Note_on_c, 0, 71, 48
2, 16032, Note_on_c, 0, 76, 51
2, 16095, Note_on_c, 0, 79, 50
2, 16103, Note_on_c, 0, 62, 0
2, 16137, Control_c, 0, 64, 127
2, 16254, Note_on_c, 0, 42, 0
2, 16279, Note_on_c, 0, 47, 0
2, 16314, Note_on_c, 0, 42, 65
2, 16500, Control_c, 0, 64, 0
2, 16517, Note_on_c, 0, 70, 62
2, 16517, Note_on_c, 0, 73, 60
2, 16517, Note_on_c, 0, 78, 66
2, 16525, Note_on_c, 0, 66, 61
2, 16567, Note_on_c, 0, 64, 0
2, 16577, Note_on_c, 0, 76, 0
2, 16584, Note_on_c, 0, 71, 0
2, 16589, Note_on_c, 0, 79, 0
2, 16666, Note_on_c, 0, 47, 48
2, 16763, Control_c, 0, 64, 127
2, 16800, Note_on_c, 0, 42, 0
2, 16813, Note_on_c, 0, 35, 0
2, 17009, Control_c, 0, 67, 127
2, 17108, Note_on_c, 0, 42, 43
2, 17137, Note_on_c, 0, 47, 0
2, 17281, Note_on_c, 0, 73, 0
2, 17294, Note_on_c, 0, 70, 0
2, 17299, Note_on_c, 0, 66, 0
2, 17319, Note_on_c, 0, 78, 0
2, 17327, Control_c, 0, 64, 0
2, 17347, Note_on_c, 0, 63, 43
2, 17347, Note_on_c, 0, 66, 47
2, 17347, Note_on_c, 0, 71, 43
2, 17401, Note_on_c, 0, 75, 55
2, 17541, Note_on_c, 0, 35, 42
2, 17630, Note_on_c, 0, 42, 0
2, 17692, Control_c, 0, 64, 127
2, 17719, Note_on_c, 0, 73, 53
2, 17727, Note_on_c, 0, 64, 46
2, 17736, Note_on_c, 0, 66, 0
2, 17754, Note_on_c, 0, 63, 0
2, 17757, Note_on_c, 0, 75, 0
2, 17760, Note_on_c, 0, 71, 0
2, 17916, Note_on_c, 0, 42, 47
2, 17980, Note_on_c, 0, 63, 46
2, 17996, Note_on_c, 0, 71, 56
2, 18030, Note_on_c, 0, 64, 0
2, 18043, Note_on_c, 0, 73, 0
2, 18187, Note_on_c, 0, 61, 43
2, 18192, Note_on_c, 0, 66, 58
2, 18209, Control_c, 0, 64, 0
2, 18221, Note_on_c, 0, 63, 0
2, 18224, Note_on_c, 0, 71, 0
2, 18341, Note_on_c, 0, 47, 42
2, 18548, Note_on_c, 0, 59, 51
2, 18557, Note_on_c, 0, 63, 54
2, 18567, Note_on_c, 0, 66, 0
2, 18579, Note_on_c, 0, 61, 0
2, 18595, Control_c, 0, 64, 127
2, 18640, Note_on_c, 0, 42, 0
2, 18717, Note_on_c, 0, 42, 48
2, 18878, Note_on_c, 0, 66, 58
2, 18881, Note_on_c, 0, 61, 45
2, 18898, Note_on_c, 0, 63, 0
2, 18898, Note_on_c, 0, 59, 0
2, 18962, Note_on_c, 0, 35, 0
2, 19022, Control_c, 0, 64, 0
2, 19032, Note_on_c, 0, 35, 53
2, 19111, Note_on_c, 0, 63, 41
2, 19116, Note_on_c, 0, 66, 0
2, 19116, Note_on_c, 0, 71, 65
2, 19155, Note_on_c, 0, 61, 0
2, 19329, Note_on_c, 0, 64, 44
2, 19332, Note_on_c, 0, 71, 0
2, 19362, Note_on_c, 0, 63, 0
2, 19362, Note_on_c, 0, 71, 49
2, 19421, Note_on_c, 0, 76, 51
2, 19464, Control_c, 0, 64, 127
2, 19479, Note_on_c, 0, 80, 60
2, 19548, Note_on_c, 0, 42, 0
2, 19578, Note_on_c, 0, 47, 0
2, 19628, Note_on_c, 0, 42, 47
2, 19839, Note_on_c, 0, 73, 58
2, 19847, Note_on_c, 0, 78, 60
2, 19849, Note_on_c, 0, 66, 54
2, 19849, Note_on_c, 0, 70, 60
2, 19872, Note_on_c, 0, 64, 0
2, 19872, Note_on_c, 0, 76, 0
2, 19872, Note_on_c, 0, 80, 0
2, 19879, Note_on_c, 0, 71, 0
2, 19889, Control_c, 0, 64, 0
2, 20003, Note_on_c, 0, 47, 53
2, 20142, Note_on_c, 0, 42, 0
2, 20211, Control_c, 0, 64, 127
2, 20348, Note_on_c, 0, 42, 42
2, 20417, Control_c, 0, 67, 0
2, 20434, Note_on_c, 0, 47, 0
2, 20469, Note_on_c, 0, 66, 0
2, 20496, Control_c, 0, 64, 0
2, 20520, Note_on_c, 0, 62, 42
2, 20530, Note_on_c, 0, 66, 57
2, 20530, Note_on_c, 0, 74, 53
2, 20538, Note_on_c, 0, 71, 54
2, 20547, Note_on_c, 0, 73, 0
2, 20552, Note_on_c, 0, 78, 0
2, 20557, Note_on_c, 0, 70, 0
2, 20562, Note_on_c, 0, 35, 0
2, 20569, Note_on_c, 0, 42, 0
2, 20676, Note_on_c, 0, 35, 59
2, 20855, Control_c, 0, 64, 127
2, 20931, Note_on_c, 0, 42, 50
2, 20936, Note_on_c, 0, 74, 0
2, 20936, Note_on_c, 0, 71, 0
2, 20949, Note_on_c, 0, 62, 0
2, 20956, Note_on_c, 0, 66, 0
2, 21001, Note_on_c, 0, 74, 60
2, 21004, Note_on_c, 0, 62, 47
2, 21004, Note_on_c, 0, 66, 59
2, 21004, Note_on_c, 0, 71, 60
2, 21056, Note_on_c, 0, 35, 0
2, 21136, Note_on_c, 0, 62, 0
2, 21141, Note_on_c, 0, 74, 0
2, 21161, Note_on_c, 0, 71, 0
2, 21203, Control_c, 0, 64, 0
2, 21206, Note_on_c, 0, 66, 0
2, 21206, Note_on_c, 0, 67, 71
2, 21209, Note_on_c, 0, 62, 49
2, 21212, Note_on_c, 0, 71, 68
2, 21215, Note_on_c, 0, 74, 66
2, 21237, Note_on_c, 0, 42, 0
2, 21348, Note_on_c, 0, 31, 72
2, 21470, Note_on_c, 0, 62, 0
2, 21487, Note_on_c, 0, 71, 0
2, 21520, Note_on_c, 0, 62, 50
2, 21525, Note_on_c, 0, 67, 0
2, 21528, Control_c, 0, 64, 127
2, 21530, Note_on_c, 0, 71, 65
2, 21530, Note_on_c, 0, 76, 63
2, 21543, Note_on_c, 0, 74, 0
2, 21677, Note_on_c, 0, 62, 0
2, 21680, Note_on_c, 0, 43, 49
2, 21688, Note_on_c, 0, 71, 0
2, 21733, Note_on_c, 0, 62, 49
2, 21743, Note_on_c, 0, 76, 0
2, 21772, Note_on_c, 0, 71, 44
2, 21815, Note_on_c, 0, 77, 63
2, 21877, Note_on_c, 0, 31, 0
2, 21916, Note_on_c, 0, 62, 0
2, 21936, Note_on_c, 0, 77, 0
2, 21952, Note_on_c, 0, 71, 0
2, 21972, Note_on_c, 0, 62, 54
2, 22022, Note_on_c, 0, 71, 54
2, 22061, Note_on_c, 0, 77, 71
2, 22081, Control_c, 0, 64, 0
2, 22180, Note_on_c, 0, 36, 68
2, 22230, Note_on_c, 0, 43, 0
2, 22451, Note_on_c, 0, 43, 60
2, 22536, Control_c, 0, 64, 127
2, 22664, Control_c, 0, 64, 0
2, 22672, Note_on_c, 0, 64, 49
2, 22672, Note_on_c, 0, 72, 54
2, 22672, Note_on_c, 0, 76, 58
2, 22699, Note_on_c, 0, 62, 0
2, 22702, Note_on_c, 0, 71, 0
2, 22722, Note_on_c, 0, 77, 0
2, 22803, Note_on_c, 0, 48, 59
2, 22872, Note_on_c, 0, 43, 0
2, 22880, Control_c, 0, 64, 127
2, 23074, Note_on_c, 0, 43, 49
2, 23129, Note_on_c, 0, 48, 0
2, 23223, Note_on_c, 0, 64, 0
2, 23238, Note_on_c, 0, 72, 0
2, 23238, Note_on_c, 0, 76, 0
2, 23288, Note_on_c, 0, 67, 72
2, 23293, Note_on_c, 0, 36, 0
2, 23293, Note_on_c, 0, 64, 51
2, 23293, Note_on_c, 0, 76, 69
2, 23301, Note_on_c, 0, 72, 72
2, 23432, Note_on_c, 0, 36, 70
2, 23454, Control_c, 0, 64, 0
2, 23479, Note_on_c, 0, 43, 0
2, 23628, Control_c, 0, 64, 127
2, 23658, Note_on_c, 0, 43, 61
2, 23665, Note_on_c, 0, 67, 0
2, 23670, Note_on_c, 0, 76, 0
2, 23673, Note_on_c, 0, 72, 0
2, 23678, Note_on_c, 0, 64, 0
2, 23711, Note_on_c, 0, 67, 63
2, 23718, Note_on_c, 0, 64, 48
2, 23718, Note_on_c, 0, 76, 67
2, 23731, Note_on_c, 0, 72, 65
2, 23743, Note_on_c, 0, 36, 0
2, 23840, Note_on_c, 0, 64, 0
2, 23845, Note_on_c, 0, 76, 0
2, 23850, Control_c, 0, 64, 0
2, 23875, Note_on_c, 0, 69, 82
2, 23875, Note_on_c, 0, 73, 77
2, 23875, Note_on_c, 0, 76, 77
2, 23892, Note_on_c, 0, 64, 51
2, 23895, Note_on_c, 0, 43, 0
2, 23907, Note_on_c, 0, 67, 0
2, 23907, Note_on_c, 0, 72, 0
2, 24014, Note_on_c, 0, 33, 72
2, 24036, Control_c, 0, 64, 127
2, 24088, Note_on_c, 0, 64, 0
2, 24110, Note_on_c, 0, 73, 0
2, 24132, Note_on_c, 0, 64, 48
2, 24135, Note_on_c, 0, 69, 0
2, 24172, Note_on_c, 0, 73, 74
2, 24190, Note_on_c, 0, 78, 68
2, 24199, Note_on_c, 0, 76, 0
2, 24304, Note_on_c, 0, 45, 64
2, 24324, Note_on_c, 0, 73, 0
2, 24324, Note_on_c, 0, 64, 0
2, 24332, Note_on_c, 0, 78, 0
2, 24396, Note_on_c, 0, 64, 46
2, 24441, Note_on_c, 0, 73, 58
2, 24501, Note_on_c, 0, 79, 79
2, 24533, Note_on_c, 0, 33, 0
2, 24590, Note_on_c, 0, 64, 0
2, 24595, Note_on_c, 0, 79, 0
2, 24595, Note_on_c, 0, 73, 0
2, 24629, Note_on_c, 0, 64, 48
2, 24684, Note_on_c, 0, 73, 61
2, 24736, Note_on_c, 0, 79, 74
2, 24840, Control_c, 0, 64, 0
2, 24850, Note_on_c, 0, 38, 65
2, 24867, Note_on_c, 0, 45, 0
2, 25130, Note_on_c, 0, 45, 56
2, 25272, Control_c, 0, 64, 127
2, 25317, Note_on_c, 0, 78, 63
2, 25326, Note_on_c, 0, 74, 63
2, 25331, Note_on_c, 0, 66, 65
2, 25346, Control_c, 0, 64, 0
2, 25367, Note_on_c, 0, 64, 0
2, 25367, Note_on_c, 0, 73, 0
2, 25389, Note_on_c, 0, 79, 0
2, 25498, Note_on_c, 0, 50, 55
2, 25595, Note_on_c, 0, 45, 0
2, 25600, Control_c, 0, 64, 127
2, 25664, Control_c, 0, 67, 127
2, 25778, Note_on_c, 0, 45, 51
2, 25848, Control_c, 0, 64, 0
2, 25887, Note_on_c, 0, 69, 63
2, 25909, Note_on_c, 0, 74, 0
2, 25912, Note_on_c, 0, 66, 0
2, 25915, Note_on_c, 0, 78, 0
2, 26029, Note_on_c, 0, 57, 45
2, 26068, Note_on_c, 0, 66, 50
2, 26148, Note_on_c, 0, 74, 64
2, 26185, Note_on_c, 0, 69, 0
2, 26212, Note_on_c, 0, 38, 0
2, 26314, Note_on_c, 0, 38, 42
2, 26334, Control_c, 0, 64, 127
2, 26411, Note_on_c, 0, 66, 0
2, 26478, Note_on_c, 0, 66, 60
2, 26486, Note_on_c, 0, 64, 43
2, 26486, Note_on_c, 0, 69, 58
2, 26503, Note_on_c, 0, 57, 0
2, 26516, Note_on_c, 0, 74, 0
2, 26541, Note_on_c, 0, 45, 0
2, 26663, Note_on_c, 0, 45, 44
2, 26791, Note_on_c, 0, 66, 0
2, 26854, Note_on_c, 0, 62, 45
2, 26854, Note_on_c, 0, 66, 66
2, 26854, Note_on_c, 0, 71, 66
2, 26869, Note_on_c, 0, 69, 0
2, 26886, Note_on_c, 0, 64, 0
2, 26953, Note_on_c, 0, 50, 0
2, 27021, Note_on_c, 0, 50, 48
2, 27197, Note_on_c, 0, 57, 41
2, 27200, Note_on_c, 0, 66, 0
2, 27217, Note_on_c, 0, 62, 0
2, 27242, Note_on_c, 0, 66, 43
2, 27250, Control_c, 0, 64, 0
2, 27267, Note_on_c, 0, 45, 0
2, 27312, Note_on_c, 0, 72, 65
2, 27328, Note_on_c, 0, 71, 0
2, 27343, Control_c, 0, 67, 0
2, 27478, Note_on_c, 0, 45, 41
2, 27626, Note_on_c, 0, 59, 45
2, 27664, Note_on_c, 0, 57, 0
2, 27676, Note_on_c, 0, 67, 50
2, 27716, Note_on_c, 0, 66, 0
2, 27755, Note_on_c, 0, 71, 52
2, 27788, Note_on_c, 0, 72, 0
2, 27840, Note_on_c, 0, 79, 67
2, 27872, Control_c, 0, 64, 127
2, 27907, Note_on_c, 0, 38, 0
2, 27996, Note_on_c, 0, 38, 62
2, 28157, Note_on_c, 0, 71, 0
2, 28160, Note_on_c, 0, 45, 0
2, 28165, Note_on_c, 0, 67, 0
2, 28198, Note_on_c, 0, 67, 64
2, 28205, Note_on_c, 0, 64, 53
2, 28205, Note_on_c, 0, 71, 62
2, 28205, Note_on_c, 0, 73, 65
2, 28223, Note_on_c, 0, 59, 0
2, 28238, Note_on_c, 0, 79, 0
2, 28374, Note_on_c, 0, 45, 52
2, 28390, Note_on_c, 0, 50, 0
2, 28531, Note_on_c, 0, 67, 0
2, 28556, Note_on_c, 0, 67, 59
2, 28560, Note_on_c, 0, 62, 48
2, 28560, Note_on_c, 0, 74, 66
2, 28570, Note_on_c, 0, 64, 0
2, 28592, Note_on_c, 0, 73, 0
2, 28706, Note_on_c, 0, 50, 49
2, 28835, Note_on_c, 0, 61, 48
2, 28845, Note_on_c, 0, 67, 0
2, 28849, Note_on_c, 0, 62, 0
2, 28862, Note_on_c, 0, 71, 0
2, 28874, Note_on_c, 0, 67, 52
2, 28884, Control_c, 0, 64, 0
2, 28929, Note_on_c, 0, 71, 52
2, 28986, Note_on_c, 0, 76, 71
2, 28998, Note_on_c, 0, 74, 0
2, 29063, Control_c, 0, 64, 127
2, 29080, Note_on_c, 0, 45, 0
2, 29147, Note_on_c, 0, 45, 59
2, 29169, Control_c, 0, 64, 0
2, 29286, Note_on_c, 0, 62, 53
2, 29316, Note_on_c, 0, 61, 0
2, 29358, Note_on_c, 0, 66, 49
2, 29388, Note_on_c, 0, 69, 50
2, 29391, Note_on_c, 0, 67, 0
2, 29416, Note_on_c, 0, 71, 0
2, 29448, Note_on_c, 0, 74, 49
2, 29486, Note_on_c, 0, 76, 0
2, 29498, Note_on_c, 0, 78, 53
2, 29533, Control_c, 0, 64, 127
2, 29543, Note_on_c, 0, 86, 67
2, 29550, Note_on_c, 0, 38, 0
2, 29674, Note_on_c, 0, 38, 70
2, 29759, Note_on_c, 0, 45, 0
2, 29823, Note_on_c, 0, 78, 0
2, 29868, Note_on_c, 0, 72, 62
2, 29868, Note_on_c, 0, 76, 60
2, 29868, Note_on_c, 0, 78, 62
2, 29868, Note_on_c, 0, 81, 66
2, 29895, Note_on_c, 0, 66, 0
2, 29895, Note_on_c, 0, 74, 0
2, 29895, Note_on_c, 0, 62, 0
2, 29900, Note_on_c, 0, 86, 0
2, 29903, Note_on_c, 0, 69, 0
2, 30051, Note_on_c, 0, 45, 53
2, 30069, Note_on_c, 0, 50, 0
2, 30180, Note_on_c, 0, 78, 0
2, 30230, Note_on_c, 0, 74, 61
2, 30230, Note_on_c, 0, 78, 59
2, 30230, Note_on_c, 0, 83, 62
2, 30245, Note_on_c, 0, 71, 65
2, 30267, Note_on_c, 0, 76, 0
2, 30267, Note_on_c, 0, 81, 0
2, 30267, Note_on_c, 0, 72, 0
2, 30386, Note_on_c, 0, 50, 63
2, 30491, Note_on_c, 0, 74, 0
2, 30504, Note_on_c, 0, 69, 52
2, 30543, Note_on_c, 0, 71, 0
2, 30555, Note_on_c, 0, 74, 50
2, 30563, Note_on_c, 0, 78, 0
2, 30576, Control_c, 0, 64, 0
2, 30605, Note_on_c, 0, 78, 56
2, 30655, Note_on_c, 0, 84, 63
2, 30668, Note_on_c, 0, 45, 0
2, 30693, Note_on_c, 0, 83, 0
2, 30727, Control_c, 0, 67, 127
2, 30790, Note_on_c, 0, 45, 67
2, 30926, Note_on_c, 0, 71, 49
2, 30959, Note_on_c, 0, 69, 0
2, 30981, Note_on_c, 0, 79, 48
2, 30988, Note_on_c, 0, 74, 0
2, 31008, Note_on_c, 0, 78, 0
2, 31046, Note_on_c, 0, 83, 50
2, 31063, Note_on_c, 0, 84, 0
2, 31085, Control_c, 0, 64, 127
2, 31128, Note_on_c, 0, 91, 69
2, 31160, Note_on_c, 0, 38, 0
2, 31296, Note_on_c, 0, 38, 61
2, 31306, Note_on_c, 0, 45, 0
2, 31440, Note_on_c, 0, 83, 0
2, 31440, Note_on_c, 0, 79, 0
2, 31483, Note_on_c, 0, 76, 64
2, 31483, Note_on_c, 0, 79, 66
2, 31483, Note_on_c, 0, 83, 65
2, 31488, Note_on_c, 0, 85, 63
2, 31505, Note_on_c, 0, 71, 0
2, 31517, Note_on_c, 0, 91, 0
2, 31646, Note_on_c, 0, 45, 60
2, 31679, Note_on_c, 0, 50, 0
2, 31746, Note_on_c, 0, 79, 0
2, 31753, Note_on_c, 0, 83, 0
2, 31793, Note_on_c, 0, 74, 65
2, 31793, Note_on_c, 0, 83, 64
2, 31796, Note_on_c, 0, 85, 0
2, 31799, Note_on_c, 0, 79, 65
2, 31803, Note_on_c, 0, 86, 61
2, 31825, Note_on_c, 0, 76, 0
2, 31943, Note_on_c, 0, 50, 57
2, 32057, Note_on_c, 0, 79, 0
2, 32079, Note_on_c, 0, 73, 49
2, 32091, Note_on_c, 0, 45, 0
2, 32096, Note_on_c, 0, 79, 49
2, 32101, Note_on_c, 0, 83, 0
2, 32106, Note_on_c, 0, 74, 0
2, 32133, Note_on_c, 0, 83, 51
2, 32136, Control_c, 0, 64, 0
2, 32190, Note_on_c, 0, 88, 50
2, 32223, Note_on_c, 0, 86, 0
2, 32322, Note_on_c, 0, 45, 50
2, 32334, Note_on_c, 0, 38, 0
2, 32334, Note_on_c, 0, 50, 0
2, 32406, Control_c, 0, 64, 127
2, 32500, Note_on_c, 0, 67, 42
2, 32525, Note_on_c, 0, 88, 0
2, 32533, Note_on_c, 0, 83, 0
2, 32536, Note_on_c, 0, 79, 0
2, 32536, Note_on_c, 0, 71, 41
2, 32539, Note_on_c, 0, 73, 0
2, 32568, Note_on_c, 0, 73, 44
2, 32608, Note_on_c, 0, 76, 44
2, 32658, Note_on_c, 0, 79, 43
2, 32678, Note_on_c, 0, 83, 46
2, 32698, Note_on_c, 0, 85, 42
2, 32728, Note_on_c, 0, 88, 41
2, 32906, Note_on_c, 0, 38, 54
2, 32933, Note_on_c, 0, 45, 0
2, 33199, Note_on_c, 0, 45, 50
2, 33487, Note_on_c, 0, 50, 52
2, 33542, Note_on_c, 0, 45, 0
2, 33569, Note_on_c, 0, 38, 0
2, 33777, Note_on_c, 0, 57, 42
2, 33834, Note_on_c, 0, 50, 0
2, 33960, Note_on_c, 0, 62, 47
2, 33981, Note_on_c, 0, 85, 0
2, 33996, Note_on_c, 0, 88, 0
2, 33996, Note_on_c, 0, 76, 0
2, 33996, Note_on_c, 0, 83, 0
2, 33996, Note_on_c, 0, 79, 0
2, 33996, Note_on_c, 0, 67, 0
2, 33999, Note_on_c, 0, 73, 0
2, 33999, Note_on_c, 0, 71, 0
2, 33999, Note_on_c, 0, 66, 51
2, 34041, Note_on_c, 0, 57, 0
2, 34041, Note_on_c, 0, 69, 52
2, 34104, Note_on_c, 0, 74, 49
2, 34108, Note_on_c, 0, 78, 47
2, 34130, Control_c, 0, 64, 0
2, 34140, Note_on_c, 0, 81, 49
2, 34190, Note_on_c, 0, 86, 54
2, 34398, Control_c, 0, 64, 127
2, 34562, Control_c, 0, 67, 0
2, 34769, Control_c, 0, 64, 0
2, 34796, Note_on_c, 0, 66, 0
2, 34796, Note_on_c, 0, 62, 0
2, 34799, Note_on_c, 0, 81, 0
2, 34799, Note_on_c, 0, 78, 0
2, 34799, Note_on_c, 0, 74, 0
2, 34799, Note_on_c, 0, 86, 0
2, 34801, Note_on_c, 0, 69, 0
2, 34900, Note_on_c, 0, 54, 68
2, 34908, Note_on_c, 0, 42, 69
2, 34935, Note_on_c, 0, 42, 0
2, 34938, Note_on_c, 0, 54, 0
2, 34990, Note_on_c, 0, 54, 51
2, 34994, Note_on_c, 0, 42, 51
2, 35016, Note_on_c, 0, 42, 0
2, 35019, Note_on_c, 0, 54, 0
2, 35057, Note_on_c, 0, 54, 48
2, 35060, Note_on_c, 0, 42, 48
2, 35089, Note_on_c, 0, 54, 0
2, 35092, Note_on_c, 0, 42, 0
2, 35139, Note_on_c, 0, 42, 61
2, 35139, Note_on_c, 0, 54, 65
2, 35179, Note_on_c, 0, 54, 0
2, 35179, Note_on_c, 0, 42, 0
2, 35233, Note_on_c, 0, 59, 62
2, 35246, Note_on_c, 0, 35, 59
2, 35246, Note_on_c, 0, 50, 61
2, 35256, Note_on_c, 0, 47, 60
2, 35348, Control_c, 0, 64, 127
2, 35495, Note_on_c, 0, 59, 0
2, 35517, Control_c, 0, 64, 0
2, 35537, Note_on_c, 0, 55, 72
2, 35540, Note_on_c, 0, 31, 67
2, 35540, Note_on_c, 0, 43, 66
2, 35543, Note_on_c, 0, 59, 72
2, 35552, Note_on_c, 0, 47, 0
2, 35560, Note_on_c, 0, 35, 0
2, 35560, Note_on_c, 0, 50, 0
2, 35575, Note_on_c, 0, 43, 0
2, 35578, Note_on_c, 0, 59, 0
2, 35581, Note_on_c, 0, 31, 0
2, 35581, Note_on_c, 0, 55, 0
2, 35614, Note_on_c, 0, 30, 56
2, 35621, Note_on_c, 0, 57, 59
2, 35621, Note_on_c, 0, 61, 55
2, 35624, Note_on_c, 0, 42, 58
2, 35651, Note_on_c, 0, 30, 0
2, 35659, Note_on_c, 0, 42, 0
2, 35662, Note_on_c, 0, 61, 0
2, 35662, Note_on_c, 0, 57, 0
2, 35694, Note_on_c, 0, 30, 54
2, 35697, Note_on_c, 0, 42, 58
2, 35710, Note_on_c, 0, 57, 60
2, 35710, Note_on_c, 0, 61, 54
2, 35730, Note_on_c, 0, 30, 0
2, 35735, Note_on_c, 0, 42, 0
2, 35744, Note_on_c, 0, 57, 0
2, 35744, Note_on_c, 0, 61, 0
2, 35766, Note_on_c, 0, 28, 58
2, 35769, Note_on_c, 0, 59, 56
2, 35769, Note_on_c, 0, 62, 54
2, 35772, Note_on_c, 0, 40, 58
2, 35799, Note_on_c, 0, 28, 0
2, 35804, Note_on_c, 0, 59, 0
2, 35804, Note_on_c, 0, 40, 0
2, 35808, Note_on_c, 0, 62, 0
2, 35868, Note_on_c, 0, 61, 63
2, 35871, Note_on_c, 0, 30, 59
2, 35876, Note_on_c, 0, 42, 61
2, 35876, Note_on_c, 0, 58, 62
2, 35951, Control_c, 0, 64, 127
2, 36121, Note_on_c, 0, 42, 0
2, 36159, Control_c, 0, 64, 0
2, 36164, Note_on_c, 0, 54, 72
2, 36171, Note_on_c, 0, 42, 65
2, 36174, Note_on_c, 0, 30, 0
2, 36182, Note_on_c, 0, 58, 0
2, 36182, Note_on_c, 0, 61, 0
2, 36202, Note_on_c, 0, 54, 0
2, 36202, Note_on_c, 0, 42, 0
2, 36240, Note_on_c, 0, 54, 55
2, 36242, Note_on_c, 0, 42, 60
2, 36263, Note_on_c, 0, 42, 0
2, 36267, Note_on_c, 0, 54, 0
2, 36317, Note_on_c, 0, 42, 55
2, 36317, Note_on_c, 0, 54, 55
2, 36337, Note_on_c, 0, 54, 0
2, 36340, Note_on_c, 0, 42, 0
2, 36380, Note_on_c, 0, 54, 58
2, 36387, Note_on_c, 0, 42, 55
2, 36420, Note_on_c, 0, 54, 0
2, 36428, Note_on_c, 0, 42, 0
2, 36482, Note_on_c, 0, 35, 66
2, 36492, Note_on_c, 0, 59, 66
2, 36495, Note_on_c, 0, 47, 60
2, 36495, Note_on_c, 0, 50, 65
2, 36545, Control_c, 0, 64, 127
2, 36726, Control_c, 0, 64, 0
2, 36746, Note_on_c, 0, 61, 72
2, 36754, Note_on_c, 0, 54, 69
2, 36757, Note_on_c, 0, 33, 71
2, 36757, Note_on_c, 0, 45, 69
2, 36767, Note_on_c, 0, 47, 0
2, 36771, Note_on_c, 0, 50, 0
2, 36774, Note_on_c, 0, 35, 0
2, 36782, Note_on_c, 0, 59, 0
2, 36787, Note_on_c, 0, 54, 0
2, 36790, Note_on_c, 0, 45, 0
2, 36792, Note_on_c, 0, 33, 0
2, 36795, Note_on_c, 0, 61, 0
2, 36838, Note_on_c, 0, 59, 59
2, 36838, Note_on_c, 0, 65, 66
2, 36840, Note_on_c, 0, 32, 57
2, 36845, Note_on_c, 0, 44, 54
2, 36875, Note_on_c, 0, 32, 0
2, 36878, Note_on_c, 0, 59, 0
2, 36878, Note_on_c, 0, 65, 0
2, 36881, Note_on_c, 0, 44, 0
2, 36913, Note_on_c, 0, 32, 61
2, 36918, Note_on_c, 0, 44, 62
2, 36918, Note_on_c, 0, 59, 63
2, 36921, Note_on_c, 0, 65, 74
2, 36943, Note_on_c, 0, 32, 0
2, 36953, Note_on_c, 0, 44, 0
2, 36958, Note_on_c, 0, 59, 0
2, 36970, Note_on_c, 0, 65, 0
2, 36985, Note_on_c, 0, 30, 61
2, 36988, Note_on_c, 0, 42, 64
2, 36988, Note_on_c, 0, 58, 64
2, 36998, Note_on_c, 0, 66, 68
2, 37028, Note_on_c, 0, 58, 0
2, 37031, Note_on_c, 0, 30, 0
2, 37031, Note_on_c, 0, 42, 0
2, 37040, Note_on_c, 0, 66, 0
2, 37092, Note_on_c, 0, 30, 65
2, 37095, Note_on_c, 0, 42, 64
2, 37095, Note_on_c, 0, 58, 63
2, 37103, Note_on_c, 0, 66, 67
2, 37189, Control_c, 0, 64, 127
2, 37330, Note_on_c, 0, 42, 0
2, 37333, Note_on_c, 0, 66, 0
2, 37366, Control_c, 0, 64, 0
2, 37378, Note_on_c, 0, 54, 63
2, 37381, Note_on_c, 0, 42, 66
2, 37393, Note_on_c, 0, 30, 0
2, 37393, Note_on_c, 0, 66, 75
2, 37401, Note_on_c, 0, 58, 0
2, 37416, Note_on_c, 0, 42, 0
2, 37416, Note_on_c, 0, 54, 0
2, 37441, Note_on_c, 0, 66, 0
2, 37462, Note_on_c, 0, 54, 48
2, 37469, Note_on_c, 0, 42, 53
2, 37479, Note_on_c, 0, 66, 61
2, 37491, Note_on_c, 0, 42, 0
2, 37496, Note_on_c, 0, 54, 0
2, 37501, Note_on_c, 0, 66, 0
2, 37536, Note_on_c, 0, 42, 59
2, 37536, Note_on_c, 0, 54, 57
2, 37545, Note_on_c, 0, 66, 65
2, 37560, Note_on_c, 0, 54, 0
2, 37563, Note_on_c, 0, 42, 0
2, 37573, Note_on_c, 0, 66, 0
2, 37598, Note_on_c, 0, 54, 58
2, 37610, Note_on_c, 0, 42, 55
2, 37610, Note_on_c, 0, 66, 67
2, 37643, Note_on_c, 0, 54, 0
2, 37646, Note_on_c, 0, 42, 0
2, 37649, Note_on_c, 0, 66, 0
2, 37696, Note_on_c, 0, 35, 60
2, 37696, Note_on_c, 0, 47, 66
2, 37696, Note_on_c, 0, 62, 60
2, 37708, Note_on_c, 0, 59, 62
2, 37708, Note_on_c, 0, 71, 69
2, 37755, Control_c, 0, 64, 127
2, 37917, Note_on_c, 0, 59, 0
2, 37920, Control_c, 0, 64, 0
2, 37922, Note_on_c, 0, 71, 0
2, 37962, Note_on_c, 0, 71, 71
2, 37965, Note_on_c, 0, 67, 73
2, 37968, Note_on_c, 0, 31, 59
2, 37970, Note_on_c, 0, 35, 0
2, 37970, Note_on_c, 0, 47, 0
2, 37970, Note_on_c, 0, 59, 61
2, 37973, Note_on_c, 0, 43, 60
2, 37976, Note_on_c, 0, 62, 0
2, 38001, Note_on_c, 0, 43, 0
2, 38004, Note_on_c, 0, 31, 0
2, 38004, Note_on_c, 0, 71, 0
2, 38004, Note_on_c, 0, 67, 0
2, 38007, Note_on_c, 0, 59, 0
2, 38046, Note_on_c, 0, 30, 64
2, 38056, Note_on_c, 0, 42, 64
2, 38059, Note_on_c, 0, 73, 61
2, 38062, Note_on_c, 0, 61, 67
2, 38062, Note_on_c, 0, 69, 60
2, 38066, Note_on_c, 0, 30, 0
2, 38079, Note_on_c, 0, 42, 0
2, 38087, Note_on_c, 0, 61, 0
2, 38087, Note_on_c, 0, 73, 0
2, 38087, Note_on_c, 0, 69, 0
2, 38113, Note_on_c, 0, 30, 65
2, 38116, Note_on_c, 0, 61, 63
2, 38116, Note_on_c, 0, 69, 67
2, 38119, Note_on_c, 0, 42, 64
2, 38122, Note_on_c, 0, 73, 70
2, 38155, Note_on_c, 0, 30, 0
2, 38158, Note_on_c, 0, 73, 0
2, 38158, Note_on_c, 0, 69, 0
2, 38160, Note_on_c, 0, 42, 0
2, 38163, Note_on_c, 0, 61, 0
2, 38188, Note_on_c, 0, 28, 60
2, 38196, Note_on_c, 0, 40, 60
2, 38204, Note_on_c, 0, 62, 64
2, 38204, Note_on_c, 0, 71, 73
2, 38204, Note_on_c, 0, 74, 67
2, 38224, Note_on_c, 0, 28, 0
2, 38227, Note_on_c, 0, 40, 0
2, 38236, Note_on_c, 0, 71, 0
2, 38244, Note_on_c, 0, 62, 0
2, 38244, Note_on_c, 0, 74, 0
2, 38274, Note_on_c, 0, 30, 59
2, 38289, Note_on_c, 0, 42, 60
2, 38297, Note_on_c, 0, 70, 72
2, 38297, Note_on_c, 0, 73, 71
2, 38300, Note_on_c, 0, 61, 65
2, 38362, Control_c, 0, 64, 127
2, 38472, Note_on_c, 0, 42, 0
2, 38539, Control_c, 0, 64, 0
2, 38571, Note_on_c, 0, 30, 0
2, 38571, Note_on_c, 0, 61, 0
2, 38576, Note_on_c, 0, 70, 0
2, 38579, Note_on_c, 0, 73, 0
2, 38582, Note_on_c, 0, 54, 56
2, 38585, Note_on_c, 0, 66, 59
2, 38588, Note_on_c, 0, 42, 60
2, 38608, Note_on_c, 0, 42, 0
2, 38608, Note_on_c, 0, 66, 0
2, 38620, Note_on_c, 0, 54, 0
2, 38645, Note_on_c, 0, 66, 55
2, 38648, Note_on_c, 0, 42, 57
2, 38648, Note_on_c, 0, 54, 60
2, 38675, Note_on_c, 0, 66, 0
2, 38678, Note_on_c, 0, 42, 0
2, 38688, Note_on_c, 0, 54, 0
2, 38720, Note_on_c, 0, 54, 56
2, 38720, Note_on_c, 0, 66, 65
2, 38723, Note_on_c, 0, 42, 57
2, 38743, Note_on_c, 0, 66, 0
2, 38746, Note_on_c, 0, 54, 0
2, 38761, Note_on_c, 0, 42, 0
2, 38796, Note_on_c, 0, 42, 55
2, 38796, Note_on_c, 0, 54, 56
2, 38801, Note_on_c, 0, 66, 61
2, 38835, Note_on_c, 0, 66, 0
2, 38835, Note_on_c, 0, 54, 0
2, 38838, Note_on_c, 0, 42, 0
2, 38876, Note_on_c, 0, 62, 60
2, 38883, Note_on_c, 0, 59, 66
2, 38886, Note_on_c, 0, 35, 61
2, 38886, Note_on_c, 0, 47, 59
2, 38891, Note_on_c, 0, 71, 71
2, 38936, Control_c, 0, 64, 127
2, 39072, Control_c, 0, 64, 0
2, 39107, Note_on_c, 0, 71, 0
2, 39107, Note_on_c, 0, 62, 0
2, 39107, Note_on_c, 0, 59, 0
2, 39110, Note_on_c, 0, 35, 0
2, 39110, Note_on_c, 0, 33, 66
2, 39110, Note_on_c, 0, 45, 62
2, 39113, Note_on_c, 0, 73, 69
2, 39116, Note_on_c, 0, 47, 0
2, 39116, Note_on_c, 0, 61, 67
2, 39138, Note_on_c, 0, 45, 0
2, 39141, Note_on_c, 0, 73, 0
2, 39141, Note_on_c, 0, 33, 0
2, 39144, Note_on_c, 0, 61, 0
2, 39178, Note_on_c, 0, 32, 66
2, 39178, Note_on_c, 0, 44, 65
2, 39191, Note_on_c, 0, 65, 67
2, 39191, Note_on_c, 0, 71, 61
2, 39191, Note_on_c, 0, 77, 66
2, 39203, Note_on_c, 0, 44, 0
2, 39206, Note_on_c, 0, 32, 0
2, 39214, Note_on_c, 0, 71, 0
2, 39218, Note_on_c, 0, 65, 0
2, 39218, Note_on_c, 0, 77, 0
2, 39248, Note_on_c, 0, 32, 63
2, 39253, Note_on_c, 0, 44, 65
2, 39258, Note_on_c, 0, 71, 70
2, 39258, Note_on_c, 0, 77, 67
2, 39261, Note_on_c, 0, 65, 68
2, 39278, Note_on_c, 0, 44, 0
2, 39278, Note_on_c, 0, 32, 0
2, 39293, Note_on_c, 0, 71, 0
2, 39298, Note_on_c, 0, 77, 0
2, 39301, Note_on_c, 0, 65, 0
2, 39306, Note_on_c, 0, 30, 64
2, 39321, Note_on_c, 0, 42, 67
2, 39321, Note_on_c, 0, 66, 69
2, 39324, Note_on_c, 0, 70, 72
2, 39324, Note_on_c, 0, 78, 68
2, 39346, Note_on_c, 0, 30, 0
2, 39356, Note_on_c, 0, 70, 0
2, 39359, Note_on_c, 0, 66, 0
2, 39361, Note_on_c, 0, 42, 0
2, 39361, Note_on_c, 0, 78, 0
2, 39399, Note_on_c, 0, 30, 66
2, 39404, Note_on_c, 0, 42, 67
2, 39407, Note_on_c, 0, 78, 66
2, 39411, Note_on_c, 0, 70, 72
2, 39419, Note_on_c, 0, 66, 67
2, 39461, Control_c, 0, 64, 127
2, 39585, Control_c, 0, 67, 127
2, 39649, Note_on_c, 0, 66, 0
2, 39657, Note_on_c, 0, 42, 0
2, 39670, Control_c, 0, 64, 0
2, 39695, Note_on_c, 0, 30, 0
2, 39699, Note_on_c, 0, 54, 54
2, 39702, Note_on_c, 0, 70, 0
2, 39705, Note_on_c, 0, 66, 57
2, 39708, Note_on_c, 0, 42, 49
2, 39716, Note_on_c, 0, 78, 0
2, 39728, Note_on_c, 0, 54, 0
2, 39744, Note_on_c, 0, 42, 0
2, 39746, Note_on_c, 0, 66, 0
2, 39784, Note_on_c, 0, 54, 51
2, 39784, Note_on_c, 0, 66, 59
2, 39787, Note_on_c, 0, 42, 47
2, 39812, Note_on_c, 0, 66, 0
2, 39815, Note_on_c, 0, 42, 0
2, 39819, Note_on_c, 0, 54, 0
2, 39859, Note_on_c, 0, 42, 49
2, 39859, Note_on_c, 0, 54, 53
2, 39862, Note_on_c, 0, 66, 61
2, 39884, Note_on_c, 0, 66, 0
2, 39887, Note_on_c, 0, 54, 0
2, 39887, Note_on_c, 0, 42, 0
2, 39934, Note_on_c, 0, 42, 53
2, 39938, Note_on_c, 0, 54, 51
2, 39943, Note_on_c, 0, 66, 61
2, 39973, Note_on_c, 0, 54, 0
2, 39976, Note_on_c, 0, 42, 0
2, 39981, Note_on_c, 0, 66, 0
2, 40026, Note_on_c, 0, 35, 47
2, 40029, Note_on_c, 0, 63, 53
2, 40036, Note_on_c, 0, 59, 47
2, 40041, Note_on_c, 0, 71, 66
2, 40051, Note_on_c, 0, 47, 49
2, 40103, Control_c, 0, 64, 127
2, 40279, Note_on_c, 0, 59, 0
2, 40279, Note_on_c, 0, 63, 0
2, 40295, Note_on_c, 0, 71, 0
2, 40320, Note_on_c, 0, 28, 59
2, 40322, Control_c, 0, 64, 0
2, 40322, Note_on_c, 0, 40, 66
2, 40322, Note_on_c, 0, 59, 60
2, 40322, Note_on_c, 0, 63, 59
2, 40322, Note_on_c, 0, 66, 59
2, 40327, Note_on_c, 0, 47, 0
2, 40327, Note_on_c, 0, 35, 0
2, 40347, Note_on_c, 0, 59, 0
2, 40360, Note_on_c, 0, 66, 0
2, 40365, Note_on_c, 0, 63, 0
2, 40387, Note_on_c, 0, 67, 54
2, 40392, Note_on_c, 0, 59, 42
2, 40392, Note_on_c, 0, 64, 45
2, 40416, Note_on_c, 0, 59, 0
2, 40421, Note_on_c, 0, 67, 0
2, 40421, Note_on_c, 0, 64, 0
2, 40448, Note_on_c, 0, 67, 66
2, 40451, Note_on_c, 0, 59, 50
2, 40476, Note_on_c, 0, 59, 0
2, 40491, Note_on_c, 0, 67, 0
2, 40521, Note_on_c, 0, 59, 54
2, 40521, Note_on_c, 0, 66, 62
2, 40521, Note_on_c, 0, 69, 62
2, 40556, Note_on_c, 0, 66, 0
2, 40560, Note_on_c, 0, 59, 0
2, 40560, Note_on_c, 0, 69, 0
2, 40563, Note_on_c, 0, 28, 0
2, 40563, Note_on_c, 0, 40, 0
2, 40568, Control_c, 0, 67, 0
2, 40593, Note_on_c, 0, 47, 62
2, 40593, Note_on_c, 0, 52, 63
2, 40606, Note_on_c, 0, 59, 62
2, 40606, Note_on_c, 0, 66, 66
2, 40615, Note_on_c, 0, 69, 70
2, 40648, Control_c, 0, 64, 127
2, 40737, Note_on_c, 0, 52, 0
2, 40737, Note_on_c, 0, 47, 0
2, 40742, Note_on_c, 0, 59, 0
2, 40801, Note_on_c, 0, 69, 0
2, 40806, Note_on_c, 0, 66, 0
2, 40816, Control_c, 0, 64, 0
2, 40828, Note_on_c, 0, 67, 53
2, 40833, Note_on_c, 0, 59, 50
2, 40833, Note_on_c, 0, 65, 59
2, 40836, Note_on_c, 0, 38, 51
2, 40836, Note_on_c, 0, 43, 53
2, 40836, Note_on_c, 0, 50, 49
2, 40853, Note_on_c, 0, 43, 0
2, 40853, Note_on_c, 0, 38, 0
2, 40858, Note_on_c, 0, 65, 0
2, 40858, Note_on_c, 0, 67, 0
2, 40858, Note_on_c, 0, 59, 0
2, 40861, Note_on_c, 0, 50, 0
2, 40888, Note_on_c, 0, 67, 54
2, 40891, Note_on_c, 0, 43, 54
2, 40891, Note_on_c, 0, 50, 49
2, 40891, Note_on_c, 0, 59, 53
2, 40891, Note_on_c, 0, 65, 54
2, 40894, Note_on_c, 0, 38, 50
2, 40916, Note_on_c, 0, 38, 0
2, 40916, Note_on_c, 0, 43, 0
2, 40916, Note_on_c, 0, 50, 0
2, 40919, Note_on_c, 0, 67, 0
2, 40921, Note_on_c, 0, 65, 0
2, 40921, Note_on_c, 0, 59, 0
2, 40948, Note_on_c, 0, 43, 47
2, 40951, Note_on_c, 0, 65, 64
2, 40951, Note_on_c, 0, 67, 66
2, 40954, Note_on_c, 0, 38, 47
2, 40962, Note_on_c, 0, 50, 53
2, 40962, Note_on_c, 0, 59, 47
2, 40969, Note_on_c, 0, 43, 0
2, 40982, Note_on_c, 0, 50, 0
2, 40982, Note_on_c, 0, 59, 0
2, 40987, Note_on_c, 0, 67, 0
2, 40990, Note_on_c, 0, 38, 0
2, 40992, Note_on_c, 0, 65, 0
2, 41017, Note_on_c, 0, 38, 54
2, 41017, Note_on_c, 0, 50, 52
2, 41020, Note_on_c, 0, 43, 54
2, 41030, Note_on_c, 0, 59, 48
2, 41030, Note_on_c, 0, 65, 60
2, 41030, Note_on_c, 0, 67, 61
2, 41057, Note_on_c, 0, 43, 0
2, 41057, Note_on_c, 0, 50, 0
2, 41060, Note_on_c, 0, 38, 0
2, 41069, Note_on_c, 0, 59, 0
2, 41069, Note_on_c, 0, 65, 0
2, 41074, Note_on_c, 0, 67, 0
2, 41101, Note_on_c, 0, 36, 47
2, 41104, Note_on_c, 0, 43, 53
2, 41109, Note_on_c, 0, 48, 53
2, 41109, Note_on_c, 0, 64, 48
2, 41113, Note_on_c, 0, 60, 47
2, 41121, Note_on_c, 0, 72, 63
2, 41210, Control_c, 0, 64, 127
2, 41332, Note_on_c, 0, 64, 0
2, 41352, Note_on_c, 0, 60, 0
2, 41357, Note_on_c, 0, 72, 0
2, 41382, Note_on_c, 0, 67, 66
2, 41385, Note_on_c, 0, 29, 60
2, 41390, Note_on_c, 0, 41, 61
2, 41390, Note_on_c, 0, 60, 63
2, 41390, Note_on_c, 0, 64, 60
2, 41395, Note_on_c, 0, 36, 0
2, 41395, Note_on_c, 0, 43, 0
2, 41395, Note_on_c, 0, 48, 0
2, 41400, Control_c, 0, 64, 0
2, 41424, Note_on_c, 0, 60, 0
2, 41427, Note_on_c, 0, 67, 0
2, 41427, Note_on_c, 0, 64, 0
2, 41457, Note_on_c, 0, 69, 62
2, 41460, Note_on_c, 0, 60, 50
2, 41460, Note_on_c, 0, 65, 65
2, 41485, Note_on_c, 0, 60, 0
2, 41490, Note_on_c, 0, 69, 0
2, 41490, Note_on_c, 0, 65, 0
2, 41532, Note_on_c, 0, 65, 62
2, 41537, Note_on_c, 0, 69, 60
2, 41540, Note_on_c, 0, 60, 48
2, 41565, Note_on_c, 0, 60, 0
2, 41565, Note_on_c, 0, 69, 0
2, 41569, Note_on_c, 0, 65, 0
2, 41599, Note_on_c, 0, 70, 61
2, 41602, Note_on_c, 0, 67, 62
2, 41605, Note_on_c, 0, 60, 54
2, 41635, Note_on_c, 0, 60, 0
2, 41640, Note_on_c, 0, 70, 0
2, 41640, Note_on_c, 0, 67, 0
2, 41682, Note_on_c, 0, 67, 67
2, 41682, Note_on_c, 0, 70, 66
2, 41694, Note_on_c, 0, 60, 54
2, 41697, Note_on_c, 0, 53, 51
2, 41702, Note_on_c, 0, 48, 53
2, 41732, Note_on_c, 0, 29, 0
2, 41739, Note_on_c, 0, 41, 0
2, 41739, Control_c, 0, 64, 127
2, 41802, Note_on_c, 0, 53, 0
2, 41802, Note_on_c, 0, 48, 0
2, 41891, Note_on_c, 0, 60, 0
2, 41938, Note_on_c, 0, 70, 0
2, 41948, Control_c, 0, 64, 0
2, 41948, Note_on_c, 0, 41, 53
2, 41948, Note_on_c, 0, 48, 54
2, 41948, Note_on_c, 0, 53, 47
2, 41948, Note_on_c, 0, 57, 54
2, 41948, Note_on_c, 0, 60, 51
2, 41948, Note_on_c, 0, 69, 60
2, 41951, Note_on_c, 0, 67, 0
2, 41985, Note_on_c, 0, 60, 0
2, 41990, Note_on_c, 0, 48, 0
2, 42027, Note_on_c, 0, 48, 83
2, 42032, Note_on_c, 0, 60, 60
2, 42049, Note_on_c, 0, 60, 0
2, 42052, Note_on_c, 0, 48, 0
2, 42087, Note_on_c, 0, 48, 63
2, 42092, Note_on_c, 0, 60, 59
2, 42109, Note_on_c, 0, 60, 0
2, 42112, Note_on_c, 0, 48, 0
2, 42151, Note_on_c, 0, 60, 72
2, 42164, Note_on_c, 0, 48, 65
2, 42191, Note_on_c, 0, 60, 0
2, 42200, Note_on_c, 0, 48, 0
2, 42217, Note_on_c, 0, 49, 71
2, 42217, Note_on_c, 0, 61, 74
2, 42274, Control_c, 0, 64, 127
2, 42391, Note_on_c, 0, 41, 0
2, 42413, Note_on_c, 0, 69, 0
2, 42416, Note_on_c, 0, 61, 0
2, 42432, Note_on_c, 0, 41, 60
2, 42439, Note_on_c, 0, 29, 59
2, 42452, Note_on_c, 0, 53, 0
2, 42455, Note_on_c, 0, 49, 0
2, 42480, Note_on_c, 0, 29, 0
2, 42480, Note_on_c, 0, 69, 69
2, 42482, Note_on_c, 0, 61, 47
2, 42485, Note_on_c, 0, 73, 66
2, 42490, Note_on_c, 0, 57, 0
2, 42498, Note_on_c, 0, 41, 0
2, 42545, Note_on_c, 0, 29, 55
2, 42552, Note_on_c, 0, 41, 61
2, 42585, Note_on_c, 0, 41, 0
2, 42585, Note_on_c, 0, 29, 0
2, 42588, Note_on_c, 0, 73, 0
2, 42588, Note_on_c, 0, 69, 0
2, 42591, Note_on_c, 0, 61, 0
2, 42616, Note_on_c, 0, 59, 56
2, 42616, Note_on_c, 0, 71, 68
2, 42655, Note_on_c, 0, 29, 60
2, 42655, Note_on_c, 0, 41, 60
2, 42693, Note_on_c, 0, 29, 0
2, 42696, Note_on_c, 0, 59, 0
2, 42696, Note_on_c, 0, 71, 0
2, 42698, Note_on_c, 0, 41, 0
2, 42725, Note_on_c, 0, 69, 68
2, 42747, Note_on_c, 0, 29, 54
2, 42747, Note_on_c, 0, 57, 56
2, 42755, Note_on_c, 0, 41, 58
2, 42797, Note_on_c, 0, 57, 0
2, 42807, Note_on_c, 0, 69, 0
2, 42812, Note_on_c, 0, 29, 0
2, 42821, Note_on_c, 0, 41, 0
2, 42839, Control_c, 0, 64, 0
2, 42839, Note_on_c, 0, 57, 60
2, 42839, Note_on_c, 0, 61, 59
2, 42839, Note_on_c, 0, 68, 72
2, 42854, Note_on_c, 0, 30, 60
2, 42871, Note_on_c, 0, 42, 66
2, 42993, Note_on_c, 0, 61, 0
2, 43035, Note_on_c, 0, 66, 64
2, 43078, Note_on_c, 0, 68, 0
2, 43085, Note_on_c, 0, 42, 0
2, 43093, Note_on_c, 0, 57, 0
2, 43115, Control_c, 0, 64, 127
2, 43130, Note_on_c, 0, 49, 53
2, 43133, Note_on_c, 0, 30, 0
2, 43136, Note_on_c, 0, 54, 62
2, 43139, Note_on_c, 0, 57, 60
2, 43139, Note_on_c, 0, 61, 63
2, 43142, Note_on_c, 0, 42, 59
2, 43147, Note_on_c, 0, 66, 0
2, 43159, Note_on_c, 0, 49, 0
2, 43169, Note_on_c, 0, 61, 0
2, 43199, Note_on_c, 0, 49, 62
2, 43199, Note_on_c, 0, 61, 63
2, 43225, Note_on_c, 0, 61, 0
2, 43225, Note_on_c, 0, 49, 0
2, 43260, Note_on_c, 0, 49, 61
2, 43268, Note_on_c, 0, 61, 66
2, 43288, Note_on_c, 0, 49, 0
2, 43293, Control_c, 0, 64, 0
2, 43308, Note_on_c, 0, 61, 0
2, 43323, Note_on_c, 0, 49, 65
2, 43344, Note_on_c, 0, 61, 70
2, 43413, Note_on_c, 0, 62, 79
2, 43416, Note_on_c, 0, 50, 84
2, 43440, Note_on_c, 0, 61, 0
2, 43450, Note_on_c, 0, 49, 0
2, 43536, Note_on_c, 0, 42, 0
2, 43546, Control_c, 0, 64, 127
2, 43561, Note_on_c, 0, 62, 0
2, 43574, Note_on_c, 0, 57, 0
2, 43604, Note_on_c, 0, 30, 53
2, 43608, Note_on_c, 0, 42, 53
2, 43616, Note_on_c, 0, 57, 47
2, 43616, Note_on_c, 0, 69, 69
2, 43616, Note_on_c, 0, 62, 51
2, 43619, Note_on_c, 0, 54, 0
2, 43622, Note_on_c, 0, 50, 0
2, 43634, Note_on_c, 0, 30, 0
2, 43644, Note_on_c, 0, 42, 0
2, 43691, Note_on_c, 0, 30, 52
2, 43701, Note_on_c, 0, 42, 52
2, 43721, Note_on_c, 0, 30, 0
2, 43726, Note_on_c, 0, 42, 0
2, 43730, Note_on_c, 0, 62, 0
2, 43730, Note_on_c, 0, 69, 0
2, 43733, Note_on_c, 0, 55, 48
2, 43738, Note_on_c, 0, 57, 0
2, 43738, Note_on_c, 0, 67, 43
2, 43753, Note_on_c, 0, 30, 53
2, 43763, Note_on_c, 0, 42, 52
2, 43783, Note_on_c, 0, 30, 0
2, 43803, Note_on_c, 0, 42, 0
2, 43803, Note_on_c, 0, 55, 0
2, 43806, Note_on_c, 0, 54, 47
2, 43819, Note_on_c, 0, 66, 46
2, 43822, Note_on_c, 0, 67, 0
2, 43842, Note_on_c, 0, 30, 47
2, 43854, Note_on_c, 0, 42, 52
2, 43870, Note_on_c, 0, 30, 0
2, 43877, Note_on_c, 0, 42, 0
2, 43887, Note_on_c, 0, 54, 0
2, 43899, Note_on_c, 0, 66, 0
2, 43902, Control_c, 0, 64, 0
2, 43912, Note_on_c, 0, 52, 66
2, 43912, Note_on_c, 0, 58, 66
2, 43912, Note_on_c, 0, 64, 70
2, 43915, Note_on_c, 0, 42, 71
2, 43920, Note_on_c, 0, 30, 67
2, 44068, Note_on_c, 0, 30, 0
2, 44073, Note_on_c, 0, 54, 53
2, 44095, Note_on_c, 0, 42, 0
2, 44108, Note_on_c, 0, 57, 51
2, 44123, Note_on_c, 0, 62, 49
2, 44148, Note_on_c, 0, 58, 0
2, 44148, Note_on_c, 0, 52, 0
2, 44158, Note_on_c, 0, 64, 0
2, 44158, Note_on_c, 0, 69, 77
2, 44158, Note_on_c, 0, 74, 73
2, 44165, Note_on_c, 0, 81, 73
2, 44190, Note_on_c, 0, 54, 0
2, 44195, Control_c, 0, 64, 127
2, 44232, Note_on_c, 0, 54, 49
2, 44259, Note_on_c, 0, 54, 0
2, 44284, Note_on_c, 0, 67, 66
2, 44287, Note_on_c, 0, 81, 0
2, 44290, Note_on_c, 0, 74, 0
2, 44290, Note_on_c, 0, 69, 0
2, 44290, Note_on_c, 0, 79, 72
2, 44298, Note_on_c, 0, 54, 50
2, 44323, Note_on_c, 0, 54, 0
2, 44370, Note_on_c, 0, 79, 0
2, 44373, Note_on_c, 0, 78, 66
2, 44376, Note_on_c, 0, 54, 52
2, 44376, Note_on_c, 0, 66, 67
2, 44378, Note_on_c, 0, 67, 0
2, 44413, Note_on_c, 0, 54, 0
2, 44452, Note_on_c, 0, 54, 49
2, 44452, Note_on_c, 0, 58, 52
2, 44465, Control_c, 0, 64, 0
2, 44470, Note_on_c, 0, 66, 0
2, 44479, Note_on_c, 0, 78, 0
2, 44479, Note_on_c, 0, 70, 74
2, 44484, Note_on_c, 0, 64, 62
2, 44487, Note_on_c, 0, 76, 76
2, 44492, Note_on_c, 0, 57, 0
2, 44504, Note_on_c, 0, 62, 0
2, 44648, Note_on_c, 0, 74, 65
2, 44651, Note_on_c, 0, 62, 62
2, 44671, Note_on_c, 0, 76, 0
2, 44687, Note_on_c, 0, 70, 0
2, 44707, Note_on_c, 0, 30, 60
2, 44716, Note_on_c, 0, 64, 0
2, 44729, Note_on_c, 0, 58, 0
2, 44729, Note_on_c, 0, 54, 0
2, 44751, Note_on_c, 0, 62, 0
2, 44760, Note_on_c, 0, 74, 0
2, 44765, Note_on_c, 0, 42, 61
2, 44795, Note_on_c, 0, 57, 48
2, 44795, Note_on_c, 0, 62, 49
2, 44795, Note_on_c, 0, 69, 68
2, 44803, Note_on_c, 0, 30, 0
2, 44815, Note_on_c, 0, 42, 0
2, 44825, Control_c, 0, 64, 127
2, 44859, Note_on_c, 0, 30, 53
2, 44864, Note_on_c, 0, 42, 47
2, 44880, Note_on_c, 0, 30, 0
2, 44884, Note_on_c, 0, 42, 0
2, 44889, Note_on_c, 0, 69, 0
2, 44889, Note_on_c, 0, 62, 0
2, 44894, Note_on_c, 0, 55, 53
2, 44902, Note_on_c, 0, 67, 66
2, 44906, Note_on_c, 0, 57, 0
2, 44928, Note_on_c, 0, 30, 49
2, 44941, Note_on_c, 0, 42, 47
2, 44953, Note_on_c, 0, 30, 0
2, 44958, Note_on_c, 0, 42, 0
2, 44961, Note_on_c, 0, 67, 0
2, 44969, Note_on_c, 0, 55, 0
2, 44972, Note_on_c, 0, 54, 48
2, 44975, Note_on_c, 0, 66, 68
2, 44990, Note_on_c, 0, 30, 54
2, 44995, Note_on_c, 0, 42, 50
2, 45017, Note_on_c, 0, 30, 0
2, 45022, Note_on_c, 0, 42, 0
2, 45044, Control_c, 0, 64, 0
2, 45053, Note_on_c, 0, 30, 71
2, 45061, Note_on_c, 0, 52, 70
2, 45061, Note_on_c, 0, 64, 66
2, 45064, Note_on_c, 0, 58, 66
2, 45067, Note_on_c, 0, 42, 70
2, 45070, Note_on_c, 0, 66, 0
2, 45070, Note_on_c, 0, 54, 0
2, 45228, Note_on_c, 0, 42, 0
2, 45243, Note_on_c, 0, 64, 0
2, 45243, Note_on_c, 0, 30, 0
2, 45248, Note_on_c, 0, 58, 0
2, 45264, Note_on_c, 0, 52, 0
2, 45276, Note_on_c, 0, 47, 58
2, 45276, Note_on_c, 0, 55, 57
2, 45286, Note_on_c, 0, 50, 54
2, 45286, Note_on_c, 0, 67, 72
2, 45286, Note_on_c, 0, 71, 71
2, 45295, Note_on_c, 0, 62, 58
2, 45315, Note_on_c, 0, 67, 0
2, 45318, Note_on_c, 0, 71, 0
2, 45338, Control_c, 0, 64, 127
2, 45348, Note_on_c, 0, 67, 59
2, 45348, Note_on_c, 0, 71, 64
2, 45375, Note_on_c, 0, 67, 0
2, 45383, Note_on_c, 0, 71, 0
2, 45408, Note_on_c, 0, 67, 65
2, 45415, Note_on_c, 0, 71, 69
2, 45423, Control_c, 0, 64, 0
2, 45440, Note_on_c, 0, 71, 0
2, 45445, Note_on_c, 0, 67, 0
2, 45472, Note_on_c, 0, 46, 61
2, 45480, Note_on_c, 0, 49, 61
2, 45480, Note_on_c, 0, 67, 69
2, 45480, Note_on_c, 0, 71, 67
2, 45489, Note_on_c, 0, 50, 0
2, 45504, Note_on_c, 0, 47, 0
2, 45504, Note_on_c, 0, 52, 64
2, 45517, Note_on_c, 0, 71, 0
2, 45517, Note_on_c, 0, 67, 0
2, 45539, Note_on_c, 0, 62, 0
2, 45539, Note_on_c, 0, 54, 66
2, 45544, Note_on_c, 0, 61, 66
2, 45549, Note_on_c, 0, 55, 0
2, 45549, Note_on_c, 0, 73, 79
2, 45561, Note_on_c, 0, 76, 82
2, 45561, Note_on_c, 0, 78, 79
2, 45564, Note_on_c, 0, 85, 84
2, 45636, Note_on_c, 0, 54, 0
2, 45686, Note_on_c, 0, 54, 71
2, 45689, Note_on_c, 0, 85, 0
2, 45689, Note_on_c, 0, 42, 72
2, 45696, Note_on_c, 0, 61, 0
2, 45699, Note_on_c, 0, 46, 0
2, 45704, Note_on_c, 0, 49, 0
2, 45704, Note_on_c, 0, 52, 0
2, 45709, Note_on_c, 0, 76, 0
2, 45709, Note_on_c, 0, 78, 0
2, 45709, Note_on_c, 0, 73, 0
2, 45714, Note_on_c, 0, 54, 0
2, 45723, Note_on_c, 0, 42, 0
2, 45766, Note_on_c, 0, 54, 56
2, 45768, Note_on_c, 0, 42, 57
2, 45795, Control_c, 0, 64, 127
2, 45800, Note_on_c, 0, 54, 0
2, 45803, Note_on_c, 0, 42, 0
2, 45833, Note_on_c, 0, 66, 82
2, 45833, Note_on_c, 0, 78, 77
2, 45860, Note_on_c, 0, 66, 0
2, 45867, Note_on_c, 0, 78, 0
2, 45888, Control_c, 0, 64, 0
2, 45895, Note_on_c, 0, 66, 65
2, 45898, Note_on_c, 0, 78, 60
2, 45933, Note_on_c, 0, 66, 0
2, 45937, Note_on_c, 0, 78, 0
2, 45958, Note_on_c, 0, 30, 83
2, 45965, Note_on_c, 0, 42, 80
2, 45992, Note_on_c, 0, 42, 0
2, 45995, Note_on_c, 0, 30, 0
2, 46047, Note_on_c, 0, 30, 53
2, 46047, Note_on_c, 0, 42, 55
2, 46074, Note_on_c, 0, 30, 0
2, 46081, Note_on_c, 0, 42, 0
2, 46144, Note_on_c, 0, 35, 55
2, 46152, Note_on_c, 0, 42, 58
2, 46152, Note_on_c, 0, 59, 56
2, 46152, Note_on_c, 0, 62, 59
2, 46154, Note_on_c, 0, 47, 56
2, 46157, Note_on_c, 0, 71, 74
2, 46222, Control_c, 0, 64, 127
2, 46425, Note_on_c, 0, 47, 0
2, 46428, Note_on_c, 0, 62, 0
2, 46428, Note_on_c, 0, 59, 0
2, 46436, Note_on_c, 0, 71, 0
2, 46443, Control_c, 0, 64, 0
2, 46448, Note_on_c, 0, 35, 0
2, 46448, Note_on_c, 0, 42, 0
2, 46468, Note_on_c, 0, 69, 64
2, 46471, Note_on_c, 0, 33, 67
2, 46471, Note_on_c, 0, 45, 69
2, 46476, Note_on_c, 0, 61, 69
2, 46476, Note_on_c, 0, 73, 67
2, 46506, Note_on_c, 0, 33, 0
2, 46509, Note_on_c, 0, 69, 0
2, 46509, Note_on_c, 0, 73, 0
2, 46512, Note_on_c, 0, 45, 0
2, 46516, Note_on_c, 0, 61, 0
2, 46554, Note_on_c, 0, 31, 57
2, 46554, Note_on_c, 0, 43, 61
2, 46557, Note_on_c, 0, 62, 59
2, 46557, Note_on_c, 0, 71, 62
2, 46557, Note_on_c, 0, 74, 68
2, 46582, Note_on_c, 0, 31, 0
2, 46584, Note_on_c, 0, 43, 0
2, 46584, Note_on_c, 0, 74, 0
2, 46584, Note_on_c, 0, 62, 0
2, 46592, Note_on_c, 0, 71, 0
2, 46625, Note_on_c, 0, 43, 63
2, 46628, Note_on_c, 0, 62, 62
2, 46628, Note_on_c, 0, 71, 70
2, 46631, Note_on_c, 0, 31, 66
2, 46635, Note_on_c, 0, 74, 69
2, 46645, Note_on_c, 0, 43, 0
2, 46653, Note_on_c, 0, 31, 0
2, 46665, Note_on_c, 0, 74, 0
2, 46665, Note_on_c, 0, 71, 0
2, 46670, Note_on_c, 0, 62, 0
2, 46700, Note_on_c, 0, 28, 61
2, 46703, Note_on_c, 0, 64, 64
2, 46703, Note_on_c, 0, 76, 70
2, 46705, Note_on_c, 0, 40, 61
2, 46708, Note_on_c, 0, 73, 67
2, 46741, Note_on_c, 0, 76, 0
2, 46744, Note_on_c, 0, 73, 0
2, 46744, Note_on_c, 0, 64, 0
2, 46747, Note_on_c, 0, 28, 0
2, 46752, Note_on_c, 0, 40, 0
2, 46774, Note_on_c, 0, 30, 61
2, 46796, Note_on_c, 0, 61, 65
2, 46799, Note_on_c, 0, 42, 66
2, 46801, Note_on_c, 0, 70, 70
2, 46806, Note_on_c, 0, 73, 71
2, 46863, Note_on_c, 0, 30, 0
2, 46880, Note_on_c, 0, 42, 0
2, 46915, Note_on_c, 0, 73, 0
2, 46918, Note_on_c, 0, 61, 0
2, 46927, Note_on_c, 0, 70, 0
2, 46930, Note_on_c, 0, 59, 82
2, 46933, Note_on_c, 0, 47, 85
2, 46953, Note_on_c, 0, 47, 0
2, 46958, Note_on_c, 0, 59, 0
2, 47005, Note_on_c, 0, 47, 55
2, 47008, Note_on_c, 0, 59, 59
2, 47035, Control_c, 0, 64, 127
2, 47040, Note_on_c, 0, 59, 0
2, 47042, Note_on_c, 0, 47, 0
2, 47067, Note_on_c, 0, 71, 84
2, 47072, Note_on_c, 0, 83, 83
2, 47092, Note_on_c, 0, 71, 0
2, 47097, Note_on_c, 0, 83, 0
2, 47139, Note_on_c, 0, 71, 63
2, 47139, Note_on_c, 0, 83, 59
2, 47179, Note_on_c, 0, 71, 0
2, 47182, Control_c, 0, 64, 0
2, 47184, Note_on_c, 0, 83, 0
2, 47189, Note_on_c, 0, 47, 79
2, 47194, Note_on_c, 0, 35, 84
2, 47219, Note_on_c, 0, 35, 0
2, 47219, Note_on_c, 0, 47, 0
2, 47266, Note_on_c, 0, 47, 59
2, 47266, Note_on_c, 0, 35, 54
2, 47301, Note_on_c, 0, 35, 0
2, 47301, Note_on_c, 0, 47, 0
2, 47346, Note_on_c, 0, 52, 56
2, 47349, Note_on_c, 0, 47, 55
2, 47356, Note_on_c, 0, 67, 75
2, 47359, Note_on_c, 0, 64, 55
2, 47359, Note_on_c, 0, 76, 78
2, 47362, Note_on_c, 0, 40, 58
2, 47437, Control_c, 0, 64, 127
2, 47606, Control_c, 0, 64, 0
2, 47616, Note_on_c, 0, 38, 66
2, 47616, Note_on_c, 0, 50, 68
2, 47623, Note_on_c, 0, 76, 0
2, 47623, Note_on_c, 0, 67, 0
2, 47626, Note_on_c, 0, 64, 0
2, 47629, Note_on_c, 0, 47, 0
2, 47629, Note_on_c, 0, 40, 0
2, 47629, Note_on_c, 0, 66, 69
2, 47629, Note_on_c, 0, 74, 74
2, 47629, Note_on_c, 0, 78, 72
2, 47632, Note_on_c, 0, 52, 0
2, 47659, Note_on_c, 0, 66, 0
2, 47662, Note_on_c, 0, 38, 0
2, 47662, Note_on_c, 0, 50, 0
2, 47664, Note_on_c, 0, 78, 0
2, 47667, Note_on_c, 0, 74, 0
2, 47697, Note_on_c, 0, 67, 72
2, 47700, Note_on_c, 0, 36, 56
2, 47700, Note_on_c, 0, 48, 57
2, 47703, Note_on_c, 0, 79, 73
2, 47703, Note_on_c, 0, 76, 68
2, 47720, Note_on_c, 0, 48, 0
2, 47723, Note_on_c, 0, 79, 0
2, 47723, Note_on_c, 0, 76, 0
2, 47723, Note_on_c, 0, 67, 0
2, 47726, Note_on_c, 0, 36, 0
2, 47756, Note_on_c, 0, 48, 67
2, 47759, Note_on_c, 0, 36, 64
2, 47759, Note_on_c, 0, 67, 69
2, 47761, Note_on_c, 0, 76, 73
2, 47761, Note_on_c, 0, 79, 71
2, 47796, Note_on_c, 0, 36, 0
2, 47799, Note_on_c, 0, 67, 0
2, 47802, Note_on_c, 0, 48, 0
2, 47805, Note_on_c, 0, 76, 0
2, 47812, Note_on_c, 0, 79, 0
2, 47830, Note_on_c, 0, 33, 65
2, 47839, Note_on_c, 0, 45, 62
2, 47842, Note_on_c, 0, 69, 68
2, 47842, Note_on_c, 0, 78, 71
2, 47842, Note_on_c, 0, 81, 67
2, 47867, Note_on_c, 0, 33, 0
2, 47875, Note_on_c, 0, 78, 0
2, 47875, Note_on_c, 0, 81, 0
2, 47875, Note_on_c, 0, 69, 0
2, 47884, Note_on_c, 0, 45, 0
2, 47927, Note_on_c, 0, 35, 64
2, 47927, Note_on_c, 0, 47, 67
2, 47934, Note_on_c, 0, 78, 70
2, 47942, Note_on_c, 0, 75, 70
2, 47945, Note_on_c, 0, 66, 73
2, 48051, Note_on_c, 0, 47, 0
2, 48096, Note_on_c, 0, 35, 0
2, 48101, Note_on_c, 0, 47, 71
2, 48164, Note_on_c, 0, 71, 63
2, 48171, Note_on_c, 0, 66, 0
2, 48184, Note_on_c, 0, 75, 0
2, 48196, Note_on_c, 0, 78, 0
2, 48196, Note_on_c, 0, 84, 76
2, 48201, Note_on_c, 0, 60, 72
2, 48204, Control_c, 0, 64, 127
2, 48214, Note_on_c, 0, 71, 0
2, 48240, Note_on_c, 0, 84, 0
2, 48263, Note_on_c, 0, 60, 0
2, 48265, Control_c, 0, 64, 0
2, 48295, Note_on_c, 0, 59, 64
2, 48295, Note_on_c, 0, 71, 69
2, 48300, Note_on_c, 0, 83, 71
2, 48335, Note_on_c, 0, 71, 0
2, 48355, Note_on_c, 0, 83, 0
2, 48370, Note_on_c, 0, 47, 0
2, 48375, Note_on_c, 0, 71, 63
2, 48380, Note_on_c, 0, 81, 63
2, 48387, Note_on_c, 0, 57, 68
2, 48397, Note_on_c, 0, 59, 0
2, 48412, Note_on_c, 0, 71, 0
2, 48428, Control_c, 0, 64, 127
2, 48443, Note_on_c, 0, 81, 0
2, 48470, Note_on_c, 0, 71, 66
2, 48475, Note_on_c, 0, 57, 0
2, 48475, Note_on_c, 0, 79, 68
2, 48478, Note_on_c, 0, 47, 64
2, 48478, Note_on_c, 0, 55, 65
2, 48482, Control_c, 0, 64, 0
2, 48509, Note_on_c, 0, 71, 0
2, 48529, Note_on_c, 0, 79, 0
2, 48554, Note_on_c, 0, 78, 55
2, 48559, Note_on_c, 0, 55, 0
2, 48562, Note_on_c, 0, 54, 58
2, 48567, Note_on_c, 0, 71, 58
2, 48600, Note_on_c, 0, 71, 0
2, 48604, Note_on_c, 0, 78, 0
2, 48639, Note_on_c, 0, 54, 0
2, 48639, Note_on_c, 0, 52, 62
2, 48648, Note_on_c, 0, 71, 57
2, 48661, Note_on_c, 0, 76, 58
2, 48688, Note_on_c, 0, 71, 0
2, 48697, Note_on_c, 0, 76, 0
2, 48697, Note_on_c, 0, 48, 78
2, 48702, Note_on_c, 0, 52, 0
2, 48712, Note_on_c, 0, 72, 43
2, 48715, Note_on_c, 0, 47, 0
2, 48757, Control_c, 0, 64, 127
2, 48760, Note_on_c, 0, 88, 75
2, 48768, Note_on_c, 0, 64, 72
2, 48794, Note_on_c, 0, 72, 0
2, 48804, Note_on_c, 0, 88, 0
2, 48859, Note_on_c, 0, 64, 0
2, 48868, Note_on_c, 0, 62, 71
2, 48871, Note_on_c, 0, 72, 72
2, 48893, Note_on_c, 0, 86, 66
2, 48931, Note_on_c, 0, 86, 0
2, 48940, Note_on_c, 0, 72, 0
2, 48945, Note_on_c, 0, 62, 0
2, 48970, Note_on_c, 0, 72, 71
2, 48978, Note_on_c, 0, 48, 0
2, 48981, Note_on_c, 0, 60, 69
2, 48990, Note_on_c, 0, 84, 70
2, 49010, Note_on_c, 0, 72, 0
2, 49026, Control_c, 0, 64, 0
2, 49029, Note_on_c, 0, 48, 69
2, 49038, Note_on_c, 0, 84, 0
2, 49038, Note_on_c, 0, 72, 69
2, 49043, Note_on_c, 0, 60, 0
2, 49076, Note_on_c, 0, 59, 71
2, 49079, Note_on_c, 0, 72, 0
2, 49086, Note_on_c, 0, 83, 69
2, 49099, Note_on_c, 0, 48, 0
2, 49111, Note_on_c, 0, 59, 0
2, 49124, Note_on_c, 0, 83, 0
2, 49128, Note_on_c, 0, 72, 72
2, 49136, Note_on_c, 0, 50, 62
2, 49136, Note_on_c, 0, 57, 66
2, 49158, Note_on_c, 0, 81, 68
2, 49163, Note_on_c, 0, 72, 0
2, 49193, Note_on_c, 0, 50, 0
2, 49193, Note_on_c, 0, 57, 0
2, 49208, Note_on_c, 0, 55, 62
2, 49211, Note_on_c, 0, 72, 70
2, 49221, Note_on_c, 0, 52, 64
2, 49224, Note_on_c, 0, 81, 0
2, 49224, Note_on_c, 0, 79, 69
2, 49250, Note_on_c, 0, 72, 0
2, 49260, Note_on_c, 0, 55, 0
2, 49270, Note_on_c, 0, 52, 0
2, 49274, Note_on_c, 0, 79, 0
2, 49296, Note_on_c, 0, 54, 66
2, 49296, Note_on_c, 0, 74, 69
2, 49296, Note_on_c, 0, 78, 68
2, 49326, Note_on_c, 0, 74, 0
2, 49339, Note_on_c, 0, 54, 0
2, 49344, Note_on_c, 0, 78, 0
2, 49408, Note_on_c, 0, 66, 75
2, 49408, Note_on_c, 0, 70, 76
2, 49408, Note_on_c, 0, 73, 71
2, 49411, Note_on_c, 0, 42, 63
2, 49411, Note_on_c, 0, 54, 62
2, 49440, Note_on_c, 0, 54, 0
2, 49440, Note_on_c, 0, 73, 0
2, 49440, Note_on_c, 0, 66, 0
2, 49445, Note_on_c, 0, 70, 0
2, 49453, Note_on_c, 0, 42, 0
2, 49500, Note_on_c, 0, 71, 77
2, 49500, Note_on_c, 0, 74, 73
2, 49503, Note_on_c, 0, 47, 61
2, 49503, Note_on_c, 0, 54, 59
2, 49506, Note_on_c, 0, 66, 77
2, 49533, Note_on_c, 0, 54, 0
2, 49536, Note_on_c, 0, 47, 0
2, 49538, Note_on_c, 0, 71, 0
2, 49538, Note_on_c, 0, 74, 0
2, 49538, Note_on_c, 0, 66, 0
2, 49613, Note_on_c, 0, 54, 61
2, 49613, Note_on_c, 0, 66, 66
2, 49613, Note_on_c, 0, 70, 65
2, 49616, Note_on_c, 0, 61, 61
2, 49619, Note_on_c, 0, 42, 66
2, 49652, Note_on_c, 0, 61, 0
2, 49652, Note_on_c, 0, 66, 0
2, 49652, Note_on_c, 0, 54, 0
2, 49655, Note_on_c, 0, 42, 0
2, 49659, Note_on_c, 0, 70, 0
2, 49724, Note_on_c, 0, 47, 60
2, 49724, Note_on_c, 0, 54, 64
2, 49728, Note_on_c, 0, 66, 69
2, 49731, Note_on_c, 0, 62, 60
2, 49731, Note_on_c, 0, 71, 65
2, 49752, Note_on_c, 0, 47, 0
2, 49754, Note_on_c, 0, 54, 0
2, 49764, Note_on_c, 0, 62, 0
2, 49764, Note_on_c, 0, 66, 0
2, 49764, Note_on_c, 0, 71, 0
2, 49831, Note_on_c, 0, 42, 60
2, 49831, Note_on_c, 0, 61, 62
2, 49834, Note_on_c, 0, 66, 70
2, 49837, Note_on_c, 0, 54, 64
2, 49837, Note_on_c, 0, 58, 62
2, 49867, Note_on_c, 0, 58, 0
2, 49867, Note_on_c, 0, 66, 0
2, 49867, Note_on_c, 0, 54, 0
2, 49872, Note_on_c, 0, 61, 0
2, 49872, Note_on_c, 0, 42, 0
2, 49921, Note_on_c, 0, 47, 65
2, 49921, Note_on_c, 0, 54, 60
2, 49921, Note_on_c, 0, 59, 60
2, 49921, Note_on_c, 0, 62, 64
2, 49921, Note_on_c, 0, 66, 66
2, 49954, Note_on_c, 0, 62, 0
2, 49954, Note_on_c, 0, 59, 0
2, 49954, Note_on_c, 0, 54, 0
2, 49959, Note_on_c, 0, 66, 0
2, 49962, Note_on_c, 0, 47, 0
2, 50014, Note_on_c, 0, 58, 61
2, 50014, Note_on_c, 0, 61, 60
2, 50016, Note_on_c, 0, 54, 64
2, 50019, Note_on_c, 0, 42, 64
2, 50052, Note_on_c, 0, 42, 0
2, 50052, Note_on_c, 0, 54, 0
2, 50057, Note_on_c, 0, 61, 0
2, 50057, Note_on_c, 0, 58, 0
2, 50116, Note_on_c, 0, 47, 65
2, 50119, Note_on_c, 0, 54, 60
2, 50119, Note_on_c, 0, 59, 59
2, 50119, Note_on_c, 0, 62, 59
2, 50152, Note_on_c, 0, 62, 0
2, 50152, Note_on_c, 0, 59, 0
2, 50155, Note_on_c, 0, 47, 0
2, 50172, Note_on_c, 0, 54, 0
2, 50236, Control_c, 0, 67, 127
2, 50249, Note_on_c, 0, 30, 56
2, 50254, Note_on_c, 0, 42, 55
2, 50256, Note_on_c, 0, 49, 57
2, 50256, Note_on_c, 0, 54, 53
2, 50256, Note_on_c, 0, 58, 56
2, 50281, Note_on_c, 0, 30, 0
2, 50284, Note_on_c, 0, 54, 0
2, 50284, Note_on_c, 0, 58, 0
2, 50284, Note_on_c, 0, 49, 0
2, 50287, Note_on_c, 0, 42, 0
2, 50364, Note_on_c, 0, 35, 60
2, 50386, Note_on_c, 0, 47, 66
2, 50419, Note_on_c, 0, 51, 49
2, 50448, Note_on_c, 0, 66, 62
2, 50451, Note_on_c, 0, 51, 0
2, 50459, Control_c, 0, 64, 127
2, 50486, Note_on_c, 0, 66, 0
2, 50503, Note_on_c, 0, 35, 0
2, 50568, Note_on_c, 0, 37, 59
2, 50568, Note_on_c, 0, 52, 60
2, 50568, Note_on_c, 0, 64, 65
2, 50572, Control_c, 0, 64, 0
2, 50599, Note_on_c, 0, 52, 0
2, 50612, Note_on_c, 0, 64, 0
2, 50615, Note_on_c, 0, 37, 0
2, 50649, Note_on_c, 0, 54, 60
2, 50654, Note_on_c, 0, 39, 62
2, 50662, Note_on_c, 0, 63, 64
2, 50688, Note_on_c, 0, 54, 0
2, 50696, Note_on_c, 0, 39, 0
2, 50706, Note_on_c, 0, 63, 0
2, 50731, Note_on_c, 0, 40, 64
2, 50738, Note_on_c, 0, 56, 64
2, 50743, Note_on_c, 0, 61, 66
2, 50770, Note_on_c, 0, 56, 0
2, 50787, Note_on_c, 0, 61, 0
2, 50795, Note_on_c, 0, 40, 0
2, 50832, Note_on_c, 0, 42, 66
2, 50845, Note_on_c, 0, 60, 66
2, 50855, Note_on_c, 0, 57, 64
2, 50877, Note_on_c, 0, 60, 0
2, 50880, Note_on_c, 0, 42, 0
2, 50895, Note_on_c, 0, 57, 0
2, 50925, Note_on_c, 0, 40, 59
2, 50934, Note_on_c, 0, 56, 61
2, 50934, Note_on_c, 0, 61, 61
2, 50961, Note_on_c, 0, 40, 0
2, 50971, Note_on_c, 0, 61, 0
2, 50971, Note_on_c, 0, 56, 0
2, 51016, Note_on_c, 0, 37, 59
2, 51024, Note_on_c, 0, 64, 55
2, 51026, Control_c, 0, 64, 127
2, 51026, Note_on_c, 0, 52, 59
2, 51048, Note_on_c, 0, 37, 0
2, 51058, Note_on_c, 0, 52, 0
2, 51063, Note_on_c, 0, 64, 0
2, 51090, Control_c, 0, 64, 0
2, 51102, Note_on_c, 0, 54, 55
2, 51105, Note_on_c, 0, 39, 54
2, 51115, Note_on_c, 0, 63, 58
2, 51140, Note_on_c, 0, 54, 0
2, 51152, Note_on_c, 0, 63, 0
2, 51162, Note_on_c, 0, 39, 0
2, 51169, Note_on_c, 0, 40, 54
2, 51177, Note_on_c, 0, 56, 55
2, 51182, Note_on_c, 0, 61, 56
2, 51204, Note_on_c, 0, 56, 0
2, 51219, Note_on_c, 0, 40, 0
2, 51224, Note_on_c, 0, 61, 0
2, 51251, Note_on_c, 0, 59, 64
2, 51254, Note_on_c, 0, 55, 65
2, 51259, Note_on_c, 0, 41, 61
2, 51288, Note_on_c, 0, 59, 0
2, 51291, Note_on_c, 0, 55, 0
2, 51304, Note_on_c, 0, 41, 0
2, 51321, Note_on_c, 0, 42, 53
2, 51331, Note_on_c, 0, 54, 53
2, 51343, Note_on_c, 0, 58, 52
2, 51368, Note_on_c, 0, 54, 0
2, 51378, Note_on_c, 0, 58, 0
2, 51405, Note_on_c, 0, 42, 0
2, 51405, Note_on_c, 0, 40, 52
2, 51427, Note_on_c, 0, 58, 48
2, 51434, Note_on_c, 0, 61, 53
2, 51444, Note_on_c, 0, 40, 0
2, 51459, Note_on_c, 0, 58, 0
2, 51469, Note_on_c, 0, 61, 0
2, 51496, Note_on_c, 0, 54, 58
2, 51499, Note_on_c, 0, 39, 56
2, 51528, Control_c, 0, 64, 127
2, 51533, Note_on_c, 0, 54, 0
2, 51538, Note_on_c, 0, 69, 68
2, 51563, Note_on_c, 0, 39, 0
2, 51578, Note_on_c, 0, 69, 0
2, 51588, Control_c, 0, 64, 0
2, 51588, Note_on_c, 0, 40, 59
2, 51605, Note_on_c, 0, 56, 58
2, 51623, Note_on_c, 0, 68, 62
2, 51635, Note_on_c, 0, 40, 0
2, 51638, Note_on_c, 0, 56, 0
2, 51663, Note_on_c, 0, 68, 0
2, 51688, Note_on_c, 0, 42, 55
2, 51697, Note_on_c, 0, 57, 58
2, 51710, Note_on_c, 0, 66, 63
2, 51743, Note_on_c, 0, 57, 0
2, 51745, Note_on_c, 0, 66, 0
2, 51761, Note_on_c, 0, 42, 0
2, 51786, Note_on_c, 0, 44, 55
2, 51786, Note_on_c, 0, 64, 58
2, 51791, Note_on_c, 0, 59, 58
2, 51825, Note_on_c, 0, 59, 0
2, 51830, Note_on_c, 0, 64, 0
2, 51845, Note_on_c, 0, 44, 0
2, 51872, Note_on_c, 0, 45, 52
2, 51875, Note_on_c, 0, 60, 54
2, 51875, Note_on_c, 0, 63, 54
2, 51897, Note_on_c, 0, 60, 0
2, 51917, Note_on_c, 0, 45, 0
2, 51922, Note_on_c, 0, 63, 0
2, 51937, Note_on_c, 0, 59, 48
2, 51940, Note_on_c, 0, 44, 51
2, 51960, Note_on_c, 0, 64, 50
2, 51978, Note_on_c, 0, 59, 0
2, 51985, Note_on_c, 0, 44, 0
2, 52001, Note_on_c, 0, 64, 0
2, 52026, Note_on_c, 0, 37, 49
2, 52035, Note_on_c, 0, 52, 50
2, 52043, Control_c, 0, 64, 127
2, 52068, Note_on_c, 0, 68, 65
2, 52076, Note_on_c, 0, 52, 0
2, 52105, Note_on_c, 0, 68, 0
2, 52108, Control_c, 0, 64, 0
2, 52121, Note_on_c, 0, 37, 0
2, 52128, Note_on_c, 0, 40, 58
2, 52128, Note_on_c, 0, 56, 59
2, 52151, Note_on_c, 0, 64, 56
2, 52168, Note_on_c, 0, 56, 0
2, 52195, Note_on_c, 0, 64, 0
2, 52212, Note_on_c, 0, 44, 59
2, 52215, Note_on_c, 0, 40, 0
2, 52215, Note_on_c, 0, 59, 57
2, 52220, Note_on_c, 0, 61, 59
2, 52252, Note_on_c, 0, 59, 0
2, 52265, Note_on_c, 0, 61, 0
2, 52282, Note_on_c, 0, 59, 61
2, 52290, Note_on_c, 0, 44, 0
2, 52295, Note_on_c, 0, 51, 47
2, 52297, Note_on_c, 0, 42, 52
2, 52318, Note_on_c, 0, 59, 0
2, 52330, Note_on_c, 0, 42, 0
2, 52330, Note_on_c, 0, 51, 0
2, 52363, Note_on_c, 0, 30, 50
2, 52395, Note_on_c, 0, 52, 49
2, 52395, Note_on_c, 0, 61, 52
2, 52430, Note_on_c, 0, 61, 0
2, 52430, Note_on_c, 0, 52, 0
2, 52435, Note_on_c, 0, 30, 0
2, 52457, Note_on_c, 0, 42, 54
2, 52466, Note_on_c, 0, 49, 51
2, 52466, Note_on_c, 0, 58, 50
2, 52491, Control_c, 0, 67, 0
2, 52496, Note_on_c, 0, 42, 0
2, 52499, Note_on_c, 0, 49, 0
2, 52504, Note_on_c, 0, 58, 0
2, 52512, Note_on_c, 0, 35, 53
2, 52527, Note_on_c, 0, 47, 0
2, 52569, Note_on_c, 0, 51, 51
2, 52579, Note_on_c, 0, 47, 47
2, 52601, Note_on_c, 0, 66, 60
2, 52604, Control_c, 0, 64, 127
2, 52607, Note_on_c, 0, 51, 0
2, 52633, Note_on_c, 0, 66, 0
2, 52651, Note_on_c, 0, 35, 0
2, 52703, Control_c, 0, 64, 0
2, 52710, Note_on_c, 0, 37, 50
2, 52718, Note_on_c, 0, 52, 47
2, 52723, Note_on_c, 0, 64, 48
2, 52755, Note_on_c, 0, 37, 0
2, 52760, Note_on_c, 0, 52, 0
2, 52773, Note_on_c, 0, 64, 0
2, 52802, Note_on_c, 0, 54, 51
2, 52805, Note_on_c, 0, 39, 53
2, 52813, Note_on_c, 0, 63, 47
2, 52840, Note_on_c, 0, 54, 0
2, 52849, Note_on_c, 0, 39, 0
2, 52857, Note_on_c, 0, 63, 0
2, 52877, Note_on_c, 0, 40, 50
2, 52877, Note_on_c, 0, 56, 53
2, 52885, Note_on_c, 0, 61, 53
2, 52907, Note_on_c, 0, 40, 0
2, 52910, Note_on_c, 0, 56, 0
2, 52920, Note_on_c, 0, 61, 0
2, 52971, Note_on_c, 0, 42, 49
2, 52981, Note_on_c, 0, 57, 53
2, 52993, Note_on_c, 0, 60, 53
2, 53011, Note_on_c, 0, 42, 0
2, 53016, Note_on_c, 0, 57, 0
2, 53025, Note_on_c, 0, 60, 0
2, 53045, Note_on_c, 0, 40, 48
2, 53065, Note_on_c, 0, 56, 52
2, 53073, Note_on_c, 0, 61, 47
2, 53100, Note_on_c, 0, 56, 0
2, 53112, Note_on_c, 0, 61, 0
2, 53133, Note_on_c, 0, 40, 0
2, 53155, Note_on_c, 0, 52, 60
2, 53158, Note_on_c, 0, 37, 58
2, 53173, Note_on_c, 0, 64, 60
2, 53181, Control_c, 0, 64, 127
2, 53190, Note_on_c, 0, 37, 0
2, 53198, Note_on_c, 0, 52, 0
2, 53215, Note_on_c, 0, 64, 0
2, 53232, Control_c, 0, 64, 0
2, 53232, Note_on_c, 0, 39, 60
2, 53248, Note_on_c, 0, 54, 58
2, 53257, Note_on_c, 0, 63, 53
2, 53287, Note_on_c, 0, 54, 0
2, 53287, Note_on_c, 0, 39, 0
2, 53303, Note_on_c, 0, 63, 0
2, 53315, Note_on_c, 0, 61, 53
2, 53323, Note_on_c, 0, 56, 59
2, 53326, Note_on_c, 0, 40, 58
2, 53352, Note_on_c, 0, 40, 0
2, 53360, Note_on_c, 0, 56, 0
2, 53363, Note_on_c, 0, 61, 0
2, 53396, Note_on_c, 0, 59, 58
2, 53399, Note_on_c, 0, 55, 59
2, 53401, Note_on_c, 0, 41, 54
2, 53434, Note_on_c, 0, 55, 0
2, 53434, Note_on_c, 0, 59, 0
2, 53454, Note_on_c, 0, 41, 0
2, 53474, Note_on_c, 0, 42, 50
2, 53479, Note_on_c, 0, 54, 53
2, 53484, Note_on_c, 0, 58, 51
2, 53517, Note_on_c, 0, 58, 0
2, 53517, Note_on_c, 0, 54, 0
2, 53524, Note_on_c, 0, 42, 0
2, 53557, Note_on_c, 0, 40, 51
2, 53572, Note_on_c, 0, 61, 47
2, 53580, Note_on_c, 0, 58, 47
2, 53595, Note_on_c, 0, 40, 0
2, 53613, Note_on_c, 0, 58, 0
2, 53617, Note_on_c, 0, 61, 0
2, 53638, Note_on_c, 0, 39, 58
2, 53647, Note_on_c, 0, 54, 58
2, 53657, Control_c, 0, 64, 127
2, 53666, Note_on_c, 0, 69, 72
2, 53684, Note_on_c, 0, 54, 0
2, 53706, Note_on_c, 0, 69, 0
2, 53728, Note_on_c, 0, 40, 59
2, 53736, Note_on_c, 0, 39, 0
2, 53738, Control_c, 0, 64, 0
2, 53748, Note_on_c, 0, 56, 57
2, 53765, Note_on_c, 0, 40, 0
2, 53765, Note_on_c, 0, 68, 61
2, 53785, Note_on_c, 0, 56, 0
2, 53798, Note_on_c, 0, 68, 0
2, 53835, Note_on_c, 0, 57, 59
2, 53840, Note_on_c, 0, 42, 53
2, 53840, Note_on_c, 0, 66, 65
2, 53873, Note_on_c, 0, 66, 0
2, 53880, Note_on_c, 0, 57, 0
2, 53888, Note_on_c, 0, 42, 0
2, 53910, Note_on_c, 0, 44, 58
2, 53915, Note_on_c, 0, 59, 54
2, 53915, Note_on_c, 0, 64, 54
2, 53945, Note_on_c, 0, 59, 0
2, 53950, Note_on_c, 0, 64, 0
2, 53976, Note_on_c, 0, 44, 0
2, 54006, Note_on_c, 0, 63, 59
2, 54009, Note_on_c, 0, 45, 56
2, 54009, Note_on_c, 0, 60, 55
2, 54039, Note_on_c, 0, 60, 0
2, 54047, Note_on_c, 0, 63, 0
2, 54067, Note_on_c, 0, 44, 53
2, 54072, Note_on_c, 0, 45, 0
2, 54079, Note_on_c, 0, 59, 51
2, 54079, Note_on_c, 0, 64, 50
2, 54112, Note_on_c, 0, 59, 0
2, 54117, Note_on_c, 0, 64, 0
2, 54129, Note_on_c, 0, 44, 0
2, 54146, Note_on_c, 0, 37, 52
2, 54154, Note_on_c, 0, 52, 50
2, 54184, Note_on_c, 0, 68, 60
2, 54193, Note_on_c, 0, 52, 0
2, 54209, Control_c, 0, 64, 127
2, 54218, Note_on_c, 0, 68, 0
2, 54251, Note_on_c, 0, 40, 50
2, 54261, Note_on_c, 0, 56, 53
2, 54283, Note_on_c, 0, 64, 54
2, 54288, Control_c, 0, 64, 0
2, 54297, Note_on_c, 0, 56, 0
2, 54324, Note_on_c, 0, 37, 0
2, 54324, Note_on_c, 0, 64, 0
2, 54351, Note_on_c, 0, 61, 48
2, 54354, Note_on_c, 0, 44, 53
2, 54354, Note_on_c, 0, 59, 54
2, 54386, Note_on_c, 0, 44, 0
2, 54386, Note_on_c, 0, 40, 0
2, 54389, Note_on_c, 0, 59, 0
2, 54389, Note_on_c, 0, 61, 0
2, 54405, Note_on_c, 0, 42, 53
2, 54414, Note_on_c, 0, 51, 54
2, 54422, Note_on_c, 0, 59, 52
2, 54439, Note_on_c, 0, 42, 0
2, 54449, Note_on_c, 0, 51, 0
2, 54458, Note_on_c, 0, 59, 0
2, 54493, Note_on_c, 0, 30, 53
2, 54510, Note_on_c, 0, 52, 49
2, 54520, Note_on_c, 0, 61, 48
2, 54550, Note_on_c, 0, 52, 0
2, 54565, Note_on_c, 0, 61, 0
2, 54585, Control_c, 0, 67, 127
2, 54590, Note_on_c, 0, 30, 0
2, 54590, Note_on_c, 0, 42, 48
2, 54595, Note_on_c, 0, 49, 47
2, 54595, Note_on_c, 0, 58, 49
2, 54622, Note_on_c, 0, 49, 0
2, 54622, Note_on_c, 0, 42, 0
2, 54639, Note_on_c, 0, 58, 0
2, 54678, Note_on_c, 0, 42, 72
2, 54688, Note_on_c, 0, 49, 72
2, 54693, Control_c, 0, 64, 127
2, 54710, Note_on_c, 0, 42, 0
2, 54722, Note_on_c, 0, 47, 0
2, 54727, Note_on_c, 0, 57, 50
2, 54727, Note_on_c, 0, 61, 49
2, 54765, Note_on_c, 0, 61, 0
2, 54765, Note_on_c, 0, 57, 0
2, 54804, Note_on_c, 0, 44, 54
2, 54807, Control_c, 0, 64, 0
2, 54810, Note_on_c, 0, 59, 52
2, 54825, Note_on_c, 0, 65, 60
2, 54847, Note_on_c, 0, 59, 0
2, 54867, Note_on_c, 0, 44, 0
2, 54870, Note_on_c, 0, 65, 0
2, 54892, Note_on_c, 0, 45, 52
2, 54892, Note_on_c, 0, 61, 50
2, 54897, Note_on_c, 0, 66, 54
2, 54932, Note_on_c, 0, 66, 0
2, 54932, Note_on_c, 0, 61, 0
2, 54952, Note_on_c, 0, 45, 0
2, 54979, Note_on_c, 0, 47, 54
2, 54991, Note_on_c, 0, 62, 49
2, 54991, Note_on_c, 0, 68, 54
2, 55018, Note_on_c, 0, 62, 0
2, 55023, Note_on_c, 0, 68, 0
2, 55043, Note_on_c, 0, 47, 0
2, 55056, Control_c, 0, 67, 0
2, 55058, Note_on_c, 0, 45, 49
2, 55068, Note_on_c, 0, 61, 47
2, 55068, Note_on_c, 0, 66, 55
2, 55105, Note_on_c, 0, 66, 0
2, 55105, Note_on_c, 0, 61, 0
2, 55135, Note_on_c, 0, 47, 47
2, 55143, Note_on_c, 0, 45, 0
2, 55152, Note_on_c, 0, 62, 50
2, 55152, Note_on_c, 0, 68, 60
2, 55182, Note_on_c, 0, 68, 0
2, 55185, Note_on_c, 0, 62, 0
2, 55212, Note_on_c, 0, 42, 59
2, 55215, Note_on_c, 0, 47, 0
2, 55224, Note_on_c, 0, 57, 56
2, 55224, Note_on_c, 0, 61, 59
2, 55270, Note_on_c, 0, 42, 0
2, 55272, Note_on_c, 0, 61, 0
2, 55272, Note_on_c, 0, 57, 0
2, 55290, Note_on_c, 0, 44, 55
2, 55322, Note_on_c, 0, 65, 64
2, 55327, Note_on_c, 0, 59, 53
2, 55357, Note_on_c, 0, 59, 0
2, 55362, Note_on_c, 0, 44, 0
2, 55365, Note_on_c, 0, 65, 0
2, 55374, Note_on_c, 0, 45, 50
2, 55384, Note_on_c, 0, 61, 70
2, 55384, Note_on_c, 0, 66, 65
2, 55416, Note_on_c, 0, 66, 0
2, 55424, Note_on_c, 0, 52, 69
2, 55427, Note_on_c, 0, 61, 0
2, 55452, Note_on_c, 0, 45, 0
2, 55457, Control_c, 0, 64, 127
2, 55460, Note_on_c, 0, 62, 47
2, 55463, Note_on_c, 0, 40, 48
2, 55467, Note_on_c, 0, 47, 47
2, 55470, Note_on_c, 0, 68, 65
2, 55492, Note_on_c, 0, 62, 0
2, 55502, Note_on_c, 0, 47, 0
2, 55507, Note_on_c, 0, 68, 0
2, 55514, Note_on_c, 0, 49, 0
2, 55522, Note_on_c, 0, 40, 0
2, 55557, Note_on_c, 0, 45, 44
2, 55569, Note_on_c, 0, 61, 41
2, 55574, Note_on_c, 0, 66, 65
2, 55607, Note_on_c, 0, 66, 0
2, 55607, Note_on_c, 0, 61, 0
2, 55622, Note_on_c, 0, 45, 0
2, 55627, Note_on_c, 0, 47, 41
2, 55630, Control_c, 0, 64, 0
2, 55650, Note_on_c, 0, 62, 45
2, 55655, Note_on_c, 0, 68, 66
2, 55687, Note_on_c, 0, 62, 0
2, 55692, Note_on_c, 0, 68, 0
2, 55717, Note_on_c, 0, 45, 44
2, 55725, Note_on_c, 0, 47, 0
2, 55745, Note_on_c, 0, 61, 60
2, 55754, Note_on_c, 0, 69, 64
2, 55776, Note_on_c, 0, 61, 0
2, 55789, Note_on_c, 0, 69, 0
2, 55799, Note_on_c, 0, 44, 57
2, 55806, Note_on_c, 0, 62, 61
2, 55814, Note_on_c, 0, 45, 0
2, 55817, Note_on_c, 0, 71, 64
2, 55847, Note_on_c, 0, 62, 0
2, 55859, Note_on_c, 0, 71, 0
2, 55876, Note_on_c, 0, 44, 0
2, 55886, Note_on_c, 0, 43, 54
2, 55901, Note_on_c, 0, 64, 57
2, 55901, Note_on_c, 0, 73, 60
2, 55941, Note_on_c, 0, 73, 0
2, 55941, Note_on_c, 0, 64, 0
2, 55975, Note_on_c, 0, 69, 66
2, 55991, Note_on_c, 0, 43, 0
2, 55995, Note_on_c, 0, 42, 60
2, 55998, Note_on_c, 0, 45, 63
2, 56001, Note_on_c, 0, 74, 64
2, 56028, Note_on_c, 0, 69, 0
2, 56038, Note_on_c, 0, 74, 0
2, 56047, Note_on_c, 0, 52, 0
2, 56047, Note_on_c, 0, 42, 0
2, 56052, Control_c, 0, 64, 127
2, 56057, Note_on_c, 0, 67, 65
2, 56062, Note_on_c, 0, 73, 60
2, 56084, Note_on_c, 0, 40, 61
2, 56109, Note_on_c, 0, 73, 0
2, 56126, Note_on_c, 0, 67, 0
2, 56141, Note_on_c, 0, 40, 0
2, 56146, Note_on_c, 0, 69, 66
2, 56146, Note_on_c, 0, 74, 62
2, 56149, Note_on_c, 0, 42, 67
2, 56166, Control_c, 0, 64, 0
2, 56191, Note_on_c, 0, 74, 0
2, 56191, Note_on_c, 0, 69, 0
2, 56231, Note_on_c, 0, 38, 66
2, 56235, Note_on_c, 0, 42, 0
2, 56238, Note_on_c, 0, 74, 67
2, 56241, Note_on_c, 0, 66, 74
2, 56271, Note_on_c, 0, 74, 0
2, 56274, Note_on_c, 0, 38, 0
2, 56279, Note_on_c, 0, 66, 0
2, 56318, Note_on_c, 0, 37, 66
2, 56321, Note_on_c, 0, 67, 66
2, 56333, Note_on_c, 0, 76, 65
2, 56355, Note_on_c, 0, 67, 0
2, 56355, Note_on_c, 0, 37, 0
2, 56368, Note_on_c, 0, 76, 0
2, 56400, Note_on_c, 0, 36, 65
2, 56408, Note_on_c, 0, 69, 64
2, 56418, Note_on_c, 0, 78, 66
2, 56443, Note_on_c, 0, 36, 0
2, 56446, Note_on_c, 0, 69, 0
2, 56458, Note_on_c, 0, 78, 0
2, 56480, Note_on_c, 0, 35, 61
2, 56480, Note_on_c, 0, 38, 62
2, 56483, Note_on_c, 0, 74, 61
2, 56496, Note_on_c, 0, 79, 67
2, 56518, Note_on_c, 0, 74, 0
2, 56527, Note_on_c, 0, 45, 0
2, 56532, Note_on_c, 0, 79, 0
2, 56547, Note_on_c, 0, 35, 0
2, 56569, Note_on_c, 0, 78, 66
2, 56572, Note_on_c, 0, 33, 65
2, 56577, Note_on_c, 0, 73, 60
2, 56615, Note_on_c, 0, 73, 0
2, 56619, Note_on_c, 0, 78, 0
2, 56641, Note_on_c, 0, 33, 0
2, 56662, Note_on_c, 0, 35, 65
2, 56677, Note_on_c, 0, 74, 65
2, 56677, Note_on_c, 0, 79, 61
2, 56702, Note_on_c, 0, 35, 0
2, 56714, Note_on_c, 0, 79, 0
2, 56714, Note_on_c, 0, 74, 0
2, 56741, Note_on_c, 0, 74, 72
2, 56749, Note_on_c, 0, 35, 65
2, 56769, Control_c, 0, 64, 127
2, 56774, Note_on_c, 0, 74, 0
2, 56774, Note_on_c, 0, 80, 67
2, 56789, Note_on_c, 0, 35, 0
2, 56805, Note_on_c, 0, 80, 0
2, 56839, Note_on_c, 0, 33, 65
2, 56847, Note_on_c, 0, 73, 68
2, 56847, Note_on_c, 0, 78, 68
2, 56884, Note_on_c, 0, 78, 0
2, 56887, Note_on_c, 0, 73, 0
2, 56887, Control_c, 0, 64, 0
2, 56895, Note_on_c, 0, 33, 0
2, 56922, Note_on_c, 0, 32, 61
2, 56939, Note_on_c, 0, 71, 67
2, 56939, Note_on_c, 0, 77, 68
2, 56969, Note_on_c, 0, 32, 0
2, 56978, Note_on_c, 0, 71, 0
2, 56983, Note_on_c, 0, 77, 0
2, 56993, Note_on_c, 0, 30, 61
2, 57010, Note_on_c, 0, 42, 60
2, 57013, Note_on_c, 0, 69, 65
2, 57013, Note_on_c, 0, 74, 67
2, 57046, Note_on_c, 0, 74, 0
2, 57048, Note_on_c, 0, 30, 0
2, 57051, Note_on_c, 0, 69, 0
2, 57056, Note_on_c, 0, 42, 0
2, 57069, Note_on_c, 0, 28, 59
2, 57091, Note_on_c, 0, 73, 64
2, 57094, Note_on_c, 0, 40, 58
2, 57094, Note_on_c, 0, 68, 61
2, 57111, Note_on_c, 0, 28, 0
2, 57123, Note_on_c, 0, 73, 0
2, 57128, Note_on_c, 0, 68, 0
2, 57138, Note_on_c, 0, 40, 0
2, 57153, Note_on_c, 0, 26, 59
2, 57166, Note_on_c, 0, 71, 59
2, 57168, Note_on_c, 0, 66, 65
2, 57195, Note_on_c, 0, 66, 0
2, 57198, Note_on_c, 0, 26, 0
2, 57201, Note_on_c, 0, 71, 0
2, 57231, Note_on_c, 0, 25, 64
2, 57246, Note_on_c, 0, 37, 66
2, 57251, Note_on_c, 0, 65, 62
2, 57251, Note_on_c, 0, 69, 63
2, 57273, Note_on_c, 0, 38, 0
2, 57288, Note_on_c, 0, 65, 0
2, 57288, Note_on_c, 0, 69, 0
2, 57340, Note_on_c, 0, 64, 52
2, 57340, Note_on_c, 0, 68, 60
2, 57378, Note_on_c, 0, 68, 0
2, 57378, Note_on_c, 0, 64, 0
2, 57423, Note_on_c, 0, 62, 48
2, 57431, Note_on_c, 0, 66, 60
2, 57463, Note_on_c, 0, 66, 0
2, 57463, Note_on_c, 0, 62, 0
2, 57510, Note_on_c, 0, 61, 47
2, 57510, Note_on_c, 0, 65, 62
2, 57543, Note_on_c, 0, 61, 0
2, 57551, Note_on_c, 0, 65, 0
2, 57583, Note_on_c, 0, 59, 53
2, 57586, Note_on_c, 0, 62, 53
2, 57621, Note_on_c, 0, 62, 0
2, 57621, Note_on_c, 0, 59, 0
2, 57668, Note_on_c, 0, 61, 53
2, 57677, Note_on_c, 0, 57, 60
2, 57702, Note_on_c, 0, 61, 0
2, 57707, Control_c, 0, 67, 127
2, 57712, Note_on_c, 0, 25, 0
2, 57720, Note_on_c, 0, 37, 0
2, 57720, Note_on_c, 0, 57, 0
2, 57729, Note_on_c, 0, 42, 58
2, 57756, Note_on_c, 0, 52, 54
2, 57756, Note_on_c, 0, 55, 60
2, 57761, Note_on_c, 0, 61, 62
2, 57788, Control_c, 0, 64, 127
2, 57792, Note_on_c, 0, 61, 0
2, 57792, Note_on_c, 0, 55, 0
2, 57792, Note_on_c, 0, 52, 0
2, 57847, Note_on_c, 0, 50, 48
2, 57847, Note_on_c, 0, 54, 51
2, 57847, Note_on_c, 0, 59, 51
2, 57880, Note_on_c, 0, 50, 0
2, 57888, Note_on_c, 0, 59, 0
2, 57888, Note_on_c, 0, 54, 0
2, 57942, Note_on_c, 0, 49, 47
2, 57942, Note_on_c, 0, 52, 47
2, 57942, Note_on_c, 0, 58, 53
2, 57962, Control_c, 0, 64, 0
2, 57984, Note_on_c, 0, 58, 0
2, 57984, Note_on_c, 0, 52, 0
2, 57984, Note_on_c, 0, 49, 0
2, 58011, Note_on_c, 0, 55, 48
2, 58016, Note_on_c, 0, 47, 54
2, 58032, Note_on_c, 0, 50, 49
2, 58052, Note_on_c, 0, 55, 0
2, 58055, Note_on_c, 0, 47, 0
2, 58062, Note_on_c, 0, 50, 0
2, 58097, Note_on_c, 0, 54, 51
2, 58102, Note_on_c, 0, 45, 52
2, 58102, Note_on_c, 0, 49, 54
2, 58134, Note_on_c, 0, 54, 0
2, 58137, Note_on_c, 0, 49, 0
2, 58137, Note_on_c, 0, 45, 0
2, 58170, Note_on_c, 0, 43, 53
2, 58197, Note_on_c, 0, 47, 48
2, 58209, Note_on_c, 0, 52, 52
2, 58226, Note_on_c, 0, 43, 0
2, 58231, Note_on_c, 0, 47, 0
2, 58241, Note_on_c, 0, 52, 0
2, 58248, Note_on_c, 0, 42, 0
2, 58251, Note_on_c, 0, 40, 66
2, 58269, Note_on_c, 0, 47, 60
2, 58269, Note_on_c, 0, 50, 62
2, 58303, Control_c, 0, 64, 127
2, 58308, Note_on_c, 0, 50, 0
2, 58308, Note_on_c, 0, 47, 0
2, 58341, Control_c, 0, 67, 0
2, 58356, Note_on_c, 0, 49, 54
2, 58361, Note_on_c, 0, 46, 48
2, 58381, Note_on_c, 0, 46, 0
2, 58389, Note_on_c, 0, 49, 0
2, 58439, Note_on_c, 0, 41, 61
2, 58443, Control_c, 0, 64, 0
2, 58443, Note_on_c, 0, 47, 62
2, 58456, Note_on_c, 0, 50, 45
2, 58483, Note_on_c, 0, 47, 0
2, 58483, Note_on_c, 0, 40, 0
2, 58492, Note_on_c, 0, 50, 0
2, 58535, Note_on_c, 0, 49, 48
2, 58544, Note_on_c, 0, 46, 53
2, 58574, Note_on_c, 0, 46, 0
2, 58574, Note_on_c, 0, 49, 0
2, 58599, Note_on_c, 0, 40, 67
2, 58624, Note_on_c, 0, 47, 45
2, 58629, Note_on_c, 0, 50, 46
2, 58656, Note_on_c, 0, 47, 0
2, 58660, Note_on_c, 0, 41, 0
2, 58665, Note_on_c, 0, 50, 0
2, 58720, Note_on_c, 0, 46, 50
2, 58728, Note_on_c, 0, 49, 49
2, 58754, Note_on_c, 0, 49, 0
2, 58754, Note_on_c, 0, 46, 0
2, 58764, Note_on_c, 0, 41, 68
2, 58819, Note_on_c, 0, 47, 44
2, 58822, Note_on_c, 0, 50, 43
2, 58837, Note_on_c, 0, 40, 0
2, 58842, Control_c, 0, 64, 127
2, 58854, Note_on_c, 0, 50, 0
2, 58854, Note_on_c, 0, 47, 0
2, 58914, Note_on_c, 0, 46, 48
2, 58914, Note_on_c, 0, 49, 49
2, 58948, Note_on_c, 0, 49, 0
2, 58948, Note_on_c, 0, 46, 0
2, 58981, Control_c, 0, 64, 0
2, 58996, Note_on_c, 0, 47, 49
2, 58996, Note_on_c, 0, 50, 50
2, 59029, Control_c, 0, 67, 127
2, 59034, Note_on_c, 0, 50, 0
2, 59034, Note_on_c, 0, 47, 0
2, 59084, Note_on_c, 0, 42, 57
2, 59084, Note_on_c, 0, 46, 55
2, 59084, Note_on_c, 0, 49, 58
2, 59111, Note_on_c, 0, 41, 0
2, 59115, Note_on_c, 0, 49, 0
2, 59115, Note_on_c, 0, 46, 0
2, 59170, Note_on_c, 0, 47, 60
2, 59180, Note_on_c, 0, 50, 53
2, 59202, Note_on_c, 0, 47, 0
2, 59214, Note_on_c, 0, 50, 0
2, 59274, Note_on_c, 0, 46, 54
2, 59274, Note_on_c, 0, 49, 49
2, 59306, Note_on_c, 0, 49, 0
2, 59306, Note_on_c, 0, 46, 0
2, 59344, Note_on_c, 0, 35, 52
2, 59394, Note_on_c, 0, 66, 63
2, 59414, Note_on_c, 0, 42, 0
2, 59426, Control_c, 0, 64, 127
2, 59429, Note_on_c, 0, 47, 63
2, 59429, Note_on_c, 0, 51, 65
2, 59521, Note_on_c, 0, 37, 62
2, 59521, Note_on_c, 0, 52, 62
2, 59531, Note_on_c, 0, 64, 63
2, 59556, Note_on_c, 0, 51, 0
2, 59564, Note_on_c, 0, 35, 0
2, 59573, Note_on_c, 0, 66, 0
2, 59613, Note_on_c, 0, 54, 60
2, 59613, Note_on_c, 0, 63, 62
2, 59616, Note_on_c, 0, 39, 60
2, 59618, Note_on_c, 0, 37, 0
2, 59645, Control_c, 0, 64, 0
2, 59665, Note_on_c, 0, 52, 0
2, 59668, Note_on_c, 0, 64, 0
2, 59688, Note_on_c, 0, 39, 0
2, 59693, Note_on_c, 0, 40, 60
2, 59698, Note_on_c, 0, 56, 61
2, 59698, Note_on_c, 0, 61, 64
2, 59743, Note_on_c, 0, 54, 0
2, 59748, Note_on_c, 0, 63, 0
2, 59795, Note_on_c, 0, 57, 56
2, 59800, Note_on_c, 0, 60, 54
2, 59803, Note_on_c, 0, 42, 56
2, 59818, Note_on_c, 0, 40, 0
2, 59828, Note_on_c, 0, 61, 0
2, 59845, Note_on_c, 0, 56, 0
2, 59884, Note_on_c, 0, 56, 60
2, 59884, Note_on_c, 0, 61, 56
2, 59887, Note_on_c, 0, 40, 58
2, 59890, Note_on_c, 0, 42, 0
2, 59915, Note_on_c, 0, 60, 0
2, 59915, Note_on_c, 0, 57, 0
2, 59997, Note_on_c, 0, 37, 60
2, 59997, Note_on_c, 0, 52, 58
2, 59997, Note_on_c, 0, 64, 59
2, 60000, Note_on_c, 0, 40, 0
2, 60022, Note_on_c, 0, 56, 0
2, 60026, Note_on_c, 0, 61, 0
2, 60039, Control_c, 0, 64, 127
2, 60098, Note_on_c, 0, 39, 52
2, 60098, Note_on_c, 0, 54, 50
2, 60098, Note_on_c, 0, 63, 47
2, 60106, Note_on_c, 0, 37, 0
2, 60139, Note_on_c, 0, 52, 0
2, 60142, Note_on_c, 0, 64, 0
2, 60167, Note_on_c, 0, 61, 49
2, 60171, Note_on_c, 0, 40, 53
2, 60171, Note_on_c, 0, 56, 47
2, 60192, Note_on_c, 0, 39, 0
2, 60199, Note_on_c, 0, 54, 0
2, 60199, Note_on_c, 0, 63, 0
2, 60259, Control_c, 0, 64, 0
2, 60259, Note_on_c, 0, 41, 63
2, 60264, Note_on_c, 0, 55, 62
2, 60264, Note_on_c, 0, 59, 62
2, 60296, Note_on_c, 0, 61, 0
2, 60296, Note_on_c, 0, 56, 0
2, 60299, Note_on_c, 0, 40, 0
2, 60338, Note_on_c, 0, 42, 53
2, 60356, Note_on_c, 0, 54, 54
2, 60356, Note_on_c, 0, 58, 51
2, 60378, Note_on_c, 0, 41, 0
2, 60378, Control_c, 0, 67, 0
2, 60398, Note_on_c, 0, 59, 0
2, 60401, Note_on_c, 0, 55, 0
2, 60423, Note_on_c, 0, 58, 0
2, 60453, Note_on_c, 0, 42, 0
2, 60453, Note_on_c, 0, 58, 51
2, 60460, Note_on_c, 0, 40, 49
2, 60460, Note_on_c, 0, 61, 50
2, 60485, Note_on_c, 0, 54, 0
2, 60542, Note_on_c, 0, 39, 54
2, 60545, Note_on_c, 0, 40, 0
2, 60554, Control_c, 0, 64, 127
2, 60559, Note_on_c, 0, 61, 0
2, 60567, Note_on_c, 0, 58, 0
2, 60575, Note_on_c, 0, 54, 49
2, 60592, Note_on_c, 0, 69, 66
2, 60656, Note_on_c, 0, 40, 48
2, 60673, Note_on_c, 0, 56, 51
2, 60700, Note_on_c, 0, 39, 0
2, 60720, Note_on_c, 0, 54, 0
2, 60758, Note_on_c, 0, 57, 51
2, 60758, Note_on_c, 0, 68, 65
2, 60761, Note_on_c, 0, 42, 49
2, 60788, Note_on_c, 0, 40, 0
2, 60791, Note_on_c, 0, 69, 0
2, 60803, Note_on_c, 0, 56, 0
2, 60806, Control_c, 0, 64, 0
2, 60856, Note_on_c, 0, 59, 53
2, 60861, Note_on_c, 0, 44, 54
2, 60895, Note_on_c, 0, 42, 0
2, 60903, Note_on_c, 0, 57, 0
2, 60942, Note_on_c, 0, 45, 54
2, 60942, Note_on_c, 0, 60, 51
2, 60942, Note_on_c, 0, 66, 59
2, 60967, Note_on_c, 0, 44, 0
2, 61000, Note_on_c, 0, 68, 0
2, 61000, Note_on_c, 0, 59, 0
2, 61032, Note_on_c, 0, 44, 51
2, 61037, Note_on_c, 0, 59, 49
2, 61055, Note_on_c, 0, 45, 0
2, 61077, Note_on_c, 0, 60, 0
2, 61131, Note_on_c, 0, 37, 61
2, 61149, Note_on_c, 0, 44, 0
2, 61161, Note_on_c, 0, 52, 65
2, 61178, Note_on_c, 0, 64, 62
2, 61188, Note_on_c, 0, 59, 0
2, 61191, Control_c, 0, 64, 127
2, 61211, Note_on_c, 0, 66, 0
2, 61286, Note_on_c, 0, 54, 59
2, 61294, Note_on_c, 0, 39, 60
2, 61301, Note_on_c, 0, 37, 0
2, 61311, Note_on_c, 0, 52, 0
2, 61363, Control_c, 0, 64, 0
2, 61383, Note_on_c, 0, 39, 0
2, 61383, Note_on_c, 0, 40, 64
2, 61395, Note_on_c, 0, 56, 63
2, 61395, Note_on_c, 0, 63, 63
2, 61416, Note_on_c, 0, 54, 0
2, 61428, Note_on_c, 0, 64, 0
2, 61480, Note_on_c, 0, 41, 55
2, 61488, Note_on_c, 0, 59, 57
2, 61520, Note_on_c, 0, 56, 0
2, 61523, Note_on_c, 0, 40, 0
2, 61603, Note_on_c, 0, 44, 57
2, 61608, Note_on_c, 0, 61, 56
2, 61642, Note_on_c, 0, 63, 0
2, 61645, Note_on_c, 0, 41, 0
2, 61667, Control_c, 0, 67, 127
2, 61727, Note_on_c, 0, 58, 50
2, 61729, Note_on_c, 0, 42, 48
2, 61759, Note_on_c, 0, 44, 0
2, 61767, Note_on_c, 0, 59, 0
2, 61884, Control_c, 0, 67, 0
2, 61901, Note_on_c, 0, 52, 54
2, 61909, Note_on_c, 0, 55, 52
2, 61909, Note_on_c, 0, 59, 47
2, 61914, Note_on_c, 0, 47, 0
2, 61914, Note_on_c, 0, 42, 0
2, 61919, Note_on_c, 0, 58, 0
2, 61919, Note_on_c, 0, 61, 0
2, 62080, Control_c, 0, 64, 127
2, 62199, Note_on_c, 0, 43, 64
2, 62263, Control_c, 0, 64, 0
2, 62276, Note_on_c, 0, 43, 0
2, 62285, Note_on_c, 0, 42, 49
2, 62323, Note_on_c, 0, 42, 0
2, 62360, Note_on_c, 0, 42, 64
2, 62400, Note_on_c, 0, 42, 0
2, 62432, Note_on_c, 0, 40, 45
2, 62470, Note_on_c, 0, 40, 0
2, 62534, Control_c, 0, 67, 127
2, 62556, Note_on_c, 0, 49, 48
2, 62561, Note_on_c, 0, 54, 43
2, 62564, Note_on_c, 0, 58, 48
2, 62603, Note_on_c, 0, 55, 0
2, 62603, Note_on_c, 0, 52, 0
2, 62603, Note_on_c, 0, 59, 0
2, 62742, Control_c, 0, 64, 127
2, 63045, Control_c, 0, 64, 0
2, 63198, Note_on_c, 0, 59, 55
2, 63201, Note_on_c, 0, 52, 56
2, 63201, Note_on_c, 0, 55, 60
2, 63211, Note_on_c, 0, 49, 0
2, 63214, Note_on_c, 0, 54, 0
2, 63226, Note_on_c, 0, 58, 0
2, 63397, Control_c, 0, 64, 127
2, 63424, Note_on_c, 0, 43, 56
2, 63474, Note_on_c, 0, 43, 0
2, 63486, Control_c, 0, 64, 0
2, 63508, Note_on_c, 0, 42, 50
2, 63541, Note_on_c, 0, 42, 0
2, 63591, Note_on_c, 0, 42, 53
2, 63633, Note_on_c, 0, 42, 0
2, 63672, Note_on_c, 0, 40, 41
2, 63727, Note_on_c, 0, 40, 0
2, 64003, Note_on_c, 0, 49, 43
2, 64018, Note_on_c, 0, 59, 0
2, 64018, Note_on_c, 0, 52, 0
2, 64018, Note_on_c, 0, 55, 0
2, 64023, Note_on_c, 0, 54, 47
2, 64026, Note_on_c, 0, 58, 42
2, 64103, Control_c, 0, 64, 127
2, 64152, Control_c, 0, 67, 0
2, 64492, Control_c, 0, 64, 0
2, 64512, Note_on_c, 0, 54, 0
2, 64558, Note_on_c, 0, 54, 59
2, 64565, Note_on_c, 0, 50, 55
2, 64578, Note_on_c, 0, 57, 53
2, 64587, Note_on_c, 0, 58, 0
2, 64587, Note_on_c, 0, 49, 0
2, 64727, Control_c, 0, 64, 127
2, 64786, Note_on_c, 0, 38, 48
2, 64838, Note_on_c, 0, 38, 0
2, 64850, Control_c, 0, 64, 0
2, 64875, Note_on_c, 0, 37, 52
2, 64908, Note_on_c, 0, 37, 0
2, 64938, Note_on_c, 0, 37, 65
2, 64983, Note_on_c, 0, 37, 0
2, 65020, Note_on_c, 0, 36, 47
2, 65070, Note_on_c, 0, 36, 0
2, 65117, Note_on_c, 0, 48, 48
2, 65172, Note_on_c, 0, 50, 0
2, 65180, Control_c, 0, 64, 127
2, 65333, Control_c, 0, 67, 127
2, 65671, Note_on_c, 0, 49, 43
2, 65676, Control_c, 0, 64, 0
2, 65679, Note_on_c, 0, 53, 48
2, 65687, Note_on_c, 0, 56, 46
2, 65694, Note_on_c, 0, 48, 0
2, 65704, Note_on_c, 0, 57, 0
2, 65704, Note_on_c, 0, 54, 0
2, 65975, Note_on_c, 0, 37, 46
2, 66079, Note_on_c, 0, 37, 0
2, 66290, Control_c, 0, 67, 0
2, 66409, Control_c, 0, 64, 127
2, 66544, Note_on_c, 0, 49, 0
2, 66556, Note_on_c, 0, 53, 0
2, 66556, Note_on_c, 0, 56, 0
2, 66556, Control_c, 0, 64, 0
2, 66569, Note_on_c, 0, 54, 49
2, 66572, Note_on_c, 0, 42, 50
2, 66606, Note_on_c, 0, 54, 0
2, 66609, Note_on_c, 0, 42, 0
2, 66648, Note_on_c, 0, 42, 56
2, 66653, Note_on_c, 0, 54, 60
2, 66686, Note_on_c, 0, 54, 0
2, 66689, Note_on_c, 0, 42, 0
2, 66721, Note_on_c, 0, 42, 54
2, 66731, Note_on_c, 0, 54, 60
2, 66761, Note_on_c, 0, 42, 0
2, 66770, Note_on_c, 0, 54, 0
2, 66803, Note_on_c, 0, 54, 54
2, 66806, Note_on_c, 0, 42, 58
2, 66839, Note_on_c, 0, 42, 0
2, 66839, Note_on_c, 0, 54, 0
2, 66903, Note_on_c, 0, 59, 59
2, 66911, Note_on_c, 0, 35, 61
2, 66911, Note_on_c, 0, 47, 63
2, 66911, Note_on_c, 0, 50, 64
2, 66980, Control_c, 0, 64, 127
2, 67163, Note_on_c, 0, 59, 0
2, 67213, Note_on_c, 0, 35, 0
2, 67213, Note_on_c, 0, 31, 61
2, 67218, Control_c, 0, 64, 0
2, 67218, Note_on_c, 0, 43, 65
2, 67218, Note_on_c, 0, 55, 66
2, 67218, Note_on_c, 0, 59, 65
2, 67223, Note_on_c, 0, 47, 0
2, 67223, Note_on_c, 0, 50, 0
2, 67249, Note_on_c, 0, 59, 0
2, 67252, Note_on_c, 0, 31, 0
2, 67257, Note_on_c, 0, 55, 0
2, 67257, Note_on_c, 0, 43, 0
2, 67302, Note_on_c, 0, 30, 54
2, 67312, Note_on_c, 0, 57, 58
2, 67312, Note_on_c, 0, 61, 59
2, 67315, Note_on_c, 0, 42, 60
2, 67330, Note_on_c, 0, 30, 0
2, 67340, Note_on_c, 0, 57, 0
2, 67340, Note_on_c, 0, 61, 0
2, 67343, Note_on_c, 0, 42, 0
2, 67368, Note_on_c, 0, 30, 59
2, 67372, Note_on_c, 0, 57, 59
2, 67372, Note_on_c, 0, 61, 59
2, 67380, Note_on_c, 0, 42, 60
2, 67405, Note_on_c, 0, 42, 0
2, 67405, Note_on_c, 0, 30, 0
2, 67408, Note_on_c, 0, 61, 0
2, 67416, Note_on_c, 0, 57, 0
2, 67448, Note_on_c, 0, 28, 60
2, 67453, Note_on_c, 0, 40, 55
2, 67453, Note_on_c, 0, 59, 55
2, 67453, Note_on_c, 0, 62, 60
2, 67483, Note_on_c, 0, 28, 0
2, 67488, Note_on_c, 0, 40, 0
2, 67492, Note_on_c, 0, 59, 0
2, 67492, Note_on_c, 0, 62, 0
2, 67542, Note_on_c, 0, 30, 49
2, 67542, Note_on_c, 0, 61, 49
2, 67545, Note_on_c, 0, 58, 48
2, 67548, Note_on_c, 0, 42, 49
2, 67603, Control_c, 0, 64, 127
2, 67786, Note_on_c, 0, 42, 0
2, 67825, Control_c, 0, 64, 0
2, 67852, Note_on_c, 0, 54, 47
2, 67855, Note_on_c, 0, 30, 0
2, 67855, Note_on_c, 0, 42, 49
2, 67858, Note_on_c, 0, 61, 0
2, 67861, Note_on_c, 0, 58, 0
2, 67876, Note_on_c, 0, 42, 0
2, 67884, Note_on_c, 0, 54, 0
2, 67923, Note_on_c, 0, 42, 50
2, 67923, Note_on_c, 0, 54, 48
2, 67950, Note_on_c, 0, 54, 0
2, 67953, Note_on_c, 0, 42, 0
2, 68005, Note_on_c, 0, 42, 59
2, 68010, Note_on_c, 0, 54, 60
2, 68035, Note_on_c, 0, 42, 0
2, 68044, Note_on_c, 0, 54, 0
2, 68079, Note_on_c, 0, 54, 56
2, 68082, Note_on_c, 0, 42, 56
2, 68116, Note_on_c, 0, 42, 0
2, 68116, Note_on_c, 0, 54, 0
2, 68176, Note_on_c, 0, 59, 60
2, 68188, Note_on_c, 0, 35, 65
2, 68188, Note_on_c, 0, 47, 62
2, 68188, Note_on_c, 0, 50, 62
2, 68245, Control_c, 0, 64, 127
2, 68411, Control_c, 0, 64, 0
2, 68421, Note_on_c, 0, 35, 0
2, 68421, Note_on_c, 0, 33, 60
2, 68425, Note_on_c, 0, 50, 0
2, 68425, Note_on_c, 0, 47, 0
2, 68441, Note_on_c, 0, 59, 0
2, 68463, Note_on_c, 0, 45, 61
2, 68463, Note_on_c, 0, 54, 59
2, 68463, Note_on_c, 0, 61, 60
2, 68496, Note_on_c, 0, 33, 0
2, 68500, Note_on_c, 0, 54, 0
2, 68505, Note_on_c, 0, 45, 0
2, 68510, Note_on_c, 0, 61, 0
2, 68532, Note_on_c, 0, 32, 53
2, 68537, Note_on_c, 0, 44, 56
2, 68542, Note_on_c, 0, 59, 54
2, 68542, Note_on_c, 0, 65, 66
2, 68568, Note_on_c, 0, 44, 0
2, 68568, Note_on_c, 0, 32, 0
2, 68586, Note_on_c, 0, 59, 0
2, 68586, Note_on_c, 0, 65, 0
2, 68625, Note_on_c, 0, 32, 53
2, 68628, Note_on_c, 0, 44, 57
2, 68628, Note_on_c, 0, 59, 60
2, 68628, Note_on_c, 0, 65, 66
2, 68658, Note_on_c, 0, 59, 0
2, 68663, Note_on_c, 0, 32, 0
2, 68665, Note_on_c, 0, 65, 0
2, 68668, Note_on_c, 0, 44, 0
2, 68681, Note_on_c, 0, 30, 56
2, 68698, Note_on_c, 0, 58, 55
2, 68698, Note_on_c, 0, 66, 66
2, 68703, Note_on_c, 0, 42, 58
2, 68728, Note_on_c, 0, 30, 0
2, 68731, Note_on_c, 0, 42, 0
2, 68736, Note_on_c, 0, 66, 0
2, 68736, Note_on_c, 0, 58, 0
2, 68787, Note_on_c, 0, 30, 53
2, 68790, Note_on_c, 0, 42, 59
2, 68790, Note_on_c, 0, 58, 54
2, 68798, Note_on_c, 0, 66, 65
2, 68880, Control_c, 0, 64, 127
2, 68999, Note_on_c, 0, 42, 0
2, 69024, Note_on_c, 0, 66, 0
2, 69048, Note_on_c, 0, 30, 0
2, 69048, Control_c, 0, 64, 0
2, 69058, Note_on_c, 0, 54, 49
2, 69061, Note_on_c, 0, 42, 53
2, 69078, Note_on_c, 0, 66, 68
2, 69081, Note_on_c, 0, 58, 0
2, 69094, Note_on_c, 0, 54, 0
2, 69101, Note_on_c, 0, 42, 0
2, 69111, Note_on_c, 0, 66, 0
2, 69153, Note_on_c, 0, 54, 49
2, 69156, Note_on_c, 0, 42, 52
2, 69159, Note_on_c, 0, 66, 62
2, 69181, Note_on_c, 0, 66, 0
2, 69181, Note_on_c, 0, 54, 0
2, 69184, Note_on_c, 0, 42, 0
2, 69214, Note_on_c, 0, 54, 54
2, 69216, Note_on_c, 0, 42, 55
2, 69232, Note_on_c, 0, 66, 65
2, 69244, Note_on_c, 0, 42, 0
2, 69249, Note_on_c, 0, 54, 0
2, 69254, Note_on_c, 0, 66, 0
2, 69284, Note_on_c, 0, 42, 54
2, 69284, Note_on_c, 0, 54, 54
2, 69284, Note_on_c, 0, 66, 69
2, 69329, Note_on_c, 0, 54, 0
2, 69332, Note_on_c, 0, 42, 0
2, 69341, Note_on_c, 0, 66, 0
2, 69388, Note_on_c, 0, 47, 53
2, 69391, Note_on_c, 0, 59, 55
2, 69391, Note_on_c, 0, 71, 72
2, 69394, Note_on_c, 0, 42, 57
2, 69397, Note_on_c, 0, 35, 60
2, 69405, Note_on_c, 0, 63, 57
2, 69427, Control_c, 0, 64, 127
2, 69621, Control_c, 0, 64, 0
2, 69625, Note_on_c, 0, 71, 0
2, 69628, Note_on_c, 0, 35, 0
2, 69628, Note_on_c, 0, 34, 59
2, 69631, Note_on_c, 0, 59, 0
2, 69636, Note_on_c, 0, 46, 66
2, 69644, Note_on_c, 0, 63, 0
2, 69644, Note_on_c, 0, 47, 0
2, 69644, Note_on_c, 0, 73, 62
2, 69651, Note_on_c, 0, 42, 0
2, 69651, Note_on_c, 0, 61, 61
2, 69656, Note_on_c, 0, 70, 66
2, 69669, Note_on_c, 0, 34, 0
2, 69669, Note_on_c, 0, 46, 0
2, 69684, Note_on_c, 0, 73, 0
2, 69689, Note_on_c, 0, 61, 0
2, 69694, Note_on_c, 0, 70, 0
2, 69726, Note_on_c, 0, 32, 60
2, 69734, Note_on_c, 0, 75, 59
2, 69737, Note_on_c, 0, 63, 66
2, 69742, Note_on_c, 0, 71, 60
2, 69744, Note_on_c, 0, 44, 59
2, 69754, Note_on_c, 0, 32, 0
2, 69762, Note_on_c, 0, 75, 0
2, 69765, Note_on_c, 0, 44, 0
2, 69768, Note_on_c, 0, 71, 0
2, 69770, Note_on_c, 0, 63, 0
2, 69805, Note_on_c, 0, 32, 60
2, 69808, Note_on_c, 0, 63, 66
2, 69811, Note_on_c, 0, 44, 62
2, 69814, Note_on_c, 0, 71, 59
2, 69814, Note_on_c, 0, 75, 61
2, 69834, Note_on_c, 0, 71, 0
2, 69837, Note_on_c, 0, 32, 0
2, 69844, Note_on_c, 0, 63, 0
2, 69844, Note_on_c, 0, 75, 0
2, 69847, Note_on_c, 0, 44, 0
2, 69889, Note_on_c, 0, 28, 66
2, 69892, Note_on_c, 0, 64, 63
2, 69895, Note_on_c, 0, 40, 64
2, 69900, Note_on_c, 0, 73, 64
2, 69900, Note_on_c, 0, 76, 65
2, 69922, Note_on_c, 0, 28, 0
2, 69932, Note_on_c, 0, 64, 0
2, 69936, Note_on_c, 0, 40, 0
2, 69939, Note_on_c, 0, 73, 0
2, 69939, Note_on_c, 0, 76, 0
2, 69974, Note_on_c, 0, 30, 66
2, 69979, Note_on_c, 0, 75, 69
2, 69982, Note_on_c, 0, 63, 59
2, 69982, Note_on_c, 0, 71, 70
2, 69984, Note_on_c, 0, 42, 66
2, 70064, Control_c, 0, 64, 127
2, 70228, Note_on_c, 0, 28, 73
2, 70231, Note_on_c, 0, 40, 72
2, 70234, Note_on_c, 0, 30, 0
2, 70239, Note_on_c, 0, 42, 0
2, 70264, Control_c, 0, 64, 0
2, 70264, Note_on_c, 0, 70, 64
2, 70264, Note_on_c, 0, 73, 60
2, 70267, Note_on_c, 0, 61, 53
2, 70272, Note_on_c, 0, 71, 0
2, 70274, Note_on_c, 0, 75, 0
2, 70277, Note_on_c, 0, 63, 0
2, 70293, Note_on_c, 0, 73, 0
2, 70296, Note_on_c, 0, 61, 0
2, 70298, Note_on_c, 0, 70, 0
2, 70331, Note_on_c, 0, 61, 51
2, 70331, Note_on_c, 0, 73, 65
2, 70336, Note_on_c, 0, 70, 65
2, 70361, Note_on_c, 0, 73, 0
2, 70361, Note_on_c, 0, 61, 0
2, 70370, Note_on_c, 0, 70, 0
2, 70405, Note_on_c, 0, 61, 48
2, 70408, Note_on_c, 0, 70, 71
2, 70408, Note_on_c, 0, 73, 72
2, 70435, Note_on_c, 0, 70, 0
2, 70438, Note_on_c, 0, 61, 0
2, 70438, Note_on_c, 0, 73, 0
2, 70475, Note_on_c, 0, 70, 67
2, 70478, Note_on_c, 0, 61, 48
2, 70483, Note_on_c, 0, 73, 72
2, 70522, Note_on_c, 0, 70, 0
2, 70525, Note_on_c, 0, 61, 0
2, 70525, Note_on_c, 0, 73, 0
2, 70577, Note_on_c, 0, 56, 67
2, 70580, Note_on_c, 0, 52, 62
2, 70583, Note_on_c, 0, 59, 62
2, 70583, Note_on_c, 0, 64, 62
2, 70583, Note_on_c, 0, 68, 79
2, 70583, Note_on_c, 0, 76, 75
2, 70600, Control_c, 0, 64, 127
2, 70783, Note_on_c, 0, 28, 0
2, 70791, Note_on_c, 0, 40, 0
2, 70806, Note_on_c, 0, 68, 0
2, 70809, Note_on_c, 0, 52, 0
2, 70814, Note_on_c, 0, 59, 0
2, 70814, Note_on_c, 0, 56, 0
2, 70814, Control_c, 0, 64, 0
2, 70817, Note_on_c, 0, 64, 0
2, 70817, Note_on_c, 0, 39, 74
2, 70820, Note_on_c, 0, 27, 75
2, 70820, Note_on_c, 0, 66, 73
2, 70820, Note_on_c, 0, 75, 75
2, 70820, Note_on_c, 0, 78, 77
2, 70842, Note_on_c, 0, 76, 0
2, 70851, Note_on_c, 0, 39, 0
2, 70851, Note_on_c, 0, 27, 0
2, 70854, Note_on_c, 0, 66, 0
2, 70859, Note_on_c, 0, 75, 0
2, 70859, Note_on_c, 0, 78, 0
2, 70884, Note_on_c, 0, 25, 75
2, 70894, Note_on_c, 0, 37, 72
2, 70898, Note_on_c, 0, 80, 63
2, 70901, Note_on_c, 0, 68, 69
2, 70901, Note_on_c, 0, 76, 68
2, 70909, Note_on_c, 0, 25, 0
2, 70914, Note_on_c, 0, 37, 0
2, 70931, Note_on_c, 0, 68, 0
2, 70936, Note_on_c, 0, 80, 0
2, 70939, Note_on_c, 0, 76, 0
2, 70956, Note_on_c, 0, 25, 66
2, 70961, Note_on_c, 0, 37, 65
2, 70968, Note_on_c, 0, 76, 76
2, 70973, Note_on_c, 0, 80, 73
2, 70978, Note_on_c, 0, 68, 75
2, 70991, Note_on_c, 0, 25, 0
2, 70995, Note_on_c, 0, 37, 0
2, 71011, Note_on_c, 0, 80, 0
2, 71011, Note_on_c, 0, 76, 0
2, 71018, Note_on_c, 0, 68, 0
2, 71028, Note_on_c, 0, 23, 63
2, 71033, Note_on_c, 0, 35, 70
2, 71036, Note_on_c, 0, 78, 86
2, 71036, Note_on_c, 0, 82, 83
2, 71048, Note_on_c, 0, 70, 88
2, 71068, Note_on_c, 0, 23, 0
2, 71078, Note_on_c, 0, 35, 0
2, 71123, Note_on_c, 0, 39, 84
2, 71126, Note_on_c, 0, 27, 86
2, 71168, Control_c, 0, 64, 127
2, 71339, Note_on_c, 0, 80, 68
2, 71342, Note_on_c, 0, 68, 71
2, 71342, Note_on_c, 0, 76, 71
2, 71362, Note_on_c, 0, 70, 0
2, 71379, Note_on_c, 0, 82, 0
2, 71379, Note_on_c, 0, 78, 0
2, 71424, Note_on_c, 0, 28, 65
2, 71429, Note_on_c, 0, 40, 67
2, 71439, Control_c, 0, 64, 0
2, 71473, Note_on_c, 0, 39, 0
2, 71476, Note_on_c, 0, 27, 0
2, 71653, Note_on_c, 0, 66, 68
2, 71653, Note_on_c, 0, 75, 66
2, 71653, Note_on_c, 0, 78, 68
2, 71658, Note_on_c, 0, 68, 0
2, 71690, Note_on_c, 0, 76, 0
2, 71690, Note_on_c, 0, 80, 0
2, 71740, Note_on_c, 0, 30, 59
2, 71743, Note_on_c, 0, 42, 61
2, 71781, Note_on_c, 0, 40, 0
2, 71788, Note_on_c, 0, 28, 0
2, 71840, Control_c, 0, 64, 127
2, 71878, Note_on_c, 0, 75, 0
2, 71929, Note_on_c, 0, 71, 69
2, 71929, Note_on_c, 0, 75, 65
2, 71932, Note_on_c, 0, 63, 49
2, 71954, Note_on_c, 0, 42, 0
2, 71964, Note_on_c, 0, 66, 0
2, 71981, Note_on_c, 0, 78, 0
2, 72006, Control_c, 0, 64, 0
2, 72006, Note_on_c, 0, 42, 48
2, 72009, Note_on_c, 0, 71, 0
2, 72009, Note_on_c, 0, 63, 0
2, 72009, Note_on_c, 0, 75, 0
2, 72009, Note_on_c, 0, 70, 66
2, 72009, Note_on_c, 0, 73, 72
2, 72012, Note_on_c, 0, 54, 52
2, 72012, Note_on_c, 0, 61, 54
2, 72042, Note_on_c, 0, 30, 0
2, 72054, Note_on_c, 0, 42, 0
2, 72076, Note_on_c, 0, 54, 0
2, 72081, Note_on_c, 0, 70, 0
2, 72084, Note_on_c, 0, 73, 0
2, 72084, Note_on_c, 0, 61, 0
2, 72084, Control_c, 0, 67, 127
2, 72096, Note_on_c, 0, 66, 62
2, 72106, Note_on_c, 0, 42, 47
2, 72123, Note_on_c, 0, 66, 0
2, 72131, Note_on_c, 0, 42, 0
2, 72170, Note_on_c, 0, 66, 57
2, 72173, Note_on_c, 0, 42, 48
2, 72195, Note_on_c, 0, 42, 0
2, 72198, Note_on_c, 0, 66, 0
2, 72245, Note_on_c, 0, 66, 65
2, 72255, Note_on_c, 0, 42, 51
2, 72282, Note_on_c, 0, 66, 0
2, 72294, Note_on_c, 0, 42, 0
2, 72349, Note_on_c, 0, 35, 66
2, 72357, Note_on_c, 0, 71, 66
2, 72360, Note_on_c, 0, 47, 61
2, 72360, Note_on_c, 0, 59, 65
2, 72360, Note_on_c, 0, 63, 62
2, 72402, Control_c, 0, 64, 127
2, 72621, Note_on_c, 0, 28, 49
2, 72628, Note_on_c, 0, 63, 0
2, 72628, Note_on_c, 0, 59, 0
2, 72631, Note_on_c, 0, 40, 54
2, 72647, Note_on_c, 0, 35, 0
2, 72651, Note_on_c, 0, 47, 0
2, 72664, Control_c, 0, 64, 0
2, 72691, Note_on_c, 0, 59, 53
2, 72691, Note_on_c, 0, 63, 48
2, 72691, Note_on_c, 0, 66, 63
2, 72696, Note_on_c, 0, 71, 0
2, 72722, Note_on_c, 0, 66, 0
2, 72730, Note_on_c, 0, 59, 0
2, 72730, Note_on_c, 0, 63, 0
2, 72747, Note_on_c, 0, 64, 54
2, 72747, Note_on_c, 0, 67, 60
2, 72755, Note_on_c, 0, 59, 48
2, 72780, Note_on_c, 0, 59, 0
2, 72780, Note_on_c, 0, 64, 0
2, 72790, Note_on_c, 0, 67, 0
2, 72822, Note_on_c, 0, 67, 69
2, 72825, Note_on_c, 0, 59, 53
2, 72825, Note_on_c, 0, 64, 51
2, 72850, Note_on_c, 0, 59, 0
2, 72858, Note_on_c, 0, 64, 0
2, 72867, Note_on_c, 0, 67, 0
2, 72888, Note_on_c, 0, 59, 54
2, 72888, Note_on_c, 0, 66, 66
2, 72888, Note_on_c, 0, 69, 72
2, 72925, Note_on_c, 0, 69, 0
2, 72925, Note_on_c, 0, 59, 0
2, 72925, Note_on_c, 0, 66, 0
2, 72967, Note_on_c, 0, 47, 50
2, 72972, Note_on_c, 0, 52, 51
2, 72972, Note_on_c, 0, 66, 66
2, 72972, Note_on_c, 0, 69, 72
2, 72980, Note_on_c, 0, 28, 0
2, 72980, Note_on_c, 0, 59, 47
2, 72987, Note_on_c, 0, 40, 0
2, 72990, Control_c, 0, 64, 127
2, 73042, Control_c, 0, 67, 0
2, 73080, Note_on_c, 0, 47, 0
2, 73089, Note_on_c, 0, 52, 0
2, 73134, Control_c, 0, 64, 0
2, 73169, Note_on_c, 0, 38, 61
2, 73191, Note_on_c, 0, 59, 0
2, 73221, Note_on_c, 0, 43, 51
2, 73221, Note_on_c, 0, 50, 54
2, 73225, Note_on_c, 0, 67, 53
2, 73233, Note_on_c, 0, 59, 51
2, 73233, Note_on_c, 0, 65, 56
2, 73241, Note_on_c, 0, 66, 0
2, 73250, Note_on_c, 0, 38, 0
2, 73253, Note_on_c, 0, 69, 0
2, 73258, Note_on_c, 0, 65, 0
2, 73258, Note_on_c, 0, 59, 0
2, 73263, Note_on_c, 0, 43, 0
2, 73263, Note_on_c, 0, 67, 0
2, 73266, Note_on_c, 0, 50, 0
2, 73300, Note_on_c, 0, 67, 57
2, 73303, Note_on_c, 0, 43, 51
2, 73303, Note_on_c, 0, 59, 51
2, 73306, Note_on_c, 0, 38, 54
2, 73306, Note_on_c, 0, 65, 59
2, 73309, Note_on_c, 0, 50, 53
2, 73326, Note_on_c, 0, 43, 0
2, 73329, Note_on_c, 0, 59, 0
2, 73329, Note_on_c, 0, 50, 0
2, 73332, Note_on_c, 0, 38, 0
2, 73335, Note_on_c, 0, 67, 0
2, 73338, Note_on_c, 0, 65, 0
2, 73375, Note_on_c, 0, 65, 60
2, 73375, Note_on_c, 0, 67, 63
2, 73380, Note_on_c, 0, 59, 51
2, 73383, Note_on_c, 0, 38, 49
2, 73383, Note_on_c, 0, 43, 51
2, 73383, Note_on_c, 0, 50, 51
2, 73400, Note_on_c, 0, 59, 0
2, 73403, Note_on_c, 0, 43, 0
2, 73403, Note_on_c, 0, 38, 0
2, 73403, Note_on_c, 0, 50, 0
2, 73408, Note_on_c, 0, 65, 0
2, 73408, Note_on_c, 0, 67, 0
2, 73428, Note_on_c, 0, 38, 52
2, 73438, Note_on_c, 0, 65, 61
2, 73440, Note_on_c, 0, 43, 51
2, 73440, Note_on_c, 0, 50, 53
2, 73448, Note_on_c, 0, 67, 63
2, 73451, Note_on_c, 0, 59, 50
2, 73478, Note_on_c, 0, 59, 0
2, 73478, Note_on_c, 0, 50, 0
2, 73481, Note_on_c, 0, 43, 0
2, 73484, Note_on_c, 0, 65, 0
2, 73487, Note_on_c, 0, 38, 0
2, 73496, Note_on_c, 0, 67, 0
2, 73526, Note_on_c, 0, 36, 63
2, 73526, Note_on_c, 0, 43, 61
2, 73526, Note_on_c, 0, 64, 62
2, 73534, Note_on_c, 0, 72, 72
2, 73538, Note_on_c, 0, 48, 62
2, 73541, Note_on_c, 0, 60, 62
2, 73606, Control_c, 0, 64, 127
2, 73792, Note_on_c, 0, 64, 0
2, 73797, Note_on_c, 0, 60, 0
2, 73814, Note_on_c, 0, 29, 48
2, 73822, Note_on_c, 0, 41, 48
2, 73826, Control_c, 0, 64, 0
2, 73829, Note_on_c, 0, 48, 0
2, 73832, Note_on_c, 0, 36, 0
2, 73832, Note_on_c, 0, 43, 0
2, 73835, Note_on_c, 0, 64, 48
2, 73838, Note_on_c, 0, 60, 47
2, 73838, Note_on_c, 0, 67, 64
2, 73858, Note_on_c, 0, 72, 0
2, 73875, Note_on_c, 0, 67, 0
2, 73878, Note_on_c, 0, 60, 0
2, 73883, Note_on_c, 0, 64, 0
2, 73940, Note_on_c, 0, 65, 66
2, 73940, Note_on_c, 0, 69, 64
2, 73943, Note_on_c, 0, 60, 54
2, 73963, Note_on_c, 0, 60, 0
2, 73970, Note_on_c, 0, 65, 0
2, 73970, Note_on_c, 0, 69, 0
2, 74016, Note_on_c, 0, 60, 54
2, 74016, Note_on_c, 0, 65, 70
2, 74016, Note_on_c, 0, 69, 66
2, 74042, Note_on_c, 0, 60, 0
2, 74052, Note_on_c, 0, 69, 0
2, 74055, Note_on_c, 0, 65, 0
2, 74097, Note_on_c, 0, 70, 68
2, 74102, Note_on_c, 0, 67, 71
2, 74105, Note_on_c, 0, 60, 50
2, 74125, Note_on_c, 0, 60, 0
2, 74130, Note_on_c, 0, 70, 0
2, 74130, Note_on_c, 0, 67, 0
2, 74162, Note_on_c, 0, 48, 54
2, 74162, Note_on_c, 0, 53, 52
2, 74172, Note_on_c, 0, 60, 54
2, 74177, Note_on_c, 0, 67, 70
2, 74182, Note_on_c, 0, 70, 66
2, 74191, Control_c, 0, 64, 127
2, 74207, Note_on_c, 0, 29, 0
2, 74216, Note_on_c, 0, 41, 0
2, 74285, Note_on_c, 0, 53, 0
2, 74285, Note_on_c, 0, 48, 0
2, 74320, Control_c, 0, 64, 0
2, 74332, Note_on_c, 0, 41, 72
2, 74370, Note_on_c, 0, 60, 0
2, 74379, Note_on_c, 0, 48, 49
2, 74404, Note_on_c, 0, 60, 54
2, 74404, Note_on_c, 0, 69, 64
2, 74407, Note_on_c, 0, 70, 0
2, 74417, Note_on_c, 0, 53, 54
2, 74417, Note_on_c, 0, 57, 48
2, 74424, Note_on_c, 0, 67, 0
2, 74427, Note_on_c, 0, 48, 0
2, 74432, Note_on_c, 0, 60, 0
2, 74487, Note_on_c, 0, 48, 52
2, 74496, Note_on_c, 0, 60, 50
2, 74514, Note_on_c, 0, 48, 0
2, 74523, Note_on_c, 0, 60, 0
2, 74553, Note_on_c, 0, 48, 64
2, 74556, Note_on_c, 0, 60, 66
2, 74578, Note_on_c, 0, 48, 0
2, 74583, Note_on_c, 0, 60, 0
2, 74620, Note_on_c, 0, 60, 61
2, 74628, Note_on_c, 0, 48, 79
2, 74645, Note_on_c, 0, 60, 0
2, 74661, Note_on_c, 0, 48, 0
2, 74700, Note_on_c, 0, 49, 65
2, 74700, Note_on_c, 0, 61, 68
2, 74757, Control_c, 0, 64, 127
2, 74858, Note_on_c, 0, 41, 0
2, 74896, Note_on_c, 0, 69, 0
2, 74896, Note_on_c, 0, 61, 0
2, 74901, Note_on_c, 0, 57, 0
2, 74904, Note_on_c, 0, 29, 60
2, 74904, Note_on_c, 0, 41, 59
2, 74913, Note_on_c, 0, 53, 0
2, 74928, Note_on_c, 0, 49, 0
2, 74946, Note_on_c, 0, 61, 59
2, 74951, Note_on_c, 0, 69, 70
2, 74951, Note_on_c, 0, 73, 72
2, 74958, Note_on_c, 0, 29, 0
2, 74963, Note_on_c, 0, 41, 0
2, 75023, Note_on_c, 0, 29, 60
2, 75025, Note_on_c, 0, 69, 0
2, 75028, Note_on_c, 0, 41, 57
2, 75031, Note_on_c, 0, 61, 0
2, 75044, Note_on_c, 0, 73, 0
2, 75081, Note_on_c, 0, 29, 0
2, 75091, Note_on_c, 0, 41, 0
2, 75098, Note_on_c, 0, 59, 53
2, 75098, Note_on_c, 0, 71, 69
2, 75133, Note_on_c, 0, 41, 59
2, 75136, Note_on_c, 0, 29, 53
2, 75153, Note_on_c, 0, 59, 0
2, 75158, Note_on_c, 0, 71, 0
2, 75185, Note_on_c, 0, 29, 0
2, 75194, Note_on_c, 0, 41, 0
2, 75204, Note_on_c, 0, 69, 68
2, 75207, Note_on_c, 0, 57, 65
2, 75212, Control_c, 0, 64, 0
2, 75249, Note_on_c, 0, 30, 64
2, 75254, Note_on_c, 0, 42, 61
2, 75274, Note_on_c, 0, 57, 0
2, 75274, Note_on_c, 0, 69, 0
2, 75313, Note_on_c, 0, 61, 52
2, 75316, Note_on_c, 0, 57, 49
2, 75321, Note_on_c, 0, 68, 74
2, 75485, Note_on_c, 0, 42, 0
2, 75495, Note_on_c, 0, 61, 0
2, 75512, Note_on_c, 0, 66, 59
2, 75529, Note_on_c, 0, 30, 0
2, 75542, Note_on_c, 0, 42, 62
2, 75554, Note_on_c, 0, 68, 0
2, 75576, Control_c, 0, 64, 127
2, 75594, Note_on_c, 0, 57, 0
2, 75614, Note_on_c, 0, 49, 48
2, 75614, Note_on_c, 0, 54, 52
2, 75624, Note_on_c, 0, 57, 49
2, 75624, Note_on_c, 0, 61, 50
2, 75650, Note_on_c, 0, 49, 0
2, 75655, Note_on_c, 0, 61, 0
2, 75663, Note_on_c, 0, 66, 0
2, 75697, Note_on_c, 0, 49, 47
2, 75705, Note_on_c, 0, 61, 66
2, 75725, Note_on_c, 0, 49, 0
2, 75738, Note_on_c, 0, 61, 0
2, 75755, Note_on_c, 0, 49, 65
2, 75768, Note_on_c, 0, 61, 63
2, 75783, Note_on_c, 0, 49, 0
2, 75800, Note_on_c, 0, 61, 0
2, 75830, Note_on_c, 0, 49, 59
2, 75840, Note_on_c, 0, 61, 69
2, 75862, Control_c, 0, 64, 0
2, 75884, Note_on_c, 0, 50, 69
2, 75893, Note_on_c, 0, 49, 0
2, 75898, Note_on_c, 0, 62, 71
2, 75911, Note_on_c, 0, 61, 0
2, 75967, Note_on_c, 0, 42, 0
2, 76049, Note_on_c, 0, 62, 0
2, 76056, Note_on_c, 0, 57, 0
2, 76064, Control_c, 0, 64, 127
2, 76067, Note_on_c, 0, 30, 63
2, 76094, Note_on_c, 0, 50, 0
2, 76099, Note_on_c, 0, 54, 0
2, 76114, Note_on_c, 0, 57, 63
2, 76114, Note_on_c, 0, 62, 66
2, 76114, Note_on_c, 0, 69, 71
2, 76117, Note_on_c, 0, 42, 59
2, 76132, Note_on_c, 0, 30, 0
2, 76137, Note_on_c, 0, 42, 0
2, 76182, Note_on_c, 0, 30, 55
2, 76185, Note_on_c, 0, 42, 60
2, 76207, Note_on_c, 0, 69, 0
2, 76207, Note_on_c, 0, 62, 0
2, 76223, Note_on_c, 0, 42, 0
2, 76225, Note_on_c, 0, 57, 0
2, 76228, Note_on_c, 0, 30, 0
2, 76241, Note_on_c, 0, 55, 54
2, 76253, Note_on_c, 0, 67, 66
2, 76283, Note_on_c, 0, 30, 59
2, 76283, Note_on_c, 0, 42, 55
2, 76322, Note_on_c, 0, 42, 0
2, 76325, Note_on_c, 0, 30, 0
2, 76345, Note_on_c, 0, 55, 0
2, 76348, Note_on_c, 0, 54, 60
2, 76356, Note_on_c, 0, 67, 0
2, 76361, Note_on_c, 0, 66, 69
2, 76364, Note_on_c, 0, 30, 57
2, 76368, Control_c, 0, 64, 0
2, 76368, Note_on_c, 0, 42, 53
2, 76403, Note_on_c, 0, 30, 0
2, 76406, Note_on_c, 0, 42, 0
2, 76453, Note_on_c, 0, 66, 0
2, 76453, Note_on_c, 0, 54, 0
2, 76458, Note_on_c, 0, 30, 67
2, 76461, Note_on_c, 0, 42, 69
2, 76473, Note_on_c, 0, 52, 67
2, 76473, Note_on_c, 0, 58, 65
2, 76473, Note_on_c, 0, 64, 71
2, 76672, Note_on_c, 0, 30, 0
2, 76677, Note_on_c, 0, 42, 0
2, 76677, Note_on_c, 0, 54, 68
2, 76699, Note_on_c, 0, 64, 0
2, 76702, Note_on_c, 0, 58, 0
2, 76702, Note_on_c, 0, 52, 0
2, 76702, Note_on_c, 0, 57, 68
2, 76714, Note_on_c, 0, 62, 51
2, 76734, Note_on_c, 0, 74, 77
2, 76742, Note_on_c, 0, 54, 0
2, 76747, Note_on_c, 0, 69, 79
2, 76747, Note_on_c, 0, 81, 74
2, 76759, Control_c, 0, 64, 127
2, 76794, Note_on_c, 0, 54, 53
2, 76828, Note_on_c, 0, 54, 0
2, 76838, Note_on_c, 0, 69, 0
2, 76846, Note_on_c, 0, 67, 68
2, 76858, Note_on_c, 0, 81, 0
2, 76861, Note_on_c, 0, 74, 0
2, 76864, Note_on_c, 0, 79, 68
2, 76872, Note_on_c, 0, 54, 50
2, 76898, Note_on_c, 0, 54, 0
2, 76925, Note_on_c, 0, 54, 52
2, 76928, Note_on_c, 0, 67, 0
2, 76933, Note_on_c, 0, 78, 71
2, 76941, Note_on_c, 0, 79, 0
2, 76945, Note_on_c, 0, 66, 73
2, 76961, Note_on_c, 0, 54, 0
2, 77016, Control_c, 0, 64, 0
2, 77038, Note_on_c, 0, 54, 60
2, 77038, Note_on_c, 0, 58, 65
2, 77053, Note_on_c, 0, 57, 0
2, 77053, Note_on_c, 0, 66, 0
2, 77053, Note_on_c, 0, 62, 0
2, 77053, Note_on_c, 0, 70, 78
2, 77056, Note_on_c, 0, 64, 64
2, 77059, Note_on_c, 0, 76, 73
2, 77064, Note_on_c, 0, 78, 0
2, 77232, Note_on_c, 0, 62, 61
2, 77245, Note_on_c, 0, 74, 59
2, 77278, Note_on_c, 0, 70, 0
2, 77282, Note_on_c, 0, 64, 0
2, 77282, Note_on_c, 0, 76, 0
2, 77300, Note_on_c, 0, 30, 78
2, 77309, Control_c, 0, 64, 127
2, 77325, Note_on_c, 0, 54, 0
2, 77325, Note_on_c, 0, 58, 0
2, 77340, Note_on_c, 0, 74, 0
2, 77340, Note_on_c, 0, 62, 0
2, 77379, Note_on_c, 0, 42, 47
2, 77395, Control_c, 0, 64, 0
2, 77400, Note_on_c, 0, 57, 48
2, 77400, Note_on_c, 0, 69, 65
2, 77402, Note_on_c, 0, 62, 54
2, 77407, Note_on_c, 0, 30, 0
2, 77412, Note_on_c, 0, 42, 0
2, 77457, Note_on_c, 0, 30, 47
2, 77467, Note_on_c, 0, 42, 51
2, 77484, Note_on_c, 0, 30, 0
2, 77489, Note_on_c, 0, 42, 0
2, 77492, Note_on_c, 0, 69, 0
2, 77512, Note_on_c, 0, 67, 66
2, 77517, Note_on_c, 0, 62, 0
2, 77520, Note_on_c, 0, 55, 47
2, 77529, Note_on_c, 0, 57, 0
2, 77546, Note_on_c, 0, 30, 49
2, 77567, Note_on_c, 0, 42, 54
2, 77582, Note_on_c, 0, 30, 0
2, 77594, Note_on_c, 0, 67, 0
2, 77594, Note_on_c, 0, 55, 0
2, 77599, Note_on_c, 0, 42, 0
2, 77607, Note_on_c, 0, 66, 66
2, 77616, Note_on_c, 0, 54, 52
2, 77643, Note_on_c, 0, 30, 49
2, 77656, Note_on_c, 0, 42, 68
2, 77673, Note_on_c, 0, 30, 0
2, 77695, Note_on_c, 0, 42, 0
2, 77705, Note_on_c, 0, 54, 0
2, 77708, Note_on_c, 0, 66, 0
2, 77723, Note_on_c, 0, 64, 72
2, 77726, Note_on_c, 0, 52, 68
2, 77731, Note_on_c, 0, 30, 67
2, 77731, Note_on_c, 0, 42, 71
2, 77731, Note_on_c, 0, 58, 67
2, 77810, Control_c, 0, 64, 127
2, 77907, Note_on_c, 0, 30, 0
2, 77912, Note_on_c, 0, 42, 0
2, 77942, Note_on_c, 0, 47, 64
2, 77950, Note_on_c, 0, 50, 63
2, 77950, Note_on_c, 0, 55, 63
2, 77952, Control_c, 0, 64, 0
2, 77957, Note_on_c, 0, 58, 0
2, 77970, Note_on_c, 0, 62, 62
2, 77975, Note_on_c, 0, 64, 0
2, 77977, Note_on_c, 0, 52, 0
2, 77982, Note_on_c, 0, 67, 61
2, 77982, Note_on_c, 0, 71, 66
2, 78009, Note_on_c, 0, 71, 0
2, 78012, Note_on_c, 0, 67, 0
2, 78049, Note_on_c, 0, 67, 65
2, 78054, Note_on_c, 0, 71, 60
2, 78079, Note_on_c, 0, 67, 0
2, 78082, Note_on_c, 0, 71, 0
2, 78117, Note_on_c, 0, 67, 68
2, 78121, Note_on_c, 0, 71, 66
2, 78151, Note_on_c, 0, 71, 0
2, 78151, Note_on_c, 0, 67, 0
2, 78184, Note_on_c, 0, 67, 67
2, 78192, Note_on_c, 0, 71, 67
2, 78201, Note_on_c, 0, 50, 0
2, 78206, Note_on_c, 0, 47, 0
2, 78216, Note_on_c, 0, 71, 0
2, 78220, Note_on_c, 0, 67, 0
2, 78220, Note_on_c, 0, 46, 61
2, 78220, Note_on_c, 0, 49, 66
2, 78233, Note_on_c, 0, 52, 64
2, 78236, Note_on_c, 0, 55, 0
2, 78239, Note_on_c, 0, 54, 67
2, 78248, Note_on_c, 0, 61, 64
2, 78248, Note_on_c, 0, 73, 76
2, 78258, Note_on_c, 0, 62, 0
2, 78258, Note_on_c, 0, 78, 77
2, 78261, Note_on_c, 0, 76, 75
2, 78265, Note_on_c, 0, 85, 74
2, 78311, Control_c, 0, 64, 127
2, 78333, Note_on_c, 0, 54, 0
2, 78372, Note_on_c, 0, 73, 0
2, 78380, Note_on_c, 0, 52, 0
2, 78380, Note_on_c, 0, 54, 77
2, 78384, Note_on_c, 0, 49, 0
2, 78384, Note_on_c, 0, 46, 0
2, 78387, Note_on_c, 0, 76, 0
2, 78387, Note_on_c, 0, 85, 0
2, 78395, Note_on_c, 0, 78, 0
2, 78398, Note_on_c, 0, 42, 67
2, 78403, Note_on_c, 0, 61, 0
2, 78408, Note_on_c, 0, 54, 0
2, 78420, Note_on_c, 0, 42, 0
2, 78445, Note_on_c, 0, 54, 62
2, 78448, Note_on_c, 0, 42, 64
2, 78482, Note_on_c, 0, 42, 0
2, 78487, Note_on_c, 0, 54, 0
2, 78532, Note_on_c, 0, 78, 79
2, 78535, Note_on_c, 0, 66, 79
2, 78555, Note_on_c, 0, 66, 0
2, 78568, Note_on_c, 0, 78, 0
2, 78605, Note_on_c, 0, 78, 61
2, 78608, Note_on_c, 0, 66, 65
2, 78646, Note_on_c, 0, 66, 0
2, 78650, Note_on_c, 0, 78, 0
2, 78677, Note_on_c, 0, 30, 73
2, 78687, Note_on_c, 0, 42, 73
2, 78704, Note_on_c, 0, 30, 0
2, 78714, Note_on_c, 0, 42, 0
2, 78717, Control_c, 0, 64, 0
2, 78751, Note_on_c, 0, 30, 57
2, 78756, Note_on_c, 0, 42, 60
2, 78791, Note_on_c, 0, 42, 0
2, 78793, Note_on_c, 0, 30, 0
2, 78865, Note_on_c, 0, 62, 64
2, 78870, Note_on_c, 0, 59, 63
2, 78870, Note_on_c, 0, 71, 78
2, 78873, Note_on_c, 0, 35, 65
2, 78873, Note_on_c, 0, 42, 65
2, 78873, Note_on_c, 0, 47, 64
2, 79084, Control_c, 0, 64, 127
2, 79149, Note_on_c, 0, 35, 0
2, 79149, Note_on_c, 0, 73, 70
2, 79152, Note_on_c, 0, 33, 63
2, 79156, Note_on_c, 0, 59, 0
2, 79156, Note_on_c, 0, 62, 0
2, 79156, Note_on_c, 0, 47, 0
2, 79156, Note_on_c, 0, 61, 61
2, 79159, Note_on_c, 0, 45, 66
2, 79162, Note_on_c, 0, 42, 0
2, 79162, Note_on_c, 0, 69, 69
2, 79165, Note_on_c, 0, 71, 0
2, 79168, Control_c, 0, 64, 0
2, 79180, Note_on_c, 0, 73, 0
2, 79185, Note_on_c, 0, 33, 0
2, 79195, Note_on_c, 0, 45, 0
2, 79200, Note_on_c, 0, 69, 0
2, 79200, Note_on_c, 0, 61, 0
2, 79220, Note_on_c, 0, 43, 63
2, 79223, Note_on_c, 0, 31, 66
2, 79230, Note_on_c, 0, 62, 63
2, 79230, Note_on_c, 0, 74, 62
2, 79235, Note_on_c, 0, 71, 66
2, 79243, Note_on_c, 0, 31, 0
2, 79246, Note_on_c, 0, 43, 0
2, 79255, Note_on_c, 0, 74, 0
2, 79255, Note_on_c, 0, 62, 0
2, 79255, Note_on_c, 0, 71, 0
2, 79280, Note_on_c, 0, 43, 66
2, 79283, Note_on_c, 0, 31, 61
2, 79293, Note_on_c, 0, 71, 72
2, 79296, Note_on_c, 0, 62, 62
2, 79300, Note_on_c, 0, 74, 69
2, 79318, Note_on_c, 0, 31, 0
2, 79318, Note_on_c, 0, 43, 0
2, 79327, Note_on_c, 0, 62, 0
2, 79330, Note_on_c, 0, 74, 0
2, 79338, Note_on_c, 0, 71, 0
2, 79363, Note_on_c, 0, 28, 65
2, 79363, Note_on_c, 0, 73, 66
2, 79363, Note_on_c, 0, 76, 70
2, 79366, Note_on_c, 0, 40, 61
2, 79375, Note_on_c, 0, 64, 62
2, 79395, Note_on_c, 0, 28, 0
2, 79400, Note_on_c, 0, 40, 0
2, 79403, Note_on_c, 0, 73, 0
2, 79403, Note_on_c, 0, 76, 0
2, 79423, Note_on_c, 0, 64, 0
2, 79436, Note_on_c, 0, 30, 59
2, 79448, Note_on_c, 0, 42, 62
2, 79448, Note_on_c, 0, 70, 68
2, 79451, Note_on_c, 0, 61, 60
2, 79454, Note_on_c, 0, 73, 65
2, 79571, Note_on_c, 0, 70, 0
2, 79574, Note_on_c, 0, 61, 0
2, 79574, Note_on_c, 0, 73, 0
2, 79582, Note_on_c, 0, 30, 0
2, 79589, Note_on_c, 0, 42, 0
2, 79594, Note_on_c, 0, 47, 84
2, 79594, Note_on_c, 0, 59, 78
2, 79624, Note_on_c, 0, 47, 0
2, 79627, Note_on_c, 0, 59, 0
2, 79669, Note_on_c, 0, 47, 58
2, 79669, Note_on_c, 0, 59, 60
2, 79702, Note_on_c, 0, 59, 0
2, 79711, Note_on_c, 0, 47, 0
2, 79733, Note_on_c, 0, 71, 77
2, 79738, Note_on_c, 0, 83, 71
2, 79741, Control_c, 0, 64, 127
2, 79758, Note_on_c, 0, 83, 0
2, 79761, Note_on_c, 0, 71, 0
2, 79803, Note_on_c, 0, 71, 59
2, 79803, Note_on_c, 0, 83, 63
2, 79846, Note_on_c, 0, 71, 0
2, 79848, Note_on_c, 0, 83, 0
2, 79866, Note_on_c, 0, 47, 80
2, 79873, Note_on_c, 0, 35, 83
2, 79908, Note_on_c, 0, 35, 0
2, 79908, Note_on_c, 0, 47, 0
2, 79953, Note_on_c, 0, 35, 55
2, 79956, Note_on_c, 0, 47, 56
2, 79991, Note_on_c, 0, 35, 0
2, 79998, Note_on_c, 0, 47, 0
2, 80040, Control_c, 0, 64, 0
2, 80050, Note_on_c, 0, 64, 62
2, 80050, Note_on_c, 0, 67, 75
2, 80053, Note_on_c, 0, 40, 64
2, 80053, Note_on_c, 0, 47, 61
2, 80053, Note_on_c, 0, 52, 63
2, 80053, Note_on_c, 0, 76, 77
2, 80230, Control_c, 0, 64, 127
2, 80247, Note_on_c, 0, 52, 0
2, 80247, Note_on_c, 0, 47, 0
2, 80252, Note_on_c, 0, 40, 0
2, 80256, Note_on_c, 0, 76, 0
2, 80269, Control_c, 0, 64, 0
2, 80294, Note_on_c, 0, 64, 0
2, 80294, Note_on_c, 0, 67, 0
2, 80304, Note_on_c, 0, 50, 61
2, 80304, Note_on_c, 0, 66, 78
2, 80304, Note_on_c, 0, 74, 77
2, 80304, Note_on_c, 0, 78, 75
2, 80306, Note_on_c, 0, 38, 60
2, 80349, Note_on_c, 0, 66, 0
2, 80349, Note_on_c, 0, 50, 0
2, 80352, Note_on_c, 0, 78, 0
2, 80352, Note_on_c, 0, 74, 0
2, 80352, Note_on_c, 0, 38, 0
2, 80361, Note_on_c, 0, 67, 65
2, 80366, Note_on_c, 0, 76, 70
2, 80366, Note_on_c, 0, 79, 66
2, 80374, Note_on_c, 0, 48, 65
2, 80376, Note_on_c, 0, 36, 61
2, 80399, Note_on_c, 0, 48, 0
2, 80401, Note_on_c, 0, 79, 0
2, 80401, Note_on_c, 0, 67, 0
2, 80401, Note_on_c, 0, 76, 0
2, 80401, Note_on_c, 0, 36, 0
2, 80439, Note_on_c, 0, 36, 61
2, 80439, Note_on_c, 0, 48, 60
2, 80447, Note_on_c, 0, 67, 67
2, 80451, Note_on_c, 0, 76, 71
2, 80456, Note_on_c, 0, 79, 72
2, 80478, Note_on_c, 0, 67, 0
2, 80481, Note_on_c, 0, 36, 0
2, 80484, Note_on_c, 0, 79, 0
2, 80484, Note_on_c, 0, 76, 0
2, 80487, Note_on_c, 0, 48, 0
2, 80502, Note_on_c, 0, 33, 65
2, 80502, Note_on_c, 0, 45, 66
2, 80515, Note_on_c, 0, 78, 67
2, 80518, Note_on_c, 0, 69, 66
2, 80518, Note_on_c, 0, 81, 67
2, 80552, Note_on_c, 0, 45, 0
2, 80555, Note_on_c, 0, 69, 0
2, 80555, Note_on_c, 0, 33, 0
2, 80555, Note_on_c, 0, 78, 0
2, 80555, Note_on_c, 0, 81, 0
2, 80597, Note_on_c, 0, 35, 71
2, 80597, Note_on_c, 0, 47, 73
2, 80597, Note_on_c, 0, 75, 73
2, 80597, Note_on_c, 0, 78, 70
2, 80610, Note_on_c, 0, 66, 71
2, 80657, Control_c, 0, 64, 127
2, 80726, Note_on_c, 0, 47, 0
2, 80778, Note_on_c, 0, 35, 0
2, 80781, Note_on_c, 0, 47, 83
2, 80823, Note_on_c, 0, 71, 69
2, 80828, Note_on_c, 0, 66, 0
2, 80832, Note_on_c, 0, 75, 0
2, 80840, Note_on_c, 0, 78, 0
2, 80865, Note_on_c, 0, 71, 0
2, 80868, Note_on_c, 0, 60, 64
2, 80871, Note_on_c, 0, 84, 80
2, 80905, Note_on_c, 0, 84, 0
2, 80905, Note_on_c, 0, 60, 0
2, 80926, Control_c, 0, 64, 0
2, 80973, Note_on_c, 0, 71, 72
2, 80976, Note_on_c, 0, 59, 62
2, 80985, Note_on_c, 0, 83, 74
2, 81007, Note_on_c, 0, 59, 0
2, 81012, Note_on_c, 0, 71, 0
2, 81022, Note_on_c, 0, 83, 0
2, 81067, Note_on_c, 0, 57, 59
2, 81074, Note_on_c, 0, 47, 0
2, 81077, Note_on_c, 0, 81, 69
2, 81080, Note_on_c, 0, 71, 72
2, 81118, Note_on_c, 0, 71, 0
2, 81118, Note_on_c, 0, 81, 0
2, 81120, Note_on_c, 0, 57, 0
2, 81136, Note_on_c, 0, 47, 65
2, 81168, Note_on_c, 0, 55, 64
2, 81181, Note_on_c, 0, 79, 66
2, 81186, Note_on_c, 0, 71, 63
2, 81211, Note_on_c, 0, 55, 0
2, 81214, Note_on_c, 0, 79, 0
2, 81221, Note_on_c, 0, 71, 0
2, 81261, Note_on_c, 0, 54, 60
2, 81268, Note_on_c, 0, 78, 66
2, 81271, Note_on_c, 0, 71, 66
2, 81291, Note_on_c, 0, 54, 0
2, 81309, Note_on_c, 0, 71, 0
2, 81313, Note_on_c, 0, 78, 0
2, 81353, Note_on_c, 0, 52, 60
2, 81362, Note_on_c, 0, 71, 57
2, 81370, Note_on_c, 0, 76, 60
2, 81385, Note_on_c, 0, 52, 0
2, 81395, Note_on_c, 0, 71, 0
2, 81398, Note_on_c, 0, 76, 0
2, 81406, Note_on_c, 0, 48, 66
2, 81431, Note_on_c, 0, 72, 55
2, 81433, Note_on_c, 0, 47, 0
2, 81456, Note_on_c, 0, 64, 84
2, 81465, Note_on_c, 0, 88, 75
2, 81478, Control_c, 0, 64, 127
2, 81503, Note_on_c, 0, 88, 0
2, 81505, Note_on_c, 0, 64, 0
2, 81505, Note_on_c, 0, 72, 0
2, 81560, Note_on_c, 0, 72, 46
2, 81580, Note_on_c, 0, 62, 68
2, 81590, Control_c, 0, 64, 0
2, 81590, Note_on_c, 0, 86, 69
2, 81602, Note_on_c, 0, 72, 0
2, 81610, Note_on_c, 0, 62, 0
2, 81618, Note_on_c, 0, 86, 0
2, 81670, Note_on_c, 0, 48, 0
2, 81670, Note_on_c, 0, 60, 60
2, 81670, Note_on_c, 0, 72, 71
2, 81692, Note_on_c, 0, 84, 69
2, 81701, Note_on_c, 0, 60, 0
2, 81709, Note_on_c, 0, 72, 0
2, 81714, Note_on_c, 0, 48, 63
2, 81729, Note_on_c, 0, 84, 0
2, 81771, Note_on_c, 0, 72, 67
2, 81774, Note_on_c, 0, 59, 60
2, 81792, Note_on_c, 0, 83, 69
2, 81801, Note_on_c, 0, 48, 0
2, 81806, Note_on_c, 0, 59, 0
2, 81811, Note_on_c, 0, 72, 0
2, 81828, Note_on_c, 0, 83, 0
2, 81848, Note_on_c, 0, 57, 65
2, 81851, Note_on_c, 0, 50, 59
2, 81861, Note_on_c, 0, 72, 61
2, 81864, Note_on_c, 0, 81, 64
2, 81888, Note_on_c, 0, 50, 0
2, 81898, Note_on_c, 0, 72, 0
2, 81901, Note_on_c, 0, 57, 0
2, 81906, Note_on_c, 0, 81, 0
2, 81931, Note_on_c, 0, 52, 48
2, 81931, Note_on_c, 0, 55, 48
2, 81934, Note_on_c, 0, 79, 61
2, 81946, Note_on_c, 0, 72, 61
2, 81968, Note_on_c, 0, 52, 0
2, 81971, Note_on_c, 0, 79, 0
2, 81974, Note_on_c, 0, 55, 0
2, 81977, Note_on_c, 0, 72, 0
2, 82014, Note_on_c, 0, 74, 75
2, 82014, Note_on_c, 0, 78, 71
2, 82017, Note_on_c, 0, 54, 64
2, 82050, Note_on_c, 0, 54, 0
2, 82059, Note_on_c, 0, 78, 0
2, 82064, Note_on_c, 0, 74, 0
2, 82127, Note_on_c, 0, 42, 59
2, 82134, Note_on_c, 0, 54, 59
2, 82134, Note_on_c, 0, 70, 73
2, 82134, Note_on_c, 0, 73, 74
2, 82142, Note_on_c, 0, 66, 73
2, 82162, Note_on_c, 0, 54, 0
2, 82170, Note_on_c, 0, 42, 0
2, 82175, Note_on_c, 0, 73, 0
2, 82175, Note_on_c, 0, 70, 0
2, 82177, Note_on_c, 0, 66, 0
2, 82237, Note_on_c, 0, 54, 64
2, 82240, Note_on_c, 0, 47, 66
2, 82240, Note_on_c, 0, 71, 72
2, 82240, Note_on_c, 0, 74, 72
2, 82243, Note_on_c, 0, 66, 74
2, 82270, Note_on_c, 0, 54, 0
2, 82277, Note_on_c, 0, 47, 0
2, 82280, Note_on_c, 0, 74, 0
2, 82280, Note_on_c, 0, 71, 0
2, 82283, Note_on_c, 0, 66, 0
2, 82347, Note_on_c, 0, 70, 70
2, 82350, Note_on_c, 0, 42, 62
2, 82350, Note_on_c, 0, 54, 61
2, 82350, Note_on_c, 0, 61, 64
2, 82355, Note_on_c, 0, 66, 68
2, 82382, Note_on_c, 0, 42, 0
2, 82382, Note_on_c, 0, 70, 0
2, 82385, Note_on_c, 0, 61, 0
2, 82385, Note_on_c, 0, 54, 0
2, 82385, Note_on_c, 0, 66, 0
2, 82449, Note_on_c, 0, 47, 59
2, 82449, Note_on_c, 0, 54, 60
2, 82449, Note_on_c, 0, 62, 64
2, 82449, Note_on_c, 0, 66, 69
2, 82449, Note_on_c, 0, 71, 72
2, 82479, Note_on_c, 0, 71, 0
2, 82479, Note_on_c, 0, 62, 0
2, 82482, Note_on_c, 0, 66, 0
2, 82482, Note_on_c, 0, 47, 0
2, 82491, Note_on_c, 0, 54, 0
2, 82548, Note_on_c, 0, 54, 66
2, 82548, Note_on_c, 0, 58, 60
2, 82548, Note_on_c, 0, 61, 62
2, 82553, Note_on_c, 0, 66, 67
2, 82558, Note_on_c, 0, 42, 59
2, 82584, Note_on_c, 0, 66, 0
2, 82584, Note_on_c, 0, 58, 0
2, 82584, Note_on_c, 0, 54, 0
2, 82589, Note_on_c, 0, 42, 0
2, 82597, Note_on_c, 0, 61, 0
2, 82661, Note_on_c, 0, 54, 63
2, 82661, Note_on_c, 0, 62, 64
2, 82661, Note_on_c, 0, 66, 68
2, 82664, Note_on_c, 0, 47, 64
2, 82669, Note_on_c, 0, 59, 59
2, 82694, Note_on_c, 0, 54, 0
2, 82697, Note_on_c, 0, 47, 0
2, 82702, Note_on_c, 0, 62, 0
2, 82702, Note_on_c, 0, 66, 0
2, 82702, Note_on_c, 0, 59, 0
2, 82778, Note_on_c, 0, 42, 65
2, 82781, Note_on_c, 0, 58, 65
2, 82781, Note_on_c, 0, 61, 65
2, 82784, Note_on_c, 0, 54, 67
2, 82809, Note_on_c, 0, 54, 0
2, 82814, Note_on_c, 0, 42, 0
2, 82814, Note_on_c, 0, 58, 0
2, 82819, Note_on_c, 0, 61, 0
2, 82894, Note_on_c, 0, 47, 72
2, 82898, Note_on_c, 0, 54, 69
2, 82898, Note_on_c, 0, 59, 68
2, 82898, Note_on_c, 0, 62, 70
2, 82925, Note_on_c, 0, 54, 0
2, 82928, Note_on_c, 0, 47, 0
2, 82931, Note_on_c, 0, 59, 0
2, 82931, Note_on_c, 0, 62, 0
2, 83030, Note_on_c, 0, 30, 65
2, 83040, Note_on_c, 0, 54, 71
2, 83040, Note_on_c, 0, 58, 67
2, 83042, Note_on_c, 0, 42, 65
2, 83042, Note_on_c, 0, 49, 67
2, 83069, Note_on_c, 0, 30, 0
2, 83074, Note_on_c, 0, 42, 0
2, 83079, Note_on_c, 0, 54, 0
2, 83082, Note_on_c, 0, 49, 0
2, 83085, Note_on_c, 0, 58, 0
2, 83254, Note_on_c, 0, 55, 43
2, 83263, Note_on_c, 0, 52, 44
2, 83263, Note_on_c, 0, 59, 45
2, 83382, Control_c, 0, 64, 127
2, 83769, Control_c, 0, 64, 0
2, 83804, Note_on_c, 0, 43, 53
2, 83811, Note_on_c, 0, 31, 53
2, 83833, Note_on_c, 0, 43, 0
2, 83841, Note_on_c, 0, 31, 0
2, 83868, Note_on_c, 0, 30, 52
2, 83873, Note_on_c, 0, 42, 54
2, 83900, Note_on_c, 0, 30, 0
2, 83909, Note_on_c, 0, 42, 0
2, 83949, Note_on_c, 0, 30, 53
2, 83952, Note_on_c, 0, 42, 59
2, 83978, Note_on_c, 0, 30, 0
2, 83991, Note_on_c, 0, 42, 0
2, 84024, Note_on_c, 0, 40, 45
2, 84028, Note_on_c, 0, 28, 48
2, 84053, Note_on_c, 0, 40, 0
2, 84061, Note_on_c, 0, 28, 0
2, 84118, Control_c, 0, 67, 127
2, 84177, Note_on_c, 0, 54, 42
2, 84177, Note_on_c, 0, 58, 44
2, 84180, Note_on_c, 0, 49, 45
2, 84213, Note_on_c, 0, 59, 0
2, 84217, Note_on_c, 0, 55, 0
2, 84217, Note_on_c, 0, 52, 0
2, 84332, Control_c, 0, 64, 127
2, 84950, Note_on_c, 0, 55, 48
2, 84955, Control_c, 0, 64, 0
2, 84955, Note_on_c, 0, 59, 47
2, 84960, Note_on_c, 0, 52, 51
2, 84975, Note_on_c, 0, 58, 0
2, 84978, Note_on_c, 0, 49, 0
2, 84983, Note_on_c, 0, 54, 0
2, 85196, Note_on_c, 0, 31, 53
2, 85200, Note_on_c, 0, 43, 52
2, 85233, Note_on_c, 0, 43, 0
2, 85233, Note_on_c, 0, 31, 0
2, 85266, Note_on_c, 0, 30, 49
2, 85269, Note_on_c, 0, 42, 50
2, 85286, Note_on_c, 0, 30, 0
2, 85301, Note_on_c, 0, 42, 0
2, 85334, Note_on_c, 0, 30, 53
2, 85356, Note_on_c, 0, 42, 50
2, 85371, Note_on_c, 0, 30, 0
2, 85384, Note_on_c, 0, 42, 0
2, 85431, Note_on_c, 0, 28, 45
2, 85434, Note_on_c, 0, 40, 44
2, 85468, Note_on_c, 0, 40, 0
2, 85471, Note_on_c, 0, 28, 0
2, 85635, Note_on_c, 0, 49, 42
2, 85635, Note_on_c, 0, 58, 48
2, 85678, Note_on_c, 0, 59, 0
2, 85678, Note_on_c, 0, 52, 0
2, 85775, Control_c, 0, 64, 127
2, 85879, Control_c, 0, 64, 0
2, 85912, Control_c, 0, 67, 0
2, 85932, Control_c, 0, 64, 127
2, 86336, Note_on_c, 0, 58, 0
2, 86376, Note_on_c, 0, 55, 0
2, 86418, Control_c, 0, 64, 0
2, 86423, Note_on_c, 0, 55, 62
2, 86430, Note_on_c, 0, 50, 64
2, 86435, Note_on_c, 0, 49, 0
2, 86435, Note_on_c, 0, 58, 63
2, 86448, Note_on_c, 0, 62, 61
2, 86584, Note_on_c, 0, 50, 0
2, 86659, Note_on_c, 0, 34, 53
2, 86693, Note_on_c, 0, 34, 0
2, 86738, Note_on_c, 0, 33, 48
2, 86778, Note_on_c, 0, 33, 0
2, 86808, Note_on_c, 0, 33, 54
2, 86847, Note_on_c, 0, 33, 0
2, 86884, Note_on_c, 0, 31, 42
2, 86924, Note_on_c, 0, 31, 0
2, 87082, Note_on_c, 0, 52, 50
2, 87087, Note_on_c, 0, 57, 52
2, 87102, Note_on_c, 0, 61, 47
2, 87105, Note_on_c, 0, 62, 0
2, 87105, Note_on_c, 0, 58, 0
2, 87122, Note_on_c, 0, 55, 0
2, 87232, Control_c, 0, 67, 127
2, 87294, Control_c, 0, 64, 127
2, 87855, Note_on_c, 0, 55, 54
2, 87855, Note_on_c, 0, 58, 50
2, 87855, Note_on_c, 0, 62, 48
2, 87858, Note_on_c, 0, 52, 0
2, 87858, Note_on_c, 0, 57, 0
2, 87863, Note_on_c, 0, 61, 0
2, 87889, Control_c, 0, 64, 0
2, 88083, Control_c, 0, 64, 127
2, 88138, Note_on_c, 0, 34, 47
2, 88141, Control_c, 0, 64, 0
2, 88171, Note_on_c, 0, 34, 0
2, 88208, Note_on_c, 0, 33, 46
2, 88243, Note_on_c, 0, 33, 0
2, 88285, Note_on_c, 0, 33, 51
2, 88322, Note_on_c, 0, 33, 0
2, 88369, Note_on_c, 0, 31, 48
2, 88402, Note_on_c, 0, 31, 0
2, 88615, Note_on_c, 0, 54, 42
2, 88672, Note_on_c, 0, 55, 0
2, 88717, Control_c, 0, 64, 127
2, 89223, Control_c, 0, 64, 0
2, 89223, Note_on_c, 0, 61, 49
2, 89223, Note_on_c, 0, 64, 48
2, 89275, Note_on_c, 0, 62, 0
2, 89428, Control_c, 0, 64, 127
2, 89527, Note_on_c, 0, 30, 54
2, 89532, Note_on_c, 0, 42, 47
2, 89579, Control_c, 0, 64, 0
2, 89612, Note_on_c, 0, 30, 0
2, 89616, Note_on_c, 0, 42, 0
2, 89979, Control_c, 0, 64, 127
2, 90322, Control_c, 0, 64, 0
2, 90379, Note_on_c, 0, 54, 0
2, 90386, Note_on_c, 0, 61, 0
2, 90386, Note_on_c, 0, 58, 0
2, 90396, Note_on_c, 0, 64, 0
2, 90582, Note_on_c, 0, 51, 53
2, 90582, Note_on_c, 0, 63, 58
2, 90778, Note_on_c, 0, 35, 53
2, 90919, Control_c, 0, 64, 127
2, 90946, Note_on_c, 0, 66, 59
2, 90949, Note_on_c, 0, 54, 53
2, 90986, Note_on_c, 0, 51, 0
2, 90994, Note_on_c, 0, 63, 0
2, 91130, Note_on_c, 0, 42, 49
2, 91337, Note_on_c, 0, 63, 47
2, 91342, Note_on_c, 0, 75, 63
2, 91371, Note_on_c, 0, 54, 0
2, 91389, Note_on_c, 0, 66, 0
2, 91525, Note_on_c, 0, 47, 47
2, 91570, Note_on_c, 0, 42, 0
2, 91739, Note_on_c, 0, 54, 44
2, 91739, Note_on_c, 0, 66, 56
2, 91786, Note_on_c, 0, 75, 0
2, 91789, Note_on_c, 0, 63, 0
2, 91920, Note_on_c, 0, 42, 44
2, 91977, Control_c, 0, 64, 0
2, 92091, Note_on_c, 0, 51, 47
2, 92104, Note_on_c, 0, 63, 48
2, 92146, Note_on_c, 0, 54, 0
2, 92146, Note_on_c, 0, 66, 0
2, 92210, Note_on_c, 0, 35, 0
2, 92213, Control_c, 0, 64, 127
2, 92290, Note_on_c, 0, 35, 51
2, 92503, Note_on_c, 0, 54, 46
2, 92503, Note_on_c, 0, 66, 53
2, 92525, Note_on_c, 0, 51, 0
2, 92550, Note_on_c, 0, 63, 0
2, 92615, Note_on_c, 0, 42, 0
2, 92719, Note_on_c, 0, 42, 41
2, 92935, Note_on_c, 0, 63, 48
2, 92940, Note_on_c, 0, 75, 53
2, 92990, Note_on_c, 0, 54, 0
2, 92998, Note_on_c, 0, 66, 0
2, 93027, Note_on_c, 0, 47, 0
2, 93121, Note_on_c, 0, 47, 42
2, 93292, Note_on_c, 0, 42, 0
2, 93314, Control_c, 0, 67, 0
2, 93436, Note_on_c, 0, 42, 46
2, 93446, Control_c, 0, 64, 0
2, 93532, Note_on_c, 0, 66, 55
2, 93540, Note_on_c, 0, 75, 0
2, 93565, Note_on_c, 0, 63, 0
2, 93667, Note_on_c, 0, 54, 42
2, 93723, Note_on_c, 0, 63, 43
2, 93825, Note_on_c, 0, 71, 66
2, 93852, Note_on_c, 0, 66, 0
2, 93887, Note_on_c, 0, 35, 0
2, 93889, Control_c, 0, 64, 127
2, 94001, Note_on_c, 0, 35, 53
2, 94023, Note_on_c, 0, 42, 0
2, 94056, Note_on_c, 0, 54, 0
2, 94110, Note_on_c, 0, 54, 41
2, 94123, Note_on_c, 0, 47, 0
2, 94138, Note_on_c, 0, 63, 0
2, 94185, Note_on_c, 0, 63, 42
2, 94277, Note_on_c, 0, 70, 64
2, 94322, Note_on_c, 0, 71, 0
2, 94416, Note_on_c, 0, 42, 48
2, 94488, Note_on_c, 0, 35, 0
2, 94534, Note_on_c, 0, 54, 0
2, 94588, Note_on_c, 0, 54, 43
2, 94593, Control_c, 0, 64, 0
2, 94682, Note_on_c, 0, 68, 66
2, 94685, Note_on_c, 0, 59, 43
2, 94688, Note_on_c, 0, 70, 0
2, 94696, Note_on_c, 0, 63, 0
2, 94699, Note_on_c, 0, 66, 66
2, 94979, Note_on_c, 0, 42, 0
2, 94982, Note_on_c, 0, 47, 47
2, 94990, Note_on_c, 0, 64, 49
2, 95019, Note_on_c, 0, 66, 0
2, 95079, Control_c, 0, 64, 127
2, 95201, Control_c, 0, 64, 0
2, 95216, Note_on_c, 0, 58, 51
2, 95226, Note_on_c, 0, 63, 50
2, 95226, Note_on_c, 0, 66, 60
2, 95235, Note_on_c, 0, 59, 0
2, 95253, Note_on_c, 0, 68, 0
2, 95268, Note_on_c, 0, 64, 0
2, 95375, Control_c, 0, 67, 127
2, 95484, Note_on_c, 0, 42, 48
2, 95511, Note_on_c, 0, 61, 59
2, 95511, Note_on_c, 0, 64, 62
2, 95553, Note_on_c, 0, 66, 0
2, 95575, Note_on_c, 0, 63, 0
2, 95622, Note_on_c, 0, 47, 0
2, 95640, Note_on_c, 0, 54, 0
2, 95734, Note_on_c, 0, 63, 61
2, 95736, Note_on_c, 0, 58, 0
2, 95744, Note_on_c, 0, 54, 62
2, 95744, Note_on_c, 0, 59, 60
2, 95754, Note_on_c, 0, 61, 0
2, 95766, Note_on_c, 0, 64, 0
2, 95945, Control_c, 0, 64, 127
2, 95982, Note_on_c, 0, 35, 59
2, 96000, Note_on_c, 0, 42, 0
2, 96337, Note_on_c, 0, 42, 48
2, 96432, Note_on_c, 0, 61, 57
2, 96432, Note_on_c, 0, 64, 56
2, 96471, Note_on_c, 0, 63, 0
2, 96474, Note_on_c, 0, 59, 0
2, 96501, Control_c, 0, 64, 0
2, 96565, Note_on_c, 0, 63, 54
2, 96577, Note_on_c, 0, 66, 58
2, 96600, Note_on_c, 0, 61, 0
2, 96604, Note_on_c, 0, 64, 0
2, 96691, Note_on_c, 0, 58, 66
2, 96691, Note_on_c, 0, 61, 60
2, 96708, Note_on_c, 0, 63, 0
2, 96713, Note_on_c, 0, 66, 0
2, 96852, Note_on_c, 0, 47, 51
2, 96936, Control_c, 0, 64, 127
2, 96969, Note_on_c, 0, 42, 0
2, 97019, Control_c, 0, 67, 0
2, 97076, Note_on_c, 0, 54, 0
2, 97177, Note_on_c, 0, 42, 52
2, 97257, Note_on_c, 0, 59, 57
2, 97257, Note_on_c, 0, 63, 53
2, 97295, Note_on_c, 0, 58, 0
2, 97297, Control_c, 0, 64, 0
2, 97300, Note_on_c, 0, 61, 0
2, 97377, Note_on_c, 0, 61, 60
2, 97377, Note_on_c, 0, 64, 53
2, 97422, Note_on_c, 0, 59, 0
2, 97422, Note_on_c, 0, 63, 0
2, 97482, Note_on_c, 0, 35, 0
2, 97487, Note_on_c, 0, 63, 61
2, 97494, Note_on_c, 0, 56, 60
2, 97494, Note_on_c, 0, 59, 59
2, 97516, Note_on_c, 0, 61, 0
2, 97516, Note_on_c, 0, 64, 0
2, 97556, Note_on_c, 0, 47, 0
2, 97665, Note_on_c, 0, 35, 60
2, 97673, Note_on_c, 0, 42, 0
2, 97876, Note_on_c, 0, 54, 49
2, 97884, Note_on_c, 0, 58, 50
2, 97884, Note_on_c, 0, 61, 53
2, 97884, Note_on_c, 0, 66, 68
2, 97929, Note_on_c, 0, 56, 0
2, 97929, Note_on_c, 0, 59, 0
2, 97934, Note_on_c, 0, 63, 0
2, 97993, Control_c, 0, 64, 127
2, 98028, Note_on_c, 0, 42, 66
2, 98177, Note_on_c, 0, 54, 0
2, 98204, Note_on_c, 0, 52, 47
2, 98219, Control_c, 0, 64, 0
2, 98232, Note_on_c, 0, 59, 49
2, 98249, Note_on_c, 0, 58, 0
2, 98254, Note_on_c, 0, 61, 0
2, 98280, Note_on_c, 0, 64, 46
2, 98328, Note_on_c, 0, 68, 70
2, 98362, Note_on_c, 0, 66, 0
2, 98489, Note_on_c, 0, 47, 54
2, 98519, Control_c, 0, 67, 127
2, 98561, Note_on_c, 0, 42, 0
2, 98727, Note_on_c, 0, 54, 42
2, 98727, Note_on_c, 0, 58, 43
2, 98730, Note_on_c, 0, 66, 67
2, 98733, Note_on_c, 0, 61, 46
2, 98742, Note_on_c, 0, 68, 0
2, 98747, Note_on_c, 0, 52, 0
2, 98760, Note_on_c, 0, 59, 0
2, 98764, Note_on_c, 0, 64, 0
2, 98905, Note_on_c, 0, 42, 53
2, 98948, Control_c, 0, 64, 127
2, 99079, Note_on_c, 0, 35, 0
2, 99092, Note_on_c, 0, 61, 0
2, 99104, Note_on_c, 0, 58, 0
2, 99104, Note_on_c, 0, 56, 60
2, 99104, Note_on_c, 0, 59, 53
2, 99104, Note_on_c, 0, 63, 55
2, 99114, Note_on_c, 0, 66, 0
2, 99121, Note_on_c, 0, 54, 0
2, 99129, Control_c, 0, 64, 0
2, 99273, Note_on_c, 0, 35, 50
2, 99328, Note_on_c, 0, 47, 0
2, 99331, Note_on_c, 0, 42, 0
2, 99489, Note_on_c, 0, 54, 43
2, 99489, Note_on_c, 0, 61, 44
2, 99494, Note_on_c, 0, 58, 44
2, 99494, Note_on_c, 0, 66, 59
2, 99558, Note_on_c, 0, 56, 0
2, 99558, Note_on_c, 0, 63, 0
2, 99563, Note_on_c, 0, 59, 0
2, 99585, Control_c, 0, 64, 127
2, 99648, Note_on_c, 0, 42, 54
2, 99806, Note_on_c, 0, 52, 43
2, 99821, Note_on_c, 0, 54, 0
2, 99841, Note_on_c, 0, 59, 44
2, 99851, Note_on_c, 0, 58, 0
2, 99881, Note_on_c, 0, 64, 42
2, 99901, Note_on_c, 0, 61, 0
2, 99906, Control_c, 0, 64, 0
2, 99926, Note_on_c, 0, 68, 66
2, 99959, Note_on_c, 0, 66, 0
2, 100100, Note_on_c, 0, 47, 53
2, 100217, Note_on_c, 0, 42, 0
2, 100345, Note_on_c, 0, 54, 48
2, 100350, Note_on_c, 0, 61, 44
2, 100358, Note_on_c, 0, 58, 44
2, 100358, Note_on_c, 0, 66, 54
2, 100370, Note_on_c, 0, 59, 0
2, 100380, Note_on_c, 0, 64, 0
2, 100380, Note_on_c, 0, 68, 0
2, 100395, Note_on_c, 0, 52, 0
2, 100403, Control_c, 0, 67, 0
2, 100514, Note_on_c, 0, 42, 54
2, 100679, Note_on_c, 0, 51, 47
2, 100704, Note_on_c, 0, 54, 0
2, 100736, Note_on_c, 0, 59, 46
2, 100766, Note_on_c, 0, 58, 0
2, 100766, Note_on_c, 0, 63, 47
2, 100774, Note_on_c, 0, 61, 0
2, 100824, Control_c, 0, 64, 127
2, 100861, Note_on_c, 0, 71, 59
2, 100894, Note_on_c, 0, 66, 0
2, 100923, Note_on_c, 0, 35, 0
2, 101038, Note_on_c, 0, 35, 47
2, 101157, Note_on_c, 0, 47, 0
2, 101160, Note_on_c, 0, 63, 0
2, 101177, Note_on_c, 0, 42, 0
2, 101202, Note_on_c, 0, 61, 48
2, 101211, Note_on_c, 0, 63, 50
2, 101211, Note_on_c, 0, 66, 61
2, 101214, Note_on_c, 0, 59, 0
2, 101222, Note_on_c, 0, 51, 0
2, 101227, Note_on_c, 0, 71, 0
2, 101378, Note_on_c, 0, 42, 49
2, 101552, Control_c, 0, 64, 0
2, 101574, Note_on_c, 0, 59, 49
2, 101574, Note_on_c, 0, 64, 48
2, 101574, Note_on_c, 0, 68, 65
2, 101596, Note_on_c, 0, 66, 0
2, 101606, Note_on_c, 0, 61, 0
2, 101606, Note_on_c, 0, 63, 0
2, 101758, Note_on_c, 0, 47, 49
2, 101924, Note_on_c, 0, 54, 51
2, 101969, Note_on_c, 0, 59, 0
2, 101996, Note_on_c, 0, 63, 53
2, 102030, Note_on_c, 0, 64, 0
2, 102065, Note_on_c, 0, 69, 63
2, 102068, Note_on_c, 0, 68, 0
2, 102085, Control_c, 0, 64, 127
2, 102130, Note_on_c, 0, 42, 0
2, 102207, Note_on_c, 0, 42, 55
2, 102309, Note_on_c, 0, 35, 0
2, 102363, Note_on_c, 0, 56, 49
2, 102384, Note_on_c, 0, 54, 0
2, 102384, Control_c, 0, 64, 0
2, 102440, Note_on_c, 0, 64, 49
2, 102467, Note_on_c, 0, 63, 0
2, 102492, Note_on_c, 0, 68, 54
2, 102581, Note_on_c, 0, 76, 68
2, 102591, Note_on_c, 0, 69, 0
2, 102732, Note_on_c, 0, 35, 65
2, 102787, Note_on_c, 0, 47, 0
2, 102787, Control_c, 0, 64, 127
2, 102859, Note_on_c, 0, 42, 0
2, 102866, Note_on_c, 0, 68, 0
2, 102871, Note_on_c, 0, 64, 0
2, 102931, Note_on_c, 0, 64, 50
2, 102931, Note_on_c, 0, 70, 63
2, 102934, Note_on_c, 0, 61, 47
2, 102936, Note_on_c, 0, 68, 62
2, 102949, Note_on_c, 0, 56, 0
2, 102964, Note_on_c, 0, 76, 0
2, 103116, Note_on_c, 0, 42, 54
2, 103302, Note_on_c, 0, 64, 0
2, 103302, Note_on_c, 0, 68, 0
2, 103335, Note_on_c, 0, 68, 66
2, 103343, Note_on_c, 0, 64, 51
2, 103345, Note_on_c, 0, 59, 52
2, 103348, Note_on_c, 0, 71, 65
2, 103368, Note_on_c, 0, 61, 0
2, 103376, Note_on_c, 0, 70, 0
2, 103503, Note_on_c, 0, 47, 53
2, 103572, Control_c, 0, 67, 127
2, 103681, Note_on_c, 0, 64, 0
2, 103684, Note_on_c, 0, 42, 0
2, 103692, Note_on_c, 0, 68, 0
2, 103695, Control_c, 0, 64, 0
2, 103695, Note_on_c, 0, 58, 54
2, 103728, Note_on_c, 0, 64, 52
2, 103730, Note_on_c, 0, 59, 0
2, 103746, Note_on_c, 0, 68, 52
2, 103780, Note_on_c, 0, 73, 65
2, 103802, Note_on_c, 0, 71, 0
2, 103968, Note_on_c, 0, 42, 56
2, 104259, Note_on_c, 0, 61, 71
2, 104264, Note_on_c, 0, 66, 65
2, 104274, Note_on_c, 0, 63, 46
2, 104277, Note_on_c, 0, 68, 0
2, 104277, Note_on_c, 0, 73, 0
2, 104280, Note_on_c, 0, 58, 0
2, 104284, Note_on_c, 0, 64, 0
2, 104314, Control_c, 0, 64, 127
2, 104383, Note_on_c, 0, 35, 0
2, 104452, Note_on_c, 0, 35, 56
2, 104731, Note_on_c, 0, 42, 0
2, 104793, Note_on_c, 0, 42, 48
2, 104860, Note_on_c, 0, 47, 0
2, 104870, Note_on_c, 0, 59, 65
2, 104882, Control_c, 0, 64, 0
2, 104925, Note_on_c, 0, 61, 0
2, 105096, Note_on_c, 0, 59, 0
2, 105145, Note_on_c, 0, 59, 58
2, 105240, Control_c, 0, 64, 127
2, 105344, Note_on_c, 0, 47, 48
2, 105491, Note_on_c, 0, 42, 0
2, 105668, Note_on_c, 0, 42, 44
2, 105727, Note_on_c, 0, 35, 0
2, 105732, Note_on_c, 0, 47, 0
2, 105744, Control_c, 0, 64, 0
2, 105767, Control_c, 0, 67, 0
2, 105876, Note_on_c, 0, 66, 0
2, 105938, Note_on_c, 0, 74, 69
2, 105948, Note_on_c, 0, 66, 69
2, 105951, Note_on_c, 0, 42, 0
2, 105951, Note_on_c, 0, 62, 52
2, 105954, Note_on_c, 0, 63, 0
2, 105959, Note_on_c, 0, 59, 0
2, 106112, Note_on_c, 0, 35, 50
2, 106187, Control_c, 0, 64, 127
2, 106296, Control_c, 0, 64, 0
2, 106304, Note_on_c, 0, 73, 64
2, 106309, Note_on_c, 0, 64, 49
2, 106339, Note_on_c, 0, 74, 0
2, 106344, Note_on_c, 0, 66, 0
2, 106344, Note_on_c, 0, 62, 0
2, 106492, Note_on_c, 0, 42, 50
2, 106561, Note_on_c, 0, 62, 51
2, 106561, Note_on_c, 0, 71, 61
2, 106611, Note_on_c, 0, 73, 0
2, 106624, Note_on_c, 0, 64, 0
2, 106845, Note_on_c, 0, 66, 59
2, 106848, Note_on_c, 0, 61, 51
2, 106885, Note_on_c, 0, 62, 0
2, 106888, Note_on_c, 0, 71, 0
2, 106903, Control_c, 0, 64, 127
2, 107055, Note_on_c, 0, 47, 50
2, 107288, Note_on_c, 0, 42, 0
2, 107313, Note_on_c, 0, 59, 60
2, 107328, Control_c, 0, 64, 0
2, 107328, Note_on_c, 0, 62, 53
2, 107374, Note_on_c, 0, 66, 0
2, 107374, Note_on_c, 0, 61, 0
2, 107497, Note_on_c, 0, 42, 51
2, 107639, Note_on_c, 0, 35, 0
2, 107695, Note_on_c, 0, 61, 50
2, 107695, Note_on_c, 0, 66, 62
2, 107728, Note_on_c, 0, 59, 0
2, 107728, Note_on_c, 0, 62, 0
2, 107808, Control_c, 0, 64, 127
2, 107832, Note_on_c, 0, 35, 49
2, 107934, Note_on_c, 0, 71, 69
2, 107937, Note_on_c, 0, 62, 54
2, 107976, Note_on_c, 0, 61, 0
2, 107976, Note_on_c, 0, 66, 0
2, 108147, Note_on_c, 0, 64, 55
2, 108150, Note_on_c, 0, 71, 0
2, 108188, Note_on_c, 0, 62, 0
2, 108192, Control_c, 0, 64, 0
2, 108202, Note_on_c, 0, 71, 55
2, 108232, Note_on_c, 0, 76, 51
2, 108291, Note_on_c, 0, 79, 53
2, 108426, Note_on_c, 0, 42, 0
2, 108490, Note_on_c, 0, 42, 54
2, 108537, Note_on_c, 0, 47, 0
2, 108750, Note_on_c, 0, 71, 0
2, 108750, Note_on_c, 0, 66, 64
2, 108750, Note_on_c, 0, 70, 59
2, 108750, Note_on_c, 0, 73, 64
2, 108750, Note_on_c, 0, 78, 61
2, 108753, Note_on_c, 0, 76, 0
2, 108753, Note_on_c, 0, 79, 0
2, 108763, Note_on_c, 0, 64, 0
2, 108849, Note_on_c, 0, 35, 0
2, 108854, Control_c, 0, 64, 127
2, 108938, Note_on_c, 0, 47, 49
2, 108998, Note_on_c, 0, 42, 0
2, 109103, Control_c, 0, 67, 127
2, 109303, Note_on_c, 0, 42, 46
2, 109311, Note_on_c, 0, 47, 0
2, 109331, Control_c, 0, 64, 0
2, 109465, Note_on_c, 0, 66, 0
2, 109511, Note_on_c, 0, 75, 62
2, 109515, Note_on_c, 0, 63, 48
2, 109515, Note_on_c, 0, 71, 59
2, 109520, Note_on_c, 0, 78, 0
2, 109525, Note_on_c, 0, 70, 0
2, 109525, Note_on_c, 0, 73, 0
2, 109525, Note_on_c, 0, 66, 60
2, 109677, Note_on_c, 0, 35, 47
2, 109778, Note_on_c, 0, 42, 0
2, 109778, Control_c, 0, 64, 127
2, 109863, Note_on_c, 0, 64, 42
2, 109863, Note_on_c, 0, 73, 54
2, 109885, Note_on_c, 0, 66, 0
2, 109890, Note_on_c, 0, 75, 0
2, 109905, Note_on_c, 0, 63, 0
2, 109918, Note_on_c, 0, 71, 0
2, 109955, Control_c, 0, 64, 0
2, 110040, Note_on_c, 0, 42, 41
2, 110089, Note_on_c, 0, 63, 45
2, 110089, Note_on_c, 0, 71, 59
2, 110127, Note_on_c, 0, 64, 0
2, 110147, Note_on_c, 0, 73, 0
2, 110333, Note_on_c, 0, 61, 48
2, 110336, Note_on_c, 0, 66, 53
2, 110383, Note_on_c, 0, 63, 0
2, 110393, Note_on_c, 0, 71, 0
2, 110425, Control_c, 0, 64, 127
2, 110502, Note_on_c, 0, 47, 50
2, 110577, Note_on_c, 0, 42, 0
2, 110718, Control_c, 0, 64, 0
2, 110721, Note_on_c, 0, 59, 52
2, 110721, Note_on_c, 0, 63, 54
2, 110760, Note_on_c, 0, 61, 0
2, 110760, Note_on_c, 0, 66, 0
2, 110887, Note_on_c, 0, 42, 42
2, 111051, Note_on_c, 0, 66, 60
2, 111056, Note_on_c, 0, 61, 42
2, 111061, Note_on_c, 0, 35, 0
2, 111091, Note_on_c, 0, 59, 0
2, 111111, Note_on_c, 0, 63, 0
2, 111180, Control_c, 0, 64, 127
2, 111219, Note_on_c, 0, 35, 54
2, 111324, Note_on_c, 0, 63, 42
2, 111329, Note_on_c, 0, 71, 56
2, 111336, Note_on_c, 0, 61, 0
2, 111363, Note_on_c, 0, 66, 0
2, 111550, Note_on_c, 0, 71, 0
2, 111559, Control_c, 0, 64, 0
2, 111564, Note_on_c, 0, 64, 43
2, 111572, Note_on_c, 0, 63, 0
2, 111614, Note_on_c, 0, 71, 47
2, 111669, Note_on_c, 0, 76, 49
2, 111723, Note_on_c, 0, 80, 64
2, 111838, Note_on_c, 0, 42, 0
2, 111892, Note_on_c, 0, 42, 46
2, 112036, Note_on_c, 0, 47, 0
2, 112135, Note_on_c, 0, 70, 56
2, 112135, Note_on_c, 0, 73, 57
2, 112138, Note_on_c, 0, 78, 55
2, 112146, Note_on_c, 0, 66, 53
2, 112158, Note_on_c, 0, 64, 0
2, 112166, Note_on_c, 0, 71, 0
2, 112171, Note_on_c, 0, 76, 0
2, 112171, Note_on_c, 0, 80, 0
2, 112295, Control_c, 0, 64, 127
2, 112312, Note_on_c, 0, 47, 46
2, 112473, Note_on_c, 0, 42, 0
2, 112689, Note_on_c, 0, 42, 42
2, 112699, Control_c, 0, 67, 0
2, 112785, Note_on_c, 0, 47, 0
2, 112842, Control_c, 0, 64, 0
2, 112847, Note_on_c, 0, 66, 0
2, 112881, Note_on_c, 0, 74, 56
2, 112886, Note_on_c, 0, 70, 0
2, 112886, Note_on_c, 0, 71, 56
2, 112889, Note_on_c, 0, 62, 46
2, 112892, Note_on_c, 0, 66, 54
2, 112896, Note_on_c, 0, 73, 0
2, 112896, Note_on_c, 0, 78, 0
2, 112946, Note_on_c, 0, 35, 0
2, 113033, Note_on_c, 0, 35, 54
2, 113147, Note_on_c, 0, 42, 0
2, 113232, Control_c, 0, 64, 127
2, 113326, Note_on_c, 0, 42, 54
2, 113352, Note_on_c, 0, 66, 0
2, 113352, Note_on_c, 0, 62, 0
2, 113362, Note_on_c, 0, 74, 0
2, 113367, Note_on_c, 0, 71, 0
2, 113400, Note_on_c, 0, 35, 0
2, 113409, Note_on_c, 0, 62, 46
2, 113412, Note_on_c, 0, 71, 65
2, 113415, Note_on_c, 0, 74, 62
2, 113420, Note_on_c, 0, 66, 61
2, 113559, Note_on_c, 0, 62, 0
2, 113564, Note_on_c, 0, 74, 0
2, 113564, Note_on_c, 0, 71, 0
2, 113606, Note_on_c, 0, 42, 0
2, 113606, Control_c, 0, 64, 0
2, 113609, Note_on_c, 0, 62, 43
2, 113612, Note_on_c, 0, 67, 71
2, 113616, Note_on_c, 0, 71, 70
2, 113616, Note_on_c, 0, 74, 66
2, 113629, Note_on_c, 0, 66, 0
2, 113756, Note_on_c, 0, 31, 71
2, 113855, Control_c, 0, 64, 127
2, 113887, Note_on_c, 0, 62, 0
2, 113903, Note_on_c, 0, 71, 0
2, 113948, Note_on_c, 0, 62, 52
2, 113948, Note_on_c, 0, 71, 61
2, 113948, Note_on_c, 0, 76, 62
2, 113963, Note_on_c, 0, 74, 0
2, 113968, Note_on_c, 0, 67, 0
2, 114104, Note_on_c, 0, 62, 0
2, 114104, Note_on_c, 0, 71, 0
2, 114104, Note_on_c, 0, 43, 69
2, 114109, Note_on_c, 0, 76, 0
2, 114154, Note_on_c, 0, 62, 51
2, 114206, Note_on_c, 0, 71, 50
2, 114251, Note_on_c, 0, 77, 67
2, 114343, Note_on_c, 0, 62, 0
2, 114390, Note_on_c, 0, 77, 0
2, 114393, Note_on_c, 0, 62, 54
2, 114401, Note_on_c, 0, 71, 0
2, 114408, Control_c, 0, 64, 0
2, 114443, Note_on_c, 0, 71, 52
2, 114460, Note_on_c, 0, 31, 0
2, 114478, Note_on_c, 0, 77, 66
2, 114644, Note_on_c, 0, 36, 60
2, 114723, Note_on_c, 0, 43, 0
2, 114930, Note_on_c, 0, 43, 54
2, 114955, Control_c, 0, 67, 127
2, 114958, Control_c, 0, 64, 127
2, 115161, Note_on_c, 0, 64, 52
2, 115161, Note_on_c, 0, 72, 60
2, 115161, Note_on_c, 0, 76, 60
2, 115174, Control_c, 0, 64, 0
2, 115216, Note_on_c, 0, 77, 0
2, 115216, Note_on_c, 0, 71, 0
2, 115216, Note_on_c, 0, 62, 0
2, 115315, Note_on_c, 0, 48, 52
2, 115387, Note_on_c, 0, 43, 0
2, 115443, Control_c, 0, 67, 0
2, 115553, Control_c, 0, 64, 127
2, 115652, Note_on_c, 0, 43, 45
2, 115733, Note_on_c, 0, 48, 0
2, 115823, Note_on_c, 0, 36, 0
2, 115830, Note_on_c, 0, 64, 0
2, 115830, Note_on_c, 0, 72, 0
2, 115835, Note_on_c, 0, 76, 0
2, 115887, Note_on_c, 0, 67, 71
2, 115890, Note_on_c, 0, 64, 54
2, 115893, Note_on_c, 0, 72, 72
2, 115893, Note_on_c, 0, 76, 70
2, 116049, Note_on_c, 0, 36, 68
2, 116113, Note_on_c, 0, 43, 0
2, 116334, Note_on_c, 0, 43, 56
2, 116354, Note_on_c, 0, 72, 0
2, 116359, Note_on_c, 0, 67, 0
2, 116359, Note_on_c, 0, 76, 0
2, 116359, Note_on_c, 0, 64, 0
2, 116394, Note_on_c, 0, 67, 67
2, 116399, Note_on_c, 0, 64, 51
2, 116403, Note_on_c, 0, 72, 65
2, 116403, Note_on_c, 0, 76, 65
2, 116406, Note_on_c, 0, 36, 0
2, 116533, Note_on_c, 0, 64, 0
2, 116548, Note_on_c, 0, 76, 0
2, 116591, Control_c, 0, 64, 0
2, 116606, Note_on_c, 0, 43, 0
2, 116606, Note_on_c, 0, 64, 53
2, 116609, Note_on_c, 0, 76, 75
2, 116616, Note_on_c, 0, 73, 76
2, 116621, Note_on_c, 0, 69, 76
2, 116624, Note_on_c, 0, 67, 0
2, 116627, Note_on_c, 0, 72, 0
2, 116746, Note_on_c, 0, 33, 74
2, 116793, Note_on_c, 0, 64, 0
2, 116818, Control_c, 0, 64, 127
2, 116835, Note_on_c, 0, 64, 50
2, 116843, Note_on_c, 0, 73, 0
2, 116846, Note_on_c, 0, 69, 0
2, 116888, Note_on_c, 0, 73, 54
2, 116938, Note_on_c, 0, 78, 75
2, 116960, Note_on_c, 0, 76, 0
2, 117077, Note_on_c, 0, 64, 0
2, 117087, Note_on_c, 0, 45, 63
2, 117095, Note_on_c, 0, 73, 0
2, 117124, Note_on_c, 0, 64, 50
2, 117162, Control_c, 0, 64, 0
2, 117182, Note_on_c, 0, 73, 52
2, 117229, Note_on_c, 0, 78, 0
2, 117234, Note_on_c, 0, 79, 67
2, 117286, Note_on_c, 0, 64, 0
2, 117323, Control_c, 0, 67, 127
2, 117340, Control_c, 0, 64, 127
2, 117370, Note_on_c, 0, 73, 0
2, 117373, Note_on_c, 0, 33, 0
2, 117378, Note_on_c, 0, 64, 54
2, 117387, Note_on_c, 0, 79, 0
2, 117437, Note_on_c, 0, 73, 53
2, 117487, Note_on_c, 0, 79, 77
2, 117622, Note_on_c, 0, 38, 60
2, 117642, Control_c, 0, 64, 0
2, 117684, Note_on_c, 0, 45, 0
2, 117865, Control_c, 0, 64, 127
2, 117935, Note_on_c, 0, 45, 58
2, 118148, Note_on_c, 0, 74, 66
2, 118148, Note_on_c, 0, 78, 66
2, 118160, Note_on_c, 0, 66, 65
2, 118190, Note_on_c, 0, 79, 0
2, 118193, Note_on_c, 0, 73, 0
2, 118205, Control_c, 0, 64, 0
2, 118208, Note_on_c, 0, 64, 0
2, 118352, Note_on_c, 0, 50, 49
2, 118419, Control_c, 0, 64, 127
2, 118491, Note_on_c, 0, 45, 0
2, 118668, Note_on_c, 0, 45, 44
2, 118773, Note_on_c, 0, 74, 0
2, 118776, Note_on_c, 0, 69, 71
2, 118793, Note_on_c, 0, 78, 0
2, 118800, Note_on_c, 0, 66, 0
2, 118803, Control_c, 0, 64, 0
2, 118880, Note_on_c, 0, 57, 44
2, 118962, Note_on_c, 0, 66, 53
2, 119029, Note_on_c, 0, 74, 69
2, 119068, Control_c, 0, 64, 127
2, 119076, Note_on_c, 0, 69, 0
2, 119096, Note_on_c, 0, 38, 0
2, 119225, Note_on_c, 0, 38, 47
2, 119280, Note_on_c, 0, 50, 0
2, 119280, Note_on_c, 0, 45, 0
2, 119349, Note_on_c, 0, 66, 0
2, 119383, Note_on_c, 0, 64, 41
2, 119383, Note_on_c, 0, 69, 64
2, 119386, Note_on_c, 0, 66, 63
2, 119408, Note_on_c, 0, 57, 0
2, 119430, Note_on_c, 0, 74, 0
2, 119565, Note_on_c, 0, 45, 41
2, 119696, Note_on_c, 0, 66, 0
2, 119736, Note_on_c, 0, 62, 46
2, 119740, Note_on_c, 0, 66, 64
2, 119740, Note_on_c, 0, 71, 59
2, 119780, Note_on_c, 0, 64, 0
2, 119780, Note_on_c, 0, 69, 0
2, 119938, Note_on_c, 0, 50, 51
2, 120104, Note_on_c, 0, 57, 45
2, 120114, Note_on_c, 0, 62, 0
2, 120121, Note_on_c, 0, 66, 0
2, 120151, Control_c, 0, 64, 0
2, 120168, Note_on_c, 0, 66, 49
2, 120238, Note_on_c, 0, 72, 62
2, 120260, Control_c, 0, 67, 0
2, 120277, Note_on_c, 0, 71, 0
2, 120322, Note_on_c, 0, 45, 0
2, 120327, Control_c, 0, 64, 127
2, 120389, Note_on_c, 0, 45, 48
2, 120533, Note_on_c, 0, 59, 49
2, 120576, Note_on_c, 0, 67, 55
2, 120583, Control_c, 0, 64, 0
2, 120586, Note_on_c, 0, 66, 0
2, 120611, Note_on_c, 0, 57, 0
2, 120666, Note_on_c, 0, 71, 48
2, 120718, Note_on_c, 0, 72, 0
2, 120735, Note_on_c, 0, 79, 65
2, 120837, Note_on_c, 0, 38, 0
2, 120852, Control_c, 0, 64, 127
2, 120909, Note_on_c, 0, 38, 57
2, 121048, Note_on_c, 0, 71, 0
2, 121053, Note_on_c, 0, 45, 0
2, 121073, Note_on_c, 0, 67, 0
2, 121103, Note_on_c, 0, 67, 65
2, 121107, Note_on_c, 0, 71, 66
2, 121107, Note_on_c, 0, 73, 67
2, 121110, Note_on_c, 0, 64, 50
2, 121132, Note_on_c, 0, 59, 0
2, 121148, Note_on_c, 0, 79, 0
2, 121274, Note_on_c, 0, 45, 54
2, 121403, Note_on_c, 0, 71, 0
2, 121413, Note_on_c, 0, 67, 0
2, 121445, Note_on_c, 0, 67, 67
2, 121450, Note_on_c, 0, 71, 67
2, 121450, Note_on_c, 0, 74, 74
2, 121453, Note_on_c, 0, 62, 49
2, 121508, Note_on_c, 0, 64, 0
2, 121508, Note_on_c, 0, 73, 0
2, 121553, Note_on_c, 0, 50, 0
2, 121603, Note_on_c, 0, 50, 50
2, 121722, Note_on_c, 0, 61, 48
2, 121749, Note_on_c, 0, 62, 0
2, 121771, Note_on_c, 0, 71, 0
2, 121808, Control_c, 0, 64, 0
2, 121825, Note_on_c, 0, 71, 48
2, 121835, Note_on_c, 0, 45, 0
2, 121890, Note_on_c, 0, 76, 66
2, 121932, Note_on_c, 0, 74, 0
2, 122004, Control_c, 0, 67, 127
2, 122059, Note_on_c, 0, 45, 53
2, 122190, Note_on_c, 0, 62, 53
2, 122217, Note_on_c, 0, 61, 0
2, 122242, Note_on_c, 0, 66, 49
2, 122280, Note_on_c, 0, 67, 0
2, 122295, Note_on_c, 0, 69, 49
2, 122322, Note_on_c, 0, 71, 0
2, 122356, Note_on_c, 0, 74, 47
2, 122411, Note_on_c, 0, 78, 50
2, 122456, Control_c, 0, 64, 127
2, 122472, Note_on_c, 0, 86, 67
2, 122476, Note_on_c, 0, 76, 0
2, 122521, Note_on_c, 0, 38, 0
2, 122586, Note_on_c, 0, 38, 64
2, 122722, Note_on_c, 0, 45, 0
2, 122749, Note_on_c, 0, 78, 0
2, 122791, Note_on_c, 0, 78, 66
2, 122791, Note_on_c, 0, 81, 65
2, 122794, Note_on_c, 0, 72, 64
2, 122794, Note_on_c, 0, 76, 59
2, 122799, Note_on_c, 0, 50, 0
2, 122804, Note_on_c, 0, 62, 0
2, 122813, Note_on_c, 0, 74, 0
2, 122813, Note_on_c, 0, 66, 0
2, 122813, Note_on_c, 0, 69, 0
2, 122821, Note_on_c, 0, 86, 0
2, 122982, Note_on_c, 0, 45, 54
2, 123094, Note_on_c, 0, 78, 0
2, 123148, Note_on_c, 0, 78, 66
2, 123164, Note_on_c, 0, 71, 63
2, 123164, Note_on_c, 0, 74, 66
2, 123164, Note_on_c, 0, 83, 60
2, 123176, Note_on_c, 0, 76, 0
2, 123184, Note_on_c, 0, 72, 0
2, 123193, Note_on_c, 0, 81, 0
2, 123312, Note_on_c, 0, 50, 56
2, 123367, Note_on_c, 0, 45, 0
2, 123449, Note_on_c, 0, 74, 0
2, 123454, Note_on_c, 0, 69, 55
2, 123483, Note_on_c, 0, 71, 0
2, 123486, Note_on_c, 0, 74, 50
2, 123499, Note_on_c, 0, 78, 0
2, 123536, Control_c, 0, 64, 0
2, 123536, Note_on_c, 0, 78, 49
2, 123593, Note_on_c, 0, 84, 62
2, 123638, Note_on_c, 0, 83, 0
2, 123727, Note_on_c, 0, 45, 54
2, 123862, Note_on_c, 0, 71, 48
2, 123879, Note_on_c, 0, 69, 0
2, 123918, Note_on_c, 0, 79, 42
2, 123940, Note_on_c, 0, 74, 0
2, 123958, Note_on_c, 0, 78, 0
2, 123992, Note_on_c, 0, 83, 48
2, 124106, Note_on_c, 0, 91, 59
2, 124116, Note_on_c, 0, 84, 0
2, 124149, Control_c, 0, 64, 127
2, 124171, Note_on_c, 0, 38, 0
2, 124265, Note_on_c, 0, 38, 53
2, 124393, Note_on_c, 0, 79, 0
2, 124403, Note_on_c, 0, 83, 0
2, 124418, Note_on_c, 0, 45, 0
2, 124453, Note_on_c, 0, 79, 55
2, 124456, Note_on_c, 0, 83, 57
2, 124459, Note_on_c, 0, 76, 56
2, 124462, Note_on_c, 0, 85, 53
2, 124474, Note_on_c, 0, 50, 0
2, 124489, Note_on_c, 0, 71, 0
2, 124492, Note_on_c, 0, 91, 0
2, 124633, Note_on_c, 0, 45, 52
2, 124760, Note_on_c, 0, 79, 0
2, 124760, Note_on_c, 0, 83, 0
2, 124807, Note_on_c, 0, 83, 57
2, 124807, Note_on_c, 0, 86, 54
2, 124810, Note_on_c, 0, 74, 55
2, 124820, Note_on_c, 0, 79, 56
2, 124823, Note_on_c, 0, 76, 0
2, 124830, Note_on_c, 0, 85, 0
2, 125004, Note_on_c, 0, 50, 49
2, 125162, Note_on_c, 0, 73, 47
2, 125183, Note_on_c, 0, 79, 0
2, 125187, Note_on_c, 0, 74, 0
2, 125217, Note_on_c, 0, 79, 45
2, 125230, Note_on_c, 0, 83, 0
2, 125242, Control_c, 0, 64, 0
2, 125262, Note_on_c, 0, 83, 41
2, 125300, Note_on_c, 0, 45, 0
2, 125322, Note_on_c, 0, 88, 59
2, 125342, Note_on_c, 0, 86, 0
2, 125498, Note_on_c, 0, 45, 42
2, 125570, Note_on_c, 0, 50, 0
2, 125699, Note_on_c, 0, 54, 65
2, 125793, Note_on_c, 0, 69, 41
2, 125810, Note_on_c, 0, 73, 0
2, 125835, Note_on_c, 0, 83, 0
2, 125835, Note_on_c, 0, 74, 43
2, 125853, Note_on_c, 0, 88, 0
2, 125870, Note_on_c, 0, 79, 0
2, 125880, Note_on_c, 0, 81, 46
2, 125887, Control_c, 0, 64, 127
2, 125942, Note_on_c, 0, 38, 0
2, 126041, Note_on_c, 0, 38, 51
2, 126152, Control_c, 0, 67, 0
2, 126271, Note_on_c, 0, 57, 71
2, 126306, Note_on_c, 0, 54, 0
2, 126348, Note_on_c, 0, 45, 0
2, 126504, Note_on_c, 0, 45, 47
2, 126705, Note_on_c, 0, 66, 70
2, 126738, Note_on_c, 0, 57, 0
2, 126921, Note_on_c, 0, 50, 45
2, 127031, Note_on_c, 0, 45, 0
2, 127170, Control_c, 0, 64, 0
2, 127170, Note_on_c, 0, 57, 53
2, 127232, Note_on_c, 0, 66, 0
2, 127274, Control_c, 0, 67, 127
2, 127354, Note_on_c, 0, 45, 45
2, 127416, Note_on_c, 0, 50, 0
2, 127568, Note_on_c, 0, 54, 71
2, 127623, Control_c, 0, 64, 127
2, 127638, Note_on_c, 0, 74, 0
2, 127656, Note_on_c, 0, 57, 0
2, 127656, Note_on_c, 0, 72, 54
2, 127673, Note_on_c, 0, 69, 0
2, 127698, Note_on_c, 0, 74, 54
2, 127707, Note_on_c, 0, 81, 0
2, 127759, Note_on_c, 0, 81, 48
2, 127776, Note_on_c, 0, 38, 0
2, 127809, Note_on_c, 0, 84, 64
2, 127953, Note_on_c, 0, 38, 52
2, 128149, Note_on_c, 0, 57, 72
2, 128191, Note_on_c, 0, 45, 0
2, 128199, Note_on_c, 0, 54, 0
2, 128365, Note_on_c, 0, 45, 48
2, 128589, Note_on_c, 0, 66, 68
2, 128645, Note_on_c, 0, 57, 0
2, 128782, Note_on_c, 0, 50, 51
2, 128977, Note_on_c, 0, 45, 0
2, 128990, Note_on_c, 0, 38, 0
2, 129076, Note_on_c, 0, 45, 47
2, 129086, Control_c, 0, 67, 0
2, 129153, Note_on_c, 0, 50, 0
2, 129186, Note_on_c, 0, 57, 60
2, 129236, Note_on_c, 0, 66, 0
2, 129456, Note_on_c, 0, 62, 72
2, 129491, Note_on_c, 0, 72, 0
2, 129504, Note_on_c, 0, 74, 0
2, 129528, Note_on_c, 0, 71, 44
2, 129538, Note_on_c, 0, 81, 0
2, 129543, Note_on_c, 0, 79, 43
2, 129555, Note_on_c, 0, 84, 0
2, 129565, Control_c, 0, 64, 0
2, 129568, Note_on_c, 0, 83, 46
2, 129573, Note_on_c, 0, 57, 0
2, 129605, Control_c, 0, 67, 127
2, 129774, Control_c, 0, 67, 0
2, 129812, Note_on_c, 0, 38, 52
2, 129849, Control_c, 0, 64, 127
2, 129852, Note_on_c, 0, 45, 0
2, 130016, Note_on_c, 0, 59, 61
2, 130088, Note_on_c, 0, 62, 0
2, 130232, Note_on_c, 0, 43, 49
2, 130451, Note_on_c, 0, 55, 60
2, 130523, Note_on_c, 0, 59, 0
2, 130650, Note_on_c, 0, 50, 47
2, 130803, Note_on_c, 0, 43, 0
2, 130863, Note_on_c, 0, 54, 66
2, 130868, Control_c, 0, 64, 0
2, 130935, Note_on_c, 0, 55, 0
2, 131064, Note_on_c, 0, 43, 52
2, 131120, Note_on_c, 0, 50, 0
2, 131311, Note_on_c, 0, 52, 71
2, 131314, Note_on_c, 0, 79, 0
2, 131319, Note_on_c, 0, 70, 48
2, 131364, Note_on_c, 0, 54, 0
2, 131384, Note_on_c, 0, 83, 0
2, 131389, Note_on_c, 0, 73, 48
2, 131394, Control_c, 0, 67, 127
2, 131409, Note_on_c, 0, 71, 0
2, 131426, Note_on_c, 0, 79, 53
2, 131426, Note_on_c, 0, 82, 52
2, 131555, Control_c, 0, 64, 127
2, 131804, Control_c, 0, 67, 0
2, 131829, Note_on_c, 0, 43, 0
2, 132137, Note_on_c, 0, 54, 46
2, 132154, Note_on_c, 0, 43, 47
2, 132192, Note_on_c, 0, 52, 0
2, 132231, Control_c, 0, 64, 0
2, 132261, Note_on_c, 0, 55, 59
2, 132312, Note_on_c, 0, 54, 0
2, 132394, Note_on_c, 0, 52, 62
2, 132474, Note_on_c, 0, 55, 0
2, 132516, Control_c, 0, 67, 127
2, 132602, Note_on_c, 0, 49, 53
2, 132659, Note_on_c, 0, 43, 0
2, 132669, Control_c, 0, 64, 127
2, 132888, Note_on_c, 0, 38, 0
2, 132997, Note_on_c, 0, 54, 66
2, 133014, Control_c, 0, 64, 0
2, 133022, Note_on_c, 0, 43, 57
2, 133049, Note_on_c, 0, 52, 0
2, 133091, Note_on_c, 0, 49, 0
2, 133143, Note_on_c, 0, 55, 60
2, 133188, Note_on_c, 0, 54, 0
2, 133290, Note_on_c, 0, 45, 66
2, 133302, Note_on_c, 0, 43, 0
2, 133307, Note_on_c, 0, 69, 47
2, 133315, Note_on_c, 0, 70, 0
2, 133318, Note_on_c, 0, 74, 46
2, 133330, Note_on_c, 0, 78, 45
2, 133333, Note_on_c, 0, 73, 0
2, 133350, Note_on_c, 0, 79, 0
2, 133372, Note_on_c, 0, 82, 0
2, 133372, Note_on_c, 0, 81, 48
2, 133388, Note_on_c, 0, 55, 0
2, 133586, Control_c, 0, 67, 0
2, 133621, Note_on_c, 0, 38, 71
2, 133690, Control_c, 0, 64, 127
2, 133789, Note_on_c, 0, 48, 65
2, 133806, Note_on_c, 0, 45, 0
2, 134159, Note_on_c, 0, 48, 0
2, 134161, Note_on_c, 0, 54, 67
2, 134238, Note_on_c, 0, 38, 0
2, 134337, Note_on_c, 0, 38, 53
2, 134583, Note_on_c, 0, 54, 0
2, 134591, Note_on_c, 0, 48, 53
2, 134595, Control_c, 0, 67, 127
2, 134970, Note_on_c, 0, 45, 64
2, 134982, Note_on_c, 0, 69, 0
2, 134987, Note_on_c, 0, 74, 0
2, 134987, Note_on_c, 0, 48, 0
2, 135024, Note_on_c, 0, 62, 48
2, 135037, Note_on_c, 0, 66, 53
2, 135052, Note_on_c, 0, 69, 48
2, 135074, Note_on_c, 0, 72, 52
2, 135092, Note_on_c, 0, 74, 62
2, 135124, Note_on_c, 0, 78, 0
2, 135146, Note_on_c, 0, 81, 0
2, 135168, Note_on_c, 0, 38, 0
2, 135228, Note_on_c, 0, 38, 51
2, 135429, Note_on_c, 0, 48, 63
2, 135530, Note_on_c, 0, 45, 0
2, 135831, Note_on_c, 0, 54, 66
2, 135888, Note_on_c, 0, 48, 0
2, 135967, Note_on_c, 0, 38, 0
2, 136019, Note_on_c, 0, 38, 47
2, 136173, Control_c, 0, 67, 0
2, 136426, Note_on_c, 0, 45, 61
2, 136431, Note_on_c, 0, 54, 0
2, 136439, Control_c, 0, 64, 0
2, 136615, Note_on_c, 0, 62, 0
2, 136665, Note_on_c, 0, 50, 65
2, 136687, Note_on_c, 0, 69, 0
2, 136687, Note_on_c, 0, 66, 0
2, 136717, Note_on_c, 0, 74, 0
2, 136720, Note_on_c, 0, 45, 0
2, 136725, Note_on_c, 0, 62, 44
2, 136725, Note_on_c, 0, 65, 47
2, 136725, Note_on_c, 0, 67, 49
2, 136745, Note_on_c, 0, 72, 0
2, 136762, Note_on_c, 0, 71, 61
2, 136809, Note_on_c, 0, 38, 0
2, 136886, Control_c, 0, 64, 127
2, 136948, Note_on_c, 0, 38, 63
2, 137164, Note_on_c, 0, 47, 64
2, 137258, Note_on_c, 0, 50, 0
2, 137581, Note_on_c, 0, 43, 64
2, 137653, Note_on_c, 0, 47, 0
2, 137703, Note_on_c, 0, 38, 0
2, 137800, Note_on_c, 0, 38, 47
2, 137864, Control_c, 0, 64, 0
2, 138003, Note_on_c, 0, 41, 63
2, 138075, Note_on_c, 0, 43, 0
2, 138420, Note_on_c, 0, 67, 0
2, 138472, Note_on_c, 0, 41, 0
2, 138472, Note_on_c, 0, 40, 68
2, 138514, Note_on_c, 0, 67, 50
2, 138517, Note_on_c, 0, 60, 47
2, 138534, Note_on_c, 0, 71, 0
2, 138539, Note_on_c, 0, 62, 0
2, 138542, Note_on_c, 0, 72, 59
2, 138550, Note_on_c, 0, 65, 0
2, 138576, Note_on_c, 0, 38, 0
2, 138766, Note_on_c, 0, 38, 54
2, 138912, Control_c, 0, 64, 127
2, 139320, Note_on_c, 0, 42, 60
2, 139349, Note_on_c, 0, 40, 0
2, 139367, Control_c, 0, 64, 0
2, 139446, Note_on_c, 0, 43, 64
2, 139518, Note_on_c, 0, 42, 0
2, 139565, Note_on_c, 0, 60, 0
2, 139578, Note_on_c, 0, 72, 0
2, 139583, Note_on_c, 0, 67, 0
2, 139587, Note_on_c, 0, 39, 70
2, 139617, Note_on_c, 0, 67, 47
2, 139627, Note_on_c, 0, 60, 47
2, 139647, Note_on_c, 0, 72, 52
2, 139655, Note_on_c, 0, 43, 0
2, 139664, Note_on_c, 0, 38, 0
2, 139935, Note_on_c, 0, 38, 44
2, 140074, Control_c, 0, 64, 127
2, 140325, Control_c, 0, 67, 127
2, 140387, Control_c, 0, 64, 0
2, 140402, Note_on_c, 0, 42, 53
2, 140454, Note_on_c, 0, 39, 0
2, 140561, Note_on_c, 0, 43, 53
2, 140606, Control_c, 0, 64, 127
2, 140609, Note_on_c, 0, 42, 0
2, 140624, Note_on_c, 0, 38, 0
2, 140669, Note_on_c, 0, 67, 0
2, 140741, Control_c, 0, 64, 0
2, 140741, Note_on_c, 0, 38, 71
2, 140779, Note_on_c, 0, 67, 45
2, 140782, Note_on_c, 0, 43, 0
2, 140782, Note_on_c, 0, 59, 48
2, 140802, Note_on_c, 0, 72, 0
2, 140805, Note_on_c, 0, 71, 48
2, 140830, Note_on_c, 0, 60, 0
2, 141021, Control_c, 0, 64, 127
2, 141068, Note_on_c, 0, 38, 0
2, 141118, Note_on_c, 0, 26, 48
2, 141118, Note_on_c, 0, 38, 50
2, 141672, Note_on_c, 0, 42, 63
2, 141773, Control_c, 0, 64, 0
2, 141932, Note_on_c, 0, 43, 53
2, 141969, Note_on_c, 0, 42, 0
2, 142210, Note_on_c, 0, 37, 60
2, 142252, Note_on_c, 0, 58, 41
2, 142257, Note_on_c, 0, 43, 0
2, 142282, Note_on_c, 0, 67, 0
2, 142285, Note_on_c, 0, 59, 0
2, 142302, Note_on_c, 0, 64, 51
2, 142320, Note_on_c, 0, 67, 48
2, 142337, Note_on_c, 0, 70, 52
2, 142367, Note_on_c, 0, 71, 0
2, 142412, Control_c, 0, 64, 127
2, 142513, Note_on_c, 0, 38, 0
2, 142536, Note_on_c, 0, 26, 0
2, 142578, Note_on_c, 0, 38, 54
2, 142585, Note_on_c, 0, 26, 49
2, 143231, Note_on_c, 0, 42, 58
2, 143256, Control_c, 0, 64, 0
2, 143303, Note_on_c, 0, 37, 0
2, 143539, Note_on_c, 0, 43, 47
2, 143586, Note_on_c, 0, 42, 0
2, 143824, Note_on_c, 0, 26, 0
2, 143869, Note_on_c, 0, 38, 0
2, 143886, Note_on_c, 0, 58, 0
2, 143904, Note_on_c, 0, 67, 0
2, 143916, Note_on_c, 0, 64, 0
2, 143926, Note_on_c, 0, 70, 0
2, 143946, Note_on_c, 0, 26, 52
2, 143963, Note_on_c, 0, 33, 52
2, 144018, Note_on_c, 0, 43, 0
2, 144457, Control_c, 0, 64, 127
2, 144492, Note_on_c, 0, 69, 48
2, 144497, Note_on_c, 0, 57, 44
2, 144497, Note_on_c, 0, 62, 41
2, 144497, Note_on_c, 0, 66, 48
2, 145392, Note_on_c, 0, 26, 0
2, 145442, Note_on_c, 0, 38, 53
2, 145447, Note_on_c, 0, 26, 52
2, 145457, Note_on_c, 0, 33, 0
2, 145546, Control_c, 0, 64, 0
2, 145563, Note_on_c, 0, 62, 0
2, 145568, Note_on_c, 0, 57, 0
2, 145568, Note_on_c, 0, 69, 0
2, 145573, Note_on_c, 0, 66, 0
2, 145958, Note_on_c, 0, 54, 43
2, 145966, Note_on_c, 0, 57, 42
2, 145966, Note_on_c, 0, 62, 45
2, 145968, Note_on_c, 0, 66, 46
2, 146006, Control_c, 0, 64, 127
2, 146897, Note_on_c, 0, 26, 0
2, 146934, Note_on_c, 0, 38, 0
2, 147003, Note_on_c, 0, 26, 44
2, 147006, Note_on_c, 0, 38, 46
2, 147266, Note_on_c, 0, 42, 50
2, 147312, Control_c, 0, 64, 0
2, 147575, Note_on_c, 0, 66, 0
2, 147604, Note_on_c, 0, 62, 0
2, 147609, Note_on_c, 0, 57, 0
2, 147647, Note_on_c, 0, 54, 0
2, 147942, Control_c, 0, 64, 127
2, 148151, Note_on_c, 0, 38, 0
2, 148198, Note_on_c, 0, 38, 42
2, 148198, Note_on_c, 0, 54, 42
2, 148198, Note_on_c, 0, 62, 45
2, 148200, Note_on_c, 0, 50, 46
2, 148200, Note_on_c, 0, 57, 48
2, 148248, Note_on_c, 0, 26, 0
2, 148759, Control_c, 0, 67, 0
2, 149886, Control_c, 0, 64, 0
2, 152299, Note_on_c, 0, 54, 0
2, 152302, Note_on_c, 0, 42, 0
2, 152302, Note_on_c, 0, 50, 0
2, 152311, Note_on_c, 0, 38, 0
2, 152311, Note_on_c, 0, 62, 0
2, 152316, Note_on_c, 0, 57, 0
2, 152316, End_track
3, 0, Start_track
3, 0, Title_t, "c/b Brahms"
3, 0, End_track
4, 0, Start_track
4, 0, Title_t, "p/b Frederich Lamond"
4, 0, End_track
5, 0, Start_track
5, 0, Title_t, "Ampico # 66753"
5, 0, End_track
6, 0, Start_track
6, 0, Title_t, "Scan of a player piano roll"
6, 0, End_track
7, 0, Start_track
7, 0, Title_t, "by Terry Smythe, Winnipeg, Canada"
7, 0, End_track
8, 0, Start_track
8, 1, Copyright_t, "\012__________________________________________________________\012Kunst der Fuge comment: this is the Contributor's property.\012Can *not* be used for commercial purposes without authorization!\012Copyright by Contributor - Kunst der Fuge,  2002-05\012http://www.kunstderfuge.com/thanks.htm -> Contributors' list\012http://www.kunstderfuge.com/notes.htm -> Terms & conditions"
8, 1, End_track
0, 0, End_of_file
