0, 0, Header, 1, 7, 120
1, 0, Start_track
1, 0, Title_t, "Ballade in B major Op. 10-4"
1, 0, Copyright_t, "Copyright © 2003 by Jeruen E. Dery \012__________________________________________________________\012Kunst der Fuge comment: this is the Contributor's property.\012Can *not* be used for commercial purposes without authorization!\012Copyright by Contributor - Kunst der Fuge, © 2002-05\012http://www.kunstderfuge.com/thanks.htm -> Contributors' list\012http://www.kunstderfuge.com/notes.htm -> Terms & conditions"
1, 0, Text_t, "Johannes Brahms\012"
1, 0, Time_signature, 3, 2, 24, 8
1, 0, Key_signature, 5, "major"
1, 0, Tempo, 750000
1, 0, Marker_t, "001"
1, 5040, Tempo, 751974
1, 5065, Tempo, 754812
1, 5084, Tempo, 757671
1, 5103, Tempo, 760553
1, 5122, Tempo, 763456
1, 5147, Tempo, 766381
1, 5166, Tempo, 769329
1, 5185, Tempo, 772300
1, 5204, Tempo, 775294
1, 5229, Tempo, 778311
1, 5248, Tempo, 781352
1, 5267, Tempo, 784416
1, 5286, Tempo, 787505
1, 5305, Tempo, 790618
1, 5330, Tempo, 793756
1, 5349, Tempo, 796919
1, 5368, Tempo, 800107
1, 5387, Tempo, 803320
1, 5412, Tempo, 806560
1, 5431, Tempo, 809826
1, 5450, Tempo, 813118
1, 5469, Tempo, 816438
1, 5494, Tempo, 819784
1, 5513, Tempo, 823158
1, 5532, Tempo, 826560
1, 5551, Tempo, 829990
1, 5570, Tempo, 833449
1, 5595, Tempo, 836937
1, 5614, Tempo, 840454
1, 5633, Tempo, 844001
1, 5652, Tempo, 847577
1, 5677, Tempo, 851185
1, 5696, Tempo, 854823
1, 5715, Tempo, 858492
1, 5734, Tempo, 862193
1, 5753, Tempo, 865926
1, 5760, Tempo, 750000
1, 5760, Marker_t, "017"
1, 10800, Tempo, 751974
1, 10825, Tempo, 754812
1, 10844, Tempo, 757671
1, 10863, Tempo, 760553
1, 10882, Tempo, 763456
1, 10907, Tempo, 766381
1, 10926, Tempo, 769329
1, 10945, Tempo, 772300
1, 10964, Tempo, 775294
1, 10989, Tempo, 778311
1, 11008, Tempo, 781352
1, 11027, Tempo, 784416
1, 11046, Tempo, 787505
1, 11065, Tempo, 790618
1, 11090, Tempo, 793756
1, 11109, Tempo, 796919
1, 11128, Tempo, 800107
1, 11147, Tempo, 803320
1, 11172, Tempo, 806560
1, 11191, Tempo, 809826
1, 11210, Tempo, 813118
1, 11229, Tempo, 816438
1, 11254, Tempo, 819784
1, 11273, Tempo, 823158
1, 11292, Tempo, 826560
1, 11311, Tempo, 829990
1, 11330, Tempo, 833449
1, 11355, Tempo, 836937
1, 11374, Tempo, 840454
1, 11393, Tempo, 844001
1, 11412, Tempo, 847577
1, 11437, Tempo, 851185
1, 11456, Tempo, 854823
1, 11475, Tempo, 858492
1, 11494, Tempo, 862193
1, 11513, Tempo, 865926
1, 11520, Tempo, 750000
1, 11520, Marker_t, "033"
1, 14400, Tempo, 751974
1, 14425, Tempo, 754812
1, 14444, Tempo, 757671
1, 14463, Tempo, 760553
1, 14482, Tempo, 763456
1, 14507, Tempo, 766381
1, 14526, Tempo, 769329
1, 14545, Tempo, 772300
1, 14564, Tempo, 775294
1, 14589, Tempo, 778311
1, 14608, Tempo, 781352
1, 14627, Tempo, 784416
1, 14646, Tempo, 787505
1, 14665, Tempo, 790618
1, 14690, Tempo, 793756
1, 14709, Tempo, 796919
1, 14728, Tempo, 800107
1, 14747, Tempo, 803320
1, 14772, Tempo, 806560
1, 14791, Tempo, 809826
1, 14810, Tempo, 813118
1, 14829, Tempo, 816438
1, 14854, Tempo, 819784
1, 14873, Tempo, 823158
1, 14892, Tempo, 826560
1, 14911, Tempo, 829990
1, 14930, Tempo, 833449
1, 14955, Tempo, 836937
1, 14974, Tempo, 840454
1, 14993, Tempo, 844001
1, 15012, Tempo, 847577
1, 15037, Tempo, 851185
1, 15056, Tempo, 854823
1, 15075, Tempo, 858492
1, 15094, Tempo, 862193
1, 15113, Tempo, 865926
1, 15120, Tempo, 750000
1, 21240, Tempo, 751974
1, 21265, Tempo, 754812
1, 21284, Tempo, 757671
1, 21303, Tempo, 760553
1, 21322, Tempo, 763456
1, 21347, Tempo, 766381
1, 21366, Tempo, 769329
1, 21385, Tempo, 772300
1, 21404, Tempo, 775294
1, 21429, Tempo, 778311
1, 21448, Tempo, 781352
1, 21467, Tempo, 784416
1, 21486, Tempo, 787505
1, 21505, Tempo, 790618
1, 21530, Tempo, 793756
1, 21549, Tempo, 796919
1, 21568, Tempo, 800107
1, 21587, Tempo, 803320
1, 21612, Tempo, 806560
1, 21631, Tempo, 809826
1, 21650, Tempo, 813118
1, 21669, Tempo, 816438
1, 21694, Tempo, 819784
1, 21713, Tempo, 823158
1, 21732, Tempo, 826560
1, 21751, Tempo, 829990
1, 21770, Tempo, 833449
1, 21795, Tempo, 836937
1, 21814, Tempo, 840454
1, 21833, Tempo, 844001
1, 21852, Tempo, 847577
1, 21877, Tempo, 851185
1, 21896, Tempo, 854823
1, 21915, Tempo, 858492
1, 21934, Tempo, 862193
1, 21953, Tempo, 865926
1, 21960, Tempo, 869565
1, 22320, Time_signature, 6, 2, 24, 8
1, 22320, Key_signature, 6, "major"
1, 22320, Tempo, 833333
1, 22320, Marker_t, "063"
1, 28080, Marker_t, "071"
1, 33120, Marker_t, "078"
1, 43920, Key_signature, 5, "major"
1, 45360, Tempo, 833449
1, 45391, Tempo, 836937
1, 45416, Tempo, 840454
1, 45442, Tempo, 844001
1, 45473, Tempo, 847577
1, 45498, Tempo, 851185
1, 45524, Tempo, 854823
1, 45549, Tempo, 858492
1, 45581, Tempo, 862193
1, 45606, Tempo, 865926
1, 45631, Tempo, 869691
1, 45663, Tempo, 873490
1, 45688, Tempo, 877321
1, 45713, Tempo, 881187
1, 45738, Tempo, 885086
1, 45770, Tempo, 889021
1, 45795, Tempo, 892990
1, 45821, Tempo, 896995
1, 45852, Tempo, 901036
1, 45877, Tempo, 905114
1, 45903, Tempo, 909229
1, 45928, Tempo, 913381
1, 45960, Tempo, 917571
1, 45985, Tempo, 921801
1, 46010, Tempo, 926069
1, 46042, Tempo, 930377
1, 46067, Tempo, 934725
1, 46092, Tempo, 939114
1, 46117, Tempo, 943545
1, 46149, Tempo, 948017
1, 46174, Tempo, 952532
1, 46200, Tempo, 957090
1, 46231, Tempo, 961693
1, 46256, Tempo, 966339
1, 46282, Tempo, 971031
1, 46307, Tempo, 975768
1, 46338, Tempo, 980552
1, 46364, Tempo, 985383
1, 46389, Tempo, 990262
1, 46421, Tempo, 995190
1, 46446, Tempo, 1000167
1, 46471, Tempo, 1005193
1, 46496, Tempo, 1010271
1, 46528, Tempo, 1015400
1, 46553, Tempo, 1020582
1, 46578, Tempo, 1025816
1, 46610, Tempo, 1031105
1, 46635, Tempo, 1036448
1, 46661, Tempo, 1041848
1, 46686, Tempo, 1047303
1, 46717, Tempo, 1052816
1, 46743, Tempo, 1058388
1, 46768, Tempo, 1064018
1, 46793, Tempo, 1069709
1, 46800, Time_signature, 3, 2, 24, 8
1, 46800, Tempo, 750000
1, 46800, Marker_t, "097"
1, 51840, Tempo, 751974
1, 51865, Tempo, 754812
1, 51884, Tempo, 757671
1, 51903, Tempo, 760553
1, 51922, Tempo, 763456
1, 51947, Tempo, 766381
1, 51966, Tempo, 769329
1, 51985, Tempo, 772300
1, 52004, Tempo, 775294
1, 52029, Tempo, 778311
1, 52048, Tempo, 781352
1, 52067, Tempo, 784416
1, 52086, Tempo, 787505
1, 52105, Tempo, 790618
1, 52130, Tempo, 793756
1, 52149, Tempo, 796919
1, 52168, Tempo, 800107
1, 52187, Tempo, 803320
1, 52212, Tempo, 806560
1, 52231, Tempo, 809826
1, 52250, Tempo, 813118
1, 52269, Tempo, 816438
1, 52294, Tempo, 819784
1, 52313, Tempo, 823158
1, 52332, Tempo, 826560
1, 52351, Tempo, 829990
1, 52370, Tempo, 833449
1, 52395, Tempo, 836937
1, 52414, Tempo, 840454
1, 52433, Tempo, 844001
1, 52452, Tempo, 847577
1, 52477, Tempo, 851185
1, 52496, Tempo, 854823
1, 52515, Tempo, 858492
1, 52534, Tempo, 862193
1, 52553, Tempo, 865926
1, 52560, Tempo, 750000
1, 52560, Marker_t, "113"
1, 68040, Tempo, 751974
1, 68065, Tempo, 754812
1, 68084, Tempo, 757671
1, 68103, Tempo, 760553
1, 68122, Tempo, 763456
1, 68147, Tempo, 766381
1, 68166, Tempo, 769329
1, 68185, Tempo, 772300
1, 68204, Tempo, 775294
1, 68229, Tempo, 778311
1, 68248, Tempo, 781352
1, 68267, Tempo, 784416
1, 68286, Tempo, 787505
1, 68305, Tempo, 790618
1, 68330, Tempo, 793756
1, 68349, Tempo, 796919
1, 68368, Tempo, 800107
1, 68387, Tempo, 803320
1, 68412, Tempo, 806560
1, 68431, Tempo, 809826
1, 68450, Tempo, 813118
1, 68469, Tempo, 816438
1, 68494, Tempo, 819784
1, 68513, Tempo, 823158
1, 68532, Tempo, 826560
1, 68551, Tempo, 829990
1, 68570, Tempo, 833449
1, 68595, Tempo, 836937
1, 68614, Tempo, 840454
1, 68633, Tempo, 844001
1, 68652, Tempo, 847577
1, 68677, Tempo, 851185
1, 68696, Tempo, 854823
1, 68715, Tempo, 858492
1, 68734, Tempo, 862193
1, 68753, Tempo, 865926
1, 68760, Tempo, 869565
1, 69120, Time_signature, 6, 2, 24, 8
1, 69120, Key_signature, 2, "major"
1, 69120, Tempo, 833333
1, 69120, Marker_t, "159"
1, 72720, Tempo, 833449
1, 72856, Tempo, 836937
1, 72984, Tempo, 840454
1, 73112, Tempo, 844001
1, 73240, Tempo, 847577
1, 73368, Tempo, 851185
1, 73496, Tempo, 854823
1, 73624, Tempo, 858492
1, 73760, Tempo, 862193
1, 73888, Tempo, 865926
1, 74016, Tempo, 869691
1, 74144, Tempo, 873490
1, 74272, Tempo, 877321
1, 74400, Tempo, 881187
1, 74528, Tempo, 885086
1, 74656, Tempo, 889021
1, 74792, Tempo, 892990
1, 74920, Tempo, 896995
1, 75048, Tempo, 901036
1, 75176, Tempo, 905114
1, 75304, Tempo, 909229
1, 75432, Tempo, 913381
1, 75560, Tempo, 917571
1, 75688, Tempo, 921801
1, 75824, Tempo, 926069
1, 75952, Tempo, 930377
1, 76080, Tempo, 934725
1, 76208, Tempo, 939114
1, 76336, Tempo, 943545
1, 76464, Tempo, 948017
1, 76592, Tempo, 952532
1, 76720, Tempo, 957090
1, 76856, Tempo, 961693
1, 76984, Tempo, 966339
1, 77112, Tempo, 971031
1, 77240, Tempo, 975768
1, 77368, Tempo, 980552
1, 77496, Tempo, 985383
1, 77624, Tempo, 990262
1, 77752, Tempo, 995190
1, 77760, Tempo, 1000000
1, 77760, End_track
2, 0, Start_track
2, 0, Title_t, "R Treble"
2, 0, Program_c, 0, 0
2, 0, Control_c, 0, 7, 115
2, 0, Control_c, 0, 10, 95
2, 0, Note_on_c, 0, 74, 65
2, 60, Note_on_c, 0, 71, 55
2, 60, Note_on_c, 0, 67, 55
2, 120, Note_on_c, 0, 67, 0
2, 120, Note_on_c, 0, 71, 0
2, 120, Note_on_c, 0, 66, 55
2, 180, Note_on_c, 0, 66, 0
2, 360, Note_on_c, 0, 74, 0
2, 360, Note_on_c, 0, 75, 65
2, 420, Note_on_c, 0, 71, 55
2, 420, Note_on_c, 0, 68, 55
2, 480, Note_on_c, 0, 68, 0
2, 480, Note_on_c, 0, 71, 0
2, 480, Note_on_c, 0, 66, 55
2, 540, Note_on_c, 0, 66, 0
2, 720, Note_on_c, 0, 75, 0
2, 720, Note_on_c, 0, 78, 65
2, 780, Note_on_c, 0, 71, 55
2, 780, Note_on_c, 0, 68, 55
2, 840, Note_on_c, 0, 68, 0
2, 840, Note_on_c, 0, 71, 0
2, 840, Note_on_c, 0, 66, 55
2, 900, Note_on_c, 0, 66, 0
2, 960, Note_on_c, 0, 78, 0
2, 960, Note_on_c, 0, 75, 65
2, 1080, Note_on_c, 0, 75, 0
2, 1080, Note_on_c, 0, 73, 65
2, 1140, Note_on_c, 0, 70, 55
2, 1140, Note_on_c, 0, 66, 55
2, 1200, Note_on_c, 0, 66, 0
2, 1200, Note_on_c, 0, 70, 0
2, 1200, Note_on_c, 0, 63, 55
2, 1260, Note_on_c, 0, 63, 0
2, 1320, Note_on_c, 0, 73, 0
2, 1320, Note_on_c, 0, 71, 65
2, 1440, Note_on_c, 0, 71, 0
2, 1440, Note_on_c, 0, 68, 65
2, 1500, Note_on_c, 0, 66, 55
2, 1500, Note_on_c, 0, 63, 55
2, 1560, Note_on_c, 0, 63, 0
2, 1560, Note_on_c, 0, 66, 0
2, 1560, Note_on_c, 0, 59, 55
2, 1620, Note_on_c, 0, 59, 0
2, 1800, Note_on_c, 0, 68, 0
2, 1800, Note_on_c, 0, 70, 65
2, 1860, Note_on_c, 0, 66, 55
2, 1860, Note_on_c, 0, 63, 55
2, 1920, Note_on_c, 0, 63, 0
2, 1920, Note_on_c, 0, 66, 0
2, 1920, Note_on_c, 0, 59, 55
2, 1980, Note_on_c, 0, 59, 0
2, 2160, Note_on_c, 0, 70, 0
2, 2160, Note_on_c, 0, 73, 65
2, 2220, Note_on_c, 0, 68, 55
2, 2220, Note_on_c, 0, 65, 55
2, 2280, Note_on_c, 0, 65, 0
2, 2280, Note_on_c, 0, 68, 0
2, 2280, Note_on_c, 0, 59, 55
2, 2340, Note_on_c, 0, 59, 0
2, 2400, Note_on_c, 0, 73, 0
2, 2400, Note_on_c, 0, 68, 65
2, 2520, Note_on_c, 0, 68, 0
2, 2520, Note_on_c, 0, 70, 65
2, 2580, Note_on_c, 0, 66, 55
2, 2580, Note_on_c, 0, 63, 55
2, 2640, Note_on_c, 0, 63, 0
2, 2640, Note_on_c, 0, 66, 0
2, 2640, Note_on_c, 0, 61, 55
2, 2700, Note_on_c, 0, 61, 0
2, 2760, Note_on_c, 0, 70, 0
2, 2760, Note_on_c, 0, 66, 65
2, 2880, Note_on_c, 0, 66, 0
2, 2880, Note_on_c, 0, 68, 65
2, 2940, Note_on_c, 0, 66, 55
2, 2940, Note_on_c, 0, 63, 55
2, 3000, Note_on_c, 0, 63, 0
2, 3000, Note_on_c, 0, 66, 0
2, 3000, Note_on_c, 0, 59, 55
2, 3060, Note_on_c, 0, 59, 0
2, 3240, Note_on_c, 0, 68, 0
2, 3240, Note_on_c, 0, 69, 65
2, 3300, Note_on_c, 0, 63, 56
2, 3300, Note_on_c, 0, 66, 56
2, 3360, Note_on_c, 0, 66, 0
2, 3360, Note_on_c, 0, 63, 0
2, 3360, Note_on_c, 0, 59, 58
2, 3420, Note_on_c, 0, 59, 0
2, 3600, Note_on_c, 0, 69, 0
2, 3600, Note_on_c, 0, 71, 75
2, 3660, Note_on_c, 0, 62, 67
2, 3660, Note_on_c, 0, 65, 67
2, 3720, Note_on_c, 0, 65, 0
2, 3720, Note_on_c, 0, 62, 0
2, 3720, Note_on_c, 0, 59, 69
2, 3780, Note_on_c, 0, 59, 0
2, 3840, Note_on_c, 0, 71, 0
2, 3840, Note_on_c, 0, 65, 82
2, 3960, Note_on_c, 0, 65, 0
2, 3960, Note_on_c, 0, 64, 85
2, 4020, Note_on_c, 0, 54, 75
2, 4020, Note_on_c, 0, 61, 75
2, 4080, Note_on_c, 0, 61, 0
2, 4080, Note_on_c, 0, 54, 0
2, 4080, Note_on_c, 0, 52, 74
2, 4140, Note_on_c, 0, 52, 0
2, 4320, Note_on_c, 0, 64, 0
2, 4320, Note_on_c, 0, 63, 80
2, 4380, Note_on_c, 0, 56, 69
2, 4380, Note_on_c, 0, 59, 69
2, 4440, Note_on_c, 0, 59, 0
2, 4440, Note_on_c, 0, 56, 0
2, 4440, Note_on_c, 0, 54, 68
2, 4500, Note_on_c, 0, 54, 0
2, 4680, Note_on_c, 0, 63, 0
2, 4680, Note_on_c, 0, 62, 75
2, 4740, Note_on_c, 0, 55, 64
2, 4740, Note_on_c, 0, 59, 64
2, 4800, Note_on_c, 0, 59, 0
2, 4800, Note_on_c, 0, 55, 0
2, 4800, Note_on_c, 0, 54, 63
2, 4860, Note_on_c, 0, 54, 0
2, 5040, Note_on_c, 0, 62, 0
2, 5760, Note_on_c, 0, 74, 65
2, 5820, Note_on_c, 0, 71, 55
2, 5820, Note_on_c, 0, 67, 55
2, 5880, Note_on_c, 0, 67, 0
2, 5880, Note_on_c, 0, 71, 0
2, 5880, Note_on_c, 0, 66, 55
2, 5940, Note_on_c, 0, 66, 0
2, 6120, Note_on_c, 0, 74, 0
2, 6120, Note_on_c, 0, 75, 65
2, 6180, Note_on_c, 0, 71, 55
2, 6180, Note_on_c, 0, 68, 55
2, 6240, Note_on_c, 0, 68, 0
2, 6240, Note_on_c, 0, 71, 0
2, 6240, Note_on_c, 0, 66, 55
2, 6300, Note_on_c, 0, 66, 0
2, 6480, Note_on_c, 0, 75, 0
2, 6480, Note_on_c, 0, 78, 65
2, 6540, Note_on_c, 0, 71, 55
2, 6540, Note_on_c, 0, 68, 55
2, 6600, Note_on_c, 0, 68, 0
2, 6600, Note_on_c, 0, 71, 0
2, 6600, Note_on_c, 0, 66, 55
2, 6660, Note_on_c, 0, 66, 0
2, 6720, Note_on_c, 0, 78, 0
2, 6720, Note_on_c, 0, 75, 65
2, 6840, Note_on_c, 0, 75, 0
2, 6840, Note_on_c, 0, 73, 65
2, 6900, Note_on_c, 0, 70, 55
2, 6900, Note_on_c, 0, 66, 55
2, 6960, Note_on_c, 0, 66, 0
2, 6960, Note_on_c, 0, 70, 0
2, 6960, Note_on_c, 0, 63, 55
2, 7020, Note_on_c, 0, 63, 0
2, 7080, Note_on_c, 0, 73, 0
2, 7080, Note_on_c, 0, 71, 65
2, 7200, Note_on_c, 0, 71, 0
2, 7200, Note_on_c, 0, 68, 65
2, 7260, Note_on_c, 0, 66, 55
2, 7260, Note_on_c, 0, 63, 55
2, 7320, Note_on_c, 0, 63, 0
2, 7320, Note_on_c, 0, 66, 0
2, 7320, Note_on_c, 0, 59, 55
2, 7380, Note_on_c, 0, 59, 0
2, 7560, Note_on_c, 0, 68, 0
2, 7560, Note_on_c, 0, 70, 65
2, 7620, Note_on_c, 0, 66, 55
2, 7620, Note_on_c, 0, 63, 55
2, 7680, Note_on_c, 0, 63, 0
2, 7680, Note_on_c, 0, 66, 0
2, 7680, Note_on_c, 0, 59, 55
2, 7740, Note_on_c, 0, 59, 0
2, 7920, Note_on_c, 0, 70, 0
2, 7920, Note_on_c, 0, 73, 65
2, 7980, Note_on_c, 0, 68, 55
2, 7980, Note_on_c, 0, 65, 55
2, 8040, Note_on_c, 0, 65, 0
2, 8040, Note_on_c, 0, 68, 0
2, 8040, Note_on_c, 0, 59, 55
2, 8100, Note_on_c, 0, 59, 0
2, 8160, Note_on_c, 0, 73, 0
2, 8160, Note_on_c, 0, 68, 65
2, 8280, Note_on_c, 0, 68, 0
2, 8280, Note_on_c, 0, 70, 65
2, 8340, Note_on_c, 0, 66, 55
2, 8340, Note_on_c, 0, 63, 55
2, 8400, Note_on_c, 0, 63, 0
2, 8400, Note_on_c, 0, 66, 0
2, 8400, Note_on_c, 0, 61, 55
2, 8460, Note_on_c, 0, 61, 0
2, 8520, Note_on_c, 0, 70, 0
2, 8520, Note_on_c, 0, 66, 65
2, 8640, Note_on_c, 0, 66, 0
2, 8640, Note_on_c, 0, 68, 65
2, 8700, Note_on_c, 0, 66, 55
2, 8700, Note_on_c, 0, 63, 55
2, 8760, Note_on_c, 0, 63, 0
2, 8760, Note_on_c, 0, 66, 0
2, 8760, Note_on_c, 0, 59, 55
2, 8820, Note_on_c, 0, 59, 0
2, 9000, Note_on_c, 0, 68, 0
2, 9000, Note_on_c, 0, 69, 65
2, 9060, Note_on_c, 0, 63, 56
2, 9060, Note_on_c, 0, 66, 56
2, 9120, Note_on_c, 0, 66, 0
2, 9120, Note_on_c, 0, 63, 0
2, 9120, Note_on_c, 0, 59, 58
2, 9180, Note_on_c, 0, 59, 0
2, 9360, Note_on_c, 0, 69, 0
2, 9360, Note_on_c, 0, 71, 75
2, 9420, Note_on_c, 0, 62, 67
2, 9420, Note_on_c, 0, 65, 67
2, 9480, Note_on_c, 0, 65, 0
2, 9480, Note_on_c, 0, 62, 0
2, 9480, Note_on_c, 0, 59, 69
2, 9540, Note_on_c, 0, 59, 0
2, 9600, Note_on_c, 0, 71, 0
2, 9600, Note_on_c, 0, 65, 82
2, 9720, Note_on_c, 0, 65, 0
2, 9720, Note_on_c, 0, 64, 85
2, 9780, Note_on_c, 0, 54, 75
2, 9780, Note_on_c, 0, 61, 75
2, 9840, Note_on_c, 0, 61, 0
2, 9840, Note_on_c, 0, 54, 0
2, 9840, Note_on_c, 0, 52, 74
2, 9900, Note_on_c, 0, 52, 0
2, 10080, Note_on_c, 0, 64, 0
2, 10080, Note_on_c, 0, 63, 80
2, 10140, Note_on_c, 0, 56, 69
2, 10140, Note_on_c, 0, 59, 69
2, 10200, Note_on_c, 0, 59, 0
2, 10200, Note_on_c, 0, 56, 0
2, 10200, Note_on_c, 0, 54, 68
2, 10260, Note_on_c, 0, 54, 0
2, 10440, Note_on_c, 0, 63, 0
2, 10440, Note_on_c, 0, 62, 75
2, 10500, Note_on_c, 0, 55, 64
2, 10500, Note_on_c, 0, 59, 64
2, 10560, Note_on_c, 0, 59, 0
2, 10560, Note_on_c, 0, 55, 0
2, 10560, Note_on_c, 0, 54, 63
2, 10620, Note_on_c, 0, 54, 0
2, 10800, Note_on_c, 0, 62, 0
2, 11520, Note_on_c, 0, 74, 65
2, 11580, Note_on_c, 0, 71, 55
2, 11580, Note_on_c, 0, 67, 55
2, 11640, Note_on_c, 0, 67, 0
2, 11640, Note_on_c, 0, 71, 0
2, 11640, Note_on_c, 0, 66, 55
2, 11700, Note_on_c, 0, 66, 0
2, 11760, Note_on_c, 0, 74, 0
2, 11760, Note_on_c, 0, 73, 65
2, 11880, Note_on_c, 0, 73, 0
2, 11880, Note_on_c, 0, 73, 65
2, 11940, Note_on_c, 0, 71, 55
2, 11940, Note_on_c, 0, 67, 55
2, 12000, Note_on_c, 0, 67, 0
2, 12000, Note_on_c, 0, 71, 0
2, 12000, Note_on_c, 0, 64, 55
2, 12060, Note_on_c, 0, 64, 0
2, 12120, Note_on_c, 0, 73, 0
2, 12120, Note_on_c, 0, 71, 65
2, 12240, Note_on_c, 0, 71, 0
2, 12240, Note_on_c, 0, 78, 65
2, 12300, Note_on_c, 0, 71, 55
2, 12300, Note_on_c, 0, 74, 55
2, 12360, Note_on_c, 0, 74, 0
2, 12360, Note_on_c, 0, 71, 0
2, 12360, Note_on_c, 0, 78, 0
2, 12360, Note_on_c, 0, 67, 55
2, 12360, Note_on_c, 0, 76, 65
2, 12420, Note_on_c, 0, 67, 0
2, 12480, Note_on_c, 0, 76, 0
2, 12480, Note_on_c, 0, 74, 65
2, 12600, Note_on_c, 0, 74, 0
2, 12600, Note_on_c, 0, 73, 65
2, 12660, Note_on_c, 0, 71, 55
2, 12660, Note_on_c, 0, 67, 55
2, 12720, Note_on_c, 0, 67, 0
2, 12720, Note_on_c, 0, 71, 0
2, 12720, Note_on_c, 0, 64, 55
2, 12780, Note_on_c, 0, 64, 0
2, 12840, Note_on_c, 0, 73, 0
2, 12840, Note_on_c, 0, 71, 65
2, 12960, Note_on_c, 0, 71, 0
2, 12960, Note_on_c, 0, 83, 65
2, 13020, Note_on_c, 0, 79, 56
2, 13020, Note_on_c, 0, 76, 56
2, 13080, Note_on_c, 0, 76, 0
2, 13080, Note_on_c, 0, 79, 0
2, 13080, Note_on_c, 0, 83, 0
2, 13080, Note_on_c, 0, 73, 58
2, 13080, Note_on_c, 0, 81, 68
2, 13140, Note_on_c, 0, 73, 0
2, 13200, Note_on_c, 0, 81, 0
2, 13200, Note_on_c, 0, 79, 72
2, 13320, Note_on_c, 0, 79, 0
2, 13320, Note_on_c, 0, 78, 75
2, 13380, Note_on_c, 0, 73, 67
2, 13380, Note_on_c, 0, 69, 67
2, 13440, Note_on_c, 0, 69, 0
2, 13440, Note_on_c, 0, 73, 0
2, 13440, Note_on_c, 0, 67, 69
2, 13500, Note_on_c, 0, 67, 0
2, 13560, Note_on_c, 0, 78, 0
2, 13560, Note_on_c, 0, 76, 82
2, 13740, Note_on_c, 0, 73, 75
2, 13740, Note_on_c, 0, 69, 75
2, 13800, Note_on_c, 0, 69, 0
2, 13800, Note_on_c, 0, 73, 0
2, 13800, Note_on_c, 0, 76, 0
2, 13800, Note_on_c, 0, 66, 75
2, 13800, Note_on_c, 0, 74, 75
2, 13860, Note_on_c, 0, 74, 0
2, 13860, Note_on_c, 0, 66, 0
2, 13920, Note_on_c, 0, 73, 85
2, 14040, Note_on_c, 0, 73, 0
2, 14040, Note_on_c, 0, 73, 85
2, 14100, Note_on_c, 0, 66, 75
2, 14100, Note_on_c, 0, 67, 75
2, 14160, Note_on_c, 0, 67, 0
2, 14160, Note_on_c, 0, 66, 0
2, 14160, Note_on_c, 0, 62, 75
2, 14220, Note_on_c, 0, 62, 0
2, 14280, Note_on_c, 0, 73, 0
2, 14280, Note_on_c, 0, 71, 85
2, 14460, Note_on_c, 0, 67, 75
2, 14460, Note_on_c, 0, 64, 75
2, 14520, Note_on_c, 0, 64, 0
2, 14520, Note_on_c, 0, 67, 0
2, 14520, Note_on_c, 0, 71, 0
2, 14520, Note_on_c, 0, 61, 75
2, 14520, Note_on_c, 0, 69, 85
2, 14580, Note_on_c, 0, 61, 0
2, 14640, Note_on_c, 0, 69, 0
2, 14640, Note_on_c, 0, 67, 85
2, 14760, Note_on_c, 0, 67, 0
2, 14760, Note_on_c, 0, 67, 85
2, 14820, Note_on_c, 0, 64, 75
2, 14820, Note_on_c, 0, 61, 75
2, 14880, Note_on_c, 0, 61, 0
2, 14880, Note_on_c, 0, 64, 0
2, 14880, Note_on_c, 0, 58, 75
2, 14940, Note_on_c, 0, 58, 0
2, 15000, Note_on_c, 0, 67, 0
2, 15000, Note_on_c, 0, 66, 85
2, 15120, Note_on_c, 0, 66, 0
2, 15120, Note_on_c, 0, 69, 85
2, 15180, Note_on_c, 0, 66, 75
2, 15180, Note_on_c, 0, 63, 75
2, 15240, Note_on_c, 0, 63, 0
2, 15240, Note_on_c, 0, 66, 0
2, 15240, Note_on_c, 0, 60, 76
2, 15300, Note_on_c, 0, 60, 0
2, 15360, Note_on_c, 0, 69, 0
2, 15360, Note_on_c, 0, 70, 88
2, 15480, Note_on_c, 0, 70, 0
2, 15480, Note_on_c, 0, 72, 90
2, 15540, Note_on_c, 0, 70, 81
2, 15540, Note_on_c, 0, 66, 81
2, 15600, Note_on_c, 0, 66, 0
2, 15600, Note_on_c, 0, 70, 0
2, 15600, Note_on_c, 0, 63, 82
2, 15660, Note_on_c, 0, 63, 0
2, 15720, Note_on_c, 0, 72, 0
2, 15720, Note_on_c, 0, 73, 93
2, 15840, Note_on_c, 0, 73, 0
2, 15840, Note_on_c, 0, 78, 95
2, 15900, Note_on_c, 0, 71, 86
2, 15900, Note_on_c, 0, 68, 86
2, 15960, Note_on_c, 0, 68, 0
2, 15960, Note_on_c, 0, 71, 0
2, 15960, Note_on_c, 0, 66, 87
2, 16020, Note_on_c, 0, 66, 0
2, 16080, Note_on_c, 0, 78, 0
2, 16080, Note_on_c, 0, 75, 99
2, 16200, Note_on_c, 0, 75, 0
2, 16200, Note_on_c, 0, 73, 100
2, 16260, Note_on_c, 0, 70, 91
2, 16260, Note_on_c, 0, 66, 91
2, 16320, Note_on_c, 0, 66, 0
2, 16320, Note_on_c, 0, 70, 0
2, 16320, Note_on_c, 0, 63, 92
2, 16380, Note_on_c, 0, 63, 0
2, 16440, Note_on_c, 0, 73, 0
2, 16440, Note_on_c, 0, 71, 104
2, 16560, Note_on_c, 0, 71, 0
2, 16560, Note_on_c, 0, 68, 105
2, 16620, Note_on_c, 0, 66, 95
2, 16620, Note_on_c, 0, 63, 95
2, 16680, Note_on_c, 0, 63, 0
2, 16680, Note_on_c, 0, 66, 0
2, 16680, Note_on_c, 0, 59, 95
2, 16740, Note_on_c, 0, 59, 0
2, 16920, Note_on_c, 0, 68, 0
2, 16920, Note_on_c, 0, 70, 105
2, 16980, Note_on_c, 0, 66, 95
2, 16980, Note_on_c, 0, 63, 95
2, 17040, Note_on_c, 0, 63, 0
2, 17040, Note_on_c, 0, 66, 0
2, 17040, Note_on_c, 0, 59, 95
2, 17100, Note_on_c, 0, 59, 0
2, 17280, Note_on_c, 0, 70, 0
2, 17280, Note_on_c, 0, 73, 105
2, 17340, Note_on_c, 0, 68, 95
2, 17340, Note_on_c, 0, 65, 95
2, 17400, Note_on_c, 0, 65, 0
2, 17400, Note_on_c, 0, 68, 0
2, 17400, Note_on_c, 0, 59, 95
2, 17460, Note_on_c, 0, 59, 0
2, 17520, Note_on_c, 0, 73, 0
2, 17520, Note_on_c, 0, 68, 105
2, 17640, Note_on_c, 0, 68, 0
2, 17640, Note_on_c, 0, 70, 105
2, 17700, Note_on_c, 0, 66, 95
2, 17700, Note_on_c, 0, 63, 95
2, 17760, Note_on_c, 0, 63, 0
2, 17760, Note_on_c, 0, 66, 0
2, 17760, Note_on_c, 0, 61, 95
2, 17820, Note_on_c, 0, 61, 0
2, 17880, Note_on_c, 0, 70, 0
2, 17880, Note_on_c, 0, 66, 105
2, 18000, Note_on_c, 0, 66, 0
2, 18000, Note_on_c, 0, 68, 105
2, 18060, Note_on_c, 0, 66, 95
2, 18060, Note_on_c, 0, 63, 95
2, 18120, Note_on_c, 0, 63, 0
2, 18120, Note_on_c, 0, 66, 0
2, 18120, Note_on_c, 0, 59, 95
2, 18180, Note_on_c, 0, 59, 0
2, 18240, Note_on_c, 0, 68, 0
2, 18240, Note_on_c, 0, 69, 105
2, 18360, Note_on_c, 0, 69, 0
2, 18360, Note_on_c, 0, 68, 105
2, 18420, Note_on_c, 0, 66, 95
2, 18420, Note_on_c, 0, 63, 95
2, 18480, Note_on_c, 0, 63, 0
2, 18480, Note_on_c, 0, 66, 0
2, 18480, Note_on_c, 0, 59, 95
2, 18540, Note_on_c, 0, 59, 0
2, 18600, Note_on_c, 0, 68, 0
2, 18600, Note_on_c, 0, 69, 105
2, 18720, Note_on_c, 0, 69, 0
2, 18720, Note_on_c, 0, 71, 105
2, 18780, Note_on_c, 0, 63, 95
2, 18780, Note_on_c, 0, 66, 95
2, 18840, Note_on_c, 0, 66, 0
2, 18840, Note_on_c, 0, 63, 0
2, 18840, Note_on_c, 0, 59, 95
2, 18900, Note_on_c, 0, 59, 0
2, 18960, Note_on_c, 0, 71, 0
2, 18960, Note_on_c, 0, 66, 105
2, 19080, Note_on_c, 0, 66, 0
2, 19080, Note_on_c, 0, 69, 105
2, 19140, Note_on_c, 0, 61, 95
2, 19140, Note_on_c, 0, 64, 95
2, 19200, Note_on_c, 0, 64, 0
2, 19200, Note_on_c, 0, 61, 0
2, 19200, Note_on_c, 0, 59, 95
2, 19260, Note_on_c, 0, 59, 0
2, 19320, Note_on_c, 0, 69, 0
2, 19320, Note_on_c, 0, 68, 105
2, 19440, Note_on_c, 0, 68, 0
2, 19440, Note_on_c, 0, 71, 105
2, 19500, Note_on_c, 0, 63, 95
2, 19500, Note_on_c, 0, 68, 95
2, 19560, Note_on_c, 0, 68, 0
2, 19560, Note_on_c, 0, 63, 0
2, 19560, Note_on_c, 0, 61, 95
2, 19620, Note_on_c, 0, 61, 0
2, 19680, Note_on_c, 0, 71, 0
2, 19680, Note_on_c, 0, 68, 105
2, 19800, Note_on_c, 0, 68, 0
2, 19800, Note_on_c, 0, 75, 105
2, 19860, Note_on_c, 0, 66, 95
2, 19860, Note_on_c, 0, 70, 95
2, 19920, Note_on_c, 0, 70, 0
2, 19920, Note_on_c, 0, 66, 0
2, 19920, Note_on_c, 0, 64, 95
2, 19980, Note_on_c, 0, 64, 0
2, 20040, Note_on_c, 0, 75, 0
2, 20040, Note_on_c, 0, 73, 105
2, 20160, Note_on_c, 0, 73, 0
2, 20160, Note_on_c, 0, 80, 105
2, 20220, Note_on_c, 0, 71, 95
2, 20220, Note_on_c, 0, 75, 95
2, 20280, Note_on_c, 0, 75, 0
2, 20280, Note_on_c, 0, 71, 0
2, 20280, Note_on_c, 0, 69, 95
2, 20340, Note_on_c, 0, 69, 0
2, 20400, Note_on_c, 0, 80, 0
2, 20400, Note_on_c, 0, 78, 105
2, 20520, Note_on_c, 0, 78, 0
2, 20520, Note_on_c, 0, 76, 105
2, 20580, Note_on_c, 0, 71, 93
2, 20580, Note_on_c, 0, 68, 93
2, 20640, Note_on_c, 0, 68, 0
2, 20640, Note_on_c, 0, 71, 0
2, 20640, Note_on_c, 0, 64, 91
2, 20700, Note_on_c, 0, 64, 0
2, 20760, Note_on_c, 0, 76, 0
2, 20760, Note_on_c, 0, 73, 96
2, 20880, Note_on_c, 0, 73, 0
2, 20880, Note_on_c, 0, 71, 92
2, 20940, Note_on_c, 0, 67, 79
2, 20940, Note_on_c, 0, 64, 79
2, 21000, Note_on_c, 0, 64, 0
2, 21000, Note_on_c, 0, 67, 0
2, 21000, Note_on_c, 0, 61, 77
2, 21060, Note_on_c, 0, 61, 0
2, 21240, Note_on_c, 0, 71, 0
2, 21240, Note_on_c, 0, 69, 78
2, 21300, Note_on_c, 0, 64, 66
2, 21300, Note_on_c, 0, 61, 66
2, 21360, Note_on_c, 0, 61, 0
2, 21360, Note_on_c, 0, 64, 0
2, 21360, Note_on_c, 0, 59, 63
2, 21420, Note_on_c, 0, 59, 0
2, 21480, Note_on_c, 0, 69, 0
2, 21480, Note_on_c, 0, 67, 69
2, 21600, Note_on_c, 0, 67, 0
2, 21600, Note_on_c, 0, 66, 65
2, 21660, Note_on_c, 0, 63, 55
2, 21660, Note_on_c, 0, 59, 55
2, 21720, Note_on_c, 0, 59, 0
2, 21720, Note_on_c, 0, 63, 0
2, 21720, Note_on_c, 0, 54, 55
2, 21780, Note_on_c, 0, 54, 0
2, 22200, Note_on_c, 0, 66, 0
2, 22200, Note_on_c, 0, 59, 65
2, 22320, Note_on_c, 0, 59, 0
2, 22320, Note_on_c, 0, 59, 55
2, 22360, Note_on_c, 0, 66, 35
2, 22400, Note_on_c, 0, 66, 0
2, 22400, Note_on_c, 0, 54, 35
2, 22440, Note_on_c, 0, 54, 0
2, 22440, Note_on_c, 0, 59, 35
2, 22480, Note_on_c, 0, 59, 0
2, 22480, Note_on_c, 0, 66, 35
2, 22520, Note_on_c, 0, 66, 0
2, 22520, Note_on_c, 0, 54, 35
2, 22560, Note_on_c, 0, 54, 0
2, 22560, Note_on_c, 0, 59, 0
2, 22560, Note_on_c, 0, 58, 55
2, 22600, Note_on_c, 0, 66, 35
2, 22640, Note_on_c, 0, 66, 0
2, 22640, Note_on_c, 0, 54, 35
2, 22680, Note_on_c, 0, 54, 0
2, 22680, Note_on_c, 0, 58, 0
2, 22680, Note_on_c, 0, 63, 55
2, 22720, Note_on_c, 0, 66, 35
2, 22760, Note_on_c, 0, 66, 0
2, 22760, Note_on_c, 0, 54, 35
2, 22800, Note_on_c, 0, 54, 0
2, 22800, Note_on_c, 0, 63, 35
2, 22840, Note_on_c, 0, 63, 0
2, 22840, Note_on_c, 0, 66, 35
2, 22880, Note_on_c, 0, 66, 0
2, 22880, Note_on_c, 0, 54, 35
2, 22920, Note_on_c, 0, 54, 0
2, 22920, Note_on_c, 0, 63, 0
2, 22920, Note_on_c, 0, 61, 55
2, 22960, Note_on_c, 0, 66, 35
2, 23000, Note_on_c, 0, 66, 0
2, 23000, Note_on_c, 0, 54, 35
2, 23040, Note_on_c, 0, 54, 0
2, 23040, Note_on_c, 0, 61, 0
2, 23040, Note_on_c, 0, 59, 55
2, 23080, Note_on_c, 0, 66, 35
2, 23120, Note_on_c, 0, 66, 0
2, 23120, Note_on_c, 0, 54, 35
2, 23160, Note_on_c, 0, 54, 0
2, 23160, Note_on_c, 0, 59, 35
2, 23200, Note_on_c, 0, 59, 0
2, 23200, Note_on_c, 0, 66, 35
2, 23240, Note_on_c, 0, 66, 0
2, 23240, Note_on_c, 0, 54, 35
2, 23280, Note_on_c, 0, 54, 0
2, 23280, Note_on_c, 0, 59, 0
2, 23280, Note_on_c, 0, 58, 55
2, 23320, Note_on_c, 0, 66, 55
2, 23360, Note_on_c, 0, 66, 0
2, 23360, Note_on_c, 0, 54, 35
2, 23400, Note_on_c, 0, 54, 0
2, 23400, Note_on_c, 0, 58, 0
2, 23400, Note_on_c, 0, 56, 55
2, 23440, Note_on_c, 0, 66, 35
2, 23480, Note_on_c, 0, 66, 0
2, 23480, Note_on_c, 0, 54, 35
2, 23520, Note_on_c, 0, 54, 0
2, 23520, Note_on_c, 0, 56, 35
2, 23560, Note_on_c, 0, 56, 0
2, 23560, Note_on_c, 0, 66, 35
2, 23600, Note_on_c, 0, 66, 0
2, 23600, Note_on_c, 0, 54, 35
2, 23640, Note_on_c, 0, 54, 0
2, 23640, Note_on_c, 0, 56, 0
2, 23640, Note_on_c, 0, 57, 55
2, 23680, Note_on_c, 0, 65, 35
2, 23720, Note_on_c, 0, 65, 0
2, 23720, Note_on_c, 0, 53, 35
2, 23760, Note_on_c, 0, 53, 0
2, 23760, Note_on_c, 0, 57, 0
2, 23760, Note_on_c, 0, 58, 55
2, 23800, Note_on_c, 0, 65, 35
2, 23840, Note_on_c, 0, 65, 0
2, 23840, Note_on_c, 0, 53, 35
2, 23880, Note_on_c, 0, 53, 0
2, 23880, Note_on_c, 0, 58, 35
2, 23920, Note_on_c, 0, 58, 0
2, 23920, Note_on_c, 0, 65, 35
2, 23960, Note_on_c, 0, 65, 0
2, 23960, Note_on_c, 0, 53, 35
2, 24000, Note_on_c, 0, 53, 0
2, 24000, Note_on_c, 0, 58, 0
2, 24000, Note_on_c, 0, 53, 55
2, 24040, Note_on_c, 0, 65, 55
2, 24080, Note_on_c, 0, 65, 0
2, 24080, Note_on_c, 0, 53, 35
2, 24120, Note_on_c, 0, 53, 0
2, 24120, Note_on_c, 0, 53, 0
2, 24120, Note_on_c, 0, 58, 55
2, 24160, Note_on_c, 0, 65, 35
2, 24200, Note_on_c, 0, 65, 0
2, 24200, Note_on_c, 0, 53, 35
2, 24240, Note_on_c, 0, 53, 0
2, 24240, Note_on_c, 0, 58, 35
2, 24280, Note_on_c, 0, 58, 0
2, 24280, Note_on_c, 0, 65, 35
2, 24320, Note_on_c, 0, 65, 0
2, 24320, Note_on_c, 0, 53, 35
2, 24360, Note_on_c, 0, 53, 0
2, 24360, Note_on_c, 0, 58, 0
2, 24360, Note_on_c, 0, 53, 55
2, 24400, Note_on_c, 0, 65, 35
2, 24440, Note_on_c, 0, 65, 0
2, 24440, Note_on_c, 0, 53, 35
2, 24480, Note_on_c, 0, 53, 0
2, 24480, Note_on_c, 0, 53, 0
2, 24480, Note_on_c, 0, 58, 55
2, 24520, Note_on_c, 0, 65, 55
2, 24560, Note_on_c, 0, 65, 0
2, 24560, Note_on_c, 0, 53, 35
2, 24600, Note_on_c, 0, 53, 0
2, 24600, Note_on_c, 0, 58, 35
2, 24640, Note_on_c, 0, 58, 0
2, 24640, Note_on_c, 0, 65, 35
2, 24680, Note_on_c, 0, 65, 0
2, 24680, Note_on_c, 0, 53, 35
2, 24720, Note_on_c, 0, 53, 0
2, 24720, Note_on_c, 0, 58, 35
2, 24760, Note_on_c, 0, 58, 0
2, 24760, Note_on_c, 0, 65, 35
2, 24800, Note_on_c, 0, 65, 0
2, 24800, Note_on_c, 0, 53, 35
2, 24840, Note_on_c, 0, 53, 0
2, 24840, Note_on_c, 0, 58, 0
2, 24840, Note_on_c, 0, 58, 35
2, 24880, Note_on_c, 0, 58, 0
2, 24880, Note_on_c, 0, 65, 35
2, 24920, Note_on_c, 0, 65, 0
2, 24920, Note_on_c, 0, 53, 35
2, 24960, Note_on_c, 0, 53, 0
2, 24960, Note_on_c, 0, 58, 35
2, 25000, Note_on_c, 0, 58, 0
2, 25000, Note_on_c, 0, 65, 35
2, 25040, Note_on_c, 0, 65, 0
2, 25040, Note_on_c, 0, 53, 35
2, 25080, Note_on_c, 0, 53, 0
2, 25080, Note_on_c, 0, 58, 55
2, 25120, Note_on_c, 0, 65, 35
2, 25160, Note_on_c, 0, 65, 0
2, 25160, Note_on_c, 0, 53, 35
2, 25200, Note_on_c, 0, 53, 0
2, 25200, Note_on_c, 0, 58, 0
2, 25200, Note_on_c, 0, 58, 55
2, 25240, Note_on_c, 0, 65, 35
2, 25280, Note_on_c, 0, 65, 0
2, 25280, Note_on_c, 0, 53, 35
2, 25320, Note_on_c, 0, 53, 0
2, 25320, Note_on_c, 0, 58, 35
2, 25360, Note_on_c, 0, 58, 0
2, 25360, Note_on_c, 0, 65, 35
2, 25400, Note_on_c, 0, 65, 0
2, 25400, Note_on_c, 0, 53, 35
2, 25440, Note_on_c, 0, 53, 0
2, 25440, Note_on_c, 0, 58, 0
2, 25440, Note_on_c, 0, 56, 55
2, 25480, Note_on_c, 0, 65, 35
2, 25520, Note_on_c, 0, 65, 0
2, 25520, Note_on_c, 0, 53, 35
2, 25560, Note_on_c, 0, 53, 0
2, 25560, Note_on_c, 0, 56, 0
2, 25560, Note_on_c, 0, 61, 55
2, 25600, Note_on_c, 0, 65, 35
2, 25640, Note_on_c, 0, 65, 0
2, 25640, Note_on_c, 0, 53, 35
2, 25680, Note_on_c, 0, 53, 0
2, 25680, Note_on_c, 0, 61, 35
2, 25720, Note_on_c, 0, 61, 0
2, 25720, Note_on_c, 0, 65, 35
2, 25760, Note_on_c, 0, 65, 0
2, 25760, Note_on_c, 0, 53, 35
2, 25800, Note_on_c, 0, 53, 0
2, 25800, Note_on_c, 0, 61, 0
2, 25800, Note_on_c, 0, 59, 55
2, 25840, Note_on_c, 0, 65, 55
2, 25880, Note_on_c, 0, 65, 0
2, 25880, Note_on_c, 0, 53, 35
2, 25920, Note_on_c, 0, 53, 0
2, 25920, Note_on_c, 0, 59, 0
2, 25920, Note_on_c, 0, 58, 55
2, 25960, Note_on_c, 0, 65, 35
2, 26000, Note_on_c, 0, 65, 0
2, 26000, Note_on_c, 0, 53, 35
2, 26040, Note_on_c, 0, 53, 0
2, 26040, Note_on_c, 0, 58, 35
2, 26080, Note_on_c, 0, 58, 0
2, 26080, Note_on_c, 0, 65, 35
2, 26120, Note_on_c, 0, 65, 0
2, 26120, Note_on_c, 0, 53, 35
2, 26160, Note_on_c, 0, 53, 0
2, 26160, Note_on_c, 0, 58, 0
2, 26160, Note_on_c, 0, 56, 55
2, 26200, Note_on_c, 0, 65, 35
2, 26240, Note_on_c, 0, 65, 0
2, 26240, Note_on_c, 0, 53, 55
2, 26280, Note_on_c, 0, 53, 0
2, 26280, Note_on_c, 0, 56, 0
2, 28080, Note_on_c, 0, 59, 55
2, 28120, Note_on_c, 0, 66, 35
2, 28160, Note_on_c, 0, 66, 0
2, 28160, Note_on_c, 0, 54, 35
2, 28200, Note_on_c, 0, 54, 0
2, 28200, Note_on_c, 0, 59, 35
2, 28240, Note_on_c, 0, 59, 0
2, 28240, Note_on_c, 0, 66, 35
2, 28280, Note_on_c, 0, 66, 0
2, 28280, Note_on_c, 0, 54, 35
2, 28320, Note_on_c, 0, 54, 0
2, 28320, Note_on_c, 0, 59, 0
2, 28320, Note_on_c, 0, 58, 55
2, 28360, Note_on_c, 0, 66, 35
2, 28400, Note_on_c, 0, 66, 0
2, 28400, Note_on_c, 0, 54, 35
2, 28440, Note_on_c, 0, 54, 0
2, 28440, Note_on_c, 0, 58, 0
2, 28440, Note_on_c, 0, 63, 55
2, 28480, Note_on_c, 0, 66, 35
2, 28520, Note_on_c, 0, 66, 0
2, 28520, Note_on_c, 0, 54, 35
2, 28560, Note_on_c, 0, 54, 0
2, 28560, Note_on_c, 0, 63, 35
2, 28600, Note_on_c, 0, 63, 0
2, 28600, Note_on_c, 0, 66, 35
2, 28640, Note_on_c, 0, 66, 0
2, 28640, Note_on_c, 0, 54, 35
2, 28680, Note_on_c, 0, 54, 0
2, 28680, Note_on_c, 0, 63, 0
2, 28680, Note_on_c, 0, 61, 55
2, 28720, Note_on_c, 0, 66, 35
2, 28760, Note_on_c, 0, 66, 0
2, 28760, Note_on_c, 0, 54, 35
2, 28800, Note_on_c, 0, 54, 0
2, 28800, Note_on_c, 0, 61, 0
2, 28800, Note_on_c, 0, 59, 55
2, 28840, Note_on_c, 0, 66, 35
2, 28880, Note_on_c, 0, 66, 0
2, 28880, Note_on_c, 0, 54, 35
2, 28920, Note_on_c, 0, 54, 0
2, 28920, Note_on_c, 0, 59, 35
2, 28960, Note_on_c, 0, 59, 0
2, 28960, Note_on_c, 0, 66, 35
2, 29000, Note_on_c, 0, 66, 0
2, 29000, Note_on_c, 0, 54, 35
2, 29040, Note_on_c, 0, 54, 0
2, 29040, Note_on_c, 0, 59, 0
2, 29040, Note_on_c, 0, 58, 55
2, 29080, Note_on_c, 0, 66, 55
2, 29120, Note_on_c, 0, 66, 0
2, 29120, Note_on_c, 0, 54, 35
2, 29160, Note_on_c, 0, 54, 0
2, 29160, Note_on_c, 0, 58, 0
2, 29160, Note_on_c, 0, 56, 55
2, 29200, Note_on_c, 0, 66, 35
2, 29240, Note_on_c, 0, 66, 0
2, 29240, Note_on_c, 0, 54, 35
2, 29280, Note_on_c, 0, 54, 0
2, 29280, Note_on_c, 0, 56, 35
2, 29320, Note_on_c, 0, 56, 0
2, 29320, Note_on_c, 0, 66, 35
2, 29360, Note_on_c, 0, 66, 0
2, 29360, Note_on_c, 0, 54, 35
2, 29400, Note_on_c, 0, 54, 0
2, 29400, Note_on_c, 0, 56, 0
2, 29400, Note_on_c, 0, 57, 55
2, 29440, Note_on_c, 0, 65, 35
2, 29480, Note_on_c, 0, 65, 0
2, 29480, Note_on_c, 0, 53, 35
2, 29520, Note_on_c, 0, 53, 0
2, 29520, Note_on_c, 0, 57, 0
2, 29520, Note_on_c, 0, 58, 55
2, 29560, Note_on_c, 0, 65, 35
2, 29600, Note_on_c, 0, 65, 0
2, 29600, Note_on_c, 0, 53, 35
2, 29640, Note_on_c, 0, 53, 0
2, 29640, Note_on_c, 0, 58, 35
2, 29680, Note_on_c, 0, 58, 0
2, 29680, Note_on_c, 0, 65, 35
2, 29720, Note_on_c, 0, 65, 0
2, 29720, Note_on_c, 0, 53, 35
2, 29760, Note_on_c, 0, 53, 0
2, 29760, Note_on_c, 0, 58, 0
2, 29760, Note_on_c, 0, 53, 55
2, 29800, Note_on_c, 0, 65, 55
2, 29840, Note_on_c, 0, 65, 0
2, 29840, Note_on_c, 0, 53, 35
2, 29880, Note_on_c, 0, 53, 0
2, 29880, Note_on_c, 0, 53, 0
2, 29880, Note_on_c, 0, 58, 55
2, 29920, Note_on_c, 0, 65, 35
2, 29960, Note_on_c, 0, 65, 0
2, 29960, Note_on_c, 0, 53, 35
2, 30000, Note_on_c, 0, 53, 0
2, 30000, Note_on_c, 0, 58, 35
2, 30040, Note_on_c, 0, 58, 0
2, 30040, Note_on_c, 0, 65, 35
2, 30080, Note_on_c, 0, 65, 0
2, 30080, Note_on_c, 0, 53, 35
2, 30120, Note_on_c, 0, 53, 0
2, 30120, Note_on_c, 0, 58, 0
2, 30120, Note_on_c, 0, 53, 55
2, 30160, Note_on_c, 0, 65, 35
2, 30200, Note_on_c, 0, 65, 0
2, 30200, Note_on_c, 0, 53, 35
2, 30240, Note_on_c, 0, 53, 0
2, 30240, Note_on_c, 0, 53, 0
2, 30240, Note_on_c, 0, 58, 55
2, 30280, Note_on_c, 0, 65, 55
2, 30320, Note_on_c, 0, 65, 0
2, 30320, Note_on_c, 0, 53, 35
2, 30360, Note_on_c, 0, 53, 0
2, 30360, Note_on_c, 0, 58, 35
2, 30400, Note_on_c, 0, 58, 0
2, 30400, Note_on_c, 0, 65, 35
2, 30440, Note_on_c, 0, 65, 0
2, 30440, Note_on_c, 0, 53, 35
2, 30480, Note_on_c, 0, 53, 0
2, 30480, Note_on_c, 0, 58, 35
2, 30520, Note_on_c, 0, 58, 0
2, 30520, Note_on_c, 0, 65, 35
2, 30560, Note_on_c, 0, 65, 0
2, 30560, Note_on_c, 0, 53, 35
2, 30600, Note_on_c, 0, 53, 0
2, 30600, Note_on_c, 0, 58, 0
2, 30600, Note_on_c, 0, 58, 35
2, 30640, Note_on_c, 0, 58, 0
2, 30640, Note_on_c, 0, 65, 35
2, 30680, Note_on_c, 0, 65, 0
2, 30680, Note_on_c, 0, 53, 35
2, 30720, Note_on_c, 0, 53, 0
2, 30720, Note_on_c, 0, 58, 35
2, 30760, Note_on_c, 0, 58, 0
2, 30760, Note_on_c, 0, 65, 35
2, 30800, Note_on_c, 0, 65, 0
2, 30800, Note_on_c, 0, 53, 35
2, 30840, Note_on_c, 0, 53, 0
2, 30840, Note_on_c, 0, 58, 55
2, 30880, Note_on_c, 0, 65, 35
2, 30920, Note_on_c, 0, 65, 0
2, 30920, Note_on_c, 0, 53, 35
2, 30960, Note_on_c, 0, 53, 0
2, 30960, Note_on_c, 0, 58, 0
2, 30960, Note_on_c, 0, 58, 55
2, 31000, Note_on_c, 0, 65, 35
2, 31040, Note_on_c, 0, 65, 0
2, 31040, Note_on_c, 0, 53, 35
2, 31080, Note_on_c, 0, 53, 0
2, 31080, Note_on_c, 0, 58, 35
2, 31120, Note_on_c, 0, 58, 0
2, 31120, Note_on_c, 0, 65, 35
2, 31160, Note_on_c, 0, 65, 0
2, 31160, Note_on_c, 0, 53, 35
2, 31200, Note_on_c, 0, 53, 0
2, 31200, Note_on_c, 0, 58, 0
2, 31200, Note_on_c, 0, 56, 55
2, 31240, Note_on_c, 0, 65, 35
2, 31280, Note_on_c, 0, 65, 0
2, 31280, Note_on_c, 0, 53, 35
2, 31320, Note_on_c, 0, 53, 0
2, 31320, Note_on_c, 0, 56, 0
2, 31320, Note_on_c, 0, 61, 55
2, 31360, Note_on_c, 0, 65, 35
2, 31400, Note_on_c, 0, 65, 0
2, 31400, Note_on_c, 0, 53, 35
2, 31440, Note_on_c, 0, 53, 0
2, 31440, Note_on_c, 0, 61, 35
2, 31480, Note_on_c, 0, 61, 0
2, 31480, Note_on_c, 0, 65, 35
2, 31520, Note_on_c, 0, 65, 0
2, 31520, Note_on_c, 0, 53, 35
2, 31560, Note_on_c, 0, 53, 0
2, 31560, Note_on_c, 0, 61, 0
2, 31560, Note_on_c, 0, 59, 55
2, 31600, Note_on_c, 0, 65, 55
2, 31640, Note_on_c, 0, 65, 0
2, 31640, Note_on_c, 0, 53, 35
2, 31680, Note_on_c, 0, 53, 0
2, 31680, Note_on_c, 0, 59, 0
2, 31680, Note_on_c, 0, 58, 55
2, 31720, Note_on_c, 0, 65, 35
2, 31760, Note_on_c, 0, 65, 0
2, 31760, Note_on_c, 0, 53, 35
2, 31800, Note_on_c, 0, 53, 0
2, 31800, Note_on_c, 0, 58, 35
2, 31840, Note_on_c, 0, 58, 0
2, 31840, Note_on_c, 0, 65, 35
2, 31880, Note_on_c, 0, 65, 0
2, 31880, Note_on_c, 0, 53, 35
2, 31920, Note_on_c, 0, 53, 0
2, 31920, Note_on_c, 0, 58, 0
2, 31920, Note_on_c, 0, 56, 55
2, 31960, Note_on_c, 0, 65, 35
2, 32000, Note_on_c, 0, 65, 0
2, 32000, Note_on_c, 0, 53, 55
2, 32040, Note_on_c, 0, 53, 0
2, 32040, Note_on_c, 0, 56, 0
2, 34560, Note_on_c, 0, 61, 55
2, 34600, Note_on_c, 0, 68, 35
2, 34640, Note_on_c, 0, 68, 0
2, 34640, Note_on_c, 0, 56, 35
2, 34680, Note_on_c, 0, 56, 0
2, 34680, Note_on_c, 0, 61, 35
2, 34720, Note_on_c, 0, 61, 0
2, 34720, Note_on_c, 0, 68, 35
2, 34760, Note_on_c, 0, 68, 0
2, 34760, Note_on_c, 0, 56, 35
2, 34800, Note_on_c, 0, 56, 0
2, 34800, Note_on_c, 0, 61, 0
2, 34800, Note_on_c, 0, 60, 55
2, 34840, Note_on_c, 0, 68, 35
2, 34880, Note_on_c, 0, 68, 0
2, 34880, Note_on_c, 0, 56, 35
2, 34920, Note_on_c, 0, 56, 0
2, 34920, Note_on_c, 0, 60, 0
2, 34920, Note_on_c, 0, 64, 55
2, 34960, Note_on_c, 0, 68, 35
2, 34980, Note_on_c, 0, 56, 45
2, 35000, Note_on_c, 0, 68, 0
2, 35040, Note_on_c, 0, 56, 0
2, 35040, Note_on_c, 0, 64, 35
2, 35080, Note_on_c, 0, 64, 0
2, 35080, Note_on_c, 0, 68, 35
2, 35100, Note_on_c, 0, 56, 45
2, 35120, Note_on_c, 0, 68, 0
2, 35160, Note_on_c, 0, 56, 0
2, 35160, Note_on_c, 0, 64, 0
2, 35160, Note_on_c, 0, 63, 55
2, 35200, Note_on_c, 0, 68, 35
2, 35220, Note_on_c, 0, 60, 45
2, 35240, Note_on_c, 0, 68, 0
2, 35280, Note_on_c, 0, 60, 0
2, 35280, Note_on_c, 0, 63, 0
2, 35280, Note_on_c, 0, 63, 55
2, 35320, Note_on_c, 0, 68, 55
2, 35360, Note_on_c, 0, 68, 0
2, 35360, Note_on_c, 0, 59, 35
2, 35400, Note_on_c, 0, 59, 0
2, 35400, Note_on_c, 0, 63, 35
2, 35440, Note_on_c, 0, 63, 0
2, 35440, Note_on_c, 0, 68, 35
2, 35480, Note_on_c, 0, 68, 0
2, 35480, Note_on_c, 0, 59, 35
2, 35520, Note_on_c, 0, 59, 0
2, 35520, Note_on_c, 0, 63, 0
2, 35520, Note_on_c, 0, 62, 55
2, 35560, Note_on_c, 0, 68, 35
2, 35600, Note_on_c, 0, 68, 0
2, 35600, Note_on_c, 0, 59, 35
2, 35640, Note_on_c, 0, 59, 0
2, 35640, Note_on_c, 0, 62, 0
2, 35640, Note_on_c, 0, 66, 55
2, 35680, Note_on_c, 0, 68, 35
2, 35700, Note_on_c, 0, 58, 45
2, 35720, Note_on_c, 0, 68, 0
2, 35760, Note_on_c, 0, 58, 0
2, 35760, Note_on_c, 0, 66, 35
2, 35800, Note_on_c, 0, 66, 0
2, 35800, Note_on_c, 0, 68, 35
2, 35820, Note_on_c, 0, 58, 45
2, 35840, Note_on_c, 0, 68, 0
2, 35880, Note_on_c, 0, 58, 0
2, 35880, Note_on_c, 0, 66, 0
2, 35880, Note_on_c, 0, 65, 55
2, 35920, Note_on_c, 0, 68, 35
2, 35940, Note_on_c, 0, 62, 35
2, 35960, Note_on_c, 0, 68, 0
2, 36000, Note_on_c, 0, 62, 0
2, 36000, Note_on_c, 0, 65, 0
2, 36000, Note_on_c, 0, 63, 55
2, 36040, Note_on_c, 0, 68, 55
2, 36060, Note_on_c, 0, 58, 45
2, 36080, Note_on_c, 0, 68, 0
2, 36120, Note_on_c, 0, 58, 0
2, 36120, Note_on_c, 0, 63, 0
2, 36120, Note_on_c, 0, 62, 55
2, 36160, Note_on_c, 0, 68, 35
2, 36180, Note_on_c, 0, 58, 45
2, 36200, Note_on_c, 0, 68, 0
2, 36240, Note_on_c, 0, 58, 0
2, 36240, Note_on_c, 0, 62, 0
2, 36240, Note_on_c, 0, 66, 55
2, 36280, Note_on_c, 0, 68, 35
2, 36300, Note_on_c, 0, 58, 45
2, 36320, Note_on_c, 0, 68, 0
2, 36360, Note_on_c, 0, 58, 0
2, 36360, Note_on_c, 0, 66, 0
2, 36360, Note_on_c, 0, 65, 55
2, 36400, Note_on_c, 0, 68, 35
2, 36420, Note_on_c, 0, 58, 45
2, 36440, Note_on_c, 0, 68, 0
2, 36480, Note_on_c, 0, 58, 0
2, 36480, Note_on_c, 0, 65, 0
2, 36480, Note_on_c, 0, 66, 55
2, 36520, Note_on_c, 0, 68, 35
2, 36540, Note_on_c, 0, 58, 45
2, 36560, Note_on_c, 0, 68, 0
2, 36600, Note_on_c, 0, 58, 0
2, 36600, Note_on_c, 0, 66, 0
2, 36600, Note_on_c, 0, 65, 55
2, 36640, Note_on_c, 0, 68, 35
2, 36660, Note_on_c, 0, 58, 45
2, 36680, Note_on_c, 0, 68, 0
2, 36720, Note_on_c, 0, 58, 0
2, 36720, Note_on_c, 0, 65, 0
2, 36720, Note_on_c, 0, 64, 55
2, 36760, Note_on_c, 0, 68, 35
2, 36780, Note_on_c, 0, 58, 45
2, 36800, Note_on_c, 0, 68, 0
2, 36840, Note_on_c, 0, 58, 0
2, 36840, Note_on_c, 0, 64, 35
2, 36880, Note_on_c, 0, 64, 0
2, 36880, Note_on_c, 0, 68, 35
2, 36900, Note_on_c, 0, 58, 45
2, 36920, Note_on_c, 0, 68, 0
2, 36960, Note_on_c, 0, 58, 0
2, 36960, Note_on_c, 0, 64, 0
2, 36960, Note_on_c, 0, 61, 55
2, 37000, Note_on_c, 0, 64, 35
2, 37020, Note_on_c, 0, 58, 45
2, 37040, Note_on_c, 0, 64, 0
2, 37080, Note_on_c, 0, 58, 0
2, 37080, Note_on_c, 0, 61, 35
2, 37120, Note_on_c, 0, 61, 0
2, 37120, Note_on_c, 0, 64, 35
2, 37140, Note_on_c, 0, 58, 45
2, 37160, Note_on_c, 0, 64, 0
2, 37200, Note_on_c, 0, 58, 0
2, 37200, Note_on_c, 0, 61, 0
2, 37200, Note_on_c, 0, 59, 55
2, 37240, Note_on_c, 0, 64, 35
2, 37260, Note_on_c, 0, 55, 45
2, 37280, Note_on_c, 0, 64, 0
2, 37320, Note_on_c, 0, 55, 0
2, 37320, Note_on_c, 0, 59, 35
2, 37360, Note_on_c, 0, 59, 0
2, 37360, Note_on_c, 0, 64, 35
2, 37380, Note_on_c, 0, 55, 45
2, 37400, Note_on_c, 0, 64, 0
2, 37440, Note_on_c, 0, 55, 0
2, 37440, Note_on_c, 0, 59, 0
2, 37440, Note_on_c, 0, 58, 55
2, 37480, Note_on_c, 0, 61, 35
2, 37500, Note_on_c, 0, 54, 45
2, 37520, Note_on_c, 0, 61, 0
2, 37560, Note_on_c, 0, 54, 0
2, 37560, Note_on_c, 0, 58, 35
2, 37600, Note_on_c, 0, 58, 0
2, 37600, Note_on_c, 0, 61, 35
2, 37620, Note_on_c, 0, 54, 45
2, 37640, Note_on_c, 0, 61, 0
2, 37680, Note_on_c, 0, 54, 0
2, 37680, Note_on_c, 0, 58, 35
2, 37720, Note_on_c, 0, 58, 0
2, 37720, Note_on_c, 0, 61, 35
2, 37740, Note_on_c, 0, 54, 45
2, 37760, Note_on_c, 0, 61, 0
2, 37800, Note_on_c, 0, 54, 0
2, 37800, Note_on_c, 0, 58, 0
2, 37800, Note_on_c, 0, 58, 55
2, 37840, Note_on_c, 0, 61, 35
2, 37860, Note_on_c, 0, 54, 45
2, 37880, Note_on_c, 0, 61, 0
2, 37920, Note_on_c, 0, 54, 0
2, 37920, Note_on_c, 0, 58, 0
2, 37920, Note_on_c, 0, 58, 35
2, 37960, Note_on_c, 0, 58, 0
2, 37960, Note_on_c, 0, 66, 55
2, 37980, Note_on_c, 0, 54, 45
2, 38040, Note_on_c, 0, 54, 0
2, 38040, Note_on_c, 0, 58, 35
2, 38080, Note_on_c, 0, 58, 0
2, 38080, Note_on_c, 0, 66, 35
2, 38100, Note_on_c, 0, 54, 45
2, 38120, Note_on_c, 0, 66, 0
2, 38160, Note_on_c, 0, 54, 0
2, 38160, Note_on_c, 0, 66, 0
2, 38160, Note_on_c, 0, 59, 55
2, 38200, Note_on_c, 0, 66, 35
2, 38240, Note_on_c, 0, 66, 0
2, 38240, Note_on_c, 0, 54, 35
2, 38280, Note_on_c, 0, 54, 0
2, 38280, Note_on_c, 0, 59, 35
2, 38320, Note_on_c, 0, 59, 0
2, 38320, Note_on_c, 0, 66, 35
2, 38360, Note_on_c, 0, 66, 0
2, 38360, Note_on_c, 0, 54, 35
2, 38400, Note_on_c, 0, 54, 0
2, 38400, Note_on_c, 0, 59, 0
2, 38400, Note_on_c, 0, 58, 55
2, 38440, Note_on_c, 0, 66, 35
2, 38480, Note_on_c, 0, 66, 0
2, 38480, Note_on_c, 0, 54, 35
2, 38520, Note_on_c, 0, 54, 0
2, 38520, Note_on_c, 0, 58, 0
2, 38520, Note_on_c, 0, 63, 55
2, 38560, Note_on_c, 0, 66, 35
2, 38600, Note_on_c, 0, 66, 0
2, 38600, Note_on_c, 0, 54, 35
2, 38640, Note_on_c, 0, 54, 0
2, 38640, Note_on_c, 0, 63, 35
2, 38680, Note_on_c, 0, 63, 0
2, 38680, Note_on_c, 0, 66, 35
2, 38720, Note_on_c, 0, 66, 0
2, 38720, Note_on_c, 0, 54, 35
2, 38760, Note_on_c, 0, 54, 0
2, 38760, Note_on_c, 0, 63, 0
2, 38760, Note_on_c, 0, 61, 55
2, 38800, Note_on_c, 0, 66, 35
2, 38840, Note_on_c, 0, 66, 0
2, 38840, Note_on_c, 0, 54, 35
2, 38880, Note_on_c, 0, 54, 0
2, 38880, Note_on_c, 0, 61, 0
2, 38880, Note_on_c, 0, 59, 55
2, 38920, Note_on_c, 0, 66, 35
2, 38960, Note_on_c, 0, 66, 0
2, 38960, Note_on_c, 0, 54, 35
2, 39000, Note_on_c, 0, 54, 0
2, 39000, Note_on_c, 0, 59, 35
2, 39040, Note_on_c, 0, 59, 0
2, 39040, Note_on_c, 0, 66, 35
2, 39080, Note_on_c, 0, 66, 0
2, 39080, Note_on_c, 0, 54, 35
2, 39120, Note_on_c, 0, 54, 0
2, 39120, Note_on_c, 0, 59, 0
2, 39120, Note_on_c, 0, 58, 55
2, 39160, Note_on_c, 0, 66, 35
2, 39200, Note_on_c, 0, 66, 0
2, 39200, Note_on_c, 0, 54, 35
2, 39240, Note_on_c, 0, 54, 0
2, 39240, Note_on_c, 0, 58, 0
2, 39240, Note_on_c, 0, 56, 55
2, 39280, Note_on_c, 0, 66, 35
2, 39320, Note_on_c, 0, 66, 0
2, 39320, Note_on_c, 0, 54, 35
2, 39360, Note_on_c, 0, 54, 0
2, 39360, Note_on_c, 0, 56, 35
2, 39400, Note_on_c, 0, 56, 0
2, 39400, Note_on_c, 0, 66, 35
2, 39440, Note_on_c, 0, 66, 0
2, 39440, Note_on_c, 0, 54, 35
2, 39480, Note_on_c, 0, 54, 0
2, 39480, Note_on_c, 0, 56, 0
2, 39480, Note_on_c, 0, 57, 55
2, 39520, Note_on_c, 0, 65, 35
2, 39560, Note_on_c, 0, 65, 0
2, 39560, Note_on_c, 0, 53, 35
2, 39600, Note_on_c, 0, 53, 0
2, 39600, Note_on_c, 0, 57, 0
2, 39600, Note_on_c, 0, 58, 55
2, 39640, Note_on_c, 0, 65, 35
2, 39680, Note_on_c, 0, 65, 0
2, 39680, Note_on_c, 0, 53, 36
2, 39720, Note_on_c, 0, 53, 0
2, 39720, Note_on_c, 0, 58, 36
2, 39760, Note_on_c, 0, 58, 0
2, 39760, Note_on_c, 0, 65, 37
2, 39800, Note_on_c, 0, 65, 0
2, 39800, Note_on_c, 0, 53, 38
2, 39840, Note_on_c, 0, 53, 0
2, 39840, Note_on_c, 0, 58, 0
2, 39840, Note_on_c, 0, 60, 58
2, 39880, Note_on_c, 0, 65, 39
2, 39920, Note_on_c, 0, 65, 0
2, 39920, Note_on_c, 0, 53, 40
2, 39960, Note_on_c, 0, 53, 0
2, 39960, Note_on_c, 0, 60, 0
2, 39960, Note_on_c, 0, 62, 60
2, 40000, Note_on_c, 0, 65, 41
2, 40040, Note_on_c, 0, 65, 0
2, 40040, Note_on_c, 0, 53, 42
2, 40080, Note_on_c, 0, 53, 0
2, 40080, Note_on_c, 0, 62, 42
2, 40120, Note_on_c, 0, 62, 0
2, 40120, Note_on_c, 0, 65, 43
2, 40160, Note_on_c, 0, 65, 0
2, 40160, Note_on_c, 0, 53, 44
2, 40200, Note_on_c, 0, 53, 0
2, 40200, Note_on_c, 0, 62, 0
2, 40200, Note_on_c, 0, 64, 64
2, 40240, Note_on_c, 0, 65, 45
2, 40280, Note_on_c, 0, 65, 0
2, 40280, Note_on_c, 0, 53, 45
2, 40320, Note_on_c, 0, 53, 0
2, 40320, Note_on_c, 0, 64, 0
2, 40320, Note_on_c, 0, 65, 66
2, 40360, Note_on_c, 0, 53, 47
2, 40400, Note_on_c, 0, 53, 0
2, 40400, Note_on_c, 0, 65, 47
2, 40440, Note_on_c, 0, 65, 0
2, 40440, Note_on_c, 0, 53, 48
2, 40480, Note_on_c, 0, 53, 0
2, 40480, Note_on_c, 0, 65, 49
2, 40520, Note_on_c, 0, 65, 0
2, 40520, Note_on_c, 0, 53, 49
2, 40560, Note_on_c, 0, 53, 0
2, 40560, Note_on_c, 0, 65, 0
2, 40560, Note_on_c, 0, 65, 50
2, 40600, Note_on_c, 0, 65, 0
2, 40600, Note_on_c, 0, 53, 51
2, 40640, Note_on_c, 0, 53, 0
2, 40640, Note_on_c, 0, 65, 51
2, 40680, Note_on_c, 0, 65, 0
2, 40680, Note_on_c, 0, 53, 52
2, 40720, Note_on_c, 0, 53, 0
2, 40720, Note_on_c, 0, 65, 53
2, 40760, Note_on_c, 0, 65, 0
2, 40760, Note_on_c, 0, 53, 53
2, 40800, Note_on_c, 0, 53, 0
2, 40800, Note_on_c, 0, 65, 54
2, 40840, Note_on_c, 0, 65, 0
2, 40840, Note_on_c, 0, 53, 54
2, 40880, Note_on_c, 0, 53, 0
2, 40880, Note_on_c, 0, 65, 55
2, 40920, Note_on_c, 0, 65, 0
2, 40920, Note_on_c, 0, 68, 75
2, 40960, Note_on_c, 0, 71, 55
2, 41000, Note_on_c, 0, 71, 0
2, 41000, Note_on_c, 0, 58, 55
2, 41040, Note_on_c, 0, 58, 0
2, 41040, Note_on_c, 0, 68, 0
2, 41040, Note_on_c, 0, 68, 75
2, 41080, Note_on_c, 0, 71, 55
2, 41120, Note_on_c, 0, 71, 0
2, 41120, Note_on_c, 0, 58, 55
2, 41160, Note_on_c, 0, 58, 0
2, 41160, Note_on_c, 0, 68, 0
2, 41160, Note_on_c, 0, 66, 75
2, 41200, Note_on_c, 0, 70, 55
2, 41240, Note_on_c, 0, 70, 0
2, 41240, Note_on_c, 0, 58, 55
2, 41280, Note_on_c, 0, 58, 0
2, 41280, Note_on_c, 0, 66, 0
2, 41280, Note_on_c, 0, 65, 75
2, 41320, Note_on_c, 0, 68, 55
2, 41360, Note_on_c, 0, 68, 0
2, 41360, Note_on_c, 0, 58, 55
2, 41400, Note_on_c, 0, 58, 0
2, 41400, Note_on_c, 0, 65, 0
2, 41400, Note_on_c, 0, 65, 75
2, 41440, Note_on_c, 0, 68, 55
2, 41480, Note_on_c, 0, 68, 0
2, 41480, Note_on_c, 0, 58, 55
2, 41520, Note_on_c, 0, 58, 0
2, 41520, Note_on_c, 0, 65, 55
2, 41560, Note_on_c, 0, 65, 0
2, 41560, Note_on_c, 0, 68, 55
2, 41600, Note_on_c, 0, 68, 0
2, 41600, Note_on_c, 0, 58, 55
2, 41640, Note_on_c, 0, 58, 0
2, 41640, Note_on_c, 0, 65, 0
2, 41640, Note_on_c, 0, 64, 75
2, 41680, Note_on_c, 0, 67, 55
2, 41720, Note_on_c, 0, 67, 0
2, 41720, Note_on_c, 0, 58, 55
2, 41760, Note_on_c, 0, 58, 0
2, 41760, Note_on_c, 0, 64, 0
2, 41760, Note_on_c, 0, 64, 75
2, 41800, Note_on_c, 0, 67, 55
2, 41840, Note_on_c, 0, 67, 0
2, 41840, Note_on_c, 0, 58, 55
2, 41880, Note_on_c, 0, 58, 0
2, 41880, Note_on_c, 0, 64, 0
2, 41880, Note_on_c, 0, 63, 75
2, 41920, Note_on_c, 0, 66, 55
2, 41960, Note_on_c, 0, 66, 0
2, 41960, Note_on_c, 0, 58, 55
2, 42000, Note_on_c, 0, 58, 0
2, 42000, Note_on_c, 0, 63, 0
2, 42000, Note_on_c, 0, 61, 74
2, 42040, Note_on_c, 0, 65, 54
2, 42080, Note_on_c, 0, 65, 0
2, 42080, Note_on_c, 0, 58, 54
2, 42120, Note_on_c, 0, 58, 0
2, 42120, Note_on_c, 0, 61, 0
2, 42120, Note_on_c, 0, 61, 74
2, 42160, Note_on_c, 0, 65, 54
2, 42200, Note_on_c, 0, 65, 0
2, 42200, Note_on_c, 0, 58, 53
2, 42240, Note_on_c, 0, 58, 0
2, 42240, Note_on_c, 0, 61, 53
2, 42280, Note_on_c, 0, 61, 0
2, 42280, Note_on_c, 0, 65, 53
2, 42320, Note_on_c, 0, 65, 0
2, 42320, Note_on_c, 0, 58, 53
2, 42360, Note_on_c, 0, 58, 0
2, 42360, Note_on_c, 0, 61, 0
2, 46200, Note_on_c, 0, 58, 35
2, 46320, Note_on_c, 0, 58, 0
2, 46320, Note_on_c, 0, 61, 35
2, 46440, Note_on_c, 0, 61, 0
2, 46560, Note_on_c, 0, 70, 35
2, 46680, Note_on_c, 0, 70, 0
2, 46680, Note_on_c, 0, 73, 35
2, 46800, Note_on_c, 0, 73, 0
2, 46800, Note_on_c, 0, 74, 65
2, 46860, Note_on_c, 0, 71, 55
2, 46890, Note_on_c, 0, 71, 0
2, 46890, Note_on_c, 0, 67, 55
2, 46920, Note_on_c, 0, 67, 0
2, 46920, Note_on_c, 0, 66, 55
2, 46980, Note_on_c, 0, 66, 0
2, 47160, Note_on_c, 0, 74, 0
2, 47160, Note_on_c, 0, 75, 65
2, 47220, Note_on_c, 0, 71, 55
2, 47250, Note_on_c, 0, 71, 0
2, 47250, Note_on_c, 0, 68, 55
2, 47280, Note_on_c, 0, 68, 0
2, 47280, Note_on_c, 0, 66, 55
2, 47340, Note_on_c, 0, 66, 0
2, 47520, Note_on_c, 0, 75, 0
2, 47520, Note_on_c, 0, 78, 65
2, 47580, Note_on_c, 0, 71, 55
2, 47610, Note_on_c, 0, 71, 0
2, 47610, Note_on_c, 0, 68, 55
2, 47640, Note_on_c, 0, 68, 0
2, 47640, Note_on_c, 0, 66, 55
2, 47700, Note_on_c, 0, 66, 0
2, 47760, Note_on_c, 0, 78, 0
2, 47760, Note_on_c, 0, 75, 65
2, 47880, Note_on_c, 0, 75, 0
2, 47880, Note_on_c, 0, 73, 65
2, 47940, Note_on_c, 0, 70, 55
2, 47970, Note_on_c, 0, 70, 0
2, 47970, Note_on_c, 0, 66, 55
2, 48000, Note_on_c, 0, 66, 0
2, 48000, Note_on_c, 0, 63, 55
2, 48060, Note_on_c, 0, 63, 0
2, 48120, Note_on_c, 0, 73, 0
2, 48120, Note_on_c, 0, 71, 65
2, 48240, Note_on_c, 0, 71, 0
2, 48240, Note_on_c, 0, 68, 65
2, 48300, Note_on_c, 0, 66, 55
2, 48330, Note_on_c, 0, 66, 0
2, 48330, Note_on_c, 0, 63, 55
2, 48360, Note_on_c, 0, 63, 0
2, 48360, Note_on_c, 0, 59, 55
2, 48420, Note_on_c, 0, 59, 0
2, 48600, Note_on_c, 0, 68, 0
2, 48600, Note_on_c, 0, 70, 65
2, 48660, Note_on_c, 0, 66, 55
2, 48690, Note_on_c, 0, 66, 0
2, 48690, Note_on_c, 0, 63, 55
2, 48720, Note_on_c, 0, 63, 0
2, 48720, Note_on_c, 0, 59, 55
2, 48780, Note_on_c, 0, 59, 0
2, 48960, Note_on_c, 0, 70, 0
2, 48960, Note_on_c, 0, 73, 65
2, 49020, Note_on_c, 0, 68, 55
2, 49050, Note_on_c, 0, 68, 0
2, 49050, Note_on_c, 0, 65, 55
2, 49080, Note_on_c, 0, 65, 0
2, 49080, Note_on_c, 0, 59, 55
2, 49140, Note_on_c, 0, 59, 0
2, 49200, Note_on_c, 0, 73, 0
2, 49200, Note_on_c, 0, 68, 65
2, 49320, Note_on_c, 0, 68, 0
2, 49320, Note_on_c, 0, 70, 65
2, 49380, Note_on_c, 0, 66, 55
2, 49410, Note_on_c, 0, 66, 0
2, 49410, Note_on_c, 0, 63, 55
2, 49440, Note_on_c, 0, 63, 0
2, 49440, Note_on_c, 0, 61, 55
2, 49500, Note_on_c, 0, 61, 0
2, 49560, Note_on_c, 0, 70, 0
2, 49560, Note_on_c, 0, 66, 65
2, 49680, Note_on_c, 0, 66, 0
2, 49680, Note_on_c, 0, 68, 65
2, 49740, Note_on_c, 0, 66, 55
2, 49770, Note_on_c, 0, 66, 0
2, 49770, Note_on_c, 0, 63, 55
2, 49800, Note_on_c, 0, 63, 0
2, 49800, Note_on_c, 0, 59, 55
2, 49860, Note_on_c, 0, 59, 0
2, 50040, Note_on_c, 0, 68, 0
2, 50040, Note_on_c, 0, 69, 65
2, 50100, Note_on_c, 0, 66, 55
2, 50130, Note_on_c, 0, 66, 0
2, 50130, Note_on_c, 0, 63, 55
2, 50160, Note_on_c, 0, 63, 0
2, 50160, Note_on_c, 0, 59, 55
2, 50220, Note_on_c, 0, 59, 0
2, 50400, Note_on_c, 0, 69, 0
2, 50400, Note_on_c, 0, 71, 65
2, 50460, Note_on_c, 0, 65, 55
2, 50490, Note_on_c, 0, 65, 0
2, 50490, Note_on_c, 0, 62, 55
2, 50520, Note_on_c, 0, 62, 0
2, 50520, Note_on_c, 0, 59, 55
2, 50580, Note_on_c, 0, 59, 0
2, 50640, Note_on_c, 0, 71, 0
2, 50640, Note_on_c, 0, 65, 65
2, 50760, Note_on_c, 0, 65, 0
2, 50760, Note_on_c, 0, 64, 65
2, 50820, Note_on_c, 0, 61, 55
2, 50850, Note_on_c, 0, 61, 0
2, 50850, Note_on_c, 0, 54, 55
2, 50880, Note_on_c, 0, 54, 0
2, 50880, Note_on_c, 0, 52, 55
2, 50940, Note_on_c, 0, 52, 0
2, 51120, Note_on_c, 0, 64, 0
2, 51120, Note_on_c, 0, 63, 65
2, 51180, Note_on_c, 0, 59, 55
2, 51210, Note_on_c, 0, 59, 0
2, 51210, Note_on_c, 0, 56, 55
2, 51240, Note_on_c, 0, 56, 0
2, 51240, Note_on_c, 0, 54, 55
2, 51300, Note_on_c, 0, 54, 0
2, 51480, Note_on_c, 0, 63, 0
2, 51480, Note_on_c, 0, 62, 65
2, 51540, Note_on_c, 0, 59, 55
2, 51570, Note_on_c, 0, 59, 0
2, 51570, Note_on_c, 0, 55, 55
2, 51600, Note_on_c, 0, 55, 0
2, 51600, Note_on_c, 0, 54, 55
2, 51660, Note_on_c, 0, 54, 0
2, 51840, Note_on_c, 0, 62, 0
2, 60480, Note_on_c, 0, 59, 75
2, 60480, Note_on_c, 0, 65, 75
2, 60600, Note_on_c, 0, 71, 73
2, 60600, Note_on_c, 0, 68, 73
2, 60720, Note_on_c, 0, 68, 0
2, 60720, Note_on_c, 0, 59, 0
2, 60720, Note_on_c, 0, 65, 0
2, 60720, Note_on_c, 0, 71, 0
2, 60720, Note_on_c, 0, 58, 71
2, 60720, Note_on_c, 0, 66, 71
2, 60720, Note_on_c, 0, 70, 71
2, 60840, Note_on_c, 0, 70, 0
2, 60840, Note_on_c, 0, 66, 0
2, 60840, Note_on_c, 0, 58, 0
2, 60840, Note_on_c, 0, 68, 68
2, 60840, Note_on_c, 0, 59, 68
2, 60960, Note_on_c, 0, 59, 0
2, 60960, Note_on_c, 0, 68, 0
2, 60960, Note_on_c, 0, 58, 66
2, 60960, Note_on_c, 0, 61, 66
2, 60960, Note_on_c, 0, 66, 66
2, 61080, Note_on_c, 0, 66, 0
2, 61080, Note_on_c, 0, 61, 0
2, 61080, Note_on_c, 0, 58, 0
2, 62640, Note_on_c, 0, 66, 55
2, 62640, Note_on_c, 0, 55, 55
2, 62640, Note_on_c, 0, 59, 55
2, 62760, Note_on_c, 0, 66, 0
2, 62760, Note_on_c, 0, 64, 55
2, 62880, Note_on_c, 0, 64, 0
2, 62880, Note_on_c, 0, 62, 55
2, 63000, Note_on_c, 0, 62, 0
2, 63000, Note_on_c, 0, 59, 0
2, 63000, Note_on_c, 0, 55, 0
2, 63000, Note_on_c, 0, 55, 55
2, 63000, Note_on_c, 0, 61, 55
2, 63120, Note_on_c, 0, 55, 0
2, 63120, Note_on_c, 0, 54, 55
2, 63240, Note_on_c, 0, 61, 0
2, 63240, Note_on_c, 0, 59, 55
2, 63360, Note_on_c, 0, 59, 0
2, 63360, Note_on_c, 0, 54, 0
2, 63360, Note_on_c, 0, 55, 55
2, 63370, Note_on_c, 0, 71, 55
2, 63480, Note_on_c, 0, 71, 0
2, 63480, Note_on_c, 0, 69, 55
2, 63600, Note_on_c, 0, 69, 0
2, 63600, Note_on_c, 0, 67, 55
2, 63720, Note_on_c, 0, 67, 0
2, 63720, Note_on_c, 0, 55, 0
2, 63720, Note_on_c, 0, 66, 55
2, 63720, Note_on_c, 0, 61, 55
2, 63720, Note_on_c, 0, 57, 55
2, 63960, Note_on_c, 0, 66, 0
2, 63960, Note_on_c, 0, 64, 55
2, 64080, Note_on_c, 0, 64, 0
2, 64080, Note_on_c, 0, 57, 0
2, 64080, Note_on_c, 0, 61, 0
2, 64080, Note_on_c, 0, 64, 55
2, 64080, Note_on_c, 0, 54, 55
2, 64200, Note_on_c, 0, 64, 0
2, 64200, Note_on_c, 0, 62, 55
2, 64320, Note_on_c, 0, 62, 0
2, 64320, Note_on_c, 0, 61, 55
2, 64440, Note_on_c, 0, 61, 0
2, 64440, Note_on_c, 0, 54, 0
2, 64440, Note_on_c, 0, 54, 55
2, 64440, Note_on_c, 0, 61, 55
2, 64560, Note_on_c, 0, 54, 0
2, 64560, Note_on_c, 0, 55, 55
2, 64680, Note_on_c, 0, 61, 0
2, 64680, Note_on_c, 0, 59, 55
2, 64800, Note_on_c, 0, 59, 0
2, 64800, Note_on_c, 0, 55, 0
2, 66600, Note_on_c, 0, 62, 65
2, 66600, Note_on_c, 0, 67, 65
2, 66720, Note_on_c, 0, 71, 69
2, 66840, Note_on_c, 0, 71, 0
2, 66840, Note_on_c, 0, 67, 0
2, 66840, Note_on_c, 0, 62, 0
2, 66840, Note_on_c, 0, 69, 72
2, 66840, Note_on_c, 0, 66, 72
2, 66840, Note_on_c, 0, 62, 72
2, 66960, Note_on_c, 0, 62, 0
2, 66960, Note_on_c, 0, 66, 0
2, 66960, Note_on_c, 0, 69, 0
2, 66960, Note_on_c, 0, 57, 75
2, 66960, Note_on_c, 0, 62, 75
2, 66960, Note_on_c, 0, 66, 75
2, 67080, Note_on_c, 0, 66, 0
2, 67080, Note_on_c, 0, 62, 0
2, 67080, Note_on_c, 0, 57, 0
2, 67080, Note_on_c, 0, 64, 73
2, 67080, Note_on_c, 0, 61, 73
2, 67080, Note_on_c, 0, 55, 73
2, 67200, Note_on_c, 0, 55, 0
2, 67200, Note_on_c, 0, 61, 0
2, 67200, Note_on_c, 0, 64, 0
2, 67200, Note_on_c, 0, 54, 70
2, 67200, Note_on_c, 0, 57, 70
2, 67200, Note_on_c, 0, 62, 70
2, 67290, Note_on_c, 0, 62, 0
2, 67290, Note_on_c, 0, 57, 0
2, 67290, Note_on_c, 0, 54, 0
2, 73800, Note_on_c, 0, 62, 62
2, 73800, Note_on_c, 0, 74, 62
2, 74040, Note_on_c, 0, 74, 0
2, 74040, Note_on_c, 0, 62, 0
2, 74040, Note_on_c, 0, 63, 59
2, 74040, Note_on_c, 0, 75, 59
2, 74160, Note_on_c, 0, 75, 0
2, 74160, Note_on_c, 0, 63, 0
2, 74160, Note_on_c, 0, 78, 58
2, 74160, Note_on_c, 0, 66, 58
2, 74400, Note_on_c, 0, 66, 0
2, 74400, Note_on_c, 0, 78, 0
2, 74400, Note_on_c, 0, 63, 55
2, 74400, Note_on_c, 0, 75, 55
2, 74520, Note_on_c, 0, 75, 0
2, 74520, Note_on_c, 0, 63, 0
2, 74520, Note_on_c, 0, 73, 55
2, 74520, Note_on_c, 0, 61, 55
2, 74580, Note_on_c, 0, 73, 0
2, 74760, Note_on_c, 0, 61, 0
2, 75240, Note_on_c, 0, 62, 55
2, 75240, Note_on_c, 0, 74, 55
2, 75480, Note_on_c, 0, 74, 0
2, 75480, Note_on_c, 0, 62, 0
2, 75480, Note_on_c, 0, 63, 55
2, 75480, Note_on_c, 0, 75, 55
2, 75600, Note_on_c, 0, 75, 0
2, 75600, Note_on_c, 0, 63, 0
2, 75600, Note_on_c, 0, 66, 55
2, 75600, Note_on_c, 0, 78, 55
2, 75840, Note_on_c, 0, 78, 0
2, 75840, Note_on_c, 0, 66, 0
2, 75840, Note_on_c, 0, 63, 55
2, 75840, Note_on_c, 0, 75, 55
2, 75960, Note_on_c, 0, 75, 0
2, 75960, Note_on_c, 0, 63, 0
2, 75960, Note_on_c, 0, 73, 55
2, 75960, Note_on_c, 0, 61, 55
2, 76020, Note_on_c, 0, 73, 0
2, 76200, Note_on_c, 0, 61, 0
2, 76200, End_track
3, 0, Start_track
3, 0, Title_t, "R Bass"
3, 0, Program_c, 0, 0
3, 0, Control_c, 0, 7, 115
3, 0, Control_c, 0, 10, 64
3, 5040, Note_on_c, 0, 61, 85
3, 5100, Note_on_c, 0, 56, 74
3, 5100, Note_on_c, 0, 53, 74
3, 5160, Note_on_c, 0, 53, 0
3, 5160, Note_on_c, 0, 56, 0
3, 5160, Note_on_c, 0, 49, 73
3, 5220, Note_on_c, 0, 49, 0
3, 5280, Note_on_c, 0, 61, 0
3, 5280, Note_on_c, 0, 56, 81
3, 5400, Note_on_c, 0, 56, 0
3, 5400, Note_on_c, 0, 58, 80
3, 5460, Note_on_c, 0, 54, 70
3, 5460, Note_on_c, 0, 51, 70
3, 5520, Note_on_c, 0, 51, 0
3, 5520, Note_on_c, 0, 54, 0
3, 5520, Note_on_c, 0, 49, 70
3, 5580, Note_on_c, 0, 49, 0
3, 5640, Note_on_c, 0, 58, 0
3, 5640, Note_on_c, 0, 54, 80
3, 5760, Note_on_c, 0, 54, 0
3, 10800, Note_on_c, 0, 61, 85
3, 10860, Note_on_c, 0, 56, 74
3, 10860, Note_on_c, 0, 53, 74
3, 10920, Note_on_c, 0, 53, 0
3, 10920, Note_on_c, 0, 56, 0
3, 10920, Note_on_c, 0, 49, 73
3, 10980, Note_on_c, 0, 49, 0
3, 11040, Note_on_c, 0, 61, 0
3, 11040, Note_on_c, 0, 56, 81
3, 11160, Note_on_c, 0, 56, 0
3, 11160, Note_on_c, 0, 58, 80
3, 11220, Note_on_c, 0, 54, 70
3, 11220, Note_on_c, 0, 51, 70
3, 11280, Note_on_c, 0, 51, 0
3, 11280, Note_on_c, 0, 54, 0
3, 11280, Note_on_c, 0, 49, 70
3, 11340, Note_on_c, 0, 49, 0
3, 11400, Note_on_c, 0, 58, 0
3, 11400, Note_on_c, 0, 54, 80
3, 11520, Note_on_c, 0, 54, 0
3, 26280, Note_on_c, 0, 54, 70
3, 26320, Note_on_c, 0, 65, 50
3, 26360, Note_on_c, 0, 65, 0
3, 26360, Note_on_c, 0, 53, 50
3, 26400, Note_on_c, 0, 53, 0
3, 26400, Note_on_c, 0, 54, 50
3, 26440, Note_on_c, 0, 54, 0
3, 26440, Note_on_c, 0, 65, 50
3, 26480, Note_on_c, 0, 65, 0
3, 26480, Note_on_c, 0, 53, 50
3, 26520, Note_on_c, 0, 53, 0
3, 26520, Note_on_c, 0, 54, 0
3, 26520, Note_on_c, 0, 54, 50
3, 26560, Note_on_c, 0, 54, 0
3, 26560, Note_on_c, 0, 64, 50
3, 26600, Note_on_c, 0, 64, 0
3, 26600, Note_on_c, 0, 52, 50
3, 26640, Note_on_c, 0, 52, 0
3, 26640, Note_on_c, 0, 54, 70
3, 26680, Note_on_c, 0, 63, 50
3, 26720, Note_on_c, 0, 63, 0
3, 26720, Note_on_c, 0, 51, 50
3, 26760, Note_on_c, 0, 51, 0
3, 26760, Note_on_c, 0, 54, 50
3, 26800, Note_on_c, 0, 54, 0
3, 26800, Note_on_c, 0, 63, 50
3, 26840, Note_on_c, 0, 63, 0
3, 26840, Note_on_c, 0, 51, 50
3, 26880, Note_on_c, 0, 51, 0
3, 26880, Note_on_c, 0, 54, 0
3, 26880, Note_on_c, 0, 54, 70
3, 26920, Note_on_c, 0, 61, 50
3, 26960, Note_on_c, 0, 61, 0
3, 26960, Note_on_c, 0, 49, 50
3, 27000, Note_on_c, 0, 49, 0
3, 27000, Note_on_c, 0, 54, 0
3, 27000, Note_on_c, 0, 54, 70
3, 27040, Note_on_c, 0, 59, 50
3, 27080, Note_on_c, 0, 59, 0
3, 27080, Note_on_c, 0, 51, 50
3, 27120, Note_on_c, 0, 51, 0
3, 27120, Note_on_c, 0, 54, 50
3, 27160, Note_on_c, 0, 54, 0
3, 27160, Note_on_c, 0, 59, 50
3, 27200, Note_on_c, 0, 59, 0
3, 27200, Note_on_c, 0, 51, 50
3, 27240, Note_on_c, 0, 51, 0
3, 27240, Note_on_c, 0, 54, 0
3, 27240, Note_on_c, 0, 53, 70
3, 27280, Note_on_c, 0, 61, 50
3, 27320, Note_on_c, 0, 61, 0
3, 27320, Note_on_c, 0, 49, 50
3, 27360, Note_on_c, 0, 49, 0
3, 27360, Note_on_c, 0, 53, 0
3, 27360, Note_on_c, 0, 54, 70
3, 27400, Note_on_c, 0, 58, 50
3, 27440, Note_on_c, 0, 58, 0
3, 27440, Note_on_c, 0, 49, 50
3, 27480, Note_on_c, 0, 49, 0
3, 27480, Note_on_c, 0, 54, 50
3, 27520, Note_on_c, 0, 54, 0
3, 27520, Note_on_c, 0, 58, 50
3, 27560, Note_on_c, 0, 58, 0
3, 27560, Note_on_c, 0, 49, 50
3, 27600, Note_on_c, 0, 49, 0
3, 27600, Note_on_c, 0, 54, 0
3, 27600, Note_on_c, 0, 54, 50
3, 27640, Note_on_c, 0, 54, 0
3, 27640, Note_on_c, 0, 58, 50
3, 27680, Note_on_c, 0, 58, 0
3, 27680, Note_on_c, 0, 49, 50
3, 27720, Note_on_c, 0, 49, 0
3, 27720, Note_on_c, 0, 54, 50
3, 27760, Note_on_c, 0, 54, 0
3, 27760, Note_on_c, 0, 58, 50
3, 27800, Note_on_c, 0, 58, 0
3, 27800, Note_on_c, 0, 49, 50
3, 27840, Note_on_c, 0, 49, 0
3, 27840, Note_on_c, 0, 54, 50
3, 27880, Note_on_c, 0, 54, 0
3, 27880, Note_on_c, 0, 58, 50
3, 27920, Note_on_c, 0, 58, 0
3, 27920, Note_on_c, 0, 49, 50
3, 27960, Note_on_c, 0, 49, 0
3, 27960, Note_on_c, 0, 59, 70
3, 28000, Note_on_c, 0, 66, 50
3, 28040, Note_on_c, 0, 66, 0
3, 28040, Note_on_c, 0, 54, 50
3, 28080, Note_on_c, 0, 54, 0
3, 28080, Note_on_c, 0, 59, 0
3, 32040, Note_on_c, 0, 54, 70
3, 32080, Note_on_c, 0, 65, 50
3, 32120, Note_on_c, 0, 65, 0
3, 32120, Note_on_c, 0, 53, 50
3, 32160, Note_on_c, 0, 53, 0
3, 32160, Note_on_c, 0, 54, 50
3, 32200, Note_on_c, 0, 54, 0
3, 32200, Note_on_c, 0, 65, 50
3, 32240, Note_on_c, 0, 65, 0
3, 32240, Note_on_c, 0, 53, 50
3, 32280, Note_on_c, 0, 53, 0
3, 32280, Note_on_c, 0, 54, 0
3, 32280, Note_on_c, 0, 54, 50
3, 32320, Note_on_c, 0, 54, 0
3, 32320, Note_on_c, 0, 64, 50
3, 32360, Note_on_c, 0, 64, 0
3, 32360, Note_on_c, 0, 52, 50
3, 32400, Note_on_c, 0, 52, 0
3, 32400, Note_on_c, 0, 54, 70
3, 32440, Note_on_c, 0, 63, 50
3, 32480, Note_on_c, 0, 63, 0
3, 32480, Note_on_c, 0, 51, 50
3, 32520, Note_on_c, 0, 51, 0
3, 32520, Note_on_c, 0, 54, 50
3, 32560, Note_on_c, 0, 54, 0
3, 32560, Note_on_c, 0, 63, 50
3, 32600, Note_on_c, 0, 63, 0
3, 32600, Note_on_c, 0, 51, 50
3, 32640, Note_on_c, 0, 51, 0
3, 32640, Note_on_c, 0, 54, 0
3, 32640, Note_on_c, 0, 54, 70
3, 32680, Note_on_c, 0, 61, 50
3, 32720, Note_on_c, 0, 61, 0
3, 32720, Note_on_c, 0, 49, 50
3, 32760, Note_on_c, 0, 49, 0
3, 32760, Note_on_c, 0, 54, 0
3, 32760, Note_on_c, 0, 54, 70
3, 32800, Note_on_c, 0, 59, 50
3, 32840, Note_on_c, 0, 59, 0
3, 32840, Note_on_c, 0, 51, 50
3, 32880, Note_on_c, 0, 51, 0
3, 32880, Note_on_c, 0, 54, 50
3, 32920, Note_on_c, 0, 54, 0
3, 32920, Note_on_c, 0, 59, 50
3, 32960, Note_on_c, 0, 59, 0
3, 32960, Note_on_c, 0, 51, 50
3, 33000, Note_on_c, 0, 51, 0
3, 33000, Note_on_c, 0, 54, 0
3, 33000, Note_on_c, 0, 53, 70
3, 33040, Note_on_c, 0, 61, 50
3, 33080, Note_on_c, 0, 61, 0
3, 33080, Note_on_c, 0, 49, 50
3, 33120, Note_on_c, 0, 49, 0
3, 33120, Note_on_c, 0, 53, 0
3, 33120, Note_on_c, 0, 54, 70
3, 33160, Note_on_c, 0, 58, 50
3, 33200, Note_on_c, 0, 58, 0
3, 33200, Note_on_c, 0, 49, 50
3, 33240, Note_on_c, 0, 49, 0
3, 33240, Note_on_c, 0, 54, 50
3, 33280, Note_on_c, 0, 54, 0
3, 33280, Note_on_c, 0, 58, 50
3, 33320, Note_on_c, 0, 58, 0
3, 33320, Note_on_c, 0, 49, 50
3, 33360, Note_on_c, 0, 49, 0
3, 33360, Note_on_c, 0, 54, 0
3, 33360, Note_on_c, 0, 54, 50
3, 33400, Note_on_c, 0, 54, 0
3, 33400, Note_on_c, 0, 58, 50
3, 33440, Note_on_c, 0, 58, 0
3, 33440, Note_on_c, 0, 49, 50
3, 33480, Note_on_c, 0, 49, 0
3, 33480, Note_on_c, 0, 54, 50
3, 33520, Note_on_c, 0, 54, 0
3, 33520, Note_on_c, 0, 58, 50
3, 33560, Note_on_c, 0, 58, 0
3, 33560, Note_on_c, 0, 49, 50
3, 33600, Note_on_c, 0, 49, 0
3, 33600, Note_on_c, 0, 54, 50
3, 33640, Note_on_c, 0, 54, 0
3, 33640, Note_on_c, 0, 58, 50
3, 33680, Note_on_c, 0, 58, 0
3, 33680, Note_on_c, 0, 49, 50
3, 33720, Note_on_c, 0, 49, 0
3, 33720, Note_on_c, 0, 57, 70
3, 33760, Note_on_c, 0, 66, 50
3, 33800, Note_on_c, 0, 66, 0
3, 33800, Note_on_c, 0, 54, 50
3, 33840, Note_on_c, 0, 54, 0
3, 33840, Note_on_c, 0, 57, 0
3, 33840, Note_on_c, 0, 57, 70
3, 33880, Note_on_c, 0, 66, 50
3, 33920, Note_on_c, 0, 66, 0
3, 33920, Note_on_c, 0, 54, 50
3, 33960, Note_on_c, 0, 54, 0
3, 33960, Note_on_c, 0, 57, 50
3, 34000, Note_on_c, 0, 57, 0
3, 34000, Note_on_c, 0, 66, 50
3, 34040, Note_on_c, 0, 66, 0
3, 34040, Note_on_c, 0, 54, 50
3, 34080, Note_on_c, 0, 54, 0
3, 34080, Note_on_c, 0, 57, 0
3, 34080, Note_on_c, 0, 56, 70
3, 34120, Note_on_c, 0, 66, 50
3, 34160, Note_on_c, 0, 66, 0
3, 34160, Note_on_c, 0, 54, 50
3, 34200, Note_on_c, 0, 54, 0
3, 34200, Note_on_c, 0, 56, 0
3, 34200, Note_on_c, 0, 62, 70
3, 34240, Note_on_c, 0, 66, 50
3, 34260, Note_on_c, 0, 54, 60
3, 34280, Note_on_c, 0, 66, 0
3, 34320, Note_on_c, 0, 54, 0
3, 34320, Note_on_c, 0, 62, 50
3, 34360, Note_on_c, 0, 62, 0
3, 34360, Note_on_c, 0, 66, 50
3, 34380, Note_on_c, 0, 58, 60
3, 34400, Note_on_c, 0, 66, 0
3, 34440, Note_on_c, 0, 58, 0
3, 34440, Note_on_c, 0, 62, 0
3, 34440, Note_on_c, 0, 61, 70
3, 34480, Note_on_c, 0, 66, 50
3, 34500, Note_on_c, 0, 58, 60
3, 34520, Note_on_c, 0, 66, 0
3, 34560, Note_on_c, 0, 58, 0
3, 34560, Note_on_c, 0, 61, 0
3, 42360, Note_on_c, 0, 61, 88
3, 42400, Note_on_c, 0, 63, 67
3, 42440, Note_on_c, 0, 63, 0
3, 42440, Note_on_c, 0, 51, 67
3, 42480, Note_on_c, 0, 51, 0
3, 42480, Note_on_c, 0, 61, 0
3, 42480, Note_on_c, 0, 60, 87
3, 42520, Note_on_c, 0, 63, 67
3, 42560, Note_on_c, 0, 63, 0
3, 42560, Note_on_c, 0, 51, 67
3, 42600, Note_on_c, 0, 51, 0
3, 42600, Note_on_c, 0, 60, 66
3, 42640, Note_on_c, 0, 60, 0
3, 42640, Note_on_c, 0, 63, 66
3, 42680, Note_on_c, 0, 63, 0
3, 42680, Note_on_c, 0, 51, 66
3, 42720, Note_on_c, 0, 51, 0
3, 42720, Note_on_c, 0, 60, 0
3, 42720, Note_on_c, 0, 59, 86
3, 42760, Note_on_c, 0, 63, 66
3, 42800, Note_on_c, 0, 63, 0
3, 42800, Note_on_c, 0, 51, 65
3, 42840, Note_on_c, 0, 51, 0
3, 42840, Note_on_c, 0, 59, 0
3, 42840, Note_on_c, 0, 58, 85
3, 42880, Note_on_c, 0, 63, 65
3, 42920, Note_on_c, 0, 63, 0
3, 42920, Note_on_c, 0, 51, 65
3, 42960, Note_on_c, 0, 51, 0
3, 42960, Note_on_c, 0, 58, 65
3, 43000, Note_on_c, 0, 58, 0
3, 43000, Note_on_c, 0, 63, 64
3, 43040, Note_on_c, 0, 63, 0
3, 43040, Note_on_c, 0, 51, 64
3, 43080, Note_on_c, 0, 51, 0
3, 43080, Note_on_c, 0, 58, 0
3, 43080, Note_on_c, 0, 62, 84
3, 43120, Note_on_c, 0, 63, 64
3, 43160, Note_on_c, 0, 63, 0
3, 43160, Note_on_c, 0, 51, 64
3, 43200, Note_on_c, 0, 51, 0
3, 43200, Note_on_c, 0, 62, 0
3, 43200, Note_on_c, 0, 61, 83
3, 43240, Note_on_c, 0, 63, 63
3, 43280, Note_on_c, 0, 63, 0
3, 43280, Note_on_c, 0, 51, 63
3, 43320, Note_on_c, 0, 51, 0
3, 43320, Note_on_c, 0, 61, 63
3, 43360, Note_on_c, 0, 61, 0
3, 43360, Note_on_c, 0, 63, 63
3, 43400, Note_on_c, 0, 63, 0
3, 43400, Note_on_c, 0, 51, 63
3, 43440, Note_on_c, 0, 51, 0
3, 43440, Note_on_c, 0, 61, 0
3, 43440, Note_on_c, 0, 59, 82
3, 43480, Note_on_c, 0, 63, 62
3, 43520, Note_on_c, 0, 63, 0
3, 43520, Note_on_c, 0, 51, 62
3, 43560, Note_on_c, 0, 51, 0
3, 43560, Note_on_c, 0, 59, 0
3, 43560, Note_on_c, 0, 58, 82
3, 43600, Note_on_c, 0, 63, 62
3, 43640, Note_on_c, 0, 63, 0
3, 43640, Note_on_c, 0, 51, 61
3, 43680, Note_on_c, 0, 51, 0
3, 43680, Note_on_c, 0, 58, 61
3, 43720, Note_on_c, 0, 58, 0
3, 43720, Note_on_c, 0, 63, 61
3, 43760, Note_on_c, 0, 63, 0
3, 43760, Note_on_c, 0, 51, 61
3, 43800, Note_on_c, 0, 51, 0
3, 43800, Note_on_c, 0, 58, 0
3, 43800, Note_on_c, 0, 62, 81
3, 43840, Note_on_c, 0, 63, 60
3, 43880, Note_on_c, 0, 63, 0
3, 43880, Note_on_c, 0, 51, 60
3, 43920, Note_on_c, 0, 51, 0
3, 43920, Note_on_c, 0, 62, 0
3, 43920, Note_on_c, 0, 61, 80
3, 43960, Note_on_c, 0, 64, 60
3, 44000, Note_on_c, 0, 64, 0
3, 44000, Note_on_c, 0, 52, 60
3, 44040, Note_on_c, 0, 52, 0
3, 44040, Note_on_c, 0, 61, 59
3, 44080, Note_on_c, 0, 61, 0
3, 44080, Note_on_c, 0, 64, 59
3, 44120, Note_on_c, 0, 64, 0
3, 44120, Note_on_c, 0, 52, 59
3, 44160, Note_on_c, 0, 52, 0
3, 44160, Note_on_c, 0, 61, 0
3, 44160, Note_on_c, 0, 59, 79
3, 44200, Note_on_c, 0, 64, 59
3, 44240, Note_on_c, 0, 64, 0
3, 44240, Note_on_c, 0, 52, 58
3, 44280, Note_on_c, 0, 52, 0
3, 44280, Note_on_c, 0, 59, 0
3, 44280, Note_on_c, 0, 58, 78
3, 44320, Note_on_c, 0, 64, 58
3, 44360, Note_on_c, 0, 64, 0
3, 44360, Note_on_c, 0, 52, 58
3, 44400, Note_on_c, 0, 52, 0
3, 44400, Note_on_c, 0, 58, 58
3, 44440, Note_on_c, 0, 58, 0
3, 44440, Note_on_c, 0, 64, 57
3, 44480, Note_on_c, 0, 64, 0
3, 44480, Note_on_c, 0, 52, 57
3, 44520, Note_on_c, 0, 52, 0
3, 44520, Note_on_c, 0, 58, 0
3, 44520, Note_on_c, 0, 55, 77
3, 44560, Note_on_c, 0, 64, 57
3, 44600, Note_on_c, 0, 64, 0
3, 44600, Note_on_c, 0, 52, 57
3, 44640, Note_on_c, 0, 52, 0
3, 44640, Note_on_c, 0, 55, 0
3, 44640, Note_on_c, 0, 54, 76
3, 44680, Note_on_c, 0, 64, 56
3, 44720, Note_on_c, 0, 64, 0
3, 44720, Note_on_c, 0, 52, 56
3, 44760, Note_on_c, 0, 52, 0
3, 44760, Note_on_c, 0, 54, 56
3, 44800, Note_on_c, 0, 54, 0
3, 44800, Note_on_c, 0, 64, 56
3, 44840, Note_on_c, 0, 64, 0
3, 44840, Note_on_c, 0, 52, 55
3, 44880, Note_on_c, 0, 52, 0
3, 44880, Note_on_c, 0, 54, 0
3, 44880, Note_on_c, 0, 55, 75
3, 44920, Note_on_c, 0, 64, 55
3, 44960, Note_on_c, 0, 64, 0
3, 44960, Note_on_c, 0, 52, 55
3, 45000, Note_on_c, 0, 52, 0
3, 45000, Note_on_c, 0, 55, 0
3, 45000, Note_on_c, 0, 54, 75
3, 45040, Note_on_c, 0, 64, 55
3, 45080, Note_on_c, 0, 64, 0
3, 45080, Note_on_c, 0, 52, 54
3, 45120, Note_on_c, 0, 52, 0
3, 45120, Note_on_c, 0, 54, 54
3, 45160, Note_on_c, 0, 54, 0
3, 45160, Note_on_c, 0, 64, 54
3, 45200, Note_on_c, 0, 64, 0
3, 45200, Note_on_c, 0, 52, 54
3, 45240, Note_on_c, 0, 54, 0
3, 45280, Note_on_c, 0, 52, 0
3, 45280, Note_on_c, 0, 55, 53
3, 45320, Note_on_c, 0, 55, 0
3, 45320, Note_on_c, 0, 47, 53
3, 45400, Note_on_c, 0, 47, 0
3, 45400, Note_on_c, 0, 54, 53
3, 45440, Note_on_c, 0, 54, 0
3, 45440, Note_on_c, 0, 46, 53
3, 45520, Note_on_c, 0, 46, 0
3, 45520, Note_on_c, 0, 54, 52
3, 45560, Note_on_c, 0, 54, 0
3, 45560, Note_on_c, 0, 46, 52
3, 45640, Note_on_c, 0, 46, 0
3, 45640, Note_on_c, 0, 55, 52
3, 45680, Note_on_c, 0, 55, 0
3, 45680, Note_on_c, 0, 47, 51
3, 45760, Note_on_c, 0, 47, 0
3, 45760, Note_on_c, 0, 54, 51
3, 45800, Note_on_c, 0, 54, 0
3, 45800, Note_on_c, 0, 46, 51
3, 46000, Note_on_c, 0, 46, 0
3, 46000, Note_on_c, 0, 54, 50
3, 46040, Note_on_c, 0, 54, 0
3, 46040, Note_on_c, 0, 46, 50
3, 46200, Note_on_c, 0, 46, 0
3, 51840, Note_on_c, 0, 61, 80
3, 51900, Note_on_c, 0, 56, 70
3, 51930, Note_on_c, 0, 56, 0
3, 51930, Note_on_c, 0, 53, 70
3, 51960, Note_on_c, 0, 53, 0
3, 51960, Note_on_c, 0, 49, 70
3, 52020, Note_on_c, 0, 49, 0
3, 52080, Note_on_c, 0, 61, 0
3, 52080, Note_on_c, 0, 56, 80
3, 52200, Note_on_c, 0, 56, 0
3, 52200, Note_on_c, 0, 58, 80
3, 52260, Note_on_c, 0, 54, 70
3, 52290, Note_on_c, 0, 54, 0
3, 52290, Note_on_c, 0, 51, 70
3, 52320, Note_on_c, 0, 51, 0
3, 52320, Note_on_c, 0, 49, 70
3, 52380, Note_on_c, 0, 49, 0
3, 52440, Note_on_c, 0, 58, 0
3, 52440, Note_on_c, 0, 54, 80
3, 52560, Note_on_c, 0, 54, 0
3, 52560, Note_on_c, 0, 63, 50
3, 52560, Note_on_c, 0, 59, 50
3, 52560, Note_on_c, 0, 54, 50
3, 52680, Note_on_c, 0, 54, 0
3, 52680, Note_on_c, 0, 59, 0
3, 52680, Note_on_c, 0, 63, 0
3, 52680, Note_on_c, 0, 64, 50
3, 52680, Note_on_c, 0, 61, 50
3, 52680, Note_on_c, 0, 55, 50
3, 52920, Note_on_c, 0, 55, 0
3, 52920, Note_on_c, 0, 61, 0
3, 52920, Note_on_c, 0, 64, 0
3, 52920, Note_on_c, 0, 63, 50
3, 52920, Note_on_c, 0, 59, 50
3, 52920, Note_on_c, 0, 54, 50
3, 53040, Note_on_c, 0, 54, 0
3, 53040, Note_on_c, 0, 59, 0
3, 53040, Note_on_c, 0, 63, 0
3, 53040, Note_on_c, 0, 61, 50
3, 53040, Note_on_c, 0, 55, 50
3, 53280, Note_on_c, 0, 55, 0
3, 53280, Note_on_c, 0, 61, 0
3, 53280, Note_on_c, 0, 59, 50
3, 53280, Note_on_c, 0, 54, 50
3, 53400, Note_on_c, 0, 54, 0
3, 53400, Note_on_c, 0, 59, 0
3, 53400, Note_on_c, 0, 61, 50
3, 53400, Note_on_c, 0, 58, 50
3, 53520, Note_on_c, 0, 58, 0
3, 53520, Note_on_c, 0, 61, 0
3, 53520, Note_on_c, 0, 63, 50
3, 53520, Note_on_c, 0, 59, 50
3, 53640, Note_on_c, 0, 59, 0
3, 53640, Note_on_c, 0, 63, 0
3, 53640, Note_on_c, 0, 64, 50
3, 53640, Note_on_c, 0, 59, 50
3, 53760, Note_on_c, 0, 68, 50
3, 53880, Note_on_c, 0, 68, 0
3, 53880, Note_on_c, 0, 59, 0
3, 53880, Note_on_c, 0, 64, 0
3, 53880, Note_on_c, 0, 59, 50
3, 53880, Note_on_c, 0, 63, 50
3, 53880, Note_on_c, 0, 66, 50
3, 54000, Note_on_c, 0, 66, 0
3, 54000, Note_on_c, 0, 63, 0
3, 54000, Note_on_c, 0, 59, 0
3, 54000, Note_on_c, 0, 63, 50
3, 54000, Note_on_c, 0, 59, 50
3, 54000, Note_on_c, 0, 54, 50
3, 54120, Note_on_c, 0, 54, 0
3, 54120, Note_on_c, 0, 59, 0
3, 54120, Note_on_c, 0, 63, 0
3, 54120, Note_on_c, 0, 61, 50
3, 54120, Note_on_c, 0, 58, 50
3, 54120, Note_on_c, 0, 52, 50
3, 54240, Note_on_c, 0, 52, 0
3, 54240, Note_on_c, 0, 58, 0
3, 54240, Note_on_c, 0, 61, 0
3, 54240, Note_on_c, 0, 59, 50
3, 54240, Note_on_c, 0, 54, 50
3, 54240, Note_on_c, 0, 51, 50
3, 54330, Note_on_c, 0, 51, 0
3, 54330, Note_on_c, 0, 54, 0
3, 54330, Note_on_c, 0, 59, 0
3, 54360, Note_on_c, 0, 56, 50
3, 54360, Note_on_c, 0, 54, 50
3, 54360, Note_on_c, 0, 51, 50
3, 54480, Note_on_c, 0, 51, 0
3, 54480, Note_on_c, 0, 54, 0
3, 54480, Note_on_c, 0, 56, 0
3, 54480, Note_on_c, 0, 58, 50
3, 54480, Note_on_c, 0, 54, 50
3, 54480, Note_on_c, 0, 49, 50
3, 54720, Note_on_c, 0, 49, 0
3, 54720, Note_on_c, 0, 54, 0
3, 54720, Note_on_c, 0, 58, 0
3, 54720, Note_on_c, 0, 56, 50
3, 54720, Note_on_c, 0, 54, 50
3, 54720, Note_on_c, 0, 51, 50
3, 54840, Note_on_c, 0, 51, 0
3, 54840, Note_on_c, 0, 54, 0
3, 54840, Note_on_c, 0, 56, 0
3, 54840, Note_on_c, 0, 59, 50
3, 54840, Note_on_c, 0, 54, 50
3, 54840, Note_on_c, 0, 51, 50
3, 55080, Note_on_c, 0, 51, 0
3, 55080, Note_on_c, 0, 54, 0
3, 55080, Note_on_c, 0, 59, 0
3, 55080, Note_on_c, 0, 58, 50
3, 55080, Note_on_c, 0, 54, 50
3, 55200, Note_on_c, 0, 54, 0
3, 55200, Note_on_c, 0, 58, 0
3, 55200, Note_on_c, 0, 60, 50
3, 55200, Note_on_c, 0, 54, 50
3, 55320, Note_on_c, 0, 54, 0
3, 55320, Note_on_c, 0, 60, 0
3, 55320, Note_on_c, 0, 61, 50
3, 55320, Note_on_c, 0, 56, 50
3, 55440, Note_on_c, 0, 56, 0
3, 55440, Note_on_c, 0, 61, 0
3, 55440, Note_on_c, 0, 66, 50
3, 55440, Note_on_c, 0, 58, 50
3, 55560, Note_on_c, 0, 58, 0
3, 55560, Note_on_c, 0, 60, 50
3, 55680, Note_on_c, 0, 60, 0
3, 55680, Note_on_c, 0, 66, 0
3, 55680, Note_on_c, 0, 65, 50
3, 55680, Note_on_c, 0, 61, 50
3, 55800, Note_on_c, 0, 61, 0
3, 55800, Note_on_c, 0, 65, 0
3, 55800, Note_on_c, 0, 63, 50
3, 55800, Note_on_c, 0, 59, 50
3, 55800, Note_on_c, 0, 53, 50
3, 55920, Note_on_c, 0, 53, 0
3, 55920, Note_on_c, 0, 59, 0
3, 55920, Note_on_c, 0, 63, 0
3, 55920, Note_on_c, 0, 61, 50
3, 55920, Note_on_c, 0, 58, 50
3, 55920, Note_on_c, 0, 54, 50
3, 56040, Note_on_c, 0, 54, 0
3, 56040, Note_on_c, 0, 58, 0
3, 56040, Note_on_c, 0, 61, 0
3, 56040, Note_on_c, 0, 58, 50
3, 56040, Note_on_c, 0, 54, 50
3, 56040, Note_on_c, 0, 49, 50
3, 56130, Note_on_c, 0, 49, 0
3, 56130, Note_on_c, 0, 54, 0
3, 56130, Note_on_c, 0, 58, 0
3, 56160, Note_on_c, 0, 54, 50
3, 56160, Note_on_c, 0, 51, 50
3, 56280, Note_on_c, 0, 51, 0
3, 56280, Note_on_c, 0, 54, 0
3, 56280, Note_on_c, 0, 56, 50
3, 56280, Note_on_c, 0, 52, 50
3, 56520, Note_on_c, 0, 52, 0
3, 56520, Note_on_c, 0, 56, 0
3, 56520, Note_on_c, 0, 54, 50
3, 56520, Note_on_c, 0, 51, 50
3, 56640, Note_on_c, 0, 60, 52
3, 56880, Note_on_c, 0, 60, 0
3, 56880, Note_on_c, 0, 51, 0
3, 56880, Note_on_c, 0, 54, 0
3, 56880, Note_on_c, 0, 59, 57
3, 56880, Note_on_c, 0, 50, 57
3, 56880, Note_on_c, 0, 53, 57
3, 57000, Note_on_c, 0, 50, 0
3, 57000, Note_on_c, 0, 59, 0
3, 57000, Note_on_c, 0, 61, 59
3, 57000, Note_on_c, 0, 59, 59
3, 57000, Note_on_c, 0, 49, 59
3, 57240, Note_on_c, 0, 49, 0
3, 57240, Note_on_c, 0, 53, 0
3, 57240, Note_on_c, 0, 61, 0
3, 57240, Note_on_c, 0, 59, 0
3, 57240, Note_on_c, 0, 64, 64
3, 57240, Note_on_c, 0, 61, 64
3, 57240, Note_on_c, 0, 58, 64
3, 57240, Note_on_c, 0, 52, 64
3, 57480, Note_on_c, 0, 52, 0
3, 57480, Note_on_c, 0, 64, 0
3, 57480, Note_on_c, 0, 61, 0
3, 57480, Note_on_c, 0, 58, 0
3, 57480, Note_on_c, 0, 68, 68
3, 57480, Note_on_c, 0, 64, 68
3, 57480, Note_on_c, 0, 59, 68
3, 57480, Note_on_c, 0, 56, 68
3, 57720, Note_on_c, 0, 56, 0
3, 57720, Note_on_c, 0, 68, 0
3, 57720, Note_on_c, 0, 64, 0
3, 57720, Note_on_c, 0, 59, 0
3, 57720, Note_on_c, 0, 64, 70
3, 57720, Note_on_c, 0, 59, 70
3, 57720, Note_on_c, 0, 56, 70
3, 57840, Note_on_c, 0, 56, 0
3, 57840, Note_on_c, 0, 59, 0
3, 57840, Note_on_c, 0, 64, 0
3, 57840, Note_on_c, 0, 61, 70
3, 57840, Note_on_c, 0, 59, 70
3, 57840, Note_on_c, 0, 52, 70
3, 57930, Note_on_c, 0, 52, 0
3, 57930, Note_on_c, 0, 59, 0
3, 57930, Note_on_c, 0, 61, 0
3, 57960, Note_on_c, 0, 59, 50
3, 57960, Note_on_c, 0, 54, 50
3, 57960, Note_on_c, 0, 51, 50
3, 58080, Note_on_c, 0, 51, 0
3, 58080, Note_on_c, 0, 54, 0
3, 58080, Note_on_c, 0, 59, 0
3, 58080, Note_on_c, 0, 61, 50
3, 58080, Note_on_c, 0, 55, 50
3, 58080, Note_on_c, 0, 52, 50
3, 58320, Note_on_c, 0, 52, 0
3, 58320, Note_on_c, 0, 55, 0
3, 58320, Note_on_c, 0, 61, 0
3, 58320, Note_on_c, 0, 59, 50
3, 58320, Note_on_c, 0, 54, 50
3, 58320, Note_on_c, 0, 51, 50
3, 58440, Note_on_c, 0, 51, 0
3, 58440, Note_on_c, 0, 54, 0
3, 58440, Note_on_c, 0, 59, 0
3, 58440, Note_on_c, 0, 60, 54
3, 58440, Note_on_c, 0, 55, 54
3, 58440, Note_on_c, 0, 52, 54
3, 58680, Note_on_c, 0, 52, 0
3, 58680, Note_on_c, 0, 55, 0
3, 58680, Note_on_c, 0, 60, 0
3, 58680, Note_on_c, 0, 48, 63
3, 58680, Note_on_c, 0, 53, 63
3, 58920, Note_on_c, 0, 48, 0
3, 58920, Note_on_c, 0, 49, 73
3, 59160, Note_on_c, 0, 49, 0
3, 59160, Note_on_c, 0, 53, 0
3, 59160, Note_on_c, 0, 55, 82
3, 59160, Note_on_c, 0, 50, 82
3, 59160, Note_on_c, 0, 47, 82
3, 59400, Note_on_c, 0, 47, 0
3, 59400, Note_on_c, 0, 50, 0
3, 59400, Note_on_c, 0, 55, 0
3, 59400, Note_on_c, 0, 49, 90
3, 59400, Note_on_c, 0, 56, 90
3, 59520, Note_on_c, 0, 59, 90
3, 59760, Note_on_c, 0, 59, 0
3, 59760, Note_on_c, 0, 56, 0
3, 59760, Note_on_c, 0, 49, 0
3, 59760, Note_on_c, 0, 58, 90
3, 59760, Note_on_c, 0, 54, 90
3, 59880, Note_on_c, 0, 61, 90
3, 60120, Note_on_c, 0, 61, 0
3, 60120, Note_on_c, 0, 54, 0
3, 60120, Note_on_c, 0, 58, 0
3, 60120, Note_on_c, 0, 54, 90
3, 60120, Note_on_c, 0, 59, 90
3, 60240, Note_on_c, 0, 66, 90
3, 60480, Note_on_c, 0, 66, 0
3, 60480, Note_on_c, 0, 59, 0
3, 60480, Note_on_c, 0, 54, 0
3, 61080, Note_on_c, 0, 63, 79
3, 61080, Note_on_c, 0, 59, 79
3, 61080, Note_on_c, 0, 54, 79
3, 61200, Note_on_c, 0, 54, 0
3, 61200, Note_on_c, 0, 59, 0
3, 61200, Note_on_c, 0, 63, 0
3, 61200, Note_on_c, 0, 54, 76
3, 61200, Note_on_c, 0, 61, 76
3, 61320, Note_on_c, 0, 61, 0
3, 61320, Note_on_c, 0, 54, 0
3, 61320, Note_on_c, 0, 59, 74
3, 61320, Note_on_c, 0, 54, 74
3, 61320, Note_on_c, 0, 51, 74
3, 61440, Note_on_c, 0, 51, 0
3, 61440, Note_on_c, 0, 54, 0
3, 61440, Note_on_c, 0, 59, 0
3, 61440, Note_on_c, 0, 53, 72
3, 61440, Note_on_c, 0, 56, 72
3, 61560, Note_on_c, 0, 56, 0
3, 61560, Note_on_c, 0, 53, 0
3, 61560, Note_on_c, 0, 54, 70
3, 61920, Note_on_c, 0, 54, 0
3, 61920, Note_on_c, 0, 62, 70
3, 61920, Note_on_c, 0, 59, 70
3, 62160, Note_on_c, 0, 62, 0
3, 62160, Note_on_c, 0, 61, 70
3, 62280, Note_on_c, 0, 61, 0
3, 62280, Note_on_c, 0, 59, 0
3, 62280, Note_on_c, 0, 55, 70
3, 62280, Note_on_c, 0, 61, 70
3, 62400, Note_on_c, 0, 55, 0
3, 62400, Note_on_c, 0, 54, 70
3, 62520, Note_on_c, 0, 61, 0
3, 62520, Note_on_c, 0, 59, 70
3, 62640, Note_on_c, 0, 59, 0
3, 62640, Note_on_c, 0, 54, 0
3, 64800, Note_on_c, 0, 59, 70
3, 64800, Note_on_c, 0, 52, 70
3, 64920, Note_on_c, 0, 59, 0
3, 64920, Note_on_c, 0, 57, 70
3, 65040, Note_on_c, 0, 57, 0
3, 65040, Note_on_c, 0, 55, 70
3, 65160, Note_on_c, 0, 55, 0
3, 65160, Note_on_c, 0, 52, 0
3, 65160, Note_on_c, 0, 55, 70
3, 65160, Note_on_c, 0, 52, 70
3, 65400, Note_on_c, 0, 55, 0
3, 65400, Note_on_c, 0, 54, 70
3, 65520, Note_on_c, 0, 54, 0
3, 65520, Note_on_c, 0, 52, 0
3, 65520, Note_on_c, 0, 62, 70
3, 65520, Note_on_c, 0, 59, 70
3, 65520, Note_on_c, 0, 54, 70
3, 65640, Note_on_c, 0, 54, 0
3, 65640, Note_on_c, 0, 59, 0
3, 65640, Note_on_c, 0, 62, 0
3, 65640, Note_on_c, 0, 64, 70
3, 65640, Note_on_c, 0, 61, 70
3, 65640, Note_on_c, 0, 55, 70
3, 65880, Note_on_c, 0, 55, 0
3, 65880, Note_on_c, 0, 61, 0
3, 65880, Note_on_c, 0, 64, 0
3, 65880, Note_on_c, 0, 62, 70
3, 65880, Note_on_c, 0, 59, 70
3, 65880, Note_on_c, 0, 54, 70
3, 66000, Note_on_c, 0, 54, 0
3, 66000, Note_on_c, 0, 59, 0
3, 66000, Note_on_c, 0, 62, 0
3, 66000, Note_on_c, 0, 61, 70
3, 66000, Note_on_c, 0, 55, 70
3, 66240, Note_on_c, 0, 55, 0
3, 66240, Note_on_c, 0, 61, 0
3, 66240, Note_on_c, 0, 62, 70
3, 66240, Note_on_c, 0, 57, 70
3, 66360, Note_on_c, 0, 57, 0
3, 66360, Note_on_c, 0, 62, 0
3, 66360, Note_on_c, 0, 64, 73
3, 66360, Note_on_c, 0, 61, 73
3, 66480, Note_on_c, 0, 61, 0
3, 66480, Note_on_c, 0, 64, 0
3, 66480, Note_on_c, 0, 66, 77
3, 66480, Note_on_c, 0, 62, 77
3, 66600, Note_on_c, 0, 62, 0
3, 66600, Note_on_c, 0, 66, 0
3, 67320, Note_on_c, 0, 59, 82
3, 67440, Note_on_c, 0, 59, 0
3, 67440, Note_on_c, 0, 60, 79
3, 67440, Note_on_c, 0, 52, 79
3, 67680, Note_on_c, 0, 52, 0
3, 67680, Note_on_c, 0, 60, 0
3, 67680, Note_on_c, 0, 51, 74
3, 67680, Note_on_c, 0, 59, 74
3, 67800, Note_on_c, 0, 59, 0
3, 67800, Note_on_c, 0, 51, 0
3, 67800, Note_on_c, 0, 62, 71
3, 67800, Note_on_c, 0, 59, 71
3, 67800, Note_on_c, 0, 50, 71
3, 68040, Note_on_c, 0, 50, 0
3, 68040, Note_on_c, 0, 59, 0
3, 68040, Note_on_c, 0, 62, 0
3, 68040, Note_on_c, 0, 61, 65
3, 68040, Note_on_c, 0, 57, 65
3, 68160, Note_on_c, 0, 57, 0
3, 68160, Note_on_c, 0, 61, 0
3, 68160, Note_on_c, 0, 69, 63
3, 68160, Note_on_c, 0, 66, 63
3, 68160, Note_on_c, 0, 59, 63
3, 68280, Note_on_c, 0, 59, 0
3, 68280, Note_on_c, 0, 66, 0
3, 68280, Note_on_c, 0, 69, 0
3, 68280, Note_on_c, 0, 67, 60
3, 68280, Note_on_c, 0, 64, 60
3, 68280, Note_on_c, 0, 59, 60
3, 68400, Note_on_c, 0, 59, 0
3, 68400, Note_on_c, 0, 64, 0
3, 68400, Note_on_c, 0, 67, 0
3, 68400, Note_on_c, 0, 66, 57
3, 68400, Note_on_c, 0, 58, 57
3, 68520, Note_on_c, 0, 58, 0
3, 68520, Note_on_c, 0, 66, 0
3, 68520, Note_on_c, 0, 59, 54
3, 68520, Note_on_c, 0, 62, 54
3, 68640, Note_on_c, 0, 62, 0
3, 68640, Note_on_c, 0, 59, 0
3, 68640, Note_on_c, 0, 52, 51
3, 68640, Note_on_c, 0, 55, 51
3, 68640, Note_on_c, 0, 60, 51
3, 68760, Note_on_c, 0, 60, 0
3, 68760, Note_on_c, 0, 55, 0
3, 68760, Note_on_c, 0, 52, 0
3, 68760, Note_on_c, 0, 58, 50
3, 68760, Note_on_c, 0, 54, 50
3, 69000, Note_on_c, 0, 54, 0
3, 69000, Note_on_c, 0, 58, 0
3, 69000, Note_on_c, 0, 54, 50
3, 69120, Note_on_c, 0, 54, 0
3, 69120, Note_on_c, 0, 55, 70
3, 69160, Note_on_c, 0, 62, 50
3, 69200, Note_on_c, 0, 62, 0
3, 69200, Note_on_c, 0, 50, 50
3, 69240, Note_on_c, 0, 50, 0
3, 69240, Note_on_c, 0, 55, 50
3, 69280, Note_on_c, 0, 55, 0
3, 69280, Note_on_c, 0, 62, 50
3, 69320, Note_on_c, 0, 62, 0
3, 69320, Note_on_c, 0, 50, 50
3, 69360, Note_on_c, 0, 50, 0
3, 69360, Note_on_c, 0, 55, 0
3, 69360, Note_on_c, 0, 54, 70
3, 69400, Note_on_c, 0, 62, 50
3, 69440, Note_on_c, 0, 62, 0
3, 69440, Note_on_c, 0, 50, 50
3, 69480, Note_on_c, 0, 50, 0
3, 69480, Note_on_c, 0, 54, 0
3, 69480, Note_on_c, 0, 59, 70
3, 69520, Note_on_c, 0, 62, 50
3, 69560, Note_on_c, 0, 62, 0
3, 69560, Note_on_c, 0, 50, 50
3, 69600, Note_on_c, 0, 50, 0
3, 69600, Note_on_c, 0, 59, 50
3, 69640, Note_on_c, 0, 59, 0
3, 69640, Note_on_c, 0, 62, 50
3, 69680, Note_on_c, 0, 62, 0
3, 69680, Note_on_c, 0, 50, 50
3, 69720, Note_on_c, 0, 50, 0
3, 69720, Note_on_c, 0, 59, 0
3, 69720, Note_on_c, 0, 57, 70
3, 69760, Note_on_c, 0, 62, 50
3, 69800, Note_on_c, 0, 62, 0
3, 69800, Note_on_c, 0, 50, 50
3, 69840, Note_on_c, 0, 50, 0
3, 69840, Note_on_c, 0, 57, 0
3, 69840, Note_on_c, 0, 55, 70
3, 69880, Note_on_c, 0, 62, 50
3, 69920, Note_on_c, 0, 62, 0
3, 69920, Note_on_c, 0, 50, 50
3, 69960, Note_on_c, 0, 50, 0
3, 69960, Note_on_c, 0, 55, 50
3, 70000, Note_on_c, 0, 55, 0
3, 70000, Note_on_c, 0, 62, 50
3, 70040, Note_on_c, 0, 62, 0
3, 70040, Note_on_c, 0, 50, 50
3, 70080, Note_on_c, 0, 50, 0
3, 70080, Note_on_c, 0, 55, 0
3, 70080, Note_on_c, 0, 54, 70
3, 70120, Note_on_c, 0, 62, 50
3, 70160, Note_on_c, 0, 62, 0
3, 70160, Note_on_c, 0, 50, 50
3, 70200, Note_on_c, 0, 50, 0
3, 70200, Note_on_c, 0, 54, 0
3, 70200, Note_on_c, 0, 52, 70
3, 70240, Note_on_c, 0, 62, 50
3, 70280, Note_on_c, 0, 62, 0
3, 70280, Note_on_c, 0, 50, 50
3, 70320, Note_on_c, 0, 50, 0
3, 70320, Note_on_c, 0, 52, 50
3, 70360, Note_on_c, 0, 52, 0
3, 70360, Note_on_c, 0, 62, 50
3, 70400, Note_on_c, 0, 62, 0
3, 70400, Note_on_c, 0, 50, 50
3, 70440, Note_on_c, 0, 50, 0
3, 70440, Note_on_c, 0, 52, 0
3, 70440, Note_on_c, 0, 53, 70
3, 70480, Note_on_c, 0, 61, 50
3, 70520, Note_on_c, 0, 61, 0
3, 70520, Note_on_c, 0, 49, 50
3, 70560, Note_on_c, 0, 49, 0
3, 70560, Note_on_c, 0, 53, 0
3, 70560, Note_on_c, 0, 54, 70
3, 70600, Note_on_c, 0, 61, 50
3, 70640, Note_on_c, 0, 61, 0
3, 70640, Note_on_c, 0, 49, 51
3, 70680, Note_on_c, 0, 49, 0
3, 70680, Note_on_c, 0, 54, 51
3, 70720, Note_on_c, 0, 54, 0
3, 70720, Note_on_c, 0, 61, 52
3, 70760, Note_on_c, 0, 61, 0
3, 70760, Note_on_c, 0, 49, 53
3, 70800, Note_on_c, 0, 49, 0
3, 70800, Note_on_c, 0, 54, 0
3, 70800, Note_on_c, 0, 56, 73
3, 70840, Note_on_c, 0, 61, 54
3, 70880, Note_on_c, 0, 61, 0
3, 70880, Note_on_c, 0, 49, 55
3, 70920, Note_on_c, 0, 49, 0
3, 70920, Note_on_c, 0, 56, 0
3, 70920, Note_on_c, 0, 58, 75
3, 70960, Note_on_c, 0, 61, 56
3, 71000, Note_on_c, 0, 61, 0
3, 71000, Note_on_c, 0, 49, 57
3, 71040, Note_on_c, 0, 49, 0
3, 71040, Note_on_c, 0, 58, 57
3, 71080, Note_on_c, 0, 58, 0
3, 71080, Note_on_c, 0, 61, 58
3, 71120, Note_on_c, 0, 61, 0
3, 71120, Note_on_c, 0, 49, 59
3, 71160, Note_on_c, 0, 49, 0
3, 71160, Note_on_c, 0, 58, 0
3, 71160, Note_on_c, 0, 60, 79
3, 71200, Note_on_c, 0, 61, 60
3, 71240, Note_on_c, 0, 61, 0
3, 71240, Note_on_c, 0, 49, 60
3, 71280, Note_on_c, 0, 49, 0
3, 71280, Note_on_c, 0, 60, 0
3, 71280, Note_on_c, 0, 61, 81
3, 71320, Note_on_c, 0, 49, 62
3, 71360, Note_on_c, 0, 49, 0
3, 71360, Note_on_c, 0, 61, 62
3, 71400, Note_on_c, 0, 61, 0
3, 71400, Note_on_c, 0, 49, 63
3, 71440, Note_on_c, 0, 49, 0
3, 71440, Note_on_c, 0, 61, 64
3, 71480, Note_on_c, 0, 61, 0
3, 71480, Note_on_c, 0, 49, 64
3, 71520, Note_on_c, 0, 49, 0
3, 71520, Note_on_c, 0, 61, 65
3, 71560, Note_on_c, 0, 61, 0
3, 71560, Note_on_c, 0, 49, 66
3, 71600, Note_on_c, 0, 49, 0
3, 71600, Note_on_c, 0, 61, 66
3, 71640, Note_on_c, 0, 61, 0
3, 71640, Note_on_c, 0, 61, 0
3, 71640, Note_on_c, 0, 49, 67
3, 71680, Note_on_c, 0, 49, 0
3, 71680, Note_on_c, 0, 61, 68
3, 71720, Note_on_c, 0, 61, 0
3, 71720, Note_on_c, 0, 49, 68
3, 71760, Note_on_c, 0, 49, 0
3, 71760, Note_on_c, 0, 61, 69
3, 71800, Note_on_c, 0, 61, 0
3, 71800, Note_on_c, 0, 49, 69
3, 71840, Note_on_c, 0, 49, 0
3, 71840, Note_on_c, 0, 61, 70
3, 71880, Note_on_c, 0, 61, 0
3, 71880, Note_on_c, 0, 64, 90
3, 71920, Note_on_c, 0, 67, 70
3, 71960, Note_on_c, 0, 67, 0
3, 71960, Note_on_c, 0, 54, 70
3, 72000, Note_on_c, 0, 54, 0
3, 72000, Note_on_c, 0, 64, 0
3, 72000, Note_on_c, 0, 64, 90
3, 72040, Note_on_c, 0, 67, 70
3, 72080, Note_on_c, 0, 67, 0
3, 72080, Note_on_c, 0, 54, 70
3, 72120, Note_on_c, 0, 54, 0
3, 72120, Note_on_c, 0, 64, 0
3, 72120, Note_on_c, 0, 62, 90
3, 72160, Note_on_c, 0, 66, 70
3, 72200, Note_on_c, 0, 66, 0
3, 72200, Note_on_c, 0, 54, 70
3, 72240, Note_on_c, 0, 54, 0
3, 72240, Note_on_c, 0, 62, 0
3, 72240, Note_on_c, 0, 61, 90
3, 72280, Note_on_c, 0, 64, 70
3, 72320, Note_on_c, 0, 64, 0
3, 72320, Note_on_c, 0, 54, 70
3, 72360, Note_on_c, 0, 54, 0
3, 72360, Note_on_c, 0, 61, 0
3, 72360, Note_on_c, 0, 61, 90
3, 72400, Note_on_c, 0, 64, 70
3, 72440, Note_on_c, 0, 64, 0
3, 72440, Note_on_c, 0, 54, 70
3, 72480, Note_on_c, 0, 54, 0
3, 72480, Note_on_c, 0, 61, 70
3, 72520, Note_on_c, 0, 61, 0
3, 72520, Note_on_c, 0, 64, 70
3, 72560, Note_on_c, 0, 64, 0
3, 72560, Note_on_c, 0, 54, 70
3, 72600, Note_on_c, 0, 54, 0
3, 72600, Note_on_c, 0, 61, 0
3, 72600, Note_on_c, 0, 60, 90
3, 72640, Note_on_c, 0, 63, 70
3, 72680, Note_on_c, 0, 63, 0
3, 72680, Note_on_c, 0, 54, 70
3, 72720, Note_on_c, 0, 54, 0
3, 72720, Note_on_c, 0, 60, 0
3, 72720, Note_on_c, 0, 60, 90
3, 72760, Note_on_c, 0, 63, 70
3, 72800, Note_on_c, 0, 63, 0
3, 72800, Note_on_c, 0, 54, 70
3, 72840, Note_on_c, 0, 54, 0
3, 72840, Note_on_c, 0, 60, 0
3, 72840, Note_on_c, 0, 59, 89
3, 72880, Note_on_c, 0, 62, 69
3, 72920, Note_on_c, 0, 62, 0
3, 72920, Note_on_c, 0, 54, 68
3, 72960, Note_on_c, 0, 54, 0
3, 72960, Note_on_c, 0, 59, 0
3, 72960, Note_on_c, 0, 57, 88
3, 73000, Note_on_c, 0, 61, 67
3, 73040, Note_on_c, 0, 61, 0
3, 73040, Note_on_c, 0, 54, 67
3, 73080, Note_on_c, 0, 54, 0
3, 73080, Note_on_c, 0, 57, 0
3, 73080, Note_on_c, 0, 57, 86
3, 73120, Note_on_c, 0, 61, 66
3, 73160, Note_on_c, 0, 61, 0
3, 73160, Note_on_c, 0, 54, 65
3, 73200, Note_on_c, 0, 54, 0
3, 73200, Note_on_c, 0, 57, 0
3, 73200, Note_on_c, 0, 57, 85
3, 73240, Note_on_c, 0, 61, 64
3, 73280, Note_on_c, 0, 61, 0
3, 73280, Note_on_c, 0, 54, 64
3, 73320, Note_on_c, 0, 54, 0
3, 73320, Note_on_c, 0, 57, 0
3, 73320, Note_on_c, 0, 57, 83
3, 73360, Note_on_c, 0, 59, 63
3, 73400, Note_on_c, 0, 59, 0
3, 73400, Note_on_c, 0, 47, 62
3, 73440, Note_on_c, 0, 47, 0
3, 73440, Note_on_c, 0, 57, 0
3, 73440, Note_on_c, 0, 56, 82
3, 73480, Note_on_c, 0, 59, 61
3, 73520, Note_on_c, 0, 59, 0
3, 73520, Note_on_c, 0, 47, 61
3, 73560, Note_on_c, 0, 47, 0
3, 73560, Note_on_c, 0, 56, 60
3, 73600, Note_on_c, 0, 56, 0
3, 73600, Note_on_c, 0, 59, 60
3, 73640, Note_on_c, 0, 59, 0
3, 73640, Note_on_c, 0, 47, 59
3, 73680, Note_on_c, 0, 47, 0
3, 73680, Note_on_c, 0, 56, 0
3, 73680, Note_on_c, 0, 55, 59
3, 73720, Note_on_c, 0, 55, 0
3, 73720, Note_on_c, 0, 59, 58
3, 73760, Note_on_c, 0, 59, 0
3, 73760, Note_on_c, 0, 47, 58
3, 73800, Note_on_c, 0, 47, 0
3, 74760, Note_on_c, 0, 58, 70
3, 74800, Note_on_c, 0, 59, 50
3, 74840, Note_on_c, 0, 59, 0
3, 74840, Note_on_c, 0, 47, 50
3, 74880, Note_on_c, 0, 47, 0
3, 74880, Note_on_c, 0, 58, 0
3, 74880, Note_on_c, 0, 57, 70
3, 74920, Note_on_c, 0, 59, 50
3, 74960, Note_on_c, 0, 59, 0
3, 74960, Note_on_c, 0, 47, 50
3, 75000, Note_on_c, 0, 47, 0
3, 75000, Note_on_c, 0, 57, 50
3, 75040, Note_on_c, 0, 57, 0
3, 75040, Note_on_c, 0, 59, 50
3, 75080, Note_on_c, 0, 59, 0
3, 75080, Note_on_c, 0, 47, 50
3, 75120, Note_on_c, 0, 47, 0
3, 75120, Note_on_c, 0, 57, 0
3, 75120, Note_on_c, 0, 55, 70
3, 75160, Note_on_c, 0, 59, 50
3, 75200, Note_on_c, 0, 59, 0
3, 75200, Note_on_c, 0, 47, 50
3, 75240, Note_on_c, 0, 47, 0
3, 75240, Note_on_c, 0, 55, 0
3, 76200, Note_on_c, 0, 58, 70
3, 76240, Note_on_c, 0, 59, 50
3, 76280, Note_on_c, 0, 59, 0
3, 76280, Note_on_c, 0, 47, 50
3, 76320, Note_on_c, 0, 47, 0
3, 76320, Note_on_c, 0, 58, 0
3, 76320, Note_on_c, 0, 57, 70
3, 76360, Note_on_c, 0, 59, 50
3, 76400, Note_on_c, 0, 59, 0
3, 76400, Note_on_c, 0, 47, 50
3, 76440, Note_on_c, 0, 47, 0
3, 76440, Note_on_c, 0, 57, 50
3, 76480, Note_on_c, 0, 57, 0
3, 76480, Note_on_c, 0, 59, 50
3, 76520, Note_on_c, 0, 59, 0
3, 76520, Note_on_c, 0, 47, 50
3, 76560, Note_on_c, 0, 47, 0
3, 76560, Note_on_c, 0, 57, 0
3, 76560, Note_on_c, 0, 55, 70
3, 76600, Note_on_c, 0, 59, 50
3, 76640, Note_on_c, 0, 59, 0
3, 76640, Note_on_c, 0, 47, 50
3, 76680, Note_on_c, 0, 47, 0
3, 76680, Note_on_c, 0, 55, 0
3, 76680, Note_on_c, 0, 54, 70
3, 76720, Note_on_c, 0, 59, 50
3, 76760, Note_on_c, 0, 59, 0
3, 76760, Note_on_c, 0, 47, 50
3, 76800, Note_on_c, 0, 47, 0
3, 76800, Note_on_c, 0, 54, 50
3, 76840, Note_on_c, 0, 54, 0
3, 76840, Note_on_c, 0, 59, 50
3, 76880, Note_on_c, 0, 59, 0
3, 76880, Note_on_c, 0, 47, 50
3, 76920, Note_on_c, 0, 47, 0
3, 76920, Note_on_c, 0, 54, 0
3, 76920, Note_on_c, 0, 55, 70
3, 76960, Note_on_c, 0, 59, 50
3, 77000, Note_on_c, 0, 59, 0
3, 77000, Note_on_c, 0, 47, 50
3, 77040, Note_on_c, 0, 47, 0
3, 77040, Note_on_c, 0, 55, 0
3, 77040, Note_on_c, 0, 54, 70
3, 77080, Note_on_c, 0, 59, 50
3, 77120, Note_on_c, 0, 59, 0
3, 77120, Note_on_c, 0, 47, 50
3, 77160, Note_on_c, 0, 47, 0
3, 77160, Note_on_c, 0, 54, 50
3, 77200, Note_on_c, 0, 54, 0
3, 77200, Note_on_c, 0, 59, 50
3, 77240, Note_on_c, 0, 59, 0
3, 77240, Note_on_c, 0, 47, 50
3, 77280, Note_on_c, 0, 47, 0
3, 77280, Note_on_c, 0, 54, 0
3, 77280, Note_on_c, 0, 52, 70
3, 77320, Note_on_c, 0, 59, 50
3, 77360, Note_on_c, 0, 59, 0
3, 77360, Note_on_c, 0, 47, 50
3, 77400, Note_on_c, 0, 47, 0
3, 77400, Note_on_c, 0, 52, 0
3, 77400, Note_on_c, 0, 51, 70
3, 77440, Note_on_c, 0, 59, 50
3, 77480, Note_on_c, 0, 59, 0
3, 77480, Note_on_c, 0, 47, 50
3, 77520, Note_on_c, 0, 47, 0
3, 77520, Note_on_c, 0, 51, 50
3, 77560, Note_on_c, 0, 51, 0
3, 77560, Note_on_c, 0, 59, 50
3, 77600, Note_on_c, 0, 59, 0
3, 77600, Note_on_c, 0, 47, 50
3, 77640, Note_on_c, 0, 47, 0
3, 77640, Note_on_c, 0, 51, 0
3, 77640, Note_on_c, 0, 49, 70
3, 77680, Note_on_c, 0, 59, 50
3, 77720, Note_on_c, 0, 59, 0
3, 77720, Note_on_c, 0, 47, 50
3, 77760, Note_on_c, 0, 47, 0
3, 77760, Note_on_c, 0, 49, 0
3, 77760, Note_on_c, 0, 51, 70
3, 77800, Note_on_c, 0, 59, 50
3, 77840, Note_on_c, 0, 59, 0
3, 77840, Note_on_c, 0, 47, 50
3, 77880, Note_on_c, 0, 47, 0
3, 77880, Note_on_c, 0, 51, 50
3, 77920, Note_on_c, 0, 51, 0
3, 77920, Note_on_c, 0, 59, 50
3, 77960, Note_on_c, 0, 59, 0
3, 77960, Note_on_c, 0, 47, 50
3, 78000, Note_on_c, 0, 47, 0
3, 78000, Note_on_c, 0, 51, 50
3, 78040, Note_on_c, 0, 51, 0
3, 78040, Note_on_c, 0, 59, 50
3, 78080, Note_on_c, 0, 59, 0
3, 78080, Note_on_c, 0, 47, 50
3, 78120, Note_on_c, 0, 47, 0
3, 78120, Note_on_c, 0, 51, 50
3, 78160, Note_on_c, 0, 51, 0
3, 78160, Note_on_c, 0, 59, 50
3, 78200, Note_on_c, 0, 59, 0
3, 78200, Note_on_c, 0, 47, 50
3, 78240, Note_on_c, 0, 47, 0
3, 78240, Note_on_c, 0, 51, 50
3, 78280, Note_on_c, 0, 51, 0
3, 78280, Note_on_c, 0, 59, 50
3, 78320, Note_on_c, 0, 59, 0
3, 78320, Note_on_c, 0, 47, 50
3, 78360, Note_on_c, 0, 47, 0
3, 78360, Note_on_c, 0, 51, 50
3, 78400, Note_on_c, 0, 51, 0
3, 78400, Note_on_c, 0, 59, 50
3, 78440, Note_on_c, 0, 47, 50
3, 78480, Note_on_c, 0, 51, 0
3, 78480, Note_on_c, 0, 51, 50
3, 79200, Note_on_c, 0, 51, 0
3, 79200, Note_on_c, 0, 47, 0
3, 79200, Note_on_c, 0, 59, 0
3, 79200, End_track
4, 0, Start_track
4, 0, Title_t, "L Bass"
4, 0, Program_c, 0, 0
4, 0, Control_c, 0, 7, 115
4, 0, Control_c, 0, 10, 32
4, 0, Note_on_c, 0, 47, 55
4, 60, Note_on_c, 0, 47, 0
4, 180, Note_on_c, 0, 62, 55
4, 240, Note_on_c, 0, 62, 0
4, 240, Note_on_c, 0, 59, 55
4, 300, Note_on_c, 0, 59, 0
4, 300, Note_on_c, 0, 54, 55
4, 360, Note_on_c, 0, 54, 0
4, 360, Note_on_c, 0, 47, 55
4, 420, Note_on_c, 0, 47, 0
4, 540, Note_on_c, 0, 63, 55
4, 600, Note_on_c, 0, 63, 0
4, 600, Note_on_c, 0, 59, 55
4, 660, Note_on_c, 0, 59, 0
4, 660, Note_on_c, 0, 54, 55
4, 720, Note_on_c, 0, 54, 0
4, 720, Note_on_c, 0, 39, 55
4, 780, Note_on_c, 0, 39, 0
4, 900, Note_on_c, 0, 63, 55
4, 960, Note_on_c, 0, 63, 0
4, 960, Note_on_c, 0, 59, 55
4, 1020, Note_on_c, 0, 59, 0
4, 1020, Note_on_c, 0, 54, 55
4, 1080, Note_on_c, 0, 54, 0
4, 1080, Note_on_c, 0, 39, 55
4, 1140, Note_on_c, 0, 39, 0
4, 1260, Note_on_c, 0, 59, 55
4, 1320, Note_on_c, 0, 59, 0
4, 1320, Note_on_c, 0, 54, 55
4, 1380, Note_on_c, 0, 54, 0
4, 1380, Note_on_c, 0, 51, 55
4, 1440, Note_on_c, 0, 51, 0
4, 1440, Note_on_c, 0, 47, 55
4, 1500, Note_on_c, 0, 47, 0
4, 1620, Note_on_c, 0, 56, 55
4, 1680, Note_on_c, 0, 56, 0
4, 1680, Note_on_c, 0, 54, 55
4, 1740, Note_on_c, 0, 54, 0
4, 1740, Note_on_c, 0, 51, 55
4, 1800, Note_on_c, 0, 51, 0
4, 1800, Note_on_c, 0, 44, 55
4, 1860, Note_on_c, 0, 44, 0
4, 1980, Note_on_c, 0, 56, 55
4, 2040, Note_on_c, 0, 56, 0
4, 2040, Note_on_c, 0, 54, 55
4, 2100, Note_on_c, 0, 54, 0
4, 2100, Note_on_c, 0, 51, 55
4, 2160, Note_on_c, 0, 51, 0
4, 2160, Note_on_c, 0, 37, 55
4, 2220, Note_on_c, 0, 37, 0
4, 2340, Note_on_c, 0, 61, 55
4, 2400, Note_on_c, 0, 61, 0
4, 2400, Note_on_c, 0, 53, 55
4, 2460, Note_on_c, 0, 53, 0
4, 2460, Note_on_c, 0, 49, 55
4, 2520, Note_on_c, 0, 49, 0
4, 2520, Note_on_c, 0, 42, 55
4, 2580, Note_on_c, 0, 42, 0
4, 2700, Note_on_c, 0, 58, 55
4, 2760, Note_on_c, 0, 58, 0
4, 2760, Note_on_c, 0, 49, 55
4, 2820, Note_on_c, 0, 49, 0
4, 2820, Note_on_c, 0, 46, 55
4, 2880, Note_on_c, 0, 46, 0
4, 2880, Note_on_c, 0, 35, 55
4, 2940, Note_on_c, 0, 35, 0
4, 3060, Note_on_c, 0, 56, 55
4, 3120, Note_on_c, 0, 56, 0
4, 3120, Note_on_c, 0, 51, 55
4, 3180, Note_on_c, 0, 51, 0
4, 3180, Note_on_c, 0, 47, 55
4, 3240, Note_on_c, 0, 47, 0
4, 3240, Note_on_c, 0, 33, 55
4, 3300, Note_on_c, 0, 33, 0
4, 3420, Note_on_c, 0, 57, 60
4, 3480, Note_on_c, 0, 57, 0
4, 3480, Note_on_c, 0, 51, 62
4, 3540, Note_on_c, 0, 51, 0
4, 3540, Note_on_c, 0, 47, 63
4, 3600, Note_on_c, 0, 47, 0
4, 3600, Note_on_c, 0, 32, 65
4, 3660, Note_on_c, 0, 32, 0
4, 3780, Note_on_c, 0, 56, 70
4, 3840, Note_on_c, 0, 56, 0
4, 3840, Note_on_c, 0, 50, 72
4, 3900, Note_on_c, 0, 50, 0
4, 3900, Note_on_c, 0, 44, 74
4, 3960, Note_on_c, 0, 44, 0
4, 3960, Note_on_c, 0, 34, 75
4, 4020, Note_on_c, 0, 34, 0
4, 4140, Note_on_c, 0, 49, 73
4, 4200, Note_on_c, 0, 49, 0
4, 4200, Note_on_c, 0, 42, 72
4, 4260, Note_on_c, 0, 42, 0
4, 4260, Note_on_c, 0, 35, 71
4, 4380, Note_on_c, 0, 35, 0
4, 4500, Note_on_c, 0, 51, 68
4, 4560, Note_on_c, 0, 51, 0
4, 4560, Note_on_c, 0, 47, 67
4, 4620, Note_on_c, 0, 47, 0
4, 4620, Note_on_c, 0, 35, 66
4, 4740, Note_on_c, 0, 35, 0
4, 4860, Note_on_c, 0, 50, 62
4, 4920, Note_on_c, 0, 50, 0
4, 4920, Note_on_c, 0, 47, 61
4, 4980, Note_on_c, 0, 47, 0
4, 4980, Note_on_c, 0, 37, 61
4, 5100, Note_on_c, 0, 37, 0
4, 5220, Note_on_c, 0, 47, 57
4, 5280, Note_on_c, 0, 47, 0
4, 5280, Note_on_c, 0, 37, 56
4, 5340, Note_on_c, 0, 37, 0
4, 5340, Note_on_c, 0, 30, 55
4, 5460, Note_on_c, 0, 30, 0
4, 5580, Note_on_c, 0, 46, 55
4, 5640, Note_on_c, 0, 46, 0
4, 5640, Note_on_c, 0, 37, 55
4, 5700, Note_on_c, 0, 37, 0
4, 5700, Note_on_c, 0, 30, 55
4, 5760, Note_on_c, 0, 30, 0
4, 5760, Note_on_c, 0, 47, 55
4, 5820, Note_on_c, 0, 47, 0
4, 5940, Note_on_c, 0, 62, 55
4, 6000, Note_on_c, 0, 62, 0
4, 6000, Note_on_c, 0, 59, 55
4, 6060, Note_on_c, 0, 59, 0
4, 6060, Note_on_c, 0, 54, 55
4, 6120, Note_on_c, 0, 54, 0
4, 6120, Note_on_c, 0, 47, 55
4, 6180, Note_on_c, 0, 47, 0
4, 6300, Note_on_c, 0, 63, 55
4, 6360, Note_on_c, 0, 63, 0
4, 6360, Note_on_c, 0, 59, 55
4, 6420, Note_on_c, 0, 59, 0
4, 6420, Note_on_c, 0, 54, 55
4, 6480, Note_on_c, 0, 54, 0
4, 6480, Note_on_c, 0, 39, 55
4, 6540, Note_on_c, 0, 39, 0
4, 6660, Note_on_c, 0, 63, 55
4, 6720, Note_on_c, 0, 63, 0
4, 6720, Note_on_c, 0, 59, 55
4, 6780, Note_on_c, 0, 59, 0
4, 6780, Note_on_c, 0, 54, 55
4, 6840, Note_on_c, 0, 54, 0
4, 6840, Note_on_c, 0, 39, 55
4, 6900, Note_on_c, 0, 39, 0
4, 7020, Note_on_c, 0, 59, 55
4, 7080, Note_on_c, 0, 59, 0
4, 7080, Note_on_c, 0, 54, 55
4, 7140, Note_on_c, 0, 54, 0
4, 7140, Note_on_c, 0, 51, 55
4, 7200, Note_on_c, 0, 51, 0
4, 7200, Note_on_c, 0, 47, 55
4, 7260, Note_on_c, 0, 47, 0
4, 7380, Note_on_c, 0, 56, 55
4, 7440, Note_on_c, 0, 56, 0
4, 7440, Note_on_c, 0, 54, 55
4, 7500, Note_on_c, 0, 54, 0
4, 7500, Note_on_c, 0, 51, 55
4, 7560, Note_on_c, 0, 51, 0
4, 7560, Note_on_c, 0, 44, 55
4, 7620, Note_on_c, 0, 44, 0
4, 7740, Note_on_c, 0, 56, 55
4, 7800, Note_on_c, 0, 56, 0
4, 7800, Note_on_c, 0, 54, 55
4, 7860, Note_on_c, 0, 54, 0
4, 7860, Note_on_c, 0, 51, 55
4, 7920, Note_on_c, 0, 51, 0
4, 7920, Note_on_c, 0, 37, 55
4, 7980, Note_on_c, 0, 37, 0
4, 8100, Note_on_c, 0, 61, 55
4, 8160, Note_on_c, 0, 61, 0
4, 8160, Note_on_c, 0, 53, 55
4, 8220, Note_on_c, 0, 53, 0
4, 8220, Note_on_c, 0, 49, 55
4, 8280, Note_on_c, 0, 49, 0
4, 8280, Note_on_c, 0, 42, 55
4, 8340, Note_on_c, 0, 42, 0
4, 8460, Note_on_c, 0, 58, 55
4, 8520, Note_on_c, 0, 58, 0
4, 8520, Note_on_c, 0, 49, 55
4, 8580, Note_on_c, 0, 49, 0
4, 8580, Note_on_c, 0, 46, 55
4, 8640, Note_on_c, 0, 46, 0
4, 8640, Note_on_c, 0, 35, 55
4, 8700, Note_on_c, 0, 35, 0
4, 8820, Note_on_c, 0, 56, 55
4, 8880, Note_on_c, 0, 56, 0
4, 8880, Note_on_c, 0, 51, 55
4, 8940, Note_on_c, 0, 51, 0
4, 8940, Note_on_c, 0, 47, 55
4, 9000, Note_on_c, 0, 47, 0
4, 9000, Note_on_c, 0, 33, 55
4, 9060, Note_on_c, 0, 33, 0
4, 9180, Note_on_c, 0, 57, 60
4, 9240, Note_on_c, 0, 57, 0
4, 9240, Note_on_c, 0, 51, 62
4, 9300, Note_on_c, 0, 51, 0
4, 9300, Note_on_c, 0, 47, 63
4, 9360, Note_on_c, 0, 47, 0
4, 9360, Note_on_c, 0, 32, 65
4, 9420, Note_on_c, 0, 32, 0
4, 9540, Note_on_c, 0, 56, 70
4, 9600, Note_on_c, 0, 56, 0
4, 9600, Note_on_c, 0, 50, 72
4, 9660, Note_on_c, 0, 50, 0
4, 9660, Note_on_c, 0, 44, 74
4, 9720, Note_on_c, 0, 44, 0
4, 9720, Note_on_c, 0, 34, 75
4, 9780, Note_on_c, 0, 34, 0
4, 9900, Note_on_c, 0, 49, 73
4, 9960, Note_on_c, 0, 49, 0
4, 9960, Note_on_c, 0, 42, 72
4, 10020, Note_on_c, 0, 42, 0
4, 10020, Note_on_c, 0, 35, 71
4, 10140, Note_on_c, 0, 35, 0
4, 10260, Note_on_c, 0, 51, 68
4, 10320, Note_on_c, 0, 51, 0
4, 10320, Note_on_c, 0, 47, 67
4, 10380, Note_on_c, 0, 47, 0
4, 10380, Note_on_c, 0, 35, 66
4, 10500, Note_on_c, 0, 35, 0
4, 10620, Note_on_c, 0, 50, 62
4, 10680, Note_on_c, 0, 50, 0
4, 10680, Note_on_c, 0, 47, 61
4, 10740, Note_on_c, 0, 47, 0
4, 10740, Note_on_c, 0, 37, 61
4, 10860, Note_on_c, 0, 37, 0
4, 10980, Note_on_c, 0, 47, 57
4, 11040, Note_on_c, 0, 47, 0
4, 11040, Note_on_c, 0, 37, 56
4, 11100, Note_on_c, 0, 37, 0
4, 11100, Note_on_c, 0, 30, 55
4, 11220, Note_on_c, 0, 30, 0
4, 11340, Note_on_c, 0, 46, 55
4, 11400, Note_on_c, 0, 46, 0
4, 11400, Note_on_c, 0, 37, 55
4, 11460, Note_on_c, 0, 37, 0
4, 11460, Note_on_c, 0, 30, 55
4, 11520, Note_on_c, 0, 30, 0
4, 11520, Note_on_c, 0, 35, 55
4, 11580, Note_on_c, 0, 35, 0
4, 11700, Note_on_c, 0, 62, 55
4, 11760, Note_on_c, 0, 62, 0
4, 11760, Note_on_c, 0, 59, 55
4, 11820, Note_on_c, 0, 59, 0
4, 11820, Note_on_c, 0, 54, 55
4, 11880, Note_on_c, 0, 54, 0
4, 11880, Note_on_c, 0, 40, 55
4, 11940, Note_on_c, 0, 40, 0
4, 12060, Note_on_c, 0, 61, 55
4, 12120, Note_on_c, 0, 61, 0
4, 12120, Note_on_c, 0, 55, 55
4, 12180, Note_on_c, 0, 55, 0
4, 12180, Note_on_c, 0, 52, 55
4, 12240, Note_on_c, 0, 52, 0
4, 12240, Note_on_c, 0, 43, 55
4, 12300, Note_on_c, 0, 43, 0
4, 12420, Note_on_c, 0, 66, 55
4, 12480, Note_on_c, 0, 66, 0
4, 12480, Note_on_c, 0, 59, 55
4, 12540, Note_on_c, 0, 59, 0
4, 12540, Note_on_c, 0, 55, 55
4, 12600, Note_on_c, 0, 55, 0
4, 12600, Note_on_c, 0, 49, 55
4, 12660, Note_on_c, 0, 49, 0
4, 12780, Note_on_c, 0, 61, 55
4, 12840, Note_on_c, 0, 61, 0
4, 12840, Note_on_c, 0, 55, 55
4, 12900, Note_on_c, 0, 55, 0
4, 12900, Note_on_c, 0, 52, 55
4, 12960, Note_on_c, 0, 52, 0
4, 12960, Note_on_c, 0, 40, 55
4, 13020, Note_on_c, 0, 40, 0
4, 13140, Note_on_c, 0, 67, 60
4, 13200, Note_on_c, 0, 67, 0
4, 13200, Note_on_c, 0, 61, 62
4, 13260, Note_on_c, 0, 61, 0
4, 13260, Note_on_c, 0, 59, 63
4, 13320, Note_on_c, 0, 59, 0
4, 13320, Note_on_c, 0, 45, 65
4, 13380, Note_on_c, 0, 45, 0
4, 13500, Note_on_c, 0, 61, 70
4, 13560, Note_on_c, 0, 61, 0
4, 13560, Note_on_c, 0, 57, 72
4, 13620, Note_on_c, 0, 57, 0
4, 13620, Note_on_c, 0, 55, 74
4, 13680, Note_on_c, 0, 55, 0
4, 13680, Note_on_c, 0, 38, 75
4, 13740, Note_on_c, 0, 38, 0
4, 13860, Note_on_c, 0, 62, 75
4, 13920, Note_on_c, 0, 62, 0
4, 13920, Note_on_c, 0, 57, 75
4, 13980, Note_on_c, 0, 57, 0
4, 13980, Note_on_c, 0, 54, 75
4, 14040, Note_on_c, 0, 54, 0
4, 14040, Note_on_c, 0, 43, 75
4, 14100, Note_on_c, 0, 43, 0
4, 14220, Note_on_c, 0, 59, 75
4, 14280, Note_on_c, 0, 59, 0
4, 14280, Note_on_c, 0, 55, 75
4, 14340, Note_on_c, 0, 55, 0
4, 14340, Note_on_c, 0, 54, 75
4, 14400, Note_on_c, 0, 54, 0
4, 14400, Note_on_c, 0, 37, 75
4, 14460, Note_on_c, 0, 37, 0
4, 14580, Note_on_c, 0, 59, 75
4, 14640, Note_on_c, 0, 59, 0
4, 14640, Note_on_c, 0, 52, 75
4, 14700, Note_on_c, 0, 52, 0
4, 14700, Note_on_c, 0, 49, 75
4, 14760, Note_on_c, 0, 49, 0
4, 14760, Note_on_c, 0, 42, 75
4, 14820, Note_on_c, 0, 42, 0
4, 14940, Note_on_c, 0, 54, 75
4, 15000, Note_on_c, 0, 54, 0
4, 15000, Note_on_c, 0, 52, 75
4, 15060, Note_on_c, 0, 52, 0
4, 15060, Note_on_c, 0, 49, 75
4, 15120, Note_on_c, 0, 49, 0
4, 15120, Note_on_c, 0, 42, 75
4, 15180, Note_on_c, 0, 42, 0
4, 15300, Note_on_c, 0, 61, 77
4, 15360, Note_on_c, 0, 61, 0
4, 15360, Note_on_c, 0, 54, 78
4, 15420, Note_on_c, 0, 54, 0
4, 15420, Note_on_c, 0, 52, 79
4, 15480, Note_on_c, 0, 52, 0
4, 15480, Note_on_c, 0, 40, 80
4, 15540, Note_on_c, 0, 40, 0
4, 15660, Note_on_c, 0, 64, 82
4, 15720, Note_on_c, 0, 64, 0
4, 15720, Note_on_c, 0, 58, 83
4, 15780, Note_on_c, 0, 58, 0
4, 15780, Note_on_c, 0, 54, 84
4, 15840, Note_on_c, 0, 54, 0
4, 15840, Note_on_c, 0, 39, 85
4, 15900, Note_on_c, 0, 39, 0
4, 16020, Note_on_c, 0, 63, 88
4, 16080, Note_on_c, 0, 63, 0
4, 16080, Note_on_c, 0, 59, 89
4, 16140, Note_on_c, 0, 59, 0
4, 16140, Note_on_c, 0, 54, 89
4, 16200, Note_on_c, 0, 54, 0
4, 16200, Note_on_c, 0, 39, 90
4, 16260, Note_on_c, 0, 39, 0
4, 16380, Note_on_c, 0, 59, 93
4, 16440, Note_on_c, 0, 59, 0
4, 16440, Note_on_c, 0, 54, 94
4, 16500, Note_on_c, 0, 54, 0
4, 16500, Note_on_c, 0, 51, 95
4, 16560, Note_on_c, 0, 51, 0
4, 16560, Note_on_c, 0, 47, 95
4, 16620, Note_on_c, 0, 47, 0
4, 16740, Note_on_c, 0, 56, 95
4, 16800, Note_on_c, 0, 56, 0
4, 16800, Note_on_c, 0, 54, 95
4, 16860, Note_on_c, 0, 54, 0
4, 16860, Note_on_c, 0, 51, 95
4, 16920, Note_on_c, 0, 51, 0
4, 16920, Note_on_c, 0, 44, 95
4, 16980, Note_on_c, 0, 44, 0
4, 17100, Note_on_c, 0, 56, 95
4, 17160, Note_on_c, 0, 56, 0
4, 17160, Note_on_c, 0, 54, 95
4, 17220, Note_on_c, 0, 54, 0
4, 17220, Note_on_c, 0, 51, 95
4, 17280, Note_on_c, 0, 51, 0
4, 17280, Note_on_c, 0, 37, 95
4, 17340, Note_on_c, 0, 37, 0
4, 17460, Note_on_c, 0, 61, 95
4, 17520, Note_on_c, 0, 61, 0
4, 17520, Note_on_c, 0, 53, 95
4, 17580, Note_on_c, 0, 53, 0
4, 17580, Note_on_c, 0, 49, 95
4, 17640, Note_on_c, 0, 49, 0
4, 17640, Note_on_c, 0, 42, 95
4, 17700, Note_on_c, 0, 42, 0
4, 17820, Note_on_c, 0, 58, 95
4, 17880, Note_on_c, 0, 58, 0
4, 17880, Note_on_c, 0, 49, 95
4, 17940, Note_on_c, 0, 49, 0
4, 17940, Note_on_c, 0, 46, 95
4, 18000, Note_on_c, 0, 46, 0
4, 18000, Note_on_c, 0, 35, 95
4, 18060, Note_on_c, 0, 35, 0
4, 18180, Note_on_c, 0, 57, 95
4, 18240, Note_on_c, 0, 57, 0
4, 18240, Note_on_c, 0, 51, 95
4, 18300, Note_on_c, 0, 51, 0
4, 18300, Note_on_c, 0, 47, 95
4, 18360, Note_on_c, 0, 47, 0
4, 18360, Note_on_c, 0, 35, 95
4, 18420, Note_on_c, 0, 35, 0
4, 18540, Note_on_c, 0, 57, 95
4, 18600, Note_on_c, 0, 57, 0
4, 18600, Note_on_c, 0, 51, 95
4, 18660, Note_on_c, 0, 51, 0
4, 18660, Note_on_c, 0, 47, 95
4, 18720, Note_on_c, 0, 47, 0
4, 18720, Note_on_c, 0, 40, 95
4, 18780, Note_on_c, 0, 40, 0
4, 18900, Note_on_c, 0, 57, 95
4, 18960, Note_on_c, 0, 57, 0
4, 18960, Note_on_c, 0, 51, 95
4, 19020, Note_on_c, 0, 51, 0
4, 19020, Note_on_c, 0, 47, 95
4, 19080, Note_on_c, 0, 47, 0
4, 19080, Note_on_c, 0, 40, 95
4, 19140, Note_on_c, 0, 40, 0
4, 19260, Note_on_c, 0, 56, 95
4, 19320, Note_on_c, 0, 56, 0
4, 19320, Note_on_c, 0, 52, 95
4, 19380, Note_on_c, 0, 52, 0
4, 19380, Note_on_c, 0, 47, 95
4, 19440, Note_on_c, 0, 47, 0
4, 19440, Note_on_c, 0, 41, 95
4, 19500, Note_on_c, 0, 41, 0
4, 19620, Note_on_c, 0, 59, 95
4, 19680, Note_on_c, 0, 59, 0
4, 19680, Note_on_c, 0, 53, 95
4, 19740, Note_on_c, 0, 53, 0
4, 19740, Note_on_c, 0, 49, 95
4, 19800, Note_on_c, 0, 49, 0
4, 19800, Note_on_c, 0, 42, 95
4, 19860, Note_on_c, 0, 42, 0
4, 19980, Note_on_c, 0, 58, 95
4, 20040, Note_on_c, 0, 58, 0
4, 20040, Note_on_c, 0, 54, 95
4, 20100, Note_on_c, 0, 54, 0
4, 20100, Note_on_c, 0, 52, 95
4, 20160, Note_on_c, 0, 52, 0
4, 20160, Note_on_c, 0, 47, 95
4, 20220, Note_on_c, 0, 47, 0
4, 20340, Note_on_c, 0, 63, 95
4, 20400, Note_on_c, 0, 63, 0
4, 20400, Note_on_c, 0, 59, 95
4, 20460, Note_on_c, 0, 59, 0
4, 20460, Note_on_c, 0, 57, 95
4, 20520, Note_on_c, 0, 57, 0
4, 20520, Note_on_c, 0, 47, 95
4, 20580, Note_on_c, 0, 47, 0
4, 20700, Note_on_c, 0, 59, 89
4, 20760, Note_on_c, 0, 59, 0
4, 20760, Note_on_c, 0, 56, 86
4, 20820, Note_on_c, 0, 56, 0
4, 20820, Note_on_c, 0, 52, 84
4, 20880, Note_on_c, 0, 52, 0
4, 20880, Note_on_c, 0, 35, 82
4, 20940, Note_on_c, 0, 35, 0
4, 21060, Note_on_c, 0, 59, 75
4, 21120, Note_on_c, 0, 59, 0
4, 21120, Note_on_c, 0, 55, 72
4, 21180, Note_on_c, 0, 55, 0
4, 21180, Note_on_c, 0, 52, 70
4, 21240, Note_on_c, 0, 52, 0
4, 21240, Note_on_c, 0, 47, 68
4, 21300, Note_on_c, 0, 47, 0
4, 21420, Note_on_c, 0, 55, 61
4, 21480, Note_on_c, 0, 55, 0
4, 21480, Note_on_c, 0, 52, 59
4, 21540, Note_on_c, 0, 52, 0
4, 21540, Note_on_c, 0, 47, 56
4, 21600, Note_on_c, 0, 47, 0
4, 21600, Note_on_c, 0, 35, 55
4, 21660, Note_on_c, 0, 35, 0
4, 21780, Note_on_c, 0, 51, 55
4, 21840, Note_on_c, 0, 51, 0
4, 21840, Note_on_c, 0, 47, 55
4, 21900, Note_on_c, 0, 47, 0
4, 21900, Note_on_c, 0, 42, 55
4, 21960, Note_on_c, 0, 42, 0
4, 21960, Note_on_c, 0, 35, 65
4, 22200, Note_on_c, 0, 35, 0
4, 22200, Note_on_c, 0, 47, 65
4, 22320, Note_on_c, 0, 47, 0
4, 22320, Note_on_c, 0, 51, 45
4, 22380, Note_on_c, 0, 51, 0
4, 22380, Note_on_c, 0, 39, 35
4, 22440, Note_on_c, 0, 39, 0
4, 22440, Note_on_c, 0, 51, 45
4, 22500, Note_on_c, 0, 51, 0
4, 22500, Note_on_c, 0, 39, 35
4, 22560, Note_on_c, 0, 39, 0
4, 22560, Note_on_c, 0, 49, 45
4, 22620, Note_on_c, 0, 49, 0
4, 22620, Note_on_c, 0, 39, 35
4, 22680, Note_on_c, 0, 39, 0
4, 22680, Note_on_c, 0, 47, 45
4, 22740, Note_on_c, 0, 47, 0
4, 22740, Note_on_c, 0, 39, 35
4, 22800, Note_on_c, 0, 39, 0
4, 22800, Note_on_c, 0, 47, 45
4, 22860, Note_on_c, 0, 47, 0
4, 22860, Note_on_c, 0, 39, 35
4, 22920, Note_on_c, 0, 39, 0
4, 22920, Note_on_c, 0, 46, 45
4, 22980, Note_on_c, 0, 46, 0
4, 22980, Note_on_c, 0, 39, 35
4, 23040, Note_on_c, 0, 39, 0
4, 23040, Note_on_c, 0, 44, 45
4, 23100, Note_on_c, 0, 44, 0
4, 23100, Note_on_c, 0, 39, 35
4, 23160, Note_on_c, 0, 39, 0
4, 23160, Note_on_c, 0, 44, 45
4, 23220, Note_on_c, 0, 44, 0
4, 23220, Note_on_c, 0, 39, 35
4, 23280, Note_on_c, 0, 39, 0
4, 23280, Note_on_c, 0, 42, 45
4, 23340, Note_on_c, 0, 42, 0
4, 23340, Note_on_c, 0, 39, 35
4, 23400, Note_on_c, 0, 39, 0
4, 23400, Note_on_c, 0, 42, 45
4, 23460, Note_on_c, 0, 42, 0
4, 23460, Note_on_c, 0, 39, 35
4, 23520, Note_on_c, 0, 39, 0
4, 23520, Note_on_c, 0, 42, 45
4, 23580, Note_on_c, 0, 42, 0
4, 23580, Note_on_c, 0, 39, 35
4, 23640, Note_on_c, 0, 39, 0
4, 23640, Note_on_c, 0, 41, 45
4, 23700, Note_on_c, 0, 41, 0
4, 23700, Note_on_c, 0, 39, 35
4, 23760, Note_on_c, 0, 39, 0
4, 23760, Note_on_c, 0, 41, 35
4, 23820, Note_on_c, 0, 41, 0
4, 23820, Note_on_c, 0, 38, 45
4, 23880, Note_on_c, 0, 38, 0
4, 23880, Note_on_c, 0, 41, 35
4, 23940, Note_on_c, 0, 41, 0
4, 23940, Note_on_c, 0, 38, 45
4, 24000, Note_on_c, 0, 38, 0
4, 24000, Note_on_c, 0, 41, 35
4, 24060, Note_on_c, 0, 41, 0
4, 24060, Note_on_c, 0, 36, 45
4, 24120, Note_on_c, 0, 36, 0
4, 24120, Note_on_c, 0, 41, 35
4, 24180, Note_on_c, 0, 41, 0
4, 24180, Note_on_c, 0, 34, 45
4, 24240, Note_on_c, 0, 34, 0
4, 24240, Note_on_c, 0, 41, 35
4, 24300, Note_on_c, 0, 41, 0
4, 24300, Note_on_c, 0, 34, 45
4, 24360, Note_on_c, 0, 34, 0
4, 24360, Note_on_c, 0, 41, 35
4, 24420, Note_on_c, 0, 41, 0
4, 24420, Note_on_c, 0, 29, 45
4, 24480, Note_on_c, 0, 29, 0
4, 24480, Note_on_c, 0, 41, 45
4, 24540, Note_on_c, 0, 41, 0
4, 24540, Note_on_c, 0, 34, 35
4, 24600, Note_on_c, 0, 34, 0
4, 24600, Note_on_c, 0, 41, 45
4, 24660, Note_on_c, 0, 41, 0
4, 24660, Note_on_c, 0, 34, 35
4, 24720, Note_on_c, 0, 34, 0
4, 24720, Note_on_c, 0, 41, 45
4, 24780, Note_on_c, 0, 41, 0
4, 24780, Note_on_c, 0, 34, 35
4, 24840, Note_on_c, 0, 34, 0
4, 24840, Note_on_c, 0, 41, 45
4, 24900, Note_on_c, 0, 41, 0
4, 24900, Note_on_c, 0, 34, 35
4, 24960, Note_on_c, 0, 34, 0
4, 24960, Note_on_c, 0, 41, 45
4, 25020, Note_on_c, 0, 41, 0
4, 25020, Note_on_c, 0, 34, 35
4, 25080, Note_on_c, 0, 34, 0
4, 25080, Note_on_c, 0, 49, 45
4, 25140, Note_on_c, 0, 49, 0
4, 25140, Note_on_c, 0, 37, 35
4, 25200, Note_on_c, 0, 37, 0
4, 25200, Note_on_c, 0, 49, 45
4, 25260, Note_on_c, 0, 49, 0
4, 25260, Note_on_c, 0, 37, 35
4, 25320, Note_on_c, 0, 37, 0
4, 25320, Note_on_c, 0, 49, 45
4, 25380, Note_on_c, 0, 49, 0
4, 25380, Note_on_c, 0, 37, 35
4, 25440, Note_on_c, 0, 37, 0
4, 25440, Note_on_c, 0, 47, 45
4, 25500, Note_on_c, 0, 47, 0
4, 25500, Note_on_c, 0, 37, 35
4, 25560, Note_on_c, 0, 37, 0
4, 25560, Note_on_c, 0, 46, 45
4, 25620, Note_on_c, 0, 46, 0
4, 25620, Note_on_c, 0, 37, 35
4, 25680, Note_on_c, 0, 37, 0
4, 25680, Note_on_c, 0, 46, 45
4, 25740, Note_on_c, 0, 46, 0
4, 25740, Note_on_c, 0, 37, 35
4, 25800, Note_on_c, 0, 37, 0
4, 25800, Note_on_c, 0, 44, 45
4, 25860, Note_on_c, 0, 44, 0
4, 25860, Note_on_c, 0, 37, 35
4, 25920, Note_on_c, 0, 37, 0
4, 25920, Note_on_c, 0, 42, 45
4, 25980, Note_on_c, 0, 42, 0
4, 25980, Note_on_c, 0, 37, 35
4, 26040, Note_on_c, 0, 37, 0
4, 26040, Note_on_c, 0, 42, 45
4, 26100, Note_on_c, 0, 42, 0
4, 26100, Note_on_c, 0, 37, 35
4, 26160, Note_on_c, 0, 37, 0
4, 26160, Note_on_c, 0, 42, 45
4, 26220, Note_on_c, 0, 42, 0
4, 26220, Note_on_c, 0, 37, 35
4, 26280, Note_on_c, 0, 37, 0
4, 26280, Note_on_c, 0, 42, 45
4, 26340, Note_on_c, 0, 42, 0
4, 26340, Note_on_c, 0, 37, 35
4, 26400, Note_on_c, 0, 37, 0
4, 26400, Note_on_c, 0, 42, 45
4, 26460, Note_on_c, 0, 42, 0
4, 26460, Note_on_c, 0, 37, 35
4, 26520, Note_on_c, 0, 37, 0
4, 26520, Note_on_c, 0, 42, 45
4, 26580, Note_on_c, 0, 42, 0
4, 26580, Note_on_c, 0, 37, 35
4, 26640, Note_on_c, 0, 37, 0
4, 26640, Note_on_c, 0, 42, 35
4, 26700, Note_on_c, 0, 42, 0
4, 26700, Note_on_c, 0, 35, 45
4, 26760, Note_on_c, 0, 35, 0
4, 26760, Note_on_c, 0, 42, 35
4, 26820, Note_on_c, 0, 42, 0
4, 26820, Note_on_c, 0, 35, 45
4, 26880, Note_on_c, 0, 35, 0
4, 26880, Note_on_c, 0, 42, 35
4, 26940, Note_on_c, 0, 42, 0
4, 26940, Note_on_c, 0, 34, 45
4, 27000, Note_on_c, 0, 34, 0
4, 27000, Note_on_c, 0, 42, 35
4, 27060, Note_on_c, 0, 42, 0
4, 27060, Note_on_c, 0, 32, 45
4, 27120, Note_on_c, 0, 32, 0
4, 27120, Note_on_c, 0, 42, 35
4, 27180, Note_on_c, 0, 42, 0
4, 27180, Note_on_c, 0, 32, 45
4, 27240, Note_on_c, 0, 32, 0
4, 27240, Note_on_c, 0, 37, 35
4, 27300, Note_on_c, 0, 37, 0
4, 27300, Note_on_c, 0, 25, 45
4, 27360, Note_on_c, 0, 25, 0
4, 27360, Note_on_c, 0, 42, 45
4, 27420, Note_on_c, 0, 42, 0
4, 27420, Note_on_c, 0, 30, 35
4, 27480, Note_on_c, 0, 30, 0
4, 27480, Note_on_c, 0, 42, 45
4, 27540, Note_on_c, 0, 42, 0
4, 27540, Note_on_c, 0, 30, 35
4, 27600, Note_on_c, 0, 30, 0
4, 27600, Note_on_c, 0, 42, 45
4, 27660, Note_on_c, 0, 42, 0
4, 27660, Note_on_c, 0, 30, 35
4, 27720, Note_on_c, 0, 30, 0
4, 27720, Note_on_c, 0, 42, 45
4, 27780, Note_on_c, 0, 42, 0
4, 27780, Note_on_c, 0, 30, 35
4, 27840, Note_on_c, 0, 30, 0
4, 27840, Note_on_c, 0, 42, 45
4, 27900, Note_on_c, 0, 42, 0
4, 27900, Note_on_c, 0, 30, 35
4, 27960, Note_on_c, 0, 30, 0
4, 27960, Note_on_c, 0, 51, 45
4, 28020, Note_on_c, 0, 51, 0
4, 28020, Note_on_c, 0, 39, 35
4, 28080, Note_on_c, 0, 39, 0
4, 28080, Note_on_c, 0, 51, 45
4, 28140, Note_on_c, 0, 51, 0
4, 28140, Note_on_c, 0, 39, 35
4, 28200, Note_on_c, 0, 39, 0
4, 28200, Note_on_c, 0, 51, 45
4, 28260, Note_on_c, 0, 51, 0
4, 28260, Note_on_c, 0, 39, 35
4, 28320, Note_on_c, 0, 39, 0
4, 28320, Note_on_c, 0, 49, 45
4, 28380, Note_on_c, 0, 49, 0
4, 28380, Note_on_c, 0, 39, 35
4, 28440, Note_on_c, 0, 39, 0
4, 28440, Note_on_c, 0, 47, 45
4, 28500, Note_on_c, 0, 47, 0
4, 28500, Note_on_c, 0, 39, 35
4, 28560, Note_on_c, 0, 39, 0
4, 28560, Note_on_c, 0, 47, 45
4, 28620, Note_on_c, 0, 47, 0
4, 28620, Note_on_c, 0, 39, 35
4, 28680, Note_on_c, 0, 39, 0
4, 28680, Note_on_c, 0, 46, 45
4, 28740, Note_on_c, 0, 46, 0
4, 28740, Note_on_c, 0, 39, 35
4, 28800, Note_on_c, 0, 39, 0
4, 28800, Note_on_c, 0, 44, 45
4, 28860, Note_on_c, 0, 44, 0
4, 28860, Note_on_c, 0, 39, 35
4, 28920, Note_on_c, 0, 39, 0
4, 28920, Note_on_c, 0, 44, 45
4, 28980, Note_on_c, 0, 44, 0
4, 28980, Note_on_c, 0, 39, 35
4, 29040, Note_on_c, 0, 39, 0
4, 29040, Note_on_c, 0, 42, 45
4, 29100, Note_on_c, 0, 42, 0
4, 29100, Note_on_c, 0, 39, 35
4, 29160, Note_on_c, 0, 39, 0
4, 29160, Note_on_c, 0, 42, 45
4, 29220, Note_on_c, 0, 42, 0
4, 29220, Note_on_c, 0, 39, 35
4, 29280, Note_on_c, 0, 39, 0
4, 29280, Note_on_c, 0, 42, 45
4, 29340, Note_on_c, 0, 42, 0
4, 29340, Note_on_c, 0, 39, 35
4, 29400, Note_on_c, 0, 39, 0
4, 29400, Note_on_c, 0, 41, 45
4, 29460, Note_on_c, 0, 41, 0
4, 29460, Note_on_c, 0, 39, 35
4, 29520, Note_on_c, 0, 39, 0
4, 29520, Note_on_c, 0, 41, 35
4, 29580, Note_on_c, 0, 41, 0
4, 29580, Note_on_c, 0, 38, 45
4, 29640, Note_on_c, 0, 38, 0
4, 29640, Note_on_c, 0, 41, 35
4, 29700, Note_on_c, 0, 41, 0
4, 29700, Note_on_c, 0, 38, 45
4, 29760, Note_on_c, 0, 38, 0
4, 29760, Note_on_c, 0, 41, 35
4, 29820, Note_on_c, 0, 41, 0
4, 29820, Note_on_c, 0, 36, 45
4, 29880, Note_on_c, 0, 36, 0
4, 29880, Note_on_c, 0, 41, 35
4, 29940, Note_on_c, 0, 41, 0
4, 29940, Note_on_c, 0, 34, 45
4, 30000, Note_on_c, 0, 34, 0
4, 30000, Note_on_c, 0, 41, 35
4, 30060, Note_on_c, 0, 41, 0
4, 30060, Note_on_c, 0, 34, 45
4, 30120, Note_on_c, 0, 34, 0
4, 30120, Note_on_c, 0, 41, 35
4, 30180, Note_on_c, 0, 41, 0
4, 30180, Note_on_c, 0, 29, 45
4, 30240, Note_on_c, 0, 29, 0
4, 30240, Note_on_c, 0, 41, 45
4, 30300, Note_on_c, 0, 41, 0
4, 30300, Note_on_c, 0, 34, 35
4, 30360, Note_on_c, 0, 34, 0
4, 30360, Note_on_c, 0, 41, 45
4, 30420, Note_on_c, 0, 41, 0
4, 30420, Note_on_c, 0, 34, 35
4, 30480, Note_on_c, 0, 34, 0
4, 30480, Note_on_c, 0, 41, 45
4, 30540, Note_on_c, 0, 41, 0
4, 30540, Note_on_c, 0, 34, 35
4, 30600, Note_on_c, 0, 34, 0
4, 30600, Note_on_c, 0, 41, 45
4, 30660, Note_on_c, 0, 41, 0
4, 30660, Note_on_c, 0, 34, 35
4, 30720, Note_on_c, 0, 34, 0
4, 30720, Note_on_c, 0, 41, 45
4, 30780, Note_on_c, 0, 41, 0
4, 30780, Note_on_c, 0, 34, 35
4, 30840, Note_on_c, 0, 34, 0
4, 30840, Note_on_c, 0, 49, 45
4, 30900, Note_on_c, 0, 49, 0
4, 30900, Note_on_c, 0, 37, 35
4, 30960, Note_on_c, 0, 37, 0
4, 30960, Note_on_c, 0, 49, 45
4, 31020, Note_on_c, 0, 49, 0
4, 31020, Note_on_c, 0, 37, 35
4, 31080, Note_on_c, 0, 37, 0
4, 31080, Note_on_c, 0, 49, 45
4, 31140, Note_on_c, 0, 49, 0
4, 31140, Note_on_c, 0, 37, 35
4, 31200, Note_on_c, 0, 37, 0
4, 31200, Note_on_c, 0, 47, 45
4, 31260, Note_on_c, 0, 47, 0
4, 31260, Note_on_c, 0, 37, 35
4, 31320, Note_on_c, 0, 37, 0
4, 31320, Note_on_c, 0, 46, 45
4, 31380, Note_on_c, 0, 46, 0
4, 31380, Note_on_c, 0, 37, 35
4, 31440, Note_on_c, 0, 37, 0
4, 31440, Note_on_c, 0, 46, 45
4, 31500, Note_on_c, 0, 46, 0
4, 31500, Note_on_c, 0, 37, 35
4, 31560, Note_on_c, 0, 37, 0
4, 31560, Note_on_c, 0, 44, 45
4, 31620, Note_on_c, 0, 44, 0
4, 31620, Note_on_c, 0, 37, 35
4, 31680, Note_on_c, 0, 37, 0
4, 31680, Note_on_c, 0, 42, 45
4, 31740, Note_on_c, 0, 42, 0
4, 31740, Note_on_c, 0, 37, 35
4, 31800, Note_on_c, 0, 37, 0
4, 31800, Note_on_c, 0, 42, 45
4, 31860, Note_on_c, 0, 42, 0
4, 31860, Note_on_c, 0, 37, 35
4, 31920, Note_on_c, 0, 37, 0
4, 31920, Note_on_c, 0, 42, 45
4, 31980, Note_on_c, 0, 42, 0
4, 31980, Note_on_c, 0, 37, 35
4, 32040, Note_on_c, 0, 37, 0
4, 32040, Note_on_c, 0, 42, 45
4, 32100, Note_on_c, 0, 42, 0
4, 32100, Note_on_c, 0, 37, 35
4, 32160, Note_on_c, 0, 37, 0
4, 32160, Note_on_c, 0, 42, 45
4, 32220, Note_on_c, 0, 42, 0
4, 32220, Note_on_c, 0, 37, 35
4, 32280, Note_on_c, 0, 37, 0
4, 32280, Note_on_c, 0, 42, 45
4, 32340, Note_on_c, 0, 42, 0
4, 32340, Note_on_c, 0, 37, 35
4, 32400, Note_on_c, 0, 37, 0
4, 32400, Note_on_c, 0, 42, 35
4, 32460, Note_on_c, 0, 42, 0
4, 32460, Note_on_c, 0, 35, 45
4, 32520, Note_on_c, 0, 35, 0
4, 32520, Note_on_c, 0, 42, 35
4, 32580, Note_on_c, 0, 42, 0
4, 32580, Note_on_c, 0, 35, 45
4, 32640, Note_on_c, 0, 35, 0
4, 32640, Note_on_c, 0, 42, 35
4, 32700, Note_on_c, 0, 42, 0
4, 32700, Note_on_c, 0, 34, 45
4, 32760, Note_on_c, 0, 34, 0
4, 32760, Note_on_c, 0, 42, 35
4, 32820, Note_on_c, 0, 42, 0
4, 32820, Note_on_c, 0, 32, 45
4, 32880, Note_on_c, 0, 32, 0
4, 32880, Note_on_c, 0, 42, 35
4, 32940, Note_on_c, 0, 42, 0
4, 32940, Note_on_c, 0, 32, 45
4, 33000, Note_on_c, 0, 32, 0
4, 33000, Note_on_c, 0, 37, 35
4, 33060, Note_on_c, 0, 37, 0
4, 33060, Note_on_c, 0, 25, 45
4, 33120, Note_on_c, 0, 25, 0
4, 33120, Note_on_c, 0, 42, 45
4, 33180, Note_on_c, 0, 42, 0
4, 33180, Note_on_c, 0, 30, 35
4, 33240, Note_on_c, 0, 30, 0
4, 33240, Note_on_c, 0, 42, 45
4, 33300, Note_on_c, 0, 42, 0
4, 33300, Note_on_c, 0, 30, 35
4, 33360, Note_on_c, 0, 30, 0
4, 33360, Note_on_c, 0, 42, 45
4, 33420, Note_on_c, 0, 42, 0
4, 33420, Note_on_c, 0, 30, 35
4, 33480, Note_on_c, 0, 30, 0
4, 33480, Note_on_c, 0, 42, 45
4, 33540, Note_on_c, 0, 42, 0
4, 33540, Note_on_c, 0, 30, 35
4, 33600, Note_on_c, 0, 30, 0
4, 33600, Note_on_c, 0, 42, 45
4, 33660, Note_on_c, 0, 42, 0
4, 33660, Note_on_c, 0, 30, 35
4, 33720, Note_on_c, 0, 30, 0
4, 33720, Note_on_c, 0, 49, 45
4, 33780, Note_on_c, 0, 49, 0
4, 33780, Note_on_c, 0, 42, 35
4, 33840, Note_on_c, 0, 42, 0
4, 33840, Note_on_c, 0, 49, 45
4, 33900, Note_on_c, 0, 49, 0
4, 33900, Note_on_c, 0, 42, 35
4, 33960, Note_on_c, 0, 42, 0
4, 33960, Note_on_c, 0, 49, 45
4, 34020, Note_on_c, 0, 49, 0
4, 34020, Note_on_c, 0, 42, 35
4, 34080, Note_on_c, 0, 42, 0
4, 34080, Note_on_c, 0, 47, 45
4, 34140, Note_on_c, 0, 47, 0
4, 34140, Note_on_c, 0, 42, 35
4, 34200, Note_on_c, 0, 42, 0
4, 34200, Note_on_c, 0, 53, 45
4, 34260, Note_on_c, 0, 53, 0
4, 34260, Note_on_c, 0, 42, 35
4, 34320, Note_on_c, 0, 42, 0
4, 34320, Note_on_c, 0, 56, 45
4, 34380, Note_on_c, 0, 56, 0
4, 34380, Note_on_c, 0, 42, 35
4, 34440, Note_on_c, 0, 42, 0
4, 34440, Note_on_c, 0, 59, 45
4, 34500, Note_on_c, 0, 59, 0
4, 34500, Note_on_c, 0, 42, 35
4, 34560, Note_on_c, 0, 42, 0
4, 34560, Note_on_c, 0, 51, 45
4, 34620, Note_on_c, 0, 51, 0
4, 34620, Note_on_c, 0, 42, 35
4, 34680, Note_on_c, 0, 42, 0
4, 34680, Note_on_c, 0, 51, 45
4, 34740, Note_on_c, 0, 51, 0
4, 34740, Note_on_c, 0, 42, 35
4, 34800, Note_on_c, 0, 42, 0
4, 34800, Note_on_c, 0, 51, 45
4, 34860, Note_on_c, 0, 51, 0
4, 34860, Note_on_c, 0, 42, 35
4, 34920, Note_on_c, 0, 42, 0
4, 34920, Note_on_c, 0, 55, 45
4, 34980, Note_on_c, 0, 55, 0
4, 34980, Note_on_c, 0, 42, 35
4, 35040, Note_on_c, 0, 42, 0
4, 35040, Note_on_c, 0, 57, 45
4, 35100, Note_on_c, 0, 57, 0
4, 35100, Note_on_c, 0, 42, 35
4, 35160, Note_on_c, 0, 42, 0
4, 35160, Note_on_c, 0, 61, 45
4, 35220, Note_on_c, 0, 61, 0
4, 35220, Note_on_c, 0, 42, 35
4, 35280, Note_on_c, 0, 42, 0
4, 35280, Note_on_c, 0, 53, 45
4, 35340, Note_on_c, 0, 53, 0
4, 35340, Note_on_c, 0, 41, 35
4, 35400, Note_on_c, 0, 41, 0
4, 35400, Note_on_c, 0, 53, 45
4, 35460, Note_on_c, 0, 53, 0
4, 35460, Note_on_c, 0, 41, 35
4, 35520, Note_on_c, 0, 41, 0
4, 35520, Note_on_c, 0, 53, 45
4, 35580, Note_on_c, 0, 53, 0
4, 35580, Note_on_c, 0, 41, 35
4, 35640, Note_on_c, 0, 41, 0
4, 35640, Note_on_c, 0, 57, 45
4, 35700, Note_on_c, 0, 57, 0
4, 35700, Note_on_c, 0, 46, 35
4, 35760, Note_on_c, 0, 46, 0
4, 35760, Note_on_c, 0, 59, 45
4, 35820, Note_on_c, 0, 59, 0
4, 35820, Note_on_c, 0, 46, 35
4, 35880, Note_on_c, 0, 46, 0
4, 35880, Note_on_c, 0, 63, 45
4, 35940, Note_on_c, 0, 63, 0
4, 35940, Note_on_c, 0, 46, 35
4, 36000, Note_on_c, 0, 46, 0
4, 36000, Note_on_c, 0, 57, 45
4, 36060, Note_on_c, 0, 57, 0
4, 36060, Note_on_c, 0, 46, 35
4, 36120, Note_on_c, 0, 46, 0
4, 36120, Note_on_c, 0, 59, 45
4, 36180, Note_on_c, 0, 59, 0
4, 36180, Note_on_c, 0, 46, 35
4, 36240, Note_on_c, 0, 46, 0
4, 36240, Note_on_c, 0, 57, 45
4, 36300, Note_on_c, 0, 57, 0
4, 36300, Note_on_c, 0, 46, 35
4, 36360, Note_on_c, 0, 46, 0
4, 36360, Note_on_c, 0, 59, 45
4, 36420, Note_on_c, 0, 59, 0
4, 36420, Note_on_c, 0, 46, 35
4, 36480, Note_on_c, 0, 46, 0
4, 36480, Note_on_c, 0, 57, 45
4, 36540, Note_on_c, 0, 57, 0
4, 36540, Note_on_c, 0, 46, 35
4, 36600, Note_on_c, 0, 46, 0
4, 36600, Note_on_c, 0, 59, 45
4, 36660, Note_on_c, 0, 59, 0
4, 36660, Note_on_c, 0, 46, 35
4, 36720, Note_on_c, 0, 46, 0
4, 36720, Note_on_c, 0, 57, 45
4, 36780, Note_on_c, 0, 57, 0
4, 36780, Note_on_c, 0, 42, 35
4, 36840, Note_on_c, 0, 42, 0
4, 36840, Note_on_c, 0, 59, 45
4, 36900, Note_on_c, 0, 59, 0
4, 36900, Note_on_c, 0, 42, 35
4, 36960, Note_on_c, 0, 42, 0
4, 36960, Note_on_c, 0, 57, 45
4, 37020, Note_on_c, 0, 57, 0
4, 37020, Note_on_c, 0, 42, 35
4, 37080, Note_on_c, 0, 42, 0
4, 37080, Note_on_c, 0, 59, 45
4, 37140, Note_on_c, 0, 59, 0
4, 37140, Note_on_c, 0, 42, 35
4, 37200, Note_on_c, 0, 42, 0
4, 37200, Note_on_c, 0, 54, 45
4, 37260, Note_on_c, 0, 54, 0
4, 37260, Note_on_c, 0, 42, 35
4, 37320, Note_on_c, 0, 42, 0
4, 37320, Note_on_c, 0, 57, 45
4, 37380, Note_on_c, 0, 57, 0
4, 37380, Note_on_c, 0, 42, 35
4, 37440, Note_on_c, 0, 42, 0
4, 37440, Note_on_c, 0, 53, 45
4, 37500, Note_on_c, 0, 53, 0
4, 37500, Note_on_c, 0, 42, 35
4, 37560, Note_on_c, 0, 42, 0
4, 37560, Note_on_c, 0, 55, 45
4, 37620, Note_on_c, 0, 55, 0
4, 37620, Note_on_c, 0, 42, 35
4, 37680, Note_on_c, 0, 42, 0
4, 37680, Note_on_c, 0, 53, 45
4, 37740, Note_on_c, 0, 53, 0
4, 37740, Note_on_c, 0, 42, 35
4, 37800, Note_on_c, 0, 42, 0
4, 37800, Note_on_c, 0, 55, 45
4, 37860, Note_on_c, 0, 55, 0
4, 37860, Note_on_c, 0, 42, 35
4, 37920, Note_on_c, 0, 42, 0
4, 37920, Note_on_c, 0, 53, 45
4, 37980, Note_on_c, 0, 53, 0
4, 37980, Note_on_c, 0, 40, 35
4, 38040, Note_on_c, 0, 40, 0
4, 38040, Note_on_c, 0, 55, 45
4, 38100, Note_on_c, 0, 55, 0
4, 38100, Note_on_c, 0, 40, 35
4, 38160, Note_on_c, 0, 40, 0
4, 38160, Note_on_c, 0, 51, 45
4, 38220, Note_on_c, 0, 51, 0
4, 38220, Note_on_c, 0, 39, 35
4, 38280, Note_on_c, 0, 39, 0
4, 38280, Note_on_c, 0, 51, 45
4, 38340, Note_on_c, 0, 51, 0
4, 38340, Note_on_c, 0, 39, 35
4, 38400, Note_on_c, 0, 39, 0
4, 38400, Note_on_c, 0, 49, 45
4, 38460, Note_on_c, 0, 49, 0
4, 38460, Note_on_c, 0, 39, 35
4, 38520, Note_on_c, 0, 39, 0
4, 38520, Note_on_c, 0, 47, 45
4, 38580, Note_on_c, 0, 47, 0
4, 38580, Note_on_c, 0, 39, 35
4, 38640, Note_on_c, 0, 39, 0
4, 38640, Note_on_c, 0, 47, 45
4, 38700, Note_on_c, 0, 47, 0
4, 38700, Note_on_c, 0, 39, 35
4, 38760, Note_on_c, 0, 39, 0
4, 38760, Note_on_c, 0, 46, 45
4, 38820, Note_on_c, 0, 46, 0
4, 38820, Note_on_c, 0, 39, 35
4, 38880, Note_on_c, 0, 39, 0
4, 38880, Note_on_c, 0, 44, 45
4, 38940, Note_on_c, 0, 44, 0
4, 38940, Note_on_c, 0, 39, 35
4, 39000, Note_on_c, 0, 39, 0
4, 39000, Note_on_c, 0, 44, 45
4, 39060, Note_on_c, 0, 44, 0
4, 39060, Note_on_c, 0, 39, 35
4, 39120, Note_on_c, 0, 39, 0
4, 39120, Note_on_c, 0, 42, 45
4, 39180, Note_on_c, 0, 42, 0
4, 39180, Note_on_c, 0, 39, 35
4, 39240, Note_on_c, 0, 39, 0
4, 39240, Note_on_c, 0, 42, 45
4, 39300, Note_on_c, 0, 42, 0
4, 39300, Note_on_c, 0, 39, 35
4, 39360, Note_on_c, 0, 39, 0
4, 39360, Note_on_c, 0, 42, 45
4, 39420, Note_on_c, 0, 42, 0
4, 39420, Note_on_c, 0, 39, 35
4, 39480, Note_on_c, 0, 39, 0
4, 39480, Note_on_c, 0, 41, 45
4, 39540, Note_on_c, 0, 41, 0
4, 39540, Note_on_c, 0, 39, 35
4, 39600, Note_on_c, 0, 39, 0
4, 39600, Note_on_c, 0, 41, 35
4, 39660, Note_on_c, 0, 41, 0
4, 39660, Note_on_c, 0, 38, 45
4, 39720, Note_on_c, 0, 38, 0
4, 39720, Note_on_c, 0, 41, 36
4, 39780, Note_on_c, 0, 41, 0
4, 39780, Note_on_c, 0, 38, 47
4, 39840, Note_on_c, 0, 38, 0
4, 39840, Note_on_c, 0, 41, 38
4, 39900, Note_on_c, 0, 41, 0
4, 39900, Note_on_c, 0, 36, 49
4, 39960, Note_on_c, 0, 36, 0
4, 39960, Note_on_c, 0, 41, 40
4, 40020, Note_on_c, 0, 41, 0
4, 40020, Note_on_c, 0, 34, 51
4, 40080, Note_on_c, 0, 34, 0
4, 40080, Note_on_c, 0, 41, 42
4, 40140, Note_on_c, 0, 41, 0
4, 40140, Note_on_c, 0, 34, 53
4, 40200, Note_on_c, 0, 34, 0
4, 40200, Note_on_c, 0, 41, 44
4, 40260, Note_on_c, 0, 41, 0
4, 40260, Note_on_c, 0, 31, 55
4, 40320, Note_on_c, 0, 31, 0
4, 40320, Note_on_c, 0, 41, 56
4, 40380, Note_on_c, 0, 41, 0
4, 40380, Note_on_c, 0, 29, 47
4, 40440, Note_on_c, 0, 29, 0
4, 40440, Note_on_c, 0, 41, 58
4, 40500, Note_on_c, 0, 41, 0
4, 40500, Note_on_c, 0, 29, 49
4, 40560, Note_on_c, 0, 29, 0
4, 40560, Note_on_c, 0, 41, 60
4, 40620, Note_on_c, 0, 41, 0
4, 40620, Note_on_c, 0, 29, 51
4, 40680, Note_on_c, 0, 29, 0
4, 40680, Note_on_c, 0, 41, 62
4, 40740, Note_on_c, 0, 41, 0
4, 40740, Note_on_c, 0, 29, 53
4, 40800, Note_on_c, 0, 29, 0
4, 40800, Note_on_c, 0, 41, 64
4, 40860, Note_on_c, 0, 41, 0
4, 40860, Note_on_c, 0, 29, 55
4, 40920, Note_on_c, 0, 29, 0
4, 40920, Note_on_c, 0, 46, 65
4, 40980, Note_on_c, 0, 46, 0
4, 40980, Note_on_c, 0, 34, 55
4, 41040, Note_on_c, 0, 34, 0
4, 41040, Note_on_c, 0, 46, 65
4, 41100, Note_on_c, 0, 46, 0
4, 41100, Note_on_c, 0, 34, 55
4, 41160, Note_on_c, 0, 34, 0
4, 41160, Note_on_c, 0, 46, 65
4, 41220, Note_on_c, 0, 46, 0
4, 41220, Note_on_c, 0, 34, 55
4, 41280, Note_on_c, 0, 34, 0
4, 41280, Note_on_c, 0, 46, 65
4, 41340, Note_on_c, 0, 46, 0
4, 41340, Note_on_c, 0, 34, 55
4, 41400, Note_on_c, 0, 34, 0
4, 41400, Note_on_c, 0, 46, 65
4, 41460, Note_on_c, 0, 46, 0
4, 41460, Note_on_c, 0, 34, 55
4, 41520, Note_on_c, 0, 34, 0
4, 41520, Note_on_c, 0, 46, 65
4, 41580, Note_on_c, 0, 46, 0
4, 41580, Note_on_c, 0, 34, 55
4, 41640, Note_on_c, 0, 34, 0
4, 41640, Note_on_c, 0, 49, 65
4, 41700, Note_on_c, 0, 49, 0
4, 41700, Note_on_c, 0, 39, 55
4, 41760, Note_on_c, 0, 39, 0
4, 41760, Note_on_c, 0, 49, 65
4, 41820, Note_on_c, 0, 49, 0
4, 41820, Note_on_c, 0, 39, 55
4, 41880, Note_on_c, 0, 39, 0
4, 41880, Note_on_c, 0, 51, 65
4, 41940, Note_on_c, 0, 51, 0
4, 41940, Note_on_c, 0, 39, 55
4, 42000, Note_on_c, 0, 39, 0
4, 42000, Note_on_c, 0, 51, 64
4, 42060, Note_on_c, 0, 51, 0
4, 42060, Note_on_c, 0, 39, 54
4, 42120, Note_on_c, 0, 39, 0
4, 42120, Note_on_c, 0, 51, 64
4, 42180, Note_on_c, 0, 51, 0
4, 42180, Note_on_c, 0, 39, 53
4, 42240, Note_on_c, 0, 39, 0
4, 42240, Note_on_c, 0, 51, 63
4, 42300, Note_on_c, 0, 51, 0
4, 42300, Note_on_c, 0, 39, 53
4, 42360, Note_on_c, 0, 39, 0
4, 42360, Note_on_c, 0, 43, 63
4, 42420, Note_on_c, 0, 43, 0
4, 42420, Note_on_c, 0, 31, 52
4, 42480, Note_on_c, 0, 31, 0
4, 42480, Note_on_c, 0, 44, 62
4, 42540, Note_on_c, 0, 44, 0
4, 42540, Note_on_c, 0, 32, 52
4, 42600, Note_on_c, 0, 32, 0
4, 42600, Note_on_c, 0, 44, 61
4, 42660, Note_on_c, 0, 44, 0
4, 42660, Note_on_c, 0, 32, 51
4, 42720, Note_on_c, 0, 32, 0
4, 42720, Note_on_c, 0, 47, 61
4, 42780, Note_on_c, 0, 47, 0
4, 42780, Note_on_c, 0, 35, 51
4, 42840, Note_on_c, 0, 35, 0
4, 42840, Note_on_c, 0, 51, 60
4, 42900, Note_on_c, 0, 51, 0
4, 42900, Note_on_c, 0, 39, 50
4, 42960, Note_on_c, 0, 39, 0
4, 42960, Note_on_c, 0, 51, 60
4, 43020, Note_on_c, 0, 51, 0
4, 43020, Note_on_c, 0, 39, 49
4, 43080, Note_on_c, 0, 39, 0
4, 43080, Note_on_c, 0, 43, 59
4, 43140, Note_on_c, 0, 43, 0
4, 43140, Note_on_c, 0, 31, 49
4, 43200, Note_on_c, 0, 31, 0
4, 43200, Note_on_c, 0, 44, 58
4, 43260, Note_on_c, 0, 44, 0
4, 43260, Note_on_c, 0, 32, 48
4, 43320, Note_on_c, 0, 32, 0
4, 43320, Note_on_c, 0, 44, 58
4, 43380, Note_on_c, 0, 44, 0
4, 43380, Note_on_c, 0, 32, 48
4, 43440, Note_on_c, 0, 32, 0
4, 43440, Note_on_c, 0, 47, 57
4, 43500, Note_on_c, 0, 47, 0
4, 43500, Note_on_c, 0, 35, 47
4, 43560, Note_on_c, 0, 35, 0
4, 43560, Note_on_c, 0, 51, 57
4, 43620, Note_on_c, 0, 51, 0
4, 43620, Note_on_c, 0, 39, 46
4, 43680, Note_on_c, 0, 39, 0
4, 43680, Note_on_c, 0, 51, 56
4, 43740, Note_on_c, 0, 51, 0
4, 43740, Note_on_c, 0, 39, 46
4, 43800, Note_on_c, 0, 39, 0
4, 43800, Note_on_c, 0, 43, 56
4, 43860, Note_on_c, 0, 43, 0
4, 43860, Note_on_c, 0, 31, 45
4, 43920, Note_on_c, 0, 31, 0
4, 43920, Note_on_c, 0, 43, 55
4, 43980, Note_on_c, 0, 43, 0
4, 43980, Note_on_c, 0, 31, 45
4, 44040, Note_on_c, 0, 31, 0
4, 44040, Note_on_c, 0, 43, 54
4, 44100, Note_on_c, 0, 43, 0
4, 44100, Note_on_c, 0, 31, 44
4, 44160, Note_on_c, 0, 31, 0
4, 44160, Note_on_c, 0, 43, 54
4, 44220, Note_on_c, 0, 43, 0
4, 44220, Note_on_c, 0, 31, 44
4, 44280, Note_on_c, 0, 31, 0
4, 44280, Note_on_c, 0, 42, 53
4, 44340, Note_on_c, 0, 42, 0
4, 44340, Note_on_c, 0, 30, 43
4, 44400, Note_on_c, 0, 30, 0
4, 44400, Note_on_c, 0, 42, 53
4, 44460, Note_on_c, 0, 42, 0
4, 44460, Note_on_c, 0, 30, 42
4, 44520, Note_on_c, 0, 30, 0
4, 44520, Note_on_c, 0, 42, 52
4, 44580, Note_on_c, 0, 42, 0
4, 44580, Note_on_c, 0, 30, 42
4, 44640, Note_on_c, 0, 30, 0
4, 44640, Note_on_c, 0, 42, 51
4, 44700, Note_on_c, 0, 42, 0
4, 44700, Note_on_c, 0, 30, 41
4, 44760, Note_on_c, 0, 30, 0
4, 44760, Note_on_c, 0, 42, 51
4, 44820, Note_on_c, 0, 42, 0
4, 44820, Note_on_c, 0, 30, 41
4, 44880, Note_on_c, 0, 30, 0
4, 44880, Note_on_c, 0, 40, 50
4, 44940, Note_on_c, 0, 40, 0
4, 44940, Note_on_c, 0, 28, 40
4, 45000, Note_on_c, 0, 28, 0
4, 45000, Note_on_c, 0, 42, 50
4, 45060, Note_on_c, 0, 42, 0
4, 45060, Note_on_c, 0, 30, 39
4, 45120, Note_on_c, 0, 30, 0
4, 45120, Note_on_c, 0, 42, 49
4, 45180, Note_on_c, 0, 42, 0
4, 45180, Note_on_c, 0, 30, 39
4, 45240, Note_on_c, 0, 30, 0
4, 45240, Note_on_c, 0, 40, 49
4, 45300, Note_on_c, 0, 40, 0
4, 45300, Note_on_c, 0, 28, 38
4, 45360, Note_on_c, 0, 28, 0
4, 45360, Note_on_c, 0, 42, 48
4, 45420, Note_on_c, 0, 42, 0
4, 45420, Note_on_c, 0, 30, 38
4, 45480, Note_on_c, 0, 30, 0
4, 45480, Note_on_c, 0, 42, 47
4, 45540, Note_on_c, 0, 42, 0
4, 45540, Note_on_c, 0, 30, 37
4, 45600, Note_on_c, 0, 30, 0
4, 45600, Note_on_c, 0, 40, 47
4, 45660, Note_on_c, 0, 40, 0
4, 45660, Note_on_c, 0, 28, 36
4, 45720, Note_on_c, 0, 28, 0
4, 45720, Note_on_c, 0, 42, 46
4, 45780, Note_on_c, 0, 42, 0
4, 45780, Note_on_c, 0, 30, 36
4, 45840, Note_on_c, 0, 30, 0
4, 45840, Note_on_c, 0, 42, 46
4, 45900, Note_on_c, 0, 42, 0
4, 45900, Note_on_c, 0, 30, 35
4, 45960, Note_on_c, 0, 30, 0
4, 45960, Note_on_c, 0, 42, 45
4, 46020, Note_on_c, 0, 42, 0
4, 46020, Note_on_c, 0, 30, 35
4, 46080, Note_on_c, 0, 42, 45
4, 46440, Note_on_c, 0, 42, 0
4, 46440, Note_on_c, 0, 30, 0
4, 46440, Note_on_c, 0, 64, 45
4, 46440, Note_on_c, 0, 66, 45
4, 46800, Note_on_c, 0, 66, 0
4, 46800, Note_on_c, 0, 64, 0
4, 46980, Note_on_c, 0, 62, 55
4, 47040, Note_on_c, 0, 62, 0
4, 47040, Note_on_c, 0, 59, 55
4, 47100, Note_on_c, 0, 59, 0
4, 47100, Note_on_c, 0, 54, 55
4, 47160, Note_on_c, 0, 54, 0
4, 47160, Note_on_c, 0, 47, 55
4, 47220, Note_on_c, 0, 47, 0
4, 47340, Note_on_c, 0, 63, 55
4, 47400, Note_on_c, 0, 63, 0
4, 47400, Note_on_c, 0, 59, 55
4, 47460, Note_on_c, 0, 59, 0
4, 47460, Note_on_c, 0, 54, 55
4, 47520, Note_on_c, 0, 54, 0
4, 47520, Note_on_c, 0, 39, 55
4, 47580, Note_on_c, 0, 39, 0
4, 47700, Note_on_c, 0, 63, 55
4, 47760, Note_on_c, 0, 63, 0
4, 47760, Note_on_c, 0, 59, 55
4, 47820, Note_on_c, 0, 59, 0
4, 47820, Note_on_c, 0, 54, 55
4, 47880, Note_on_c, 0, 54, 0
4, 47880, Note_on_c, 0, 39, 55
4, 47940, Note_on_c, 0, 39, 0
4, 48060, Note_on_c, 0, 59, 55
4, 48120, Note_on_c, 0, 59, 0
4, 48120, Note_on_c, 0, 54, 55
4, 48180, Note_on_c, 0, 54, 0
4, 48180, Note_on_c, 0, 51, 55
4, 48240, Note_on_c, 0, 51, 0
4, 48240, Note_on_c, 0, 47, 55
4, 48300, Note_on_c, 0, 47, 0
4, 48420, Note_on_c, 0, 56, 55
4, 48480, Note_on_c, 0, 56, 0
4, 48480, Note_on_c, 0, 54, 55
4, 48540, Note_on_c, 0, 54, 0
4, 48540, Note_on_c, 0, 51, 55
4, 48600, Note_on_c, 0, 51, 0
4, 48600, Note_on_c, 0, 44, 55
4, 48660, Note_on_c, 0, 44, 0
4, 48780, Note_on_c, 0, 56, 55
4, 48840, Note_on_c, 0, 56, 0
4, 48840, Note_on_c, 0, 54, 55
4, 48900, Note_on_c, 0, 54, 0
4, 48900, Note_on_c, 0, 51, 55
4, 48960, Note_on_c, 0, 51, 0
4, 48960, Note_on_c, 0, 37, 55
4, 49020, Note_on_c, 0, 37, 0
4, 49140, Note_on_c, 0, 61, 55
4, 49200, Note_on_c, 0, 61, 0
4, 49200, Note_on_c, 0, 53, 55
4, 49260, Note_on_c, 0, 53, 0
4, 49260, Note_on_c, 0, 49, 55
4, 49320, Note_on_c, 0, 49, 0
4, 49320, Note_on_c, 0, 42, 55
4, 49380, Note_on_c, 0, 42, 0
4, 49500, Note_on_c, 0, 58, 55
4, 49560, Note_on_c, 0, 58, 0
4, 49560, Note_on_c, 0, 49, 55
4, 49620, Note_on_c, 0, 49, 0
4, 49620, Note_on_c, 0, 46, 55
4, 49680, Note_on_c, 0, 46, 0
4, 49680, Note_on_c, 0, 35, 55
4, 49740, Note_on_c, 0, 35, 0
4, 49860, Note_on_c, 0, 56, 55
4, 49920, Note_on_c, 0, 56, 0
4, 49920, Note_on_c, 0, 51, 55
4, 49980, Note_on_c, 0, 51, 0
4, 49980, Note_on_c, 0, 47, 55
4, 50040, Note_on_c, 0, 47, 0
4, 50040, Note_on_c, 0, 33, 55
4, 50100, Note_on_c, 0, 33, 0
4, 50220, Note_on_c, 0, 57, 55
4, 50280, Note_on_c, 0, 57, 0
4, 50280, Note_on_c, 0, 51, 55
4, 50340, Note_on_c, 0, 51, 0
4, 50340, Note_on_c, 0, 47, 55
4, 50400, Note_on_c, 0, 47, 0
4, 50400, Note_on_c, 0, 32, 55
4, 50460, Note_on_c, 0, 32, 0
4, 50580, Note_on_c, 0, 56, 55
4, 50640, Note_on_c, 0, 56, 0
4, 50640, Note_on_c, 0, 47, 55
4, 50700, Note_on_c, 0, 47, 0
4, 50700, Note_on_c, 0, 44, 55
4, 50760, Note_on_c, 0, 44, 0
4, 50760, Note_on_c, 0, 34, 55
4, 50820, Note_on_c, 0, 34, 0
4, 50940, Note_on_c, 0, 49, 55
4, 51000, Note_on_c, 0, 49, 0
4, 51000, Note_on_c, 0, 42, 55
4, 51060, Note_on_c, 0, 42, 0
4, 51060, Note_on_c, 0, 35, 55
4, 51180, Note_on_c, 0, 35, 0
4, 51300, Note_on_c, 0, 51, 55
4, 51360, Note_on_c, 0, 51, 0
4, 51360, Note_on_c, 0, 47, 55
4, 51420, Note_on_c, 0, 47, 0
4, 51420, Note_on_c, 0, 35, 55
4, 51540, Note_on_c, 0, 35, 0
4, 51660, Note_on_c, 0, 50, 55
4, 51720, Note_on_c, 0, 50, 0
4, 51720, Note_on_c, 0, 47, 55
4, 51780, Note_on_c, 0, 47, 0
4, 51780, Note_on_c, 0, 37, 55
4, 51900, Note_on_c, 0, 37, 0
4, 52020, Note_on_c, 0, 47, 55
4, 52080, Note_on_c, 0, 47, 0
4, 52080, Note_on_c, 0, 37, 55
4, 52140, Note_on_c, 0, 37, 0
4, 52140, Note_on_c, 0, 30, 55
4, 52260, Note_on_c, 0, 30, 0
4, 52380, Note_on_c, 0, 46, 55
4, 52440, Note_on_c, 0, 46, 0
4, 52440, Note_on_c, 0, 37, 55
4, 52500, Note_on_c, 0, 37, 0
4, 52500, Note_on_c, 0, 30, 55
4, 52560, Note_on_c, 0, 30, 0
4, 52560, Note_on_c, 0, 35, 45
4, 52560, Note_on_c, 0, 47, 45
4, 52680, Note_on_c, 0, 47, 0
4, 52680, Note_on_c, 0, 35, 0
4, 52680, Note_on_c, 0, 34, 45
4, 52680, Note_on_c, 0, 46, 45
4, 52920, Note_on_c, 0, 46, 0
4, 52920, Note_on_c, 0, 34, 0
4, 52920, Note_on_c, 0, 35, 45
4, 52920, Note_on_c, 0, 47, 45
4, 53040, Note_on_c, 0, 47, 0
4, 53040, Note_on_c, 0, 35, 0
4, 53040, Note_on_c, 0, 40, 45
4, 53040, Note_on_c, 0, 46, 45
4, 53280, Note_on_c, 0, 46, 0
4, 53280, Note_on_c, 0, 40, 0
4, 53280, Note_on_c, 0, 39, 45
4, 53280, Note_on_c, 0, 47, 45
4, 53400, Note_on_c, 0, 47, 0
4, 53400, Note_on_c, 0, 39, 0
4, 53400, Note_on_c, 0, 42, 45
4, 53400, Note_on_c, 0, 37, 45
4, 53520, Note_on_c, 0, 37, 0
4, 53520, Note_on_c, 0, 42, 0
4, 53520, Note_on_c, 0, 35, 45
4, 53520, Note_on_c, 0, 42, 45
4, 53640, Note_on_c, 0, 42, 0
4, 53640, Note_on_c, 0, 35, 0
4, 53640, Note_on_c, 0, 32, 45
4, 53640, Note_on_c, 0, 44, 45
4, 53760, Note_on_c, 0, 44, 0
4, 53760, Note_on_c, 0, 32, 0
4, 53760, Note_on_c, 0, 25, 45
4, 53760, Note_on_c, 0, 37, 45
4, 53880, Note_on_c, 0, 37, 0
4, 53880, Note_on_c, 0, 25, 0
4, 53880, Note_on_c, 0, 39, 45
4, 53880, Note_on_c, 0, 27, 45
4, 54000, Note_on_c, 0, 27, 0
4, 54000, Note_on_c, 0, 39, 0
4, 54000, Note_on_c, 0, 30, 45
4, 54000, Note_on_c, 0, 42, 45
4, 54240, Note_on_c, 0, 42, 0
4, 54240, Note_on_c, 0, 30, 0
4, 54240, Note_on_c, 0, 35, 45
4, 54240, Note_on_c, 0, 47, 45
4, 54330, Note_on_c, 0, 47, 0
4, 54330, Note_on_c, 0, 35, 0
4, 54360, Note_on_c, 0, 35, 45
4, 54360, Note_on_c, 0, 47, 45
4, 54480, Note_on_c, 0, 47, 0
4, 54480, Note_on_c, 0, 35, 0
4, 54480, Note_on_c, 0, 34, 45
4, 54480, Note_on_c, 0, 46, 45
4, 54720, Note_on_c, 0, 46, 0
4, 54720, Note_on_c, 0, 34, 0
4, 54720, Note_on_c, 0, 35, 45
4, 54720, Note_on_c, 0, 47, 45
4, 54840, Note_on_c, 0, 47, 0
4, 54840, Note_on_c, 0, 35, 0
4, 54840, Note_on_c, 0, 32, 45
4, 54840, Note_on_c, 0, 44, 45
4, 55080, Note_on_c, 0, 44, 0
4, 55080, Note_on_c, 0, 32, 0
4, 55080, Note_on_c, 0, 34, 45
4, 55080, Note_on_c, 0, 46, 45
4, 55200, Note_on_c, 0, 46, 0
4, 55200, Note_on_c, 0, 34, 0
4, 55200, Note_on_c, 0, 32, 45
4, 55200, Note_on_c, 0, 44, 45
4, 55320, Note_on_c, 0, 44, 0
4, 55320, Note_on_c, 0, 32, 0
4, 55320, Note_on_c, 0, 29, 45
4, 55320, Note_on_c, 0, 41, 45
4, 55440, Note_on_c, 0, 41, 0
4, 55440, Note_on_c, 0, 29, 0
4, 55440, Note_on_c, 0, 27, 45
4, 55440, Note_on_c, 0, 39, 45
4, 55680, Note_on_c, 0, 39, 0
4, 55680, Note_on_c, 0, 27, 0
4, 55680, Note_on_c, 0, 25, 45
4, 55680, Note_on_c, 0, 37, 45
4, 55800, Note_on_c, 0, 37, 0
4, 55800, Note_on_c, 0, 25, 0
4, 55800, Note_on_c, 0, 30, 45
4, 55800, Note_on_c, 0, 42, 45
4, 56130, Note_on_c, 0, 42, 0
4, 56130, Note_on_c, 0, 30, 0
4, 56160, Note_on_c, 0, 35, 45
4, 56160, Note_on_c, 0, 47, 45
4, 56280, Note_on_c, 0, 35, 0
4, 56280, Note_on_c, 0, 40, 45
4, 56520, Note_on_c, 0, 40, 0
4, 56520, Note_on_c, 0, 47, 0
4, 56520, Note_on_c, 0, 35, 45
4, 56520, Note_on_c, 0, 47, 45
4, 56640, Note_on_c, 0, 47, 0
4, 56640, Note_on_c, 0, 35, 0
4, 56640, Note_on_c, 0, 33, 47
4, 56640, Note_on_c, 0, 45, 47
4, 56880, Note_on_c, 0, 45, 0
4, 56880, Note_on_c, 0, 33, 0
4, 56880, Note_on_c, 0, 32, 52
4, 56880, Note_on_c, 0, 44, 52
4, 57120, Note_on_c, 0, 44, 0
4, 57120, Note_on_c, 0, 32, 0
4, 57120, Note_on_c, 0, 31, 56
4, 57120, Note_on_c, 0, 43, 56
4, 57360, Note_on_c, 0, 43, 0
4, 57360, Note_on_c, 0, 31, 0
4, 57360, Note_on_c, 0, 30, 61
4, 57360, Note_on_c, 0, 42, 61
4, 57600, Note_on_c, 0, 42, 0
4, 57600, Note_on_c, 0, 30, 0
4, 57600, Note_on_c, 0, 28, 65
4, 57600, Note_on_c, 0, 40, 65
4, 57930, Note_on_c, 0, 40, 0
4, 57930, Note_on_c, 0, 28, 0
4, 57960, Note_on_c, 0, 35, 45
4, 57960, Note_on_c, 0, 47, 45
4, 58080, Note_on_c, 0, 47, 0
4, 58080, Note_on_c, 0, 35, 0
4, 58080, Note_on_c, 0, 40, 45
4, 58080, Note_on_c, 0, 46, 45
4, 58320, Note_on_c, 0, 46, 0
4, 58320, Note_on_c, 0, 40, 0
4, 58320, Note_on_c, 0, 35, 45
4, 58320, Note_on_c, 0, 47, 45
4, 58440, Note_on_c, 0, 47, 0
4, 58440, Note_on_c, 0, 35, 0
4, 58440, Note_on_c, 0, 34, 49
4, 58440, Note_on_c, 0, 46, 49
4, 58680, Note_on_c, 0, 46, 0
4, 58680, Note_on_c, 0, 34, 0
4, 58680, Note_on_c, 0, 33, 58
4, 58680, Note_on_c, 0, 45, 58
4, 58800, Note_on_c, 0, 45, 0
4, 58800, Note_on_c, 0, 33, 0
4, 58800, Note_on_c, 0, 32, 63
4, 58800, Note_on_c, 0, 44, 63
4, 59040, Note_on_c, 0, 44, 0
4, 59040, Note_on_c, 0, 32, 0
4, 59040, Note_on_c, 0, 31, 72
4, 59040, Note_on_c, 0, 43, 72
4, 59280, Note_on_c, 0, 43, 0
4, 59280, Note_on_c, 0, 31, 0
4, 59280, Note_on_c, 0, 29, 81
4, 59280, Note_on_c, 0, 41, 81
4, 59640, Note_on_c, 0, 41, 0
4, 59640, Note_on_c, 0, 29, 0
4, 59640, Note_on_c, 0, 28, 85
4, 59640, Note_on_c, 0, 40, 85
4, 60000, Note_on_c, 0, 40, 0
4, 60000, Note_on_c, 0, 28, 0
4, 60000, Note_on_c, 0, 27, 85
4, 60000, Note_on_c, 0, 39, 85
4, 60360, Note_on_c, 0, 39, 0
4, 60360, Note_on_c, 0, 27, 0
4, 60360, Note_on_c, 0, 26, 85
4, 60360, Note_on_c, 0, 38, 85
4, 60600, Note_on_c, 0, 38, 0
4, 60600, Note_on_c, 0, 26, 0
4, 60600, Note_on_c, 0, 25, 83
4, 60600, Note_on_c, 0, 37, 83
4, 60720, Note_on_c, 0, 37, 0
4, 60720, Note_on_c, 0, 25, 0
4, 60720, Note_on_c, 0, 27, 81
4, 60720, Note_on_c, 0, 39, 81
4, 60840, Note_on_c, 0, 39, 0
4, 60840, Note_on_c, 0, 27, 0
4, 60840, Note_on_c, 0, 29, 78
4, 60840, Note_on_c, 0, 41, 78
4, 60960, Note_on_c, 0, 41, 0
4, 60960, Note_on_c, 0, 29, 0
4, 60960, Note_on_c, 0, 30, 76
4, 60960, Note_on_c, 0, 42, 76
4, 61080, Note_on_c, 0, 42, 0
4, 61080, Note_on_c, 0, 30, 0
4, 61080, Note_on_c, 0, 32, 74
4, 61080, Note_on_c, 0, 44, 74
4, 61200, Note_on_c, 0, 44, 0
4, 61200, Note_on_c, 0, 32, 0
4, 61200, Note_on_c, 0, 34, 71
4, 61200, Note_on_c, 0, 46, 71
4, 61320, Note_on_c, 0, 46, 0
4, 61320, Note_on_c, 0, 34, 0
4, 61320, Note_on_c, 0, 35, 69
4, 61320, Note_on_c, 0, 47, 69
4, 61440, Note_on_c, 0, 47, 0
4, 61440, Note_on_c, 0, 35, 0
4, 61440, Note_on_c, 0, 37, 67
4, 61440, Note_on_c, 0, 49, 67
4, 61560, Note_on_c, 0, 49, 0
4, 61560, Note_on_c, 0, 37, 0
4, 61560, Note_on_c, 0, 42, 65
4, 61920, Note_on_c, 0, 42, 0
4, 61920, Note_on_c, 0, 47, 65
4, 61920, Note_on_c, 0, 54, 65
4, 62040, Note_on_c, 0, 54, 0
4, 62040, Note_on_c, 0, 47, 0
4, 62040, Note_on_c, 0, 55, 65
4, 62040, Note_on_c, 0, 52, 65
4, 62280, Note_on_c, 0, 52, 0
4, 62280, Note_on_c, 0, 55, 0
4, 62280, Note_on_c, 0, 40, 65
4, 62280, Note_on_c, 0, 47, 65
4, 62400, Note_on_c, 0, 47, 0
4, 62400, Note_on_c, 0, 40, 0
4, 62400, Note_on_c, 0, 38, 65
4, 62400, Note_on_c, 0, 50, 65
4, 62640, Note_on_c, 0, 50, 0
4, 62640, Note_on_c, 0, 38, 0
4, 62640, Note_on_c, 0, 50, 65
4, 62640, Note_on_c, 0, 43, 65
4, 62760, Note_on_c, 0, 43, 0
4, 62760, Note_on_c, 0, 50, 0
4, 62760, Note_on_c, 0, 52, 65
4, 62760, Note_on_c, 0, 49, 65
4, 63000, Note_on_c, 0, 49, 0
4, 63000, Note_on_c, 0, 52, 0
4, 63000, Note_on_c, 0, 40, 65
4, 63000, Note_on_c, 0, 47, 65
4, 63120, Note_on_c, 0, 47, 0
4, 63120, Note_on_c, 0, 40, 0
4, 63120, Note_on_c, 0, 38, 65
4, 63120, Note_on_c, 0, 50, 65
4, 63360, Note_on_c, 0, 50, 0
4, 63360, Note_on_c, 0, 38, 0
4, 63360, Note_on_c, 0, 47, 65
4, 63360, Note_on_c, 0, 40, 65
4, 63480, Note_on_c, 0, 40, 0
4, 63480, Note_on_c, 0, 47, 0
4, 63480, Note_on_c, 0, 49, 65
4, 63480, Note_on_c, 0, 45, 65
4, 63720, Note_on_c, 0, 45, 0
4, 63720, Note_on_c, 0, 49, 0
4, 63720, Note_on_c, 0, 52, 65
4, 63720, Note_on_c, 0, 45, 65
4, 63840, Note_on_c, 0, 45, 0
4, 63840, Note_on_c, 0, 52, 0
4, 63840, Note_on_c, 0, 54, 65
4, 63840, Note_on_c, 0, 50, 65
4, 64080, Note_on_c, 0, 50, 0
4, 64080, Note_on_c, 0, 54, 0
4, 64080, Note_on_c, 0, 38, 65
4, 64080, Note_on_c, 0, 45, 65
4, 64200, Note_on_c, 0, 45, 0
4, 64200, Note_on_c, 0, 38, 0
4, 64200, Note_on_c, 0, 47, 65
4, 64200, Note_on_c, 0, 43, 65
4, 64440, Note_on_c, 0, 43, 0
4, 64440, Note_on_c, 0, 47, 0
4, 64440, Note_on_c, 0, 50, 65
4, 64440, Note_on_c, 0, 43, 65
4, 64560, Note_on_c, 0, 43, 0
4, 64560, Note_on_c, 0, 50, 0
4, 64560, Note_on_c, 0, 52, 65
4, 64560, Note_on_c, 0, 49, 65
4, 64800, Note_on_c, 0, 49, 0
4, 64800, Note_on_c, 0, 52, 0
4, 64800, Note_on_c, 0, 37, 65
4, 64800, Note_on_c, 0, 43, 65
4, 64920, Note_on_c, 0, 43, 0
4, 64920, Note_on_c, 0, 37, 0
4, 64920, Note_on_c, 0, 45, 65
4, 64920, Note_on_c, 0, 42, 65
4, 65160, Note_on_c, 0, 42, 0
4, 65160, Note_on_c, 0, 45, 0
4, 65160, Note_on_c, 0, 45, 65
4, 65160, Note_on_c, 0, 42, 65
4, 65280, Note_on_c, 0, 45, 0
4, 65280, Note_on_c, 0, 46, 65
4, 65520, Note_on_c, 0, 46, 0
4, 65520, Note_on_c, 0, 42, 0
4, 65520, Note_on_c, 0, 35, 65
4, 65520, Note_on_c, 0, 47, 65
4, 65640, Note_on_c, 0, 47, 0
4, 65640, Note_on_c, 0, 35, 0
4, 65640, Note_on_c, 0, 34, 65
4, 65640, Note_on_c, 0, 46, 65
4, 65880, Note_on_c, 0, 46, 0
4, 65880, Note_on_c, 0, 34, 0
4, 65880, Note_on_c, 0, 35, 65
4, 65880, Note_on_c, 0, 47, 65
4, 66000, Note_on_c, 0, 47, 0
4, 66000, Note_on_c, 0, 35, 0
4, 66000, Note_on_c, 0, 46, 65
4, 66000, Note_on_c, 0, 40, 65
4, 66240, Note_on_c, 0, 40, 0
4, 66240, Note_on_c, 0, 46, 0
4, 66240, Note_on_c, 0, 42, 65
4, 66240, Note_on_c, 0, 45, 65
4, 66360, Note_on_c, 0, 45, 0
4, 66360, Note_on_c, 0, 42, 0
4, 66360, Note_on_c, 0, 40, 68
4, 66360, Note_on_c, 0, 45, 68
4, 66480, Note_on_c, 0, 45, 0
4, 66480, Note_on_c, 0, 40, 0
4, 66480, Note_on_c, 0, 38, 72
4, 66480, Note_on_c, 0, 45, 72
4, 66600, Note_on_c, 0, 45, 0
4, 66600, Note_on_c, 0, 38, 0
4, 66600, Note_on_c, 0, 35, 75
4, 66600, Note_on_c, 0, 47, 75
4, 66720, Note_on_c, 0, 47, 0
4, 66720, Note_on_c, 0, 35, 0
4, 66720, Note_on_c, 0, 28, 79
4, 66720, Note_on_c, 0, 40, 79
4, 66840, Note_on_c, 0, 40, 0
4, 66840, Note_on_c, 0, 28, 0
4, 66840, Note_on_c, 0, 42, 82
4, 66840, Note_on_c, 0, 30, 82
4, 66960, Note_on_c, 0, 30, 0
4, 66960, Note_on_c, 0, 42, 0
4, 66960, Note_on_c, 0, 33, 85
4, 66960, Note_on_c, 0, 45, 85
4, 67200, Note_on_c, 0, 45, 0
4, 67200, Note_on_c, 0, 33, 0
4, 67200, Note_on_c, 0, 38, 80
4, 67200, Note_on_c, 0, 50, 80
4, 67290, Note_on_c, 0, 50, 0
4, 67290, Note_on_c, 0, 38, 0
4, 67320, Note_on_c, 0, 35, 77
4, 67320, Note_on_c, 0, 47, 77
4, 67440, Note_on_c, 0, 47, 0
4, 67440, Note_on_c, 0, 35, 0
4, 67440, Note_on_c, 0, 33, 74
4, 67440, Note_on_c, 0, 45, 74
4, 67680, Note_on_c, 0, 45, 0
4, 67680, Note_on_c, 0, 33, 0
4, 67680, Note_on_c, 0, 35, 69
4, 67680, Note_on_c, 0, 47, 69
4, 67800, Note_on_c, 0, 47, 0
4, 67800, Note_on_c, 0, 35, 0
4, 67800, Note_on_c, 0, 31, 66
4, 67800, Note_on_c, 0, 43, 66
4, 68040, Note_on_c, 0, 43, 0
4, 68040, Note_on_c, 0, 31, 0
4, 68040, Note_on_c, 0, 33, 60
4, 68040, Note_on_c, 0, 45, 60
4, 68160, Note_on_c, 0, 45, 0
4, 68160, Note_on_c, 0, 33, 0
4, 68160, Note_on_c, 0, 26, 58
4, 68160, Note_on_c, 0, 38, 58
4, 68280, Note_on_c, 0, 38, 0
4, 68280, Note_on_c, 0, 26, 0
4, 68280, Note_on_c, 0, 28, 55
4, 68280, Note_on_c, 0, 40, 55
4, 68400, Note_on_c, 0, 40, 0
4, 68400, Note_on_c, 0, 28, 0
4, 68400, Note_on_c, 0, 30, 52
4, 68400, Note_on_c, 0, 42, 52
4, 68520, Note_on_c, 0, 42, 0
4, 68520, Note_on_c, 0, 30, 0
4, 68520, Note_on_c, 0, 31, 49
4, 68520, Note_on_c, 0, 43, 49
4, 68640, Note_on_c, 0, 43, 0
4, 68640, Note_on_c, 0, 31, 0
4, 68640, Note_on_c, 0, 36, 46
4, 68640, Note_on_c, 0, 48, 46
4, 68760, Note_on_c, 0, 48, 0
4, 68760, Note_on_c, 0, 36, 0
4, 68760, Note_on_c, 0, 42, 45
4, 68760, Note_on_c, 0, 49, 45
4, 69000, Note_on_c, 0, 49, 0
4, 69000, Note_on_c, 0, 42, 0
4, 69000, Note_on_c, 0, 42, 35
4, 69120, Note_on_c, 0, 42, 0
4, 69120, Note_on_c, 0, 47, 45
4, 69180, Note_on_c, 0, 47, 0
4, 69180, Note_on_c, 0, 35, 35
4, 69240, Note_on_c, 0, 35, 0
4, 69240, Note_on_c, 0, 47, 45
4, 69300, Note_on_c, 0, 47, 0
4, 69300, Note_on_c, 0, 35, 35
4, 69360, Note_on_c, 0, 35, 0
4, 69360, Note_on_c, 0, 45, 45
4, 69420, Note_on_c, 0, 45, 0
4, 69420, Note_on_c, 0, 35, 35
4, 69480, Note_on_c, 0, 35, 0
4, 69480, Note_on_c, 0, 43, 45
4, 69540, Note_on_c, 0, 43, 0
4, 69540, Note_on_c, 0, 35, 35
4, 69600, Note_on_c, 0, 35, 0
4, 69600, Note_on_c, 0, 43, 45
4, 69660, Note_on_c, 0, 43, 0
4, 69660, Note_on_c, 0, 35, 35
4, 69720, Note_on_c, 0, 35, 0
4, 69720, Note_on_c, 0, 42, 45
4, 69780, Note_on_c, 0, 42, 0
4, 69780, Note_on_c, 0, 35, 35
4, 69840, Note_on_c, 0, 35, 0
4, 69840, Note_on_c, 0, 40, 45
4, 69900, Note_on_c, 0, 40, 0
4, 69900, Note_on_c, 0, 35, 35
4, 69960, Note_on_c, 0, 35, 0
4, 69960, Note_on_c, 0, 40, 45
4, 70020, Note_on_c, 0, 40, 0
4, 70020, Note_on_c, 0, 35, 35
4, 70080, Note_on_c, 0, 35, 0
4, 70080, Note_on_c, 0, 38, 45
4, 70140, Note_on_c, 0, 38, 0
4, 70140, Note_on_c, 0, 35, 35
4, 70200, Note_on_c, 0, 35, 0
4, 70200, Note_on_c, 0, 38, 45
4, 70260, Note_on_c, 0, 38, 0
4, 70260, Note_on_c, 0, 35, 35
4, 70320, Note_on_c, 0, 35, 0
4, 70320, Note_on_c, 0, 38, 45
4, 70380, Note_on_c, 0, 38, 0
4, 70380, Note_on_c, 0, 35, 35
4, 70440, Note_on_c, 0, 35, 0
4, 70440, Note_on_c, 0, 37, 45
4, 70500, Note_on_c, 0, 37, 0
4, 70500, Note_on_c, 0, 35, 35
4, 70560, Note_on_c, 0, 35, 0
4, 70560, Note_on_c, 0, 37, 35
4, 70620, Note_on_c, 0, 37, 0
4, 70620, Note_on_c, 0, 34, 35
4, 70680, Note_on_c, 0, 34, 0
4, 70680, Note_on_c, 0, 37, 36
4, 70740, Note_on_c, 0, 37, 0
4, 70740, Note_on_c, 0, 34, 37
4, 70800, Note_on_c, 0, 34, 0
4, 70800, Note_on_c, 0, 37, 38
4, 70860, Note_on_c, 0, 37, 0
4, 70860, Note_on_c, 0, 32, 49
4, 70920, Note_on_c, 0, 32, 0
4, 70920, Note_on_c, 0, 37, 40
4, 70980, Note_on_c, 0, 37, 0
4, 70980, Note_on_c, 0, 30, 51
4, 71040, Note_on_c, 0, 30, 0
4, 71040, Note_on_c, 0, 37, 42
4, 71100, Note_on_c, 0, 37, 0
4, 71100, Note_on_c, 0, 30, 53
4, 71160, Note_on_c, 0, 30, 0
4, 71160, Note_on_c, 0, 37, 44
4, 71220, Note_on_c, 0, 37, 0
4, 71220, Note_on_c, 0, 27, 55
4, 71280, Note_on_c, 0, 27, 0
4, 71280, Note_on_c, 0, 37, 56
4, 71340, Note_on_c, 0, 37, 0
4, 71340, Note_on_c, 0, 25, 47
4, 71400, Note_on_c, 0, 25, 0
4, 71400, Note_on_c, 0, 37, 58
4, 71460, Note_on_c, 0, 37, 0
4, 71460, Note_on_c, 0, 25, 49
4, 71520, Note_on_c, 0, 25, 0
4, 71520, Note_on_c, 0, 37, 60
4, 71580, Note_on_c, 0, 37, 0
4, 71580, Note_on_c, 0, 25, 51
4, 71640, Note_on_c, 0, 25, 0
4, 71640, Note_on_c, 0, 37, 62
4, 71700, Note_on_c, 0, 37, 0
4, 71700, Note_on_c, 0, 25, 53
4, 71760, Note_on_c, 0, 25, 0
4, 71760, Note_on_c, 0, 37, 64
4, 71820, Note_on_c, 0, 37, 0
4, 71820, Note_on_c, 0, 25, 55
4, 71880, Note_on_c, 0, 25, 0
4, 71880, Note_on_c, 0, 42, 65
4, 71940, Note_on_c, 0, 42, 0
4, 71940, Note_on_c, 0, 30, 55
4, 72000, Note_on_c, 0, 30, 0
4, 72000, Note_on_c, 0, 42, 65
4, 72060, Note_on_c, 0, 42, 0
4, 72060, Note_on_c, 0, 30, 55
4, 72120, Note_on_c, 0, 30, 0
4, 72120, Note_on_c, 0, 42, 65
4, 72180, Note_on_c, 0, 42, 0
4, 72180, Note_on_c, 0, 30, 55
4, 72240, Note_on_c, 0, 30, 0
4, 72240, Note_on_c, 0, 42, 65
4, 72300, Note_on_c, 0, 42, 0
4, 72300, Note_on_c, 0, 30, 55
4, 72360, Note_on_c, 0, 30, 0
4, 72360, Note_on_c, 0, 42, 65
4, 72420, Note_on_c, 0, 42, 0
4, 72420, Note_on_c, 0, 30, 55
4, 72480, Note_on_c, 0, 30, 0
4, 72480, Note_on_c, 0, 42, 65
4, 72540, Note_on_c, 0, 42, 0
4, 72540, Note_on_c, 0, 30, 55
4, 72600, Note_on_c, 0, 30, 0
4, 72600, Note_on_c, 0, 45, 65
4, 72660, Note_on_c, 0, 45, 0
4, 72660, Note_on_c, 0, 35, 55
4, 72720, Note_on_c, 0, 35, 0
4, 72720, Note_on_c, 0, 45, 65
4, 72780, Note_on_c, 0, 45, 0
4, 72780, Note_on_c, 0, 35, 55
4, 72840, Note_on_c, 0, 35, 0
4, 72840, Note_on_c, 0, 47, 64
4, 72900, Note_on_c, 0, 47, 0
4, 72900, Note_on_c, 0, 35, 53
4, 72960, Note_on_c, 0, 35, 0
4, 72960, Note_on_c, 0, 47, 63
4, 73020, Note_on_c, 0, 47, 0
4, 73020, Note_on_c, 0, 35, 52
4, 73080, Note_on_c, 0, 35, 0
4, 73080, Note_on_c, 0, 47, 61
4, 73140, Note_on_c, 0, 47, 0
4, 73140, Note_on_c, 0, 35, 50
4, 73200, Note_on_c, 0, 35, 0
4, 73200, Note_on_c, 0, 47, 60
4, 73260, Note_on_c, 0, 47, 0
4, 73260, Note_on_c, 0, 35, 49
4, 73320, Note_on_c, 0, 35, 0
4, 73320, Note_on_c, 0, 39, 58
4, 73380, Note_on_c, 0, 39, 0
4, 73380, Note_on_c, 0, 27, 47
4, 73440, Note_on_c, 0, 27, 0
4, 73440, Note_on_c, 0, 40, 57
4, 73500, Note_on_c, 0, 40, 0
4, 73500, Note_on_c, 0, 28, 46
4, 73560, Note_on_c, 0, 28, 0
4, 73560, Note_on_c, 0, 40, 55
4, 73620, Note_on_c, 0, 40, 0
4, 73620, Note_on_c, 0, 28, 44
4, 73680, Note_on_c, 0, 28, 0
4, 73680, Note_on_c, 0, 43, 54
4, 73740, Note_on_c, 0, 43, 0
4, 73740, Note_on_c, 0, 31, 43
4, 73800, Note_on_c, 0, 31, 0
4, 73800, Note_on_c, 0, 35, 42
4, 73810, Note_on_c, 0, 54, 62
4, 73840, Note_on_c, 0, 35, 0
4, 73840, Note_on_c, 0, 59, 42
4, 73880, Note_on_c, 0, 59, 0
4, 73880, Note_on_c, 0, 47, 41
4, 73920, Note_on_c, 0, 47, 0
4, 73920, Note_on_c, 0, 54, 0
4, 73920, Note_on_c, 0, 54, 41
4, 73960, Note_on_c, 0, 54, 0
4, 73960, Note_on_c, 0, 59, 40
4, 74000, Note_on_c, 0, 59, 0
4, 74000, Note_on_c, 0, 47, 40
4, 74040, Note_on_c, 0, 47, 0
4, 74040, Note_on_c, 0, 54, 39
4, 74080, Note_on_c, 0, 54, 0
4, 74080, Note_on_c, 0, 59, 39
4, 74120, Note_on_c, 0, 59, 0
4, 74120, Note_on_c, 0, 47, 38
4, 74160, Note_on_c, 0, 47, 0
4, 74160, Note_on_c, 0, 54, 38
4, 74200, Note_on_c, 0, 54, 0
4, 74200, Note_on_c, 0, 59, 37
4, 74240, Note_on_c, 0, 59, 0
4, 74240, Note_on_c, 0, 47, 37
4, 74280, Note_on_c, 0, 47, 0
4, 74280, Note_on_c, 0, 54, 36
4, 74320, Note_on_c, 0, 54, 0
4, 74320, Note_on_c, 0, 59, 36
4, 74360, Note_on_c, 0, 59, 0
4, 74360, Note_on_c, 0, 47, 35
4, 74400, Note_on_c, 0, 47, 0
4, 74400, Note_on_c, 0, 54, 35
4, 74440, Note_on_c, 0, 54, 0
4, 74440, Note_on_c, 0, 59, 35
4, 74480, Note_on_c, 0, 59, 0
4, 74480, Note_on_c, 0, 47, 35
4, 74520, Note_on_c, 0, 47, 0
4, 74520, Note_on_c, 0, 54, 35
4, 74560, Note_on_c, 0, 54, 0
4, 74560, Note_on_c, 0, 59, 35
4, 74600, Note_on_c, 0, 59, 0
4, 74600, Note_on_c, 0, 47, 35
4, 74640, Note_on_c, 0, 47, 0
4, 74640, Note_on_c, 0, 54, 35
4, 74680, Note_on_c, 0, 54, 0
4, 74680, Note_on_c, 0, 59, 35
4, 74720, Note_on_c, 0, 59, 0
4, 74720, Note_on_c, 0, 47, 35
4, 74760, Note_on_c, 0, 47, 0
4, 74760, Note_on_c, 0, 27, 55
4, 74760, Note_on_c, 0, 39, 55
4, 74880, Note_on_c, 0, 39, 0
4, 74880, Note_on_c, 0, 27, 0
4, 74880, Note_on_c, 0, 28, 55
4, 74880, Note_on_c, 0, 40, 55
4, 75120, Note_on_c, 0, 40, 0
4, 75120, Note_on_c, 0, 28, 0
4, 75120, Note_on_c, 0, 31, 55
4, 75120, Note_on_c, 0, 43, 55
4, 75240, Note_on_c, 0, 43, 0
4, 75240, Note_on_c, 0, 31, 0
4, 75240, Note_on_c, 0, 35, 35
4, 75250, Note_on_c, 0, 54, 35
4, 75280, Note_on_c, 0, 54, 0
4, 75280, Note_on_c, 0, 35, 0
4, 75280, Note_on_c, 0, 59, 35
4, 75320, Note_on_c, 0, 59, 0
4, 75320, Note_on_c, 0, 47, 35
4, 75360, Note_on_c, 0, 47, 0
4, 75360, Note_on_c, 0, 54, 35
4, 75400, Note_on_c, 0, 54, 0
4, 75400, Note_on_c, 0, 59, 35
4, 75440, Note_on_c, 0, 59, 0
4, 75440, Note_on_c, 0, 47, 35
4, 75480, Note_on_c, 0, 47, 0
4, 75480, Note_on_c, 0, 54, 35
4, 75520, Note_on_c, 0, 54, 0
4, 75520, Note_on_c, 0, 59, 35
4, 75560, Note_on_c, 0, 59, 0
4, 75560, Note_on_c, 0, 47, 35
4, 75600, Note_on_c, 0, 47, 0
4, 75600, Note_on_c, 0, 54, 35
4, 75640, Note_on_c, 0, 54, 0
4, 75640, Note_on_c, 0, 59, 35
4, 75680, Note_on_c, 0, 59, 0
4, 75680, Note_on_c, 0, 47, 35
4, 75720, Note_on_c, 0, 47, 0
4, 75720, Note_on_c, 0, 54, 35
4, 75760, Note_on_c, 0, 54, 0
4, 75760, Note_on_c, 0, 59, 35
4, 75800, Note_on_c, 0, 59, 0
4, 75800, Note_on_c, 0, 47, 35
4, 75840, Note_on_c, 0, 47, 0
4, 75840, Note_on_c, 0, 54, 35
4, 75880, Note_on_c, 0, 54, 0
4, 75880, Note_on_c, 0, 59, 35
4, 75920, Note_on_c, 0, 59, 0
4, 75920, Note_on_c, 0, 47, 35
4, 75960, Note_on_c, 0, 47, 0
4, 75960, Note_on_c, 0, 54, 35
4, 76000, Note_on_c, 0, 54, 0
4, 76000, Note_on_c, 0, 59, 35
4, 76040, Note_on_c, 0, 59, 0
4, 76040, Note_on_c, 0, 47, 35
4, 76080, Note_on_c, 0, 47, 0
4, 76080, Note_on_c, 0, 54, 35
4, 76120, Note_on_c, 0, 54, 0
4, 76120, Note_on_c, 0, 59, 35
4, 76160, Note_on_c, 0, 59, 0
4, 76160, Note_on_c, 0, 47, 35
4, 76200, Note_on_c, 0, 47, 0
4, 76200, Note_on_c, 0, 27, 55
4, 76200, Note_on_c, 0, 39, 55
4, 76320, Note_on_c, 0, 39, 0
4, 76320, Note_on_c, 0, 27, 0
4, 76320, Note_on_c, 0, 28, 55
4, 76320, Note_on_c, 0, 40, 55
4, 76560, Note_on_c, 0, 40, 0
4, 76560, Note_on_c, 0, 28, 0
4, 76560, Note_on_c, 0, 31, 55
4, 76560, Note_on_c, 0, 43, 55
4, 76680, Note_on_c, 0, 43, 0
4, 76680, Note_on_c, 0, 31, 0
4, 76680, Note_on_c, 0, 35, 55
4, 76920, Note_on_c, 0, 35, 0
4, 76920, Note_on_c, 0, 28, 55
4, 76920, Note_on_c, 0, 40, 55
4, 77040, Note_on_c, 0, 40, 0
4, 77040, Note_on_c, 0, 28, 0
4, 77040, Note_on_c, 0, 27, 55
4, 77040, Note_on_c, 0, 39, 55
4, 77280, Note_on_c, 0, 39, 0
4, 77280, Note_on_c, 0, 27, 0
4, 77280, Note_on_c, 0, 35, 55
4, 77280, Note_on_c, 0, 43, 55
4, 77400, Note_on_c, 0, 43, 0
4, 77400, Note_on_c, 0, 35, 0
4, 77400, Note_on_c, 0, 35, 55
4, 77400, Note_on_c, 0, 42, 55
4, 77640, Note_on_c, 0, 42, 0
4, 77640, Note_on_c, 0, 35, 0
4, 77640, Note_on_c, 0, 28, 55
4, 77640, Note_on_c, 0, 35, 55
4, 77640, Note_on_c, 0, 40, 55
4, 77760, Note_on_c, 0, 40, 0
4, 77760, Note_on_c, 0, 35, 0
4, 77760, Note_on_c, 0, 28, 0
4, 77760, Note_on_c, 0, 42, 35
4, 77820, Note_on_c, 0, 42, 0
4, 77820, Note_on_c, 0, 35, 35
4, 77880, Note_on_c, 0, 35, 0
4, 77880, Note_on_c, 0, 42, 35
4, 77940, Note_on_c, 0, 42, 0
4, 77940, Note_on_c, 0, 35, 35
4, 78000, Note_on_c, 0, 35, 0
4, 78000, Note_on_c, 0, 42, 35
4, 78060, Note_on_c, 0, 42, 0
4, 78060, Note_on_c, 0, 35, 35
4, 78120, Note_on_c, 0, 35, 0
4, 78120, Note_on_c, 0, 42, 35
4, 78180, Note_on_c, 0, 42, 0
4, 78180, Note_on_c, 0, 35, 35
4, 78240, Note_on_c, 0, 35, 0
4, 78240, Note_on_c, 0, 42, 35
4, 78300, Note_on_c, 0, 42, 0
4, 78300, Note_on_c, 0, 35, 35
4, 78360, Note_on_c, 0, 35, 0
4, 78360, Note_on_c, 0, 42, 35
4, 78420, Note_on_c, 0, 42, 0
4, 78420, Note_on_c, 0, 35, 35
4, 78480, Note_on_c, 0, 42, 35
4, 79200, Note_on_c, 0, 42, 0
4, 79200, Note_on_c, 0, 35, 0
4, 79200, End_track
5, 0, Start_track
5, 0, Title_t, "Pedal"
5, 0, Program_c, 0, 0
5, 0, Control_c, 0, 7, 127
5, 0, Control_c, 0, 10, 64
5, 0, Control_c, 0, 64, 127
5, 345, Control_c, 0, 64, 0
5, 360, Control_c, 0, 64, 127
5, 705, Control_c, 0, 64, 0
5, 720, Control_c, 0, 64, 127
5, 1065, Control_c, 0, 64, 0
5, 1080, Control_c, 0, 64, 127
5, 1425, Control_c, 0, 64, 0
5, 1440, Control_c, 0, 64, 127
5, 1785, Control_c, 0, 64, 0
5, 1800, Control_c, 0, 64, 127
5, 2145, Control_c, 0, 64, 0
5, 2160, Control_c, 0, 64, 127
5, 2505, Control_c, 0, 64, 0
5, 2520, Control_c, 0, 64, 127
5, 2865, Control_c, 0, 64, 0
5, 2880, Control_c, 0, 64, 127
5, 3225, Control_c, 0, 64, 0
5, 3240, Control_c, 0, 64, 127
5, 3585, Control_c, 0, 64, 0
5, 3600, Control_c, 0, 64, 127
5, 3945, Control_c, 0, 64, 0
5, 3960, Control_c, 0, 64, 127
5, 4305, Control_c, 0, 64, 0
5, 4320, Control_c, 0, 64, 127
5, 4665, Control_c, 0, 64, 0
5, 4680, Control_c, 0, 64, 127
5, 5025, Control_c, 0, 64, 0
5, 5040, Control_c, 0, 64, 127
5, 5385, Control_c, 0, 64, 0
5, 5400, Control_c, 0, 64, 127
5, 5745, Control_c, 0, 64, 0
5, 5760, Control_c, 0, 64, 127
5, 6105, Control_c, 0, 64, 0
5, 6120, Control_c, 0, 64, 127
5, 6465, Control_c, 0, 64, 0
5, 6480, Control_c, 0, 64, 127
5, 6825, Control_c, 0, 64, 0
5, 6840, Control_c, 0, 64, 127
5, 7185, Control_c, 0, 64, 0
5, 7200, Control_c, 0, 64, 127
5, 7545, Control_c, 0, 64, 0
5, 7560, Control_c, 0, 64, 127
5, 7905, Control_c, 0, 64, 0
5, 7920, Control_c, 0, 64, 127
5, 8265, Control_c, 0, 64, 0
5, 8280, Control_c, 0, 64, 127
5, 8625, Control_c, 0, 64, 0
5, 8640, Control_c, 0, 64, 127
5, 8985, Control_c, 0, 64, 0
5, 9000, Control_c, 0, 64, 127
5, 9345, Control_c, 0, 64, 0
5, 9360, Control_c, 0, 64, 127
5, 9705, Control_c, 0, 64, 0
5, 9720, Control_c, 0, 64, 127
5, 10065, Control_c, 0, 64, 0
5, 10080, Control_c, 0, 64, 127
5, 10425, Control_c, 0, 64, 0
5, 10440, Control_c, 0, 64, 127
5, 10785, Control_c, 0, 64, 0
5, 10800, Control_c, 0, 64, 127
5, 11145, Control_c, 0, 64, 0
5, 11160, Control_c, 0, 64, 127
5, 11505, Control_c, 0, 64, 0
5, 11520, Control_c, 0, 64, 127
5, 11865, Control_c, 0, 64, 0
5, 11880, Control_c, 0, 64, 127
5, 12225, Control_c, 0, 64, 0
5, 12240, Control_c, 0, 64, 127
5, 12585, Control_c, 0, 64, 0
5, 12600, Control_c, 0, 64, 127
5, 12945, Control_c, 0, 64, 0
5, 12960, Control_c, 0, 64, 127
5, 13305, Control_c, 0, 64, 0
5, 13320, Control_c, 0, 64, 127
5, 13665, Control_c, 0, 64, 0
5, 13680, Control_c, 0, 64, 127
5, 14025, Control_c, 0, 64, 0
5, 14040, Control_c, 0, 64, 127
5, 14385, Control_c, 0, 64, 0
5, 14400, Control_c, 0, 64, 127
5, 14745, Control_c, 0, 64, 0
5, 14760, Control_c, 0, 64, 127
5, 15105, Control_c, 0, 64, 0
5, 15120, Control_c, 0, 64, 127
5, 15465, Control_c, 0, 64, 0
5, 15480, Control_c, 0, 64, 127
5, 15825, Control_c, 0, 64, 0
5, 15840, Control_c, 0, 64, 127
5, 16185, Control_c, 0, 64, 0
5, 16200, Control_c, 0, 64, 127
5, 16545, Control_c, 0, 64, 0
5, 16560, Control_c, 0, 64, 127
5, 16905, Control_c, 0, 64, 0
5, 16920, Control_c, 0, 64, 127
5, 17265, Control_c, 0, 64, 0
5, 17280, Control_c, 0, 64, 127
5, 17625, Control_c, 0, 64, 0
5, 17640, Control_c, 0, 64, 127
5, 17985, Control_c, 0, 64, 0
5, 18000, Control_c, 0, 64, 127
5, 18345, Control_c, 0, 64, 0
5, 18360, Control_c, 0, 64, 127
5, 18705, Control_c, 0, 64, 0
5, 18720, Control_c, 0, 64, 127
5, 19065, Control_c, 0, 64, 0
5, 19080, Control_c, 0, 64, 127
5, 19425, Control_c, 0, 64, 0
5, 19440, Control_c, 0, 64, 127
5, 19785, Control_c, 0, 64, 0
5, 19800, Control_c, 0, 64, 127
5, 20145, Control_c, 0, 64, 0
5, 20160, Control_c, 0, 64, 127
5, 20505, Control_c, 0, 64, 0
5, 20520, Control_c, 0, 64, 127
5, 20865, Control_c, 0, 64, 0
5, 20880, Control_c, 0, 64, 127
5, 21225, Control_c, 0, 64, 0
5, 21240, Control_c, 0, 64, 127
5, 21585, Control_c, 0, 64, 0
5, 21600, Control_c, 0, 64, 127
5, 21960, Control_c, 0, 64, 0
5, 22320, Control_c, 0, 64, 127
5, 22425, Control_c, 0, 64, 0
5, 22440, Control_c, 0, 64, 127
5, 22545, Control_c, 0, 64, 0
5, 22560, Control_c, 0, 64, 127
5, 22665, Control_c, 0, 64, 0
5, 22680, Control_c, 0, 64, 127
5, 22785, Control_c, 0, 64, 0
5, 22800, Control_c, 0, 64, 127
5, 22905, Control_c, 0, 64, 0
5, 22920, Control_c, 0, 64, 127
5, 23025, Control_c, 0, 64, 0
5, 23040, Control_c, 0, 64, 127
5, 23145, Control_c, 0, 64, 0
5, 23160, Control_c, 0, 64, 127
5, 23265, Control_c, 0, 64, 0
5, 23280, Control_c, 0, 64, 127
5, 23385, Control_c, 0, 64, 0
5, 23400, Control_c, 0, 64, 127
5, 23505, Control_c, 0, 64, 0
5, 23520, Control_c, 0, 64, 127
5, 23625, Control_c, 0, 64, 0
5, 23640, Control_c, 0, 64, 127
5, 23745, Control_c, 0, 64, 0
5, 23760, Control_c, 0, 64, 127
5, 23865, Control_c, 0, 64, 0
5, 23880, Control_c, 0, 64, 127
5, 23985, Control_c, 0, 64, 0
5, 24000, Control_c, 0, 64, 127
5, 24105, Control_c, 0, 64, 0
5, 24120, Control_c, 0, 64, 127
5, 24225, Control_c, 0, 64, 0
5, 24240, Control_c, 0, 64, 127
5, 24345, Control_c, 0, 64, 0
5, 24360, Control_c, 0, 64, 127
5, 24465, Control_c, 0, 64, 0
5, 24480, Control_c, 0, 64, 127
5, 24585, Control_c, 0, 64, 0
5, 24600, Control_c, 0, 64, 127
5, 24705, Control_c, 0, 64, 0
5, 24720, Control_c, 0, 64, 127
5, 24825, Control_c, 0, 64, 0
5, 24840, Control_c, 0, 64, 127
5, 24945, Control_c, 0, 64, 0
5, 24960, Control_c, 0, 64, 127
5, 25065, Control_c, 0, 64, 0
5, 25080, Control_c, 0, 64, 127
5, 25185, Control_c, 0, 64, 0
5, 25200, Control_c, 0, 64, 127
5, 25305, Control_c, 0, 64, 0
5, 25320, Control_c, 0, 64, 127
5, 25425, Control_c, 0, 64, 0
5, 25440, Control_c, 0, 64, 127
5, 25545, Control_c, 0, 64, 0
5, 25560, Control_c, 0, 64, 127
5, 25665, Control_c, 0, 64, 0
5, 25680, Control_c, 0, 64, 127
5, 25785, Control_c, 0, 64, 0
5, 25800, Control_c, 0, 64, 127
5, 25905, Control_c, 0, 64, 0
5, 25920, Control_c, 0, 64, 127
5, 26025, Control_c, 0, 64, 0
5, 26040, Control_c, 0, 64, 127
5, 26145, Control_c, 0, 64, 0
5, 26160, Control_c, 0, 64, 127
5, 26265, Control_c, 0, 64, 0
5, 26280, Control_c, 0, 64, 127
5, 26385, Control_c, 0, 64, 0
5, 26400, Control_c, 0, 64, 127
5, 26505, Control_c, 0, 64, 0
5, 26520, Control_c, 0, 64, 127
5, 26625, Control_c, 0, 64, 0
5, 26640, Control_c, 0, 64, 127
5, 26745, Control_c, 0, 64, 0
5, 26760, Control_c, 0, 64, 127
5, 26865, Control_c, 0, 64, 0
5, 26880, Control_c, 0, 64, 127
5, 26985, Control_c, 0, 64, 0
5, 27000, Control_c, 0, 64, 127
5, 27105, Control_c, 0, 64, 0
5, 27120, Control_c, 0, 64, 127
5, 27225, Control_c, 0, 64, 0
5, 27240, Control_c, 0, 64, 127
5, 27345, Control_c, 0, 64, 0
5, 27360, Control_c, 0, 64, 127
5, 27465, Control_c, 0, 64, 0
5, 27480, Control_c, 0, 64, 127
5, 27585, Control_c, 0, 64, 0
5, 27600, Control_c, 0, 64, 127
5, 27705, Control_c, 0, 64, 0
5, 27720, Control_c, 0, 64, 127
5, 27825, Control_c, 0, 64, 0
5, 27840, Control_c, 0, 64, 127
5, 27945, Control_c, 0, 64, 0
5, 27960, Control_c, 0, 64, 127
5, 28065, Control_c, 0, 64, 0
5, 28080, Control_c, 0, 64, 127
5, 28185, Control_c, 0, 64, 0
5, 28200, Control_c, 0, 64, 127
5, 28305, Control_c, 0, 64, 0
5, 28320, Control_c, 0, 64, 127
5, 28425, Control_c, 0, 64, 0
5, 28440, Control_c, 0, 64, 127
5, 28545, Control_c, 0, 64, 0
5, 28560, Control_c, 0, 64, 127
5, 28665, Control_c, 0, 64, 0
5, 28680, Control_c, 0, 64, 127
5, 28785, Control_c, 0, 64, 0
5, 28800, Control_c, 0, 64, 127
5, 28905, Control_c, 0, 64, 0
5, 28920, Control_c, 0, 64, 127
5, 29025, Control_c, 0, 64, 0
5, 29040, Control_c, 0, 64, 127
5, 29145, Control_c, 0, 64, 0
5, 29160, Control_c, 0, 64, 127
5, 29265, Control_c, 0, 64, 0
5, 29280, Control_c, 0, 64, 127
5, 29385, Control_c, 0, 64, 0
5, 29400, Control_c, 0, 64, 127
5, 29505, Control_c, 0, 64, 0
5, 29520, Control_c, 0, 64, 127
5, 29625, Control_c, 0, 64, 0
5, 29640, Control_c, 0, 64, 127
5, 29745, Control_c, 0, 64, 0
5, 29760, Control_c, 0, 64, 127
5, 29865, Control_c, 0, 64, 0
5, 29880, Control_c, 0, 64, 127
5, 29985, Control_c, 0, 64, 0
5, 30000, Control_c, 0, 64, 127
5, 30105, Control_c, 0, 64, 0
5, 30120, Control_c, 0, 64, 127
5, 30225, Control_c, 0, 64, 0
5, 30240, Control_c, 0, 64, 127
5, 30345, Control_c, 0, 64, 0
5, 30360, Control_c, 0, 64, 127
5, 30465, Control_c, 0, 64, 0
5, 30480, Control_c, 0, 64, 127
5, 30585, Control_c, 0, 64, 0
5, 30600, Control_c, 0, 64, 127
5, 30705, Control_c, 0, 64, 0
5, 30720, Control_c, 0, 64, 127
5, 30825, Control_c, 0, 64, 0
5, 30840, Control_c, 0, 64, 127
5, 30945, Control_c, 0, 64, 0
5, 30960, Control_c, 0, 64, 127
5, 31065, Control_c, 0, 64, 0
5, 31080, Control_c, 0, 64, 127
5, 31185, Control_c, 0, 64, 0
5, 31200, Control_c, 0, 64, 127
5, 31305, Control_c, 0, 64, 0
5, 31320, Control_c, 0, 64, 127
5, 31425, Control_c, 0, 64, 0
5, 31440, Control_c, 0, 64, 127
5, 31545, Control_c, 0, 64, 0
5, 31560, Control_c, 0, 64, 127
5, 31665, Control_c, 0, 64, 0
5, 31680, Control_c, 0, 64, 127
5, 31785, Control_c, 0, 64, 0
5, 31800, Control_c, 0, 64, 127
5, 31905, Control_c, 0, 64, 0
5, 31920, Control_c, 0, 64, 127
5, 32025, Control_c, 0, 64, 0
5, 32040, Control_c, 0, 64, 127
5, 32145, Control_c, 0, 64, 0
5, 32160, Control_c, 0, 64, 127
5, 32265, Control_c, 0, 64, 0
5, 32280, Control_c, 0, 64, 127
5, 32385, Control_c, 0, 64, 0
5, 32400, Control_c, 0, 64, 127
5, 32505, Control_c, 0, 64, 0
5, 32520, Control_c, 0, 64, 127
5, 32625, Control_c, 0, 64, 0
5, 32640, Control_c, 0, 64, 127
5, 32745, Control_c, 0, 64, 0
5, 32760, Control_c, 0, 64, 127
5, 32865, Control_c, 0, 64, 0
5, 32880, Control_c, 0, 64, 127
5, 32985, Control_c, 0, 64, 0
5, 33000, Control_c, 0, 64, 127
5, 33105, Control_c, 0, 64, 0
5, 33120, Control_c, 0, 64, 127
5, 33225, Control_c, 0, 64, 0
5, 33240, Control_c, 0, 64, 127
5, 33345, Control_c, 0, 64, 0
5, 33360, Control_c, 0, 64, 127
5, 33465, Control_c, 0, 64, 0
5, 33480, Control_c, 0, 64, 127
5, 33585, Control_c, 0, 64, 0
5, 33600, Control_c, 0, 64, 127
5, 33705, Control_c, 0, 64, 0
5, 33720, Control_c, 0, 64, 127
5, 33825, Control_c, 0, 64, 0
5, 33840, Control_c, 0, 64, 127
5, 33945, Control_c, 0, 64, 0
5, 33960, Control_c, 0, 64, 127
5, 34065, Control_c, 0, 64, 0
5, 34080, Control_c, 0, 64, 127
5, 34185, Control_c, 0, 64, 0
5, 34200, Control_c, 0, 64, 127
5, 34305, Control_c, 0, 64, 0
5, 34320, Control_c, 0, 64, 127
5, 34425, Control_c, 0, 64, 0
5, 34440, Control_c, 0, 64, 127
5, 34545, Control_c, 0, 64, 0
5, 34560, Control_c, 0, 64, 127
5, 34665, Control_c, 0, 64, 0
5, 34680, Control_c, 0, 64, 127
5, 34785, Control_c, 0, 64, 0
5, 34800, Control_c, 0, 64, 127
5, 34905, Control_c, 0, 64, 0
5, 34920, Control_c, 0, 64, 127
5, 35025, Control_c, 0, 64, 0
5, 35040, Control_c, 0, 64, 127
5, 35145, Control_c, 0, 64, 0
5, 35160, Control_c, 0, 64, 127
5, 35265, Control_c, 0, 64, 0
5, 35280, Control_c, 0, 64, 127
5, 35385, Control_c, 0, 64, 0
5, 35400, Control_c, 0, 64, 127
5, 35505, Control_c, 0, 64, 0
5, 35520, Control_c, 0, 64, 127
5, 35625, Control_c, 0, 64, 0
5, 35640, Control_c, 0, 64, 127
5, 35745, Control_c, 0, 64, 0
5, 35760, Control_c, 0, 64, 127
5, 35865, Control_c, 0, 64, 0
5, 35880, Control_c, 0, 64, 127
5, 35985, Control_c, 0, 64, 0
5, 36000, Control_c, 0, 64, 127
5, 36105, Control_c, 0, 64, 0
5, 36120, Control_c, 0, 64, 127
5, 36225, Control_c, 0, 64, 0
5, 36240, Control_c, 0, 64, 127
5, 36345, Control_c, 0, 64, 0
5, 36360, Control_c, 0, 64, 127
5, 36465, Control_c, 0, 64, 0
5, 36480, Control_c, 0, 64, 127
5, 36585, Control_c, 0, 64, 0
5, 36600, Control_c, 0, 64, 127
5, 36705, Control_c, 0, 64, 0
5, 36720, Control_c, 0, 64, 127
5, 36825, Control_c, 0, 64, 0
5, 36840, Control_c, 0, 64, 127
5, 36945, Control_c, 0, 64, 0
5, 36960, Control_c, 0, 64, 127
5, 37065, Control_c, 0, 64, 0
5, 37080, Control_c, 0, 64, 127
5, 37185, Control_c, 0, 64, 0
5, 37200, Control_c, 0, 64, 127
5, 37305, Control_c, 0, 64, 0
5, 37320, Control_c, 0, 64, 127
5, 37425, Control_c, 0, 64, 0
5, 37440, Control_c, 0, 64, 127
5, 37545, Control_c, 0, 64, 0
5, 37560, Control_c, 0, 64, 127
5, 37665, Control_c, 0, 64, 0
5, 37680, Control_c, 0, 64, 127
5, 37785, Control_c, 0, 64, 0
5, 37800, Control_c, 0, 64, 127
5, 37905, Control_c, 0, 64, 0
5, 37920, Control_c, 0, 64, 127
5, 38025, Control_c, 0, 64, 0
5, 38040, Control_c, 0, 64, 127
5, 38145, Control_c, 0, 64, 0
5, 38160, Control_c, 0, 64, 127
5, 38265, Control_c, 0, 64, 0
5, 38280, Control_c, 0, 64, 127
5, 38385, Control_c, 0, 64, 0
5, 38400, Control_c, 0, 64, 127
5, 38505, Control_c, 0, 64, 0
5, 38520, Control_c, 0, 64, 127
5, 38625, Control_c, 0, 64, 0
5, 38640, Control_c, 0, 64, 127
5, 38745, Control_c, 0, 64, 0
5, 38760, Control_c, 0, 64, 127
5, 38865, Control_c, 0, 64, 0
5, 38880, Control_c, 0, 64, 127
5, 38985, Control_c, 0, 64, 0
5, 39000, Control_c, 0, 64, 127
5, 39105, Control_c, 0, 64, 0
5, 39120, Control_c, 0, 64, 127
5, 39225, Control_c, 0, 64, 0
5, 39240, Control_c, 0, 64, 127
5, 39345, Control_c, 0, 64, 0
5, 39360, Control_c, 0, 64, 127
5, 39465, Control_c, 0, 64, 0
5, 39480, Control_c, 0, 64, 127
5, 39585, Control_c, 0, 64, 0
5, 39600, Control_c, 0, 64, 127
5, 39705, Control_c, 0, 64, 0
5, 39720, Control_c, 0, 64, 127
5, 39825, Control_c, 0, 64, 0
5, 39840, Control_c, 0, 64, 127
5, 39945, Control_c, 0, 64, 0
5, 39960, Control_c, 0, 64, 127
5, 40065, Control_c, 0, 64, 0
5, 40080, Control_c, 0, 64, 127
5, 40185, Control_c, 0, 64, 0
5, 40200, Control_c, 0, 64, 127
5, 40305, Control_c, 0, 64, 0
5, 40320, Control_c, 0, 64, 127
5, 40425, Control_c, 0, 64, 0
5, 40440, Control_c, 0, 64, 127
5, 40545, Control_c, 0, 64, 0
5, 40560, Control_c, 0, 64, 127
5, 40665, Control_c, 0, 64, 0
5, 40680, Control_c, 0, 64, 127
5, 40785, Control_c, 0, 64, 0
5, 40800, Control_c, 0, 64, 127
5, 40905, Control_c, 0, 64, 0
5, 40920, Control_c, 0, 64, 127
5, 41025, Control_c, 0, 64, 0
5, 41040, Control_c, 0, 64, 127
5, 41145, Control_c, 0, 64, 0
5, 41160, Control_c, 0, 64, 127
5, 41265, Control_c, 0, 64, 0
5, 41280, Control_c, 0, 64, 127
5, 41385, Control_c, 0, 64, 0
5, 41400, Control_c, 0, 64, 127
5, 41505, Control_c, 0, 64, 0
5, 41520, Control_c, 0, 64, 127
5, 41625, Control_c, 0, 64, 0
5, 41640, Control_c, 0, 64, 127
5, 41745, Control_c, 0, 64, 0
5, 41760, Control_c, 0, 64, 127
5, 41865, Control_c, 0, 64, 0
5, 41880, Control_c, 0, 64, 127
5, 41985, Control_c, 0, 64, 0
5, 42000, Control_c, 0, 64, 127
5, 42105, Control_c, 0, 64, 0
5, 42120, Control_c, 0, 64, 127
5, 42225, Control_c, 0, 64, 0
5, 42240, Control_c, 0, 64, 127
5, 42345, Control_c, 0, 64, 0
5, 42360, Control_c, 0, 64, 127
5, 42465, Control_c, 0, 64, 0
5, 42480, Control_c, 0, 64, 127
5, 42585, Control_c, 0, 64, 0
5, 42600, Control_c, 0, 64, 127
5, 42705, Control_c, 0, 64, 0
5, 42720, Control_c, 0, 64, 127
5, 42825, Control_c, 0, 64, 0
5, 42840, Control_c, 0, 64, 127
5, 42945, Control_c, 0, 64, 0
5, 42960, Control_c, 0, 64, 127
5, 43065, Control_c, 0, 64, 0
5, 43080, Control_c, 0, 64, 127
5, 43185, Control_c, 0, 64, 0
5, 43200, Control_c, 0, 64, 127
5, 43305, Control_c, 0, 64, 0
5, 43320, Control_c, 0, 64, 127
5, 43425, Control_c, 0, 64, 0
5, 43440, Control_c, 0, 64, 127
5, 43545, Control_c, 0, 64, 0
5, 43560, Control_c, 0, 64, 127
5, 43665, Control_c, 0, 64, 0
5, 43680, Control_c, 0, 64, 127
5, 43785, Control_c, 0, 64, 0
5, 43800, Control_c, 0, 64, 127
5, 43905, Control_c, 0, 64, 0
5, 43920, Control_c, 0, 64, 127
5, 44025, Control_c, 0, 64, 0
5, 44040, Control_c, 0, 64, 127
5, 44145, Control_c, 0, 64, 0
5, 44160, Control_c, 0, 64, 127
5, 44265, Control_c, 0, 64, 0
5, 44280, Control_c, 0, 64, 127
5, 44385, Control_c, 0, 64, 0
5, 44400, Control_c, 0, 64, 127
5, 44505, Control_c, 0, 64, 0
5, 44520, Control_c, 0, 64, 127
5, 44625, Control_c, 0, 64, 0
5, 44640, Control_c, 0, 64, 127
5, 44745, Control_c, 0, 64, 0
5, 44760, Control_c, 0, 64, 127
5, 44865, Control_c, 0, 64, 0
5, 44880, Control_c, 0, 64, 127
5, 44985, Control_c, 0, 64, 0
5, 45000, Control_c, 0, 64, 127
5, 45105, Control_c, 0, 64, 0
5, 45120, Control_c, 0, 64, 127
5, 45225, Control_c, 0, 64, 0
5, 45240, Control_c, 0, 64, 127
5, 45345, Control_c, 0, 64, 0
5, 45360, Control_c, 0, 64, 127
5, 45465, Control_c, 0, 64, 0
5, 45480, Control_c, 0, 64, 127
5, 45585, Control_c, 0, 64, 0
5, 45600, Control_c, 0, 64, 127
5, 45705, Control_c, 0, 64, 0
5, 45720, Control_c, 0, 64, 127
5, 45825, Control_c, 0, 64, 0
5, 45840, Control_c, 0, 64, 127
5, 45945, Control_c, 0, 64, 0
5, 45960, Control_c, 0, 64, 127
5, 46065, Control_c, 0, 64, 0
5, 46080, Control_c, 0, 64, 127
5, 46785, Control_c, 0, 64, 0
5, 46800, Control_c, 0, 64, 127
5, 47145, Control_c, 0, 64, 0
5, 47160, Control_c, 0, 64, 127
5, 47505, Control_c, 0, 64, 0
5, 47520, Control_c, 0, 64, 127
5, 47865, Control_c, 0, 64, 0
5, 47880, Control_c, 0, 64, 127
5, 48225, Control_c, 0, 64, 0
5, 48240, Control_c, 0, 64, 127
5, 48585, Control_c, 0, 64, 0
5, 48600, Control_c, 0, 64, 127
5, 48945, Control_c, 0, 64, 0
5, 48960, Control_c, 0, 64, 127
5, 49305, Control_c, 0, 64, 0
5, 49320, Control_c, 0, 64, 127
5, 49665, Control_c, 0, 64, 0
5, 49680, Control_c, 0, 64, 127
5, 50025, Control_c, 0, 64, 0
5, 50040, Control_c, 0, 64, 127
5, 50385, Control_c, 0, 64, 0
5, 50400, Control_c, 0, 64, 127
5, 50745, Control_c, 0, 64, 0
5, 50760, Control_c, 0, 64, 127
5, 51105, Control_c, 0, 64, 0
5, 51120, Control_c, 0, 64, 127
5, 51465, Control_c, 0, 64, 0
5, 51480, Control_c, 0, 64, 127
5, 51825, Control_c, 0, 64, 0
5, 51840, Control_c, 0, 64, 127
5, 52185, Control_c, 0, 64, 0
5, 52200, Control_c, 0, 64, 127
5, 52545, Control_c, 0, 64, 0
5, 69120, Control_c, 0, 64, 127
5, 69225, Control_c, 0, 64, 0
5, 69240, Control_c, 0, 64, 127
5, 69345, Control_c, 0, 64, 0
5, 69360, Control_c, 0, 64, 127
5, 69465, Control_c, 0, 64, 0
5, 69480, Control_c, 0, 64, 127
5, 69585, Control_c, 0, 64, 0
5, 69600, Control_c, 0, 64, 127
5, 69705, Control_c, 0, 64, 0
5, 69720, Control_c, 0, 64, 127
5, 69825, Control_c, 0, 64, 0
5, 69840, Control_c, 0, 64, 127
5, 69945, Control_c, 0, 64, 0
5, 69960, Control_c, 0, 64, 127
5, 70065, Control_c, 0, 64, 0
5, 70080, Control_c, 0, 64, 127
5, 70185, Control_c, 0, 64, 0
5, 70200, Control_c, 0, 64, 127
5, 70305, Control_c, 0, 64, 0
5, 70320, Control_c, 0, 64, 127
5, 70425, Control_c, 0, 64, 0
5, 70440, Control_c, 0, 64, 127
5, 70545, Control_c, 0, 64, 0
5, 70560, Control_c, 0, 64, 127
5, 70665, Control_c, 0, 64, 0
5, 70680, Control_c, 0, 64, 127
5, 70785, Control_c, 0, 64, 0
5, 70800, Control_c, 0, 64, 127
5, 70905, Control_c, 0, 64, 0
5, 70920, Control_c, 0, 64, 127
5, 71025, Control_c, 0, 64, 0
5, 71040, Control_c, 0, 64, 127
5, 71145, Control_c, 0, 64, 0
5, 71160, Control_c, 0, 64, 127
5, 71265, Control_c, 0, 64, 0
5, 71280, Control_c, 0, 64, 127
5, 71385, Control_c, 0, 64, 0
5, 71400, Control_c, 0, 64, 127
5, 71505, Control_c, 0, 64, 0
5, 71520, Control_c, 0, 64, 127
5, 71625, Control_c, 0, 64, 0
5, 71640, Control_c, 0, 64, 127
5, 71745, Control_c, 0, 64, 0
5, 71760, Control_c, 0, 64, 127
5, 71865, Control_c, 0, 64, 0
5, 71880, Control_c, 0, 64, 127
5, 71985, Control_c, 0, 64, 0
5, 72000, Control_c, 0, 64, 127
5, 72105, Control_c, 0, 64, 0
5, 72120, Control_c, 0, 64, 127
5, 72225, Control_c, 0, 64, 0
5, 72240, Control_c, 0, 64, 127
5, 72345, Control_c, 0, 64, 0
5, 72360, Control_c, 0, 64, 127
5, 72465, Control_c, 0, 64, 0
5, 72480, Control_c, 0, 64, 127
5, 72585, Control_c, 0, 64, 0
5, 72600, Control_c, 0, 64, 127
5, 72705, Control_c, 0, 64, 0
5, 72720, Control_c, 0, 64, 127
5, 72825, Control_c, 0, 64, 0
5, 72840, Control_c, 0, 64, 127
5, 72945, Control_c, 0, 64, 0
5, 72960, Control_c, 0, 64, 127
5, 73065, Control_c, 0, 64, 0
5, 73080, Control_c, 0, 64, 127
5, 73185, Control_c, 0, 64, 0
5, 73200, Control_c, 0, 64, 127
5, 73305, Control_c, 0, 64, 0
5, 73320, Control_c, 0, 64, 127
5, 73425, Control_c, 0, 64, 0
5, 73440, Control_c, 0, 64, 127
5, 73545, Control_c, 0, 64, 0
5, 73560, Control_c, 0, 64, 127
5, 73665, Control_c, 0, 64, 0
5, 73680, Control_c, 0, 64, 127
5, 73785, Control_c, 0, 64, 0
5, 73800, Control_c, 0, 64, 127
5, 73905, Control_c, 0, 64, 0
5, 73920, Control_c, 0, 64, 127
5, 74025, Control_c, 0, 64, 0
5, 74040, Control_c, 0, 64, 127
5, 74145, Control_c, 0, 64, 0
5, 74160, Control_c, 0, 64, 127
5, 74265, Control_c, 0, 64, 0
5, 74280, Control_c, 0, 64, 127
5, 74385, Control_c, 0, 64, 0
5, 74400, Control_c, 0, 64, 127
5, 74505, Control_c, 0, 64, 0
5, 74520, Control_c, 0, 64, 127
5, 74625, Control_c, 0, 64, 0
5, 74640, Control_c, 0, 64, 127
5, 74745, Control_c, 0, 64, 0
5, 74760, Control_c, 0, 64, 127
5, 74865, Control_c, 0, 64, 0
5, 74880, Control_c, 0, 64, 127
5, 74985, Control_c, 0, 64, 0
5, 75000, Control_c, 0, 64, 127
5, 75105, Control_c, 0, 64, 0
5, 75120, Control_c, 0, 64, 127
5, 75225, Control_c, 0, 64, 0
5, 75240, Control_c, 0, 64, 127
5, 75345, Control_c, 0, 64, 0
5, 75360, Control_c, 0, 64, 127
5, 75465, Control_c, 0, 64, 0
5, 75480, Control_c, 0, 64, 127
5, 75585, Control_c, 0, 64, 0
5, 75600, Control_c, 0, 64, 127
5, 75705, Control_c, 0, 64, 0
5, 75720, Control_c, 0, 64, 127
5, 75825, Control_c, 0, 64, 0
5, 75840, Control_c, 0, 64, 127
5, 75945, Control_c, 0, 64, 0
5, 75960, Control_c, 0, 64, 127
5, 76065, Control_c, 0, 64, 0
5, 76080, Control_c, 0, 64, 127
5, 76185, Control_c, 0, 64, 0
5, 76200, Control_c, 0, 64, 127
5, 76305, Control_c, 0, 64, 0
5, 76320, Control_c, 0, 64, 127
5, 76425, Control_c, 0, 64, 0
5, 76440, Control_c, 0, 64, 127
5, 76545, Control_c, 0, 64, 0
5, 76560, Control_c, 0, 64, 127
5, 76665, Control_c, 0, 64, 0
5, 76680, Control_c, 0, 64, 127
5, 76785, Control_c, 0, 64, 0
5, 76800, Control_c, 0, 64, 127
5, 76905, Control_c, 0, 64, 0
5, 76920, Control_c, 0, 64, 127
5, 77025, Control_c, 0, 64, 0
5, 77040, Control_c, 0, 64, 127
5, 77145, Control_c, 0, 64, 0
5, 77160, Control_c, 0, 64, 127
5, 77265, Control_c, 0, 64, 0
5, 77280, Control_c, 0, 64, 127
5, 77385, Control_c, 0, 64, 0
5, 77400, Control_c, 0, 64, 127
5, 77505, Control_c, 0, 64, 0
5, 77520, Control_c, 0, 64, 127
5, 77625, Control_c, 0, 64, 0
5, 77640, Control_c, 0, 64, 127
5, 77745, Control_c, 0, 64, 0
5, 77760, Control_c, 0, 64, 127
5, 79200, Control_c, 0, 64, 0
5, 79560, Control_c, 0, 64, 127
5, 79920, Control_c, 0, 64, 0
5, 79920, End_track
6, 0, Start_track
6, 0, Title_t, "Jeruen E. Dery jawjaw@hotmail.com"
6, 0, End_track
7, 0, Start_track
7, 0, Title_t, "Johannes Brahms Balladen Op. 10-4"
7, 0, End_track
0, 0, End_of_file
