0, 0, Header, 1, 8, 192
1, 0, Start_track
1, 0, Title_t, "57564A"
1, 0, Copyright_t, "May NOT be used for commercial purposes."
1, 0, Text_t, "Roll expression/accent tracks, where present, converted to MIDI velocties.\012"
1, 0, Time_signature, 4, 2, 24, 8
1, 0, Key_signature, 0, "major"
1, 0, Tempo, 500000
1, 0, Marker_t, "Standard MIDI:LPI 117:Tempo  85: 08-23-2003"
1, 0, End_track
2, 0, Start_track
2, 0, Title_t, "Gavotte"
2, 3, Control_c, 0, 67, 127
2, 19, Control_c, 0, 67, 0
2, 51, Control_c, 0, 67, 127
2, 80, Control_c, 0, 67, 0
2, 113, Control_c, 0, 67, 127
2, 319, Control_c, 0, 67, 0
2, 327, Note_on_c, 0, 57, 46
2, 329, Control_c, 0, 64, 127
2, 352, Control_c, 0, 67, 127
2, 363, Note_on_c, 0, 61, 45
2, 386, Note_on_c, 0, 73, 63
2, 398, Note_on_c, 0, 69, 43
2, 404, Note_on_c, 0, 73, 0
2, 432, Note_on_c, 0, 74, 53
2, 448, Note_on_c, 0, 74, 0
2, 465, Control_c, 0, 64, 0
2, 469, Note_on_c, 0, 73, 53
2, 486, Note_on_c, 0, 73, 0
2, 504, Note_on_c, 0, 74, 52
2, 542, Note_on_c, 0, 73, 47
2, 557, Note_on_c, 0, 74, 0
2, 559, Control_c, 0, 67, 0
2, 584, Note_on_c, 0, 57, 0
2, 592, Control_c, 0, 67, 127
2, 594, Note_on_c, 0, 73, 0
2, 596, Note_on_c, 0, 69, 0
2, 603, Note_on_c, 0, 71, 66
2, 615, Note_on_c, 0, 59, 47
2, 617, Note_on_c, 0, 56, 41
2, 617, Note_on_c, 0, 68, 48
2, 657, Note_on_c, 0, 61, 0
2, 680, Control_c, 0, 67, 0
2, 715, Control_c, 0, 67, 127
2, 744, Control_c, 0, 67, 0
2, 768, Note_on_c, 0, 56, 0
2, 768, Note_on_c, 0, 68, 0
2, 774, Note_on_c, 0, 73, 59
2, 776, Control_c, 0, 67, 127
2, 788, Note_on_c, 0, 57, 45
2, 788, Note_on_c, 0, 61, 44
2, 788, Note_on_c, 0, 69, 43
2, 805, Control_c, 0, 67, 0
2, 816, Note_on_c, 0, 59, 0
2, 818, Note_on_c, 0, 71, 0
2, 838, Control_c, 0, 67, 127
2, 851, Control_c, 0, 64, 127
2, 866, Control_c, 0, 67, 0
2, 899, Control_c, 0, 67, 127
2, 930, Note_on_c, 0, 69, 0
2, 930, Control_c, 0, 67, 0
2, 936, Note_on_c, 0, 74, 61
2, 941, Note_on_c, 0, 57, 0
2, 947, Note_on_c, 0, 59, 47
2, 949, Note_on_c, 0, 62, 45
2, 949, Note_on_c, 0, 71, 48
2, 962, Control_c, 0, 67, 127
2, 966, Note_on_c, 0, 61, 0
2, 978, Note_on_c, 0, 73, 0
2, 982, Control_c, 0, 64, 0
2, 991, Control_c, 0, 67, 0
2, 1024, Control_c, 0, 67, 127
2, 1037, Control_c, 0, 64, 127
2, 1051, Control_c, 0, 67, 0
2, 1053, Control_c, 0, 64, 0
2, 1058, Note_on_c, 0, 45, 47
2, 1062, Note_on_c, 0, 59, 0
2, 1083, Control_c, 0, 67, 127
2, 1093, Note_on_c, 0, 52, 43
2, 1093, Note_on_c, 0, 76, 64
2, 1104, Note_on_c, 0, 64, 42
2, 1104, Note_on_c, 0, 73, 49
2, 1118, Note_on_c, 0, 61, 47
2, 1129, Note_on_c, 0, 74, 0
2, 1133, Note_on_c, 0, 71, 0
2, 1156, Note_on_c, 0, 62, 0
2, 1229, Control_c, 0, 67, 0
2, 1237, Note_on_c, 0, 81, 60
2, 1248, Note_on_c, 0, 66, 48
2, 1248, Note_on_c, 0, 69, 44
2, 1248, Note_on_c, 0, 78, 42
2, 1262, Control_c, 0, 67, 127
2, 1273, Control_c, 0, 64, 127
2, 1321, Note_on_c, 0, 76, 0
2, 1335, Note_on_c, 0, 64, 0
2, 1381, Note_on_c, 0, 66, 0
2, 1381, Note_on_c, 0, 73, 0
2, 1381, Note_on_c, 0, 61, 0
2, 1381, Note_on_c, 0, 52, 0
2, 1383, Note_on_c, 0, 45, 0
2, 1389, Note_on_c, 0, 80, 54
2, 1392, Control_c, 0, 64, 0
2, 1396, Note_on_c, 0, 76, 42
2, 1400, Note_on_c, 0, 64, 46
2, 1400, Note_on_c, 0, 68, 44
2, 1404, Note_on_c, 0, 78, 0
2, 1404, Note_on_c, 0, 81, 0
2, 1404, Control_c, 0, 67, 0
2, 1417, Note_on_c, 0, 69, 0
2, 1437, Control_c, 0, 67, 127
2, 1512, Note_on_c, 0, 76, 0
2, 1513, Note_on_c, 0, 64, 0
2, 1521, Note_on_c, 0, 78, 48
2, 1531, Note_on_c, 0, 74, 45
2, 1533, Note_on_c, 0, 62, 41
2, 1533, Note_on_c, 0, 66, 44
2, 1538, Note_on_c, 0, 80, 0
2, 1550, Note_on_c, 0, 68, 0
2, 1584, Control_c, 0, 67, 0
2, 1619, Control_c, 0, 67, 127
2, 1644, Control_c, 0, 67, 0
2, 1654, Note_on_c, 0, 74, 0
2, 1656, Note_on_c, 0, 62, 0
2, 1656, Note_on_c, 0, 66, 0
2, 1663, Note_on_c, 0, 61, 48
2, 1675, Note_on_c, 0, 69, 46
2, 1677, Control_c, 0, 67, 127
2, 1684, Note_on_c, 0, 73, 46
2, 1686, Note_on_c, 0, 33, 56
2, 1686, Note_on_c, 0, 45, 53
2, 1690, Note_on_c, 0, 61, 0
2, 1698, Note_on_c, 0, 76, 46
2, 1715, Note_on_c, 0, 33, 0
2, 1715, Note_on_c, 0, 78, 0
2, 1715, Note_on_c, 0, 45, 0
2, 1738, Note_on_c, 0, 69, 0
2, 1752, Note_on_c, 0, 73, 0
2, 1811, Note_on_c, 0, 76, 0
2, 1824, Control_c, 0, 67, 0
2, 1832, Note_on_c, 0, 49, 58
2, 1846, Note_on_c, 0, 37, 45
2, 1851, Note_on_c, 0, 49, 0
2, 1857, Control_c, 0, 67, 127
2, 1861, Note_on_c, 0, 37, 0
2, 1928, Note_on_c, 0, 61, 43
2, 1944, Control_c, 0, 67, 0
2, 1951, Note_on_c, 0, 69, 44
2, 1955, Note_on_c, 0, 61, 0
2, 1965, Note_on_c, 0, 73, 41
2, 1976, Note_on_c, 0, 52, 54
2, 1976, Control_c, 0, 67, 127
2, 1978, Note_on_c, 0, 40, 60
2, 1982, Note_on_c, 0, 69, 0
2, 1986, Note_on_c, 0, 76, 62
2, 1992, Note_on_c, 0, 73, 0
2, 2003, Note_on_c, 0, 52, 0
2, 2005, Note_on_c, 0, 40, 0
2, 2005, Control_c, 0, 67, 0
2, 2038, Control_c, 0, 67, 127
2, 2066, Control_c, 0, 67, 0
2, 2099, Control_c, 0, 67, 127
2, 2111, Note_on_c, 0, 45, 56
2, 2112, Note_on_c, 0, 76, 0
2, 2122, Note_on_c, 0, 57, 58
2, 2126, Note_on_c, 0, 45, 0
2, 2128, Control_c, 0, 67, 0
2, 2139, Note_on_c, 0, 57, 0
2, 2160, Control_c, 0, 67, 127
2, 2193, Note_on_c, 0, 61, 54
2, 2207, Note_on_c, 0, 69, 46
2, 2253, Note_on_c, 0, 73, 45
2, 2262, Note_on_c, 0, 45, 50
2, 2264, Note_on_c, 0, 33, 47
2, 2274, Note_on_c, 0, 76, 65
2, 2322, Control_c, 0, 64, 127
2, 2381, Note_on_c, 0, 45, 0
2, 2427, Note_on_c, 0, 69, 0
2, 2447, Note_on_c, 0, 45, 45
2, 2450, Note_on_c, 0, 73, 0
2, 2460, Note_on_c, 0, 61, 0
2, 2468, Note_on_c, 0, 64, 42
2, 2473, Control_c, 0, 64, 0
2, 2491, Note_on_c, 0, 52, 41
2, 2493, Note_on_c, 0, 69, 41
2, 2525, Note_on_c, 0, 61, 49
2, 2525, Note_on_c, 0, 73, 60
2, 2657, Note_on_c, 0, 69, 0
2, 2657, Note_on_c, 0, 76, 0
2, 2657, Note_on_c, 0, 64, 0
2, 2663, Note_on_c, 0, 74, 64
2, 2664, Note_on_c, 0, 59, 54
2, 2664, Note_on_c, 0, 62, 48
2, 2676, Note_on_c, 0, 71, 61
2, 2703, Note_on_c, 0, 73, 0
2, 2703, Note_on_c, 0, 61, 0
2, 2705, Control_c, 0, 67, 0
2, 2739, Control_c, 0, 67, 127
2, 2787, Note_on_c, 0, 59, 0
2, 2789, Note_on_c, 0, 62, 0
2, 2789, Note_on_c, 0, 33, 0
2, 2789, Note_on_c, 0, 52, 0
2, 2789, Note_on_c, 0, 45, 0
2, 2801, Note_on_c, 0, 71, 0
2, 2808, Note_on_c, 0, 76, 67
2, 2810, Note_on_c, 0, 61, 46
2, 2810, Note_on_c, 0, 64, 46
2, 2822, Note_on_c, 0, 73, 46
2, 2837, Note_on_c, 0, 74, 0
2, 2847, Control_c, 0, 64, 127
2, 2876, Note_on_c, 0, 73, 0
2, 2889, Note_on_c, 0, 61, 0
2, 2889, Control_c, 0, 67, 0
2, 2924, Control_c, 0, 67, 127
2, 2947, Note_on_c, 0, 57, 47
2, 2947, Note_on_c, 0, 61, 44
2, 2947, Note_on_c, 0, 73, 62
2, 2952, Control_c, 0, 67, 0
2, 2960, Note_on_c, 0, 69, 43
2, 2976, Control_c, 0, 64, 0
2, 2987, Control_c, 0, 67, 127
2, 2991, Note_on_c, 0, 64, 0
2, 3002, Note_on_c, 0, 76, 0
2, 3018, Control_c, 0, 67, 0
2, 3050, Control_c, 0, 67, 127
2, 3079, Control_c, 0, 67, 0
2, 3087, Note_on_c, 0, 78, 48
2, 3096, Note_on_c, 0, 62, 48
2, 3096, Note_on_c, 0, 66, 44
2, 3096, Note_on_c, 0, 74, 47
2, 3100, Note_on_c, 0, 73, 0
2, 3100, Note_on_c, 0, 61, 0
2, 3112, Control_c, 0, 67, 127
2, 3141, Control_c, 0, 67, 0
2, 3173, Control_c, 0, 67, 127
2, 3204, Control_c, 0, 67, 0
2, 3214, Note_on_c, 0, 57, 0
2, 3214, Note_on_c, 0, 74, 0
2, 3214, Note_on_c, 0, 69, 0
2, 3221, Note_on_c, 0, 76, 55
2, 3235, Note_on_c, 0, 61, 42
2, 3235, Note_on_c, 0, 64, 44
2, 3235, Note_on_c, 0, 73, 43
2, 3237, Control_c, 0, 67, 127
2, 3240, Note_on_c, 0, 78, 0
2, 3265, Note_on_c, 0, 66, 0
2, 3265, Note_on_c, 0, 62, 0
2, 3265, Control_c, 0, 67, 0
2, 3288, Note_on_c, 0, 76, 0
2, 3298, Control_c, 0, 67, 127
2, 3348, Note_on_c, 0, 61, 0
2, 3350, Note_on_c, 0, 64, 0
2, 3350, Note_on_c, 0, 73, 0
2, 3356, Note_on_c, 0, 76, 48
2, 3367, Note_on_c, 0, 74, 55
2, 3381, Note_on_c, 0, 52, 51
2, 3383, Note_on_c, 0, 40, 47
2, 3383, Note_on_c, 0, 62, 52
2, 3383, Note_on_c, 0, 71, 44
2, 3386, Note_on_c, 0, 76, 0
2, 3404, Control_c, 0, 64, 127
2, 3514, Control_c, 0, 64, 0
2, 3642, Note_on_c, 0, 73, 53
2, 3646, Note_on_c, 0, 71, 0
2, 3653, Note_on_c, 0, 57, 45
2, 3653, Note_on_c, 0, 61, 43
2, 3653, Note_on_c, 0, 69, 42
2, 3680, Note_on_c, 0, 74, 0
2, 3682, Note_on_c, 0, 62, 0
2, 3738, Control_c, 0, 67, 0
2, 3770, Control_c, 0, 67, 127
2, 3793, Note_on_c, 0, 71, 60
2, 3805, Note_on_c, 0, 56, 42
2, 3805, Note_on_c, 0, 59, 41
2, 3807, Note_on_c, 0, 68, 43
2, 3822, Note_on_c, 0, 69, 0
2, 3834, Note_on_c, 0, 57, 0
2, 3834, Note_on_c, 0, 61, 0
2, 3834, Note_on_c, 0, 73, 0
2, 3845, Note_on_c, 0, 52, 0
2, 3903, Note_on_c, 0, 59, 0
2, 3905, Note_on_c, 0, 56, 0
2, 3905, Note_on_c, 0, 71, 0
2, 3905, Note_on_c, 0, 40, 0
2, 3916, Control_c, 0, 67, 0
2, 3918, Note_on_c, 0, 68, 0
2, 3922, Note_on_c, 0, 76, 62
2, 3924, Note_on_c, 0, 52, 44
2, 3926, Control_c, 0, 64, 127
2, 3936, Note_on_c, 0, 61, 46
2, 3936, Note_on_c, 0, 64, 42
2, 3936, Note_on_c, 0, 73, 44
2, 3951, Control_c, 0, 67, 127
2, 3978, Control_c, 0, 67, 0
2, 4010, Control_c, 0, 67, 127
2, 4035, Note_on_c, 0, 73, 0
2, 4035, Control_c, 0, 64, 0
2, 4035, Control_c, 0, 67, 0
2, 4060, Note_on_c, 0, 61, 0
2, 4066, Note_on_c, 0, 59, 51
2, 4066, Note_on_c, 0, 74, 56
2, 4068, Note_on_c, 0, 62, 51
2, 4070, Control_c, 0, 67, 127
2, 4081, Note_on_c, 0, 71, 42
2, 4095, Note_on_c, 0, 76, 0
2, 4097, Control_c, 0, 67, 0
2, 4108, Note_on_c, 0, 64, 0
2, 4131, Control_c, 0, 67, 127
2, 4160, Control_c, 0, 67, 0
2, 4193, Note_on_c, 0, 59, 0
2, 4193, Control_c, 0, 67, 127
2, 4197, Note_on_c, 0, 71, 0
2, 4202, Note_on_c, 0, 73, 55
2, 4214, Note_on_c, 0, 57, 43
2, 4214, Note_on_c, 0, 61, 43
2, 4216, Note_on_c, 0, 69, 42
2, 4245, Note_on_c, 0, 62, 0
2, 4245, Note_on_c, 0, 74, 0
2, 4283, Control_c, 0, 67, 0
2, 4316, Control_c, 0, 67, 127
2, 4320, Note_on_c, 0, 69, 0
2, 4339, Note_on_c, 0, 71, 55
2, 4343, Note_on_c, 0, 57, 0
2, 4348, Note_on_c, 0, 59, 44
2, 4350, Note_on_c, 0, 56, 42
2, 4352, Note_on_c, 0, 68, 46
2, 4368, Note_on_c, 0, 61, 0
2, 4381, Note_on_c, 0, 73, 0
2, 4452, Note_on_c, 0, 52, 0
2, 4452, Note_on_c, 0, 59, 0
2, 4452, Note_on_c, 0, 56, 0
2, 4454, Note_on_c, 0, 68, 0
2, 4467, Control_c, 0, 67, 0
2, 4487, Note_on_c, 0, 45, 54
2, 4487, Note_on_c, 0, 57, 47
2, 4487, Note_on_c, 0, 61, 47
2, 4487, Note_on_c, 0, 73, 65
2, 4500, Note_on_c, 0, 69, 44
2, 4502, Control_c, 0, 67, 127
2, 4504, Note_on_c, 0, 71, 0
2, 4607, Control_c, 0, 64, 127
2, 4608, Note_on_c, 0, 69, 0
2, 4616, Note_on_c, 0, 52, 41
2, 4616, Note_on_c, 0, 64, 42
2, 4691, Note_on_c, 0, 61, 0
2, 4756, Note_on_c, 0, 49, 46
2, 4756, Note_on_c, 0, 61, 45
2, 4756, Note_on_c, 0, 69, 51
2, 4774, Note_on_c, 0, 52, 0
2, 4829, Note_on_c, 0, 64, 0
2, 4841, Note_on_c, 0, 73, 0
2, 4866, Control_c, 0, 64, 0
2, 4877, Control_c, 0, 67, 0
2, 4889, Note_on_c, 0, 61, 0
2, 4896, Note_on_c, 0, 52, 44
2, 4898, Note_on_c, 0, 64, 48
2, 4910, Control_c, 0, 67, 127
2, 4937, Note_on_c, 0, 45, 0
2, 4948, Note_on_c, 0, 52, 0
2, 4948, Note_on_c, 0, 57, 0
2, 4960, Note_on_c, 0, 69, 0
2, 4998, Control_c, 0, 67, 0
2, 5010, Note_on_c, 0, 64, 0
2, 5010, Note_on_c, 0, 49, 0
2, 5029, Note_on_c, 0, 52, 44
2, 5029, Note_on_c, 0, 57, 43
2, 5029, Note_on_c, 0, 61, 48
2, 5029, Note_on_c, 0, 73, 65
2, 5031, Control_c, 0, 67, 127
2, 5040, Note_on_c, 0, 69, 46
2, 5058, Control_c, 0, 67, 0
2, 5090, Control_c, 0, 67, 127
2, 5117, Control_c, 0, 67, 0
2, 5150, Control_c, 0, 67, 127
2, 5165, Note_on_c, 0, 69, 0
2, 5165, Note_on_c, 0, 57, 0
2, 5173, Note_on_c, 0, 71, 55
2, 5181, Note_on_c, 0, 59, 43
2, 5183, Note_on_c, 0, 56, 44
2, 5184, Note_on_c, 0, 68, 48
2, 5198, Note_on_c, 0, 52, 0
2, 5198, Note_on_c, 0, 73, 0
2, 5234, Note_on_c, 0, 61, 0
2, 5267, Note_on_c, 0, 45, 41
2, 5288, Note_on_c, 0, 68, 0
2, 5292, Note_on_c, 0, 73, 53
2, 5296, Note_on_c, 0, 56, 0
2, 5298, Control_c, 0, 67, 0
2, 5305, Note_on_c, 0, 57, 48
2, 5305, Note_on_c, 0, 61, 45
2, 5305, Note_on_c, 0, 69, 44
2, 5321, Note_on_c, 0, 59, 0
2, 5323, Note_on_c, 0, 71, 0
2, 5330, Control_c, 0, 67, 127
2, 5409, Note_on_c, 0, 69, 0
2, 5419, Control_c, 0, 67, 0
2, 5424, Note_on_c, 0, 74, 56
2, 5436, Note_on_c, 0, 59, 43
2, 5438, Note_on_c, 0, 71, 45
2, 5440, Note_on_c, 0, 62, 42
2, 5442, Note_on_c, 0, 45, 0
2, 5451, Control_c, 0, 67, 127
2, 5467, Note_on_c, 0, 57, 0
2, 5467, Note_on_c, 0, 73, 0
2, 5467, Note_on_c, 0, 61, 0
2, 5480, Control_c, 0, 67, 0
2, 5503, Note_on_c, 0, 59, 0
2, 5505, Note_on_c, 0, 71, 0
2, 5511, Note_on_c, 0, 45, 46
2, 5513, Control_c, 0, 67, 127
2, 5528, Note_on_c, 0, 62, 0
2, 5542, Control_c, 0, 67, 0
2, 5549, Note_on_c, 0, 52, 47
2, 5561, Note_on_c, 0, 76, 64
2, 5572, Note_on_c, 0, 61, 44
2, 5572, Note_on_c, 0, 64, 42
2, 5572, Note_on_c, 0, 73, 42
2, 5574, Control_c, 0, 64, 127
2, 5574, Control_c, 0, 67, 127
2, 5590, Note_on_c, 0, 74, 0
2, 5603, Control_c, 0, 67, 0
2, 5636, Control_c, 0, 67, 127
2, 5664, Control_c, 0, 67, 0
2, 5682, Note_on_c, 0, 81, 59
2, 5686, Note_on_c, 0, 61, 0
2, 5686, Note_on_c, 0, 76, 0
2, 5686, Note_on_c, 0, 73, 0
2, 5695, Note_on_c, 0, 57, 47
2, 5695, Note_on_c, 0, 66, 43
2, 5695, Note_on_c, 0, 69, 48
2, 5695, Note_on_c, 0, 78, 47
2, 5697, Control_c, 0, 67, 127
2, 5701, Note_on_c, 0, 52, 0
2, 5701, Note_on_c, 0, 45, 0
2, 5724, Control_c, 0, 64, 0
2, 5747, Note_on_c, 0, 64, 0
2, 5818, Note_on_c, 0, 78, 0
2, 5826, Note_on_c, 0, 80, 53
2, 5835, Note_on_c, 0, 64, 48
2, 5835, Note_on_c, 0, 76, 47
2, 5839, Note_on_c, 0, 68, 46
2, 5862, Note_on_c, 0, 66, 0
2, 5864, Note_on_c, 0, 69, 0
2, 5876, Note_on_c, 0, 81, 0
2, 5899, Control_c, 0, 67, 0
2, 5931, Control_c, 0, 67, 127
2, 5945, Note_on_c, 0, 76, 0
2, 5960, Control_c, 0, 67, 0
2, 5968, Note_on_c, 0, 78, 57
2, 5977, Note_on_c, 0, 74, 44
2, 5979, Note_on_c, 0, 62, 47
2, 5979, Note_on_c, 0, 66, 43
2, 5993, Control_c, 0, 67, 127
2, 6006, Note_on_c, 0, 64, 0
2, 6008, Note_on_c, 0, 80, 0
2, 6008, Note_on_c, 0, 68, 0
2, 6018, Control_c, 0, 67, 0
2, 6050, Control_c, 0, 67, 127
2, 6068, Note_on_c, 0, 57, 0
2, 6068, Note_on_c, 0, 62, 0
2, 6073, Note_on_c, 0, 61, 49
2, 6075, Note_on_c, 0, 33, 49
2, 6077, Note_on_c, 0, 66, 0
2, 6077, Note_on_c, 0, 74, 0
2, 6085, Note_on_c, 0, 45, 50
2, 6087, Note_on_c, 0, 69, 42
2, 6098, Note_on_c, 0, 73, 66
2, 6104, Note_on_c, 0, 33, 0
2, 6108, Note_on_c, 0, 76, 61
2, 6114, Note_on_c, 0, 61, 0
2, 6116, Note_on_c, 0, 45, 0
2, 6116, Note_on_c, 0, 78, 0
2, 6141, Note_on_c, 0, 69, 0
2, 6141, Control_c, 0, 67, 0
2, 6173, Control_c, 0, 67, 127
2, 6177, Note_on_c, 0, 73, 0
2, 6200, Control_c, 0, 67, 0
2, 6225, Note_on_c, 0, 76, 0
2, 6233, Note_on_c, 0, 37, 53
2, 6233, Note_on_c, 0, 49, 49
2, 6233, Control_c, 0, 67, 127
2, 6264, Note_on_c, 0, 49, 0
2, 6264, Note_on_c, 0, 37, 0
2, 6319, Control_c, 0, 67, 0
2, 6340, Note_on_c, 0, 61, 43
2, 6352, Note_on_c, 0, 69, 41
2, 6352, Control_c, 0, 67, 127
2, 6363, Note_on_c, 0, 73, 46
2, 6367, Note_on_c, 0, 40, 53
2, 6375, Note_on_c, 0, 76, 61
2, 6377, Note_on_c, 0, 52, 52
2, 6381, Note_on_c, 0, 61, 0
2, 6392, Note_on_c, 0, 40, 0
2, 6404, Note_on_c, 0, 52, 0
2, 6417, Note_on_c, 0, 69, 0
2, 6440, Control_c, 0, 67, 0
2, 6454, Note_on_c, 0, 73, 0
2, 6473, Control_c, 0, 67, 127
2, 6500, Note_on_c, 0, 76, 0
2, 6502, Control_c, 0, 67, 0
2, 6507, Note_on_c, 0, 45, 49
2, 6507, Note_on_c, 0, 57, 52
2, 6534, Control_c, 0, 67, 127
2, 6538, Note_on_c, 0, 57, 0
2, 6538, Note_on_c, 0, 45, 0
2, 6582, Control_c, 0, 64, 127
2, 6592, Note_on_c, 0, 61, 42
2, 6617, Note_on_c, 0, 69, 45
2, 6628, Note_on_c, 0, 73, 48
2, 6640, Note_on_c, 0, 33, 42
2, 6651, Note_on_c, 0, 76, 72
2, 6661, Note_on_c, 0, 45, 41
2, 6738, Control_c, 0, 67, 0
2, 6772, Note_on_c, 0, 45, 0
2, 6772, Control_c, 0, 67, 127
2, 6820, Note_on_c, 0, 61, 0
2, 6820, Note_on_c, 0, 73, 0
2, 6834, Note_on_c, 0, 69, 0
2, 6840, Note_on_c, 0, 45, 45
2, 6863, Note_on_c, 0, 52, 42
2, 6876, Note_on_c, 0, 69, 47
2, 6888, Note_on_c, 0, 61, 41
2, 6888, Note_on_c, 0, 73, 44
2, 6899, Note_on_c, 0, 81, 59
2, 6970, Note_on_c, 0, 76, 0
2, 6972, Control_c, 0, 67, 0
2, 6995, Control_c, 0, 64, 0
2, 7005, Control_c, 0, 67, 127
2, 7020, Note_on_c, 0, 81, 0
2, 7028, Note_on_c, 0, 83, 63
2, 7030, Note_on_c, 0, 73, 0
2, 7037, Note_on_c, 0, 64, 44
2, 7037, Note_on_c, 0, 71, 46
2, 7037, Note_on_c, 0, 76, 43
2, 7064, Note_on_c, 0, 69, 0
2, 7143, Note_on_c, 0, 76, 0
2, 7147, Note_on_c, 0, 83, 0
2, 7152, Note_on_c, 0, 85, 65
2, 7156, Note_on_c, 0, 33, 0
2, 7156, Note_on_c, 0, 45, 0
2, 7156, Note_on_c, 0, 52, 0
2, 7156, Note_on_c, 0, 64, 0
2, 7164, Note_on_c, 0, 57, 45
2, 7164, Note_on_c, 0, 69, 63
2, 7164, Note_on_c, 0, 73, 66
2, 7191, Note_on_c, 0, 71, 0
2, 7202, Control_c, 0, 67, 0
2, 7237, Control_c, 0, 67, 127
2, 7264, Control_c, 0, 67, 0
2, 7270, Note_on_c, 0, 64, 46
2, 7285, Control_c, 0, 64, 127
2, 7295, Note_on_c, 0, 76, 44
2, 7298, Control_c, 0, 67, 127
2, 7308, Note_on_c, 0, 81, 63
2, 7325, Control_c, 0, 67, 0
2, 7358, Control_c, 0, 67, 127
2, 7362, Note_on_c, 0, 73, 0
2, 7371, Note_on_c, 0, 61, 0
2, 7371, Note_on_c, 0, 76, 0
2, 7385, Control_c, 0, 67, 0
2, 7416, Note_on_c, 0, 88, 67
2, 7417, Control_c, 0, 67, 127
2, 7427, Note_on_c, 0, 73, 44
2, 7433, Note_on_c, 0, 85, 0
2, 7439, Note_on_c, 0, 76, 47
2, 7442, Note_on_c, 0, 61, 44
2, 7446, Note_on_c, 0, 69, 0
2, 7446, Note_on_c, 0, 64, 0
2, 7446, Control_c, 0, 67, 0
2, 7479, Control_c, 0, 67, 127
2, 7506, Note_on_c, 0, 81, 0
2, 7506, Control_c, 0, 67, 0
2, 7538, Control_c, 0, 67, 127
2, 7550, Note_on_c, 0, 85, 63
2, 7561, Note_on_c, 0, 64, 44
2, 7561, Note_on_c, 0, 69, 48
2, 7567, Note_on_c, 0, 88, 0
2, 7567, Control_c, 0, 67, 0
2, 7584, Note_on_c, 0, 81, 48
2, 7592, Note_on_c, 0, 85, 0
2, 7600, Control_c, 0, 67, 127
2, 7604, Control_c, 0, 64, 0
2, 7629, Control_c, 0, 67, 0
2, 7634, Note_on_c, 0, 85, 48
2, 7661, Control_c, 0, 67, 127
2, 7675, Note_on_c, 0, 76, 0
2, 7677, Note_on_c, 0, 69, 0
2, 7677, Note_on_c, 0, 64, 0
2, 7677, Note_on_c, 0, 73, 0
2, 7677, Note_on_c, 0, 57, 0
2, 7677, Note_on_c, 0, 81, 0
2, 7677, Note_on_c, 0, 61, 0
2, 7679, Note_on_c, 0, 85, 0
2, 7690, Control_c, 0, 67, 0
2, 7698, Note_on_c, 0, 83, 67
2, 7707, Note_on_c, 0, 47, 44
2, 7709, Note_on_c, 0, 40, 42
2, 7709, Note_on_c, 0, 52, 48
2, 7709, Note_on_c, 0, 71, 48
2, 7711, Note_on_c, 0, 80, 48
2, 7723, Control_c, 0, 67, 127
2, 7752, Control_c, 0, 67, 0
2, 7784, Control_c, 0, 67, 127
2, 7875, Control_c, 0, 67, 0
2, 7881, Control_c, 0, 64, 127
2, 7908, Control_c, 0, 67, 127
2, 7971, Control_c, 0, 64, 0
2, 7981, Note_on_c, 0, 66, 55
2, 7981, Note_on_c, 0, 69, 56
2, 7987, Note_on_c, 0, 80, 0
2, 7992, Note_on_c, 0, 81, 59
2, 7998, Control_c, 0, 67, 0
2, 8004, Note_on_c, 0, 78, 45
2, 8021, Note_on_c, 0, 83, 0
2, 8031, Control_c, 0, 67, 127
2, 8128, Note_on_c, 0, 78, 0
2, 8128, Note_on_c, 0, 81, 0
2, 8128, Note_on_c, 0, 66, 0
2, 8136, Note_on_c, 0, 64, 43
2, 8136, Note_on_c, 0, 80, 57
2, 8145, Note_on_c, 0, 76, 44
2, 8149, Note_on_c, 0, 68, 45
2, 8164, Note_on_c, 0, 69, 0
2, 8172, Control_c, 0, 64, 127
2, 8185, Note_on_c, 0, 47, 0
2, 8189, Note_on_c, 0, 80, 0
2, 8199, Note_on_c, 0, 71, 0
2, 8235, Note_on_c, 0, 68, 0
2, 8235, Control_c, 0, 67, 0
2, 8247, Note_on_c, 0, 40, 0
2, 8247, Note_on_c, 0, 52, 0
2, 8260, Control_c, 0, 64, 0
2, 8266, Note_on_c, 0, 47, 44
2, 8266, Note_on_c, 0, 59, 47
2, 8268, Note_on_c, 0, 80, 66
2, 8268, Control_c, 0, 67, 127
2, 8272, Note_on_c, 0, 76, 0
2, 8272, Note_on_c, 0, 64, 0
2, 8280, Note_on_c, 0, 68, 46
2, 8280, Note_on_c, 0, 71, 41
2, 8409, Note_on_c, 0, 57, 43
2, 8411, Note_on_c, 0, 78, 58
2, 8423, Note_on_c, 0, 66, 41
2, 8424, Note_on_c, 0, 69, 41
2, 8438, Note_on_c, 0, 59, 0
2, 8451, Note_on_c, 0, 71, 0
2, 8467, Note_on_c, 0, 80, 0
2, 8478, Note_on_c, 0, 68, 0
2, 8544, Note_on_c, 0, 76, 55
2, 8557, Note_on_c, 0, 56, 47
2, 8557, Note_on_c, 0, 64, 43
2, 8559, Note_on_c, 0, 68, 44
2, 8574, Note_on_c, 0, 66, 0
2, 8574, Note_on_c, 0, 57, 0
2, 8586, Note_on_c, 0, 78, 0
2, 8586, Note_on_c, 0, 69, 0
2, 8599, Control_c, 0, 67, 0
2, 8632, Control_c, 0, 67, 127
2, 8676, Note_on_c, 0, 75, 52
2, 8688, Note_on_c, 0, 54, 44
2, 8689, Note_on_c, 0, 63, 48
2, 8689, Note_on_c, 0, 66, 46
2, 8693, Note_on_c, 0, 64, 0
2, 8705, Note_on_c, 0, 56, 0
2, 8716, Note_on_c, 0, 76, 0
2, 8718, Note_on_c, 0, 68, 0
2, 8728, Control_c, 0, 67, 0
2, 8760, Control_c, 0, 67, 127
2, 8776, Note_on_c, 0, 54, 0
2, 8776, Note_on_c, 0, 47, 0
2, 8776, Note_on_c, 0, 66, 0
2, 8778, Note_on_c, 0, 75, 0
2, 8784, Note_on_c, 0, 40, 48
2, 8795, Note_on_c, 0, 64, 43
2, 8808, Note_on_c, 0, 68, 43
2, 8812, Note_on_c, 0, 63, 0
2, 8818, Note_on_c, 0, 76, 55
2, 8845, Note_on_c, 0, 47, 48
2, 8868, Note_on_c, 0, 56, 47
2, 8872, Control_c, 0, 64, 127
2, 8931, Note_on_c, 0, 64, 0
2, 8987, Note_on_c, 0, 52, 51
2, 8987, Note_on_c, 0, 64, 49
2, 9097, Control_c, 0, 67, 0
2, 9115, Note_on_c, 0, 59, 45
2, 9115, Note_on_c, 0, 71, 53
2, 9130, Control_c, 0, 67, 127
2, 9168, Control_c, 0, 64, 0
2, 9215, Control_c, 0, 67, 0
2, 9228, Note_on_c, 0, 68, 0
2, 9238, Note_on_c, 0, 56, 0
2, 9247, Control_c, 0, 67, 127
2, 9293, Note_on_c, 0, 68, 45
2, 9303, Note_on_c, 0, 56, 44
2, 9355, Note_on_c, 0, 64, 0
2, 9412, Note_on_c, 0, 59, 0
2, 9414, Note_on_c, 0, 56, 0
2, 9420, Note_on_c, 0, 57, 56
2, 9445, Note_on_c, 0, 61, 56
2, 9449, Note_on_c, 0, 71, 0
2, 9451, Note_on_c, 0, 68, 0
2, 9458, Note_on_c, 0, 76, 0
2, 9460, Note_on_c, 0, 47, 0
2, 9460, Note_on_c, 0, 52, 0
2, 9462, Note_on_c, 0, 40, 0
2, 9466, Note_on_c, 0, 73, 60
2, 9480, Note_on_c, 0, 69, 49
2, 9485, Note_on_c, 0, 73, 0
2, 9495, Control_c, 0, 64, 127
2, 9501, Note_on_c, 0, 74, 48
2, 9518, Note_on_c, 0, 74, 0
2, 9520, Control_c, 0, 64, 0
2, 9526, Note_on_c, 0, 73, 51
2, 9543, Note_on_c, 0, 73, 0
2, 9558, Note_on_c, 0, 74, 53
2, 9599, Note_on_c, 0, 73, 53
2, 9614, Note_on_c, 0, 74, 0
2, 9616, Note_on_c, 0, 57, 0
2, 9624, Note_on_c, 0, 56, 43
2, 9633, Note_on_c, 0, 59, 45
2, 9633, Note_on_c, 0, 71, 57
2, 9648, Note_on_c, 0, 68, 45
2, 9650, Note_on_c, 0, 73, 0
2, 9666, Note_on_c, 0, 69, 0
2, 9666, Note_on_c, 0, 61, 0
2, 9774, Note_on_c, 0, 59, 0
2, 9776, Note_on_c, 0, 68, 0
2, 9790, Note_on_c, 0, 56, 0
2, 9795, Note_on_c, 0, 61, 48
2, 9795, Note_on_c, 0, 73, 59
2, 9809, Note_on_c, 0, 57, 42
2, 9809, Note_on_c, 0, 69, 47
2, 9813, Control_c, 0, 67, 0
2, 9826, Note_on_c, 0, 71, 0
2, 9845, Control_c, 0, 67, 127
2, 9859, Control_c, 0, 64, 127
2, 9914, Note_on_c, 0, 74, 62
2, 9922, Note_on_c, 0, 59, 47
2, 9924, Note_on_c, 0, 62, 48
2, 9924, Note_on_c, 0, 71, 42
2, 9928, Note_on_c, 0, 57, 0
2, 9928, Note_on_c, 0, 61, 0
2, 9936, Note_on_c, 0, 69, 0
2, 9936, Note_on_c, 0, 73, 0
2, 9984, Control_c, 0, 64, 0
2, 10007, Note_on_c, 0, 59, 0
2, 10008, Note_on_c, 0, 71, 0
2, 10043, Note_on_c, 0, 45, 46
2, 10053, Note_on_c, 0, 76, 59
2, 10066, Note_on_c, 0, 64, 46
2, 10066, Note_on_c, 0, 73, 48
2, 10070, Note_on_c, 0, 74, 0
2, 10076, Note_on_c, 0, 52, 48
2, 10095, Note_on_c, 0, 62, 0
2, 10110, Note_on_c, 0, 61, 43
2, 10141, Note_on_c, 0, 81, 57
2, 10156, Note_on_c, 0, 66, 47
2, 10160, Note_on_c, 0, 64, 0
2, 10162, Note_on_c, 0, 69, 41
2, 10162, Note_on_c, 0, 78, 45
2, 10164, Note_on_c, 0, 76, 0
2, 10166, Control_c, 0, 67, 0
2, 10199, Control_c, 0, 67, 127
2, 10227, Control_c, 0, 67, 0
2, 10262, Control_c, 0, 67, 127
2, 10273, Note_on_c, 0, 57, 44
2, 10287, Note_on_c, 0, 64, 45
2, 10289, Note_on_c, 0, 80, 46
2, 10293, Note_on_c, 0, 78, 0
2, 10293, Note_on_c, 0, 73, 0
2, 10293, Note_on_c, 0, 45, 0
2, 10293, Note_on_c, 0, 61, 0
2, 10293, Note_on_c, 0, 52, 0
2, 10293, Control_c, 0, 67, 0
2, 10298, Note_on_c, 0, 76, 47
2, 10302, Note_on_c, 0, 68, 45
2, 10304, Note_on_c, 0, 69, 0
2, 10318, Note_on_c, 0, 66, 0
2, 10327, Control_c, 0, 67, 127
2, 10331, Note_on_c, 0, 81, 0
2, 10358, Control_c, 0, 67, 0
2, 10391, Control_c, 0, 67, 127
2, 10423, Control_c, 0, 67, 0
2, 10435, Note_on_c, 0, 64, 0
2, 10442, Note_on_c, 0, 66, 46
2, 10444, Note_on_c, 0, 62, 46
2, 10444, Note_on_c, 0, 78, 46
2, 10454, Note_on_c, 0, 74, 42
2, 10456, Control_c, 0, 67, 127
2, 10473, Note_on_c, 0, 76, 0
2, 10487, Control_c, 0, 67, 0
2, 10488, Note_on_c, 0, 68, 0
2, 10488, Note_on_c, 0, 80, 0
2, 10521, Control_c, 0, 67, 127
2, 10550, Control_c, 0, 67, 0
2, 10561, Note_on_c, 0, 66, 0
2, 10563, Note_on_c, 0, 62, 0
2, 10569, Note_on_c, 0, 61, 42
2, 10583, Note_on_c, 0, 33, 42
2, 10583, Control_c, 0, 67, 127
2, 10596, Note_on_c, 0, 69, 42
2, 10598, Note_on_c, 0, 74, 0
2, 10606, Note_on_c, 0, 45, 55
2, 10606, Note_on_c, 0, 73, 43
2, 10613, Note_on_c, 0, 33, 0
2, 10617, Note_on_c, 0, 76, 64
2, 10623, Note_on_c, 0, 78, 0
2, 10634, Note_on_c, 0, 61, 0
2, 10634, Note_on_c, 0, 45, 0
2, 10657, Note_on_c, 0, 69, 0
2, 10671, Note_on_c, 0, 73, 0
2, 10671, Control_c, 0, 67, 0
2, 10704, Control_c, 0, 67, 127
2, 10717, Note_on_c, 0, 76, 0
2, 10727, Note_on_c, 0, 49, 54
2, 10732, Control_c, 0, 67, 0
2, 10738, Note_on_c, 0, 37, 55
2, 10755, Note_on_c, 0, 57, 0
2, 10757, Note_on_c, 0, 49, 0
2, 10765, Control_c, 0, 67, 127
2, 10769, Note_on_c, 0, 37, 0
2, 10794, Control_c, 0, 67, 0
2, 10826, Control_c, 0, 67, 127
2, 10836, Note_on_c, 0, 61, 45
2, 10863, Note_on_c, 0, 69, 46
2, 10874, Note_on_c, 0, 40, 54
2, 10886, Note_on_c, 0, 52, 53
2, 10886, Note_on_c, 0, 73, 46
2, 10892, Note_on_c, 0, 69, 0
2, 10892, Note_on_c, 0, 61, 0
2, 10899, Note_on_c, 0, 76, 56
2, 10905, Note_on_c, 0, 40, 0
2, 10915, Note_on_c, 0, 73, 0
2, 10915, Note_on_c, 0, 52, 0
2, 10915, Control_c, 0, 67, 0
2, 10951, Control_c, 0, 67, 127
2, 11013, Note_on_c, 0, 76, 0
2, 11020, Note_on_c, 0, 45, 56
2, 11020, Note_on_c, 0, 57, 56
2, 11049, Note_on_c, 0, 57, 0
2, 11049, Note_on_c, 0, 45, 0
2, 11097, Control_c, 0, 67, 0
2, 11107, Note_on_c, 0, 61, 47
2, 11130, Note_on_c, 0, 69, 46
2, 11130, Control_c, 0, 67, 127
2, 11151, Note_on_c, 0, 73, 48
2, 11164, Note_on_c, 0, 45, 49
2, 11166, Note_on_c, 0, 33, 47
2, 11174, Note_on_c, 0, 76, 62
2, 11214, Control_c, 0, 64, 127
2, 11285, Note_on_c, 0, 45, 0
2, 11306, Note_on_c, 0, 73, 0
2, 11341, Note_on_c, 0, 69, 0
2, 11349, Note_on_c, 0, 45, 46
2, 11354, Note_on_c, 0, 61, 0
2, 11377, Control_c, 0, 64, 0
2, 11385, Note_on_c, 0, 52, 46
2, 11385, Note_on_c, 0, 64, 45
2, 11408, Note_on_c, 0, 69, 60
2, 11420, Note_on_c, 0, 61, 43
2, 11433, Note_on_c, 0, 73, 59
2, 11448, Control_c, 0, 67, 0
2, 11481, Control_c, 0, 67, 127
2, 11518, Note_on_c, 0, 76, 0
2, 11571, Note_on_c, 0, 74, 62
2, 11573, Note_on_c, 0, 59, 58
2, 11573, Note_on_c, 0, 62, 56
2, 11585, Note_on_c, 0, 71, 48
2, 11589, Note_on_c, 0, 73, 0
2, 11589, Note_on_c, 0, 61, 0
2, 11612, Note_on_c, 0, 64, 0
2, 11612, Note_on_c, 0, 69, 0
2, 11694, Note_on_c, 0, 59, 0
2, 11694, Note_on_c, 0, 45, 0
2, 11696, Note_on_c, 0, 52, 0
2, 11696, Note_on_c, 0, 33, 0
2, 11700, Note_on_c, 0, 76, 60
2, 11702, Note_on_c, 0, 61, 44
2, 11715, Note_on_c, 0, 64, 55
2, 11725, Note_on_c, 0, 73, 44
2, 11740, Note_on_c, 0, 74, 0
2, 11750, Control_c, 0, 64, 127
2, 11754, Note_on_c, 0, 71, 0
2, 11754, Note_on_c, 0, 62, 0
2, 11765, Note_on_c, 0, 61, 0
2, 11777, Note_on_c, 0, 73, 0
2, 11831, Note_on_c, 0, 61, 46
2, 11842, Note_on_c, 0, 57, 55
2, 11842, Note_on_c, 0, 73, 61
2, 11854, Note_on_c, 0, 69, 44
2, 11857, Control_c, 0, 64, 0
2, 11857, Control_c, 0, 67, 0
2, 11871, Note_on_c, 0, 64, 0
2, 11890, Control_c, 0, 67, 127
2, 11905, Note_on_c, 0, 76, 0
2, 11917, Control_c, 0, 67, 0
2, 11950, Control_c, 0, 67, 127
2, 11975, Note_on_c, 0, 62, 60
2, 11975, Note_on_c, 0, 66, 59
2, 11975, Note_on_c, 0, 78, 59
2, 11984, Note_on_c, 0, 74, 48
2, 12001, Note_on_c, 0, 73, 0
2, 12001, Note_on_c, 0, 61, 0
2, 12095, Note_on_c, 0, 64, 45
2, 12100, Control_c, 0, 67, 0
2, 12104, Note_on_c, 0, 76, 57
2, 12106, Note_on_c, 0, 61, 43
2, 12118, Note_on_c, 0, 73, 44
2, 12123, Note_on_c, 0, 62, 0
2, 12123, Note_on_c, 0, 66, 0
2, 12133, Control_c, 0, 67, 127
2, 12135, Note_on_c, 0, 74, 0
2, 12137, Note_on_c, 0, 78, 0
2, 12160, Control_c, 0, 67, 0
2, 12171, Note_on_c, 0, 76, 0
2, 12192, Control_c, 0, 67, 127
2, 12221, Note_on_c, 0, 57, 0
2, 12221, Note_on_c, 0, 73, 0
2, 12221, Note_on_c, 0, 61, 0
2, 12221, Note_on_c, 0, 69, 0
2, 12221, Note_on_c, 0, 64, 0
2, 12221, Control_c, 0, 67, 0
2, 12227, Note_on_c, 0, 76, 42
2, 12252, Note_on_c, 0, 74, 56
2, 12254, Control_c, 0, 67, 127
2, 12258, Note_on_c, 0, 76, 0
2, 12267, Note_on_c, 0, 62, 45
2, 12267, Note_on_c, 0, 71, 46
2, 12269, Note_on_c, 0, 40, 50
2, 12279, Note_on_c, 0, 52, 50
2, 12283, Control_c, 0, 67, 0
2, 12294, Control_c, 0, 64, 127
2, 12315, Control_c, 0, 67, 127
2, 12418, Control_c, 0, 64, 0
2, 12464, Control_c, 0, 67, 0
2, 12497, Control_c, 0, 67, 127
2, 12526, Note_on_c, 0, 71, 0
2, 12526, Control_c, 0, 67, 0
2, 12531, Note_on_c, 0, 73, 52
2, 12533, Note_on_c, 0, 69, 48
2, 12537, Note_on_c, 0, 62, 0
2, 12545, Note_on_c, 0, 57, 48
2, 12545, Note_on_c, 0, 61, 41
2, 12558, Control_c, 0, 67, 127
2, 12572, Note_on_c, 0, 74, 0
2, 12585, Control_c, 0, 67, 0
2, 12618, Control_c, 0, 67, 127
2, 12668, Note_on_c, 0, 71, 46
2, 12675, Note_on_c, 0, 59, 47
2, 12677, Note_on_c, 0, 56, 47
2, 12679, Note_on_c, 0, 68, 42
2, 12706, Note_on_c, 0, 57, 0
2, 12706, Note_on_c, 0, 73, 0
2, 12706, Note_on_c, 0, 61, 0
2, 12708, Note_on_c, 0, 69, 0
2, 12720, Note_on_c, 0, 52, 0
2, 12766, Control_c, 0, 67, 0
2, 12777, Note_on_c, 0, 56, 0
2, 12779, Note_on_c, 0, 40, 0
2, 12789, Note_on_c, 0, 59, 0
2, 12791, Note_on_c, 0, 68, 0
2, 12791, Note_on_c, 0, 71, 0
2, 12798, Note_on_c, 0, 52, 46
2, 12798, Note_on_c, 0, 76, 53
2, 12798, Control_c, 0, 67, 127
2, 12810, Note_on_c, 0, 61, 46
2, 12810, Note_on_c, 0, 64, 43
2, 12810, Note_on_c, 0, 73, 41
2, 12812, Control_c, 0, 64, 127
2, 12912, Control_c, 0, 64, 0
2, 12930, Note_on_c, 0, 74, 55
2, 12936, Note_on_c, 0, 61, 0
2, 12943, Note_on_c, 0, 59, 49
2, 12945, Note_on_c, 0, 62, 52
2, 12945, Note_on_c, 0, 71, 43
2, 12960, Note_on_c, 0, 73, 0
2, 12974, Note_on_c, 0, 64, 0
2, 12984, Note_on_c, 0, 76, 0
2, 13077, Note_on_c, 0, 57, 48
2, 13077, Note_on_c, 0, 69, 56
2, 13077, Note_on_c, 0, 73, 57
2, 13088, Note_on_c, 0, 61, 42
2, 13107, Note_on_c, 0, 62, 0
2, 13119, Note_on_c, 0, 71, 0
2, 13130, Control_c, 0, 67, 0
2, 13140, Note_on_c, 0, 74, 0
2, 13153, Note_on_c, 0, 59, 0
2, 13163, Control_c, 0, 67, 127
2, 13192, Control_c, 0, 67, 0
2, 13203, Note_on_c, 0, 57, 0
2, 13213, Note_on_c, 0, 71, 42
2, 13223, Note_on_c, 0, 59, 42
2, 13224, Note_on_c, 0, 56, 44
2, 13224, Control_c, 0, 67, 127
2, 13226, Note_on_c, 0, 68, 45
2, 13240, Note_on_c, 0, 61, 0
2, 13240, Note_on_c, 0, 69, 0
2, 13253, Control_c, 0, 67, 0
2, 13265, Note_on_c, 0, 73, 0
2, 13286, Control_c, 0, 67, 127
2, 13313, Note_on_c, 0, 52, 0
2, 13342, Note_on_c, 0, 45, 44
2, 13355, Note_on_c, 0, 73, 59
2, 13359, Note_on_c, 0, 59, 0
2, 13361, Note_on_c, 0, 56, 0
2, 13363, Note_on_c, 0, 68, 0
2, 13368, Note_on_c, 0, 57, 48
2, 13368, Note_on_c, 0, 61, 43
2, 13368, Note_on_c, 0, 69, 42
2, 13372, Note_on_c, 0, 71, 0
2, 13382, Control_c, 0, 64, 127
2, 13428, Control_c, 0, 67, 0
2, 13463, Control_c, 0, 67, 127
2, 13484, Note_on_c, 0, 64, 42
2, 13486, Note_on_c, 0, 52, 45
2, 13549, Note_on_c, 0, 61, 0
2, 13549, Note_on_c, 0, 69, 0
2, 13559, Note_on_c, 0, 57, 0
2, 13607, Control_c, 0, 67, 0
2, 13614, Note_on_c, 0, 61, 47
2, 13614, Note_on_c, 0, 69, 47
2, 13626, Note_on_c, 0, 57, 44
2, 13628, Note_on_c, 0, 49, 47
2, 13639, Control_c, 0, 67, 127
2, 13641, Note_on_c, 0, 73, 0
2, 13678, Note_on_c, 0, 52, 0
2, 13722, Control_c, 0, 67, 0
2, 13743, Note_on_c, 0, 52, 44
2, 13754, Control_c, 0, 67, 127
2, 13804, Note_on_c, 0, 57, 0
2, 13806, Note_on_c, 0, 61, 0
2, 13806, Note_on_c, 0, 45, 0
2, 13806, Note_on_c, 0, 69, 0
2, 13816, Note_on_c, 0, 52, 0
2, 13841, Control_c, 0, 67, 0
2, 13843, Control_c, 0, 64, 0
2, 13866, Note_on_c, 0, 64, 0
2, 13873, Note_on_c, 0, 45, 42
2, 13873, Note_on_c, 0, 57, 48
2, 13873, Note_on_c, 0, 61, 48
2, 13873, Note_on_c, 0, 73, 59
2, 13873, Control_c, 0, 67, 127
2, 13877, Note_on_c, 0, 49, 0
2, 13883, Note_on_c, 0, 52, 46
2, 13883, Note_on_c, 0, 69, 44
2, 14007, Note_on_c, 0, 69, 0
2, 14007, Note_on_c, 0, 57, 0
2, 14013, Note_on_c, 0, 59, 45
2, 14015, Note_on_c, 0, 56, 47
2, 14015, Note_on_c, 0, 71, 55
2, 14028, Note_on_c, 0, 68, 41
2, 14043, Note_on_c, 0, 73, 0
2, 14078, Note_on_c, 0, 61, 0
2, 14128, Note_on_c, 0, 68, 0
2, 14137, Note_on_c, 0, 56, 0
2, 14139, Note_on_c, 0, 52, 0
2, 14145, Note_on_c, 0, 73, 61
2, 14151, Note_on_c, 0, 71, 0
2, 14157, Note_on_c, 0, 57, 47
2, 14157, Note_on_c, 0, 61, 46
2, 14159, Note_on_c, 0, 69, 46
2, 14172, Note_on_c, 0, 59, 0
2, 14255, Note_on_c, 0, 69, 0
2, 14255, Control_c, 0, 67, 0
2, 14266, Note_on_c, 0, 57, 0
2, 14272, Note_on_c, 0, 74, 61
2, 14287, Note_on_c, 0, 59, 44
2, 14287, Note_on_c, 0, 62, 44
2, 14287, Note_on_c, 0, 71, 44
2, 14289, Control_c, 0, 67, 127
2, 14291, Note_on_c, 0, 73, 0
2, 14291, Note_on_c, 0, 61, 0
2, 14291, Note_on_c, 0, 45, 0
2, 14339, Note_on_c, 0, 59, 0
2, 14339, Note_on_c, 0, 71, 0
2, 14347, Note_on_c, 0, 45, 46
2, 14377, Control_c, 0, 67, 0
2, 14383, Note_on_c, 0, 52, 46
2, 14397, Note_on_c, 0, 76, 68
2, 14402, Note_on_c, 0, 62, 0
2, 14410, Note_on_c, 0, 64, 44
2, 14410, Note_on_c, 0, 73, 49
2, 14412, Note_on_c, 0, 74, 0
2, 14412, Control_c, 0, 67, 127
2, 14422, Note_on_c, 0, 61, 45
2, 14424, Control_c, 0, 64, 127
2, 14439, Control_c, 0, 67, 0
2, 14472, Control_c, 0, 67, 127
2, 14473, Control_c, 0, 64, 0
2, 14498, Control_c, 0, 67, 0
2, 14506, Control_c, 0, 64, 127
2, 14531, Note_on_c, 0, 81, 66
2, 14533, Control_c, 0, 67, 127
2, 14543, Note_on_c, 0, 69, 45
2, 14543, Note_on_c, 0, 78, 45
2, 14548, Note_on_c, 0, 45, 0
2, 14554, Note_on_c, 0, 57, 49
2, 14554, Note_on_c, 0, 66, 43
2, 14569, Note_on_c, 0, 76, 0
2, 14569, Note_on_c, 0, 73, 0
2, 14571, Control_c, 0, 64, 0
2, 14583, Note_on_c, 0, 61, 0
2, 14594, Note_on_c, 0, 52, 0
2, 14594, Note_on_c, 0, 64, 0
2, 14619, Control_c, 0, 67, 0
2, 14652, Control_c, 0, 67, 127
2, 14677, Note_on_c, 0, 68, 60
2, 14677, Note_on_c, 0, 80, 57
2, 14688, Note_on_c, 0, 64, 42
2, 14692, Note_on_c, 0, 69, 0
2, 14692, Note_on_c, 0, 66, 0
2, 14700, Note_on_c, 0, 76, 42
2, 14706, Note_on_c, 0, 81, 0
2, 14731, Note_on_c, 0, 78, 0
2, 14742, Control_c, 0, 67, 0
2, 14775, Control_c, 0, 67, 127
2, 14802, Control_c, 0, 67, 0
2, 14804, Note_on_c, 0, 64, 0
2, 14806, Note_on_c, 0, 68, 0
2, 14809, Note_on_c, 0, 62, 48
2, 14809, Note_on_c, 0, 66, 57
2, 14809, Note_on_c, 0, 78, 55
2, 14819, Note_on_c, 0, 74, 44
2, 14829, Note_on_c, 0, 80, 0
2, 14834, Control_c, 0, 67, 127
2, 14848, Note_on_c, 0, 76, 0
2, 14859, Control_c, 0, 67, 0
2, 14892, Control_c, 0, 67, 127
2, 14907, Note_on_c, 0, 74, 0
2, 14909, Note_on_c, 0, 66, 0
2, 14909, Note_on_c, 0, 62, 0
2, 14909, Note_on_c, 0, 57, 0
2, 14923, Control_c, 0, 67, 0
2, 14944, Note_on_c, 0, 33, 48
2, 14953, Note_on_c, 0, 45, 51
2, 14953, Note_on_c, 0, 61, 49
2, 14953, Note_on_c, 0, 69, 45
2, 14955, Control_c, 0, 67, 127
2, 14965, Note_on_c, 0, 73, 44
2, 14976, Note_on_c, 0, 76, 61
2, 14996, Note_on_c, 0, 78, 0
2, 15007, Note_on_c, 0, 69, 0
2, 15007, Note_on_c, 0, 61, 0
2, 15019, Note_on_c, 0, 73, 0
2, 15032, Note_on_c, 0, 33, 0
2, 15032, Note_on_c, 0, 45, 0
2, 15044, Control_c, 0, 67, 0
2, 15078, Control_c, 0, 67, 127
2, 15090, Note_on_c, 0, 37, 51
2, 15094, Note_on_c, 0, 76, 0
2, 15101, Note_on_c, 0, 49, 47
2, 15120, Note_on_c, 0, 37, 0
2, 15130, Note_on_c, 0, 49, 0
2, 15168, Control_c, 0, 67, 0
2, 15176, Control_c, 0, 64, 127
2, 15186, Note_on_c, 0, 61, 42
2, 15201, Control_c, 0, 67, 127
2, 15211, Note_on_c, 0, 69, 47
2, 15222, Note_on_c, 0, 73, 43
2, 15228, Control_c, 0, 64, 0
2, 15228, Control_c, 0, 67, 0
2, 15234, Note_on_c, 0, 52, 48
2, 15234, Note_on_c, 0, 76, 53
2, 15236, Note_on_c, 0, 40, 52
2, 15253, Note_on_c, 0, 61, 0
2, 15263, Note_on_c, 0, 52, 0
2, 15263, Control_c, 0, 67, 127
2, 15264, Note_on_c, 0, 40, 0
2, 15276, Note_on_c, 0, 69, 0
2, 15288, Note_on_c, 0, 73, 0
2, 15289, Control_c, 0, 67, 0
2, 15322, Control_c, 0, 67, 127
2, 15349, Control_c, 0, 67, 0
2, 15359, Note_on_c, 0, 76, 0
2, 15368, Note_on_c, 0, 45, 52
2, 15368, Note_on_c, 0, 57, 49
2, 15382, Control_c, 0, 67, 127
2, 15395, Note_on_c, 0, 57, 0
2, 15397, Note_on_c, 0, 45, 0
2, 15408, Control_c, 0, 67, 0
2, 15426, Control_c, 0, 64, 127
2, 15441, Control_c, 0, 67, 127
2, 15449, Note_on_c, 0, 61, 44
2, 15462, Note_on_c, 0, 69, 44
2, 15485, Note_on_c, 0, 33, 42
2, 15485, Note_on_c, 0, 73, 48
2, 15495, Note_on_c, 0, 45, 42
2, 15518, Note_on_c, 0, 76, 62
2, 15526, Control_c, 0, 67, 0
2, 15623, Note_on_c, 0, 45, 0
2, 15680, Note_on_c, 0, 73, 0
2, 15680, Note_on_c, 0, 69, 0
2, 15680, Note_on_c, 0, 61, 0
2, 15688, Note_on_c, 0, 45, 43
2, 15709, Note_on_c, 0, 52, 41
2, 15740, Note_on_c, 0, 76, 0
2, 15745, Note_on_c, 0, 61, 48
2, 15745, Note_on_c, 0, 69, 55
2, 15745, Note_on_c, 0, 73, 54
2, 15757, Note_on_c, 0, 81, 60
2, 15846, Control_c, 0, 64, 0
2, 15902, Note_on_c, 0, 83, 60
2, 15904, Note_on_c, 0, 73, 0
2, 15904, Note_on_c, 0, 61, 0
2, 15910, Note_on_c, 0, 76, 43
2, 15912, Note_on_c, 0, 64, 48
2, 15912, Note_on_c, 0, 71, 45
2, 15940, Note_on_c, 0, 69, 0
2, 15952, Note_on_c, 0, 81, 0
2, 16017, Note_on_c, 0, 85, 67
2, 16019, Note_on_c, 0, 76, 0
2, 16029, Note_on_c, 0, 57, 48
2, 16034, Note_on_c, 0, 83, 0
2, 16040, Note_on_c, 0, 69, 61
2, 16040, Note_on_c, 0, 73, 67
2, 16067, Note_on_c, 0, 71, 0
2, 16079, Note_on_c, 0, 64, 0
2, 16136, Control_c, 0, 64, 127
2, 16146, Note_on_c, 0, 64, 45
2, 16169, Note_on_c, 0, 81, 61
2, 16180, Note_on_c, 0, 76, 64
2, 16234, Note_on_c, 0, 76, 0
2, 16234, Note_on_c, 0, 73, 0
2, 16290, Note_on_c, 0, 88, 66
2, 16299, Note_on_c, 0, 73, 49
2, 16299, Note_on_c, 0, 76, 43
2, 16313, Note_on_c, 0, 61, 44
2, 16317, Note_on_c, 0, 64, 0
2, 16328, Note_on_c, 0, 69, 0
2, 16328, Note_on_c, 0, 81, 0
2, 16342, Note_on_c, 0, 85, 0
2, 16409, Note_on_c, 0, 64, 44
2, 16409, Note_on_c, 0, 69, 63
2, 16409, Note_on_c, 0, 81, 68
2, 16409, Note_on_c, 0, 85, 64
2, 16426, Note_on_c, 0, 85, 0
2, 16438, Note_on_c, 0, 88, 0
2, 16447, Control_c, 0, 64, 0
2, 16480, Note_on_c, 0, 85, 43
2, 16493, Note_on_c, 0, 76, 0
2, 16495, Note_on_c, 0, 64, 0
2, 16495, Note_on_c, 0, 45, 0
2, 16495, Note_on_c, 0, 57, 0
2, 16495, Note_on_c, 0, 33, 0
2, 16495, Note_on_c, 0, 52, 0
2, 16495, Note_on_c, 0, 69, 0
2, 16495, Note_on_c, 0, 61, 0
2, 16522, Note_on_c, 0, 85, 0
2, 16541, Note_on_c, 0, 71, 64
2, 16541, Note_on_c, 0, 80, 61
2, 16541, Note_on_c, 0, 83, 68
2, 16551, Note_on_c, 0, 47, 44
2, 16551, Note_on_c, 0, 52, 44
2, 16553, Note_on_c, 0, 40, 47
2, 16568, Note_on_c, 0, 81, 0
2, 16568, Note_on_c, 0, 73, 0
2, 16719, Control_c, 0, 64, 127
2, 16805, Note_on_c, 0, 81, 61
2, 16809, Control_c, 0, 64, 0
2, 16817, Note_on_c, 0, 66, 46
2, 16817, Note_on_c, 0, 69, 49
2, 16817, Note_on_c, 0, 78, 48
2, 16832, Note_on_c, 0, 71, 0
2, 16834, Note_on_c, 0, 80, 0
2, 16834, Note_on_c, 0, 83, 0
2, 16943, Note_on_c, 0, 66, 0
2, 16944, Note_on_c, 0, 78, 0
2, 16950, Note_on_c, 0, 64, 41
2, 16952, Note_on_c, 0, 80, 55
2, 16962, Note_on_c, 0, 76, 44
2, 16975, Note_on_c, 0, 68, 43
2, 16979, Note_on_c, 0, 81, 0
2, 16987, Control_c, 0, 64, 127
2, 16991, Note_on_c, 0, 69, 0
2, 17014, Note_on_c, 0, 47, 0
2, 17016, Note_on_c, 0, 80, 0
2, 17039, Note_on_c, 0, 68, 0
2, 17075, Note_on_c, 0, 76, 0
2, 17075, Note_on_c, 0, 52, 0
2, 17077, Note_on_c, 0, 64, 0
2, 17077, Note_on_c, 0, 40, 0
2, 17083, Note_on_c, 0, 47, 43
2, 17083, Note_on_c, 0, 59, 47
2, 17085, Note_on_c, 0, 80, 65
2, 17088, Control_c, 0, 64, 0
2, 17096, Note_on_c, 0, 71, 48
2, 17098, Note_on_c, 0, 68, 43
2, 17210, Note_on_c, 0, 68, 0
2, 17220, Note_on_c, 0, 71, 0
2, 17228, Note_on_c, 0, 66, 60
2, 17228, Note_on_c, 0, 69, 57
2, 17228, Note_on_c, 0, 78, 60
2, 17239, Note_on_c, 0, 57, 45
2, 17255, Note_on_c, 0, 59, 0
2, 17258, Note_on_c, 0, 80, 0
2, 17375, Note_on_c, 0, 76, 58
2, 17380, Note_on_c, 0, 69, 0
2, 17388, Note_on_c, 0, 56, 42
2, 17388, Note_on_c, 0, 64, 47
2, 17388, Note_on_c, 0, 68, 46
2, 17392, Note_on_c, 0, 78, 0
2, 17403, Note_on_c, 0, 66, 0
2, 17415, Note_on_c, 0, 57, 0
2, 17510, Note_on_c, 0, 63, 47
2, 17516, Note_on_c, 0, 68, 0
2, 17521, Note_on_c, 0, 54, 46
2, 17523, Note_on_c, 0, 66, 51
2, 17535, Note_on_c, 0, 75, 48
2, 17539, Note_on_c, 0, 64, 0
2, 17548, Note_on_c, 0, 76, 0
2, 17548, Note_on_c, 0, 56, 0
2, 17623, Note_on_c, 0, 47, 0
2, 17631, Note_on_c, 0, 40, 44
2, 17635, Note_on_c, 0, 54, 0
2, 17637, Note_on_c, 0, 66, 0
2, 17646, Note_on_c, 0, 64, 48
2, 17662, Note_on_c, 0, 63, 0
2, 17669, Note_on_c, 0, 68, 59
2, 17675, Note_on_c, 0, 75, 0
2, 17679, Note_on_c, 0, 76, 53
2, 17690, Note_on_c, 0, 47, 48
2, 17704, Control_c, 0, 64, 127
2, 17727, Note_on_c, 0, 56, 45
2, 17765, Control_c, 0, 67, 127
2, 17790, Note_on_c, 0, 64, 0
2, 17844, Note_on_c, 0, 52, 59
2, 17857, Note_on_c, 0, 64, 59
2, 17909, Control_c, 0, 67, 0
2, 17942, Control_c, 0, 67, 127
2, 17978, Note_on_c, 0, 47, 0
2, 17978, Note_on_c, 0, 56, 0
2, 17980, Note_on_c, 0, 40, 0
2, 17986, Note_on_c, 0, 57, 48
2, 17994, Note_on_c, 0, 68, 0
2, 18000, Note_on_c, 0, 69, 47
2, 18030, Control_c, 0, 67, 0
2, 18063, Control_c, 0, 67, 127
2, 18090, Control_c, 0, 67, 0
2, 18122, Control_c, 0, 67, 127
2, 18130, Note_on_c, 0, 54, 48
2, 18136, Note_on_c, 0, 64, 0
2, 18144, Note_on_c, 0, 66, 43
2, 18147, Control_c, 0, 64, 0
2, 18209, Control_c, 0, 67, 0
2, 18218, Note_on_c, 0, 57, 0
2, 18218, Note_on_c, 0, 54, 0
2, 18226, Note_on_c, 0, 56, 42
2, 18241, Control_c, 0, 67, 127
2, 18243, Note_on_c, 0, 76, 0
2, 18263, Note_on_c, 0, 59, 42
2, 18270, Control_c, 0, 67, 0
2, 18282, Note_on_c, 0, 69, 0
2, 18282, Note_on_c, 0, 66, 0
2, 18289, Note_on_c, 0, 64, 59
2, 18289, Note_on_c, 0, 71, 41
2, 18303, Control_c, 0, 67, 127
2, 18311, Note_on_c, 0, 76, 54
2, 18429, Control_c, 0, 64, 127
2, 18452, Note_on_c, 0, 83, 65
2, 18469, Note_on_c, 0, 71, 0
2, 18504, Note_on_c, 0, 76, 0
2, 18505, Control_c, 0, 67, 0
2, 18515, Note_on_c, 0, 52, 0
2, 18515, Note_on_c, 0, 59, 0
2, 18515, Note_on_c, 0, 56, 0
2, 18536, Note_on_c, 0, 71, 45
2, 18538, Control_c, 0, 67, 127
2, 18571, Note_on_c, 0, 76, 48
2, 18584, Note_on_c, 0, 52, 54
2, 18584, Note_on_c, 0, 56, 52
2, 18584, Note_on_c, 0, 59, 50
2, 18598, Note_on_c, 0, 86, 64
2, 18626, Control_c, 0, 67, 0
2, 18638, Note_on_c, 0, 83, 0
2, 18659, Control_c, 0, 67, 127
2, 18738, Note_on_c, 0, 83, 59
2, 18767, Note_on_c, 0, 86, 0
2, 18788, Note_on_c, 0, 76, 0
2, 18790, Note_on_c, 0, 64, 0
2, 18790, Note_on_c, 0, 56, 0
2, 18797, Note_on_c, 0, 57, 51
2, 18803, Control_c, 0, 67, 0
2, 18811, Note_on_c, 0, 59, 0
2, 18822, Note_on_c, 0, 61, 52
2, 18836, Control_c, 0, 67, 127
2, 18838, Control_c, 0, 64, 0
2, 18840, Note_on_c, 0, 71, 0
2, 18845, Note_on_c, 0, 73, 43
2, 18855, Note_on_c, 0, 76, 50
2, 18857, Note_on_c, 0, 64, 50
2, 18874, Note_on_c, 0, 52, 0
2, 18884, Note_on_c, 0, 85, 67
2, 18911, Note_on_c, 0, 83, 0
2, 19021, Note_on_c, 0, 83, 55
2, 19050, Note_on_c, 0, 85, 0
2, 19152, Note_on_c, 0, 81, 55
2, 19160, Control_c, 0, 67, 0
2, 19174, Control_c, 0, 64, 127
2, 19193, Control_c, 0, 67, 127
2, 19195, Note_on_c, 0, 83, 0
2, 19279, Control_c, 0, 67, 0
2, 19285, Note_on_c, 0, 80, 48
2, 19287, Note_on_c, 0, 57, 0
2, 19312, Note_on_c, 0, 61, 0
2, 19312, Control_c, 0, 67, 127
2, 19323, Note_on_c, 0, 73, 0
2, 19323, Note_on_c, 0, 81, 0
2, 19356, Note_on_c, 0, 57, 41
2, 19360, Note_on_c, 0, 64, 0
2, 19383, Note_on_c, 0, 76, 0
2, 19383, Control_c, 0, 64, 0
2, 19391, Note_on_c, 0, 61, 49
2, 19391, Note_on_c, 0, 73, 41
2, 19423, Note_on_c, 0, 80, 0
2, 19427, Note_on_c, 0, 64, 50
2, 19429, Note_on_c, 0, 81, 62
2, 19562, Note_on_c, 0, 76, 49
2, 19576, Control_c, 0, 64, 127
2, 19603, Note_on_c, 0, 76, 0
2, 19624, Note_on_c, 0, 69, 46
2, 19628, Note_on_c, 0, 57, 0
2, 19668, Note_on_c, 0, 76, 49
2, 19693, Note_on_c, 0, 49, 46
2, 19693, Note_on_c, 0, 52, 47
2, 19693, Note_on_c, 0, 57, 46
2, 19699, Control_c, 0, 67, 0
2, 19706, Note_on_c, 0, 85, 62
2, 19731, Control_c, 0, 67, 127
2, 19758, Control_c, 0, 67, 0
2, 19770, Note_on_c, 0, 81, 0
2, 19791, Control_c, 0, 67, 127
2, 19818, Control_c, 0, 67, 0
2, 19829, Note_on_c, 0, 52, 0
2, 19839, Note_on_c, 0, 81, 62
2, 19852, Control_c, 0, 67, 127
2, 19870, Note_on_c, 0, 85, 0
2, 19891, Note_on_c, 0, 49, 0
2, 19898, Note_on_c, 0, 52, 54
2, 19902, Note_on_c, 0, 64, 0
2, 19902, Note_on_c, 0, 57, 0
2, 19902, Note_on_c, 0, 76, 0
2, 19910, Note_on_c, 0, 56, 53
2, 19914, Note_on_c, 0, 61, 0
2, 19920, Note_on_c, 0, 59, 51
2, 19925, Control_c, 0, 64, 0
2, 19927, Note_on_c, 0, 69, 0
2, 19935, Note_on_c, 0, 68, 47
2, 19958, Note_on_c, 0, 64, 53
2, 19962, Note_on_c, 0, 73, 0
2, 19969, Note_on_c, 0, 76, 63
2, 19969, Note_on_c, 0, 83, 66
2, 20000, Control_c, 0, 67, 0
2, 20012, Note_on_c, 0, 81, 0
2, 20035, Control_c, 0, 67, 127
2, 20064, Control_c, 0, 67, 0
2, 20096, Control_c, 0, 67, 127
2, 20119, Note_on_c, 0, 81, 62
2, 20148, Note_on_c, 0, 83, 0
2, 20262, Note_on_c, 0, 80, 59
2, 20291, Note_on_c, 0, 81, 0
2, 20388, Note_on_c, 0, 56, 0
2, 20396, Note_on_c, 0, 78, 47
2, 20400, Note_on_c, 0, 76, 0
2, 20409, Note_on_c, 0, 59, 0
2, 20424, Note_on_c, 0, 80, 0
2, 20442, Note_on_c, 0, 56, 44
2, 20448, Note_on_c, 0, 64, 0
2, 20472, Note_on_c, 0, 68, 0
2, 20476, Note_on_c, 0, 59, 46
2, 20476, Note_on_c, 0, 71, 48
2, 20482, Control_c, 0, 67, 0
2, 20507, Note_on_c, 0, 78, 0
2, 20511, Note_on_c, 0, 64, 47
2, 20511, Note_on_c, 0, 76, 59
2, 20517, Control_c, 0, 67, 127
2, 20623, Control_c, 0, 64, 127
2, 20646, Note_on_c, 0, 83, 60
2, 20662, Note_on_c, 0, 71, 0
2, 20696, Note_on_c, 0, 76, 0
2, 20708, Note_on_c, 0, 59, 0
2, 20723, Note_on_c, 0, 56, 0
2, 20723, Control_c, 0, 67, 0
2, 20731, Note_on_c, 0, 71, 42
2, 20735, Note_on_c, 0, 52, 0
2, 20756, Control_c, 0, 67, 127
2, 20765, Note_on_c, 0, 76, 46
2, 20777, Note_on_c, 0, 59, 48
2, 20783, Control_c, 0, 67, 0
2, 20788, Note_on_c, 0, 52, 42
2, 20788, Note_on_c, 0, 56, 42
2, 20802, Note_on_c, 0, 86, 55
2, 20815, Control_c, 0, 67, 127
2, 20842, Control_c, 0, 67, 0
2, 20865, Note_on_c, 0, 83, 0
2, 20875, Control_c, 0, 67, 127
2, 20932, Note_on_c, 0, 83, 56
2, 20961, Note_on_c, 0, 64, 0
2, 20961, Control_c, 0, 64, 0
2, 20961, Control_c, 0, 67, 0
2, 20963, Note_on_c, 0, 86, 0
2, 20982, Note_on_c, 0, 59, 0
2, 20984, Note_on_c, 0, 56, 0
2, 20992, Note_on_c, 0, 57, 42
2, 20994, Control_c, 0, 67, 127
2, 20996, Note_on_c, 0, 76, 0
2, 21017, Note_on_c, 0, 61, 48
2, 21019, Control_c, 0, 64, 127
2, 21021, Note_on_c, 0, 71, 0
2, 21023, Control_c, 0, 67, 0
2, 21028, Note_on_c, 0, 64, 42
2, 21028, Note_on_c, 0, 73, 46
2, 21034, Note_on_c, 0, 52, 0
2, 21034, Control_c, 0, 64, 0
2, 21051, Note_on_c, 0, 76, 46
2, 21055, Control_c, 0, 67, 127
2, 21071, Note_on_c, 0, 83, 0
2, 21078, Note_on_c, 0, 85, 61
2, 21082, Control_c, 0, 67, 0
2, 21115, Control_c, 0, 67, 127
2, 21142, Control_c, 0, 67, 0
2, 21174, Control_c, 0, 67, 127
2, 21209, Note_on_c, 0, 83, 48
2, 21238, Note_on_c, 0, 85, 0
2, 21350, Note_on_c, 0, 81, 51
2, 21379, Note_on_c, 0, 83, 0
2, 21384, Control_c, 0, 64, 127
2, 21469, Note_on_c, 0, 80, 49
2, 21482, Note_on_c, 0, 57, 0
2, 21482, Note_on_c, 0, 61, 0
2, 21498, Note_on_c, 0, 73, 0
2, 21498, Note_on_c, 0, 81, 0
2, 21521, Note_on_c, 0, 64, 0
2, 21538, Note_on_c, 0, 57, 50
2, 21555, Control_c, 0, 64, 0
2, 21557, Note_on_c, 0, 76, 0
2, 21559, Control_c, 0, 67, 0
2, 21565, Note_on_c, 0, 61, 53
2, 21565, Note_on_c, 0, 73, 44
2, 21588, Note_on_c, 0, 64, 52
2, 21592, Control_c, 0, 67, 127
2, 21596, Note_on_c, 0, 80, 0
2, 21601, Note_on_c, 0, 81, 56
2, 21746, Note_on_c, 0, 76, 49
2, 21750, Control_c, 0, 64, 127
2, 21798, Note_on_c, 0, 76, 0
2, 21810, Note_on_c, 0, 69, 42
2, 21837, Note_on_c, 0, 57, 0
2, 21864, Control_c, 0, 67, 0
2, 21867, Note_on_c, 0, 76, 48
2, 21896, Control_c, 0, 67, 127
2, 21906, Note_on_c, 0, 49, 44
2, 21906, Note_on_c, 0, 52, 45
2, 21906, Note_on_c, 0, 57, 49
2, 21906, Note_on_c, 0, 85, 53
2, 21981, Note_on_c, 0, 81, 0
2, 22059, Note_on_c, 0, 81, 53
2, 22100, Note_on_c, 0, 52, 0
2, 22102, Control_c, 0, 67, 0
2, 22134, Control_c, 0, 67, 127
2, 22163, Control_c, 0, 67, 0
2, 22173, Note_on_c, 0, 64, 0
2, 22186, Note_on_c, 0, 57, 0
2, 22186, Note_on_c, 0, 49, 0
2, 22186, Note_on_c, 0, 76, 0
2, 22196, Note_on_c, 0, 61, 0
2, 22196, Control_c, 0, 67, 127
2, 22219, Note_on_c, 0, 52, 43
2, 22224, Note_on_c, 0, 69, 0
2, 22230, Note_on_c, 0, 56, 43
2, 22242, Note_on_c, 0, 59, 43
2, 22248, Note_on_c, 0, 73, 0
2, 22248, Control_c, 0, 64, 0
2, 22249, Note_on_c, 0, 85, 0
2, 22255, Note_on_c, 0, 64, 48
2, 22265, Note_on_c, 0, 76, 41
2, 22267, Note_on_c, 0, 68, 48
2, 22305, Note_on_c, 0, 83, 45
2, 22320, Note_on_c, 0, 81, 0
2, 22345, Control_c, 0, 67, 0
2, 22380, Control_c, 0, 67, 127
2, 22407, Control_c, 0, 67, 0
2, 22440, Control_c, 0, 67, 127
2, 22531, Control_c, 0, 67, 0
2, 22563, Control_c, 0, 67, 127
2, 22886, Note_on_c, 0, 59, 0
2, 22888, Note_on_c, 0, 56, 0
2, 22894, Note_on_c, 0, 57, 45
2, 22930, Control_c, 0, 64, 127
2, 22930, Note_on_c, 0, 61, 59
2, 22934, Note_on_c, 0, 76, 0
2, 22936, Note_on_c, 0, 83, 0
2, 22938, Note_on_c, 0, 68, 0
2, 22942, Note_on_c, 0, 73, 63
2, 22947, Note_on_c, 0, 52, 0
2, 22953, Note_on_c, 0, 69, 47
2, 22959, Note_on_c, 0, 73, 0
2, 22976, Note_on_c, 0, 74, 54
2, 22993, Note_on_c, 0, 74, 0
2, 22999, Note_on_c, 0, 73, 52
2, 23016, Note_on_c, 0, 73, 0
2, 23016, Control_c, 0, 64, 0
2, 23030, Control_c, 0, 67, 0
2, 23034, Note_on_c, 0, 74, 47
2, 23063, Control_c, 0, 67, 127
2, 23064, Note_on_c, 0, 74, 0
2, 23072, Note_on_c, 0, 73, 44
2, 23103, Note_on_c, 0, 73, 0
2, 23109, Note_on_c, 0, 59, 48
2, 23111, Note_on_c, 0, 71, 59
2, 23120, Note_on_c, 0, 56, 52
2, 23122, Note_on_c, 0, 68, 42
2, 23137, Note_on_c, 0, 57, 0
2, 23149, Note_on_c, 0, 61, 0
2, 23151, Note_on_c, 0, 69, 0
2, 23208, Control_c, 0, 67, 0
2, 23241, Control_c, 0, 67, 127
2, 23243, Note_on_c, 0, 56, 0
2, 23245, Note_on_c, 0, 64, 0
2, 23251, Note_on_c, 0, 61, 41
2, 23251, Note_on_c, 0, 73, 66
2, 23264, Note_on_c, 0, 57, 42
2, 23266, Note_on_c, 0, 69, 48
2, 23293, Note_on_c, 0, 59, 0
2, 23295, Note_on_c, 0, 71, 0
2, 23297, Note_on_c, 0, 68, 0
2, 23377, Note_on_c, 0, 57, 0
2, 23377, Note_on_c, 0, 69, 0
2, 23395, Note_on_c, 0, 74, 43
2, 23399, Note_on_c, 0, 62, 43
2, 23408, Note_on_c, 0, 59, 48
2, 23410, Note_on_c, 0, 71, 48
2, 23414, Note_on_c, 0, 73, 0
2, 23462, Note_on_c, 0, 61, 0
2, 23510, Control_c, 0, 67, 0
2, 23527, Note_on_c, 0, 45, 42
2, 23527, Note_on_c, 0, 76, 66
2, 23533, Note_on_c, 0, 59, 0
2, 23535, Note_on_c, 0, 71, 0
2, 23541, Note_on_c, 0, 64, 43
2, 23541, Note_on_c, 0, 73, 45
2, 23543, Control_c, 0, 67, 127
2, 23554, Note_on_c, 0, 74, 0
2, 23568, Note_on_c, 0, 62, 0
2, 23573, Note_on_c, 0, 52, 46
2, 23623, Note_on_c, 0, 61, 46
2, 23646, Control_c, 0, 64, 127
2, 23669, Note_on_c, 0, 81, 60
2, 23681, Note_on_c, 0, 66, 41
2, 23681, Note_on_c, 0, 69, 42
2, 23692, Note_on_c, 0, 78, 42
2, 23729, Note_on_c, 0, 76, 0
2, 23754, Note_on_c, 0, 64, 0
2, 23794, Note_on_c, 0, 80, 58
2, 23796, Control_c, 0, 64, 0
2, 23802, Note_on_c, 0, 76, 48
2, 23808, Note_on_c, 0, 45, 0
2, 23808, Note_on_c, 0, 52, 0
2, 23808, Note_on_c, 0, 61, 0
2, 23813, Note_on_c, 0, 64, 47
2, 23817, Note_on_c, 0, 68, 44
2, 23819, Note_on_c, 0, 78, 0
2, 23819, Note_on_c, 0, 81, 0
2, 23831, Note_on_c, 0, 66, 0
2, 23831, Note_on_c, 0, 69, 0
2, 23915, Note_on_c, 0, 73, 0
2, 23915, Control_c, 0, 67, 0
2, 23921, Note_on_c, 0, 78, 58
2, 23930, Note_on_c, 0, 74, 44
2, 23932, Note_on_c, 0, 62, 45
2, 23932, Note_on_c, 0, 66, 42
2, 23948, Control_c, 0, 67, 127
2, 23950, Note_on_c, 0, 76, 0
2, 23953, Note_on_c, 0, 80, 0
2, 23963, Note_on_c, 0, 64, 0
2, 23963, Note_on_c, 0, 68, 0
2, 23975, Control_c, 0, 67, 0
2, 24007, Control_c, 0, 67, 127
2, 24030, Note_on_c, 0, 61, 59
2, 24055, Note_on_c, 0, 69, 41
2, 24059, Note_on_c, 0, 62, 0
2, 24059, Note_on_c, 0, 66, 0
2, 24059, Note_on_c, 0, 74, 0
2, 24082, Note_on_c, 0, 33, 53
2, 24082, Note_on_c, 0, 45, 57
2, 24082, Note_on_c, 0, 73, 44
2, 24092, Note_on_c, 0, 76, 66
2, 24097, Note_on_c, 0, 61, 0
2, 24109, Note_on_c, 0, 45, 0
2, 24109, Note_on_c, 0, 33, 0
2, 24145, Note_on_c, 0, 78, 0
2, 24145, Note_on_c, 0, 69, 0
2, 24157, Control_c, 0, 67, 0
2, 24182, Note_on_c, 0, 73, 0
2, 24190, Control_c, 0, 67, 127
2, 24220, Control_c, 0, 67, 0
2, 24230, Note_on_c, 0, 49, 59
2, 24243, Note_on_c, 0, 37, 56
2, 24245, Note_on_c, 0, 76, 0
2, 24253, Control_c, 0, 67, 127
2, 24259, Note_on_c, 0, 49, 0
2, 24272, Note_on_c, 0, 37, 0
2, 24282, Control_c, 0, 67, 0
2, 24314, Control_c, 0, 67, 127
2, 24351, Note_on_c, 0, 61, 46
2, 24374, Note_on_c, 0, 76, 58
2, 24376, Note_on_c, 0, 52, 56
2, 24376, Note_on_c, 0, 69, 60
2, 24376, Note_on_c, 0, 73, 59
2, 24378, Note_on_c, 0, 40, 54
2, 24403, Control_c, 0, 67, 0
2, 24405, Note_on_c, 0, 40, 0
2, 24405, Note_on_c, 0, 52, 0
2, 24430, Note_on_c, 0, 61, 0
2, 24435, Control_c, 0, 67, 127
2, 24441, Note_on_c, 0, 69, 0
2, 24462, Control_c, 0, 67, 0
2, 24464, Note_on_c, 0, 73, 0
2, 24497, Control_c, 0, 67, 127
2, 24522, Note_on_c, 0, 45, 53
2, 24522, Note_on_c, 0, 57, 57
2, 24526, Control_c, 0, 67, 0
2, 24537, Note_on_c, 0, 76, 0
2, 24551, Note_on_c, 0, 57, 0
2, 24552, Note_on_c, 0, 45, 0
2, 24558, Control_c, 0, 67, 127
2, 24589, Control_c, 0, 67, 0
2, 24622, Note_on_c, 0, 61, 41
2, 24622, Control_c, 0, 67, 127
2, 24647, Note_on_c, 0, 69, 46
2, 24660, Note_on_c, 0, 73, 45
2, 24662, Note_on_c, 0, 33, 51
2, 24672, Note_on_c, 0, 45, 53
2, 24681, Note_on_c, 0, 76, 66
2, 24710, Control_c, 0, 67, 0
2, 24733, Control_c, 0, 64, 127
2, 24744, Control_c, 0, 67, 127
2, 24773, Control_c, 0, 67, 0
2, 24806, Control_c, 0, 67, 127
2, 24808, Note_on_c, 0, 45, 0
2, 24867, Note_on_c, 0, 69, 0
2, 24867, Note_on_c, 0, 61, 0
2, 24875, Note_on_c, 0, 45, 53
2, 24879, Note_on_c, 0, 73, 0
2, 24900, Note_on_c, 0, 52, 53
2, 24912, Note_on_c, 0, 64, 53
2, 24935, Note_on_c, 0, 61, 50
2, 24935, Note_on_c, 0, 69, 51
2, 24944, Note_on_c, 0, 73, 61
2, 25029, Control_c, 0, 64, 0
2, 25063, Control_c, 0, 67, 0
2, 25080, Note_on_c, 0, 59, 51
2, 25080, Note_on_c, 0, 74, 62
2, 25084, Note_on_c, 0, 62, 51
2, 25086, Note_on_c, 0, 61, 0
2, 25088, Note_on_c, 0, 64, 0
2, 25096, Control_c, 0, 67, 127
2, 25107, Note_on_c, 0, 71, 43
2, 25123, Note_on_c, 0, 73, 0
2, 25123, Control_c, 0, 67, 0
2, 25136, Note_on_c, 0, 69, 0
2, 25146, Note_on_c, 0, 76, 0
2, 25155, Control_c, 0, 67, 127
2, 25184, Control_c, 0, 67, 0
2, 25207, Note_on_c, 0, 59, 0
2, 25207, Note_on_c, 0, 45, 0
2, 25207, Note_on_c, 0, 33, 0
2, 25207, Note_on_c, 0, 71, 0
2, 25207, Note_on_c, 0, 52, 0
2, 25215, Note_on_c, 0, 61, 50
2, 25217, Note_on_c, 0, 64, 49
2, 25217, Control_c, 0, 67, 127
2, 25226, Note_on_c, 0, 73, 64
2, 25226, Note_on_c, 0, 76, 60
2, 25246, Note_on_c, 0, 62, 0
2, 25255, Note_on_c, 0, 74, 0
2, 25292, Note_on_c, 0, 73, 0
2, 25294, Note_on_c, 0, 61, 0
2, 25361, Note_on_c, 0, 57, 50
2, 25361, Note_on_c, 0, 61, 53
2, 25361, Note_on_c, 0, 69, 55
2, 25361, Note_on_c, 0, 73, 51
2, 25388, Note_on_c, 0, 76, 0
2, 25401, Note_on_c, 0, 64, 0
2, 25413, Control_c, 0, 67, 0
2, 25445, Control_c, 0, 67, 127
2, 25447, Control_c, 0, 64, 127
2, 25486, Note_on_c, 0, 61, 0
2, 25486, Note_on_c, 0, 73, 0
2, 25493, Note_on_c, 0, 78, 54
2, 25495, Note_on_c, 0, 62, 54
2, 25505, Note_on_c, 0, 66, 45
2, 25505, Note_on_c, 0, 74, 43
2, 25536, Control_c, 0, 64, 0
2, 25593, Control_c, 0, 67, 0
2, 25626, Control_c, 0, 67, 127
2, 25641, Note_on_c, 0, 62, 0
2, 25647, Note_on_c, 0, 61, 44
2, 25647, Note_on_c, 0, 64, 50
2, 25651, Note_on_c, 0, 74, 0
2, 25656, Note_on_c, 0, 76, 51
2, 25660, Note_on_c, 0, 73, 54
2, 25687, Note_on_c, 0, 66, 0
2, 25689, Note_on_c, 0, 78, 0
2, 25722, Note_on_c, 0, 76, 0
2, 25760, Note_on_c, 0, 73, 0
2, 25768, Note_on_c, 0, 78, 46
2, 25785, Note_on_c, 0, 64, 0
2, 25800, Note_on_c, 0, 76, 55
2, 25814, Note_on_c, 0, 73, 49
2, 25820, Note_on_c, 0, 57, 0
2, 25820, Note_on_c, 0, 69, 0
2, 25820, Note_on_c, 0, 61, 0
2, 25822, Note_on_c, 0, 78, 0
2, 25827, Note_on_c, 0, 52, 46
2, 25831, Control_c, 0, 67, 0
2, 25852, Note_on_c, 0, 64, 49
2, 25864, Control_c, 0, 67, 127
2, 25879, Control_c, 0, 64, 127
2, 25891, Control_c, 0, 67, 0
2, 25923, Control_c, 0, 67, 127
2, 25962, Control_c, 0, 64, 0
2, 26010, Control_c, 0, 67, 0
2, 26042, Control_c, 0, 67, 127
2, 26092, Note_on_c, 0, 76, 0
2, 26094, Note_on_c, 0, 73, 0
2, 26098, Note_on_c, 0, 59, 43
2, 26098, Note_on_c, 0, 74, 47
2, 26100, Note_on_c, 0, 62, 43
2, 26100, Note_on_c, 0, 71, 52
2, 26253, Note_on_c, 0, 62, 0
2, 26253, Note_on_c, 0, 59, 0
2, 26262, Note_on_c, 0, 57, 42
2, 26262, Note_on_c, 0, 61, 44
2, 26264, Note_on_c, 0, 74, 0
2, 26266, Note_on_c, 0, 71, 0
2, 26272, Note_on_c, 0, 73, 54
2, 26274, Note_on_c, 0, 69, 50
2, 26297, Control_c, 0, 64, 127
2, 26299, Control_c, 0, 67, 0
2, 26331, Control_c, 0, 67, 127
2, 26335, Note_on_c, 0, 73, 0
2, 26362, Note_on_c, 0, 64, 0
2, 26362, Note_on_c, 0, 61, 0
2, 26422, Note_on_c, 0, 52, 0
2, 26422, Note_on_c, 0, 57, 0
2, 26422, Note_on_c, 0, 69, 0
2, 26422, Control_c, 0, 64, 0
2, 26427, Note_on_c, 0, 73, 53
2, 26429, Note_on_c, 0, 40, 45
2, 26429, Note_on_c, 0, 61, 44
2, 26429, Note_on_c, 0, 64, 43
2, 26607, Note_on_c, 0, 40, 0
2, 26611, Note_on_c, 0, 59, 42
2, 26615, Note_on_c, 0, 62, 46
2, 26615, Note_on_c, 0, 71, 45
2, 26666, Note_on_c, 0, 73, 0
2, 26666, Note_on_c, 0, 64, 0
2, 26666, Note_on_c, 0, 61, 0
2, 26666, Control_c, 0, 67, 0
2, 26699, Control_c, 0, 67, 127
2, 26730, Control_c, 0, 67, 0
2, 26762, Control_c, 0, 67, 127
2, 26810, Note_on_c, 0, 57, 46
2, 26810, Note_on_c, 0, 61, 41
2, 26812, Note_on_c, 0, 49, 44
2, 26812, Note_on_c, 0, 69, 41
2, 26872, Note_on_c, 0, 62, 0
2, 26883, Note_on_c, 0, 59, 0
2, 26885, Note_on_c, 0, 71, 0
2, 26908, Control_c, 0, 67, 0
2, 26941, Control_c, 0, 67, 127
2, 26972, Control_c, 0, 67, 0
2, 27004, Control_c, 0, 67, 127
2, 27018, Note_on_c, 0, 61, 0
2, 27025, Note_on_c, 0, 47, 45
2, 27025, Note_on_c, 0, 56, 45
2, 27025, Note_on_c, 0, 59, 47
2, 27029, Note_on_c, 0, 68, 43
2, 27068, Note_on_c, 0, 49, 0
2, 27079, Note_on_c, 0, 69, 0
2, 27091, Note_on_c, 0, 57, 0
2, 27209, Control_c, 0, 67, 0
2, 27241, Control_c, 0, 67, 127
2, 27291, Note_on_c, 0, 59, 0
2, 27293, Note_on_c, 0, 47, 0
2, 27293, Note_on_c, 0, 56, 0
2, 27295, Note_on_c, 0, 68, 0
2, 27301, Note_on_c, 0, 33, 46
2, 27312, Note_on_c, 0, 61, 48
2, 27312, Note_on_c, 0, 69, 53
2, 27324, Note_on_c, 0, 40, 48
2, 27324, Note_on_c, 0, 49, 42
2, 27324, Note_on_c, 0, 57, 43
2, 27385, Control_c, 0, 67, 0
2, 27418, Control_c, 0, 67, 127
2, 27615, Note_on_c, 0, 69, 0
2, 27623, Control_c, 0, 64, 127
2, 27623, Note_on_c, 0, 52, 43
2, 27623, Note_on_c, 0, 64, 48
2, 27626, Note_on_c, 0, 57, 0
2, 27711, Control_c, 0, 64, 0
2, 27767, Note_on_c, 0, 61, 0
2, 27778, Control_c, 0, 64, 127
2, 27799, Note_on_c, 0, 57, 48
2, 27799, Note_on_c, 0, 69, 48
2, 27863, Control_c, 0, 67, 0
2, 27876, Note_on_c, 0, 52, 0
2, 27876, Note_on_c, 0, 64, 0
2, 27895, Control_c, 0, 67, 127
2, 27937, Control_c, 0, 64, 0
2, 27968, Note_on_c, 0, 61, 47
2, 27968, Note_on_c, 0, 73, 52
2, 27972, Control_c, 0, 67, 0
2, 28005, Control_c, 0, 67, 127
2, 28030, Control_c, 0, 67, 0
2, 28062, Note_on_c, 0, 56, 48
2, 28062, Control_c, 0, 67, 127
2, 28068, Note_on_c, 0, 61, 0
2, 28072, Note_on_c, 0, 59, 48
2, 28080, Note_on_c, 0, 57, 0
2, 28089, Note_on_c, 0, 69, 0
2, 28089, Note_on_c, 0, 73, 0
2, 28089, Control_c, 0, 67, 0
2, 28091, Note_on_c, 0, 49, 0
2, 28091, Note_on_c, 0, 40, 0
2, 28091, Note_on_c, 0, 33, 0
2, 28099, Note_on_c, 0, 64, 52
2, 28099, Note_on_c, 0, 71, 41
2, 28122, Control_c, 0, 67, 127
2, 28145, Note_on_c, 0, 76, 54
2, 28280, Control_c, 0, 64, 127
2, 28292, Note_on_c, 0, 83, 53
2, 28319, Note_on_c, 0, 71, 0
2, 28328, Control_c, 0, 67, 0
2, 28353, Note_on_c, 0, 76, 0
2, 28363, Control_c, 0, 67, 127
2, 28365, Note_on_c, 0, 59, 0
2, 28367, Note_on_c, 0, 56, 0
2, 28386, Note_on_c, 0, 71, 48
2, 28390, Control_c, 0, 67, 0
2, 28420, Note_on_c, 0, 76, 45
2, 28422, Control_c, 0, 67, 127
2, 28434, Note_on_c, 0, 52, 47
2, 28434, Note_on_c, 0, 56, 44
2, 28434, Note_on_c, 0, 59, 42
2, 28445, Note_on_c, 0, 86, 62
2, 28499, Note_on_c, 0, 83, 0
2, 28592, Note_on_c, 0, 86, 0
2, 28596, Note_on_c, 0, 83, 56
2, 28634, Note_on_c, 0, 76, 0
2, 28636, Note_on_c, 0, 64, 0
2, 28648, Note_on_c, 0, 56, 0
2, 28654, Note_on_c, 0, 57, 46
2, 28667, Note_on_c, 0, 73, 46
2, 28671, Note_on_c, 0, 59, 0
2, 28679, Note_on_c, 0, 61, 48
2, 28688, Note_on_c, 0, 76, 50
2, 28696, Note_on_c, 0, 71, 0
2, 28696, Control_c, 0, 64, 0
2, 28702, Note_on_c, 0, 64, 65
2, 28717, Note_on_c, 0, 52, 0
2, 28717, Note_on_c, 0, 83, 0
2, 28727, Note_on_c, 0, 85, 62
2, 28742, Control_c, 0, 67, 0
2, 28775, Control_c, 0, 67, 127
2, 28803, Control_c, 0, 67, 0
2, 28836, Control_c, 0, 67, 127
2, 28863, Control_c, 0, 67, 0
2, 28871, Note_on_c, 0, 83, 58
2, 28896, Control_c, 0, 67, 127
2, 28901, Note_on_c, 0, 85, 0
2, 28922, Control_c, 0, 67, 0
2, 28955, Control_c, 0, 67, 127
2, 29009, Control_c, 0, 64, 127
2, 29015, Note_on_c, 0, 81, 67
2, 29047, Note_on_c, 0, 83, 0
2, 29105, Control_c, 0, 67, 0
2, 29130, Note_on_c, 0, 57, 0
2, 29151, Note_on_c, 0, 80, 61
2, 29155, Note_on_c, 0, 61, 0
2, 29178, Note_on_c, 0, 73, 0
2, 29178, Note_on_c, 0, 81, 0
2, 29185, Note_on_c, 0, 57, 47
2, 29193, Note_on_c, 0, 64, 0
2, 29218, Control_c, 0, 64, 0
2, 29224, Note_on_c, 0, 61, 42
2, 29239, Note_on_c, 0, 76, 0
2, 29247, Note_on_c, 0, 73, 44
2, 29258, Note_on_c, 0, 64, 60
2, 29278, Note_on_c, 0, 80, 0
2, 29283, Note_on_c, 0, 81, 60
2, 29407, Note_on_c, 0, 76, 53
2, 29424, Control_c, 0, 64, 127
2, 29471, Note_on_c, 0, 76, 0
2, 29486, Note_on_c, 0, 57, 0
2, 29538, Note_on_c, 0, 76, 44
2, 29551, Note_on_c, 0, 52, 46
2, 29551, Note_on_c, 0, 57, 43
2, 29553, Note_on_c, 0, 49, 48
2, 29576, Note_on_c, 0, 85, 54
2, 29592, Note_on_c, 0, 81, 0
2, 29694, Note_on_c, 0, 81, 53
2, 29700, Note_on_c, 0, 52, 0
2, 29756, Note_on_c, 0, 76, 0
2, 29758, Note_on_c, 0, 64, 0
2, 29765, Note_on_c, 0, 52, 44
2, 29771, Note_on_c, 0, 57, 0
2, 29777, Note_on_c, 0, 56, 41
2, 29788, Note_on_c, 0, 68, 43
2, 29792, Note_on_c, 0, 61, 0
2, 29798, Note_on_c, 0, 59, 48
2, 29815, Note_on_c, 0, 73, 0
2, 29817, Note_on_c, 0, 49, 0
2, 29817, Control_c, 0, 64, 0
2, 29823, Note_on_c, 0, 76, 41
2, 29825, Note_on_c, 0, 64, 57
2, 29829, Note_on_c, 0, 85, 0
2, 29836, Note_on_c, 0, 83, 62
2, 29863, Note_on_c, 0, 81, 0
2, 29981, Note_on_c, 0, 81, 56
2, 30024, Note_on_c, 0, 83, 0
2, 30132, Note_on_c, 0, 80, 55
2, 30170, Note_on_c, 0, 81, 0
2, 30265, Note_on_c, 0, 78, 53
2, 30269, Note_on_c, 0, 56, 0
2, 30292, Note_on_c, 0, 59, 0
2, 30296, Note_on_c, 0, 80, 0
2, 30317, Note_on_c, 0, 76, 0
2, 30333, Note_on_c, 0, 64, 0
2, 30338, Note_on_c, 0, 56, 46
2, 30361, Note_on_c, 0, 59, 46
2, 30361, Note_on_c, 0, 71, 47
2, 30386, Note_on_c, 0, 76, 65
2, 30398, Note_on_c, 0, 64, 64
2, 30404, Note_on_c, 0, 78, 0
2, 30484, Control_c, 0, 64, 127
2, 30538, Note_on_c, 0, 83, 62
2, 30544, Note_on_c, 0, 71, 0
2, 30578, Note_on_c, 0, 56, 0
2, 30578, Note_on_c, 0, 76, 0
2, 30580, Note_on_c, 0, 52, 0
2, 30590, Note_on_c, 0, 59, 0
2, 30611, Note_on_c, 0, 71, 48
2, 30630, Note_on_c, 0, 68, 0
2, 30646, Note_on_c, 0, 76, 42
2, 30648, Note_on_c, 0, 52, 47
2, 30648, Note_on_c, 0, 56, 42
2, 30659, Note_on_c, 0, 59, 43
2, 30671, Note_on_c, 0, 86, 59
2, 30745, Note_on_c, 0, 83, 0
2, 30805, Note_on_c, 0, 86, 0
2, 30813, Note_on_c, 0, 83, 63
2, 30864, Note_on_c, 0, 76, 0
2, 30864, Note_on_c, 0, 59, 0
2, 30866, Note_on_c, 0, 56, 0
2, 30866, Note_on_c, 0, 64, 0
2, 30872, Note_on_c, 0, 57, 44
2, 30903, Control_c, 0, 64, 0
2, 30905, Note_on_c, 0, 73, 45
2, 30907, Note_on_c, 0, 61, 46
2, 30922, Note_on_c, 0, 71, 0
2, 30928, Note_on_c, 0, 64, 61
2, 30928, Note_on_c, 0, 76, 45
2, 30945, Note_on_c, 0, 52, 0
2, 30951, Note_on_c, 0, 85, 67
2, 31014, Note_on_c, 0, 83, 0
2, 31080, Note_on_c, 0, 83, 54
2, 31097, Note_on_c, 0, 85, 0
2, 31215, Note_on_c, 0, 81, 49
2, 31230, Note_on_c, 0, 83, 0
2, 31253, Control_c, 0, 64, 127
2, 31346, Note_on_c, 0, 80, 47
2, 31350, Note_on_c, 0, 57, 0
2, 31364, Note_on_c, 0, 73, 0
2, 31364, Note_on_c, 0, 81, 0
2, 31373, Note_on_c, 0, 61, 0
2, 31412, Note_on_c, 0, 64, 0
2, 31421, Note_on_c, 0, 57, 42
2, 31427, Control_c, 0, 64, 0
2, 31431, Note_on_c, 0, 73, 43
2, 31444, Note_on_c, 0, 61, 43
2, 31448, Note_on_c, 0, 76, 0
2, 31475, Note_on_c, 0, 80, 0
2, 31481, Note_on_c, 0, 64, 52
2, 31481, Note_on_c, 0, 81, 53
2, 31641, Note_on_c, 0, 76, 51
2, 31656, Control_c, 0, 64, 127
2, 31691, Note_on_c, 0, 76, 0
2, 31701, Note_on_c, 0, 69, 48
2, 31716, Note_on_c, 0, 57, 0
2, 31756, Note_on_c, 0, 76, 44
2, 31785, Note_on_c, 0, 52, 46
2, 31785, Note_on_c, 0, 57, 42
2, 31787, Note_on_c, 0, 49, 49
2, 31810, Note_on_c, 0, 85, 51
2, 31873, Note_on_c, 0, 81, 0
2, 31923, Control_c, 0, 64, 0
2, 31939, Note_on_c, 0, 81, 55
2, 31969, Note_on_c, 0, 85, 0
2, 31969, Note_on_c, 0, 52, 0
2, 32037, Note_on_c, 0, 52, 42
2, 32062, Note_on_c, 0, 76, 0
2, 32064, Note_on_c, 0, 64, 0
2, 32064, Note_on_c, 0, 57, 0
2, 32071, Note_on_c, 0, 56, 48
2, 32087, Note_on_c, 0, 61, 0
2, 32087, Note_on_c, 0, 69, 0
2, 32092, Note_on_c, 0, 59, 48
2, 32094, Note_on_c, 0, 68, 45
2, 32112, Note_on_c, 0, 49, 0
2, 32123, Note_on_c, 0, 81, 0
2, 32123, Note_on_c, 0, 73, 0
2, 32131, Note_on_c, 0, 64, 47
2, 32131, Note_on_c, 0, 76, 51
2, 32152, Note_on_c, 0, 83, 61
2, 32700, Note_on_c, 0, 56, 0
2, 32708, Note_on_c, 0, 57, 42
2, 32735, Note_on_c, 0, 59, 0
2, 32736, Note_on_c, 0, 52, 0
2, 32742, Note_on_c, 0, 61, 57
2, 32760, Note_on_c, 0, 76, 0
2, 32763, Note_on_c, 0, 83, 0
2, 32763, Note_on_c, 0, 68, 0
2, 32769, Note_on_c, 0, 73, 61
2, 32781, Note_on_c, 0, 69, 48
2, 32784, Note_on_c, 0, 73, 0
2, 32802, Note_on_c, 0, 74, 50
2, 32819, Note_on_c, 0, 74, 0
2, 32827, Note_on_c, 0, 73, 54
2, 32844, Note_on_c, 0, 73, 0
2, 32861, Note_on_c, 0, 74, 49
2, 32890, Note_on_c, 0, 74, 0
2, 32900, Note_on_c, 0, 73, 43
2, 32917, Note_on_c, 0, 57, 0
2, 32925, Note_on_c, 0, 56, 48
2, 32928, Note_on_c, 0, 69, 0
2, 32928, Note_on_c, 0, 73, 0
2, 32934, Note_on_c, 0, 59, 54
2, 32936, Note_on_c, 0, 71, 56
2, 32948, Note_on_c, 0, 68, 45
2, 32961, Note_on_c, 0, 61, 0
2, 33087, Note_on_c, 0, 56, 0
2, 33089, Note_on_c, 0, 68, 0
2, 33093, Note_on_c, 0, 73, 65
2, 33095, Note_on_c, 0, 57, 44
2, 33095, Note_on_c, 0, 61, 44
2, 33106, Note_on_c, 0, 69, 44
2, 33121, Note_on_c, 0, 59, 0
2, 33123, Note_on_c, 0, 71, 0
2, 33228, Note_on_c, 0, 57, 0
2, 33228, Note_on_c, 0, 69, 0
2, 33234, Note_on_c, 0, 59, 44
2, 33234, Note_on_c, 0, 74, 61
2, 33236, Note_on_c, 0, 62, 47
2, 33247, Note_on_c, 0, 71, 46
2, 33263, Note_on_c, 0, 61, 0
2, 33263, Note_on_c, 0, 73, 0
2, 33307, Note_on_c, 0, 59, 0
2, 33307, Note_on_c, 0, 71, 0
2, 33320, Note_on_c, 0, 64, 0
2, 33328, Note_on_c, 0, 45, 43
2, 33355, Note_on_c, 0, 74, 0
2, 33362, Note_on_c, 0, 73, 65
2, 33362, Note_on_c, 0, 76, 64
2, 33364, Note_on_c, 0, 52, 47
2, 33376, Note_on_c, 0, 61, 41
2, 33376, Note_on_c, 0, 64, 42
2, 33414, Note_on_c, 0, 62, 0
2, 33458, Control_c, 0, 64, 127
2, 33489, Note_on_c, 0, 81, 66
2, 33503, Note_on_c, 0, 57, 47
2, 33503, Note_on_c, 0, 66, 42
2, 33503, Note_on_c, 0, 69, 45
2, 33503, Note_on_c, 0, 78, 46
2, 33562, Note_on_c, 0, 76, 0
2, 33585, Note_on_c, 0, 64, 0
2, 33599, Control_c, 0, 64, 0
2, 33610, Note_on_c, 0, 78, 0
2, 33620, Note_on_c, 0, 73, 0
2, 33629, Note_on_c, 0, 80, 56
2, 33633, Note_on_c, 0, 66, 0
2, 33637, Note_on_c, 0, 76, 48
2, 33639, Note_on_c, 0, 64, 45
2, 33639, Note_on_c, 0, 68, 48
2, 33643, Note_on_c, 0, 52, 0
2, 33643, Note_on_c, 0, 61, 0
2, 33647, Note_on_c, 0, 45, 0
2, 33658, Note_on_c, 0, 69, 0
2, 33670, Note_on_c, 0, 81, 0
2, 33752, Note_on_c, 0, 76, 0
2, 33754, Note_on_c, 0, 64, 0
2, 33773, Note_on_c, 0, 78, 45
2, 33787, Note_on_c, 0, 62, 44
2, 33787, Note_on_c, 0, 66, 44
2, 33787, Note_on_c, 0, 74, 46
2, 33806, Note_on_c, 0, 80, 0
2, 33829, Note_on_c, 0, 68, 0
2, 33865, Note_on_c, 0, 66, 0
2, 33865, Note_on_c, 0, 57, 0
2, 33865, Note_on_c, 0, 62, 0
2, 33865, Note_on_c, 0, 74, 0
2, 33900, Note_on_c, 0, 61, 56
2, 33912, Note_on_c, 0, 73, 48
2, 33913, Note_on_c, 0, 69, 45
2, 33925, Note_on_c, 0, 45, 56
2, 33927, Note_on_c, 0, 33, 54
2, 33936, Note_on_c, 0, 76, 63
2, 33944, Note_on_c, 0, 78, 0
2, 33956, Note_on_c, 0, 45, 0
2, 33956, Note_on_c, 0, 33, 0
2, 33981, Note_on_c, 0, 61, 0
2, 33981, Note_on_c, 0, 73, 0
2, 33983, Note_on_c, 0, 69, 0
2, 34056, Note_on_c, 0, 76, 0
2, 34065, Note_on_c, 0, 49, 55
2, 34077, Note_on_c, 0, 37, 58
2, 34094, Note_on_c, 0, 49, 0
2, 34107, Note_on_c, 0, 37, 0
2, 34173, Note_on_c, 0, 61, 47
2, 34200, Note_on_c, 0, 69, 55
2, 34203, Note_on_c, 0, 61, 0
2, 34211, Note_on_c, 0, 40, 53
2, 34211, Note_on_c, 0, 73, 59
2, 34221, Note_on_c, 0, 76, 55
2, 34223, Note_on_c, 0, 52, 57
2, 34226, Note_on_c, 0, 69, 0
2, 34238, Note_on_c, 0, 40, 0
2, 34238, Note_on_c, 0, 73, 0
2, 34249, Note_on_c, 0, 52, 0
2, 34343, Note_on_c, 0, 45, 54
2, 34346, Note_on_c, 0, 76, 0
2, 34354, Note_on_c, 0, 57, 55
2, 34369, Note_on_c, 0, 45, 0
2, 34383, Note_on_c, 0, 57, 0
2, 34439, Note_on_c, 0, 61, 48
2, 34462, Note_on_c, 0, 69, 42
2, 34485, Note_on_c, 0, 73, 42
2, 34496, Note_on_c, 0, 76, 63
2, 34498, Note_on_c, 0, 33, 48
2, 34506, Note_on_c, 0, 45, 52
2, 34565, Control_c, 0, 64, 127
2, 34642, Note_on_c, 0, 45, 0
2, 34677, Note_on_c, 0, 61, 0
2, 34679, Note_on_c, 0, 69, 0
2, 34702, Note_on_c, 0, 73, 0
2, 34707, Note_on_c, 0, 45, 48
2, 34719, Note_on_c, 0, 52, 48
2, 34732, Note_on_c, 0, 64, 47
2, 34742, Note_on_c, 0, 61, 48
2, 34742, Note_on_c, 0, 69, 42
2, 34767, Note_on_c, 0, 73, 56
2, 34898, Note_on_c, 0, 59, 52
2, 34904, Note_on_c, 0, 69, 0
2, 34904, Note_on_c, 0, 76, 0
2, 34904, Note_on_c, 0, 64, 0
2, 34910, Note_on_c, 0, 74, 58
2, 34912, Note_on_c, 0, 62, 54
2, 34923, Note_on_c, 0, 71, 44
2, 34927, Note_on_c, 0, 73, 0
2, 34927, Note_on_c, 0, 61, 0
2, 35032, Note_on_c, 0, 52, 0
2, 35032, Note_on_c, 0, 45, 0
2, 35032, Control_c, 0, 64, 0
2, 35034, Note_on_c, 0, 33, 0
2, 35040, Note_on_c, 0, 61, 49
2, 35040, Note_on_c, 0, 76, 60
2, 35041, Note_on_c, 0, 64, 51
2, 35051, Note_on_c, 0, 73, 42
2, 35066, Note_on_c, 0, 74, 0
2, 35068, Note_on_c, 0, 71, 0
2, 35078, Note_on_c, 0, 59, 0
2, 35080, Note_on_c, 0, 62, 0
2, 35107, Note_on_c, 0, 61, 0
2, 35107, Note_on_c, 0, 73, 0
2, 35174, Note_on_c, 0, 73, 55
2, 35187, Note_on_c, 0, 57, 54
2, 35187, Note_on_c, 0, 61, 49
2, 35187, Note_on_c, 0, 69, 49
2, 35216, Note_on_c, 0, 76, 0
2, 35241, Note_on_c, 0, 64, 0
2, 35320, Note_on_c, 0, 78, 53
2, 35329, Note_on_c, 0, 74, 41
2, 35331, Note_on_c, 0, 62, 48
2, 35331, Note_on_c, 0, 66, 42
2, 35337, Note_on_c, 0, 61, 0
2, 35345, Control_c, 0, 64, 127
2, 35381, Note_on_c, 0, 73, 0
2, 35406, Control_c, 0, 64, 0
2, 35452, Note_on_c, 0, 66, 0
2, 35452, Note_on_c, 0, 62, 0
2, 35460, Note_on_c, 0, 61, 45
2, 35460, Note_on_c, 0, 64, 41
2, 35475, Note_on_c, 0, 74, 0
2, 35477, Note_on_c, 0, 78, 0
2, 35483, Note_on_c, 0, 76, 51
2, 35495, Note_on_c, 0, 73, 45
2, 35548, Note_on_c, 0, 73, 0
2, 35548, Note_on_c, 0, 76, 0
2, 35581, Note_on_c, 0, 78, 42
2, 35596, Note_on_c, 0, 64, 0
2, 35614, Note_on_c, 0, 73, 55
2, 35614, Note_on_c, 0, 76, 56
2, 35627, Note_on_c, 0, 52, 48
2, 35633, Note_on_c, 0, 69, 0
2, 35633, Note_on_c, 0, 78, 0
2, 35633, Note_on_c, 0, 57, 0
2, 35633, Note_on_c, 0, 61, 0
2, 35687, Note_on_c, 0, 64, 47
2, 35700, Control_c, 0, 64, 127
2, 35784, Control_c, 0, 64, 0
2, 35901, Note_on_c, 0, 76, 0
2, 35903, Note_on_c, 0, 73, 0
2, 35908, Note_on_c, 0, 74, 47
2, 35910, Note_on_c, 0, 59, 42
2, 35912, Note_on_c, 0, 62, 44
2, 35912, Note_on_c, 0, 71, 52
2, 35974, Control_c, 0, 67, 127
2, 36000, Control_c, 0, 67, 0
2, 36033, Control_c, 0, 67, 127
2, 36077, Note_on_c, 0, 73, 51
2, 36081, Note_on_c, 0, 59, 0
2, 36089, Note_on_c, 0, 57, 47
2, 36089, Note_on_c, 0, 61, 46
2, 36089, Note_on_c, 0, 69, 52
2, 36118, Note_on_c, 0, 62, 0
2, 36127, Note_on_c, 0, 74, 0
2, 36129, Note_on_c, 0, 71, 0
2, 36179, Control_c, 0, 67, 0
2, 36189, Note_on_c, 0, 61, 0
2, 36189, Note_on_c, 0, 73, 0
2, 36189, Note_on_c, 0, 64, 0
2, 36200, Note_on_c, 0, 52, 0
2, 36214, Control_c, 0, 67, 127
2, 36252, Note_on_c, 0, 57, 0
2, 36254, Note_on_c, 0, 69, 0
2, 36260, Note_on_c, 0, 40, 45
2, 36260, Note_on_c, 0, 61, 41
2, 36260, Note_on_c, 0, 64, 43
2, 36260, Note_on_c, 0, 73, 49
2, 36271, Note_on_c, 0, 52, 48
2, 36304, Control_c, 0, 67, 0
2, 36310, Control_c, 0, 64, 127
2, 36338, Control_c, 0, 67, 127
2, 36363, Control_c, 0, 64, 0
2, 36365, Control_c, 0, 67, 0
2, 36400, Control_c, 0, 67, 127
2, 36438, Note_on_c, 0, 52, 0
2, 36438, Note_on_c, 0, 40, 0
2, 36444, Note_on_c, 0, 59, 41
2, 36446, Note_on_c, 0, 62, 43
2, 36446, Note_on_c, 0, 71, 47
2, 36486, Note_on_c, 0, 61, 0
2, 36486, Note_on_c, 0, 73, 0
2, 36486, Note_on_c, 0, 64, 0
2, 36488, Control_c, 0, 67, 0
2, 36523, Control_c, 0, 67, 127
2, 36609, Control_c, 0, 67, 0
2, 36640, Note_on_c, 0, 69, 43
2, 36642, Control_c, 0, 67, 127
2, 36649, Note_on_c, 0, 61, 42
2, 36651, Note_on_c, 0, 57, 46
2, 36653, Note_on_c, 0, 49, 46
2, 36680, Note_on_c, 0, 71, 0
2, 36690, Note_on_c, 0, 59, 0
2, 36692, Note_on_c, 0, 62, 0
2, 36728, Control_c, 0, 67, 0
2, 36761, Control_c, 0, 67, 127
2, 36790, Control_c, 0, 67, 0
2, 36822, Control_c, 0, 67, 127
2, 36845, Note_on_c, 0, 68, 43
2, 36853, Note_on_c, 0, 47, 44
2, 36853, Note_on_c, 0, 59, 43
2, 36855, Note_on_c, 0, 56, 48
2, 36893, Note_on_c, 0, 69, 0
2, 36905, Note_on_c, 0, 61, 0
2, 36905, Note_on_c, 0, 57, 0
2, 36907, Note_on_c, 0, 49, 0
2, 37044, Note_on_c, 0, 33, 43
2, 37123, Note_on_c, 0, 47, 0
2, 37123, Note_on_c, 0, 56, 0
2, 37123, Note_on_c, 0, 59, 0
2, 37130, Note_on_c, 0, 40, 47
2, 37163, Note_on_c, 0, 68, 0
2, 37169, Note_on_c, 0, 57, 45
2, 37169, Note_on_c, 0, 61, 44
2, 37171, Note_on_c, 0, 69, 52
2, 37180, Note_on_c, 0, 49, 41
2, 37211, Control_c, 0, 67, 0
2, 37244, Control_c, 0, 67, 127
2, 37805, Control_c, 0, 67, 0
2, 37838, Control_c, 0, 67, 127
2, 37859, Control_c, 0, 64, 127
2, 37926, Control_c, 0, 67, 0
2, 37959, Control_c, 0, 67, 127
2, 38054, Control_c, 0, 64, 0
2, 38067, Note_on_c, 0, 69, 0
2, 38081, Note_on_c, 0, 40, 0
2, 38081, Note_on_c, 0, 57, 0
2, 38081, Note_on_c, 0, 33, 0
2, 38081, Note_on_c, 0, 49, 0
2, 38081, Note_on_c, 0, 61, 0
2, 38291, Control_c, 0, 67, 0
2, 38324, Control_c, 0, 67, 127
2, 38352, Control_c, 0, 67, 0
2, 38383, Note_on_c, 0, 69, 44
2, 38385, Control_c, 0, 67, 127
2, 38431, Control_c, 0, 64, 127
2, 38468, Note_on_c, 0, 84, 64
2, 38481, Control_c, 0, 64, 0
2, 38495, Note_on_c, 0, 69, 0
2, 38533, Control_c, 0, 67, 0
2, 38566, Control_c, 0, 67, 127
2, 38592, Control_c, 0, 67, 0
2, 38625, Control_c, 0, 67, 127
2, 38633, Note_on_c, 0, 76, 44
2, 38664, Note_on_c, 0, 76, 0
2, 38780, Note_on_c, 0, 81, 65
2, 38791, Note_on_c, 0, 72, 45
2, 38820, Note_on_c, 0, 72, 0
2, 38822, Note_on_c, 0, 84, 0
2, 38925, Note_on_c, 0, 69, 45
2, 38953, Note_on_c, 0, 69, 0
2, 38953, Control_c, 0, 67, 0
2, 38986, Control_c, 0, 67, 127
2, 39013, Control_c, 0, 67, 0
2, 39046, Control_c, 0, 67, 127
2, 39069, Note_on_c, 0, 40, 49
2, 39071, Note_on_c, 0, 80, 64
2, 39074, Control_c, 0, 67, 0
2, 39082, Note_on_c, 0, 52, 51
2, 39082, Note_on_c, 0, 71, 45
2, 39086, Note_on_c, 0, 81, 0
2, 39107, Control_c, 0, 67, 127
2, 39109, Note_on_c, 0, 71, 0
2, 39136, Control_c, 0, 67, 0
2, 39168, Control_c, 0, 67, 127
2, 39195, Control_c, 0, 67, 0
2, 39213, Note_on_c, 0, 74, 43
2, 39228, Control_c, 0, 67, 127
2, 39243, Note_on_c, 0, 74, 0
2, 39316, Note_on_c, 0, 52, 0
2, 39316, Note_on_c, 0, 40, 0
2, 39357, Note_on_c, 0, 71, 46
2, 39376, Control_c, 0, 67, 0
2, 39385, Note_on_c, 0, 71, 0
2, 39408, Control_c, 0, 67, 127
2, 39495, Note_on_c, 0, 68, 46
2, 39499, Control_c, 0, 67, 0
2, 39524, Note_on_c, 0, 68, 0
2, 39531, Control_c, 0, 67, 127
2, 39560, Note_on_c, 0, 80, 0
2, 39577, Control_c, 0, 64, 127
2, 39627, Control_c, 0, 64, 0
2, 39627, Note_on_c, 0, 80, 70
2, 39637, Note_on_c, 0, 64, 45
2, 39666, Note_on_c, 0, 64, 0
2, 39739, Control_c, 0, 67, 0
2, 39760, Note_on_c, 0, 68, 42
2, 39771, Control_c, 0, 67, 127
2, 39789, Note_on_c, 0, 68, 0
2, 39888, Note_on_c, 0, 76, 62
2, 39901, Note_on_c, 0, 71, 45
2, 39916, Control_c, 0, 67, 0
2, 39928, Note_on_c, 0, 71, 0
2, 39930, Note_on_c, 0, 80, 0
2, 39951, Control_c, 0, 67, 127
2, 40016, Note_on_c, 0, 74, 43
2, 40045, Note_on_c, 0, 74, 0
2, 40150, Note_on_c, 0, 81, 65
2, 40155, Control_c, 0, 67, 0
2, 40161, Note_on_c, 0, 45, 43
2, 40163, Note_on_c, 0, 72, 41
2, 40173, Note_on_c, 0, 33, 46
2, 40188, Control_c, 0, 67, 127
2, 40190, Note_on_c, 0, 72, 0
2, 40201, Note_on_c, 0, 76, 0
2, 40293, Note_on_c, 0, 69, 44
2, 40321, Note_on_c, 0, 69, 0
2, 40335, Control_c, 0, 67, 0
2, 40368, Control_c, 0, 67, 127
2, 40408, Note_on_c, 0, 33, 0
2, 40408, Note_on_c, 0, 45, 0
2, 40429, Note_on_c, 0, 64, 45
2, 40456, Note_on_c, 0, 64, 0
2, 40456, Control_c, 0, 67, 0
2, 40488, Control_c, 0, 67, 127
2, 40560, Note_on_c, 0, 62, 47
2, 40586, Note_on_c, 0, 62, 0
2, 40695, Note_on_c, 0, 81, 0
2, 40701, Note_on_c, 0, 76, 61
2, 40703, Note_on_c, 0, 60, 42
2, 40731, Note_on_c, 0, 60, 0
2, 40830, Note_on_c, 0, 64, 46
2, 40859, Note_on_c, 0, 64, 0
2, 40930, Control_c, 0, 67, 0
2, 40947, Note_on_c, 0, 57, 42
2, 40961, Note_on_c, 0, 72, 53
2, 40963, Control_c, 0, 67, 127
2, 40978, Note_on_c, 0, 57, 0
2, 40988, Note_on_c, 0, 76, 0
2, 40990, Control_c, 0, 67, 0
2, 41022, Control_c, 0, 67, 127
2, 41049, Control_c, 0, 67, 0
2, 41082, Control_c, 0, 67, 127
2, 41084, Note_on_c, 0, 60, 46
2, 41111, Note_on_c, 0, 60, 0
2, 41164, Note_on_c, 0, 62, 45
2, 41187, Control_c, 0, 64, 127
2, 41193, Note_on_c, 0, 62, 0
2, 41235, Note_on_c, 0, 77, 72
2, 41249, Note_on_c, 0, 38, 57
2, 41258, Note_on_c, 0, 50, 56
2, 41274, Note_on_c, 0, 72, 0
2, 41276, Control_c, 0, 64, 0
2, 41347, Control_c, 0, 67, 0
2, 41366, Note_on_c, 0, 74, 45
2, 41379, Control_c, 0, 67, 127
2, 41383, Note_on_c, 0, 50, 0
2, 41385, Note_on_c, 0, 38, 0
2, 41395, Note_on_c, 0, 74, 0
2, 41408, Control_c, 0, 67, 0
2, 41441, Control_c, 0, 67, 127
2, 41470, Control_c, 0, 67, 0
2, 41502, Control_c, 0, 67, 127
2, 41514, Note_on_c, 0, 71, 45
2, 41531, Control_c, 0, 67, 0
2, 41543, Note_on_c, 0, 71, 0
2, 41564, Control_c, 0, 67, 127
2, 41594, Control_c, 0, 67, 0
2, 41627, Control_c, 0, 67, 127
2, 41639, Note_on_c, 0, 69, 42
2, 41654, Control_c, 0, 67, 0
2, 41667, Note_on_c, 0, 69, 0
2, 41687, Control_c, 0, 67, 127
2, 41780, Note_on_c, 0, 76, 62
2, 41784, Note_on_c, 0, 40, 53
2, 41793, Note_on_c, 0, 52, 50
2, 41795, Note_on_c, 0, 68, 41
2, 41822, Note_on_c, 0, 68, 0
2, 41832, Note_on_c, 0, 77, 0
2, 41908, Note_on_c, 0, 52, 0
2, 41908, Note_on_c, 0, 40, 0
2, 41914, Note_on_c, 0, 71, 45
2, 41943, Note_on_c, 0, 71, 0
2, 41956, Control_c, 0, 67, 0
2, 41989, Control_c, 0, 67, 127
2, 42048, Note_on_c, 0, 64, 47
2, 42077, Note_on_c, 0, 64, 0
2, 42137, Control_c, 0, 67, 0
2, 42169, Control_c, 0, 67, 127
2, 42171, Note_on_c, 0, 68, 46
2, 42181, Note_on_c, 0, 33, 42
2, 42200, Note_on_c, 0, 68, 0
2, 42258, Control_c, 0, 67, 0
2, 42277, Note_on_c, 0, 45, 47
2, 42290, Control_c, 0, 67, 127
2, 42292, Note_on_c, 0, 76, 0
2, 42296, Note_on_c, 0, 33, 0
2, 42298, Note_on_c, 0, 72, 56
2, 42302, Control_c, 0, 64, 127
2, 42312, Note_on_c, 0, 69, 43
2, 42340, Note_on_c, 0, 69, 0
2, 42386, Note_on_c, 0, 45, 0
2, 42409, Control_c, 0, 64, 0
2, 42442, Note_on_c, 0, 57, 47
2, 42492, Control_c, 0, 67, 0
2, 42525, Control_c, 0, 67, 127
2, 42553, Control_c, 0, 67, 0
2, 42586, Control_c, 0, 67, 127
2, 42598, Note_on_c, 0, 69, 48
2, 42609, Note_on_c, 0, 60, 44
2, 42649, Note_on_c, 0, 72, 0
2, 42672, Note_on_c, 0, 69, 0
2, 42672, Control_c, 0, 67, 0
2, 42705, Control_c, 0, 67, 127
2, 42728, Note_on_c, 0, 64, 46
2, 42732, Control_c, 0, 67, 0
2, 42765, Control_c, 0, 67, 127
2, 42851, Control_c, 0, 67, 0
2, 42861, Note_on_c, 0, 69, 41
2, 42874, Note_on_c, 0, 84, 65
2, 42884, Control_c, 0, 67, 127
2, 42889, Note_on_c, 0, 69, 0
2, 42889, Note_on_c, 0, 64, 0
2, 42889, Note_on_c, 0, 60, 0
2, 42889, Note_on_c, 0, 57, 0
2, 42976, Note_on_c, 0, 76, 48
2, 43003, Note_on_c, 0, 76, 0
2, 43109, Note_on_c, 0, 81, 62
2, 43121, Note_on_c, 0, 72, 48
2, 43148, Note_on_c, 0, 72, 0
2, 43150, Note_on_c, 0, 84, 0
2, 43209, Control_c, 0, 67, 0
2, 43242, Control_c, 0, 67, 127
2, 43263, Note_on_c, 0, 69, 42
2, 43292, Note_on_c, 0, 69, 0
2, 43324, Control_c, 0, 67, 0
2, 43357, Control_c, 0, 67, 127
2, 43368, Note_on_c, 0, 77, 60
2, 43384, Control_c, 0, 67, 0
2, 43392, Note_on_c, 0, 74, 41
2, 43393, Note_on_c, 0, 38, 47
2, 43397, Note_on_c, 0, 81, 0
2, 43407, Control_c, 0, 64, 127
2, 43416, Control_c, 0, 67, 127
2, 43443, Control_c, 0, 67, 0
2, 43476, Control_c, 0, 67, 127
2, 43478, Note_on_c, 0, 74, 0
2, 43501, Control_c, 0, 67, 0
2, 43524, Note_on_c, 0, 69, 48
2, 43536, Control_c, 0, 67, 127
2, 43551, Note_on_c, 0, 69, 0
2, 43553, Control_c, 0, 64, 0
2, 43562, Control_c, 0, 67, 0
2, 43595, Control_c, 0, 67, 127
2, 43622, Control_c, 0, 67, 0
2, 43643, Note_on_c, 0, 62, 54
2, 43649, Note_on_c, 0, 38, 0
2, 43655, Control_c, 0, 67, 127
2, 43674, Note_on_c, 0, 62, 0
2, 43695, Control_c, 0, 67, 0
2, 43729, Control_c, 0, 67, 127
2, 43774, Control_c, 0, 67, 0
2, 43781, Note_on_c, 0, 72, 42
2, 43806, Control_c, 0, 67, 127
2, 43835, Control_c, 0, 67, 0
2, 43847, Note_on_c, 0, 72, 0
2, 43868, Control_c, 0, 67, 127
2, 43872, Note_on_c, 0, 77, 0
2, 43896, Control_c, 0, 67, 0
2, 43929, Control_c, 0, 67, 127
2, 43941, Note_on_c, 0, 79, 53
2, 43958, Control_c, 0, 67, 0
2, 43966, Note_on_c, 0, 71, 44
2, 43968, Note_on_c, 0, 31, 47
2, 43968, Note_on_c, 0, 43, 45
2, 43983, Control_c, 0, 64, 127
2, 43991, Control_c, 0, 67, 127
2, 44017, Control_c, 0, 67, 0
2, 44050, Control_c, 0, 67, 127
2, 44069, Note_on_c, 0, 31, 0
2, 44140, Note_on_c, 0, 71, 0
2, 44144, Note_on_c, 0, 74, 46
2, 44171, Note_on_c, 0, 74, 0
2, 44196, Control_c, 0, 67, 0
2, 44229, Control_c, 0, 67, 127
2, 44256, Control_c, 0, 67, 0
2, 44257, Control_c, 0, 64, 0
2, 44275, Note_on_c, 0, 74, 53
2, 44288, Control_c, 0, 67, 127
2, 44300, Note_on_c, 0, 71, 41
2, 44315, Control_c, 0, 67, 0
2, 44328, Note_on_c, 0, 71, 0
2, 44328, Note_on_c, 0, 79, 0
2, 44350, Control_c, 0, 67, 127
2, 44423, Note_on_c, 0, 67, 42
2, 44451, Note_on_c, 0, 67, 0
2, 44534, Note_on_c, 0, 43, 0
2, 44540, Note_on_c, 0, 48, 48
2, 44542, Note_on_c, 0, 74, 0
2, 44549, Note_on_c, 0, 76, 53
2, 44555, Control_c, 0, 67, 0
2, 44563, Note_on_c, 0, 72, 47
2, 44565, Note_on_c, 0, 36, 47
2, 44588, Control_c, 0, 67, 127
2, 44605, Control_c, 0, 64, 127
2, 44615, Control_c, 0, 67, 0
2, 44647, Control_c, 0, 67, 127
2, 44707, Note_on_c, 0, 67, 45
2, 44734, Control_c, 0, 67, 0
2, 44736, Note_on_c, 0, 67, 0
2, 44760, Control_c, 0, 64, 0
2, 44766, Control_c, 0, 67, 127
2, 44785, Note_on_c, 0, 48, 0
2, 44785, Note_on_c, 0, 36, 0
2, 44828, Note_on_c, 0, 60, 46
2, 44855, Note_on_c, 0, 60, 0
2, 44957, Note_on_c, 0, 62, 41
2, 44971, Control_c, 0, 67, 0
2, 44982, Note_on_c, 0, 62, 0
2, 45003, Control_c, 0, 67, 127
2, 45030, Control_c, 0, 67, 0
2, 45063, Control_c, 0, 67, 127
2, 45088, Note_on_c, 0, 64, 49
2, 45092, Note_on_c, 0, 76, 0
2, 45092, Control_c, 0, 67, 0
2, 45099, Note_on_c, 0, 79, 60
2, 45117, Note_on_c, 0, 64, 0
2, 45124, Control_c, 0, 67, 127
2, 45151, Control_c, 0, 67, 0
2, 45184, Control_c, 0, 67, 127
2, 45201, Note_on_c, 0, 72, 0
2, 45209, Note_on_c, 0, 67, 43
2, 45211, Control_c, 0, 67, 0
2, 45245, Control_c, 0, 67, 127
2, 45272, Control_c, 0, 67, 0
2, 45274, Note_on_c, 0, 67, 0
2, 45305, Control_c, 0, 67, 127
2, 45339, Note_on_c, 0, 76, 59
2, 45343, Note_on_c, 0, 60, 46
2, 45370, Note_on_c, 0, 60, 0
2, 45382, Note_on_c, 0, 79, 0
2, 45393, Control_c, 0, 67, 0
2, 45426, Control_c, 0, 67, 127
2, 45460, Note_on_c, 0, 64, 44
2, 45487, Note_on_c, 0, 64, 0
2, 45566, Note_on_c, 0, 65, 44
2, 45568, Control_c, 0, 67, 0
2, 45593, Note_on_c, 0, 76, 0
2, 45600, Note_on_c, 0, 81, 66
2, 45600, Control_c, 0, 67, 127
2, 45602, Control_c, 0, 64, 127
2, 45612, Note_on_c, 0, 53, 52
2, 45614, Note_on_c, 0, 41, 51
2, 45629, Note_on_c, 0, 65, 0
2, 45728, Note_on_c, 0, 72, 43
2, 45744, Control_c, 0, 67, 0
2, 45770, Control_c, 0, 64, 0
2, 45776, Control_c, 0, 67, 127
2, 45792, Note_on_c, 0, 72, 0
2, 45870, Note_on_c, 0, 71, 46
2, 45934, Note_on_c, 0, 71, 0
2, 45980, Control_c, 0, 67, 0
2, 46012, Note_on_c, 0, 69, 54
2, 46012, Control_c, 0, 67, 127
2, 46043, Note_on_c, 0, 69, 0
2, 46128, Note_on_c, 0, 53, 0
2, 46129, Note_on_c, 0, 41, 0
2, 46147, Note_on_c, 0, 71, 59
2, 46160, Note_on_c, 0, 43, 48
2, 46160, Note_on_c, 0, 55, 42
2, 46160, Note_on_c, 0, 67, 44
2, 46176, Control_c, 0, 67, 0
2, 46177, Note_on_c, 0, 81, 0
2, 46191, Note_on_c, 0, 67, 0
2, 46200, Control_c, 0, 64, 127
2, 46208, Control_c, 0, 67, 127
2, 46237, Control_c, 0, 67, 0
2, 46272, Control_c, 0, 67, 127
2, 46287, Note_on_c, 0, 65, 47
2, 46300, Control_c, 0, 67, 0
2, 46316, Note_on_c, 0, 65, 0
2, 46318, Control_c, 0, 64, 0
2, 46333, Control_c, 0, 67, 127
2, 46364, Control_c, 0, 67, 0
2, 46396, Control_c, 0, 67, 127
2, 46423, Control_c, 0, 67, 0
2, 46433, Note_on_c, 0, 64, 41
2, 46458, Control_c, 0, 67, 127
2, 46462, Note_on_c, 0, 64, 0
2, 46485, Control_c, 0, 67, 0
2, 46517, Control_c, 0, 67, 127
2, 46569, Note_on_c, 0, 62, 46
2, 46584, Note_on_c, 0, 62, 0
2, 46681, Note_on_c, 0, 55, 0
2, 46683, Note_on_c, 0, 43, 0
2, 46691, Note_on_c, 0, 48, 46
2, 46693, Note_on_c, 0, 71, 0
2, 46701, Note_on_c, 0, 72, 54
2, 46716, Note_on_c, 0, 36, 45
2, 46726, Note_on_c, 0, 64, 47
2, 46754, Control_c, 0, 64, 127
2, 46829, Control_c, 0, 64, 0
2, 46887, Note_on_c, 0, 72, 0
2, 46893, Note_on_c, 0, 74, 42
2, 46956, Note_on_c, 0, 74, 0
2, 47014, Control_c, 0, 67, 0
2, 47035, Note_on_c, 0, 72, 41
2, 47048, Control_c, 0, 67, 127
2, 47098, Note_on_c, 0, 72, 0
2, 47135, Control_c, 0, 67, 0
2, 47167, Control_c, 0, 67, 127
2, 47181, Note_on_c, 0, 71, 42
2, 47219, Note_on_c, 0, 71, 0
2, 47254, Control_c, 0, 67, 0
2, 47286, Control_c, 0, 67, 127
2, 47298, Note_on_c, 0, 69, 43
2, 47313, Control_c, 0, 67, 0
2, 47338, Note_on_c, 0, 69, 0
2, 47338, Note_on_c, 0, 48, 0
2, 47338, Note_on_c, 0, 36, 0
2, 47338, Note_on_c, 0, 64, 0
2, 47346, Control_c, 0, 67, 127
2, 47357, Note_on_c, 0, 84, 60
2, 47375, Control_c, 0, 67, 0
2, 47407, Control_c, 0, 67, 127
2, 47411, Control_c, 0, 64, 127
2, 47496, Control_c, 0, 67, 0
2, 47497, Control_c, 0, 64, 0
2, 47528, Note_on_c, 0, 76, 52
2, 47528, Control_c, 0, 67, 127
2, 47555, Note_on_c, 0, 76, 0
2, 47555, Control_c, 0, 67, 0
2, 47588, Control_c, 0, 67, 127
2, 47615, Control_c, 0, 67, 0
2, 47649, Control_c, 0, 67, 127
2, 47661, Note_on_c, 0, 81, 57
2, 47684, Note_on_c, 0, 72, 44
2, 47712, Note_on_c, 0, 72, 0
2, 47714, Note_on_c, 0, 84, 0
2, 47734, Control_c, 0, 67, 0
2, 47766, Control_c, 0, 67, 127
2, 47795, Control_c, 0, 67, 0
2, 47816, Note_on_c, 0, 69, 49
2, 47828, Control_c, 0, 67, 127
2, 47847, Note_on_c, 0, 69, 0
2, 47856, Control_c, 0, 67, 0
2, 47889, Control_c, 0, 67, 127
2, 47914, Control_c, 0, 67, 0
2, 47939, Note_on_c, 0, 81, 0
2, 47947, Note_on_c, 0, 80, 65
2, 47947, Control_c, 0, 67, 127
2, 47949, Note_on_c, 0, 40, 44
2, 47960, Note_on_c, 0, 52, 42
2, 47960, Note_on_c, 0, 71, 47
2, 47974, Control_c, 0, 64, 127
2, 47987, Note_on_c, 0, 71, 0
2, 48058, Control_c, 0, 64, 0
2, 48085, Note_on_c, 0, 74, 42
2, 48089, Control_c, 0, 67, 0
2, 48112, Note_on_c, 0, 74, 0
2, 48121, Control_c, 0, 67, 127
2, 48206, Control_c, 0, 67, 0
2, 48216, Note_on_c, 0, 71, 42
2, 48231, Note_on_c, 0, 52, 0
2, 48233, Note_on_c, 0, 40, 0
2, 48242, Note_on_c, 0, 71, 0
2, 48248, Control_c, 0, 67, 127
2, 48335, Control_c, 0, 67, 0
2, 48358, Note_on_c, 0, 68, 42
2, 48367, Control_c, 0, 67, 127
2, 48384, Note_on_c, 0, 68, 0
2, 48394, Control_c, 0, 67, 0
2, 48396, Note_on_c, 0, 80, 0
2, 48427, Control_c, 0, 67, 127
2, 48486, Note_on_c, 0, 64, 44
2, 48486, Note_on_c, 0, 80, 55
2, 48517, Note_on_c, 0, 64, 0
2, 48624, Note_on_c, 0, 68, 44
2, 48652, Note_on_c, 0, 68, 0
2, 48698, Control_c, 0, 67, 0
2, 48731, Control_c, 0, 67, 127
2, 48760, Control_c, 0, 67, 0
2, 48769, Note_on_c, 0, 76, 60
2, 48785, Note_on_c, 0, 71, 42
2, 48794, Control_c, 0, 67, 127
2, 48814, Note_on_c, 0, 71, 0
2, 48823, Control_c, 0, 67, 0
2, 48825, Note_on_c, 0, 80, 0
2, 48856, Control_c, 0, 67, 127
2, 48915, Note_on_c, 0, 74, 49
2, 48944, Note_on_c, 0, 74, 0
2, 48944, Control_c, 0, 67, 0
2, 48977, Control_c, 0, 67, 127
2, 49008, Control_c, 0, 64, 127
2, 49050, Note_on_c, 0, 81, 66
2, 49057, Control_c, 0, 64, 0
2, 49075, Note_on_c, 0, 72, 48
2, 49079, Note_on_c, 0, 33, 52
2, 49102, Note_on_c, 0, 72, 0
2, 49102, Note_on_c, 0, 76, 0
2, 49206, Note_on_c, 0, 69, 46
2, 49235, Note_on_c, 0, 69, 0
2, 49235, Note_on_c, 0, 33, 0
2, 49245, Control_c, 0, 67, 0
2, 49277, Control_c, 0, 67, 127
2, 49335, Note_on_c, 0, 64, 43
2, 49366, Note_on_c, 0, 64, 0
2, 49457, Note_on_c, 0, 62, 47
2, 49484, Note_on_c, 0, 62, 0
2, 49541, Control_c, 0, 67, 0
2, 49574, Control_c, 0, 67, 127
2, 49589, Note_on_c, 0, 81, 0
2, 49597, Note_on_c, 0, 76, 62
2, 49599, Note_on_c, 0, 60, 44
2, 49626, Note_on_c, 0, 60, 0
2, 49660, Control_c, 0, 67, 0
2, 49693, Control_c, 0, 67, 127
2, 49729, Note_on_c, 0, 64, 47
2, 49758, Note_on_c, 0, 64, 0
2, 49781, Control_c, 0, 67, 0
2, 49814, Control_c, 0, 67, 127
2, 49843, Control_c, 0, 67, 0
2, 49864, Note_on_c, 0, 57, 45
2, 49873, Note_on_c, 0, 72, 60
2, 49875, Control_c, 0, 67, 127
2, 49891, Note_on_c, 0, 57, 0
2, 49929, Note_on_c, 0, 76, 0
2, 49968, Control_c, 0, 67, 0
2, 49989, Note_on_c, 0, 60, 48
2, 50000, Control_c, 0, 67, 127
2, 50017, Note_on_c, 0, 60, 0
2, 50071, Note_on_c, 0, 62, 47
2, 50108, Control_c, 0, 64, 127
2, 50110, Note_on_c, 0, 72, 0
2, 50115, Note_on_c, 0, 77, 66
2, 50140, Note_on_c, 0, 50, 55
2, 50142, Note_on_c, 0, 38, 60
2, 50183, Control_c, 0, 64, 0
2, 50240, Note_on_c, 0, 50, 0
2, 50240, Note_on_c, 0, 62, 0
2, 50242, Note_on_c, 0, 38, 0
2, 50246, Note_on_c, 0, 74, 47
2, 50263, Control_c, 0, 67, 0
2, 50296, Control_c, 0, 67, 127
2, 50323, Control_c, 0, 67, 0
2, 50355, Control_c, 0, 67, 127
2, 50380, Note_on_c, 0, 74, 0
2, 50388, Note_on_c, 0, 71, 44
2, 50440, Note_on_c, 0, 71, 0
2, 50543, Note_on_c, 0, 69, 42
2, 50569, Note_on_c, 0, 69, 0
2, 50616, Control_c, 0, 67, 0
2, 50650, Control_c, 0, 67, 127
2, 50669, Note_on_c, 0, 76, 67
2, 50681, Note_on_c, 0, 52, 48
2, 50683, Note_on_c, 0, 40, 48
2, 50683, Note_on_c, 0, 68, 45
2, 50713, Note_on_c, 0, 68, 0
2, 50733, Note_on_c, 0, 77, 0
2, 50735, Control_c, 0, 67, 0
2, 50767, Control_c, 0, 67, 127
2, 50792, Note_on_c, 0, 52, 0
2, 50794, Note_on_c, 0, 40, 0
2, 50794, Control_c, 0, 67, 0
2, 50802, Note_on_c, 0, 71, 45
2, 50827, Control_c, 0, 67, 127
2, 50829, Note_on_c, 0, 71, 0
2, 50856, Control_c, 0, 67, 0
2, 50888, Control_c, 0, 67, 127
2, 50923, Note_on_c, 0, 64, 56
2, 50938, Note_on_c, 0, 64, 0
2, 51039, Control_c, 0, 67, 0
2, 51056, Note_on_c, 0, 68, 48
2, 51072, Control_c, 0, 67, 127
2, 51075, Note_on_c, 0, 68, 0
2, 51104, Note_on_c, 0, 33, 50
2, 51158, Control_c, 0, 67, 0
2, 51183, Note_on_c, 0, 76, 0
2, 51191, Note_on_c, 0, 45, 44
2, 51191, Note_on_c, 0, 72, 59
2, 51192, Control_c, 0, 67, 127
2, 51202, Note_on_c, 0, 69, 44
2, 51204, Control_c, 0, 64, 127
2, 51219, Control_c, 0, 67, 0
2, 51252, Control_c, 0, 67, 127
2, 51256, Control_c, 0, 64, 0
2, 51279, Control_c, 0, 67, 0
2, 51290, Note_on_c, 0, 69, 0
2, 51290, Note_on_c, 0, 33, 0
2, 51290, Note_on_c, 0, 45, 0
2, 51312, Control_c, 0, 67, 127
2, 51333, Note_on_c, 0, 57, 48
2, 51340, Control_c, 0, 67, 0
2, 51383, Control_c, 0, 67, 127
2, 51396, Note_on_c, 0, 57, 0
2, 51411, Control_c, 0, 67, 0
2, 51456, Note_on_c, 0, 60, 47
2, 51456, Note_on_c, 0, 69, 48
2, 51456, Control_c, 0, 67, 127
2, 51504, Note_on_c, 0, 72, 0
2, 51544, Control_c, 0, 67, 0
2, 51567, Note_on_c, 0, 69, 0
2, 51576, Control_c, 0, 67, 127
2, 51611, Note_on_c, 0, 64, 49
2, 51623, Control_c, 0, 64, 127
2, 51665, Control_c, 0, 67, 0
2, 51696, Note_on_c, 0, 57, 47
2, 51697, Control_c, 0, 67, 127
2, 51719, Note_on_c, 0, 84, 71
2, 51722, Control_c, 0, 67, 0
2, 51740, Note_on_c, 0, 69, 48
2, 51745, Control_c, 0, 64, 0
2, 51755, Control_c, 0, 67, 127
2, 51782, Control_c, 0, 67, 0
2, 51792, Note_on_c, 0, 57, 0
2, 51792, Note_on_c, 0, 64, 0
2, 51793, Note_on_c, 0, 60, 0
2, 51815, Control_c, 0, 67, 127
2, 51849, Note_on_c, 0, 76, 51
2, 51866, Note_on_c, 0, 76, 0
2, 51969, Note_on_c, 0, 81, 63
2, 51981, Note_on_c, 0, 72, 50
2, 51996, Note_on_c, 0, 72, 0
2, 52031, Note_on_c, 0, 69, 0
2, 52046, Note_on_c, 0, 84, 0
2, 52113, Note_on_c, 0, 69, 52
2, 52130, Note_on_c, 0, 69, 0
2, 52142, Control_c, 0, 67, 0
2, 52175, Control_c, 0, 67, 127
2, 52203, Control_c, 0, 67, 0
2, 52215, Note_on_c, 0, 81, 0
2, 52221, Note_on_c, 0, 77, 62
2, 52236, Control_c, 0, 67, 127
2, 52246, Note_on_c, 0, 74, 45
2, 52248, Control_c, 0, 64, 127
2, 52259, Note_on_c, 0, 38, 48
2, 52269, Note_on_c, 0, 50, 48
2, 52274, Note_on_c, 0, 74, 0
2, 52355, Control_c, 0, 64, 0
2, 52384, Control_c, 0, 67, 0
2, 52392, Note_on_c, 0, 69, 47
2, 52416, Control_c, 0, 67, 127
2, 52418, Note_on_c, 0, 69, 0
2, 52445, Control_c, 0, 67, 0
2, 52468, Note_on_c, 0, 50, 0
2, 52468, Note_on_c, 0, 38, 0
2, 52478, Control_c, 0, 67, 127
2, 52524, Note_on_c, 0, 62, 47
2, 52551, Note_on_c, 0, 62, 0
2, 52656, Note_on_c, 0, 72, 46
2, 52721, Note_on_c, 0, 72, 0
2, 52805, Control_c, 0, 67, 0
2, 52811, Control_c, 0, 64, 127
2, 52813, Note_on_c, 0, 79, 56
2, 52826, Note_on_c, 0, 77, 0
2, 52834, Note_on_c, 0, 71, 42
2, 52838, Control_c, 0, 67, 127
2, 52857, Note_on_c, 0, 43, 43
2, 52859, Note_on_c, 0, 31, 42
2, 52863, Note_on_c, 0, 71, 0
2, 52919, Control_c, 0, 64, 0
2, 52982, Note_on_c, 0, 74, 48
2, 52988, Note_on_c, 0, 31, 0
2, 53011, Note_on_c, 0, 74, 0
2, 53036, Control_c, 0, 67, 0
2, 53068, Control_c, 0, 67, 127
2, 53124, Note_on_c, 0, 74, 53
2, 53141, Note_on_c, 0, 79, 0
2, 53147, Note_on_c, 0, 71, 46
2, 53155, Control_c, 0, 67, 0
2, 53176, Note_on_c, 0, 71, 0
2, 53187, Control_c, 0, 67, 127
2, 53272, Control_c, 0, 67, 0
2, 53287, Note_on_c, 0, 67, 45
2, 53304, Note_on_c, 0, 67, 0
2, 53304, Control_c, 0, 67, 127
2, 53331, Control_c, 0, 67, 0
2, 53364, Control_c, 0, 67, 127
2, 53389, Note_on_c, 0, 43, 0
2, 53393, Control_c, 0, 67, 0
2, 53397, Note_on_c, 0, 48, 46
2, 53402, Note_on_c, 0, 74, 0
2, 53410, Note_on_c, 0, 76, 54
2, 53420, Control_c, 0, 64, 127
2, 53420, Note_on_c, 0, 36, 41
2, 53420, Note_on_c, 0, 72, 44
2, 53425, Control_c, 0, 67, 127
2, 53450, Note_on_c, 0, 72, 0
2, 53454, Control_c, 0, 67, 0
2, 53487, Control_c, 0, 67, 127
2, 53498, Control_c, 0, 64, 0
2, 53514, Control_c, 0, 67, 0
2, 53544, Note_on_c, 0, 67, 47
2, 53548, Control_c, 0, 67, 127
2, 53560, Note_on_c, 0, 36, 0
2, 53560, Note_on_c, 0, 48, 0
2, 53571, Note_on_c, 0, 67, 0
2, 53575, Control_c, 0, 67, 0
2, 53608, Control_c, 0, 67, 127
2, 53637, Control_c, 0, 67, 0
2, 53669, Control_c, 0, 67, 127
2, 53690, Note_on_c, 0, 60, 43
2, 53700, Control_c, 0, 67, 0
2, 53733, Control_c, 0, 67, 127
2, 53811, Note_on_c, 0, 62, 48
2, 53836, Control_c, 0, 64, 127
2, 53880, Control_c, 0, 67, 0
2, 53913, Control_c, 0, 67, 127
2, 53948, Control_c, 0, 64, 0
2, 53950, Note_on_c, 0, 76, 0
2, 53959, Note_on_c, 0, 64, 45
2, 53959, Note_on_c, 0, 79, 63
2, 54083, Note_on_c, 0, 64, 0
2, 54083, Note_on_c, 0, 60, 0
2, 54083, Note_on_c, 0, 62, 0
2, 54089, Note_on_c, 0, 67, 44
2, 54178, Note_on_c, 0, 67, 0
2, 54207, Note_on_c, 0, 76, 58
2, 54220, Note_on_c, 0, 60, 47
2, 54249, Note_on_c, 0, 60, 0
2, 54289, Note_on_c, 0, 79, 0
2, 54301, Control_c, 0, 67, 0
2, 54334, Control_c, 0, 67, 127
2, 54341, Note_on_c, 0, 64, 45
2, 54370, Note_on_c, 0, 64, 0
2, 54387, Control_c, 0, 64, 127
2, 54437, Note_on_c, 0, 65, 44
2, 54451, Note_on_c, 0, 76, 0
2, 54460, Note_on_c, 0, 81, 68
2, 54481, Note_on_c, 0, 41, 48
2, 54481, Note_on_c, 0, 53, 50
2, 54485, Control_c, 0, 64, 0
2, 54539, Control_c, 0, 67, 0
2, 54549, Note_on_c, 0, 65, 0
2, 54572, Control_c, 0, 67, 127
2, 54606, Note_on_c, 0, 72, 49
2, 54662, Control_c, 0, 67, 0
2, 54681, Note_on_c, 0, 72, 0
2, 54695, Control_c, 0, 67, 127
2, 54725, Control_c, 0, 67, 0
2, 54733, Note_on_c, 0, 53, 0
2, 54733, Note_on_c, 0, 41, 0
2, 54743, Note_on_c, 0, 71, 46
2, 54758, Control_c, 0, 67, 127
2, 54796, Note_on_c, 0, 71, 0
2, 54846, Control_c, 0, 67, 0
2, 54877, Note_on_c, 0, 69, 46
2, 54879, Control_c, 0, 67, 127
2, 54927, Note_on_c, 0, 69, 0
2, 54967, Control_c, 0, 67, 0
2, 55000, Control_c, 0, 67, 127
2, 55019, Note_on_c, 0, 43, 47
2, 55019, Note_on_c, 0, 55, 41
2, 55019, Note_on_c, 0, 71, 53
2, 55032, Note_on_c, 0, 67, 43
2, 55034, Note_on_c, 0, 81, 0
2, 55057, Note_on_c, 0, 67, 0
2, 55142, Control_c, 0, 67, 0
2, 55161, Note_on_c, 0, 65, 46
2, 55175, Control_c, 0, 67, 127
2, 55190, Note_on_c, 0, 65, 0
2, 55261, Control_c, 0, 67, 0
2, 55290, Note_on_c, 0, 64, 44
2, 55294, Control_c, 0, 67, 127
2, 55305, Note_on_c, 0, 55, 0
2, 55315, Note_on_c, 0, 64, 0
2, 55429, Note_on_c, 0, 62, 43
2, 55458, Note_on_c, 0, 62, 0
2, 55568, Control_c, 0, 67, 0
2, 55572, Note_on_c, 0, 48, 46
2, 55578, Note_on_c, 0, 71, 0
2, 55584, Note_on_c, 0, 36, 41
2, 55585, Note_on_c, 0, 64, 45
2, 55585, Note_on_c, 0, 72, 54
2, 55589, Note_on_c, 0, 43, 0
2, 55618, Control_c, 0, 64, 127
2, 55683, Control_c, 0, 64, 0
2, 55724, Note_on_c, 0, 69, 45
2, 55787, Note_on_c, 0, 69, 0
2, 55884, Note_on_c, 0, 67, 47
2, 55949, Note_on_c, 0, 67, 0
2, 56036, Note_on_c, 0, 64, 0
2, 56043, Note_on_c, 0, 65, 43
2, 56078, Note_on_c, 0, 60, 41
2, 56107, Note_on_c, 0, 65, 0
2, 56166, Note_on_c, 0, 36, 0
2, 56168, Note_on_c, 0, 72, 0
2, 56168, Note_on_c, 0, 48, 0
2, 56176, Note_on_c, 0, 64, 48
2, 56178, Note_on_c, 0, 79, 53
2, 56323, Note_on_c, 0, 67, 43
2, 56332, Control_c, 0, 64, 127
2, 56375, Note_on_c, 0, 60, 0
2, 56438, Note_on_c, 0, 76, 57
2, 56440, Note_on_c, 0, 60, 47
2, 56469, Note_on_c, 0, 79, 0
2, 56545, Note_on_c, 0, 62, 48
2, 56561, Note_on_c, 0, 60, 0
2, 56588, Note_on_c, 0, 64, 0
2, 56632, Control_c, 0, 64, 0
2, 56645, Note_on_c, 0, 62, 0
2, 56653, Note_on_c, 0, 64, 54
2, 56670, Note_on_c, 0, 67, 0
2, 56689, Note_on_c, 0, 79, 63
2, 56697, Note_on_c, 0, 36, 51
2, 56701, Note_on_c, 0, 48, 48
2, 56730, Note_on_c, 0, 76, 0
2, 56848, Note_on_c, 0, 76, 48
2, 56913, Note_on_c, 0, 76, 0
2, 56965, Note_on_c, 0, 74, 41
2, 57030, Note_on_c, 0, 74, 0
2, 57099, Note_on_c, 0, 72, 47
2, 57153, Note_on_c, 0, 72, 0
2, 57220, Note_on_c, 0, 74, 46
2, 57224, Note_on_c, 0, 48, 0
2, 57224, Note_on_c, 0, 64, 0
2, 57230, Note_on_c, 0, 47, 43
2, 57234, Note_on_c, 0, 80, 59
2, 57236, Note_on_c, 0, 36, 0
2, 57241, Note_on_c, 0, 35, 47
2, 57288, Note_on_c, 0, 79, 0
2, 57341, Note_on_c, 0, 74, 0
2, 57349, Note_on_c, 0, 77, 48
2, 57412, Note_on_c, 0, 77, 0
2, 57493, Note_on_c, 0, 76, 41
2, 57558, Note_on_c, 0, 76, 0
2, 57610, Note_on_c, 0, 74, 47
2, 57675, Note_on_c, 0, 74, 0
2, 57720, Note_on_c, 0, 81, 70
2, 57723, Note_on_c, 0, 35, 0
2, 57723, Note_on_c, 0, 47, 0
2, 57743, Note_on_c, 0, 72, 41
2, 57752, Note_on_c, 0, 33, 60
2, 57752, Note_on_c, 0, 45, 60
2, 57775, Note_on_c, 0, 80, 0
2, 57796, Note_on_c, 0, 72, 0
2, 57873, Note_on_c, 0, 69, 47
2, 57935, Note_on_c, 0, 69, 0
2, 58002, Note_on_c, 0, 64, 48
2, 58095, Control_c, 0, 64, 127
2, 58103, Note_on_c, 0, 64, 0
2, 58110, Note_on_c, 0, 62, 48
2, 58174, Note_on_c, 0, 81, 0
2, 58229, Control_c, 0, 64, 0
2, 58233, Note_on_c, 0, 62, 0
2, 58239, Note_on_c, 0, 60, 45
2, 58239, Note_on_c, 0, 81, 58
2, 58256, Note_on_c, 0, 45, 0
2, 58256, Note_on_c, 0, 33, 0
2, 58388, Note_on_c, 0, 64, 49
2, 58502, Note_on_c, 0, 64, 0
2, 58502, Note_on_c, 0, 60, 0
2, 58508, Note_on_c, 0, 57, 46
2, 58508, Note_on_c, 0, 76, 53
2, 58550, Note_on_c, 0, 81, 0
2, 58623, Note_on_c, 0, 57, 0
2, 58629, Note_on_c, 0, 60, 47
2, 58729, Note_on_c, 0, 52, 47
2, 58735, Note_on_c, 0, 76, 0
2, 58747, Note_on_c, 0, 80, 62
2, 58777, Note_on_c, 0, 59, 45
2, 58799, Note_on_c, 0, 60, 0
2, 58804, Control_c, 0, 64, 127
2, 58877, Control_c, 0, 64, 0
2, 58898, Note_on_c, 0, 65, 47
2, 58964, Note_on_c, 0, 65, 0
2, 59031, Note_on_c, 0, 64, 44
2, 59096, Note_on_c, 0, 64, 0
2, 59150, Note_on_c, 0, 62, 43
2, 59213, Note_on_c, 0, 62, 0
2, 59232, Note_on_c, 0, 45, 48
2, 59236, Note_on_c, 0, 59, 0
2, 59236, Note_on_c, 0, 52, 0
2, 59267, Note_on_c, 0, 60, 43
2, 59269, Note_on_c, 0, 81, 66
2, 59315, Control_c, 0, 64, 127
2, 59323, Note_on_c, 0, 80, 0
2, 59414, Note_on_c, 0, 72, 43
2, 59429, Control_c, 0, 64, 0
2, 59477, Note_on_c, 0, 72, 0
2, 59548, Note_on_c, 0, 71, 43
2, 59614, Note_on_c, 0, 71, 0
2, 59669, Note_on_c, 0, 69, 45
2, 59721, Note_on_c, 0, 69, 0
2, 59758, Note_on_c, 0, 45, 0
2, 59760, Note_on_c, 0, 60, 0
2, 59765, Note_on_c, 0, 40, 41
2, 59779, Note_on_c, 0, 68, 45
2, 59825, Note_on_c, 0, 83, 66
2, 59834, Note_on_c, 0, 52, 41
2, 59848, Control_c, 0, 64, 127
2, 59865, Note_on_c, 0, 81, 0
2, 59948, Control_c, 0, 64, 0
2, 59953, Note_on_c, 0, 74, 42
2, 60098, Note_on_c, 0, 74, 0
2, 60106, Note_on_c, 0, 72, 43
2, 60245, Note_on_c, 0, 72, 0
2, 60251, Note_on_c, 0, 71, 45
2, 60377, Note_on_c, 0, 71, 0
2, 60379, Note_on_c, 0, 68, 0
2, 60383, Note_on_c, 0, 69, 46
2, 60400, Note_on_c, 0, 52, 0
2, 60402, Note_on_c, 0, 40, 0
2, 60423, Note_on_c, 0, 83, 0
2, 60431, Note_on_c, 0, 84, 68
2, 60494, Note_on_c, 0, 69, 0
2, 60575, Note_on_c, 0, 64, 48
2, 60691, Control_c, 0, 64, 127
2, 60700, Note_on_c, 0, 81, 60
2, 60723, Note_on_c, 0, 60, 41
2, 60741, Note_on_c, 0, 84, 0
2, 60841, Note_on_c, 0, 69, 44
2, 60861, Note_on_c, 0, 64, 0
2, 60861, Note_on_c, 0, 60, 0
2, 60934, Note_on_c, 0, 69, 0
2, 60966, Control_c, 0, 64, 0
2, 60987, Note_on_c, 0, 77, 62
2, 60997, Note_on_c, 0, 74, 47
2, 60999, Note_on_c, 0, 38, 43
2, 61010, Note_on_c, 0, 50, 44
2, 61026, Note_on_c, 0, 81, 0
2, 61157, Note_on_c, 0, 69, 47
2, 61277, Note_on_c, 0, 65, 44
2, 61325, Control_c, 0, 64, 127
2, 61383, Note_on_c, 0, 62, 44
2, 61435, Note_on_c, 0, 69, 0
2, 61494, Control_c, 0, 64, 0
2, 61504, Note_on_c, 0, 69, 44
2, 61515, Note_on_c, 0, 74, 0
2, 61519, Note_on_c, 0, 65, 0
2, 61519, Note_on_c, 0, 38, 0
2, 61519, Note_on_c, 0, 50, 0
2, 61519, Note_on_c, 0, 62, 0
2, 61556, Note_on_c, 0, 77, 0
2, 61563, Note_on_c, 0, 84, 61
2, 61617, Note_on_c, 0, 69, 0
2, 61686, Note_on_c, 0, 64, 45
2, 61810, Note_on_c, 0, 60, 48
2, 61810, Note_on_c, 0, 81, 58
2, 61825, Note_on_c, 0, 64, 0
2, 61839, Note_on_c, 0, 60, 0
2, 61841, Note_on_c, 0, 84, 0
2, 61942, Note_on_c, 0, 69, 45
2, 61972, Note_on_c, 0, 69, 0
2, 62075, Note_on_c, 0, 76, 56
2, 62077, Note_on_c, 0, 45, 41
2, 62079, Note_on_c, 0, 33, 47
2, 62087, Note_on_c, 0, 72, 46
2, 62129, Note_on_c, 0, 81, 0
2, 62206, Note_on_c, 0, 69, 43
2, 62351, Note_on_c, 0, 64, 47
2, 62418, Control_c, 0, 67, 127
2, 62460, Control_c, 0, 64, 127
2, 62470, Note_on_c, 0, 60, 41
2, 62506, Control_c, 0, 67, 0
2, 62518, Note_on_c, 0, 64, 0
2, 62539, Control_c, 0, 67, 127
2, 62587, Note_on_c, 0, 64, 47
2, 62608, Note_on_c, 0, 84, 58
2, 62658, Note_on_c, 0, 69, 0
2, 62725, Note_on_c, 0, 69, 45
2, 62788, Note_on_c, 0, 72, 0
2, 62852, Note_on_c, 0, 84, 0
2, 62857, Note_on_c, 0, 81, 55
2, 62869, Note_on_c, 0, 72, 43
2, 62911, Note_on_c, 0, 69, 0
2, 62921, Control_c, 0, 67, 0
2, 62953, Control_c, 0, 67, 127
2, 62976, Note_on_c, 0, 69, 48
2, 62984, Control_c, 0, 64, 0
2, 63073, Note_on_c, 0, 76, 0
2, 63075, Note_on_c, 0, 72, 0
2, 63077, Note_on_c, 0, 33, 0
2, 63077, Note_on_c, 0, 45, 0
2, 63077, Note_on_c, 0, 60, 0
2, 63077, Note_on_c, 0, 69, 0
2, 63077, Note_on_c, 0, 64, 0
2, 63100, Control_c, 0, 67, 0
2, 63110, Note_on_c, 0, 50, 43
2, 63121, Note_on_c, 0, 86, 62
2, 63135, Control_c, 0, 67, 127
2, 63146, Note_on_c, 0, 65, 48
2, 63175, Note_on_c, 0, 81, 0
2, 63276, Note_on_c, 0, 71, 45
2, 63339, Control_c, 0, 67, 0
2, 63372, Control_c, 0, 67, 127
2, 63397, Note_on_c, 0, 83, 57
2, 63407, Note_on_c, 0, 74, 42
2, 63410, Control_c, 0, 64, 127
2, 63449, Note_on_c, 0, 86, 0
2, 63485, Note_on_c, 0, 71, 0
2, 63547, Control_c, 0, 64, 0
2, 63551, Note_on_c, 0, 71, 42
2, 63577, Control_c, 0, 67, 0
2, 63610, Control_c, 0, 67, 127
2, 63635, Control_c, 0, 67, 0
2, 63660, Note_on_c, 0, 74, 0
2, 63662, Note_on_c, 0, 71, 0
2, 63664, Note_on_c, 0, 65, 0
2, 63664, Note_on_c, 0, 50, 0
2, 63668, Control_c, 0, 67, 127
2, 63681, Note_on_c, 0, 81, 47
2, 63683, Note_on_c, 0, 40, 43
2, 63695, Note_on_c, 0, 52, 47
2, 63695, Note_on_c, 0, 72, 41
2, 63737, Note_on_c, 0, 83, 0
2, 63760, Control_c, 0, 67, 0
2, 63783, Note_on_c, 0, 72, 0
2, 63792, Control_c, 0, 67, 127
2, 63819, Control_c, 0, 67, 0
2, 63852, Control_c, 0, 67, 127
2, 63867, Note_on_c, 0, 69, 48
2, 63881, Control_c, 0, 67, 0
2, 63913, Control_c, 0, 67, 127
2, 63940, Control_c, 0, 67, 0
2, 63954, Note_on_c, 0, 69, 0
2, 63960, Note_on_c, 0, 40, 0
2, 63973, Control_c, 0, 67, 127
2, 64002, Control_c, 0, 67, 0
2, 64036, Note_on_c, 0, 80, 54
2, 64036, Control_c, 0, 67, 127
2, 64050, Note_on_c, 0, 64, 45
2, 64088, Note_on_c, 0, 81, 0
2, 64138, Note_on_c, 0, 64, 0
2, 64213, Note_on_c, 0, 52, 0
2, 64221, Note_on_c, 0, 62, 43
2, 64248, Control_c, 0, 67, 0
2, 64280, Control_c, 0, 67, 127
2, 64309, Note_on_c, 0, 62, 0
2, 64309, Control_c, 0, 67, 0
2, 64342, Control_c, 0, 67, 127
2, 64422, Note_on_c, 0, 80, 0
2, 64428, Note_on_c, 0, 45, 41
2, 64428, Note_on_c, 0, 52, 46
2, 64428, Note_on_c, 0, 81, 49
2, 64430, Note_on_c, 0, 60, 41
2, 64440, Note_on_c, 0, 76, 53
2, 64466, Control_c, 0, 64, 127
2, 64551, Control_c, 0, 64, 0
2, 64605, Control_c, 0, 67, 0
2, 64626, Note_on_c, 0, 69, 44
2, 64637, Control_c, 0, 67, 127
2, 64738, Note_on_c, 0, 69, 0
2, 64746, Note_on_c, 0, 67, 47
2, 64854, Control_c, 0, 67, 0
2, 64887, Control_c, 0, 67, 127
2, 64893, Note_on_c, 0, 67, 0
2, 64898, Note_on_c, 0, 65, 48
2, 64995, Note_on_c, 0, 76, 0
2, 64997, Note_on_c, 0, 60, 0
2, 64997, Note_on_c, 0, 52, 0
2, 64997, Note_on_c, 0, 45, 0
2, 64997, Note_on_c, 0, 65, 0
2, 65009, Note_on_c, 0, 81, 0
2, 65016, Note_on_c, 0, 79, 44
2, 65040, Note_on_c, 0, 64, 43
2, 65080, Control_c, 0, 64, 127
2, 65143, Control_c, 0, 64, 0
2, 65164, Control_c, 0, 67, 0
2, 65185, Note_on_c, 0, 67, 43
2, 65197, Control_c, 0, 67, 127
2, 65288, Note_on_c, 0, 79, 0
2, 65292, Note_on_c, 0, 76, 59
2, 65294, Note_on_c, 0, 60, 43
2, 65348, Control_c, 0, 64, 127
2, 65394, Note_on_c, 0, 60, 0
2, 65401, Note_on_c, 0, 62, 45
2, 65405, Control_c, 0, 67, 0
2, 65432, Note_on_c, 0, 64, 0
2, 65438, Control_c, 0, 67, 127
2, 65467, Control_c, 0, 64, 0
2, 65490, Note_on_c, 0, 67, 0
2, 65490, Note_on_c, 0, 62, 0
2, 65496, Note_on_c, 0, 64, 42
2, 65526, Note_on_c, 0, 64, 0
2, 65534, Note_on_c, 0, 79, 66
2, 65547, Note_on_c, 0, 48, 48
2, 65570, Note_on_c, 0, 36, 46
2, 65572, Note_on_c, 0, 76, 0
2, 65688, Note_on_c, 0, 76, 46
2, 65704, Control_c, 0, 67, 0
2, 65736, Control_c, 0, 67, 127
2, 65763, Control_c, 0, 64, 127
2, 65798, Note_on_c, 0, 76, 0
2, 65804, Note_on_c, 0, 74, 48
2, 65857, Control_c, 0, 64, 0
2, 65928, Note_on_c, 0, 74, 0
2, 65936, Note_on_c, 0, 72, 46
2, 66001, Control_c, 0, 67, 0
2, 66034, Control_c, 0, 67, 127
2, 66042, Note_on_c, 0, 74, 47
2, 66048, Note_on_c, 0, 72, 0
2, 66055, Note_on_c, 0, 80, 59
2, 66059, Note_on_c, 0, 48, 0
2, 66069, Note_on_c, 0, 47, 44
2, 66074, Note_on_c, 0, 36, 0
2, 66080, Note_on_c, 0, 35, 42
2, 66094, Note_on_c, 0, 74, 0
2, 66097, Note_on_c, 0, 79, 0
2, 66153, Control_c, 0, 64, 127
2, 66174, Note_on_c, 0, 77, 48
2, 66243, Control_c, 0, 67, 0
2, 66276, Control_c, 0, 67, 127
2, 66303, Control_c, 0, 67, 0
2, 66312, Note_on_c, 0, 77, 0
2, 66320, Note_on_c, 0, 76, 48
2, 66336, Control_c, 0, 67, 127
2, 66362, Control_c, 0, 67, 0
2, 66397, Control_c, 0, 67, 127
2, 66424, Control_c, 0, 67, 0
2, 66437, Control_c, 0, 64, 0
2, 66447, Note_on_c, 0, 76, 0
2, 66455, Note_on_c, 0, 74, 43
2, 66456, Control_c, 0, 67, 127
2, 66483, Control_c, 0, 67, 0
2, 66516, Control_c, 0, 67, 127
2, 66520, Note_on_c, 0, 74, 0
2, 66520, Note_on_c, 0, 47, 0
2, 66522, Note_on_c, 0, 35, 0
2, 66545, Control_c, 0, 67, 0
2, 66564, Note_on_c, 0, 81, 70
2, 66576, Note_on_c, 0, 45, 44
2, 66577, Control_c, 0, 67, 127
2, 66589, Note_on_c, 0, 33, 44
2, 66595, Note_on_c, 0, 80, 0
2, 66600, Note_on_c, 0, 72, 44
2, 66604, Control_c, 0, 67, 0
2, 66637, Control_c, 0, 67, 127
2, 66698, Control_c, 0, 64, 127
2, 66723, Note_on_c, 0, 69, 46
2, 66727, Control_c, 0, 67, 0
2, 66760, Control_c, 0, 67, 127
2, 66846, Control_c, 0, 67, 0
2, 66852, Note_on_c, 0, 64, 47
2, 66959, Note_on_c, 0, 62, 44
2, 66987, Note_on_c, 0, 81, 0
2, 67080, Note_on_c, 0, 72, 0
2, 67082, Note_on_c, 0, 45, 0
2, 67082, Note_on_c, 0, 69, 0
2, 67082, Note_on_c, 0, 33, 0
2, 67082, Note_on_c, 0, 62, 0
2, 67082, Note_on_c, 0, 64, 0
2, 67082, Control_c, 0, 64, 0
2, 67092, Note_on_c, 0, 60, 42
2, 67092, Note_on_c, 0, 81, 56
2, 67231, Note_on_c, 0, 60, 0
2, 67239, Note_on_c, 0, 64, 44
2, 67328, Note_on_c, 0, 64, 0
2, 67357, Note_on_c, 0, 76, 66
2, 67359, Note_on_c, 0, 57, 43
2, 67422, Note_on_c, 0, 81, 0
2, 67445, Note_on_c, 0, 57, 0
2, 67464, Note_on_c, 0, 60, 47
2, 67554, Note_on_c, 0, 60, 0
2, 67573, Note_on_c, 0, 52, 48
2, 67598, Note_on_c, 0, 80, 68
2, 67606, Note_on_c, 0, 59, 48
2, 67623, Control_c, 0, 64, 127
2, 67661, Note_on_c, 0, 76, 0
2, 67732, Control_c, 0, 64, 0
2, 67752, Note_on_c, 0, 65, 44
2, 67815, Note_on_c, 0, 65, 0
2, 67872, Note_on_c, 0, 64, 44
2, 67940, Note_on_c, 0, 64, 0
2, 67997, Note_on_c, 0, 62, 47
2, 68061, Note_on_c, 0, 52, 0
2, 68061, Note_on_c, 0, 59, 0
2, 68063, Note_on_c, 0, 62, 0
2, 68068, Note_on_c, 0, 45, 47
2, 68116, Note_on_c, 0, 81, 63
2, 68126, Note_on_c, 0, 60, 43
2, 68168, Note_on_c, 0, 80, 0
2, 68191, Note_on_c, 0, 60, 0
2, 68245, Note_on_c, 0, 72, 44
2, 68336, Note_on_c, 0, 72, 0
2, 68367, Note_on_c, 0, 45, 0
2, 68376, Note_on_c, 0, 71, 46
2, 68463, Note_on_c, 0, 71, 0
2, 68494, Note_on_c, 0, 69, 50
2, 68576, Note_on_c, 0, 40, 48
2, 68605, Note_on_c, 0, 69, 0
2, 68613, Note_on_c, 0, 68, 44
2, 68634, Control_c, 0, 64, 127
2, 68649, Note_on_c, 0, 83, 68
2, 68691, Note_on_c, 0, 52, 49
2, 68711, Note_on_c, 0, 81, 0
2, 68785, Note_on_c, 0, 74, 44
2, 68810, Control_c, 0, 64, 0
2, 68930, Note_on_c, 0, 74, 0
2, 68940, Note_on_c, 0, 72, 46
2, 69091, Note_on_c, 0, 72, 0
2, 69100, Note_on_c, 0, 71, 43
2, 69205, Note_on_c, 0, 40, 0
2, 69205, Note_on_c, 0, 52, 0
2, 69207, Note_on_c, 0, 71, 0
2, 69209, Note_on_c, 0, 68, 0
2, 69215, Note_on_c, 0, 69, 45
2, 69263, Note_on_c, 0, 84, 68
2, 69326, Note_on_c, 0, 83, 0
2, 69376, Control_c, 0, 64, 127
2, 69414, Note_on_c, 0, 64, 49
2, 69420, Note_on_c, 0, 69, 0
2, 69517, Note_on_c, 0, 84, 0
2, 69521, Note_on_c, 0, 81, 60
2, 69546, Note_on_c, 0, 60, 44
2, 69557, Control_c, 0, 64, 0
2, 69675, Note_on_c, 0, 69, 48
2, 69767, Note_on_c, 0, 69, 0
2, 69767, Note_on_c, 0, 60, 0
2, 69767, Note_on_c, 0, 64, 0
2, 69784, Note_on_c, 0, 77, 64
2, 69795, Note_on_c, 0, 38, 47
2, 69807, Note_on_c, 0, 50, 48
2, 69816, Note_on_c, 0, 81, 0
2, 69820, Note_on_c, 0, 74, 46
2, 69857, Control_c, 0, 64, 127
2, 69963, Note_on_c, 0, 69, 42
2, 70095, Note_on_c, 0, 65, 43
2, 70223, Note_on_c, 0, 62, 47
2, 70259, Note_on_c, 0, 82, 47
2, 70276, Note_on_c, 0, 82, 0
2, 70297, Note_on_c, 0, 69, 0
2, 70344, Control_c, 0, 64, 0
2, 70367, Note_on_c, 0, 69, 41
2, 70407, Note_on_c, 0, 84, 58
2, 70416, Note_on_c, 0, 50, 0
2, 70416, Note_on_c, 0, 38, 0
2, 70418, Note_on_c, 0, 62, 0
2, 70418, Note_on_c, 0, 77, 0
2, 70418, Note_on_c, 0, 74, 0
2, 70418, Note_on_c, 0, 65, 0
2, 70531, Note_on_c, 0, 69, 0
2, 70536, Note_on_c, 0, 64, 43
2, 70660, Note_on_c, 0, 60, 41
2, 70660, Note_on_c, 0, 81, 59
2, 70678, Note_on_c, 0, 64, 0
2, 70718, Note_on_c, 0, 84, 0
2, 70807, Note_on_c, 0, 69, 42
2, 70927, Note_on_c, 0, 69, 0
2, 70927, Note_on_c, 0, 60, 0
2, 70931, Note_on_c, 0, 45, 41
2, 70943, Note_on_c, 0, 33, 43
2, 70944, Note_on_c, 0, 76, 55
2, 70958, Note_on_c, 0, 72, 47
2, 71012, Note_on_c, 0, 81, 0
2, 71037, Control_c, 0, 64, 127
2, 71056, Control_c, 0, 67, 127
2, 71083, Control_c, 0, 67, 0
2, 71087, Note_on_c, 0, 69, 43
2, 71115, Control_c, 0, 67, 127
2, 71140, Control_c, 0, 67, 0
2, 71173, Control_c, 0, 67, 127
2, 71227, Note_on_c, 0, 64, 48
2, 71271, Control_c, 0, 67, 0
2, 71304, Control_c, 0, 67, 127
2, 71334, Note_on_c, 0, 60, 44
2, 71340, Note_on_c, 0, 72, 0
2, 71394, Control_c, 0, 64, 0
2, 71403, Control_c, 0, 67, 0
2, 71411, Note_on_c, 0, 64, 0
2, 71438, Control_c, 0, 67, 127
2, 71446, Note_on_c, 0, 45, 0
2, 71446, Note_on_c, 0, 33, 0
2, 71469, Control_c, 0, 67, 0
2, 71472, Note_on_c, 0, 84, 60
2, 71484, Note_on_c, 0, 64, 44
2, 71501, Note_on_c, 0, 76, 0
2, 71501, Note_on_c, 0, 69, 0
2, 71503, Control_c, 0, 67, 127
2, 71532, Control_c, 0, 67, 0
2, 71565, Control_c, 0, 67, 127
2, 71593, Control_c, 0, 67, 0
2, 71609, Note_on_c, 0, 69, 44
2, 71626, Control_c, 0, 67, 127
2, 71725, Control_c, 0, 64, 127
2, 71731, Note_on_c, 0, 81, 57
2, 71740, Note_on_c, 0, 72, 43
2, 71773, Note_on_c, 0, 84, 0
2, 71806, Note_on_c, 0, 69, 0
2, 71850, Control_c, 0, 64, 0
2, 71873, Note_on_c, 0, 69, 45
2, 71936, Note_on_c, 0, 69, 0
2, 71936, Note_on_c, 0, 60, 0
2, 71936, Note_on_c, 0, 64, 0
2, 71936, Note_on_c, 0, 72, 0
2, 71942, Note_on_c, 0, 50, 49
2, 72007, Note_on_c, 0, 86, 59
2, 72030, Note_on_c, 0, 65, 43
2, 72059, Note_on_c, 0, 81, 0
2, 72086, Control_c, 0, 64, 127
2, 72175, Note_on_c, 0, 71, 42
2, 72194, Control_c, 0, 67, 0
2, 72227, Control_c, 0, 67, 127
2, 72252, Control_c, 0, 67, 0
2, 72285, Control_c, 0, 67, 127
2, 72304, Note_on_c, 0, 83, 56
2, 72312, Control_c, 0, 67, 0
2, 72313, Note_on_c, 0, 74, 43
2, 72344, Control_c, 0, 67, 127
2, 72360, Note_on_c, 0, 86, 0
2, 72394, Note_on_c, 0, 71, 0
2, 72434, Control_c, 0, 67, 0
2, 72461, Control_c, 0, 64, 0
2, 72463, Note_on_c, 0, 71, 41
2, 72467, Control_c, 0, 67, 127
2, 72494, Control_c, 0, 67, 0
2, 72527, Control_c, 0, 67, 127
2, 72561, Note_on_c, 0, 50, 0
2, 72561, Note_on_c, 0, 74, 0
2, 72563, Note_on_c, 0, 71, 0
2, 72563, Note_on_c, 0, 65, 0
2, 72617, Note_on_c, 0, 40, 45
2, 72619, Note_on_c, 0, 52, 44
2, 72621, Note_on_c, 0, 81, 55
2, 72630, Note_on_c, 0, 72, 41
2, 72661, Note_on_c, 0, 83, 0
2, 72676, Control_c, 0, 67, 0
2, 72709, Note_on_c, 0, 40, 0
2, 72709, Note_on_c, 0, 72, 0
2, 72711, Control_c, 0, 67, 127
2, 72800, Control_c, 0, 67, 0
2, 72817, Note_on_c, 0, 69, 46
2, 72833, Control_c, 0, 67, 127
2, 72854, Note_on_c, 0, 52, 0
2, 72879, Note_on_c, 0, 69, 0
2, 72919, Note_on_c, 0, 52, 44
2, 72971, Note_on_c, 0, 80, 50
2, 72992, Note_on_c, 0, 64, 43
2, 73034, Note_on_c, 0, 81, 0
2, 73036, Control_c, 0, 67, 0
2, 73069, Control_c, 0, 67, 127
2, 73104, Note_on_c, 0, 64, 0
2, 73229, Note_on_c, 0, 62, 47
2, 73272, Control_c, 0, 67, 0
2, 73304, Control_c, 0, 67, 127
2, 73335, Control_c, 0, 64, 127
2, 73455, Note_on_c, 0, 62, 0
2, 73478, Note_on_c, 0, 52, 0
2, 73503, Control_c, 0, 67, 0
2, 73522, Control_c, 0, 64, 0
2, 73530, Note_on_c, 0, 45, 41
2, 73536, Control_c, 0, 67, 127
2, 73539, Note_on_c, 0, 80, 0
2, 73545, Note_on_c, 0, 52, 47
2, 73547, Note_on_c, 0, 81, 48
2, 73557, Note_on_c, 0, 60, 41
2, 73557, Note_on_c, 0, 69, 44
2, 73557, Note_on_c, 0, 76, 45
2, 73564, Control_c, 0, 67, 0
2, 73597, Control_c, 0, 67, 127
2, 73647, Control_c, 0, 67, 0
2, 74716, Control_c, 0, 64, 127
2, 74720, Note_on_c, 0, 69, 0
2, 74737, Note_on_c, 0, 57, 58
2, 74743, Note_on_c, 0, 60, 0
2, 74751, Note_on_c, 0, 61, 59
2, 74753, Note_on_c, 0, 76, 0
2, 74755, Note_on_c, 0, 52, 0
2, 74755, Note_on_c, 0, 81, 0
2, 74755, Note_on_c, 0, 45, 0
2, 74785, Note_on_c, 0, 73, 64
2, 74797, Note_on_c, 0, 69, 49
2, 74801, Note_on_c, 0, 73, 0
2, 74820, Note_on_c, 0, 74, 56
2, 74835, Note_on_c, 0, 74, 0
2, 74845, Note_on_c, 0, 73, 51
2, 74849, Control_c, 0, 64, 0
2, 74860, Note_on_c, 0, 73, 0
2, 74881, Note_on_c, 0, 74, 51
2, 74918, Note_on_c, 0, 73, 61
2, 74933, Note_on_c, 0, 74, 0
2, 74960, Note_on_c, 0, 73, 0
2, 74970, Note_on_c, 0, 71, 55
2, 74974, Note_on_c, 0, 69, 0
2, 74979, Note_on_c, 0, 59, 50
2, 74981, Note_on_c, 0, 56, 47
2, 74983, Note_on_c, 0, 68, 47
2, 75022, Note_on_c, 0, 57, 0
2, 75035, Note_on_c, 0, 61, 0
2, 75128, Note_on_c, 0, 73, 62
2, 75142, Note_on_c, 0, 57, 52
2, 75142, Note_on_c, 0, 61, 57
2, 75151, Note_on_c, 0, 69, 48
2, 75168, Note_on_c, 0, 71, 0
2, 75170, Note_on_c, 0, 68, 0
2, 75178, Note_on_c, 0, 59, 0
2, 75178, Control_c, 0, 64, 127
2, 75182, Note_on_c, 0, 56, 0
2, 75281, Note_on_c, 0, 74, 63
2, 75296, Note_on_c, 0, 59, 54
2, 75298, Note_on_c, 0, 62, 52
2, 75308, Note_on_c, 0, 71, 47
2, 75335, Note_on_c, 0, 73, 0
2, 75335, Note_on_c, 0, 61, 0
2, 75335, Note_on_c, 0, 57, 0
2, 75336, Note_on_c, 0, 69, 0
2, 75408, Control_c, 0, 64, 0
2, 75423, Note_on_c, 0, 76, 69
2, 75425, Note_on_c, 0, 45, 45
2, 75438, Note_on_c, 0, 73, 51
2, 75450, Note_on_c, 0, 64, 46
2, 75452, Note_on_c, 0, 74, 0
2, 75454, Note_on_c, 0, 71, 0
2, 75461, Note_on_c, 0, 52, 45
2, 75490, Note_on_c, 0, 62, 0
2, 75500, Note_on_c, 0, 59, 0
2, 75509, Note_on_c, 0, 61, 45
2, 75559, Note_on_c, 0, 73, 0
2, 75569, Note_on_c, 0, 81, 67
2, 75575, Note_on_c, 0, 61, 0
2, 75582, Note_on_c, 0, 66, 48
2, 75582, Note_on_c, 0, 69, 49
2, 75582, Note_on_c, 0, 78, 46
2, 75598, Note_on_c, 0, 52, 0
2, 75598, Note_on_c, 0, 45, 0
2, 75621, Note_on_c, 0, 64, 0
2, 75621, Note_on_c, 0, 76, 0
2, 75653, Control_c, 0, 64, 127
2, 75703, Note_on_c, 0, 78, 0
2, 75711, Note_on_c, 0, 80, 50
2, 75715, Note_on_c, 0, 66, 0
2, 75719, Note_on_c, 0, 76, 50
2, 75720, Note_on_c, 0, 64, 48
2, 75722, Note_on_c, 0, 68, 46
2, 75738, Control_c, 0, 64, 0
2, 75759, Note_on_c, 0, 69, 0
2, 75782, Note_on_c, 0, 81, 0
2, 75830, Note_on_c, 0, 76, 0
2, 75845, Note_on_c, 0, 64, 0
2, 75851, Note_on_c, 0, 66, 55
2, 75853, Note_on_c, 0, 62, 50
2, 75853, Note_on_c, 0, 78, 45
2, 75864, Note_on_c, 0, 74, 50
2, 75918, Note_on_c, 0, 68, 0
2, 75918, Note_on_c, 0, 80, 0
2, 75974, Note_on_c, 0, 74, 0
2, 75976, Note_on_c, 0, 62, 0
2, 75976, Note_on_c, 0, 66, 0
2, 75982, Note_on_c, 0, 73, 53
2, 75985, Note_on_c, 0, 33, 49
2, 75985, Note_on_c, 0, 45, 43
2, 75985, Note_on_c, 0, 61, 42
2, 75985, Note_on_c, 0, 69, 51
2, 75993, Note_on_c, 0, 76, 53
2, 76001, Note_on_c, 0, 78, 0
2, 76012, Note_on_c, 0, 45, 0
2, 76014, Note_on_c, 0, 33, 0
2, 76045, Note_on_c, 0, 73, 0
2, 76047, Note_on_c, 0, 61, 0
2, 76047, Note_on_c, 0, 69, 0
2, 76142, Note_on_c, 0, 37, 55
2, 76142, Note_on_c, 0, 49, 53
2, 76157, Note_on_c, 0, 76, 0
2, 76161, Note_on_c, 0, 49, 0
2, 76163, Note_on_c, 0, 37, 0
2, 76254, Note_on_c, 0, 61, 46
2, 76266, Note_on_c, 0, 69, 47
2, 76279, Note_on_c, 0, 52, 53
2, 76279, Note_on_c, 0, 73, 53
2, 76281, Note_on_c, 0, 40, 53
2, 76285, Note_on_c, 0, 61, 0
2, 76289, Note_on_c, 0, 76, 59
2, 76295, Note_on_c, 0, 69, 0
2, 76306, Note_on_c, 0, 73, 0
2, 76308, Note_on_c, 0, 52, 0
2, 76310, Note_on_c, 0, 40, 0
2, 76426, Note_on_c, 0, 45, 53
2, 76426, Note_on_c, 0, 57, 59
2, 76441, Note_on_c, 0, 76, 0
2, 76443, Note_on_c, 0, 57, 0
2, 76443, Note_on_c, 0, 45, 0
2, 76522, Note_on_c, 0, 61, 53
2, 76543, Note_on_c, 0, 69, 42
2, 76568, Note_on_c, 0, 73, 60
2, 76578, Note_on_c, 0, 76, 60
2, 76584, Note_on_c, 0, 33, 53
2, 76593, Note_on_c, 0, 45, 49
2, 76633, Control_c, 0, 64, 127
2, 76697, Note_on_c, 0, 45, 0
2, 76766, Note_on_c, 0, 69, 0
2, 76774, Note_on_c, 0, 45, 41
2, 76789, Note_on_c, 0, 73, 0
2, 76791, Note_on_c, 0, 61, 0
2, 76810, Note_on_c, 0, 52, 46
2, 76822, Note_on_c, 0, 64, 45
2, 76833, Note_on_c, 0, 69, 56
2, 76848, Note_on_c, 0, 76, 0
2, 76856, Note_on_c, 0, 73, 56
2, 76858, Note_on_c, 0, 61, 46
2, 76877, Control_c, 0, 64, 0
2, 76993, Note_on_c, 0, 69, 0
2, 76997, Note_on_c, 0, 74, 56
2, 77011, Note_on_c, 0, 59, 54
2, 77013, Note_on_c, 0, 62, 57
2, 77013, Note_on_c, 0, 71, 43
2, 77028, Note_on_c, 0, 61, 0
2, 77038, Note_on_c, 0, 73, 0
2, 77084, Note_on_c, 0, 64, 0
2, 77141, Note_on_c, 0, 59, 0
2, 77141, Note_on_c, 0, 62, 0
2, 77141, Note_on_c, 0, 71, 0
2, 77143, Note_on_c, 0, 45, 0
2, 77143, Note_on_c, 0, 52, 0
2, 77145, Note_on_c, 0, 33, 0
2, 77147, Note_on_c, 0, 76, 42
2, 77149, Note_on_c, 0, 61, 54
2, 77149, Note_on_c, 0, 64, 56
2, 77159, Note_on_c, 0, 73, 44
2, 77176, Note_on_c, 0, 74, 0
2, 77189, Control_c, 0, 64, 127
2, 77210, Note_on_c, 0, 73, 0
2, 77212, Note_on_c, 0, 61, 0
2, 77280, Note_on_c, 0, 57, 47
2, 77280, Note_on_c, 0, 61, 47
2, 77280, Note_on_c, 0, 73, 46
2, 77291, Note_on_c, 0, 69, 46
2, 77301, Control_c, 0, 64, 0
2, 77331, Note_on_c, 0, 64, 0
2, 77341, Note_on_c, 0, 76, 0
2, 77410, Note_on_c, 0, 62, 41
2, 77410, Note_on_c, 0, 66, 48
2, 77410, Note_on_c, 0, 78, 46
2, 77420, Note_on_c, 0, 74, 43
2, 77439, Note_on_c, 0, 73, 0
2, 77439, Note_on_c, 0, 61, 0
2, 77542, Note_on_c, 0, 62, 0
2, 77551, Note_on_c, 0, 74, 0
2, 77559, Note_on_c, 0, 76, 52
2, 77561, Note_on_c, 0, 61, 43
2, 77561, Note_on_c, 0, 64, 46
2, 77570, Note_on_c, 0, 73, 46
2, 77576, Note_on_c, 0, 66, 0
2, 77590, Note_on_c, 0, 78, 0
2, 77613, Note_on_c, 0, 76, 0
2, 77674, Note_on_c, 0, 57, 0
2, 77674, Note_on_c, 0, 69, 0
2, 77674, Note_on_c, 0, 73, 0
2, 77674, Note_on_c, 0, 64, 0
2, 77674, Note_on_c, 0, 61, 0
2, 77678, Note_on_c, 0, 76, 42
2, 77703, Note_on_c, 0, 74, 56
2, 77705, Note_on_c, 0, 71, 42
2, 77707, Note_on_c, 0, 52, 50
2, 77707, Note_on_c, 0, 62, 48
2, 77709, Note_on_c, 0, 76, 0
2, 77709, Note_on_c, 0, 40, 47
2, 77734, Control_c, 0, 64, 127
2, 77861, Control_c, 0, 64, 0
2, 77919, Note_on_c, 0, 52, 0
2, 77982, Note_on_c, 0, 73, 47
2, 77984, Note_on_c, 0, 57, 47
2, 77984, Note_on_c, 0, 61, 45
2, 77996, Note_on_c, 0, 69, 41
2, 77998, Note_on_c, 0, 52, 43
2, 78032, Note_on_c, 0, 74, 0
2, 78036, Note_on_c, 0, 62, 0
2, 78036, Note_on_c, 0, 71, 0
2, 78113, Note_on_c, 0, 59, 42
2, 78113, Note_on_c, 0, 71, 44
2, 78126, Note_on_c, 0, 56, 42
2, 78126, Note_on_c, 0, 68, 45
2, 78167, Note_on_c, 0, 57, 0
2, 78176, Note_on_c, 0, 69, 0
2, 78176, Note_on_c, 0, 73, 0
2, 78188, Note_on_c, 0, 61, 0
2, 78190, Note_on_c, 0, 52, 0
2, 78240, Note_on_c, 0, 76, 45
2, 78245, Note_on_c, 0, 71, 0
2, 78245, Note_on_c, 0, 59, 0
2, 78247, Note_on_c, 0, 56, 0
2, 78249, Note_on_c, 0, 40, 0
2, 78249, Note_on_c, 0, 73, 44
2, 78255, Note_on_c, 0, 52, 41
2, 78255, Note_on_c, 0, 61, 45
2, 78255, Note_on_c, 0, 64, 42
2, 78272, Control_c, 0, 64, 127
2, 78295, Note_on_c, 0, 68, 0
2, 78374, Note_on_c, 0, 73, 0
2, 78378, Note_on_c, 0, 61, 0
2, 78380, Note_on_c, 0, 74, 52
2, 78382, Control_c, 0, 64, 0
2, 78393, Note_on_c, 0, 59, 47
2, 78393, Note_on_c, 0, 62, 45
2, 78393, Note_on_c, 0, 71, 46
2, 78443, Note_on_c, 0, 76, 0
2, 78447, Note_on_c, 0, 64, 0
2, 78504, Note_on_c, 0, 71, 0
2, 78510, Note_on_c, 0, 73, 49
2, 78514, Note_on_c, 0, 59, 0
2, 78524, Note_on_c, 0, 61, 44
2, 78524, Note_on_c, 0, 69, 49
2, 78526, Note_on_c, 0, 57, 43
2, 78541, Note_on_c, 0, 52, 0
2, 78560, Note_on_c, 0, 74, 0
2, 78574, Note_on_c, 0, 62, 0
2, 78620, Note_on_c, 0, 69, 0
2, 78647, Note_on_c, 0, 57, 0
2, 78652, Note_on_c, 0, 59, 42
2, 78652, Note_on_c, 0, 71, 45
2, 78654, Note_on_c, 0, 56, 48
2, 78666, Note_on_c, 0, 68, 41
2, 78704, Note_on_c, 0, 73, 0
2, 78720, Note_on_c, 0, 61, 0
2, 78744, Note_on_c, 0, 56, 0
2, 78744, Note_on_c, 0, 68, 0
2, 78775, Note_on_c, 0, 45, 42
2, 78785, Note_on_c, 0, 57, 44
2, 78798, Note_on_c, 0, 61, 43
2, 78798, Note_on_c, 0, 73, 42
2, 78810, Note_on_c, 0, 69, 45
2, 78814, Note_on_c, 0, 71, 0
2, 78814, Note_on_c, 0, 59, 0
2, 78864, Control_c, 0, 64, 127
2, 78931, Note_on_c, 0, 64, 42
2, 78942, Note_on_c, 0, 52, 41
2, 79002, Note_on_c, 0, 57, 0
2, 79002, Note_on_c, 0, 61, 0
2, 79002, Note_on_c, 0, 69, 0
2, 79071, Note_on_c, 0, 69, 60
2, 79073, Note_on_c, 0, 57, 45
2, 79073, Note_on_c, 0, 61, 47
2, 79075, Note_on_c, 0, 73, 0
2, 79075, Note_on_c, 0, 49, 45
2, 79138, Note_on_c, 0, 64, 0
2, 79153, Note_on_c, 0, 52, 0
2, 79209, Note_on_c, 0, 52, 48
2, 79209, Note_on_c, 0, 64, 45
2, 79253, Note_on_c, 0, 45, 0
2, 79274, Note_on_c, 0, 69, 0
2, 79274, Note_on_c, 0, 61, 0
2, 79276, Note_on_c, 0, 57, 0
2, 79319, Control_c, 0, 64, 0
2, 79320, Note_on_c, 0, 45, 43
2, 79336, Note_on_c, 0, 64, 0
2, 79338, Note_on_c, 0, 49, 0
2, 79338, Note_on_c, 0, 52, 0
2, 79342, Note_on_c, 0, 61, 41
2, 79342, Note_on_c, 0, 73, 45
2, 79344, Note_on_c, 0, 57, 44
2, 79353, Note_on_c, 0, 69, 43
2, 79483, Note_on_c, 0, 69, 0
2, 79488, Note_on_c, 0, 71, 45
2, 79494, Note_on_c, 0, 57, 0
2, 79502, Note_on_c, 0, 56, 46
2, 79502, Note_on_c, 0, 59, 42
2, 79502, Note_on_c, 0, 68, 44
2, 79540, Note_on_c, 0, 73, 0
2, 79554, Note_on_c, 0, 61, 0
2, 79613, Note_on_c, 0, 68, 0
2, 79617, Note_on_c, 0, 73, 46
2, 79623, Note_on_c, 0, 56, 0
2, 79631, Note_on_c, 0, 61, 48
2, 79631, Note_on_c, 0, 69, 48
2, 79632, Note_on_c, 0, 57, 42
2, 79671, Note_on_c, 0, 71, 0
2, 79671, Note_on_c, 0, 59, 0
2, 79736, Note_on_c, 0, 74, 49
2, 79744, Note_on_c, 0, 69, 0
2, 79744, Note_on_c, 0, 57, 0
2, 79752, Note_on_c, 0, 59, 43
2, 79752, Note_on_c, 0, 62, 46
2, 79752, Note_on_c, 0, 71, 46
2, 79755, Note_on_c, 0, 73, 0
2, 79767, Note_on_c, 0, 61, 0
2, 79794, Note_on_c, 0, 45, 0
2, 79838, Note_on_c, 0, 59, 0
2, 79838, Note_on_c, 0, 71, 0
2, 79840, Note_on_c, 0, 62, 0
2, 79849, Note_on_c, 0, 45, 48
2, 79882, Note_on_c, 0, 76, 60
2, 79886, Note_on_c, 0, 52, 42
2, 79886, Note_on_c, 0, 64, 46
2, 79896, Note_on_c, 0, 61, 43
2, 79896, Note_on_c, 0, 73, 45
2, 79897, Note_on_c, 0, 74, 0
2, 79903, Control_c, 0, 64, 127
2, 80010, Note_on_c, 0, 73, 0
2, 80014, Note_on_c, 0, 81, 56
2, 80021, Note_on_c, 0, 61, 0
2, 80023, Note_on_c, 0, 52, 0
2, 80023, Note_on_c, 0, 45, 0
2, 80027, Note_on_c, 0, 57, 44
2, 80027, Note_on_c, 0, 66, 44
2, 80027, Note_on_c, 0, 69, 41
2, 80027, Note_on_c, 0, 78, 45
2, 80033, Note_on_c, 0, 64, 0
2, 80060, Control_c, 0, 64, 0
2, 80065, Note_on_c, 0, 76, 0
2, 80148, Note_on_c, 0, 80, 48
2, 80152, Note_on_c, 0, 69, 0
2, 80152, Note_on_c, 0, 66, 0
2, 80152, Note_on_c, 0, 78, 0
2, 80160, Note_on_c, 0, 64, 47
2, 80160, Note_on_c, 0, 68, 48
2, 80169, Note_on_c, 0, 76, 60
2, 80184, Note_on_c, 0, 81, 0
2, 80221, Note_on_c, 0, 76, 0
2, 80225, Note_on_c, 0, 68, 0
2, 80271, Note_on_c, 0, 64, 0
2, 80279, Note_on_c, 0, 66, 47
2, 80279, Note_on_c, 0, 78, 46
2, 80280, Note_on_c, 0, 62, 41
2, 80288, Note_on_c, 0, 74, 45
2, 80296, Note_on_c, 0, 80, 0
2, 80391, Note_on_c, 0, 74, 0
2, 80393, Note_on_c, 0, 78, 0
2, 80395, Note_on_c, 0, 57, 0
2, 80395, Note_on_c, 0, 66, 0
2, 80395, Note_on_c, 0, 62, 0
2, 80400, Note_on_c, 0, 61, 53
2, 80412, Note_on_c, 0, 69, 44
2, 80424, Note_on_c, 0, 73, 66
2, 80425, Note_on_c, 0, 45, 52
2, 80427, Note_on_c, 0, 33, 48
2, 80435, Note_on_c, 0, 76, 65
2, 80454, Note_on_c, 0, 45, 0
2, 80458, Note_on_c, 0, 33, 0
2, 80466, Note_on_c, 0, 61, 0
2, 80487, Note_on_c, 0, 69, 0
2, 80512, Note_on_c, 0, 73, 0
2, 80560, Note_on_c, 0, 37, 54
2, 80560, Note_on_c, 0, 49, 51
2, 80571, Note_on_c, 0, 76, 0
2, 80587, Note_on_c, 0, 49, 0
2, 80589, Note_on_c, 0, 37, 0
2, 80678, Note_on_c, 0, 61, 48
2, 80688, Note_on_c, 0, 69, 46
2, 80699, Note_on_c, 0, 73, 54
2, 80707, Note_on_c, 0, 76, 53
2, 80712, Note_on_c, 0, 52, 49
2, 80714, Note_on_c, 0, 40, 53
2, 80739, Note_on_c, 0, 52, 0
2, 80741, Note_on_c, 0, 40, 0
2, 80762, Note_on_c, 0, 61, 0
2, 80774, Note_on_c, 0, 69, 0
2, 80784, Note_on_c, 0, 73, 0
2, 80832, Note_on_c, 0, 76, 0
2, 80832, Note_on_c, 0, 45, 52
2, 80841, Note_on_c, 0, 57, 54
2, 80870, Note_on_c, 0, 57, 0
2, 80870, Note_on_c, 0, 45, 0
2, 80891, Control_c, 0, 64, 127
2, 80901, Note_on_c, 0, 61, 43
2, 80922, Note_on_c, 0, 69, 46
2, 80956, Note_on_c, 0, 73, 64
2, 80972, Note_on_c, 0, 33, 44
2, 80972, Note_on_c, 0, 45, 46
2, 80977, Note_on_c, 0, 76, 62
2, 81105, Note_on_c, 0, 45, 0
2, 81163, Note_on_c, 0, 73, 0
2, 81163, Note_on_c, 0, 45, 48
2, 81165, Note_on_c, 0, 61, 0
2, 81165, Note_on_c, 0, 69, 0
2, 81199, Note_on_c, 0, 52, 43
2, 81230, Note_on_c, 0, 61, 41
2, 81230, Note_on_c, 0, 69, 62
2, 81230, Note_on_c, 0, 73, 59
2, 81230, Note_on_c, 0, 81, 62
2, 81314, Note_on_c, 0, 76, 0
2, 81318, Control_c, 0, 64, 0
2, 81370, Note_on_c, 0, 83, 44
2, 81382, Note_on_c, 0, 76, 41
2, 81384, Note_on_c, 0, 64, 47
2, 81384, Note_on_c, 0, 71, 42
2, 81410, Note_on_c, 0, 81, 0
2, 81432, Note_on_c, 0, 73, 0
2, 81433, Note_on_c, 0, 69, 0
2, 81487, Note_on_c, 0, 85, 59
2, 81491, Note_on_c, 0, 76, 0
2, 81495, Note_on_c, 0, 71, 0
2, 81503, Note_on_c, 0, 57, 41
2, 81512, Note_on_c, 0, 73, 45
2, 81514, Note_on_c, 0, 69, 48
2, 81539, Note_on_c, 0, 83, 0
2, 81566, Note_on_c, 0, 64, 0
2, 81620, Note_on_c, 0, 81, 44
2, 81625, Control_c, 0, 64, 127
2, 81633, Note_on_c, 0, 64, 45
2, 81633, Note_on_c, 0, 76, 46
2, 81696, Note_on_c, 0, 76, 0
2, 81696, Note_on_c, 0, 73, 0
2, 81698, Note_on_c, 0, 61, 0
2, 81739, Note_on_c, 0, 88, 71
2, 81764, Note_on_c, 0, 76, 41
2, 81766, Note_on_c, 0, 73, 43
2, 81768, Note_on_c, 0, 61, 45
2, 81808, Note_on_c, 0, 69, 0
2, 81808, Note_on_c, 0, 64, 0
2, 81829, Note_on_c, 0, 81, 0
2, 81831, Note_on_c, 0, 85, 0
2, 81873, Note_on_c, 0, 64, 46
2, 81873, Note_on_c, 0, 69, 61
2, 81885, Note_on_c, 0, 85, 44
2, 81896, Note_on_c, 0, 81, 45
2, 81902, Note_on_c, 0, 85, 0
2, 81929, Control_c, 0, 64, 0
2, 81963, Note_on_c, 0, 52, 0
2, 81971, Note_on_c, 0, 85, 68
2, 81983, Note_on_c, 0, 76, 0
2, 81986, Note_on_c, 0, 69, 0
2, 81986, Note_on_c, 0, 73, 0
2, 81986, Note_on_c, 0, 64, 0
2, 81986, Note_on_c, 0, 57, 0
2, 81986, Note_on_c, 0, 61, 0
2, 81986, Note_on_c, 0, 88, 0
2, 81986, Note_on_c, 0, 81, 0
2, 81988, Note_on_c, 0, 45, 0
2, 81988, Note_on_c, 0, 33, 0
2, 82000, Note_on_c, 0, 85, 0
2, 82019, Note_on_c, 0, 71, 66
2, 82019, Note_on_c, 0, 80, 70
2, 82019, Note_on_c, 0, 83, 66
2, 82029, Note_on_c, 0, 47, 41
2, 82031, Note_on_c, 0, 40, 48
2, 82031, Note_on_c, 0, 52, 41
2, 82193, Control_c, 0, 64, 127
2, 82282, Control_c, 0, 64, 0
2, 82299, Note_on_c, 0, 66, 48
2, 82299, Note_on_c, 0, 69, 47
2, 82299, Note_on_c, 0, 81, 45
2, 82313, Note_on_c, 0, 78, 47
2, 82340, Note_on_c, 0, 83, 0
2, 82340, Note_on_c, 0, 80, 0
2, 82351, Note_on_c, 0, 71, 0
2, 82424, Note_on_c, 0, 66, 0
2, 82430, Note_on_c, 0, 64, 45
2, 82432, Note_on_c, 0, 80, 47
2, 82443, Note_on_c, 0, 76, 42
2, 82445, Note_on_c, 0, 68, 47
2, 82470, Control_c, 0, 64, 127
2, 82482, Note_on_c, 0, 69, 0
2, 82484, Note_on_c, 0, 81, 0
2, 82484, Note_on_c, 0, 78, 0
2, 82495, Note_on_c, 0, 80, 0
2, 82495, Note_on_c, 0, 68, 0
2, 82495, Note_on_c, 0, 47, 0
2, 82553, Note_on_c, 0, 52, 0
2, 82555, Note_on_c, 0, 40, 0
2, 82555, Note_on_c, 0, 64, 0
2, 82555, Control_c, 0, 64, 0
2, 82560, Note_on_c, 0, 47, 42
2, 82560, Note_on_c, 0, 59, 44
2, 82562, Note_on_c, 0, 80, 61
2, 82574, Note_on_c, 0, 71, 48
2, 82576, Note_on_c, 0, 68, 45
2, 82578, Note_on_c, 0, 76, 0
2, 82721, Note_on_c, 0, 78, 56
2, 82728, Note_on_c, 0, 71, 0
2, 82734, Note_on_c, 0, 57, 44
2, 82734, Note_on_c, 0, 66, 54
2, 82734, Note_on_c, 0, 69, 54
2, 82759, Note_on_c, 0, 59, 0
2, 82790, Note_on_c, 0, 68, 0
2, 82801, Note_on_c, 0, 80, 0
2, 82857, Note_on_c, 0, 69, 0
2, 82863, Note_on_c, 0, 56, 41
2, 82863, Note_on_c, 0, 76, 60
2, 82865, Note_on_c, 0, 64, 48
2, 82865, Note_on_c, 0, 68, 57
2, 82892, Note_on_c, 0, 57, 0
2, 82915, Note_on_c, 0, 66, 0
2, 82919, Note_on_c, 0, 78, 0
2, 82990, Note_on_c, 0, 68, 0
2, 82993, Note_on_c, 0, 54, 43
2, 82993, Note_on_c, 0, 63, 43
2, 82993, Note_on_c, 0, 66, 49
2, 82997, Note_on_c, 0, 75, 51
2, 83011, Note_on_c, 0, 76, 0
2, 83013, Note_on_c, 0, 64, 0
2, 83024, Note_on_c, 0, 56, 0
2, 83095, Note_on_c, 0, 47, 0
2, 83105, Note_on_c, 0, 54, 0
2, 83107, Note_on_c, 0, 66, 0
2, 83112, Note_on_c, 0, 40, 46
2, 83114, Note_on_c, 0, 64, 48
2, 83136, Note_on_c, 0, 76, 55
2, 83139, Note_on_c, 0, 68, 53
2, 83141, Note_on_c, 0, 63, 0
2, 83159, Note_on_c, 0, 47, 46
2, 83180, Note_on_c, 0, 75, 0
2, 83184, Note_on_c, 0, 56, 48
2, 83224, Note_on_c, 0, 64, 0
2, 83291, Note_on_c, 0, 52, 58
2, 83293, Note_on_c, 0, 64, 55
2, 83413, Note_on_c, 0, 56, 0
2, 83415, Note_on_c, 0, 68, 0
2, 83419, Note_on_c, 0, 57, 47
2, 83423, Note_on_c, 0, 69, 47
2, 83552, Note_on_c, 0, 54, 49
2, 83556, Note_on_c, 0, 52, 0
2, 83581, Note_on_c, 0, 64, 0
2, 83587, Note_on_c, 0, 66, 45
2, 83614, Note_on_c, 0, 54, 0
2, 83621, Note_on_c, 0, 52, 46
2, 83660, Note_on_c, 0, 57, 0
2, 83667, Note_on_c, 0, 56, 48
2, 83673, Note_on_c, 0, 76, 0
2, 83683, Note_on_c, 0, 69, 0
2, 83683, Note_on_c, 0, 40, 0
2, 83683, Note_on_c, 0, 47, 0
2, 83683, Note_on_c, 0, 66, 0
2, 83692, Note_on_c, 0, 71, 42
2, 83700, Note_on_c, 0, 59, 48
2, 83725, Note_on_c, 0, 64, 76
2, 83736, Note_on_c, 0, 76, 61
2, 83851, Control_c, 0, 64, 127
2, 83903, Note_on_c, 0, 83, 64
2, 83916, Note_on_c, 0, 71, 0
2, 83941, Note_on_c, 0, 76, 0
2, 83951, Note_on_c, 0, 59, 0
2, 83951, Note_on_c, 0, 56, 0
2, 83951, Note_on_c, 0, 52, 0
2, 83987, Note_on_c, 0, 71, 42
2, 84008, Note_on_c, 0, 76, 44
2, 84020, Note_on_c, 0, 59, 47
2, 84022, Note_on_c, 0, 52, 53
2, 84022, Note_on_c, 0, 56, 51
2, 84037, Note_on_c, 0, 86, 59
2, 84114, Note_on_c, 0, 83, 0
2, 84183, Note_on_c, 0, 83, 53
2, 84212, Note_on_c, 0, 86, 0
2, 84219, Note_on_c, 0, 64, 0
2, 84231, Note_on_c, 0, 76, 0
2, 84237, Note_on_c, 0, 57, 48
2, 84242, Note_on_c, 0, 59, 0
2, 84242, Note_on_c, 0, 52, 0
2, 84244, Note_on_c, 0, 56, 0
2, 84244, Note_on_c, 0, 71, 0
2, 84264, Control_c, 0, 64, 0
2, 84264, Note_on_c, 0, 61, 48
2, 84288, Note_on_c, 0, 64, 61
2, 84302, Note_on_c, 0, 73, 41
2, 84302, Note_on_c, 0, 76, 45
2, 84306, Note_on_c, 0, 64, 0
2, 84344, Note_on_c, 0, 76, 0
2, 84344, Note_on_c, 0, 85, 60
2, 84360, Note_on_c, 0, 83, 0
2, 84365, Note_on_c, 0, 64, 64
2, 84423, Note_on_c, 0, 76, 72
2, 84475, Note_on_c, 0, 83, 54
2, 84490, Note_on_c, 0, 85, 0
2, 84602, Note_on_c, 0, 81, 55
2, 84622, Note_on_c, 0, 83, 0
2, 84622, Control_c, 0, 64, 127
2, 84719, Note_on_c, 0, 81, 0
2, 84726, Note_on_c, 0, 80, 54
2, 84751, Note_on_c, 0, 73, 0
2, 84751, Note_on_c, 0, 57, 0
2, 84776, Note_on_c, 0, 61, 0
2, 84801, Note_on_c, 0, 64, 0
2, 84805, Note_on_c, 0, 57, 61
2, 84813, Note_on_c, 0, 76, 0
2, 84820, Note_on_c, 0, 73, 43
2, 84845, Control_c, 0, 64, 0
2, 84845, Note_on_c, 0, 61, 64
2, 84866, Note_on_c, 0, 80, 0
2, 84866, Note_on_c, 0, 64, 79
2, 84870, Note_on_c, 0, 81, 62
2, 85023, Control_c, 0, 64, 127
2, 85027, Note_on_c, 0, 76, 62
2, 85067, Note_on_c, 0, 76, 0
2, 85075, Note_on_c, 0, 69, 44
2, 85090, Note_on_c, 0, 57, 0
2, 85136, Note_on_c, 0, 76, 49
2, 85159, Note_on_c, 0, 49, 49
2, 85159, Note_on_c, 0, 52, 54
2, 85159, Note_on_c, 0, 57, 51
2, 85163, Note_on_c, 0, 85, 67
2, 85234, Note_on_c, 0, 81, 0
2, 85288, Note_on_c, 0, 52, 0
2, 85297, Note_on_c, 0, 81, 55
2, 85334, Note_on_c, 0, 76, 0
2, 85340, Note_on_c, 0, 85, 0
2, 85347, Note_on_c, 0, 64, 0
2, 85353, Note_on_c, 0, 52, 56
2, 85357, Note_on_c, 0, 57, 0
2, 85367, Note_on_c, 0, 56, 56
2, 85370, Note_on_c, 0, 61, 0
2, 85370, Note_on_c, 0, 49, 0
2, 85372, Note_on_c, 0, 73, 0
2, 85372, Note_on_c, 0, 69, 0
2, 85376, Control_c, 0, 64, 0
2, 85380, Note_on_c, 0, 68, 44
2, 85388, Note_on_c, 0, 59, 67
2, 85401, Note_on_c, 0, 76, 49
2, 85415, Note_on_c, 0, 64, 65
2, 85428, Note_on_c, 0, 64, 0
2, 85438, Note_on_c, 0, 83, 62
2, 85466, Note_on_c, 0, 81, 0
2, 85476, Note_on_c, 0, 76, 0
2, 85482, Note_on_c, 0, 64, 68
2, 85541, Note_on_c, 0, 76, 77
2, 85564, Note_on_c, 0, 83, 0
2, 85570, Note_on_c, 0, 81, 44
2, 85690, Note_on_c, 0, 81, 0
2, 85698, Note_on_c, 0, 80, 60
2, 85740, Control_c, 0, 64, 127
2, 85813, Note_on_c, 0, 56, 0
2, 85817, Note_on_c, 0, 80, 0
2, 85824, Note_on_c, 0, 78, 51
2, 85848, Note_on_c, 0, 59, 0
2, 85884, Note_on_c, 0, 56, 53
2, 85888, Note_on_c, 0, 64, 0
2, 85901, Note_on_c, 0, 76, 0
2, 85907, Note_on_c, 0, 59, 53
2, 85919, Control_c, 0, 64, 0
2, 85926, Note_on_c, 0, 68, 0
2, 85936, Note_on_c, 0, 71, 48
2, 85959, Note_on_c, 0, 64, 66
2, 85967, Note_on_c, 0, 78, 0
2, 85970, Note_on_c, 0, 76, 56
2, 85972, Note_on_c, 0, 52, 0
2, 86049, Control_c, 0, 64, 127
2, 86107, Note_on_c, 0, 83, 59
2, 86120, Note_on_c, 0, 71, 0
2, 86143, Note_on_c, 0, 76, 0
2, 86153, Note_on_c, 0, 59, 0
2, 86164, Note_on_c, 0, 56, 0
2, 86185, Note_on_c, 0, 71, 41
2, 86208, Note_on_c, 0, 76, 45
2, 86216, Note_on_c, 0, 59, 48
2, 86230, Note_on_c, 0, 52, 44
2, 86230, Note_on_c, 0, 56, 47
2, 86235, Note_on_c, 0, 86, 59
2, 86308, Note_on_c, 0, 83, 0
2, 86376, Note_on_c, 0, 83, 60
2, 86400, Note_on_c, 0, 64, 0
2, 86406, Note_on_c, 0, 86, 0
2, 86418, Note_on_c, 0, 57, 46
2, 86424, Note_on_c, 0, 52, 0
2, 86424, Note_on_c, 0, 59, 0
2, 86424, Note_on_c, 0, 56, 0
2, 86435, Note_on_c, 0, 76, 0
2, 86443, Note_on_c, 0, 61, 46
2, 86454, Control_c, 0, 64, 0
2, 86466, Note_on_c, 0, 64, 64
2, 86473, Note_on_c, 0, 71, 0
2, 86479, Note_on_c, 0, 73, 45
2, 86483, Note_on_c, 0, 64, 0
2, 86504, Note_on_c, 0, 76, 46
2, 86531, Note_on_c, 0, 85, 59
2, 86544, Note_on_c, 0, 76, 0
2, 86546, Note_on_c, 0, 83, 0
2, 86550, Note_on_c, 0, 64, 67
2, 86614, Note_on_c, 0, 76, 66
2, 86679, Note_on_c, 0, 83, 51
2, 86710, Note_on_c, 0, 85, 0
2, 86784, Note_on_c, 0, 81, 51
2, 86813, Note_on_c, 0, 83, 0
2, 86834, Control_c, 0, 64, 127
2, 86928, Note_on_c, 0, 57, 0
2, 86928, Note_on_c, 0, 80, 46
2, 86941, Note_on_c, 0, 73, 0
2, 86943, Note_on_c, 0, 81, 0
2, 86952, Note_on_c, 0, 61, 0
2, 86981, Note_on_c, 0, 57, 48
2, 86987, Note_on_c, 0, 64, 0
2, 87000, Note_on_c, 0, 76, 0
2, 87004, Control_c, 0, 64, 0
2, 87006, Note_on_c, 0, 73, 48
2, 87018, Note_on_c, 0, 61, 54
2, 87050, Note_on_c, 0, 80, 0
2, 87054, Note_on_c, 0, 64, 57
2, 87056, Note_on_c, 0, 81, 56
2, 87180, Control_c, 0, 64, 127
2, 87188, Note_on_c, 0, 76, 51
2, 87241, Note_on_c, 0, 76, 0
2, 87249, Note_on_c, 0, 69, 43
2, 87278, Note_on_c, 0, 57, 0
2, 87309, Note_on_c, 0, 76, 44
2, 87330, Note_on_c, 0, 49, 45
2, 87330, Note_on_c, 0, 52, 47
2, 87343, Note_on_c, 0, 57, 45
2, 87360, Note_on_c, 0, 85, 66
2, 87424, Note_on_c, 0, 81, 0
2, 87449, Control_c, 0, 64, 0
2, 87489, Note_on_c, 0, 81, 48
2, 87501, Note_on_c, 0, 52, 0
2, 87577, Control_c, 0, 67, 127
2, 87579, Note_on_c, 0, 52, 42
2, 87589, Note_on_c, 0, 76, 0
2, 87597, Note_on_c, 0, 57, 0
2, 87599, Note_on_c, 0, 61, 0
2, 87599, Note_on_c, 0, 49, 0
2, 87604, Note_on_c, 0, 56, 44
2, 87606, Control_c, 0, 67, 0
2, 87612, Note_on_c, 0, 64, 0
2, 87612, Note_on_c, 0, 69, 0
2, 87614, Note_on_c, 0, 73, 0
2, 87618, Note_on_c, 0, 85, 0
2, 87622, Note_on_c, 0, 68, 44
2, 87629, Note_on_c, 0, 59, 44
2, 87639, Control_c, 0, 67, 127
2, 87656, Note_on_c, 0, 76, 42
2, 87691, Note_on_c, 0, 64, 47
2, 87695, Note_on_c, 0, 83, 58
2, 87710, Note_on_c, 0, 64, 0
2, 87725, Control_c, 0, 67, 0
2, 87744, Note_on_c, 0, 76, 0
2, 87760, Control_c, 0, 67, 127
2, 87764, Note_on_c, 0, 64, 47
2, 87771, Note_on_c, 0, 81, 0
2, 87863, Note_on_c, 0, 76, 60
2, 88034, Control_c, 0, 67, 0
2, 88067, Control_c, 0, 67, 127
2, 88216, Control_c, 0, 67, 0
2, 88248, Control_c, 0, 67, 127
2, 88275, Control_c, 0, 64, 127
2, 88374, Note_on_c, 0, 59, 0
2, 88374, Note_on_c, 0, 52, 0
2, 88376, Note_on_c, 0, 64, 0
2, 88376, Note_on_c, 0, 56, 0
2, 88382, Note_on_c, 0, 57, 48
2, 88393, Control_c, 0, 64, 0
2, 88393, Control_c, 0, 67, 0
2, 88418, Note_on_c, 0, 61, 58
2, 88422, Note_on_c, 0, 76, 0
2, 88426, Note_on_c, 0, 68, 0
2, 88426, Note_on_c, 0, 83, 0
2, 88426, Control_c, 0, 67, 127
2, 88432, Note_on_c, 0, 73, 54
2, 88441, Note_on_c, 0, 69, 53
2, 88447, Note_on_c, 0, 73, 0
2, 88451, Control_c, 0, 67, 0
2, 88464, Note_on_c, 0, 74, 51
2, 88480, Note_on_c, 0, 74, 0
2, 88484, Control_c, 0, 67, 127
2, 88501, Note_on_c, 0, 73, 54
2, 88518, Note_on_c, 0, 73, 0
2, 88534, Note_on_c, 0, 74, 53
2, 88564, Note_on_c, 0, 74, 0
2, 88572, Note_on_c, 0, 73, 44
2, 88599, Note_on_c, 0, 61, 0
2, 88599, Note_on_c, 0, 57, 0
2, 88601, Note_on_c, 0, 69, 0
2, 88601, Note_on_c, 0, 73, 0
2, 88605, Note_on_c, 0, 56, 50
2, 88605, Note_on_c, 0, 59, 51
2, 88607, Note_on_c, 0, 71, 58
2, 88622, Note_on_c, 0, 68, 43
2, 88748, Note_on_c, 0, 71, 0
2, 88750, Note_on_c, 0, 68, 0
2, 88752, Control_c, 0, 67, 0
2, 88753, Note_on_c, 0, 73, 56
2, 88755, Note_on_c, 0, 59, 0
2, 88759, Note_on_c, 0, 56, 0
2, 88765, Note_on_c, 0, 57, 47
2, 88765, Note_on_c, 0, 61, 48
2, 88767, Note_on_c, 0, 69, 45
2, 88784, Control_c, 0, 67, 127
2, 88800, Control_c, 0, 64, 127
2, 88874, Control_c, 0, 64, 0
2, 88890, Note_on_c, 0, 69, 0
2, 88890, Note_on_c, 0, 73, 0
2, 88890, Note_on_c, 0, 57, 0
2, 88890, Note_on_c, 0, 61, 0
2, 88896, Note_on_c, 0, 59, 43
2, 88896, Note_on_c, 0, 62, 45
2, 88896, Note_on_c, 0, 74, 56
2, 88911, Note_on_c, 0, 71, 47
2, 88953, Note_on_c, 0, 45, 47
2, 89003, Note_on_c, 0, 52, 42
2, 89009, Note_on_c, 0, 62, 0
2, 89009, Note_on_c, 0, 59, 0
2, 89032, Note_on_c, 0, 74, 0
2, 89036, Note_on_c, 0, 71, 0
2, 89040, Note_on_c, 0, 61, 43
2, 89040, Note_on_c, 0, 76, 59
2, 89051, Note_on_c, 0, 64, 47
2, 89051, Note_on_c, 0, 73, 48
2, 89105, Control_c, 0, 67, 0
2, 89132, Control_c, 0, 64, 127
2, 89139, Control_c, 0, 67, 127
2, 89180, Note_on_c, 0, 66, 66
2, 89180, Note_on_c, 0, 69, 60
2, 89180, Note_on_c, 0, 81, 61
2, 89184, Note_on_c, 0, 64, 0
2, 89193, Note_on_c, 0, 78, 43
2, 89243, Note_on_c, 0, 76, 0
2, 89285, Control_c, 0, 64, 0
2, 89303, Note_on_c, 0, 73, 0
2, 89312, Note_on_c, 0, 52, 0
2, 89312, Note_on_c, 0, 61, 0
2, 89312, Note_on_c, 0, 45, 0
2, 89322, Note_on_c, 0, 64, 48
2, 89324, Note_on_c, 0, 68, 58
2, 89324, Note_on_c, 0, 80, 59
2, 89333, Note_on_c, 0, 76, 48
2, 89341, Note_on_c, 0, 78, 0
2, 89341, Note_on_c, 0, 81, 0
2, 89351, Note_on_c, 0, 66, 0
2, 89362, Note_on_c, 0, 69, 0
2, 89402, Control_c, 0, 67, 0
2, 89437, Control_c, 0, 67, 127
2, 89458, Note_on_c, 0, 62, 43
2, 89466, Control_c, 0, 67, 0
2, 89470, Note_on_c, 0, 66, 55
2, 89470, Note_on_c, 0, 78, 54
2, 89481, Note_on_c, 0, 74, 48
2, 89498, Note_on_c, 0, 76, 0
2, 89498, Control_c, 0, 67, 127
2, 89500, Note_on_c, 0, 68, 0
2, 89500, Note_on_c, 0, 64, 0
2, 89502, Note_on_c, 0, 80, 0
2, 89529, Control_c, 0, 67, 0
2, 89556, Note_on_c, 0, 61, 46
2, 89564, Control_c, 0, 67, 127
2, 89583, Note_on_c, 0, 69, 46
2, 89587, Note_on_c, 0, 61, 0
2, 89587, Note_on_c, 0, 62, 0
2, 89591, Control_c, 0, 67, 0
2, 89596, Note_on_c, 0, 74, 0
2, 89596, Note_on_c, 0, 66, 0
2, 89604, Note_on_c, 0, 33, 59
2, 89604, Note_on_c, 0, 45, 59
2, 89606, Note_on_c, 0, 73, 41
2, 89612, Note_on_c, 0, 78, 0
2, 89623, Control_c, 0, 67, 127
2, 89629, Note_on_c, 0, 76, 61
2, 89633, Note_on_c, 0, 45, 0
2, 89633, Note_on_c, 0, 33, 0
2, 89635, Note_on_c, 0, 69, 0
2, 89650, Control_c, 0, 67, 0
2, 89662, Note_on_c, 0, 73, 0
2, 89685, Control_c, 0, 67, 127
2, 89712, Control_c, 0, 67, 0
2, 89744, Control_c, 0, 67, 127
2, 89746, Note_on_c, 0, 76, 0
2, 89752, Note_on_c, 0, 37, 55
2, 89756, Note_on_c, 0, 49, 54
2, 89773, Control_c, 0, 67, 0
2, 89783, Note_on_c, 0, 49, 0
2, 89783, Note_on_c, 0, 37, 0
2, 89806, Control_c, 0, 67, 127
2, 89834, Control_c, 0, 67, 0
2, 89838, Note_on_c, 0, 61, 41
2, 89867, Control_c, 0, 67, 127
2, 89877, Note_on_c, 0, 69, 57
2, 89894, Control_c, 0, 67, 0
2, 89898, Note_on_c, 0, 40, 60
2, 89898, Note_on_c, 0, 52, 56
2, 89898, Note_on_c, 0, 73, 56
2, 89909, Note_on_c, 0, 76, 59
2, 89915, Note_on_c, 0, 61, 0
2, 89927, Note_on_c, 0, 52, 0
2, 89927, Note_on_c, 0, 40, 0
2, 89927, Control_c, 0, 67, 127
2, 89938, Note_on_c, 0, 69, 0
2, 89953, Control_c, 0, 67, 0
2, 89963, Note_on_c, 0, 73, 0
2, 90028, Note_on_c, 0, 45, 57
2, 90034, Note_on_c, 0, 76, 0
2, 90042, Note_on_c, 0, 57, 60
2, 90069, Note_on_c, 0, 57, 0
2, 90069, Note_on_c, 0, 45, 0
2, 90111, Note_on_c, 0, 61, 44
2, 90136, Note_on_c, 0, 69, 43
2, 90159, Note_on_c, 0, 73, 42
2, 90172, Note_on_c, 0, 33, 48
2, 90184, Note_on_c, 0, 45, 51
2, 90184, Note_on_c, 0, 76, 60
2, 90245, Control_c, 0, 64, 127
2, 90297, Note_on_c, 0, 45, 0
2, 90360, Note_on_c, 0, 45, 47
2, 90380, Note_on_c, 0, 69, 0
2, 90391, Note_on_c, 0, 61, 0
2, 90405, Note_on_c, 0, 73, 0
2, 90410, Note_on_c, 0, 52, 52
2, 90412, Note_on_c, 0, 64, 54
2, 90447, Note_on_c, 0, 69, 45
2, 90456, Note_on_c, 0, 61, 48
2, 90472, Note_on_c, 0, 73, 57
2, 90547, Control_c, 0, 64, 0
2, 90612, Note_on_c, 0, 74, 60
2, 90624, Note_on_c, 0, 59, 52
2, 90625, Note_on_c, 0, 62, 50
2, 90629, Note_on_c, 0, 69, 0
2, 90639, Note_on_c, 0, 71, 42
2, 90654, Note_on_c, 0, 61, 0
2, 90664, Note_on_c, 0, 64, 0
2, 90673, Note_on_c, 0, 76, 0
2, 90675, Note_on_c, 0, 73, 0
2, 90756, Note_on_c, 0, 71, 0
2, 90762, Note_on_c, 0, 76, 58
2, 90764, Note_on_c, 0, 73, 60
2, 90766, Note_on_c, 0, 59, 0
2, 90768, Note_on_c, 0, 33, 0
2, 90768, Note_on_c, 0, 52, 0
2, 90768, Note_on_c, 0, 45, 0
2, 90773, Note_on_c, 0, 61, 49
2, 90773, Note_on_c, 0, 64, 52
2, 90798, Note_on_c, 0, 74, 0
2, 90814, Note_on_c, 0, 62, 0
2, 90835, Note_on_c, 0, 73, 0
2, 90835, Note_on_c, 0, 61, 0
2, 90900, Note_on_c, 0, 61, 54
2, 90900, Note_on_c, 0, 73, 48
2, 90902, Note_on_c, 0, 57, 50
2, 90913, Note_on_c, 0, 69, 53
2, 90927, Control_c, 0, 67, 127
2, 90929, Control_c, 0, 64, 127
2, 90954, Note_on_c, 0, 76, 0
2, 90954, Control_c, 0, 67, 0
2, 90956, Note_on_c, 0, 64, 0
2, 90986, Control_c, 0, 67, 127
2, 90992, Control_c, 0, 64, 0
2, 91013, Control_c, 0, 67, 0
2, 91048, Control_c, 0, 67, 127
2, 91069, Note_on_c, 0, 74, 57
2, 91071, Note_on_c, 0, 62, 49
2, 91071, Note_on_c, 0, 66, 61
2, 91071, Note_on_c, 0, 78, 61
2, 91075, Control_c, 0, 67, 0
2, 91107, Control_c, 0, 67, 127
2, 91113, Note_on_c, 0, 73, 0
2, 91113, Note_on_c, 0, 61, 0
2, 91196, Control_c, 0, 67, 0
2, 91219, Note_on_c, 0, 61, 45
2, 91223, Note_on_c, 0, 66, 0
2, 91223, Note_on_c, 0, 62, 0
2, 91228, Control_c, 0, 67, 127
2, 91230, Note_on_c, 0, 64, 49
2, 91244, Note_on_c, 0, 74, 0
2, 91253, Note_on_c, 0, 73, 49
2, 91263, Note_on_c, 0, 76, 54
2, 91282, Note_on_c, 0, 78, 0
2, 91313, Control_c, 0, 67, 0
2, 91336, Note_on_c, 0, 76, 0
2, 91345, Control_c, 0, 67, 127
2, 91359, Note_on_c, 0, 73, 0
2, 91368, Note_on_c, 0, 78, 55
2, 91372, Control_c, 0, 67, 0
2, 91392, Note_on_c, 0, 45, 43
2, 91401, Note_on_c, 0, 76, 57
2, 91405, Control_c, 0, 67, 127
2, 91409, Note_on_c, 0, 57, 0
2, 91409, Note_on_c, 0, 69, 0
2, 91409, Note_on_c, 0, 61, 0
2, 91411, Note_on_c, 0, 64, 0
2, 91415, Note_on_c, 0, 52, 47
2, 91415, Note_on_c, 0, 73, 47
2, 91420, Note_on_c, 0, 78, 0
2, 91464, Note_on_c, 0, 64, 53
2, 91468, Control_c, 0, 64, 127
2, 91489, Control_c, 0, 67, 0
2, 91522, Control_c, 0, 67, 127
2, 91547, Control_c, 0, 67, 0
2, 91580, Control_c, 0, 67, 127
2, 91711, Control_c, 0, 64, 0
2, 91750, Note_on_c, 0, 59, 48
2, 91750, Note_on_c, 0, 62, 42
2, 91750, Note_on_c, 0, 71, 48
2, 91750, Note_on_c, 0, 74, 50
2, 91790, Note_on_c, 0, 76, 0
2, 91790, Note_on_c, 0, 73, 0
2, 91792, Note_on_c, 0, 64, 0
2, 91910, Control_c, 0, 67, 0
2, 91944, Control_c, 0, 67, 127
2, 91950, Note_on_c, 0, 71, 0
2, 91950, Note_on_c, 0, 59, 0
2, 91956, Note_on_c, 0, 57, 46
2, 91956, Note_on_c, 0, 69, 50
2, 91956, Note_on_c, 0, 73, 49
2, 91960, Note_on_c, 0, 61, 46
2, 91971, Control_c, 0, 67, 0
2, 92004, Control_c, 0, 67, 127
2, 92008, Note_on_c, 0, 74, 0
2, 92010, Note_on_c, 0, 62, 0
2, 92054, Note_on_c, 0, 73, 0
2, 92087, Control_c, 0, 67, 0
2, 92088, Note_on_c, 0, 52, 0
2, 92119, Control_c, 0, 67, 127
2, 92131, Note_on_c, 0, 73, 47
2, 92138, Note_on_c, 0, 69, 0
2, 92146, Control_c, 0, 67, 0
2, 92152, Note_on_c, 0, 45, 0
2, 92152, Note_on_c, 0, 61, 0
2, 92152, Note_on_c, 0, 57, 0
2, 92179, Control_c, 0, 67, 127
2, 92181, Note_on_c, 0, 52, 45
2, 92183, Note_on_c, 0, 40, 48
2, 92186, Control_c, 0, 64, 127
2, 92192, Note_on_c, 0, 76, 52
2, 92194, Note_on_c, 0, 85, 47
2, 92345, Control_c, 0, 64, 0
2, 92389, Control_c, 0, 67, 0
2, 92422, Note_on_c, 0, 59, 44
2, 92422, Note_on_c, 0, 83, 51
2, 92422, Control_c, 0, 67, 127
2, 92425, Note_on_c, 0, 76, 0
2, 92429, Note_on_c, 0, 52, 0
2, 92431, Note_on_c, 0, 40, 0
2, 92431, Note_on_c, 0, 74, 44
2, 92433, Note_on_c, 0, 71, 43
2, 92435, Note_on_c, 0, 50, 41
2, 92447, Control_c, 0, 67, 0
2, 92464, Note_on_c, 0, 73, 0
2, 92477, Note_on_c, 0, 85, 0
2, 92481, Control_c, 0, 67, 127
2, 92510, Control_c, 0, 67, 0
2, 92543, Control_c, 0, 67, 127
2, 92571, Control_c, 0, 67, 0
2, 92604, Control_c, 0, 67, 127
2, 92633, Control_c, 0, 67, 0
2, 92665, Control_c, 0, 67, 127
2, 92696, Control_c, 0, 67, 0
2, 92706, Note_on_c, 0, 81, 46
2, 92717, Note_on_c, 0, 69, 43
2, 92717, Note_on_c, 0, 73, 47
2, 92719, Note_on_c, 0, 57, 45
2, 92723, Note_on_c, 0, 49, 46
2, 92729, Control_c, 0, 67, 127
2, 92758, Note_on_c, 0, 74, 0
2, 92760, Note_on_c, 0, 71, 0
2, 92769, Note_on_c, 0, 59, 0
2, 92771, Note_on_c, 0, 50, 0
2, 92781, Note_on_c, 0, 83, 0
2, 92794, Control_c, 0, 64, 127
2, 92875, Control_c, 0, 67, 0
2, 92880, Control_c, 0, 64, 0
2, 92907, Control_c, 0, 67, 127
2, 93025, Note_on_c, 0, 47, 42
2, 93025, Note_on_c, 0, 56, 46
2, 93025, Note_on_c, 0, 68, 42
2, 93025, Note_on_c, 0, 71, 41
2, 93025, Note_on_c, 0, 80, 41
2, 93073, Note_on_c, 0, 73, 0
2, 93075, Note_on_c, 0, 57, 0
2, 93075, Note_on_c, 0, 69, 0
2, 93079, Note_on_c, 0, 49, 0
2, 93102, Note_on_c, 0, 81, 0
2, 93112, Control_c, 0, 67, 0
2, 93144, Control_c, 0, 67, 127
2, 93173, Control_c, 0, 67, 0
2, 93206, Control_c, 0, 67, 127
2, 93320, Note_on_c, 0, 33, 46
2, 93351, Control_c, 0, 67, 0
2, 93385, Control_c, 0, 67, 127
2, 93414, Control_c, 0, 67, 0
2, 93439, Note_on_c, 0, 45, 48
2, 93447, Control_c, 0, 67, 127
2, 93533, Control_c, 0, 67, 0
2, 93539, Note_on_c, 0, 45, 0
2, 93568, Control_c, 0, 67, 127
2, 93599, Note_on_c, 0, 71, 0
2, 93599, Note_on_c, 0, 80, 0
2, 93599, Note_on_c, 0, 56, 0
2, 93600, Note_on_c, 0, 47, 0
2, 93600, Note_on_c, 0, 68, 0
2, 93604, Note_on_c, 0, 73, 52
2, 93604, Note_on_c, 0, 76, 47
2, 93604, Note_on_c, 0, 81, 53
2, 93606, Note_on_c, 0, 52, 43
2, 93606, Note_on_c, 0, 57, 41
2, 93606, Note_on_c, 0, 69, 49
2, 93608, Note_on_c, 0, 45, 45
2, 93608, Note_on_c, 0, 49, 45
2, 93625, Note_on_c, 0, 33, 0
2, 93670, Control_c, 0, 64, 127
2, 93924, Control_c, 0, 64, 0
2, 94073, Control_c, 0, 67, 0
2, 94105, Control_c, 0, 67, 127
2, 94544, Control_c, 0, 67, 0
2, 94577, Control_c, 0, 67, 127
2, 94724, Control_c, 0, 67, 0
2, 94756, Control_c, 0, 67, 127
2, 94785, Control_c, 0, 67, 0
2, 94818, Control_c, 0, 67, 127
2, 94850, Control_c, 0, 67, 0
2, 94883, Control_c, 0, 67, 127
2, 94910, Control_c, 0, 67, 0
2, 94956, Control_c, 0, 67, 127
2, 94994, Control_c, 0, 67, 0
2, 95023, Note_on_c, 0, 81, 0
2, 95023, Note_on_c, 0, 73, 0
2, 95023, Note_on_c, 0, 76, 0
2, 95025, Note_on_c, 0, 69, 0
2, 95027, Note_on_c, 0, 52, 0
2, 95027, Note_on_c, 0, 45, 0
2, 95027, Note_on_c, 0, 57, 0
2, 95029, Note_on_c, 0, 49, 0
2, 95029, End_track
3, 0, Start_track
3, 0, Title_t, "c/b Gluck & Brahms"
3, 0, End_track
4, 0, Start_track
4, 0, Title_t, "p/b Mischa Levitski"
4, 0, End_track
5, 0, Start_track
5, 0, Title_t, "Ampico # 57564"
5, 0, End_track
6, 0, Start_track
6, 0, Title_t, "Scan of a player piano roll"
6, 0, End_track
7, 0, Start_track
7, 0, Title_t, "by Terry Smythe, Winnipeg, Canada"
7, 0, End_track
8, 0, Start_track
8, 1, Copyright_t, "\012__________________________________________________________\012Kunst der Fuge comment: this is the Contributor's property.\012Can *not* be used for commercial purposes without authorization!\012Copyright by Contributor - Kunst der Fuge,  2002-05\012http://www.kunstderfuge.com/thanks.htm -> Contributors' list\012http://www.kunstderfuge.com/notes.htm -> Terms & conditions"
8, 1, End_track
0, 0, End_of_file
