0, 0, Header, 1, 5, 480
1, 0, Start_track
1, 0, Title_t, "brahms hungarian dance no2 in dminor 4hands"
1, 0, Copyright_t, "Segundo G. Yogore,  dody@info.com.ph \012__________________________________________________________\012Kunst der Fuge comment: this is the Contributor's property.\012Can *not* be used for commercial purposes without authorization!\012Copyright by Contributor - Kunst der Fuge, © 2002-05\012http://www.kunstderfuge.com/thanks.htm -> Contributors' list\012http://www.kunstderfuge.com/notes.htm -> Terms & conditions"
1, 0, Text_t, "sequenced by Segundo G. Yogore, 2004\012"
1, 0, Time_signature, 2, 2, 24, 8
1, 0, Key_signature, -1, "major"
1, 0, Tempo, 428571
1, 11760, Tempo, 437956
1, 12000, Tempo, 447761
1, 12240, Tempo, 458015
1, 12480, Tempo, 472441
1, 12720, Tempo, 483871
1, 12960, Tempo, 495868
1, 13200, Tempo, 508475
1, 13440, Tempo, 526316
1, 15360, Tempo, 428571
1, 27120, Tempo, 437956
1, 27360, Tempo, 447761
1, 27600, Tempo, 458015
1, 27840, Tempo, 472441
1, 28080, Tempo, 483871
1, 28320, Tempo, 495868
1, 28560, Tempo, 508475
1, 28800, Tempo, 526316
1, 30720, Tempo, 428571
1, 38400, Tempo, 461538
1, 42480, Tempo, 472441
1, 42720, Tempo, 483871
1, 42960, Tempo, 495868
1, 43200, Tempo, 512821
1, 43440, Tempo, 526316
1, 43680, Tempo, 540541
1, 43920, Tempo, 555556
1, 44160, Tempo, 576923
1, 46080, Tempo, 428571
1, 53760, Tempo, 461538
1, 57840, Tempo, 472441
1, 58080, Tempo, 483871
1, 58320, Tempo, 495868
1, 58560, Tempo, 512821
1, 58800, Tempo, 526316
1, 59040, Tempo, 540541
1, 59280, Tempo, 555556
1, 59520, Tempo, 576923
1, 61440, Tempo, 428571
1, 73200, Tempo, 437956
1, 73440, Tempo, 447761
1, 73680, Tempo, 458015
1, 73920, Tempo, 472441
1, 74160, Tempo, 483871
1, 74400, Tempo, 495868
1, 74640, Tempo, 508475
1, 74880, Tempo, 526316
1, 75840, Time_signature, 3, 2, 24, 8
1, 77280, Time_signature, 2, 2, 24, 8
1, 77280, Key_signature, 2, "major"
1, 77280, Tempo, 375000
1, 110880, Time_signature, 3, 2, 24, 8
1, 112320, Time_signature, 2, 2, 24, 8
1, 112320, Key_signature, -1, "major"
1, 112320, Tempo, 428571
1, 124080, Tempo, 437956
1, 124320, Tempo, 447761
1, 124560, Tempo, 458015
1, 124800, Tempo, 472441
1, 125040, Tempo, 483871
1, 125280, Tempo, 495868
1, 125520, Tempo, 508475
1, 125760, Tempo, 526316
1, 127680, Tempo, 428571
1, 139440, Tempo, 437956
1, 139680, Tempo, 447761
1, 139920, Tempo, 458015
1, 140160, Tempo, 472441
1, 140400, Tempo, 483871
1, 140640, Tempo, 495868
1, 140880, Tempo, 508475
1, 141120, Tempo, 526316
1, 143040, Tempo, 428571
1, 150720, Tempo, 461538
1, 154800, Tempo, 472441
1, 155040, Tempo, 483871
1, 155280, Tempo, 495868
1, 155520, Tempo, 512821
1, 155760, Tempo, 526316
1, 156000, Tempo, 540541
1, 156240, Tempo, 555556
1, 156480, Tempo, 576923
1, 158400, Tempo, 428571
1, 166080, Tempo, 461538
1, 170160, Tempo, 472441
1, 170400, Tempo, 483871
1, 170640, Tempo, 495868
1, 170880, Tempo, 512821
1, 171120, Tempo, 526316
1, 171360, Tempo, 540541
1, 171600, Tempo, 555556
1, 171840, Tempo, 576923
1, 173760, Tempo, 428571
1, 185520, Tempo, 437956
1, 185760, Tempo, 447761
1, 186000, Tempo, 458015
1, 186240, Tempo, 472441
1, 186480, Tempo, 483871
1, 186720, Tempo, 495868
1, 186960, Tempo, 508475
1, 187200, Tempo, 526316
1, 189120, Tempo, 545455
1, 191280, Tempo, 428571
1, 192960, Time_signature, 6, 2, 24, 8
1, 192960, End_track
2, 0, Start_track
2, 0, Title_t, "Grand Piano"
2, 0, Program_c, 0, 0
2, 0, Control_c, 0, 7, 110
2, 0, Control_c, 0, 10, 97
2, 0, Note_on_c, 0, 81, 114
2, 720, Note_on_c, 0, 81, 0
2, 720, Note_on_c, 0, 81, 88
2, 1200, Note_on_c, 0, 81, 0
2, 1200, Note_on_c, 0, 80, 88
2, 1320, Note_on_c, 0, 80, 0
2, 1320, Note_on_c, 0, 81, 88
2, 1440, Note_on_c, 0, 81, 0
2, 1440, Note_on_c, 0, 82, 101
2, 1560, Note_on_c, 0, 82, 0
2, 1560, Note_on_c, 0, 81, 101
2, 1680, Note_on_c, 0, 81, 0
2, 1680, Note_on_c, 0, 80, 101
2, 1800, Note_on_c, 0, 80, 0
2, 1800, Note_on_c, 0, 81, 101
2, 1920, Note_on_c, 0, 81, 0
2, 1920, Note_on_c, 0, 81, 114
2, 1920, Note_on_c, 0, 86, 114
2, 1920, Note_on_c, 0, 89, 114
2, 2640, Note_on_c, 0, 89, 0
2, 2640, Note_on_c, 0, 86, 0
2, 2640, Note_on_c, 0, 81, 0
2, 2640, Note_on_c, 0, 86, 114
2, 2880, Note_on_c, 0, 86, 0
2, 2880, Note_on_c, 0, 81, 101
2, 3360, Note_on_c, 0, 81, 0
2, 3360, Note_on_c, 0, 77, 88
2, 3840, Note_on_c, 0, 77, 0
2, 3840, Note_on_c, 0, 74, 88
2, 3840, Note_on_c, 0, 79, 88
2, 4560, Note_on_c, 0, 79, 0
2, 4560, Note_on_c, 0, 74, 0
2, 4560, Note_on_c, 0, 79, 88
2, 5040, Note_on_c, 0, 79, 0
2, 5040, Note_on_c, 0, 78, 88
2, 5160, Note_on_c, 0, 78, 0
2, 5160, Note_on_c, 0, 79, 88
2, 5280, Note_on_c, 0, 79, 0
2, 5280, Note_on_c, 0, 81, 101
2, 5400, Note_on_c, 0, 81, 0
2, 5400, Note_on_c, 0, 79, 101
2, 5520, Note_on_c, 0, 79, 0
2, 5520, Note_on_c, 0, 78, 101
2, 5640, Note_on_c, 0, 78, 0
2, 5640, Note_on_c, 0, 79, 101
2, 5760, Note_on_c, 0, 79, 0
2, 5760, Note_on_c, 0, 79, 114
2, 5760, Note_on_c, 0, 82, 114
2, 6480, Note_on_c, 0, 82, 0
2, 6480, Note_on_c, 0, 79, 0
2, 6480, Note_on_c, 0, 79, 114
2, 6720, Note_on_c, 0, 79, 0
2, 6720, Note_on_c, 0, 76, 101
2, 7200, Note_on_c, 0, 76, 0
2, 7200, Note_on_c, 0, 73, 88
2, 7680, Note_on_c, 0, 73, 0
2, 7680, Note_on_c, 0, 74, 88
2, 8280, Note_on_c, 0, 74, 0
2, 8280, Note_on_c, 0, 73, 88
2, 8400, Note_on_c, 0, 73, 0
2, 8400, Note_on_c, 0, 74, 88
2, 8520, Note_on_c, 0, 74, 0
2, 8520, Note_on_c, 0, 76, 88
2, 8640, Note_on_c, 0, 76, 0
2, 8640, Note_on_c, 0, 74, 88
2, 9120, Note_on_c, 0, 74, 0
2, 9120, Note_on_c, 0, 70, 88
2, 9600, Note_on_c, 0, 70, 0
2, 9600, Note_on_c, 0, 69, 88
2, 10320, Note_on_c, 0, 69, 0
2, 10320, Note_on_c, 0, 69, 114
2, 10800, Note_on_c, 0, 69, 0
2, 10800, Note_on_c, 0, 68, 88
2, 10920, Note_on_c, 0, 68, 0
2, 10920, Note_on_c, 0, 69, 88
2, 11040, Note_on_c, 0, 69, 0
2, 11040, Note_on_c, 0, 70, 88
2, 11160, Note_on_c, 0, 70, 0
2, 11160, Note_on_c, 0, 69, 88
2, 11280, Note_on_c, 0, 69, 0
2, 11280, Note_on_c, 0, 68, 88
2, 11400, Note_on_c, 0, 68, 0
2, 11400, Note_on_c, 0, 69, 88
2, 11520, Note_on_c, 0, 69, 0
2, 11520, Note_on_c, 0, 65, 114
2, 12120, Note_on_c, 0, 65, 0
2, 12120, Note_on_c, 0, 64, 88
2, 12240, Note_on_c, 0, 64, 0
2, 12240, Note_on_c, 0, 65, 88
2, 12360, Note_on_c, 0, 65, 0
2, 12360, Note_on_c, 0, 67, 88
2, 12480, Note_on_c, 0, 67, 0
2, 12480, Note_on_c, 0, 65, 88
2, 12960, Note_on_c, 0, 65, 0
2, 12960, Note_on_c, 0, 64, 88
2, 13440, Note_on_c, 0, 64, 0
2, 13440, Note_on_c, 0, 62, 88
2, 14160, Note_on_c, 0, 62, 0
2, 14160, Note_on_c, 0, 62, 114
2, 14640, Note_on_c, 0, 62, 0
2, 14640, Note_on_c, 0, 61, 88
2, 14760, Note_on_c, 0, 61, 0
2, 14760, Note_on_c, 0, 62, 88
2, 14880, Note_on_c, 0, 62, 0
2, 14880, Note_on_c, 0, 64, 88
2, 15000, Note_on_c, 0, 64, 0
2, 15000, Note_on_c, 0, 62, 88
2, 15120, Note_on_c, 0, 62, 0
2, 15120, Note_on_c, 0, 61, 88
2, 15240, Note_on_c, 0, 61, 0
2, 15240, Note_on_c, 0, 62, 88
2, 15360, Note_on_c, 0, 62, 0
2, 15360, Note_on_c, 0, 81, 114
2, 16080, Note_on_c, 0, 81, 0
2, 16080, Note_on_c, 0, 81, 88
2, 16560, Note_on_c, 0, 81, 0
2, 16560, Note_on_c, 0, 80, 88
2, 16680, Note_on_c, 0, 80, 0
2, 16680, Note_on_c, 0, 81, 88
2, 16800, Note_on_c, 0, 81, 0
2, 16800, Note_on_c, 0, 82, 101
2, 16920, Note_on_c, 0, 82, 0
2, 16920, Note_on_c, 0, 81, 101
2, 17040, Note_on_c, 0, 81, 0
2, 17040, Note_on_c, 0, 80, 101
2, 17160, Note_on_c, 0, 80, 0
2, 17160, Note_on_c, 0, 81, 101
2, 17280, Note_on_c, 0, 81, 0
2, 17280, Note_on_c, 0, 81, 114
2, 17280, Note_on_c, 0, 86, 114
2, 17280, Note_on_c, 0, 89, 114
2, 18000, Note_on_c, 0, 89, 0
2, 18000, Note_on_c, 0, 86, 0
2, 18000, Note_on_c, 0, 81, 0
2, 18000, Note_on_c, 0, 86, 114
2, 18240, Note_on_c, 0, 86, 0
2, 18240, Note_on_c, 0, 81, 101
2, 18720, Note_on_c, 0, 81, 0
2, 18720, Note_on_c, 0, 77, 88
2, 19200, Note_on_c, 0, 77, 0
2, 19200, Note_on_c, 0, 74, 88
2, 19200, Note_on_c, 0, 79, 88
2, 19920, Note_on_c, 0, 79, 0
2, 19920, Note_on_c, 0, 74, 0
2, 19920, Note_on_c, 0, 79, 88
2, 20400, Note_on_c, 0, 79, 0
2, 20400, Note_on_c, 0, 78, 88
2, 20520, Note_on_c, 0, 78, 0
2, 20520, Note_on_c, 0, 79, 88
2, 20640, Note_on_c, 0, 79, 0
2, 20640, Note_on_c, 0, 81, 101
2, 20760, Note_on_c, 0, 81, 0
2, 20760, Note_on_c, 0, 79, 101
2, 20880, Note_on_c, 0, 79, 0
2, 20880, Note_on_c, 0, 78, 101
2, 21000, Note_on_c, 0, 78, 0
2, 21000, Note_on_c, 0, 79, 101
2, 21120, Note_on_c, 0, 79, 0
2, 21120, Note_on_c, 0, 79, 114
2, 21120, Note_on_c, 0, 82, 114
2, 21840, Note_on_c, 0, 82, 0
2, 21840, Note_on_c, 0, 79, 0
2, 21840, Note_on_c, 0, 79, 114
2, 22080, Note_on_c, 0, 79, 0
2, 22080, Note_on_c, 0, 76, 101
2, 22560, Note_on_c, 0, 76, 0
2, 22560, Note_on_c, 0, 73, 88
2, 23040, Note_on_c, 0, 73, 0
2, 23040, Note_on_c, 0, 74, 88
2, 23640, Note_on_c, 0, 74, 0
2, 23640, Note_on_c, 0, 73, 88
2, 23760, Note_on_c, 0, 73, 0
2, 23760, Note_on_c, 0, 74, 88
2, 23880, Note_on_c, 0, 74, 0
2, 23880, Note_on_c, 0, 76, 88
2, 24000, Note_on_c, 0, 76, 0
2, 24000, Note_on_c, 0, 74, 88
2, 24480, Note_on_c, 0, 74, 0
2, 24480, Note_on_c, 0, 70, 88
2, 24960, Note_on_c, 0, 70, 0
2, 24960, Note_on_c, 0, 69, 88
2, 25680, Note_on_c, 0, 69, 0
2, 25680, Note_on_c, 0, 69, 114
2, 26160, Note_on_c, 0, 69, 0
2, 26160, Note_on_c, 0, 68, 88
2, 26280, Note_on_c, 0, 68, 0
2, 26280, Note_on_c, 0, 69, 88
2, 26400, Note_on_c, 0, 69, 0
2, 26400, Note_on_c, 0, 70, 88
2, 26520, Note_on_c, 0, 70, 0
2, 26520, Note_on_c, 0, 69, 88
2, 26640, Note_on_c, 0, 69, 0
2, 26640, Note_on_c, 0, 68, 88
2, 26760, Note_on_c, 0, 68, 0
2, 26760, Note_on_c, 0, 69, 88
2, 26880, Note_on_c, 0, 69, 0
2, 26880, Note_on_c, 0, 65, 114
2, 27480, Note_on_c, 0, 65, 0
2, 27480, Note_on_c, 0, 64, 88
2, 27600, Note_on_c, 0, 64, 0
2, 27600, Note_on_c, 0, 65, 88
2, 27720, Note_on_c, 0, 65, 0
2, 27720, Note_on_c, 0, 67, 88
2, 27840, Note_on_c, 0, 67, 0
2, 27840, Note_on_c, 0, 65, 88
2, 28320, Note_on_c, 0, 65, 0
2, 28320, Note_on_c, 0, 64, 88
2, 28800, Note_on_c, 0, 64, 0
2, 28800, Note_on_c, 0, 62, 88
2, 29520, Note_on_c, 0, 62, 0
2, 29520, Note_on_c, 0, 62, 114
2, 30000, Note_on_c, 0, 62, 0
2, 30000, Note_on_c, 0, 61, 88
2, 30120, Note_on_c, 0, 61, 0
2, 30120, Note_on_c, 0, 62, 88
2, 30240, Note_on_c, 0, 62, 0
2, 30240, Note_on_c, 0, 64, 88
2, 30360, Note_on_c, 0, 64, 0
2, 30360, Note_on_c, 0, 62, 88
2, 30480, Note_on_c, 0, 62, 0
2, 30480, Note_on_c, 0, 61, 88
2, 30600, Note_on_c, 0, 61, 0
2, 30600, Note_on_c, 0, 62, 88
2, 30720, Note_on_c, 0, 62, 0
2, 30720, Note_on_c, 0, 77, 114
2, 30720, Note_on_c, 0, 83, 114
2, 30720, Note_on_c, 0, 86, 114
2, 31440, Note_on_c, 0, 86, 0
2, 31440, Note_on_c, 0, 83, 0
2, 31440, Note_on_c, 0, 77, 0
2, 31440, Note_on_c, 0, 77, 101
2, 31440, Note_on_c, 0, 83, 101
2, 31440, Note_on_c, 0, 86, 101
2, 31680, Note_on_c, 0, 86, 0
2, 31680, Note_on_c, 0, 83, 0
2, 31680, Note_on_c, 0, 77, 0
2, 31920, Note_on_c, 0, 77, 88
2, 31920, Note_on_c, 0, 81, 88
2, 31920, Note_on_c, 0, 86, 88
2, 32400, Note_on_c, 0, 86, 0
2, 32400, Note_on_c, 0, 81, 0
2, 32400, Note_on_c, 0, 77, 0
2, 32400, Note_on_c, 0, 80, 88
2, 32400, Note_on_c, 0, 88, 88
2, 32640, Note_on_c, 0, 88, 0
2, 32640, Note_on_c, 0, 80, 0
2, 32640, Note_on_c, 0, 76, 88
2, 32640, Note_on_c, 0, 81, 88
2, 32640, Note_on_c, 0, 84, 88
2, 33360, Note_on_c, 0, 84, 0
2, 33360, Note_on_c, 0, 81, 0
2, 33360, Note_on_c, 0, 76, 0
2, 33360, Note_on_c, 0, 83, 75
2, 33600, Note_on_c, 0, 83, 0
2, 33600, Note_on_c, 0, 81, 75
2, 34080, Note_on_c, 0, 81, 0
2, 34080, Note_on_c, 0, 76, 75
2, 34560, Note_on_c, 0, 76, 0
2, 34560, Note_on_c, 0, 77, 114
2, 34560, Note_on_c, 0, 83, 114
2, 34560, Note_on_c, 0, 86, 114
2, 35280, Note_on_c, 0, 86, 0
2, 35280, Note_on_c, 0, 83, 0
2, 35280, Note_on_c, 0, 77, 0
2, 35280, Note_on_c, 0, 77, 101
2, 35280, Note_on_c, 0, 83, 101
2, 35280, Note_on_c, 0, 86, 101
2, 35520, Note_on_c, 0, 86, 0
2, 35520, Note_on_c, 0, 83, 0
2, 35520, Note_on_c, 0, 77, 0
2, 35760, Note_on_c, 0, 77, 88
2, 35760, Note_on_c, 0, 81, 88
2, 35760, Note_on_c, 0, 86, 88
2, 36240, Note_on_c, 0, 86, 0
2, 36240, Note_on_c, 0, 81, 0
2, 36240, Note_on_c, 0, 77, 0
2, 36240, Note_on_c, 0, 80, 88
2, 36240, Note_on_c, 0, 88, 88
2, 36480, Note_on_c, 0, 88, 0
2, 36480, Note_on_c, 0, 80, 0
2, 36720, Note_on_c, 0, 81, 88
2, 36720, Note_on_c, 0, 84, 88
2, 36767, Note_on_c, 0, 84, 0
2, 36767, Note_on_c, 0, 81, 0
2, 37200, Note_on_c, 0, 83, 88
2, 37680, Note_on_c, 0, 83, 0
2, 37680, Note_on_c, 0, 81, 75
2, 38160, Note_on_c, 0, 81, 0
2, 38160, Note_on_c, 0, 76, 75
2, 38400, Note_on_c, 0, 76, 0
2, 38400, Note_on_c, 0, 72, 62
2, 38400, Note_on_c, 0, 75, 62
2, 38400, Note_on_c, 0, 81, 62
2, 39120, Note_on_c, 0, 81, 0
2, 39120, Note_on_c, 0, 75, 0
2, 39120, Note_on_c, 0, 72, 0
2, 39120, Note_on_c, 0, 72, 62
2, 39120, Note_on_c, 0, 75, 62
2, 39120, Note_on_c, 0, 81, 62
2, 39360, Note_on_c, 0, 81, 0
2, 39360, Note_on_c, 0, 75, 0
2, 39360, Note_on_c, 0, 72, 0
2, 39360, Note_on_c, 0, 74, 62
2, 39360, Note_on_c, 0, 80, 62
2, 39840, Note_on_c, 0, 80, 0
2, 39840, Note_on_c, 0, 74, 0
2, 39840, Note_on_c, 0, 77, 62
2, 40320, Note_on_c, 0, 77, 0
2, 40560, Note_on_c, 0, 76, 62
2, 41040, Note_on_c, 0, 76, 0
2, 41040, Note_on_c, 0, 76, 75
2, 41280, Note_on_c, 0, 76, 0
2, 41280, Note_on_c, 0, 81, 88
2, 41760, Note_on_c, 0, 81, 0
2, 41760, Note_on_c, 0, 76, 75
2, 42000, Note_on_c, 0, 76, 0
2, 42240, Note_on_c, 0, 72, 62
2, 42240, Note_on_c, 0, 75, 62
2, 42240, Note_on_c, 0, 81, 62
2, 42960, Note_on_c, 0, 81, 0
2, 42960, Note_on_c, 0, 75, 0
2, 42960, Note_on_c, 0, 72, 0
2, 42960, Note_on_c, 0, 72, 62
2, 42960, Note_on_c, 0, 75, 62
2, 42960, Note_on_c, 0, 81, 62
2, 43200, Note_on_c, 0, 81, 0
2, 43200, Note_on_c, 0, 75, 0
2, 43200, Note_on_c, 0, 72, 0
2, 43440, Note_on_c, 0, 74, 62
2, 43440, Note_on_c, 0, 80, 62
2, 43920, Note_on_c, 0, 80, 0
2, 43920, Note_on_c, 0, 74, 0
2, 43920, Note_on_c, 0, 77, 62
2, 44160, Note_on_c, 0, 77, 0
2, 44160, Note_on_c, 0, 73, 62
2, 44160, Note_on_c, 0, 76, 62
2, 44880, Note_on_c, 0, 76, 0
2, 44880, Note_on_c, 0, 73, 0
2, 44880, Note_on_c, 0, 81, 62
2, 45120, Note_on_c, 0, 81, 0
2, 45120, Note_on_c, 0, 73, 62
2, 45120, Note_on_c, 0, 76, 62
2, 46080, Note_on_c, 0, 76, 0
2, 46080, Note_on_c, 0, 73, 0
2, 46080, Note_on_c, 0, 77, 114
2, 46080, Note_on_c, 0, 83, 114
2, 46080, Note_on_c, 0, 86, 114
2, 46800, Note_on_c, 0, 86, 0
2, 46800, Note_on_c, 0, 83, 0
2, 46800, Note_on_c, 0, 77, 0
2, 46800, Note_on_c, 0, 77, 101
2, 46800, Note_on_c, 0, 83, 101
2, 46800, Note_on_c, 0, 86, 101
2, 47040, Note_on_c, 0, 86, 0
2, 47040, Note_on_c, 0, 83, 0
2, 47040, Note_on_c, 0, 77, 0
2, 47280, Note_on_c, 0, 77, 88
2, 47280, Note_on_c, 0, 81, 88
2, 47280, Note_on_c, 0, 86, 88
2, 47760, Note_on_c, 0, 86, 0
2, 47760, Note_on_c, 0, 81, 0
2, 47760, Note_on_c, 0, 77, 0
2, 47760, Note_on_c, 0, 80, 88
2, 47760, Note_on_c, 0, 88, 88
2, 48000, Note_on_c, 0, 88, 0
2, 48000, Note_on_c, 0, 80, 0
2, 48000, Note_on_c, 0, 76, 88
2, 48000, Note_on_c, 0, 81, 88
2, 48000, Note_on_c, 0, 84, 88
2, 48720, Note_on_c, 0, 84, 0
2, 48720, Note_on_c, 0, 81, 0
2, 48720, Note_on_c, 0, 76, 0
2, 48720, Note_on_c, 0, 83, 75
2, 48960, Note_on_c, 0, 83, 0
2, 48960, Note_on_c, 0, 81, 75
2, 49440, Note_on_c, 0, 81, 0
2, 49440, Note_on_c, 0, 76, 75
2, 49920, Note_on_c, 0, 76, 0
2, 49920, Note_on_c, 0, 77, 114
2, 49920, Note_on_c, 0, 83, 114
2, 49920, Note_on_c, 0, 86, 114
2, 50640, Note_on_c, 0, 86, 0
2, 50640, Note_on_c, 0, 83, 0
2, 50640, Note_on_c, 0, 77, 0
2, 50640, Note_on_c, 0, 77, 101
2, 50640, Note_on_c, 0, 83, 101
2, 50640, Note_on_c, 0, 86, 101
2, 50880, Note_on_c, 0, 86, 0
2, 50880, Note_on_c, 0, 83, 0
2, 50880, Note_on_c, 0, 77, 0
2, 51120, Note_on_c, 0, 77, 88
2, 51120, Note_on_c, 0, 81, 88
2, 51120, Note_on_c, 0, 86, 88
2, 51600, Note_on_c, 0, 86, 0
2, 51600, Note_on_c, 0, 81, 0
2, 51600, Note_on_c, 0, 77, 0
2, 51600, Note_on_c, 0, 80, 88
2, 51600, Note_on_c, 0, 88, 88
2, 51840, Note_on_c, 0, 88, 0
2, 51840, Note_on_c, 0, 80, 0
2, 52080, Note_on_c, 0, 81, 88
2, 52080, Note_on_c, 0, 84, 88
2, 52127, Note_on_c, 0, 84, 0
2, 52127, Note_on_c, 0, 81, 0
2, 52560, Note_on_c, 0, 83, 88
2, 53040, Note_on_c, 0, 83, 0
2, 53040, Note_on_c, 0, 81, 75
2, 53520, Note_on_c, 0, 81, 0
2, 53520, Note_on_c, 0, 76, 75
2, 53760, Note_on_c, 0, 76, 0
2, 53760, Note_on_c, 0, 72, 62
2, 53760, Note_on_c, 0, 75, 62
2, 53760, Note_on_c, 0, 81, 62
2, 54480, Note_on_c, 0, 81, 0
2, 54480, Note_on_c, 0, 75, 0
2, 54480, Note_on_c, 0, 72, 0
2, 54480, Note_on_c, 0, 72, 62
2, 54480, Note_on_c, 0, 75, 62
2, 54480, Note_on_c, 0, 81, 62
2, 54720, Note_on_c, 0, 81, 0
2, 54720, Note_on_c, 0, 75, 0
2, 54720, Note_on_c, 0, 72, 0
2, 54720, Note_on_c, 0, 74, 62
2, 54720, Note_on_c, 0, 80, 62
2, 55200, Note_on_c, 0, 80, 0
2, 55200, Note_on_c, 0, 74, 0
2, 55200, Note_on_c, 0, 77, 62
2, 55680, Note_on_c, 0, 77, 0
2, 55920, Note_on_c, 0, 76, 62
2, 56400, Note_on_c, 0, 76, 0
2, 56400, Note_on_c, 0, 76, 75
2, 56640, Note_on_c, 0, 76, 0
2, 56640, Note_on_c, 0, 81, 88
2, 57120, Note_on_c, 0, 81, 0
2, 57120, Note_on_c, 0, 76, 75
2, 57360, Note_on_c, 0, 76, 0
2, 57600, Note_on_c, 0, 72, 62
2, 57600, Note_on_c, 0, 75, 62
2, 57600, Note_on_c, 0, 81, 62
2, 58320, Note_on_c, 0, 81, 0
2, 58320, Note_on_c, 0, 75, 0
2, 58320, Note_on_c, 0, 72, 0
2, 58320, Note_on_c, 0, 72, 62
2, 58320, Note_on_c, 0, 75, 62
2, 58320, Note_on_c, 0, 81, 62
2, 58560, Note_on_c, 0, 81, 0
2, 58560, Note_on_c, 0, 75, 0
2, 58560, Note_on_c, 0, 72, 0
2, 58800, Note_on_c, 0, 74, 62
2, 58800, Note_on_c, 0, 80, 62
2, 59280, Note_on_c, 0, 80, 0
2, 59280, Note_on_c, 0, 74, 0
2, 59280, Note_on_c, 0, 77, 62
2, 59520, Note_on_c, 0, 77, 0
2, 59520, Note_on_c, 0, 73, 62
2, 59520, Note_on_c, 0, 76, 62
2, 60240, Note_on_c, 0, 76, 0
2, 60240, Note_on_c, 0, 73, 0
2, 60240, Note_on_c, 0, 81, 62
2, 60480, Note_on_c, 0, 81, 0
2, 60480, Note_on_c, 0, 73, 62
2, 60480, Note_on_c, 0, 76, 62
2, 61440, Note_on_c, 0, 76, 0
2, 61440, Note_on_c, 0, 73, 0
2, 61440, Note_on_c, 0, 81, 88
2, 62160, Note_on_c, 0, 81, 0
2, 62160, Note_on_c, 0, 81, 88
2, 62640, Note_on_c, 0, 81, 0
2, 62640, Note_on_c, 0, 80, 88
2, 62760, Note_on_c, 0, 80, 0
2, 62760, Note_on_c, 0, 81, 88
2, 62880, Note_on_c, 0, 81, 0
2, 62880, Note_on_c, 0, 82, 101
2, 63000, Note_on_c, 0, 82, 0
2, 63000, Note_on_c, 0, 81, 101
2, 63120, Note_on_c, 0, 81, 0
2, 63120, Note_on_c, 0, 80, 101
2, 63240, Note_on_c, 0, 80, 0
2, 63240, Note_on_c, 0, 81, 101
2, 63360, Note_on_c, 0, 81, 0
2, 63360, Note_on_c, 0, 81, 114
2, 63360, Note_on_c, 0, 86, 114
2, 63360, Note_on_c, 0, 89, 114
2, 64080, Note_on_c, 0, 89, 0
2, 64080, Note_on_c, 0, 86, 0
2, 64080, Note_on_c, 0, 81, 0
2, 64080, Note_on_c, 0, 86, 114
2, 64320, Note_on_c, 0, 86, 0
2, 64320, Note_on_c, 0, 81, 101
2, 64800, Note_on_c, 0, 81, 0
2, 64800, Note_on_c, 0, 77, 88
2, 65280, Note_on_c, 0, 77, 0
2, 65280, Note_on_c, 0, 79, 88
2, 65280, Note_on_c, 0, 82, 88
2, 65280, Note_on_c, 0, 86, 88
2, 65280, Note_on_c, 0, 91, 88
2, 66000, Note_on_c, 0, 91, 0
2, 66000, Note_on_c, 0, 79, 0
2, 66000, Note_on_c, 0, 82, 0
2, 66000, Note_on_c, 0, 86, 0
2, 66000, Note_on_c, 0, 79, 88
2, 66000, Note_on_c, 0, 91, 88
2, 66480, Note_on_c, 0, 91, 0
2, 66480, Note_on_c, 0, 79, 0
2, 66480, Note_on_c, 0, 78, 88
2, 66600, Note_on_c, 0, 78, 0
2, 66600, Note_on_c, 0, 79, 88
2, 66720, Note_on_c, 0, 79, 0
2, 66720, Note_on_c, 0, 81, 101
2, 66840, Note_on_c, 0, 81, 0
2, 66840, Note_on_c, 0, 79, 101
2, 66960, Note_on_c, 0, 79, 0
2, 66960, Note_on_c, 0, 78, 101
2, 67080, Note_on_c, 0, 78, 0
2, 67080, Note_on_c, 0, 79, 101
2, 67200, Note_on_c, 0, 79, 0
2, 67200, Note_on_c, 0, 79, 114
2, 67200, Note_on_c, 0, 82, 114
2, 67920, Note_on_c, 0, 82, 0
2, 67920, Note_on_c, 0, 79, 0
2, 67920, Note_on_c, 0, 79, 114
2, 68160, Note_on_c, 0, 79, 0
2, 68160, Note_on_c, 0, 76, 101
2, 68640, Note_on_c, 0, 76, 0
2, 68640, Note_on_c, 0, 73, 88
2, 69120, Note_on_c, 0, 73, 0
2, 69120, Note_on_c, 0, 74, 88
2, 69720, Note_on_c, 0, 74, 0
2, 69720, Note_on_c, 0, 73, 88
2, 69840, Note_on_c, 0, 73, 0
2, 69840, Note_on_c, 0, 74, 88
2, 69960, Note_on_c, 0, 74, 0
2, 69960, Note_on_c, 0, 76, 88
2, 70080, Note_on_c, 0, 76, 0
2, 70080, Note_on_c, 0, 74, 88
2, 70560, Note_on_c, 0, 74, 0
2, 70560, Note_on_c, 0, 70, 88
2, 71040, Note_on_c, 0, 70, 0
2, 71040, Note_on_c, 0, 69, 88
2, 71760, Note_on_c, 0, 69, 0
2, 71760, Note_on_c, 0, 69, 114
2, 72240, Note_on_c, 0, 69, 0
2, 72240, Note_on_c, 0, 68, 88
2, 72360, Note_on_c, 0, 68, 0
2, 72360, Note_on_c, 0, 69, 88
2, 72480, Note_on_c, 0, 69, 0
2, 72480, Note_on_c, 0, 70, 88
2, 72600, Note_on_c, 0, 70, 0
2, 72600, Note_on_c, 0, 69, 88
2, 72720, Note_on_c, 0, 69, 0
2, 72720, Note_on_c, 0, 68, 88
2, 72840, Note_on_c, 0, 68, 0
2, 72840, Note_on_c, 0, 69, 88
2, 72960, Note_on_c, 0, 69, 0
2, 72960, Note_on_c, 0, 65, 114
2, 73560, Note_on_c, 0, 65, 0
2, 73560, Note_on_c, 0, 64, 88
2, 73680, Note_on_c, 0, 64, 0
2, 73680, Note_on_c, 0, 65, 88
2, 73800, Note_on_c, 0, 65, 0
2, 73800, Note_on_c, 0, 67, 88
2, 73920, Note_on_c, 0, 67, 0
2, 73920, Note_on_c, 0, 65, 88
2, 74400, Note_on_c, 0, 65, 0
2, 74400, Note_on_c, 0, 64, 88
2, 74880, Note_on_c, 0, 64, 0
2, 74880, Note_on_c, 0, 62, 88
2, 75600, Note_on_c, 0, 62, 0
2, 75600, Note_on_c, 0, 62, 114
2, 76080, Note_on_c, 0, 62, 0
2, 76080, Note_on_c, 0, 61, 88
2, 76200, Note_on_c, 0, 61, 0
2, 76200, Note_on_c, 0, 62, 88
2, 76320, Note_on_c, 0, 62, 0
2, 76320, Note_on_c, 0, 64, 88
2, 76440, Note_on_c, 0, 64, 0
2, 76440, Note_on_c, 0, 62, 88
2, 76560, Note_on_c, 0, 62, 0
2, 76560, Note_on_c, 0, 61, 88
2, 76680, Note_on_c, 0, 61, 0
2, 76680, Note_on_c, 0, 62, 88
2, 77160, Note_on_c, 0, 62, 0
2, 77280, Note_on_c, 0, 66, 88
2, 77520, Note_on_c, 0, 66, 0
2, 77520, Note_on_c, 0, 69, 62
2, 77760, Note_on_c, 0, 69, 0
2, 77760, Note_on_c, 0, 69, 62
2, 77783, Note_on_c, 0, 69, 0
2, 78000, Note_on_c, 0, 69, 62
2, 78023, Note_on_c, 0, 69, 0
2, 78240, Note_on_c, 0, 69, 62
2, 78263, Note_on_c, 0, 69, 0
2, 78480, Note_on_c, 0, 69, 62
2, 78503, Note_on_c, 0, 69, 0
2, 78720, Note_on_c, 0, 69, 62
2, 78743, Note_on_c, 0, 69, 0
2, 78960, Note_on_c, 0, 69, 62
2, 78983, Note_on_c, 0, 69, 0
2, 79200, Note_on_c, 0, 67, 101
2, 79440, Note_on_c, 0, 67, 0
2, 79440, Note_on_c, 0, 71, 75
2, 79680, Note_on_c, 0, 71, 0
2, 79680, Note_on_c, 0, 71, 75
2, 79703, Note_on_c, 0, 71, 0
2, 79920, Note_on_c, 0, 71, 75
2, 79943, Note_on_c, 0, 71, 0
2, 80160, Note_on_c, 0, 71, 75
2, 80183, Note_on_c, 0, 71, 0
2, 80400, Note_on_c, 0, 71, 75
2, 80423, Note_on_c, 0, 71, 0
2, 80640, Note_on_c, 0, 71, 75
2, 80663, Note_on_c, 0, 71, 0
2, 80880, Note_on_c, 0, 71, 75
2, 80903, Note_on_c, 0, 71, 0
2, 81120, Note_on_c, 0, 69, 101
2, 81360, Note_on_c, 0, 69, 0
2, 81360, Note_on_c, 0, 73, 75
2, 81600, Note_on_c, 0, 73, 0
2, 81600, Note_on_c, 0, 73, 75
2, 81623, Note_on_c, 0, 73, 0
2, 81840, Note_on_c, 0, 73, 75
2, 81863, Note_on_c, 0, 73, 0
2, 82080, Note_on_c, 0, 73, 88
2, 82103, Note_on_c, 0, 73, 0
2, 82320, Note_on_c, 0, 73, 88
2, 82343, Note_on_c, 0, 73, 0
2, 82560, Note_on_c, 0, 73, 88
2, 82583, Note_on_c, 0, 73, 0
2, 82800, Note_on_c, 0, 73, 88
2, 82823, Note_on_c, 0, 73, 0
2, 83040, Note_on_c, 0, 74, 114
2, 83040, Note_on_c, 0, 78, 114
2, 83520, Note_on_c, 0, 78, 0
2, 83520, Note_on_c, 0, 74, 0
2, 83520, Note_on_c, 0, 76, 88
2, 83543, Note_on_c, 0, 76, 0
2, 83760, Note_on_c, 0, 74, 75
2, 83783, Note_on_c, 0, 74, 0
2, 84000, Note_on_c, 0, 73, 75
2, 84023, Note_on_c, 0, 73, 0
2, 84240, Note_on_c, 0, 71, 62
2, 84263, Note_on_c, 0, 71, 0
2, 84480, Note_on_c, 0, 69, 62
2, 84960, Note_on_c, 0, 69, 0
2, 84960, Note_on_c, 0, 71, 114
2, 85440, Note_on_c, 0, 71, 0
2, 85440, Note_on_c, 0, 69, 88
2, 85463, Note_on_c, 0, 69, 0
2, 85680, Note_on_c, 0, 67, 75
2, 85703, Note_on_c, 0, 67, 0
2, 85920, Note_on_c, 0, 66, 75
2, 85943, Note_on_c, 0, 66, 0
2, 86160, Note_on_c, 0, 64, 62
2, 86183, Note_on_c, 0, 64, 0
2, 86400, Note_on_c, 0, 62, 62
2, 86880, Note_on_c, 0, 62, 0
2, 90720, Control_c, 0, 64, 127
2, 90720, Note_on_c, 0, 78, 88
2, 90960, Note_on_c, 0, 78, 0
2, 90960, Note_on_c, 0, 80, 62
2, 91080, Note_on_c, 0, 80, 0
2, 91080, Note_on_c, 0, 81, 62
2, 91200, Note_on_c, 0, 81, 0
2, 91200, Note_on_c, 0, 83, 62
2, 91320, Note_on_c, 0, 83, 0
2, 91320, Note_on_c, 0, 81, 62
2, 91440, Note_on_c, 0, 81, 0
2, 91440, Note_on_c, 0, 80, 62
2, 91560, Note_on_c, 0, 80, 0
2, 91560, Control_c, 0, 64, 0
2, 91560, Note_on_c, 0, 81, 62
2, 91680, Note_on_c, 0, 81, 0
2, 91680, Note_on_c, 0, 83, 62
2, 91800, Note_on_c, 0, 83, 0
2, 91800, Note_on_c, 0, 81, 62
2, 91920, Note_on_c, 0, 81, 0
2, 91920, Note_on_c, 0, 80, 62
2, 92040, Note_on_c, 0, 80, 0
2, 92040, Note_on_c, 0, 81, 62
2, 92160, Note_on_c, 0, 81, 0
2, 92160, Note_on_c, 0, 83, 62
2, 92280, Note_on_c, 0, 83, 0
2, 92280, Note_on_c, 0, 81, 62
2, 92400, Note_on_c, 0, 81, 0
2, 92400, Note_on_c, 0, 80, 62
2, 92520, Note_on_c, 0, 80, 0
2, 92520, Note_on_c, 0, 81, 62
2, 92640, Note_on_c, 0, 81, 0
2, 92640, Control_c, 0, 64, 127
2, 92640, Note_on_c, 0, 79, 101
2, 92880, Note_on_c, 0, 79, 0
2, 92880, Note_on_c, 0, 82, 75
2, 93000, Note_on_c, 0, 82, 0
2, 93000, Note_on_c, 0, 83, 75
2, 93120, Note_on_c, 0, 83, 0
2, 93120, Note_on_c, 0, 85, 75
2, 93240, Note_on_c, 0, 85, 0
2, 93240, Note_on_c, 0, 83, 75
2, 93360, Note_on_c, 0, 83, 0
2, 93360, Note_on_c, 0, 82, 75
2, 93480, Note_on_c, 0, 82, 0
2, 93480, Control_c, 0, 64, 0
2, 93480, Note_on_c, 0, 83, 75
2, 93600, Note_on_c, 0, 83, 0
2, 93600, Note_on_c, 0, 85, 75
2, 93720, Note_on_c, 0, 85, 0
2, 93720, Note_on_c, 0, 83, 75
2, 93840, Note_on_c, 0, 83, 0
2, 93840, Note_on_c, 0, 82, 75
2, 93960, Note_on_c, 0, 82, 0
2, 93960, Note_on_c, 0, 83, 75
2, 94080, Note_on_c, 0, 83, 0
2, 94080, Note_on_c, 0, 85, 75
2, 94200, Note_on_c, 0, 85, 0
2, 94200, Note_on_c, 0, 83, 75
2, 94320, Note_on_c, 0, 83, 0
2, 94320, Note_on_c, 0, 82, 75
2, 94440, Note_on_c, 0, 82, 0
2, 94440, Note_on_c, 0, 83, 75
2, 94560, Note_on_c, 0, 83, 0
2, 94560, Control_c, 0, 64, 127
2, 94560, Note_on_c, 0, 81, 101
2, 94800, Note_on_c, 0, 81, 0
2, 94800, Note_on_c, 0, 84, 75
2, 94920, Note_on_c, 0, 84, 0
2, 94920, Note_on_c, 0, 85, 75
2, 95040, Note_on_c, 0, 85, 0
2, 95040, Note_on_c, 0, 86, 75
2, 95160, Note_on_c, 0, 86, 0
2, 95160, Note_on_c, 0, 85, 75
2, 95280, Note_on_c, 0, 85, 0
2, 95280, Note_on_c, 0, 84, 75
2, 95400, Note_on_c, 0, 84, 0
2, 95400, Control_c, 0, 64, 0
2, 95400, Note_on_c, 0, 85, 75
2, 95520, Note_on_c, 0, 85, 0
2, 95520, Note_on_c, 0, 86, 88
2, 95640, Note_on_c, 0, 86, 0
2, 95640, Note_on_c, 0, 85, 88
2, 95760, Note_on_c, 0, 85, 0
2, 95760, Note_on_c, 0, 84, 88
2, 95880, Note_on_c, 0, 84, 0
2, 95880, Note_on_c, 0, 85, 88
2, 96000, Note_on_c, 0, 85, 0
2, 96000, Note_on_c, 0, 86, 88
2, 96120, Note_on_c, 0, 86, 0
2, 96120, Note_on_c, 0, 85, 88
2, 96240, Note_on_c, 0, 85, 0
2, 96240, Note_on_c, 0, 84, 88
2, 96360, Note_on_c, 0, 84, 0
2, 96360, Note_on_c, 0, 85, 88
2, 96480, Note_on_c, 0, 85, 0
2, 96480, Note_on_c, 0, 81, 114
2, 96480, Note_on_c, 0, 90, 114
2, 96960, Note_on_c, 0, 90, 0
2, 96960, Note_on_c, 0, 81, 0
2, 96960, Note_on_c, 0, 81, 88
2, 96960, Note_on_c, 0, 88, 88
2, 96983, Note_on_c, 0, 88, 0
2, 96983, Note_on_c, 0, 81, 0
2, 97200, Note_on_c, 0, 80, 88
2, 97200, Note_on_c, 0, 86, 88
2, 97223, Note_on_c, 0, 86, 0
2, 97223, Note_on_c, 0, 80, 0
2, 97440, Note_on_c, 0, 81, 88
2, 97440, Note_on_c, 0, 85, 88
2, 97463, Note_on_c, 0, 85, 0
2, 97463, Note_on_c, 0, 81, 0
2, 97680, Note_on_c, 0, 83, 88
2, 97703, Note_on_c, 0, 83, 0
2, 97920, Note_on_c, 0, 81, 88
2, 98400, Note_on_c, 0, 81, 0
2, 98400, Note_on_c, 0, 74, 114
2, 98400, Note_on_c, 0, 83, 114
2, 98880, Note_on_c, 0, 83, 0
2, 98880, Note_on_c, 0, 74, 0
2, 98880, Note_on_c, 0, 74, 88
2, 98880, Note_on_c, 0, 81, 88
2, 98903, Note_on_c, 0, 81, 0
2, 98903, Note_on_c, 0, 74, 0
2, 99120, Note_on_c, 0, 73, 88
2, 99120, Note_on_c, 0, 79, 88
2, 99143, Note_on_c, 0, 79, 0
2, 99143, Note_on_c, 0, 73, 0
2, 99360, Note_on_c, 0, 74, 114
2, 99360, Note_on_c, 0, 78, 114
2, 99600, Note_on_c, 0, 78, 0
2, 99600, Note_on_c, 0, 74, 0
2, 99600, Note_on_c, 0, 76, 114
2, 99840, Note_on_c, 0, 76, 0
2, 99840, Note_on_c, 0, 74, 88
2, 100320, Note_on_c, 0, 74, 0
2, 100320, Note_on_c, 0, 73, 62
2, 100560, Note_on_c, 0, 73, 0
2, 100560, Note_on_c, 0, 75, 62
2, 100680, Note_on_c, 0, 75, 0
2, 100680, Note_on_c, 0, 76, 62
2, 100800, Note_on_c, 0, 76, 0
2, 100800, Note_on_c, 0, 78, 62
2, 100920, Note_on_c, 0, 78, 0
2, 100920, Note_on_c, 0, 76, 62
2, 101040, Note_on_c, 0, 76, 0
2, 101040, Note_on_c, 0, 75, 62
2, 101160, Note_on_c, 0, 75, 0
2, 101160, Note_on_c, 0, 76, 62
2, 101280, Note_on_c, 0, 76, 0
2, 101280, Note_on_c, 0, 74, 62
2, 101520, Note_on_c, 0, 74, 0
2, 101520, Note_on_c, 0, 77, 62
2, 101640, Note_on_c, 0, 77, 0
2, 101640, Note_on_c, 0, 78, 62
2, 101760, Note_on_c, 0, 78, 0
2, 101760, Note_on_c, 0, 79, 62
2, 101880, Note_on_c, 0, 79, 0
2, 101880, Note_on_c, 0, 78, 62
2, 102000, Note_on_c, 0, 78, 0
2, 102000, Note_on_c, 0, 77, 62
2, 102120, Note_on_c, 0, 77, 0
2, 102120, Note_on_c, 0, 78, 62
2, 102240, Note_on_c, 0, 78, 0
2, 102240, Note_on_c, 0, 79, 62
2, 102480, Note_on_c, 0, 79, 0
2, 102480, Note_on_c, 0, 76, 62
2, 102600, Note_on_c, 0, 76, 0
2, 102600, Note_on_c, 0, 69, 62
2, 102720, Note_on_c, 0, 69, 0
2, 102720, Note_on_c, 0, 73, 62
2, 102840, Note_on_c, 0, 73, 0
2, 102840, Note_on_c, 0, 69, 62
2, 102960, Note_on_c, 0, 69, 0
2, 102960, Note_on_c, 0, 76, 62
2, 103080, Note_on_c, 0, 76, 0
2, 103080, Note_on_c, 0, 69, 62
2, 103200, Note_on_c, 0, 69, 0
2, 103200, Note_on_c, 0, 74, 88
2, 103440, Note_on_c, 0, 74, 0
2, 103440, Note_on_c, 0, 78, 62
2, 103680, Note_on_c, 0, 78, 0
2, 103680, Note_on_c, 0, 74, 62
2, 104160, Note_on_c, 0, 74, 0
2, 104160, Note_on_c, 0, 90, 114
2, 104160, Note_on_c, 0, 102, 114
2, 104640, Note_on_c, 0, 102, 0
2, 104640, Note_on_c, 0, 90, 0
2, 104640, Note_on_c, 0, 88, 88
2, 104640, Note_on_c, 0, 100, 88
2, 104663, Note_on_c, 0, 100, 0
2, 104663, Note_on_c, 0, 88, 0
2, 104880, Note_on_c, 0, 86, 88
2, 104880, Note_on_c, 0, 98, 88
2, 104903, Note_on_c, 0, 98, 0
2, 104903, Note_on_c, 0, 86, 0
2, 105120, Note_on_c, 0, 85, 88
2, 105120, Note_on_c, 0, 97, 88
2, 105143, Note_on_c, 0, 97, 0
2, 105143, Note_on_c, 0, 85, 0
2, 105360, Note_on_c, 0, 83, 88
2, 105360, Note_on_c, 0, 95, 88
2, 105383, Note_on_c, 0, 95, 0
2, 105383, Note_on_c, 0, 83, 0
2, 105600, Note_on_c, 0, 81, 88
2, 105600, Note_on_c, 0, 93, 88
2, 106080, Note_on_c, 0, 93, 0
2, 106080, Note_on_c, 0, 81, 0
2, 106080, Note_on_c, 0, 83, 114
2, 106080, Note_on_c, 0, 95, 114
2, 106560, Note_on_c, 0, 95, 0
2, 106560, Note_on_c, 0, 83, 0
2, 106560, Note_on_c, 0, 81, 88
2, 106560, Note_on_c, 0, 93, 88
2, 106583, Note_on_c, 0, 93, 0
2, 106583, Note_on_c, 0, 81, 0
2, 106800, Note_on_c, 0, 79, 88
2, 106800, Note_on_c, 0, 91, 88
2, 106823, Note_on_c, 0, 91, 0
2, 106823, Note_on_c, 0, 79, 0
2, 107040, Note_on_c, 0, 78, 88
2, 107040, Note_on_c, 0, 90, 88
2, 107063, Note_on_c, 0, 90, 0
2, 107063, Note_on_c, 0, 78, 0
2, 107280, Note_on_c, 0, 81, 88
2, 107280, Note_on_c, 0, 88, 88
2, 107303, Note_on_c, 0, 88, 0
2, 107303, Note_on_c, 0, 81, 0
2, 107520, Note_on_c, 0, 81, 88
2, 107520, Note_on_c, 0, 86, 88
2, 108000, Note_on_c, 0, 86, 0
2, 108000, Note_on_c, 0, 81, 0
2, 108000, Note_on_c, 0, 85, 101
2, 108240, Note_on_c, 0, 85, 0
2, 108240, Note_on_c, 0, 88, 75
2, 108360, Note_on_c, 0, 88, 0
2, 108360, Note_on_c, 0, 81, 75
2, 108480, Note_on_c, 0, 81, 0
2, 108480, Note_on_c, 0, 88, 75
2, 108600, Note_on_c, 0, 88, 0
2, 108600, Note_on_c, 0, 81, 75
2, 108720, Note_on_c, 0, 81, 0
2, 108720, Note_on_c, 0, 88, 75
2, 108840, Note_on_c, 0, 88, 0
2, 108840, Note_on_c, 0, 81, 75
2, 108960, Note_on_c, 0, 81, 0
2, 108960, Note_on_c, 0, 86, 101
2, 109200, Note_on_c, 0, 86, 0
2, 109200, Note_on_c, 0, 90, 75
2, 109320, Note_on_c, 0, 90, 0
2, 109320, Note_on_c, 0, 81, 75
2, 109440, Note_on_c, 0, 81, 0
2, 109440, Note_on_c, 0, 90, 75
2, 109560, Note_on_c, 0, 90, 0
2, 109560, Note_on_c, 0, 81, 75
2, 109680, Note_on_c, 0, 81, 0
2, 109680, Note_on_c, 0, 90, 75
2, 109800, Note_on_c, 0, 90, 0
2, 109800, Note_on_c, 0, 81, 75
2, 109920, Note_on_c, 0, 81, 0
2, 109920, Note_on_c, 0, 91, 101
2, 109943, Note_on_c, 0, 91, 0
2, 110160, Note_on_c, 0, 88, 75
2, 110280, Note_on_c, 0, 88, 0
2, 110280, Note_on_c, 0, 81, 75
2, 110400, Note_on_c, 0, 81, 0
2, 110400, Note_on_c, 0, 85, 75
2, 110520, Note_on_c, 0, 85, 0
2, 110520, Note_on_c, 0, 81, 75
2, 110640, Note_on_c, 0, 81, 0
2, 110640, Note_on_c, 0, 88, 75
2, 110760, Note_on_c, 0, 88, 0
2, 110760, Note_on_c, 0, 81, 75
2, 110880, Note_on_c, 0, 81, 0
2, 110880, Note_on_c, 0, 86, 101
2, 110903, Note_on_c, 0, 86, 0
2, 111360, Note_on_c, 0, 86, 101
2, 111360, Note_on_c, 0, 93, 101
2, 111360, Note_on_c, 0, 98, 101
2, 111383, Note_on_c, 0, 98, 0
2, 111383, Note_on_c, 0, 93, 0
2, 111383, Note_on_c, 0, 86, 0
2, 112320, Note_on_c, 0, 81, 114
2, 113040, Note_on_c, 0, 81, 0
2, 113040, Note_on_c, 0, 81, 88
2, 113520, Note_on_c, 0, 81, 0
2, 113520, Note_on_c, 0, 80, 88
2, 113640, Note_on_c, 0, 80, 0
2, 113640, Note_on_c, 0, 81, 88
2, 113760, Note_on_c, 0, 81, 0
2, 113760, Note_on_c, 0, 82, 101
2, 113880, Note_on_c, 0, 82, 0
2, 113880, Note_on_c, 0, 81, 101
2, 114000, Note_on_c, 0, 81, 0
2, 114000, Note_on_c, 0, 80, 101
2, 114120, Note_on_c, 0, 80, 0
2, 114120, Note_on_c, 0, 81, 101
2, 114240, Note_on_c, 0, 81, 0
2, 114240, Note_on_c, 0, 81, 114
2, 114240, Note_on_c, 0, 86, 114
2, 114240, Note_on_c, 0, 89, 114
2, 114960, Note_on_c, 0, 89, 0
2, 114960, Note_on_c, 0, 86, 0
2, 114960, Note_on_c, 0, 81, 0
2, 114960, Note_on_c, 0, 86, 114
2, 115200, Note_on_c, 0, 86, 0
2, 115200, Note_on_c, 0, 81, 101
2, 115680, Note_on_c, 0, 81, 0
2, 115680, Note_on_c, 0, 77, 88
2, 116160, Note_on_c, 0, 77, 0
2, 116160, Note_on_c, 0, 74, 88
2, 116160, Note_on_c, 0, 79, 88
2, 116880, Note_on_c, 0, 79, 0
2, 116880, Note_on_c, 0, 74, 0
2, 116880, Note_on_c, 0, 79, 88
2, 117360, Note_on_c, 0, 79, 0
2, 117360, Note_on_c, 0, 78, 88
2, 117480, Note_on_c, 0, 78, 0
2, 117480, Note_on_c, 0, 79, 88
2, 117600, Note_on_c, 0, 79, 0
2, 117600, Note_on_c, 0, 81, 101
2, 117720, Note_on_c, 0, 81, 0
2, 117720, Note_on_c, 0, 79, 101
2, 117840, Note_on_c, 0, 79, 0
2, 117840, Note_on_c, 0, 78, 101
2, 117960, Note_on_c, 0, 78, 0
2, 117960, Note_on_c, 0, 79, 101
2, 118080, Note_on_c, 0, 79, 0
2, 118080, Note_on_c, 0, 79, 114
2, 118080, Note_on_c, 0, 82, 114
2, 118800, Note_on_c, 0, 82, 0
2, 118800, Note_on_c, 0, 79, 0
2, 118800, Note_on_c, 0, 79, 114
2, 119040, Note_on_c, 0, 79, 0
2, 119040, Note_on_c, 0, 76, 101
2, 119520, Note_on_c, 0, 76, 0
2, 119520, Note_on_c, 0, 73, 88
2, 120000, Note_on_c, 0, 73, 0
2, 120000, Note_on_c, 0, 74, 88
2, 120600, Note_on_c, 0, 74, 0
2, 120600, Note_on_c, 0, 73, 88
2, 120720, Note_on_c, 0, 73, 0
2, 120720, Note_on_c, 0, 74, 88
2, 120840, Note_on_c, 0, 74, 0
2, 120840, Note_on_c, 0, 76, 88
2, 120960, Note_on_c, 0, 76, 0
2, 120960, Note_on_c, 0, 74, 88
2, 121440, Note_on_c, 0, 74, 0
2, 121440, Note_on_c, 0, 70, 88
2, 121920, Note_on_c, 0, 70, 0
2, 121920, Note_on_c, 0, 69, 88
2, 122640, Note_on_c, 0, 69, 0
2, 122640, Note_on_c, 0, 69, 114
2, 123120, Note_on_c, 0, 69, 0
2, 123120, Note_on_c, 0, 68, 88
2, 123240, Note_on_c, 0, 68, 0
2, 123240, Note_on_c, 0, 69, 88
2, 123360, Note_on_c, 0, 69, 0
2, 123360, Note_on_c, 0, 70, 88
2, 123480, Note_on_c, 0, 70, 0
2, 123480, Note_on_c, 0, 69, 88
2, 123600, Note_on_c, 0, 69, 0
2, 123600, Note_on_c, 0, 68, 88
2, 123720, Note_on_c, 0, 68, 0
2, 123720, Note_on_c, 0, 69, 88
2, 123840, Note_on_c, 0, 69, 0
2, 123840, Note_on_c, 0, 65, 114
2, 124440, Note_on_c, 0, 65, 0
2, 124440, Note_on_c, 0, 64, 88
2, 124560, Note_on_c, 0, 64, 0
2, 124560, Note_on_c, 0, 65, 88
2, 124680, Note_on_c, 0, 65, 0
2, 124680, Note_on_c, 0, 67, 88
2, 124800, Note_on_c, 0, 67, 0
2, 124800, Note_on_c, 0, 65, 88
2, 125280, Note_on_c, 0, 65, 0
2, 125280, Note_on_c, 0, 64, 88
2, 125760, Note_on_c, 0, 64, 0
2, 125760, Note_on_c, 0, 62, 88
2, 126480, Note_on_c, 0, 62, 0
2, 126480, Note_on_c, 0, 62, 114
2, 126960, Note_on_c, 0, 62, 0
2, 126960, Note_on_c, 0, 61, 88
2, 127080, Note_on_c, 0, 61, 0
2, 127080, Note_on_c, 0, 62, 88
2, 127200, Note_on_c, 0, 62, 0
2, 127200, Note_on_c, 0, 64, 88
2, 127320, Note_on_c, 0, 64, 0
2, 127320, Note_on_c, 0, 62, 88
2, 127440, Note_on_c, 0, 62, 0
2, 127440, Note_on_c, 0, 61, 88
2, 127560, Note_on_c, 0, 61, 0
2, 127560, Note_on_c, 0, 62, 88
2, 127680, Note_on_c, 0, 62, 0
2, 127680, Note_on_c, 0, 81, 114
2, 128400, Note_on_c, 0, 81, 0
2, 128400, Note_on_c, 0, 81, 88
2, 128880, Note_on_c, 0, 81, 0
2, 128880, Note_on_c, 0, 80, 88
2, 129000, Note_on_c, 0, 80, 0
2, 129000, Note_on_c, 0, 81, 88
2, 129120, Note_on_c, 0, 81, 0
2, 129120, Note_on_c, 0, 82, 101
2, 129240, Note_on_c, 0, 82, 0
2, 129240, Note_on_c, 0, 81, 101
2, 129360, Note_on_c, 0, 81, 0
2, 129360, Note_on_c, 0, 80, 101
2, 129480, Note_on_c, 0, 80, 0
2, 129480, Note_on_c, 0, 81, 101
2, 129600, Note_on_c, 0, 81, 0
2, 129600, Note_on_c, 0, 81, 114
2, 129600, Note_on_c, 0, 86, 114
2, 129600, Note_on_c, 0, 89, 114
2, 130320, Note_on_c, 0, 89, 0
2, 130320, Note_on_c, 0, 86, 0
2, 130320, Note_on_c, 0, 81, 0
2, 130320, Note_on_c, 0, 86, 114
2, 130560, Note_on_c, 0, 86, 0
2, 130560, Note_on_c, 0, 81, 101
2, 131040, Note_on_c, 0, 81, 0
2, 131040, Note_on_c, 0, 77, 88
2, 131520, Note_on_c, 0, 77, 0
2, 131520, Note_on_c, 0, 74, 88
2, 131520, Note_on_c, 0, 79, 88
2, 132240, Note_on_c, 0, 79, 0
2, 132240, Note_on_c, 0, 74, 0
2, 132240, Note_on_c, 0, 79, 88
2, 132720, Note_on_c, 0, 79, 0
2, 132720, Note_on_c, 0, 78, 88
2, 132840, Note_on_c, 0, 78, 0
2, 132840, Note_on_c, 0, 79, 88
2, 132960, Note_on_c, 0, 79, 0
2, 132960, Note_on_c, 0, 81, 101
2, 133080, Note_on_c, 0, 81, 0
2, 133080, Note_on_c, 0, 79, 101
2, 133200, Note_on_c, 0, 79, 0
2, 133200, Note_on_c, 0, 78, 101
2, 133320, Note_on_c, 0, 78, 0
2, 133320, Note_on_c, 0, 79, 101
2, 133440, Note_on_c, 0, 79, 0
2, 133440, Note_on_c, 0, 79, 114
2, 133440, Note_on_c, 0, 82, 114
2, 134160, Note_on_c, 0, 82, 0
2, 134160, Note_on_c, 0, 79, 0
2, 134160, Note_on_c, 0, 79, 114
2, 134400, Note_on_c, 0, 79, 0
2, 134400, Note_on_c, 0, 76, 101
2, 134880, Note_on_c, 0, 76, 0
2, 134880, Note_on_c, 0, 73, 88
2, 135360, Note_on_c, 0, 73, 0
2, 135360, Note_on_c, 0, 74, 88
2, 135960, Note_on_c, 0, 74, 0
2, 135960, Note_on_c, 0, 73, 88
2, 136080, Note_on_c, 0, 73, 0
2, 136080, Note_on_c, 0, 74, 88
2, 136200, Note_on_c, 0, 74, 0
2, 136200, Note_on_c, 0, 76, 88
2, 136320, Note_on_c, 0, 76, 0
2, 136320, Note_on_c, 0, 74, 88
2, 136800, Note_on_c, 0, 74, 0
2, 136800, Note_on_c, 0, 70, 88
2, 137280, Note_on_c, 0, 70, 0
2, 137280, Note_on_c, 0, 69, 88
2, 138000, Note_on_c, 0, 69, 0
2, 138000, Note_on_c, 0, 69, 114
2, 138480, Note_on_c, 0, 69, 0
2, 138480, Note_on_c, 0, 68, 88
2, 138600, Note_on_c, 0, 68, 0
2, 138600, Note_on_c, 0, 69, 88
2, 138720, Note_on_c, 0, 69, 0
2, 138720, Note_on_c, 0, 70, 88
2, 138840, Note_on_c, 0, 70, 0
2, 138840, Note_on_c, 0, 69, 88
2, 138960, Note_on_c, 0, 69, 0
2, 138960, Note_on_c, 0, 68, 88
2, 139080, Note_on_c, 0, 68, 0
2, 139080, Note_on_c, 0, 69, 88
2, 139200, Note_on_c, 0, 69, 0
2, 139200, Note_on_c, 0, 65, 114
2, 139800, Note_on_c, 0, 65, 0
2, 139800, Note_on_c, 0, 64, 88
2, 139920, Note_on_c, 0, 64, 0
2, 139920, Note_on_c, 0, 65, 88
2, 140040, Note_on_c, 0, 65, 0
2, 140040, Note_on_c, 0, 67, 88
2, 140160, Note_on_c, 0, 67, 0
2, 140160, Note_on_c, 0, 65, 88
2, 140640, Note_on_c, 0, 65, 0
2, 140640, Note_on_c, 0, 64, 88
2, 141120, Note_on_c, 0, 64, 0
2, 141120, Note_on_c, 0, 62, 88
2, 141840, Note_on_c, 0, 62, 0
2, 141840, Note_on_c, 0, 62, 114
2, 142320, Note_on_c, 0, 62, 0
2, 142320, Note_on_c, 0, 61, 88
2, 142440, Note_on_c, 0, 61, 0
2, 142440, Note_on_c, 0, 62, 88
2, 142560, Note_on_c, 0, 62, 0
2, 142560, Note_on_c, 0, 64, 88
2, 142680, Note_on_c, 0, 64, 0
2, 142680, Note_on_c, 0, 62, 88
2, 142800, Note_on_c, 0, 62, 0
2, 142800, Note_on_c, 0, 61, 88
2, 142920, Note_on_c, 0, 61, 0
2, 142920, Note_on_c, 0, 62, 88
2, 143040, Note_on_c, 0, 62, 0
2, 143040, Note_on_c, 0, 77, 114
2, 143040, Note_on_c, 0, 83, 114
2, 143040, Note_on_c, 0, 86, 114
2, 143760, Note_on_c, 0, 86, 0
2, 143760, Note_on_c, 0, 83, 0
2, 143760, Note_on_c, 0, 77, 0
2, 143760, Note_on_c, 0, 77, 101
2, 143760, Note_on_c, 0, 83, 101
2, 143760, Note_on_c, 0, 86, 101
2, 144000, Note_on_c, 0, 86, 0
2, 144000, Note_on_c, 0, 83, 0
2, 144000, Note_on_c, 0, 77, 0
2, 144240, Note_on_c, 0, 77, 88
2, 144240, Note_on_c, 0, 81, 88
2, 144240, Note_on_c, 0, 86, 88
2, 144720, Note_on_c, 0, 86, 0
2, 144720, Note_on_c, 0, 81, 0
2, 144720, Note_on_c, 0, 77, 0
2, 144720, Note_on_c, 0, 80, 88
2, 144720, Note_on_c, 0, 88, 88
2, 144960, Note_on_c, 0, 88, 0
2, 144960, Note_on_c, 0, 80, 0
2, 144960, Note_on_c, 0, 76, 88
2, 144960, Note_on_c, 0, 81, 88
2, 144960, Note_on_c, 0, 84, 88
2, 145680, Note_on_c, 0, 84, 0
2, 145680, Note_on_c, 0, 81, 0
2, 145680, Note_on_c, 0, 76, 0
2, 145680, Note_on_c, 0, 83, 75
2, 145920, Note_on_c, 0, 83, 0
2, 145920, Note_on_c, 0, 81, 75
2, 146400, Note_on_c, 0, 81, 0
2, 146400, Note_on_c, 0, 76, 75
2, 146880, Note_on_c, 0, 76, 0
2, 146880, Note_on_c, 0, 77, 114
2, 146880, Note_on_c, 0, 83, 114
2, 146880, Note_on_c, 0, 86, 114
2, 147600, Note_on_c, 0, 86, 0
2, 147600, Note_on_c, 0, 83, 0
2, 147600, Note_on_c, 0, 77, 0
2, 147600, Note_on_c, 0, 77, 101
2, 147600, Note_on_c, 0, 83, 101
2, 147600, Note_on_c, 0, 86, 101
2, 147840, Note_on_c, 0, 86, 0
2, 147840, Note_on_c, 0, 83, 0
2, 147840, Note_on_c, 0, 77, 0
2, 148080, Note_on_c, 0, 77, 88
2, 148080, Note_on_c, 0, 81, 88
2, 148080, Note_on_c, 0, 86, 88
2, 148560, Note_on_c, 0, 86, 0
2, 148560, Note_on_c, 0, 81, 0
2, 148560, Note_on_c, 0, 77, 0
2, 148560, Note_on_c, 0, 80, 88
2, 148560, Note_on_c, 0, 88, 88
2, 148800, Note_on_c, 0, 88, 0
2, 148800, Note_on_c, 0, 80, 0
2, 149040, Note_on_c, 0, 81, 88
2, 149040, Note_on_c, 0, 84, 88
2, 149520, Note_on_c, 0, 84, 0
2, 149520, Note_on_c, 0, 81, 0
2, 149520, Note_on_c, 0, 83, 88
2, 150000, Note_on_c, 0, 83, 0
2, 150000, Note_on_c, 0, 81, 75
2, 150480, Note_on_c, 0, 81, 0
2, 150480, Note_on_c, 0, 76, 75
2, 150720, Note_on_c, 0, 76, 0
2, 150720, Note_on_c, 0, 72, 62
2, 150720, Note_on_c, 0, 75, 62
2, 150720, Note_on_c, 0, 81, 62
2, 151440, Note_on_c, 0, 81, 0
2, 151440, Note_on_c, 0, 75, 0
2, 151440, Note_on_c, 0, 72, 0
2, 151440, Note_on_c, 0, 72, 62
2, 151440, Note_on_c, 0, 75, 62
2, 151440, Note_on_c, 0, 81, 62
2, 151680, Note_on_c, 0, 81, 0
2, 151680, Note_on_c, 0, 75, 0
2, 151680, Note_on_c, 0, 72, 0
2, 151680, Note_on_c, 0, 74, 62
2, 151680, Note_on_c, 0, 80, 62
2, 152160, Note_on_c, 0, 80, 0
2, 152160, Note_on_c, 0, 74, 0
2, 152160, Note_on_c, 0, 77, 62
2, 152640, Note_on_c, 0, 77, 0
2, 152880, Note_on_c, 0, 76, 62
2, 153360, Note_on_c, 0, 76, 0
2, 153360, Note_on_c, 0, 76, 75
2, 153600, Note_on_c, 0, 76, 0
2, 153600, Note_on_c, 0, 81, 88
2, 154080, Note_on_c, 0, 81, 0
2, 154080, Note_on_c, 0, 76, 75
2, 154320, Note_on_c, 0, 76, 0
2, 154560, Note_on_c, 0, 72, 62
2, 154560, Note_on_c, 0, 75, 62
2, 154560, Note_on_c, 0, 81, 62
2, 155280, Note_on_c, 0, 81, 0
2, 155280, Note_on_c, 0, 75, 0
2, 155280, Note_on_c, 0, 72, 0
2, 155280, Note_on_c, 0, 72, 62
2, 155280, Note_on_c, 0, 75, 62
2, 155280, Note_on_c, 0, 81, 62
2, 155520, Note_on_c, 0, 81, 0
2, 155520, Note_on_c, 0, 75, 0
2, 155520, Note_on_c, 0, 72, 0
2, 155760, Note_on_c, 0, 74, 62
2, 155760, Note_on_c, 0, 80, 62
2, 156240, Note_on_c, 0, 80, 0
2, 156240, Note_on_c, 0, 74, 0
2, 156240, Note_on_c, 0, 77, 62
2, 156480, Note_on_c, 0, 77, 0
2, 156480, Note_on_c, 0, 73, 62
2, 156480, Note_on_c, 0, 76, 62
2, 157200, Note_on_c, 0, 76, 0
2, 157200, Note_on_c, 0, 73, 0
2, 157200, Note_on_c, 0, 81, 62
2, 157440, Note_on_c, 0, 81, 0
2, 157440, Note_on_c, 0, 73, 62
2, 157440, Note_on_c, 0, 76, 62
2, 158400, Note_on_c, 0, 76, 0
2, 158400, Note_on_c, 0, 73, 0
2, 158400, Note_on_c, 0, 77, 114
2, 158400, Note_on_c, 0, 83, 114
2, 158400, Note_on_c, 0, 86, 114
2, 159120, Note_on_c, 0, 86, 0
2, 159120, Note_on_c, 0, 83, 0
2, 159120, Note_on_c, 0, 77, 0
2, 159120, Note_on_c, 0, 77, 101
2, 159120, Note_on_c, 0, 83, 101
2, 159120, Note_on_c, 0, 86, 101
2, 159360, Note_on_c, 0, 86, 0
2, 159360, Note_on_c, 0, 83, 0
2, 159360, Note_on_c, 0, 77, 0
2, 159600, Note_on_c, 0, 77, 88
2, 159600, Note_on_c, 0, 81, 88
2, 159600, Note_on_c, 0, 86, 88
2, 160080, Note_on_c, 0, 86, 0
2, 160080, Note_on_c, 0, 81, 0
2, 160080, Note_on_c, 0, 77, 0
2, 160080, Note_on_c, 0, 80, 88
2, 160080, Note_on_c, 0, 88, 88
2, 160320, Note_on_c, 0, 88, 0
2, 160320, Note_on_c, 0, 80, 0
2, 160320, Note_on_c, 0, 76, 88
2, 160320, Note_on_c, 0, 81, 88
2, 160320, Note_on_c, 0, 84, 88
2, 161040, Note_on_c, 0, 84, 0
2, 161040, Note_on_c, 0, 81, 0
2, 161040, Note_on_c, 0, 76, 0
2, 161040, Note_on_c, 0, 83, 75
2, 161280, Note_on_c, 0, 83, 0
2, 161280, Note_on_c, 0, 81, 75
2, 161760, Note_on_c, 0, 81, 0
2, 161760, Note_on_c, 0, 76, 75
2, 162240, Note_on_c, 0, 76, 0
2, 162240, Note_on_c, 0, 77, 114
2, 162240, Note_on_c, 0, 83, 114
2, 162240, Note_on_c, 0, 86, 114
2, 162960, Note_on_c, 0, 86, 0
2, 162960, Note_on_c, 0, 83, 0
2, 162960, Note_on_c, 0, 77, 0
2, 162960, Note_on_c, 0, 77, 101
2, 162960, Note_on_c, 0, 83, 101
2, 162960, Note_on_c, 0, 86, 101
2, 163200, Note_on_c, 0, 86, 0
2, 163200, Note_on_c, 0, 83, 0
2, 163200, Note_on_c, 0, 77, 0
2, 163440, Note_on_c, 0, 77, 88
2, 163440, Note_on_c, 0, 81, 88
2, 163440, Note_on_c, 0, 86, 88
2, 163920, Note_on_c, 0, 86, 0
2, 163920, Note_on_c, 0, 81, 0
2, 163920, Note_on_c, 0, 77, 0
2, 163920, Note_on_c, 0, 80, 88
2, 163920, Note_on_c, 0, 88, 88
2, 164160, Note_on_c, 0, 88, 0
2, 164160, Note_on_c, 0, 80, 0
2, 164400, Note_on_c, 0, 81, 88
2, 164400, Note_on_c, 0, 84, 88
2, 164880, Note_on_c, 0, 84, 0
2, 164880, Note_on_c, 0, 81, 0
2, 164880, Note_on_c, 0, 83, 88
2, 165360, Note_on_c, 0, 83, 0
2, 165360, Note_on_c, 0, 81, 75
2, 165840, Note_on_c, 0, 81, 0
2, 165840, Note_on_c, 0, 76, 75
2, 166080, Note_on_c, 0, 76, 0
2, 166080, Note_on_c, 0, 72, 62
2, 166080, Note_on_c, 0, 75, 62
2, 166080, Note_on_c, 0, 81, 62
2, 166800, Note_on_c, 0, 81, 0
2, 166800, Note_on_c, 0, 75, 0
2, 166800, Note_on_c, 0, 72, 0
2, 166800, Note_on_c, 0, 72, 62
2, 166800, Note_on_c, 0, 75, 62
2, 166800, Note_on_c, 0, 81, 62
2, 167040, Note_on_c, 0, 81, 0
2, 167040, Note_on_c, 0, 75, 0
2, 167040, Note_on_c, 0, 72, 0
2, 167040, Note_on_c, 0, 74, 62
2, 167040, Note_on_c, 0, 80, 62
2, 167520, Note_on_c, 0, 80, 0
2, 167520, Note_on_c, 0, 74, 0
2, 167520, Note_on_c, 0, 77, 62
2, 168000, Note_on_c, 0, 77, 0
2, 168240, Note_on_c, 0, 76, 62
2, 168720, Note_on_c, 0, 76, 0
2, 168720, Note_on_c, 0, 76, 75
2, 168960, Note_on_c, 0, 76, 0
2, 168960, Note_on_c, 0, 81, 88
2, 169440, Note_on_c, 0, 81, 0
2, 169440, Note_on_c, 0, 76, 75
2, 169680, Note_on_c, 0, 76, 0
2, 169920, Note_on_c, 0, 72, 62
2, 169920, Note_on_c, 0, 75, 62
2, 169920, Note_on_c, 0, 81, 62
2, 170640, Note_on_c, 0, 81, 0
2, 170640, Note_on_c, 0, 75, 0
2, 170640, Note_on_c, 0, 72, 0
2, 170640, Note_on_c, 0, 72, 62
2, 170640, Note_on_c, 0, 75, 62
2, 170640, Note_on_c, 0, 81, 62
2, 170880, Note_on_c, 0, 81, 0
2, 170880, Note_on_c, 0, 75, 0
2, 170880, Note_on_c, 0, 72, 0
2, 171120, Note_on_c, 0, 74, 62
2, 171120, Note_on_c, 0, 80, 62
2, 171600, Note_on_c, 0, 80, 0
2, 171600, Note_on_c, 0, 74, 0
2, 171600, Note_on_c, 0, 77, 62
2, 171840, Note_on_c, 0, 77, 0
2, 171840, Note_on_c, 0, 73, 62
2, 171840, Note_on_c, 0, 76, 62
2, 172560, Note_on_c, 0, 76, 0
2, 172560, Note_on_c, 0, 73, 0
2, 172560, Note_on_c, 0, 81, 62
2, 172800, Note_on_c, 0, 81, 0
2, 172800, Note_on_c, 0, 73, 62
2, 172800, Note_on_c, 0, 76, 62
2, 173760, Note_on_c, 0, 76, 0
2, 173760, Note_on_c, 0, 73, 0
2, 173760, Note_on_c, 0, 81, 88
2, 174480, Note_on_c, 0, 81, 0
2, 174480, Note_on_c, 0, 81, 88
2, 174960, Note_on_c, 0, 81, 0
2, 174960, Note_on_c, 0, 80, 88
2, 175080, Note_on_c, 0, 80, 0
2, 175080, Note_on_c, 0, 81, 88
2, 175200, Note_on_c, 0, 81, 0
2, 175200, Note_on_c, 0, 82, 101
2, 175320, Note_on_c, 0, 82, 0
2, 175320, Note_on_c, 0, 81, 101
2, 175440, Note_on_c, 0, 81, 0
2, 175440, Note_on_c, 0, 80, 101
2, 175560, Note_on_c, 0, 80, 0
2, 175560, Note_on_c, 0, 81, 101
2, 175680, Note_on_c, 0, 81, 0
2, 175680, Note_on_c, 0, 81, 114
2, 175680, Note_on_c, 0, 86, 114
2, 175680, Note_on_c, 0, 89, 114
2, 176400, Note_on_c, 0, 89, 0
2, 176400, Note_on_c, 0, 86, 0
2, 176400, Note_on_c, 0, 81, 0
2, 176400, Note_on_c, 0, 86, 114
2, 176640, Note_on_c, 0, 86, 0
2, 176640, Note_on_c, 0, 81, 101
2, 177120, Note_on_c, 0, 81, 0
2, 177120, Note_on_c, 0, 77, 88
2, 177600, Note_on_c, 0, 77, 0
2, 177600, Note_on_c, 0, 79, 88
2, 177600, Note_on_c, 0, 82, 88
2, 177600, Note_on_c, 0, 86, 88
2, 177600, Note_on_c, 0, 91, 88
2, 178320, Note_on_c, 0, 91, 0
2, 178320, Note_on_c, 0, 79, 0
2, 178320, Note_on_c, 0, 82, 0
2, 178320, Note_on_c, 0, 86, 0
2, 178320, Note_on_c, 0, 79, 88
2, 178320, Note_on_c, 0, 91, 88
2, 178800, Note_on_c, 0, 91, 0
2, 178800, Note_on_c, 0, 79, 0
2, 178800, Note_on_c, 0, 78, 88
2, 178920, Note_on_c, 0, 78, 0
2, 178920, Note_on_c, 0, 79, 88
2, 179040, Note_on_c, 0, 79, 0
2, 179040, Note_on_c, 0, 81, 101
2, 179160, Note_on_c, 0, 81, 0
2, 179160, Note_on_c, 0, 79, 101
2, 179280, Note_on_c, 0, 79, 0
2, 179280, Note_on_c, 0, 78, 101
2, 179400, Note_on_c, 0, 78, 0
2, 179400, Note_on_c, 0, 79, 101
2, 179520, Note_on_c, 0, 79, 0
2, 179520, Note_on_c, 0, 79, 114
2, 179520, Note_on_c, 0, 82, 114
2, 180240, Note_on_c, 0, 82, 0
2, 180240, Note_on_c, 0, 79, 0
2, 180240, Note_on_c, 0, 79, 114
2, 180480, Note_on_c, 0, 79, 0
2, 180480, Note_on_c, 0, 76, 101
2, 180960, Note_on_c, 0, 76, 0
2, 180960, Note_on_c, 0, 73, 88
2, 181440, Note_on_c, 0, 73, 0
2, 181440, Note_on_c, 0, 74, 88
2, 182040, Note_on_c, 0, 74, 0
2, 182040, Note_on_c, 0, 73, 88
2, 182160, Note_on_c, 0, 73, 0
2, 182160, Note_on_c, 0, 74, 88
2, 182280, Note_on_c, 0, 74, 0
2, 182280, Note_on_c, 0, 76, 88
2, 182400, Note_on_c, 0, 76, 0
2, 182400, Note_on_c, 0, 74, 88
2, 182880, Note_on_c, 0, 74, 0
2, 182880, Note_on_c, 0, 70, 88
2, 183360, Note_on_c, 0, 70, 0
2, 183360, Note_on_c, 0, 69, 88
2, 184080, Note_on_c, 0, 69, 0
2, 184080, Note_on_c, 0, 69, 114
2, 184560, Note_on_c, 0, 69, 0
2, 184560, Note_on_c, 0, 68, 88
2, 184680, Note_on_c, 0, 68, 0
2, 184680, Note_on_c, 0, 69, 88
2, 184800, Note_on_c, 0, 69, 0
2, 184800, Note_on_c, 0, 70, 88
2, 184920, Note_on_c, 0, 70, 0
2, 184920, Note_on_c, 0, 69, 88
2, 185040, Note_on_c, 0, 69, 0
2, 185040, Note_on_c, 0, 68, 88
2, 185160, Note_on_c, 0, 68, 0
2, 185160, Note_on_c, 0, 69, 88
2, 185280, Note_on_c, 0, 69, 0
2, 185280, Note_on_c, 0, 65, 114
2, 185880, Note_on_c, 0, 65, 0
2, 185880, Note_on_c, 0, 64, 88
2, 186000, Note_on_c, 0, 64, 0
2, 186000, Note_on_c, 0, 65, 88
2, 186120, Note_on_c, 0, 65, 0
2, 186120, Note_on_c, 0, 67, 88
2, 186240, Note_on_c, 0, 67, 0
2, 186240, Note_on_c, 0, 65, 88
2, 186720, Note_on_c, 0, 65, 0
2, 186720, Note_on_c, 0, 64, 75
2, 187200, Note_on_c, 0, 64, 0
2, 187200, Note_on_c, 0, 65, 75
2, 187800, Note_on_c, 0, 65, 0
2, 187800, Control_c, 0, 64, 127
2, 187800, Note_on_c, 0, 64, 75
2, 187920, Note_on_c, 0, 64, 0
2, 187920, Note_on_c, 0, 65, 88
2, 188040, Note_on_c, 0, 65, 0
2, 188040, Note_on_c, 0, 67, 88
2, 188160, Note_on_c, 0, 67, 0
2, 188160, Note_on_c, 0, 65, 88
2, 188640, Note_on_c, 0, 65, 0
2, 188640, Control_c, 0, 64, 0
2, 188640, Note_on_c, 0, 64, 75
2, 189120, Note_on_c, 0, 64, 0
2, 189120, Note_on_c, 0, 77, 88
2, 189720, Note_on_c, 0, 77, 0
2, 189720, Note_on_c, 0, 76, 88
2, 189840, Note_on_c, 0, 76, 0
2, 189840, Note_on_c, 0, 77, 88
2, 189960, Note_on_c, 0, 77, 0
2, 189960, Note_on_c, 0, 79, 88
2, 190080, Note_on_c, 0, 79, 0
2, 190080, Note_on_c, 0, 77, 88
2, 190560, Note_on_c, 0, 77, 0
2, 190560, Note_on_c, 0, 76, 88
2, 191040, Note_on_c, 0, 76, 0
2, 191280, Note_on_c, 0, 86, 127
2, 191760, Note_on_c, 0, 86, 0
2, 191760, Control_c, 0, 64, 127
2, 191760, Note_on_c, 0, 85, 114
2, 191880, Note_on_c, 0, 85, 0
2, 191880, Note_on_c, 0, 86, 114
2, 192000, Note_on_c, 0, 86, 0
2, 192000, Note_on_c, 0, 88, 114
2, 192120, Note_on_c, 0, 88, 0
2, 192120, Note_on_c, 0, 86, 114
2, 192240, Note_on_c, 0, 86, 0
2, 192240, Note_on_c, 0, 85, 114
2, 192360, Note_on_c, 0, 85, 0
2, 192360, Note_on_c, 0, 86, 114
2, 192480, Note_on_c, 0, 86, 0
2, 192480, Note_on_c, 0, 88, 114
2, 192600, Note_on_c, 0, 88, 0
2, 192600, Note_on_c, 0, 86, 114
2, 192720, Note_on_c, 0, 86, 0
2, 192720, Note_on_c, 0, 85, 114
2, 192840, Note_on_c, 0, 85, 0
2, 192840, Control_c, 0, 64, 0
2, 192840, Note_on_c, 0, 86, 114
2, 192960, Note_on_c, 0, 86, 0
2, 192960, Note_on_c, 0, 74, 127
2, 192960, Note_on_c, 0, 77, 127
2, 192960, Note_on_c, 0, 81, 127
2, 192960, Note_on_c, 0, 86, 127
2, 192983, Note_on_c, 0, 86, 0
2, 192983, Note_on_c, 0, 74, 0
2, 192983, Note_on_c, 0, 77, 0
2, 192983, Note_on_c, 0, 81, 0
2, 193440, Control_c, 0, 64, 127
2, 195360, Control_c, 0, 64, 0
2, 195360, End_track
3, 0, Start_track
3, 0, Title_t, "Instrument17"
3, 0, Program_c, 0, 0
3, 0, Control_c, 0, 7, 110
3, 0, Control_c, 0, 10, 97
3, 0, Note_on_c, 0, 69, 101
3, 0, Note_on_c, 0, 73, 101
3, 0, Note_on_c, 0, 76, 101
3, 720, Note_on_c, 0, 76, 0
3, 720, Note_on_c, 0, 73, 0
3, 720, Note_on_c, 0, 69, 0
3, 720, Note_on_c, 0, 69, 75
3, 720, Note_on_c, 0, 73, 75
3, 720, Note_on_c, 0, 76, 75
3, 1200, Note_on_c, 0, 76, 0
3, 1200, Note_on_c, 0, 73, 0
3, 1200, Note_on_c, 0, 69, 0
3, 1200, Note_on_c, 0, 68, 75
3, 1320, Note_on_c, 0, 68, 0
3, 1320, Note_on_c, 0, 69, 75
3, 1440, Note_on_c, 0, 69, 0
3, 1440, Note_on_c, 0, 70, 101
3, 1560, Note_on_c, 0, 70, 0
3, 1560, Note_on_c, 0, 69, 101
3, 1680, Note_on_c, 0, 69, 0
3, 1680, Note_on_c, 0, 68, 101
3, 1800, Note_on_c, 0, 68, 0
3, 1800, Note_on_c, 0, 69, 101
3, 1920, Note_on_c, 0, 69, 0
3, 1920, Note_on_c, 0, 69, 114
3, 1920, Note_on_c, 0, 74, 114
3, 1920, Note_on_c, 0, 77, 114
3, 2640, Note_on_c, 0, 77, 0
3, 2640, Note_on_c, 0, 74, 0
3, 2640, Note_on_c, 0, 69, 0
3, 2640, Note_on_c, 0, 74, 114
3, 2880, Note_on_c, 0, 74, 0
3, 2880, Note_on_c, 0, 69, 101
3, 3360, Note_on_c, 0, 69, 0
3, 3360, Note_on_c, 0, 65, 88
3, 3840, Note_on_c, 0, 65, 0
3, 3840, Note_on_c, 0, 67, 88
3, 3863, Note_on_c, 0, 67, 0
3, 4560, Note_on_c, 0, 70, 88
3, 4560, Note_on_c, 0, 74, 88
3, 5040, Note_on_c, 0, 74, 0
3, 5040, Note_on_c, 0, 70, 0
3, 5040, Note_on_c, 0, 66, 88
3, 5160, Note_on_c, 0, 66, 0
3, 5160, Note_on_c, 0, 67, 88
3, 5280, Note_on_c, 0, 67, 0
3, 5280, Note_on_c, 0, 69, 101
3, 5400, Note_on_c, 0, 69, 0
3, 5400, Note_on_c, 0, 67, 101
3, 5520, Note_on_c, 0, 67, 0
3, 5520, Note_on_c, 0, 66, 101
3, 5640, Note_on_c, 0, 66, 0
3, 5640, Note_on_c, 0, 67, 101
3, 5760, Note_on_c, 0, 67, 0
3, 5760, Note_on_c, 0, 67, 101
3, 5760, Note_on_c, 0, 70, 101
3, 5760, Note_on_c, 0, 74, 101
3, 6480, Note_on_c, 0, 74, 0
3, 6480, Note_on_c, 0, 70, 0
3, 6480, Note_on_c, 0, 67, 0
3, 6480, Note_on_c, 0, 67, 101
3, 6480, Note_on_c, 0, 70, 101
3, 6480, Note_on_c, 0, 74, 101
3, 6720, Note_on_c, 0, 74, 0
3, 6720, Note_on_c, 0, 70, 0
3, 6720, Note_on_c, 0, 67, 0
3, 6720, Note_on_c, 0, 67, 88
3, 6720, Note_on_c, 0, 73, 88
3, 7200, Note_on_c, 0, 73, 0
3, 7200, Note_on_c, 0, 67, 0
3, 7200, Note_on_c, 0, 67, 75
3, 7680, Note_on_c, 0, 67, 0
3, 7680, Note_on_c, 0, 65, 75
3, 7680, Note_on_c, 0, 70, 75
3, 8160, Note_on_c, 0, 65, 0
3, 8280, Note_on_c, 0, 70, 0
3, 8280, Note_on_c, 0, 69, 75
3, 8400, Note_on_c, 0, 69, 0
3, 8400, Note_on_c, 0, 70, 75
3, 8520, Note_on_c, 0, 70, 0
3, 8520, Note_on_c, 0, 72, 75
3, 8640, Note_on_c, 0, 72, 0
3, 8640, Note_on_c, 0, 70, 75
3, 9120, Note_on_c, 0, 70, 0
3, 9120, Note_on_c, 0, 67, 75
3, 9600, Note_on_c, 0, 67, 0
3, 9600, Note_on_c, 0, 60, 75
3, 9600, Note_on_c, 0, 65, 75
3, 10320, Note_on_c, 0, 65, 0
3, 10320, Note_on_c, 0, 60, 0
3, 10320, Note_on_c, 0, 60, 75
3, 10320, Note_on_c, 0, 65, 75
3, 10800, Note_on_c, 0, 65, 0
3, 10800, Note_on_c, 0, 60, 0
3, 10800, Note_on_c, 0, 64, 75
3, 10920, Note_on_c, 0, 64, 0
3, 10920, Note_on_c, 0, 65, 75
3, 11040, Note_on_c, 0, 65, 0
3, 11040, Note_on_c, 0, 67, 75
3, 11160, Note_on_c, 0, 67, 0
3, 11160, Note_on_c, 0, 65, 75
3, 11280, Note_on_c, 0, 65, 0
3, 11280, Note_on_c, 0, 64, 75
3, 11400, Note_on_c, 0, 64, 0
3, 11400, Note_on_c, 0, 65, 75
3, 11520, Note_on_c, 0, 65, 0
3, 11520, Note_on_c, 0, 58, 75
3, 11520, Note_on_c, 0, 62, 75
3, 12480, Note_on_c, 0, 62, 0
3, 12480, Note_on_c, 0, 58, 0
3, 12480, Note_on_c, 0, 57, 75
3, 12480, Note_on_c, 0, 61, 75
3, 12960, Note_on_c, 0, 57, 0
3, 12960, Note_on_c, 0, 55, 75
3, 13440, Note_on_c, 0, 55, 0
3, 13440, Note_on_c, 0, 61, 0
3, 13440, Note_on_c, 0, 53, 75
3, 13440, Note_on_c, 0, 57, 75
3, 14160, Note_on_c, 0, 57, 0
3, 14160, Note_on_c, 0, 53, 0
3, 14160, Note_on_c, 0, 53, 75
3, 14160, Note_on_c, 0, 57, 75
3, 14400, Note_on_c, 0, 57, 0
3, 14400, Note_on_c, 0, 53, 0
3, 14400, Note_on_c, 0, 55, 75
3, 14400, Note_on_c, 0, 58, 75
3, 14880, Note_on_c, 0, 58, 0
3, 14880, Note_on_c, 0, 55, 0
3, 14880, Note_on_c, 0, 53, 75
3, 14880, Note_on_c, 0, 57, 75
3, 15360, Note_on_c, 0, 57, 0
3, 15360, Note_on_c, 0, 53, 0
3, 15360, Note_on_c, 0, 69, 101
3, 15360, Note_on_c, 0, 73, 101
3, 15360, Note_on_c, 0, 76, 101
3, 16080, Note_on_c, 0, 76, 0
3, 16080, Note_on_c, 0, 73, 0
3, 16080, Note_on_c, 0, 69, 0
3, 16080, Note_on_c, 0, 69, 75
3, 16080, Note_on_c, 0, 73, 75
3, 16080, Note_on_c, 0, 76, 75
3, 16560, Note_on_c, 0, 76, 0
3, 16560, Note_on_c, 0, 73, 0
3, 16560, Note_on_c, 0, 69, 0
3, 16560, Note_on_c, 0, 68, 75
3, 16680, Note_on_c, 0, 68, 0
3, 16680, Note_on_c, 0, 69, 75
3, 16800, Note_on_c, 0, 69, 0
3, 16800, Note_on_c, 0, 70, 101
3, 16920, Note_on_c, 0, 70, 0
3, 16920, Note_on_c, 0, 69, 101
3, 17040, Note_on_c, 0, 69, 0
3, 17040, Note_on_c, 0, 68, 101
3, 17160, Note_on_c, 0, 68, 0
3, 17160, Note_on_c, 0, 69, 101
3, 17280, Note_on_c, 0, 69, 0
3, 17280, Note_on_c, 0, 69, 114
3, 17280, Note_on_c, 0, 74, 114
3, 17280, Note_on_c, 0, 77, 114
3, 18000, Note_on_c, 0, 77, 0
3, 18000, Note_on_c, 0, 74, 0
3, 18000, Note_on_c, 0, 69, 0
3, 18000, Note_on_c, 0, 74, 114
3, 18240, Note_on_c, 0, 74, 0
3, 18240, Note_on_c, 0, 69, 101
3, 18720, Note_on_c, 0, 69, 0
3, 18720, Note_on_c, 0, 65, 88
3, 19200, Note_on_c, 0, 65, 0
3, 19200, Note_on_c, 0, 67, 88
3, 19223, Note_on_c, 0, 67, 0
3, 19920, Note_on_c, 0, 70, 88
3, 19920, Note_on_c, 0, 74, 88
3, 20400, Note_on_c, 0, 74, 0
3, 20400, Note_on_c, 0, 70, 0
3, 20400, Note_on_c, 0, 66, 88
3, 20520, Note_on_c, 0, 66, 0
3, 20520, Note_on_c, 0, 67, 88
3, 20640, Note_on_c, 0, 67, 0
3, 20640, Note_on_c, 0, 69, 101
3, 20760, Note_on_c, 0, 69, 0
3, 20760, Note_on_c, 0, 67, 101
3, 20880, Note_on_c, 0, 67, 0
3, 20880, Note_on_c, 0, 66, 101
3, 21000, Note_on_c, 0, 66, 0
3, 21000, Note_on_c, 0, 67, 101
3, 21120, Note_on_c, 0, 67, 0
3, 21120, Note_on_c, 0, 67, 101
3, 21120, Note_on_c, 0, 70, 101
3, 21120, Note_on_c, 0, 74, 101
3, 21840, Note_on_c, 0, 74, 0
3, 21840, Note_on_c, 0, 70, 0
3, 21840, Note_on_c, 0, 67, 0
3, 21840, Note_on_c, 0, 67, 101
3, 21840, Note_on_c, 0, 70, 101
3, 21840, Note_on_c, 0, 74, 101
3, 22080, Note_on_c, 0, 74, 0
3, 22080, Note_on_c, 0, 70, 0
3, 22080, Note_on_c, 0, 67, 0
3, 22080, Note_on_c, 0, 67, 88
3, 22080, Note_on_c, 0, 73, 88
3, 22560, Note_on_c, 0, 73, 0
3, 22560, Note_on_c, 0, 67, 0
3, 22560, Note_on_c, 0, 67, 75
3, 23040, Note_on_c, 0, 67, 0
3, 23040, Note_on_c, 0, 65, 75
3, 23040, Note_on_c, 0, 70, 75
3, 23520, Note_on_c, 0, 65, 0
3, 23640, Note_on_c, 0, 70, 0
3, 23640, Note_on_c, 0, 69, 75
3, 23760, Note_on_c, 0, 69, 0
3, 23760, Note_on_c, 0, 70, 75
3, 23880, Note_on_c, 0, 70, 0
3, 23880, Note_on_c, 0, 72, 75
3, 24000, Note_on_c, 0, 72, 0
3, 24000, Note_on_c, 0, 70, 75
3, 24480, Note_on_c, 0, 70, 0
3, 24480, Note_on_c, 0, 67, 75
3, 24960, Note_on_c, 0, 67, 0
3, 24960, Note_on_c, 0, 60, 75
3, 24960, Note_on_c, 0, 65, 75
3, 25680, Note_on_c, 0, 65, 0
3, 25680, Note_on_c, 0, 60, 0
3, 25680, Note_on_c, 0, 60, 75
3, 25680, Note_on_c, 0, 65, 75
3, 26160, Note_on_c, 0, 65, 0
3, 26160, Note_on_c, 0, 60, 0
3, 26160, Note_on_c, 0, 64, 75
3, 26280, Note_on_c, 0, 64, 0
3, 26280, Note_on_c, 0, 65, 75
3, 26400, Note_on_c, 0, 65, 0
3, 26400, Note_on_c, 0, 67, 75
3, 26520, Note_on_c, 0, 67, 0
3, 26520, Note_on_c, 0, 65, 75
3, 26640, Note_on_c, 0, 65, 0
3, 26640, Note_on_c, 0, 64, 75
3, 26760, Note_on_c, 0, 64, 0
3, 26760, Note_on_c, 0, 65, 75
3, 26880, Note_on_c, 0, 65, 0
3, 26880, Note_on_c, 0, 58, 75
3, 26880, Note_on_c, 0, 62, 75
3, 27840, Note_on_c, 0, 62, 0
3, 27840, Note_on_c, 0, 58, 0
3, 27840, Note_on_c, 0, 57, 75
3, 27840, Note_on_c, 0, 61, 75
3, 28320, Note_on_c, 0, 57, 0
3, 28320, Note_on_c, 0, 55, 75
3, 28800, Note_on_c, 0, 55, 0
3, 28800, Note_on_c, 0, 61, 0
3, 28800, Note_on_c, 0, 53, 75
3, 28800, Note_on_c, 0, 57, 75
3, 29520, Note_on_c, 0, 57, 0
3, 29520, Note_on_c, 0, 53, 0
3, 29520, Note_on_c, 0, 53, 75
3, 29520, Note_on_c, 0, 57, 75
3, 29760, Note_on_c, 0, 57, 0
3, 29760, Note_on_c, 0, 53, 0
3, 29760, Note_on_c, 0, 55, 75
3, 29760, Note_on_c, 0, 58, 75
3, 30240, Note_on_c, 0, 58, 0
3, 30240, Note_on_c, 0, 55, 0
3, 30240, Note_on_c, 0, 53, 75
3, 30240, Note_on_c, 0, 57, 75
3, 30720, Note_on_c, 0, 57, 0
3, 30720, Note_on_c, 0, 53, 0
3, 30720, Note_on_c, 0, 65, 114
3, 30720, Note_on_c, 0, 71, 114
3, 30720, Note_on_c, 0, 74, 114
3, 31440, Note_on_c, 0, 74, 0
3, 31440, Note_on_c, 0, 71, 0
3, 31440, Note_on_c, 0, 65, 0
3, 31440, Note_on_c, 0, 65, 101
3, 31440, Note_on_c, 0, 71, 101
3, 31440, Note_on_c, 0, 74, 101
3, 31680, Note_on_c, 0, 74, 0
3, 31680, Note_on_c, 0, 71, 0
3, 31680, Note_on_c, 0, 65, 0
3, 31920, Note_on_c, 0, 65, 88
3, 31920, Note_on_c, 0, 69, 88
3, 31920, Note_on_c, 0, 74, 88
3, 32400, Note_on_c, 0, 74, 0
3, 32400, Note_on_c, 0, 69, 0
3, 32400, Note_on_c, 0, 65, 0
3, 32400, Note_on_c, 0, 68, 88
3, 32400, Note_on_c, 0, 76, 88
3, 32640, Note_on_c, 0, 76, 0
3, 32640, Note_on_c, 0, 68, 0
3, 32640, Note_on_c, 0, 64, 88
3, 32640, Note_on_c, 0, 69, 88
3, 32640, Note_on_c, 0, 72, 88
3, 33360, Note_on_c, 0, 72, 0
3, 33360, Note_on_c, 0, 69, 0
3, 33360, Note_on_c, 0, 64, 0
3, 33360, Note_on_c, 0, 71, 75
3, 33600, Note_on_c, 0, 71, 0
3, 33600, Note_on_c, 0, 69, 75
3, 34080, Note_on_c, 0, 69, 0
3, 34080, Note_on_c, 0, 64, 75
3, 34560, Note_on_c, 0, 64, 0
3, 34560, Note_on_c, 0, 65, 114
3, 34560, Note_on_c, 0, 71, 114
3, 34560, Note_on_c, 0, 74, 114
3, 35280, Note_on_c, 0, 74, 0
3, 35280, Note_on_c, 0, 71, 0
3, 35280, Note_on_c, 0, 65, 0
3, 35280, Note_on_c, 0, 65, 101
3, 35280, Note_on_c, 0, 71, 101
3, 35280, Note_on_c, 0, 74, 101
3, 35520, Note_on_c, 0, 74, 0
3, 35520, Note_on_c, 0, 71, 0
3, 35520, Note_on_c, 0, 65, 0
3, 35760, Note_on_c, 0, 65, 88
3, 35760, Note_on_c, 0, 69, 88
3, 35760, Note_on_c, 0, 74, 88
3, 36240, Note_on_c, 0, 74, 0
3, 36240, Note_on_c, 0, 69, 0
3, 36240, Note_on_c, 0, 65, 0
3, 36240, Note_on_c, 0, 68, 88
3, 36240, Note_on_c, 0, 76, 88
3, 36480, Note_on_c, 0, 76, 0
3, 36480, Note_on_c, 0, 68, 0
3, 36720, Note_on_c, 0, 72, 88
3, 36720, Note_on_c, 0, 76, 88
3, 37200, Note_on_c, 0, 76, 0
3, 37200, Note_on_c, 0, 72, 0
3, 37200, Note_on_c, 0, 71, 88
3, 37200, Note_on_c, 0, 76, 88
3, 37680, Note_on_c, 0, 76, 0
3, 37680, Note_on_c, 0, 71, 0
3, 37680, Note_on_c, 0, 69, 75
3, 37680, Note_on_c, 0, 72, 75
3, 38160, Note_on_c, 0, 72, 0
3, 38160, Note_on_c, 0, 69, 0
3, 38160, Note_on_c, 0, 64, 75
3, 38400, Note_on_c, 0, 64, 0
3, 38400, Note_on_c, 0, 65, 49
3, 38400, Note_on_c, 0, 69, 49
3, 39120, Note_on_c, 0, 69, 0
3, 39120, Note_on_c, 0, 65, 0
3, 39120, Note_on_c, 0, 65, 49
3, 39120, Note_on_c, 0, 69, 49
3, 39360, Note_on_c, 0, 69, 0
3, 39360, Note_on_c, 0, 65, 0
3, 39360, Note_on_c, 0, 65, 49
3, 39360, Note_on_c, 0, 68, 49
3, 39360, Note_on_c, 0, 71, 49
3, 39840, Note_on_c, 0, 71, 0
3, 39840, Note_on_c, 0, 68, 0
3, 39840, Note_on_c, 0, 65, 0
3, 39840, Note_on_c, 0, 65, 49
3, 39840, Note_on_c, 0, 68, 49
3, 39840, Note_on_c, 0, 71, 49
3, 40320, Note_on_c, 0, 71, 0
3, 40320, Note_on_c, 0, 68, 0
3, 40320, Note_on_c, 0, 65, 0
3, 40560, Note_on_c, 0, 64, 49
3, 40560, Note_on_c, 0, 69, 49
3, 40560, Note_on_c, 0, 73, 49
3, 41040, Note_on_c, 0, 73, 0
3, 41040, Note_on_c, 0, 69, 0
3, 41040, Note_on_c, 0, 64, 0
3, 41040, Note_on_c, 0, 64, 62
3, 41040, Note_on_c, 0, 69, 62
3, 41040, Note_on_c, 0, 73, 62
3, 41280, Note_on_c, 0, 73, 0
3, 41280, Note_on_c, 0, 69, 0
3, 41280, Note_on_c, 0, 64, 0
3, 41280, Note_on_c, 0, 69, 75
3, 41280, Note_on_c, 0, 73, 75
3, 41760, Note_on_c, 0, 73, 0
3, 41760, Note_on_c, 0, 69, 0
3, 41760, Note_on_c, 0, 64, 62
3, 42000, Note_on_c, 0, 64, 0
3, 42240, Note_on_c, 0, 65, 49
3, 42240, Note_on_c, 0, 69, 49
3, 42960, Note_on_c, 0, 69, 0
3, 42960, Note_on_c, 0, 65, 0
3, 42960, Note_on_c, 0, 65, 49
3, 42960, Note_on_c, 0, 69, 49
3, 43200, Note_on_c, 0, 69, 0
3, 43200, Note_on_c, 0, 65, 0
3, 43440, Note_on_c, 0, 65, 49
3, 43440, Note_on_c, 0, 68, 49
3, 43440, Note_on_c, 0, 71, 49
3, 43920, Note_on_c, 0, 71, 0
3, 43920, Note_on_c, 0, 68, 0
3, 43920, Note_on_c, 0, 65, 0
3, 43920, Note_on_c, 0, 65, 49
3, 43920, Note_on_c, 0, 68, 49
3, 43920, Note_on_c, 0, 71, 49
3, 44160, Note_on_c, 0, 71, 0
3, 44160, Note_on_c, 0, 68, 0
3, 44160, Note_on_c, 0, 65, 0
3, 44160, Note_on_c, 0, 64, 49
3, 44880, Note_on_c, 0, 64, 0
3, 44880, Note_on_c, 0, 69, 49
3, 45120, Note_on_c, 0, 69, 0
3, 45120, Note_on_c, 0, 64, 49
3, 46080, Note_on_c, 0, 64, 0
3, 46080, Note_on_c, 0, 65, 114
3, 46080, Note_on_c, 0, 71, 114
3, 46080, Note_on_c, 0, 74, 114
3, 46800, Note_on_c, 0, 74, 0
3, 46800, Note_on_c, 0, 71, 0
3, 46800, Note_on_c, 0, 65, 0
3, 46800, Note_on_c, 0, 65, 101
3, 46800, Note_on_c, 0, 71, 101
3, 46800, Note_on_c, 0, 74, 101
3, 47040, Note_on_c, 0, 74, 0
3, 47040, Note_on_c, 0, 71, 0
3, 47040, Note_on_c, 0, 65, 0
3, 47280, Note_on_c, 0, 65, 88
3, 47280, Note_on_c, 0, 69, 88
3, 47280, Note_on_c, 0, 74, 88
3, 47760, Note_on_c, 0, 74, 0
3, 47760, Note_on_c, 0, 69, 0
3, 47760, Note_on_c, 0, 65, 0
3, 47760, Note_on_c, 0, 68, 88
3, 47760, Note_on_c, 0, 76, 88
3, 48000, Note_on_c, 0, 76, 0
3, 48000, Note_on_c, 0, 68, 0
3, 48000, Note_on_c, 0, 64, 88
3, 48000, Note_on_c, 0, 69, 88
3, 48000, Note_on_c, 0, 72, 88
3, 48720, Note_on_c, 0, 72, 0
3, 48720, Note_on_c, 0, 69, 0
3, 48720, Note_on_c, 0, 64, 0
3, 48720, Note_on_c, 0, 71, 75
3, 48960, Note_on_c, 0, 71, 0
3, 48960, Note_on_c, 0, 69, 75
3, 49440, Note_on_c, 0, 69, 0
3, 49440, Note_on_c, 0, 64, 75
3, 49920, Note_on_c, 0, 64, 0
3, 49920, Note_on_c, 0, 65, 114
3, 49920, Note_on_c, 0, 71, 114
3, 49920, Note_on_c, 0, 74, 114
3, 50640, Note_on_c, 0, 74, 0
3, 50640, Note_on_c, 0, 71, 0
3, 50640, Note_on_c, 0, 65, 0
3, 50640, Note_on_c, 0, 65, 101
3, 50640, Note_on_c, 0, 71, 101
3, 50640, Note_on_c, 0, 74, 101
3, 50880, Note_on_c, 0, 74, 0
3, 50880, Note_on_c, 0, 71, 0
3, 50880, Note_on_c, 0, 65, 0
3, 51120, Note_on_c, 0, 65, 88
3, 51120, Note_on_c, 0, 69, 88
3, 51120, Note_on_c, 0, 74, 88
3, 51600, Note_on_c, 0, 74, 0
3, 51600, Note_on_c, 0, 69, 0
3, 51600, Note_on_c, 0, 65, 0
3, 51600, Note_on_c, 0, 68, 88
3, 51600, Note_on_c, 0, 76, 88
3, 51840, Note_on_c, 0, 76, 0
3, 51840, Note_on_c, 0, 68, 0
3, 52080, Note_on_c, 0, 72, 88
3, 52080, Note_on_c, 0, 76, 88
3, 52560, Note_on_c, 0, 76, 0
3, 52560, Note_on_c, 0, 72, 0
3, 52560, Note_on_c, 0, 71, 88
3, 52560, Note_on_c, 0, 76, 88
3, 53040, Note_on_c, 0, 76, 0
3, 53040, Note_on_c, 0, 71, 0
3, 53040, Note_on_c, 0, 69, 75
3, 53040, Note_on_c, 0, 72, 75
3, 53520, Note_on_c, 0, 72, 0
3, 53520, Note_on_c, 0, 69, 0
3, 53520, Note_on_c, 0, 64, 75
3, 53760, Note_on_c, 0, 64, 0
3, 53760, Note_on_c, 0, 65, 49
3, 53760, Note_on_c, 0, 69, 49
3, 54480, Note_on_c, 0, 69, 0
3, 54480, Note_on_c, 0, 65, 0
3, 54480, Note_on_c, 0, 65, 49
3, 54480, Note_on_c, 0, 69, 49
3, 54720, Note_on_c, 0, 69, 0
3, 54720, Note_on_c, 0, 65, 0
3, 54720, Note_on_c, 0, 65, 49
3, 54720, Note_on_c, 0, 68, 49
3, 54720, Note_on_c, 0, 71, 49
3, 55200, Note_on_c, 0, 71, 0
3, 55200, Note_on_c, 0, 68, 0
3, 55200, Note_on_c, 0, 65, 0
3, 55200, Note_on_c, 0, 65, 49
3, 55200, Note_on_c, 0, 68, 49
3, 55200, Note_on_c, 0, 71, 49
3, 55680, Note_on_c, 0, 71, 0
3, 55680, Note_on_c, 0, 68, 0
3, 55680, Note_on_c, 0, 65, 0
3, 55920, Note_on_c, 0, 64, 49
3, 55920, Note_on_c, 0, 69, 49
3, 55920, Note_on_c, 0, 73, 49
3, 56400, Note_on_c, 0, 73, 0
3, 56400, Note_on_c, 0, 69, 0
3, 56400, Note_on_c, 0, 64, 0
3, 56400, Note_on_c, 0, 64, 62
3, 56400, Note_on_c, 0, 69, 62
3, 56400, Note_on_c, 0, 73, 62
3, 56640, Note_on_c, 0, 73, 0
3, 56640, Note_on_c, 0, 69, 0
3, 56640, Note_on_c, 0, 64, 0
3, 56640, Note_on_c, 0, 69, 75
3, 56640, Note_on_c, 0, 73, 75
3, 57120, Note_on_c, 0, 73, 0
3, 57120, Note_on_c, 0, 69, 0
3, 57120, Note_on_c, 0, 64, 62
3, 57360, Note_on_c, 0, 64, 0
3, 57600, Note_on_c, 0, 65, 49
3, 57600, Note_on_c, 0, 69, 49
3, 58320, Note_on_c, 0, 69, 0
3, 58320, Note_on_c, 0, 65, 0
3, 58320, Note_on_c, 0, 65, 49
3, 58320, Note_on_c, 0, 69, 49
3, 58560, Note_on_c, 0, 69, 0
3, 58560, Note_on_c, 0, 65, 0
3, 58800, Note_on_c, 0, 65, 49
3, 58800, Note_on_c, 0, 68, 49
3, 58800, Note_on_c, 0, 71, 49
3, 59280, Note_on_c, 0, 71, 0
3, 59280, Note_on_c, 0, 68, 0
3, 59280, Note_on_c, 0, 65, 0
3, 59280, Note_on_c, 0, 65, 49
3, 59280, Note_on_c, 0, 68, 49
3, 59280, Note_on_c, 0, 71, 49
3, 59520, Note_on_c, 0, 71, 0
3, 59520, Note_on_c, 0, 68, 0
3, 59520, Note_on_c, 0, 65, 0
3, 59520, Note_on_c, 0, 64, 49
3, 60240, Note_on_c, 0, 64, 0
3, 60240, Note_on_c, 0, 69, 49
3, 60480, Note_on_c, 0, 69, 0
3, 60480, Note_on_c, 0, 64, 49
3, 61440, Note_on_c, 0, 64, 0
3, 61440, Note_on_c, 0, 69, 75
3, 61440, Note_on_c, 0, 73, 75
3, 61440, Note_on_c, 0, 76, 75
3, 62160, Note_on_c, 0, 76, 0
3, 62160, Note_on_c, 0, 73, 0
3, 62160, Note_on_c, 0, 69, 0
3, 62160, Note_on_c, 0, 69, 75
3, 62160, Note_on_c, 0, 73, 75
3, 62160, Note_on_c, 0, 76, 75
3, 62640, Note_on_c, 0, 76, 0
3, 62640, Note_on_c, 0, 73, 0
3, 62640, Note_on_c, 0, 69, 0
3, 62640, Note_on_c, 0, 68, 75
3, 62760, Note_on_c, 0, 68, 0
3, 62760, Note_on_c, 0, 69, 75
3, 62880, Note_on_c, 0, 69, 0
3, 62880, Note_on_c, 0, 70, 101
3, 63000, Note_on_c, 0, 70, 0
3, 63000, Note_on_c, 0, 69, 101
3, 63120, Note_on_c, 0, 69, 0
3, 63120, Note_on_c, 0, 68, 101
3, 63240, Note_on_c, 0, 68, 0
3, 63240, Note_on_c, 0, 69, 101
3, 63360, Note_on_c, 0, 69, 0
3, 63360, Note_on_c, 0, 69, 114
3, 63360, Note_on_c, 0, 74, 114
3, 63360, Note_on_c, 0, 77, 114
3, 64080, Note_on_c, 0, 77, 0
3, 64080, Note_on_c, 0, 74, 0
3, 64080, Note_on_c, 0, 69, 0
3, 64080, Note_on_c, 0, 74, 114
3, 64320, Note_on_c, 0, 74, 0
3, 64320, Note_on_c, 0, 69, 101
3, 64800, Note_on_c, 0, 69, 0
3, 64800, Note_on_c, 0, 65, 88
3, 65280, Note_on_c, 0, 65, 0
3, 65280, Note_on_c, 0, 67, 88
3, 65280, Note_on_c, 0, 74, 88
3, 65303, Note_on_c, 0, 74, 0
3, 65303, Note_on_c, 0, 67, 0
3, 66000, Note_on_c, 0, 70, 88
3, 66000, Note_on_c, 0, 74, 88
3, 66480, Note_on_c, 0, 74, 0
3, 66480, Note_on_c, 0, 70, 0
3, 66480, Note_on_c, 0, 66, 88
3, 66600, Note_on_c, 0, 66, 0
3, 66600, Note_on_c, 0, 67, 88
3, 66720, Note_on_c, 0, 67, 0
3, 66720, Note_on_c, 0, 69, 101
3, 66840, Note_on_c, 0, 69, 0
3, 66840, Note_on_c, 0, 67, 101
3, 66960, Note_on_c, 0, 67, 0
3, 66960, Note_on_c, 0, 66, 101
3, 67080, Note_on_c, 0, 66, 0
3, 67080, Note_on_c, 0, 67, 101
3, 67200, Note_on_c, 0, 67, 0
3, 67200, Note_on_c, 0, 67, 101
3, 67200, Note_on_c, 0, 70, 101
3, 67200, Note_on_c, 0, 74, 101
3, 67920, Note_on_c, 0, 74, 0
3, 67920, Note_on_c, 0, 70, 0
3, 67920, Note_on_c, 0, 67, 0
3, 67920, Note_on_c, 0, 67, 101
3, 67920, Note_on_c, 0, 74, 101
3, 68160, Note_on_c, 0, 74, 0
3, 68160, Note_on_c, 0, 67, 0
3, 68160, Note_on_c, 0, 67, 88
3, 68160, Note_on_c, 0, 73, 88
3, 68640, Note_on_c, 0, 73, 0
3, 68640, Note_on_c, 0, 67, 0
3, 68640, Note_on_c, 0, 67, 75
3, 69120, Note_on_c, 0, 67, 0
3, 69120, Note_on_c, 0, 65, 75
3, 69120, Note_on_c, 0, 70, 75
3, 69600, Note_on_c, 0, 65, 0
3, 69720, Note_on_c, 0, 70, 0
3, 69720, Note_on_c, 0, 69, 75
3, 69840, Note_on_c, 0, 69, 0
3, 69840, Note_on_c, 0, 70, 75
3, 69960, Note_on_c, 0, 70, 0
3, 69960, Note_on_c, 0, 72, 75
3, 70080, Note_on_c, 0, 72, 0
3, 70080, Note_on_c, 0, 70, 75
3, 70560, Note_on_c, 0, 70, 0
3, 70560, Note_on_c, 0, 67, 75
3, 71040, Note_on_c, 0, 67, 0
3, 71040, Note_on_c, 0, 60, 75
3, 71040, Note_on_c, 0, 65, 75
3, 71760, Note_on_c, 0, 65, 0
3, 71760, Note_on_c, 0, 60, 0
3, 71760, Note_on_c, 0, 65, 75
3, 72240, Note_on_c, 0, 65, 0
3, 72240, Note_on_c, 0, 64, 75
3, 72360, Note_on_c, 0, 64, 0
3, 72360, Note_on_c, 0, 65, 75
3, 72480, Note_on_c, 0, 65, 0
3, 72480, Note_on_c, 0, 67, 75
3, 72600, Note_on_c, 0, 67, 0
3, 72600, Note_on_c, 0, 65, 75
3, 72720, Note_on_c, 0, 65, 0
3, 72720, Note_on_c, 0, 64, 75
3, 72840, Note_on_c, 0, 64, 0
3, 72840, Note_on_c, 0, 65, 75
3, 72960, Note_on_c, 0, 65, 0
3, 72960, Note_on_c, 0, 58, 75
3, 72960, Note_on_c, 0, 62, 75
3, 73920, Note_on_c, 0, 62, 0
3, 73920, Note_on_c, 0, 58, 0
3, 73920, Note_on_c, 0, 57, 75
3, 73920, Note_on_c, 0, 61, 75
3, 74400, Note_on_c, 0, 57, 0
3, 74400, Note_on_c, 0, 55, 75
3, 74880, Note_on_c, 0, 55, 0
3, 74880, Note_on_c, 0, 61, 0
3, 74880, Note_on_c, 0, 53, 75
3, 74880, Note_on_c, 0, 57, 75
3, 75600, Note_on_c, 0, 57, 0
3, 75600, Note_on_c, 0, 53, 0
3, 75600, Note_on_c, 0, 53, 75
3, 75600, Note_on_c, 0, 57, 75
3, 75840, Note_on_c, 0, 57, 0
3, 75840, Note_on_c, 0, 53, 0
3, 75840, Note_on_c, 0, 55, 75
3, 75840, Note_on_c, 0, 58, 75
3, 76320, Note_on_c, 0, 58, 0
3, 76320, Note_on_c, 0, 55, 0
3, 76320, Note_on_c, 0, 53, 75
3, 76320, Note_on_c, 0, 57, 75
3, 77280, Note_on_c, 0, 57, 0
3, 77280, Note_on_c, 0, 53, 0
3, 77280, Note_on_c, 0, 62, 75
3, 77520, Note_on_c, 0, 62, 0
3, 77520, Note_on_c, 0, 66, 49
3, 77760, Note_on_c, 0, 66, 0
3, 77760, Note_on_c, 0, 66, 49
3, 77783, Note_on_c, 0, 66, 0
3, 78000, Note_on_c, 0, 66, 49
3, 78023, Note_on_c, 0, 66, 0
3, 78240, Note_on_c, 0, 66, 49
3, 78263, Note_on_c, 0, 66, 0
3, 78480, Note_on_c, 0, 66, 49
3, 78503, Note_on_c, 0, 66, 0
3, 78720, Note_on_c, 0, 66, 49
3, 78743, Note_on_c, 0, 66, 0
3, 78960, Note_on_c, 0, 66, 49
3, 78983, Note_on_c, 0, 66, 0
3, 79200, Note_on_c, 0, 62, 88
3, 79440, Note_on_c, 0, 62, 0
3, 79440, Note_on_c, 0, 67, 62
3, 79680, Note_on_c, 0, 67, 0
3, 79680, Note_on_c, 0, 67, 62
3, 79703, Note_on_c, 0, 67, 0
3, 79920, Note_on_c, 0, 67, 62
3, 79943, Note_on_c, 0, 67, 0
3, 80160, Note_on_c, 0, 67, 62
3, 80183, Note_on_c, 0, 67, 0
3, 80400, Note_on_c, 0, 67, 62
3, 80423, Note_on_c, 0, 67, 0
3, 80640, Note_on_c, 0, 67, 62
3, 80663, Note_on_c, 0, 67, 0
3, 80880, Note_on_c, 0, 67, 62
3, 80903, Note_on_c, 0, 67, 0
3, 81120, Note_on_c, 0, 64, 88
3, 81120, Note_on_c, 0, 67, 88
3, 81360, Note_on_c, 0, 67, 0
3, 81360, Note_on_c, 0, 64, 0
3, 81360, Note_on_c, 0, 67, 62
3, 81360, Note_on_c, 0, 69, 62
3, 81600, Note_on_c, 0, 69, 0
3, 81600, Note_on_c, 0, 67, 0
3, 81600, Note_on_c, 0, 67, 62
3, 81600, Note_on_c, 0, 69, 62
3, 81623, Note_on_c, 0, 69, 0
3, 81623, Note_on_c, 0, 67, 0
3, 81840, Note_on_c, 0, 67, 62
3, 81840, Note_on_c, 0, 69, 62
3, 81863, Note_on_c, 0, 69, 0
3, 81863, Note_on_c, 0, 67, 0
3, 82080, Note_on_c, 0, 67, 75
3, 82080, Note_on_c, 0, 69, 75
3, 82103, Note_on_c, 0, 69, 0
3, 82103, Note_on_c, 0, 67, 0
3, 82320, Note_on_c, 0, 67, 75
3, 82320, Note_on_c, 0, 69, 75
3, 82343, Note_on_c, 0, 69, 0
3, 82343, Note_on_c, 0, 67, 0
3, 82560, Note_on_c, 0, 67, 75
3, 82560, Note_on_c, 0, 69, 75
3, 82583, Note_on_c, 0, 69, 0
3, 82583, Note_on_c, 0, 67, 0
3, 82800, Note_on_c, 0, 67, 75
3, 82800, Note_on_c, 0, 69, 75
3, 82823, Note_on_c, 0, 69, 0
3, 82823, Note_on_c, 0, 67, 0
3, 83040, Note_on_c, 0, 66, 101
3, 83040, Note_on_c, 0, 69, 101
3, 83520, Note_on_c, 0, 69, 0
3, 83520, Note_on_c, 0, 66, 0
3, 83520, Note_on_c, 0, 64, 75
3, 83520, Note_on_c, 0, 69, 75
3, 83543, Note_on_c, 0, 69, 0
3, 83543, Note_on_c, 0, 64, 0
3, 83760, Note_on_c, 0, 68, 62
3, 83783, Note_on_c, 0, 68, 0
3, 84000, Note_on_c, 0, 69, 62
3, 84023, Note_on_c, 0, 69, 0
3, 84240, Note_on_c, 0, 62, 49
3, 84263, Note_on_c, 0, 62, 0
3, 84480, Note_on_c, 0, 62, 49
3, 84960, Note_on_c, 0, 62, 0
3, 84960, Note_on_c, 0, 62, 101
3, 85440, Note_on_c, 0, 62, 0
3, 85440, Note_on_c, 0, 62, 75
3, 85463, Note_on_c, 0, 62, 0
3, 85680, Note_on_c, 0, 61, 62
3, 85703, Note_on_c, 0, 61, 0
3, 85920, Note_on_c, 0, 62, 62
3, 85943, Note_on_c, 0, 62, 0
3, 86880, Note_on_c, 0, 61, 88
3, 87120, Note_on_c, 0, 61, 0
3, 87120, Note_on_c, 0, 64, 62
3, 87360, Note_on_c, 0, 64, 0
3, 87360, Note_on_c, 0, 64, 62
3, 87383, Note_on_c, 0, 64, 0
3, 87600, Note_on_c, 0, 64, 62
3, 87623, Note_on_c, 0, 64, 0
3, 87840, Note_on_c, 0, 62, 88
3, 88080, Note_on_c, 0, 62, 0
3, 88080, Note_on_c, 0, 66, 62
3, 88320, Note_on_c, 0, 66, 0
3, 88320, Note_on_c, 0, 66, 62
3, 88343, Note_on_c, 0, 66, 0
3, 88560, Note_on_c, 0, 66, 62
3, 88583, Note_on_c, 0, 66, 0
3, 88800, Note_on_c, 0, 67, 62
3, 88823, Note_on_c, 0, 67, 0
3, 89040, Note_on_c, 0, 64, 62
3, 89063, Note_on_c, 0, 64, 0
3, 89280, Note_on_c, 0, 61, 62
3, 89303, Note_on_c, 0, 61, 0
3, 89520, Note_on_c, 0, 64, 62
3, 89543, Note_on_c, 0, 64, 0
3, 89760, Note_on_c, 0, 62, 88
3, 90000, Note_on_c, 0, 62, 0
3, 90000, Note_on_c, 0, 66, 62
3, 90240, Note_on_c, 0, 66, 0
3, 90240, Note_on_c, 0, 62, 62
3, 90720, Note_on_c, 0, 62, 0
3, 90720, Note_on_c, 0, 66, 101
3, 90960, Note_on_c, 0, 66, 0
3, 90960, Note_on_c, 0, 69, 75
3, 91200, Note_on_c, 0, 69, 0
3, 91200, Note_on_c, 0, 69, 75
3, 91223, Note_on_c, 0, 69, 0
3, 91440, Note_on_c, 0, 69, 75
3, 91463, Note_on_c, 0, 69, 0
3, 91680, Note_on_c, 0, 69, 75
3, 91703, Note_on_c, 0, 69, 0
3, 91920, Note_on_c, 0, 69, 75
3, 91943, Note_on_c, 0, 69, 0
3, 92160, Note_on_c, 0, 69, 75
3, 92183, Note_on_c, 0, 69, 0
3, 92400, Note_on_c, 0, 69, 75
3, 92423, Note_on_c, 0, 69, 0
3, 92640, Note_on_c, 0, 67, 114
3, 92880, Note_on_c, 0, 67, 0
3, 92880, Note_on_c, 0, 71, 88
3, 93120, Note_on_c, 0, 71, 0
3, 93120, Note_on_c, 0, 71, 88
3, 93143, Note_on_c, 0, 71, 0
3, 93360, Note_on_c, 0, 71, 88
3, 93383, Note_on_c, 0, 71, 0
3, 93600, Note_on_c, 0, 71, 88
3, 93623, Note_on_c, 0, 71, 0
3, 93840, Note_on_c, 0, 71, 88
3, 93863, Note_on_c, 0, 71, 0
3, 94080, Note_on_c, 0, 71, 88
3, 94103, Note_on_c, 0, 71, 0
3, 94320, Note_on_c, 0, 71, 88
3, 94343, Note_on_c, 0, 71, 0
3, 94560, Note_on_c, 0, 69, 114
3, 94800, Note_on_c, 0, 69, 0
3, 94800, Note_on_c, 0, 73, 88
3, 95040, Note_on_c, 0, 73, 0
3, 95040, Note_on_c, 0, 73, 88
3, 95063, Note_on_c, 0, 73, 0
3, 95280, Note_on_c, 0, 73, 88
3, 95303, Note_on_c, 0, 73, 0
3, 95520, Note_on_c, 0, 73, 101
3, 95543, Note_on_c, 0, 73, 0
3, 95760, Note_on_c, 0, 73, 101
3, 95783, Note_on_c, 0, 73, 0
3, 96000, Note_on_c, 0, 73, 101
3, 96023, Note_on_c, 0, 73, 0
3, 96240, Note_on_c, 0, 73, 101
3, 96263, Note_on_c, 0, 73, 0
3, 96480, Note_on_c, 0, 69, 114
3, 96480, Note_on_c, 0, 78, 114
3, 96960, Note_on_c, 0, 78, 0
3, 96960, Note_on_c, 0, 69, 0
3, 96960, Note_on_c, 0, 69, 88
3, 96960, Note_on_c, 0, 76, 88
3, 96983, Note_on_c, 0, 76, 0
3, 96983, Note_on_c, 0, 69, 0
3, 97200, Note_on_c, 0, 68, 88
3, 97200, Note_on_c, 0, 74, 88
3, 97223, Note_on_c, 0, 74, 0
3, 97223, Note_on_c, 0, 68, 0
3, 97440, Note_on_c, 0, 69, 88
3, 97440, Note_on_c, 0, 73, 88
3, 97463, Note_on_c, 0, 73, 0
3, 97463, Note_on_c, 0, 69, 0
3, 97680, Note_on_c, 0, 71, 88
3, 97680, Note_on_c, 0, 74, 88
3, 97703, Note_on_c, 0, 74, 0
3, 97703, Note_on_c, 0, 71, 0
3, 97920, Note_on_c, 0, 69, 88
3, 97920, Note_on_c, 0, 74, 88
3, 98400, Note_on_c, 0, 74, 0
3, 98400, Note_on_c, 0, 69, 0
3, 98400, Note_on_c, 0, 71, 114
3, 98880, Note_on_c, 0, 71, 0
3, 98880, Note_on_c, 0, 69, 88
3, 98903, Note_on_c, 0, 69, 0
3, 99120, Note_on_c, 0, 67, 88
3, 99143, Note_on_c, 0, 67, 0
3, 99360, Note_on_c, 0, 66, 88
3, 99383, Note_on_c, 0, 66, 0
3, 99600, Note_on_c, 0, 64, 88
3, 99600, Note_on_c, 0, 69, 88
3, 99623, Note_on_c, 0, 69, 0
3, 99623, Note_on_c, 0, 64, 0
3, 99840, Note_on_c, 0, 62, 88
3, 99840, Note_on_c, 0, 69, 88
3, 100320, Note_on_c, 0, 69, 0
3, 100320, Note_on_c, 0, 62, 0
3, 100320, Note_on_c, 0, 61, 101
3, 100560, Note_on_c, 0, 61, 0
3, 100560, Note_on_c, 0, 64, 75
3, 100800, Note_on_c, 0, 64, 0
3, 100800, Note_on_c, 0, 64, 75
3, 100823, Note_on_c, 0, 64, 0
3, 101040, Note_on_c, 0, 64, 75
3, 101063, Note_on_c, 0, 64, 0
3, 101280, Note_on_c, 0, 62, 101
3, 101520, Note_on_c, 0, 62, 0
3, 101520, Note_on_c, 0, 66, 75
3, 101760, Note_on_c, 0, 66, 0
3, 101760, Note_on_c, 0, 66, 75
3, 101783, Note_on_c, 0, 66, 0
3, 102000, Note_on_c, 0, 66, 75
3, 102023, Note_on_c, 0, 66, 0
3, 102240, Note_on_c, 0, 67, 75
3, 102263, Note_on_c, 0, 67, 0
3, 102480, Note_on_c, 0, 64, 75
3, 102503, Note_on_c, 0, 64, 0
3, 102720, Note_on_c, 0, 61, 75
3, 102743, Note_on_c, 0, 61, 0
3, 102960, Note_on_c, 0, 64, 75
3, 102983, Note_on_c, 0, 64, 0
3, 103200, Note_on_c, 0, 62, 101
3, 103440, Note_on_c, 0, 62, 0
3, 103440, Note_on_c, 0, 66, 75
3, 103680, Note_on_c, 0, 66, 0
3, 103680, Note_on_c, 0, 62, 75
3, 104160, Note_on_c, 0, 62, 0
3, 104160, Note_on_c, 0, 69, 75
3, 104160, Note_on_c, 0, 78, 75
3, 104640, Note_on_c, 0, 78, 0
3, 104640, Note_on_c, 0, 69, 0
3, 104640, Note_on_c, 0, 69, 75
3, 104640, Note_on_c, 0, 76, 75
3, 104663, Note_on_c, 0, 76, 0
3, 104663, Note_on_c, 0, 69, 0
3, 104880, Note_on_c, 0, 68, 75
3, 104880, Note_on_c, 0, 74, 75
3, 104903, Note_on_c, 0, 74, 0
3, 104903, Note_on_c, 0, 68, 0
3, 105120, Note_on_c, 0, 69, 75
3, 105120, Note_on_c, 0, 73, 75
3, 105143, Note_on_c, 0, 73, 0
3, 105143, Note_on_c, 0, 69, 0
3, 105360, Note_on_c, 0, 71, 75
3, 105360, Note_on_c, 0, 74, 75
3, 105383, Note_on_c, 0, 74, 0
3, 105383, Note_on_c, 0, 71, 0
3, 105600, Note_on_c, 0, 69, 75
3, 105600, Note_on_c, 0, 74, 75
3, 106080, Note_on_c, 0, 74, 0
3, 106080, Note_on_c, 0, 69, 0
3, 106080, Note_on_c, 0, 71, 101
3, 106080, Note_on_c, 0, 74, 101
3, 106560, Note_on_c, 0, 74, 0
3, 106560, Note_on_c, 0, 71, 0
3, 106560, Note_on_c, 0, 69, 75
3, 106560, Note_on_c, 0, 74, 75
3, 106583, Note_on_c, 0, 74, 0
3, 106583, Note_on_c, 0, 69, 0
3, 106800, Note_on_c, 0, 67, 75
3, 106800, Note_on_c, 0, 73, 75
3, 106823, Note_on_c, 0, 73, 0
3, 106823, Note_on_c, 0, 67, 0
3, 107040, Note_on_c, 0, 66, 75
3, 107040, Note_on_c, 0, 74, 75
3, 107063, Note_on_c, 0, 74, 0
3, 107063, Note_on_c, 0, 66, 0
3, 107280, Note_on_c, 0, 69, 75
3, 107280, Note_on_c, 0, 76, 75
3, 107303, Note_on_c, 0, 76, 0
3, 107303, Note_on_c, 0, 69, 0
3, 107520, Note_on_c, 0, 69, 75
3, 107520, Note_on_c, 0, 74, 75
3, 108000, Note_on_c, 0, 74, 0
3, 108000, Note_on_c, 0, 69, 0
3, 108000, Note_on_c, 0, 73, 114
3, 108240, Note_on_c, 0, 73, 0
3, 108240, Note_on_c, 0, 76, 88
3, 108480, Note_on_c, 0, 76, 0
3, 108480, Note_on_c, 0, 76, 88
3, 108503, Note_on_c, 0, 76, 0
3, 108720, Note_on_c, 0, 76, 88
3, 108743, Note_on_c, 0, 76, 0
3, 108960, Note_on_c, 0, 74, 114
3, 109200, Note_on_c, 0, 74, 0
3, 109200, Note_on_c, 0, 78, 88
3, 109440, Note_on_c, 0, 78, 0
3, 109440, Note_on_c, 0, 78, 88
3, 109463, Note_on_c, 0, 78, 0
3, 109680, Note_on_c, 0, 78, 88
3, 109703, Note_on_c, 0, 78, 0
3, 109920, Note_on_c, 0, 79, 88
3, 109943, Note_on_c, 0, 79, 0
3, 110160, Note_on_c, 0, 76, 88
3, 110183, Note_on_c, 0, 76, 0
3, 110400, Note_on_c, 0, 73, 88
3, 110423, Note_on_c, 0, 73, 0
3, 110640, Note_on_c, 0, 76, 88
3, 110663, Note_on_c, 0, 76, 0
3, 110880, Note_on_c, 0, 74, 88
3, 110903, Note_on_c, 0, 74, 0
3, 111280, Note_on_c, 0, 69, 88
3, 111320, Note_on_c, 0, 74, 88
3, 111360, Note_on_c, 0, 81, 88
3, 111383, Note_on_c, 0, 81, 0
3, 111383, Note_on_c, 0, 74, 0
3, 111383, Note_on_c, 0, 69, 0
3, 112320, Note_on_c, 0, 69, 101
3, 112320, Note_on_c, 0, 73, 101
3, 112320, Note_on_c, 0, 76, 101
3, 113040, Note_on_c, 0, 76, 0
3, 113040, Note_on_c, 0, 73, 0
3, 113040, Note_on_c, 0, 69, 0
3, 113040, Note_on_c, 0, 69, 75
3, 113040, Note_on_c, 0, 73, 75
3, 113040, Note_on_c, 0, 76, 75
3, 113520, Note_on_c, 0, 76, 0
3, 113520, Note_on_c, 0, 73, 0
3, 113520, Note_on_c, 0, 69, 0
3, 113520, Note_on_c, 0, 68, 75
3, 113640, Note_on_c, 0, 68, 0
3, 113640, Note_on_c, 0, 69, 75
3, 113760, Note_on_c, 0, 69, 0
3, 113760, Note_on_c, 0, 70, 101
3, 113880, Note_on_c, 0, 70, 0
3, 113880, Note_on_c, 0, 69, 101
3, 114000, Note_on_c, 0, 69, 0
3, 114000, Note_on_c, 0, 68, 101
3, 114120, Note_on_c, 0, 68, 0
3, 114120, Note_on_c, 0, 69, 101
3, 114240, Note_on_c, 0, 69, 0
3, 114240, Note_on_c, 0, 69, 114
3, 114240, Note_on_c, 0, 74, 114
3, 114240, Note_on_c, 0, 77, 114
3, 114960, Note_on_c, 0, 77, 0
3, 114960, Note_on_c, 0, 74, 0
3, 114960, Note_on_c, 0, 69, 0
3, 114960, Note_on_c, 0, 74, 114
3, 115200, Note_on_c, 0, 74, 0
3, 115200, Note_on_c, 0, 69, 101
3, 115680, Note_on_c, 0, 69, 0
3, 115680, Note_on_c, 0, 65, 88
3, 116160, Note_on_c, 0, 65, 0
3, 116160, Note_on_c, 0, 67, 88
3, 116183, Note_on_c, 0, 67, 0
3, 116880, Note_on_c, 0, 70, 88
3, 116880, Note_on_c, 0, 74, 88
3, 117360, Note_on_c, 0, 74, 0
3, 117360, Note_on_c, 0, 70, 0
3, 117360, Note_on_c, 0, 66, 88
3, 117480, Note_on_c, 0, 66, 0
3, 117480, Note_on_c, 0, 67, 88
3, 117600, Note_on_c, 0, 67, 0
3, 117600, Note_on_c, 0, 69, 101
3, 117720, Note_on_c, 0, 69, 0
3, 117720, Note_on_c, 0, 67, 101
3, 117840, Note_on_c, 0, 67, 0
3, 117840, Note_on_c, 0, 66, 101
3, 117960, Note_on_c, 0, 66, 0
3, 117960, Note_on_c, 0, 67, 101
3, 118080, Note_on_c, 0, 67, 0
3, 118080, Note_on_c, 0, 67, 101
3, 118080, Note_on_c, 0, 70, 101
3, 118080, Note_on_c, 0, 74, 101
3, 118800, Note_on_c, 0, 74, 0
3, 118800, Note_on_c, 0, 70, 0
3, 118800, Note_on_c, 0, 67, 0
3, 118800, Note_on_c, 0, 67, 101
3, 118800, Note_on_c, 0, 70, 101
3, 118800, Note_on_c, 0, 74, 101
3, 119040, Note_on_c, 0, 74, 0
3, 119040, Note_on_c, 0, 70, 0
3, 119040, Note_on_c, 0, 67, 0
3, 119040, Note_on_c, 0, 67, 88
3, 119040, Note_on_c, 0, 73, 88
3, 119520, Note_on_c, 0, 73, 0
3, 119520, Note_on_c, 0, 67, 0
3, 119520, Note_on_c, 0, 67, 75
3, 120000, Note_on_c, 0, 67, 0
3, 120000, Note_on_c, 0, 65, 75
3, 120000, Note_on_c, 0, 70, 75
3, 120480, Note_on_c, 0, 65, 0
3, 120600, Note_on_c, 0, 70, 0
3, 120600, Note_on_c, 0, 69, 75
3, 120720, Note_on_c, 0, 69, 0
3, 120720, Note_on_c, 0, 70, 75
3, 120840, Note_on_c, 0, 70, 0
3, 120840, Note_on_c, 0, 72, 75
3, 120960, Note_on_c, 0, 72, 0
3, 120960, Note_on_c, 0, 70, 75
3, 121440, Note_on_c, 0, 70, 0
3, 121440, Note_on_c, 0, 67, 75
3, 121920, Note_on_c, 0, 67, 0
3, 121920, Note_on_c, 0, 60, 75
3, 121920, Note_on_c, 0, 65, 75
3, 122640, Note_on_c, 0, 65, 0
3, 122640, Note_on_c, 0, 60, 0
3, 122640, Note_on_c, 0, 60, 75
3, 122640, Note_on_c, 0, 65, 75
3, 123120, Note_on_c, 0, 65, 0
3, 123120, Note_on_c, 0, 60, 0
3, 123120, Note_on_c, 0, 64, 75
3, 123240, Note_on_c, 0, 64, 0
3, 123240, Note_on_c, 0, 65, 75
3, 123360, Note_on_c, 0, 65, 0
3, 123360, Note_on_c, 0, 67, 75
3, 123480, Note_on_c, 0, 67, 0
3, 123480, Note_on_c, 0, 65, 75
3, 123600, Note_on_c, 0, 65, 0
3, 123600, Note_on_c, 0, 64, 75
3, 123720, Note_on_c, 0, 64, 0
3, 123720, Note_on_c, 0, 65, 75
3, 123840, Note_on_c, 0, 65, 0
3, 123840, Note_on_c, 0, 58, 75
3, 123840, Note_on_c, 0, 62, 75
3, 124800, Note_on_c, 0, 62, 0
3, 124800, Note_on_c, 0, 58, 0
3, 124800, Note_on_c, 0, 57, 75
3, 124800, Note_on_c, 0, 61, 75
3, 125280, Note_on_c, 0, 57, 0
3, 125280, Note_on_c, 0, 55, 75
3, 125760, Note_on_c, 0, 55, 0
3, 125760, Note_on_c, 0, 61, 0
3, 125760, Note_on_c, 0, 53, 75
3, 125760, Note_on_c, 0, 57, 75
3, 126480, Note_on_c, 0, 57, 0
3, 126480, Note_on_c, 0, 53, 0
3, 126480, Note_on_c, 0, 53, 75
3, 126480, Note_on_c, 0, 57, 75
3, 126720, Note_on_c, 0, 57, 0
3, 126720, Note_on_c, 0, 53, 0
3, 126720, Note_on_c, 0, 55, 75
3, 126720, Note_on_c, 0, 58, 75
3, 127200, Note_on_c, 0, 58, 0
3, 127200, Note_on_c, 0, 55, 0
3, 127200, Note_on_c, 0, 53, 75
3, 127200, Note_on_c, 0, 57, 75
3, 127680, Note_on_c, 0, 57, 0
3, 127680, Note_on_c, 0, 53, 0
3, 127680, Note_on_c, 0, 69, 101
3, 127680, Note_on_c, 0, 73, 101
3, 127680, Note_on_c, 0, 76, 101
3, 128400, Note_on_c, 0, 76, 0
3, 128400, Note_on_c, 0, 73, 0
3, 128400, Note_on_c, 0, 69, 0
3, 128400, Note_on_c, 0, 69, 75
3, 128400, Note_on_c, 0, 73, 75
3, 128400, Note_on_c, 0, 76, 75
3, 128880, Note_on_c, 0, 76, 0
3, 128880, Note_on_c, 0, 73, 0
3, 128880, Note_on_c, 0, 69, 0
3, 128880, Note_on_c, 0, 68, 75
3, 129000, Note_on_c, 0, 68, 0
3, 129000, Note_on_c, 0, 69, 75
3, 129120, Note_on_c, 0, 69, 0
3, 129120, Note_on_c, 0, 70, 101
3, 129240, Note_on_c, 0, 70, 0
3, 129240, Note_on_c, 0, 69, 101
3, 129360, Note_on_c, 0, 69, 0
3, 129360, Note_on_c, 0, 68, 101
3, 129480, Note_on_c, 0, 68, 0
3, 129480, Note_on_c, 0, 69, 101
3, 129600, Note_on_c, 0, 69, 0
3, 129600, Note_on_c, 0, 69, 114
3, 129600, Note_on_c, 0, 74, 114
3, 129600, Note_on_c, 0, 77, 114
3, 130320, Note_on_c, 0, 77, 0
3, 130320, Note_on_c, 0, 74, 0
3, 130320, Note_on_c, 0, 69, 0
3, 130320, Note_on_c, 0, 74, 114
3, 130560, Note_on_c, 0, 74, 0
3, 130560, Note_on_c, 0, 69, 101
3, 131040, Note_on_c, 0, 69, 0
3, 131040, Note_on_c, 0, 65, 88
3, 131520, Note_on_c, 0, 65, 0
3, 131520, Note_on_c, 0, 67, 88
3, 131543, Note_on_c, 0, 67, 0
3, 132240, Note_on_c, 0, 70, 88
3, 132240, Note_on_c, 0, 74, 88
3, 132720, Note_on_c, 0, 74, 0
3, 132720, Note_on_c, 0, 70, 0
3, 132720, Note_on_c, 0, 66, 88
3, 132840, Note_on_c, 0, 66, 0
3, 132840, Note_on_c, 0, 67, 88
3, 132960, Note_on_c, 0, 67, 0
3, 132960, Note_on_c, 0, 69, 101
3, 133080, Note_on_c, 0, 69, 0
3, 133080, Note_on_c, 0, 67, 101
3, 133200, Note_on_c, 0, 67, 0
3, 133200, Note_on_c, 0, 66, 101
3, 133320, Note_on_c, 0, 66, 0
3, 133320, Note_on_c, 0, 67, 101
3, 133440, Note_on_c, 0, 67, 0
3, 133440, Note_on_c, 0, 67, 101
3, 133440, Note_on_c, 0, 70, 101
3, 133440, Note_on_c, 0, 74, 101
3, 134160, Note_on_c, 0, 74, 0
3, 134160, Note_on_c, 0, 70, 0
3, 134160, Note_on_c, 0, 67, 0
3, 134160, Note_on_c, 0, 67, 101
3, 134160, Note_on_c, 0, 70, 101
3, 134160, Note_on_c, 0, 74, 101
3, 134400, Note_on_c, 0, 74, 0
3, 134400, Note_on_c, 0, 70, 0
3, 134400, Note_on_c, 0, 67, 0
3, 134400, Note_on_c, 0, 67, 88
3, 134400, Note_on_c, 0, 73, 88
3, 134880, Note_on_c, 0, 73, 0
3, 134880, Note_on_c, 0, 67, 0
3, 134880, Note_on_c, 0, 67, 75
3, 135360, Note_on_c, 0, 67, 0
3, 135360, Note_on_c, 0, 65, 75
3, 135360, Note_on_c, 0, 70, 75
3, 135840, Note_on_c, 0, 65, 0
3, 135960, Note_on_c, 0, 70, 0
3, 135960, Note_on_c, 0, 69, 75
3, 136080, Note_on_c, 0, 69, 0
3, 136080, Note_on_c, 0, 70, 75
3, 136200, Note_on_c, 0, 70, 0
3, 136200, Note_on_c, 0, 72, 75
3, 136320, Note_on_c, 0, 72, 0
3, 136320, Note_on_c, 0, 70, 75
3, 136800, Note_on_c, 0, 70, 0
3, 136800, Note_on_c, 0, 67, 75
3, 137280, Note_on_c, 0, 67, 0
3, 137280, Note_on_c, 0, 60, 75
3, 137280, Note_on_c, 0, 65, 75
3, 138000, Note_on_c, 0, 65, 0
3, 138000, Note_on_c, 0, 60, 0
3, 138000, Note_on_c, 0, 60, 75
3, 138000, Note_on_c, 0, 65, 75
3, 138480, Note_on_c, 0, 65, 0
3, 138480, Note_on_c, 0, 60, 0
3, 138480, Note_on_c, 0, 64, 75
3, 138600, Note_on_c, 0, 64, 0
3, 138600, Note_on_c, 0, 65, 75
3, 138720, Note_on_c, 0, 65, 0
3, 138720, Note_on_c, 0, 67, 75
3, 138840, Note_on_c, 0, 67, 0
3, 138840, Note_on_c, 0, 65, 75
3, 138960, Note_on_c, 0, 65, 0
3, 138960, Note_on_c, 0, 64, 75
3, 139080, Note_on_c, 0, 64, 0
3, 139080, Note_on_c, 0, 65, 75
3, 139200, Note_on_c, 0, 65, 0
3, 139200, Note_on_c, 0, 58, 75
3, 139200, Note_on_c, 0, 62, 75
3, 140160, Note_on_c, 0, 62, 0
3, 140160, Note_on_c, 0, 58, 0
3, 140160, Note_on_c, 0, 57, 75
3, 140160, Note_on_c, 0, 61, 75
3, 140640, Note_on_c, 0, 57, 0
3, 140640, Note_on_c, 0, 55, 75
3, 141120, Note_on_c, 0, 55, 0
3, 141120, Note_on_c, 0, 61, 0
3, 141120, Note_on_c, 0, 53, 75
3, 141120, Note_on_c, 0, 57, 75
3, 141840, Note_on_c, 0, 57, 0
3, 141840, Note_on_c, 0, 53, 0
3, 141840, Note_on_c, 0, 53, 75
3, 141840, Note_on_c, 0, 57, 75
3, 142080, Note_on_c, 0, 57, 0
3, 142080, Note_on_c, 0, 53, 0
3, 142080, Note_on_c, 0, 55, 75
3, 142080, Note_on_c, 0, 58, 75
3, 142560, Note_on_c, 0, 58, 0
3, 142560, Note_on_c, 0, 55, 0
3, 142560, Note_on_c, 0, 53, 75
3, 142560, Note_on_c, 0, 57, 75
3, 143040, Note_on_c, 0, 57, 0
3, 143040, Note_on_c, 0, 53, 0
3, 143040, Note_on_c, 0, 65, 114
3, 143040, Note_on_c, 0, 71, 114
3, 143040, Note_on_c, 0, 74, 114
3, 143760, Note_on_c, 0, 74, 0
3, 143760, Note_on_c, 0, 71, 0
3, 143760, Note_on_c, 0, 65, 0
3, 143760, Note_on_c, 0, 65, 101
3, 143760, Note_on_c, 0, 71, 101
3, 143760, Note_on_c, 0, 74, 101
3, 144000, Note_on_c, 0, 74, 0
3, 144000, Note_on_c, 0, 71, 0
3, 144000, Note_on_c, 0, 65, 0
3, 144240, Note_on_c, 0, 65, 88
3, 144240, Note_on_c, 0, 69, 88
3, 144240, Note_on_c, 0, 74, 88
3, 144720, Note_on_c, 0, 74, 0
3, 144720, Note_on_c, 0, 69, 0
3, 144720, Note_on_c, 0, 65, 0
3, 144720, Note_on_c, 0, 68, 88
3, 144720, Note_on_c, 0, 76, 88
3, 144960, Note_on_c, 0, 76, 0
3, 144960, Note_on_c, 0, 68, 0
3, 144960, Note_on_c, 0, 64, 88
3, 144960, Note_on_c, 0, 69, 88
3, 144960, Note_on_c, 0, 72, 88
3, 145680, Note_on_c, 0, 72, 0
3, 145680, Note_on_c, 0, 69, 0
3, 145680, Note_on_c, 0, 64, 0
3, 145680, Note_on_c, 0, 71, 75
3, 145920, Note_on_c, 0, 71, 0
3, 145920, Note_on_c, 0, 69, 75
3, 146400, Note_on_c, 0, 69, 0
3, 146400, Note_on_c, 0, 64, 75
3, 146880, Note_on_c, 0, 64, 0
3, 146880, Note_on_c, 0, 65, 114
3, 146880, Note_on_c, 0, 71, 114
3, 146880, Note_on_c, 0, 74, 114
3, 147600, Note_on_c, 0, 74, 0
3, 147600, Note_on_c, 0, 71, 0
3, 147600, Note_on_c, 0, 65, 0
3, 147600, Note_on_c, 0, 65, 101
3, 147600, Note_on_c, 0, 71, 101
3, 147600, Note_on_c, 0, 74, 101
3, 147840, Note_on_c, 0, 74, 0
3, 147840, Note_on_c, 0, 71, 0
3, 147840, Note_on_c, 0, 65, 0
3, 148080, Note_on_c, 0, 65, 88
3, 148080, Note_on_c, 0, 69, 88
3, 148080, Note_on_c, 0, 74, 88
3, 148560, Note_on_c, 0, 74, 0
3, 148560, Note_on_c, 0, 69, 0
3, 148560, Note_on_c, 0, 65, 0
3, 148560, Note_on_c, 0, 68, 88
3, 148560, Note_on_c, 0, 76, 88
3, 148800, Note_on_c, 0, 76, 0
3, 148800, Note_on_c, 0, 68, 0
3, 149040, Note_on_c, 0, 72, 88
3, 149040, Note_on_c, 0, 76, 88
3, 149520, Note_on_c, 0, 76, 0
3, 149520, Note_on_c, 0, 72, 0
3, 149520, Note_on_c, 0, 71, 88
3, 149520, Note_on_c, 0, 76, 88
3, 150000, Note_on_c, 0, 76, 0
3, 150000, Note_on_c, 0, 71, 0
3, 150000, Note_on_c, 0, 69, 75
3, 150000, Note_on_c, 0, 72, 75
3, 150480, Note_on_c, 0, 72, 0
3, 150480, Note_on_c, 0, 69, 0
3, 150480, Note_on_c, 0, 64, 75
3, 150720, Note_on_c, 0, 64, 0
3, 150720, Note_on_c, 0, 65, 49
3, 150720, Note_on_c, 0, 69, 49
3, 151440, Note_on_c, 0, 69, 0
3, 151440, Note_on_c, 0, 65, 0
3, 151440, Note_on_c, 0, 65, 49
3, 151440, Note_on_c, 0, 69, 49
3, 151680, Note_on_c, 0, 69, 0
3, 151680, Note_on_c, 0, 65, 0
3, 151680, Note_on_c, 0, 65, 49
3, 151680, Note_on_c, 0, 68, 49
3, 151680, Note_on_c, 0, 71, 49
3, 152160, Note_on_c, 0, 71, 0
3, 152160, Note_on_c, 0, 68, 0
3, 152160, Note_on_c, 0, 65, 0
3, 152160, Note_on_c, 0, 65, 49
3, 152160, Note_on_c, 0, 68, 49
3, 152160, Note_on_c, 0, 71, 49
3, 152640, Note_on_c, 0, 71, 0
3, 152640, Note_on_c, 0, 68, 0
3, 152640, Note_on_c, 0, 65, 0
3, 152880, Note_on_c, 0, 64, 49
3, 152880, Note_on_c, 0, 69, 49
3, 152880, Note_on_c, 0, 73, 49
3, 153360, Note_on_c, 0, 73, 0
3, 153360, Note_on_c, 0, 69, 0
3, 153360, Note_on_c, 0, 64, 0
3, 153360, Note_on_c, 0, 64, 62
3, 153360, Note_on_c, 0, 69, 62
3, 153360, Note_on_c, 0, 73, 62
3, 153600, Note_on_c, 0, 73, 0
3, 153600, Note_on_c, 0, 69, 0
3, 153600, Note_on_c, 0, 64, 0
3, 153600, Note_on_c, 0, 69, 75
3, 153600, Note_on_c, 0, 73, 75
3, 154080, Note_on_c, 0, 73, 0
3, 154080, Note_on_c, 0, 69, 0
3, 154080, Note_on_c, 0, 64, 62
3, 154320, Note_on_c, 0, 64, 0
3, 154560, Note_on_c, 0, 65, 49
3, 154560, Note_on_c, 0, 69, 49
3, 155280, Note_on_c, 0, 69, 0
3, 155280, Note_on_c, 0, 65, 0
3, 155280, Note_on_c, 0, 65, 49
3, 155280, Note_on_c, 0, 69, 49
3, 155520, Note_on_c, 0, 69, 0
3, 155520, Note_on_c, 0, 65, 0
3, 155760, Note_on_c, 0, 65, 49
3, 155760, Note_on_c, 0, 68, 49
3, 155760, Note_on_c, 0, 71, 49
3, 156240, Note_on_c, 0, 71, 0
3, 156240, Note_on_c, 0, 68, 0
3, 156240, Note_on_c, 0, 65, 0
3, 156240, Note_on_c, 0, 65, 49
3, 156240, Note_on_c, 0, 68, 49
3, 156240, Note_on_c, 0, 71, 49
3, 156480, Note_on_c, 0, 71, 0
3, 156480, Note_on_c, 0, 68, 0
3, 156480, Note_on_c, 0, 65, 0
3, 156480, Note_on_c, 0, 64, 49
3, 157200, Note_on_c, 0, 64, 0
3, 157200, Note_on_c, 0, 69, 49
3, 157440, Note_on_c, 0, 69, 0
3, 157440, Note_on_c, 0, 64, 49
3, 158400, Note_on_c, 0, 64, 0
3, 158400, Note_on_c, 0, 65, 114
3, 158400, Note_on_c, 0, 71, 114
3, 158400, Note_on_c, 0, 74, 114
3, 159120, Note_on_c, 0, 74, 0
3, 159120, Note_on_c, 0, 71, 0
3, 159120, Note_on_c, 0, 65, 0
3, 159120, Note_on_c, 0, 65, 101
3, 159120, Note_on_c, 0, 71, 101
3, 159120, Note_on_c, 0, 74, 101
3, 159360, Note_on_c, 0, 74, 0
3, 159360, Note_on_c, 0, 71, 0
3, 159360, Note_on_c, 0, 65, 0
3, 159600, Note_on_c, 0, 65, 88
3, 159600, Note_on_c, 0, 69, 88
3, 159600, Note_on_c, 0, 74, 88
3, 160080, Note_on_c, 0, 74, 0
3, 160080, Note_on_c, 0, 69, 0
3, 160080, Note_on_c, 0, 65, 0
3, 160080, Note_on_c, 0, 68, 88
3, 160080, Note_on_c, 0, 76, 88
3, 160320, Note_on_c, 0, 76, 0
3, 160320, Note_on_c, 0, 68, 0
3, 160320, Note_on_c, 0, 64, 88
3, 160320, Note_on_c, 0, 69, 88
3, 160320, Note_on_c, 0, 72, 88
3, 161040, Note_on_c, 0, 72, 0
3, 161040, Note_on_c, 0, 69, 0
3, 161040, Note_on_c, 0, 64, 0
3, 161040, Note_on_c, 0, 71, 75
3, 161280, Note_on_c, 0, 71, 0
3, 161280, Note_on_c, 0, 69, 75
3, 161760, Note_on_c, 0, 69, 0
3, 161760, Note_on_c, 0, 64, 75
3, 162240, Note_on_c, 0, 64, 0
3, 162240, Note_on_c, 0, 65, 114
3, 162240, Note_on_c, 0, 71, 114
3, 162240, Note_on_c, 0, 74, 114
3, 162960, Note_on_c, 0, 74, 0
3, 162960, Note_on_c, 0, 71, 0
3, 162960, Note_on_c, 0, 65, 0
3, 162960, Note_on_c, 0, 65, 101
3, 162960, Note_on_c, 0, 71, 101
3, 162960, Note_on_c, 0, 74, 101
3, 163200, Note_on_c, 0, 74, 0
3, 163200, Note_on_c, 0, 71, 0
3, 163200, Note_on_c, 0, 65, 0
3, 163440, Note_on_c, 0, 65, 88
3, 163440, Note_on_c, 0, 69, 88
3, 163440, Note_on_c, 0, 74, 88
3, 163920, Note_on_c, 0, 74, 0
3, 163920, Note_on_c, 0, 69, 0
3, 163920, Note_on_c, 0, 65, 0
3, 163920, Note_on_c, 0, 68, 88
3, 163920, Note_on_c, 0, 76, 88
3, 164160, Note_on_c, 0, 76, 0
3, 164160, Note_on_c, 0, 68, 0
3, 164400, Note_on_c, 0, 72, 88
3, 164400, Note_on_c, 0, 76, 88
3, 164880, Note_on_c, 0, 76, 0
3, 164880, Note_on_c, 0, 72, 0
3, 164880, Note_on_c, 0, 71, 88
3, 164880, Note_on_c, 0, 76, 88
3, 165360, Note_on_c, 0, 76, 0
3, 165360, Note_on_c, 0, 71, 0
3, 165360, Note_on_c, 0, 69, 75
3, 165360, Note_on_c, 0, 72, 75
3, 165840, Note_on_c, 0, 72, 0
3, 165840, Note_on_c, 0, 69, 0
3, 165840, Note_on_c, 0, 64, 75
3, 166080, Note_on_c, 0, 64, 0
3, 166080, Note_on_c, 0, 65, 49
3, 166080, Note_on_c, 0, 69, 49
3, 166800, Note_on_c, 0, 69, 0
3, 166800, Note_on_c, 0, 65, 0
3, 166800, Note_on_c, 0, 65, 49
3, 166800, Note_on_c, 0, 69, 49
3, 167040, Note_on_c, 0, 69, 0
3, 167040, Note_on_c, 0, 65, 0
3, 167040, Note_on_c, 0, 65, 49
3, 167040, Note_on_c, 0, 68, 49
3, 167040, Note_on_c, 0, 71, 49
3, 167520, Note_on_c, 0, 71, 0
3, 167520, Note_on_c, 0, 68, 0
3, 167520, Note_on_c, 0, 65, 0
3, 167520, Note_on_c, 0, 65, 49
3, 167520, Note_on_c, 0, 68, 49
3, 167520, Note_on_c, 0, 71, 49
3, 168000, Note_on_c, 0, 71, 0
3, 168000, Note_on_c, 0, 68, 0
3, 168000, Note_on_c, 0, 65, 0
3, 168240, Note_on_c, 0, 64, 49
3, 168240, Note_on_c, 0, 69, 49
3, 168240, Note_on_c, 0, 73, 49
3, 168720, Note_on_c, 0, 73, 0
3, 168720, Note_on_c, 0, 69, 0
3, 168720, Note_on_c, 0, 64, 0
3, 168720, Note_on_c, 0, 64, 62
3, 168720, Note_on_c, 0, 69, 62
3, 168720, Note_on_c, 0, 73, 62
3, 168960, Note_on_c, 0, 73, 0
3, 168960, Note_on_c, 0, 69, 0
3, 168960, Note_on_c, 0, 64, 0
3, 168960, Note_on_c, 0, 69, 75
3, 168960, Note_on_c, 0, 73, 75
3, 169440, Note_on_c, 0, 73, 0
3, 169440, Note_on_c, 0, 69, 0
3, 169440, Note_on_c, 0, 64, 62
3, 169680, Note_on_c, 0, 64, 0
3, 169920, Note_on_c, 0, 65, 49
3, 169920, Note_on_c, 0, 69, 49
3, 170640, Note_on_c, 0, 69, 0
3, 170640, Note_on_c, 0, 65, 0
3, 170640, Note_on_c, 0, 65, 49
3, 170640, Note_on_c, 0, 69, 49
3, 170880, Note_on_c, 0, 69, 0
3, 170880, Note_on_c, 0, 65, 0
3, 171120, Note_on_c, 0, 65, 49
3, 171120, Note_on_c, 0, 68, 49
3, 171120, Note_on_c, 0, 71, 49
3, 171600, Note_on_c, 0, 71, 0
3, 171600, Note_on_c, 0, 68, 0
3, 171600, Note_on_c, 0, 65, 0
3, 171600, Note_on_c, 0, 65, 49
3, 171600, Note_on_c, 0, 68, 49
3, 171600, Note_on_c, 0, 71, 49
3, 171840, Note_on_c, 0, 71, 0
3, 171840, Note_on_c, 0, 68, 0
3, 171840, Note_on_c, 0, 65, 0
3, 171840, Note_on_c, 0, 64, 49
3, 172560, Note_on_c, 0, 64, 0
3, 172560, Note_on_c, 0, 69, 49
3, 172800, Note_on_c, 0, 69, 0
3, 172800, Note_on_c, 0, 64, 49
3, 173760, Note_on_c, 0, 64, 0
3, 173760, Note_on_c, 0, 69, 75
3, 173760, Note_on_c, 0, 73, 75
3, 173760, Note_on_c, 0, 76, 75
3, 174480, Note_on_c, 0, 76, 0
3, 174480, Note_on_c, 0, 73, 0
3, 174480, Note_on_c, 0, 69, 0
3, 174480, Note_on_c, 0, 69, 75
3, 174480, Note_on_c, 0, 73, 75
3, 174480, Note_on_c, 0, 76, 75
3, 174960, Note_on_c, 0, 76, 0
3, 174960, Note_on_c, 0, 73, 0
3, 174960, Note_on_c, 0, 69, 0
3, 174960, Note_on_c, 0, 68, 75
3, 175080, Note_on_c, 0, 68, 0
3, 175080, Note_on_c, 0, 69, 75
3, 175200, Note_on_c, 0, 69, 0
3, 175200, Note_on_c, 0, 70, 101
3, 175320, Note_on_c, 0, 70, 0
3, 175320, Note_on_c, 0, 69, 101
3, 175440, Note_on_c, 0, 69, 0
3, 175440, Note_on_c, 0, 68, 101
3, 175560, Note_on_c, 0, 68, 0
3, 175560, Note_on_c, 0, 69, 101
3, 175680, Note_on_c, 0, 69, 0
3, 175680, Note_on_c, 0, 69, 114
3, 175680, Note_on_c, 0, 74, 114
3, 175680, Note_on_c, 0, 77, 114
3, 176400, Note_on_c, 0, 77, 0
3, 176400, Note_on_c, 0, 74, 0
3, 176400, Note_on_c, 0, 69, 0
3, 176400, Note_on_c, 0, 74, 114
3, 176640, Note_on_c, 0, 74, 0
3, 176640, Note_on_c, 0, 69, 101
3, 177120, Note_on_c, 0, 69, 0
3, 177120, Note_on_c, 0, 65, 88
3, 177600, Note_on_c, 0, 65, 0
3, 177600, Note_on_c, 0, 67, 88
3, 177600, Note_on_c, 0, 74, 88
3, 177623, Note_on_c, 0, 74, 0
3, 177623, Note_on_c, 0, 67, 0
3, 178320, Note_on_c, 0, 70, 88
3, 178320, Note_on_c, 0, 74, 88
3, 178800, Note_on_c, 0, 74, 0
3, 178800, Note_on_c, 0, 70, 0
3, 178800, Note_on_c, 0, 66, 88
3, 178920, Note_on_c, 0, 66, 0
3, 178920, Note_on_c, 0, 67, 88
3, 179040, Note_on_c, 0, 67, 0
3, 179040, Note_on_c, 0, 69, 101
3, 179160, Note_on_c, 0, 69, 0
3, 179160, Note_on_c, 0, 67, 101
3, 179280, Note_on_c, 0, 67, 0
3, 179280, Note_on_c, 0, 66, 101
3, 179400, Note_on_c, 0, 66, 0
3, 179400, Note_on_c, 0, 67, 101
3, 179520, Note_on_c, 0, 67, 0
3, 179520, Note_on_c, 0, 67, 101
3, 179520, Note_on_c, 0, 70, 101
3, 179520, Note_on_c, 0, 74, 101
3, 180240, Note_on_c, 0, 74, 0
3, 180240, Note_on_c, 0, 70, 0
3, 180240, Note_on_c, 0, 67, 0
3, 180240, Note_on_c, 0, 67, 101
3, 180240, Note_on_c, 0, 74, 101
3, 180480, Note_on_c, 0, 74, 0
3, 180480, Note_on_c, 0, 67, 0
3, 180480, Note_on_c, 0, 67, 88
3, 180480, Note_on_c, 0, 73, 88
3, 180960, Note_on_c, 0, 73, 0
3, 180960, Note_on_c, 0, 67, 0
3, 180960, Note_on_c, 0, 67, 75
3, 181440, Note_on_c, 0, 67, 0
3, 181440, Note_on_c, 0, 65, 75
3, 181440, Note_on_c, 0, 70, 75
3, 181920, Note_on_c, 0, 65, 0
3, 182040, Note_on_c, 0, 70, 0
3, 182040, Note_on_c, 0, 69, 75
3, 182160, Note_on_c, 0, 69, 0
3, 182160, Note_on_c, 0, 70, 75
3, 182280, Note_on_c, 0, 70, 0
3, 182280, Note_on_c, 0, 72, 75
3, 182400, Note_on_c, 0, 72, 0
3, 182400, Note_on_c, 0, 70, 75
3, 182880, Note_on_c, 0, 70, 0
3, 182880, Note_on_c, 0, 67, 75
3, 183360, Note_on_c, 0, 67, 0
3, 183360, Note_on_c, 0, 60, 75
3, 183360, Note_on_c, 0, 65, 75
3, 184080, Note_on_c, 0, 65, 0
3, 184080, Note_on_c, 0, 60, 0
3, 184080, Note_on_c, 0, 65, 75
3, 184560, Note_on_c, 0, 65, 0
3, 184560, Note_on_c, 0, 64, 75
3, 184680, Note_on_c, 0, 64, 0
3, 184680, Note_on_c, 0, 65, 75
3, 184800, Note_on_c, 0, 65, 0
3, 184800, Note_on_c, 0, 67, 75
3, 184920, Note_on_c, 0, 67, 0
3, 184920, Note_on_c, 0, 65, 75
3, 185040, Note_on_c, 0, 65, 0
3, 185040, Note_on_c, 0, 64, 75
3, 185160, Note_on_c, 0, 64, 0
3, 185160, Note_on_c, 0, 65, 75
3, 185280, Note_on_c, 0, 65, 0
3, 185280, Note_on_c, 0, 58, 75
3, 185280, Note_on_c, 0, 62, 75
3, 186240, Note_on_c, 0, 62, 0
3, 186240, Note_on_c, 0, 58, 0
3, 186240, Note_on_c, 0, 55, 75
3, 186240, Note_on_c, 0, 62, 75
3, 187200, Note_on_c, 0, 62, 0
3, 187200, Note_on_c, 0, 55, 0
3, 187200, Note_on_c, 0, 59, 62
3, 187200, Note_on_c, 0, 62, 62
3, 188160, Note_on_c, 0, 62, 0
3, 188160, Note_on_c, 0, 59, 0
3, 188160, Note_on_c, 0, 56, 75
3, 188160, Note_on_c, 0, 62, 75
3, 189120, Note_on_c, 0, 62, 0
3, 189120, Note_on_c, 0, 56, 0
3, 189120, Note_on_c, 0, 69, 75
3, 189120, Note_on_c, 0, 73, 75
3, 189720, Note_on_c, 0, 73, 0
3, 189720, Note_on_c, 0, 69, 0
3, 189720, Note_on_c, 0, 67, 75
3, 189720, Note_on_c, 0, 73, 75
3, 189840, Note_on_c, 0, 73, 0
3, 189840, Note_on_c, 0, 67, 0
3, 189840, Note_on_c, 0, 69, 75
3, 189840, Note_on_c, 0, 73, 75
3, 189960, Note_on_c, 0, 73, 0
3, 189960, Note_on_c, 0, 69, 0
3, 189960, Note_on_c, 0, 70, 75
3, 189960, Note_on_c, 0, 73, 75
3, 190080, Note_on_c, 0, 73, 0
3, 190080, Note_on_c, 0, 70, 0
3, 190080, Note_on_c, 0, 69, 75
3, 190080, Note_on_c, 0, 73, 75
3, 190560, Note_on_c, 0, 73, 0
3, 190560, Note_on_c, 0, 69, 0
3, 190560, Note_on_c, 0, 67, 75
3, 190560, Note_on_c, 0, 73, 75
3, 191040, Note_on_c, 0, 73, 0
3, 191040, Note_on_c, 0, 67, 0
3, 191040, Note_on_c, 0, 74, 127
3, 191760, Note_on_c, 0, 74, 0
3, 191760, Control_c, 0, 64, 127
3, 191760, Note_on_c, 0, 73, 101
3, 191880, Note_on_c, 0, 73, 0
3, 191880, Note_on_c, 0, 74, 101
3, 192000, Note_on_c, 0, 74, 0
3, 192000, Note_on_c, 0, 76, 101
3, 192120, Note_on_c, 0, 76, 0
3, 192120, Note_on_c, 0, 74, 101
3, 192240, Note_on_c, 0, 74, 0
3, 192240, Note_on_c, 0, 73, 101
3, 192360, Note_on_c, 0, 73, 0
3, 192360, Note_on_c, 0, 74, 101
3, 192480, Note_on_c, 0, 74, 0
3, 192480, Note_on_c, 0, 76, 101
3, 192600, Note_on_c, 0, 76, 0
3, 192600, Note_on_c, 0, 74, 101
3, 192720, Note_on_c, 0, 74, 0
3, 192720, Note_on_c, 0, 73, 101
3, 192840, Note_on_c, 0, 73, 0
3, 192840, Control_c, 0, 64, 0
3, 192840, Note_on_c, 0, 74, 101
3, 192870, Note_on_c, 0, 69, 127
3, 192900, Note_on_c, 0, 74, 127
3, 192930, Note_on_c, 0, 77, 127
3, 192960, Note_on_c, 0, 74, 0
3, 192960, Note_on_c, 0, 81, 127
3, 192983, Note_on_c, 0, 81, 0
3, 192983, Note_on_c, 0, 77, 0
3, 192983, Note_on_c, 0, 74, 0
3, 192983, Note_on_c, 0, 69, 0
3, 192983, End_track
4, 0, Start_track
4, 0, Title_t, "Instrument18"
4, 0, Program_c, 0, 0
4, 0, Control_c, 0, 7, 110
4, 0, Control_c, 0, 10, 30
4, 0, Note_on_c, 0, 52, 114
4, 0, Note_on_c, 0, 57, 114
4, 0, Note_on_c, 0, 61, 114
4, 23, Note_on_c, 0, 61, 0
4, 23, Note_on_c, 0, 57, 0
4, 23, Note_on_c, 0, 52, 0
4, 360, Note_on_c, 0, 67, 88
4, 480, Note_on_c, 0, 67, 0
4, 600, Note_on_c, 0, 64, 88
4, 720, Note_on_c, 0, 64, 0
4, 840, Note_on_c, 0, 61, 88
4, 960, Note_on_c, 0, 61, 0
4, 1080, Note_on_c, 0, 57, 101
4, 1200, Note_on_c, 0, 57, 0
4, 1320, Note_on_c, 0, 55, 101
4, 1440, Note_on_c, 0, 55, 0
4, 1560, Note_on_c, 0, 52, 101
4, 1680, Note_on_c, 0, 52, 0
4, 1800, Note_on_c, 0, 49, 101
4, 1920, Note_on_c, 0, 49, 0
4, 2160, Note_on_c, 0, 53, 101
4, 2160, Note_on_c, 0, 57, 101
4, 2160, Note_on_c, 0, 62, 101
4, 2160, Note_on_c, 0, 65, 101
4, 2640, Note_on_c, 0, 65, 0
4, 2640, Note_on_c, 0, 53, 0
4, 2640, Note_on_c, 0, 57, 0
4, 2640, Note_on_c, 0, 62, 0
4, 2640, Note_on_c, 0, 53, 88
4, 2640, Note_on_c, 0, 57, 88
4, 2640, Note_on_c, 0, 62, 88
4, 2640, Note_on_c, 0, 65, 88
4, 2880, Note_on_c, 0, 65, 0
4, 2880, Note_on_c, 0, 53, 0
4, 2880, Note_on_c, 0, 57, 0
4, 2880, Note_on_c, 0, 62, 0
4, 3120, Note_on_c, 0, 53, 88
4, 3120, Note_on_c, 0, 57, 88
4, 3120, Note_on_c, 0, 62, 88
4, 3600, Note_on_c, 0, 62, 0
4, 3600, Note_on_c, 0, 57, 0
4, 3600, Note_on_c, 0, 53, 0
4, 3600, Note_on_c, 0, 53, 88
4, 3600, Note_on_c, 0, 57, 88
4, 3600, Note_on_c, 0, 62, 88
4, 3840, Note_on_c, 0, 62, 0
4, 3840, Note_on_c, 0, 57, 0
4, 3840, Note_on_c, 0, 53, 0
4, 3840, Note_on_c, 0, 55, 88
4, 3840, Note_on_c, 0, 58, 88
4, 3840, Note_on_c, 0, 62, 88
4, 3863, Note_on_c, 0, 62, 0
4, 3863, Note_on_c, 0, 58, 0
4, 3863, Note_on_c, 0, 55, 0
4, 4200, Note_on_c, 0, 70, 88
4, 4320, Note_on_c, 0, 70, 0
4, 4440, Note_on_c, 0, 67, 88
4, 4560, Note_on_c, 0, 67, 0
4, 4680, Note_on_c, 0, 62, 88
4, 4800, Note_on_c, 0, 62, 0
4, 4920, Note_on_c, 0, 58, 101
4, 5040, Note_on_c, 0, 58, 0
4, 5160, Note_on_c, 0, 55, 101
4, 5280, Note_on_c, 0, 55, 0
4, 5400, Note_on_c, 0, 50, 101
4, 5520, Note_on_c, 0, 50, 0
4, 5640, Note_on_c, 0, 46, 101
4, 5760, Note_on_c, 0, 46, 0
4, 6000, Note_on_c, 0, 52, 101
4, 6000, Note_on_c, 0, 55, 101
4, 6000, Note_on_c, 0, 58, 101
4, 6000, Note_on_c, 0, 62, 101
4, 6480, Note_on_c, 0, 62, 0
4, 6480, Note_on_c, 0, 52, 0
4, 6480, Note_on_c, 0, 55, 0
4, 6480, Note_on_c, 0, 58, 0
4, 6480, Note_on_c, 0, 52, 88
4, 6480, Note_on_c, 0, 55, 88
4, 6480, Note_on_c, 0, 58, 88
4, 6480, Note_on_c, 0, 62, 88
4, 6720, Note_on_c, 0, 62, 0
4, 6720, Note_on_c, 0, 52, 0
4, 6720, Note_on_c, 0, 55, 0
4, 6720, Note_on_c, 0, 58, 0
4, 6960, Note_on_c, 0, 52, 88
4, 6960, Note_on_c, 0, 55, 88
4, 6960, Note_on_c, 0, 61, 88
4, 7440, Note_on_c, 0, 61, 0
4, 7440, Note_on_c, 0, 55, 0
4, 7440, Note_on_c, 0, 52, 0
4, 7440, Note_on_c, 0, 52, 75
4, 7440, Note_on_c, 0, 55, 75
4, 7440, Note_on_c, 0, 61, 75
4, 7680, Note_on_c, 0, 61, 0
4, 7680, Note_on_c, 0, 55, 0
4, 7680, Note_on_c, 0, 52, 0
4, 7920, Note_on_c, 0, 50, 75
4, 7920, Note_on_c, 0, 53, 75
4, 7920, Note_on_c, 0, 62, 75
4, 8400, Note_on_c, 0, 62, 0
4, 8400, Note_on_c, 0, 53, 0
4, 8400, Note_on_c, 0, 50, 0
4, 8400, Note_on_c, 0, 50, 75
4, 8400, Note_on_c, 0, 53, 75
4, 8640, Note_on_c, 0, 53, 0
4, 8640, Note_on_c, 0, 50, 0
4, 8880, Note_on_c, 0, 50, 75
4, 8880, Note_on_c, 0, 55, 75
4, 8880, Note_on_c, 0, 58, 75
4, 8880, Note_on_c, 0, 62, 75
4, 9360, Note_on_c, 0, 62, 0
4, 9360, Note_on_c, 0, 50, 0
4, 9360, Note_on_c, 0, 55, 0
4, 9360, Note_on_c, 0, 58, 0
4, 9360, Note_on_c, 0, 50, 75
4, 9360, Note_on_c, 0, 55, 75
4, 9360, Note_on_c, 0, 58, 75
4, 9600, Note_on_c, 0, 58, 0
4, 9600, Note_on_c, 0, 55, 0
4, 9600, Note_on_c, 0, 50, 0
4, 9840, Note_on_c, 0, 48, 75
4, 9840, Note_on_c, 0, 53, 75
4, 9840, Note_on_c, 0, 57, 75
4, 10320, Note_on_c, 0, 57, 0
4, 10320, Note_on_c, 0, 53, 0
4, 10320, Note_on_c, 0, 48, 0
4, 10320, Note_on_c, 0, 48, 75
4, 10320, Note_on_c, 0, 53, 75
4, 10560, Note_on_c, 0, 53, 0
4, 10560, Note_on_c, 0, 48, 0
4, 10800, Note_on_c, 0, 48, 75
4, 10800, Note_on_c, 0, 53, 75
4, 10800, Note_on_c, 0, 57, 75
4, 11280, Note_on_c, 0, 57, 0
4, 11280, Note_on_c, 0, 53, 0
4, 11280, Note_on_c, 0, 48, 0
4, 11280, Note_on_c, 0, 48, 75
4, 11520, Note_on_c, 0, 48, 0
4, 11760, Note_on_c, 0, 46, 75
4, 11760, Note_on_c, 0, 50, 75
4, 11760, Note_on_c, 0, 55, 75
4, 12240, Note_on_c, 0, 55, 0
4, 12240, Note_on_c, 0, 50, 0
4, 12240, Note_on_c, 0, 46, 0
4, 12240, Note_on_c, 0, 46, 75
4, 12240, Note_on_c, 0, 50, 75
4, 12240, Note_on_c, 0, 55, 75
4, 12480, Note_on_c, 0, 55, 0
4, 12480, Note_on_c, 0, 50, 0
4, 12480, Note_on_c, 0, 46, 0
4, 12720, Note_on_c, 0, 45, 75
4, 12720, Note_on_c, 0, 49, 75
4, 13200, Note_on_c, 0, 49, 0
4, 13200, Note_on_c, 0, 45, 0
4, 13200, Note_on_c, 0, 45, 75
4, 13200, Note_on_c, 0, 49, 75
4, 13440, Note_on_c, 0, 49, 0
4, 13440, Note_on_c, 0, 45, 0
4, 13680, Note_on_c, 0, 45, 75
4, 13680, Note_on_c, 0, 50, 75
4, 14160, Note_on_c, 0, 50, 0
4, 14160, Note_on_c, 0, 45, 0
4, 14160, Note_on_c, 0, 45, 88
4, 14160, Note_on_c, 0, 50, 88
4, 14400, Note_on_c, 0, 45, 0
4, 14400, Note_on_c, 0, 43, 101
4, 14880, Note_on_c, 0, 43, 0
4, 14880, Note_on_c, 0, 45, 88
4, 15360, Note_on_c, 0, 45, 0
4, 15360, Note_on_c, 0, 50, 0
4, 15360, Note_on_c, 0, 52, 114
4, 15360, Note_on_c, 0, 57, 114
4, 15360, Note_on_c, 0, 61, 114
4, 15383, Note_on_c, 0, 61, 0
4, 15383, Note_on_c, 0, 57, 0
4, 15383, Note_on_c, 0, 52, 0
4, 15720, Note_on_c, 0, 67, 88
4, 15840, Note_on_c, 0, 67, 0
4, 15960, Note_on_c, 0, 64, 88
4, 16080, Note_on_c, 0, 64, 0
4, 16200, Note_on_c, 0, 61, 88
4, 16320, Note_on_c, 0, 61, 0
4, 16440, Note_on_c, 0, 57, 101
4, 16560, Note_on_c, 0, 57, 0
4, 16680, Note_on_c, 0, 55, 101
4, 16800, Note_on_c, 0, 55, 0
4, 16920, Note_on_c, 0, 52, 101
4, 17040, Note_on_c, 0, 52, 0
4, 17160, Note_on_c, 0, 49, 101
4, 17280, Note_on_c, 0, 49, 0
4, 17520, Note_on_c, 0, 53, 101
4, 17520, Note_on_c, 0, 57, 101
4, 17520, Note_on_c, 0, 62, 101
4, 17520, Note_on_c, 0, 65, 101
4, 18000, Note_on_c, 0, 65, 0
4, 18000, Note_on_c, 0, 53, 0
4, 18000, Note_on_c, 0, 57, 0
4, 18000, Note_on_c, 0, 62, 0
4, 18000, Note_on_c, 0, 53, 88
4, 18000, Note_on_c, 0, 57, 88
4, 18000, Note_on_c, 0, 62, 88
4, 18000, Note_on_c, 0, 65, 88
4, 18240, Note_on_c, 0, 65, 0
4, 18240, Note_on_c, 0, 53, 0
4, 18240, Note_on_c, 0, 57, 0
4, 18240, Note_on_c, 0, 62, 0
4, 18480, Note_on_c, 0, 53, 88
4, 18480, Note_on_c, 0, 57, 88
4, 18480, Note_on_c, 0, 62, 88
4, 18960, Note_on_c, 0, 62, 0
4, 18960, Note_on_c, 0, 57, 0
4, 18960, Note_on_c, 0, 53, 0
4, 18960, Note_on_c, 0, 53, 88
4, 18960, Note_on_c, 0, 57, 88
4, 18960, Note_on_c, 0, 62, 88
4, 19200, Note_on_c, 0, 62, 0
4, 19200, Note_on_c, 0, 57, 0
4, 19200, Note_on_c, 0, 53, 0
4, 19200, Note_on_c, 0, 55, 88
4, 19200, Note_on_c, 0, 58, 88
4, 19200, Note_on_c, 0, 62, 88
4, 19223, Note_on_c, 0, 62, 0
4, 19223, Note_on_c, 0, 58, 0
4, 19223, Note_on_c, 0, 55, 0
4, 19560, Note_on_c, 0, 70, 88
4, 19680, Note_on_c, 0, 70, 0
4, 19800, Note_on_c, 0, 67, 88
4, 19920, Note_on_c, 0, 67, 0
4, 20040, Note_on_c, 0, 62, 88
4, 20160, Note_on_c, 0, 62, 0
4, 20280, Note_on_c, 0, 58, 101
4, 20400, Note_on_c, 0, 58, 0
4, 20520, Note_on_c, 0, 55, 101
4, 20640, Note_on_c, 0, 55, 0
4, 20760, Note_on_c, 0, 50, 101
4, 20880, Note_on_c, 0, 50, 0
4, 21000, Note_on_c, 0, 46, 101
4, 21120, Note_on_c, 0, 46, 0
4, 21360, Note_on_c, 0, 52, 101
4, 21360, Note_on_c, 0, 55, 101
4, 21360, Note_on_c, 0, 58, 101
4, 21360, Note_on_c, 0, 62, 101
4, 21840, Note_on_c, 0, 62, 0
4, 21840, Note_on_c, 0, 52, 0
4, 21840, Note_on_c, 0, 55, 0
4, 21840, Note_on_c, 0, 58, 0
4, 21840, Note_on_c, 0, 52, 88
4, 21840, Note_on_c, 0, 55, 88
4, 21840, Note_on_c, 0, 58, 88
4, 21840, Note_on_c, 0, 62, 88
4, 22080, Note_on_c, 0, 62, 0
4, 22080, Note_on_c, 0, 52, 0
4, 22080, Note_on_c, 0, 55, 0
4, 22080, Note_on_c, 0, 58, 0
4, 22320, Note_on_c, 0, 52, 88
4, 22320, Note_on_c, 0, 55, 88
4, 22320, Note_on_c, 0, 61, 88
4, 22800, Note_on_c, 0, 61, 0
4, 22800, Note_on_c, 0, 55, 0
4, 22800, Note_on_c, 0, 52, 0
4, 22800, Note_on_c, 0, 52, 75
4, 22800, Note_on_c, 0, 55, 75
4, 22800, Note_on_c, 0, 61, 75
4, 23040, Note_on_c, 0, 61, 0
4, 23040, Note_on_c, 0, 55, 0
4, 23040, Note_on_c, 0, 52, 0
4, 23280, Note_on_c, 0, 50, 75
4, 23280, Note_on_c, 0, 53, 75
4, 23280, Note_on_c, 0, 62, 75
4, 23760, Note_on_c, 0, 62, 0
4, 23760, Note_on_c, 0, 53, 0
4, 23760, Note_on_c, 0, 50, 0
4, 23760, Note_on_c, 0, 50, 75
4, 23760, Note_on_c, 0, 53, 75
4, 24000, Note_on_c, 0, 53, 0
4, 24000, Note_on_c, 0, 50, 0
4, 24240, Note_on_c, 0, 50, 75
4, 24240, Note_on_c, 0, 55, 75
4, 24240, Note_on_c, 0, 58, 75
4, 24240, Note_on_c, 0, 62, 75
4, 24720, Note_on_c, 0, 62, 0
4, 24720, Note_on_c, 0, 50, 0
4, 24720, Note_on_c, 0, 55, 0
4, 24720, Note_on_c, 0, 58, 0
4, 24720, Note_on_c, 0, 50, 75
4, 24720, Note_on_c, 0, 55, 75
4, 24720, Note_on_c, 0, 58, 75
4, 24960, Note_on_c, 0, 58, 0
4, 24960, Note_on_c, 0, 55, 0
4, 24960, Note_on_c, 0, 50, 0
4, 25200, Note_on_c, 0, 48, 75
4, 25200, Note_on_c, 0, 53, 75
4, 25200, Note_on_c, 0, 57, 75
4, 25680, Note_on_c, 0, 57, 0
4, 25680, Note_on_c, 0, 53, 0
4, 25680, Note_on_c, 0, 48, 0
4, 25680, Note_on_c, 0, 48, 75
4, 25680, Note_on_c, 0, 53, 75
4, 25920, Note_on_c, 0, 53, 0
4, 25920, Note_on_c, 0, 48, 0
4, 26160, Note_on_c, 0, 48, 75
4, 26160, Note_on_c, 0, 53, 75
4, 26160, Note_on_c, 0, 57, 75
4, 26640, Note_on_c, 0, 57, 0
4, 26640, Note_on_c, 0, 53, 0
4, 26640, Note_on_c, 0, 48, 0
4, 26640, Note_on_c, 0, 48, 75
4, 26880, Note_on_c, 0, 48, 0
4, 27120, Note_on_c, 0, 46, 75
4, 27120, Note_on_c, 0, 50, 75
4, 27120, Note_on_c, 0, 55, 75
4, 27600, Note_on_c, 0, 55, 0
4, 27600, Note_on_c, 0, 50, 0
4, 27600, Note_on_c, 0, 46, 0
4, 27600, Note_on_c, 0, 46, 75
4, 27600, Note_on_c, 0, 50, 75
4, 27600, Note_on_c, 0, 55, 75
4, 27840, Note_on_c, 0, 55, 0
4, 27840, Note_on_c, 0, 50, 0
4, 27840, Note_on_c, 0, 46, 0
4, 28080, Note_on_c, 0, 45, 75
4, 28080, Note_on_c, 0, 49, 75
4, 28560, Note_on_c, 0, 49, 0
4, 28560, Note_on_c, 0, 45, 0
4, 28560, Note_on_c, 0, 45, 75
4, 28560, Note_on_c, 0, 49, 75
4, 28800, Note_on_c, 0, 49, 0
4, 28800, Note_on_c, 0, 45, 0
4, 29040, Note_on_c, 0, 45, 75
4, 29040, Note_on_c, 0, 50, 75
4, 29520, Note_on_c, 0, 50, 0
4, 29520, Note_on_c, 0, 45, 0
4, 29520, Note_on_c, 0, 45, 88
4, 29520, Note_on_c, 0, 50, 88
4, 29760, Note_on_c, 0, 45, 0
4, 29760, Note_on_c, 0, 43, 101
4, 30240, Note_on_c, 0, 43, 0
4, 30240, Note_on_c, 0, 45, 88
4, 30720, Note_on_c, 0, 45, 0
4, 30720, Note_on_c, 0, 50, 0
4, 30960, Note_on_c, 0, 53, 101
4, 30960, Note_on_c, 0, 59, 101
4, 30960, Note_on_c, 0, 62, 101
4, 31440, Note_on_c, 0, 62, 0
4, 31440, Note_on_c, 0, 59, 0
4, 31440, Note_on_c, 0, 53, 0
4, 31440, Note_on_c, 0, 53, 88
4, 31440, Note_on_c, 0, 59, 88
4, 31440, Note_on_c, 0, 62, 88
4, 31680, Note_on_c, 0, 62, 0
4, 31680, Note_on_c, 0, 59, 0
4, 31680, Note_on_c, 0, 53, 0
4, 31920, Note_on_c, 0, 53, 88
4, 31920, Note_on_c, 0, 57, 88
4, 31920, Note_on_c, 0, 62, 88
4, 32400, Note_on_c, 0, 62, 0
4, 32400, Note_on_c, 0, 57, 0
4, 32400, Note_on_c, 0, 53, 0
4, 32400, Note_on_c, 0, 52, 88
4, 32400, Note_on_c, 0, 56, 88
4, 32400, Note_on_c, 0, 59, 88
4, 32640, Note_on_c, 0, 59, 0
4, 32640, Note_on_c, 0, 56, 0
4, 32640, Note_on_c, 0, 52, 0
4, 32880, Note_on_c, 0, 52, 88
4, 32880, Note_on_c, 0, 57, 88
4, 32880, Note_on_c, 0, 60, 88
4, 33120, Note_on_c, 0, 60, 0
4, 33120, Note_on_c, 0, 57, 0
4, 33120, Note_on_c, 0, 52, 0
4, 33360, Note_on_c, 0, 52, 75
4, 33360, Note_on_c, 0, 57, 75
4, 33360, Note_on_c, 0, 60, 75
4, 33600, Note_on_c, 0, 60, 0
4, 33600, Note_on_c, 0, 57, 0
4, 33600, Note_on_c, 0, 52, 0
4, 33840, Note_on_c, 0, 52, 75
4, 33840, Note_on_c, 0, 57, 75
4, 33840, Note_on_c, 0, 60, 75
4, 34080, Note_on_c, 0, 60, 0
4, 34080, Note_on_c, 0, 57, 0
4, 34080, Note_on_c, 0, 52, 0
4, 34320, Note_on_c, 0, 52, 62
4, 34320, Note_on_c, 0, 57, 62
4, 34320, Note_on_c, 0, 60, 62
4, 34560, Note_on_c, 0, 60, 0
4, 34560, Note_on_c, 0, 57, 0
4, 34560, Note_on_c, 0, 52, 0
4, 34800, Note_on_c, 0, 53, 101
4, 34800, Note_on_c, 0, 59, 101
4, 34800, Note_on_c, 0, 62, 101
4, 35280, Note_on_c, 0, 62, 0
4, 35280, Note_on_c, 0, 59, 0
4, 35280, Note_on_c, 0, 53, 0
4, 35280, Note_on_c, 0, 53, 88
4, 35280, Note_on_c, 0, 59, 88
4, 35280, Note_on_c, 0, 62, 88
4, 35520, Note_on_c, 0, 62, 0
4, 35520, Note_on_c, 0, 59, 0
4, 35520, Note_on_c, 0, 53, 0
4, 35760, Note_on_c, 0, 53, 88
4, 35760, Note_on_c, 0, 57, 88
4, 35760, Note_on_c, 0, 62, 88
4, 36240, Note_on_c, 0, 62, 0
4, 36240, Note_on_c, 0, 57, 0
4, 36240, Note_on_c, 0, 53, 0
4, 36240, Note_on_c, 0, 52, 88
4, 36240, Note_on_c, 0, 56, 88
4, 36240, Note_on_c, 0, 59, 88
4, 36480, Note_on_c, 0, 59, 0
4, 36480, Note_on_c, 0, 56, 0
4, 36480, Note_on_c, 0, 52, 0
4, 36720, Note_on_c, 0, 52, 88
4, 36720, Note_on_c, 0, 57, 88
4, 36720, Note_on_c, 0, 60, 88
4, 36720, Note_on_c, 0, 64, 88
4, 36960, Note_on_c, 0, 64, 0
4, 36960, Note_on_c, 0, 52, 0
4, 36960, Note_on_c, 0, 57, 0
4, 36960, Note_on_c, 0, 60, 0
4, 37200, Note_on_c, 0, 52, 75
4, 37200, Note_on_c, 0, 57, 75
4, 37200, Note_on_c, 0, 60, 75
4, 37200, Note_on_c, 0, 64, 75
4, 37440, Note_on_c, 0, 64, 0
4, 37440, Note_on_c, 0, 52, 0
4, 37440, Note_on_c, 0, 57, 0
4, 37440, Note_on_c, 0, 60, 0
4, 37680, Note_on_c, 0, 52, 75
4, 37680, Note_on_c, 0, 57, 75
4, 37680, Note_on_c, 0, 60, 75
4, 37920, Note_on_c, 0, 60, 0
4, 37920, Note_on_c, 0, 57, 0
4, 37920, Note_on_c, 0, 52, 0
4, 38160, Note_on_c, 0, 52, 62
4, 38160, Note_on_c, 0, 57, 62
4, 38400, Note_on_c, 0, 57, 0
4, 38400, Note_on_c, 0, 52, 0
4, 38640, Note_on_c, 0, 53, 75
4, 38640, Note_on_c, 0, 57, 75
4, 38640, Note_on_c, 0, 60, 75
4, 39120, Note_on_c, 0, 60, 0
4, 39120, Note_on_c, 0, 57, 0
4, 39120, Note_on_c, 0, 53, 0
4, 39120, Note_on_c, 0, 53, 62
4, 39120, Note_on_c, 0, 57, 62
4, 39120, Note_on_c, 0, 60, 62
4, 39360, Note_on_c, 0, 60, 0
4, 39360, Note_on_c, 0, 57, 0
4, 39360, Note_on_c, 0, 53, 0
4, 39600, Note_on_c, 0, 53, 62
4, 39600, Note_on_c, 0, 56, 62
4, 39600, Note_on_c, 0, 59, 62
4, 40080, Note_on_c, 0, 59, 0
4, 40080, Note_on_c, 0, 56, 0
4, 40080, Note_on_c, 0, 53, 0
4, 40080, Note_on_c, 0, 50, 62
4, 40080, Note_on_c, 0, 56, 62
4, 40080, Note_on_c, 0, 59, 62
4, 40320, Note_on_c, 0, 59, 0
4, 40320, Note_on_c, 0, 56, 0
4, 40320, Note_on_c, 0, 50, 0
4, 40560, Note_on_c, 0, 49, 62
4, 40560, Note_on_c, 0, 52, 62
4, 40560, Note_on_c, 0, 57, 62
4, 40800, Note_on_c, 0, 57, 0
4, 40800, Note_on_c, 0, 52, 0
4, 40800, Note_on_c, 0, 49, 0
4, 40800, Note_on_c, 0, 45, 62
4, 41280, Note_on_c, 0, 45, 0
4, 41520, Note_on_c, 0, 49, 62
4, 41520, Note_on_c, 0, 52, 62
4, 41520, Note_on_c, 0, 57, 62
4, 41760, Note_on_c, 0, 57, 0
4, 41760, Note_on_c, 0, 52, 0
4, 41760, Note_on_c, 0, 49, 0
4, 41760, Note_on_c, 0, 45, 62
4, 42240, Note_on_c, 0, 45, 0
4, 42480, Note_on_c, 0, 53, 75
4, 42480, Note_on_c, 0, 57, 75
4, 42480, Note_on_c, 0, 60, 75
4, 42960, Note_on_c, 0, 60, 0
4, 42960, Note_on_c, 0, 57, 0
4, 42960, Note_on_c, 0, 53, 0
4, 42960, Note_on_c, 0, 53, 62
4, 42960, Note_on_c, 0, 57, 62
4, 42960, Note_on_c, 0, 60, 62
4, 43200, Note_on_c, 0, 60, 0
4, 43200, Note_on_c, 0, 57, 0
4, 43200, Note_on_c, 0, 53, 0
4, 43440, Note_on_c, 0, 53, 62
4, 43440, Note_on_c, 0, 56, 62
4, 43440, Note_on_c, 0, 59, 62
4, 43920, Note_on_c, 0, 59, 0
4, 43920, Note_on_c, 0, 56, 0
4, 43920, Note_on_c, 0, 53, 0
4, 43920, Note_on_c, 0, 50, 62
4, 43920, Note_on_c, 0, 56, 62
4, 43920, Note_on_c, 0, 59, 62
4, 44160, Note_on_c, 0, 59, 0
4, 44160, Note_on_c, 0, 56, 0
4, 44160, Note_on_c, 0, 50, 0
4, 44400, Note_on_c, 0, 49, 62
4, 44400, Note_on_c, 0, 52, 62
4, 44640, Note_on_c, 0, 52, 0
4, 44640, Note_on_c, 0, 49, 0
4, 44640, Note_on_c, 0, 57, 62
4, 44640, Note_on_c, 0, 61, 62
4, 45120, Note_on_c, 0, 61, 0
4, 45120, Note_on_c, 0, 57, 0
4, 45360, Note_on_c, 0, 49, 62
4, 45360, Note_on_c, 0, 52, 62
4, 45600, Note_on_c, 0, 52, 0
4, 45600, Note_on_c, 0, 49, 0
4, 45600, Note_on_c, 0, 57, 62
4, 45600, Note_on_c, 0, 61, 62
4, 46080, Note_on_c, 0, 61, 0
4, 46080, Note_on_c, 0, 57, 0
4, 46320, Note_on_c, 0, 53, 101
4, 46320, Note_on_c, 0, 59, 101
4, 46320, Note_on_c, 0, 62, 101
4, 46800, Note_on_c, 0, 62, 0
4, 46800, Note_on_c, 0, 59, 0
4, 46800, Note_on_c, 0, 53, 0
4, 46800, Note_on_c, 0, 53, 88
4, 46800, Note_on_c, 0, 59, 88
4, 46800, Note_on_c, 0, 62, 88
4, 47040, Note_on_c, 0, 62, 0
4, 47040, Note_on_c, 0, 59, 0
4, 47040, Note_on_c, 0, 53, 0
4, 47280, Note_on_c, 0, 53, 88
4, 47280, Note_on_c, 0, 57, 88
4, 47280, Note_on_c, 0, 62, 88
4, 47760, Note_on_c, 0, 62, 0
4, 47760, Note_on_c, 0, 57, 0
4, 47760, Note_on_c, 0, 53, 0
4, 47760, Note_on_c, 0, 52, 88
4, 47760, Note_on_c, 0, 56, 88
4, 47760, Note_on_c, 0, 59, 88
4, 48000, Note_on_c, 0, 59, 0
4, 48000, Note_on_c, 0, 56, 0
4, 48000, Note_on_c, 0, 52, 0
4, 48240, Note_on_c, 0, 52, 88
4, 48240, Note_on_c, 0, 57, 88
4, 48240, Note_on_c, 0, 60, 88
4, 48480, Note_on_c, 0, 60, 0
4, 48480, Note_on_c, 0, 57, 0
4, 48480, Note_on_c, 0, 52, 0
4, 48720, Note_on_c, 0, 52, 75
4, 48720, Note_on_c, 0, 57, 75
4, 48720, Note_on_c, 0, 60, 75
4, 48960, Note_on_c, 0, 60, 0
4, 48960, Note_on_c, 0, 57, 0
4, 48960, Note_on_c, 0, 52, 0
4, 49200, Note_on_c, 0, 52, 75
4, 49200, Note_on_c, 0, 57, 75
4, 49200, Note_on_c, 0, 60, 75
4, 49440, Note_on_c, 0, 60, 0
4, 49440, Note_on_c, 0, 57, 0
4, 49440, Note_on_c, 0, 52, 0
4, 49680, Note_on_c, 0, 52, 62
4, 49680, Note_on_c, 0, 57, 62
4, 49680, Note_on_c, 0, 60, 62
4, 49920, Note_on_c, 0, 60, 0
4, 49920, Note_on_c, 0, 57, 0
4, 49920, Note_on_c, 0, 52, 0
4, 50160, Note_on_c, 0, 53, 101
4, 50160, Note_on_c, 0, 59, 101
4, 50160, Note_on_c, 0, 62, 101
4, 50640, Note_on_c, 0, 62, 0
4, 50640, Note_on_c, 0, 59, 0
4, 50640, Note_on_c, 0, 53, 0
4, 50640, Note_on_c, 0, 53, 88
4, 50640, Note_on_c, 0, 59, 88
4, 50640, Note_on_c, 0, 62, 88
4, 50880, Note_on_c, 0, 62, 0
4, 50880, Note_on_c, 0, 59, 0
4, 50880, Note_on_c, 0, 53, 0
4, 51120, Note_on_c, 0, 53, 88
4, 51120, Note_on_c, 0, 57, 88
4, 51120, Note_on_c, 0, 62, 88
4, 51600, Note_on_c, 0, 62, 0
4, 51600, Note_on_c, 0, 57, 0
4, 51600, Note_on_c, 0, 53, 0
4, 51600, Note_on_c, 0, 52, 88
4, 51600, Note_on_c, 0, 56, 88
4, 51600, Note_on_c, 0, 59, 88
4, 51840, Note_on_c, 0, 59, 0
4, 51840, Note_on_c, 0, 56, 0
4, 51840, Note_on_c, 0, 52, 0
4, 52080, Note_on_c, 0, 52, 88
4, 52080, Note_on_c, 0, 57, 88
4, 52080, Note_on_c, 0, 60, 88
4, 52080, Note_on_c, 0, 64, 88
4, 52320, Note_on_c, 0, 64, 0
4, 52320, Note_on_c, 0, 52, 0
4, 52320, Note_on_c, 0, 57, 0
4, 52320, Note_on_c, 0, 60, 0
4, 52560, Note_on_c, 0, 52, 75
4, 52560, Note_on_c, 0, 57, 75
4, 52560, Note_on_c, 0, 60, 75
4, 52560, Note_on_c, 0, 64, 75
4, 52800, Note_on_c, 0, 64, 0
4, 52800, Note_on_c, 0, 52, 0
4, 52800, Note_on_c, 0, 57, 0
4, 52800, Note_on_c, 0, 60, 0
4, 53040, Note_on_c, 0, 52, 75
4, 53040, Note_on_c, 0, 57, 75
4, 53040, Note_on_c, 0, 60, 75
4, 53280, Note_on_c, 0, 60, 0
4, 53280, Note_on_c, 0, 57, 0
4, 53280, Note_on_c, 0, 52, 0
4, 53520, Note_on_c, 0, 52, 62
4, 53520, Note_on_c, 0, 57, 62
4, 53760, Note_on_c, 0, 57, 0
4, 53760, Note_on_c, 0, 52, 0
4, 54000, Note_on_c, 0, 53, 75
4, 54000, Note_on_c, 0, 57, 75
4, 54000, Note_on_c, 0, 60, 75
4, 54480, Note_on_c, 0, 60, 0
4, 54480, Note_on_c, 0, 57, 0
4, 54480, Note_on_c, 0, 53, 0
4, 54480, Note_on_c, 0, 53, 62
4, 54480, Note_on_c, 0, 57, 62
4, 54480, Note_on_c, 0, 60, 62
4, 54720, Note_on_c, 0, 60, 0
4, 54720, Note_on_c, 0, 57, 0
4, 54720, Note_on_c, 0, 53, 0
4, 54960, Note_on_c, 0, 53, 62
4, 54960, Note_on_c, 0, 56, 62
4, 54960, Note_on_c, 0, 59, 62
4, 55440, Note_on_c, 0, 59, 0
4, 55440, Note_on_c, 0, 56, 0
4, 55440, Note_on_c, 0, 53, 0
4, 55440, Note_on_c, 0, 50, 62
4, 55440, Note_on_c, 0, 56, 62
4, 55440, Note_on_c, 0, 59, 62
4, 55680, Note_on_c, 0, 59, 0
4, 55680, Note_on_c, 0, 56, 0
4, 55680, Note_on_c, 0, 50, 0
4, 55920, Note_on_c, 0, 49, 62
4, 55920, Note_on_c, 0, 52, 62
4, 55920, Note_on_c, 0, 57, 62
4, 56160, Note_on_c, 0, 57, 0
4, 56160, Note_on_c, 0, 52, 0
4, 56160, Note_on_c, 0, 49, 0
4, 56160, Note_on_c, 0, 45, 62
4, 56640, Note_on_c, 0, 45, 0
4, 56880, Note_on_c, 0, 49, 62
4, 56880, Note_on_c, 0, 52, 62
4, 56880, Note_on_c, 0, 57, 62
4, 57120, Note_on_c, 0, 57, 0
4, 57120, Note_on_c, 0, 52, 0
4, 57120, Note_on_c, 0, 49, 0
4, 57120, Note_on_c, 0, 45, 62
4, 57600, Note_on_c, 0, 45, 0
4, 57840, Note_on_c, 0, 53, 75
4, 57840, Note_on_c, 0, 57, 75
4, 57840, Note_on_c, 0, 60, 75
4, 58320, Note_on_c, 0, 60, 0
4, 58320, Note_on_c, 0, 57, 0
4, 58320, Note_on_c, 0, 53, 0
4, 58320, Note_on_c, 0, 53, 62
4, 58320, Note_on_c, 0, 57, 62
4, 58320, Note_on_c, 0, 60, 62
4, 58560, Note_on_c, 0, 60, 0
4, 58560, Note_on_c, 0, 57, 0
4, 58560, Note_on_c, 0, 53, 0
4, 58800, Note_on_c, 0, 53, 62
4, 58800, Note_on_c, 0, 56, 62
4, 58800, Note_on_c, 0, 59, 62
4, 59280, Note_on_c, 0, 59, 0
4, 59280, Note_on_c, 0, 56, 0
4, 59280, Note_on_c, 0, 53, 0
4, 59280, Note_on_c, 0, 50, 62
4, 59280, Note_on_c, 0, 56, 62
4, 59280, Note_on_c, 0, 59, 62
4, 59520, Note_on_c, 0, 59, 0
4, 59520, Note_on_c, 0, 56, 0
4, 59520, Note_on_c, 0, 50, 0
4, 59760, Note_on_c, 0, 49, 62
4, 59760, Note_on_c, 0, 52, 62
4, 60000, Note_on_c, 0, 52, 0
4, 60000, Note_on_c, 0, 49, 0
4, 60000, Note_on_c, 0, 57, 62
4, 60000, Note_on_c, 0, 61, 62
4, 60480, Note_on_c, 0, 61, 0
4, 60480, Note_on_c, 0, 57, 0
4, 60720, Note_on_c, 0, 49, 62
4, 60720, Note_on_c, 0, 52, 62
4, 60960, Note_on_c, 0, 52, 0
4, 60960, Note_on_c, 0, 49, 0
4, 60960, Note_on_c, 0, 57, 62
4, 60960, Note_on_c, 0, 61, 62
4, 61440, Note_on_c, 0, 61, 0
4, 61440, Note_on_c, 0, 57, 0
4, 61440, Note_on_c, 0, 52, 114
4, 61440, Note_on_c, 0, 57, 114
4, 61440, Note_on_c, 0, 61, 114
4, 61463, Note_on_c, 0, 61, 0
4, 61463, Note_on_c, 0, 57, 0
4, 61463, Note_on_c, 0, 52, 0
4, 61800, Note_on_c, 0, 67, 88
4, 61920, Note_on_c, 0, 67, 0
4, 62040, Note_on_c, 0, 64, 88
4, 62160, Note_on_c, 0, 64, 0
4, 62280, Note_on_c, 0, 61, 88
4, 62400, Note_on_c, 0, 61, 0
4, 62520, Note_on_c, 0, 57, 101
4, 62640, Note_on_c, 0, 57, 0
4, 62760, Note_on_c, 0, 55, 101
4, 62880, Note_on_c, 0, 55, 0
4, 63000, Note_on_c, 0, 52, 101
4, 63120, Note_on_c, 0, 52, 0
4, 63240, Note_on_c, 0, 49, 101
4, 63360, Note_on_c, 0, 49, 0
4, 63600, Note_on_c, 0, 53, 101
4, 63600, Note_on_c, 0, 57, 101
4, 63600, Note_on_c, 0, 62, 101
4, 63600, Note_on_c, 0, 65, 101
4, 64080, Note_on_c, 0, 65, 0
4, 64080, Note_on_c, 0, 53, 0
4, 64080, Note_on_c, 0, 57, 0
4, 64080, Note_on_c, 0, 62, 0
4, 64080, Note_on_c, 0, 53, 88
4, 64080, Note_on_c, 0, 57, 88
4, 64080, Note_on_c, 0, 62, 88
4, 64080, Note_on_c, 0, 65, 88
4, 64320, Note_on_c, 0, 65, 0
4, 64320, Note_on_c, 0, 53, 0
4, 64320, Note_on_c, 0, 57, 0
4, 64320, Note_on_c, 0, 62, 0
4, 64560, Note_on_c, 0, 53, 88
4, 64560, Note_on_c, 0, 57, 88
4, 64560, Note_on_c, 0, 62, 88
4, 65040, Note_on_c, 0, 62, 0
4, 65040, Note_on_c, 0, 57, 0
4, 65040, Note_on_c, 0, 53, 0
4, 65040, Note_on_c, 0, 53, 88
4, 65040, Note_on_c, 0, 57, 88
4, 65040, Note_on_c, 0, 62, 88
4, 65280, Note_on_c, 0, 62, 0
4, 65280, Note_on_c, 0, 57, 0
4, 65280, Note_on_c, 0, 53, 0
4, 65280, Note_on_c, 0, 55, 88
4, 65280, Note_on_c, 0, 58, 88
4, 65280, Note_on_c, 0, 62, 88
4, 65303, Note_on_c, 0, 62, 0
4, 65303, Note_on_c, 0, 58, 0
4, 65303, Note_on_c, 0, 55, 0
4, 65640, Note_on_c, 0, 70, 88
4, 65760, Note_on_c, 0, 70, 0
4, 65880, Note_on_c, 0, 67, 88
4, 66000, Note_on_c, 0, 67, 0
4, 66120, Note_on_c, 0, 62, 88
4, 66240, Note_on_c, 0, 62, 0
4, 66360, Note_on_c, 0, 58, 101
4, 66480, Note_on_c, 0, 58, 0
4, 66600, Note_on_c, 0, 55, 101
4, 66720, Note_on_c, 0, 55, 0
4, 66840, Note_on_c, 0, 50, 101
4, 66960, Note_on_c, 0, 50, 0
4, 67080, Note_on_c, 0, 46, 101
4, 67200, Note_on_c, 0, 46, 0
4, 67440, Note_on_c, 0, 52, 101
4, 67440, Note_on_c, 0, 55, 101
4, 67440, Note_on_c, 0, 58, 101
4, 67440, Note_on_c, 0, 62, 101
4, 67920, Note_on_c, 0, 62, 0
4, 67920, Note_on_c, 0, 52, 0
4, 67920, Note_on_c, 0, 55, 0
4, 67920, Note_on_c, 0, 58, 0
4, 67920, Note_on_c, 0, 52, 88
4, 67920, Note_on_c, 0, 55, 88
4, 67920, Note_on_c, 0, 58, 88
4, 67920, Note_on_c, 0, 62, 88
4, 68160, Note_on_c, 0, 62, 0
4, 68160, Note_on_c, 0, 52, 0
4, 68160, Note_on_c, 0, 55, 0
4, 68160, Note_on_c, 0, 58, 0
4, 68400, Note_on_c, 0, 52, 88
4, 68400, Note_on_c, 0, 55, 88
4, 68400, Note_on_c, 0, 61, 88
4, 68880, Note_on_c, 0, 61, 0
4, 68880, Note_on_c, 0, 55, 0
4, 68880, Note_on_c, 0, 52, 0
4, 68880, Note_on_c, 0, 52, 75
4, 68880, Note_on_c, 0, 55, 75
4, 68880, Note_on_c, 0, 61, 75
4, 69120, Note_on_c, 0, 61, 0
4, 69120, Note_on_c, 0, 55, 0
4, 69120, Note_on_c, 0, 52, 0
4, 69360, Note_on_c, 0, 50, 75
4, 69360, Note_on_c, 0, 53, 75
4, 69360, Note_on_c, 0, 62, 75
4, 69840, Note_on_c, 0, 62, 0
4, 69840, Note_on_c, 0, 53, 0
4, 69840, Note_on_c, 0, 50, 0
4, 69840, Note_on_c, 0, 50, 75
4, 69840, Note_on_c, 0, 53, 75
4, 70080, Note_on_c, 0, 53, 0
4, 70080, Note_on_c, 0, 50, 0
4, 70320, Note_on_c, 0, 50, 75
4, 70320, Note_on_c, 0, 55, 75
4, 70320, Note_on_c, 0, 58, 75
4, 70320, Note_on_c, 0, 62, 75
4, 70800, Note_on_c, 0, 62, 0
4, 70800, Note_on_c, 0, 50, 0
4, 70800, Note_on_c, 0, 55, 0
4, 70800, Note_on_c, 0, 58, 0
4, 70800, Note_on_c, 0, 50, 75
4, 70800, Note_on_c, 0, 55, 75
4, 70800, Note_on_c, 0, 58, 75
4, 71040, Note_on_c, 0, 58, 0
4, 71040, Note_on_c, 0, 55, 0
4, 71040, Note_on_c, 0, 50, 0
4, 71280, Note_on_c, 0, 48, 75
4, 71280, Note_on_c, 0, 53, 75
4, 71280, Note_on_c, 0, 57, 75
4, 71760, Note_on_c, 0, 57, 0
4, 71760, Note_on_c, 0, 53, 0
4, 71760, Note_on_c, 0, 48, 0
4, 71760, Note_on_c, 0, 48, 75
4, 71760, Note_on_c, 0, 53, 75
4, 72000, Note_on_c, 0, 53, 0
4, 72000, Note_on_c, 0, 48, 0
4, 72240, Note_on_c, 0, 48, 75
4, 72240, Note_on_c, 0, 53, 75
4, 72240, Note_on_c, 0, 57, 75
4, 72720, Note_on_c, 0, 57, 0
4, 72720, Note_on_c, 0, 53, 0
4, 72720, Note_on_c, 0, 48, 0
4, 72720, Note_on_c, 0, 48, 75
4, 72960, Note_on_c, 0, 48, 0
4, 73200, Note_on_c, 0, 46, 75
4, 73200, Note_on_c, 0, 50, 75
4, 73200, Note_on_c, 0, 55, 75
4, 73680, Note_on_c, 0, 55, 0
4, 73680, Note_on_c, 0, 50, 0
4, 73680, Note_on_c, 0, 46, 0
4, 73680, Note_on_c, 0, 46, 75
4, 73680, Note_on_c, 0, 50, 75
4, 73680, Note_on_c, 0, 55, 75
4, 73920, Note_on_c, 0, 55, 0
4, 73920, Note_on_c, 0, 50, 0
4, 73920, Note_on_c, 0, 46, 0
4, 74160, Note_on_c, 0, 45, 75
4, 74160, Note_on_c, 0, 49, 75
4, 74640, Note_on_c, 0, 49, 0
4, 74640, Note_on_c, 0, 45, 0
4, 74640, Note_on_c, 0, 45, 75
4, 74640, Note_on_c, 0, 49, 75
4, 74880, Note_on_c, 0, 49, 0
4, 74880, Note_on_c, 0, 45, 0
4, 75120, Note_on_c, 0, 45, 75
4, 75120, Note_on_c, 0, 50, 75
4, 75600, Note_on_c, 0, 50, 0
4, 75600, Note_on_c, 0, 45, 0
4, 75600, Note_on_c, 0, 45, 88
4, 75600, Note_on_c, 0, 50, 88
4, 75840, Note_on_c, 0, 45, 0
4, 75840, Note_on_c, 0, 43, 101
4, 76320, Note_on_c, 0, 43, 0
4, 76320, Note_on_c, 0, 45, 88
4, 77280, Note_on_c, 0, 45, 0
4, 77280, Note_on_c, 0, 50, 0
4, 77280, Note_on_c, 0, 50, 75
4, 77520, Note_on_c, 0, 50, 0
4, 77520, Note_on_c, 0, 54, 49
4, 77520, Note_on_c, 0, 57, 49
4, 77543, Note_on_c, 0, 57, 0
4, 77543, Note_on_c, 0, 54, 0
4, 78000, Note_on_c, 0, 57, 49
4, 78000, Note_on_c, 0, 62, 49
4, 78023, Note_on_c, 0, 62, 0
4, 78023, Note_on_c, 0, 57, 0
4, 78480, Note_on_c, 0, 54, 49
4, 78480, Note_on_c, 0, 57, 49
4, 78503, Note_on_c, 0, 57, 0
4, 78503, Note_on_c, 0, 54, 0
4, 78960, Note_on_c, 0, 50, 49
4, 78960, Note_on_c, 0, 54, 49
4, 78983, Note_on_c, 0, 54, 0
4, 78983, Note_on_c, 0, 50, 0
4, 79200, Note_on_c, 0, 50, 88
4, 79440, Note_on_c, 0, 50, 0
4, 79440, Note_on_c, 0, 55, 62
4, 79440, Note_on_c, 0, 59, 62
4, 79463, Note_on_c, 0, 59, 0
4, 79463, Note_on_c, 0, 55, 0
4, 79920, Note_on_c, 0, 59, 62
4, 79920, Note_on_c, 0, 62, 62
4, 79943, Note_on_c, 0, 62, 0
4, 79943, Note_on_c, 0, 59, 0
4, 80400, Note_on_c, 0, 55, 62
4, 80400, Note_on_c, 0, 59, 62
4, 80423, Note_on_c, 0, 59, 0
4, 80423, Note_on_c, 0, 55, 0
4, 80880, Note_on_c, 0, 50, 62
4, 80880, Note_on_c, 0, 55, 62
4, 80903, Note_on_c, 0, 55, 0
4, 80903, Note_on_c, 0, 50, 0
4, 81120, Note_on_c, 0, 52, 114
4, 81360, Note_on_c, 0, 52, 0
4, 81360, Note_on_c, 0, 55, 88
4, 81360, Note_on_c, 0, 61, 88
4, 81383, Note_on_c, 0, 61, 0
4, 81383, Note_on_c, 0, 55, 0
4, 81840, Note_on_c, 0, 61, 88
4, 81840, Note_on_c, 0, 64, 88
4, 81863, Note_on_c, 0, 64, 0
4, 81863, Note_on_c, 0, 61, 0
4, 82320, Note_on_c, 0, 55, 88
4, 82320, Note_on_c, 0, 61, 88
4, 82343, Note_on_c, 0, 61, 0
4, 82343, Note_on_c, 0, 55, 0
4, 82800, Note_on_c, 0, 52, 88
4, 82800, Note_on_c, 0, 55, 88
4, 82800, Note_on_c, 0, 57, 88
4, 82823, Note_on_c, 0, 57, 0
4, 82823, Note_on_c, 0, 55, 0
4, 82823, Note_on_c, 0, 52, 0
4, 83040, Note_on_c, 0, 54, 88
4, 83040, Note_on_c, 0, 57, 88
4, 83040, Note_on_c, 0, 62, 88
4, 83520, Note_on_c, 0, 62, 0
4, 83520, Note_on_c, 0, 57, 0
4, 83520, Note_on_c, 0, 54, 0
4, 83520, Note_on_c, 0, 52, 88
4, 83520, Note_on_c, 0, 57, 88
4, 83543, Note_on_c, 0, 57, 0
4, 83543, Note_on_c, 0, 52, 0
4, 83760, Note_on_c, 0, 56, 88
4, 83760, Note_on_c, 0, 62, 88
4, 83783, Note_on_c, 0, 62, 0
4, 83783, Note_on_c, 0, 56, 0
4, 84000, Note_on_c, 0, 57, 88
4, 84000, Note_on_c, 0, 61, 88
4, 84023, Note_on_c, 0, 61, 0
4, 84023, Note_on_c, 0, 57, 0
4, 84240, Note_on_c, 0, 50, 88
4, 84240, Note_on_c, 0, 59, 88
4, 84263, Note_on_c, 0, 59, 0
4, 84263, Note_on_c, 0, 50, 0
4, 84480, Note_on_c, 0, 50, 88
4, 84480, Note_on_c, 0, 57, 88
4, 84960, Note_on_c, 0, 57, 0
4, 84960, Note_on_c, 0, 50, 0
4, 84960, Note_on_c, 0, 50, 88
4, 84960, Note_on_c, 0, 55, 88
4, 84960, Note_on_c, 0, 59, 88
4, 85440, Note_on_c, 0, 59, 0
4, 85440, Note_on_c, 0, 55, 0
4, 85440, Note_on_c, 0, 50, 0
4, 85440, Note_on_c, 0, 50, 88
4, 85440, Note_on_c, 0, 54, 88
4, 85440, Note_on_c, 0, 57, 88
4, 85463, Note_on_c, 0, 57, 0
4, 85463, Note_on_c, 0, 54, 0
4, 85463, Note_on_c, 0, 50, 0
4, 85680, Note_on_c, 0, 49, 88
4, 85680, Note_on_c, 0, 52, 88
4, 85680, Note_on_c, 0, 55, 88
4, 85703, Note_on_c, 0, 55, 0
4, 85703, Note_on_c, 0, 52, 0
4, 85703, Note_on_c, 0, 49, 0
4, 85920, Note_on_c, 0, 50, 88
4, 85920, Note_on_c, 0, 54, 88
4, 85943, Note_on_c, 0, 54, 0
4, 85943, Note_on_c, 0, 50, 0
4, 86160, Note_on_c, 0, 49, 88
4, 86160, Note_on_c, 0, 57, 88
4, 86183, Note_on_c, 0, 57, 0
4, 86183, Note_on_c, 0, 49, 0
4, 86400, Note_on_c, 0, 47, 88
4, 86400, Note_on_c, 0, 57, 88
4, 86880, Note_on_c, 0, 57, 0
4, 86880, Note_on_c, 0, 47, 0
4, 86880, Note_on_c, 0, 45, 75
4, 87120, Note_on_c, 0, 45, 0
4, 87120, Note_on_c, 0, 55, 49
4, 87120, Note_on_c, 0, 57, 49
4, 87143, Note_on_c, 0, 57, 0
4, 87143, Note_on_c, 0, 55, 0
4, 87600, Note_on_c, 0, 52, 49
4, 87600, Note_on_c, 0, 57, 49
4, 87623, Note_on_c, 0, 57, 0
4, 87623, Note_on_c, 0, 52, 0
4, 87840, Note_on_c, 0, 45, 75
4, 88080, Note_on_c, 0, 45, 0
4, 88080, Note_on_c, 0, 54, 49
4, 88080, Note_on_c, 0, 57, 49
4, 88103, Note_on_c, 0, 57, 0
4, 88103, Note_on_c, 0, 54, 0
4, 88560, Note_on_c, 0, 50, 49
4, 88560, Note_on_c, 0, 57, 49
4, 88583, Note_on_c, 0, 57, 0
4, 88583, Note_on_c, 0, 50, 0
4, 89040, Note_on_c, 0, 49, 49
4, 89063, Note_on_c, 0, 49, 0
4, 89280, Note_on_c, 0, 52, 49
4, 89303, Note_on_c, 0, 52, 0
4, 89520, Note_on_c, 0, 49, 49
4, 89520, Note_on_c, 0, 55, 49
4, 89543, Note_on_c, 0, 55, 0
4, 89543, Note_on_c, 0, 49, 0
4, 89760, Note_on_c, 0, 50, 75
4, 89760, Note_on_c, 0, 54, 75
4, 90000, Note_on_c, 0, 54, 0
4, 90000, Note_on_c, 0, 50, 0
4, 90000, Note_on_c, 0, 57, 49
4, 90240, Note_on_c, 0, 57, 0
4, 90240, Note_on_c, 0, 50, 49
4, 90240, Note_on_c, 0, 54, 49
4, 90720, Note_on_c, 0, 54, 0
4, 90720, Note_on_c, 0, 50, 0
4, 90720, Note_on_c, 0, 54, 75
4, 90720, Note_on_c, 0, 62, 75
4, 91200, Note_on_c, 0, 62, 0
4, 91200, Note_on_c, 0, 54, 0
4, 91200, Note_on_c, 0, 57, 49
4, 91200, Note_on_c, 0, 61, 49
4, 91223, Note_on_c, 0, 61, 0
4, 91223, Note_on_c, 0, 57, 0
4, 91440, Note_on_c, 0, 55, 49
4, 91440, Note_on_c, 0, 59, 49
4, 91463, Note_on_c, 0, 59, 0
4, 91463, Note_on_c, 0, 55, 0
4, 91680, Note_on_c, 0, 54, 49
4, 91680, Note_on_c, 0, 57, 49
4, 91703, Note_on_c, 0, 57, 0
4, 91703, Note_on_c, 0, 54, 0
4, 91920, Note_on_c, 0, 52, 49
4, 91920, Note_on_c, 0, 55, 49
4, 91943, Note_on_c, 0, 55, 0
4, 91943, Note_on_c, 0, 52, 0
4, 92160, Note_on_c, 0, 50, 49
4, 92160, Note_on_c, 0, 54, 49
4, 92640, Note_on_c, 0, 54, 0
4, 92640, Note_on_c, 0, 50, 0
4, 92640, Note_on_c, 0, 55, 88
4, 92640, Note_on_c, 0, 64, 88
4, 93120, Note_on_c, 0, 64, 0
4, 93120, Note_on_c, 0, 55, 0
4, 93120, Note_on_c, 0, 59, 62
4, 93120, Note_on_c, 0, 62, 62
4, 93143, Note_on_c, 0, 62, 0
4, 93143, Note_on_c, 0, 59, 0
4, 93360, Note_on_c, 0, 57, 62
4, 93360, Note_on_c, 0, 61, 62
4, 93383, Note_on_c, 0, 61, 0
4, 93383, Note_on_c, 0, 57, 0
4, 93600, Note_on_c, 0, 55, 62
4, 93600, Note_on_c, 0, 59, 62
4, 93623, Note_on_c, 0, 59, 0
4, 93623, Note_on_c, 0, 55, 0
4, 93840, Note_on_c, 0, 54, 62
4, 93840, Note_on_c, 0, 57, 62
4, 93863, Note_on_c, 0, 57, 0
4, 93863, Note_on_c, 0, 54, 0
4, 94080, Note_on_c, 0, 52, 62
4, 94080, Note_on_c, 0, 55, 62
4, 94560, Note_on_c, 0, 55, 0
4, 94560, Note_on_c, 0, 52, 0
4, 94560, Note_on_c, 0, 64, 101
4, 94560, Note_on_c, 0, 67, 101
4, 95040, Note_on_c, 0, 67, 0
4, 95040, Note_on_c, 0, 64, 0
4, 95040, Note_on_c, 0, 62, 75
4, 95040, Note_on_c, 0, 66, 75
4, 95063, Note_on_c, 0, 66, 0
4, 95063, Note_on_c, 0, 62, 0
4, 95280, Note_on_c, 0, 61, 75
4, 95280, Note_on_c, 0, 64, 75
4, 95303, Note_on_c, 0, 64, 0
4, 95303, Note_on_c, 0, 61, 0
4, 95520, Note_on_c, 0, 59, 75
4, 95520, Note_on_c, 0, 62, 75
4, 95543, Note_on_c, 0, 62, 0
4, 95543, Note_on_c, 0, 59, 0
4, 95760, Note_on_c, 0, 57, 75
4, 95760, Note_on_c, 0, 61, 75
4, 95783, Note_on_c, 0, 61, 0
4, 95783, Note_on_c, 0, 57, 0
4, 96000, Note_on_c, 0, 55, 75
4, 96000, Note_on_c, 0, 59, 75
4, 96480, Note_on_c, 0, 59, 0
4, 96480, Note_on_c, 0, 55, 0
4, 96480, Note_on_c, 0, 57, 114
4, 96480, Note_on_c, 0, 62, 114
4, 96480, Note_on_c, 0, 66, 114
4, 96960, Note_on_c, 0, 66, 0
4, 96960, Note_on_c, 0, 62, 0
4, 96960, Note_on_c, 0, 57, 0
4, 96960, Note_on_c, 0, 57, 88
4, 96960, Note_on_c, 0, 64, 88
4, 96983, Note_on_c, 0, 64, 0
4, 96983, Note_on_c, 0, 57, 0
4, 97200, Note_on_c, 0, 56, 88
4, 97200, Note_on_c, 0, 62, 88
4, 97223, Note_on_c, 0, 62, 0
4, 97223, Note_on_c, 0, 56, 0
4, 97440, Note_on_c, 0, 57, 88
4, 97440, Note_on_c, 0, 61, 88
4, 97463, Note_on_c, 0, 61, 0
4, 97463, Note_on_c, 0, 57, 0
4, 97680, Note_on_c, 0, 50, 88
4, 97680, Note_on_c, 0, 59, 88
4, 97680, Note_on_c, 0, 62, 88
4, 97703, Note_on_c, 0, 62, 0
4, 97703, Note_on_c, 0, 59, 0
4, 97703, Note_on_c, 0, 50, 0
4, 97920, Note_on_c, 0, 50, 88
4, 97920, Note_on_c, 0, 57, 88
4, 97920, Note_on_c, 0, 62, 88
4, 98400, Note_on_c, 0, 62, 0
4, 98400, Note_on_c, 0, 57, 0
4, 98400, Note_on_c, 0, 50, 0
4, 98400, Note_on_c, 0, 50, 114
4, 98400, Note_on_c, 0, 59, 114
4, 98400, Note_on_c, 0, 62, 114
4, 98880, Note_on_c, 0, 62, 0
4, 98880, Note_on_c, 0, 59, 0
4, 98880, Note_on_c, 0, 50, 0
4, 98880, Note_on_c, 0, 50, 88
4, 98880, Note_on_c, 0, 57, 88
4, 98880, Note_on_c, 0, 62, 88
4, 98903, Note_on_c, 0, 62, 0
4, 98903, Note_on_c, 0, 57, 0
4, 98903, Note_on_c, 0, 50, 0
4, 99120, Note_on_c, 0, 52, 88
4, 99120, Note_on_c, 0, 55, 88
4, 99120, Note_on_c, 0, 61, 88
4, 99143, Note_on_c, 0, 61, 0
4, 99143, Note_on_c, 0, 55, 0
4, 99143, Note_on_c, 0, 52, 0
4, 99360, Note_on_c, 0, 50, 88
4, 99360, Note_on_c, 0, 54, 88
4, 99360, Note_on_c, 0, 62, 88
4, 99383, Note_on_c, 0, 62, 0
4, 99383, Note_on_c, 0, 54, 0
4, 99383, Note_on_c, 0, 50, 0
4, 99600, Note_on_c, 0, 49, 88
4, 99600, Note_on_c, 0, 57, 88
4, 99623, Note_on_c, 0, 57, 0
4, 99623, Note_on_c, 0, 49, 0
4, 99840, Note_on_c, 0, 47, 88
4, 99840, Note_on_c, 0, 57, 88
4, 100320, Note_on_c, 0, 57, 0
4, 100320, Note_on_c, 0, 47, 0
4, 100320, Note_on_c, 0, 45, 75
4, 100560, Note_on_c, 0, 45, 0
4, 100560, Note_on_c, 0, 55, 49
4, 100560, Note_on_c, 0, 57, 49
4, 100800, Note_on_c, 0, 57, 0
4, 100800, Note_on_c, 0, 55, 0
4, 101040, Note_on_c, 0, 52, 49
4, 101040, Note_on_c, 0, 57, 49
4, 101063, Note_on_c, 0, 57, 0
4, 101063, Note_on_c, 0, 52, 0
4, 101280, Note_on_c, 0, 45, 75
4, 101520, Note_on_c, 0, 45, 0
4, 101520, Note_on_c, 0, 54, 49
4, 101520, Note_on_c, 0, 57, 49
4, 101760, Note_on_c, 0, 57, 0
4, 101760, Note_on_c, 0, 54, 0
4, 102000, Note_on_c, 0, 50, 49
4, 102000, Note_on_c, 0, 57, 49
4, 102023, Note_on_c, 0, 57, 0
4, 102023, Note_on_c, 0, 50, 0
4, 102480, Note_on_c, 0, 49, 49
4, 102503, Note_on_c, 0, 49, 0
4, 102720, Note_on_c, 0, 52, 49
4, 102743, Note_on_c, 0, 52, 0
4, 102960, Note_on_c, 0, 49, 49
4, 102960, Note_on_c, 0, 55, 49
4, 102983, Note_on_c, 0, 55, 0
4, 102983, Note_on_c, 0, 49, 0
4, 103200, Note_on_c, 0, 50, 75
4, 103200, Note_on_c, 0, 54, 75
4, 103440, Note_on_c, 0, 54, 0
4, 103440, Note_on_c, 0, 50, 0
4, 103440, Note_on_c, 0, 57, 49
4, 103680, Note_on_c, 0, 57, 0
4, 103680, Note_on_c, 0, 50, 49
4, 103680, Note_on_c, 0, 54, 49
4, 104160, Note_on_c, 0, 54, 0
4, 104160, Note_on_c, 0, 50, 0
4, 104160, Note_on_c, 0, 57, 114
4, 104160, Note_on_c, 0, 62, 114
4, 104160, Note_on_c, 0, 66, 114
4, 104640, Note_on_c, 0, 66, 0
4, 104640, Note_on_c, 0, 62, 0
4, 104640, Note_on_c, 0, 57, 0
4, 104640, Note_on_c, 0, 57, 88
4, 104640, Note_on_c, 0, 64, 88
4, 104663, Note_on_c, 0, 64, 0
4, 104663, Note_on_c, 0, 57, 0
4, 104880, Note_on_c, 0, 56, 88
4, 104880, Note_on_c, 0, 62, 88
4, 104903, Note_on_c, 0, 62, 0
4, 104903, Note_on_c, 0, 56, 0
4, 105120, Note_on_c, 0, 57, 88
4, 105120, Note_on_c, 0, 61, 88
4, 105143, Note_on_c, 0, 61, 0
4, 105143, Note_on_c, 0, 57, 0
4, 105360, Note_on_c, 0, 50, 88
4, 105360, Note_on_c, 0, 59, 88
4, 105360, Note_on_c, 0, 62, 88
4, 105383, Note_on_c, 0, 62, 0
4, 105383, Note_on_c, 0, 59, 0
4, 105383, Note_on_c, 0, 50, 0
4, 105600, Note_on_c, 0, 50, 88
4, 105600, Note_on_c, 0, 57, 88
4, 105600, Note_on_c, 0, 62, 88
4, 106080, Note_on_c, 0, 62, 0
4, 106080, Note_on_c, 0, 57, 0
4, 106080, Note_on_c, 0, 50, 0
4, 106080, Note_on_c, 0, 50, 114
4, 106080, Note_on_c, 0, 59, 114
4, 106080, Note_on_c, 0, 62, 114
4, 106560, Note_on_c, 0, 62, 0
4, 106560, Note_on_c, 0, 59, 0
4, 106560, Note_on_c, 0, 50, 0
4, 106560, Note_on_c, 0, 50, 88
4, 106560, Note_on_c, 0, 57, 88
4, 106560, Note_on_c, 0, 62, 88
4, 106583, Note_on_c, 0, 62, 0
4, 106583, Note_on_c, 0, 57, 0
4, 106583, Note_on_c, 0, 50, 0
4, 106800, Note_on_c, 0, 52, 88
4, 106800, Note_on_c, 0, 55, 88
4, 106800, Note_on_c, 0, 61, 88
4, 106823, Note_on_c, 0, 61, 0
4, 106823, Note_on_c, 0, 55, 0
4, 106823, Note_on_c, 0, 52, 0
4, 107040, Note_on_c, 0, 50, 88
4, 107040, Note_on_c, 0, 54, 88
4, 107040, Note_on_c, 0, 62, 88
4, 107063, Note_on_c, 0, 62, 0
4, 107063, Note_on_c, 0, 54, 0
4, 107063, Note_on_c, 0, 50, 0
4, 107280, Note_on_c, 0, 49, 88
4, 107280, Note_on_c, 0, 57, 88
4, 107303, Note_on_c, 0, 57, 0
4, 107303, Note_on_c, 0, 49, 0
4, 107520, Note_on_c, 0, 47, 88
4, 107520, Note_on_c, 0, 57, 88
4, 108000, Note_on_c, 0, 57, 0
4, 108000, Note_on_c, 0, 47, 0
4, 108000, Note_on_c, 0, 57, 75
4, 108180, Note_on_c, 0, 61, 49
4, 108240, Note_on_c, 0, 57, 0
4, 108240, Note_on_c, 0, 67, 49
4, 108480, Note_on_c, 0, 67, 0
4, 108480, Note_on_c, 0, 61, 0
4, 108720, Note_on_c, 0, 57, 49
4, 108720, Note_on_c, 0, 64, 49
4, 108720, Note_on_c, 0, 69, 49
4, 108743, Note_on_c, 0, 69, 0
4, 108743, Note_on_c, 0, 64, 0
4, 108743, Note_on_c, 0, 57, 0
4, 108960, Note_on_c, 0, 57, 75
4, 109120, Note_on_c, 0, 62, 49
4, 109160, Note_on_c, 0, 66, 49
4, 109200, Note_on_c, 0, 57, 0
4, 109200, Note_on_c, 0, 69, 49
4, 109440, Note_on_c, 0, 69, 0
4, 109440, Note_on_c, 0, 66, 0
4, 109440, Note_on_c, 0, 62, 0
4, 109680, Note_on_c, 0, 57, 49
4, 109680, Note_on_c, 0, 62, 49
4, 109680, Note_on_c, 0, 66, 49
4, 109703, Note_on_c, 0, 66, 0
4, 109703, Note_on_c, 0, 62, 0
4, 109703, Note_on_c, 0, 57, 0
4, 109920, Note_on_c, 0, 57, 49
4, 109920, Note_on_c, 0, 61, 49
4, 109943, Note_on_c, 0, 61, 0
4, 109943, Note_on_c, 0, 57, 0
4, 110160, Note_on_c, 0, 67, 49
4, 110183, Note_on_c, 0, 67, 0
4, 110400, Note_on_c, 0, 55, 49
4, 110400, Note_on_c, 0, 64, 49
4, 110423, Note_on_c, 0, 64, 0
4, 110423, Note_on_c, 0, 55, 0
4, 110640, Note_on_c, 0, 61, 49
4, 110663, Note_on_c, 0, 61, 0
4, 110880, Note_on_c, 0, 54, 49
4, 110880, Note_on_c, 0, 62, 49
4, 110903, Note_on_c, 0, 62, 0
4, 110903, Note_on_c, 0, 54, 0
4, 111360, Note_on_c, 0, 57, 49
4, 111360, Note_on_c, 0, 62, 49
4, 111383, Note_on_c, 0, 62, 0
4, 111383, Note_on_c, 0, 57, 0
4, 112320, Note_on_c, 0, 52, 114
4, 112320, Note_on_c, 0, 57, 114
4, 112320, Note_on_c, 0, 61, 114
4, 112343, Note_on_c, 0, 61, 0
4, 112343, Note_on_c, 0, 57, 0
4, 112343, Note_on_c, 0, 52, 0
4, 112680, Note_on_c, 0, 67, 88
4, 112800, Note_on_c, 0, 67, 0
4, 112920, Note_on_c, 0, 64, 88
4, 113040, Note_on_c, 0, 64, 0
4, 113160, Note_on_c, 0, 61, 88
4, 113280, Note_on_c, 0, 61, 0
4, 113400, Note_on_c, 0, 57, 101
4, 113520, Note_on_c, 0, 57, 0
4, 113640, Note_on_c, 0, 55, 101
4, 113760, Note_on_c, 0, 55, 0
4, 113880, Note_on_c, 0, 52, 101
4, 114000, Note_on_c, 0, 52, 0
4, 114120, Note_on_c, 0, 49, 101
4, 114240, Note_on_c, 0, 49, 0
4, 114480, Note_on_c, 0, 53, 101
4, 114480, Note_on_c, 0, 57, 101
4, 114480, Note_on_c, 0, 62, 101
4, 114480, Note_on_c, 0, 65, 101
4, 114960, Note_on_c, 0, 65, 0
4, 114960, Note_on_c, 0, 53, 0
4, 114960, Note_on_c, 0, 57, 0
4, 114960, Note_on_c, 0, 62, 0
4, 114960, Note_on_c, 0, 53, 88
4, 114960, Note_on_c, 0, 57, 88
4, 114960, Note_on_c, 0, 62, 88
4, 114960, Note_on_c, 0, 65, 88
4, 115200, Note_on_c, 0, 65, 0
4, 115200, Note_on_c, 0, 53, 0
4, 115200, Note_on_c, 0, 57, 0
4, 115200, Note_on_c, 0, 62, 0
4, 115440, Note_on_c, 0, 53, 88
4, 115440, Note_on_c, 0, 57, 88
4, 115440, Note_on_c, 0, 62, 88
4, 115920, Note_on_c, 0, 62, 0
4, 115920, Note_on_c, 0, 57, 0
4, 115920, Note_on_c, 0, 53, 0
4, 115920, Note_on_c, 0, 53, 88
4, 115920, Note_on_c, 0, 57, 88
4, 115920, Note_on_c, 0, 62, 88
4, 116160, Note_on_c, 0, 62, 0
4, 116160, Note_on_c, 0, 57, 0
4, 116160, Note_on_c, 0, 53, 0
4, 116160, Note_on_c, 0, 55, 88
4, 116160, Note_on_c, 0, 58, 88
4, 116160, Note_on_c, 0, 62, 88
4, 116183, Note_on_c, 0, 62, 0
4, 116183, Note_on_c, 0, 58, 0
4, 116183, Note_on_c, 0, 55, 0
4, 116520, Note_on_c, 0, 70, 88
4, 116640, Note_on_c, 0, 70, 0
4, 116760, Note_on_c, 0, 67, 88
4, 116880, Note_on_c, 0, 67, 0
4, 117000, Note_on_c, 0, 62, 88
4, 117120, Note_on_c, 0, 62, 0
4, 117240, Note_on_c, 0, 58, 101
4, 117360, Note_on_c, 0, 58, 0
4, 117480, Note_on_c, 0, 55, 101
4, 117600, Note_on_c, 0, 55, 0
4, 117720, Note_on_c, 0, 50, 101
4, 117840, Note_on_c, 0, 50, 0
4, 117960, Note_on_c, 0, 46, 101
4, 118080, Note_on_c, 0, 46, 0
4, 118320, Note_on_c, 0, 52, 101
4, 118320, Note_on_c, 0, 55, 101
4, 118320, Note_on_c, 0, 58, 101
4, 118320, Note_on_c, 0, 62, 101
4, 118800, Note_on_c, 0, 62, 0
4, 118800, Note_on_c, 0, 52, 0
4, 118800, Note_on_c, 0, 55, 0
4, 118800, Note_on_c, 0, 58, 0
4, 118800, Note_on_c, 0, 52, 88
4, 118800, Note_on_c, 0, 55, 88
4, 118800, Note_on_c, 0, 58, 88
4, 118800, Note_on_c, 0, 62, 88
4, 119040, Note_on_c, 0, 62, 0
4, 119040, Note_on_c, 0, 52, 0
4, 119040, Note_on_c, 0, 55, 0
4, 119040, Note_on_c, 0, 58, 0
4, 119280, Note_on_c, 0, 52, 88
4, 119280, Note_on_c, 0, 55, 88
4, 119280, Note_on_c, 0, 61, 88
4, 119760, Note_on_c, 0, 61, 0
4, 119760, Note_on_c, 0, 55, 0
4, 119760, Note_on_c, 0, 52, 0
4, 119760, Note_on_c, 0, 52, 75
4, 119760, Note_on_c, 0, 55, 75
4, 119760, Note_on_c, 0, 61, 75
4, 120000, Note_on_c, 0, 61, 0
4, 120000, Note_on_c, 0, 55, 0
4, 120000, Note_on_c, 0, 52, 0
4, 120240, Note_on_c, 0, 50, 75
4, 120240, Note_on_c, 0, 53, 75
4, 120240, Note_on_c, 0, 62, 75
4, 120720, Note_on_c, 0, 62, 0
4, 120720, Note_on_c, 0, 53, 0
4, 120720, Note_on_c, 0, 50, 0
4, 120720, Note_on_c, 0, 50, 75
4, 120720, Note_on_c, 0, 53, 75
4, 120960, Note_on_c, 0, 53, 0
4, 120960, Note_on_c, 0, 50, 0
4, 121200, Note_on_c, 0, 50, 75
4, 121200, Note_on_c, 0, 55, 75
4, 121200, Note_on_c, 0, 58, 75
4, 121200, Note_on_c, 0, 62, 75
4, 121680, Note_on_c, 0, 62, 0
4, 121680, Note_on_c, 0, 50, 0
4, 121680, Note_on_c, 0, 55, 0
4, 121680, Note_on_c, 0, 58, 0
4, 121680, Note_on_c, 0, 50, 75
4, 121680, Note_on_c, 0, 55, 75
4, 121680, Note_on_c, 0, 58, 75
4, 121920, Note_on_c, 0, 58, 0
4, 121920, Note_on_c, 0, 55, 0
4, 121920, Note_on_c, 0, 50, 0
4, 122160, Note_on_c, 0, 48, 75
4, 122160, Note_on_c, 0, 53, 75
4, 122160, Note_on_c, 0, 57, 75
4, 122640, Note_on_c, 0, 57, 0
4, 122640, Note_on_c, 0, 53, 0
4, 122640, Note_on_c, 0, 48, 0
4, 122640, Note_on_c, 0, 48, 75
4, 122640, Note_on_c, 0, 53, 75
4, 122880, Note_on_c, 0, 53, 0
4, 122880, Note_on_c, 0, 48, 0
4, 123120, Note_on_c, 0, 48, 75
4, 123120, Note_on_c, 0, 53, 75
4, 123120, Note_on_c, 0, 57, 75
4, 123600, Note_on_c, 0, 57, 0
4, 123600, Note_on_c, 0, 53, 0
4, 123600, Note_on_c, 0, 48, 0
4, 123600, Note_on_c, 0, 48, 75
4, 123840, Note_on_c, 0, 48, 0
4, 124080, Note_on_c, 0, 46, 75
4, 124080, Note_on_c, 0, 50, 75
4, 124080, Note_on_c, 0, 55, 75
4, 124560, Note_on_c, 0, 55, 0
4, 124560, Note_on_c, 0, 50, 0
4, 124560, Note_on_c, 0, 46, 0
4, 124560, Note_on_c, 0, 46, 75
4, 124560, Note_on_c, 0, 50, 75
4, 124560, Note_on_c, 0, 55, 75
4, 124800, Note_on_c, 0, 55, 0
4, 124800, Note_on_c, 0, 50, 0
4, 124800, Note_on_c, 0, 46, 0
4, 125040, Note_on_c, 0, 45, 75
4, 125040, Note_on_c, 0, 49, 75
4, 125520, Note_on_c, 0, 49, 0
4, 125520, Note_on_c, 0, 45, 0
4, 125520, Note_on_c, 0, 45, 75
4, 125520, Note_on_c, 0, 49, 75
4, 125760, Note_on_c, 0, 49, 0
4, 125760, Note_on_c, 0, 45, 0
4, 126000, Note_on_c, 0, 45, 75
4, 126000, Note_on_c, 0, 50, 75
4, 126480, Note_on_c, 0, 50, 0
4, 126480, Note_on_c, 0, 45, 0
4, 126480, Note_on_c, 0, 45, 88
4, 126480, Note_on_c, 0, 50, 88
4, 126720, Note_on_c, 0, 45, 0
4, 126720, Note_on_c, 0, 43, 101
4, 127200, Note_on_c, 0, 43, 0
4, 127200, Note_on_c, 0, 45, 88
4, 127680, Note_on_c, 0, 45, 0
4, 127680, Note_on_c, 0, 50, 0
4, 127680, Note_on_c, 0, 52, 114
4, 127680, Note_on_c, 0, 57, 114
4, 127680, Note_on_c, 0, 61, 114
4, 127703, Note_on_c, 0, 61, 0
4, 127703, Note_on_c, 0, 57, 0
4, 127703, Note_on_c, 0, 52, 0
4, 128040, Note_on_c, 0, 67, 88
4, 128160, Note_on_c, 0, 67, 0
4, 128280, Note_on_c, 0, 64, 88
4, 128400, Note_on_c, 0, 64, 0
4, 128520, Note_on_c, 0, 61, 88
4, 128640, Note_on_c, 0, 61, 0
4, 128760, Note_on_c, 0, 57, 101
4, 128880, Note_on_c, 0, 57, 0
4, 129000, Note_on_c, 0, 55, 101
4, 129120, Note_on_c, 0, 55, 0
4, 129240, Note_on_c, 0, 52, 101
4, 129360, Note_on_c, 0, 52, 0
4, 129480, Note_on_c, 0, 49, 101
4, 129600, Note_on_c, 0, 49, 0
4, 129840, Note_on_c, 0, 53, 101
4, 129840, Note_on_c, 0, 57, 101
4, 129840, Note_on_c, 0, 62, 101
4, 129840, Note_on_c, 0, 65, 101
4, 130320, Note_on_c, 0, 65, 0
4, 130320, Note_on_c, 0, 53, 0
4, 130320, Note_on_c, 0, 57, 0
4, 130320, Note_on_c, 0, 62, 0
4, 130320, Note_on_c, 0, 53, 88
4, 130320, Note_on_c, 0, 57, 88
4, 130320, Note_on_c, 0, 62, 88
4, 130320, Note_on_c, 0, 65, 88
4, 130560, Note_on_c, 0, 65, 0
4, 130560, Note_on_c, 0, 53, 0
4, 130560, Note_on_c, 0, 57, 0
4, 130560, Note_on_c, 0, 62, 0
4, 130800, Note_on_c, 0, 53, 88
4, 130800, Note_on_c, 0, 57, 88
4, 130800, Note_on_c, 0, 62, 88
4, 131280, Note_on_c, 0, 62, 0
4, 131280, Note_on_c, 0, 57, 0
4, 131280, Note_on_c, 0, 53, 0
4, 131280, Note_on_c, 0, 53, 88
4, 131280, Note_on_c, 0, 57, 88
4, 131280, Note_on_c, 0, 62, 88
4, 131520, Note_on_c, 0, 62, 0
4, 131520, Note_on_c, 0, 57, 0
4, 131520, Note_on_c, 0, 53, 0
4, 131520, Note_on_c, 0, 55, 88
4, 131520, Note_on_c, 0, 58, 88
4, 131520, Note_on_c, 0, 62, 88
4, 131543, Note_on_c, 0, 62, 0
4, 131543, Note_on_c, 0, 58, 0
4, 131543, Note_on_c, 0, 55, 0
4, 131880, Note_on_c, 0, 70, 88
4, 132000, Note_on_c, 0, 70, 0
4, 132120, Note_on_c, 0, 67, 88
4, 132240, Note_on_c, 0, 67, 0
4, 132360, Note_on_c, 0, 62, 88
4, 132480, Note_on_c, 0, 62, 0
4, 132600, Note_on_c, 0, 58, 101
4, 132720, Note_on_c, 0, 58, 0
4, 132840, Note_on_c, 0, 55, 101
4, 132960, Note_on_c, 0, 55, 0
4, 133080, Note_on_c, 0, 50, 101
4, 133200, Note_on_c, 0, 50, 0
4, 133320, Note_on_c, 0, 46, 101
4, 133440, Note_on_c, 0, 46, 0
4, 133680, Note_on_c, 0, 52, 101
4, 133680, Note_on_c, 0, 55, 101
4, 133680, Note_on_c, 0, 58, 101
4, 133680, Note_on_c, 0, 62, 101
4, 134160, Note_on_c, 0, 62, 0
4, 134160, Note_on_c, 0, 52, 0
4, 134160, Note_on_c, 0, 55, 0
4, 134160, Note_on_c, 0, 58, 0
4, 134160, Note_on_c, 0, 52, 88
4, 134160, Note_on_c, 0, 55, 88
4, 134160, Note_on_c, 0, 58, 88
4, 134160, Note_on_c, 0, 62, 88
4, 134400, Note_on_c, 0, 62, 0
4, 134400, Note_on_c, 0, 52, 0
4, 134400, Note_on_c, 0, 55, 0
4, 134400, Note_on_c, 0, 58, 0
4, 134640, Note_on_c, 0, 52, 88
4, 134640, Note_on_c, 0, 55, 88
4, 134640, Note_on_c, 0, 61, 88
4, 135120, Note_on_c, 0, 61, 0
4, 135120, Note_on_c, 0, 55, 0
4, 135120, Note_on_c, 0, 52, 0
4, 135120, Note_on_c, 0, 52, 75
4, 135120, Note_on_c, 0, 55, 75
4, 135120, Note_on_c, 0, 61, 75
4, 135360, Note_on_c, 0, 61, 0
4, 135360, Note_on_c, 0, 55, 0
4, 135360, Note_on_c, 0, 52, 0
4, 135600, Note_on_c, 0, 50, 75
4, 135600, Note_on_c, 0, 53, 75
4, 135600, Note_on_c, 0, 62, 75
4, 136080, Note_on_c, 0, 62, 0
4, 136080, Note_on_c, 0, 53, 0
4, 136080, Note_on_c, 0, 50, 0
4, 136080, Note_on_c, 0, 50, 75
4, 136080, Note_on_c, 0, 53, 75
4, 136320, Note_on_c, 0, 53, 0
4, 136320, Note_on_c, 0, 50, 0
4, 136560, Note_on_c, 0, 50, 75
4, 136560, Note_on_c, 0, 55, 75
4, 136560, Note_on_c, 0, 58, 75
4, 136560, Note_on_c, 0, 62, 75
4, 137040, Note_on_c, 0, 62, 0
4, 137040, Note_on_c, 0, 50, 0
4, 137040, Note_on_c, 0, 55, 0
4, 137040, Note_on_c, 0, 58, 0
4, 137040, Note_on_c, 0, 50, 75
4, 137040, Note_on_c, 0, 55, 75
4, 137040, Note_on_c, 0, 58, 75
4, 137280, Note_on_c, 0, 58, 0
4, 137280, Note_on_c, 0, 55, 0
4, 137280, Note_on_c, 0, 50, 0
4, 137520, Note_on_c, 0, 48, 75
4, 137520, Note_on_c, 0, 53, 75
4, 137520, Note_on_c, 0, 57, 75
4, 138000, Note_on_c, 0, 57, 0
4, 138000, Note_on_c, 0, 53, 0
4, 138000, Note_on_c, 0, 48, 0
4, 138000, Note_on_c, 0, 48, 75
4, 138000, Note_on_c, 0, 53, 75
4, 138240, Note_on_c, 0, 53, 0
4, 138240, Note_on_c, 0, 48, 0
4, 138480, Note_on_c, 0, 48, 75
4, 138480, Note_on_c, 0, 53, 75
4, 138480, Note_on_c, 0, 57, 75
4, 138960, Note_on_c, 0, 57, 0
4, 138960, Note_on_c, 0, 53, 0
4, 138960, Note_on_c, 0, 48, 0
4, 138960, Note_on_c, 0, 48, 75
4, 139200, Note_on_c, 0, 48, 0
4, 139440, Note_on_c, 0, 46, 75
4, 139440, Note_on_c, 0, 50, 75
4, 139440, Note_on_c, 0, 55, 75
4, 139920, Note_on_c, 0, 55, 0
4, 139920, Note_on_c, 0, 50, 0
4, 139920, Note_on_c, 0, 46, 0
4, 139920, Note_on_c, 0, 46, 75
4, 139920, Note_on_c, 0, 50, 75
4, 139920, Note_on_c, 0, 55, 75
4, 140160, Note_on_c, 0, 55, 0
4, 140160, Note_on_c, 0, 50, 0
4, 140160, Note_on_c, 0, 46, 0
4, 140400, Note_on_c, 0, 45, 75
4, 140400, Note_on_c, 0, 49, 75
4, 140880, Note_on_c, 0, 49, 0
4, 140880, Note_on_c, 0, 45, 0
4, 140880, Note_on_c, 0, 45, 75
4, 140880, Note_on_c, 0, 49, 75
4, 141120, Note_on_c, 0, 49, 0
4, 141120, Note_on_c, 0, 45, 0
4, 141360, Note_on_c, 0, 45, 75
4, 141360, Note_on_c, 0, 50, 75
4, 141840, Note_on_c, 0, 50, 0
4, 141840, Note_on_c, 0, 45, 0
4, 141840, Note_on_c, 0, 45, 88
4, 141840, Note_on_c, 0, 50, 88
4, 142080, Note_on_c, 0, 45, 0
4, 142080, Note_on_c, 0, 43, 101
4, 142560, Note_on_c, 0, 43, 0
4, 142560, Note_on_c, 0, 45, 88
4, 143040, Note_on_c, 0, 45, 0
4, 143040, Note_on_c, 0, 50, 0
4, 143280, Note_on_c, 0, 53, 101
4, 143280, Note_on_c, 0, 59, 101
4, 143280, Note_on_c, 0, 62, 101
4, 143760, Note_on_c, 0, 62, 0
4, 143760, Note_on_c, 0, 59, 0
4, 143760, Note_on_c, 0, 53, 0
4, 143760, Note_on_c, 0, 53, 88
4, 143760, Note_on_c, 0, 59, 88
4, 143760, Note_on_c, 0, 62, 88
4, 144000, Note_on_c, 0, 62, 0
4, 144000, Note_on_c, 0, 59, 0
4, 144000, Note_on_c, 0, 53, 0
4, 144240, Note_on_c, 0, 53, 88
4, 144240, Note_on_c, 0, 57, 88
4, 144240, Note_on_c, 0, 62, 88
4, 144720, Note_on_c, 0, 62, 0
4, 144720, Note_on_c, 0, 57, 0
4, 144720, Note_on_c, 0, 53, 0
4, 144720, Note_on_c, 0, 52, 88
4, 144720, Note_on_c, 0, 56, 88
4, 144720, Note_on_c, 0, 59, 88
4, 144960, Note_on_c, 0, 59, 0
4, 144960, Note_on_c, 0, 56, 0
4, 144960, Note_on_c, 0, 52, 0
4, 145200, Note_on_c, 0, 52, 88
4, 145200, Note_on_c, 0, 57, 88
4, 145200, Note_on_c, 0, 60, 88
4, 145440, Note_on_c, 0, 60, 0
4, 145440, Note_on_c, 0, 57, 0
4, 145440, Note_on_c, 0, 52, 0
4, 145680, Note_on_c, 0, 52, 75
4, 145680, Note_on_c, 0, 57, 75
4, 145680, Note_on_c, 0, 60, 75
4, 145920, Note_on_c, 0, 60, 0
4, 145920, Note_on_c, 0, 57, 0
4, 145920, Note_on_c, 0, 52, 0
4, 146160, Note_on_c, 0, 52, 75
4, 146160, Note_on_c, 0, 57, 75
4, 146160, Note_on_c, 0, 60, 75
4, 146400, Note_on_c, 0, 60, 0
4, 146400, Note_on_c, 0, 57, 0
4, 146400, Note_on_c, 0, 52, 0
4, 146640, Note_on_c, 0, 52, 62
4, 146640, Note_on_c, 0, 57, 62
4, 146640, Note_on_c, 0, 60, 62
4, 146880, Note_on_c, 0, 60, 0
4, 146880, Note_on_c, 0, 57, 0
4, 146880, Note_on_c, 0, 52, 0
4, 147120, Note_on_c, 0, 53, 101
4, 147120, Note_on_c, 0, 59, 101
4, 147120, Note_on_c, 0, 62, 101
4, 147600, Note_on_c, 0, 62, 0
4, 147600, Note_on_c, 0, 59, 0
4, 147600, Note_on_c, 0, 53, 0
4, 147600, Note_on_c, 0, 53, 88
4, 147600, Note_on_c, 0, 59, 88
4, 147600, Note_on_c, 0, 62, 88
4, 147840, Note_on_c, 0, 62, 0
4, 147840, Note_on_c, 0, 59, 0
4, 147840, Note_on_c, 0, 53, 0
4, 148080, Note_on_c, 0, 53, 88
4, 148080, Note_on_c, 0, 57, 88
4, 148080, Note_on_c, 0, 62, 88
4, 148560, Note_on_c, 0, 62, 0
4, 148560, Note_on_c, 0, 57, 0
4, 148560, Note_on_c, 0, 53, 0
4, 148560, Note_on_c, 0, 52, 88
4, 148560, Note_on_c, 0, 56, 88
4, 148560, Note_on_c, 0, 59, 88
4, 148800, Note_on_c, 0, 59, 0
4, 148800, Note_on_c, 0, 56, 0
4, 148800, Note_on_c, 0, 52, 0
4, 149040, Note_on_c, 0, 52, 88
4, 149040, Note_on_c, 0, 57, 88
4, 149040, Note_on_c, 0, 60, 88
4, 149040, Note_on_c, 0, 64, 88
4, 149280, Note_on_c, 0, 64, 0
4, 149280, Note_on_c, 0, 52, 0
4, 149280, Note_on_c, 0, 57, 0
4, 149280, Note_on_c, 0, 60, 0
4, 149520, Note_on_c, 0, 52, 75
4, 149520, Note_on_c, 0, 57, 75
4, 149520, Note_on_c, 0, 60, 75
4, 149520, Note_on_c, 0, 64, 75
4, 149760, Note_on_c, 0, 64, 0
4, 149760, Note_on_c, 0, 52, 0
4, 149760, Note_on_c, 0, 57, 0
4, 149760, Note_on_c, 0, 60, 0
4, 150000, Note_on_c, 0, 52, 75
4, 150000, Note_on_c, 0, 57, 75
4, 150000, Note_on_c, 0, 60, 75
4, 150240, Note_on_c, 0, 60, 0
4, 150240, Note_on_c, 0, 57, 0
4, 150240, Note_on_c, 0, 52, 0
4, 150480, Note_on_c, 0, 52, 62
4, 150480, Note_on_c, 0, 57, 62
4, 150720, Note_on_c, 0, 57, 0
4, 150720, Note_on_c, 0, 52, 0
4, 150960, Note_on_c, 0, 53, 75
4, 150960, Note_on_c, 0, 57, 75
4, 150960, Note_on_c, 0, 60, 75
4, 151440, Note_on_c, 0, 60, 0
4, 151440, Note_on_c, 0, 57, 0
4, 151440, Note_on_c, 0, 53, 0
4, 151440, Note_on_c, 0, 53, 62
4, 151440, Note_on_c, 0, 57, 62
4, 151440, Note_on_c, 0, 60, 62
4, 151680, Note_on_c, 0, 60, 0
4, 151680, Note_on_c, 0, 57, 0
4, 151680, Note_on_c, 0, 53, 0
4, 151920, Note_on_c, 0, 53, 62
4, 151920, Note_on_c, 0, 56, 62
4, 151920, Note_on_c, 0, 59, 62
4, 152400, Note_on_c, 0, 59, 0
4, 152400, Note_on_c, 0, 56, 0
4, 152400, Note_on_c, 0, 53, 0
4, 152400, Note_on_c, 0, 50, 62
4, 152400, Note_on_c, 0, 56, 62
4, 152400, Note_on_c, 0, 59, 62
4, 152640, Note_on_c, 0, 59, 0
4, 152640, Note_on_c, 0, 56, 0
4, 152640, Note_on_c, 0, 50, 0
4, 152880, Note_on_c, 0, 49, 62
4, 152880, Note_on_c, 0, 52, 62
4, 152880, Note_on_c, 0, 57, 62
4, 153120, Note_on_c, 0, 57, 0
4, 153120, Note_on_c, 0, 52, 0
4, 153120, Note_on_c, 0, 49, 0
4, 153120, Note_on_c, 0, 45, 62
4, 153600, Note_on_c, 0, 45, 0
4, 153840, Note_on_c, 0, 49, 62
4, 153840, Note_on_c, 0, 52, 62
4, 153840, Note_on_c, 0, 57, 62
4, 154080, Note_on_c, 0, 57, 0
4, 154080, Note_on_c, 0, 52, 0
4, 154080, Note_on_c, 0, 49, 0
4, 154080, Note_on_c, 0, 45, 62
4, 154560, Note_on_c, 0, 45, 0
4, 154800, Note_on_c, 0, 53, 75
4, 154800, Note_on_c, 0, 57, 75
4, 154800, Note_on_c, 0, 60, 75
4, 155280, Note_on_c, 0, 60, 0
4, 155280, Note_on_c, 0, 57, 0
4, 155280, Note_on_c, 0, 53, 0
4, 155280, Note_on_c, 0, 53, 62
4, 155280, Note_on_c, 0, 57, 62
4, 155280, Note_on_c, 0, 60, 62
4, 155520, Note_on_c, 0, 60, 0
4, 155520, Note_on_c, 0, 57, 0
4, 155520, Note_on_c, 0, 53, 0
4, 155760, Note_on_c, 0, 53, 62
4, 155760, Note_on_c, 0, 56, 62
4, 155760, Note_on_c, 0, 59, 62
4, 156240, Note_on_c, 0, 59, 0
4, 156240, Note_on_c, 0, 56, 0
4, 156240, Note_on_c, 0, 53, 0
4, 156240, Note_on_c, 0, 50, 62
4, 156240, Note_on_c, 0, 56, 62
4, 156240, Note_on_c, 0, 59, 62
4, 156480, Note_on_c, 0, 59, 0
4, 156480, Note_on_c, 0, 56, 0
4, 156480, Note_on_c, 0, 50, 0
4, 156720, Note_on_c, 0, 49, 62
4, 156720, Note_on_c, 0, 52, 62
4, 156960, Note_on_c, 0, 52, 0
4, 156960, Note_on_c, 0, 49, 0
4, 156960, Note_on_c, 0, 57, 62
4, 156960, Note_on_c, 0, 61, 62
4, 157440, Note_on_c, 0, 61, 0
4, 157440, Note_on_c, 0, 57, 0
4, 157680, Note_on_c, 0, 49, 62
4, 157680, Note_on_c, 0, 52, 62
4, 157920, Note_on_c, 0, 52, 0
4, 157920, Note_on_c, 0, 49, 0
4, 157920, Note_on_c, 0, 57, 62
4, 157920, Note_on_c, 0, 61, 62
4, 158400, Note_on_c, 0, 61, 0
4, 158400, Note_on_c, 0, 57, 0
4, 158640, Note_on_c, 0, 53, 101
4, 158640, Note_on_c, 0, 59, 101
4, 158640, Note_on_c, 0, 62, 101
4, 159120, Note_on_c, 0, 62, 0
4, 159120, Note_on_c, 0, 59, 0
4, 159120, Note_on_c, 0, 53, 0
4, 159120, Note_on_c, 0, 53, 88
4, 159120, Note_on_c, 0, 59, 88
4, 159120, Note_on_c, 0, 62, 88
4, 159360, Note_on_c, 0, 62, 0
4, 159360, Note_on_c, 0, 59, 0
4, 159360, Note_on_c, 0, 53, 0
4, 159600, Note_on_c, 0, 53, 88
4, 159600, Note_on_c, 0, 57, 88
4, 159600, Note_on_c, 0, 62, 88
4, 160080, Note_on_c, 0, 62, 0
4, 160080, Note_on_c, 0, 57, 0
4, 160080, Note_on_c, 0, 53, 0
4, 160080, Note_on_c, 0, 52, 88
4, 160080, Note_on_c, 0, 56, 88
4, 160080, Note_on_c, 0, 59, 88
4, 160320, Note_on_c, 0, 59, 0
4, 160320, Note_on_c, 0, 56, 0
4, 160320, Note_on_c, 0, 52, 0
4, 160560, Note_on_c, 0, 52, 88
4, 160560, Note_on_c, 0, 57, 88
4, 160560, Note_on_c, 0, 60, 88
4, 160800, Note_on_c, 0, 60, 0
4, 160800, Note_on_c, 0, 57, 0
4, 160800, Note_on_c, 0, 52, 0
4, 161040, Note_on_c, 0, 52, 75
4, 161040, Note_on_c, 0, 57, 75
4, 161040, Note_on_c, 0, 60, 75
4, 161280, Note_on_c, 0, 60, 0
4, 161280, Note_on_c, 0, 57, 0
4, 161280, Note_on_c, 0, 52, 0
4, 161520, Note_on_c, 0, 52, 75
4, 161520, Note_on_c, 0, 57, 75
4, 161520, Note_on_c, 0, 60, 75
4, 161760, Note_on_c, 0, 60, 0
4, 161760, Note_on_c, 0, 57, 0
4, 161760, Note_on_c, 0, 52, 0
4, 162000, Note_on_c, 0, 52, 62
4, 162000, Note_on_c, 0, 57, 62
4, 162000, Note_on_c, 0, 60, 62
4, 162240, Note_on_c, 0, 60, 0
4, 162240, Note_on_c, 0, 57, 0
4, 162240, Note_on_c, 0, 52, 0
4, 162480, Note_on_c, 0, 53, 101
4, 162480, Note_on_c, 0, 59, 101
4, 162480, Note_on_c, 0, 62, 101
4, 162960, Note_on_c, 0, 62, 0
4, 162960, Note_on_c, 0, 59, 0
4, 162960, Note_on_c, 0, 53, 0
4, 162960, Note_on_c, 0, 53, 88
4, 162960, Note_on_c, 0, 59, 88
4, 162960, Note_on_c, 0, 62, 88
4, 163200, Note_on_c, 0, 62, 0
4, 163200, Note_on_c, 0, 59, 0
4, 163200, Note_on_c, 0, 53, 0
4, 163440, Note_on_c, 0, 53, 88
4, 163440, Note_on_c, 0, 57, 88
4, 163440, Note_on_c, 0, 62, 88
4, 163920, Note_on_c, 0, 62, 0
4, 163920, Note_on_c, 0, 57, 0
4, 163920, Note_on_c, 0, 53, 0
4, 163920, Note_on_c, 0, 52, 88
4, 163920, Note_on_c, 0, 56, 88
4, 163920, Note_on_c, 0, 59, 88
4, 164160, Note_on_c, 0, 59, 0
4, 164160, Note_on_c, 0, 56, 0
4, 164160, Note_on_c, 0, 52, 0
4, 164400, Note_on_c, 0, 52, 88
4, 164400, Note_on_c, 0, 57, 88
4, 164400, Note_on_c, 0, 60, 88
4, 164400, Note_on_c, 0, 64, 88
4, 164640, Note_on_c, 0, 64, 0
4, 164640, Note_on_c, 0, 52, 0
4, 164640, Note_on_c, 0, 57, 0
4, 164640, Note_on_c, 0, 60, 0
4, 164880, Note_on_c, 0, 52, 75
4, 164880, Note_on_c, 0, 57, 75
4, 164880, Note_on_c, 0, 60, 75
4, 164880, Note_on_c, 0, 64, 75
4, 165120, Note_on_c, 0, 64, 0
4, 165120, Note_on_c, 0, 52, 0
4, 165120, Note_on_c, 0, 57, 0
4, 165120, Note_on_c, 0, 60, 0
4, 165360, Note_on_c, 0, 52, 75
4, 165360, Note_on_c, 0, 57, 75
4, 165360, Note_on_c, 0, 60, 75
4, 165600, Note_on_c, 0, 60, 0
4, 165600, Note_on_c, 0, 57, 0
4, 165600, Note_on_c, 0, 52, 0
4, 165840, Note_on_c, 0, 52, 62
4, 165840, Note_on_c, 0, 57, 62
4, 166080, Note_on_c, 0, 57, 0
4, 166080, Note_on_c, 0, 52, 0
4, 166320, Note_on_c, 0, 53, 75
4, 166320, Note_on_c, 0, 57, 75
4, 166320, Note_on_c, 0, 60, 75
4, 166800, Note_on_c, 0, 60, 0
4, 166800, Note_on_c, 0, 57, 0
4, 166800, Note_on_c, 0, 53, 0
4, 166800, Note_on_c, 0, 53, 62
4, 166800, Note_on_c, 0, 57, 62
4, 166800, Note_on_c, 0, 60, 62
4, 167040, Note_on_c, 0, 60, 0
4, 167040, Note_on_c, 0, 57, 0
4, 167040, Note_on_c, 0, 53, 0
4, 167280, Note_on_c, 0, 53, 62
4, 167280, Note_on_c, 0, 56, 62
4, 167280, Note_on_c, 0, 59, 62
4, 167760, Note_on_c, 0, 59, 0
4, 167760, Note_on_c, 0, 56, 0
4, 167760, Note_on_c, 0, 53, 0
4, 167760, Note_on_c, 0, 50, 62
4, 167760, Note_on_c, 0, 56, 62
4, 167760, Note_on_c, 0, 59, 62
4, 168000, Note_on_c, 0, 59, 0
4, 168000, Note_on_c, 0, 56, 0
4, 168000, Note_on_c, 0, 50, 0
4, 168240, Note_on_c, 0, 49, 62
4, 168240, Note_on_c, 0, 52, 62
4, 168240, Note_on_c, 0, 57, 62
4, 168480, Note_on_c, 0, 57, 0
4, 168480, Note_on_c, 0, 52, 0
4, 168480, Note_on_c, 0, 49, 0
4, 168480, Note_on_c, 0, 45, 62
4, 168960, Note_on_c, 0, 45, 0
4, 169200, Note_on_c, 0, 49, 62
4, 169200, Note_on_c, 0, 52, 62
4, 169200, Note_on_c, 0, 57, 62
4, 169440, Note_on_c, 0, 57, 0
4, 169440, Note_on_c, 0, 52, 0
4, 169440, Note_on_c, 0, 49, 0
4, 169440, Note_on_c, 0, 45, 62
4, 169920, Note_on_c, 0, 45, 0
4, 170160, Note_on_c, 0, 53, 75
4, 170160, Note_on_c, 0, 57, 75
4, 170160, Note_on_c, 0, 60, 75
4, 170640, Note_on_c, 0, 60, 0
4, 170640, Note_on_c, 0, 57, 0
4, 170640, Note_on_c, 0, 53, 0
4, 170640, Note_on_c, 0, 53, 62
4, 170640, Note_on_c, 0, 57, 62
4, 170640, Note_on_c, 0, 60, 62
4, 170880, Note_on_c, 0, 60, 0
4, 170880, Note_on_c, 0, 57, 0
4, 170880, Note_on_c, 0, 53, 0
4, 171120, Note_on_c, 0, 53, 62
4, 171120, Note_on_c, 0, 56, 62
4, 171120, Note_on_c, 0, 59, 62
4, 171600, Note_on_c, 0, 59, 0
4, 171600, Note_on_c, 0, 56, 0
4, 171600, Note_on_c, 0, 53, 0
4, 171600, Note_on_c, 0, 50, 62
4, 171600, Note_on_c, 0, 56, 62
4, 171600, Note_on_c, 0, 59, 62
4, 171840, Note_on_c, 0, 59, 0
4, 171840, Note_on_c, 0, 56, 0
4, 171840, Note_on_c, 0, 50, 0
4, 172080, Note_on_c, 0, 49, 62
4, 172080, Note_on_c, 0, 52, 62
4, 172320, Note_on_c, 0, 52, 0
4, 172320, Note_on_c, 0, 49, 0
4, 172320, Note_on_c, 0, 57, 62
4, 172320, Note_on_c, 0, 61, 62
4, 172800, Note_on_c, 0, 61, 0
4, 172800, Note_on_c, 0, 57, 0
4, 173040, Note_on_c, 0, 49, 62
4, 173040, Note_on_c, 0, 52, 62
4, 173280, Note_on_c, 0, 52, 0
4, 173280, Note_on_c, 0, 49, 0
4, 173280, Note_on_c, 0, 57, 62
4, 173280, Note_on_c, 0, 61, 62
4, 173760, Note_on_c, 0, 61, 0
4, 173760, Note_on_c, 0, 57, 0
4, 173760, Note_on_c, 0, 52, 114
4, 173760, Note_on_c, 0, 57, 114
4, 173760, Note_on_c, 0, 61, 114
4, 173783, Note_on_c, 0, 61, 0
4, 173783, Note_on_c, 0, 57, 0
4, 173783, Note_on_c, 0, 52, 0
4, 174120, Note_on_c, 0, 67, 88
4, 174240, Note_on_c, 0, 67, 0
4, 174360, Note_on_c, 0, 64, 88
4, 174480, Note_on_c, 0, 64, 0
4, 174600, Note_on_c, 0, 61, 88
4, 174720, Note_on_c, 0, 61, 0
4, 174840, Note_on_c, 0, 57, 101
4, 174960, Note_on_c, 0, 57, 0
4, 175080, Note_on_c, 0, 55, 101
4, 175200, Note_on_c, 0, 55, 0
4, 175320, Note_on_c, 0, 52, 101
4, 175440, Note_on_c, 0, 52, 0
4, 175560, Note_on_c, 0, 49, 101
4, 175680, Note_on_c, 0, 49, 0
4, 175920, Note_on_c, 0, 53, 101
4, 175920, Note_on_c, 0, 57, 101
4, 175920, Note_on_c, 0, 62, 101
4, 175920, Note_on_c, 0, 65, 101
4, 176400, Note_on_c, 0, 65, 0
4, 176400, Note_on_c, 0, 53, 0
4, 176400, Note_on_c, 0, 57, 0
4, 176400, Note_on_c, 0, 62, 0
4, 176400, Note_on_c, 0, 53, 88
4, 176400, Note_on_c, 0, 57, 88
4, 176400, Note_on_c, 0, 62, 88
4, 176400, Note_on_c, 0, 65, 88
4, 176640, Note_on_c, 0, 65, 0
4, 176640, Note_on_c, 0, 53, 0
4, 176640, Note_on_c, 0, 57, 0
4, 176640, Note_on_c, 0, 62, 0
4, 176880, Note_on_c, 0, 53, 88
4, 176880, Note_on_c, 0, 57, 88
4, 176880, Note_on_c, 0, 62, 88
4, 177360, Note_on_c, 0, 62, 0
4, 177360, Note_on_c, 0, 57, 0
4, 177360, Note_on_c, 0, 53, 0
4, 177360, Note_on_c, 0, 53, 88
4, 177360, Note_on_c, 0, 57, 88
4, 177360, Note_on_c, 0, 62, 88
4, 177600, Note_on_c, 0, 62, 0
4, 177600, Note_on_c, 0, 57, 0
4, 177600, Note_on_c, 0, 53, 0
4, 177600, Note_on_c, 0, 55, 88
4, 177600, Note_on_c, 0, 58, 88
4, 177600, Note_on_c, 0, 62, 88
4, 177623, Note_on_c, 0, 62, 0
4, 177623, Note_on_c, 0, 58, 0
4, 177623, Note_on_c, 0, 55, 0
4, 177960, Note_on_c, 0, 70, 88
4, 178080, Note_on_c, 0, 70, 0
4, 178200, Note_on_c, 0, 67, 88
4, 178320, Note_on_c, 0, 67, 0
4, 178440, Note_on_c, 0, 62, 88
4, 178560, Note_on_c, 0, 62, 0
4, 178680, Note_on_c, 0, 58, 101
4, 178800, Note_on_c, 0, 58, 0
4, 178920, Note_on_c, 0, 55, 101
4, 179040, Note_on_c, 0, 55, 0
4, 179160, Note_on_c, 0, 50, 101
4, 179280, Note_on_c, 0, 50, 0
4, 179400, Note_on_c, 0, 46, 101
4, 179520, Note_on_c, 0, 46, 0
4, 179760, Note_on_c, 0, 52, 101
4, 179760, Note_on_c, 0, 55, 101
4, 179760, Note_on_c, 0, 58, 101
4, 179760, Note_on_c, 0, 62, 101
4, 180240, Note_on_c, 0, 62, 0
4, 180240, Note_on_c, 0, 52, 0
4, 180240, Note_on_c, 0, 55, 0
4, 180240, Note_on_c, 0, 58, 0
4, 180240, Note_on_c, 0, 52, 88
4, 180240, Note_on_c, 0, 55, 88
4, 180240, Note_on_c, 0, 58, 88
4, 180240, Note_on_c, 0, 62, 88
4, 180480, Note_on_c, 0, 62, 0
4, 180480, Note_on_c, 0, 52, 0
4, 180480, Note_on_c, 0, 55, 0
4, 180480, Note_on_c, 0, 58, 0
4, 180720, Note_on_c, 0, 52, 88
4, 180720, Note_on_c, 0, 55, 88
4, 180720, Note_on_c, 0, 61, 88
4, 181200, Note_on_c, 0, 61, 0
4, 181200, Note_on_c, 0, 55, 0
4, 181200, Note_on_c, 0, 52, 0
4, 181200, Note_on_c, 0, 52, 75
4, 181200, Note_on_c, 0, 55, 75
4, 181200, Note_on_c, 0, 61, 75
4, 181440, Note_on_c, 0, 61, 0
4, 181440, Note_on_c, 0, 55, 0
4, 181440, Note_on_c, 0, 52, 0
4, 181680, Note_on_c, 0, 50, 75
4, 181680, Note_on_c, 0, 53, 75
4, 181680, Note_on_c, 0, 62, 75
4, 182160, Note_on_c, 0, 62, 0
4, 182160, Note_on_c, 0, 53, 0
4, 182160, Note_on_c, 0, 50, 0
4, 182160, Note_on_c, 0, 50, 75
4, 182160, Note_on_c, 0, 53, 75
4, 182400, Note_on_c, 0, 53, 0
4, 182400, Note_on_c, 0, 50, 0
4, 182640, Note_on_c, 0, 50, 75
4, 182640, Note_on_c, 0, 55, 75
4, 182640, Note_on_c, 0, 58, 75
4, 182640, Note_on_c, 0, 62, 75
4, 183120, Note_on_c, 0, 62, 0
4, 183120, Note_on_c, 0, 50, 0
4, 183120, Note_on_c, 0, 55, 0
4, 183120, Note_on_c, 0, 58, 0
4, 183120, Note_on_c, 0, 50, 75
4, 183120, Note_on_c, 0, 55, 75
4, 183120, Note_on_c, 0, 58, 75
4, 183360, Note_on_c, 0, 58, 0
4, 183360, Note_on_c, 0, 55, 0
4, 183360, Note_on_c, 0, 50, 0
4, 183600, Note_on_c, 0, 48, 75
4, 183600, Note_on_c, 0, 53, 75
4, 183600, Note_on_c, 0, 57, 75
4, 184080, Note_on_c, 0, 57, 0
4, 184080, Note_on_c, 0, 53, 0
4, 184080, Note_on_c, 0, 48, 0
4, 184080, Note_on_c, 0, 48, 75
4, 184080, Note_on_c, 0, 53, 75
4, 184320, Note_on_c, 0, 53, 0
4, 184320, Note_on_c, 0, 48, 0
4, 184560, Note_on_c, 0, 48, 75
4, 184560, Note_on_c, 0, 53, 75
4, 184560, Note_on_c, 0, 57, 75
4, 185040, Note_on_c, 0, 57, 0
4, 185040, Note_on_c, 0, 53, 0
4, 185040, Note_on_c, 0, 48, 0
4, 185040, Note_on_c, 0, 48, 75
4, 185280, Note_on_c, 0, 48, 0
4, 185520, Note_on_c, 0, 46, 75
4, 185520, Note_on_c, 0, 50, 75
4, 185520, Note_on_c, 0, 55, 75
4, 186000, Note_on_c, 0, 55, 0
4, 186000, Note_on_c, 0, 50, 0
4, 186000, Note_on_c, 0, 46, 0
4, 186000, Note_on_c, 0, 46, 75
4, 186000, Note_on_c, 0, 50, 75
4, 186240, Note_on_c, 0, 50, 0
4, 186240, Note_on_c, 0, 46, 0
4, 186480, Note_on_c, 0, 46, 88
4, 186480, Note_on_c, 0, 50, 88
4, 186960, Note_on_c, 0, 50, 0
4, 186960, Note_on_c, 0, 46, 0
4, 186960, Note_on_c, 0, 46, 75
4, 186960, Note_on_c, 0, 50, 75
4, 187200, Note_on_c, 0, 50, 0
4, 187200, Note_on_c, 0, 46, 0
4, 187440, Note_on_c, 0, 44, 75
4, 187440, Note_on_c, 0, 50, 75
4, 187920, Note_on_c, 0, 50, 0
4, 187920, Note_on_c, 0, 44, 0
4, 187920, Note_on_c, 0, 44, 88
4, 187920, Note_on_c, 0, 50, 88
4, 188160, Note_on_c, 0, 50, 0
4, 188160, Note_on_c, 0, 44, 0
4, 188400, Note_on_c, 0, 47, 88
4, 188400, Note_on_c, 0, 50, 88
4, 188880, Note_on_c, 0, 50, 0
4, 188880, Note_on_c, 0, 47, 0
4, 188880, Note_on_c, 0, 47, 75
4, 188880, Note_on_c, 0, 50, 75
4, 189120, Note_on_c, 0, 50, 0
4, 189120, Note_on_c, 0, 47, 0
4, 189120, Note_on_c, 0, 57, 88
4, 189120, Note_on_c, 0, 61, 88
4, 189120, Note_on_c, 0, 65, 88
4, 189720, Note_on_c, 0, 65, 0
4, 189720, Note_on_c, 0, 61, 0
4, 189720, Note_on_c, 0, 57, 0
4, 189720, Note_on_c, 0, 55, 88
4, 189720, Note_on_c, 0, 61, 88
4, 189720, Note_on_c, 0, 64, 88
4, 189840, Note_on_c, 0, 64, 0
4, 189840, Note_on_c, 0, 61, 0
4, 189840, Note_on_c, 0, 55, 0
4, 189840, Note_on_c, 0, 57, 88
4, 189840, Note_on_c, 0, 61, 88
4, 189840, Note_on_c, 0, 65, 88
4, 189960, Note_on_c, 0, 65, 0
4, 189960, Note_on_c, 0, 61, 0
4, 189960, Note_on_c, 0, 57, 0
4, 189960, Note_on_c, 0, 58, 88
4, 189960, Note_on_c, 0, 61, 88
4, 189960, Note_on_c, 0, 67, 88
4, 190080, Note_on_c, 0, 67, 0
4, 190080, Note_on_c, 0, 61, 0
4, 190080, Note_on_c, 0, 58, 0
4, 190080, Note_on_c, 0, 57, 88
4, 190080, Note_on_c, 0, 61, 88
4, 190080, Note_on_c, 0, 65, 88
4, 190560, Note_on_c, 0, 65, 0
4, 190560, Note_on_c, 0, 61, 0
4, 190560, Note_on_c, 0, 57, 0
4, 190560, Note_on_c, 0, 55, 88
4, 190560, Note_on_c, 0, 61, 88
4, 190560, Note_on_c, 0, 64, 88
4, 191040, Note_on_c, 0, 64, 0
4, 191040, Note_on_c, 0, 61, 0
4, 191040, Note_on_c, 0, 55, 0
4, 191040, Note_on_c, 0, 53, 88
4, 191040, Note_on_c, 0, 62, 88
4, 191280, Note_on_c, 0, 62, 0
4, 191280, Note_on_c, 0, 53, 0
4, 191280, Note_on_c, 0, 56, 114
4, 191280, Note_on_c, 0, 68, 114
4, 191760, Note_on_c, 0, 68, 0
4, 191760, Note_on_c, 0, 56, 0
4, 191760, Control_c, 0, 64, 127
4, 191760, Note_on_c, 0, 65, 101
4, 192000, Note_on_c, 0, 65, 0
4, 192000, Note_on_c, 0, 62, 101
4, 192240, Note_on_c, 0, 62, 0
4, 192240, Note_on_c, 0, 59, 101
4, 192480, Note_on_c, 0, 59, 0
4, 192480, Note_on_c, 0, 56, 101
4, 192720, Note_on_c, 0, 56, 0
4, 192720, Control_c, 0, 64, 0
4, 192720, Note_on_c, 0, 53, 101
4, 192960, Note_on_c, 0, 53, 0
4, 192960, Note_on_c, 0, 50, 127
4, 192960, Note_on_c, 0, 53, 127
4, 192960, Note_on_c, 0, 57, 127
4, 192960, Note_on_c, 0, 62, 127
4, 192983, Note_on_c, 0, 62, 0
4, 192983, Note_on_c, 0, 50, 0
4, 192983, Note_on_c, 0, 53, 0
4, 192983, Note_on_c, 0, 57, 0
4, 192983, End_track
5, 0, Start_track
5, 0, Title_t, "Instrument19"
5, 0, Program_c, 0, 0
5, 0, Control_c, 0, 7, 110
5, 0, Control_c, 0, 10, 30
5, 0, Note_on_c, 0, 33, 114
5, 0, Note_on_c, 0, 45, 114
5, 23, Note_on_c, 0, 45, 0
5, 23, Note_on_c, 0, 33, 0
5, 240, Note_on_c, 0, 55, 88
5, 480, Note_on_c, 0, 55, 0
5, 480, Note_on_c, 0, 52, 88
5, 720, Note_on_c, 0, 52, 0
5, 720, Note_on_c, 0, 49, 88
5, 960, Note_on_c, 0, 49, 0
5, 960, Note_on_c, 0, 45, 101
5, 1200, Note_on_c, 0, 45, 0
5, 1200, Note_on_c, 0, 43, 101
5, 1440, Note_on_c, 0, 43, 0
5, 1440, Note_on_c, 0, 40, 101
5, 1680, Note_on_c, 0, 40, 0
5, 1680, Note_on_c, 0, 37, 101
5, 1920, Note_on_c, 0, 37, 0
5, 1920, Note_on_c, 0, 26, 101
5, 1920, Note_on_c, 0, 38, 101
5, 2880, Note_on_c, 0, 38, 0
5, 2880, Note_on_c, 0, 26, 0
5, 2880, Note_on_c, 0, 29, 88
5, 2880, Note_on_c, 0, 41, 88
5, 3360, Note_on_c, 0, 41, 0
5, 3360, Note_on_c, 0, 29, 0
5, 3840, Note_on_c, 0, 34, 88
5, 3840, Note_on_c, 0, 46, 88
5, 3863, Note_on_c, 0, 46, 0
5, 3863, Note_on_c, 0, 34, 0
5, 4080, Note_on_c, 0, 58, 88
5, 4320, Note_on_c, 0, 58, 0
5, 4320, Note_on_c, 0, 55, 88
5, 4560, Note_on_c, 0, 55, 0
5, 4560, Note_on_c, 0, 50, 88
5, 4800, Note_on_c, 0, 50, 0
5, 4800, Note_on_c, 0, 46, 101
5, 5040, Note_on_c, 0, 46, 0
5, 5040, Note_on_c, 0, 43, 101
5, 5280, Note_on_c, 0, 43, 0
5, 5280, Note_on_c, 0, 38, 101
5, 5520, Note_on_c, 0, 38, 0
5, 5520, Note_on_c, 0, 34, 101
5, 5760, Note_on_c, 0, 34, 0
5, 5760, Note_on_c, 0, 28, 101
5, 5760, Note_on_c, 0, 40, 101
5, 6720, Note_on_c, 0, 40, 0
5, 6720, Note_on_c, 0, 28, 0
5, 6720, Note_on_c, 0, 33, 75
5, 6720, Note_on_c, 0, 45, 75
5, 7680, Note_on_c, 0, 45, 0
5, 7680, Note_on_c, 0, 33, 0
5, 7680, Note_on_c, 0, 34, 62
5, 7680, Note_on_c, 0, 46, 62
5, 8640, Note_on_c, 0, 46, 0
5, 8640, Note_on_c, 0, 34, 0
5, 8640, Note_on_c, 0, 31, 62
5, 8640, Note_on_c, 0, 43, 62
5, 9600, Note_on_c, 0, 43, 0
5, 9600, Note_on_c, 0, 31, 0
5, 9600, Note_on_c, 0, 33, 62
5, 9600, Note_on_c, 0, 45, 62
5, 10560, Note_on_c, 0, 45, 0
5, 10560, Note_on_c, 0, 33, 0
5, 10560, Note_on_c, 0, 29, 62
5, 10560, Note_on_c, 0, 41, 62
5, 11520, Note_on_c, 0, 41, 0
5, 11520, Note_on_c, 0, 29, 0
5, 11520, Note_on_c, 0, 31, 88
5, 11520, Note_on_c, 0, 43, 88
5, 12480, Note_on_c, 0, 43, 0
5, 12480, Note_on_c, 0, 31, 0
5, 12480, Note_on_c, 0, 33, 62
5, 13440, Note_on_c, 0, 33, 0
5, 13440, Note_on_c, 0, 26, 62
5, 13440, Note_on_c, 0, 38, 62
5, 14400, Note_on_c, 0, 38, 0
5, 14400, Note_on_c, 0, 26, 0
5, 14400, Note_on_c, 0, 38, 75
5, 15360, Note_on_c, 0, 38, 0
5, 15360, Note_on_c, 0, 33, 114
5, 15360, Note_on_c, 0, 45, 114
5, 15383, Note_on_c, 0, 45, 0
5, 15383, Note_on_c, 0, 33, 0
5, 15600, Note_on_c, 0, 55, 88
5, 15840, Note_on_c, 0, 55, 0
5, 15840, Note_on_c, 0, 52, 88
5, 16080, Note_on_c, 0, 52, 0
5, 16080, Note_on_c, 0, 49, 88
5, 16320, Note_on_c, 0, 49, 0
5, 16320, Note_on_c, 0, 45, 101
5, 16560, Note_on_c, 0, 45, 0
5, 16560, Note_on_c, 0, 43, 101
5, 16800, Note_on_c, 0, 43, 0
5, 16800, Note_on_c, 0, 40, 101
5, 17040, Note_on_c, 0, 40, 0
5, 17040, Note_on_c, 0, 37, 101
5, 17280, Note_on_c, 0, 37, 0
5, 17280, Note_on_c, 0, 26, 101
5, 17280, Note_on_c, 0, 38, 101
5, 18240, Note_on_c, 0, 38, 0
5, 18240, Note_on_c, 0, 26, 0
5, 18240, Note_on_c, 0, 29, 88
5, 18240, Note_on_c, 0, 41, 88
5, 18720, Note_on_c, 0, 41, 0
5, 18720, Note_on_c, 0, 29, 0
5, 19200, Note_on_c, 0, 34, 88
5, 19200, Note_on_c, 0, 46, 88
5, 19223, Note_on_c, 0, 46, 0
5, 19223, Note_on_c, 0, 34, 0
5, 19440, Note_on_c, 0, 58, 88
5, 19680, Note_on_c, 0, 58, 0
5, 19680, Note_on_c, 0, 55, 88
5, 19920, Note_on_c, 0, 55, 0
5, 19920, Note_on_c, 0, 50, 88
5, 20160, Note_on_c, 0, 50, 0
5, 20160, Note_on_c, 0, 46, 101
5, 20400, Note_on_c, 0, 46, 0
5, 20400, Note_on_c, 0, 43, 101
5, 20640, Note_on_c, 0, 43, 0
5, 20640, Note_on_c, 0, 38, 101
5, 20880, Note_on_c, 0, 38, 0
5, 20880, Note_on_c, 0, 34, 101
5, 21120, Note_on_c, 0, 34, 0
5, 21120, Note_on_c, 0, 28, 101
5, 21120, Note_on_c, 0, 40, 101
5, 22080, Note_on_c, 0, 40, 0
5, 22080, Note_on_c, 0, 28, 0
5, 22080, Note_on_c, 0, 33, 75
5, 22080, Note_on_c, 0, 45, 75
5, 23040, Note_on_c, 0, 45, 0
5, 23040, Note_on_c, 0, 33, 0
5, 23040, Note_on_c, 0, 34, 62
5, 23040, Note_on_c, 0, 46, 62
5, 24000, Note_on_c, 0, 46, 0
5, 24000, Note_on_c, 0, 34, 0
5, 24000, Note_on_c, 0, 31, 62
5, 24000, Note_on_c, 0, 43, 62
5, 24960, Note_on_c, 0, 43, 0
5, 24960, Note_on_c, 0, 31, 0
5, 24960, Note_on_c, 0, 33, 62
5, 24960, Note_on_c, 0, 45, 62
5, 25920, Note_on_c, 0, 45, 0
5, 25920, Note_on_c, 0, 33, 0
5, 25920, Note_on_c, 0, 29, 62
5, 25920, Note_on_c, 0, 41, 62
5, 26880, Note_on_c, 0, 41, 0
5, 26880, Note_on_c, 0, 29, 0
5, 26880, Note_on_c, 0, 31, 88
5, 26880, Note_on_c, 0, 43, 88
5, 27840, Note_on_c, 0, 43, 0
5, 27840, Note_on_c, 0, 31, 0
5, 27840, Note_on_c, 0, 33, 62
5, 28800, Note_on_c, 0, 33, 0
5, 28800, Note_on_c, 0, 26, 62
5, 28800, Note_on_c, 0, 38, 62
5, 29760, Note_on_c, 0, 38, 0
5, 29760, Note_on_c, 0, 26, 0
5, 29760, Note_on_c, 0, 38, 75
5, 30720, Note_on_c, 0, 38, 0
5, 30720, Note_on_c, 0, 38, 88
5, 30720, Note_on_c, 0, 50, 88
5, 31680, Note_on_c, 0, 50, 0
5, 31680, Note_on_c, 0, 38, 0
5, 31680, Note_on_c, 0, 35, 88
5, 31680, Note_on_c, 0, 47, 88
5, 31727, Note_on_c, 0, 47, 0
5, 31727, Note_on_c, 0, 35, 0
5, 32160, Note_on_c, 0, 40, 88
5, 32160, Note_on_c, 0, 52, 88
5, 32207, Note_on_c, 0, 52, 0
5, 32207, Note_on_c, 0, 40, 0
5, 32640, Note_on_c, 0, 33, 88
5, 32640, Note_on_c, 0, 45, 88
5, 32687, Note_on_c, 0, 45, 0
5, 32687, Note_on_c, 0, 33, 0
5, 33120, Note_on_c, 0, 36, 75
5, 33120, Note_on_c, 0, 48, 75
5, 33167, Note_on_c, 0, 48, 0
5, 33167, Note_on_c, 0, 36, 0
5, 33600, Note_on_c, 0, 40, 75
5, 33647, Note_on_c, 0, 40, 0
5, 34080, Note_on_c, 0, 45, 62
5, 34127, Note_on_c, 0, 45, 0
5, 34560, Note_on_c, 0, 38, 88
5, 34560, Note_on_c, 0, 50, 88
5, 35520, Note_on_c, 0, 50, 0
5, 35520, Note_on_c, 0, 38, 0
5, 35520, Note_on_c, 0, 35, 88
5, 35520, Note_on_c, 0, 47, 88
5, 35567, Note_on_c, 0, 47, 0
5, 35567, Note_on_c, 0, 35, 0
5, 36000, Note_on_c, 0, 40, 88
5, 36000, Note_on_c, 0, 52, 88
5, 36047, Note_on_c, 0, 52, 0
5, 36047, Note_on_c, 0, 40, 0
5, 36480, Note_on_c, 0, 33, 88
5, 36480, Note_on_c, 0, 45, 88
5, 36527, Note_on_c, 0, 45, 0
5, 36527, Note_on_c, 0, 33, 0
5, 36960, Note_on_c, 0, 35, 75
5, 36960, Note_on_c, 0, 47, 75
5, 37007, Note_on_c, 0, 47, 0
5, 37007, Note_on_c, 0, 35, 0
5, 37440, Note_on_c, 0, 36, 75
5, 37440, Note_on_c, 0, 48, 75
5, 37487, Note_on_c, 0, 48, 0
5, 37487, Note_on_c, 0, 36, 0
5, 37920, Note_on_c, 0, 40, 62
5, 37920, Note_on_c, 0, 52, 62
5, 37967, Note_on_c, 0, 52, 0
5, 37967, Note_on_c, 0, 40, 0
5, 38320, Note_on_c, 0, 41, 62
5, 38360, Note_on_c, 0, 48, 62
5, 38400, Note_on_c, 0, 51, 62
5, 39360, Note_on_c, 0, 51, 0
5, 39360, Note_on_c, 0, 48, 0
5, 39360, Note_on_c, 0, 41, 0
5, 39360, Note_on_c, 0, 41, 62
5, 39360, Note_on_c, 0, 47, 62
5, 39360, Note_on_c, 0, 50, 62
5, 39840, Note_on_c, 0, 50, 0
5, 39840, Note_on_c, 0, 47, 0
5, 39840, Note_on_c, 0, 41, 0
5, 39840, Note_on_c, 0, 38, 62
5, 40320, Note_on_c, 0, 38, 0
5, 40320, Note_on_c, 0, 33, 62
5, 41280, Note_on_c, 0, 33, 0
5, 41280, Note_on_c, 0, 33, 62
5, 42160, Note_on_c, 0, 41, 62
5, 42200, Note_on_c, 0, 48, 62
5, 42240, Note_on_c, 0, 33, 0
5, 42240, Note_on_c, 0, 51, 62
5, 43200, Note_on_c, 0, 51, 0
5, 43200, Note_on_c, 0, 48, 0
5, 43200, Note_on_c, 0, 41, 0
5, 43200, Note_on_c, 0, 41, 62
5, 43200, Note_on_c, 0, 47, 62
5, 43200, Note_on_c, 0, 50, 62
5, 43680, Note_on_c, 0, 50, 0
5, 43680, Note_on_c, 0, 47, 0
5, 43680, Note_on_c, 0, 41, 0
5, 43680, Note_on_c, 0, 38, 62
5, 44160, Note_on_c, 0, 38, 0
5, 44160, Note_on_c, 0, 33, 62
5, 44160, Note_on_c, 0, 45, 62
5, 45120, Note_on_c, 0, 45, 0
5, 45120, Note_on_c, 0, 33, 0
5, 45120, Note_on_c, 0, 33, 62
5, 45120, Note_on_c, 0, 45, 62
5, 46080, Note_on_c, 0, 45, 0
5, 46080, Note_on_c, 0, 33, 0
5, 46080, Note_on_c, 0, 38, 88
5, 46080, Note_on_c, 0, 50, 88
5, 47040, Note_on_c, 0, 50, 0
5, 47040, Note_on_c, 0, 38, 0
5, 47040, Note_on_c, 0, 35, 88
5, 47040, Note_on_c, 0, 47, 88
5, 47087, Note_on_c, 0, 47, 0
5, 47087, Note_on_c, 0, 35, 0
5, 47520, Note_on_c, 0, 40, 88
5, 47520, Note_on_c, 0, 52, 88
5, 47567, Note_on_c, 0, 52, 0
5, 47567, Note_on_c, 0, 40, 0
5, 48000, Note_on_c, 0, 33, 88
5, 48000, Note_on_c, 0, 45, 88
5, 48047, Note_on_c, 0, 45, 0
5, 48047, Note_on_c, 0, 33, 0
5, 48480, Note_on_c, 0, 36, 75
5, 48480, Note_on_c, 0, 48, 75
5, 48527, Note_on_c, 0, 48, 0
5, 48527, Note_on_c, 0, 36, 0
5, 48960, Note_on_c, 0, 40, 75
5, 49007, Note_on_c, 0, 40, 0
5, 49440, Note_on_c, 0, 45, 62
5, 49487, Note_on_c, 0, 45, 0
5, 49920, Note_on_c, 0, 38, 88
5, 49920, Note_on_c, 0, 50, 88
5, 50880, Note_on_c, 0, 50, 0
5, 50880, Note_on_c, 0, 38, 0
5, 50880, Note_on_c, 0, 35, 88
5, 50880, Note_on_c, 0, 47, 88
5, 50927, Note_on_c, 0, 47, 0
5, 50927, Note_on_c, 0, 35, 0
5, 51360, Note_on_c, 0, 40, 88
5, 51360, Note_on_c, 0, 52, 88
5, 51407, Note_on_c, 0, 52, 0
5, 51407, Note_on_c, 0, 40, 0
5, 51840, Note_on_c, 0, 33, 88
5, 51840, Note_on_c, 0, 45, 88
5, 51887, Note_on_c, 0, 45, 0
5, 51887, Note_on_c, 0, 33, 0
5, 52320, Note_on_c, 0, 35, 75
5, 52320, Note_on_c, 0, 47, 75
5, 52367, Note_on_c, 0, 47, 0
5, 52367, Note_on_c, 0, 35, 0
5, 52800, Note_on_c, 0, 36, 75
5, 52800, Note_on_c, 0, 48, 75
5, 52847, Note_on_c, 0, 48, 0
5, 52847, Note_on_c, 0, 36, 0
5, 53280, Note_on_c, 0, 40, 62
5, 53280, Note_on_c, 0, 52, 62
5, 53327, Note_on_c, 0, 52, 0
5, 53327, Note_on_c, 0, 40, 0
5, 53680, Note_on_c, 0, 41, 62
5, 53720, Note_on_c, 0, 48, 62
5, 53760, Note_on_c, 0, 51, 62
5, 54720, Note_on_c, 0, 51, 0
5, 54720, Note_on_c, 0, 48, 0
5, 54720, Note_on_c, 0, 41, 0
5, 54720, Note_on_c, 0, 41, 62
5, 54720, Note_on_c, 0, 47, 62
5, 54720, Note_on_c, 0, 50, 62
5, 55200, Note_on_c, 0, 50, 0
5, 55200, Note_on_c, 0, 47, 0
5, 55200, Note_on_c, 0, 41, 0
5, 55200, Note_on_c, 0, 38, 62
5, 55680, Note_on_c, 0, 38, 0
5, 55680, Note_on_c, 0, 33, 62
5, 56640, Note_on_c, 0, 33, 0
5, 56640, Note_on_c, 0, 33, 62
5, 57520, Note_on_c, 0, 41, 62
5, 57560, Note_on_c, 0, 48, 62
5, 57600, Note_on_c, 0, 33, 0
5, 57600, Note_on_c, 0, 51, 62
5, 58560, Note_on_c, 0, 51, 0
5, 58560, Note_on_c, 0, 48, 0
5, 58560, Note_on_c, 0, 41, 0
5, 58560, Note_on_c, 0, 41, 62
5, 58560, Note_on_c, 0, 47, 62
5, 58560, Note_on_c, 0, 50, 62
5, 59040, Note_on_c, 0, 50, 0
5, 59040, Note_on_c, 0, 47, 0
5, 59040, Note_on_c, 0, 41, 0
5, 59040, Note_on_c, 0, 38, 62
5, 59520, Note_on_c, 0, 38, 0
5, 59520, Note_on_c, 0, 33, 62
5, 59520, Note_on_c, 0, 45, 62
5, 60480, Note_on_c, 0, 45, 0
5, 60480, Note_on_c, 0, 33, 0
5, 60480, Note_on_c, 0, 33, 62
5, 60480, Note_on_c, 0, 45, 62
5, 61440, Note_on_c, 0, 45, 0
5, 61440, Note_on_c, 0, 33, 0
5, 61440, Note_on_c, 0, 33, 114
5, 61440, Note_on_c, 0, 45, 114
5, 61463, Note_on_c, 0, 45, 0
5, 61463, Note_on_c, 0, 33, 0
5, 61680, Note_on_c, 0, 55, 88
5, 61920, Note_on_c, 0, 55, 0
5, 61920, Note_on_c, 0, 52, 88
5, 62160, Note_on_c, 0, 52, 0
5, 62160, Note_on_c, 0, 49, 88
5, 62400, Note_on_c, 0, 49, 0
5, 62400, Note_on_c, 0, 45, 101
5, 62640, Note_on_c, 0, 45, 0
5, 62640, Note_on_c, 0, 43, 101
5, 62880, Note_on_c, 0, 43, 0
5, 62880, Note_on_c, 0, 40, 101
5, 63120, Note_on_c, 0, 40, 0
5, 63120, Note_on_c, 0, 37, 101
5, 63360, Note_on_c, 0, 37, 0
5, 63360, Note_on_c, 0, 26, 101
5, 63360, Note_on_c, 0, 38, 101
5, 64320, Note_on_c, 0, 38, 0
5, 64320, Note_on_c, 0, 26, 0
5, 64320, Note_on_c, 0, 29, 88
5, 64320, Note_on_c, 0, 41, 88
5, 65280, Note_on_c, 0, 41, 0
5, 65280, Note_on_c, 0, 29, 0
5, 65280, Note_on_c, 0, 34, 88
5, 65280, Note_on_c, 0, 46, 88
5, 65303, Note_on_c, 0, 46, 0
5, 65303, Note_on_c, 0, 34, 0
5, 65520, Note_on_c, 0, 58, 88
5, 65760, Note_on_c, 0, 58, 0
5, 65760, Note_on_c, 0, 55, 88
5, 66000, Note_on_c, 0, 55, 0
5, 66000, Note_on_c, 0, 50, 88
5, 66240, Note_on_c, 0, 50, 0
5, 66240, Note_on_c, 0, 46, 101
5, 66480, Note_on_c, 0, 46, 0
5, 66480, Note_on_c, 0, 43, 101
5, 66720, Note_on_c, 0, 43, 0
5, 66720, Note_on_c, 0, 38, 101
5, 66960, Note_on_c, 0, 38, 0
5, 66960, Note_on_c, 0, 34, 101
5, 67200, Note_on_c, 0, 34, 0
5, 67200, Note_on_c, 0, 28, 101
5, 67200, Note_on_c, 0, 40, 101
5, 68160, Note_on_c, 0, 40, 0
5, 68160, Note_on_c, 0, 28, 0
5, 68160, Note_on_c, 0, 33, 75
5, 68160, Note_on_c, 0, 45, 75
5, 69120, Note_on_c, 0, 45, 0
5, 69120, Note_on_c, 0, 33, 0
5, 69120, Note_on_c, 0, 34, 62
5, 69120, Note_on_c, 0, 46, 62
5, 70080, Note_on_c, 0, 46, 0
5, 70080, Note_on_c, 0, 34, 0
5, 70080, Note_on_c, 0, 31, 62
5, 70080, Note_on_c, 0, 43, 62
5, 71040, Note_on_c, 0, 43, 0
5, 71040, Note_on_c, 0, 31, 0
5, 71040, Note_on_c, 0, 33, 62
5, 71040, Note_on_c, 0, 45, 62
5, 72000, Note_on_c, 0, 45, 0
5, 72000, Note_on_c, 0, 33, 0
5, 72000, Note_on_c, 0, 29, 62
5, 72000, Note_on_c, 0, 41, 62
5, 72960, Note_on_c, 0, 41, 0
5, 72960, Note_on_c, 0, 29, 0
5, 72960, Note_on_c, 0, 31, 88
5, 72960, Note_on_c, 0, 43, 88
5, 73920, Note_on_c, 0, 43, 0
5, 73920, Note_on_c, 0, 31, 0
5, 73920, Note_on_c, 0, 33, 62
5, 74880, Note_on_c, 0, 33, 0
5, 74880, Note_on_c, 0, 26, 62
5, 74880, Note_on_c, 0, 38, 62
5, 75840, Note_on_c, 0, 38, 0
5, 75840, Note_on_c, 0, 26, 0
5, 75840, Note_on_c, 0, 38, 75
5, 77280, Note_on_c, 0, 38, 0
5, 77280, Note_on_c, 0, 26, 101
5, 77520, Note_on_c, 0, 26, 0
5, 77520, Note_on_c, 0, 38, 75
5, 77543, Note_on_c, 0, 38, 0
5, 78000, Note_on_c, 0, 54, 75
5, 78023, Note_on_c, 0, 54, 0
5, 78480, Note_on_c, 0, 50, 75
5, 78503, Note_on_c, 0, 50, 0
5, 78960, Note_on_c, 0, 38, 75
5, 78983, Note_on_c, 0, 38, 0
5, 79200, Note_on_c, 0, 31, 101
5, 79440, Note_on_c, 0, 31, 0
5, 79440, Note_on_c, 0, 43, 75
5, 79463, Note_on_c, 0, 43, 0
5, 79920, Note_on_c, 0, 55, 75
5, 79943, Note_on_c, 0, 55, 0
5, 80400, Note_on_c, 0, 50, 75
5, 80423, Note_on_c, 0, 50, 0
5, 80880, Note_on_c, 0, 43, 75
5, 80903, Note_on_c, 0, 43, 0
5, 81120, Note_on_c, 0, 33, 101
5, 81360, Note_on_c, 0, 33, 0
5, 81360, Note_on_c, 0, 45, 75
5, 81383, Note_on_c, 0, 45, 0
5, 81840, Note_on_c, 0, 55, 75
5, 81863, Note_on_c, 0, 55, 0
5, 82320, Note_on_c, 0, 52, 75
5, 82343, Note_on_c, 0, 52, 0
5, 82800, Note_on_c, 0, 45, 75
5, 82823, Note_on_c, 0, 45, 0
5, 83040, Note_on_c, 0, 38, 88
5, 83040, Note_on_c, 0, 50, 88
5, 83520, Note_on_c, 0, 50, 0
5, 83520, Note_on_c, 0, 38, 0
5, 83520, Note_on_c, 0, 37, 88
5, 83520, Note_on_c, 0, 49, 88
5, 83543, Note_on_c, 0, 49, 0
5, 83543, Note_on_c, 0, 37, 0
5, 83760, Note_on_c, 0, 35, 88
5, 83760, Note_on_c, 0, 47, 88
5, 83783, Note_on_c, 0, 47, 0
5, 83783, Note_on_c, 0, 35, 0
5, 84000, Note_on_c, 0, 33, 88
5, 84000, Note_on_c, 0, 45, 88
5, 84023, Note_on_c, 0, 45, 0
5, 84023, Note_on_c, 0, 33, 0
5, 84240, Note_on_c, 0, 31, 88
5, 84240, Note_on_c, 0, 43, 88
5, 84263, Note_on_c, 0, 43, 0
5, 84263, Note_on_c, 0, 31, 0
5, 84480, Note_on_c, 0, 30, 88
5, 84480, Note_on_c, 0, 42, 88
5, 84960, Note_on_c, 0, 42, 0
5, 84960, Note_on_c, 0, 30, 0
5, 84960, Note_on_c, 0, 43, 88
5, 85440, Note_on_c, 0, 43, 0
5, 85440, Note_on_c, 0, 42, 88
5, 85463, Note_on_c, 0, 42, 0
5, 85680, Note_on_c, 0, 40, 88
5, 85703, Note_on_c, 0, 40, 0
5, 85920, Note_on_c, 0, 38, 88
5, 85943, Note_on_c, 0, 38, 0
5, 86160, Note_on_c, 0, 37, 88
5, 86183, Note_on_c, 0, 37, 0
5, 86400, Note_on_c, 0, 35, 88
5, 86880, Note_on_c, 0, 35, 0
5, 86880, Note_on_c, 0, 33, 75
5, 87120, Note_on_c, 0, 33, 0
5, 87120, Note_on_c, 0, 45, 49
5, 87143, Note_on_c, 0, 45, 0
5, 87600, Note_on_c, 0, 49, 49
5, 87623, Note_on_c, 0, 49, 0
5, 87840, Note_on_c, 0, 33, 75
5, 88080, Note_on_c, 0, 33, 0
5, 88080, Note_on_c, 0, 45, 49
5, 88103, Note_on_c, 0, 45, 0
5, 88560, Note_on_c, 0, 42, 49
5, 88583, Note_on_c, 0, 42, 0
5, 88800, Note_on_c, 0, 33, 49
5, 88823, Note_on_c, 0, 33, 0
5, 89040, Note_on_c, 0, 45, 49
5, 89063, Note_on_c, 0, 45, 0
5, 89280, Note_on_c, 0, 33, 49
5, 89303, Note_on_c, 0, 33, 0
5, 89520, Note_on_c, 0, 45, 49
5, 89543, Note_on_c, 0, 45, 0
5, 89760, Note_on_c, 0, 38, 49
5, 90000, Note_on_c, 0, 38, 0
5, 90240, Note_on_c, 0, 38, 49
5, 90480, Note_on_c, 0, 38, 0
5, 90720, Note_on_c, 0, 26, 75
5, 90960, Note_on_c, 0, 26, 0
5, 90960, Note_on_c, 0, 38, 49
5, 91200, Note_on_c, 0, 38, 0
5, 91440, Note_on_c, 0, 50, 49
5, 91463, Note_on_c, 0, 50, 0
5, 91920, Note_on_c, 0, 45, 49
5, 91943, Note_on_c, 0, 45, 0
5, 92400, Note_on_c, 0, 38, 49
5, 92423, Note_on_c, 0, 38, 0
5, 92640, Note_on_c, 0, 31, 88
5, 92880, Note_on_c, 0, 31, 0
5, 92880, Note_on_c, 0, 43, 62
5, 93120, Note_on_c, 0, 43, 0
5, 93360, Note_on_c, 0, 52, 62
5, 93383, Note_on_c, 0, 52, 0
5, 93840, Note_on_c, 0, 47, 62
5, 93863, Note_on_c, 0, 47, 0
5, 94320, Note_on_c, 0, 43, 62
5, 94343, Note_on_c, 0, 43, 0
5, 94560, Note_on_c, 0, 33, 101
5, 94800, Note_on_c, 0, 33, 0
5, 94800, Note_on_c, 0, 45, 75
5, 95040, Note_on_c, 0, 45, 0
5, 95280, Note_on_c, 0, 55, 75
5, 95303, Note_on_c, 0, 55, 0
5, 95760, Note_on_c, 0, 52, 75
5, 95783, Note_on_c, 0, 52, 0
5, 96240, Note_on_c, 0, 45, 75
5, 96263, Note_on_c, 0, 45, 0
5, 96480, Note_on_c, 0, 38, 114
5, 96480, Note_on_c, 0, 50, 114
5, 96960, Note_on_c, 0, 50, 0
5, 96960, Note_on_c, 0, 38, 0
5, 96960, Note_on_c, 0, 37, 88
5, 96960, Note_on_c, 0, 49, 88
5, 96983, Note_on_c, 0, 49, 0
5, 96983, Note_on_c, 0, 37, 0
5, 97200, Note_on_c, 0, 35, 88
5, 97200, Note_on_c, 0, 47, 88
5, 97223, Note_on_c, 0, 47, 0
5, 97223, Note_on_c, 0, 35, 0
5, 97440, Note_on_c, 0, 33, 88
5, 97440, Note_on_c, 0, 45, 88
5, 97463, Note_on_c, 0, 45, 0
5, 97463, Note_on_c, 0, 33, 0
5, 97680, Note_on_c, 0, 31, 88
5, 97680, Note_on_c, 0, 43, 88
5, 97703, Note_on_c, 0, 43, 0
5, 97703, Note_on_c, 0, 31, 0
5, 97920, Note_on_c, 0, 30, 88
5, 97920, Note_on_c, 0, 42, 88
5, 98400, Note_on_c, 0, 42, 0
5, 98400, Note_on_c, 0, 30, 0
5, 98400, Note_on_c, 0, 43, 114
5, 98880, Note_on_c, 0, 43, 0
5, 98880, Note_on_c, 0, 42, 88
5, 98903, Note_on_c, 0, 42, 0
5, 99120, Note_on_c, 0, 40, 88
5, 99143, Note_on_c, 0, 40, 0
5, 99360, Note_on_c, 0, 38, 88
5, 99383, Note_on_c, 0, 38, 0
5, 99600, Note_on_c, 0, 37, 88
5, 99623, Note_on_c, 0, 37, 0
5, 99840, Note_on_c, 0, 35, 88
5, 100320, Note_on_c, 0, 35, 0
5, 100320, Note_on_c, 0, 33, 75
5, 100560, Note_on_c, 0, 33, 0
5, 100560, Note_on_c, 0, 45, 49
5, 100583, Note_on_c, 0, 45, 0
5, 101040, Note_on_c, 0, 49, 49
5, 101063, Note_on_c, 0, 49, 0
5, 101280, Note_on_c, 0, 33, 75
5, 101520, Note_on_c, 0, 33, 0
5, 101520, Note_on_c, 0, 45, 49
5, 101760, Note_on_c, 0, 45, 0
5, 102000, Note_on_c, 0, 42, 49
5, 102023, Note_on_c, 0, 42, 0
5, 102240, Note_on_c, 0, 33, 49
5, 102263, Note_on_c, 0, 33, 0
5, 102480, Note_on_c, 0, 45, 49
5, 102503, Note_on_c, 0, 45, 0
5, 102720, Note_on_c, 0, 33, 49
5, 102743, Note_on_c, 0, 33, 0
5, 102960, Note_on_c, 0, 45, 49
5, 102983, Note_on_c, 0, 45, 0
5, 103200, Note_on_c, 0, 38, 49
5, 103440, Note_on_c, 0, 38, 0
5, 103680, Note_on_c, 0, 38, 49
5, 103920, Note_on_c, 0, 38, 0
5, 104160, Note_on_c, 0, 38, 114
5, 104160, Note_on_c, 0, 50, 114
5, 104640, Note_on_c, 0, 50, 0
5, 104640, Note_on_c, 0, 38, 0
5, 104640, Note_on_c, 0, 37, 88
5, 104640, Note_on_c, 0, 49, 88
5, 104663, Note_on_c, 0, 49, 0
5, 104663, Note_on_c, 0, 37, 0
5, 104880, Note_on_c, 0, 35, 88
5, 104880, Note_on_c, 0, 47, 88
5, 104903, Note_on_c, 0, 47, 0
5, 104903, Note_on_c, 0, 35, 0
5, 105120, Note_on_c, 0, 33, 88
5, 105120, Note_on_c, 0, 45, 88
5, 105143, Note_on_c, 0, 45, 0
5, 105143, Note_on_c, 0, 33, 0
5, 105360, Note_on_c, 0, 31, 88
5, 105360, Note_on_c, 0, 43, 88
5, 105383, Note_on_c, 0, 43, 0
5, 105383, Note_on_c, 0, 31, 0
5, 105600, Note_on_c, 0, 30, 88
5, 105600, Note_on_c, 0, 42, 88
5, 106080, Note_on_c, 0, 42, 0
5, 106080, Note_on_c, 0, 30, 0
5, 106080, Note_on_c, 0, 43, 114
5, 106560, Note_on_c, 0, 43, 0
5, 106560, Note_on_c, 0, 42, 88
5, 106583, Note_on_c, 0, 42, 0
5, 106800, Note_on_c, 0, 40, 88
5, 106823, Note_on_c, 0, 40, 0
5, 107040, Note_on_c, 0, 38, 88
5, 107063, Note_on_c, 0, 38, 0
5, 107280, Note_on_c, 0, 37, 88
5, 107303, Note_on_c, 0, 37, 0
5, 107520, Note_on_c, 0, 35, 88
5, 108000, Note_on_c, 0, 35, 0
5, 108000, Note_on_c, 0, 33, 75
5, 108240, Note_on_c, 0, 33, 0
5, 108240, Note_on_c, 0, 45, 49
5, 108480, Note_on_c, 0, 45, 0
5, 108720, Note_on_c, 0, 49, 49
5, 108743, Note_on_c, 0, 49, 0
5, 108960, Note_on_c, 0, 33, 75
5, 109200, Note_on_c, 0, 33, 0
5, 109200, Note_on_c, 0, 45, 49
5, 109440, Note_on_c, 0, 45, 0
5, 109680, Note_on_c, 0, 50, 49
5, 109703, Note_on_c, 0, 50, 0
5, 109920, Note_on_c, 0, 33, 49
5, 109943, Note_on_c, 0, 33, 0
5, 110160, Note_on_c, 0, 45, 49
5, 110183, Note_on_c, 0, 45, 0
5, 110400, Note_on_c, 0, 33, 49
5, 110423, Note_on_c, 0, 33, 0
5, 110640, Note_on_c, 0, 45, 49
5, 110663, Note_on_c, 0, 45, 0
5, 110880, Note_on_c, 0, 38, 49
5, 110903, Note_on_c, 0, 38, 0
5, 111280, Note_on_c, 0, 38, 49
5, 111320, Note_on_c, 0, 45, 49
5, 111360, Note_on_c, 0, 50, 49
5, 111383, Note_on_c, 0, 50, 0
5, 111383, Note_on_c, 0, 45, 0
5, 111383, Note_on_c, 0, 38, 0
5, 112320, Note_on_c, 0, 33, 114
5, 112320, Note_on_c, 0, 45, 114
5, 112343, Note_on_c, 0, 45, 0
5, 112343, Note_on_c, 0, 33, 0
5, 112560, Note_on_c, 0, 55, 88
5, 112800, Note_on_c, 0, 55, 0
5, 112800, Note_on_c, 0, 52, 88
5, 113040, Note_on_c, 0, 52, 0
5, 113040, Note_on_c, 0, 49, 88
5, 113280, Note_on_c, 0, 49, 0
5, 113280, Note_on_c, 0, 45, 101
5, 113520, Note_on_c, 0, 45, 0
5, 113520, Note_on_c, 0, 43, 101
5, 113760, Note_on_c, 0, 43, 0
5, 113760, Note_on_c, 0, 40, 101
5, 114000, Note_on_c, 0, 40, 0
5, 114000, Note_on_c, 0, 37, 101
5, 114240, Note_on_c, 0, 37, 0
5, 114240, Note_on_c, 0, 26, 101
5, 114240, Note_on_c, 0, 38, 101
5, 115200, Note_on_c, 0, 38, 0
5, 115200, Note_on_c, 0, 26, 0
5, 115200, Note_on_c, 0, 29, 88
5, 115200, Note_on_c, 0, 41, 88
5, 115680, Note_on_c, 0, 41, 0
5, 115680, Note_on_c, 0, 29, 0
5, 116160, Note_on_c, 0, 34, 88
5, 116160, Note_on_c, 0, 46, 88
5, 116183, Note_on_c, 0, 46, 0
5, 116183, Note_on_c, 0, 34, 0
5, 116400, Note_on_c, 0, 58, 88
5, 116640, Note_on_c, 0, 58, 0
5, 116640, Note_on_c, 0, 55, 88
5, 116880, Note_on_c, 0, 55, 0
5, 116880, Note_on_c, 0, 50, 88
5, 117120, Note_on_c, 0, 50, 0
5, 117120, Note_on_c, 0, 46, 101
5, 117360, Note_on_c, 0, 46, 0
5, 117360, Note_on_c, 0, 43, 101
5, 117600, Note_on_c, 0, 43, 0
5, 117600, Note_on_c, 0, 38, 101
5, 117840, Note_on_c, 0, 38, 0
5, 117840, Note_on_c, 0, 34, 101
5, 118080, Note_on_c, 0, 34, 0
5, 118080, Note_on_c, 0, 28, 101
5, 118080, Note_on_c, 0, 40, 101
5, 119040, Note_on_c, 0, 40, 0
5, 119040, Note_on_c, 0, 28, 0
5, 119040, Note_on_c, 0, 33, 75
5, 119040, Note_on_c, 0, 45, 75
5, 120000, Note_on_c, 0, 45, 0
5, 120000, Note_on_c, 0, 33, 0
5, 120000, Note_on_c, 0, 34, 62
5, 120000, Note_on_c, 0, 46, 62
5, 120960, Note_on_c, 0, 46, 0
5, 120960, Note_on_c, 0, 34, 0
5, 120960, Note_on_c, 0, 31, 62
5, 120960, Note_on_c, 0, 43, 62
5, 121920, Note_on_c, 0, 43, 0
5, 121920, Note_on_c, 0, 31, 0
5, 121920, Note_on_c, 0, 33, 62
5, 121920, Note_on_c, 0, 45, 62
5, 122880, Note_on_c, 0, 45, 0
5, 122880, Note_on_c, 0, 33, 0
5, 122880, Note_on_c, 0, 29, 62
5, 122880, Note_on_c, 0, 41, 62
5, 123840, Note_on_c, 0, 41, 0
5, 123840, Note_on_c, 0, 29, 0
5, 123840, Note_on_c, 0, 31, 88
5, 123840, Note_on_c, 0, 43, 88
5, 124800, Note_on_c, 0, 43, 0
5, 124800, Note_on_c, 0, 31, 0
5, 124800, Note_on_c, 0, 33, 62
5, 125760, Note_on_c, 0, 33, 0
5, 125760, Note_on_c, 0, 26, 62
5, 125760, Note_on_c, 0, 38, 62
5, 126720, Note_on_c, 0, 38, 0
5, 126720, Note_on_c, 0, 26, 0
5, 126720, Note_on_c, 0, 38, 75
5, 127680, Note_on_c, 0, 38, 0
5, 127680, Note_on_c, 0, 33, 114
5, 127680, Note_on_c, 0, 45, 114
5, 127703, Note_on_c, 0, 45, 0
5, 127703, Note_on_c, 0, 33, 0
5, 127920, Note_on_c, 0, 55, 88
5, 128160, Note_on_c, 0, 55, 0
5, 128160, Note_on_c, 0, 52, 88
5, 128400, Note_on_c, 0, 52, 0
5, 128400, Note_on_c, 0, 49, 88
5, 128640, Note_on_c, 0, 49, 0
5, 128640, Note_on_c, 0, 45, 101
5, 128880, Note_on_c, 0, 45, 0
5, 128880, Note_on_c, 0, 43, 101
5, 129120, Note_on_c, 0, 43, 0
5, 129120, Note_on_c, 0, 40, 101
5, 129360, Note_on_c, 0, 40, 0
5, 129360, Note_on_c, 0, 37, 101
5, 129600, Note_on_c, 0, 37, 0
5, 129600, Note_on_c, 0, 26, 101
5, 129600, Note_on_c, 0, 38, 101
5, 130560, Note_on_c, 0, 38, 0
5, 130560, Note_on_c, 0, 26, 0
5, 130560, Note_on_c, 0, 29, 88
5, 130560, Note_on_c, 0, 41, 88
5, 131040, Note_on_c, 0, 41, 0
5, 131040, Note_on_c, 0, 29, 0
5, 131520, Note_on_c, 0, 34, 88
5, 131520, Note_on_c, 0, 46, 88
5, 131543, Note_on_c, 0, 46, 0
5, 131543, Note_on_c, 0, 34, 0
5, 131760, Note_on_c, 0, 58, 88
5, 132000, Note_on_c, 0, 58, 0
5, 132000, Note_on_c, 0, 55, 88
5, 132240, Note_on_c, 0, 55, 0
5, 132240, Note_on_c, 0, 50, 88
5, 132480, Note_on_c, 0, 50, 0
5, 132480, Note_on_c, 0, 46, 101
5, 132720, Note_on_c, 0, 46, 0
5, 132720, Note_on_c, 0, 43, 101
5, 132960, Note_on_c, 0, 43, 0
5, 132960, Note_on_c, 0, 38, 101
5, 133200, Note_on_c, 0, 38, 0
5, 133200, Note_on_c, 0, 34, 101
5, 133440, Note_on_c, 0, 34, 0
5, 133440, Note_on_c, 0, 28, 101
5, 133440, Note_on_c, 0, 40, 101
5, 134400, Note_on_c, 0, 40, 0
5, 134400, Note_on_c, 0, 28, 0
5, 134400, Note_on_c, 0, 33, 75
5, 134400, Note_on_c, 0, 45, 75
5, 135360, Note_on_c, 0, 45, 0
5, 135360, Note_on_c, 0, 33, 0
5, 135360, Note_on_c, 0, 34, 62
5, 135360, Note_on_c, 0, 46, 62
5, 136320, Note_on_c, 0, 46, 0
5, 136320, Note_on_c, 0, 34, 0
5, 136320, Note_on_c, 0, 31, 62
5, 136320, Note_on_c, 0, 43, 62
5, 137280, Note_on_c, 0, 43, 0
5, 137280, Note_on_c, 0, 31, 0
5, 137280, Note_on_c, 0, 33, 62
5, 137280, Note_on_c, 0, 45, 62
5, 138240, Note_on_c, 0, 45, 0
5, 138240, Note_on_c, 0, 33, 0
5, 138240, Note_on_c, 0, 29, 62
5, 138240, Note_on_c, 0, 41, 62
5, 139200, Note_on_c, 0, 41, 0
5, 139200, Note_on_c, 0, 29, 0
5, 139200, Note_on_c, 0, 31, 88
5, 139200, Note_on_c, 0, 43, 88
5, 140160, Note_on_c, 0, 43, 0
5, 140160, Note_on_c, 0, 31, 0
5, 140160, Note_on_c, 0, 33, 62
5, 141120, Note_on_c, 0, 33, 0
5, 141120, Note_on_c, 0, 26, 62
5, 141120, Note_on_c, 0, 38, 62
5, 142080, Note_on_c, 0, 38, 0
5, 142080, Note_on_c, 0, 26, 0
5, 142080, Note_on_c, 0, 38, 75
5, 143040, Note_on_c, 0, 38, 0
5, 143040, Note_on_c, 0, 38, 88
5, 143040, Note_on_c, 0, 50, 88
5, 144000, Note_on_c, 0, 50, 0
5, 144000, Note_on_c, 0, 38, 0
5, 144000, Note_on_c, 0, 35, 88
5, 144000, Note_on_c, 0, 47, 88
5, 144047, Note_on_c, 0, 47, 0
5, 144047, Note_on_c, 0, 35, 0
5, 144480, Note_on_c, 0, 40, 88
5, 144480, Note_on_c, 0, 52, 88
5, 144527, Note_on_c, 0, 52, 0
5, 144527, Note_on_c, 0, 40, 0
5, 144960, Note_on_c, 0, 33, 88
5, 144960, Note_on_c, 0, 45, 88
5, 145007, Note_on_c, 0, 45, 0
5, 145007, Note_on_c, 0, 33, 0
5, 145440, Note_on_c, 0, 36, 75
5, 145440, Note_on_c, 0, 48, 75
5, 145487, Note_on_c, 0, 48, 0
5, 145487, Note_on_c, 0, 36, 0
5, 145920, Note_on_c, 0, 40, 75
5, 145967, Note_on_c, 0, 40, 0
5, 146400, Note_on_c, 0, 45, 62
5, 146447, Note_on_c, 0, 45, 0
5, 146880, Note_on_c, 0, 38, 88
5, 146880, Note_on_c, 0, 50, 88
5, 147840, Note_on_c, 0, 50, 0
5, 147840, Note_on_c, 0, 38, 0
5, 147840, Note_on_c, 0, 35, 88
5, 147840, Note_on_c, 0, 47, 88
5, 147887, Note_on_c, 0, 47, 0
5, 147887, Note_on_c, 0, 35, 0
5, 148320, Note_on_c, 0, 40, 88
5, 148320, Note_on_c, 0, 52, 88
5, 148367, Note_on_c, 0, 52, 0
5, 148367, Note_on_c, 0, 40, 0
5, 148800, Note_on_c, 0, 33, 88
5, 148800, Note_on_c, 0, 45, 88
5, 148847, Note_on_c, 0, 45, 0
5, 148847, Note_on_c, 0, 33, 0
5, 149280, Note_on_c, 0, 35, 75
5, 149280, Note_on_c, 0, 47, 75
5, 149327, Note_on_c, 0, 47, 0
5, 149327, Note_on_c, 0, 35, 0
5, 149760, Note_on_c, 0, 36, 75
5, 149760, Note_on_c, 0, 48, 75
5, 149807, Note_on_c, 0, 48, 0
5, 149807, Note_on_c, 0, 36, 0
5, 150240, Note_on_c, 0, 40, 62
5, 150240, Note_on_c, 0, 52, 62
5, 150287, Note_on_c, 0, 52, 0
5, 150287, Note_on_c, 0, 40, 0
5, 150640, Note_on_c, 0, 41, 62
5, 150680, Note_on_c, 0, 48, 62
5, 150720, Note_on_c, 0, 51, 62
5, 151680, Note_on_c, 0, 51, 0
5, 151680, Note_on_c, 0, 48, 0
5, 151680, Note_on_c, 0, 41, 0
5, 151680, Note_on_c, 0, 41, 62
5, 151680, Note_on_c, 0, 47, 62
5, 151680, Note_on_c, 0, 50, 62
5, 152160, Note_on_c, 0, 50, 0
5, 152160, Note_on_c, 0, 47, 0
5, 152160, Note_on_c, 0, 41, 0
5, 152160, Note_on_c, 0, 38, 62
5, 152640, Note_on_c, 0, 38, 0
5, 152640, Note_on_c, 0, 33, 62
5, 153600, Note_on_c, 0, 33, 0
5, 153600, Note_on_c, 0, 33, 62
5, 154480, Note_on_c, 0, 41, 62
5, 154520, Note_on_c, 0, 48, 62
5, 154560, Note_on_c, 0, 33, 0
5, 154560, Note_on_c, 0, 51, 62
5, 155520, Note_on_c, 0, 51, 0
5, 155520, Note_on_c, 0, 48, 0
5, 155520, Note_on_c, 0, 41, 0
5, 155520, Note_on_c, 0, 41, 62
5, 155520, Note_on_c, 0, 47, 62
5, 155520, Note_on_c, 0, 50, 62
5, 156000, Note_on_c, 0, 50, 0
5, 156000, Note_on_c, 0, 47, 0
5, 156000, Note_on_c, 0, 41, 0
5, 156000, Note_on_c, 0, 38, 62
5, 156480, Note_on_c, 0, 38, 0
5, 156480, Note_on_c, 0, 33, 62
5, 156480, Note_on_c, 0, 45, 62
5, 157440, Note_on_c, 0, 45, 0
5, 157440, Note_on_c, 0, 33, 0
5, 157440, Note_on_c, 0, 33, 62
5, 157440, Note_on_c, 0, 45, 62
5, 158400, Note_on_c, 0, 45, 0
5, 158400, Note_on_c, 0, 33, 0
5, 158400, Note_on_c, 0, 38, 88
5, 158400, Note_on_c, 0, 50, 88
5, 159360, Note_on_c, 0, 50, 0
5, 159360, Note_on_c, 0, 38, 0
5, 159360, Note_on_c, 0, 35, 88
5, 159360, Note_on_c, 0, 47, 88
5, 159407, Note_on_c, 0, 47, 0
5, 159407, Note_on_c, 0, 35, 0
5, 159840, Note_on_c, 0, 40, 88
5, 159840, Note_on_c, 0, 52, 88
5, 159887, Note_on_c, 0, 52, 0
5, 159887, Note_on_c, 0, 40, 0
5, 160320, Note_on_c, 0, 33, 88
5, 160320, Note_on_c, 0, 45, 88
5, 160367, Note_on_c, 0, 45, 0
5, 160367, Note_on_c, 0, 33, 0
5, 160800, Note_on_c, 0, 36, 75
5, 160800, Note_on_c, 0, 48, 75
5, 160847, Note_on_c, 0, 48, 0
5, 160847, Note_on_c, 0, 36, 0
5, 161280, Note_on_c, 0, 40, 75
5, 161327, Note_on_c, 0, 40, 0
5, 161760, Note_on_c, 0, 45, 62
5, 161807, Note_on_c, 0, 45, 0
5, 162240, Note_on_c, 0, 38, 88
5, 162240, Note_on_c, 0, 50, 88
5, 163200, Note_on_c, 0, 50, 0
5, 163200, Note_on_c, 0, 38, 0
5, 163200, Note_on_c, 0, 35, 88
5, 163200, Note_on_c, 0, 47, 88
5, 163247, Note_on_c, 0, 47, 0
5, 163247, Note_on_c, 0, 35, 0
5, 163680, Note_on_c, 0, 40, 88
5, 163680, Note_on_c, 0, 52, 88
5, 163727, Note_on_c, 0, 52, 0
5, 163727, Note_on_c, 0, 40, 0
5, 164160, Note_on_c, 0, 33, 88
5, 164160, Note_on_c, 0, 45, 88
5, 164207, Note_on_c, 0, 45, 0
5, 164207, Note_on_c, 0, 33, 0
5, 164640, Note_on_c, 0, 35, 75
5, 164640, Note_on_c, 0, 47, 75
5, 164687, Note_on_c, 0, 47, 0
5, 164687, Note_on_c, 0, 35, 0
5, 165120, Note_on_c, 0, 36, 75
5, 165120, Note_on_c, 0, 48, 75
5, 165167, Note_on_c, 0, 48, 0
5, 165167, Note_on_c, 0, 36, 0
5, 165600, Note_on_c, 0, 40, 62
5, 165600, Note_on_c, 0, 52, 62
5, 165647, Note_on_c, 0, 52, 0
5, 165647, Note_on_c, 0, 40, 0
5, 166000, Note_on_c, 0, 41, 62
5, 166040, Note_on_c, 0, 48, 62
5, 166080, Note_on_c, 0, 51, 62
5, 167040, Note_on_c, 0, 51, 0
5, 167040, Note_on_c, 0, 48, 0
5, 167040, Note_on_c, 0, 41, 0
5, 167040, Note_on_c, 0, 41, 62
5, 167040, Note_on_c, 0, 47, 62
5, 167040, Note_on_c, 0, 50, 62
5, 167520, Note_on_c, 0, 50, 0
5, 167520, Note_on_c, 0, 47, 0
5, 167520, Note_on_c, 0, 41, 0
5, 167520, Note_on_c, 0, 38, 62
5, 168000, Note_on_c, 0, 38, 0
5, 168000, Note_on_c, 0, 33, 62
5, 168960, Note_on_c, 0, 33, 0
5, 168960, Note_on_c, 0, 33, 62
5, 169840, Note_on_c, 0, 41, 62
5, 169880, Note_on_c, 0, 48, 62
5, 169920, Note_on_c, 0, 33, 0
5, 169920, Note_on_c, 0, 51, 62
5, 170880, Note_on_c, 0, 51, 0
5, 170880, Note_on_c, 0, 48, 0
5, 170880, Note_on_c, 0, 41, 0
5, 170880, Note_on_c, 0, 41, 62
5, 170880, Note_on_c, 0, 47, 62
5, 170880, Note_on_c, 0, 50, 62
5, 171360, Note_on_c, 0, 50, 0
5, 171360, Note_on_c, 0, 47, 0
5, 171360, Note_on_c, 0, 41, 0
5, 171360, Note_on_c, 0, 38, 62
5, 171840, Note_on_c, 0, 38, 0
5, 171840, Note_on_c, 0, 33, 62
5, 171840, Note_on_c, 0, 45, 62
5, 172800, Note_on_c, 0, 45, 0
5, 172800, Note_on_c, 0, 33, 0
5, 172800, Note_on_c, 0, 33, 62
5, 172800, Note_on_c, 0, 45, 62
5, 173760, Note_on_c, 0, 45, 0
5, 173760, Note_on_c, 0, 33, 0
5, 173760, Note_on_c, 0, 33, 114
5, 173760, Note_on_c, 0, 45, 114
5, 173783, Note_on_c, 0, 45, 0
5, 173783, Note_on_c, 0, 33, 0
5, 174000, Note_on_c, 0, 55, 88
5, 174240, Note_on_c, 0, 55, 0
5, 174240, Note_on_c, 0, 52, 88
5, 174480, Note_on_c, 0, 52, 0
5, 174480, Note_on_c, 0, 49, 88
5, 174720, Note_on_c, 0, 49, 0
5, 174720, Note_on_c, 0, 45, 101
5, 174960, Note_on_c, 0, 45, 0
5, 174960, Note_on_c, 0, 43, 101
5, 175200, Note_on_c, 0, 43, 0
5, 175200, Note_on_c, 0, 40, 101
5, 175440, Note_on_c, 0, 40, 0
5, 175440, Note_on_c, 0, 37, 101
5, 175680, Note_on_c, 0, 37, 0
5, 175680, Note_on_c, 0, 26, 101
5, 175680, Note_on_c, 0, 38, 101
5, 176640, Note_on_c, 0, 38, 0
5, 176640, Note_on_c, 0, 26, 0
5, 176640, Note_on_c, 0, 29, 88
5, 176640, Note_on_c, 0, 41, 88
5, 177600, Note_on_c, 0, 41, 0
5, 177600, Note_on_c, 0, 29, 0
5, 177600, Note_on_c, 0, 34, 88
5, 177600, Note_on_c, 0, 46, 88
5, 177623, Note_on_c, 0, 46, 0
5, 177623, Note_on_c, 0, 34, 0
5, 177840, Note_on_c, 0, 58, 88
5, 178080, Note_on_c, 0, 58, 0
5, 178080, Note_on_c, 0, 55, 88
5, 178320, Note_on_c, 0, 55, 0
5, 178320, Note_on_c, 0, 50, 88
5, 178560, Note_on_c, 0, 50, 0
5, 178560, Note_on_c, 0, 46, 101
5, 178800, Note_on_c, 0, 46, 0
5, 178800, Note_on_c, 0, 43, 101
5, 179040, Note_on_c, 0, 43, 0
5, 179040, Note_on_c, 0, 38, 101
5, 179280, Note_on_c, 0, 38, 0
5, 179280, Note_on_c, 0, 34, 101
5, 179520, Note_on_c, 0, 34, 0
5, 179520, Note_on_c, 0, 28, 101
5, 179520, Note_on_c, 0, 40, 101
5, 180480, Note_on_c, 0, 40, 0
5, 180480, Note_on_c, 0, 28, 0
5, 180480, Note_on_c, 0, 33, 75
5, 180480, Note_on_c, 0, 45, 75
5, 181440, Note_on_c, 0, 45, 0
5, 181440, Note_on_c, 0, 33, 0
5, 181440, Note_on_c, 0, 34, 62
5, 181440, Note_on_c, 0, 46, 62
5, 182400, Note_on_c, 0, 46, 0
5, 182400, Note_on_c, 0, 34, 0
5, 182400, Note_on_c, 0, 31, 62
5, 182400, Note_on_c, 0, 43, 62
5, 183360, Note_on_c, 0, 43, 0
5, 183360, Note_on_c, 0, 31, 0
5, 183360, Note_on_c, 0, 33, 62
5, 183360, Note_on_c, 0, 45, 62
5, 184320, Note_on_c, 0, 45, 0
5, 184320, Note_on_c, 0, 33, 0
5, 184320, Note_on_c, 0, 29, 62
5, 184320, Note_on_c, 0, 41, 62
5, 185280, Note_on_c, 0, 41, 0
5, 185280, Note_on_c, 0, 29, 0
5, 185280, Note_on_c, 0, 31, 88
5, 185280, Note_on_c, 0, 43, 88
5, 186240, Note_on_c, 0, 43, 0
5, 186240, Note_on_c, 0, 31, 0
5, 186240, Note_on_c, 0, 34, 75
5, 187200, Note_on_c, 0, 34, 0
5, 187200, Note_on_c, 0, 31, 75
5, 188160, Note_on_c, 0, 31, 0
5, 188160, Note_on_c, 0, 34, 75
5, 189120, Note_on_c, 0, 34, 0
5, 189120, Control_c, 0, 64, 127
5, 189120, Note_on_c, 0, 33, 88
5, 189120, Note_on_c, 0, 45, 88
5, 189360, Note_on_c, 0, 45, 0
5, 189360, Note_on_c, 0, 33, 0
5, 189360, Note_on_c, 0, 45, 88
5, 189840, Note_on_c, 0, 45, 0
5, 189840, Note_on_c, 0, 45, 88
5, 190080, Note_on_c, 0, 45, 0
5, 190080, Note_on_c, 0, 45, 88
5, 190320, Note_on_c, 0, 45, 0
5, 190320, Note_on_c, 0, 45, 88
5, 190800, Note_on_c, 0, 45, 0
5, 190800, Note_on_c, 0, 45, 88
5, 191040, Note_on_c, 0, 45, 0
5, 191040, Control_c, 0, 64, 0
5, 191040, Note_on_c, 0, 26, 88
5, 191040, Note_on_c, 0, 38, 88
5, 191280, Note_on_c, 0, 38, 0
5, 191280, Note_on_c, 0, 26, 0
5, 191760, Control_c, 0, 64, 127
5, 191760, Note_on_c, 0, 53, 101
5, 192000, Note_on_c, 0, 53, 0
5, 192000, Note_on_c, 0, 50, 101
5, 192240, Note_on_c, 0, 50, 0
5, 192240, Note_on_c, 0, 47, 101
5, 192480, Note_on_c, 0, 47, 0
5, 192480, Note_on_c, 0, 44, 101
5, 192720, Note_on_c, 0, 44, 0
5, 192720, Control_c, 0, 64, 0
5, 192720, Note_on_c, 0, 41, 101
5, 192900, Note_on_c, 0, 26, 127
5, 192960, Note_on_c, 0, 41, 0
5, 192960, Note_on_c, 0, 38, 127
5, 192983, Note_on_c, 0, 38, 0
5, 192983, Note_on_c, 0, 26, 0
5, 192983, End_track
0, 0, End_of_file
