0, 0, Header, 1, 5, 480
1, 0, Start_track
1, 0, Title_t, "brahms hungarian dance no. 04"
1, 0, Copyright_t, "Segundo G. Yogore,  dody@info.com.ph \012__________________________________________________________\012Kunst der Fuge comment: this is the Contributor's property.\012Can *not* be used for commercial purposes without authorization!\012Copyright by Contributor - Kunst der Fuge, © 2002-05\012http://www.kunstderfuge.com/thanks.htm -> Contributors' list\012http://www.kunstderfuge.com/notes.htm -> Terms & conditions"
1, 0, Text_t, "sequenced by Segundo G. Yogore,  2004\012"
1, 0, Time_signature, 2, 2, 24, 8
1, 0, Key_signature, -4, "major"
1, 0, Tempo, 612245
1, 4080, Tempo, 555556
1, 18240, Tempo, 468750
1, 22080, Tempo, 405405
1, 31680, Tempo, 312500
1, 47040, Tempo, 312500
1, 61440, Time_signature, 3, 2, 24, 8
1, 62880, Time_signature, 2, 2, 24, 8
1, 62880, Tempo, 555556
1, 78240, Time_signature, 3, 2, 24, 8
1, 79680, Time_signature, 2, 2, 24, 8
1, 79680, Key_signature, -1, "major"
1, 79680, Tempo, 312500
1, 81600, Tempo, 312500
1, 87360, Tempo, 312500
1, 121920, Tempo, 405405
1, 133440, Time_signature, 4, 2, 24, 8
1, 135360, Time_signature, 2, 2, 24, 8
1, 135360, Key_signature, -4, "major"
1, 135360, Tempo, 612245
1, 139440, Tempo, 555556
1, 153600, Tempo, 468750
1, 157440, Tempo, 405405
1, 167040, Tempo, 312500
1, 182400, Tempo, 312500
1, 196800, Time_signature, 3, 2, 24, 8
1, 198240, Time_signature, 2, 2, 24, 8
1, 198240, Tempo, 555556
1, 213600, Time_signature, 6, 2, 24, 8
1, 213600, End_track
2, 0, Start_track
2, 0, Title_t, "Grand Piano"
2, 0, Program_c, 0, 0
2, 0, Control_c, 0, 7, 110
2, 0, Control_c, 0, 10, 97
2, 1200, Control_c, 0, 64, 127
2, 1200, Note_on_c, 0, 80, 65
2, 1200, Note_on_c, 0, 84, 65
2, 1200, Note_on_c, 0, 92, 65
2, 1680, Note_on_c, 0, 92, 0
2, 1680, Note_on_c, 0, 84, 0
2, 1680, Note_on_c, 0, 80, 0
2, 1680, Note_on_c, 0, 79, 65
2, 1680, Note_on_c, 0, 84, 65
2, 1680, Note_on_c, 0, 91, 65
2, 2160, Note_on_c, 0, 91, 0
2, 2160, Note_on_c, 0, 84, 0
2, 2160, Note_on_c, 0, 79, 0
2, 2160, Note_on_c, 0, 77, 65
2, 2160, Note_on_c, 0, 84, 65
2, 2160, Note_on_c, 0, 89, 65
2, 2640, Note_on_c, 0, 89, 0
2, 2640, Note_on_c, 0, 84, 0
2, 2640, Note_on_c, 0, 77, 0
2, 2640, Control_c, 0, 64, 0
2, 2640, Note_on_c, 0, 80, 65
2, 2640, Note_on_c, 0, 84, 65
2, 2880, Note_on_c, 0, 84, 0
2, 2880, Note_on_c, 0, 80, 0
2, 3120, Control_c, 0, 64, 127
2, 3120, Note_on_c, 0, 77, 65
2, 3120, Note_on_c, 0, 79, 65
2, 3120, Note_on_c, 0, 82, 65
2, 3120, Note_on_c, 0, 89, 65
2, 3600, Note_on_c, 0, 89, 0
2, 3600, Note_on_c, 0, 77, 0
2, 3600, Note_on_c, 0, 79, 0
2, 3600, Note_on_c, 0, 82, 0
2, 3600, Note_on_c, 0, 75, 65
2, 3600, Note_on_c, 0, 79, 65
2, 3600, Note_on_c, 0, 82, 65
2, 3600, Note_on_c, 0, 87, 65
2, 4080, Note_on_c, 0, 87, 0
2, 4080, Note_on_c, 0, 75, 0
2, 4080, Note_on_c, 0, 79, 0
2, 4080, Note_on_c, 0, 82, 0
2, 4080, Note_on_c, 0, 73, 65
2, 4080, Note_on_c, 0, 77, 65
2, 4080, Note_on_c, 0, 85, 65
2, 4560, Note_on_c, 0, 85, 0
2, 4560, Note_on_c, 0, 77, 0
2, 4560, Note_on_c, 0, 73, 0
2, 4560, Control_c, 0, 64, 0
2, 4560, Note_on_c, 0, 73, 65
2, 4560, Note_on_c, 0, 77, 65
2, 4560, Note_on_c, 0, 79, 65
2, 4800, Note_on_c, 0, 79, 0
2, 4800, Note_on_c, 0, 77, 0
2, 4800, Note_on_c, 0, 73, 0
2, 5040, Control_c, 0, 64, 127
2, 5040, Note_on_c, 0, 79, 65
2, 5040, Note_on_c, 0, 82, 65
2, 5040, Note_on_c, 0, 91, 65
2, 5520, Note_on_c, 0, 91, 0
2, 5520, Note_on_c, 0, 82, 0
2, 5520, Note_on_c, 0, 79, 0
2, 5520, Note_on_c, 0, 77, 65
2, 5520, Note_on_c, 0, 82, 65
2, 5520, Note_on_c, 0, 89, 65
2, 6000, Note_on_c, 0, 89, 0
2, 6000, Note_on_c, 0, 82, 0
2, 6000, Note_on_c, 0, 77, 0
2, 6000, Note_on_c, 0, 76, 65
2, 6000, Note_on_c, 0, 79, 65
2, 6000, Note_on_c, 0, 88, 65
2, 6480, Note_on_c, 0, 88, 0
2, 6480, Note_on_c, 0, 79, 0
2, 6480, Note_on_c, 0, 76, 0
2, 6480, Control_c, 0, 64, 0
2, 6480, Note_on_c, 0, 76, 65
2, 6480, Note_on_c, 0, 79, 65
2, 6720, Note_on_c, 0, 79, 0
2, 6720, Note_on_c, 0, 76, 0
2, 6960, Control_c, 0, 64, 127
2, 6960, Note_on_c, 0, 79, 65
2, 6960, Note_on_c, 0, 84, 65
2, 6960, Note_on_c, 0, 91, 65
2, 7440, Note_on_c, 0, 91, 0
2, 7440, Note_on_c, 0, 84, 0
2, 7440, Note_on_c, 0, 79, 0
2, 7440, Note_on_c, 0, 77, 65
2, 7440, Note_on_c, 0, 84, 65
2, 7440, Note_on_c, 0, 89, 65
2, 7920, Note_on_c, 0, 89, 0
2, 7920, Note_on_c, 0, 84, 0
2, 7920, Note_on_c, 0, 77, 0
2, 7920, Note_on_c, 0, 72, 65
2, 7920, Note_on_c, 0, 77, 65
2, 7920, Note_on_c, 0, 84, 65
2, 8400, Note_on_c, 0, 84, 0
2, 8400, Note_on_c, 0, 77, 0
2, 8400, Note_on_c, 0, 72, 0
2, 8400, Control_c, 0, 64, 0
2, 8400, Note_on_c, 0, 72, 65
2, 8400, Note_on_c, 0, 77, 65
2, 8400, Note_on_c, 0, 80, 65
2, 8640, Note_on_c, 0, 80, 0
2, 8640, Note_on_c, 0, 77, 0
2, 8640, Note_on_c, 0, 72, 0
2, 8880, Control_c, 0, 64, 127
2, 8880, Note_on_c, 0, 77, 65
2, 8880, Note_on_c, 0, 84, 65
2, 8880, Note_on_c, 0, 89, 65
2, 9360, Note_on_c, 0, 89, 0
2, 9360, Note_on_c, 0, 84, 0
2, 9360, Note_on_c, 0, 77, 0
2, 9360, Note_on_c, 0, 72, 65
2, 9360, Note_on_c, 0, 77, 65
2, 9360, Note_on_c, 0, 84, 65
2, 9840, Note_on_c, 0, 84, 0
2, 9840, Note_on_c, 0, 77, 0
2, 9840, Note_on_c, 0, 72, 0
2, 9840, Note_on_c, 0, 72, 65
2, 9840, Note_on_c, 0, 77, 65
2, 9840, Note_on_c, 0, 80, 65
2, 10320, Note_on_c, 0, 80, 0
2, 10320, Note_on_c, 0, 77, 0
2, 10320, Note_on_c, 0, 72, 0
2, 10320, Control_c, 0, 64, 0
2, 10320, Note_on_c, 0, 72, 65
2, 10320, Note_on_c, 0, 77, 65
2, 10560, Note_on_c, 0, 77, 0
2, 10560, Note_on_c, 0, 72, 0
2, 10800, Control_c, 0, 64, 127
2, 10800, Note_on_c, 0, 77, 65
2, 10800, Note_on_c, 0, 79, 65
2, 10800, Note_on_c, 0, 89, 65
2, 11280, Note_on_c, 0, 89, 0
2, 11280, Note_on_c, 0, 79, 0
2, 11280, Note_on_c, 0, 77, 0
2, 11280, Note_on_c, 0, 73, 65
2, 11280, Note_on_c, 0, 79, 65
2, 11280, Note_on_c, 0, 85, 65
2, 11760, Note_on_c, 0, 85, 0
2, 11760, Note_on_c, 0, 79, 0
2, 11760, Note_on_c, 0, 73, 0
2, 11760, Note_on_c, 0, 73, 65
2, 11760, Note_on_c, 0, 79, 65
2, 11760, Note_on_c, 0, 82, 65
2, 12240, Note_on_c, 0, 82, 0
2, 12240, Note_on_c, 0, 79, 0
2, 12240, Note_on_c, 0, 73, 0
2, 12240, Control_c, 0, 64, 0
2, 12240, Note_on_c, 0, 73, 65
2, 12240, Note_on_c, 0, 79, 65
2, 12480, Note_on_c, 0, 79, 0
2, 12480, Note_on_c, 0, 73, 0
2, 12720, Note_on_c, 0, 80, 65
2, 12720, Note_on_c, 0, 89, 65
2, 13200, Note_on_c, 0, 89, 0
2, 13200, Note_on_c, 0, 80, 0
2, 13200, Note_on_c, 0, 80, 65
2, 13200, Note_on_c, 0, 84, 65
2, 13440, Note_on_c, 0, 84, 0
2, 13440, Note_on_c, 0, 80, 0
2, 13680, Note_on_c, 0, 79, 65
2, 13680, Note_on_c, 0, 88, 65
2, 14160, Note_on_c, 0, 88, 0
2, 14160, Note_on_c, 0, 79, 0
2, 14160, Note_on_c, 0, 79, 65
2, 14160, Note_on_c, 0, 82, 65
2, 14400, Note_on_c, 0, 82, 0
2, 14400, Note_on_c, 0, 79, 0
2, 14640, Note_on_c, 0, 80, 65
2, 14640, Note_on_c, 0, 89, 65
2, 15120, Note_on_c, 0, 89, 0
2, 15120, Note_on_c, 0, 80, 0
2, 15120, Note_on_c, 0, 80, 65
2, 15120, Note_on_c, 0, 84, 65
2, 15600, Note_on_c, 0, 84, 0
2, 15600, Note_on_c, 0, 80, 0
2, 15600, Note_on_c, 0, 77, 65
2, 15600, Note_on_c, 0, 80, 65
2, 16080, Note_on_c, 0, 80, 0
2, 16080, Note_on_c, 0, 77, 0
2, 16080, Note_on_c, 0, 77, 65
2, 16320, Note_on_c, 0, 77, 0
2, 16320, Control_c, 0, 64, 127
2, 16320, Note_on_c, 0, 89, 52
2, 16320, Note_on_c, 0, 92, 52
2, 16380, Note_on_c, 0, 92, 0
2, 16380, Note_on_c, 0, 89, 0
2, 16380, Note_on_c, 0, 84, 52
2, 16440, Note_on_c, 0, 84, 0
2, 16440, Note_on_c, 0, 89, 52
2, 16440, Note_on_c, 0, 92, 52
2, 16500, Note_on_c, 0, 92, 0
2, 16500, Note_on_c, 0, 89, 0
2, 16500, Note_on_c, 0, 84, 52
2, 16560, Note_on_c, 0, 84, 0
2, 16560, Note_on_c, 0, 89, 65
2, 16560, Note_on_c, 0, 92, 65
2, 16620, Note_on_c, 0, 92, 0
2, 16620, Note_on_c, 0, 89, 0
2, 16620, Note_on_c, 0, 84, 65
2, 16680, Note_on_c, 0, 84, 0
2, 16680, Note_on_c, 0, 89, 65
2, 16680, Note_on_c, 0, 92, 65
2, 16740, Note_on_c, 0, 92, 0
2, 16740, Note_on_c, 0, 89, 0
2, 16740, Note_on_c, 0, 84, 65
2, 16800, Note_on_c, 0, 84, 0
2, 16800, Note_on_c, 0, 89, 65
2, 16800, Note_on_c, 0, 92, 65
2, 16860, Note_on_c, 0, 92, 0
2, 16860, Note_on_c, 0, 89, 0
2, 16860, Note_on_c, 0, 84, 65
2, 16920, Note_on_c, 0, 84, 0
2, 16920, Note_on_c, 0, 89, 65
2, 16920, Note_on_c, 0, 92, 65
2, 16980, Note_on_c, 0, 92, 0
2, 16980, Note_on_c, 0, 89, 0
2, 16980, Note_on_c, 0, 84, 65
2, 17040, Note_on_c, 0, 84, 0
2, 17040, Note_on_c, 0, 89, 52
2, 17040, Note_on_c, 0, 92, 52
2, 17100, Note_on_c, 0, 92, 0
2, 17100, Note_on_c, 0, 89, 0
2, 17100, Note_on_c, 0, 84, 52
2, 17160, Note_on_c, 0, 84, 0
2, 17160, Note_on_c, 0, 89, 52
2, 17160, Note_on_c, 0, 92, 52
2, 17220, Note_on_c, 0, 92, 0
2, 17220, Note_on_c, 0, 89, 0
2, 17220, Note_on_c, 0, 84, 52
2, 17280, Note_on_c, 0, 84, 0
2, 17280, Control_c, 0, 64, 0
2, 17280, Note_on_c, 0, 89, 52
2, 17280, Note_on_c, 0, 92, 52
2, 17520, Note_on_c, 0, 92, 0
2, 17520, Note_on_c, 0, 89, 0
2, 17520, Note_on_c, 0, 80, 78
2, 17520, Note_on_c, 0, 84, 78
2, 17700, Note_on_c, 0, 87, 78
2, 17760, Note_on_c, 0, 87, 0
2, 17760, Note_on_c, 0, 84, 0
2, 17760, Note_on_c, 0, 80, 0
2, 17760, Note_on_c, 0, 82, 78
2, 17760, Note_on_c, 0, 85, 78
2, 18000, Note_on_c, 0, 85, 0
2, 18000, Note_on_c, 0, 82, 0
2, 18000, Note_on_c, 0, 80, 78
2, 18000, Note_on_c, 0, 84, 78
2, 18240, Note_on_c, 0, 84, 0
2, 18240, Note_on_c, 0, 80, 0
2, 18240, Note_on_c, 0, 79, 78
2, 18240, Note_on_c, 0, 82, 78
2, 19440, Note_on_c, 0, 82, 0
2, 19440, Note_on_c, 0, 79, 0
2, 19440, Control_c, 0, 64, 127
2, 19440, Note_on_c, 0, 79, 78
2, 19440, Note_on_c, 0, 82, 78
2, 19620, Note_on_c, 0, 85, 78
2, 19680, Note_on_c, 0, 85, 0
2, 19680, Note_on_c, 0, 82, 0
2, 19680, Note_on_c, 0, 79, 0
2, 19680, Note_on_c, 0, 80, 78
2, 19680, Note_on_c, 0, 84, 78
2, 19920, Note_on_c, 0, 84, 0
2, 19920, Note_on_c, 0, 80, 0
2, 19920, Control_c, 0, 64, 0
2, 19920, Note_on_c, 0, 79, 78
2, 19920, Note_on_c, 0, 82, 78
2, 20160, Note_on_c, 0, 82, 0
2, 20160, Note_on_c, 0, 79, 0
2, 20160, Note_on_c, 0, 82, 78
2, 20160, Note_on_c, 0, 91, 78
2, 21360, Note_on_c, 0, 91, 0
2, 21360, Note_on_c, 0, 82, 0
2, 21360, Control_c, 0, 64, 127
2, 21360, Note_on_c, 0, 79, 78
2, 21360, Note_on_c, 0, 82, 78
2, 21600, Note_on_c, 0, 82, 0
2, 21600, Note_on_c, 0, 79, 0
2, 21600, Note_on_c, 0, 80, 78
2, 21600, Note_on_c, 0, 84, 78
2, 21840, Note_on_c, 0, 84, 0
2, 21840, Note_on_c, 0, 80, 0
2, 21840, Control_c, 0, 64, 0
2, 21840, Note_on_c, 0, 79, 78
2, 21840, Note_on_c, 0, 82, 78
2, 22080, Note_on_c, 0, 82, 0
2, 22080, Note_on_c, 0, 79, 0
2, 22080, Note_on_c, 0, 80, 78
2, 23280, Note_on_c, 0, 80, 0
2, 23280, Control_c, 0, 64, 127
2, 23280, Note_on_c, 0, 80, 78
2, 23520, Note_on_c, 0, 80, 0
2, 23520, Note_on_c, 0, 79, 78
2, 23760, Note_on_c, 0, 79, 0
2, 23760, Control_c, 0, 64, 0
2, 23760, Note_on_c, 0, 77, 78
2, 24000, Note_on_c, 0, 77, 0
2, 24000, Note_on_c, 0, 80, 78
2, 24000, Note_on_c, 0, 84, 78
2, 25200, Note_on_c, 0, 84, 0
2, 25200, Note_on_c, 0, 80, 0
2, 25200, Control_c, 0, 64, 127
2, 25200, Note_on_c, 0, 80, 78
2, 25440, Note_on_c, 0, 80, 0
2, 25440, Note_on_c, 0, 79, 78
2, 25680, Note_on_c, 0, 79, 0
2, 25680, Control_c, 0, 64, 0
2, 25680, Note_on_c, 0, 77, 78
2, 25920, Note_on_c, 0, 77, 0
2, 25920, Note_on_c, 0, 77, 78
2, 25920, Note_on_c, 0, 82, 78
2, 25920, Note_on_c, 0, 85, 78
2, 27120, Note_on_c, 0, 85, 0
2, 27120, Note_on_c, 0, 82, 0
2, 27120, Note_on_c, 0, 77, 0
2, 27120, Control_c, 0, 64, 127
2, 27120, Note_on_c, 0, 82, 78
2, 27120, Note_on_c, 0, 85, 78
2, 27360, Note_on_c, 0, 85, 0
2, 27360, Note_on_c, 0, 82, 0
2, 27360, Note_on_c, 0, 80, 78
2, 27360, Note_on_c, 0, 84, 78
2, 27600, Note_on_c, 0, 84, 0
2, 27600, Note_on_c, 0, 80, 0
2, 27600, Control_c, 0, 64, 0
2, 27600, Note_on_c, 0, 79, 78
2, 27600, Note_on_c, 0, 82, 78
2, 27840, Note_on_c, 0, 82, 0
2, 27840, Note_on_c, 0, 79, 0
2, 27840, Note_on_c, 0, 77, 78
2, 27840, Note_on_c, 0, 80, 78
2, 28260, Note_on_c, 0, 83, 78
2, 28320, Note_on_c, 0, 83, 0
2, 28320, Note_on_c, 0, 80, 0
2, 28320, Note_on_c, 0, 77, 0
2, 28320, Note_on_c, 0, 77, 78
2, 28320, Note_on_c, 0, 80, 78
2, 28320, Note_on_c, 0, 84, 78
2, 28800, Note_on_c, 0, 84, 0
2, 28800, Note_on_c, 0, 80, 0
2, 28800, Note_on_c, 0, 77, 0
2, 28800, Note_on_c, 0, 76, 78
2, 28800, Note_on_c, 0, 79, 78
2, 29220, Note_on_c, 0, 83, 78
2, 29280, Note_on_c, 0, 83, 0
2, 29280, Note_on_c, 0, 79, 0
2, 29280, Note_on_c, 0, 76, 0
2, 29280, Note_on_c, 0, 76, 78
2, 29280, Note_on_c, 0, 79, 78
2, 29280, Note_on_c, 0, 84, 78
2, 29760, Note_on_c, 0, 84, 0
2, 29760, Note_on_c, 0, 79, 0
2, 29760, Note_on_c, 0, 76, 0
2, 29760, Note_on_c, 0, 77, 78
2, 30960, Note_on_c, 0, 77, 0
2, 31680, Note_on_c, 0, 75, 78
2, 32400, Note_on_c, 0, 75, 0
2, 32400, Note_on_c, 0, 75, 78
2, 32640, Note_on_c, 0, 75, 0
2, 32640, Note_on_c, 0, 75, 78
2, 32640, Note_on_c, 0, 77, 78
2, 33120, Note_on_c, 0, 77, 0
2, 33120, Note_on_c, 0, 75, 0
2, 33120, Note_on_c, 0, 75, 78
2, 33120, Note_on_c, 0, 79, 78
2, 33600, Note_on_c, 0, 79, 0
2, 33600, Note_on_c, 0, 75, 0
2, 33600, Note_on_c, 0, 75, 78
2, 33600, Note_on_c, 0, 80, 78
2, 33623, Note_on_c, 0, 80, 0
2, 33623, Note_on_c, 0, 75, 0
2, 33840, Note_on_c, 0, 80, 104
2, 34320, Note_on_c, 0, 80, 0
2, 34320, Control_c, 0, 64, 127
2, 34320, Note_on_c, 0, 79, 78
2, 34440, Note_on_c, 0, 79, 0
2, 34440, Note_on_c, 0, 80, 78
2, 34560, Note_on_c, 0, 80, 0
2, 34560, Note_on_c, 0, 82, 104
2, 34680, Note_on_c, 0, 82, 0
2, 34680, Note_on_c, 0, 80, 78
2, 34800, Note_on_c, 0, 80, 0
2, 34800, Note_on_c, 0, 79, 78
2, 34920, Note_on_c, 0, 79, 0
2, 34920, Control_c, 0, 64, 0
2, 34920, Note_on_c, 0, 80, 78
2, 35040, Note_on_c, 0, 80, 0
2, 35040, Control_c, 0, 64, 127
2, 35040, Note_on_c, 0, 82, 117
2, 35160, Note_on_c, 0, 82, 0
2, 35160, Note_on_c, 0, 80, 91
2, 35280, Note_on_c, 0, 80, 0
2, 35280, Note_on_c, 0, 79, 91
2, 35400, Note_on_c, 0, 79, 0
2, 35400, Control_c, 0, 64, 0
2, 35400, Note_on_c, 0, 80, 91
2, 35520, Note_on_c, 0, 80, 0
2, 35520, Note_on_c, 0, 81, 78
2, 35520, Note_on_c, 0, 84, 78
2, 35520, Note_on_c, 0, 89, 78
2, 36240, Note_on_c, 0, 89, 0
2, 36240, Note_on_c, 0, 84, 0
2, 36240, Note_on_c, 0, 81, 0
2, 36240, Note_on_c, 0, 77, 78
2, 36240, Note_on_c, 0, 81, 78
2, 36240, Note_on_c, 0, 84, 78
2, 36240, Note_on_c, 0, 87, 78
2, 36480, Note_on_c, 0, 87, 0
2, 36480, Note_on_c, 0, 77, 0
2, 36480, Note_on_c, 0, 81, 0
2, 36480, Note_on_c, 0, 84, 0
2, 36480, Note_on_c, 0, 77, 78
2, 36480, Note_on_c, 0, 82, 78
2, 36480, Note_on_c, 0, 85, 78
2, 36960, Note_on_c, 0, 85, 0
2, 36960, Note_on_c, 0, 82, 0
2, 36960, Note_on_c, 0, 77, 0
2, 36960, Note_on_c, 0, 75, 78
2, 36960, Note_on_c, 0, 77, 78
2, 36960, Note_on_c, 0, 84, 78
2, 37440, Note_on_c, 0, 84, 0
2, 37440, Note_on_c, 0, 77, 0
2, 37440, Note_on_c, 0, 75, 0
2, 37440, Note_on_c, 0, 73, 78
2, 37440, Note_on_c, 0, 77, 78
2, 37440, Note_on_c, 0, 82, 78
2, 37463, Note_on_c, 0, 82, 0
2, 37463, Note_on_c, 0, 77, 0
2, 37463, Note_on_c, 0, 73, 0
2, 37680, Note_on_c, 0, 82, 104
2, 38160, Note_on_c, 0, 82, 0
2, 38160, Note_on_c, 0, 81, 78
2, 38280, Note_on_c, 0, 81, 0
2, 38280, Note_on_c, 0, 82, 78
2, 38400, Note_on_c, 0, 82, 0
2, 38400, Control_c, 0, 64, 127
2, 38400, Note_on_c, 0, 84, 104
2, 38520, Note_on_c, 0, 84, 0
2, 38520, Note_on_c, 0, 82, 78
2, 38640, Note_on_c, 0, 82, 0
2, 38640, Note_on_c, 0, 81, 78
2, 38760, Note_on_c, 0, 81, 0
2, 38760, Control_c, 0, 64, 0
2, 38760, Note_on_c, 0, 82, 78
2, 38880, Note_on_c, 0, 82, 0
2, 38880, Control_c, 0, 64, 127
2, 38880, Note_on_c, 0, 84, 117
2, 39000, Note_on_c, 0, 84, 0
2, 39000, Note_on_c, 0, 82, 91
2, 39120, Note_on_c, 0, 82, 0
2, 39120, Note_on_c, 0, 81, 91
2, 39240, Note_on_c, 0, 81, 0
2, 39240, Control_c, 0, 64, 0
2, 39240, Note_on_c, 0, 82, 91
2, 39360, Note_on_c, 0, 82, 0
2, 39360, Note_on_c, 0, 79, 78
2, 39360, Note_on_c, 0, 82, 78
2, 39360, Note_on_c, 0, 87, 78
2, 40080, Note_on_c, 0, 87, 0
2, 40080, Note_on_c, 0, 82, 0
2, 40080, Note_on_c, 0, 79, 0
2, 40080, Note_on_c, 0, 79, 78
2, 40080, Note_on_c, 0, 82, 78
2, 40320, Note_on_c, 0, 82, 0
2, 40320, Note_on_c, 0, 79, 0
2, 40320, Note_on_c, 0, 80, 78
2, 40320, Note_on_c, 0, 87, 78
2, 40800, Note_on_c, 0, 87, 0
2, 40800, Note_on_c, 0, 80, 0
2, 40800, Note_on_c, 0, 82, 78
2, 40800, Note_on_c, 0, 85, 78
2, 41280, Note_on_c, 0, 85, 0
2, 41280, Note_on_c, 0, 82, 0
2, 41280, Note_on_c, 0, 80, 78
2, 41280, Note_on_c, 0, 84, 78
2, 41303, Note_on_c, 0, 84, 0
2, 41303, Note_on_c, 0, 80, 0
2, 41520, Note_on_c, 0, 84, 104
2, 42000, Note_on_c, 0, 84, 0
2, 42000, Control_c, 0, 64, 127
2, 42000, Note_on_c, 0, 83, 78
2, 42120, Note_on_c, 0, 83, 0
2, 42120, Note_on_c, 0, 84, 78
2, 42240, Note_on_c, 0, 84, 0
2, 42240, Note_on_c, 0, 85, 104
2, 42360, Note_on_c, 0, 85, 0
2, 42360, Note_on_c, 0, 84, 78
2, 42480, Note_on_c, 0, 84, 0
2, 42480, Note_on_c, 0, 83, 78
2, 42600, Note_on_c, 0, 83, 0
2, 42600, Control_c, 0, 64, 0
2, 42600, Note_on_c, 0, 84, 78
2, 42720, Note_on_c, 0, 84, 0
2, 42720, Control_c, 0, 64, 127
2, 42720, Note_on_c, 0, 85, 117
2, 42840, Note_on_c, 0, 85, 0
2, 42840, Note_on_c, 0, 84, 91
2, 42960, Note_on_c, 0, 84, 0
2, 42960, Note_on_c, 0, 83, 91
2, 43080, Note_on_c, 0, 83, 0
2, 43080, Control_c, 0, 64, 0
2, 43080, Note_on_c, 0, 84, 91
2, 43200, Note_on_c, 0, 84, 0
2, 43200, Note_on_c, 0, 77, 78
2, 43200, Note_on_c, 0, 82, 78
2, 43200, Note_on_c, 0, 85, 78
2, 43920, Note_on_c, 0, 85, 0
2, 43920, Note_on_c, 0, 82, 0
2, 43920, Note_on_c, 0, 77, 0
2, 43920, Note_on_c, 0, 73, 78
2, 43920, Note_on_c, 0, 77, 78
2, 43920, Note_on_c, 0, 82, 78
2, 44160, Note_on_c, 0, 82, 0
2, 44160, Note_on_c, 0, 77, 0
2, 44160, Note_on_c, 0, 73, 0
2, 44160, Note_on_c, 0, 72, 78
2, 44160, Note_on_c, 0, 77, 78
2, 44160, Note_on_c, 0, 80, 78
2, 44640, Note_on_c, 0, 80, 0
2, 44640, Note_on_c, 0, 77, 0
2, 44640, Note_on_c, 0, 72, 0
2, 44640, Note_on_c, 0, 72, 78
2, 44640, Note_on_c, 0, 76, 78
2, 44640, Note_on_c, 0, 79, 78
2, 45120, Note_on_c, 0, 79, 0
2, 45120, Note_on_c, 0, 76, 0
2, 45120, Note_on_c, 0, 72, 0
2, 45120, Note_on_c, 0, 72, 78
2, 45120, Note_on_c, 0, 77, 78
2, 45143, Note_on_c, 0, 77, 0
2, 45143, Note_on_c, 0, 72, 0
2, 45360, Note_on_c, 0, 77, 104
2, 45840, Note_on_c, 0, 77, 0
2, 45840, Control_c, 0, 64, 127
2, 45840, Note_on_c, 0, 76, 78
2, 45960, Note_on_c, 0, 76, 0
2, 45960, Note_on_c, 0, 77, 78
2, 46080, Note_on_c, 0, 77, 0
2, 46080, Note_on_c, 0, 79, 104
2, 46200, Note_on_c, 0, 79, 0
2, 46200, Note_on_c, 0, 77, 78
2, 46320, Note_on_c, 0, 77, 0
2, 46320, Note_on_c, 0, 76, 78
2, 46440, Note_on_c, 0, 76, 0
2, 46440, Control_c, 0, 64, 0
2, 46440, Note_on_c, 0, 77, 91
2, 46560, Note_on_c, 0, 77, 0
2, 46560, Control_c, 0, 64, 127
2, 46560, Note_on_c, 0, 79, 117
2, 46680, Note_on_c, 0, 79, 0
2, 46680, Note_on_c, 0, 77, 91
2, 46800, Note_on_c, 0, 77, 0
2, 46800, Note_on_c, 0, 76, 91
2, 46920, Note_on_c, 0, 76, 0
2, 46920, Control_c, 0, 64, 0
2, 46920, Note_on_c, 0, 77, 91
2, 47040, Note_on_c, 0, 77, 0
2, 47040, Note_on_c, 0, 75, 78
2, 47760, Note_on_c, 0, 75, 0
2, 47760, Note_on_c, 0, 75, 78
2, 48000, Note_on_c, 0, 75, 0
2, 48000, Note_on_c, 0, 75, 78
2, 48000, Note_on_c, 0, 77, 78
2, 48480, Note_on_c, 0, 77, 0
2, 48480, Note_on_c, 0, 75, 0
2, 48480, Note_on_c, 0, 75, 78
2, 48480, Note_on_c, 0, 79, 78
2, 48960, Note_on_c, 0, 79, 0
2, 48960, Note_on_c, 0, 75, 0
2, 48960, Note_on_c, 0, 75, 78
2, 48960, Note_on_c, 0, 80, 78
2, 48983, Note_on_c, 0, 80, 0
2, 48983, Note_on_c, 0, 75, 0
2, 49200, Note_on_c, 0, 80, 104
2, 49680, Note_on_c, 0, 80, 0
2, 49680, Control_c, 0, 64, 127
2, 49680, Note_on_c, 0, 79, 78
2, 49800, Note_on_c, 0, 79, 0
2, 49800, Note_on_c, 0, 80, 78
2, 49920, Note_on_c, 0, 80, 0
2, 49920, Note_on_c, 0, 82, 104
2, 50040, Note_on_c, 0, 82, 0
2, 50040, Note_on_c, 0, 80, 78
2, 50160, Note_on_c, 0, 80, 0
2, 50160, Note_on_c, 0, 79, 78
2, 50280, Note_on_c, 0, 79, 0
2, 50280, Control_c, 0, 64, 0
2, 50280, Note_on_c, 0, 80, 78
2, 50400, Note_on_c, 0, 80, 0
2, 50400, Control_c, 0, 64, 127
2, 50400, Note_on_c, 0, 82, 117
2, 50520, Note_on_c, 0, 82, 0
2, 50520, Note_on_c, 0, 80, 91
2, 50640, Note_on_c, 0, 80, 0
2, 50640, Note_on_c, 0, 79, 91
2, 50760, Note_on_c, 0, 79, 0
2, 50760, Control_c, 0, 64, 0
2, 50760, Note_on_c, 0, 80, 91
2, 50880, Note_on_c, 0, 80, 0
2, 50880, Note_on_c, 0, 81, 78
2, 50880, Note_on_c, 0, 84, 78
2, 50880, Note_on_c, 0, 89, 78
2, 51600, Note_on_c, 0, 89, 0
2, 51600, Note_on_c, 0, 84, 0
2, 51600, Note_on_c, 0, 81, 0
2, 51600, Note_on_c, 0, 77, 78
2, 51600, Note_on_c, 0, 81, 78
2, 51600, Note_on_c, 0, 84, 78
2, 51600, Note_on_c, 0, 87, 78
2, 51840, Note_on_c, 0, 87, 0
2, 51840, Note_on_c, 0, 77, 0
2, 51840, Note_on_c, 0, 81, 0
2, 51840, Note_on_c, 0, 84, 0
2, 51840, Note_on_c, 0, 77, 78
2, 51840, Note_on_c, 0, 82, 78
2, 51840, Note_on_c, 0, 85, 78
2, 52320, Note_on_c, 0, 85, 0
2, 52320, Note_on_c, 0, 82, 0
2, 52320, Note_on_c, 0, 77, 0
2, 52320, Note_on_c, 0, 75, 78
2, 52320, Note_on_c, 0, 77, 78
2, 52320, Note_on_c, 0, 84, 78
2, 52800, Note_on_c, 0, 84, 0
2, 52800, Note_on_c, 0, 77, 0
2, 52800, Note_on_c, 0, 75, 0
2, 52800, Note_on_c, 0, 73, 78
2, 52800, Note_on_c, 0, 77, 78
2, 52800, Note_on_c, 0, 82, 78
2, 52823, Note_on_c, 0, 82, 0
2, 52823, Note_on_c, 0, 77, 0
2, 52823, Note_on_c, 0, 73, 0
2, 53040, Note_on_c, 0, 82, 104
2, 53520, Note_on_c, 0, 82, 0
2, 53520, Note_on_c, 0, 81, 78
2, 53640, Note_on_c, 0, 81, 0
2, 53640, Note_on_c, 0, 82, 78
2, 53760, Note_on_c, 0, 82, 0
2, 53760, Control_c, 0, 64, 127
2, 53760, Note_on_c, 0, 84, 104
2, 53880, Note_on_c, 0, 84, 0
2, 53880, Note_on_c, 0, 82, 78
2, 54000, Note_on_c, 0, 82, 0
2, 54000, Note_on_c, 0, 81, 78
2, 54120, Note_on_c, 0, 81, 0
2, 54120, Control_c, 0, 64, 0
2, 54120, Note_on_c, 0, 82, 78
2, 54240, Note_on_c, 0, 82, 0
2, 54240, Control_c, 0, 64, 127
2, 54240, Note_on_c, 0, 84, 117
2, 54360, Note_on_c, 0, 84, 0
2, 54360, Note_on_c, 0, 82, 91
2, 54480, Note_on_c, 0, 82, 0
2, 54480, Note_on_c, 0, 81, 91
2, 54600, Note_on_c, 0, 81, 0
2, 54600, Control_c, 0, 64, 0
2, 54600, Note_on_c, 0, 82, 91
2, 54720, Note_on_c, 0, 82, 0
2, 54720, Note_on_c, 0, 79, 78
2, 54720, Note_on_c, 0, 82, 78
2, 54720, Note_on_c, 0, 87, 78
2, 55440, Note_on_c, 0, 87, 0
2, 55440, Note_on_c, 0, 82, 0
2, 55440, Note_on_c, 0, 79, 0
2, 55440, Note_on_c, 0, 79, 78
2, 55440, Note_on_c, 0, 82, 78
2, 55680, Note_on_c, 0, 82, 0
2, 55680, Note_on_c, 0, 79, 0
2, 55680, Note_on_c, 0, 80, 78
2, 55680, Note_on_c, 0, 87, 78
2, 56160, Note_on_c, 0, 87, 0
2, 56160, Note_on_c, 0, 80, 0
2, 56160, Note_on_c, 0, 82, 78
2, 56160, Note_on_c, 0, 85, 78
2, 56640, Note_on_c, 0, 85, 0
2, 56640, Note_on_c, 0, 82, 0
2, 56640, Note_on_c, 0, 80, 78
2, 56640, Note_on_c, 0, 84, 78
2, 56663, Note_on_c, 0, 84, 0
2, 56663, Note_on_c, 0, 80, 0
2, 56880, Note_on_c, 0, 84, 104
2, 57360, Note_on_c, 0, 84, 0
2, 57360, Control_c, 0, 64, 127
2, 57360, Note_on_c, 0, 83, 78
2, 57480, Note_on_c, 0, 83, 0
2, 57480, Note_on_c, 0, 84, 78
2, 57600, Note_on_c, 0, 84, 0
2, 57600, Note_on_c, 0, 85, 104
2, 57720, Note_on_c, 0, 85, 0
2, 57720, Note_on_c, 0, 84, 78
2, 57840, Note_on_c, 0, 84, 0
2, 57840, Note_on_c, 0, 83, 78
2, 57960, Note_on_c, 0, 83, 0
2, 57960, Control_c, 0, 64, 0
2, 57960, Note_on_c, 0, 84, 78
2, 58080, Note_on_c, 0, 84, 0
2, 58080, Control_c, 0, 64, 127
2, 58080, Note_on_c, 0, 85, 117
2, 58200, Note_on_c, 0, 85, 0
2, 58200, Note_on_c, 0, 84, 91
2, 58320, Note_on_c, 0, 84, 0
2, 58320, Note_on_c, 0, 83, 91
2, 58440, Note_on_c, 0, 83, 0
2, 58440, Control_c, 0, 64, 0
2, 58440, Note_on_c, 0, 84, 91
2, 58560, Note_on_c, 0, 84, 0
2, 58560, Note_on_c, 0, 77, 78
2, 58560, Note_on_c, 0, 82, 78
2, 58560, Note_on_c, 0, 85, 78
2, 59280, Note_on_c, 0, 85, 0
2, 59280, Note_on_c, 0, 82, 0
2, 59280, Note_on_c, 0, 77, 0
2, 59280, Note_on_c, 0, 73, 78
2, 59280, Note_on_c, 0, 77, 78
2, 59280, Note_on_c, 0, 82, 78
2, 59520, Note_on_c, 0, 82, 0
2, 59520, Note_on_c, 0, 77, 0
2, 59520, Note_on_c, 0, 73, 0
2, 59520, Note_on_c, 0, 72, 78
2, 59520, Note_on_c, 0, 77, 78
2, 59520, Note_on_c, 0, 80, 78
2, 60000, Note_on_c, 0, 80, 0
2, 60000, Note_on_c, 0, 77, 0
2, 60000, Note_on_c, 0, 72, 0
2, 60000, Note_on_c, 0, 72, 78
2, 60000, Note_on_c, 0, 76, 78
2, 60000, Note_on_c, 0, 79, 78
2, 60480, Note_on_c, 0, 79, 0
2, 60480, Note_on_c, 0, 76, 0
2, 60480, Note_on_c, 0, 72, 0
2, 60480, Note_on_c, 0, 72, 78
2, 60480, Note_on_c, 0, 77, 78
2, 60503, Note_on_c, 0, 77, 0
2, 60503, Note_on_c, 0, 72, 0
2, 60720, Note_on_c, 0, 77, 104
2, 61200, Note_on_c, 0, 77, 0
2, 61200, Control_c, 0, 64, 127
2, 61200, Note_on_c, 0, 76, 78
2, 61320, Note_on_c, 0, 76, 0
2, 61320, Note_on_c, 0, 77, 78
2, 61440, Note_on_c, 0, 77, 0
2, 61440, Note_on_c, 0, 79, 104
2, 61560, Note_on_c, 0, 79, 0
2, 61560, Note_on_c, 0, 77, 78
2, 61680, Note_on_c, 0, 77, 0
2, 61680, Note_on_c, 0, 76, 78
2, 61800, Note_on_c, 0, 76, 0
2, 61800, Control_c, 0, 64, 0
2, 61800, Note_on_c, 0, 79, 78
2, 61920, Note_on_c, 0, 79, 0
2, 61920, Note_on_c, 0, 77, 78
2, 62160, Note_on_c, 0, 77, 0
2, 63120, Control_c, 0, 64, 127
2, 63120, Note_on_c, 0, 72, 78
2, 63300, Note_on_c, 0, 75, 78
2, 63360, Note_on_c, 0, 75, 0
2, 63360, Note_on_c, 0, 72, 0
2, 63360, Note_on_c, 0, 73, 78
2, 63600, Note_on_c, 0, 73, 0
2, 63600, Control_c, 0, 64, 0
2, 63600, Note_on_c, 0, 72, 78
2, 63840, Note_on_c, 0, 72, 0
2, 63840, Note_on_c, 0, 80, 78
2, 65040, Note_on_c, 0, 80, 0
2, 65040, Control_c, 0, 64, 127
2, 65040, Note_on_c, 0, 72, 78
2, 65220, Note_on_c, 0, 75, 78
2, 65280, Note_on_c, 0, 75, 0
2, 65280, Note_on_c, 0, 72, 0
2, 65280, Note_on_c, 0, 73, 78
2, 65520, Note_on_c, 0, 73, 0
2, 65520, Control_c, 0, 64, 0
2, 65520, Note_on_c, 0, 72, 78
2, 65760, Note_on_c, 0, 72, 0
2, 65760, Note_on_c, 0, 70, 78
2, 66960, Note_on_c, 0, 70, 0
2, 66960, Control_c, 0, 64, 127
2, 66960, Note_on_c, 0, 79, 78
2, 66960, Note_on_c, 0, 82, 78
2, 67140, Note_on_c, 0, 85, 78
2, 67200, Note_on_c, 0, 85, 0
2, 67200, Note_on_c, 0, 82, 0
2, 67200, Note_on_c, 0, 79, 0
2, 67200, Note_on_c, 0, 80, 91
2, 67200, Note_on_c, 0, 84, 91
2, 67440, Note_on_c, 0, 84, 0
2, 67440, Note_on_c, 0, 80, 0
2, 67440, Control_c, 0, 64, 0
2, 67440, Note_on_c, 0, 79, 91
2, 67440, Note_on_c, 0, 82, 91
2, 67680, Note_on_c, 0, 82, 0
2, 67680, Note_on_c, 0, 79, 0
2, 67680, Note_on_c, 0, 82, 91
2, 67680, Note_on_c, 0, 91, 91
2, 68400, Note_on_c, 0, 91, 0
2, 68400, Note_on_c, 0, 82, 0
2, 68400, Control_c, 0, 64, 127
2, 68400, Note_on_c, 0, 89, 78
2, 68480, Note_on_c, 0, 89, 0
2, 68480, Note_on_c, 0, 91, 78
2, 68559, Note_on_c, 0, 91, 0
2, 68559, Note_on_c, 0, 89, 78
2, 68640, Note_on_c, 0, 89, 0
2, 68640, Control_c, 0, 64, 0
2, 68640, Note_on_c, 0, 88, 78
2, 68663, Note_on_c, 0, 88, 0
2, 68880, Note_on_c, 0, 85, 65
2, 68960, Note_on_c, 0, 85, 0
2, 68960, Note_on_c, 0, 87, 65
2, 69039, Note_on_c, 0, 87, 0
2, 69039, Note_on_c, 0, 85, 65
2, 69120, Note_on_c, 0, 85, 0
2, 69120, Control_c, 0, 64, 0
2, 69120, Note_on_c, 0, 84, 65
2, 69143, Note_on_c, 0, 84, 0
2, 69360, Control_c, 0, 64, 127
2, 69360, Note_on_c, 0, 82, 65
2, 69440, Note_on_c, 0, 82, 0
2, 69440, Note_on_c, 0, 84, 65
2, 69519, Note_on_c, 0, 84, 0
2, 69519, Note_on_c, 0, 82, 65
2, 69600, Note_on_c, 0, 82, 0
2, 69600, Note_on_c, 0, 80, 65
2, 70560, Control_c, 0, 64, 0
2, 70800, Note_on_c, 0, 80, 0
2, 70800, Control_c, 0, 64, 127
2, 70800, Note_on_c, 0, 80, 65
2, 71040, Note_on_c, 0, 80, 0
2, 71040, Note_on_c, 0, 79, 65
2, 71280, Note_on_c, 0, 79, 0
2, 71280, Control_c, 0, 64, 0
2, 71280, Note_on_c, 0, 77, 65
2, 71520, Note_on_c, 0, 77, 0
2, 71520, Control_c, 0, 64, 127
2, 71520, Note_on_c, 0, 84, 65
2, 71580, Note_on_c, 0, 84, 0
2, 71580, Note_on_c, 0, 80, 65
2, 71640, Note_on_c, 0, 80, 0
2, 71640, Note_on_c, 0, 84, 65
2, 71700, Note_on_c, 0, 84, 0
2, 71700, Note_on_c, 0, 80, 65
2, 71760, Note_on_c, 0, 80, 0
2, 71760, Note_on_c, 0, 84, 65
2, 71820, Note_on_c, 0, 84, 0
2, 71820, Note_on_c, 0, 80, 65
2, 71880, Note_on_c, 0, 80, 0
2, 71880, Note_on_c, 0, 84, 65
2, 71940, Note_on_c, 0, 84, 0
2, 71940, Note_on_c, 0, 80, 65
2, 72000, Note_on_c, 0, 80, 0
2, 72000, Note_on_c, 0, 84, 65
2, 72060, Note_on_c, 0, 84, 0
2, 72060, Note_on_c, 0, 80, 65
2, 72120, Note_on_c, 0, 80, 0
2, 72120, Note_on_c, 0, 84, 65
2, 72180, Note_on_c, 0, 84, 0
2, 72180, Note_on_c, 0, 80, 65
2, 72240, Note_on_c, 0, 80, 0
2, 72240, Note_on_c, 0, 84, 65
2, 72300, Note_on_c, 0, 84, 0
2, 72300, Note_on_c, 0, 80, 65
2, 72360, Note_on_c, 0, 80, 0
2, 72360, Note_on_c, 0, 84, 65
2, 72420, Note_on_c, 0, 84, 0
2, 72420, Control_c, 0, 64, 0
2, 72420, Note_on_c, 0, 80, 65
2, 72480, Note_on_c, 0, 80, 0
2, 72480, Note_on_c, 0, 84, 65
2, 72720, Note_on_c, 0, 84, 0
2, 72720, Control_c, 0, 64, 127
2, 72720, Note_on_c, 0, 80, 65
2, 72960, Note_on_c, 0, 80, 0
2, 72960, Note_on_c, 0, 79, 65
2, 73200, Note_on_c, 0, 79, 0
2, 73200, Control_c, 0, 64, 0
2, 73200, Note_on_c, 0, 77, 65
2, 73440, Note_on_c, 0, 77, 0
2, 73440, Control_c, 0, 64, 127
2, 73440, Note_on_c, 0, 85, 65
2, 73500, Note_on_c, 0, 85, 0
2, 73500, Note_on_c, 0, 82, 65
2, 73560, Note_on_c, 0, 82, 0
2, 73560, Note_on_c, 0, 85, 65
2, 73620, Note_on_c, 0, 85, 0
2, 73620, Note_on_c, 0, 82, 65
2, 73680, Note_on_c, 0, 82, 0
2, 73680, Note_on_c, 0, 85, 65
2, 73740, Note_on_c, 0, 85, 0
2, 73740, Note_on_c, 0, 82, 65
2, 73800, Note_on_c, 0, 82, 0
2, 73800, Note_on_c, 0, 85, 65
2, 73860, Note_on_c, 0, 85, 0
2, 73860, Note_on_c, 0, 82, 65
2, 73920, Note_on_c, 0, 82, 0
2, 73920, Note_on_c, 0, 85, 65
2, 73980, Note_on_c, 0, 85, 0
2, 73980, Note_on_c, 0, 82, 65
2, 74040, Note_on_c, 0, 82, 0
2, 74040, Note_on_c, 0, 85, 65
2, 74100, Note_on_c, 0, 85, 0
2, 74100, Note_on_c, 0, 82, 65
2, 74160, Note_on_c, 0, 82, 0
2, 74160, Note_on_c, 0, 85, 65
2, 74220, Note_on_c, 0, 85, 0
2, 74220, Note_on_c, 0, 82, 65
2, 74280, Note_on_c, 0, 82, 0
2, 74280, Note_on_c, 0, 85, 65
2, 74340, Note_on_c, 0, 85, 0
2, 74340, Control_c, 0, 64, 0
2, 74340, Note_on_c, 0, 82, 65
2, 74400, Note_on_c, 0, 82, 0
2, 74400, Note_on_c, 0, 85, 65
2, 74640, Note_on_c, 0, 85, 0
2, 74640, Control_c, 0, 64, 127
2, 74640, Note_on_c, 0, 82, 65
2, 74640, Note_on_c, 0, 85, 65
2, 74880, Note_on_c, 0, 85, 0
2, 74880, Note_on_c, 0, 82, 0
2, 74880, Note_on_c, 0, 80, 65
2, 74880, Note_on_c, 0, 84, 65
2, 75120, Note_on_c, 0, 84, 0
2, 75120, Note_on_c, 0, 80, 0
2, 75120, Control_c, 0, 64, 0
2, 75120, Note_on_c, 0, 79, 65
2, 75120, Note_on_c, 0, 82, 65
2, 75360, Note_on_c, 0, 82, 0
2, 75360, Note_on_c, 0, 79, 0
2, 75360, Note_on_c, 0, 77, 78
2, 75360, Note_on_c, 0, 80, 78
2, 75780, Note_on_c, 0, 83, 78
2, 75840, Note_on_c, 0, 83, 0
2, 75840, Note_on_c, 0, 80, 0
2, 75840, Note_on_c, 0, 77, 0
2, 75840, Note_on_c, 0, 77, 78
2, 75840, Note_on_c, 0, 80, 78
2, 75840, Note_on_c, 0, 84, 78
2, 76320, Note_on_c, 0, 84, 0
2, 76320, Note_on_c, 0, 80, 0
2, 76320, Note_on_c, 0, 77, 0
2, 76320, Note_on_c, 0, 76, 78
2, 76320, Note_on_c, 0, 79, 78
2, 76740, Note_on_c, 0, 83, 78
2, 76800, Note_on_c, 0, 83, 0
2, 76800, Note_on_c, 0, 79, 0
2, 76800, Note_on_c, 0, 76, 0
2, 76800, Note_on_c, 0, 76, 78
2, 76800, Note_on_c, 0, 79, 78
2, 76800, Note_on_c, 0, 84, 78
2, 77280, Note_on_c, 0, 84, 0
2, 77280, Note_on_c, 0, 79, 0
2, 77280, Note_on_c, 0, 76, 0
2, 77280, Note_on_c, 0, 77, 78
2, 78240, Note_on_c, 0, 77, 0
2, 78240, Note_on_c, 0, 77, 104
2, 78240, Note_on_c, 0, 80, 104
2, 78240, Note_on_c, 0, 84, 104
2, 78240, Note_on_c, 0, 89, 104
2, 78263, Note_on_c, 0, 89, 0
2, 78263, Note_on_c, 0, 77, 0
2, 78263, Note_on_c, 0, 80, 0
2, 78263, Note_on_c, 0, 84, 0
2, 80400, Control_c, 0, 64, 127
2, 80400, Note_on_c, 0, 84, 52
2, 80640, Note_on_c, 0, 84, 0
2, 80640, Note_on_c, 0, 86, 52
2, 80880, Note_on_c, 0, 86, 0
2, 80880, Note_on_c, 0, 88, 52
2, 81120, Note_on_c, 0, 88, 0
2, 81120, Note_on_c, 0, 89, 52
2, 81360, Note_on_c, 0, 89, 0
2, 81360, Control_c, 0, 64, 0
2, 81360, Note_on_c, 0, 91, 52
2, 81540, Note_on_c, 0, 92, 52
2, 81600, Note_on_c, 0, 91, 0
2, 81600, Note_on_c, 0, 93, 52
2, 82260, Note_on_c, 0, 88, 52
2, 82320, Note_on_c, 0, 93, 0
2, 82320, Note_on_c, 0, 92, 0
2, 82320, Note_on_c, 0, 89, 52
2, 82500, Note_on_c, 0, 83, 52
2, 82560, Note_on_c, 0, 89, 0
2, 82560, Note_on_c, 0, 88, 0
2, 82560, Note_on_c, 0, 84, 52
2, 83220, Note_on_c, 0, 88, 52
2, 83280, Note_on_c, 0, 84, 0
2, 83280, Note_on_c, 0, 83, 0
2, 83280, Note_on_c, 0, 89, 52
2, 83460, Note_on_c, 0, 85, 52
2, 83520, Note_on_c, 0, 89, 0
2, 83520, Note_on_c, 0, 88, 0
2, 83520, Note_on_c, 0, 86, 52
2, 84180, Note_on_c, 0, 93, 52
2, 84240, Note_on_c, 0, 86, 0
2, 84240, Note_on_c, 0, 85, 0
2, 84240, Note_on_c, 0, 94, 52
2, 84420, Note_on_c, 0, 92, 52
2, 84480, Note_on_c, 0, 94, 0
2, 84480, Note_on_c, 0, 93, 0
2, 84480, Note_on_c, 0, 93, 52
2, 84900, Note_on_c, 0, 88, 52
2, 84960, Note_on_c, 0, 93, 0
2, 84960, Note_on_c, 0, 92, 0
2, 84960, Note_on_c, 0, 89, 52
2, 85380, Note_on_c, 0, 90, 52
2, 85440, Note_on_c, 0, 89, 0
2, 85440, Note_on_c, 0, 88, 0
2, 85440, Note_on_c, 0, 91, 52
2, 85860, Note_on_c, 0, 92, 52
2, 85920, Note_on_c, 0, 91, 0
2, 85920, Note_on_c, 0, 90, 0
2, 85920, Note_on_c, 0, 93, 52
2, 86340, Note_on_c, 0, 88, 52
2, 86400, Note_on_c, 0, 93, 0
2, 86400, Note_on_c, 0, 92, 0
2, 86400, Note_on_c, 0, 89, 52
2, 86520, Note_on_c, 0, 89, 0
2, 86520, Note_on_c, 0, 88, 0
2, 86520, Note_on_c, 0, 84, 52
2, 86640, Note_on_c, 0, 84, 0
2, 86640, Note_on_c, 0, 86, 52
2, 86760, Note_on_c, 0, 86, 0
2, 86760, Note_on_c, 0, 88, 52
2, 86880, Note_on_c, 0, 88, 0
2, 86880, Note_on_c, 0, 89, 78
2, 86940, Note_on_c, 0, 89, 0
2, 86940, Note_on_c, 0, 88, 52
2, 87060, Note_on_c, 0, 88, 0
2, 87120, Note_on_c, 0, 91, 78
2, 87180, Note_on_c, 0, 91, 0
2, 87180, Note_on_c, 0, 89, 52
2, 87300, Note_on_c, 0, 89, 0
2, 87300, Note_on_c, 0, 92, 52
2, 87360, Note_on_c, 0, 93, 52
2, 88020, Note_on_c, 0, 88, 52
2, 88080, Note_on_c, 0, 93, 0
2, 88080, Note_on_c, 0, 92, 0
2, 88080, Note_on_c, 0, 89, 52
2, 88260, Note_on_c, 0, 83, 52
2, 88320, Note_on_c, 0, 89, 0
2, 88320, Note_on_c, 0, 88, 0
2, 88320, Note_on_c, 0, 84, 52
2, 88980, Note_on_c, 0, 88, 52
2, 89040, Note_on_c, 0, 84, 0
2, 89040, Note_on_c, 0, 83, 0
2, 89040, Note_on_c, 0, 89, 52
2, 89220, Note_on_c, 0, 85, 52
2, 89280, Note_on_c, 0, 89, 0
2, 89280, Note_on_c, 0, 88, 0
2, 89280, Note_on_c, 0, 86, 52
2, 89940, Note_on_c, 0, 93, 52
2, 90000, Note_on_c, 0, 86, 0
2, 90000, Note_on_c, 0, 85, 0
2, 90000, Note_on_c, 0, 94, 52
2, 90180, Note_on_c, 0, 92, 52
2, 90240, Note_on_c, 0, 94, 0
2, 90240, Note_on_c, 0, 93, 0
2, 90240, Note_on_c, 0, 93, 52
2, 90660, Note_on_c, 0, 88, 52
2, 90720, Note_on_c, 0, 93, 0
2, 90720, Note_on_c, 0, 92, 0
2, 90720, Note_on_c, 0, 89, 52
2, 91140, Note_on_c, 0, 90, 52
2, 91200, Note_on_c, 0, 89, 0
2, 91200, Note_on_c, 0, 88, 0
2, 91200, Note_on_c, 0, 91, 52
2, 91620, Note_on_c, 0, 92, 52
2, 91680, Note_on_c, 0, 91, 0
2, 91680, Note_on_c, 0, 90, 0
2, 91680, Note_on_c, 0, 93, 52
2, 92100, Note_on_c, 0, 88, 52
2, 92160, Note_on_c, 0, 93, 0
2, 92160, Note_on_c, 0, 92, 0
2, 92160, Control_c, 0, 64, 127
2, 92160, Note_on_c, 0, 89, 52
2, 92280, Note_on_c, 0, 89, 0
2, 92280, Note_on_c, 0, 88, 0
2, 92280, Note_on_c, 0, 82, 52
2, 92400, Note_on_c, 0, 82, 0
2, 92400, Note_on_c, 0, 86, 52
2, 92520, Note_on_c, 0, 86, 0
2, 92520, Note_on_c, 0, 88, 52
2, 92640, Note_on_c, 0, 88, 0
2, 92640, Control_c, 0, 64, 0
2, 92640, Note_on_c, 0, 89, 52
2, 92880, Note_on_c, 0, 89, 0
2, 92880, Note_on_c, 0, 89, 52
2, 92903, Note_on_c, 0, 89, 0
2, 93060, Note_on_c, 0, 97, 52
2, 93120, Note_on_c, 0, 98, 52
2, 93780, Note_on_c, 0, 97, 52
2, 93840, Note_on_c, 0, 98, 0
2, 93840, Note_on_c, 0, 97, 0
2, 93840, Note_on_c, 0, 98, 52
2, 94020, Note_on_c, 0, 95, 52
2, 94080, Note_on_c, 0, 98, 0
2, 94080, Note_on_c, 0, 97, 0
2, 94080, Note_on_c, 0, 96, 52
2, 94500, Note_on_c, 0, 93, 52
2, 94560, Note_on_c, 0, 96, 0
2, 94560, Note_on_c, 0, 95, 0
2, 94560, Note_on_c, 0, 94, 52
2, 94980, Note_on_c, 0, 92, 52
2, 95040, Note_on_c, 0, 94, 0
2, 95040, Note_on_c, 0, 93, 0
2, 95040, Note_on_c, 0, 93, 52
2, 95700, Note_on_c, 0, 92, 52
2, 95760, Note_on_c, 0, 93, 0
2, 95760, Note_on_c, 0, 92, 0
2, 95760, Note_on_c, 0, 93, 52
2, 95940, Note_on_c, 0, 90, 52
2, 96000, Note_on_c, 0, 93, 0
2, 96000, Note_on_c, 0, 92, 0
2, 96000, Note_on_c, 0, 91, 52
2, 96420, Note_on_c, 0, 88, 52
2, 96480, Note_on_c, 0, 91, 0
2, 96480, Note_on_c, 0, 90, 0
2, 96480, Note_on_c, 0, 89, 52
2, 96900, Note_on_c, 0, 87, 52
2, 96960, Note_on_c, 0, 89, 0
2, 96960, Note_on_c, 0, 88, 0
2, 96960, Note_on_c, 0, 88, 52
2, 97380, Note_on_c, 0, 88, 52
2, 97440, Note_on_c, 0, 88, 0
2, 97440, Note_on_c, 0, 87, 0
2, 97440, Note_on_c, 0, 89, 52
2, 97860, Note_on_c, 0, 85, 52
2, 97920, Note_on_c, 0, 89, 0
2, 97920, Note_on_c, 0, 88, 0
2, 97920, Control_c, 0, 64, 127
2, 97920, Note_on_c, 0, 86, 65
2, 98040, Note_on_c, 0, 86, 0
2, 98040, Note_on_c, 0, 85, 0
2, 98040, Note_on_c, 0, 81, 65
2, 98160, Note_on_c, 0, 81, 0
2, 98160, Note_on_c, 0, 83, 65
2, 98280, Note_on_c, 0, 83, 0
2, 98280, Note_on_c, 0, 85, 65
2, 98400, Note_on_c, 0, 85, 0
2, 98400, Control_c, 0, 64, 0
2, 98400, Note_on_c, 0, 86, 65
2, 98423, Note_on_c, 0, 86, 0
2, 98640, Note_on_c, 0, 89, 65
2, 98663, Note_on_c, 0, 89, 0
2, 98820, Note_on_c, 0, 97, 65
2, 98880, Note_on_c, 0, 98, 65
2, 99540, Note_on_c, 0, 97, 65
2, 99600, Note_on_c, 0, 98, 0
2, 99600, Note_on_c, 0, 97, 0
2, 99600, Note_on_c, 0, 98, 65
2, 99780, Note_on_c, 0, 95, 65
2, 99840, Note_on_c, 0, 98, 0
2, 99840, Note_on_c, 0, 97, 0
2, 99840, Note_on_c, 0, 96, 65
2, 100260, Note_on_c, 0, 93, 65
2, 100320, Note_on_c, 0, 96, 0
2, 100320, Note_on_c, 0, 95, 0
2, 100320, Note_on_c, 0, 94, 65
2, 100740, Note_on_c, 0, 92, 65
2, 100800, Note_on_c, 0, 94, 0
2, 100800, Note_on_c, 0, 93, 0
2, 100800, Note_on_c, 0, 93, 65
2, 101460, Note_on_c, 0, 92, 65
2, 101520, Note_on_c, 0, 93, 0
2, 101520, Note_on_c, 0, 92, 0
2, 101520, Note_on_c, 0, 93, 65
2, 101700, Note_on_c, 0, 90, 65
2, 101760, Note_on_c, 0, 93, 0
2, 101760, Note_on_c, 0, 92, 0
2, 101760, Note_on_c, 0, 91, 65
2, 102180, Note_on_c, 0, 88, 65
2, 102240, Note_on_c, 0, 91, 0
2, 102240, Note_on_c, 0, 90, 0
2, 102240, Note_on_c, 0, 89, 65
2, 102660, Note_on_c, 0, 87, 65
2, 102720, Note_on_c, 0, 89, 0
2, 102720, Note_on_c, 0, 88, 0
2, 102720, Note_on_c, 0, 88, 65
2, 103140, Note_on_c, 0, 88, 65
2, 103200, Note_on_c, 0, 88, 0
2, 103200, Note_on_c, 0, 87, 0
2, 103200, Note_on_c, 0, 89, 65
2, 103620, Note_on_c, 0, 85, 65
2, 103680, Note_on_c, 0, 89, 0
2, 103680, Note_on_c, 0, 88, 0
2, 103680, Note_on_c, 0, 86, 65
2, 103800, Note_on_c, 0, 86, 0
2, 103800, Note_on_c, 0, 85, 0
2, 103800, Note_on_c, 0, 81, 65
2, 103920, Note_on_c, 0, 81, 0
2, 103920, Note_on_c, 0, 83, 65
2, 104040, Note_on_c, 0, 83, 0
2, 104040, Note_on_c, 0, 85, 65
2, 104160, Note_on_c, 0, 85, 0
2, 104160, Note_on_c, 0, 86, 65
2, 104183, Note_on_c, 0, 86, 0
2, 104400, Note_on_c, 0, 84, 91
2, 104423, Note_on_c, 0, 84, 0
2, 104580, Note_on_c, 0, 92, 65
2, 104640, Note_on_c, 0, 93, 78
2, 105300, Note_on_c, 0, 88, 78
2, 105360, Note_on_c, 0, 93, 0
2, 105360, Note_on_c, 0, 92, 0
2, 105360, Note_on_c, 0, 89, 78
2, 105540, Note_on_c, 0, 83, 78
2, 105600, Note_on_c, 0, 89, 0
2, 105600, Note_on_c, 0, 88, 0
2, 105600, Note_on_c, 0, 84, 78
2, 106260, Note_on_c, 0, 88, 78
2, 106320, Note_on_c, 0, 84, 0
2, 106320, Note_on_c, 0, 83, 0
2, 106320, Note_on_c, 0, 89, 78
2, 106500, Note_on_c, 0, 85, 78
2, 106560, Note_on_c, 0, 89, 0
2, 106560, Note_on_c, 0, 88, 0
2, 106560, Note_on_c, 0, 86, 78
2, 107220, Note_on_c, 0, 93, 78
2, 107280, Note_on_c, 0, 86, 0
2, 107280, Note_on_c, 0, 85, 0
2, 107280, Note_on_c, 0, 94, 78
2, 107460, Note_on_c, 0, 92, 78
2, 107520, Note_on_c, 0, 94, 0
2, 107520, Note_on_c, 0, 93, 0
2, 107520, Note_on_c, 0, 93, 78
2, 107940, Note_on_c, 0, 88, 78
2, 108000, Note_on_c, 0, 93, 0
2, 108000, Note_on_c, 0, 92, 0
2, 108000, Note_on_c, 0, 89, 78
2, 108420, Note_on_c, 0, 90, 78
2, 108480, Note_on_c, 0, 89, 0
2, 108480, Note_on_c, 0, 88, 0
2, 108480, Note_on_c, 0, 91, 78
2, 108900, Note_on_c, 0, 92, 78
2, 108960, Note_on_c, 0, 91, 0
2, 108960, Note_on_c, 0, 90, 0
2, 108960, Note_on_c, 0, 93, 78
2, 109380, Note_on_c, 0, 88, 78
2, 109440, Note_on_c, 0, 93, 0
2, 109440, Note_on_c, 0, 92, 0
2, 109440, Note_on_c, 0, 89, 78
2, 109560, Note_on_c, 0, 89, 0
2, 109560, Note_on_c, 0, 88, 0
2, 109560, Note_on_c, 0, 84, 78
2, 109680, Note_on_c, 0, 84, 0
2, 109680, Note_on_c, 0, 86, 78
2, 109800, Note_on_c, 0, 86, 0
2, 109800, Note_on_c, 0, 88, 78
2, 109920, Note_on_c, 0, 88, 0
2, 109920, Note_on_c, 0, 89, 104
2, 109980, Note_on_c, 0, 89, 0
2, 109980, Note_on_c, 0, 88, 78
2, 110100, Note_on_c, 0, 88, 0
2, 110160, Note_on_c, 0, 91, 104
2, 110220, Note_on_c, 0, 91, 0
2, 110220, Note_on_c, 0, 89, 78
2, 110340, Note_on_c, 0, 89, 0
2, 110340, Note_on_c, 0, 92, 78
2, 110400, Note_on_c, 0, 93, 78
2, 111060, Note_on_c, 0, 88, 78
2, 111120, Note_on_c, 0, 93, 0
2, 111120, Note_on_c, 0, 92, 0
2, 111120, Note_on_c, 0, 89, 78
2, 111300, Note_on_c, 0, 83, 78
2, 111360, Note_on_c, 0, 89, 0
2, 111360, Note_on_c, 0, 88, 0
2, 111360, Note_on_c, 0, 84, 78
2, 112020, Note_on_c, 0, 88, 78
2, 112080, Note_on_c, 0, 84, 0
2, 112080, Note_on_c, 0, 83, 0
2, 112080, Note_on_c, 0, 89, 78
2, 112260, Note_on_c, 0, 85, 78
2, 112320, Note_on_c, 0, 89, 0
2, 112320, Note_on_c, 0, 88, 0
2, 112320, Note_on_c, 0, 86, 78
2, 112980, Note_on_c, 0, 93, 78
2, 113040, Note_on_c, 0, 86, 0
2, 113040, Note_on_c, 0, 85, 0
2, 113040, Note_on_c, 0, 94, 78
2, 113220, Note_on_c, 0, 92, 78
2, 113280, Note_on_c, 0, 94, 0
2, 113280, Note_on_c, 0, 93, 0
2, 113280, Note_on_c, 0, 93, 78
2, 113700, Note_on_c, 0, 88, 78
2, 113760, Note_on_c, 0, 93, 0
2, 113760, Note_on_c, 0, 92, 0
2, 113760, Note_on_c, 0, 89, 78
2, 114180, Note_on_c, 0, 90, 78
2, 114240, Note_on_c, 0, 89, 0
2, 114240, Note_on_c, 0, 88, 0
2, 114240, Note_on_c, 0, 91, 78
2, 114660, Note_on_c, 0, 92, 78
2, 114720, Note_on_c, 0, 91, 0
2, 114720, Note_on_c, 0, 90, 0
2, 114720, Note_on_c, 0, 93, 78
2, 115140, Note_on_c, 0, 88, 78
2, 115200, Note_on_c, 0, 93, 0
2, 115200, Note_on_c, 0, 92, 0
2, 115200, Note_on_c, 0, 89, 78
2, 115320, Note_on_c, 0, 89, 0
2, 115320, Note_on_c, 0, 88, 0
2, 115320, Note_on_c, 0, 84, 78
2, 115440, Note_on_c, 0, 84, 0
2, 115440, Note_on_c, 0, 86, 78
2, 115560, Note_on_c, 0, 86, 0
2, 115560, Note_on_c, 0, 88, 78
2, 115680, Note_on_c, 0, 88, 0
2, 115680, Note_on_c, 0, 89, 78
2, 115703, Note_on_c, 0, 89, 0
2, 115920, Note_on_c, 0, 89, 104
2, 115943, Note_on_c, 0, 89, 0
2, 116100, Note_on_c, 0, 97, 78
2, 116160, Note_on_c, 0, 98, 91
2, 116820, Note_on_c, 0, 97, 91
2, 116880, Note_on_c, 0, 98, 0
2, 116880, Note_on_c, 0, 97, 0
2, 116880, Note_on_c, 0, 98, 91
2, 117060, Note_on_c, 0, 95, 91
2, 117120, Note_on_c, 0, 98, 0
2, 117120, Note_on_c, 0, 97, 0
2, 117120, Note_on_c, 0, 96, 91
2, 117540, Note_on_c, 0, 93, 91
2, 117600, Note_on_c, 0, 96, 0
2, 117600, Note_on_c, 0, 95, 0
2, 117600, Note_on_c, 0, 94, 91
2, 118020, Note_on_c, 0, 92, 91
2, 118080, Note_on_c, 0, 94, 0
2, 118080, Note_on_c, 0, 93, 0
2, 118080, Note_on_c, 0, 93, 91
2, 118740, Note_on_c, 0, 92, 91
2, 118800, Note_on_c, 0, 93, 0
2, 118800, Note_on_c, 0, 92, 0
2, 118800, Note_on_c, 0, 93, 91
2, 118980, Note_on_c, 0, 90, 91
2, 119040, Note_on_c, 0, 93, 0
2, 119040, Note_on_c, 0, 92, 0
2, 119040, Note_on_c, 0, 91, 91
2, 119460, Note_on_c, 0, 88, 91
2, 119520, Note_on_c, 0, 91, 0
2, 119520, Note_on_c, 0, 90, 0
2, 119520, Note_on_c, 0, 89, 91
2, 119940, Note_on_c, 0, 87, 91
2, 120000, Note_on_c, 0, 89, 0
2, 120000, Note_on_c, 0, 88, 0
2, 120000, Note_on_c, 0, 88, 91
2, 120420, Note_on_c, 0, 88, 91
2, 120480, Note_on_c, 0, 88, 0
2, 120480, Note_on_c, 0, 87, 0
2, 120480, Note_on_c, 0, 89, 91
2, 120900, Note_on_c, 0, 85, 91
2, 120960, Note_on_c, 0, 89, 0
2, 120960, Note_on_c, 0, 88, 0
2, 120960, Control_c, 0, 64, 127
2, 120960, Note_on_c, 0, 86, 91
2, 121080, Note_on_c, 0, 86, 0
2, 121080, Note_on_c, 0, 85, 0
2, 121080, Note_on_c, 0, 81, 91
2, 121200, Note_on_c, 0, 81, 0
2, 121200, Note_on_c, 0, 83, 91
2, 121320, Note_on_c, 0, 83, 0
2, 121320, Note_on_c, 0, 85, 91
2, 121440, Note_on_c, 0, 85, 0
2, 121440, Control_c, 0, 64, 0
2, 121440, Note_on_c, 0, 86, 91
2, 121463, Note_on_c, 0, 86, 0
2, 121680, Note_on_c, 0, 89, 91
2, 121703, Note_on_c, 0, 89, 0
2, 121860, Note_on_c, 0, 97, 91
2, 121920, Note_on_c, 0, 98, 78
2, 122580, Note_on_c, 0, 97, 78
2, 122640, Note_on_c, 0, 98, 0
2, 122640, Note_on_c, 0, 97, 0
2, 122640, Note_on_c, 0, 98, 78
2, 122820, Note_on_c, 0, 95, 78
2, 122880, Note_on_c, 0, 98, 0
2, 122880, Note_on_c, 0, 97, 0
2, 122880, Note_on_c, 0, 96, 78
2, 123300, Note_on_c, 0, 93, 78
2, 123360, Note_on_c, 0, 96, 0
2, 123360, Note_on_c, 0, 95, 0
2, 123360, Note_on_c, 0, 94, 78
2, 123780, Note_on_c, 0, 92, 78
2, 123840, Note_on_c, 0, 94, 0
2, 123840, Note_on_c, 0, 93, 0
2, 123840, Note_on_c, 0, 93, 65
2, 124500, Note_on_c, 0, 92, 65
2, 124560, Note_on_c, 0, 93, 0
2, 124560, Note_on_c, 0, 92, 0
2, 124560, Note_on_c, 0, 93, 65
2, 124740, Note_on_c, 0, 90, 65
2, 124800, Note_on_c, 0, 93, 0
2, 124800, Note_on_c, 0, 92, 0
2, 124800, Note_on_c, 0, 91, 65
2, 125220, Note_on_c, 0, 88, 65
2, 125280, Note_on_c, 0, 91, 0
2, 125280, Note_on_c, 0, 90, 0
2, 125280, Note_on_c, 0, 89, 65
2, 125700, Note_on_c, 0, 87, 65
2, 125760, Note_on_c, 0, 89, 0
2, 125760, Note_on_c, 0, 88, 0
2, 125760, Note_on_c, 0, 88, 52
2, 126180, Note_on_c, 0, 88, 52
2, 126240, Note_on_c, 0, 88, 0
2, 126240, Note_on_c, 0, 87, 0
2, 126240, Note_on_c, 0, 89, 52
2, 126660, Note_on_c, 0, 85, 52
2, 126720, Note_on_c, 0, 89, 0
2, 126720, Note_on_c, 0, 88, 0
2, 126720, Control_c, 0, 64, 127
2, 126720, Note_on_c, 0, 86, 52
2, 126840, Note_on_c, 0, 86, 0
2, 126840, Note_on_c, 0, 85, 0
2, 126840, Note_on_c, 0, 81, 52
2, 126960, Note_on_c, 0, 81, 0
2, 126960, Note_on_c, 0, 83, 52
2, 127080, Note_on_c, 0, 83, 0
2, 127080, Note_on_c, 0, 85, 52
2, 127200, Note_on_c, 0, 85, 0
2, 127200, Control_c, 0, 64, 0
2, 127200, Note_on_c, 0, 86, 52
2, 127223, Note_on_c, 0, 86, 0
2, 127440, Note_on_c, 0, 84, 52
2, 127463, Note_on_c, 0, 84, 0
2, 127680, Note_on_c, 0, 84, 52
2, 127680, Note_on_c, 0, 93, 52
2, 128640, Note_on_c, 0, 93, 0
2, 128640, Note_on_c, 0, 84, 0
2, 129120, Note_on_c, 0, 72, 52
2, 129600, Note_on_c, 0, 72, 0
2, 129600, Note_on_c, 0, 72, 52
2, 129600, Note_on_c, 0, 81, 52
2, 130560, Note_on_c, 0, 81, 0
2, 130560, Note_on_c, 0, 72, 0
2, 136560, Control_c, 0, 64, 127
2, 136560, Note_on_c, 0, 80, 65
2, 136560, Note_on_c, 0, 84, 65
2, 136560, Note_on_c, 0, 92, 65
2, 137040, Note_on_c, 0, 92, 0
2, 137040, Note_on_c, 0, 84, 0
2, 137040, Note_on_c, 0, 80, 0
2, 137040, Note_on_c, 0, 79, 65
2, 137040, Note_on_c, 0, 84, 65
2, 137040, Note_on_c, 0, 91, 65
2, 137520, Note_on_c, 0, 91, 0
2, 137520, Note_on_c, 0, 84, 0
2, 137520, Note_on_c, 0, 79, 0
2, 137520, Note_on_c, 0, 77, 65
2, 137520, Note_on_c, 0, 84, 65
2, 137520, Note_on_c, 0, 89, 65
2, 138000, Note_on_c, 0, 89, 0
2, 138000, Note_on_c, 0, 84, 0
2, 138000, Note_on_c, 0, 77, 0
2, 138000, Control_c, 0, 64, 0
2, 138000, Note_on_c, 0, 80, 65
2, 138000, Note_on_c, 0, 84, 65
2, 138240, Note_on_c, 0, 84, 0
2, 138240, Note_on_c, 0, 80, 0
2, 138480, Control_c, 0, 64, 127
2, 138480, Note_on_c, 0, 77, 65
2, 138480, Note_on_c, 0, 79, 65
2, 138480, Note_on_c, 0, 82, 65
2, 138480, Note_on_c, 0, 89, 65
2, 138960, Note_on_c, 0, 89, 0
2, 138960, Note_on_c, 0, 77, 0
2, 138960, Note_on_c, 0, 79, 0
2, 138960, Note_on_c, 0, 82, 0
2, 138960, Note_on_c, 0, 75, 65
2, 138960, Note_on_c, 0, 79, 65
2, 138960, Note_on_c, 0, 82, 65
2, 138960, Note_on_c, 0, 87, 65
2, 139440, Note_on_c, 0, 87, 0
2, 139440, Note_on_c, 0, 75, 0
2, 139440, Note_on_c, 0, 79, 0
2, 139440, Note_on_c, 0, 82, 0
2, 139440, Note_on_c, 0, 73, 65
2, 139440, Note_on_c, 0, 77, 65
2, 139440, Note_on_c, 0, 85, 65
2, 139920, Note_on_c, 0, 85, 0
2, 139920, Note_on_c, 0, 77, 0
2, 139920, Note_on_c, 0, 73, 0
2, 139920, Control_c, 0, 64, 0
2, 139920, Note_on_c, 0, 73, 65
2, 139920, Note_on_c, 0, 77, 65
2, 139920, Note_on_c, 0, 79, 65
2, 140160, Note_on_c, 0, 79, 0
2, 140160, Note_on_c, 0, 77, 0
2, 140160, Note_on_c, 0, 73, 0
2, 140400, Control_c, 0, 64, 127
2, 140400, Note_on_c, 0, 79, 65
2, 140400, Note_on_c, 0, 82, 65
2, 140400, Note_on_c, 0, 91, 65
2, 140880, Note_on_c, 0, 91, 0
2, 140880, Note_on_c, 0, 82, 0
2, 140880, Note_on_c, 0, 79, 0
2, 140880, Note_on_c, 0, 77, 65
2, 140880, Note_on_c, 0, 82, 65
2, 140880, Note_on_c, 0, 89, 65
2, 141360, Note_on_c, 0, 89, 0
2, 141360, Note_on_c, 0, 82, 0
2, 141360, Note_on_c, 0, 77, 0
2, 141360, Note_on_c, 0, 76, 65
2, 141360, Note_on_c, 0, 79, 65
2, 141360, Note_on_c, 0, 88, 65
2, 141840, Note_on_c, 0, 88, 0
2, 141840, Note_on_c, 0, 79, 0
2, 141840, Note_on_c, 0, 76, 0
2, 141840, Control_c, 0, 64, 0
2, 141840, Note_on_c, 0, 76, 65
2, 141840, Note_on_c, 0, 79, 65
2, 142080, Note_on_c, 0, 79, 0
2, 142080, Note_on_c, 0, 76, 0
2, 142320, Control_c, 0, 64, 127
2, 142320, Note_on_c, 0, 79, 65
2, 142320, Note_on_c, 0, 84, 65
2, 142320, Note_on_c, 0, 91, 65
2, 142800, Note_on_c, 0, 91, 0
2, 142800, Note_on_c, 0, 84, 0
2, 142800, Note_on_c, 0, 79, 0
2, 142800, Note_on_c, 0, 77, 65
2, 142800, Note_on_c, 0, 84, 65
2, 142800, Note_on_c, 0, 89, 65
2, 143280, Note_on_c, 0, 89, 0
2, 143280, Note_on_c, 0, 84, 0
2, 143280, Note_on_c, 0, 77, 0
2, 143280, Note_on_c, 0, 72, 65
2, 143280, Note_on_c, 0, 77, 65
2, 143280, Note_on_c, 0, 84, 65
2, 143760, Note_on_c, 0, 84, 0
2, 143760, Note_on_c, 0, 77, 0
2, 143760, Note_on_c, 0, 72, 0
2, 143760, Control_c, 0, 64, 0
2, 143760, Note_on_c, 0, 72, 65
2, 143760, Note_on_c, 0, 77, 65
2, 143760, Note_on_c, 0, 80, 65
2, 144000, Note_on_c, 0, 80, 0
2, 144000, Note_on_c, 0, 77, 0
2, 144000, Note_on_c, 0, 72, 0
2, 144240, Control_c, 0, 64, 127
2, 144240, Note_on_c, 0, 77, 65
2, 144240, Note_on_c, 0, 84, 65
2, 144240, Note_on_c, 0, 89, 65
2, 144720, Note_on_c, 0, 89, 0
2, 144720, Note_on_c, 0, 84, 0
2, 144720, Note_on_c, 0, 77, 0
2, 144720, Note_on_c, 0, 72, 65
2, 144720, Note_on_c, 0, 77, 65
2, 144720, Note_on_c, 0, 84, 65
2, 145200, Note_on_c, 0, 84, 0
2, 145200, Note_on_c, 0, 77, 0
2, 145200, Note_on_c, 0, 72, 0
2, 145200, Note_on_c, 0, 72, 65
2, 145200, Note_on_c, 0, 77, 65
2, 145200, Note_on_c, 0, 80, 65
2, 145680, Note_on_c, 0, 80, 0
2, 145680, Note_on_c, 0, 77, 0
2, 145680, Note_on_c, 0, 72, 0
2, 145680, Control_c, 0, 64, 0
2, 145680, Note_on_c, 0, 72, 65
2, 145680, Note_on_c, 0, 77, 65
2, 145920, Note_on_c, 0, 77, 0
2, 145920, Note_on_c, 0, 72, 0
2, 146160, Control_c, 0, 64, 127
2, 146160, Note_on_c, 0, 77, 65
2, 146160, Note_on_c, 0, 79, 65
2, 146160, Note_on_c, 0, 89, 65
2, 146640, Note_on_c, 0, 89, 0
2, 146640, Note_on_c, 0, 79, 0
2, 146640, Note_on_c, 0, 77, 0
2, 146640, Note_on_c, 0, 73, 65
2, 146640, Note_on_c, 0, 79, 65
2, 146640, Note_on_c, 0, 85, 65
2, 147120, Note_on_c, 0, 85, 0
2, 147120, Note_on_c, 0, 79, 0
2, 147120, Note_on_c, 0, 73, 0
2, 147120, Note_on_c, 0, 73, 65
2, 147120, Note_on_c, 0, 79, 65
2, 147120, Note_on_c, 0, 82, 65
2, 147600, Note_on_c, 0, 82, 0
2, 147600, Note_on_c, 0, 79, 0
2, 147600, Note_on_c, 0, 73, 0
2, 147600, Control_c, 0, 64, 0
2, 147600, Note_on_c, 0, 73, 65
2, 147600, Note_on_c, 0, 79, 65
2, 147840, Note_on_c, 0, 79, 0
2, 147840, Note_on_c, 0, 73, 0
2, 148080, Note_on_c, 0, 80, 65
2, 148080, Note_on_c, 0, 89, 65
2, 148560, Note_on_c, 0, 89, 0
2, 148560, Note_on_c, 0, 80, 0
2, 148560, Note_on_c, 0, 80, 65
2, 148560, Note_on_c, 0, 84, 65
2, 148800, Note_on_c, 0, 84, 0
2, 148800, Note_on_c, 0, 80, 0
2, 149040, Note_on_c, 0, 79, 65
2, 149040, Note_on_c, 0, 88, 65
2, 149520, Note_on_c, 0, 88, 0
2, 149520, Note_on_c, 0, 79, 0
2, 149520, Note_on_c, 0, 79, 65
2, 149520, Note_on_c, 0, 82, 65
2, 149760, Note_on_c, 0, 82, 0
2, 149760, Note_on_c, 0, 79, 0
2, 150000, Note_on_c, 0, 80, 65
2, 150000, Note_on_c, 0, 89, 65
2, 150480, Note_on_c, 0, 89, 0
2, 150480, Note_on_c, 0, 80, 0
2, 150480, Note_on_c, 0, 80, 65
2, 150480, Note_on_c, 0, 84, 65
2, 150960, Note_on_c, 0, 84, 0
2, 150960, Note_on_c, 0, 80, 0
2, 150960, Note_on_c, 0, 77, 65
2, 150960, Note_on_c, 0, 80, 65
2, 151440, Note_on_c, 0, 80, 0
2, 151440, Note_on_c, 0, 77, 0
2, 151440, Note_on_c, 0, 77, 65
2, 151680, Note_on_c, 0, 77, 0
2, 151680, Control_c, 0, 64, 127
2, 151680, Note_on_c, 0, 89, 52
2, 151680, Note_on_c, 0, 92, 52
2, 151740, Note_on_c, 0, 92, 0
2, 151740, Note_on_c, 0, 89, 0
2, 151740, Note_on_c, 0, 84, 52
2, 151800, Note_on_c, 0, 84, 0
2, 151800, Note_on_c, 0, 89, 52
2, 151800, Note_on_c, 0, 92, 52
2, 151860, Note_on_c, 0, 92, 0
2, 151860, Note_on_c, 0, 89, 0
2, 151860, Note_on_c, 0, 84, 52
2, 151920, Note_on_c, 0, 84, 0
2, 151920, Note_on_c, 0, 89, 65
2, 151920, Note_on_c, 0, 92, 65
2, 151980, Note_on_c, 0, 92, 0
2, 151980, Note_on_c, 0, 89, 0
2, 151980, Note_on_c, 0, 84, 65
2, 152040, Note_on_c, 0, 84, 0
2, 152040, Note_on_c, 0, 89, 65
2, 152040, Note_on_c, 0, 92, 65
2, 152100, Note_on_c, 0, 92, 0
2, 152100, Note_on_c, 0, 89, 0
2, 152100, Note_on_c, 0, 84, 65
2, 152160, Note_on_c, 0, 84, 0
2, 152160, Note_on_c, 0, 89, 65
2, 152160, Note_on_c, 0, 92, 65
2, 152220, Note_on_c, 0, 92, 0
2, 152220, Note_on_c, 0, 89, 0
2, 152220, Note_on_c, 0, 84, 65
2, 152280, Note_on_c, 0, 84, 0
2, 152280, Note_on_c, 0, 89, 65
2, 152280, Note_on_c, 0, 92, 65
2, 152340, Note_on_c, 0, 92, 0
2, 152340, Note_on_c, 0, 89, 0
2, 152340, Note_on_c, 0, 84, 65
2, 152400, Note_on_c, 0, 84, 0
2, 152400, Note_on_c, 0, 89, 52
2, 152400, Note_on_c, 0, 92, 52
2, 152460, Note_on_c, 0, 92, 0
2, 152460, Note_on_c, 0, 89, 0
2, 152460, Note_on_c, 0, 84, 52
2, 152520, Note_on_c, 0, 84, 0
2, 152520, Note_on_c, 0, 89, 52
2, 152520, Note_on_c, 0, 92, 52
2, 152580, Note_on_c, 0, 92, 0
2, 152580, Note_on_c, 0, 89, 0
2, 152580, Note_on_c, 0, 84, 52
2, 152640, Note_on_c, 0, 84, 0
2, 152640, Control_c, 0, 64, 0
2, 152640, Note_on_c, 0, 89, 52
2, 152640, Note_on_c, 0, 92, 52
2, 152880, Note_on_c, 0, 92, 0
2, 152880, Note_on_c, 0, 89, 0
2, 152880, Note_on_c, 0, 80, 78
2, 152880, Note_on_c, 0, 84, 78
2, 153060, Note_on_c, 0, 87, 78
2, 153120, Note_on_c, 0, 87, 0
2, 153120, Note_on_c, 0, 84, 0
2, 153120, Note_on_c, 0, 80, 0
2, 153120, Note_on_c, 0, 82, 78
2, 153120, Note_on_c, 0, 85, 78
2, 153360, Note_on_c, 0, 85, 0
2, 153360, Note_on_c, 0, 82, 0
2, 153360, Note_on_c, 0, 80, 78
2, 153360, Note_on_c, 0, 84, 78
2, 153600, Note_on_c, 0, 84, 0
2, 153600, Note_on_c, 0, 80, 0
2, 153600, Note_on_c, 0, 79, 78
2, 153600, Note_on_c, 0, 82, 78
2, 154800, Note_on_c, 0, 82, 0
2, 154800, Note_on_c, 0, 79, 0
2, 154800, Control_c, 0, 64, 127
2, 154800, Note_on_c, 0, 79, 78
2, 154800, Note_on_c, 0, 82, 78
2, 154980, Note_on_c, 0, 85, 78
2, 155040, Note_on_c, 0, 85, 0
2, 155040, Note_on_c, 0, 82, 0
2, 155040, Note_on_c, 0, 79, 0
2, 155040, Note_on_c, 0, 80, 78
2, 155040, Note_on_c, 0, 84, 78
2, 155280, Note_on_c, 0, 84, 0
2, 155280, Note_on_c, 0, 80, 0
2, 155280, Control_c, 0, 64, 0
2, 155280, Note_on_c, 0, 79, 78
2, 155280, Note_on_c, 0, 82, 78
2, 155520, Note_on_c, 0, 82, 0
2, 155520, Note_on_c, 0, 79, 0
2, 155520, Note_on_c, 0, 82, 78
2, 155520, Note_on_c, 0, 91, 78
2, 156720, Note_on_c, 0, 91, 0
2, 156720, Note_on_c, 0, 82, 0
2, 156720, Control_c, 0, 64, 127
2, 156720, Note_on_c, 0, 79, 78
2, 156720, Note_on_c, 0, 82, 78
2, 156960, Note_on_c, 0, 82, 0
2, 156960, Note_on_c, 0, 79, 0
2, 156960, Note_on_c, 0, 80, 78
2, 156960, Note_on_c, 0, 84, 78
2, 157200, Note_on_c, 0, 84, 0
2, 157200, Note_on_c, 0, 80, 0
2, 157200, Control_c, 0, 64, 0
2, 157200, Note_on_c, 0, 79, 78
2, 157200, Note_on_c, 0, 82, 78
2, 157440, Note_on_c, 0, 82, 0
2, 157440, Note_on_c, 0, 79, 0
2, 157440, Note_on_c, 0, 80, 78
2, 158640, Note_on_c, 0, 80, 0
2, 158640, Control_c, 0, 64, 127
2, 158640, Note_on_c, 0, 80, 78
2, 158880, Note_on_c, 0, 80, 0
2, 158880, Note_on_c, 0, 79, 78
2, 159120, Note_on_c, 0, 79, 0
2, 159120, Control_c, 0, 64, 0
2, 159120, Note_on_c, 0, 77, 78
2, 159360, Note_on_c, 0, 77, 0
2, 159360, Note_on_c, 0, 80, 78
2, 159360, Note_on_c, 0, 84, 78
2, 160560, Note_on_c, 0, 84, 0
2, 160560, Note_on_c, 0, 80, 0
2, 160560, Control_c, 0, 64, 127
2, 160560, Note_on_c, 0, 80, 78
2, 160800, Note_on_c, 0, 80, 0
2, 160800, Note_on_c, 0, 79, 78
2, 161040, Note_on_c, 0, 79, 0
2, 161040, Control_c, 0, 64, 0
2, 161040, Note_on_c, 0, 77, 78
2, 161280, Note_on_c, 0, 77, 0
2, 161280, Note_on_c, 0, 77, 78
2, 161280, Note_on_c, 0, 82, 78
2, 161280, Note_on_c, 0, 85, 78
2, 162480, Note_on_c, 0, 85, 0
2, 162480, Note_on_c, 0, 82, 0
2, 162480, Note_on_c, 0, 77, 0
2, 162480, Control_c, 0, 64, 127
2, 162480, Note_on_c, 0, 82, 78
2, 162480, Note_on_c, 0, 85, 78
2, 162720, Note_on_c, 0, 85, 0
2, 162720, Note_on_c, 0, 82, 0
2, 162720, Note_on_c, 0, 80, 78
2, 162720, Note_on_c, 0, 84, 78
2, 162960, Note_on_c, 0, 84, 0
2, 162960, Note_on_c, 0, 80, 0
2, 162960, Control_c, 0, 64, 0
2, 162960, Note_on_c, 0, 79, 78
2, 162960, Note_on_c, 0, 82, 78
2, 163200, Note_on_c, 0, 82, 0
2, 163200, Note_on_c, 0, 79, 0
2, 163200, Note_on_c, 0, 77, 78
2, 163200, Note_on_c, 0, 80, 78
2, 163620, Note_on_c, 0, 83, 78
2, 163680, Note_on_c, 0, 83, 0
2, 163680, Note_on_c, 0, 80, 0
2, 163680, Note_on_c, 0, 77, 0
2, 163680, Note_on_c, 0, 77, 78
2, 163680, Note_on_c, 0, 80, 78
2, 163680, Note_on_c, 0, 84, 78
2, 164160, Note_on_c, 0, 84, 0
2, 164160, Note_on_c, 0, 80, 0
2, 164160, Note_on_c, 0, 77, 0
2, 164160, Note_on_c, 0, 76, 78
2, 164160, Note_on_c, 0, 79, 78
2, 164580, Note_on_c, 0, 83, 78
2, 164640, Note_on_c, 0, 83, 0
2, 164640, Note_on_c, 0, 79, 0
2, 164640, Note_on_c, 0, 76, 0
2, 164640, Note_on_c, 0, 76, 78
2, 164640, Note_on_c, 0, 79, 78
2, 164640, Note_on_c, 0, 84, 78
2, 165120, Note_on_c, 0, 84, 0
2, 165120, Note_on_c, 0, 79, 0
2, 165120, Note_on_c, 0, 76, 0
2, 165120, Note_on_c, 0, 77, 78
2, 166320, Note_on_c, 0, 77, 0
2, 167040, Note_on_c, 0, 75, 78
2, 167760, Note_on_c, 0, 75, 0
2, 167760, Note_on_c, 0, 75, 78
2, 168000, Note_on_c, 0, 75, 0
2, 168000, Note_on_c, 0, 75, 78
2, 168000, Note_on_c, 0, 77, 78
2, 168480, Note_on_c, 0, 77, 0
2, 168480, Note_on_c, 0, 75, 0
2, 168480, Note_on_c, 0, 75, 78
2, 168480, Note_on_c, 0, 79, 78
2, 168960, Note_on_c, 0, 79, 0
2, 168960, Note_on_c, 0, 75, 0
2, 168960, Note_on_c, 0, 75, 78
2, 168960, Note_on_c, 0, 80, 78
2, 168983, Note_on_c, 0, 80, 0
2, 168983, Note_on_c, 0, 75, 0
2, 169200, Note_on_c, 0, 80, 104
2, 169680, Note_on_c, 0, 80, 0
2, 169680, Control_c, 0, 64, 127
2, 169680, Note_on_c, 0, 79, 78
2, 169800, Note_on_c, 0, 79, 0
2, 169800, Note_on_c, 0, 80, 78
2, 169920, Note_on_c, 0, 80, 0
2, 169920, Note_on_c, 0, 82, 104
2, 170040, Note_on_c, 0, 82, 0
2, 170040, Note_on_c, 0, 80, 78
2, 170160, Note_on_c, 0, 80, 0
2, 170160, Note_on_c, 0, 79, 78
2, 170280, Note_on_c, 0, 79, 0
2, 170280, Control_c, 0, 64, 0
2, 170280, Note_on_c, 0, 80, 78
2, 170400, Note_on_c, 0, 80, 0
2, 170400, Control_c, 0, 64, 127
2, 170400, Note_on_c, 0, 82, 117
2, 170520, Note_on_c, 0, 82, 0
2, 170520, Note_on_c, 0, 80, 91
2, 170640, Note_on_c, 0, 80, 0
2, 170640, Note_on_c, 0, 79, 91
2, 170760, Note_on_c, 0, 79, 0
2, 170760, Control_c, 0, 64, 0
2, 170760, Note_on_c, 0, 80, 91
2, 170880, Note_on_c, 0, 80, 0
2, 170880, Note_on_c, 0, 81, 78
2, 170880, Note_on_c, 0, 84, 78
2, 170880, Note_on_c, 0, 89, 78
2, 171600, Note_on_c, 0, 89, 0
2, 171600, Note_on_c, 0, 84, 0
2, 171600, Note_on_c, 0, 81, 0
2, 171600, Note_on_c, 0, 77, 78
2, 171600, Note_on_c, 0, 81, 78
2, 171600, Note_on_c, 0, 84, 78
2, 171600, Note_on_c, 0, 87, 78
2, 171840, Note_on_c, 0, 87, 0
2, 171840, Note_on_c, 0, 77, 0
2, 171840, Note_on_c, 0, 81, 0
2, 171840, Note_on_c, 0, 84, 0
2, 171840, Note_on_c, 0, 77, 78
2, 171840, Note_on_c, 0, 82, 78
2, 171840, Note_on_c, 0, 85, 78
2, 172320, Note_on_c, 0, 85, 0
2, 172320, Note_on_c, 0, 82, 0
2, 172320, Note_on_c, 0, 77, 0
2, 172320, Note_on_c, 0, 75, 78
2, 172320, Note_on_c, 0, 77, 78
2, 172320, Note_on_c, 0, 84, 78
2, 172800, Note_on_c, 0, 84, 0
2, 172800, Note_on_c, 0, 77, 0
2, 172800, Note_on_c, 0, 75, 0
2, 172800, Note_on_c, 0, 73, 78
2, 172800, Note_on_c, 0, 77, 78
2, 172800, Note_on_c, 0, 82, 78
2, 172823, Note_on_c, 0, 82, 0
2, 172823, Note_on_c, 0, 77, 0
2, 172823, Note_on_c, 0, 73, 0
2, 173040, Note_on_c, 0, 82, 104
2, 173520, Note_on_c, 0, 82, 0
2, 173520, Note_on_c, 0, 81, 78
2, 173640, Note_on_c, 0, 81, 0
2, 173640, Note_on_c, 0, 82, 78
2, 173760, Note_on_c, 0, 82, 0
2, 173760, Control_c, 0, 64, 127
2, 173760, Note_on_c, 0, 84, 104
2, 173880, Note_on_c, 0, 84, 0
2, 173880, Note_on_c, 0, 82, 78
2, 174000, Note_on_c, 0, 82, 0
2, 174000, Note_on_c, 0, 81, 78
2, 174120, Note_on_c, 0, 81, 0
2, 174120, Control_c, 0, 64, 0
2, 174120, Note_on_c, 0, 82, 78
2, 174240, Note_on_c, 0, 82, 0
2, 174240, Control_c, 0, 64, 127
2, 174240, Note_on_c, 0, 84, 117
2, 174360, Note_on_c, 0, 84, 0
2, 174360, Note_on_c, 0, 82, 91
2, 174480, Note_on_c, 0, 82, 0
2, 174480, Note_on_c, 0, 81, 91
2, 174600, Note_on_c, 0, 81, 0
2, 174600, Control_c, 0, 64, 0
2, 174600, Note_on_c, 0, 82, 91
2, 174720, Note_on_c, 0, 82, 0
2, 174720, Note_on_c, 0, 79, 78
2, 174720, Note_on_c, 0, 82, 78
2, 174720, Note_on_c, 0, 87, 78
2, 175440, Note_on_c, 0, 87, 0
2, 175440, Note_on_c, 0, 82, 0
2, 175440, Note_on_c, 0, 79, 0
2, 175440, Note_on_c, 0, 79, 78
2, 175440, Note_on_c, 0, 82, 78
2, 175680, Note_on_c, 0, 82, 0
2, 175680, Note_on_c, 0, 79, 0
2, 175680, Note_on_c, 0, 80, 78
2, 175680, Note_on_c, 0, 87, 78
2, 176160, Note_on_c, 0, 87, 0
2, 176160, Note_on_c, 0, 80, 0
2, 176160, Note_on_c, 0, 82, 78
2, 176160, Note_on_c, 0, 85, 78
2, 176640, Note_on_c, 0, 85, 0
2, 176640, Note_on_c, 0, 82, 0
2, 176640, Note_on_c, 0, 80, 78
2, 176640, Note_on_c, 0, 84, 78
2, 176663, Note_on_c, 0, 84, 0
2, 176663, Note_on_c, 0, 80, 0
2, 176880, Note_on_c, 0, 84, 104
2, 177360, Note_on_c, 0, 84, 0
2, 177360, Control_c, 0, 64, 127
2, 177360, Note_on_c, 0, 83, 78
2, 177480, Note_on_c, 0, 83, 0
2, 177480, Note_on_c, 0, 84, 78
2, 177600, Note_on_c, 0, 84, 0
2, 177600, Note_on_c, 0, 85, 104
2, 177720, Note_on_c, 0, 85, 0
2, 177720, Note_on_c, 0, 84, 78
2, 177840, Note_on_c, 0, 84, 0
2, 177840, Note_on_c, 0, 83, 78
2, 177960, Note_on_c, 0, 83, 0
2, 177960, Control_c, 0, 64, 0
2, 177960, Note_on_c, 0, 84, 78
2, 178080, Note_on_c, 0, 84, 0
2, 178080, Control_c, 0, 64, 127
2, 178080, Note_on_c, 0, 85, 117
2, 178200, Note_on_c, 0, 85, 0
2, 178200, Note_on_c, 0, 84, 91
2, 178320, Note_on_c, 0, 84, 0
2, 178320, Note_on_c, 0, 83, 91
2, 178440, Note_on_c, 0, 83, 0
2, 178440, Control_c, 0, 64, 0
2, 178440, Note_on_c, 0, 84, 91
2, 178560, Note_on_c, 0, 84, 0
2, 178560, Note_on_c, 0, 77, 78
2, 178560, Note_on_c, 0, 82, 78
2, 178560, Note_on_c, 0, 85, 78
2, 179280, Note_on_c, 0, 85, 0
2, 179280, Note_on_c, 0, 82, 0
2, 179280, Note_on_c, 0, 77, 0
2, 179280, Note_on_c, 0, 73, 78
2, 179280, Note_on_c, 0, 77, 78
2, 179280, Note_on_c, 0, 82, 78
2, 179520, Note_on_c, 0, 82, 0
2, 179520, Note_on_c, 0, 77, 0
2, 179520, Note_on_c, 0, 73, 0
2, 179520, Note_on_c, 0, 72, 78
2, 179520, Note_on_c, 0, 77, 78
2, 179520, Note_on_c, 0, 80, 78
2, 180000, Note_on_c, 0, 80, 0
2, 180000, Note_on_c, 0, 77, 0
2, 180000, Note_on_c, 0, 72, 0
2, 180000, Note_on_c, 0, 72, 78
2, 180000, Note_on_c, 0, 76, 78
2, 180000, Note_on_c, 0, 79, 78
2, 180480, Note_on_c, 0, 79, 0
2, 180480, Note_on_c, 0, 76, 0
2, 180480, Note_on_c, 0, 72, 0
2, 180480, Note_on_c, 0, 72, 78
2, 180480, Note_on_c, 0, 77, 78
2, 180503, Note_on_c, 0, 77, 0
2, 180503, Note_on_c, 0, 72, 0
2, 180720, Note_on_c, 0, 77, 104
2, 181200, Note_on_c, 0, 77, 0
2, 181200, Control_c, 0, 64, 127
2, 181200, Note_on_c, 0, 76, 78
2, 181320, Note_on_c, 0, 76, 0
2, 181320, Note_on_c, 0, 77, 78
2, 181440, Note_on_c, 0, 77, 0
2, 181440, Note_on_c, 0, 79, 104
2, 181560, Note_on_c, 0, 79, 0
2, 181560, Note_on_c, 0, 77, 78
2, 181680, Note_on_c, 0, 77, 0
2, 181680, Note_on_c, 0, 76, 78
2, 181800, Note_on_c, 0, 76, 0
2, 181800, Control_c, 0, 64, 0
2, 181800, Note_on_c, 0, 77, 91
2, 181920, Note_on_c, 0, 77, 0
2, 181920, Control_c, 0, 64, 127
2, 181920, Note_on_c, 0, 79, 117
2, 182040, Note_on_c, 0, 79, 0
2, 182040, Note_on_c, 0, 77, 91
2, 182160, Note_on_c, 0, 77, 0
2, 182160, Note_on_c, 0, 76, 91
2, 182280, Note_on_c, 0, 76, 0
2, 182280, Control_c, 0, 64, 0
2, 182280, Note_on_c, 0, 77, 91
2, 182400, Note_on_c, 0, 77, 0
2, 182400, Note_on_c, 0, 75, 78
2, 183120, Note_on_c, 0, 75, 0
2, 183120, Note_on_c, 0, 75, 78
2, 183360, Note_on_c, 0, 75, 0
2, 183360, Note_on_c, 0, 75, 78
2, 183360, Note_on_c, 0, 77, 78
2, 183840, Note_on_c, 0, 77, 0
2, 183840, Note_on_c, 0, 75, 0
2, 183840, Note_on_c, 0, 75, 78
2, 183840, Note_on_c, 0, 79, 78
2, 184320, Note_on_c, 0, 79, 0
2, 184320, Note_on_c, 0, 75, 0
2, 184320, Note_on_c, 0, 75, 78
2, 184320, Note_on_c, 0, 80, 78
2, 184343, Note_on_c, 0, 80, 0
2, 184343, Note_on_c, 0, 75, 0
2, 184560, Note_on_c, 0, 80, 104
2, 185040, Note_on_c, 0, 80, 0
2, 185040, Control_c, 0, 64, 127
2, 185040, Note_on_c, 0, 79, 78
2, 185160, Note_on_c, 0, 79, 0
2, 185160, Note_on_c, 0, 80, 78
2, 185280, Note_on_c, 0, 80, 0
2, 185280, Note_on_c, 0, 82, 104
2, 185400, Note_on_c, 0, 82, 0
2, 185400, Note_on_c, 0, 80, 78
2, 185520, Note_on_c, 0, 80, 0
2, 185520, Note_on_c, 0, 79, 78
2, 185640, Note_on_c, 0, 79, 0
2, 185640, Control_c, 0, 64, 0
2, 185640, Note_on_c, 0, 80, 78
2, 185760, Note_on_c, 0, 80, 0
2, 185760, Control_c, 0, 64, 127
2, 185760, Note_on_c, 0, 82, 117
2, 185880, Note_on_c, 0, 82, 0
2, 185880, Note_on_c, 0, 80, 91
2, 186000, Note_on_c, 0, 80, 0
2, 186000, Note_on_c, 0, 79, 91
2, 186120, Note_on_c, 0, 79, 0
2, 186120, Control_c, 0, 64, 0
2, 186120, Note_on_c, 0, 80, 91
2, 186240, Note_on_c, 0, 80, 0
2, 186240, Note_on_c, 0, 81, 78
2, 186240, Note_on_c, 0, 84, 78
2, 186240, Note_on_c, 0, 89, 78
2, 186960, Note_on_c, 0, 89, 0
2, 186960, Note_on_c, 0, 84, 0
2, 186960, Note_on_c, 0, 81, 0
2, 186960, Note_on_c, 0, 77, 78
2, 186960, Note_on_c, 0, 81, 78
2, 186960, Note_on_c, 0, 84, 78
2, 186960, Note_on_c, 0, 87, 78
2, 187200, Note_on_c, 0, 87, 0
2, 187200, Note_on_c, 0, 77, 0
2, 187200, Note_on_c, 0, 81, 0
2, 187200, Note_on_c, 0, 84, 0
2, 187200, Note_on_c, 0, 77, 78
2, 187200, Note_on_c, 0, 82, 78
2, 187200, Note_on_c, 0, 85, 78
2, 187680, Note_on_c, 0, 85, 0
2, 187680, Note_on_c, 0, 82, 0
2, 187680, Note_on_c, 0, 77, 0
2, 187680, Note_on_c, 0, 75, 78
2, 187680, Note_on_c, 0, 77, 78
2, 187680, Note_on_c, 0, 84, 78
2, 188160, Note_on_c, 0, 84, 0
2, 188160, Note_on_c, 0, 77, 0
2, 188160, Note_on_c, 0, 75, 0
2, 188160, Note_on_c, 0, 73, 78
2, 188160, Note_on_c, 0, 77, 78
2, 188160, Note_on_c, 0, 82, 78
2, 188183, Note_on_c, 0, 82, 0
2, 188183, Note_on_c, 0, 77, 0
2, 188183, Note_on_c, 0, 73, 0
2, 188400, Note_on_c, 0, 82, 104
2, 188880, Note_on_c, 0, 82, 0
2, 188880, Note_on_c, 0, 81, 78
2, 189000, Note_on_c, 0, 81, 0
2, 189000, Note_on_c, 0, 82, 78
2, 189120, Note_on_c, 0, 82, 0
2, 189120, Control_c, 0, 64, 127
2, 189120, Note_on_c, 0, 84, 104
2, 189240, Note_on_c, 0, 84, 0
2, 189240, Note_on_c, 0, 82, 78
2, 189360, Note_on_c, 0, 82, 0
2, 189360, Note_on_c, 0, 81, 78
2, 189480, Note_on_c, 0, 81, 0
2, 189480, Control_c, 0, 64, 0
2, 189480, Note_on_c, 0, 82, 78
2, 189600, Note_on_c, 0, 82, 0
2, 189600, Control_c, 0, 64, 127
2, 189600, Note_on_c, 0, 84, 117
2, 189720, Note_on_c, 0, 84, 0
2, 189720, Note_on_c, 0, 82, 91
2, 189840, Note_on_c, 0, 82, 0
2, 189840, Note_on_c, 0, 81, 91
2, 189960, Note_on_c, 0, 81, 0
2, 189960, Control_c, 0, 64, 0
2, 189960, Note_on_c, 0, 82, 91
2, 190080, Note_on_c, 0, 82, 0
2, 190080, Note_on_c, 0, 79, 78
2, 190080, Note_on_c, 0, 82, 78
2, 190080, Note_on_c, 0, 87, 78
2, 190800, Note_on_c, 0, 87, 0
2, 190800, Note_on_c, 0, 82, 0
2, 190800, Note_on_c, 0, 79, 0
2, 190800, Note_on_c, 0, 79, 78
2, 190800, Note_on_c, 0, 82, 78
2, 191040, Note_on_c, 0, 82, 0
2, 191040, Note_on_c, 0, 79, 0
2, 191040, Note_on_c, 0, 80, 78
2, 191040, Note_on_c, 0, 87, 78
2, 191520, Note_on_c, 0, 87, 0
2, 191520, Note_on_c, 0, 80, 0
2, 191520, Note_on_c, 0, 82, 78
2, 191520, Note_on_c, 0, 85, 78
2, 192000, Note_on_c, 0, 85, 0
2, 192000, Note_on_c, 0, 82, 0
2, 192000, Note_on_c, 0, 80, 78
2, 192000, Note_on_c, 0, 84, 78
2, 192023, Note_on_c, 0, 84, 0
2, 192023, Note_on_c, 0, 80, 0
2, 192240, Note_on_c, 0, 84, 104
2, 192720, Note_on_c, 0, 84, 0
2, 192720, Control_c, 0, 64, 127
2, 192720, Note_on_c, 0, 83, 78
2, 192840, Note_on_c, 0, 83, 0
2, 192840, Note_on_c, 0, 84, 78
2, 192960, Note_on_c, 0, 84, 0
2, 192960, Note_on_c, 0, 85, 104
2, 193080, Note_on_c, 0, 85, 0
2, 193080, Note_on_c, 0, 84, 78
2, 193200, Note_on_c, 0, 84, 0
2, 193200, Note_on_c, 0, 83, 78
2, 193320, Note_on_c, 0, 83, 0
2, 193320, Control_c, 0, 64, 0
2, 193320, Note_on_c, 0, 84, 78
2, 193440, Note_on_c, 0, 84, 0
2, 193440, Control_c, 0, 64, 127
2, 193440, Note_on_c, 0, 85, 117
2, 193560, Note_on_c, 0, 85, 0
2, 193560, Note_on_c, 0, 84, 91
2, 193680, Note_on_c, 0, 84, 0
2, 193680, Note_on_c, 0, 83, 91
2, 193800, Note_on_c, 0, 83, 0
2, 193800, Control_c, 0, 64, 0
2, 193800, Note_on_c, 0, 84, 91
2, 193920, Note_on_c, 0, 84, 0
2, 193920, Note_on_c, 0, 77, 78
2, 193920, Note_on_c, 0, 82, 78
2, 193920, Note_on_c, 0, 85, 78
2, 194640, Note_on_c, 0, 85, 0
2, 194640, Note_on_c, 0, 82, 0
2, 194640, Note_on_c, 0, 77, 0
2, 194640, Note_on_c, 0, 73, 78
2, 194640, Note_on_c, 0, 77, 78
2, 194640, Note_on_c, 0, 82, 78
2, 194880, Note_on_c, 0, 82, 0
2, 194880, Note_on_c, 0, 77, 0
2, 194880, Note_on_c, 0, 73, 0
2, 194880, Note_on_c, 0, 72, 78
2, 194880, Note_on_c, 0, 77, 78
2, 194880, Note_on_c, 0, 80, 78
2, 195360, Note_on_c, 0, 80, 0
2, 195360, Note_on_c, 0, 77, 0
2, 195360, Note_on_c, 0, 72, 0
2, 195360, Note_on_c, 0, 72, 78
2, 195360, Note_on_c, 0, 76, 78
2, 195360, Note_on_c, 0, 79, 78
2, 195840, Note_on_c, 0, 79, 0
2, 195840, Note_on_c, 0, 76, 0
2, 195840, Note_on_c, 0, 72, 0
2, 195840, Note_on_c, 0, 72, 78
2, 195840, Note_on_c, 0, 77, 78
2, 195863, Note_on_c, 0, 77, 0
2, 195863, Note_on_c, 0, 72, 0
2, 196080, Note_on_c, 0, 77, 104
2, 196560, Note_on_c, 0, 77, 0
2, 196560, Control_c, 0, 64, 127
2, 196560, Note_on_c, 0, 76, 78
2, 196680, Note_on_c, 0, 76, 0
2, 196680, Note_on_c, 0, 77, 78
2, 196800, Note_on_c, 0, 77, 0
2, 196800, Note_on_c, 0, 79, 104
2, 196920, Note_on_c, 0, 79, 0
2, 196920, Note_on_c, 0, 77, 78
2, 197040, Note_on_c, 0, 77, 0
2, 197040, Note_on_c, 0, 76, 78
2, 197160, Note_on_c, 0, 76, 0
2, 197160, Control_c, 0, 64, 0
2, 197160, Note_on_c, 0, 79, 78
2, 197280, Note_on_c, 0, 79, 0
2, 197280, Note_on_c, 0, 77, 78
2, 197520, Note_on_c, 0, 77, 0
2, 198480, Control_c, 0, 64, 127
2, 198480, Note_on_c, 0, 72, 78
2, 198660, Note_on_c, 0, 75, 78
2, 198720, Note_on_c, 0, 75, 0
2, 198720, Note_on_c, 0, 72, 0
2, 198720, Note_on_c, 0, 73, 78
2, 198960, Note_on_c, 0, 73, 0
2, 198960, Control_c, 0, 64, 0
2, 198960, Note_on_c, 0, 72, 78
2, 199200, Note_on_c, 0, 72, 0
2, 199200, Note_on_c, 0, 80, 78
2, 200400, Note_on_c, 0, 80, 0
2, 200400, Control_c, 0, 64, 127
2, 200400, Note_on_c, 0, 72, 78
2, 200580, Note_on_c, 0, 75, 78
2, 200640, Note_on_c, 0, 75, 0
2, 200640, Note_on_c, 0, 72, 0
2, 200640, Note_on_c, 0, 73, 78
2, 200880, Note_on_c, 0, 73, 0
2, 200880, Control_c, 0, 64, 0
2, 200880, Note_on_c, 0, 72, 78
2, 201120, Note_on_c, 0, 72, 0
2, 201120, Note_on_c, 0, 70, 78
2, 202320, Note_on_c, 0, 70, 0
2, 202320, Control_c, 0, 64, 127
2, 202320, Note_on_c, 0, 79, 78
2, 202320, Note_on_c, 0, 82, 78
2, 202500, Note_on_c, 0, 85, 78
2, 202560, Note_on_c, 0, 85, 0
2, 202560, Note_on_c, 0, 82, 0
2, 202560, Note_on_c, 0, 79, 0
2, 202560, Note_on_c, 0, 80, 91
2, 202560, Note_on_c, 0, 84, 91
2, 202800, Note_on_c, 0, 84, 0
2, 202800, Note_on_c, 0, 80, 0
2, 202800, Control_c, 0, 64, 0
2, 202800, Note_on_c, 0, 79, 91
2, 202800, Note_on_c, 0, 82, 91
2, 203040, Note_on_c, 0, 82, 0
2, 203040, Note_on_c, 0, 79, 0
2, 203040, Note_on_c, 0, 82, 91
2, 203040, Note_on_c, 0, 91, 91
2, 203760, Note_on_c, 0, 91, 0
2, 203760, Note_on_c, 0, 82, 0
2, 203760, Control_c, 0, 64, 127
2, 203760, Note_on_c, 0, 89, 78
2, 203840, Note_on_c, 0, 89, 0
2, 203840, Note_on_c, 0, 91, 78
2, 203919, Note_on_c, 0, 91, 0
2, 203919, Note_on_c, 0, 89, 78
2, 204000, Note_on_c, 0, 89, 0
2, 204000, Control_c, 0, 64, 0
2, 204000, Note_on_c, 0, 88, 78
2, 204023, Note_on_c, 0, 88, 0
2, 204240, Note_on_c, 0, 85, 65
2, 204320, Note_on_c, 0, 85, 0
2, 204320, Note_on_c, 0, 87, 65
2, 204399, Note_on_c, 0, 87, 0
2, 204399, Note_on_c, 0, 85, 65
2, 204480, Note_on_c, 0, 85, 0
2, 204480, Control_c, 0, 64, 0
2, 204480, Note_on_c, 0, 84, 65
2, 204503, Note_on_c, 0, 84, 0
2, 204720, Control_c, 0, 64, 127
2, 204720, Note_on_c, 0, 82, 65
2, 204800, Note_on_c, 0, 82, 0
2, 204800, Note_on_c, 0, 84, 65
2, 204879, Note_on_c, 0, 84, 0
2, 204879, Note_on_c, 0, 82, 65
2, 204960, Note_on_c, 0, 82, 0
2, 204960, Note_on_c, 0, 80, 65
2, 205920, Control_c, 0, 64, 0
2, 206160, Note_on_c, 0, 80, 0
2, 206160, Control_c, 0, 64, 127
2, 206160, Note_on_c, 0, 80, 65
2, 206400, Note_on_c, 0, 80, 0
2, 206400, Note_on_c, 0, 79, 65
2, 206640, Note_on_c, 0, 79, 0
2, 206640, Control_c, 0, 64, 0
2, 206640, Note_on_c, 0, 77, 65
2, 206880, Note_on_c, 0, 77, 0
2, 206880, Control_c, 0, 64, 127
2, 206880, Note_on_c, 0, 84, 65
2, 206940, Note_on_c, 0, 84, 0
2, 206940, Note_on_c, 0, 80, 65
2, 207000, Note_on_c, 0, 80, 0
2, 207000, Note_on_c, 0, 84, 65
2, 207060, Note_on_c, 0, 84, 0
2, 207060, Note_on_c, 0, 80, 65
2, 207120, Note_on_c, 0, 80, 0
2, 207120, Note_on_c, 0, 84, 65
2, 207180, Note_on_c, 0, 84, 0
2, 207180, Note_on_c, 0, 80, 65
2, 207240, Note_on_c, 0, 80, 0
2, 207240, Note_on_c, 0, 84, 65
2, 207300, Note_on_c, 0, 84, 0
2, 207300, Note_on_c, 0, 80, 65
2, 207360, Note_on_c, 0, 80, 0
2, 207360, Note_on_c, 0, 84, 65
2, 207420, Note_on_c, 0, 84, 0
2, 207420, Note_on_c, 0, 80, 65
2, 207480, Note_on_c, 0, 80, 0
2, 207480, Note_on_c, 0, 84, 65
2, 207540, Note_on_c, 0, 84, 0
2, 207540, Note_on_c, 0, 80, 65
2, 207600, Note_on_c, 0, 80, 0
2, 207600, Note_on_c, 0, 84, 65
2, 207660, Note_on_c, 0, 84, 0
2, 207660, Note_on_c, 0, 80, 65
2, 207720, Note_on_c, 0, 80, 0
2, 207720, Note_on_c, 0, 84, 65
2, 207780, Note_on_c, 0, 84, 0
2, 207780, Control_c, 0, 64, 0
2, 207780, Note_on_c, 0, 80, 65
2, 207840, Note_on_c, 0, 80, 0
2, 207840, Note_on_c, 0, 84, 65
2, 208080, Note_on_c, 0, 84, 0
2, 208080, Control_c, 0, 64, 127
2, 208080, Note_on_c, 0, 80, 65
2, 208320, Note_on_c, 0, 80, 0
2, 208320, Note_on_c, 0, 79, 65
2, 208560, Note_on_c, 0, 79, 0
2, 208560, Control_c, 0, 64, 0
2, 208560, Note_on_c, 0, 77, 65
2, 208800, Note_on_c, 0, 77, 0
2, 208800, Control_c, 0, 64, 127
2, 208800, Note_on_c, 0, 85, 65
2, 208860, Note_on_c, 0, 85, 0
2, 208860, Note_on_c, 0, 82, 65
2, 208920, Note_on_c, 0, 82, 0
2, 208920, Note_on_c, 0, 85, 65
2, 208980, Note_on_c, 0, 85, 0
2, 208980, Note_on_c, 0, 82, 65
2, 209040, Note_on_c, 0, 82, 0
2, 209040, Note_on_c, 0, 85, 65
2, 209100, Note_on_c, 0, 85, 0
2, 209100, Note_on_c, 0, 82, 65
2, 209160, Note_on_c, 0, 82, 0
2, 209160, Note_on_c, 0, 85, 65
2, 209220, Note_on_c, 0, 85, 0
2, 209220, Note_on_c, 0, 82, 65
2, 209280, Note_on_c, 0, 82, 0
2, 209280, Note_on_c, 0, 85, 65
2, 209340, Note_on_c, 0, 85, 0
2, 209340, Note_on_c, 0, 82, 65
2, 209400, Note_on_c, 0, 82, 0
2, 209400, Note_on_c, 0, 85, 65
2, 209460, Note_on_c, 0, 85, 0
2, 209460, Note_on_c, 0, 82, 65
2, 209520, Note_on_c, 0, 82, 0
2, 209520, Note_on_c, 0, 85, 65
2, 209580, Note_on_c, 0, 85, 0
2, 209580, Note_on_c, 0, 82, 65
2, 209640, Note_on_c, 0, 82, 0
2, 209640, Note_on_c, 0, 85, 65
2, 209700, Note_on_c, 0, 85, 0
2, 209700, Control_c, 0, 64, 0
2, 209700, Note_on_c, 0, 82, 65
2, 209760, Note_on_c, 0, 82, 0
2, 209760, Note_on_c, 0, 85, 65
2, 210000, Note_on_c, 0, 85, 0
2, 210000, Control_c, 0, 64, 127
2, 210000, Note_on_c, 0, 82, 65
2, 210000, Note_on_c, 0, 85, 65
2, 210240, Note_on_c, 0, 85, 0
2, 210240, Note_on_c, 0, 82, 0
2, 210240, Note_on_c, 0, 80, 65
2, 210240, Note_on_c, 0, 84, 65
2, 210480, Note_on_c, 0, 84, 0
2, 210480, Note_on_c, 0, 80, 0
2, 210480, Control_c, 0, 64, 0
2, 210480, Note_on_c, 0, 79, 65
2, 210480, Note_on_c, 0, 82, 65
2, 210720, Note_on_c, 0, 82, 0
2, 210720, Note_on_c, 0, 79, 0
2, 210720, Note_on_c, 0, 77, 78
2, 210720, Note_on_c, 0, 80, 78
2, 211140, Note_on_c, 0, 83, 78
2, 211200, Note_on_c, 0, 83, 0
2, 211200, Note_on_c, 0, 80, 0
2, 211200, Note_on_c, 0, 77, 0
2, 211200, Note_on_c, 0, 77, 78
2, 211200, Note_on_c, 0, 80, 78
2, 211200, Note_on_c, 0, 84, 78
2, 211680, Note_on_c, 0, 84, 0
2, 211680, Note_on_c, 0, 80, 0
2, 211680, Note_on_c, 0, 77, 0
2, 211680, Note_on_c, 0, 76, 78
2, 211680, Note_on_c, 0, 79, 78
2, 212100, Note_on_c, 0, 83, 78
2, 212160, Note_on_c, 0, 83, 0
2, 212160, Note_on_c, 0, 79, 0
2, 212160, Note_on_c, 0, 76, 0
2, 212160, Note_on_c, 0, 76, 78
2, 212160, Note_on_c, 0, 79, 78
2, 212160, Note_on_c, 0, 84, 78
2, 212640, Note_on_c, 0, 84, 0
2, 212640, Note_on_c, 0, 79, 0
2, 212640, Note_on_c, 0, 76, 0
2, 212640, Note_on_c, 0, 77, 78
2, 213600, Note_on_c, 0, 77, 0
2, 213600, Note_on_c, 0, 77, 104
2, 213600, Note_on_c, 0, 80, 104
2, 213600, Note_on_c, 0, 84, 104
2, 213600, Note_on_c, 0, 89, 104
2, 213623, Note_on_c, 0, 89, 0
2, 213623, Note_on_c, 0, 77, 0
2, 213623, Note_on_c, 0, 80, 0
2, 213623, Note_on_c, 0, 84, 0
2, 213840, Control_c, 0, 64, 127
2, 215760, Control_c, 0, 64, 0
2, 215760, End_track
3, 0, Start_track
3, 0, Title_t, "Instrument17"
3, 0, Program_c, 0, 0
3, 0, Control_c, 0, 7, 109
3, 0, Control_c, 0, 10, 97
3, 960, Control_c, 0, 64, 127
3, 960, Note_on_c, 0, 53, 62
3, 1020, Note_on_c, 0, 53, 0
3, 1020, Note_on_c, 0, 56, 62
3, 1080, Note_on_c, 0, 56, 0
3, 1080, Note_on_c, 0, 53, 62
3, 1140, Note_on_c, 0, 53, 0
3, 1140, Note_on_c, 0, 56, 62
3, 1200, Note_on_c, 0, 56, 0
3, 1200, Note_on_c, 0, 53, 62
3, 1260, Note_on_c, 0, 53, 0
3, 1260, Note_on_c, 0, 56, 62
3, 1320, Note_on_c, 0, 56, 0
3, 1320, Note_on_c, 0, 53, 62
3, 1380, Note_on_c, 0, 53, 0
3, 1380, Note_on_c, 0, 56, 62
3, 1440, Note_on_c, 0, 56, 0
3, 1440, Note_on_c, 0, 53, 62
3, 1500, Note_on_c, 0, 53, 0
3, 1500, Note_on_c, 0, 56, 62
3, 1560, Note_on_c, 0, 56, 0
3, 1560, Note_on_c, 0, 53, 62
3, 1620, Note_on_c, 0, 53, 0
3, 1620, Note_on_c, 0, 56, 62
3, 1680, Note_on_c, 0, 56, 0
3, 1680, Note_on_c, 0, 53, 62
3, 1740, Note_on_c, 0, 53, 0
3, 1740, Note_on_c, 0, 56, 62
3, 1800, Note_on_c, 0, 56, 0
3, 1800, Control_c, 0, 64, 0
3, 1800, Note_on_c, 0, 53, 62
3, 1860, Note_on_c, 0, 53, 0
3, 1860, Note_on_c, 0, 56, 62
3, 1920, Note_on_c, 0, 56, 0
3, 1920, Control_c, 0, 64, 127
3, 1920, Note_on_c, 0, 48, 62
3, 1980, Note_on_c, 0, 48, 0
3, 1980, Note_on_c, 0, 53, 62
3, 2040, Note_on_c, 0, 53, 0
3, 2040, Note_on_c, 0, 48, 62
3, 2100, Note_on_c, 0, 48, 0
3, 2100, Note_on_c, 0, 53, 62
3, 2160, Note_on_c, 0, 53, 0
3, 2160, Note_on_c, 0, 48, 62
3, 2220, Note_on_c, 0, 48, 0
3, 2220, Note_on_c, 0, 53, 62
3, 2280, Note_on_c, 0, 53, 0
3, 2280, Note_on_c, 0, 48, 62
3, 2340, Note_on_c, 0, 48, 0
3, 2340, Note_on_c, 0, 53, 62
3, 2400, Note_on_c, 0, 53, 0
3, 2400, Note_on_c, 0, 48, 62
3, 2460, Note_on_c, 0, 48, 0
3, 2460, Note_on_c, 0, 53, 62
3, 2520, Note_on_c, 0, 53, 0
3, 2520, Note_on_c, 0, 48, 62
3, 2580, Note_on_c, 0, 48, 0
3, 2580, Note_on_c, 0, 53, 62
3, 2640, Note_on_c, 0, 53, 0
3, 2640, Note_on_c, 0, 48, 62
3, 2700, Note_on_c, 0, 48, 0
3, 2700, Note_on_c, 0, 53, 62
3, 2760, Note_on_c, 0, 53, 0
3, 2760, Control_c, 0, 64, 0
3, 2760, Note_on_c, 0, 48, 62
3, 2820, Note_on_c, 0, 48, 0
3, 2820, Note_on_c, 0, 53, 62
3, 2880, Note_on_c, 0, 53, 0
3, 2880, Control_c, 0, 64, 127
3, 2880, Note_on_c, 0, 49, 62
3, 2940, Note_on_c, 0, 49, 0
3, 2940, Note_on_c, 0, 53, 62
3, 3000, Note_on_c, 0, 53, 0
3, 3000, Note_on_c, 0, 49, 62
3, 3060, Note_on_c, 0, 49, 0
3, 3060, Note_on_c, 0, 53, 62
3, 3120, Note_on_c, 0, 53, 0
3, 3120, Note_on_c, 0, 49, 62
3, 3180, Note_on_c, 0, 49, 0
3, 3180, Note_on_c, 0, 53, 62
3, 3240, Note_on_c, 0, 53, 0
3, 3240, Note_on_c, 0, 49, 62
3, 3300, Note_on_c, 0, 49, 0
3, 3300, Note_on_c, 0, 53, 62
3, 3360, Note_on_c, 0, 53, 0
3, 3360, Note_on_c, 0, 49, 62
3, 3420, Note_on_c, 0, 49, 0
3, 3420, Note_on_c, 0, 53, 62
3, 3480, Note_on_c, 0, 53, 0
3, 3480, Note_on_c, 0, 49, 62
3, 3540, Note_on_c, 0, 49, 0
3, 3540, Note_on_c, 0, 53, 62
3, 3600, Note_on_c, 0, 53, 0
3, 3600, Note_on_c, 0, 49, 62
3, 3660, Note_on_c, 0, 49, 0
3, 3660, Note_on_c, 0, 53, 62
3, 3720, Note_on_c, 0, 53, 0
3, 3720, Control_c, 0, 64, 0
3, 3720, Note_on_c, 0, 49, 62
3, 3780, Note_on_c, 0, 49, 0
3, 3780, Note_on_c, 0, 53, 62
3, 3840, Note_on_c, 0, 53, 0
3, 3840, Control_c, 0, 64, 127
3, 3840, Note_on_c, 0, 46, 62
3, 3900, Note_on_c, 0, 46, 0
3, 3900, Note_on_c, 0, 49, 62
3, 3960, Note_on_c, 0, 49, 0
3, 3960, Note_on_c, 0, 46, 62
3, 4020, Note_on_c, 0, 46, 0
3, 4020, Note_on_c, 0, 49, 62
3, 4080, Note_on_c, 0, 49, 0
3, 4080, Note_on_c, 0, 46, 62
3, 4140, Note_on_c, 0, 46, 0
3, 4140, Note_on_c, 0, 49, 62
3, 4200, Note_on_c, 0, 49, 0
3, 4200, Note_on_c, 0, 46, 62
3, 4260, Note_on_c, 0, 46, 0
3, 4260, Note_on_c, 0, 49, 62
3, 4320, Note_on_c, 0, 49, 0
3, 4320, Note_on_c, 0, 46, 62
3, 4380, Note_on_c, 0, 46, 0
3, 4380, Note_on_c, 0, 49, 62
3, 4440, Note_on_c, 0, 49, 0
3, 4440, Note_on_c, 0, 46, 62
3, 4500, Note_on_c, 0, 46, 0
3, 4500, Note_on_c, 0, 49, 62
3, 4560, Note_on_c, 0, 49, 0
3, 4560, Note_on_c, 0, 46, 62
3, 4620, Note_on_c, 0, 46, 0
3, 4620, Note_on_c, 0, 49, 62
3, 4680, Note_on_c, 0, 49, 0
3, 4680, Control_c, 0, 64, 0
3, 4680, Note_on_c, 0, 46, 62
3, 4740, Note_on_c, 0, 46, 0
3, 4740, Note_on_c, 0, 49, 62
3, 4800, Note_on_c, 0, 49, 0
3, 4800, Control_c, 0, 64, 127
3, 4800, Note_on_c, 0, 52, 62
3, 4860, Note_on_c, 0, 52, 0
3, 4860, Note_on_c, 0, 55, 62
3, 4920, Note_on_c, 0, 55, 0
3, 4920, Note_on_c, 0, 52, 62
3, 4980, Note_on_c, 0, 52, 0
3, 4980, Note_on_c, 0, 55, 62
3, 5040, Note_on_c, 0, 55, 0
3, 5040, Note_on_c, 0, 52, 62
3, 5100, Note_on_c, 0, 52, 0
3, 5100, Note_on_c, 0, 55, 62
3, 5160, Note_on_c, 0, 55, 0
3, 5160, Note_on_c, 0, 52, 62
3, 5220, Note_on_c, 0, 52, 0
3, 5220, Note_on_c, 0, 55, 62
3, 5280, Note_on_c, 0, 55, 0
3, 5280, Note_on_c, 0, 52, 62
3, 5340, Note_on_c, 0, 52, 0
3, 5340, Note_on_c, 0, 55, 62
3, 5400, Note_on_c, 0, 55, 0
3, 5400, Note_on_c, 0, 52, 62
3, 5460, Note_on_c, 0, 52, 0
3, 5460, Note_on_c, 0, 55, 62
3, 5520, Note_on_c, 0, 55, 0
3, 5520, Note_on_c, 0, 52, 62
3, 5580, Note_on_c, 0, 52, 0
3, 5580, Note_on_c, 0, 55, 62
3, 5640, Note_on_c, 0, 55, 0
3, 5640, Control_c, 0, 64, 0
3, 5640, Note_on_c, 0, 52, 62
3, 5700, Note_on_c, 0, 52, 0
3, 5700, Note_on_c, 0, 55, 62
3, 5760, Note_on_c, 0, 55, 0
3, 5760, Control_c, 0, 64, 127
3, 5760, Note_on_c, 0, 48, 62
3, 5820, Note_on_c, 0, 48, 0
3, 5820, Note_on_c, 0, 52, 62
3, 5880, Note_on_c, 0, 52, 0
3, 5880, Note_on_c, 0, 48, 62
3, 5940, Note_on_c, 0, 48, 0
3, 5940, Note_on_c, 0, 52, 62
3, 6000, Note_on_c, 0, 52, 0
3, 6000, Note_on_c, 0, 48, 62
3, 6060, Note_on_c, 0, 48, 0
3, 6060, Note_on_c, 0, 52, 62
3, 6120, Note_on_c, 0, 52, 0
3, 6120, Note_on_c, 0, 48, 62
3, 6180, Note_on_c, 0, 48, 0
3, 6180, Note_on_c, 0, 52, 62
3, 6240, Note_on_c, 0, 52, 0
3, 6240, Note_on_c, 0, 48, 62
3, 6300, Note_on_c, 0, 48, 0
3, 6300, Note_on_c, 0, 52, 62
3, 6360, Note_on_c, 0, 52, 0
3, 6360, Note_on_c, 0, 48, 62
3, 6420, Note_on_c, 0, 48, 0
3, 6420, Note_on_c, 0, 52, 62
3, 6480, Note_on_c, 0, 52, 0
3, 6480, Note_on_c, 0, 48, 62
3, 6540, Note_on_c, 0, 48, 0
3, 6540, Note_on_c, 0, 52, 62
3, 6600, Note_on_c, 0, 52, 0
3, 6600, Control_c, 0, 64, 0
3, 6600, Note_on_c, 0, 48, 62
3, 6660, Note_on_c, 0, 48, 0
3, 6660, Note_on_c, 0, 52, 62
3, 6720, Note_on_c, 0, 52, 0
3, 6720, Control_c, 0, 64, 127
3, 6720, Note_on_c, 0, 48, 62
3, 6780, Note_on_c, 0, 48, 0
3, 6780, Note_on_c, 0, 53, 62
3, 6840, Note_on_c, 0, 53, 0
3, 6840, Note_on_c, 0, 48, 62
3, 6900, Note_on_c, 0, 48, 0
3, 6900, Note_on_c, 0, 53, 62
3, 6960, Note_on_c, 0, 53, 0
3, 6960, Note_on_c, 0, 48, 62
3, 7020, Note_on_c, 0, 48, 0
3, 7020, Note_on_c, 0, 53, 62
3, 7080, Note_on_c, 0, 53, 0
3, 7080, Note_on_c, 0, 48, 62
3, 7140, Note_on_c, 0, 48, 0
3, 7140, Note_on_c, 0, 53, 62
3, 7200, Note_on_c, 0, 53, 0
3, 7200, Note_on_c, 0, 48, 62
3, 7260, Note_on_c, 0, 48, 0
3, 7260, Note_on_c, 0, 53, 62
3, 7320, Note_on_c, 0, 53, 0
3, 7320, Note_on_c, 0, 48, 62
3, 7380, Note_on_c, 0, 48, 0
3, 7380, Note_on_c, 0, 53, 62
3, 7440, Note_on_c, 0, 53, 0
3, 7440, Note_on_c, 0, 48, 62
3, 7500, Note_on_c, 0, 48, 0
3, 7500, Note_on_c, 0, 53, 62
3, 7560, Note_on_c, 0, 53, 0
3, 7560, Control_c, 0, 64, 0
3, 7560, Note_on_c, 0, 48, 62
3, 7620, Note_on_c, 0, 48, 0
3, 7620, Note_on_c, 0, 53, 62
3, 7680, Note_on_c, 0, 53, 0
3, 7680, Control_c, 0, 64, 127
3, 7680, Note_on_c, 0, 44, 62
3, 7740, Note_on_c, 0, 44, 0
3, 7740, Note_on_c, 0, 48, 62
3, 7800, Note_on_c, 0, 48, 0
3, 7800, Note_on_c, 0, 44, 62
3, 7860, Note_on_c, 0, 44, 0
3, 7860, Note_on_c, 0, 48, 62
3, 7920, Note_on_c, 0, 48, 0
3, 7920, Note_on_c, 0, 44, 62
3, 7980, Note_on_c, 0, 44, 0
3, 7980, Note_on_c, 0, 48, 62
3, 8040, Note_on_c, 0, 48, 0
3, 8040, Note_on_c, 0, 44, 62
3, 8100, Note_on_c, 0, 44, 0
3, 8100, Note_on_c, 0, 48, 62
3, 8160, Note_on_c, 0, 48, 0
3, 8160, Note_on_c, 0, 44, 62
3, 8220, Note_on_c, 0, 44, 0
3, 8220, Note_on_c, 0, 48, 62
3, 8280, Note_on_c, 0, 48, 0
3, 8280, Note_on_c, 0, 44, 62
3, 8340, Note_on_c, 0, 44, 0
3, 8340, Note_on_c, 0, 48, 62
3, 8400, Note_on_c, 0, 48, 0
3, 8400, Note_on_c, 0, 44, 62
3, 8460, Note_on_c, 0, 44, 0
3, 8460, Note_on_c, 0, 48, 62
3, 8520, Note_on_c, 0, 48, 0
3, 8520, Note_on_c, 0, 44, 62
3, 8580, Note_on_c, 0, 44, 0
3, 8580, Control_c, 0, 64, 0
3, 8580, Note_on_c, 0, 48, 62
3, 8640, Note_on_c, 0, 48, 0
3, 8640, Control_c, 0, 64, 127
3, 8640, Note_on_c, 0, 53, 62
3, 8700, Note_on_c, 0, 53, 0
3, 8700, Note_on_c, 0, 48, 62
3, 8760, Note_on_c, 0, 48, 0
3, 8760, Note_on_c, 0, 53, 62
3, 8820, Note_on_c, 0, 53, 0
3, 8820, Note_on_c, 0, 48, 62
3, 8880, Note_on_c, 0, 48, 0
3, 8880, Note_on_c, 0, 53, 62
3, 8940, Note_on_c, 0, 53, 0
3, 8940, Note_on_c, 0, 48, 62
3, 9000, Note_on_c, 0, 48, 0
3, 9000, Note_on_c, 0, 53, 62
3, 9060, Note_on_c, 0, 53, 0
3, 9060, Note_on_c, 0, 48, 62
3, 9120, Note_on_c, 0, 48, 0
3, 9120, Note_on_c, 0, 53, 62
3, 9180, Note_on_c, 0, 53, 0
3, 9180, Note_on_c, 0, 48, 62
3, 9240, Note_on_c, 0, 48, 0
3, 9240, Note_on_c, 0, 53, 62
3, 9300, Note_on_c, 0, 53, 0
3, 9300, Note_on_c, 0, 48, 62
3, 9360, Note_on_c, 0, 48, 0
3, 9360, Note_on_c, 0, 53, 62
3, 9420, Note_on_c, 0, 53, 0
3, 9420, Note_on_c, 0, 48, 62
3, 9480, Note_on_c, 0, 48, 0
3, 9480, Note_on_c, 0, 53, 62
3, 9540, Note_on_c, 0, 53, 0
3, 9540, Control_c, 0, 64, 0
3, 9540, Note_on_c, 0, 48, 62
3, 9600, Note_on_c, 0, 48, 0
3, 9600, Note_on_c, 0, 53, 62
3, 9840, Note_on_c, 0, 53, 0
3, 10560, Control_c, 0, 64, 127
3, 10560, Note_on_c, 0, 55, 62
3, 10620, Note_on_c, 0, 55, 0
3, 10620, Note_on_c, 0, 49, 62
3, 10680, Note_on_c, 0, 49, 0
3, 10680, Note_on_c, 0, 55, 62
3, 10740, Note_on_c, 0, 55, 0
3, 10740, Note_on_c, 0, 49, 62
3, 10800, Note_on_c, 0, 49, 0
3, 10800, Note_on_c, 0, 55, 62
3, 10860, Note_on_c, 0, 55, 0
3, 10860, Note_on_c, 0, 49, 62
3, 10920, Note_on_c, 0, 49, 0
3, 10920, Note_on_c, 0, 55, 62
3, 10980, Note_on_c, 0, 55, 0
3, 10980, Note_on_c, 0, 49, 62
3, 11040, Note_on_c, 0, 49, 0
3, 11040, Note_on_c, 0, 55, 62
3, 11100, Note_on_c, 0, 55, 0
3, 11100, Note_on_c, 0, 49, 62
3, 11160, Note_on_c, 0, 49, 0
3, 11160, Note_on_c, 0, 55, 62
3, 11220, Note_on_c, 0, 55, 0
3, 11220, Note_on_c, 0, 49, 62
3, 11280, Note_on_c, 0, 49, 0
3, 11280, Note_on_c, 0, 55, 62
3, 11340, Note_on_c, 0, 55, 0
3, 11340, Note_on_c, 0, 49, 62
3, 11400, Note_on_c, 0, 49, 0
3, 11400, Control_c, 0, 64, 0
3, 11400, Note_on_c, 0, 55, 62
3, 11460, Note_on_c, 0, 55, 0
3, 11460, Note_on_c, 0, 49, 62
3, 11520, Note_on_c, 0, 49, 0
3, 11520, Note_on_c, 0, 55, 62
3, 11760, Note_on_c, 0, 55, 0
3, 12720, Note_on_c, 0, 68, 62
3, 12720, Note_on_c, 0, 77, 62
3, 13200, Note_on_c, 0, 77, 0
3, 13200, Note_on_c, 0, 68, 0
3, 13200, Note_on_c, 0, 68, 62
3, 13200, Note_on_c, 0, 72, 62
3, 13440, Note_on_c, 0, 72, 0
3, 13440, Note_on_c, 0, 68, 0
3, 13680, Note_on_c, 0, 67, 62
3, 13680, Note_on_c, 0, 76, 62
3, 14160, Note_on_c, 0, 76, 0
3, 14160, Note_on_c, 0, 67, 0
3, 14160, Note_on_c, 0, 67, 62
3, 14160, Note_on_c, 0, 70, 62
3, 14400, Note_on_c, 0, 70, 0
3, 14400, Note_on_c, 0, 67, 0
3, 14640, Note_on_c, 0, 68, 62
3, 14640, Note_on_c, 0, 77, 62
3, 15120, Note_on_c, 0, 77, 0
3, 15120, Note_on_c, 0, 68, 0
3, 15120, Note_on_c, 0, 68, 62
3, 15120, Note_on_c, 0, 72, 62
3, 15360, Note_on_c, 0, 72, 0
3, 15360, Note_on_c, 0, 68, 0
3, 16320, Note_on_c, 0, 48, 62
3, 16320, Note_on_c, 0, 53, 62
3, 16320, Note_on_c, 0, 56, 62
3, 17520, Note_on_c, 0, 56, 0
3, 17520, Note_on_c, 0, 53, 0
3, 17520, Note_on_c, 0, 48, 0
3, 17520, Control_c, 0, 64, 127
3, 17520, Note_on_c, 0, 56, 88
3, 17520, Note_on_c, 0, 60, 88
3, 17760, Note_on_c, 0, 60, 0
3, 17760, Note_on_c, 0, 56, 0
3, 17760, Note_on_c, 0, 58, 88
3, 17760, Note_on_c, 0, 61, 88
3, 18000, Note_on_c, 0, 61, 0
3, 18000, Note_on_c, 0, 58, 0
3, 18000, Control_c, 0, 64, 0
3, 18000, Note_on_c, 0, 56, 88
3, 18000, Note_on_c, 0, 60, 88
3, 18240, Note_on_c, 0, 60, 0
3, 18240, Note_on_c, 0, 56, 0
3, 18240, Note_on_c, 0, 55, 88
3, 18240, Note_on_c, 0, 58, 88
3, 19200, Note_on_c, 0, 58, 0
3, 19200, Note_on_c, 0, 55, 0
3, 19440, Control_c, 0, 64, 127
3, 19620, Note_on_c, 0, 73, 88
3, 19680, Note_on_c, 0, 73, 0
3, 19680, Note_on_c, 0, 68, 88
3, 19680, Note_on_c, 0, 72, 88
3, 19920, Note_on_c, 0, 72, 0
3, 19920, Note_on_c, 0, 68, 0
3, 19920, Control_c, 0, 64, 0
3, 19920, Note_on_c, 0, 67, 88
3, 19920, Note_on_c, 0, 70, 88
3, 20160, Note_on_c, 0, 70, 0
3, 20160, Note_on_c, 0, 67, 0
3, 20160, Note_on_c, 0, 70, 88
3, 20160, Note_on_c, 0, 79, 88
3, 21360, Note_on_c, 0, 79, 0
3, 21360, Note_on_c, 0, 70, 0
3, 21360, Control_c, 0, 64, 127
3, 21360, Note_on_c, 0, 67, 88
3, 21600, Note_on_c, 0, 67, 0
3, 21600, Note_on_c, 0, 68, 88
3, 21840, Note_on_c, 0, 68, 0
3, 21840, Control_c, 0, 64, 0
3, 21840, Note_on_c, 0, 67, 88
3, 22080, Note_on_c, 0, 67, 0
3, 22080, Note_on_c, 0, 68, 88
3, 23280, Note_on_c, 0, 68, 0
3, 23280, Control_c, 0, 64, 127
3, 23280, Note_on_c, 0, 68, 88
3, 23520, Note_on_c, 0, 68, 0
3, 23520, Note_on_c, 0, 67, 88
3, 23760, Note_on_c, 0, 67, 0
3, 23760, Control_c, 0, 64, 0
3, 23760, Note_on_c, 0, 65, 88
3, 24000, Note_on_c, 0, 65, 0
3, 24000, Note_on_c, 0, 68, 88
3, 24000, Note_on_c, 0, 72, 88
3, 25200, Note_on_c, 0, 72, 0
3, 25200, Note_on_c, 0, 68, 0
3, 25200, Control_c, 0, 64, 127
3, 25200, Note_on_c, 0, 68, 88
3, 25440, Note_on_c, 0, 68, 0
3, 25440, Note_on_c, 0, 67, 88
3, 25680, Note_on_c, 0, 67, 0
3, 25680, Control_c, 0, 64, 0
3, 25680, Note_on_c, 0, 65, 88
3, 25920, Note_on_c, 0, 65, 0
3, 25920, Note_on_c, 0, 65, 88
3, 25920, Note_on_c, 0, 70, 88
3, 25920, Note_on_c, 0, 73, 88
3, 27120, Note_on_c, 0, 73, 0
3, 27120, Note_on_c, 0, 70, 0
3, 27120, Note_on_c, 0, 65, 0
3, 27120, Control_c, 0, 64, 127
3, 27120, Note_on_c, 0, 70, 88
3, 27120, Note_on_c, 0, 73, 88
3, 27360, Note_on_c, 0, 73, 0
3, 27360, Note_on_c, 0, 70, 0
3, 27360, Note_on_c, 0, 68, 88
3, 27360, Note_on_c, 0, 72, 88
3, 27600, Note_on_c, 0, 72, 0
3, 27600, Note_on_c, 0, 68, 0
3, 27600, Control_c, 0, 64, 0
3, 27600, Note_on_c, 0, 67, 88
3, 27600, Note_on_c, 0, 70, 88
3, 27840, Note_on_c, 0, 70, 0
3, 27840, Note_on_c, 0, 67, 0
3, 27840, Note_on_c, 0, 65, 88
3, 27840, Note_on_c, 0, 68, 88
3, 28260, Note_on_c, 0, 71, 88
3, 28320, Note_on_c, 0, 71, 0
3, 28320, Note_on_c, 0, 68, 0
3, 28320, Note_on_c, 0, 65, 0
3, 28320, Note_on_c, 0, 65, 88
3, 28320, Note_on_c, 0, 68, 88
3, 28320, Note_on_c, 0, 72, 88
3, 28800, Note_on_c, 0, 72, 0
3, 28800, Note_on_c, 0, 68, 0
3, 28800, Note_on_c, 0, 65, 0
3, 28800, Note_on_c, 0, 64, 88
3, 28800, Note_on_c, 0, 67, 88
3, 29220, Note_on_c, 0, 71, 88
3, 29280, Note_on_c, 0, 71, 0
3, 29280, Note_on_c, 0, 67, 0
3, 29280, Note_on_c, 0, 64, 0
3, 29280, Note_on_c, 0, 64, 88
3, 29280, Note_on_c, 0, 67, 88
3, 29280, Note_on_c, 0, 72, 88
3, 29760, Note_on_c, 0, 72, 0
3, 29760, Note_on_c, 0, 67, 0
3, 29760, Note_on_c, 0, 64, 0
3, 29760, Control_c, 0, 64, 127
3, 29760, Note_on_c, 0, 65, 88
3, 29820, Note_on_c, 0, 65, 0
3, 29820, Note_on_c, 0, 68, 88
3, 29880, Note_on_c, 0, 68, 0
3, 29880, Note_on_c, 0, 65, 88
3, 29940, Note_on_c, 0, 65, 0
3, 29940, Note_on_c, 0, 68, 88
3, 30000, Note_on_c, 0, 68, 0
3, 30000, Note_on_c, 0, 65, 88
3, 30060, Note_on_c, 0, 65, 0
3, 30060, Note_on_c, 0, 68, 88
3, 30120, Note_on_c, 0, 68, 0
3, 30120, Note_on_c, 0, 65, 88
3, 30180, Note_on_c, 0, 65, 0
3, 30180, Note_on_c, 0, 68, 88
3, 30240, Note_on_c, 0, 68, 0
3, 30240, Note_on_c, 0, 65, 88
3, 30300, Note_on_c, 0, 65, 0
3, 30300, Note_on_c, 0, 68, 88
3, 30360, Note_on_c, 0, 68, 0
3, 30360, Note_on_c, 0, 65, 88
3, 30420, Note_on_c, 0, 65, 0
3, 30420, Note_on_c, 0, 68, 88
3, 30480, Note_on_c, 0, 68, 0
3, 30480, Note_on_c, 0, 65, 88
3, 30540, Note_on_c, 0, 65, 0
3, 30540, Note_on_c, 0, 68, 88
3, 30600, Note_on_c, 0, 68, 0
3, 30600, Note_on_c, 0, 65, 88
3, 30660, Note_on_c, 0, 65, 0
3, 30660, Note_on_c, 0, 68, 88
3, 30720, Note_on_c, 0, 68, 0
3, 30720, Control_c, 0, 64, 0
3, 30720, Note_on_c, 0, 65, 88
3, 30960, Note_on_c, 0, 65, 0
3, 31680, Note_on_c, 0, 63, 88
3, 31680, Note_on_c, 0, 67, 88
3, 31680, Note_on_c, 0, 70, 88
3, 32400, Note_on_c, 0, 70, 0
3, 32400, Note_on_c, 0, 67, 0
3, 32400, Note_on_c, 0, 63, 0
3, 32400, Note_on_c, 0, 63, 88
3, 32400, Note_on_c, 0, 67, 88
3, 32400, Note_on_c, 0, 70, 88
3, 32640, Note_on_c, 0, 70, 0
3, 32640, Note_on_c, 0, 67, 0
3, 32640, Note_on_c, 0, 63, 0
3, 32640, Note_on_c, 0, 65, 88
3, 32640, Note_on_c, 0, 68, 88
3, 32640, Note_on_c, 0, 70, 88
3, 33120, Note_on_c, 0, 70, 0
3, 33120, Note_on_c, 0, 68, 0
3, 33120, Note_on_c, 0, 65, 0
3, 33120, Note_on_c, 0, 67, 88
3, 33120, Note_on_c, 0, 70, 88
3, 33600, Note_on_c, 0, 70, 0
3, 33600, Note_on_c, 0, 67, 0
3, 33600, Note_on_c, 0, 68, 88
3, 33600, Note_on_c, 0, 72, 88
3, 33623, Note_on_c, 0, 72, 0
3, 33623, Note_on_c, 0, 68, 0
3, 33840, Note_on_c, 0, 68, 114
3, 34320, Note_on_c, 0, 68, 0
3, 34320, Control_c, 0, 64, 127
3, 34320, Note_on_c, 0, 67, 88
3, 34440, Note_on_c, 0, 67, 0
3, 34440, Note_on_c, 0, 68, 88
3, 34560, Note_on_c, 0, 68, 0
3, 34560, Note_on_c, 0, 70, 114
3, 34680, Note_on_c, 0, 70, 0
3, 34680, Note_on_c, 0, 68, 88
3, 34800, Note_on_c, 0, 68, 0
3, 34800, Note_on_c, 0, 67, 88
3, 34920, Note_on_c, 0, 67, 0
3, 34920, Control_c, 0, 64, 0
3, 34920, Note_on_c, 0, 68, 88
3, 35040, Note_on_c, 0, 68, 0
3, 35040, Control_c, 0, 64, 127
3, 35040, Note_on_c, 0, 70, 127
3, 35160, Note_on_c, 0, 70, 0
3, 35160, Note_on_c, 0, 68, 101
3, 35280, Note_on_c, 0, 68, 0
3, 35280, Note_on_c, 0, 67, 101
3, 35400, Note_on_c, 0, 67, 0
3, 35400, Control_c, 0, 64, 0
3, 35400, Note_on_c, 0, 68, 101
3, 35520, Note_on_c, 0, 68, 0
3, 35520, Note_on_c, 0, 65, 88
3, 35520, Note_on_c, 0, 69, 88
3, 35520, Note_on_c, 0, 72, 88
3, 35520, Note_on_c, 0, 77, 88
3, 36240, Note_on_c, 0, 77, 0
3, 36240, Note_on_c, 0, 65, 0
3, 36240, Note_on_c, 0, 69, 0
3, 36240, Note_on_c, 0, 72, 0
3, 36240, Note_on_c, 0, 65, 88
3, 36240, Note_on_c, 0, 69, 88
3, 36240, Note_on_c, 0, 72, 88
3, 36240, Note_on_c, 0, 75, 88
3, 36480, Note_on_c, 0, 75, 0
3, 36480, Note_on_c, 0, 65, 0
3, 36480, Note_on_c, 0, 69, 0
3, 36480, Note_on_c, 0, 72, 0
3, 36480, Note_on_c, 0, 65, 88
3, 36480, Note_on_c, 0, 70, 88
3, 36480, Note_on_c, 0, 73, 88
3, 36960, Note_on_c, 0, 73, 0
3, 36960, Note_on_c, 0, 70, 0
3, 36960, Note_on_c, 0, 65, 0
3, 36960, Note_on_c, 0, 63, 88
3, 36960, Note_on_c, 0, 65, 88
3, 36960, Note_on_c, 0, 72, 88
3, 37440, Note_on_c, 0, 72, 0
3, 37440, Note_on_c, 0, 65, 0
3, 37440, Note_on_c, 0, 63, 0
3, 37440, Note_on_c, 0, 61, 88
3, 37440, Note_on_c, 0, 65, 88
3, 37440, Note_on_c, 0, 70, 88
3, 37463, Note_on_c, 0, 70, 0
3, 37463, Note_on_c, 0, 65, 0
3, 37463, Note_on_c, 0, 61, 0
3, 37680, Note_on_c, 0, 70, 114
3, 38160, Note_on_c, 0, 70, 0
3, 38160, Note_on_c, 0, 69, 88
3, 38280, Note_on_c, 0, 69, 0
3, 38280, Note_on_c, 0, 70, 88
3, 38400, Note_on_c, 0, 70, 0
3, 38400, Control_c, 0, 64, 127
3, 38400, Note_on_c, 0, 72, 114
3, 38520, Note_on_c, 0, 72, 0
3, 38520, Note_on_c, 0, 70, 88
3, 38640, Note_on_c, 0, 70, 0
3, 38640, Note_on_c, 0, 69, 88
3, 38760, Note_on_c, 0, 69, 0
3, 38760, Control_c, 0, 64, 0
3, 38760, Note_on_c, 0, 70, 88
3, 38880, Note_on_c, 0, 70, 0
3, 38880, Control_c, 0, 64, 127
3, 38880, Note_on_c, 0, 72, 127
3, 39000, Note_on_c, 0, 72, 0
3, 39000, Note_on_c, 0, 70, 101
3, 39120, Note_on_c, 0, 70, 0
3, 39120, Note_on_c, 0, 69, 101
3, 39240, Note_on_c, 0, 69, 0
3, 39240, Control_c, 0, 64, 0
3, 39240, Note_on_c, 0, 70, 101
3, 39360, Note_on_c, 0, 70, 0
3, 39360, Note_on_c, 0, 67, 88
3, 39360, Note_on_c, 0, 70, 88
3, 39360, Note_on_c, 0, 75, 88
3, 40080, Note_on_c, 0, 75, 0
3, 40080, Note_on_c, 0, 70, 0
3, 40080, Note_on_c, 0, 67, 0
3, 40080, Note_on_c, 0, 67, 88
3, 40080, Note_on_c, 0, 70, 88
3, 40320, Note_on_c, 0, 70, 0
3, 40320, Note_on_c, 0, 67, 0
3, 40320, Note_on_c, 0, 68, 88
3, 40320, Note_on_c, 0, 75, 88
3, 40800, Note_on_c, 0, 75, 0
3, 40800, Note_on_c, 0, 68, 0
3, 40800, Note_on_c, 0, 70, 88
3, 40800, Note_on_c, 0, 73, 88
3, 41280, Note_on_c, 0, 73, 0
3, 41280, Note_on_c, 0, 70, 0
3, 41280, Note_on_c, 0, 68, 88
3, 41280, Note_on_c, 0, 72, 88
3, 41303, Note_on_c, 0, 72, 0
3, 41303, Note_on_c, 0, 68, 0
3, 41520, Note_on_c, 0, 72, 114
3, 42000, Note_on_c, 0, 72, 0
3, 42000, Control_c, 0, 64, 127
3, 42000, Note_on_c, 0, 71, 88
3, 42120, Note_on_c, 0, 71, 0
3, 42120, Note_on_c, 0, 72, 88
3, 42240, Note_on_c, 0, 72, 0
3, 42240, Note_on_c, 0, 73, 114
3, 42360, Note_on_c, 0, 73, 0
3, 42360, Note_on_c, 0, 72, 88
3, 42480, Note_on_c, 0, 72, 0
3, 42480, Note_on_c, 0, 71, 88
3, 42600, Note_on_c, 0, 71, 0
3, 42600, Control_c, 0, 64, 0
3, 42600, Note_on_c, 0, 72, 88
3, 42720, Note_on_c, 0, 72, 0
3, 42720, Control_c, 0, 64, 127
3, 42720, Note_on_c, 0, 73, 127
3, 42840, Note_on_c, 0, 73, 0
3, 42840, Note_on_c, 0, 72, 101
3, 42960, Note_on_c, 0, 72, 0
3, 42960, Note_on_c, 0, 71, 101
3, 43080, Note_on_c, 0, 71, 0
3, 43080, Control_c, 0, 64, 0
3, 43080, Note_on_c, 0, 72, 101
3, 43200, Note_on_c, 0, 72, 0
3, 43200, Note_on_c, 0, 65, 88
3, 43200, Note_on_c, 0, 70, 88
3, 43200, Note_on_c, 0, 73, 88
3, 43920, Note_on_c, 0, 73, 0
3, 43920, Note_on_c, 0, 70, 0
3, 43920, Note_on_c, 0, 65, 0
3, 43920, Note_on_c, 0, 61, 88
3, 43920, Note_on_c, 0, 65, 88
3, 43920, Note_on_c, 0, 70, 88
3, 44160, Note_on_c, 0, 70, 0
3, 44160, Note_on_c, 0, 65, 0
3, 44160, Note_on_c, 0, 61, 0
3, 44160, Note_on_c, 0, 60, 88
3, 44160, Note_on_c, 0, 65, 88
3, 44160, Note_on_c, 0, 68, 88
3, 44640, Note_on_c, 0, 68, 0
3, 44640, Note_on_c, 0, 65, 0
3, 44640, Note_on_c, 0, 60, 0
3, 44640, Note_on_c, 0, 60, 88
3, 44640, Note_on_c, 0, 64, 88
3, 44640, Note_on_c, 0, 67, 88
3, 44640, Note_on_c, 0, 70, 88
3, 45120, Note_on_c, 0, 70, 0
3, 45120, Note_on_c, 0, 60, 0
3, 45120, Note_on_c, 0, 64, 0
3, 45120, Note_on_c, 0, 67, 0
3, 45120, Note_on_c, 0, 60, 88
3, 45120, Note_on_c, 0, 65, 88
3, 45143, Note_on_c, 0, 65, 0
3, 45143, Note_on_c, 0, 60, 0
3, 45360, Note_on_c, 0, 65, 114
3, 45840, Note_on_c, 0, 65, 0
3, 45840, Control_c, 0, 64, 127
3, 45840, Note_on_c, 0, 64, 88
3, 45960, Note_on_c, 0, 64, 0
3, 45960, Note_on_c, 0, 65, 88
3, 46080, Note_on_c, 0, 65, 0
3, 46080, Note_on_c, 0, 67, 114
3, 46200, Note_on_c, 0, 67, 0
3, 46200, Note_on_c, 0, 65, 88
3, 46320, Note_on_c, 0, 65, 0
3, 46320, Note_on_c, 0, 64, 88
3, 46440, Note_on_c, 0, 64, 0
3, 46440, Control_c, 0, 64, 0
3, 46440, Note_on_c, 0, 65, 88
3, 46560, Note_on_c, 0, 65, 0
3, 46560, Control_c, 0, 64, 127
3, 46560, Note_on_c, 0, 67, 127
3, 46680, Note_on_c, 0, 67, 0
3, 46680, Note_on_c, 0, 65, 101
3, 46800, Note_on_c, 0, 65, 0
3, 46800, Note_on_c, 0, 64, 101
3, 46920, Note_on_c, 0, 64, 0
3, 46920, Control_c, 0, 64, 0
3, 46920, Note_on_c, 0, 65, 101
3, 47040, Note_on_c, 0, 65, 0
3, 47040, Note_on_c, 0, 63, 88
3, 47040, Note_on_c, 0, 67, 88
3, 47040, Note_on_c, 0, 70, 88
3, 47760, Note_on_c, 0, 70, 0
3, 47760, Note_on_c, 0, 67, 0
3, 47760, Note_on_c, 0, 63, 0
3, 47760, Note_on_c, 0, 63, 88
3, 47760, Note_on_c, 0, 67, 88
3, 47760, Note_on_c, 0, 70, 88
3, 48000, Note_on_c, 0, 70, 0
3, 48000, Note_on_c, 0, 67, 0
3, 48000, Note_on_c, 0, 63, 0
3, 48000, Note_on_c, 0, 65, 88
3, 48000, Note_on_c, 0, 68, 88
3, 48000, Note_on_c, 0, 70, 88
3, 48480, Note_on_c, 0, 70, 0
3, 48480, Note_on_c, 0, 68, 0
3, 48480, Note_on_c, 0, 65, 0
3, 48480, Note_on_c, 0, 67, 88
3, 48480, Note_on_c, 0, 70, 88
3, 48960, Note_on_c, 0, 70, 0
3, 48960, Note_on_c, 0, 67, 0
3, 48960, Note_on_c, 0, 68, 88
3, 48960, Note_on_c, 0, 72, 88
3, 48983, Note_on_c, 0, 72, 0
3, 48983, Note_on_c, 0, 68, 0
3, 49200, Note_on_c, 0, 68, 114
3, 49680, Note_on_c, 0, 68, 0
3, 49680, Control_c, 0, 64, 127
3, 49680, Note_on_c, 0, 67, 88
3, 49800, Note_on_c, 0, 67, 0
3, 49800, Note_on_c, 0, 68, 88
3, 49920, Note_on_c, 0, 68, 0
3, 49920, Note_on_c, 0, 70, 114
3, 50040, Note_on_c, 0, 70, 0
3, 50040, Note_on_c, 0, 68, 88
3, 50160, Note_on_c, 0, 68, 0
3, 50160, Note_on_c, 0, 67, 88
3, 50280, Note_on_c, 0, 67, 0
3, 50280, Control_c, 0, 64, 0
3, 50280, Note_on_c, 0, 68, 88
3, 50400, Note_on_c, 0, 68, 0
3, 50400, Control_c, 0, 64, 127
3, 50400, Note_on_c, 0, 70, 127
3, 50520, Note_on_c, 0, 70, 0
3, 50520, Note_on_c, 0, 68, 101
3, 50640, Note_on_c, 0, 68, 0
3, 50640, Note_on_c, 0, 67, 101
3, 50760, Note_on_c, 0, 67, 0
3, 50760, Control_c, 0, 64, 0
3, 50760, Note_on_c, 0, 68, 101
3, 50880, Note_on_c, 0, 68, 0
3, 50880, Note_on_c, 0, 65, 88
3, 50880, Note_on_c, 0, 69, 88
3, 50880, Note_on_c, 0, 72, 88
3, 50880, Note_on_c, 0, 77, 88
3, 51600, Note_on_c, 0, 77, 0
3, 51600, Note_on_c, 0, 65, 0
3, 51600, Note_on_c, 0, 69, 0
3, 51600, Note_on_c, 0, 72, 0
3, 51600, Note_on_c, 0, 65, 88
3, 51600, Note_on_c, 0, 69, 88
3, 51600, Note_on_c, 0, 72, 88
3, 51600, Note_on_c, 0, 75, 88
3, 51840, Note_on_c, 0, 75, 0
3, 51840, Note_on_c, 0, 65, 0
3, 51840, Note_on_c, 0, 69, 0
3, 51840, Note_on_c, 0, 72, 0
3, 51840, Note_on_c, 0, 65, 88
3, 51840, Note_on_c, 0, 70, 88
3, 51840, Note_on_c, 0, 73, 88
3, 52320, Note_on_c, 0, 73, 0
3, 52320, Note_on_c, 0, 70, 0
3, 52320, Note_on_c, 0, 65, 0
3, 52320, Note_on_c, 0, 63, 88
3, 52320, Note_on_c, 0, 65, 88
3, 52320, Note_on_c, 0, 72, 88
3, 52800, Note_on_c, 0, 72, 0
3, 52800, Note_on_c, 0, 65, 0
3, 52800, Note_on_c, 0, 63, 0
3, 52800, Note_on_c, 0, 61, 88
3, 52800, Note_on_c, 0, 65, 88
3, 52800, Note_on_c, 0, 70, 88
3, 52823, Note_on_c, 0, 70, 0
3, 52823, Note_on_c, 0, 65, 0
3, 52823, Note_on_c, 0, 61, 0
3, 53040, Note_on_c, 0, 70, 114
3, 53520, Note_on_c, 0, 70, 0
3, 53520, Note_on_c, 0, 69, 88
3, 53640, Note_on_c, 0, 69, 0
3, 53640, Note_on_c, 0, 70, 88
3, 53760, Note_on_c, 0, 70, 0
3, 53760, Control_c, 0, 64, 127
3, 53760, Note_on_c, 0, 72, 114
3, 53880, Note_on_c, 0, 72, 0
3, 53880, Note_on_c, 0, 70, 88
3, 54000, Note_on_c, 0, 70, 0
3, 54000, Note_on_c, 0, 69, 88
3, 54120, Note_on_c, 0, 69, 0
3, 54120, Control_c, 0, 64, 0
3, 54120, Note_on_c, 0, 70, 88
3, 54240, Note_on_c, 0, 70, 0
3, 54240, Control_c, 0, 64, 127
3, 54240, Note_on_c, 0, 72, 127
3, 54360, Note_on_c, 0, 72, 0
3, 54360, Note_on_c, 0, 70, 101
3, 54480, Note_on_c, 0, 70, 0
3, 54480, Note_on_c, 0, 69, 101
3, 54600, Note_on_c, 0, 69, 0
3, 54600, Control_c, 0, 64, 0
3, 54600, Note_on_c, 0, 70, 101
3, 54720, Note_on_c, 0, 70, 0
3, 54720, Note_on_c, 0, 67, 88
3, 54720, Note_on_c, 0, 70, 88
3, 54720, Note_on_c, 0, 75, 88
3, 55440, Note_on_c, 0, 75, 0
3, 55440, Note_on_c, 0, 70, 0
3, 55440, Note_on_c, 0, 67, 0
3, 55440, Note_on_c, 0, 67, 88
3, 55440, Note_on_c, 0, 70, 88
3, 55680, Note_on_c, 0, 70, 0
3, 55680, Note_on_c, 0, 67, 0
3, 55680, Note_on_c, 0, 68, 88
3, 55680, Note_on_c, 0, 75, 88
3, 56160, Note_on_c, 0, 75, 0
3, 56160, Note_on_c, 0, 68, 0
3, 56160, Note_on_c, 0, 70, 88
3, 56160, Note_on_c, 0, 73, 88
3, 56640, Note_on_c, 0, 73, 0
3, 56640, Note_on_c, 0, 70, 0
3, 56640, Note_on_c, 0, 68, 88
3, 56640, Note_on_c, 0, 72, 88
3, 56663, Note_on_c, 0, 72, 0
3, 56663, Note_on_c, 0, 68, 0
3, 56880, Note_on_c, 0, 72, 114
3, 57360, Note_on_c, 0, 72, 0
3, 57360, Control_c, 0, 64, 127
3, 57360, Note_on_c, 0, 71, 88
3, 57480, Note_on_c, 0, 71, 0
3, 57480, Note_on_c, 0, 72, 88
3, 57600, Note_on_c, 0, 72, 0
3, 57600, Note_on_c, 0, 73, 114
3, 57720, Note_on_c, 0, 73, 0
3, 57720, Note_on_c, 0, 72, 88
3, 57840, Note_on_c, 0, 72, 0
3, 57840, Note_on_c, 0, 71, 88
3, 57960, Note_on_c, 0, 71, 0
3, 57960, Control_c, 0, 64, 0
3, 57960, Note_on_c, 0, 72, 88
3, 58080, Note_on_c, 0, 72, 0
3, 58080, Control_c, 0, 64, 127
3, 58080, Note_on_c, 0, 73, 127
3, 58200, Note_on_c, 0, 73, 0
3, 58200, Note_on_c, 0, 72, 101
3, 58320, Note_on_c, 0, 72, 0
3, 58320, Note_on_c, 0, 71, 101
3, 58440, Note_on_c, 0, 71, 0
3, 58440, Control_c, 0, 64, 0
3, 58440, Note_on_c, 0, 72, 101
3, 58560, Note_on_c, 0, 72, 0
3, 58560, Note_on_c, 0, 65, 88
3, 58560, Note_on_c, 0, 70, 88
3, 58560, Note_on_c, 0, 73, 88
3, 59280, Note_on_c, 0, 73, 0
3, 59280, Note_on_c, 0, 70, 0
3, 59280, Note_on_c, 0, 65, 0
3, 59280, Note_on_c, 0, 61, 88
3, 59280, Note_on_c, 0, 65, 88
3, 59280, Note_on_c, 0, 70, 88
3, 59520, Note_on_c, 0, 70, 0
3, 59520, Note_on_c, 0, 65, 0
3, 59520, Note_on_c, 0, 61, 0
3, 59520, Note_on_c, 0, 60, 88
3, 59520, Note_on_c, 0, 65, 88
3, 59520, Note_on_c, 0, 68, 88
3, 60000, Note_on_c, 0, 68, 0
3, 60000, Note_on_c, 0, 65, 0
3, 60000, Note_on_c, 0, 60, 0
3, 60000, Note_on_c, 0, 60, 88
3, 60000, Note_on_c, 0, 64, 88
3, 60000, Note_on_c, 0, 67, 88
3, 60000, Note_on_c, 0, 70, 88
3, 60480, Note_on_c, 0, 70, 0
3, 60480, Note_on_c, 0, 60, 0
3, 60480, Note_on_c, 0, 64, 0
3, 60480, Note_on_c, 0, 67, 0
3, 60480, Note_on_c, 0, 60, 88
3, 60480, Note_on_c, 0, 65, 88
3, 60503, Note_on_c, 0, 65, 0
3, 60503, Note_on_c, 0, 60, 0
3, 60720, Note_on_c, 0, 65, 114
3, 61200, Note_on_c, 0, 65, 0
3, 61200, Control_c, 0, 64, 127
3, 61200, Note_on_c, 0, 64, 88
3, 61320, Note_on_c, 0, 64, 0
3, 61320, Note_on_c, 0, 65, 88
3, 61440, Note_on_c, 0, 65, 0
3, 61440, Note_on_c, 0, 67, 114
3, 61560, Note_on_c, 0, 67, 0
3, 61560, Note_on_c, 0, 65, 88
3, 61680, Note_on_c, 0, 65, 0
3, 61680, Note_on_c, 0, 64, 88
3, 61800, Note_on_c, 0, 64, 0
3, 61800, Control_c, 0, 64, 0
3, 61800, Note_on_c, 0, 67, 88
3, 61920, Note_on_c, 0, 67, 0
3, 61920, Note_on_c, 0, 65, 88
3, 62160, Note_on_c, 0, 65, 0
3, 63120, Control_c, 0, 64, 127
3, 63120, Note_on_c, 0, 68, 75
3, 63360, Note_on_c, 0, 68, 0
3, 63360, Note_on_c, 0, 70, 75
3, 63600, Note_on_c, 0, 70, 0
3, 63600, Control_c, 0, 64, 0
3, 63600, Note_on_c, 0, 68, 75
3, 63840, Note_on_c, 0, 68, 0
3, 63840, Control_c, 0, 64, 127
3, 63840, Note_on_c, 0, 72, 75
3, 63900, Note_on_c, 0, 72, 0
3, 63900, Note_on_c, 0, 77, 75
3, 63960, Note_on_c, 0, 77, 0
3, 63960, Note_on_c, 0, 72, 75
3, 64020, Note_on_c, 0, 72, 0
3, 64020, Note_on_c, 0, 77, 75
3, 64080, Note_on_c, 0, 77, 0
3, 64080, Note_on_c, 0, 72, 75
3, 64140, Note_on_c, 0, 72, 0
3, 64140, Note_on_c, 0, 77, 75
3, 64200, Note_on_c, 0, 77, 0
3, 64200, Note_on_c, 0, 72, 75
3, 64260, Note_on_c, 0, 72, 0
3, 64260, Note_on_c, 0, 77, 75
3, 64320, Note_on_c, 0, 77, 0
3, 64320, Note_on_c, 0, 72, 75
3, 64380, Note_on_c, 0, 72, 0
3, 64380, Note_on_c, 0, 77, 75
3, 64440, Note_on_c, 0, 77, 0
3, 64440, Note_on_c, 0, 72, 75
3, 64500, Note_on_c, 0, 72, 0
3, 64500, Note_on_c, 0, 77, 75
3, 64560, Note_on_c, 0, 77, 0
3, 64560, Note_on_c, 0, 72, 75
3, 64620, Note_on_c, 0, 72, 0
3, 64620, Note_on_c, 0, 77, 75
3, 64680, Note_on_c, 0, 77, 0
3, 64680, Note_on_c, 0, 72, 75
3, 64740, Note_on_c, 0, 72, 0
3, 64740, Control_c, 0, 64, 0
3, 64740, Note_on_c, 0, 77, 75
3, 64800, Note_on_c, 0, 77, 0
3, 64800, Note_on_c, 0, 72, 75
3, 65040, Note_on_c, 0, 72, 0
3, 65040, Control_c, 0, 64, 127
3, 65040, Note_on_c, 0, 68, 75
3, 65280, Note_on_c, 0, 68, 0
3, 65280, Note_on_c, 0, 70, 75
3, 65520, Note_on_c, 0, 70, 0
3, 65520, Control_c, 0, 64, 0
3, 65520, Note_on_c, 0, 68, 75
3, 65760, Note_on_c, 0, 68, 0
3, 65760, Note_on_c, 0, 68, 75
3, 66720, Note_on_c, 0, 68, 0
3, 66720, Note_on_c, 0, 67, 75
3, 66960, Note_on_c, 0, 67, 0
3, 66960, Control_c, 0, 64, 127
3, 66960, Note_on_c, 0, 67, 75
3, 66960, Note_on_c, 0, 70, 75
3, 67140, Note_on_c, 0, 73, 75
3, 67200, Note_on_c, 0, 73, 0
3, 67200, Note_on_c, 0, 70, 0
3, 67200, Note_on_c, 0, 67, 0
3, 67200, Note_on_c, 0, 68, 101
3, 67200, Note_on_c, 0, 72, 101
3, 67440, Note_on_c, 0, 72, 0
3, 67440, Note_on_c, 0, 68, 0
3, 67440, Control_c, 0, 64, 0
3, 67440, Note_on_c, 0, 67, 101
3, 67440, Note_on_c, 0, 70, 101
3, 67680, Note_on_c, 0, 70, 0
3, 67680, Note_on_c, 0, 67, 0
3, 67680, Note_on_c, 0, 70, 101
3, 67680, Note_on_c, 0, 79, 101
3, 68400, Note_on_c, 0, 79, 0
3, 68400, Note_on_c, 0, 70, 0
3, 68400, Control_c, 0, 64, 127
3, 68400, Note_on_c, 0, 77, 88
3, 68480, Note_on_c, 0, 77, 0
3, 68480, Note_on_c, 0, 79, 88
3, 68559, Note_on_c, 0, 79, 0
3, 68559, Note_on_c, 0, 77, 88
3, 68640, Note_on_c, 0, 77, 0
3, 68640, Control_c, 0, 64, 0
3, 68640, Note_on_c, 0, 76, 88
3, 68663, Note_on_c, 0, 76, 0
3, 68880, Note_on_c, 0, 73, 75
3, 68960, Note_on_c, 0, 73, 0
3, 68960, Note_on_c, 0, 75, 75
3, 69039, Note_on_c, 0, 75, 0
3, 69039, Note_on_c, 0, 73, 75
3, 69120, Note_on_c, 0, 73, 0
3, 69120, Control_c, 0, 64, 0
3, 69120, Note_on_c, 0, 72, 75
3, 69143, Note_on_c, 0, 72, 0
3, 69360, Control_c, 0, 64, 127
3, 69360, Note_on_c, 0, 70, 75
3, 69440, Note_on_c, 0, 70, 0
3, 69440, Note_on_c, 0, 72, 75
3, 69519, Note_on_c, 0, 72, 0
3, 69519, Note_on_c, 0, 70, 75
3, 69600, Note_on_c, 0, 70, 0
3, 69600, Note_on_c, 0, 68, 75
3, 70560, Control_c, 0, 64, 0
3, 70800, Note_on_c, 0, 68, 0
3, 70800, Control_c, 0, 64, 127
3, 70800, Note_on_c, 0, 68, 75
3, 71040, Note_on_c, 0, 68, 0
3, 71040, Note_on_c, 0, 67, 75
3, 71280, Note_on_c, 0, 67, 0
3, 71280, Control_c, 0, 64, 0
3, 71280, Note_on_c, 0, 65, 75
3, 71520, Note_on_c, 0, 65, 0
3, 71520, Note_on_c, 0, 68, 75
3, 71520, Note_on_c, 0, 72, 75
3, 72480, Note_on_c, 0, 68, 0
3, 72720, Note_on_c, 0, 72, 0
3, 72720, Control_c, 0, 64, 127
3, 72720, Note_on_c, 0, 68, 75
3, 72960, Note_on_c, 0, 68, 0
3, 72960, Note_on_c, 0, 67, 75
3, 73200, Note_on_c, 0, 67, 0
3, 73200, Control_c, 0, 64, 0
3, 73200, Note_on_c, 0, 65, 75
3, 73440, Note_on_c, 0, 65, 0
3, 73440, Note_on_c, 0, 70, 75
3, 73440, Note_on_c, 0, 73, 75
3, 74640, Note_on_c, 0, 73, 0
3, 74640, Note_on_c, 0, 70, 0
3, 74640, Control_c, 0, 64, 127
3, 74640, Note_on_c, 0, 70, 75
3, 74640, Note_on_c, 0, 73, 75
3, 74880, Note_on_c, 0, 73, 0
3, 74880, Note_on_c, 0, 70, 0
3, 74880, Note_on_c, 0, 68, 75
3, 74880, Note_on_c, 0, 72, 75
3, 75120, Note_on_c, 0, 72, 0
3, 75120, Note_on_c, 0, 68, 0
3, 75120, Control_c, 0, 64, 0
3, 75120, Note_on_c, 0, 67, 75
3, 75120, Note_on_c, 0, 70, 75
3, 75360, Note_on_c, 0, 70, 0
3, 75360, Note_on_c, 0, 67, 0
3, 75360, Note_on_c, 0, 65, 88
3, 75360, Note_on_c, 0, 68, 88
3, 75780, Note_on_c, 0, 71, 88
3, 75840, Note_on_c, 0, 71, 0
3, 75840, Note_on_c, 0, 68, 0
3, 75840, Note_on_c, 0, 65, 0
3, 75840, Note_on_c, 0, 65, 88
3, 75840, Note_on_c, 0, 68, 88
3, 75840, Note_on_c, 0, 72, 88
3, 76320, Note_on_c, 0, 72, 0
3, 76320, Note_on_c, 0, 68, 0
3, 76320, Note_on_c, 0, 65, 0
3, 76320, Note_on_c, 0, 64, 88
3, 76320, Note_on_c, 0, 67, 88
3, 76740, Note_on_c, 0, 71, 88
3, 76800, Note_on_c, 0, 71, 0
3, 76800, Note_on_c, 0, 67, 0
3, 76800, Note_on_c, 0, 64, 0
3, 76800, Note_on_c, 0, 64, 88
3, 76800, Note_on_c, 0, 67, 88
3, 76800, Note_on_c, 0, 72, 88
3, 77280, Note_on_c, 0, 72, 0
3, 77280, Note_on_c, 0, 67, 0
3, 77280, Note_on_c, 0, 64, 0
3, 77280, Control_c, 0, 64, 127
3, 77280, Control_c, 0, 64, 127
3, 77280, Note_on_c, 0, 65, 75
3, 77340, Note_on_c, 0, 65, 0
3, 77340, Note_on_c, 0, 68, 75
3, 77400, Note_on_c, 0, 68, 0
3, 77400, Note_on_c, 0, 65, 75
3, 77460, Note_on_c, 0, 65, 0
3, 77460, Note_on_c, 0, 68, 75
3, 77520, Note_on_c, 0, 68, 0
3, 77520, Note_on_c, 0, 65, 88
3, 77580, Note_on_c, 0, 65, 0
3, 77580, Note_on_c, 0, 68, 88
3, 77640, Note_on_c, 0, 68, 0
3, 77640, Note_on_c, 0, 65, 88
3, 77700, Note_on_c, 0, 65, 0
3, 77700, Note_on_c, 0, 68, 88
3, 77760, Note_on_c, 0, 68, 0
3, 77760, Note_on_c, 0, 65, 101
3, 77820, Note_on_c, 0, 65, 0
3, 77820, Note_on_c, 0, 68, 101
3, 77880, Note_on_c, 0, 68, 0
3, 77880, Note_on_c, 0, 65, 101
3, 77940, Note_on_c, 0, 65, 0
3, 77940, Note_on_c, 0, 68, 101
3, 78000, Note_on_c, 0, 68, 0
3, 78000, Note_on_c, 0, 65, 114
3, 78060, Note_on_c, 0, 65, 0
3, 78060, Note_on_c, 0, 68, 114
3, 78120, Note_on_c, 0, 68, 0
3, 78120, Note_on_c, 0, 65, 114
3, 78160, Note_on_c, 0, 65, 127
3, 78180, Note_on_c, 0, 65, 0
3, 78180, Control_c, 0, 64, 0
3, 78180, Note_on_c, 0, 68, 114
3, 78200, Note_on_c, 0, 68, 127
3, 78240, Note_on_c, 0, 68, 0
3, 78240, Note_on_c, 0, 72, 127
3, 78263, Note_on_c, 0, 72, 0
3, 78263, Note_on_c, 0, 68, 0
3, 78263, Note_on_c, 0, 65, 0
3, 80400, Control_c, 0, 64, 127
3, 80400, Note_on_c, 0, 72, 62
3, 80640, Note_on_c, 0, 72, 0
3, 80640, Note_on_c, 0, 74, 62
3, 80880, Note_on_c, 0, 74, 0
3, 80880, Note_on_c, 0, 76, 62
3, 81120, Note_on_c, 0, 76, 0
3, 81120, Note_on_c, 0, 77, 62
3, 81360, Note_on_c, 0, 77, 0
3, 81360, Control_c, 0, 64, 0
3, 81360, Note_on_c, 0, 79, 62
3, 81600, Note_on_c, 0, 79, 0
3, 81600, Note_on_c, 0, 81, 62
3, 81600, Note_on_c, 0, 89, 62
3, 82320, Note_on_c, 0, 89, 0
3, 82320, Note_on_c, 0, 81, 0
3, 82320, Note_on_c, 0, 77, 62
3, 82320, Note_on_c, 0, 84, 62
3, 82560, Note_on_c, 0, 84, 0
3, 82560, Note_on_c, 0, 77, 0
3, 82560, Note_on_c, 0, 72, 62
3, 82560, Note_on_c, 0, 81, 62
3, 83280, Note_on_c, 0, 81, 0
3, 83280, Note_on_c, 0, 72, 0
3, 83280, Note_on_c, 0, 77, 62
3, 83280, Note_on_c, 0, 84, 62
3, 83520, Note_on_c, 0, 84, 0
3, 83520, Note_on_c, 0, 77, 0
3, 83520, Note_on_c, 0, 74, 62
3, 83520, Note_on_c, 0, 82, 62
3, 84240, Note_on_c, 0, 82, 0
3, 84240, Note_on_c, 0, 74, 0
3, 84240, Note_on_c, 0, 82, 62
3, 84240, Note_on_c, 0, 86, 62
3, 84480, Note_on_c, 0, 86, 0
3, 84480, Note_on_c, 0, 82, 0
3, 84480, Note_on_c, 0, 81, 62
3, 84480, Note_on_c, 0, 89, 62
3, 84960, Note_on_c, 0, 89, 0
3, 84960, Note_on_c, 0, 81, 0
3, 84960, Note_on_c, 0, 77, 62
3, 84960, Note_on_c, 0, 84, 62
3, 85440, Note_on_c, 0, 84, 0
3, 85440, Note_on_c, 0, 77, 0
3, 85440, Note_on_c, 0, 79, 62
3, 85440, Note_on_c, 0, 84, 62
3, 85920, Note_on_c, 0, 84, 0
3, 85920, Note_on_c, 0, 79, 0
3, 85920, Note_on_c, 0, 81, 62
3, 85920, Note_on_c, 0, 84, 62
3, 86400, Note_on_c, 0, 84, 0
3, 86400, Note_on_c, 0, 81, 0
3, 86400, Note_on_c, 0, 77, 62
3, 86400, Note_on_c, 0, 81, 62
3, 86880, Note_on_c, 0, 81, 0
3, 86880, Note_on_c, 0, 77, 0
3, 86880, Note_on_c, 0, 77, 88
3, 86940, Note_on_c, 0, 77, 0
3, 86940, Note_on_c, 0, 76, 62
3, 87060, Note_on_c, 0, 76, 0
3, 87120, Note_on_c, 0, 79, 88
3, 87180, Note_on_c, 0, 79, 0
3, 87180, Note_on_c, 0, 77, 62
3, 87300, Note_on_c, 0, 77, 0
3, 87360, Note_on_c, 0, 81, 62
3, 87360, Note_on_c, 0, 89, 62
3, 88080, Note_on_c, 0, 89, 0
3, 88080, Note_on_c, 0, 81, 0
3, 88080, Note_on_c, 0, 77, 62
3, 88080, Note_on_c, 0, 84, 62
3, 88320, Note_on_c, 0, 84, 0
3, 88320, Note_on_c, 0, 77, 0
3, 88320, Note_on_c, 0, 72, 62
3, 88320, Note_on_c, 0, 81, 62
3, 89040, Note_on_c, 0, 81, 0
3, 89040, Note_on_c, 0, 72, 0
3, 89040, Note_on_c, 0, 77, 62
3, 89040, Note_on_c, 0, 84, 62
3, 89280, Note_on_c, 0, 84, 0
3, 89280, Note_on_c, 0, 77, 0
3, 89280, Note_on_c, 0, 74, 62
3, 89280, Note_on_c, 0, 82, 62
3, 90000, Note_on_c, 0, 82, 0
3, 90000, Note_on_c, 0, 74, 0
3, 90000, Note_on_c, 0, 82, 62
3, 90000, Note_on_c, 0, 86, 62
3, 90240, Note_on_c, 0, 86, 0
3, 90240, Note_on_c, 0, 82, 0
3, 90240, Note_on_c, 0, 81, 62
3, 90240, Note_on_c, 0, 89, 62
3, 90720, Note_on_c, 0, 89, 0
3, 90720, Note_on_c, 0, 81, 0
3, 90720, Note_on_c, 0, 77, 62
3, 90720, Note_on_c, 0, 84, 62
3, 91200, Note_on_c, 0, 84, 0
3, 91200, Note_on_c, 0, 77, 0
3, 91200, Note_on_c, 0, 79, 62
3, 91200, Note_on_c, 0, 84, 62
3, 91680, Note_on_c, 0, 84, 0
3, 91680, Note_on_c, 0, 79, 0
3, 91680, Note_on_c, 0, 81, 62
3, 91680, Note_on_c, 0, 84, 62
3, 92160, Note_on_c, 0, 84, 0
3, 92160, Note_on_c, 0, 81, 0
3, 92160, Note_on_c, 0, 77, 62
3, 92160, Note_on_c, 0, 81, 62
3, 92640, Note_on_c, 0, 81, 0
3, 92640, Note_on_c, 0, 77, 0
3, 92640, Note_on_c, 0, 77, 62
3, 92640, Note_on_c, 0, 81, 62
3, 92880, Note_on_c, 0, 81, 0
3, 92880, Note_on_c, 0, 77, 0
3, 92880, Note_on_c, 0, 77, 62
3, 92903, Note_on_c, 0, 77, 0
3, 93120, Note_on_c, 0, 86, 62
3, 93120, Note_on_c, 0, 89, 62
3, 93840, Note_on_c, 0, 89, 0
3, 93840, Note_on_c, 0, 86, 0
3, 93840, Note_on_c, 0, 86, 62
3, 93840, Note_on_c, 0, 89, 62
3, 94080, Note_on_c, 0, 89, 0
3, 94080, Note_on_c, 0, 86, 0
3, 94080, Note_on_c, 0, 84, 62
3, 94080, Note_on_c, 0, 89, 62
3, 94560, Note_on_c, 0, 89, 0
3, 94560, Note_on_c, 0, 84, 0
3, 94560, Note_on_c, 0, 82, 62
3, 94560, Note_on_c, 0, 88, 62
3, 95040, Note_on_c, 0, 88, 0
3, 95040, Note_on_c, 0, 82, 0
3, 95040, Note_on_c, 0, 81, 62
3, 95040, Note_on_c, 0, 84, 62
3, 95760, Note_on_c, 0, 84, 0
3, 95760, Note_on_c, 0, 81, 0
3, 95760, Note_on_c, 0, 81, 62
3, 95760, Note_on_c, 0, 84, 62
3, 96000, Note_on_c, 0, 84, 0
3, 96000, Note_on_c, 0, 81, 0
3, 96000, Note_on_c, 0, 79, 62
3, 96000, Note_on_c, 0, 85, 62
3, 96480, Note_on_c, 0, 85, 0
3, 96480, Note_on_c, 0, 79, 0
3, 96480, Note_on_c, 0, 77, 62
3, 96480, Note_on_c, 0, 81, 62
3, 96480, Note_on_c, 0, 86, 62
3, 96960, Note_on_c, 0, 86, 0
3, 96960, Note_on_c, 0, 81, 0
3, 96960, Note_on_c, 0, 77, 0
3, 96960, Note_on_c, 0, 76, 62
3, 96960, Note_on_c, 0, 81, 62
3, 97440, Note_on_c, 0, 81, 0
3, 97440, Note_on_c, 0, 76, 0
3, 97440, Note_on_c, 0, 77, 62
3, 97440, Note_on_c, 0, 81, 62
3, 97920, Note_on_c, 0, 81, 0
3, 97920, Note_on_c, 0, 77, 0
3, 97920, Note_on_c, 0, 74, 75
3, 97920, Note_on_c, 0, 77, 75
3, 98400, Note_on_c, 0, 77, 0
3, 98400, Note_on_c, 0, 74, 0
3, 98400, Note_on_c, 0, 74, 75
3, 98400, Note_on_c, 0, 77, 75
3, 98423, Note_on_c, 0, 77, 0
3, 98423, Note_on_c, 0, 74, 0
3, 98640, Note_on_c, 0, 77, 75
3, 98663, Note_on_c, 0, 77, 0
3, 98880, Note_on_c, 0, 77, 75
3, 98880, Note_on_c, 0, 86, 75
3, 98880, Note_on_c, 0, 89, 75
3, 99600, Note_on_c, 0, 89, 0
3, 99600, Note_on_c, 0, 86, 0
3, 99600, Note_on_c, 0, 77, 0
3, 99600, Note_on_c, 0, 77, 75
3, 99600, Note_on_c, 0, 86, 75
3, 99600, Note_on_c, 0, 89, 75
3, 99840, Note_on_c, 0, 89, 0
3, 99840, Note_on_c, 0, 86, 0
3, 99840, Note_on_c, 0, 77, 0
3, 99840, Note_on_c, 0, 77, 75
3, 99840, Note_on_c, 0, 84, 75
3, 99840, Note_on_c, 0, 89, 75
3, 100320, Note_on_c, 0, 89, 0
3, 100320, Note_on_c, 0, 84, 0
3, 100320, Note_on_c, 0, 77, 0
3, 100320, Note_on_c, 0, 76, 75
3, 100320, Note_on_c, 0, 82, 75
3, 100320, Note_on_c, 0, 88, 75
3, 100800, Note_on_c, 0, 88, 0
3, 100800, Note_on_c, 0, 82, 0
3, 100800, Note_on_c, 0, 76, 0
3, 100800, Note_on_c, 0, 72, 75
3, 100800, Note_on_c, 0, 81, 75
3, 100800, Note_on_c, 0, 84, 75
3, 101520, Note_on_c, 0, 84, 0
3, 101520, Note_on_c, 0, 81, 0
3, 101520, Note_on_c, 0, 72, 0
3, 101520, Note_on_c, 0, 72, 75
3, 101520, Note_on_c, 0, 81, 75
3, 101520, Note_on_c, 0, 84, 75
3, 101760, Note_on_c, 0, 84, 0
3, 101760, Note_on_c, 0, 81, 0
3, 101760, Note_on_c, 0, 72, 0
3, 101760, Note_on_c, 0, 73, 75
3, 101760, Note_on_c, 0, 79, 75
3, 101760, Note_on_c, 0, 85, 75
3, 102240, Note_on_c, 0, 85, 0
3, 102240, Note_on_c, 0, 79, 0
3, 102240, Note_on_c, 0, 73, 0
3, 102240, Note_on_c, 0, 69, 75
3, 102240, Note_on_c, 0, 74, 75
3, 102240, Note_on_c, 0, 77, 75
3, 102240, Note_on_c, 0, 81, 75
3, 102240, Note_on_c, 0, 86, 75
3, 102720, Note_on_c, 0, 86, 0
3, 102720, Note_on_c, 0, 77, 0
3, 102720, Note_on_c, 0, 69, 0
3, 102720, Note_on_c, 0, 74, 0
3, 102720, Note_on_c, 0, 81, 0
3, 102720, Note_on_c, 0, 69, 75
3, 102720, Note_on_c, 0, 76, 75
3, 102720, Note_on_c, 0, 81, 75
3, 103200, Note_on_c, 0, 81, 0
3, 103200, Note_on_c, 0, 76, 0
3, 103200, Note_on_c, 0, 69, 0
3, 103200, Note_on_c, 0, 69, 75
3, 103200, Note_on_c, 0, 77, 75
3, 103200, Note_on_c, 0, 81, 75
3, 103680, Note_on_c, 0, 81, 0
3, 103680, Note_on_c, 0, 77, 0
3, 103680, Note_on_c, 0, 69, 0
3, 103680, Note_on_c, 0, 74, 75
3, 103800, Note_on_c, 0, 74, 0
3, 103800, Note_on_c, 0, 69, 75
3, 103920, Note_on_c, 0, 69, 0
3, 103920, Note_on_c, 0, 71, 75
3, 104040, Note_on_c, 0, 71, 0
3, 104040, Note_on_c, 0, 73, 75
3, 104160, Note_on_c, 0, 73, 0
3, 104160, Note_on_c, 0, 74, 75
3, 104183, Note_on_c, 0, 74, 0
3, 104400, Note_on_c, 0, 72, 101
3, 104423, Note_on_c, 0, 72, 0
3, 104640, Note_on_c, 0, 72, 88
3, 104640, Note_on_c, 0, 81, 88
3, 104640, Note_on_c, 0, 84, 88
3, 105360, Note_on_c, 0, 84, 0
3, 105360, Note_on_c, 0, 81, 0
3, 105360, Note_on_c, 0, 72, 0
3, 105360, Note_on_c, 0, 72, 88
3, 105360, Note_on_c, 0, 77, 88
3, 105360, Note_on_c, 0, 84, 88
3, 105600, Note_on_c, 0, 84, 0
3, 105600, Note_on_c, 0, 77, 0
3, 105600, Note_on_c, 0, 72, 0
3, 105600, Note_on_c, 0, 69, 88
3, 105600, Note_on_c, 0, 72, 88
3, 105600, Note_on_c, 0, 81, 88
3, 106320, Note_on_c, 0, 81, 0
3, 106320, Note_on_c, 0, 72, 0
3, 106320, Note_on_c, 0, 69, 0
3, 106320, Note_on_c, 0, 72, 88
3, 106320, Note_on_c, 0, 77, 88
3, 106320, Note_on_c, 0, 84, 88
3, 106560, Note_on_c, 0, 84, 0
3, 106560, Note_on_c, 0, 77, 0
3, 106560, Note_on_c, 0, 72, 0
3, 106560, Note_on_c, 0, 70, 88
3, 106560, Note_on_c, 0, 74, 88
3, 106560, Note_on_c, 0, 82, 88
3, 107280, Note_on_c, 0, 82, 0
3, 107280, Note_on_c, 0, 74, 0
3, 107280, Note_on_c, 0, 70, 0
3, 107280, Note_on_c, 0, 74, 88
3, 107280, Note_on_c, 0, 82, 88
3, 107280, Note_on_c, 0, 86, 88
3, 107520, Note_on_c, 0, 86, 0
3, 107520, Note_on_c, 0, 82, 0
3, 107520, Note_on_c, 0, 74, 0
3, 107520, Note_on_c, 0, 72, 88
3, 107520, Note_on_c, 0, 81, 88
3, 107520, Note_on_c, 0, 84, 88
3, 108000, Note_on_c, 0, 84, 0
3, 108000, Note_on_c, 0, 81, 0
3, 108000, Note_on_c, 0, 72, 0
3, 108000, Note_on_c, 0, 72, 88
3, 108000, Note_on_c, 0, 77, 88
3, 108000, Note_on_c, 0, 84, 88
3, 108480, Note_on_c, 0, 84, 0
3, 108480, Note_on_c, 0, 77, 0
3, 108480, Note_on_c, 0, 72, 0
3, 108480, Note_on_c, 0, 72, 88
3, 108480, Note_on_c, 0, 79, 88
3, 108480, Note_on_c, 0, 84, 88
3, 108960, Note_on_c, 0, 84, 0
3, 108960, Note_on_c, 0, 79, 0
3, 108960, Note_on_c, 0, 72, 0
3, 108960, Note_on_c, 0, 72, 88
3, 108960, Note_on_c, 0, 81, 88
3, 108960, Note_on_c, 0, 84, 88
3, 109440, Note_on_c, 0, 84, 0
3, 109440, Note_on_c, 0, 81, 0
3, 109440, Note_on_c, 0, 72, 0
3, 109440, Note_on_c, 0, 77, 88
3, 109560, Note_on_c, 0, 77, 0
3, 109560, Note_on_c, 0, 72, 88
3, 109680, Note_on_c, 0, 72, 0
3, 109680, Note_on_c, 0, 74, 88
3, 109800, Note_on_c, 0, 74, 0
3, 109800, Note_on_c, 0, 76, 88
3, 109920, Note_on_c, 0, 76, 0
3, 109920, Note_on_c, 0, 77, 114
3, 109980, Note_on_c, 0, 77, 0
3, 109980, Note_on_c, 0, 76, 88
3, 110100, Note_on_c, 0, 76, 0
3, 110160, Note_on_c, 0, 79, 114
3, 110220, Note_on_c, 0, 79, 0
3, 110220, Note_on_c, 0, 77, 88
3, 110340, Note_on_c, 0, 77, 0
3, 110400, Note_on_c, 0, 72, 88
3, 110400, Note_on_c, 0, 81, 88
3, 110400, Note_on_c, 0, 84, 88
3, 111120, Note_on_c, 0, 84, 0
3, 111120, Note_on_c, 0, 81, 0
3, 111120, Note_on_c, 0, 72, 0
3, 111120, Note_on_c, 0, 72, 88
3, 111120, Note_on_c, 0, 77, 88
3, 111120, Note_on_c, 0, 84, 88
3, 111360, Note_on_c, 0, 84, 0
3, 111360, Note_on_c, 0, 77, 0
3, 111360, Note_on_c, 0, 72, 0
3, 111360, Note_on_c, 0, 69, 88
3, 111360, Note_on_c, 0, 72, 88
3, 111360, Note_on_c, 0, 81, 88
3, 112080, Note_on_c, 0, 81, 0
3, 112080, Note_on_c, 0, 72, 0
3, 112080, Note_on_c, 0, 69, 0
3, 112080, Note_on_c, 0, 72, 88
3, 112080, Note_on_c, 0, 77, 88
3, 112080, Note_on_c, 0, 84, 88
3, 112320, Note_on_c, 0, 84, 0
3, 112320, Note_on_c, 0, 77, 0
3, 112320, Note_on_c, 0, 72, 0
3, 112320, Note_on_c, 0, 70, 88
3, 112320, Note_on_c, 0, 74, 88
3, 112320, Note_on_c, 0, 82, 88
3, 113040, Note_on_c, 0, 82, 0
3, 113040, Note_on_c, 0, 74, 0
3, 113040, Note_on_c, 0, 70, 0
3, 113040, Note_on_c, 0, 74, 88
3, 113040, Note_on_c, 0, 82, 88
3, 113040, Note_on_c, 0, 86, 88
3, 113280, Note_on_c, 0, 86, 0
3, 113280, Note_on_c, 0, 82, 0
3, 113280, Note_on_c, 0, 74, 0
3, 113280, Note_on_c, 0, 72, 88
3, 113280, Note_on_c, 0, 81, 88
3, 113280, Note_on_c, 0, 84, 88
3, 113760, Note_on_c, 0, 84, 0
3, 113760, Note_on_c, 0, 81, 0
3, 113760, Note_on_c, 0, 72, 0
3, 113760, Note_on_c, 0, 72, 88
3, 113760, Note_on_c, 0, 77, 88
3, 113760, Note_on_c, 0, 84, 88
3, 114240, Note_on_c, 0, 84, 0
3, 114240, Note_on_c, 0, 77, 0
3, 114240, Note_on_c, 0, 72, 0
3, 114240, Note_on_c, 0, 72, 88
3, 114240, Note_on_c, 0, 79, 88
3, 114240, Note_on_c, 0, 84, 88
3, 114720, Note_on_c, 0, 84, 0
3, 114720, Note_on_c, 0, 79, 0
3, 114720, Note_on_c, 0, 72, 0
3, 114720, Note_on_c, 0, 72, 88
3, 114720, Note_on_c, 0, 81, 88
3, 114720, Note_on_c, 0, 84, 88
3, 115200, Note_on_c, 0, 84, 0
3, 115200, Note_on_c, 0, 81, 0
3, 115200, Note_on_c, 0, 72, 0
3, 115200, Note_on_c, 0, 77, 88
3, 115320, Note_on_c, 0, 77, 0
3, 115320, Note_on_c, 0, 72, 88
3, 115440, Note_on_c, 0, 72, 0
3, 115440, Note_on_c, 0, 74, 88
3, 115560, Note_on_c, 0, 74, 0
3, 115560, Note_on_c, 0, 76, 88
3, 115680, Note_on_c, 0, 76, 0
3, 115680, Note_on_c, 0, 77, 88
3, 115703, Note_on_c, 0, 77, 0
3, 115920, Note_on_c, 0, 77, 114
3, 115943, Note_on_c, 0, 77, 0
3, 116160, Note_on_c, 0, 77, 101
3, 116160, Note_on_c, 0, 86, 101
3, 116160, Note_on_c, 0, 89, 101
3, 116880, Note_on_c, 0, 89, 0
3, 116880, Note_on_c, 0, 86, 0
3, 116880, Note_on_c, 0, 77, 0
3, 116880, Note_on_c, 0, 77, 101
3, 116880, Note_on_c, 0, 86, 101
3, 116880, Note_on_c, 0, 89, 101
3, 117120, Note_on_c, 0, 89, 0
3, 117120, Note_on_c, 0, 86, 0
3, 117120, Note_on_c, 0, 77, 0
3, 117120, Note_on_c, 0, 77, 101
3, 117120, Note_on_c, 0, 84, 101
3, 117120, Note_on_c, 0, 89, 101
3, 117600, Note_on_c, 0, 89, 0
3, 117600, Note_on_c, 0, 84, 0
3, 117600, Note_on_c, 0, 77, 0
3, 117600, Note_on_c, 0, 76, 101
3, 117600, Note_on_c, 0, 82, 101
3, 117600, Note_on_c, 0, 88, 101
3, 118080, Note_on_c, 0, 88, 0
3, 118080, Note_on_c, 0, 82, 0
3, 118080, Note_on_c, 0, 76, 0
3, 118080, Note_on_c, 0, 72, 101
3, 118080, Note_on_c, 0, 81, 101
3, 118080, Note_on_c, 0, 84, 101
3, 118800, Note_on_c, 0, 84, 0
3, 118800, Note_on_c, 0, 81, 0
3, 118800, Note_on_c, 0, 72, 0
3, 118800, Note_on_c, 0, 72, 101
3, 118800, Note_on_c, 0, 81, 101
3, 118800, Note_on_c, 0, 84, 101
3, 119040, Note_on_c, 0, 84, 0
3, 119040, Note_on_c, 0, 81, 0
3, 119040, Note_on_c, 0, 72, 0
3, 119040, Note_on_c, 0, 73, 101
3, 119040, Note_on_c, 0, 79, 101
3, 119040, Note_on_c, 0, 85, 101
3, 119520, Note_on_c, 0, 85, 0
3, 119520, Note_on_c, 0, 79, 0
3, 119520, Note_on_c, 0, 73, 0
3, 119520, Note_on_c, 0, 74, 101
3, 119520, Note_on_c, 0, 77, 101
3, 119520, Note_on_c, 0, 86, 101
3, 120000, Note_on_c, 0, 86, 0
3, 120000, Note_on_c, 0, 77, 0
3, 120000, Note_on_c, 0, 74, 0
3, 120000, Note_on_c, 0, 69, 101
3, 120000, Note_on_c, 0, 76, 101
3, 120000, Note_on_c, 0, 81, 101
3, 120480, Note_on_c, 0, 81, 0
3, 120480, Note_on_c, 0, 76, 0
3, 120480, Note_on_c, 0, 69, 0
3, 120480, Note_on_c, 0, 69, 101
3, 120480, Note_on_c, 0, 77, 101
3, 120480, Note_on_c, 0, 81, 101
3, 120960, Note_on_c, 0, 81, 0
3, 120960, Note_on_c, 0, 77, 0
3, 120960, Note_on_c, 0, 69, 0
3, 120960, Control_c, 0, 64, 127
3, 120960, Note_on_c, 0, 74, 101
3, 121080, Note_on_c, 0, 74, 0
3, 121080, Note_on_c, 0, 69, 101
3, 121200, Note_on_c, 0, 69, 0
3, 121200, Note_on_c, 0, 71, 101
3, 121320, Note_on_c, 0, 71, 0
3, 121320, Note_on_c, 0, 73, 101
3, 121440, Note_on_c, 0, 73, 0
3, 121440, Control_c, 0, 64, 0
3, 121440, Note_on_c, 0, 74, 101
3, 121463, Note_on_c, 0, 74, 0
3, 121680, Note_on_c, 0, 77, 101
3, 121703, Note_on_c, 0, 77, 0
3, 121920, Note_on_c, 0, 86, 88
3, 121920, Note_on_c, 0, 89, 88
3, 122640, Note_on_c, 0, 89, 0
3, 122640, Note_on_c, 0, 86, 0
3, 122640, Note_on_c, 0, 86, 88
3, 122640, Note_on_c, 0, 89, 88
3, 122880, Note_on_c, 0, 89, 0
3, 122880, Note_on_c, 0, 86, 0
3, 122880, Note_on_c, 0, 84, 88
3, 122880, Note_on_c, 0, 89, 88
3, 123360, Note_on_c, 0, 89, 0
3, 123360, Note_on_c, 0, 84, 0
3, 123360, Note_on_c, 0, 82, 88
3, 123360, Note_on_c, 0, 88, 88
3, 123840, Note_on_c, 0, 88, 0
3, 123840, Note_on_c, 0, 82, 0
3, 123840, Note_on_c, 0, 81, 75
3, 123840, Note_on_c, 0, 84, 75
3, 124560, Note_on_c, 0, 84, 0
3, 124560, Note_on_c, 0, 81, 0
3, 124560, Note_on_c, 0, 81, 75
3, 124560, Note_on_c, 0, 84, 75
3, 124800, Note_on_c, 0, 84, 0
3, 124800, Note_on_c, 0, 81, 0
3, 124800, Note_on_c, 0, 79, 75
3, 124800, Note_on_c, 0, 84, 75
3, 125280, Note_on_c, 0, 84, 0
3, 125280, Note_on_c, 0, 79, 0
3, 125280, Note_on_c, 0, 77, 75
3, 125280, Note_on_c, 0, 86, 75
3, 125760, Note_on_c, 0, 86, 0
3, 125760, Note_on_c, 0, 77, 0
3, 125760, Note_on_c, 0, 76, 62
3, 125760, Note_on_c, 0, 81, 62
3, 126240, Note_on_c, 0, 81, 0
3, 126240, Note_on_c, 0, 76, 0
3, 126240, Note_on_c, 0, 77, 62
3, 126240, Note_on_c, 0, 81, 62
3, 126720, Note_on_c, 0, 81, 0
3, 126720, Note_on_c, 0, 77, 0
3, 126720, Note_on_c, 0, 74, 62
3, 126720, Note_on_c, 0, 77, 62
3, 127440, Note_on_c, 0, 77, 0
3, 127440, Note_on_c, 0, 74, 0
3, 127440, Note_on_c, 0, 72, 62
3, 127463, Note_on_c, 0, 72, 0
3, 127680, Note_on_c, 0, 81, 62
3, 128640, Note_on_c, 0, 81, 0
3, 129600, Note_on_c, 0, 69, 62
3, 130560, Note_on_c, 0, 69, 0
3, 131040, Note_on_c, 0, 60, 62
3, 131520, Note_on_c, 0, 60, 0
3, 131520, Note_on_c, 0, 69, 62
3, 133680, Note_on_c, 0, 69, 0
3, 136320, Control_c, 0, 64, 127
3, 136320, Note_on_c, 0, 53, 62
3, 136380, Note_on_c, 0, 53, 0
3, 136380, Note_on_c, 0, 56, 62
3, 136440, Note_on_c, 0, 56, 0
3, 136440, Note_on_c, 0, 53, 62
3, 136500, Note_on_c, 0, 53, 0
3, 136500, Note_on_c, 0, 56, 62
3, 136560, Note_on_c, 0, 56, 0
3, 136560, Note_on_c, 0, 53, 62
3, 136620, Note_on_c, 0, 53, 0
3, 136620, Note_on_c, 0, 56, 62
3, 136680, Note_on_c, 0, 56, 0
3, 136680, Note_on_c, 0, 53, 62
3, 136740, Note_on_c, 0, 53, 0
3, 136740, Note_on_c, 0, 56, 62
3, 136800, Note_on_c, 0, 56, 0
3, 136800, Note_on_c, 0, 53, 62
3, 136860, Note_on_c, 0, 53, 0
3, 136860, Note_on_c, 0, 56, 62
3, 136920, Note_on_c, 0, 56, 0
3, 136920, Note_on_c, 0, 53, 62
3, 136980, Note_on_c, 0, 53, 0
3, 136980, Note_on_c, 0, 56, 62
3, 137040, Note_on_c, 0, 56, 0
3, 137040, Note_on_c, 0, 53, 62
3, 137100, Note_on_c, 0, 53, 0
3, 137100, Note_on_c, 0, 56, 62
3, 137160, Note_on_c, 0, 56, 0
3, 137160, Control_c, 0, 64, 0
3, 137160, Note_on_c, 0, 53, 62
3, 137220, Note_on_c, 0, 53, 0
3, 137220, Note_on_c, 0, 56, 62
3, 137280, Note_on_c, 0, 56, 0
3, 137280, Control_c, 0, 64, 127
3, 137280, Note_on_c, 0, 48, 62
3, 137340, Note_on_c, 0, 48, 0
3, 137340, Note_on_c, 0, 53, 62
3, 137400, Note_on_c, 0, 53, 0
3, 137400, Note_on_c, 0, 48, 62
3, 137460, Note_on_c, 0, 48, 0
3, 137460, Note_on_c, 0, 53, 62
3, 137520, Note_on_c, 0, 53, 0
3, 137520, Note_on_c, 0, 48, 62
3, 137580, Note_on_c, 0, 48, 0
3, 137580, Note_on_c, 0, 53, 62
3, 137640, Note_on_c, 0, 53, 0
3, 137640, Note_on_c, 0, 48, 62
3, 137700, Note_on_c, 0, 48, 0
3, 137700, Note_on_c, 0, 53, 62
3, 137760, Note_on_c, 0, 53, 0
3, 137760, Note_on_c, 0, 48, 62
3, 137820, Note_on_c, 0, 48, 0
3, 137820, Note_on_c, 0, 53, 62
3, 137880, Note_on_c, 0, 53, 0
3, 137880, Note_on_c, 0, 48, 62
3, 137940, Note_on_c, 0, 48, 0
3, 137940, Note_on_c, 0, 53, 62
3, 138000, Note_on_c, 0, 53, 0
3, 138000, Note_on_c, 0, 48, 62
3, 138060, Note_on_c, 0, 48, 0
3, 138060, Note_on_c, 0, 53, 62
3, 138120, Note_on_c, 0, 53, 0
3, 138120, Control_c, 0, 64, 0
3, 138120, Note_on_c, 0, 48, 62
3, 138180, Note_on_c, 0, 48, 0
3, 138180, Note_on_c, 0, 53, 62
3, 138240, Note_on_c, 0, 53, 0
3, 138240, Control_c, 0, 64, 127
3, 138240, Note_on_c, 0, 49, 62
3, 138300, Note_on_c, 0, 49, 0
3, 138300, Note_on_c, 0, 53, 62
3, 138360, Note_on_c, 0, 53, 0
3, 138360, Note_on_c, 0, 49, 62
3, 138420, Note_on_c, 0, 49, 0
3, 138420, Note_on_c, 0, 53, 62
3, 138480, Note_on_c, 0, 53, 0
3, 138480, Note_on_c, 0, 49, 62
3, 138540, Note_on_c, 0, 49, 0
3, 138540, Note_on_c, 0, 53, 62
3, 138600, Note_on_c, 0, 53, 0
3, 138600, Note_on_c, 0, 49, 62
3, 138660, Note_on_c, 0, 49, 0
3, 138660, Note_on_c, 0, 53, 62
3, 138720, Note_on_c, 0, 53, 0
3, 138720, Note_on_c, 0, 49, 62
3, 138780, Note_on_c, 0, 49, 0
3, 138780, Note_on_c, 0, 53, 62
3, 138840, Note_on_c, 0, 53, 0
3, 138840, Note_on_c, 0, 49, 62
3, 138900, Note_on_c, 0, 49, 0
3, 138900, Note_on_c, 0, 53, 62
3, 138960, Note_on_c, 0, 53, 0
3, 138960, Note_on_c, 0, 49, 62
3, 139020, Note_on_c, 0, 49, 0
3, 139020, Note_on_c, 0, 53, 62
3, 139080, Note_on_c, 0, 53, 0
3, 139080, Control_c, 0, 64, 0
3, 139080, Note_on_c, 0, 49, 62
3, 139140, Note_on_c, 0, 49, 0
3, 139140, Note_on_c, 0, 53, 62
3, 139200, Note_on_c, 0, 53, 0
3, 139200, Control_c, 0, 64, 127
3, 139200, Note_on_c, 0, 46, 62
3, 139260, Note_on_c, 0, 46, 0
3, 139260, Note_on_c, 0, 49, 62
3, 139320, Note_on_c, 0, 49, 0
3, 139320, Note_on_c, 0, 46, 62
3, 139380, Note_on_c, 0, 46, 0
3, 139380, Note_on_c, 0, 49, 62
3, 139440, Note_on_c, 0, 49, 0
3, 139440, Note_on_c, 0, 46, 62
3, 139500, Note_on_c, 0, 46, 0
3, 139500, Note_on_c, 0, 49, 62
3, 139560, Note_on_c, 0, 49, 0
3, 139560, Note_on_c, 0, 46, 62
3, 139620, Note_on_c, 0, 46, 0
3, 139620, Note_on_c, 0, 49, 62
3, 139680, Note_on_c, 0, 49, 0
3, 139680, Note_on_c, 0, 46, 62
3, 139740, Note_on_c, 0, 46, 0
3, 139740, Note_on_c, 0, 49, 62
3, 139800, Note_on_c, 0, 49, 0
3, 139800, Note_on_c, 0, 46, 62
3, 139860, Note_on_c, 0, 46, 0
3, 139860, Note_on_c, 0, 49, 62
3, 139920, Note_on_c, 0, 49, 0
3, 139920, Note_on_c, 0, 46, 62
3, 139980, Note_on_c, 0, 46, 0
3, 139980, Note_on_c, 0, 49, 62
3, 140040, Note_on_c, 0, 49, 0
3, 140040, Control_c, 0, 64, 0
3, 140040, Note_on_c, 0, 46, 62
3, 140100, Note_on_c, 0, 46, 0
3, 140100, Note_on_c, 0, 49, 62
3, 140160, Note_on_c, 0, 49, 0
3, 140160, Control_c, 0, 64, 127
3, 140160, Note_on_c, 0, 52, 62
3, 140220, Note_on_c, 0, 52, 0
3, 140220, Note_on_c, 0, 55, 62
3, 140280, Note_on_c, 0, 55, 0
3, 140280, Note_on_c, 0, 52, 62
3, 140340, Note_on_c, 0, 52, 0
3, 140340, Note_on_c, 0, 55, 62
3, 140400, Note_on_c, 0, 55, 0
3, 140400, Note_on_c, 0, 52, 62
3, 140460, Note_on_c, 0, 52, 0
3, 140460, Note_on_c, 0, 55, 62
3, 140520, Note_on_c, 0, 55, 0
3, 140520, Note_on_c, 0, 52, 62
3, 140580, Note_on_c, 0, 52, 0
3, 140580, Note_on_c, 0, 55, 62
3, 140640, Note_on_c, 0, 55, 0
3, 140640, Note_on_c, 0, 52, 62
3, 140700, Note_on_c, 0, 52, 0
3, 140700, Note_on_c, 0, 55, 62
3, 140760, Note_on_c, 0, 55, 0
3, 140760, Note_on_c, 0, 52, 62
3, 140820, Note_on_c, 0, 52, 0
3, 140820, Note_on_c, 0, 55, 62
3, 140880, Note_on_c, 0, 55, 0
3, 140880, Note_on_c, 0, 52, 62
3, 140940, Note_on_c, 0, 52, 0
3, 140940, Note_on_c, 0, 55, 62
3, 141000, Note_on_c, 0, 55, 0
3, 141000, Control_c, 0, 64, 0
3, 141000, Note_on_c, 0, 52, 62
3, 141060, Note_on_c, 0, 52, 0
3, 141060, Note_on_c, 0, 55, 62
3, 141120, Note_on_c, 0, 55, 0
3, 141120, Control_c, 0, 64, 127
3, 141120, Note_on_c, 0, 48, 62
3, 141180, Note_on_c, 0, 48, 0
3, 141180, Note_on_c, 0, 52, 62
3, 141240, Note_on_c, 0, 52, 0
3, 141240, Note_on_c, 0, 48, 62
3, 141300, Note_on_c, 0, 48, 0
3, 141300, Note_on_c, 0, 52, 62
3, 141360, Note_on_c, 0, 52, 0
3, 141360, Note_on_c, 0, 48, 62
3, 141420, Note_on_c, 0, 48, 0
3, 141420, Note_on_c, 0, 52, 62
3, 141480, Note_on_c, 0, 52, 0
3, 141480, Note_on_c, 0, 48, 62
3, 141540, Note_on_c, 0, 48, 0
3, 141540, Note_on_c, 0, 52, 62
3, 141600, Note_on_c, 0, 52, 0
3, 141600, Note_on_c, 0, 48, 62
3, 141660, Note_on_c, 0, 48, 0
3, 141660, Note_on_c, 0, 52, 62
3, 141720, Note_on_c, 0, 52, 0
3, 141720, Note_on_c, 0, 48, 62
3, 141780, Note_on_c, 0, 48, 0
3, 141780, Note_on_c, 0, 52, 62
3, 141840, Note_on_c, 0, 52, 0
3, 141840, Note_on_c, 0, 48, 62
3, 141900, Note_on_c, 0, 48, 0
3, 141900, Note_on_c, 0, 52, 62
3, 141960, Note_on_c, 0, 52, 0
3, 141960, Control_c, 0, 64, 0
3, 141960, Note_on_c, 0, 48, 62
3, 142020, Note_on_c, 0, 48, 0
3, 142020, Note_on_c, 0, 52, 62
3, 142080, Note_on_c, 0, 52, 0
3, 142080, Control_c, 0, 64, 127
3, 142080, Note_on_c, 0, 48, 62
3, 142140, Note_on_c, 0, 48, 0
3, 142140, Note_on_c, 0, 53, 62
3, 142200, Note_on_c, 0, 53, 0
3, 142200, Note_on_c, 0, 48, 62
3, 142260, Note_on_c, 0, 48, 0
3, 142260, Note_on_c, 0, 53, 62
3, 142320, Note_on_c, 0, 53, 0
3, 142320, Note_on_c, 0, 48, 62
3, 142380, Note_on_c, 0, 48, 0
3, 142380, Note_on_c, 0, 53, 62
3, 142440, Note_on_c, 0, 53, 0
3, 142440, Note_on_c, 0, 48, 62
3, 142500, Note_on_c, 0, 48, 0
3, 142500, Note_on_c, 0, 53, 62
3, 142560, Note_on_c, 0, 53, 0
3, 142560, Note_on_c, 0, 48, 62
3, 142620, Note_on_c, 0, 48, 0
3, 142620, Note_on_c, 0, 53, 62
3, 142680, Note_on_c, 0, 53, 0
3, 142680, Note_on_c, 0, 48, 62
3, 142740, Note_on_c, 0, 48, 0
3, 142740, Note_on_c, 0, 53, 62
3, 142800, Note_on_c, 0, 53, 0
3, 142800, Note_on_c, 0, 48, 62
3, 142860, Note_on_c, 0, 48, 0
3, 142860, Note_on_c, 0, 53, 62
3, 142920, Note_on_c, 0, 53, 0
3, 142920, Control_c, 0, 64, 0
3, 142920, Note_on_c, 0, 48, 62
3, 142980, Note_on_c, 0, 48, 0
3, 142980, Note_on_c, 0, 53, 62
3, 143040, Note_on_c, 0, 53, 0
3, 143040, Control_c, 0, 64, 127
3, 143040, Note_on_c, 0, 44, 62
3, 143100, Note_on_c, 0, 44, 0
3, 143100, Note_on_c, 0, 48, 62
3, 143160, Note_on_c, 0, 48, 0
3, 143160, Note_on_c, 0, 44, 62
3, 143220, Note_on_c, 0, 44, 0
3, 143220, Note_on_c, 0, 48, 62
3, 143280, Note_on_c, 0, 48, 0
3, 143280, Note_on_c, 0, 44, 62
3, 143340, Note_on_c, 0, 44, 0
3, 143340, Note_on_c, 0, 48, 62
3, 143400, Note_on_c, 0, 48, 0
3, 143400, Note_on_c, 0, 44, 62
3, 143460, Note_on_c, 0, 44, 0
3, 143460, Note_on_c, 0, 48, 62
3, 143520, Note_on_c, 0, 48, 0
3, 143520, Note_on_c, 0, 44, 62
3, 143580, Note_on_c, 0, 44, 0
3, 143580, Note_on_c, 0, 48, 62
3, 143640, Note_on_c, 0, 48, 0
3, 143640, Note_on_c, 0, 44, 62
3, 143700, Note_on_c, 0, 44, 0
3, 143700, Note_on_c, 0, 48, 62
3, 143760, Note_on_c, 0, 48, 0
3, 143760, Note_on_c, 0, 44, 62
3, 143820, Note_on_c, 0, 44, 0
3, 143820, Note_on_c, 0, 48, 62
3, 143880, Note_on_c, 0, 48, 0
3, 143880, Note_on_c, 0, 44, 62
3, 143940, Note_on_c, 0, 44, 0
3, 143940, Control_c, 0, 64, 0
3, 143940, Note_on_c, 0, 48, 62
3, 144000, Note_on_c, 0, 48, 0
3, 144000, Control_c, 0, 64, 127
3, 144000, Note_on_c, 0, 53, 62
3, 144060, Note_on_c, 0, 53, 0
3, 144060, Note_on_c, 0, 48, 62
3, 144120, Note_on_c, 0, 48, 0
3, 144120, Note_on_c, 0, 53, 62
3, 144180, Note_on_c, 0, 53, 0
3, 144180, Note_on_c, 0, 48, 62
3, 144240, Note_on_c, 0, 48, 0
3, 144240, Note_on_c, 0, 53, 62
3, 144300, Note_on_c, 0, 53, 0
3, 144300, Note_on_c, 0, 48, 62
3, 144360, Note_on_c, 0, 48, 0
3, 144360, Note_on_c, 0, 53, 62
3, 144420, Note_on_c, 0, 53, 0
3, 144420, Note_on_c, 0, 48, 62
3, 144480, Note_on_c, 0, 48, 0
3, 144480, Note_on_c, 0, 53, 62
3, 144540, Note_on_c, 0, 53, 0
3, 144540, Note_on_c, 0, 48, 62
3, 144600, Note_on_c, 0, 48, 0
3, 144600, Note_on_c, 0, 53, 62
3, 144660, Note_on_c, 0, 53, 0
3, 144660, Note_on_c, 0, 48, 62
3, 144720, Note_on_c, 0, 48, 0
3, 144720, Note_on_c, 0, 53, 62
3, 144780, Note_on_c, 0, 53, 0
3, 144780, Note_on_c, 0, 48, 62
3, 144840, Note_on_c, 0, 48, 0
3, 144840, Note_on_c, 0, 53, 62
3, 144900, Note_on_c, 0, 53, 0
3, 144900, Control_c, 0, 64, 0
3, 144900, Note_on_c, 0, 48, 62
3, 144960, Note_on_c, 0, 48, 0
3, 144960, Note_on_c, 0, 53, 62
3, 145200, Note_on_c, 0, 53, 0
3, 145920, Control_c, 0, 64, 127
3, 145920, Note_on_c, 0, 55, 62
3, 145980, Note_on_c, 0, 55, 0
3, 145980, Note_on_c, 0, 49, 62
3, 146040, Note_on_c, 0, 49, 0
3, 146040, Note_on_c, 0, 55, 62
3, 146100, Note_on_c, 0, 55, 0
3, 146100, Note_on_c, 0, 49, 62
3, 146160, Note_on_c, 0, 49, 0
3, 146160, Note_on_c, 0, 55, 62
3, 146220, Note_on_c, 0, 55, 0
3, 146220, Note_on_c, 0, 49, 62
3, 146280, Note_on_c, 0, 49, 0
3, 146280, Note_on_c, 0, 55, 62
3, 146340, Note_on_c, 0, 55, 0
3, 146340, Note_on_c, 0, 49, 62
3, 146400, Note_on_c, 0, 49, 0
3, 146400, Note_on_c, 0, 55, 62
3, 146460, Note_on_c, 0, 55, 0
3, 146460, Note_on_c, 0, 49, 62
3, 146520, Note_on_c, 0, 49, 0
3, 146520, Note_on_c, 0, 55, 62
3, 146580, Note_on_c, 0, 55, 0
3, 146580, Note_on_c, 0, 49, 62
3, 146640, Note_on_c, 0, 49, 0
3, 146640, Note_on_c, 0, 55, 62
3, 146700, Note_on_c, 0, 55, 0
3, 146700, Note_on_c, 0, 49, 62
3, 146760, Note_on_c, 0, 49, 0
3, 146760, Control_c, 0, 64, 0
3, 146760, Note_on_c, 0, 55, 62
3, 146820, Note_on_c, 0, 55, 0
3, 146820, Note_on_c, 0, 49, 62
3, 146880, Note_on_c, 0, 49, 0
3, 146880, Note_on_c, 0, 55, 62
3, 147120, Note_on_c, 0, 55, 0
3, 148080, Note_on_c, 0, 68, 62
3, 148080, Note_on_c, 0, 77, 62
3, 148560, Note_on_c, 0, 77, 0
3, 148560, Note_on_c, 0, 68, 0
3, 148560, Note_on_c, 0, 68, 62
3, 148560, Note_on_c, 0, 72, 62
3, 148800, Note_on_c, 0, 72, 0
3, 148800, Note_on_c, 0, 68, 0
3, 149040, Note_on_c, 0, 67, 62
3, 149040, Note_on_c, 0, 76, 62
3, 149520, Note_on_c, 0, 76, 0
3, 149520, Note_on_c, 0, 67, 0
3, 149520, Note_on_c, 0, 67, 62
3, 149520, Note_on_c, 0, 70, 62
3, 149760, Note_on_c, 0, 70, 0
3, 149760, Note_on_c, 0, 67, 0
3, 150000, Note_on_c, 0, 68, 62
3, 150000, Note_on_c, 0, 77, 62
3, 150480, Note_on_c, 0, 77, 0
3, 150480, Note_on_c, 0, 68, 0
3, 150480, Note_on_c, 0, 68, 62
3, 150480, Note_on_c, 0, 72, 62
3, 150720, Note_on_c, 0, 72, 0
3, 150720, Note_on_c, 0, 68, 0
3, 151680, Note_on_c, 0, 48, 62
3, 151680, Note_on_c, 0, 53, 62
3, 151680, Note_on_c, 0, 56, 62
3, 152880, Note_on_c, 0, 56, 0
3, 152880, Note_on_c, 0, 53, 0
3, 152880, Note_on_c, 0, 48, 0
3, 152880, Control_c, 0, 64, 127
3, 152880, Note_on_c, 0, 56, 88
3, 152880, Note_on_c, 0, 60, 88
3, 153120, Note_on_c, 0, 60, 0
3, 153120, Note_on_c, 0, 56, 0
3, 153120, Note_on_c, 0, 58, 88
3, 153120, Note_on_c, 0, 61, 88
3, 153360, Note_on_c, 0, 61, 0
3, 153360, Note_on_c, 0, 58, 0
3, 153360, Control_c, 0, 64, 0
3, 153360, Note_on_c, 0, 56, 88
3, 153360, Note_on_c, 0, 60, 88
3, 153600, Note_on_c, 0, 60, 0
3, 153600, Note_on_c, 0, 56, 0
3, 153600, Note_on_c, 0, 55, 88
3, 153600, Note_on_c, 0, 58, 88
3, 154560, Note_on_c, 0, 58, 0
3, 154560, Note_on_c, 0, 55, 0
3, 154800, Control_c, 0, 64, 127
3, 154980, Note_on_c, 0, 73, 88
3, 155040, Note_on_c, 0, 73, 0
3, 155040, Note_on_c, 0, 68, 88
3, 155040, Note_on_c, 0, 72, 88
3, 155280, Note_on_c, 0, 72, 0
3, 155280, Note_on_c, 0, 68, 0
3, 155280, Control_c, 0, 64, 0
3, 155280, Note_on_c, 0, 67, 88
3, 155280, Note_on_c, 0, 70, 88
3, 155520, Note_on_c, 0, 70, 0
3, 155520, Note_on_c, 0, 67, 0
3, 155520, Note_on_c, 0, 70, 88
3, 155520, Note_on_c, 0, 79, 88
3, 156720, Note_on_c, 0, 79, 0
3, 156720, Note_on_c, 0, 70, 0
3, 156720, Control_c, 0, 64, 127
3, 156720, Note_on_c, 0, 67, 88
3, 156960, Note_on_c, 0, 67, 0
3, 156960, Note_on_c, 0, 68, 88
3, 157200, Note_on_c, 0, 68, 0
3, 157200, Control_c, 0, 64, 0
3, 157200, Note_on_c, 0, 67, 88
3, 157440, Note_on_c, 0, 67, 0
3, 157440, Note_on_c, 0, 68, 88
3, 158640, Note_on_c, 0, 68, 0
3, 158640, Control_c, 0, 64, 127
3, 158640, Note_on_c, 0, 68, 88
3, 158880, Note_on_c, 0, 68, 0
3, 158880, Note_on_c, 0, 67, 88
3, 159120, Note_on_c, 0, 67, 0
3, 159120, Control_c, 0, 64, 0
3, 159120, Note_on_c, 0, 65, 88
3, 159360, Note_on_c, 0, 65, 0
3, 159360, Note_on_c, 0, 68, 88
3, 159360, Note_on_c, 0, 72, 88
3, 160560, Note_on_c, 0, 72, 0
3, 160560, Note_on_c, 0, 68, 0
3, 160560, Control_c, 0, 64, 127
3, 160560, Note_on_c, 0, 68, 88
3, 160800, Note_on_c, 0, 68, 0
3, 160800, Note_on_c, 0, 67, 88
3, 161040, Note_on_c, 0, 67, 0
3, 161040, Control_c, 0, 64, 0
3, 161040, Note_on_c, 0, 65, 88
3, 161280, Note_on_c, 0, 65, 0
3, 161280, Note_on_c, 0, 65, 88
3, 161280, Note_on_c, 0, 70, 88
3, 161280, Note_on_c, 0, 73, 88
3, 162480, Note_on_c, 0, 73, 0
3, 162480, Note_on_c, 0, 70, 0
3, 162480, Note_on_c, 0, 65, 0
3, 162480, Control_c, 0, 64, 127
3, 162480, Note_on_c, 0, 70, 88
3, 162480, Note_on_c, 0, 73, 88
3, 162720, Note_on_c, 0, 73, 0
3, 162720, Note_on_c, 0, 70, 0
3, 162720, Note_on_c, 0, 68, 88
3, 162720, Note_on_c, 0, 72, 88
3, 162960, Note_on_c, 0, 72, 0
3, 162960, Note_on_c, 0, 68, 0
3, 162960, Control_c, 0, 64, 0
3, 162960, Note_on_c, 0, 67, 88
3, 162960, Note_on_c, 0, 70, 88
3, 163200, Note_on_c, 0, 70, 0
3, 163200, Note_on_c, 0, 67, 0
3, 163200, Note_on_c, 0, 65, 88
3, 163200, Note_on_c, 0, 68, 88
3, 163620, Note_on_c, 0, 71, 88
3, 163680, Note_on_c, 0, 71, 0
3, 163680, Note_on_c, 0, 68, 0
3, 163680, Note_on_c, 0, 65, 0
3, 163680, Note_on_c, 0, 65, 88
3, 163680, Note_on_c, 0, 68, 88
3, 163680, Note_on_c, 0, 72, 88
3, 164160, Note_on_c, 0, 72, 0
3, 164160, Note_on_c, 0, 68, 0
3, 164160, Note_on_c, 0, 65, 0
3, 164160, Note_on_c, 0, 64, 88
3, 164160, Note_on_c, 0, 67, 88
3, 164580, Note_on_c, 0, 71, 88
3, 164640, Note_on_c, 0, 71, 0
3, 164640, Note_on_c, 0, 67, 0
3, 164640, Note_on_c, 0, 64, 0
3, 164640, Note_on_c, 0, 64, 88
3, 164640, Note_on_c, 0, 67, 88
3, 164640, Note_on_c, 0, 72, 88
3, 165120, Note_on_c, 0, 72, 0
3, 165120, Note_on_c, 0, 67, 0
3, 165120, Note_on_c, 0, 64, 0
3, 165120, Control_c, 0, 64, 127
3, 165120, Note_on_c, 0, 65, 88
3, 165180, Note_on_c, 0, 65, 0
3, 165180, Note_on_c, 0, 68, 88
3, 165240, Note_on_c, 0, 68, 0
3, 165240, Note_on_c, 0, 65, 88
3, 165300, Note_on_c, 0, 65, 0
3, 165300, Note_on_c, 0, 68, 88
3, 165360, Note_on_c, 0, 68, 0
3, 165360, Note_on_c, 0, 65, 88
3, 165420, Note_on_c, 0, 65, 0
3, 165420, Note_on_c, 0, 68, 88
3, 165480, Note_on_c, 0, 68, 0
3, 165480, Note_on_c, 0, 65, 88
3, 165540, Note_on_c, 0, 65, 0
3, 165540, Note_on_c, 0, 68, 88
3, 165600, Note_on_c, 0, 68, 0
3, 165600, Note_on_c, 0, 65, 88
3, 165660, Note_on_c, 0, 65, 0
3, 165660, Note_on_c, 0, 68, 88
3, 165720, Note_on_c, 0, 68, 0
3, 165720, Note_on_c, 0, 65, 88
3, 165780, Note_on_c, 0, 65, 0
3, 165780, Note_on_c, 0, 68, 88
3, 165840, Note_on_c, 0, 68, 0
3, 165840, Note_on_c, 0, 65, 88
3, 165900, Note_on_c, 0, 65, 0
3, 165900, Note_on_c, 0, 68, 88
3, 165960, Note_on_c, 0, 68, 0
3, 165960, Note_on_c, 0, 65, 88
3, 166020, Note_on_c, 0, 65, 0
3, 166020, Note_on_c, 0, 68, 88
3, 166080, Note_on_c, 0, 68, 0
3, 166080, Control_c, 0, 64, 0
3, 166080, Note_on_c, 0, 65, 88
3, 166320, Note_on_c, 0, 65, 0
3, 167040, Note_on_c, 0, 63, 88
3, 167040, Note_on_c, 0, 67, 88
3, 167040, Note_on_c, 0, 70, 88
3, 167760, Note_on_c, 0, 70, 0
3, 167760, Note_on_c, 0, 67, 0
3, 167760, Note_on_c, 0, 63, 0
3, 167760, Note_on_c, 0, 63, 88
3, 167760, Note_on_c, 0, 67, 88
3, 167760, Note_on_c, 0, 70, 88
3, 168000, Note_on_c, 0, 70, 0
3, 168000, Note_on_c, 0, 67, 0
3, 168000, Note_on_c, 0, 63, 0
3, 168000, Note_on_c, 0, 65, 88
3, 168000, Note_on_c, 0, 68, 88
3, 168000, Note_on_c, 0, 70, 88
3, 168480, Note_on_c, 0, 70, 0
3, 168480, Note_on_c, 0, 68, 0
3, 168480, Note_on_c, 0, 65, 0
3, 168480, Note_on_c, 0, 67, 88
3, 168480, Note_on_c, 0, 70, 88
3, 168960, Note_on_c, 0, 70, 0
3, 168960, Note_on_c, 0, 67, 0
3, 168960, Note_on_c, 0, 68, 88
3, 168960, Note_on_c, 0, 72, 88
3, 168983, Note_on_c, 0, 72, 0
3, 168983, Note_on_c, 0, 68, 0
3, 169200, Note_on_c, 0, 68, 114
3, 169680, Note_on_c, 0, 68, 0
3, 169680, Control_c, 0, 64, 127
3, 169680, Note_on_c, 0, 67, 88
3, 169800, Note_on_c, 0, 67, 0
3, 169800, Note_on_c, 0, 68, 88
3, 169920, Note_on_c, 0, 68, 0
3, 169920, Note_on_c, 0, 70, 114
3, 170040, Note_on_c, 0, 70, 0
3, 170040, Note_on_c, 0, 68, 88
3, 170160, Note_on_c, 0, 68, 0
3, 170160, Note_on_c, 0, 67, 88
3, 170280, Note_on_c, 0, 67, 0
3, 170280, Control_c, 0, 64, 0
3, 170280, Note_on_c, 0, 68, 88
3, 170400, Note_on_c, 0, 68, 0
3, 170400, Control_c, 0, 64, 127
3, 170400, Note_on_c, 0, 70, 127
3, 170520, Note_on_c, 0, 70, 0
3, 170520, Note_on_c, 0, 68, 101
3, 170640, Note_on_c, 0, 68, 0
3, 170640, Note_on_c, 0, 67, 101
3, 170760, Note_on_c, 0, 67, 0
3, 170760, Control_c, 0, 64, 0
3, 170760, Note_on_c, 0, 68, 101
3, 170880, Note_on_c, 0, 68, 0
3, 170880, Note_on_c, 0, 65, 88
3, 170880, Note_on_c, 0, 69, 88
3, 170880, Note_on_c, 0, 72, 88
3, 170880, Note_on_c, 0, 77, 88
3, 171600, Note_on_c, 0, 77, 0
3, 171600, Note_on_c, 0, 65, 0
3, 171600, Note_on_c, 0, 69, 0
3, 171600, Note_on_c, 0, 72, 0
3, 171600, Note_on_c, 0, 65, 88
3, 171600, Note_on_c, 0, 69, 88
3, 171600, Note_on_c, 0, 72, 88
3, 171600, Note_on_c, 0, 75, 88
3, 171840, Note_on_c, 0, 75, 0
3, 171840, Note_on_c, 0, 65, 0
3, 171840, Note_on_c, 0, 69, 0
3, 171840, Note_on_c, 0, 72, 0
3, 171840, Note_on_c, 0, 65, 88
3, 171840, Note_on_c, 0, 70, 88
3, 171840, Note_on_c, 0, 73, 88
3, 172320, Note_on_c, 0, 73, 0
3, 172320, Note_on_c, 0, 70, 0
3, 172320, Note_on_c, 0, 65, 0
3, 172320, Note_on_c, 0, 63, 88
3, 172320, Note_on_c, 0, 65, 88
3, 172320, Note_on_c, 0, 72, 88
3, 172800, Note_on_c, 0, 72, 0
3, 172800, Note_on_c, 0, 65, 0
3, 172800, Note_on_c, 0, 63, 0
3, 172800, Note_on_c, 0, 61, 88
3, 172800, Note_on_c, 0, 65, 88
3, 172800, Note_on_c, 0, 70, 88
3, 172823, Note_on_c, 0, 70, 0
3, 172823, Note_on_c, 0, 65, 0
3, 172823, Note_on_c, 0, 61, 0
3, 173040, Note_on_c, 0, 70, 114
3, 173520, Note_on_c, 0, 70, 0
3, 173520, Note_on_c, 0, 69, 88
3, 173640, Note_on_c, 0, 69, 0
3, 173640, Note_on_c, 0, 70, 88
3, 173760, Note_on_c, 0, 70, 0
3, 173760, Control_c, 0, 64, 127
3, 173760, Note_on_c, 0, 72, 114
3, 173880, Note_on_c, 0, 72, 0
3, 173880, Note_on_c, 0, 70, 88
3, 174000, Note_on_c, 0, 70, 0
3, 174000, Note_on_c, 0, 69, 88
3, 174120, Note_on_c, 0, 69, 0
3, 174120, Control_c, 0, 64, 0
3, 174120, Note_on_c, 0, 70, 88
3, 174240, Note_on_c, 0, 70, 0
3, 174240, Control_c, 0, 64, 127
3, 174240, Note_on_c, 0, 72, 127
3, 174360, Note_on_c, 0, 72, 0
3, 174360, Note_on_c, 0, 70, 101
3, 174480, Note_on_c, 0, 70, 0
3, 174480, Note_on_c, 0, 69, 101
3, 174600, Note_on_c, 0, 69, 0
3, 174600, Control_c, 0, 64, 0
3, 174600, Note_on_c, 0, 70, 101
3, 174720, Note_on_c, 0, 70, 0
3, 174720, Note_on_c, 0, 67, 88
3, 174720, Note_on_c, 0, 70, 88
3, 174720, Note_on_c, 0, 75, 88
3, 175440, Note_on_c, 0, 75, 0
3, 175440, Note_on_c, 0, 70, 0
3, 175440, Note_on_c, 0, 67, 0
3, 175440, Note_on_c, 0, 67, 88
3, 175440, Note_on_c, 0, 70, 88
3, 175680, Note_on_c, 0, 70, 0
3, 175680, Note_on_c, 0, 67, 0
3, 175680, Note_on_c, 0, 68, 88
3, 175680, Note_on_c, 0, 75, 88
3, 176160, Note_on_c, 0, 75, 0
3, 176160, Note_on_c, 0, 68, 0
3, 176160, Note_on_c, 0, 70, 88
3, 176160, Note_on_c, 0, 73, 88
3, 176640, Note_on_c, 0, 73, 0
3, 176640, Note_on_c, 0, 70, 0
3, 176640, Note_on_c, 0, 68, 88
3, 176640, Note_on_c, 0, 72, 88
3, 176663, Note_on_c, 0, 72, 0
3, 176663, Note_on_c, 0, 68, 0
3, 176880, Note_on_c, 0, 72, 114
3, 177360, Note_on_c, 0, 72, 0
3, 177360, Control_c, 0, 64, 127
3, 177360, Note_on_c, 0, 71, 88
3, 177480, Note_on_c, 0, 71, 0
3, 177480, Note_on_c, 0, 72, 88
3, 177600, Note_on_c, 0, 72, 0
3, 177600, Note_on_c, 0, 73, 114
3, 177720, Note_on_c, 0, 73, 0
3, 177720, Note_on_c, 0, 72, 88
3, 177840, Note_on_c, 0, 72, 0
3, 177840, Note_on_c, 0, 71, 88
3, 177960, Note_on_c, 0, 71, 0
3, 177960, Control_c, 0, 64, 0
3, 177960, Note_on_c, 0, 72, 88
3, 178080, Note_on_c, 0, 72, 0
3, 178080, Control_c, 0, 64, 127
3, 178080, Note_on_c, 0, 73, 127
3, 178200, Note_on_c, 0, 73, 0
3, 178200, Note_on_c, 0, 72, 101
3, 178320, Note_on_c, 0, 72, 0
3, 178320, Note_on_c, 0, 71, 101
3, 178440, Note_on_c, 0, 71, 0
3, 178440, Control_c, 0, 64, 0
3, 178440, Note_on_c, 0, 72, 101
3, 178560, Note_on_c, 0, 72, 0
3, 178560, Note_on_c, 0, 65, 88
3, 178560, Note_on_c, 0, 70, 88
3, 178560, Note_on_c, 0, 73, 88
3, 179280, Note_on_c, 0, 73, 0
3, 179280, Note_on_c, 0, 70, 0
3, 179280, Note_on_c, 0, 65, 0
3, 179280, Note_on_c, 0, 61, 88
3, 179280, Note_on_c, 0, 65, 88
3, 179280, Note_on_c, 0, 70, 88
3, 179520, Note_on_c, 0, 70, 0
3, 179520, Note_on_c, 0, 65, 0
3, 179520, Note_on_c, 0, 61, 0
3, 179520, Note_on_c, 0, 60, 88
3, 179520, Note_on_c, 0, 65, 88
3, 179520, Note_on_c, 0, 68, 88
3, 180000, Note_on_c, 0, 68, 0
3, 180000, Note_on_c, 0, 65, 0
3, 180000, Note_on_c, 0, 60, 0
3, 180000, Note_on_c, 0, 60, 88
3, 180000, Note_on_c, 0, 64, 88
3, 180000, Note_on_c, 0, 67, 88
3, 180000, Note_on_c, 0, 70, 88
3, 180480, Note_on_c, 0, 70, 0
3, 180480, Note_on_c, 0, 60, 0
3, 180480, Note_on_c, 0, 64, 0
3, 180480, Note_on_c, 0, 67, 0
3, 180480, Note_on_c, 0, 60, 88
3, 180480, Note_on_c, 0, 65, 88
3, 180503, Note_on_c, 0, 65, 0
3, 180503, Note_on_c, 0, 60, 0
3, 180720, Note_on_c, 0, 65, 114
3, 181200, Note_on_c, 0, 65, 0
3, 181200, Control_c, 0, 64, 127
3, 181200, Note_on_c, 0, 64, 88
3, 181320, Note_on_c, 0, 64, 0
3, 181320, Note_on_c, 0, 65, 88
3, 181440, Note_on_c, 0, 65, 0
3, 181440, Note_on_c, 0, 67, 114
3, 181560, Note_on_c, 0, 67, 0
3, 181560, Note_on_c, 0, 65, 88
3, 181680, Note_on_c, 0, 65, 0
3, 181680, Note_on_c, 0, 64, 88
3, 181800, Note_on_c, 0, 64, 0
3, 181800, Control_c, 0, 64, 0
3, 181800, Note_on_c, 0, 65, 88
3, 181920, Note_on_c, 0, 65, 0
3, 181920, Control_c, 0, 64, 127
3, 181920, Note_on_c, 0, 67, 127
3, 182040, Note_on_c, 0, 67, 0
3, 182040, Note_on_c, 0, 65, 101
3, 182160, Note_on_c, 0, 65, 0
3, 182160, Note_on_c, 0, 64, 101
3, 182280, Note_on_c, 0, 64, 0
3, 182280, Control_c, 0, 64, 0
3, 182280, Note_on_c, 0, 65, 101
3, 182400, Note_on_c, 0, 65, 0
3, 182400, Note_on_c, 0, 63, 88
3, 182400, Note_on_c, 0, 67, 88
3, 182400, Note_on_c, 0, 70, 88
3, 183120, Note_on_c, 0, 70, 0
3, 183120, Note_on_c, 0, 67, 0
3, 183120, Note_on_c, 0, 63, 0
3, 183120, Note_on_c, 0, 63, 88
3, 183120, Note_on_c, 0, 67, 88
3, 183120, Note_on_c, 0, 70, 88
3, 183360, Note_on_c, 0, 70, 0
3, 183360, Note_on_c, 0, 67, 0
3, 183360, Note_on_c, 0, 63, 0
3, 183360, Note_on_c, 0, 65, 88
3, 183360, Note_on_c, 0, 68, 88
3, 183360, Note_on_c, 0, 70, 88
3, 183840, Note_on_c, 0, 70, 0
3, 183840, Note_on_c, 0, 68, 0
3, 183840, Note_on_c, 0, 65, 0
3, 183840, Note_on_c, 0, 67, 88
3, 183840, Note_on_c, 0, 70, 88
3, 184320, Note_on_c, 0, 70, 0
3, 184320, Note_on_c, 0, 67, 0
3, 184320, Note_on_c, 0, 68, 88
3, 184320, Note_on_c, 0, 72, 88
3, 184343, Note_on_c, 0, 72, 0
3, 184343, Note_on_c, 0, 68, 0
3, 184560, Note_on_c, 0, 68, 114
3, 185040, Note_on_c, 0, 68, 0
3, 185040, Control_c, 0, 64, 127
3, 185040, Note_on_c, 0, 67, 88
3, 185160, Note_on_c, 0, 67, 0
3, 185160, Note_on_c, 0, 68, 88
3, 185280, Note_on_c, 0, 68, 0
3, 185280, Note_on_c, 0, 70, 114
3, 185400, Note_on_c, 0, 70, 0
3, 185400, Note_on_c, 0, 68, 88
3, 185520, Note_on_c, 0, 68, 0
3, 185520, Note_on_c, 0, 67, 88
3, 185640, Note_on_c, 0, 67, 0
3, 185640, Control_c, 0, 64, 0
3, 185640, Note_on_c, 0, 68, 88
3, 185760, Note_on_c, 0, 68, 0
3, 185760, Control_c, 0, 64, 127
3, 185760, Note_on_c, 0, 70, 127
3, 185880, Note_on_c, 0, 70, 0
3, 185880, Note_on_c, 0, 68, 101
3, 186000, Note_on_c, 0, 68, 0
3, 186000, Note_on_c, 0, 67, 101
3, 186120, Note_on_c, 0, 67, 0
3, 186120, Control_c, 0, 64, 0
3, 186120, Note_on_c, 0, 68, 101
3, 186240, Note_on_c, 0, 68, 0
3, 186240, Note_on_c, 0, 65, 88
3, 186240, Note_on_c, 0, 69, 88
3, 186240, Note_on_c, 0, 72, 88
3, 186240, Note_on_c, 0, 77, 88
3, 186960, Note_on_c, 0, 77, 0
3, 186960, Note_on_c, 0, 65, 0
3, 186960, Note_on_c, 0, 69, 0
3, 186960, Note_on_c, 0, 72, 0
3, 186960, Note_on_c, 0, 65, 88
3, 186960, Note_on_c, 0, 69, 88
3, 186960, Note_on_c, 0, 72, 88
3, 186960, Note_on_c, 0, 75, 88
3, 187200, Note_on_c, 0, 75, 0
3, 187200, Note_on_c, 0, 65, 0
3, 187200, Note_on_c, 0, 69, 0
3, 187200, Note_on_c, 0, 72, 0
3, 187200, Note_on_c, 0, 65, 88
3, 187200, Note_on_c, 0, 70, 88
3, 187200, Note_on_c, 0, 73, 88
3, 187680, Note_on_c, 0, 73, 0
3, 187680, Note_on_c, 0, 70, 0
3, 187680, Note_on_c, 0, 65, 0
3, 187680, Note_on_c, 0, 63, 88
3, 187680, Note_on_c, 0, 65, 88
3, 187680, Note_on_c, 0, 72, 88
3, 188160, Note_on_c, 0, 72, 0
3, 188160, Note_on_c, 0, 65, 0
3, 188160, Note_on_c, 0, 63, 0
3, 188160, Note_on_c, 0, 61, 88
3, 188160, Note_on_c, 0, 65, 88
3, 188160, Note_on_c, 0, 70, 88
3, 188183, Note_on_c, 0, 70, 0
3, 188183, Note_on_c, 0, 65, 0
3, 188183, Note_on_c, 0, 61, 0
3, 188400, Note_on_c, 0, 70, 114
3, 188880, Note_on_c, 0, 70, 0
3, 188880, Note_on_c, 0, 69, 88
3, 189000, Note_on_c, 0, 69, 0
3, 189000, Note_on_c, 0, 70, 88
3, 189120, Note_on_c, 0, 70, 0
3, 189120, Control_c, 0, 64, 127
3, 189120, Note_on_c, 0, 72, 114
3, 189240, Note_on_c, 0, 72, 0
3, 189240, Note_on_c, 0, 70, 88
3, 189360, Note_on_c, 0, 70, 0
3, 189360, Note_on_c, 0, 69, 88
3, 189480, Note_on_c, 0, 69, 0
3, 189480, Control_c, 0, 64, 0
3, 189480, Note_on_c, 0, 70, 88
3, 189600, Note_on_c, 0, 70, 0
3, 189600, Control_c, 0, 64, 127
3, 189600, Note_on_c, 0, 72, 127
3, 189720, Note_on_c, 0, 72, 0
3, 189720, Note_on_c, 0, 70, 101
3, 189840, Note_on_c, 0, 70, 0
3, 189840, Note_on_c, 0, 69, 101
3, 189960, Note_on_c, 0, 69, 0
3, 189960, Control_c, 0, 64, 0
3, 189960, Note_on_c, 0, 70, 101
3, 190080, Note_on_c, 0, 70, 0
3, 190080, Note_on_c, 0, 67, 88
3, 190080, Note_on_c, 0, 70, 88
3, 190080, Note_on_c, 0, 75, 88
3, 190800, Note_on_c, 0, 75, 0
3, 190800, Note_on_c, 0, 70, 0
3, 190800, Note_on_c, 0, 67, 0
3, 190800, Note_on_c, 0, 67, 88
3, 190800, Note_on_c, 0, 70, 88
3, 191040, Note_on_c, 0, 70, 0
3, 191040, Note_on_c, 0, 67, 0
3, 191040, Note_on_c, 0, 68, 88
3, 191040, Note_on_c, 0, 75, 88
3, 191520, Note_on_c, 0, 75, 0
3, 191520, Note_on_c, 0, 68, 0
3, 191520, Note_on_c, 0, 70, 88
3, 191520, Note_on_c, 0, 73, 88
3, 192000, Note_on_c, 0, 73, 0
3, 192000, Note_on_c, 0, 70, 0
3, 192000, Note_on_c, 0, 68, 88
3, 192000, Note_on_c, 0, 72, 88
3, 192023, Note_on_c, 0, 72, 0
3, 192023, Note_on_c, 0, 68, 0
3, 192240, Note_on_c, 0, 72, 114
3, 192720, Note_on_c, 0, 72, 0
3, 192720, Control_c, 0, 64, 127
3, 192720, Note_on_c, 0, 71, 88
3, 192840, Note_on_c, 0, 71, 0
3, 192840, Note_on_c, 0, 72, 88
3, 192960, Note_on_c, 0, 72, 0
3, 192960, Note_on_c, 0, 73, 114
3, 193080, Note_on_c, 0, 73, 0
3, 193080, Note_on_c, 0, 72, 88
3, 193200, Note_on_c, 0, 72, 0
3, 193200, Note_on_c, 0, 71, 88
3, 193320, Note_on_c, 0, 71, 0
3, 193320, Control_c, 0, 64, 0
3, 193320, Note_on_c, 0, 72, 88
3, 193440, Note_on_c, 0, 72, 0
3, 193440, Control_c, 0, 64, 127
3, 193440, Note_on_c, 0, 73, 127
3, 193560, Note_on_c, 0, 73, 0
3, 193560, Note_on_c, 0, 72, 101
3, 193680, Note_on_c, 0, 72, 0
3, 193680, Note_on_c, 0, 71, 101
3, 193800, Note_on_c, 0, 71, 0
3, 193800, Control_c, 0, 64, 0
3, 193800, Note_on_c, 0, 72, 101
3, 193920, Note_on_c, 0, 72, 0
3, 193920, Note_on_c, 0, 65, 88
3, 193920, Note_on_c, 0, 70, 88
3, 193920, Note_on_c, 0, 73, 88
3, 194640, Note_on_c, 0, 73, 0
3, 194640, Note_on_c, 0, 70, 0
3, 194640, Note_on_c, 0, 65, 0
3, 194640, Note_on_c, 0, 61, 88
3, 194640, Note_on_c, 0, 65, 88
3, 194640, Note_on_c, 0, 70, 88
3, 194880, Note_on_c, 0, 70, 0
3, 194880, Note_on_c, 0, 65, 0
3, 194880, Note_on_c, 0, 61, 0
3, 194880, Note_on_c, 0, 60, 88
3, 194880, Note_on_c, 0, 65, 88
3, 194880, Note_on_c, 0, 68, 88
3, 195360, Note_on_c, 0, 68, 0
3, 195360, Note_on_c, 0, 65, 0
3, 195360, Note_on_c, 0, 60, 0
3, 195360, Note_on_c, 0, 60, 88
3, 195360, Note_on_c, 0, 64, 88
3, 195360, Note_on_c, 0, 67, 88
3, 195360, Note_on_c, 0, 70, 88
3, 195840, Note_on_c, 0, 70, 0
3, 195840, Note_on_c, 0, 60, 0
3, 195840, Note_on_c, 0, 64, 0
3, 195840, Note_on_c, 0, 67, 0
3, 195840, Note_on_c, 0, 60, 88
3, 195840, Note_on_c, 0, 65, 88
3, 195863, Note_on_c, 0, 65, 0
3, 195863, Note_on_c, 0, 60, 0
3, 196080, Note_on_c, 0, 65, 114
3, 196560, Note_on_c, 0, 65, 0
3, 196560, Control_c, 0, 64, 127
3, 196560, Note_on_c, 0, 64, 88
3, 196680, Note_on_c, 0, 64, 0
3, 196680, Note_on_c, 0, 65, 88
3, 196800, Note_on_c, 0, 65, 0
3, 196800, Note_on_c, 0, 67, 114
3, 196920, Note_on_c, 0, 67, 0
3, 196920, Note_on_c, 0, 65, 88
3, 197040, Note_on_c, 0, 65, 0
3, 197040, Note_on_c, 0, 64, 88
3, 197160, Note_on_c, 0, 64, 0
3, 197160, Control_c, 0, 64, 0
3, 197160, Note_on_c, 0, 67, 88
3, 197280, Note_on_c, 0, 67, 0
3, 197280, Note_on_c, 0, 65, 88
3, 197520, Note_on_c, 0, 65, 0
3, 198480, Control_c, 0, 64, 127
3, 198480, Note_on_c, 0, 68, 75
3, 198720, Note_on_c, 0, 68, 0
3, 198720, Note_on_c, 0, 70, 75
3, 198960, Note_on_c, 0, 70, 0
3, 198960, Control_c, 0, 64, 0
3, 198960, Note_on_c, 0, 68, 75
3, 199200, Note_on_c, 0, 68, 0
3, 199200, Control_c, 0, 64, 127
3, 199200, Note_on_c, 0, 72, 75
3, 199260, Note_on_c, 0, 72, 0
3, 199260, Note_on_c, 0, 77, 75
3, 199320, Note_on_c, 0, 77, 0
3, 199320, Note_on_c, 0, 72, 75
3, 199380, Note_on_c, 0, 72, 0
3, 199380, Note_on_c, 0, 77, 75
3, 199440, Note_on_c, 0, 77, 0
3, 199440, Note_on_c, 0, 72, 75
3, 199500, Note_on_c, 0, 72, 0
3, 199500, Note_on_c, 0, 77, 75
3, 199560, Note_on_c, 0, 77, 0
3, 199560, Note_on_c, 0, 72, 75
3, 199620, Note_on_c, 0, 72, 0
3, 199620, Note_on_c, 0, 77, 75
3, 199680, Note_on_c, 0, 77, 0
3, 199680, Note_on_c, 0, 72, 75
3, 199740, Note_on_c, 0, 72, 0
3, 199740, Note_on_c, 0, 77, 75
3, 199800, Note_on_c, 0, 77, 0
3, 199800, Note_on_c, 0, 72, 75
3, 199860, Note_on_c, 0, 72, 0
3, 199860, Note_on_c, 0, 77, 75
3, 199920, Note_on_c, 0, 77, 0
3, 199920, Note_on_c, 0, 72, 75
3, 199980, Note_on_c, 0, 72, 0
3, 199980, Note_on_c, 0, 77, 75
3, 200040, Note_on_c, 0, 77, 0
3, 200040, Note_on_c, 0, 72, 75
3, 200100, Note_on_c, 0, 72, 0
3, 200100, Control_c, 0, 64, 0
3, 200100, Note_on_c, 0, 77, 75
3, 200160, Note_on_c, 0, 77, 0
3, 200160, Note_on_c, 0, 72, 75
3, 200400, Note_on_c, 0, 72, 0
3, 200400, Control_c, 0, 64, 127
3, 200400, Note_on_c, 0, 68, 75
3, 200640, Note_on_c, 0, 68, 0
3, 200640, Note_on_c, 0, 70, 75
3, 200880, Note_on_c, 0, 70, 0
3, 200880, Control_c, 0, 64, 0
3, 200880, Note_on_c, 0, 68, 75
3, 201120, Note_on_c, 0, 68, 0
3, 201120, Note_on_c, 0, 68, 75
3, 202080, Note_on_c, 0, 68, 0
3, 202080, Note_on_c, 0, 67, 75
3, 202320, Note_on_c, 0, 67, 0
3, 202320, Control_c, 0, 64, 127
3, 202320, Note_on_c, 0, 67, 75
3, 202320, Note_on_c, 0, 70, 75
3, 202500, Note_on_c, 0, 73, 75
3, 202560, Note_on_c, 0, 73, 0
3, 202560, Note_on_c, 0, 70, 0
3, 202560, Note_on_c, 0, 67, 0
3, 202560, Note_on_c, 0, 68, 101
3, 202560, Note_on_c, 0, 72, 101
3, 202800, Note_on_c, 0, 72, 0
3, 202800, Note_on_c, 0, 68, 0
3, 202800, Control_c, 0, 64, 0
3, 202800, Note_on_c, 0, 67, 101
3, 202800, Note_on_c, 0, 70, 101
3, 203040, Note_on_c, 0, 70, 0
3, 203040, Note_on_c, 0, 67, 0
3, 203040, Note_on_c, 0, 70, 101
3, 203040, Note_on_c, 0, 79, 101
3, 203760, Note_on_c, 0, 79, 0
3, 203760, Note_on_c, 0, 70, 0
3, 203760, Control_c, 0, 64, 127
3, 203760, Note_on_c, 0, 77, 88
3, 203840, Note_on_c, 0, 77, 0
3, 203840, Note_on_c, 0, 79, 88
3, 203919, Note_on_c, 0, 79, 0
3, 203919, Note_on_c, 0, 77, 88
3, 204000, Note_on_c, 0, 77, 0
3, 204000, Control_c, 0, 64, 0
3, 204000, Note_on_c, 0, 76, 88
3, 204023, Note_on_c, 0, 76, 0
3, 204240, Note_on_c, 0, 73, 75
3, 204320, Note_on_c, 0, 73, 0
3, 204320, Note_on_c, 0, 75, 75
3, 204399, Note_on_c, 0, 75, 0
3, 204399, Note_on_c, 0, 73, 75
3, 204480, Note_on_c, 0, 73, 0
3, 204480, Control_c, 0, 64, 0
3, 204480, Note_on_c, 0, 72, 75
3, 204503, Note_on_c, 0, 72, 0
3, 204720, Control_c, 0, 64, 127
3, 204720, Note_on_c, 0, 70, 75
3, 204800, Note_on_c, 0, 70, 0
3, 204800, Note_on_c, 0, 72, 75
3, 204879, Note_on_c, 0, 72, 0
3, 204879, Note_on_c, 0, 70, 75
3, 204960, Note_on_c, 0, 70, 0
3, 204960, Note_on_c, 0, 68, 75
3, 205920, Control_c, 0, 64, 0
3, 206160, Note_on_c, 0, 68, 0
3, 206160, Control_c, 0, 64, 127
3, 206160, Note_on_c, 0, 68, 75
3, 206400, Note_on_c, 0, 68, 0
3, 206400, Note_on_c, 0, 67, 75
3, 206640, Note_on_c, 0, 67, 0
3, 206640, Control_c, 0, 64, 0
3, 206640, Note_on_c, 0, 65, 75
3, 206880, Note_on_c, 0, 65, 0
3, 206880, Note_on_c, 0, 68, 75
3, 206880, Note_on_c, 0, 72, 75
3, 207840, Note_on_c, 0, 68, 0
3, 208080, Note_on_c, 0, 72, 0
3, 208080, Control_c, 0, 64, 127
3, 208080, Note_on_c, 0, 68, 75
3, 208320, Note_on_c, 0, 68, 0
3, 208320, Note_on_c, 0, 67, 75
3, 208560, Note_on_c, 0, 67, 0
3, 208560, Control_c, 0, 64, 0
3, 208560, Note_on_c, 0, 65, 75
3, 208800, Note_on_c, 0, 65, 0
3, 208800, Note_on_c, 0, 70, 75
3, 208800, Note_on_c, 0, 73, 75
3, 210000, Note_on_c, 0, 73, 0
3, 210000, Note_on_c, 0, 70, 0
3, 210000, Control_c, 0, 64, 127
3, 210000, Note_on_c, 0, 70, 75
3, 210000, Note_on_c, 0, 73, 75
3, 210240, Note_on_c, 0, 73, 0
3, 210240, Note_on_c, 0, 70, 0
3, 210240, Note_on_c, 0, 68, 75
3, 210240, Note_on_c, 0, 72, 75
3, 210480, Note_on_c, 0, 72, 0
3, 210480, Note_on_c, 0, 68, 0
3, 210480, Control_c, 0, 64, 0
3, 210480, Note_on_c, 0, 67, 75
3, 210480, Note_on_c, 0, 70, 75
3, 210720, Note_on_c, 0, 70, 0
3, 210720, Note_on_c, 0, 67, 0
3, 210720, Note_on_c, 0, 65, 88
3, 210720, Note_on_c, 0, 68, 88
3, 211140, Note_on_c, 0, 71, 88
3, 211200, Note_on_c, 0, 71, 0
3, 211200, Note_on_c, 0, 68, 0
3, 211200, Note_on_c, 0, 65, 0
3, 211200, Note_on_c, 0, 65, 88
3, 211200, Note_on_c, 0, 68, 88
3, 211200, Note_on_c, 0, 72, 88
3, 211680, Note_on_c, 0, 72, 0
3, 211680, Note_on_c, 0, 68, 0
3, 211680, Note_on_c, 0, 65, 0
3, 211680, Note_on_c, 0, 64, 88
3, 211680, Note_on_c, 0, 67, 88
3, 212100, Note_on_c, 0, 71, 88
3, 212160, Note_on_c, 0, 71, 0
3, 212160, Note_on_c, 0, 67, 0
3, 212160, Note_on_c, 0, 64, 0
3, 212160, Note_on_c, 0, 64, 88
3, 212160, Note_on_c, 0, 67, 88
3, 212160, Note_on_c, 0, 72, 88
3, 212640, Note_on_c, 0, 72, 0
3, 212640, Note_on_c, 0, 67, 0
3, 212640, Note_on_c, 0, 64, 0
3, 212640, Control_c, 0, 64, 127
3, 212640, Control_c, 0, 64, 127
3, 212640, Note_on_c, 0, 65, 75
3, 212700, Note_on_c, 0, 65, 0
3, 212700, Note_on_c, 0, 68, 75
3, 212760, Note_on_c, 0, 68, 0
3, 212760, Note_on_c, 0, 65, 75
3, 212820, Note_on_c, 0, 65, 0
3, 212820, Note_on_c, 0, 68, 75
3, 212880, Note_on_c, 0, 68, 0
3, 212880, Note_on_c, 0, 65, 88
3, 212940, Note_on_c, 0, 65, 0
3, 212940, Note_on_c, 0, 68, 88
3, 213000, Note_on_c, 0, 68, 0
3, 213000, Note_on_c, 0, 65, 88
3, 213060, Note_on_c, 0, 65, 0
3, 213060, Note_on_c, 0, 68, 88
3, 213120, Note_on_c, 0, 68, 0
3, 213120, Note_on_c, 0, 65, 101
3, 213180, Note_on_c, 0, 65, 0
3, 213180, Note_on_c, 0, 68, 101
3, 213240, Note_on_c, 0, 68, 0
3, 213240, Note_on_c, 0, 65, 101
3, 213300, Note_on_c, 0, 65, 0
3, 213300, Note_on_c, 0, 68, 101
3, 213360, Note_on_c, 0, 68, 0
3, 213360, Note_on_c, 0, 65, 114
3, 213420, Note_on_c, 0, 65, 0
3, 213420, Note_on_c, 0, 68, 114
3, 213480, Note_on_c, 0, 68, 0
3, 213480, Note_on_c, 0, 65, 114
3, 213520, Note_on_c, 0, 65, 127
3, 213540, Note_on_c, 0, 65, 0
3, 213540, Control_c, 0, 64, 0
3, 213540, Note_on_c, 0, 68, 114
3, 213560, Note_on_c, 0, 68, 127
3, 213600, Note_on_c, 0, 68, 0
3, 213600, Note_on_c, 0, 72, 127
3, 213623, Note_on_c, 0, 72, 0
3, 213623, Note_on_c, 0, 68, 0
3, 213623, Note_on_c, 0, 65, 0
3, 213623, End_track
4, 0, Start_track
4, 0, Title_t, "Instrument18"
4, 0, Program_c, 0, 0
4, 0, Control_c, 0, 7, 110
4, 0, Control_c, 0, 10, 30
4, 240, Control_c, 0, 64, 127
4, 240, Note_on_c, 0, 60, 88
4, 420, Note_on_c, 0, 63, 88
4, 480, Note_on_c, 0, 63, 0
4, 480, Note_on_c, 0, 60, 0
4, 480, Note_on_c, 0, 61, 88
4, 720, Note_on_c, 0, 61, 0
4, 720, Control_c, 0, 64, 0
4, 720, Note_on_c, 0, 60, 88
4, 960, Note_on_c, 0, 60, 0
4, 960, Note_on_c, 0, 65, 114
4, 960, Note_on_c, 0, 68, 114
4, 2160, Note_on_c, 0, 68, 0
4, 2160, Note_on_c, 0, 65, 0
4, 2160, Control_c, 0, 64, 127
4, 2160, Note_on_c, 0, 56, 88
4, 2160, Note_on_c, 0, 60, 88
4, 2340, Note_on_c, 0, 63, 88
4, 2400, Note_on_c, 0, 63, 0
4, 2400, Note_on_c, 0, 60, 0
4, 2400, Note_on_c, 0, 56, 0
4, 2400, Note_on_c, 0, 58, 88
4, 2400, Note_on_c, 0, 61, 88
4, 2640, Note_on_c, 0, 61, 0
4, 2640, Note_on_c, 0, 58, 0
4, 2640, Control_c, 0, 64, 0
4, 2640, Note_on_c, 0, 56, 88
4, 2640, Note_on_c, 0, 60, 88
4, 2880, Note_on_c, 0, 60, 0
4, 2880, Note_on_c, 0, 56, 0
4, 2880, Note_on_c, 0, 55, 88
4, 2880, Note_on_c, 0, 58, 88
4, 4080, Note_on_c, 0, 58, 0
4, 4080, Note_on_c, 0, 55, 0
4, 4080, Control_c, 0, 64, 127
4, 4080, Note_on_c, 0, 55, 88
4, 4080, Note_on_c, 0, 58, 88
4, 4260, Note_on_c, 0, 61, 88
4, 4320, Note_on_c, 0, 61, 0
4, 4320, Note_on_c, 0, 58, 0
4, 4320, Note_on_c, 0, 55, 0
4, 4320, Note_on_c, 0, 56, 88
4, 4320, Note_on_c, 0, 60, 88
4, 4560, Note_on_c, 0, 60, 0
4, 4560, Note_on_c, 0, 56, 0
4, 4560, Control_c, 0, 64, 0
4, 4560, Note_on_c, 0, 55, 88
4, 4560, Note_on_c, 0, 58, 88
4, 4800, Note_on_c, 0, 58, 0
4, 4800, Note_on_c, 0, 55, 0
4, 4800, Note_on_c, 0, 64, 114
4, 4800, Note_on_c, 0, 67, 114
4, 6000, Note_on_c, 0, 67, 0
4, 6000, Note_on_c, 0, 64, 0
4, 6000, Control_c, 0, 64, 127
4, 6000, Note_on_c, 0, 55, 88
4, 6000, Note_on_c, 0, 58, 88
4, 6240, Note_on_c, 0, 58, 0
4, 6240, Note_on_c, 0, 55, 0
4, 6240, Note_on_c, 0, 56, 88
4, 6240, Note_on_c, 0, 60, 88
4, 6480, Note_on_c, 0, 60, 0
4, 6480, Note_on_c, 0, 56, 0
4, 6480, Control_c, 0, 64, 0
4, 6480, Note_on_c, 0, 55, 88
4, 6480, Note_on_c, 0, 58, 88
4, 6720, Note_on_c, 0, 58, 0
4, 6720, Note_on_c, 0, 55, 0
4, 6720, Note_on_c, 0, 56, 88
4, 7920, Note_on_c, 0, 56, 0
4, 7920, Control_c, 0, 64, 127
4, 7920, Note_on_c, 0, 56, 88
4, 8160, Note_on_c, 0, 56, 0
4, 8160, Note_on_c, 0, 55, 101
4, 8400, Note_on_c, 0, 55, 0
4, 8400, Control_c, 0, 64, 0
4, 8400, Note_on_c, 0, 53, 114
4, 8640, Note_on_c, 0, 53, 0
4, 8640, Note_on_c, 0, 56, 101
4, 8640, Note_on_c, 0, 60, 101
4, 9840, Note_on_c, 0, 60, 0
4, 9840, Note_on_c, 0, 56, 0
4, 9840, Control_c, 0, 64, 127
4, 9840, Note_on_c, 0, 56, 88
4, 10080, Note_on_c, 0, 56, 0
4, 10080, Note_on_c, 0, 55, 101
4, 10320, Note_on_c, 0, 55, 0
4, 10320, Control_c, 0, 64, 0
4, 10320, Note_on_c, 0, 53, 114
4, 10560, Note_on_c, 0, 53, 0
4, 10560, Note_on_c, 0, 58, 101
4, 10560, Note_on_c, 0, 61, 101
4, 11760, Note_on_c, 0, 61, 0
4, 11760, Note_on_c, 0, 58, 0
4, 11760, Control_c, 0, 64, 127
4, 11760, Note_on_c, 0, 58, 75
4, 11760, Note_on_c, 0, 61, 75
4, 12000, Note_on_c, 0, 61, 0
4, 12000, Note_on_c, 0, 58, 0
4, 12000, Note_on_c, 0, 56, 75
4, 12000, Note_on_c, 0, 60, 75
4, 12240, Note_on_c, 0, 60, 0
4, 12240, Note_on_c, 0, 56, 0
4, 12240, Control_c, 0, 64, 0
4, 12240, Note_on_c, 0, 55, 75
4, 12240, Note_on_c, 0, 58, 75
4, 12480, Note_on_c, 0, 58, 0
4, 12480, Note_on_c, 0, 55, 0
4, 12480, Note_on_c, 0, 53, 75
4, 12480, Note_on_c, 0, 56, 75
4, 12900, Note_on_c, 0, 59, 75
4, 12960, Note_on_c, 0, 59, 0
4, 12960, Note_on_c, 0, 56, 0
4, 12960, Note_on_c, 0, 53, 0
4, 12960, Note_on_c, 0, 53, 75
4, 12960, Note_on_c, 0, 56, 75
4, 12960, Note_on_c, 0, 60, 75
4, 13440, Note_on_c, 0, 60, 0
4, 13440, Note_on_c, 0, 56, 0
4, 13440, Note_on_c, 0, 53, 0
4, 13440, Note_on_c, 0, 52, 75
4, 13440, Note_on_c, 0, 55, 75
4, 13860, Note_on_c, 0, 59, 75
4, 13920, Note_on_c, 0, 59, 0
4, 13920, Note_on_c, 0, 55, 0
4, 13920, Note_on_c, 0, 52, 0
4, 13920, Note_on_c, 0, 52, 75
4, 13920, Note_on_c, 0, 55, 75
4, 13920, Note_on_c, 0, 60, 75
4, 14400, Note_on_c, 0, 60, 0
4, 14400, Note_on_c, 0, 55, 0
4, 14400, Note_on_c, 0, 52, 0
4, 14400, Note_on_c, 0, 48, 75
4, 14460, Note_on_c, 0, 48, 0
4, 14460, Note_on_c, 0, 44, 75
4, 14520, Note_on_c, 0, 44, 0
4, 14520, Note_on_c, 0, 48, 75
4, 14580, Note_on_c, 0, 48, 0
4, 14580, Note_on_c, 0, 44, 75
4, 14640, Note_on_c, 0, 44, 0
4, 14640, Note_on_c, 0, 48, 75
4, 14700, Note_on_c, 0, 48, 0
4, 14700, Note_on_c, 0, 44, 75
4, 14760, Note_on_c, 0, 44, 0
4, 14760, Note_on_c, 0, 48, 75
4, 14820, Note_on_c, 0, 48, 0
4, 14820, Note_on_c, 0, 44, 75
4, 14880, Note_on_c, 0, 44, 0
4, 14880, Note_on_c, 0, 48, 75
4, 14940, Note_on_c, 0, 48, 0
4, 14940, Note_on_c, 0, 44, 75
4, 15000, Note_on_c, 0, 44, 0
4, 15000, Note_on_c, 0, 48, 75
4, 15060, Note_on_c, 0, 48, 0
4, 15060, Note_on_c, 0, 44, 75
4, 15120, Note_on_c, 0, 44, 0
4, 15120, Note_on_c, 0, 48, 75
4, 15180, Note_on_c, 0, 48, 0
4, 15180, Note_on_c, 0, 44, 75
4, 15240, Note_on_c, 0, 44, 0
4, 15240, Note_on_c, 0, 48, 75
4, 15300, Note_on_c, 0, 48, 0
4, 15300, Note_on_c, 0, 44, 75
4, 15360, Note_on_c, 0, 44, 0
4, 15360, Note_on_c, 0, 48, 75
4, 15600, Note_on_c, 0, 48, 0
4, 15600, Control_c, 0, 64, 127
4, 15600, Note_on_c, 0, 68, 101
4, 15600, Note_on_c, 0, 72, 101
4, 15780, Note_on_c, 0, 75, 75
4, 15840, Note_on_c, 0, 75, 0
4, 15840, Note_on_c, 0, 72, 0
4, 15840, Note_on_c, 0, 68, 0
4, 15840, Note_on_c, 0, 70, 101
4, 15840, Note_on_c, 0, 73, 101
4, 16080, Note_on_c, 0, 73, 0
4, 16080, Note_on_c, 0, 70, 0
4, 16080, Control_c, 0, 64, 0
4, 16080, Note_on_c, 0, 68, 101
4, 16080, Note_on_c, 0, 72, 101
4, 16320, Note_on_c, 0, 72, 0
4, 16320, Note_on_c, 0, 68, 0
4, 16320, Note_on_c, 0, 68, 101
4, 16320, Note_on_c, 0, 72, 101
4, 16320, Note_on_c, 0, 77, 101
4, 16320, Note_on_c, 0, 80, 101
4, 17520, Note_on_c, 0, 80, 0
4, 17520, Note_on_c, 0, 68, 0
4, 17520, Note_on_c, 0, 72, 0
4, 17520, Note_on_c, 0, 77, 0
4, 17520, Control_c, 0, 64, 127
4, 17520, Note_on_c, 0, 68, 75
4, 17520, Note_on_c, 0, 72, 75
4, 17700, Note_on_c, 0, 75, 75
4, 17760, Note_on_c, 0, 75, 0
4, 17760, Note_on_c, 0, 72, 0
4, 17760, Note_on_c, 0, 68, 0
4, 17760, Note_on_c, 0, 70, 75
4, 17760, Note_on_c, 0, 73, 75
4, 18000, Note_on_c, 0, 73, 0
4, 18000, Note_on_c, 0, 70, 0
4, 18000, Control_c, 0, 64, 0
4, 18000, Note_on_c, 0, 68, 75
4, 18000, Note_on_c, 0, 72, 75
4, 18150, Note_on_c, 0, 67, 101
4, 18180, Note_on_c, 0, 70, 101
4, 18210, Note_on_c, 0, 73, 101
4, 18240, Note_on_c, 0, 72, 0
4, 18240, Note_on_c, 0, 68, 0
4, 18240, Note_on_c, 0, 77, 101
4, 18263, Note_on_c, 0, 77, 0
4, 18263, Note_on_c, 0, 73, 0
4, 18263, Note_on_c, 0, 67, 0
4, 18263, Note_on_c, 0, 70, 0
4, 18480, Note_on_c, 0, 75, 88
4, 18503, Note_on_c, 0, 75, 0
4, 18720, Note_on_c, 0, 73, 88
4, 18743, Note_on_c, 0, 73, 0
4, 18960, Note_on_c, 0, 70, 88
4, 18983, Note_on_c, 0, 70, 0
4, 19200, Note_on_c, 0, 65, 88
4, 19223, Note_on_c, 0, 65, 0
4, 19440, Note_on_c, 0, 61, 88
4, 19463, Note_on_c, 0, 61, 0
4, 19680, Note_on_c, 0, 58, 88
4, 19703, Note_on_c, 0, 58, 0
4, 19920, Note_on_c, 0, 55, 88
4, 19943, Note_on_c, 0, 55, 0
4, 20160, Note_on_c, 0, 53, 88
4, 20183, Note_on_c, 0, 53, 0
4, 20400, Note_on_c, 0, 52, 88
4, 20423, Note_on_c, 0, 52, 0
4, 20640, Note_on_c, 0, 55, 88
4, 20663, Note_on_c, 0, 55, 0
4, 20880, Note_on_c, 0, 58, 88
4, 20903, Note_on_c, 0, 58, 0
4, 21120, Note_on_c, 0, 61, 88
4, 21143, Note_on_c, 0, 61, 0
4, 21360, Note_on_c, 0, 55, 88
4, 21383, Note_on_c, 0, 55, 0
4, 21600, Note_on_c, 0, 58, 88
4, 21623, Note_on_c, 0, 58, 0
4, 21840, Note_on_c, 0, 64, 88
4, 21863, Note_on_c, 0, 64, 0
4, 22000, Note_on_c, 0, 56, 88
4, 22040, Note_on_c, 0, 60, 88
4, 22080, Note_on_c, 0, 67, 88
4, 22103, Note_on_c, 0, 67, 0
4, 22103, Note_on_c, 0, 60, 0
4, 22103, Note_on_c, 0, 56, 0
4, 22320, Note_on_c, 0, 65, 88
4, 22343, Note_on_c, 0, 65, 0
4, 22560, Note_on_c, 0, 60, 88
4, 22583, Note_on_c, 0, 60, 0
4, 22800, Note_on_c, 0, 56, 88
4, 22823, Note_on_c, 0, 56, 0
4, 23040, Note_on_c, 0, 55, 88
4, 23063, Note_on_c, 0, 55, 0
4, 23280, Note_on_c, 0, 53, 88
4, 23303, Note_on_c, 0, 53, 0
4, 23520, Note_on_c, 0, 60, 88
4, 23543, Note_on_c, 0, 60, 0
4, 23760, Note_on_c, 0, 56, 88
4, 23783, Note_on_c, 0, 56, 0
4, 24000, Note_on_c, 0, 55, 88
4, 24023, Note_on_c, 0, 55, 0
4, 24240, Note_on_c, 0, 53, 88
4, 24263, Note_on_c, 0, 53, 0
4, 24480, Note_on_c, 0, 56, 88
4, 24503, Note_on_c, 0, 56, 0
4, 24720, Note_on_c, 0, 60, 88
4, 24743, Note_on_c, 0, 60, 0
4, 24960, Note_on_c, 0, 65, 88
4, 24983, Note_on_c, 0, 65, 0
4, 25200, Note_on_c, 0, 60, 88
4, 25223, Note_on_c, 0, 60, 0
4, 25440, Note_on_c, 0, 58, 88
4, 25463, Note_on_c, 0, 58, 0
4, 25680, Note_on_c, 0, 56, 88
4, 25703, Note_on_c, 0, 56, 0
4, 25920, Note_on_c, 0, 56, 88
4, 25943, Note_on_c, 0, 56, 0
4, 26160, Note_on_c, 0, 55, 88
4, 26183, Note_on_c, 0, 55, 0
4, 26400, Note_on_c, 0, 58, 88
4, 26423, Note_on_c, 0, 58, 0
4, 26640, Note_on_c, 0, 61, 88
4, 26663, Note_on_c, 0, 61, 0
4, 26880, Note_on_c, 0, 67, 88
4, 26903, Note_on_c, 0, 67, 0
4, 27120, Note_on_c, 0, 65, 88
4, 27143, Note_on_c, 0, 65, 0
4, 27360, Note_on_c, 0, 63, 88
4, 27383, Note_on_c, 0, 63, 0
4, 27600, Note_on_c, 0, 61, 88
4, 27623, Note_on_c, 0, 61, 0
4, 27840, Note_on_c, 0, 60, 88
4, 27863, Note_on_c, 0, 60, 0
4, 28080, Note_on_c, 0, 60, 88
4, 28103, Note_on_c, 0, 60, 0
4, 28320, Note_on_c, 0, 56, 88
4, 28343, Note_on_c, 0, 56, 0
4, 28560, Note_on_c, 0, 53, 88
4, 28583, Note_on_c, 0, 53, 0
4, 28800, Note_on_c, 0, 52, 88
4, 28823, Note_on_c, 0, 52, 0
4, 29040, Note_on_c, 0, 48, 88
4, 29063, Note_on_c, 0, 48, 0
4, 29280, Note_on_c, 0, 46, 88
4, 29303, Note_on_c, 0, 46, 0
4, 29520, Note_on_c, 0, 43, 88
4, 29543, Note_on_c, 0, 43, 0
4, 29760, Note_on_c, 0, 44, 88
4, 29783, Note_on_c, 0, 44, 0
4, 30000, Note_on_c, 0, 48, 88
4, 30023, Note_on_c, 0, 48, 0
4, 30240, Note_on_c, 0, 53, 88
4, 30263, Note_on_c, 0, 53, 0
4, 30480, Note_on_c, 0, 56, 88
4, 30503, Note_on_c, 0, 56, 0
4, 30720, Note_on_c, 0, 60, 88
4, 30743, Note_on_c, 0, 60, 0
4, 30960, Note_on_c, 0, 56, 88
4, 30983, Note_on_c, 0, 56, 0
4, 31200, Note_on_c, 0, 53, 88
4, 31223, Note_on_c, 0, 53, 0
4, 31440, Note_on_c, 0, 48, 88
4, 31463, Note_on_c, 0, 48, 0
4, 31920, Note_on_c, 0, 51, 88
4, 31920, Note_on_c, 0, 55, 88
4, 31920, Note_on_c, 0, 58, 88
4, 32400, Note_on_c, 0, 58, 0
4, 32400, Note_on_c, 0, 55, 0
4, 32400, Note_on_c, 0, 51, 0
4, 32400, Note_on_c, 0, 51, 88
4, 32400, Note_on_c, 0, 55, 88
4, 32400, Note_on_c, 0, 58, 88
4, 32640, Note_on_c, 0, 58, 0
4, 32640, Note_on_c, 0, 55, 0
4, 32640, Note_on_c, 0, 51, 0
4, 32880, Note_on_c, 0, 51, 88
4, 32880, Note_on_c, 0, 56, 88
4, 32880, Note_on_c, 0, 63, 88
4, 32903, Note_on_c, 0, 63, 0
4, 32903, Note_on_c, 0, 56, 0
4, 32903, Note_on_c, 0, 51, 0
4, 33360, Note_on_c, 0, 51, 88
4, 33360, Note_on_c, 0, 55, 88
4, 33360, Note_on_c, 0, 58, 88
4, 33360, Note_on_c, 0, 63, 88
4, 33383, Note_on_c, 0, 63, 0
4, 33383, Note_on_c, 0, 51, 0
4, 33383, Note_on_c, 0, 55, 0
4, 33383, Note_on_c, 0, 58, 0
4, 33840, Note_on_c, 0, 51, 88
4, 33840, Note_on_c, 0, 56, 88
4, 33840, Note_on_c, 0, 60, 88
4, 33840, Note_on_c, 0, 63, 88
4, 34320, Note_on_c, 0, 63, 0
4, 34320, Note_on_c, 0, 51, 0
4, 34320, Note_on_c, 0, 56, 0
4, 34320, Note_on_c, 0, 60, 0
4, 34320, Note_on_c, 0, 51, 88
4, 34320, Note_on_c, 0, 56, 88
4, 34320, Note_on_c, 0, 60, 88
4, 34320, Note_on_c, 0, 63, 88
4, 34560, Note_on_c, 0, 63, 0
4, 34560, Note_on_c, 0, 51, 0
4, 34560, Note_on_c, 0, 56, 0
4, 34560, Note_on_c, 0, 60, 0
4, 34800, Note_on_c, 0, 51, 88
4, 34800, Note_on_c, 0, 56, 88
4, 34800, Note_on_c, 0, 60, 88
4, 34800, Note_on_c, 0, 63, 88
4, 34823, Note_on_c, 0, 63, 0
4, 34823, Note_on_c, 0, 51, 0
4, 34823, Note_on_c, 0, 56, 0
4, 34823, Note_on_c, 0, 60, 0
4, 35280, Note_on_c, 0, 51, 88
4, 35280, Note_on_c, 0, 56, 88
4, 35280, Note_on_c, 0, 60, 88
4, 35280, Note_on_c, 0, 63, 88
4, 35303, Note_on_c, 0, 63, 0
4, 35303, Note_on_c, 0, 51, 0
4, 35303, Note_on_c, 0, 56, 0
4, 35303, Note_on_c, 0, 60, 0
4, 35760, Note_on_c, 0, 53, 88
4, 35760, Note_on_c, 0, 57, 88
4, 35760, Note_on_c, 0, 60, 88
4, 36240, Note_on_c, 0, 60, 0
4, 36240, Note_on_c, 0, 57, 0
4, 36240, Note_on_c, 0, 53, 0
4, 36240, Note_on_c, 0, 53, 88
4, 36240, Note_on_c, 0, 57, 88
4, 36240, Note_on_c, 0, 60, 88
4, 36480, Note_on_c, 0, 60, 0
4, 36480, Note_on_c, 0, 57, 0
4, 36480, Note_on_c, 0, 53, 0
4, 36720, Note_on_c, 0, 53, 88
4, 36720, Note_on_c, 0, 58, 88
4, 36720, Note_on_c, 0, 61, 88
4, 36743, Note_on_c, 0, 61, 0
4, 36743, Note_on_c, 0, 58, 0
4, 36743, Note_on_c, 0, 53, 0
4, 37200, Note_on_c, 0, 51, 88
4, 37200, Note_on_c, 0, 53, 88
4, 37200, Note_on_c, 0, 60, 88
4, 37223, Note_on_c, 0, 60, 0
4, 37223, Note_on_c, 0, 53, 0
4, 37223, Note_on_c, 0, 51, 0
4, 37680, Note_on_c, 0, 49, 88
4, 37680, Note_on_c, 0, 53, 88
4, 37680, Note_on_c, 0, 58, 88
4, 38160, Note_on_c, 0, 58, 0
4, 38160, Note_on_c, 0, 53, 0
4, 38160, Note_on_c, 0, 49, 0
4, 38160, Note_on_c, 0, 53, 88
4, 38160, Note_on_c, 0, 58, 88
4, 38160, Note_on_c, 0, 61, 88
4, 38400, Note_on_c, 0, 61, 0
4, 38400, Note_on_c, 0, 58, 0
4, 38400, Note_on_c, 0, 53, 0
4, 38640, Note_on_c, 0, 53, 88
4, 38640, Note_on_c, 0, 58, 88
4, 38640, Note_on_c, 0, 61, 88
4, 38663, Note_on_c, 0, 61, 0
4, 38663, Note_on_c, 0, 58, 0
4, 38663, Note_on_c, 0, 53, 0
4, 39120, Note_on_c, 0, 53, 88
4, 39120, Note_on_c, 0, 58, 88
4, 39120, Note_on_c, 0, 61, 88
4, 39143, Note_on_c, 0, 61, 0
4, 39143, Note_on_c, 0, 58, 0
4, 39143, Note_on_c, 0, 53, 0
4, 39600, Note_on_c, 0, 51, 88
4, 39600, Note_on_c, 0, 55, 88
4, 39600, Note_on_c, 0, 58, 88
4, 39600, Note_on_c, 0, 63, 88
4, 40080, Note_on_c, 0, 63, 0
4, 40080, Note_on_c, 0, 51, 0
4, 40080, Note_on_c, 0, 55, 0
4, 40080, Note_on_c, 0, 58, 0
4, 40080, Note_on_c, 0, 51, 88
4, 40080, Note_on_c, 0, 55, 88
4, 40080, Note_on_c, 0, 58, 88
4, 40080, Note_on_c, 0, 63, 88
4, 40320, Note_on_c, 0, 63, 0
4, 40320, Note_on_c, 0, 51, 0
4, 40320, Note_on_c, 0, 55, 0
4, 40320, Note_on_c, 0, 58, 0
4, 40560, Note_on_c, 0, 51, 88
4, 40560, Note_on_c, 0, 56, 88
4, 40560, Note_on_c, 0, 63, 88
4, 40583, Note_on_c, 0, 63, 0
4, 40583, Note_on_c, 0, 56, 0
4, 40583, Note_on_c, 0, 51, 0
4, 41040, Note_on_c, 0, 51, 88
4, 41040, Note_on_c, 0, 58, 88
4, 41040, Note_on_c, 0, 63, 88
4, 41063, Note_on_c, 0, 63, 0
4, 41063, Note_on_c, 0, 58, 0
4, 41063, Note_on_c, 0, 51, 0
4, 41520, Note_on_c, 0, 51, 88
4, 41520, Note_on_c, 0, 56, 88
4, 41520, Note_on_c, 0, 60, 88
4, 41520, Note_on_c, 0, 63, 88
4, 42000, Note_on_c, 0, 63, 0
4, 42000, Note_on_c, 0, 51, 0
4, 42000, Note_on_c, 0, 56, 0
4, 42000, Note_on_c, 0, 60, 0
4, 42000, Note_on_c, 0, 51, 88
4, 42000, Note_on_c, 0, 56, 88
4, 42000, Note_on_c, 0, 60, 88
4, 42000, Note_on_c, 0, 63, 88
4, 42240, Note_on_c, 0, 63, 0
4, 42240, Note_on_c, 0, 51, 0
4, 42240, Note_on_c, 0, 56, 0
4, 42240, Note_on_c, 0, 60, 0
4, 42480, Note_on_c, 0, 51, 88
4, 42480, Note_on_c, 0, 56, 88
4, 42480, Note_on_c, 0, 63, 88
4, 42503, Note_on_c, 0, 63, 0
4, 42503, Note_on_c, 0, 56, 0
4, 42503, Note_on_c, 0, 51, 0
4, 42960, Note_on_c, 0, 51, 88
4, 42960, Note_on_c, 0, 56, 88
4, 42960, Note_on_c, 0, 60, 88
4, 42983, Note_on_c, 0, 60, 0
4, 42983, Note_on_c, 0, 56, 0
4, 42983, Note_on_c, 0, 51, 0
4, 43440, Note_on_c, 0, 49, 88
4, 43440, Note_on_c, 0, 53, 88
4, 43440, Note_on_c, 0, 58, 88
4, 43920, Note_on_c, 0, 58, 0
4, 43920, Note_on_c, 0, 53, 0
4, 43920, Note_on_c, 0, 49, 0
4, 43920, Note_on_c, 0, 49, 88
4, 43920, Note_on_c, 0, 53, 88
4, 43920, Note_on_c, 0, 58, 88
4, 44160, Note_on_c, 0, 58, 0
4, 44160, Note_on_c, 0, 53, 0
4, 44160, Note_on_c, 0, 49, 0
4, 44400, Note_on_c, 0, 48, 88
4, 44400, Note_on_c, 0, 53, 88
4, 44400, Note_on_c, 0, 56, 88
4, 44423, Note_on_c, 0, 56, 0
4, 44423, Note_on_c, 0, 53, 0
4, 44423, Note_on_c, 0, 48, 0
4, 44880, Note_on_c, 0, 48, 88
4, 44880, Note_on_c, 0, 52, 88
4, 44880, Note_on_c, 0, 55, 88
4, 44880, Note_on_c, 0, 58, 88
4, 44903, Note_on_c, 0, 58, 0
4, 44903, Note_on_c, 0, 48, 0
4, 44903, Note_on_c, 0, 52, 0
4, 44903, Note_on_c, 0, 55, 0
4, 45360, Note_on_c, 0, 48, 88
4, 45360, Note_on_c, 0, 53, 88
4, 45360, Note_on_c, 0, 56, 88
4, 45840, Note_on_c, 0, 56, 0
4, 45840, Note_on_c, 0, 53, 0
4, 45840, Note_on_c, 0, 48, 0
4, 45840, Note_on_c, 0, 48, 88
4, 45840, Note_on_c, 0, 53, 88
4, 45840, Note_on_c, 0, 56, 88
4, 46080, Note_on_c, 0, 56, 0
4, 46080, Note_on_c, 0, 53, 0
4, 46080, Note_on_c, 0, 48, 0
4, 46320, Note_on_c, 0, 48, 88
4, 46320, Note_on_c, 0, 53, 88
4, 46320, Note_on_c, 0, 60, 88
4, 46343, Note_on_c, 0, 60, 0
4, 46343, Note_on_c, 0, 53, 0
4, 46343, Note_on_c, 0, 48, 0
4, 46800, Note_on_c, 0, 48, 88
4, 46800, Note_on_c, 0, 53, 88
4, 46800, Note_on_c, 0, 56, 88
4, 46823, Note_on_c, 0, 56, 0
4, 46823, Note_on_c, 0, 53, 0
4, 46823, Note_on_c, 0, 48, 0
4, 47280, Note_on_c, 0, 51, 88
4, 47280, Note_on_c, 0, 55, 88
4, 47280, Note_on_c, 0, 58, 88
4, 47760, Note_on_c, 0, 58, 0
4, 47760, Note_on_c, 0, 55, 0
4, 47760, Note_on_c, 0, 51, 0
4, 47760, Note_on_c, 0, 51, 88
4, 47760, Note_on_c, 0, 55, 88
4, 47760, Note_on_c, 0, 58, 88
4, 48000, Note_on_c, 0, 58, 0
4, 48000, Note_on_c, 0, 55, 0
4, 48000, Note_on_c, 0, 51, 0
4, 48240, Note_on_c, 0, 51, 88
4, 48240, Note_on_c, 0, 56, 88
4, 48240, Note_on_c, 0, 63, 88
4, 48263, Note_on_c, 0, 63, 0
4, 48263, Note_on_c, 0, 56, 0
4, 48263, Note_on_c, 0, 51, 0
4, 48720, Note_on_c, 0, 51, 88
4, 48720, Note_on_c, 0, 55, 88
4, 48720, Note_on_c, 0, 58, 88
4, 48720, Note_on_c, 0, 63, 88
4, 48743, Note_on_c, 0, 63, 0
4, 48743, Note_on_c, 0, 51, 0
4, 48743, Note_on_c, 0, 55, 0
4, 48743, Note_on_c, 0, 58, 0
4, 49200, Note_on_c, 0, 51, 88
4, 49200, Note_on_c, 0, 56, 88
4, 49200, Note_on_c, 0, 60, 88
4, 49200, Note_on_c, 0, 63, 88
4, 49680, Note_on_c, 0, 63, 0
4, 49680, Note_on_c, 0, 51, 0
4, 49680, Note_on_c, 0, 56, 0
4, 49680, Note_on_c, 0, 60, 0
4, 49680, Note_on_c, 0, 51, 88
4, 49680, Note_on_c, 0, 56, 88
4, 49680, Note_on_c, 0, 60, 88
4, 49680, Note_on_c, 0, 63, 88
4, 49920, Note_on_c, 0, 63, 0
4, 49920, Note_on_c, 0, 51, 0
4, 49920, Note_on_c, 0, 56, 0
4, 49920, Note_on_c, 0, 60, 0
4, 50160, Note_on_c, 0, 51, 88
4, 50160, Note_on_c, 0, 56, 88
4, 50160, Note_on_c, 0, 60, 88
4, 50160, Note_on_c, 0, 63, 88
4, 50183, Note_on_c, 0, 63, 0
4, 50183, Note_on_c, 0, 51, 0
4, 50183, Note_on_c, 0, 56, 0
4, 50183, Note_on_c, 0, 60, 0
4, 50640, Note_on_c, 0, 51, 88
4, 50640, Note_on_c, 0, 56, 88
4, 50640, Note_on_c, 0, 60, 88
4, 50640, Note_on_c, 0, 63, 88
4, 50663, Note_on_c, 0, 63, 0
4, 50663, Note_on_c, 0, 51, 0
4, 50663, Note_on_c, 0, 56, 0
4, 50663, Note_on_c, 0, 60, 0
4, 51120, Note_on_c, 0, 53, 88
4, 51120, Note_on_c, 0, 57, 88
4, 51120, Note_on_c, 0, 60, 88
4, 51600, Note_on_c, 0, 60, 0
4, 51600, Note_on_c, 0, 57, 0
4, 51600, Note_on_c, 0, 53, 0
4, 51600, Note_on_c, 0, 53, 88
4, 51600, Note_on_c, 0, 57, 88
4, 51600, Note_on_c, 0, 60, 88
4, 51840, Note_on_c, 0, 60, 0
4, 51840, Note_on_c, 0, 57, 0
4, 51840, Note_on_c, 0, 53, 0
4, 52080, Note_on_c, 0, 53, 88
4, 52080, Note_on_c, 0, 58, 88
4, 52080, Note_on_c, 0, 61, 88
4, 52103, Note_on_c, 0, 61, 0
4, 52103, Note_on_c, 0, 58, 0
4, 52103, Note_on_c, 0, 53, 0
4, 52560, Note_on_c, 0, 51, 88
4, 52560, Note_on_c, 0, 53, 88
4, 52560, Note_on_c, 0, 60, 88
4, 52583, Note_on_c, 0, 60, 0
4, 52583, Note_on_c, 0, 53, 0
4, 52583, Note_on_c, 0, 51, 0
4, 53040, Note_on_c, 0, 49, 88
4, 53040, Note_on_c, 0, 53, 88
4, 53040, Note_on_c, 0, 58, 88
4, 53520, Note_on_c, 0, 58, 0
4, 53520, Note_on_c, 0, 53, 0
4, 53520, Note_on_c, 0, 49, 0
4, 53520, Note_on_c, 0, 53, 88
4, 53520, Note_on_c, 0, 58, 88
4, 53520, Note_on_c, 0, 61, 88
4, 53760, Note_on_c, 0, 61, 0
4, 53760, Note_on_c, 0, 58, 0
4, 53760, Note_on_c, 0, 53, 0
4, 54000, Note_on_c, 0, 53, 88
4, 54000, Note_on_c, 0, 58, 88
4, 54000, Note_on_c, 0, 61, 88
4, 54023, Note_on_c, 0, 61, 0
4, 54023, Note_on_c, 0, 58, 0
4, 54023, Note_on_c, 0, 53, 0
4, 54480, Note_on_c, 0, 53, 88
4, 54480, Note_on_c, 0, 58, 88
4, 54480, Note_on_c, 0, 61, 88
4, 54503, Note_on_c, 0, 61, 0
4, 54503, Note_on_c, 0, 58, 0
4, 54503, Note_on_c, 0, 53, 0
4, 54960, Note_on_c, 0, 51, 88
4, 54960, Note_on_c, 0, 55, 88
4, 54960, Note_on_c, 0, 58, 88
4, 54960, Note_on_c, 0, 63, 88
4, 55440, Note_on_c, 0, 63, 0
4, 55440, Note_on_c, 0, 51, 0
4, 55440, Note_on_c, 0, 55, 0
4, 55440, Note_on_c, 0, 58, 0
4, 55440, Note_on_c, 0, 51, 88
4, 55440, Note_on_c, 0, 55, 88
4, 55440, Note_on_c, 0, 58, 88
4, 55440, Note_on_c, 0, 63, 88
4, 55680, Note_on_c, 0, 63, 0
4, 55680, Note_on_c, 0, 51, 0
4, 55680, Note_on_c, 0, 55, 0
4, 55680, Note_on_c, 0, 58, 0
4, 55920, Note_on_c, 0, 51, 88
4, 55920, Note_on_c, 0, 56, 88
4, 55920, Note_on_c, 0, 63, 88
4, 55943, Note_on_c, 0, 63, 0
4, 55943, Note_on_c, 0, 56, 0
4, 55943, Note_on_c, 0, 51, 0
4, 56400, Note_on_c, 0, 51, 88
4, 56400, Note_on_c, 0, 58, 88
4, 56400, Note_on_c, 0, 63, 88
4, 56423, Note_on_c, 0, 63, 0
4, 56423, Note_on_c, 0, 58, 0
4, 56423, Note_on_c, 0, 51, 0
4, 56880, Note_on_c, 0, 51, 88
4, 56880, Note_on_c, 0, 56, 88
4, 56880, Note_on_c, 0, 60, 88
4, 56880, Note_on_c, 0, 63, 88
4, 57360, Note_on_c, 0, 63, 0
4, 57360, Note_on_c, 0, 51, 0
4, 57360, Note_on_c, 0, 56, 0
4, 57360, Note_on_c, 0, 60, 0
4, 57360, Note_on_c, 0, 51, 88
4, 57360, Note_on_c, 0, 56, 88
4, 57360, Note_on_c, 0, 60, 88
4, 57360, Note_on_c, 0, 63, 88
4, 57600, Note_on_c, 0, 63, 0
4, 57600, Note_on_c, 0, 51, 0
4, 57600, Note_on_c, 0, 56, 0
4, 57600, Note_on_c, 0, 60, 0
4, 57840, Note_on_c, 0, 51, 88
4, 57840, Note_on_c, 0, 56, 88
4, 57840, Note_on_c, 0, 63, 88
4, 57863, Note_on_c, 0, 63, 0
4, 57863, Note_on_c, 0, 56, 0
4, 57863, Note_on_c, 0, 51, 0
4, 58320, Note_on_c, 0, 51, 88
4, 58320, Note_on_c, 0, 56, 88
4, 58320, Note_on_c, 0, 60, 88
4, 58343, Note_on_c, 0, 60, 0
4, 58343, Note_on_c, 0, 56, 0
4, 58343, Note_on_c, 0, 51, 0
4, 58800, Note_on_c, 0, 49, 88
4, 58800, Note_on_c, 0, 53, 88
4, 58800, Note_on_c, 0, 58, 88
4, 59280, Note_on_c, 0, 58, 0
4, 59280, Note_on_c, 0, 53, 0
4, 59280, Note_on_c, 0, 49, 0
4, 59280, Note_on_c, 0, 49, 88
4, 59280, Note_on_c, 0, 53, 88
4, 59280, Note_on_c, 0, 58, 88
4, 59520, Note_on_c, 0, 58, 0
4, 59520, Note_on_c, 0, 53, 0
4, 59520, Note_on_c, 0, 49, 0
4, 59760, Note_on_c, 0, 48, 88
4, 59760, Note_on_c, 0, 53, 88
4, 59760, Note_on_c, 0, 56, 88
4, 59783, Note_on_c, 0, 56, 0
4, 59783, Note_on_c, 0, 53, 0
4, 59783, Note_on_c, 0, 48, 0
4, 60240, Note_on_c, 0, 48, 88
4, 60240, Note_on_c, 0, 52, 88
4, 60240, Note_on_c, 0, 55, 88
4, 60240, Note_on_c, 0, 58, 88
4, 60263, Note_on_c, 0, 58, 0
4, 60263, Note_on_c, 0, 48, 0
4, 60263, Note_on_c, 0, 52, 0
4, 60263, Note_on_c, 0, 55, 0
4, 60720, Note_on_c, 0, 48, 88
4, 60720, Note_on_c, 0, 53, 88
4, 60720, Note_on_c, 0, 56, 88
4, 61200, Note_on_c, 0, 56, 0
4, 61200, Note_on_c, 0, 53, 0
4, 61200, Note_on_c, 0, 48, 0
4, 61200, Note_on_c, 0, 48, 88
4, 61200, Note_on_c, 0, 53, 88
4, 61200, Note_on_c, 0, 56, 88
4, 61440, Note_on_c, 0, 56, 0
4, 61440, Note_on_c, 0, 53, 0
4, 61440, Note_on_c, 0, 48, 0
4, 61680, Note_on_c, 0, 48, 88
4, 61680, Note_on_c, 0, 53, 88
4, 61680, Note_on_c, 0, 60, 88
4, 61920, Note_on_c, 0, 60, 0
4, 61920, Note_on_c, 0, 53, 0
4, 61920, Note_on_c, 0, 48, 0
4, 63840, Control_c, 0, 64, 127
4, 63840, Note_on_c, 0, 56, 49
4, 63960, Note_on_c, 0, 56, 0
4, 63960, Note_on_c, 0, 53, 49
4, 64080, Note_on_c, 0, 53, 0
4, 64080, Note_on_c, 0, 56, 49
4, 64200, Note_on_c, 0, 56, 0
4, 64200, Note_on_c, 0, 53, 49
4, 64320, Note_on_c, 0, 53, 0
4, 64320, Note_on_c, 0, 56, 49
4, 64440, Note_on_c, 0, 56, 0
4, 64440, Note_on_c, 0, 53, 49
4, 64560, Note_on_c, 0, 53, 0
4, 64560, Note_on_c, 0, 56, 49
4, 64680, Note_on_c, 0, 56, 0
4, 64680, Control_c, 0, 64, 0
4, 64680, Note_on_c, 0, 53, 49
4, 64800, Note_on_c, 0, 53, 0
4, 64800, Control_c, 0, 64, 127
4, 64800, Note_on_c, 0, 60, 62
4, 64920, Note_on_c, 0, 60, 0
4, 64920, Note_on_c, 0, 56, 62
4, 65040, Note_on_c, 0, 56, 0
4, 65040, Note_on_c, 0, 60, 62
4, 65160, Note_on_c, 0, 60, 0
4, 65160, Note_on_c, 0, 56, 62
4, 65280, Note_on_c, 0, 56, 0
4, 65280, Note_on_c, 0, 60, 62
4, 65400, Note_on_c, 0, 60, 0
4, 65400, Note_on_c, 0, 56, 62
4, 65520, Note_on_c, 0, 56, 0
4, 65520, Note_on_c, 0, 60, 62
4, 65640, Note_on_c, 0, 60, 0
4, 65640, Control_c, 0, 64, 0
4, 65640, Note_on_c, 0, 56, 62
4, 65760, Note_on_c, 0, 56, 0
4, 65760, Control_c, 0, 64, 127
4, 65760, Note_on_c, 0, 58, 75
4, 65880, Note_on_c, 0, 58, 0
4, 65880, Note_on_c, 0, 56, 75
4, 66000, Note_on_c, 0, 56, 0
4, 66000, Note_on_c, 0, 58, 75
4, 66120, Note_on_c, 0, 58, 0
4, 66120, Note_on_c, 0, 56, 75
4, 66240, Note_on_c, 0, 56, 0
4, 66240, Note_on_c, 0, 58, 75
4, 66360, Note_on_c, 0, 58, 0
4, 66360, Note_on_c, 0, 56, 75
4, 66480, Note_on_c, 0, 56, 0
4, 66480, Note_on_c, 0, 58, 75
4, 66600, Note_on_c, 0, 58, 0
4, 66600, Control_c, 0, 64, 0
4, 66600, Note_on_c, 0, 56, 75
4, 66720, Note_on_c, 0, 56, 0
4, 66720, Control_c, 0, 64, 127
4, 66720, Note_on_c, 0, 63, 62
4, 66840, Note_on_c, 0, 63, 0
4, 66840, Note_on_c, 0, 55, 62
4, 66960, Note_on_c, 0, 55, 0
4, 66960, Note_on_c, 0, 61, 62
4, 67080, Note_on_c, 0, 61, 0
4, 67080, Note_on_c, 0, 55, 62
4, 67200, Note_on_c, 0, 55, 0
4, 67200, Note_on_c, 0, 58, 62
4, 67320, Note_on_c, 0, 58, 0
4, 67320, Note_on_c, 0, 51, 62
4, 67440, Note_on_c, 0, 51, 0
4, 67440, Note_on_c, 0, 55, 62
4, 67560, Note_on_c, 0, 55, 0
4, 67560, Control_c, 0, 64, 0
4, 67560, Note_on_c, 0, 51, 62
4, 67680, Note_on_c, 0, 51, 0
4, 67680, Control_c, 0, 64, 127
4, 67680, Note_on_c, 0, 55, 62
4, 67800, Note_on_c, 0, 55, 0
4, 67800, Note_on_c, 0, 49, 62
4, 67920, Note_on_c, 0, 49, 0
4, 67920, Note_on_c, 0, 58, 62
4, 68040, Note_on_c, 0, 58, 0
4, 68040, Note_on_c, 0, 55, 62
4, 68160, Note_on_c, 0, 55, 0
4, 68160, Note_on_c, 0, 61, 62
4, 68280, Note_on_c, 0, 61, 0
4, 68280, Note_on_c, 0, 58, 62
4, 68400, Control_c, 0, 64, 0
4, 68400, Note_on_c, 0, 67, 62
4, 68880, Note_on_c, 0, 67, 0
4, 68880, Note_on_c, 0, 58, 0
4, 68880, Control_c, 0, 64, 127
4, 68880, Note_on_c, 0, 65, 62
4, 69000, Note_on_c, 0, 65, 0
4, 69000, Note_on_c, 0, 55, 62
4, 69120, Note_on_c, 0, 55, 0
4, 69120, Note_on_c, 0, 64, 62
4, 69240, Note_on_c, 0, 64, 0
4, 69240, Note_on_c, 0, 55, 62
4, 69360, Note_on_c, 0, 55, 0
4, 69360, Note_on_c, 0, 61, 62
4, 69480, Note_on_c, 0, 61, 0
4, 69480, Control_c, 0, 64, 0
4, 69480, Note_on_c, 0, 55, 62
4, 69600, Note_on_c, 0, 55, 0
4, 69600, Control_c, 0, 64, 127
4, 69600, Note_on_c, 0, 56, 62
4, 69720, Note_on_c, 0, 56, 0
4, 69720, Note_on_c, 0, 53, 62
4, 69840, Note_on_c, 0, 53, 0
4, 69840, Note_on_c, 0, 59, 62
4, 69960, Note_on_c, 0, 59, 0
4, 69960, Note_on_c, 0, 53, 62
4, 70080, Note_on_c, 0, 53, 0
4, 70080, Note_on_c, 0, 60, 75
4, 70200, Note_on_c, 0, 60, 0
4, 70200, Note_on_c, 0, 53, 75
4, 70320, Control_c, 0, 64, 0
4, 70320, Note_on_c, 0, 61, 75
4, 70800, Note_on_c, 0, 61, 0
4, 70800, Note_on_c, 0, 53, 0
4, 70800, Control_c, 0, 64, 127
4, 70800, Note_on_c, 0, 60, 75
4, 70920, Note_on_c, 0, 60, 0
4, 70920, Note_on_c, 0, 53, 75
4, 71040, Note_on_c, 0, 53, 0
4, 71040, Note_on_c, 0, 58, 62
4, 71160, Note_on_c, 0, 58, 0
4, 71160, Note_on_c, 0, 53, 62
4, 71280, Note_on_c, 0, 53, 0
4, 71280, Note_on_c, 0, 56, 62
4, 71400, Note_on_c, 0, 56, 0
4, 71400, Control_c, 0, 64, 0
4, 71400, Note_on_c, 0, 53, 62
4, 71520, Note_on_c, 0, 53, 0
4, 71520, Control_c, 0, 64, 127
4, 71520, Note_on_c, 0, 55, 62
4, 71640, Note_on_c, 0, 55, 0
4, 71640, Note_on_c, 0, 48, 62
4, 71760, Note_on_c, 0, 48, 0
4, 71760, Note_on_c, 0, 53, 62
4, 71880, Note_on_c, 0, 53, 0
4, 71880, Note_on_c, 0, 48, 62
4, 72000, Note_on_c, 0, 48, 0
4, 72000, Note_on_c, 0, 56, 62
4, 72120, Note_on_c, 0, 56, 0
4, 72120, Note_on_c, 0, 53, 62
4, 72240, Note_on_c, 0, 53, 0
4, 72240, Note_on_c, 0, 60, 62
4, 72360, Note_on_c, 0, 60, 0
4, 72360, Control_c, 0, 64, 0
4, 72360, Note_on_c, 0, 56, 62
4, 72480, Note_on_c, 0, 56, 0
4, 72480, Control_c, 0, 64, 127
4, 72480, Note_on_c, 0, 65, 75
4, 72600, Note_on_c, 0, 65, 0
4, 72600, Note_on_c, 0, 56, 75
4, 72720, Note_on_c, 0, 56, 0
4, 72720, Note_on_c, 0, 60, 75
4, 72840, Note_on_c, 0, 60, 0
4, 72840, Note_on_c, 0, 56, 75
4, 72960, Note_on_c, 0, 56, 0
4, 72960, Note_on_c, 0, 58, 75
4, 73080, Note_on_c, 0, 58, 0
4, 73080, Note_on_c, 0, 55, 75
4, 73200, Note_on_c, 0, 55, 0
4, 73200, Note_on_c, 0, 56, 75
4, 73320, Note_on_c, 0, 56, 0
4, 73320, Control_c, 0, 64, 0
4, 73320, Note_on_c, 0, 53, 75
4, 73440, Note_on_c, 0, 53, 0
4, 73440, Control_c, 0, 64, 127
4, 73440, Note_on_c, 0, 56, 75
4, 73560, Note_on_c, 0, 56, 0
4, 73560, Note_on_c, 0, 49, 75
4, 73680, Note_on_c, 0, 49, 0
4, 73680, Note_on_c, 0, 55, 75
4, 73800, Note_on_c, 0, 55, 0
4, 73800, Note_on_c, 0, 49, 75
4, 73920, Note_on_c, 0, 49, 0
4, 73920, Note_on_c, 0, 58, 75
4, 74040, Note_on_c, 0, 58, 0
4, 74040, Note_on_c, 0, 55, 75
4, 74160, Note_on_c, 0, 55, 0
4, 74160, Note_on_c, 0, 61, 75
4, 74280, Note_on_c, 0, 61, 0
4, 74280, Control_c, 0, 64, 0
4, 74280, Note_on_c, 0, 58, 75
4, 74400, Note_on_c, 0, 58, 0
4, 74400, Control_c, 0, 64, 127
4, 74400, Note_on_c, 0, 67, 75
4, 74520, Note_on_c, 0, 67, 0
4, 74520, Note_on_c, 0, 63, 75
4, 74640, Note_on_c, 0, 63, 0
4, 74640, Note_on_c, 0, 65, 75
4, 74760, Note_on_c, 0, 65, 0
4, 74760, Note_on_c, 0, 61, 75
4, 74880, Note_on_c, 0, 61, 0
4, 74880, Note_on_c, 0, 63, 75
4, 75000, Note_on_c, 0, 63, 0
4, 75000, Note_on_c, 0, 60, 75
4, 75120, Note_on_c, 0, 60, 0
4, 75120, Note_on_c, 0, 61, 75
4, 75240, Note_on_c, 0, 61, 0
4, 75240, Control_c, 0, 64, 0
4, 75240, Note_on_c, 0, 58, 75
4, 75360, Note_on_c, 0, 58, 0
4, 75360, Note_on_c, 0, 60, 88
4, 75383, Note_on_c, 0, 60, 0
4, 75600, Control_c, 0, 64, 127
4, 75600, Note_on_c, 0, 59, 88
4, 75720, Note_on_c, 0, 59, 0
4, 75720, Note_on_c, 0, 60, 88
4, 75840, Note_on_c, 0, 60, 0
4, 75840, Note_on_c, 0, 56, 88
4, 75960, Note_on_c, 0, 56, 0
4, 75960, Note_on_c, 0, 60, 88
4, 76080, Note_on_c, 0, 60, 0
4, 76080, Note_on_c, 0, 53, 88
4, 76200, Note_on_c, 0, 53, 0
4, 76200, Control_c, 0, 64, 0
4, 76200, Note_on_c, 0, 60, 88
4, 76320, Note_on_c, 0, 60, 0
4, 76320, Note_on_c, 0, 52, 88
4, 76343, Note_on_c, 0, 52, 0
4, 76560, Control_c, 0, 64, 127
4, 76560, Note_on_c, 0, 59, 88
4, 76680, Note_on_c, 0, 59, 0
4, 76680, Note_on_c, 0, 60, 88
4, 76800, Note_on_c, 0, 60, 0
4, 76800, Note_on_c, 0, 58, 88
4, 76920, Note_on_c, 0, 58, 0
4, 76920, Note_on_c, 0, 60, 88
4, 77040, Note_on_c, 0, 60, 0
4, 77040, Note_on_c, 0, 55, 88
4, 77160, Note_on_c, 0, 55, 0
4, 77160, Control_c, 0, 64, 0
4, 77160, Note_on_c, 0, 60, 88
4, 77280, Note_on_c, 0, 60, 0
4, 77280, Note_on_c, 0, 53, 88
4, 77303, Note_on_c, 0, 53, 0
4, 77520, Control_c, 0, 64, 127
4, 77520, Note_on_c, 0, 48, 88
4, 77640, Note_on_c, 0, 48, 0
4, 77640, Note_on_c, 0, 44, 88
4, 77760, Note_on_c, 0, 44, 0
4, 77760, Note_on_c, 0, 53, 88
4, 77880, Note_on_c, 0, 53, 0
4, 77880, Note_on_c, 0, 48, 88
4, 78000, Note_on_c, 0, 48, 0
4, 78000, Note_on_c, 0, 56, 88
4, 78120, Note_on_c, 0, 56, 0
4, 78120, Control_c, 0, 64, 0
4, 78120, Note_on_c, 0, 48, 88
4, 78240, Note_on_c, 0, 48, 0
4, 78240, Note_on_c, 0, 53, 88
4, 78263, Note_on_c, 0, 53, 0
4, 81759, Control_c, 0, 64, 127
4, 81759, Note_on_c, 0, 60, 49
4, 81759, Note_on_c, 0, 69, 49
4, 81920, Note_on_c, 0, 69, 0
4, 81920, Note_on_c, 0, 60, 0
4, 81920, Note_on_c, 0, 72, 49
4, 82080, Note_on_c, 0, 72, 0
4, 82080, Control_c, 0, 64, 0
4, 82080, Note_on_c, 0, 60, 49
4, 82080, Note_on_c, 0, 65, 49
4, 82560, Note_on_c, 0, 65, 0
4, 82560, Note_on_c, 0, 60, 0
4, 82719, Control_c, 0, 64, 127
4, 82719, Note_on_c, 0, 60, 49
4, 82719, Note_on_c, 0, 69, 49
4, 82880, Note_on_c, 0, 69, 0
4, 82880, Note_on_c, 0, 60, 0
4, 82880, Note_on_c, 0, 72, 49
4, 83040, Note_on_c, 0, 72, 0
4, 83040, Control_c, 0, 64, 0
4, 83040, Note_on_c, 0, 60, 49
4, 83040, Note_on_c, 0, 65, 49
4, 83520, Note_on_c, 0, 65, 0
4, 83520, Note_on_c, 0, 60, 0
4, 83679, Control_c, 0, 64, 127
4, 83679, Note_on_c, 0, 62, 49
4, 83679, Note_on_c, 0, 70, 49
4, 83840, Note_on_c, 0, 70, 0
4, 83840, Note_on_c, 0, 62, 0
4, 83840, Note_on_c, 0, 74, 49
4, 84000, Note_on_c, 0, 74, 0
4, 84000, Control_c, 0, 64, 0
4, 84000, Note_on_c, 0, 62, 49
4, 84000, Note_on_c, 0, 65, 49
4, 84480, Note_on_c, 0, 65, 0
4, 84480, Note_on_c, 0, 62, 0
4, 84639, Control_c, 0, 64, 127
4, 84639, Note_on_c, 0, 60, 49
4, 84639, Note_on_c, 0, 69, 49
4, 84800, Note_on_c, 0, 69, 0
4, 84800, Note_on_c, 0, 60, 0
4, 84800, Note_on_c, 0, 72, 49
4, 84960, Note_on_c, 0, 72, 0
4, 84960, Control_c, 0, 64, 0
4, 84960, Note_on_c, 0, 60, 49
4, 84960, Note_on_c, 0, 65, 49
4, 85440, Note_on_c, 0, 65, 0
4, 85440, Note_on_c, 0, 60, 0
4, 85599, Control_c, 0, 64, 127
4, 85599, Note_on_c, 0, 60, 49
4, 85599, Note_on_c, 0, 67, 49
4, 85760, Note_on_c, 0, 67, 0
4, 85760, Note_on_c, 0, 60, 0
4, 85760, Note_on_c, 0, 72, 49
4, 85920, Note_on_c, 0, 72, 0
4, 85920, Control_c, 0, 64, 0
4, 85920, Note_on_c, 0, 60, 49
4, 85920, Note_on_c, 0, 64, 49
4, 86400, Note_on_c, 0, 64, 0
4, 86400, Note_on_c, 0, 60, 0
4, 86559, Control_c, 0, 64, 127
4, 86559, Note_on_c, 0, 60, 49
4, 86559, Note_on_c, 0, 69, 49
4, 86720, Note_on_c, 0, 69, 0
4, 86720, Note_on_c, 0, 60, 0
4, 86720, Note_on_c, 0, 72, 49
4, 86880, Note_on_c, 0, 72, 0
4, 86880, Control_c, 0, 64, 0
4, 86880, Note_on_c, 0, 60, 49
4, 86880, Note_on_c, 0, 65, 49
4, 87360, Note_on_c, 0, 65, 0
4, 87360, Note_on_c, 0, 60, 0
4, 87519, Control_c, 0, 64, 127
4, 87519, Note_on_c, 0, 60, 49
4, 87519, Note_on_c, 0, 69, 49
4, 87680, Note_on_c, 0, 69, 0
4, 87680, Note_on_c, 0, 60, 0
4, 87680, Note_on_c, 0, 72, 49
4, 87840, Note_on_c, 0, 72, 0
4, 87840, Control_c, 0, 64, 0
4, 87840, Note_on_c, 0, 60, 49
4, 87840, Note_on_c, 0, 65, 49
4, 88320, Note_on_c, 0, 65, 0
4, 88320, Note_on_c, 0, 60, 0
4, 88479, Control_c, 0, 64, 127
4, 88479, Note_on_c, 0, 60, 49
4, 88479, Note_on_c, 0, 69, 49
4, 88640, Note_on_c, 0, 69, 0
4, 88640, Note_on_c, 0, 60, 0
4, 88640, Note_on_c, 0, 72, 49
4, 88800, Note_on_c, 0, 72, 0
4, 88800, Control_c, 0, 64, 0
4, 88800, Note_on_c, 0, 60, 49
4, 88800, Note_on_c, 0, 65, 49
4, 89280, Note_on_c, 0, 65, 0
4, 89280, Note_on_c, 0, 60, 0
4, 89439, Control_c, 0, 64, 127
4, 89439, Note_on_c, 0, 62, 49
4, 89439, Note_on_c, 0, 70, 49
4, 89600, Note_on_c, 0, 70, 0
4, 89600, Note_on_c, 0, 62, 0
4, 89600, Note_on_c, 0, 74, 49
4, 89760, Note_on_c, 0, 74, 0
4, 89760, Control_c, 0, 64, 0
4, 89760, Note_on_c, 0, 62, 49
4, 89760, Note_on_c, 0, 65, 49
4, 90240, Note_on_c, 0, 65, 0
4, 90240, Note_on_c, 0, 62, 0
4, 90399, Control_c, 0, 64, 127
4, 90399, Note_on_c, 0, 60, 49
4, 90399, Note_on_c, 0, 69, 49
4, 90560, Note_on_c, 0, 69, 0
4, 90560, Note_on_c, 0, 60, 0
4, 90560, Note_on_c, 0, 72, 49
4, 90720, Note_on_c, 0, 72, 0
4, 90720, Control_c, 0, 64, 0
4, 90720, Note_on_c, 0, 60, 49
4, 90720, Note_on_c, 0, 65, 49
4, 91200, Note_on_c, 0, 65, 0
4, 91200, Note_on_c, 0, 60, 0
4, 91359, Control_c, 0, 64, 127
4, 91359, Note_on_c, 0, 60, 49
4, 91359, Note_on_c, 0, 67, 49
4, 91520, Note_on_c, 0, 67, 0
4, 91520, Note_on_c, 0, 60, 0
4, 91520, Note_on_c, 0, 72, 49
4, 91680, Note_on_c, 0, 72, 0
4, 91680, Control_c, 0, 64, 0
4, 91680, Note_on_c, 0, 60, 49
4, 91680, Note_on_c, 0, 64, 49
4, 92160, Note_on_c, 0, 64, 0
4, 92160, Note_on_c, 0, 60, 0
4, 92319, Control_c, 0, 64, 127
4, 92319, Note_on_c, 0, 60, 49
4, 92319, Note_on_c, 0, 69, 49
4, 92480, Note_on_c, 0, 69, 0
4, 92480, Note_on_c, 0, 60, 0
4, 92480, Note_on_c, 0, 72, 49
4, 92640, Note_on_c, 0, 72, 0
4, 92640, Control_c, 0, 64, 0
4, 92640, Note_on_c, 0, 60, 49
4, 92640, Note_on_c, 0, 65, 49
4, 93120, Note_on_c, 0, 65, 0
4, 93120, Note_on_c, 0, 60, 0
4, 93279, Control_c, 0, 64, 127
4, 93279, Note_on_c, 0, 65, 49
4, 93279, Note_on_c, 0, 74, 49
4, 93440, Note_on_c, 0, 74, 0
4, 93440, Note_on_c, 0, 65, 0
4, 93440, Note_on_c, 0, 77, 49
4, 93600, Note_on_c, 0, 77, 0
4, 93600, Control_c, 0, 64, 0
4, 93600, Note_on_c, 0, 65, 49
4, 93600, Note_on_c, 0, 70, 49
4, 94080, Note_on_c, 0, 70, 0
4, 94080, Note_on_c, 0, 65, 0
4, 94239, Control_c, 0, 64, 127
4, 94239, Note_on_c, 0, 60, 49
4, 94239, Note_on_c, 0, 65, 49
4, 94400, Note_on_c, 0, 65, 0
4, 94400, Note_on_c, 0, 60, 0
4, 94400, Note_on_c, 0, 72, 49
4, 94560, Note_on_c, 0, 72, 0
4, 94560, Control_c, 0, 64, 0
4, 94560, Note_on_c, 0, 60, 49
4, 94560, Note_on_c, 0, 64, 49
4, 95040, Note_on_c, 0, 64, 0
4, 95040, Note_on_c, 0, 60, 0
4, 95199, Control_c, 0, 64, 127
4, 95199, Note_on_c, 0, 60, 49
4, 95199, Note_on_c, 0, 69, 49
4, 95360, Note_on_c, 0, 69, 0
4, 95360, Note_on_c, 0, 60, 0
4, 95360, Note_on_c, 0, 72, 49
4, 95520, Note_on_c, 0, 72, 0
4, 95520, Control_c, 0, 64, 0
4, 95520, Note_on_c, 0, 60, 49
4, 95520, Note_on_c, 0, 65, 49
4, 96000, Note_on_c, 0, 65, 0
4, 96000, Note_on_c, 0, 60, 0
4, 96159, Control_c, 0, 64, 127
4, 96159, Note_on_c, 0, 57, 49
4, 96159, Note_on_c, 0, 61, 49
4, 96320, Note_on_c, 0, 61, 0
4, 96320, Note_on_c, 0, 57, 0
4, 96320, Note_on_c, 0, 69, 49
4, 96480, Note_on_c, 0, 69, 0
4, 96480, Control_c, 0, 64, 0
4, 96480, Note_on_c, 0, 57, 49
4, 96480, Note_on_c, 0, 62, 49
4, 96960, Note_on_c, 0, 62, 0
4, 96960, Note_on_c, 0, 57, 0
4, 97119, Control_c, 0, 64, 127
4, 97119, Note_on_c, 0, 57, 49
4, 97119, Note_on_c, 0, 64, 49
4, 97280, Note_on_c, 0, 64, 0
4, 97280, Note_on_c, 0, 57, 0
4, 97280, Note_on_c, 0, 69, 49
4, 97440, Note_on_c, 0, 69, 0
4, 97440, Control_c, 0, 64, 0
4, 97440, Note_on_c, 0, 57, 49
4, 97440, Note_on_c, 0, 61, 49
4, 97920, Note_on_c, 0, 61, 0
4, 97920, Note_on_c, 0, 57, 0
4, 98079, Control_c, 0, 64, 127
4, 98079, Note_on_c, 0, 57, 62
4, 98079, Note_on_c, 0, 65, 62
4, 98240, Note_on_c, 0, 65, 0
4, 98240, Note_on_c, 0, 57, 0
4, 98240, Note_on_c, 0, 69, 62
4, 98400, Note_on_c, 0, 69, 0
4, 98400, Control_c, 0, 64, 0
4, 98400, Note_on_c, 0, 57, 62
4, 98400, Note_on_c, 0, 62, 62
4, 98880, Note_on_c, 0, 62, 0
4, 98880, Note_on_c, 0, 57, 0
4, 99039, Control_c, 0, 64, 127
4, 99039, Note_on_c, 0, 53, 62
4, 99039, Note_on_c, 0, 62, 62
4, 99200, Note_on_c, 0, 62, 0
4, 99200, Note_on_c, 0, 53, 0
4, 99200, Note_on_c, 0, 65, 62
4, 99360, Note_on_c, 0, 65, 0
4, 99360, Control_c, 0, 64, 0
4, 99360, Note_on_c, 0, 53, 62
4, 99360, Note_on_c, 0, 58, 62
4, 99840, Note_on_c, 0, 58, 0
4, 99840, Note_on_c, 0, 53, 0
4, 99999, Control_c, 0, 64, 127
4, 99999, Note_on_c, 0, 48, 62
4, 99999, Note_on_c, 0, 57, 62
4, 100160, Note_on_c, 0, 57, 0
4, 100160, Note_on_c, 0, 48, 0
4, 100160, Note_on_c, 0, 60, 62
4, 100320, Note_on_c, 0, 60, 0
4, 100320, Control_c, 0, 64, 0
4, 100320, Note_on_c, 0, 48, 62
4, 100320, Note_on_c, 0, 52, 62
4, 100800, Note_on_c, 0, 52, 0
4, 100800, Note_on_c, 0, 48, 0
4, 100959, Control_c, 0, 64, 127
4, 100959, Note_on_c, 0, 48, 62
4, 100959, Note_on_c, 0, 57, 62
4, 101120, Note_on_c, 0, 57, 0
4, 101120, Note_on_c, 0, 48, 0
4, 101120, Note_on_c, 0, 60, 62
4, 101280, Note_on_c, 0, 60, 0
4, 101280, Control_c, 0, 64, 0
4, 101280, Note_on_c, 0, 48, 62
4, 101280, Note_on_c, 0, 53, 62
4, 101760, Note_on_c, 0, 53, 0
4, 101760, Note_on_c, 0, 48, 0
4, 101919, Control_c, 0, 64, 127
4, 101919, Note_on_c, 0, 45, 62
4, 101919, Note_on_c, 0, 49, 62
4, 102080, Note_on_c, 0, 49, 0
4, 102080, Note_on_c, 0, 45, 0
4, 102080, Note_on_c, 0, 57, 62
4, 102240, Note_on_c, 0, 57, 0
4, 102240, Control_c, 0, 64, 0
4, 102240, Note_on_c, 0, 45, 62
4, 102240, Note_on_c, 0, 50, 62
4, 102720, Note_on_c, 0, 50, 0
4, 102720, Note_on_c, 0, 45, 0
4, 102879, Control_c, 0, 64, 127
4, 102879, Note_on_c, 0, 45, 62
4, 102879, Note_on_c, 0, 52, 62
4, 103040, Note_on_c, 0, 52, 0
4, 103040, Note_on_c, 0, 45, 0
4, 103040, Note_on_c, 0, 57, 62
4, 103200, Note_on_c, 0, 57, 0
4, 103200, Control_c, 0, 64, 0
4, 103200, Note_on_c, 0, 45, 62
4, 103200, Note_on_c, 0, 49, 62
4, 103680, Note_on_c, 0, 49, 0
4, 103680, Note_on_c, 0, 45, 0
4, 103839, Control_c, 0, 64, 127
4, 103839, Note_on_c, 0, 45, 62
4, 103839, Note_on_c, 0, 53, 62
4, 104000, Note_on_c, 0, 53, 0
4, 104000, Note_on_c, 0, 45, 0
4, 104000, Note_on_c, 0, 57, 62
4, 104160, Note_on_c, 0, 57, 0
4, 104160, Control_c, 0, 64, 0
4, 104160, Note_on_c, 0, 45, 62
4, 104160, Note_on_c, 0, 50, 62
4, 104183, Note_on_c, 0, 50, 0
4, 104183, Note_on_c, 0, 45, 0
4, 104400, Note_on_c, 0, 48, 62
4, 104423, Note_on_c, 0, 48, 0
4, 104799, Control_c, 0, 64, 127
4, 104799, Note_on_c, 0, 48, 75
4, 104799, Note_on_c, 0, 57, 75
4, 104960, Note_on_c, 0, 57, 0
4, 104960, Note_on_c, 0, 48, 0
4, 104960, Note_on_c, 0, 60, 75
4, 105120, Note_on_c, 0, 60, 0
4, 105120, Control_c, 0, 64, 0
4, 105120, Note_on_c, 0, 48, 75
4, 105120, Note_on_c, 0, 53, 75
4, 105600, Note_on_c, 0, 53, 0
4, 105600, Note_on_c, 0, 48, 0
4, 105759, Control_c, 0, 64, 127
4, 105759, Note_on_c, 0, 48, 75
4, 105759, Note_on_c, 0, 57, 75
4, 105920, Note_on_c, 0, 57, 0
4, 105920, Note_on_c, 0, 48, 0
4, 105920, Note_on_c, 0, 60, 75
4, 106080, Note_on_c, 0, 60, 0
4, 106080, Control_c, 0, 64, 0
4, 106080, Note_on_c, 0, 48, 75
4, 106080, Note_on_c, 0, 53, 75
4, 106560, Note_on_c, 0, 53, 0
4, 106560, Note_on_c, 0, 48, 0
4, 106719, Control_c, 0, 64, 127
4, 106719, Note_on_c, 0, 50, 75
4, 106719, Note_on_c, 0, 58, 75
4, 106880, Note_on_c, 0, 58, 0
4, 106880, Note_on_c, 0, 50, 0
4, 106880, Note_on_c, 0, 62, 75
4, 107040, Note_on_c, 0, 62, 0
4, 107040, Control_c, 0, 64, 0
4, 107040, Note_on_c, 0, 50, 75
4, 107040, Note_on_c, 0, 53, 75
4, 107520, Note_on_c, 0, 53, 0
4, 107520, Note_on_c, 0, 50, 0
4, 107679, Control_c, 0, 64, 127
4, 107679, Note_on_c, 0, 48, 75
4, 107679, Note_on_c, 0, 57, 75
4, 107840, Note_on_c, 0, 57, 0
4, 107840, Note_on_c, 0, 48, 0
4, 107840, Note_on_c, 0, 60, 75
4, 108000, Note_on_c, 0, 60, 0
4, 108000, Control_c, 0, 64, 0
4, 108000, Note_on_c, 0, 48, 75
4, 108000, Note_on_c, 0, 53, 75
4, 108480, Note_on_c, 0, 53, 0
4, 108480, Note_on_c, 0, 48, 0
4, 108639, Control_c, 0, 64, 127
4, 108639, Note_on_c, 0, 48, 75
4, 108639, Note_on_c, 0, 55, 75
4, 108800, Note_on_c, 0, 55, 0
4, 108800, Note_on_c, 0, 48, 0
4, 108800, Note_on_c, 0, 60, 75
4, 108960, Note_on_c, 0, 60, 0
4, 108960, Control_c, 0, 64, 0
4, 108960, Note_on_c, 0, 48, 75
4, 108960, Note_on_c, 0, 52, 75
4, 109440, Note_on_c, 0, 52, 0
4, 109440, Note_on_c, 0, 48, 0
4, 109599, Control_c, 0, 64, 127
4, 109599, Note_on_c, 0, 48, 75
4, 109599, Note_on_c, 0, 57, 75
4, 109760, Note_on_c, 0, 57, 0
4, 109760, Note_on_c, 0, 48, 0
4, 109760, Note_on_c, 0, 60, 75
4, 109920, Note_on_c, 0, 60, 0
4, 109920, Control_c, 0, 64, 0
4, 109920, Note_on_c, 0, 48, 75
4, 109920, Note_on_c, 0, 53, 75
4, 110400, Note_on_c, 0, 53, 0
4, 110400, Note_on_c, 0, 48, 0
4, 110559, Control_c, 0, 64, 127
4, 110559, Note_on_c, 0, 48, 75
4, 110559, Note_on_c, 0, 57, 75
4, 110720, Note_on_c, 0, 57, 0
4, 110720, Note_on_c, 0, 48, 0
4, 110720, Note_on_c, 0, 60, 75
4, 110880, Note_on_c, 0, 60, 0
4, 110880, Control_c, 0, 64, 0
4, 110880, Note_on_c, 0, 48, 75
4, 110880, Note_on_c, 0, 53, 75
4, 111360, Note_on_c, 0, 53, 0
4, 111360, Note_on_c, 0, 48, 0
4, 111519, Control_c, 0, 64, 127
4, 111519, Note_on_c, 0, 48, 75
4, 111519, Note_on_c, 0, 57, 75
4, 111680, Note_on_c, 0, 57, 0
4, 111680, Note_on_c, 0, 48, 0
4, 111680, Note_on_c, 0, 60, 75
4, 111840, Note_on_c, 0, 60, 0
4, 111840, Control_c, 0, 64, 0
4, 111840, Note_on_c, 0, 48, 75
4, 111840, Note_on_c, 0, 53, 75
4, 112320, Note_on_c, 0, 53, 0
4, 112320, Note_on_c, 0, 48, 0
4, 112479, Control_c, 0, 64, 127
4, 112479, Note_on_c, 0, 50, 75
4, 112479, Note_on_c, 0, 58, 75
4, 112640, Note_on_c, 0, 58, 0
4, 112640, Note_on_c, 0, 50, 0
4, 112640, Note_on_c, 0, 62, 75
4, 112800, Note_on_c, 0, 62, 0
4, 112800, Control_c, 0, 64, 0
4, 112800, Note_on_c, 0, 50, 75
4, 112800, Note_on_c, 0, 53, 75
4, 113280, Note_on_c, 0, 53, 0
4, 113280, Note_on_c, 0, 50, 0
4, 113439, Control_c, 0, 64, 127
4, 113439, Note_on_c, 0, 48, 75
4, 113439, Note_on_c, 0, 57, 75
4, 113600, Note_on_c, 0, 57, 0
4, 113600, Note_on_c, 0, 48, 0
4, 113600, Note_on_c, 0, 60, 75
4, 113760, Note_on_c, 0, 60, 0
4, 113760, Control_c, 0, 64, 0
4, 113760, Note_on_c, 0, 48, 75
4, 113760, Note_on_c, 0, 53, 75
4, 114240, Note_on_c, 0, 53, 0
4, 114240, Note_on_c, 0, 48, 0
4, 114399, Control_c, 0, 64, 127
4, 114399, Note_on_c, 0, 48, 75
4, 114399, Note_on_c, 0, 55, 75
4, 114560, Note_on_c, 0, 55, 0
4, 114560, Note_on_c, 0, 48, 0
4, 114560, Note_on_c, 0, 60, 75
4, 114720, Note_on_c, 0, 60, 0
4, 114720, Control_c, 0, 64, 0
4, 114720, Note_on_c, 0, 48, 75
4, 114720, Note_on_c, 0, 52, 75
4, 115200, Note_on_c, 0, 52, 0
4, 115200, Note_on_c, 0, 48, 0
4, 115359, Control_c, 0, 64, 127
4, 115359, Note_on_c, 0, 48, 75
4, 115359, Note_on_c, 0, 57, 75
4, 115520, Note_on_c, 0, 57, 0
4, 115520, Note_on_c, 0, 48, 0
4, 115520, Note_on_c, 0, 60, 75
4, 115680, Note_on_c, 0, 60, 0
4, 115680, Control_c, 0, 64, 0
4, 115680, Note_on_c, 0, 48, 75
4, 115680, Note_on_c, 0, 53, 75
4, 116160, Note_on_c, 0, 53, 0
4, 116160, Note_on_c, 0, 48, 0
4, 116319, Control_c, 0, 64, 127
4, 116319, Note_on_c, 0, 53, 88
4, 116319, Note_on_c, 0, 62, 88
4, 116480, Note_on_c, 0, 62, 0
4, 116480, Note_on_c, 0, 53, 0
4, 116480, Note_on_c, 0, 65, 88
4, 116640, Note_on_c, 0, 65, 0
4, 116640, Control_c, 0, 64, 0
4, 116640, Note_on_c, 0, 53, 88
4, 116640, Note_on_c, 0, 58, 88
4, 117120, Note_on_c, 0, 58, 0
4, 117120, Note_on_c, 0, 53, 0
4, 117279, Control_c, 0, 64, 127
4, 117279, Note_on_c, 0, 48, 88
4, 117279, Note_on_c, 0, 57, 88
4, 117440, Note_on_c, 0, 57, 0
4, 117440, Note_on_c, 0, 48, 0
4, 117440, Note_on_c, 0, 60, 88
4, 117600, Note_on_c, 0, 60, 0
4, 117600, Control_c, 0, 64, 0
4, 117600, Note_on_c, 0, 48, 88
4, 117600, Note_on_c, 0, 52, 88
4, 118080, Note_on_c, 0, 52, 0
4, 118080, Note_on_c, 0, 48, 0
4, 118239, Control_c, 0, 64, 127
4, 118239, Note_on_c, 0, 48, 88
4, 118239, Note_on_c, 0, 57, 88
4, 118400, Note_on_c, 0, 57, 0
4, 118400, Note_on_c, 0, 48, 0
4, 118400, Note_on_c, 0, 60, 88
4, 118560, Note_on_c, 0, 60, 0
4, 118560, Control_c, 0, 64, 0
4, 118560, Note_on_c, 0, 48, 88
4, 118560, Note_on_c, 0, 53, 88
4, 119040, Note_on_c, 0, 53, 0
4, 119040, Note_on_c, 0, 48, 0
4, 119199, Control_c, 0, 64, 127
4, 119199, Note_on_c, 0, 45, 88
4, 119199, Note_on_c, 0, 49, 88
4, 119360, Note_on_c, 0, 49, 0
4, 119360, Note_on_c, 0, 45, 0
4, 119360, Note_on_c, 0, 57, 88
4, 119520, Note_on_c, 0, 57, 0
4, 119520, Control_c, 0, 64, 0
4, 119520, Note_on_c, 0, 45, 88
4, 119520, Note_on_c, 0, 50, 88
4, 120000, Note_on_c, 0, 50, 0
4, 120000, Note_on_c, 0, 45, 0
4, 120159, Control_c, 0, 64, 127
4, 120159, Note_on_c, 0, 45, 88
4, 120159, Note_on_c, 0, 52, 88
4, 120320, Note_on_c, 0, 52, 0
4, 120320, Note_on_c, 0, 45, 0
4, 120320, Note_on_c, 0, 57, 88
4, 120480, Note_on_c, 0, 57, 0
4, 120480, Control_c, 0, 64, 0
4, 120480, Note_on_c, 0, 45, 88
4, 120480, Note_on_c, 0, 49, 88
4, 120960, Note_on_c, 0, 49, 0
4, 120960, Note_on_c, 0, 45, 0
4, 121119, Control_c, 0, 64, 127
4, 121119, Note_on_c, 0, 45, 88
4, 121119, Note_on_c, 0, 53, 88
4, 121280, Note_on_c, 0, 53, 0
4, 121280, Note_on_c, 0, 45, 0
4, 121280, Note_on_c, 0, 57, 88
4, 121440, Note_on_c, 0, 57, 0
4, 121440, Control_c, 0, 64, 0
4, 121440, Note_on_c, 0, 45, 88
4, 121440, Note_on_c, 0, 50, 88
4, 121920, Note_on_c, 0, 50, 0
4, 121920, Note_on_c, 0, 45, 0
4, 122079, Control_c, 0, 64, 127
4, 122079, Note_on_c, 0, 65, 75
4, 122079, Note_on_c, 0, 74, 75
4, 122240, Note_on_c, 0, 74, 0
4, 122240, Note_on_c, 0, 65, 0
4, 122240, Note_on_c, 0, 77, 75
4, 122400, Note_on_c, 0, 77, 0
4, 122400, Control_c, 0, 64, 0
4, 122400, Note_on_c, 0, 65, 75
4, 122400, Note_on_c, 0, 70, 75
4, 122880, Note_on_c, 0, 70, 0
4, 122880, Note_on_c, 0, 65, 0
4, 123039, Control_c, 0, 64, 127
4, 123039, Note_on_c, 0, 60, 75
4, 123039, Note_on_c, 0, 69, 75
4, 123200, Note_on_c, 0, 69, 0
4, 123200, Note_on_c, 0, 60, 0
4, 123200, Note_on_c, 0, 72, 75
4, 123360, Note_on_c, 0, 72, 0
4, 123360, Control_c, 0, 64, 0
4, 123360, Note_on_c, 0, 60, 75
4, 123360, Note_on_c, 0, 64, 75
4, 123840, Note_on_c, 0, 64, 0
4, 123840, Note_on_c, 0, 60, 0
4, 123999, Control_c, 0, 64, 127
4, 123999, Note_on_c, 0, 60, 62
4, 123999, Note_on_c, 0, 69, 62
4, 124160, Note_on_c, 0, 69, 0
4, 124160, Note_on_c, 0, 60, 0
4, 124160, Note_on_c, 0, 72, 62
4, 124320, Note_on_c, 0, 72, 0
4, 124320, Control_c, 0, 64, 0
4, 124320, Note_on_c, 0, 60, 62
4, 124320, Note_on_c, 0, 65, 62
4, 124800, Note_on_c, 0, 65, 0
4, 124800, Note_on_c, 0, 60, 0
4, 124959, Control_c, 0, 64, 127
4, 124959, Note_on_c, 0, 57, 62
4, 124959, Note_on_c, 0, 61, 62
4, 125120, Note_on_c, 0, 61, 0
4, 125120, Note_on_c, 0, 57, 0
4, 125120, Note_on_c, 0, 69, 62
4, 125280, Note_on_c, 0, 69, 0
4, 125280, Control_c, 0, 64, 0
4, 125280, Note_on_c, 0, 57, 62
4, 125280, Note_on_c, 0, 62, 62
4, 125760, Note_on_c, 0, 62, 0
4, 125760, Note_on_c, 0, 57, 0
4, 125919, Control_c, 0, 64, 127
4, 125919, Note_on_c, 0, 57, 49
4, 125919, Note_on_c, 0, 64, 49
4, 126080, Note_on_c, 0, 64, 0
4, 126080, Note_on_c, 0, 57, 0
4, 126080, Note_on_c, 0, 69, 49
4, 126240, Note_on_c, 0, 69, 0
4, 126240, Control_c, 0, 64, 0
4, 126240, Note_on_c, 0, 57, 49
4, 126240, Note_on_c, 0, 61, 49
4, 126720, Note_on_c, 0, 61, 0
4, 126720, Note_on_c, 0, 57, 0
4, 126879, Note_on_c, 0, 57, 49
4, 126879, Note_on_c, 0, 65, 49
4, 127040, Note_on_c, 0, 65, 0
4, 127040, Note_on_c, 0, 57, 0
4, 127040, Note_on_c, 0, 69, 49
4, 127200, Note_on_c, 0, 69, 0
4, 127200, Note_on_c, 0, 57, 49
4, 127200, Note_on_c, 0, 62, 49
4, 127440, Note_on_c, 0, 62, 0
4, 127440, Note_on_c, 0, 57, 0
4, 127440, Note_on_c, 0, 60, 49
4, 127680, Note_on_c, 0, 60, 0
4, 127839, Note_on_c, 0, 60, 49
4, 127839, Note_on_c, 0, 69, 49
4, 128000, Note_on_c, 0, 69, 0
4, 128000, Note_on_c, 0, 60, 0
4, 128000, Note_on_c, 0, 72, 49
4, 128160, Note_on_c, 0, 72, 0
4, 128160, Note_on_c, 0, 60, 49
4, 128160, Note_on_c, 0, 65, 49
4, 128640, Note_on_c, 0, 65, 0
4, 128640, Note_on_c, 0, 60, 0
4, 128799, Note_on_c, 0, 48, 49
4, 128799, Note_on_c, 0, 57, 49
4, 128960, Note_on_c, 0, 57, 0
4, 128960, Note_on_c, 0, 48, 0
4, 128960, Note_on_c, 0, 60, 49
4, 129120, Note_on_c, 0, 60, 0
4, 129120, Note_on_c, 0, 48, 49
4, 129120, Note_on_c, 0, 53, 49
4, 129600, Note_on_c, 0, 53, 0
4, 129600, Note_on_c, 0, 48, 0
4, 129840, Note_on_c, 0, 48, 49
4, 129840, Note_on_c, 0, 57, 49
4, 129840, Note_on_c, 0, 60, 49
4, 130080, Note_on_c, 0, 60, 0
4, 130080, Note_on_c, 0, 57, 0
4, 130080, Note_on_c, 0, 53, 49
4, 130560, Note_on_c, 0, 53, 0
4, 130560, Note_on_c, 0, 48, 0
4, 130800, Note_on_c, 0, 57, 49
4, 131040, Note_on_c, 0, 57, 0
4, 131040, Note_on_c, 0, 48, 49
4, 132000, Note_on_c, 0, 48, 0
4, 132000, Note_on_c, 0, 48, 49
4, 132960, Note_on_c, 0, 48, 0
4, 132960, Note_on_c, 0, 48, 49
4, 133680, Note_on_c, 0, 48, 0
4, 135600, Control_c, 0, 64, 127
4, 135600, Note_on_c, 0, 60, 88
4, 135780, Note_on_c, 0, 63, 88
4, 135840, Note_on_c, 0, 63, 0
4, 135840, Note_on_c, 0, 60, 0
4, 135840, Note_on_c, 0, 61, 88
4, 136080, Note_on_c, 0, 61, 0
4, 136080, Control_c, 0, 64, 0
4, 136080, Note_on_c, 0, 60, 88
4, 136320, Note_on_c, 0, 60, 0
4, 136320, Note_on_c, 0, 65, 114
4, 136320, Note_on_c, 0, 68, 114
4, 137520, Note_on_c, 0, 68, 0
4, 137520, Note_on_c, 0, 65, 0
4, 137520, Control_c, 0, 64, 127
4, 137520, Note_on_c, 0, 56, 88
4, 137520, Note_on_c, 0, 60, 88
4, 137700, Note_on_c, 0, 63, 88
4, 137760, Note_on_c, 0, 63, 0
4, 137760, Note_on_c, 0, 60, 0
4, 137760, Note_on_c, 0, 56, 0
4, 137760, Note_on_c, 0, 58, 88
4, 137760, Note_on_c, 0, 61, 88
4, 138000, Note_on_c, 0, 61, 0
4, 138000, Note_on_c, 0, 58, 0
4, 138000, Control_c, 0, 64, 0
4, 138000, Note_on_c, 0, 56, 88
4, 138000, Note_on_c, 0, 60, 88
4, 138240, Note_on_c, 0, 60, 0
4, 138240, Note_on_c, 0, 56, 0
4, 138240, Note_on_c, 0, 55, 88
4, 138240, Note_on_c, 0, 58, 88
4, 139440, Note_on_c, 0, 58, 0
4, 139440, Note_on_c, 0, 55, 0
4, 139440, Control_c, 0, 64, 127
4, 139440, Note_on_c, 0, 55, 88
4, 139440, Note_on_c, 0, 58, 88
4, 139620, Note_on_c, 0, 61, 88
4, 139680, Note_on_c, 0, 61, 0
4, 139680, Note_on_c, 0, 58, 0
4, 139680, Note_on_c, 0, 55, 0
4, 139680, Note_on_c, 0, 56, 88
4, 139680, Note_on_c, 0, 60, 88
4, 139920, Note_on_c, 0, 60, 0
4, 139920, Note_on_c, 0, 56, 0
4, 139920, Control_c, 0, 64, 0
4, 139920, Note_on_c, 0, 55, 88
4, 139920, Note_on_c, 0, 58, 88
4, 140160, Note_on_c, 0, 58, 0
4, 140160, Note_on_c, 0, 55, 0
4, 140160, Note_on_c, 0, 64, 114
4, 140160, Note_on_c, 0, 67, 114
4, 141360, Note_on_c, 0, 67, 0
4, 141360, Note_on_c, 0, 64, 0
4, 141360, Control_c, 0, 64, 127
4, 141360, Note_on_c, 0, 55, 88
4, 141360, Note_on_c, 0, 58, 88
4, 141600, Note_on_c, 0, 58, 0
4, 141600, Note_on_c, 0, 55, 0
4, 141600, Note_on_c, 0, 56, 88
4, 141600, Note_on_c, 0, 60, 88
4, 141840, Note_on_c, 0, 60, 0
4, 141840, Note_on_c, 0, 56, 0
4, 141840, Control_c, 0, 64, 0
4, 141840, Note_on_c, 0, 55, 88
4, 141840, Note_on_c, 0, 58, 88
4, 142080, Note_on_c, 0, 58, 0
4, 142080, Note_on_c, 0, 55, 0
4, 142080, Note_on_c, 0, 56, 88
4, 143280, Note_on_c, 0, 56, 0
4, 143280, Control_c, 0, 64, 127
4, 143280, Note_on_c, 0, 56, 88
4, 143520, Note_on_c, 0, 56, 0
4, 143520, Note_on_c, 0, 55, 101
4, 143760, Note_on_c, 0, 55, 0
4, 143760, Control_c, 0, 64, 0
4, 143760, Note_on_c, 0, 53, 114
4, 144000, Note_on_c, 0, 53, 0
4, 144000, Note_on_c, 0, 56, 101
4, 144000, Note_on_c, 0, 60, 101
4, 145200, Note_on_c, 0, 60, 0
4, 145200, Note_on_c, 0, 56, 0
4, 145200, Control_c, 0, 64, 127
4, 145200, Note_on_c, 0, 56, 88
4, 145440, Note_on_c, 0, 56, 0
4, 145440, Note_on_c, 0, 55, 101
4, 145680, Note_on_c, 0, 55, 0
4, 145680, Control_c, 0, 64, 0
4, 145680, Note_on_c, 0, 53, 114
4, 145920, Note_on_c, 0, 53, 0
4, 145920, Note_on_c, 0, 58, 101
4, 145920, Note_on_c, 0, 61, 101
4, 147120, Note_on_c, 0, 61, 0
4, 147120, Note_on_c, 0, 58, 0
4, 147120, Control_c, 0, 64, 127
4, 147120, Note_on_c, 0, 58, 75
4, 147120, Note_on_c, 0, 61, 75
4, 147360, Note_on_c, 0, 61, 0
4, 147360, Note_on_c, 0, 58, 0
4, 147360, Note_on_c, 0, 56, 75
4, 147360, Note_on_c, 0, 60, 75
4, 147600, Note_on_c, 0, 60, 0
4, 147600, Note_on_c, 0, 56, 0
4, 147600, Control_c, 0, 64, 0
4, 147600, Note_on_c, 0, 55, 75
4, 147600, Note_on_c, 0, 58, 75
4, 147840, Note_on_c, 0, 58, 0
4, 147840, Note_on_c, 0, 55, 0
4, 147840, Note_on_c, 0, 53, 75
4, 147840, Note_on_c, 0, 56, 75
4, 148260, Note_on_c, 0, 59, 75
4, 148320, Note_on_c, 0, 59, 0
4, 148320, Note_on_c, 0, 56, 0
4, 148320, Note_on_c, 0, 53, 0
4, 148320, Note_on_c, 0, 53, 75
4, 148320, Note_on_c, 0, 56, 75
4, 148320, Note_on_c, 0, 60, 75
4, 148800, Note_on_c, 0, 60, 0
4, 148800, Note_on_c, 0, 56, 0
4, 148800, Note_on_c, 0, 53, 0
4, 148800, Note_on_c, 0, 52, 75
4, 148800, Note_on_c, 0, 55, 75
4, 149220, Note_on_c, 0, 59, 75
4, 149280, Note_on_c, 0, 59, 0
4, 149280, Note_on_c, 0, 55, 0
4, 149280, Note_on_c, 0, 52, 0
4, 149280, Note_on_c, 0, 52, 75
4, 149280, Note_on_c, 0, 55, 75
4, 149280, Note_on_c, 0, 60, 75
4, 149760, Note_on_c, 0, 60, 0
4, 149760, Note_on_c, 0, 55, 0
4, 149760, Note_on_c, 0, 52, 0
4, 149760, Note_on_c, 0, 48, 75
4, 149820, Note_on_c, 0, 48, 0
4, 149820, Note_on_c, 0, 44, 75
4, 149880, Note_on_c, 0, 44, 0
4, 149880, Note_on_c, 0, 48, 75
4, 149940, Note_on_c, 0, 48, 0
4, 149940, Note_on_c, 0, 44, 75
4, 150000, Note_on_c, 0, 44, 0
4, 150000, Note_on_c, 0, 48, 75
4, 150060, Note_on_c, 0, 48, 0
4, 150060, Note_on_c, 0, 44, 75
4, 150120, Note_on_c, 0, 44, 0
4, 150120, Note_on_c, 0, 48, 75
4, 150180, Note_on_c, 0, 48, 0
4, 150180, Note_on_c, 0, 44, 75
4, 150240, Note_on_c, 0, 44, 0
4, 150240, Note_on_c, 0, 48, 75
4, 150300, Note_on_c, 0, 48, 0
4, 150300, Note_on_c, 0, 44, 75
4, 150360, Note_on_c, 0, 44, 0
4, 150360, Note_on_c, 0, 48, 75
4, 150420, Note_on_c, 0, 48, 0
4, 150420, Note_on_c, 0, 44, 75
4, 150480, Note_on_c, 0, 44, 0
4, 150480, Note_on_c, 0, 48, 75
4, 150540, Note_on_c, 0, 48, 0
4, 150540, Note_on_c, 0, 44, 75
4, 150600, Note_on_c, 0, 44, 0
4, 150600, Note_on_c, 0, 48, 75
4, 150660, Note_on_c, 0, 48, 0
4, 150660, Note_on_c, 0, 44, 75
4, 150720, Note_on_c, 0, 44, 0
4, 150720, Note_on_c, 0, 48, 75
4, 150960, Note_on_c, 0, 48, 0
4, 150960, Control_c, 0, 64, 127
4, 150960, Note_on_c, 0, 68, 101
4, 150960, Note_on_c, 0, 72, 101
4, 151140, Note_on_c, 0, 75, 75
4, 151200, Note_on_c, 0, 75, 0
4, 151200, Note_on_c, 0, 72, 0
4, 151200, Note_on_c, 0, 68, 0
4, 151200, Note_on_c, 0, 70, 101
4, 151200, Note_on_c, 0, 73, 101
4, 151440, Note_on_c, 0, 73, 0
4, 151440, Note_on_c, 0, 70, 0
4, 151440, Control_c, 0, 64, 0
4, 151440, Note_on_c, 0, 68, 101
4, 151440, Note_on_c, 0, 72, 101
4, 151680, Note_on_c, 0, 72, 0
4, 151680, Note_on_c, 0, 68, 0
4, 151680, Note_on_c, 0, 68, 101
4, 151680, Note_on_c, 0, 72, 101
4, 151680, Note_on_c, 0, 77, 101
4, 151680, Note_on_c, 0, 80, 101
4, 152880, Note_on_c, 0, 80, 0
4, 152880, Note_on_c, 0, 68, 0
4, 152880, Note_on_c, 0, 72, 0
4, 152880, Note_on_c, 0, 77, 0
4, 152880, Control_c, 0, 64, 127
4, 152880, Note_on_c, 0, 68, 75
4, 152880, Note_on_c, 0, 72, 75
4, 153060, Note_on_c, 0, 75, 75
4, 153120, Note_on_c, 0, 75, 0
4, 153120, Note_on_c, 0, 72, 0
4, 153120, Note_on_c, 0, 68, 0
4, 153120, Note_on_c, 0, 70, 75
4, 153120, Note_on_c, 0, 73, 75
4, 153360, Note_on_c, 0, 73, 0
4, 153360, Note_on_c, 0, 70, 0
4, 153360, Control_c, 0, 64, 0
4, 153360, Note_on_c, 0, 68, 75
4, 153360, Note_on_c, 0, 72, 75
4, 153510, Note_on_c, 0, 67, 101
4, 153540, Note_on_c, 0, 70, 101
4, 153570, Note_on_c, 0, 73, 101
4, 153600, Note_on_c, 0, 72, 0
4, 153600, Note_on_c, 0, 68, 0
4, 153600, Note_on_c, 0, 77, 101
4, 153623, Note_on_c, 0, 77, 0
4, 153623, Note_on_c, 0, 73, 0
4, 153623, Note_on_c, 0, 67, 0
4, 153623, Note_on_c, 0, 70, 0
4, 153840, Note_on_c, 0, 75, 88
4, 153863, Note_on_c, 0, 75, 0
4, 154080, Note_on_c, 0, 73, 88
4, 154103, Note_on_c, 0, 73, 0
4, 154320, Note_on_c, 0, 70, 88
4, 154343, Note_on_c, 0, 70, 0
4, 154560, Note_on_c, 0, 65, 88
4, 154583, Note_on_c, 0, 65, 0
4, 154800, Note_on_c, 0, 61, 88
4, 154823, Note_on_c, 0, 61, 0
4, 155040, Note_on_c, 0, 58, 88
4, 155063, Note_on_c, 0, 58, 0
4, 155280, Note_on_c, 0, 55, 88
4, 155303, Note_on_c, 0, 55, 0
4, 155520, Note_on_c, 0, 53, 88
4, 155543, Note_on_c, 0, 53, 0
4, 155760, Note_on_c, 0, 52, 88
4, 155783, Note_on_c, 0, 52, 0
4, 156000, Note_on_c, 0, 55, 88
4, 156023, Note_on_c, 0, 55, 0
4, 156240, Note_on_c, 0, 58, 88
4, 156263, Note_on_c, 0, 58, 0
4, 156480, Note_on_c, 0, 61, 88
4, 156503, Note_on_c, 0, 61, 0
4, 156720, Note_on_c, 0, 55, 88
4, 156743, Note_on_c, 0, 55, 0
4, 156960, Note_on_c, 0, 58, 88
4, 156983, Note_on_c, 0, 58, 0
4, 157200, Note_on_c, 0, 64, 88
4, 157223, Note_on_c, 0, 64, 0
4, 157360, Note_on_c, 0, 56, 88
4, 157400, Note_on_c, 0, 60, 88
4, 157440, Note_on_c, 0, 67, 88
4, 157463, Note_on_c, 0, 67, 0
4, 157463, Note_on_c, 0, 60, 0
4, 157463, Note_on_c, 0, 56, 0
4, 157680, Note_on_c, 0, 65, 88
4, 157703, Note_on_c, 0, 65, 0
4, 157920, Note_on_c, 0, 60, 88
4, 157943, Note_on_c, 0, 60, 0
4, 158160, Note_on_c, 0, 56, 88
4, 158183, Note_on_c, 0, 56, 0
4, 158400, Note_on_c, 0, 55, 88
4, 158423, Note_on_c, 0, 55, 0
4, 158640, Note_on_c, 0, 53, 88
4, 158663, Note_on_c, 0, 53, 0
4, 158880, Note_on_c, 0, 60, 88
4, 158903, Note_on_c, 0, 60, 0
4, 159120, Note_on_c, 0, 56, 88
4, 159143, Note_on_c, 0, 56, 0
4, 159360, Note_on_c, 0, 55, 88
4, 159383, Note_on_c, 0, 55, 0
4, 159600, Note_on_c, 0, 53, 88
4, 159623, Note_on_c, 0, 53, 0
4, 159840, Note_on_c, 0, 56, 88
4, 159863, Note_on_c, 0, 56, 0
4, 160080, Note_on_c, 0, 60, 88
4, 160103, Note_on_c, 0, 60, 0
4, 160320, Note_on_c, 0, 65, 88
4, 160343, Note_on_c, 0, 65, 0
4, 160560, Note_on_c, 0, 60, 88
4, 160583, Note_on_c, 0, 60, 0
4, 160800, Note_on_c, 0, 58, 88
4, 160823, Note_on_c, 0, 58, 0
4, 161040, Note_on_c, 0, 56, 88
4, 161063, Note_on_c, 0, 56, 0
4, 161280, Note_on_c, 0, 56, 88
4, 161303, Note_on_c, 0, 56, 0
4, 161520, Note_on_c, 0, 55, 88
4, 161543, Note_on_c, 0, 55, 0
4, 161760, Note_on_c, 0, 58, 88
4, 161783, Note_on_c, 0, 58, 0
4, 162000, Note_on_c, 0, 61, 88
4, 162023, Note_on_c, 0, 61, 0
4, 162240, Note_on_c, 0, 67, 88
4, 162263, Note_on_c, 0, 67, 0
4, 162480, Note_on_c, 0, 65, 88
4, 162503, Note_on_c, 0, 65, 0
4, 162720, Note_on_c, 0, 63, 88
4, 162743, Note_on_c, 0, 63, 0
4, 162960, Note_on_c, 0, 61, 88
4, 162983, Note_on_c, 0, 61, 0
4, 163200, Note_on_c, 0, 60, 88
4, 163223, Note_on_c, 0, 60, 0
4, 163440, Note_on_c, 0, 60, 88
4, 163463, Note_on_c, 0, 60, 0
4, 163680, Note_on_c, 0, 56, 88
4, 163703, Note_on_c, 0, 56, 0
4, 163920, Note_on_c, 0, 53, 88
4, 163943, Note_on_c, 0, 53, 0
4, 164160, Note_on_c, 0, 52, 88
4, 164183, Note_on_c, 0, 52, 0
4, 164400, Note_on_c, 0, 48, 88
4, 164423, Note_on_c, 0, 48, 0
4, 164640, Note_on_c, 0, 46, 88
4, 164663, Note_on_c, 0, 46, 0
4, 164880, Note_on_c, 0, 43, 88
4, 164903, Note_on_c, 0, 43, 0
4, 165120, Note_on_c, 0, 44, 88
4, 165143, Note_on_c, 0, 44, 0
4, 165360, Note_on_c, 0, 48, 88
4, 165383, Note_on_c, 0, 48, 0
4, 165600, Note_on_c, 0, 53, 88
4, 165623, Note_on_c, 0, 53, 0
4, 165840, Note_on_c, 0, 56, 88
4, 165863, Note_on_c, 0, 56, 0
4, 166080, Note_on_c, 0, 60, 88
4, 166103, Note_on_c, 0, 60, 0
4, 166320, Note_on_c, 0, 56, 88
4, 166343, Note_on_c, 0, 56, 0
4, 166560, Note_on_c, 0, 53, 88
4, 166583, Note_on_c, 0, 53, 0
4, 166800, Note_on_c, 0, 48, 88
4, 166823, Note_on_c, 0, 48, 0
4, 167280, Note_on_c, 0, 51, 88
4, 167280, Note_on_c, 0, 55, 88
4, 167280, Note_on_c, 0, 58, 88
4, 167760, Note_on_c, 0, 58, 0
4, 167760, Note_on_c, 0, 55, 0
4, 167760, Note_on_c, 0, 51, 0
4, 167760, Note_on_c, 0, 51, 88
4, 167760, Note_on_c, 0, 55, 88
4, 167760, Note_on_c, 0, 58, 88
4, 168000, Note_on_c, 0, 58, 0
4, 168000, Note_on_c, 0, 55, 0
4, 168000, Note_on_c, 0, 51, 0
4, 168240, Note_on_c, 0, 51, 88
4, 168240, Note_on_c, 0, 56, 88
4, 168240, Note_on_c, 0, 63, 88
4, 168263, Note_on_c, 0, 63, 0
4, 168263, Note_on_c, 0, 56, 0
4, 168263, Note_on_c, 0, 51, 0
4, 168720, Note_on_c, 0, 51, 88
4, 168720, Note_on_c, 0, 55, 88
4, 168720, Note_on_c, 0, 58, 88
4, 168720, Note_on_c, 0, 63, 88
4, 168743, Note_on_c, 0, 63, 0
4, 168743, Note_on_c, 0, 51, 0
4, 168743, Note_on_c, 0, 55, 0
4, 168743, Note_on_c, 0, 58, 0
4, 169200, Note_on_c, 0, 51, 88
4, 169200, Note_on_c, 0, 56, 88
4, 169200, Note_on_c, 0, 60, 88
4, 169200, Note_on_c, 0, 63, 88
4, 169680, Note_on_c, 0, 63, 0
4, 169680, Note_on_c, 0, 51, 0
4, 169680, Note_on_c, 0, 56, 0
4, 169680, Note_on_c, 0, 60, 0
4, 169680, Note_on_c, 0, 51, 88
4, 169680, Note_on_c, 0, 56, 88
4, 169680, Note_on_c, 0, 60, 88
4, 169680, Note_on_c, 0, 63, 88
4, 169920, Note_on_c, 0, 63, 0
4, 169920, Note_on_c, 0, 51, 0
4, 169920, Note_on_c, 0, 56, 0
4, 169920, Note_on_c, 0, 60, 0
4, 170160, Note_on_c, 0, 51, 88
4, 170160, Note_on_c, 0, 56, 88
4, 170160, Note_on_c, 0, 60, 88
4, 170160, Note_on_c, 0, 63, 88
4, 170183, Note_on_c, 0, 63, 0
4, 170183, Note_on_c, 0, 51, 0
4, 170183, Note_on_c, 0, 56, 0
4, 170183, Note_on_c, 0, 60, 0
4, 170640, Note_on_c, 0, 51, 88
4, 170640, Note_on_c, 0, 56, 88
4, 170640, Note_on_c, 0, 60, 88
4, 170640, Note_on_c, 0, 63, 88
4, 170663, Note_on_c, 0, 63, 0
4, 170663, Note_on_c, 0, 51, 0
4, 170663, Note_on_c, 0, 56, 0
4, 170663, Note_on_c, 0, 60, 0
4, 171120, Note_on_c, 0, 53, 88
4, 171120, Note_on_c, 0, 57, 88
4, 171120, Note_on_c, 0, 60, 88
4, 171600, Note_on_c, 0, 60, 0
4, 171600, Note_on_c, 0, 57, 0
4, 171600, Note_on_c, 0, 53, 0
4, 171600, Note_on_c, 0, 53, 88
4, 171600, Note_on_c, 0, 57, 88
4, 171600, Note_on_c, 0, 60, 88
4, 171840, Note_on_c, 0, 60, 0
4, 171840, Note_on_c, 0, 57, 0
4, 171840, Note_on_c, 0, 53, 0
4, 172080, Note_on_c, 0, 53, 88
4, 172080, Note_on_c, 0, 58, 88
4, 172080, Note_on_c, 0, 61, 88
4, 172103, Note_on_c, 0, 61, 0
4, 172103, Note_on_c, 0, 58, 0
4, 172103, Note_on_c, 0, 53, 0
4, 172560, Note_on_c, 0, 51, 88
4, 172560, Note_on_c, 0, 53, 88
4, 172560, Note_on_c, 0, 60, 88
4, 172583, Note_on_c, 0, 60, 0
4, 172583, Note_on_c, 0, 53, 0
4, 172583, Note_on_c, 0, 51, 0
4, 173040, Note_on_c, 0, 49, 88
4, 173040, Note_on_c, 0, 53, 88
4, 173040, Note_on_c, 0, 58, 88
4, 173520, Note_on_c, 0, 58, 0
4, 173520, Note_on_c, 0, 53, 0
4, 173520, Note_on_c, 0, 49, 0
4, 173520, Note_on_c, 0, 53, 88
4, 173520, Note_on_c, 0, 58, 88
4, 173520, Note_on_c, 0, 61, 88
4, 173760, Note_on_c, 0, 61, 0
4, 173760, Note_on_c, 0, 58, 0
4, 173760, Note_on_c, 0, 53, 0
4, 174000, Note_on_c, 0, 53, 88
4, 174000, Note_on_c, 0, 58, 88
4, 174000, Note_on_c, 0, 61, 88
4, 174023, Note_on_c, 0, 61, 0
4, 174023, Note_on_c, 0, 58, 0
4, 174023, Note_on_c, 0, 53, 0
4, 174480, Note_on_c, 0, 53, 88
4, 174480, Note_on_c, 0, 58, 88
4, 174480, Note_on_c, 0, 61, 88
4, 174503, Note_on_c, 0, 61, 0
4, 174503, Note_on_c, 0, 58, 0
4, 174503, Note_on_c, 0, 53, 0
4, 174960, Note_on_c, 0, 51, 88
4, 174960, Note_on_c, 0, 55, 88
4, 174960, Note_on_c, 0, 58, 88
4, 174960, Note_on_c, 0, 63, 88
4, 175440, Note_on_c, 0, 63, 0
4, 175440, Note_on_c, 0, 51, 0
4, 175440, Note_on_c, 0, 55, 0
4, 175440, Note_on_c, 0, 58, 0
4, 175440, Note_on_c, 0, 51, 88
4, 175440, Note_on_c, 0, 55, 88
4, 175440, Note_on_c, 0, 58, 88
4, 175440, Note_on_c, 0, 63, 88
4, 175680, Note_on_c, 0, 63, 0
4, 175680, Note_on_c, 0, 51, 0
4, 175680, Note_on_c, 0, 55, 0
4, 175680, Note_on_c, 0, 58, 0
4, 175920, Note_on_c, 0, 51, 88
4, 175920, Note_on_c, 0, 56, 88
4, 175920, Note_on_c, 0, 63, 88
4, 175943, Note_on_c, 0, 63, 0
4, 175943, Note_on_c, 0, 56, 0
4, 175943, Note_on_c, 0, 51, 0
4, 176400, Note_on_c, 0, 51, 88
4, 176400, Note_on_c, 0, 58, 88
4, 176400, Note_on_c, 0, 63, 88
4, 176423, Note_on_c, 0, 63, 0
4, 176423, Note_on_c, 0, 58, 0
4, 176423, Note_on_c, 0, 51, 0
4, 176880, Note_on_c, 0, 51, 88
4, 176880, Note_on_c, 0, 56, 88
4, 176880, Note_on_c, 0, 60, 88
4, 176880, Note_on_c, 0, 63, 88
4, 177360, Note_on_c, 0, 63, 0
4, 177360, Note_on_c, 0, 51, 0
4, 177360, Note_on_c, 0, 56, 0
4, 177360, Note_on_c, 0, 60, 0
4, 177360, Note_on_c, 0, 51, 88
4, 177360, Note_on_c, 0, 56, 88
4, 177360, Note_on_c, 0, 60, 88
4, 177360, Note_on_c, 0, 63, 88
4, 177600, Note_on_c, 0, 63, 0
4, 177600, Note_on_c, 0, 51, 0
4, 177600, Note_on_c, 0, 56, 0
4, 177600, Note_on_c, 0, 60, 0
4, 177840, Note_on_c, 0, 51, 88
4, 177840, Note_on_c, 0, 56, 88
4, 177840, Note_on_c, 0, 63, 88
4, 177863, Note_on_c, 0, 63, 0
4, 177863, Note_on_c, 0, 56, 0
4, 177863, Note_on_c, 0, 51, 0
4, 178320, Note_on_c, 0, 51, 88
4, 178320, Note_on_c, 0, 56, 88
4, 178320, Note_on_c, 0, 60, 88
4, 178343, Note_on_c, 0, 60, 0
4, 178343, Note_on_c, 0, 56, 0
4, 178343, Note_on_c, 0, 51, 0
4, 178800, Note_on_c, 0, 49, 88
4, 178800, Note_on_c, 0, 53, 88
4, 178800, Note_on_c, 0, 58, 88
4, 179280, Note_on_c, 0, 58, 0
4, 179280, Note_on_c, 0, 53, 0
4, 179280, Note_on_c, 0, 49, 0
4, 179280, Note_on_c, 0, 49, 88
4, 179280, Note_on_c, 0, 53, 88
4, 179280, Note_on_c, 0, 58, 88
4, 179520, Note_on_c, 0, 58, 0
4, 179520, Note_on_c, 0, 53, 0
4, 179520, Note_on_c, 0, 49, 0
4, 179760, Note_on_c, 0, 48, 88
4, 179760, Note_on_c, 0, 53, 88
4, 179760, Note_on_c, 0, 56, 88
4, 179783, Note_on_c, 0, 56, 0
4, 179783, Note_on_c, 0, 53, 0
4, 179783, Note_on_c, 0, 48, 0
4, 180240, Note_on_c, 0, 48, 88
4, 180240, Note_on_c, 0, 52, 88
4, 180240, Note_on_c, 0, 55, 88
4, 180240, Note_on_c, 0, 58, 88
4, 180263, Note_on_c, 0, 58, 0
4, 180263, Note_on_c, 0, 48, 0
4, 180263, Note_on_c, 0, 52, 0
4, 180263, Note_on_c, 0, 55, 0
4, 180720, Note_on_c, 0, 48, 88
4, 180720, Note_on_c, 0, 53, 88
4, 180720, Note_on_c, 0, 56, 88
4, 181200, Note_on_c, 0, 56, 0
4, 181200, Note_on_c, 0, 53, 0
4, 181200, Note_on_c, 0, 48, 0
4, 181200, Note_on_c, 0, 48, 88
4, 181200, Note_on_c, 0, 53, 88
4, 181200, Note_on_c, 0, 56, 88
4, 181440, Note_on_c, 0, 56, 0
4, 181440, Note_on_c, 0, 53, 0
4, 181440, Note_on_c, 0, 48, 0
4, 181680, Note_on_c, 0, 48, 88
4, 181680, Note_on_c, 0, 53, 88
4, 181680, Note_on_c, 0, 60, 88
4, 181703, Note_on_c, 0, 60, 0
4, 181703, Note_on_c, 0, 53, 0
4, 181703, Note_on_c, 0, 48, 0
4, 182160, Note_on_c, 0, 48, 88
4, 182160, Note_on_c, 0, 53, 88
4, 182160, Note_on_c, 0, 56, 88
4, 182183, Note_on_c, 0, 56, 0
4, 182183, Note_on_c, 0, 53, 0
4, 182183, Note_on_c, 0, 48, 0
4, 182640, Note_on_c, 0, 51, 88
4, 182640, Note_on_c, 0, 55, 88
4, 182640, Note_on_c, 0, 58, 88
4, 183120, Note_on_c, 0, 58, 0
4, 183120, Note_on_c, 0, 55, 0
4, 183120, Note_on_c, 0, 51, 0
4, 183120, Note_on_c, 0, 51, 88
4, 183120, Note_on_c, 0, 55, 88
4, 183120, Note_on_c, 0, 58, 88
4, 183360, Note_on_c, 0, 58, 0
4, 183360, Note_on_c, 0, 55, 0
4, 183360, Note_on_c, 0, 51, 0
4, 183600, Note_on_c, 0, 51, 88
4, 183600, Note_on_c, 0, 56, 88
4, 183600, Note_on_c, 0, 63, 88
4, 183623, Note_on_c, 0, 63, 0
4, 183623, Note_on_c, 0, 56, 0
4, 183623, Note_on_c, 0, 51, 0
4, 184080, Note_on_c, 0, 51, 88
4, 184080, Note_on_c, 0, 55, 88
4, 184080, Note_on_c, 0, 58, 88
4, 184080, Note_on_c, 0, 63, 88
4, 184103, Note_on_c, 0, 63, 0
4, 184103, Note_on_c, 0, 51, 0
4, 184103, Note_on_c, 0, 55, 0
4, 184103, Note_on_c, 0, 58, 0
4, 184560, Note_on_c, 0, 51, 88
4, 184560, Note_on_c, 0, 56, 88
4, 184560, Note_on_c, 0, 60, 88
4, 184560, Note_on_c, 0, 63, 88
4, 185040, Note_on_c, 0, 63, 0
4, 185040, Note_on_c, 0, 51, 0
4, 185040, Note_on_c, 0, 56, 0
4, 185040, Note_on_c, 0, 60, 0
4, 185040, Note_on_c, 0, 51, 88
4, 185040, Note_on_c, 0, 56, 88
4, 185040, Note_on_c, 0, 60, 88
4, 185040, Note_on_c, 0, 63, 88
4, 185280, Note_on_c, 0, 63, 0
4, 185280, Note_on_c, 0, 51, 0
4, 185280, Note_on_c, 0, 56, 0
4, 185280, Note_on_c, 0, 60, 0
4, 185520, Note_on_c, 0, 51, 88
4, 185520, Note_on_c, 0, 56, 88
4, 185520, Note_on_c, 0, 60, 88
4, 185520, Note_on_c, 0, 63, 88
4, 185543, Note_on_c, 0, 63, 0
4, 185543, Note_on_c, 0, 51, 0
4, 185543, Note_on_c, 0, 56, 0
4, 185543, Note_on_c, 0, 60, 0
4, 186000, Note_on_c, 0, 51, 88
4, 186000, Note_on_c, 0, 56, 88
4, 186000, Note_on_c, 0, 60, 88
4, 186000, Note_on_c, 0, 63, 88
4, 186023, Note_on_c, 0, 63, 0
4, 186023, Note_on_c, 0, 51, 0
4, 186023, Note_on_c, 0, 56, 0
4, 186023, Note_on_c, 0, 60, 0
4, 186480, Note_on_c, 0, 53, 88
4, 186480, Note_on_c, 0, 57, 88
4, 186480, Note_on_c, 0, 60, 88
4, 186960, Note_on_c, 0, 60, 0
4, 186960, Note_on_c, 0, 57, 0
4, 186960, Note_on_c, 0, 53, 0
4, 186960, Note_on_c, 0, 53, 88
4, 186960, Note_on_c, 0, 57, 88
4, 186960, Note_on_c, 0, 60, 88
4, 187200, Note_on_c, 0, 60, 0
4, 187200, Note_on_c, 0, 57, 0
4, 187200, Note_on_c, 0, 53, 0
4, 187440, Note_on_c, 0, 53, 88
4, 187440, Note_on_c, 0, 58, 88
4, 187440, Note_on_c, 0, 61, 88
4, 187463, Note_on_c, 0, 61, 0
4, 187463, Note_on_c, 0, 58, 0
4, 187463, Note_on_c, 0, 53, 0
4, 187920, Note_on_c, 0, 51, 88
4, 187920, Note_on_c, 0, 53, 88
4, 187920, Note_on_c, 0, 60, 88
4, 187943, Note_on_c, 0, 60, 0
4, 187943, Note_on_c, 0, 53, 0
4, 187943, Note_on_c, 0, 51, 0
4, 188400, Note_on_c, 0, 49, 88
4, 188400, Note_on_c, 0, 53, 88
4, 188400, Note_on_c, 0, 58, 88
4, 188880, Note_on_c, 0, 58, 0
4, 188880, Note_on_c, 0, 53, 0
4, 188880, Note_on_c, 0, 49, 0
4, 188880, Note_on_c, 0, 53, 88
4, 188880, Note_on_c, 0, 58, 88
4, 188880, Note_on_c, 0, 61, 88
4, 189120, Note_on_c, 0, 61, 0
4, 189120, Note_on_c, 0, 58, 0
4, 189120, Note_on_c, 0, 53, 0
4, 189360, Note_on_c, 0, 53, 88
4, 189360, Note_on_c, 0, 58, 88
4, 189360, Note_on_c, 0, 61, 88
4, 189383, Note_on_c, 0, 61, 0
4, 189383, Note_on_c, 0, 58, 0
4, 189383, Note_on_c, 0, 53, 0
4, 189840, Note_on_c, 0, 53, 88
4, 189840, Note_on_c, 0, 58, 88
4, 189840, Note_on_c, 0, 61, 88
4, 189863, Note_on_c, 0, 61, 0
4, 189863, Note_on_c, 0, 58, 0
4, 189863, Note_on_c, 0, 53, 0
4, 190320, Note_on_c, 0, 51, 88
4, 190320, Note_on_c, 0, 55, 88
4, 190320, Note_on_c, 0, 58, 88
4, 190320, Note_on_c, 0, 63, 88
4, 190800, Note_on_c, 0, 63, 0
4, 190800, Note_on_c, 0, 51, 0
4, 190800, Note_on_c, 0, 55, 0
4, 190800, Note_on_c, 0, 58, 0
4, 190800, Note_on_c, 0, 51, 88
4, 190800, Note_on_c, 0, 55, 88
4, 190800, Note_on_c, 0, 58, 88
4, 190800, Note_on_c, 0, 63, 88
4, 191040, Note_on_c, 0, 63, 0
4, 191040, Note_on_c, 0, 51, 0
4, 191040, Note_on_c, 0, 55, 0
4, 191040, Note_on_c, 0, 58, 0
4, 191280, Note_on_c, 0, 51, 88
4, 191280, Note_on_c, 0, 56, 88
4, 191280, Note_on_c, 0, 63, 88
4, 191303, Note_on_c, 0, 63, 0
4, 191303, Note_on_c, 0, 56, 0
4, 191303, Note_on_c, 0, 51, 0
4, 191760, Note_on_c, 0, 51, 88
4, 191760, Note_on_c, 0, 58, 88
4, 191760, Note_on_c, 0, 63, 88
4, 191783, Note_on_c, 0, 63, 0
4, 191783, Note_on_c, 0, 58, 0
4, 191783, Note_on_c, 0, 51, 0
4, 192240, Note_on_c, 0, 51, 88
4, 192240, Note_on_c, 0, 56, 88
4, 192240, Note_on_c, 0, 60, 88
4, 192240, Note_on_c, 0, 63, 88
4, 192720, Note_on_c, 0, 63, 0
4, 192720, Note_on_c, 0, 51, 0
4, 192720, Note_on_c, 0, 56, 0
4, 192720, Note_on_c, 0, 60, 0
4, 192720, Note_on_c, 0, 51, 88
4, 192720, Note_on_c, 0, 56, 88
4, 192720, Note_on_c, 0, 60, 88
4, 192720, Note_on_c, 0, 63, 88
4, 192960, Note_on_c, 0, 63, 0
4, 192960, Note_on_c, 0, 51, 0
4, 192960, Note_on_c, 0, 56, 0
4, 192960, Note_on_c, 0, 60, 0
4, 193200, Note_on_c, 0, 51, 88
4, 193200, Note_on_c, 0, 56, 88
4, 193200, Note_on_c, 0, 63, 88
4, 193223, Note_on_c, 0, 63, 0
4, 193223, Note_on_c, 0, 56, 0
4, 193223, Note_on_c, 0, 51, 0
4, 193680, Note_on_c, 0, 51, 88
4, 193680, Note_on_c, 0, 56, 88
4, 193680, Note_on_c, 0, 60, 88
4, 193703, Note_on_c, 0, 60, 0
4, 193703, Note_on_c, 0, 56, 0
4, 193703, Note_on_c, 0, 51, 0
4, 194160, Note_on_c, 0, 49, 88
4, 194160, Note_on_c, 0, 53, 88
4, 194160, Note_on_c, 0, 58, 88
4, 194640, Note_on_c, 0, 58, 0
4, 194640, Note_on_c, 0, 53, 0
4, 194640, Note_on_c, 0, 49, 0
4, 194640, Note_on_c, 0, 49, 88
4, 194640, Note_on_c, 0, 53, 88
4, 194640, Note_on_c, 0, 58, 88
4, 194880, Note_on_c, 0, 58, 0
4, 194880, Note_on_c, 0, 53, 0
4, 194880, Note_on_c, 0, 49, 0
4, 195120, Note_on_c, 0, 48, 88
4, 195120, Note_on_c, 0, 53, 88
4, 195120, Note_on_c, 0, 56, 88
4, 195143, Note_on_c, 0, 56, 0
4, 195143, Note_on_c, 0, 53, 0
4, 195143, Note_on_c, 0, 48, 0
4, 195600, Note_on_c, 0, 48, 88
4, 195600, Note_on_c, 0, 52, 88
4, 195600, Note_on_c, 0, 55, 88
4, 195600, Note_on_c, 0, 58, 88
4, 195623, Note_on_c, 0, 58, 0
4, 195623, Note_on_c, 0, 48, 0
4, 195623, Note_on_c, 0, 52, 0
4, 195623, Note_on_c, 0, 55, 0
4, 196080, Note_on_c, 0, 48, 88
4, 196080, Note_on_c, 0, 53, 88
4, 196080, Note_on_c, 0, 56, 88
4, 196560, Note_on_c, 0, 56, 0
4, 196560, Note_on_c, 0, 53, 0
4, 196560, Note_on_c, 0, 48, 0
4, 196560, Note_on_c, 0, 48, 88
4, 196560, Note_on_c, 0, 53, 88
4, 196560, Note_on_c, 0, 56, 88
4, 196800, Note_on_c, 0, 56, 0
4, 196800, Note_on_c, 0, 53, 0
4, 196800, Note_on_c, 0, 48, 0
4, 197040, Note_on_c, 0, 48, 88
4, 197040, Note_on_c, 0, 53, 88
4, 197040, Note_on_c, 0, 60, 88
4, 197280, Note_on_c, 0, 60, 0
4, 197280, Note_on_c, 0, 53, 0
4, 197280, Note_on_c, 0, 48, 0
4, 199200, Control_c, 0, 64, 127
4, 199200, Note_on_c, 0, 56, 49
4, 199320, Note_on_c, 0, 56, 0
4, 199320, Note_on_c, 0, 53, 49
4, 199440, Note_on_c, 0, 53, 0
4, 199440, Note_on_c, 0, 56, 49
4, 199560, Note_on_c, 0, 56, 0
4, 199560, Note_on_c, 0, 53, 49
4, 199680, Note_on_c, 0, 53, 0
4, 199680, Note_on_c, 0, 56, 49
4, 199800, Note_on_c, 0, 56, 0
4, 199800, Note_on_c, 0, 53, 49
4, 199920, Note_on_c, 0, 53, 0
4, 199920, Note_on_c, 0, 56, 49
4, 200040, Note_on_c, 0, 56, 0
4, 200040, Control_c, 0, 64, 0
4, 200040, Note_on_c, 0, 53, 49
4, 200160, Note_on_c, 0, 53, 0
4, 200160, Control_c, 0, 64, 127
4, 200160, Note_on_c, 0, 60, 62
4, 200280, Note_on_c, 0, 60, 0
4, 200280, Note_on_c, 0, 56, 62
4, 200400, Note_on_c, 0, 56, 0
4, 200400, Note_on_c, 0, 60, 62
4, 200520, Note_on_c, 0, 60, 0
4, 200520, Note_on_c, 0, 56, 62
4, 200640, Note_on_c, 0, 56, 0
4, 200640, Note_on_c, 0, 60, 62
4, 200760, Note_on_c, 0, 60, 0
4, 200760, Note_on_c, 0, 56, 62
4, 200880, Note_on_c, 0, 56, 0
4, 200880, Note_on_c, 0, 60, 62
4, 201000, Note_on_c, 0, 60, 0
4, 201000, Control_c, 0, 64, 0
4, 201000, Note_on_c, 0, 56, 62
4, 201120, Note_on_c, 0, 56, 0
4, 201120, Control_c, 0, 64, 127
4, 201120, Note_on_c, 0, 58, 75
4, 201240, Note_on_c, 0, 58, 0
4, 201240, Note_on_c, 0, 56, 75
4, 201360, Note_on_c, 0, 56, 0
4, 201360, Note_on_c, 0, 58, 75
4, 201480, Note_on_c, 0, 58, 0
4, 201480, Note_on_c, 0, 56, 75
4, 201600, Note_on_c, 0, 56, 0
4, 201600, Note_on_c, 0, 58, 75
4, 201720, Note_on_c, 0, 58, 0
4, 201720, Note_on_c, 0, 56, 75
4, 201840, Note_on_c, 0, 56, 0
4, 201840, Note_on_c, 0, 58, 75
4, 201960, Note_on_c, 0, 58, 0
4, 201960, Control_c, 0, 64, 0
4, 201960, Note_on_c, 0, 56, 75
4, 202080, Note_on_c, 0, 56, 0
4, 202080, Control_c, 0, 64, 127
4, 202080, Note_on_c, 0, 63, 62
4, 202200, Note_on_c, 0, 63, 0
4, 202200, Note_on_c, 0, 55, 62
4, 202320, Note_on_c, 0, 55, 0
4, 202320, Note_on_c, 0, 61, 62
4, 202440, Note_on_c, 0, 61, 0
4, 202440, Note_on_c, 0, 55, 62
4, 202560, Note_on_c, 0, 55, 0
4, 202560, Note_on_c, 0, 58, 62
4, 202680, Note_on_c, 0, 58, 0
4, 202680, Note_on_c, 0, 51, 62
4, 202800, Note_on_c, 0, 51, 0
4, 202800, Note_on_c, 0, 55, 62
4, 202920, Note_on_c, 0, 55, 0
4, 202920, Control_c, 0, 64, 0
4, 202920, Note_on_c, 0, 51, 62
4, 203040, Note_on_c, 0, 51, 0
4, 203040, Control_c, 0, 64, 127
4, 203040, Note_on_c, 0, 55, 62
4, 203160, Note_on_c, 0, 55, 0
4, 203160, Note_on_c, 0, 49, 62
4, 203280, Note_on_c, 0, 49, 0
4, 203280, Note_on_c, 0, 58, 62
4, 203400, Note_on_c, 0, 58, 0
4, 203400, Note_on_c, 0, 55, 62
4, 203520, Note_on_c, 0, 55, 0
4, 203520, Note_on_c, 0, 61, 62
4, 203640, Note_on_c, 0, 61, 0
4, 203640, Note_on_c, 0, 58, 62
4, 203760, Control_c, 0, 64, 0
4, 203760, Note_on_c, 0, 67, 62
4, 204240, Note_on_c, 0, 67, 0
4, 204240, Note_on_c, 0, 58, 0
4, 204240, Control_c, 0, 64, 127
4, 204240, Note_on_c, 0, 65, 62
4, 204360, Note_on_c, 0, 65, 0
4, 204360, Note_on_c, 0, 55, 62
4, 204480, Note_on_c, 0, 55, 0
4, 204480, Note_on_c, 0, 64, 62
4, 204600, Note_on_c, 0, 64, 0
4, 204600, Note_on_c, 0, 55, 62
4, 204720, Note_on_c, 0, 55, 0
4, 204720, Note_on_c, 0, 61, 62
4, 204840, Note_on_c, 0, 61, 0
4, 204840, Control_c, 0, 64, 0
4, 204840, Note_on_c, 0, 55, 62
4, 204960, Note_on_c, 0, 55, 0
4, 204960, Control_c, 0, 64, 127
4, 204960, Note_on_c, 0, 56, 62
4, 205080, Note_on_c, 0, 56, 0
4, 205080, Note_on_c, 0, 53, 62
4, 205200, Note_on_c, 0, 53, 0
4, 205200, Note_on_c, 0, 59, 62
4, 205320, Note_on_c, 0, 59, 0
4, 205320, Note_on_c, 0, 53, 62
4, 205440, Note_on_c, 0, 53, 0
4, 205440, Note_on_c, 0, 60, 75
4, 205560, Note_on_c, 0, 60, 0
4, 205560, Note_on_c, 0, 53, 75
4, 205680, Control_c, 0, 64, 0
4, 205680, Note_on_c, 0, 61, 75
4, 206160, Note_on_c, 0, 61, 0
4, 206160, Note_on_c, 0, 53, 0
4, 206160, Control_c, 0, 64, 127
4, 206160, Note_on_c, 0, 60, 75
4, 206280, Note_on_c, 0, 60, 0
4, 206280, Note_on_c, 0, 53, 75
4, 206400, Note_on_c, 0, 53, 0
4, 206400, Note_on_c, 0, 58, 62
4, 206520, Note_on_c, 0, 58, 0
4, 206520, Note_on_c, 0, 53, 62
4, 206640, Note_on_c, 0, 53, 0
4, 206640, Note_on_c, 0, 56, 62
4, 206760, Note_on_c, 0, 56, 0
4, 206760, Control_c, 0, 64, 0
4, 206760, Note_on_c, 0, 53, 62
4, 206880, Note_on_c, 0, 53, 0
4, 206880, Control_c, 0, 64, 127
4, 206880, Note_on_c, 0, 55, 62
4, 207000, Note_on_c, 0, 55, 0
4, 207000, Note_on_c, 0, 48, 62
4, 207120, Note_on_c, 0, 48, 0
4, 207120, Note_on_c, 0, 53, 62
4, 207240, Note_on_c, 0, 53, 0
4, 207240, Note_on_c, 0, 48, 62
4, 207360, Note_on_c, 0, 48, 0
4, 207360, Note_on_c, 0, 56, 62
4, 207480, Note_on_c, 0, 56, 0
4, 207480, Note_on_c, 0, 53, 62
4, 207600, Note_on_c, 0, 53, 0
4, 207600, Note_on_c, 0, 60, 62
4, 207720, Note_on_c, 0, 60, 0
4, 207720, Control_c, 0, 64, 0
4, 207720, Note_on_c, 0, 56, 62
4, 207840, Note_on_c, 0, 56, 0
4, 207840, Control_c, 0, 64, 127
4, 207840, Note_on_c, 0, 65, 75
4, 207960, Note_on_c, 0, 65, 0
4, 207960, Note_on_c, 0, 56, 75
4, 208080, Note_on_c, 0, 56, 0
4, 208080, Note_on_c, 0, 60, 75
4, 208200, Note_on_c, 0, 60, 0
4, 208200, Note_on_c, 0, 56, 75
4, 208320, Note_on_c, 0, 56, 0
4, 208320, Note_on_c, 0, 58, 75
4, 208440, Note_on_c, 0, 58, 0
4, 208440, Note_on_c, 0, 55, 75
4, 208560, Note_on_c, 0, 55, 0
4, 208560, Note_on_c, 0, 56, 75
4, 208680, Note_on_c, 0, 56, 0
4, 208680, Control_c, 0, 64, 0
4, 208680, Note_on_c, 0, 53, 75
4, 208800, Note_on_c, 0, 53, 0
4, 208800, Control_c, 0, 64, 127
4, 208800, Note_on_c, 0, 56, 75
4, 208920, Note_on_c, 0, 56, 0
4, 208920, Note_on_c, 0, 49, 75
4, 209040, Note_on_c, 0, 49, 0
4, 209040, Note_on_c, 0, 55, 75
4, 209160, Note_on_c, 0, 55, 0
4, 209160, Note_on_c, 0, 49, 75
4, 209280, Note_on_c, 0, 49, 0
4, 209280, Note_on_c, 0, 58, 75
4, 209400, Note_on_c, 0, 58, 0
4, 209400, Note_on_c, 0, 55, 75
4, 209520, Note_on_c, 0, 55, 0
4, 209520, Note_on_c, 0, 61, 75
4, 209640, Note_on_c, 0, 61, 0
4, 209640, Control_c, 0, 64, 0
4, 209640, Note_on_c, 0, 58, 75
4, 209760, Note_on_c, 0, 58, 0
4, 209760, Control_c, 0, 64, 127
4, 209760, Note_on_c, 0, 67, 75
4, 209880, Note_on_c, 0, 67, 0
4, 209880, Note_on_c, 0, 63, 75
4, 210000, Note_on_c, 0, 63, 0
4, 210000, Note_on_c, 0, 65, 75
4, 210120, Note_on_c, 0, 65, 0
4, 210120, Note_on_c, 0, 61, 75
4, 210240, Note_on_c, 0, 61, 0
4, 210240, Note_on_c, 0, 63, 75
4, 210360, Note_on_c, 0, 63, 0
4, 210360, Note_on_c, 0, 60, 75
4, 210480, Note_on_c, 0, 60, 0
4, 210480, Note_on_c, 0, 61, 75
4, 210600, Note_on_c, 0, 61, 0
4, 210600, Control_c, 0, 64, 0
4, 210600, Note_on_c, 0, 58, 75
4, 210720, Note_on_c, 0, 58, 0
4, 210720, Note_on_c, 0, 60, 88
4, 210743, Note_on_c, 0, 60, 0
4, 210960, Control_c, 0, 64, 127
4, 210960, Note_on_c, 0, 59, 88
4, 211080, Note_on_c, 0, 59, 0
4, 211080, Note_on_c, 0, 60, 88
4, 211200, Note_on_c, 0, 60, 0
4, 211200, Note_on_c, 0, 56, 88
4, 211320, Note_on_c, 0, 56, 0
4, 211320, Note_on_c, 0, 60, 88
4, 211440, Note_on_c, 0, 60, 0
4, 211440, Note_on_c, 0, 53, 88
4, 211560, Note_on_c, 0, 53, 0
4, 211560, Control_c, 0, 64, 0
4, 211560, Note_on_c, 0, 60, 88
4, 211680, Note_on_c, 0, 60, 0
4, 211680, Note_on_c, 0, 52, 88
4, 211703, Note_on_c, 0, 52, 0
4, 211920, Control_c, 0, 64, 127
4, 211920, Note_on_c, 0, 59, 88
4, 212040, Note_on_c, 0, 59, 0
4, 212040, Note_on_c, 0, 60, 88
4, 212160, Note_on_c, 0, 60, 0
4, 212160, Note_on_c, 0, 58, 88
4, 212280, Note_on_c, 0, 58, 0
4, 212280, Note_on_c, 0, 60, 88
4, 212400, Note_on_c, 0, 60, 0
4, 212400, Note_on_c, 0, 55, 88
4, 212520, Note_on_c, 0, 55, 0
4, 212520, Control_c, 0, 64, 0
4, 212520, Note_on_c, 0, 60, 88
4, 212640, Note_on_c, 0, 60, 0
4, 212640, Note_on_c, 0, 53, 88
4, 212663, Note_on_c, 0, 53, 0
4, 212880, Control_c, 0, 64, 127
4, 212880, Note_on_c, 0, 48, 88
4, 213000, Note_on_c, 0, 48, 0
4, 213000, Note_on_c, 0, 44, 88
4, 213120, Note_on_c, 0, 44, 0
4, 213120, Note_on_c, 0, 53, 88
4, 213240, Note_on_c, 0, 53, 0
4, 213240, Note_on_c, 0, 48, 88
4, 213360, Note_on_c, 0, 48, 0
4, 213360, Note_on_c, 0, 56, 88
4, 213480, Note_on_c, 0, 56, 0
4, 213480, Control_c, 0, 64, 0
4, 213480, Note_on_c, 0, 48, 88
4, 213600, Note_on_c, 0, 48, 0
4, 213600, Note_on_c, 0, 53, 88
4, 213623, Note_on_c, 0, 53, 0
4, 213623, End_track
5, 0, Start_track
5, 0, Title_t, "Instrument19"
5, 0, Program_c, 0, 0
5, 0, Control_c, 0, 7, 110
5, 0, Control_c, 0, 10, 30
5, 240, Control_c, 0, 64, 127
5, 240, Note_on_c, 0, 48, 75
5, 420, Note_on_c, 0, 51, 75
5, 480, Note_on_c, 0, 51, 0
5, 480, Note_on_c, 0, 48, 0
5, 480, Note_on_c, 0, 49, 75
5, 720, Note_on_c, 0, 49, 0
5, 720, Control_c, 0, 64, 0
5, 720, Note_on_c, 0, 48, 75
5, 960, Note_on_c, 0, 48, 0
5, 960, Control_c, 0, 64, 127
5, 960, Note_on_c, 0, 29, 75
5, 1200, Note_on_c, 0, 29, 0
5, 1200, Note_on_c, 0, 41, 75
5, 1680, Note_on_c, 0, 41, 0
5, 1680, Control_c, 0, 64, 0
5, 1680, Note_on_c, 0, 41, 75
5, 1920, Note_on_c, 0, 41, 0
5, 1920, Control_c, 0, 64, 127
5, 1920, Note_on_c, 0, 32, 75
5, 2160, Note_on_c, 0, 32, 0
5, 2160, Note_on_c, 0, 44, 75
5, 2640, Note_on_c, 0, 44, 0
5, 2640, Control_c, 0, 64, 0
5, 2640, Note_on_c, 0, 44, 75
5, 2880, Note_on_c, 0, 44, 0
5, 2880, Control_c, 0, 64, 127
5, 2880, Note_on_c, 0, 34, 75
5, 3120, Note_on_c, 0, 34, 0
5, 3120, Note_on_c, 0, 46, 75
5, 3600, Note_on_c, 0, 46, 0
5, 3600, Control_c, 0, 64, 0
5, 3600, Note_on_c, 0, 46, 75
5, 3840, Note_on_c, 0, 46, 0
5, 3840, Control_c, 0, 64, 127
5, 3840, Note_on_c, 0, 31, 75
5, 4080, Note_on_c, 0, 31, 0
5, 4080, Note_on_c, 0, 43, 75
5, 4560, Note_on_c, 0, 43, 0
5, 4560, Control_c, 0, 64, 0
5, 4560, Note_on_c, 0, 43, 75
5, 4800, Note_on_c, 0, 43, 0
5, 4800, Control_c, 0, 64, 127
5, 4800, Note_on_c, 0, 36, 75
5, 5040, Note_on_c, 0, 36, 0
5, 5040, Note_on_c, 0, 48, 75
5, 5520, Note_on_c, 0, 48, 0
5, 5520, Control_c, 0, 64, 0
5, 5520, Note_on_c, 0, 48, 75
5, 5760, Note_on_c, 0, 48, 0
5, 5760, Control_c, 0, 64, 127
5, 5760, Note_on_c, 0, 24, 75
5, 6000, Note_on_c, 0, 24, 0
5, 6000, Note_on_c, 0, 36, 75
5, 6480, Note_on_c, 0, 36, 0
5, 6480, Control_c, 0, 64, 0
5, 6480, Note_on_c, 0, 36, 75
5, 6720, Note_on_c, 0, 36, 0
5, 6720, Control_c, 0, 64, 127
5, 6720, Note_on_c, 0, 29, 75
5, 6960, Note_on_c, 0, 29, 0
5, 6960, Note_on_c, 0, 41, 75
5, 7440, Note_on_c, 0, 41, 0
5, 7440, Control_c, 0, 64, 0
5, 7440, Note_on_c, 0, 41, 75
5, 7680, Note_on_c, 0, 41, 0
5, 7680, Control_c, 0, 64, 127
5, 7680, Note_on_c, 0, 29, 75
5, 7920, Note_on_c, 0, 29, 0
5, 7920, Note_on_c, 0, 41, 75
5, 8400, Note_on_c, 0, 41, 0
5, 8400, Control_c, 0, 64, 0
5, 8400, Note_on_c, 0, 41, 75
5, 8640, Note_on_c, 0, 41, 0
5, 8640, Control_c, 0, 64, 127
5, 8640, Note_on_c, 0, 32, 75
5, 8880, Note_on_c, 0, 32, 0
5, 8880, Note_on_c, 0, 44, 75
5, 9360, Note_on_c, 0, 44, 0
5, 9360, Control_c, 0, 64, 0
5, 9360, Note_on_c, 0, 44, 75
5, 9600, Note_on_c, 0, 44, 0
5, 9600, Control_c, 0, 64, 127
5, 9600, Note_on_c, 0, 29, 75
5, 9840, Note_on_c, 0, 29, 0
5, 9840, Note_on_c, 0, 41, 75
5, 10320, Note_on_c, 0, 41, 0
5, 10320, Control_c, 0, 64, 0
5, 10320, Note_on_c, 0, 41, 75
5, 10560, Note_on_c, 0, 41, 0
5, 10560, Control_c, 0, 64, 127
5, 10560, Note_on_c, 0, 34, 75
5, 10800, Note_on_c, 0, 34, 0
5, 10800, Note_on_c, 0, 46, 75
5, 11280, Note_on_c, 0, 46, 0
5, 11280, Control_c, 0, 64, 0
5, 11280, Note_on_c, 0, 46, 75
5, 11520, Note_on_c, 0, 46, 0
5, 11520, Control_c, 0, 64, 127
5, 11520, Note_on_c, 0, 31, 75
5, 11760, Note_on_c, 0, 31, 0
5, 11760, Note_on_c, 0, 43, 75
5, 12240, Note_on_c, 0, 43, 0
5, 12240, Control_c, 0, 64, 0
5, 12240, Note_on_c, 0, 43, 75
5, 12480, Note_on_c, 0, 43, 0
5, 12480, Control_c, 0, 64, 127
5, 12480, Note_on_c, 0, 36, 75
5, 12720, Note_on_c, 0, 36, 0
5, 12720, Note_on_c, 0, 48, 75
5, 13200, Note_on_c, 0, 48, 0
5, 13200, Control_c, 0, 64, 0
5, 13200, Note_on_c, 0, 48, 75
5, 13440, Note_on_c, 0, 48, 0
5, 13440, Control_c, 0, 64, 127
5, 13440, Note_on_c, 0, 24, 75
5, 13680, Note_on_c, 0, 24, 0
5, 13680, Note_on_c, 0, 36, 75
5, 14160, Note_on_c, 0, 36, 0
5, 14160, Control_c, 0, 64, 0
5, 14160, Note_on_c, 0, 36, 75
5, 14400, Note_on_c, 0, 36, 0
5, 14400, Control_c, 0, 64, 127
5, 14400, Note_on_c, 0, 29, 75
5, 14400, Note_on_c, 0, 53, 75
5, 14640, Note_on_c, 0, 29, 0
5, 14640, Note_on_c, 0, 41, 75
5, 15120, Note_on_c, 0, 41, 0
5, 15120, Control_c, 0, 64, 0
5, 15120, Note_on_c, 0, 41, 75
5, 15360, Note_on_c, 0, 41, 0
5, 15360, Note_on_c, 0, 53, 0
5, 15360, Note_on_c, 0, 29, 75
5, 15600, Note_on_c, 0, 29, 0
5, 15600, Note_on_c, 0, 36, 75
5, 15600, Note_on_c, 0, 48, 75
5, 16080, Note_on_c, 0, 48, 0
5, 16080, Note_on_c, 0, 36, 0
5, 16080, Note_on_c, 0, 32, 75
5, 16080, Note_on_c, 0, 44, 75
5, 16320, Note_on_c, 0, 44, 0
5, 16320, Note_on_c, 0, 32, 0
5, 16320, Control_c, 0, 64, 127
5, 16320, Note_on_c, 0, 29, 75
5, 16560, Note_on_c, 0, 29, 0
5, 16560, Note_on_c, 0, 41, 75
5, 17040, Note_on_c, 0, 41, 0
5, 17040, Control_c, 0, 64, 0
5, 17040, Note_on_c, 0, 41, 75
5, 17280, Note_on_c, 0, 41, 0
5, 17280, Control_c, 0, 64, 127
5, 17280, Note_on_c, 0, 32, 75
5, 17520, Note_on_c, 0, 32, 0
5, 17520, Note_on_c, 0, 44, 75
5, 18000, Note_on_c, 0, 44, 0
5, 18000, Control_c, 0, 64, 0
5, 18000, Note_on_c, 0, 44, 75
5, 18240, Note_on_c, 0, 44, 0
5, 18240, Control_c, 0, 64, 127
5, 18240, Note_on_c, 0, 34, 75
5, 18480, Note_on_c, 0, 34, 0
5, 18480, Note_on_c, 0, 46, 75
5, 18960, Note_on_c, 0, 46, 0
5, 18960, Control_c, 0, 64, 0
5, 18960, Note_on_c, 0, 46, 75
5, 19200, Note_on_c, 0, 46, 0
5, 19200, Control_c, 0, 64, 127
5, 19200, Note_on_c, 0, 31, 75
5, 19440, Note_on_c, 0, 31, 0
5, 19440, Note_on_c, 0, 43, 75
5, 19920, Note_on_c, 0, 43, 0
5, 19920, Control_c, 0, 64, 0
5, 19920, Note_on_c, 0, 43, 75
5, 20160, Note_on_c, 0, 43, 0
5, 20160, Control_c, 0, 64, 127
5, 20160, Note_on_c, 0, 36, 75
5, 20400, Note_on_c, 0, 36, 0
5, 20400, Note_on_c, 0, 48, 75
5, 20880, Note_on_c, 0, 48, 0
5, 20880, Control_c, 0, 64, 0
5, 20880, Note_on_c, 0, 48, 75
5, 21120, Note_on_c, 0, 48, 0
5, 21120, Control_c, 0, 64, 127
5, 21120, Note_on_c, 0, 24, 75
5, 21360, Note_on_c, 0, 24, 0
5, 21360, Note_on_c, 0, 36, 75
5, 21840, Note_on_c, 0, 36, 0
5, 21840, Control_c, 0, 64, 0
5, 21840, Note_on_c, 0, 36, 75
5, 22080, Note_on_c, 0, 36, 0
5, 22080, Control_c, 0, 64, 127
5, 22080, Note_on_c, 0, 29, 75
5, 22320, Note_on_c, 0, 29, 0
5, 22320, Note_on_c, 0, 41, 75
5, 22800, Note_on_c, 0, 41, 0
5, 22800, Control_c, 0, 64, 0
5, 22800, Note_on_c, 0, 41, 75
5, 23040, Note_on_c, 0, 41, 0
5, 23040, Control_c, 0, 64, 127
5, 23040, Note_on_c, 0, 29, 75
5, 23280, Note_on_c, 0, 29, 0
5, 23280, Note_on_c, 0, 41, 75
5, 23760, Note_on_c, 0, 41, 0
5, 23760, Control_c, 0, 64, 0
5, 23760, Note_on_c, 0, 41, 75
5, 24000, Note_on_c, 0, 41, 0
5, 24000, Control_c, 0, 64, 127
5, 24000, Note_on_c, 0, 32, 75
5, 24240, Note_on_c, 0, 32, 0
5, 24240, Note_on_c, 0, 44, 75
5, 24720, Note_on_c, 0, 44, 0
5, 24720, Control_c, 0, 64, 0
5, 24720, Note_on_c, 0, 44, 75
5, 24960, Note_on_c, 0, 44, 0
5, 24960, Control_c, 0, 64, 127
5, 24960, Note_on_c, 0, 29, 75
5, 25200, Note_on_c, 0, 29, 0
5, 25200, Note_on_c, 0, 41, 75
5, 25680, Note_on_c, 0, 41, 0
5, 25680, Control_c, 0, 64, 0
5, 25680, Note_on_c, 0, 41, 75
5, 25920, Note_on_c, 0, 41, 0
5, 25920, Control_c, 0, 64, 127
5, 25920, Note_on_c, 0, 34, 75
5, 26160, Note_on_c, 0, 34, 0
5, 26160, Note_on_c, 0, 46, 75
5, 26640, Note_on_c, 0, 46, 0
5, 26640, Control_c, 0, 64, 0
5, 26640, Note_on_c, 0, 46, 75
5, 26880, Note_on_c, 0, 46, 0
5, 26880, Control_c, 0, 64, 127
5, 26880, Note_on_c, 0, 31, 75
5, 27120, Note_on_c, 0, 31, 0
5, 27120, Note_on_c, 0, 43, 75
5, 27600, Note_on_c, 0, 43, 0
5, 27600, Control_c, 0, 64, 0
5, 27600, Note_on_c, 0, 43, 75
5, 27840, Note_on_c, 0, 43, 0
5, 27840, Control_c, 0, 64, 127
5, 27840, Note_on_c, 0, 36, 75
5, 28080, Note_on_c, 0, 36, 0
5, 28080, Note_on_c, 0, 48, 75
5, 28560, Note_on_c, 0, 48, 0
5, 28560, Control_c, 0, 64, 0
5, 28560, Note_on_c, 0, 48, 75
5, 28800, Note_on_c, 0, 48, 0
5, 28800, Control_c, 0, 64, 127
5, 28800, Note_on_c, 0, 24, 75
5, 29040, Note_on_c, 0, 24, 0
5, 29040, Note_on_c, 0, 36, 75
5, 29520, Note_on_c, 0, 36, 0
5, 29520, Control_c, 0, 64, 0
5, 29520, Note_on_c, 0, 36, 75
5, 29760, Note_on_c, 0, 36, 0
5, 29760, Control_c, 0, 64, 127
5, 29760, Note_on_c, 0, 29, 75
5, 30000, Note_on_c, 0, 29, 0
5, 30000, Note_on_c, 0, 41, 75
5, 30480, Note_on_c, 0, 41, 0
5, 30480, Note_on_c, 0, 41, 75
5, 30720, Control_c, 0, 64, 0
5, 30720, Note_on_c, 0, 29, 75
5, 31200, Note_on_c, 0, 29, 0
5, 31200, Note_on_c, 0, 41, 0
5, 31680, Note_on_c, 0, 27, 88
5, 31680, Note_on_c, 0, 39, 88
5, 32640, Note_on_c, 0, 39, 0
5, 32640, Note_on_c, 0, 27, 0
5, 32640, Note_on_c, 0, 38, 88
5, 32640, Note_on_c, 0, 50, 88
5, 32687, Note_on_c, 0, 50, 0
5, 32687, Note_on_c, 0, 38, 0
5, 33120, Note_on_c, 0, 37, 88
5, 33120, Note_on_c, 0, 49, 88
5, 33167, Note_on_c, 0, 49, 0
5, 33167, Note_on_c, 0, 37, 0
5, 33600, Note_on_c, 0, 36, 88
5, 33600, Note_on_c, 0, 48, 88
5, 34560, Note_on_c, 0, 48, 0
5, 34560, Note_on_c, 0, 36, 0
5, 34560, Note_on_c, 0, 32, 88
5, 34560, Note_on_c, 0, 44, 88
5, 34607, Note_on_c, 0, 44, 0
5, 34607, Note_on_c, 0, 32, 0
5, 35040, Note_on_c, 0, 30, 88
5, 35040, Note_on_c, 0, 42, 88
5, 35087, Note_on_c, 0, 42, 0
5, 35087, Note_on_c, 0, 30, 0
5, 35520, Note_on_c, 0, 29, 88
5, 35520, Note_on_c, 0, 41, 88
5, 36480, Note_on_c, 0, 41, 0
5, 36480, Note_on_c, 0, 29, 0
5, 36480, Note_on_c, 0, 31, 88
5, 36480, Note_on_c, 0, 43, 88
5, 36527, Note_on_c, 0, 43, 0
5, 36527, Note_on_c, 0, 31, 0
5, 36960, Note_on_c, 0, 33, 88
5, 36960, Note_on_c, 0, 45, 88
5, 37007, Note_on_c, 0, 45, 0
5, 37007, Note_on_c, 0, 33, 0
5, 37440, Note_on_c, 0, 34, 88
5, 37440, Note_on_c, 0, 46, 88
5, 38400, Note_on_c, 0, 46, 0
5, 38400, Note_on_c, 0, 34, 0
5, 38400, Note_on_c, 0, 37, 88
5, 38400, Note_on_c, 0, 49, 88
5, 38447, Note_on_c, 0, 49, 0
5, 38447, Note_on_c, 0, 37, 0
5, 38880, Note_on_c, 0, 34, 88
5, 38880, Note_on_c, 0, 46, 88
5, 38927, Note_on_c, 0, 46, 0
5, 38927, Note_on_c, 0, 34, 0
5, 39360, Note_on_c, 0, 27, 88
5, 39360, Note_on_c, 0, 39, 88
5, 40320, Note_on_c, 0, 39, 0
5, 40320, Note_on_c, 0, 27, 0
5, 40320, Note_on_c, 0, 29, 88
5, 40320, Note_on_c, 0, 41, 88
5, 40367, Note_on_c, 0, 41, 0
5, 40367, Note_on_c, 0, 29, 0
5, 40800, Note_on_c, 0, 31, 88
5, 40800, Note_on_c, 0, 43, 88
5, 40847, Note_on_c, 0, 43, 0
5, 40847, Note_on_c, 0, 31, 0
5, 41280, Note_on_c, 0, 32, 88
5, 41280, Note_on_c, 0, 44, 88
5, 42240, Note_on_c, 0, 44, 0
5, 42240, Note_on_c, 0, 32, 0
5, 42240, Note_on_c, 0, 36, 88
5, 42240, Note_on_c, 0, 48, 88
5, 42287, Note_on_c, 0, 48, 0
5, 42287, Note_on_c, 0, 36, 0
5, 42720, Note_on_c, 0, 32, 88
5, 42720, Note_on_c, 0, 44, 88
5, 42767, Note_on_c, 0, 44, 0
5, 42767, Note_on_c, 0, 32, 0
5, 43200, Note_on_c, 0, 31, 88
5, 43200, Note_on_c, 0, 43, 88
5, 44160, Note_on_c, 0, 43, 0
5, 44160, Note_on_c, 0, 31, 0
5, 44160, Note_on_c, 0, 36, 88
5, 44160, Note_on_c, 0, 48, 88
5, 44207, Note_on_c, 0, 48, 0
5, 44207, Note_on_c, 0, 36, 0
5, 44640, Note_on_c, 0, 24, 88
5, 44640, Note_on_c, 0, 36, 88
5, 44687, Note_on_c, 0, 36, 0
5, 44687, Note_on_c, 0, 24, 0
5, 45120, Note_on_c, 0, 29, 88
5, 45120, Note_on_c, 0, 41, 88
5, 46080, Note_on_c, 0, 41, 0
5, 46080, Note_on_c, 0, 29, 0
5, 46080, Note_on_c, 0, 32, 88
5, 46080, Note_on_c, 0, 44, 88
5, 46127, Note_on_c, 0, 44, 0
5, 46127, Note_on_c, 0, 32, 0
5, 46560, Note_on_c, 0, 29, 88
5, 46560, Note_on_c, 0, 41, 88
5, 46607, Note_on_c, 0, 41, 0
5, 46607, Note_on_c, 0, 29, 0
5, 47040, Note_on_c, 0, 27, 88
5, 47040, Note_on_c, 0, 39, 88
5, 48000, Note_on_c, 0, 39, 0
5, 48000, Note_on_c, 0, 27, 0
5, 48000, Note_on_c, 0, 38, 88
5, 48000, Note_on_c, 0, 50, 88
5, 48047, Note_on_c, 0, 50, 0
5, 48047, Note_on_c, 0, 38, 0
5, 48480, Note_on_c, 0, 37, 88
5, 48480, Note_on_c, 0, 49, 88
5, 48527, Note_on_c, 0, 49, 0
5, 48527, Note_on_c, 0, 37, 0
5, 48960, Note_on_c, 0, 36, 88
5, 48960, Note_on_c, 0, 48, 88
5, 49920, Note_on_c, 0, 48, 0
5, 49920, Note_on_c, 0, 36, 0
5, 49920, Note_on_c, 0, 32, 88
5, 49920, Note_on_c, 0, 44, 88
5, 49967, Note_on_c, 0, 44, 0
5, 49967, Note_on_c, 0, 32, 0
5, 50400, Note_on_c, 0, 30, 88
5, 50400, Note_on_c, 0, 42, 88
5, 50447, Note_on_c, 0, 42, 0
5, 50447, Note_on_c, 0, 30, 0
5, 50880, Note_on_c, 0, 29, 88
5, 50880, Note_on_c, 0, 41, 88
5, 51840, Note_on_c, 0, 41, 0
5, 51840, Note_on_c, 0, 29, 0
5, 51840, Note_on_c, 0, 31, 88
5, 51840, Note_on_c, 0, 43, 88
5, 51887, Note_on_c, 0, 43, 0
5, 51887, Note_on_c, 0, 31, 0
5, 52320, Note_on_c, 0, 33, 88
5, 52320, Note_on_c, 0, 45, 88
5, 52367, Note_on_c, 0, 45, 0
5, 52367, Note_on_c, 0, 33, 0
5, 52800, Note_on_c, 0, 34, 88
5, 52800, Note_on_c, 0, 46, 88
5, 53760, Note_on_c, 0, 46, 0
5, 53760, Note_on_c, 0, 34, 0
5, 53760, Note_on_c, 0, 37, 88
5, 53760, Note_on_c, 0, 49, 88
5, 53807, Note_on_c, 0, 49, 0
5, 53807, Note_on_c, 0, 37, 0
5, 54240, Note_on_c, 0, 34, 88
5, 54240, Note_on_c, 0, 46, 88
5, 54287, Note_on_c, 0, 46, 0
5, 54287, Note_on_c, 0, 34, 0
5, 54720, Note_on_c, 0, 27, 88
5, 54720, Note_on_c, 0, 39, 88
5, 55680, Note_on_c, 0, 39, 0
5, 55680, Note_on_c, 0, 27, 0
5, 55680, Note_on_c, 0, 29, 88
5, 55680, Note_on_c, 0, 41, 88
5, 55727, Note_on_c, 0, 41, 0
5, 55727, Note_on_c, 0, 29, 0
5, 56160, Note_on_c, 0, 31, 88
5, 56160, Note_on_c, 0, 43, 88
5, 56207, Note_on_c, 0, 43, 0
5, 56207, Note_on_c, 0, 31, 0
5, 56640, Note_on_c, 0, 32, 88
5, 56640, Note_on_c, 0, 44, 88
5, 57600, Note_on_c, 0, 44, 0
5, 57600, Note_on_c, 0, 32, 0
5, 57600, Note_on_c, 0, 36, 88
5, 57600, Note_on_c, 0, 48, 88
5, 57647, Note_on_c, 0, 48, 0
5, 57647, Note_on_c, 0, 36, 0
5, 58080, Note_on_c, 0, 32, 88
5, 58080, Note_on_c, 0, 44, 88
5, 58127, Note_on_c, 0, 44, 0
5, 58127, Note_on_c, 0, 32, 0
5, 58560, Note_on_c, 0, 31, 88
5, 58560, Note_on_c, 0, 43, 88
5, 59520, Note_on_c, 0, 43, 0
5, 59520, Note_on_c, 0, 31, 0
5, 59520, Note_on_c, 0, 36, 88
5, 59520, Note_on_c, 0, 48, 88
5, 59567, Note_on_c, 0, 48, 0
5, 59567, Note_on_c, 0, 36, 0
5, 60000, Note_on_c, 0, 24, 88
5, 60000, Note_on_c, 0, 36, 88
5, 60047, Note_on_c, 0, 36, 0
5, 60047, Note_on_c, 0, 24, 0
5, 60480, Note_on_c, 0, 29, 88
5, 60480, Note_on_c, 0, 41, 88
5, 61440, Note_on_c, 0, 41, 0
5, 61440, Note_on_c, 0, 29, 0
5, 61440, Note_on_c, 0, 32, 88
5, 61440, Note_on_c, 0, 44, 88
5, 61487, Note_on_c, 0, 44, 0
5, 61487, Note_on_c, 0, 32, 0
5, 61920, Note_on_c, 0, 29, 88
5, 61920, Note_on_c, 0, 41, 88
5, 61967, Note_on_c, 0, 41, 0
5, 61967, Note_on_c, 0, 29, 0
5, 63840, Control_c, 0, 64, 127
5, 63840, Note_on_c, 0, 29, 49
5, 64080, Note_on_c, 0, 29, 0
5, 64080, Note_on_c, 0, 41, 49
5, 64560, Note_on_c, 0, 41, 0
5, 64560, Control_c, 0, 64, 0
5, 64560, Note_on_c, 0, 41, 49
5, 64800, Note_on_c, 0, 41, 0
5, 64800, Control_c, 0, 64, 127
5, 64800, Note_on_c, 0, 44, 62
5, 65040, Note_on_c, 0, 44, 0
5, 65040, Note_on_c, 0, 51, 62
5, 65520, Note_on_c, 0, 51, 0
5, 65520, Control_c, 0, 64, 0
5, 65520, Note_on_c, 0, 51, 62
5, 65760, Note_on_c, 0, 51, 0
5, 65760, Control_c, 0, 64, 127
5, 65760, Note_on_c, 0, 37, 75
5, 65760, Note_on_c, 0, 65, 75
5, 66000, Note_on_c, 0, 37, 0
5, 66000, Note_on_c, 0, 49, 75
5, 66480, Note_on_c, 0, 49, 0
5, 66480, Note_on_c, 0, 65, 0
5, 66480, Control_c, 0, 64, 0
5, 66480, Note_on_c, 0, 49, 75
5, 66480, Note_on_c, 0, 64, 75
5, 66720, Note_on_c, 0, 64, 0
5, 66720, Note_on_c, 0, 49, 0
5, 66720, Note_on_c, 0, 39, 62
5, 66960, Note_on_c, 0, 39, 0
5, 66960, Note_on_c, 0, 39, 62
5, 67440, Note_on_c, 0, 39, 0
5, 67440, Note_on_c, 0, 39, 62
5, 67680, Note_on_c, 0, 39, 0
5, 67680, Control_c, 0, 64, 127
5, 67680, Note_on_c, 0, 37, 62
5, 67920, Note_on_c, 0, 37, 0
5, 67920, Note_on_c, 0, 49, 62
5, 68400, Note_on_c, 0, 49, 0
5, 68400, Control_c, 0, 64, 0
5, 68400, Note_on_c, 0, 49, 62
5, 68640, Note_on_c, 0, 49, 0
5, 68640, Control_c, 0, 64, 127
5, 68640, Note_on_c, 0, 36, 62
5, 68880, Note_on_c, 0, 36, 0
5, 68880, Note_on_c, 0, 48, 62
5, 69360, Note_on_c, 0, 48, 0
5, 69360, Control_c, 0, 64, 0
5, 69360, Note_on_c, 0, 48, 62
5, 69600, Note_on_c, 0, 48, 0
5, 69600, Control_c, 0, 64, 127
5, 69600, Note_on_c, 0, 29, 62
5, 69840, Note_on_c, 0, 29, 0
5, 69840, Note_on_c, 0, 41, 62
5, 70320, Note_on_c, 0, 41, 0
5, 70320, Control_c, 0, 64, 0
5, 70320, Note_on_c, 0, 41, 62
5, 70560, Note_on_c, 0, 41, 0
5, 70560, Control_c, 0, 64, 127
5, 70560, Note_on_c, 0, 29, 62
5, 70800, Note_on_c, 0, 29, 0
5, 70800, Note_on_c, 0, 41, 62
5, 71280, Note_on_c, 0, 41, 0
5, 71280, Control_c, 0, 64, 0
5, 71280, Note_on_c, 0, 41, 62
5, 71520, Note_on_c, 0, 41, 0
5, 71520, Control_c, 0, 64, 127
5, 71520, Note_on_c, 0, 32, 62
5, 71760, Note_on_c, 0, 32, 0
5, 71760, Note_on_c, 0, 44, 62
5, 72240, Note_on_c, 0, 44, 0
5, 72240, Control_c, 0, 64, 0
5, 72240, Note_on_c, 0, 44, 62
5, 72480, Note_on_c, 0, 44, 0
5, 72480, Control_c, 0, 64, 127
5, 72480, Note_on_c, 0, 29, 62
5, 72720, Note_on_c, 0, 29, 0
5, 72720, Note_on_c, 0, 41, 62
5, 73200, Note_on_c, 0, 41, 0
5, 73200, Control_c, 0, 64, 0
5, 73200, Note_on_c, 0, 41, 62
5, 73440, Note_on_c, 0, 41, 0
5, 73440, Control_c, 0, 64, 127
5, 73440, Note_on_c, 0, 34, 62
5, 73680, Note_on_c, 0, 34, 0
5, 73680, Note_on_c, 0, 46, 62
5, 74160, Note_on_c, 0, 46, 0
5, 74160, Control_c, 0, 64, 0
5, 74160, Note_on_c, 0, 46, 62
5, 74400, Note_on_c, 0, 46, 0
5, 74400, Control_c, 0, 64, 127
5, 74400, Note_on_c, 0, 31, 62
5, 74640, Note_on_c, 0, 31, 0
5, 74640, Note_on_c, 0, 43, 62
5, 75120, Note_on_c, 0, 43, 0
5, 75120, Control_c, 0, 64, 0
5, 75120, Note_on_c, 0, 43, 62
5, 75360, Note_on_c, 0, 43, 0
5, 75360, Control_c, 0, 64, 127
5, 75360, Note_on_c, 0, 36, 88
5, 75600, Note_on_c, 0, 36, 0
5, 75600, Note_on_c, 0, 48, 88
5, 76080, Note_on_c, 0, 48, 0
5, 76080, Control_c, 0, 64, 0
5, 76080, Note_on_c, 0, 48, 88
5, 76320, Note_on_c, 0, 48, 0
5, 76320, Control_c, 0, 64, 127
5, 76320, Note_on_c, 0, 24, 88
5, 76560, Note_on_c, 0, 24, 0
5, 76560, Note_on_c, 0, 36, 88
5, 77040, Note_on_c, 0, 36, 0
5, 77040, Control_c, 0, 64, 0
5, 77040, Note_on_c, 0, 36, 88
5, 77280, Note_on_c, 0, 36, 0
5, 77280, Control_c, 0, 64, 127
5, 77280, Note_on_c, 0, 29, 88
5, 77520, Note_on_c, 0, 29, 0
5, 77520, Note_on_c, 0, 41, 88
5, 78000, Note_on_c, 0, 41, 0
5, 78000, Control_c, 0, 64, 0
5, 78000, Note_on_c, 0, 41, 88
5, 78180, Note_on_c, 0, 29, 114
5, 78240, Note_on_c, 0, 41, 0
5, 78240, Note_on_c, 0, 41, 114
5, 78263, Note_on_c, 0, 41, 0
5, 78263, Note_on_c, 0, 29, 0
5, 81600, Note_on_c, 0, 41, 62
5, 81600, Note_on_c, 0, 53, 62
5, 82080, Note_on_c, 0, 53, 0
5, 82080, Note_on_c, 0, 41, 0
5, 82239, Note_on_c, 0, 57, 62
5, 82400, Note_on_c, 0, 57, 0
5, 82400, Note_on_c, 0, 45, 62
5, 82560, Note_on_c, 0, 45, 0
5, 82560, Note_on_c, 0, 41, 62
5, 82560, Note_on_c, 0, 53, 62
5, 83040, Note_on_c, 0, 53, 0
5, 83040, Note_on_c, 0, 41, 0
5, 83199, Note_on_c, 0, 57, 62
5, 83360, Note_on_c, 0, 57, 0
5, 83360, Note_on_c, 0, 45, 62
5, 83520, Note_on_c, 0, 45, 0
5, 83520, Note_on_c, 0, 41, 62
5, 83520, Note_on_c, 0, 53, 62
5, 84000, Note_on_c, 0, 53, 0
5, 84000, Note_on_c, 0, 41, 0
5, 84159, Note_on_c, 0, 58, 62
5, 84320, Note_on_c, 0, 58, 0
5, 84320, Note_on_c, 0, 46, 62
5, 84480, Note_on_c, 0, 46, 0
5, 84480, Note_on_c, 0, 41, 62
5, 84480, Note_on_c, 0, 53, 62
5, 84960, Note_on_c, 0, 53, 0
5, 84960, Note_on_c, 0, 41, 0
5, 85119, Note_on_c, 0, 57, 62
5, 85280, Note_on_c, 0, 57, 0
5, 85280, Note_on_c, 0, 45, 62
5, 85440, Note_on_c, 0, 45, 0
5, 85440, Note_on_c, 0, 40, 62
5, 85440, Note_on_c, 0, 52, 62
5, 85920, Note_on_c, 0, 52, 0
5, 85920, Note_on_c, 0, 40, 0
5, 86079, Note_on_c, 0, 48, 62
5, 86240, Note_on_c, 0, 48, 0
5, 86240, Note_on_c, 0, 36, 62
5, 86400, Note_on_c, 0, 36, 0
5, 86400, Note_on_c, 0, 41, 62
5, 86400, Note_on_c, 0, 53, 62
5, 86880, Note_on_c, 0, 53, 0
5, 86880, Note_on_c, 0, 41, 0
5, 87039, Note_on_c, 0, 57, 62
5, 87200, Note_on_c, 0, 57, 0
5, 87200, Note_on_c, 0, 45, 62
5, 87360, Note_on_c, 0, 45, 0
5, 87360, Note_on_c, 0, 41, 62
5, 87360, Note_on_c, 0, 53, 62
5, 87840, Note_on_c, 0, 53, 0
5, 87840, Note_on_c, 0, 41, 0
5, 87999, Note_on_c, 0, 57, 62
5, 88160, Note_on_c, 0, 57, 0
5, 88160, Note_on_c, 0, 45, 62
5, 88320, Note_on_c, 0, 45, 0
5, 88320, Note_on_c, 0, 41, 62
5, 88320, Note_on_c, 0, 53, 62
5, 88800, Note_on_c, 0, 53, 0
5, 88800, Note_on_c, 0, 41, 0
5, 88959, Note_on_c, 0, 57, 62
5, 89120, Note_on_c, 0, 57, 0
5, 89120, Note_on_c, 0, 45, 62
5, 89280, Note_on_c, 0, 45, 0
5, 89280, Note_on_c, 0, 41, 62
5, 89280, Note_on_c, 0, 53, 62
5, 89760, Note_on_c, 0, 53, 0
5, 89760, Note_on_c, 0, 41, 0
5, 89919, Note_on_c, 0, 58, 62
5, 90080, Note_on_c, 0, 58, 0
5, 90080, Note_on_c, 0, 46, 62
5, 90240, Note_on_c, 0, 46, 0
5, 90240, Note_on_c, 0, 41, 62
5, 90240, Note_on_c, 0, 53, 62
5, 90720, Note_on_c, 0, 53, 0
5, 90720, Note_on_c, 0, 41, 0
5, 90879, Note_on_c, 0, 57, 62
5, 91040, Note_on_c, 0, 57, 0
5, 91040, Note_on_c, 0, 45, 62
5, 91200, Note_on_c, 0, 45, 0
5, 91200, Note_on_c, 0, 40, 62
5, 91200, Note_on_c, 0, 52, 62
5, 91680, Note_on_c, 0, 52, 0
5, 91680, Note_on_c, 0, 40, 0
5, 91839, Note_on_c, 0, 48, 62
5, 92000, Note_on_c, 0, 48, 0
5, 92000, Note_on_c, 0, 36, 62
5, 92160, Note_on_c, 0, 36, 0
5, 92160, Note_on_c, 0, 41, 62
5, 92160, Note_on_c, 0, 53, 62
5, 92640, Note_on_c, 0, 53, 0
5, 92640, Note_on_c, 0, 41, 0
5, 92799, Note_on_c, 0, 57, 62
5, 92960, Note_on_c, 0, 57, 0
5, 92960, Note_on_c, 0, 45, 62
5, 93120, Note_on_c, 0, 45, 0
5, 93120, Note_on_c, 0, 46, 62
5, 93120, Note_on_c, 0, 58, 62
5, 93600, Note_on_c, 0, 58, 0
5, 93600, Note_on_c, 0, 46, 0
5, 93759, Note_on_c, 0, 58, 62
5, 93920, Note_on_c, 0, 58, 0
5, 93920, Note_on_c, 0, 46, 62
5, 94080, Note_on_c, 0, 46, 0
5, 94080, Note_on_c, 0, 45, 62
5, 94080, Note_on_c, 0, 57, 62
5, 94560, Note_on_c, 0, 57, 0
5, 94560, Note_on_c, 0, 45, 0
5, 94719, Note_on_c, 0, 55, 62
5, 94880, Note_on_c, 0, 55, 0
5, 94880, Note_on_c, 0, 43, 62
5, 95040, Note_on_c, 0, 43, 0
5, 95040, Note_on_c, 0, 41, 62
5, 95040, Note_on_c, 0, 53, 62
5, 95520, Note_on_c, 0, 53, 0
5, 95520, Note_on_c, 0, 41, 0
5, 95679, Note_on_c, 0, 53, 62
5, 95840, Note_on_c, 0, 53, 0
5, 95840, Note_on_c, 0, 41, 62
5, 96000, Note_on_c, 0, 41, 0
5, 96000, Note_on_c, 0, 40, 62
5, 96000, Note_on_c, 0, 52, 62
5, 96480, Note_on_c, 0, 52, 0
5, 96480, Note_on_c, 0, 40, 0
5, 96639, Note_on_c, 0, 50, 62
5, 96800, Note_on_c, 0, 50, 0
5, 96800, Note_on_c, 0, 38, 62
5, 96960, Note_on_c, 0, 38, 0
5, 96960, Note_on_c, 0, 37, 62
5, 96960, Note_on_c, 0, 49, 62
5, 97440, Note_on_c, 0, 49, 0
5, 97440, Note_on_c, 0, 37, 0
5, 97599, Note_on_c, 0, 45, 62
5, 97760, Note_on_c, 0, 45, 0
5, 97760, Note_on_c, 0, 33, 62
5, 97920, Note_on_c, 0, 33, 0
5, 97920, Note_on_c, 0, 38, 75
5, 97920, Note_on_c, 0, 50, 75
5, 98400, Note_on_c, 0, 50, 0
5, 98400, Note_on_c, 0, 38, 0
5, 98559, Note_on_c, 0, 53, 75
5, 98720, Note_on_c, 0, 53, 0
5, 98720, Note_on_c, 0, 41, 75
5, 98880, Note_on_c, 0, 41, 0
5, 98880, Note_on_c, 0, 34, 75
5, 98880, Note_on_c, 0, 46, 75
5, 99360, Note_on_c, 0, 46, 0
5, 99360, Note_on_c, 0, 34, 0
5, 99519, Note_on_c, 0, 46, 75
5, 99680, Note_on_c, 0, 46, 0
5, 99680, Note_on_c, 0, 34, 75
5, 99840, Note_on_c, 0, 34, 0
5, 99840, Note_on_c, 0, 33, 75
5, 99840, Note_on_c, 0, 45, 75
5, 100320, Note_on_c, 0, 45, 0
5, 100320, Note_on_c, 0, 33, 0
5, 100479, Note_on_c, 0, 43, 75
5, 100640, Note_on_c, 0, 43, 0
5, 100640, Note_on_c, 0, 31, 75
5, 100800, Note_on_c, 0, 31, 0
5, 100800, Note_on_c, 0, 29, 75
5, 100800, Note_on_c, 0, 41, 75
5, 101280, Note_on_c, 0, 41, 0
5, 101280, Note_on_c, 0, 29, 0
5, 101439, Note_on_c, 0, 41, 75
5, 101600, Note_on_c, 0, 41, 0
5, 101600, Note_on_c, 0, 29, 75
5, 101760, Note_on_c, 0, 29, 0
5, 101760, Note_on_c, 0, 28, 75
5, 101760, Note_on_c, 0, 40, 75
5, 102240, Note_on_c, 0, 40, 0
5, 102240, Note_on_c, 0, 28, 0
5, 102399, Note_on_c, 0, 38, 75
5, 102560, Note_on_c, 0, 38, 0
5, 102560, Note_on_c, 0, 26, 75
5, 102720, Note_on_c, 0, 26, 0
5, 102720, Note_on_c, 0, 25, 75
5, 102720, Note_on_c, 0, 37, 75
5, 103200, Note_on_c, 0, 37, 0
5, 103200, Note_on_c, 0, 25, 0
5, 103359, Note_on_c, 0, 33, 75
5, 103520, Note_on_c, 0, 33, 0
5, 103520, Note_on_c, 0, 21, 75
5, 103680, Note_on_c, 0, 21, 0
5, 103680, Note_on_c, 0, 26, 75
5, 103680, Note_on_c, 0, 38, 75
5, 104160, Note_on_c, 0, 38, 0
5, 104160, Note_on_c, 0, 26, 0
5, 104319, Note_on_c, 0, 36, 75
5, 104480, Note_on_c, 0, 36, 0
5, 104480, Note_on_c, 0, 24, 75
5, 104640, Note_on_c, 0, 24, 0
5, 104640, Note_on_c, 0, 29, 88
5, 104640, Note_on_c, 0, 41, 88
5, 105120, Note_on_c, 0, 41, 0
5, 105120, Note_on_c, 0, 29, 0
5, 105279, Note_on_c, 0, 45, 88
5, 105440, Note_on_c, 0, 45, 0
5, 105440, Note_on_c, 0, 33, 88
5, 105600, Note_on_c, 0, 33, 0
5, 105600, Note_on_c, 0, 29, 88
5, 105600, Note_on_c, 0, 41, 88
5, 106080, Note_on_c, 0, 41, 0
5, 106080, Note_on_c, 0, 29, 0
5, 106239, Note_on_c, 0, 45, 88
5, 106400, Note_on_c, 0, 45, 0
5, 106400, Note_on_c, 0, 33, 88
5, 106560, Note_on_c, 0, 33, 0
5, 106560, Note_on_c, 0, 29, 88
5, 106560, Note_on_c, 0, 41, 88
5, 107040, Note_on_c, 0, 41, 0
5, 107040, Note_on_c, 0, 29, 0
5, 107199, Note_on_c, 0, 46, 88
5, 107360, Note_on_c, 0, 46, 0
5, 107360, Note_on_c, 0, 34, 88
5, 107520, Note_on_c, 0, 34, 0
5, 107520, Note_on_c, 0, 29, 88
5, 107520, Note_on_c, 0, 41, 88
5, 108000, Note_on_c, 0, 41, 0
5, 108000, Note_on_c, 0, 29, 0
5, 108159, Note_on_c, 0, 45, 88
5, 108320, Note_on_c, 0, 45, 0
5, 108320, Note_on_c, 0, 33, 88
5, 108480, Note_on_c, 0, 33, 0
5, 108480, Note_on_c, 0, 28, 88
5, 108480, Note_on_c, 0, 40, 88
5, 108960, Note_on_c, 0, 40, 0
5, 108960, Note_on_c, 0, 28, 0
5, 109119, Note_on_c, 0, 36, 88
5, 109280, Note_on_c, 0, 36, 0
5, 109280, Note_on_c, 0, 24, 88
5, 109440, Note_on_c, 0, 24, 0
5, 109440, Note_on_c, 0, 29, 88
5, 109440, Note_on_c, 0, 41, 88
5, 109920, Note_on_c, 0, 41, 0
5, 109920, Note_on_c, 0, 29, 0
5, 110079, Note_on_c, 0, 45, 88
5, 110240, Note_on_c, 0, 45, 0
5, 110240, Note_on_c, 0, 33, 88
5, 110400, Note_on_c, 0, 33, 0
5, 110400, Note_on_c, 0, 29, 88
5, 110400, Note_on_c, 0, 41, 88
5, 110880, Note_on_c, 0, 41, 0
5, 110880, Note_on_c, 0, 29, 0
5, 111039, Note_on_c, 0, 45, 88
5, 111200, Note_on_c, 0, 45, 0
5, 111200, Note_on_c, 0, 33, 88
5, 111360, Note_on_c, 0, 33, 0
5, 111360, Note_on_c, 0, 29, 88
5, 111360, Note_on_c, 0, 41, 88
5, 111840, Note_on_c, 0, 41, 0
5, 111840, Note_on_c, 0, 29, 0
5, 111999, Note_on_c, 0, 45, 88
5, 112160, Note_on_c, 0, 45, 0
5, 112160, Note_on_c, 0, 33, 88
5, 112320, Note_on_c, 0, 33, 0
5, 112320, Note_on_c, 0, 29, 88
5, 112320, Note_on_c, 0, 41, 88
5, 112800, Note_on_c, 0, 41, 0
5, 112800, Note_on_c, 0, 29, 0
5, 112959, Note_on_c, 0, 46, 88
5, 113120, Note_on_c, 0, 46, 0
5, 113120, Note_on_c, 0, 34, 88
5, 113280, Note_on_c, 0, 34, 0
5, 113280, Note_on_c, 0, 29, 88
5, 113280, Note_on_c, 0, 41, 88
5, 113760, Note_on_c, 0, 41, 0
5, 113760, Note_on_c, 0, 29, 0
5, 113919, Note_on_c, 0, 45, 88
5, 114080, Note_on_c, 0, 45, 0
5, 114080, Note_on_c, 0, 33, 88
5, 114240, Note_on_c, 0, 33, 0
5, 114240, Note_on_c, 0, 28, 88
5, 114240, Note_on_c, 0, 40, 88
5, 114720, Note_on_c, 0, 40, 0
5, 114720, Note_on_c, 0, 28, 0
5, 114879, Note_on_c, 0, 36, 88
5, 115040, Note_on_c, 0, 36, 0
5, 115040, Note_on_c, 0, 24, 88
5, 115200, Note_on_c, 0, 24, 0
5, 115200, Note_on_c, 0, 29, 88
5, 115200, Note_on_c, 0, 41, 88
5, 115680, Note_on_c, 0, 41, 0
5, 115680, Note_on_c, 0, 29, 0
5, 115839, Note_on_c, 0, 41, 88
5, 116000, Note_on_c, 0, 41, 0
5, 116000, Note_on_c, 0, 29, 88
5, 116160, Note_on_c, 0, 29, 0
5, 116160, Note_on_c, 0, 34, 101
5, 116160, Note_on_c, 0, 46, 101
5, 116640, Note_on_c, 0, 46, 0
5, 116640, Note_on_c, 0, 34, 0
5, 116799, Note_on_c, 0, 46, 101
5, 116960, Note_on_c, 0, 46, 0
5, 116960, Note_on_c, 0, 34, 101
5, 117120, Note_on_c, 0, 34, 0
5, 117120, Note_on_c, 0, 33, 101
5, 117120, Note_on_c, 0, 45, 101
5, 117600, Note_on_c, 0, 45, 0
5, 117600, Note_on_c, 0, 33, 0
5, 117759, Note_on_c, 0, 43, 101
5, 117920, Note_on_c, 0, 43, 0
5, 117920, Note_on_c, 0, 31, 101
5, 118080, Note_on_c, 0, 31, 0
5, 118080, Note_on_c, 0, 29, 101
5, 118080, Note_on_c, 0, 41, 101
5, 118560, Note_on_c, 0, 41, 0
5, 118560, Note_on_c, 0, 29, 0
5, 118719, Note_on_c, 0, 41, 101
5, 118880, Note_on_c, 0, 41, 0
5, 118880, Note_on_c, 0, 29, 101
5, 119040, Note_on_c, 0, 29, 0
5, 119040, Note_on_c, 0, 28, 101
5, 119040, Note_on_c, 0, 40, 101
5, 119520, Note_on_c, 0, 40, 0
5, 119520, Note_on_c, 0, 28, 0
5, 119679, Note_on_c, 0, 38, 101
5, 119840, Note_on_c, 0, 38, 0
5, 119840, Note_on_c, 0, 26, 101
5, 120000, Note_on_c, 0, 26, 0
5, 120000, Note_on_c, 0, 25, 101
5, 120000, Note_on_c, 0, 37, 101
5, 120480, Note_on_c, 0, 37, 0
5, 120480, Note_on_c, 0, 25, 0
5, 120639, Note_on_c, 0, 33, 101
5, 120800, Note_on_c, 0, 33, 0
5, 120800, Note_on_c, 0, 21, 101
5, 120960, Note_on_c, 0, 21, 0
5, 120960, Note_on_c, 0, 26, 101
5, 120960, Note_on_c, 0, 38, 101
5, 121440, Note_on_c, 0, 38, 0
5, 121440, Note_on_c, 0, 26, 0
5, 121599, Note_on_c, 0, 41, 101
5, 121760, Note_on_c, 0, 41, 0
5, 121760, Note_on_c, 0, 29, 101
5, 121920, Note_on_c, 0, 29, 0
5, 121920, Note_on_c, 0, 34, 88
5, 121920, Note_on_c, 0, 46, 88
5, 122400, Note_on_c, 0, 46, 0
5, 122400, Note_on_c, 0, 34, 0
5, 122559, Note_on_c, 0, 58, 88
5, 122720, Note_on_c, 0, 58, 0
5, 122720, Note_on_c, 0, 46, 88
5, 122880, Note_on_c, 0, 46, 0
5, 122880, Note_on_c, 0, 45, 88
5, 122880, Note_on_c, 0, 57, 88
5, 123360, Note_on_c, 0, 57, 0
5, 123360, Note_on_c, 0, 45, 0
5, 123519, Note_on_c, 0, 55, 88
5, 123680, Note_on_c, 0, 55, 0
5, 123680, Note_on_c, 0, 43, 88
5, 123840, Note_on_c, 0, 43, 0
5, 123840, Note_on_c, 0, 41, 75
5, 123840, Note_on_c, 0, 53, 75
5, 124320, Note_on_c, 0, 53, 0
5, 124320, Note_on_c, 0, 41, 0
5, 124479, Note_on_c, 0, 53, 75
5, 124640, Note_on_c, 0, 53, 0
5, 124640, Note_on_c, 0, 41, 75
5, 124800, Note_on_c, 0, 41, 0
5, 124800, Note_on_c, 0, 40, 75
5, 124800, Note_on_c, 0, 52, 75
5, 125280, Note_on_c, 0, 52, 0
5, 125280, Note_on_c, 0, 40, 0
5, 125439, Note_on_c, 0, 50, 75
5, 125600, Note_on_c, 0, 50, 0
5, 125600, Note_on_c, 0, 38, 75
5, 125760, Note_on_c, 0, 38, 0
5, 125760, Note_on_c, 0, 37, 62
5, 125760, Note_on_c, 0, 49, 62
5, 126240, Note_on_c, 0, 49, 0
5, 126240, Note_on_c, 0, 37, 0
5, 126399, Note_on_c, 0, 45, 62
5, 126560, Note_on_c, 0, 45, 0
5, 126560, Note_on_c, 0, 33, 62
5, 126720, Note_on_c, 0, 33, 0
5, 126720, Note_on_c, 0, 38, 62
5, 126720, Note_on_c, 0, 50, 62
5, 127200, Note_on_c, 0, 50, 0
5, 127200, Note_on_c, 0, 38, 0
5, 127359, Note_on_c, 0, 48, 62
5, 127520, Note_on_c, 0, 48, 0
5, 127520, Note_on_c, 0, 36, 62
5, 127680, Note_on_c, 0, 36, 0
5, 127680, Note_on_c, 0, 29, 62
5, 127680, Note_on_c, 0, 41, 62
5, 128160, Note_on_c, 0, 41, 0
5, 128160, Note_on_c, 0, 29, 0
5, 128319, Note_on_c, 0, 45, 62
5, 128480, Note_on_c, 0, 45, 0
5, 128480, Note_on_c, 0, 33, 62
5, 128640, Note_on_c, 0, 33, 0
5, 128640, Note_on_c, 0, 29, 62
5, 128640, Note_on_c, 0, 41, 62
5, 129120, Note_on_c, 0, 41, 0
5, 129120, Note_on_c, 0, 29, 0
5, 129279, Note_on_c, 0, 45, 62
5, 129440, Note_on_c, 0, 45, 0
5, 129440, Note_on_c, 0, 33, 62
5, 129600, Note_on_c, 0, 33, 0
5, 129600, Note_on_c, 0, 29, 62
5, 129600, Note_on_c, 0, 41, 62
5, 130080, Note_on_c, 0, 41, 0
5, 130080, Note_on_c, 0, 29, 0
5, 130320, Note_on_c, 0, 33, 62
5, 130560, Note_on_c, 0, 33, 0
5, 130560, Note_on_c, 0, 29, 62
5, 130560, Note_on_c, 0, 41, 62
5, 131040, Note_on_c, 0, 41, 0
5, 131040, Note_on_c, 0, 29, 0
5, 131280, Note_on_c, 0, 33, 62
5, 131520, Note_on_c, 0, 33, 0
5, 131520, Note_on_c, 0, 29, 62
5, 131520, Note_on_c, 0, 41, 62
5, 132480, Note_on_c, 0, 41, 0
5, 132480, Note_on_c, 0, 29, 0
5, 132480, Note_on_c, 0, 29, 62
5, 132480, Note_on_c, 0, 41, 62
5, 133680, Note_on_c, 0, 41, 0
5, 133680, Note_on_c, 0, 29, 0
5, 135600, Control_c, 0, 64, 127
5, 135600, Note_on_c, 0, 48, 75
5, 135780, Note_on_c, 0, 51, 75
5, 135840, Note_on_c, 0, 51, 0
5, 135840, Note_on_c, 0, 48, 0
5, 135840, Note_on_c, 0, 49, 75
5, 136080, Note_on_c, 0, 49, 0
5, 136080, Control_c, 0, 64, 0
5, 136080, Note_on_c, 0, 48, 75
5, 136320, Note_on_c, 0, 48, 0
5, 136320, Control_c, 0, 64, 127
5, 136320, Note_on_c, 0, 29, 75
5, 136560, Note_on_c, 0, 29, 0
5, 136560, Note_on_c, 0, 41, 75
5, 137040, Note_on_c, 0, 41, 0
5, 137040, Control_c, 0, 64, 0
5, 137040, Note_on_c, 0, 41, 75
5, 137280, Note_on_c, 0, 41, 0
5, 137280, Control_c, 0, 64, 127
5, 137280, Note_on_c, 0, 32, 75
5, 137520, Note_on_c, 0, 32, 0
5, 137520, Note_on_c, 0, 44, 75
5, 138000, Note_on_c, 0, 44, 0
5, 138000, Control_c, 0, 64, 0
5, 138000, Note_on_c, 0, 44, 75
5, 138240, Note_on_c, 0, 44, 0
5, 138240, Control_c, 0, 64, 127
5, 138240, Note_on_c, 0, 34, 75
5, 138480, Note_on_c, 0, 34, 0
5, 138480, Note_on_c, 0, 46, 75
5, 138960, Note_on_c, 0, 46, 0
5, 138960, Control_c, 0, 64, 0
5, 138960, Note_on_c, 0, 46, 75
5, 139200, Note_on_c, 0, 46, 0
5, 139200, Control_c, 0, 64, 127
5, 139200, Note_on_c, 0, 31, 75
5, 139440, Note_on_c, 0, 31, 0
5, 139440, Note_on_c, 0, 43, 75
5, 139920, Note_on_c, 0, 43, 0
5, 139920, Control_c, 0, 64, 0
5, 139920, Note_on_c, 0, 43, 75
5, 140160, Note_on_c, 0, 43, 0
5, 140160, Control_c, 0, 64, 127
5, 140160, Note_on_c, 0, 36, 75
5, 140400, Note_on_c, 0, 36, 0
5, 140400, Note_on_c, 0, 48, 75
5, 140880, Note_on_c, 0, 48, 0
5, 140880, Control_c, 0, 64, 0
5, 140880, Note_on_c, 0, 48, 75
5, 141120, Note_on_c, 0, 48, 0
5, 141120, Control_c, 0, 64, 127
5, 141120, Note_on_c, 0, 24, 75
5, 141360, Note_on_c, 0, 24, 0
5, 141360, Note_on_c, 0, 36, 75
5, 141840, Note_on_c, 0, 36, 0
5, 141840, Control_c, 0, 64, 0
5, 141840, Note_on_c, 0, 36, 75
5, 142080, Note_on_c, 0, 36, 0
5, 142080, Control_c, 0, 64, 127
5, 142080, Note_on_c, 0, 29, 75
5, 142320, Note_on_c, 0, 29, 0
5, 142320, Note_on_c, 0, 41, 75
5, 142800, Note_on_c, 0, 41, 0
5, 142800, Control_c, 0, 64, 0
5, 142800, Note_on_c, 0, 41, 75
5, 143040, Note_on_c, 0, 41, 0
5, 143040, Control_c, 0, 64, 127
5, 143040, Note_on_c, 0, 29, 75
5, 143280, Note_on_c, 0, 29, 0
5, 143280, Note_on_c, 0, 41, 75
5, 143760, Note_on_c, 0, 41, 0
5, 143760, Control_c, 0, 64, 0
5, 143760, Note_on_c, 0, 41, 75
5, 144000, Note_on_c, 0, 41, 0
5, 144000, Control_c, 0, 64, 127
5, 144000, Note_on_c, 0, 32, 75
5, 144240, Note_on_c, 0, 32, 0
5, 144240, Note_on_c, 0, 44, 75
5, 144720, Note_on_c, 0, 44, 0
5, 144720, Control_c, 0, 64, 0
5, 144720, Note_on_c, 0, 44, 75
5, 144960, Note_on_c, 0, 44, 0
5, 144960, Control_c, 0, 64, 127
5, 144960, Note_on_c, 0, 29, 75
5, 145200, Note_on_c, 0, 29, 0
5, 145200, Note_on_c, 0, 41, 75
5, 145680, Note_on_c, 0, 41, 0
5, 145680, Control_c, 0, 64, 0
5, 145680, Note_on_c, 0, 41, 75
5, 145920, Note_on_c, 0, 41, 0
5, 145920, Control_c, 0, 64, 127
5, 145920, Note_on_c, 0, 34, 75
5, 146160, Note_on_c, 0, 34, 0
5, 146160, Note_on_c, 0, 46, 75
5, 146640, Note_on_c, 0, 46, 0
5, 146640, Control_c, 0, 64, 0
5, 146640, Note_on_c, 0, 46, 75
5, 146880, Note_on_c, 0, 46, 0
5, 146880, Control_c, 0, 64, 127
5, 146880, Note_on_c, 0, 31, 75
5, 147120, Note_on_c, 0, 31, 0
5, 147120, Note_on_c, 0, 43, 75
5, 147600, Note_on_c, 0, 43, 0
5, 147600, Control_c, 0, 64, 0
5, 147600, Note_on_c, 0, 43, 75
5, 147840, Note_on_c, 0, 43, 0
5, 147840, Control_c, 0, 64, 127
5, 147840, Note_on_c, 0, 36, 75
5, 148080, Note_on_c, 0, 36, 0
5, 148080, Note_on_c, 0, 48, 75
5, 148560, Note_on_c, 0, 48, 0
5, 148560, Control_c, 0, 64, 0
5, 148560, Note_on_c, 0, 48, 75
5, 148800, Note_on_c, 0, 48, 0
5, 148800, Control_c, 0, 64, 127
5, 148800, Note_on_c, 0, 24, 75
5, 149040, Note_on_c, 0, 24, 0
5, 149040, Note_on_c, 0, 36, 75
5, 149520, Note_on_c, 0, 36, 0
5, 149520, Control_c, 0, 64, 0
5, 149520, Note_on_c, 0, 36, 75
5, 149760, Note_on_c, 0, 36, 0
5, 149760, Control_c, 0, 64, 127
5, 149760, Note_on_c, 0, 29, 75
5, 149760, Note_on_c, 0, 53, 75
5, 150000, Note_on_c, 0, 29, 0
5, 150000, Note_on_c, 0, 41, 75
5, 150480, Note_on_c, 0, 41, 0
5, 150480, Control_c, 0, 64, 0
5, 150480, Note_on_c, 0, 41, 75
5, 150720, Note_on_c, 0, 41, 0
5, 150720, Note_on_c, 0, 53, 0
5, 150720, Note_on_c, 0, 29, 75
5, 150960, Note_on_c, 0, 29, 0
5, 150960, Note_on_c, 0, 36, 75
5, 150960, Note_on_c, 0, 48, 75
5, 151440, Note_on_c, 0, 48, 0
5, 151440, Note_on_c, 0, 36, 0
5, 151440, Note_on_c, 0, 32, 75
5, 151440, Note_on_c, 0, 44, 75
5, 151680, Note_on_c, 0, 44, 0
5, 151680, Note_on_c, 0, 32, 0
5, 151680, Control_c, 0, 64, 127
5, 151680, Note_on_c, 0, 29, 75
5, 151920, Note_on_c, 0, 29, 0
5, 151920, Note_on_c, 0, 41, 75
5, 152400, Note_on_c, 0, 41, 0
5, 152400, Control_c, 0, 64, 0
5, 152400, Note_on_c, 0, 41, 75
5, 152640, Note_on_c, 0, 41, 0
5, 152640, Control_c, 0, 64, 127
5, 152640, Note_on_c, 0, 32, 75
5, 152880, Note_on_c, 0, 32, 0
5, 152880, Note_on_c, 0, 44, 75
5, 153360, Note_on_c, 0, 44, 0
5, 153360, Control_c, 0, 64, 0
5, 153360, Note_on_c, 0, 44, 75
5, 153600, Note_on_c, 0, 44, 0
5, 153600, Control_c, 0, 64, 127
5, 153600, Note_on_c, 0, 34, 75
5, 153840, Note_on_c, 0, 34, 0
5, 153840, Note_on_c, 0, 46, 75
5, 154320, Note_on_c, 0, 46, 0
5, 154320, Control_c, 0, 64, 0
5, 154320, Note_on_c, 0, 46, 75
5, 154560, Note_on_c, 0, 46, 0
5, 154560, Control_c, 0, 64, 127
5, 154560, Note_on_c, 0, 31, 75
5, 154800, Note_on_c, 0, 31, 0
5, 154800, Note_on_c, 0, 43, 75
5, 155280, Note_on_c, 0, 43, 0
5, 155280, Control_c, 0, 64, 0
5, 155280, Note_on_c, 0, 43, 75
5, 155520, Note_on_c, 0, 43, 0
5, 155520, Control_c, 0, 64, 127
5, 155520, Note_on_c, 0, 36, 75
5, 155760, Note_on_c, 0, 36, 0
5, 155760, Note_on_c, 0, 48, 75
5, 156240, Note_on_c, 0, 48, 0
5, 156240, Control_c, 0, 64, 0
5, 156240, Note_on_c, 0, 48, 75
5, 156480, Note_on_c, 0, 48, 0
5, 156480, Control_c, 0, 64, 127
5, 156480, Note_on_c, 0, 24, 75
5, 156720, Note_on_c, 0, 24, 0
5, 156720, Note_on_c, 0, 36, 75
5, 157200, Note_on_c, 0, 36, 0
5, 157200, Control_c, 0, 64, 0
5, 157200, Note_on_c, 0, 36, 75
5, 157440, Note_on_c, 0, 36, 0
5, 157440, Control_c, 0, 64, 127
5, 157440, Note_on_c, 0, 29, 75
5, 157680, Note_on_c, 0, 29, 0
5, 157680, Note_on_c, 0, 41, 75
5, 158160, Note_on_c, 0, 41, 0
5, 158160, Control_c, 0, 64, 0
5, 158160, Note_on_c, 0, 41, 75
5, 158400, Note_on_c, 0, 41, 0
5, 158400, Control_c, 0, 64, 127
5, 158400, Note_on_c, 0, 29, 75
5, 158640, Note_on_c, 0, 29, 0
5, 158640, Note_on_c, 0, 41, 75
5, 159120, Note_on_c, 0, 41, 0
5, 159120, Control_c, 0, 64, 0
5, 159120, Note_on_c, 0, 41, 75
5, 159360, Note_on_c, 0, 41, 0
5, 159360, Control_c, 0, 64, 127
5, 159360, Note_on_c, 0, 32, 75
5, 159600, Note_on_c, 0, 32, 0
5, 159600, Note_on_c, 0, 44, 75
5, 160080, Note_on_c, 0, 44, 0
5, 160080, Control_c, 0, 64, 0
5, 160080, Note_on_c, 0, 44, 75
5, 160320, Note_on_c, 0, 44, 0
5, 160320, Control_c, 0, 64, 127
5, 160320, Note_on_c, 0, 29, 75
5, 160560, Note_on_c, 0, 29, 0
5, 160560, Note_on_c, 0, 41, 75
5, 161040, Note_on_c, 0, 41, 0
5, 161040, Control_c, 0, 64, 0
5, 161040, Note_on_c, 0, 41, 75
5, 161280, Note_on_c, 0, 41, 0
5, 161280, Control_c, 0, 64, 127
5, 161280, Note_on_c, 0, 34, 75
5, 161520, Note_on_c, 0, 34, 0
5, 161520, Note_on_c, 0, 46, 75
5, 162000, Note_on_c, 0, 46, 0
5, 162000, Control_c, 0, 64, 0
5, 162000, Note_on_c, 0, 46, 75
5, 162240, Note_on_c, 0, 46, 0
5, 162240, Control_c, 0, 64, 127
5, 162240, Note_on_c, 0, 31, 75
5, 162480, Note_on_c, 0, 31, 0
5, 162480, Note_on_c, 0, 43, 75
5, 162960, Note_on_c, 0, 43, 0
5, 162960, Control_c, 0, 64, 0
5, 162960, Note_on_c, 0, 43, 75
5, 163200, Note_on_c, 0, 43, 0
5, 163200, Control_c, 0, 64, 127
5, 163200, Note_on_c, 0, 36, 75
5, 163440, Note_on_c, 0, 36, 0
5, 163440, Note_on_c, 0, 48, 75
5, 163920, Note_on_c, 0, 48, 0
5, 163920, Control_c, 0, 64, 0
5, 163920, Note_on_c, 0, 48, 75
5, 164160, Note_on_c, 0, 48, 0
5, 164160, Control_c, 0, 64, 127
5, 164160, Note_on_c, 0, 24, 75
5, 164400, Note_on_c, 0, 24, 0
5, 164400, Note_on_c, 0, 36, 75
5, 164880, Note_on_c, 0, 36, 0
5, 164880, Control_c, 0, 64, 0
5, 164880, Note_on_c, 0, 36, 75
5, 165120, Note_on_c, 0, 36, 0
5, 165120, Control_c, 0, 64, 127
5, 165120, Note_on_c, 0, 29, 75
5, 165360, Note_on_c, 0, 29, 0
5, 165360, Note_on_c, 0, 41, 75
5, 165840, Note_on_c, 0, 41, 0
5, 165840, Note_on_c, 0, 41, 75
5, 166080, Control_c, 0, 64, 0
5, 166080, Note_on_c, 0, 29, 75
5, 166560, Note_on_c, 0, 29, 0
5, 166560, Note_on_c, 0, 41, 0
5, 167040, Note_on_c, 0, 27, 88
5, 167040, Note_on_c, 0, 39, 88
5, 168000, Note_on_c, 0, 39, 0
5, 168000, Note_on_c, 0, 27, 0
5, 168000, Note_on_c, 0, 38, 88
5, 168000, Note_on_c, 0, 50, 88
5, 168047, Note_on_c, 0, 50, 0
5, 168047, Note_on_c, 0, 38, 0
5, 168480, Note_on_c, 0, 37, 88
5, 168480, Note_on_c, 0, 49, 88
5, 168527, Note_on_c, 0, 49, 0
5, 168527, Note_on_c, 0, 37, 0
5, 168960, Note_on_c, 0, 36, 88
5, 168960, Note_on_c, 0, 48, 88
5, 169920, Note_on_c, 0, 48, 0
5, 169920, Note_on_c, 0, 36, 0
5, 169920, Note_on_c, 0, 32, 88
5, 169920, Note_on_c, 0, 44, 88
5, 169967, Note_on_c, 0, 44, 0
5, 169967, Note_on_c, 0, 32, 0
5, 170400, Note_on_c, 0, 30, 88
5, 170400, Note_on_c, 0, 42, 88
5, 170447, Note_on_c, 0, 42, 0
5, 170447, Note_on_c, 0, 30, 0
5, 170880, Note_on_c, 0, 29, 88
5, 170880, Note_on_c, 0, 41, 88
5, 171840, Note_on_c, 0, 41, 0
5, 171840, Note_on_c, 0, 29, 0
5, 171840, Note_on_c, 0, 31, 88
5, 171840, Note_on_c, 0, 43, 88
5, 171887, Note_on_c, 0, 43, 0
5, 171887, Note_on_c, 0, 31, 0
5, 172320, Note_on_c, 0, 33, 88
5, 172320, Note_on_c, 0, 45, 88
5, 172367, Note_on_c, 0, 45, 0
5, 172367, Note_on_c, 0, 33, 0
5, 172800, Note_on_c, 0, 34, 88
5, 172800, Note_on_c, 0, 46, 88
5, 173760, Note_on_c, 0, 46, 0
5, 173760, Note_on_c, 0, 34, 0
5, 173760, Note_on_c, 0, 37, 88
5, 173760, Note_on_c, 0, 49, 88
5, 173807, Note_on_c, 0, 49, 0
5, 173807, Note_on_c, 0, 37, 0
5, 174240, Note_on_c, 0, 34, 88
5, 174240, Note_on_c, 0, 46, 88
5, 174287, Note_on_c, 0, 46, 0
5, 174287, Note_on_c, 0, 34, 0
5, 174720, Note_on_c, 0, 27, 88
5, 174720, Note_on_c, 0, 39, 88
5, 175680, Note_on_c, 0, 39, 0
5, 175680, Note_on_c, 0, 27, 0
5, 175680, Note_on_c, 0, 29, 88
5, 175680, Note_on_c, 0, 41, 88
5, 175727, Note_on_c, 0, 41, 0
5, 175727, Note_on_c, 0, 29, 0
5, 176160, Note_on_c, 0, 31, 88
5, 176160, Note_on_c, 0, 43, 88
5, 176207, Note_on_c, 0, 43, 0
5, 176207, Note_on_c, 0, 31, 0
5, 176640, Note_on_c, 0, 32, 88
5, 176640, Note_on_c, 0, 44, 88
5, 177600, Note_on_c, 0, 44, 0
5, 177600, Note_on_c, 0, 32, 0
5, 177600, Note_on_c, 0, 36, 88
5, 177600, Note_on_c, 0, 48, 88
5, 177647, Note_on_c, 0, 48, 0
5, 177647, Note_on_c, 0, 36, 0
5, 178080, Note_on_c, 0, 32, 88
5, 178080, Note_on_c, 0, 44, 88
5, 178127, Note_on_c, 0, 44, 0
5, 178127, Note_on_c, 0, 32, 0
5, 178560, Note_on_c, 0, 31, 88
5, 178560, Note_on_c, 0, 43, 88
5, 179520, Note_on_c, 0, 43, 0
5, 179520, Note_on_c, 0, 31, 0
5, 179520, Note_on_c, 0, 36, 88
5, 179520, Note_on_c, 0, 48, 88
5, 179567, Note_on_c, 0, 48, 0
5, 179567, Note_on_c, 0, 36, 0
5, 180000, Note_on_c, 0, 24, 88
5, 180000, Note_on_c, 0, 36, 88
5, 180047, Note_on_c, 0, 36, 0
5, 180047, Note_on_c, 0, 24, 0
5, 180480, Note_on_c, 0, 29, 88
5, 180480, Note_on_c, 0, 41, 88
5, 181440, Note_on_c, 0, 41, 0
5, 181440, Note_on_c, 0, 29, 0
5, 181440, Note_on_c, 0, 32, 88
5, 181440, Note_on_c, 0, 44, 88
5, 181487, Note_on_c, 0, 44, 0
5, 181487, Note_on_c, 0, 32, 0
5, 181920, Note_on_c, 0, 29, 88
5, 181920, Note_on_c, 0, 41, 88
5, 181967, Note_on_c, 0, 41, 0
5, 181967, Note_on_c, 0, 29, 0
5, 182400, Note_on_c, 0, 27, 88
5, 182400, Note_on_c, 0, 39, 88
5, 183360, Note_on_c, 0, 39, 0
5, 183360, Note_on_c, 0, 27, 0
5, 183360, Note_on_c, 0, 38, 88
5, 183360, Note_on_c, 0, 50, 88
5, 183407, Note_on_c, 0, 50, 0
5, 183407, Note_on_c, 0, 38, 0
5, 183840, Note_on_c, 0, 37, 88
5, 183840, Note_on_c, 0, 49, 88
5, 183887, Note_on_c, 0, 49, 0
5, 183887, Note_on_c, 0, 37, 0
5, 184320, Note_on_c, 0, 36, 88
5, 184320, Note_on_c, 0, 48, 88
5, 185280, Note_on_c, 0, 48, 0
5, 185280, Note_on_c, 0, 36, 0
5, 185280, Note_on_c, 0, 32, 88
5, 185280, Note_on_c, 0, 44, 88
5, 185327, Note_on_c, 0, 44, 0
5, 185327, Note_on_c, 0, 32, 0
5, 185760, Note_on_c, 0, 30, 88
5, 185760, Note_on_c, 0, 42, 88
5, 185807, Note_on_c, 0, 42, 0
5, 185807, Note_on_c, 0, 30, 0
5, 186240, Note_on_c, 0, 29, 88
5, 186240, Note_on_c, 0, 41, 88
5, 187200, Note_on_c, 0, 41, 0
5, 187200, Note_on_c, 0, 29, 0
5, 187200, Note_on_c, 0, 31, 88
5, 187200, Note_on_c, 0, 43, 88
5, 187247, Note_on_c, 0, 43, 0
5, 187247, Note_on_c, 0, 31, 0
5, 187680, Note_on_c, 0, 33, 88
5, 187680, Note_on_c, 0, 45, 88
5, 187727, Note_on_c, 0, 45, 0
5, 187727, Note_on_c, 0, 33, 0
5, 188160, Note_on_c, 0, 34, 88
5, 188160, Note_on_c, 0, 46, 88
5, 189120, Note_on_c, 0, 46, 0
5, 189120, Note_on_c, 0, 34, 0
5, 189120, Note_on_c, 0, 37, 88
5, 189120, Note_on_c, 0, 49, 88
5, 189167, Note_on_c, 0, 49, 0
5, 189167, Note_on_c, 0, 37, 0
5, 189600, Note_on_c, 0, 34, 88
5, 189600, Note_on_c, 0, 46, 88
5, 189647, Note_on_c, 0, 46, 0
5, 189647, Note_on_c, 0, 34, 0
5, 190080, Note_on_c, 0, 27, 88
5, 190080, Note_on_c, 0, 39, 88
5, 191040, Note_on_c, 0, 39, 0
5, 191040, Note_on_c, 0, 27, 0
5, 191040, Note_on_c, 0, 29, 88
5, 191040, Note_on_c, 0, 41, 88
5, 191087, Note_on_c, 0, 41, 0
5, 191087, Note_on_c, 0, 29, 0
5, 191520, Note_on_c, 0, 31, 88
5, 191520, Note_on_c, 0, 43, 88
5, 191567, Note_on_c, 0, 43, 0
5, 191567, Note_on_c, 0, 31, 0
5, 192000, Note_on_c, 0, 32, 88
5, 192000, Note_on_c, 0, 44, 88
5, 192960, Note_on_c, 0, 44, 0
5, 192960, Note_on_c, 0, 32, 0
5, 192960, Note_on_c, 0, 36, 88
5, 192960, Note_on_c, 0, 48, 88
5, 193007, Note_on_c, 0, 48, 0
5, 193007, Note_on_c, 0, 36, 0
5, 193440, Note_on_c, 0, 32, 88
5, 193440, Note_on_c, 0, 44, 88
5, 193487, Note_on_c, 0, 44, 0
5, 193487, Note_on_c, 0, 32, 0
5, 193920, Note_on_c, 0, 31, 88
5, 193920, Note_on_c, 0, 43, 88
5, 194880, Note_on_c, 0, 43, 0
5, 194880, Note_on_c, 0, 31, 0
5, 194880, Note_on_c, 0, 36, 88
5, 194880, Note_on_c, 0, 48, 88
5, 194927, Note_on_c, 0, 48, 0
5, 194927, Note_on_c, 0, 36, 0
5, 195360, Note_on_c, 0, 24, 88
5, 195360, Note_on_c, 0, 36, 88
5, 195407, Note_on_c, 0, 36, 0
5, 195407, Note_on_c, 0, 24, 0
5, 195840, Note_on_c, 0, 29, 88
5, 195840, Note_on_c, 0, 41, 88
5, 196800, Note_on_c, 0, 41, 0
5, 196800, Note_on_c, 0, 29, 0
5, 196800, Note_on_c, 0, 32, 88
5, 196800, Note_on_c, 0, 44, 88
5, 196847, Note_on_c, 0, 44, 0
5, 196847, Note_on_c, 0, 32, 0
5, 197280, Note_on_c, 0, 29, 88
5, 197280, Note_on_c, 0, 41, 88
5, 197327, Note_on_c, 0, 41, 0
5, 197327, Note_on_c, 0, 29, 0
5, 199200, Control_c, 0, 64, 127
5, 199200, Note_on_c, 0, 29, 49
5, 199440, Note_on_c, 0, 29, 0
5, 199440, Note_on_c, 0, 41, 49
5, 199920, Note_on_c, 0, 41, 0
5, 199920, Control_c, 0, 64, 0
5, 199920, Note_on_c, 0, 41, 49
5, 200160, Note_on_c, 0, 41, 0
5, 200160, Control_c, 0, 64, 127
5, 200160, Note_on_c, 0, 44, 62
5, 200400, Note_on_c, 0, 44, 0
5, 200400, Note_on_c, 0, 51, 62
5, 200880, Note_on_c, 0, 51, 0
5, 200880, Control_c, 0, 64, 0
5, 200880, Note_on_c, 0, 51, 62
5, 201120, Note_on_c, 0, 51, 0
5, 201120, Control_c, 0, 64, 127
5, 201120, Note_on_c, 0, 37, 75
5, 201120, Note_on_c, 0, 65, 75
5, 201360, Note_on_c, 0, 37, 0
5, 201360, Note_on_c, 0, 49, 75
5, 201840, Note_on_c, 0, 49, 0
5, 201840, Note_on_c, 0, 65, 0
5, 201840, Control_c, 0, 64, 0
5, 201840, Note_on_c, 0, 49, 75
5, 201840, Note_on_c, 0, 64, 75
5, 202080, Note_on_c, 0, 64, 0
5, 202080, Note_on_c, 0, 49, 0
5, 202080, Note_on_c, 0, 39, 62
5, 202320, Note_on_c, 0, 39, 0
5, 202320, Note_on_c, 0, 39, 62
5, 202800, Note_on_c, 0, 39, 0
5, 202800, Note_on_c, 0, 39, 62
5, 203040, Note_on_c, 0, 39, 0
5, 203040, Control_c, 0, 64, 127
5, 203040, Note_on_c, 0, 37, 62
5, 203280, Note_on_c, 0, 37, 0
5, 203280, Note_on_c, 0, 49, 62
5, 203760, Note_on_c, 0, 49, 0
5, 203760, Control_c, 0, 64, 0
5, 203760, Note_on_c, 0, 49, 62
5, 204000, Note_on_c, 0, 49, 0
5, 204000, Control_c, 0, 64, 127
5, 204000, Note_on_c, 0, 36, 62
5, 204240, Note_on_c, 0, 36, 0
5, 204240, Note_on_c, 0, 48, 62
5, 204720, Note_on_c, 0, 48, 0
5, 204720, Control_c, 0, 64, 0
5, 204720, Note_on_c, 0, 48, 62
5, 204960, Note_on_c, 0, 48, 0
5, 204960, Control_c, 0, 64, 127
5, 204960, Note_on_c, 0, 29, 62
5, 205200, Note_on_c, 0, 29, 0
5, 205200, Note_on_c, 0, 41, 62
5, 205680, Note_on_c, 0, 41, 0
5, 205680, Control_c, 0, 64, 0
5, 205680, Note_on_c, 0, 41, 62
5, 205920, Note_on_c, 0, 41, 0
5, 205920, Control_c, 0, 64, 127
5, 205920, Note_on_c, 0, 29, 62
5, 206160, Note_on_c, 0, 29, 0
5, 206160, Note_on_c, 0, 41, 62
5, 206640, Note_on_c, 0, 41, 0
5, 206640, Control_c, 0, 64, 0
5, 206640, Note_on_c, 0, 41, 62
5, 206880, Note_on_c, 0, 41, 0
5, 206880, Control_c, 0, 64, 127
5, 206880, Note_on_c, 0, 32, 62
5, 207120, Note_on_c, 0, 32, 0
5, 207120, Note_on_c, 0, 44, 62
5, 207600, Note_on_c, 0, 44, 0
5, 207600, Control_c, 0, 64, 0
5, 207600, Note_on_c, 0, 44, 62
5, 207840, Note_on_c, 0, 44, 0
5, 207840, Control_c, 0, 64, 127
5, 207840, Note_on_c, 0, 29, 62
5, 208080, Note_on_c, 0, 29, 0
5, 208080, Note_on_c, 0, 41, 62
5, 208560, Note_on_c, 0, 41, 0
5, 208560, Control_c, 0, 64, 0
5, 208560, Note_on_c, 0, 41, 62
5, 208800, Note_on_c, 0, 41, 0
5, 208800, Control_c, 0, 64, 127
5, 208800, Note_on_c, 0, 34, 62
5, 209040, Note_on_c, 0, 34, 0
5, 209040, Note_on_c, 0, 46, 62
5, 209520, Note_on_c, 0, 46, 0
5, 209520, Control_c, 0, 64, 0
5, 209520, Note_on_c, 0, 46, 62
5, 209760, Note_on_c, 0, 46, 0
5, 209760, Control_c, 0, 64, 127
5, 209760, Note_on_c, 0, 31, 62
5, 210000, Note_on_c, 0, 31, 0
5, 210000, Note_on_c, 0, 43, 62
5, 210480, Note_on_c, 0, 43, 0
5, 210480, Control_c, 0, 64, 0
5, 210480, Note_on_c, 0, 43, 62
5, 210720, Note_on_c, 0, 43, 0
5, 210720, Control_c, 0, 64, 127
5, 210720, Note_on_c, 0, 36, 88
5, 210960, Note_on_c, 0, 36, 0
5, 210960, Note_on_c, 0, 48, 88
5, 211440, Note_on_c, 0, 48, 0
5, 211440, Control_c, 0, 64, 0
5, 211440, Note_on_c, 0, 48, 88
5, 211680, Note_on_c, 0, 48, 0
5, 211680, Control_c, 0, 64, 127
5, 211680, Note_on_c, 0, 24, 88
5, 211920, Note_on_c, 0, 24, 0
5, 211920, Note_on_c, 0, 36, 88
5, 212400, Note_on_c, 0, 36, 0
5, 212400, Control_c, 0, 64, 0
5, 212400, Note_on_c, 0, 36, 88
5, 212640, Note_on_c, 0, 36, 0
5, 212640, Control_c, 0, 64, 127
5, 212640, Note_on_c, 0, 29, 88
5, 212880, Note_on_c, 0, 29, 0
5, 212880, Note_on_c, 0, 41, 88
5, 213360, Note_on_c, 0, 41, 0
5, 213360, Control_c, 0, 64, 0
5, 213360, Note_on_c, 0, 41, 88
5, 213540, Note_on_c, 0, 29, 114
5, 213600, Note_on_c, 0, 41, 0
5, 213600, Note_on_c, 0, 41, 114
5, 213623, Note_on_c, 0, 41, 0
5, 213623, Note_on_c, 0, 29, 0
5, 213623, End_track
0, 0, End_of_file
