0, 0, Header, 1, 7, 192
1, 0, Start_track
1, 0, Title_t, "65651A"
1, 0, Copyright_t, "May NOT be used for commercial purposes."
1, 0, Text_t, "Roll expression/accent tracks, where present, converted to MIDI velocties.\012"
1, 0, Time_signature, 4, 2, 24, 8
1, 0, Key_signature, 0, "major"
1, 0, Tempo, 500000
1, 0, Marker_t, "Standard MIDI:LPI 134:Tempo  80: 08-23-2003"
1, 0, End_track
2, 0, Start_track
2, 0, Title_t, "Hungarian Dance No 5 Pt 2"
2, 165, Note_on_c, 0, 42, 70
2, 283, Note_on_c, 0, 57, 63
2, 285, Note_on_c, 0, 49, 63
2, 285, Note_on_c, 0, 54, 61
2, 287, Note_on_c, 0, 42, 0
2, 371, Note_on_c, 0, 57, 0
2, 371, Note_on_c, 0, 49, 0
2, 371, Note_on_c, 0, 54, 0
2, 373, Note_on_c, 0, 37, 71
2, 448, Note_on_c, 0, 49, 64
2, 448, Note_on_c, 0, 54, 59
2, 448, Note_on_c, 0, 57, 62
2, 454, Note_on_c, 0, 37, 0
2, 530, Note_on_c, 0, 49, 0
2, 530, Note_on_c, 0, 54, 0
2, 530, Note_on_c, 0, 57, 0
2, 530, Note_on_c, 0, 42, 71
2, 603, Note_on_c, 0, 42, 0
2, 607, Note_on_c, 0, 57, 60
2, 609, Note_on_c, 0, 49, 55
2, 609, Note_on_c, 0, 54, 57
2, 672, Note_on_c, 0, 54, 0
2, 672, Note_on_c, 0, 49, 0
2, 672, Note_on_c, 0, 57, 0
2, 686, Note_on_c, 0, 37, 62
2, 754, Note_on_c, 0, 37, 0
2, 756, Note_on_c, 0, 54, 63
2, 756, Note_on_c, 0, 57, 64
2, 758, Note_on_c, 0, 49, 61
2, 828, Note_on_c, 0, 57, 0
2, 828, Note_on_c, 0, 54, 0
2, 830, Note_on_c, 0, 49, 0
2, 837, Note_on_c, 0, 42, 69
2, 847, Control_c, 0, 64, 127
2, 895, Note_on_c, 0, 42, 0
2, 901, Note_on_c, 0, 50, 72
2, 901, Note_on_c, 0, 54, 66
2, 901, Note_on_c, 0, 59, 70
2, 951, Control_c, 0, 64, 0
2, 960, Note_on_c, 0, 59, 0
2, 961, Note_on_c, 0, 54, 0
2, 963, Note_on_c, 0, 50, 0
2, 972, Note_on_c, 0, 35, 59
2, 1049, Note_on_c, 0, 50, 66
2, 1049, Note_on_c, 0, 54, 64
2, 1049, Note_on_c, 0, 59, 59
2, 1055, Note_on_c, 0, 35, 0
2, 1121, Note_on_c, 0, 59, 0
2, 1123, Note_on_c, 0, 54, 0
2, 1125, Note_on_c, 0, 50, 0
2, 1131, Note_on_c, 0, 42, 67
2, 1219, Note_on_c, 0, 49, 59
2, 1219, Note_on_c, 0, 54, 61
2, 1219, Note_on_c, 0, 57, 62
2, 1223, Note_on_c, 0, 42, 0
2, 1282, Note_on_c, 0, 57, 0
2, 1284, Note_on_c, 0, 54, 0
2, 1284, Note_on_c, 0, 49, 0
2, 1293, Note_on_c, 0, 37, 61
2, 1366, Note_on_c, 0, 37, 0
2, 1369, Note_on_c, 0, 57, 60
2, 1371, Note_on_c, 0, 49, 64
2, 1371, Note_on_c, 0, 54, 62
2, 1443, Note_on_c, 0, 54, 0
2, 1443, Note_on_c, 0, 49, 0
2, 1443, Note_on_c, 0, 57, 0
2, 1452, Note_on_c, 0, 42, 70
2, 1477, Control_c, 0, 64, 127
2, 1522, Note_on_c, 0, 42, 0
2, 1528, Note_on_c, 0, 47, 66
2, 1528, Note_on_c, 0, 54, 69
2, 1530, Note_on_c, 0, 50, 65
2, 1582, Control_c, 0, 64, 0
2, 1592, Note_on_c, 0, 50, 0
2, 1592, Note_on_c, 0, 54, 0
2, 1592, Note_on_c, 0, 47, 0
2, 1601, Note_on_c, 0, 35, 65
2, 1669, Note_on_c, 0, 35, 0
2, 1680, Note_on_c, 0, 47, 61
2, 1680, Note_on_c, 0, 50, 66
2, 1737, Note_on_c, 0, 50, 0
2, 1737, Note_on_c, 0, 47, 0
2, 1743, Note_on_c, 0, 42, 62
2, 1822, Note_on_c, 0, 49, 53
2, 1824, Note_on_c, 0, 45, 57
2, 1840, Note_on_c, 0, 42, 0
2, 1887, Note_on_c, 0, 45, 0
2, 1887, Note_on_c, 0, 49, 0
2, 1905, Note_on_c, 0, 37, 59
2, 1968, Note_on_c, 0, 37, 0
2, 1968, Control_c, 0, 64, 127
2, 1980, Note_on_c, 0, 45, 54
2, 1980, Note_on_c, 0, 49, 50
2, 2017, Control_c, 0, 64, 0
2, 2046, Note_on_c, 0, 49, 0
2, 2048, Note_on_c, 0, 45, 0
2, 2061, Note_on_c, 0, 41, 69
2, 2111, Control_c, 0, 64, 127
2, 2134, Note_on_c, 0, 41, 0
2, 2139, Note_on_c, 0, 49, 61
2, 2139, Note_on_c, 0, 53, 62
2, 2204, Note_on_c, 0, 53, 0
2, 2204, Note_on_c, 0, 49, 0
2, 2212, Note_on_c, 0, 37, 60
2, 2216, Control_c, 0, 64, 0
2, 2289, Note_on_c, 0, 49, 66
2, 2293, Note_on_c, 0, 37, 0
2, 2361, Note_on_c, 0, 49, 0
2, 2368, Note_on_c, 0, 42, 67
2, 2461, Note_on_c, 0, 45, 62
2, 2461, Note_on_c, 0, 49, 60
2, 2465, Note_on_c, 0, 42, 0
2, 2535, Note_on_c, 0, 49, 0
2, 2535, Note_on_c, 0, 45, 0
2, 2535, Note_on_c, 0, 37, 61
2, 2616, Note_on_c, 0, 37, 0
2, 2621, Note_on_c, 0, 45, 66
2, 2621, Note_on_c, 0, 49, 64
2, 2693, Note_on_c, 0, 49, 0
2, 2693, Note_on_c, 0, 45, 0
2, 2700, Note_on_c, 0, 42, 65
2, 2773, Note_on_c, 0, 42, 0
2, 2777, Note_on_c, 0, 57, 62
2, 2779, Note_on_c, 0, 49, 65
2, 2779, Note_on_c, 0, 54, 63
2, 2834, Note_on_c, 0, 57, 0
2, 2836, Note_on_c, 0, 54, 0
2, 2836, Note_on_c, 0, 49, 0
2, 2853, Note_on_c, 0, 37, 65
2, 2919, Note_on_c, 0, 37, 0
2, 2923, Note_on_c, 0, 49, 61
2, 2923, Note_on_c, 0, 54, 60
2, 2923, Note_on_c, 0, 57, 59
2, 2991, Note_on_c, 0, 57, 0
2, 2991, Note_on_c, 0, 54, 0
2, 2993, Note_on_c, 0, 49, 0
2, 2999, Note_on_c, 0, 42, 71
2, 3075, Note_on_c, 0, 54, 53
2, 3075, Note_on_c, 0, 57, 54
2, 3077, Note_on_c, 0, 49, 58
2, 3079, Note_on_c, 0, 42, 0
2, 3149, Note_on_c, 0, 54, 0
2, 3149, Note_on_c, 0, 57, 0
2, 3149, Note_on_c, 0, 49, 0
2, 3155, Note_on_c, 0, 37, 66
2, 3238, Note_on_c, 0, 49, 63
2, 3238, Note_on_c, 0, 54, 59
2, 3238, Note_on_c, 0, 57, 65
2, 3241, Note_on_c, 0, 37, 0
2, 3314, Note_on_c, 0, 54, 0
2, 3316, Note_on_c, 0, 49, 0
2, 3316, Note_on_c, 0, 57, 0
2, 3323, Note_on_c, 0, 42, 67
2, 3343, Control_c, 0, 64, 127
2, 3420, Note_on_c, 0, 59, 65
2, 3422, Note_on_c, 0, 47, 69
2, 3422, Note_on_c, 0, 50, 66
2, 3422, Note_on_c, 0, 54, 72
2, 3424, Note_on_c, 0, 42, 0
2, 3483, Control_c, 0, 64, 0
2, 3504, Note_on_c, 0, 59, 0
2, 3504, Note_on_c, 0, 54, 0
2, 3505, Note_on_c, 0, 47, 0
2, 3505, Note_on_c, 0, 50, 0
2, 3505, Note_on_c, 0, 35, 71
2, 3578, Note_on_c, 0, 35, 0
2, 3582, Note_on_c, 0, 54, 61
2, 3582, Note_on_c, 0, 59, 59
2, 3584, Note_on_c, 0, 47, 59
2, 3584, Note_on_c, 0, 50, 61
2, 3656, Note_on_c, 0, 59, 0
2, 3656, Note_on_c, 0, 54, 0
2, 3658, Note_on_c, 0, 47, 0
2, 3658, Note_on_c, 0, 50, 0
2, 3665, Note_on_c, 0, 42, 67
2, 3747, Note_on_c, 0, 42, 0
2, 3751, Note_on_c, 0, 54, 59
2, 3751, Note_on_c, 0, 57, 62
2, 3753, Note_on_c, 0, 49, 60
2, 3832, Note_on_c, 0, 57, 0
2, 3832, Note_on_c, 0, 54, 0
2, 3834, Note_on_c, 0, 49, 0
2, 3834, Note_on_c, 0, 30, 65
2, 3925, Note_on_c, 0, 54, 55
2, 3925, Note_on_c, 0, 57, 57
2, 3931, Note_on_c, 0, 30, 0
2, 3937, Control_c, 0, 67, 127
2, 3959, Note_on_c, 0, 57, 0
2, 3959, Note_on_c, 0, 54, 0
2, 4014, Note_on_c, 0, 54, 66
2, 4037, Note_on_c, 0, 54, 0
2, 4089, Note_on_c, 0, 57, 54
2, 4114, Note_on_c, 0, 57, 0
2, 4153, Note_on_c, 0, 52, 61
2, 4178, Note_on_c, 0, 52, 0
2, 4225, Note_on_c, 0, 56, 44
2, 4225, Note_on_c, 0, 61, 42
2, 4250, Note_on_c, 0, 61, 0
2, 4250, Note_on_c, 0, 56, 0
2, 4290, Note_on_c, 0, 50, 53
2, 4315, Note_on_c, 0, 50, 0
2, 4362, Note_on_c, 0, 54, 51
2, 4362, Note_on_c, 0, 59, 54
2, 4362, Note_on_c, 0, 62, 51
2, 4385, Note_on_c, 0, 62, 0
2, 4385, Note_on_c, 0, 59, 0
2, 4385, Note_on_c, 0, 54, 0
2, 4440, Note_on_c, 0, 49, 64
2, 4465, Note_on_c, 0, 49, 0
2, 4505, Note_on_c, 0, 57, 60
2, 4505, Note_on_c, 0, 61, 55
2, 4505, Note_on_c, 0, 64, 56
2, 4530, Note_on_c, 0, 64, 0
2, 4530, Note_on_c, 0, 61, 0
2, 4530, Note_on_c, 0, 57, 0
2, 4563, Note_on_c, 0, 37, 62
2, 4588, Note_on_c, 0, 37, 0
2, 4640, Note_on_c, 0, 56, 65
2, 4640, Note_on_c, 0, 61, 63
2, 4640, Note_on_c, 0, 65, 62
2, 4673, Note_on_c, 0, 65, 0
2, 4673, Note_on_c, 0, 61, 0
2, 4673, Note_on_c, 0, 56, 0
2, 4712, Note_on_c, 0, 49, 62
2, 4746, Note_on_c, 0, 49, 0
2, 4791, Note_on_c, 0, 61, 60
2, 4793, Note_on_c, 0, 53, 55
2, 4793, Note_on_c, 0, 56, 55
2, 4793, Note_on_c, 0, 59, 55
2, 4824, Note_on_c, 0, 59, 0
2, 4824, Note_on_c, 0, 61, 0
2, 4824, Note_on_c, 0, 53, 0
2, 4824, Note_on_c, 0, 56, 0
2, 4863, Note_on_c, 0, 42, 61
2, 4894, Note_on_c, 0, 42, 0
2, 4939, Note_on_c, 0, 54, 56
2, 4939, Note_on_c, 0, 57, 54
2, 4939, Note_on_c, 0, 61, 58
2, 4941, Note_on_c, 0, 49, 58
2, 4943, Control_c, 0, 67, 0
2, 4963, Note_on_c, 0, 49, 0
2, 4963, Note_on_c, 0, 54, 0
2, 4963, Note_on_c, 0, 57, 0
2, 4963, Note_on_c, 0, 61, 0
2, 5035, Note_on_c, 0, 42, 78
2, 5037, Note_on_c, 0, 30, 84
2, 5045, Control_c, 0, 64, 127
2, 5199, Note_on_c, 0, 42, 0
2, 5329, Control_c, 0, 64, 0
2, 5352, Note_on_c, 0, 30, 0
2, 5358, Note_on_c, 0, 42, 71
2, 5464, Note_on_c, 0, 49, 68
2, 5464, Note_on_c, 0, 54, 68
2, 5464, Note_on_c, 0, 57, 65
2, 5482, Note_on_c, 0, 42, 0
2, 5575, Note_on_c, 0, 57, 0
2, 5575, Note_on_c, 0, 54, 0
2, 5575, Note_on_c, 0, 37, 66
2, 5577, Note_on_c, 0, 49, 0
2, 5670, Note_on_c, 0, 54, 63
2, 5670, Note_on_c, 0, 57, 60
2, 5672, Note_on_c, 0, 49, 62
2, 5674, Note_on_c, 0, 37, 0
2, 5771, Note_on_c, 0, 54, 0
2, 5771, Note_on_c, 0, 57, 0
2, 5771, Note_on_c, 0, 49, 0
2, 5785, Note_on_c, 0, 42, 76
2, 5895, Note_on_c, 0, 42, 0
2, 5899, Note_on_c, 0, 54, 64
2, 5899, Note_on_c, 0, 57, 64
2, 5901, Note_on_c, 0, 49, 59
2, 5971, Note_on_c, 0, 49, 0
2, 5971, Note_on_c, 0, 57, 0
2, 5971, Note_on_c, 0, 54, 0
2, 5989, Note_on_c, 0, 37, 66
2, 6086, Note_on_c, 0, 37, 0
2, 6090, Note_on_c, 0, 49, 58
2, 6090, Note_on_c, 0, 54, 56
2, 6090, Note_on_c, 0, 57, 58
2, 6150, Note_on_c, 0, 57, 0
2, 6152, Note_on_c, 0, 54, 0
2, 6152, Note_on_c, 0, 49, 0
2, 6192, Note_on_c, 0, 42, 78
2, 6241, Control_c, 0, 64, 127
2, 6285, Note_on_c, 0, 47, 59
2, 6285, Note_on_c, 0, 59, 64
2, 6287, Note_on_c, 0, 50, 61
2, 6287, Note_on_c, 0, 54, 59
2, 6288, Note_on_c, 0, 42, 0
2, 6353, Control_c, 0, 64, 0
2, 6357, Note_on_c, 0, 54, 0
2, 6357, Note_on_c, 0, 59, 0
2, 6359, Note_on_c, 0, 47, 0
2, 6359, Note_on_c, 0, 50, 0
2, 6367, Note_on_c, 0, 35, 62
2, 6455, Note_on_c, 0, 35, 0
2, 6460, Note_on_c, 0, 47, 60
2, 6460, Note_on_c, 0, 50, 62
2, 6460, Note_on_c, 0, 54, 62
2, 6460, Note_on_c, 0, 59, 61
2, 6525, Note_on_c, 0, 59, 0
2, 6525, Note_on_c, 0, 47, 0
2, 6525, Note_on_c, 0, 50, 0
2, 6525, Note_on_c, 0, 54, 0
2, 6558, Note_on_c, 0, 42, 69
2, 6630, Note_on_c, 0, 42, 0
2, 6636, Note_on_c, 0, 54, 64
2, 6636, Note_on_c, 0, 57, 62
2, 6638, Note_on_c, 0, 49, 64
2, 6688, Control_c, 0, 64, 127
2, 6694, Note_on_c, 0, 49, 0
2, 6694, Note_on_c, 0, 57, 0
2, 6694, Note_on_c, 0, 54, 0
2, 6720, Note_on_c, 0, 37, 62
2, 6722, Control_c, 0, 64, 0
2, 6792, Note_on_c, 0, 37, 0
2, 6798, Note_on_c, 0, 49, 60
2, 6798, Note_on_c, 0, 54, 61
2, 6798, Note_on_c, 0, 57, 65
2, 6863, Note_on_c, 0, 57, 0
2, 6864, Note_on_c, 0, 54, 0
2, 6864, Note_on_c, 0, 49, 0
2, 6879, Note_on_c, 0, 42, 71
2, 6897, Control_c, 0, 64, 127
2, 6951, Note_on_c, 0, 42, 0
2, 6957, Note_on_c, 0, 47, 72
2, 6957, Note_on_c, 0, 50, 71
2, 6957, Note_on_c, 0, 54, 70
2, 6957, Note_on_c, 0, 59, 72
2, 7012, Control_c, 0, 64, 0
2, 7033, Note_on_c, 0, 59, 0
2, 7033, Note_on_c, 0, 54, 0
2, 7033, Note_on_c, 0, 35, 72
2, 7035, Note_on_c, 0, 50, 0
2, 7035, Note_on_c, 0, 47, 0
2, 7107, Note_on_c, 0, 35, 0
2, 7111, Note_on_c, 0, 50, 62
2, 7111, Note_on_c, 0, 54, 59
2, 7111, Note_on_c, 0, 59, 60
2, 7113, Note_on_c, 0, 47, 60
2, 7183, Note_on_c, 0, 47, 0
2, 7183, Note_on_c, 0, 50, 0
2, 7183, Note_on_c, 0, 54, 0
2, 7183, Note_on_c, 0, 59, 0
2, 7198, Note_on_c, 0, 42, 64
2, 7284, Note_on_c, 0, 49, 59
2, 7284, Note_on_c, 0, 54, 56
2, 7284, Note_on_c, 0, 57, 54
2, 7286, Note_on_c, 0, 42, 0
2, 7352, Note_on_c, 0, 49, 0
2, 7352, Note_on_c, 0, 54, 0
2, 7352, Note_on_c, 0, 57, 0
2, 7361, Note_on_c, 0, 37, 60
2, 7431, Note_on_c, 0, 49, 50
2, 7431, Note_on_c, 0, 57, 48
2, 7433, Note_on_c, 0, 54, 54
2, 7435, Note_on_c, 0, 37, 0
2, 7472, Note_on_c, 0, 49, 0
2, 7472, Note_on_c, 0, 57, 0
2, 7472, Note_on_c, 0, 54, 0
2, 7519, Note_on_c, 0, 41, 69
2, 7596, Note_on_c, 0, 61, 66
2, 7598, Note_on_c, 0, 49, 63
2, 7598, Note_on_c, 0, 53, 61
2, 7600, Note_on_c, 0, 41, 0
2, 7625, Control_c, 0, 64, 127
2, 7654, Note_on_c, 0, 61, 0
2, 7654, Note_on_c, 0, 49, 0
2, 7654, Note_on_c, 0, 53, 0
2, 7664, Control_c, 0, 64, 0
2, 7671, Note_on_c, 0, 37, 67
2, 7750, Note_on_c, 0, 37, 0
2, 7752, Note_on_c, 0, 59, 64
2, 7753, Note_on_c, 0, 49, 65
2, 7753, Note_on_c, 0, 53, 61
2, 7822, Note_on_c, 0, 53, 0
2, 7822, Note_on_c, 0, 49, 0
2, 7822, Note_on_c, 0, 59, 0
2, 7838, Note_on_c, 0, 42, 70
2, 7910, Note_on_c, 0, 42, 0
2, 7916, Note_on_c, 0, 57, 59
2, 7918, Note_on_c, 0, 49, 62
2, 7918, Note_on_c, 0, 54, 61
2, 7980, Note_on_c, 0, 54, 0
2, 7980, Note_on_c, 0, 49, 0
2, 7980, Note_on_c, 0, 57, 0
2, 7996, Note_on_c, 0, 37, 60
2, 8086, Note_on_c, 0, 57, 63
2, 8088, Note_on_c, 0, 49, 66
2, 8088, Note_on_c, 0, 54, 60
2, 8089, Note_on_c, 0, 37, 0
2, 8160, Note_on_c, 0, 57, 0
2, 8160, Note_on_c, 0, 49, 0
2, 8160, Note_on_c, 0, 54, 0
2, 8166, Note_on_c, 0, 42, 75
2, 8202, Control_c, 0, 64, 127
2, 8247, Note_on_c, 0, 42, 0
2, 8251, Note_on_c, 0, 54, 63
2, 8251, Note_on_c, 0, 57, 60
2, 8253, Note_on_c, 0, 49, 65
2, 8278, Note_on_c, 0, 49, 0
2, 8317, Note_on_c, 0, 57, 0
2, 8317, Note_on_c, 0, 54, 0
2, 8337, Control_c, 0, 64, 0
2, 8341, Note_on_c, 0, 49, 66
2, 8343, Note_on_c, 0, 37, 68
2, 8413, Note_on_c, 0, 49, 0
2, 8415, Note_on_c, 0, 37, 0
2, 8417, Note_on_c, 0, 61, 49
2, 8419, Note_on_c, 0, 57, 51
2, 8458, Note_on_c, 0, 61, 0
2, 8460, Note_on_c, 0, 57, 0
2, 8526, Note_on_c, 0, 42, 72
2, 8526, Note_on_c, 0, 54, 65
2, 8562, Control_c, 0, 64, 127
2, 8637, Note_on_c, 0, 69, 70
2, 8639, Note_on_c, 0, 57, 72
2, 8639, Note_on_c, 0, 61, 66
2, 8653, Note_on_c, 0, 54, 0
2, 8655, Note_on_c, 0, 42, 0
2, 8659, Control_c, 0, 64, 0
2, 8671, Note_on_c, 0, 57, 0
2, 8671, Note_on_c, 0, 69, 0
2, 8671, Note_on_c, 0, 61, 0
2, 8736, Note_on_c, 0, 37, 71
2, 8736, Note_on_c, 0, 49, 68
2, 8829, Note_on_c, 0, 57, 60
2, 8829, Note_on_c, 0, 61, 61
2, 8829, Note_on_c, 0, 66, 68
2, 8847, Note_on_c, 0, 49, 0
2, 8849, Note_on_c, 0, 37, 0
2, 8861, Note_on_c, 0, 61, 0
2, 8861, Note_on_c, 0, 57, 0
2, 8861, Note_on_c, 0, 66, 0
2, 8922, Note_on_c, 0, 54, 69
2, 8924, Note_on_c, 0, 42, 66
2, 8944, Control_c, 0, 64, 127
2, 9016, Note_on_c, 0, 56, 66
2, 9016, Note_on_c, 0, 59, 62
2, 9016, Note_on_c, 0, 62, 59
2, 9016, Note_on_c, 0, 65, 62
2, 9018, Note_on_c, 0, 54, 0
2, 9020, Note_on_c, 0, 42, 0
2, 9038, Control_c, 0, 64, 0
2, 9063, Note_on_c, 0, 59, 0
2, 9063, Note_on_c, 0, 65, 0
2, 9065, Note_on_c, 0, 56, 0
2, 9065, Note_on_c, 0, 62, 0
2, 9104, Note_on_c, 0, 47, 65
2, 9106, Note_on_c, 0, 35, 66
2, 9176, Note_on_c, 0, 47, 0
2, 9178, Note_on_c, 0, 35, 0
2, 9182, Note_on_c, 0, 56, 66
2, 9182, Note_on_c, 0, 59, 65
2, 9182, Note_on_c, 0, 62, 63
2, 9182, Note_on_c, 0, 65, 64
2, 9215, Note_on_c, 0, 65, 0
2, 9215, Note_on_c, 0, 56, 0
2, 9215, Note_on_c, 0, 59, 0
2, 9215, Note_on_c, 0, 62, 0
2, 9262, Note_on_c, 0, 54, 65
2, 9264, Note_on_c, 0, 42, 65
2, 9288, Control_c, 0, 64, 127
2, 9334, Note_on_c, 0, 42, 0
2, 9334, Note_on_c, 0, 54, 0
2, 9346, Note_on_c, 0, 61, 63
2, 9346, Note_on_c, 0, 66, 65
2, 9348, Note_on_c, 0, 57, 63
2, 9369, Control_c, 0, 64, 0
2, 9378, Note_on_c, 0, 57, 0
2, 9378, Note_on_c, 0, 66, 0
2, 9378, Note_on_c, 0, 61, 0
2, 9433, Note_on_c, 0, 42, 63
2, 9454, Control_c, 0, 67, 127
2, 9486, Note_on_c, 0, 42, 0
2, 9497, Note_on_c, 0, 57, 57
2, 9497, Note_on_c, 0, 61, 56
2, 9497, Note_on_c, 0, 66, 57
2, 9522, Note_on_c, 0, 66, 0
2, 9522, Note_on_c, 0, 61, 0
2, 9522, Note_on_c, 0, 57, 0
2, 9569, Note_on_c, 0, 54, 66
2, 9592, Note_on_c, 0, 54, 0
2, 9649, Note_on_c, 0, 57, 54
2, 9649, Note_on_c, 0, 62, 53
2, 9672, Note_on_c, 0, 62, 0
2, 9672, Note_on_c, 0, 57, 0
2, 9720, Note_on_c, 0, 52, 66
2, 9745, Note_on_c, 0, 52, 0
2, 9792, Note_on_c, 0, 57, 48
2, 9792, Note_on_c, 0, 61, 52
2, 9792, Note_on_c, 0, 64, 47
2, 9816, Note_on_c, 0, 64, 0
2, 9816, Note_on_c, 0, 61, 0
2, 9816, Note_on_c, 0, 57, 0
2, 9864, Note_on_c, 0, 50, 59
2, 9887, Note_on_c, 0, 50, 0
2, 9938, Note_on_c, 0, 54, 50
2, 9938, Note_on_c, 0, 59, 51
2, 9938, Note_on_c, 0, 62, 49
2, 9938, Note_on_c, 0, 66, 55
2, 9961, Note_on_c, 0, 66, 0
2, 9961, Note_on_c, 0, 59, 0
2, 9963, Note_on_c, 0, 62, 0
2, 9963, Note_on_c, 0, 54, 0
2, 10008, Note_on_c, 0, 49, 66
2, 10033, Note_on_c, 0, 49, 0
2, 10077, Note_on_c, 0, 64, 59
2, 10077, Note_on_c, 0, 69, 59
2, 10079, Note_on_c, 0, 57, 57
2, 10079, Note_on_c, 0, 61, 61
2, 10100, Note_on_c, 0, 61, 0
2, 10100, Note_on_c, 0, 64, 0
2, 10100, Note_on_c, 0, 69, 0
2, 10100, Note_on_c, 0, 57, 0
2, 10139, Note_on_c, 0, 37, 66
2, 10164, Note_on_c, 0, 37, 0
2, 10209, Note_on_c, 0, 73, 68
2, 10211, Note_on_c, 0, 61, 51
2, 10211, Note_on_c, 0, 65, 66
2, 10234, Note_on_c, 0, 73, 0
2, 10236, Note_on_c, 0, 65, 0
2, 10236, Note_on_c, 0, 61, 0
2, 10284, Note_on_c, 0, 49, 61
2, 10307, Note_on_c, 0, 49, 0
2, 10363, Note_on_c, 0, 59, 55
2, 10363, Note_on_c, 0, 61, 54
2, 10363, Note_on_c, 0, 65, 58
2, 10388, Note_on_c, 0, 65, 0
2, 10388, Note_on_c, 0, 61, 0
2, 10388, Note_on_c, 0, 59, 0
2, 10447, Note_on_c, 0, 42, 65
2, 10472, Note_on_c, 0, 42, 0
2, 10515, Control_c, 0, 67, 0
2, 10526, Note_on_c, 0, 57, 53
2, 10526, Note_on_c, 0, 61, 57
2, 10526, Note_on_c, 0, 66, 56
2, 10551, Note_on_c, 0, 66, 0
2, 10551, Note_on_c, 0, 61, 0
2, 10551, Note_on_c, 0, 57, 0
2, 10628, Note_on_c, 0, 42, 74
2, 10632, Note_on_c, 0, 30, 74
2, 10650, Control_c, 0, 64, 127
2, 10790, Note_on_c, 0, 42, 0
2, 10792, Note_on_c, 0, 30, 0
2, 10819, Control_c, 0, 64, 0
2, 10924, Note_on_c, 0, 46, 69
2, 10926, Note_on_c, 0, 34, 69
2, 10949, Note_on_c, 0, 46, 0
2, 10951, Note_on_c, 0, 34, 0
2, 11011, Note_on_c, 0, 54, 66
2, 11011, Note_on_c, 0, 61, 67
2, 11011, Note_on_c, 0, 64, 65
2, 11034, Note_on_c, 0, 64, 0
2, 11034, Note_on_c, 0, 61, 0
2, 11034, Note_on_c, 0, 54, 0
2, 11091, Note_on_c, 0, 42, 69
2, 11095, Note_on_c, 0, 30, 71
2, 11116, Note_on_c, 0, 42, 0
2, 11118, Note_on_c, 0, 30, 0
2, 11161, Note_on_c, 0, 54, 59
2, 11161, Note_on_c, 0, 61, 61
2, 11161, Note_on_c, 0, 64, 63
2, 11184, Note_on_c, 0, 64, 0
2, 11184, Note_on_c, 0, 61, 0
2, 11184, Note_on_c, 0, 54, 0
2, 11245, Note_on_c, 0, 46, 66
2, 11247, Note_on_c, 0, 34, 65
2, 11278, Note_on_c, 0, 46, 0
2, 11280, Note_on_c, 0, 34, 0
2, 11329, Note_on_c, 0, 62, 70
2, 11329, Note_on_c, 0, 66, 72
2, 11331, Note_on_c, 0, 54, 65
2, 11342, Control_c, 0, 64, 127
2, 11400, Note_on_c, 0, 66, 0
2, 11401, Note_on_c, 0, 54, 0
2, 11401, Note_on_c, 0, 62, 0
2, 11407, Note_on_c, 0, 42, 67
2, 11411, Note_on_c, 0, 30, 70
2, 11431, Control_c, 0, 64, 0
2, 11437, Note_on_c, 0, 42, 0
2, 11439, Note_on_c, 0, 30, 0
2, 11487, Note_on_c, 0, 61, 65
2, 11487, Note_on_c, 0, 64, 62
2, 11489, Note_on_c, 0, 54, 60
2, 11528, Note_on_c, 0, 54, 0
2, 11528, Note_on_c, 0, 64, 0
2, 11528, Note_on_c, 0, 61, 0
2, 11568, Note_on_c, 0, 35, 76
2, 11568, Note_on_c, 0, 47, 71
2, 11592, Note_on_c, 0, 47, 0
2, 11594, Note_on_c, 0, 35, 0
2, 11655, Note_on_c, 0, 54, 59
2, 11655, Note_on_c, 0, 59, 66
2, 11655, Note_on_c, 0, 62, 59
2, 11696, Note_on_c, 0, 59, 0
2, 11698, Note_on_c, 0, 62, 0
2, 11698, Note_on_c, 0, 54, 0
2, 11731, Note_on_c, 0, 42, 59
2, 11735, Note_on_c, 0, 30, 59
2, 11756, Note_on_c, 0, 42, 0
2, 11760, Note_on_c, 0, 30, 0
2, 11801, Note_on_c, 0, 54, 62
2, 11801, Note_on_c, 0, 59, 63
2, 11801, Note_on_c, 0, 62, 64
2, 11848, Note_on_c, 0, 62, 0
2, 11848, Note_on_c, 0, 59, 0
2, 11848, Note_on_c, 0, 54, 0
2, 11880, Note_on_c, 0, 47, 68
2, 11882, Note_on_c, 0, 35, 69
2, 11905, Note_on_c, 0, 47, 0
2, 11907, Note_on_c, 0, 35, 0
2, 11955, Note_on_c, 0, 62, 64
2, 11957, Note_on_c, 0, 54, 65
2, 11957, Note_on_c, 0, 59, 62
2, 11990, Note_on_c, 0, 59, 0
2, 11992, Note_on_c, 0, 54, 0
2, 11992, Note_on_c, 0, 62, 0
2, 12031, Note_on_c, 0, 45, 64
2, 12035, Note_on_c, 0, 33, 60
2, 12056, Note_on_c, 0, 45, 0
2, 12060, Note_on_c, 0, 33, 0
2, 12108, Note_on_c, 0, 59, 60
2, 12108, Note_on_c, 0, 62, 66
2, 12110, Note_on_c, 0, 54, 65
2, 12147, Note_on_c, 0, 62, 0
2, 12147, Note_on_c, 0, 59, 0
2, 12149, Note_on_c, 0, 54, 0
2, 12194, Note_on_c, 0, 44, 78
2, 12196, Note_on_c, 0, 32, 73
2, 12219, Note_on_c, 0, 44, 0
2, 12221, Note_on_c, 0, 32, 0
2, 12277, Note_on_c, 0, 59, 64
2, 12277, Note_on_c, 0, 62, 65
2, 12281, Note_on_c, 0, 52, 65
2, 12316, Note_on_c, 0, 62, 0
2, 12316, Note_on_c, 0, 59, 0
2, 12318, Note_on_c, 0, 52, 0
2, 12349, Note_on_c, 0, 40, 72
2, 12353, Note_on_c, 0, 28, 66
2, 12374, Note_on_c, 0, 40, 0
2, 12376, Note_on_c, 0, 28, 0
2, 12411, Note_on_c, 0, 59, 61
2, 12411, Note_on_c, 0, 62, 60
2, 12415, Note_on_c, 0, 52, 63
2, 12451, Note_on_c, 0, 59, 0
2, 12453, Note_on_c, 0, 52, 0
2, 12453, Note_on_c, 0, 62, 0
2, 12492, Note_on_c, 0, 32, 64
2, 12492, Note_on_c, 0, 44, 65
2, 12519, Note_on_c, 0, 44, 0
2, 12521, Note_on_c, 0, 32, 0
2, 12585, Note_on_c, 0, 52, 72
2, 12585, Note_on_c, 0, 61, 74
2, 12585, Note_on_c, 0, 64, 78
2, 12598, Control_c, 0, 64, 127
2, 12641, Note_on_c, 0, 64, 0
2, 12641, Note_on_c, 0, 61, 0
2, 12645, Note_on_c, 0, 52, 0
2, 12651, Note_on_c, 0, 40, 63
2, 12655, Note_on_c, 0, 28, 64
2, 12676, Note_on_c, 0, 40, 0
2, 12680, Note_on_c, 0, 28, 0
2, 12682, Control_c, 0, 64, 0
2, 12736, Note_on_c, 0, 62, 66
2, 12738, Note_on_c, 0, 59, 61
2, 12740, Note_on_c, 0, 52, 59
2, 12781, Note_on_c, 0, 59, 0
2, 12781, Note_on_c, 0, 62, 0
2, 12783, Note_on_c, 0, 52, 0
2, 12814, Note_on_c, 0, 45, 74
2, 12816, Note_on_c, 0, 33, 76
2, 12839, Note_on_c, 0, 45, 0
2, 12842, Note_on_c, 0, 33, 0
2, 12902, Note_on_c, 0, 57, 63
2, 12902, Note_on_c, 0, 61, 60
2, 12904, Note_on_c, 0, 52, 61
2, 12936, Note_on_c, 0, 52, 0
2, 12936, Note_on_c, 0, 61, 0
2, 12936, Note_on_c, 0, 57, 0
2, 12980, Note_on_c, 0, 40, 63
2, 12984, Note_on_c, 0, 28, 61
2, 13005, Note_on_c, 0, 40, 0
2, 13008, Note_on_c, 0, 28, 0
2, 13056, Note_on_c, 0, 57, 65
2, 13056, Note_on_c, 0, 61, 60
2, 13057, Note_on_c, 0, 52, 61
2, 13097, Note_on_c, 0, 52, 0
2, 13097, Note_on_c, 0, 61, 0
2, 13097, Note_on_c, 0, 57, 0
2, 13136, Note_on_c, 0, 45, 69
2, 13138, Note_on_c, 0, 33, 65
2, 13163, Note_on_c, 0, 45, 0
2, 13167, Note_on_c, 0, 33, 0
2, 13215, Note_on_c, 0, 57, 61
2, 13215, Note_on_c, 0, 61, 65
2, 13217, Note_on_c, 0, 52, 64
2, 13248, Note_on_c, 0, 61, 0
2, 13248, Note_on_c, 0, 57, 0
2, 13249, Note_on_c, 0, 52, 0
2, 13255, Control_c, 0, 67, 127
2, 13320, Note_on_c, 0, 49, 63
2, 13323, Note_on_c, 0, 37, 60
2, 13344, Note_on_c, 0, 49, 0
2, 13347, Note_on_c, 0, 37, 0
2, 13453, Note_on_c, 0, 57, 57
2, 13453, Note_on_c, 0, 61, 57
2, 13455, Note_on_c, 0, 52, 59
2, 13492, Note_on_c, 0, 61, 0
2, 13494, Note_on_c, 0, 57, 0
2, 13496, Note_on_c, 0, 52, 0
2, 13598, Note_on_c, 0, 41, 61
2, 13637, Control_c, 0, 64, 127
2, 13791, Note_on_c, 0, 49, 51
2, 13791, Note_on_c, 0, 59, 51
2, 13896, Control_c, 0, 64, 0
2, 13907, Note_on_c, 0, 59, 0
2, 13909, Note_on_c, 0, 49, 0
2, 13932, Note_on_c, 0, 37, 62
2, 13950, Note_on_c, 0, 41, 0
2, 14070, Control_c, 0, 64, 127
2, 14081, Note_on_c, 0, 59, 48
2, 14083, Note_on_c, 0, 49, 45
2, 14211, Control_c, 0, 64, 0
2, 14217, Note_on_c, 0, 59, 0
2, 14219, Note_on_c, 0, 49, 0
2, 14225, Note_on_c, 0, 41, 53
2, 14229, Note_on_c, 0, 37, 0
2, 14301, Note_on_c, 0, 41, 0
2, 14383, Note_on_c, 0, 61, 64
2, 14394, Note_on_c, 0, 49, 42
2, 14460, Control_c, 0, 64, 127
2, 14528, Note_on_c, 0, 37, 48
2, 14553, Control_c, 0, 64, 0
2, 14564, Note_on_c, 0, 61, 0
2, 14566, Note_on_c, 0, 49, 0
2, 14684, Note_on_c, 0, 59, 63
2, 14692, Note_on_c, 0, 49, 46
2, 14703, Note_on_c, 0, 37, 0
2, 14748, Control_c, 0, 64, 127
2, 14796, Note_on_c, 0, 59, 0
2, 14798, Note_on_c, 0, 49, 0
2, 14814, Note_on_c, 0, 38, 58
2, 14864, Control_c, 0, 64, 0
2, 14922, Note_on_c, 0, 38, 0
2, 14979, Note_on_c, 0, 57, 59
2, 14988, Note_on_c, 0, 50, 48
2, 15040, Control_c, 0, 64, 127
2, 15102, Note_on_c, 0, 33, 47
2, 15117, Note_on_c, 0, 50, 0
2, 15117, Note_on_c, 0, 57, 0
2, 15129, Control_c, 0, 64, 0
2, 15216, Note_on_c, 0, 33, 0
2, 15243, Note_on_c, 0, 56, 65
2, 15252, Note_on_c, 0, 50, 42
2, 15336, Control_c, 0, 64, 127
2, 15358, Note_on_c, 0, 38, 50
2, 15372, Note_on_c, 0, 56, 0
2, 15383, Note_on_c, 0, 50, 0
2, 15428, Control_c, 0, 64, 0
2, 15490, Note_on_c, 0, 38, 0
2, 15510, Note_on_c, 0, 53, 62
2, 15510, Note_on_c, 0, 59, 61
2, 15512, Note_on_c, 0, 50, 60
2, 15572, Control_c, 0, 64, 127
2, 15620, Note_on_c, 0, 50, 0
2, 15620, Note_on_c, 0, 59, 0
2, 15620, Note_on_c, 0, 53, 0
2, 15643, Note_on_c, 0, 33, 52
2, 15693, Control_c, 0, 64, 0
2, 15780, Note_on_c, 0, 57, 59
2, 15787, Note_on_c, 0, 49, 46
2, 15787, Note_on_c, 0, 54, 43
2, 15797, Control_c, 0, 67, 0
2, 15799, Note_on_c, 0, 33, 0
2, 15847, Control_c, 0, 64, 127
2, 15856, Note_on_c, 0, 57, 0
2, 15858, Note_on_c, 0, 49, 0
2, 15858, Note_on_c, 0, 54, 0
2, 15903, Control_c, 0, 64, 0
2, 15915, Note_on_c, 0, 37, 76
2, 15917, Note_on_c, 0, 25, 73
2, 15919, Note_on_c, 0, 53, 73
2, 15919, Note_on_c, 0, 65, 79
2, 15921, Note_on_c, 0, 56, 72
2, 15921, Note_on_c, 0, 61, 72
2, 15941, Note_on_c, 0, 25, 0
2, 15941, Note_on_c, 0, 37, 0
2, 15943, Note_on_c, 0, 56, 0
2, 15943, Note_on_c, 0, 65, 0
2, 15943, Note_on_c, 0, 61, 0
2, 15945, Note_on_c, 0, 53, 0
2, 16200, Note_on_c, 0, 61, 65
2, 16201, Note_on_c, 0, 49, 65
2, 16203, Note_on_c, 0, 37, 66
2, 16226, Note_on_c, 0, 49, 0
2, 16226, Note_on_c, 0, 61, 0
2, 16228, Note_on_c, 0, 37, 0
2, 16257, Note_on_c, 0, 39, 79
2, 16257, Note_on_c, 0, 51, 83
2, 16257, Note_on_c, 0, 63, 84
2, 16290, Note_on_c, 0, 63, 0
2, 16290, Note_on_c, 0, 51, 0
2, 16292, Note_on_c, 0, 39, 0
2, 16435, Note_on_c, 0, 65, 73
2, 16437, Note_on_c, 0, 53, 66
2, 16439, Note_on_c, 0, 41, 70
2, 16460, Note_on_c, 0, 65, 0
2, 16462, Note_on_c, 0, 53, 0
2, 16464, Note_on_c, 0, 41, 0
2, 16610, Note_on_c, 0, 57, 72
2, 16610, Note_on_c, 0, 61, 66
2, 16610, Note_on_c, 0, 66, 69
2, 16612, Note_on_c, 0, 42, 69
2, 16612, Note_on_c, 0, 54, 69
2, 16612, Note_on_c, 0, 30, 70
2, 16635, Note_on_c, 0, 54, 0
2, 16635, Note_on_c, 0, 66, 0
2, 16635, Note_on_c, 0, 57, 0
2, 16635, Note_on_c, 0, 61, 0
2, 16637, Note_on_c, 0, 42, 0
2, 16637, Note_on_c, 0, 30, 0
2, 16687, Note_on_c, 0, 54, 80
2, 16687, Note_on_c, 0, 57, 83
2, 16687, Note_on_c, 0, 61, 80
2, 16687, Note_on_c, 0, 66, 83
2, 16720, Note_on_c, 0, 66, 0
2, 16720, Note_on_c, 0, 54, 0
2, 16720, Note_on_c, 0, 57, 0
2, 16720, Note_on_c, 0, 61, 0
2, 16847, Note_on_c, 0, 57, 72
2, 16847, Note_on_c, 0, 61, 72
2, 16870, Note_on_c, 0, 61, 0
2, 16870, Note_on_c, 0, 57, 0
2, 16932, Note_on_c, 0, 42, 82
2, 16932, Note_on_c, 0, 56, 80
2, 16932, Note_on_c, 0, 59, 78
2, 16932, Note_on_c, 0, 62, 82
2, 16932, Note_on_c, 0, 65, 75
2, 16934, Note_on_c, 0, 30, 83
2, 16952, Note_on_c, 0, 65, 0
2, 16952, Note_on_c, 0, 59, 0
2, 16952, Note_on_c, 0, 56, 0
2, 16954, Note_on_c, 0, 62, 0
2, 16956, Note_on_c, 0, 30, 0
2, 16956, Note_on_c, 0, 42, 0
2, 17072, Note_on_c, 0, 57, 67
2, 17072, Note_on_c, 0, 61, 72
2, 17072, Note_on_c, 0, 66, 71
2, 17074, Note_on_c, 0, 42, 70
2, 17107, Control_c, 0, 64, 127
2, 17262, Note_on_c, 0, 66, 0
2, 17262, Note_on_c, 0, 57, 0
2, 17262, Note_on_c, 0, 61, 0
2, 17264, Note_on_c, 0, 42, 0
2, 17273, Note_on_c, 0, 34, 67
2, 17273, Note_on_c, 0, 46, 72
2, 17275, Control_c, 0, 64, 0
2, 17298, Note_on_c, 0, 46, 0
2, 17298, Note_on_c, 0, 34, 0
2, 17360, Note_on_c, 0, 54, 61
2, 17360, Note_on_c, 0, 61, 61
2, 17360, Note_on_c, 0, 64, 60
2, 17394, Note_on_c, 0, 64, 0
2, 17394, Note_on_c, 0, 61, 0
2, 17396, Note_on_c, 0, 54, 0
2, 17435, Note_on_c, 0, 42, 69
2, 17439, Note_on_c, 0, 30, 69
2, 17462, Note_on_c, 0, 42, 0
2, 17464, Note_on_c, 0, 30, 0
2, 17516, Note_on_c, 0, 54, 60
2, 17516, Note_on_c, 0, 61, 65
2, 17516, Note_on_c, 0, 64, 65
2, 17548, Note_on_c, 0, 64, 0
2, 17548, Note_on_c, 0, 61, 0
2, 17548, Note_on_c, 0, 54, 0
2, 17606, Note_on_c, 0, 34, 62
2, 17606, Note_on_c, 0, 46, 60
2, 17633, Note_on_c, 0, 46, 0
2, 17633, Note_on_c, 0, 34, 0
2, 17693, Note_on_c, 0, 54, 69
2, 17693, Note_on_c, 0, 62, 70
2, 17693, Note_on_c, 0, 66, 71
2, 17720, Control_c, 0, 64, 127
2, 17756, Note_on_c, 0, 66, 0
2, 17756, Note_on_c, 0, 62, 0
2, 17756, Note_on_c, 0, 54, 0
2, 17764, Note_on_c, 0, 42, 62
2, 17766, Note_on_c, 0, 30, 59
2, 17787, Note_on_c, 0, 42, 0
2, 17789, Note_on_c, 0, 30, 0
2, 17789, Control_c, 0, 64, 0
2, 17832, Note_on_c, 0, 61, 59
2, 17832, Note_on_c, 0, 64, 62
2, 17834, Note_on_c, 0, 54, 59
2, 17867, Note_on_c, 0, 54, 0
2, 17867, Note_on_c, 0, 64, 0
2, 17867, Note_on_c, 0, 61, 0
2, 17914, Note_on_c, 0, 47, 69
2, 17914, Note_on_c, 0, 35, 67
2, 17937, Note_on_c, 0, 47, 0
2, 17939, Note_on_c, 0, 35, 0
2, 17991, Note_on_c, 0, 54, 65
2, 17991, Note_on_c, 0, 59, 68
2, 17991, Note_on_c, 0, 62, 68
2, 18012, Note_on_c, 0, 62, 0
2, 18012, Note_on_c, 0, 59, 0
2, 18012, Note_on_c, 0, 54, 0
2, 18053, Note_on_c, 0, 42, 69
2, 18055, Note_on_c, 0, 30, 67
2, 18078, Note_on_c, 0, 30, 0
2, 18078, Note_on_c, 0, 42, 0
2, 18132, Note_on_c, 0, 54, 61
2, 18132, Note_on_c, 0, 59, 59
2, 18132, Note_on_c, 0, 62, 64
2, 18165, Note_on_c, 0, 62, 0
2, 18165, Note_on_c, 0, 59, 0
2, 18165, Note_on_c, 0, 54, 0
2, 18204, Note_on_c, 0, 35, 68
2, 18204, Note_on_c, 0, 47, 69
2, 18231, Note_on_c, 0, 47, 0
2, 18233, Note_on_c, 0, 35, 0
2, 18283, Note_on_c, 0, 54, 59
2, 18283, Note_on_c, 0, 59, 60
2, 18283, Note_on_c, 0, 62, 60
2, 18306, Note_on_c, 0, 59, 0
2, 18308, Note_on_c, 0, 62, 0
2, 18312, Note_on_c, 0, 54, 0
2, 18357, Note_on_c, 0, 45, 59
2, 18359, Note_on_c, 0, 33, 64
2, 18384, Note_on_c, 0, 33, 0
2, 18384, Note_on_c, 0, 45, 0
2, 18446, Note_on_c, 0, 54, 65
2, 18446, Note_on_c, 0, 59, 66
2, 18446, Note_on_c, 0, 62, 63
2, 18469, Note_on_c, 0, 54, 0
2, 18476, Note_on_c, 0, 62, 0
2, 18476, Note_on_c, 0, 59, 0
2, 18515, Note_on_c, 0, 44, 73
2, 18517, Note_on_c, 0, 32, 76
2, 18538, Note_on_c, 0, 44, 0
2, 18540, Note_on_c, 0, 32, 0
2, 18600, Note_on_c, 0, 52, 60
2, 18600, Note_on_c, 0, 59, 66
2, 18600, Note_on_c, 0, 62, 60
2, 18642, Note_on_c, 0, 62, 0
2, 18642, Note_on_c, 0, 59, 0
2, 18642, Note_on_c, 0, 52, 0
2, 18672, Note_on_c, 0, 40, 70
2, 18674, Note_on_c, 0, 28, 65
2, 18697, Note_on_c, 0, 40, 0
2, 18699, Note_on_c, 0, 28, 0
2, 18757, Note_on_c, 0, 59, 65
2, 18757, Note_on_c, 0, 62, 66
2, 18759, Note_on_c, 0, 52, 61
2, 18790, Note_on_c, 0, 52, 0
2, 18790, Note_on_c, 0, 62, 0
2, 18790, Note_on_c, 0, 59, 0
2, 18837, Note_on_c, 0, 32, 62
2, 18837, Note_on_c, 0, 44, 61
2, 18860, Note_on_c, 0, 44, 0
2, 18862, Note_on_c, 0, 32, 0
2, 18913, Note_on_c, 0, 52, 69
2, 18913, Note_on_c, 0, 61, 69
2, 18913, Note_on_c, 0, 64, 66
2, 18922, Control_c, 0, 64, 127
2, 18969, Note_on_c, 0, 64, 0
2, 18969, Note_on_c, 0, 61, 0
2, 18969, Note_on_c, 0, 52, 0
2, 18975, Note_on_c, 0, 40, 64
2, 18977, Note_on_c, 0, 28, 60
2, 18984, Control_c, 0, 64, 0
2, 19000, Note_on_c, 0, 28, 0
2, 19000, Note_on_c, 0, 40, 0
2, 19052, Note_on_c, 0, 52, 64
2, 19052, Note_on_c, 0, 59, 62
2, 19052, Note_on_c, 0, 62, 60
2, 19084, Note_on_c, 0, 62, 0
2, 19084, Note_on_c, 0, 59, 0
2, 19084, Note_on_c, 0, 52, 0
2, 19131, Note_on_c, 0, 45, 70
2, 19133, Note_on_c, 0, 33, 71
2, 19156, Note_on_c, 0, 45, 0
2, 19158, Note_on_c, 0, 33, 0
2, 19210, Note_on_c, 0, 52, 59
2, 19210, Note_on_c, 0, 57, 59
2, 19210, Note_on_c, 0, 61, 63
2, 19243, Note_on_c, 0, 61, 0
2, 19243, Note_on_c, 0, 57, 0
2, 19243, Note_on_c, 0, 52, 0
2, 19288, Note_on_c, 0, 40, 72
2, 19290, Note_on_c, 0, 28, 68
2, 19313, Note_on_c, 0, 40, 0
2, 19315, Note_on_c, 0, 28, 0
2, 19363, Note_on_c, 0, 57, 59
2, 19363, Note_on_c, 0, 61, 60
2, 19365, Note_on_c, 0, 52, 66
2, 19395, Note_on_c, 0, 52, 0
2, 19395, Note_on_c, 0, 61, 0
2, 19395, Note_on_c, 0, 57, 0
2, 19449, Note_on_c, 0, 33, 66
2, 19449, Note_on_c, 0, 45, 70
2, 19472, Note_on_c, 0, 45, 0
2, 19474, Note_on_c, 0, 33, 0
2, 19535, Note_on_c, 0, 52, 62
2, 19535, Note_on_c, 0, 57, 59
2, 19535, Note_on_c, 0, 61, 66
2, 19568, Note_on_c, 0, 61, 0
2, 19568, Note_on_c, 0, 57, 0
2, 19568, Note_on_c, 0, 52, 0
2, 19599, Control_c, 0, 67, 127
2, 19640, Note_on_c, 0, 49, 61
2, 19642, Note_on_c, 0, 37, 63
2, 19673, Note_on_c, 0, 37, 0
2, 19673, Note_on_c, 0, 49, 0
2, 19770, Note_on_c, 0, 52, 60
2, 19770, Note_on_c, 0, 57, 59
2, 19770, Note_on_c, 0, 61, 56
2, 19809, Note_on_c, 0, 61, 0
2, 19811, Note_on_c, 0, 57, 0
2, 19811, Note_on_c, 0, 52, 0
2, 19951, Note_on_c, 0, 41, 59
2, 19999, Control_c, 0, 64, 127
2, 20094, Note_on_c, 0, 49, 47
2, 20094, Note_on_c, 0, 59, 49
2, 20206, Control_c, 0, 64, 0
2, 20220, Note_on_c, 0, 59, 0
2, 20220, Note_on_c, 0, 49, 0
2, 20222, Note_on_c, 0, 41, 0
2, 20236, Note_on_c, 0, 37, 60
2, 20344, Control_c, 0, 64, 127
2, 20381, Note_on_c, 0, 49, 44
2, 20381, Note_on_c, 0, 59, 42
2, 20437, Note_on_c, 0, 37, 0
2, 20493, Control_c, 0, 64, 0
2, 20499, Note_on_c, 0, 59, 0
2, 20499, Note_on_c, 0, 49, 0
2, 20508, Note_on_c, 0, 41, 65
2, 20547, Note_on_c, 0, 41, 0
2, 20664, Note_on_c, 0, 61, 61
2, 20670, Note_on_c, 0, 49, 47
2, 20703, Control_c, 0, 64, 127
2, 20775, Note_on_c, 0, 49, 0
2, 20775, Note_on_c, 0, 61, 0
2, 20791, Note_on_c, 0, 37, 49
2, 20888, Control_c, 0, 64, 0
2, 20936, Note_on_c, 0, 37, 0
2, 20942, Note_on_c, 0, 59, 66
2, 20951, Note_on_c, 0, 49, 48
2, 21033, Control_c, 0, 64, 127
2, 21074, Note_on_c, 0, 49, 0
2, 21074, Note_on_c, 0, 59, 0
2, 21081, Note_on_c, 0, 38, 57
2, 21129, Control_c, 0, 64, 0
2, 21144, Note_on_c, 0, 38, 0
2, 21228, Note_on_c, 0, 57, 65
2, 21237, Note_on_c, 0, 50, 46
2, 21282, Control_c, 0, 64, 127
2, 21344, Note_on_c, 0, 50, 0
2, 21344, Note_on_c, 0, 57, 0
2, 21351, Note_on_c, 0, 33, 53
2, 21401, Control_c, 0, 64, 0
2, 21473, Note_on_c, 0, 33, 0
2, 21479, Note_on_c, 0, 56, 66
2, 21485, Note_on_c, 0, 50, 47
2, 21533, Control_c, 0, 64, 127
2, 21587, Note_on_c, 0, 50, 0
2, 21587, Note_on_c, 0, 56, 0
2, 21601, Note_on_c, 0, 38, 50
2, 21641, Control_c, 0, 64, 0
2, 21703, Note_on_c, 0, 38, 0
2, 21724, Note_on_c, 0, 59, 63
2, 21733, Note_on_c, 0, 50, 42
2, 21733, Note_on_c, 0, 53, 43
2, 21806, Control_c, 0, 64, 127
2, 21835, Note_on_c, 0, 53, 0
2, 21835, Note_on_c, 0, 50, 0
2, 21835, Note_on_c, 0, 59, 0
2, 21862, Note_on_c, 0, 33, 50
2, 21912, Control_c, 0, 64, 0
2, 21994, Note_on_c, 0, 33, 0
2, 21998, Note_on_c, 0, 57, 51
2, 22007, Note_on_c, 0, 54, 48
2, 22007, Control_c, 0, 67, 0
2, 22008, Note_on_c, 0, 49, 44
2, 22050, Control_c, 0, 64, 127
2, 22100, Note_on_c, 0, 49, 0
2, 22100, Note_on_c, 0, 57, 0
2, 22106, Note_on_c, 0, 54, 0
2, 22117, Control_c, 0, 64, 0
2, 22129, Note_on_c, 0, 53, 78
2, 22129, Note_on_c, 0, 56, 75
2, 22129, Note_on_c, 0, 61, 77
2, 22129, Note_on_c, 0, 65, 83
2, 22131, Note_on_c, 0, 25, 77
2, 22131, Note_on_c, 0, 37, 78
2, 22154, Note_on_c, 0, 37, 0
2, 22154, Note_on_c, 0, 56, 0
2, 22154, Note_on_c, 0, 61, 0
2, 22154, Note_on_c, 0, 53, 0
2, 22154, Note_on_c, 0, 65, 0
2, 22156, Note_on_c, 0, 25, 0
2, 22430, Note_on_c, 0, 49, 72
2, 22430, Note_on_c, 0, 61, 67
2, 22432, Note_on_c, 0, 37, 69
2, 22455, Note_on_c, 0, 61, 0
2, 22455, Note_on_c, 0, 49, 0
2, 22457, Note_on_c, 0, 37, 0
2, 22484, Note_on_c, 0, 63, 78
2, 22486, Note_on_c, 0, 51, 81
2, 22488, Note_on_c, 0, 39, 81
2, 22516, Note_on_c, 0, 51, 0
2, 22516, Note_on_c, 0, 63, 0
2, 22518, Note_on_c, 0, 39, 0
2, 22655, Note_on_c, 0, 53, 70
2, 22655, Note_on_c, 0, 65, 74
2, 22656, Note_on_c, 0, 41, 67
2, 22680, Note_on_c, 0, 65, 0
2, 22680, Note_on_c, 0, 53, 0
2, 22681, Note_on_c, 0, 41, 0
2, 22808, Note_on_c, 0, 42, 68
2, 22808, Note_on_c, 0, 54, 71
2, 22808, Note_on_c, 0, 57, 71
2, 22808, Note_on_c, 0, 61, 69
2, 22808, Note_on_c, 0, 66, 67
2, 22810, Note_on_c, 0, 30, 69
2, 22830, Note_on_c, 0, 66, 0
2, 22830, Note_on_c, 0, 61, 0
2, 22830, Note_on_c, 0, 57, 0
2, 22830, Note_on_c, 0, 54, 0
2, 22832, Note_on_c, 0, 42, 0
2, 22834, Note_on_c, 0, 30, 0
2, 22886, Note_on_c, 0, 54, 79
2, 22886, Note_on_c, 0, 57, 80
2, 22886, Note_on_c, 0, 61, 80
2, 22886, Note_on_c, 0, 66, 83
2, 22911, Note_on_c, 0, 66, 0
2, 22911, Note_on_c, 0, 54, 0
2, 22911, Note_on_c, 0, 57, 0
2, 22911, Note_on_c, 0, 61, 0
2, 23062, Note_on_c, 0, 57, 65
2, 23062, Note_on_c, 0, 61, 59
2, 23087, Note_on_c, 0, 61, 0
2, 23087, Note_on_c, 0, 57, 0
2, 23134, Note_on_c, 0, 56, 73
2, 23134, Note_on_c, 0, 59, 77
2, 23134, Note_on_c, 0, 62, 72
2, 23134, Note_on_c, 0, 65, 72
2, 23136, Note_on_c, 0, 42, 75
2, 23137, Note_on_c, 0, 30, 75
2, 23158, Note_on_c, 0, 65, 0
2, 23158, Note_on_c, 0, 62, 0
2, 23158, Note_on_c, 0, 56, 0
2, 23158, Note_on_c, 0, 59, 0
2, 23160, Note_on_c, 0, 42, 0
2, 23161, Note_on_c, 0, 30, 0
2, 23296, Control_c, 0, 64, 127
2, 23300, Note_on_c, 0, 57, 72
2, 23300, Note_on_c, 0, 61, 68
2, 23300, Note_on_c, 0, 66, 74
2, 23302, Note_on_c, 0, 42, 72
2, 23425, Note_on_c, 0, 66, 0
2, 23425, Note_on_c, 0, 57, 0
2, 23425, Note_on_c, 0, 61, 0
2, 23427, Note_on_c, 0, 42, 0
2, 23436, Control_c, 0, 64, 0
2, 23567, Note_on_c, 0, 30, 74
2, 23608, Note_on_c, 0, 30, 0
2, 23643, Note_on_c, 0, 49, 62
2, 23643, Note_on_c, 0, 54, 60
2, 23645, Note_on_c, 0, 37, 64
2, 23645, Note_on_c, 0, 42, 60
2, 23668, Note_on_c, 0, 54, 0
2, 23668, Note_on_c, 0, 49, 0
2, 23670, Note_on_c, 0, 37, 0
2, 23670, Note_on_c, 0, 42, 0
2, 23726, Note_on_c, 0, 30, 65
2, 23751, Note_on_c, 0, 30, 0
2, 23801, Note_on_c, 0, 42, 65
2, 23801, Note_on_c, 0, 49, 63
2, 23801, Note_on_c, 0, 54, 65
2, 23805, Note_on_c, 0, 37, 61
2, 23833, Note_on_c, 0, 54, 0
2, 23833, Note_on_c, 0, 49, 0
2, 23835, Note_on_c, 0, 42, 0
2, 23835, Note_on_c, 0, 37, 0
2, 23875, Note_on_c, 0, 30, 61
2, 23900, Note_on_c, 0, 30, 0
2, 23950, Note_on_c, 0, 49, 54
2, 23950, Note_on_c, 0, 54, 60
2, 23952, Note_on_c, 0, 37, 55
2, 23952, Note_on_c, 0, 42, 59
2, 23973, Note_on_c, 0, 54, 0
2, 23975, Note_on_c, 0, 49, 0
2, 23975, Note_on_c, 0, 37, 0
2, 23975, Note_on_c, 0, 42, 0
2, 24028, Note_on_c, 0, 30, 65
2, 24053, Note_on_c, 0, 30, 0
2, 24096, Note_on_c, 0, 49, 56
2, 24096, Note_on_c, 0, 54, 57
2, 24098, Note_on_c, 0, 37, 53
2, 24098, Note_on_c, 0, 42, 58
2, 24120, Note_on_c, 0, 54, 0
2, 24120, Note_on_c, 0, 49, 0
2, 24121, Note_on_c, 0, 37, 0
2, 24121, Note_on_c, 0, 42, 0
2, 24169, Note_on_c, 0, 30, 72
2, 24192, Note_on_c, 0, 30, 0
2, 24238, Note_on_c, 0, 42, 64
2, 24238, Note_on_c, 0, 49, 64
2, 24240, Note_on_c, 0, 37, 60
2, 24263, Note_on_c, 0, 49, 0
2, 24263, Note_on_c, 0, 42, 0
2, 24264, Note_on_c, 0, 37, 0
2, 24322, Note_on_c, 0, 30, 66
2, 24347, Note_on_c, 0, 30, 0
2, 24384, Note_on_c, 0, 37, 60
2, 24384, Note_on_c, 0, 42, 61
2, 24384, Note_on_c, 0, 49, 59
2, 24409, Note_on_c, 0, 49, 0
2, 24409, Note_on_c, 0, 42, 0
2, 24411, Note_on_c, 0, 37, 0
2, 24469, Note_on_c, 0, 30, 76
2, 24510, Note_on_c, 0, 30, 0
2, 24544, Note_on_c, 0, 42, 59
2, 24544, Note_on_c, 0, 49, 65
2, 24544, Note_on_c, 0, 54, 65
2, 24548, Note_on_c, 0, 37, 60
2, 24576, Note_on_c, 0, 54, 0
2, 24576, Note_on_c, 0, 49, 0
2, 24578, Note_on_c, 0, 42, 0
2, 24580, Note_on_c, 0, 37, 0
2, 24628, Note_on_c, 0, 30, 68
2, 24653, Note_on_c, 0, 30, 0
2, 24696, Note_on_c, 0, 37, 60
2, 24696, Note_on_c, 0, 42, 61
2, 24696, Note_on_c, 0, 49, 63
2, 24696, Note_on_c, 0, 54, 60
2, 24720, Note_on_c, 0, 54, 0
2, 24720, Note_on_c, 0, 49, 0
2, 24721, Note_on_c, 0, 42, 0
2, 24723, Note_on_c, 0, 37, 0
2, 24768, Note_on_c, 0, 30, 70
2, 24777, Control_c, 0, 64, 127
2, 24810, Note_on_c, 0, 30, 0
2, 24826, Control_c, 0, 64, 0
2, 24853, Note_on_c, 0, 49, 62
2, 24855, Note_on_c, 0, 37, 62
2, 24855, Note_on_c, 0, 42, 65
2, 24886, Note_on_c, 0, 49, 0
2, 24888, Note_on_c, 0, 42, 0
2, 24889, Note_on_c, 0, 37, 0
2, 24941, Note_on_c, 0, 30, 62
2, 24983, Control_c, 0, 64, 127
2, 24991, Note_on_c, 0, 30, 0
2, 25009, Note_on_c, 0, 49, 54
2, 25011, Note_on_c, 0, 37, 53
2, 25011, Note_on_c, 0, 42, 59
2, 25032, Control_c, 0, 64, 0
2, 25035, Note_on_c, 0, 42, 0
2, 25035, Note_on_c, 0, 49, 0
2, 25037, Note_on_c, 0, 37, 0
2, 25093, Note_on_c, 0, 30, 78
2, 25143, Control_c, 0, 64, 127
2, 25157, Note_on_c, 0, 30, 0
2, 25170, Note_on_c, 0, 37, 62
2, 25170, Note_on_c, 0, 42, 65
2, 25170, Note_on_c, 0, 49, 61
2, 25195, Note_on_c, 0, 49, 0
2, 25197, Note_on_c, 0, 42, 0
2, 25197, Note_on_c, 0, 37, 0
2, 25199, Control_c, 0, 64, 0
2, 25259, Note_on_c, 0, 30, 65
2, 25292, Control_c, 0, 64, 127
2, 25324, Note_on_c, 0, 30, 0
2, 25328, Note_on_c, 0, 49, 61
2, 25330, Note_on_c, 0, 37, 66
2, 25330, Note_on_c, 0, 42, 61
2, 25350, Control_c, 0, 64, 0
2, 25368, Note_on_c, 0, 49, 0
2, 25370, Note_on_c, 0, 42, 0
2, 25372, Note_on_c, 0, 37, 0
2, 25412, Note_on_c, 0, 30, 72
2, 25460, Control_c, 0, 64, 127
2, 25478, Note_on_c, 0, 30, 0
2, 25480, Note_on_c, 0, 49, 66
2, 25480, Note_on_c, 0, 61, 63
2, 25482, Note_on_c, 0, 42, 66
2, 25484, Note_on_c, 0, 37, 65
2, 25541, Control_c, 0, 64, 0
2, 25552, Note_on_c, 0, 61, 0
2, 25554, Note_on_c, 0, 49, 0
2, 25554, Note_on_c, 0, 42, 0
2, 25556, Note_on_c, 0, 37, 0
2, 25562, Note_on_c, 0, 30, 71
2, 25629, Control_c, 0, 64, 127
2, 25631, Note_on_c, 0, 49, 62
2, 25631, Note_on_c, 0, 61, 63
2, 25632, Note_on_c, 0, 42, 59
2, 25634, Note_on_c, 0, 37, 59
2, 25645, Note_on_c, 0, 30, 0
2, 25672, Note_on_c, 0, 49, 0
2, 25674, Note_on_c, 0, 42, 0
2, 25676, Note_on_c, 0, 37, 0
2, 25680, Note_on_c, 0, 61, 0
2, 25690, Control_c, 0, 64, 0
2, 25713, Note_on_c, 0, 30, 65
2, 25771, Note_on_c, 0, 30, 0
2, 25789, Note_on_c, 0, 61, 62
2, 25791, Note_on_c, 0, 49, 66
2, 25793, Note_on_c, 0, 37, 60
2, 25793, Note_on_c, 0, 42, 65
2, 25820, Note_on_c, 0, 61, 0
2, 25822, Note_on_c, 0, 49, 0
2, 25824, Note_on_c, 0, 42, 0
2, 25825, Note_on_c, 0, 37, 0
2, 25881, Note_on_c, 0, 30, 68
2, 25929, Note_on_c, 0, 30, 0
2, 25952, Note_on_c, 0, 61, 53
2, 25956, Note_on_c, 0, 37, 53
2, 25956, Note_on_c, 0, 42, 60
2, 25956, Note_on_c, 0, 49, 54
2, 25987, Note_on_c, 0, 61, 0
2, 25989, Note_on_c, 0, 49, 0
2, 25991, Note_on_c, 0, 42, 0
2, 25991, Note_on_c, 0, 37, 0
2, 26038, Note_on_c, 0, 30, 71
2, 26081, Note_on_c, 0, 30, 0
2, 26112, Note_on_c, 0, 54, 61
2, 26112, Note_on_c, 0, 58, 61
2, 26113, Note_on_c, 0, 37, 65
2, 26113, Note_on_c, 0, 42, 65
2, 26113, Note_on_c, 0, 49, 62
2, 26144, Note_on_c, 0, 49, 0
2, 26144, Note_on_c, 0, 54, 0
2, 26144, Note_on_c, 0, 58, 0
2, 26146, Note_on_c, 0, 42, 0
2, 26148, Note_on_c, 0, 37, 0
2, 26195, Note_on_c, 0, 30, 67
2, 26232, Note_on_c, 0, 30, 0
2, 26266, Note_on_c, 0, 58, 62
2, 26268, Note_on_c, 0, 49, 64
2, 26268, Note_on_c, 0, 54, 64
2, 26270, Note_on_c, 0, 37, 64
2, 26270, Note_on_c, 0, 42, 60
2, 26301, Note_on_c, 0, 54, 0
2, 26301, Note_on_c, 0, 58, 0
2, 26301, Note_on_c, 0, 49, 0
2, 26303, Note_on_c, 0, 42, 0
2, 26304, Note_on_c, 0, 37, 0
2, 26356, Note_on_c, 0, 30, 70
2, 26400, Note_on_c, 0, 30, 0
2, 26432, Note_on_c, 0, 61, 61
2, 26434, Note_on_c, 0, 42, 61
2, 26434, Note_on_c, 0, 49, 65
2, 26436, Note_on_c, 0, 37, 65
2, 26463, Note_on_c, 0, 61, 0
2, 26467, Note_on_c, 0, 42, 0
2, 26467, Note_on_c, 0, 49, 0
2, 26471, Note_on_c, 0, 37, 0
2, 26518, Note_on_c, 0, 30, 67
2, 26557, Note_on_c, 0, 30, 0
2, 26596, Note_on_c, 0, 61, 64
2, 26600, Note_on_c, 0, 37, 62
2, 26600, Note_on_c, 0, 42, 63
2, 26600, Note_on_c, 0, 49, 60
2, 26633, Note_on_c, 0, 49, 0
2, 26633, Note_on_c, 0, 61, 0
2, 26635, Note_on_c, 0, 42, 0
2, 26637, Note_on_c, 0, 37, 0
2, 26685, Note_on_c, 0, 30, 71
2, 26724, Note_on_c, 0, 30, 0
2, 26758, Note_on_c, 0, 61, 58
2, 26760, Note_on_c, 0, 49, 55
2, 26761, Note_on_c, 0, 37, 60
2, 26761, Note_on_c, 0, 42, 53
2, 26792, Note_on_c, 0, 61, 0
2, 26794, Note_on_c, 0, 49, 0
2, 26796, Note_on_c, 0, 42, 0
2, 26798, Note_on_c, 0, 37, 0
2, 26837, Note_on_c, 0, 30, 65
2, 26895, Note_on_c, 0, 30, 0
2, 26928, Note_on_c, 0, 61, 59
2, 26931, Note_on_c, 0, 37, 63
2, 26931, Note_on_c, 0, 42, 63
2, 26931, Note_on_c, 0, 49, 65
2, 26954, Control_c, 0, 67, 127
2, 26961, Note_on_c, 0, 61, 0
2, 26963, Note_on_c, 0, 49, 0
2, 26965, Note_on_c, 0, 42, 0
2, 26965, Note_on_c, 0, 37, 0
2, 27029, Note_on_c, 0, 30, 70
2, 27069, Note_on_c, 0, 30, 0
2, 27119, Note_on_c, 0, 49, 62
2, 27119, Note_on_c, 0, 54, 66
2, 27120, Note_on_c, 0, 42, 65
2, 27122, Note_on_c, 0, 37, 60
2, 27151, Note_on_c, 0, 42, 0
2, 27151, Note_on_c, 0, 49, 0
2, 27151, Note_on_c, 0, 54, 0
2, 27153, Note_on_c, 0, 37, 0
2, 27217, Note_on_c, 0, 30, 62
2, 27251, Note_on_c, 0, 30, 0
2, 27324, Note_on_c, 0, 54, 63
2, 27326, Note_on_c, 0, 49, 59
2, 27328, Note_on_c, 0, 37, 64
2, 27328, Note_on_c, 0, 42, 61
2, 27349, Note_on_c, 0, 49, 0
2, 27349, Note_on_c, 0, 54, 0
2, 27351, Note_on_c, 0, 37, 0
2, 27351, Note_on_c, 0, 42, 0
2, 27512, Note_on_c, 0, 30, 65
2, 27584, Control_c, 0, 64, 127
2, 27708, Note_on_c, 0, 37, 48
2, 27737, Note_on_c, 0, 49, 48
2, 27739, Note_on_c, 0, 42, 48
2, 27789, Note_on_c, 0, 30, 0
2, 27944, Control_c, 0, 64, 0
2, 27975, Note_on_c, 0, 30, 65
2, 28010, Note_on_c, 0, 42, 0
2, 28010, Note_on_c, 0, 49, 0
2, 28012, Note_on_c, 0, 37, 0
2, 28166, Control_c, 0, 64, 127
2, 28186, Note_on_c, 0, 37, 44
2, 28224, Note_on_c, 0, 42, 51
2, 28224, Note_on_c, 0, 49, 49
2, 28273, Note_on_c, 0, 30, 0
2, 28408, Control_c, 0, 64, 0
2, 28441, Note_on_c, 0, 49, 0
2, 28443, Note_on_c, 0, 42, 0
2, 28445, Note_on_c, 0, 37, 0
2, 28452, Note_on_c, 0, 30, 61
2, 28626, Control_c, 0, 64, 127
2, 28655, Note_on_c, 0, 37, 43
2, 28688, Note_on_c, 0, 49, 53
2, 28690, Note_on_c, 0, 42, 49
2, 28710, Note_on_c, 0, 30, 0
2, 28918, Control_c, 0, 64, 0
2, 28965, Note_on_c, 0, 37, 0
2, 28965, Note_on_c, 0, 49, 0
2, 28965, Note_on_c, 0, 42, 0
2, 28973, Note_on_c, 0, 30, 51
2, 29153, Control_c, 0, 64, 127
2, 29176, Note_on_c, 0, 37, 48
2, 29221, Note_on_c, 0, 42, 44
2, 29221, Note_on_c, 0, 49, 43
2, 29262, Control_c, 0, 67, 0
2, 29266, Note_on_c, 0, 30, 0
2, 29433, Control_c, 0, 64, 0
2, 29453, Note_on_c, 0, 49, 0
2, 29455, Note_on_c, 0, 42, 0
2, 29457, Note_on_c, 0, 37, 0
2, 29463, Note_on_c, 0, 30, 53
2, 29504, Note_on_c, 0, 30, 0
2, 29522, Note_on_c, 0, 42, 61
2, 29522, Note_on_c, 0, 54, 64
2, 29547, Note_on_c, 0, 54, 0
2, 29549, Note_on_c, 0, 42, 0
2, 29592, Note_on_c, 0, 63, 61
2, 29598, Note_on_c, 0, 39, 62
2, 29619, Note_on_c, 0, 63, 0
2, 29623, Note_on_c, 0, 39, 0
2, 29659, Note_on_c, 0, 59, 65
2, 29663, Note_on_c, 0, 35, 65
2, 29683, Note_on_c, 0, 59, 0
2, 29688, Note_on_c, 0, 35, 0
2, 29724, Note_on_c, 0, 30, 55
2, 29749, Note_on_c, 0, 30, 0
2, 29784, Note_on_c, 0, 66, 66
2, 29786, Note_on_c, 0, 54, 53
2, 29809, Note_on_c, 0, 54, 0
2, 29809, Note_on_c, 0, 66, 0
2, 29874, Note_on_c, 0, 42, 55
2, 29917, Note_on_c, 0, 42, 0
2, 30026, Control_c, 0, 67, 127
2, 30194, Note_on_c, 0, 30, 60
2, 30401, Note_on_c, 0, 37, 43
2, 30421, Control_c, 0, 64, 127
2, 30439, Note_on_c, 0, 42, 50
2, 30439, Note_on_c, 0, 49, 54
2, 30497, Note_on_c, 0, 30, 0
2, 30681, Control_c, 0, 64, 0
2, 30688, Note_on_c, 0, 49, 0
2, 30688, Note_on_c, 0, 42, 0
2, 30690, Note_on_c, 0, 37, 0
2, 30696, Note_on_c, 0, 30, 64
2, 30904, Control_c, 0, 64, 127
2, 30918, Note_on_c, 0, 37, 47
2, 30956, Note_on_c, 0, 49, 50
2, 30958, Note_on_c, 0, 42, 53
2, 30999, Note_on_c, 0, 30, 0
2, 31187, Note_on_c, 0, 42, 0
2, 31187, Note_on_c, 0, 49, 0
2, 31189, Note_on_c, 0, 37, 0
2, 31196, Note_on_c, 0, 30, 61
2, 31198, Control_c, 0, 64, 0
2, 31409, Control_c, 0, 64, 127
2, 31416, Note_on_c, 0, 37, 46
2, 31451, Note_on_c, 0, 42, 48
2, 31451, Note_on_c, 0, 49, 54
2, 31494, Note_on_c, 0, 30, 0
2, 31675, Control_c, 0, 64, 0
2, 31698, Note_on_c, 0, 49, 0
2, 31698, Note_on_c, 0, 42, 0
2, 31700, Note_on_c, 0, 37, 0
2, 31706, Note_on_c, 0, 30, 60
2, 31921, Note_on_c, 0, 37, 44
2, 31938, Control_c, 0, 64, 127
2, 31975, Note_on_c, 0, 42, 53
2, 31975, Note_on_c, 0, 49, 52
2, 32029, Control_c, 0, 67, 0
2, 32033, Note_on_c, 0, 30, 0
2, 32186, Control_c, 0, 64, 0
2, 32232, Note_on_c, 0, 49, 0
2, 32232, Note_on_c, 0, 42, 0
2, 32233, Note_on_c, 0, 37, 0
2, 32240, Note_on_c, 0, 30, 65
2, 32265, Note_on_c, 0, 30, 0
2, 32301, Note_on_c, 0, 35, 62
2, 32301, Note_on_c, 0, 59, 61
2, 32324, Note_on_c, 0, 59, 0
2, 32326, Note_on_c, 0, 35, 0
2, 32361, Note_on_c, 0, 61, 64
2, 32363, Note_on_c, 0, 37, 63
2, 32386, Note_on_c, 0, 61, 0
2, 32388, Note_on_c, 0, 37, 0
2, 32436, Note_on_c, 0, 49, 59
2, 32438, Note_on_c, 0, 25, 58
2, 32461, Note_on_c, 0, 49, 0
2, 32463, Note_on_c, 0, 25, 0
2, 32510, Note_on_c, 0, 30, 53
2, 32535, Note_on_c, 0, 30, 0
2, 32582, Note_on_c, 0, 54, 59
2, 32582, Note_on_c, 0, 58, 56
2, 32605, Note_on_c, 0, 58, 0
2, 32605, Note_on_c, 0, 54, 0
2, 32673, Note_on_c, 0, 42, 57
2, 32698, Note_on_c, 0, 42, 0
2, 32879, Control_c, 0, 67, 127
2, 33056, Note_on_c, 0, 30, 61
2, 33141, Control_c, 0, 64, 127
2, 33300, Note_on_c, 0, 37, 43
2, 33337, Note_on_c, 0, 42, 51
2, 33337, Note_on_c, 0, 49, 49
2, 33451, Note_on_c, 0, 30, 0
2, 33531, Control_c, 0, 64, 0
2, 33594, Note_on_c, 0, 49, 0
2, 33594, Note_on_c, 0, 42, 0
2, 33596, Note_on_c, 0, 37, 0
2, 33601, Note_on_c, 0, 30, 64
2, 33784, Control_c, 0, 64, 127
2, 33823, Note_on_c, 0, 37, 48
2, 33868, Note_on_c, 0, 42, 53
2, 33868, Note_on_c, 0, 49, 54
2, 33912, Note_on_c, 0, 30, 0
2, 34081, Control_c, 0, 64, 0
2, 34119, Note_on_c, 0, 49, 0
2, 34121, Note_on_c, 0, 42, 0
2, 34123, Note_on_c, 0, 37, 0
2, 34129, Note_on_c, 0, 30, 66
2, 34316, Control_c, 0, 64, 127
2, 34353, Note_on_c, 0, 37, 48
2, 34400, Note_on_c, 0, 42, 53
2, 34400, Note_on_c, 0, 49, 54
2, 34440, Note_on_c, 0, 30, 0
2, 34574, Control_c, 0, 64, 0
2, 34658, Note_on_c, 0, 49, 0
2, 34658, Note_on_c, 0, 42, 0
2, 34660, Note_on_c, 0, 37, 0
2, 34664, Note_on_c, 0, 30, 52
2, 34829, Control_c, 0, 64, 127
2, 34902, Note_on_c, 0, 37, 48
2, 34942, Note_on_c, 0, 42, 44
2, 34942, Note_on_c, 0, 49, 48
2, 34974, Control_c, 0, 67, 0
2, 35007, Note_on_c, 0, 30, 0
2, 35094, Control_c, 0, 64, 0
2, 35187, Note_on_c, 0, 49, 0
2, 35187, Note_on_c, 0, 42, 0
2, 35189, Note_on_c, 0, 37, 0
2, 35195, Note_on_c, 0, 30, 53
2, 35222, Note_on_c, 0, 30, 0
2, 35259, Note_on_c, 0, 42, 64
2, 35259, Note_on_c, 0, 54, 59
2, 35284, Note_on_c, 0, 54, 0
2, 35284, Note_on_c, 0, 42, 0
2, 35322, Note_on_c, 0, 39, 65
2, 35322, Note_on_c, 0, 63, 60
2, 35347, Note_on_c, 0, 63, 0
2, 35349, Note_on_c, 0, 39, 0
2, 35377, Note_on_c, 0, 59, 65
2, 35379, Note_on_c, 0, 35, 62
2, 35402, Note_on_c, 0, 59, 0
2, 35404, Note_on_c, 0, 35, 0
2, 35449, Note_on_c, 0, 30, 53
2, 35474, Note_on_c, 0, 30, 0
2, 35512, Note_on_c, 0, 66, 60
2, 35514, Note_on_c, 0, 54, 56
2, 35535, Note_on_c, 0, 54, 0
2, 35535, Note_on_c, 0, 66, 0
2, 35572, Note_on_c, 0, 42, 56
2, 35597, Note_on_c, 0, 42, 0
2, 35712, Control_c, 0, 67, 127
2, 35864, Note_on_c, 0, 30, 62
2, 35974, Control_c, 0, 64, 127
2, 36075, Note_on_c, 0, 37, 44
2, 36113, Note_on_c, 0, 42, 51
2, 36113, Note_on_c, 0, 49, 52
2, 36179, Note_on_c, 0, 30, 0
2, 36295, Control_c, 0, 64, 0
2, 36367, Note_on_c, 0, 37, 0
2, 36367, Note_on_c, 0, 42, 0
2, 36367, Note_on_c, 0, 49, 0
2, 36376, Note_on_c, 0, 30, 63
2, 36552, Control_c, 0, 64, 127
2, 36593, Note_on_c, 0, 37, 42
2, 36641, Note_on_c, 0, 42, 50
2, 36641, Note_on_c, 0, 49, 50
2, 36700, Note_on_c, 0, 30, 0
2, 36856, Control_c, 0, 64, 0
2, 36891, Note_on_c, 0, 42, 0
2, 36893, Note_on_c, 0, 37, 0
2, 36893, Note_on_c, 0, 49, 0
2, 36900, Note_on_c, 0, 30, 66
2, 37090, Control_c, 0, 64, 127
2, 37129, Note_on_c, 0, 37, 47
2, 37167, Note_on_c, 0, 42, 49
2, 37167, Note_on_c, 0, 49, 53
2, 37171, Note_on_c, 0, 30, 0
2, 37391, Control_c, 0, 64, 0
2, 37444, Note_on_c, 0, 37, 0
2, 37444, Note_on_c, 0, 42, 0
2, 37444, Note_on_c, 0, 49, 0
2, 37451, Note_on_c, 0, 30, 60
2, 37631, Control_c, 0, 64, 127
2, 37691, Note_on_c, 0, 37, 41
2, 37745, Note_on_c, 0, 42, 54
2, 37745, Note_on_c, 0, 49, 53
2, 37802, Note_on_c, 0, 30, 0
2, 37806, Control_c, 0, 67, 0
2, 37957, Control_c, 0, 64, 0
2, 37986, Note_on_c, 0, 49, 0
2, 37986, Note_on_c, 0, 42, 0
2, 37988, Note_on_c, 0, 37, 0
2, 37994, Note_on_c, 0, 30, 61
2, 38019, Note_on_c, 0, 30, 0
2, 38077, Note_on_c, 0, 59, 60
2, 38079, Note_on_c, 0, 35, 64
2, 38100, Note_on_c, 0, 59, 0
2, 38104, Note_on_c, 0, 35, 0
2, 38156, Note_on_c, 0, 37, 59
2, 38156, Note_on_c, 0, 61, 62
2, 38179, Note_on_c, 0, 61, 0
2, 38181, Note_on_c, 0, 37, 0
2, 38220, Note_on_c, 0, 49, 59
2, 38222, Note_on_c, 0, 25, 61
2, 38243, Note_on_c, 0, 49, 0
2, 38247, Note_on_c, 0, 25, 0
2, 38290, Note_on_c, 0, 30, 60
2, 38315, Note_on_c, 0, 30, 0
2, 38377, Note_on_c, 0, 54, 53
2, 38377, Note_on_c, 0, 58, 57
2, 38400, Note_on_c, 0, 58, 0
2, 38400, Note_on_c, 0, 54, 0
2, 38427, Control_c, 0, 64, 127
2, 38460, Control_c, 0, 64, 0
2, 38480, Note_on_c, 0, 42, 75
2, 38480, Note_on_c, 0, 54, 72
2, 38538, Control_c, 0, 64, 127
2, 38758, Note_on_c, 0, 54, 0
2, 38760, Note_on_c, 0, 42, 0
2, 38778, Control_c, 0, 64, 0
2, 38928, Note_on_c, 0, 42, 69
2, 39018, Note_on_c, 0, 42, 0
2, 39022, Note_on_c, 0, 57, 63
2, 39024, Note_on_c, 0, 49, 66
2, 39024, Note_on_c, 0, 54, 61
2, 39104, Note_on_c, 0, 54, 0
2, 39104, Note_on_c, 0, 57, 0
2, 39106, Note_on_c, 0, 49, 0
2, 39113, Note_on_c, 0, 37, 70
2, 39193, Note_on_c, 0, 37, 0
2, 39197, Note_on_c, 0, 54, 65
2, 39197, Note_on_c, 0, 57, 64
2, 39199, Note_on_c, 0, 49, 61
2, 39276, Note_on_c, 0, 49, 0
2, 39276, Note_on_c, 0, 57, 0
2, 39276, Note_on_c, 0, 54, 0
2, 39276, Note_on_c, 0, 42, 68
2, 39357, Note_on_c, 0, 42, 0
2, 39362, Note_on_c, 0, 49, 55
2, 39362, Note_on_c, 0, 54, 60
2, 39362, Note_on_c, 0, 57, 57
2, 39434, Note_on_c, 0, 57, 0
2, 39434, Note_on_c, 0, 54, 0
2, 39434, Note_on_c, 0, 49, 0
2, 39445, Note_on_c, 0, 37, 61
2, 39509, Note_on_c, 0, 37, 0
2, 39520, Note_on_c, 0, 54, 62
2, 39520, Note_on_c, 0, 57, 61
2, 39522, Note_on_c, 0, 49, 63
2, 39582, Note_on_c, 0, 54, 0
2, 39591, Note_on_c, 0, 49, 0
2, 39591, Note_on_c, 0, 57, 0
2, 39598, Note_on_c, 0, 42, 65
2, 39680, Note_on_c, 0, 42, 0
2, 39686, Note_on_c, 0, 50, 62
2, 39686, Note_on_c, 0, 54, 63
2, 39686, Note_on_c, 0, 59, 60
2, 39756, Note_on_c, 0, 59, 0
2, 39756, Note_on_c, 0, 54, 0
2, 39758, Note_on_c, 0, 50, 0
2, 39767, Note_on_c, 0, 35, 72
2, 39841, Note_on_c, 0, 59, 64
2, 39843, Note_on_c, 0, 50, 66
2, 39843, Note_on_c, 0, 54, 62
2, 39856, Note_on_c, 0, 35, 0
2, 39883, Note_on_c, 0, 59, 0
2, 39885, Note_on_c, 0, 50, 0
2, 39885, Note_on_c, 0, 54, 0
2, 39924, Note_on_c, 0, 42, 70
2, 39992, Note_on_c, 0, 57, 60
2, 39994, Note_on_c, 0, 49, 61
2, 39994, Note_on_c, 0, 54, 65
2, 40028, Note_on_c, 0, 42, 0
2, 40049, Note_on_c, 0, 57, 0
2, 40049, Note_on_c, 0, 49, 0
2, 40049, Note_on_c, 0, 54, 0
2, 40074, Note_on_c, 0, 37, 66
2, 40146, Note_on_c, 0, 37, 0
2, 40148, Note_on_c, 0, 49, 59
2, 40148, Note_on_c, 0, 54, 56
2, 40148, Note_on_c, 0, 57, 55
2, 40196, Control_c, 0, 64, 127
2, 40221, Note_on_c, 0, 42, 77
2, 40246, Note_on_c, 0, 54, 0
2, 40293, Note_on_c, 0, 49, 0
2, 40296, Note_on_c, 0, 54, 63
2, 40298, Note_on_c, 0, 47, 59
2, 40300, Note_on_c, 0, 50, 66
2, 40334, Control_c, 0, 64, 0
2, 40350, Note_on_c, 0, 54, 0
2, 40359, Note_on_c, 0, 47, 0
2, 40359, Note_on_c, 0, 42, 0
2, 40359, Note_on_c, 0, 57, 0
2, 40359, Note_on_c, 0, 50, 0
2, 40368, Note_on_c, 0, 35, 65
2, 40442, Note_on_c, 0, 47, 66
2, 40442, Note_on_c, 0, 50, 66
2, 40446, Note_on_c, 0, 35, 0
2, 40514, Note_on_c, 0, 42, 65
2, 40516, Note_on_c, 0, 50, 0
2, 40516, Note_on_c, 0, 47, 0
2, 40593, Note_on_c, 0, 45, 59
2, 40593, Note_on_c, 0, 49, 56
2, 40611, Note_on_c, 0, 42, 0
2, 40676, Note_on_c, 0, 37, 65
2, 40681, Note_on_c, 0, 49, 0
2, 40681, Note_on_c, 0, 45, 0
2, 40742, Note_on_c, 0, 49, 50
2, 40744, Note_on_c, 0, 45, 48
2, 40771, Note_on_c, 0, 37, 0
2, 40816, Note_on_c, 0, 45, 0
2, 40816, Note_on_c, 0, 49, 0
2, 40822, Note_on_c, 0, 41, 67
2, 40888, Note_on_c, 0, 41, 0
2, 40894, Note_on_c, 0, 49, 61
2, 40894, Note_on_c, 0, 53, 64
2, 40958, Note_on_c, 0, 53, 0
2, 40960, Note_on_c, 0, 49, 0
2, 40967, Note_on_c, 0, 37, 66
2, 41045, Note_on_c, 0, 49, 62
2, 41066, Note_on_c, 0, 37, 0
2, 41070, Note_on_c, 0, 49, 0
2, 41112, Note_on_c, 0, 42, 72
2, 41186, Note_on_c, 0, 42, 0
2, 41192, Note_on_c, 0, 45, 61
2, 41192, Note_on_c, 0, 49, 66
2, 41256, Note_on_c, 0, 49, 0
2, 41258, Note_on_c, 0, 45, 0
2, 41275, Note_on_c, 0, 37, 60
2, 41353, Note_on_c, 0, 37, 0
2, 41357, Note_on_c, 0, 45, 63
2, 41357, Note_on_c, 0, 49, 66
2, 41390, Note_on_c, 0, 49, 0
2, 41392, Note_on_c, 0, 45, 0
2, 41440, Note_on_c, 0, 42, 73
2, 41526, Note_on_c, 0, 57, 60
2, 41528, Note_on_c, 0, 49, 59
2, 41528, Note_on_c, 0, 54, 65
2, 41546, Note_on_c, 0, 42, 0
2, 41559, Note_on_c, 0, 57, 0
2, 41559, Note_on_c, 0, 54, 0
2, 41561, Note_on_c, 0, 49, 0
2, 41613, Note_on_c, 0, 49, 72
2, 41616, Note_on_c, 0, 37, 69
2, 41683, Note_on_c, 0, 49, 0
2, 41685, Note_on_c, 0, 37, 0
2, 41693, Note_on_c, 0, 57, 61
2, 41693, Note_on_c, 0, 61, 65
2, 41720, Note_on_c, 0, 61, 0
2, 41720, Note_on_c, 0, 57, 0
2, 41809, Note_on_c, 0, 42, 72
2, 41809, Note_on_c, 0, 54, 71
2, 41842, Control_c, 0, 64, 127
2, 41939, Note_on_c, 0, 69, 68
2, 41943, Note_on_c, 0, 57, 59
2, 41943, Note_on_c, 0, 61, 60
2, 41952, Control_c, 0, 64, 0
2, 41958, Note_on_c, 0, 54, 0
2, 41962, Note_on_c, 0, 42, 0
2, 41964, Note_on_c, 0, 69, 0
2, 41966, Note_on_c, 0, 61, 0
2, 41968, Note_on_c, 0, 57, 0
2, 42063, Note_on_c, 0, 49, 66
2, 42067, Note_on_c, 0, 37, 69
2, 42185, Note_on_c, 0, 61, 66
2, 42185, Note_on_c, 0, 66, 65
2, 42187, Note_on_c, 0, 57, 60
2, 42205, Note_on_c, 0, 49, 0
2, 42207, Note_on_c, 0, 37, 0
2, 42211, Note_on_c, 0, 66, 0
2, 42211, Note_on_c, 0, 61, 0
2, 42211, Note_on_c, 0, 57, 0
2, 42300, Note_on_c, 0, 54, 68
2, 42302, Note_on_c, 0, 42, 68
2, 42397, Note_on_c, 0, 54, 0
2, 42399, Note_on_c, 0, 42, 0
2, 42401, Note_on_c, 0, 65, 69
2, 42403, Note_on_c, 0, 56, 66
2, 42403, Note_on_c, 0, 59, 60
2, 42403, Note_on_c, 0, 62, 66
2, 42440, Note_on_c, 0, 65, 0
2, 42442, Note_on_c, 0, 62, 0
2, 42442, Note_on_c, 0, 59, 0
2, 42444, Note_on_c, 0, 56, 0
2, 42496, Note_on_c, 0, 47, 70
2, 42500, Note_on_c, 0, 35, 69
2, 42532, Note_on_c, 0, 47, 0
2, 42534, Note_on_c, 0, 35, 0
2, 42592, Note_on_c, 0, 56, 64
2, 42592, Note_on_c, 0, 59, 64
2, 42592, Note_on_c, 0, 62, 63
2, 42592, Note_on_c, 0, 65, 59
2, 42615, Note_on_c, 0, 65, 0
2, 42617, Note_on_c, 0, 56, 0
2, 42617, Note_on_c, 0, 59, 0
2, 42617, Note_on_c, 0, 62, 0
2, 42689, Note_on_c, 0, 42, 72
2, 42689, Note_on_c, 0, 54, 69
2, 42759, Note_on_c, 0, 54, 0
2, 42761, Note_on_c, 0, 42, 0
2, 42771, Note_on_c, 0, 57, 63
2, 42771, Note_on_c, 0, 61, 60
2, 42771, Note_on_c, 0, 66, 63
2, 42804, Note_on_c, 0, 66, 0
2, 42804, Note_on_c, 0, 61, 0
2, 42804, Note_on_c, 0, 57, 0
2, 42849, Control_c, 0, 67, 127
2, 42860, Note_on_c, 0, 42, 62
2, 42915, Note_on_c, 0, 42, 0
2, 42917, Note_on_c, 0, 57, 55
2, 42917, Note_on_c, 0, 61, 58
2, 42917, Note_on_c, 0, 66, 61
2, 42940, Note_on_c, 0, 66, 0
2, 42940, Note_on_c, 0, 61, 0
2, 42940, Note_on_c, 0, 57, 0
2, 42996, Note_on_c, 0, 54, 61
2, 43068, Note_on_c, 0, 57, 47
2, 43068, Note_on_c, 0, 62, 53
2, 43070, Note_on_c, 0, 54, 0
2, 43093, Note_on_c, 0, 62, 0
2, 43093, Note_on_c, 0, 57, 0
2, 43141, Note_on_c, 0, 52, 62
2, 43203, Note_on_c, 0, 52, 0
2, 43207, Note_on_c, 0, 61, 49
2, 43207, Note_on_c, 0, 64, 48
2, 43209, Note_on_c, 0, 57, 47
2, 43230, Note_on_c, 0, 64, 0
2, 43232, Note_on_c, 0, 57, 0
2, 43232, Note_on_c, 0, 61, 0
2, 43282, Note_on_c, 0, 50, 66
2, 43357, Note_on_c, 0, 66, 54
2, 43359, Note_on_c, 0, 59, 48
2, 43359, Note_on_c, 0, 62, 51
2, 43361, Note_on_c, 0, 54, 48
2, 43363, Note_on_c, 0, 50, 0
2, 43390, Note_on_c, 0, 66, 0
2, 43392, Note_on_c, 0, 62, 0
2, 43392, Note_on_c, 0, 59, 0
2, 43392, Note_on_c, 0, 54, 0
2, 43441, Note_on_c, 0, 49, 61
2, 43489, Note_on_c, 0, 49, 0
2, 43514, Note_on_c, 0, 64, 48
2, 43514, Note_on_c, 0, 69, 55
2, 43516, Note_on_c, 0, 57, 49
2, 43516, Note_on_c, 0, 61, 51
2, 43541, Note_on_c, 0, 61, 0
2, 43541, Note_on_c, 0, 64, 0
2, 43541, Note_on_c, 0, 69, 0
2, 43543, Note_on_c, 0, 57, 0
2, 43586, Note_on_c, 0, 37, 66
2, 43611, Note_on_c, 0, 37, 0
2, 43659, Note_on_c, 0, 65, 58
2, 43659, Note_on_c, 0, 73, 56
2, 43661, Note_on_c, 0, 61, 55
2, 43682, Note_on_c, 0, 73, 0
2, 43684, Note_on_c, 0, 61, 0
2, 43684, Note_on_c, 0, 65, 0
2, 43726, Note_on_c, 0, 49, 62
2, 43751, Note_on_c, 0, 49, 0
2, 43800, Note_on_c, 0, 65, 58
2, 43802, Note_on_c, 0, 59, 49
2, 43802, Note_on_c, 0, 61, 54
2, 43825, Note_on_c, 0, 61, 0
2, 43825, Note_on_c, 0, 65, 0
2, 43827, Note_on_c, 0, 59, 0
2, 43877, Note_on_c, 0, 42, 65
2, 43910, Note_on_c, 0, 42, 0
2, 43955, Note_on_c, 0, 57, 67
2, 43955, Note_on_c, 0, 61, 66
2, 43955, Note_on_c, 0, 66, 55
2, 43978, Note_on_c, 0, 66, 0
2, 43980, Note_on_c, 0, 61, 0
2, 43980, Note_on_c, 0, 57, 0
2, 43980, Control_c, 0, 67, 0
2, 44019, Note_on_c, 0, 42, 78
2, 44023, Note_on_c, 0, 30, 78
2, 44050, Control_c, 0, 64, 127
2, 44160, Control_c, 0, 64, 0
2, 44181, Note_on_c, 0, 42, 0
2, 44184, Note_on_c, 0, 30, 0
2, 44186, Note_on_c, 0, 46, 77
2, 44188, Note_on_c, 0, 34, 81
2, 44213, Note_on_c, 0, 46, 0
2, 44215, Note_on_c, 0, 34, 0
2, 44273, Note_on_c, 0, 61, 63
2, 44273, Note_on_c, 0, 64, 59
2, 44275, Note_on_c, 0, 54, 62
2, 44296, Note_on_c, 0, 54, 0
2, 44296, Note_on_c, 0, 64, 0
2, 44296, Note_on_c, 0, 61, 0
2, 44344, Note_on_c, 0, 42, 72
2, 44346, Note_on_c, 0, 30, 68
2, 44369, Note_on_c, 0, 42, 0
2, 44371, Note_on_c, 0, 30, 0
2, 44428, Note_on_c, 0, 54, 43
2, 44428, Note_on_c, 0, 61, 44
2, 44428, Note_on_c, 0, 64, 48
2, 44453, Note_on_c, 0, 64, 0
2, 44453, Note_on_c, 0, 61, 0
2, 44453, Note_on_c, 0, 54, 0
2, 44501, Note_on_c, 0, 46, 54
2, 44503, Note_on_c, 0, 34, 59
2, 44524, Note_on_c, 0, 46, 0
2, 44526, Note_on_c, 0, 34, 0
2, 44587, Note_on_c, 0, 54, 65
2, 44587, Note_on_c, 0, 62, 66
2, 44587, Note_on_c, 0, 66, 74
2, 44608, Control_c, 0, 64, 127
2, 44665, Note_on_c, 0, 42, 70
2, 44669, Note_on_c, 0, 30, 69
2, 44688, Note_on_c, 0, 66, 0
2, 44688, Note_on_c, 0, 54, 0
2, 44688, Note_on_c, 0, 62, 0
2, 44741, Control_c, 0, 64, 0
2, 44741, Note_on_c, 0, 54, 64
2, 44741, Note_on_c, 0, 61, 66
2, 44741, Note_on_c, 0, 64, 61
2, 44766, Note_on_c, 0, 64, 0
2, 44766, Note_on_c, 0, 54, 0
2, 44766, Note_on_c, 0, 61, 0
2, 44768, Note_on_c, 0, 42, 0
2, 44770, Note_on_c, 0, 30, 0
2, 44817, Note_on_c, 0, 47, 67
2, 44819, Note_on_c, 0, 35, 65
2, 44885, Note_on_c, 0, 54, 69
2, 44885, Note_on_c, 0, 59, 65
2, 44885, Note_on_c, 0, 62, 67
2, 44896, Note_on_c, 0, 47, 0
2, 44898, Note_on_c, 0, 35, 0
2, 44908, Note_on_c, 0, 59, 0
2, 44910, Note_on_c, 0, 54, 0
2, 44910, Note_on_c, 0, 62, 0
2, 44957, Note_on_c, 0, 42, 67
2, 44961, Note_on_c, 0, 30, 71
2, 45017, Note_on_c, 0, 62, 66
2, 45019, Note_on_c, 0, 54, 64
2, 45019, Note_on_c, 0, 59, 62
2, 45023, Note_on_c, 0, 30, 0
2, 45023, Note_on_c, 0, 42, 0
2, 45056, Note_on_c, 0, 54, 0
2, 45056, Note_on_c, 0, 62, 0
2, 45056, Note_on_c, 0, 59, 0
2, 45089, Note_on_c, 0, 47, 64
2, 45091, Note_on_c, 0, 35, 60
2, 45114, Note_on_c, 0, 47, 0
2, 45116, Note_on_c, 0, 35, 0
2, 45159, Note_on_c, 0, 54, 61
2, 45159, Note_on_c, 0, 59, 66
2, 45159, Note_on_c, 0, 62, 64
2, 45192, Note_on_c, 0, 62, 0
2, 45192, Note_on_c, 0, 59, 0
2, 45192, Note_on_c, 0, 54, 0
2, 45232, Note_on_c, 0, 33, 61
2, 45232, Note_on_c, 0, 45, 65
2, 45253, Note_on_c, 0, 45, 0
2, 45255, Note_on_c, 0, 33, 0
2, 45305, Note_on_c, 0, 62, 65
2, 45307, Note_on_c, 0, 54, 64
2, 45307, Note_on_c, 0, 59, 63
2, 45340, Note_on_c, 0, 59, 0
2, 45340, Note_on_c, 0, 54, 0
2, 45340, Note_on_c, 0, 62, 0
2, 45398, Note_on_c, 0, 44, 66
2, 45400, Note_on_c, 0, 32, 71
2, 45423, Note_on_c, 0, 44, 0
2, 45425, Note_on_c, 0, 32, 0
2, 45473, Note_on_c, 0, 59, 59
2, 45473, Note_on_c, 0, 62, 64
2, 45475, Note_on_c, 0, 52, 62
2, 45512, Note_on_c, 0, 62, 0
2, 45512, Note_on_c, 0, 59, 0
2, 45514, Note_on_c, 0, 52, 0
2, 45552, Note_on_c, 0, 40, 71
2, 45553, Note_on_c, 0, 28, 71
2, 45576, Note_on_c, 0, 28, 0
2, 45576, Note_on_c, 0, 40, 0
2, 45618, Note_on_c, 0, 59, 59
2, 45620, Note_on_c, 0, 52, 63
2, 45620, Note_on_c, 0, 62, 62
2, 45659, Note_on_c, 0, 62, 0
2, 45659, Note_on_c, 0, 52, 0
2, 45659, Note_on_c, 0, 59, 0
2, 45707, Note_on_c, 0, 44, 75
2, 45709, Note_on_c, 0, 32, 76
2, 45732, Note_on_c, 0, 44, 0
2, 45734, Note_on_c, 0, 32, 0
2, 45781, Control_c, 0, 64, 127
2, 45785, Note_on_c, 0, 61, 76
2, 45785, Note_on_c, 0, 64, 76
2, 45787, Note_on_c, 0, 52, 77
2, 45839, Note_on_c, 0, 64, 0
2, 45839, Note_on_c, 0, 61, 0
2, 45840, Note_on_c, 0, 52, 0
2, 45847, Note_on_c, 0, 40, 66
2, 45849, Note_on_c, 0, 28, 66
2, 45860, Control_c, 0, 64, 0
2, 45872, Note_on_c, 0, 40, 0
2, 45874, Note_on_c, 0, 28, 0
2, 45926, Note_on_c, 0, 62, 65
2, 45928, Note_on_c, 0, 52, 60
2, 45928, Note_on_c, 0, 59, 63
2, 45967, Note_on_c, 0, 59, 0
2, 45967, Note_on_c, 0, 52, 0
2, 45967, Note_on_c, 0, 62, 0
2, 45998, Note_on_c, 0, 45, 67
2, 46000, Note_on_c, 0, 33, 67
2, 46025, Note_on_c, 0, 45, 0
2, 46027, Note_on_c, 0, 33, 0
2, 46079, Note_on_c, 0, 57, 61
2, 46079, Note_on_c, 0, 61, 59
2, 46080, Note_on_c, 0, 52, 64
2, 46111, Note_on_c, 0, 61, 0
2, 46111, Note_on_c, 0, 57, 0
2, 46113, Note_on_c, 0, 52, 0
2, 46152, Note_on_c, 0, 28, 65
2, 46152, Note_on_c, 0, 40, 68
2, 46176, Note_on_c, 0, 40, 0
2, 46179, Note_on_c, 0, 28, 0
2, 46239, Note_on_c, 0, 57, 69
2, 46239, Note_on_c, 0, 61, 71
2, 46241, Note_on_c, 0, 52, 69
2, 46280, Note_on_c, 0, 52, 0
2, 46280, Note_on_c, 0, 61, 0
2, 46280, Note_on_c, 0, 57, 0
2, 46313, Note_on_c, 0, 45, 65
2, 46315, Note_on_c, 0, 33, 70
2, 46344, Note_on_c, 0, 45, 0
2, 46345, Note_on_c, 0, 33, 0
2, 46397, Note_on_c, 0, 61, 59
2, 46399, Note_on_c, 0, 52, 62
2, 46399, Note_on_c, 0, 57, 61
2, 46437, Control_c, 0, 67, 127
2, 46439, Note_on_c, 0, 61, 0
2, 46440, Note_on_c, 0, 57, 0
2, 46440, Note_on_c, 0, 52, 0
2, 46488, Note_on_c, 0, 49, 66
2, 46489, Note_on_c, 0, 37, 66
2, 46512, Note_on_c, 0, 49, 0
2, 46514, Note_on_c, 0, 37, 0
2, 46604, Note_on_c, 0, 57, 57
2, 46604, Note_on_c, 0, 61, 57
2, 46606, Note_on_c, 0, 52, 54
2, 46608, Control_c, 0, 64, 127
2, 46703, Note_on_c, 0, 52, 0
2, 46703, Note_on_c, 0, 61, 0
2, 46703, Note_on_c, 0, 57, 0
2, 46740, Control_c, 0, 64, 0
2, 46754, Note_on_c, 0, 41, 59
2, 46924, Note_on_c, 0, 49, 48
2, 46924, Note_on_c, 0, 59, 53
2, 46957, Note_on_c, 0, 59, 0
2, 46959, Note_on_c, 0, 49, 0
2, 47066, Note_on_c, 0, 37, 56
2, 47077, Note_on_c, 0, 41, 0
2, 47127, Control_c, 0, 64, 127
2, 47220, Note_on_c, 0, 49, 48
2, 47220, Note_on_c, 0, 59, 47
2, 47349, Control_c, 0, 64, 0
2, 47365, Note_on_c, 0, 59, 0
2, 47365, Note_on_c, 0, 49, 0
2, 47365, Note_on_c, 0, 37, 0
2, 47372, Note_on_c, 0, 41, 65
2, 47444, Note_on_c, 0, 41, 0
2, 47544, Note_on_c, 0, 61, 64
2, 47552, Note_on_c, 0, 49, 46
2, 47583, Control_c, 0, 64, 127
2, 47683, Note_on_c, 0, 49, 0
2, 47685, Note_on_c, 0, 61, 0
2, 47690, Note_on_c, 0, 37, 53
2, 47730, Control_c, 0, 64, 0
2, 47833, Note_on_c, 0, 59, 47
2, 47839, Note_on_c, 0, 49, 48
2, 47846, Control_c, 0, 64, 127
2, 47962, Note_on_c, 0, 49, 0
2, 47962, Note_on_c, 0, 59, 0
2, 47962, Note_on_c, 0, 37, 0
2, 47962, Control_c, 0, 64, 0
2, 47969, Note_on_c, 0, 38, 59
2, 48035, Note_on_c, 0, 38, 0
2, 48118, Note_on_c, 0, 57, 42
2, 48132, Note_on_c, 0, 50, 44
2, 48165, Control_c, 0, 64, 127
2, 48258, Note_on_c, 0, 33, 49
2, 48274, Note_on_c, 0, 50, 0
2, 48274, Note_on_c, 0, 57, 0
2, 48290, Control_c, 0, 64, 0
2, 48398, Note_on_c, 0, 33, 0
2, 48404, Note_on_c, 0, 56, 65
2, 48412, Note_on_c, 0, 50, 45
2, 48460, Control_c, 0, 64, 127
2, 48527, Note_on_c, 0, 50, 0
2, 48527, Note_on_c, 0, 56, 0
2, 48550, Note_on_c, 0, 38, 58
2, 48659, Note_on_c, 0, 38, 0
2, 48659, Control_c, 0, 64, 0
2, 48675, Note_on_c, 0, 59, 42
2, 48682, Note_on_c, 0, 53, 43
2, 48684, Note_on_c, 0, 50, 47
2, 48729, Control_c, 0, 64, 127
2, 48793, Note_on_c, 0, 59, 0
2, 48795, Note_on_c, 0, 50, 0
2, 48795, Note_on_c, 0, 53, 0
2, 48802, Note_on_c, 0, 33, 49
2, 48825, Control_c, 0, 64, 0
2, 48943, Note_on_c, 0, 33, 0
2, 48949, Note_on_c, 0, 57, 41
2, 48958, Note_on_c, 0, 49, 41
2, 48958, Note_on_c, 0, 54, 47
2, 48968, Control_c, 0, 67, 0
2, 48988, Control_c, 0, 64, 127
2, 49060, Note_on_c, 0, 54, 0
2, 49060, Note_on_c, 0, 49, 0
2, 49060, Note_on_c, 0, 57, 0
2, 49100, Note_on_c, 0, 53, 78
2, 49100, Note_on_c, 0, 65, 82
2, 49102, Control_c, 0, 64, 0
2, 49102, Note_on_c, 0, 25, 77
2, 49102, Note_on_c, 0, 37, 72
2, 49102, Note_on_c, 0, 56, 76
2, 49102, Note_on_c, 0, 61, 75
2, 49127, Note_on_c, 0, 61, 0
2, 49127, Note_on_c, 0, 65, 0
2, 49127, Note_on_c, 0, 25, 0
2, 49127, Note_on_c, 0, 53, 0
2, 49127, Note_on_c, 0, 56, 0
2, 49127, Note_on_c, 0, 37, 0
2, 49397, Note_on_c, 0, 61, 70
2, 49399, Note_on_c, 0, 37, 69
2, 49399, Note_on_c, 0, 49, 65
2, 49424, Note_on_c, 0, 49, 0
2, 49424, Note_on_c, 0, 37, 0
2, 49424, Note_on_c, 0, 61, 0
2, 49453, Note_on_c, 0, 39, 78
2, 49453, Note_on_c, 0, 51, 82
2, 49453, Note_on_c, 0, 63, 82
2, 49478, Note_on_c, 0, 63, 0
2, 49478, Note_on_c, 0, 51, 0
2, 49480, Note_on_c, 0, 39, 0
2, 49625, Note_on_c, 0, 41, 71
2, 49625, Note_on_c, 0, 53, 71
2, 49625, Note_on_c, 0, 65, 75
2, 49648, Note_on_c, 0, 65, 0
2, 49648, Note_on_c, 0, 53, 0
2, 49648, Note_on_c, 0, 41, 0
2, 49755, Note_on_c, 0, 42, 70
2, 49755, Note_on_c, 0, 54, 71
2, 49755, Note_on_c, 0, 57, 65
2, 49755, Note_on_c, 0, 61, 71
2, 49755, Note_on_c, 0, 66, 78
2, 49757, Note_on_c, 0, 30, 68
2, 49778, Note_on_c, 0, 30, 0
2, 49778, Note_on_c, 0, 54, 0
2, 49778, Note_on_c, 0, 57, 0
2, 49778, Note_on_c, 0, 42, 0
2, 49778, Note_on_c, 0, 66, 0
2, 49778, Note_on_c, 0, 61, 0
2, 49832, Note_on_c, 0, 54, 81
2, 49832, Note_on_c, 0, 57, 83
2, 49832, Note_on_c, 0, 61, 80
2, 49834, Note_on_c, 0, 66, 79
2, 49857, Note_on_c, 0, 66, 0
2, 49857, Note_on_c, 0, 54, 0
2, 49857, Note_on_c, 0, 57, 0
2, 49857, Note_on_c, 0, 61, 0
2, 49993, Note_on_c, 0, 57, 63
2, 49993, Note_on_c, 0, 61, 62
2, 50018, Note_on_c, 0, 61, 0
2, 50018, Note_on_c, 0, 57, 0
2, 50058, Note_on_c, 0, 30, 72
2, 50058, Note_on_c, 0, 42, 76
2, 50058, Note_on_c, 0, 56, 74
2, 50058, Note_on_c, 0, 59, 72
2, 50058, Note_on_c, 0, 62, 75
2, 50058, Note_on_c, 0, 65, 78
2, 50079, Note_on_c, 0, 59, 0
2, 50081, Note_on_c, 0, 42, 0
2, 50081, Note_on_c, 0, 56, 0
2, 50081, Note_on_c, 0, 30, 0
2, 50081, Note_on_c, 0, 65, 0
2, 50081, Note_on_c, 0, 62, 0
2, 50219, Note_on_c, 0, 57, 72
2, 50221, Note_on_c, 0, 30, 77
2, 50221, Note_on_c, 0, 42, 78
2, 50221, Note_on_c, 0, 61, 71
2, 50221, Note_on_c, 0, 66, 74
2, 50305, Note_on_c, 0, 61, 0
2, 50307, Note_on_c, 0, 42, 0
2, 50307, Note_on_c, 0, 57, 0
2, 50307, Note_on_c, 0, 30, 0
2, 50307, Note_on_c, 0, 66, 0
2, 50388, Note_on_c, 0, 56, 76
2, 50390, Note_on_c, 0, 35, 78
2, 50390, Note_on_c, 0, 47, 75
2, 50390, Note_on_c, 0, 66, 77
2, 50392, Note_on_c, 0, 62, 73
2, 50413, Note_on_c, 0, 62, 0
2, 50413, Note_on_c, 0, 47, 0
2, 50413, Note_on_c, 0, 56, 0
2, 50413, Note_on_c, 0, 35, 0
2, 50413, Note_on_c, 0, 66, 0
2, 50544, Note_on_c, 0, 49, 71
2, 50544, Note_on_c, 0, 56, 73
2, 50544, Note_on_c, 0, 59, 73
2, 50544, Note_on_c, 0, 61, 71
2, 50544, Note_on_c, 0, 65, 76
2, 50545, Note_on_c, 0, 37, 78
2, 50576, Note_on_c, 0, 65, 0
2, 50576, Note_on_c, 0, 61, 0
2, 50576, Note_on_c, 0, 59, 0
2, 50576, Note_on_c, 0, 49, 0
2, 50576, Note_on_c, 0, 56, 0
2, 50578, Note_on_c, 0, 37, 0
2, 50721, Note_on_c, 0, 42, 83
2, 50721, Note_on_c, 0, 54, 84
2, 50721, Note_on_c, 0, 57, 82
2, 50721, Note_on_c, 0, 61, 84
2, 50721, Note_on_c, 0, 66, 82
2, 50723, Note_on_c, 0, 30, 79
2, 50746, Control_c, 0, 64, 127
2, 50977, Note_on_c, 0, 66, 0
2, 50977, Note_on_c, 0, 61, 0
2, 50979, Note_on_c, 0, 57, 0
2, 50979, Note_on_c, 0, 42, 0
2, 50979, Note_on_c, 0, 30, 0
2, 50979, Note_on_c, 0, 54, 0
2, 50986, Control_c, 0, 64, 0
2, 50986, End_track
3, 0, Start_track
3, 0, Title_t, "c/b Brahms"
3, 0, End_track
4, 0, Start_track
4, 0, Title_t, "p/b Mme. Sturkow-Ryder"
4, 0, End_track
5, 0, Start_track
5, 0, Title_t, "Ampico # 65651"
5, 0, End_track
6, 0, Start_track
6, 0, Title_t, "Scan of a player piano roll"
6, 0, End_track
7, 0, Start_track
7, 0, Title_t, "by Terry Smythe, Winnipeg, Canada"
7, 0, End_track
0, 0, End_of_file
