0, 0, Header, 1, 5, 480
1, 0, Start_track
1, 0, Title_t, "brahms hungarian dance n09 in emajor 4-hands"
1, 0, Copyright_t, "Segundo G. Yogore,  dody@info.com.ph \012__________________________________________________________\012Kunst der Fuge comment: this is the Contributor's property.\012Can *not* be used for commercial purposes without authorization!\012Copyright by Contributor - Kunst der Fuge, © 2002-05\012http://www.kunstderfuge.com/thanks.htm -> Contributors' list\012http://www.kunstderfuge.com/notes.htm -> Terms & conditions"
1, 0, Text_t, "sequenced by Segundo G. Yogore, 2004\012"
1, 0, Time_signature, 2, 2, 24, 8
1, 0, Key_signature, 4, "major"
1, 0, Tempo, 400000
1, 3840, Tempo, 400000
1, 34560, Tempo, 500000
1, 35520, Time_signature, 3, 2, 24, 8
1, 36960, Time_signature, 2, 2, 24, 8
1, 36960, Tempo, 400000
1, 38880, Tempo, 500000
1, 39840, Time_signature, 3, 2, 24, 8
1, 41280, Time_signature, 2, 2, 24, 8
1, 41280, Tempo, 400000
1, 85920, Tempo, 375000
1, 101760, Time_signature, 6, 2, 24, 8
1, 101760, End_track
2, 0, Start_track
2, 0, Title_t, "Grand Piano"
2, 0, Program_c, 0, 0
2, 0, Control_c, 0, 7, 110
2, 0, Control_c, 0, 10, 97
2, 240, Note_on_c, 0, 83, 75
2, 240, Note_on_c, 0, 88, 75
2, 240, Note_on_c, 0, 92, 75
2, 263, Note_on_c, 0, 92, 0
2, 263, Note_on_c, 0, 88, 0
2, 263, Note_on_c, 0, 83, 0
2, 720, Note_on_c, 0, 83, 75
2, 720, Note_on_c, 0, 88, 75
2, 720, Note_on_c, 0, 92, 75
2, 743, Note_on_c, 0, 92, 0
2, 743, Note_on_c, 0, 88, 0
2, 743, Note_on_c, 0, 83, 0
2, 1200, Note_on_c, 0, 83, 75
2, 1200, Note_on_c, 0, 88, 75
2, 1200, Note_on_c, 0, 92, 75
2, 1223, Note_on_c, 0, 92, 0
2, 1223, Note_on_c, 0, 88, 0
2, 1223, Note_on_c, 0, 83, 0
2, 1680, Note_on_c, 0, 86, 75
2, 1680, Note_on_c, 0, 88, 75
2, 1680, Note_on_c, 0, 92, 75
2, 1703, Note_on_c, 0, 92, 0
2, 1703, Note_on_c, 0, 88, 0
2, 1703, Note_on_c, 0, 86, 0
2, 2160, Note_on_c, 0, 85, 75
2, 2160, Note_on_c, 0, 88, 75
2, 2160, Note_on_c, 0, 93, 75
2, 2183, Note_on_c, 0, 93, 0
2, 2183, Note_on_c, 0, 88, 0
2, 2183, Note_on_c, 0, 85, 0
2, 2640, Note_on_c, 0, 81, 75
2, 2640, Note_on_c, 0, 85, 75
2, 2640, Note_on_c, 0, 90, 75
2, 2663, Note_on_c, 0, 90, 0
2, 2663, Note_on_c, 0, 85, 0
2, 2663, Note_on_c, 0, 81, 0
2, 3120, Note_on_c, 0, 81, 75
2, 3120, Note_on_c, 0, 83, 75
2, 3120, Note_on_c, 0, 87, 75
2, 3143, Note_on_c, 0, 87, 0
2, 3143, Note_on_c, 0, 83, 0
2, 3143, Note_on_c, 0, 81, 0
2, 3600, Note_on_c, 0, 80, 75
2, 3600, Note_on_c, 0, 83, 75
2, 3600, Note_on_c, 0, 88, 75
2, 3623, Note_on_c, 0, 88, 0
2, 3623, Note_on_c, 0, 83, 0
2, 3623, Note_on_c, 0, 80, 0
2, 4080, Note_on_c, 0, 83, 75
2, 4080, Note_on_c, 0, 88, 75
2, 4080, Note_on_c, 0, 92, 75
2, 4103, Note_on_c, 0, 92, 0
2, 4103, Note_on_c, 0, 88, 0
2, 4103, Note_on_c, 0, 83, 0
2, 4560, Note_on_c, 0, 83, 75
2, 4560, Note_on_c, 0, 88, 75
2, 4560, Note_on_c, 0, 92, 75
2, 4583, Note_on_c, 0, 92, 0
2, 4583, Note_on_c, 0, 88, 0
2, 4583, Note_on_c, 0, 83, 0
2, 5040, Note_on_c, 0, 83, 75
2, 5040, Note_on_c, 0, 88, 75
2, 5040, Note_on_c, 0, 92, 75
2, 5063, Note_on_c, 0, 92, 0
2, 5063, Note_on_c, 0, 88, 0
2, 5063, Note_on_c, 0, 83, 0
2, 5520, Note_on_c, 0, 86, 75
2, 5520, Note_on_c, 0, 88, 75
2, 5520, Note_on_c, 0, 92, 75
2, 5543, Note_on_c, 0, 92, 0
2, 5543, Note_on_c, 0, 88, 0
2, 5543, Note_on_c, 0, 86, 0
2, 6000, Note_on_c, 0, 85, 75
2, 6000, Note_on_c, 0, 88, 75
2, 6000, Note_on_c, 0, 93, 75
2, 6023, Note_on_c, 0, 93, 0
2, 6023, Note_on_c, 0, 88, 0
2, 6023, Note_on_c, 0, 85, 0
2, 6480, Note_on_c, 0, 81, 75
2, 6480, Note_on_c, 0, 85, 75
2, 6480, Note_on_c, 0, 90, 75
2, 6503, Note_on_c, 0, 90, 0
2, 6503, Note_on_c, 0, 85, 0
2, 6503, Note_on_c, 0, 81, 0
2, 6960, Note_on_c, 0, 81, 75
2, 6960, Note_on_c, 0, 83, 75
2, 6960, Note_on_c, 0, 87, 75
2, 6983, Note_on_c, 0, 87, 0
2, 6983, Note_on_c, 0, 83, 0
2, 6983, Note_on_c, 0, 81, 0
2, 7440, Note_on_c, 0, 80, 75
2, 7440, Note_on_c, 0, 83, 75
2, 7440, Note_on_c, 0, 88, 75
2, 7463, Note_on_c, 0, 88, 0
2, 7463, Note_on_c, 0, 83, 0
2, 7463, Note_on_c, 0, 80, 0
2, 7680, Control_c, 0, 64, 127
2, 7680, Note_on_c, 0, 95, 88
2, 7920, Note_on_c, 0, 95, 0
2, 7920, Note_on_c, 0, 97, 88
2, 8040, Note_on_c, 0, 97, 0
2, 8040, Note_on_c, 0, 99, 88
2, 8160, Note_on_c, 0, 99, 0
2, 8160, Control_c, 0, 64, 0
2, 8160, Note_on_c, 0, 88, 88
2, 8160, Note_on_c, 0, 100, 88
2, 8183, Note_on_c, 0, 100, 0
2, 8183, Note_on_c, 0, 88, 0
2, 8400, Note_on_c, 0, 88, 88
2, 8400, Note_on_c, 0, 100, 88
2, 8880, Note_on_c, 0, 100, 0
2, 8880, Note_on_c, 0, 88, 0
2, 8880, Note_on_c, 0, 86, 88
2, 8880, Note_on_c, 0, 98, 88
2, 9000, Note_on_c, 0, 98, 0
2, 9000, Note_on_c, 0, 86, 0
2, 9000, Note_on_c, 0, 85, 88
2, 9000, Note_on_c, 0, 97, 88
2, 9120, Note_on_c, 0, 97, 0
2, 9120, Note_on_c, 0, 85, 0
2, 9120, Note_on_c, 0, 83, 88
2, 9120, Note_on_c, 0, 95, 88
2, 9600, Note_on_c, 0, 95, 0
2, 9600, Note_on_c, 0, 83, 0
2, 9600, Control_c, 0, 64, 127
2, 9600, Note_on_c, 0, 85, 88
2, 9600, Note_on_c, 0, 97, 88
2, 9840, Note_on_c, 0, 97, 0
2, 9840, Note_on_c, 0, 85, 0
2, 9840, Note_on_c, 0, 93, 88
2, 9960, Note_on_c, 0, 93, 0
2, 9960, Note_on_c, 0, 95, 88
2, 10080, Note_on_c, 0, 95, 0
2, 10080, Control_c, 0, 64, 0
2, 10080, Note_on_c, 0, 85, 88
2, 10080, Note_on_c, 0, 97, 88
2, 10103, Note_on_c, 0, 97, 0
2, 10103, Note_on_c, 0, 85, 0
2, 10320, Note_on_c, 0, 81, 88
2, 10320, Note_on_c, 0, 93, 88
2, 10800, Note_on_c, 0, 93, 0
2, 10800, Note_on_c, 0, 81, 0
2, 10800, Note_on_c, 0, 92, 88
2, 10920, Note_on_c, 0, 92, 0
2, 10920, Note_on_c, 0, 90, 88
2, 11040, Note_on_c, 0, 90, 0
2, 11040, Note_on_c, 0, 88, 88
2, 11520, Note_on_c, 0, 88, 0
2, 11520, Control_c, 0, 64, 127
2, 11520, Note_on_c, 0, 95, 88
2, 11760, Note_on_c, 0, 95, 0
2, 11760, Note_on_c, 0, 97, 88
2, 11880, Note_on_c, 0, 97, 0
2, 11880, Note_on_c, 0, 99, 88
2, 12000, Note_on_c, 0, 99, 0
2, 12000, Control_c, 0, 64, 0
2, 12000, Note_on_c, 0, 88, 88
2, 12000, Note_on_c, 0, 100, 88
2, 12023, Note_on_c, 0, 100, 0
2, 12023, Note_on_c, 0, 88, 0
2, 12240, Note_on_c, 0, 88, 88
2, 12240, Note_on_c, 0, 100, 88
2, 12720, Note_on_c, 0, 100, 0
2, 12720, Note_on_c, 0, 88, 0
2, 12720, Note_on_c, 0, 86, 88
2, 12720, Note_on_c, 0, 98, 88
2, 12840, Note_on_c, 0, 98, 0
2, 12840, Note_on_c, 0, 86, 0
2, 12840, Note_on_c, 0, 85, 88
2, 12840, Note_on_c, 0, 97, 88
2, 12960, Note_on_c, 0, 97, 0
2, 12960, Note_on_c, 0, 85, 0
2, 12960, Note_on_c, 0, 83, 88
2, 12960, Note_on_c, 0, 95, 88
2, 13440, Note_on_c, 0, 95, 0
2, 13440, Note_on_c, 0, 83, 0
2, 13440, Control_c, 0, 64, 127
2, 13440, Note_on_c, 0, 85, 88
2, 13440, Note_on_c, 0, 97, 88
2, 13680, Note_on_c, 0, 97, 0
2, 13680, Note_on_c, 0, 85, 0
2, 13680, Note_on_c, 0, 93, 88
2, 13800, Note_on_c, 0, 93, 0
2, 13800, Note_on_c, 0, 95, 88
2, 13920, Note_on_c, 0, 95, 0
2, 13920, Control_c, 0, 64, 0
2, 13920, Note_on_c, 0, 85, 88
2, 13920, Note_on_c, 0, 97, 88
2, 13943, Note_on_c, 0, 97, 0
2, 13943, Note_on_c, 0, 85, 0
2, 14160, Note_on_c, 0, 81, 88
2, 14160, Note_on_c, 0, 93, 88
2, 14640, Note_on_c, 0, 93, 0
2, 14640, Note_on_c, 0, 81, 0
2, 14640, Note_on_c, 0, 92, 88
2, 14760, Note_on_c, 0, 92, 0
2, 14760, Note_on_c, 0, 90, 88
2, 14880, Note_on_c, 0, 90, 0
2, 14880, Note_on_c, 0, 88, 88
2, 15360, Note_on_c, 0, 88, 0
2, 15360, Note_on_c, 0, 83, 114
2, 15360, Note_on_c, 0, 95, 114
2, 15383, Note_on_c, 0, 95, 0
2, 15383, Note_on_c, 0, 83, 0
2, 19200, Note_on_c, 0, 73, 62
2, 19223, Note_on_c, 0, 73, 0
2, 19440, Note_on_c, 0, 73, 88
2, 19560, Note_on_c, 0, 73, 0
2, 19560, Note_on_c, 0, 71, 62
2, 19680, Note_on_c, 0, 71, 0
2, 19680, Note_on_c, 0, 71, 88
2, 19800, Note_on_c, 0, 71, 0
2, 19800, Note_on_c, 0, 69, 62
2, 19920, Note_on_c, 0, 69, 0
2, 19920, Note_on_c, 0, 69, 88
2, 20040, Note_on_c, 0, 69, 0
2, 20040, Note_on_c, 0, 66, 62
2, 20160, Note_on_c, 0, 66, 0
2, 20160, Note_on_c, 0, 64, 62
2, 20183, Note_on_c, 0, 64, 0
2, 20400, Note_on_c, 0, 64, 62
2, 20520, Note_on_c, 0, 64, 0
2, 20520, Note_on_c, 0, 66, 62
2, 20640, Note_on_c, 0, 66, 0
2, 20640, Note_on_c, 0, 68, 62
2, 20663, Note_on_c, 0, 68, 0
2, 20880, Note_on_c, 0, 64, 62
2, 20903, Note_on_c, 0, 64, 0
2, 21120, Note_on_c, 0, 73, 62
2, 21143, Note_on_c, 0, 73, 0
2, 21360, Note_on_c, 0, 73, 88
2, 21480, Note_on_c, 0, 73, 0
2, 21480, Note_on_c, 0, 71, 62
2, 21600, Note_on_c, 0, 71, 0
2, 21600, Note_on_c, 0, 71, 88
2, 21720, Note_on_c, 0, 71, 0
2, 21720, Note_on_c, 0, 69, 62
2, 21840, Note_on_c, 0, 69, 0
2, 21840, Note_on_c, 0, 69, 88
2, 21960, Note_on_c, 0, 69, 0
2, 21960, Note_on_c, 0, 66, 62
2, 22080, Note_on_c, 0, 66, 0
2, 22080, Note_on_c, 0, 64, 62
2, 22103, Note_on_c, 0, 64, 0
2, 22320, Note_on_c, 0, 64, 62
2, 22440, Note_on_c, 0, 64, 0
2, 22440, Note_on_c, 0, 66, 62
2, 22560, Note_on_c, 0, 66, 0
2, 22560, Note_on_c, 0, 68, 62
2, 22583, Note_on_c, 0, 68, 0
2, 22800, Note_on_c, 0, 64, 62
2, 22823, Note_on_c, 0, 64, 0
2, 23040, Note_on_c, 0, 71, 88
2, 23760, Note_on_c, 0, 71, 0
2, 23760, Note_on_c, 0, 81, 62
2, 23760, Note_on_c, 0, 83, 62
2, 24000, Note_on_c, 0, 81, 0
2, 24000, Note_on_c, 0, 80, 62
2, 24240, Note_on_c, 0, 80, 0
2, 24240, Note_on_c, 0, 83, 0
2, 24240, Note_on_c, 0, 76, 62
2, 24240, Note_on_c, 0, 83, 62
2, 24360, Note_on_c, 0, 83, 0
2, 24360, Note_on_c, 0, 76, 0
2, 24360, Note_on_c, 0, 78, 62
2, 24480, Note_on_c, 0, 78, 0
2, 24480, Note_on_c, 0, 80, 62
2, 24503, Note_on_c, 0, 80, 0
2, 24720, Note_on_c, 0, 76, 62
2, 24720, Note_on_c, 0, 83, 62
2, 24743, Note_on_c, 0, 83, 0
2, 24743, Note_on_c, 0, 76, 0
2, 24960, Note_on_c, 0, 71, 88
2, 25680, Note_on_c, 0, 71, 0
2, 25680, Note_on_c, 0, 81, 62
2, 25680, Note_on_c, 0, 83, 62
2, 25920, Note_on_c, 0, 81, 0
2, 25920, Note_on_c, 0, 80, 62
2, 26160, Note_on_c, 0, 80, 0
2, 26160, Note_on_c, 0, 83, 0
2, 26160, Note_on_c, 0, 76, 62
2, 26160, Note_on_c, 0, 83, 62
2, 26280, Note_on_c, 0, 83, 0
2, 26280, Note_on_c, 0, 76, 0
2, 26280, Note_on_c, 0, 78, 62
2, 26400, Note_on_c, 0, 78, 0
2, 26400, Note_on_c, 0, 80, 62
2, 26423, Note_on_c, 0, 80, 0
2, 26640, Note_on_c, 0, 76, 62
2, 26640, Note_on_c, 0, 83, 62
2, 26663, Note_on_c, 0, 83, 0
2, 26663, Note_on_c, 0, 76, 0
2, 26880, Note_on_c, 0, 85, 62
2, 26903, Note_on_c, 0, 85, 0
2, 27120, Note_on_c, 0, 85, 88
2, 27240, Note_on_c, 0, 85, 0
2, 27240, Note_on_c, 0, 83, 62
2, 27360, Note_on_c, 0, 83, 0
2, 27360, Note_on_c, 0, 83, 88
2, 27480, Note_on_c, 0, 83, 0
2, 27480, Note_on_c, 0, 81, 62
2, 27600, Note_on_c, 0, 81, 0
2, 27600, Note_on_c, 0, 81, 88
2, 27720, Note_on_c, 0, 81, 0
2, 27720, Note_on_c, 0, 78, 62
2, 27840, Note_on_c, 0, 78, 0
2, 27840, Note_on_c, 0, 76, 62
2, 27863, Note_on_c, 0, 76, 0
2, 28080, Note_on_c, 0, 76, 62
2, 28200, Note_on_c, 0, 76, 0
2, 28200, Note_on_c, 0, 78, 62
2, 28320, Note_on_c, 0, 78, 0
2, 28320, Note_on_c, 0, 80, 62
2, 28343, Note_on_c, 0, 80, 0
2, 28560, Note_on_c, 0, 76, 62
2, 28583, Note_on_c, 0, 76, 0
2, 28800, Note_on_c, 0, 85, 62
2, 28823, Note_on_c, 0, 85, 0
2, 29040, Note_on_c, 0, 85, 88
2, 29160, Note_on_c, 0, 85, 0
2, 29160, Note_on_c, 0, 83, 62
2, 29280, Note_on_c, 0, 83, 0
2, 29280, Note_on_c, 0, 83, 88
2, 29400, Note_on_c, 0, 83, 0
2, 29400, Note_on_c, 0, 81, 62
2, 29520, Note_on_c, 0, 81, 0
2, 29520, Note_on_c, 0, 81, 88
2, 29640, Note_on_c, 0, 81, 0
2, 29640, Note_on_c, 0, 78, 62
2, 29760, Note_on_c, 0, 78, 0
2, 29760, Note_on_c, 0, 76, 62
2, 29783, Note_on_c, 0, 76, 0
2, 30000, Note_on_c, 0, 80, 62
2, 30023, Note_on_c, 0, 80, 0
2, 30240, Note_on_c, 0, 76, 62
2, 30263, Note_on_c, 0, 76, 0
2, 30660, Note_on_c, 0, 99, 62
2, 30720, Note_on_c, 0, 99, 0
2, 30720, Note_on_c, 0, 88, 62
2, 30720, Note_on_c, 0, 100, 62
2, 30743, Note_on_c, 0, 100, 0
2, 30743, Note_on_c, 0, 88, 0
2, 30960, Note_on_c, 0, 88, 62
2, 30960, Note_on_c, 0, 100, 62
2, 30983, Note_on_c, 0, 100, 0
2, 30983, Note_on_c, 0, 88, 0
2, 31200, Note_on_c, 0, 83, 62
2, 31200, Note_on_c, 0, 95, 62
2, 31223, Note_on_c, 0, 95, 0
2, 31223, Note_on_c, 0, 83, 0
2, 31440, Note_on_c, 0, 85, 88
2, 31440, Note_on_c, 0, 97, 88
2, 31463, Note_on_c, 0, 97, 0
2, 31463, Note_on_c, 0, 85, 0
2, 31680, Note_on_c, 0, 86, 88
2, 31680, Note_on_c, 0, 98, 88
2, 31800, Note_on_c, 0, 98, 0
2, 31800, Note_on_c, 0, 86, 0
2, 31800, Note_on_c, 0, 97, 62
2, 31920, Note_on_c, 0, 97, 0
2, 31920, Note_on_c, 0, 85, 88
2, 31920, Note_on_c, 0, 97, 88
2, 32040, Note_on_c, 0, 97, 0
2, 32040, Note_on_c, 0, 85, 0
2, 32040, Note_on_c, 0, 95, 62
2, 32160, Note_on_c, 0, 95, 0
2, 32160, Note_on_c, 0, 83, 62
2, 32160, Note_on_c, 0, 95, 62
2, 32580, Note_on_c, 0, 99, 62
2, 32640, Note_on_c, 0, 99, 0
2, 32640, Note_on_c, 0, 95, 0
2, 32640, Note_on_c, 0, 83, 0
2, 32640, Note_on_c, 0, 88, 62
2, 32640, Note_on_c, 0, 100, 62
2, 32663, Note_on_c, 0, 100, 0
2, 32663, Note_on_c, 0, 88, 0
2, 32880, Note_on_c, 0, 88, 62
2, 32880, Note_on_c, 0, 100, 62
2, 32903, Note_on_c, 0, 100, 0
2, 32903, Note_on_c, 0, 88, 0
2, 33120, Note_on_c, 0, 83, 62
2, 33120, Note_on_c, 0, 95, 62
2, 33143, Note_on_c, 0, 95, 0
2, 33143, Note_on_c, 0, 83, 0
2, 33360, Note_on_c, 0, 85, 88
2, 33360, Note_on_c, 0, 97, 88
2, 33383, Note_on_c, 0, 97, 0
2, 33383, Note_on_c, 0, 85, 0
2, 33600, Note_on_c, 0, 86, 88
2, 33600, Note_on_c, 0, 98, 88
2, 33720, Note_on_c, 0, 98, 0
2, 33720, Note_on_c, 0, 86, 0
2, 33720, Note_on_c, 0, 97, 62
2, 33840, Note_on_c, 0, 97, 0
2, 33840, Note_on_c, 0, 85, 88
2, 33840, Note_on_c, 0, 97, 88
2, 33960, Note_on_c, 0, 97, 0
2, 33960, Note_on_c, 0, 85, 0
2, 33960, Note_on_c, 0, 95, 62
2, 34080, Note_on_c, 0, 95, 0
2, 34080, Note_on_c, 0, 83, 62
2, 34080, Note_on_c, 0, 95, 62
2, 34560, Note_on_c, 0, 95, 0
2, 34560, Note_on_c, 0, 83, 0
2, 34560, Note_on_c, 0, 81, 88
2, 34920, Note_on_c, 0, 81, 0
2, 34920, Note_on_c, 0, 82, 62
2, 35040, Note_on_c, 0, 82, 0
2, 35040, Note_on_c, 0, 83, 101
2, 35400, Note_on_c, 0, 83, 0
2, 35400, Note_on_c, 0, 81, 75
2, 35520, Note_on_c, 0, 81, 0
2, 35520, Note_on_c, 0, 79, 114
2, 35640, Note_on_c, 0, 79, 0
2, 35640, Note_on_c, 0, 78, 88
2, 35760, Note_on_c, 0, 78, 0
2, 35760, Note_on_c, 0, 79, 88
2, 36000, Note_on_c, 0, 79, 0
2, 36000, Note_on_c, 0, 76, 101
2, 36000, Note_on_c, 0, 81, 101
2, 36880, Note_on_c, 0, 75, 101
2, 36920, Note_on_c, 0, 78, 101
2, 36960, Note_on_c, 0, 81, 0
2, 36960, Note_on_c, 0, 76, 0
2, 36960, Note_on_c, 0, 83, 62
2, 36983, Note_on_c, 0, 83, 0
2, 36983, Note_on_c, 0, 75, 0
2, 36983, Note_on_c, 0, 78, 0
2, 37200, Note_on_c, 0, 83, 62
2, 37223, Note_on_c, 0, 83, 0
2, 37440, Note_on_c, 0, 85, 62
2, 37463, Note_on_c, 0, 85, 0
2, 37680, Note_on_c, 0, 87, 62
2, 37703, Note_on_c, 0, 87, 0
2, 37920, Note_on_c, 0, 90, 88
2, 38040, Note_on_c, 0, 90, 0
2, 38040, Note_on_c, 0, 88, 62
2, 38160, Note_on_c, 0, 88, 0
2, 38160, Note_on_c, 0, 87, 62
2, 38280, Note_on_c, 0, 87, 0
2, 38280, Note_on_c, 0, 90, 62
2, 38400, Note_on_c, 0, 90, 0
2, 38400, Note_on_c, 0, 88, 62
2, 38423, Note_on_c, 0, 88, 0
2, 38880, Note_on_c, 0, 81, 88
2, 39240, Note_on_c, 0, 81, 0
2, 39240, Note_on_c, 0, 82, 62
2, 39360, Note_on_c, 0, 82, 0
2, 39360, Note_on_c, 0, 83, 101
2, 39720, Note_on_c, 0, 83, 0
2, 39720, Note_on_c, 0, 81, 75
2, 39840, Note_on_c, 0, 81, 0
2, 39840, Note_on_c, 0, 79, 114
2, 39960, Note_on_c, 0, 79, 0
2, 39960, Note_on_c, 0, 78, 88
2, 40080, Note_on_c, 0, 78, 0
2, 40080, Note_on_c, 0, 79, 88
2, 40320, Note_on_c, 0, 79, 0
2, 40320, Note_on_c, 0, 76, 101
2, 40320, Note_on_c, 0, 81, 101
2, 41280, Note_on_c, 0, 81, 0
2, 41280, Note_on_c, 0, 76, 0
2, 41280, Note_on_c, 0, 75, 127
2, 41280, Note_on_c, 0, 78, 127
2, 41280, Note_on_c, 0, 83, 127
2, 41303, Note_on_c, 0, 83, 0
2, 41303, Note_on_c, 0, 78, 0
2, 41303, Note_on_c, 0, 75, 0
2, 41760, Note_on_c, 0, 71, 127
2, 42480, Note_on_c, 0, 71, 0
2, 42480, Note_on_c, 0, 76, 101
2, 42480, Note_on_c, 0, 83, 101
2, 42600, Note_on_c, 0, 83, 0
2, 42600, Note_on_c, 0, 76, 0
2, 42600, Note_on_c, 0, 78, 101
2, 42720, Note_on_c, 0, 78, 0
2, 42720, Note_on_c, 0, 80, 101
2, 42743, Note_on_c, 0, 80, 0
2, 42960, Note_on_c, 0, 76, 101
2, 42960, Note_on_c, 0, 83, 101
2, 42983, Note_on_c, 0, 83, 0
2, 42983, Note_on_c, 0, 76, 0
2, 43200, Note_on_c, 0, 71, 127
2, 43920, Note_on_c, 0, 71, 0
2, 43920, Note_on_c, 0, 81, 101
2, 43920, Note_on_c, 0, 83, 101
2, 44160, Note_on_c, 0, 81, 0
2, 44160, Note_on_c, 0, 80, 101
2, 44400, Note_on_c, 0, 80, 0
2, 44400, Note_on_c, 0, 83, 0
2, 44400, Note_on_c, 0, 76, 101
2, 44400, Note_on_c, 0, 83, 101
2, 44520, Note_on_c, 0, 83, 0
2, 44520, Note_on_c, 0, 76, 0
2, 44520, Note_on_c, 0, 78, 101
2, 44640, Note_on_c, 0, 78, 0
2, 44640, Note_on_c, 0, 80, 101
2, 44663, Note_on_c, 0, 80, 0
2, 44880, Note_on_c, 0, 76, 101
2, 44880, Note_on_c, 0, 83, 101
2, 44903, Note_on_c, 0, 83, 0
2, 44903, Note_on_c, 0, 76, 0
2, 45120, Note_on_c, 0, 85, 101
2, 45143, Note_on_c, 0, 85, 0
2, 45360, Note_on_c, 0, 85, 127
2, 45480, Note_on_c, 0, 85, 0
2, 45480, Note_on_c, 0, 83, 101
2, 45600, Note_on_c, 0, 83, 0
2, 45600, Note_on_c, 0, 83, 127
2, 45720, Note_on_c, 0, 83, 0
2, 45720, Note_on_c, 0, 81, 101
2, 45840, Note_on_c, 0, 81, 0
2, 45840, Note_on_c, 0, 81, 127
2, 45960, Note_on_c, 0, 81, 0
2, 45960, Note_on_c, 0, 78, 101
2, 46080, Note_on_c, 0, 78, 0
2, 46080, Note_on_c, 0, 76, 101
2, 46103, Note_on_c, 0, 76, 0
2, 46320, Note_on_c, 0, 76, 101
2, 46440, Note_on_c, 0, 76, 0
2, 46440, Note_on_c, 0, 78, 101
2, 46560, Note_on_c, 0, 78, 0
2, 46560, Note_on_c, 0, 80, 101
2, 46583, Note_on_c, 0, 80, 0
2, 46800, Note_on_c, 0, 76, 101
2, 46823, Note_on_c, 0, 76, 0
2, 47040, Note_on_c, 0, 85, 101
2, 47063, Note_on_c, 0, 85, 0
2, 47280, Note_on_c, 0, 85, 127
2, 47400, Note_on_c, 0, 85, 0
2, 47400, Note_on_c, 0, 83, 101
2, 47520, Note_on_c, 0, 83, 0
2, 47520, Note_on_c, 0, 83, 127
2, 47640, Note_on_c, 0, 83, 0
2, 47640, Note_on_c, 0, 81, 101
2, 47760, Note_on_c, 0, 81, 0
2, 47760, Note_on_c, 0, 81, 127
2, 47880, Note_on_c, 0, 81, 0
2, 47880, Note_on_c, 0, 78, 101
2, 48000, Note_on_c, 0, 78, 0
2, 48000, Note_on_c, 0, 76, 101
2, 48023, Note_on_c, 0, 76, 0
2, 48240, Note_on_c, 0, 76, 101
2, 48360, Note_on_c, 0, 76, 0
2, 48360, Note_on_c, 0, 78, 101
2, 48480, Note_on_c, 0, 78, 0
2, 48480, Note_on_c, 0, 80, 101
2, 48503, Note_on_c, 0, 80, 0
2, 48720, Note_on_c, 0, 76, 101
2, 48743, Note_on_c, 0, 76, 0
2, 48960, Note_on_c, 0, 75, 127
2, 48960, Note_on_c, 0, 78, 127
2, 48960, Note_on_c, 0, 83, 127
2, 49440, Note_on_c, 0, 83, 0
2, 49440, Note_on_c, 0, 78, 0
2, 49440, Note_on_c, 0, 75, 0
2, 49560, Control_c, 0, 64, 127
2, 49560, Note_on_c, 0, 95, 101
2, 49680, Note_on_c, 0, 95, 0
2, 49680, Note_on_c, 0, 97, 101
2, 49800, Note_on_c, 0, 97, 0
2, 49800, Note_on_c, 0, 99, 101
2, 49920, Note_on_c, 0, 99, 0
2, 49920, Control_c, 0, 64, 0
2, 49920, Note_on_c, 0, 100, 101
2, 49943, Note_on_c, 0, 100, 0
2, 50160, Note_on_c, 0, 88, 101
2, 50160, Note_on_c, 0, 92, 101
2, 50183, Note_on_c, 0, 92, 0
2, 50400, Note_on_c, 0, 95, 101
2, 50423, Note_on_c, 0, 95, 0
2, 50423, Note_on_c, 0, 88, 0
2, 50640, Note_on_c, 0, 88, 101
2, 50640, Note_on_c, 0, 92, 101
2, 50663, Note_on_c, 0, 92, 0
2, 50663, Note_on_c, 0, 88, 0
2, 50880, Note_on_c, 0, 87, 127
2, 50880, Note_on_c, 0, 90, 127
2, 51360, Note_on_c, 0, 90, 0
2, 51360, Note_on_c, 0, 87, 0
2, 51480, Control_c, 0, 64, 127
2, 51480, Note_on_c, 0, 95, 62
2, 51600, Note_on_c, 0, 95, 0
2, 51600, Note_on_c, 0, 97, 62
2, 51720, Note_on_c, 0, 97, 0
2, 51720, Note_on_c, 0, 99, 62
2, 51840, Note_on_c, 0, 99, 0
2, 51840, Note_on_c, 0, 100, 62
2, 51960, Note_on_c, 0, 100, 0
2, 51960, Note_on_c, 0, 99, 62
2, 52080, Note_on_c, 0, 99, 0
2, 52080, Note_on_c, 0, 97, 62
2, 52200, Note_on_c, 0, 97, 0
2, 52200, Note_on_c, 0, 95, 62
2, 52320, Note_on_c, 0, 95, 0
2, 52320, Note_on_c, 0, 97, 62
2, 52440, Note_on_c, 0, 97, 0
2, 52440, Note_on_c, 0, 95, 62
2, 52560, Note_on_c, 0, 95, 0
2, 52560, Note_on_c, 0, 93, 62
2, 52680, Note_on_c, 0, 93, 0
2, 52680, Control_c, 0, 64, 0
2, 52680, Note_on_c, 0, 92, 62
2, 52800, Note_on_c, 0, 92, 0
2, 52800, Note_on_c, 0, 88, 62
2, 52800, Note_on_c, 0, 90, 62
2, 52823, Note_on_c, 0, 90, 0
2, 52823, Note_on_c, 0, 88, 0
2, 53040, Note_on_c, 0, 97, 62
2, 53063, Note_on_c, 0, 97, 0
2, 53280, Note_on_c, 0, 87, 62
2, 53280, Note_on_c, 0, 90, 62
2, 53303, Note_on_c, 0, 90, 0
2, 53303, Note_on_c, 0, 87, 0
2, 53520, Note_on_c, 0, 95, 62
2, 53543, Note_on_c, 0, 95, 0
2, 53760, Control_c, 0, 64, 127
2, 53760, Note_on_c, 0, 88, 62
2, 53760, Note_on_c, 0, 92, 62
2, 53880, Note_on_c, 0, 92, 0
2, 53880, Note_on_c, 0, 88, 0
2, 53880, Note_on_c, 0, 90, 62
2, 54000, Note_on_c, 0, 90, 0
2, 54000, Note_on_c, 0, 92, 62
2, 54120, Note_on_c, 0, 92, 0
2, 54120, Note_on_c, 0, 93, 62
2, 54240, Note_on_c, 0, 93, 0
2, 54240, Note_on_c, 0, 97, 62
2, 54360, Note_on_c, 0, 97, 0
2, 54360, Note_on_c, 0, 95, 62
2, 54480, Note_on_c, 0, 95, 0
2, 54480, Note_on_c, 0, 93, 62
2, 54600, Note_on_c, 0, 93, 0
2, 54600, Control_c, 0, 64, 0
2, 54600, Note_on_c, 0, 92, 62
2, 54720, Note_on_c, 0, 92, 0
2, 54720, Note_on_c, 0, 88, 62
2, 54720, Note_on_c, 0, 90, 62
2, 54743, Note_on_c, 0, 90, 0
2, 54743, Note_on_c, 0, 88, 0
2, 54960, Note_on_c, 0, 97, 62
2, 54983, Note_on_c, 0, 97, 0
2, 55200, Control_c, 0, 64, 127
2, 55200, Note_on_c, 0, 93, 62
2, 55200, Note_on_c, 0, 99, 62
2, 55260, Note_on_c, 0, 99, 0
2, 55260, Note_on_c, 0, 93, 0
2, 55260, Note_on_c, 0, 100, 62
2, 55320, Note_on_c, 0, 100, 0
2, 55320, Note_on_c, 0, 99, 62
2, 55380, Note_on_c, 0, 99, 0
2, 55380, Note_on_c, 0, 100, 62
2, 55440, Note_on_c, 0, 100, 0
2, 55440, Note_on_c, 0, 99, 62
2, 55500, Note_on_c, 0, 99, 0
2, 55500, Note_on_c, 0, 100, 62
2, 55560, Note_on_c, 0, 100, 0
2, 55560, Note_on_c, 0, 99, 62
2, 55620, Note_on_c, 0, 99, 0
2, 55620, Control_c, 0, 64, 0
2, 55620, Note_on_c, 0, 100, 62
2, 55680, Note_on_c, 0, 100, 0
2, 55680, Note_on_c, 0, 92, 62
2, 55680, Note_on_c, 0, 100, 62
2, 55703, Note_on_c, 0, 100, 0
2, 55703, Note_on_c, 0, 92, 0
2, 55920, Note_on_c, 0, 95, 62
2, 55943, Note_on_c, 0, 95, 0
2, 56160, Note_on_c, 0, 92, 62
2, 56160, Note_on_c, 0, 100, 62
2, 56183, Note_on_c, 0, 100, 0
2, 56183, Note_on_c, 0, 92, 0
2, 56640, Note_on_c, 0, 83, 88
2, 56663, Note_on_c, 0, 83, 0
2, 56880, Note_on_c, 0, 85, 88
2, 56903, Note_on_c, 0, 85, 0
2, 57120, Note_on_c, 0, 87, 114
2, 57600, Note_on_c, 0, 87, 0
2, 57600, Note_on_c, 0, 88, 114
2, 58080, Note_on_c, 0, 88, 0
2, 58080, Note_on_c, 0, 88, 88
2, 58103, Note_on_c, 0, 88, 0
2, 58320, Note_on_c, 0, 88, 88
2, 58343, Note_on_c, 0, 88, 0
2, 58560, Note_on_c, 0, 88, 114
2, 58680, Note_on_c, 0, 88, 0
2, 58680, Note_on_c, 0, 86, 88
2, 58800, Note_on_c, 0, 86, 0
2, 58800, Note_on_c, 0, 86, 114
2, 58920, Note_on_c, 0, 86, 0
2, 58920, Note_on_c, 0, 85, 88
2, 59040, Note_on_c, 0, 85, 0
2, 59040, Note_on_c, 0, 85, 88
2, 59520, Note_on_c, 0, 85, 0
2, 59520, Note_on_c, 0, 86, 114
2, 60000, Note_on_c, 0, 86, 0
2, 60000, Note_on_c, 0, 86, 88
2, 60023, Note_on_c, 0, 86, 0
2, 60240, Note_on_c, 0, 86, 88
2, 60263, Note_on_c, 0, 86, 0
2, 60480, Note_on_c, 0, 86, 114
2, 60600, Note_on_c, 0, 86, 0
2, 60600, Note_on_c, 0, 85, 88
2, 60720, Note_on_c, 0, 85, 0
2, 60720, Note_on_c, 0, 85, 114
2, 60840, Note_on_c, 0, 85, 0
2, 60840, Note_on_c, 0, 83, 88
2, 60960, Note_on_c, 0, 83, 0
2, 60960, Note_on_c, 0, 83, 88
2, 61440, Note_on_c, 0, 83, 0
2, 61440, Note_on_c, 0, 85, 114
2, 61920, Note_on_c, 0, 85, 0
2, 61920, Note_on_c, 0, 85, 88
2, 61943, Note_on_c, 0, 85, 0
2, 62160, Note_on_c, 0, 85, 88
2, 62183, Note_on_c, 0, 85, 0
2, 62400, Note_on_c, 0, 78, 88
2, 62423, Note_on_c, 0, 78, 0
2, 62640, Note_on_c, 0, 80, 88
2, 62663, Note_on_c, 0, 80, 0
2, 62880, Note_on_c, 0, 82, 88
2, 63360, Note_on_c, 0, 82, 0
2, 63360, Note_on_c, 0, 83, 88
2, 63840, Note_on_c, 0, 83, 0
2, 63840, Note_on_c, 0, 83, 88
2, 63863, Note_on_c, 0, 83, 0
2, 64080, Note_on_c, 0, 83, 88
2, 64103, Note_on_c, 0, 83, 0
2, 66240, Note_on_c, 0, 79, 88
2, 66240, Note_on_c, 0, 88, 88
2, 66263, Note_on_c, 0, 88, 0
2, 66263, Note_on_c, 0, 79, 0
2, 66480, Note_on_c, 0, 78, 88
2, 66480, Note_on_c, 0, 90, 88
2, 66503, Note_on_c, 0, 90, 0
2, 66503, Note_on_c, 0, 78, 0
2, 66720, Note_on_c, 0, 79, 114
2, 66720, Note_on_c, 0, 91, 114
2, 67200, Note_on_c, 0, 91, 0
2, 67200, Note_on_c, 0, 79, 0
2, 67200, Note_on_c, 0, 78, 88
2, 67200, Note_on_c, 0, 90, 88
2, 67680, Note_on_c, 0, 90, 0
2, 67680, Note_on_c, 0, 78, 0
2, 67680, Note_on_c, 0, 78, 88
2, 67680, Note_on_c, 0, 90, 88
2, 67703, Note_on_c, 0, 90, 0
2, 67703, Note_on_c, 0, 78, 0
2, 67920, Note_on_c, 0, 78, 88
2, 67920, Note_on_c, 0, 90, 88
2, 67943, Note_on_c, 0, 90, 0
2, 67943, Note_on_c, 0, 78, 0
2, 68160, Note_on_c, 0, 78, 114
2, 68160, Note_on_c, 0, 90, 114
2, 68280, Note_on_c, 0, 90, 0
2, 68280, Note_on_c, 0, 78, 0
2, 68280, Note_on_c, 0, 88, 88
2, 68400, Note_on_c, 0, 88, 0
2, 68400, Note_on_c, 0, 76, 114
2, 68400, Note_on_c, 0, 88, 114
2, 68520, Note_on_c, 0, 88, 0
2, 68520, Note_on_c, 0, 76, 0
2, 68520, Note_on_c, 0, 86, 88
2, 68640, Note_on_c, 0, 86, 0
2, 68640, Note_on_c, 0, 74, 88
2, 68640, Note_on_c, 0, 86, 88
2, 69120, Note_on_c, 0, 86, 0
2, 69120, Note_on_c, 0, 74, 0
2, 69120, Note_on_c, 0, 88, 88
2, 69120, Note_on_c, 0, 97, 88
2, 69120, Note_on_c, 0, 100, 88
2, 69600, Note_on_c, 0, 100, 0
2, 69600, Note_on_c, 0, 97, 0
2, 69600, Note_on_c, 0, 88, 0
2, 69600, Note_on_c, 0, 88, 88
2, 69600, Note_on_c, 0, 97, 88
2, 69600, Note_on_c, 0, 100, 88
2, 69623, Note_on_c, 0, 100, 0
2, 69623, Note_on_c, 0, 97, 0
2, 69623, Note_on_c, 0, 88, 0
2, 69840, Note_on_c, 0, 88, 88
2, 69840, Note_on_c, 0, 97, 88
2, 69840, Note_on_c, 0, 100, 88
2, 69863, Note_on_c, 0, 100, 0
2, 69863, Note_on_c, 0, 97, 0
2, 69863, Note_on_c, 0, 88, 0
2, 70080, Note_on_c, 0, 97, 114
2, 70080, Note_on_c, 0, 100, 114
2, 70200, Note_on_c, 0, 100, 0
2, 70200, Note_on_c, 0, 97, 0
2, 70200, Note_on_c, 0, 95, 88
2, 70200, Note_on_c, 0, 98, 88
2, 70320, Note_on_c, 0, 98, 0
2, 70320, Note_on_c, 0, 95, 0
2, 70320, Note_on_c, 0, 95, 114
2, 70320, Note_on_c, 0, 98, 114
2, 70440, Note_on_c, 0, 98, 0
2, 70440, Note_on_c, 0, 95, 0
2, 70440, Note_on_c, 0, 94, 88
2, 70440, Note_on_c, 0, 97, 88
2, 70560, Note_on_c, 0, 97, 0
2, 70560, Note_on_c, 0, 94, 0
2, 70560, Note_on_c, 0, 88, 88
2, 70560, Note_on_c, 0, 94, 88
2, 70560, Note_on_c, 0, 97, 88
2, 71040, Note_on_c, 0, 97, 0
2, 71040, Note_on_c, 0, 94, 0
2, 71040, Note_on_c, 0, 88, 0
2, 71040, Note_on_c, 0, 86, 88
2, 71040, Note_on_c, 0, 90, 88
2, 71040, Note_on_c, 0, 95, 88
2, 71520, Note_on_c, 0, 95, 0
2, 71520, Note_on_c, 0, 90, 0
2, 71520, Note_on_c, 0, 86, 0
2, 71520, Note_on_c, 0, 95, 88
2, 71543, Note_on_c, 0, 95, 0
2, 71760, Note_on_c, 0, 95, 88
2, 71783, Note_on_c, 0, 95, 0
2, 72000, Control_c, 0, 64, 127
2, 72000, Note_on_c, 0, 88, 49
2, 72120, Note_on_c, 0, 88, 0
2, 72120, Note_on_c, 0, 90, 49
2, 72240, Note_on_c, 0, 90, 0
2, 72240, Note_on_c, 0, 88, 49
2, 72360, Note_on_c, 0, 88, 0
2, 72360, Note_on_c, 0, 87, 49
2, 72480, Note_on_c, 0, 87, 0
2, 72480, Note_on_c, 0, 88, 49
2, 72600, Note_on_c, 0, 88, 0
2, 72600, Note_on_c, 0, 86, 49
2, 72720, Note_on_c, 0, 86, 0
2, 72720, Note_on_c, 0, 84, 49
2, 72840, Note_on_c, 0, 84, 0
2, 72840, Note_on_c, 0, 90, 49
2, 72960, Note_on_c, 0, 90, 0
2, 72960, Note_on_c, 0, 88, 49
2, 73080, Note_on_c, 0, 88, 0
2, 73080, Note_on_c, 0, 84, 49
2, 73200, Note_on_c, 0, 84, 0
2, 73200, Note_on_c, 0, 90, 49
2, 73320, Note_on_c, 0, 90, 0
2, 73320, Note_on_c, 0, 88, 49
2, 73440, Note_on_c, 0, 88, 0
2, 73440, Note_on_c, 0, 84, 49
2, 73560, Note_on_c, 0, 84, 0
2, 73560, Note_on_c, 0, 90, 49
2, 73680, Note_on_c, 0, 90, 0
2, 73680, Note_on_c, 0, 88, 49
2, 73800, Note_on_c, 0, 88, 0
2, 73800, Control_c, 0, 64, 0
2, 73800, Note_on_c, 0, 84, 49
2, 73920, Note_on_c, 0, 84, 0
2, 73920, Control_c, 0, 64, 127
2, 73920, Note_on_c, 0, 88, 49
2, 74040, Note_on_c, 0, 88, 0
2, 74040, Note_on_c, 0, 90, 49
2, 74160, Note_on_c, 0, 90, 0
2, 74160, Note_on_c, 0, 88, 49
2, 74280, Note_on_c, 0, 88, 0
2, 74280, Note_on_c, 0, 87, 49
2, 74400, Note_on_c, 0, 87, 0
2, 74400, Note_on_c, 0, 88, 49
2, 74520, Note_on_c, 0, 88, 0
2, 74520, Note_on_c, 0, 85, 49
2, 74640, Note_on_c, 0, 85, 0
2, 74640, Note_on_c, 0, 83, 49
2, 74760, Note_on_c, 0, 83, 0
2, 74760, Note_on_c, 0, 90, 49
2, 74880, Note_on_c, 0, 90, 0
2, 74880, Note_on_c, 0, 88, 49
2, 75000, Note_on_c, 0, 88, 0
2, 75000, Note_on_c, 0, 83, 49
2, 75120, Note_on_c, 0, 83, 0
2, 75120, Note_on_c, 0, 90, 49
2, 75240, Note_on_c, 0, 90, 0
2, 75240, Note_on_c, 0, 88, 49
2, 75360, Note_on_c, 0, 88, 0
2, 75360, Note_on_c, 0, 85, 49
2, 75480, Note_on_c, 0, 85, 0
2, 75480, Note_on_c, 0, 90, 49
2, 75600, Note_on_c, 0, 90, 0
2, 75600, Note_on_c, 0, 88, 49
2, 75720, Note_on_c, 0, 88, 0
2, 75720, Control_c, 0, 64, 0
2, 75720, Note_on_c, 0, 85, 49
2, 75840, Note_on_c, 0, 85, 0
2, 75840, Control_c, 0, 64, 127
2, 75840, Note_on_c, 0, 87, 49
2, 75960, Note_on_c, 0, 87, 0
2, 75960, Note_on_c, 0, 83, 49
2, 76080, Note_on_c, 0, 83, 0
2, 76080, Note_on_c, 0, 87, 49
2, 76200, Note_on_c, 0, 87, 0
2, 76200, Note_on_c, 0, 90, 49
2, 76320, Note_on_c, 0, 90, 0
2, 76320, Control_c, 0, 64, 0
2, 76320, Note_on_c, 0, 95, 49
2, 76343, Note_on_c, 0, 95, 0
2, 76680, Note_on_c, 0, 90, 49
2, 76695, Note_on_c, 0, 90, 0
2, 76920, Note_on_c, 0, 95, 49
2, 76935, Note_on_c, 0, 95, 0
2, 77160, Note_on_c, 0, 90, 49
2, 77175, Note_on_c, 0, 90, 0
2, 77400, Note_on_c, 0, 95, 49
2, 77415, Note_on_c, 0, 95, 0
2, 77640, Note_on_c, 0, 90, 49
2, 77655, Note_on_c, 0, 90, 0
2, 77760, Note_on_c, 0, 95, 49
2, 77783, Note_on_c, 0, 95, 0
2, 78240, Control_c, 0, 64, 127
2, 78240, Note_on_c, 0, 90, 49
2, 78360, Note_on_c, 0, 90, 0
2, 78360, Note_on_c, 0, 91, 49
2, 78480, Note_on_c, 0, 91, 0
2, 78480, Note_on_c, 0, 93, 49
2, 78600, Note_on_c, 0, 93, 0
2, 78600, Note_on_c, 0, 90, 49
2, 78720, Note_on_c, 0, 90, 0
2, 78720, Note_on_c, 0, 91, 49
2, 78840, Note_on_c, 0, 91, 0
2, 78840, Note_on_c, 0, 88, 49
2, 78960, Note_on_c, 0, 88, 0
2, 78960, Note_on_c, 0, 90, 49
2, 79080, Note_on_c, 0, 90, 0
2, 79080, Note_on_c, 0, 87, 49
2, 79200, Note_on_c, 0, 87, 0
2, 79200, Control_c, 0, 64, 0
2, 79200, Note_on_c, 0, 88, 49
2, 79440, Note_on_c, 0, 88, 0
2, 79680, Note_on_c, 0, 88, 88
2, 79680, Note_on_c, 0, 93, 88
2, 80040, Note_on_c, 0, 93, 0
2, 80040, Note_on_c, 0, 88, 0
2, 80040, Note_on_c, 0, 95, 88
2, 80160, Note_on_c, 0, 95, 0
2, 80160, Note_on_c, 0, 96, 88
2, 80183, Note_on_c, 0, 96, 0
2, 80400, Note_on_c, 0, 93, 75
2, 80880, Note_on_c, 0, 93, 0
2, 80880, Control_c, 0, 64, 127
2, 80880, Note_on_c, 0, 92, 62
2, 81000, Note_on_c, 0, 92, 0
2, 81000, Note_on_c, 0, 93, 62
2, 81120, Note_on_c, 0, 93, 0
2, 81120, Note_on_c, 0, 95, 62
2, 81240, Note_on_c, 0, 95, 0
2, 81240, Note_on_c, 0, 93, 62
2, 81360, Note_on_c, 0, 93, 0
2, 81360, Note_on_c, 0, 92, 62
2, 81480, Note_on_c, 0, 92, 0
2, 81480, Control_c, 0, 64, 0
2, 81480, Note_on_c, 0, 93, 62
2, 81600, Note_on_c, 0, 93, 0
2, 81600, Note_on_c, 0, 88, 88
2, 81600, Note_on_c, 0, 91, 88
2, 81960, Note_on_c, 0, 91, 0
2, 81960, Note_on_c, 0, 88, 0
2, 81960, Note_on_c, 0, 93, 88
2, 82080, Note_on_c, 0, 93, 0
2, 82080, Note_on_c, 0, 95, 88
2, 82103, Note_on_c, 0, 95, 0
2, 82320, Note_on_c, 0, 91, 75
2, 82800, Note_on_c, 0, 91, 0
2, 82800, Note_on_c, 0, 90, 75
2, 82920, Note_on_c, 0, 90, 0
2, 82920, Note_on_c, 0, 91, 75
2, 83040, Note_on_c, 0, 91, 0
2, 83040, Note_on_c, 0, 93, 75
2, 83160, Note_on_c, 0, 93, 0
2, 83160, Note_on_c, 0, 91, 75
2, 83280, Note_on_c, 0, 91, 0
2, 83280, Note_on_c, 0, 90, 75
2, 83400, Note_on_c, 0, 90, 0
2, 83400, Note_on_c, 0, 91, 75
2, 83520, Note_on_c, 0, 91, 0
2, 83520, Note_on_c, 0, 87, 75
2, 83520, Note_on_c, 0, 90, 75
2, 84000, Note_on_c, 0, 90, 0
2, 84000, Note_on_c, 0, 87, 0
2, 84120, Note_on_c, 0, 95, 75
2, 84135, Note_on_c, 0, 95, 0
2, 84360, Note_on_c, 0, 90, 75
2, 84375, Note_on_c, 0, 90, 0
2, 84600, Note_on_c, 0, 95, 75
2, 84615, Note_on_c, 0, 95, 0
2, 84840, Note_on_c, 0, 90, 75
2, 84855, Note_on_c, 0, 90, 0
2, 85080, Note_on_c, 0, 95, 75
2, 85095, Note_on_c, 0, 95, 0
2, 85320, Note_on_c, 0, 90, 75
2, 85335, Note_on_c, 0, 90, 0
2, 85440, Note_on_c, 0, 95, 88
2, 85463, Note_on_c, 0, 95, 0
2, 87360, Note_on_c, 0, 71, 114
2, 88080, Note_on_c, 0, 71, 0
2, 88080, Note_on_c, 0, 81, 88
2, 88080, Note_on_c, 0, 83, 88
2, 88320, Note_on_c, 0, 81, 0
2, 88320, Note_on_c, 0, 80, 88
2, 88560, Note_on_c, 0, 80, 0
2, 88560, Note_on_c, 0, 83, 0
2, 88560, Note_on_c, 0, 76, 88
2, 88560, Note_on_c, 0, 83, 88
2, 88680, Note_on_c, 0, 83, 0
2, 88680, Note_on_c, 0, 76, 0
2, 88680, Note_on_c, 0, 78, 88
2, 88800, Note_on_c, 0, 78, 0
2, 88800, Note_on_c, 0, 80, 88
2, 89040, Note_on_c, 0, 80, 0
2, 89040, Note_on_c, 0, 76, 88
2, 89040, Note_on_c, 0, 83, 88
2, 89280, Note_on_c, 0, 83, 0
2, 89280, Note_on_c, 0, 76, 0
2, 89280, Note_on_c, 0, 85, 88
2, 89303, Note_on_c, 0, 85, 0
2, 89520, Note_on_c, 0, 85, 114
2, 89640, Note_on_c, 0, 85, 0
2, 89640, Note_on_c, 0, 83, 88
2, 89760, Note_on_c, 0, 83, 0
2, 89760, Note_on_c, 0, 83, 114
2, 89880, Note_on_c, 0, 83, 0
2, 89880, Note_on_c, 0, 81, 88
2, 90000, Note_on_c, 0, 81, 0
2, 90000, Note_on_c, 0, 81, 114
2, 90120, Note_on_c, 0, 81, 0
2, 90120, Note_on_c, 0, 78, 88
2, 90240, Note_on_c, 0, 78, 0
2, 90240, Note_on_c, 0, 76, 114
2, 90360, Note_on_c, 0, 76, 0
2, 90360, Note_on_c, 0, 78, 88
2, 90480, Note_on_c, 0, 78, 0
2, 90480, Note_on_c, 0, 78, 114
2, 90600, Note_on_c, 0, 78, 0
2, 90600, Note_on_c, 0, 80, 88
2, 90720, Note_on_c, 0, 80, 0
2, 90720, Note_on_c, 0, 80, 114
2, 90840, Note_on_c, 0, 80, 0
2, 90840, Note_on_c, 0, 83, 88
2, 90960, Note_on_c, 0, 83, 0
2, 90960, Note_on_c, 0, 83, 114
2, 91080, Note_on_c, 0, 83, 0
2, 91080, Note_on_c, 0, 88, 88
2, 91200, Note_on_c, 0, 88, 0
2, 91200, Note_on_c, 0, 87, 114
2, 91320, Note_on_c, 0, 87, 0
2, 91320, Note_on_c, 0, 85, 88
2, 91440, Note_on_c, 0, 85, 0
2, 91440, Note_on_c, 0, 85, 114
2, 91560, Note_on_c, 0, 85, 0
2, 91560, Note_on_c, 0, 83, 88
2, 91680, Note_on_c, 0, 83, 0
2, 91680, Note_on_c, 0, 83, 114
2, 91800, Note_on_c, 0, 83, 0
2, 91800, Note_on_c, 0, 81, 88
2, 91920, Note_on_c, 0, 81, 0
2, 91920, Note_on_c, 0, 81, 114
2, 92040, Note_on_c, 0, 81, 0
2, 92040, Note_on_c, 0, 78, 88
2, 92160, Note_on_c, 0, 78, 0
2, 92160, Control_c, 0, 64, 127
2, 92160, Note_on_c, 0, 76, 88
2, 92280, Note_on_c, 0, 76, 0
2, 92280, Note_on_c, 0, 80, 88
2, 92400, Note_on_c, 0, 80, 0
2, 92400, Note_on_c, 0, 83, 88
2, 92520, Note_on_c, 0, 83, 0
2, 92520, Note_on_c, 0, 88, 88
2, 92640, Note_on_c, 0, 88, 0
2, 92640, Note_on_c, 0, 92, 88
2, 92760, Note_on_c, 0, 92, 0
2, 92760, Note_on_c, 0, 88, 88
2, 92880, Note_on_c, 0, 88, 0
2, 92880, Note_on_c, 0, 83, 88
2, 93000, Note_on_c, 0, 83, 0
2, 93000, Control_c, 0, 64, 0
2, 93000, Note_on_c, 0, 80, 88
2, 93120, Note_on_c, 0, 80, 0
2, 93120, Control_c, 0, 64, 127
2, 93120, Note_on_c, 0, 83, 114
2, 93720, Note_on_c, 0, 83, 0
2, 93720, Note_on_c, 0, 87, 88
2, 93840, Note_on_c, 0, 87, 0
2, 93840, Note_on_c, 0, 90, 88
2, 93960, Note_on_c, 0, 90, 0
2, 93960, Control_c, 0, 64, 0
2, 93960, Note_on_c, 0, 93, 88
2, 94080, Note_on_c, 0, 93, 0
2, 94080, Note_on_c, 0, 92, 114
2, 94200, Note_on_c, 0, 92, 0
2, 94200, Note_on_c, 0, 95, 88
2, 94320, Note_on_c, 0, 95, 0
2, 94320, Note_on_c, 0, 88, 88
2, 94440, Note_on_c, 0, 88, 0
2, 94440, Note_on_c, 0, 90, 88
2, 94560, Note_on_c, 0, 90, 0
2, 94560, Note_on_c, 0, 92, 88
2, 94583, Note_on_c, 0, 92, 0
2, 94800, Note_on_c, 0, 88, 88
2, 94823, Note_on_c, 0, 88, 0
2, 95040, Note_on_c, 0, 83, 88
2, 95400, Note_on_c, 0, 83, 0
2, 95400, Control_c, 0, 64, 127
2, 95400, Note_on_c, 0, 90, 88
2, 95520, Note_on_c, 0, 90, 0
2, 95520, Note_on_c, 0, 95, 88
2, 95640, Note_on_c, 0, 95, 0
2, 95640, Note_on_c, 0, 90, 88
2, 95760, Note_on_c, 0, 90, 0
2, 95760, Note_on_c, 0, 95, 88
2, 95880, Note_on_c, 0, 95, 0
2, 95880, Control_c, 0, 64, 0
2, 95880, Note_on_c, 0, 93, 88
2, 96000, Note_on_c, 0, 93, 0
2, 96000, Control_c, 0, 64, 127
2, 96000, Note_on_c, 0, 92, 88
2, 96120, Note_on_c, 0, 92, 0
2, 96120, Note_on_c, 0, 88, 88
2, 96240, Note_on_c, 0, 88, 0
2, 96240, Note_on_c, 0, 92, 88
2, 96360, Note_on_c, 0, 92, 0
2, 96360, Note_on_c, 0, 93, 88
2, 96480, Note_on_c, 0, 93, 0
2, 96480, Note_on_c, 0, 95, 88
2, 96600, Note_on_c, 0, 95, 0
2, 96600, Control_c, 0, 64, 0
2, 96600, Note_on_c, 0, 92, 88
2, 96720, Note_on_c, 0, 92, 0
2, 96720, Note_on_c, 0, 100, 114
2, 96840, Note_on_c, 0, 100, 0
2, 96840, Note_on_c, 0, 95, 88
2, 96960, Note_on_c, 0, 95, 0
2, 96960, Note_on_c, 0, 99, 114
2, 97080, Note_on_c, 0, 99, 0
2, 97080, Note_on_c, 0, 97, 88
2, 97200, Note_on_c, 0, 97, 0
2, 97200, Note_on_c, 0, 97, 114
2, 97320, Note_on_c, 0, 97, 0
2, 97320, Note_on_c, 0, 95, 88
2, 97440, Note_on_c, 0, 95, 0
2, 97440, Note_on_c, 0, 95, 114
2, 97560, Note_on_c, 0, 95, 0
2, 97560, Note_on_c, 0, 93, 88
2, 97680, Note_on_c, 0, 93, 0
2, 97680, Note_on_c, 0, 93, 114
2, 97800, Note_on_c, 0, 93, 0
2, 97800, Note_on_c, 0, 90, 88
2, 97920, Note_on_c, 0, 90, 0
2, 97920, Control_c, 0, 64, 127
2, 97920, Note_on_c, 0, 92, 88
2, 98040, Note_on_c, 0, 92, 0
2, 98040, Note_on_c, 0, 88, 88
2, 98160, Note_on_c, 0, 88, 0
2, 98160, Note_on_c, 0, 92, 88
2, 98280, Note_on_c, 0, 92, 0
2, 98280, Note_on_c, 0, 95, 88
2, 98400, Note_on_c, 0, 95, 0
2, 98400, Note_on_c, 0, 100, 88
2, 98520, Note_on_c, 0, 100, 0
2, 98520, Note_on_c, 0, 95, 88
2, 98640, Note_on_c, 0, 95, 0
2, 98640, Note_on_c, 0, 93, 88
2, 98760, Note_on_c, 0, 93, 0
2, 98760, Control_c, 0, 64, 0
2, 98760, Note_on_c, 0, 92, 88
2, 98880, Note_on_c, 0, 92, 0
2, 98880, Note_on_c, 0, 99, 114
2, 99000, Note_on_c, 0, 99, 0
2, 99000, Note_on_c, 0, 97, 88
2, 99120, Note_on_c, 0, 97, 0
2, 99120, Note_on_c, 0, 97, 114
2, 99240, Note_on_c, 0, 97, 0
2, 99240, Note_on_c, 0, 95, 88
2, 99360, Note_on_c, 0, 95, 0
2, 99360, Note_on_c, 0, 95, 114
2, 99480, Note_on_c, 0, 95, 0
2, 99480, Note_on_c, 0, 93, 88
2, 99600, Note_on_c, 0, 93, 0
2, 99600, Note_on_c, 0, 93, 114
2, 99720, Note_on_c, 0, 93, 0
2, 99720, Note_on_c, 0, 90, 88
2, 99840, Note_on_c, 0, 90, 0
2, 99840, Note_on_c, 0, 88, 114
2, 99863, Note_on_c, 0, 88, 0
2, 100320, Note_on_c, 0, 83, 114
2, 100320, Note_on_c, 0, 88, 114
2, 100320, Note_on_c, 0, 92, 114
2, 100367, Note_on_c, 0, 92, 0
2, 100367, Note_on_c, 0, 88, 0
2, 100367, Note_on_c, 0, 83, 0
2, 101280, Note_on_c, 0, 88, 114
2, 101280, Note_on_c, 0, 92, 114
2, 101280, Note_on_c, 0, 100, 114
2, 101327, Note_on_c, 0, 100, 0
2, 101327, Note_on_c, 0, 92, 0
2, 101327, Note_on_c, 0, 88, 0
2, 101760, Note_on_c, 0, 71, 114
2, 101760, Note_on_c, 0, 76, 114
2, 104640, Note_on_c, 0, 76, 0
2, 104640, Note_on_c, 0, 71, 0
2, 104640, End_track
3, 0, Start_track
3, 0, Title_t, "Instrument17"
3, 0, Program_c, 0, 0
3, 0, Control_c, 0, 7, 110
3, 0, Control_c, 0, 10, 97
3, 240, Note_on_c, 0, 71, 75
3, 240, Note_on_c, 0, 76, 75
3, 240, Note_on_c, 0, 80, 75
3, 263, Note_on_c, 0, 80, 0
3, 263, Note_on_c, 0, 76, 0
3, 263, Note_on_c, 0, 71, 0
3, 720, Note_on_c, 0, 71, 75
3, 720, Note_on_c, 0, 76, 75
3, 720, Note_on_c, 0, 80, 75
3, 743, Note_on_c, 0, 80, 0
3, 743, Note_on_c, 0, 76, 0
3, 743, Note_on_c, 0, 71, 0
3, 1200, Note_on_c, 0, 71, 75
3, 1200, Note_on_c, 0, 76, 75
3, 1200, Note_on_c, 0, 80, 75
3, 1223, Note_on_c, 0, 80, 0
3, 1223, Note_on_c, 0, 76, 0
3, 1223, Note_on_c, 0, 71, 0
3, 1680, Note_on_c, 0, 74, 75
3, 1680, Note_on_c, 0, 76, 75
3, 1680, Note_on_c, 0, 80, 75
3, 1703, Note_on_c, 0, 80, 0
3, 1703, Note_on_c, 0, 76, 0
3, 1703, Note_on_c, 0, 74, 0
3, 2160, Note_on_c, 0, 73, 75
3, 2160, Note_on_c, 0, 76, 75
3, 2160, Note_on_c, 0, 81, 75
3, 2183, Note_on_c, 0, 81, 0
3, 2183, Note_on_c, 0, 76, 0
3, 2183, Note_on_c, 0, 73, 0
3, 2640, Note_on_c, 0, 69, 75
3, 2640, Note_on_c, 0, 73, 75
3, 2640, Note_on_c, 0, 78, 75
3, 2663, Note_on_c, 0, 78, 0
3, 2663, Note_on_c, 0, 73, 0
3, 2663, Note_on_c, 0, 69, 0
3, 3120, Note_on_c, 0, 69, 75
3, 3120, Note_on_c, 0, 71, 75
3, 3120, Note_on_c, 0, 75, 75
3, 3143, Note_on_c, 0, 75, 0
3, 3143, Note_on_c, 0, 71, 0
3, 3143, Note_on_c, 0, 69, 0
3, 3600, Note_on_c, 0, 68, 75
3, 3600, Note_on_c, 0, 71, 75
3, 3600, Note_on_c, 0, 76, 75
3, 3623, Note_on_c, 0, 76, 0
3, 3623, Note_on_c, 0, 71, 0
3, 3623, Note_on_c, 0, 68, 0
3, 4080, Note_on_c, 0, 71, 75
3, 4080, Note_on_c, 0, 76, 75
3, 4080, Note_on_c, 0, 80, 75
3, 4103, Note_on_c, 0, 80, 0
3, 4103, Note_on_c, 0, 76, 0
3, 4103, Note_on_c, 0, 71, 0
3, 4560, Note_on_c, 0, 71, 75
3, 4560, Note_on_c, 0, 76, 75
3, 4560, Note_on_c, 0, 80, 75
3, 4583, Note_on_c, 0, 80, 0
3, 4583, Note_on_c, 0, 76, 0
3, 4583, Note_on_c, 0, 71, 0
3, 5040, Note_on_c, 0, 71, 75
3, 5040, Note_on_c, 0, 76, 75
3, 5040, Note_on_c, 0, 80, 75
3, 5063, Note_on_c, 0, 80, 0
3, 5063, Note_on_c, 0, 76, 0
3, 5063, Note_on_c, 0, 71, 0
3, 5520, Note_on_c, 0, 74, 75
3, 5520, Note_on_c, 0, 76, 75
3, 5520, Note_on_c, 0, 80, 75
3, 5543, Note_on_c, 0, 80, 0
3, 5543, Note_on_c, 0, 76, 0
3, 5543, Note_on_c, 0, 74, 0
3, 6000, Note_on_c, 0, 73, 75
3, 6000, Note_on_c, 0, 76, 75
3, 6000, Note_on_c, 0, 81, 75
3, 6023, Note_on_c, 0, 81, 0
3, 6023, Note_on_c, 0, 76, 0
3, 6023, Note_on_c, 0, 73, 0
3, 6480, Note_on_c, 0, 69, 75
3, 6480, Note_on_c, 0, 73, 75
3, 6480, Note_on_c, 0, 78, 75
3, 6503, Note_on_c, 0, 78, 0
3, 6503, Note_on_c, 0, 73, 0
3, 6503, Note_on_c, 0, 69, 0
3, 6960, Note_on_c, 0, 69, 75
3, 6960, Note_on_c, 0, 71, 75
3, 6960, Note_on_c, 0, 75, 75
3, 6983, Note_on_c, 0, 75, 0
3, 6983, Note_on_c, 0, 71, 0
3, 6983, Note_on_c, 0, 69, 0
3, 7440, Note_on_c, 0, 68, 75
3, 7440, Note_on_c, 0, 71, 75
3, 7440, Note_on_c, 0, 76, 75
3, 7463, Note_on_c, 0, 76, 0
3, 7463, Note_on_c, 0, 71, 0
3, 7463, Note_on_c, 0, 68, 0
3, 7680, Control_c, 0, 64, 127
3, 7680, Note_on_c, 0, 71, 88
3, 7920, Note_on_c, 0, 71, 0
3, 7920, Note_on_c, 0, 73, 88
3, 8040, Note_on_c, 0, 73, 0
3, 8040, Note_on_c, 0, 75, 88
3, 8160, Note_on_c, 0, 75, 0
3, 8160, Control_c, 0, 64, 0
3, 8160, Note_on_c, 0, 76, 88
3, 8183, Note_on_c, 0, 76, 0
3, 8400, Note_on_c, 0, 76, 88
3, 8640, Note_on_c, 0, 76, 0
3, 8640, Note_on_c, 0, 76, 88
3, 8880, Note_on_c, 0, 76, 0
3, 8880, Note_on_c, 0, 75, 88
3, 9000, Note_on_c, 0, 75, 0
3, 9000, Note_on_c, 0, 73, 88
3, 9120, Note_on_c, 0, 73, 0
3, 9120, Note_on_c, 0, 71, 88
3, 9600, Note_on_c, 0, 71, 0
3, 9600, Control_c, 0, 64, 127
3, 9600, Note_on_c, 0, 73, 88
3, 9840, Note_on_c, 0, 73, 0
3, 9840, Note_on_c, 0, 69, 88
3, 9960, Note_on_c, 0, 69, 0
3, 9960, Note_on_c, 0, 71, 88
3, 10080, Note_on_c, 0, 71, 0
3, 10080, Control_c, 0, 64, 0
3, 10080, Note_on_c, 0, 73, 88
3, 10103, Note_on_c, 0, 73, 0
3, 10320, Note_on_c, 0, 69, 88
3, 10800, Note_on_c, 0, 69, 0
3, 10800, Note_on_c, 0, 68, 88
3, 10920, Note_on_c, 0, 68, 0
3, 10920, Note_on_c, 0, 66, 88
3, 11040, Note_on_c, 0, 66, 0
3, 11040, Note_on_c, 0, 64, 88
3, 11520, Note_on_c, 0, 64, 0
3, 11520, Control_c, 0, 64, 127
3, 11520, Note_on_c, 0, 71, 88
3, 11760, Note_on_c, 0, 71, 0
3, 11760, Note_on_c, 0, 73, 88
3, 11880, Note_on_c, 0, 73, 0
3, 11880, Note_on_c, 0, 75, 88
3, 12000, Note_on_c, 0, 75, 0
3, 12000, Control_c, 0, 64, 0
3, 12000, Note_on_c, 0, 76, 88
3, 12023, Note_on_c, 0, 76, 0
3, 12240, Note_on_c, 0, 76, 88
3, 12480, Note_on_c, 0, 76, 0
3, 12480, Note_on_c, 0, 76, 88
3, 12720, Note_on_c, 0, 76, 0
3, 12720, Note_on_c, 0, 75, 88
3, 12840, Note_on_c, 0, 75, 0
3, 12840, Note_on_c, 0, 73, 88
3, 12960, Note_on_c, 0, 73, 0
3, 12960, Note_on_c, 0, 71, 88
3, 13440, Note_on_c, 0, 71, 0
3, 13440, Control_c, 0, 64, 127
3, 13440, Note_on_c, 0, 73, 88
3, 13680, Note_on_c, 0, 73, 0
3, 13680, Note_on_c, 0, 69, 88
3, 13800, Note_on_c, 0, 69, 0
3, 13800, Note_on_c, 0, 71, 88
3, 13920, Note_on_c, 0, 71, 0
3, 13920, Control_c, 0, 64, 0
3, 13920, Note_on_c, 0, 73, 88
3, 13943, Note_on_c, 0, 73, 0
3, 14160, Note_on_c, 0, 69, 88
3, 14640, Note_on_c, 0, 69, 0
3, 14640, Note_on_c, 0, 68, 88
3, 14760, Note_on_c, 0, 68, 0
3, 14760, Note_on_c, 0, 66, 88
3, 14880, Note_on_c, 0, 66, 0
3, 14880, Note_on_c, 0, 64, 88
3, 15360, Note_on_c, 0, 64, 0
3, 15360, Note_on_c, 0, 71, 114
3, 15383, Note_on_c, 0, 71, 0
3, 15840, Note_on_c, 0, 59, 114
3, 16560, Note_on_c, 0, 59, 0
3, 16560, Note_on_c, 0, 64, 88
3, 16680, Note_on_c, 0, 64, 0
3, 16680, Note_on_c, 0, 66, 88
3, 16800, Note_on_c, 0, 66, 0
3, 16800, Note_on_c, 0, 68, 88
3, 16823, Note_on_c, 0, 68, 0
3, 17040, Note_on_c, 0, 64, 88
3, 17063, Note_on_c, 0, 64, 0
3, 17280, Note_on_c, 0, 59, 114
3, 18000, Note_on_c, 0, 59, 0
3, 18000, Note_on_c, 0, 69, 88
3, 18240, Note_on_c, 0, 69, 0
3, 18240, Note_on_c, 0, 68, 88
3, 18480, Note_on_c, 0, 68, 0
3, 18480, Note_on_c, 0, 64, 88
3, 18600, Note_on_c, 0, 64, 0
3, 18600, Note_on_c, 0, 66, 88
3, 18720, Note_on_c, 0, 66, 0
3, 18720, Note_on_c, 0, 68, 88
3, 18743, Note_on_c, 0, 68, 0
3, 18960, Note_on_c, 0, 64, 88
3, 18983, Note_on_c, 0, 64, 0
3, 23040, Note_on_c, 0, 59, 114
3, 23760, Note_on_c, 0, 59, 0
3, 23760, Note_on_c, 0, 69, 88
3, 23760, Note_on_c, 0, 71, 88
3, 24000, Note_on_c, 0, 69, 0
3, 24000, Note_on_c, 0, 68, 88
3, 24240, Note_on_c, 0, 68, 0
3, 24240, Note_on_c, 0, 71, 0
3, 24240, Note_on_c, 0, 64, 88
3, 24240, Note_on_c, 0, 71, 88
3, 24360, Note_on_c, 0, 71, 0
3, 24360, Note_on_c, 0, 64, 0
3, 24360, Note_on_c, 0, 66, 88
3, 24480, Note_on_c, 0, 66, 0
3, 24480, Note_on_c, 0, 68, 88
3, 24503, Note_on_c, 0, 68, 0
3, 24720, Note_on_c, 0, 64, 88
3, 24720, Note_on_c, 0, 71, 88
3, 24743, Note_on_c, 0, 71, 0
3, 24743, Note_on_c, 0, 64, 0
3, 24960, Note_on_c, 0, 59, 114
3, 25680, Note_on_c, 0, 59, 0
3, 25680, Note_on_c, 0, 69, 88
3, 25680, Note_on_c, 0, 71, 88
3, 25920, Note_on_c, 0, 69, 0
3, 25920, Note_on_c, 0, 68, 88
3, 26160, Note_on_c, 0, 68, 0
3, 26160, Note_on_c, 0, 71, 0
3, 26160, Note_on_c, 0, 64, 88
3, 26160, Note_on_c, 0, 71, 88
3, 26280, Note_on_c, 0, 71, 0
3, 26280, Note_on_c, 0, 64, 0
3, 26280, Note_on_c, 0, 66, 88
3, 26400, Note_on_c, 0, 66, 0
3, 26400, Note_on_c, 0, 68, 88
3, 26423, Note_on_c, 0, 68, 0
3, 26640, Note_on_c, 0, 64, 88
3, 26640, Note_on_c, 0, 71, 88
3, 26663, Note_on_c, 0, 71, 0
3, 26663, Note_on_c, 0, 64, 0
3, 26880, Note_on_c, 0, 73, 88
3, 26903, Note_on_c, 0, 73, 0
3, 27120, Note_on_c, 0, 73, 114
3, 27240, Note_on_c, 0, 73, 0
3, 27240, Note_on_c, 0, 71, 88
3, 27360, Note_on_c, 0, 71, 0
3, 27360, Note_on_c, 0, 71, 114
3, 27480, Note_on_c, 0, 71, 0
3, 27480, Note_on_c, 0, 69, 88
3, 27600, Note_on_c, 0, 69, 0
3, 27600, Note_on_c, 0, 69, 114
3, 27720, Note_on_c, 0, 69, 0
3, 27720, Note_on_c, 0, 66, 88
3, 27840, Note_on_c, 0, 66, 0
3, 27840, Note_on_c, 0, 64, 88
3, 27863, Note_on_c, 0, 64, 0
3, 28080, Note_on_c, 0, 64, 88
3, 28200, Note_on_c, 0, 64, 0
3, 28200, Note_on_c, 0, 66, 88
3, 28320, Note_on_c, 0, 66, 0
3, 28320, Note_on_c, 0, 68, 88
3, 28343, Note_on_c, 0, 68, 0
3, 28560, Note_on_c, 0, 64, 88
3, 28583, Note_on_c, 0, 64, 0
3, 28800, Note_on_c, 0, 73, 88
3, 28823, Note_on_c, 0, 73, 0
3, 29040, Note_on_c, 0, 73, 114
3, 29160, Note_on_c, 0, 73, 0
3, 29160, Note_on_c, 0, 71, 88
3, 29280, Note_on_c, 0, 71, 0
3, 29280, Note_on_c, 0, 71, 114
3, 29400, Note_on_c, 0, 71, 0
3, 29400, Note_on_c, 0, 69, 88
3, 29520, Note_on_c, 0, 69, 0
3, 29520, Note_on_c, 0, 69, 114
3, 29640, Note_on_c, 0, 69, 0
3, 29640, Note_on_c, 0, 66, 88
3, 29760, Note_on_c, 0, 66, 0
3, 29760, Note_on_c, 0, 64, 88
3, 29783, Note_on_c, 0, 64, 0
3, 30000, Note_on_c, 0, 68, 88
3, 30023, Note_on_c, 0, 68, 0
3, 30240, Note_on_c, 0, 64, 88
3, 30263, Note_on_c, 0, 64, 0
3, 30660, Note_on_c, 0, 75, 62
3, 30720, Note_on_c, 0, 75, 0
3, 30720, Note_on_c, 0, 76, 62
3, 30743, Note_on_c, 0, 76, 0
3, 30960, Note_on_c, 0, 76, 62
3, 30983, Note_on_c, 0, 76, 0
3, 31200, Note_on_c, 0, 71, 62
3, 31223, Note_on_c, 0, 71, 0
3, 31360, Note_on_c, 0, 67, 88
3, 31400, Note_on_c, 0, 70, 88
3, 31440, Note_on_c, 0, 73, 88
3, 31463, Note_on_c, 0, 73, 0
3, 31463, Note_on_c, 0, 70, 0
3, 31463, Note_on_c, 0, 67, 0
3, 31680, Note_on_c, 0, 74, 62
3, 31800, Note_on_c, 0, 74, 0
3, 31800, Note_on_c, 0, 73, 62
3, 31920, Note_on_c, 0, 73, 0
3, 31920, Note_on_c, 0, 73, 62
3, 32040, Note_on_c, 0, 73, 0
3, 32040, Note_on_c, 0, 71, 62
3, 32160, Note_on_c, 0, 71, 0
3, 32160, Note_on_c, 0, 71, 62
3, 32580, Note_on_c, 0, 75, 62
3, 32640, Note_on_c, 0, 75, 0
3, 32640, Note_on_c, 0, 71, 0
3, 32640, Note_on_c, 0, 76, 62
3, 32663, Note_on_c, 0, 76, 0
3, 32880, Note_on_c, 0, 76, 62
3, 32903, Note_on_c, 0, 76, 0
3, 33120, Note_on_c, 0, 71, 62
3, 33143, Note_on_c, 0, 71, 0
3, 33280, Note_on_c, 0, 67, 88
3, 33320, Note_on_c, 0, 70, 88
3, 33360, Note_on_c, 0, 73, 88
3, 33383, Note_on_c, 0, 73, 0
3, 33383, Note_on_c, 0, 70, 0
3, 33383, Note_on_c, 0, 67, 0
3, 33600, Note_on_c, 0, 74, 62
3, 33720, Note_on_c, 0, 74, 0
3, 33720, Note_on_c, 0, 73, 62
3, 33840, Note_on_c, 0, 73, 0
3, 33840, Note_on_c, 0, 73, 62
3, 33960, Note_on_c, 0, 73, 0
3, 33960, Note_on_c, 0, 71, 62
3, 34080, Note_on_c, 0, 71, 0
3, 34080, Note_on_c, 0, 71, 62
3, 34560, Note_on_c, 0, 71, 0
3, 34560, Note_on_c, 0, 69, 88
3, 34920, Note_on_c, 0, 69, 0
3, 34920, Note_on_c, 0, 70, 62
3, 35040, Note_on_c, 0, 70, 0
3, 35040, Note_on_c, 0, 71, 101
3, 35400, Note_on_c, 0, 71, 0
3, 35400, Note_on_c, 0, 69, 75
3, 35520, Note_on_c, 0, 69, 0
3, 35520, Note_on_c, 0, 67, 114
3, 35640, Note_on_c, 0, 67, 0
3, 35640, Note_on_c, 0, 66, 88
3, 35760, Note_on_c, 0, 66, 0
3, 35760, Note_on_c, 0, 67, 88
3, 36000, Note_on_c, 0, 67, 0
3, 36000, Note_on_c, 0, 64, 101
3, 36000, Note_on_c, 0, 69, 101
3, 36880, Note_on_c, 0, 63, 101
3, 36920, Note_on_c, 0, 66, 101
3, 36960, Note_on_c, 0, 69, 0
3, 36960, Note_on_c, 0, 64, 0
3, 36960, Note_on_c, 0, 71, 49
3, 36983, Note_on_c, 0, 71, 0
3, 36983, Note_on_c, 0, 63, 0
3, 36983, Note_on_c, 0, 66, 0
3, 37200, Note_on_c, 0, 71, 49
3, 37223, Note_on_c, 0, 71, 0
3, 37440, Note_on_c, 0, 73, 49
3, 37463, Note_on_c, 0, 73, 0
3, 37680, Note_on_c, 0, 75, 49
3, 37703, Note_on_c, 0, 75, 0
3, 37920, Note_on_c, 0, 78, 75
3, 38040, Note_on_c, 0, 78, 0
3, 38040, Note_on_c, 0, 76, 49
3, 38160, Note_on_c, 0, 76, 0
3, 38160, Note_on_c, 0, 75, 49
3, 38280, Note_on_c, 0, 75, 0
3, 38280, Note_on_c, 0, 78, 49
3, 38400, Note_on_c, 0, 78, 0
3, 38400, Note_on_c, 0, 76, 49
3, 38423, Note_on_c, 0, 76, 0
3, 38880, Note_on_c, 0, 69, 88
3, 39240, Note_on_c, 0, 69, 0
3, 39240, Note_on_c, 0, 70, 62
3, 39360, Note_on_c, 0, 70, 0
3, 39360, Note_on_c, 0, 71, 101
3, 39720, Note_on_c, 0, 71, 0
3, 39720, Note_on_c, 0, 69, 75
3, 39840, Note_on_c, 0, 69, 0
3, 39840, Note_on_c, 0, 67, 114
3, 39960, Note_on_c, 0, 67, 0
3, 39960, Note_on_c, 0, 66, 88
3, 40080, Note_on_c, 0, 66, 0
3, 40080, Note_on_c, 0, 67, 88
3, 40320, Note_on_c, 0, 67, 0
3, 40320, Note_on_c, 0, 64, 101
3, 40320, Note_on_c, 0, 69, 101
3, 41280, Note_on_c, 0, 69, 0
3, 41280, Note_on_c, 0, 64, 0
3, 41280, Note_on_c, 0, 63, 127
3, 41280, Note_on_c, 0, 66, 127
3, 41280, Note_on_c, 0, 71, 127
3, 41303, Note_on_c, 0, 71, 0
3, 41303, Note_on_c, 0, 66, 0
3, 41303, Note_on_c, 0, 63, 0
3, 41760, Note_on_c, 0, 59, 127
3, 42480, Note_on_c, 0, 59, 0
3, 42480, Note_on_c, 0, 64, 101
3, 42480, Note_on_c, 0, 71, 101
3, 42600, Note_on_c, 0, 71, 0
3, 42600, Note_on_c, 0, 64, 0
3, 42600, Note_on_c, 0, 66, 101
3, 42720, Note_on_c, 0, 66, 0
3, 42720, Note_on_c, 0, 68, 101
3, 42743, Note_on_c, 0, 68, 0
3, 42960, Note_on_c, 0, 64, 101
3, 42960, Note_on_c, 0, 71, 101
3, 42983, Note_on_c, 0, 71, 0
3, 42983, Note_on_c, 0, 64, 0
3, 43200, Note_on_c, 0, 59, 127
3, 43920, Note_on_c, 0, 59, 0
3, 43920, Note_on_c, 0, 69, 101
3, 43920, Note_on_c, 0, 71, 101
3, 44160, Note_on_c, 0, 69, 0
3, 44160, Note_on_c, 0, 68, 101
3, 44400, Note_on_c, 0, 68, 0
3, 44400, Note_on_c, 0, 71, 0
3, 44400, Note_on_c, 0, 64, 101
3, 44400, Note_on_c, 0, 71, 101
3, 44520, Note_on_c, 0, 71, 0
3, 44520, Note_on_c, 0, 64, 0
3, 44520, Note_on_c, 0, 66, 101
3, 44640, Note_on_c, 0, 66, 0
3, 44640, Note_on_c, 0, 68, 101
3, 44663, Note_on_c, 0, 68, 0
3, 44880, Note_on_c, 0, 64, 101
3, 44880, Note_on_c, 0, 71, 101
3, 44903, Note_on_c, 0, 71, 0
3, 44903, Note_on_c, 0, 64, 0
3, 45120, Note_on_c, 0, 73, 101
3, 45143, Note_on_c, 0, 73, 0
3, 45360, Note_on_c, 0, 73, 127
3, 45480, Note_on_c, 0, 73, 0
3, 45480, Note_on_c, 0, 71, 101
3, 45600, Note_on_c, 0, 71, 0
3, 45600, Note_on_c, 0, 71, 127
3, 45720, Note_on_c, 0, 71, 0
3, 45720, Note_on_c, 0, 69, 101
3, 45840, Note_on_c, 0, 69, 0
3, 45840, Note_on_c, 0, 69, 127
3, 45960, Note_on_c, 0, 69, 0
3, 45960, Note_on_c, 0, 66, 101
3, 46080, Note_on_c, 0, 66, 0
3, 46080, Note_on_c, 0, 64, 101
3, 46103, Note_on_c, 0, 64, 0
3, 46320, Note_on_c, 0, 64, 101
3, 46440, Note_on_c, 0, 64, 0
3, 46440, Note_on_c, 0, 66, 101
3, 46560, Note_on_c, 0, 66, 0
3, 46560, Note_on_c, 0, 68, 101
3, 46583, Note_on_c, 0, 68, 0
3, 46800, Note_on_c, 0, 64, 101
3, 46823, Note_on_c, 0, 64, 0
3, 47040, Note_on_c, 0, 73, 101
3, 47063, Note_on_c, 0, 73, 0
3, 47280, Note_on_c, 0, 73, 127
3, 47400, Note_on_c, 0, 73, 0
3, 47400, Note_on_c, 0, 71, 101
3, 47520, Note_on_c, 0, 71, 0
3, 47520, Note_on_c, 0, 71, 127
3, 47640, Note_on_c, 0, 71, 0
3, 47640, Note_on_c, 0, 69, 101
3, 47760, Note_on_c, 0, 69, 0
3, 47760, Note_on_c, 0, 69, 127
3, 47880, Note_on_c, 0, 69, 0
3, 47880, Note_on_c, 0, 66, 101
3, 48000, Note_on_c, 0, 66, 0
3, 48000, Note_on_c, 0, 64, 101
3, 48023, Note_on_c, 0, 64, 0
3, 48240, Note_on_c, 0, 64, 101
3, 48360, Note_on_c, 0, 64, 0
3, 48360, Note_on_c, 0, 66, 101
3, 48480, Note_on_c, 0, 66, 0
3, 48480, Note_on_c, 0, 68, 101
3, 48503, Note_on_c, 0, 68, 0
3, 48720, Note_on_c, 0, 64, 101
3, 48743, Note_on_c, 0, 64, 0
3, 48960, Note_on_c, 0, 63, 127
3, 48960, Note_on_c, 0, 66, 127
3, 48960, Note_on_c, 0, 71, 127
3, 49440, Note_on_c, 0, 71, 0
3, 49440, Note_on_c, 0, 66, 0
3, 49440, Note_on_c, 0, 63, 0
3, 49560, Control_c, 0, 64, 127
3, 49560, Note_on_c, 0, 83, 101
3, 49680, Note_on_c, 0, 83, 0
3, 49680, Note_on_c, 0, 85, 101
3, 49800, Note_on_c, 0, 85, 0
3, 49800, Note_on_c, 0, 87, 101
3, 49920, Note_on_c, 0, 87, 0
3, 49920, Control_c, 0, 64, 0
3, 49920, Note_on_c, 0, 88, 101
3, 49943, Note_on_c, 0, 88, 0
3, 50160, Note_on_c, 0, 76, 101
3, 50160, Note_on_c, 0, 80, 101
3, 50183, Note_on_c, 0, 80, 0
3, 50400, Note_on_c, 0, 83, 101
3, 50423, Note_on_c, 0, 83, 0
3, 50423, Note_on_c, 0, 76, 0
3, 50640, Note_on_c, 0, 76, 101
3, 50640, Note_on_c, 0, 80, 101
3, 50663, Note_on_c, 0, 80, 0
3, 50663, Note_on_c, 0, 76, 0
3, 50880, Note_on_c, 0, 75, 127
3, 50880, Note_on_c, 0, 78, 127
3, 51360, Note_on_c, 0, 78, 0
3, 51360, Note_on_c, 0, 75, 0
3, 51480, Control_c, 0, 64, 127
3, 51480, Note_on_c, 0, 83, 62
3, 51600, Note_on_c, 0, 83, 0
3, 51600, Note_on_c, 0, 85, 62
3, 51720, Note_on_c, 0, 85, 0
3, 51720, Note_on_c, 0, 87, 62
3, 51840, Note_on_c, 0, 87, 0
3, 51840, Note_on_c, 0, 88, 62
3, 51960, Note_on_c, 0, 88, 0
3, 51960, Note_on_c, 0, 87, 62
3, 52080, Note_on_c, 0, 87, 0
3, 52080, Note_on_c, 0, 85, 62
3, 52200, Note_on_c, 0, 85, 0
3, 52200, Note_on_c, 0, 83, 62
3, 52320, Note_on_c, 0, 83, 0
3, 52320, Note_on_c, 0, 85, 62
3, 52440, Note_on_c, 0, 85, 0
3, 52440, Note_on_c, 0, 83, 62
3, 52560, Note_on_c, 0, 83, 0
3, 52560, Note_on_c, 0, 81, 62
3, 52680, Note_on_c, 0, 81, 0
3, 52680, Control_c, 0, 64, 0
3, 52680, Note_on_c, 0, 80, 62
3, 52800, Note_on_c, 0, 80, 0
3, 52800, Note_on_c, 0, 76, 62
3, 52800, Note_on_c, 0, 78, 62
3, 52823, Note_on_c, 0, 78, 0
3, 52823, Note_on_c, 0, 76, 0
3, 53040, Note_on_c, 0, 85, 62
3, 53063, Note_on_c, 0, 85, 0
3, 53280, Note_on_c, 0, 75, 62
3, 53280, Note_on_c, 0, 78, 62
3, 53303, Note_on_c, 0, 78, 0
3, 53303, Note_on_c, 0, 75, 0
3, 53520, Note_on_c, 0, 83, 62
3, 53543, Note_on_c, 0, 83, 0
3, 53760, Control_c, 0, 64, 127
3, 53760, Note_on_c, 0, 76, 62
3, 53760, Note_on_c, 0, 80, 62
3, 53880, Note_on_c, 0, 80, 0
3, 53880, Note_on_c, 0, 76, 0
3, 53880, Note_on_c, 0, 78, 62
3, 54000, Note_on_c, 0, 78, 0
3, 54000, Note_on_c, 0, 80, 62
3, 54120, Note_on_c, 0, 80, 0
3, 54120, Note_on_c, 0, 81, 62
3, 54240, Note_on_c, 0, 81, 0
3, 54240, Note_on_c, 0, 85, 62
3, 54360, Note_on_c, 0, 85, 0
3, 54360, Note_on_c, 0, 83, 62
3, 54480, Note_on_c, 0, 83, 0
3, 54480, Note_on_c, 0, 81, 62
3, 54600, Note_on_c, 0, 81, 0
3, 54600, Control_c, 0, 64, 0
3, 54600, Note_on_c, 0, 80, 62
3, 54720, Note_on_c, 0, 80, 0
3, 54720, Note_on_c, 0, 76, 62
3, 54720, Note_on_c, 0, 78, 62
3, 54743, Note_on_c, 0, 78, 0
3, 54743, Note_on_c, 0, 76, 0
3, 54960, Note_on_c, 0, 85, 62
3, 54983, Note_on_c, 0, 85, 0
3, 55200, Control_c, 0, 64, 127
3, 55200, Note_on_c, 0, 81, 62
3, 55200, Note_on_c, 0, 87, 62
3, 55260, Note_on_c, 0, 87, 0
3, 55260, Note_on_c, 0, 81, 0
3, 55260, Note_on_c, 0, 88, 62
3, 55320, Note_on_c, 0, 88, 0
3, 55320, Note_on_c, 0, 87, 62
3, 55380, Note_on_c, 0, 87, 0
3, 55380, Note_on_c, 0, 88, 62
3, 55440, Note_on_c, 0, 88, 0
3, 55440, Note_on_c, 0, 87, 62
3, 55500, Note_on_c, 0, 87, 0
3, 55500, Note_on_c, 0, 88, 62
3, 55560, Note_on_c, 0, 88, 0
3, 55560, Note_on_c, 0, 87, 62
3, 55620, Note_on_c, 0, 87, 0
3, 55620, Control_c, 0, 64, 0
3, 55620, Note_on_c, 0, 88, 62
3, 55680, Note_on_c, 0, 88, 0
3, 55680, Note_on_c, 0, 80, 62
3, 55680, Note_on_c, 0, 88, 62
3, 55703, Note_on_c, 0, 88, 0
3, 55703, Note_on_c, 0, 80, 0
3, 55920, Note_on_c, 0, 83, 62
3, 55943, Note_on_c, 0, 83, 0
3, 56160, Note_on_c, 0, 80, 62
3, 56160, Note_on_c, 0, 88, 62
3, 56183, Note_on_c, 0, 88, 0
3, 56183, Note_on_c, 0, 80, 0
3, 56640, Note_on_c, 0, 71, 88
3, 56663, Note_on_c, 0, 71, 0
3, 56880, Note_on_c, 0, 73, 88
3, 56903, Note_on_c, 0, 73, 0
3, 57120, Note_on_c, 0, 75, 114
3, 57600, Note_on_c, 0, 75, 0
3, 57600, Note_on_c, 0, 76, 114
3, 58080, Note_on_c, 0, 76, 0
3, 58080, Note_on_c, 0, 76, 88
3, 58103, Note_on_c, 0, 76, 0
3, 58320, Note_on_c, 0, 76, 88
3, 58343, Note_on_c, 0, 76, 0
3, 58560, Note_on_c, 0, 76, 114
3, 58680, Note_on_c, 0, 76, 0
3, 58680, Note_on_c, 0, 74, 88
3, 58800, Note_on_c, 0, 74, 0
3, 58800, Note_on_c, 0, 74, 114
3, 58920, Note_on_c, 0, 74, 0
3, 58920, Note_on_c, 0, 73, 88
3, 59040, Note_on_c, 0, 73, 0
3, 59040, Note_on_c, 0, 73, 88
3, 59520, Note_on_c, 0, 73, 0
3, 59520, Note_on_c, 0, 74, 114
3, 60000, Note_on_c, 0, 74, 0
3, 60000, Note_on_c, 0, 74, 88
3, 60023, Note_on_c, 0, 74, 0
3, 60240, Note_on_c, 0, 74, 88
3, 60263, Note_on_c, 0, 74, 0
3, 60480, Note_on_c, 0, 74, 114
3, 60600, Note_on_c, 0, 74, 0
3, 60600, Note_on_c, 0, 73, 88
3, 60720, Note_on_c, 0, 73, 0
3, 60720, Note_on_c, 0, 73, 114
3, 60840, Note_on_c, 0, 73, 0
3, 60840, Note_on_c, 0, 71, 88
3, 60960, Note_on_c, 0, 71, 0
3, 60960, Note_on_c, 0, 71, 88
3, 61440, Note_on_c, 0, 71, 0
3, 61440, Note_on_c, 0, 73, 114
3, 61920, Note_on_c, 0, 73, 0
3, 61920, Note_on_c, 0, 73, 88
3, 61943, Note_on_c, 0, 73, 0
3, 62160, Note_on_c, 0, 73, 88
3, 62183, Note_on_c, 0, 73, 0
3, 62400, Note_on_c, 0, 66, 88
3, 62423, Note_on_c, 0, 66, 0
3, 62640, Note_on_c, 0, 68, 88
3, 62663, Note_on_c, 0, 68, 0
3, 62880, Note_on_c, 0, 70, 88
3, 63360, Note_on_c, 0, 70, 0
3, 63360, Note_on_c, 0, 71, 88
3, 63840, Note_on_c, 0, 71, 0
3, 63840, Note_on_c, 0, 71, 88
3, 63863, Note_on_c, 0, 71, 0
3, 64080, Note_on_c, 0, 71, 88
3, 64103, Note_on_c, 0, 71, 0
3, 65280, Note_on_c, 0, 59, 88
3, 65760, Note_on_c, 0, 59, 0
3, 65760, Note_on_c, 0, 57, 88
3, 66240, Note_on_c, 0, 57, 0
3, 66240, Note_on_c, 0, 55, 88
3, 66720, Note_on_c, 0, 55, 0
3, 66720, Note_on_c, 0, 52, 88
3, 66720, Note_on_c, 0, 55, 88
3, 66720, Note_on_c, 0, 61, 88
3, 67200, Note_on_c, 0, 61, 0
3, 67200, Note_on_c, 0, 55, 0
3, 67200, Note_on_c, 0, 52, 0
3, 67200, Note_on_c, 0, 54, 88
3, 67200, Note_on_c, 0, 62, 88
3, 67680, Note_on_c, 0, 62, 0
3, 67680, Note_on_c, 0, 54, 0
3, 67680, Note_on_c, 0, 54, 88
3, 67680, Note_on_c, 0, 62, 88
3, 68160, Note_on_c, 0, 62, 0
3, 68160, Note_on_c, 0, 54, 0
3, 68160, Note_on_c, 0, 55, 88
3, 68160, Note_on_c, 0, 59, 88
3, 68640, Note_on_c, 0, 59, 0
3, 68640, Note_on_c, 0, 55, 0
3, 69120, Note_on_c, 0, 76, 88
3, 69120, Note_on_c, 0, 79, 88
3, 69120, Note_on_c, 0, 85, 88
3, 69600, Note_on_c, 0, 85, 0
3, 69600, Note_on_c, 0, 79, 0
3, 69600, Note_on_c, 0, 76, 0
3, 69600, Note_on_c, 0, 76, 88
3, 69600, Note_on_c, 0, 79, 88
3, 69600, Note_on_c, 0, 85, 88
3, 69623, Note_on_c, 0, 85, 0
3, 69623, Note_on_c, 0, 79, 0
3, 69623, Note_on_c, 0, 76, 0
3, 69840, Note_on_c, 0, 76, 88
3, 69840, Note_on_c, 0, 79, 88
3, 69840, Note_on_c, 0, 85, 88
3, 69863, Note_on_c, 0, 85, 0
3, 69863, Note_on_c, 0, 79, 0
3, 69863, Note_on_c, 0, 76, 0
3, 70080, Note_on_c, 0, 85, 114
3, 70080, Note_on_c, 0, 88, 114
3, 70200, Note_on_c, 0, 88, 0
3, 70200, Note_on_c, 0, 85, 0
3, 70200, Note_on_c, 0, 83, 88
3, 70200, Note_on_c, 0, 86, 88
3, 70320, Note_on_c, 0, 86, 0
3, 70320, Note_on_c, 0, 83, 0
3, 70320, Note_on_c, 0, 83, 114
3, 70320, Note_on_c, 0, 86, 114
3, 70440, Note_on_c, 0, 86, 0
3, 70440, Note_on_c, 0, 83, 0
3, 70440, Note_on_c, 0, 82, 88
3, 70440, Note_on_c, 0, 85, 88
3, 70560, Note_on_c, 0, 85, 0
3, 70560, Note_on_c, 0, 82, 0
3, 70560, Note_on_c, 0, 76, 88
3, 70560, Note_on_c, 0, 82, 88
3, 70560, Note_on_c, 0, 85, 88
3, 71040, Note_on_c, 0, 85, 0
3, 71040, Note_on_c, 0, 82, 0
3, 71040, Note_on_c, 0, 76, 0
3, 71040, Note_on_c, 0, 74, 88
3, 71040, Note_on_c, 0, 78, 88
3, 71040, Note_on_c, 0, 83, 88
3, 71520, Note_on_c, 0, 83, 0
3, 71520, Note_on_c, 0, 78, 0
3, 71520, Note_on_c, 0, 74, 0
3, 71520, Note_on_c, 0, 83, 88
3, 71543, Note_on_c, 0, 83, 0
3, 71760, Note_on_c, 0, 83, 88
3, 71783, Note_on_c, 0, 83, 0
3, 72000, Control_c, 0, 64, 127
3, 72000, Note_on_c, 0, 76, 49
3, 72120, Note_on_c, 0, 76, 0
3, 72120, Note_on_c, 0, 78, 49
3, 72240, Note_on_c, 0, 78, 0
3, 72240, Note_on_c, 0, 76, 49
3, 72360, Note_on_c, 0, 76, 0
3, 72360, Note_on_c, 0, 75, 49
3, 72480, Note_on_c, 0, 75, 0
3, 72480, Note_on_c, 0, 76, 49
3, 72600, Note_on_c, 0, 76, 0
3, 72600, Note_on_c, 0, 74, 49
3, 72720, Note_on_c, 0, 74, 0
3, 72720, Note_on_c, 0, 72, 49
3, 72840, Note_on_c, 0, 72, 0
3, 72840, Note_on_c, 0, 78, 49
3, 72960, Note_on_c, 0, 78, 0
3, 72960, Note_on_c, 0, 76, 49
3, 73080, Note_on_c, 0, 76, 0
3, 73080, Note_on_c, 0, 72, 49
3, 73200, Note_on_c, 0, 72, 0
3, 73200, Note_on_c, 0, 78, 49
3, 73320, Note_on_c, 0, 78, 0
3, 73320, Note_on_c, 0, 76, 49
3, 73440, Note_on_c, 0, 76, 0
3, 73440, Note_on_c, 0, 72, 49
3, 73560, Note_on_c, 0, 72, 0
3, 73560, Note_on_c, 0, 78, 49
3, 73680, Note_on_c, 0, 78, 0
3, 73680, Note_on_c, 0, 76, 49
3, 73800, Note_on_c, 0, 76, 0
3, 73800, Control_c, 0, 64, 0
3, 73800, Note_on_c, 0, 72, 49
3, 73920, Note_on_c, 0, 72, 0
3, 73920, Control_c, 0, 64, 127
3, 73920, Note_on_c, 0, 76, 49
3, 74040, Note_on_c, 0, 76, 0
3, 74040, Note_on_c, 0, 78, 49
3, 74160, Note_on_c, 0, 78, 0
3, 74160, Note_on_c, 0, 76, 49
3, 74280, Note_on_c, 0, 76, 0
3, 74280, Note_on_c, 0, 75, 49
3, 74400, Note_on_c, 0, 75, 0
3, 74400, Note_on_c, 0, 76, 49
3, 74520, Note_on_c, 0, 76, 0
3, 74520, Note_on_c, 0, 73, 49
3, 74640, Note_on_c, 0, 73, 0
3, 74640, Note_on_c, 0, 71, 49
3, 74760, Note_on_c, 0, 71, 0
3, 74760, Note_on_c, 0, 78, 49
3, 74880, Note_on_c, 0, 78, 0
3, 74880, Note_on_c, 0, 76, 49
3, 75000, Note_on_c, 0, 76, 0
3, 75000, Note_on_c, 0, 71, 49
3, 75120, Note_on_c, 0, 71, 0
3, 75120, Note_on_c, 0, 78, 49
3, 75240, Note_on_c, 0, 78, 0
3, 75240, Note_on_c, 0, 76, 49
3, 75360, Note_on_c, 0, 76, 0
3, 75360, Note_on_c, 0, 73, 49
3, 75480, Note_on_c, 0, 73, 0
3, 75480, Note_on_c, 0, 78, 49
3, 75600, Note_on_c, 0, 78, 0
3, 75600, Note_on_c, 0, 76, 49
3, 75720, Note_on_c, 0, 76, 0
3, 75720, Control_c, 0, 64, 0
3, 75720, Note_on_c, 0, 73, 49
3, 75840, Note_on_c, 0, 73, 0
3, 75840, Control_c, 0, 64, 127
3, 75840, Note_on_c, 0, 75, 49
3, 75960, Note_on_c, 0, 75, 0
3, 75960, Note_on_c, 0, 71, 49
3, 76080, Note_on_c, 0, 71, 0
3, 76080, Note_on_c, 0, 75, 49
3, 76200, Note_on_c, 0, 75, 0
3, 76200, Note_on_c, 0, 78, 49
3, 76320, Note_on_c, 0, 78, 0
3, 76320, Control_c, 0, 64, 0
3, 76320, Note_on_c, 0, 83, 49
3, 76343, Note_on_c, 0, 83, 0
3, 76560, Note_on_c, 0, 78, 49
3, 76583, Note_on_c, 0, 78, 0
3, 76800, Note_on_c, 0, 83, 49
3, 76823, Note_on_c, 0, 83, 0
3, 77040, Note_on_c, 0, 78, 49
3, 77063, Note_on_c, 0, 78, 0
3, 77280, Note_on_c, 0, 83, 49
3, 77303, Note_on_c, 0, 83, 0
3, 77520, Note_on_c, 0, 78, 49
3, 77543, Note_on_c, 0, 78, 0
3, 77760, Note_on_c, 0, 83, 49
3, 77783, Note_on_c, 0, 83, 0
3, 78240, Control_c, 0, 64, 127
3, 78240, Note_on_c, 0, 78, 49
3, 78360, Note_on_c, 0, 78, 0
3, 78360, Note_on_c, 0, 79, 49
3, 78480, Note_on_c, 0, 79, 0
3, 78480, Note_on_c, 0, 81, 49
3, 78600, Note_on_c, 0, 81, 0
3, 78600, Note_on_c, 0, 78, 49
3, 78720, Note_on_c, 0, 78, 0
3, 78720, Note_on_c, 0, 79, 49
3, 78840, Note_on_c, 0, 79, 0
3, 78840, Note_on_c, 0, 76, 49
3, 78960, Note_on_c, 0, 76, 0
3, 78960, Note_on_c, 0, 78, 49
3, 79080, Note_on_c, 0, 78, 0
3, 79080, Note_on_c, 0, 75, 49
3, 79200, Note_on_c, 0, 75, 0
3, 79200, Control_c, 0, 64, 0
3, 79200, Note_on_c, 0, 76, 49
3, 79440, Note_on_c, 0, 76, 0
3, 79680, Note_on_c, 0, 76, 88
3, 79680, Note_on_c, 0, 81, 88
3, 80040, Note_on_c, 0, 81, 0
3, 80040, Note_on_c, 0, 76, 0
3, 80040, Note_on_c, 0, 83, 88
3, 80160, Note_on_c, 0, 83, 0
3, 80160, Note_on_c, 0, 84, 88
3, 80183, Note_on_c, 0, 84, 0
3, 80400, Note_on_c, 0, 81, 75
3, 80880, Note_on_c, 0, 81, 0
3, 80880, Control_c, 0, 64, 127
3, 80880, Note_on_c, 0, 80, 62
3, 81000, Note_on_c, 0, 80, 0
3, 81000, Note_on_c, 0, 81, 62
3, 81120, Note_on_c, 0, 81, 0
3, 81120, Note_on_c, 0, 83, 62
3, 81240, Note_on_c, 0, 83, 0
3, 81240, Note_on_c, 0, 81, 62
3, 81360, Note_on_c, 0, 81, 0
3, 81360, Note_on_c, 0, 80, 62
3, 81480, Note_on_c, 0, 80, 0
3, 81480, Control_c, 0, 64, 0
3, 81480, Note_on_c, 0, 81, 62
3, 81600, Note_on_c, 0, 81, 0
3, 81600, Note_on_c, 0, 76, 88
3, 81600, Note_on_c, 0, 79, 88
3, 81960, Note_on_c, 0, 79, 0
3, 81960, Note_on_c, 0, 76, 0
3, 81960, Note_on_c, 0, 81, 88
3, 82080, Note_on_c, 0, 81, 0
3, 82080, Note_on_c, 0, 83, 88
3, 82103, Note_on_c, 0, 83, 0
3, 82320, Note_on_c, 0, 79, 75
3, 82800, Note_on_c, 0, 79, 0
3, 82800, Note_on_c, 0, 78, 75
3, 82920, Note_on_c, 0, 78, 0
3, 82920, Note_on_c, 0, 79, 75
3, 83040, Note_on_c, 0, 79, 0
3, 83040, Note_on_c, 0, 81, 75
3, 83160, Note_on_c, 0, 81, 0
3, 83160, Note_on_c, 0, 79, 75
3, 83280, Note_on_c, 0, 79, 0
3, 83280, Note_on_c, 0, 78, 75
3, 83400, Note_on_c, 0, 78, 0
3, 83400, Note_on_c, 0, 79, 75
3, 83520, Note_on_c, 0, 79, 0
3, 83520, Note_on_c, 0, 75, 75
3, 83520, Note_on_c, 0, 78, 75
3, 84000, Note_on_c, 0, 78, 0
3, 84000, Note_on_c, 0, 75, 0
3, 84000, Note_on_c, 0, 83, 75
3, 84023, Note_on_c, 0, 83, 0
3, 84240, Note_on_c, 0, 78, 75
3, 84263, Note_on_c, 0, 78, 0
3, 84480, Note_on_c, 0, 83, 75
3, 84503, Note_on_c, 0, 83, 0
3, 84720, Note_on_c, 0, 78, 75
3, 84743, Note_on_c, 0, 78, 0
3, 84960, Note_on_c, 0, 83, 75
3, 84983, Note_on_c, 0, 83, 0
3, 85200, Note_on_c, 0, 78, 75
3, 85223, Note_on_c, 0, 78, 0
3, 85440, Note_on_c, 0, 83, 88
3, 85463, Note_on_c, 0, 83, 0
3, 85920, Note_on_c, 0, 59, 114
3, 86640, Note_on_c, 0, 59, 0
3, 86640, Note_on_c, 0, 64, 88
3, 86760, Note_on_c, 0, 64, 0
3, 86760, Note_on_c, 0, 66, 88
3, 86880, Note_on_c, 0, 66, 0
3, 86880, Note_on_c, 0, 68, 88
3, 86903, Note_on_c, 0, 68, 0
3, 87120, Note_on_c, 0, 64, 88
3, 87143, Note_on_c, 0, 64, 0
3, 87360, Note_on_c, 0, 59, 114
3, 88080, Note_on_c, 0, 59, 0
3, 88080, Note_on_c, 0, 69, 88
3, 88080, Note_on_c, 0, 71, 88
3, 88320, Note_on_c, 0, 69, 0
3, 88320, Note_on_c, 0, 68, 88
3, 88560, Note_on_c, 0, 68, 0
3, 88560, Note_on_c, 0, 71, 0
3, 88560, Note_on_c, 0, 64, 88
3, 88560, Note_on_c, 0, 71, 88
3, 88680, Note_on_c, 0, 71, 0
3, 88680, Note_on_c, 0, 64, 0
3, 88680, Note_on_c, 0, 66, 88
3, 88800, Note_on_c, 0, 66, 0
3, 88800, Note_on_c, 0, 68, 88
3, 89040, Note_on_c, 0, 68, 0
3, 89040, Note_on_c, 0, 64, 88
3, 89040, Note_on_c, 0, 71, 88
3, 89280, Note_on_c, 0, 71, 0
3, 89280, Note_on_c, 0, 64, 0
3, 89280, Note_on_c, 0, 73, 88
3, 89303, Note_on_c, 0, 73, 0
3, 89520, Note_on_c, 0, 73, 114
3, 89640, Note_on_c, 0, 73, 0
3, 89640, Note_on_c, 0, 71, 88
3, 89760, Note_on_c, 0, 71, 0
3, 89760, Note_on_c, 0, 71, 114
3, 89880, Note_on_c, 0, 71, 0
3, 89880, Note_on_c, 0, 69, 88
3, 90000, Note_on_c, 0, 69, 0
3, 90000, Note_on_c, 0, 69, 114
3, 90120, Note_on_c, 0, 69, 0
3, 90120, Note_on_c, 0, 66, 88
3, 90240, Note_on_c, 0, 66, 0
3, 90240, Note_on_c, 0, 64, 114
3, 90360, Note_on_c, 0, 64, 0
3, 90360, Note_on_c, 0, 66, 88
3, 90480, Note_on_c, 0, 66, 0
3, 90480, Note_on_c, 0, 66, 114
3, 90600, Note_on_c, 0, 66, 0
3, 90600, Note_on_c, 0, 68, 88
3, 90720, Note_on_c, 0, 68, 0
3, 90720, Note_on_c, 0, 68, 114
3, 90840, Note_on_c, 0, 68, 0
3, 90840, Note_on_c, 0, 71, 88
3, 90960, Note_on_c, 0, 71, 0
3, 90960, Note_on_c, 0, 71, 114
3, 91080, Note_on_c, 0, 71, 0
3, 91080, Note_on_c, 0, 76, 88
3, 91200, Note_on_c, 0, 76, 0
3, 91200, Note_on_c, 0, 75, 114
3, 91320, Note_on_c, 0, 75, 0
3, 91320, Note_on_c, 0, 73, 88
3, 91440, Note_on_c, 0, 73, 0
3, 91440, Note_on_c, 0, 73, 114
3, 91560, Note_on_c, 0, 73, 0
3, 91560, Note_on_c, 0, 71, 88
3, 91680, Note_on_c, 0, 71, 0
3, 91680, Note_on_c, 0, 71, 114
3, 91800, Note_on_c, 0, 71, 0
3, 91800, Note_on_c, 0, 69, 88
3, 91920, Note_on_c, 0, 69, 0
3, 91920, Note_on_c, 0, 69, 114
3, 92040, Note_on_c, 0, 69, 0
3, 92040, Note_on_c, 0, 66, 88
3, 92160, Note_on_c, 0, 66, 0
3, 92160, Control_c, 0, 64, 127
3, 92160, Note_on_c, 0, 64, 88
3, 92280, Note_on_c, 0, 64, 0
3, 92280, Note_on_c, 0, 68, 88
3, 92400, Note_on_c, 0, 68, 0
3, 92400, Note_on_c, 0, 71, 88
3, 92520, Note_on_c, 0, 71, 0
3, 92520, Note_on_c, 0, 76, 88
3, 92640, Note_on_c, 0, 76, 0
3, 92640, Note_on_c, 0, 80, 88
3, 92760, Note_on_c, 0, 80, 0
3, 92760, Note_on_c, 0, 76, 88
3, 92880, Note_on_c, 0, 76, 0
3, 92880, Note_on_c, 0, 71, 88
3, 93000, Note_on_c, 0, 71, 0
3, 93000, Control_c, 0, 64, 0
3, 93000, Note_on_c, 0, 68, 88
3, 93120, Note_on_c, 0, 68, 0
3, 93120, Control_c, 0, 64, 127
3, 93120, Note_on_c, 0, 71, 114
3, 93720, Note_on_c, 0, 71, 0
3, 93720, Note_on_c, 0, 75, 88
3, 93840, Note_on_c, 0, 75, 0
3, 93840, Note_on_c, 0, 78, 88
3, 93960, Note_on_c, 0, 78, 0
3, 93960, Control_c, 0, 64, 0
3, 93960, Note_on_c, 0, 81, 88
3, 94080, Note_on_c, 0, 81, 0
3, 94080, Note_on_c, 0, 80, 114
3, 94200, Note_on_c, 0, 80, 0
3, 94200, Note_on_c, 0, 83, 88
3, 94320, Note_on_c, 0, 83, 0
3, 94320, Note_on_c, 0, 76, 88
3, 94440, Note_on_c, 0, 76, 0
3, 94440, Note_on_c, 0, 78, 88
3, 94560, Note_on_c, 0, 78, 0
3, 94560, Note_on_c, 0, 80, 88
3, 94583, Note_on_c, 0, 80, 0
3, 94800, Note_on_c, 0, 76, 88
3, 94823, Note_on_c, 0, 76, 0
3, 95040, Note_on_c, 0, 71, 88
3, 95400, Note_on_c, 0, 71, 0
3, 95400, Control_c, 0, 64, 127
3, 95400, Note_on_c, 0, 78, 88
3, 95520, Note_on_c, 0, 78, 0
3, 95520, Note_on_c, 0, 83, 88
3, 95640, Note_on_c, 0, 83, 0
3, 95640, Note_on_c, 0, 78, 88
3, 95760, Note_on_c, 0, 78, 0
3, 95760, Note_on_c, 0, 83, 88
3, 95880, Note_on_c, 0, 83, 0
3, 95880, Control_c, 0, 64, 0
3, 95880, Note_on_c, 0, 81, 88
3, 96000, Note_on_c, 0, 81, 0
3, 96000, Control_c, 0, 64, 127
3, 96000, Note_on_c, 0, 80, 88
3, 96120, Note_on_c, 0, 80, 0
3, 96120, Note_on_c, 0, 76, 88
3, 96240, Note_on_c, 0, 76, 0
3, 96240, Note_on_c, 0, 80, 88
3, 96360, Note_on_c, 0, 80, 0
3, 96360, Note_on_c, 0, 81, 88
3, 96480, Note_on_c, 0, 81, 0
3, 96480, Note_on_c, 0, 83, 88
3, 96600, Note_on_c, 0, 83, 0
3, 96600, Control_c, 0, 64, 0
3, 96600, Note_on_c, 0, 80, 88
3, 96720, Note_on_c, 0, 80, 0
3, 96720, Note_on_c, 0, 88, 114
3, 96840, Note_on_c, 0, 88, 0
3, 96840, Note_on_c, 0, 83, 88
3, 96960, Note_on_c, 0, 83, 0
3, 96960, Note_on_c, 0, 87, 114
3, 97080, Note_on_c, 0, 87, 0
3, 97080, Note_on_c, 0, 85, 88
3, 97200, Note_on_c, 0, 85, 0
3, 97200, Note_on_c, 0, 85, 114
3, 97320, Note_on_c, 0, 85, 0
3, 97320, Note_on_c, 0, 83, 88
3, 97440, Note_on_c, 0, 83, 0
3, 97440, Note_on_c, 0, 83, 114
3, 97560, Note_on_c, 0, 83, 0
3, 97560, Note_on_c, 0, 81, 88
3, 97680, Note_on_c, 0, 81, 0
3, 97680, Note_on_c, 0, 81, 114
3, 97800, Note_on_c, 0, 81, 0
3, 97800, Note_on_c, 0, 78, 88
3, 97920, Note_on_c, 0, 78, 0
3, 97920, Control_c, 0, 64, 127
3, 97920, Note_on_c, 0, 80, 88
3, 98040, Note_on_c, 0, 80, 0
3, 98040, Note_on_c, 0, 76, 88
3, 98160, Note_on_c, 0, 76, 0
3, 98160, Note_on_c, 0, 80, 88
3, 98280, Note_on_c, 0, 80, 0
3, 98280, Note_on_c, 0, 83, 88
3, 98400, Note_on_c, 0, 83, 0
3, 98400, Note_on_c, 0, 88, 88
3, 98520, Note_on_c, 0, 88, 0
3, 98520, Note_on_c, 0, 83, 88
3, 98640, Note_on_c, 0, 83, 0
3, 98640, Note_on_c, 0, 81, 88
3, 98760, Note_on_c, 0, 81, 0
3, 98760, Control_c, 0, 64, 0
3, 98760, Note_on_c, 0, 80, 88
3, 98880, Note_on_c, 0, 80, 0
3, 98880, Note_on_c, 0, 87, 114
3, 99000, Note_on_c, 0, 87, 0
3, 99000, Note_on_c, 0, 85, 88
3, 99120, Note_on_c, 0, 85, 0
3, 99120, Note_on_c, 0, 85, 114
3, 99240, Note_on_c, 0, 85, 0
3, 99240, Note_on_c, 0, 83, 88
3, 99360, Note_on_c, 0, 83, 0
3, 99360, Note_on_c, 0, 83, 114
3, 99480, Note_on_c, 0, 83, 0
3, 99480, Note_on_c, 0, 81, 88
3, 99600, Note_on_c, 0, 81, 0
3, 99600, Note_on_c, 0, 81, 114
3, 99720, Note_on_c, 0, 81, 0
3, 99720, Note_on_c, 0, 78, 88
3, 99840, Note_on_c, 0, 78, 0
3, 99840, Note_on_c, 0, 76, 114
3, 99863, Note_on_c, 0, 76, 0
3, 100320, Note_on_c, 0, 71, 114
3, 100320, Note_on_c, 0, 76, 114
3, 100320, Note_on_c, 0, 80, 114
3, 100367, Note_on_c, 0, 80, 0
3, 100367, Note_on_c, 0, 76, 0
3, 100367, Note_on_c, 0, 71, 0
3, 101280, Note_on_c, 0, 71, 114
3, 101280, Note_on_c, 0, 76, 114
3, 101280, Note_on_c, 0, 80, 114
3, 101327, Note_on_c, 0, 80, 0
3, 101327, Note_on_c, 0, 76, 0
3, 101327, Note_on_c, 0, 71, 0
3, 101760, Note_on_c, 0, 64, 114
3, 101760, Note_on_c, 0, 68, 114
3, 104640, Note_on_c, 0, 68, 0
3, 104640, Note_on_c, 0, 64, 0
3, 104640, End_track
4, 0, Start_track
4, 0, Title_t, "Instrument18"
4, 0, Program_c, 0, 0
4, 0, Control_c, 0, 7, 110
4, 0, Control_c, 0, 10, 30
4, 0, Note_on_c, 0, 59, 88
4, 240, Note_on_c, 0, 59, 0
4, 240, Note_on_c, 0, 61, 88
4, 360, Note_on_c, 0, 61, 0
4, 360, Note_on_c, 0, 63, 88
4, 480, Note_on_c, 0, 63, 0
4, 480, Note_on_c, 0, 64, 88
4, 503, Note_on_c, 0, 64, 0
4, 720, Note_on_c, 0, 64, 88
4, 1200, Note_on_c, 0, 64, 0
4, 1200, Note_on_c, 0, 62, 88
4, 1320, Note_on_c, 0, 62, 0
4, 1320, Note_on_c, 0, 61, 88
4, 1440, Note_on_c, 0, 61, 0
4, 1440, Note_on_c, 0, 59, 88
4, 1920, Note_on_c, 0, 59, 0
4, 1920, Note_on_c, 0, 61, 88
4, 2160, Note_on_c, 0, 61, 0
4, 2160, Note_on_c, 0, 57, 88
4, 2280, Note_on_c, 0, 57, 0
4, 2280, Note_on_c, 0, 59, 88
4, 2400, Note_on_c, 0, 59, 0
4, 2400, Note_on_c, 0, 61, 88
4, 2423, Note_on_c, 0, 61, 0
4, 2640, Note_on_c, 0, 57, 88
4, 3120, Note_on_c, 0, 57, 0
4, 3120, Note_on_c, 0, 56, 88
4, 3240, Note_on_c, 0, 56, 0
4, 3240, Note_on_c, 0, 54, 88
4, 3360, Note_on_c, 0, 54, 0
4, 3360, Note_on_c, 0, 52, 88
4, 3840, Note_on_c, 0, 52, 0
4, 3840, Note_on_c, 0, 59, 88
4, 4080, Note_on_c, 0, 59, 0
4, 4080, Note_on_c, 0, 61, 88
4, 4200, Note_on_c, 0, 61, 0
4, 4200, Note_on_c, 0, 63, 88
4, 4320, Note_on_c, 0, 63, 0
4, 4320, Note_on_c, 0, 64, 88
4, 4343, Note_on_c, 0, 64, 0
4, 4560, Note_on_c, 0, 64, 88
4, 5040, Note_on_c, 0, 64, 0
4, 5040, Note_on_c, 0, 62, 88
4, 5160, Note_on_c, 0, 62, 0
4, 5160, Note_on_c, 0, 61, 88
4, 5280, Note_on_c, 0, 61, 0
4, 5280, Note_on_c, 0, 59, 88
4, 5760, Note_on_c, 0, 59, 0
4, 5760, Note_on_c, 0, 61, 88
4, 6000, Note_on_c, 0, 61, 0
4, 6000, Note_on_c, 0, 57, 88
4, 6120, Note_on_c, 0, 57, 0
4, 6120, Note_on_c, 0, 59, 88
4, 6240, Note_on_c, 0, 59, 0
4, 6240, Note_on_c, 0, 61, 88
4, 6263, Note_on_c, 0, 61, 0
4, 6480, Note_on_c, 0, 57, 88
4, 6960, Note_on_c, 0, 57, 0
4, 6960, Note_on_c, 0, 56, 88
4, 7080, Note_on_c, 0, 56, 0
4, 7080, Note_on_c, 0, 54, 88
4, 7200, Note_on_c, 0, 54, 0
4, 7200, Note_on_c, 0, 52, 88
4, 7680, Note_on_c, 0, 52, 0
4, 7920, Note_on_c, 0, 52, 75
4, 7920, Note_on_c, 0, 56, 75
4, 7920, Note_on_c, 0, 59, 75
4, 8160, Note_on_c, 0, 59, 0
4, 8160, Note_on_c, 0, 56, 0
4, 8160, Note_on_c, 0, 52, 0
4, 8160, Note_on_c, 0, 56, 75
4, 8160, Note_on_c, 0, 59, 75
4, 8160, Note_on_c, 0, 64, 75
4, 8400, Note_on_c, 0, 64, 0
4, 8400, Note_on_c, 0, 59, 0
4, 8400, Note_on_c, 0, 56, 0
4, 8400, Note_on_c, 0, 55, 101
4, 8400, Note_on_c, 0, 58, 101
4, 8400, Note_on_c, 0, 61, 101
4, 8400, Note_on_c, 0, 67, 101
4, 8880, Note_on_c, 0, 67, 0
4, 8880, Note_on_c, 0, 55, 0
4, 8880, Note_on_c, 0, 58, 0
4, 8880, Note_on_c, 0, 61, 0
4, 8880, Note_on_c, 0, 54, 75
4, 8880, Note_on_c, 0, 59, 75
4, 8880, Note_on_c, 0, 62, 75
4, 9120, Note_on_c, 0, 62, 0
4, 9120, Note_on_c, 0, 59, 0
4, 9120, Note_on_c, 0, 54, 0
4, 9120, Note_on_c, 0, 59, 75
4, 9120, Note_on_c, 0, 62, 75
4, 9120, Note_on_c, 0, 66, 75
4, 9360, Note_on_c, 0, 66, 0
4, 9360, Note_on_c, 0, 62, 0
4, 9360, Note_on_c, 0, 59, 0
4, 9360, Note_on_c, 0, 56, 101
4, 9360, Note_on_c, 0, 62, 101
4, 9360, Note_on_c, 0, 68, 101
4, 9840, Note_on_c, 0, 68, 0
4, 9840, Note_on_c, 0, 62, 0
4, 9840, Note_on_c, 0, 56, 0
4, 9840, Note_on_c, 0, 52, 75
4, 9840, Note_on_c, 0, 57, 75
4, 9840, Note_on_c, 0, 61, 75
4, 10080, Note_on_c, 0, 61, 0
4, 10080, Note_on_c, 0, 57, 0
4, 10080, Note_on_c, 0, 52, 0
4, 10080, Note_on_c, 0, 57, 75
4, 10080, Note_on_c, 0, 61, 75
4, 10080, Note_on_c, 0, 64, 75
4, 10320, Note_on_c, 0, 64, 0
4, 10320, Note_on_c, 0, 61, 0
4, 10320, Note_on_c, 0, 57, 0
4, 10320, Note_on_c, 0, 54, 101
4, 10320, Note_on_c, 0, 57, 101
4, 10320, Note_on_c, 0, 63, 101
4, 10800, Note_on_c, 0, 63, 0
4, 10800, Note_on_c, 0, 57, 0
4, 10800, Note_on_c, 0, 54, 0
4, 10800, Note_on_c, 0, 52, 75
4, 10800, Note_on_c, 0, 56, 75
4, 11040, Note_on_c, 0, 56, 0
4, 11040, Note_on_c, 0, 52, 0
4, 11040, Note_on_c, 0, 56, 75
4, 11040, Note_on_c, 0, 59, 75
4, 11063, Note_on_c, 0, 59, 0
4, 11063, Note_on_c, 0, 56, 0
4, 11280, Note_on_c, 0, 52, 75
4, 11280, Note_on_c, 0, 56, 75
4, 11303, Note_on_c, 0, 56, 0
4, 11303, Note_on_c, 0, 52, 0
4, 11760, Note_on_c, 0, 52, 75
4, 11760, Note_on_c, 0, 56, 75
4, 11760, Note_on_c, 0, 59, 75
4, 12000, Note_on_c, 0, 59, 0
4, 12000, Note_on_c, 0, 56, 0
4, 12000, Note_on_c, 0, 52, 0
4, 12000, Note_on_c, 0, 56, 75
4, 12000, Note_on_c, 0, 59, 75
4, 12000, Note_on_c, 0, 64, 75
4, 12240, Note_on_c, 0, 64, 0
4, 12240, Note_on_c, 0, 59, 0
4, 12240, Note_on_c, 0, 56, 0
4, 12240, Note_on_c, 0, 55, 101
4, 12240, Note_on_c, 0, 58, 101
4, 12240, Note_on_c, 0, 61, 101
4, 12240, Note_on_c, 0, 67, 101
4, 12720, Note_on_c, 0, 67, 0
4, 12720, Note_on_c, 0, 55, 0
4, 12720, Note_on_c, 0, 58, 0
4, 12720, Note_on_c, 0, 61, 0
4, 12720, Note_on_c, 0, 54, 75
4, 12720, Note_on_c, 0, 59, 75
4, 12720, Note_on_c, 0, 62, 75
4, 12960, Note_on_c, 0, 62, 0
4, 12960, Note_on_c, 0, 59, 0
4, 12960, Note_on_c, 0, 54, 0
4, 12960, Note_on_c, 0, 59, 75
4, 12960, Note_on_c, 0, 62, 75
4, 12960, Note_on_c, 0, 66, 75
4, 13200, Note_on_c, 0, 66, 0
4, 13200, Note_on_c, 0, 62, 0
4, 13200, Note_on_c, 0, 59, 0
4, 13200, Note_on_c, 0, 56, 101
4, 13200, Note_on_c, 0, 62, 101
4, 13200, Note_on_c, 0, 68, 101
4, 13680, Note_on_c, 0, 68, 0
4, 13680, Note_on_c, 0, 62, 0
4, 13680, Note_on_c, 0, 56, 0
4, 13680, Note_on_c, 0, 52, 75
4, 13680, Note_on_c, 0, 57, 75
4, 13680, Note_on_c, 0, 61, 75
4, 13920, Note_on_c, 0, 61, 0
4, 13920, Note_on_c, 0, 57, 0
4, 13920, Note_on_c, 0, 52, 0
4, 13920, Note_on_c, 0, 57, 75
4, 13920, Note_on_c, 0, 61, 75
4, 13920, Note_on_c, 0, 64, 75
4, 14160, Note_on_c, 0, 64, 0
4, 14160, Note_on_c, 0, 61, 0
4, 14160, Note_on_c, 0, 57, 0
4, 14160, Note_on_c, 0, 54, 101
4, 14160, Note_on_c, 0, 57, 101
4, 14160, Note_on_c, 0, 63, 101
4, 14640, Note_on_c, 0, 63, 0
4, 14640, Note_on_c, 0, 57, 0
4, 14640, Note_on_c, 0, 54, 0
4, 14640, Note_on_c, 0, 52, 75
4, 14640, Note_on_c, 0, 56, 75
4, 14880, Note_on_c, 0, 56, 0
4, 14880, Note_on_c, 0, 52, 0
4, 14880, Note_on_c, 0, 56, 75
4, 14880, Note_on_c, 0, 59, 75
4, 14903, Note_on_c, 0, 59, 0
4, 14903, Note_on_c, 0, 56, 0
4, 15120, Note_on_c, 0, 52, 75
4, 15120, Note_on_c, 0, 56, 75
4, 15143, Note_on_c, 0, 56, 0
4, 15143, Note_on_c, 0, 52, 0
4, 15360, Note_on_c, 0, 59, 101
4, 15600, Note_on_c, 0, 59, 0
4, 15840, Note_on_c, 0, 47, 101
4, 16560, Note_on_c, 0, 47, 0
4, 16560, Note_on_c, 0, 52, 49
4, 16560, Note_on_c, 0, 56, 49
4, 16800, Note_on_c, 0, 56, 0
4, 16800, Note_on_c, 0, 52, 0
4, 16800, Note_on_c, 0, 52, 49
4, 16800, Note_on_c, 0, 59, 49
4, 16823, Note_on_c, 0, 59, 0
4, 16823, Note_on_c, 0, 52, 0
4, 17040, Note_on_c, 0, 52, 49
4, 17040, Note_on_c, 0, 56, 49
4, 17063, Note_on_c, 0, 56, 0
4, 17063, Note_on_c, 0, 52, 0
4, 17280, Note_on_c, 0, 47, 75
4, 18000, Note_on_c, 0, 47, 0
4, 18480, Note_on_c, 0, 52, 49
4, 18480, Note_on_c, 0, 56, 49
4, 18720, Note_on_c, 0, 56, 0
4, 18720, Note_on_c, 0, 52, 0
4, 18720, Note_on_c, 0, 52, 49
4, 18720, Note_on_c, 0, 59, 49
4, 18743, Note_on_c, 0, 59, 0
4, 18743, Note_on_c, 0, 52, 0
4, 18960, Note_on_c, 0, 52, 49
4, 18960, Note_on_c, 0, 56, 49
4, 18983, Note_on_c, 0, 56, 0
4, 18983, Note_on_c, 0, 52, 0
4, 19440, Note_on_c, 0, 52, 62
4, 19440, Note_on_c, 0, 54, 62
4, 19440, Note_on_c, 0, 61, 62
4, 19463, Note_on_c, 0, 61, 0
4, 19463, Note_on_c, 0, 54, 0
4, 19463, Note_on_c, 0, 52, 0
4, 19920, Note_on_c, 0, 54, 62
4, 19920, Note_on_c, 0, 57, 62
4, 19920, Note_on_c, 0, 63, 62
4, 19943, Note_on_c, 0, 63, 0
4, 19943, Note_on_c, 0, 57, 0
4, 19943, Note_on_c, 0, 54, 0
4, 20400, Note_on_c, 0, 52, 49
4, 20400, Note_on_c, 0, 56, 49
4, 20640, Note_on_c, 0, 56, 0
4, 20640, Note_on_c, 0, 52, 0
4, 20640, Note_on_c, 0, 52, 49
4, 20640, Note_on_c, 0, 59, 49
4, 20663, Note_on_c, 0, 59, 0
4, 20663, Note_on_c, 0, 52, 0
4, 20880, Note_on_c, 0, 52, 49
4, 20880, Note_on_c, 0, 56, 49
4, 20903, Note_on_c, 0, 56, 0
4, 20903, Note_on_c, 0, 52, 0
4, 21360, Note_on_c, 0, 52, 62
4, 21360, Note_on_c, 0, 54, 62
4, 21360, Note_on_c, 0, 61, 62
4, 21383, Note_on_c, 0, 61, 0
4, 21383, Note_on_c, 0, 54, 0
4, 21383, Note_on_c, 0, 52, 0
4, 21840, Note_on_c, 0, 54, 62
4, 21840, Note_on_c, 0, 57, 62
4, 21840, Note_on_c, 0, 63, 62
4, 21863, Note_on_c, 0, 63, 0
4, 21863, Note_on_c, 0, 57, 0
4, 21863, Note_on_c, 0, 54, 0
4, 22320, Note_on_c, 0, 52, 49
4, 22320, Note_on_c, 0, 56, 49
4, 22560, Note_on_c, 0, 56, 0
4, 22560, Note_on_c, 0, 52, 0
4, 22560, Note_on_c, 0, 52, 49
4, 22560, Note_on_c, 0, 59, 49
4, 22583, Note_on_c, 0, 59, 0
4, 22583, Note_on_c, 0, 52, 0
4, 22800, Note_on_c, 0, 52, 49
4, 22800, Note_on_c, 0, 56, 49
4, 22823, Note_on_c, 0, 56, 0
4, 22823, Note_on_c, 0, 52, 0
4, 23040, Note_on_c, 0, 51, 75
4, 23040, Note_on_c, 0, 54, 75
4, 23520, Note_on_c, 0, 54, 0
4, 23520, Note_on_c, 0, 51, 0
4, 23640, Control_c, 0, 64, 127
4, 23640, Note_on_c, 0, 59, 62
4, 23760, Note_on_c, 0, 59, 0
4, 23760, Note_on_c, 0, 61, 62
4, 23880, Note_on_c, 0, 61, 0
4, 23880, Control_c, 0, 64, 0
4, 23880, Note_on_c, 0, 63, 62
4, 24000, Note_on_c, 0, 63, 0
4, 24000, Note_on_c, 0, 64, 62
4, 24240, Note_on_c, 0, 64, 0
4, 24240, Note_on_c, 0, 52, 62
4, 24240, Note_on_c, 0, 56, 62
4, 24480, Note_on_c, 0, 56, 0
4, 24480, Note_on_c, 0, 52, 0
4, 24480, Note_on_c, 0, 52, 62
4, 24480, Note_on_c, 0, 59, 62
4, 24503, Note_on_c, 0, 59, 0
4, 24503, Note_on_c, 0, 52, 0
4, 24720, Note_on_c, 0, 52, 62
4, 24720, Note_on_c, 0, 56, 62
4, 24743, Note_on_c, 0, 56, 0
4, 24743, Note_on_c, 0, 52, 0
4, 24960, Note_on_c, 0, 51, 88
4, 24960, Note_on_c, 0, 54, 88
4, 25440, Note_on_c, 0, 54, 0
4, 25440, Note_on_c, 0, 51, 0
4, 25560, Control_c, 0, 64, 127
4, 25560, Note_on_c, 0, 59, 62
4, 25680, Note_on_c, 0, 59, 0
4, 25680, Note_on_c, 0, 61, 62
4, 25800, Note_on_c, 0, 61, 0
4, 25800, Note_on_c, 0, 63, 62
4, 25920, Note_on_c, 0, 63, 0
4, 25920, Note_on_c, 0, 64, 62
4, 26040, Note_on_c, 0, 64, 0
4, 26040, Note_on_c, 0, 63, 62
4, 26160, Note_on_c, 0, 63, 0
4, 26160, Note_on_c, 0, 61, 62
4, 26280, Note_on_c, 0, 61, 0
4, 26280, Note_on_c, 0, 59, 62
4, 26400, Note_on_c, 0, 59, 0
4, 26400, Note_on_c, 0, 61, 62
4, 26520, Note_on_c, 0, 61, 0
4, 26520, Note_on_c, 0, 59, 62
4, 26640, Note_on_c, 0, 59, 0
4, 26640, Note_on_c, 0, 56, 62
4, 26760, Note_on_c, 0, 56, 0
4, 26760, Control_c, 0, 64, 0
4, 26760, Note_on_c, 0, 52, 62
4, 26880, Note_on_c, 0, 52, 0
4, 27120, Note_on_c, 0, 52, 62
4, 27120, Note_on_c, 0, 54, 62
4, 27120, Note_on_c, 0, 61, 62
4, 27143, Note_on_c, 0, 61, 0
4, 27143, Note_on_c, 0, 54, 0
4, 27143, Note_on_c, 0, 52, 0
4, 27600, Note_on_c, 0, 54, 62
4, 27600, Note_on_c, 0, 57, 62
4, 27600, Note_on_c, 0, 63, 62
4, 27623, Note_on_c, 0, 63, 0
4, 27623, Note_on_c, 0, 57, 0
4, 27623, Note_on_c, 0, 54, 0
4, 27840, Note_on_c, 0, 52, 62
4, 27840, Note_on_c, 0, 56, 62
4, 28080, Note_on_c, 0, 56, 0
4, 28080, Note_on_c, 0, 59, 62
4, 28103, Note_on_c, 0, 59, 0
4, 28103, Note_on_c, 0, 52, 0
4, 28320, Note_on_c, 0, 52, 62
4, 28320, Note_on_c, 0, 56, 62
4, 28343, Note_on_c, 0, 56, 0
4, 28343, Note_on_c, 0, 52, 0
4, 28800, Note_on_c, 0, 54, 62
4, 28920, Note_on_c, 0, 54, 0
4, 28920, Note_on_c, 0, 56, 62
4, 29040, Note_on_c, 0, 56, 0
4, 29040, Note_on_c, 0, 57, 62
4, 29160, Note_on_c, 0, 57, 0
4, 29160, Note_on_c, 0, 61, 62
4, 29280, Note_on_c, 0, 61, 0
4, 29280, Note_on_c, 0, 51, 62
4, 29400, Note_on_c, 0, 51, 0
4, 29400, Note_on_c, 0, 52, 62
4, 29520, Note_on_c, 0, 52, 0
4, 29520, Note_on_c, 0, 54, 62
4, 29640, Note_on_c, 0, 54, 0
4, 29640, Note_on_c, 0, 57, 62
4, 29760, Note_on_c, 0, 57, 0
4, 29760, Note_on_c, 0, 52, 62
4, 29760, Note_on_c, 0, 56, 62
4, 30000, Note_on_c, 0, 56, 0
4, 30000, Note_on_c, 0, 59, 62
4, 30023, Note_on_c, 0, 59, 0
4, 30023, Note_on_c, 0, 52, 0
4, 30240, Note_on_c, 0, 52, 62
4, 30240, Note_on_c, 0, 56, 62
4, 30263, Note_on_c, 0, 56, 0
4, 30263, Note_on_c, 0, 52, 0
4, 30720, Note_on_c, 0, 66, 88
4, 30840, Note_on_c, 0, 66, 0
4, 30840, Note_on_c, 0, 64, 62
4, 30960, Note_on_c, 0, 64, 0
4, 30960, Note_on_c, 0, 66, 88
4, 31080, Note_on_c, 0, 66, 0
4, 31080, Note_on_c, 0, 64, 62
4, 31200, Note_on_c, 0, 64, 0
4, 31200, Note_on_c, 0, 66, 88
4, 31320, Note_on_c, 0, 66, 0
4, 31320, Note_on_c, 0, 64, 62
4, 31440, Note_on_c, 0, 64, 0
4, 31440, Note_on_c, 0, 66, 88
4, 31560, Note_on_c, 0, 66, 0
4, 31560, Note_on_c, 0, 64, 62
4, 31680, Note_on_c, 0, 64, 0
4, 31680, Note_on_c, 0, 66, 88
4, 31800, Note_on_c, 0, 66, 0
4, 31800, Note_on_c, 0, 64, 62
4, 31920, Note_on_c, 0, 64, 0
4, 31920, Note_on_c, 0, 64, 88
4, 32040, Note_on_c, 0, 64, 0
4, 32040, Note_on_c, 0, 62, 62
4, 32160, Note_on_c, 0, 62, 0
4, 32160, Note_on_c, 0, 62, 88
4, 32280, Note_on_c, 0, 62, 0
4, 32280, Note_on_c, 0, 64, 62
4, 32400, Note_on_c, 0, 64, 0
4, 32400, Note_on_c, 0, 64, 88
4, 32520, Note_on_c, 0, 64, 0
4, 32520, Note_on_c, 0, 66, 62
4, 32640, Note_on_c, 0, 66, 0
4, 32640, Note_on_c, 0, 66, 88
4, 32760, Note_on_c, 0, 66, 0
4, 32760, Note_on_c, 0, 64, 62
4, 32880, Note_on_c, 0, 64, 0
4, 32880, Note_on_c, 0, 66, 88
4, 33000, Note_on_c, 0, 66, 0
4, 33000, Note_on_c, 0, 64, 62
4, 33120, Note_on_c, 0, 64, 0
4, 33120, Note_on_c, 0, 66, 88
4, 33240, Note_on_c, 0, 66, 0
4, 33240, Note_on_c, 0, 64, 62
4, 33360, Note_on_c, 0, 64, 0
4, 33360, Note_on_c, 0, 66, 88
4, 33480, Note_on_c, 0, 66, 0
4, 33480, Note_on_c, 0, 64, 62
4, 33600, Note_on_c, 0, 64, 0
4, 33600, Note_on_c, 0, 66, 88
4, 33720, Note_on_c, 0, 66, 0
4, 33720, Note_on_c, 0, 64, 62
4, 33840, Note_on_c, 0, 64, 0
4, 33840, Note_on_c, 0, 64, 88
4, 33960, Note_on_c, 0, 64, 0
4, 33960, Note_on_c, 0, 62, 62
4, 34080, Note_on_c, 0, 62, 0
4, 34080, Note_on_c, 0, 62, 88
4, 34200, Note_on_c, 0, 62, 0
4, 34200, Note_on_c, 0, 64, 62
4, 34320, Note_on_c, 0, 64, 0
4, 34320, Note_on_c, 0, 64, 88
4, 34440, Note_on_c, 0, 64, 0
4, 34440, Note_on_c, 0, 66, 62
4, 34560, Note_on_c, 0, 66, 0
4, 34560, Note_on_c, 0, 66, 88
4, 34680, Note_on_c, 0, 66, 0
4, 34680, Note_on_c, 0, 64, 62
4, 34800, Note_on_c, 0, 64, 0
4, 34800, Note_on_c, 0, 66, 88
4, 34920, Note_on_c, 0, 66, 0
4, 34920, Note_on_c, 0, 64, 62
4, 35040, Note_on_c, 0, 64, 0
4, 35040, Note_on_c, 0, 64, 88
4, 35160, Note_on_c, 0, 64, 0
4, 35160, Note_on_c, 0, 62, 62
4, 35280, Note_on_c, 0, 62, 0
4, 35280, Note_on_c, 0, 62, 88
4, 35400, Note_on_c, 0, 62, 0
4, 35400, Note_on_c, 0, 59, 62
4, 35520, Note_on_c, 0, 59, 0
4, 35520, Note_on_c, 0, 62, 88
4, 35640, Note_on_c, 0, 62, 0
4, 35640, Note_on_c, 0, 60, 62
4, 35760, Note_on_c, 0, 60, 0
4, 35760, Note_on_c, 0, 60, 88
4, 35880, Note_on_c, 0, 60, 0
4, 35880, Note_on_c, 0, 59, 62
4, 36000, Note_on_c, 0, 59, 0
4, 36000, Note_on_c, 0, 59, 88
4, 36120, Note_on_c, 0, 59, 0
4, 36120, Note_on_c, 0, 57, 62
4, 36240, Note_on_c, 0, 57, 0
4, 36240, Note_on_c, 0, 57, 88
4, 36360, Note_on_c, 0, 57, 0
4, 36360, Note_on_c, 0, 54, 62
4, 36960, Note_on_c, 0, 54, 0
4, 36960, Note_on_c, 0, 51, 62
4, 36960, Note_on_c, 0, 54, 62
4, 36983, Note_on_c, 0, 54, 0
4, 36983, Note_on_c, 0, 51, 0
4, 37200, Note_on_c, 0, 59, 62
4, 37223, Note_on_c, 0, 59, 0
4, 37440, Note_on_c, 0, 63, 62
4, 37440, Note_on_c, 0, 66, 62
4, 37463, Note_on_c, 0, 66, 0
4, 37463, Note_on_c, 0, 63, 0
4, 37680, Note_on_c, 0, 71, 62
4, 37703, Note_on_c, 0, 71, 0
4, 37920, Note_on_c, 0, 64, 62
4, 37920, Note_on_c, 0, 68, 62
4, 38040, Note_on_c, 0, 68, 0
4, 38040, Note_on_c, 0, 64, 0
4, 38040, Note_on_c, 0, 71, 62
4, 38160, Note_on_c, 0, 71, 0
4, 38160, Note_on_c, 0, 63, 62
4, 38160, Note_on_c, 0, 66, 62
4, 38280, Note_on_c, 0, 66, 0
4, 38280, Note_on_c, 0, 63, 0
4, 38280, Note_on_c, 0, 71, 62
4, 38400, Note_on_c, 0, 71, 0
4, 38400, Note_on_c, 0, 64, 62
4, 38400, Note_on_c, 0, 68, 62
4, 38640, Note_on_c, 0, 68, 0
4, 38640, Note_on_c, 0, 64, 0
4, 38880, Note_on_c, 0, 66, 88
4, 39000, Note_on_c, 0, 66, 0
4, 39000, Note_on_c, 0, 64, 62
4, 39120, Note_on_c, 0, 64, 0
4, 39120, Note_on_c, 0, 66, 88
4, 39240, Note_on_c, 0, 66, 0
4, 39240, Note_on_c, 0, 64, 62
4, 39360, Note_on_c, 0, 64, 0
4, 39360, Note_on_c, 0, 64, 88
4, 39480, Note_on_c, 0, 64, 0
4, 39480, Note_on_c, 0, 62, 62
4, 39600, Note_on_c, 0, 62, 0
4, 39600, Note_on_c, 0, 62, 88
4, 39720, Note_on_c, 0, 62, 0
4, 39720, Note_on_c, 0, 59, 62
4, 39840, Note_on_c, 0, 59, 0
4, 39840, Note_on_c, 0, 62, 88
4, 39960, Note_on_c, 0, 62, 0
4, 39960, Note_on_c, 0, 60, 62
4, 40080, Note_on_c, 0, 60, 0
4, 40080, Note_on_c, 0, 60, 88
4, 40200, Note_on_c, 0, 60, 0
4, 40200, Note_on_c, 0, 59, 62
4, 40320, Note_on_c, 0, 59, 0
4, 40320, Note_on_c, 0, 59, 88
4, 40440, Note_on_c, 0, 59, 0
4, 40440, Note_on_c, 0, 57, 62
4, 40560, Note_on_c, 0, 57, 0
4, 40560, Note_on_c, 0, 57, 88
4, 40680, Note_on_c, 0, 57, 0
4, 40680, Note_on_c, 0, 54, 62
4, 41280, Note_on_c, 0, 54, 0
4, 41280, Note_on_c, 0, 51, 88
4, 41280, Note_on_c, 0, 54, 88
4, 41303, Note_on_c, 0, 54, 0
4, 41303, Note_on_c, 0, 51, 0
4, 41760, Note_on_c, 0, 47, 88
4, 42480, Note_on_c, 0, 47, 0
4, 42480, Note_on_c, 0, 52, 62
4, 42480, Note_on_c, 0, 56, 62
4, 42720, Note_on_c, 0, 56, 0
4, 42720, Note_on_c, 0, 59, 62
4, 42743, Note_on_c, 0, 59, 0
4, 42743, Note_on_c, 0, 52, 0
4, 42960, Note_on_c, 0, 52, 62
4, 42960, Note_on_c, 0, 56, 62
4, 42983, Note_on_c, 0, 56, 0
4, 42983, Note_on_c, 0, 52, 0
4, 43200, Note_on_c, 0, 47, 88
4, 43680, Note_on_c, 0, 47, 0
4, 43680, Control_c, 0, 64, 127
4, 43680, Note_on_c, 0, 54, 62
4, 43680, Note_on_c, 0, 63, 62
4, 43740, Note_on_c, 0, 63, 0
4, 43740, Note_on_c, 0, 54, 0
4, 43740, Note_on_c, 0, 64, 62
4, 43800, Note_on_c, 0, 64, 0
4, 43800, Note_on_c, 0, 63, 62
4, 43860, Note_on_c, 0, 63, 0
4, 43860, Note_on_c, 0, 64, 62
4, 43920, Note_on_c, 0, 64, 0
4, 43920, Note_on_c, 0, 61, 62
4, 44040, Note_on_c, 0, 61, 0
4, 44040, Control_c, 0, 64, 0
4, 44040, Note_on_c, 0, 63, 62
4, 44160, Note_on_c, 0, 63, 0
4, 44160, Control_c, 0, 64, 127
4, 44160, Note_on_c, 0, 56, 62
4, 44160, Note_on_c, 0, 64, 62
4, 44280, Note_on_c, 0, 64, 0
4, 44280, Note_on_c, 0, 56, 0
4, 44280, Note_on_c, 0, 63, 62
4, 44400, Note_on_c, 0, 63, 0
4, 44400, Note_on_c, 0, 61, 62
4, 44520, Note_on_c, 0, 61, 0
4, 44520, Control_c, 0, 64, 0
4, 44520, Note_on_c, 0, 59, 62
4, 44640, Note_on_c, 0, 59, 0
4, 44640, Control_c, 0, 64, 127
4, 44640, Note_on_c, 0, 61, 62
4, 44760, Note_on_c, 0, 61, 0
4, 44760, Note_on_c, 0, 59, 62
4, 44880, Note_on_c, 0, 59, 0
4, 44880, Note_on_c, 0, 57, 62
4, 45000, Note_on_c, 0, 57, 0
4, 45000, Control_c, 0, 64, 0
4, 45000, Note_on_c, 0, 56, 62
4, 45120, Note_on_c, 0, 56, 0
4, 45120, Note_on_c, 0, 52, 62
4, 45120, Note_on_c, 0, 54, 62
4, 45143, Note_on_c, 0, 54, 0
4, 45143, Note_on_c, 0, 52, 0
4, 45360, Note_on_c, 0, 61, 62
4, 45383, Note_on_c, 0, 61, 0
4, 45600, Note_on_c, 0, 51, 62
4, 45600, Note_on_c, 0, 54, 62
4, 45623, Note_on_c, 0, 54, 0
4, 45623, Note_on_c, 0, 51, 0
4, 45840, Note_on_c, 0, 59, 62
4, 45863, Note_on_c, 0, 59, 0
4, 46080, Control_c, 0, 64, 127
4, 46080, Note_on_c, 0, 56, 62
4, 46200, Note_on_c, 0, 56, 0
4, 46200, Note_on_c, 0, 54, 62
4, 46320, Note_on_c, 0, 54, 0
4, 46320, Note_on_c, 0, 56, 62
4, 46440, Note_on_c, 0, 56, 0
4, 46440, Note_on_c, 0, 57, 62
4, 46560, Note_on_c, 0, 57, 0
4, 46560, Note_on_c, 0, 61, 62
4, 46680, Note_on_c, 0, 61, 0
4, 46680, Note_on_c, 0, 59, 62
4, 46800, Note_on_c, 0, 59, 0
4, 46800, Note_on_c, 0, 57, 62
4, 46920, Note_on_c, 0, 57, 0
4, 46920, Control_c, 0, 64, 0
4, 46920, Note_on_c, 0, 56, 62
4, 47040, Note_on_c, 0, 56, 0
4, 47040, Control_c, 0, 64, 127
4, 47040, Note_on_c, 0, 54, 62
4, 47160, Note_on_c, 0, 54, 0
4, 47160, Note_on_c, 0, 56, 62
4, 47280, Note_on_c, 0, 56, 0
4, 47280, Note_on_c, 0, 57, 62
4, 47400, Note_on_c, 0, 57, 0
4, 47400, Control_c, 0, 64, 0
4, 47400, Note_on_c, 0, 61, 62
4, 47520, Note_on_c, 0, 61, 0
4, 47520, Control_c, 0, 64, 127
4, 47520, Note_on_c, 0, 51, 62
4, 47640, Note_on_c, 0, 51, 0
4, 47640, Note_on_c, 0, 52, 62
4, 47760, Note_on_c, 0, 52, 0
4, 47760, Note_on_c, 0, 54, 62
4, 47880, Note_on_c, 0, 54, 0
4, 47880, Control_c, 0, 64, 0
4, 47880, Note_on_c, 0, 59, 62
4, 48000, Note_on_c, 0, 59, 0
4, 48000, Note_on_c, 0, 52, 62
4, 48000, Note_on_c, 0, 56, 62
4, 48023, Note_on_c, 0, 56, 0
4, 48023, Note_on_c, 0, 52, 0
4, 48240, Note_on_c, 0, 52, 62
4, 48240, Note_on_c, 0, 56, 62
4, 48480, Note_on_c, 0, 56, 0
4, 48480, Note_on_c, 0, 59, 62
4, 48503, Note_on_c, 0, 59, 0
4, 48503, Note_on_c, 0, 52, 0
4, 48720, Note_on_c, 0, 52, 62
4, 48720, Note_on_c, 0, 56, 62
4, 48743, Note_on_c, 0, 56, 0
4, 48743, Note_on_c, 0, 52, 0
4, 48960, Note_on_c, 0, 51, 88
4, 48960, Note_on_c, 0, 54, 88
4, 48960, Note_on_c, 0, 59, 88
4, 49680, Note_on_c, 0, 59, 0
4, 49680, Note_on_c, 0, 54, 0
4, 49680, Note_on_c, 0, 51, 0
4, 49680, Note_on_c, 0, 59, 62
4, 49680, Note_on_c, 0, 66, 62
4, 49680, Note_on_c, 0, 69, 62
4, 49920, Note_on_c, 0, 69, 0
4, 49920, Note_on_c, 0, 66, 0
4, 49920, Note_on_c, 0, 64, 62
4, 49920, Note_on_c, 0, 68, 62
4, 50160, Note_on_c, 0, 68, 0
4, 50160, Note_on_c, 0, 64, 0
4, 50160, Note_on_c, 0, 59, 0
4, 50160, Note_on_c, 0, 64, 62
4, 50280, Note_on_c, 0, 64, 0
4, 50280, Note_on_c, 0, 66, 62
4, 50400, Note_on_c, 0, 66, 0
4, 50400, Note_on_c, 0, 68, 62
4, 50423, Note_on_c, 0, 68, 0
4, 50640, Note_on_c, 0, 64, 62
4, 50663, Note_on_c, 0, 64, 0
4, 50880, Note_on_c, 0, 59, 88
4, 51600, Note_on_c, 0, 59, 0
4, 51600, Note_on_c, 0, 59, 75
4, 51600, Note_on_c, 0, 66, 75
4, 51600, Note_on_c, 0, 69, 75
4, 51840, Note_on_c, 0, 69, 0
4, 51840, Note_on_c, 0, 66, 0
4, 51840, Note_on_c, 0, 64, 75
4, 51840, Note_on_c, 0, 68, 75
4, 52080, Note_on_c, 0, 68, 0
4, 52080, Note_on_c, 0, 64, 0
4, 52080, Note_on_c, 0, 59, 0
4, 52080, Note_on_c, 0, 64, 75
4, 52200, Note_on_c, 0, 64, 0
4, 52200, Note_on_c, 0, 66, 75
4, 52320, Note_on_c, 0, 66, 0
4, 52320, Note_on_c, 0, 68, 75
4, 52343, Note_on_c, 0, 68, 0
4, 52560, Note_on_c, 0, 64, 75
4, 52583, Note_on_c, 0, 64, 0
4, 52800, Note_on_c, 0, 73, 75
4, 52823, Note_on_c, 0, 73, 0
4, 53040, Note_on_c, 0, 73, 101
4, 53160, Note_on_c, 0, 73, 0
4, 53160, Note_on_c, 0, 71, 75
4, 53280, Note_on_c, 0, 71, 0
4, 53280, Note_on_c, 0, 71, 101
4, 53400, Note_on_c, 0, 71, 0
4, 53400, Note_on_c, 0, 69, 75
4, 53520, Note_on_c, 0, 69, 0
4, 53520, Note_on_c, 0, 69, 101
4, 53640, Note_on_c, 0, 69, 0
4, 53640, Note_on_c, 0, 66, 75
4, 53760, Note_on_c, 0, 66, 0
4, 53760, Note_on_c, 0, 64, 75
4, 53783, Note_on_c, 0, 64, 0
4, 54000, Note_on_c, 0, 64, 75
4, 54120, Note_on_c, 0, 64, 0
4, 54120, Note_on_c, 0, 66, 75
4, 54240, Note_on_c, 0, 66, 0
4, 54240, Note_on_c, 0, 68, 75
4, 54263, Note_on_c, 0, 68, 0
4, 54480, Note_on_c, 0, 64, 75
4, 54503, Note_on_c, 0, 64, 0
4, 54720, Note_on_c, 0, 73, 75
4, 54743, Note_on_c, 0, 73, 0
4, 54960, Note_on_c, 0, 73, 101
4, 55080, Note_on_c, 0, 73, 0
4, 55080, Note_on_c, 0, 71, 75
4, 55200, Note_on_c, 0, 71, 0
4, 55200, Note_on_c, 0, 71, 101
4, 55320, Note_on_c, 0, 71, 0
4, 55320, Note_on_c, 0, 69, 75
4, 55440, Note_on_c, 0, 69, 0
4, 55440, Note_on_c, 0, 69, 101
4, 55560, Note_on_c, 0, 69, 0
4, 55560, Note_on_c, 0, 66, 75
4, 55680, Note_on_c, 0, 66, 0
4, 55680, Note_on_c, 0, 64, 75
4, 55703, Note_on_c, 0, 64, 0
4, 55920, Note_on_c, 0, 59, 75
4, 55920, Note_on_c, 0, 68, 75
4, 55943, Note_on_c, 0, 68, 0
4, 55943, Note_on_c, 0, 59, 0
4, 56160, Note_on_c, 0, 56, 75
4, 56160, Note_on_c, 0, 64, 75
4, 56183, Note_on_c, 0, 64, 0
4, 56183, Note_on_c, 0, 56, 0
4, 56640, Note_on_c, 0, 47, 75
4, 56663, Note_on_c, 0, 47, 0
4, 56880, Note_on_c, 0, 49, 75
4, 56903, Note_on_c, 0, 49, 0
4, 57120, Note_on_c, 0, 51, 101
4, 57600, Note_on_c, 0, 51, 0
4, 57600, Note_on_c, 0, 52, 101
4, 58080, Note_on_c, 0, 52, 0
4, 58080, Note_on_c, 0, 47, 101
4, 58560, Note_on_c, 0, 47, 0
4, 58560, Note_on_c, 0, 52, 75
4, 58560, Note_on_c, 0, 64, 75
4, 58583, Note_on_c, 0, 64, 0
4, 58583, Note_on_c, 0, 52, 0
4, 58800, Note_on_c, 0, 54, 75
4, 58800, Note_on_c, 0, 66, 75
4, 58823, Note_on_c, 0, 66, 0
4, 58823, Note_on_c, 0, 54, 0
4, 59040, Note_on_c, 0, 55, 101
4, 59040, Note_on_c, 0, 58, 101
4, 59040, Note_on_c, 0, 61, 101
4, 59040, Note_on_c, 0, 67, 101
4, 59520, Note_on_c, 0, 67, 0
4, 59520, Note_on_c, 0, 55, 0
4, 59520, Note_on_c, 0, 58, 0
4, 59520, Note_on_c, 0, 61, 0
4, 59520, Note_on_c, 0, 54, 101
4, 59520, Note_on_c, 0, 59, 101
4, 59520, Note_on_c, 0, 62, 101
4, 59520, Note_on_c, 0, 66, 101
4, 60000, Note_on_c, 0, 66, 0
4, 60000, Note_on_c, 0, 54, 0
4, 60000, Note_on_c, 0, 59, 0
4, 60000, Note_on_c, 0, 62, 0
4, 60000, Note_on_c, 0, 59, 75
4, 60000, Note_on_c, 0, 62, 75
4, 60000, Note_on_c, 0, 66, 75
4, 60023, Note_on_c, 0, 66, 0
4, 60023, Note_on_c, 0, 62, 0
4, 60023, Note_on_c, 0, 59, 0
4, 60240, Note_on_c, 0, 59, 75
4, 60240, Note_on_c, 0, 62, 75
4, 60240, Note_on_c, 0, 66, 75
4, 60263, Note_on_c, 0, 66, 0
4, 60263, Note_on_c, 0, 62, 0
4, 60263, Note_on_c, 0, 59, 0
4, 60480, Note_on_c, 0, 57, 101
4, 60480, Note_on_c, 0, 66, 101
4, 60600, Note_on_c, 0, 66, 0
4, 60600, Note_on_c, 0, 57, 0
4, 60600, Note_on_c, 0, 64, 75
4, 60720, Note_on_c, 0, 64, 0
4, 60720, Note_on_c, 0, 64, 101
4, 60840, Note_on_c, 0, 64, 0
4, 60840, Note_on_c, 0, 62, 75
4, 60960, Note_on_c, 0, 62, 0
4, 60960, Note_on_c, 0, 59, 75
4, 60960, Note_on_c, 0, 62, 75
4, 61440, Note_on_c, 0, 62, 0
4, 61440, Note_on_c, 0, 59, 0
4, 61440, Note_on_c, 0, 55, 75
4, 61440, Note_on_c, 0, 61, 75
4, 61440, Note_on_c, 0, 64, 75
4, 61920, Note_on_c, 0, 64, 0
4, 61920, Note_on_c, 0, 61, 0
4, 61920, Note_on_c, 0, 55, 0
4, 61920, Note_on_c, 0, 55, 75
4, 61920, Note_on_c, 0, 61, 75
4, 61920, Note_on_c, 0, 64, 75
4, 62160, Note_on_c, 0, 64, 0
4, 62160, Note_on_c, 0, 61, 0
4, 62160, Note_on_c, 0, 55, 0
4, 62160, Note_on_c, 0, 55, 75
4, 62160, Note_on_c, 0, 61, 75
4, 62160, Note_on_c, 0, 64, 75
4, 62400, Note_on_c, 0, 64, 0
4, 62400, Note_on_c, 0, 61, 0
4, 62400, Note_on_c, 0, 55, 0
4, 62400, Note_on_c, 0, 54, 75
4, 62400, Note_on_c, 0, 61, 75
4, 62400, Note_on_c, 0, 64, 75
4, 62520, Note_on_c, 0, 64, 0
4, 62520, Note_on_c, 0, 61, 0
4, 62520, Note_on_c, 0, 54, 0
4, 62520, Note_on_c, 0, 59, 75
4, 62520, Note_on_c, 0, 62, 75
4, 62640, Note_on_c, 0, 62, 0
4, 62640, Note_on_c, 0, 59, 0
4, 62640, Note_on_c, 0, 59, 75
4, 62640, Note_on_c, 0, 62, 75
4, 62760, Note_on_c, 0, 62, 0
4, 62760, Note_on_c, 0, 59, 0
4, 62760, Note_on_c, 0, 58, 75
4, 62760, Note_on_c, 0, 61, 75
4, 62880, Note_on_c, 0, 61, 0
4, 62880, Note_on_c, 0, 58, 0
4, 62880, Note_on_c, 0, 54, 75
4, 62880, Note_on_c, 0, 58, 75
4, 62880, Note_on_c, 0, 61, 75
4, 63360, Note_on_c, 0, 61, 0
4, 63360, Note_on_c, 0, 58, 0
4, 63360, Note_on_c, 0, 54, 0
4, 63360, Note_on_c, 0, 54, 75
4, 63360, Note_on_c, 0, 59, 75
4, 63360, Note_on_c, 0, 62, 75
4, 63840, Note_on_c, 0, 62, 0
4, 63840, Note_on_c, 0, 59, 0
4, 63840, Note_on_c, 0, 54, 0
4, 63840, Note_on_c, 0, 59, 75
4, 64080, Note_on_c, 0, 59, 0
4, 64080, Note_on_c, 0, 59, 75
4, 64320, Note_on_c, 0, 59, 0
4, 64320, Note_on_c, 0, 63, 75
4, 64320, Note_on_c, 0, 66, 75
4, 64320, Note_on_c, 0, 71, 75
4, 64343, Note_on_c, 0, 71, 0
4, 64343, Note_on_c, 0, 66, 0
4, 64343, Note_on_c, 0, 63, 0
4, 64560, Note_on_c, 0, 64, 75
4, 64560, Note_on_c, 0, 71, 75
4, 64560, Note_on_c, 0, 73, 75
4, 64583, Note_on_c, 0, 73, 0
4, 64583, Note_on_c, 0, 71, 0
4, 64583, Note_on_c, 0, 64, 0
4, 64800, Note_on_c, 0, 66, 101
4, 64800, Note_on_c, 0, 71, 101
4, 64800, Note_on_c, 0, 75, 101
4, 65280, Note_on_c, 0, 75, 0
4, 65280, Note_on_c, 0, 71, 0
4, 65280, Note_on_c, 0, 66, 0
4, 65280, Note_on_c, 0, 64, 101
4, 65280, Note_on_c, 0, 71, 101
4, 65280, Note_on_c, 0, 76, 101
4, 65760, Note_on_c, 0, 76, 0
4, 65760, Note_on_c, 0, 71, 0
4, 65760, Note_on_c, 0, 64, 0
4, 65760, Note_on_c, 0, 69, 75
4, 65760, Note_on_c, 0, 76, 75
4, 65783, Note_on_c, 0, 76, 0
4, 65783, Note_on_c, 0, 69, 0
4, 66000, Note_on_c, 0, 76, 75
4, 66023, Note_on_c, 0, 76, 0
4, 66240, Note_on_c, 0, 67, 75
4, 66240, Note_on_c, 0, 76, 75
4, 66360, Note_on_c, 0, 76, 0
4, 66360, Note_on_c, 0, 67, 0
4, 66360, Note_on_c, 0, 74, 75
4, 66480, Note_on_c, 0, 74, 0
4, 66480, Note_on_c, 0, 66, 75
4, 66480, Note_on_c, 0, 74, 75
4, 66600, Note_on_c, 0, 74, 0
4, 66600, Note_on_c, 0, 66, 0
4, 66600, Note_on_c, 0, 73, 75
4, 66720, Note_on_c, 0, 73, 0
4, 66720, Note_on_c, 0, 64, 75
4, 66720, Note_on_c, 0, 73, 75
4, 67200, Note_on_c, 0, 73, 0
4, 67200, Note_on_c, 0, 64, 0
4, 67200, Note_on_c, 0, 66, 75
4, 67200, Note_on_c, 0, 74, 75
4, 67680, Note_on_c, 0, 74, 0
4, 67680, Note_on_c, 0, 66, 0
4, 67680, Note_on_c, 0, 66, 75
4, 67680, Note_on_c, 0, 74, 75
4, 67703, Note_on_c, 0, 74, 0
4, 67703, Note_on_c, 0, 66, 0
4, 67920, Note_on_c, 0, 66, 75
4, 67920, Note_on_c, 0, 74, 75
4, 67943, Note_on_c, 0, 74, 0
4, 67943, Note_on_c, 0, 66, 0
4, 68160, Note_on_c, 0, 66, 75
4, 68160, Note_on_c, 0, 74, 75
4, 68280, Note_on_c, 0, 74, 0
4, 68280, Note_on_c, 0, 66, 0
4, 68280, Note_on_c, 0, 73, 75
4, 68400, Note_on_c, 0, 73, 0
4, 68400, Note_on_c, 0, 64, 75
4, 68400, Note_on_c, 0, 73, 75
4, 68520, Note_on_c, 0, 73, 0
4, 68520, Note_on_c, 0, 64, 0
4, 68520, Note_on_c, 0, 71, 75
4, 68640, Note_on_c, 0, 71, 0
4, 68640, Note_on_c, 0, 62, 75
4, 68640, Note_on_c, 0, 71, 75
4, 69120, Note_on_c, 0, 71, 0
4, 69120, Note_on_c, 0, 62, 0
4, 69120, Note_on_c, 0, 64, 75
4, 69120, Note_on_c, 0, 67, 75
4, 69120, Note_on_c, 0, 73, 75
4, 69600, Note_on_c, 0, 73, 0
4, 69600, Note_on_c, 0, 67, 0
4, 69600, Note_on_c, 0, 64, 0
4, 69600, Note_on_c, 0, 64, 75
4, 69600, Note_on_c, 0, 67, 75
4, 69600, Note_on_c, 0, 73, 75
4, 69623, Note_on_c, 0, 73, 0
4, 69623, Note_on_c, 0, 67, 0
4, 69623, Note_on_c, 0, 64, 0
4, 69840, Note_on_c, 0, 64, 75
4, 69840, Note_on_c, 0, 67, 75
4, 69840, Note_on_c, 0, 73, 75
4, 69863, Note_on_c, 0, 73, 0
4, 69863, Note_on_c, 0, 67, 0
4, 69863, Note_on_c, 0, 64, 0
4, 70080, Note_on_c, 0, 58, 75
4, 70080, Note_on_c, 0, 66, 75
4, 70103, Note_on_c, 0, 66, 0
4, 70103, Note_on_c, 0, 58, 0
4, 70320, Note_on_c, 0, 59, 75
4, 70320, Note_on_c, 0, 64, 75
4, 70320, Note_on_c, 0, 68, 75
4, 70343, Note_on_c, 0, 68, 0
4, 70343, Note_on_c, 0, 64, 0
4, 70343, Note_on_c, 0, 59, 0
4, 70560, Note_on_c, 0, 61, 75
4, 70560, Note_on_c, 0, 64, 75
4, 70560, Note_on_c, 0, 70, 75
4, 71040, Note_on_c, 0, 70, 0
4, 71040, Note_on_c, 0, 64, 0
4, 71040, Note_on_c, 0, 61, 0
4, 71040, Note_on_c, 0, 59, 75
4, 71040, Note_on_c, 0, 62, 75
4, 71040, Note_on_c, 0, 71, 75
4, 71520, Note_on_c, 0, 71, 0
4, 71520, Note_on_c, 0, 62, 0
4, 71520, Note_on_c, 0, 59, 0
4, 71520, Note_on_c, 0, 59, 75
4, 71520, Note_on_c, 0, 71, 75
4, 71543, Note_on_c, 0, 71, 0
4, 71543, Note_on_c, 0, 59, 0
4, 71760, Note_on_c, 0, 59, 75
4, 71760, Note_on_c, 0, 71, 75
4, 71783, Note_on_c, 0, 71, 0
4, 71783, Note_on_c, 0, 59, 0
4, 72000, Note_on_c, 0, 64, 75
4, 72000, Note_on_c, 0, 69, 75
4, 72360, Note_on_c, 0, 69, 0
4, 72360, Note_on_c, 0, 64, 0
4, 72360, Note_on_c, 0, 71, 75
4, 72480, Note_on_c, 0, 71, 0
4, 72480, Note_on_c, 0, 72, 75
4, 72503, Note_on_c, 0, 72, 0
4, 72720, Note_on_c, 0, 69, 62
4, 73200, Note_on_c, 0, 69, 0
4, 73200, Note_on_c, 0, 68, 62
4, 73320, Note_on_c, 0, 68, 0
4, 73320, Note_on_c, 0, 69, 62
4, 73440, Note_on_c, 0, 69, 0
4, 73440, Note_on_c, 0, 71, 62
4, 73560, Note_on_c, 0, 71, 0
4, 73560, Note_on_c, 0, 69, 62
4, 73680, Note_on_c, 0, 69, 0
4, 73680, Note_on_c, 0, 68, 62
4, 73800, Note_on_c, 0, 68, 0
4, 73800, Note_on_c, 0, 69, 62
4, 73920, Note_on_c, 0, 69, 0
4, 73920, Note_on_c, 0, 64, 75
4, 73920, Note_on_c, 0, 67, 75
4, 74280, Note_on_c, 0, 67, 0
4, 74280, Note_on_c, 0, 64, 0
4, 74280, Note_on_c, 0, 69, 75
4, 74400, Note_on_c, 0, 69, 0
4, 74400, Note_on_c, 0, 71, 75
4, 74423, Note_on_c, 0, 71, 0
4, 74640, Note_on_c, 0, 67, 62
4, 75120, Note_on_c, 0, 67, 0
4, 75120, Note_on_c, 0, 66, 62
4, 75240, Note_on_c, 0, 66, 0
4, 75240, Note_on_c, 0, 67, 62
4, 75360, Note_on_c, 0, 67, 0
4, 75360, Note_on_c, 0, 69, 62
4, 75480, Note_on_c, 0, 69, 0
4, 75480, Note_on_c, 0, 67, 62
4, 75600, Note_on_c, 0, 67, 0
4, 75600, Note_on_c, 0, 66, 62
4, 75720, Note_on_c, 0, 66, 0
4, 75720, Note_on_c, 0, 67, 62
4, 75840, Note_on_c, 0, 67, 0
4, 75840, Note_on_c, 0, 63, 62
4, 75840, Note_on_c, 0, 66, 62
4, 76320, Note_on_c, 0, 66, 0
4, 76320, Note_on_c, 0, 63, 0
4, 76320, Note_on_c, 0, 71, 62
4, 76343, Note_on_c, 0, 71, 0
4, 76560, Note_on_c, 0, 66, 62
4, 76583, Note_on_c, 0, 66, 0
4, 76800, Note_on_c, 0, 71, 62
4, 76823, Note_on_c, 0, 71, 0
4, 77040, Note_on_c, 0, 66, 62
4, 77063, Note_on_c, 0, 66, 0
4, 77280, Note_on_c, 0, 71, 62
4, 77303, Note_on_c, 0, 71, 0
4, 77520, Note_on_c, 0, 66, 62
4, 77543, Note_on_c, 0, 66, 0
4, 77760, Note_on_c, 0, 71, 62
4, 77783, Note_on_c, 0, 71, 0
4, 78240, Note_on_c, 0, 57, 62
4, 78240, Note_on_c, 0, 63, 62
4, 78720, Note_on_c, 0, 63, 0
4, 78720, Note_on_c, 0, 57, 0
4, 78720, Note_on_c, 0, 55, 62
4, 78720, Note_on_c, 0, 64, 62
4, 78743, Note_on_c, 0, 64, 0
4, 78743, Note_on_c, 0, 55, 0
4, 78960, Note_on_c, 0, 57, 62
4, 78960, Note_on_c, 0, 63, 62
4, 79080, Note_on_c, 0, 63, 0
4, 79080, Note_on_c, 0, 57, 0
4, 79080, Note_on_c, 0, 66, 62
4, 79200, Note_on_c, 0, 66, 0
4, 79200, Note_on_c, 0, 55, 62
4, 79200, Note_on_c, 0, 64, 62
4, 79223, Note_on_c, 0, 64, 0
4, 79223, Note_on_c, 0, 55, 0
4, 79680, Control_c, 0, 64, 127
4, 79680, Note_on_c, 0, 64, 62
4, 79680, Note_on_c, 0, 69, 62
4, 79800, Note_on_c, 0, 69, 0
4, 79800, Note_on_c, 0, 64, 0
4, 79800, Note_on_c, 0, 66, 62
4, 79920, Note_on_c, 0, 66, 0
4, 79920, Note_on_c, 0, 64, 62
4, 80040, Note_on_c, 0, 64, 0
4, 80040, Note_on_c, 0, 63, 62
4, 80160, Note_on_c, 0, 63, 0
4, 80160, Note_on_c, 0, 64, 62
4, 80280, Note_on_c, 0, 64, 0
4, 80280, Note_on_c, 0, 62, 62
4, 80400, Note_on_c, 0, 62, 0
4, 80400, Note_on_c, 0, 60, 62
4, 80520, Note_on_c, 0, 60, 0
4, 80520, Note_on_c, 0, 66, 62
4, 80640, Note_on_c, 0, 66, 0
4, 80640, Note_on_c, 0, 64, 62
4, 80760, Note_on_c, 0, 64, 0
4, 80760, Note_on_c, 0, 60, 62
4, 80880, Note_on_c, 0, 60, 0
4, 80880, Note_on_c, 0, 66, 62
4, 81000, Note_on_c, 0, 66, 0
4, 81000, Note_on_c, 0, 64, 62
4, 81120, Note_on_c, 0, 64, 0
4, 81120, Note_on_c, 0, 60, 62
4, 81240, Note_on_c, 0, 60, 0
4, 81240, Note_on_c, 0, 66, 62
4, 81360, Note_on_c, 0, 66, 0
4, 81360, Note_on_c, 0, 64, 62
4, 81480, Note_on_c, 0, 64, 0
4, 81480, Control_c, 0, 64, 0
4, 81480, Note_on_c, 0, 60, 62
4, 81600, Note_on_c, 0, 60, 0
4, 81600, Control_c, 0, 64, 127
4, 81600, Note_on_c, 0, 64, 62
4, 81600, Note_on_c, 0, 67, 62
4, 81720, Note_on_c, 0, 67, 0
4, 81720, Note_on_c, 0, 64, 0
4, 81720, Note_on_c, 0, 66, 62
4, 81840, Note_on_c, 0, 66, 0
4, 81840, Note_on_c, 0, 64, 62
4, 81960, Note_on_c, 0, 64, 0
4, 81960, Note_on_c, 0, 63, 62
4, 82080, Note_on_c, 0, 63, 0
4, 82080, Note_on_c, 0, 64, 62
4, 82200, Note_on_c, 0, 64, 0
4, 82200, Note_on_c, 0, 61, 62
4, 82320, Note_on_c, 0, 61, 0
4, 82320, Note_on_c, 0, 59, 62
4, 82440, Note_on_c, 0, 59, 0
4, 82440, Note_on_c, 0, 66, 62
4, 82560, Note_on_c, 0, 66, 0
4, 82560, Note_on_c, 0, 64, 62
4, 82680, Note_on_c, 0, 64, 0
4, 82680, Note_on_c, 0, 59, 62
4, 82800, Note_on_c, 0, 59, 0
4, 82800, Note_on_c, 0, 66, 62
4, 82920, Note_on_c, 0, 66, 0
4, 82920, Note_on_c, 0, 64, 62
4, 83040, Note_on_c, 0, 64, 0
4, 83040, Note_on_c, 0, 61, 62
4, 83160, Note_on_c, 0, 61, 0
4, 83160, Note_on_c, 0, 66, 62
4, 83280, Note_on_c, 0, 66, 0
4, 83280, Note_on_c, 0, 64, 62
4, 83400, Note_on_c, 0, 64, 0
4, 83400, Control_c, 0, 64, 0
4, 83400, Note_on_c, 0, 61, 62
4, 83520, Note_on_c, 0, 61, 0
4, 83520, Control_c, 0, 64, 127
4, 83520, Note_on_c, 0, 63, 62
4, 83640, Note_on_c, 0, 63, 0
4, 83640, Note_on_c, 0, 59, 62
4, 83760, Note_on_c, 0, 59, 0
4, 83760, Note_on_c, 0, 63, 62
4, 83880, Note_on_c, 0, 63, 0
4, 83880, Note_on_c, 0, 66, 62
4, 84000, Note_on_c, 0, 66, 0
4, 84000, Control_c, 0, 64, 0
4, 84000, Note_on_c, 0, 71, 62
4, 84023, Note_on_c, 0, 71, 0
4, 84240, Note_on_c, 0, 66, 62
4, 84263, Note_on_c, 0, 66, 0
4, 84480, Note_on_c, 0, 71, 62
4, 84503, Note_on_c, 0, 71, 0
4, 84720, Note_on_c, 0, 66, 62
4, 84743, Note_on_c, 0, 66, 0
4, 84960, Note_on_c, 0, 71, 75
4, 84983, Note_on_c, 0, 71, 0
4, 85200, Note_on_c, 0, 66, 75
4, 85223, Note_on_c, 0, 66, 0
4, 85440, Note_on_c, 0, 59, 75
4, 85440, Note_on_c, 0, 71, 75
4, 85463, Note_on_c, 0, 71, 0
4, 85463, Note_on_c, 0, 59, 0
4, 85920, Note_on_c, 0, 47, 101
4, 86400, Note_on_c, 0, 47, 0
4, 86640, Note_on_c, 0, 52, 75
4, 86640, Note_on_c, 0, 56, 75
4, 86880, Note_on_c, 0, 56, 0
4, 86880, Note_on_c, 0, 59, 75
4, 86903, Note_on_c, 0, 59, 0
4, 86903, Note_on_c, 0, 52, 0
4, 87120, Note_on_c, 0, 52, 75
4, 87120, Note_on_c, 0, 56, 75
4, 87143, Note_on_c, 0, 56, 0
4, 87143, Note_on_c, 0, 52, 0
4, 87360, Note_on_c, 0, 51, 75
4, 87360, Note_on_c, 0, 54, 75
4, 87840, Note_on_c, 0, 54, 0
4, 87840, Note_on_c, 0, 51, 0
4, 87960, Note_on_c, 0, 59, 75
4, 88080, Note_on_c, 0, 59, 0
4, 88080, Note_on_c, 0, 61, 75
4, 88200, Note_on_c, 0, 61, 0
4, 88200, Note_on_c, 0, 63, 75
4, 88320, Note_on_c, 0, 63, 0
4, 88320, Note_on_c, 0, 64, 75
4, 88440, Note_on_c, 0, 64, 0
4, 88440, Note_on_c, 0, 63, 75
4, 88560, Note_on_c, 0, 63, 0
4, 88560, Note_on_c, 0, 61, 75
4, 88680, Note_on_c, 0, 61, 0
4, 88680, Note_on_c, 0, 59, 75
4, 88800, Note_on_c, 0, 59, 0
4, 88800, Note_on_c, 0, 61, 75
4, 88920, Note_on_c, 0, 61, 0
4, 88920, Note_on_c, 0, 59, 75
4, 89040, Note_on_c, 0, 59, 0
4, 89040, Note_on_c, 0, 56, 75
4, 89160, Note_on_c, 0, 56, 0
4, 89160, Note_on_c, 0, 52, 75
4, 89280, Note_on_c, 0, 52, 0
4, 89520, Note_on_c, 0, 52, 75
4, 89520, Note_on_c, 0, 54, 75
4, 89520, Note_on_c, 0, 61, 75
4, 89760, Note_on_c, 0, 61, 0
4, 89760, Note_on_c, 0, 54, 0
4, 89760, Note_on_c, 0, 52, 0
4, 90000, Note_on_c, 0, 54, 75
4, 90000, Note_on_c, 0, 57, 75
4, 90000, Note_on_c, 0, 63, 75
4, 90240, Note_on_c, 0, 63, 0
4, 90240, Note_on_c, 0, 57, 0
4, 90240, Note_on_c, 0, 54, 0
4, 90480, Note_on_c, 0, 52, 75
4, 90480, Note_on_c, 0, 56, 75
4, 90720, Note_on_c, 0, 56, 0
4, 90720, Note_on_c, 0, 59, 75
4, 90743, Note_on_c, 0, 59, 0
4, 90743, Note_on_c, 0, 52, 0
4, 90960, Note_on_c, 0, 52, 75
4, 90960, Note_on_c, 0, 56, 75
4, 90983, Note_on_c, 0, 56, 0
4, 90983, Note_on_c, 0, 52, 0
4, 91200, Note_on_c, 0, 54, 75
4, 91320, Note_on_c, 0, 54, 0
4, 91320, Note_on_c, 0, 56, 75
4, 91440, Note_on_c, 0, 56, 0
4, 91440, Note_on_c, 0, 57, 75
4, 91560, Note_on_c, 0, 57, 0
4, 91560, Note_on_c, 0, 61, 75
4, 91680, Note_on_c, 0, 61, 0
4, 91680, Note_on_c, 0, 51, 75
4, 91800, Note_on_c, 0, 51, 0
4, 91800, Note_on_c, 0, 52, 75
4, 91920, Note_on_c, 0, 52, 0
4, 91920, Note_on_c, 0, 54, 75
4, 92040, Note_on_c, 0, 54, 0
4, 92040, Note_on_c, 0, 59, 75
4, 92160, Note_on_c, 0, 59, 0
4, 92160, Note_on_c, 0, 56, 75
4, 92280, Note_on_c, 0, 56, 0
4, 92280, Note_on_c, 0, 52, 75
4, 92400, Note_on_c, 0, 52, 0
4, 92400, Note_on_c, 0, 56, 75
4, 92520, Note_on_c, 0, 56, 0
4, 92520, Note_on_c, 0, 59, 75
4, 92640, Note_on_c, 0, 59, 0
4, 92640, Note_on_c, 0, 64, 75
4, 92760, Note_on_c, 0, 64, 0
4, 92760, Note_on_c, 0, 59, 75
4, 92880, Note_on_c, 0, 59, 0
4, 92880, Note_on_c, 0, 56, 75
4, 93000, Note_on_c, 0, 56, 0
4, 93000, Note_on_c, 0, 52, 75
4, 93120, Note_on_c, 0, 52, 0
4, 93120, Note_on_c, 0, 51, 101
4, 93120, Note_on_c, 0, 54, 101
4, 93600, Note_on_c, 0, 54, 0
4, 93600, Note_on_c, 0, 51, 0
4, 93720, Note_on_c, 0, 59, 75
4, 93840, Note_on_c, 0, 59, 0
4, 93840, Note_on_c, 0, 61, 75
4, 93960, Note_on_c, 0, 61, 0
4, 93960, Note_on_c, 0, 63, 75
4, 94080, Note_on_c, 0, 63, 0
4, 94080, Note_on_c, 0, 64, 75
4, 94200, Note_on_c, 0, 64, 0
4, 94200, Note_on_c, 0, 59, 75
4, 94320, Note_on_c, 0, 59, 0
4, 94320, Note_on_c, 0, 57, 75
4, 94440, Note_on_c, 0, 57, 0
4, 94440, Note_on_c, 0, 56, 75
4, 94560, Note_on_c, 0, 56, 0
4, 94560, Note_on_c, 0, 64, 75
4, 94680, Note_on_c, 0, 64, 0
4, 94680, Note_on_c, 0, 59, 75
4, 94800, Note_on_c, 0, 59, 0
4, 94800, Note_on_c, 0, 56, 75
4, 94920, Note_on_c, 0, 56, 0
4, 94920, Note_on_c, 0, 52, 75
4, 95040, Note_on_c, 0, 52, 0
4, 95040, Note_on_c, 0, 51, 75
4, 95040, Note_on_c, 0, 54, 75
4, 95280, Note_on_c, 0, 54, 0
4, 95280, Note_on_c, 0, 51, 0
4, 95280, Control_c, 0, 64, 127
4, 95280, Note_on_c, 0, 57, 75
4, 95280, Note_on_c, 0, 63, 75
4, 95340, Note_on_c, 0, 63, 0
4, 95340, Note_on_c, 0, 57, 0
4, 95340, Note_on_c, 0, 64, 75
4, 95400, Note_on_c, 0, 64, 0
4, 95400, Note_on_c, 0, 63, 75
4, 95460, Note_on_c, 0, 63, 0
4, 95460, Note_on_c, 0, 64, 75
4, 95520, Note_on_c, 0, 64, 0
4, 95520, Note_on_c, 0, 63, 75
4, 95580, Note_on_c, 0, 63, 0
4, 95580, Note_on_c, 0, 64, 75
4, 95640, Note_on_c, 0, 64, 0
4, 95640, Note_on_c, 0, 63, 75
4, 95700, Note_on_c, 0, 63, 0
4, 95700, Note_on_c, 0, 64, 75
4, 95760, Note_on_c, 0, 64, 0
4, 95760, Note_on_c, 0, 63, 75
4, 95820, Note_on_c, 0, 63, 0
4, 95820, Note_on_c, 0, 64, 75
4, 95880, Note_on_c, 0, 64, 0
4, 95880, Note_on_c, 0, 63, 75
4, 95940, Note_on_c, 0, 63, 0
4, 95940, Control_c, 0, 64, 0
4, 95940, Note_on_c, 0, 64, 75
4, 96000, Note_on_c, 0, 64, 0
4, 96000, Note_on_c, 0, 66, 75
4, 96120, Note_on_c, 0, 66, 0
4, 96120, Note_on_c, 0, 59, 75
4, 96240, Note_on_c, 0, 59, 0
4, 96240, Note_on_c, 0, 59, 75
4, 96360, Note_on_c, 0, 59, 0
4, 96360, Note_on_c, 0, 56, 75
4, 96480, Note_on_c, 0, 56, 0
4, 96480, Note_on_c, 0, 68, 75
4, 96600, Note_on_c, 0, 68, 0
4, 96600, Note_on_c, 0, 64, 75
4, 96720, Note_on_c, 0, 64, 0
4, 96720, Note_on_c, 0, 64, 75
4, 96840, Note_on_c, 0, 64, 0
4, 96840, Note_on_c, 0, 59, 75
4, 96960, Note_on_c, 0, 59, 0
4, 96960, Note_on_c, 0, 69, 75
4, 97080, Note_on_c, 0, 69, 0
4, 97080, Note_on_c, 0, 66, 75
4, 97200, Note_on_c, 0, 66, 0
4, 97200, Note_on_c, 0, 66, 75
4, 97320, Note_on_c, 0, 66, 0
4, 97320, Note_on_c, 0, 61, 75
4, 97440, Note_on_c, 0, 61, 0
4, 97440, Note_on_c, 0, 66, 75
4, 97560, Note_on_c, 0, 66, 0
4, 97560, Note_on_c, 0, 63, 75
4, 97680, Note_on_c, 0, 63, 0
4, 97680, Note_on_c, 0, 63, 75
4, 97800, Note_on_c, 0, 63, 0
4, 97800, Note_on_c, 0, 59, 75
4, 97920, Note_on_c, 0, 59, 0
4, 97920, Note_on_c, 0, 71, 75
4, 98040, Note_on_c, 0, 71, 0
4, 98040, Note_on_c, 0, 68, 75
4, 98160, Note_on_c, 0, 68, 0
4, 98160, Note_on_c, 0, 68, 75
4, 98280, Note_on_c, 0, 68, 0
4, 98280, Note_on_c, 0, 64, 75
4, 98400, Note_on_c, 0, 64, 0
4, 98400, Note_on_c, 0, 71, 75
4, 98520, Note_on_c, 0, 71, 0
4, 98520, Note_on_c, 0, 68, 75
4, 98640, Note_on_c, 0, 68, 0
4, 98640, Note_on_c, 0, 68, 75
4, 98760, Note_on_c, 0, 68, 0
4, 98760, Note_on_c, 0, 64, 75
4, 98880, Note_on_c, 0, 64, 0
4, 98880, Note_on_c, 0, 69, 75
4, 99000, Note_on_c, 0, 69, 0
4, 99000, Note_on_c, 0, 66, 75
4, 99120, Note_on_c, 0, 66, 0
4, 99120, Note_on_c, 0, 66, 75
4, 99240, Note_on_c, 0, 66, 0
4, 99240, Note_on_c, 0, 61, 75
4, 99360, Note_on_c, 0, 61, 0
4, 99360, Note_on_c, 0, 66, 75
4, 99480, Note_on_c, 0, 66, 0
4, 99480, Note_on_c, 0, 63, 75
4, 99600, Note_on_c, 0, 63, 0
4, 99600, Note_on_c, 0, 63, 75
4, 99720, Note_on_c, 0, 63, 0
4, 99720, Note_on_c, 0, 57, 75
4, 99840, Note_on_c, 0, 57, 0
4, 99840, Note_on_c, 0, 56, 101
4, 99840, Note_on_c, 0, 64, 101
4, 99863, Note_on_c, 0, 64, 0
4, 99863, Note_on_c, 0, 56, 0
4, 100800, Note_on_c, 0, 59, 101
4, 100800, Note_on_c, 0, 64, 101
4, 100800, Note_on_c, 0, 68, 101
4, 100823, Note_on_c, 0, 68, 0
4, 100823, Note_on_c, 0, 64, 0
4, 100823, Note_on_c, 0, 59, 0
4, 101760, Note_on_c, 0, 47, 101
4, 101760, Note_on_c, 0, 52, 101
4, 101760, Note_on_c, 0, 56, 101
4, 104640, Note_on_c, 0, 56, 0
4, 104640, Note_on_c, 0, 52, 0
4, 104640, Note_on_c, 0, 47, 0
4, 104640, End_track
5, 0, Start_track
5, 0, Title_t, "Instrument19"
5, 0, Program_c, 0, 0
5, 0, Control_c, 0, 7, 110
5, 0, Control_c, 0, 10, 30
5, 0, Note_on_c, 0, 40, 88
5, 23, Note_on_c, 0, 40, 0
5, 240, Note_on_c, 0, 52, 88
5, 263, Note_on_c, 0, 52, 0
5, 480, Note_on_c, 0, 40, 88
5, 503, Note_on_c, 0, 40, 0
5, 720, Note_on_c, 0, 52, 88
5, 743, Note_on_c, 0, 52, 0
5, 960, Note_on_c, 0, 40, 88
5, 983, Note_on_c, 0, 40, 0
5, 1200, Note_on_c, 0, 52, 88
5, 1223, Note_on_c, 0, 52, 0
5, 1440, Note_on_c, 0, 40, 88
5, 1463, Note_on_c, 0, 40, 0
5, 1680, Note_on_c, 0, 52, 88
5, 1703, Note_on_c, 0, 52, 0
5, 1920, Note_on_c, 0, 33, 88
5, 1943, Note_on_c, 0, 33, 0
5, 2160, Note_on_c, 0, 45, 88
5, 2183, Note_on_c, 0, 45, 0
5, 2400, Note_on_c, 0, 33, 88
5, 2423, Note_on_c, 0, 33, 0
5, 2640, Note_on_c, 0, 45, 88
5, 2663, Note_on_c, 0, 45, 0
5, 2880, Note_on_c, 0, 35, 88
5, 2903, Note_on_c, 0, 35, 0
5, 3120, Note_on_c, 0, 47, 88
5, 3143, Note_on_c, 0, 47, 0
5, 3360, Note_on_c, 0, 28, 88
5, 3383, Note_on_c, 0, 28, 0
5, 3600, Note_on_c, 0, 40, 88
5, 3623, Note_on_c, 0, 40, 0
5, 3840, Note_on_c, 0, 40, 88
5, 3863, Note_on_c, 0, 40, 0
5, 4080, Note_on_c, 0, 52, 88
5, 4103, Note_on_c, 0, 52, 0
5, 4320, Note_on_c, 0, 40, 88
5, 4343, Note_on_c, 0, 40, 0
5, 4560, Note_on_c, 0, 52, 88
5, 4583, Note_on_c, 0, 52, 0
5, 4800, Note_on_c, 0, 40, 88
5, 4823, Note_on_c, 0, 40, 0
5, 5040, Note_on_c, 0, 52, 88
5, 5063, Note_on_c, 0, 52, 0
5, 5280, Note_on_c, 0, 40, 88
5, 5303, Note_on_c, 0, 40, 0
5, 5520, Note_on_c, 0, 52, 88
5, 5543, Note_on_c, 0, 52, 0
5, 5760, Note_on_c, 0, 33, 88
5, 5783, Note_on_c, 0, 33, 0
5, 6000, Note_on_c, 0, 45, 88
5, 6023, Note_on_c, 0, 45, 0
5, 6240, Note_on_c, 0, 33, 88
5, 6263, Note_on_c, 0, 33, 0
5, 6480, Note_on_c, 0, 45, 88
5, 6503, Note_on_c, 0, 45, 0
5, 6720, Note_on_c, 0, 35, 88
5, 6743, Note_on_c, 0, 35, 0
5, 6960, Note_on_c, 0, 47, 88
5, 6983, Note_on_c, 0, 47, 0
5, 7200, Note_on_c, 0, 28, 88
5, 7223, Note_on_c, 0, 28, 0
5, 7440, Note_on_c, 0, 40, 88
5, 7463, Note_on_c, 0, 40, 0
5, 7680, Note_on_c, 0, 28, 75
5, 7680, Note_on_c, 0, 40, 75
5, 8160, Note_on_c, 0, 40, 0
5, 8160, Note_on_c, 0, 28, 0
5, 8400, Note_on_c, 0, 40, 75
5, 8640, Note_on_c, 0, 40, 0
5, 8640, Note_on_c, 0, 35, 75
5, 8640, Note_on_c, 0, 47, 75
5, 9120, Note_on_c, 0, 47, 0
5, 9120, Note_on_c, 0, 35, 0
5, 9360, Note_on_c, 0, 40, 75
5, 9600, Note_on_c, 0, 40, 0
5, 9600, Note_on_c, 0, 33, 75
5, 9600, Note_on_c, 0, 45, 75
5, 10080, Note_on_c, 0, 45, 0
5, 10080, Note_on_c, 0, 33, 0
5, 10320, Note_on_c, 0, 35, 75
5, 10560, Note_on_c, 0, 35, 0
5, 10560, Note_on_c, 0, 28, 75
5, 10560, Note_on_c, 0, 40, 75
5, 11040, Note_on_c, 0, 40, 0
5, 11040, Note_on_c, 0, 28, 0
5, 11280, Note_on_c, 0, 40, 75
5, 11520, Note_on_c, 0, 40, 0
5, 11520, Note_on_c, 0, 28, 75
5, 11520, Note_on_c, 0, 40, 75
5, 12000, Note_on_c, 0, 40, 0
5, 12000, Note_on_c, 0, 28, 0
5, 12240, Note_on_c, 0, 40, 75
5, 12480, Note_on_c, 0, 40, 0
5, 12480, Note_on_c, 0, 35, 75
5, 12480, Note_on_c, 0, 47, 75
5, 12960, Note_on_c, 0, 47, 0
5, 12960, Note_on_c, 0, 35, 0
5, 13200, Note_on_c, 0, 40, 75
5, 13440, Note_on_c, 0, 40, 0
5, 13440, Note_on_c, 0, 33, 75
5, 13440, Note_on_c, 0, 45, 75
5, 13920, Note_on_c, 0, 45, 0
5, 13920, Note_on_c, 0, 33, 0
5, 14160, Note_on_c, 0, 35, 75
5, 14400, Note_on_c, 0, 35, 0
5, 14400, Note_on_c, 0, 28, 75
5, 14400, Note_on_c, 0, 40, 75
5, 14880, Note_on_c, 0, 40, 0
5, 14880, Note_on_c, 0, 28, 0
5, 15120, Note_on_c, 0, 40, 75
5, 15360, Note_on_c, 0, 40, 0
5, 15360, Note_on_c, 0, 35, 101
5, 15360, Note_on_c, 0, 47, 101
5, 15383, Note_on_c, 0, 47, 0
5, 15383, Note_on_c, 0, 35, 0
5, 15840, Note_on_c, 0, 35, 101
5, 16560, Note_on_c, 0, 35, 0
5, 16560, Note_on_c, 0, 35, 49
5, 17040, Note_on_c, 0, 35, 0
5, 17040, Note_on_c, 0, 35, 49
5, 17280, Note_on_c, 0, 35, 0
5, 17280, Note_on_c, 0, 35, 75
5, 18000, Note_on_c, 0, 35, 0
5, 18480, Note_on_c, 0, 35, 49
5, 18960, Note_on_c, 0, 35, 0
5, 18960, Note_on_c, 0, 40, 49
5, 19200, Note_on_c, 0, 40, 0
5, 19200, Note_on_c, 0, 33, 62
5, 19223, Note_on_c, 0, 33, 0
5, 19440, Note_on_c, 0, 45, 62
5, 19463, Note_on_c, 0, 45, 0
5, 19680, Note_on_c, 0, 35, 62
5, 19703, Note_on_c, 0, 35, 0
5, 19920, Note_on_c, 0, 47, 62
5, 19943, Note_on_c, 0, 47, 0
5, 20160, Note_on_c, 0, 28, 62
5, 20183, Note_on_c, 0, 28, 0
5, 20400, Note_on_c, 0, 40, 62
5, 20423, Note_on_c, 0, 40, 0
5, 20640, Note_on_c, 0, 28, 62
5, 20663, Note_on_c, 0, 28, 0
5, 20880, Note_on_c, 0, 40, 62
5, 20903, Note_on_c, 0, 40, 0
5, 21120, Note_on_c, 0, 33, 62
5, 21143, Note_on_c, 0, 33, 0
5, 21360, Note_on_c, 0, 45, 62
5, 21383, Note_on_c, 0, 45, 0
5, 21600, Note_on_c, 0, 35, 62
5, 21623, Note_on_c, 0, 35, 0
5, 21840, Note_on_c, 0, 47, 62
5, 21863, Note_on_c, 0, 47, 0
5, 22080, Note_on_c, 0, 28, 62
5, 22103, Note_on_c, 0, 28, 0
5, 22320, Note_on_c, 0, 40, 62
5, 22343, Note_on_c, 0, 40, 0
5, 22560, Note_on_c, 0, 28, 62
5, 22560, Note_on_c, 0, 40, 62
5, 22583, Note_on_c, 0, 40, 0
5, 22583, Note_on_c, 0, 28, 0
5, 22800, Note_on_c, 0, 32, 62
5, 22800, Note_on_c, 0, 44, 62
5, 22823, Note_on_c, 0, 44, 0
5, 22823, Note_on_c, 0, 32, 0
5, 23040, Note_on_c, 0, 35, 88
5, 23040, Note_on_c, 0, 47, 88
5, 23760, Note_on_c, 0, 47, 0
5, 23760, Note_on_c, 0, 35, 0
5, 24000, Note_on_c, 0, 28, 62
5, 24023, Note_on_c, 0, 28, 0
5, 24240, Note_on_c, 0, 40, 62
5, 24263, Note_on_c, 0, 40, 0
5, 24480, Note_on_c, 0, 28, 62
5, 24503, Note_on_c, 0, 28, 0
5, 24720, Note_on_c, 0, 40, 62
5, 24743, Note_on_c, 0, 40, 0
5, 24960, Note_on_c, 0, 35, 88
5, 24960, Note_on_c, 0, 47, 88
5, 25680, Note_on_c, 0, 47, 0
5, 25680, Note_on_c, 0, 35, 0
5, 25920, Note_on_c, 0, 28, 62
5, 25943, Note_on_c, 0, 28, 0
5, 26160, Note_on_c, 0, 40, 62
5, 26183, Note_on_c, 0, 40, 0
5, 26400, Note_on_c, 0, 28, 62
5, 26423, Note_on_c, 0, 28, 0
5, 26640, Note_on_c, 0, 40, 62
5, 26663, Note_on_c, 0, 40, 0
5, 26880, Note_on_c, 0, 33, 62
5, 26903, Note_on_c, 0, 33, 0
5, 27120, Note_on_c, 0, 45, 62
5, 27143, Note_on_c, 0, 45, 0
5, 27360, Note_on_c, 0, 35, 62
5, 27383, Note_on_c, 0, 35, 0
5, 27600, Note_on_c, 0, 47, 62
5, 27623, Note_on_c, 0, 47, 0
5, 27840, Note_on_c, 0, 28, 62
5, 27863, Note_on_c, 0, 28, 0
5, 28080, Note_on_c, 0, 40, 62
5, 28103, Note_on_c, 0, 40, 0
5, 28320, Note_on_c, 0, 28, 62
5, 28343, Note_on_c, 0, 28, 0
5, 28560, Note_on_c, 0, 40, 62
5, 28583, Note_on_c, 0, 40, 0
5, 28800, Note_on_c, 0, 33, 62
5, 28823, Note_on_c, 0, 33, 0
5, 29040, Note_on_c, 0, 45, 62
5, 29063, Note_on_c, 0, 45, 0
5, 29280, Note_on_c, 0, 35, 62
5, 29303, Note_on_c, 0, 35, 0
5, 29520, Note_on_c, 0, 47, 62
5, 29543, Note_on_c, 0, 47, 0
5, 29760, Note_on_c, 0, 28, 62
5, 29783, Note_on_c, 0, 28, 0
5, 30000, Note_on_c, 0, 40, 62
5, 30023, Note_on_c, 0, 40, 0
5, 30240, Note_on_c, 0, 28, 62
5, 30263, Note_on_c, 0, 28, 0
5, 30720, Note_on_c, 0, 55, 62
5, 30743, Note_on_c, 0, 55, 0
5, 30960, Note_on_c, 0, 57, 62
5, 30983, Note_on_c, 0, 57, 0
5, 31200, Note_on_c, 0, 55, 62
5, 31223, Note_on_c, 0, 55, 0
5, 31360, Note_on_c, 0, 52, 88
5, 31400, Note_on_c, 0, 55, 88
5, 31440, Note_on_c, 0, 58, 88
5, 31680, Note_on_c, 0, 58, 0
5, 31680, Note_on_c, 0, 55, 0
5, 31680, Note_on_c, 0, 52, 0
5, 31680, Note_on_c, 0, 47, 62
5, 31680, Note_on_c, 0, 54, 62
5, 31703, Note_on_c, 0, 54, 0
5, 31703, Note_on_c, 0, 47, 0
5, 31920, Note_on_c, 0, 59, 62
5, 31943, Note_on_c, 0, 59, 0
5, 32160, Note_on_c, 0, 54, 62
5, 32183, Note_on_c, 0, 54, 0
5, 32400, Note_on_c, 0, 47, 62
5, 32423, Note_on_c, 0, 47, 0
5, 32640, Note_on_c, 0, 55, 62
5, 32663, Note_on_c, 0, 55, 0
5, 32880, Note_on_c, 0, 57, 62
5, 32903, Note_on_c, 0, 57, 0
5, 33120, Note_on_c, 0, 55, 62
5, 33143, Note_on_c, 0, 55, 0
5, 33280, Note_on_c, 0, 52, 88
5, 33320, Note_on_c, 0, 55, 88
5, 33360, Note_on_c, 0, 58, 88
5, 33600, Note_on_c, 0, 58, 0
5, 33600, Note_on_c, 0, 55, 0
5, 33600, Note_on_c, 0, 52, 0
5, 33600, Note_on_c, 0, 47, 62
5, 33600, Note_on_c, 0, 54, 62
5, 33623, Note_on_c, 0, 54, 0
5, 33623, Note_on_c, 0, 47, 0
5, 33840, Note_on_c, 0, 59, 62
5, 33863, Note_on_c, 0, 59, 0
5, 34080, Note_on_c, 0, 54, 62
5, 34103, Note_on_c, 0, 54, 0
5, 34320, Note_on_c, 0, 47, 62
5, 34343, Note_on_c, 0, 47, 0
5, 34560, Note_on_c, 0, 48, 62
5, 34560, Note_on_c, 0, 55, 62
5, 34560, Note_on_c, 0, 60, 62
5, 35040, Note_on_c, 0, 60, 0
5, 35040, Note_on_c, 0, 55, 0
5, 35040, Note_on_c, 0, 48, 0
5, 35040, Note_on_c, 0, 43, 62
5, 35040, Note_on_c, 0, 50, 62
5, 35040, Note_on_c, 0, 55, 62
5, 35040, Note_on_c, 0, 59, 62
5, 35520, Note_on_c, 0, 59, 0
5, 35520, Note_on_c, 0, 43, 0
5, 35520, Note_on_c, 0, 50, 0
5, 35520, Note_on_c, 0, 55, 0
5, 35520, Note_on_c, 0, 40, 62
5, 35520, Note_on_c, 0, 52, 62
5, 35520, Note_on_c, 0, 55, 62
5, 35543, Note_on_c, 0, 55, 0
5, 35543, Note_on_c, 0, 52, 0
5, 35543, Note_on_c, 0, 40, 0
5, 35760, Note_on_c, 0, 38, 62
5, 35760, Note_on_c, 0, 50, 62
5, 35760, Note_on_c, 0, 54, 62
5, 36000, Note_on_c, 0, 54, 0
5, 36000, Note_on_c, 0, 50, 0
5, 36000, Note_on_c, 0, 38, 0
5, 36000, Note_on_c, 0, 36, 62
5, 36000, Note_on_c, 0, 48, 62
5, 36000, Note_on_c, 0, 52, 62
5, 36960, Note_on_c, 0, 52, 0
5, 36960, Note_on_c, 0, 48, 0
5, 36960, Note_on_c, 0, 36, 0
5, 36960, Note_on_c, 0, 35, 62
5, 36983, Note_on_c, 0, 35, 0
5, 37200, Note_on_c, 0, 47, 62
5, 37223, Note_on_c, 0, 47, 0
5, 37440, Note_on_c, 0, 47, 62
5, 37463, Note_on_c, 0, 47, 0
5, 37680, Note_on_c, 0, 59, 62
5, 37703, Note_on_c, 0, 59, 0
5, 37920, Note_on_c, 0, 52, 62
5, 37920, Note_on_c, 0, 59, 62
5, 37943, Note_on_c, 0, 59, 0
5, 37943, Note_on_c, 0, 52, 0
5, 38160, Note_on_c, 0, 47, 62
5, 38160, Note_on_c, 0, 59, 62
5, 38183, Note_on_c, 0, 59, 0
5, 38183, Note_on_c, 0, 47, 0
5, 38400, Note_on_c, 0, 52, 62
5, 38400, Note_on_c, 0, 59, 62
5, 38423, Note_on_c, 0, 59, 0
5, 38423, Note_on_c, 0, 52, 0
5, 38880, Note_on_c, 0, 55, 62
5, 38880, Note_on_c, 0, 60, 62
5, 39360, Note_on_c, 0, 60, 0
5, 39360, Note_on_c, 0, 55, 0
5, 39360, Note_on_c, 0, 43, 62
5, 39360, Note_on_c, 0, 50, 62
5, 39360, Note_on_c, 0, 55, 62
5, 39360, Note_on_c, 0, 59, 62
5, 39840, Note_on_c, 0, 59, 0
5, 39840, Note_on_c, 0, 43, 0
5, 39840, Note_on_c, 0, 50, 0
5, 39840, Note_on_c, 0, 55, 0
5, 39840, Note_on_c, 0, 40, 62
5, 39840, Note_on_c, 0, 52, 62
5, 39840, Note_on_c, 0, 55, 62
5, 39863, Note_on_c, 0, 55, 0
5, 39863, Note_on_c, 0, 52, 0
5, 39863, Note_on_c, 0, 40, 0
5, 40080, Note_on_c, 0, 38, 62
5, 40080, Note_on_c, 0, 50, 62
5, 40080, Note_on_c, 0, 54, 62
5, 40320, Note_on_c, 0, 54, 0
5, 40320, Note_on_c, 0, 50, 0
5, 40320, Note_on_c, 0, 38, 0
5, 40320, Note_on_c, 0, 36, 62
5, 40320, Note_on_c, 0, 48, 62
5, 40320, Note_on_c, 0, 52, 62
5, 41280, Note_on_c, 0, 52, 0
5, 41280, Note_on_c, 0, 48, 0
5, 41280, Note_on_c, 0, 36, 0
5, 41280, Note_on_c, 0, 35, 88
5, 41280, Note_on_c, 0, 47, 88
5, 41303, Note_on_c, 0, 47, 0
5, 41303, Note_on_c, 0, 35, 0
5, 41760, Note_on_c, 0, 35, 88
5, 42240, Note_on_c, 0, 35, 0
5, 42240, Note_on_c, 0, 28, 62
5, 42263, Note_on_c, 0, 28, 0
5, 42480, Note_on_c, 0, 40, 62
5, 42503, Note_on_c, 0, 40, 0
5, 42720, Note_on_c, 0, 28, 62
5, 42743, Note_on_c, 0, 28, 0
5, 42960, Note_on_c, 0, 40, 62
5, 42983, Note_on_c, 0, 40, 0
5, 43200, Note_on_c, 0, 35, 88
5, 43920, Note_on_c, 0, 35, 0
5, 44160, Note_on_c, 0, 28, 62
5, 44183, Note_on_c, 0, 28, 0
5, 44400, Note_on_c, 0, 40, 62
5, 44423, Note_on_c, 0, 40, 0
5, 44640, Note_on_c, 0, 28, 62
5, 44663, Note_on_c, 0, 28, 0
5, 44880, Note_on_c, 0, 40, 62
5, 44903, Note_on_c, 0, 40, 0
5, 45120, Note_on_c, 0, 33, 62
5, 45143, Note_on_c, 0, 33, 0
5, 45360, Note_on_c, 0, 45, 62
5, 45383, Note_on_c, 0, 45, 0
5, 45600, Note_on_c, 0, 35, 62
5, 45623, Note_on_c, 0, 35, 0
5, 45840, Note_on_c, 0, 47, 62
5, 45863, Note_on_c, 0, 47, 0
5, 46080, Note_on_c, 0, 40, 62
5, 46103, Note_on_c, 0, 40, 0
5, 46320, Note_on_c, 0, 52, 62
5, 46343, Note_on_c, 0, 52, 0
5, 46560, Note_on_c, 0, 32, 62
5, 46583, Note_on_c, 0, 32, 0
5, 46800, Note_on_c, 0, 44, 62
5, 46823, Note_on_c, 0, 44, 0
5, 47040, Note_on_c, 0, 33, 62
5, 47063, Note_on_c, 0, 33, 0
5, 47280, Note_on_c, 0, 45, 62
5, 47303, Note_on_c, 0, 45, 0
5, 47520, Note_on_c, 0, 35, 62
5, 47543, Note_on_c, 0, 35, 0
5, 47760, Note_on_c, 0, 47, 62
5, 47783, Note_on_c, 0, 47, 0
5, 48000, Note_on_c, 0, 28, 62
5, 48023, Note_on_c, 0, 28, 0
5, 48240, Note_on_c, 0, 40, 62
5, 48263, Note_on_c, 0, 40, 0
5, 48480, Note_on_c, 0, 28, 62
5, 48503, Note_on_c, 0, 28, 0
5, 48720, Note_on_c, 0, 32, 62
5, 48720, Note_on_c, 0, 44, 62
5, 48743, Note_on_c, 0, 44, 0
5, 48743, Note_on_c, 0, 32, 0
5, 48960, Note_on_c, 0, 35, 88
5, 48960, Note_on_c, 0, 47, 88
5, 49680, Note_on_c, 0, 47, 0
5, 49680, Note_on_c, 0, 35, 0
5, 49920, Note_on_c, 0, 40, 62
5, 49943, Note_on_c, 0, 40, 0
5, 50160, Note_on_c, 0, 52, 62
5, 50183, Note_on_c, 0, 52, 0
5, 50400, Note_on_c, 0, 32, 62
5, 50423, Note_on_c, 0, 32, 0
5, 50640, Note_on_c, 0, 44, 62
5, 50663, Note_on_c, 0, 44, 0
5, 50880, Note_on_c, 0, 35, 88
5, 50880, Note_on_c, 0, 47, 88
5, 51600, Note_on_c, 0, 47, 0
5, 51600, Note_on_c, 0, 35, 0
5, 51840, Note_on_c, 0, 40, 62
5, 51863, Note_on_c, 0, 40, 0
5, 52080, Note_on_c, 0, 52, 62
5, 52103, Note_on_c, 0, 52, 0
5, 52320, Note_on_c, 0, 40, 62
5, 52343, Note_on_c, 0, 40, 0
5, 52560, Note_on_c, 0, 44, 62
5, 52583, Note_on_c, 0, 44, 0
5, 52800, Note_on_c, 0, 45, 62
5, 52823, Note_on_c, 0, 45, 0
5, 53040, Note_on_c, 0, 52, 62
5, 53040, Note_on_c, 0, 54, 62
5, 53063, Note_on_c, 0, 54, 0
5, 53063, Note_on_c, 0, 52, 0
5, 53280, Note_on_c, 0, 47, 62
5, 53303, Note_on_c, 0, 47, 0
5, 53520, Note_on_c, 0, 51, 62
5, 53520, Note_on_c, 0, 54, 62
5, 53520, Note_on_c, 0, 59, 62
5, 53543, Note_on_c, 0, 59, 0
5, 53543, Note_on_c, 0, 54, 0
5, 53543, Note_on_c, 0, 51, 0
5, 53760, Note_on_c, 0, 52, 62
5, 53783, Note_on_c, 0, 52, 0
5, 54000, Note_on_c, 0, 56, 62
5, 54000, Note_on_c, 0, 59, 62
5, 54023, Note_on_c, 0, 59, 0
5, 54023, Note_on_c, 0, 56, 0
5, 54240, Note_on_c, 0, 40, 62
5, 54263, Note_on_c, 0, 40, 0
5, 54480, Note_on_c, 0, 52, 62
5, 54503, Note_on_c, 0, 52, 0
5, 54720, Note_on_c, 0, 45, 62
5, 54743, Note_on_c, 0, 45, 0
5, 54960, Note_on_c, 0, 52, 62
5, 54960, Note_on_c, 0, 54, 62
5, 54983, Note_on_c, 0, 54, 0
5, 54983, Note_on_c, 0, 52, 0
5, 55200, Note_on_c, 0, 47, 62
5, 55223, Note_on_c, 0, 47, 0
5, 55440, Note_on_c, 0, 51, 62
5, 55440, Note_on_c, 0, 54, 62
5, 55440, Note_on_c, 0, 59, 62
5, 55463, Note_on_c, 0, 59, 0
5, 55463, Note_on_c, 0, 54, 0
5, 55463, Note_on_c, 0, 51, 0
5, 55680, Note_on_c, 0, 40, 62
5, 55703, Note_on_c, 0, 40, 0
5, 55920, Note_on_c, 0, 52, 62
5, 55943, Note_on_c, 0, 52, 0
5, 56160, Note_on_c, 0, 40, 62
5, 56183, Note_on_c, 0, 40, 0
5, 56640, Note_on_c, 0, 35, 75
5, 56663, Note_on_c, 0, 35, 0
5, 56880, Note_on_c, 0, 37, 75
5, 56903, Note_on_c, 0, 37, 0
5, 57120, Note_on_c, 0, 39, 101
5, 57600, Note_on_c, 0, 39, 0
5, 57600, Note_on_c, 0, 40, 101
5, 58080, Note_on_c, 0, 40, 0
5, 58080, Note_on_c, 0, 35, 101
5, 58560, Note_on_c, 0, 35, 0
5, 58560, Note_on_c, 0, 28, 75
5, 58560, Note_on_c, 0, 40, 75
5, 59520, Note_on_c, 0, 40, 0
5, 59520, Note_on_c, 0, 28, 0
5, 59520, Note_on_c, 0, 35, 75
5, 59520, Note_on_c, 0, 47, 75
5, 60480, Note_on_c, 0, 47, 0
5, 60480, Note_on_c, 0, 35, 0
5, 60480, Note_on_c, 0, 31, 75
5, 60480, Note_on_c, 0, 43, 75
5, 61440, Note_on_c, 0, 43, 0
5, 61440, Note_on_c, 0, 31, 0
5, 61440, Note_on_c, 0, 28, 75
5, 61440, Note_on_c, 0, 40, 75
5, 62400, Note_on_c, 0, 40, 0
5, 62400, Note_on_c, 0, 28, 0
5, 62400, Note_on_c, 0, 30, 75
5, 62400, Note_on_c, 0, 42, 75
5, 63360, Note_on_c, 0, 42, 0
5, 63360, Note_on_c, 0, 30, 0
5, 63360, Note_on_c, 0, 35, 75
5, 63360, Note_on_c, 0, 47, 75
5, 64320, Note_on_c, 0, 47, 0
5, 64320, Note_on_c, 0, 35, 0
5, 64320, Note_on_c, 0, 47, 75
5, 64343, Note_on_c, 0, 47, 0
5, 64560, Note_on_c, 0, 59, 75
5, 64583, Note_on_c, 0, 59, 0
5, 64800, Note_on_c, 0, 45, 75
5, 64823, Note_on_c, 0, 45, 0
5, 65040, Note_on_c, 0, 57, 75
5, 65063, Note_on_c, 0, 57, 0
5, 65280, Note_on_c, 0, 43, 75
5, 65303, Note_on_c, 0, 43, 0
5, 65520, Note_on_c, 0, 55, 75
5, 65543, Note_on_c, 0, 55, 0
5, 65760, Note_on_c, 0, 42, 75
5, 65783, Note_on_c, 0, 42, 0
5, 66000, Note_on_c, 0, 54, 75
5, 66023, Note_on_c, 0, 54, 0
5, 66240, Note_on_c, 0, 40, 75
5, 66263, Note_on_c, 0, 40, 0
5, 66480, Note_on_c, 0, 52, 75
5, 66503, Note_on_c, 0, 52, 0
5, 66720, Note_on_c, 0, 34, 75
5, 66743, Note_on_c, 0, 34, 0
5, 66960, Note_on_c, 0, 46, 75
5, 66983, Note_on_c, 0, 46, 0
5, 67200, Note_on_c, 0, 35, 75
5, 67440, Note_on_c, 0, 35, 0
5, 67440, Note_on_c, 0, 47, 75
5, 67680, Note_on_c, 0, 47, 0
5, 67680, Note_on_c, 0, 30, 75
5, 67920, Note_on_c, 0, 30, 0
5, 67920, Note_on_c, 0, 42, 75
5, 68160, Note_on_c, 0, 42, 0
5, 68160, Note_on_c, 0, 31, 75
5, 68400, Note_on_c, 0, 31, 0
5, 68400, Note_on_c, 0, 43, 75
5, 68640, Note_on_c, 0, 43, 0
5, 68640, Note_on_c, 0, 43, 75
5, 68880, Note_on_c, 0, 43, 0
5, 68880, Note_on_c, 0, 55, 75
5, 69120, Note_on_c, 0, 55, 0
5, 69120, Note_on_c, 0, 40, 75
5, 69360, Note_on_c, 0, 40, 0
5, 69360, Note_on_c, 0, 52, 75
5, 69600, Note_on_c, 0, 52, 0
5, 69600, Note_on_c, 0, 37, 75
5, 69840, Note_on_c, 0, 37, 0
5, 69840, Note_on_c, 0, 49, 75
5, 70080, Note_on_c, 0, 49, 0
5, 70080, Note_on_c, 0, 42, 75
5, 70320, Note_on_c, 0, 42, 0
5, 70320, Note_on_c, 0, 54, 75
5, 70560, Note_on_c, 0, 54, 0
5, 70560, Note_on_c, 0, 30, 75
5, 70800, Note_on_c, 0, 30, 0
5, 70800, Note_on_c, 0, 42, 75
5, 71040, Note_on_c, 0, 42, 0
5, 71040, Note_on_c, 0, 35, 75
5, 71280, Note_on_c, 0, 35, 0
5, 71280, Note_on_c, 0, 47, 75
5, 71520, Note_on_c, 0, 47, 0
5, 71520, Note_on_c, 0, 35, 75
5, 71760, Note_on_c, 0, 35, 0
5, 71760, Note_on_c, 0, 47, 75
5, 72000, Note_on_c, 0, 47, 0
5, 72000, Note_on_c, 0, 36, 62
5, 72023, Note_on_c, 0, 36, 0
5, 72240, Note_on_c, 0, 40, 62
5, 72263, Note_on_c, 0, 40, 0
5, 72480, Note_on_c, 0, 45, 62
5, 72503, Note_on_c, 0, 45, 0
5, 72720, Note_on_c, 0, 48, 62
5, 72743, Note_on_c, 0, 48, 0
5, 72960, Note_on_c, 0, 52, 62
5, 72983, Note_on_c, 0, 52, 0
5, 73200, Note_on_c, 0, 57, 62
5, 73223, Note_on_c, 0, 57, 0
5, 73440, Note_on_c, 0, 60, 62
5, 73463, Note_on_c, 0, 60, 0
5, 73680, Note_on_c, 0, 48, 62
5, 73703, Note_on_c, 0, 48, 0
5, 73920, Note_on_c, 0, 35, 62
5, 73943, Note_on_c, 0, 35, 0
5, 74160, Note_on_c, 0, 40, 62
5, 74183, Note_on_c, 0, 40, 0
5, 74400, Note_on_c, 0, 43, 62
5, 74423, Note_on_c, 0, 43, 0
5, 74640, Note_on_c, 0, 47, 62
5, 74663, Note_on_c, 0, 47, 0
5, 74880, Note_on_c, 0, 52, 62
5, 74903, Note_on_c, 0, 52, 0
5, 75120, Note_on_c, 0, 55, 62
5, 75143, Note_on_c, 0, 55, 0
5, 75360, Note_on_c, 0, 59, 62
5, 75383, Note_on_c, 0, 59, 0
5, 75600, Note_on_c, 0, 47, 62
5, 75623, Note_on_c, 0, 47, 0
5, 75840, Note_on_c, 0, 35, 62
5, 75863, Note_on_c, 0, 35, 0
5, 76080, Note_on_c, 0, 42, 62
5, 76103, Note_on_c, 0, 42, 0
5, 76320, Note_on_c, 0, 47, 62
5, 76343, Note_on_c, 0, 47, 0
5, 76560, Note_on_c, 0, 54, 62
5, 76583, Note_on_c, 0, 54, 0
5, 76800, Note_on_c, 0, 59, 62
5, 76823, Note_on_c, 0, 59, 0
5, 77040, Note_on_c, 0, 54, 62
5, 77063, Note_on_c, 0, 54, 0
5, 77280, Note_on_c, 0, 47, 62
5, 77303, Note_on_c, 0, 47, 0
5, 77520, Note_on_c, 0, 42, 62
5, 77543, Note_on_c, 0, 42, 0
5, 77760, Note_on_c, 0, 35, 62
5, 77783, Note_on_c, 0, 35, 0
5, 78240, Note_on_c, 0, 47, 62
5, 78720, Note_on_c, 0, 47, 0
5, 78720, Note_on_c, 0, 40, 62
5, 78743, Note_on_c, 0, 40, 0
5, 78960, Note_on_c, 0, 35, 62
5, 78983, Note_on_c, 0, 35, 0
5, 79200, Note_on_c, 0, 40, 62
5, 79223, Note_on_c, 0, 40, 0
5, 79680, Note_on_c, 0, 36, 62
5, 79703, Note_on_c, 0, 36, 0
5, 79920, Note_on_c, 0, 40, 62
5, 79943, Note_on_c, 0, 40, 0
5, 80160, Note_on_c, 0, 45, 62
5, 80183, Note_on_c, 0, 45, 0
5, 80400, Note_on_c, 0, 48, 62
5, 80423, Note_on_c, 0, 48, 0
5, 80640, Note_on_c, 0, 52, 62
5, 80663, Note_on_c, 0, 52, 0
5, 80880, Note_on_c, 0, 57, 62
5, 80903, Note_on_c, 0, 57, 0
5, 81120, Note_on_c, 0, 52, 62
5, 81143, Note_on_c, 0, 52, 0
5, 81360, Note_on_c, 0, 48, 62
5, 81383, Note_on_c, 0, 48, 0
5, 81600, Note_on_c, 0, 35, 62
5, 81623, Note_on_c, 0, 35, 0
5, 81840, Note_on_c, 0, 40, 62
5, 81863, Note_on_c, 0, 40, 0
5, 82080, Note_on_c, 0, 43, 62
5, 82103, Note_on_c, 0, 43, 0
5, 82320, Note_on_c, 0, 47, 62
5, 82343, Note_on_c, 0, 47, 0
5, 82560, Note_on_c, 0, 52, 62
5, 82583, Note_on_c, 0, 52, 0
5, 82800, Note_on_c, 0, 55, 62
5, 82823, Note_on_c, 0, 55, 0
5, 83040, Note_on_c, 0, 52, 62
5, 83063, Note_on_c, 0, 52, 0
5, 83280, Note_on_c, 0, 47, 62
5, 83303, Note_on_c, 0, 47, 0
5, 83520, Note_on_c, 0, 35, 62
5, 83543, Note_on_c, 0, 35, 0
5, 83760, Note_on_c, 0, 42, 62
5, 83783, Note_on_c, 0, 42, 0
5, 84000, Note_on_c, 0, 47, 62
5, 84023, Note_on_c, 0, 47, 0
5, 84240, Note_on_c, 0, 54, 62
5, 84263, Note_on_c, 0, 54, 0
5, 84480, Note_on_c, 0, 59, 62
5, 84503, Note_on_c, 0, 59, 0
5, 84720, Note_on_c, 0, 54, 62
5, 84743, Note_on_c, 0, 54, 0
5, 84960, Note_on_c, 0, 47, 75
5, 84983, Note_on_c, 0, 47, 0
5, 85200, Note_on_c, 0, 42, 75
5, 85223, Note_on_c, 0, 42, 0
5, 85440, Note_on_c, 0, 35, 75
5, 85440, Note_on_c, 0, 47, 75
5, 85463, Note_on_c, 0, 47, 0
5, 85463, Note_on_c, 0, 35, 0
5, 85920, Note_on_c, 0, 35, 101
5, 86400, Note_on_c, 0, 35, 0
5, 86400, Note_on_c, 0, 28, 75
5, 86423, Note_on_c, 0, 28, 0
5, 86640, Note_on_c, 0, 40, 75
5, 86663, Note_on_c, 0, 40, 0
5, 86880, Note_on_c, 0, 28, 75
5, 86903, Note_on_c, 0, 28, 0
5, 87120, Note_on_c, 0, 39, 75
5, 87143, Note_on_c, 0, 39, 0
5, 87360, Note_on_c, 0, 35, 75
5, 87360, Note_on_c, 0, 47, 75
5, 88080, Note_on_c, 0, 47, 0
5, 88080, Note_on_c, 0, 35, 0
5, 88320, Note_on_c, 0, 40, 75
5, 88343, Note_on_c, 0, 40, 0
5, 88560, Note_on_c, 0, 52, 75
5, 88583, Note_on_c, 0, 52, 0
5, 88800, Note_on_c, 0, 40, 75
5, 88823, Note_on_c, 0, 40, 0
5, 89040, Note_on_c, 0, 32, 75
5, 89040, Note_on_c, 0, 44, 75
5, 89063, Note_on_c, 0, 44, 0
5, 89063, Note_on_c, 0, 32, 0
5, 89280, Note_on_c, 0, 33, 75
5, 89520, Note_on_c, 0, 33, 0
5, 89520, Note_on_c, 0, 45, 75
5, 89760, Note_on_c, 0, 45, 0
5, 89760, Note_on_c, 0, 35, 75
5, 90000, Note_on_c, 0, 35, 0
5, 90000, Note_on_c, 0, 47, 75
5, 90240, Note_on_c, 0, 47, 0
5, 90240, Note_on_c, 0, 28, 75
5, 90480, Note_on_c, 0, 28, 0
5, 90480, Note_on_c, 0, 40, 75
5, 90720, Note_on_c, 0, 40, 0
5, 90720, Note_on_c, 0, 28, 75
5, 90960, Note_on_c, 0, 28, 0
5, 90960, Note_on_c, 0, 40, 75
5, 91200, Note_on_c, 0, 40, 0
5, 91200, Note_on_c, 0, 33, 75
5, 91440, Note_on_c, 0, 33, 0
5, 91440, Note_on_c, 0, 45, 75
5, 91680, Note_on_c, 0, 45, 0
5, 91680, Note_on_c, 0, 35, 75
5, 91920, Note_on_c, 0, 35, 0
5, 91920, Note_on_c, 0, 47, 75
5, 92160, Note_on_c, 0, 47, 0
5, 92160, Note_on_c, 0, 28, 75
5, 92400, Note_on_c, 0, 28, 0
5, 92400, Note_on_c, 0, 40, 75
5, 92640, Note_on_c, 0, 40, 0
5, 92640, Note_on_c, 0, 40, 75
5, 92880, Note_on_c, 0, 40, 0
5, 92880, Note_on_c, 0, 47, 75
5, 93120, Note_on_c, 0, 47, 0
5, 93120, Note_on_c, 0, 35, 75
5, 93120, Note_on_c, 0, 47, 75
5, 93840, Note_on_c, 0, 47, 0
5, 93840, Note_on_c, 0, 35, 0
5, 94080, Note_on_c, 0, 40, 75
5, 94103, Note_on_c, 0, 40, 0
5, 94320, Note_on_c, 0, 52, 75
5, 94343, Note_on_c, 0, 52, 0
5, 94560, Note_on_c, 0, 32, 75
5, 94583, Note_on_c, 0, 32, 0
5, 94800, Note_on_c, 0, 44, 75
5, 94823, Note_on_c, 0, 44, 0
5, 95040, Note_on_c, 0, 35, 75
5, 95280, Note_on_c, 0, 35, 0
5, 95280, Note_on_c, 0, 47, 75
5, 95520, Note_on_c, 0, 47, 0
5, 95520, Note_on_c, 0, 35, 75
5, 95760, Note_on_c, 0, 35, 0
5, 95760, Note_on_c, 0, 47, 75
5, 96000, Note_on_c, 0, 47, 0
5, 96000, Note_on_c, 0, 28, 75
5, 96240, Note_on_c, 0, 28, 0
5, 96240, Note_on_c, 0, 40, 75
5, 96480, Note_on_c, 0, 40, 0
5, 96480, Note_on_c, 0, 40, 75
5, 96720, Note_on_c, 0, 40, 0
5, 96720, Note_on_c, 0, 52, 75
5, 96960, Note_on_c, 0, 52, 0
5, 96960, Note_on_c, 0, 33, 75
5, 97200, Note_on_c, 0, 33, 0
5, 97200, Note_on_c, 0, 45, 75
5, 97440, Note_on_c, 0, 45, 0
5, 97440, Note_on_c, 0, 35, 75
5, 97680, Note_on_c, 0, 35, 0
5, 97680, Note_on_c, 0, 47, 75
5, 97920, Note_on_c, 0, 47, 0
5, 97920, Note_on_c, 0, 40, 75
5, 98160, Note_on_c, 0, 40, 0
5, 98160, Note_on_c, 0, 52, 75
5, 98400, Note_on_c, 0, 52, 0
5, 98400, Note_on_c, 0, 32, 75
5, 98640, Note_on_c, 0, 32, 0
5, 98640, Note_on_c, 0, 44, 75
5, 98880, Note_on_c, 0, 44, 0
5, 98880, Note_on_c, 0, 33, 75
5, 99120, Note_on_c, 0, 33, 0
5, 99120, Note_on_c, 0, 45, 75
5, 99360, Note_on_c, 0, 45, 0
5, 99360, Note_on_c, 0, 35, 75
5, 99600, Note_on_c, 0, 35, 0
5, 99600, Note_on_c, 0, 47, 75
5, 99840, Note_on_c, 0, 47, 0
5, 99840, Note_on_c, 0, 28, 101
5, 99840, Note_on_c, 0, 40, 101
5, 99863, Note_on_c, 0, 40, 0
5, 99863, Note_on_c, 0, 28, 0
5, 100800, Note_on_c, 0, 40, 101
5, 100800, Note_on_c, 0, 47, 101
5, 100800, Note_on_c, 0, 52, 101
5, 100823, Note_on_c, 0, 52, 0
5, 100823, Note_on_c, 0, 47, 0
5, 100823, Note_on_c, 0, 40, 0
5, 101760, Note_on_c, 0, 28, 75
5, 101760, Note_on_c, 0, 40, 75
5, 104640, Note_on_c, 0, 40, 0
5, 104640, Note_on_c, 0, 28, 0
5, 104640, End_track
0, 0, End_of_file
