0, 0, Header, 1, 5, 480
1, 0, Start_track
1, 0, Title_t, "brahms hungarian dance no13 in dmaj 4hands"
1, 0, Copyright_t, "Segundo G. Yogore,  dody@info.com.ph \012__________________________________________________________\012Kunst der Fuge comment: this is the Contributor's property.\012Can *not* be used for commercial purposes without authorization!\012Copyright by Contributor - Kunst der Fuge, © 2002-05\012http://www.kunstderfuge.com/thanks.htm -> Contributors' list\012http://www.kunstderfuge.com/notes.htm -> Terms & conditions"
1, 0, Text_t, "sequenced by Segundo G. Yogore,  2004\012"
1, 0, Time_signature, 2, 2, 24, 8
1, 0, Key_signature, 2, "major"
1, 0, Tempo, 666667
1, 7680, Tempo, 857143
1, 8640, Tempo, 666667
1, 13440, Tempo, 857143
1, 14400, Tempo, 666667
1, 15600, Tempo, 731707
1, 15840, Tempo, 810811
1, 16080, Tempo, 909091
1, 16320, Tempo, 1034483
1, 16560, Tempo, 1200000
1, 16800, Tempo, 1428571
1, 17040, Tempo, 1764706
1, 17280, Tempo, 422535
1, 40560, Tempo, 447761
1, 40800, Tempo, 476190
1, 41040, Tempo, 508475
1, 41280, Tempo, 545455
1, 41520, Tempo, 588235
1, 41760, Tempo, 638298
1, 42000, Tempo, 697674
1, 42240, Tempo, 769231
1, 43200, Time_signature, 4, 2, 24, 8
1, 45120, Time_signature, 2, 2, 24, 8
1, 45120, Tempo, 666667
1, 52800, Tempo, 857143
1, 53760, Tempo, 666667
1, 54960, Tempo, 731707
1, 55200, Tempo, 810811
1, 55440, Tempo, 909091
1, 55680, Tempo, 1034483
1, 55920, Tempo, 1200000
1, 56160, Tempo, 1428571
1, 56400, Tempo, 1764706
1, 56640, Time_signature, 4, 2, 24, 8
1, 56640, End_track
2, 0, Start_track
2, 0, Title_t, "Grand Piano"
2, 0, Program_c, 0, 0
2, 0, Control_c, 0, 7, 110
2, 0, Control_c, 0, 10, 97
2, 0, Note_on_c, 0, 69, 88
2, 360, Note_on_c, 0, 69, 0
2, 360, Note_on_c, 0, 69, 62
2, 375, Note_on_c, 0, 69, 0
2, 480, Note_on_c, 0, 69, 62
2, 503, Note_on_c, 0, 69, 0
2, 720, Note_on_c, 0, 69, 62
2, 743, Note_on_c, 0, 69, 0
2, 960, Note_on_c, 0, 69, 62
2, 983, Note_on_c, 0, 69, 0
2, 1200, Note_on_c, 0, 78, 62
2, 1223, Note_on_c, 0, 78, 0
2, 1440, Note_on_c, 0, 76, 88
2, 1860, Note_on_c, 0, 76, 62
2, 1920, Note_on_c, 0, 76, 0
2, 1920, Note_on_c, 0, 76, 0
2, 1920, Note_on_c, 0, 74, 62
2, 1943, Note_on_c, 0, 74, 0
2, 2160, Note_on_c, 0, 74, 62
2, 2183, Note_on_c, 0, 74, 0
2, 2400, Note_on_c, 0, 73, 88
2, 2880, Note_on_c, 0, 73, 0
2, 2880, Note_on_c, 0, 71, 88
2, 3240, Note_on_c, 0, 71, 0
2, 3240, Note_on_c, 0, 71, 62
2, 3255, Note_on_c, 0, 71, 0
2, 3360, Note_on_c, 0, 71, 62
2, 3383, Note_on_c, 0, 71, 0
2, 3600, Note_on_c, 0, 73, 62
2, 3623, Note_on_c, 0, 73, 0
2, 3840, Note_on_c, 0, 74, 62
2, 3863, Note_on_c, 0, 74, 0
2, 4080, Note_on_c, 0, 73, 62
2, 4103, Note_on_c, 0, 73, 0
2, 4320, Note_on_c, 0, 71, 88
2, 4740, Note_on_c, 0, 71, 62
2, 4800, Note_on_c, 0, 71, 0
2, 4800, Note_on_c, 0, 71, 0
2, 4800, Note_on_c, 0, 69, 62
2, 4823, Note_on_c, 0, 69, 0
2, 5040, Note_on_c, 0, 68, 62
2, 5063, Note_on_c, 0, 68, 0
2, 5280, Note_on_c, 0, 69, 88
2, 5760, Note_on_c, 0, 69, 0
2, 5760, Note_on_c, 0, 76, 88
2, 6120, Note_on_c, 0, 76, 0
2, 6120, Note_on_c, 0, 76, 62
2, 6240, Note_on_c, 0, 76, 0
2, 6240, Note_on_c, 0, 76, 62
2, 6480, Note_on_c, 0, 76, 0
2, 6480, Note_on_c, 0, 75, 62
2, 6720, Note_on_c, 0, 75, 0
2, 6720, Note_on_c, 0, 76, 62
2, 6743, Note_on_c, 0, 76, 0
2, 6960, Note_on_c, 0, 78, 62
2, 6983, Note_on_c, 0, 78, 0
2, 7200, Note_on_c, 0, 79, 62
2, 7680, Note_on_c, 0, 79, 0
2, 7680, Note_on_c, 0, 78, 62
2, 7703, Note_on_c, 0, 78, 0
2, 7920, Note_on_c, 0, 81, 62
2, 7943, Note_on_c, 0, 81, 0
2, 8160, Note_on_c, 0, 86, 62
2, 8640, Note_on_c, 0, 86, 0
2, 8640, Note_on_c, 0, 71, 88
2, 9000, Note_on_c, 0, 71, 0
2, 9000, Note_on_c, 0, 73, 62
2, 9015, Note_on_c, 0, 73, 0
2, 9120, Note_on_c, 0, 74, 62
2, 9143, Note_on_c, 0, 74, 0
2, 9360, Note_on_c, 0, 76, 62
2, 9383, Note_on_c, 0, 76, 0
2, 9600, Note_on_c, 0, 78, 62
2, 9623, Note_on_c, 0, 78, 0
2, 9840, Note_on_c, 0, 74, 62
2, 9863, Note_on_c, 0, 74, 0
2, 10080, Note_on_c, 0, 76, 62
2, 10103, Note_on_c, 0, 76, 0
2, 10320, Note_on_c, 0, 73, 62
2, 10343, Note_on_c, 0, 73, 0
2, 10560, Note_on_c, 0, 74, 62
2, 11040, Note_on_c, 0, 74, 0
2, 11040, Note_on_c, 0, 74, 62
2, 11280, Note_on_c, 0, 74, 0
2, 11520, Note_on_c, 0, 76, 88
2, 11520, Note_on_c, 0, 88, 88
2, 11880, Note_on_c, 0, 88, 0
2, 11880, Note_on_c, 0, 76, 0
2, 11880, Note_on_c, 0, 76, 62
2, 11880, Note_on_c, 0, 88, 62
2, 12000, Note_on_c, 0, 88, 0
2, 12000, Note_on_c, 0, 76, 0
2, 12000, Note_on_c, 0, 76, 62
2, 12000, Note_on_c, 0, 88, 62
2, 12240, Note_on_c, 0, 88, 0
2, 12240, Note_on_c, 0, 76, 0
2, 12240, Note_on_c, 0, 75, 62
2, 12240, Note_on_c, 0, 87, 62
2, 12480, Note_on_c, 0, 87, 0
2, 12480, Note_on_c, 0, 75, 0
2, 12480, Note_on_c, 0, 76, 62
2, 12480, Note_on_c, 0, 88, 62
2, 12503, Note_on_c, 0, 88, 0
2, 12503, Note_on_c, 0, 76, 0
2, 12720, Note_on_c, 0, 78, 62
2, 12720, Note_on_c, 0, 90, 62
2, 12743, Note_on_c, 0, 90, 0
2, 12743, Note_on_c, 0, 78, 0
2, 12960, Note_on_c, 0, 79, 62
2, 12960, Note_on_c, 0, 91, 62
2, 13440, Note_on_c, 0, 91, 0
2, 13440, Note_on_c, 0, 79, 0
2, 13440, Note_on_c, 0, 78, 62
2, 13440, Note_on_c, 0, 90, 62
2, 13463, Note_on_c, 0, 90, 0
2, 13463, Note_on_c, 0, 78, 0
2, 13680, Note_on_c, 0, 81, 62
2, 13680, Note_on_c, 0, 93, 62
2, 13703, Note_on_c, 0, 93, 0
2, 13703, Note_on_c, 0, 81, 0
2, 13920, Note_on_c, 0, 86, 62
2, 13920, Note_on_c, 0, 98, 62
2, 14400, Note_on_c, 0, 98, 0
2, 14400, Note_on_c, 0, 86, 0
2, 14400, Note_on_c, 0, 71, 88
2, 14760, Note_on_c, 0, 71, 0
2, 14760, Note_on_c, 0, 73, 62
2, 14775, Note_on_c, 0, 73, 0
2, 14880, Note_on_c, 0, 74, 62
2, 14903, Note_on_c, 0, 74, 0
2, 15120, Note_on_c, 0, 76, 62
2, 15143, Note_on_c, 0, 76, 0
2, 15360, Note_on_c, 0, 78, 88
2, 15383, Note_on_c, 0, 78, 0
2, 15600, Note_on_c, 0, 74, 88
2, 15623, Note_on_c, 0, 74, 0
2, 15840, Note_on_c, 0, 76, 75
2, 15863, Note_on_c, 0, 76, 0
2, 16080, Note_on_c, 0, 73, 75
2, 16103, Note_on_c, 0, 73, 0
2, 16320, Note_on_c, 0, 74, 62
2, 16800, Note_on_c, 0, 74, 0
2, 16800, Note_on_c, 0, 74, 62
2, 17040, Note_on_c, 0, 74, 0
2, 17280, Note_on_c, 0, 71, 62
2, 17319, Note_on_c, 0, 71, 0
2, 17319, Note_on_c, 0, 74, 62
2, 17360, Note_on_c, 0, 74, 0
2, 17360, Note_on_c, 0, 78, 62
2, 17400, Note_on_c, 0, 78, 0
2, 17400, Note_on_c, 0, 83, 62
2, 17415, Note_on_c, 0, 83, 0
2, 17760, Note_on_c, 0, 73, 62
2, 17760, Note_on_c, 0, 85, 62
2, 17783, Note_on_c, 0, 85, 0
2, 17783, Note_on_c, 0, 73, 0
2, 18240, Note_on_c, 0, 74, 62
2, 18240, Note_on_c, 0, 86, 62
2, 18263, Note_on_c, 0, 86, 0
2, 18263, Note_on_c, 0, 74, 0
2, 18720, Note_on_c, 0, 78, 62
2, 18720, Note_on_c, 0, 90, 62
2, 18743, Note_on_c, 0, 90, 0
2, 18743, Note_on_c, 0, 78, 0
2, 19200, Note_on_c, 0, 73, 62
2, 19200, Note_on_c, 0, 85, 62
2, 19680, Note_on_c, 0, 85, 0
2, 19680, Note_on_c, 0, 73, 0
2, 19680, Note_on_c, 0, 74, 62
2, 19680, Note_on_c, 0, 86, 62
2, 19703, Note_on_c, 0, 86, 0
2, 19703, Note_on_c, 0, 74, 0
2, 19920, Note_on_c, 0, 73, 62
2, 19920, Note_on_c, 0, 85, 62
2, 19943, Note_on_c, 0, 85, 0
2, 19943, Note_on_c, 0, 73, 0
2, 20160, Note_on_c, 0, 71, 62
2, 20160, Note_on_c, 0, 83, 62
2, 21120, Note_on_c, 0, 83, 0
2, 21120, Note_on_c, 0, 71, 0
2, 21120, Note_on_c, 0, 78, 62
2, 21159, Note_on_c, 0, 78, 0
2, 21159, Note_on_c, 0, 81, 62
2, 21200, Note_on_c, 0, 81, 0
2, 21200, Note_on_c, 0, 85, 62
2, 21240, Note_on_c, 0, 85, 0
2, 21240, Note_on_c, 0, 90, 62
2, 21255, Note_on_c, 0, 90, 0
2, 21600, Note_on_c, 0, 80, 62
2, 21600, Note_on_c, 0, 92, 62
2, 21623, Note_on_c, 0, 92, 0
2, 21623, Note_on_c, 0, 80, 0
2, 22080, Note_on_c, 0, 81, 62
2, 22080, Note_on_c, 0, 93, 62
2, 22103, Note_on_c, 0, 93, 0
2, 22103, Note_on_c, 0, 81, 0
2, 22560, Note_on_c, 0, 85, 62
2, 22560, Note_on_c, 0, 97, 62
2, 22583, Note_on_c, 0, 97, 0
2, 22583, Note_on_c, 0, 85, 0
2, 23040, Note_on_c, 0, 80, 62
2, 23040, Note_on_c, 0, 92, 62
2, 23520, Note_on_c, 0, 92, 0
2, 23520, Note_on_c, 0, 80, 0
2, 23520, Note_on_c, 0, 81, 62
2, 23520, Note_on_c, 0, 93, 62
2, 23543, Note_on_c, 0, 93, 0
2, 23543, Note_on_c, 0, 81, 0
2, 23760, Note_on_c, 0, 80, 62
2, 23760, Note_on_c, 0, 92, 62
2, 23783, Note_on_c, 0, 92, 0
2, 23783, Note_on_c, 0, 80, 0
2, 24000, Note_on_c, 0, 78, 62
2, 24000, Note_on_c, 0, 90, 62
2, 24960, Note_on_c, 0, 90, 0
2, 24960, Note_on_c, 0, 78, 0
2, 24960, Note_on_c, 0, 83, 114
2, 24960, Note_on_c, 0, 91, 114
2, 24960, Note_on_c, 0, 95, 114
2, 25440, Note_on_c, 0, 95, 0
2, 25440, Note_on_c, 0, 91, 0
2, 25440, Note_on_c, 0, 83, 0
2, 25440, Note_on_c, 0, 82, 88
2, 25440, Note_on_c, 0, 90, 88
2, 25440, Note_on_c, 0, 94, 88
2, 25463, Note_on_c, 0, 94, 0
2, 25463, Note_on_c, 0, 90, 0
2, 25463, Note_on_c, 0, 82, 0
2, 25680, Note_on_c, 0, 83, 88
2, 25680, Note_on_c, 0, 91, 88
2, 25680, Note_on_c, 0, 95, 88
2, 25703, Note_on_c, 0, 95, 0
2, 25703, Note_on_c, 0, 91, 0
2, 25703, Note_on_c, 0, 83, 0
2, 25920, Note_on_c, 0, 76, 114
2, 25920, Note_on_c, 0, 85, 114
2, 25920, Note_on_c, 0, 88, 114
2, 26880, Note_on_c, 0, 88, 0
2, 26880, Note_on_c, 0, 85, 0
2, 26880, Note_on_c, 0, 76, 0
2, 26880, Note_on_c, 0, 78, 114
2, 26880, Note_on_c, 0, 86, 114
2, 26880, Note_on_c, 0, 90, 114
2, 27360, Note_on_c, 0, 90, 0
2, 27360, Note_on_c, 0, 86, 0
2, 27360, Note_on_c, 0, 78, 0
2, 27360, Note_on_c, 0, 77, 88
2, 27360, Note_on_c, 0, 85, 88
2, 27360, Note_on_c, 0, 89, 88
2, 27383, Note_on_c, 0, 89, 0
2, 27383, Note_on_c, 0, 85, 0
2, 27383, Note_on_c, 0, 77, 0
2, 27600, Note_on_c, 0, 78, 88
2, 27600, Note_on_c, 0, 86, 88
2, 27600, Note_on_c, 0, 90, 88
2, 27623, Note_on_c, 0, 90, 0
2, 27623, Note_on_c, 0, 86, 0
2, 27623, Note_on_c, 0, 78, 0
2, 27840, Note_on_c, 0, 73, 114
2, 27840, Note_on_c, 0, 76, 114
2, 27840, Note_on_c, 0, 82, 114
2, 28710, Note_on_c, 0, 71, 62
2, 28740, Note_on_c, 0, 74, 62
2, 28770, Note_on_c, 0, 78, 62
2, 28800, Note_on_c, 0, 82, 0
2, 28800, Note_on_c, 0, 73, 0
2, 28800, Note_on_c, 0, 76, 0
2, 28800, Note_on_c, 0, 83, 62
2, 28823, Note_on_c, 0, 83, 0
2, 28823, Note_on_c, 0, 78, 0
2, 28823, Note_on_c, 0, 74, 0
2, 28823, Note_on_c, 0, 71, 0
2, 29200, Note_on_c, 0, 73, 62
2, 29240, Note_on_c, 0, 78, 62
2, 29280, Note_on_c, 0, 85, 62
2, 29303, Note_on_c, 0, 85, 0
2, 29303, Note_on_c, 0, 78, 0
2, 29303, Note_on_c, 0, 73, 0
2, 29670, Note_on_c, 0, 74, 62
2, 29700, Note_on_c, 0, 78, 62
2, 29730, Note_on_c, 0, 83, 62
2, 29760, Note_on_c, 0, 86, 62
2, 29783, Note_on_c, 0, 86, 0
2, 29783, Note_on_c, 0, 74, 0
2, 29783, Note_on_c, 0, 78, 0
2, 29783, Note_on_c, 0, 83, 0
2, 30160, Note_on_c, 0, 78, 62
2, 30200, Note_on_c, 0, 83, 62
2, 30240, Note_on_c, 0, 90, 62
2, 30263, Note_on_c, 0, 90, 0
2, 30263, Note_on_c, 0, 83, 0
2, 30263, Note_on_c, 0, 78, 0
2, 30630, Note_on_c, 0, 73, 62
2, 30660, Note_on_c, 0, 79, 62
2, 30690, Note_on_c, 0, 83, 62
2, 30720, Note_on_c, 0, 85, 62
2, 30743, Note_on_c, 0, 85, 0
2, 30743, Note_on_c, 0, 73, 0
2, 30743, Note_on_c, 0, 79, 0
2, 30743, Note_on_c, 0, 83, 0
2, 31200, Note_on_c, 0, 74, 62
2, 31200, Note_on_c, 0, 78, 62
2, 31200, Note_on_c, 0, 82, 62
2, 31200, Note_on_c, 0, 86, 62
2, 31223, Note_on_c, 0, 86, 0
2, 31223, Note_on_c, 0, 74, 0
2, 31223, Note_on_c, 0, 78, 0
2, 31223, Note_on_c, 0, 82, 0
2, 31440, Note_on_c, 0, 73, 62
2, 31440, Note_on_c, 0, 85, 62
2, 31463, Note_on_c, 0, 85, 0
2, 31463, Note_on_c, 0, 73, 0
2, 31590, Note_on_c, 0, 71, 62
2, 31620, Note_on_c, 0, 74, 62
2, 31650, Note_on_c, 0, 78, 62
2, 31680, Note_on_c, 0, 83, 62
2, 32400, Note_on_c, 0, 83, 0
2, 32400, Note_on_c, 0, 71, 0
2, 32400, Note_on_c, 0, 74, 0
2, 32400, Note_on_c, 0, 78, 0
2, 32640, Note_on_c, 0, 83, 114
2, 32640, Note_on_c, 0, 91, 114
2, 32640, Note_on_c, 0, 95, 114
2, 33120, Note_on_c, 0, 95, 0
2, 33120, Note_on_c, 0, 91, 0
2, 33120, Note_on_c, 0, 83, 0
2, 33120, Note_on_c, 0, 82, 88
2, 33120, Note_on_c, 0, 90, 88
2, 33120, Note_on_c, 0, 94, 88
2, 33143, Note_on_c, 0, 94, 0
2, 33143, Note_on_c, 0, 90, 0
2, 33143, Note_on_c, 0, 82, 0
2, 33360, Note_on_c, 0, 83, 88
2, 33360, Note_on_c, 0, 91, 88
2, 33360, Note_on_c, 0, 95, 88
2, 33383, Note_on_c, 0, 95, 0
2, 33383, Note_on_c, 0, 91, 0
2, 33383, Note_on_c, 0, 83, 0
2, 33600, Note_on_c, 0, 76, 114
2, 33600, Note_on_c, 0, 85, 114
2, 33600, Note_on_c, 0, 88, 114
2, 34560, Note_on_c, 0, 88, 0
2, 34560, Note_on_c, 0, 85, 0
2, 34560, Note_on_c, 0, 76, 0
2, 34560, Note_on_c, 0, 78, 114
2, 34560, Note_on_c, 0, 86, 114
2, 34560, Note_on_c, 0, 90, 114
2, 35040, Note_on_c, 0, 90, 0
2, 35040, Note_on_c, 0, 86, 0
2, 35040, Note_on_c, 0, 78, 0
2, 35040, Note_on_c, 0, 77, 88
2, 35040, Note_on_c, 0, 85, 88
2, 35040, Note_on_c, 0, 89, 88
2, 35063, Note_on_c, 0, 89, 0
2, 35063, Note_on_c, 0, 85, 0
2, 35063, Note_on_c, 0, 77, 0
2, 35280, Note_on_c, 0, 78, 88
2, 35280, Note_on_c, 0, 86, 88
2, 35280, Note_on_c, 0, 90, 88
2, 35303, Note_on_c, 0, 90, 0
2, 35303, Note_on_c, 0, 86, 0
2, 35303, Note_on_c, 0, 78, 0
2, 35520, Note_on_c, 0, 73, 114
2, 35520, Note_on_c, 0, 76, 114
2, 35520, Note_on_c, 0, 82, 114
2, 36400, Note_on_c, 0, 62, 62
2, 36440, Note_on_c, 0, 66, 62
2, 36480, Note_on_c, 0, 82, 0
2, 36480, Note_on_c, 0, 73, 0
2, 36480, Note_on_c, 0, 76, 0
2, 36480, Note_on_c, 0, 71, 75
2, 36503, Note_on_c, 0, 71, 0
2, 36503, Note_on_c, 0, 62, 0
2, 36503, Note_on_c, 0, 66, 0
2, 36900, Note_on_c, 0, 66, 75
2, 36960, Note_on_c, 0, 73, 75
2, 36983, Note_on_c, 0, 73, 0
2, 36983, Note_on_c, 0, 66, 0
2, 37360, Note_on_c, 0, 66, 75
2, 37400, Note_on_c, 0, 71, 75
2, 37440, Note_on_c, 0, 74, 75
2, 37680, Note_on_c, 0, 74, 0
2, 37680, Note_on_c, 0, 71, 0
2, 37680, Note_on_c, 0, 66, 0
2, 37840, Note_on_c, 0, 71, 75
2, 37880, Note_on_c, 0, 74, 75
2, 37920, Note_on_c, 0, 78, 75
2, 38160, Note_on_c, 0, 78, 0
2, 38160, Note_on_c, 0, 74, 0
2, 38160, Note_on_c, 0, 71, 0
2, 38320, Note_on_c, 0, 67, 75
2, 38360, Note_on_c, 0, 71, 75
2, 38400, Note_on_c, 0, 73, 75
2, 38800, Note_on_c, 0, 66, 75
2, 38840, Note_on_c, 0, 70, 75
2, 38880, Note_on_c, 0, 73, 0
2, 38880, Note_on_c, 0, 67, 0
2, 38880, Note_on_c, 0, 71, 0
2, 38880, Note_on_c, 0, 74, 75
2, 38903, Note_on_c, 0, 74, 0
2, 38903, Note_on_c, 0, 66, 0
2, 38903, Note_on_c, 0, 70, 0
2, 39120, Note_on_c, 0, 73, 75
2, 39143, Note_on_c, 0, 73, 0
2, 39280, Note_on_c, 0, 62, 75
2, 39320, Note_on_c, 0, 66, 75
2, 39360, Note_on_c, 0, 71, 75
2, 39760, Note_on_c, 0, 67, 75
2, 39800, Note_on_c, 0, 71, 75
2, 39840, Note_on_c, 0, 71, 0
2, 39840, Note_on_c, 0, 62, 0
2, 39840, Note_on_c, 0, 66, 0
2, 39840, Note_on_c, 0, 73, 75
2, 40240, Note_on_c, 0, 66, 75
2, 40280, Note_on_c, 0, 70, 75
2, 40320, Note_on_c, 0, 73, 0
2, 40320, Note_on_c, 0, 71, 0
2, 40320, Note_on_c, 0, 67, 0
2, 40320, Note_on_c, 0, 74, 75
2, 40343, Note_on_c, 0, 74, 0
2, 40343, Note_on_c, 0, 66, 0
2, 40343, Note_on_c, 0, 70, 0
2, 40560, Note_on_c, 0, 73, 75
2, 40583, Note_on_c, 0, 73, 0
2, 40720, Note_on_c, 0, 62, 75
2, 40760, Note_on_c, 0, 66, 75
2, 40800, Note_on_c, 0, 71, 75
2, 41280, Note_on_c, 0, 71, 0
2, 41280, Note_on_c, 0, 66, 0
2, 41280, Note_on_c, 0, 62, 0
2, 41280, Note_on_c, 0, 61, 75
2, 41760, Note_on_c, 0, 61, 0
2, 41760, Note_on_c, 0, 62, 75
2, 41783, Note_on_c, 0, 62, 0
2, 42000, Note_on_c, 0, 61, 75
2, 42023, Note_on_c, 0, 61, 0
2, 45120, Note_on_c, 0, 81, 88
2, 45480, Note_on_c, 0, 81, 0
2, 45480, Note_on_c, 0, 81, 62
2, 45495, Note_on_c, 0, 81, 0
2, 45600, Note_on_c, 0, 81, 62
2, 45623, Note_on_c, 0, 81, 0
2, 45840, Note_on_c, 0, 81, 62
2, 45863, Note_on_c, 0, 81, 0
2, 46080, Note_on_c, 0, 81, 62
2, 46103, Note_on_c, 0, 81, 0
2, 46320, Note_on_c, 0, 90, 62
2, 46343, Note_on_c, 0, 90, 0
2, 46560, Note_on_c, 0, 88, 88
2, 46980, Note_on_c, 0, 88, 62
2, 47040, Note_on_c, 0, 88, 0
2, 47040, Note_on_c, 0, 88, 0
2, 47040, Note_on_c, 0, 86, 62
2, 47063, Note_on_c, 0, 86, 0
2, 47280, Note_on_c, 0, 86, 62
2, 47303, Note_on_c, 0, 86, 0
2, 47520, Note_on_c, 0, 85, 88
2, 48000, Note_on_c, 0, 85, 0
2, 48000, Note_on_c, 0, 83, 88
2, 48360, Note_on_c, 0, 83, 0
2, 48360, Note_on_c, 0, 83, 62
2, 48375, Note_on_c, 0, 83, 0
2, 48480, Note_on_c, 0, 83, 62
2, 48503, Note_on_c, 0, 83, 0
2, 48720, Note_on_c, 0, 73, 62
2, 48720, Note_on_c, 0, 85, 62
2, 48743, Note_on_c, 0, 85, 0
2, 48743, Note_on_c, 0, 73, 0
2, 48960, Note_on_c, 0, 74, 62
2, 48960, Note_on_c, 0, 86, 62
2, 48983, Note_on_c, 0, 86, 0
2, 48983, Note_on_c, 0, 74, 0
2, 49200, Note_on_c, 0, 73, 62
2, 49200, Note_on_c, 0, 85, 62
2, 49223, Note_on_c, 0, 85, 0
2, 49223, Note_on_c, 0, 73, 0
2, 49440, Note_on_c, 0, 71, 88
2, 49440, Note_on_c, 0, 83, 88
2, 49860, Note_on_c, 0, 83, 62
2, 49920, Note_on_c, 0, 83, 0
2, 49920, Note_on_c, 0, 83, 0
2, 49920, Note_on_c, 0, 71, 0
2, 49920, Note_on_c, 0, 81, 62
2, 49943, Note_on_c, 0, 81, 0
2, 50160, Note_on_c, 0, 80, 62
2, 50183, Note_on_c, 0, 80, 0
2, 50400, Note_on_c, 0, 81, 88
2, 50880, Note_on_c, 0, 81, 0
2, 50880, Note_on_c, 0, 76, 88
2, 50880, Note_on_c, 0, 88, 88
2, 51240, Note_on_c, 0, 88, 0
2, 51240, Note_on_c, 0, 76, 0
2, 51240, Note_on_c, 0, 76, 62
2, 51240, Note_on_c, 0, 88, 62
2, 51360, Note_on_c, 0, 88, 0
2, 51360, Note_on_c, 0, 76, 0
2, 51360, Note_on_c, 0, 76, 62
2, 51360, Note_on_c, 0, 88, 62
2, 51600, Note_on_c, 0, 88, 0
2, 51600, Note_on_c, 0, 76, 0
2, 51600, Note_on_c, 0, 75, 62
2, 51600, Note_on_c, 0, 87, 62
2, 51840, Note_on_c, 0, 87, 0
2, 51840, Note_on_c, 0, 75, 0
2, 51840, Note_on_c, 0, 76, 62
2, 51840, Note_on_c, 0, 88, 62
2, 51863, Note_on_c, 0, 88, 0
2, 51863, Note_on_c, 0, 76, 0
2, 52080, Note_on_c, 0, 78, 62
2, 52080, Note_on_c, 0, 90, 62
2, 52103, Note_on_c, 0, 90, 0
2, 52103, Note_on_c, 0, 78, 0
2, 52320, Note_on_c, 0, 79, 88
2, 52320, Note_on_c, 0, 91, 88
2, 52800, Note_on_c, 0, 91, 0
2, 52800, Note_on_c, 0, 79, 0
2, 52800, Note_on_c, 0, 78, 62
2, 52800, Note_on_c, 0, 90, 62
2, 52823, Note_on_c, 0, 90, 0
2, 52823, Note_on_c, 0, 78, 0
2, 53040, Note_on_c, 0, 81, 62
2, 53040, Note_on_c, 0, 93, 62
2, 53063, Note_on_c, 0, 93, 0
2, 53063, Note_on_c, 0, 81, 0
2, 53280, Note_on_c, 0, 86, 88
2, 53280, Note_on_c, 0, 98, 88
2, 53760, Note_on_c, 0, 98, 0
2, 53760, Note_on_c, 0, 86, 0
2, 53760, Note_on_c, 0, 83, 88
2, 54120, Note_on_c, 0, 83, 0
2, 54120, Note_on_c, 0, 73, 62
2, 54120, Note_on_c, 0, 85, 62
2, 54135, Note_on_c, 0, 85, 0
2, 54135, Note_on_c, 0, 73, 0
2, 54240, Note_on_c, 0, 74, 62
2, 54240, Note_on_c, 0, 86, 62
2, 54263, Note_on_c, 0, 86, 0
2, 54263, Note_on_c, 0, 74, 0
2, 54480, Note_on_c, 0, 76, 62
2, 54480, Note_on_c, 0, 88, 62
2, 54503, Note_on_c, 0, 88, 0
2, 54503, Note_on_c, 0, 76, 0
2, 54720, Note_on_c, 0, 78, 88
2, 54720, Note_on_c, 0, 90, 88
2, 54743, Note_on_c, 0, 90, 0
2, 54743, Note_on_c, 0, 78, 0
2, 54960, Note_on_c, 0, 86, 88
2, 54983, Note_on_c, 0, 86, 0
2, 55200, Note_on_c, 0, 76, 75
2, 55200, Note_on_c, 0, 88, 75
2, 55223, Note_on_c, 0, 88, 0
2, 55223, Note_on_c, 0, 76, 0
2, 55440, Note_on_c, 0, 85, 75
2, 55463, Note_on_c, 0, 85, 0
2, 56160, Note_on_c, 0, 76, 75
2, 56160, Note_on_c, 0, 86, 75
2, 56400, Note_on_c, 0, 86, 0
2, 56400, Note_on_c, 0, 76, 0
2, 56640, Note_on_c, 0, 78, 75
2, 56640, Note_on_c, 0, 86, 75
2, 58560, Note_on_c, 0, 86, 0
2, 58560, Note_on_c, 0, 78, 0
2, 58560, End_track
3, 0, Start_track
3, 0, Title_t, "Instrument17"
3, 0, Program_c, 0, 0
3, 0, Control_c, 0, 7, 110
3, 0, Control_c, 0, 10, 97
3, 5760, Note_on_c, 0, 73, 49
3, 6120, Note_on_c, 0, 73, 0
3, 6120, Note_on_c, 0, 73, 49
3, 6240, Note_on_c, 0, 73, 0
3, 6240, Note_on_c, 0, 72, 49
3, 6480, Note_on_c, 0, 72, 0
3, 6480, Note_on_c, 0, 72, 49
3, 6720, Note_on_c, 0, 72, 0
3, 6720, Note_on_c, 0, 71, 49
3, 6743, Note_on_c, 0, 71, 0
3, 6960, Note_on_c, 0, 69, 49
3, 6960, Note_on_c, 0, 72, 49
3, 6983, Note_on_c, 0, 72, 0
3, 6983, Note_on_c, 0, 69, 0
3, 7200, Note_on_c, 0, 67, 49
3, 7200, Note_on_c, 0, 70, 49
3, 7680, Note_on_c, 0, 70, 0
3, 7680, Note_on_c, 0, 67, 0
3, 7680, Note_on_c, 0, 66, 49
3, 7680, Note_on_c, 0, 69, 49
3, 7703, Note_on_c, 0, 69, 0
3, 7703, Note_on_c, 0, 66, 0
3, 7920, Note_on_c, 0, 66, 49
3, 7920, Note_on_c, 0, 74, 49
3, 7943, Note_on_c, 0, 74, 0
3, 7943, Note_on_c, 0, 66, 0
3, 8160, Note_on_c, 0, 66, 49
3, 8160, Note_on_c, 0, 74, 49
3, 8400, Note_on_c, 0, 74, 0
3, 8400, Note_on_c, 0, 66, 0
3, 8400, Note_on_c, 0, 69, 49
3, 8400, Note_on_c, 0, 72, 49
3, 8640, Note_on_c, 0, 72, 0
3, 8640, Note_on_c, 0, 69, 0
3, 9120, Note_on_c, 0, 71, 49
3, 9143, Note_on_c, 0, 71, 0
3, 9360, Note_on_c, 0, 74, 49
3, 9383, Note_on_c, 0, 74, 0
3, 9600, Note_on_c, 0, 69, 49
3, 9600, Note_on_c, 0, 74, 49
3, 9623, Note_on_c, 0, 74, 0
3, 9623, Note_on_c, 0, 69, 0
3, 10080, Note_on_c, 0, 67, 49
3, 10080, Note_on_c, 0, 69, 49
3, 10103, Note_on_c, 0, 69, 0
3, 10103, Note_on_c, 0, 67, 0
3, 10560, Note_on_c, 0, 67, 49
3, 10583, Note_on_c, 0, 67, 0
3, 10800, Note_on_c, 0, 64, 49
3, 10823, Note_on_c, 0, 64, 0
3, 11040, Note_on_c, 0, 66, 49
3, 11063, Note_on_c, 0, 66, 0
3, 11280, Note_on_c, 0, 62, 49
3, 11303, Note_on_c, 0, 62, 0
3, 11520, Note_on_c, 0, 73, 49
3, 11880, Note_on_c, 0, 73, 0
3, 11880, Note_on_c, 0, 73, 49
3, 12000, Note_on_c, 0, 73, 0
3, 12000, Note_on_c, 0, 72, 49
3, 12240, Note_on_c, 0, 72, 0
3, 12240, Note_on_c, 0, 72, 49
3, 12480, Note_on_c, 0, 72, 0
3, 12480, Note_on_c, 0, 71, 49
3, 12503, Note_on_c, 0, 71, 0
3, 12720, Note_on_c, 0, 69, 49
3, 12720, Note_on_c, 0, 72, 49
3, 12743, Note_on_c, 0, 72, 0
3, 12743, Note_on_c, 0, 69, 0
3, 12960, Note_on_c, 0, 67, 49
3, 12960, Note_on_c, 0, 71, 49
3, 13200, Note_on_c, 0, 71, 0
3, 13200, Note_on_c, 0, 67, 0
3, 13200, Note_on_c, 0, 70, 49
3, 13440, Note_on_c, 0, 70, 0
3, 13440, Note_on_c, 0, 66, 49
3, 13440, Note_on_c, 0, 69, 49
3, 13463, Note_on_c, 0, 69, 0
3, 13463, Note_on_c, 0, 66, 0
3, 13680, Note_on_c, 0, 66, 49
3, 13680, Note_on_c, 0, 74, 49
3, 13703, Note_on_c, 0, 74, 0
3, 13703, Note_on_c, 0, 66, 0
3, 13920, Note_on_c, 0, 66, 49
3, 13920, Note_on_c, 0, 74, 49
3, 14160, Note_on_c, 0, 74, 0
3, 14160, Note_on_c, 0, 66, 0
3, 14160, Note_on_c, 0, 69, 49
3, 14160, Note_on_c, 0, 72, 49
3, 14400, Note_on_c, 0, 72, 0
3, 14400, Note_on_c, 0, 69, 0
3, 14880, Note_on_c, 0, 71, 49
3, 14903, Note_on_c, 0, 71, 0
3, 15120, Note_on_c, 0, 74, 49
3, 15143, Note_on_c, 0, 74, 0
3, 15360, Note_on_c, 0, 69, 75
3, 15360, Note_on_c, 0, 74, 75
3, 15383, Note_on_c, 0, 74, 0
3, 15383, Note_on_c, 0, 69, 0
3, 15840, Note_on_c, 0, 67, 62
3, 15840, Note_on_c, 0, 69, 62
3, 15863, Note_on_c, 0, 69, 0
3, 15863, Note_on_c, 0, 67, 0
3, 16320, Note_on_c, 0, 67, 49
3, 16343, Note_on_c, 0, 67, 0
3, 16560, Note_on_c, 0, 64, 49
3, 16583, Note_on_c, 0, 64, 0
3, 16800, Note_on_c, 0, 66, 49
3, 16823, Note_on_c, 0, 66, 0
3, 17040, Note_on_c, 0, 62, 49
3, 17063, Note_on_c, 0, 62, 0
3, 17520, Note_on_c, 0, 47, 49
3, 17520, Note_on_c, 0, 50, 49
3, 17520, Note_on_c, 0, 54, 49
3, 17543, Note_on_c, 0, 54, 0
3, 17543, Note_on_c, 0, 50, 0
3, 17543, Note_on_c, 0, 47, 0
3, 18000, Note_on_c, 0, 46, 49
3, 18000, Note_on_c, 0, 49, 49
3, 18000, Note_on_c, 0, 54, 49
3, 18023, Note_on_c, 0, 54, 0
3, 18023, Note_on_c, 0, 49, 0
3, 18023, Note_on_c, 0, 46, 0
3, 18480, Note_on_c, 0, 47, 49
3, 18480, Note_on_c, 0, 50, 49
3, 18480, Note_on_c, 0, 54, 49
3, 18503, Note_on_c, 0, 54, 0
3, 18503, Note_on_c, 0, 50, 0
3, 18503, Note_on_c, 0, 47, 0
3, 18960, Note_on_c, 0, 50, 49
3, 18960, Note_on_c, 0, 54, 49
3, 18960, Note_on_c, 0, 59, 49
3, 18983, Note_on_c, 0, 59, 0
3, 18983, Note_on_c, 0, 54, 0
3, 18983, Note_on_c, 0, 50, 0
3, 19440, Note_on_c, 0, 52, 49
3, 19440, Note_on_c, 0, 55, 49
3, 19440, Note_on_c, 0, 59, 49
3, 19463, Note_on_c, 0, 59, 0
3, 19463, Note_on_c, 0, 55, 0
3, 19463, Note_on_c, 0, 52, 0
3, 19920, Note_on_c, 0, 54, 49
3, 19920, Note_on_c, 0, 58, 49
3, 19943, Note_on_c, 0, 58, 0
3, 19943, Note_on_c, 0, 54, 0
3, 20400, Note_on_c, 0, 50, 49
3, 20400, Note_on_c, 0, 54, 49
3, 20423, Note_on_c, 0, 54, 0
3, 20423, Note_on_c, 0, 50, 0
3, 20880, Note_on_c, 0, 50, 49
3, 20880, Note_on_c, 0, 53, 49
3, 20880, Note_on_c, 0, 56, 49
3, 20880, Note_on_c, 0, 59, 49
3, 20903, Note_on_c, 0, 59, 0
3, 20903, Note_on_c, 0, 50, 0
3, 20903, Note_on_c, 0, 53, 0
3, 20903, Note_on_c, 0, 56, 0
3, 21360, Note_on_c, 0, 49, 49
3, 21360, Note_on_c, 0, 54, 49
3, 21360, Note_on_c, 0, 57, 49
3, 21383, Note_on_c, 0, 57, 0
3, 21383, Note_on_c, 0, 54, 0
3, 21383, Note_on_c, 0, 49, 0
3, 21840, Note_on_c, 0, 53, 49
3, 21840, Note_on_c, 0, 56, 49
3, 21840, Note_on_c, 0, 61, 49
3, 21863, Note_on_c, 0, 61, 0
3, 21863, Note_on_c, 0, 56, 0
3, 21863, Note_on_c, 0, 53, 0
3, 22320, Note_on_c, 0, 54, 49
3, 22320, Note_on_c, 0, 57, 49
3, 22320, Note_on_c, 0, 61, 49
3, 22343, Note_on_c, 0, 61, 0
3, 22343, Note_on_c, 0, 57, 0
3, 22343, Note_on_c, 0, 54, 0
3, 22800, Note_on_c, 0, 54, 49
3, 22800, Note_on_c, 0, 57, 49
3, 22800, Note_on_c, 0, 61, 49
3, 22823, Note_on_c, 0, 61, 0
3, 22823, Note_on_c, 0, 57, 0
3, 22823, Note_on_c, 0, 54, 0
3, 23280, Note_on_c, 0, 54, 49
3, 23280, Note_on_c, 0, 59, 49
3, 23280, Note_on_c, 0, 62, 49
3, 23303, Note_on_c, 0, 62, 0
3, 23303, Note_on_c, 0, 59, 0
3, 23303, Note_on_c, 0, 54, 0
3, 23760, Note_on_c, 0, 53, 49
3, 23760, Note_on_c, 0, 56, 49
3, 23760, Note_on_c, 0, 61, 49
3, 23783, Note_on_c, 0, 61, 0
3, 23783, Note_on_c, 0, 56, 0
3, 23783, Note_on_c, 0, 53, 0
3, 24240, Note_on_c, 0, 54, 49
3, 24240, Note_on_c, 0, 57, 49
3, 24240, Note_on_c, 0, 61, 49
3, 24263, Note_on_c, 0, 61, 0
3, 24263, Note_on_c, 0, 57, 0
3, 24263, Note_on_c, 0, 54, 0
3, 24720, Note_on_c, 0, 54, 49
3, 24720, Note_on_c, 0, 57, 49
3, 24743, Note_on_c, 0, 57, 0
3, 24743, Note_on_c, 0, 54, 0
3, 24960, Note_on_c, 0, 67, 114
3, 24960, Note_on_c, 0, 71, 114
3, 25440, Note_on_c, 0, 71, 0
3, 25440, Note_on_c, 0, 67, 0
3, 25440, Note_on_c, 0, 66, 88
3, 25440, Note_on_c, 0, 70, 88
3, 25463, Note_on_c, 0, 70, 0
3, 25463, Note_on_c, 0, 66, 0
3, 25680, Note_on_c, 0, 67, 88
3, 25680, Note_on_c, 0, 71, 88
3, 25703, Note_on_c, 0, 71, 0
3, 25703, Note_on_c, 0, 67, 0
3, 25920, Note_on_c, 0, 64, 114
3, 25920, Note_on_c, 0, 73, 114
3, 26880, Note_on_c, 0, 73, 0
3, 26880, Note_on_c, 0, 64, 0
3, 26880, Note_on_c, 0, 62, 114
3, 26880, Note_on_c, 0, 66, 114
3, 27360, Note_on_c, 0, 66, 0
3, 27360, Note_on_c, 0, 62, 0
3, 27360, Note_on_c, 0, 61, 88
3, 27360, Note_on_c, 0, 65, 88
3, 27383, Note_on_c, 0, 65, 0
3, 27383, Note_on_c, 0, 61, 0
3, 27600, Note_on_c, 0, 62, 88
3, 27600, Note_on_c, 0, 66, 88
3, 27623, Note_on_c, 0, 66, 0
3, 27623, Note_on_c, 0, 62, 0
3, 27840, Note_on_c, 0, 61, 114
3, 27840, Note_on_c, 0, 64, 114
3, 27840, Note_on_c, 0, 70, 114
3, 28800, Note_on_c, 0, 70, 0
3, 28800, Note_on_c, 0, 64, 0
3, 28800, Note_on_c, 0, 61, 0
3, 28960, Note_on_c, 0, 59, 62
3, 29000, Note_on_c, 0, 62, 62
3, 29040, Note_on_c, 0, 66, 62
3, 29063, Note_on_c, 0, 66, 0
3, 29063, Note_on_c, 0, 62, 0
3, 29063, Note_on_c, 0, 59, 0
3, 29440, Note_on_c, 0, 58, 62
3, 29480, Note_on_c, 0, 61, 62
3, 29520, Note_on_c, 0, 66, 62
3, 29543, Note_on_c, 0, 66, 0
3, 29543, Note_on_c, 0, 61, 0
3, 29543, Note_on_c, 0, 58, 0
3, 29920, Note_on_c, 0, 59, 62
3, 29960, Note_on_c, 0, 62, 62
3, 30000, Note_on_c, 0, 66, 62
3, 30023, Note_on_c, 0, 66, 0
3, 30023, Note_on_c, 0, 62, 0
3, 30023, Note_on_c, 0, 59, 0
3, 30400, Note_on_c, 0, 62, 62
3, 30440, Note_on_c, 0, 66, 62
3, 30480, Note_on_c, 0, 71, 62
3, 30503, Note_on_c, 0, 71, 0
3, 30503, Note_on_c, 0, 66, 0
3, 30503, Note_on_c, 0, 62, 0
3, 30870, Note_on_c, 0, 61, 62
3, 30900, Note_on_c, 0, 64, 62
3, 30930, Note_on_c, 0, 67, 62
3, 30960, Note_on_c, 0, 71, 62
3, 30983, Note_on_c, 0, 71, 0
3, 30983, Note_on_c, 0, 61, 0
3, 30983, Note_on_c, 0, 64, 0
3, 30983, Note_on_c, 0, 67, 0
3, 31350, Note_on_c, 0, 61, 62
3, 31380, Note_on_c, 0, 64, 62
3, 31410, Note_on_c, 0, 66, 62
3, 31440, Note_on_c, 0, 70, 62
3, 31463, Note_on_c, 0, 70, 0
3, 31463, Note_on_c, 0, 61, 0
3, 31463, Note_on_c, 0, 64, 0
3, 31463, Note_on_c, 0, 66, 0
3, 31840, Note_on_c, 0, 59, 62
3, 31880, Note_on_c, 0, 62, 62
3, 31920, Note_on_c, 0, 66, 62
3, 31943, Note_on_c, 0, 66, 0
3, 31943, Note_on_c, 0, 62, 0
3, 31943, Note_on_c, 0, 59, 0
3, 32320, Note_on_c, 0, 62, 62
3, 32360, Note_on_c, 0, 66, 62
3, 32400, Note_on_c, 0, 71, 62
3, 32423, Note_on_c, 0, 71, 0
3, 32423, Note_on_c, 0, 66, 0
3, 32423, Note_on_c, 0, 62, 0
3, 32640, Note_on_c, 0, 67, 114
3, 32640, Note_on_c, 0, 71, 114
3, 33120, Note_on_c, 0, 71, 0
3, 33120, Note_on_c, 0, 67, 0
3, 33120, Note_on_c, 0, 66, 88
3, 33120, Note_on_c, 0, 70, 88
3, 33143, Note_on_c, 0, 70, 0
3, 33143, Note_on_c, 0, 66, 0
3, 33360, Note_on_c, 0, 67, 88
3, 33360, Note_on_c, 0, 71, 88
3, 33383, Note_on_c, 0, 71, 0
3, 33383, Note_on_c, 0, 67, 0
3, 33600, Note_on_c, 0, 64, 114
3, 33600, Note_on_c, 0, 73, 114
3, 34560, Note_on_c, 0, 73, 0
3, 34560, Note_on_c, 0, 64, 0
3, 34560, Note_on_c, 0, 62, 114
3, 34560, Note_on_c, 0, 66, 114
3, 35040, Note_on_c, 0, 66, 0
3, 35040, Note_on_c, 0, 62, 0
3, 35040, Note_on_c, 0, 61, 88
3, 35040, Note_on_c, 0, 65, 88
3, 35063, Note_on_c, 0, 65, 0
3, 35063, Note_on_c, 0, 61, 0
3, 35280, Note_on_c, 0, 62, 88
3, 35280, Note_on_c, 0, 66, 88
3, 35303, Note_on_c, 0, 66, 0
3, 35303, Note_on_c, 0, 62, 0
3, 35520, Note_on_c, 0, 61, 114
3, 35520, Note_on_c, 0, 64, 114
3, 35520, Note_on_c, 0, 70, 114
3, 36480, Note_on_c, 0, 70, 0
3, 36480, Note_on_c, 0, 64, 0
3, 36480, Note_on_c, 0, 61, 0
3, 36640, Note_on_c, 0, 59, 62
3, 36680, Note_on_c, 0, 62, 62
3, 36720, Note_on_c, 0, 66, 62
3, 36743, Note_on_c, 0, 66, 0
3, 36743, Note_on_c, 0, 62, 0
3, 36743, Note_on_c, 0, 59, 0
3, 37120, Note_on_c, 0, 58, 62
3, 37160, Note_on_c, 0, 61, 62
3, 37200, Note_on_c, 0, 66, 62
3, 37223, Note_on_c, 0, 66, 0
3, 37223, Note_on_c, 0, 61, 0
3, 37223, Note_on_c, 0, 58, 0
3, 37600, Note_on_c, 0, 59, 62
3, 37640, Note_on_c, 0, 62, 62
3, 37680, Note_on_c, 0, 66, 62
3, 37703, Note_on_c, 0, 66, 0
3, 37703, Note_on_c, 0, 62, 0
3, 37703, Note_on_c, 0, 59, 0
3, 38080, Note_on_c, 0, 62, 62
3, 38120, Note_on_c, 0, 66, 62
3, 38160, Note_on_c, 0, 71, 62
3, 38183, Note_on_c, 0, 71, 0
3, 38183, Note_on_c, 0, 66, 0
3, 38183, Note_on_c, 0, 62, 0
3, 38550, Note_on_c, 0, 61, 62
3, 38580, Note_on_c, 0, 64, 62
3, 38610, Note_on_c, 0, 67, 62
3, 38640, Note_on_c, 0, 71, 62
3, 38880, Note_on_c, 0, 71, 0
3, 38880, Note_on_c, 0, 61, 0
3, 38880, Note_on_c, 0, 64, 0
3, 38880, Note_on_c, 0, 67, 0
3, 39030, Note_on_c, 0, 61, 62
3, 39060, Note_on_c, 0, 64, 62
3, 39090, Note_on_c, 0, 66, 62
3, 39120, Note_on_c, 0, 70, 62
3, 39360, Note_on_c, 0, 70, 0
3, 39360, Note_on_c, 0, 61, 0
3, 39360, Note_on_c, 0, 64, 0
3, 39360, Note_on_c, 0, 66, 0
3, 39520, Note_on_c, 0, 59, 62
3, 39560, Note_on_c, 0, 62, 62
3, 39600, Note_on_c, 0, 66, 62
3, 39840, Note_on_c, 0, 66, 0
3, 39840, Note_on_c, 0, 62, 0
3, 39840, Note_on_c, 0, 59, 0
3, 39990, Note_on_c, 0, 61, 62
3, 40020, Note_on_c, 0, 64, 62
3, 40050, Note_on_c, 0, 67, 62
3, 40080, Note_on_c, 0, 71, 62
3, 40320, Note_on_c, 0, 71, 0
3, 40320, Note_on_c, 0, 61, 0
3, 40320, Note_on_c, 0, 64, 0
3, 40320, Note_on_c, 0, 67, 0
3, 40470, Note_on_c, 0, 61, 62
3, 40500, Note_on_c, 0, 64, 62
3, 40530, Note_on_c, 0, 66, 62
3, 40560, Note_on_c, 0, 70, 62
3, 40800, Note_on_c, 0, 70, 0
3, 40800, Note_on_c, 0, 61, 0
3, 40800, Note_on_c, 0, 64, 0
3, 40800, Note_on_c, 0, 66, 0
3, 40960, Note_on_c, 0, 59, 62
3, 41000, Note_on_c, 0, 62, 62
3, 41040, Note_on_c, 0, 66, 62
3, 41280, Note_on_c, 0, 66, 0
3, 41280, Note_on_c, 0, 62, 0
3, 41280, Note_on_c, 0, 59, 0
3, 41440, Note_on_c, 0, 52, 62
3, 41480, Note_on_c, 0, 55, 62
3, 41520, Note_on_c, 0, 59, 62
3, 41760, Note_on_c, 0, 59, 0
3, 41760, Note_on_c, 0, 55, 0
3, 41760, Note_on_c, 0, 52, 0
3, 41920, Note_on_c, 0, 52, 62
3, 41960, Note_on_c, 0, 54, 62
3, 42000, Note_on_c, 0, 58, 62
3, 42240, Note_on_c, 0, 58, 0
3, 42240, Note_on_c, 0, 54, 0
3, 42240, Note_on_c, 0, 52, 0
3, 42240, Note_on_c, 0, 50, 62
3, 42240, Note_on_c, 0, 54, 62
3, 42240, Note_on_c, 0, 59, 62
3, 43200, Note_on_c, 0, 59, 0
3, 43200, Note_on_c, 0, 54, 0
3, 43200, Note_on_c, 0, 50, 0
3, 43200, Note_on_c, 0, 50, 62
3, 43200, Note_on_c, 0, 54, 62
3, 43200, Note_on_c, 0, 59, 62
3, 45120, Note_on_c, 0, 59, 0
3, 45120, Note_on_c, 0, 54, 0
3, 45120, Note_on_c, 0, 50, 0
3, 45480, Note_on_c, 0, 69, 62
3, 45495, Note_on_c, 0, 69, 0
3, 45600, Note_on_c, 0, 69, 62
3, 45623, Note_on_c, 0, 69, 0
3, 45840, Note_on_c, 0, 69, 62
3, 45863, Note_on_c, 0, 69, 0
3, 46080, Note_on_c, 0, 69, 62
3, 46103, Note_on_c, 0, 69, 0
3, 46320, Note_on_c, 0, 78, 62
3, 46343, Note_on_c, 0, 78, 0
3, 46560, Note_on_c, 0, 76, 88
3, 46980, Note_on_c, 0, 76, 62
3, 47040, Note_on_c, 0, 76, 0
3, 47040, Note_on_c, 0, 76, 0
3, 47040, Note_on_c, 0, 74, 62
3, 47063, Note_on_c, 0, 74, 0
3, 47280, Note_on_c, 0, 74, 62
3, 47303, Note_on_c, 0, 74, 0
3, 47520, Note_on_c, 0, 73, 88
3, 48000, Note_on_c, 0, 73, 0
3, 48000, Note_on_c, 0, 71, 88
3, 48360, Note_on_c, 0, 71, 0
3, 48360, Note_on_c, 0, 71, 62
3, 48375, Note_on_c, 0, 71, 0
3, 48480, Note_on_c, 0, 71, 62
3, 48503, Note_on_c, 0, 71, 0
3, 48720, Note_on_c, 0, 70, 62
3, 48960, Note_on_c, 0, 70, 0
3, 48960, Note_on_c, 0, 67, 62
3, 48960, Note_on_c, 0, 71, 62
3, 49440, Note_on_c, 0, 71, 0
3, 49440, Note_on_c, 0, 67, 0
3, 49440, Note_on_c, 0, 68, 88
3, 49860, Note_on_c, 0, 71, 62
3, 49920, Note_on_c, 0, 71, 0
3, 49920, Note_on_c, 0, 68, 0
3, 49920, Note_on_c, 0, 69, 62
3, 49943, Note_on_c, 0, 69, 0
3, 50160, Note_on_c, 0, 65, 62
3, 50160, Note_on_c, 0, 68, 62
3, 50160, Note_on_c, 0, 71, 62
3, 50183, Note_on_c, 0, 71, 0
3, 50183, Note_on_c, 0, 68, 0
3, 50183, Note_on_c, 0, 65, 0
3, 50400, Note_on_c, 0, 66, 88
3, 50400, Note_on_c, 0, 69, 88
3, 50880, Note_on_c, 0, 69, 0
3, 50880, Note_on_c, 0, 66, 0
3, 50880, Note_on_c, 0, 73, 49
3, 51240, Note_on_c, 0, 73, 0
3, 51240, Note_on_c, 0, 73, 49
3, 51360, Note_on_c, 0, 73, 0
3, 51360, Note_on_c, 0, 72, 49
3, 51600, Note_on_c, 0, 72, 0
3, 51600, Note_on_c, 0, 72, 49
3, 51840, Note_on_c, 0, 72, 0
3, 51840, Note_on_c, 0, 71, 49
3, 51863, Note_on_c, 0, 71, 0
3, 52080, Note_on_c, 0, 69, 49
3, 52080, Note_on_c, 0, 72, 49
3, 52103, Note_on_c, 0, 72, 0
3, 52103, Note_on_c, 0, 69, 0
3, 52320, Note_on_c, 0, 67, 49
3, 52320, Note_on_c, 0, 71, 49
3, 52560, Note_on_c, 0, 71, 0
3, 52560, Note_on_c, 0, 67, 0
3, 52560, Note_on_c, 0, 70, 49
3, 52800, Note_on_c, 0, 70, 0
3, 52800, Note_on_c, 0, 66, 49
3, 52800, Note_on_c, 0, 69, 49
3, 52823, Note_on_c, 0, 69, 0
3, 52823, Note_on_c, 0, 66, 0
3, 53040, Note_on_c, 0, 66, 49
3, 53040, Note_on_c, 0, 74, 49
3, 53063, Note_on_c, 0, 74, 0
3, 53063, Note_on_c, 0, 66, 0
3, 53280, Note_on_c, 0, 66, 49
3, 53280, Note_on_c, 0, 74, 49
3, 53520, Note_on_c, 0, 74, 0
3, 53520, Note_on_c, 0, 66, 0
3, 53520, Note_on_c, 0, 69, 49
3, 53520, Note_on_c, 0, 72, 49
3, 53760, Note_on_c, 0, 72, 0
3, 53760, Note_on_c, 0, 69, 0
3, 53760, Note_on_c, 0, 71, 49
3, 54240, Note_on_c, 0, 71, 0
3, 54240, Note_on_c, 0, 71, 49
3, 54263, Note_on_c, 0, 71, 0
3, 54480, Note_on_c, 0, 71, 49
3, 54480, Note_on_c, 0, 74, 49
3, 54503, Note_on_c, 0, 74, 0
3, 54503, Note_on_c, 0, 71, 0
3, 54720, Note_on_c, 0, 69, 75
3, 54720, Note_on_c, 0, 74, 75
3, 54743, Note_on_c, 0, 74, 0
3, 54743, Note_on_c, 0, 69, 0
3, 55200, Note_on_c, 0, 69, 62
3, 55200, Note_on_c, 0, 73, 62
3, 55223, Note_on_c, 0, 73, 0
3, 55223, Note_on_c, 0, 69, 0
3, 56160, Note_on_c, 0, 64, 62
3, 56160, Note_on_c, 0, 74, 62
3, 56400, Note_on_c, 0, 74, 0
3, 56400, Note_on_c, 0, 64, 0
3, 56640, Note_on_c, 0, 66, 62
3, 56640, Note_on_c, 0, 74, 62
3, 58560, Note_on_c, 0, 74, 0
3, 58560, Note_on_c, 0, 66, 0
3, 58560, End_track
4, 0, Start_track
4, 0, Title_t, "Instrument18"
4, 0, Program_c, 0, 0
4, 0, Control_c, 0, 7, 110
4, 0, Control_c, 0, 10, 30
4, 0, Note_on_c, 0, 57, 75
4, 360, Note_on_c, 0, 57, 0
4, 360, Note_on_c, 0, 59, 49
4, 360, Note_on_c, 0, 68, 49
4, 375, Note_on_c, 0, 68, 0
4, 375, Note_on_c, 0, 59, 0
4, 480, Note_on_c, 0, 61, 49
4, 480, Note_on_c, 0, 67, 49
4, 503, Note_on_c, 0, 67, 0
4, 503, Note_on_c, 0, 61, 0
4, 720, Note_on_c, 0, 57, 49
4, 720, Note_on_c, 0, 64, 49
4, 743, Note_on_c, 0, 64, 0
4, 743, Note_on_c, 0, 57, 0
4, 960, Note_on_c, 0, 62, 49
4, 960, Note_on_c, 0, 66, 49
4, 983, Note_on_c, 0, 66, 0
4, 983, Note_on_c, 0, 62, 0
4, 1200, Note_on_c, 0, 54, 49
4, 1200, Note_on_c, 0, 62, 49
4, 1223, Note_on_c, 0, 62, 0
4, 1223, Note_on_c, 0, 54, 0
4, 1440, Note_on_c, 0, 57, 75
4, 1440, Note_on_c, 0, 61, 75
4, 1920, Note_on_c, 0, 61, 0
4, 1920, Note_on_c, 0, 57, 0
4, 1920, Note_on_c, 0, 59, 49
4, 1920, Note_on_c, 0, 62, 49
4, 1943, Note_on_c, 0, 62, 0
4, 1943, Note_on_c, 0, 59, 0
4, 2160, Note_on_c, 0, 50, 49
4, 2160, Note_on_c, 0, 59, 49
4, 2183, Note_on_c, 0, 59, 0
4, 2183, Note_on_c, 0, 50, 0
4, 2400, Note_on_c, 0, 54, 75
4, 2400, Note_on_c, 0, 57, 75
4, 2880, Note_on_c, 0, 57, 0
4, 2880, Note_on_c, 0, 54, 0
4, 2880, Note_on_c, 0, 50, 75
4, 2880, Note_on_c, 0, 55, 75
4, 2880, Note_on_c, 0, 62, 75
4, 3240, Note_on_c, 0, 62, 0
4, 3240, Note_on_c, 0, 55, 0
4, 3240, Note_on_c, 0, 50, 0
4, 3240, Note_on_c, 0, 50, 49
4, 3240, Note_on_c, 0, 55, 49
4, 3240, Note_on_c, 0, 61, 49
4, 3255, Note_on_c, 0, 61, 0
4, 3255, Note_on_c, 0, 55, 0
4, 3255, Note_on_c, 0, 50, 0
4, 3360, Note_on_c, 0, 50, 49
4, 3360, Note_on_c, 0, 55, 49
4, 3360, Note_on_c, 0, 62, 49
4, 3383, Note_on_c, 0, 62, 0
4, 3383, Note_on_c, 0, 55, 0
4, 3383, Note_on_c, 0, 50, 0
4, 3600, Note_on_c, 0, 55, 49
4, 3600, Note_on_c, 0, 58, 49
4, 3623, Note_on_c, 0, 58, 0
4, 3623, Note_on_c, 0, 55, 0
4, 3840, Note_on_c, 0, 55, 49
4, 3840, Note_on_c, 0, 59, 49
4, 3863, Note_on_c, 0, 59, 0
4, 3863, Note_on_c, 0, 55, 0
4, 4080, Note_on_c, 0, 55, 49
4, 4080, Note_on_c, 0, 62, 49
4, 4103, Note_on_c, 0, 62, 0
4, 4103, Note_on_c, 0, 55, 0
4, 4320, Note_on_c, 0, 56, 75
4, 4320, Note_on_c, 0, 65, 75
4, 4800, Note_on_c, 0, 65, 0
4, 4800, Note_on_c, 0, 56, 0
4, 4800, Note_on_c, 0, 57, 49
4, 4800, Note_on_c, 0, 66, 49
4, 4823, Note_on_c, 0, 66, 0
4, 4823, Note_on_c, 0, 57, 0
4, 5040, Note_on_c, 0, 53, 49
4, 5040, Note_on_c, 0, 59, 49
4, 5040, Note_on_c, 0, 62, 49
4, 5063, Note_on_c, 0, 62, 0
4, 5063, Note_on_c, 0, 59, 0
4, 5063, Note_on_c, 0, 53, 0
4, 5280, Note_on_c, 0, 54, 75
4, 5280, Note_on_c, 0, 57, 75
4, 5760, Note_on_c, 0, 57, 0
4, 5760, Note_on_c, 0, 54, 0
4, 5760, Note_on_c, 0, 57, 75
4, 5760, Note_on_c, 0, 64, 75
4, 6120, Note_on_c, 0, 64, 0
4, 6120, Note_on_c, 0, 57, 0
4, 6120, Note_on_c, 0, 57, 49
4, 6120, Note_on_c, 0, 64, 49
4, 6135, Note_on_c, 0, 64, 0
4, 6135, Note_on_c, 0, 57, 0
4, 6240, Note_on_c, 0, 57, 49
4, 6240, Note_on_c, 0, 69, 49
4, 6263, Note_on_c, 0, 69, 0
4, 6263, Note_on_c, 0, 57, 0
4, 6480, Note_on_c, 0, 66, 49
4, 6503, Note_on_c, 0, 66, 0
4, 6720, Note_on_c, 0, 67, 49
4, 6743, Note_on_c, 0, 67, 0
4, 6960, Note_on_c, 0, 63, 49
4, 6983, Note_on_c, 0, 63, 0
4, 7200, Note_on_c, 0, 64, 49
4, 7440, Note_on_c, 0, 64, 0
4, 7440, Note_on_c, 0, 61, 49
4, 7680, Note_on_c, 0, 61, 0
4, 7680, Note_on_c, 0, 62, 49
4, 7703, Note_on_c, 0, 62, 0
4, 7920, Note_on_c, 0, 59, 49
4, 7943, Note_on_c, 0, 59, 0
4, 8160, Note_on_c, 0, 60, 49
4, 8400, Note_on_c, 0, 60, 0
4, 8400, Note_on_c, 0, 54, 49
4, 8640, Note_on_c, 0, 54, 0
4, 8640, Note_on_c, 0, 55, 75
4, 8640, Note_on_c, 0, 67, 75
4, 9000, Note_on_c, 0, 67, 0
4, 9000, Note_on_c, 0, 55, 0
4, 9000, Note_on_c, 0, 55, 49
4, 9000, Note_on_c, 0, 66, 49
4, 9015, Note_on_c, 0, 66, 0
4, 9015, Note_on_c, 0, 55, 0
4, 9120, Note_on_c, 0, 56, 49
4, 9120, Note_on_c, 0, 66, 49
4, 9143, Note_on_c, 0, 66, 0
4, 9143, Note_on_c, 0, 56, 0
4, 9360, Note_on_c, 0, 56, 49
4, 9360, Note_on_c, 0, 59, 49
4, 9360, Note_on_c, 0, 64, 49
4, 9383, Note_on_c, 0, 64, 0
4, 9383, Note_on_c, 0, 59, 0
4, 9383, Note_on_c, 0, 56, 0
4, 9600, Note_on_c, 0, 57, 49
4, 9600, Note_on_c, 0, 62, 49
4, 9623, Note_on_c, 0, 62, 0
4, 9623, Note_on_c, 0, 57, 0
4, 10080, Note_on_c, 0, 57, 49
4, 10080, Note_on_c, 0, 61, 49
4, 10103, Note_on_c, 0, 61, 0
4, 10103, Note_on_c, 0, 57, 0
4, 10560, Note_on_c, 0, 59, 49
4, 10560, Note_on_c, 0, 62, 49
4, 10800, Note_on_c, 0, 62, 0
4, 10800, Note_on_c, 0, 59, 0
4, 10800, Note_on_c, 0, 55, 49
4, 10823, Note_on_c, 0, 55, 0
4, 11040, Note_on_c, 0, 57, 49
4, 11040, Note_on_c, 0, 62, 49
4, 11280, Note_on_c, 0, 62, 0
4, 11280, Note_on_c, 0, 57, 0
4, 11280, Note_on_c, 0, 54, 49
4, 11303, Note_on_c, 0, 54, 0
4, 11520, Note_on_c, 0, 57, 75
4, 11520, Note_on_c, 0, 64, 75
4, 11880, Note_on_c, 0, 64, 0
4, 11880, Note_on_c, 0, 57, 0
4, 11880, Note_on_c, 0, 57, 49
4, 11880, Note_on_c, 0, 64, 49
4, 11895, Note_on_c, 0, 64, 0
4, 11895, Note_on_c, 0, 57, 0
4, 12000, Note_on_c, 0, 57, 49
4, 12000, Note_on_c, 0, 69, 49
4, 12023, Note_on_c, 0, 69, 0
4, 12023, Note_on_c, 0, 57, 0
4, 12240, Note_on_c, 0, 66, 49
4, 12263, Note_on_c, 0, 66, 0
4, 12480, Note_on_c, 0, 67, 49
4, 12503, Note_on_c, 0, 67, 0
4, 12720, Note_on_c, 0, 63, 49
4, 12743, Note_on_c, 0, 63, 0
4, 12960, Note_on_c, 0, 64, 49
4, 13200, Note_on_c, 0, 64, 0
4, 13200, Note_on_c, 0, 61, 49
4, 13440, Note_on_c, 0, 61, 0
4, 13440, Note_on_c, 0, 62, 49
4, 13463, Note_on_c, 0, 62, 0
4, 13680, Note_on_c, 0, 59, 49
4, 13703, Note_on_c, 0, 59, 0
4, 13920, Note_on_c, 0, 60, 49
4, 14160, Note_on_c, 0, 60, 0
4, 14160, Note_on_c, 0, 54, 49
4, 14400, Note_on_c, 0, 54, 0
4, 14400, Note_on_c, 0, 55, 75
4, 14400, Note_on_c, 0, 67, 75
4, 14760, Note_on_c, 0, 67, 0
4, 14760, Note_on_c, 0, 55, 0
4, 14760, Note_on_c, 0, 55, 49
4, 14760, Note_on_c, 0, 66, 49
4, 14775, Note_on_c, 0, 66, 0
4, 14775, Note_on_c, 0, 55, 0
4, 14880, Note_on_c, 0, 56, 49
4, 14880, Note_on_c, 0, 66, 49
4, 14903, Note_on_c, 0, 66, 0
4, 14903, Note_on_c, 0, 56, 0
4, 15120, Note_on_c, 0, 56, 49
4, 15120, Note_on_c, 0, 59, 49
4, 15120, Note_on_c, 0, 64, 49
4, 15143, Note_on_c, 0, 64, 0
4, 15143, Note_on_c, 0, 59, 0
4, 15143, Note_on_c, 0, 56, 0
4, 15360, Note_on_c, 0, 57, 49
4, 15360, Note_on_c, 0, 62, 49
4, 15383, Note_on_c, 0, 62, 0
4, 15383, Note_on_c, 0, 57, 0
4, 15840, Note_on_c, 0, 57, 49
4, 15840, Note_on_c, 0, 61, 49
4, 15863, Note_on_c, 0, 61, 0
4, 15863, Note_on_c, 0, 57, 0
4, 16320, Note_on_c, 0, 59, 49
4, 16320, Note_on_c, 0, 62, 49
4, 16560, Note_on_c, 0, 62, 0
4, 16560, Note_on_c, 0, 59, 0
4, 16560, Note_on_c, 0, 55, 49
4, 16583, Note_on_c, 0, 55, 0
4, 16800, Note_on_c, 0, 57, 49
4, 16800, Note_on_c, 0, 62, 49
4, 17040, Note_on_c, 0, 62, 0
4, 17040, Note_on_c, 0, 57, 0
4, 17040, Note_on_c, 0, 54, 49
4, 17063, Note_on_c, 0, 54, 0
4, 17280, Note_on_c, 0, 59, 49
4, 17400, Note_on_c, 0, 59, 0
4, 17400, Note_on_c, 0, 62, 49
4, 17520, Note_on_c, 0, 62, 0
4, 17520, Note_on_c, 0, 61, 49
4, 17640, Note_on_c, 0, 61, 0
4, 17640, Note_on_c, 0, 59, 49
4, 17760, Note_on_c, 0, 59, 0
4, 17760, Note_on_c, 0, 61, 49
4, 17880, Note_on_c, 0, 61, 0
4, 17880, Note_on_c, 0, 64, 49
4, 18000, Note_on_c, 0, 64, 0
4, 18000, Note_on_c, 0, 62, 49
4, 18120, Note_on_c, 0, 62, 0
4, 18120, Note_on_c, 0, 61, 49
4, 18240, Note_on_c, 0, 61, 0
4, 18240, Note_on_c, 0, 62, 49
4, 18360, Note_on_c, 0, 62, 0
4, 18360, Note_on_c, 0, 66, 49
4, 18480, Note_on_c, 0, 66, 0
4, 18480, Note_on_c, 0, 64, 49
4, 18600, Note_on_c, 0, 64, 0
4, 18600, Note_on_c, 0, 62, 49
4, 18720, Note_on_c, 0, 62, 0
4, 18720, Note_on_c, 0, 66, 49
4, 18840, Note_on_c, 0, 66, 0
4, 18840, Note_on_c, 0, 71, 49
4, 18960, Note_on_c, 0, 71, 0
4, 18960, Note_on_c, 0, 69, 49
4, 19080, Note_on_c, 0, 69, 0
4, 19080, Note_on_c, 0, 67, 49
4, 19200, Note_on_c, 0, 67, 0
4, 19200, Note_on_c, 0, 69, 49
4, 19320, Note_on_c, 0, 69, 0
4, 19320, Note_on_c, 0, 67, 49
4, 19440, Note_on_c, 0, 67, 0
4, 19440, Note_on_c, 0, 66, 49
4, 19560, Note_on_c, 0, 66, 0
4, 19560, Note_on_c, 0, 67, 49
4, 19680, Note_on_c, 0, 67, 0
4, 19680, Note_on_c, 0, 66, 49
4, 19800, Note_on_c, 0, 66, 0
4, 19800, Note_on_c, 0, 64, 49
4, 19920, Note_on_c, 0, 64, 0
4, 19920, Note_on_c, 0, 62, 49
4, 20040, Note_on_c, 0, 62, 0
4, 20040, Note_on_c, 0, 64, 49
4, 20160, Note_on_c, 0, 64, 0
4, 20160, Note_on_c, 0, 62, 49
4, 20280, Note_on_c, 0, 62, 0
4, 20280, Note_on_c, 0, 61, 49
4, 20400, Note_on_c, 0, 61, 0
4, 20400, Note_on_c, 0, 59, 49
4, 20520, Note_on_c, 0, 59, 0
4, 20520, Note_on_c, 0, 58, 49
4, 20640, Note_on_c, 0, 58, 0
4, 20640, Note_on_c, 0, 59, 49
4, 20760, Note_on_c, 0, 59, 0
4, 20760, Note_on_c, 0, 61, 49
4, 20880, Note_on_c, 0, 61, 0
4, 20880, Note_on_c, 0, 62, 49
4, 21000, Note_on_c, 0, 62, 0
4, 21000, Note_on_c, 0, 65, 49
4, 21120, Note_on_c, 0, 65, 0
4, 21120, Note_on_c, 0, 66, 49
4, 21240, Note_on_c, 0, 66, 0
4, 21240, Note_on_c, 0, 69, 49
4, 21360, Note_on_c, 0, 69, 0
4, 21360, Note_on_c, 0, 68, 49
4, 21480, Note_on_c, 0, 68, 0
4, 21480, Note_on_c, 0, 66, 49
4, 21600, Note_on_c, 0, 66, 0
4, 21600, Note_on_c, 0, 68, 49
4, 21720, Note_on_c, 0, 68, 0
4, 21720, Note_on_c, 0, 71, 49
4, 21840, Note_on_c, 0, 71, 0
4, 21840, Note_on_c, 0, 69, 49
4, 21960, Note_on_c, 0, 69, 0
4, 21960, Note_on_c, 0, 68, 49
4, 22080, Note_on_c, 0, 68, 0
4, 22080, Note_on_c, 0, 69, 49
4, 22200, Note_on_c, 0, 69, 0
4, 22200, Note_on_c, 0, 73, 49
4, 22320, Note_on_c, 0, 73, 0
4, 22320, Note_on_c, 0, 71, 49
4, 22440, Note_on_c, 0, 71, 0
4, 22440, Note_on_c, 0, 69, 49
4, 22560, Note_on_c, 0, 69, 0
4, 22560, Note_on_c, 0, 73, 49
4, 22680, Note_on_c, 0, 73, 0
4, 22680, Note_on_c, 0, 78, 49
4, 22800, Note_on_c, 0, 78, 0
4, 22800, Note_on_c, 0, 76, 49
4, 22920, Note_on_c, 0, 76, 0
4, 22920, Note_on_c, 0, 74, 49
4, 23040, Note_on_c, 0, 74, 0
4, 23040, Note_on_c, 0, 76, 49
4, 23160, Note_on_c, 0, 76, 0
4, 23160, Note_on_c, 0, 74, 49
4, 23280, Note_on_c, 0, 74, 0
4, 23280, Note_on_c, 0, 73, 49
4, 23400, Note_on_c, 0, 73, 0
4, 23400, Note_on_c, 0, 74, 49
4, 23520, Note_on_c, 0, 74, 0
4, 23520, Note_on_c, 0, 73, 49
4, 23640, Note_on_c, 0, 73, 0
4, 23640, Note_on_c, 0, 71, 49
4, 23760, Note_on_c, 0, 71, 0
4, 23760, Note_on_c, 0, 69, 49
4, 23880, Note_on_c, 0, 69, 0
4, 23880, Note_on_c, 0, 71, 49
4, 24000, Note_on_c, 0, 71, 0
4, 24000, Note_on_c, 0, 69, 49
4, 24120, Note_on_c, 0, 69, 0
4, 24120, Note_on_c, 0, 68, 49
4, 24240, Note_on_c, 0, 68, 0
4, 24240, Note_on_c, 0, 66, 49
4, 24360, Note_on_c, 0, 66, 0
4, 24360, Note_on_c, 0, 68, 49
4, 24480, Note_on_c, 0, 68, 0
4, 24480, Note_on_c, 0, 66, 49
4, 24600, Note_on_c, 0, 66, 0
4, 24600, Note_on_c, 0, 64, 49
4, 24720, Note_on_c, 0, 64, 0
4, 24720, Note_on_c, 0, 62, 49
4, 24840, Note_on_c, 0, 62, 0
4, 24840, Note_on_c, 0, 61, 49
4, 24960, Note_on_c, 0, 61, 0
4, 24960, Note_on_c, 0, 59, 88
4, 25080, Note_on_c, 0, 59, 0
4, 25080, Note_on_c, 0, 62, 88
4, 25200, Note_on_c, 0, 62, 0
4, 25200, Note_on_c, 0, 61, 88
4, 25320, Note_on_c, 0, 61, 0
4, 25320, Note_on_c, 0, 59, 88
4, 25440, Note_on_c, 0, 59, 0
4, 25440, Note_on_c, 0, 62, 88
4, 25560, Note_on_c, 0, 62, 0
4, 25560, Note_on_c, 0, 61, 88
4, 25680, Note_on_c, 0, 61, 0
4, 25680, Note_on_c, 0, 59, 88
4, 25800, Note_on_c, 0, 59, 0
4, 25800, Note_on_c, 0, 62, 88
4, 25920, Note_on_c, 0, 62, 0
4, 25920, Note_on_c, 0, 61, 88
4, 26040, Note_on_c, 0, 61, 0
4, 26040, Note_on_c, 0, 59, 88
4, 26160, Note_on_c, 0, 59, 0
4, 26160, Note_on_c, 0, 57, 88
4, 26280, Note_on_c, 0, 57, 0
4, 26280, Note_on_c, 0, 59, 88
4, 26400, Note_on_c, 0, 59, 0
4, 26400, Note_on_c, 0, 57, 88
4, 26520, Note_on_c, 0, 57, 0
4, 26520, Note_on_c, 0, 55, 88
4, 26640, Note_on_c, 0, 55, 0
4, 26640, Note_on_c, 0, 54, 88
4, 26760, Note_on_c, 0, 54, 0
4, 26760, Note_on_c, 0, 55, 88
4, 26880, Note_on_c, 0, 55, 0
4, 26880, Note_on_c, 0, 54, 88
4, 27000, Note_on_c, 0, 54, 0
4, 27000, Note_on_c, 0, 57, 88
4, 27120, Note_on_c, 0, 57, 0
4, 27120, Note_on_c, 0, 55, 88
4, 27240, Note_on_c, 0, 55, 0
4, 27240, Note_on_c, 0, 54, 88
4, 27360, Note_on_c, 0, 54, 0
4, 27360, Note_on_c, 0, 57, 88
4, 27480, Note_on_c, 0, 57, 0
4, 27480, Note_on_c, 0, 55, 88
4, 27600, Note_on_c, 0, 55, 0
4, 27600, Note_on_c, 0, 54, 88
4, 27720, Note_on_c, 0, 54, 0
4, 27720, Note_on_c, 0, 57, 88
4, 27840, Note_on_c, 0, 57, 0
4, 27840, Note_on_c, 0, 55, 88
4, 27960, Note_on_c, 0, 55, 0
4, 27960, Note_on_c, 0, 54, 88
4, 28080, Note_on_c, 0, 54, 0
4, 28080, Note_on_c, 0, 52, 75
4, 28200, Note_on_c, 0, 52, 0
4, 28200, Note_on_c, 0, 55, 75
4, 28320, Note_on_c, 0, 55, 0
4, 28320, Note_on_c, 0, 54, 75
4, 28440, Note_on_c, 0, 54, 0
4, 28440, Note_on_c, 0, 52, 75
4, 28560, Note_on_c, 0, 52, 0
4, 28560, Note_on_c, 0, 50, 62
4, 28680, Note_on_c, 0, 50, 0
4, 28680, Note_on_c, 0, 49, 62
4, 28800, Note_on_c, 0, 49, 0
4, 28800, Note_on_c, 0, 47, 62
4, 28920, Note_on_c, 0, 47, 0
4, 28920, Note_on_c, 0, 50, 62
4, 29040, Note_on_c, 0, 50, 0
4, 29040, Note_on_c, 0, 49, 62
4, 29160, Note_on_c, 0, 49, 0
4, 29160, Note_on_c, 0, 47, 62
4, 29280, Note_on_c, 0, 47, 0
4, 29280, Note_on_c, 0, 49, 62
4, 29400, Note_on_c, 0, 49, 0
4, 29400, Note_on_c, 0, 52, 62
4, 29520, Note_on_c, 0, 52, 0
4, 29520, Note_on_c, 0, 50, 62
4, 29640, Note_on_c, 0, 50, 0
4, 29640, Note_on_c, 0, 49, 62
4, 29760, Note_on_c, 0, 49, 0
4, 29760, Note_on_c, 0, 50, 62
4, 29880, Note_on_c, 0, 50, 0
4, 29880, Note_on_c, 0, 54, 62
4, 30000, Note_on_c, 0, 54, 0
4, 30000, Note_on_c, 0, 52, 62
4, 30120, Note_on_c, 0, 52, 0
4, 30120, Note_on_c, 0, 50, 62
4, 30240, Note_on_c, 0, 50, 0
4, 30240, Note_on_c, 0, 54, 62
4, 30360, Note_on_c, 0, 54, 0
4, 30360, Note_on_c, 0, 59, 62
4, 30480, Note_on_c, 0, 59, 0
4, 30480, Note_on_c, 0, 57, 62
4, 30600, Note_on_c, 0, 57, 0
4, 30600, Note_on_c, 0, 55, 62
4, 30720, Note_on_c, 0, 55, 0
4, 30720, Note_on_c, 0, 57, 62
4, 30840, Note_on_c, 0, 57, 0
4, 30840, Note_on_c, 0, 55, 62
4, 30960, Note_on_c, 0, 55, 0
4, 30960, Note_on_c, 0, 54, 62
4, 31080, Note_on_c, 0, 54, 0
4, 31080, Note_on_c, 0, 55, 62
4, 31200, Note_on_c, 0, 55, 0
4, 31200, Note_on_c, 0, 54, 62
4, 31320, Note_on_c, 0, 54, 0
4, 31320, Note_on_c, 0, 52, 62
4, 31440, Note_on_c, 0, 52, 0
4, 31440, Note_on_c, 0, 50, 62
4, 31560, Note_on_c, 0, 50, 0
4, 31560, Note_on_c, 0, 49, 62
4, 31680, Note_on_c, 0, 49, 0
4, 31680, Note_on_c, 0, 50, 62
4, 31800, Note_on_c, 0, 50, 0
4, 31800, Note_on_c, 0, 49, 62
4, 31920, Note_on_c, 0, 49, 0
4, 31920, Note_on_c, 0, 47, 62
4, 32040, Note_on_c, 0, 47, 0
4, 32040, Note_on_c, 0, 49, 62
4, 32160, Note_on_c, 0, 49, 0
4, 32160, Note_on_c, 0, 50, 62
4, 32280, Note_on_c, 0, 50, 0
4, 32280, Note_on_c, 0, 52, 62
4, 32400, Note_on_c, 0, 52, 0
4, 32400, Note_on_c, 0, 54, 62
4, 32520, Note_on_c, 0, 54, 0
4, 32520, Note_on_c, 0, 57, 62
4, 32640, Note_on_c, 0, 57, 0
4, 32640, Note_on_c, 0, 59, 88
4, 32760, Note_on_c, 0, 59, 0
4, 32760, Note_on_c, 0, 62, 88
4, 32880, Note_on_c, 0, 62, 0
4, 32880, Note_on_c, 0, 61, 88
4, 33000, Note_on_c, 0, 61, 0
4, 33000, Note_on_c, 0, 59, 88
4, 33120, Note_on_c, 0, 59, 0
4, 33120, Note_on_c, 0, 62, 88
4, 33240, Note_on_c, 0, 62, 0
4, 33240, Note_on_c, 0, 61, 88
4, 33360, Note_on_c, 0, 61, 0
4, 33360, Note_on_c, 0, 59, 88
4, 33480, Note_on_c, 0, 59, 0
4, 33480, Note_on_c, 0, 62, 88
4, 33600, Note_on_c, 0, 62, 0
4, 33600, Note_on_c, 0, 61, 88
4, 33720, Note_on_c, 0, 61, 0
4, 33720, Note_on_c, 0, 59, 88
4, 33840, Note_on_c, 0, 59, 0
4, 33840, Note_on_c, 0, 57, 88
4, 33960, Note_on_c, 0, 57, 0
4, 33960, Note_on_c, 0, 59, 88
4, 34080, Note_on_c, 0, 59, 0
4, 34080, Note_on_c, 0, 57, 88
4, 34200, Note_on_c, 0, 57, 0
4, 34200, Note_on_c, 0, 55, 88
4, 34320, Note_on_c, 0, 55, 0
4, 34320, Note_on_c, 0, 54, 88
4, 34440, Note_on_c, 0, 54, 0
4, 34440, Note_on_c, 0, 55, 88
4, 34560, Note_on_c, 0, 55, 0
4, 34560, Note_on_c, 0, 54, 88
4, 34680, Note_on_c, 0, 54, 0
4, 34680, Note_on_c, 0, 57, 88
4, 34800, Note_on_c, 0, 57, 0
4, 34800, Note_on_c, 0, 55, 88
4, 34920, Note_on_c, 0, 55, 0
4, 34920, Note_on_c, 0, 54, 88
4, 35040, Note_on_c, 0, 54, 0
4, 35040, Note_on_c, 0, 57, 88
4, 35160, Note_on_c, 0, 57, 0
4, 35160, Note_on_c, 0, 55, 88
4, 35280, Note_on_c, 0, 55, 0
4, 35280, Note_on_c, 0, 54, 88
4, 35400, Note_on_c, 0, 54, 0
4, 35400, Note_on_c, 0, 57, 88
4, 35520, Note_on_c, 0, 57, 0
4, 35520, Note_on_c, 0, 55, 88
4, 35640, Note_on_c, 0, 55, 0
4, 35640, Note_on_c, 0, 54, 88
4, 35760, Note_on_c, 0, 54, 0
4, 35760, Note_on_c, 0, 52, 75
4, 35880, Note_on_c, 0, 52, 0
4, 35880, Note_on_c, 0, 55, 75
4, 36000, Note_on_c, 0, 55, 0
4, 36000, Note_on_c, 0, 54, 75
4, 36120, Note_on_c, 0, 54, 0
4, 36120, Note_on_c, 0, 52, 75
4, 36240, Note_on_c, 0, 52, 0
4, 36240, Note_on_c, 0, 50, 62
4, 36360, Note_on_c, 0, 50, 0
4, 36360, Note_on_c, 0, 49, 62
4, 36480, Note_on_c, 0, 49, 0
4, 36480, Note_on_c, 0, 47, 62
4, 36600, Note_on_c, 0, 47, 0
4, 36600, Note_on_c, 0, 50, 62
4, 36720, Note_on_c, 0, 50, 0
4, 36720, Note_on_c, 0, 49, 62
4, 36840, Note_on_c, 0, 49, 0
4, 36840, Note_on_c, 0, 47, 62
4, 36960, Note_on_c, 0, 47, 0
4, 36960, Note_on_c, 0, 49, 62
4, 37080, Note_on_c, 0, 49, 0
4, 37080, Note_on_c, 0, 52, 62
4, 37200, Note_on_c, 0, 52, 0
4, 37200, Note_on_c, 0, 50, 62
4, 37320, Note_on_c, 0, 50, 0
4, 37320, Note_on_c, 0, 49, 62
4, 37440, Note_on_c, 0, 49, 0
4, 37440, Note_on_c, 0, 50, 62
4, 37560, Note_on_c, 0, 50, 0
4, 37560, Note_on_c, 0, 54, 62
4, 37680, Note_on_c, 0, 54, 0
4, 37680, Note_on_c, 0, 52, 62
4, 37800, Note_on_c, 0, 52, 0
4, 37800, Note_on_c, 0, 50, 62
4, 37920, Note_on_c, 0, 50, 0
4, 37920, Note_on_c, 0, 54, 62
4, 38040, Note_on_c, 0, 54, 0
4, 38040, Note_on_c, 0, 59, 62
4, 38160, Note_on_c, 0, 59, 0
4, 38160, Note_on_c, 0, 57, 62
4, 38280, Note_on_c, 0, 57, 0
4, 38280, Note_on_c, 0, 55, 62
4, 38400, Note_on_c, 0, 55, 0
4, 38400, Note_on_c, 0, 57, 62
4, 38520, Note_on_c, 0, 57, 0
4, 38520, Note_on_c, 0, 55, 62
4, 38640, Note_on_c, 0, 55, 0
4, 38640, Note_on_c, 0, 54, 62
4, 38760, Note_on_c, 0, 54, 0
4, 38760, Note_on_c, 0, 55, 62
4, 38880, Note_on_c, 0, 55, 0
4, 38880, Note_on_c, 0, 54, 62
4, 39000, Note_on_c, 0, 54, 0
4, 39000, Note_on_c, 0, 52, 62
4, 39120, Note_on_c, 0, 52, 0
4, 39120, Note_on_c, 0, 50, 62
4, 39240, Note_on_c, 0, 50, 0
4, 39240, Note_on_c, 0, 49, 62
4, 39360, Note_on_c, 0, 49, 0
4, 39360, Note_on_c, 0, 50, 62
4, 39480, Note_on_c, 0, 50, 0
4, 39480, Note_on_c, 0, 49, 62
4, 39600, Note_on_c, 0, 49, 0
4, 39600, Note_on_c, 0, 47, 62
4, 39720, Note_on_c, 0, 47, 0
4, 39720, Note_on_c, 0, 57, 62
4, 39840, Note_on_c, 0, 57, 0
4, 39840, Note_on_c, 0, 55, 62
4, 39960, Note_on_c, 0, 55, 0
4, 39960, Note_on_c, 0, 54, 62
4, 40080, Note_on_c, 0, 54, 0
4, 40080, Note_on_c, 0, 52, 62
4, 40200, Note_on_c, 0, 52, 0
4, 40200, Note_on_c, 0, 55, 62
4, 40320, Note_on_c, 0, 55, 0
4, 40320, Note_on_c, 0, 54, 62
4, 40440, Note_on_c, 0, 54, 0
4, 40440, Note_on_c, 0, 52, 62
4, 40560, Note_on_c, 0, 52, 0
4, 40560, Note_on_c, 0, 50, 62
4, 40680, Note_on_c, 0, 50, 0
4, 40680, Note_on_c, 0, 52, 62
4, 40800, Note_on_c, 0, 52, 0
4, 40800, Note_on_c, 0, 50, 62
4, 40920, Note_on_c, 0, 50, 0
4, 40920, Note_on_c, 0, 49, 62
4, 41040, Note_on_c, 0, 49, 0
4, 41040, Note_on_c, 0, 47, 62
4, 41160, Note_on_c, 0, 47, 0
4, 41160, Note_on_c, 0, 45, 62
4, 41280, Note_on_c, 0, 45, 0
4, 41280, Note_on_c, 0, 43, 62
4, 41439, Note_on_c, 0, 43, 0
4, 41439, Note_on_c, 0, 42, 62
4, 41600, Note_on_c, 0, 42, 0
4, 41600, Note_on_c, 0, 40, 62
4, 41760, Note_on_c, 0, 40, 0
4, 41760, Note_on_c, 0, 42, 62
4, 42000, Note_on_c, 0, 42, 0
4, 43680, Note_on_c, 0, 44, 62
4, 44040, Note_on_c, 0, 44, 0
4, 45240, Control_c, 0, 64, 127
4, 45240, Note_on_c, 0, 69, 49
4, 45480, Note_on_c, 0, 69, 0
4, 45480, Note_on_c, 0, 68, 62
4, 45600, Note_on_c, 0, 68, 0
4, 45600, Note_on_c, 0, 67, 62
4, 45720, Note_on_c, 0, 67, 0
4, 45720, Note_on_c, 0, 64, 49
4, 45840, Note_on_c, 0, 64, 0
4, 45840, Note_on_c, 0, 61, 49
4, 45960, Note_on_c, 0, 61, 0
4, 45960, Control_c, 0, 64, 0
4, 45960, Note_on_c, 0, 57, 49
4, 46080, Note_on_c, 0, 57, 0
4, 46080, Control_c, 0, 64, 127
4, 46080, Note_on_c, 0, 62, 49
4, 46080, Note_on_c, 0, 66, 49
4, 46200, Note_on_c, 0, 66, 0
4, 46200, Note_on_c, 0, 62, 0
4, 46200, Note_on_c, 0, 64, 49
4, 46320, Note_on_c, 0, 64, 0
4, 46320, Note_on_c, 0, 62, 49
4, 46440, Note_on_c, 0, 62, 0
4, 46440, Control_c, 0, 64, 0
4, 46440, Note_on_c, 0, 54, 49
4, 46560, Note_on_c, 0, 54, 0
4, 46560, Note_on_c, 0, 57, 49
4, 46560, Note_on_c, 0, 61, 49
4, 47040, Note_on_c, 0, 61, 0
4, 47040, Note_on_c, 0, 57, 0
4, 47040, Control_c, 0, 64, 127
4, 47040, Note_on_c, 0, 59, 49
4, 47040, Note_on_c, 0, 62, 49
4, 47160, Note_on_c, 0, 62, 0
4, 47160, Note_on_c, 0, 59, 0
4, 47160, Note_on_c, 0, 61, 49
4, 47280, Note_on_c, 0, 61, 0
4, 47280, Note_on_c, 0, 59, 49
4, 47400, Note_on_c, 0, 59, 0
4, 47400, Control_c, 0, 64, 0
4, 47400, Note_on_c, 0, 50, 49
4, 47520, Note_on_c, 0, 50, 0
4, 47520, Note_on_c, 0, 54, 49
4, 47520, Note_on_c, 0, 57, 49
4, 48000, Note_on_c, 0, 57, 0
4, 48000, Note_on_c, 0, 54, 0
4, 48120, Control_c, 0, 64, 127
4, 48120, Note_on_c, 0, 62, 49
4, 48360, Note_on_c, 0, 62, 0
4, 48360, Note_on_c, 0, 61, 62
4, 48480, Note_on_c, 0, 61, 0
4, 48480, Note_on_c, 0, 62, 62
4, 48600, Note_on_c, 0, 62, 0
4, 48600, Note_on_c, 0, 67, 49
4, 48720, Note_on_c, 0, 67, 0
4, 48720, Note_on_c, 0, 66, 49
4, 48840, Note_on_c, 0, 66, 0
4, 48840, Control_c, 0, 64, 0
4, 48840, Note_on_c, 0, 64, 49
4, 48960, Note_on_c, 0, 64, 0
4, 48960, Control_c, 0, 64, 127
4, 48960, Note_on_c, 0, 62, 49
4, 49080, Note_on_c, 0, 62, 0
4, 49080, Note_on_c, 0, 61, 49
4, 49200, Note_on_c, 0, 61, 0
4, 49200, Note_on_c, 0, 62, 49
4, 49320, Note_on_c, 0, 62, 0
4, 49320, Control_c, 0, 64, 0
4, 49320, Note_on_c, 0, 64, 49
4, 49440, Note_on_c, 0, 64, 0
4, 49440, Note_on_c, 0, 65, 49
4, 49920, Note_on_c, 0, 65, 0
4, 49920, Control_c, 0, 64, 127
4, 49920, Note_on_c, 0, 66, 49
4, 50040, Note_on_c, 0, 66, 0
4, 50040, Note_on_c, 0, 64, 49
4, 50160, Note_on_c, 0, 64, 0
4, 50160, Note_on_c, 0, 62, 49
4, 50280, Note_on_c, 0, 62, 0
4, 50280, Control_c, 0, 64, 0
4, 50280, Note_on_c, 0, 59, 49
4, 50400, Note_on_c, 0, 59, 0
4, 50400, Note_on_c, 0, 62, 49
4, 50880, Note_on_c, 0, 62, 0
4, 51000, Control_c, 0, 64, 127
4, 51000, Note_on_c, 0, 64, 49
4, 51240, Note_on_c, 0, 64, 0
4, 51240, Note_on_c, 0, 64, 49
4, 51360, Note_on_c, 0, 64, 0
4, 51360, Note_on_c, 0, 69, 49
4, 51480, Note_on_c, 0, 69, 0
4, 51480, Note_on_c, 0, 67, 49
4, 51600, Note_on_c, 0, 67, 0
4, 51600, Note_on_c, 0, 66, 49
4, 51720, Note_on_c, 0, 66, 0
4, 51720, Control_c, 0, 64, 0
4, 51720, Note_on_c, 0, 69, 49
4, 51840, Note_on_c, 0, 69, 0
4, 51840, Control_c, 0, 64, 127
4, 51840, Note_on_c, 0, 67, 49
4, 51960, Note_on_c, 0, 67, 0
4, 51960, Note_on_c, 0, 66, 49
4, 52080, Note_on_c, 0, 66, 0
4, 52080, Note_on_c, 0, 64, 49
4, 52200, Note_on_c, 0, 64, 0
4, 52200, Control_c, 0, 64, 0
4, 52200, Note_on_c, 0, 63, 49
4, 52320, Note_on_c, 0, 63, 0
4, 52320, Note_on_c, 0, 64, 49
4, 52680, Note_on_c, 0, 64, 0
4, 52680, Note_on_c, 0, 61, 49
4, 52800, Note_on_c, 0, 61, 0
4, 52800, Control_c, 0, 64, 127
4, 52800, Note_on_c, 0, 62, 49
4, 52920, Note_on_c, 0, 62, 0
4, 52920, Note_on_c, 0, 61, 49
4, 53040, Note_on_c, 0, 61, 0
4, 53040, Note_on_c, 0, 59, 49
4, 53160, Note_on_c, 0, 59, 0
4, 53160, Control_c, 0, 64, 0
4, 53160, Note_on_c, 0, 57, 49
4, 53280, Note_on_c, 0, 57, 0
4, 53280, Note_on_c, 0, 60, 49
4, 53640, Note_on_c, 0, 60, 0
4, 53640, Note_on_c, 0, 54, 49
4, 53760, Note_on_c, 0, 54, 0
4, 53880, Note_on_c, 0, 67, 49
4, 54120, Note_on_c, 0, 67, 0
4, 54120, Note_on_c, 0, 66, 49
4, 54240, Note_on_c, 0, 66, 0
4, 54240, Control_c, 0, 64, 127
4, 54240, Note_on_c, 0, 66, 49
4, 54360, Note_on_c, 0, 66, 0
4, 54360, Note_on_c, 0, 64, 49
4, 54480, Note_on_c, 0, 64, 0
4, 54480, Note_on_c, 0, 62, 49
4, 54600, Note_on_c, 0, 62, 0
4, 54600, Control_c, 0, 64, 0
4, 54600, Note_on_c, 0, 59, 49
4, 54720, Note_on_c, 0, 59, 0
4, 54720, Note_on_c, 0, 57, 49
4, 54720, Note_on_c, 0, 62, 49
4, 54743, Note_on_c, 0, 62, 0
4, 54743, Note_on_c, 0, 57, 0
4, 54960, Note_on_c, 0, 66, 49
4, 54983, Note_on_c, 0, 66, 0
4, 55200, Note_on_c, 0, 57, 49
4, 55200, Note_on_c, 0, 67, 49
4, 55223, Note_on_c, 0, 67, 0
4, 55223, Note_on_c, 0, 57, 0
4, 55440, Note_on_c, 0, 64, 49
4, 55463, Note_on_c, 0, 64, 0
4, 56160, Note_on_c, 0, 55, 49
4, 56160, Note_on_c, 0, 59, 49
4, 56400, Note_on_c, 0, 59, 0
4, 56400, Note_on_c, 0, 55, 0
4, 56640, Note_on_c, 0, 54, 49
4, 56640, Note_on_c, 0, 57, 49
4, 58560, Note_on_c, 0, 57, 0
4, 58560, Note_on_c, 0, 54, 0
4, 58560, End_track
5, 0, Start_track
5, 0, Title_t, "Instrument19"
5, 0, Program_c, 0, 0
5, 0, Control_c, 0, 7, 110
5, 0, Control_c, 0, 10, 30
5, 1320, Note_on_c, 0, 38, 62
5, 1335, Note_on_c, 0, 38, 0
5, 1440, Note_on_c, 0, 38, 62
5, 1463, Note_on_c, 0, 38, 0
5, 1680, Note_on_c, 0, 38, 62
5, 1703, Note_on_c, 0, 38, 0
5, 2280, Note_on_c, 0, 38, 62
5, 2295, Note_on_c, 0, 38, 0
5, 2400, Note_on_c, 0, 38, 62
5, 2423, Note_on_c, 0, 38, 0
5, 2640, Note_on_c, 0, 38, 62
5, 2663, Note_on_c, 0, 38, 0
5, 4200, Note_on_c, 0, 38, 62
5, 4215, Note_on_c, 0, 38, 0
5, 4320, Note_on_c, 0, 38, 62
5, 4343, Note_on_c, 0, 38, 0
5, 4560, Note_on_c, 0, 38, 62
5, 4583, Note_on_c, 0, 38, 0
5, 5160, Note_on_c, 0, 38, 62
5, 5175, Note_on_c, 0, 38, 0
5, 5280, Note_on_c, 0, 38, 62
5, 5303, Note_on_c, 0, 38, 0
5, 5520, Note_on_c, 0, 38, 62
5, 5543, Note_on_c, 0, 38, 0
5, 7080, Note_on_c, 0, 45, 62
5, 7095, Note_on_c, 0, 45, 0
5, 7200, Note_on_c, 0, 45, 62
5, 7223, Note_on_c, 0, 45, 0
5, 7440, Note_on_c, 0, 45, 62
5, 7463, Note_on_c, 0, 45, 0
5, 8040, Note_on_c, 0, 38, 62
5, 8055, Note_on_c, 0, 38, 0
5, 8160, Note_on_c, 0, 38, 62
5, 8183, Note_on_c, 0, 38, 0
5, 8400, Note_on_c, 0, 38, 62
5, 8423, Note_on_c, 0, 38, 0
5, 9960, Note_on_c, 0, 33, 62
5, 9975, Note_on_c, 0, 33, 0
5, 10080, Note_on_c, 0, 33, 62
5, 10103, Note_on_c, 0, 33, 0
5, 10320, Note_on_c, 0, 33, 62
5, 10343, Note_on_c, 0, 33, 0
5, 10920, Note_on_c, 0, 38, 62
5, 10935, Note_on_c, 0, 38, 0
5, 11040, Note_on_c, 0, 38, 62
5, 11063, Note_on_c, 0, 38, 0
5, 11280, Note_on_c, 0, 38, 62
5, 11303, Note_on_c, 0, 38, 0
5, 12840, Note_on_c, 0, 45, 62
5, 12855, Note_on_c, 0, 45, 0
5, 12960, Note_on_c, 0, 45, 62
5, 12983, Note_on_c, 0, 45, 0
5, 13200, Note_on_c, 0, 45, 62
5, 13223, Note_on_c, 0, 45, 0
5, 13800, Note_on_c, 0, 38, 62
5, 13815, Note_on_c, 0, 38, 0
5, 13920, Note_on_c, 0, 38, 62
5, 13943, Note_on_c, 0, 38, 0
5, 14160, Note_on_c, 0, 38, 62
5, 14183, Note_on_c, 0, 38, 0
5, 15720, Note_on_c, 0, 33, 62
5, 15735, Note_on_c, 0, 33, 0
5, 15840, Note_on_c, 0, 33, 62
5, 15863, Note_on_c, 0, 33, 0
5, 16080, Note_on_c, 0, 33, 62
5, 16103, Note_on_c, 0, 33, 0
5, 16680, Note_on_c, 0, 38, 62
5, 16695, Note_on_c, 0, 38, 0
5, 16800, Note_on_c, 0, 38, 62
5, 16823, Note_on_c, 0, 38, 0
5, 17040, Note_on_c, 0, 38, 62
5, 17063, Note_on_c, 0, 38, 0
5, 17280, Note_on_c, 0, 35, 62
5, 17303, Note_on_c, 0, 35, 0
5, 17760, Note_on_c, 0, 34, 62
5, 17783, Note_on_c, 0, 34, 0
5, 18240, Note_on_c, 0, 35, 62
5, 18263, Note_on_c, 0, 35, 0
5, 18720, Note_on_c, 0, 26, 62
5, 18720, Note_on_c, 0, 38, 62
5, 18743, Note_on_c, 0, 38, 0
5, 18743, Note_on_c, 0, 26, 0
5, 19200, Note_on_c, 0, 28, 62
5, 19200, Note_on_c, 0, 40, 62
5, 19223, Note_on_c, 0, 40, 0
5, 19223, Note_on_c, 0, 28, 0
5, 19680, Note_on_c, 0, 30, 62
5, 19680, Note_on_c, 0, 42, 62
5, 19703, Note_on_c, 0, 42, 0
5, 19703, Note_on_c, 0, 30, 0
5, 20160, Note_on_c, 0, 35, 62
5, 20160, Note_on_c, 0, 47, 62
5, 20183, Note_on_c, 0, 47, 0
5, 20183, Note_on_c, 0, 35, 0
5, 20640, Note_on_c, 0, 35, 62
5, 20663, Note_on_c, 0, 35, 0
5, 21120, Note_on_c, 0, 30, 62
5, 21120, Note_on_c, 0, 42, 62
5, 21143, Note_on_c, 0, 42, 0
5, 21143, Note_on_c, 0, 30, 0
5, 21600, Note_on_c, 0, 29, 62
5, 21600, Note_on_c, 0, 41, 62
5, 21623, Note_on_c, 0, 41, 0
5, 21623, Note_on_c, 0, 29, 0
5, 22080, Note_on_c, 0, 30, 62
5, 22080, Note_on_c, 0, 42, 62
5, 22103, Note_on_c, 0, 42, 0
5, 22103, Note_on_c, 0, 30, 0
5, 22560, Note_on_c, 0, 33, 62
5, 22560, Note_on_c, 0, 45, 62
5, 22583, Note_on_c, 0, 45, 0
5, 22583, Note_on_c, 0, 33, 0
5, 23040, Note_on_c, 0, 35, 62
5, 23040, Note_on_c, 0, 47, 62
5, 23063, Note_on_c, 0, 47, 0
5, 23063, Note_on_c, 0, 35, 0
5, 23520, Note_on_c, 0, 37, 62
5, 23520, Note_on_c, 0, 49, 62
5, 23543, Note_on_c, 0, 49, 0
5, 23543, Note_on_c, 0, 37, 0
5, 24000, Note_on_c, 0, 30, 62
5, 24000, Note_on_c, 0, 42, 62
5, 24023, Note_on_c, 0, 42, 0
5, 24023, Note_on_c, 0, 30, 0
5, 24480, Note_on_c, 0, 42, 62
5, 24503, Note_on_c, 0, 42, 0
5, 24960, Note_on_c, 0, 31, 101
5, 24960, Note_on_c, 0, 43, 101
5, 25440, Note_on_c, 0, 43, 0
5, 25440, Note_on_c, 0, 31, 0
5, 25440, Note_on_c, 0, 43, 75
5, 25440, Note_on_c, 0, 55, 75
5, 25463, Note_on_c, 0, 55, 0
5, 25463, Note_on_c, 0, 43, 0
5, 25680, Note_on_c, 0, 31, 75
5, 25680, Note_on_c, 0, 43, 75
5, 25703, Note_on_c, 0, 43, 0
5, 25703, Note_on_c, 0, 31, 0
5, 25920, Note_on_c, 0, 33, 101
5, 25920, Note_on_c, 0, 45, 101
5, 26880, Note_on_c, 0, 45, 0
5, 26880, Note_on_c, 0, 33, 0
5, 26880, Note_on_c, 0, 26, 101
5, 26880, Note_on_c, 0, 38, 101
5, 27360, Note_on_c, 0, 38, 0
5, 27360, Note_on_c, 0, 26, 0
5, 27360, Note_on_c, 0, 38, 75
5, 27360, Note_on_c, 0, 50, 75
5, 27383, Note_on_c, 0, 50, 0
5, 27383, Note_on_c, 0, 38, 0
5, 27600, Note_on_c, 0, 26, 75
5, 27600, Note_on_c, 0, 38, 75
5, 27623, Note_on_c, 0, 38, 0
5, 27623, Note_on_c, 0, 26, 0
5, 27840, Note_on_c, 0, 30, 101
5, 27840, Note_on_c, 0, 42, 101
5, 28800, Note_on_c, 0, 42, 0
5, 28800, Note_on_c, 0, 30, 0
5, 28800, Note_on_c, 0, 35, 62
5, 28823, Note_on_c, 0, 35, 0
5, 29280, Note_on_c, 0, 34, 62
5, 29303, Note_on_c, 0, 34, 0
5, 29760, Note_on_c, 0, 35, 62
5, 29783, Note_on_c, 0, 35, 0
5, 30240, Note_on_c, 0, 26, 62
5, 30240, Note_on_c, 0, 38, 62
5, 30263, Note_on_c, 0, 38, 0
5, 30263, Note_on_c, 0, 26, 0
5, 30720, Note_on_c, 0, 28, 62
5, 30720, Note_on_c, 0, 40, 62
5, 30743, Note_on_c, 0, 40, 0
5, 30743, Note_on_c, 0, 28, 0
5, 31200, Note_on_c, 0, 30, 62
5, 31200, Note_on_c, 0, 42, 62
5, 31223, Note_on_c, 0, 42, 0
5, 31223, Note_on_c, 0, 30, 0
5, 31680, Note_on_c, 0, 35, 62
5, 31703, Note_on_c, 0, 35, 0
5, 32160, Note_on_c, 0, 47, 62
5, 32183, Note_on_c, 0, 47, 0
5, 32640, Note_on_c, 0, 31, 101
5, 32640, Note_on_c, 0, 43, 101
5, 33120, Note_on_c, 0, 43, 0
5, 33120, Note_on_c, 0, 31, 0
5, 33120, Note_on_c, 0, 43, 75
5, 33120, Note_on_c, 0, 55, 75
5, 33143, Note_on_c, 0, 55, 0
5, 33143, Note_on_c, 0, 43, 0
5, 33360, Note_on_c, 0, 31, 75
5, 33360, Note_on_c, 0, 43, 75
5, 33383, Note_on_c, 0, 43, 0
5, 33383, Note_on_c, 0, 31, 0
5, 33600, Note_on_c, 0, 33, 101
5, 33600, Note_on_c, 0, 45, 101
5, 34560, Note_on_c, 0, 45, 0
5, 34560, Note_on_c, 0, 33, 0
5, 34560, Note_on_c, 0, 26, 101
5, 34560, Note_on_c, 0, 38, 101
5, 35040, Note_on_c, 0, 38, 0
5, 35040, Note_on_c, 0, 26, 0
5, 35040, Note_on_c, 0, 38, 75
5, 35040, Note_on_c, 0, 50, 75
5, 35063, Note_on_c, 0, 50, 0
5, 35063, Note_on_c, 0, 38, 0
5, 35280, Note_on_c, 0, 26, 75
5, 35280, Note_on_c, 0, 38, 75
5, 35303, Note_on_c, 0, 38, 0
5, 35303, Note_on_c, 0, 26, 0
5, 35520, Note_on_c, 0, 30, 101
5, 35520, Note_on_c, 0, 42, 101
5, 36480, Note_on_c, 0, 42, 0
5, 36480, Note_on_c, 0, 30, 0
5, 36480, Note_on_c, 0, 35, 62
5, 36503, Note_on_c, 0, 35, 0
5, 36960, Note_on_c, 0, 34, 62
5, 36983, Note_on_c, 0, 34, 0
5, 37440, Note_on_c, 0, 35, 62
5, 37463, Note_on_c, 0, 35, 0
5, 37920, Note_on_c, 0, 26, 62
5, 37920, Note_on_c, 0, 38, 62
5, 37943, Note_on_c, 0, 38, 0
5, 37943, Note_on_c, 0, 26, 0
5, 38400, Note_on_c, 0, 28, 62
5, 38400, Note_on_c, 0, 40, 62
5, 38423, Note_on_c, 0, 40, 0
5, 38423, Note_on_c, 0, 28, 0
5, 38880, Note_on_c, 0, 30, 62
5, 38880, Note_on_c, 0, 42, 62
5, 38903, Note_on_c, 0, 42, 0
5, 38903, Note_on_c, 0, 30, 0
5, 39360, Note_on_c, 0, 35, 62
5, 39383, Note_on_c, 0, 35, 0
5, 39840, Note_on_c, 0, 28, 62
5, 39840, Note_on_c, 0, 40, 62
5, 39863, Note_on_c, 0, 40, 0
5, 39863, Note_on_c, 0, 28, 0
5, 40320, Note_on_c, 0, 30, 62
5, 40320, Note_on_c, 0, 42, 62
5, 40343, Note_on_c, 0, 42, 0
5, 40343, Note_on_c, 0, 30, 0
5, 40800, Note_on_c, 0, 35, 62
5, 40823, Note_on_c, 0, 35, 0
5, 41280, Note_on_c, 0, 28, 62
5, 41280, Note_on_c, 0, 40, 62
5, 41303, Note_on_c, 0, 40, 0
5, 41303, Note_on_c, 0, 28, 0
5, 41760, Note_on_c, 0, 30, 62
5, 41783, Note_on_c, 0, 30, 0
5, 42720, Note_on_c, 0, 35, 62
5, 43080, Note_on_c, 0, 35, 0
5, 43680, Note_on_c, 0, 32, 62
5, 44040, Note_on_c, 0, 32, 0
5, 45120, Note_on_c, 0, 57, 62
5, 45360, Note_on_c, 0, 57, 0
5, 45360, Note_on_c, 0, 59, 62
5, 45600, Note_on_c, 0, 59, 0
5, 45600, Note_on_c, 0, 61, 62
5, 45840, Note_on_c, 0, 61, 0
5, 46440, Note_on_c, 0, 38, 62
5, 46455, Note_on_c, 0, 38, 0
5, 46560, Note_on_c, 0, 38, 62
5, 46583, Note_on_c, 0, 38, 0
5, 46800, Note_on_c, 0, 38, 62
5, 46823, Note_on_c, 0, 38, 0
5, 47400, Note_on_c, 0, 38, 62
5, 47415, Note_on_c, 0, 38, 0
5, 47520, Note_on_c, 0, 38, 62
5, 47543, Note_on_c, 0, 38, 0
5, 47760, Note_on_c, 0, 38, 62
5, 47783, Note_on_c, 0, 38, 0
5, 48000, Note_on_c, 0, 55, 62
5, 48240, Note_on_c, 0, 55, 0
5, 48240, Note_on_c, 0, 50, 62
5, 48480, Note_on_c, 0, 50, 0
5, 48480, Note_on_c, 0, 55, 62
5, 48720, Note_on_c, 0, 55, 0
5, 49320, Note_on_c, 0, 38, 62
5, 49335, Note_on_c, 0, 38, 0
5, 49440, Note_on_c, 0, 38, 62
5, 49463, Note_on_c, 0, 38, 0
5, 49680, Note_on_c, 0, 38, 62
5, 49703, Note_on_c, 0, 38, 0
5, 50280, Note_on_c, 0, 38, 62
5, 50295, Note_on_c, 0, 38, 0
5, 50400, Note_on_c, 0, 38, 62
5, 50423, Note_on_c, 0, 38, 0
5, 50640, Note_on_c, 0, 38, 62
5, 50663, Note_on_c, 0, 38, 0
5, 50880, Note_on_c, 0, 45, 62
5, 50880, Note_on_c, 0, 57, 62
5, 51120, Note_on_c, 0, 57, 0
5, 51120, Note_on_c, 0, 45, 0
5, 51120, Note_on_c, 0, 55, 62
5, 51360, Note_on_c, 0, 55, 0
5, 51360, Note_on_c, 0, 54, 62
5, 51600, Note_on_c, 0, 54, 0
5, 52200, Note_on_c, 0, 45, 62
5, 52215, Note_on_c, 0, 45, 0
5, 52320, Note_on_c, 0, 45, 62
5, 52343, Note_on_c, 0, 45, 0
5, 52560, Note_on_c, 0, 45, 62
5, 52583, Note_on_c, 0, 45, 0
5, 53160, Note_on_c, 0, 38, 62
5, 53175, Note_on_c, 0, 38, 0
5, 53280, Note_on_c, 0, 38, 62
5, 53303, Note_on_c, 0, 38, 0
5, 53520, Note_on_c, 0, 38, 62
5, 53543, Note_on_c, 0, 38, 0
5, 55080, Note_on_c, 0, 33, 62
5, 55095, Note_on_c, 0, 33, 0
5, 55200, Note_on_c, 0, 33, 62
5, 55223, Note_on_c, 0, 33, 0
5, 55440, Note_on_c, 0, 33, 62
5, 55463, Note_on_c, 0, 33, 0
5, 56640, Note_on_c, 0, 50, 62
5, 58560, Note_on_c, 0, 50, 0
5, 58560, End_track
0, 0, End_of_file
