0, 0, Header, 1, 5, 480
1, 0, Start_track
1, 0, Title_t, "brahms hungarian dance no.19 in b minor, 4 hands"
1, 0, Copyright_t, "Segundo G. Yogore,  dody@info.com.ph \012__________________________________________________________\012Kunst der Fuge comment: this is the Contributor's property.\012Can *not* be used for commercial purposes without authorization!\012Copyright by Contributor - Kunst der Fuge, © 2002-05\012http://www.kunstderfuge.com/thanks.htm -> Contributors' list\012http://www.kunstderfuge.com/notes.htm -> Terms & conditions"
1, 0, Text_t, "sequenced by Segundo G. Yogore, 2004\012"
1, 0, Time_signature, 2, 2, 24, 8
1, 0, Key_signature, 2, "major"
1, 0, Tempo, 545455
1, 12240, Tempo, 545455
1, 19920, Tempo, 545455
1, 23040, Key_signature, 5, "major"
1, 23040, Tempo, 400000
1, 30720, Tempo, 400000
1, 52800, Time_signature, 4, 2, 24, 8
1, 54720, Time_signature, 2, 2, 24, 8
1, 54720, Key_signature, 2, "major"
1, 54720, Tempo, 545455
1, 66960, Tempo, 545455
1, 74640, Tempo, 545455
1, 77760, Time_signature, 6, 2, 24, 8
1, 77760, End_track
2, 0, Start_track
2, 0, Title_t, "Grand Piano"
2, 0, Program_c, 0, 0
2, 0, Control_c, 0, 7, 110
2, 0, Control_c, 0, 10, 97
2, 0, Note_on_c, 0, 66, 62
2, 23, Note_on_c, 0, 66, 0
2, 120, Note_on_c, 0, 71, 62
2, 180, Note_on_c, 0, 71, 0
2, 180, Note_on_c, 0, 73, 62
2, 240, Note_on_c, 0, 73, 0
2, 240, Note_on_c, 0, 71, 62
2, 480, Note_on_c, 0, 71, 0
2, 480, Note_on_c, 0, 70, 62
2, 503, Note_on_c, 0, 70, 0
2, 720, Note_on_c, 0, 71, 62
2, 743, Note_on_c, 0, 71, 0
2, 960, Note_on_c, 0, 73, 62
2, 975, Note_on_c, 0, 73, 0
2, 1080, Note_on_c, 0, 71, 62
2, 1095, Note_on_c, 0, 71, 0
2, 1200, Note_on_c, 0, 70, 62
2, 1215, Note_on_c, 0, 70, 0
2, 1320, Note_on_c, 0, 73, 62
2, 1335, Note_on_c, 0, 73, 0
2, 1440, Note_on_c, 0, 71, 88
2, 1740, Note_on_c, 0, 71, 0
2, 1740, Control_c, 0, 64, 127
2, 1740, Note_on_c, 0, 85, 62
2, 1800, Note_on_c, 0, 85, 0
2, 1800, Note_on_c, 0, 82, 62
2, 1860, Note_on_c, 0, 82, 0
2, 1860, Note_on_c, 0, 83, 62
2, 1920, Note_on_c, 0, 83, 0
2, 1920, Control_c, 0, 64, 0
2, 1920, Note_on_c, 0, 86, 62
2, 1935, Note_on_c, 0, 86, 0
2, 2040, Note_on_c, 0, 85, 62
2, 2055, Note_on_c, 0, 85, 0
2, 2160, Note_on_c, 0, 83, 62
2, 2175, Note_on_c, 0, 83, 0
2, 2280, Note_on_c, 0, 86, 62
2, 2295, Note_on_c, 0, 86, 0
2, 2400, Note_on_c, 0, 85, 62
2, 2415, Note_on_c, 0, 85, 0
2, 2520, Note_on_c, 0, 83, 62
2, 2535, Note_on_c, 0, 83, 0
2, 2640, Note_on_c, 0, 82, 62
2, 2655, Note_on_c, 0, 82, 0
2, 2760, Note_on_c, 0, 85, 62
2, 2775, Note_on_c, 0, 85, 0
2, 2880, Note_on_c, 0, 83, 62
2, 2895, Note_on_c, 0, 83, 0
2, 3000, Note_on_c, 0, 78, 62
2, 3015, Note_on_c, 0, 78, 0
2, 3120, Note_on_c, 0, 80, 62
2, 3135, Note_on_c, 0, 80, 0
2, 3240, Note_on_c, 0, 82, 62
2, 3255, Note_on_c, 0, 82, 0
2, 3360, Note_on_c, 0, 83, 62
2, 3375, Note_on_c, 0, 83, 0
2, 3480, Note_on_c, 0, 85, 62
2, 3495, Note_on_c, 0, 85, 0
2, 3600, Note_on_c, 0, 86, 62
2, 3615, Note_on_c, 0, 86, 0
2, 3720, Note_on_c, 0, 83, 62
2, 3735, Note_on_c, 0, 83, 0
2, 3840, Note_on_c, 0, 85, 62
2, 3863, Note_on_c, 0, 85, 0
2, 3960, Note_on_c, 0, 78, 62
2, 4020, Note_on_c, 0, 78, 0
2, 4020, Note_on_c, 0, 80, 62
2, 4080, Note_on_c, 0, 80, 0
2, 4080, Note_on_c, 0, 78, 62
2, 4320, Note_on_c, 0, 78, 0
2, 4320, Note_on_c, 0, 77, 62
2, 4343, Note_on_c, 0, 77, 0
2, 4560, Note_on_c, 0, 78, 62
2, 4583, Note_on_c, 0, 78, 0
2, 4800, Note_on_c, 0, 80, 62
2, 4815, Note_on_c, 0, 80, 0
2, 4920, Note_on_c, 0, 78, 62
2, 4935, Note_on_c, 0, 78, 0
2, 5040, Note_on_c, 0, 77, 62
2, 5055, Note_on_c, 0, 77, 0
2, 5160, Note_on_c, 0, 80, 62
2, 5175, Note_on_c, 0, 80, 0
2, 5280, Note_on_c, 0, 78, 62
2, 5580, Note_on_c, 0, 78, 0
2, 5580, Control_c, 0, 64, 127
2, 5580, Note_on_c, 0, 92, 62
2, 5640, Note_on_c, 0, 92, 0
2, 5640, Note_on_c, 0, 89, 62
2, 5700, Note_on_c, 0, 89, 0
2, 5700, Note_on_c, 0, 90, 62
2, 5760, Note_on_c, 0, 90, 0
2, 5760, Control_c, 0, 64, 0
2, 5760, Note_on_c, 0, 93, 62
2, 5775, Note_on_c, 0, 93, 0
2, 5880, Note_on_c, 0, 92, 62
2, 5895, Note_on_c, 0, 92, 0
2, 6000, Note_on_c, 0, 90, 62
2, 6015, Note_on_c, 0, 90, 0
2, 6120, Note_on_c, 0, 93, 62
2, 6135, Note_on_c, 0, 93, 0
2, 6240, Note_on_c, 0, 92, 62
2, 6255, Note_on_c, 0, 92, 0
2, 6360, Note_on_c, 0, 90, 62
2, 6375, Note_on_c, 0, 90, 0
2, 6480, Note_on_c, 0, 89, 62
2, 6495, Note_on_c, 0, 89, 0
2, 6600, Note_on_c, 0, 92, 62
2, 6615, Note_on_c, 0, 92, 0
2, 6720, Note_on_c, 0, 90, 62
2, 6735, Note_on_c, 0, 90, 0
2, 6840, Note_on_c, 0, 85, 62
2, 6855, Note_on_c, 0, 85, 0
2, 6960, Note_on_c, 0, 87, 75
2, 6975, Note_on_c, 0, 87, 0
2, 7080, Note_on_c, 0, 89, 75
2, 7095, Note_on_c, 0, 89, 0
2, 7200, Note_on_c, 0, 90, 75
2, 7223, Note_on_c, 0, 90, 0
2, 7440, Note_on_c, 0, 81, 75
2, 7440, Note_on_c, 0, 93, 75
2, 7463, Note_on_c, 0, 93, 0
2, 7463, Note_on_c, 0, 81, 0
2, 7680, Note_on_c, 0, 79, 101
2, 7680, Note_on_c, 0, 91, 101
2, 8040, Note_on_c, 0, 91, 0
2, 8040, Note_on_c, 0, 79, 0
2, 8040, Note_on_c, 0, 78, 75
2, 8040, Note_on_c, 0, 90, 75
2, 8055, Note_on_c, 0, 90, 0
2, 8055, Note_on_c, 0, 78, 0
2, 8160, Note_on_c, 0, 76, 75
2, 8160, Note_on_c, 0, 88, 75
2, 8183, Note_on_c, 0, 88, 0
2, 8183, Note_on_c, 0, 76, 0
2, 8400, Note_on_c, 0, 79, 75
2, 8400, Note_on_c, 0, 91, 75
2, 8423, Note_on_c, 0, 91, 0
2, 8423, Note_on_c, 0, 79, 0
2, 8640, Note_on_c, 0, 78, 101
2, 8640, Note_on_c, 0, 90, 101
2, 9000, Note_on_c, 0, 90, 0
2, 9000, Note_on_c, 0, 78, 0
2, 9000, Note_on_c, 0, 76, 75
2, 9000, Note_on_c, 0, 88, 75
2, 9015, Note_on_c, 0, 88, 0
2, 9015, Note_on_c, 0, 76, 0
2, 9120, Note_on_c, 0, 74, 75
2, 9120, Note_on_c, 0, 86, 75
2, 9143, Note_on_c, 0, 86, 0
2, 9143, Note_on_c, 0, 74, 0
2, 9360, Note_on_c, 0, 78, 75
2, 9360, Note_on_c, 0, 90, 75
2, 9383, Note_on_c, 0, 90, 0
2, 9383, Note_on_c, 0, 78, 0
2, 9600, Note_on_c, 0, 76, 101
2, 9600, Note_on_c, 0, 88, 101
2, 9960, Note_on_c, 0, 88, 0
2, 9960, Note_on_c, 0, 76, 0
2, 9960, Note_on_c, 0, 74, 75
2, 9960, Note_on_c, 0, 86, 75
2, 9975, Note_on_c, 0, 86, 0
2, 9975, Note_on_c, 0, 74, 0
2, 10080, Note_on_c, 0, 73, 75
2, 10080, Note_on_c, 0, 85, 75
2, 10103, Note_on_c, 0, 85, 0
2, 10103, Note_on_c, 0, 73, 0
2, 10320, Note_on_c, 0, 76, 75
2, 10320, Note_on_c, 0, 88, 75
2, 10343, Note_on_c, 0, 88, 0
2, 10343, Note_on_c, 0, 76, 0
2, 10560, Note_on_c, 0, 74, 101
2, 10560, Note_on_c, 0, 86, 101
2, 10920, Note_on_c, 0, 86, 0
2, 10920, Note_on_c, 0, 74, 0
2, 10920, Note_on_c, 0, 73, 75
2, 10920, Note_on_c, 0, 85, 75
2, 10935, Note_on_c, 0, 85, 0
2, 10935, Note_on_c, 0, 73, 0
2, 11040, Note_on_c, 0, 71, 75
2, 11040, Note_on_c, 0, 83, 75
2, 11063, Note_on_c, 0, 83, 0
2, 11063, Note_on_c, 0, 71, 0
2, 11280, Note_on_c, 0, 86, 75
2, 11303, Note_on_c, 0, 86, 0
2, 11520, Note_on_c, 0, 85, 101
2, 11880, Note_on_c, 0, 85, 0
2, 11880, Note_on_c, 0, 82, 75
2, 12000, Note_on_c, 0, 82, 0
2, 12000, Note_on_c, 0, 78, 75
2, 12240, Note_on_c, 0, 78, 0
2, 12240, Note_on_c, 0, 91, 88
2, 12360, Note_on_c, 0, 91, 0
2, 12360, Note_on_c, 0, 90, 62
2, 12480, Note_on_c, 0, 90, 0
2, 12480, Note_on_c, 0, 90, 88
2, 12600, Note_on_c, 0, 90, 0
2, 12600, Note_on_c, 0, 88, 62
2, 12720, Note_on_c, 0, 88, 0
2, 12720, Note_on_c, 0, 88, 88
2, 12840, Note_on_c, 0, 88, 0
2, 12840, Note_on_c, 0, 86, 62
2, 12960, Note_on_c, 0, 86, 0
2, 12960, Note_on_c, 0, 86, 88
2, 13080, Note_on_c, 0, 86, 0
2, 13080, Note_on_c, 0, 85, 62
2, 13200, Note_on_c, 0, 85, 0
2, 13200, Note_on_c, 0, 85, 88
2, 13320, Note_on_c, 0, 85, 0
2, 13320, Note_on_c, 0, 88, 62
2, 13440, Note_on_c, 0, 88, 0
2, 13440, Note_on_c, 0, 86, 62
2, 13455, Note_on_c, 0, 86, 0
2, 13560, Note_on_c, 0, 85, 62
2, 13575, Note_on_c, 0, 85, 0
2, 13680, Note_on_c, 0, 83, 62
2, 13695, Note_on_c, 0, 83, 0
2, 13800, Note_on_c, 0, 86, 62
2, 13815, Note_on_c, 0, 86, 0
2, 13920, Note_on_c, 0, 85, 62
2, 13935, Note_on_c, 0, 85, 0
2, 14040, Note_on_c, 0, 83, 62
2, 14055, Note_on_c, 0, 83, 0
2, 14160, Note_on_c, 0, 82, 62
2, 14175, Note_on_c, 0, 82, 0
2, 14280, Note_on_c, 0, 85, 62
2, 14295, Note_on_c, 0, 85, 0
2, 14400, Note_on_c, 0, 83, 62
2, 14415, Note_on_c, 0, 83, 0
2, 14520, Note_on_c, 0, 78, 62
2, 14535, Note_on_c, 0, 78, 0
2, 14640, Note_on_c, 0, 80, 62
2, 14655, Note_on_c, 0, 80, 0
2, 14760, Note_on_c, 0, 82, 62
2, 14775, Note_on_c, 0, 82, 0
2, 14880, Note_on_c, 0, 83, 62
2, 14903, Note_on_c, 0, 83, 0
2, 15600, Note_on_c, 0, 86, 75
2, 15600, Note_on_c, 0, 98, 75
2, 15840, Note_on_c, 0, 98, 0
2, 15840, Note_on_c, 0, 86, 0
2, 15840, Note_on_c, 0, 85, 101
2, 15840, Note_on_c, 0, 97, 101
2, 16200, Note_on_c, 0, 97, 0
2, 16200, Note_on_c, 0, 85, 0
2, 16200, Note_on_c, 0, 83, 75
2, 16200, Note_on_c, 0, 95, 75
2, 16215, Note_on_c, 0, 95, 0
2, 16215, Note_on_c, 0, 83, 0
2, 16320, Note_on_c, 0, 81, 75
2, 16320, Note_on_c, 0, 93, 75
2, 16343, Note_on_c, 0, 93, 0
2, 16343, Note_on_c, 0, 81, 0
2, 16560, Note_on_c, 0, 85, 75
2, 16560, Note_on_c, 0, 97, 75
2, 16583, Note_on_c, 0, 97, 0
2, 16583, Note_on_c, 0, 85, 0
2, 16800, Note_on_c, 0, 83, 101
2, 16800, Note_on_c, 0, 95, 101
2, 17160, Note_on_c, 0, 95, 0
2, 17160, Note_on_c, 0, 83, 0
2, 17160, Note_on_c, 0, 81, 75
2, 17160, Note_on_c, 0, 93, 75
2, 17175, Note_on_c, 0, 93, 0
2, 17175, Note_on_c, 0, 81, 0
2, 17280, Note_on_c, 0, 79, 75
2, 17280, Note_on_c, 0, 91, 75
2, 17303, Note_on_c, 0, 91, 0
2, 17303, Note_on_c, 0, 79, 0
2, 17520, Note_on_c, 0, 83, 75
2, 17520, Note_on_c, 0, 95, 75
2, 17543, Note_on_c, 0, 95, 0
2, 17543, Note_on_c, 0, 83, 0
2, 17760, Note_on_c, 0, 81, 101
2, 17760, Note_on_c, 0, 93, 101
2, 18120, Note_on_c, 0, 93, 0
2, 18120, Note_on_c, 0, 81, 0
2, 18120, Note_on_c, 0, 79, 75
2, 18120, Note_on_c, 0, 91, 75
2, 18135, Note_on_c, 0, 91, 0
2, 18135, Note_on_c, 0, 79, 0
2, 18240, Note_on_c, 0, 78, 75
2, 18240, Note_on_c, 0, 90, 75
2, 18263, Note_on_c, 0, 90, 0
2, 18263, Note_on_c, 0, 78, 0
2, 18480, Note_on_c, 0, 81, 75
2, 18480, Note_on_c, 0, 93, 75
2, 18503, Note_on_c, 0, 93, 0
2, 18503, Note_on_c, 0, 81, 0
2, 18720, Note_on_c, 0, 79, 75
2, 18720, Note_on_c, 0, 91, 75
2, 19080, Note_on_c, 0, 91, 0
2, 19080, Note_on_c, 0, 79, 0
2, 19080, Note_on_c, 0, 83, 75
2, 19080, Note_on_c, 0, 95, 75
2, 19200, Note_on_c, 0, 95, 0
2, 19200, Note_on_c, 0, 83, 0
2, 19200, Note_on_c, 0, 82, 75
2, 19200, Note_on_c, 0, 94, 75
2, 19440, Note_on_c, 0, 94, 0
2, 19440, Note_on_c, 0, 82, 0
2, 19440, Note_on_c, 0, 85, 75
2, 19440, Note_on_c, 0, 97, 75
2, 19680, Note_on_c, 0, 97, 0
2, 19680, Note_on_c, 0, 85, 0
2, 19920, Note_on_c, 0, 91, 88
2, 20040, Note_on_c, 0, 91, 0
2, 20040, Note_on_c, 0, 90, 62
2, 20160, Note_on_c, 0, 90, 0
2, 20160, Note_on_c, 0, 90, 88
2, 20280, Note_on_c, 0, 90, 0
2, 20280, Note_on_c, 0, 88, 62
2, 20400, Note_on_c, 0, 88, 0
2, 20400, Note_on_c, 0, 88, 88
2, 20520, Note_on_c, 0, 88, 0
2, 20520, Note_on_c, 0, 86, 62
2, 20640, Note_on_c, 0, 86, 0
2, 20640, Note_on_c, 0, 86, 88
2, 20760, Note_on_c, 0, 86, 0
2, 20760, Note_on_c, 0, 85, 62
2, 20880, Note_on_c, 0, 85, 0
2, 20880, Note_on_c, 0, 85, 88
2, 21000, Note_on_c, 0, 85, 0
2, 21000, Note_on_c, 0, 88, 62
2, 21120, Note_on_c, 0, 88, 0
2, 21120, Note_on_c, 0, 86, 62
2, 21135, Note_on_c, 0, 86, 0
2, 21240, Note_on_c, 0, 85, 62
2, 21255, Note_on_c, 0, 85, 0
2, 21360, Note_on_c, 0, 83, 62
2, 21375, Note_on_c, 0, 83, 0
2, 21480, Note_on_c, 0, 86, 62
2, 21495, Note_on_c, 0, 86, 0
2, 21600, Note_on_c, 0, 85, 62
2, 21615, Note_on_c, 0, 85, 0
2, 21720, Note_on_c, 0, 83, 62
2, 21735, Note_on_c, 0, 83, 0
2, 21840, Note_on_c, 0, 82, 62
2, 21855, Note_on_c, 0, 82, 0
2, 21960, Note_on_c, 0, 85, 62
2, 21975, Note_on_c, 0, 85, 0
2, 22080, Note_on_c, 0, 83, 62
2, 22095, Note_on_c, 0, 83, 0
2, 22200, Note_on_c, 0, 78, 62
2, 22215, Note_on_c, 0, 78, 0
2, 22320, Note_on_c, 0, 80, 62
2, 22335, Note_on_c, 0, 80, 0
2, 22440, Note_on_c, 0, 82, 62
2, 22455, Note_on_c, 0, 82, 0
2, 22560, Note_on_c, 0, 83, 62
2, 22575, Note_on_c, 0, 83, 0
2, 22680, Note_on_c, 0, 90, 62
2, 22695, Note_on_c, 0, 90, 0
2, 22800, Note_on_c, 0, 92, 62
2, 22815, Note_on_c, 0, 92, 0
2, 22920, Note_on_c, 0, 94, 62
2, 22935, Note_on_c, 0, 94, 0
2, 23040, Note_on_c, 0, 95, 62
2, 23063, Note_on_c, 0, 95, 0
2, 23160, Note_on_c, 0, 95, 62
2, 23220, Note_on_c, 0, 95, 0
2, 23220, Note_on_c, 0, 97, 62
2, 23280, Note_on_c, 0, 97, 0
2, 23280, Note_on_c, 0, 95, 62
2, 23520, Note_on_c, 0, 95, 0
2, 23520, Note_on_c, 0, 94, 62
2, 23760, Note_on_c, 0, 94, 0
2, 23760, Note_on_c, 0, 97, 62
2, 24000, Note_on_c, 0, 97, 0
2, 24000, Note_on_c, 0, 95, 62
2, 24023, Note_on_c, 0, 95, 0
2, 24120, Note_on_c, 0, 95, 62
2, 24180, Note_on_c, 0, 95, 0
2, 24180, Note_on_c, 0, 97, 62
2, 24240, Note_on_c, 0, 97, 0
2, 24240, Note_on_c, 0, 95, 62
2, 24480, Note_on_c, 0, 95, 0
2, 24480, Note_on_c, 0, 94, 62
2, 24720, Note_on_c, 0, 94, 0
2, 24720, Note_on_c, 0, 97, 62
2, 24960, Note_on_c, 0, 97, 0
2, 24960, Control_c, 0, 64, 127
2, 24960, Note_on_c, 0, 95, 62
2, 25020, Note_on_c, 0, 95, 0
2, 25020, Note_on_c, 0, 97, 62
2, 25080, Note_on_c, 0, 97, 0
2, 25080, Note_on_c, 0, 95, 62
2, 25140, Note_on_c, 0, 95, 0
2, 25140, Note_on_c, 0, 97, 62
2, 25200, Note_on_c, 0, 97, 0
2, 25200, Note_on_c, 0, 95, 62
2, 25260, Note_on_c, 0, 95, 0
2, 25260, Note_on_c, 0, 97, 62
2, 25320, Note_on_c, 0, 97, 0
2, 25320, Note_on_c, 0, 94, 62
2, 25380, Note_on_c, 0, 94, 0
2, 25380, Note_on_c, 0, 95, 62
2, 25440, Note_on_c, 0, 95, 0
2, 25440, Control_c, 0, 64, 0
2, 25440, Note_on_c, 0, 87, 62
2, 25440, Note_on_c, 0, 99, 62
2, 25463, Note_on_c, 0, 99, 0
2, 25463, Note_on_c, 0, 87, 0
2, 25680, Note_on_c, 0, 83, 62
2, 25680, Note_on_c, 0, 95, 62
2, 25703, Note_on_c, 0, 95, 0
2, 25703, Note_on_c, 0, 83, 0
2, 25920, Note_on_c, 0, 80, 62
2, 25920, Note_on_c, 0, 92, 62
2, 26640, Note_on_c, 0, 92, 0
2, 26640, Note_on_c, 0, 80, 0
2, 26640, Note_on_c, 0, 82, 62
2, 26640, Note_on_c, 0, 94, 62
2, 26663, Note_on_c, 0, 94, 0
2, 26663, Note_on_c, 0, 82, 0
2, 26880, Note_on_c, 0, 83, 62
2, 26880, Note_on_c, 0, 95, 62
2, 27240, Note_on_c, 0, 87, 62
2, 27300, Note_on_c, 0, 87, 0
2, 27300, Note_on_c, 0, 88, 62
2, 27360, Note_on_c, 0, 88, 0
2, 27360, Note_on_c, 0, 95, 0
2, 27360, Note_on_c, 0, 83, 0
2, 27360, Note_on_c, 0, 87, 62
2, 27600, Note_on_c, 0, 87, 0
2, 27600, Note_on_c, 0, 86, 62
2, 27840, Note_on_c, 0, 86, 0
2, 27840, Note_on_c, 0, 75, 62
2, 27840, Note_on_c, 0, 87, 62
2, 28320, Note_on_c, 0, 87, 0
2, 28320, Note_on_c, 0, 75, 0
2, 28320, Note_on_c, 0, 78, 62
2, 28320, Note_on_c, 0, 90, 62
2, 28800, Note_on_c, 0, 90, 0
2, 28800, Note_on_c, 0, 78, 0
2, 28800, Control_c, 0, 64, 127
2, 28800, Note_on_c, 0, 88, 62
2, 28860, Note_on_c, 0, 88, 0
2, 28860, Note_on_c, 0, 90, 62
2, 28920, Note_on_c, 0, 90, 0
2, 28920, Note_on_c, 0, 88, 62
2, 28980, Note_on_c, 0, 88, 0
2, 28980, Note_on_c, 0, 90, 62
2, 29040, Note_on_c, 0, 90, 0
2, 29040, Note_on_c, 0, 88, 62
2, 29100, Note_on_c, 0, 88, 0
2, 29100, Note_on_c, 0, 90, 62
2, 29160, Note_on_c, 0, 90, 0
2, 29160, Note_on_c, 0, 87, 62
2, 29220, Note_on_c, 0, 87, 0
2, 29220, Note_on_c, 0, 88, 62
2, 29280, Note_on_c, 0, 88, 0
2, 29280, Control_c, 0, 64, 0
2, 29280, Note_on_c, 0, 80, 62
2, 29280, Note_on_c, 0, 92, 62
2, 29303, Note_on_c, 0, 92, 0
2, 29303, Note_on_c, 0, 80, 0
2, 29520, Note_on_c, 0, 76, 62
2, 29520, Note_on_c, 0, 88, 62
2, 29543, Note_on_c, 0, 88, 0
2, 29543, Note_on_c, 0, 76, 0
2, 29760, Note_on_c, 0, 73, 62
2, 29760, Note_on_c, 0, 85, 62
2, 30240, Note_on_c, 0, 85, 0
2, 30240, Note_on_c, 0, 73, 0
2, 30360, Note_on_c, 0, 90, 62
2, 30480, Note_on_c, 0, 90, 0
2, 30480, Note_on_c, 0, 92, 62
2, 30600, Note_on_c, 0, 92, 0
2, 30600, Note_on_c, 0, 94, 62
2, 30720, Note_on_c, 0, 94, 0
2, 30720, Note_on_c, 0, 95, 62
2, 30743, Note_on_c, 0, 95, 0
2, 30840, Note_on_c, 0, 95, 62
2, 30900, Note_on_c, 0, 95, 0
2, 30900, Note_on_c, 0, 97, 62
2, 30960, Note_on_c, 0, 97, 0
2, 30960, Note_on_c, 0, 95, 62
2, 31200, Note_on_c, 0, 95, 0
2, 31200, Note_on_c, 0, 94, 62
2, 31440, Note_on_c, 0, 94, 0
2, 31440, Note_on_c, 0, 97, 62
2, 31680, Note_on_c, 0, 97, 0
2, 31680, Note_on_c, 0, 95, 62
2, 31703, Note_on_c, 0, 95, 0
2, 31800, Note_on_c, 0, 95, 62
2, 31860, Note_on_c, 0, 95, 0
2, 31860, Note_on_c, 0, 97, 62
2, 31920, Note_on_c, 0, 97, 0
2, 31920, Note_on_c, 0, 95, 62
2, 32160, Note_on_c, 0, 95, 0
2, 32160, Note_on_c, 0, 94, 62
2, 32400, Note_on_c, 0, 94, 0
2, 32400, Note_on_c, 0, 97, 62
2, 32640, Note_on_c, 0, 97, 0
2, 32640, Control_c, 0, 64, 127
2, 32640, Note_on_c, 0, 95, 62
2, 32700, Note_on_c, 0, 95, 0
2, 32700, Note_on_c, 0, 97, 62
2, 32760, Note_on_c, 0, 97, 0
2, 32760, Note_on_c, 0, 95, 62
2, 32820, Note_on_c, 0, 95, 0
2, 32820, Note_on_c, 0, 97, 62
2, 32880, Note_on_c, 0, 97, 0
2, 32880, Note_on_c, 0, 95, 62
2, 32940, Note_on_c, 0, 95, 0
2, 32940, Note_on_c, 0, 97, 62
2, 33000, Note_on_c, 0, 97, 0
2, 33000, Note_on_c, 0, 94, 62
2, 33060, Note_on_c, 0, 94, 0
2, 33060, Note_on_c, 0, 95, 62
2, 33120, Note_on_c, 0, 95, 0
2, 33120, Control_c, 0, 64, 0
2, 33120, Note_on_c, 0, 87, 62
2, 33120, Note_on_c, 0, 99, 62
2, 33143, Note_on_c, 0, 99, 0
2, 33143, Note_on_c, 0, 87, 0
2, 33360, Note_on_c, 0, 83, 62
2, 33360, Note_on_c, 0, 95, 62
2, 33383, Note_on_c, 0, 95, 0
2, 33383, Note_on_c, 0, 83, 0
2, 33600, Note_on_c, 0, 80, 62
2, 33600, Note_on_c, 0, 92, 62
2, 34320, Note_on_c, 0, 92, 0
2, 34320, Note_on_c, 0, 80, 0
2, 34320, Note_on_c, 0, 82, 62
2, 34320, Note_on_c, 0, 94, 62
2, 34343, Note_on_c, 0, 94, 0
2, 34343, Note_on_c, 0, 82, 0
2, 34560, Note_on_c, 0, 83, 62
2, 34560, Note_on_c, 0, 95, 62
2, 34920, Note_on_c, 0, 87, 62
2, 34980, Note_on_c, 0, 87, 0
2, 34980, Note_on_c, 0, 88, 62
2, 35040, Note_on_c, 0, 88, 0
2, 35040, Note_on_c, 0, 95, 0
2, 35040, Note_on_c, 0, 83, 0
2, 35040, Note_on_c, 0, 87, 62
2, 35280, Note_on_c, 0, 87, 0
2, 35280, Note_on_c, 0, 86, 62
2, 35520, Note_on_c, 0, 86, 0
2, 35520, Note_on_c, 0, 75, 62
2, 35520, Note_on_c, 0, 87, 62
2, 36000, Note_on_c, 0, 87, 0
2, 36000, Note_on_c, 0, 75, 0
2, 36000, Note_on_c, 0, 78, 62
2, 36000, Note_on_c, 0, 90, 62
2, 36480, Note_on_c, 0, 90, 0
2, 36480, Note_on_c, 0, 78, 0
2, 36480, Control_c, 0, 64, 127
2, 36480, Note_on_c, 0, 88, 62
2, 36540, Note_on_c, 0, 88, 0
2, 36540, Note_on_c, 0, 90, 62
2, 36600, Note_on_c, 0, 90, 0
2, 36600, Note_on_c, 0, 88, 62
2, 36660, Note_on_c, 0, 88, 0
2, 36660, Note_on_c, 0, 90, 62
2, 36720, Note_on_c, 0, 90, 0
2, 36720, Note_on_c, 0, 88, 62
2, 36780, Note_on_c, 0, 88, 0
2, 36780, Note_on_c, 0, 90, 62
2, 36840, Note_on_c, 0, 90, 0
2, 36840, Note_on_c, 0, 87, 62
2, 36900, Note_on_c, 0, 87, 0
2, 36900, Note_on_c, 0, 88, 62
2, 36960, Note_on_c, 0, 88, 0
2, 36960, Control_c, 0, 64, 0
2, 36960, Note_on_c, 0, 80, 62
2, 36960, Note_on_c, 0, 92, 62
2, 36983, Note_on_c, 0, 92, 0
2, 36983, Note_on_c, 0, 80, 0
2, 37200, Note_on_c, 0, 76, 62
2, 37200, Note_on_c, 0, 88, 62
2, 37223, Note_on_c, 0, 88, 0
2, 37223, Note_on_c, 0, 76, 0
2, 37440, Note_on_c, 0, 73, 62
2, 37440, Note_on_c, 0, 85, 62
2, 37920, Note_on_c, 0, 85, 0
2, 37920, Note_on_c, 0, 73, 0
2, 38160, Note_on_c, 0, 78, 88
2, 38183, Note_on_c, 0, 78, 0
2, 38400, Note_on_c, 0, 78, 114
2, 38400, Note_on_c, 0, 87, 114
2, 38880, Note_on_c, 0, 87, 0
2, 38880, Note_on_c, 0, 78, 0
2, 38880, Note_on_c, 0, 78, 114
2, 38880, Note_on_c, 0, 83, 114
2, 39360, Note_on_c, 0, 83, 0
2, 39360, Note_on_c, 0, 78, 0
2, 39360, Note_on_c, 0, 83, 114
2, 39360, Note_on_c, 0, 90, 114
2, 39360, Note_on_c, 0, 95, 114
2, 39840, Note_on_c, 0, 95, 0
2, 39840, Note_on_c, 0, 90, 0
2, 39840, Note_on_c, 0, 83, 0
2, 39840, Note_on_c, 0, 84, 114
2, 39840, Note_on_c, 0, 87, 114
2, 39840, Note_on_c, 0, 92, 114
2, 40320, Note_on_c, 0, 92, 0
2, 40320, Note_on_c, 0, 87, 0
2, 40320, Note_on_c, 0, 84, 0
2, 40320, Note_on_c, 0, 85, 88
2, 40320, Note_on_c, 0, 88, 88
2, 40380, Note_on_c, 0, 88, 0
2, 40380, Note_on_c, 0, 85, 0
2, 40380, Note_on_c, 0, 90, 88
2, 40440, Note_on_c, 0, 90, 0
2, 40440, Note_on_c, 0, 88, 88
2, 40500, Note_on_c, 0, 88, 0
2, 40500, Note_on_c, 0, 90, 88
2, 40560, Note_on_c, 0, 90, 0
2, 40560, Note_on_c, 0, 88, 88
2, 40620, Note_on_c, 0, 88, 0
2, 40620, Note_on_c, 0, 90, 88
2, 40680, Note_on_c, 0, 90, 0
2, 40680, Note_on_c, 0, 87, 88
2, 40740, Note_on_c, 0, 87, 0
2, 40740, Note_on_c, 0, 88, 88
2, 40800, Note_on_c, 0, 88, 0
2, 40800, Note_on_c, 0, 92, 88
2, 40823, Note_on_c, 0, 92, 0
2, 41040, Note_on_c, 0, 85, 88
2, 41040, Note_on_c, 0, 88, 88
2, 41063, Note_on_c, 0, 88, 0
2, 41063, Note_on_c, 0, 85, 0
2, 41280, Note_on_c, 0, 82, 88
2, 41280, Note_on_c, 0, 85, 88
2, 42000, Note_on_c, 0, 85, 0
2, 42000, Note_on_c, 0, 82, 0
2, 42000, Note_on_c, 0, 78, 88
2, 42240, Note_on_c, 0, 78, 0
2, 42240, Note_on_c, 0, 83, 114
2, 42240, Note_on_c, 0, 90, 114
2, 42720, Note_on_c, 0, 90, 0
2, 42720, Note_on_c, 0, 83, 0
2, 42720, Note_on_c, 0, 78, 114
2, 42720, Note_on_c, 0, 85, 114
2, 42720, Note_on_c, 0, 88, 114
2, 43200, Note_on_c, 0, 88, 0
2, 43200, Note_on_c, 0, 85, 0
2, 43200, Note_on_c, 0, 78, 0
2, 43200, Note_on_c, 0, 78, 88
2, 43200, Note_on_c, 0, 83, 88
2, 43200, Note_on_c, 0, 87, 88
2, 43223, Note_on_c, 0, 87, 0
2, 43223, Note_on_c, 0, 83, 0
2, 43223, Note_on_c, 0, 78, 0
2, 43440, Note_on_c, 0, 83, 114
2, 43920, Note_on_c, 0, 83, 0
2, 43920, Note_on_c, 0, 87, 88
2, 44160, Note_on_c, 0, 87, 0
2, 44160, Note_on_c, 0, 85, 88
2, 44280, Note_on_c, 0, 85, 0
2, 44280, Note_on_c, 0, 87, 88
2, 44400, Note_on_c, 0, 87, 0
2, 44400, Note_on_c, 0, 88, 88
2, 44520, Note_on_c, 0, 88, 0
2, 44520, Note_on_c, 0, 87, 88
2, 44640, Note_on_c, 0, 87, 0
2, 44640, Note_on_c, 0, 85, 88
2, 44760, Note_on_c, 0, 85, 0
2, 44760, Note_on_c, 0, 83, 88
2, 44880, Note_on_c, 0, 83, 0
2, 44880, Note_on_c, 0, 82, 88
2, 45000, Note_on_c, 0, 82, 0
2, 45000, Note_on_c, 0, 85, 88
2, 45120, Note_on_c, 0, 85, 0
2, 45120, Note_on_c, 0, 83, 88
2, 45240, Note_on_c, 0, 83, 0
2, 45240, Note_on_c, 0, 78, 88
2, 45360, Note_on_c, 0, 78, 0
2, 45360, Note_on_c, 0, 80, 88
2, 45480, Note_on_c, 0, 80, 0
2, 45480, Note_on_c, 0, 82, 88
2, 45600, Note_on_c, 0, 82, 0
2, 45600, Note_on_c, 0, 83, 88
2, 45840, Note_on_c, 0, 83, 0
2, 45840, Note_on_c, 0, 78, 88
2, 46080, Note_on_c, 0, 78, 0
2, 46080, Note_on_c, 0, 78, 114
2, 46080, Note_on_c, 0, 87, 114
2, 46560, Note_on_c, 0, 87, 0
2, 46560, Note_on_c, 0, 78, 0
2, 46560, Note_on_c, 0, 78, 114
2, 46560, Note_on_c, 0, 83, 114
2, 47040, Note_on_c, 0, 83, 0
2, 47040, Note_on_c, 0, 78, 0
2, 47040, Note_on_c, 0, 83, 114
2, 47040, Note_on_c, 0, 90, 114
2, 47040, Note_on_c, 0, 95, 114
2, 47520, Note_on_c, 0, 95, 0
2, 47520, Note_on_c, 0, 90, 0
2, 47520, Note_on_c, 0, 83, 0
2, 47520, Note_on_c, 0, 84, 114
2, 47520, Note_on_c, 0, 87, 114
2, 47520, Note_on_c, 0, 92, 114
2, 48000, Note_on_c, 0, 92, 0
2, 48000, Note_on_c, 0, 87, 0
2, 48000, Note_on_c, 0, 84, 0
2, 48000, Note_on_c, 0, 85, 88
2, 48000, Note_on_c, 0, 88, 88
2, 48060, Note_on_c, 0, 88, 0
2, 48060, Note_on_c, 0, 85, 0
2, 48060, Note_on_c, 0, 90, 88
2, 48120, Note_on_c, 0, 90, 0
2, 48120, Note_on_c, 0, 88, 88
2, 48180, Note_on_c, 0, 88, 0
2, 48180, Note_on_c, 0, 90, 88
2, 48240, Note_on_c, 0, 90, 0
2, 48240, Note_on_c, 0, 88, 88
2, 48300, Note_on_c, 0, 88, 0
2, 48300, Note_on_c, 0, 90, 88
2, 48360, Note_on_c, 0, 90, 0
2, 48360, Note_on_c, 0, 87, 88
2, 48420, Note_on_c, 0, 87, 0
2, 48420, Note_on_c, 0, 88, 88
2, 48480, Note_on_c, 0, 88, 0
2, 48480, Note_on_c, 0, 92, 88
2, 48503, Note_on_c, 0, 92, 0
2, 48720, Note_on_c, 0, 85, 88
2, 48720, Note_on_c, 0, 88, 88
2, 48743, Note_on_c, 0, 88, 0
2, 48743, Note_on_c, 0, 85, 0
2, 48960, Note_on_c, 0, 82, 88
2, 48960, Note_on_c, 0, 85, 88
2, 49680, Note_on_c, 0, 85, 0
2, 49680, Note_on_c, 0, 82, 0
2, 49680, Note_on_c, 0, 78, 88
2, 49920, Note_on_c, 0, 78, 0
2, 49920, Note_on_c, 0, 83, 114
2, 49920, Note_on_c, 0, 90, 114
2, 50400, Note_on_c, 0, 90, 0
2, 50400, Note_on_c, 0, 83, 0
2, 50400, Note_on_c, 0, 78, 114
2, 50400, Note_on_c, 0, 85, 114
2, 50400, Note_on_c, 0, 88, 114
2, 50880, Note_on_c, 0, 88, 0
2, 50880, Note_on_c, 0, 85, 0
2, 50880, Note_on_c, 0, 78, 0
2, 50880, Note_on_c, 0, 78, 88
2, 50880, Note_on_c, 0, 83, 88
2, 50880, Note_on_c, 0, 87, 88
2, 50903, Note_on_c, 0, 87, 0
2, 50903, Note_on_c, 0, 83, 0
2, 50903, Note_on_c, 0, 78, 0
2, 51120, Note_on_c, 0, 83, 114
2, 51600, Note_on_c, 0, 83, 0
2, 51600, Note_on_c, 0, 87, 88
2, 51840, Note_on_c, 0, 87, 0
2, 51840, Note_on_c, 0, 85, 88
2, 51960, Note_on_c, 0, 85, 0
2, 51960, Note_on_c, 0, 87, 88
2, 52080, Note_on_c, 0, 87, 0
2, 52080, Note_on_c, 0, 88, 88
2, 52200, Note_on_c, 0, 88, 0
2, 52200, Note_on_c, 0, 87, 88
2, 52320, Note_on_c, 0, 87, 0
2, 52320, Note_on_c, 0, 85, 88
2, 52440, Note_on_c, 0, 85, 0
2, 52440, Note_on_c, 0, 83, 88
2, 52560, Note_on_c, 0, 83, 0
2, 52560, Note_on_c, 0, 82, 88
2, 52680, Note_on_c, 0, 82, 0
2, 52680, Note_on_c, 0, 85, 88
2, 52800, Note_on_c, 0, 85, 0
2, 52800, Note_on_c, 0, 83, 88
2, 52920, Note_on_c, 0, 83, 0
2, 52920, Note_on_c, 0, 78, 88
2, 53040, Note_on_c, 0, 78, 0
2, 53040, Note_on_c, 0, 80, 88
2, 53160, Note_on_c, 0, 80, 0
2, 53160, Note_on_c, 0, 82, 88
2, 53280, Note_on_c, 0, 82, 0
2, 53280, Note_on_c, 0, 83, 88
2, 53520, Note_on_c, 0, 83, 0
2, 54720, Note_on_c, 0, 66, 62
2, 54743, Note_on_c, 0, 66, 0
2, 54840, Note_on_c, 0, 71, 62
2, 54900, Note_on_c, 0, 71, 0
2, 54900, Note_on_c, 0, 73, 62
2, 54960, Note_on_c, 0, 73, 0
2, 54960, Note_on_c, 0, 71, 62
2, 55200, Note_on_c, 0, 71, 0
2, 55200, Note_on_c, 0, 70, 62
2, 55223, Note_on_c, 0, 70, 0
2, 55440, Note_on_c, 0, 71, 62
2, 55463, Note_on_c, 0, 71, 0
2, 55680, Note_on_c, 0, 73, 62
2, 55695, Note_on_c, 0, 73, 0
2, 55800, Note_on_c, 0, 71, 62
2, 55815, Note_on_c, 0, 71, 0
2, 55920, Note_on_c, 0, 70, 62
2, 55935, Note_on_c, 0, 70, 0
2, 56040, Note_on_c, 0, 73, 62
2, 56055, Note_on_c, 0, 73, 0
2, 56160, Note_on_c, 0, 71, 88
2, 56460, Note_on_c, 0, 71, 0
2, 56460, Control_c, 0, 64, 127
2, 56460, Note_on_c, 0, 85, 62
2, 56520, Note_on_c, 0, 85, 0
2, 56520, Note_on_c, 0, 82, 62
2, 56580, Note_on_c, 0, 82, 0
2, 56580, Note_on_c, 0, 83, 62
2, 56640, Note_on_c, 0, 83, 0
2, 56640, Control_c, 0, 64, 0
2, 56640, Note_on_c, 0, 86, 62
2, 56655, Note_on_c, 0, 86, 0
2, 56760, Note_on_c, 0, 85, 62
2, 56775, Note_on_c, 0, 85, 0
2, 56880, Note_on_c, 0, 83, 62
2, 56895, Note_on_c, 0, 83, 0
2, 57000, Note_on_c, 0, 86, 62
2, 57015, Note_on_c, 0, 86, 0
2, 57120, Note_on_c, 0, 85, 62
2, 57135, Note_on_c, 0, 85, 0
2, 57240, Note_on_c, 0, 83, 62
2, 57255, Note_on_c, 0, 83, 0
2, 57360, Note_on_c, 0, 82, 62
2, 57375, Note_on_c, 0, 82, 0
2, 57480, Note_on_c, 0, 85, 62
2, 57495, Note_on_c, 0, 85, 0
2, 57600, Note_on_c, 0, 83, 62
2, 57615, Note_on_c, 0, 83, 0
2, 57720, Note_on_c, 0, 78, 62
2, 57735, Note_on_c, 0, 78, 0
2, 57840, Note_on_c, 0, 80, 62
2, 57855, Note_on_c, 0, 80, 0
2, 57960, Note_on_c, 0, 82, 62
2, 57975, Note_on_c, 0, 82, 0
2, 58080, Note_on_c, 0, 83, 62
2, 58095, Note_on_c, 0, 83, 0
2, 58200, Note_on_c, 0, 85, 62
2, 58215, Note_on_c, 0, 85, 0
2, 58320, Note_on_c, 0, 86, 62
2, 58335, Note_on_c, 0, 86, 0
2, 58440, Note_on_c, 0, 83, 62
2, 58455, Note_on_c, 0, 83, 0
2, 58560, Note_on_c, 0, 85, 62
2, 58583, Note_on_c, 0, 85, 0
2, 58680, Note_on_c, 0, 78, 62
2, 58740, Note_on_c, 0, 78, 0
2, 58740, Note_on_c, 0, 80, 62
2, 58800, Note_on_c, 0, 80, 0
2, 58800, Note_on_c, 0, 78, 62
2, 59040, Note_on_c, 0, 78, 0
2, 59040, Note_on_c, 0, 77, 62
2, 59063, Note_on_c, 0, 77, 0
2, 59280, Note_on_c, 0, 78, 62
2, 59303, Note_on_c, 0, 78, 0
2, 59520, Note_on_c, 0, 80, 62
2, 59535, Note_on_c, 0, 80, 0
2, 59640, Note_on_c, 0, 78, 62
2, 59655, Note_on_c, 0, 78, 0
2, 59760, Note_on_c, 0, 77, 62
2, 59775, Note_on_c, 0, 77, 0
2, 59880, Note_on_c, 0, 80, 62
2, 59895, Note_on_c, 0, 80, 0
2, 60000, Note_on_c, 0, 78, 62
2, 60300, Note_on_c, 0, 78, 0
2, 60300, Control_c, 0, 64, 127
2, 60300, Note_on_c, 0, 92, 62
2, 60360, Note_on_c, 0, 92, 0
2, 60360, Note_on_c, 0, 89, 62
2, 60420, Note_on_c, 0, 89, 0
2, 60420, Note_on_c, 0, 90, 62
2, 60480, Note_on_c, 0, 90, 0
2, 60480, Control_c, 0, 64, 0
2, 60480, Note_on_c, 0, 93, 62
2, 60495, Note_on_c, 0, 93, 0
2, 60600, Note_on_c, 0, 92, 62
2, 60615, Note_on_c, 0, 92, 0
2, 60720, Note_on_c, 0, 90, 62
2, 60735, Note_on_c, 0, 90, 0
2, 60840, Note_on_c, 0, 93, 62
2, 60855, Note_on_c, 0, 93, 0
2, 60960, Note_on_c, 0, 92, 62
2, 60975, Note_on_c, 0, 92, 0
2, 61080, Note_on_c, 0, 90, 62
2, 61095, Note_on_c, 0, 90, 0
2, 61200, Note_on_c, 0, 89, 62
2, 61215, Note_on_c, 0, 89, 0
2, 61320, Note_on_c, 0, 92, 62
2, 61335, Note_on_c, 0, 92, 0
2, 61440, Note_on_c, 0, 90, 62
2, 61455, Note_on_c, 0, 90, 0
2, 61560, Note_on_c, 0, 85, 62
2, 61575, Note_on_c, 0, 85, 0
2, 61680, Note_on_c, 0, 87, 75
2, 61695, Note_on_c, 0, 87, 0
2, 61800, Note_on_c, 0, 89, 75
2, 61815, Note_on_c, 0, 89, 0
2, 61920, Note_on_c, 0, 90, 75
2, 61943, Note_on_c, 0, 90, 0
2, 62160, Note_on_c, 0, 81, 75
2, 62160, Note_on_c, 0, 93, 75
2, 62183, Note_on_c, 0, 93, 0
2, 62183, Note_on_c, 0, 81, 0
2, 62400, Note_on_c, 0, 79, 101
2, 62400, Note_on_c, 0, 91, 101
2, 62760, Note_on_c, 0, 91, 0
2, 62760, Note_on_c, 0, 79, 0
2, 62760, Note_on_c, 0, 78, 75
2, 62760, Note_on_c, 0, 90, 75
2, 62775, Note_on_c, 0, 90, 0
2, 62775, Note_on_c, 0, 78, 0
2, 62880, Note_on_c, 0, 76, 75
2, 62880, Note_on_c, 0, 88, 75
2, 62903, Note_on_c, 0, 88, 0
2, 62903, Note_on_c, 0, 76, 0
2, 63120, Note_on_c, 0, 79, 75
2, 63120, Note_on_c, 0, 91, 75
2, 63143, Note_on_c, 0, 91, 0
2, 63143, Note_on_c, 0, 79, 0
2, 63360, Note_on_c, 0, 78, 101
2, 63360, Note_on_c, 0, 90, 101
2, 63720, Note_on_c, 0, 90, 0
2, 63720, Note_on_c, 0, 78, 0
2, 63720, Note_on_c, 0, 76, 75
2, 63720, Note_on_c, 0, 88, 75
2, 63735, Note_on_c, 0, 88, 0
2, 63735, Note_on_c, 0, 76, 0
2, 63840, Note_on_c, 0, 74, 75
2, 63840, Note_on_c, 0, 86, 75
2, 63863, Note_on_c, 0, 86, 0
2, 63863, Note_on_c, 0, 74, 0
2, 64080, Note_on_c, 0, 78, 75
2, 64080, Note_on_c, 0, 90, 75
2, 64103, Note_on_c, 0, 90, 0
2, 64103, Note_on_c, 0, 78, 0
2, 64320, Note_on_c, 0, 76, 101
2, 64320, Note_on_c, 0, 88, 101
2, 64680, Note_on_c, 0, 88, 0
2, 64680, Note_on_c, 0, 76, 0
2, 64680, Note_on_c, 0, 74, 75
2, 64680, Note_on_c, 0, 86, 75
2, 64695, Note_on_c, 0, 86, 0
2, 64695, Note_on_c, 0, 74, 0
2, 64800, Note_on_c, 0, 73, 75
2, 64800, Note_on_c, 0, 85, 75
2, 64823, Note_on_c, 0, 85, 0
2, 64823, Note_on_c, 0, 73, 0
2, 65040, Note_on_c, 0, 76, 75
2, 65040, Note_on_c, 0, 88, 75
2, 65063, Note_on_c, 0, 88, 0
2, 65063, Note_on_c, 0, 76, 0
2, 65280, Note_on_c, 0, 74, 101
2, 65280, Note_on_c, 0, 86, 101
2, 65640, Note_on_c, 0, 86, 0
2, 65640, Note_on_c, 0, 74, 0
2, 65640, Note_on_c, 0, 73, 75
2, 65640, Note_on_c, 0, 85, 75
2, 65655, Note_on_c, 0, 85, 0
2, 65655, Note_on_c, 0, 73, 0
2, 65760, Note_on_c, 0, 71, 75
2, 65760, Note_on_c, 0, 83, 75
2, 65783, Note_on_c, 0, 83, 0
2, 65783, Note_on_c, 0, 71, 0
2, 66000, Note_on_c, 0, 86, 75
2, 66023, Note_on_c, 0, 86, 0
2, 66240, Note_on_c, 0, 85, 101
2, 66600, Note_on_c, 0, 85, 0
2, 66600, Note_on_c, 0, 82, 75
2, 66720, Note_on_c, 0, 82, 0
2, 66720, Note_on_c, 0, 78, 75
2, 66960, Note_on_c, 0, 78, 0
2, 66960, Note_on_c, 0, 91, 88
2, 67080, Note_on_c, 0, 91, 0
2, 67080, Note_on_c, 0, 90, 62
2, 67200, Note_on_c, 0, 90, 0
2, 67200, Note_on_c, 0, 90, 88
2, 67320, Note_on_c, 0, 90, 0
2, 67320, Note_on_c, 0, 88, 62
2, 67440, Note_on_c, 0, 88, 0
2, 67440, Note_on_c, 0, 88, 88
2, 67560, Note_on_c, 0, 88, 0
2, 67560, Note_on_c, 0, 86, 62
2, 67680, Note_on_c, 0, 86, 0
2, 67680, Note_on_c, 0, 86, 88
2, 67800, Note_on_c, 0, 86, 0
2, 67800, Note_on_c, 0, 85, 62
2, 67920, Note_on_c, 0, 85, 0
2, 67920, Note_on_c, 0, 85, 88
2, 68040, Note_on_c, 0, 85, 0
2, 68040, Note_on_c, 0, 88, 62
2, 68160, Note_on_c, 0, 88, 0
2, 68160, Note_on_c, 0, 86, 62
2, 68175, Note_on_c, 0, 86, 0
2, 68280, Note_on_c, 0, 85, 62
2, 68295, Note_on_c, 0, 85, 0
2, 68400, Note_on_c, 0, 83, 62
2, 68415, Note_on_c, 0, 83, 0
2, 68520, Note_on_c, 0, 86, 62
2, 68535, Note_on_c, 0, 86, 0
2, 68640, Note_on_c, 0, 85, 62
2, 68655, Note_on_c, 0, 85, 0
2, 68760, Note_on_c, 0, 83, 62
2, 68775, Note_on_c, 0, 83, 0
2, 68880, Note_on_c, 0, 82, 62
2, 68895, Note_on_c, 0, 82, 0
2, 69000, Note_on_c, 0, 85, 62
2, 69015, Note_on_c, 0, 85, 0
2, 69120, Note_on_c, 0, 83, 62
2, 69135, Note_on_c, 0, 83, 0
2, 69240, Note_on_c, 0, 78, 62
2, 69255, Note_on_c, 0, 78, 0
2, 69360, Note_on_c, 0, 80, 62
2, 69375, Note_on_c, 0, 80, 0
2, 69480, Note_on_c, 0, 82, 62
2, 69495, Note_on_c, 0, 82, 0
2, 69600, Note_on_c, 0, 83, 62
2, 69623, Note_on_c, 0, 83, 0
2, 70320, Note_on_c, 0, 86, 75
2, 70320, Note_on_c, 0, 98, 75
2, 70560, Note_on_c, 0, 98, 0
2, 70560, Note_on_c, 0, 86, 0
2, 70560, Note_on_c, 0, 85, 101
2, 70560, Note_on_c, 0, 97, 101
2, 70920, Note_on_c, 0, 97, 0
2, 70920, Note_on_c, 0, 85, 0
2, 70920, Note_on_c, 0, 83, 75
2, 70920, Note_on_c, 0, 95, 75
2, 70935, Note_on_c, 0, 95, 0
2, 70935, Note_on_c, 0, 83, 0
2, 71040, Note_on_c, 0, 81, 75
2, 71040, Note_on_c, 0, 93, 75
2, 71063, Note_on_c, 0, 93, 0
2, 71063, Note_on_c, 0, 81, 0
2, 71280, Note_on_c, 0, 73, 75
2, 71280, Note_on_c, 0, 85, 75
2, 71303, Note_on_c, 0, 85, 0
2, 71303, Note_on_c, 0, 73, 0
2, 71520, Note_on_c, 0, 71, 101
2, 71520, Note_on_c, 0, 83, 101
2, 71880, Note_on_c, 0, 83, 0
2, 71880, Note_on_c, 0, 71, 0
2, 71880, Note_on_c, 0, 69, 75
2, 71880, Note_on_c, 0, 81, 75
2, 71895, Note_on_c, 0, 81, 0
2, 71895, Note_on_c, 0, 69, 0
2, 72000, Note_on_c, 0, 67, 75
2, 72000, Note_on_c, 0, 79, 75
2, 72023, Note_on_c, 0, 79, 0
2, 72023, Note_on_c, 0, 67, 0
2, 72240, Note_on_c, 0, 71, 75
2, 72240, Note_on_c, 0, 83, 75
2, 72263, Note_on_c, 0, 83, 0
2, 72263, Note_on_c, 0, 71, 0
2, 72480, Note_on_c, 0, 69, 101
2, 72480, Note_on_c, 0, 81, 101
2, 72840, Note_on_c, 0, 81, 0
2, 72840, Note_on_c, 0, 69, 0
2, 72840, Note_on_c, 0, 67, 75
2, 72840, Note_on_c, 0, 79, 75
2, 72855, Note_on_c, 0, 79, 0
2, 72855, Note_on_c, 0, 67, 0
2, 72960, Note_on_c, 0, 66, 75
2, 72960, Note_on_c, 0, 78, 75
2, 72983, Note_on_c, 0, 78, 0
2, 72983, Note_on_c, 0, 66, 0
2, 73200, Note_on_c, 0, 69, 75
2, 73200, Note_on_c, 0, 81, 75
2, 73223, Note_on_c, 0, 81, 0
2, 73223, Note_on_c, 0, 69, 0
2, 73440, Note_on_c, 0, 67, 75
2, 73440, Note_on_c, 0, 79, 75
2, 73800, Note_on_c, 0, 79, 0
2, 73800, Note_on_c, 0, 67, 0
2, 73800, Note_on_c, 0, 71, 75
2, 73800, Note_on_c, 0, 83, 75
2, 73920, Note_on_c, 0, 83, 0
2, 73920, Note_on_c, 0, 71, 0
2, 73920, Note_on_c, 0, 70, 75
2, 73920, Note_on_c, 0, 82, 75
2, 74160, Note_on_c, 0, 82, 0
2, 74160, Note_on_c, 0, 70, 0
2, 74160, Note_on_c, 0, 73, 75
2, 74160, Note_on_c, 0, 85, 75
2, 74400, Note_on_c, 0, 85, 0
2, 74400, Note_on_c, 0, 73, 0
2, 74640, Note_on_c, 0, 91, 114
2, 74760, Note_on_c, 0, 91, 0
2, 74760, Note_on_c, 0, 90, 88
2, 74880, Note_on_c, 0, 90, 0
2, 74880, Note_on_c, 0, 90, 114
2, 75000, Note_on_c, 0, 90, 0
2, 75000, Note_on_c, 0, 88, 88
2, 75120, Note_on_c, 0, 88, 0
2, 75120, Note_on_c, 0, 88, 114
2, 75240, Note_on_c, 0, 88, 0
2, 75240, Note_on_c, 0, 86, 88
2, 75360, Note_on_c, 0, 86, 0
2, 75360, Note_on_c, 0, 86, 114
2, 75480, Note_on_c, 0, 86, 0
2, 75480, Note_on_c, 0, 85, 88
2, 75600, Note_on_c, 0, 85, 0
2, 75600, Note_on_c, 0, 85, 114
2, 75720, Note_on_c, 0, 85, 0
2, 75720, Note_on_c, 0, 88, 88
2, 75840, Note_on_c, 0, 88, 0
2, 75840, Note_on_c, 0, 86, 88
2, 75855, Note_on_c, 0, 86, 0
2, 75960, Note_on_c, 0, 85, 88
2, 75975, Note_on_c, 0, 85, 0
2, 76080, Note_on_c, 0, 83, 88
2, 76095, Note_on_c, 0, 83, 0
2, 76200, Note_on_c, 0, 86, 88
2, 76215, Note_on_c, 0, 86, 0
2, 76320, Note_on_c, 0, 85, 88
2, 76335, Note_on_c, 0, 85, 0
2, 76440, Note_on_c, 0, 83, 88
2, 76455, Note_on_c, 0, 83, 0
2, 76560, Note_on_c, 0, 82, 88
2, 76575, Note_on_c, 0, 82, 0
2, 76680, Note_on_c, 0, 85, 88
2, 76695, Note_on_c, 0, 85, 0
2, 76800, Note_on_c, 0, 83, 88
2, 76815, Note_on_c, 0, 83, 0
2, 76920, Note_on_c, 0, 78, 88
2, 76935, Note_on_c, 0, 78, 0
2, 77040, Note_on_c, 0, 80, 88
2, 77055, Note_on_c, 0, 80, 0
2, 77160, Note_on_c, 0, 82, 88
2, 77175, Note_on_c, 0, 82, 0
2, 77280, Note_on_c, 0, 83, 88
2, 77303, Note_on_c, 0, 83, 0
2, 77520, Note_on_c, 0, 82, 101
2, 77520, Note_on_c, 0, 85, 101
2, 77520, Note_on_c, 0, 90, 101
2, 77543, Note_on_c, 0, 90, 0
2, 77543, Note_on_c, 0, 85, 0
2, 77543, Note_on_c, 0, 82, 0
2, 77760, Note_on_c, 0, 83, 101
2, 77760, Note_on_c, 0, 86, 101
2, 77760, Note_on_c, 0, 95, 101
2, 80640, Note_on_c, 0, 95, 0
2, 80640, Note_on_c, 0, 86, 0
2, 80640, Note_on_c, 0, 83, 0
2, 80640, End_track
3, 0, Start_track
3, 0, Title_t, "Instrument17"
3, 0, Program_c, 0, 0
3, 0, Control_c, 0, 7, 110
3, 0, Control_c, 0, 10, 97
3, 1740, Control_c, 0, 64, 127
3, 1740, Note_on_c, 0, 73, 52
3, 1800, Note_on_c, 0, 73, 0
3, 1800, Note_on_c, 0, 70, 52
3, 1860, Note_on_c, 0, 70, 0
3, 1860, Note_on_c, 0, 71, 52
3, 1920, Note_on_c, 0, 71, 0
3, 1920, Control_c, 0, 64, 0
3, 1920, Note_on_c, 0, 74, 52
3, 1935, Note_on_c, 0, 74, 0
3, 2040, Note_on_c, 0, 73, 52
3, 2055, Note_on_c, 0, 73, 0
3, 2160, Note_on_c, 0, 71, 52
3, 2175, Note_on_c, 0, 71, 0
3, 2280, Note_on_c, 0, 74, 52
3, 2295, Note_on_c, 0, 74, 0
3, 2400, Note_on_c, 0, 73, 52
3, 2415, Note_on_c, 0, 73, 0
3, 2520, Note_on_c, 0, 71, 52
3, 2535, Note_on_c, 0, 71, 0
3, 2640, Note_on_c, 0, 70, 52
3, 2655, Note_on_c, 0, 70, 0
3, 2760, Note_on_c, 0, 73, 52
3, 2775, Note_on_c, 0, 73, 0
3, 2880, Note_on_c, 0, 71, 52
3, 2895, Note_on_c, 0, 71, 0
3, 3000, Note_on_c, 0, 66, 52
3, 3015, Note_on_c, 0, 66, 0
3, 3120, Note_on_c, 0, 68, 52
3, 3135, Note_on_c, 0, 68, 0
3, 3240, Note_on_c, 0, 70, 52
3, 3255, Note_on_c, 0, 70, 0
3, 3360, Note_on_c, 0, 71, 52
3, 3375, Note_on_c, 0, 71, 0
3, 3480, Note_on_c, 0, 73, 52
3, 3495, Note_on_c, 0, 73, 0
3, 3600, Note_on_c, 0, 74, 52
3, 3615, Note_on_c, 0, 74, 0
3, 3720, Note_on_c, 0, 71, 52
3, 3735, Note_on_c, 0, 71, 0
3, 3840, Note_on_c, 0, 73, 52
3, 3863, Note_on_c, 0, 73, 0
3, 5580, Control_c, 0, 64, 127
3, 5580, Note_on_c, 0, 80, 52
3, 5640, Note_on_c, 0, 80, 0
3, 5640, Note_on_c, 0, 77, 52
3, 5700, Note_on_c, 0, 77, 0
3, 5700, Note_on_c, 0, 78, 52
3, 5760, Note_on_c, 0, 78, 0
3, 5760, Control_c, 0, 64, 0
3, 5760, Note_on_c, 0, 81, 52
3, 5775, Note_on_c, 0, 81, 0
3, 5880, Note_on_c, 0, 80, 52
3, 5895, Note_on_c, 0, 80, 0
3, 6000, Note_on_c, 0, 78, 52
3, 6015, Note_on_c, 0, 78, 0
3, 6120, Note_on_c, 0, 81, 52
3, 6135, Note_on_c, 0, 81, 0
3, 6240, Note_on_c, 0, 80, 52
3, 6255, Note_on_c, 0, 80, 0
3, 6360, Note_on_c, 0, 78, 52
3, 6375, Note_on_c, 0, 78, 0
3, 6480, Note_on_c, 0, 77, 52
3, 6495, Note_on_c, 0, 77, 0
3, 6600, Note_on_c, 0, 80, 52
3, 6615, Note_on_c, 0, 80, 0
3, 6720, Note_on_c, 0, 78, 52
3, 6735, Note_on_c, 0, 78, 0
3, 6840, Note_on_c, 0, 73, 52
3, 6855, Note_on_c, 0, 73, 0
3, 6960, Note_on_c, 0, 75, 65
3, 6975, Note_on_c, 0, 75, 0
3, 7080, Note_on_c, 0, 77, 65
3, 7095, Note_on_c, 0, 77, 0
3, 7200, Note_on_c, 0, 78, 65
3, 7223, Note_on_c, 0, 78, 0
3, 7840, Note_on_c, 0, 67, 52
3, 7880, Note_on_c, 0, 71, 52
3, 7920, Note_on_c, 0, 76, 52
3, 7943, Note_on_c, 0, 76, 0
3, 7943, Note_on_c, 0, 71, 0
3, 7943, Note_on_c, 0, 67, 0
3, 8310, Note_on_c, 0, 67, 52
3, 8340, Note_on_c, 0, 69, 52
3, 8370, Note_on_c, 0, 73, 52
3, 8400, Note_on_c, 0, 76, 52
3, 8423, Note_on_c, 0, 76, 0
3, 8423, Note_on_c, 0, 67, 0
3, 8423, Note_on_c, 0, 69, 0
3, 8423, Note_on_c, 0, 73, 0
3, 8790, Note_on_c, 0, 66, 52
3, 8820, Note_on_c, 0, 69, 52
3, 8850, Note_on_c, 0, 73, 52
3, 8880, Note_on_c, 0, 74, 52
3, 8903, Note_on_c, 0, 74, 0
3, 8903, Note_on_c, 0, 66, 0
3, 8903, Note_on_c, 0, 69, 0
3, 8903, Note_on_c, 0, 73, 0
3, 9270, Note_on_c, 0, 66, 52
3, 9300, Note_on_c, 0, 67, 52
3, 9330, Note_on_c, 0, 71, 52
3, 9360, Note_on_c, 0, 74, 52
3, 9383, Note_on_c, 0, 74, 0
3, 9383, Note_on_c, 0, 66, 0
3, 9383, Note_on_c, 0, 67, 0
3, 9383, Note_on_c, 0, 71, 0
3, 9750, Note_on_c, 0, 64, 52
3, 9780, Note_on_c, 0, 67, 52
3, 9810, Note_on_c, 0, 71, 52
3, 9840, Note_on_c, 0, 73, 52
3, 9863, Note_on_c, 0, 73, 0
3, 9863, Note_on_c, 0, 64, 0
3, 9863, Note_on_c, 0, 67, 0
3, 9863, Note_on_c, 0, 71, 0
3, 10230, Note_on_c, 0, 64, 52
3, 10260, Note_on_c, 0, 66, 52
3, 10290, Note_on_c, 0, 69, 52
3, 10320, Note_on_c, 0, 73, 52
3, 10343, Note_on_c, 0, 73, 0
3, 10343, Note_on_c, 0, 64, 0
3, 10343, Note_on_c, 0, 66, 0
3, 10343, Note_on_c, 0, 69, 0
3, 10710, Note_on_c, 0, 62, 52
3, 10740, Note_on_c, 0, 66, 52
3, 10770, Note_on_c, 0, 69, 52
3, 10800, Note_on_c, 0, 71, 52
3, 10823, Note_on_c, 0, 71, 0
3, 10823, Note_on_c, 0, 62, 0
3, 10823, Note_on_c, 0, 66, 0
3, 10823, Note_on_c, 0, 69, 0
3, 11190, Note_on_c, 0, 64, 52
3, 11220, Note_on_c, 0, 67, 52
3, 11250, Note_on_c, 0, 71, 52
3, 11280, Note_on_c, 0, 74, 52
3, 11303, Note_on_c, 0, 74, 0
3, 11303, Note_on_c, 0, 64, 0
3, 11303, Note_on_c, 0, 67, 0
3, 11303, Note_on_c, 0, 71, 0
3, 11520, Note_on_c, 0, 73, 91
3, 11880, Note_on_c, 0, 73, 0
3, 11880, Note_on_c, 0, 70, 65
3, 12000, Note_on_c, 0, 70, 0
3, 12000, Note_on_c, 0, 66, 65
3, 12240, Note_on_c, 0, 66, 0
3, 12240, Note_on_c, 0, 79, 78
3, 12360, Note_on_c, 0, 79, 0
3, 12360, Note_on_c, 0, 78, 52
3, 12480, Note_on_c, 0, 78, 0
3, 12480, Note_on_c, 0, 78, 78
3, 12600, Note_on_c, 0, 78, 0
3, 12600, Note_on_c, 0, 76, 52
3, 12720, Note_on_c, 0, 76, 0
3, 12720, Note_on_c, 0, 76, 78
3, 12840, Note_on_c, 0, 76, 0
3, 12840, Note_on_c, 0, 74, 52
3, 12960, Note_on_c, 0, 74, 0
3, 12960, Note_on_c, 0, 74, 78
3, 13080, Note_on_c, 0, 74, 0
3, 13080, Note_on_c, 0, 73, 52
3, 13200, Note_on_c, 0, 73, 0
3, 13200, Note_on_c, 0, 73, 78
3, 13320, Note_on_c, 0, 73, 0
3, 13320, Note_on_c, 0, 76, 52
3, 13440, Note_on_c, 0, 76, 0
3, 13440, Note_on_c, 0, 74, 52
3, 13455, Note_on_c, 0, 74, 0
3, 13560, Note_on_c, 0, 73, 52
3, 13575, Note_on_c, 0, 73, 0
3, 13680, Note_on_c, 0, 71, 52
3, 13695, Note_on_c, 0, 71, 0
3, 13800, Note_on_c, 0, 74, 52
3, 13815, Note_on_c, 0, 74, 0
3, 13920, Note_on_c, 0, 73, 52
3, 13935, Note_on_c, 0, 73, 0
3, 14040, Note_on_c, 0, 71, 52
3, 14055, Note_on_c, 0, 71, 0
3, 14160, Note_on_c, 0, 70, 52
3, 14175, Note_on_c, 0, 70, 0
3, 14280, Note_on_c, 0, 73, 52
3, 14295, Note_on_c, 0, 73, 0
3, 14400, Note_on_c, 0, 71, 52
3, 14415, Note_on_c, 0, 71, 0
3, 14520, Note_on_c, 0, 66, 52
3, 14535, Note_on_c, 0, 66, 0
3, 14640, Note_on_c, 0, 68, 52
3, 14655, Note_on_c, 0, 68, 0
3, 14760, Note_on_c, 0, 70, 52
3, 14775, Note_on_c, 0, 70, 0
3, 14880, Note_on_c, 0, 71, 52
3, 14903, Note_on_c, 0, 71, 0
3, 15480, Note_on_c, 0, 76, 52
3, 15495, Note_on_c, 0, 76, 0
3, 15600, Note_on_c, 0, 71, 52
3, 15615, Note_on_c, 0, 71, 0
3, 15720, Note_on_c, 0, 76, 52
3, 15735, Note_on_c, 0, 76, 0
3, 15750, Note_on_c, 0, 69, 52
3, 15780, Note_on_c, 0, 73, 52
3, 15810, Note_on_c, 0, 76, 52
3, 15840, Note_on_c, 0, 79, 52
3, 15863, Note_on_c, 0, 79, 0
3, 15863, Note_on_c, 0, 69, 0
3, 15863, Note_on_c, 0, 73, 0
3, 15863, Note_on_c, 0, 76, 0
3, 16440, Note_on_c, 0, 73, 52
3, 16455, Note_on_c, 0, 73, 0
3, 16560, Note_on_c, 0, 69, 52
3, 16575, Note_on_c, 0, 69, 0
3, 16680, Note_on_c, 0, 73, 52
3, 16695, Note_on_c, 0, 73, 0
3, 16710, Note_on_c, 0, 67, 52
3, 16740, Note_on_c, 0, 71, 52
3, 16770, Note_on_c, 0, 74, 52
3, 16800, Note_on_c, 0, 78, 52
3, 16823, Note_on_c, 0, 78, 0
3, 16823, Note_on_c, 0, 67, 0
3, 16823, Note_on_c, 0, 71, 0
3, 16823, Note_on_c, 0, 74, 0
3, 17400, Note_on_c, 0, 71, 52
3, 17415, Note_on_c, 0, 71, 0
3, 17520, Note_on_c, 0, 67, 52
3, 17535, Note_on_c, 0, 67, 0
3, 17640, Note_on_c, 0, 71, 52
3, 17655, Note_on_c, 0, 71, 0
3, 17670, Note_on_c, 0, 66, 52
3, 17700, Note_on_c, 0, 69, 52
3, 17730, Note_on_c, 0, 73, 52
3, 17760, Note_on_c, 0, 76, 52
3, 17783, Note_on_c, 0, 76, 0
3, 17783, Note_on_c, 0, 66, 0
3, 17783, Note_on_c, 0, 69, 0
3, 17783, Note_on_c, 0, 73, 0
3, 18360, Note_on_c, 0, 69, 52
3, 18375, Note_on_c, 0, 69, 0
3, 18480, Note_on_c, 0, 66, 52
3, 18495, Note_on_c, 0, 66, 0
3, 18600, Note_on_c, 0, 69, 52
3, 18615, Note_on_c, 0, 69, 0
3, 18630, Note_on_c, 0, 64, 52
3, 18660, Note_on_c, 0, 67, 52
3, 18690, Note_on_c, 0, 71, 52
3, 18720, Note_on_c, 0, 74, 52
3, 18743, Note_on_c, 0, 74, 0
3, 18743, Note_on_c, 0, 64, 0
3, 18743, Note_on_c, 0, 67, 0
3, 18743, Note_on_c, 0, 71, 0
3, 19120, Note_on_c, 0, 66, 52
3, 19160, Note_on_c, 0, 70, 52
3, 19200, Note_on_c, 0, 73, 52
3, 19440, Note_on_c, 0, 73, 0
3, 19440, Note_on_c, 0, 70, 0
3, 19440, Note_on_c, 0, 66, 0
3, 19920, Note_on_c, 0, 79, 78
3, 20040, Note_on_c, 0, 79, 0
3, 20040, Note_on_c, 0, 78, 52
3, 20160, Note_on_c, 0, 78, 0
3, 20160, Note_on_c, 0, 78, 78
3, 20280, Note_on_c, 0, 78, 0
3, 20280, Note_on_c, 0, 76, 52
3, 20400, Note_on_c, 0, 76, 0
3, 20400, Note_on_c, 0, 76, 78
3, 20520, Note_on_c, 0, 76, 0
3, 20520, Note_on_c, 0, 74, 52
3, 20640, Note_on_c, 0, 74, 0
3, 20640, Note_on_c, 0, 74, 78
3, 20760, Note_on_c, 0, 74, 0
3, 20760, Note_on_c, 0, 73, 52
3, 20880, Note_on_c, 0, 73, 0
3, 20880, Note_on_c, 0, 73, 78
3, 21000, Note_on_c, 0, 73, 0
3, 21000, Note_on_c, 0, 76, 52
3, 21120, Note_on_c, 0, 76, 0
3, 21120, Note_on_c, 0, 74, 52
3, 21135, Note_on_c, 0, 74, 0
3, 21240, Note_on_c, 0, 73, 52
3, 21255, Note_on_c, 0, 73, 0
3, 21360, Note_on_c, 0, 71, 52
3, 21375, Note_on_c, 0, 71, 0
3, 21480, Note_on_c, 0, 74, 52
3, 21495, Note_on_c, 0, 74, 0
3, 21600, Note_on_c, 0, 73, 52
3, 21615, Note_on_c, 0, 73, 0
3, 21720, Note_on_c, 0, 71, 52
3, 21735, Note_on_c, 0, 71, 0
3, 21840, Note_on_c, 0, 70, 52
3, 21855, Note_on_c, 0, 70, 0
3, 21960, Note_on_c, 0, 73, 52
3, 21975, Note_on_c, 0, 73, 0
3, 22080, Note_on_c, 0, 71, 52
3, 22095, Note_on_c, 0, 71, 0
3, 22200, Note_on_c, 0, 66, 52
3, 22215, Note_on_c, 0, 66, 0
3, 22320, Note_on_c, 0, 68, 52
3, 22335, Note_on_c, 0, 68, 0
3, 22440, Note_on_c, 0, 70, 52
3, 22455, Note_on_c, 0, 70, 0
3, 22560, Note_on_c, 0, 71, 52
3, 22575, Note_on_c, 0, 71, 0
3, 22680, Note_on_c, 0, 66, 52
3, 22695, Note_on_c, 0, 66, 0
3, 22800, Note_on_c, 0, 68, 52
3, 22815, Note_on_c, 0, 68, 0
3, 22920, Note_on_c, 0, 70, 52
3, 22935, Note_on_c, 0, 70, 0
3, 23040, Note_on_c, 0, 71, 52
3, 23063, Note_on_c, 0, 71, 0
3, 23160, Note_on_c, 0, 71, 52
3, 23220, Note_on_c, 0, 71, 0
3, 23220, Note_on_c, 0, 73, 52
3, 23280, Note_on_c, 0, 73, 0
3, 23280, Note_on_c, 0, 71, 52
3, 23520, Note_on_c, 0, 71, 0
3, 23520, Note_on_c, 0, 70, 52
3, 23760, Note_on_c, 0, 70, 0
3, 23760, Note_on_c, 0, 73, 52
3, 24000, Note_on_c, 0, 73, 0
3, 24000, Note_on_c, 0, 71, 52
3, 24023, Note_on_c, 0, 71, 0
3, 24120, Note_on_c, 0, 71, 52
3, 24180, Note_on_c, 0, 71, 0
3, 24180, Note_on_c, 0, 73, 52
3, 24240, Note_on_c, 0, 73, 0
3, 24240, Note_on_c, 0, 71, 52
3, 24480, Note_on_c, 0, 71, 0
3, 24480, Note_on_c, 0, 70, 52
3, 24720, Note_on_c, 0, 70, 0
3, 24720, Note_on_c, 0, 73, 52
3, 24960, Note_on_c, 0, 73, 0
3, 24960, Control_c, 0, 64, 127
3, 24960, Note_on_c, 0, 71, 52
3, 25020, Note_on_c, 0, 71, 0
3, 25020, Note_on_c, 0, 73, 52
3, 25080, Note_on_c, 0, 73, 0
3, 25080, Note_on_c, 0, 71, 52
3, 25140, Note_on_c, 0, 71, 0
3, 25140, Note_on_c, 0, 73, 52
3, 25200, Note_on_c, 0, 73, 0
3, 25200, Note_on_c, 0, 71, 52
3, 25260, Note_on_c, 0, 71, 0
3, 25260, Note_on_c, 0, 73, 52
3, 25320, Note_on_c, 0, 73, 0
3, 25320, Note_on_c, 0, 70, 52
3, 25380, Note_on_c, 0, 70, 0
3, 25380, Note_on_c, 0, 71, 52
3, 25440, Note_on_c, 0, 71, 0
3, 25440, Control_c, 0, 64, 0
3, 25440, Note_on_c, 0, 75, 52
3, 25463, Note_on_c, 0, 75, 0
3, 25680, Note_on_c, 0, 71, 52
3, 25703, Note_on_c, 0, 71, 0
3, 25920, Note_on_c, 0, 68, 52
3, 26640, Note_on_c, 0, 68, 0
3, 26640, Note_on_c, 0, 70, 52
3, 26663, Note_on_c, 0, 70, 0
3, 26880, Note_on_c, 0, 71, 52
3, 27240, Note_on_c, 0, 63, 52
3, 27300, Note_on_c, 0, 63, 0
3, 27300, Note_on_c, 0, 64, 52
3, 27360, Note_on_c, 0, 64, 0
3, 27360, Note_on_c, 0, 71, 0
3, 27360, Note_on_c, 0, 63, 52
3, 27600, Note_on_c, 0, 63, 0
3, 27600, Note_on_c, 0, 62, 52
3, 27840, Note_on_c, 0, 62, 0
3, 27840, Note_on_c, 0, 63, 52
3, 28320, Note_on_c, 0, 63, 0
3, 28320, Note_on_c, 0, 66, 52
3, 28800, Note_on_c, 0, 66, 0
3, 28800, Control_c, 0, 64, 127
3, 28800, Note_on_c, 0, 64, 52
3, 28860, Note_on_c, 0, 64, 0
3, 28860, Note_on_c, 0, 66, 52
3, 28920, Note_on_c, 0, 66, 0
3, 28920, Note_on_c, 0, 64, 52
3, 28980, Note_on_c, 0, 64, 0
3, 28980, Note_on_c, 0, 66, 52
3, 29040, Note_on_c, 0, 66, 0
3, 29040, Note_on_c, 0, 64, 52
3, 29100, Note_on_c, 0, 64, 0
3, 29100, Note_on_c, 0, 66, 52
3, 29160, Note_on_c, 0, 66, 0
3, 29160, Note_on_c, 0, 63, 52
3, 29220, Note_on_c, 0, 63, 0
3, 29220, Note_on_c, 0, 64, 52
3, 29280, Note_on_c, 0, 64, 0
3, 29280, Control_c, 0, 64, 0
3, 29280, Note_on_c, 0, 68, 52
3, 29303, Note_on_c, 0, 68, 0
3, 29520, Note_on_c, 0, 64, 52
3, 29543, Note_on_c, 0, 64, 0
3, 29760, Note_on_c, 0, 61, 52
3, 30240, Note_on_c, 0, 61, 0
3, 30360, Note_on_c, 0, 66, 52
3, 30480, Note_on_c, 0, 66, 0
3, 30480, Note_on_c, 0, 68, 52
3, 30600, Note_on_c, 0, 68, 0
3, 30600, Note_on_c, 0, 70, 52
3, 30720, Note_on_c, 0, 70, 0
3, 30720, Note_on_c, 0, 71, 52
3, 30743, Note_on_c, 0, 71, 0
3, 30840, Note_on_c, 0, 71, 52
3, 30900, Note_on_c, 0, 71, 0
3, 30900, Note_on_c, 0, 73, 52
3, 30960, Note_on_c, 0, 73, 0
3, 30960, Note_on_c, 0, 71, 52
3, 31200, Note_on_c, 0, 71, 0
3, 31200, Note_on_c, 0, 70, 52
3, 31440, Note_on_c, 0, 70, 0
3, 31440, Note_on_c, 0, 73, 52
3, 31680, Note_on_c, 0, 73, 0
3, 31680, Note_on_c, 0, 71, 52
3, 31703, Note_on_c, 0, 71, 0
3, 31800, Note_on_c, 0, 71, 52
3, 31860, Note_on_c, 0, 71, 0
3, 31860, Note_on_c, 0, 73, 52
3, 31920, Note_on_c, 0, 73, 0
3, 31920, Note_on_c, 0, 71, 52
3, 32160, Note_on_c, 0, 71, 0
3, 32160, Note_on_c, 0, 70, 52
3, 32400, Note_on_c, 0, 70, 0
3, 32400, Note_on_c, 0, 73, 52
3, 32640, Note_on_c, 0, 73, 0
3, 32640, Control_c, 0, 64, 127
3, 32640, Note_on_c, 0, 71, 52
3, 32700, Note_on_c, 0, 71, 0
3, 32700, Note_on_c, 0, 73, 52
3, 32760, Note_on_c, 0, 73, 0
3, 32760, Note_on_c, 0, 71, 52
3, 32820, Note_on_c, 0, 71, 0
3, 32820, Note_on_c, 0, 73, 52
3, 32880, Note_on_c, 0, 73, 0
3, 32880, Note_on_c, 0, 71, 52
3, 32940, Note_on_c, 0, 71, 0
3, 32940, Note_on_c, 0, 73, 52
3, 33000, Note_on_c, 0, 73, 0
3, 33000, Note_on_c, 0, 70, 52
3, 33060, Note_on_c, 0, 70, 0
3, 33060, Note_on_c, 0, 71, 52
3, 33120, Note_on_c, 0, 71, 0
3, 33120, Control_c, 0, 64, 0
3, 33120, Note_on_c, 0, 75, 52
3, 33143, Note_on_c, 0, 75, 0
3, 33360, Note_on_c, 0, 71, 52
3, 33383, Note_on_c, 0, 71, 0
3, 33600, Note_on_c, 0, 68, 52
3, 34320, Note_on_c, 0, 68, 0
3, 34320, Note_on_c, 0, 70, 52
3, 34343, Note_on_c, 0, 70, 0
3, 34560, Note_on_c, 0, 71, 52
3, 34920, Note_on_c, 0, 63, 52
3, 34980, Note_on_c, 0, 63, 0
3, 34980, Note_on_c, 0, 64, 52
3, 35040, Note_on_c, 0, 64, 0
3, 35040, Note_on_c, 0, 71, 0
3, 35040, Note_on_c, 0, 63, 52
3, 35280, Note_on_c, 0, 63, 0
3, 35280, Note_on_c, 0, 62, 52
3, 35520, Note_on_c, 0, 62, 0
3, 35520, Note_on_c, 0, 63, 52
3, 36000, Note_on_c, 0, 63, 0
3, 36000, Note_on_c, 0, 66, 52
3, 36480, Note_on_c, 0, 66, 0
3, 36480, Control_c, 0, 64, 127
3, 36480, Note_on_c, 0, 64, 52
3, 36540, Note_on_c, 0, 64, 0
3, 36540, Note_on_c, 0, 66, 52
3, 36600, Note_on_c, 0, 66, 0
3, 36600, Note_on_c, 0, 64, 52
3, 36660, Note_on_c, 0, 64, 0
3, 36660, Note_on_c, 0, 66, 52
3, 36720, Note_on_c, 0, 66, 0
3, 36720, Note_on_c, 0, 64, 52
3, 36780, Note_on_c, 0, 64, 0
3, 36780, Note_on_c, 0, 66, 52
3, 36840, Note_on_c, 0, 66, 0
3, 36840, Note_on_c, 0, 63, 52
3, 36900, Note_on_c, 0, 63, 0
3, 36900, Note_on_c, 0, 64, 52
3, 36960, Note_on_c, 0, 64, 0
3, 36960, Control_c, 0, 64, 0
3, 36960, Note_on_c, 0, 68, 52
3, 36983, Note_on_c, 0, 68, 0
3, 37200, Note_on_c, 0, 64, 52
3, 37223, Note_on_c, 0, 64, 0
3, 37440, Note_on_c, 0, 61, 52
3, 37920, Note_on_c, 0, 61, 0
3, 38160, Note_on_c, 0, 66, 78
3, 38400, Note_on_c, 0, 66, 0
3, 38400, Note_on_c, 0, 66, 104
3, 38400, Note_on_c, 0, 75, 104
3, 38880, Note_on_c, 0, 75, 0
3, 38880, Note_on_c, 0, 66, 0
3, 38880, Note_on_c, 0, 66, 104
3, 38880, Note_on_c, 0, 71, 104
3, 39360, Note_on_c, 0, 71, 0
3, 39360, Note_on_c, 0, 66, 0
3, 39360, Note_on_c, 0, 71, 104
3, 39360, Note_on_c, 0, 78, 104
3, 39840, Note_on_c, 0, 78, 0
3, 39840, Note_on_c, 0, 71, 0
3, 39840, Note_on_c, 0, 72, 104
3, 39840, Note_on_c, 0, 75, 104
3, 39840, Note_on_c, 0, 80, 104
3, 40320, Note_on_c, 0, 80, 0
3, 40320, Note_on_c, 0, 75, 0
3, 40320, Note_on_c, 0, 72, 0
3, 40320, Note_on_c, 0, 73, 78
3, 40320, Note_on_c, 0, 76, 78
3, 40380, Note_on_c, 0, 76, 0
3, 40380, Note_on_c, 0, 73, 0
3, 40380, Note_on_c, 0, 78, 78
3, 40440, Note_on_c, 0, 78, 0
3, 40440, Note_on_c, 0, 76, 78
3, 40500, Note_on_c, 0, 76, 0
3, 40500, Note_on_c, 0, 78, 78
3, 40560, Note_on_c, 0, 78, 0
3, 40560, Note_on_c, 0, 76, 78
3, 40620, Note_on_c, 0, 76, 0
3, 40620, Note_on_c, 0, 78, 78
3, 40680, Note_on_c, 0, 78, 0
3, 40680, Note_on_c, 0, 75, 78
3, 40740, Note_on_c, 0, 75, 0
3, 40740, Note_on_c, 0, 76, 78
3, 40800, Note_on_c, 0, 76, 0
3, 40800, Note_on_c, 0, 80, 78
3, 40823, Note_on_c, 0, 80, 0
3, 41040, Note_on_c, 0, 73, 78
3, 41040, Note_on_c, 0, 76, 78
3, 41063, Note_on_c, 0, 76, 0
3, 41063, Note_on_c, 0, 73, 0
3, 41280, Note_on_c, 0, 70, 78
3, 41280, Note_on_c, 0, 73, 78
3, 42000, Note_on_c, 0, 73, 0
3, 42000, Note_on_c, 0, 70, 0
3, 42000, Note_on_c, 0, 66, 78
3, 42240, Note_on_c, 0, 66, 0
3, 42240, Note_on_c, 0, 71, 104
3, 42240, Note_on_c, 0, 78, 104
3, 42720, Note_on_c, 0, 78, 0
3, 42720, Note_on_c, 0, 71, 0
3, 42720, Note_on_c, 0, 66, 104
3, 42720, Note_on_c, 0, 73, 104
3, 42720, Note_on_c, 0, 76, 104
3, 43200, Note_on_c, 0, 76, 0
3, 43200, Note_on_c, 0, 73, 0
3, 43200, Note_on_c, 0, 66, 0
3, 43200, Note_on_c, 0, 66, 78
3, 43200, Note_on_c, 0, 71, 78
3, 43200, Note_on_c, 0, 75, 78
3, 43223, Note_on_c, 0, 75, 0
3, 43223, Note_on_c, 0, 71, 0
3, 43223, Note_on_c, 0, 66, 0
3, 43440, Note_on_c, 0, 71, 104
3, 43920, Note_on_c, 0, 71, 0
3, 43920, Note_on_c, 0, 75, 78
3, 44160, Note_on_c, 0, 75, 0
3, 44160, Note_on_c, 0, 73, 78
3, 44280, Note_on_c, 0, 73, 0
3, 44280, Note_on_c, 0, 75, 78
3, 44400, Note_on_c, 0, 75, 0
3, 44400, Note_on_c, 0, 76, 78
3, 44520, Note_on_c, 0, 76, 0
3, 44520, Note_on_c, 0, 75, 78
3, 44640, Note_on_c, 0, 75, 0
3, 44640, Note_on_c, 0, 73, 78
3, 44760, Note_on_c, 0, 73, 0
3, 44760, Note_on_c, 0, 71, 78
3, 44880, Note_on_c, 0, 71, 0
3, 44880, Note_on_c, 0, 70, 78
3, 45000, Note_on_c, 0, 70, 0
3, 45000, Note_on_c, 0, 73, 78
3, 45120, Note_on_c, 0, 73, 0
3, 45120, Note_on_c, 0, 71, 78
3, 45240, Note_on_c, 0, 71, 0
3, 45240, Note_on_c, 0, 66, 78
3, 45360, Note_on_c, 0, 66, 0
3, 45360, Note_on_c, 0, 68, 78
3, 45480, Note_on_c, 0, 68, 0
3, 45480, Note_on_c, 0, 70, 78
3, 45600, Note_on_c, 0, 70, 0
3, 45600, Note_on_c, 0, 71, 78
3, 45840, Note_on_c, 0, 71, 0
3, 45840, Note_on_c, 0, 66, 78
3, 46080, Note_on_c, 0, 66, 0
3, 46080, Note_on_c, 0, 66, 104
3, 46080, Note_on_c, 0, 75, 104
3, 46560, Note_on_c, 0, 75, 0
3, 46560, Note_on_c, 0, 66, 0
3, 46560, Note_on_c, 0, 66, 104
3, 46560, Note_on_c, 0, 71, 104
3, 47040, Note_on_c, 0, 71, 0
3, 47040, Note_on_c, 0, 66, 0
3, 47040, Note_on_c, 0, 71, 104
3, 47040, Note_on_c, 0, 78, 104
3, 47520, Note_on_c, 0, 78, 0
3, 47520, Note_on_c, 0, 71, 0
3, 47520, Note_on_c, 0, 72, 104
3, 47520, Note_on_c, 0, 75, 104
3, 47520, Note_on_c, 0, 80, 104
3, 48000, Note_on_c, 0, 80, 0
3, 48000, Note_on_c, 0, 75, 0
3, 48000, Note_on_c, 0, 72, 0
3, 48000, Note_on_c, 0, 73, 78
3, 48000, Note_on_c, 0, 76, 78
3, 48060, Note_on_c, 0, 76, 0
3, 48060, Note_on_c, 0, 73, 0
3, 48060, Note_on_c, 0, 78, 78
3, 48120, Note_on_c, 0, 78, 0
3, 48120, Note_on_c, 0, 76, 78
3, 48180, Note_on_c, 0, 76, 0
3, 48180, Note_on_c, 0, 78, 78
3, 48240, Note_on_c, 0, 78, 0
3, 48240, Note_on_c, 0, 76, 78
3, 48300, Note_on_c, 0, 76, 0
3, 48300, Note_on_c, 0, 78, 78
3, 48360, Note_on_c, 0, 78, 0
3, 48360, Note_on_c, 0, 75, 78
3, 48420, Note_on_c, 0, 75, 0
3, 48420, Note_on_c, 0, 76, 78
3, 48480, Note_on_c, 0, 76, 0
3, 48480, Note_on_c, 0, 80, 78
3, 48503, Note_on_c, 0, 80, 0
3, 48720, Note_on_c, 0, 73, 78
3, 48720, Note_on_c, 0, 76, 78
3, 48743, Note_on_c, 0, 76, 0
3, 48743, Note_on_c, 0, 73, 0
3, 48960, Note_on_c, 0, 70, 78
3, 48960, Note_on_c, 0, 73, 78
3, 49680, Note_on_c, 0, 73, 0
3, 49680, Note_on_c, 0, 70, 0
3, 49680, Note_on_c, 0, 66, 78
3, 49920, Note_on_c, 0, 66, 0
3, 49920, Note_on_c, 0, 71, 104
3, 49920, Note_on_c, 0, 78, 104
3, 50400, Note_on_c, 0, 78, 0
3, 50400, Note_on_c, 0, 71, 0
3, 50400, Note_on_c, 0, 66, 104
3, 50400, Note_on_c, 0, 73, 104
3, 50400, Note_on_c, 0, 76, 104
3, 50880, Note_on_c, 0, 76, 0
3, 50880, Note_on_c, 0, 73, 0
3, 50880, Note_on_c, 0, 66, 0
3, 50880, Note_on_c, 0, 66, 78
3, 50880, Note_on_c, 0, 71, 78
3, 50880, Note_on_c, 0, 75, 78
3, 50903, Note_on_c, 0, 75, 0
3, 50903, Note_on_c, 0, 71, 0
3, 50903, Note_on_c, 0, 66, 0
3, 51120, Note_on_c, 0, 71, 104
3, 51600, Note_on_c, 0, 71, 0
3, 51600, Note_on_c, 0, 75, 78
3, 51840, Note_on_c, 0, 75, 0
3, 51840, Note_on_c, 0, 73, 78
3, 51960, Note_on_c, 0, 73, 0
3, 51960, Note_on_c, 0, 75, 78
3, 52080, Note_on_c, 0, 75, 0
3, 52080, Note_on_c, 0, 76, 78
3, 52200, Note_on_c, 0, 76, 0
3, 52200, Note_on_c, 0, 75, 78
3, 52320, Note_on_c, 0, 75, 0
3, 52320, Note_on_c, 0, 73, 78
3, 52440, Note_on_c, 0, 73, 0
3, 52440, Note_on_c, 0, 71, 78
3, 52560, Note_on_c, 0, 71, 0
3, 52560, Note_on_c, 0, 70, 78
3, 52680, Note_on_c, 0, 70, 0
3, 52680, Note_on_c, 0, 73, 78
3, 52800, Note_on_c, 0, 73, 0
3, 52800, Note_on_c, 0, 71, 78
3, 52920, Note_on_c, 0, 71, 0
3, 52920, Note_on_c, 0, 66, 78
3, 53040, Note_on_c, 0, 66, 0
3, 53040, Note_on_c, 0, 68, 78
3, 53160, Note_on_c, 0, 68, 0
3, 53160, Note_on_c, 0, 70, 78
3, 53280, Note_on_c, 0, 70, 0
3, 53280, Note_on_c, 0, 71, 78
3, 53520, Note_on_c, 0, 71, 0
3, 56460, Control_c, 0, 64, 127
3, 56460, Note_on_c, 0, 73, 52
3, 56520, Note_on_c, 0, 73, 0
3, 56520, Note_on_c, 0, 70, 52
3, 56580, Note_on_c, 0, 70, 0
3, 56580, Note_on_c, 0, 71, 52
3, 56640, Note_on_c, 0, 71, 0
3, 56640, Control_c, 0, 64, 0
3, 56640, Note_on_c, 0, 74, 52
3, 56655, Note_on_c, 0, 74, 0
3, 56760, Note_on_c, 0, 73, 52
3, 56775, Note_on_c, 0, 73, 0
3, 56880, Note_on_c, 0, 71, 52
3, 56895, Note_on_c, 0, 71, 0
3, 57000, Note_on_c, 0, 74, 52
3, 57015, Note_on_c, 0, 74, 0
3, 57120, Note_on_c, 0, 73, 52
3, 57135, Note_on_c, 0, 73, 0
3, 57240, Note_on_c, 0, 71, 52
3, 57255, Note_on_c, 0, 71, 0
3, 57360, Note_on_c, 0, 70, 52
3, 57375, Note_on_c, 0, 70, 0
3, 57480, Note_on_c, 0, 73, 52
3, 57495, Note_on_c, 0, 73, 0
3, 57600, Note_on_c, 0, 71, 52
3, 57615, Note_on_c, 0, 71, 0
3, 57720, Note_on_c, 0, 66, 52
3, 57735, Note_on_c, 0, 66, 0
3, 57840, Note_on_c, 0, 68, 52
3, 57855, Note_on_c, 0, 68, 0
3, 57960, Note_on_c, 0, 70, 52
3, 57975, Note_on_c, 0, 70, 0
3, 58080, Note_on_c, 0, 71, 52
3, 58095, Note_on_c, 0, 71, 0
3, 58200, Note_on_c, 0, 73, 52
3, 58215, Note_on_c, 0, 73, 0
3, 58320, Note_on_c, 0, 74, 52
3, 58335, Note_on_c, 0, 74, 0
3, 58440, Note_on_c, 0, 71, 52
3, 58455, Note_on_c, 0, 71, 0
3, 58560, Note_on_c, 0, 73, 52
3, 58583, Note_on_c, 0, 73, 0
3, 60300, Control_c, 0, 64, 127
3, 60300, Note_on_c, 0, 80, 52
3, 60360, Note_on_c, 0, 80, 0
3, 60360, Note_on_c, 0, 77, 52
3, 60420, Note_on_c, 0, 77, 0
3, 60420, Note_on_c, 0, 78, 52
3, 60480, Note_on_c, 0, 78, 0
3, 60480, Control_c, 0, 64, 0
3, 60480, Note_on_c, 0, 81, 52
3, 60495, Note_on_c, 0, 81, 0
3, 60600, Note_on_c, 0, 80, 52
3, 60615, Note_on_c, 0, 80, 0
3, 60720, Note_on_c, 0, 78, 52
3, 60735, Note_on_c, 0, 78, 0
3, 60840, Note_on_c, 0, 81, 52
3, 60855, Note_on_c, 0, 81, 0
3, 60960, Note_on_c, 0, 80, 52
3, 60975, Note_on_c, 0, 80, 0
3, 61080, Note_on_c, 0, 78, 52
3, 61095, Note_on_c, 0, 78, 0
3, 61200, Note_on_c, 0, 77, 52
3, 61215, Note_on_c, 0, 77, 0
3, 61320, Note_on_c, 0, 80, 52
3, 61335, Note_on_c, 0, 80, 0
3, 61440, Note_on_c, 0, 78, 52
3, 61455, Note_on_c, 0, 78, 0
3, 61560, Note_on_c, 0, 73, 52
3, 61575, Note_on_c, 0, 73, 0
3, 61680, Note_on_c, 0, 75, 65
3, 61695, Note_on_c, 0, 75, 0
3, 61800, Note_on_c, 0, 77, 65
3, 61815, Note_on_c, 0, 77, 0
3, 61920, Note_on_c, 0, 78, 65
3, 61943, Note_on_c, 0, 78, 0
3, 62560, Note_on_c, 0, 67, 52
3, 62600, Note_on_c, 0, 71, 52
3, 62640, Note_on_c, 0, 76, 52
3, 62663, Note_on_c, 0, 76, 0
3, 62663, Note_on_c, 0, 71, 0
3, 62663, Note_on_c, 0, 67, 0
3, 63030, Note_on_c, 0, 67, 52
3, 63060, Note_on_c, 0, 69, 52
3, 63090, Note_on_c, 0, 73, 52
3, 63120, Note_on_c, 0, 76, 52
3, 63143, Note_on_c, 0, 76, 0
3, 63143, Note_on_c, 0, 67, 0
3, 63143, Note_on_c, 0, 69, 0
3, 63143, Note_on_c, 0, 73, 0
3, 63510, Note_on_c, 0, 66, 52
3, 63540, Note_on_c, 0, 69, 52
3, 63570, Note_on_c, 0, 73, 52
3, 63600, Note_on_c, 0, 74, 52
3, 63623, Note_on_c, 0, 74, 0
3, 63623, Note_on_c, 0, 66, 0
3, 63623, Note_on_c, 0, 69, 0
3, 63623, Note_on_c, 0, 73, 0
3, 63990, Note_on_c, 0, 66, 52
3, 64020, Note_on_c, 0, 67, 52
3, 64050, Note_on_c, 0, 71, 52
3, 64080, Note_on_c, 0, 74, 52
3, 64103, Note_on_c, 0, 74, 0
3, 64103, Note_on_c, 0, 66, 0
3, 64103, Note_on_c, 0, 67, 0
3, 64103, Note_on_c, 0, 71, 0
3, 64470, Note_on_c, 0, 64, 52
3, 64500, Note_on_c, 0, 67, 52
3, 64530, Note_on_c, 0, 71, 52
3, 64560, Note_on_c, 0, 73, 52
3, 64583, Note_on_c, 0, 73, 0
3, 64583, Note_on_c, 0, 64, 0
3, 64583, Note_on_c, 0, 67, 0
3, 64583, Note_on_c, 0, 71, 0
3, 64950, Note_on_c, 0, 64, 52
3, 64980, Note_on_c, 0, 66, 52
3, 65010, Note_on_c, 0, 69, 52
3, 65040, Note_on_c, 0, 73, 52
3, 65063, Note_on_c, 0, 73, 0
3, 65063, Note_on_c, 0, 64, 0
3, 65063, Note_on_c, 0, 66, 0
3, 65063, Note_on_c, 0, 69, 0
3, 65430, Note_on_c, 0, 62, 52
3, 65460, Note_on_c, 0, 66, 52
3, 65490, Note_on_c, 0, 69, 52
3, 65520, Note_on_c, 0, 71, 52
3, 65543, Note_on_c, 0, 71, 0
3, 65543, Note_on_c, 0, 62, 0
3, 65543, Note_on_c, 0, 66, 0
3, 65543, Note_on_c, 0, 69, 0
3, 65910, Note_on_c, 0, 64, 52
3, 65940, Note_on_c, 0, 67, 52
3, 65970, Note_on_c, 0, 71, 52
3, 66000, Note_on_c, 0, 74, 52
3, 66023, Note_on_c, 0, 74, 0
3, 66023, Note_on_c, 0, 64, 0
3, 66023, Note_on_c, 0, 67, 0
3, 66023, Note_on_c, 0, 71, 0
3, 66240, Note_on_c, 0, 73, 91
3, 66600, Note_on_c, 0, 73, 0
3, 66600, Note_on_c, 0, 70, 65
3, 66720, Note_on_c, 0, 70, 0
3, 66720, Note_on_c, 0, 66, 65
3, 66960, Note_on_c, 0, 66, 0
3, 66960, Note_on_c, 0, 79, 78
3, 67080, Note_on_c, 0, 79, 0
3, 67080, Note_on_c, 0, 78, 52
3, 67200, Note_on_c, 0, 78, 0
3, 67200, Note_on_c, 0, 78, 78
3, 67320, Note_on_c, 0, 78, 0
3, 67320, Note_on_c, 0, 76, 52
3, 67440, Note_on_c, 0, 76, 0
3, 67440, Note_on_c, 0, 76, 78
3, 67560, Note_on_c, 0, 76, 0
3, 67560, Note_on_c, 0, 74, 52
3, 67680, Note_on_c, 0, 74, 0
3, 67680, Note_on_c, 0, 74, 78
3, 67800, Note_on_c, 0, 74, 0
3, 67800, Note_on_c, 0, 73, 52
3, 67920, Note_on_c, 0, 73, 0
3, 67920, Note_on_c, 0, 73, 78
3, 68040, Note_on_c, 0, 73, 0
3, 68040, Note_on_c, 0, 76, 52
3, 68160, Note_on_c, 0, 76, 0
3, 68160, Note_on_c, 0, 74, 52
3, 68175, Note_on_c, 0, 74, 0
3, 68280, Note_on_c, 0, 73, 52
3, 68295, Note_on_c, 0, 73, 0
3, 68400, Note_on_c, 0, 71, 52
3, 68415, Note_on_c, 0, 71, 0
3, 68520, Note_on_c, 0, 74, 52
3, 68535, Note_on_c, 0, 74, 0
3, 68640, Note_on_c, 0, 73, 52
3, 68655, Note_on_c, 0, 73, 0
3, 68760, Note_on_c, 0, 71, 52
3, 68775, Note_on_c, 0, 71, 0
3, 68880, Note_on_c, 0, 70, 52
3, 68895, Note_on_c, 0, 70, 0
3, 69000, Note_on_c, 0, 73, 52
3, 69015, Note_on_c, 0, 73, 0
3, 69120, Note_on_c, 0, 71, 52
3, 69135, Note_on_c, 0, 71, 0
3, 69240, Note_on_c, 0, 66, 52
3, 69255, Note_on_c, 0, 66, 0
3, 69360, Note_on_c, 0, 68, 52
3, 69375, Note_on_c, 0, 68, 0
3, 69480, Note_on_c, 0, 70, 52
3, 69495, Note_on_c, 0, 70, 0
3, 69600, Note_on_c, 0, 71, 52
3, 69623, Note_on_c, 0, 71, 0
3, 70200, Note_on_c, 0, 76, 52
3, 70215, Note_on_c, 0, 76, 0
3, 70320, Note_on_c, 0, 71, 52
3, 70335, Note_on_c, 0, 71, 0
3, 70440, Note_on_c, 0, 76, 52
3, 70455, Note_on_c, 0, 76, 0
3, 70470, Note_on_c, 0, 69, 52
3, 70500, Note_on_c, 0, 73, 52
3, 70530, Note_on_c, 0, 76, 52
3, 70560, Note_on_c, 0, 79, 52
3, 70583, Note_on_c, 0, 79, 0
3, 70583, Note_on_c, 0, 69, 0
3, 70583, Note_on_c, 0, 73, 0
3, 70583, Note_on_c, 0, 76, 0
3, 71160, Note_on_c, 0, 73, 52
3, 71175, Note_on_c, 0, 73, 0
3, 71280, Note_on_c, 0, 69, 52
3, 71295, Note_on_c, 0, 69, 0
3, 71400, Note_on_c, 0, 73, 52
3, 71415, Note_on_c, 0, 73, 0
3, 71430, Note_on_c, 0, 67, 52
3, 71460, Note_on_c, 0, 71, 52
3, 71490, Note_on_c, 0, 74, 52
3, 71520, Note_on_c, 0, 78, 52
3, 71543, Note_on_c, 0, 78, 0
3, 71543, Note_on_c, 0, 67, 0
3, 71543, Note_on_c, 0, 71, 0
3, 71543, Note_on_c, 0, 74, 0
3, 72120, Note_on_c, 0, 71, 52
3, 72135, Note_on_c, 0, 71, 0
3, 72240, Note_on_c, 0, 67, 52
3, 72255, Note_on_c, 0, 67, 0
3, 72360, Note_on_c, 0, 71, 52
3, 72375, Note_on_c, 0, 71, 0
3, 72390, Note_on_c, 0, 66, 52
3, 72420, Note_on_c, 0, 69, 52
3, 72450, Note_on_c, 0, 73, 52
3, 72480, Note_on_c, 0, 76, 52
3, 72503, Note_on_c, 0, 76, 0
3, 72503, Note_on_c, 0, 66, 0
3, 72503, Note_on_c, 0, 69, 0
3, 72503, Note_on_c, 0, 73, 0
3, 73080, Note_on_c, 0, 69, 52
3, 73095, Note_on_c, 0, 69, 0
3, 73200, Note_on_c, 0, 66, 52
3, 73215, Note_on_c, 0, 66, 0
3, 73320, Note_on_c, 0, 69, 52
3, 73335, Note_on_c, 0, 69, 0
3, 73350, Note_on_c, 0, 64, 52
3, 73380, Note_on_c, 0, 67, 52
3, 73410, Note_on_c, 0, 71, 52
3, 73440, Note_on_c, 0, 74, 52
3, 73463, Note_on_c, 0, 74, 0
3, 73463, Note_on_c, 0, 64, 0
3, 73463, Note_on_c, 0, 67, 0
3, 73463, Note_on_c, 0, 71, 0
3, 73840, Note_on_c, 0, 66, 52
3, 73880, Note_on_c, 0, 70, 52
3, 73920, Note_on_c, 0, 73, 52
3, 74160, Note_on_c, 0, 73, 0
3, 74160, Note_on_c, 0, 70, 0
3, 74160, Note_on_c, 0, 66, 0
3, 74640, Note_on_c, 0, 79, 104
3, 74760, Note_on_c, 0, 79, 0
3, 74760, Note_on_c, 0, 78, 78
3, 74880, Note_on_c, 0, 78, 0
3, 74880, Note_on_c, 0, 78, 104
3, 75000, Note_on_c, 0, 78, 0
3, 75000, Note_on_c, 0, 76, 78
3, 75120, Note_on_c, 0, 76, 0
3, 75120, Note_on_c, 0, 76, 104
3, 75240, Note_on_c, 0, 76, 0
3, 75240, Note_on_c, 0, 74, 78
3, 75360, Note_on_c, 0, 74, 0
3, 75360, Note_on_c, 0, 74, 104
3, 75480, Note_on_c, 0, 74, 0
3, 75480, Note_on_c, 0, 73, 78
3, 75600, Note_on_c, 0, 73, 0
3, 75600, Note_on_c, 0, 73, 104
3, 75720, Note_on_c, 0, 73, 0
3, 75720, Note_on_c, 0, 76, 78
3, 75840, Note_on_c, 0, 76, 0
3, 75840, Note_on_c, 0, 74, 78
3, 75855, Note_on_c, 0, 74, 0
3, 75960, Note_on_c, 0, 73, 78
3, 75975, Note_on_c, 0, 73, 0
3, 76080, Note_on_c, 0, 71, 78
3, 76095, Note_on_c, 0, 71, 0
3, 76200, Note_on_c, 0, 74, 78
3, 76215, Note_on_c, 0, 74, 0
3, 76320, Note_on_c, 0, 73, 78
3, 76335, Note_on_c, 0, 73, 0
3, 76440, Note_on_c, 0, 71, 78
3, 76455, Note_on_c, 0, 71, 0
3, 76560, Note_on_c, 0, 70, 78
3, 76575, Note_on_c, 0, 70, 0
3, 76680, Note_on_c, 0, 73, 78
3, 76695, Note_on_c, 0, 73, 0
3, 76800, Note_on_c, 0, 71, 78
3, 76815, Note_on_c, 0, 71, 0
3, 76920, Note_on_c, 0, 66, 78
3, 76935, Note_on_c, 0, 66, 0
3, 77040, Note_on_c, 0, 68, 78
3, 77055, Note_on_c, 0, 68, 0
3, 77160, Note_on_c, 0, 70, 78
3, 77175, Note_on_c, 0, 70, 0
3, 77280, Note_on_c, 0, 71, 78
3, 77303, Note_on_c, 0, 71, 0
3, 77520, Note_on_c, 0, 70, 91
3, 77520, Note_on_c, 0, 73, 91
3, 77520, Note_on_c, 0, 78, 91
3, 77543, Note_on_c, 0, 78, 0
3, 77543, Note_on_c, 0, 73, 0
3, 77543, Note_on_c, 0, 70, 0
3, 77760, Note_on_c, 0, 71, 91
3, 77760, Note_on_c, 0, 74, 91
3, 77760, Note_on_c, 0, 78, 91
3, 80640, Note_on_c, 0, 78, 0
3, 80640, Note_on_c, 0, 74, 0
3, 80640, Note_on_c, 0, 71, 0
3, 80640, End_track
4, 0, Start_track
4, 0, Title_t, "Instrument18"
4, 0, Program_c, 0, 0
4, 0, Control_c, 0, 7, 110
4, 0, Control_c, 0, 10, 30
4, 240, Note_on_c, 0, 50, 29
4, 240, Note_on_c, 0, 54, 29
4, 240, Note_on_c, 0, 59, 29
4, 263, Note_on_c, 0, 59, 0
4, 263, Note_on_c, 0, 54, 0
4, 263, Note_on_c, 0, 50, 0
4, 720, Note_on_c, 0, 50, 29
4, 720, Note_on_c, 0, 55, 29
4, 720, Note_on_c, 0, 59, 29
4, 743, Note_on_c, 0, 59, 0
4, 743, Note_on_c, 0, 55, 0
4, 743, Note_on_c, 0, 50, 0
4, 1200, Note_on_c, 0, 49, 29
4, 1200, Note_on_c, 0, 54, 29
4, 1200, Note_on_c, 0, 58, 29
4, 1223, Note_on_c, 0, 58, 0
4, 1223, Note_on_c, 0, 54, 0
4, 1223, Note_on_c, 0, 49, 0
4, 1680, Note_on_c, 0, 50, 29
4, 1680, Note_on_c, 0, 54, 29
4, 1680, Note_on_c, 0, 59, 29
4, 1703, Note_on_c, 0, 59, 0
4, 1703, Note_on_c, 0, 54, 0
4, 1703, Note_on_c, 0, 50, 0
4, 2040, Note_on_c, 0, 59, 29
4, 2040, Note_on_c, 0, 62, 29
4, 2160, Note_on_c, 0, 62, 0
4, 2160, Note_on_c, 0, 59, 0
4, 2280, Note_on_c, 0, 59, 29
4, 2280, Note_on_c, 0, 62, 29
4, 2280, Note_on_c, 0, 67, 29
4, 2400, Note_on_c, 0, 67, 0
4, 2400, Note_on_c, 0, 62, 0
4, 2400, Note_on_c, 0, 59, 0
4, 2520, Note_on_c, 0, 59, 29
4, 2520, Note_on_c, 0, 61, 29
4, 2520, Note_on_c, 0, 67, 29
4, 2640, Note_on_c, 0, 67, 0
4, 2640, Note_on_c, 0, 61, 0
4, 2640, Note_on_c, 0, 59, 0
4, 2760, Note_on_c, 0, 58, 29
4, 2760, Note_on_c, 0, 61, 29
4, 2760, Note_on_c, 0, 66, 29
4, 2880, Note_on_c, 0, 66, 0
4, 2880, Note_on_c, 0, 61, 0
4, 2880, Note_on_c, 0, 58, 0
4, 3000, Note_on_c, 0, 54, 29
4, 3000, Note_on_c, 0, 59, 29
4, 3000, Note_on_c, 0, 62, 29
4, 3120, Note_on_c, 0, 62, 0
4, 3120, Note_on_c, 0, 59, 0
4, 3120, Note_on_c, 0, 54, 0
4, 3240, Note_on_c, 0, 54, 29
4, 3240, Note_on_c, 0, 58, 29
4, 3240, Note_on_c, 0, 61, 29
4, 3360, Note_on_c, 0, 61, 0
4, 3360, Note_on_c, 0, 58, 0
4, 3360, Note_on_c, 0, 54, 0
4, 3480, Note_on_c, 0, 54, 29
4, 3480, Note_on_c, 0, 59, 29
4, 3600, Note_on_c, 0, 59, 0
4, 3600, Note_on_c, 0, 54, 0
4, 3720, Note_on_c, 0, 54, 29
4, 3720, Note_on_c, 0, 59, 29
4, 3720, Note_on_c, 0, 62, 29
4, 3840, Note_on_c, 0, 62, 0
4, 3840, Note_on_c, 0, 59, 0
4, 3840, Note_on_c, 0, 54, 0
4, 4080, Note_on_c, 0, 54, 29
4, 4080, Note_on_c, 0, 57, 29
4, 4080, Note_on_c, 0, 61, 29
4, 4103, Note_on_c, 0, 61, 0
4, 4103, Note_on_c, 0, 57, 0
4, 4103, Note_on_c, 0, 54, 0
4, 4560, Note_on_c, 0, 54, 29
4, 4560, Note_on_c, 0, 57, 29
4, 4560, Note_on_c, 0, 62, 29
4, 4583, Note_on_c, 0, 62, 0
4, 4583, Note_on_c, 0, 57, 0
4, 4583, Note_on_c, 0, 54, 0
4, 5040, Note_on_c, 0, 53, 29
4, 5040, Note_on_c, 0, 56, 29
4, 5040, Note_on_c, 0, 61, 29
4, 5063, Note_on_c, 0, 61, 0
4, 5063, Note_on_c, 0, 56, 0
4, 5063, Note_on_c, 0, 53, 0
4, 5520, Note_on_c, 0, 54, 29
4, 5520, Note_on_c, 0, 57, 29
4, 5520, Note_on_c, 0, 61, 29
4, 5543, Note_on_c, 0, 61, 0
4, 5543, Note_on_c, 0, 57, 0
4, 5543, Note_on_c, 0, 54, 0
4, 5880, Note_on_c, 0, 57, 29
4, 5880, Note_on_c, 0, 61, 29
4, 6000, Note_on_c, 0, 61, 0
4, 6000, Note_on_c, 0, 57, 0
4, 6120, Note_on_c, 0, 57, 29
4, 6120, Note_on_c, 0, 62, 29
4, 6120, Note_on_c, 0, 66, 29
4, 6240, Note_on_c, 0, 66, 0
4, 6240, Note_on_c, 0, 62, 0
4, 6240, Note_on_c, 0, 57, 0
4, 6360, Note_on_c, 0, 56, 29
4, 6360, Note_on_c, 0, 62, 29
4, 6360, Note_on_c, 0, 66, 29
4, 6480, Note_on_c, 0, 66, 0
4, 6480, Note_on_c, 0, 62, 0
4, 6480, Note_on_c, 0, 56, 0
4, 6600, Note_on_c, 0, 56, 29
4, 6600, Note_on_c, 0, 61, 29
4, 6600, Note_on_c, 0, 65, 29
4, 6720, Note_on_c, 0, 65, 0
4, 6720, Note_on_c, 0, 61, 0
4, 6720, Note_on_c, 0, 56, 0
4, 6840, Note_on_c, 0, 57, 29
4, 6840, Note_on_c, 0, 61, 29
4, 6840, Note_on_c, 0, 66, 29
4, 6960, Note_on_c, 0, 66, 0
4, 6960, Note_on_c, 0, 61, 0
4, 6960, Note_on_c, 0, 57, 0
4, 7080, Note_on_c, 0, 56, 42
4, 7080, Note_on_c, 0, 61, 42
4, 7080, Note_on_c, 0, 65, 42
4, 7200, Note_on_c, 0, 65, 0
4, 7200, Note_on_c, 0, 61, 0
4, 7200, Note_on_c, 0, 56, 0
4, 7320, Note_on_c, 0, 57, 42
4, 7320, Note_on_c, 0, 61, 42
4, 7320, Note_on_c, 0, 66, 42
4, 7440, Note_on_c, 0, 66, 0
4, 7440, Note_on_c, 0, 61, 0
4, 7440, Note_on_c, 0, 57, 0
4, 7560, Note_on_c, 0, 54, 42
4, 7560, Note_on_c, 0, 57, 42
4, 7560, Note_on_c, 0, 61, 42
4, 7680, Note_on_c, 0, 61, 0
4, 7680, Note_on_c, 0, 57, 0
4, 7680, Note_on_c, 0, 54, 0
4, 7830, Note_on_c, 0, 52, 42
4, 7860, Note_on_c, 0, 55, 42
4, 7890, Note_on_c, 0, 59, 42
4, 7920, Note_on_c, 0, 62, 42
4, 7943, Note_on_c, 0, 62, 0
4, 7943, Note_on_c, 0, 52, 0
4, 7943, Note_on_c, 0, 55, 0
4, 7943, Note_on_c, 0, 59, 0
4, 8160, Note_on_c, 0, 61, 68
4, 8520, Note_on_c, 0, 61, 0
4, 8520, Note_on_c, 0, 59, 42
4, 8535, Note_on_c, 0, 59, 0
4, 8640, Note_on_c, 0, 57, 42
4, 8663, Note_on_c, 0, 57, 0
4, 8790, Note_on_c, 0, 50, 42
4, 8820, Note_on_c, 0, 54, 42
4, 8850, Note_on_c, 0, 57, 42
4, 8880, Note_on_c, 0, 61, 42
4, 8903, Note_on_c, 0, 61, 0
4, 8903, Note_on_c, 0, 50, 0
4, 8903, Note_on_c, 0, 54, 0
4, 8903, Note_on_c, 0, 57, 0
4, 9120, Note_on_c, 0, 59, 68
4, 9480, Note_on_c, 0, 59, 0
4, 9480, Note_on_c, 0, 57, 42
4, 9600, Note_on_c, 0, 57, 0
4, 9600, Note_on_c, 0, 55, 42
4, 9623, Note_on_c, 0, 55, 0
4, 9750, Note_on_c, 0, 49, 42
4, 9780, Note_on_c, 0, 52, 42
4, 9810, Note_on_c, 0, 55, 42
4, 9840, Note_on_c, 0, 59, 42
4, 9863, Note_on_c, 0, 59, 0
4, 9863, Note_on_c, 0, 49, 0
4, 9863, Note_on_c, 0, 52, 0
4, 9863, Note_on_c, 0, 55, 0
4, 10080, Note_on_c, 0, 57, 68
4, 10440, Note_on_c, 0, 57, 0
4, 10440, Note_on_c, 0, 55, 42
4, 10560, Note_on_c, 0, 55, 0
4, 10560, Note_on_c, 0, 54, 42
4, 10583, Note_on_c, 0, 54, 0
4, 10800, Note_on_c, 0, 57, 42
4, 10823, Note_on_c, 0, 57, 0
4, 11040, Note_on_c, 0, 55, 42
4, 11400, Note_on_c, 0, 55, 0
4, 11400, Note_on_c, 0, 59, 42
4, 11520, Note_on_c, 0, 59, 0
4, 11520, Note_on_c, 0, 58, 42
4, 11760, Note_on_c, 0, 58, 0
4, 11760, Note_on_c, 0, 61, 42
4, 12000, Note_on_c, 0, 61, 0
4, 12240, Note_on_c, 0, 54, 29
4, 12240, Note_on_c, 0, 61, 29
4, 12263, Note_on_c, 0, 61, 0
4, 12263, Note_on_c, 0, 54, 0
4, 12480, Note_on_c, 0, 54, 29
4, 12480, Note_on_c, 0, 62, 29
4, 12503, Note_on_c, 0, 62, 0
4, 12503, Note_on_c, 0, 54, 0
4, 12720, Note_on_c, 0, 52, 29
4, 12720, Note_on_c, 0, 58, 29
4, 12743, Note_on_c, 0, 58, 0
4, 12743, Note_on_c, 0, 52, 0
4, 12960, Note_on_c, 0, 54, 29
4, 12960, Note_on_c, 0, 59, 29
4, 12983, Note_on_c, 0, 59, 0
4, 12983, Note_on_c, 0, 54, 0
4, 13200, Note_on_c, 0, 59, 29
4, 13200, Note_on_c, 0, 61, 29
4, 13200, Note_on_c, 0, 67, 29
4, 13223, Note_on_c, 0, 67, 0
4, 13223, Note_on_c, 0, 61, 0
4, 13223, Note_on_c, 0, 59, 0
4, 13440, Note_on_c, 0, 59, 29
4, 13440, Note_on_c, 0, 62, 29
4, 13440, Note_on_c, 0, 66, 29
4, 13463, Note_on_c, 0, 66, 0
4, 13463, Note_on_c, 0, 62, 0
4, 13463, Note_on_c, 0, 59, 0
4, 13680, Note_on_c, 0, 53, 55
4, 13680, Note_on_c, 0, 56, 55
4, 13680, Note_on_c, 0, 62, 55
4, 13703, Note_on_c, 0, 62, 0
4, 13703, Note_on_c, 0, 56, 0
4, 13703, Note_on_c, 0, 53, 0
4, 14160, Note_on_c, 0, 54, 29
4, 14160, Note_on_c, 0, 58, 29
4, 14160, Note_on_c, 0, 61, 29
4, 14183, Note_on_c, 0, 61, 0
4, 14183, Note_on_c, 0, 58, 0
4, 14183, Note_on_c, 0, 54, 0
4, 14400, Note_on_c, 0, 50, 29
4, 14400, Note_on_c, 0, 54, 29
4, 14400, Note_on_c, 0, 59, 29
4, 14423, Note_on_c, 0, 59, 0
4, 14423, Note_on_c, 0, 54, 0
4, 14423, Note_on_c, 0, 50, 0
4, 14640, Note_on_c, 0, 52, 29
4, 14640, Note_on_c, 0, 54, 29
4, 14640, Note_on_c, 0, 61, 29
4, 14663, Note_on_c, 0, 61, 0
4, 14663, Note_on_c, 0, 54, 0
4, 14663, Note_on_c, 0, 52, 0
4, 14880, Note_on_c, 0, 50, 29
4, 14880, Note_on_c, 0, 54, 29
4, 14880, Note_on_c, 0, 59, 29
4, 14903, Note_on_c, 0, 59, 0
4, 14903, Note_on_c, 0, 54, 0
4, 14903, Note_on_c, 0, 50, 0
4, 15120, Note_on_c, 0, 57, 55
4, 15120, Note_on_c, 0, 69, 55
4, 15143, Note_on_c, 0, 69, 0
4, 15143, Note_on_c, 0, 57, 0
4, 15360, Note_on_c, 0, 55, 81
4, 15360, Note_on_c, 0, 67, 81
4, 15720, Note_on_c, 0, 67, 0
4, 15720, Note_on_c, 0, 55, 0
4, 15720, Note_on_c, 0, 54, 55
4, 15720, Note_on_c, 0, 66, 55
4, 15735, Note_on_c, 0, 66, 0
4, 15735, Note_on_c, 0, 54, 0
4, 15840, Note_on_c, 0, 52, 55
4, 15840, Note_on_c, 0, 64, 55
4, 15863, Note_on_c, 0, 64, 0
4, 15863, Note_on_c, 0, 52, 0
4, 16080, Note_on_c, 0, 55, 55
4, 16080, Note_on_c, 0, 67, 55
4, 16103, Note_on_c, 0, 67, 0
4, 16103, Note_on_c, 0, 55, 0
4, 16320, Note_on_c, 0, 54, 81
4, 16320, Note_on_c, 0, 66, 81
4, 16680, Note_on_c, 0, 66, 0
4, 16680, Note_on_c, 0, 54, 0
4, 16680, Note_on_c, 0, 52, 55
4, 16680, Note_on_c, 0, 64, 55
4, 16695, Note_on_c, 0, 64, 0
4, 16695, Note_on_c, 0, 52, 0
4, 16800, Note_on_c, 0, 50, 55
4, 16800, Note_on_c, 0, 62, 55
4, 16823, Note_on_c, 0, 62, 0
4, 16823, Note_on_c, 0, 50, 0
4, 17040, Note_on_c, 0, 54, 55
4, 17040, Note_on_c, 0, 66, 55
4, 17063, Note_on_c, 0, 66, 0
4, 17063, Note_on_c, 0, 54, 0
4, 17280, Note_on_c, 0, 52, 81
4, 17280, Note_on_c, 0, 64, 81
4, 17640, Note_on_c, 0, 64, 0
4, 17640, Note_on_c, 0, 52, 0
4, 17640, Note_on_c, 0, 50, 55
4, 17640, Note_on_c, 0, 62, 55
4, 17655, Note_on_c, 0, 62, 0
4, 17655, Note_on_c, 0, 50, 0
4, 17760, Note_on_c, 0, 49, 55
4, 17760, Note_on_c, 0, 61, 55
4, 17783, Note_on_c, 0, 61, 0
4, 17783, Note_on_c, 0, 49, 0
4, 18000, Note_on_c, 0, 52, 55
4, 18000, Note_on_c, 0, 64, 55
4, 18023, Note_on_c, 0, 64, 0
4, 18023, Note_on_c, 0, 52, 0
4, 18240, Note_on_c, 0, 50, 81
4, 18240, Note_on_c, 0, 62, 81
4, 18600, Note_on_c, 0, 62, 0
4, 18600, Note_on_c, 0, 50, 0
4, 18600, Note_on_c, 0, 49, 55
4, 18600, Note_on_c, 0, 61, 55
4, 18615, Note_on_c, 0, 61, 0
4, 18615, Note_on_c, 0, 49, 0
4, 18720, Note_on_c, 0, 47, 55
4, 18720, Note_on_c, 0, 59, 55
4, 18743, Note_on_c, 0, 59, 0
4, 18743, Note_on_c, 0, 47, 0
4, 18960, Note_on_c, 0, 50, 55
4, 18960, Note_on_c, 0, 62, 55
4, 18983, Note_on_c, 0, 62, 0
4, 18983, Note_on_c, 0, 50, 0
4, 19200, Note_on_c, 0, 49, 81
4, 19200, Note_on_c, 0, 61, 81
4, 19560, Note_on_c, 0, 61, 0
4, 19560, Note_on_c, 0, 49, 0
4, 19560, Note_on_c, 0, 58, 55
4, 19680, Note_on_c, 0, 58, 0
4, 19680, Note_on_c, 0, 54, 55
4, 19920, Note_on_c, 0, 54, 0
4, 20040, Note_on_c, 0, 54, 29
4, 20040, Note_on_c, 0, 61, 29
4, 20160, Note_on_c, 0, 61, 0
4, 20160, Note_on_c, 0, 54, 0
4, 20280, Note_on_c, 0, 54, 29
4, 20280, Note_on_c, 0, 62, 29
4, 20400, Note_on_c, 0, 62, 0
4, 20400, Note_on_c, 0, 54, 0
4, 20520, Note_on_c, 0, 52, 29
4, 20520, Note_on_c, 0, 58, 29
4, 20640, Note_on_c, 0, 58, 0
4, 20640, Note_on_c, 0, 52, 0
4, 20760, Note_on_c, 0, 54, 29
4, 20760, Note_on_c, 0, 59, 29
4, 20880, Note_on_c, 0, 59, 0
4, 20880, Note_on_c, 0, 54, 0
4, 21000, Note_on_c, 0, 59, 29
4, 21000, Note_on_c, 0, 61, 29
4, 21000, Note_on_c, 0, 67, 29
4, 21120, Note_on_c, 0, 67, 0
4, 21120, Note_on_c, 0, 61, 0
4, 21120, Note_on_c, 0, 59, 0
4, 21240, Note_on_c, 0, 59, 29
4, 21240, Note_on_c, 0, 62, 29
4, 21240, Note_on_c, 0, 66, 29
4, 21360, Note_on_c, 0, 66, 0
4, 21360, Note_on_c, 0, 62, 0
4, 21360, Note_on_c, 0, 59, 0
4, 21480, Note_on_c, 0, 53, 55
4, 21480, Note_on_c, 0, 56, 55
4, 21480, Note_on_c, 0, 62, 55
4, 21600, Note_on_c, 0, 62, 0
4, 21600, Note_on_c, 0, 56, 0
4, 21600, Note_on_c, 0, 53, 0
4, 21960, Note_on_c, 0, 54, 29
4, 21960, Note_on_c, 0, 58, 29
4, 21960, Note_on_c, 0, 61, 29
4, 22080, Note_on_c, 0, 61, 0
4, 22080, Note_on_c, 0, 58, 0
4, 22080, Note_on_c, 0, 54, 0
4, 22200, Note_on_c, 0, 50, 29
4, 22200, Note_on_c, 0, 54, 29
4, 22200, Note_on_c, 0, 59, 29
4, 22320, Note_on_c, 0, 59, 0
4, 22320, Note_on_c, 0, 54, 0
4, 22320, Note_on_c, 0, 50, 0
4, 22440, Note_on_c, 0, 52, 29
4, 22440, Note_on_c, 0, 54, 29
4, 22440, Note_on_c, 0, 61, 29
4, 22560, Note_on_c, 0, 61, 0
4, 22560, Note_on_c, 0, 54, 0
4, 22560, Note_on_c, 0, 52, 0
4, 22680, Note_on_c, 0, 50, 29
4, 22680, Note_on_c, 0, 54, 29
4, 22680, Note_on_c, 0, 59, 29
4, 22800, Note_on_c, 0, 59, 0
4, 22800, Note_on_c, 0, 54, 0
4, 22800, Note_on_c, 0, 50, 0
4, 23280, Note_on_c, 0, 54, 29
4, 23280, Note_on_c, 0, 59, 29
4, 23280, Note_on_c, 0, 63, 29
4, 23303, Note_on_c, 0, 63, 0
4, 23303, Note_on_c, 0, 59, 0
4, 23303, Note_on_c, 0, 54, 0
4, 23520, Note_on_c, 0, 54, 55
4, 23520, Note_on_c, 0, 58, 55
4, 23520, Note_on_c, 0, 61, 55
4, 23520, Note_on_c, 0, 64, 55
4, 23520, Note_on_c, 0, 66, 55
4, 24000, Note_on_c, 0, 66, 0
4, 24000, Note_on_c, 0, 61, 0
4, 24000, Note_on_c, 0, 54, 0
4, 24000, Note_on_c, 0, 58, 0
4, 24000, Note_on_c, 0, 64, 0
4, 24240, Note_on_c, 0, 54, 29
4, 24240, Note_on_c, 0, 59, 29
4, 24240, Note_on_c, 0, 63, 29
4, 24263, Note_on_c, 0, 63, 0
4, 24263, Note_on_c, 0, 59, 0
4, 24263, Note_on_c, 0, 54, 0
4, 24480, Note_on_c, 0, 54, 55
4, 24480, Note_on_c, 0, 58, 55
4, 24480, Note_on_c, 0, 61, 55
4, 24480, Note_on_c, 0, 64, 55
4, 24480, Note_on_c, 0, 66, 55
4, 24960, Note_on_c, 0, 66, 0
4, 24960, Note_on_c, 0, 61, 0
4, 24960, Note_on_c, 0, 54, 0
4, 24960, Note_on_c, 0, 58, 0
4, 24960, Note_on_c, 0, 64, 0
4, 25200, Note_on_c, 0, 54, 29
4, 25200, Note_on_c, 0, 59, 29
4, 25200, Note_on_c, 0, 63, 29
4, 25223, Note_on_c, 0, 63, 0
4, 25223, Note_on_c, 0, 59, 0
4, 25223, Note_on_c, 0, 54, 0
4, 25440, Note_on_c, 0, 55, 29
4, 25440, Note_on_c, 0, 59, 29
4, 25440, Note_on_c, 0, 63, 29
4, 25440, Note_on_c, 0, 67, 29
4, 25920, Note_on_c, 0, 67, 0
4, 25920, Note_on_c, 0, 55, 0
4, 25920, Note_on_c, 0, 59, 0
4, 25920, Note_on_c, 0, 63, 0
4, 26160, Note_on_c, 0, 51, 29
4, 26160, Note_on_c, 0, 56, 29
4, 26160, Note_on_c, 0, 59, 29
4, 26183, Note_on_c, 0, 59, 0
4, 26183, Note_on_c, 0, 56, 0
4, 26183, Note_on_c, 0, 51, 0
4, 26400, Note_on_c, 0, 56, 29
4, 26400, Note_on_c, 0, 59, 29
4, 26400, Note_on_c, 0, 63, 29
4, 26880, Note_on_c, 0, 63, 0
4, 26880, Note_on_c, 0, 59, 0
4, 26880, Note_on_c, 0, 56, 0
4, 27120, Note_on_c, 0, 47, 29
4, 27120, Note_on_c, 0, 51, 29
4, 27360, Note_on_c, 0, 51, 0
4, 27360, Note_on_c, 0, 47, 0
4, 27360, Note_on_c, 0, 51, 29
4, 27360, Note_on_c, 0, 59, 29
4, 27840, Note_on_c, 0, 59, 0
4, 27840, Note_on_c, 0, 51, 0
4, 28080, Note_on_c, 0, 47, 29
4, 28080, Note_on_c, 0, 51, 29
4, 28320, Note_on_c, 0, 51, 0
4, 28320, Note_on_c, 0, 47, 0
4, 28320, Note_on_c, 0, 51, 29
4, 28320, Note_on_c, 0, 59, 29
4, 28800, Note_on_c, 0, 59, 0
4, 28800, Note_on_c, 0, 51, 0
4, 29040, Note_on_c, 0, 52, 29
4, 29040, Note_on_c, 0, 56, 29
4, 29063, Note_on_c, 0, 56, 0
4, 29063, Note_on_c, 0, 52, 0
4, 29280, Note_on_c, 0, 52, 29
4, 29280, Note_on_c, 0, 56, 29
4, 29280, Note_on_c, 0, 61, 29
4, 29760, Note_on_c, 0, 61, 0
4, 29760, Note_on_c, 0, 56, 0
4, 29760, Note_on_c, 0, 52, 0
4, 30000, Note_on_c, 0, 49, 29
4, 30000, Note_on_c, 0, 58, 29
4, 30023, Note_on_c, 0, 58, 0
4, 30023, Note_on_c, 0, 49, 0
4, 30240, Note_on_c, 0, 54, 29
4, 30720, Note_on_c, 0, 54, 0
4, 30960, Note_on_c, 0, 54, 29
4, 30960, Note_on_c, 0, 59, 29
4, 30960, Note_on_c, 0, 63, 29
4, 30983, Note_on_c, 0, 63, 0
4, 30983, Note_on_c, 0, 59, 0
4, 30983, Note_on_c, 0, 54, 0
4, 31200, Note_on_c, 0, 54, 55
4, 31200, Note_on_c, 0, 58, 55
4, 31200, Note_on_c, 0, 61, 55
4, 31200, Note_on_c, 0, 64, 55
4, 31200, Note_on_c, 0, 66, 55
4, 31680, Note_on_c, 0, 66, 0
4, 31680, Note_on_c, 0, 61, 0
4, 31680, Note_on_c, 0, 54, 0
4, 31680, Note_on_c, 0, 58, 0
4, 31680, Note_on_c, 0, 64, 0
4, 31920, Note_on_c, 0, 54, 29
4, 31920, Note_on_c, 0, 59, 29
4, 31920, Note_on_c, 0, 63, 29
4, 31943, Note_on_c, 0, 63, 0
4, 31943, Note_on_c, 0, 59, 0
4, 31943, Note_on_c, 0, 54, 0
4, 32160, Note_on_c, 0, 54, 55
4, 32160, Note_on_c, 0, 58, 55
4, 32160, Note_on_c, 0, 61, 55
4, 32160, Note_on_c, 0, 64, 55
4, 32160, Note_on_c, 0, 66, 55
4, 32640, Note_on_c, 0, 66, 0
4, 32640, Note_on_c, 0, 61, 0
4, 32640, Note_on_c, 0, 54, 0
4, 32640, Note_on_c, 0, 58, 0
4, 32640, Note_on_c, 0, 64, 0
4, 32880, Note_on_c, 0, 54, 29
4, 32880, Note_on_c, 0, 59, 29
4, 32880, Note_on_c, 0, 63, 29
4, 32903, Note_on_c, 0, 63, 0
4, 32903, Note_on_c, 0, 59, 0
4, 32903, Note_on_c, 0, 54, 0
4, 33120, Note_on_c, 0, 55, 29
4, 33120, Note_on_c, 0, 59, 29
4, 33120, Note_on_c, 0, 63, 29
4, 33120, Note_on_c, 0, 67, 29
4, 33600, Note_on_c, 0, 67, 0
4, 33600, Note_on_c, 0, 55, 0
4, 33600, Note_on_c, 0, 59, 0
4, 33600, Note_on_c, 0, 63, 0
4, 33840, Note_on_c, 0, 51, 29
4, 33840, Note_on_c, 0, 56, 29
4, 33840, Note_on_c, 0, 59, 29
4, 33863, Note_on_c, 0, 59, 0
4, 33863, Note_on_c, 0, 56, 0
4, 33863, Note_on_c, 0, 51, 0
4, 34080, Note_on_c, 0, 56, 29
4, 34080, Note_on_c, 0, 59, 29
4, 34080, Note_on_c, 0, 63, 29
4, 34560, Note_on_c, 0, 63, 0
4, 34560, Note_on_c, 0, 59, 0
4, 34560, Note_on_c, 0, 56, 0
4, 34800, Note_on_c, 0, 47, 29
4, 34800, Note_on_c, 0, 51, 29
4, 35040, Note_on_c, 0, 51, 0
4, 35040, Note_on_c, 0, 47, 0
4, 35040, Note_on_c, 0, 51, 29
4, 35040, Note_on_c, 0, 59, 29
4, 35520, Note_on_c, 0, 59, 0
4, 35520, Note_on_c, 0, 51, 0
4, 35760, Note_on_c, 0, 47, 29
4, 35760, Note_on_c, 0, 51, 29
4, 36000, Note_on_c, 0, 51, 0
4, 36000, Note_on_c, 0, 47, 0
4, 36000, Note_on_c, 0, 51, 29
4, 36000, Note_on_c, 0, 59, 29
4, 36480, Note_on_c, 0, 59, 0
4, 36480, Note_on_c, 0, 51, 0
4, 36720, Note_on_c, 0, 52, 29
4, 36720, Note_on_c, 0, 56, 29
4, 36743, Note_on_c, 0, 56, 0
4, 36743, Note_on_c, 0, 52, 0
4, 36960, Note_on_c, 0, 52, 29
4, 36960, Note_on_c, 0, 56, 29
4, 36960, Note_on_c, 0, 61, 29
4, 37440, Note_on_c, 0, 61, 0
4, 37440, Note_on_c, 0, 56, 0
4, 37440, Note_on_c, 0, 52, 0
4, 37680, Note_on_c, 0, 49, 29
4, 37680, Note_on_c, 0, 58, 29
4, 37703, Note_on_c, 0, 58, 0
4, 37703, Note_on_c, 0, 49, 0
4, 37920, Note_on_c, 0, 54, 29
4, 38400, Note_on_c, 0, 54, 0
4, 38520, Note_on_c, 0, 51, 68
4, 38535, Note_on_c, 0, 51, 0
4, 38640, Note_on_c, 0, 54, 68
4, 38655, Note_on_c, 0, 54, 0
4, 38760, Note_on_c, 0, 59, 68
4, 38775, Note_on_c, 0, 59, 0
4, 38880, Note_on_c, 0, 52, 94
4, 38880, Note_on_c, 0, 58, 94
4, 39360, Note_on_c, 0, 58, 0
4, 39360, Note_on_c, 0, 52, 0
4, 39480, Note_on_c, 0, 54, 68
4, 39495, Note_on_c, 0, 54, 0
4, 39600, Note_on_c, 0, 59, 68
4, 39615, Note_on_c, 0, 59, 0
4, 39720, Note_on_c, 0, 66, 68
4, 39735, Note_on_c, 0, 66, 0
4, 39840, Note_on_c, 0, 56, 94
4, 39840, Note_on_c, 0, 60, 94
4, 39840, Note_on_c, 0, 63, 94
4, 40320, Note_on_c, 0, 63, 0
4, 40320, Note_on_c, 0, 60, 0
4, 40320, Note_on_c, 0, 56, 0
4, 40440, Note_on_c, 0, 56, 68
4, 40455, Note_on_c, 0, 56, 0
4, 40560, Note_on_c, 0, 61, 68
4, 40575, Note_on_c, 0, 61, 0
4, 40680, Note_on_c, 0, 64, 68
4, 40695, Note_on_c, 0, 64, 0
4, 40920, Note_on_c, 0, 52, 68
4, 40935, Note_on_c, 0, 52, 0
4, 41040, Note_on_c, 0, 56, 68
4, 41055, Note_on_c, 0, 56, 0
4, 41160, Note_on_c, 0, 61, 68
4, 41175, Note_on_c, 0, 61, 0
4, 41520, Note_on_c, 0, 49, 68
4, 41520, Note_on_c, 0, 54, 68
4, 41520, Note_on_c, 0, 58, 68
4, 41543, Note_on_c, 0, 58, 0
4, 41543, Note_on_c, 0, 54, 0
4, 41543, Note_on_c, 0, 49, 0
4, 41760, Note_on_c, 0, 54, 68
4, 41760, Note_on_c, 0, 58, 68
4, 41760, Note_on_c, 0, 61, 68
4, 41783, Note_on_c, 0, 61, 0
4, 41783, Note_on_c, 0, 58, 0
4, 41783, Note_on_c, 0, 54, 0
4, 42000, Note_on_c, 0, 54, 68
4, 42000, Note_on_c, 0, 58, 68
4, 42023, Note_on_c, 0, 58, 0
4, 42023, Note_on_c, 0, 54, 0
4, 42240, Note_on_c, 0, 54, 94
4, 42240, Note_on_c, 0, 59, 94
4, 42720, Note_on_c, 0, 59, 0
4, 42720, Note_on_c, 0, 54, 0
4, 42720, Note_on_c, 0, 54, 94
4, 42720, Note_on_c, 0, 61, 94
4, 43200, Note_on_c, 0, 61, 0
4, 43200, Note_on_c, 0, 54, 0
4, 43200, Note_on_c, 0, 54, 68
4, 43200, Note_on_c, 0, 59, 68
4, 43200, Note_on_c, 0, 63, 68
4, 43440, Note_on_c, 0, 63, 0
4, 43440, Note_on_c, 0, 59, 0
4, 43440, Note_on_c, 0, 54, 0
4, 43440, Note_on_c, 0, 55, 68
4, 43440, Note_on_c, 0, 59, 68
4, 43440, Note_on_c, 0, 63, 68
4, 43680, Note_on_c, 0, 63, 0
4, 43680, Note_on_c, 0, 59, 0
4, 43680, Note_on_c, 0, 55, 0
4, 43680, Note_on_c, 0, 56, 68
4, 43920, Note_on_c, 0, 56, 0
4, 43920, Note_on_c, 0, 56, 68
4, 43920, Note_on_c, 0, 60, 68
4, 43920, Note_on_c, 0, 63, 68
4, 44160, Note_on_c, 0, 63, 0
4, 44160, Note_on_c, 0, 60, 0
4, 44160, Note_on_c, 0, 61, 68
4, 44160, Note_on_c, 0, 64, 68
4, 44400, Note_on_c, 0, 64, 0
4, 44400, Note_on_c, 0, 61, 0
4, 44400, Note_on_c, 0, 56, 0
4, 44400, Note_on_c, 0, 57, 68
4, 44400, Note_on_c, 0, 61, 68
4, 44400, Note_on_c, 0, 64, 68
4, 44640, Note_on_c, 0, 64, 0
4, 44640, Note_on_c, 0, 61, 0
4, 44640, Note_on_c, 0, 57, 0
4, 44640, Note_on_c, 0, 58, 68
4, 44880, Note_on_c, 0, 58, 0
4, 44880, Note_on_c, 0, 61, 68
4, 44880, Note_on_c, 0, 64, 68
4, 44903, Note_on_c, 0, 64, 0
4, 44903, Note_on_c, 0, 61, 0
4, 45120, Note_on_c, 0, 54, 68
4, 45120, Note_on_c, 0, 59, 68
4, 45120, Note_on_c, 0, 63, 68
4, 45143, Note_on_c, 0, 63, 0
4, 45143, Note_on_c, 0, 59, 0
4, 45143, Note_on_c, 0, 54, 0
4, 45360, Note_on_c, 0, 54, 68
4, 45360, Note_on_c, 0, 61, 68
4, 45360, Note_on_c, 0, 64, 68
4, 45383, Note_on_c, 0, 64, 0
4, 45383, Note_on_c, 0, 61, 0
4, 45383, Note_on_c, 0, 54, 0
4, 45600, Note_on_c, 0, 54, 68
4, 45600, Note_on_c, 0, 59, 68
4, 45600, Note_on_c, 0, 63, 68
4, 45623, Note_on_c, 0, 63, 0
4, 45623, Note_on_c, 0, 59, 0
4, 45623, Note_on_c, 0, 54, 0
4, 46200, Note_on_c, 0, 51, 68
4, 46215, Note_on_c, 0, 51, 0
4, 46320, Note_on_c, 0, 54, 68
4, 46335, Note_on_c, 0, 54, 0
4, 46440, Note_on_c, 0, 59, 68
4, 46455, Note_on_c, 0, 59, 0
4, 46560, Note_on_c, 0, 52, 94
4, 46560, Note_on_c, 0, 58, 94
4, 47040, Note_on_c, 0, 58, 0
4, 47040, Note_on_c, 0, 52, 0
4, 47160, Note_on_c, 0, 54, 68
4, 47175, Note_on_c, 0, 54, 0
4, 47280, Note_on_c, 0, 59, 68
4, 47295, Note_on_c, 0, 59, 0
4, 47400, Note_on_c, 0, 66, 68
4, 47415, Note_on_c, 0, 66, 0
4, 47520, Note_on_c, 0, 56, 94
4, 47520, Note_on_c, 0, 60, 94
4, 47520, Note_on_c, 0, 63, 94
4, 48000, Note_on_c, 0, 63, 0
4, 48000, Note_on_c, 0, 60, 0
4, 48000, Note_on_c, 0, 56, 0
4, 48120, Note_on_c, 0, 56, 68
4, 48135, Note_on_c, 0, 56, 0
4, 48240, Note_on_c, 0, 61, 68
4, 48255, Note_on_c, 0, 61, 0
4, 48360, Note_on_c, 0, 64, 68
4, 48375, Note_on_c, 0, 64, 0
4, 48600, Note_on_c, 0, 52, 68
4, 48615, Note_on_c, 0, 52, 0
4, 48720, Note_on_c, 0, 56, 68
4, 48735, Note_on_c, 0, 56, 0
4, 48840, Note_on_c, 0, 61, 68
4, 48855, Note_on_c, 0, 61, 0
4, 49200, Note_on_c, 0, 49, 68
4, 49200, Note_on_c, 0, 54, 68
4, 49200, Note_on_c, 0, 58, 68
4, 49223, Note_on_c, 0, 58, 0
4, 49223, Note_on_c, 0, 54, 0
4, 49223, Note_on_c, 0, 49, 0
4, 49440, Note_on_c, 0, 54, 68
4, 49440, Note_on_c, 0, 58, 68
4, 49440, Note_on_c, 0, 61, 68
4, 49463, Note_on_c, 0, 61, 0
4, 49463, Note_on_c, 0, 58, 0
4, 49463, Note_on_c, 0, 54, 0
4, 49680, Note_on_c, 0, 54, 68
4, 49680, Note_on_c, 0, 58, 68
4, 49703, Note_on_c, 0, 58, 0
4, 49703, Note_on_c, 0, 54, 0
4, 49920, Note_on_c, 0, 54, 94
4, 49920, Note_on_c, 0, 59, 94
4, 50400, Note_on_c, 0, 59, 0
4, 50400, Note_on_c, 0, 54, 0
4, 50400, Note_on_c, 0, 54, 94
4, 50400, Note_on_c, 0, 61, 94
4, 50880, Note_on_c, 0, 61, 0
4, 50880, Note_on_c, 0, 54, 0
4, 50880, Note_on_c, 0, 54, 68
4, 50880, Note_on_c, 0, 59, 68
4, 50880, Note_on_c, 0, 63, 68
4, 51120, Note_on_c, 0, 63, 0
4, 51120, Note_on_c, 0, 59, 0
4, 51120, Note_on_c, 0, 54, 0
4, 51120, Note_on_c, 0, 55, 68
4, 51120, Note_on_c, 0, 59, 68
4, 51120, Note_on_c, 0, 63, 68
4, 51360, Note_on_c, 0, 63, 0
4, 51360, Note_on_c, 0, 59, 0
4, 51360, Note_on_c, 0, 55, 0
4, 51360, Note_on_c, 0, 56, 68
4, 51600, Note_on_c, 0, 56, 0
4, 51600, Note_on_c, 0, 56, 68
4, 51600, Note_on_c, 0, 60, 68
4, 51600, Note_on_c, 0, 63, 68
4, 51840, Note_on_c, 0, 63, 0
4, 51840, Note_on_c, 0, 60, 0
4, 51840, Note_on_c, 0, 61, 68
4, 51840, Note_on_c, 0, 64, 68
4, 52080, Note_on_c, 0, 64, 0
4, 52080, Note_on_c, 0, 61, 0
4, 52080, Note_on_c, 0, 56, 0
4, 52080, Note_on_c, 0, 57, 68
4, 52080, Note_on_c, 0, 61, 68
4, 52080, Note_on_c, 0, 64, 68
4, 52320, Note_on_c, 0, 64, 0
4, 52320, Note_on_c, 0, 61, 0
4, 52320, Note_on_c, 0, 57, 0
4, 52320, Note_on_c, 0, 58, 68
4, 52560, Note_on_c, 0, 58, 0
4, 52560, Note_on_c, 0, 61, 68
4, 52560, Note_on_c, 0, 64, 68
4, 52583, Note_on_c, 0, 64, 0
4, 52583, Note_on_c, 0, 61, 0
4, 52800, Note_on_c, 0, 54, 68
4, 52800, Note_on_c, 0, 59, 68
4, 52800, Note_on_c, 0, 63, 68
4, 52823, Note_on_c, 0, 63, 0
4, 52823, Note_on_c, 0, 59, 0
4, 52823, Note_on_c, 0, 54, 0
4, 53040, Note_on_c, 0, 54, 68
4, 53040, Note_on_c, 0, 61, 68
4, 53040, Note_on_c, 0, 64, 68
4, 53063, Note_on_c, 0, 64, 0
4, 53063, Note_on_c, 0, 61, 0
4, 53063, Note_on_c, 0, 54, 0
4, 53280, Note_on_c, 0, 54, 68
4, 53280, Note_on_c, 0, 59, 68
4, 53280, Note_on_c, 0, 63, 68
4, 53295, Note_on_c, 0, 63, 0
4, 53295, Note_on_c, 0, 59, 0
4, 53295, Note_on_c, 0, 54, 0
4, 54360, Note_on_c, 0, 54, 42
4, 54375, Note_on_c, 0, 54, 0
4, 54480, Note_on_c, 0, 56, 42
4, 54495, Note_on_c, 0, 56, 0
4, 54600, Note_on_c, 0, 58, 42
4, 54615, Note_on_c, 0, 58, 0
4, 54960, Note_on_c, 0, 50, 29
4, 54960, Note_on_c, 0, 54, 29
4, 54960, Note_on_c, 0, 59, 29
4, 54983, Note_on_c, 0, 59, 0
4, 54983, Note_on_c, 0, 54, 0
4, 54983, Note_on_c, 0, 50, 0
4, 55440, Note_on_c, 0, 50, 29
4, 55440, Note_on_c, 0, 55, 29
4, 55440, Note_on_c, 0, 59, 29
4, 55463, Note_on_c, 0, 59, 0
4, 55463, Note_on_c, 0, 55, 0
4, 55463, Note_on_c, 0, 50, 0
4, 55920, Note_on_c, 0, 49, 29
4, 55920, Note_on_c, 0, 54, 29
4, 55920, Note_on_c, 0, 58, 29
4, 55943, Note_on_c, 0, 58, 0
4, 55943, Note_on_c, 0, 54, 0
4, 55943, Note_on_c, 0, 49, 0
4, 56400, Note_on_c, 0, 50, 29
4, 56400, Note_on_c, 0, 54, 29
4, 56400, Note_on_c, 0, 59, 29
4, 56423, Note_on_c, 0, 59, 0
4, 56423, Note_on_c, 0, 54, 0
4, 56423, Note_on_c, 0, 50, 0
4, 56760, Note_on_c, 0, 59, 29
4, 56760, Note_on_c, 0, 62, 29
4, 56880, Note_on_c, 0, 62, 0
4, 56880, Note_on_c, 0, 59, 0
4, 57000, Note_on_c, 0, 59, 29
4, 57000, Note_on_c, 0, 62, 29
4, 57000, Note_on_c, 0, 67, 29
4, 57120, Note_on_c, 0, 67, 0
4, 57120, Note_on_c, 0, 62, 0
4, 57120, Note_on_c, 0, 59, 0
4, 57240, Note_on_c, 0, 59, 29
4, 57240, Note_on_c, 0, 61, 29
4, 57240, Note_on_c, 0, 67, 29
4, 57360, Note_on_c, 0, 67, 0
4, 57360, Note_on_c, 0, 61, 0
4, 57360, Note_on_c, 0, 59, 0
4, 57480, Note_on_c, 0, 58, 29
4, 57480, Note_on_c, 0, 61, 29
4, 57480, Note_on_c, 0, 66, 29
4, 57600, Note_on_c, 0, 66, 0
4, 57600, Note_on_c, 0, 61, 0
4, 57600, Note_on_c, 0, 58, 0
4, 57720, Note_on_c, 0, 54, 29
4, 57720, Note_on_c, 0, 59, 29
4, 57720, Note_on_c, 0, 62, 29
4, 57840, Note_on_c, 0, 62, 0
4, 57840, Note_on_c, 0, 59, 0
4, 57840, Note_on_c, 0, 54, 0
4, 57960, Note_on_c, 0, 54, 29
4, 57960, Note_on_c, 0, 58, 29
4, 57960, Note_on_c, 0, 61, 29
4, 58080, Note_on_c, 0, 61, 0
4, 58080, Note_on_c, 0, 58, 0
4, 58080, Note_on_c, 0, 54, 0
4, 58200, Note_on_c, 0, 54, 29
4, 58200, Note_on_c, 0, 59, 29
4, 58320, Note_on_c, 0, 59, 0
4, 58320, Note_on_c, 0, 54, 0
4, 58440, Note_on_c, 0, 54, 29
4, 58440, Note_on_c, 0, 59, 29
4, 58440, Note_on_c, 0, 62, 29
4, 58560, Note_on_c, 0, 62, 0
4, 58560, Note_on_c, 0, 59, 0
4, 58560, Note_on_c, 0, 54, 0
4, 58800, Note_on_c, 0, 54, 29
4, 58800, Note_on_c, 0, 57, 29
4, 58800, Note_on_c, 0, 61, 29
4, 58823, Note_on_c, 0, 61, 0
4, 58823, Note_on_c, 0, 57, 0
4, 58823, Note_on_c, 0, 54, 0
4, 59280, Note_on_c, 0, 54, 29
4, 59280, Note_on_c, 0, 57, 29
4, 59280, Note_on_c, 0, 62, 29
4, 59303, Note_on_c, 0, 62, 0
4, 59303, Note_on_c, 0, 57, 0
4, 59303, Note_on_c, 0, 54, 0
4, 59760, Note_on_c, 0, 53, 29
4, 59760, Note_on_c, 0, 56, 29
4, 59760, Note_on_c, 0, 61, 29
4, 59783, Note_on_c, 0, 61, 0
4, 59783, Note_on_c, 0, 56, 0
4, 59783, Note_on_c, 0, 53, 0
4, 60240, Note_on_c, 0, 54, 29
4, 60240, Note_on_c, 0, 57, 29
4, 60240, Note_on_c, 0, 61, 29
4, 60263, Note_on_c, 0, 61, 0
4, 60263, Note_on_c, 0, 57, 0
4, 60263, Note_on_c, 0, 54, 0
4, 60600, Note_on_c, 0, 57, 29
4, 60600, Note_on_c, 0, 61, 29
4, 60720, Note_on_c, 0, 61, 0
4, 60720, Note_on_c, 0, 57, 0
4, 60840, Note_on_c, 0, 57, 29
4, 60840, Note_on_c, 0, 62, 29
4, 60840, Note_on_c, 0, 66, 29
4, 60960, Note_on_c, 0, 66, 0
4, 60960, Note_on_c, 0, 62, 0
4, 60960, Note_on_c, 0, 57, 0
4, 61080, Note_on_c, 0, 56, 29
4, 61080, Note_on_c, 0, 62, 29
4, 61080, Note_on_c, 0, 66, 29
4, 61200, Note_on_c, 0, 66, 0
4, 61200, Note_on_c, 0, 62, 0
4, 61200, Note_on_c, 0, 56, 0
4, 61320, Note_on_c, 0, 56, 29
4, 61320, Note_on_c, 0, 61, 29
4, 61320, Note_on_c, 0, 65, 29
4, 61440, Note_on_c, 0, 65, 0
4, 61440, Note_on_c, 0, 61, 0
4, 61440, Note_on_c, 0, 56, 0
4, 61560, Note_on_c, 0, 57, 29
4, 61560, Note_on_c, 0, 61, 29
4, 61560, Note_on_c, 0, 66, 29
4, 61680, Note_on_c, 0, 66, 0
4, 61680, Note_on_c, 0, 61, 0
4, 61680, Note_on_c, 0, 57, 0
4, 61800, Note_on_c, 0, 56, 42
4, 61800, Note_on_c, 0, 61, 42
4, 61800, Note_on_c, 0, 65, 42
4, 61920, Note_on_c, 0, 65, 0
4, 61920, Note_on_c, 0, 61, 0
4, 61920, Note_on_c, 0, 56, 0
4, 62040, Note_on_c, 0, 57, 42
4, 62040, Note_on_c, 0, 61, 42
4, 62040, Note_on_c, 0, 66, 42
4, 62160, Note_on_c, 0, 66, 0
4, 62160, Note_on_c, 0, 61, 0
4, 62160, Note_on_c, 0, 57, 0
4, 62280, Note_on_c, 0, 54, 42
4, 62280, Note_on_c, 0, 57, 42
4, 62280, Note_on_c, 0, 61, 42
4, 62400, Note_on_c, 0, 61, 0
4, 62400, Note_on_c, 0, 57, 0
4, 62400, Note_on_c, 0, 54, 0
4, 62550, Note_on_c, 0, 52, 42
4, 62580, Note_on_c, 0, 55, 42
4, 62610, Note_on_c, 0, 59, 42
4, 62640, Note_on_c, 0, 62, 42
4, 62663, Note_on_c, 0, 62, 0
4, 62663, Note_on_c, 0, 52, 0
4, 62663, Note_on_c, 0, 55, 0
4, 62663, Note_on_c, 0, 59, 0
4, 62880, Note_on_c, 0, 61, 68
4, 63240, Note_on_c, 0, 61, 0
4, 63240, Note_on_c, 0, 59, 42
4, 63255, Note_on_c, 0, 59, 0
4, 63360, Note_on_c, 0, 57, 42
4, 63383, Note_on_c, 0, 57, 0
4, 63510, Note_on_c, 0, 50, 42
4, 63540, Note_on_c, 0, 54, 42
4, 63570, Note_on_c, 0, 57, 42
4, 63600, Note_on_c, 0, 61, 42
4, 63623, Note_on_c, 0, 61, 0
4, 63623, Note_on_c, 0, 50, 0
4, 63623, Note_on_c, 0, 54, 0
4, 63623, Note_on_c, 0, 57, 0
4, 63840, Note_on_c, 0, 59, 68
4, 64200, Note_on_c, 0, 59, 0
4, 64200, Note_on_c, 0, 57, 42
4, 64320, Note_on_c, 0, 57, 0
4, 64320, Note_on_c, 0, 55, 42
4, 64343, Note_on_c, 0, 55, 0
4, 64470, Note_on_c, 0, 49, 42
4, 64500, Note_on_c, 0, 52, 42
4, 64530, Note_on_c, 0, 55, 42
4, 64560, Note_on_c, 0, 59, 42
4, 64583, Note_on_c, 0, 59, 0
4, 64583, Note_on_c, 0, 49, 0
4, 64583, Note_on_c, 0, 52, 0
4, 64583, Note_on_c, 0, 55, 0
4, 64800, Note_on_c, 0, 57, 68
4, 65160, Note_on_c, 0, 57, 0
4, 65160, Note_on_c, 0, 55, 42
4, 65280, Note_on_c, 0, 55, 0
4, 65280, Note_on_c, 0, 54, 42
4, 65303, Note_on_c, 0, 54, 0
4, 65520, Note_on_c, 0, 57, 42
4, 65543, Note_on_c, 0, 57, 0
4, 65760, Note_on_c, 0, 55, 42
4, 66120, Note_on_c, 0, 55, 0
4, 66120, Note_on_c, 0, 59, 42
4, 66240, Note_on_c, 0, 59, 0
4, 66240, Note_on_c, 0, 58, 42
4, 66480, Note_on_c, 0, 58, 0
4, 66480, Note_on_c, 0, 61, 42
4, 66720, Note_on_c, 0, 61, 0
4, 66960, Note_on_c, 0, 54, 29
4, 66960, Note_on_c, 0, 61, 29
4, 66983, Note_on_c, 0, 61, 0
4, 66983, Note_on_c, 0, 54, 0
4, 67200, Note_on_c, 0, 54, 29
4, 67200, Note_on_c, 0, 62, 29
4, 67223, Note_on_c, 0, 62, 0
4, 67223, Note_on_c, 0, 54, 0
4, 67440, Note_on_c, 0, 52, 29
4, 67440, Note_on_c, 0, 58, 29
4, 67463, Note_on_c, 0, 58, 0
4, 67463, Note_on_c, 0, 52, 0
4, 67680, Note_on_c, 0, 54, 29
4, 67680, Note_on_c, 0, 59, 29
4, 67703, Note_on_c, 0, 59, 0
4, 67703, Note_on_c, 0, 54, 0
4, 67920, Note_on_c, 0, 59, 29
4, 67920, Note_on_c, 0, 61, 29
4, 67920, Note_on_c, 0, 67, 29
4, 67943, Note_on_c, 0, 67, 0
4, 67943, Note_on_c, 0, 61, 0
4, 67943, Note_on_c, 0, 59, 0
4, 68160, Note_on_c, 0, 59, 29
4, 68160, Note_on_c, 0, 62, 29
4, 68160, Note_on_c, 0, 66, 29
4, 68183, Note_on_c, 0, 66, 0
4, 68183, Note_on_c, 0, 62, 0
4, 68183, Note_on_c, 0, 59, 0
4, 68400, Note_on_c, 0, 53, 55
4, 68400, Note_on_c, 0, 56, 55
4, 68400, Note_on_c, 0, 62, 55
4, 68423, Note_on_c, 0, 62, 0
4, 68423, Note_on_c, 0, 56, 0
4, 68423, Note_on_c, 0, 53, 0
4, 68880, Note_on_c, 0, 54, 29
4, 68880, Note_on_c, 0, 58, 29
4, 68880, Note_on_c, 0, 61, 29
4, 68903, Note_on_c, 0, 61, 0
4, 68903, Note_on_c, 0, 58, 0
4, 68903, Note_on_c, 0, 54, 0
4, 69120, Note_on_c, 0, 50, 29
4, 69120, Note_on_c, 0, 54, 29
4, 69120, Note_on_c, 0, 59, 29
4, 69143, Note_on_c, 0, 59, 0
4, 69143, Note_on_c, 0, 54, 0
4, 69143, Note_on_c, 0, 50, 0
4, 69360, Note_on_c, 0, 52, 29
4, 69360, Note_on_c, 0, 54, 29
4, 69360, Note_on_c, 0, 61, 29
4, 69383, Note_on_c, 0, 61, 0
4, 69383, Note_on_c, 0, 54, 0
4, 69383, Note_on_c, 0, 52, 0
4, 69600, Note_on_c, 0, 50, 29
4, 69600, Note_on_c, 0, 54, 29
4, 69600, Note_on_c, 0, 59, 29
4, 69623, Note_on_c, 0, 59, 0
4, 69623, Note_on_c, 0, 54, 0
4, 69623, Note_on_c, 0, 50, 0
4, 69840, Note_on_c, 0, 57, 55
4, 69840, Note_on_c, 0, 69, 55
4, 69863, Note_on_c, 0, 69, 0
4, 69863, Note_on_c, 0, 57, 0
4, 70080, Note_on_c, 0, 55, 81
4, 70080, Note_on_c, 0, 67, 81
4, 70440, Note_on_c, 0, 67, 0
4, 70440, Note_on_c, 0, 55, 0
4, 70440, Note_on_c, 0, 54, 55
4, 70440, Note_on_c, 0, 66, 55
4, 70455, Note_on_c, 0, 66, 0
4, 70455, Note_on_c, 0, 54, 0
4, 70560, Note_on_c, 0, 52, 55
4, 70560, Note_on_c, 0, 64, 55
4, 70583, Note_on_c, 0, 64, 0
4, 70583, Note_on_c, 0, 52, 0
4, 70800, Note_on_c, 0, 55, 55
4, 70800, Note_on_c, 0, 67, 55
4, 70823, Note_on_c, 0, 67, 0
4, 70823, Note_on_c, 0, 55, 0
4, 71040, Note_on_c, 0, 54, 81
4, 71040, Note_on_c, 0, 66, 81
4, 71400, Note_on_c, 0, 66, 0
4, 71400, Note_on_c, 0, 54, 0
4, 71400, Note_on_c, 0, 52, 55
4, 71400, Note_on_c, 0, 64, 55
4, 71415, Note_on_c, 0, 64, 0
4, 71415, Note_on_c, 0, 52, 0
4, 71520, Note_on_c, 0, 50, 55
4, 71520, Note_on_c, 0, 62, 55
4, 71543, Note_on_c, 0, 62, 0
4, 71543, Note_on_c, 0, 50, 0
4, 71760, Note_on_c, 0, 54, 55
4, 71760, Note_on_c, 0, 66, 55
4, 71783, Note_on_c, 0, 66, 0
4, 71783, Note_on_c, 0, 54, 0
4, 72000, Note_on_c, 0, 52, 81
4, 72000, Note_on_c, 0, 64, 81
4, 72360, Note_on_c, 0, 64, 0
4, 72360, Note_on_c, 0, 52, 0
4, 72360, Note_on_c, 0, 50, 55
4, 72360, Note_on_c, 0, 62, 55
4, 72375, Note_on_c, 0, 62, 0
4, 72375, Note_on_c, 0, 50, 0
4, 72480, Note_on_c, 0, 49, 55
4, 72480, Note_on_c, 0, 61, 55
4, 72503, Note_on_c, 0, 61, 0
4, 72503, Note_on_c, 0, 49, 0
4, 72720, Note_on_c, 0, 52, 55
4, 72720, Note_on_c, 0, 64, 55
4, 72743, Note_on_c, 0, 64, 0
4, 72743, Note_on_c, 0, 52, 0
4, 72960, Note_on_c, 0, 50, 81
4, 72960, Note_on_c, 0, 62, 81
4, 73320, Note_on_c, 0, 62, 0
4, 73320, Note_on_c, 0, 50, 0
4, 73320, Note_on_c, 0, 49, 55
4, 73320, Note_on_c, 0, 61, 55
4, 73335, Note_on_c, 0, 61, 0
4, 73335, Note_on_c, 0, 49, 0
4, 73440, Note_on_c, 0, 47, 55
4, 73440, Note_on_c, 0, 59, 55
4, 73463, Note_on_c, 0, 59, 0
4, 73463, Note_on_c, 0, 47, 0
4, 73680, Note_on_c, 0, 50, 55
4, 73680, Note_on_c, 0, 62, 55
4, 73703, Note_on_c, 0, 62, 0
4, 73703, Note_on_c, 0, 50, 0
4, 73920, Note_on_c, 0, 49, 81
4, 73920, Note_on_c, 0, 61, 81
4, 74280, Note_on_c, 0, 61, 0
4, 74280, Note_on_c, 0, 49, 0
4, 74280, Note_on_c, 0, 58, 55
4, 74400, Note_on_c, 0, 58, 0
4, 74400, Note_on_c, 0, 54, 55
4, 74640, Note_on_c, 0, 54, 0
4, 74760, Note_on_c, 0, 54, 68
4, 74760, Note_on_c, 0, 61, 68
4, 74880, Note_on_c, 0, 61, 0
4, 74880, Note_on_c, 0, 54, 0
4, 75000, Note_on_c, 0, 54, 68
4, 75000, Note_on_c, 0, 62, 68
4, 75120, Note_on_c, 0, 62, 0
4, 75120, Note_on_c, 0, 54, 0
4, 75240, Note_on_c, 0, 52, 68
4, 75240, Note_on_c, 0, 58, 68
4, 75360, Note_on_c, 0, 58, 0
4, 75360, Note_on_c, 0, 52, 0
4, 75480, Note_on_c, 0, 54, 68
4, 75480, Note_on_c, 0, 59, 68
4, 75600, Note_on_c, 0, 59, 0
4, 75600, Note_on_c, 0, 54, 0
4, 75720, Note_on_c, 0, 59, 68
4, 75720, Note_on_c, 0, 61, 68
4, 75720, Note_on_c, 0, 67, 68
4, 75840, Note_on_c, 0, 67, 0
4, 75840, Note_on_c, 0, 61, 0
4, 75840, Note_on_c, 0, 59, 0
4, 75960, Note_on_c, 0, 59, 68
4, 75960, Note_on_c, 0, 62, 68
4, 75960, Note_on_c, 0, 66, 68
4, 76080, Note_on_c, 0, 66, 0
4, 76080, Note_on_c, 0, 62, 0
4, 76080, Note_on_c, 0, 59, 0
4, 76200, Note_on_c, 0, 53, 94
4, 76200, Note_on_c, 0, 56, 94
4, 76200, Note_on_c, 0, 62, 94
4, 76320, Note_on_c, 0, 62, 0
4, 76320, Note_on_c, 0, 56, 0
4, 76320, Note_on_c, 0, 53, 0
4, 76680, Note_on_c, 0, 54, 68
4, 76680, Note_on_c, 0, 58, 68
4, 76680, Note_on_c, 0, 61, 68
4, 76800, Note_on_c, 0, 61, 0
4, 76800, Note_on_c, 0, 58, 0
4, 76800, Note_on_c, 0, 54, 0
4, 76920, Note_on_c, 0, 50, 68
4, 76920, Note_on_c, 0, 54, 68
4, 76920, Note_on_c, 0, 59, 68
4, 77040, Note_on_c, 0, 59, 0
4, 77040, Note_on_c, 0, 54, 0
4, 77040, Note_on_c, 0, 50, 0
4, 77160, Note_on_c, 0, 52, 68
4, 77160, Note_on_c, 0, 54, 68
4, 77160, Note_on_c, 0, 61, 68
4, 77280, Note_on_c, 0, 61, 0
4, 77280, Note_on_c, 0, 54, 0
4, 77280, Note_on_c, 0, 52, 0
4, 77400, Note_on_c, 0, 50, 68
4, 77400, Note_on_c, 0, 54, 68
4, 77400, Note_on_c, 0, 59, 68
4, 77520, Note_on_c, 0, 59, 0
4, 77520, Note_on_c, 0, 54, 0
4, 77520, Note_on_c, 0, 50, 0
4, 77520, Note_on_c, 0, 54, 81
4, 77520, Note_on_c, 0, 58, 81
4, 77520, Note_on_c, 0, 61, 81
4, 77520, Note_on_c, 0, 66, 81
4, 77543, Note_on_c, 0, 66, 0
4, 77543, Note_on_c, 0, 54, 0
4, 77543, Note_on_c, 0, 58, 0
4, 77543, Note_on_c, 0, 61, 0
4, 77760, Note_on_c, 0, 50, 81
4, 77760, Note_on_c, 0, 54, 81
4, 77760, Note_on_c, 0, 59, 81
4, 80640, Note_on_c, 0, 59, 0
4, 80640, Note_on_c, 0, 54, 0
4, 80640, Note_on_c, 0, 50, 0
4, 80640, End_track
5, 0, Start_track
5, 0, Title_t, "Instrument19"
5, 0, Program_c, 0, 0
5, 0, Control_c, 0, 7, 110
5, 0, Control_c, 0, 10, 30
5, 0, Note_on_c, 0, 35, 44
5, 0, Note_on_c, 0, 47, 44
5, 23, Note_on_c, 0, 47, 0
5, 23, Note_on_c, 0, 35, 0
5, 480, Note_on_c, 0, 31, 44
5, 480, Note_on_c, 0, 43, 44
5, 503, Note_on_c, 0, 43, 0
5, 503, Note_on_c, 0, 31, 0
5, 960, Note_on_c, 0, 28, 44
5, 960, Note_on_c, 0, 40, 44
5, 983, Note_on_c, 0, 40, 0
5, 983, Note_on_c, 0, 28, 0
5, 1200, Note_on_c, 0, 30, 44
5, 1200, Note_on_c, 0, 42, 44
5, 1223, Note_on_c, 0, 42, 0
5, 1223, Note_on_c, 0, 30, 0
5, 1440, Note_on_c, 0, 35, 44
5, 1920, Note_on_c, 0, 35, 0
5, 1920, Note_on_c, 0, 59, 44
5, 1943, Note_on_c, 0, 59, 0
5, 2160, Note_on_c, 0, 55, 44
5, 2183, Note_on_c, 0, 55, 0
5, 2400, Note_on_c, 0, 52, 44
5, 2423, Note_on_c, 0, 52, 0
5, 2640, Note_on_c, 0, 54, 44
5, 2663, Note_on_c, 0, 54, 0
5, 2880, Note_on_c, 0, 47, 44
5, 2903, Note_on_c, 0, 47, 0
5, 3120, Note_on_c, 0, 42, 44
5, 3143, Note_on_c, 0, 42, 0
5, 3360, Note_on_c, 0, 38, 44
5, 3383, Note_on_c, 0, 38, 0
5, 3600, Note_on_c, 0, 35, 44
5, 3623, Note_on_c, 0, 35, 0
5, 3840, Note_on_c, 0, 42, 44
5, 3863, Note_on_c, 0, 42, 0
5, 4320, Note_on_c, 0, 38, 44
5, 4343, Note_on_c, 0, 38, 0
5, 4800, Note_on_c, 0, 35, 44
5, 4823, Note_on_c, 0, 35, 0
5, 5040, Note_on_c, 0, 37, 44
5, 5063, Note_on_c, 0, 37, 0
5, 5280, Note_on_c, 0, 30, 44
5, 5280, Note_on_c, 0, 42, 44
5, 5760, Note_on_c, 0, 42, 0
5, 5760, Note_on_c, 0, 30, 0
5, 5760, Note_on_c, 0, 54, 44
5, 5783, Note_on_c, 0, 54, 0
5, 6000, Note_on_c, 0, 50, 44
5, 6023, Note_on_c, 0, 50, 0
5, 6240, Note_on_c, 0, 47, 44
5, 6263, Note_on_c, 0, 47, 0
5, 6480, Note_on_c, 0, 49, 44
5, 6503, Note_on_c, 0, 49, 0
5, 6720, Note_on_c, 0, 54, 44
5, 6743, Note_on_c, 0, 54, 0
5, 6960, Note_on_c, 0, 49, 57
5, 6983, Note_on_c, 0, 49, 0
5, 7200, Note_on_c, 0, 45, 57
5, 7223, Note_on_c, 0, 45, 0
5, 7440, Note_on_c, 0, 42, 57
5, 7463, Note_on_c, 0, 42, 0
5, 7680, Note_on_c, 0, 40, 57
5, 7703, Note_on_c, 0, 40, 0
5, 7920, Note_on_c, 0, 28, 57
5, 7943, Note_on_c, 0, 28, 0
5, 8160, Note_on_c, 0, 33, 57
5, 8183, Note_on_c, 0, 33, 0
5, 8400, Note_on_c, 0, 45, 57
5, 8423, Note_on_c, 0, 45, 0
5, 8640, Note_on_c, 0, 38, 57
5, 8663, Note_on_c, 0, 38, 0
5, 8880, Note_on_c, 0, 26, 57
5, 8903, Note_on_c, 0, 26, 0
5, 9120, Note_on_c, 0, 31, 57
5, 9143, Note_on_c, 0, 31, 0
5, 9360, Note_on_c, 0, 43, 57
5, 9383, Note_on_c, 0, 43, 0
5, 9600, Note_on_c, 0, 37, 57
5, 9623, Note_on_c, 0, 37, 0
5, 9840, Note_on_c, 0, 25, 57
5, 9863, Note_on_c, 0, 25, 0
5, 10080, Note_on_c, 0, 30, 57
5, 10103, Note_on_c, 0, 30, 0
5, 10320, Note_on_c, 0, 42, 57
5, 10343, Note_on_c, 0, 42, 0
5, 10560, Note_on_c, 0, 35, 57
5, 10583, Note_on_c, 0, 35, 0
5, 10800, Note_on_c, 0, 23, 57
5, 10823, Note_on_c, 0, 23, 0
5, 11040, Note_on_c, 0, 28, 57
5, 11063, Note_on_c, 0, 28, 0
5, 11280, Note_on_c, 0, 40, 57
5, 11303, Note_on_c, 0, 40, 0
5, 11520, Note_on_c, 0, 30, 57
5, 11543, Note_on_c, 0, 30, 0
5, 11760, Note_on_c, 0, 42, 57
5, 11783, Note_on_c, 0, 42, 0
5, 12240, Note_on_c, 0, 46, 44
5, 12263, Note_on_c, 0, 46, 0
5, 12480, Note_on_c, 0, 47, 44
5, 12503, Note_on_c, 0, 47, 0
5, 12720, Note_on_c, 0, 49, 44
5, 12743, Note_on_c, 0, 49, 0
5, 12960, Note_on_c, 0, 50, 44
5, 12983, Note_on_c, 0, 50, 0
5, 13200, Note_on_c, 0, 52, 44
5, 13223, Note_on_c, 0, 52, 0
5, 13440, Note_on_c, 0, 54, 44
5, 13463, Note_on_c, 0, 54, 0
5, 13680, Note_on_c, 0, 47, 70
5, 13703, Note_on_c, 0, 47, 0
5, 14160, Note_on_c, 0, 30, 44
5, 14183, Note_on_c, 0, 30, 0
5, 14400, Note_on_c, 0, 35, 44
5, 14423, Note_on_c, 0, 35, 0
5, 14640, Note_on_c, 0, 30, 44
5, 14663, Note_on_c, 0, 30, 0
5, 14880, Note_on_c, 0, 35, 44
5, 14903, Note_on_c, 0, 35, 0
5, 15360, Note_on_c, 0, 40, 57
5, 15375, Note_on_c, 0, 40, 0
5, 15480, Note_on_c, 0, 28, 57
5, 15495, Note_on_c, 0, 28, 0
5, 15600, Note_on_c, 0, 40, 57
5, 15615, Note_on_c, 0, 40, 0
5, 15840, Note_on_c, 0, 33, 57
5, 15855, Note_on_c, 0, 33, 0
5, 15960, Note_on_c, 0, 45, 57
5, 15975, Note_on_c, 0, 45, 0
5, 16080, Note_on_c, 0, 33, 57
5, 16095, Note_on_c, 0, 33, 0
5, 16320, Note_on_c, 0, 38, 57
5, 16335, Note_on_c, 0, 38, 0
5, 16440, Note_on_c, 0, 26, 57
5, 16455, Note_on_c, 0, 26, 0
5, 16560, Note_on_c, 0, 38, 57
5, 16575, Note_on_c, 0, 38, 0
5, 16800, Note_on_c, 0, 31, 57
5, 16815, Note_on_c, 0, 31, 0
5, 16920, Note_on_c, 0, 43, 57
5, 16935, Note_on_c, 0, 43, 0
5, 17040, Note_on_c, 0, 31, 57
5, 17055, Note_on_c, 0, 31, 0
5, 17280, Note_on_c, 0, 37, 57
5, 17295, Note_on_c, 0, 37, 0
5, 17400, Note_on_c, 0, 25, 57
5, 17415, Note_on_c, 0, 25, 0
5, 17520, Note_on_c, 0, 37, 57
5, 17535, Note_on_c, 0, 37, 0
5, 17760, Note_on_c, 0, 30, 57
5, 17775, Note_on_c, 0, 30, 0
5, 17880, Note_on_c, 0, 42, 57
5, 17895, Note_on_c, 0, 42, 0
5, 18000, Note_on_c, 0, 30, 57
5, 18015, Note_on_c, 0, 30, 0
5, 18240, Note_on_c, 0, 35, 57
5, 18255, Note_on_c, 0, 35, 0
5, 18360, Note_on_c, 0, 23, 57
5, 18375, Note_on_c, 0, 23, 0
5, 18480, Note_on_c, 0, 35, 57
5, 18495, Note_on_c, 0, 35, 0
5, 18720, Note_on_c, 0, 28, 57
5, 18735, Note_on_c, 0, 28, 0
5, 18840, Note_on_c, 0, 40, 57
5, 18855, Note_on_c, 0, 40, 0
5, 18960, Note_on_c, 0, 28, 57
5, 18975, Note_on_c, 0, 28, 0
5, 19200, Note_on_c, 0, 30, 57
5, 19215, Note_on_c, 0, 30, 0
5, 19320, Note_on_c, 0, 42, 57
5, 19335, Note_on_c, 0, 42, 0
5, 19440, Note_on_c, 0, 30, 57
5, 19455, Note_on_c, 0, 30, 0
5, 19920, Note_on_c, 0, 34, 44
5, 19920, Note_on_c, 0, 46, 44
5, 19943, Note_on_c, 0, 46, 0
5, 19943, Note_on_c, 0, 34, 0
5, 20160, Note_on_c, 0, 35, 44
5, 20160, Note_on_c, 0, 47, 44
5, 20183, Note_on_c, 0, 47, 0
5, 20183, Note_on_c, 0, 35, 0
5, 20400, Note_on_c, 0, 37, 44
5, 20400, Note_on_c, 0, 49, 44
5, 20423, Note_on_c, 0, 49, 0
5, 20423, Note_on_c, 0, 37, 0
5, 20640, Note_on_c, 0, 38, 44
5, 20640, Note_on_c, 0, 50, 44
5, 20663, Note_on_c, 0, 50, 0
5, 20663, Note_on_c, 0, 38, 0
5, 20880, Note_on_c, 0, 40, 44
5, 20880, Note_on_c, 0, 52, 44
5, 20903, Note_on_c, 0, 52, 0
5, 20903, Note_on_c, 0, 40, 0
5, 21120, Note_on_c, 0, 42, 44
5, 21120, Note_on_c, 0, 54, 44
5, 21143, Note_on_c, 0, 54, 0
5, 21143, Note_on_c, 0, 42, 0
5, 21360, Note_on_c, 0, 35, 70
5, 21360, Note_on_c, 0, 47, 70
5, 21383, Note_on_c, 0, 47, 0
5, 21383, Note_on_c, 0, 35, 0
5, 21840, Note_on_c, 0, 30, 44
5, 21863, Note_on_c, 0, 30, 0
5, 22080, Note_on_c, 0, 35, 44
5, 22103, Note_on_c, 0, 35, 0
5, 22320, Note_on_c, 0, 30, 44
5, 22343, Note_on_c, 0, 30, 0
5, 22560, Note_on_c, 0, 35, 44
5, 22583, Note_on_c, 0, 35, 0
5, 23040, Note_on_c, 0, 47, 70
5, 23520, Note_on_c, 0, 47, 0
5, 23760, Note_on_c, 0, 42, 44
5, 23783, Note_on_c, 0, 42, 0
5, 24000, Note_on_c, 0, 47, 70
5, 24480, Note_on_c, 0, 47, 0
5, 24720, Note_on_c, 0, 42, 44
5, 24743, Note_on_c, 0, 42, 0
5, 24960, Note_on_c, 0, 47, 44
5, 25440, Note_on_c, 0, 47, 0
5, 25680, Note_on_c, 0, 39, 44
5, 25703, Note_on_c, 0, 39, 0
5, 25920, Note_on_c, 0, 44, 44
5, 26400, Note_on_c, 0, 44, 0
5, 26640, Note_on_c, 0, 39, 44
5, 26663, Note_on_c, 0, 39, 0
5, 26880, Note_on_c, 0, 44, 44
5, 27360, Note_on_c, 0, 44, 0
5, 27600, Note_on_c, 0, 39, 44
5, 27623, Note_on_c, 0, 39, 0
5, 27840, Note_on_c, 0, 42, 44
5, 28320, Note_on_c, 0, 42, 0
5, 28560, Note_on_c, 0, 35, 44
5, 28583, Note_on_c, 0, 35, 0
5, 28800, Note_on_c, 0, 40, 44
5, 29280, Note_on_c, 0, 40, 0
5, 29520, Note_on_c, 0, 37, 44
5, 29543, Note_on_c, 0, 37, 0
5, 29760, Note_on_c, 0, 42, 44
5, 30240, Note_on_c, 0, 42, 0
5, 30480, Note_on_c, 0, 42, 44
5, 30503, Note_on_c, 0, 42, 0
5, 30720, Note_on_c, 0, 47, 70
5, 31200, Note_on_c, 0, 47, 0
5, 31440, Note_on_c, 0, 42, 44
5, 31463, Note_on_c, 0, 42, 0
5, 31680, Note_on_c, 0, 47, 70
5, 32160, Note_on_c, 0, 47, 0
5, 32400, Note_on_c, 0, 42, 44
5, 32423, Note_on_c, 0, 42, 0
5, 32640, Note_on_c, 0, 47, 44
5, 33120, Note_on_c, 0, 47, 0
5, 33360, Note_on_c, 0, 39, 44
5, 33383, Note_on_c, 0, 39, 0
5, 33600, Note_on_c, 0, 44, 44
5, 34080, Note_on_c, 0, 44, 0
5, 34320, Note_on_c, 0, 39, 44
5, 34343, Note_on_c, 0, 39, 0
5, 34560, Note_on_c, 0, 44, 44
5, 35040, Note_on_c, 0, 44, 0
5, 35280, Note_on_c, 0, 39, 44
5, 35303, Note_on_c, 0, 39, 0
5, 35520, Note_on_c, 0, 42, 44
5, 36000, Note_on_c, 0, 42, 0
5, 36240, Note_on_c, 0, 35, 44
5, 36263, Note_on_c, 0, 35, 0
5, 36480, Note_on_c, 0, 40, 44
5, 36960, Note_on_c, 0, 40, 0
5, 37200, Note_on_c, 0, 37, 44
5, 37223, Note_on_c, 0, 37, 0
5, 37440, Note_on_c, 0, 42, 44
5, 37920, Note_on_c, 0, 42, 0
5, 38160, Note_on_c, 0, 42, 44
5, 38183, Note_on_c, 0, 42, 0
5, 38400, Note_on_c, 0, 35, 109
5, 38400, Note_on_c, 0, 47, 109
5, 38880, Note_on_c, 0, 47, 0
5, 38880, Note_on_c, 0, 35, 0
5, 38880, Note_on_c, 0, 37, 109
5, 38880, Note_on_c, 0, 49, 109
5, 39360, Note_on_c, 0, 49, 0
5, 39360, Note_on_c, 0, 37, 0
5, 39360, Note_on_c, 0, 39, 109
5, 39360, Note_on_c, 0, 51, 109
5, 39840, Note_on_c, 0, 51, 0
5, 39840, Note_on_c, 0, 39, 0
5, 39840, Note_on_c, 0, 40, 109
5, 39840, Note_on_c, 0, 52, 109
5, 40320, Note_on_c, 0, 52, 0
5, 40320, Note_on_c, 0, 40, 0
5, 40320, Note_on_c, 0, 25, 83
5, 40320, Note_on_c, 0, 37, 83
5, 40560, Note_on_c, 0, 37, 0
5, 40560, Note_on_c, 0, 25, 0
5, 40800, Note_on_c, 0, 28, 83
5, 40800, Note_on_c, 0, 40, 83
5, 41040, Note_on_c, 0, 40, 0
5, 41040, Note_on_c, 0, 28, 0
5, 41280, Note_on_c, 0, 30, 83
5, 41280, Note_on_c, 0, 42, 83
5, 41760, Note_on_c, 0, 42, 0
5, 41760, Note_on_c, 0, 30, 0
5, 42000, Note_on_c, 0, 30, 83
5, 42000, Note_on_c, 0, 42, 83
5, 42240, Note_on_c, 0, 42, 0
5, 42240, Note_on_c, 0, 30, 0
5, 42240, Note_on_c, 0, 32, 109
5, 42240, Note_on_c, 0, 44, 109
5, 42720, Note_on_c, 0, 44, 0
5, 42720, Note_on_c, 0, 32, 0
5, 42720, Note_on_c, 0, 34, 109
5, 42720, Note_on_c, 0, 46, 109
5, 43200, Note_on_c, 0, 46, 0
5, 43200, Note_on_c, 0, 34, 0
5, 43200, Note_on_c, 0, 35, 83
5, 43200, Note_on_c, 0, 47, 83
5, 43440, Note_on_c, 0, 47, 0
5, 43440, Note_on_c, 0, 35, 0
5, 43680, Note_on_c, 0, 32, 83
5, 43680, Note_on_c, 0, 44, 83
5, 43920, Note_on_c, 0, 44, 0
5, 43920, Note_on_c, 0, 32, 0
5, 44160, Note_on_c, 0, 28, 83
5, 44160, Note_on_c, 0, 40, 83
5, 44183, Note_on_c, 0, 40, 0
5, 44183, Note_on_c, 0, 28, 0
5, 44400, Note_on_c, 0, 25, 83
5, 44400, Note_on_c, 0, 37, 83
5, 44423, Note_on_c, 0, 37, 0
5, 44423, Note_on_c, 0, 25, 0
5, 44640, Note_on_c, 0, 30, 83
5, 44640, Note_on_c, 0, 42, 83
5, 44663, Note_on_c, 0, 42, 0
5, 44663, Note_on_c, 0, 30, 0
5, 44880, Note_on_c, 0, 42, 83
5, 44880, Note_on_c, 0, 54, 83
5, 44903, Note_on_c, 0, 54, 0
5, 44903, Note_on_c, 0, 42, 0
5, 45120, Note_on_c, 0, 35, 83
5, 45120, Note_on_c, 0, 47, 83
5, 45143, Note_on_c, 0, 47, 0
5, 45143, Note_on_c, 0, 35, 0
5, 45360, Note_on_c, 0, 30, 83
5, 45360, Note_on_c, 0, 42, 83
5, 45383, Note_on_c, 0, 42, 0
5, 45383, Note_on_c, 0, 30, 0
5, 45600, Note_on_c, 0, 35, 83
5, 45600, Note_on_c, 0, 47, 83
5, 45623, Note_on_c, 0, 47, 0
5, 45623, Note_on_c, 0, 35, 0
5, 46080, Note_on_c, 0, 35, 109
5, 46080, Note_on_c, 0, 47, 109
5, 46560, Note_on_c, 0, 47, 0
5, 46560, Note_on_c, 0, 35, 0
5, 46560, Note_on_c, 0, 37, 109
5, 46560, Note_on_c, 0, 49, 109
5, 47040, Note_on_c, 0, 49, 0
5, 47040, Note_on_c, 0, 37, 0
5, 47040, Note_on_c, 0, 39, 109
5, 47040, Note_on_c, 0, 51, 109
5, 47520, Note_on_c, 0, 51, 0
5, 47520, Note_on_c, 0, 39, 0
5, 47520, Note_on_c, 0, 40, 109
5, 47520, Note_on_c, 0, 52, 109
5, 48000, Note_on_c, 0, 52, 0
5, 48000, Note_on_c, 0, 40, 0
5, 48000, Note_on_c, 0, 25, 83
5, 48000, Note_on_c, 0, 37, 83
5, 48240, Note_on_c, 0, 37, 0
5, 48240, Note_on_c, 0, 25, 0
5, 48480, Note_on_c, 0, 28, 83
5, 48480, Note_on_c, 0, 40, 83
5, 48720, Note_on_c, 0, 40, 0
5, 48720, Note_on_c, 0, 28, 0
5, 48960, Note_on_c, 0, 30, 83
5, 48960, Note_on_c, 0, 42, 83
5, 49440, Note_on_c, 0, 42, 0
5, 49440, Note_on_c, 0, 30, 0
5, 49680, Note_on_c, 0, 30, 83
5, 49680, Note_on_c, 0, 42, 83
5, 49920, Note_on_c, 0, 42, 0
5, 49920, Note_on_c, 0, 30, 0
5, 49920, Note_on_c, 0, 32, 109
5, 49920, Note_on_c, 0, 44, 109
5, 50400, Note_on_c, 0, 44, 0
5, 50400, Note_on_c, 0, 32, 0
5, 50400, Note_on_c, 0, 34, 109
5, 50400, Note_on_c, 0, 46, 109
5, 50880, Note_on_c, 0, 46, 0
5, 50880, Note_on_c, 0, 34, 0
5, 50880, Note_on_c, 0, 35, 83
5, 50880, Note_on_c, 0, 47, 83
5, 51120, Note_on_c, 0, 47, 0
5, 51120, Note_on_c, 0, 35, 0
5, 51360, Note_on_c, 0, 32, 83
5, 51360, Note_on_c, 0, 44, 83
5, 51600, Note_on_c, 0, 44, 0
5, 51600, Note_on_c, 0, 32, 0
5, 51840, Note_on_c, 0, 28, 83
5, 51840, Note_on_c, 0, 40, 83
5, 51863, Note_on_c, 0, 40, 0
5, 51863, Note_on_c, 0, 28, 0
5, 52080, Note_on_c, 0, 25, 83
5, 52080, Note_on_c, 0, 37, 83
5, 52103, Note_on_c, 0, 37, 0
5, 52103, Note_on_c, 0, 25, 0
5, 52320, Note_on_c, 0, 30, 83
5, 52320, Note_on_c, 0, 42, 83
5, 52343, Note_on_c, 0, 42, 0
5, 52343, Note_on_c, 0, 30, 0
5, 52560, Note_on_c, 0, 42, 83
5, 52560, Note_on_c, 0, 54, 83
5, 52583, Note_on_c, 0, 54, 0
5, 52583, Note_on_c, 0, 42, 0
5, 52800, Note_on_c, 0, 35, 83
5, 52800, Note_on_c, 0, 47, 83
5, 52823, Note_on_c, 0, 47, 0
5, 52823, Note_on_c, 0, 35, 0
5, 53040, Note_on_c, 0, 30, 83
5, 53040, Note_on_c, 0, 42, 83
5, 53063, Note_on_c, 0, 42, 0
5, 53063, Note_on_c, 0, 30, 0
5, 53280, Note_on_c, 0, 35, 83
5, 53280, Note_on_c, 0, 47, 83
5, 53295, Note_on_c, 0, 47, 0
5, 53295, Note_on_c, 0, 35, 0
5, 54360, Note_on_c, 0, 42, 57
5, 54375, Note_on_c, 0, 42, 0
5, 54480, Note_on_c, 0, 44, 57
5, 54495, Note_on_c, 0, 44, 0
5, 54600, Note_on_c, 0, 46, 57
5, 54615, Note_on_c, 0, 46, 0
5, 54720, Note_on_c, 0, 35, 44
5, 54720, Note_on_c, 0, 47, 44
5, 54743, Note_on_c, 0, 47, 0
5, 54743, Note_on_c, 0, 35, 0
5, 55200, Note_on_c, 0, 31, 44
5, 55200, Note_on_c, 0, 43, 44
5, 55223, Note_on_c, 0, 43, 0
5, 55223, Note_on_c, 0, 31, 0
5, 55680, Note_on_c, 0, 28, 44
5, 55680, Note_on_c, 0, 40, 44
5, 55703, Note_on_c, 0, 40, 0
5, 55703, Note_on_c, 0, 28, 0
5, 55920, Note_on_c, 0, 30, 44
5, 55920, Note_on_c, 0, 42, 44
5, 55943, Note_on_c, 0, 42, 0
5, 55943, Note_on_c, 0, 30, 0
5, 56160, Note_on_c, 0, 35, 44
5, 56640, Note_on_c, 0, 35, 0
5, 56640, Note_on_c, 0, 59, 44
5, 56663, Note_on_c, 0, 59, 0
5, 56880, Note_on_c, 0, 55, 44
5, 56903, Note_on_c, 0, 55, 0
5, 57120, Note_on_c, 0, 52, 44
5, 57143, Note_on_c, 0, 52, 0
5, 57360, Note_on_c, 0, 54, 44
5, 57383, Note_on_c, 0, 54, 0
5, 57600, Note_on_c, 0, 47, 44
5, 57623, Note_on_c, 0, 47, 0
5, 57840, Note_on_c, 0, 42, 44
5, 57863, Note_on_c, 0, 42, 0
5, 58080, Note_on_c, 0, 38, 44
5, 58103, Note_on_c, 0, 38, 0
5, 58320, Note_on_c, 0, 35, 44
5, 58343, Note_on_c, 0, 35, 0
5, 58560, Note_on_c, 0, 42, 44
5, 58583, Note_on_c, 0, 42, 0
5, 59040, Note_on_c, 0, 38, 44
5, 59063, Note_on_c, 0, 38, 0
5, 59520, Note_on_c, 0, 35, 44
5, 59543, Note_on_c, 0, 35, 0
5, 59760, Note_on_c, 0, 37, 44
5, 59783, Note_on_c, 0, 37, 0
5, 60000, Note_on_c, 0, 30, 44
5, 60000, Note_on_c, 0, 42, 44
5, 60480, Note_on_c, 0, 42, 0
5, 60480, Note_on_c, 0, 30, 0
5, 60480, Note_on_c, 0, 54, 44
5, 60503, Note_on_c, 0, 54, 0
5, 60720, Note_on_c, 0, 50, 44
5, 60743, Note_on_c, 0, 50, 0
5, 60960, Note_on_c, 0, 47, 44
5, 60983, Note_on_c, 0, 47, 0
5, 61200, Note_on_c, 0, 49, 44
5, 61223, Note_on_c, 0, 49, 0
5, 61440, Note_on_c, 0, 54, 44
5, 61463, Note_on_c, 0, 54, 0
5, 61680, Note_on_c, 0, 49, 57
5, 61703, Note_on_c, 0, 49, 0
5, 61920, Note_on_c, 0, 45, 57
5, 61943, Note_on_c, 0, 45, 0
5, 62160, Note_on_c, 0, 42, 57
5, 62183, Note_on_c, 0, 42, 0
5, 62400, Note_on_c, 0, 40, 57
5, 62423, Note_on_c, 0, 40, 0
5, 62640, Note_on_c, 0, 28, 57
5, 62663, Note_on_c, 0, 28, 0
5, 62880, Note_on_c, 0, 33, 57
5, 62903, Note_on_c, 0, 33, 0
5, 63120, Note_on_c, 0, 45, 57
5, 63143, Note_on_c, 0, 45, 0
5, 63360, Note_on_c, 0, 38, 57
5, 63383, Note_on_c, 0, 38, 0
5, 63600, Note_on_c, 0, 26, 57
5, 63623, Note_on_c, 0, 26, 0
5, 63840, Note_on_c, 0, 31, 57
5, 63863, Note_on_c, 0, 31, 0
5, 64080, Note_on_c, 0, 43, 57
5, 64103, Note_on_c, 0, 43, 0
5, 64320, Note_on_c, 0, 37, 57
5, 64343, Note_on_c, 0, 37, 0
5, 64560, Note_on_c, 0, 25, 57
5, 64583, Note_on_c, 0, 25, 0
5, 64800, Note_on_c, 0, 30, 57
5, 64823, Note_on_c, 0, 30, 0
5, 65040, Note_on_c, 0, 42, 57
5, 65063, Note_on_c, 0, 42, 0
5, 65280, Note_on_c, 0, 35, 57
5, 65303, Note_on_c, 0, 35, 0
5, 65520, Note_on_c, 0, 23, 57
5, 65543, Note_on_c, 0, 23, 0
5, 65760, Note_on_c, 0, 28, 57
5, 65783, Note_on_c, 0, 28, 0
5, 66000, Note_on_c, 0, 40, 57
5, 66023, Note_on_c, 0, 40, 0
5, 66240, Note_on_c, 0, 30, 57
5, 66263, Note_on_c, 0, 30, 0
5, 66480, Note_on_c, 0, 42, 57
5, 66503, Note_on_c, 0, 42, 0
5, 66960, Note_on_c, 0, 46, 44
5, 66983, Note_on_c, 0, 46, 0
5, 67200, Note_on_c, 0, 47, 44
5, 67223, Note_on_c, 0, 47, 0
5, 67440, Note_on_c, 0, 49, 44
5, 67463, Note_on_c, 0, 49, 0
5, 67680, Note_on_c, 0, 50, 44
5, 67703, Note_on_c, 0, 50, 0
5, 67920, Note_on_c, 0, 52, 44
5, 67943, Note_on_c, 0, 52, 0
5, 68160, Note_on_c, 0, 54, 44
5, 68183, Note_on_c, 0, 54, 0
5, 68400, Note_on_c, 0, 47, 70
5, 68423, Note_on_c, 0, 47, 0
5, 68880, Note_on_c, 0, 30, 44
5, 68903, Note_on_c, 0, 30, 0
5, 69120, Note_on_c, 0, 35, 44
5, 69143, Note_on_c, 0, 35, 0
5, 69360, Note_on_c, 0, 30, 44
5, 69383, Note_on_c, 0, 30, 0
5, 69600, Note_on_c, 0, 35, 44
5, 69623, Note_on_c, 0, 35, 0
5, 70080, Note_on_c, 0, 40, 57
5, 70095, Note_on_c, 0, 40, 0
5, 70200, Note_on_c, 0, 28, 57
5, 70215, Note_on_c, 0, 28, 0
5, 70320, Note_on_c, 0, 40, 57
5, 70335, Note_on_c, 0, 40, 0
5, 70560, Note_on_c, 0, 33, 57
5, 70575, Note_on_c, 0, 33, 0
5, 70680, Note_on_c, 0, 45, 57
5, 70695, Note_on_c, 0, 45, 0
5, 70800, Note_on_c, 0, 33, 57
5, 70815, Note_on_c, 0, 33, 0
5, 71040, Note_on_c, 0, 38, 57
5, 71055, Note_on_c, 0, 38, 0
5, 71160, Note_on_c, 0, 26, 57
5, 71175, Note_on_c, 0, 26, 0
5, 71280, Note_on_c, 0, 38, 57
5, 71295, Note_on_c, 0, 38, 0
5, 71520, Note_on_c, 0, 31, 57
5, 71535, Note_on_c, 0, 31, 0
5, 71640, Note_on_c, 0, 43, 57
5, 71655, Note_on_c, 0, 43, 0
5, 71760, Note_on_c, 0, 31, 57
5, 71775, Note_on_c, 0, 31, 0
5, 72000, Note_on_c, 0, 37, 57
5, 72015, Note_on_c, 0, 37, 0
5, 72120, Note_on_c, 0, 25, 57
5, 72135, Note_on_c, 0, 25, 0
5, 72240, Note_on_c, 0, 37, 57
5, 72255, Note_on_c, 0, 37, 0
5, 72480, Note_on_c, 0, 30, 57
5, 72495, Note_on_c, 0, 30, 0
5, 72600, Note_on_c, 0, 42, 57
5, 72615, Note_on_c, 0, 42, 0
5, 72720, Note_on_c, 0, 30, 57
5, 72735, Note_on_c, 0, 30, 0
5, 72960, Note_on_c, 0, 35, 57
5, 72975, Note_on_c, 0, 35, 0
5, 73080, Note_on_c, 0, 23, 57
5, 73095, Note_on_c, 0, 23, 0
5, 73200, Note_on_c, 0, 35, 57
5, 73215, Note_on_c, 0, 35, 0
5, 73440, Note_on_c, 0, 28, 57
5, 73455, Note_on_c, 0, 28, 0
5, 73560, Note_on_c, 0, 40, 57
5, 73575, Note_on_c, 0, 40, 0
5, 73680, Note_on_c, 0, 28, 57
5, 73695, Note_on_c, 0, 28, 0
5, 73920, Note_on_c, 0, 30, 57
5, 73935, Note_on_c, 0, 30, 0
5, 74040, Note_on_c, 0, 42, 57
5, 74055, Note_on_c, 0, 42, 0
5, 74160, Note_on_c, 0, 30, 57
5, 74175, Note_on_c, 0, 30, 0
5, 74640, Note_on_c, 0, 34, 83
5, 74640, Note_on_c, 0, 46, 83
5, 74663, Note_on_c, 0, 46, 0
5, 74663, Note_on_c, 0, 34, 0
5, 74880, Note_on_c, 0, 35, 83
5, 74880, Note_on_c, 0, 47, 83
5, 74903, Note_on_c, 0, 47, 0
5, 74903, Note_on_c, 0, 35, 0
5, 75120, Note_on_c, 0, 37, 83
5, 75120, Note_on_c, 0, 49, 83
5, 75143, Note_on_c, 0, 49, 0
5, 75143, Note_on_c, 0, 37, 0
5, 75360, Note_on_c, 0, 38, 83
5, 75360, Note_on_c, 0, 50, 83
5, 75383, Note_on_c, 0, 50, 0
5, 75383, Note_on_c, 0, 38, 0
5, 75600, Note_on_c, 0, 40, 83
5, 75600, Note_on_c, 0, 52, 83
5, 75623, Note_on_c, 0, 52, 0
5, 75623, Note_on_c, 0, 40, 0
5, 75840, Note_on_c, 0, 42, 83
5, 75840, Note_on_c, 0, 54, 83
5, 75863, Note_on_c, 0, 54, 0
5, 75863, Note_on_c, 0, 42, 0
5, 76080, Note_on_c, 0, 35, 109
5, 76080, Note_on_c, 0, 47, 109
5, 76103, Note_on_c, 0, 47, 0
5, 76103, Note_on_c, 0, 35, 0
5, 76560, Note_on_c, 0, 30, 83
5, 76583, Note_on_c, 0, 30, 0
5, 76800, Note_on_c, 0, 35, 83
5, 76823, Note_on_c, 0, 35, 0
5, 77040, Note_on_c, 0, 30, 83
5, 77063, Note_on_c, 0, 30, 0
5, 77280, Note_on_c, 0, 35, 83
5, 77303, Note_on_c, 0, 35, 0
5, 77520, Note_on_c, 0, 42, 83
5, 77520, Note_on_c, 0, 46, 83
5, 77520, Note_on_c, 0, 49, 83
5, 77543, Note_on_c, 0, 49, 0
5, 77543, Note_on_c, 0, 46, 0
5, 77543, Note_on_c, 0, 42, 0
5, 77760, Note_on_c, 0, 35, 83
5, 77760, Note_on_c, 0, 42, 83
5, 77760, Note_on_c, 0, 47, 83
5, 80640, Note_on_c, 0, 47, 0
5, 80640, Note_on_c, 0, 42, 0
5, 80640, Note_on_c, 0, 35, 0
5, 80640, End_track
0, 0, End_of_file
