0, 0, Header, 1, 5, 480
1, 0, Start_track
1, 0, Title_t, "brahms hungarian dance no.21"
1, 0, Copyright_t, "Segundo G. Yogore,  dody@info.com.ph \012__________________________________________________________\012Kunst der Fuge comment: this is the Contributor's property.\012Can *not* be used for commercial purposes without authorization!\012Copyright by Contributor - Kunst der Fuge, © 2002-05\012http://www.kunstderfuge.com/thanks.htm -> Contributors' list\012http://www.kunstderfuge.com/notes.htm -> Terms & conditions"
1, 0, Text_t, "sequenced by Segundo G. Yogore,  2004\012"
1, 0, Time_signature, 2, 2, 24, 8
1, 0, Key_signature, 1, "major"
1, 0, Tempo, 428571
1, 7680, Tempo, 428571
1, 61440, Key_signature, 4, "major"
1, 61440, Tempo, 352941
1, 92160, Time_signature, 6, 2, 24, 8
1, 92160, End_track
2, 0, Start_track
2, 0, Title_t, "Grand Piano"
2, 0, Program_c, 0, 0
2, 0, Control_c, 0, 7, 110
2, 0, Control_c, 0, 10, 97
2, 0, Note_on_c, 0, 70, 62
2, 60, Note_on_c, 0, 70, 0
2, 60, Note_on_c, 0, 71, 88
2, 480, Note_on_c, 0, 71, 0
2, 480, Note_on_c, 0, 71, 62
2, 503, Note_on_c, 0, 71, 0
2, 720, Note_on_c, 0, 71, 62
2, 743, Note_on_c, 0, 71, 0
2, 900, Note_on_c, 0, 75, 62
2, 960, Note_on_c, 0, 75, 0
2, 960, Note_on_c, 0, 76, 88
2, 1440, Note_on_c, 0, 76, 0
2, 1440, Note_on_c, 0, 78, 62
2, 1463, Note_on_c, 0, 78, 0
2, 1680, Note_on_c, 0, 78, 62
2, 1703, Note_on_c, 0, 78, 0
2, 1920, Note_on_c, 0, 74, 62
2, 1943, Note_on_c, 0, 74, 0
2, 2160, Note_on_c, 0, 74, 62
2, 2183, Note_on_c, 0, 74, 0
2, 2400, Note_on_c, 0, 73, 62
2, 2423, Note_on_c, 0, 73, 0
2, 2640, Note_on_c, 0, 73, 62
2, 2760, Note_on_c, 0, 73, 0
2, 2760, Note_on_c, 0, 70, 62
2, 2880, Note_on_c, 0, 70, 0
2, 2880, Note_on_c, 0, 71, 62
2, 2903, Note_on_c, 0, 71, 0
2, 3120, Note_on_c, 0, 71, 62
2, 3143, Note_on_c, 0, 71, 0
2, 3360, Note_on_c, 0, 73, 88
2, 3480, Note_on_c, 0, 73, 0
2, 3480, Note_on_c, 0, 71, 62
2, 3600, Note_on_c, 0, 71, 0
2, 3600, Note_on_c, 0, 66, 62
2, 3780, Note_on_c, 0, 82, 62
2, 3840, Note_on_c, 0, 82, 0
2, 3840, Note_on_c, 0, 66, 0
2, 3840, Note_on_c, 0, 83, 88
2, 4320, Note_on_c, 0, 83, 0
2, 4320, Note_on_c, 0, 83, 62
2, 4343, Note_on_c, 0, 83, 0
2, 4560, Note_on_c, 0, 83, 62
2, 4583, Note_on_c, 0, 83, 0
2, 4740, Note_on_c, 0, 87, 62
2, 4800, Note_on_c, 0, 87, 0
2, 4800, Note_on_c, 0, 88, 88
2, 5280, Note_on_c, 0, 88, 0
2, 5280, Note_on_c, 0, 90, 62
2, 5303, Note_on_c, 0, 90, 0
2, 5520, Note_on_c, 0, 90, 62
2, 5543, Note_on_c, 0, 90, 0
2, 5760, Note_on_c, 0, 86, 62
2, 5783, Note_on_c, 0, 86, 0
2, 6000, Note_on_c, 0, 86, 62
2, 6023, Note_on_c, 0, 86, 0
2, 6240, Note_on_c, 0, 85, 62
2, 6263, Note_on_c, 0, 85, 0
2, 6480, Note_on_c, 0, 85, 62
2, 6600, Note_on_c, 0, 85, 0
2, 6600, Note_on_c, 0, 82, 62
2, 6720, Note_on_c, 0, 82, 0
2, 6720, Control_c, 0, 64, 127
2, 6720, Note_on_c, 0, 83, 88
2, 6840, Note_on_c, 0, 83, 0
2, 6840, Note_on_c, 0, 81, 62
2, 6960, Note_on_c, 0, 81, 0
2, 6960, Note_on_c, 0, 79, 62
2, 7080, Note_on_c, 0, 79, 0
2, 7080, Note_on_c, 0, 78, 62
2, 7200, Note_on_c, 0, 78, 0
2, 7200, Control_c, 0, 64, 0
2, 7200, Note_on_c, 0, 76, 62
2, 7440, Note_on_c, 0, 76, 0
2, 7680, Note_on_c, 0, 70, 62
2, 7740, Note_on_c, 0, 70, 0
2, 7740, Note_on_c, 0, 71, 88
2, 8160, Note_on_c, 0, 71, 0
2, 8160, Note_on_c, 0, 71, 62
2, 8183, Note_on_c, 0, 71, 0
2, 8400, Note_on_c, 0, 71, 62
2, 8423, Note_on_c, 0, 71, 0
2, 8580, Note_on_c, 0, 75, 62
2, 8640, Note_on_c, 0, 75, 0
2, 8640, Note_on_c, 0, 76, 88
2, 9120, Note_on_c, 0, 76, 0
2, 9120, Note_on_c, 0, 78, 62
2, 9143, Note_on_c, 0, 78, 0
2, 9360, Note_on_c, 0, 78, 62
2, 9383, Note_on_c, 0, 78, 0
2, 9600, Note_on_c, 0, 74, 62
2, 9623, Note_on_c, 0, 74, 0
2, 9840, Note_on_c, 0, 74, 62
2, 9863, Note_on_c, 0, 74, 0
2, 10080, Note_on_c, 0, 73, 62
2, 10103, Note_on_c, 0, 73, 0
2, 10320, Note_on_c, 0, 73, 62
2, 10440, Note_on_c, 0, 73, 0
2, 10440, Note_on_c, 0, 70, 62
2, 10560, Note_on_c, 0, 70, 0
2, 10560, Note_on_c, 0, 71, 62
2, 10583, Note_on_c, 0, 71, 0
2, 10800, Note_on_c, 0, 71, 62
2, 10823, Note_on_c, 0, 71, 0
2, 11040, Note_on_c, 0, 73, 88
2, 11160, Note_on_c, 0, 73, 0
2, 11160, Note_on_c, 0, 71, 62
2, 11280, Note_on_c, 0, 71, 0
2, 11280, Note_on_c, 0, 66, 62
2, 11460, Note_on_c, 0, 82, 62
2, 11520, Note_on_c, 0, 82, 0
2, 11520, Note_on_c, 0, 66, 0
2, 11520, Note_on_c, 0, 83, 88
2, 12000, Note_on_c, 0, 83, 0
2, 12000, Note_on_c, 0, 83, 62
2, 12023, Note_on_c, 0, 83, 0
2, 12240, Note_on_c, 0, 83, 62
2, 12263, Note_on_c, 0, 83, 0
2, 12420, Note_on_c, 0, 87, 62
2, 12480, Note_on_c, 0, 87, 0
2, 12480, Note_on_c, 0, 88, 88
2, 12960, Note_on_c, 0, 88, 0
2, 12960, Note_on_c, 0, 90, 62
2, 12983, Note_on_c, 0, 90, 0
2, 13200, Note_on_c, 0, 90, 62
2, 13223, Note_on_c, 0, 90, 0
2, 13440, Note_on_c, 0, 86, 62
2, 13463, Note_on_c, 0, 86, 0
2, 13680, Note_on_c, 0, 86, 62
2, 13703, Note_on_c, 0, 86, 0
2, 13920, Note_on_c, 0, 85, 62
2, 13943, Note_on_c, 0, 85, 0
2, 14160, Note_on_c, 0, 85, 62
2, 14280, Note_on_c, 0, 85, 0
2, 14280, Note_on_c, 0, 82, 62
2, 14400, Note_on_c, 0, 82, 0
2, 14400, Control_c, 0, 64, 127
2, 14400, Note_on_c, 0, 83, 88
2, 14520, Note_on_c, 0, 83, 0
2, 14520, Note_on_c, 0, 81, 62
2, 14640, Note_on_c, 0, 81, 0
2, 14640, Note_on_c, 0, 79, 62
2, 14760, Note_on_c, 0, 79, 0
2, 14760, Note_on_c, 0, 78, 62
2, 14880, Note_on_c, 0, 78, 0
2, 14880, Control_c, 0, 64, 0
2, 14880, Note_on_c, 0, 76, 62
2, 15120, Note_on_c, 0, 76, 0
2, 15600, Note_on_c, 0, 74, 62
2, 15600, Note_on_c, 0, 78, 62
2, 15615, Note_on_c, 0, 78, 0
2, 15615, Note_on_c, 0, 74, 0
2, 15720, Note_on_c, 0, 76, 62
2, 15720, Note_on_c, 0, 79, 62
2, 15735, Note_on_c, 0, 79, 0
2, 15735, Note_on_c, 0, 76, 0
2, 15840, Note_on_c, 0, 78, 62
2, 15840, Note_on_c, 0, 81, 62
2, 15863, Note_on_c, 0, 81, 0
2, 15863, Note_on_c, 0, 78, 0
2, 16080, Note_on_c, 0, 72, 62
2, 16103, Note_on_c, 0, 72, 0
2, 16320, Note_on_c, 0, 79, 62
2, 16680, Note_on_c, 0, 79, 0
2, 16680, Note_on_c, 0, 78, 62
2, 16695, Note_on_c, 0, 78, 0
2, 16740, Note_on_c, 0, 81, 62
2, 16800, Note_on_c, 0, 81, 0
2, 16800, Note_on_c, 0, 79, 62
2, 16815, Note_on_c, 0, 79, 0
2, 16920, Note_on_c, 0, 78, 62
2, 16935, Note_on_c, 0, 78, 0
2, 17040, Note_on_c, 0, 79, 62
2, 17063, Note_on_c, 0, 79, 0
2, 17520, Note_on_c, 0, 78, 75
2, 17520, Note_on_c, 0, 81, 75
2, 17535, Note_on_c, 0, 81, 0
2, 17535, Note_on_c, 0, 78, 0
2, 17640, Note_on_c, 0, 79, 75
2, 17640, Note_on_c, 0, 83, 75
2, 17655, Note_on_c, 0, 83, 0
2, 17655, Note_on_c, 0, 79, 0
2, 17760, Note_on_c, 0, 81, 75
2, 17760, Note_on_c, 0, 84, 75
2, 17783, Note_on_c, 0, 84, 0
2, 17783, Note_on_c, 0, 81, 0
2, 18000, Note_on_c, 0, 72, 75
2, 18023, Note_on_c, 0, 72, 0
2, 18240, Note_on_c, 0, 79, 75
2, 18240, Note_on_c, 0, 83, 75
2, 18600, Note_on_c, 0, 83, 0
2, 18600, Note_on_c, 0, 79, 0
2, 18600, Note_on_c, 0, 78, 75
2, 18600, Note_on_c, 0, 82, 75
2, 18615, Note_on_c, 0, 82, 0
2, 18615, Note_on_c, 0, 78, 0
2, 18660, Note_on_c, 0, 84, 75
2, 18720, Note_on_c, 0, 84, 0
2, 18720, Note_on_c, 0, 79, 75
2, 18720, Note_on_c, 0, 83, 75
2, 18735, Note_on_c, 0, 83, 0
2, 18735, Note_on_c, 0, 79, 0
2, 18840, Note_on_c, 0, 78, 75
2, 18840, Note_on_c, 0, 82, 75
2, 18855, Note_on_c, 0, 82, 0
2, 18855, Note_on_c, 0, 78, 0
2, 18960, Note_on_c, 0, 79, 75
2, 18960, Note_on_c, 0, 83, 75
2, 18983, Note_on_c, 0, 83, 0
2, 18983, Note_on_c, 0, 79, 0
2, 19440, Note_on_c, 0, 75, 62
2, 19440, Note_on_c, 0, 78, 62
2, 19455, Note_on_c, 0, 78, 0
2, 19455, Note_on_c, 0, 75, 0
2, 19560, Note_on_c, 0, 76, 62
2, 19560, Note_on_c, 0, 79, 62
2, 19575, Note_on_c, 0, 79, 0
2, 19575, Note_on_c, 0, 76, 0
2, 19680, Note_on_c, 0, 78, 62
2, 19680, Note_on_c, 0, 81, 62
2, 19703, Note_on_c, 0, 81, 0
2, 19703, Note_on_c, 0, 78, 0
2, 19920, Note_on_c, 0, 71, 62
2, 19943, Note_on_c, 0, 71, 0
2, 20160, Note_on_c, 0, 79, 62
2, 20280, Note_on_c, 0, 79, 0
2, 20280, Note_on_c, 0, 78, 62
2, 20400, Note_on_c, 0, 78, 0
2, 20400, Note_on_c, 0, 76, 62
2, 20520, Note_on_c, 0, 76, 0
2, 20520, Note_on_c, 0, 75, 62
2, 20640, Note_on_c, 0, 75, 0
2, 20640, Note_on_c, 0, 76, 62
2, 20760, Note_on_c, 0, 76, 0
2, 20760, Note_on_c, 0, 78, 62
2, 20880, Note_on_c, 0, 78, 0
2, 20880, Note_on_c, 0, 79, 62
2, 21000, Note_on_c, 0, 79, 0
2, 21000, Note_on_c, 0, 81, 62
2, 21120, Note_on_c, 0, 81, 0
2, 21120, Note_on_c, 0, 83, 62
2, 21143, Note_on_c, 0, 83, 0
2, 21360, Note_on_c, 0, 71, 88
2, 21840, Note_on_c, 0, 71, 0
2, 21840, Note_on_c, 0, 75, 62
2, 21863, Note_on_c, 0, 75, 0
2, 22080, Note_on_c, 0, 78, 62
2, 22200, Note_on_c, 0, 78, 0
2, 22200, Note_on_c, 0, 76, 62
2, 22320, Note_on_c, 0, 76, 0
2, 22320, Note_on_c, 0, 75, 62
2, 22335, Note_on_c, 0, 75, 0
2, 22440, Note_on_c, 0, 78, 62
2, 22455, Note_on_c, 0, 78, 0
2, 22560, Note_on_c, 0, 76, 62
2, 22583, Note_on_c, 0, 76, 0
2, 23280, Note_on_c, 0, 74, 62
2, 23280, Note_on_c, 0, 78, 62
2, 23295, Note_on_c, 0, 78, 0
2, 23295, Note_on_c, 0, 74, 0
2, 23400, Note_on_c, 0, 76, 62
2, 23400, Note_on_c, 0, 79, 62
2, 23415, Note_on_c, 0, 79, 0
2, 23415, Note_on_c, 0, 76, 0
2, 23520, Note_on_c, 0, 78, 62
2, 23520, Note_on_c, 0, 81, 62
2, 23543, Note_on_c, 0, 81, 0
2, 23543, Note_on_c, 0, 78, 0
2, 23760, Note_on_c, 0, 72, 62
2, 23783, Note_on_c, 0, 72, 0
2, 24000, Note_on_c, 0, 79, 62
2, 24360, Note_on_c, 0, 79, 0
2, 24360, Note_on_c, 0, 78, 62
2, 24375, Note_on_c, 0, 78, 0
2, 24420, Note_on_c, 0, 81, 62
2, 24480, Note_on_c, 0, 81, 0
2, 24480, Note_on_c, 0, 79, 62
2, 24495, Note_on_c, 0, 79, 0
2, 24600, Note_on_c, 0, 78, 62
2, 24615, Note_on_c, 0, 78, 0
2, 24720, Note_on_c, 0, 79, 62
2, 24743, Note_on_c, 0, 79, 0
2, 25200, Note_on_c, 0, 78, 75
2, 25200, Note_on_c, 0, 81, 75
2, 25215, Note_on_c, 0, 81, 0
2, 25215, Note_on_c, 0, 78, 0
2, 25320, Note_on_c, 0, 79, 75
2, 25320, Note_on_c, 0, 83, 75
2, 25335, Note_on_c, 0, 83, 0
2, 25335, Note_on_c, 0, 79, 0
2, 25440, Note_on_c, 0, 81, 75
2, 25440, Note_on_c, 0, 84, 75
2, 25463, Note_on_c, 0, 84, 0
2, 25463, Note_on_c, 0, 81, 0
2, 25680, Note_on_c, 0, 72, 75
2, 25703, Note_on_c, 0, 72, 0
2, 25920, Note_on_c, 0, 79, 75
2, 25920, Note_on_c, 0, 83, 75
2, 26280, Note_on_c, 0, 83, 0
2, 26280, Note_on_c, 0, 79, 0
2, 26280, Note_on_c, 0, 78, 75
2, 26280, Note_on_c, 0, 82, 75
2, 26295, Note_on_c, 0, 82, 0
2, 26295, Note_on_c, 0, 78, 0
2, 26340, Note_on_c, 0, 84, 75
2, 26400, Note_on_c, 0, 84, 0
2, 26400, Note_on_c, 0, 79, 75
2, 26400, Note_on_c, 0, 83, 75
2, 26415, Note_on_c, 0, 83, 0
2, 26415, Note_on_c, 0, 79, 0
2, 26520, Note_on_c, 0, 78, 75
2, 26520, Note_on_c, 0, 82, 75
2, 26535, Note_on_c, 0, 82, 0
2, 26535, Note_on_c, 0, 78, 0
2, 26640, Note_on_c, 0, 79, 75
2, 26640, Note_on_c, 0, 83, 75
2, 26663, Note_on_c, 0, 83, 0
2, 26663, Note_on_c, 0, 79, 0
2, 27120, Note_on_c, 0, 75, 62
2, 27120, Note_on_c, 0, 78, 62
2, 27135, Note_on_c, 0, 78, 0
2, 27135, Note_on_c, 0, 75, 0
2, 27240, Note_on_c, 0, 76, 62
2, 27240, Note_on_c, 0, 79, 62
2, 27255, Note_on_c, 0, 79, 0
2, 27255, Note_on_c, 0, 76, 0
2, 27360, Note_on_c, 0, 78, 62
2, 27360, Note_on_c, 0, 81, 62
2, 27383, Note_on_c, 0, 81, 0
2, 27383, Note_on_c, 0, 78, 0
2, 27600, Note_on_c, 0, 71, 62
2, 27623, Note_on_c, 0, 71, 0
2, 27840, Note_on_c, 0, 79, 62
2, 27960, Note_on_c, 0, 79, 0
2, 27960, Note_on_c, 0, 78, 62
2, 28080, Note_on_c, 0, 78, 0
2, 28080, Note_on_c, 0, 76, 62
2, 28200, Note_on_c, 0, 76, 0
2, 28200, Note_on_c, 0, 75, 62
2, 28320, Note_on_c, 0, 75, 0
2, 28320, Note_on_c, 0, 76, 62
2, 28440, Note_on_c, 0, 76, 0
2, 28440, Note_on_c, 0, 78, 62
2, 28560, Note_on_c, 0, 78, 0
2, 28560, Note_on_c, 0, 79, 62
2, 28680, Note_on_c, 0, 79, 0
2, 28680, Note_on_c, 0, 81, 62
2, 28800, Note_on_c, 0, 81, 0
2, 28800, Note_on_c, 0, 83, 62
2, 28823, Note_on_c, 0, 83, 0
2, 29040, Note_on_c, 0, 71, 88
2, 29520, Note_on_c, 0, 71, 0
2, 29520, Note_on_c, 0, 75, 62
2, 29543, Note_on_c, 0, 75, 0
2, 29760, Note_on_c, 0, 78, 62
2, 29880, Note_on_c, 0, 78, 0
2, 29880, Note_on_c, 0, 76, 62
2, 30000, Note_on_c, 0, 76, 0
2, 30000, Note_on_c, 0, 75, 62
2, 30015, Note_on_c, 0, 75, 0
2, 30120, Note_on_c, 0, 78, 62
2, 30135, Note_on_c, 0, 78, 0
2, 30240, Note_on_c, 0, 76, 62
2, 30263, Note_on_c, 0, 76, 0
2, 30660, Note_on_c, 0, 82, 62
2, 30720, Control_c, 0, 64, 127
2, 30720, Note_on_c, 0, 83, 62
2, 30960, Note_on_c, 0, 83, 0
2, 30960, Note_on_c, 0, 82, 0
2, 30960, Note_on_c, 0, 83, 62
2, 31200, Note_on_c, 0, 83, 0
2, 31200, Note_on_c, 0, 83, 75
2, 31440, Note_on_c, 0, 83, 0
2, 31440, Control_c, 0, 64, 0
2, 31440, Note_on_c, 0, 83, 75
2, 31680, Note_on_c, 0, 83, 0
2, 31680, Control_c, 0, 64, 127
2, 31680, Note_on_c, 0, 83, 75
2, 31920, Note_on_c, 0, 83, 0
2, 31920, Note_on_c, 0, 83, 75
2, 32160, Note_on_c, 0, 83, 0
2, 32160, Note_on_c, 0, 83, 88
2, 32400, Note_on_c, 0, 83, 0
2, 32400, Control_c, 0, 64, 0
2, 32400, Note_on_c, 0, 83, 88
2, 32640, Note_on_c, 0, 83, 0
2, 32640, Control_c, 0, 64, 127
2, 32640, Note_on_c, 0, 84, 101
2, 32700, Note_on_c, 0, 84, 0
2, 32700, Note_on_c, 0, 83, 101
2, 32760, Note_on_c, 0, 83, 0
2, 32760, Note_on_c, 0, 81, 101
2, 32820, Note_on_c, 0, 81, 0
2, 32820, Note_on_c, 0, 83, 101
2, 32880, Note_on_c, 0, 83, 0
2, 32880, Control_c, 0, 64, 0
2, 32880, Note_on_c, 0, 91, 101
2, 33360, Note_on_c, 0, 91, 0
2, 33360, Note_on_c, 0, 90, 101
2, 33600, Note_on_c, 0, 90, 0
2, 33600, Note_on_c, 0, 88, 88
2, 34080, Note_on_c, 0, 88, 0
2, 34080, Note_on_c, 0, 87, 75
2, 34500, Note_on_c, 0, 80, 75
2, 34560, Note_on_c, 0, 87, 0
2, 34560, Control_c, 0, 64, 127
2, 34560, Note_on_c, 0, 81, 62
2, 34800, Note_on_c, 0, 81, 0
2, 34800, Note_on_c, 0, 80, 0
2, 34800, Note_on_c, 0, 81, 62
2, 35040, Note_on_c, 0, 81, 0
2, 35040, Note_on_c, 0, 81, 75
2, 35280, Note_on_c, 0, 81, 0
2, 35280, Control_c, 0, 64, 0
2, 35280, Note_on_c, 0, 81, 75
2, 35520, Note_on_c, 0, 81, 0
2, 35520, Control_c, 0, 64, 127
2, 35520, Note_on_c, 0, 81, 75
2, 35760, Note_on_c, 0, 81, 0
2, 35760, Note_on_c, 0, 81, 75
2, 36000, Note_on_c, 0, 81, 0
2, 36000, Note_on_c, 0, 81, 88
2, 36240, Note_on_c, 0, 81, 0
2, 36240, Control_c, 0, 64, 0
2, 36240, Note_on_c, 0, 81, 88
2, 36480, Note_on_c, 0, 81, 0
2, 36480, Note_on_c, 0, 81, 101
2, 36720, Note_on_c, 0, 81, 0
2, 36720, Note_on_c, 0, 84, 101
2, 36900, Note_on_c, 0, 86, 101
2, 36960, Note_on_c, 0, 86, 0
2, 36960, Note_on_c, 0, 84, 0
2, 36960, Control_c, 0, 64, 127
2, 36960, Note_on_c, 0, 84, 101
2, 37080, Note_on_c, 0, 84, 0
2, 37080, Note_on_c, 0, 83, 101
2, 37200, Note_on_c, 0, 83, 0
2, 37200, Note_on_c, 0, 84, 101
2, 37320, Note_on_c, 0, 84, 0
2, 37320, Control_c, 0, 64, 0
2, 37320, Note_on_c, 0, 86, 101
2, 37440, Note_on_c, 0, 86, 0
2, 37440, Note_on_c, 0, 84, 88
2, 37920, Note_on_c, 0, 84, 0
2, 37920, Note_on_c, 0, 83, 75
2, 38340, Note_on_c, 0, 82, 75
2, 38400, Note_on_c, 0, 83, 0
2, 38400, Note_on_c, 0, 83, 75
2, 38640, Note_on_c, 0, 83, 0
2, 38640, Note_on_c, 0, 82, 0
2, 38640, Note_on_c, 0, 79, 75
2, 38640, Note_on_c, 0, 83, 75
2, 39060, Note_on_c, 0, 82, 75
2, 39120, Note_on_c, 0, 82, 0
2, 39120, Note_on_c, 0, 83, 0
2, 39120, Note_on_c, 0, 79, 0
2, 39120, Note_on_c, 0, 79, 75
2, 39120, Note_on_c, 0, 83, 75
2, 39600, Note_on_c, 0, 83, 0
2, 39600, Note_on_c, 0, 79, 0
2, 39600, Note_on_c, 0, 79, 88
2, 39600, Note_on_c, 0, 83, 88
2, 40020, Note_on_c, 0, 82, 88
2, 40080, Note_on_c, 0, 82, 0
2, 40080, Note_on_c, 0, 83, 0
2, 40080, Note_on_c, 0, 79, 0
2, 40080, Note_on_c, 0, 79, 88
2, 40080, Note_on_c, 0, 83, 88
2, 40560, Note_on_c, 0, 83, 0
2, 40560, Note_on_c, 0, 79, 0
2, 40560, Note_on_c, 0, 83, 101
2, 40560, Note_on_c, 0, 91, 101
2, 41040, Note_on_c, 0, 91, 0
2, 41040, Note_on_c, 0, 83, 0
2, 41040, Note_on_c, 0, 84, 101
2, 41040, Note_on_c, 0, 90, 101
2, 41280, Note_on_c, 0, 90, 0
2, 41280, Note_on_c, 0, 84, 0
2, 41280, Note_on_c, 0, 67, 88
2, 41280, Note_on_c, 0, 76, 88
2, 41280, Note_on_c, 0, 79, 88
2, 41280, Note_on_c, 0, 88, 88
2, 41760, Note_on_c, 0, 88, 0
2, 41760, Note_on_c, 0, 67, 0
2, 41760, Note_on_c, 0, 76, 0
2, 41760, Note_on_c, 0, 79, 0
2, 41760, Note_on_c, 0, 78, 75
2, 41760, Note_on_c, 0, 83, 75
2, 41760, Note_on_c, 0, 87, 75
2, 42180, Note_on_c, 0, 80, 75
2, 42240, Note_on_c, 0, 87, 0
2, 42240, Note_on_c, 0, 78, 0
2, 42240, Note_on_c, 0, 83, 0
2, 42240, Note_on_c, 0, 81, 75
2, 42480, Note_on_c, 0, 81, 0
2, 42480, Note_on_c, 0, 80, 0
2, 42480, Note_on_c, 0, 81, 75
2, 42900, Note_on_c, 0, 80, 75
2, 42960, Note_on_c, 0, 81, 0
2, 42960, Note_on_c, 0, 81, 88
2, 43200, Note_on_c, 0, 80, 0
2, 43380, Note_on_c, 0, 80, 88
2, 43440, Note_on_c, 0, 81, 0
2, 43440, Note_on_c, 0, 81, 88
2, 43920, Note_on_c, 0, 81, 0
2, 43920, Note_on_c, 0, 80, 0
2, 43920, Note_on_c, 0, 81, 101
2, 44160, Note_on_c, 0, 81, 0
2, 44160, Note_on_c, 0, 81, 62
2, 44400, Note_on_c, 0, 81, 0
2, 44400, Note_on_c, 0, 84, 62
2, 44580, Note_on_c, 0, 86, 62
2, 44640, Note_on_c, 0, 86, 0
2, 44640, Note_on_c, 0, 84, 0
2, 44640, Control_c, 0, 64, 127
2, 44640, Note_on_c, 0, 84, 62
2, 44760, Note_on_c, 0, 84, 0
2, 44760, Note_on_c, 0, 83, 62
2, 44880, Note_on_c, 0, 83, 0
2, 44880, Note_on_c, 0, 84, 62
2, 45000, Note_on_c, 0, 84, 0
2, 45000, Control_c, 0, 64, 0
2, 45000, Note_on_c, 0, 86, 62
2, 45120, Note_on_c, 0, 86, 0
2, 45120, Note_on_c, 0, 81, 62
2, 45120, Note_on_c, 0, 84, 62
2, 45600, Note_on_c, 0, 84, 0
2, 45600, Note_on_c, 0, 81, 0
2, 45600, Note_on_c, 0, 79, 62
2, 45600, Note_on_c, 0, 83, 62
2, 46080, Note_on_c, 0, 83, 0
2, 46080, Note_on_c, 0, 79, 0
2, 46080, Note_on_c, 0, 95, 62
2, 46200, Note_on_c, 0, 95, 0
2, 46200, Note_on_c, 0, 103, 62
2, 46320, Note_on_c, 0, 103, 0
2, 46320, Note_on_c, 0, 102, 62
2, 46440, Note_on_c, 0, 102, 0
2, 46440, Note_on_c, 0, 100, 62
2, 46560, Note_on_c, 0, 100, 0
2, 46560, Note_on_c, 0, 99, 62
2, 46680, Note_on_c, 0, 99, 0
2, 46680, Note_on_c, 0, 102, 62
2, 46800, Note_on_c, 0, 102, 0
2, 46800, Note_on_c, 0, 100, 62
2, 46920, Note_on_c, 0, 100, 0
2, 46920, Note_on_c, 0, 99, 62
2, 47040, Note_on_c, 0, 99, 0
2, 47040, Note_on_c, 0, 93, 62
2, 47160, Note_on_c, 0, 93, 0
2, 47160, Note_on_c, 0, 96, 62
2, 47280, Note_on_c, 0, 96, 0
2, 47280, Note_on_c, 0, 95, 62
2, 47400, Note_on_c, 0, 95, 0
2, 47400, Note_on_c, 0, 93, 62
2, 47520, Note_on_c, 0, 93, 0
2, 47520, Note_on_c, 0, 91, 62
2, 47640, Note_on_c, 0, 91, 0
2, 47640, Note_on_c, 0, 95, 62
2, 47760, Note_on_c, 0, 95, 0
2, 47760, Note_on_c, 0, 93, 62
2, 47880, Note_on_c, 0, 93, 0
2, 47880, Note_on_c, 0, 91, 62
2, 48000, Note_on_c, 0, 91, 0
2, 48000, Note_on_c, 0, 90, 62
2, 48120, Note_on_c, 0, 90, 0
2, 48120, Note_on_c, 0, 93, 62
2, 48240, Note_on_c, 0, 93, 0
2, 48240, Note_on_c, 0, 91, 62
2, 48360, Note_on_c, 0, 91, 0
2, 48360, Note_on_c, 0, 90, 62
2, 48480, Note_on_c, 0, 90, 0
2, 48480, Note_on_c, 0, 88, 62
2, 48600, Note_on_c, 0, 88, 0
2, 48600, Note_on_c, 0, 91, 62
2, 48720, Note_on_c, 0, 91, 0
2, 48720, Note_on_c, 0, 90, 62
2, 48840, Note_on_c, 0, 90, 0
2, 48840, Note_on_c, 0, 88, 62
2, 48960, Note_on_c, 0, 88, 0
2, 48960, Note_on_c, 0, 87, 62
2, 49080, Note_on_c, 0, 87, 0
2, 49080, Note_on_c, 0, 83, 62
2, 49200, Note_on_c, 0, 83, 0
2, 49200, Note_on_c, 0, 87, 62
2, 49320, Note_on_c, 0, 87, 0
2, 49320, Note_on_c, 0, 90, 62
2, 49440, Note_on_c, 0, 90, 0
2, 49440, Note_on_c, 0, 95, 62
2, 49560, Note_on_c, 0, 95, 0
2, 49560, Note_on_c, 0, 95, 62
2, 49680, Note_on_c, 0, 95, 0
2, 49680, Note_on_c, 0, 95, 62
2, 49800, Note_on_c, 0, 95, 0
2, 49800, Note_on_c, 0, 95, 62
2, 49920, Note_on_c, 0, 95, 0
2, 49920, Note_on_c, 0, 93, 62
2, 50040, Note_on_c, 0, 93, 0
2, 50040, Note_on_c, 0, 96, 62
2, 50160, Note_on_c, 0, 96, 0
2, 50160, Note_on_c, 0, 95, 62
2, 50280, Note_on_c, 0, 95, 0
2, 50280, Note_on_c, 0, 93, 62
2, 50400, Note_on_c, 0, 93, 0
2, 50400, Note_on_c, 0, 91, 62
2, 50520, Note_on_c, 0, 91, 0
2, 50520, Note_on_c, 0, 95, 62
2, 50640, Note_on_c, 0, 95, 0
2, 50640, Note_on_c, 0, 93, 62
2, 50760, Note_on_c, 0, 93, 0
2, 50760, Note_on_c, 0, 91, 62
2, 50880, Note_on_c, 0, 91, 0
2, 50880, Note_on_c, 0, 90, 62
2, 51000, Note_on_c, 0, 90, 0
2, 51000, Note_on_c, 0, 93, 62
2, 51120, Note_on_c, 0, 93, 0
2, 51120, Note_on_c, 0, 91, 62
2, 51240, Note_on_c, 0, 91, 0
2, 51240, Note_on_c, 0, 90, 62
2, 51360, Note_on_c, 0, 90, 0
2, 51360, Note_on_c, 0, 88, 62
2, 51480, Note_on_c, 0, 88, 0
2, 51480, Note_on_c, 0, 91, 62
2, 51600, Note_on_c, 0, 91, 0
2, 51600, Note_on_c, 0, 90, 62
2, 51720, Note_on_c, 0, 90, 0
2, 51720, Note_on_c, 0, 88, 62
2, 51840, Note_on_c, 0, 88, 0
2, 51840, Note_on_c, 0, 87, 62
2, 51960, Note_on_c, 0, 87, 0
2, 51960, Note_on_c, 0, 83, 62
2, 52080, Note_on_c, 0, 83, 0
2, 52080, Note_on_c, 0, 87, 62
2, 52200, Note_on_c, 0, 87, 0
2, 52200, Note_on_c, 0, 90, 62
2, 52320, Note_on_c, 0, 90, 0
2, 52320, Note_on_c, 0, 95, 62
2, 52440, Note_on_c, 0, 95, 0
2, 52440, Note_on_c, 0, 99, 62
2, 52560, Note_on_c, 0, 99, 0
2, 52560, Note_on_c, 0, 102, 62
2, 52680, Note_on_c, 0, 102, 0
2, 52680, Note_on_c, 0, 95, 62
2, 52740, Note_on_c, 0, 102, 62
2, 52800, Note_on_c, 0, 102, 0
2, 52800, Note_on_c, 0, 95, 0
2, 52800, Note_on_c, 0, 100, 62
2, 52823, Note_on_c, 0, 100, 0
2, 53040, Note_on_c, 0, 99, 62
2, 53160, Note_on_c, 0, 99, 0
2, 53160, Note_on_c, 0, 102, 62
2, 53280, Note_on_c, 0, 102, 0
2, 53280, Note_on_c, 0, 100, 62
2, 53520, Note_on_c, 0, 100, 0
2, 53760, Note_on_c, 0, 83, 101
2, 53880, Note_on_c, 0, 83, 0
2, 53880, Note_on_c, 0, 91, 101
2, 54000, Note_on_c, 0, 91, 0
2, 54000, Note_on_c, 0, 90, 101
2, 54120, Note_on_c, 0, 90, 0
2, 54120, Note_on_c, 0, 88, 101
2, 54240, Note_on_c, 0, 88, 0
2, 54240, Note_on_c, 0, 87, 101
2, 54360, Note_on_c, 0, 87, 0
2, 54360, Note_on_c, 0, 90, 101
2, 54480, Note_on_c, 0, 90, 0
2, 54480, Note_on_c, 0, 88, 101
2, 54600, Note_on_c, 0, 88, 0
2, 54600, Note_on_c, 0, 87, 101
2, 54720, Note_on_c, 0, 87, 0
2, 54720, Note_on_c, 0, 81, 101
2, 54840, Note_on_c, 0, 81, 0
2, 54840, Note_on_c, 0, 84, 101
2, 54960, Note_on_c, 0, 84, 0
2, 54960, Note_on_c, 0, 83, 101
2, 55080, Note_on_c, 0, 83, 0
2, 55080, Note_on_c, 0, 81, 101
2, 55200, Note_on_c, 0, 81, 0
2, 55200, Note_on_c, 0, 79, 101
2, 55320, Note_on_c, 0, 79, 0
2, 55320, Note_on_c, 0, 83, 101
2, 55440, Note_on_c, 0, 83, 0
2, 55440, Note_on_c, 0, 81, 101
2, 55560, Note_on_c, 0, 81, 0
2, 55560, Note_on_c, 0, 79, 101
2, 55680, Note_on_c, 0, 79, 0
2, 55680, Note_on_c, 0, 78, 101
2, 55800, Note_on_c, 0, 78, 0
2, 55800, Note_on_c, 0, 81, 101
2, 55920, Note_on_c, 0, 81, 0
2, 55920, Note_on_c, 0, 79, 101
2, 56040, Note_on_c, 0, 79, 0
2, 56040, Note_on_c, 0, 78, 101
2, 56160, Note_on_c, 0, 78, 0
2, 56160, Note_on_c, 0, 76, 101
2, 56280, Note_on_c, 0, 76, 0
2, 56280, Note_on_c, 0, 79, 101
2, 56400, Note_on_c, 0, 79, 0
2, 56400, Note_on_c, 0, 78, 101
2, 56520, Note_on_c, 0, 78, 0
2, 56520, Note_on_c, 0, 76, 101
2, 56640, Note_on_c, 0, 76, 0
2, 56640, Note_on_c, 0, 75, 101
2, 56760, Note_on_c, 0, 75, 0
2, 56760, Note_on_c, 0, 71, 101
2, 56880, Note_on_c, 0, 71, 0
2, 56880, Note_on_c, 0, 75, 101
2, 57000, Note_on_c, 0, 75, 0
2, 57000, Note_on_c, 0, 78, 101
2, 57120, Note_on_c, 0, 78, 0
2, 57120, Note_on_c, 0, 83, 101
2, 57240, Note_on_c, 0, 83, 0
2, 57240, Note_on_c, 0, 83, 101
2, 57360, Note_on_c, 0, 83, 0
2, 57360, Note_on_c, 0, 83, 101
2, 57480, Note_on_c, 0, 83, 0
2, 57480, Note_on_c, 0, 83, 101
2, 57600, Note_on_c, 0, 83, 0
2, 57600, Note_on_c, 0, 81, 101
2, 57720, Note_on_c, 0, 81, 0
2, 57720, Note_on_c, 0, 84, 101
2, 57840, Note_on_c, 0, 84, 0
2, 57840, Note_on_c, 0, 83, 101
2, 57960, Note_on_c, 0, 83, 0
2, 57960, Note_on_c, 0, 81, 101
2, 58080, Note_on_c, 0, 81, 0
2, 58080, Note_on_c, 0, 79, 101
2, 58200, Note_on_c, 0, 79, 0
2, 58200, Note_on_c, 0, 83, 101
2, 58320, Note_on_c, 0, 83, 0
2, 58320, Note_on_c, 0, 81, 101
2, 58440, Note_on_c, 0, 81, 0
2, 58440, Note_on_c, 0, 79, 101
2, 58560, Note_on_c, 0, 79, 0
2, 58560, Note_on_c, 0, 78, 101
2, 58680, Note_on_c, 0, 78, 0
2, 58680, Note_on_c, 0, 81, 101
2, 58800, Note_on_c, 0, 81, 0
2, 58800, Note_on_c, 0, 79, 101
2, 58920, Note_on_c, 0, 79, 0
2, 58920, Note_on_c, 0, 78, 101
2, 59040, Note_on_c, 0, 78, 0
2, 59040, Note_on_c, 0, 76, 101
2, 59160, Note_on_c, 0, 76, 0
2, 59160, Note_on_c, 0, 79, 101
2, 59280, Note_on_c, 0, 79, 0
2, 59280, Note_on_c, 0, 78, 101
2, 59400, Note_on_c, 0, 78, 0
2, 59400, Note_on_c, 0, 76, 101
2, 59520, Note_on_c, 0, 76, 0
2, 59520, Note_on_c, 0, 75, 101
2, 59640, Note_on_c, 0, 75, 0
2, 59640, Note_on_c, 0, 71, 101
2, 59760, Note_on_c, 0, 71, 0
2, 59760, Note_on_c, 0, 75, 101
2, 59880, Note_on_c, 0, 75, 0
2, 59880, Note_on_c, 0, 78, 101
2, 60000, Note_on_c, 0, 78, 0
2, 60000, Note_on_c, 0, 83, 101
2, 60120, Note_on_c, 0, 83, 0
2, 60120, Note_on_c, 0, 87, 101
2, 60240, Note_on_c, 0, 87, 0
2, 60240, Note_on_c, 0, 90, 101
2, 60360, Note_on_c, 0, 90, 0
2, 60360, Note_on_c, 0, 83, 101
2, 60420, Note_on_c, 0, 90, 101
2, 60480, Note_on_c, 0, 90, 0
2, 60480, Note_on_c, 0, 83, 0
2, 60480, Note_on_c, 0, 88, 101
2, 60503, Note_on_c, 0, 88, 0
2, 60720, Note_on_c, 0, 87, 101
2, 60840, Note_on_c, 0, 87, 0
2, 60840, Note_on_c, 0, 90, 101
2, 60960, Note_on_c, 0, 90, 0
2, 60960, Note_on_c, 0, 88, 101
2, 61200, Note_on_c, 0, 88, 0
2, 61200, Note_on_c, 0, 82, 101
2, 61320, Note_on_c, 0, 82, 0
2, 61320, Note_on_c, 0, 85, 101
2, 61440, Note_on_c, 0, 85, 0
2, 61440, Note_on_c, 0, 83, 114
2, 61500, Note_on_c, 0, 83, 0
2, 61500, Note_on_c, 0, 85, 114
2, 61560, Note_on_c, 0, 85, 0
2, 61560, Note_on_c, 0, 83, 114
2, 61920, Note_on_c, 0, 83, 0
2, 61920, Note_on_c, 0, 76, 75
2, 61920, Note_on_c, 0, 80, 75
2, 61943, Note_on_c, 0, 80, 0
2, 61943, Note_on_c, 0, 76, 0
2, 62160, Note_on_c, 0, 80, 75
2, 62160, Note_on_c, 0, 83, 75
2, 62183, Note_on_c, 0, 83, 0
2, 62183, Note_on_c, 0, 80, 0
2, 62400, Note_on_c, 0, 76, 75
2, 62400, Note_on_c, 0, 80, 75
2, 62423, Note_on_c, 0, 80, 0
2, 62423, Note_on_c, 0, 76, 0
2, 62640, Note_on_c, 0, 80, 75
2, 62640, Note_on_c, 0, 83, 75
2, 62663, Note_on_c, 0, 83, 0
2, 62663, Note_on_c, 0, 80, 0
2, 62880, Note_on_c, 0, 76, 75
2, 62880, Note_on_c, 0, 80, 75
2, 62903, Note_on_c, 0, 80, 0
2, 62903, Note_on_c, 0, 76, 0
2, 63120, Note_on_c, 0, 80, 75
2, 63120, Note_on_c, 0, 83, 75
2, 63143, Note_on_c, 0, 83, 0
2, 63143, Note_on_c, 0, 80, 0
2, 63360, Note_on_c, 0, 85, 101
2, 63420, Note_on_c, 0, 85, 0
2, 63420, Note_on_c, 0, 87, 101
2, 63480, Note_on_c, 0, 87, 0
2, 63480, Note_on_c, 0, 85, 101
2, 63840, Note_on_c, 0, 85, 0
2, 63840, Note_on_c, 0, 78, 75
2, 63840, Note_on_c, 0, 81, 75
2, 63863, Note_on_c, 0, 81, 0
2, 63863, Note_on_c, 0, 78, 0
2, 64080, Note_on_c, 0, 81, 75
2, 64080, Note_on_c, 0, 85, 75
2, 64103, Note_on_c, 0, 85, 0
2, 64103, Note_on_c, 0, 81, 0
2, 64320, Note_on_c, 0, 83, 101
2, 64380, Note_on_c, 0, 83, 0
2, 64380, Note_on_c, 0, 85, 101
2, 64440, Note_on_c, 0, 85, 0
2, 64440, Note_on_c, 0, 83, 101
2, 64800, Note_on_c, 0, 83, 0
2, 64800, Note_on_c, 0, 76, 75
2, 64800, Note_on_c, 0, 80, 75
2, 64823, Note_on_c, 0, 80, 0
2, 64823, Note_on_c, 0, 76, 0
2, 65040, Note_on_c, 0, 80, 75
2, 65040, Note_on_c, 0, 83, 75
2, 65063, Note_on_c, 0, 83, 0
2, 65063, Note_on_c, 0, 80, 0
2, 65280, Note_on_c, 0, 81, 101
2, 65340, Note_on_c, 0, 81, 0
2, 65340, Note_on_c, 0, 83, 101
2, 65400, Note_on_c, 0, 83, 0
2, 65400, Note_on_c, 0, 81, 101
2, 65760, Note_on_c, 0, 81, 0
2, 65760, Note_on_c, 0, 75, 75
2, 65760, Note_on_c, 0, 78, 75
2, 65783, Note_on_c, 0, 78, 0
2, 65783, Note_on_c, 0, 75, 0
2, 66000, Note_on_c, 0, 78, 75
2, 66000, Note_on_c, 0, 81, 75
2, 66023, Note_on_c, 0, 81, 0
2, 66023, Note_on_c, 0, 78, 0
2, 66240, Note_on_c, 0, 80, 101
2, 66300, Note_on_c, 0, 80, 0
2, 66300, Note_on_c, 0, 81, 101
2, 66360, Note_on_c, 0, 81, 0
2, 66360, Note_on_c, 0, 80, 101
2, 66720, Note_on_c, 0, 80, 0
2, 66720, Note_on_c, 0, 73, 75
2, 66720, Note_on_c, 0, 76, 75
2, 66743, Note_on_c, 0, 76, 0
2, 66743, Note_on_c, 0, 73, 0
2, 66960, Note_on_c, 0, 76, 75
2, 66960, Note_on_c, 0, 80, 75
2, 66983, Note_on_c, 0, 80, 0
2, 66983, Note_on_c, 0, 76, 0
2, 67200, Note_on_c, 0, 81, 62
2, 67320, Note_on_c, 0, 81, 0
2, 67320, Note_on_c, 0, 80, 62
2, 67440, Note_on_c, 0, 80, 0
2, 67440, Note_on_c, 0, 78, 62
2, 67560, Note_on_c, 0, 78, 0
2, 67560, Note_on_c, 0, 76, 62
2, 67680, Note_on_c, 0, 76, 0
2, 67680, Note_on_c, 0, 75, 62
2, 67800, Note_on_c, 0, 75, 0
2, 67800, Note_on_c, 0, 71, 62
2, 67920, Note_on_c, 0, 71, 0
2, 67920, Note_on_c, 0, 73, 62
2, 68040, Note_on_c, 0, 73, 0
2, 68040, Note_on_c, 0, 75, 62
2, 68160, Note_on_c, 0, 75, 0
2, 68160, Note_on_c, 0, 76, 75
2, 68280, Note_on_c, 0, 76, 0
2, 68280, Note_on_c, 0, 83, 75
2, 68400, Note_on_c, 0, 83, 0
2, 68400, Note_on_c, 0, 85, 75
2, 68520, Note_on_c, 0, 85, 0
2, 68520, Note_on_c, 0, 87, 75
2, 68640, Note_on_c, 0, 87, 0
2, 68640, Note_on_c, 0, 88, 88
2, 68760, Note_on_c, 0, 88, 0
2, 68760, Note_on_c, 0, 90, 88
2, 68880, Note_on_c, 0, 90, 0
2, 68880, Note_on_c, 0, 92, 88
2, 69000, Note_on_c, 0, 92, 0
2, 69000, Note_on_c, 0, 93, 88
2, 69120, Note_on_c, 0, 93, 0
2, 69120, Note_on_c, 0, 95, 114
2, 69180, Note_on_c, 0, 95, 0
2, 69180, Note_on_c, 0, 97, 114
2, 69240, Note_on_c, 0, 97, 0
2, 69240, Note_on_c, 0, 92, 114
2, 69240, Note_on_c, 0, 95, 114
2, 69600, Note_on_c, 0, 95, 0
2, 69600, Note_on_c, 0, 92, 0
2, 69600, Note_on_c, 0, 88, 75
2, 69600, Note_on_c, 0, 92, 75
2, 69623, Note_on_c, 0, 92, 0
2, 69623, Note_on_c, 0, 88, 0
2, 69840, Note_on_c, 0, 92, 75
2, 69840, Note_on_c, 0, 95, 75
2, 69863, Note_on_c, 0, 95, 0
2, 69863, Note_on_c, 0, 92, 0
2, 70080, Note_on_c, 0, 88, 75
2, 70080, Note_on_c, 0, 92, 75
2, 70103, Note_on_c, 0, 92, 0
2, 70103, Note_on_c, 0, 88, 0
2, 70320, Note_on_c, 0, 92, 75
2, 70320, Note_on_c, 0, 95, 75
2, 70343, Note_on_c, 0, 95, 0
2, 70343, Note_on_c, 0, 92, 0
2, 70560, Note_on_c, 0, 88, 75
2, 70560, Note_on_c, 0, 92, 75
2, 70583, Note_on_c, 0, 92, 0
2, 70583, Note_on_c, 0, 88, 0
2, 70800, Note_on_c, 0, 92, 75
2, 70800, Note_on_c, 0, 95, 75
2, 70823, Note_on_c, 0, 95, 0
2, 70823, Note_on_c, 0, 92, 0
2, 71040, Note_on_c, 0, 97, 101
2, 71100, Note_on_c, 0, 97, 0
2, 71100, Note_on_c, 0, 99, 101
2, 71160, Note_on_c, 0, 99, 0
2, 71160, Note_on_c, 0, 93, 101
2, 71160, Note_on_c, 0, 97, 101
2, 71520, Note_on_c, 0, 97, 0
2, 71520, Note_on_c, 0, 93, 0
2, 71520, Note_on_c, 0, 90, 75
2, 71520, Note_on_c, 0, 93, 75
2, 71543, Note_on_c, 0, 93, 0
2, 71543, Note_on_c, 0, 90, 0
2, 71760, Note_on_c, 0, 93, 75
2, 71760, Note_on_c, 0, 97, 75
2, 71783, Note_on_c, 0, 97, 0
2, 71783, Note_on_c, 0, 93, 0
2, 72000, Note_on_c, 0, 95, 101
2, 72060, Note_on_c, 0, 95, 0
2, 72060, Note_on_c, 0, 97, 101
2, 72120, Note_on_c, 0, 97, 0
2, 72120, Note_on_c, 0, 92, 101
2, 72120, Note_on_c, 0, 95, 101
2, 72480, Note_on_c, 0, 95, 0
2, 72480, Note_on_c, 0, 92, 0
2, 72480, Note_on_c, 0, 88, 75
2, 72480, Note_on_c, 0, 92, 75
2, 72503, Note_on_c, 0, 92, 0
2, 72503, Note_on_c, 0, 88, 0
2, 72720, Note_on_c, 0, 92, 75
2, 72720, Note_on_c, 0, 95, 75
2, 72743, Note_on_c, 0, 95, 0
2, 72743, Note_on_c, 0, 92, 0
2, 72960, Note_on_c, 0, 93, 101
2, 73020, Note_on_c, 0, 93, 0
2, 73020, Note_on_c, 0, 95, 101
2, 73080, Note_on_c, 0, 95, 0
2, 73080, Note_on_c, 0, 90, 101
2, 73080, Note_on_c, 0, 93, 101
2, 73440, Note_on_c, 0, 93, 0
2, 73440, Note_on_c, 0, 90, 0
2, 73440, Note_on_c, 0, 87, 75
2, 73440, Note_on_c, 0, 90, 75
2, 73463, Note_on_c, 0, 90, 0
2, 73463, Note_on_c, 0, 87, 0
2, 73680, Note_on_c, 0, 90, 75
2, 73680, Note_on_c, 0, 93, 75
2, 73703, Note_on_c, 0, 93, 0
2, 73703, Note_on_c, 0, 90, 0
2, 73920, Note_on_c, 0, 92, 101
2, 73980, Note_on_c, 0, 92, 0
2, 73980, Note_on_c, 0, 93, 101
2, 74040, Note_on_c, 0, 93, 0
2, 74040, Note_on_c, 0, 88, 101
2, 74040, Note_on_c, 0, 92, 101
2, 74400, Note_on_c, 0, 92, 0
2, 74400, Note_on_c, 0, 88, 0
2, 74400, Note_on_c, 0, 85, 75
2, 74400, Note_on_c, 0, 88, 75
2, 74423, Note_on_c, 0, 88, 0
2, 74423, Note_on_c, 0, 85, 0
2, 74640, Note_on_c, 0, 88, 75
2, 74640, Note_on_c, 0, 92, 75
2, 74663, Note_on_c, 0, 92, 0
2, 74663, Note_on_c, 0, 88, 0
2, 74880, Note_on_c, 0, 93, 62
2, 75000, Note_on_c, 0, 93, 0
2, 75000, Note_on_c, 0, 92, 62
2, 75120, Note_on_c, 0, 92, 0
2, 75120, Note_on_c, 0, 90, 62
2, 75240, Note_on_c, 0, 90, 0
2, 75240, Note_on_c, 0, 88, 62
2, 75360, Note_on_c, 0, 88, 0
2, 75360, Note_on_c, 0, 87, 62
2, 75480, Note_on_c, 0, 87, 0
2, 75480, Note_on_c, 0, 83, 62
2, 75600, Note_on_c, 0, 83, 0
2, 75600, Note_on_c, 0, 85, 62
2, 75720, Note_on_c, 0, 85, 0
2, 75720, Note_on_c, 0, 87, 62
2, 75840, Note_on_c, 0, 87, 0
2, 75840, Note_on_c, 0, 88, 62
2, 75960, Note_on_c, 0, 88, 0
2, 75960, Note_on_c, 0, 83, 62
2, 76080, Note_on_c, 0, 83, 0
2, 76080, Note_on_c, 0, 85, 62
2, 76200, Note_on_c, 0, 85, 0
2, 76200, Note_on_c, 0, 87, 62
2, 76320, Note_on_c, 0, 87, 0
2, 76320, Note_on_c, 0, 88, 62
2, 76440, Note_on_c, 0, 88, 0
2, 76440, Note_on_c, 0, 87, 62
2, 76560, Note_on_c, 0, 87, 0
2, 76560, Note_on_c, 0, 88, 62
2, 76680, Note_on_c, 0, 88, 0
2, 76680, Note_on_c, 0, 90, 62
2, 76800, Note_on_c, 0, 90, 0
2, 76800, Note_on_c, 0, 92, 75
2, 76860, Note_on_c, 0, 92, 0
2, 76860, Note_on_c, 0, 94, 75
2, 76920, Note_on_c, 0, 94, 0
2, 76920, Note_on_c, 0, 88, 75
2, 76920, Note_on_c, 0, 92, 75
2, 77280, Note_on_c, 0, 92, 0
2, 77280, Note_on_c, 0, 88, 0
2, 77280, Note_on_c, 0, 76, 75
2, 77280, Note_on_c, 0, 80, 75
2, 77303, Note_on_c, 0, 80, 0
2, 77303, Note_on_c, 0, 76, 0
2, 77520, Note_on_c, 0, 88, 75
2, 77520, Note_on_c, 0, 92, 75
2, 77543, Note_on_c, 0, 92, 0
2, 77543, Note_on_c, 0, 88, 0
2, 77760, Note_on_c, 0, 90, 75
2, 77820, Note_on_c, 0, 90, 0
2, 77820, Note_on_c, 0, 92, 75
2, 77880, Note_on_c, 0, 92, 0
2, 77880, Note_on_c, 0, 90, 75
2, 78240, Note_on_c, 0, 90, 0
2, 78240, Note_on_c, 0, 75, 75
2, 78240, Note_on_c, 0, 78, 75
2, 78263, Note_on_c, 0, 78, 0
2, 78263, Note_on_c, 0, 75, 0
2, 78480, Note_on_c, 0, 87, 75
2, 78480, Note_on_c, 0, 90, 75
2, 78503, Note_on_c, 0, 90, 0
2, 78503, Note_on_c, 0, 87, 0
2, 78720, Note_on_c, 0, 88, 75
2, 78780, Note_on_c, 0, 88, 0
2, 78780, Note_on_c, 0, 90, 75
2, 78840, Note_on_c, 0, 90, 0
2, 78840, Note_on_c, 0, 88, 75
2, 79200, Note_on_c, 0, 88, 0
2, 79200, Note_on_c, 0, 73, 75
2, 79200, Note_on_c, 0, 76, 75
2, 79223, Note_on_c, 0, 76, 0
2, 79223, Note_on_c, 0, 73, 0
2, 79440, Note_on_c, 0, 85, 75
2, 79440, Note_on_c, 0, 88, 75
2, 79463, Note_on_c, 0, 88, 0
2, 79463, Note_on_c, 0, 85, 0
2, 79680, Note_on_c, 0, 83, 75
2, 79800, Note_on_c, 0, 83, 0
2, 79800, Note_on_c, 0, 85, 75
2, 79920, Note_on_c, 0, 85, 0
2, 79920, Note_on_c, 0, 83, 75
2, 79920, Note_on_c, 0, 87, 75
2, 80400, Note_on_c, 0, 87, 0
2, 80400, Note_on_c, 0, 83, 0
2, 80400, Note_on_c, 0, 83, 75
2, 80400, Note_on_c, 0, 87, 75
2, 80640, Note_on_c, 0, 87, 0
2, 80640, Note_on_c, 0, 83, 0
2, 80640, Note_on_c, 0, 97, 75
2, 80700, Note_on_c, 0, 97, 0
2, 80700, Note_on_c, 0, 99, 75
2, 80760, Note_on_c, 0, 99, 0
2, 80760, Note_on_c, 0, 93, 75
2, 80760, Note_on_c, 0, 97, 75
2, 81120, Note_on_c, 0, 97, 0
2, 81120, Note_on_c, 0, 93, 0
2, 81120, Note_on_c, 0, 81, 75
2, 81120, Note_on_c, 0, 85, 75
2, 81143, Note_on_c, 0, 85, 0
2, 81143, Note_on_c, 0, 81, 0
2, 81360, Note_on_c, 0, 93, 75
2, 81360, Note_on_c, 0, 97, 75
2, 81383, Note_on_c, 0, 97, 0
2, 81383, Note_on_c, 0, 93, 0
2, 81600, Note_on_c, 0, 95, 75
2, 81660, Note_on_c, 0, 95, 0
2, 81660, Note_on_c, 0, 97, 75
2, 81720, Note_on_c, 0, 97, 0
2, 81720, Note_on_c, 0, 92, 75
2, 81720, Note_on_c, 0, 95, 75
2, 82080, Note_on_c, 0, 95, 0
2, 82080, Note_on_c, 0, 92, 0
2, 82080, Note_on_c, 0, 80, 75
2, 82080, Note_on_c, 0, 83, 75
2, 82103, Note_on_c, 0, 83, 0
2, 82103, Note_on_c, 0, 80, 0
2, 82320, Note_on_c, 0, 92, 75
2, 82320, Note_on_c, 0, 95, 75
2, 82343, Note_on_c, 0, 95, 0
2, 82343, Note_on_c, 0, 92, 0
2, 82560, Note_on_c, 0, 93, 75
2, 82620, Note_on_c, 0, 93, 0
2, 82620, Note_on_c, 0, 95, 75
2, 82680, Note_on_c, 0, 95, 0
2, 82680, Note_on_c, 0, 90, 75
2, 82680, Note_on_c, 0, 93, 75
2, 83040, Note_on_c, 0, 93, 0
2, 83040, Note_on_c, 0, 90, 0
2, 83040, Note_on_c, 0, 78, 75
2, 83040, Note_on_c, 0, 81, 75
2, 83063, Note_on_c, 0, 81, 0
2, 83063, Note_on_c, 0, 78, 0
2, 83280, Note_on_c, 0, 90, 75
2, 83280, Note_on_c, 0, 93, 75
2, 83303, Note_on_c, 0, 93, 0
2, 83303, Note_on_c, 0, 90, 0
2, 83520, Note_on_c, 0, 88, 75
2, 83640, Note_on_c, 0, 88, 0
2, 83640, Note_on_c, 0, 90, 75
2, 83760, Note_on_c, 0, 90, 0
2, 83760, Note_on_c, 0, 88, 88
2, 83760, Note_on_c, 0, 92, 88
2, 84240, Note_on_c, 0, 92, 0
2, 84240, Note_on_c, 0, 88, 0
2, 84240, Note_on_c, 0, 88, 88
2, 84240, Note_on_c, 0, 92, 88
2, 84480, Note_on_c, 0, 92, 0
2, 84480, Note_on_c, 0, 88, 0
2, 84480, Note_on_c, 0, 93, 88
2, 84600, Note_on_c, 0, 93, 0
2, 84600, Note_on_c, 0, 92, 88
2, 84720, Note_on_c, 0, 92, 0
2, 84720, Note_on_c, 0, 90, 88
2, 84840, Note_on_c, 0, 90, 0
2, 84840, Note_on_c, 0, 88, 88
2, 84960, Note_on_c, 0, 88, 0
2, 84960, Note_on_c, 0, 87, 88
2, 85080, Note_on_c, 0, 87, 0
2, 85080, Note_on_c, 0, 83, 88
2, 85200, Note_on_c, 0, 83, 0
2, 85200, Note_on_c, 0, 85, 88
2, 85320, Note_on_c, 0, 85, 0
2, 85320, Note_on_c, 0, 87, 88
2, 85440, Note_on_c, 0, 87, 0
2, 85440, Note_on_c, 0, 88, 88
2, 85560, Note_on_c, 0, 88, 0
2, 85560, Note_on_c, 0, 90, 88
2, 85680, Note_on_c, 0, 90, 0
2, 85680, Note_on_c, 0, 92, 88
2, 85800, Note_on_c, 0, 92, 0
2, 85800, Note_on_c, 0, 93, 88
2, 85920, Note_on_c, 0, 93, 0
2, 85920, Note_on_c, 0, 95, 88
2, 86040, Note_on_c, 0, 95, 0
2, 86040, Note_on_c, 0, 92, 88
2, 86160, Note_on_c, 0, 92, 0
2, 86160, Note_on_c, 0, 90, 88
2, 86280, Note_on_c, 0, 90, 0
2, 86280, Note_on_c, 0, 88, 88
2, 86400, Note_on_c, 0, 88, 0
2, 86400, Note_on_c, 0, 93, 88
2, 86520, Note_on_c, 0, 93, 0
2, 86520, Note_on_c, 0, 92, 88
2, 86640, Note_on_c, 0, 92, 0
2, 86640, Note_on_c, 0, 90, 88
2, 86760, Note_on_c, 0, 90, 0
2, 86760, Note_on_c, 0, 88, 88
2, 86880, Note_on_c, 0, 88, 0
2, 86880, Note_on_c, 0, 87, 88
2, 87000, Note_on_c, 0, 87, 0
2, 87000, Note_on_c, 0, 83, 88
2, 87120, Note_on_c, 0, 83, 0
2, 87120, Note_on_c, 0, 85, 88
2, 87240, Note_on_c, 0, 85, 0
2, 87240, Note_on_c, 0, 87, 88
2, 87360, Note_on_c, 0, 87, 0
2, 87360, Note_on_c, 0, 88, 88
2, 87480, Note_on_c, 0, 88, 0
2, 87480, Note_on_c, 0, 90, 88
2, 87600, Note_on_c, 0, 90, 0
2, 87600, Note_on_c, 0, 92, 88
2, 87720, Note_on_c, 0, 92, 0
2, 87720, Note_on_c, 0, 95, 88
2, 87840, Note_on_c, 0, 95, 0
2, 87840, Note_on_c, 0, 100, 88
2, 87960, Note_on_c, 0, 100, 0
2, 87960, Note_on_c, 0, 95, 88
2, 88080, Note_on_c, 0, 95, 0
2, 88080, Note_on_c, 0, 93, 88
2, 88200, Note_on_c, 0, 93, 0
2, 88200, Note_on_c, 0, 92, 88
2, 88320, Note_on_c, 0, 92, 0
2, 88320, Note_on_c, 0, 97, 88
2, 88440, Note_on_c, 0, 97, 0
2, 88440, Note_on_c, 0, 95, 88
2, 88560, Note_on_c, 0, 95, 0
2, 88560, Note_on_c, 0, 93, 88
2, 88680, Note_on_c, 0, 93, 0
2, 88680, Note_on_c, 0, 92, 88
2, 88800, Note_on_c, 0, 92, 0
2, 88800, Note_on_c, 0, 93, 88
2, 88920, Note_on_c, 0, 93, 0
2, 88920, Note_on_c, 0, 92, 88
2, 89040, Note_on_c, 0, 92, 0
2, 89040, Note_on_c, 0, 90, 88
2, 89160, Note_on_c, 0, 90, 0
2, 89160, Note_on_c, 0, 88, 88
2, 89280, Note_on_c, 0, 88, 0
2, 89280, Note_on_c, 0, 87, 88
2, 89400, Note_on_c, 0, 87, 0
2, 89400, Note_on_c, 0, 85, 88
2, 89520, Note_on_c, 0, 85, 0
2, 89520, Note_on_c, 0, 83, 88
2, 89640, Note_on_c, 0, 83, 0
2, 89640, Note_on_c, 0, 81, 88
2, 89760, Note_on_c, 0, 81, 0
2, 89760, Note_on_c, 0, 80, 88
2, 89880, Note_on_c, 0, 80, 0
2, 89880, Note_on_c, 0, 78, 88
2, 90000, Note_on_c, 0, 78, 0
2, 90000, Note_on_c, 0, 76, 88
2, 90120, Note_on_c, 0, 76, 0
2, 90120, Note_on_c, 0, 75, 88
2, 90240, Note_on_c, 0, 75, 0
2, 90240, Note_on_c, 0, 76, 88
2, 90480, Note_on_c, 0, 76, 0
2, 90720, Note_on_c, 0, 80, 88
2, 90720, Note_on_c, 0, 83, 88
2, 90720, Note_on_c, 0, 88, 88
2, 90960, Note_on_c, 0, 88, 0
2, 90960, Note_on_c, 0, 83, 0
2, 90960, Note_on_c, 0, 80, 0
2, 91680, Note_on_c, 0, 83, 114
2, 91680, Note_on_c, 0, 88, 114
2, 91680, Note_on_c, 0, 92, 114
2, 91920, Note_on_c, 0, 92, 0
2, 91920, Note_on_c, 0, 88, 0
2, 91920, Note_on_c, 0, 83, 0
2, 92160, Control_c, 0, 64, 127
2, 94560, Control_c, 0, 64, 0
2, 94560, End_track
3, 0, Start_track
3, 0, Title_t, "Instrument17"
3, 0, Program_c, 0, 0
3, 0, Control_c, 0, 7, 110
3, 0, Control_c, 0, 10, 97
3, 3780, Note_on_c, 0, 70, 62
3, 3840, Note_on_c, 0, 70, 0
3, 3840, Note_on_c, 0, 71, 88
3, 4320, Note_on_c, 0, 71, 0
3, 4320, Note_on_c, 0, 71, 62
3, 4343, Note_on_c, 0, 71, 0
3, 4560, Note_on_c, 0, 71, 62
3, 4583, Note_on_c, 0, 71, 0
3, 4740, Note_on_c, 0, 75, 62
3, 4800, Note_on_c, 0, 75, 0
3, 4800, Note_on_c, 0, 76, 88
3, 5280, Note_on_c, 0, 76, 0
3, 5280, Note_on_c, 0, 78, 62
3, 5303, Note_on_c, 0, 78, 0
3, 5520, Note_on_c, 0, 78, 62
3, 5543, Note_on_c, 0, 78, 0
3, 5760, Note_on_c, 0, 74, 62
3, 5783, Note_on_c, 0, 74, 0
3, 6000, Note_on_c, 0, 74, 62
3, 6023, Note_on_c, 0, 74, 0
3, 6240, Note_on_c, 0, 73, 62
3, 6263, Note_on_c, 0, 73, 0
3, 6480, Note_on_c, 0, 73, 62
3, 6600, Note_on_c, 0, 73, 0
3, 6600, Note_on_c, 0, 70, 62
3, 6720, Note_on_c, 0, 70, 0
3, 6720, Control_c, 0, 64, 127
3, 6720, Note_on_c, 0, 71, 88
3, 6840, Note_on_c, 0, 71, 0
3, 6840, Note_on_c, 0, 69, 62
3, 6960, Note_on_c, 0, 69, 0
3, 6960, Note_on_c, 0, 67, 62
3, 7080, Note_on_c, 0, 67, 0
3, 7080, Note_on_c, 0, 66, 62
3, 7200, Note_on_c, 0, 66, 0
3, 7200, Control_c, 0, 64, 0
3, 7200, Note_on_c, 0, 67, 62
3, 7200, Note_on_c, 0, 71, 62
3, 7440, Note_on_c, 0, 71, 0
3, 7440, Note_on_c, 0, 67, 0
3, 11460, Note_on_c, 0, 70, 62
3, 11520, Note_on_c, 0, 70, 0
3, 11520, Note_on_c, 0, 71, 88
3, 12000, Note_on_c, 0, 71, 0
3, 12000, Note_on_c, 0, 71, 62
3, 12023, Note_on_c, 0, 71, 0
3, 12240, Note_on_c, 0, 71, 62
3, 12263, Note_on_c, 0, 71, 0
3, 12420, Note_on_c, 0, 75, 62
3, 12480, Note_on_c, 0, 75, 0
3, 12480, Note_on_c, 0, 76, 88
3, 12960, Note_on_c, 0, 76, 0
3, 12960, Note_on_c, 0, 78, 62
3, 12983, Note_on_c, 0, 78, 0
3, 13200, Note_on_c, 0, 78, 62
3, 13223, Note_on_c, 0, 78, 0
3, 13440, Note_on_c, 0, 74, 62
3, 13463, Note_on_c, 0, 74, 0
3, 13680, Note_on_c, 0, 74, 62
3, 13703, Note_on_c, 0, 74, 0
3, 13920, Note_on_c, 0, 73, 62
3, 13943, Note_on_c, 0, 73, 0
3, 14160, Note_on_c, 0, 73, 62
3, 14280, Note_on_c, 0, 73, 0
3, 14280, Note_on_c, 0, 70, 62
3, 14400, Note_on_c, 0, 70, 0
3, 14400, Control_c, 0, 64, 127
3, 14400, Note_on_c, 0, 71, 88
3, 14520, Note_on_c, 0, 71, 0
3, 14520, Note_on_c, 0, 69, 62
3, 14640, Note_on_c, 0, 69, 0
3, 14640, Note_on_c, 0, 67, 62
3, 14760, Note_on_c, 0, 67, 0
3, 14760, Note_on_c, 0, 66, 62
3, 14880, Note_on_c, 0, 66, 0
3, 14880, Control_c, 0, 64, 0
3, 14880, Note_on_c, 0, 67, 62
3, 14880, Note_on_c, 0, 71, 62
3, 15120, Note_on_c, 0, 71, 0
3, 15120, Note_on_c, 0, 67, 0
3, 15360, Note_on_c, 0, 66, 62
3, 15375, Note_on_c, 0, 66, 0
3, 15480, Note_on_c, 0, 67, 62
3, 15495, Note_on_c, 0, 67, 0
3, 15600, Note_on_c, 0, 69, 62
3, 15623, Note_on_c, 0, 69, 0
3, 16080, Note_on_c, 0, 69, 62
3, 16103, Note_on_c, 0, 69, 0
3, 16320, Note_on_c, 0, 71, 62
3, 16680, Note_on_c, 0, 71, 0
3, 16680, Note_on_c, 0, 69, 62
3, 16695, Note_on_c, 0, 69, 0
3, 16740, Note_on_c, 0, 72, 62
3, 16800, Note_on_c, 0, 72, 0
3, 16800, Note_on_c, 0, 71, 62
3, 16815, Note_on_c, 0, 71, 0
3, 16920, Note_on_c, 0, 69, 62
3, 16935, Note_on_c, 0, 69, 0
3, 17040, Note_on_c, 0, 71, 62
3, 17063, Note_on_c, 0, 71, 0
3, 17280, Note_on_c, 0, 66, 75
3, 17280, Note_on_c, 0, 69, 75
3, 17295, Note_on_c, 0, 69, 0
3, 17295, Note_on_c, 0, 66, 0
3, 17400, Note_on_c, 0, 67, 75
3, 17400, Note_on_c, 0, 71, 75
3, 17415, Note_on_c, 0, 71, 0
3, 17415, Note_on_c, 0, 67, 0
3, 17520, Note_on_c, 0, 69, 75
3, 17520, Note_on_c, 0, 72, 75
3, 17543, Note_on_c, 0, 72, 0
3, 17543, Note_on_c, 0, 69, 0
3, 18000, Note_on_c, 0, 69, 75
3, 18023, Note_on_c, 0, 69, 0
3, 18240, Note_on_c, 0, 67, 75
3, 18240, Note_on_c, 0, 71, 75
3, 18600, Note_on_c, 0, 71, 0
3, 18600, Note_on_c, 0, 67, 0
3, 18600, Note_on_c, 0, 66, 75
3, 18600, Note_on_c, 0, 70, 75
3, 18615, Note_on_c, 0, 70, 0
3, 18615, Note_on_c, 0, 66, 0
3, 18660, Note_on_c, 0, 72, 75
3, 18720, Note_on_c, 0, 72, 0
3, 18720, Note_on_c, 0, 67, 75
3, 18720, Note_on_c, 0, 71, 75
3, 18735, Note_on_c, 0, 71, 0
3, 18735, Note_on_c, 0, 67, 0
3, 18840, Note_on_c, 0, 66, 75
3, 18840, Note_on_c, 0, 70, 75
3, 18855, Note_on_c, 0, 70, 0
3, 18855, Note_on_c, 0, 66, 0
3, 18960, Note_on_c, 0, 67, 75
3, 18960, Note_on_c, 0, 71, 75
3, 18983, Note_on_c, 0, 71, 0
3, 18983, Note_on_c, 0, 67, 0
3, 19200, Note_on_c, 0, 63, 62
3, 19200, Note_on_c, 0, 66, 62
3, 19215, Note_on_c, 0, 66, 0
3, 19215, Note_on_c, 0, 63, 0
3, 19320, Note_on_c, 0, 64, 62
3, 19320, Note_on_c, 0, 67, 62
3, 19335, Note_on_c, 0, 67, 0
3, 19335, Note_on_c, 0, 64, 0
3, 19440, Note_on_c, 0, 66, 62
3, 19440, Note_on_c, 0, 69, 62
3, 19463, Note_on_c, 0, 69, 0
3, 19463, Note_on_c, 0, 66, 0
3, 19920, Note_on_c, 0, 69, 62
3, 19943, Note_on_c, 0, 69, 0
3, 20160, Note_on_c, 0, 67, 62
3, 20280, Note_on_c, 0, 67, 0
3, 20280, Note_on_c, 0, 66, 62
3, 20400, Note_on_c, 0, 66, 0
3, 20400, Note_on_c, 0, 64, 62
3, 20520, Note_on_c, 0, 64, 0
3, 20520, Note_on_c, 0, 63, 62
3, 20640, Note_on_c, 0, 63, 0
3, 20640, Note_on_c, 0, 64, 62
3, 20760, Note_on_c, 0, 64, 0
3, 20760, Note_on_c, 0, 66, 62
3, 20880, Note_on_c, 0, 66, 0
3, 20880, Note_on_c, 0, 67, 62
3, 21000, Note_on_c, 0, 67, 0
3, 21000, Note_on_c, 0, 69, 62
3, 21120, Note_on_c, 0, 69, 0
3, 21120, Note_on_c, 0, 71, 62
3, 21143, Note_on_c, 0, 71, 0
3, 21840, Note_on_c, 0, 66, 62
3, 21840, Note_on_c, 0, 69, 62
3, 21863, Note_on_c, 0, 69, 0
3, 21863, Note_on_c, 0, 66, 0
3, 22080, Note_on_c, 0, 64, 62
3, 22080, Note_on_c, 0, 67, 62
3, 22103, Note_on_c, 0, 67, 0
3, 22103, Note_on_c, 0, 64, 0
3, 22320, Note_on_c, 0, 66, 62
3, 22320, Note_on_c, 0, 69, 62
3, 22343, Note_on_c, 0, 69, 0
3, 22343, Note_on_c, 0, 66, 0
3, 22560, Note_on_c, 0, 64, 62
3, 22560, Note_on_c, 0, 67, 62
3, 22583, Note_on_c, 0, 67, 0
3, 22583, Note_on_c, 0, 64, 0
3, 23040, Note_on_c, 0, 66, 62
3, 23055, Note_on_c, 0, 66, 0
3, 23160, Note_on_c, 0, 67, 62
3, 23175, Note_on_c, 0, 67, 0
3, 23280, Note_on_c, 0, 69, 62
3, 23303, Note_on_c, 0, 69, 0
3, 23760, Note_on_c, 0, 69, 62
3, 23783, Note_on_c, 0, 69, 0
3, 24000, Note_on_c, 0, 71, 62
3, 24360, Note_on_c, 0, 71, 0
3, 24360, Note_on_c, 0, 69, 62
3, 24375, Note_on_c, 0, 69, 0
3, 24420, Note_on_c, 0, 72, 62
3, 24480, Note_on_c, 0, 72, 0
3, 24480, Note_on_c, 0, 71, 62
3, 24495, Note_on_c, 0, 71, 0
3, 24600, Note_on_c, 0, 69, 62
3, 24615, Note_on_c, 0, 69, 0
3, 24720, Note_on_c, 0, 71, 62
3, 24743, Note_on_c, 0, 71, 0
3, 24960, Note_on_c, 0, 66, 75
3, 24960, Note_on_c, 0, 69, 75
3, 24975, Note_on_c, 0, 69, 0
3, 24975, Note_on_c, 0, 66, 0
3, 25080, Note_on_c, 0, 67, 75
3, 25080, Note_on_c, 0, 71, 75
3, 25095, Note_on_c, 0, 71, 0
3, 25095, Note_on_c, 0, 67, 0
3, 25200, Note_on_c, 0, 69, 75
3, 25200, Note_on_c, 0, 72, 75
3, 25223, Note_on_c, 0, 72, 0
3, 25223, Note_on_c, 0, 69, 0
3, 25680, Note_on_c, 0, 69, 75
3, 25703, Note_on_c, 0, 69, 0
3, 25920, Note_on_c, 0, 67, 75
3, 25920, Note_on_c, 0, 71, 75
3, 26280, Note_on_c, 0, 71, 0
3, 26280, Note_on_c, 0, 67, 0
3, 26280, Note_on_c, 0, 66, 75
3, 26280, Note_on_c, 0, 70, 75
3, 26295, Note_on_c, 0, 70, 0
3, 26295, Note_on_c, 0, 66, 0
3, 26340, Note_on_c, 0, 72, 75
3, 26400, Note_on_c, 0, 72, 0
3, 26400, Note_on_c, 0, 67, 75
3, 26400, Note_on_c, 0, 71, 75
3, 26415, Note_on_c, 0, 71, 0
3, 26415, Note_on_c, 0, 67, 0
3, 26520, Note_on_c, 0, 66, 75
3, 26520, Note_on_c, 0, 70, 75
3, 26535, Note_on_c, 0, 70, 0
3, 26535, Note_on_c, 0, 66, 0
3, 26640, Note_on_c, 0, 67, 75
3, 26640, Note_on_c, 0, 71, 75
3, 26663, Note_on_c, 0, 71, 0
3, 26663, Note_on_c, 0, 67, 0
3, 26880, Note_on_c, 0, 63, 62
3, 26880, Note_on_c, 0, 66, 62
3, 26895, Note_on_c, 0, 66, 0
3, 26895, Note_on_c, 0, 63, 0
3, 27000, Note_on_c, 0, 64, 62
3, 27000, Note_on_c, 0, 67, 62
3, 27015, Note_on_c, 0, 67, 0
3, 27015, Note_on_c, 0, 64, 0
3, 27120, Note_on_c, 0, 66, 62
3, 27120, Note_on_c, 0, 69, 62
3, 27143, Note_on_c, 0, 69, 0
3, 27143, Note_on_c, 0, 66, 0
3, 27600, Note_on_c, 0, 69, 62
3, 27623, Note_on_c, 0, 69, 0
3, 27840, Note_on_c, 0, 67, 62
3, 27960, Note_on_c, 0, 67, 0
3, 27960, Note_on_c, 0, 66, 62
3, 28080, Note_on_c, 0, 66, 0
3, 28080, Note_on_c, 0, 64, 62
3, 28200, Note_on_c, 0, 64, 0
3, 28200, Note_on_c, 0, 63, 62
3, 28320, Note_on_c, 0, 63, 0
3, 28320, Note_on_c, 0, 64, 62
3, 28440, Note_on_c, 0, 64, 0
3, 28440, Note_on_c, 0, 66, 62
3, 28560, Note_on_c, 0, 66, 0
3, 28560, Note_on_c, 0, 67, 62
3, 28680, Note_on_c, 0, 67, 0
3, 28680, Note_on_c, 0, 69, 62
3, 28800, Note_on_c, 0, 69, 0
3, 28800, Note_on_c, 0, 71, 62
3, 28823, Note_on_c, 0, 71, 0
3, 29520, Note_on_c, 0, 66, 62
3, 29520, Note_on_c, 0, 69, 62
3, 29543, Note_on_c, 0, 69, 0
3, 29543, Note_on_c, 0, 66, 0
3, 29760, Note_on_c, 0, 64, 62
3, 29760, Note_on_c, 0, 67, 62
3, 29783, Note_on_c, 0, 67, 0
3, 29783, Note_on_c, 0, 64, 0
3, 30000, Note_on_c, 0, 66, 62
3, 30000, Note_on_c, 0, 69, 62
3, 30023, Note_on_c, 0, 69, 0
3, 30023, Note_on_c, 0, 66, 0
3, 30240, Note_on_c, 0, 64, 62
3, 30240, Note_on_c, 0, 67, 62
3, 30263, Note_on_c, 0, 67, 0
3, 30263, Note_on_c, 0, 64, 0
3, 30660, Note_on_c, 0, 58, 62
3, 30720, Control_c, 0, 64, 127
3, 30720, Note_on_c, 0, 59, 62
3, 30960, Note_on_c, 0, 59, 0
3, 30960, Note_on_c, 0, 58, 0
3, 30960, Note_on_c, 0, 59, 62
3, 31200, Note_on_c, 0, 59, 0
3, 31200, Note_on_c, 0, 59, 75
3, 31440, Note_on_c, 0, 59, 0
3, 31440, Control_c, 0, 64, 0
3, 31440, Note_on_c, 0, 59, 75
3, 31680, Note_on_c, 0, 59, 0
3, 31680, Control_c, 0, 64, 127
3, 31680, Note_on_c, 0, 59, 75
3, 31920, Note_on_c, 0, 59, 0
3, 31920, Note_on_c, 0, 59, 75
3, 32160, Note_on_c, 0, 59, 0
3, 32160, Note_on_c, 0, 59, 88
3, 32400, Note_on_c, 0, 59, 0
3, 32400, Control_c, 0, 64, 0
3, 32400, Note_on_c, 0, 59, 88
3, 32640, Note_on_c, 0, 59, 0
3, 32640, Control_c, 0, 64, 127
3, 32640, Note_on_c, 0, 60, 101
3, 32700, Note_on_c, 0, 60, 0
3, 32700, Note_on_c, 0, 59, 101
3, 32760, Note_on_c, 0, 59, 0
3, 32760, Note_on_c, 0, 57, 101
3, 32820, Note_on_c, 0, 57, 0
3, 32820, Note_on_c, 0, 59, 101
3, 32880, Note_on_c, 0, 59, 0
3, 32880, Control_c, 0, 64, 0
3, 32880, Note_on_c, 0, 67, 101
3, 33360, Note_on_c, 0, 67, 0
3, 33360, Note_on_c, 0, 66, 101
3, 33600, Note_on_c, 0, 66, 0
3, 33600, Note_on_c, 0, 64, 88
3, 34080, Note_on_c, 0, 64, 0
3, 34080, Note_on_c, 0, 63, 75
3, 34500, Note_on_c, 0, 56, 75
3, 34560, Note_on_c, 0, 63, 0
3, 34560, Control_c, 0, 64, 127
3, 34560, Note_on_c, 0, 57, 62
3, 34800, Note_on_c, 0, 57, 0
3, 34800, Note_on_c, 0, 56, 0
3, 34800, Note_on_c, 0, 57, 62
3, 35040, Note_on_c, 0, 57, 0
3, 35040, Note_on_c, 0, 57, 75
3, 35280, Note_on_c, 0, 57, 0
3, 35280, Control_c, 0, 64, 0
3, 35280, Note_on_c, 0, 57, 75
3, 35520, Note_on_c, 0, 57, 0
3, 35520, Control_c, 0, 64, 127
3, 35520, Note_on_c, 0, 57, 75
3, 35760, Note_on_c, 0, 57, 0
3, 35760, Note_on_c, 0, 57, 75
3, 36000, Note_on_c, 0, 57, 0
3, 36000, Note_on_c, 0, 57, 88
3, 36240, Note_on_c, 0, 57, 0
3, 36240, Control_c, 0, 64, 0
3, 36240, Note_on_c, 0, 57, 88
3, 36480, Note_on_c, 0, 57, 0
3, 36480, Note_on_c, 0, 57, 101
3, 36720, Note_on_c, 0, 57, 0
3, 36720, Note_on_c, 0, 60, 101
3, 36900, Note_on_c, 0, 62, 101
3, 36960, Note_on_c, 0, 62, 0
3, 36960, Note_on_c, 0, 60, 0
3, 36960, Control_c, 0, 64, 127
3, 36960, Note_on_c, 0, 60, 101
3, 37080, Note_on_c, 0, 60, 0
3, 37080, Note_on_c, 0, 59, 101
3, 37200, Note_on_c, 0, 59, 0
3, 37200, Note_on_c, 0, 60, 101
3, 37320, Note_on_c, 0, 60, 0
3, 37320, Control_c, 0, 64, 0
3, 37320, Note_on_c, 0, 62, 101
3, 37440, Note_on_c, 0, 62, 0
3, 37440, Note_on_c, 0, 60, 88
3, 37920, Note_on_c, 0, 60, 0
3, 37920, Note_on_c, 0, 59, 75
3, 38340, Note_on_c, 0, 70, 75
3, 38400, Note_on_c, 0, 59, 0
3, 38400, Note_on_c, 0, 71, 75
3, 38640, Note_on_c, 0, 71, 0
3, 38640, Note_on_c, 0, 70, 0
3, 38640, Note_on_c, 0, 71, 75
3, 39060, Note_on_c, 0, 70, 75
3, 39120, Note_on_c, 0, 70, 0
3, 39120, Note_on_c, 0, 71, 0
3, 39120, Note_on_c, 0, 67, 75
3, 39120, Note_on_c, 0, 71, 75
3, 39600, Note_on_c, 0, 71, 0
3, 39600, Note_on_c, 0, 67, 0
3, 39600, Note_on_c, 0, 67, 88
3, 39600, Note_on_c, 0, 71, 88
3, 40020, Note_on_c, 0, 70, 88
3, 40080, Note_on_c, 0, 70, 0
3, 40080, Note_on_c, 0, 71, 0
3, 40080, Note_on_c, 0, 67, 0
3, 40080, Note_on_c, 0, 67, 88
3, 40080, Note_on_c, 0, 71, 88
3, 40560, Note_on_c, 0, 71, 0
3, 40560, Note_on_c, 0, 67, 0
3, 40560, Note_on_c, 0, 71, 101
3, 40560, Note_on_c, 0, 79, 101
3, 41040, Note_on_c, 0, 79, 0
3, 41040, Note_on_c, 0, 71, 0
3, 41040, Note_on_c, 0, 72, 101
3, 41040, Note_on_c, 0, 78, 101
3, 41280, Note_on_c, 0, 78, 0
3, 41280, Note_on_c, 0, 72, 0
3, 41280, Note_on_c, 0, 71, 101
3, 41280, Note_on_c, 0, 83, 101
3, 41520, Note_on_c, 0, 83, 0
3, 41520, Note_on_c, 0, 71, 0
3, 41520, Note_on_c, 0, 73, 101
3, 41520, Note_on_c, 0, 85, 101
3, 41760, Note_on_c, 0, 85, 0
3, 41760, Note_on_c, 0, 73, 0
3, 41760, Note_on_c, 0, 66, 101
3, 41760, Note_on_c, 0, 71, 101
3, 41760, Note_on_c, 0, 75, 101
3, 42180, Note_on_c, 0, 68, 101
3, 42240, Note_on_c, 0, 75, 0
3, 42240, Note_on_c, 0, 66, 0
3, 42240, Note_on_c, 0, 71, 0
3, 42240, Note_on_c, 0, 69, 101
3, 42480, Note_on_c, 0, 69, 0
3, 42480, Note_on_c, 0, 68, 0
3, 42480, Note_on_c, 0, 69, 101
3, 42900, Note_on_c, 0, 68, 101
3, 42960, Note_on_c, 0, 69, 0
3, 42960, Note_on_c, 0, 69, 88
3, 43200, Note_on_c, 0, 68, 0
3, 43380, Note_on_c, 0, 68, 88
3, 43440, Note_on_c, 0, 69, 0
3, 43440, Note_on_c, 0, 69, 88
3, 43920, Note_on_c, 0, 69, 0
3, 43920, Note_on_c, 0, 68, 0
3, 43920, Note_on_c, 0, 69, 101
3, 44160, Note_on_c, 0, 69, 0
3, 44160, Note_on_c, 0, 69, 62
3, 44400, Note_on_c, 0, 69, 0
3, 44400, Note_on_c, 0, 72, 62
3, 44580, Note_on_c, 0, 74, 62
3, 44640, Note_on_c, 0, 74, 0
3, 44640, Note_on_c, 0, 72, 0
3, 44640, Control_c, 0, 64, 127
3, 44640, Note_on_c, 0, 72, 62
3, 44760, Note_on_c, 0, 72, 0
3, 44760, Note_on_c, 0, 71, 62
3, 44880, Note_on_c, 0, 71, 0
3, 44880, Note_on_c, 0, 72, 62
3, 45000, Note_on_c, 0, 72, 0
3, 45000, Control_c, 0, 64, 0
3, 45000, Note_on_c, 0, 74, 62
3, 45120, Note_on_c, 0, 74, 0
3, 45120, Note_on_c, 0, 69, 62
3, 45120, Note_on_c, 0, 72, 62
3, 45600, Note_on_c, 0, 72, 0
3, 45600, Note_on_c, 0, 69, 0
3, 45600, Note_on_c, 0, 67, 62
3, 45600, Note_on_c, 0, 71, 62
3, 46080, Note_on_c, 0, 71, 0
3, 46080, Note_on_c, 0, 67, 0
3, 46080, Note_on_c, 0, 83, 62
3, 46200, Note_on_c, 0, 83, 0
3, 46200, Note_on_c, 0, 91, 62
3, 46320, Note_on_c, 0, 91, 0
3, 46320, Note_on_c, 0, 90, 62
3, 46440, Note_on_c, 0, 90, 0
3, 46440, Note_on_c, 0, 88, 62
3, 46560, Note_on_c, 0, 88, 0
3, 46560, Note_on_c, 0, 87, 62
3, 46680, Note_on_c, 0, 87, 0
3, 46680, Note_on_c, 0, 90, 62
3, 46800, Note_on_c, 0, 90, 0
3, 46800, Note_on_c, 0, 88, 62
3, 46920, Note_on_c, 0, 88, 0
3, 46920, Note_on_c, 0, 87, 62
3, 47040, Note_on_c, 0, 87, 0
3, 47040, Note_on_c, 0, 81, 62
3, 47160, Note_on_c, 0, 81, 0
3, 47160, Note_on_c, 0, 84, 62
3, 47280, Note_on_c, 0, 84, 0
3, 47280, Note_on_c, 0, 83, 62
3, 47400, Note_on_c, 0, 83, 0
3, 47400, Note_on_c, 0, 81, 62
3, 47520, Note_on_c, 0, 81, 0
3, 47520, Note_on_c, 0, 79, 62
3, 47640, Note_on_c, 0, 79, 0
3, 47640, Note_on_c, 0, 83, 62
3, 47760, Note_on_c, 0, 83, 0
3, 47760, Note_on_c, 0, 81, 62
3, 47880, Note_on_c, 0, 81, 0
3, 47880, Note_on_c, 0, 79, 62
3, 48000, Note_on_c, 0, 79, 0
3, 48000, Note_on_c, 0, 78, 62
3, 48120, Note_on_c, 0, 78, 0
3, 48120, Note_on_c, 0, 81, 62
3, 48240, Note_on_c, 0, 81, 0
3, 48240, Note_on_c, 0, 79, 62
3, 48360, Note_on_c, 0, 79, 0
3, 48360, Note_on_c, 0, 78, 62
3, 48480, Note_on_c, 0, 78, 0
3, 48480, Note_on_c, 0, 76, 62
3, 48600, Note_on_c, 0, 76, 0
3, 48600, Note_on_c, 0, 79, 62
3, 48720, Note_on_c, 0, 79, 0
3, 48720, Note_on_c, 0, 78, 62
3, 48840, Note_on_c, 0, 78, 0
3, 48840, Note_on_c, 0, 76, 62
3, 48960, Note_on_c, 0, 76, 0
3, 48960, Note_on_c, 0, 75, 62
3, 49080, Note_on_c, 0, 75, 0
3, 49080, Note_on_c, 0, 71, 62
3, 49200, Note_on_c, 0, 71, 0
3, 49200, Note_on_c, 0, 75, 62
3, 49320, Note_on_c, 0, 75, 0
3, 49320, Note_on_c, 0, 78, 62
3, 49440, Note_on_c, 0, 78, 0
3, 49440, Note_on_c, 0, 83, 62
3, 49560, Note_on_c, 0, 83, 0
3, 49560, Note_on_c, 0, 83, 62
3, 49680, Note_on_c, 0, 83, 0
3, 49680, Note_on_c, 0, 83, 62
3, 49800, Note_on_c, 0, 83, 0
3, 49800, Note_on_c, 0, 83, 62
3, 49920, Note_on_c, 0, 83, 0
3, 49920, Note_on_c, 0, 81, 62
3, 50040, Note_on_c, 0, 81, 0
3, 50040, Note_on_c, 0, 84, 62
3, 50160, Note_on_c, 0, 84, 0
3, 50160, Note_on_c, 0, 83, 62
3, 50280, Note_on_c, 0, 83, 0
3, 50280, Note_on_c, 0, 81, 62
3, 50400, Note_on_c, 0, 81, 0
3, 50400, Note_on_c, 0, 79, 62
3, 50520, Note_on_c, 0, 79, 0
3, 50520, Note_on_c, 0, 83, 62
3, 50640, Note_on_c, 0, 83, 0
3, 50640, Note_on_c, 0, 81, 62
3, 50760, Note_on_c, 0, 81, 0
3, 50760, Note_on_c, 0, 79, 62
3, 50880, Note_on_c, 0, 79, 0
3, 50880, Note_on_c, 0, 78, 62
3, 51000, Note_on_c, 0, 78, 0
3, 51000, Note_on_c, 0, 81, 62
3, 51120, Note_on_c, 0, 81, 0
3, 51120, Note_on_c, 0, 79, 62
3, 51240, Note_on_c, 0, 79, 0
3, 51240, Note_on_c, 0, 78, 62
3, 51360, Note_on_c, 0, 78, 0
3, 51360, Note_on_c, 0, 76, 62
3, 51480, Note_on_c, 0, 76, 0
3, 51480, Note_on_c, 0, 79, 62
3, 51600, Note_on_c, 0, 79, 0
3, 51600, Note_on_c, 0, 78, 62
3, 51720, Note_on_c, 0, 78, 0
3, 51720, Note_on_c, 0, 76, 62
3, 51840, Note_on_c, 0, 76, 0
3, 51840, Note_on_c, 0, 75, 62
3, 51960, Note_on_c, 0, 75, 0
3, 51960, Note_on_c, 0, 71, 62
3, 52080, Note_on_c, 0, 71, 0
3, 52080, Note_on_c, 0, 75, 62
3, 52200, Note_on_c, 0, 75, 0
3, 52200, Note_on_c, 0, 78, 62
3, 52320, Note_on_c, 0, 78, 0
3, 52320, Note_on_c, 0, 83, 62
3, 52440, Note_on_c, 0, 83, 0
3, 52440, Note_on_c, 0, 87, 62
3, 52560, Note_on_c, 0, 87, 0
3, 52560, Note_on_c, 0, 90, 62
3, 52680, Note_on_c, 0, 90, 0
3, 52680, Note_on_c, 0, 83, 62
3, 52740, Note_on_c, 0, 90, 62
3, 52800, Note_on_c, 0, 90, 0
3, 52800, Note_on_c, 0, 83, 0
3, 52800, Note_on_c, 0, 88, 62
3, 52823, Note_on_c, 0, 88, 0
3, 53040, Note_on_c, 0, 87, 62
3, 53160, Note_on_c, 0, 87, 0
3, 53160, Note_on_c, 0, 90, 62
3, 53280, Note_on_c, 0, 90, 0
3, 53280, Note_on_c, 0, 88, 62
3, 53520, Note_on_c, 0, 88, 0
3, 53760, Note_on_c, 0, 71, 88
3, 53880, Note_on_c, 0, 71, 0
3, 53880, Note_on_c, 0, 76, 88
3, 54000, Note_on_c, 0, 76, 0
3, 54000, Note_on_c, 0, 79, 88
3, 54120, Note_on_c, 0, 79, 0
3, 54240, Note_on_c, 0, 69, 88
3, 54360, Note_on_c, 0, 69, 0
3, 54360, Note_on_c, 0, 75, 88
3, 54480, Note_on_c, 0, 75, 0
3, 54480, Note_on_c, 0, 78, 88
3, 54600, Note_on_c, 0, 78, 0
3, 54720, Note_on_c, 0, 66, 88
3, 54840, Note_on_c, 0, 66, 0
3, 54840, Note_on_c, 0, 69, 88
3, 54960, Note_on_c, 0, 69, 0
3, 54960, Note_on_c, 0, 72, 88
3, 55080, Note_on_c, 0, 72, 0
3, 55200, Note_on_c, 0, 64, 88
3, 55320, Note_on_c, 0, 64, 0
3, 55320, Note_on_c, 0, 67, 88
3, 55440, Note_on_c, 0, 67, 0
3, 55440, Note_on_c, 0, 71, 88
3, 55560, Note_on_c, 0, 71, 0
3, 55680, Note_on_c, 0, 60, 88
3, 55800, Note_on_c, 0, 60, 0
3, 55800, Note_on_c, 0, 66, 88
3, 55920, Note_on_c, 0, 66, 0
3, 55920, Note_on_c, 0, 69, 88
3, 56040, Note_on_c, 0, 69, 0
3, 56160, Note_on_c, 0, 61, 88
3, 56280, Note_on_c, 0, 61, 0
3, 56280, Note_on_c, 0, 64, 88
3, 56400, Note_on_c, 0, 64, 0
3, 56400, Note_on_c, 0, 67, 88
3, 56520, Note_on_c, 0, 67, 0
3, 56640, Note_on_c, 0, 59, 88
3, 56760, Note_on_c, 0, 59, 0
3, 56760, Note_on_c, 0, 63, 88
3, 56880, Note_on_c, 0, 63, 0
3, 56880, Note_on_c, 0, 66, 88
3, 57000, Note_on_c, 0, 66, 0
3, 57120, Note_on_c, 0, 63, 88
3, 57240, Note_on_c, 0, 63, 0
3, 57240, Note_on_c, 0, 66, 88
3, 57360, Note_on_c, 0, 66, 0
3, 57360, Note_on_c, 0, 71, 88
3, 57480, Note_on_c, 0, 71, 0
3, 57600, Note_on_c, 0, 66, 88
3, 57720, Note_on_c, 0, 66, 0
3, 57720, Note_on_c, 0, 69, 88
3, 57840, Note_on_c, 0, 69, 0
3, 57840, Note_on_c, 0, 72, 88
3, 57960, Note_on_c, 0, 72, 0
3, 58080, Note_on_c, 0, 64, 88
3, 58200, Note_on_c, 0, 64, 0
3, 58200, Note_on_c, 0, 67, 88
3, 58320, Note_on_c, 0, 67, 0
3, 58320, Note_on_c, 0, 71, 88
3, 58440, Note_on_c, 0, 71, 0
3, 58560, Note_on_c, 0, 60, 88
3, 58680, Note_on_c, 0, 60, 0
3, 58680, Note_on_c, 0, 66, 88
3, 58800, Note_on_c, 0, 66, 0
3, 58800, Note_on_c, 0, 69, 88
3, 58920, Note_on_c, 0, 69, 0
3, 59040, Note_on_c, 0, 61, 88
3, 59160, Note_on_c, 0, 61, 0
3, 59160, Note_on_c, 0, 64, 88
3, 59280, Note_on_c, 0, 64, 0
3, 59280, Note_on_c, 0, 67, 88
3, 59400, Note_on_c, 0, 67, 0
3, 59520, Note_on_c, 0, 59, 101
3, 59640, Note_on_c, 0, 59, 0
3, 59640, Note_on_c, 0, 63, 101
3, 59760, Note_on_c, 0, 63, 0
3, 59760, Note_on_c, 0, 66, 101
3, 59880, Note_on_c, 0, 66, 0
3, 60000, Note_on_c, 0, 71, 101
3, 60120, Note_on_c, 0, 71, 0
3, 60120, Note_on_c, 0, 75, 101
3, 60240, Note_on_c, 0, 75, 0
3, 60240, Note_on_c, 0, 78, 101
3, 60360, Note_on_c, 0, 78, 0
3, 60420, Note_on_c, 0, 78, 101
3, 60480, Note_on_c, 0, 78, 0
3, 60480, Note_on_c, 0, 76, 101
3, 60503, Note_on_c, 0, 76, 0
3, 60720, Note_on_c, 0, 75, 101
3, 60840, Note_on_c, 0, 75, 0
3, 60840, Note_on_c, 0, 78, 101
3, 60960, Note_on_c, 0, 78, 0
3, 60960, Note_on_c, 0, 76, 101
3, 61200, Note_on_c, 0, 76, 0
3, 61200, Note_on_c, 0, 70, 101
3, 61320, Note_on_c, 0, 70, 0
3, 61320, Note_on_c, 0, 73, 101
3, 61440, Note_on_c, 0, 73, 0
3, 61440, Note_on_c, 0, 71, 88
3, 61440, Note_on_c, 0, 80, 88
3, 61920, Note_on_c, 0, 80, 0
3, 61920, Note_on_c, 0, 71, 0
3, 63360, Note_on_c, 0, 81, 75
3, 63840, Note_on_c, 0, 81, 0
3, 64320, Note_on_c, 0, 80, 75
3, 64800, Note_on_c, 0, 80, 0
3, 65280, Note_on_c, 0, 78, 75
3, 65760, Note_on_c, 0, 78, 0
3, 66240, Note_on_c, 0, 76, 75
3, 66720, Note_on_c, 0, 76, 0
3, 68280, Note_on_c, 0, 71, 75
3, 68400, Note_on_c, 0, 71, 0
3, 68400, Note_on_c, 0, 73, 75
3, 68520, Note_on_c, 0, 73, 0
3, 68520, Note_on_c, 0, 75, 75
3, 68640, Note_on_c, 0, 75, 0
3, 68640, Note_on_c, 0, 76, 88
3, 68760, Note_on_c, 0, 76, 0
3, 68760, Note_on_c, 0, 78, 88
3, 68880, Note_on_c, 0, 78, 0
3, 68880, Note_on_c, 0, 80, 88
3, 69000, Note_on_c, 0, 80, 0
3, 69000, Note_on_c, 0, 81, 88
3, 69120, Note_on_c, 0, 81, 0
3, 69120, Note_on_c, 0, 83, 114
3, 69180, Note_on_c, 0, 83, 0
3, 69180, Note_on_c, 0, 85, 114
3, 69240, Note_on_c, 0, 85, 0
3, 69240, Note_on_c, 0, 80, 114
3, 69240, Note_on_c, 0, 83, 114
3, 69600, Note_on_c, 0, 83, 0
3, 69600, Note_on_c, 0, 80, 0
3, 69600, Note_on_c, 0, 76, 75
3, 69600, Note_on_c, 0, 80, 75
3, 69623, Note_on_c, 0, 80, 0
3, 69623, Note_on_c, 0, 76, 0
3, 69840, Note_on_c, 0, 80, 75
3, 69840, Note_on_c, 0, 83, 75
3, 69863, Note_on_c, 0, 83, 0
3, 69863, Note_on_c, 0, 80, 0
3, 70080, Note_on_c, 0, 76, 75
3, 70080, Note_on_c, 0, 80, 75
3, 70103, Note_on_c, 0, 80, 0
3, 70103, Note_on_c, 0, 76, 0
3, 70320, Note_on_c, 0, 80, 75
3, 70320, Note_on_c, 0, 83, 75
3, 70343, Note_on_c, 0, 83, 0
3, 70343, Note_on_c, 0, 80, 0
3, 70560, Note_on_c, 0, 76, 75
3, 70560, Note_on_c, 0, 80, 75
3, 70583, Note_on_c, 0, 80, 0
3, 70583, Note_on_c, 0, 76, 0
3, 70800, Note_on_c, 0, 80, 75
3, 70800, Note_on_c, 0, 83, 75
3, 70823, Note_on_c, 0, 83, 0
3, 70823, Note_on_c, 0, 80, 0
3, 71040, Note_on_c, 0, 85, 101
3, 71100, Note_on_c, 0, 85, 0
3, 71100, Note_on_c, 0, 87, 101
3, 71160, Note_on_c, 0, 87, 0
3, 71160, Note_on_c, 0, 81, 101
3, 71160, Note_on_c, 0, 85, 101
3, 71520, Note_on_c, 0, 85, 0
3, 71520, Note_on_c, 0, 81, 0
3, 71520, Note_on_c, 0, 78, 75
3, 71520, Note_on_c, 0, 81, 75
3, 71543, Note_on_c, 0, 81, 0
3, 71543, Note_on_c, 0, 78, 0
3, 71760, Note_on_c, 0, 81, 75
3, 71760, Note_on_c, 0, 85, 75
3, 71783, Note_on_c, 0, 85, 0
3, 71783, Note_on_c, 0, 81, 0
3, 72000, Note_on_c, 0, 83, 101
3, 72060, Note_on_c, 0, 83, 0
3, 72060, Note_on_c, 0, 85, 101
3, 72120, Note_on_c, 0, 85, 0
3, 72120, Note_on_c, 0, 80, 101
3, 72120, Note_on_c, 0, 83, 101
3, 72480, Note_on_c, 0, 83, 0
3, 72480, Note_on_c, 0, 80, 0
3, 72480, Note_on_c, 0, 76, 75
3, 72480, Note_on_c, 0, 80, 75
3, 72503, Note_on_c, 0, 80, 0
3, 72503, Note_on_c, 0, 76, 0
3, 72720, Note_on_c, 0, 80, 75
3, 72720, Note_on_c, 0, 83, 75
3, 72743, Note_on_c, 0, 83, 0
3, 72743, Note_on_c, 0, 80, 0
3, 72960, Note_on_c, 0, 81, 101
3, 73020, Note_on_c, 0, 81, 0
3, 73020, Note_on_c, 0, 83, 101
3, 73080, Note_on_c, 0, 83, 0
3, 73080, Note_on_c, 0, 78, 101
3, 73080, Note_on_c, 0, 81, 101
3, 73440, Note_on_c, 0, 81, 0
3, 73440, Note_on_c, 0, 78, 0
3, 73440, Note_on_c, 0, 75, 75
3, 73440, Note_on_c, 0, 78, 75
3, 73463, Note_on_c, 0, 78, 0
3, 73463, Note_on_c, 0, 75, 0
3, 73680, Note_on_c, 0, 78, 75
3, 73680, Note_on_c, 0, 81, 75
3, 73703, Note_on_c, 0, 81, 0
3, 73703, Note_on_c, 0, 78, 0
3, 73920, Note_on_c, 0, 80, 101
3, 73980, Note_on_c, 0, 80, 0
3, 73980, Note_on_c, 0, 81, 101
3, 74040, Note_on_c, 0, 81, 0
3, 74040, Note_on_c, 0, 76, 101
3, 74040, Note_on_c, 0, 80, 101
3, 74400, Note_on_c, 0, 80, 0
3, 74400, Note_on_c, 0, 76, 0
3, 74400, Note_on_c, 0, 73, 75
3, 74400, Note_on_c, 0, 76, 75
3, 74423, Note_on_c, 0, 76, 0
3, 74423, Note_on_c, 0, 73, 0
3, 74640, Note_on_c, 0, 76, 75
3, 74640, Note_on_c, 0, 80, 75
3, 74663, Note_on_c, 0, 80, 0
3, 74663, Note_on_c, 0, 76, 0
3, 74880, Note_on_c, 0, 81, 62
3, 75000, Note_on_c, 0, 81, 0
3, 75000, Note_on_c, 0, 80, 62
3, 75120, Note_on_c, 0, 80, 0
3, 75120, Note_on_c, 0, 78, 62
3, 75240, Note_on_c, 0, 78, 0
3, 75240, Note_on_c, 0, 76, 62
3, 75360, Note_on_c, 0, 76, 0
3, 75360, Note_on_c, 0, 75, 62
3, 75480, Note_on_c, 0, 75, 0
3, 75480, Note_on_c, 0, 71, 62
3, 75600, Note_on_c, 0, 71, 0
3, 75600, Note_on_c, 0, 73, 62
3, 75720, Note_on_c, 0, 73, 0
3, 75720, Note_on_c, 0, 75, 62
3, 75840, Note_on_c, 0, 75, 0
3, 75840, Note_on_c, 0, 76, 62
3, 75960, Note_on_c, 0, 76, 0
3, 75960, Note_on_c, 0, 71, 62
3, 76080, Note_on_c, 0, 71, 0
3, 76080, Note_on_c, 0, 73, 62
3, 76200, Note_on_c, 0, 73, 0
3, 76200, Note_on_c, 0, 75, 62
3, 76320, Note_on_c, 0, 75, 0
3, 76320, Note_on_c, 0, 76, 62
3, 76440, Note_on_c, 0, 76, 0
3, 76440, Note_on_c, 0, 75, 62
3, 76560, Note_on_c, 0, 75, 0
3, 76560, Note_on_c, 0, 76, 62
3, 76680, Note_on_c, 0, 76, 0
3, 76680, Note_on_c, 0, 78, 62
3, 76800, Note_on_c, 0, 78, 0
3, 79680, Note_on_c, 0, 71, 62
3, 79800, Note_on_c, 0, 71, 0
3, 79800, Note_on_c, 0, 73, 62
3, 79920, Note_on_c, 0, 73, 0
3, 79920, Note_on_c, 0, 75, 62
3, 80400, Note_on_c, 0, 75, 0
3, 80400, Note_on_c, 0, 75, 62
3, 80640, Note_on_c, 0, 75, 0
3, 83520, Note_on_c, 0, 76, 62
3, 83640, Note_on_c, 0, 76, 0
3, 83640, Note_on_c, 0, 78, 62
3, 83760, Note_on_c, 0, 78, 0
3, 83760, Note_on_c, 0, 76, 88
3, 83760, Note_on_c, 0, 80, 88
3, 84240, Note_on_c, 0, 80, 0
3, 84240, Note_on_c, 0, 76, 0
3, 84240, Note_on_c, 0, 76, 88
3, 84240, Note_on_c, 0, 80, 88
3, 84480, Note_on_c, 0, 80, 0
3, 84480, Note_on_c, 0, 76, 0
3, 84480, Note_on_c, 0, 81, 88
3, 84600, Note_on_c, 0, 81, 0
3, 84600, Note_on_c, 0, 80, 88
3, 84720, Note_on_c, 0, 80, 0
3, 84720, Note_on_c, 0, 78, 88
3, 84840, Note_on_c, 0, 78, 0
3, 84840, Note_on_c, 0, 76, 88
3, 84960, Note_on_c, 0, 76, 0
3, 84960, Note_on_c, 0, 75, 88
3, 85080, Note_on_c, 0, 75, 0
3, 85080, Note_on_c, 0, 71, 88
3, 85200, Note_on_c, 0, 71, 0
3, 85200, Note_on_c, 0, 73, 88
3, 85320, Note_on_c, 0, 73, 0
3, 85320, Note_on_c, 0, 75, 88
3, 85440, Note_on_c, 0, 75, 0
3, 85440, Note_on_c, 0, 76, 88
3, 85560, Note_on_c, 0, 76, 0
3, 85560, Note_on_c, 0, 78, 88
3, 85680, Note_on_c, 0, 78, 0
3, 85680, Note_on_c, 0, 80, 88
3, 85800, Note_on_c, 0, 80, 0
3, 85800, Note_on_c, 0, 81, 88
3, 85920, Note_on_c, 0, 81, 0
3, 85920, Note_on_c, 0, 83, 88
3, 86040, Note_on_c, 0, 83, 0
3, 86040, Note_on_c, 0, 80, 88
3, 86160, Note_on_c, 0, 80, 0
3, 86160, Note_on_c, 0, 78, 88
3, 86280, Note_on_c, 0, 78, 0
3, 86280, Note_on_c, 0, 76, 88
3, 86400, Note_on_c, 0, 76, 0
3, 86400, Note_on_c, 0, 81, 88
3, 86520, Note_on_c, 0, 81, 0
3, 86520, Note_on_c, 0, 80, 88
3, 86640, Note_on_c, 0, 80, 0
3, 86640, Note_on_c, 0, 78, 88
3, 86760, Note_on_c, 0, 78, 0
3, 86760, Note_on_c, 0, 76, 88
3, 86880, Note_on_c, 0, 76, 0
3, 86880, Note_on_c, 0, 75, 88
3, 87000, Note_on_c, 0, 75, 0
3, 87000, Note_on_c, 0, 71, 88
3, 87120, Note_on_c, 0, 71, 0
3, 87120, Note_on_c, 0, 73, 88
3, 87240, Note_on_c, 0, 73, 0
3, 87240, Note_on_c, 0, 75, 88
3, 87360, Note_on_c, 0, 75, 0
3, 87360, Note_on_c, 0, 76, 88
3, 87480, Note_on_c, 0, 76, 0
3, 87480, Note_on_c, 0, 78, 88
3, 87600, Note_on_c, 0, 78, 0
3, 87600, Note_on_c, 0, 80, 88
3, 87720, Note_on_c, 0, 80, 0
3, 87720, Note_on_c, 0, 83, 88
3, 87840, Note_on_c, 0, 83, 0
3, 87840, Note_on_c, 0, 88, 88
3, 87960, Note_on_c, 0, 88, 0
3, 87960, Note_on_c, 0, 83, 88
3, 88080, Note_on_c, 0, 83, 0
3, 88080, Note_on_c, 0, 81, 88
3, 88200, Note_on_c, 0, 81, 0
3, 88200, Note_on_c, 0, 80, 88
3, 88320, Note_on_c, 0, 80, 0
3, 88320, Note_on_c, 0, 85, 88
3, 88440, Note_on_c, 0, 85, 0
3, 88440, Note_on_c, 0, 83, 88
3, 88560, Note_on_c, 0, 83, 0
3, 88560, Note_on_c, 0, 81, 88
3, 88680, Note_on_c, 0, 81, 0
3, 88680, Note_on_c, 0, 80, 88
3, 88800, Note_on_c, 0, 80, 0
3, 88800, Note_on_c, 0, 81, 88
3, 88920, Note_on_c, 0, 81, 0
3, 88920, Note_on_c, 0, 80, 88
3, 89040, Note_on_c, 0, 80, 0
3, 89040, Note_on_c, 0, 78, 88
3, 89160, Note_on_c, 0, 78, 0
3, 89160, Note_on_c, 0, 76, 88
3, 89280, Note_on_c, 0, 76, 0
3, 89280, Note_on_c, 0, 75, 88
3, 89400, Note_on_c, 0, 75, 0
3, 89400, Note_on_c, 0, 73, 88
3, 89520, Note_on_c, 0, 73, 0
3, 89520, Note_on_c, 0, 71, 88
3, 89640, Note_on_c, 0, 71, 0
3, 89640, Note_on_c, 0, 69, 88
3, 89760, Note_on_c, 0, 69, 0
3, 89760, Note_on_c, 0, 68, 88
3, 89880, Note_on_c, 0, 68, 0
3, 89880, Note_on_c, 0, 66, 88
3, 90000, Note_on_c, 0, 66, 0
3, 90000, Note_on_c, 0, 64, 88
3, 90120, Note_on_c, 0, 64, 0
3, 90120, Note_on_c, 0, 63, 88
3, 90240, Note_on_c, 0, 63, 0
3, 90240, Note_on_c, 0, 64, 88
3, 90480, Note_on_c, 0, 64, 0
3, 90720, Note_on_c, 0, 68, 88
3, 90720, Note_on_c, 0, 71, 88
3, 90720, Note_on_c, 0, 76, 88
3, 90960, Note_on_c, 0, 76, 0
3, 90960, Note_on_c, 0, 71, 0
3, 90960, Note_on_c, 0, 68, 0
3, 91680, Note_on_c, 0, 71, 114
3, 91680, Note_on_c, 0, 76, 114
3, 91680, Note_on_c, 0, 80, 114
3, 91920, Note_on_c, 0, 80, 0
3, 91920, Note_on_c, 0, 76, 0
3, 91920, Note_on_c, 0, 71, 0
3, 92160, Note_on_c, 0, 64, 114
3, 95040, Note_on_c, 0, 64, 0
3, 95040, End_track
4, 0, Start_track
4, 0, Title_t, "Instrument18"
4, 0, Program_c, 0, 0
4, 0, Control_c, 0, 7, 110
4, 0, Control_c, 0, 10, 30
4, 120, Note_on_c, 0, 59, 62
4, 240, Note_on_c, 0, 59, 0
4, 240, Note_on_c, 0, 47, 62
4, 360, Note_on_c, 0, 47, 0
4, 360, Note_on_c, 0, 59, 62
4, 480, Note_on_c, 0, 59, 0
4, 720, Note_on_c, 0, 47, 62
4, 720, Note_on_c, 0, 59, 62
4, 743, Note_on_c, 0, 59, 0
4, 743, Note_on_c, 0, 47, 0
4, 1080, Note_on_c, 0, 64, 62
4, 1200, Note_on_c, 0, 64, 0
4, 1200, Note_on_c, 0, 52, 62
4, 1320, Note_on_c, 0, 52, 0
4, 1320, Note_on_c, 0, 64, 62
4, 1440, Note_on_c, 0, 64, 0
4, 1680, Note_on_c, 0, 54, 62
4, 1680, Note_on_c, 0, 66, 62
4, 1703, Note_on_c, 0, 66, 0
4, 1703, Note_on_c, 0, 54, 0
4, 2160, Note_on_c, 0, 54, 62
4, 2160, Note_on_c, 0, 59, 62
4, 2160, Note_on_c, 0, 62, 62
4, 2183, Note_on_c, 0, 62, 0
4, 2183, Note_on_c, 0, 59, 0
4, 2183, Note_on_c, 0, 54, 0
4, 2640, Note_on_c, 0, 54, 62
4, 2640, Note_on_c, 0, 58, 62
4, 2640, Note_on_c, 0, 61, 62
4, 2663, Note_on_c, 0, 61, 0
4, 2663, Note_on_c, 0, 58, 0
4, 2663, Note_on_c, 0, 54, 0
4, 3120, Note_on_c, 0, 54, 62
4, 3120, Note_on_c, 0, 59, 62
4, 3120, Note_on_c, 0, 62, 62
4, 3240, Note_on_c, 0, 63, 62
4, 3300, Note_on_c, 0, 63, 0
4, 3300, Note_on_c, 0, 64, 62
4, 3360, Note_on_c, 0, 64, 0
4, 3360, Note_on_c, 0, 62, 0
4, 3360, Note_on_c, 0, 59, 0
4, 3360, Note_on_c, 0, 54, 0
4, 3360, Note_on_c, 0, 54, 88
4, 3360, Note_on_c, 0, 63, 88
4, 3840, Note_on_c, 0, 63, 0
4, 3840, Note_on_c, 0, 54, 0
4, 3960, Note_on_c, 0, 59, 62
4, 3960, Note_on_c, 0, 67, 62
4, 4080, Note_on_c, 0, 67, 0
4, 4080, Note_on_c, 0, 59, 0
4, 4080, Note_on_c, 0, 55, 62
4, 4200, Note_on_c, 0, 55, 0
4, 4200, Note_on_c, 0, 59, 62
4, 4200, Note_on_c, 0, 67, 62
4, 4320, Note_on_c, 0, 67, 0
4, 4320, Note_on_c, 0, 59, 0
4, 4560, Note_on_c, 0, 54, 62
4, 4560, Note_on_c, 0, 59, 62
4, 4560, Note_on_c, 0, 66, 62
4, 4800, Note_on_c, 0, 66, 0
4, 4800, Note_on_c, 0, 59, 0
4, 4800, Note_on_c, 0, 54, 0
4, 4920, Note_on_c, 0, 59, 62
4, 4920, Note_on_c, 0, 64, 62
4, 4935, Note_on_c, 0, 64, 0
4, 4935, Note_on_c, 0, 59, 0
4, 5040, Note_on_c, 0, 55, 62
4, 5160, Note_on_c, 0, 55, 0
4, 5160, Note_on_c, 0, 59, 62
4, 5160, Note_on_c, 0, 64, 62
4, 5175, Note_on_c, 0, 64, 0
4, 5175, Note_on_c, 0, 59, 0
4, 5520, Note_on_c, 0, 54, 62
4, 5520, Note_on_c, 0, 58, 62
4, 5520, Note_on_c, 0, 61, 62
4, 5543, Note_on_c, 0, 61, 0
4, 5543, Note_on_c, 0, 58, 0
4, 5543, Note_on_c, 0, 54, 0
4, 6000, Note_on_c, 0, 54, 62
4, 6000, Note_on_c, 0, 59, 62
4, 6000, Note_on_c, 0, 62, 62
4, 6023, Note_on_c, 0, 62, 0
4, 6023, Note_on_c, 0, 59, 0
4, 6023, Note_on_c, 0, 54, 0
4, 6480, Note_on_c, 0, 54, 62
4, 6480, Note_on_c, 0, 58, 62
4, 6480, Note_on_c, 0, 61, 62
4, 6503, Note_on_c, 0, 61, 0
4, 6503, Note_on_c, 0, 58, 0
4, 6503, Note_on_c, 0, 54, 0
4, 6600, Note_on_c, 0, 63, 62
4, 6660, Note_on_c, 0, 63, 0
4, 6660, Note_on_c, 0, 64, 62
4, 6720, Note_on_c, 0, 64, 0
4, 6720, Note_on_c, 0, 54, 88
4, 6720, Note_on_c, 0, 63, 88
4, 7200, Note_on_c, 0, 63, 0
4, 7200, Note_on_c, 0, 54, 0
4, 7200, Note_on_c, 0, 55, 62
4, 7200, Note_on_c, 0, 64, 62
4, 7223, Note_on_c, 0, 64, 0
4, 7223, Note_on_c, 0, 55, 0
4, 7800, Note_on_c, 0, 59, 62
4, 7920, Note_on_c, 0, 59, 0
4, 7920, Note_on_c, 0, 47, 62
4, 8040, Note_on_c, 0, 47, 0
4, 8040, Note_on_c, 0, 59, 62
4, 8160, Note_on_c, 0, 59, 0
4, 8400, Note_on_c, 0, 47, 62
4, 8400, Note_on_c, 0, 59, 62
4, 8423, Note_on_c, 0, 59, 0
4, 8423, Note_on_c, 0, 47, 0
4, 8760, Note_on_c, 0, 64, 62
4, 8880, Note_on_c, 0, 64, 0
4, 8880, Note_on_c, 0, 52, 62
4, 9000, Note_on_c, 0, 52, 0
4, 9000, Note_on_c, 0, 64, 62
4, 9120, Note_on_c, 0, 64, 0
4, 9360, Note_on_c, 0, 54, 62
4, 9360, Note_on_c, 0, 66, 62
4, 9383, Note_on_c, 0, 66, 0
4, 9383, Note_on_c, 0, 54, 0
4, 9840, Note_on_c, 0, 54, 62
4, 9840, Note_on_c, 0, 59, 62
4, 9840, Note_on_c, 0, 62, 62
4, 9863, Note_on_c, 0, 62, 0
4, 9863, Note_on_c, 0, 59, 0
4, 9863, Note_on_c, 0, 54, 0
4, 10320, Note_on_c, 0, 54, 62
4, 10320, Note_on_c, 0, 58, 62
4, 10320, Note_on_c, 0, 61, 62
4, 10343, Note_on_c, 0, 61, 0
4, 10343, Note_on_c, 0, 58, 0
4, 10343, Note_on_c, 0, 54, 0
4, 10800, Note_on_c, 0, 54, 62
4, 10800, Note_on_c, 0, 59, 62
4, 10800, Note_on_c, 0, 62, 62
4, 10920, Note_on_c, 0, 63, 62
4, 10980, Note_on_c, 0, 63, 0
4, 10980, Note_on_c, 0, 64, 62
4, 11040, Note_on_c, 0, 64, 0
4, 11040, Note_on_c, 0, 62, 0
4, 11040, Note_on_c, 0, 59, 0
4, 11040, Note_on_c, 0, 54, 0
4, 11040, Note_on_c, 0, 54, 88
4, 11040, Note_on_c, 0, 63, 88
4, 11520, Note_on_c, 0, 63, 0
4, 11520, Note_on_c, 0, 54, 0
4, 11640, Note_on_c, 0, 59, 62
4, 11640, Note_on_c, 0, 67, 62
4, 11760, Note_on_c, 0, 67, 0
4, 11760, Note_on_c, 0, 59, 0
4, 11760, Note_on_c, 0, 55, 62
4, 11880, Note_on_c, 0, 55, 0
4, 11880, Note_on_c, 0, 59, 62
4, 11880, Note_on_c, 0, 67, 62
4, 12000, Note_on_c, 0, 67, 0
4, 12000, Note_on_c, 0, 59, 0
4, 12240, Note_on_c, 0, 54, 62
4, 12240, Note_on_c, 0, 59, 62
4, 12240, Note_on_c, 0, 66, 62
4, 12480, Note_on_c, 0, 66, 0
4, 12480, Note_on_c, 0, 59, 0
4, 12480, Note_on_c, 0, 54, 0
4, 12600, Note_on_c, 0, 59, 62
4, 12600, Note_on_c, 0, 64, 62
4, 12615, Note_on_c, 0, 64, 0
4, 12615, Note_on_c, 0, 59, 0
4, 12720, Note_on_c, 0, 55, 62
4, 12840, Note_on_c, 0, 55, 0
4, 12840, Note_on_c, 0, 59, 62
4, 12840, Note_on_c, 0, 64, 62
4, 12855, Note_on_c, 0, 64, 0
4, 12855, Note_on_c, 0, 59, 0
4, 13200, Note_on_c, 0, 54, 62
4, 13200, Note_on_c, 0, 58, 62
4, 13200, Note_on_c, 0, 61, 62
4, 13223, Note_on_c, 0, 61, 0
4, 13223, Note_on_c, 0, 58, 0
4, 13223, Note_on_c, 0, 54, 0
4, 13680, Note_on_c, 0, 54, 62
4, 13680, Note_on_c, 0, 59, 62
4, 13680, Note_on_c, 0, 62, 62
4, 13703, Note_on_c, 0, 62, 0
4, 13703, Note_on_c, 0, 59, 0
4, 13703, Note_on_c, 0, 54, 0
4, 14160, Note_on_c, 0, 54, 62
4, 14160, Note_on_c, 0, 58, 62
4, 14160, Note_on_c, 0, 61, 62
4, 14183, Note_on_c, 0, 61, 0
4, 14183, Note_on_c, 0, 58, 0
4, 14183, Note_on_c, 0, 54, 0
4, 14280, Note_on_c, 0, 63, 62
4, 14340, Note_on_c, 0, 63, 0
4, 14340, Note_on_c, 0, 64, 62
4, 14400, Note_on_c, 0, 64, 0
4, 14400, Note_on_c, 0, 54, 88
4, 14400, Note_on_c, 0, 63, 88
4, 14880, Note_on_c, 0, 63, 0
4, 14880, Note_on_c, 0, 54, 0
4, 14880, Note_on_c, 0, 55, 62
4, 14880, Note_on_c, 0, 64, 62
4, 14903, Note_on_c, 0, 64, 0
4, 14903, Note_on_c, 0, 55, 0
4, 15360, Note_on_c, 0, 62, 62
4, 15375, Note_on_c, 0, 62, 0
4, 15480, Note_on_c, 0, 57, 62
4, 15495, Note_on_c, 0, 57, 0
4, 15600, Note_on_c, 0, 50, 62
4, 15615, Note_on_c, 0, 50, 0
4, 15720, Note_on_c, 0, 45, 62
4, 15735, Note_on_c, 0, 45, 0
4, 16080, Note_on_c, 0, 50, 62
4, 16080, Note_on_c, 0, 57, 62
4, 16080, Note_on_c, 0, 60, 62
4, 16103, Note_on_c, 0, 60, 0
4, 16103, Note_on_c, 0, 57, 0
4, 16103, Note_on_c, 0, 50, 0
4, 16560, Note_on_c, 0, 50, 62
4, 16560, Note_on_c, 0, 55, 62
4, 16560, Note_on_c, 0, 59, 62
4, 17040, Note_on_c, 0, 59, 0
4, 17040, Note_on_c, 0, 55, 0
4, 17040, Note_on_c, 0, 50, 0
4, 17040, Note_on_c, 0, 50, 62
4, 17040, Note_on_c, 0, 55, 62
4, 17040, Note_on_c, 0, 59, 62
4, 17063, Note_on_c, 0, 59, 0
4, 17063, Note_on_c, 0, 55, 0
4, 17063, Note_on_c, 0, 50, 0
4, 17280, Note_on_c, 0, 62, 75
4, 17295, Note_on_c, 0, 62, 0
4, 17400, Note_on_c, 0, 57, 75
4, 17415, Note_on_c, 0, 57, 0
4, 17520, Note_on_c, 0, 50, 75
4, 17535, Note_on_c, 0, 50, 0
4, 17640, Note_on_c, 0, 45, 75
4, 17655, Note_on_c, 0, 45, 0
4, 18000, Note_on_c, 0, 50, 75
4, 18000, Note_on_c, 0, 54, 75
4, 18000, Note_on_c, 0, 57, 75
4, 18000, Note_on_c, 0, 62, 75
4, 18023, Note_on_c, 0, 62, 0
4, 18023, Note_on_c, 0, 50, 0
4, 18023, Note_on_c, 0, 54, 0
4, 18023, Note_on_c, 0, 57, 0
4, 18480, Note_on_c, 0, 55, 75
4, 18480, Note_on_c, 0, 59, 75
4, 18480, Note_on_c, 0, 62, 75
4, 18960, Note_on_c, 0, 62, 0
4, 18960, Note_on_c, 0, 59, 0
4, 18960, Note_on_c, 0, 55, 0
4, 18960, Note_on_c, 0, 55, 75
4, 18960, Note_on_c, 0, 59, 75
4, 18960, Note_on_c, 0, 62, 75
4, 18983, Note_on_c, 0, 62, 0
4, 18983, Note_on_c, 0, 59, 0
4, 18983, Note_on_c, 0, 55, 0
4, 19200, Note_on_c, 0, 59, 62
4, 19215, Note_on_c, 0, 59, 0
4, 19320, Note_on_c, 0, 54, 62
4, 19335, Note_on_c, 0, 54, 0
4, 19440, Note_on_c, 0, 47, 62
4, 19455, Note_on_c, 0, 47, 0
4, 19560, Note_on_c, 0, 42, 62
4, 19575, Note_on_c, 0, 42, 0
4, 19920, Note_on_c, 0, 51, 62
4, 19920, Note_on_c, 0, 54, 62
4, 19920, Note_on_c, 0, 59, 62
4, 19943, Note_on_c, 0, 59, 0
4, 19943, Note_on_c, 0, 54, 0
4, 19943, Note_on_c, 0, 51, 0
4, 20400, Note_on_c, 0, 52, 62
4, 20400, Note_on_c, 0, 55, 62
4, 20400, Note_on_c, 0, 59, 62
4, 20423, Note_on_c, 0, 59, 0
4, 20423, Note_on_c, 0, 55, 0
4, 20423, Note_on_c, 0, 52, 0
4, 20880, Note_on_c, 0, 52, 62
4, 20880, Note_on_c, 0, 55, 62
4, 20880, Note_on_c, 0, 60, 62
4, 20903, Note_on_c, 0, 60, 0
4, 20903, Note_on_c, 0, 55, 0
4, 20903, Note_on_c, 0, 52, 0
4, 21360, Note_on_c, 0, 55, 62
4, 21360, Note_on_c, 0, 59, 62
4, 21360, Note_on_c, 0, 64, 62
4, 21383, Note_on_c, 0, 64, 0
4, 21383, Note_on_c, 0, 59, 0
4, 21383, Note_on_c, 0, 55, 0
4, 21840, Note_on_c, 0, 54, 62
4, 21840, Note_on_c, 0, 57, 62
4, 21840, Note_on_c, 0, 59, 62
4, 21863, Note_on_c, 0, 59, 0
4, 21863, Note_on_c, 0, 57, 0
4, 21863, Note_on_c, 0, 54, 0
4, 22080, Note_on_c, 0, 52, 62
4, 22080, Note_on_c, 0, 55, 62
4, 22080, Note_on_c, 0, 59, 62
4, 22103, Note_on_c, 0, 59, 0
4, 22103, Note_on_c, 0, 55, 0
4, 22103, Note_on_c, 0, 52, 0
4, 22320, Note_on_c, 0, 54, 62
4, 22320, Note_on_c, 0, 57, 62
4, 22320, Note_on_c, 0, 59, 62
4, 22343, Note_on_c, 0, 59, 0
4, 22343, Note_on_c, 0, 57, 0
4, 22343, Note_on_c, 0, 54, 0
4, 22560, Note_on_c, 0, 52, 62
4, 22560, Note_on_c, 0, 55, 62
4, 22560, Note_on_c, 0, 59, 62
4, 22583, Note_on_c, 0, 59, 0
4, 22583, Note_on_c, 0, 55, 0
4, 22583, Note_on_c, 0, 52, 0
4, 23040, Note_on_c, 0, 62, 62
4, 23055, Note_on_c, 0, 62, 0
4, 23160, Note_on_c, 0, 57, 62
4, 23175, Note_on_c, 0, 57, 0
4, 23280, Note_on_c, 0, 50, 62
4, 23295, Note_on_c, 0, 50, 0
4, 23400, Note_on_c, 0, 45, 62
4, 23415, Note_on_c, 0, 45, 0
4, 23760, Note_on_c, 0, 50, 62
4, 23760, Note_on_c, 0, 57, 62
4, 23760, Note_on_c, 0, 60, 62
4, 23783, Note_on_c, 0, 60, 0
4, 23783, Note_on_c, 0, 57, 0
4, 23783, Note_on_c, 0, 50, 0
4, 24240, Note_on_c, 0, 50, 62
4, 24240, Note_on_c, 0, 55, 62
4, 24240, Note_on_c, 0, 59, 62
4, 24720, Note_on_c, 0, 59, 0
4, 24720, Note_on_c, 0, 55, 0
4, 24720, Note_on_c, 0, 50, 0
4, 24720, Note_on_c, 0, 50, 62
4, 24720, Note_on_c, 0, 55, 62
4, 24720, Note_on_c, 0, 59, 62
4, 24743, Note_on_c, 0, 59, 0
4, 24743, Note_on_c, 0, 55, 0
4, 24743, Note_on_c, 0, 50, 0
4, 24960, Note_on_c, 0, 62, 75
4, 24975, Note_on_c, 0, 62, 0
4, 25080, Note_on_c, 0, 57, 75
4, 25095, Note_on_c, 0, 57, 0
4, 25200, Note_on_c, 0, 50, 75
4, 25215, Note_on_c, 0, 50, 0
4, 25320, Note_on_c, 0, 45, 75
4, 25335, Note_on_c, 0, 45, 0
4, 25680, Note_on_c, 0, 50, 75
4, 25680, Note_on_c, 0, 54, 75
4, 25680, Note_on_c, 0, 57, 75
4, 25680, Note_on_c, 0, 62, 75
4, 25703, Note_on_c, 0, 62, 0
4, 25703, Note_on_c, 0, 50, 0
4, 25703, Note_on_c, 0, 54, 0
4, 25703, Note_on_c, 0, 57, 0
4, 26160, Note_on_c, 0, 55, 75
4, 26160, Note_on_c, 0, 59, 75
4, 26160, Note_on_c, 0, 62, 75
4, 26640, Note_on_c, 0, 62, 0
4, 26640, Note_on_c, 0, 59, 0
4, 26640, Note_on_c, 0, 55, 0
4, 26640, Note_on_c, 0, 55, 75
4, 26640, Note_on_c, 0, 59, 75
4, 26640, Note_on_c, 0, 62, 75
4, 26663, Note_on_c, 0, 62, 0
4, 26663, Note_on_c, 0, 59, 0
4, 26663, Note_on_c, 0, 55, 0
4, 26880, Note_on_c, 0, 59, 62
4, 26895, Note_on_c, 0, 59, 0
4, 27000, Note_on_c, 0, 54, 62
4, 27015, Note_on_c, 0, 54, 0
4, 27120, Note_on_c, 0, 47, 62
4, 27135, Note_on_c, 0, 47, 0
4, 27240, Note_on_c, 0, 42, 62
4, 27255, Note_on_c, 0, 42, 0
4, 27600, Note_on_c, 0, 51, 62
4, 27600, Note_on_c, 0, 54, 62
4, 27600, Note_on_c, 0, 59, 62
4, 27623, Note_on_c, 0, 59, 0
4, 27623, Note_on_c, 0, 54, 0
4, 27623, Note_on_c, 0, 51, 0
4, 28080, Note_on_c, 0, 52, 62
4, 28080, Note_on_c, 0, 55, 62
4, 28080, Note_on_c, 0, 59, 62
4, 28103, Note_on_c, 0, 59, 0
4, 28103, Note_on_c, 0, 55, 0
4, 28103, Note_on_c, 0, 52, 0
4, 28560, Note_on_c, 0, 52, 62
4, 28560, Note_on_c, 0, 55, 62
4, 28560, Note_on_c, 0, 60, 62
4, 28583, Note_on_c, 0, 60, 0
4, 28583, Note_on_c, 0, 55, 0
4, 28583, Note_on_c, 0, 52, 0
4, 29040, Note_on_c, 0, 55, 62
4, 29040, Note_on_c, 0, 59, 62
4, 29040, Note_on_c, 0, 64, 62
4, 29063, Note_on_c, 0, 64, 0
4, 29063, Note_on_c, 0, 59, 0
4, 29063, Note_on_c, 0, 55, 0
4, 29520, Note_on_c, 0, 54, 62
4, 29520, Note_on_c, 0, 57, 62
4, 29520, Note_on_c, 0, 59, 62
4, 29543, Note_on_c, 0, 59, 0
4, 29543, Note_on_c, 0, 57, 0
4, 29543, Note_on_c, 0, 54, 0
4, 29760, Note_on_c, 0, 52, 62
4, 29760, Note_on_c, 0, 55, 62
4, 29760, Note_on_c, 0, 59, 62
4, 29783, Note_on_c, 0, 59, 0
4, 29783, Note_on_c, 0, 55, 0
4, 29783, Note_on_c, 0, 52, 0
4, 30000, Note_on_c, 0, 54, 62
4, 30000, Note_on_c, 0, 57, 62
4, 30000, Note_on_c, 0, 59, 62
4, 30023, Note_on_c, 0, 59, 0
4, 30023, Note_on_c, 0, 57, 0
4, 30023, Note_on_c, 0, 54, 0
4, 30240, Note_on_c, 0, 52, 62
4, 30240, Note_on_c, 0, 55, 62
4, 30240, Note_on_c, 0, 59, 62
4, 30263, Note_on_c, 0, 59, 0
4, 30263, Note_on_c, 0, 55, 0
4, 30263, Note_on_c, 0, 52, 0
4, 30720, Control_c, 0, 64, 127
4, 30720, Note_on_c, 0, 71, 62
4, 30720, Note_on_c, 0, 79, 62
4, 30840, Note_on_c, 0, 79, 0
4, 30840, Note_on_c, 0, 71, 0
4, 30840, Note_on_c, 0, 76, 62
4, 30960, Note_on_c, 0, 76, 0
4, 30960, Note_on_c, 0, 75, 62
4, 31080, Note_on_c, 0, 75, 0
4, 31080, Note_on_c, 0, 78, 62
4, 31200, Note_on_c, 0, 78, 0
4, 31200, Note_on_c, 0, 71, 75
4, 31200, Note_on_c, 0, 79, 75
4, 31320, Note_on_c, 0, 79, 0
4, 31320, Note_on_c, 0, 71, 0
4, 31320, Note_on_c, 0, 76, 75
4, 31440, Note_on_c, 0, 76, 0
4, 31440, Note_on_c, 0, 75, 75
4, 31560, Note_on_c, 0, 75, 0
4, 31560, Note_on_c, 0, 78, 75
4, 31680, Note_on_c, 0, 78, 0
4, 31680, Note_on_c, 0, 71, 75
4, 31680, Note_on_c, 0, 79, 75
4, 31800, Note_on_c, 0, 79, 0
4, 31800, Note_on_c, 0, 71, 0
4, 31800, Note_on_c, 0, 76, 75
4, 31920, Note_on_c, 0, 76, 0
4, 31920, Note_on_c, 0, 75, 75
4, 32040, Note_on_c, 0, 75, 0
4, 32040, Note_on_c, 0, 78, 75
4, 32160, Note_on_c, 0, 78, 0
4, 32160, Note_on_c, 0, 71, 88
4, 32160, Note_on_c, 0, 79, 88
4, 32280, Note_on_c, 0, 79, 0
4, 32280, Note_on_c, 0, 71, 0
4, 32280, Note_on_c, 0, 76, 88
4, 32400, Note_on_c, 0, 76, 0
4, 32400, Note_on_c, 0, 75, 88
4, 32520, Note_on_c, 0, 75, 0
4, 32520, Control_c, 0, 64, 0
4, 32520, Note_on_c, 0, 78, 88
4, 32640, Note_on_c, 0, 78, 0
4, 32640, Control_c, 0, 64, 127
4, 32640, Note_on_c, 0, 71, 88
4, 32640, Note_on_c, 0, 79, 88
4, 32760, Note_on_c, 0, 79, 0
4, 32760, Note_on_c, 0, 71, 0
4, 32760, Note_on_c, 0, 76, 88
4, 32880, Note_on_c, 0, 76, 0
4, 32880, Note_on_c, 0, 75, 88
4, 33000, Note_on_c, 0, 75, 0
4, 33000, Note_on_c, 0, 78, 88
4, 33120, Note_on_c, 0, 78, 0
4, 33120, Note_on_c, 0, 76, 75
4, 33240, Note_on_c, 0, 76, 0
4, 33240, Note_on_c, 0, 69, 75
4, 33360, Note_on_c, 0, 69, 0
4, 33360, Note_on_c, 0, 72, 75
4, 33480, Note_on_c, 0, 72, 0
4, 33480, Note_on_c, 0, 69, 75
4, 33600, Note_on_c, 0, 69, 0
4, 33600, Note_on_c, 0, 67, 75
4, 33720, Note_on_c, 0, 67, 0
4, 33720, Note_on_c, 0, 70, 75
4, 33840, Note_on_c, 0, 70, 0
4, 33840, Note_on_c, 0, 73, 75
4, 33960, Note_on_c, 0, 73, 0
4, 33960, Note_on_c, 0, 76, 75
4, 34080, Note_on_c, 0, 76, 0
4, 34080, Note_on_c, 0, 66, 62
4, 34200, Note_on_c, 0, 66, 0
4, 34200, Note_on_c, 0, 71, 62
4, 34320, Note_on_c, 0, 71, 0
4, 34320, Note_on_c, 0, 75, 62
4, 34440, Note_on_c, 0, 75, 0
4, 34440, Control_c, 0, 64, 0
4, 34440, Note_on_c, 0, 78, 62
4, 34560, Note_on_c, 0, 78, 0
4, 34560, Control_c, 0, 64, 127
4, 34560, Note_on_c, 0, 69, 62
4, 34560, Note_on_c, 0, 77, 62
4, 34680, Note_on_c, 0, 77, 0
4, 34680, Note_on_c, 0, 69, 0
4, 34680, Note_on_c, 0, 74, 62
4, 34800, Note_on_c, 0, 74, 0
4, 34800, Note_on_c, 0, 73, 62
4, 34920, Note_on_c, 0, 73, 0
4, 34920, Note_on_c, 0, 76, 62
4, 35040, Note_on_c, 0, 76, 0
4, 35040, Note_on_c, 0, 69, 75
4, 35040, Note_on_c, 0, 77, 75
4, 35160, Note_on_c, 0, 77, 0
4, 35160, Note_on_c, 0, 69, 0
4, 35160, Note_on_c, 0, 74, 75
4, 35280, Note_on_c, 0, 74, 0
4, 35280, Note_on_c, 0, 73, 75
4, 35400, Note_on_c, 0, 73, 0
4, 35400, Note_on_c, 0, 76, 75
4, 35520, Note_on_c, 0, 76, 0
4, 35520, Note_on_c, 0, 69, 75
4, 35520, Note_on_c, 0, 77, 75
4, 35640, Note_on_c, 0, 77, 0
4, 35640, Note_on_c, 0, 69, 0
4, 35640, Note_on_c, 0, 74, 75
4, 35760, Note_on_c, 0, 74, 0
4, 35760, Note_on_c, 0, 73, 75
4, 35880, Note_on_c, 0, 73, 0
4, 35880, Note_on_c, 0, 76, 75
4, 36000, Note_on_c, 0, 76, 0
4, 36000, Note_on_c, 0, 69, 88
4, 36000, Note_on_c, 0, 77, 88
4, 36120, Note_on_c, 0, 77, 0
4, 36120, Note_on_c, 0, 69, 0
4, 36120, Note_on_c, 0, 74, 88
4, 36240, Note_on_c, 0, 74, 0
4, 36240, Note_on_c, 0, 73, 88
4, 36360, Note_on_c, 0, 73, 0
4, 36360, Control_c, 0, 64, 0
4, 36360, Note_on_c, 0, 76, 88
4, 36480, Note_on_c, 0, 76, 0
4, 36480, Control_c, 0, 64, 127
4, 36480, Note_on_c, 0, 69, 88
4, 36480, Note_on_c, 0, 77, 88
4, 36600, Note_on_c, 0, 77, 0
4, 36600, Note_on_c, 0, 69, 0
4, 36600, Note_on_c, 0, 74, 88
4, 36720, Note_on_c, 0, 74, 0
4, 36720, Note_on_c, 0, 72, 88
4, 36840, Note_on_c, 0, 72, 0
4, 36840, Note_on_c, 0, 76, 88
4, 36960, Note_on_c, 0, 76, 0
4, 36960, Note_on_c, 0, 74, 88
4, 37080, Note_on_c, 0, 74, 0
4, 37080, Note_on_c, 0, 67, 88
4, 37200, Note_on_c, 0, 67, 0
4, 37200, Note_on_c, 0, 69, 88
4, 37320, Note_on_c, 0, 69, 0
4, 37320, Note_on_c, 0, 72, 88
4, 37440, Note_on_c, 0, 72, 0
4, 37440, Note_on_c, 0, 66, 75
4, 37560, Note_on_c, 0, 66, 0
4, 37560, Note_on_c, 0, 69, 75
4, 37680, Note_on_c, 0, 69, 0
4, 37680, Note_on_c, 0, 72, 75
4, 37800, Note_on_c, 0, 72, 0
4, 37800, Note_on_c, 0, 75, 75
4, 37920, Note_on_c, 0, 75, 0
4, 37920, Note_on_c, 0, 64, 62
4, 38040, Note_on_c, 0, 64, 0
4, 38040, Note_on_c, 0, 67, 62
4, 38160, Note_on_c, 0, 67, 0
4, 38160, Note_on_c, 0, 71, 62
4, 38280, Note_on_c, 0, 71, 0
4, 38280, Control_c, 0, 64, 0
4, 38280, Note_on_c, 0, 76, 62
4, 38400, Note_on_c, 0, 76, 0
4, 38400, Note_on_c, 0, 67, 75
4, 38520, Note_on_c, 0, 67, 0
4, 38520, Note_on_c, 0, 64, 75
4, 38640, Note_on_c, 0, 64, 0
4, 38640, Note_on_c, 0, 66, 75
4, 38760, Note_on_c, 0, 66, 0
4, 38760, Note_on_c, 0, 62, 75
4, 38880, Note_on_c, 0, 62, 0
4, 38880, Note_on_c, 0, 64, 75
4, 39000, Note_on_c, 0, 64, 0
4, 39000, Note_on_c, 0, 60, 75
4, 39120, Note_on_c, 0, 60, 0
4, 39120, Note_on_c, 0, 62, 75
4, 39240, Note_on_c, 0, 62, 0
4, 39240, Note_on_c, 0, 59, 75
4, 39360, Note_on_c, 0, 59, 0
4, 39360, Note_on_c, 0, 60, 88
4, 39480, Note_on_c, 0, 60, 0
4, 39480, Note_on_c, 0, 57, 88
4, 39600, Note_on_c, 0, 57, 0
4, 39600, Note_on_c, 0, 59, 88
4, 39720, Note_on_c, 0, 59, 0
4, 39720, Note_on_c, 0, 55, 88
4, 39840, Note_on_c, 0, 55, 0
4, 39840, Note_on_c, 0, 57, 88
4, 39960, Note_on_c, 0, 57, 0
4, 39960, Note_on_c, 0, 54, 88
4, 40080, Note_on_c, 0, 54, 0
4, 40080, Note_on_c, 0, 55, 88
4, 40200, Note_on_c, 0, 55, 0
4, 40200, Note_on_c, 0, 52, 88
4, 40320, Note_on_c, 0, 52, 0
4, 40320, Note_on_c, 0, 54, 101
4, 40440, Note_on_c, 0, 54, 0
4, 40440, Note_on_c, 0, 50, 101
4, 40560, Note_on_c, 0, 50, 0
4, 40560, Note_on_c, 0, 52, 101
4, 40680, Note_on_c, 0, 52, 0
4, 40680, Note_on_c, 0, 48, 101
4, 40800, Note_on_c, 0, 48, 0
4, 40800, Note_on_c, 0, 50, 101
4, 40920, Note_on_c, 0, 50, 0
4, 40920, Note_on_c, 0, 47, 101
4, 41040, Note_on_c, 0, 47, 0
4, 41040, Note_on_c, 0, 48, 101
4, 41160, Note_on_c, 0, 48, 0
4, 41160, Note_on_c, 0, 45, 101
4, 41280, Note_on_c, 0, 45, 0
4, 41280, Note_on_c, 0, 47, 101
4, 41400, Note_on_c, 0, 47, 0
4, 41400, Note_on_c, 0, 43, 101
4, 41520, Note_on_c, 0, 43, 0
4, 41520, Note_on_c, 0, 49, 88
4, 41640, Note_on_c, 0, 49, 0
4, 41640, Note_on_c, 0, 45, 88
4, 41760, Note_on_c, 0, 45, 0
4, 41760, Note_on_c, 0, 51, 75
4, 41880, Note_on_c, 0, 51, 0
4, 41880, Note_on_c, 0, 47, 75
4, 42000, Note_on_c, 0, 47, 0
4, 42240, Note_on_c, 0, 57, 75
4, 42360, Note_on_c, 0, 57, 0
4, 42360, Note_on_c, 0, 65, 75
4, 42480, Note_on_c, 0, 65, 0
4, 42480, Note_on_c, 0, 67, 75
4, 42600, Note_on_c, 0, 67, 0
4, 42600, Note_on_c, 0, 64, 75
4, 42720, Note_on_c, 0, 64, 0
4, 42720, Note_on_c, 0, 65, 75
4, 42840, Note_on_c, 0, 65, 0
4, 42840, Note_on_c, 0, 62, 75
4, 42960, Note_on_c, 0, 62, 0
4, 42960, Note_on_c, 0, 64, 75
4, 43080, Note_on_c, 0, 64, 0
4, 43080, Note_on_c, 0, 60, 75
4, 43200, Note_on_c, 0, 60, 0
4, 43200, Note_on_c, 0, 62, 88
4, 43320, Note_on_c, 0, 62, 0
4, 43320, Note_on_c, 0, 59, 88
4, 43440, Note_on_c, 0, 59, 0
4, 43440, Note_on_c, 0, 60, 88
4, 43560, Note_on_c, 0, 60, 0
4, 43560, Note_on_c, 0, 57, 88
4, 43680, Note_on_c, 0, 57, 0
4, 43680, Note_on_c, 0, 59, 88
4, 43800, Note_on_c, 0, 59, 0
4, 43800, Note_on_c, 0, 55, 88
4, 43920, Note_on_c, 0, 55, 0
4, 43920, Note_on_c, 0, 57, 88
4, 44040, Note_on_c, 0, 57, 0
4, 44040, Note_on_c, 0, 53, 88
4, 44160, Note_on_c, 0, 53, 0
4, 44160, Note_on_c, 0, 55, 62
4, 44280, Note_on_c, 0, 55, 0
4, 44280, Note_on_c, 0, 52, 62
4, 44400, Note_on_c, 0, 52, 0
4, 44400, Note_on_c, 0, 54, 62
4, 44520, Note_on_c, 0, 54, 0
4, 44520, Note_on_c, 0, 51, 62
4, 44640, Note_on_c, 0, 51, 0
4, 44640, Note_on_c, 0, 55, 62
4, 44760, Note_on_c, 0, 55, 0
4, 44760, Note_on_c, 0, 52, 62
4, 44880, Note_on_c, 0, 52, 0
4, 44880, Note_on_c, 0, 57, 62
4, 45000, Note_on_c, 0, 57, 0
4, 45000, Note_on_c, 0, 52, 62
4, 45120, Note_on_c, 0, 52, 0
4, 45120, Note_on_c, 0, 54, 62
4, 45240, Note_on_c, 0, 54, 0
4, 45240, Note_on_c, 0, 57, 62
4, 45360, Note_on_c, 0, 57, 0
4, 45360, Note_on_c, 0, 60, 62
4, 45480, Note_on_c, 0, 60, 0
4, 45480, Note_on_c, 0, 62, 62
4, 45600, Note_on_c, 0, 62, 0
4, 45600, Note_on_c, 0, 55, 62
4, 45720, Note_on_c, 0, 55, 0
4, 45720, Note_on_c, 0, 59, 62
4, 45840, Note_on_c, 0, 59, 0
4, 45840, Note_on_c, 0, 62, 62
4, 45960, Note_on_c, 0, 62, 0
4, 45960, Note_on_c, 0, 67, 62
4, 46080, Note_on_c, 0, 67, 0
4, 46200, Note_on_c, 0, 64, 62
4, 46320, Note_on_c, 0, 64, 0
4, 46320, Note_on_c, 0, 71, 62
4, 46440, Note_on_c, 0, 71, 0
4, 46440, Note_on_c, 0, 79, 62
4, 46560, Note_on_c, 0, 79, 0
4, 46680, Note_on_c, 0, 66, 62
4, 46800, Note_on_c, 0, 66, 0
4, 46800, Note_on_c, 0, 69, 62
4, 46920, Note_on_c, 0, 69, 0
4, 46920, Note_on_c, 0, 78, 62
4, 47040, Note_on_c, 0, 78, 0
4, 47160, Note_on_c, 0, 63, 62
4, 47280, Note_on_c, 0, 63, 0
4, 47280, Note_on_c, 0, 66, 62
4, 47400, Note_on_c, 0, 66, 0
4, 47400, Note_on_c, 0, 72, 62
4, 47520, Note_on_c, 0, 72, 0
4, 47640, Note_on_c, 0, 64, 62
4, 47760, Note_on_c, 0, 64, 0
4, 47760, Note_on_c, 0, 67, 62
4, 47880, Note_on_c, 0, 67, 0
4, 47880, Note_on_c, 0, 71, 62
4, 48000, Note_on_c, 0, 71, 0
4, 48120, Note_on_c, 0, 57, 62
4, 48240, Note_on_c, 0, 57, 0
4, 48240, Note_on_c, 0, 60, 62
4, 48360, Note_on_c, 0, 60, 0
4, 48360, Note_on_c, 0, 69, 62
4, 48480, Note_on_c, 0, 69, 0
4, 48600, Note_on_c, 0, 58, 62
4, 48720, Note_on_c, 0, 58, 0
4, 48720, Note_on_c, 0, 61, 62
4, 48840, Note_on_c, 0, 61, 0
4, 48840, Note_on_c, 0, 67, 62
4, 48960, Note_on_c, 0, 67, 0
4, 49080, Note_on_c, 0, 59, 62
4, 49200, Note_on_c, 0, 59, 0
4, 49200, Note_on_c, 0, 66, 62
4, 49320, Note_on_c, 0, 66, 0
4, 49320, Note_on_c, 0, 71, 62
4, 49440, Note_on_c, 0, 71, 0
4, 49560, Note_on_c, 0, 63, 62
4, 49680, Note_on_c, 0, 63, 0
4, 49680, Note_on_c, 0, 66, 62
4, 49800, Note_on_c, 0, 66, 0
4, 49800, Note_on_c, 0, 75, 62
4, 49920, Note_on_c, 0, 75, 0
4, 50040, Note_on_c, 0, 63, 62
4, 50160, Note_on_c, 0, 63, 0
4, 50160, Note_on_c, 0, 72, 62
4, 50280, Note_on_c, 0, 72, 0
4, 50280, Note_on_c, 0, 78, 62
4, 50400, Note_on_c, 0, 78, 0
4, 50520, Note_on_c, 0, 64, 62
4, 50640, Note_on_c, 0, 64, 0
4, 50640, Note_on_c, 0, 71, 62
4, 50760, Note_on_c, 0, 71, 0
4, 50760, Note_on_c, 0, 76, 62
4, 50880, Note_on_c, 0, 76, 0
4, 51000, Note_on_c, 0, 57, 62
4, 51120, Note_on_c, 0, 57, 0
4, 51120, Note_on_c, 0, 66, 62
4, 51240, Note_on_c, 0, 66, 0
4, 51240, Note_on_c, 0, 72, 62
4, 51360, Note_on_c, 0, 72, 0
4, 51480, Note_on_c, 0, 58, 62
4, 51600, Note_on_c, 0, 58, 0
4, 51600, Note_on_c, 0, 67, 62
4, 51720, Note_on_c, 0, 67, 0
4, 51720, Note_on_c, 0, 73, 62
4, 51840, Note_on_c, 0, 73, 0
4, 51960, Note_on_c, 0, 59, 62
4, 52080, Note_on_c, 0, 59, 0
4, 52080, Note_on_c, 0, 66, 62
4, 52200, Note_on_c, 0, 66, 0
4, 52200, Note_on_c, 0, 71, 62
4, 52320, Note_on_c, 0, 71, 0
4, 52440, Note_on_c, 0, 59, 62
4, 52560, Note_on_c, 0, 59, 0
4, 52560, Note_on_c, 0, 63, 62
4, 52680, Note_on_c, 0, 63, 0
4, 52680, Note_on_c, 0, 69, 62
4, 52800, Note_on_c, 0, 69, 0
4, 52920, Note_on_c, 0, 67, 62
4, 53040, Note_on_c, 0, 67, 0
4, 53040, Note_on_c, 0, 66, 62
4, 53160, Note_on_c, 0, 66, 0
4, 53160, Note_on_c, 0, 71, 62
4, 53280, Note_on_c, 0, 71, 0
4, 53280, Note_on_c, 0, 67, 62
4, 53400, Note_on_c, 0, 67, 0
4, 53400, Note_on_c, 0, 64, 62
4, 53520, Note_on_c, 0, 64, 0
4, 53880, Note_on_c, 0, 59, 88
4, 54000, Note_on_c, 0, 59, 0
4, 54000, Note_on_c, 0, 64, 88
4, 54120, Note_on_c, 0, 64, 0
4, 54120, Note_on_c, 0, 67, 88
4, 54240, Note_on_c, 0, 67, 0
4, 54360, Note_on_c, 0, 57, 88
4, 54480, Note_on_c, 0, 57, 0
4, 54480, Note_on_c, 0, 63, 88
4, 54600, Note_on_c, 0, 63, 0
4, 54600, Note_on_c, 0, 66, 88
4, 54720, Note_on_c, 0, 66, 0
4, 54840, Note_on_c, 0, 54, 88
4, 54960, Note_on_c, 0, 54, 0
4, 54960, Note_on_c, 0, 57, 88
4, 55080, Note_on_c, 0, 57, 0
4, 55080, Note_on_c, 0, 60, 88
4, 55200, Note_on_c, 0, 60, 0
4, 55320, Note_on_c, 0, 47, 88
4, 55440, Note_on_c, 0, 47, 0
4, 55440, Note_on_c, 0, 55, 88
4, 55560, Note_on_c, 0, 55, 0
4, 55560, Note_on_c, 0, 59, 88
4, 55680, Note_on_c, 0, 59, 0
4, 55800, Note_on_c, 0, 48, 88
4, 55920, Note_on_c, 0, 48, 0
4, 55920, Note_on_c, 0, 54, 88
4, 56040, Note_on_c, 0, 54, 0
4, 56040, Note_on_c, 0, 57, 88
4, 56160, Note_on_c, 0, 57, 0
4, 56280, Note_on_c, 0, 49, 88
4, 56400, Note_on_c, 0, 49, 0
4, 56400, Note_on_c, 0, 52, 88
4, 56520, Note_on_c, 0, 52, 0
4, 56520, Note_on_c, 0, 55, 88
4, 56640, Note_on_c, 0, 55, 0
4, 56760, Note_on_c, 0, 47, 88
4, 56880, Note_on_c, 0, 47, 0
4, 56880, Note_on_c, 0, 51, 88
4, 57000, Note_on_c, 0, 51, 0
4, 57000, Note_on_c, 0, 54, 88
4, 57120, Note_on_c, 0, 54, 0
4, 57240, Note_on_c, 0, 51, 88
4, 57360, Note_on_c, 0, 51, 0
4, 57360, Note_on_c, 0, 54, 88
4, 57480, Note_on_c, 0, 54, 0
4, 57480, Note_on_c, 0, 59, 88
4, 57600, Note_on_c, 0, 59, 0
4, 57720, Note_on_c, 0, 54, 88
4, 57840, Note_on_c, 0, 54, 0
4, 57840, Note_on_c, 0, 57, 88
4, 57960, Note_on_c, 0, 57, 0
4, 57960, Note_on_c, 0, 60, 88
4, 58080, Note_on_c, 0, 60, 0
4, 58200, Note_on_c, 0, 47, 88
4, 58320, Note_on_c, 0, 47, 0
4, 58320, Note_on_c, 0, 55, 88
4, 58440, Note_on_c, 0, 55, 0
4, 58440, Note_on_c, 0, 59, 88
4, 58560, Note_on_c, 0, 59, 0
4, 58680, Note_on_c, 0, 48, 88
4, 58800, Note_on_c, 0, 48, 0
4, 58800, Note_on_c, 0, 54, 88
4, 58920, Note_on_c, 0, 54, 0
4, 58920, Note_on_c, 0, 57, 88
4, 59040, Note_on_c, 0, 57, 0
4, 59160, Note_on_c, 0, 49, 88
4, 59280, Note_on_c, 0, 49, 0
4, 59280, Note_on_c, 0, 52, 88
4, 59400, Note_on_c, 0, 52, 0
4, 59400, Note_on_c, 0, 55, 88
4, 59520, Note_on_c, 0, 55, 0
4, 59640, Note_on_c, 0, 47, 88
4, 59760, Note_on_c, 0, 47, 0
4, 59760, Note_on_c, 0, 51, 88
4, 59880, Note_on_c, 0, 51, 0
4, 59880, Note_on_c, 0, 54, 88
4, 60000, Note_on_c, 0, 54, 0
4, 60120, Note_on_c, 0, 59, 88
4, 60240, Note_on_c, 0, 59, 0
4, 60240, Note_on_c, 0, 63, 88
4, 60360, Note_on_c, 0, 63, 0
4, 60360, Note_on_c, 0, 69, 88
4, 60480, Note_on_c, 0, 69, 0
4, 60600, Note_on_c, 0, 59, 88
4, 60600, Note_on_c, 0, 64, 88
4, 60600, Note_on_c, 0, 67, 88
4, 60720, Note_on_c, 0, 67, 0
4, 60720, Note_on_c, 0, 64, 0
4, 60720, Note_on_c, 0, 59, 0
4, 60840, Note_on_c, 0, 57, 88
4, 60840, Note_on_c, 0, 63, 88
4, 60840, Note_on_c, 0, 66, 88
4, 60960, Note_on_c, 0, 66, 0
4, 60960, Note_on_c, 0, 63, 0
4, 60960, Note_on_c, 0, 57, 0
4, 61080, Note_on_c, 0, 55, 88
4, 61080, Note_on_c, 0, 59, 88
4, 61080, Note_on_c, 0, 64, 88
4, 61200, Note_on_c, 0, 64, 0
4, 61200, Note_on_c, 0, 59, 0
4, 61200, Note_on_c, 0, 55, 0
4, 61320, Note_on_c, 0, 54, 88
4, 61320, Note_on_c, 0, 59, 88
4, 61320, Note_on_c, 0, 63, 88
4, 61440, Note_on_c, 0, 63, 0
4, 61440, Note_on_c, 0, 59, 0
4, 61440, Note_on_c, 0, 54, 0
4, 61440, Note_on_c, 0, 40, 88
4, 61520, Note_on_c, 0, 40, 0
4, 61520, Note_on_c, 0, 44, 88
4, 61599, Note_on_c, 0, 44, 0
4, 61599, Note_on_c, 0, 47, 88
4, 61680, Note_on_c, 0, 47, 0
4, 61680, Note_on_c, 0, 52, 62
4, 61760, Note_on_c, 0, 52, 0
4, 61760, Note_on_c, 0, 56, 62
4, 61839, Note_on_c, 0, 56, 0
4, 61839, Note_on_c, 0, 59, 62
4, 61920, Note_on_c, 0, 59, 0
4, 61920, Note_on_c, 0, 64, 62
4, 61943, Note_on_c, 0, 64, 0
4, 62160, Note_on_c, 0, 59, 62
4, 62183, Note_on_c, 0, 59, 0
4, 62400, Note_on_c, 0, 64, 62
4, 62423, Note_on_c, 0, 64, 0
4, 62640, Note_on_c, 0, 59, 62
4, 62663, Note_on_c, 0, 59, 0
4, 62880, Note_on_c, 0, 64, 62
4, 62903, Note_on_c, 0, 64, 0
4, 63120, Note_on_c, 0, 59, 62
4, 63143, Note_on_c, 0, 59, 0
4, 63360, Note_on_c, 0, 57, 62
4, 63840, Note_on_c, 0, 57, 0
4, 63840, Note_on_c, 0, 61, 62
4, 63863, Note_on_c, 0, 61, 0
4, 64080, Note_on_c, 0, 66, 62
4, 64103, Note_on_c, 0, 66, 0
4, 64320, Note_on_c, 0, 56, 62
4, 64800, Note_on_c, 0, 56, 0
4, 64800, Note_on_c, 0, 59, 62
4, 64823, Note_on_c, 0, 59, 0
4, 65040, Note_on_c, 0, 64, 62
4, 65063, Note_on_c, 0, 64, 0
4, 65280, Note_on_c, 0, 54, 62
4, 65760, Note_on_c, 0, 54, 0
4, 65760, Note_on_c, 0, 57, 62
4, 65783, Note_on_c, 0, 57, 0
4, 66000, Note_on_c, 0, 63, 62
4, 66023, Note_on_c, 0, 63, 0
4, 66240, Note_on_c, 0, 52, 62
4, 66720, Note_on_c, 0, 52, 0
4, 66720, Note_on_c, 0, 56, 62
4, 66743, Note_on_c, 0, 56, 0
4, 66960, Note_on_c, 0, 61, 62
4, 66983, Note_on_c, 0, 61, 0
4, 67440, Note_on_c, 0, 54, 62
4, 67440, Note_on_c, 0, 57, 62
4, 67440, Note_on_c, 0, 61, 62
4, 67463, Note_on_c, 0, 61, 0
4, 67463, Note_on_c, 0, 57, 0
4, 67463, Note_on_c, 0, 54, 0
4, 67920, Note_on_c, 0, 54, 62
4, 67920, Note_on_c, 0, 57, 62
4, 67920, Note_on_c, 0, 59, 62
4, 67943, Note_on_c, 0, 59, 0
4, 67943, Note_on_c, 0, 57, 0
4, 67943, Note_on_c, 0, 54, 0
4, 68280, Note_on_c, 0, 56, 62
4, 68280, Note_on_c, 0, 59, 62
4, 68400, Note_on_c, 0, 59, 0
4, 68400, Note_on_c, 0, 56, 0
4, 68520, Note_on_c, 0, 54, 62
4, 68520, Note_on_c, 0, 59, 62
4, 68640, Note_on_c, 0, 59, 0
4, 68640, Note_on_c, 0, 54, 0
4, 68760, Note_on_c, 0, 56, 88
4, 68760, Note_on_c, 0, 59, 88
4, 68880, Note_on_c, 0, 59, 0
4, 68880, Note_on_c, 0, 56, 0
4, 69000, Note_on_c, 0, 52, 88
4, 69000, Note_on_c, 0, 57, 88
4, 69000, Note_on_c, 0, 61, 88
4, 69120, Note_on_c, 0, 61, 0
4, 69120, Note_on_c, 0, 57, 0
4, 69120, Note_on_c, 0, 52, 0
4, 69120, Note_on_c, 0, 40, 88
4, 69200, Note_on_c, 0, 40, 0
4, 69200, Note_on_c, 0, 44, 88
4, 69279, Note_on_c, 0, 44, 0
4, 69279, Note_on_c, 0, 47, 88
4, 69360, Note_on_c, 0, 47, 0
4, 69360, Note_on_c, 0, 52, 62
4, 69440, Note_on_c, 0, 52, 0
4, 69440, Note_on_c, 0, 56, 62
4, 69519, Note_on_c, 0, 56, 0
4, 69519, Note_on_c, 0, 59, 62
4, 69600, Note_on_c, 0, 59, 0
4, 69600, Note_on_c, 0, 64, 62
4, 69623, Note_on_c, 0, 64, 0
4, 69840, Note_on_c, 0, 59, 62
4, 69863, Note_on_c, 0, 59, 0
4, 70080, Note_on_c, 0, 64, 62
4, 70103, Note_on_c, 0, 64, 0
4, 70320, Note_on_c, 0, 59, 62
4, 70343, Note_on_c, 0, 59, 0
4, 70560, Note_on_c, 0, 64, 62
4, 70583, Note_on_c, 0, 64, 0
4, 70800, Note_on_c, 0, 59, 62
4, 70823, Note_on_c, 0, 59, 0
4, 71040, Note_on_c, 0, 45, 62
4, 71136, Note_on_c, 0, 45, 0
4, 71136, Note_on_c, 0, 49, 62
4, 71232, Note_on_c, 0, 49, 0
4, 71232, Note_on_c, 0, 54, 62
4, 71327, Note_on_c, 0, 54, 0
4, 71327, Note_on_c, 0, 57, 62
4, 71423, Note_on_c, 0, 57, 0
4, 71423, Note_on_c, 0, 61, 62
4, 71520, Note_on_c, 0, 61, 0
4, 71520, Note_on_c, 0, 66, 62
4, 71543, Note_on_c, 0, 66, 0
4, 71760, Note_on_c, 0, 61, 62
4, 71783, Note_on_c, 0, 61, 0
4, 72000, Note_on_c, 0, 44, 62
4, 72096, Note_on_c, 0, 44, 0
4, 72096, Note_on_c, 0, 47, 62
4, 72192, Note_on_c, 0, 47, 0
4, 72192, Note_on_c, 0, 52, 62
4, 72287, Note_on_c, 0, 52, 0
4, 72287, Note_on_c, 0, 56, 62
4, 72383, Note_on_c, 0, 56, 0
4, 72383, Note_on_c, 0, 59, 62
4, 72480, Note_on_c, 0, 59, 0
4, 72480, Note_on_c, 0, 64, 62
4, 72503, Note_on_c, 0, 64, 0
4, 72720, Note_on_c, 0, 59, 62
4, 72743, Note_on_c, 0, 59, 0
4, 72960, Note_on_c, 0, 42, 62
4, 73056, Note_on_c, 0, 42, 0
4, 73056, Note_on_c, 0, 45, 62
4, 73152, Note_on_c, 0, 45, 0
4, 73152, Note_on_c, 0, 51, 62
4, 73247, Note_on_c, 0, 51, 0
4, 73247, Note_on_c, 0, 54, 62
4, 73343, Note_on_c, 0, 54, 0
4, 73343, Note_on_c, 0, 57, 62
4, 73440, Note_on_c, 0, 57, 0
4, 73440, Note_on_c, 0, 63, 62
4, 73463, Note_on_c, 0, 63, 0
4, 73680, Note_on_c, 0, 57, 62
4, 73703, Note_on_c, 0, 57, 0
4, 73920, Note_on_c, 0, 40, 62
4, 74016, Note_on_c, 0, 40, 0
4, 74016, Note_on_c, 0, 44, 62
4, 74112, Note_on_c, 0, 44, 0
4, 74112, Note_on_c, 0, 49, 62
4, 74207, Note_on_c, 0, 49, 0
4, 74207, Note_on_c, 0, 52, 62
4, 74303, Note_on_c, 0, 52, 0
4, 74303, Note_on_c, 0, 56, 62
4, 74400, Note_on_c, 0, 56, 0
4, 74400, Note_on_c, 0, 61, 62
4, 74423, Note_on_c, 0, 61, 0
4, 74640, Note_on_c, 0, 56, 62
4, 74663, Note_on_c, 0, 56, 0
4, 75120, Note_on_c, 0, 54, 62
4, 75120, Note_on_c, 0, 57, 62
4, 75120, Note_on_c, 0, 61, 62
4, 75143, Note_on_c, 0, 61, 0
4, 75143, Note_on_c, 0, 57, 0
4, 75143, Note_on_c, 0, 54, 0
4, 75600, Note_on_c, 0, 54, 62
4, 75600, Note_on_c, 0, 57, 62
4, 75600, Note_on_c, 0, 59, 62
4, 75623, Note_on_c, 0, 59, 0
4, 75623, Note_on_c, 0, 57, 0
4, 75623, Note_on_c, 0, 54, 0
4, 75960, Note_on_c, 0, 56, 62
4, 75960, Note_on_c, 0, 59, 62
4, 76080, Note_on_c, 0, 59, 0
4, 76080, Note_on_c, 0, 56, 0
4, 76200, Note_on_c, 0, 54, 62
4, 76200, Note_on_c, 0, 57, 62
4, 76200, Note_on_c, 0, 59, 62
4, 76320, Note_on_c, 0, 59, 0
4, 76320, Note_on_c, 0, 57, 0
4, 76320, Note_on_c, 0, 54, 0
4, 76440, Note_on_c, 0, 56, 62
4, 76440, Note_on_c, 0, 59, 62
4, 76560, Note_on_c, 0, 59, 0
4, 76560, Note_on_c, 0, 56, 0
4, 76800, Note_on_c, 0, 52, 62
4, 76880, Note_on_c, 0, 52, 0
4, 76880, Note_on_c, 0, 56, 62
4, 76959, Note_on_c, 0, 56, 0
4, 76959, Note_on_c, 0, 58, 62
4, 77040, Note_on_c, 0, 58, 0
4, 77040, Note_on_c, 0, 59, 62
4, 77120, Note_on_c, 0, 59, 0
4, 77120, Note_on_c, 0, 64, 62
4, 77199, Note_on_c, 0, 64, 0
4, 77199, Note_on_c, 0, 68, 62
4, 77280, Note_on_c, 0, 68, 0
4, 77280, Note_on_c, 0, 71, 62
4, 77303, Note_on_c, 0, 71, 0
4, 77520, Note_on_c, 0, 68, 62
4, 77543, Note_on_c, 0, 68, 0
4, 78240, Note_on_c, 0, 71, 62
4, 78263, Note_on_c, 0, 71, 0
4, 78480, Note_on_c, 0, 66, 62
4, 78503, Note_on_c, 0, 66, 0
4, 79200, Note_on_c, 0, 70, 62
4, 79223, Note_on_c, 0, 70, 0
4, 79440, Note_on_c, 0, 64, 62
4, 79463, Note_on_c, 0, 64, 0
4, 80160, Note_on_c, 0, 54, 62
4, 80256, Note_on_c, 0, 54, 0
4, 80256, Note_on_c, 0, 59, 62
4, 80352, Note_on_c, 0, 59, 0
4, 80352, Note_on_c, 0, 63, 62
4, 80447, Note_on_c, 0, 63, 0
4, 80447, Note_on_c, 0, 66, 62
4, 80543, Note_on_c, 0, 66, 0
4, 80543, Note_on_c, 0, 71, 62
4, 80640, Note_on_c, 0, 71, 0
4, 80640, Note_on_c, 0, 57, 62
4, 80720, Note_on_c, 0, 57, 0
4, 80720, Note_on_c, 0, 61, 62
4, 80799, Note_on_c, 0, 61, 0
4, 80799, Note_on_c, 0, 63, 62
4, 80880, Note_on_c, 0, 63, 0
4, 80880, Note_on_c, 0, 64, 62
4, 80960, Note_on_c, 0, 64, 0
4, 80960, Note_on_c, 0, 69, 62
4, 81039, Note_on_c, 0, 69, 0
4, 81039, Note_on_c, 0, 73, 62
4, 81120, Note_on_c, 0, 73, 0
4, 81120, Note_on_c, 0, 76, 62
4, 81143, Note_on_c, 0, 76, 0
4, 81360, Note_on_c, 0, 73, 62
4, 81383, Note_on_c, 0, 73, 0
4, 81600, Note_on_c, 0, 56, 62
4, 81680, Note_on_c, 0, 56, 0
4, 81680, Note_on_c, 0, 59, 62
4, 81759, Note_on_c, 0, 59, 0
4, 81759, Note_on_c, 0, 63, 62
4, 81840, Note_on_c, 0, 63, 0
4, 81840, Note_on_c, 0, 64, 62
4, 81920, Note_on_c, 0, 64, 0
4, 81920, Note_on_c, 0, 68, 62
4, 81999, Note_on_c, 0, 68, 0
4, 81999, Note_on_c, 0, 71, 62
4, 82080, Note_on_c, 0, 71, 0
4, 82080, Note_on_c, 0, 76, 62
4, 82103, Note_on_c, 0, 76, 0
4, 82320, Note_on_c, 0, 71, 62
4, 82343, Note_on_c, 0, 71, 0
4, 82560, Note_on_c, 0, 54, 62
4, 82640, Note_on_c, 0, 54, 0
4, 82640, Note_on_c, 0, 57, 62
4, 82719, Note_on_c, 0, 57, 0
4, 82719, Note_on_c, 0, 61, 62
4, 82800, Note_on_c, 0, 61, 0
4, 82800, Note_on_c, 0, 63, 62
4, 82880, Note_on_c, 0, 63, 0
4, 82880, Note_on_c, 0, 66, 62
4, 82959, Note_on_c, 0, 66, 0
4, 82959, Note_on_c, 0, 69, 62
4, 83040, Note_on_c, 0, 69, 0
4, 83040, Note_on_c, 0, 75, 62
4, 83063, Note_on_c, 0, 75, 0
4, 83280, Note_on_c, 0, 69, 62
4, 83303, Note_on_c, 0, 69, 0
4, 84480, Note_on_c, 0, 61, 88
4, 84480, Note_on_c, 0, 66, 88
4, 84600, Note_on_c, 0, 66, 0
4, 84600, Note_on_c, 0, 61, 0
4, 84600, Note_on_c, 0, 65, 88
4, 84600, Note_on_c, 0, 68, 88
4, 84720, Note_on_c, 0, 68, 0
4, 84720, Note_on_c, 0, 65, 0
4, 84720, Note_on_c, 0, 66, 88
4, 84720, Note_on_c, 0, 69, 88
4, 85200, Note_on_c, 0, 69, 0
4, 85200, Note_on_c, 0, 66, 0
4, 85200, Note_on_c, 0, 63, 88
4, 85200, Note_on_c, 0, 66, 88
4, 85440, Note_on_c, 0, 66, 0
4, 85440, Note_on_c, 0, 63, 0
4, 85440, Note_on_c, 0, 64, 88
4, 85440, Note_on_c, 0, 68, 88
4, 85560, Note_on_c, 0, 68, 0
4, 85560, Note_on_c, 0, 64, 0
4, 85560, Note_on_c, 0, 66, 88
4, 85560, Note_on_c, 0, 69, 88
4, 85680, Note_on_c, 0, 69, 0
4, 85680, Note_on_c, 0, 66, 0
4, 85680, Note_on_c, 0, 68, 88
4, 85680, Note_on_c, 0, 71, 88
4, 86160, Note_on_c, 0, 71, 0
4, 86160, Note_on_c, 0, 68, 0
4, 86160, Note_on_c, 0, 64, 88
4, 86160, Note_on_c, 0, 68, 88
4, 86400, Note_on_c, 0, 68, 0
4, 86400, Note_on_c, 0, 64, 0
4, 86400, Note_on_c, 0, 61, 88
4, 86400, Note_on_c, 0, 66, 88
4, 86520, Note_on_c, 0, 66, 0
4, 86520, Note_on_c, 0, 61, 0
4, 86520, Note_on_c, 0, 65, 88
4, 86520, Note_on_c, 0, 68, 88
4, 86640, Note_on_c, 0, 68, 0
4, 86640, Note_on_c, 0, 65, 0
4, 86640, Note_on_c, 0, 66, 88
4, 86640, Note_on_c, 0, 69, 88
4, 87120, Note_on_c, 0, 69, 0
4, 87120, Note_on_c, 0, 66, 0
4, 87120, Note_on_c, 0, 63, 88
4, 87120, Note_on_c, 0, 66, 88
4, 87360, Note_on_c, 0, 66, 0
4, 87360, Note_on_c, 0, 63, 0
4, 87360, Note_on_c, 0, 64, 88
4, 87360, Note_on_c, 0, 68, 88
4, 87480, Note_on_c, 0, 68, 0
4, 87480, Note_on_c, 0, 64, 0
4, 87480, Note_on_c, 0, 66, 88
4, 87480, Note_on_c, 0, 69, 88
4, 87600, Note_on_c, 0, 69, 0
4, 87600, Note_on_c, 0, 66, 0
4, 87600, Note_on_c, 0, 68, 88
4, 87600, Note_on_c, 0, 71, 88
4, 88080, Note_on_c, 0, 71, 0
4, 88080, Note_on_c, 0, 68, 0
4, 88080, Note_on_c, 0, 64, 88
4, 88080, Note_on_c, 0, 68, 88
4, 88320, Note_on_c, 0, 68, 0
4, 88320, Note_on_c, 0, 64, 0
4, 88320, Note_on_c, 0, 61, 88
4, 88320, Note_on_c, 0, 66, 88
4, 88440, Note_on_c, 0, 66, 0
4, 88440, Note_on_c, 0, 61, 0
4, 88440, Note_on_c, 0, 65, 88
4, 88440, Note_on_c, 0, 68, 88
4, 88560, Note_on_c, 0, 68, 0
4, 88560, Note_on_c, 0, 65, 0
4, 88560, Note_on_c, 0, 66, 88
4, 88560, Note_on_c, 0, 69, 88
4, 88800, Note_on_c, 0, 69, 0
4, 88800, Note_on_c, 0, 66, 0
4, 88800, Note_on_c, 0, 66, 88
4, 88800, Note_on_c, 0, 69, 88
4, 88920, Note_on_c, 0, 69, 0
4, 88920, Note_on_c, 0, 66, 0
4, 88920, Note_on_c, 0, 68, 88
4, 88920, Note_on_c, 0, 71, 88
4, 89040, Note_on_c, 0, 71, 0
4, 89040, Note_on_c, 0, 68, 0
4, 89040, Note_on_c, 0, 69, 88
4, 89040, Note_on_c, 0, 73, 88
4, 89280, Note_on_c, 0, 73, 0
4, 89280, Note_on_c, 0, 69, 0
4, 89520, Note_on_c, 0, 57, 88
4, 89520, Note_on_c, 0, 59, 88
4, 89520, Note_on_c, 0, 63, 88
4, 89760, Note_on_c, 0, 63, 0
4, 89760, Note_on_c, 0, 59, 0
4, 89760, Note_on_c, 0, 57, 0
4, 90000, Note_on_c, 0, 54, 88
4, 90000, Note_on_c, 0, 57, 88
4, 90240, Note_on_c, 0, 57, 0
4, 90240, Note_on_c, 0, 54, 0
4, 90240, Note_on_c, 0, 52, 88
4, 90240, Note_on_c, 0, 56, 88
4, 90480, Note_on_c, 0, 56, 0
4, 90480, Note_on_c, 0, 52, 0
4, 90720, Note_on_c, 0, 52, 88
4, 90720, Note_on_c, 0, 56, 88
4, 90720, Note_on_c, 0, 59, 88
4, 90960, Note_on_c, 0, 59, 0
4, 90960, Note_on_c, 0, 56, 0
4, 90960, Note_on_c, 0, 52, 0
4, 91680, Note_on_c, 0, 52, 114
4, 91680, Note_on_c, 0, 56, 114
4, 91680, Note_on_c, 0, 59, 114
4, 91920, Note_on_c, 0, 59, 0
4, 91920, Note_on_c, 0, 56, 0
4, 91920, Note_on_c, 0, 52, 0
4, 92160, Note_on_c, 0, 47, 114
4, 92160, Note_on_c, 0, 52, 114
4, 92160, Note_on_c, 0, 56, 114
4, 95040, Note_on_c, 0, 56, 0
4, 95040, Note_on_c, 0, 52, 0
4, 95040, Note_on_c, 0, 47, 0
4, 95040, End_track
5, 0, Start_track
5, 0, Title_t, "Instrument19"
5, 0, Program_c, 0, 0
5, 0, Control_c, 0, 7, 110
5, 0, Control_c, 0, 10, 30
5, 0, Note_on_c, 0, 35, 90
5, 23, Note_on_c, 0, 35, 0
5, 480, Note_on_c, 0, 35, 64
5, 503, Note_on_c, 0, 35, 0
5, 960, Note_on_c, 0, 40, 90
5, 983, Note_on_c, 0, 40, 0
5, 1440, Note_on_c, 0, 42, 64
5, 1463, Note_on_c, 0, 42, 0
5, 1920, Note_on_c, 0, 38, 64
5, 1943, Note_on_c, 0, 38, 0
5, 2400, Note_on_c, 0, 42, 64
5, 2423, Note_on_c, 0, 42, 0
5, 2880, Note_on_c, 0, 35, 64
5, 2903, Note_on_c, 0, 35, 0
5, 3360, Note_on_c, 0, 47, 90
5, 3840, Note_on_c, 0, 47, 0
5, 3840, Note_on_c, 0, 40, 64
5, 4080, Note_on_c, 0, 40, 0
5, 4200, Note_on_c, 0, 52, 64
5, 4215, Note_on_c, 0, 52, 0
5, 4320, Note_on_c, 0, 38, 64
5, 4343, Note_on_c, 0, 38, 0
5, 4560, Note_on_c, 0, 50, 64
5, 4583, Note_on_c, 0, 50, 0
5, 4800, Note_on_c, 0, 37, 64
5, 4823, Note_on_c, 0, 37, 0
5, 5160, Note_on_c, 0, 49, 64
5, 5175, Note_on_c, 0, 49, 0
5, 5280, Note_on_c, 0, 30, 64
5, 5303, Note_on_c, 0, 30, 0
5, 5520, Note_on_c, 0, 42, 64
5, 5543, Note_on_c, 0, 42, 0
5, 5760, Note_on_c, 0, 35, 64
5, 5760, Note_on_c, 0, 47, 64
5, 5783, Note_on_c, 0, 47, 0
5, 5783, Note_on_c, 0, 35, 0
5, 6240, Note_on_c, 0, 30, 64
5, 6240, Note_on_c, 0, 42, 64
5, 6263, Note_on_c, 0, 42, 0
5, 6263, Note_on_c, 0, 30, 0
5, 6720, Note_on_c, 0, 47, 64
5, 6840, Note_on_c, 0, 47, 0
5, 6840, Note_on_c, 0, 45, 64
5, 6960, Note_on_c, 0, 45, 0
5, 6960, Note_on_c, 0, 43, 64
5, 7080, Note_on_c, 0, 43, 0
5, 7080, Note_on_c, 0, 42, 64
5, 7200, Note_on_c, 0, 42, 0
5, 7200, Note_on_c, 0, 28, 64
5, 7200, Note_on_c, 0, 40, 64
5, 7223, Note_on_c, 0, 40, 0
5, 7223, Note_on_c, 0, 28, 0
5, 7680, Note_on_c, 0, 35, 90
5, 7703, Note_on_c, 0, 35, 0
5, 8160, Note_on_c, 0, 35, 64
5, 8183, Note_on_c, 0, 35, 0
5, 8640, Note_on_c, 0, 40, 90
5, 8663, Note_on_c, 0, 40, 0
5, 9120, Note_on_c, 0, 42, 64
5, 9143, Note_on_c, 0, 42, 0
5, 9600, Note_on_c, 0, 38, 64
5, 9623, Note_on_c, 0, 38, 0
5, 10080, Note_on_c, 0, 42, 64
5, 10103, Note_on_c, 0, 42, 0
5, 10560, Note_on_c, 0, 35, 64
5, 10583, Note_on_c, 0, 35, 0
5, 11040, Note_on_c, 0, 47, 90
5, 11520, Note_on_c, 0, 47, 0
5, 11520, Note_on_c, 0, 40, 64
5, 11760, Note_on_c, 0, 40, 0
5, 11880, Note_on_c, 0, 52, 64
5, 11895, Note_on_c, 0, 52, 0
5, 12000, Note_on_c, 0, 38, 64
5, 12023, Note_on_c, 0, 38, 0
5, 12240, Note_on_c, 0, 50, 64
5, 12263, Note_on_c, 0, 50, 0
5, 12480, Note_on_c, 0, 37, 64
5, 12503, Note_on_c, 0, 37, 0
5, 12840, Note_on_c, 0, 49, 64
5, 12855, Note_on_c, 0, 49, 0
5, 12960, Note_on_c, 0, 30, 64
5, 12983, Note_on_c, 0, 30, 0
5, 13200, Note_on_c, 0, 42, 64
5, 13223, Note_on_c, 0, 42, 0
5, 13440, Note_on_c, 0, 35, 64
5, 13440, Note_on_c, 0, 47, 64
5, 13463, Note_on_c, 0, 47, 0
5, 13463, Note_on_c, 0, 35, 0
5, 13920, Note_on_c, 0, 30, 64
5, 13920, Note_on_c, 0, 42, 64
5, 13943, Note_on_c, 0, 42, 0
5, 13943, Note_on_c, 0, 30, 0
5, 14400, Note_on_c, 0, 47, 64
5, 14520, Note_on_c, 0, 47, 0
5, 14520, Note_on_c, 0, 45, 64
5, 14640, Note_on_c, 0, 45, 0
5, 14640, Note_on_c, 0, 43, 64
5, 14760, Note_on_c, 0, 43, 0
5, 14760, Note_on_c, 0, 42, 64
5, 14880, Note_on_c, 0, 42, 0
5, 14880, Note_on_c, 0, 28, 64
5, 14880, Note_on_c, 0, 40, 64
5, 14903, Note_on_c, 0, 40, 0
5, 14903, Note_on_c, 0, 28, 0
5, 15360, Note_on_c, 0, 26, 62
5, 15383, Note_on_c, 0, 26, 0
5, 15840, Note_on_c, 0, 38, 62
5, 15863, Note_on_c, 0, 38, 0
5, 16320, Note_on_c, 0, 31, 62
5, 16343, Note_on_c, 0, 31, 0
5, 16560, Note_on_c, 0, 43, 62
5, 17040, Note_on_c, 0, 43, 0
5, 17040, Note_on_c, 0, 43, 62
5, 17063, Note_on_c, 0, 43, 0
5, 17280, Note_on_c, 0, 26, 75
5, 17303, Note_on_c, 0, 26, 0
5, 17760, Note_on_c, 0, 38, 75
5, 17783, Note_on_c, 0, 38, 0
5, 18240, Note_on_c, 0, 31, 75
5, 18263, Note_on_c, 0, 31, 0
5, 18480, Note_on_c, 0, 43, 75
5, 18960, Note_on_c, 0, 43, 0
5, 18960, Note_on_c, 0, 43, 75
5, 18983, Note_on_c, 0, 43, 0
5, 19200, Note_on_c, 0, 23, 62
5, 19200, Note_on_c, 0, 35, 62
5, 19223, Note_on_c, 0, 35, 0
5, 19223, Note_on_c, 0, 23, 0
5, 19680, Note_on_c, 0, 35, 62
5, 19703, Note_on_c, 0, 35, 0
5, 20160, Note_on_c, 0, 40, 62
5, 20183, Note_on_c, 0, 40, 0
5, 20640, Note_on_c, 0, 36, 62
5, 20663, Note_on_c, 0, 36, 0
5, 21120, Note_on_c, 0, 31, 62
5, 21120, Note_on_c, 0, 43, 62
5, 21143, Note_on_c, 0, 43, 0
5, 21143, Note_on_c, 0, 31, 0
5, 21600, Note_on_c, 0, 35, 62
5, 21600, Note_on_c, 0, 47, 62
5, 21623, Note_on_c, 0, 47, 0
5, 21623, Note_on_c, 0, 35, 0
5, 22080, Note_on_c, 0, 40, 62
5, 22103, Note_on_c, 0, 40, 0
5, 22320, Note_on_c, 0, 35, 62
5, 22343, Note_on_c, 0, 35, 0
5, 22560, Note_on_c, 0, 40, 62
5, 22583, Note_on_c, 0, 40, 0
5, 23040, Note_on_c, 0, 26, 62
5, 23063, Note_on_c, 0, 26, 0
5, 23520, Note_on_c, 0, 38, 62
5, 23543, Note_on_c, 0, 38, 0
5, 24000, Note_on_c, 0, 31, 62
5, 24023, Note_on_c, 0, 31, 0
5, 24240, Note_on_c, 0, 43, 62
5, 24720, Note_on_c, 0, 43, 0
5, 24720, Note_on_c, 0, 43, 62
5, 24743, Note_on_c, 0, 43, 0
5, 24960, Note_on_c, 0, 26, 75
5, 24983, Note_on_c, 0, 26, 0
5, 25440, Note_on_c, 0, 38, 75
5, 25463, Note_on_c, 0, 38, 0
5, 25920, Note_on_c, 0, 31, 75
5, 25943, Note_on_c, 0, 31, 0
5, 26160, Note_on_c, 0, 43, 75
5, 26640, Note_on_c, 0, 43, 0
5, 26640, Note_on_c, 0, 43, 75
5, 26663, Note_on_c, 0, 43, 0
5, 26880, Note_on_c, 0, 23, 62
5, 26880, Note_on_c, 0, 35, 62
5, 26903, Note_on_c, 0, 35, 0
5, 26903, Note_on_c, 0, 23, 0
5, 27360, Note_on_c, 0, 35, 62
5, 27383, Note_on_c, 0, 35, 0
5, 27840, Note_on_c, 0, 40, 62
5, 27863, Note_on_c, 0, 40, 0
5, 28320, Note_on_c, 0, 36, 62
5, 28343, Note_on_c, 0, 36, 0
5, 28800, Note_on_c, 0, 31, 62
5, 28800, Note_on_c, 0, 43, 62
5, 28823, Note_on_c, 0, 43, 0
5, 28823, Note_on_c, 0, 31, 0
5, 29280, Note_on_c, 0, 35, 62
5, 29280, Note_on_c, 0, 47, 62
5, 29303, Note_on_c, 0, 47, 0
5, 29303, Note_on_c, 0, 35, 0
5, 29760, Note_on_c, 0, 40, 62
5, 29783, Note_on_c, 0, 40, 0
5, 30000, Note_on_c, 0, 35, 62
5, 30023, Note_on_c, 0, 35, 0
5, 30240, Note_on_c, 0, 40, 62
5, 30263, Note_on_c, 0, 40, 0
5, 30720, Note_on_c, 0, 52, 62
5, 30743, Note_on_c, 0, 52, 0
5, 30960, Note_on_c, 0, 47, 62
5, 30983, Note_on_c, 0, 47, 0
5, 31200, Note_on_c, 0, 52, 75
5, 31223, Note_on_c, 0, 52, 0
5, 31440, Note_on_c, 0, 47, 75
5, 31463, Note_on_c, 0, 47, 0
5, 31680, Note_on_c, 0, 52, 75
5, 31703, Note_on_c, 0, 52, 0
5, 31920, Note_on_c, 0, 47, 75
5, 31943, Note_on_c, 0, 47, 0
5, 32160, Note_on_c, 0, 52, 88
5, 32183, Note_on_c, 0, 52, 0
5, 32400, Note_on_c, 0, 47, 88
5, 32423, Note_on_c, 0, 47, 0
5, 32640, Note_on_c, 0, 52, 88
5, 32663, Note_on_c, 0, 52, 0
5, 32880, Note_on_c, 0, 47, 88
5, 32903, Note_on_c, 0, 47, 0
5, 33120, Note_on_c, 0, 48, 75
5, 33143, Note_on_c, 0, 48, 0
5, 33360, Note_on_c, 0, 45, 75
5, 33383, Note_on_c, 0, 45, 0
5, 33600, Note_on_c, 0, 35, 75
5, 33600, Note_on_c, 0, 47, 75
5, 34080, Note_on_c, 0, 47, 0
5, 34080, Note_on_c, 0, 35, 0
5, 34080, Note_on_c, 0, 47, 62
5, 34560, Note_on_c, 0, 47, 0
5, 34560, Note_on_c, 0, 50, 62
5, 34583, Note_on_c, 0, 50, 0
5, 34800, Note_on_c, 0, 45, 62
5, 34823, Note_on_c, 0, 45, 0
5, 35040, Note_on_c, 0, 50, 75
5, 35063, Note_on_c, 0, 50, 0
5, 35280, Note_on_c, 0, 45, 75
5, 35303, Note_on_c, 0, 45, 0
5, 35520, Note_on_c, 0, 50, 75
5, 35543, Note_on_c, 0, 50, 0
5, 35760, Note_on_c, 0, 45, 75
5, 35783, Note_on_c, 0, 45, 0
5, 36000, Note_on_c, 0, 50, 88
5, 36023, Note_on_c, 0, 50, 0
5, 36240, Note_on_c, 0, 45, 88
5, 36263, Note_on_c, 0, 45, 0
5, 36480, Note_on_c, 0, 50, 88
5, 36503, Note_on_c, 0, 50, 0
5, 36720, Note_on_c, 0, 45, 88
5, 36743, Note_on_c, 0, 45, 0
5, 36960, Note_on_c, 0, 47, 88
5, 36983, Note_on_c, 0, 47, 0
5, 37200, Note_on_c, 0, 42, 88
5, 37223, Note_on_c, 0, 42, 0
5, 37440, Note_on_c, 0, 31, 62
5, 37440, Note_on_c, 0, 43, 62
5, 37920, Note_on_c, 0, 43, 0
5, 37920, Note_on_c, 0, 31, 0
5, 37920, Note_on_c, 0, 43, 62
5, 38400, Note_on_c, 0, 43, 0
5, 38400, Note_on_c, 0, 52, 88
5, 38423, Note_on_c, 0, 52, 0
5, 38640, Note_on_c, 0, 50, 88
5, 38663, Note_on_c, 0, 50, 0
5, 38880, Note_on_c, 0, 48, 88
5, 38903, Note_on_c, 0, 48, 0
5, 39120, Note_on_c, 0, 47, 88
5, 39143, Note_on_c, 0, 47, 0
5, 39360, Note_on_c, 0, 45, 101
5, 39383, Note_on_c, 0, 45, 0
5, 39600, Note_on_c, 0, 43, 101
5, 39623, Note_on_c, 0, 43, 0
5, 39840, Note_on_c, 0, 42, 101
5, 39863, Note_on_c, 0, 42, 0
5, 40080, Note_on_c, 0, 40, 101
5, 40103, Note_on_c, 0, 40, 0
5, 40320, Note_on_c, 0, 38, 114
5, 40343, Note_on_c, 0, 38, 0
5, 40560, Note_on_c, 0, 36, 114
5, 40583, Note_on_c, 0, 36, 0
5, 40800, Note_on_c, 0, 35, 114
5, 40823, Note_on_c, 0, 35, 0
5, 41040, Note_on_c, 0, 33, 114
5, 41063, Note_on_c, 0, 33, 0
5, 41280, Note_on_c, 0, 31, 114
5, 41303, Note_on_c, 0, 31, 0
5, 41520, Note_on_c, 0, 33, 101
5, 41543, Note_on_c, 0, 33, 0
5, 41760, Note_on_c, 0, 35, 88
5, 41783, Note_on_c, 0, 35, 0
5, 42000, Note_on_c, 0, 47, 88
5, 42023, Note_on_c, 0, 47, 0
5, 42240, Note_on_c, 0, 54, 88
5, 42263, Note_on_c, 0, 54, 0
5, 42480, Note_on_c, 0, 52, 88
5, 42503, Note_on_c, 0, 52, 0
5, 42720, Note_on_c, 0, 50, 88
5, 42743, Note_on_c, 0, 50, 0
5, 42960, Note_on_c, 0, 48, 88
5, 42983, Note_on_c, 0, 48, 0
5, 43200, Note_on_c, 0, 47, 101
5, 43223, Note_on_c, 0, 47, 0
5, 43440, Note_on_c, 0, 45, 101
5, 43463, Note_on_c, 0, 45, 0
5, 43680, Note_on_c, 0, 43, 101
5, 43703, Note_on_c, 0, 43, 0
5, 43920, Note_on_c, 0, 41, 101
5, 43943, Note_on_c, 0, 41, 0
5, 44160, Note_on_c, 0, 40, 75
5, 44183, Note_on_c, 0, 40, 0
5, 44400, Note_on_c, 0, 39, 75
5, 44423, Note_on_c, 0, 39, 0
5, 44640, Note_on_c, 0, 40, 75
5, 44663, Note_on_c, 0, 40, 0
5, 44880, Note_on_c, 0, 33, 75
5, 44903, Note_on_c, 0, 33, 0
5, 45120, Note_on_c, 0, 38, 62
5, 45600, Note_on_c, 0, 38, 0
5, 45600, Note_on_c, 0, 43, 62
5, 46080, Note_on_c, 0, 43, 0
5, 46080, Note_on_c, 0, 64, 75
5, 46103, Note_on_c, 0, 64, 0
5, 46560, Note_on_c, 0, 66, 75
5, 46583, Note_on_c, 0, 66, 0
5, 47280, Note_on_c, 0, 63, 75
5, 47303, Note_on_c, 0, 63, 0
5, 47760, Note_on_c, 0, 64, 75
5, 47783, Note_on_c, 0, 64, 0
5, 48000, Note_on_c, 0, 57, 75
5, 48023, Note_on_c, 0, 57, 0
5, 48480, Note_on_c, 0, 58, 75
5, 48503, Note_on_c, 0, 58, 0
5, 48960, Note_on_c, 0, 59, 75
5, 48983, Note_on_c, 0, 59, 0
5, 49440, Note_on_c, 0, 47, 75
5, 49463, Note_on_c, 0, 47, 0
5, 49920, Note_on_c, 0, 63, 75
5, 49943, Note_on_c, 0, 63, 0
5, 50400, Note_on_c, 0, 64, 75
5, 50423, Note_on_c, 0, 64, 0
5, 50880, Note_on_c, 0, 57, 75
5, 50903, Note_on_c, 0, 57, 0
5, 51360, Note_on_c, 0, 58, 75
5, 51383, Note_on_c, 0, 58, 0
5, 51840, Note_on_c, 0, 59, 75
5, 51863, Note_on_c, 0, 59, 0
5, 52320, Note_on_c, 0, 59, 75
5, 52343, Note_on_c, 0, 59, 0
5, 52800, Note_on_c, 0, 64, 75
5, 52823, Note_on_c, 0, 64, 0
5, 53040, Note_on_c, 0, 59, 75
5, 53063, Note_on_c, 0, 59, 0
5, 53520, Note_on_c, 0, 52, 75
5, 53543, Note_on_c, 0, 52, 0
5, 53760, Note_on_c, 0, 40, 127
5, 53760, Note_on_c, 0, 52, 127
5, 54240, Note_on_c, 0, 52, 0
5, 54240, Note_on_c, 0, 40, 0
5, 54240, Note_on_c, 0, 47, 101
5, 54263, Note_on_c, 0, 47, 0
5, 54480, Note_on_c, 0, 35, 101
5, 54503, Note_on_c, 0, 35, 0
5, 54720, Note_on_c, 0, 39, 127
5, 54720, Note_on_c, 0, 51, 127
5, 55200, Note_on_c, 0, 51, 0
5, 55200, Note_on_c, 0, 39, 0
5, 55200, Note_on_c, 0, 40, 101
5, 55223, Note_on_c, 0, 40, 0
5, 55440, Note_on_c, 0, 28, 101
5, 55463, Note_on_c, 0, 28, 0
5, 55680, Note_on_c, 0, 33, 127
5, 55680, Note_on_c, 0, 45, 127
5, 56160, Note_on_c, 0, 45, 0
5, 56160, Note_on_c, 0, 33, 0
5, 56160, Note_on_c, 0, 46, 101
5, 56183, Note_on_c, 0, 46, 0
5, 56400, Note_on_c, 0, 34, 101
5, 56423, Note_on_c, 0, 34, 0
5, 56640, Note_on_c, 0, 35, 101
5, 57120, Note_on_c, 0, 35, 0
5, 57120, Note_on_c, 0, 47, 101
5, 57600, Note_on_c, 0, 47, 0
5, 57600, Note_on_c, 0, 39, 127
5, 57600, Note_on_c, 0, 51, 127
5, 58080, Note_on_c, 0, 51, 0
5, 58080, Note_on_c, 0, 39, 0
5, 58080, Note_on_c, 0, 40, 101
5, 58103, Note_on_c, 0, 40, 0
5, 58320, Note_on_c, 0, 28, 101
5, 58343, Note_on_c, 0, 28, 0
5, 58560, Note_on_c, 0, 33, 127
5, 58560, Note_on_c, 0, 45, 127
5, 59040, Note_on_c, 0, 45, 0
5, 59040, Note_on_c, 0, 33, 0
5, 59040, Note_on_c, 0, 46, 101
5, 59063, Note_on_c, 0, 46, 0
5, 59280, Note_on_c, 0, 34, 101
5, 59303, Note_on_c, 0, 34, 0
5, 59520, Note_on_c, 0, 35, 101
5, 60000, Note_on_c, 0, 35, 0
5, 60000, Note_on_c, 0, 47, 101
5, 60480, Note_on_c, 0, 47, 0
5, 60480, Note_on_c, 0, 52, 101
5, 60503, Note_on_c, 0, 52, 0
5, 60720, Note_on_c, 0, 47, 101
5, 60743, Note_on_c, 0, 47, 0
5, 60960, Note_on_c, 0, 40, 101
5, 60983, Note_on_c, 0, 40, 0
5, 61200, Note_on_c, 0, 35, 101
5, 61223, Note_on_c, 0, 35, 0
5, 63360, Note_on_c, 0, 45, 62
5, 63383, Note_on_c, 0, 45, 0
5, 63600, Note_on_c, 0, 49, 62
5, 63623, Note_on_c, 0, 49, 0
5, 63840, Note_on_c, 0, 54, 62
5, 64320, Note_on_c, 0, 54, 0
5, 64320, Note_on_c, 0, 44, 62
5, 64343, Note_on_c, 0, 44, 0
5, 64560, Note_on_c, 0, 47, 62
5, 64583, Note_on_c, 0, 47, 0
5, 64800, Note_on_c, 0, 52, 62
5, 65280, Note_on_c, 0, 52, 0
5, 65280, Note_on_c, 0, 42, 62
5, 65303, Note_on_c, 0, 42, 0
5, 65520, Note_on_c, 0, 45, 62
5, 65543, Note_on_c, 0, 45, 0
5, 65760, Note_on_c, 0, 51, 62
5, 66240, Note_on_c, 0, 51, 0
5, 66240, Note_on_c, 0, 40, 62
5, 66263, Note_on_c, 0, 40, 0
5, 66480, Note_on_c, 0, 44, 62
5, 66503, Note_on_c, 0, 44, 0
5, 66720, Note_on_c, 0, 49, 62
5, 66743, Note_on_c, 0, 49, 0
5, 66960, Note_on_c, 0, 37, 62
5, 66983, Note_on_c, 0, 37, 0
5, 67200, Note_on_c, 0, 42, 62
5, 67223, Note_on_c, 0, 42, 0
5, 67680, Note_on_c, 0, 35, 62
5, 67680, Note_on_c, 0, 47, 62
5, 67703, Note_on_c, 0, 47, 0
5, 67703, Note_on_c, 0, 35, 0
5, 68160, Note_on_c, 0, 40, 62
5, 68183, Note_on_c, 0, 40, 0
5, 68400, Note_on_c, 0, 35, 62
5, 68423, Note_on_c, 0, 35, 0
5, 68640, Note_on_c, 0, 40, 88
5, 68663, Note_on_c, 0, 40, 0
5, 68880, Note_on_c, 0, 33, 88
5, 68880, Note_on_c, 0, 45, 88
5, 68903, Note_on_c, 0, 45, 0
5, 68903, Note_on_c, 0, 33, 0
5, 74880, Note_on_c, 0, 42, 88
5, 74903, Note_on_c, 0, 42, 0
5, 75360, Note_on_c, 0, 35, 88
5, 75360, Note_on_c, 0, 47, 88
5, 75383, Note_on_c, 0, 47, 0
5, 75383, Note_on_c, 0, 35, 0
5, 75840, Note_on_c, 0, 40, 88
5, 75863, Note_on_c, 0, 40, 0
5, 76080, Note_on_c, 0, 35, 88
5, 76103, Note_on_c, 0, 35, 0
5, 76320, Note_on_c, 0, 40, 88
5, 76343, Note_on_c, 0, 40, 0
5, 77760, Note_on_c, 0, 51, 62
5, 77840, Note_on_c, 0, 51, 0
5, 77840, Note_on_c, 0, 54, 62
5, 77919, Note_on_c, 0, 54, 0
5, 77919, Note_on_c, 0, 58, 62
5, 78000, Note_on_c, 0, 58, 0
5, 78000, Note_on_c, 0, 59, 62
5, 78080, Note_on_c, 0, 59, 0
5, 78080, Note_on_c, 0, 63, 62
5, 78159, Note_on_c, 0, 63, 0
5, 78159, Note_on_c, 0, 66, 62
5, 78240, Note_on_c, 0, 66, 0
5, 78720, Note_on_c, 0, 49, 62
5, 78800, Note_on_c, 0, 49, 0
5, 78800, Note_on_c, 0, 52, 62
5, 78879, Note_on_c, 0, 52, 0
5, 78879, Note_on_c, 0, 56, 62
5, 78960, Note_on_c, 0, 56, 0
5, 78960, Note_on_c, 0, 58, 62
5, 79040, Note_on_c, 0, 58, 0
5, 79040, Note_on_c, 0, 61, 62
5, 79119, Note_on_c, 0, 61, 0
5, 79119, Note_on_c, 0, 64, 62
5, 79200, Note_on_c, 0, 64, 0
5, 79680, Note_on_c, 0, 47, 62
5, 79776, Note_on_c, 0, 47, 0
5, 79776, Note_on_c, 0, 51, 62
5, 79872, Note_on_c, 0, 51, 0
5, 79872, Note_on_c, 0, 54, 62
5, 79967, Note_on_c, 0, 54, 0
5, 79967, Note_on_c, 0, 59, 62
5, 80063, Note_on_c, 0, 59, 0
5, 80063, Note_on_c, 0, 63, 62
5, 80160, Note_on_c, 0, 63, 0
5, 83520, Note_on_c, 0, 52, 62
5, 83616, Note_on_c, 0, 52, 0
5, 83616, Note_on_c, 0, 56, 62
5, 83712, Note_on_c, 0, 56, 0
5, 83712, Note_on_c, 0, 59, 62
5, 83807, Note_on_c, 0, 59, 0
5, 83807, Note_on_c, 0, 64, 62
5, 83903, Note_on_c, 0, 64, 0
5, 83903, Note_on_c, 0, 68, 62
5, 84000, Note_on_c, 0, 68, 0
5, 84000, Note_on_c, 0, 49, 75
5, 84096, Note_on_c, 0, 49, 0
5, 84096, Note_on_c, 0, 56, 75
5, 84192, Note_on_c, 0, 56, 0
5, 84192, Note_on_c, 0, 61, 75
5, 84287, Note_on_c, 0, 61, 0
5, 84287, Note_on_c, 0, 64, 75
5, 84383, Note_on_c, 0, 64, 0
5, 84383, Note_on_c, 0, 68, 75
5, 84480, Note_on_c, 0, 68, 0
5, 84480, Note_on_c, 0, 45, 88
5, 84480, Note_on_c, 0, 57, 88
5, 84720, Note_on_c, 0, 57, 0
5, 84720, Note_on_c, 0, 45, 0
5, 84960, Note_on_c, 0, 47, 88
5, 84960, Note_on_c, 0, 59, 88
5, 85200, Note_on_c, 0, 59, 0
5, 85200, Note_on_c, 0, 47, 0
5, 85440, Note_on_c, 0, 44, 88
5, 85440, Note_on_c, 0, 56, 88
5, 85680, Note_on_c, 0, 56, 0
5, 85680, Note_on_c, 0, 44, 0
5, 85920, Note_on_c, 0, 40, 88
5, 85920, Note_on_c, 0, 52, 88
5, 86160, Note_on_c, 0, 52, 0
5, 86160, Note_on_c, 0, 40, 0
5, 86400, Note_on_c, 0, 42, 88
5, 86400, Note_on_c, 0, 54, 88
5, 86640, Note_on_c, 0, 54, 0
5, 86640, Note_on_c, 0, 42, 0
5, 86880, Note_on_c, 0, 35, 88
5, 86880, Note_on_c, 0, 47, 88
5, 87120, Note_on_c, 0, 47, 0
5, 87120, Note_on_c, 0, 35, 0
5, 87360, Note_on_c, 0, 40, 88
5, 87360, Note_on_c, 0, 52, 88
5, 87600, Note_on_c, 0, 52, 0
5, 87600, Note_on_c, 0, 40, 0
5, 87840, Note_on_c, 0, 32, 88
5, 87840, Note_on_c, 0, 44, 88
5, 88080, Note_on_c, 0, 44, 0
5, 88080, Note_on_c, 0, 32, 0
5, 88320, Note_on_c, 0, 33, 88
5, 88320, Note_on_c, 0, 45, 88
5, 88560, Note_on_c, 0, 45, 0
5, 88560, Note_on_c, 0, 33, 0
5, 88800, Note_on_c, 0, 30, 88
5, 88800, Note_on_c, 0, 42, 88
5, 89040, Note_on_c, 0, 42, 0
5, 89040, Note_on_c, 0, 30, 0
5, 89280, Note_on_c, 0, 35, 88
5, 89280, Note_on_c, 0, 47, 88
5, 89520, Note_on_c, 0, 47, 0
5, 89520, Note_on_c, 0, 35, 0
5, 89760, Note_on_c, 0, 35, 88
5, 89760, Note_on_c, 0, 47, 88
5, 90000, Note_on_c, 0, 47, 0
5, 90000, Note_on_c, 0, 35, 0
5, 90240, Note_on_c, 0, 28, 88
5, 90240, Note_on_c, 0, 40, 88
5, 90480, Note_on_c, 0, 40, 0
5, 90480, Note_on_c, 0, 28, 0
5, 90720, Note_on_c, 0, 40, 88
5, 90720, Note_on_c, 0, 47, 88
5, 90960, Note_on_c, 0, 47, 0
5, 90960, Note_on_c, 0, 40, 0
5, 91680, Note_on_c, 0, 40, 114
5, 91680, Note_on_c, 0, 47, 114
5, 91920, Note_on_c, 0, 47, 0
5, 91920, Note_on_c, 0, 40, 0
5, 92160, Note_on_c, 0, 28, 114
5, 92160, Note_on_c, 0, 40, 114
5, 95040, Note_on_c, 0, 40, 0
5, 95040, Note_on_c, 0, 28, 0
5, 95040, End_track
0, 0, End_of_file
