0, 0, Header, 0, 1, 384
1, 0, Start_track
1, 0, Time_signature, 4, 2, 24, 8
1, 0, Key_signature, 0, "major"
1, 0, Tempo, 512821
1, 0, Program_c, 0, 0
1, 0, Control_c, 0, 7, 115
1, 0, Control_c, 0, 64, 0
1, 0, Program_c, 0, 0
1, 0, Control_c, 0, 7, 115
1, 3, Control_c, 0, 64, 0
1, 3, Control_c, 0, 64, 0
1, 449, Control_c, 0, 64, 0
1, 748, Note_on_c, 0, 73, 68
1, 748, Note_on_c, 0, 66, 60
1, 748, Control_c, 0, 64, 0
1, 751, Control_c, 0, 64, 0
1, 751, Note_on_c, 0, 57, 47
1, 751, Note_on_c, 0, 54, 39
1, 1075, Control_c, 0, 64, 127
1, 1075, Control_c, 0, 64, 127
1, 1647, Note_on_c, 0, 73, 0
1, 1647, Note_on_c, 0, 65, 56
1, 1647, Note_on_c, 0, 73, 68
1, 1650, Note_on_c, 0, 49, 41
1, 1650, Note_on_c, 0, 56, 49
1, 1655, Control_c, 0, 64, 0
1, 1655, Control_c, 0, 64, 0
1, 1664, Note_on_c, 0, 66, 0
1, 1664, Note_on_c, 0, 54, 0
1, 1664, Note_on_c, 0, 57, 0
1, 2286, Control_c, 0, 64, 127
1, 2286, Control_c, 0, 64, 127
1, 2321, Note_on_c, 0, 65, 0
1, 2321, Note_on_c, 0, 66, 66
1, 2321, Note_on_c, 0, 57, 51
1, 2343, Note_on_c, 0, 56, 0
1, 2602, Note_on_c, 0, 66, 0
1, 2602, Note_on_c, 0, 73, 0
1, 2602, Control_c, 0, 64, 127
1, 2605, Note_on_c, 0, 73, 75
1, 2605, Note_on_c, 0, 66, 59
1, 2605, Control_c, 0, 64, 127
1, 2608, Note_on_c, 0, 57, 0
1, 2608, Control_c, 0, 64, 0
1, 2608, Note_on_c, 0, 57, 49
1, 2611, Note_on_c, 0, 50, 38
1, 2619, Note_on_c, 0, 49, 0
1, 2826, Control_c, 0, 64, 0
1, 2826, Control_c, 0, 64, 0
1, 3431, Control_c, 0, 64, 127
1, 3431, Control_c, 0, 64, 127
1, 3949, Note_on_c, 0, 71, 68
1, 3949, Note_on_c, 0, 47, 44
1, 3969, Note_on_c, 0, 50, 0
1, 3969, Note_on_c, 0, 73, 0
1, 4016, Control_c, 0, 64, 0
1, 4016, Control_c, 0, 64, 0
1, 4063, Control_c, 0, 64, 0
1, 4063, Control_c, 0, 64, 0
1, 4216, Control_c, 0, 64, 127
1, 4216, Control_c, 0, 64, 127
1, 4443, Control_c, 0, 64, 127
1, 4449, Note_on_c, 0, 66, 0
1, 4449, Note_on_c, 0, 69, 70
1, 4449, Note_on_c, 0, 61, 47
1, 4452, Note_on_c, 0, 66, 56
1, 4452, Control_c, 0, 64, 0
1, 4452, Note_on_c, 0, 49, 42
1, 4466, Note_on_c, 0, 57, 0
1, 4466, Note_on_c, 0, 71, 0
1, 4466, Note_on_c, 0, 47, 0
1, 4496, Control_c, 0, 64, 0
1, 4496, Control_c, 0, 64, 0
1, 4614, Control_c, 0, 64, 127
1, 4614, Control_c, 0, 64, 127
1, 5323, Control_c, 0, 64, 0
1, 5323, Control_c, 0, 64, 0
1, 5347, Note_on_c, 0, 59, 46
1, 5347, Note_on_c, 0, 65, 46
1, 5347, Note_on_c, 0, 68, 63
1, 5350, Note_on_c, 0, 49, 0
1, 5350, Note_on_c, 0, 49, 37
1, 5365, Note_on_c, 0, 61, 0
1, 5365, Note_on_c, 0, 69, 0
1, 5365, Note_on_c, 0, 66, 0
1, 5388, Control_c, 0, 64, 0
1, 5388, Control_c, 0, 64, 0
1, 5731, Control_c, 0, 64, 127
1, 5731, Control_c, 0, 64, 127
1, 6021, Note_on_c, 0, 69, 63
1, 6041, Note_on_c, 0, 68, 0
1, 6265, Control_c, 0, 64, 127
1, 6271, Note_on_c, 0, 69, 0
1, 6271, Note_on_c, 0, 69, 62
1, 6271, Note_on_c, 0, 57, 43
1, 6274, Note_on_c, 0, 49, 0
1, 6274, Note_on_c, 0, 66, 43
1, 6274, Control_c, 0, 64, 0
1, 6277, Note_on_c, 0, 42, 35
1, 6277, Note_on_c, 0, 49, 35
1, 6288, Note_on_c, 0, 59, 0
1, 6288, Note_on_c, 0, 65, 0
1, 6348, Control_c, 0, 64, 0
1, 6348, Control_c, 0, 64, 0
1, 6480, Control_c, 0, 64, 127
1, 6480, Control_c, 0, 64, 127
1, 7619, Note_on_c, 0, 66, 54
1, 7638, Note_on_c, 0, 69, 0
1, 8077, Control_c, 0, 64, 0
1, 8077, Control_c, 0, 64, 0
1, 8118, Note_on_c, 0, 57, 0
1, 8118, Control_c, 0, 64, 0
1, 8118, Control_c, 0, 64, 0
1, 8121, Note_on_c, 0, 66, 0
1, 8121, Note_on_c, 0, 66, 0
1, 8121, Note_on_c, 0, 73, 68
1, 8124, Note_on_c, 0, 66, 60
1, 8124, Control_c, 0, 64, 0
1, 8124, Control_c, 0, 64, 0
1, 8127, Note_on_c, 0, 42, 0
1, 8127, Note_on_c, 0, 49, 0
1, 8127, Control_c, 0, 64, 0
1, 8130, Note_on_c, 0, 57, 47
1, 8130, Note_on_c, 0, 54, 39
1, 8444, Control_c, 0, 64, 127
1, 8444, Control_c, 0, 64, 127
1, 9016, Note_on_c, 0, 73, 0
1, 9016, Note_on_c, 0, 65, 56
1, 9016, Note_on_c, 0, 73, 68
1, 9019, Note_on_c, 0, 49, 41
1, 9019, Note_on_c, 0, 56, 49
1, 9024, Control_c, 0, 64, 0
1, 9024, Control_c, 0, 64, 0
1, 9034, Note_on_c, 0, 66, 0
1, 9034, Note_on_c, 0, 54, 0
1, 9034, Note_on_c, 0, 57, 0
1, 9655, Control_c, 0, 64, 127
1, 9655, Control_c, 0, 64, 127
1, 9690, Note_on_c, 0, 66, 66
1, 9690, Note_on_c, 0, 57, 51
1, 9710, Note_on_c, 0, 56, 0
1, 9710, Note_on_c, 0, 65, 0
1, 9940, Note_on_c, 0, 66, 0
1, 9940, Control_c, 0, 64, 127
1, 9940, Control_c, 0, 64, 0
1, 9943, Note_on_c, 0, 73, 0
1, 9943, Note_on_c, 0, 73, 75
1, 9943, Note_on_c, 0, 62, 59
1, 9946, Note_on_c, 0, 66, 59
1, 9946, Control_c, 0, 64, 127
1, 9946, Control_c, 0, 64, 0
1, 9949, Note_on_c, 0, 57, 0
1, 9949, Control_c, 0, 64, 0
1, 9949, Note_on_c, 0, 57, 49
1, 9952, Note_on_c, 0, 50, 42
1, 9957, Note_on_c, 0, 49, 0
1, 10164, Control_c, 0, 64, 0
1, 10164, Control_c, 0, 64, 0
1, 10769, Control_c, 0, 64, 127
1, 10769, Control_c, 0, 64, 127
1, 10838, Note_on_c, 0, 47, 51
1, 10856, Note_on_c, 0, 50, 0
1, 11288, Note_on_c, 0, 71, 68
1, 11288, Note_on_c, 0, 54, 47
1, 11310, Note_on_c, 0, 73, 0
1, 11310, Note_on_c, 0, 47, 0
1, 11362, Control_c, 0, 64, 0
1, 11362, Control_c, 0, 64, 0
1, 11415, Control_c, 0, 64, 0
1, 11415, Control_c, 0, 64, 0
1, 11587, Control_c, 0, 64, 127
1, 11587, Control_c, 0, 64, 127
1, 11849, Note_on_c, 0, 66, 0
1, 11849, Note_on_c, 0, 62, 0
1, 11849, Control_c, 0, 64, 0
1, 11852, Note_on_c, 0, 69, 67
1, 11852, Note_on_c, 0, 59, 45
1, 11852, Note_on_c, 0, 63, 45
1, 11855, Note_on_c, 0, 57, 0
1, 11855, Control_c, 0, 64, 0
1, 11855, Control_c, 0, 64, 0
1, 11858, Note_on_c, 0, 54, 0
1, 11858, Note_on_c, 0, 54, 47
1, 11858, Note_on_c, 0, 57, 43
1, 11867, Note_on_c, 0, 71, 0
1, 11897, Control_c, 0, 64, 0
1, 11897, Control_c, 0, 64, 0
1, 12015, Control_c, 0, 64, 127
1, 12015, Control_c, 0, 64, 127
1, 12724, Control_c, 0, 64, 0
1, 12724, Control_c, 0, 64, 0
1, 12748, Note_on_c, 0, 62, 50
1, 12748, Note_on_c, 0, 64, 45
1, 12748, Note_on_c, 0, 68, 59
1, 12751, Note_on_c, 0, 57, 0
1, 12751, Note_on_c, 0, 52, 38
1, 12765, Note_on_c, 0, 59, 0
1, 12765, Note_on_c, 0, 69, 0
1, 12765, Note_on_c, 0, 63, 0
1, 12768, Note_on_c, 0, 54, 0
1, 12788, Control_c, 0, 64, 0
1, 12788, Control_c, 0, 64, 0
1, 13131, Control_c, 0, 64, 127
1, 13131, Control_c, 0, 64, 127
1, 13422, Note_on_c, 0, 69, 54
1, 13444, Note_on_c, 0, 68, 0
1, 13703, Note_on_c, 0, 69, 0
1, 13703, Note_on_c, 0, 64, 0
1, 13703, Control_c, 0, 64, 0
1, 13706, Note_on_c, 0, 61, 47
1, 13706, Note_on_c, 0, 64, 47
1, 13706, Note_on_c, 0, 69, 56
1, 13709, Note_on_c, 0, 52, 0
1, 13709, Control_c, 0, 64, 0
1, 13709, Control_c, 0, 64, 0
1, 13712, Note_on_c, 0, 45, 34
1, 13712, Note_on_c, 0, 52, 34
1, 13722, Note_on_c, 0, 62, 0
1, 13788, Control_c, 0, 64, 0
1, 13788, Control_c, 0, 64, 0
1, 13936, Control_c, 0, 64, 127
1, 13936, Control_c, 0, 64, 127
1, 15658, Control_c, 0, 64, 0
1, 15658, Control_c, 0, 64, 0
1, 15699, Note_on_c, 0, 61, 0
1, 15699, Control_c, 0, 64, 0
1, 15699, Control_c, 0, 64, 0
1, 15702, Note_on_c, 0, 69, 0
1, 15702, Note_on_c, 0, 64, 0
1, 15702, Note_on_c, 0, 64, 55
1, 15705, Note_on_c, 0, 73, 72
1, 15705, Control_c, 0, 64, 0
1, 15705, Control_c, 0, 64, 0
1, 15708, Note_on_c, 0, 52, 0
1, 15708, Note_on_c, 0, 45, 0
1, 15708, Control_c, 0, 64, 0
1, 15711, Note_on_c, 0, 57, 40
1, 15711, Note_on_c, 0, 61, 49
1, 16026, Control_c, 0, 64, 127
1, 16026, Control_c, 0, 64, 127
1, 16598, Note_on_c, 0, 64, 0
1, 16598, Note_on_c, 0, 64, 61
1, 16598, Note_on_c, 0, 72, 74
1, 16601, Note_on_c, 0, 56, 42
1, 16601, Note_on_c, 0, 60, 51
1, 16606, Control_c, 0, 64, 0
1, 16606, Control_c, 0, 64, 0
1, 16615, Note_on_c, 0, 73, 0
1, 16615, Note_on_c, 0, 61, 0
1, 16615, Note_on_c, 0, 57, 0
1, 17237, Control_c, 0, 64, 127
1, 17237, Control_c, 0, 64, 127
1, 17272, Note_on_c, 0, 64, 0
1, 17272, Note_on_c, 0, 64, 66
1, 17272, Note_on_c, 0, 73, 81
1, 17275, Note_on_c, 0, 57, 39
1, 17275, Note_on_c, 0, 61, 48
1, 17294, Note_on_c, 0, 60, 0
1, 17294, Note_on_c, 0, 72, 0
1, 17294, Note_on_c, 0, 56, 0
1, 17553, Note_on_c, 0, 64, 0
1, 17553, Control_c, 0, 64, 127
1, 17553, Control_c, 0, 64, 0
1, 17556, Note_on_c, 0, 76, 84
1, 17556, Note_on_c, 0, 64, 74
1, 17556, Control_c, 0, 64, 127
1, 17559, Note_on_c, 0, 61, 0
1, 17559, Control_c, 0, 64, 0
1, 17559, Control_c, 0, 64, 0
1, 17562, Note_on_c, 0, 61, 54
1, 17562, Note_on_c, 0, 56, 54
1, 17570, Note_on_c, 0, 73, 0
1, 17570, Note_on_c, 0, 57, 0
1, 17777, Control_c, 0, 64, 0
1, 17777, Control_c, 0, 64, 0
1, 18382, Control_c, 0, 64, 127
1, 18382, Control_c, 0, 64, 127
1, 18900, Note_on_c, 0, 61, 0
1, 18900, Note_on_c, 0, 73, 65
1, 18900, Note_on_c, 0, 61, 45
1, 18922, Note_on_c, 0, 76, 0
1, 18975, Control_c, 0, 64, 0
1, 18975, Control_c, 0, 64, 0
1, 19028, Control_c, 0, 64, 0
1, 19028, Control_c, 0, 64, 0
1, 19200, Control_c, 0, 64, 127
1, 19200, Control_c, 0, 64, 127
1, 19462, Note_on_c, 0, 73, 0
1, 19462, Note_on_c, 0, 64, 0
1, 19462, Control_c, 0, 64, 0
1, 19465, Note_on_c, 0, 64, 61
1, 19465, Note_on_c, 0, 73, 74
1, 19465, Control_c, 0, 64, 0
1, 19468, Note_on_c, 0, 61, 0
1, 19468, Control_c, 0, 64, 0
1, 19468, Note_on_c, 0, 57, 39
1, 19471, Note_on_c, 0, 61, 48
1, 19480, Note_on_c, 0, 56, 0
1, 19509, Control_c, 0, 64, 0
1, 19509, Control_c, 0, 64, 0
1, 19628, Control_c, 0, 64, 127
1, 19628, Control_c, 0, 64, 127
1, 20337, Control_c, 0, 64, 0
1, 20337, Control_c, 0, 64, 0
1, 20361, Note_on_c, 0, 64, 0
1, 20361, Note_on_c, 0, 64, 66
1, 20361, Note_on_c, 0, 72, 81
1, 20364, Note_on_c, 0, 56, 43
1, 20364, Note_on_c, 0, 60, 52
1, 20378, Note_on_c, 0, 73, 0
1, 20378, Note_on_c, 0, 61, 0
1, 20378, Note_on_c, 0, 57, 0
1, 20401, Control_c, 0, 64, 0
1, 20401, Control_c, 0, 64, 0
1, 20744, Control_c, 0, 64, 127
1, 20744, Control_c, 0, 64, 127
1, 21035, Note_on_c, 0, 64, 0
1, 21035, Note_on_c, 0, 64, 71
1, 21035, Note_on_c, 0, 73, 87
1, 21038, Note_on_c, 0, 57, 47
1, 21038, Note_on_c, 0, 61, 56
1, 21056, Note_on_c, 0, 60, 0
1, 21056, Note_on_c, 0, 72, 0
1, 21056, Note_on_c, 0, 56, 0
1, 21315, Note_on_c, 0, 64, 0
1, 21315, Control_c, 0, 64, 0
1, 21315, Note_on_c, 0, 80, 86
1, 21318, Note_on_c, 0, 68, 61
1, 21318, Control_c, 0, 64, 0
1, 21318, Control_c, 0, 64, 0
1, 21321, Note_on_c, 0, 61, 0
1, 21321, Note_on_c, 0, 52, 52
1, 21321, Note_on_c, 0, 61, 52
1, 21324, Note_on_c, 0, 64, 63
1, 21333, Note_on_c, 0, 73, 0
1, 21333, Note_on_c, 0, 57, 0
1, 21393, Control_c, 0, 64, 0
1, 21393, Control_c, 0, 64, 0
1, 21525, Control_c, 0, 64, 127
1, 21525, Control_c, 0, 64, 127
1, 22585, Control_c, 0, 64, 127
1, 22585, Control_c, 0, 64, 127
1, 22663, Note_on_c, 0, 73, 65
1, 22685, Note_on_c, 0, 80, 0
1, 23225, Note_on_c, 0, 68, 0
1, 23225, Note_on_c, 0, 73, 0
1, 23225, Control_c, 0, 64, 127
1, 23228, Note_on_c, 0, 64, 61
1, 23228, Note_on_c, 0, 73, 74
1, 23228, Control_c, 0, 64, 127
1, 23231, Note_on_c, 0, 61, 0
1, 23231, Note_on_c, 0, 52, 0
1, 23231, Control_c, 0, 64, 0
1, 23234, Note_on_c, 0, 64, 0
1, 23234, Note_on_c, 0, 57, 43
1, 23234, Note_on_c, 0, 61, 52
1, 23320, Control_c, 0, 64, 0
1, 23320, Control_c, 0, 64, 0
1, 23441, Control_c, 0, 64, 127
1, 23441, Control_c, 0, 64, 127
1, 24089, Control_c, 0, 64, 0
1, 24089, Control_c, 0, 64, 0
1, 24123, Note_on_c, 0, 64, 0
1, 24123, Note_on_c, 0, 64, 59
1, 24123, Note_on_c, 0, 72, 74
1, 24126, Note_on_c, 0, 56, 48
1, 24126, Note_on_c, 0, 60, 57
1, 24141, Note_on_c, 0, 73, 0
1, 24141, Note_on_c, 0, 61, 0
1, 24141, Note_on_c, 0, 57, 0
1, 24407, Control_c, 0, 64, 127
1, 24407, Control_c, 0, 64, 127
1, 24797, Note_on_c, 0, 64, 0
1, 24797, Note_on_c, 0, 64, 62
1, 24797, Note_on_c, 0, 73, 78
1, 24800, Note_on_c, 0, 57, 53
1, 24800, Note_on_c, 0, 61, 62
1, 24819, Note_on_c, 0, 60, 0
1, 24819, Note_on_c, 0, 72, 0
1, 24819, Note_on_c, 0, 56, 0
1, 25071, Control_c, 0, 64, 127
1, 25078, Note_on_c, 0, 73, 0
1, 25078, Note_on_c, 0, 64, 0
1, 25078, Note_on_c, 0, 64, 72
1, 25081, Note_on_c, 0, 57, 0
1, 25081, Note_on_c, 0, 73, 86
1, 25081, Control_c, 0, 64, 0
1, 25084, Note_on_c, 0, 61, 0
1, 25084, Note_on_c, 0, 57, 59
1, 25084, Note_on_c, 0, 61, 66
1, 25160, Control_c, 0, 64, 0
1, 25160, Control_c, 0, 64, 0
1, 25483, Control_c, 0, 64, 0
1, 25483, Control_c, 0, 64, 0
1, 25557, Control_c, 0, 64, 127
1, 25557, Control_c, 0, 64, 127
1, 25640, Note_on_c, 0, 73, 0
1, 25640, Note_on_c, 0, 64, 0
1, 25640, Note_on_c, 0, 68, 67
1, 25643, Note_on_c, 0, 57, 0
1, 25643, Note_on_c, 0, 73, 67
1, 25643, Note_on_c, 0, 80, 90
1, 25646, Note_on_c, 0, 61, 0
1, 25646, Note_on_c, 0, 52, 58
1, 25646, Note_on_c, 0, 61, 58
1, 25649, Note_on_c, 0, 64, 70
1, 25753, Control_c, 0, 64, 0
1, 25753, Control_c, 0, 64, 0
1, 25966, Control_c, 0, 64, 127
1, 25966, Control_c, 0, 64, 127
1, 26638, Note_on_c, 0, 73, 0
1, 26638, Note_on_c, 0, 69, 62
1, 26638, Note_on_c, 0, 73, 62
1, 26641, Note_on_c, 0, 78, 82
1, 26641, Note_on_c, 0, 54, 55
1, 26641, Note_on_c, 0, 63, 62
1, 26663, Note_on_c, 0, 52, 0
1, 26663, Note_on_c, 0, 80, 0
1, 26663, Note_on_c, 0, 68, 0
1, 26666, Note_on_c, 0, 64, 0
1, 26666, Note_on_c, 0, 61, 0
1, 26666, Control_c, 0, 64, 0
1, 26669, Control_c, 0, 64, 0
1, 26847, Control_c, 0, 64, 127
1, 26847, Control_c, 0, 64, 127
1, 27242, Control_c, 0, 64, 127
1, 27254, Control_c, 0, 64, 127
1, 27254, Control_c, 0, 64, 0
1, 27280, Note_on_c, 0, 66, 57
1, 27280, Note_on_c, 0, 72, 57
1, 27280, Note_on_c, 0, 76, 76
1, 27283, Control_c, 0, 64, 0
1, 27283, Note_on_c, 0, 56, 50
1, 27299, Note_on_c, 0, 73, 0
1, 27299, Note_on_c, 0, 78, 0
1, 27299, Note_on_c, 0, 69, 0
1, 27302, Note_on_c, 0, 54, 0
1, 27302, Note_on_c, 0, 63, 0
1, 27327, Control_c, 0, 64, 0
1, 27327, Control_c, 0, 64, 0
1, 27535, Control_c, 0, 64, 127
1, 27535, Control_c, 0, 64, 127
1, 28139, Control_c, 0, 64, 127
1, 28139, Control_c, 0, 64, 127
1, 28278, Note_on_c, 0, 72, 0
1, 28278, Note_on_c, 0, 66, 0
1, 28278, Note_on_c, 0, 66, 50
1, 28281, Note_on_c, 0, 56, 0
1, 28281, Note_on_c, 0, 72, 50
1, 28281, Note_on_c, 0, 75, 68
1, 28284, Note_on_c, 0, 56, 45
1, 28300, Note_on_c, 0, 76, 0
1, 28357, Control_c, 0, 64, 0
1, 28357, Control_c, 0, 64, 0
1, 28543, Control_c, 0, 64, 127
1, 28543, Control_c, 0, 64, 127
1, 29349, Control_c, 0, 64, 0
1, 29349, Control_c, 0, 64, 0
1, 29401, Note_on_c, 0, 66, 0
1, 29401, Note_on_c, 0, 72, 0
1, 29401, Control_c, 0, 64, 0
1, 29404, Note_on_c, 0, 64, 44
1, 29404, Note_on_c, 0, 73, 57
1, 29404, Control_c, 0, 64, 0
1, 29407, Note_on_c, 0, 56, 0
1, 29407, Control_c, 0, 64, 0
1, 29407, Note_on_c, 0, 49, 33
1, 29410, Note_on_c, 0, 56, 42
1, 29421, Note_on_c, 0, 75, 0
1, 29580, Control_c, 0, 64, 127
1, 29580, Control_c, 0, 64, 127
1, 31368, Control_c, 0, 64, 0
1, 31368, Control_c, 0, 64, 0
1, 31398, Note_on_c, 0, 73, 0
1, 31398, Note_on_c, 0, 64, 0
1, 31398, Control_c, 0, 64, 127
1, 31401, Note_on_c, 0, 49, 0
1, 31401, Control_c, 0, 64, 127
1, 31401, Control_c, 0, 64, 127
1, 31404, Note_on_c, 0, 56, 0
1, 31404, Note_on_c, 0, 46, 48
1, 31648, Note_on_c, 0, 61, 46
1, 31648, Note_on_c, 0, 67, 46
1, 31648, Note_on_c, 0, 73, 69
1, 31651, Note_on_c, 0, 64, 45
1, 32546, Note_on_c, 0, 73, 0
1, 32546, Note_on_c, 0, 67, 0
1, 32546, Note_on_c, 0, 61, 0
1, 32549, Note_on_c, 0, 61, 46
1, 32549, Note_on_c, 0, 67, 46
1, 32549, Note_on_c, 0, 73, 74
1, 32552, Note_on_c, 0, 64, 0
1, 32552, Note_on_c, 0, 64, 50
1, 33423, Note_on_c, 0, 47, 45
1, 33545, Note_on_c, 0, 67, 0
1, 33545, Note_on_c, 0, 61, 0
1, 33545, Control_c, 0, 64, 0
1, 33548, Note_on_c, 0, 73, 0
1, 33548, Note_on_c, 0, 61, 55
1, 33548, Note_on_c, 0, 73, 80
1, 33551, Note_on_c, 0, 66, 55
1, 33551, Control_c, 0, 64, 0
1, 33551, Control_c, 0, 64, 0
1, 33554, Note_on_c, 0, 46, 0
1, 33554, Note_on_c, 0, 64, 0
1, 33554, Note_on_c, 0, 62, 54
1, 33633, Control_c, 0, 64, 127
1, 33633, Control_c, 0, 64, 127
1, 34893, Note_on_c, 0, 59, 48
1, 34893, Note_on_c, 0, 71, 64
1, 34893, Note_on_c, 0, 50, 48
1, 34912, Note_on_c, 0, 73, 0
1, 34912, Note_on_c, 0, 61, 0
1, 34912, Note_on_c, 0, 47, 0
1, 34915, Note_on_c, 0, 62, 0
1, 34920, Control_c, 0, 64, 0
1, 34920, Control_c, 0, 64, 0
1, 35235, Control_c, 0, 64, 127
1, 35235, Control_c, 0, 64, 127
1, 35363, Control_c, 0, 64, 127
1, 35392, Note_on_c, 0, 66, 0
1, 35392, Note_on_c, 0, 59, 0
1, 35392, Note_on_c, 0, 59, 44
1, 35395, Note_on_c, 0, 63, 44
1, 35395, Note_on_c, 0, 69, 65
1, 35395, Control_c, 0, 64, 0
1, 35398, Note_on_c, 0, 54, 35
1, 35398, Note_on_c, 0, 57, 44
1, 35409, Note_on_c, 0, 71, 0
1, 35409, Note_on_c, 0, 50, 0
1, 35418, Control_c, 0, 64, 0
1, 35418, Control_c, 0, 64, 0
1, 35828, Control_c, 0, 64, 127
1, 35828, Control_c, 0, 64, 127
1, 36277, Control_c, 0, 64, 0
1, 36277, Control_c, 0, 64, 0
1, 36290, Note_on_c, 0, 68, 57
1, 36290, Note_on_c, 0, 62, 41
1, 36290, Note_on_c, 0, 64, 41
1, 36293, Note_on_c, 0, 52, 41
1, 36310, Note_on_c, 0, 63, 0
1, 36310, Note_on_c, 0, 69, 0
1, 36310, Note_on_c, 0, 59, 0
1, 36313, Note_on_c, 0, 57, 0
1, 36313, Note_on_c, 0, 54, 0
1, 36521, Control_c, 0, 64, 127
1, 36521, Control_c, 0, 64, 127
1, 36790, Note_on_c, 0, 69, 54
1, 36812, Note_on_c, 0, 68, 0
1, 37345, Control_c, 0, 64, 127
1, 37351, Note_on_c, 0, 64, 0
1, 37351, Note_on_c, 0, 69, 0
1, 37351, Note_on_c, 0, 69, 52
1, 37354, Note_on_c, 0, 61, 43
1, 37354, Note_on_c, 0, 64, 43
1, 37354, Control_c, 0, 64, 0
1, 37357, Note_on_c, 0, 52, 0
1, 37357, Note_on_c, 0, 45, 29
1, 37357, Note_on_c, 0, 52, 38
1, 37371, Note_on_c, 0, 62, 0
1, 37523, Control_c, 0, 64, 0
1, 37523, Control_c, 0, 64, 0
1, 37904, Control_c, 0, 64, 0
1, 37904, Control_c, 0, 64, 0
1, 37916, Control_c, 0, 64, 127
1, 37916, Control_c, 0, 64, 127
1, 38849, Note_on_c, 0, 64, 43
1, 38871, Note_on_c, 0, 69, 0
1, 39341, Control_c, 0, 64, 0
1, 39341, Control_c, 0, 64, 0
1, 39410, Note_on_c, 0, 61, 0
1, 39410, Control_c, 0, 64, 0
1, 39410, Control_c, 0, 64, 0
1, 39413, Note_on_c, 0, 64, 0
1, 39413, Note_on_c, 0, 64, 0
1, 39413, Note_on_c, 0, 73, 63
1, 39416, Note_on_c, 0, 66, 51
1, 39416, Control_c, 0, 64, 0
1, 39416, Control_c, 0, 64, 0
1, 39419, Note_on_c, 0, 52, 0
1, 39419, Note_on_c, 0, 45, 0
1, 39419, Control_c, 0, 64, 0
1, 39422, Note_on_c, 0, 57, 45
1, 39422, Note_on_c, 0, 54, 37
1, 39737, Control_c, 0, 64, 127
1, 39737, Control_c, 0, 64, 127
1, 40309, Note_on_c, 0, 73, 0
1, 40309, Note_on_c, 0, 65, 56
1, 40309, Note_on_c, 0, 73, 59
1, 40312, Note_on_c, 0, 49, 39
1, 40312, Note_on_c, 0, 56, 47
1, 40317, Control_c, 0, 64, 0
1, 40317, Control_c, 0, 64, 0
1, 40327, Note_on_c, 0, 66, 0
1, 40327, Note_on_c, 0, 54, 0
1, 40327, Note_on_c, 0, 57, 0
1, 40948, Control_c, 0, 64, 127
1, 40948, Control_c, 0, 64, 127
1, 40983, Note_on_c, 0, 66, 60
1, 40983, Note_on_c, 0, 57, 49
1, 41005, Note_on_c, 0, 56, 0
1, 41005, Note_on_c, 0, 65, 0
1, 41264, Note_on_c, 0, 66, 0
1, 41264, Control_c, 0, 64, 127
1, 41264, Control_c, 0, 64, 0
1, 41267, Note_on_c, 0, 73, 0
1, 41267, Note_on_c, 0, 73, 66
1, 41267, Note_on_c, 0, 66, 56
1, 41270, Control_c, 0, 64, 127
1, 41270, Control_c, 0, 64, 0
1, 41270, Control_c, 0, 64, 0
1, 41273, Note_on_c, 0, 57, 0
1, 41273, Note_on_c, 0, 57, 54
1, 41273, Note_on_c, 0, 50, 47
1, 41286, Note_on_c, 0, 49, 0
1, 41545, Control_c, 0, 64, 0
1, 41545, Control_c, 0, 64, 0
1, 42300, Control_c, 0, 64, 127
1, 42300, Control_c, 0, 64, 127
1, 42949, Note_on_c, 0, 71, 59
1, 42949, Note_on_c, 0, 47, 44
1, 42970, Note_on_c, 0, 50, 0
1, 42970, Note_on_c, 0, 73, 0
1, 43023, Control_c, 0, 64, 0
1, 43023, Control_c, 0, 64, 0
1, 43076, Control_c, 0, 64, 0
1, 43076, Control_c, 0, 64, 0
1, 43248, Control_c, 0, 64, 127
1, 43248, Control_c, 0, 64, 127
1, 43510, Note_on_c, 0, 66, 0
1, 43510, Control_c, 0, 64, 0
1, 43510, Note_on_c, 0, 69, 64
1, 43513, Note_on_c, 0, 61, 44
1, 43513, Note_on_c, 0, 66, 44
1, 43513, Control_c, 0, 64, 0
1, 43516, Note_on_c, 0, 57, 0
1, 43516, Control_c, 0, 64, 0
1, 43516, Note_on_c, 0, 49, 42
1, 43530, Note_on_c, 0, 71, 0
1, 43530, Note_on_c, 0, 47, 0
1, 43563, Control_c, 0, 64, 0
1, 43563, Control_c, 0, 64, 0
1, 43694, Control_c, 0, 64, 127
1, 43694, Control_c, 0, 64, 127
1, 44482, Control_c, 0, 64, 0
1, 44482, Control_c, 0, 64, 0
1, 44509, Note_on_c, 0, 59, 39
1, 44509, Note_on_c, 0, 65, 39
1, 44509, Note_on_c, 0, 68, 54
1, 44512, Note_on_c, 0, 49, 0
1, 44512, Note_on_c, 0, 37, 32
1, 44512, Note_on_c, 0, 49, 32
1, 44530, Note_on_c, 0, 66, 0
1, 44530, Note_on_c, 0, 69, 0
1, 44530, Note_on_c, 0, 61, 0
1, 44559, Control_c, 0, 64, 0
1, 44559, Control_c, 0, 64, 0
1, 44988, Control_c, 0, 64, 127
1, 44988, Control_c, 0, 64, 127
1, 45070, Note_on_c, 0, 66, 49
1, 45099, Note_on_c, 0, 68, 0
1, 45819, Note_on_c, 0, 66, 0
1, 45819, Control_c, 0, 64, 0
1, 45819, Note_on_c, 0, 57, 38
1, 45822, Note_on_c, 0, 66, 50
1, 45822, Control_c, 0, 64, 0
1, 45822, Control_c, 0, 64, 0
1, 45825, Note_on_c, 0, 49, 0
1, 45825, Note_on_c, 0, 42, 28
1, 45825, Note_on_c, 0, 49, 28
1, 45841, Note_on_c, 0, 59, 0
1, 45841, Note_on_c, 0, 65, 0
1, 45841, Note_on_c, 0, 37, 0
1, 45915, Control_c, 0, 64, 0
1, 45915, Control_c, 0, 64, 0
1, 46081, Control_c, 0, 64, 127
1, 46081, Control_c, 0, 64, 127
1, 46942, Note_on_c, 0, 57, 0
1, 46942, Note_on_c, 0, 66, 0
1, 46942, Note_on_c, 0, 42, 0
1, 46945, Note_on_c, 0, 49, 0
1, 48019, Control_c, 0, 64, 0
1, 48019, Control_c, 0, 64, 0
1, 48065, Control_c, 0, 64, 0
1, 48065, Note_on_c, 0, 65, 50
1, 48065, Note_on_c, 0, 68, 63
1, 48068, Control_c, 0, 64, 0
1, 48068, Note_on_c, 0, 61, 51
1, 48392, Control_c, 0, 64, 127
1, 48392, Control_c, 0, 64, 127
1, 48964, Note_on_c, 0, 68, 0
1, 48964, Note_on_c, 0, 65, 0
1, 48964, Note_on_c, 0, 66, 54
1, 48967, Note_on_c, 0, 61, 0
1, 48967, Note_on_c, 0, 75, 74
1, 48967, Note_on_c, 0, 61, 60
1, 48972, Control_c, 0, 64, 0
1, 48972, Control_c, 0, 64, 0
1, 49603, Control_c, 0, 64, 127
1, 49603, Control_c, 0, 64, 127
1, 49638, Note_on_c, 0, 75, 0
1, 49638, Note_on_c, 0, 66, 0
1, 49638, Note_on_c, 0, 68, 56
1, 49641, Note_on_c, 0, 77, 67
1, 49887, Note_on_c, 0, 77, 0
1, 49887, Note_on_c, 0, 68, 0
1, 49887, Control_c, 0, 64, 127
1, 49890, Note_on_c, 0, 68, 57
1, 49890, Note_on_c, 0, 77, 72
1, 49890, Control_c, 0, 64, 127
1, 49893, Note_on_c, 0, 61, 0
1, 49893, Note_on_c, 0, 61, 66
1, 50112, Control_c, 0, 64, 0
1, 50112, Control_c, 0, 64, 0
1, 50717, Control_c, 0, 64, 127
1, 50717, Control_c, 0, 64, 127
1, 51235, Note_on_c, 0, 61, 0
1, 51235, Note_on_c, 0, 77, 0
1, 51235, Note_on_c, 0, 68, 0
1, 51238, Note_on_c, 0, 59, 62
1, 51295, Control_c, 0, 64, 0
1, 51295, Control_c, 0, 64, 0
1, 51337, Control_c, 0, 64, 0
1, 51337, Control_c, 0, 64, 0
1, 51475, Control_c, 0, 64, 127
1, 51475, Control_c, 0, 64, 127
1, 51685, Note_on_c, 0, 59, 0
1, 51685, Note_on_c, 0, 66, 48
1, 51685, Note_on_c, 0, 73, 60
1, 51688, Note_on_c, 0, 57, 60
1, 51732, Control_c, 0, 64, 0
1, 51732, Control_c, 0, 64, 0
1, 51850, Control_c, 0, 64, 127
1, 51850, Control_c, 0, 64, 127
1, 52559, Control_c, 0, 64, 0
1, 52559, Control_c, 0, 64, 0
1, 52583, Note_on_c, 0, 73, 0
1, 52583, Note_on_c, 0, 66, 0
1, 52583, Note_on_c, 0, 66, 60
1, 52586, Note_on_c, 0, 72, 60
1, 52586, Note_on_c, 0, 75, 60
1, 52586, Note_on_c, 0, 78, 76
1, 52589, Note_on_c, 0, 57, 0
1, 52589, Note_on_c, 0, 56, 58
1, 52623, Control_c, 0, 64, 0
1, 52623, Control_c, 0, 64, 0
1, 52967, Control_c, 0, 64, 127
1, 52967, Control_c, 0, 64, 127
1, 53257, Note_on_c, 0, 75, 0
1, 53257, Note_on_c, 0, 66, 0
1, 53257, Note_on_c, 0, 72, 0
1, 53260, Note_on_c, 0, 78, 0
1, 53260, Note_on_c, 0, 73, 53
1, 53260, Note_on_c, 0, 85, 72
1, 53263, Note_on_c, 0, 56, 0
1, 53263, Note_on_c, 0, 57, 56
1, 53538, Note_on_c, 0, 85, 0
1, 53538, Note_on_c, 0, 73, 0
1, 53538, Note_on_c, 0, 73, 53
1, 53541, Note_on_c, 0, 57, 0
1, 53541, Note_on_c, 0, 78, 53
1, 53541, Note_on_c, 0, 85, 81
1, 53544, Note_on_c, 0, 57, 55
1, 53615, Control_c, 0, 64, 0
1, 53615, Control_c, 0, 64, 0
1, 53748, Control_c, 0, 64, 127
1, 53748, Control_c, 0, 64, 127
1, 53987, Note_on_c, 0, 85, 0
1, 53987, Note_on_c, 0, 73, 0
1, 53987, Note_on_c, 0, 78, 0
1, 54886, Note_on_c, 0, 57, 0
1, 54886, Note_on_c, 0, 54, 51
1, 55344, Control_c, 0, 64, 0
1, 55344, Control_c, 0, 64, 0
1, 55385, Control_c, 0, 64, 0
1, 55385, Control_c, 0, 64, 0
1, 55385, Note_on_c, 0, 65, 46
1, 55388, Note_on_c, 0, 68, 60
1, 55388, Control_c, 0, 64, 0
1, 55388, Control_c, 0, 64, 0
1, 55391, Note_on_c, 0, 54, 0
1, 55391, Note_on_c, 0, 61, 51
1, 55711, Control_c, 0, 64, 127
1, 55711, Control_c, 0, 64, 127
1, 56283, Note_on_c, 0, 68, 0
1, 56283, Note_on_c, 0, 65, 0
1, 56283, Note_on_c, 0, 69, 54
1, 56286, Note_on_c, 0, 72, 63
1, 56286, Note_on_c, 0, 75, 54
1, 56286, Note_on_c, 0, 78, 77
1, 56289, Note_on_c, 0, 61, 0
1, 56289, Control_c, 0, 64, 0
1, 56289, Note_on_c, 0, 61, 60
1, 56289, Control_c, 0, 64, 0
1, 56922, Control_c, 0, 64, 127
1, 56922, Control_c, 0, 64, 127
1, 56957, Note_on_c, 0, 75, 0
1, 56957, Note_on_c, 0, 69, 0
1, 56957, Note_on_c, 0, 72, 0
1, 56960, Note_on_c, 0, 78, 0
1, 56960, Note_on_c, 0, 68, 50
1, 56960, Note_on_c, 0, 73, 50
1, 56963, Note_on_c, 0, 77, 50
1, 56963, Note_on_c, 0, 80, 73
1, 57207, Note_on_c, 0, 68, 0
1, 57207, Control_c, 0, 64, 127
1, 57207, Control_c, 0, 64, 0
1, 57210, Note_on_c, 0, 77, 0
1, 57210, Note_on_c, 0, 80, 0
1, 57210, Note_on_c, 0, 73, 0
1, 57213, Note_on_c, 0, 68, 50
1, 57213, Note_on_c, 0, 73, 50
1, 57213, Note_on_c, 0, 77, 50
1, 57216, Note_on_c, 0, 80, 69
1, 57216, Control_c, 0, 64, 127
1, 57216, Control_c, 0, 64, 0
1, 57219, Note_on_c, 0, 61, 0
1, 57219, Note_on_c, 0, 61, 66
1, 57457, Control_c, 0, 64, 0
1, 57457, Control_c, 0, 64, 0
1, 58128, Control_c, 0, 64, 127
1, 58128, Control_c, 0, 64, 127
1, 58705, Note_on_c, 0, 77, 0
1, 58705, Note_on_c, 0, 68, 0
1, 58705, Note_on_c, 0, 73, 0
1, 58708, Note_on_c, 0, 80, 0
1, 58708, Note_on_c, 0, 61, 0
1, 58708, Note_on_c, 0, 59, 62
1, 58771, Control_c, 0, 64, 0
1, 58771, Control_c, 0, 64, 0
1, 58818, Control_c, 0, 64, 0
1, 58818, Control_c, 0, 64, 0
1, 58971, Control_c, 0, 64, 127
1, 58971, Control_c, 0, 64, 127
1, 59204, Control_c, 0, 64, 0
1, 59204, Note_on_c, 0, 66, 60
1, 59204, Note_on_c, 0, 73, 60
1, 59207, Note_on_c, 0, 59, 0
1, 59207, Note_on_c, 0, 78, 72
1, 59207, Control_c, 0, 64, 0
1, 59210, Note_on_c, 0, 57, 60
1, 59256, Control_c, 0, 64, 0
1, 59256, Control_c, 0, 64, 0
1, 59388, Control_c, 0, 64, 127
1, 59388, Control_c, 0, 64, 127
1, 60176, Control_c, 0, 64, 0
1, 60176, Control_c, 0, 64, 0
1, 60202, Note_on_c, 0, 78, 0
1, 60202, Note_on_c, 0, 66, 0
1, 60202, Note_on_c, 0, 73, 0
1, 60205, Note_on_c, 0, 64, 51
1, 60205, Note_on_c, 0, 74, 51
1, 60205, Note_on_c, 0, 76, 60
1, 60208, Note_on_c, 0, 57, 0
1, 60208, Note_on_c, 0, 56, 58
1, 60247, Control_c, 0, 64, 0
1, 60247, Control_c, 0, 64, 0
1, 60628, Control_c, 0, 64, 127
1, 60628, Control_c, 0, 64, 127
1, 60951, Note_on_c, 0, 64, 0
1, 60951, Note_on_c, 0, 76, 0
1, 60951, Note_on_c, 0, 74, 0
1, 60954, Note_on_c, 0, 56, 0
1, 60954, Note_on_c, 0, 73, 53
1, 60954, Note_on_c, 0, 85, 65
1, 60957, Note_on_c, 0, 57, 56
1, 61272, Note_on_c, 0, 85, 0
1, 61272, Note_on_c, 0, 73, 0
1, 61272, Control_c, 0, 64, 0
1, 61275, Note_on_c, 0, 73, 53
1, 61275, Note_on_c, 0, 76, 53
1, 61275, Note_on_c, 0, 85, 71
1, 61278, Note_on_c, 0, 57, 0
1, 61278, Control_c, 0, 64, 0
1, 61278, Note_on_c, 0, 57, 55
1, 61358, Control_c, 0, 64, 0
1, 61358, Control_c, 0, 64, 0
1, 61505, Control_c, 0, 64, 127
1, 61505, Control_c, 0, 64, 127
1, 62769, Note_on_c, 0, 73, 0
1, 62769, Note_on_c, 0, 85, 0
1, 62769, Note_on_c, 0, 76, 0
1, 63228, Control_c, 0, 64, 0
1, 63228, Control_c, 0, 64, 0
1, 63269, Control_c, 0, 64, 0
1, 63269, Note_on_c, 0, 80, 75
1, 63269, Note_on_c, 0, 88, 87
1, 63272, Note_on_c, 0, 57, 0
1, 63272, Control_c, 0, 64, 0
1, 63272, Note_on_c, 0, 61, 53
1, 63595, Control_c, 0, 64, 127
1, 63595, Control_c, 0, 64, 127
1, 64167, Note_on_c, 0, 78, 72
1, 64167, Note_on_c, 0, 87, 83
1, 64167, Note_on_c, 0, 60, 58
1, 64176, Control_c, 0, 64, 0
1, 64176, Control_c, 0, 64, 0
1, 64187, Note_on_c, 0, 61, 0
1, 64187, Note_on_c, 0, 80, 0
1, 64187, Note_on_c, 0, 88, 0
1, 64877, Control_c, 0, 64, 127
1, 64877, Control_c, 0, 64, 127
1, 64916, Note_on_c, 0, 76, 70
1, 64916, Note_on_c, 0, 85, 80
1, 64916, Note_on_c, 0, 61, 61
1, 64938, Note_on_c, 0, 78, 0
1, 64938, Note_on_c, 0, 60, 0
1, 64938, Note_on_c, 0, 87, 0
1, 65197, Control_c, 0, 64, 127
1, 65197, Note_on_c, 0, 81, 87
1, 65197, Note_on_c, 0, 73, 67
1, 65200, Control_c, 0, 64, 127
1, 65200, Note_on_c, 0, 64, 62
1, 65219, Note_on_c, 0, 76, 0
1, 65219, Note_on_c, 0, 61, 0
1, 65219, Note_on_c, 0, 85, 0
1, 65478, Control_c, 0, 64, 0
1, 65478, Control_c, 0, 64, 0
1, 65758, Note_on_c, 0, 79, 78
1, 65780, Note_on_c, 0, 81, 0
1, 66233, Control_c, 0, 64, 127
1, 66233, Control_c, 0, 64, 127
1, 66882, Note_on_c, 0, 76, 65
1, 66882, Note_on_c, 0, 80, 74
1, 66882, Note_on_c, 0, 61, 50
1, 66904, Note_on_c, 0, 64, 0
1, 66904, Note_on_c, 0, 79, 0
1, 66904, Note_on_c, 0, 73, 0
1, 66956, Control_c, 0, 64, 0
1, 66956, Control_c, 0, 64, 0
1, 67009, Control_c, 0, 64, 0
1, 67009, Control_c, 0, 64, 0
1, 67181, Control_c, 0, 64, 127
1, 67181, Control_c, 0, 64, 127
1, 67443, Note_on_c, 0, 76, 0
1, 67443, Note_on_c, 0, 80, 0
1, 67443, Note_on_c, 0, 80, 78
1, 67446, Note_on_c, 0, 61, 0
1, 67446, Note_on_c, 0, 88, 78
1, 67446, Note_on_c, 0, 92, 91
1, 67449, Note_on_c, 0, 61, 58
1, 67491, Control_c, 0, 64, 0
1, 67491, Control_c, 0, 64, 0
1, 67609, Control_c, 0, 64, 127
1, 67609, Control_c, 0, 64, 127
1, 68318, Control_c, 0, 64, 0
1, 68318, Control_c, 0, 64, 0
1, 68342, Note_on_c, 0, 81, 77
1, 68342, Note_on_c, 0, 87, 77
1, 68342, Note_on_c, 0, 90, 89
1, 68345, Note_on_c, 0, 60, 63
1, 68359, Note_on_c, 0, 92, 0
1, 68359, Note_on_c, 0, 80, 0
1, 68359, Note_on_c, 0, 88, 0
1, 68362, Note_on_c, 0, 61, 0
1, 68382, Control_c, 0, 64, 0
1, 68382, Control_c, 0, 64, 0
1, 68725, Control_c, 0, 64, 127
1, 68725, Control_c, 0, 64, 127
1, 69016, Note_on_c, 0, 80, 75
1, 69016, Note_on_c, 0, 88, 86
1, 69016, Note_on_c, 0, 61, 68
1, 69038, Note_on_c, 0, 81, 0
1, 69038, Note_on_c, 0, 87, 0
1, 69038, Note_on_c, 0, 90, 0
1, 69041, Note_on_c, 0, 60, 0
1, 69296, Note_on_c, 0, 88, 0
1, 69296, Note_on_c, 0, 76, 85
1, 69296, Note_on_c, 0, 85, 85
1, 69299, Note_on_c, 0, 61, 0
1, 69299, Note_on_c, 0, 88, 98
1, 69299, Note_on_c, 0, 68, 69
1, 69318, Note_on_c, 0, 80, 0
1, 69393, Control_c, 0, 64, 0
1, 69393, Control_c, 0, 64, 0
1, 69484, Control_c, 0, 64, 0
1, 69484, Control_c, 0, 64, 0
1, 69858, Note_on_c, 0, 77, 79
1, 69858, Note_on_c, 0, 83, 79
1, 69858, Note_on_c, 0, 86, 92
1, 69878, Note_on_c, 0, 88, 0
1, 69878, Note_on_c, 0, 85, 0
1, 69878, Note_on_c, 0, 76, 0
1, 70210, Control_c, 0, 64, 127
1, 70210, Control_c, 0, 64, 127
1, 70856, Note_on_c, 0, 78, 70
1, 70856, Note_on_c, 0, 81, 70
1, 70856, Note_on_c, 0, 85, 84
1, 70859, Note_on_c, 0, 61, 55
1, 70886, Note_on_c, 0, 77, 0
1, 70886, Note_on_c, 0, 86, 0
1, 70886, Note_on_c, 0, 83, 0
1, 70889, Note_on_c, 0, 68, 0
1, 71177, Control_c, 0, 64, 0
1, 71177, Control_c, 0, 64, 0
1, 71305, Note_on_c, 0, 61, 72
1, 71365, Note_on_c, 0, 77, 72
1, 71425, Note_on_c, 0, 80, 84
1, 71485, Note_on_c, 0, 89, 84
1, 71537, Control_c, 0, 64, 127
1, 71537, Control_c, 0, 64, 127
1, 71545, Note_on_c, 0, 92, 84
1, 71594, Control_c, 0, 64, 0
1, 71602, Control_c, 0, 64, 127
1, 71605, Note_on_c, 0, 78, 0
1, 71605, Note_on_c, 0, 81, 0
1, 71605, Note_on_c, 0, 85, 0
1, 71608, Note_on_c, 0, 61, 0
1, 71608, Note_on_c, 0, 95, 102
1, 72504, Note_on_c, 0, 61, 0
1, 72504, Note_on_c, 0, 77, 0
1, 72504, Note_on_c, 0, 78, 83
1, 72507, Note_on_c, 0, 87, 83
1, 72507, Note_on_c, 0, 90, 83
1, 72507, Note_on_c, 0, 93, 97
1, 72510, Control_c, 0, 64, 0
1, 72510, Note_on_c, 0, 60, 63
1, 72510, Control_c, 0, 64, 0
1, 72521, Note_on_c, 0, 80, 0
1, 72521, Note_on_c, 0, 89, 0
1, 72521, Note_on_c, 0, 92, 0
1, 72524, Note_on_c, 0, 95, 0
1, 73143, Control_c, 0, 64, 127
1, 73143, Control_c, 0, 64, 127
1, 73178, Note_on_c, 0, 77, 77
1, 73178, Note_on_c, 0, 89, 77
1, 73178, Note_on_c, 0, 92, 89
1, 73181, Note_on_c, 0, 61, 67
1, 73200, Note_on_c, 0, 87, 0
1, 73200, Note_on_c, 0, 78, 0
1, 73200, Note_on_c, 0, 90, 0
1, 73203, Note_on_c, 0, 60, 0
1, 73203, Note_on_c, 0, 93, 0
1, 73459, Note_on_c, 0, 77, 0
1, 73459, Control_c, 0, 64, 127
1, 73459, Control_c, 0, 64, 0
1, 73462, Note_on_c, 0, 92, 0
1, 73462, Note_on_c, 0, 89, 0
1, 73462, Note_on_c, 0, 77, 78
1, 73465, Note_on_c, 0, 89, 78
1, 73465, Note_on_c, 0, 92, 92
1, 73465, Control_c, 0, 64, 127
1, 73468, Note_on_c, 0, 61, 0
1, 73468, Control_c, 0, 64, 0
1, 73468, Note_on_c, 0, 61, 69
1, 73599, Control_c, 0, 64, 127
1, 73599, Control_c, 0, 64, 127
1, 73824, Control_c, 0, 64, 127
1, 73824, Control_c, 0, 64, 127
1, 74020, Note_on_c, 0, 77, 73
1, 74020, Note_on_c, 0, 80, 73
1, 74020, Note_on_c, 0, 86, 86
1, 74023, Note_on_c, 0, 71, 58
1, 74038, Note_on_c, 0, 77, 0
1, 74038, Note_on_c, 0, 92, 0
1, 74038, Note_on_c, 0, 89, 0
1, 74041, Note_on_c, 0, 61, 0
1, 74260, Control_c, 0, 64, 0
1, 74260, Control_c, 0, 64, 0
1, 74798, Control_c, 0, 64, 127
1, 74798, Control_c, 0, 64, 127
1, 74919, Note_on_c, 0, 78, 64
1, 74919, Note_on_c, 0, 85, 73
1, 74919, Note_on_c, 0, 69, 47
1, 74944, Note_on_c, 0, 77, 0
1, 74944, Note_on_c, 0, 80, 0
1, 74944, Note_on_c, 0, 86, 0
1, 74947, Note_on_c, 0, 71, 0
1, 75064, Control_c, 0, 64, 0
1, 75064, Control_c, 0, 64, 0
1, 75261, Control_c, 0, 64, 127
1, 75261, Control_c, 0, 64, 127
1, 75561, Note_on_c, 0, 78, 0
1, 75561, Note_on_c, 0, 85, 0
1, 75561, Control_c, 0, 64, 0
1, 75564, Control_c, 0, 64, 0
1, 75564, Note_on_c, 0, 65, 63
1, 75580, Note_on_c, 0, 69, 0
1, 75613, Control_c, 0, 64, 0
1, 75613, Control_c, 0, 64, 0
1, 75745, Control_c, 0, 64, 127
1, 75745, Control_c, 0, 64, 127
1, 76060, Note_on_c, 0, 68, 53
1, 76060, Note_on_c, 0, 73, 53
1, 76060, Note_on_c, 0, 80, 61
1, 76329, Control_c, 0, 64, 127
1, 76329, Control_c, 0, 64, 127
1, 76509, Note_on_c, 0, 80, 0
1, 76509, Note_on_c, 0, 73, 0
1, 76509, Note_on_c, 0, 68, 0
1, 76512, Note_on_c, 0, 63, 63
1, 76527, Note_on_c, 0, 65, 0
1, 76892, Control_c, 0, 64, 127
1, 76892, Control_c, 0, 64, 127
1, 76904, Control_c, 0, 64, 0
1, 76904, Control_c, 0, 64, 0
1, 76958, Note_on_c, 0, 69, 53
1, 76958, Note_on_c, 0, 72, 53
1, 76958, Note_on_c, 0, 78, 59
1, 77138, Control_c, 0, 64, 127
1, 77138, Control_c, 0, 64, 127
1, 77408, Note_on_c, 0, 72, 0
1, 77408, Note_on_c, 0, 69, 0
1, 77408, Control_c, 0, 64, 0
1, 77411, Note_on_c, 0, 78, 0
1, 77411, Control_c, 0, 64, 0
1, 77411, Note_on_c, 0, 56, 58
1, 77427, Note_on_c, 0, 63, 0
1, 77493, Control_c, 0, 64, 0
1, 77493, Control_c, 0, 64, 0
1, 77641, Control_c, 0, 64, 127
1, 77641, Control_c, 0, 64, 127
1, 77907, Note_on_c, 0, 68, 59
1, 77907, Note_on_c, 0, 73, 59
1, 77907, Note_on_c, 0, 77, 68
1, 78468, Note_on_c, 0, 44, 50
1, 78490, Control_c, 0, 64, 127
1, 78490, Control_c, 0, 64, 127
1, 78493, Note_on_c, 0, 56, 0
1, 78938, Control_c, 0, 64, 0
1, 78938, Control_c, 0, 64, 0
1, 79070, Note_on_c, 0, 77, 0
1, 79070, Note_on_c, 0, 68, 0
1, 79070, Note_on_c, 0, 73, 0
1, 79110, Note_on_c, 0, 66, 45
1, 79110, Note_on_c, 0, 69, 45
1, 79110, Note_on_c, 0, 72, 45
1, 79113, Note_on_c, 0, 75, 59
1, 79324, Control_c, 0, 64, 127
1, 79324, Control_c, 0, 64, 127
1, 79523, Control_c, 0, 64, 127
1, 79523, Control_c, 0, 64, 127
1, 79847, Control_c, 0, 64, 127
1, 79859, Note_on_c, 0, 69, 0
1, 79859, Note_on_c, 0, 66, 0
1, 79859, Control_c, 0, 64, 127
1, 79862, Note_on_c, 0, 75, 0
1, 79862, Note_on_c, 0, 72, 0
1, 79862, Note_on_c, 0, 65, 49
1, 79865, Note_on_c, 0, 68, 61
1, 79865, Control_c, 0, 64, 127
1, 79865, Note_on_c, 0, 37, 56
1, 79877, Note_on_c, 0, 44, 0
1, 80084, Control_c, 0, 64, 127
1, 80084, Control_c, 0, 64, 127
1, 80219, Control_c, 0, 64, 0
1, 80219, Control_c, 0, 64, 0
1, 80713, Control_c, 0, 64, 127
1, 80713, Control_c, 0, 64, 127
1, 80758, Note_on_c, 0, 65, 0
1, 80758, Note_on_c, 0, 68, 0
1, 80758, Note_on_c, 0, 66, 63
1, 80761, Note_on_c, 0, 37, 0
1, 80761, Note_on_c, 0, 75, 75
1, 80761, Note_on_c, 0, 37, 56
1, 80908, Control_c, 0, 64, 0
1, 80908, Control_c, 0, 64, 0
1, 81107, Control_c, 0, 64, 127
1, 81107, Control_c, 0, 64, 127
1, 81431, Note_on_c, 0, 75, 0
1, 81431, Note_on_c, 0, 66, 0
1, 81431, Note_on_c, 0, 68, 54
1, 81434, Note_on_c, 0, 77, 66
1, 81544, Note_on_c, 0, 37, 0
1, 81544, Note_on_c, 0, 37, 52
1, 81699, Control_c, 0, 64, 127
1, 81699, Control_c, 0, 64, 0
1, 81718, Control_c, 0, 64, 127
1, 81718, Control_c, 0, 64, 0
1, 81725, Control_c, 0, 64, 127
1, 81725, Control_c, 0, 64, 0
1, 81731, Note_on_c, 0, 77, 0
1, 81731, Note_on_c, 0, 68, 0
1, 81731, Note_on_c, 0, 68, 54
1, 81734, Note_on_c, 0, 77, 66
1, 81734, Note_on_c, 0, 58, 61
1, 81766, Control_c, 0, 64, 0
1, 81766, Control_c, 0, 64, 0
1, 82086, Control_c, 0, 64, 127
1, 82086, Control_c, 0, 64, 127
1, 82405, Note_on_c, 0, 58, 0
1, 82405, Note_on_c, 0, 59, 53
1, 82655, Note_on_c, 0, 59, 0
1, 82655, Note_on_c, 0, 59, 50
1, 83154, Note_on_c, 0, 37, 0
1, 83154, Note_on_c, 0, 38, 54
1, 83528, Note_on_c, 0, 38, 0
1, 83528, Note_on_c, 0, 38, 54
1, 83714, Note_on_c, 0, 59, 0
1, 83714, Note_on_c, 0, 68, 0
1, 83714, Note_on_c, 0, 77, 0
1, 83714, Control_c, 0, 64, 127
1, 83714, Control_c, 0, 64, 0
1, 83714, Note_on_c, 0, 66, 60
1, 83714, Note_on_c, 0, 69, 60
1, 83714, Note_on_c, 0, 78, 72
1, 83714, Note_on_c, 0, 57, 61
1, 83929, Control_c, 0, 64, 0
1, 83929, Control_c, 0, 64, 0
1, 84400, Control_c, 0, 64, 127
1, 84400, Control_c, 0, 64, 127
1, 84614, Note_on_c, 0, 78, 0
1, 84614, Note_on_c, 0, 69, 0
1, 84614, Note_on_c, 0, 66, 0
1, 84617, Note_on_c, 0, 64, 57
1, 84617, Note_on_c, 0, 74, 57
1, 84617, Note_on_c, 0, 76, 68
1, 84620, Note_on_c, 0, 38, 0
1, 84620, Note_on_c, 0, 57, 0
1, 84620, Note_on_c, 0, 56, 54
1, 84623, Note_on_c, 0, 50, 54
1, 84871, Control_c, 0, 64, 0
1, 84871, Control_c, 0, 64, 0
1, 85127, Control_c, 0, 64, 127
1, 85127, Control_c, 0, 64, 127
1, 85288, Note_on_c, 0, 74, 0
1, 85288, Note_on_c, 0, 76, 0
1, 85288, Note_on_c, 0, 64, 0
1, 85291, Note_on_c, 0, 56, 0
1, 85291, Note_on_c, 0, 74, 54
1, 85291, Note_on_c, 0, 86, 64
1, 85294, Note_on_c, 0, 57, 54
1, 85569, Note_on_c, 0, 86, 0
1, 85569, Note_on_c, 0, 74, 0
1, 85569, Note_on_c, 0, 74, 54
1, 85572, Note_on_c, 0, 57, 0
1, 85572, Note_on_c, 0, 78, 54
1, 85572, Note_on_c, 0, 86, 63
1, 85575, Note_on_c, 0, 50, 0
1, 85575, Note_on_c, 0, 57, 50
1, 85575, Note_on_c, 0, 50, 50
1, 86107, Control_c, 0, 64, 0
1, 86107, Control_c, 0, 64, 0
1, 86467, Note_on_c, 0, 50, 0
1, 86467, Note_on_c, 0, 38, 53
1, 86560, Control_c, 0, 64, 127
1, 86560, Control_c, 0, 64, 127
1, 87141, Note_on_c, 0, 38, 0
1, 87141, Note_on_c, 0, 39, 53
1, 87358, Control_c, 0, 64, 0
1, 87358, Control_c, 0, 64, 0
1, 87384, Control_c, 0, 64, 127
1, 87391, Note_on_c, 0, 74, 0
1, 87391, Note_on_c, 0, 86, 0
1, 87391, Note_on_c, 0, 78, 0
1, 87394, Note_on_c, 0, 57, 0
1, 87394, Note_on_c, 0, 66, 54
1, 87394, Note_on_c, 0, 72, 63
1, 87397, Note_on_c, 0, 39, 0
1, 87397, Note_on_c, 0, 39, 50
1, 88389, Note_on_c, 0, 72, 0
1, 88389, Note_on_c, 0, 66, 0
1, 88389, Note_on_c, 0, 71, 63
1, 88392, Note_on_c, 0, 39, 0
1, 88392, Note_on_c, 0, 80, 72
1, 88392, Note_on_c, 0, 39, 50
1, 88420, Control_c, 0, 64, 0
1, 88420, Control_c, 0, 64, 0
1, 88690, Control_c, 0, 64, 127
1, 88690, Control_c, 0, 64, 127
1, 89138, Note_on_c, 0, 80, 0
1, 89138, Note_on_c, 0, 71, 0
1, 89138, Note_on_c, 0, 72, 56
1, 89141, Note_on_c, 0, 81, 65
1, 89263, Note_on_c, 0, 39, 0
1, 89263, Note_on_c, 0, 39, 50
1, 89343, Control_c, 0, 64, 127
1, 89381, Control_c, 0, 64, 0
1, 89410, Control_c, 0, 64, 127
1, 89450, Note_on_c, 0, 81, 0
1, 89450, Note_on_c, 0, 72, 0
1, 89450, Note_on_c, 0, 72, 56
1, 89453, Note_on_c, 0, 81, 65
1, 89453, Note_on_c, 0, 53, 61
1, 90124, Note_on_c, 0, 53, 0
1, 90124, Control_c, 0, 64, 127
1, 90124, Control_c, 0, 64, 127
1, 90127, Note_on_c, 0, 54, 56
1, 90394, Control_c, 0, 64, 0
1, 90394, Control_c, 0, 64, 0
1, 90405, Note_on_c, 0, 54, 0
1, 90405, Note_on_c, 0, 54, 54
1, 90904, Note_on_c, 0, 39, 0
1, 90904, Note_on_c, 0, 38, 58
1, 91217, Control_c, 0, 64, 127
1, 91217, Control_c, 0, 64, 127
1, 91485, Control_c, 0, 64, 0
1, 91485, Control_c, 0, 64, 0
1, 91546, Note_on_c, 0, 72, 0
1, 91546, Note_on_c, 0, 81, 0
1, 91546, Note_on_c, 0, 73, 68
1, 91549, Note_on_c, 0, 54, 0
1, 91549, Note_on_c, 0, 38, 0
1, 91549, Note_on_c, 0, 66, 60
1, 91552, Note_on_c, 0, 45, 55
1, 91552, Note_on_c, 0, 37, 55
1, 91753, Control_c, 0, 64, 127
1, 91753, Control_c, 0, 64, 127
1, 92544, Note_on_c, 0, 66, 0
1, 92544, Note_on_c, 0, 73, 0
1, 92544, Note_on_c, 0, 65, 52
1, 92547, Note_on_c, 0, 45, 0
1, 92547, Note_on_c, 0, 71, 52
1, 92547, Note_on_c, 0, 73, 63
1, 92550, Note_on_c, 0, 37, 0
1, 92550, Note_on_c, 0, 37, 50
1, 92550, Note_on_c, 0, 44, 50
1, 92585, Control_c, 0, 64, 0
1, 92585, Control_c, 0, 64, 0
1, 93092, Control_c, 0, 64, 127
1, 93092, Control_c, 0, 64, 127
1, 93106, Note_on_c, 0, 65, 0
1, 93106, Note_on_c, 0, 71, 0
1, 93106, Note_on_c, 0, 66, 43
1, 93109, Note_on_c, 0, 69, 50
1, 93427, Note_on_c, 0, 44, 0
1, 93427, Note_on_c, 0, 42, 47
1, 93587, Control_c, 0, 64, 127
1, 93587, Control_c, 0, 64, 127
1, 93792, Control_c, 0, 64, 127
1, 93801, Note_on_c, 0, 66, 0
1, 93801, Note_on_c, 0, 69, 0
1, 93801, Note_on_c, 0, 73, 0
1, 93804, Note_on_c, 0, 66, 42
1, 93804, Note_on_c, 0, 69, 42
1, 93804, Note_on_c, 0, 73, 48
1, 93807, Note_on_c, 0, 37, 0
1, 93807, Note_on_c, 0, 42, 0
1, 93807, Note_on_c, 0, 30, 29
1, 93810, Note_on_c, 0, 42, 43
1, 93820, Control_c, 0, 64, 127
1, 93820, Control_c, 0, 64, 127
1, 93912, Control_c, 0, 64, 0
1, 93912, Control_c, 0, 64, 0
1, 96287, Control_c, 0, 64, 0
1, 96287, Control_c, 0, 64, 0
1, 96796, Note_on_c, 0, 69, 0
1, 96796, Note_on_c, 0, 73, 0
1, 96796, Note_on_c, 0, 66, 0
1, 96799, Note_on_c, 0, 30, 0
1, 96799, Note_on_c, 0, 57, 39
1, 96799, Note_on_c, 0, 61, 51
1, 96802, Note_on_c, 0, 42, 0
1, 96802, Note_on_c, 0, 54, 55
1, 96878, Note_on_c, 0, 54, 0
1, 97102, Note_on_c, 0, 49, 48
1, 97129, Note_on_c, 0, 61, 0
1, 97129, Note_on_c, 0, 57, 0
1, 97143, Note_on_c, 0, 49, 0
1, 97205, Note_on_c, 0, 56, 48
1, 97205, Note_on_c, 0, 59, 48
1, 97205, Note_on_c, 0, 61, 60
1, 97208, Note_on_c, 0, 49, 46
1, 97286, Note_on_c, 0, 49, 0
1, 97409, Note_on_c, 0, 50, 55
1, 97491, Note_on_c, 0, 50, 0
1, 97715, Note_on_c, 0, 47, 48
1, 97741, Note_on_c, 0, 61, 0
1, 97741, Note_on_c, 0, 56, 0
1, 97741, Note_on_c, 0, 59, 0
1, 97756, Note_on_c, 0, 47, 0
1, 97817, Note_on_c, 0, 57, 48
1, 97817, Note_on_c, 0, 62, 48
1, 97817, Note_on_c, 0, 66, 71
1, 97820, Note_on_c, 0, 47, 46
1, 97899, Note_on_c, 0, 47, 0
1, 98021, Note_on_c, 0, 49, 52
1, 98103, Note_on_c, 0, 49, 0
1, 98226, Note_on_c, 0, 37, 47
1, 98307, Note_on_c, 0, 37, 0
1, 98430, Note_on_c, 0, 56, 42
1, 98430, Note_on_c, 0, 61, 42
1, 98430, Note_on_c, 0, 65, 57
1, 98433, Note_on_c, 0, 42, 42
1, 98438, Note_on_c, 0, 57, 0
1, 98438, Note_on_c, 0, 66, 0
1, 98438, Note_on_c, 0, 62, 0
1, 98512, Note_on_c, 0, 42, 0
1, 98634, Note_on_c, 0, 54, 55
1, 98716, Note_on_c, 0, 54, 0
1, 98940, Note_on_c, 0, 49, 48
1, 98967, Note_on_c, 0, 61, 0
1, 98967, Note_on_c, 0, 56, 0
1, 98967, Note_on_c, 0, 65, 0
1, 98981, Note_on_c, 0, 49, 0
1, 99043, Note_on_c, 0, 57, 48
1, 99043, Note_on_c, 0, 61, 48
1, 99043, Note_on_c, 0, 66, 63
1, 99046, Note_on_c, 0, 49, 46
1, 99124, Note_on_c, 0, 49, 0
1, 99247, Note_on_c, 0, 50, 55
1, 99329, Note_on_c, 0, 50, 0
1, 99553, Note_on_c, 0, 47, 48
1, 99579, Note_on_c, 0, 66, 0
1, 99579, Note_on_c, 0, 57, 0
1, 99579, Note_on_c, 0, 61, 0
1, 99594, Note_on_c, 0, 47, 0
1, 99655, Note_on_c, 0, 62, 52
1, 99655, Note_on_c, 0, 66, 52
1, 99655, Note_on_c, 0, 69, 52
1, 99658, Note_on_c, 0, 73, 71
1, 99658, Note_on_c, 0, 47, 46
1, 99737, Note_on_c, 0, 47, 0
1, 99859, Note_on_c, 0, 52, 52
1, 99941, Note_on_c, 0, 52, 0
1, 100064, Note_on_c, 0, 40, 47
1, 100145, Note_on_c, 0, 40, 0
1, 100268, Note_on_c, 0, 62, 0
1, 100268, Note_on_c, 0, 62, 40
1, 100268, Note_on_c, 0, 68, 40
1, 100271, Note_on_c, 0, 71, 59
1, 100271, Note_on_c, 0, 45, 42
1, 100276, Note_on_c, 0, 66, 0
1, 100276, Note_on_c, 0, 73, 0
1, 100276, Note_on_c, 0, 69, 0
1, 100350, Note_on_c, 0, 45, 0
1, 100472, Note_on_c, 0, 57, 64
1, 100554, Note_on_c, 0, 57, 0
1, 100778, Note_on_c, 0, 56, 58
1, 100819, Note_on_c, 0, 56, 0
1, 100881, Note_on_c, 0, 62, 0
1, 100881, Note_on_c, 0, 71, 0
1, 100881, Note_on_c, 0, 68, 0
1, 100884, Note_on_c, 0, 64, 60
1, 100884, Note_on_c, 0, 72, 72
1, 100884, Note_on_c, 0, 56, 57
1, 100980, Note_on_c, 0, 56, 0
1, 101130, Note_on_c, 0, 73, 72
1, 101130, Note_on_c, 0, 57, 65
1, 101138, Note_on_c, 0, 72, 0
1, 101212, Note_on_c, 0, 57, 0
1, 101436, Note_on_c, 0, 52, 59
1, 101463, Note_on_c, 0, 73, 0
1, 101463, Note_on_c, 0, 64, 0
1, 101477, Note_on_c, 0, 52, 0
1, 101539, Note_on_c, 0, 66, 60
1, 101539, Note_on_c, 0, 72, 60
1, 101539, Note_on_c, 0, 76, 84
1, 101542, Note_on_c, 0, 52, 58
1, 101620, Note_on_c, 0, 52, 0
1, 101743, Note_on_c, 0, 56, 64
1, 101833, Note_on_c, 0, 56, 0
1, 101967, Note_on_c, 0, 44, 59
1, 102049, Note_on_c, 0, 44, 0
1, 102172, Note_on_c, 0, 74, 68
1, 102172, Note_on_c, 0, 56, 55
1, 102181, Note_on_c, 0, 76, 0
1, 102272, Note_on_c, 0, 56, 0
1, 102421, Note_on_c, 0, 57, 55
1, 102503, Note_on_c, 0, 57, 0
1, 102728, Note_on_c, 0, 51, 57
1, 102754, Note_on_c, 0, 74, 0
1, 102754, Note_on_c, 0, 66, 0
1, 102754, Note_on_c, 0, 72, 0
1, 102768, Note_on_c, 0, 51, 0
1, 102830, Note_on_c, 0, 66, 56
1, 102830, Note_on_c, 0, 72, 75
1, 102830, Note_on_c, 0, 51, 55
1, 102935, Note_on_c, 0, 51, 0
1, 103094, Note_on_c, 0, 68, 54
1, 103094, Note_on_c, 0, 73, 73
1, 103094, Note_on_c, 0, 52, 58
1, 103103, Note_on_c, 0, 72, 0
1, 103103, Note_on_c, 0, 66, 0
1, 103184, Note_on_c, 0, 52, 0
1, 103202, Control_c, 0, 64, 127
1, 103202, Control_c, 0, 64, 127
1, 103298, Control_c, 0, 64, 0
1, 103298, Control_c, 0, 64, 0
1, 103348, Note_on_c, 0, 68, 0
1, 103348, Note_on_c, 0, 73, 0
1, 103419, Control_c, 0, 64, 0
1, 103419, Control_c, 0, 64, 0
1, 103431, Note_on_c, 0, 68, 66
1, 103431, Note_on_c, 0, 73, 66
1, 103431, Note_on_c, 0, 80, 83
1, 103434, Note_on_c, 0, 40, 62
1, 103481, Note_on_c, 0, 40, 0
1, 103556, Note_on_c, 0, 40, 62
1, 103566, Control_c, 0, 64, 127
1, 103566, Control_c, 0, 64, 127
1, 103668, Note_on_c, 0, 40, 0
1, 103732, Note_on_c, 0, 80, 0
1, 103732, Note_on_c, 0, 73, 0
1, 103732, Note_on_c, 0, 68, 0
1, 103837, Note_on_c, 0, 66, 63
1, 103837, Note_on_c, 0, 72, 63
1, 103837, Note_on_c, 0, 75, 82
1, 103840, Note_on_c, 0, 56, 63
1, 103848, Control_c, 0, 64, 0
1, 103848, Control_c, 0, 64, 0
1, 103926, Note_on_c, 0, 56, 0
1, 104005, Control_c, 0, 64, 127
1, 104005, Control_c, 0, 64, 127
1, 104061, Note_on_c, 0, 44, 58
1, 104146, Control_c, 0, 64, 0
1, 104146, Control_c, 0, 64, 0
1, 104161, Note_on_c, 0, 44, 0
1, 104311, Note_on_c, 0, 49, 53
1, 104439, Note_on_c, 0, 49, 0
1, 104528, Control_c, 0, 64, 0
1, 104528, Control_c, 0, 64, 0
1, 104569, Note_on_c, 0, 66, 0
1, 104569, Note_on_c, 0, 72, 0
1, 104569, Note_on_c, 0, 75, 0
1, 104632, Note_on_c, 0, 67, 45
1, 104632, Note_on_c, 0, 73, 57
1, 104632, Note_on_c, 0, 64, 62
1, 104713, Note_on_c, 0, 64, 0
1, 104938, Note_on_c, 0, 58, 55
1, 104979, Note_on_c, 0, 58, 0
1, 105040, Note_on_c, 0, 58, 53
1, 105122, Note_on_c, 0, 58, 0
1, 105244, Note_on_c, 0, 59, 62
1, 105326, Note_on_c, 0, 59, 0
1, 105551, Note_on_c, 0, 47, 55
1, 105577, Note_on_c, 0, 73, 0
1, 105577, Note_on_c, 0, 67, 0
1, 105591, Note_on_c, 0, 47, 0
1, 105653, Note_on_c, 0, 62, 54
1, 105653, Note_on_c, 0, 66, 54
1, 105653, Note_on_c, 0, 71, 66
1, 105656, Note_on_c, 0, 47, 53
1, 105735, Note_on_c, 0, 47, 0
1, 105857, Note_on_c, 0, 52, 59
1, 105939, Note_on_c, 0, 52, 0
1, 106061, Note_on_c, 0, 40, 54
1, 106143, Note_on_c, 0, 40, 0
1, 106265, Note_on_c, 0, 62, 0
1, 106265, Note_on_c, 0, 62, 45
1, 106265, Note_on_c, 0, 68, 57
1, 106268, Note_on_c, 0, 45, 49
1, 106273, Note_on_c, 0, 71, 0
1, 106273, Note_on_c, 0, 66, 0
1, 106347, Note_on_c, 0, 45, 0
1, 106470, Note_on_c, 0, 54, 53
1, 106551, Note_on_c, 0, 54, 0
1, 106776, Note_on_c, 0, 49, 46
1, 106802, Note_on_c, 0, 62, 0
1, 106802, Note_on_c, 0, 68, 0
1, 106817, Note_on_c, 0, 49, 0
1, 106878, Note_on_c, 0, 61, 42
1, 106878, Note_on_c, 0, 66, 42
1, 106878, Note_on_c, 0, 69, 54
1, 106881, Note_on_c, 0, 49, 44
1, 106960, Note_on_c, 0, 49, 0
1, 107082, Note_on_c, 0, 50, 53
1, 107164, Note_on_c, 0, 50, 0
1, 107389, Note_on_c, 0, 47, 46
1, 107415, Note_on_c, 0, 69, 0
1, 107415, Note_on_c, 0, 61, 0
1, 107415, Note_on_c, 0, 66, 0
1, 107429, Note_on_c, 0, 47, 0
1, 107491, Note_on_c, 0, 59, 45
1, 107491, Note_on_c, 0, 62, 45
1, 107491, Note_on_c, 0, 68, 57
1, 107494, Note_on_c, 0, 47, 44
1, 107572, Note_on_c, 0, 47, 0
1, 107695, Note_on_c, 0, 49, 50
1, 107785, Note_on_c, 0, 49, 0
1, 107920, Note_on_c, 0, 37, 45
1, 108010, Note_on_c, 0, 37, 0
1, 108144, Note_on_c, 0, 59, 0
1, 108144, Note_on_c, 0, 56, 42
1, 108144, Note_on_c, 0, 59, 42
1, 108147, Note_on_c, 0, 65, 54
1, 108147, Note_on_c, 0, 42, 40
1, 108154, Note_on_c, 0, 68, 0
1, 108154, Note_on_c, 0, 62, 0
1, 108244, Note_on_c, 0, 42, 0
1, 108394, Note_on_c, 0, 59, 0
1, 108394, Note_on_c, 0, 65, 0
1, 108394, Note_on_c, 0, 56, 0
1, 108397, Note_on_c, 0, 57, 39
1, 108397, Note_on_c, 0, 61, 51
1, 108397, Note_on_c, 0, 54, 52
1, 108494, Note_on_c, 0, 54, 0
1, 108746, Note_on_c, 0, 49, 45
1, 108772, Note_on_c, 0, 61, 0
1, 108772, Note_on_c, 0, 57, 0
1, 108786, Note_on_c, 0, 49, 0
1, 108848, Note_on_c, 0, 56, 48
1, 108848, Note_on_c, 0, 59, 48
1, 108848, Note_on_c, 0, 61, 60
1, 108851, Note_on_c, 0, 49, 43
1, 108929, Note_on_c, 0, 49, 0
1, 109052, Note_on_c, 0, 50, 52
1, 109134, Note_on_c, 0, 50, 0
1, 109358, Note_on_c, 0, 47, 45
1, 109384, Note_on_c, 0, 61, 0
1, 109384, Note_on_c, 0, 56, 0
1, 109384, Note_on_c, 0, 59, 0
1, 109399, Note_on_c, 0, 47, 0
1, 109460, Note_on_c, 0, 57, 53
1, 109460, Note_on_c, 0, 62, 53
1, 109460, Note_on_c, 0, 66, 65
1, 109463, Note_on_c, 0, 47, 43
1, 109542, Note_on_c, 0, 47, 0
1, 109664, Note_on_c, 0, 49, 49
1, 109746, Note_on_c, 0, 49, 0
1, 109869, Note_on_c, 0, 37, 44
1, 109950, Note_on_c, 0, 37, 0
1, 110073, Note_on_c, 0, 56, 41
1, 110073, Note_on_c, 0, 61, 41
1, 110073, Note_on_c, 0, 65, 53
1, 110076, Note_on_c, 0, 42, 39
1, 110081, Note_on_c, 0, 57, 0
1, 110081, Note_on_c, 0, 66, 0
1, 110081, Note_on_c, 0, 62, 0
1, 110155, Note_on_c, 0, 42, 0
1, 110277, Note_on_c, 0, 54, 52
1, 110359, Note_on_c, 0, 54, 0
1, 110583, Note_on_c, 0, 49, 45
1, 110610, Note_on_c, 0, 61, 0
1, 110610, Note_on_c, 0, 56, 0
1, 110610, Note_on_c, 0, 65, 0
1, 110624, Note_on_c, 0, 49, 0
1, 110686, Note_on_c, 0, 57, 46
1, 110686, Note_on_c, 0, 61, 46
1, 110686, Note_on_c, 0, 66, 60
1, 110689, Note_on_c, 0, 49, 43
1, 110767, Note_on_c, 0, 49, 0
1, 110890, Note_on_c, 0, 50, 52
1, 110972, Note_on_c, 0, 50, 0
1, 111196, Note_on_c, 0, 47, 45
1, 111222, Note_on_c, 0, 66, 0
1, 111222, Note_on_c, 0, 57, 0
1, 111222, Note_on_c, 0, 61, 0
1, 111237, Note_on_c, 0, 47, 0
1, 111298, Note_on_c, 0, 62, 47
1, 111298, Note_on_c, 0, 66, 47
1, 111298, Note_on_c, 0, 69, 47
1, 111301, Note_on_c, 0, 73, 68
1, 111301, Note_on_c, 0, 47, 43
1, 111398, Note_on_c, 0, 47, 0
1, 111548, Note_on_c, 0, 52, 49
1, 111630, Note_on_c, 0, 52, 0
1, 111752, Note_on_c, 0, 40, 44
1, 111834, Note_on_c, 0, 40, 0
1, 111956, Note_on_c, 0, 62, 0
1, 111956, Note_on_c, 0, 62, 48
1, 111956, Note_on_c, 0, 68, 48
1, 111959, Note_on_c, 0, 71, 60
1, 111959, Note_on_c, 0, 45, 39
1, 111964, Note_on_c, 0, 66, 0
1, 111964, Note_on_c, 0, 73, 0
1, 111964, Note_on_c, 0, 69, 0
1, 112038, Note_on_c, 0, 45, 0
1, 112160, Note_on_c, 0, 57, 64
1, 112242, Note_on_c, 0, 57, 0
1, 112467, Note_on_c, 0, 56, 58
1, 112508, Note_on_c, 0, 56, 0
1, 112569, Note_on_c, 0, 62, 0
1, 112569, Note_on_c, 0, 71, 0
1, 112569, Note_on_c, 0, 68, 0
1, 112572, Note_on_c, 0, 64, 60
1, 112572, Note_on_c, 0, 72, 72
1, 112572, Note_on_c, 0, 56, 57
1, 112669, Note_on_c, 0, 56, 0
1, 112819, Note_on_c, 0, 73, 67
1, 112819, Note_on_c, 0, 57, 65
1, 112827, Note_on_c, 0, 72, 0
1, 112900, Note_on_c, 0, 57, 0
1, 113125, Note_on_c, 0, 52, 59
1, 113151, Note_on_c, 0, 73, 0
1, 113151, Note_on_c, 0, 64, 0
1, 113166, Note_on_c, 0, 52, 0
1, 113227, Note_on_c, 0, 66, 55
1, 113227, Note_on_c, 0, 72, 55
1, 113227, Note_on_c, 0, 76, 79
1, 113230, Note_on_c, 0, 52, 58
1, 113309, Note_on_c, 0, 52, 0
1, 113431, Note_on_c, 0, 56, 64
1, 113521, Note_on_c, 0, 56, 0
1, 113656, Note_on_c, 0, 44, 59
1, 113738, Note_on_c, 0, 44, 0
1, 113860, Note_on_c, 0, 74, 68
1, 113860, Note_on_c, 0, 56, 55
1, 113870, Note_on_c, 0, 76, 0
1, 113960, Note_on_c, 0, 56, 0
1, 114110, Note_on_c, 0, 57, 55
1, 114191, Note_on_c, 0, 57, 0
1, 114416, Note_on_c, 0, 51, 57
1, 114442, Note_on_c, 0, 74, 0
1, 114442, Note_on_c, 0, 66, 0
1, 114442, Note_on_c, 0, 72, 0
1, 114457, Note_on_c, 0, 51, 0
1, 114518, Note_on_c, 0, 66, 56
1, 114518, Note_on_c, 0, 72, 75
1, 114518, Note_on_c, 0, 51, 55
1, 114618, Note_on_c, 0, 51, 0
1, 114768, Note_on_c, 0, 68, 54
1, 114768, Note_on_c, 0, 73, 73
1, 114768, Note_on_c, 0, 52, 58
1, 114776, Note_on_c, 0, 72, 0
1, 114776, Note_on_c, 0, 66, 0
1, 114858, Note_on_c, 0, 52, 0
1, 114876, Control_c, 0, 64, 127
1, 114876, Control_c, 0, 64, 127
1, 114972, Control_c, 0, 64, 0
1, 114972, Control_c, 0, 64, 0
1, 115021, Note_on_c, 0, 68, 0
1, 115021, Note_on_c, 0, 73, 0
1, 115093, Control_c, 0, 64, 0
1, 115093, Control_c, 0, 64, 0
1, 115105, Note_on_c, 0, 68, 66
1, 115105, Note_on_c, 0, 73, 66
1, 115105, Note_on_c, 0, 80, 83
1, 115108, Note_on_c, 0, 40, 62
1, 115164, Note_on_c, 0, 40, 0
1, 115254, Note_on_c, 0, 40, 62
1, 115264, Control_c, 0, 64, 127
1, 115264, Control_c, 0, 64, 127
1, 115367, Note_on_c, 0, 40, 0
1, 115431, Note_on_c, 0, 80, 0
1, 115431, Note_on_c, 0, 73, 0
1, 115431, Note_on_c, 0, 68, 0
1, 115535, Note_on_c, 0, 66, 63
1, 115535, Note_on_c, 0, 72, 63
1, 115535, Note_on_c, 0, 75, 82
1, 115538, Note_on_c, 0, 56, 63
1, 115547, Control_c, 0, 64, 0
1, 115547, Control_c, 0, 64, 0
1, 115625, Note_on_c, 0, 56, 0
1, 115704, Control_c, 0, 64, 127
1, 115704, Control_c, 0, 64, 127
1, 115760, Note_on_c, 0, 44, 58
1, 115845, Control_c, 0, 64, 0
1, 115845, Control_c, 0, 64, 0
1, 115860, Note_on_c, 0, 44, 0
1, 116009, Note_on_c, 0, 49, 53
1, 116138, Note_on_c, 0, 49, 0
1, 116227, Control_c, 0, 64, 0
1, 116227, Control_c, 0, 64, 0
1, 116268, Note_on_c, 0, 66, 0
1, 116268, Note_on_c, 0, 72, 0
1, 116268, Note_on_c, 0, 75, 0
1, 116330, Note_on_c, 0, 67, 45
1, 116330, Note_on_c, 0, 73, 57
1, 116330, Note_on_c, 0, 64, 49
1, 116412, Note_on_c, 0, 64, 0
1, 116637, Note_on_c, 0, 58, 55
1, 116677, Note_on_c, 0, 58, 0
1, 116739, Note_on_c, 0, 58, 53
1, 116821, Note_on_c, 0, 58, 0
1, 116943, Note_on_c, 0, 59, 53
1, 117025, Note_on_c, 0, 59, 0
1, 117249, Note_on_c, 0, 47, 46
1, 117276, Note_on_c, 0, 73, 0
1, 117276, Note_on_c, 0, 67, 0
1, 117290, Note_on_c, 0, 47, 0
1, 117351, Note_on_c, 0, 62, 50
1, 117351, Note_on_c, 0, 66, 50
1, 117351, Note_on_c, 0, 71, 66
1, 117354, Note_on_c, 0, 47, 44
1, 117433, Note_on_c, 0, 47, 0
1, 117556, Note_on_c, 0, 52, 50
1, 117637, Note_on_c, 0, 52, 0
1, 117760, Note_on_c, 0, 40, 45
1, 117842, Note_on_c, 0, 40, 0
1, 117964, Note_on_c, 0, 62, 0
1, 117964, Note_on_c, 0, 62, 41
1, 117964, Note_on_c, 0, 68, 57
1, 117967, Note_on_c, 0, 45, 40
1, 117972, Note_on_c, 0, 71, 0
1, 117972, Note_on_c, 0, 66, 0
1, 118046, Note_on_c, 0, 45, 0
1, 118168, Note_on_c, 0, 54, 49
1, 118250, Note_on_c, 0, 54, 0
1, 118475, Note_on_c, 0, 49, 42
1, 118501, Note_on_c, 0, 62, 0
1, 118501, Note_on_c, 0, 68, 0
1, 118515, Note_on_c, 0, 49, 0
1, 118577, Note_on_c, 0, 61, 38
1, 118577, Note_on_c, 0, 66, 38
1, 118577, Note_on_c, 0, 69, 54
1, 118580, Note_on_c, 0, 49, 40
1, 118659, Note_on_c, 0, 49, 0
1, 118781, Note_on_c, 0, 50, 49
1, 118871, Note_on_c, 0, 50, 0
1, 119118, Note_on_c, 0, 47, 42
1, 119147, Note_on_c, 0, 69, 0
1, 119147, Note_on_c, 0, 61, 0
1, 119147, Note_on_c, 0, 66, 0
1, 119163, Note_on_c, 0, 47, 0
1, 119230, Note_on_c, 0, 59, 41
1, 119230, Note_on_c, 0, 62, 41
1, 119230, Note_on_c, 0, 68, 57
1, 119233, Note_on_c, 0, 47, 40
1, 119320, Note_on_c, 0, 47, 0
1, 119455, Note_on_c, 0, 49, 46
1, 119555, Note_on_c, 0, 49, 0
1, 119704, Note_on_c, 0, 37, 41
1, 119817, Note_on_c, 0, 37, 0
1, 119985, Note_on_c, 0, 59, 0
1, 119985, Note_on_c, 0, 56, 38
1, 119985, Note_on_c, 0, 59, 38
1, 119988, Note_on_c, 0, 65, 54
1, 119988, Note_on_c, 0, 42, 36
1, 120000, Note_on_c, 0, 68, 0
1, 120000, Note_on_c, 0, 62, 0
1, 120135, Note_on_c, 0, 42, 0
1, 120358, Control_c, 0, 64, 127
1, 120358, Note_on_c, 0, 73, 69
1, 121051, Note_on_c, 0, 59, 0
1, 121051, Note_on_c, 0, 56, 0
1, 121051, Note_on_c, 0, 65, 0
1, 121054, Note_on_c, 0, 73, 0
1, 121054, Note_on_c, 0, 57, 54
1, 121054, Note_on_c, 0, 66, 63
1, 121057, Note_on_c, 0, 73, 70
1, 121119, Control_c, 0, 64, 0
1, 121119, Control_c, 0, 64, 0
1, 121243, Control_c, 0, 64, 127
1, 121243, Control_c, 0, 64, 127
1, 121323, Note_on_c, 0, 59, 55
1, 121323, Note_on_c, 0, 68, 65
1, 121335, Note_on_c, 0, 66, 0
1, 121335, Note_on_c, 0, 57, 0
1, 121537, Note_on_c, 0, 61, 56
1, 121537, Note_on_c, 0, 69, 66
1, 121550, Note_on_c, 0, 59, 0
1, 121550, Note_on_c, 0, 68, 0
1, 121698, Control_c, 0, 64, 0
1, 121698, Control_c, 0, 64, 0
1, 121751, Note_on_c, 0, 69, 0
1, 121751, Note_on_c, 0, 62, 57
1, 121751, Note_on_c, 0, 66, 57
1, 121754, Note_on_c, 0, 73, 0
1, 121754, Note_on_c, 0, 69, 68
1, 121754, Note_on_c, 0, 73, 70
1, 121766, Note_on_c, 0, 61, 0
1, 121992, Control_c, 0, 64, 127
1, 121992, Control_c, 0, 64, 127
1, 122500, Note_on_c, 0, 68, 53
1, 122514, Note_on_c, 0, 69, 0
1, 122602, Control_c, 0, 64, 0
1, 122602, Control_c, 0, 64, 0
1, 122874, Note_on_c, 0, 71, 63
1, 122892, Note_on_c, 0, 73, 0
1, 123323, Note_on_c, 0, 68, 0
1, 123323, Note_on_c, 0, 66, 0
1, 123323, Note_on_c, 0, 62, 0
1, 123326, Note_on_c, 0, 61, 51
1, 123326, Note_on_c, 0, 69, 62
1, 123339, Note_on_c, 0, 71, 0
1, 123505, Control_c, 0, 64, 127
1, 123505, Control_c, 0, 64, 127
1, 124140, Note_on_c, 0, 61, 0
1, 124140, Note_on_c, 0, 74, 56
1, 124140, Note_on_c, 0, 83, 67
1, 124143, Note_on_c, 0, 61, 49
1, 124143, Note_on_c, 0, 68, 59
1, 124158, Note_on_c, 0, 69, 0
1, 124352, Control_c, 0, 64, 0
1, 124352, Control_c, 0, 64, 0
1, 124440, Note_on_c, 0, 76, 59
1, 124440, Note_on_c, 0, 85, 70
1, 124452, Note_on_c, 0, 74, 0
1, 124452, Note_on_c, 0, 83, 0
1, 124491, Control_c, 0, 64, 127
1, 124491, Control_c, 0, 64, 127
1, 124654, Note_on_c, 0, 77, 62
1, 124654, Note_on_c, 0, 86, 74
1, 124671, Note_on_c, 0, 76, 0
1, 124671, Note_on_c, 0, 85, 0
1, 124873, Control_c, 0, 64, 127
1, 124873, Control_c, 0, 64, 127
1, 124951, Note_on_c, 0, 68, 0
1, 124951, Note_on_c, 0, 61, 0
1, 124951, Note_on_c, 0, 86, 0
1, 124951, Control_c, 0, 64, 127
1, 124951, Note_on_c, 0, 78, 65
1, 124951, Note_on_c, 0, 86, 79
1, 124951, Note_on_c, 0, 66, 51
1, 124951, Note_on_c, 0, 69, 59
1, 124969, Note_on_c, 0, 77, 0
1, 125035, Control_c, 0, 64, 0
1, 125035, Control_c, 0, 64, 0
1, 125252, Control_c, 0, 64, 127
1, 125252, Control_c, 0, 64, 127
1, 125770, Note_on_c, 0, 85, 65
1, 125786, Note_on_c, 0, 86, 0
1, 126178, Note_on_c, 0, 69, 0
1, 126178, Note_on_c, 0, 66, 0
1, 126178, Note_on_c, 0, 66, 61
1, 126200, Control_c, 0, 64, 0
1, 126200, Control_c, 0, 64, 0
1, 126678, Note_on_c, 0, 78, 0
1, 126678, Note_on_c, 0, 85, 0
1, 126678, Note_on_c, 0, 73, 67
1, 126691, Note_on_c, 0, 66, 0
1, 126894, Control_c, 0, 64, 127
1, 126894, Control_c, 0, 64, 127
1, 127369, Note_on_c, 0, 73, 0
1, 127369, Note_on_c, 0, 59, 50
1, 127369, Note_on_c, 0, 68, 58
1, 127372, Note_on_c, 0, 73, 71
1, 127437, Control_c, 0, 64, 0
1, 127437, Control_c, 0, 64, 0
1, 127437, Control_c, 0, 64, 0
1, 127440, Control_c, 0, 64, 0
1, 127561, Control_c, 0, 64, 127
1, 127561, Control_c, 0, 64, 127
1, 127561, Control_c, 0, 64, 127
1, 127564, Control_c, 0, 64, 127
1, 127641, Note_on_c, 0, 61, 52
1, 127641, Note_on_c, 0, 69, 62
1, 127653, Note_on_c, 0, 68, 0
1, 127653, Note_on_c, 0, 59, 0
1, 127855, Note_on_c, 0, 62, 55
1, 127855, Note_on_c, 0, 71, 65
1, 127868, Note_on_c, 0, 61, 0
1, 127868, Note_on_c, 0, 69, 0
1, 128016, Control_c, 0, 64, 0
1, 128016, Control_c, 0, 64, 0
1, 128016, Control_c, 0, 64, 0
1, 128019, Control_c, 0, 64, 0
1, 128069, Note_on_c, 0, 62, 0
1, 128069, Note_on_c, 0, 71, 0
1, 128069, Note_on_c, 0, 62, 57
1, 128072, Note_on_c, 0, 73, 0
1, 128072, Note_on_c, 0, 66, 57
1, 128072, Note_on_c, 0, 71, 68
1, 128075, Note_on_c, 0, 73, 74
1, 128310, Control_c, 0, 64, 127
1, 128310, Control_c, 0, 64, 127
1, 128310, Control_c, 0, 64, 127
1, 128313, Control_c, 0, 64, 127
1, 128818, Note_on_c, 0, 69, 53
1, 128832, Note_on_c, 0, 71, 0
1, 128920, Control_c, 0, 64, 0
1, 128920, Control_c, 0, 64, 0
1, 128920, Control_c, 0, 64, 0
1, 128923, Control_c, 0, 64, 0
1, 129192, Note_on_c, 0, 71, 67
1, 129210, Note_on_c, 0, 73, 0
1, 129633, Control_c, 0, 64, 0
1, 129641, Note_on_c, 0, 69, 0
1, 129641, Note_on_c, 0, 62, 0
1, 129641, Note_on_c, 0, 66, 0
1, 129644, Note_on_c, 0, 64, 51
1, 129644, Note_on_c, 0, 69, 62
1, 129656, Note_on_c, 0, 71, 0
1, 130318, Control_c, 0, 64, 127
1, 130318, Control_c, 0, 64, 127
1, 130390, Note_on_c, 0, 78, 57
1, 130390, Note_on_c, 0, 83, 53
1, 130390, Note_on_c, 0, 86, 68
1, 130393, Note_on_c, 0, 64, 0
1, 130393, Note_on_c, 0, 64, 49
1, 130393, Note_on_c, 0, 68, 59
1, 130408, Note_on_c, 0, 69, 0
1, 130690, Note_on_c, 0, 76, 59
1, 130690, Note_on_c, 0, 85, 55
1, 130690, Note_on_c, 0, 88, 71
1, 130704, Note_on_c, 0, 86, 0
1, 130704, Note_on_c, 0, 83, 0
1, 130704, Note_on_c, 0, 78, 0
1, 130815, Note_on_c, 0, 74, 57
1, 130826, Note_on_c, 0, 76, 0
1, 130826, Note_on_c, 0, 88, 0
1, 130826, Note_on_c, 0, 85, 0
1, 130861, Note_on_c, 0, 86, 57
1, 130879, Control_c, 0, 64, 127
1, 130879, Control_c, 0, 64, 127
1, 130908, Note_on_c, 0, 90, 75
1, 130996, Note_on_c, 0, 74, 0
1, 131095, Note_on_c, 0, 74, 59
1, 131170, Note_on_c, 0, 86, 0
1, 131170, Note_on_c, 0, 83, 59
1, 131245, Note_on_c, 0, 90, 0
1, 131245, Note_on_c, 0, 64, 0
1, 131245, Note_on_c, 0, 90, 79
1, 131248, Note_on_c, 0, 68, 0
1, 131248, Note_on_c, 0, 57, 48
1, 131248, Note_on_c, 0, 69, 60
1, 131298, Control_c, 0, 64, 0
1, 131298, Control_c, 0, 64, 0
1, 131403, Control_c, 0, 64, 127
1, 131403, Control_c, 0, 64, 127
1, 131744, Note_on_c, 0, 83, 0
1, 131744, Note_on_c, 0, 84, 63
1, 131966, Control_c, 0, 64, 127
1, 131966, Control_c, 0, 64, 127
1, 132243, Note_on_c, 0, 73, 45
1, 132243, Note_on_c, 0, 85, 45
1, 132243, Note_on_c, 0, 88, 57
1, 132263, Note_on_c, 0, 84, 0
1, 132263, Note_on_c, 0, 90, 0
1, 132263, Note_on_c, 0, 74, 0
1, 132306, Control_c, 0, 64, 0
1, 132306, Control_c, 0, 64, 0
1, 133117, Control_c, 0, 64, 0
1, 133117, Control_c, 0, 64, 0
1, 133242, Note_on_c, 0, 73, 0
1, 133242, Note_on_c, 0, 88, 0
1, 133242, Note_on_c, 0, 85, 0
1, 133245, Note_on_c, 0, 64, 54
1, 133245, Note_on_c, 0, 67, 63
1, 133245, Note_on_c, 0, 57, 44
1, 133248, Note_on_c, 0, 57, 0
1, 133248, Note_on_c, 0, 69, 0
1, 133248, Note_on_c, 0, 73, 70
1, 133392, Control_c, 0, 64, 127
1, 133392, Control_c, 0, 64, 127
1, 133990, Note_on_c, 0, 67, 0
1, 133990, Note_on_c, 0, 57, 0
1, 133990, Note_on_c, 0, 64, 0
1, 133993, Note_on_c, 0, 57, 44
1, 133993, Note_on_c, 0, 63, 53
1, 133993, Note_on_c, 0, 66, 64
1, 133996, Note_on_c, 0, 73, 0
1, 133996, Note_on_c, 0, 72, 73
1, 134033, Control_c, 0, 64, 0
1, 134033, Control_c, 0, 64, 0
1, 134226, Control_c, 0, 64, 127
1, 134226, Control_c, 0, 64, 127
1, 134290, Note_on_c, 0, 66, 0
1, 134290, Note_on_c, 0, 63, 0
1, 134290, Note_on_c, 0, 64, 56
1, 134293, Note_on_c, 0, 67, 68
1, 134504, Note_on_c, 0, 67, 0
1, 134504, Note_on_c, 0, 64, 0
1, 134504, Note_on_c, 0, 66, 59
1, 134507, Note_on_c, 0, 69, 73
1, 134579, Note_on_c, 0, 72, 0
1, 134579, Note_on_c, 0, 73, 81
1, 134795, Control_c, 0, 64, 127
1, 134795, Control_c, 0, 64, 0
1, 134803, Note_on_c, 0, 57, 0
1, 134803, Note_on_c, 0, 66, 0
1, 134803, Control_c, 0, 64, 0
1, 134806, Note_on_c, 0, 69, 0
1, 134806, Note_on_c, 0, 57, 44
1, 134806, Note_on_c, 0, 67, 62
1, 134809, Note_on_c, 0, 73, 0
1, 134809, Note_on_c, 0, 70, 77
1, 134809, Control_c, 0, 64, 0
1, 134812, Note_on_c, 0, 76, 82
1, 135120, Control_c, 0, 64, 127
1, 135120, Control_c, 0, 64, 127
1, 135552, Note_on_c, 0, 70, 0
1, 135552, Note_on_c, 0, 67, 0
1, 135552, Note_on_c, 0, 64, 51
1, 135555, Note_on_c, 0, 67, 63
1, 135926, Note_on_c, 0, 67, 0
1, 135926, Note_on_c, 0, 64, 0
1, 135926, Note_on_c, 0, 57, 0
1, 135929, Note_on_c, 0, 73, 62
1, 135948, Note_on_c, 0, 76, 0
1, 136207, Control_c, 0, 64, 0
1, 136207, Control_c, 0, 64, 0
1, 136488, Note_on_c, 0, 73, 0
1, 136488, Note_on_c, 0, 82, 63
1, 136488, Note_on_c, 0, 91, 79
1, 136491, Note_on_c, 0, 73, 64
1, 136632, Control_c, 0, 64, 127
1, 136632, Control_c, 0, 64, 127
1, 137305, Note_on_c, 0, 91, 0
1, 137305, Note_on_c, 0, 82, 0
1, 137305, Note_on_c, 0, 91, 72
1, 137308, Note_on_c, 0, 73, 0
1, 137308, Note_on_c, 0, 82, 63
1, 137308, Note_on_c, 0, 72, 64
1, 137481, Control_c, 0, 64, 0
1, 137481, Control_c, 0, 64, 0
1, 137604, Note_on_c, 0, 91, 0
1, 137604, Note_on_c, 0, 89, 69
1, 137802, Control_c, 0, 64, 127
1, 137802, Control_c, 0, 64, 127
1, 137819, Note_on_c, 0, 89, 0
1, 137819, Note_on_c, 0, 88, 65
1, 137893, Note_on_c, 0, 72, 0
1, 137893, Note_on_c, 0, 72, 64
1, 138209, Control_c, 0, 64, 127
1, 138209, Control_c, 0, 64, 0
1, 138209, Control_c, 0, 64, 0
1, 138209, Control_c, 0, 64, 127
1, 138214, Note_on_c, 0, 88, 0
1, 138214, Note_on_c, 0, 82, 0
1, 138214, Note_on_c, 0, 82, 60
1, 138217, Note_on_c, 0, 88, 72
1, 138217, Note_on_c, 0, 79, 64
1, 139113, Note_on_c, 0, 88, 0
1, 139113, Note_on_c, 0, 82, 0
1, 140006, Control_c, 0, 64, 0
1, 140006, Control_c, 0, 64, 127
1, 140011, Note_on_c, 0, 72, 0
1, 140011, Note_on_c, 0, 58, 53
1, 140011, Note_on_c, 0, 67, 65
1, 140014, Note_on_c, 0, 79, 0
1, 140014, Note_on_c, 0, 72, 65
1, 140339, Control_c, 0, 64, 127
1, 140339, Control_c, 0, 64, 127
1, 140760, Note_on_c, 0, 67, 0
1, 140760, Note_on_c, 0, 58, 0
1, 140760, Note_on_c, 0, 58, 53
1, 140763, Note_on_c, 0, 67, 65
1, 140763, Note_on_c, 0, 71, 61
1, 140778, Note_on_c, 0, 72, 0
1, 141059, Note_on_c, 0, 57, 50
1, 141059, Note_on_c, 0, 65, 61
1, 141072, Note_on_c, 0, 58, 0
1, 141072, Note_on_c, 0, 67, 0
1, 141233, Control_c, 0, 64, 0
1, 141233, Control_c, 0, 64, 0
1, 141274, Note_on_c, 0, 55, 47
1, 141274, Note_on_c, 0, 64, 56
1, 141291, Note_on_c, 0, 65, 0
1, 141291, Note_on_c, 0, 57, 0
1, 141348, Note_on_c, 0, 72, 67
1, 141366, Note_on_c, 0, 71, 0
1, 141423, Control_c, 0, 64, 127
1, 141423, Control_c, 0, 64, 127
1, 141569, Control_c, 0, 64, 0
1, 141569, Control_c, 0, 64, 127
1, 141572, Note_on_c, 0, 55, 0
1, 141572, Note_on_c, 0, 64, 0
1, 141572, Note_on_c, 0, 72, 0
1, 141572, Control_c, 0, 64, 0
1, 141572, Note_on_c, 0, 55, 50
1, 141572, Note_on_c, 0, 64, 62
1, 141572, Note_on_c, 0, 72, 70
1, 141601, Control_c, 0, 64, 127
1, 141601, Control_c, 0, 64, 127
1, 141677, Control_c, 0, 64, 0
1, 141677, Control_c, 0, 64, 0
1, 141803, Control_c, 0, 64, 127
1, 141803, Control_c, 0, 64, 127
1, 142022, Note_on_c, 0, 64, 0
1, 142022, Note_on_c, 0, 55, 0
1, 142022, Note_on_c, 0, 61, 55
1, 142025, Note_on_c, 0, 64, 55
1, 142025, Note_on_c, 0, 70, 67
1, 142025, Note_on_c, 0, 79, 76
1, 142038, Note_on_c, 0, 72, 0
1, 142154, Control_c, 0, 64, 0
1, 142154, Control_c, 0, 64, 0
1, 142419, Control_c, 0, 64, 127
1, 142419, Control_c, 0, 64, 127
1, 142839, Note_on_c, 0, 60, 38
1, 142839, Note_on_c, 0, 65, 38
1, 142839, Note_on_c, 0, 68, 50
1, 142842, Note_on_c, 0, 77, 65
1, 142858, Note_on_c, 0, 70, 0
1, 142858, Note_on_c, 0, 61, 0
1, 142858, Note_on_c, 0, 64, 0
1, 142861, Note_on_c, 0, 79, 0
1, 142927, Control_c, 0, 64, 0
1, 142927, Control_c, 0, 64, 0
1, 143191, Control_c, 0, 64, 127
1, 143191, Control_c, 0, 64, 127
1, 143337, Control_c, 0, 64, 0
1, 143337, Note_on_c, 0, 73, 71
1, 143354, Note_on_c, 0, 60, 0
1, 143354, Note_on_c, 0, 65, 0
1, 143354, Note_on_c, 0, 68, 0
1, 143357, Note_on_c, 0, 77, 0
1, 143682, Control_c, 0, 64, 127
1, 143682, Control_c, 0, 64, 127
1, 143747, Note_on_c, 0, 59, 49
1, 143747, Note_on_c, 0, 65, 56
1, 144155, Note_on_c, 0, 65, 0
1, 144155, Note_on_c, 0, 59, 0
1, 144155, Note_on_c, 0, 71, 67
1, 144170, Note_on_c, 0, 73, 0
1, 144336, Control_c, 0, 64, 0
1, 144336, Control_c, 0, 64, 0
1, 144465, Control_c, 0, 64, 127
1, 144465, Control_c, 0, 64, 127
1, 144529, Note_on_c, 0, 56, 45
1, 144529, Note_on_c, 0, 61, 51
1, 144904, Note_on_c, 0, 61, 0
1, 144904, Note_on_c, 0, 56, 0
1, 144904, Note_on_c, 0, 68, 63
1, 144921, Note_on_c, 0, 71, 0
1, 145185, Control_c, 0, 64, 0
1, 145185, Control_c, 0, 64, 0
1, 145353, Note_on_c, 0, 53, 41
1, 145353, Note_on_c, 0, 59, 50
1, 145453, Control_c, 0, 64, 127
1, 145453, Control_c, 0, 64, 127
1, 145802, Note_on_c, 0, 59, 0
1, 145802, Note_on_c, 0, 53, 0
1, 145802, Note_on_c, 0, 67, 52
1, 145822, Note_on_c, 0, 68, 0
1, 145969, Control_c, 0, 64, 0
1, 145969, Control_c, 0, 64, 0
1, 146281, Control_c, 0, 64, 127
1, 146281, Control_c, 0, 64, 127
1, 146302, Note_on_c, 0, 52, 36
1, 146302, Note_on_c, 0, 58, 36
1, 146302, Note_on_c, 0, 60, 39
1, 146837, Control_c, 0, 64, 0
1, 146837, Control_c, 0, 64, 0
1, 147050, Note_on_c, 0, 60, 0
1, 147050, Note_on_c, 0, 58, 0
1, 147050, Note_on_c, 0, 52, 0
1, 147053, Note_on_c, 0, 60, 59
1, 147065, Note_on_c, 0, 67, 0
1, 147320, Control_c, 0, 64, 127
1, 147320, Control_c, 0, 64, 127
1, 147799, Note_on_c, 0, 60, 0
1, 147799, Note_on_c, 0, 65, 46
1, 147799, Note_on_c, 0, 68, 55
1, 147802, Note_on_c, 0, 60, 63
1, 148098, Note_on_c, 0, 67, 49
1, 148098, Note_on_c, 0, 70, 60
1, 148111, Note_on_c, 0, 68, 0
1, 148111, Note_on_c, 0, 65, 0
1, 148245, Control_c, 0, 64, 0
1, 148245, Control_c, 0, 64, 0
1, 148313, Note_on_c, 0, 68, 52
1, 148313, Note_on_c, 0, 72, 64
1, 148327, Note_on_c, 0, 67, 0
1, 148327, Note_on_c, 0, 70, 0
1, 148396, Control_c, 0, 64, 127
1, 148396, Control_c, 0, 64, 127
1, 148552, Control_c, 0, 64, 127
1, 148552, Control_c, 0, 64, 0
1, 148559, Control_c, 0, 64, 127
1, 148559, Control_c, 0, 64, 0
1, 148562, Note_on_c, 0, 68, 0
1, 148562, Note_on_c, 0, 72, 0
1, 148562, Note_on_c, 0, 65, 53
1, 148565, Note_on_c, 0, 60, 0
1, 148565, Note_on_c, 0, 68, 53
1, 148565, Note_on_c, 0, 72, 72
1, 148568, Note_on_c, 0, 60, 68
1, 148834, Control_c, 0, 64, 0
1, 148834, Control_c, 0, 64, 0
1, 149461, Note_on_c, 0, 73, 62
1, 149477, Note_on_c, 0, 72, 0
1, 149869, Control_c, 0, 64, 127
1, 149869, Control_c, 0, 64, 127
1, 149869, Note_on_c, 0, 58, 63
1, 149891, Note_on_c, 0, 60, 0
1, 150420, Control_c, 0, 64, 0
1, 150431, Note_on_c, 0, 65, 0
1, 150431, Note_on_c, 0, 68, 0
1, 150431, Note_on_c, 0, 51, 47
1, 150434, Note_on_c, 0, 56, 60
1, 150445, Note_on_c, 0, 73, 0
1, 150445, Note_on_c, 0, 58, 0
1, 151107, Control_c, 0, 64, 127
1, 151107, Control_c, 0, 64, 127
1, 151179, Note_on_c, 0, 77, 56
1, 151179, Note_on_c, 0, 82, 56
1, 151179, Note_on_c, 0, 85, 72
1, 151182, Note_on_c, 0, 51, 0
1, 151182, Note_on_c, 0, 51, 41
1, 151182, Note_on_c, 0, 55, 54
1, 151197, Note_on_c, 0, 56, 0
1, 151479, Note_on_c, 0, 75, 58
1, 151479, Note_on_c, 0, 84, 58
1, 151479, Note_on_c, 0, 87, 77
1, 151496, Note_on_c, 0, 85, 0
1, 151496, Note_on_c, 0, 82, 0
1, 151496, Note_on_c, 0, 77, 0
1, 151629, Note_on_c, 0, 73, 60
1, 151646, Note_on_c, 0, 75, 0
1, 151646, Note_on_c, 0, 87, 0
1, 151646, Note_on_c, 0, 84, 0
1, 151703, Note_on_c, 0, 85, 60
1, 151721, Control_c, 0, 64, 127
1, 151721, Control_c, 0, 64, 127
1, 151751, Note_on_c, 0, 89, 80
1, 151821, Note_on_c, 0, 73, 0
1, 151900, Note_on_c, 0, 73, 64
1, 151975, Note_on_c, 0, 85, 0
1, 151975, Note_on_c, 0, 82, 64
1, 152050, Note_on_c, 0, 89, 0
1, 152050, Note_on_c, 0, 51, 0
1, 152050, Note_on_c, 0, 89, 83
1, 152053, Note_on_c, 0, 55, 0
1, 152053, Note_on_c, 0, 44, 41
1, 152053, Note_on_c, 0, 56, 45
1, 152079, Control_c, 0, 64, 0
1, 152079, Control_c, 0, 64, 0
1, 152197, Control_c, 0, 64, 127
1, 152197, Control_c, 0, 64, 127
1, 152549, Note_on_c, 0, 83, 66
1, 152568, Note_on_c, 0, 82, 0
1, 152730, Control_c, 0, 64, 0
1, 152730, Control_c, 0, 64, 0
1, 153048, Note_on_c, 0, 72, 52
1, 153048, Note_on_c, 0, 84, 52
1, 153048, Note_on_c, 0, 87, 64
1, 153074, Note_on_c, 0, 73, 0
1, 153074, Note_on_c, 0, 89, 0
1, 153074, Note_on_c, 0, 83, 0
1, 153497, Note_on_c, 0, 44, 0
1, 153497, Note_on_c, 0, 56, 0
1, 153497, Note_on_c, 0, 54, 44
1, 153500, Note_on_c, 0, 56, 50
1, 154058, Control_c, 0, 64, 0
1, 154058, Control_c, 0, 64, 127
1, 154058, Note_on_c, 0, 53, 40
1, 154058, Note_on_c, 0, 59, 40
1, 154058, Note_on_c, 0, 61, 68
1, 154075, Note_on_c, 0, 87, 0
1, 154075, Note_on_c, 0, 72, 0
1, 154075, Note_on_c, 0, 84, 0
1, 154078, Note_on_c, 0, 54, 0
1, 154078, Note_on_c, 0, 56, 0
1, 154467, Control_c, 0, 64, 0
1, 154467, Control_c, 0, 64, 0
1, 154774, Control_c, 0, 64, 127
1, 154774, Control_c, 0, 64, 127
1, 154876, Note_on_c, 0, 53, 0
1, 154876, Note_on_c, 0, 68, 49
1, 154876, Note_on_c, 0, 71, 58
1, 154879, Note_on_c, 0, 61, 0
1, 154879, Note_on_c, 0, 59, 0
1, 154879, Note_on_c, 0, 53, 41
1, 154882, Note_on_c, 0, 59, 41
1, 154882, Note_on_c, 0, 61, 70
1, 155175, Note_on_c, 0, 69, 51
1, 155175, Note_on_c, 0, 73, 61
1, 155188, Note_on_c, 0, 68, 0
1, 155188, Note_on_c, 0, 71, 0
1, 155340, Control_c, 0, 64, 0
1, 155340, Control_c, 0, 64, 0
1, 155389, Note_on_c, 0, 71, 53
1, 155389, Note_on_c, 0, 74, 64
1, 155409, Note_on_c, 0, 69, 0
1, 155409, Note_on_c, 0, 73, 0
1, 155532, Control_c, 0, 64, 127
1, 155532, Control_c, 0, 64, 127
1, 155722, Note_on_c, 0, 71, 0
1, 155722, Note_on_c, 0, 71, 55
1, 155722, Note_on_c, 0, 79, 71
1, 155725, Note_on_c, 0, 61, 0
1, 155725, Note_on_c, 0, 53, 0
1, 155725, Note_on_c, 0, 59, 0
1, 155728, Note_on_c, 0, 52, 47
1, 155728, Note_on_c, 0, 61, 70
1, 155740, Note_on_c, 0, 74, 0
1, 155927, Control_c, 0, 64, 0
1, 155927, Control_c, 0, 64, 0
1, 156133, Control_c, 0, 64, 127
1, 156133, Control_c, 0, 64, 127
1, 156415, Control_c, 0, 64, 0
1, 156415, Control_c, 0, 64, 0
1, 156621, Note_on_c, 0, 70, 52
1, 156638, Note_on_c, 0, 71, 0
1, 156653, Control_c, 0, 64, 127
1, 156653, Control_c, 0, 64, 127
1, 157037, Control_c, 0, 64, 0
1, 157037, Control_c, 0, 64, 0
1, 157070, Note_on_c, 0, 71, 40
1, 157070, Note_on_c, 0, 78, 54
1, 157070, Note_on_c, 0, 50, 37
1, 157073, Note_on_c, 0, 59, 58
1, 157092, Note_on_c, 0, 52, 0
1, 157092, Note_on_c, 0, 70, 0
1, 157092, Note_on_c, 0, 79, 0
1, 157095, Note_on_c, 0, 61, 0
1, 157631, Note_on_c, 0, 57, 55
1, 157631, Note_on_c, 0, 49, 41
1, 157649, Note_on_c, 0, 71, 0
1, 157649, Note_on_c, 0, 78, 0
1, 157649, Note_on_c, 0, 50, 0
1, 157652, Note_on_c, 0, 59, 0
1, 158470, Control_c, 0, 64, 127
1, 158470, Control_c, 0, 64, 127
1, 158530, Note_on_c, 0, 50, 43
1, 158530, Note_on_c, 0, 59, 60
1, 158530, Note_on_c, 0, 56, 52
1, 158552, Note_on_c, 0, 57, 0
1, 158904, Note_on_c, 0, 52, 45
1, 158904, Note_on_c, 0, 61, 63
1, 158922, Note_on_c, 0, 59, 0
1, 158922, Note_on_c, 0, 50, 0
1, 159159, Control_c, 0, 64, 0
1, 159159, Control_c, 0, 64, 0
1, 159204, Note_on_c, 0, 53, 47
1, 159204, Note_on_c, 0, 62, 70
1, 159224, Note_on_c, 0, 52, 0
1, 159224, Note_on_c, 0, 61, 0
1, 159439, Control_c, 0, 64, 127
1, 159439, Control_c, 0, 64, 127
1, 159537, Note_on_c, 0, 62, 0
1, 159537, Note_on_c, 0, 57, 45
1, 159537, Note_on_c, 0, 62, 65
1, 159540, Note_on_c, 0, 49, 0
1, 159540, Note_on_c, 0, 42, 43
1, 159540, Note_on_c, 0, 54, 43
1, 159559, Note_on_c, 0, 56, 0
1, 159559, Note_on_c, 0, 53, 0
1, 159602, Control_c, 0, 64, 0
1, 159602, Control_c, 0, 64, 0
1, 159933, Control_c, 0, 64, 127
1, 159933, Control_c, 0, 64, 127
1, 160461, Control_c, 0, 64, 0
1, 160461, Control_c, 0, 64, 0
1, 160660, Note_on_c, 0, 61, 48
1, 160689, Note_on_c, 0, 62, 0
1, 161150, Control_c, 0, 64, 127
1, 161150, Control_c, 0, 64, 127
1, 161409, Note_on_c, 0, 57, 0
1, 161409, Note_on_c, 0, 61, 0
1, 161409, Note_on_c, 0, 61, 57
1, 161412, Note_on_c, 0, 54, 0
1, 161412, Note_on_c, 0, 42, 0
1, 161817, Note_on_c, 0, 73, 69
1, 161817, Note_on_c, 0, 42, 42
1, 161817, Note_on_c, 0, 57, 46
1, 161832, Note_on_c, 0, 61, 0
1, 161987, Control_c, 0, 64, 127
1, 161987, Control_c, 0, 64, 127
1, 162004, Note_on_c, 0, 57, 0
1, 162004, Note_on_c, 0, 42, 0
1, 162004, Note_on_c, 0, 42, 42
1, 162007, Note_on_c, 0, 57, 46
1, 162161, Control_c, 0, 64, 127
1, 162161, Control_c, 0, 64, 127
1, 162177, Note_on_c, 0, 42, 0
1, 162177, Note_on_c, 0, 61, 37
1, 162177, Note_on_c, 0, 66, 50
1, 162180, Note_on_c, 0, 57, 0
1, 162337, Note_on_c, 0, 66, 0
1, 162337, Note_on_c, 0, 61, 0
1, 162337, Note_on_c, 0, 61, 37
1, 162340, Note_on_c, 0, 66, 46
1, 162487, Note_on_c, 0, 66, 0
1, 162487, Note_on_c, 0, 61, 0
1, 162487, Note_on_c, 0, 71, 66
1, 162490, Note_on_c, 0, 42, 42
1, 162490, Note_on_c, 0, 56, 46
1, 162499, Note_on_c, 0, 73, 0
1, 162499, Control_c, 0, 64, 0
1, 162499, Control_c, 0, 64, 0
1, 162637, Note_on_c, 0, 56, 0
1, 162637, Note_on_c, 0, 42, 0
1, 162637, Note_on_c, 0, 42, 42
1, 162640, Note_on_c, 0, 56, 46
1, 162774, Control_c, 0, 64, 127
1, 162774, Control_c, 0, 64, 127
1, 162787, Note_on_c, 0, 62, 37
1, 162787, Note_on_c, 0, 65, 50
1, 162787, Note_on_c, 0, 74, 69
1, 162790, Note_on_c, 0, 56, 0
1, 162790, Note_on_c, 0, 42, 0
1, 162798, Note_on_c, 0, 71, 0
1, 162927, Note_on_c, 0, 62, 0
1, 162927, Note_on_c, 0, 65, 0
1, 162927, Note_on_c, 0, 62, 37
1, 162930, Note_on_c, 0, 65, 46
1, 163004, Control_c, 0, 64, 0
1, 163004, Control_c, 0, 64, 0
1, 163068, Note_on_c, 0, 65, 0
1, 163068, Note_on_c, 0, 62, 0
1, 163068, Note_on_c, 0, 73, 69
1, 163071, Note_on_c, 0, 42, 42
1, 163071, Note_on_c, 0, 54, 46
1, 163081, Note_on_c, 0, 74, 0
1, 163225, Control_c, 0, 64, 127
1, 163225, Control_c, 0, 64, 127
1, 163240, Note_on_c, 0, 54, 0
1, 163240, Note_on_c, 0, 42, 0
1, 163240, Note_on_c, 0, 42, 42
1, 163243, Note_on_c, 0, 54, 46
1, 163381, Note_on_c, 0, 42, 0
1, 163381, Note_on_c, 0, 61, 37
1, 163381, Note_on_c, 0, 69, 50
1, 163384, Note_on_c, 0, 54, 0
1, 163521, Note_on_c, 0, 69, 0
1, 163521, Note_on_c, 0, 61, 0
1, 163521, Note_on_c, 0, 61, 37
1, 163524, Note_on_c, 0, 69, 46
1, 163662, Note_on_c, 0, 69, 0
1, 163662, Note_on_c, 0, 61, 0
1, 163662, Note_on_c, 0, 68, 66
1, 163665, Note_on_c, 0, 42, 42
1, 163665, Note_on_c, 0, 53, 46
1, 163673, Note_on_c, 0, 73, 0
1, 163673, Control_c, 0, 64, 0
1, 163673, Control_c, 0, 64, 0
1, 163802, Note_on_c, 0, 53, 0
1, 163802, Note_on_c, 0, 42, 0
1, 163802, Note_on_c, 0, 42, 42
1, 163805, Note_on_c, 0, 53, 46
1, 163931, Control_c, 0, 64, 127
1, 163931, Control_c, 0, 64, 127
1, 163942, Note_on_c, 0, 42, 0
1, 163942, Note_on_c, 0, 62, 45
1, 163942, Note_on_c, 0, 71, 69
1, 163945, Note_on_c, 0, 53, 0
1, 163953, Note_on_c, 0, 68, 0
1, 164083, Note_on_c, 0, 62, 0
1, 164083, Note_on_c, 0, 62, 45
1, 164160, Control_c, 0, 64, 0
1, 164160, Control_c, 0, 64, 0
1, 164223, Note_on_c, 0, 62, 0
1, 164223, Note_on_c, 0, 69, 65
1, 164223, Note_on_c, 0, 42, 42
1, 164226, Note_on_c, 0, 51, 46
1, 164234, Note_on_c, 0, 71, 0
1, 164351, Control_c, 0, 64, 127
1, 164351, Control_c, 0, 64, 127
1, 164364, Note_on_c, 0, 51, 0
1, 164364, Note_on_c, 0, 42, 0
1, 164364, Note_on_c, 0, 42, 42
1, 164367, Note_on_c, 0, 51, 46
1, 164504, Control_c, 0, 64, 0
1, 164504, Note_on_c, 0, 60, 37
1, 164504, Note_on_c, 0, 66, 50
1, 164507, Note_on_c, 0, 51, 0
1, 164507, Note_on_c, 0, 42, 0
1, 164507, Control_c, 0, 64, 0
1, 164644, Note_on_c, 0, 66, 0
1, 164644, Note_on_c, 0, 60, 0
1, 164644, Note_on_c, 0, 60, 37
1, 164647, Note_on_c, 0, 66, 46
1, 164785, Note_on_c, 0, 66, 0
1, 164785, Note_on_c, 0, 60, 0
1, 164785, Note_on_c, 0, 65, 59
1, 164788, Note_on_c, 0, 42, 42
1, 164788, Note_on_c, 0, 50, 46
1, 164796, Note_on_c, 0, 69, 0
1, 164796, Control_c, 0, 64, 0
1, 164796, Control_c, 0, 64, 0
1, 164925, Note_on_c, 0, 50, 0
1, 164925, Note_on_c, 0, 42, 0
1, 164925, Note_on_c, 0, 42, 42
1, 164928, Note_on_c, 0, 50, 46
1, 165054, Control_c, 0, 64, 127
1, 165054, Control_c, 0, 64, 127
1, 165066, Note_on_c, 0, 50, 0
1, 165066, Note_on_c, 0, 42, 0
1, 165066, Note_on_c, 0, 59, 45
1, 165206, Note_on_c, 0, 59, 0
1, 165206, Note_on_c, 0, 59, 45
1, 165283, Control_c, 0, 64, 0
1, 165283, Control_c, 0, 64, 0
1, 165346, Note_on_c, 0, 59, 0
1, 165346, Control_c, 0, 64, 0
1, 165346, Note_on_c, 0, 68, 61
1, 165349, Control_c, 0, 64, 0
1, 165349, Note_on_c, 0, 42, 35
1, 165349, Note_on_c, 0, 49, 46
1, 165366, Note_on_c, 0, 65, 0
1, 165422, Control_c, 0, 64, 0
1, 165422, Control_c, 0, 64, 0
1, 165513, Note_on_c, 0, 65, 60
1, 165528, Note_on_c, 0, 68, 0
1, 165575, Note_on_c, 0, 49, 0
1, 165575, Note_on_c, 0, 42, 0
1, 165575, Note_on_c, 0, 42, 35
1, 165578, Note_on_c, 0, 49, 46
1, 165637, Note_on_c, 0, 68, 59
1, 165652, Note_on_c, 0, 65, 0
1, 165705, Control_c, 0, 64, 0
1, 165705, Control_c, 0, 64, 0
1, 165762, Note_on_c, 0, 66, 58
1, 165762, Note_on_c, 0, 57, 34
1, 165762, Note_on_c, 0, 61, 47
1, 165765, Note_on_c, 0, 42, 0
1, 165765, Note_on_c, 0, 49, 0
1, 165777, Note_on_c, 0, 68, 0
1, 165791, Control_c, 0, 64, 0
1, 165791, Control_c, 0, 64, 0
1, 165892, Control_c, 0, 64, 127
1, 165892, Control_c, 0, 64, 127
1, 165950, Note_on_c, 0, 57, 0
1, 165950, Note_on_c, 0, 61, 0
1, 165950, Note_on_c, 0, 57, 37
1, 165953, Note_on_c, 0, 61, 46
1, 166099, Note_on_c, 0, 61, 0
1, 166099, Note_on_c, 0, 57, 0
1, 166099, Note_on_c, 0, 42, 35
1, 166102, Note_on_c, 0, 49, 46
1, 166111, Control_c, 0, 64, 0
1, 166111, Control_c, 0, 64, 0
1, 166240, Note_on_c, 0, 49, 0
1, 166240, Note_on_c, 0, 42, 0
1, 166240, Note_on_c, 0, 42, 35
1, 166243, Note_on_c, 0, 49, 46
1, 166369, Control_c, 0, 64, 127
1, 166369, Control_c, 0, 64, 127
1, 166380, Note_on_c, 0, 42, 0
1, 166380, Note_on_c, 0, 57, 45
1, 166380, Note_on_c, 0, 61, 68
1, 166383, Note_on_c, 0, 49, 0
1, 166393, Note_on_c, 0, 66, 0
1, 166541, Note_on_c, 0, 57, 0
1, 166541, Note_on_c, 0, 57, 45
1, 166628, Control_c, 0, 64, 0
1, 166628, Control_c, 0, 64, 0
1, 166701, Note_on_c, 0, 57, 0
1, 166701, Note_on_c, 0, 73, 67
1, 166701, Note_on_c, 0, 42, 37
1, 166704, Note_on_c, 0, 57, 48
1, 166716, Note_on_c, 0, 61, 0
1, 166871, Control_c, 0, 64, 127
1, 166871, Control_c, 0, 64, 127
1, 166888, Note_on_c, 0, 57, 0
1, 166888, Note_on_c, 0, 42, 0
1, 166888, Note_on_c, 0, 42, 38
1, 166891, Note_on_c, 0, 57, 48
1, 167061, Control_c, 0, 64, 0
1, 167061, Note_on_c, 0, 61, 38
1, 167061, Note_on_c, 0, 66, 51
1, 167064, Note_on_c, 0, 57, 0
1, 167064, Note_on_c, 0, 42, 0
1, 167064, Control_c, 0, 64, 0
1, 167160, Control_c, 0, 64, 127
1, 167160, Control_c, 0, 64, 127
1, 167222, Note_on_c, 0, 66, 0
1, 167222, Note_on_c, 0, 61, 0
1, 167222, Note_on_c, 0, 61, 38
1, 167225, Note_on_c, 0, 66, 48
1, 167371, Note_on_c, 0, 66, 0
1, 167371, Note_on_c, 0, 61, 0
1, 167371, Note_on_c, 0, 71, 66
1, 167374, Note_on_c, 0, 42, 39
1, 167374, Note_on_c, 0, 56, 49
1, 167383, Note_on_c, 0, 73, 0
1, 167383, Control_c, 0, 64, 0
1, 167383, Control_c, 0, 64, 0
1, 167521, Note_on_c, 0, 56, 0
1, 167521, Note_on_c, 0, 42, 0
1, 167521, Note_on_c, 0, 42, 40
1, 167524, Note_on_c, 0, 56, 51
1, 167659, Control_c, 0, 64, 127
1, 167659, Control_c, 0, 64, 127
1, 167671, Note_on_c, 0, 62, 40
1, 167671, Note_on_c, 0, 65, 55
1, 167671, Note_on_c, 0, 74, 70
1, 167674, Note_on_c, 0, 56, 0
1, 167674, Note_on_c, 0, 42, 0
1, 167682, Note_on_c, 0, 71, 0
1, 167811, Note_on_c, 0, 62, 0
1, 167811, Note_on_c, 0, 65, 0
1, 167811, Note_on_c, 0, 62, 41
1, 167814, Note_on_c, 0, 65, 51
1, 167888, Control_c, 0, 64, 0
1, 167888, Control_c, 0, 64, 0
1, 167952, Note_on_c, 0, 65, 0
1, 167952, Note_on_c, 0, 62, 0
1, 167952, Note_on_c, 0, 73, 71
1, 167955, Note_on_c, 0, 42, 42
1, 167955, Note_on_c, 0, 57, 51
1, 167963, Note_on_c, 0, 74, 0
1, 168079, Control_c, 0, 64, 127
1, 168079, Control_c, 0, 64, 127
1, 168092, Note_on_c, 0, 57, 0
1, 168092, Note_on_c, 0, 42, 0
1, 168092, Note_on_c, 0, 42, 42
1, 168095, Note_on_c, 0, 57, 52
1, 168232, Note_on_c, 0, 42, 0
1, 168232, Note_on_c, 0, 61, 43
1, 168232, Note_on_c, 0, 66, 56
1, 168235, Note_on_c, 0, 57, 0
1, 168373, Note_on_c, 0, 66, 0
1, 168373, Note_on_c, 0, 61, 0
1, 168373, Note_on_c, 0, 61, 43
1, 168376, Note_on_c, 0, 66, 53
1, 168513, Note_on_c, 0, 66, 0
1, 168513, Note_on_c, 0, 61, 0
1, 168513, Note_on_c, 0, 74, 73
1, 168516, Note_on_c, 0, 44, 44
1, 168516, Note_on_c, 0, 59, 54
1, 168526, Note_on_c, 0, 73, 0
1, 168526, Control_c, 0, 64, 0
1, 168526, Control_c, 0, 64, 0
1, 168674, Note_on_c, 0, 59, 0
1, 168674, Note_on_c, 0, 44, 0
1, 168674, Note_on_c, 0, 44, 45
1, 168677, Note_on_c, 0, 59, 54
1, 168821, Control_c, 0, 64, 127
1, 168821, Control_c, 0, 64, 127
1, 168834, Note_on_c, 0, 66, 41
1, 168834, Note_on_c, 0, 71, 50
1, 168834, Note_on_c, 0, 78, 80
1, 168837, Note_on_c, 0, 59, 0
1, 168837, Note_on_c, 0, 44, 0
1, 168848, Note_on_c, 0, 74, 0
1, 169007, Note_on_c, 0, 66, 0
1, 169007, Note_on_c, 0, 71, 0
1, 169007, Note_on_c, 0, 66, 41
1, 169010, Note_on_c, 0, 71, 50
1, 169101, Control_c, 0, 64, 0
1, 169101, Control_c, 0, 64, 0
1, 169180, Note_on_c, 0, 71, 0
1, 169180, Note_on_c, 0, 66, 0
1, 169180, Note_on_c, 0, 76, 76
1, 169183, Note_on_c, 0, 45, 46
1, 169183, Note_on_c, 0, 61, 56
1, 169203, Note_on_c, 0, 78, 0
1, 169316, Control_c, 0, 64, 127
1, 169316, Control_c, 0, 64, 127
1, 169330, Note_on_c, 0, 61, 0
1, 169330, Note_on_c, 0, 45, 0
1, 169330, Note_on_c, 0, 45, 47
1, 169333, Note_on_c, 0, 61, 57
1, 169479, Control_c, 0, 64, 0
1, 169479, Note_on_c, 0, 64, 36
1, 169479, Note_on_c, 0, 73, 50
1, 169482, Note_on_c, 0, 61, 0
1, 169482, Note_on_c, 0, 45, 0
1, 169482, Control_c, 0, 64, 0
1, 169620, Note_on_c, 0, 73, 0
1, 169620, Note_on_c, 0, 64, 0
1, 169620, Note_on_c, 0, 64, 36
1, 169623, Note_on_c, 0, 73, 46
1, 169760, Note_on_c, 0, 73, 0
1, 169760, Note_on_c, 0, 64, 0
1, 169760, Note_on_c, 0, 71, 68
1, 169763, Note_on_c, 0, 40, 37
1, 169763, Note_on_c, 0, 52, 51
1, 169774, Note_on_c, 0, 76, 0
1, 169774, Control_c, 0, 64, 0
1, 169774, Control_c, 0, 64, 0
1, 169933, Note_on_c, 0, 52, 0
1, 169933, Note_on_c, 0, 40, 0
1, 169933, Note_on_c, 0, 40, 37
1, 169936, Note_on_c, 0, 52, 51
1, 170062, Control_c, 0, 64, 127
1, 170062, Control_c, 0, 64, 127
1, 170073, Note_on_c, 0, 40, 0
1, 170073, Note_on_c, 0, 62, 41
1, 170073, Note_on_c, 0, 68, 50
1, 170076, Note_on_c, 0, 52, 0
1, 170214, Note_on_c, 0, 68, 0
1, 170214, Note_on_c, 0, 62, 0
1, 170214, Note_on_c, 0, 62, 41
1, 170217, Note_on_c, 0, 68, 50
1, 170290, Control_c, 0, 64, 0
1, 170290, Control_c, 0, 64, 0
1, 170354, Note_on_c, 0, 68, 0
1, 170354, Note_on_c, 0, 62, 0
1, 170354, Note_on_c, 0, 74, 69
1, 170357, Note_on_c, 0, 45, 44
1, 170357, Note_on_c, 0, 52, 51
1, 170372, Note_on_c, 0, 71, 0
1, 170423, Control_c, 0, 64, 0
1, 170423, Control_c, 0, 64, 0
1, 170504, Note_on_c, 0, 71, 64
1, 170519, Note_on_c, 0, 74, 0
1, 170566, Note_on_c, 0, 52, 0
1, 170566, Note_on_c, 0, 45, 0
1, 170566, Note_on_c, 0, 45, 44
1, 170569, Note_on_c, 0, 52, 51
1, 170628, Note_on_c, 0, 74, 62
1, 170643, Note_on_c, 0, 71, 0
1, 170696, Control_c, 0, 64, 0
1, 170696, Control_c, 0, 64, 0
1, 170753, Note_on_c, 0, 73, 59
1, 170753, Note_on_c, 0, 61, 34
1, 170753, Note_on_c, 0, 69, 46
1, 170756, Note_on_c, 0, 45, 0
1, 170756, Note_on_c, 0, 52, 0
1, 170768, Note_on_c, 0, 74, 0
1, 170782, Control_c, 0, 64, 0
1, 170782, Control_c, 0, 64, 0
1, 170883, Control_c, 0, 64, 127
1, 170883, Control_c, 0, 64, 127
1, 170941, Note_on_c, 0, 61, 0
1, 170941, Note_on_c, 0, 69, 0
1, 170941, Note_on_c, 0, 61, 34
1, 170944, Note_on_c, 0, 69, 42
1, 171128, Note_on_c, 0, 69, 0
1, 171128, Note_on_c, 0, 61, 0
1, 171128, Note_on_c, 0, 45, 44
1, 171131, Note_on_c, 0, 52, 51
1, 171140, Control_c, 0, 64, 0
1, 171140, Control_c, 0, 64, 0
1, 171278, Note_on_c, 0, 52, 0
1, 171278, Note_on_c, 0, 45, 0
1, 171278, Note_on_c, 0, 45, 44
1, 171281, Note_on_c, 0, 52, 51
1, 171415, Control_c, 0, 64, 127
1, 171415, Control_c, 0, 64, 127
1, 171427, Note_on_c, 0, 73, 0
1, 171427, Note_on_c, 0, 61, 43
1, 171427, Note_on_c, 0, 69, 50
1, 171430, Note_on_c, 0, 52, 0
1, 171430, Note_on_c, 0, 45, 0
1, 171430, Note_on_c, 0, 73, 71
1, 171588, Note_on_c, 0, 61, 0
1, 171588, Note_on_c, 0, 69, 0
1, 171588, Note_on_c, 0, 61, 43
1, 171591, Note_on_c, 0, 69, 50
1, 171676, Control_c, 0, 64, 0
1, 171676, Control_c, 0, 64, 0
1, 171748, Note_on_c, 0, 69, 0
1, 171748, Note_on_c, 0, 61, 0
1, 171748, Note_on_c, 0, 76, 78
1, 171751, Note_on_c, 0, 45, 39
1, 171751, Note_on_c, 0, 52, 51
1, 171759, Note_on_c, 0, 73, 0
1, 171876, Control_c, 0, 64, 127
1, 171876, Control_c, 0, 64, 127
1, 171889, Note_on_c, 0, 52, 0
1, 171889, Note_on_c, 0, 45, 0
1, 171889, Note_on_c, 0, 45, 39
1, 171892, Note_on_c, 0, 52, 51
1, 172001, Control_c, 0, 64, 127
1, 172001, Control_c, 0, 64, 127
1, 172029, Note_on_c, 0, 45, 0
1, 172029, Note_on_c, 0, 67, 36
1, 172029, Note_on_c, 0, 73, 48
1, 172032, Note_on_c, 0, 52, 0
1, 172170, Note_on_c, 0, 73, 0
1, 172170, Note_on_c, 0, 67, 0
1, 172170, Note_on_c, 0, 67, 36
1, 172173, Note_on_c, 0, 73, 44
1, 172310, Note_on_c, 0, 73, 0
1, 172310, Note_on_c, 0, 67, 0
1, 172310, Note_on_c, 0, 72, 71
1, 172313, Note_on_c, 0, 57, 39
1, 172313, Note_on_c, 0, 64, 51
1, 172321, Note_on_c, 0, 76, 0
1, 172321, Control_c, 0, 64, 0
1, 172321, Control_c, 0, 64, 0
1, 172450, Note_on_c, 0, 64, 0
1, 172450, Note_on_c, 0, 57, 0
1, 172450, Note_on_c, 0, 57, 39
1, 172453, Note_on_c, 0, 64, 51
1, 172579, Control_c, 0, 64, 127
1, 172579, Control_c, 0, 64, 127
1, 172591, Note_on_c, 0, 61, 36
1, 172591, Note_on_c, 0, 67, 48
1, 172591, Note_on_c, 0, 73, 72
1, 172594, Note_on_c, 0, 64, 0
1, 172594, Note_on_c, 0, 57, 0
1, 172602, Note_on_c, 0, 72, 0
1, 172731, Note_on_c, 0, 61, 0
1, 172731, Note_on_c, 0, 67, 0
1, 172731, Note_on_c, 0, 61, 36
1, 172734, Note_on_c, 0, 67, 44
1, 172808, Control_c, 0, 64, 0
1, 172808, Control_c, 0, 64, 0
1, 172872, Note_on_c, 0, 67, 0
1, 172872, Note_on_c, 0, 61, 0
1, 172872, Note_on_c, 0, 69, 71
1, 172875, Note_on_c, 0, 45, 39
1, 172875, Note_on_c, 0, 52, 51
1, 172884, Note_on_c, 0, 73, 0
1, 173018, Control_c, 0, 64, 127
1, 173018, Control_c, 0, 64, 127
1, 173032, Note_on_c, 0, 52, 0
1, 173032, Note_on_c, 0, 45, 0
1, 173032, Note_on_c, 0, 45, 39
1, 173035, Note_on_c, 0, 52, 51
1, 173192, Note_on_c, 0, 45, 0
1, 173192, Note_on_c, 0, 61, 43
1, 173192, Note_on_c, 0, 67, 65
1, 173195, Note_on_c, 0, 52, 0
1, 173203, Note_on_c, 0, 69, 0
1, 173279, Control_c, 0, 64, 0
1, 173279, Control_c, 0, 64, 0
1, 173333, Note_on_c, 0, 61, 0
1, 173333, Note_on_c, 0, 61, 43
1, 173447, Control_c, 0, 64, 127
1, 173447, Control_c, 0, 64, 127
1, 173473, Note_on_c, 0, 61, 0
1, 173473, Note_on_c, 0, 57, 39
1, 173473, Note_on_c, 0, 64, 51
1, 173614, Note_on_c, 0, 64, 0
1, 173614, Note_on_c, 0, 57, 0
1, 173614, Note_on_c, 0, 57, 39
1, 173617, Note_on_c, 0, 64, 51
1, 173743, Control_c, 0, 64, 127
1, 173743, Control_c, 0, 64, 127
1, 173754, Note_on_c, 0, 67, 0
1, 173754, Note_on_c, 0, 61, 43
1, 173754, Note_on_c, 0, 67, 71
1, 173757, Note_on_c, 0, 64, 0
1, 173757, Note_on_c, 0, 57, 0
1, 173890, Control_c, 0, 64, 127
1, 173890, Control_c, 0, 64, 127
1, 173914, Note_on_c, 0, 61, 0
1, 173914, Note_on_c, 0, 61, 43
1, 174114, Control_c, 0, 64, 127
1, 174119, Note_on_c, 0, 61, 0
1, 174119, Note_on_c, 0, 79, 75
1, 174119, Note_on_c, 0, 45, 39
1, 174122, Note_on_c, 0, 52, 51
1, 174132, Note_on_c, 0, 67, 0
1, 174276, Control_c, 0, 64, 127
1, 174276, Control_c, 0, 64, 127
1, 174292, Note_on_c, 0, 52, 0
1, 174292, Note_on_c, 0, 45, 0
1, 174292, Note_on_c, 0, 45, 39
1, 174295, Note_on_c, 0, 52, 51
1, 174317, Control_c, 0, 64, 127
1, 174317, Control_c, 0, 64, 127
1, 174432, Note_on_c, 0, 45, 0
1, 174432, Note_on_c, 0, 67, 43
1, 174432, Note_on_c, 0, 73, 55
1, 174435, Note_on_c, 0, 52, 0
1, 174572, Note_on_c, 0, 73, 0
1, 174572, Note_on_c, 0, 67, 0
1, 174572, Note_on_c, 0, 67, 43
1, 174575, Note_on_c, 0, 73, 51
1, 174713, Note_on_c, 0, 73, 0
1, 174713, Note_on_c, 0, 67, 0
1, 174713, Note_on_c, 0, 75, 76
1, 174716, Note_on_c, 0, 57, 39
1, 174716, Note_on_c, 0, 64, 51
1, 174724, Note_on_c, 0, 79, 0
1, 174724, Control_c, 0, 64, 0
1, 174724, Control_c, 0, 64, 0
1, 174853, Note_on_c, 0, 64, 0
1, 174853, Note_on_c, 0, 57, 0
1, 174853, Note_on_c, 0, 57, 39
1, 174856, Note_on_c, 0, 64, 51
1, 174982, Control_c, 0, 64, 127
1, 174982, Control_c, 0, 64, 127
1, 174994, Note_on_c, 0, 67, 43
1, 174994, Note_on_c, 0, 73, 50
1, 174994, Note_on_c, 0, 76, 73
1, 174997, Note_on_c, 0, 64, 0
1, 174997, Note_on_c, 0, 57, 0
1, 175004, Note_on_c, 0, 75, 0
1, 175134, Note_on_c, 0, 67, 0
1, 175134, Note_on_c, 0, 73, 0
1, 175134, Note_on_c, 0, 67, 43
1, 175137, Note_on_c, 0, 73, 50
1, 175211, Control_c, 0, 64, 0
1, 175211, Control_c, 0, 64, 0
1, 175274, Note_on_c, 0, 73, 0
1, 175274, Note_on_c, 0, 67, 0
1, 175274, Note_on_c, 0, 71, 72
1, 175277, Note_on_c, 0, 45, 39
1, 175277, Note_on_c, 0, 52, 51
1, 175287, Note_on_c, 0, 76, 0
1, 175323, Control_c, 0, 64, 0
1, 175323, Control_c, 0, 64, 0
1, 175435, Note_on_c, 0, 52, 0
1, 175435, Note_on_c, 0, 45, 0
1, 175435, Note_on_c, 0, 45, 39
1, 175438, Note_on_c, 0, 52, 51
1, 175546, Control_c, 0, 64, 0
1, 175546, Control_c, 0, 64, 0
1, 175595, Note_on_c, 0, 61, 36
1, 175595, Note_on_c, 0, 67, 53
1, 175595, Note_on_c, 0, 69, 62
1, 175598, Note_on_c, 0, 52, 0
1, 175598, Note_on_c, 0, 45, 0
1, 175606, Note_on_c, 0, 71, 0
1, 175617, Control_c, 0, 64, 0
1, 175617, Control_c, 0, 64, 0
1, 175692, Control_c, 0, 64, 127
1, 175692, Control_c, 0, 64, 127
1, 175736, Note_on_c, 0, 61, 0
1, 175736, Note_on_c, 0, 67, 0
1, 175736, Note_on_c, 0, 61, 36
1, 175739, Note_on_c, 0, 67, 44
1, 175812, Control_c, 0, 64, 127
1, 175812, Control_c, 0, 64, 127
1, 175876, Note_on_c, 0, 67, 0
1, 175876, Note_on_c, 0, 61, 0
1, 175876, Note_on_c, 0, 57, 39
1, 175879, Note_on_c, 0, 64, 51
1, 176016, Note_on_c, 0, 64, 0
1, 176016, Note_on_c, 0, 57, 0
1, 176016, Note_on_c, 0, 57, 39
1, 176019, Note_on_c, 0, 64, 51
1, 176145, Control_c, 0, 64, 127
1, 176145, Control_c, 0, 64, 127
1, 176157, Note_on_c, 0, 69, 0
1, 176157, Note_on_c, 0, 61, 38
1, 176157, Note_on_c, 0, 67, 45
1, 176160, Note_on_c, 0, 64, 0
1, 176160, Note_on_c, 0, 57, 0
1, 176160, Note_on_c, 0, 69, 69
1, 176330, Note_on_c, 0, 61, 0
1, 176330, Note_on_c, 0, 67, 0
1, 176330, Note_on_c, 0, 61, 38
1, 176333, Note_on_c, 0, 67, 45
1, 176424, Control_c, 0, 64, 127
1, 176424, Control_c, 0, 64, 127
1, 176553, Note_on_c, 0, 67, 0
1, 176553, Note_on_c, 0, 61, 0
1, 176553, Control_c, 0, 64, 127
1, 176553, Note_on_c, 0, 83, 70
1, 176553, Note_on_c, 0, 45, 30
1, 176553, Note_on_c, 0, 52, 42
1, 176572, Note_on_c, 0, 69, 0
1, 176759, Control_c, 0, 64, 127
1, 176759, Control_c, 0, 64, 127
1, 176779, Note_on_c, 0, 52, 0
1, 176779, Note_on_c, 0, 45, 0
1, 176779, Note_on_c, 0, 45, 30
1, 176782, Note_on_c, 0, 52, 42
1, 176939, Note_on_c, 0, 45, 0
1, 176939, Note_on_c, 0, 69, 41
1, 176939, Note_on_c, 0, 73, 55
1, 176942, Note_on_c, 0, 52, 0
1, 177089, Note_on_c, 0, 73, 0
1, 177089, Note_on_c, 0, 69, 0
1, 177089, Note_on_c, 0, 69, 41
1, 177092, Note_on_c, 0, 73, 51
1, 177239, Note_on_c, 0, 73, 0
1, 177239, Note_on_c, 0, 69, 0
1, 177239, Note_on_c, 0, 78, 71
1, 177242, Note_on_c, 0, 57, 37
1, 177242, Note_on_c, 0, 64, 49
1, 177251, Note_on_c, 0, 83, 0
1, 177251, Control_c, 0, 64, 0
1, 177251, Control_c, 0, 64, 0
1, 177389, Note_on_c, 0, 64, 0
1, 177389, Note_on_c, 0, 57, 0
1, 177389, Note_on_c, 0, 57, 37
1, 177392, Note_on_c, 0, 64, 49
1, 177526, Control_c, 0, 64, 127
1, 177526, Control_c, 0, 64, 127
1, 177538, Note_on_c, 0, 69, 35
1, 177538, Note_on_c, 0, 73, 49
1, 177538, Note_on_c, 0, 79, 72
1, 177541, Note_on_c, 0, 64, 0
1, 177541, Note_on_c, 0, 57, 0
1, 177549, Note_on_c, 0, 78, 0
1, 177679, Note_on_c, 0, 69, 0
1, 177679, Note_on_c, 0, 73, 0
1, 177679, Note_on_c, 0, 69, 35
1, 177682, Note_on_c, 0, 73, 45
1, 177756, Control_c, 0, 64, 0
1, 177756, Control_c, 0, 64, 0
1, 177819, Note_on_c, 0, 73, 0
1, 177819, Note_on_c, 0, 69, 0
1, 177819, Note_on_c, 0, 75, 77
1, 177822, Note_on_c, 0, 45, 34
1, 177822, Note_on_c, 0, 52, 46
1, 177833, Note_on_c, 0, 79, 0
1, 177976, Control_c, 0, 64, 127
1, 177976, Control_c, 0, 64, 127
1, 177992, Note_on_c, 0, 52, 0
1, 177992, Note_on_c, 0, 45, 0
1, 177992, Note_on_c, 0, 45, 33
1, 177995, Note_on_c, 0, 52, 46
1, 178165, Note_on_c, 0, 67, 39
1, 178165, Note_on_c, 0, 73, 53
1, 178165, Note_on_c, 0, 78, 76
1, 178168, Note_on_c, 0, 52, 0
1, 178168, Note_on_c, 0, 45, 0
1, 178176, Note_on_c, 0, 75, 0
1, 178305, Note_on_c, 0, 67, 0
1, 178305, Note_on_c, 0, 73, 0
1, 178305, Note_on_c, 0, 67, 39
1, 178308, Note_on_c, 0, 73, 49
1, 178446, Note_on_c, 0, 73, 0
1, 178446, Note_on_c, 0, 67, 0
1, 178446, Note_on_c, 0, 57, 36
1, 178449, Note_on_c, 0, 64, 49
1, 178457, Control_c, 0, 64, 0
1, 178457, Control_c, 0, 64, 0
1, 178586, Note_on_c, 0, 64, 0
1, 178586, Note_on_c, 0, 57, 0
1, 178586, Note_on_c, 0, 57, 36
1, 178589, Note_on_c, 0, 64, 48
1, 178715, Control_c, 0, 64, 127
1, 178715, Control_c, 0, 64, 127
1, 178726, Note_on_c, 0, 67, 38
1, 178726, Note_on_c, 0, 73, 47
1, 178726, Note_on_c, 0, 76, 72
1, 178729, Note_on_c, 0, 64, 0
1, 178729, Note_on_c, 0, 57, 0
1, 178737, Note_on_c, 0, 78, 0
1, 178867, Note_on_c, 0, 67, 0
1, 178867, Note_on_c, 0, 73, 0
1, 178867, Note_on_c, 0, 67, 38
1, 178870, Note_on_c, 0, 73, 47
1, 178944, Control_c, 0, 64, 0
1, 178944, Control_c, 0, 64, 0
1, 179007, Note_on_c, 0, 73, 0
1, 179007, Note_on_c, 0, 67, 0
1, 179007, Note_on_c, 0, 75, 76
1, 179010, Note_on_c, 0, 46, 39
1, 179010, Note_on_c, 0, 52, 52
1, 179020, Note_on_c, 0, 76, 0
1, 179153, Control_c, 0, 64, 127
1, 179153, Control_c, 0, 64, 127
1, 179168, Note_on_c, 0, 52, 0
1, 179168, Note_on_c, 0, 46, 0
1, 179168, Note_on_c, 0, 46, 39
1, 179171, Note_on_c, 0, 52, 51
1, 179328, Control_c, 0, 64, 0
1, 179328, Note_on_c, 0, 67, 41
1, 179328, Note_on_c, 0, 73, 56
1, 179331, Note_on_c, 0, 46, 0
1, 179331, Note_on_c, 0, 78, 75
1, 179331, Control_c, 0, 64, 0
1, 179334, Note_on_c, 0, 52, 0
1, 179339, Note_on_c, 0, 75, 0
1, 179469, Note_on_c, 0, 67, 0
1, 179469, Note_on_c, 0, 73, 0
1, 179469, Note_on_c, 0, 67, 41
1, 179472, Note_on_c, 0, 73, 51
1, 179609, Note_on_c, 0, 73, 0
1, 179609, Note_on_c, 0, 67, 0
1, 179609, Note_on_c, 0, 47, 39
1, 179612, Note_on_c, 0, 52, 51
1, 179620, Control_c, 0, 64, 0
1, 179620, Control_c, 0, 64, 0
1, 179749, Note_on_c, 0, 52, 0
1, 179749, Note_on_c, 0, 47, 0
1, 179749, Note_on_c, 0, 47, 39
1, 179752, Note_on_c, 0, 52, 51
1, 179878, Control_c, 0, 64, 127
1, 179878, Control_c, 0, 64, 127
1, 179890, Note_on_c, 0, 68, 41
1, 179890, Note_on_c, 0, 74, 50
1, 179890, Note_on_c, 0, 76, 71
1, 179893, Note_on_c, 0, 52, 0
1, 179893, Note_on_c, 0, 47, 0
1, 179901, Note_on_c, 0, 78, 0
1, 180039, Note_on_c, 0, 68, 0
1, 180039, Note_on_c, 0, 68, 40
1, 180039, Note_on_c, 0, 74, 49
1, 180051, Note_on_c, 0, 74, 0
1, 180121, Control_c, 0, 64, 0
1, 180121, Control_c, 0, 64, 0
1, 180189, Note_on_c, 0, 76, 0
1, 180189, Note_on_c, 0, 68, 0
1, 180189, Note_on_c, 0, 74, 0
1, 180192, Note_on_c, 0, 74, 66
1, 180192, Note_on_c, 0, 40, 39
1, 180192, Note_on_c, 0, 52, 50
1, 180251, Control_c, 0, 64, 0
1, 180251, Control_c, 0, 64, 0
1, 180393, Note_on_c, 0, 52, 0
1, 180393, Note_on_c, 0, 40, 0
1, 180393, Note_on_c, 0, 40, 38
1, 180396, Note_on_c, 0, 52, 50
1, 180535, Control_c, 0, 64, 0
1, 180535, Control_c, 0, 64, 0
1, 180598, Note_on_c, 0, 40, 0
1, 180598, Note_on_c, 0, 76, 68
1, 180598, Note_on_c, 0, 68, 40
1, 180601, Note_on_c, 0, 52, 0
1, 180626, Control_c, 0, 64, 0
1, 180626, Control_c, 0, 64, 0
1, 180727, Control_c, 0, 64, 127
1, 180727, Control_c, 0, 64, 127
1, 180785, Note_on_c, 0, 68, 0
1, 180785, Note_on_c, 0, 68, 40
1, 180972, Note_on_c, 0, 68, 0
1, 180972, Note_on_c, 0, 44, 32
1, 180972, Note_on_c, 0, 56, 43
1, 180987, Control_c, 0, 64, 0
1, 180987, Control_c, 0, 64, 0
1, 181159, Note_on_c, 0, 56, 0
1, 181159, Note_on_c, 0, 44, 0
1, 181159, Note_on_c, 0, 44, 32
1, 181162, Note_on_c, 0, 56, 43
1, 181331, Control_c, 0, 64, 127
1, 181331, Control_c, 0, 64, 127
1, 181346, Note_on_c, 0, 74, 0
1, 181346, Note_on_c, 0, 66, 33
1, 181346, Note_on_c, 0, 72, 42
1, 181349, Note_on_c, 0, 56, 0
1, 181349, Note_on_c, 0, 44, 0
1, 181349, Note_on_c, 0, 75, 63
1, 181362, Note_on_c, 0, 76, 0
1, 181551, Note_on_c, 0, 66, 0
1, 181551, Note_on_c, 0, 72, 0
1, 181551, Note_on_c, 0, 66, 33
1, 181554, Note_on_c, 0, 72, 42
1, 181674, Control_c, 0, 64, 0
1, 181674, Control_c, 0, 64, 0
1, 181775, Note_on_c, 0, 72, 0
1, 181775, Note_on_c, 0, 66, 0
1, 181775, Note_on_c, 0, 73, 65
1, 181778, Note_on_c, 0, 49, 32
1, 181778, Note_on_c, 0, 56, 39
1, 181790, Note_on_c, 0, 75, 0
1, 181946, Control_c, 0, 64, 127
1, 181946, Control_c, 0, 64, 127
1, 181963, Note_on_c, 0, 56, 0
1, 181963, Note_on_c, 0, 49, 0
1, 181963, Note_on_c, 0, 49, 32
1, 181966, Note_on_c, 0, 56, 39
1, 182135, Control_c, 0, 64, 0
1, 182135, Note_on_c, 0, 65, 50
1, 182135, Control_c, 0, 64, 0
1, 182138, Note_on_c, 0, 56, 0
1, 182138, Note_on_c, 0, 49, 0
1, 182234, Control_c, 0, 64, 127
1, 182234, Control_c, 0, 64, 127
1, 182296, Note_on_c, 0, 65, 0
1, 182296, Note_on_c, 0, 65, 50
1, 182446, Note_on_c, 0, 65, 0
1, 182446, Note_on_c, 0, 71, 68
1, 182446, Note_on_c, 0, 37, 39
1, 182449, Note_on_c, 0, 44, 46
1, 182457, Note_on_c, 0, 73, 0
1, 182457, Control_c, 0, 64, 0
1, 182457, Control_c, 0, 64, 0
1, 182586, Note_on_c, 0, 44, 0
1, 182586, Note_on_c, 0, 37, 0
1, 182586, Note_on_c, 0, 37, 39
1, 182589, Note_on_c, 0, 44, 46
1, 182715, Control_c, 0, 64, 127
1, 182715, Control_c, 0, 64, 127
1, 182726, Note_on_c, 0, 37, 0
1, 182726, Note_on_c, 0, 65, 46
1, 182726, Note_on_c, 0, 74, 71
1, 182729, Note_on_c, 0, 44, 0
1, 182737, Note_on_c, 0, 71, 0
1, 182867, Note_on_c, 0, 65, 0
1, 182867, Note_on_c, 0, 65, 46
1, 182944, Control_c, 0, 64, 0
1, 182944, Control_c, 0, 64, 0
1, 183007, Note_on_c, 0, 65, 0
1, 183007, Note_on_c, 0, 73, 72
1, 183007, Note_on_c, 0, 49, 39
1, 183010, Note_on_c, 0, 56, 46
1, 183018, Note_on_c, 0, 74, 0
1, 183135, Control_c, 0, 64, 127
1, 183135, Control_c, 0, 64, 127
1, 183148, Note_on_c, 0, 56, 0
1, 183148, Note_on_c, 0, 49, 0
1, 183148, Note_on_c, 0, 49, 39
1, 183151, Note_on_c, 0, 56, 46
1, 183288, Note_on_c, 0, 49, 0
1, 183288, Note_on_c, 0, 61, 42
1, 183288, Note_on_c, 0, 65, 55
1, 183291, Note_on_c, 0, 56, 0
1, 183428, Note_on_c, 0, 65, 0
1, 183428, Note_on_c, 0, 61, 0
1, 183428, Note_on_c, 0, 61, 42
1, 183431, Note_on_c, 0, 65, 51
1, 183569, Note_on_c, 0, 65, 0
1, 183569, Note_on_c, 0, 61, 0
1, 183569, Note_on_c, 0, 68, 65
1, 183572, Note_on_c, 0, 37, 39
1, 183572, Note_on_c, 0, 44, 46
1, 183580, Note_on_c, 0, 73, 0
1, 183580, Control_c, 0, 64, 0
1, 183580, Control_c, 0, 64, 0
1, 183709, Note_on_c, 0, 44, 0
1, 183709, Note_on_c, 0, 37, 0
1, 183709, Note_on_c, 0, 37, 39
1, 183712, Note_on_c, 0, 44, 46
1, 183838, Control_c, 0, 64, 127
1, 183838, Control_c, 0, 64, 127
1, 183850, Note_on_c, 0, 61, 32
1, 183850, Note_on_c, 0, 65, 40
1, 183850, Note_on_c, 0, 71, 68
1, 183853, Note_on_c, 0, 44, 0
1, 183853, Note_on_c, 0, 37, 0
1, 183861, Note_on_c, 0, 68, 0
1, 183990, Note_on_c, 0, 61, 0
1, 183990, Note_on_c, 0, 65, 0
1, 183990, Note_on_c, 0, 61, 32
1, 183993, Note_on_c, 0, 65, 40
1, 184067, Control_c, 0, 64, 0
1, 184067, Control_c, 0, 64, 0
1, 184130, Note_on_c, 0, 65, 0
1, 184130, Note_on_c, 0, 61, 0
1, 184130, Note_on_c, 0, 69, 68
1, 184133, Note_on_c, 0, 49, 39
1, 184133, Note_on_c, 0, 54, 46
1, 184141, Note_on_c, 0, 71, 0
1, 184258, Control_c, 0, 64, 127
1, 184258, Control_c, 0, 64, 127
1, 184271, Note_on_c, 0, 54, 0
1, 184271, Note_on_c, 0, 49, 0
1, 184271, Note_on_c, 0, 49, 39
1, 184274, Note_on_c, 0, 54, 46
1, 184411, Control_c, 0, 64, 0
1, 184411, Note_on_c, 0, 60, 37
1, 184411, Note_on_c, 0, 63, 50
1, 184414, Note_on_c, 0, 54, 0
1, 184414, Note_on_c, 0, 49, 0
1, 184414, Control_c, 0, 64, 0
1, 184552, Note_on_c, 0, 63, 0
1, 184552, Note_on_c, 0, 60, 0
1, 184552, Note_on_c, 0, 60, 37
1, 184555, Note_on_c, 0, 63, 46
1, 184692, Note_on_c, 0, 63, 0
1, 184692, Note_on_c, 0, 60, 0
1, 184692, Note_on_c, 0, 66, 64
1, 184695, Note_on_c, 0, 37, 39
1, 184695, Note_on_c, 0, 45, 46
1, 184703, Note_on_c, 0, 69, 0
1, 184703, Control_c, 0, 64, 0
1, 184703, Control_c, 0, 64, 0
1, 184832, Note_on_c, 0, 45, 0
1, 184832, Note_on_c, 0, 37, 0
1, 184832, Note_on_c, 0, 37, 39
1, 184835, Note_on_c, 0, 45, 46
1, 184961, Control_c, 0, 64, 127
1, 184961, Control_c, 0, 64, 127
1, 184973, Note_on_c, 0, 37, 0
1, 184973, Note_on_c, 0, 60, 33
1, 184973, Note_on_c, 0, 63, 41
1, 184976, Note_on_c, 0, 45, 0
1, 185113, Note_on_c, 0, 63, 0
1, 185113, Note_on_c, 0, 60, 0
1, 185113, Note_on_c, 0, 60, 33
1, 185116, Note_on_c, 0, 63, 41
1, 185190, Control_c, 0, 64, 0
1, 185190, Control_c, 0, 64, 0
1, 185254, Note_on_c, 0, 63, 0
1, 185254, Note_on_c, 0, 60, 0
1, 185254, Control_c, 0, 64, 0
1, 185257, Note_on_c, 0, 69, 65
1, 185257, Control_c, 0, 64, 0
1, 185257, Note_on_c, 0, 49, 39
1, 185260, Note_on_c, 0, 56, 46
1, 185271, Note_on_c, 0, 66, 0
1, 185322, Control_c, 0, 64, 0
1, 185322, Control_c, 0, 64, 0
1, 185404, Note_on_c, 0, 66, 62
1, 185418, Note_on_c, 0, 69, 0
1, 185466, Note_on_c, 0, 56, 0
1, 185466, Note_on_c, 0, 49, 0
1, 185466, Note_on_c, 0, 49, 39
1, 185469, Note_on_c, 0, 56, 46
1, 185528, Note_on_c, 0, 69, 60
1, 185543, Note_on_c, 0, 66, 0
1, 185596, Control_c, 0, 64, 0
1, 185596, Control_c, 0, 64, 0
1, 185653, Note_on_c, 0, 68, 59
1, 185653, Note_on_c, 0, 61, 33
1, 185653, Note_on_c, 0, 65, 44
1, 185656, Note_on_c, 0, 49, 0
1, 185656, Note_on_c, 0, 56, 0
1, 185664, Note_on_c, 0, 69, 0
1, 185674, Control_c, 0, 64, 0
1, 185674, Control_c, 0, 64, 0
1, 185750, Control_c, 0, 64, 127
1, 185750, Control_c, 0, 64, 127
1, 185793, Note_on_c, 0, 61, 0
1, 185793, Note_on_c, 0, 65, 0
1, 185793, Note_on_c, 0, 61, 31
1, 185796, Note_on_c, 0, 65, 39
1, 185934, Note_on_c, 0, 65, 0
1, 185934, Note_on_c, 0, 61, 0
1, 185934, Note_on_c, 0, 37, 39
1, 185937, Note_on_c, 0, 44, 46
1, 185945, Control_c, 0, 64, 0
1, 185945, Control_c, 0, 64, 0
1, 186074, Note_on_c, 0, 44, 0
1, 186074, Note_on_c, 0, 37, 0
1, 186074, Note_on_c, 0, 37, 39
1, 186077, Note_on_c, 0, 44, 46
1, 186203, Control_c, 0, 64, 127
1, 186203, Control_c, 0, 64, 127
1, 186215, Note_on_c, 0, 61, 43
1, 186215, Note_on_c, 0, 65, 50
1, 186215, Note_on_c, 0, 73, 72
1, 186218, Note_on_c, 0, 44, 0
1, 186218, Note_on_c, 0, 37, 0
1, 186228, Note_on_c, 0, 68, 0
1, 186387, Note_on_c, 0, 61, 0
1, 186387, Note_on_c, 0, 65, 0
1, 186387, Note_on_c, 0, 61, 43
1, 186390, Note_on_c, 0, 65, 50
1, 186482, Control_c, 0, 64, 0
1, 186482, Control_c, 0, 64, 0
1, 186560, Note_on_c, 0, 65, 0
1, 186560, Note_on_c, 0, 61, 0
1, 186560, Note_on_c, 0, 78, 80
1, 186563, Note_on_c, 0, 42, 39
1, 186563, Note_on_c, 0, 49, 53
1, 186575, Note_on_c, 0, 73, 0
1, 186731, Control_c, 0, 64, 127
1, 186731, Control_c, 0, 64, 127
1, 186747, Note_on_c, 0, 49, 0
1, 186747, Note_on_c, 0, 42, 0
1, 186747, Note_on_c, 0, 42, 39
1, 186750, Note_on_c, 0, 49, 53
1, 186842, Control_c, 0, 64, 127
1, 186842, Control_c, 0, 64, 127
1, 186920, Note_on_c, 0, 42, 0
1, 186920, Note_on_c, 0, 66, 45
1, 186920, Note_on_c, 0, 70, 52
1, 186923, Note_on_c, 0, 49, 0
1, 187081, Note_on_c, 0, 70, 0
1, 187081, Note_on_c, 0, 66, 0
1, 187081, Note_on_c, 0, 66, 45
1, 187084, Note_on_c, 0, 70, 52
1, 187230, Note_on_c, 0, 70, 0
1, 187230, Note_on_c, 0, 66, 0
1, 187230, Note_on_c, 0, 76, 74
1, 187233, Note_on_c, 0, 54, 39
1, 187233, Note_on_c, 0, 61, 53
1, 187241, Note_on_c, 0, 78, 0
1, 187241, Control_c, 0, 64, 0
1, 187241, Control_c, 0, 64, 0
1, 187371, Note_on_c, 0, 61, 0
1, 187371, Note_on_c, 0, 54, 0
1, 187371, Note_on_c, 0, 54, 39
1, 187374, Note_on_c, 0, 61, 53
1, 187500, Control_c, 0, 64, 127
1, 187500, Control_c, 0, 64, 127
1, 187511, Note_on_c, 0, 70, 45
1, 187511, Note_on_c, 0, 73, 52
1, 187511, Note_on_c, 0, 79, 77
1, 187514, Note_on_c, 0, 61, 0
1, 187514, Note_on_c, 0, 54, 0
1, 187524, Note_on_c, 0, 76, 0
1, 187672, Note_on_c, 0, 70, 0
1, 187672, Note_on_c, 0, 73, 0
1, 187672, Note_on_c, 0, 70, 45
1, 187675, Note_on_c, 0, 73, 52
1, 187759, Control_c, 0, 64, 0
1, 187759, Control_c, 0, 64, 0
1, 187832, Note_on_c, 0, 73, 0
1, 187832, Note_on_c, 0, 70, 0
1, 187832, Note_on_c, 0, 78, 80
1, 187835, Note_on_c, 0, 42, 39
1, 187835, Note_on_c, 0, 54, 53
1, 187843, Note_on_c, 0, 79, 0
1, 187960, Control_c, 0, 64, 127
1, 187960, Control_c, 0, 64, 127
1, 187972, Note_on_c, 0, 54, 0
1, 187972, Note_on_c, 0, 42, 0
1, 187972, Note_on_c, 0, 42, 39
1, 187975, Note_on_c, 0, 54, 53
1, 188036, Control_c, 0, 64, 127
1, 188036, Control_c, 0, 64, 127
1, 188113, Note_on_c, 0, 42, 0
1, 188113, Note_on_c, 0, 63, 45
1, 188113, Note_on_c, 0, 71, 57
1, 188116, Note_on_c, 0, 54, 0
1, 188253, Note_on_c, 0, 71, 0
1, 188253, Note_on_c, 0, 63, 0
1, 188253, Note_on_c, 0, 63, 44
1, 188256, Note_on_c, 0, 71, 52
1, 188394, Note_on_c, 0, 71, 0
1, 188394, Note_on_c, 0, 63, 0
1, 188394, Note_on_c, 0, 66, 70
1, 188397, Note_on_c, 0, 54, 38
1, 188397, Note_on_c, 0, 59, 52
1, 188406, Note_on_c, 0, 78, 0
1, 188406, Control_c, 0, 64, 0
1, 188406, Control_c, 0, 64, 0
1, 188554, Note_on_c, 0, 59, 0
1, 188554, Note_on_c, 0, 54, 0
1, 188554, Note_on_c, 0, 54, 38
1, 188557, Note_on_c, 0, 59, 52
1, 188701, Control_c, 0, 64, 127
1, 188701, Control_c, 0, 64, 127
1, 188715, Note_on_c, 0, 54, 0
1, 188715, Note_on_c, 0, 62, 51
1, 188715, Note_on_c, 0, 74, 73
1, 188718, Note_on_c, 0, 59, 0
1, 188727, Note_on_c, 0, 66, 0
1, 188875, Note_on_c, 0, 62, 0
1, 188875, Note_on_c, 0, 62, 51
1, 188963, Control_c, 0, 64, 0
1, 188963, Control_c, 0, 64, 0
1, 189036, Note_on_c, 0, 62, 0
1, 189036, Note_on_c, 0, 73, 72
1, 189036, Note_on_c, 0, 42, 38
1, 189039, Note_on_c, 0, 49, 51
1, 189048, Note_on_c, 0, 74, 0
1, 189182, Control_c, 0, 64, 127
1, 189182, Control_c, 0, 64, 127
1, 189196, Note_on_c, 0, 49, 0
1, 189196, Note_on_c, 0, 42, 0
1, 189196, Note_on_c, 0, 42, 37
1, 189199, Note_on_c, 0, 49, 50
1, 189356, Control_c, 0, 64, 0
1, 189356, Note_on_c, 0, 61, 42
1, 189356, Note_on_c, 0, 65, 53
1, 189359, Note_on_c, 0, 49, 0
1, 189359, Note_on_c, 0, 42, 0
1, 189359, Control_c, 0, 64, 0
1, 189517, Note_on_c, 0, 65, 0
1, 189517, Note_on_c, 0, 61, 0
1, 189517, Note_on_c, 0, 61, 41
1, 189520, Note_on_c, 0, 65, 49
1, 189677, Note_on_c, 0, 65, 0
1, 189677, Note_on_c, 0, 61, 0
1, 189677, Note_on_c, 0, 61, 67
1, 189680, Note_on_c, 0, 30, 35
1, 189680, Note_on_c, 0, 37, 48
1, 189691, Note_on_c, 0, 73, 0
1, 189691, Control_c, 0, 64, 0
1, 189691, Control_c, 0, 64, 0
1, 189850, Note_on_c, 0, 37, 0
1, 189850, Note_on_c, 0, 30, 0
1, 189850, Note_on_c, 0, 30, 34
1, 189853, Note_on_c, 0, 37, 47
1, 190009, Control_c, 0, 64, 127
1, 190009, Control_c, 0, 64, 127
1, 190023, Note_on_c, 0, 60, 39
1, 190023, Note_on_c, 0, 63, 46
1, 190023, Note_on_c, 0, 69, 68
1, 190026, Note_on_c, 0, 37, 0
1, 190026, Note_on_c, 0, 30, 0
1, 190035, Note_on_c, 0, 61, 0
1, 190183, Note_on_c, 0, 60, 0
1, 190183, Note_on_c, 0, 63, 0
1, 190183, Note_on_c, 0, 60, 38
1, 190186, Note_on_c, 0, 63, 45
1, 190271, Control_c, 0, 64, 0
1, 190271, Control_c, 0, 64, 0
1, 190344, Note_on_c, 0, 63, 0
1, 190344, Note_on_c, 0, 60, 0
1, 190344, Control_c, 0, 64, 0
1, 190347, Note_on_c, 0, 68, 65
1, 190347, Control_c, 0, 64, 0
1, 190347, Note_on_c, 0, 42, 28
1, 190350, Note_on_c, 0, 49, 40
1, 190363, Note_on_c, 0, 69, 0
1, 190420, Control_c, 0, 64, 0
1, 190420, Control_c, 0, 64, 0
1, 190511, Note_on_c, 0, 65, 63
1, 190528, Note_on_c, 0, 68, 0
1, 190585, Note_on_c, 0, 49, 0
1, 190585, Note_on_c, 0, 42, 0
1, 190585, Note_on_c, 0, 42, 28
1, 190588, Note_on_c, 0, 49, 40
1, 190660, Note_on_c, 0, 68, 62
1, 190677, Note_on_c, 0, 65, 0
1, 190741, Control_c, 0, 64, 0
1, 190741, Control_c, 0, 64, 0
1, 190810, Note_on_c, 0, 66, 60
1, 190810, Note_on_c, 0, 59, 34
1, 190810, Note_on_c, 0, 62, 50
1, 190813, Note_on_c, 0, 42, 0
1, 190813, Note_on_c, 0, 49, 0
1, 190829, Note_on_c, 0, 68, 0
1, 190848, Control_c, 0, 64, 0
1, 190848, Control_c, 0, 64, 0
1, 190982, Control_c, 0, 64, 127
1, 190982, Control_c, 0, 64, 127
1, 191059, Note_on_c, 0, 59, 0
1, 191059, Note_on_c, 0, 62, 0
1, 191059, Note_on_c, 0, 59, 37
1, 191062, Note_on_c, 0, 62, 48
1, 191340, Note_on_c, 0, 62, 0
1, 191340, Note_on_c, 0, 59, 0
1, 191340, Note_on_c, 0, 54, 28
1, 191343, Note_on_c, 0, 57, 33
1, 191343, Note_on_c, 0, 61, 35
1, 191363, Control_c, 0, 64, 0
1, 191363, Control_c, 0, 64, 0
1, 191879, Control_c, 0, 64, 127
1, 191879, Control_c, 0, 64, 127
1, 192336, Control_c, 0, 64, 0
1, 192336, Control_c, 0, 64, 0
1, 192463, Note_on_c, 0, 66, 0
1, 192463, Note_on_c, 0, 73, 96
1, 192463, Note_on_c, 0, 85, 108
1, 192466, Note_on_c, 0, 54, 0
1, 192466, Note_on_c, 0, 61, 0
1, 192466, Note_on_c, 0, 57, 0
1, 192481, Control_c, 0, 64, 127
1, 192481, Control_c, 0, 64, 127
1, 192508, Note_on_c, 0, 73, 0
1, 192508, Note_on_c, 0, 85, 0
1, 192576, Note_on_c, 0, 73, 79
1, 192576, Note_on_c, 0, 85, 91
1, 192613, Note_on_c, 0, 85, 0
1, 192613, Note_on_c, 0, 73, 0
1, 192669, Note_on_c, 0, 61, 98
1, 192707, Note_on_c, 0, 61, 0
1, 192763, Note_on_c, 0, 61, 82
1, 192800, Note_on_c, 0, 61, 0
1, 192857, Note_on_c, 0, 61, 89
1, 192857, Note_on_c, 0, 73, 101
1, 192894, Note_on_c, 0, 73, 0
1, 192894, Note_on_c, 0, 61, 0
1, 192950, Note_on_c, 0, 61, 72
1, 192950, Note_on_c, 0, 73, 84
1, 192987, Note_on_c, 0, 73, 0
1, 192987, Note_on_c, 0, 61, 0
1, 193044, Note_on_c, 0, 49, 91
1, 193081, Note_on_c, 0, 49, 0
1, 193137, Control_c, 0, 64, 127
1, 193137, Control_c, 0, 64, 127
1, 193137, Note_on_c, 0, 49, 75
1, 193193, Note_on_c, 0, 49, 0
1, 193276, Control_c, 0, 64, 127
1, 193276, Note_on_c, 0, 37, 108
1, 193825, Control_c, 0, 64, 0
1, 193825, Control_c, 0, 64, 0
1, 194027, Note_on_c, 0, 37, 0
1, 194027, Note_on_c, 0, 68, 64
1, 194027, Note_on_c, 0, 71, 69
1, 194030, Note_on_c, 0, 59, 72
1, 194108, Note_on_c, 0, 59, 0
1, 194108, Note_on_c, 0, 71, 0
1, 194108, Note_on_c, 0, 68, 0
1, 194231, Note_on_c, 0, 66, 68
1, 194231, Note_on_c, 0, 69, 73
1, 194231, Note_on_c, 0, 61, 71
1, 194271, Note_on_c, 0, 61, 0
1, 194313, Note_on_c, 0, 69, 0
1, 194313, Note_on_c, 0, 66, 0
1, 194333, Note_on_c, 0, 61, 73
1, 194374, Note_on_c, 0, 61, 0
1, 194435, Note_on_c, 0, 69, 66
1, 194435, Note_on_c, 0, 73, 73
1, 194435, Note_on_c, 0, 57, 81
1, 194472, Note_on_c, 0, 73, 0
1, 194472, Note_on_c, 0, 69, 0
1, 194510, Note_on_c, 0, 57, 0
1, 194529, Note_on_c, 0, 69, 68
1, 194529, Note_on_c, 0, 73, 76
1, 194566, Note_on_c, 0, 73, 0
1, 194566, Note_on_c, 0, 69, 0
1, 194622, Note_on_c, 0, 69, 75
1, 194622, Note_on_c, 0, 78, 82
1, 194622, Note_on_c, 0, 54, 79
1, 194659, Note_on_c, 0, 54, 0
1, 194697, Note_on_c, 0, 78, 0
1, 194697, Note_on_c, 0, 69, 0
1, 194716, Note_on_c, 0, 54, 81
1, 194753, Note_on_c, 0, 54, 0
1, 194809, Note_on_c, 0, 69, 75
1, 194809, Note_on_c, 0, 73, 82
1, 194809, Note_on_c, 0, 49, 89
1, 194847, Note_on_c, 0, 73, 0
1, 194847, Note_on_c, 0, 69, 0
1, 194884, Note_on_c, 0, 49, 0
1, 194903, Note_on_c, 0, 69, 84
1, 194903, Note_on_c, 0, 73, 84
1, 194940, Note_on_c, 0, 73, 0
1, 194940, Note_on_c, 0, 69, 0
1, 194997, Note_on_c, 0, 69, 84
1, 194997, Note_on_c, 0, 72, 93
1, 194997, Note_on_c, 0, 49, 88
1, 195034, Note_on_c, 0, 49, 0
1, 195072, Note_on_c, 0, 72, 0
1, 195072, Note_on_c, 0, 69, 0
1, 195090, Note_on_c, 0, 49, 90
1, 195127, Note_on_c, 0, 49, 0
1, 195184, Note_on_c, 0, 72, 83
1, 195184, Note_on_c, 0, 75, 83
1, 195184, Note_on_c, 0, 78, 91
1, 195187, Note_on_c, 0, 45, 99
1, 195221, Note_on_c, 0, 78, 0
1, 195221, Note_on_c, 0, 72, 0
1, 195221, Note_on_c, 0, 75, 0
1, 195259, Note_on_c, 0, 45, 0
1, 195277, Note_on_c, 0, 72, 84
1, 195277, Note_on_c, 0, 75, 84
1, 195277, Note_on_c, 0, 78, 92
1, 195315, Note_on_c, 0, 78, 0
1, 195315, Note_on_c, 0, 75, 0
1, 195315, Note_on_c, 0, 72, 0
1, 195371, Note_on_c, 0, 72, 93
1, 195371, Note_on_c, 0, 75, 93
1, 195371, Note_on_c, 0, 81, 102
1, 195374, Note_on_c, 0, 42, 96
1, 195408, Note_on_c, 0, 42, 0
1, 195446, Note_on_c, 0, 72, 0
1, 195446, Note_on_c, 0, 75, 0
1, 195446, Note_on_c, 0, 81, 0
1, 195465, Note_on_c, 0, 42, 98
1, 195502, Note_on_c, 0, 42, 0
1, 195558, Note_on_c, 0, 69, 98
1, 195558, Note_on_c, 0, 72, 92
1, 195558, Note_on_c, 0, 75, 100
1, 195561, Note_on_c, 0, 37, 108
1, 195595, Note_on_c, 0, 75, 0
1, 195595, Note_on_c, 0, 69, 0
1, 195595, Note_on_c, 0, 72, 0
1, 195633, Note_on_c, 0, 37, 0
1, 195652, Note_on_c, 0, 69, 93
1, 195652, Note_on_c, 0, 72, 93
1, 195652, Note_on_c, 0, 75, 102
1, 195708, Note_on_c, 0, 75, 0
1, 195708, Note_on_c, 0, 72, 0
1, 195708, Note_on_c, 0, 69, 0
1, 195792, Control_c, 0, 64, 0
1, 195792, Note_on_c, 0, 37, 90
1, 195792, Note_on_c, 0, 49, 102
1, 195837, Note_on_c, 0, 49, 0
1, 195837, Note_on_c, 0, 37, 0
1, 195844, Control_c, 0, 64, 127
1, 195844, Control_c, 0, 64, 127
1, 195844, Control_c, 0, 64, 127
1, 195904, Note_on_c, 0, 37, 73
1, 195904, Note_on_c, 0, 49, 85
1, 195942, Note_on_c, 0, 49, 0
1, 195942, Note_on_c, 0, 37, 0
1, 195998, Note_on_c, 0, 61, 98
1, 196035, Note_on_c, 0, 61, 0
1, 196092, Note_on_c, 0, 61, 88
1, 196129, Note_on_c, 0, 61, 0
1, 196185, Note_on_c, 0, 49, 83
1, 196185, Note_on_c, 0, 61, 95
1, 196223, Note_on_c, 0, 61, 0
1, 196223, Note_on_c, 0, 49, 0
1, 196279, Note_on_c, 0, 49, 66
1, 196279, Note_on_c, 0, 61, 78
1, 196316, Note_on_c, 0, 61, 0
1, 196316, Note_on_c, 0, 49, 0
1, 196372, Note_on_c, 0, 73, 91
1, 196410, Note_on_c, 0, 73, 0
1, 196466, Note_on_c, 0, 73, 81
1, 196610, Control_c, 0, 64, 127
1, 196627, Note_on_c, 0, 77, 112
1, 196627, Note_on_c, 0, 80, 112
1, 196938, Control_c, 0, 64, 127
1, 196938, Control_c, 0, 64, 127
1, 197076, Note_on_c, 0, 60, 78
1, 197076, Note_on_c, 0, 72, 100
1, 197085, Note_on_c, 0, 73, 0
1, 197109, Control_c, 0, 64, 0
1, 197109, Control_c, 0, 64, 0
1, 197300, Control_c, 0, 64, 127
1, 197300, Control_c, 0, 64, 127
1, 197519, Control_c, 0, 64, 127
1, 197535, Note_on_c, 0, 72, 0
1, 197739, Control_c, 0, 64, 127
1, 197739, Control_c, 0, 64, 127
1, 197974, Note_on_c, 0, 59, 77
1, 197984, Note_on_c, 0, 77, 0
1, 197984, Note_on_c, 0, 60, 0
1, 197984, Note_on_c, 0, 80, 0
1, 197998, Control_c, 0, 64, 0
1, 197998, Control_c, 0, 64, 0
1, 198424, Note_on_c, 0, 73, 65
1, 198424, Note_on_c, 0, 78, 65
1, 198424, Note_on_c, 0, 85, 79
1, 198427, Note_on_c, 0, 57, 55
1, 198436, Note_on_c, 0, 59, 0
1, 198480, Note_on_c, 0, 57, 0
1, 198564, Note_on_c, 0, 57, 49
1, 198614, Note_on_c, 0, 57, 0
1, 198689, Note_on_c, 0, 85, 0
1, 198689, Note_on_c, 0, 78, 0
1, 198689, Note_on_c, 0, 73, 0
1, 198692, Note_on_c, 0, 74, 68
1, 198692, Note_on_c, 0, 80, 68
1, 198692, Note_on_c, 0, 83, 82
1, 198695, Note_on_c, 0, 59, 61
1, 198726, Note_on_c, 0, 83, 0
1, 198726, Note_on_c, 0, 74, 0
1, 198726, Note_on_c, 0, 80, 0
1, 198782, Note_on_c, 0, 74, 63
1, 198782, Note_on_c, 0, 80, 63
1, 198782, Note_on_c, 0, 83, 77
1, 198820, Note_on_c, 0, 83, 0
1, 198820, Note_on_c, 0, 80, 0
1, 198820, Note_on_c, 0, 74, 0
1, 198876, Note_on_c, 0, 73, 71
1, 198876, Note_on_c, 0, 78, 71
1, 198876, Note_on_c, 0, 81, 86
1, 198879, Note_on_c, 0, 59, 0
1, 198879, Note_on_c, 0, 61, 66
1, 198913, Note_on_c, 0, 61, 0
1, 198970, Note_on_c, 0, 61, 60
1, 199007, Note_on_c, 0, 61, 0
1, 199063, Note_on_c, 0, 73, 0
1, 199063, Note_on_c, 0, 78, 0
1, 199063, Note_on_c, 0, 81, 0
1, 199066, Note_on_c, 0, 71, 73
1, 199066, Note_on_c, 0, 77, 73
1, 199066, Note_on_c, 0, 80, 89
1, 199069, Note_on_c, 0, 62, 72
1, 199101, Note_on_c, 0, 80, 0
1, 199101, Note_on_c, 0, 71, 0
1, 199101, Note_on_c, 0, 77, 0
1, 199157, Note_on_c, 0, 71, 67
1, 199157, Note_on_c, 0, 77, 67
1, 199157, Note_on_c, 0, 80, 83
1, 199207, Note_on_c, 0, 80, 0
1, 199207, Note_on_c, 0, 77, 0
1, 199207, Note_on_c, 0, 71, 0
1, 199282, Note_on_c, 0, 74, 74
1, 199282, Note_on_c, 0, 78, 74
1, 199282, Note_on_c, 0, 86, 90
1, 199285, Note_on_c, 0, 62, 0
1, 199285, Note_on_c, 0, 59, 64
1, 199326, Note_on_c, 0, 59, 0
1, 199394, Note_on_c, 0, 59, 56
1, 199439, Note_on_c, 0, 59, 0
1, 199506, Note_on_c, 0, 74, 0
1, 199506, Note_on_c, 0, 78, 0
1, 199506, Note_on_c, 0, 86, 0
1, 199509, Note_on_c, 0, 76, 74
1, 199509, Note_on_c, 0, 82, 74
1, 199509, Note_on_c, 0, 85, 90
1, 199512, Note_on_c, 0, 61, 67
1, 199547, Note_on_c, 0, 85, 0
1, 199547, Note_on_c, 0, 76, 0
1, 199547, Note_on_c, 0, 82, 0
1, 199608, Note_on_c, 0, 76, 67
1, 199608, Note_on_c, 0, 82, 67
1, 199608, Note_on_c, 0, 85, 83
1, 199649, Note_on_c, 0, 85, 0
1, 199649, Note_on_c, 0, 82, 0
1, 199649, Note_on_c, 0, 76, 0
1, 199711, Note_on_c, 0, 74, 74
1, 199711, Note_on_c, 0, 78, 74
1, 199711, Note_on_c, 0, 83, 90
1, 199714, Note_on_c, 0, 61, 0
1, 199714, Note_on_c, 0, 62, 70
1, 199748, Note_on_c, 0, 62, 0
1, 199804, Note_on_c, 0, 62, 62
1, 199841, Note_on_c, 0, 62, 0
1, 199898, Note_on_c, 0, 74, 0
1, 199898, Note_on_c, 0, 78, 0
1, 199898, Note_on_c, 0, 83, 0
1, 199901, Note_on_c, 0, 72, 74
1, 199901, Note_on_c, 0, 78, 74
1, 199901, Note_on_c, 0, 81, 90
1, 199904, Note_on_c, 0, 63, 72
1, 199935, Note_on_c, 0, 81, 0
1, 199935, Note_on_c, 0, 72, 0
1, 199935, Note_on_c, 0, 78, 0
1, 199991, Note_on_c, 0, 72, 67
1, 199991, Note_on_c, 0, 78, 67
1, 199991, Note_on_c, 0, 81, 83
1, 200029, Note_on_c, 0, 81, 0
1, 200029, Note_on_c, 0, 78, 0
1, 200029, Note_on_c, 0, 72, 0
1, 200085, Note_on_c, 0, 71, 74
1, 200085, Note_on_c, 0, 76, 74
1, 200085, Note_on_c, 0, 80, 90
1, 200088, Note_on_c, 0, 63, 0
1, 200088, Note_on_c, 0, 64, 75
1, 200122, Note_on_c, 0, 64, 0
1, 200179, Note_on_c, 0, 64, 67
1, 200216, Note_on_c, 0, 64, 0
1, 200272, Note_on_c, 0, 71, 0
1, 200272, Note_on_c, 0, 76, 0
1, 200272, Note_on_c, 0, 80, 0
1, 200275, Note_on_c, 0, 69, 74
1, 200275, Note_on_c, 0, 74, 74
1, 200275, Note_on_c, 0, 78, 86
1, 200278, Note_on_c, 0, 66, 78
1, 200309, Note_on_c, 0, 78, 0
1, 200309, Note_on_c, 0, 69, 0
1, 200309, Note_on_c, 0, 74, 0
1, 200366, Note_on_c, 0, 69, 67
1, 200366, Note_on_c, 0, 74, 67
1, 200366, Note_on_c, 0, 78, 79
1, 200403, Note_on_c, 0, 78, 0
1, 200403, Note_on_c, 0, 74, 0
1, 200403, Note_on_c, 0, 69, 0
1, 200459, Note_on_c, 0, 66, 0
1, 200459, Note_on_c, 0, 71, 74
1, 200459, Note_on_c, 0, 76, 90
1, 200462, Note_on_c, 0, 68, 81
1, 200497, Note_on_c, 0, 68, 0
1, 200553, Note_on_c, 0, 68, 73
1, 200590, Note_on_c, 0, 68, 0
1, 200647, Note_on_c, 0, 76, 0
1, 200647, Note_on_c, 0, 71, 0
1, 200647, Note_on_c, 0, 71, 74
1, 200650, Note_on_c, 0, 74, 90
1, 200650, Note_on_c, 0, 64, 83
1, 200684, Note_on_c, 0, 74, 0
1, 200684, Note_on_c, 0, 71, 0
1, 200740, Note_on_c, 0, 71, 67
1, 200740, Note_on_c, 0, 74, 83
1, 200777, Note_on_c, 0, 74, 0
1, 200777, Note_on_c, 0, 71, 0
1, 200834, Note_on_c, 0, 64, 0
1, 200834, Note_on_c, 0, 69, 74
1, 200834, Note_on_c, 0, 73, 90
1, 200837, Note_on_c, 0, 57, 64
1, 200874, Note_on_c, 0, 57, 0
1, 200936, Note_on_c, 0, 57, 54
1, 200981, Note_on_c, 0, 57, 0
1, 201048, Note_on_c, 0, 73, 0
1, 201048, Note_on_c, 0, 69, 0
1, 201048, Note_on_c, 0, 69, 90
1, 201051, Note_on_c, 0, 62, 65
1, 201051, Note_on_c, 0, 66, 74
1, 201051, Note_on_c, 0, 52, 61
1, 201209, Note_on_c, 0, 66, 0
1, 201209, Note_on_c, 0, 62, 0
1, 201209, Note_on_c, 0, 62, 65
1, 201212, Note_on_c, 0, 66, 74
1, 201396, Note_on_c, 0, 66, 0
1, 201396, Note_on_c, 0, 62, 0
1, 201396, Note_on_c, 0, 61, 65
1, 201399, Note_on_c, 0, 52, 0
1, 201399, Note_on_c, 0, 64, 74
1, 201399, Note_on_c, 0, 45, 58
1, 202145, Note_on_c, 0, 64, 0
1, 202145, Note_on_c, 0, 61, 0
1, 202145, Control_c, 0, 64, 0
1, 202148, Note_on_c, 0, 69, 0
1, 202148, Note_on_c, 0, 73, 96
1, 202148, Note_on_c, 0, 85, 108
1, 202151, Note_on_c, 0, 45, 0
1, 202151, Control_c, 0, 64, 0
1, 202189, Note_on_c, 0, 85, 0
1, 202189, Note_on_c, 0, 73, 0
1, 202189, Control_c, 0, 64, 127
1, 202189, Control_c, 0, 64, 127
1, 202257, Note_on_c, 0, 73, 79
1, 202257, Note_on_c, 0, 85, 91
1, 202294, Note_on_c, 0, 85, 0
1, 202294, Note_on_c, 0, 73, 0
1, 202351, Note_on_c, 0, 61, 104
1, 202388, Note_on_c, 0, 61, 0
1, 202444, Note_on_c, 0, 61, 89
1, 202481, Note_on_c, 0, 61, 0
1, 202538, Note_on_c, 0, 61, 89
1, 202538, Note_on_c, 0, 73, 101
1, 202575, Note_on_c, 0, 73, 0
1, 202575, Note_on_c, 0, 61, 0
1, 202631, Note_on_c, 0, 61, 72
1, 202631, Note_on_c, 0, 73, 84
1, 202669, Note_on_c, 0, 73, 0
1, 202669, Note_on_c, 0, 61, 0
1, 202725, Note_on_c, 0, 49, 97
1, 202762, Note_on_c, 0, 49, 0
1, 202819, Note_on_c, 0, 49, 82
1, 202874, Note_on_c, 0, 49, 0
1, 202959, Control_c, 0, 64, 127
1, 202959, Note_on_c, 0, 40, 114
1, 202959, Control_c, 0, 64, 127
1, 203118, Control_c, 0, 64, 127
1, 203118, Control_c, 0, 64, 127
1, 203588, Control_c, 0, 64, 0
1, 203588, Control_c, 0, 64, 0
1, 203671, Note_on_c, 0, 40, 0
1, 203708, Control_c, 0, 64, 0
1, 203708, Control_c, 0, 64, 0
1, 203708, Note_on_c, 0, 76, 96
1, 203711, Note_on_c, 0, 88, 108
1, 203711, Control_c, 0, 64, 0
1, 203711, Control_c, 0, 64, 0
1, 203720, Control_c, 0, 64, 0
1, 203720, Control_c, 0, 64, 0
1, 203752, Note_on_c, 0, 88, 0
1, 203752, Note_on_c, 0, 76, 0
1, 203756, Control_c, 0, 64, 127
1, 203756, Control_c, 0, 64, 127
1, 203820, Note_on_c, 0, 76, 79
1, 203820, Note_on_c, 0, 88, 91
1, 203857, Note_on_c, 0, 88, 0
1, 203857, Note_on_c, 0, 76, 0
1, 203914, Note_on_c, 0, 64, 104
1, 203951, Note_on_c, 0, 64, 0
1, 204007, Note_on_c, 0, 64, 89
1, 204045, Note_on_c, 0, 64, 0
1, 204101, Note_on_c, 0, 64, 89
1, 204101, Note_on_c, 0, 76, 101
1, 204138, Note_on_c, 0, 76, 0
1, 204138, Note_on_c, 0, 64, 0
1, 204194, Note_on_c, 0, 64, 72
1, 204194, Note_on_c, 0, 76, 84
1, 204232, Note_on_c, 0, 76, 0
1, 204232, Note_on_c, 0, 64, 0
1, 204288, Note_on_c, 0, 52, 97
1, 204310, Control_c, 0, 64, 127
1, 204310, Control_c, 0, 64, 127
1, 204325, Note_on_c, 0, 52, 0
1, 204382, Note_on_c, 0, 52, 82
1, 204438, Note_on_c, 0, 52, 0
1, 204522, Control_c, 0, 64, 127
1, 204522, Note_on_c, 0, 43, 108
1, 204522, Control_c, 0, 64, 127
1, 204681, Control_c, 0, 64, 127
1, 204681, Control_c, 0, 64, 127
1, 205211, Control_c, 0, 64, 0
1, 205211, Control_c, 0, 64, 0
1, 205234, Note_on_c, 0, 43, 0
1, 205271, Control_c, 0, 64, 0
1, 205271, Note_on_c, 0, 79, 61
1, 205271, Note_on_c, 0, 91, 87
1, 205274, Control_c, 0, 64, 0
1, 205295, Control_c, 0, 64, 127
1, 205295, Control_c, 0, 64, 127
1, 205316, Note_on_c, 0, 91, 0
1, 205316, Note_on_c, 0, 79, 0
1, 205383, Note_on_c, 0, 79, 56
1, 205383, Note_on_c, 0, 91, 67
1, 205428, Note_on_c, 0, 91, 0
1, 205428, Note_on_c, 0, 79, 0
1, 205495, Note_on_c, 0, 64, 61
1, 205495, Note_on_c, 0, 76, 67
1, 205533, Note_on_c, 0, 76, 0
1, 205533, Note_on_c, 0, 64, 0
1, 205589, Note_on_c, 0, 64, 51
1, 205589, Note_on_c, 0, 76, 57
1, 205626, Note_on_c, 0, 76, 0
1, 205626, Note_on_c, 0, 64, 0
1, 205683, Control_c, 0, 64, 0
1, 205683, Note_on_c, 0, 67, 64
1, 205683, Note_on_c, 0, 79, 83
1, 205686, Control_c, 0, 64, 0
1, 205720, Note_on_c, 0, 79, 0
1, 205720, Note_on_c, 0, 67, 0
1, 205726, Control_c, 0, 64, 127
1, 205726, Control_c, 0, 64, 127
1, 205776, Note_on_c, 0, 67, 59
1, 205776, Note_on_c, 0, 79, 71
1, 205814, Note_on_c, 0, 79, 0
1, 205814, Note_on_c, 0, 67, 0
1, 205870, Note_on_c, 0, 52, 64
1, 205870, Note_on_c, 0, 64, 71
1, 205907, Note_on_c, 0, 64, 0
1, 205907, Note_on_c, 0, 52, 0
1, 205963, Note_on_c, 0, 52, 55
1, 205963, Note_on_c, 0, 64, 61
1, 206001, Note_on_c, 0, 64, 0
1, 206001, Note_on_c, 0, 52, 0
1, 206057, Control_c, 0, 64, 127
1, 206057, Note_on_c, 0, 55, 68
1, 206057, Note_on_c, 0, 67, 87
1, 206060, Control_c, 0, 64, 127
1, 206094, Note_on_c, 0, 67, 0
1, 206094, Note_on_c, 0, 55, 0
1, 206151, Note_on_c, 0, 55, 62
1, 206151, Note_on_c, 0, 67, 74
1, 206188, Note_on_c, 0, 67, 0
1, 206188, Note_on_c, 0, 55, 0
1, 206244, Note_on_c, 0, 40, 68
1, 206244, Note_on_c, 0, 52, 75
1, 206282, Note_on_c, 0, 52, 0
1, 206282, Note_on_c, 0, 40, 0
1, 206338, Note_on_c, 0, 40, 57
1, 206338, Note_on_c, 0, 52, 65
1, 206375, Note_on_c, 0, 52, 0
1, 206375, Note_on_c, 0, 40, 0
1, 206431, Note_on_c, 0, 79, 71
1, 206431, Note_on_c, 0, 85, 71
1, 206431, Note_on_c, 0, 91, 88
1, 206453, Control_c, 0, 64, 0
1, 206453, Control_c, 0, 64, 0
1, 206469, Note_on_c, 0, 91, 0
1, 206469, Note_on_c, 0, 85, 0
1, 206469, Note_on_c, 0, 79, 0
1, 206525, Note_on_c, 0, 79, 59
1, 206525, Note_on_c, 0, 85, 59
1, 206525, Note_on_c, 0, 91, 72
1, 206562, Note_on_c, 0, 91, 0
1, 206562, Note_on_c, 0, 85, 0
1, 206562, Note_on_c, 0, 79, 0
1, 206576, Control_c, 0, 64, 127
1, 206576, Control_c, 0, 64, 127
1, 206619, Note_on_c, 0, 64, 71
1, 206619, Note_on_c, 0, 73, 71
1, 206619, Note_on_c, 0, 76, 79
1, 206656, Note_on_c, 0, 76, 0
1, 206656, Note_on_c, 0, 73, 0
1, 206656, Note_on_c, 0, 64, 0
1, 206676, Control_c, 0, 64, 0
1, 206676, Control_c, 0, 64, 0
1, 206712, Note_on_c, 0, 64, 60
1, 206712, Note_on_c, 0, 73, 60
1, 206712, Note_on_c, 0, 76, 68
1, 206750, Note_on_c, 0, 76, 0
1, 206750, Note_on_c, 0, 73, 0
1, 206750, Note_on_c, 0, 64, 0
1, 206806, Note_on_c, 0, 80, 64
1, 206806, Note_on_c, 0, 85, 64
1, 206806, Note_on_c, 0, 92, 90
1, 206851, Note_on_c, 0, 92, 0
1, 206851, Note_on_c, 0, 85, 0
1, 206851, Note_on_c, 0, 80, 0
1, 206855, Control_c, 0, 64, 127
1, 206855, Control_c, 0, 64, 127
1, 206918, Note_on_c, 0, 80, 54
1, 206918, Note_on_c, 0, 85, 54
1, 206918, Note_on_c, 0, 92, 66
1, 206956, Note_on_c, 0, 92, 0
1, 206956, Note_on_c, 0, 85, 0
1, 206956, Note_on_c, 0, 80, 0
1, 207012, Note_on_c, 0, 64, 65
1, 207012, Note_on_c, 0, 73, 65
1, 207012, Note_on_c, 0, 76, 72
1, 207049, Note_on_c, 0, 76, 0
1, 207049, Note_on_c, 0, 73, 0
1, 207049, Note_on_c, 0, 64, 0
1, 207105, Note_on_c, 0, 64, 56
1, 207105, Note_on_c, 0, 73, 56
1, 207105, Note_on_c, 0, 76, 62
1, 207143, Note_on_c, 0, 76, 0
1, 207143, Note_on_c, 0, 73, 0
1, 207143, Note_on_c, 0, 64, 0
1, 207199, Note_on_c, 0, 68, 62
1, 207199, Note_on_c, 0, 73, 62
1, 207199, Note_on_c, 0, 80, 77
1, 207236, Note_on_c, 0, 80, 0
1, 207236, Note_on_c, 0, 73, 0
1, 207236, Note_on_c, 0, 68, 0
1, 207293, Note_on_c, 0, 68, 58
1, 207293, Note_on_c, 0, 73, 58
1, 207293, Note_on_c, 0, 80, 70
1, 207330, Note_on_c, 0, 80, 0
1, 207330, Note_on_c, 0, 73, 0
1, 207330, Note_on_c, 0, 68, 0
1, 207386, Note_on_c, 0, 52, 70
1, 207386, Note_on_c, 0, 61, 70
1, 207386, Note_on_c, 0, 64, 78
1, 207424, Note_on_c, 0, 64, 0
1, 207424, Note_on_c, 0, 61, 0
1, 207424, Note_on_c, 0, 52, 0
1, 207480, Note_on_c, 0, 52, 60
1, 207480, Note_on_c, 0, 61, 60
1, 207480, Note_on_c, 0, 64, 67
1, 207517, Note_on_c, 0, 64, 0
1, 207517, Note_on_c, 0, 61, 0
1, 207517, Note_on_c, 0, 52, 0
1, 207573, Control_c, 0, 64, 0
1, 207573, Note_on_c, 0, 56, 70
1, 207573, Note_on_c, 0, 61, 70
1, 207576, Note_on_c, 0, 68, 83
1, 207576, Control_c, 0, 64, 0
1, 207595, Control_c, 0, 64, 127
1, 207595, Control_c, 0, 64, 127
1, 207611, Note_on_c, 0, 68, 0
1, 207611, Note_on_c, 0, 61, 0
1, 207611, Note_on_c, 0, 56, 0
1, 207667, Note_on_c, 0, 56, 62
1, 207667, Note_on_c, 0, 61, 62
1, 207667, Note_on_c, 0, 68, 76
1, 207704, Note_on_c, 0, 68, 0
1, 207704, Note_on_c, 0, 61, 0
1, 207704, Note_on_c, 0, 56, 0
1, 207761, Note_on_c, 0, 40, 75
1, 207761, Note_on_c, 0, 49, 75
1, 207761, Note_on_c, 0, 52, 83
1, 207798, Note_on_c, 0, 52, 0
1, 207798, Note_on_c, 0, 49, 0
1, 207798, Note_on_c, 0, 40, 0
1, 207854, Note_on_c, 0, 40, 59
1, 207854, Note_on_c, 0, 49, 59
1, 207854, Note_on_c, 0, 52, 67
1, 207892, Note_on_c, 0, 52, 0
1, 207892, Note_on_c, 0, 49, 0
1, 207892, Note_on_c, 0, 40, 0
1, 207948, Note_on_c, 0, 68, 75
1, 207948, Note_on_c, 0, 73, 75
1, 207948, Note_on_c, 0, 80, 93
1, 207985, Note_on_c, 0, 80, 0
1, 207985, Note_on_c, 0, 73, 0
1, 207985, Note_on_c, 0, 68, 0
1, 208041, Note_on_c, 0, 68, 63
1, 208041, Note_on_c, 0, 73, 63
1, 208041, Note_on_c, 0, 80, 77
1, 208079, Note_on_c, 0, 80, 0
1, 208079, Note_on_c, 0, 73, 0
1, 208079, Note_on_c, 0, 68, 0
1, 208135, Note_on_c, 0, 52, 81
1, 208135, Note_on_c, 0, 61, 81
1, 208135, Note_on_c, 0, 64, 90
1, 208172, Note_on_c, 0, 64, 0
1, 208172, Note_on_c, 0, 61, 0
1, 208172, Note_on_c, 0, 52, 0
1, 208229, Note_on_c, 0, 52, 64
1, 208229, Note_on_c, 0, 61, 64
1, 208229, Note_on_c, 0, 64, 72
1, 208266, Note_on_c, 0, 64, 0
1, 208266, Note_on_c, 0, 61, 0
1, 208266, Note_on_c, 0, 52, 0
1, 208293, Control_c, 0, 64, 0
1, 208293, Control_c, 0, 64, 0
1, 208322, Control_c, 0, 64, 0
1, 208322, Note_on_c, 0, 69, 86
1, 208322, Note_on_c, 0, 73, 86
1, 208325, Note_on_c, 0, 78, 86
1, 208325, Note_on_c, 0, 81, 104
1, 208325, Control_c, 0, 64, 0
1, 208351, Control_c, 0, 64, 127
1, 208351, Control_c, 0, 64, 127
1, 208360, Note_on_c, 0, 78, 0
1, 208360, Note_on_c, 0, 69, 0
1, 208360, Note_on_c, 0, 73, 0
1, 208363, Note_on_c, 0, 81, 0
1, 208416, Note_on_c, 0, 69, 72
1, 208416, Note_on_c, 0, 73, 72
1, 208416, Note_on_c, 0, 78, 72
1, 208419, Note_on_c, 0, 81, 87
1, 208453, Note_on_c, 0, 78, 0
1, 208453, Note_on_c, 0, 69, 0
1, 208453, Note_on_c, 0, 73, 0
1, 208456, Note_on_c, 0, 81, 0
1, 208509, Note_on_c, 0, 51, 87
1, 208509, Note_on_c, 0, 61, 87
1, 208509, Note_on_c, 0, 63, 97
1, 208547, Note_on_c, 0, 63, 0
1, 208547, Note_on_c, 0, 61, 0
1, 208547, Note_on_c, 0, 51, 0
1, 208603, Note_on_c, 0, 51, 75
1, 208603, Note_on_c, 0, 61, 89
1, 208603, Note_on_c, 0, 63, 85
1, 208640, Note_on_c, 0, 63, 0
1, 208640, Note_on_c, 0, 61, 0
1, 208640, Note_on_c, 0, 51, 0
1, 208697, Note_on_c, 0, 57, 91
1, 208697, Note_on_c, 0, 61, 91
1, 208697, Note_on_c, 0, 66, 91
1, 208700, Note_on_c, 0, 69, 102
1, 208734, Note_on_c, 0, 66, 0
1, 208734, Note_on_c, 0, 57, 0
1, 208734, Note_on_c, 0, 61, 0
1, 208737, Note_on_c, 0, 69, 0
1, 208790, Note_on_c, 0, 57, 77
1, 208790, Note_on_c, 0, 61, 77
1, 208790, Note_on_c, 0, 66, 77
1, 208793, Note_on_c, 0, 69, 93
1, 208828, Note_on_c, 0, 66, 0
1, 208828, Note_on_c, 0, 57, 0
1, 208828, Note_on_c, 0, 61, 0
1, 208831, Note_on_c, 0, 69, 0
1, 208884, Note_on_c, 0, 39, 93
1, 208884, Note_on_c, 0, 49, 93
1, 208884, Note_on_c, 0, 51, 104
1, 208921, Note_on_c, 0, 51, 0
1, 208921, Note_on_c, 0, 49, 0
1, 208921, Note_on_c, 0, 39, 0
1, 208977, Note_on_c, 0, 39, 88
1, 208977, Note_on_c, 0, 49, 88
1, 208977, Note_on_c, 0, 51, 91
1, 209015, Note_on_c, 0, 51, 0
1, 209015, Note_on_c, 0, 49, 0
1, 209015, Note_on_c, 0, 39, 0
1, 209021, Control_c, 0, 64, 0
1, 209021, Control_c, 0, 64, 0
1, 209071, Control_c, 0, 64, 0
1, 209071, Note_on_c, 0, 72, 92
1, 209071, Note_on_c, 0, 78, 92
1, 209074, Note_on_c, 0, 80, 92
1, 209074, Note_on_c, 0, 84, 114
1, 209074, Control_c, 0, 64, 0
1, 209108, Note_on_c, 0, 80, 0
1, 209108, Note_on_c, 0, 72, 0
1, 209108, Note_on_c, 0, 78, 0
1, 209111, Note_on_c, 0, 84, 0
1, 209114, Control_c, 0, 64, 127
1, 209114, Control_c, 0, 64, 127
1, 209136, Control_c, 0, 64, 127
1, 209136, Control_c, 0, 64, 127
1, 209165, Note_on_c, 0, 72, 75
1, 209165, Note_on_c, 0, 78, 76
1, 209165, Note_on_c, 0, 80, 75
1, 209168, Note_on_c, 0, 84, 94
1, 209202, Note_on_c, 0, 80, 0
1, 209202, Note_on_c, 0, 72, 0
1, 209202, Note_on_c, 0, 78, 0
1, 209205, Note_on_c, 0, 84, 0
1, 209258, Note_on_c, 0, 56, 93
1, 209258, Note_on_c, 0, 68, 105
1, 209299, Note_on_c, 0, 68, 0
1, 209299, Note_on_c, 0, 56, 0
1, 209360, Note_on_c, 0, 56, 80
1, 209360, Note_on_c, 0, 68, 93
1, 209401, Note_on_c, 0, 68, 0
1, 209401, Note_on_c, 0, 56, 0
1, 209462, Note_on_c, 0, 60, 99
1, 209462, Note_on_c, 0, 66, 99
1, 209462, Note_on_c, 0, 68, 99
1, 209465, Note_on_c, 0, 72, 111
1, 209507, Note_on_c, 0, 68, 0
1, 209507, Note_on_c, 0, 60, 0
1, 209507, Note_on_c, 0, 66, 0
1, 209510, Note_on_c, 0, 72, 0
1, 209575, Note_on_c, 0, 60, 83
1, 209575, Note_on_c, 0, 66, 83
1, 209575, Note_on_c, 0, 68, 83
1, 209578, Note_on_c, 0, 72, 95
1, 209619, Note_on_c, 0, 68, 0
1, 209619, Note_on_c, 0, 60, 0
1, 209619, Note_on_c, 0, 66, 0
1, 209622, Note_on_c, 0, 72, 0
1, 209687, Note_on_c, 0, 44, 100
1, 209687, Note_on_c, 0, 56, 113
1, 209732, Note_on_c, 0, 56, 0
1, 209732, Note_on_c, 0, 44, 0
1, 209799, Note_on_c, 0, 44, 86
1, 209799, Note_on_c, 0, 56, 99
1, 209844, Note_on_c, 0, 56, 0
1, 209844, Note_on_c, 0, 44, 0
1, 209869, Control_c, 0, 64, 0
1, 209869, Control_c, 0, 64, 0
1, 209912, Control_c, 0, 64, 0
1, 209912, Note_on_c, 0, 85, 105
1, 209912, Note_on_c, 0, 97, 119
1, 209915, Control_c, 0, 64, 0
1, 209961, Note_on_c, 0, 97, 0
1, 209961, Note_on_c, 0, 85, 0
1, 209961, Control_c, 0, 64, 127
1, 209961, Control_c, 0, 64, 127
1, 210037, Note_on_c, 0, 85, 83
1, 210037, Note_on_c, 0, 97, 97
1, 210077, Note_on_c, 0, 97, 0
1, 210077, Note_on_c, 0, 85, 0
1, 210139, Note_on_c, 0, 61, 103
1, 210139, Note_on_c, 0, 73, 115
1, 210176, Note_on_c, 0, 73, 0
1, 210176, Note_on_c, 0, 61, 0
1, 210232, Note_on_c, 0, 61, 81
1, 210232, Note_on_c, 0, 73, 93
1, 210270, Note_on_c, 0, 73, 0
1, 210270, Note_on_c, 0, 61, 0
1, 210326, Note_on_c, 0, 73, 98
1, 210326, Note_on_c, 0, 85, 112
1, 210337, Control_c, 0, 64, 127
1, 210337, Control_c, 0, 64, 127
1, 210363, Note_on_c, 0, 85, 0
1, 210363, Note_on_c, 0, 73, 0
1, 210419, Note_on_c, 0, 73, 81
1, 210419, Note_on_c, 0, 85, 95
1, 210457, Note_on_c, 0, 85, 0
1, 210457, Note_on_c, 0, 73, 0
1, 210513, Note_on_c, 0, 49, 101
1, 210513, Note_on_c, 0, 61, 113
1, 210550, Note_on_c, 0, 61, 0
1, 210550, Note_on_c, 0, 49, 0
1, 210607, Note_on_c, 0, 49, 79
1, 210607, Note_on_c, 0, 61, 91
1, 210663, Note_on_c, 0, 61, 0
1, 210663, Note_on_c, 0, 49, 0
1, 210747, Note_on_c, 0, 41, 121
1, 211294, Control_c, 0, 64, 0
1, 211294, Control_c, 0, 64, 0
1, 211496, Note_on_c, 0, 56, 64
1, 211496, Note_on_c, 0, 59, 78
1, 211496, Note_on_c, 0, 53, 63
1, 211504, Note_on_c, 0, 41, 0
1, 211683, Note_on_c, 0, 56, 0
1, 211683, Note_on_c, 0, 59, 0
1, 211683, Note_on_c, 0, 57, 81
1, 211686, Note_on_c, 0, 53, 0
1, 211686, Note_on_c, 0, 54, 64
1, 211728, Note_on_c, 0, 54, 0
1, 211795, Note_on_c, 0, 54, 60
1, 211840, Note_on_c, 0, 54, 0
1, 211908, Note_on_c, 0, 57, 0
1, 211908, Note_on_c, 0, 57, 73
1, 211908, Note_on_c, 0, 61, 83
1, 211911, Note_on_c, 0, 49, 70
1, 211945, Note_on_c, 0, 61, 0
1, 211945, Note_on_c, 0, 57, 0
1, 212001, Note_on_c, 0, 57, 66
1, 212001, Note_on_c, 0, 61, 76
1, 212039, Note_on_c, 0, 61, 0
1, 212039, Note_on_c, 0, 57, 0
1, 212095, Note_on_c, 0, 49, 0
1, 212095, Note_on_c, 0, 61, 77
1, 212095, Note_on_c, 0, 66, 87
1, 212098, Note_on_c, 0, 45, 77
1, 212132, Note_on_c, 0, 45, 0
1, 212188, Note_on_c, 0, 45, 73
1, 212226, Note_on_c, 0, 45, 0
1, 212282, Note_on_c, 0, 66, 0
1, 212282, Note_on_c, 0, 61, 0
1, 212282, Note_on_c, 0, 66, 78
1, 212285, Note_on_c, 0, 69, 90
1, 212285, Note_on_c, 0, 42, 83
1, 212319, Note_on_c, 0, 69, 0
1, 212319, Note_on_c, 0, 66, 0
1, 212376, Note_on_c, 0, 66, 70
1, 212376, Note_on_c, 0, 69, 82
1, 212413, Note_on_c, 0, 69, 0
1, 212413, Note_on_c, 0, 66, 0
1, 212469, Note_on_c, 0, 42, 0
1, 212469, Note_on_c, 0, 62, 81
1, 212469, Note_on_c, 0, 67, 94
1, 212472, Note_on_c, 0, 47, 79
1, 212507, Note_on_c, 0, 47, 0
1, 212563, Note_on_c, 0, 47, 73
1, 212600, Note_on_c, 0, 47, 0
1, 212656, Note_on_c, 0, 67, 0
1, 212656, Note_on_c, 0, 62, 0
1, 212656, Note_on_c, 0, 67, 83
1, 212659, Note_on_c, 0, 71, 95
1, 212659, Note_on_c, 0, 43, 82
1, 212694, Note_on_c, 0, 71, 0
1, 212694, Note_on_c, 0, 67, 0
1, 212750, Note_on_c, 0, 67, 75
1, 212750, Note_on_c, 0, 71, 87
1, 212787, Note_on_c, 0, 71, 0
1, 212787, Note_on_c, 0, 67, 0
1, 212844, Note_on_c, 0, 43, 0
1, 212844, Note_on_c, 0, 71, 86
1, 212844, Note_on_c, 0, 74, 99
1, 212847, Note_on_c, 0, 38, 87
1, 212881, Note_on_c, 0, 38, 0
1, 212937, Note_on_c, 0, 38, 81
1, 212975, Note_on_c, 0, 38, 0
1, 213031, Note_on_c, 0, 74, 0
1, 213031, Note_on_c, 0, 71, 0
1, 213031, Note_on_c, 0, 74, 88
1, 213034, Note_on_c, 0, 79, 101
1, 213034, Note_on_c, 0, 35, 90
1, 213068, Note_on_c, 0, 79, 0
1, 213068, Note_on_c, 0, 74, 0
1, 213124, Note_on_c, 0, 74, 80
1, 213124, Note_on_c, 0, 79, 92
1, 213162, Note_on_c, 0, 79, 0
1, 213162, Note_on_c, 0, 74, 0
1, 213218, Note_on_c, 0, 35, 0
1, 213218, Note_on_c, 0, 68, 90
1, 213218, Note_on_c, 0, 77, 103
1, 213221, Note_on_c, 0, 49, 94
1, 213255, Note_on_c, 0, 49, 0
1, 213312, Note_on_c, 0, 49, 88
1, 213349, Note_on_c, 0, 49, 0
1, 213405, Note_on_c, 0, 77, 0
1, 213405, Note_on_c, 0, 68, 0
1, 213405, Note_on_c, 0, 77, 92
1, 213408, Note_on_c, 0, 80, 105
1, 213408, Note_on_c, 0, 44, 97
1, 213443, Note_on_c, 0, 80, 0
1, 213443, Note_on_c, 0, 77, 0
1, 213499, Note_on_c, 0, 77, 84
1, 213499, Note_on_c, 0, 80, 99
1, 213536, Note_on_c, 0, 80, 0
1, 213536, Note_on_c, 0, 77, 0
1, 213592, Note_on_c, 0, 44, 0
1, 213592, Note_on_c, 0, 80, 93
1, 213592, Note_on_c, 0, 85, 113
1, 213595, Note_on_c, 0, 41, 102
1, 213630, Note_on_c, 0, 41, 0
1, 213686, Note_on_c, 0, 41, 96
1, 213723, Note_on_c, 0, 41, 0
1, 213780, Note_on_c, 0, 85, 0
1, 213780, Note_on_c, 0, 80, 0
1, 213780, Note_on_c, 0, 80, 95
1, 213783, Note_on_c, 0, 89, 115
1, 213783, Note_on_c, 0, 37, 105
1, 213817, Note_on_c, 0, 89, 0
1, 213817, Note_on_c, 0, 80, 0
1, 213873, Note_on_c, 0, 80, 87
1, 213873, Note_on_c, 0, 89, 107
1, 213923, Note_on_c, 0, 89, 0
1, 213923, Note_on_c, 0, 80, 0
1, 213998, Note_on_c, 0, 37, 0
1, 213998, Note_on_c, 0, 90, 108
1, 213998, Note_on_c, 0, 102, 122
1, 214012, Control_c, 0, 64, 127
1, 214012, Control_c, 0, 64, 127
1, 214035, Note_on_c, 0, 102, 0
1, 214035, Note_on_c, 0, 90, 0
1, 214092, Note_on_c, 0, 90, 91
1, 214092, Note_on_c, 0, 102, 105
1, 214129, Note_on_c, 0, 102, 0
1, 214129, Note_on_c, 0, 90, 0
1, 214185, Note_on_c, 0, 66, 97
1, 214185, Note_on_c, 0, 78, 109
1, 214223, Note_on_c, 0, 78, 0
1, 214223, Note_on_c, 0, 66, 0
1, 214279, Note_on_c, 0, 66, 81
1, 214279, Note_on_c, 0, 78, 93
1, 214316, Note_on_c, 0, 78, 0
1, 214316, Note_on_c, 0, 66, 0
1, 214372, Note_on_c, 0, 78, 101
1, 214372, Note_on_c, 0, 90, 115
1, 214410, Note_on_c, 0, 90, 0
1, 214410, Note_on_c, 0, 78, 0
1, 214466, Note_on_c, 0, 78, 84
1, 214466, Note_on_c, 0, 90, 98
1, 214503, Note_on_c, 0, 90, 0
1, 214503, Note_on_c, 0, 78, 0
1, 214534, Control_c, 0, 64, 0
1, 214534, Control_c, 0, 64, 0
1, 214560, Note_on_c, 0, 54, 90
1, 214560, Note_on_c, 0, 66, 102
1, 214597, Note_on_c, 0, 66, 0
1, 214597, Note_on_c, 0, 54, 0
1, 214653, Note_on_c, 0, 54, 74
1, 214653, Note_on_c, 0, 66, 86
1, 214689, Note_on_c, 0, 66, 0
1, 214689, Note_on_c, 0, 54, 0
1, 214689, Control_c, 0, 64, 127
1, 214689, Control_c, 0, 64, 127
1, 214747, Note_on_c, 0, 78, 104
1, 214747, Note_on_c, 0, 90, 118
1, 214761, Control_c, 0, 64, 127
1, 214761, Control_c, 0, 64, 127
1, 214784, Note_on_c, 0, 90, 0
1, 214784, Note_on_c, 0, 78, 0
1, 214840, Note_on_c, 0, 78, 87
1, 214840, Note_on_c, 0, 90, 101
1, 214878, Note_on_c, 0, 90, 0
1, 214878, Note_on_c, 0, 78, 0
1, 214934, Note_on_c, 0, 54, 97
1, 214934, Note_on_c, 0, 66, 109
1, 214971, Note_on_c, 0, 66, 0
1, 214971, Note_on_c, 0, 54, 0
1, 215028, Note_on_c, 0, 54, 81
1, 215028, Note_on_c, 0, 66, 93
1, 215065, Note_on_c, 0, 66, 0
1, 215065, Note_on_c, 0, 54, 0
1, 215121, Note_on_c, 0, 66, 97
1, 215121, Note_on_c, 0, 78, 111
1, 215159, Note_on_c, 0, 78, 0
1, 215159, Note_on_c, 0, 66, 0
1, 215164, Control_c, 0, 64, 127
1, 215164, Control_c, 0, 64, 127
1, 215215, Note_on_c, 0, 66, 80
1, 215215, Note_on_c, 0, 78, 94
1, 215252, Note_on_c, 0, 78, 0
1, 215252, Note_on_c, 0, 66, 0
1, 215308, Note_on_c, 0, 42, 90
1, 215308, Note_on_c, 0, 54, 102
1, 215346, Note_on_c, 0, 54, 0
1, 215346, Note_on_c, 0, 42, 0
1, 215402, Note_on_c, 0, 42, 74
1, 215402, Note_on_c, 0, 54, 86
1, 215439, Note_on_c, 0, 54, 0
1, 215439, Note_on_c, 0, 42, 0
1, 215478, Control_c, 0, 64, 0
1, 215478, Control_c, 0, 64, 0
1, 215494, Control_c, 0, 64, 0
1, 215494, Control_c, 0, 64, 127
1, 215494, Note_on_c, 0, 34, 116
1, 215523, Control_c, 0, 64, 0
1, 215523, Control_c, 0, 64, 0
1, 215669, Control_c, 0, 64, 127
1, 215669, Control_c, 0, 64, 127
1, 215870, Note_on_c, 0, 34, 0
1, 215870, Note_on_c, 0, 65, 103
1, 215870, Note_on_c, 0, 73, 91
1, 215873, Note_on_c, 0, 77, 119
1, 215873, Note_on_c, 0, 46, 85
1, 215873, Note_on_c, 0, 53, 102
1, 215876, Note_on_c, 0, 61, 85
1, 216243, Control_c, 0, 64, 127
1, 216603, Control_c, 0, 64, 0
1, 216603, Control_c, 0, 64, 0
1, 216619, Note_on_c, 0, 73, 0
1, 216619, Note_on_c, 0, 66, 79
1, 216619, Note_on_c, 0, 73, 79
1, 216622, Note_on_c, 0, 78, 95
1, 216622, Note_on_c, 0, 54, 80
1, 216626, Note_on_c, 0, 53, 0
1, 216626, Note_on_c, 0, 65, 0
1, 216626, Note_on_c, 0, 77, 0
1, 216669, Control_c, 0, 64, 127
1, 216669, Control_c, 0, 64, 127
1, 216992, Control_c, 0, 64, 127
1, 217555, Note_on_c, 0, 73, 0
1, 217555, Note_on_c, 0, 78, 0
1, 217555, Note_on_c, 0, 66, 0
1, 217558, Note_on_c, 0, 76, 72
1, 217558, Note_on_c, 0, 78, 72
1, 217558, Note_on_c, 0, 85, 72
1, 217561, Note_on_c, 0, 54, 0
1, 217561, Note_on_c, 0, 46, 0
1, 217561, Note_on_c, 0, 88, 90
1, 217564, Note_on_c, 0, 61, 0
1, 217564, Note_on_c, 0, 34, 55
1, 217564, Note_on_c, 0, 46, 55
1, 217702, Control_c, 0, 64, 0
1, 217702, Control_c, 0, 64, 0
1, 217804, Note_on_c, 0, 85, 0
1, 217804, Note_on_c, 0, 76, 0
1, 217804, Note_on_c, 0, 78, 0
1, 217807, Note_on_c, 0, 88, 0
1, 217807, Note_on_c, 0, 74, 74
1, 217807, Note_on_c, 0, 78, 74
1, 217810, Note_on_c, 0, 34, 0
1, 217810, Note_on_c, 0, 83, 74
1, 217810, Note_on_c, 0, 86, 90
1, 217813, Note_on_c, 0, 46, 0
1, 217842, Note_on_c, 0, 83, 0
1, 217842, Note_on_c, 0, 78, 0
1, 217842, Note_on_c, 0, 74, 0
1, 217845, Note_on_c, 0, 86, 0
1, 217876, Control_c, 0, 64, 127
1, 217876, Control_c, 0, 64, 127
1, 217898, Note_on_c, 0, 74, 65
1, 217898, Note_on_c, 0, 78, 65
1, 217898, Note_on_c, 0, 83, 65
1, 217901, Note_on_c, 0, 86, 81
1, 217935, Note_on_c, 0, 83, 0
1, 217935, Note_on_c, 0, 74, 0
1, 217935, Note_on_c, 0, 78, 0
1, 217938, Note_on_c, 0, 86, 0
1, 217992, Note_on_c, 0, 35, 70
1, 217992, Note_on_c, 0, 47, 79
1, 218029, Note_on_c, 0, 47, 0
1, 218029, Note_on_c, 0, 35, 0
1, 218085, Note_on_c, 0, 35, 61
1, 218085, Note_on_c, 0, 47, 70
1, 218123, Note_on_c, 0, 47, 0
1, 218123, Note_on_c, 0, 35, 0
1, 218140, Control_c, 0, 64, 0
1, 218140, Control_c, 0, 64, 0
1, 218179, Note_on_c, 0, 62, 78
1, 218179, Note_on_c, 0, 66, 78
1, 218179, Note_on_c, 0, 71, 90
1, 218216, Note_on_c, 0, 71, 0
1, 218216, Note_on_c, 0, 66, 0
1, 218216, Note_on_c, 0, 62, 0
1, 218272, Note_on_c, 0, 62, 69
1, 218272, Note_on_c, 0, 66, 69
1, 218272, Note_on_c, 0, 71, 81
1, 218310, Note_on_c, 0, 71, 0
1, 218310, Note_on_c, 0, 66, 0
1, 218310, Note_on_c, 0, 62, 0
1, 218366, Note_on_c, 0, 47, 79
1, 218403, Note_on_c, 0, 47, 0
1, 218460, Note_on_c, 0, 47, 70
1, 218477, Control_c, 0, 64, 0
1, 218477, Control_c, 0, 64, 0
1, 218497, Note_on_c, 0, 47, 0
1, 218553, Note_on_c, 0, 60, 78
1, 218553, Note_on_c, 0, 66, 78
1, 218553, Note_on_c, 0, 69, 90
1, 218591, Note_on_c, 0, 69, 0
1, 218591, Note_on_c, 0, 66, 0
1, 218591, Note_on_c, 0, 60, 0
1, 218647, Note_on_c, 0, 60, 69
1, 218647, Note_on_c, 0, 66, 69
1, 218647, Note_on_c, 0, 69, 81
1, 218684, Note_on_c, 0, 69, 0
1, 218684, Note_on_c, 0, 66, 0
1, 218684, Note_on_c, 0, 60, 0
1, 218740, Note_on_c, 0, 50, 79
1, 218778, Note_on_c, 0, 50, 0
1, 218834, Note_on_c, 0, 50, 70
1, 218871, Note_on_c, 0, 50, 0
1, 218928, Note_on_c, 0, 59, 78
1, 218928, Note_on_c, 0, 62, 78
1, 218928, Note_on_c, 0, 67, 90
1, 218965, Note_on_c, 0, 67, 0
1, 218965, Note_on_c, 0, 62, 0
1, 218965, Note_on_c, 0, 59, 0
1, 219021, Note_on_c, 0, 59, 69
1, 219021, Note_on_c, 0, 62, 69
1, 219021, Note_on_c, 0, 67, 81
1, 219059, Note_on_c, 0, 67, 0
1, 219059, Note_on_c, 0, 62, 0
1, 219059, Note_on_c, 0, 59, 0
1, 219115, Note_on_c, 0, 55, 79
1, 219152, Note_on_c, 0, 55, 0
1, 219208, Note_on_c, 0, 55, 70
1, 219246, Note_on_c, 0, 55, 0
1, 219302, Note_on_c, 0, 70, 69
1, 219302, Note_on_c, 0, 74, 69
1, 219302, Note_on_c, 0, 82, 81
1, 219339, Note_on_c, 0, 82, 0
1, 219339, Note_on_c, 0, 74, 0
1, 219339, Note_on_c, 0, 70, 0
1, 219339, Control_c, 0, 64, 127
1, 219339, Control_c, 0, 64, 127
1, 219396, Note_on_c, 0, 70, 60
1, 219396, Note_on_c, 0, 74, 60
1, 219396, Note_on_c, 0, 82, 72
1, 219433, Note_on_c, 0, 82, 0
1, 219433, Note_on_c, 0, 74, 0
1, 219433, Note_on_c, 0, 70, 0
1, 219489, Note_on_c, 0, 31, 61
1, 219489, Note_on_c, 0, 43, 70
1, 219527, Note_on_c, 0, 43, 0
1, 219527, Note_on_c, 0, 31, 0
1, 219583, Note_on_c, 0, 31, 52
1, 219583, Note_on_c, 0, 43, 61
1, 219620, Note_on_c, 0, 43, 0
1, 219620, Note_on_c, 0, 31, 0
1, 219648, Control_c, 0, 64, 0
1, 219648, Control_c, 0, 64, 0
1, 219676, Note_on_c, 0, 58, 69
1, 219676, Note_on_c, 0, 62, 69
1, 219676, Note_on_c, 0, 70, 81
1, 219714, Note_on_c, 0, 70, 0
1, 219714, Note_on_c, 0, 62, 0
1, 219714, Note_on_c, 0, 58, 0
1, 219770, Note_on_c, 0, 58, 60
1, 219770, Note_on_c, 0, 62, 60
1, 219770, Note_on_c, 0, 70, 72
1, 219807, Note_on_c, 0, 70, 0
1, 219807, Note_on_c, 0, 62, 0
1, 219807, Note_on_c, 0, 58, 0
1, 219864, Note_on_c, 0, 43, 70
1, 219901, Note_on_c, 0, 43, 0
1, 219957, Note_on_c, 0, 43, 61
1, 219967, Control_c, 0, 64, 0
1, 219967, Control_c, 0, 64, 0
1, 219995, Note_on_c, 0, 43, 0
1, 220051, Note_on_c, 0, 58, 69
1, 220051, Note_on_c, 0, 62, 69
1, 220051, Note_on_c, 0, 69, 81
1, 220088, Note_on_c, 0, 69, 0
1, 220088, Note_on_c, 0, 62, 0
1, 220088, Note_on_c, 0, 58, 0
1, 220144, Note_on_c, 0, 58, 60
1, 220144, Note_on_c, 0, 62, 60
1, 220144, Note_on_c, 0, 69, 72
1, 220182, Note_on_c, 0, 69, 0
1, 220182, Note_on_c, 0, 62, 0
1, 220182, Note_on_c, 0, 58, 0
1, 220238, Note_on_c, 0, 46, 70
1, 220275, Note_on_c, 0, 46, 0
1, 220332, Note_on_c, 0, 46, 61
1, 220369, Note_on_c, 0, 46, 0
1, 220425, Note_on_c, 0, 58, 69
1, 220425, Note_on_c, 0, 63, 69
1, 220425, Note_on_c, 0, 67, 81
1, 220463, Note_on_c, 0, 67, 0
1, 220463, Note_on_c, 0, 63, 0
1, 220463, Note_on_c, 0, 58, 0
1, 220519, Note_on_c, 0, 58, 60
1, 220519, Note_on_c, 0, 63, 60
1, 220519, Note_on_c, 0, 67, 72
1, 220556, Note_on_c, 0, 67, 0
1, 220556, Note_on_c, 0, 63, 0
1, 220556, Note_on_c, 0, 58, 0
1, 220612, Note_on_c, 0, 51, 70
1, 220650, Note_on_c, 0, 51, 0
1, 220706, Note_on_c, 0, 51, 61
1, 220743, Note_on_c, 0, 51, 0
1, 220796, Control_c, 0, 64, 0
1, 220800, Note_on_c, 0, 58, 67
1, 220800, Note_on_c, 0, 61, 67
1, 220800, Note_on_c, 0, 67, 76
1, 220837, Note_on_c, 0, 67, 0
1, 220837, Note_on_c, 0, 61, 0
1, 220837, Note_on_c, 0, 58, 0
1, 220893, Note_on_c, 0, 58, 60
1, 220893, Note_on_c, 0, 61, 60
1, 220893, Note_on_c, 0, 67, 70
1, 220931, Note_on_c, 0, 67, 0
1, 220931, Note_on_c, 0, 61, 0
1, 220931, Note_on_c, 0, 58, 0
1, 220987, Note_on_c, 0, 52, 69
1, 221024, Note_on_c, 0, 52, 0
1, 221049, Control_c, 0, 64, 127
1, 221080, Note_on_c, 0, 52, 62
1, 221118, Note_on_c, 0, 52, 0
1, 221174, Note_on_c, 0, 59, 70
1, 221174, Note_on_c, 0, 66, 80
1, 221211, Note_on_c, 0, 66, 0
1, 221211, Note_on_c, 0, 59, 0
1, 221262, Control_c, 0, 64, 0
1, 221268, Note_on_c, 0, 59, 62
1, 221268, Note_on_c, 0, 66, 73
1, 221305, Note_on_c, 0, 66, 0
1, 221305, Note_on_c, 0, 59, 0
1, 221361, Note_on_c, 0, 50, 72
1, 221399, Note_on_c, 0, 50, 0
1, 221455, Note_on_c, 0, 50, 65
1, 221463, Control_c, 0, 64, 127
1, 221492, Note_on_c, 0, 50, 0
1, 221548, Note_on_c, 0, 64, 80
1, 221548, Note_on_c, 0, 67, 80
1, 221548, Note_on_c, 0, 70, 88
1, 221551, Control_c, 0, 64, 0
1, 221586, Note_on_c, 0, 70, 0
1, 221586, Note_on_c, 0, 67, 0
1, 221586, Note_on_c, 0, 64, 0
1, 221595, Control_c, 0, 64, 0
1, 221595, Control_c, 0, 64, 0
1, 221595, Control_c, 0, 64, 0
1, 221642, Note_on_c, 0, 64, 73
1, 221642, Note_on_c, 0, 67, 73
1, 221642, Note_on_c, 0, 70, 80
1, 221679, Note_on_c, 0, 70, 0
1, 221679, Note_on_c, 0, 67, 0
1, 221679, Note_on_c, 0, 64, 0
1, 221719, Control_c, 0, 64, 0
1, 221719, Control_c, 0, 64, 0
1, 221719, Control_c, 0, 64, 0
1, 221736, Note_on_c, 0, 49, 81
1, 221773, Note_on_c, 0, 49, 0
1, 221829, Note_on_c, 0, 49, 72
1, 221835, Control_c, 0, 64, 0
1, 221835, Control_c, 0, 64, 0
1, 221835, Control_c, 0, 64, 0
1, 221867, Note_on_c, 0, 49, 0
1, 221923, Note_on_c, 0, 62, 81
1, 221923, Note_on_c, 0, 66, 81
1, 221923, Note_on_c, 0, 71, 91
1, 221929, Control_c, 0, 64, 127
1, 221929, Control_c, 0, 64, 127
1, 221929, Control_c, 0, 64, 127
1, 221960, Note_on_c, 0, 71, 0
1, 221960, Note_on_c, 0, 66, 0
1, 221960, Note_on_c, 0, 62, 0
1, 222016, Note_on_c, 0, 62, 72
1, 222016, Note_on_c, 0, 66, 72
1, 222016, Note_on_c, 0, 71, 82
1, 222054, Note_on_c, 0, 71, 0
1, 222054, Note_on_c, 0, 66, 0
1, 222054, Note_on_c, 0, 62, 0
1, 222091, Control_c, 0, 64, 0
1, 222091, Control_c, 0, 64, 0
1, 222091, Control_c, 0, 64, 0
1, 222110, Note_on_c, 0, 47, 79
1, 222136, Control_c, 0, 64, 0
1, 222136, Control_c, 0, 64, 0
1, 222136, Control_c, 0, 64, 0
1, 222147, Note_on_c, 0, 47, 0
1, 222204, Note_on_c, 0, 47, 69
1, 222241, Note_on_c, 0, 47, 0
1, 222247, Control_c, 0, 64, 0
1, 222247, Control_c, 0, 64, 0
1, 222247, Control_c, 0, 64, 0
1, 222297, Note_on_c, 0, 61, 84
1, 222297, Note_on_c, 0, 66, 84
1, 222297, Note_on_c, 0, 73, 96
1, 222300, Control_c, 0, 64, 0
1, 222335, Note_on_c, 0, 73, 0
1, 222335, Note_on_c, 0, 66, 0
1, 222335, Note_on_c, 0, 61, 0
1, 222357, Control_c, 0, 64, 127
1, 222357, Control_c, 0, 64, 127
1, 222357, Control_c, 0, 64, 127
1, 222391, Note_on_c, 0, 61, 72
1, 222391, Note_on_c, 0, 66, 72
1, 222391, Note_on_c, 0, 73, 84
1, 222428, Note_on_c, 0, 73, 0
1, 222428, Note_on_c, 0, 66, 0
1, 222428, Note_on_c, 0, 61, 0
1, 222479, Control_c, 0, 64, 0
1, 222479, Control_c, 0, 64, 0
1, 222479, Control_c, 0, 64, 0
1, 222484, Note_on_c, 0, 45, 68
1, 222484, Note_on_c, 0, 57, 77
1, 222522, Note_on_c, 0, 57, 0
1, 222522, Note_on_c, 0, 45, 0
1, 222537, Control_c, 0, 64, 0
1, 222537, Control_c, 0, 64, 0
1, 222537, Control_c, 0, 64, 0
1, 222578, Note_on_c, 0, 45, 58
1, 222578, Note_on_c, 0, 57, 67
1, 222615, Note_on_c, 0, 57, 0
1, 222615, Note_on_c, 0, 45, 0
1, 222672, Note_on_c, 0, 66, 84
1, 222672, Note_on_c, 0, 71, 84
1, 222672, Note_on_c, 0, 74, 84
1, 222675, Note_on_c, 0, 78, 96
1, 222687, Control_c, 0, 64, 127
1, 222687, Control_c, 0, 64, 127
1, 222687, Control_c, 0, 64, 127
1, 222702, Control_c, 0, 64, 127
1, 222702, Control_c, 0, 64, 127
1, 222702, Control_c, 0, 64, 127
1, 222709, Note_on_c, 0, 74, 0
1, 222709, Note_on_c, 0, 66, 0
1, 222709, Note_on_c, 0, 71, 0
1, 222712, Note_on_c, 0, 78, 0
1, 222765, Note_on_c, 0, 66, 66
1, 222765, Note_on_c, 0, 71, 66
1, 222765, Note_on_c, 0, 74, 66
1, 222768, Note_on_c, 0, 78, 85
1, 222803, Note_on_c, 0, 74, 0
1, 222803, Note_on_c, 0, 66, 0
1, 222803, Note_on_c, 0, 71, 0
1, 222806, Note_on_c, 0, 78, 0
1, 222819, Control_c, 0, 64, 0
1, 222819, Control_c, 0, 64, 0
1, 222819, Control_c, 0, 64, 0
1, 222859, Note_on_c, 0, 44, 68
1, 222859, Note_on_c, 0, 56, 77
1, 222889, Control_c, 0, 64, 0
1, 222889, Control_c, 0, 64, 0
1, 222889, Control_c, 0, 64, 0
1, 222896, Note_on_c, 0, 56, 0
1, 222896, Note_on_c, 0, 44, 0
1, 222952, Note_on_c, 0, 44, 58
1, 222952, Note_on_c, 0, 56, 67
1, 222990, Note_on_c, 0, 56, 0
1, 222990, Note_on_c, 0, 44, 0
1, 223046, Note_on_c, 0, 69, 87
1, 223046, Note_on_c, 0, 73, 87
1, 223046, Note_on_c, 0, 78, 87
1, 223049, Note_on_c, 0, 81, 101
1, 223049, Control_c, 0, 64, 0
1, 223073, Control_c, 0, 64, 127
1, 223073, Control_c, 0, 64, 127
1, 223083, Note_on_c, 0, 78, 0
1, 223083, Note_on_c, 0, 69, 0
1, 223083, Note_on_c, 0, 73, 0
1, 223086, Note_on_c, 0, 81, 0
1, 223140, Note_on_c, 0, 69, 76
1, 223140, Note_on_c, 0, 73, 76
1, 223140, Note_on_c, 0, 78, 76
1, 223143, Note_on_c, 0, 81, 90
1, 223177, Note_on_c, 0, 78, 0
1, 223177, Note_on_c, 0, 69, 0
1, 223177, Note_on_c, 0, 73, 0
1, 223180, Note_on_c, 0, 81, 0
1, 223217, Control_c, 0, 64, 0
1, 223217, Control_c, 0, 64, 0
1, 223233, Note_on_c, 0, 42, 71
1, 223233, Note_on_c, 0, 54, 80
1, 223240, Control_c, 0, 64, 0
1, 223240, Control_c, 0, 64, 0
1, 223271, Note_on_c, 0, 54, 0
1, 223271, Note_on_c, 0, 42, 0
1, 223327, Note_on_c, 0, 42, 60
1, 223327, Note_on_c, 0, 54, 69
1, 223360, Control_c, 0, 64, 0
1, 223360, Control_c, 0, 64, 0
1, 223364, Note_on_c, 0, 54, 0
1, 223364, Note_on_c, 0, 42, 0
1, 223420, Control_c, 0, 64, 127
1, 223420, Note_on_c, 0, 73, 89
1, 223420, Note_on_c, 0, 77, 89
1, 223423, Note_on_c, 0, 80, 89
1, 223423, Note_on_c, 0, 85, 104
1, 223423, Control_c, 0, 64, 127
1, 223458, Note_on_c, 0, 80, 0
1, 223458, Note_on_c, 0, 73, 0
1, 223458, Note_on_c, 0, 77, 0
1, 223461, Note_on_c, 0, 85, 0
1, 223514, Note_on_c, 0, 73, 76
1, 223514, Note_on_c, 0, 77, 76
1, 223514, Note_on_c, 0, 80, 76
1, 223517, Note_on_c, 0, 85, 91
1, 223521, Control_c, 0, 64, 127
1, 223521, Control_c, 0, 64, 127
1, 223551, Note_on_c, 0, 80, 0
1, 223551, Note_on_c, 0, 73, 0
1, 223551, Note_on_c, 0, 77, 0
1, 223554, Note_on_c, 0, 85, 0
1, 223608, Note_on_c, 0, 37, 78
1, 223608, Note_on_c, 0, 49, 86
1, 223628, Control_c, 0, 64, 127
1, 223628, Control_c, 0, 64, 127
1, 223645, Note_on_c, 0, 49, 0
1, 223645, Note_on_c, 0, 37, 0
1, 223701, Note_on_c, 0, 37, 65
1, 223701, Note_on_c, 0, 49, 74
1, 223739, Note_on_c, 0, 49, 0
1, 223739, Note_on_c, 0, 37, 0
1, 223739, Control_c, 0, 64, 0
1, 223739, Control_c, 0, 64, 0
1, 223795, Control_c, 0, 64, 127
1, 223795, Note_on_c, 0, 78, 92
1, 223795, Note_on_c, 0, 81, 92
1, 223798, Note_on_c, 0, 85, 92
1, 223798, Note_on_c, 0, 90, 106
1, 223798, Control_c, 0, 64, 127
1, 223801, Control_c, 0, 64, 127
1, 223801, Control_c, 0, 64, 0
1, 223801, Control_c, 0, 64, 127
1, 223831, Note_on_c, 0, 85, 0
1, 223831, Note_on_c, 0, 78, 0
1, 223831, Note_on_c, 0, 81, 0
1, 223834, Note_on_c, 0, 90, 0
1, 223885, Note_on_c, 0, 78, 80
1, 223885, Note_on_c, 0, 81, 80
1, 223885, Note_on_c, 0, 85, 80
1, 223888, Note_on_c, 0, 90, 96
1, 223921, Note_on_c, 0, 85, 0
1, 223921, Note_on_c, 0, 78, 0
1, 223921, Note_on_c, 0, 81, 0
1, 223924, Note_on_c, 0, 90, 0
1, 223975, Note_on_c, 0, 33, 80
1, 223975, Note_on_c, 0, 45, 89
1, 224010, Note_on_c, 0, 45, 0
1, 224010, Note_on_c, 0, 33, 0
1, 224064, Note_on_c, 0, 33, 69
1, 224064, Note_on_c, 0, 45, 78
1, 224086, Control_c, 0, 64, 0
1, 224086, Control_c, 0, 64, 0
1, 224100, Note_on_c, 0, 45, 0
1, 224100, Note_on_c, 0, 33, 0
1, 224144, Control_c, 0, 64, 0
1, 224144, Control_c, 0, 64, 0
1, 224154, Note_on_c, 0, 80, 95
1, 224154, Note_on_c, 0, 86, 95
1, 224154, Note_on_c, 0, 90, 95
1, 224157, Note_on_c, 0, 92, 110
1, 224190, Note_on_c, 0, 80, 0
1, 224190, Control_c, 0, 64, 127
1, 224190, Control_c, 0, 64, 127
1, 224193, Note_on_c, 0, 86, 0
1, 224193, Note_on_c, 0, 90, 0
1, 224193, Note_on_c, 0, 92, 0
1, 224244, Note_on_c, 0, 80, 81
1, 224244, Note_on_c, 0, 86, 81
1, 224244, Note_on_c, 0, 90, 81
1, 224247, Note_on_c, 0, 92, 98
1, 224280, Note_on_c, 0, 90, 0
1, 224280, Note_on_c, 0, 80, 0
1, 224280, Note_on_c, 0, 86, 0
1, 224283, Note_on_c, 0, 92, 0
1, 224294, Control_c, 0, 64, 127
1, 224294, Control_c, 0, 64, 127
1, 224334, Note_on_c, 0, 32, 87
1, 224334, Note_on_c, 0, 44, 95
1, 224370, Note_on_c, 0, 44, 0
1, 224370, Note_on_c, 0, 32, 0
1, 224424, Note_on_c, 0, 32, 73
1, 224424, Note_on_c, 0, 44, 81
1, 224460, Note_on_c, 0, 44, 0
1, 224460, Note_on_c, 0, 32, 0
1, 224460, Control_c, 0, 64, 0
1, 224460, Control_c, 0, 64, 0
1, 224468, Control_c, 0, 64, 0
1, 224468, Control_c, 0, 64, 0
1, 224514, Note_on_c, 0, 81, 96
1, 224514, Note_on_c, 0, 85, 96
1, 224514, Note_on_c, 0, 90, 96
1, 224517, Note_on_c, 0, 93, 112
1, 224517, Control_c, 0, 64, 0
1, 224520, Control_c, 0, 64, 127
1, 224520, Control_c, 0, 64, 127
1, 224550, Note_on_c, 0, 90, 0
1, 224550, Note_on_c, 0, 81, 0
1, 224550, Note_on_c, 0, 85, 0
1, 224553, Note_on_c, 0, 93, 0
1, 224572, Control_c, 0, 64, 127
1, 224572, Control_c, 0, 64, 127
1, 224604, Note_on_c, 0, 81, 85
1, 224604, Note_on_c, 0, 85, 85
1, 224604, Note_on_c, 0, 90, 85
1, 224607, Note_on_c, 0, 93, 101
1, 224639, Note_on_c, 0, 90, 0
1, 224639, Note_on_c, 0, 81, 0
1, 224639, Note_on_c, 0, 85, 0
1, 224642, Note_on_c, 0, 93, 0
1, 224693, Note_on_c, 0, 30, 93
1, 224693, Note_on_c, 0, 42, 101
1, 224729, Note_on_c, 0, 42, 0
1, 224729, Note_on_c, 0, 30, 0
1, 224783, Note_on_c, 0, 30, 79
1, 224783, Note_on_c, 0, 42, 87
1, 224819, Note_on_c, 0, 42, 0
1, 224819, Note_on_c, 0, 30, 0
1, 224870, Control_c, 0, 64, 0
1, 224870, Control_c, 0, 64, 0
1, 224873, Note_on_c, 0, 85, 98
1, 224873, Note_on_c, 0, 89, 98
1, 224873, Note_on_c, 0, 92, 98
1, 224876, Note_on_c, 0, 97, 115
1, 224909, Note_on_c, 0, 85, 0
1, 224909, Control_c, 0, 64, 127
1, 224909, Control_c, 0, 64, 127
1, 224912, Note_on_c, 0, 89, 0
1, 224912, Note_on_c, 0, 92, 0
1, 224912, Note_on_c, 0, 97, 0
1, 224963, Note_on_c, 0, 85, 87
1, 224963, Note_on_c, 0, 89, 87
1, 224963, Note_on_c, 0, 92, 87
1, 224966, Note_on_c, 0, 97, 103
1, 224999, Note_on_c, 0, 92, 0
1, 224999, Note_on_c, 0, 85, 0
1, 224999, Note_on_c, 0, 89, 0
1, 225002, Note_on_c, 0, 97, 0
1, 225006, Control_c, 0, 64, 127
1, 225006, Control_c, 0, 64, 127
1, 225053, Note_on_c, 0, 25, 99
1, 225053, Note_on_c, 0, 37, 107
1, 225089, Note_on_c, 0, 37, 0
1, 225089, Note_on_c, 0, 25, 0
1, 225143, Note_on_c, 0, 25, 82
1, 225143, Note_on_c, 0, 37, 90
1, 225178, Note_on_c, 0, 37, 0
1, 225178, Note_on_c, 0, 25, 0
1, 225194, Control_c, 0, 64, 0
1, 225194, Control_c, 0, 64, 0
1, 225233, Control_c, 0, 64, 0
1, 225233, Note_on_c, 0, 90, 104
1, 225233, Note_on_c, 0, 102, 118
1, 225236, Control_c, 0, 64, 0
1, 225236, Control_c, 0, 64, 0
1, 225271, Control_c, 0, 64, 127
1, 225271, Control_c, 0, 64, 127
1, 225282, Note_on_c, 0, 102, 0
1, 225282, Note_on_c, 0, 90, 0
1, 225357, Note_on_c, 0, 90, 93
1, 225357, Note_on_c, 0, 102, 107
1, 225398, Note_on_c, 0, 102, 0
1, 225398, Note_on_c, 0, 90, 0
1, 225459, Note_on_c, 0, 66, 93
1, 225459, Note_on_c, 0, 78, 102
1, 225497, Note_on_c, 0, 78, 0
1, 225497, Note_on_c, 0, 66, 0
1, 225553, Note_on_c, 0, 66, 78
1, 225553, Note_on_c, 0, 78, 87
1, 225590, Note_on_c, 0, 78, 0
1, 225590, Note_on_c, 0, 66, 0
1, 225647, Note_on_c, 0, 78, 101
1, 225647, Note_on_c, 0, 90, 115
1, 225684, Note_on_c, 0, 90, 0
1, 225684, Note_on_c, 0, 78, 0
1, 225740, Note_on_c, 0, 78, 89
1, 225740, Note_on_c, 0, 90, 103
1, 225778, Note_on_c, 0, 90, 0
1, 225778, Note_on_c, 0, 78, 0
1, 225834, Note_on_c, 0, 54, 99
1, 225834, Note_on_c, 0, 66, 108
1, 225871, Note_on_c, 0, 66, 0
1, 225871, Note_on_c, 0, 54, 0
1, 225927, Note_on_c, 0, 54, 81
1, 225927, Note_on_c, 0, 66, 90
1, 225965, Note_on_c, 0, 66, 0
1, 225965, Note_on_c, 0, 54, 0
1, 226021, Control_c, 0, 64, 127
1, 226021, Control_c, 0, 64, 127
1, 226021, Note_on_c, 0, 66, 98
1, 226024, Note_on_c, 0, 78, 110
1, 226024, Control_c, 0, 64, 127
1, 226024, Control_c, 0, 64, 127
1, 226027, Control_c, 0, 64, 0
1, 226062, Note_on_c, 0, 78, 0
1, 226062, Note_on_c, 0, 66, 0
1, 226123, Note_on_c, 0, 66, 86
1, 226123, Note_on_c, 0, 78, 98
1, 226164, Note_on_c, 0, 78, 0
1, 226164, Note_on_c, 0, 66, 0
1, 226225, Note_on_c, 0, 46, 97
1, 226225, Note_on_c, 0, 58, 106
1, 226275, Note_on_c, 0, 58, 0
1, 226275, Note_on_c, 0, 46, 0
1, 226350, Note_on_c, 0, 46, 86
1, 226350, Note_on_c, 0, 58, 95
1, 226537, Note_on_c, 0, 30, 118
1, 226987, Control_c, 0, 64, 127
1, 226987, Control_c, 0, 64, 127
1, 228110, Note_on_c, 0, 30, 0
1, 228110, Control_c, 0, 64, 0
1, 228110, Note_on_c, 0, 73, 90
1, 228113, Note_on_c, 0, 77, 90
1, 228113, Note_on_c, 0, 80, 90
1, 228113, Note_on_c, 0, 85, 115
1, 228116, Note_on_c, 0, 58, 0
1, 228116, Note_on_c, 0, 46, 0
1, 228116, Control_c, 0, 64, 0
1, 228119, Note_on_c, 0, 49, 94
1, 228119, Note_on_c, 0, 53, 94
1, 228119, Note_on_c, 0, 56, 94
1, 228122, Note_on_c, 0, 61, 106
1, 228210, Note_on_c, 0, 80, 0
1, 228210, Note_on_c, 0, 77, 0
1, 228210, Note_on_c, 0, 73, 0
1, 228213, Note_on_c, 0, 85, 0
1, 228213, Note_on_c, 0, 49, 0
1, 228213, Note_on_c, 0, 53, 0
1, 228216, Note_on_c, 0, 61, 0
1, 228216, Note_on_c, 0, 56, 0
1, 228359, Note_on_c, 0, 78, 97
1, 228359, Note_on_c, 0, 90, 114
1, 228359, Note_on_c, 0, 54, 94
1, 228362, Note_on_c, 0, 57, 94
1, 228362, Note_on_c, 0, 61, 94
1, 228362, Note_on_c, 0, 66, 106
1, 228424, Control_c, 0, 64, 127
1, 228424, Control_c, 0, 64, 127
1, 228428, Note_on_c, 0, 90, 0
1, 228428, Note_on_c, 0, 78, 0
1, 228428, Note_on_c, 0, 85, 102
1, 228495, Note_on_c, 0, 85, 0
1, 228495, Note_on_c, 0, 81, 100
1, 228564, Note_on_c, 0, 81, 0
1, 228564, Note_on_c, 0, 54, 0
1, 228564, Note_on_c, 0, 78, 96
1, 228567, Note_on_c, 0, 57, 0
1, 228567, Note_on_c, 0, 66, 0
1, 228567, Note_on_c, 0, 61, 0
1, 228570, Note_on_c, 0, 37, 83
1, 228632, Note_on_c, 0, 78, 0
1, 228632, Note_on_c, 0, 73, 93
1, 228645, Note_on_c, 0, 37, 0
1, 228700, Note_on_c, 0, 73, 0
1, 228700, Note_on_c, 0, 69, 90
1, 228768, Note_on_c, 0, 69, 0
1, 228768, Note_on_c, 0, 73, 94
1, 228768, Note_on_c, 0, 42, 83
1, 228809, Control_c, 0, 64, 0
1, 228809, Control_c, 0, 64, 0
1, 228836, Note_on_c, 0, 66, 66
1, 228850, Note_on_c, 0, 42, 0
1, 228861, Control_c, 0, 64, 127
1, 228861, Control_c, 0, 64, 127
1, 228904, Note_on_c, 0, 66, 0
1, 228904, Note_on_c, 0, 61, 66
1, 228916, Note_on_c, 0, 73, 0
1, 228972, Note_on_c, 0, 61, 0
1, 228972, Note_on_c, 0, 71, 94
1, 229011, Control_c, 0, 64, 0
1, 229011, Control_c, 0, 64, 0
1, 229040, Note_on_c, 0, 66, 66
1, 229077, Control_c, 0, 64, 127
1, 229077, Control_c, 0, 64, 127
1, 229108, Note_on_c, 0, 66, 0
1, 229108, Note_on_c, 0, 62, 66
1, 229120, Note_on_c, 0, 71, 0
1, 229176, Note_on_c, 0, 62, 0
1, 229176, Note_on_c, 0, 66, 70
1, 229176, Note_on_c, 0, 30, 71
1, 229244, Note_on_c, 0, 66, 0
1, 229244, Note_on_c, 0, 62, 70
1, 229258, Note_on_c, 0, 30, 0
1, 229312, Note_on_c, 0, 62, 0
1, 229312, Note_on_c, 0, 66, 70
1, 229380, Note_on_c, 0, 66, 0
1, 229380, Control_c, 0, 64, 0
1, 229380, Note_on_c, 0, 69, 82
1, 229383, Control_c, 0, 64, 0
1, 229383, Note_on_c, 0, 35, 71
1, 229447, Control_c, 0, 64, 127
1, 229447, Note_on_c, 0, 66, 70
1, 229447, Control_c, 0, 64, 127
1, 229462, Note_on_c, 0, 35, 0
1, 229516, Note_on_c, 0, 66, 0
1, 229516, Note_on_c, 0, 62, 70
1, 229528, Note_on_c, 0, 69, 0
1, 229563, Control_c, 0, 64, 0
1, 229563, Control_c, 0, 64, 0
1, 229585, Note_on_c, 0, 62, 0
1, 229585, Note_on_c, 0, 68, 82
1, 229650, Control_c, 0, 64, 127
1, 229650, Control_c, 0, 64, 127
1, 229653, Note_on_c, 0, 68, 0
1, 229653, Note_on_c, 0, 65, 70
1, 229721, Note_on_c, 0, 65, 0
1, 229721, Note_on_c, 0, 59, 70
1, 229789, Note_on_c, 0, 59, 0
1, 229789, Note_on_c, 0, 65, 70
1, 229789, Note_on_c, 0, 37, 71
1, 229857, Note_on_c, 0, 65, 0
1, 229857, Note_on_c, 0, 59, 70
1, 229871, Note_on_c, 0, 37, 0
1, 229925, Note_on_c, 0, 59, 0
1, 229925, Note_on_c, 0, 65, 70
1, 229993, Note_on_c, 0, 65, 0
1, 229993, Note_on_c, 0, 69, 82
1, 229993, Note_on_c, 0, 49, 71
1, 230035, Control_c, 0, 64, 0
1, 230035, Control_c, 0, 64, 0
1, 230061, Note_on_c, 0, 65, 70
1, 230075, Note_on_c, 0, 49, 0
1, 230086, Control_c, 0, 64, 127
1, 230086, Control_c, 0, 64, 127
1, 230129, Note_on_c, 0, 65, 0
1, 230129, Note_on_c, 0, 59, 70
1, 230141, Note_on_c, 0, 69, 0
1, 230197, Note_on_c, 0, 59, 0
1, 230197, Note_on_c, 0, 65, 82
1, 230236, Control_c, 0, 64, 0
1, 230236, Control_c, 0, 64, 0
1, 230266, Note_on_c, 0, 61, 70
1, 230302, Control_c, 0, 64, 127
1, 230302, Control_c, 0, 64, 127
1, 230333, Note_on_c, 0, 61, 0
1, 230333, Note_on_c, 0, 59, 70
1, 230345, Note_on_c, 0, 65, 0
1, 230402, Note_on_c, 0, 59, 0
1, 230402, Note_on_c, 0, 65, 58
1, 230402, Note_on_c, 0, 42, 71
1, 230470, Note_on_c, 0, 65, 0
1, 230470, Note_on_c, 0, 61, 70
1, 230483, Note_on_c, 0, 42, 0
1, 230538, Note_on_c, 0, 61, 0
1, 230538, Note_on_c, 0, 59, 70
1, 230606, Note_on_c, 0, 59, 0
1, 230606, Control_c, 0, 64, 0
1, 230606, Note_on_c, 0, 61, 94
1, 230609, Note_on_c, 0, 66, 106
1, 230609, Control_c, 0, 64, 0
1, 230609, Note_on_c, 0, 54, 94
1, 230612, Note_on_c, 0, 57, 106
1, 230673, Control_c, 0, 64, 0
1, 230673, Control_c, 0, 64, 0
1, 230706, Note_on_c, 0, 54, 0
1, 230706, Note_on_c, 0, 61, 0
1, 230706, Note_on_c, 0, 66, 0
1, 230709, Note_on_c, 0, 57, 0
1, 230774, Note_on_c, 0, 49, 94
1, 230815, Note_on_c, 0, 56, 94
1, 230855, Note_on_c, 0, 73, 92
1, 230855, Note_on_c, 0, 85, 111
1, 230855, Note_on_c, 0, 64, 94
1, 230935, Control_c, 0, 64, 127
1, 230935, Control_c, 0, 64, 127
1, 230939, Note_on_c, 0, 85, 0
1, 230939, Note_on_c, 0, 73, 0
1, 230939, Note_on_c, 0, 80, 102
1, 231022, Note_on_c, 0, 80, 0
1, 231022, Note_on_c, 0, 76, 100
1, 231090, Note_on_c, 0, 76, 0
1, 231090, Note_on_c, 0, 49, 0
1, 231090, Note_on_c, 0, 73, 96
1, 231093, Note_on_c, 0, 56, 0
1, 231093, Note_on_c, 0, 64, 0
1, 231093, Note_on_c, 0, 32, 92
1, 231158, Note_on_c, 0, 73, 0
1, 231158, Note_on_c, 0, 68, 93
1, 231172, Note_on_c, 0, 32, 0
1, 231226, Note_on_c, 0, 68, 0
1, 231226, Note_on_c, 0, 64, 90
1, 231294, Note_on_c, 0, 64, 0
1, 231294, Note_on_c, 0, 73, 94
1, 231294, Note_on_c, 0, 37, 92
1, 231335, Control_c, 0, 64, 0
1, 231335, Control_c, 0, 64, 0
1, 231362, Note_on_c, 0, 68, 75
1, 231376, Note_on_c, 0, 37, 0
1, 231387, Control_c, 0, 64, 127
1, 231387, Control_c, 0, 64, 127
1, 231430, Note_on_c, 0, 68, 0
1, 231430, Note_on_c, 0, 64, 75
1, 231442, Note_on_c, 0, 73, 0
1, 231498, Note_on_c, 0, 64, 0
1, 231498, Note_on_c, 0, 68, 94
1, 231537, Control_c, 0, 64, 0
1, 231537, Control_c, 0, 64, 0
1, 231566, Note_on_c, 0, 61, 75
1, 231603, Control_c, 0, 64, 127
1, 231603, Control_c, 0, 64, 127
1, 231634, Note_on_c, 0, 61, 0
1, 231634, Note_on_c, 0, 56, 75
1, 231646, Note_on_c, 0, 68, 0
1, 231702, Note_on_c, 0, 56, 0
1, 231702, Note_on_c, 0, 61, 79
1, 231702, Note_on_c, 0, 28, 80
1, 231771, Note_on_c, 0, 61, 0
1, 231771, Note_on_c, 0, 56, 79
1, 231784, Note_on_c, 0, 28, 0
1, 231838, Note_on_c, 0, 56, 0
1, 231838, Note_on_c, 0, 61, 79
1, 231907, Note_on_c, 0, 61, 0
1, 231907, Control_c, 0, 64, 0
1, 231907, Note_on_c, 0, 64, 91
1, 231910, Control_c, 0, 64, 0
1, 231910, Note_on_c, 0, 33, 80
1, 231973, Control_c, 0, 64, 127
1, 231973, Note_on_c, 0, 61, 79
1, 231973, Control_c, 0, 64, 127
1, 231988, Note_on_c, 0, 33, 0
1, 232043, Note_on_c, 0, 61, 0
1, 232043, Note_on_c, 0, 57, 79
1, 232055, Note_on_c, 0, 64, 0
1, 232089, Control_c, 0, 64, 0
1, 232089, Control_c, 0, 64, 0
1, 232111, Note_on_c, 0, 57, 0
1, 232111, Note_on_c, 0, 63, 91
1, 232176, Control_c, 0, 64, 127
1, 232176, Control_c, 0, 64, 127
1, 232179, Note_on_c, 0, 63, 0
1, 232179, Note_on_c, 0, 61, 79
1, 232247, Note_on_c, 0, 61, 0
1, 232247, Note_on_c, 0, 57, 79
1, 232315, Note_on_c, 0, 57, 0
1, 232315, Note_on_c, 0, 61, 79
1, 232315, Note_on_c, 0, 27, 80
1, 232383, Note_on_c, 0, 61, 0
1, 232383, Note_on_c, 0, 57, 79
1, 232397, Note_on_c, 0, 27, 0
1, 232451, Note_on_c, 0, 57, 0
1, 232451, Note_on_c, 0, 61, 79
1, 232519, Note_on_c, 0, 61, 0
1, 232519, Note_on_c, 0, 64, 91
1, 232519, Note_on_c, 0, 32, 80
1, 232561, Control_c, 0, 64, 0
1, 232561, Control_c, 0, 64, 0
1, 232588, Note_on_c, 0, 61, 79
1, 232601, Note_on_c, 0, 32, 0
1, 232612, Control_c, 0, 64, 127
1, 232612, Control_c, 0, 64, 127
1, 232655, Note_on_c, 0, 61, 0
1, 232655, Note_on_c, 0, 57, 79
1, 232667, Note_on_c, 0, 64, 0
1, 232724, Note_on_c, 0, 57, 0
1, 232724, Note_on_c, 0, 60, 91
1, 232762, Control_c, 0, 64, 0
1, 232762, Control_c, 0, 64, 0
1, 232792, Note_on_c, 0, 56, 79
1, 232828, Control_c, 0, 64, 127
1, 232828, Control_c, 0, 64, 127
1, 232860, Note_on_c, 0, 56, 0
1, 232860, Note_on_c, 0, 54, 79
1, 232872, Note_on_c, 0, 60, 0
1, 232928, Note_on_c, 0, 54, 0
1, 232928, Note_on_c, 0, 60, 67
1, 232928, Note_on_c, 0, 37, 80
1, 232996, Note_on_c, 0, 60, 0
1, 232996, Note_on_c, 0, 56, 79
1, 233010, Note_on_c, 0, 37, 0
1, 233064, Note_on_c, 0, 56, 0
1, 233064, Note_on_c, 0, 54, 79
1, 233214, Note_on_c, 0, 54, 0
1, 233214, Control_c, 0, 64, 0
1, 233214, Note_on_c, 0, 73, 99
1, 233217, Note_on_c, 0, 77, 99
1, 233217, Note_on_c, 0, 80, 99
1, 233217, Note_on_c, 0, 85, 112
1, 233220, Control_c, 0, 64, 0
1, 233220, Note_on_c, 0, 49, 85
1, 233220, Note_on_c, 0, 53, 85
1, 233223, Note_on_c, 0, 56, 85
1, 233223, Note_on_c, 0, 61, 97
1, 233274, Control_c, 0, 64, 0
1, 233274, Control_c, 0, 64, 0
1, 233314, Note_on_c, 0, 80, 0
1, 233314, Note_on_c, 0, 73, 0
1, 233314, Note_on_c, 0, 77, 0
1, 233317, Note_on_c, 0, 85, 0
1, 233317, Note_on_c, 0, 49, 0
1, 233317, Note_on_c, 0, 53, 0
1, 233320, Note_on_c, 0, 61, 0
1, 233320, Note_on_c, 0, 56, 0
1, 233463, Note_on_c, 0, 78, 101
1, 233463, Note_on_c, 0, 90, 115
1, 233463, Note_on_c, 0, 54, 94
1, 233466, Note_on_c, 0, 57, 94
1, 233466, Note_on_c, 0, 61, 94
1, 233466, Note_on_c, 0, 66, 94
1, 233543, Control_c, 0, 64, 127
1, 233543, Control_c, 0, 64, 127
1, 233547, Note_on_c, 0, 90, 0
1, 233547, Note_on_c, 0, 78, 0
1, 233547, Note_on_c, 0, 85, 102
1, 233615, Note_on_c, 0, 85, 0
1, 233615, Note_on_c, 0, 81, 100
1, 233683, Note_on_c, 0, 81, 0
1, 233683, Note_on_c, 0, 54, 0
1, 233683, Note_on_c, 0, 78, 96
1, 233686, Note_on_c, 0, 57, 0
1, 233686, Note_on_c, 0, 66, 0
1, 233686, Note_on_c, 0, 61, 0
1, 233689, Note_on_c, 0, 37, 83
1, 233751, Note_on_c, 0, 78, 0
1, 233751, Note_on_c, 0, 73, 93
1, 233765, Note_on_c, 0, 37, 0
1, 233819, Note_on_c, 0, 73, 0
1, 233819, Note_on_c, 0, 69, 90
1, 233887, Note_on_c, 0, 69, 0
1, 233887, Note_on_c, 0, 73, 94
1, 233887, Note_on_c, 0, 42, 83
1, 233928, Control_c, 0, 64, 0
1, 233928, Control_c, 0, 64, 0
1, 233955, Note_on_c, 0, 66, 66
1, 233969, Note_on_c, 0, 42, 0
1, 233980, Control_c, 0, 64, 127
1, 233980, Control_c, 0, 64, 127
1, 234023, Note_on_c, 0, 66, 0
1, 234023, Note_on_c, 0, 61, 66
1, 234035, Note_on_c, 0, 73, 0
1, 234091, Note_on_c, 0, 61, 0
1, 234091, Note_on_c, 0, 71, 94
1, 234130, Control_c, 0, 64, 0
1, 234130, Control_c, 0, 64, 0
1, 234159, Note_on_c, 0, 66, 66
1, 234196, Control_c, 0, 64, 127
1, 234196, Control_c, 0, 64, 127
1, 234227, Note_on_c, 0, 66, 0
1, 234227, Note_on_c, 0, 62, 66
1, 234239, Note_on_c, 0, 71, 0
1, 234295, Note_on_c, 0, 62, 0
1, 234295, Note_on_c, 0, 66, 70
1, 234295, Note_on_c, 0, 30, 71
1, 234364, Note_on_c, 0, 66, 0
1, 234364, Note_on_c, 0, 62, 70
1, 234377, Note_on_c, 0, 30, 0
1, 234431, Note_on_c, 0, 62, 0
1, 234431, Note_on_c, 0, 66, 70
1, 234500, Note_on_c, 0, 66, 0
1, 234500, Control_c, 0, 64, 0
1, 234500, Note_on_c, 0, 69, 82
1, 234503, Control_c, 0, 64, 0
1, 234503, Note_on_c, 0, 35, 71
1, 234566, Control_c, 0, 64, 127
1, 234566, Note_on_c, 0, 66, 70
1, 234566, Control_c, 0, 64, 127
1, 234581, Note_on_c, 0, 35, 0
1, 234636, Note_on_c, 0, 66, 0
1, 234636, Note_on_c, 0, 62, 70
1, 234648, Note_on_c, 0, 69, 0
1, 234682, Control_c, 0, 64, 0
1, 234682, Control_c, 0, 64, 0
1, 234704, Note_on_c, 0, 62, 0
1, 234704, Note_on_c, 0, 68, 82
1, 234769, Control_c, 0, 64, 127
1, 234769, Control_c, 0, 64, 127
1, 234772, Note_on_c, 0, 68, 0
1, 234772, Note_on_c, 0, 65, 70
1, 234840, Note_on_c, 0, 65, 0
1, 234840, Note_on_c, 0, 59, 70
1, 234908, Note_on_c, 0, 59, 0
1, 234908, Note_on_c, 0, 65, 70
1, 234908, Note_on_c, 0, 37, 71
1, 234976, Note_on_c, 0, 65, 0
1, 234976, Note_on_c, 0, 59, 70
1, 234990, Note_on_c, 0, 37, 0
1, 235044, Note_on_c, 0, 59, 0
1, 235044, Note_on_c, 0, 65, 70
1, 235112, Note_on_c, 0, 65, 0
1, 235112, Note_on_c, 0, 69, 82
1, 235112, Note_on_c, 0, 49, 71
1, 235154, Control_c, 0, 64, 0
1, 235154, Control_c, 0, 64, 0
1, 235181, Note_on_c, 0, 65, 70
1, 235194, Note_on_c, 0, 49, 0
1, 235205, Control_c, 0, 64, 127
1, 235205, Control_c, 0, 64, 127
1, 235248, Note_on_c, 0, 65, 0
1, 235248, Note_on_c, 0, 59, 70
1, 235260, Note_on_c, 0, 69, 0
1, 235317, Note_on_c, 0, 59, 0
1, 235317, Note_on_c, 0, 65, 82
1, 235355, Control_c, 0, 64, 0
1, 235355, Control_c, 0, 64, 0
1, 235385, Note_on_c, 0, 61, 70
1, 235421, Control_c, 0, 64, 127
1, 235421, Control_c, 0, 64, 127
1, 235453, Note_on_c, 0, 61, 0
1, 235453, Note_on_c, 0, 59, 70
1, 235465, Note_on_c, 0, 65, 0
1, 235521, Note_on_c, 0, 59, 0
1, 235521, Note_on_c, 0, 65, 58
1, 235521, Note_on_c, 0, 42, 71
1, 235589, Note_on_c, 0, 65, 0
1, 235589, Note_on_c, 0, 61, 70
1, 235603, Note_on_c, 0, 42, 0
1, 235657, Note_on_c, 0, 61, 0
1, 235657, Note_on_c, 0, 59, 70
1, 235725, Note_on_c, 0, 59, 0
1, 235725, Control_c, 0, 64, 0
1, 235725, Note_on_c, 0, 61, 94
1, 235728, Note_on_c, 0, 66, 106
1, 235728, Control_c, 0, 64, 0
1, 235728, Note_on_c, 0, 54, 94
1, 235731, Note_on_c, 0, 57, 106
1, 235780, Control_c, 0, 64, 0
1, 235780, Control_c, 0, 64, 0
1, 235807, Note_on_c, 0, 54, 0
1, 235807, Note_on_c, 0, 61, 0
1, 235807, Note_on_c, 0, 66, 0
1, 235810, Note_on_c, 0, 57, 0
1, 235863, Note_on_c, 0, 49, 94
1, 235896, Note_on_c, 0, 56, 94
1, 235929, Note_on_c, 0, 73, 92
1, 235929, Note_on_c, 0, 85, 106
1, 235929, Note_on_c, 0, 64, 94
1, 235994, Control_c, 0, 64, 127
1, 235994, Control_c, 0, 64, 127
1, 235997, Note_on_c, 0, 85, 0
1, 235997, Note_on_c, 0, 73, 0
1, 235997, Note_on_c, 0, 80, 102
1, 236065, Note_on_c, 0, 80, 0
1, 236065, Note_on_c, 0, 76, 100
1, 236133, Note_on_c, 0, 76, 0
1, 236133, Note_on_c, 0, 49, 0
1, 236133, Note_on_c, 0, 73, 96
1, 236136, Note_on_c, 0, 56, 0
1, 236136, Note_on_c, 0, 64, 0
1, 236136, Note_on_c, 0, 32, 92
1, 236202, Note_on_c, 0, 73, 0
1, 236202, Note_on_c, 0, 68, 93
1, 236215, Note_on_c, 0, 32, 0
1, 236269, Note_on_c, 0, 68, 0
1, 236269, Note_on_c, 0, 64, 90
1, 236338, Note_on_c, 0, 64, 0
1, 236338, Note_on_c, 0, 73, 94
1, 236338, Note_on_c, 0, 37, 92
1, 236391, Control_c, 0, 64, 0
1, 236391, Control_c, 0, 64, 0
1, 236426, Note_on_c, 0, 68, 75
1, 236443, Note_on_c, 0, 37, 0
1, 236458, Control_c, 0, 64, 127
1, 236458, Control_c, 0, 64, 127
1, 236514, Note_on_c, 0, 68, 0
1, 236514, Note_on_c, 0, 64, 75
1, 236529, Note_on_c, 0, 73, 0
1, 236602, Note_on_c, 0, 64, 0
1, 236602, Note_on_c, 0, 68, 94
1, 236641, Control_c, 0, 64, 0
1, 236641, Control_c, 0, 64, 0
1, 236670, Note_on_c, 0, 61, 75
1, 236707, Control_c, 0, 64, 127
1, 236707, Control_c, 0, 64, 127
1, 236738, Note_on_c, 0, 61, 0
1, 236738, Note_on_c, 0, 56, 75
1, 236750, Note_on_c, 0, 68, 0
1, 236806, Note_on_c, 0, 56, 0
1, 236806, Note_on_c, 0, 61, 79
1, 236806, Note_on_c, 0, 28, 80
1, 236874, Note_on_c, 0, 61, 0
1, 236874, Note_on_c, 0, 56, 79
1, 236888, Note_on_c, 0, 28, 0
1, 236942, Note_on_c, 0, 56, 0
1, 236942, Note_on_c, 0, 61, 79
1, 237010, Note_on_c, 0, 61, 0
1, 237010, Control_c, 0, 64, 0
1, 237010, Note_on_c, 0, 64, 91
1, 237013, Control_c, 0, 64, 0
1, 237013, Note_on_c, 0, 33, 80
1, 237077, Control_c, 0, 64, 127
1, 237077, Note_on_c, 0, 61, 79
1, 237077, Control_c, 0, 64, 127
1, 237092, Note_on_c, 0, 33, 0
1, 237146, Note_on_c, 0, 61, 0
1, 237146, Note_on_c, 0, 57, 79
1, 237158, Note_on_c, 0, 64, 0
1, 237193, Control_c, 0, 64, 0
1, 237193, Control_c, 0, 64, 0
1, 237215, Note_on_c, 0, 57, 0
1, 237215, Note_on_c, 0, 63, 91
1, 237280, Control_c, 0, 64, 127
1, 237280, Control_c, 0, 64, 127
1, 237283, Note_on_c, 0, 63, 0
1, 237283, Note_on_c, 0, 61, 70
1, 237351, Note_on_c, 0, 61, 0
1, 237351, Note_on_c, 0, 57, 70
1, 237419, Note_on_c, 0, 57, 0
1, 237419, Note_on_c, 0, 61, 70
1, 237419, Note_on_c, 0, 27, 80
1, 237487, Note_on_c, 0, 61, 0
1, 237487, Note_on_c, 0, 57, 70
1, 237501, Note_on_c, 0, 27, 0
1, 237555, Note_on_c, 0, 57, 0
1, 237555, Note_on_c, 0, 61, 70
1, 237623, Note_on_c, 0, 61, 0
1, 237623, Note_on_c, 0, 64, 91
1, 237623, Note_on_c, 0, 32, 80
1, 237664, Control_c, 0, 64, 0
1, 237664, Control_c, 0, 64, 0
1, 237691, Note_on_c, 0, 61, 70
1, 237705, Note_on_c, 0, 32, 0
1, 237716, Control_c, 0, 64, 127
1, 237716, Control_c, 0, 64, 127
1, 237759, Note_on_c, 0, 61, 0
1, 237759, Note_on_c, 0, 57, 70
1, 237771, Note_on_c, 0, 64, 0
1, 237827, Note_on_c, 0, 57, 0
1, 237827, Note_on_c, 0, 60, 91
1, 237866, Control_c, 0, 64, 0
1, 237866, Control_c, 0, 64, 0
1, 237895, Note_on_c, 0, 56, 70
1, 237932, Control_c, 0, 64, 127
1, 237932, Control_c, 0, 64, 127
1, 237963, Note_on_c, 0, 56, 0
1, 237963, Note_on_c, 0, 54, 70
1, 237975, Note_on_c, 0, 60, 0
1, 238031, Note_on_c, 0, 54, 0
1, 238031, Note_on_c, 0, 56, 58
1, 238031, Note_on_c, 0, 37, 80
1, 238115, Note_on_c, 0, 56, 0
1, 238115, Note_on_c, 0, 54, 70
1, 238131, Note_on_c, 0, 37, 0
1, 238198, Note_on_c, 0, 54, 0
1, 238198, Note_on_c, 0, 56, 70
1, 238348, Note_on_c, 0, 56, 0
1, 238348, Control_c, 0, 64, 0
1, 238348, Note_on_c, 0, 73, 73
1, 238351, Control_c, 0, 64, 0
1, 238351, Note_on_c, 0, 53, 60
1, 238429, Note_on_c, 0, 53, 0
1, 238429, Control_c, 0, 64, 127
1, 238429, Note_on_c, 0, 68, 69
1, 238429, Control_c, 0, 64, 127
1, 238429, Note_on_c, 0, 56, 60
1, 238514, Note_on_c, 0, 56, 0
1, 238514, Note_on_c, 0, 68, 0
1, 238514, Note_on_c, 0, 65, 69
1, 238517, Note_on_c, 0, 61, 60
1, 238529, Note_on_c, 0, 73, 0
1, 238571, Control_c, 0, 64, 0
1, 238571, Control_c, 0, 64, 0
1, 238597, Note_on_c, 0, 61, 0
1, 238597, Note_on_c, 0, 65, 0
1, 238597, Note_on_c, 0, 77, 74
1, 238600, Note_on_c, 0, 46, 70
1, 238639, Control_c, 0, 64, 127
1, 238639, Control_c, 0, 64, 127
1, 238666, Note_on_c, 0, 70, 60
1, 238666, Note_on_c, 0, 58, 57
1, 238733, Note_on_c, 0, 58, 0
1, 238733, Note_on_c, 0, 70, 0
1, 238733, Note_on_c, 0, 65, 60
1, 238736, Note_on_c, 0, 61, 57
1, 238745, Note_on_c, 0, 46, 0
1, 238745, Note_on_c, 0, 77, 0
1, 238802, Note_on_c, 0, 65, 0
1, 238802, Note_on_c, 0, 61, 0
1, 238802, Note_on_c, 0, 70, 61
1, 238805, Note_on_c, 0, 58, 57
1, 238870, Note_on_c, 0, 58, 0
1, 238870, Note_on_c, 0, 70, 0
1, 238870, Note_on_c, 0, 65, 61
1, 238873, Note_on_c, 0, 61, 57
1, 238938, Note_on_c, 0, 61, 0
1, 238938, Note_on_c, 0, 65, 0
1, 238938, Note_on_c, 0, 70, 62
1, 238941, Note_on_c, 0, 58, 58
1, 239006, Note_on_c, 0, 58, 0
1, 239006, Note_on_c, 0, 70, 0
1, 239006, Note_on_c, 0, 73, 77
1, 239009, Note_on_c, 0, 49, 72
1, 239040, Control_c, 0, 64, 0
1, 239040, Control_c, 0, 64, 0
1, 239081, Note_on_c, 0, 68, 62
1, 239081, Note_on_c, 0, 56, 58
1, 239112, Control_c, 0, 64, 127
1, 239112, Control_c, 0, 64, 127
1, 239155, Note_on_c, 0, 56, 0
1, 239155, Note_on_c, 0, 68, 0
1, 239155, Note_on_c, 0, 65, 62
1, 239158, Note_on_c, 0, 61, 58
1, 239169, Note_on_c, 0, 49, 0
1, 239169, Note_on_c, 0, 73, 0
1, 239230, Note_on_c, 0, 65, 0
1, 239230, Note_on_c, 0, 61, 0
1, 239230, Note_on_c, 0, 77, 79
1, 239233, Note_on_c, 0, 46, 73
1, 239244, Control_c, 0, 64, 0
1, 239244, Control_c, 0, 64, 0
1, 239299, Note_on_c, 0, 70, 64
1, 239299, Note_on_c, 0, 58, 59
1, 239304, Control_c, 0, 64, 127
1, 239304, Control_c, 0, 64, 127
1, 239366, Note_on_c, 0, 58, 0
1, 239366, Note_on_c, 0, 70, 0
1, 239366, Note_on_c, 0, 65, 64
1, 239369, Note_on_c, 0, 61, 59
1, 239378, Note_on_c, 0, 46, 0
1, 239378, Note_on_c, 0, 77, 0
1, 239435, Note_on_c, 0, 65, 0
1, 239435, Note_on_c, 0, 61, 0
1, 239435, Note_on_c, 0, 70, 64
1, 239438, Note_on_c, 0, 58, 60
1, 239503, Note_on_c, 0, 58, 0
1, 239503, Note_on_c, 0, 70, 0
1, 239503, Note_on_c, 0, 65, 64
1, 239506, Note_on_c, 0, 61, 60
1, 239571, Note_on_c, 0, 61, 0
1, 239571, Note_on_c, 0, 65, 0
1, 239571, Note_on_c, 0, 70, 65
1, 239574, Note_on_c, 0, 58, 60
1, 239639, Note_on_c, 0, 58, 0
1, 239639, Note_on_c, 0, 70, 0
1, 239639, Note_on_c, 0, 73, 82
1, 239642, Note_on_c, 0, 46, 75
1, 239681, Control_c, 0, 64, 0
1, 239681, Control_c, 0, 64, 0
1, 239722, Note_on_c, 0, 70, 66
1, 239722, Note_on_c, 0, 58, 61
1, 239750, Control_c, 0, 64, 127
1, 239750, Control_c, 0, 64, 127
1, 239805, Note_on_c, 0, 58, 0
1, 239805, Note_on_c, 0, 70, 0
1, 239805, Note_on_c, 0, 65, 66
1, 239808, Note_on_c, 0, 61, 61
1, 239820, Note_on_c, 0, 46, 0
1, 239820, Note_on_c, 0, 73, 0
1, 239861, Control_c, 0, 64, 0
1, 239861, Control_c, 0, 64, 0
1, 239888, Note_on_c, 0, 65, 0
1, 239888, Note_on_c, 0, 61, 0
1, 239888, Note_on_c, 0, 77, 84
1, 239891, Note_on_c, 0, 45, 76
1, 239930, Control_c, 0, 64, 127
1, 239930, Control_c, 0, 64, 127
1, 239957, Note_on_c, 0, 72, 67
1, 239957, Note_on_c, 0, 57, 63
1, 240024, Note_on_c, 0, 57, 0
1, 240024, Note_on_c, 0, 72, 0
1, 240024, Note_on_c, 0, 65, 67
1, 240027, Note_on_c, 0, 60, 63
1, 240036, Note_on_c, 0, 45, 0
1, 240036, Note_on_c, 0, 77, 0
1, 240093, Note_on_c, 0, 65, 0
1, 240093, Note_on_c, 0, 60, 0
1, 240093, Note_on_c, 0, 72, 68
1, 240096, Note_on_c, 0, 57, 63
1, 240161, Note_on_c, 0, 57, 0
1, 240161, Note_on_c, 0, 72, 0
1, 240161, Note_on_c, 0, 65, 68
1, 240164, Note_on_c, 0, 60, 63
1, 240229, Note_on_c, 0, 60, 0
1, 240229, Note_on_c, 0, 65, 0
1, 240229, Note_on_c, 0, 72, 68
1, 240232, Note_on_c, 0, 57, 63
1, 240297, Note_on_c, 0, 57, 0
1, 240297, Note_on_c, 0, 72, 0
1, 240297, Note_on_c, 0, 73, 88
1, 240300, Note_on_c, 0, 46, 78
1, 240335, Control_c, 0, 64, 0
1, 240335, Control_c, 0, 64, 0
1, 240380, Note_on_c, 0, 70, 69
1, 240380, Note_on_c, 0, 58, 64
1, 240415, Control_c, 0, 64, 127
1, 240415, Control_c, 0, 64, 127
1, 240463, Note_on_c, 0, 58, 0
1, 240463, Note_on_c, 0, 70, 0
1, 240463, Note_on_c, 0, 65, 69
1, 240466, Note_on_c, 0, 61, 65
1, 240478, Note_on_c, 0, 46, 0
1, 240478, Note_on_c, 0, 73, 0
1, 240546, Note_on_c, 0, 65, 0
1, 240546, Note_on_c, 0, 61, 0
1, 240546, Note_on_c, 0, 77, 89
1, 240549, Note_on_c, 0, 45, 80
1, 240560, Control_c, 0, 64, 0
1, 240560, Control_c, 0, 64, 0
1, 240615, Note_on_c, 0, 72, 67
1, 240615, Note_on_c, 0, 57, 66
1, 240620, Control_c, 0, 64, 127
1, 240620, Control_c, 0, 64, 127
1, 240682, Note_on_c, 0, 57, 0
1, 240682, Note_on_c, 0, 72, 0
1, 240682, Note_on_c, 0, 65, 68
1, 240685, Note_on_c, 0, 60, 66
1, 240694, Note_on_c, 0, 45, 0
1, 240694, Note_on_c, 0, 77, 0
1, 240751, Note_on_c, 0, 65, 0
1, 240751, Note_on_c, 0, 60, 0
1, 240751, Note_on_c, 0, 72, 71
1, 240754, Note_on_c, 0, 57, 66
1, 240819, Note_on_c, 0, 57, 0
1, 240819, Note_on_c, 0, 72, 0
1, 240819, Note_on_c, 0, 65, 73
1, 240822, Note_on_c, 0, 60, 66
1, 240887, Note_on_c, 0, 60, 0
1, 240887, Note_on_c, 0, 65, 0
1, 240887, Note_on_c, 0, 72, 75
1, 240890, Note_on_c, 0, 57, 67
1, 240955, Note_on_c, 0, 57, 0
1, 240955, Note_on_c, 0, 72, 0
1, 240955, Note_on_c, 0, 72, 93
1, 240958, Note_on_c, 0, 45, 82
1, 240997, Control_c, 0, 64, 0
1, 240997, Control_c, 0, 64, 0
1, 241038, Note_on_c, 0, 69, 79
1, 241038, Note_on_c, 0, 57, 67
1, 241066, Control_c, 0, 64, 127
1, 241066, Control_c, 0, 64, 127
1, 241121, Note_on_c, 0, 57, 0
1, 241121, Note_on_c, 0, 69, 0
1, 241121, Note_on_c, 0, 65, 81
1, 241124, Note_on_c, 0, 60, 67
1, 241136, Note_on_c, 0, 45, 0
1, 241136, Note_on_c, 0, 72, 0
1, 241177, Control_c, 0, 64, 0
1, 241177, Control_c, 0, 64, 0
1, 241205, Note_on_c, 0, 65, 0
1, 241205, Note_on_c, 0, 60, 0
1, 241205, Note_on_c, 0, 77, 95
1, 241208, Note_on_c, 0, 43, 83
1, 241256, Control_c, 0, 64, 127
1, 241256, Control_c, 0, 64, 127
1, 241288, Note_on_c, 0, 71, 83
1, 241288, Note_on_c, 0, 55, 69
1, 241356, Note_on_c, 0, 55, 0
1, 241356, Note_on_c, 0, 71, 0
1, 241356, Note_on_c, 0, 65, 83
1, 241359, Note_on_c, 0, 62, 69
1, 241368, Note_on_c, 0, 43, 0
1, 241368, Note_on_c, 0, 77, 0
1, 241424, Note_on_c, 0, 65, 0
1, 241424, Note_on_c, 0, 62, 0
1, 241424, Note_on_c, 0, 71, 83
1, 241427, Note_on_c, 0, 55, 69
1, 241492, Note_on_c, 0, 55, 0
1, 241492, Note_on_c, 0, 71, 0
1, 241492, Note_on_c, 0, 65, 83
1, 241495, Note_on_c, 0, 62, 70
1, 241560, Note_on_c, 0, 62, 0
1, 241560, Note_on_c, 0, 65, 0
1, 241560, Note_on_c, 0, 71, 84
1, 241563, Note_on_c, 0, 55, 71
1, 241628, Note_on_c, 0, 55, 0
1, 241628, Note_on_c, 0, 71, 0
1, 241628, Note_on_c, 0, 74, 98
1, 241631, Note_on_c, 0, 43, 85
1, 241666, Control_c, 0, 64, 0
1, 241666, Control_c, 0, 64, 0
1, 241711, Note_on_c, 0, 71, 85
1, 241711, Note_on_c, 0, 55, 71
1, 241746, Control_c, 0, 64, 127
1, 241746, Control_c, 0, 64, 127
1, 241794, Note_on_c, 0, 55, 0
1, 241794, Note_on_c, 0, 71, 0
1, 241794, Note_on_c, 0, 65, 85
1, 241797, Note_on_c, 0, 59, 71
1, 241809, Note_on_c, 0, 43, 0
1, 241809, Note_on_c, 0, 74, 0
1, 241878, Note_on_c, 0, 65, 0
1, 241878, Note_on_c, 0, 59, 0
1, 241878, Note_on_c, 0, 79, 101
1, 241881, Note_on_c, 0, 41, 91
1, 241894, Control_c, 0, 64, 0
1, 241894, Control_c, 0, 64, 0
1, 241961, Note_on_c, 0, 71, 86
1, 241961, Note_on_c, 0, 55, 72
1, 241967, Control_c, 0, 64, 127
1, 241967, Control_c, 0, 64, 127
1, 242029, Note_on_c, 0, 55, 0
1, 242029, Note_on_c, 0, 71, 0
1, 242029, Note_on_c, 0, 67, 86
1, 242032, Note_on_c, 0, 59, 72
1, 242041, Note_on_c, 0, 41, 0
1, 242041, Note_on_c, 0, 79, 0
1, 242097, Note_on_c, 0, 67, 0
1, 242097, Note_on_c, 0, 59, 0
1, 242097, Note_on_c, 0, 71, 87
1, 242100, Note_on_c, 0, 55, 73
1, 242165, Note_on_c, 0, 55, 0
1, 242165, Note_on_c, 0, 71, 0
1, 242165, Note_on_c, 0, 67, 87
1, 242168, Note_on_c, 0, 59, 73
1, 242233, Note_on_c, 0, 59, 0
1, 242233, Note_on_c, 0, 67, 0
1, 242233, Note_on_c, 0, 71, 87
1, 242236, Note_on_c, 0, 55, 73
1, 242301, Note_on_c, 0, 55, 0
1, 242301, Note_on_c, 0, 71, 0
1, 242301, Note_on_c, 0, 74, 105
1, 242304, Note_on_c, 0, 41, 97
1, 242343, Control_c, 0, 64, 0
1, 242343, Control_c, 0, 64, 0
1, 242385, Note_on_c, 0, 71, 88
1, 242385, Note_on_c, 0, 55, 74
1, 242412, Control_c, 0, 64, 127
1, 242412, Control_c, 0, 64, 127
1, 242468, Note_on_c, 0, 55, 0
1, 242468, Note_on_c, 0, 71, 0
1, 242468, Note_on_c, 0, 67, 88
1, 242471, Note_on_c, 0, 59, 74
1, 242482, Note_on_c, 0, 41, 0
1, 242482, Note_on_c, 0, 74, 0
1, 242523, Control_c, 0, 64, 0
1, 242523, Control_c, 0, 64, 0
1, 242551, Note_on_c, 0, 67, 0
1, 242551, Note_on_c, 0, 59, 0
1, 242551, Note_on_c, 0, 83, 106
1, 242554, Note_on_c, 0, 38, 102
1, 242602, Control_c, 0, 64, 127
1, 242602, Control_c, 0, 64, 127
1, 242634, Note_on_c, 0, 77, 89
1, 242634, Note_on_c, 0, 55, 76
1, 242702, Note_on_c, 0, 55, 0
1, 242702, Note_on_c, 0, 77, 0
1, 242702, Note_on_c, 0, 71, 89
1, 242705, Note_on_c, 0, 59, 76
1, 242714, Note_on_c, 0, 38, 0
1, 242714, Note_on_c, 0, 83, 0
1, 242770, Note_on_c, 0, 71, 0
1, 242770, Note_on_c, 0, 59, 0
1, 242770, Note_on_c, 0, 77, 90
1, 242773, Note_on_c, 0, 55, 77
1, 242838, Note_on_c, 0, 55, 0
1, 242838, Note_on_c, 0, 77, 0
1, 242838, Note_on_c, 0, 71, 90
1, 242841, Note_on_c, 0, 59, 77
1, 242906, Note_on_c, 0, 59, 0
1, 242906, Note_on_c, 0, 71, 0
1, 242906, Note_on_c, 0, 77, 91
1, 242909, Note_on_c, 0, 55, 77
1, 242974, Note_on_c, 0, 55, 0
1, 242974, Note_on_c, 0, 77, 0
1, 242974, Note_on_c, 0, 79, 109
1, 242977, Note_on_c, 0, 38, 104
1, 243013, Control_c, 0, 64, 0
1, 243013, Control_c, 0, 64, 0
1, 243058, Note_on_c, 0, 77, 91
1, 243058, Note_on_c, 0, 55, 78
1, 243092, Control_c, 0, 64, 127
1, 243092, Control_c, 0, 64, 127
1, 243141, Note_on_c, 0, 55, 0
1, 243141, Note_on_c, 0, 77, 0
1, 243141, Note_on_c, 0, 71, 91
1, 243144, Note_on_c, 0, 59, 78
1, 243155, Note_on_c, 0, 38, 0
1, 243155, Note_on_c, 0, 79, 0
1, 243224, Note_on_c, 0, 71, 0
1, 243224, Note_on_c, 0, 59, 0
1, 243224, Note_on_c, 0, 86, 110
1, 243227, Note_on_c, 0, 35, 105
1, 243241, Control_c, 0, 64, 0
1, 243241, Control_c, 0, 64, 0
1, 243307, Note_on_c, 0, 77, 93
1, 243307, Note_on_c, 0, 50, 79
1, 243313, Control_c, 0, 64, 127
1, 243313, Control_c, 0, 64, 127
1, 243375, Note_on_c, 0, 50, 0
1, 243375, Note_on_c, 0, 77, 0
1, 243375, Note_on_c, 0, 74, 93
1, 243378, Note_on_c, 0, 55, 79
1, 243387, Note_on_c, 0, 35, 0
1, 243387, Note_on_c, 0, 86, 0
1, 243443, Note_on_c, 0, 74, 0
1, 243443, Note_on_c, 0, 55, 0
1, 243443, Note_on_c, 0, 77, 93
1, 243446, Note_on_c, 0, 50, 79
1, 243512, Note_on_c, 0, 50, 0
1, 243512, Note_on_c, 0, 77, 0
1, 243512, Note_on_c, 0, 74, 93
1, 243515, Note_on_c, 0, 55, 79
1, 243579, Note_on_c, 0, 55, 0
1, 243579, Note_on_c, 0, 74, 0
1, 243579, Note_on_c, 0, 77, 94
1, 243582, Note_on_c, 0, 50, 81
1, 243648, Note_on_c, 0, 50, 0
1, 243648, Note_on_c, 0, 77, 0
1, 243648, Note_on_c, 0, 79, 113
1, 243651, Note_on_c, 0, 31, 107
1, 243695, Control_c, 0, 64, 0
1, 243695, Control_c, 0, 64, 0
1, 243741, Note_on_c, 0, 77, 95
1, 243741, Note_on_c, 0, 50, 81
1, 243773, Control_c, 0, 64, 127
1, 243773, Control_c, 0, 64, 127
1, 243835, Note_on_c, 0, 50, 0
1, 243835, Note_on_c, 0, 77, 0
1, 243835, Note_on_c, 0, 74, 95
1, 243838, Note_on_c, 0, 55, 81
1, 243851, Note_on_c, 0, 31, 0
1, 243851, Note_on_c, 0, 79, 0
1, 243897, Control_c, 0, 64, 0
1, 243897, Control_c, 0, 64, 0
1, 243928, Note_on_c, 0, 74, 0
1, 243928, Note_on_c, 0, 55, 0
1, 243928, Note_on_c, 0, 89, 112
1, 243931, Note_on_c, 0, 31, 127
1, 243931, Note_on_c, 0, 43, 127
1, 244018, Control_c, 0, 64, 127
1, 244018, Control_c, 0, 64, 127
1, 244022, Note_on_c, 0, 89, 0
1, 244022, Note_on_c, 0, 83, 107
1, 244105, Note_on_c, 0, 83, 0
1, 244105, Note_on_c, 0, 77, 102
1, 244180, Note_on_c, 0, 77, 0
1, 244180, Note_on_c, 0, 83, 106
1, 244248, Note_on_c, 0, 83, 0
1, 244248, Note_on_c, 0, 77, 101
1, 244316, Note_on_c, 0, 77, 0
1, 244316, Note_on_c, 0, 71, 98
1, 244384, Note_on_c, 0, 71, 0
1, 244384, Note_on_c, 0, 77, 99
1, 244453, Note_on_c, 0, 77, 0
1, 244453, Note_on_c, 0, 71, 95
1, 244520, Note_on_c, 0, 71, 0
1, 244520, Note_on_c, 0, 65, 92
1, 244589, Note_on_c, 0, 65, 0
1, 244589, Note_on_c, 0, 74, 93
1, 244657, Note_on_c, 0, 74, 0
1, 244657, Note_on_c, 0, 71, 90
1, 244725, Note_on_c, 0, 71, 0
1, 244725, Note_on_c, 0, 65, 89
1, 244793, Note_on_c, 0, 65, 0
1, 244793, Note_on_c, 0, 71, 87
1, 244861, Note_on_c, 0, 71, 0
1, 244861, Note_on_c, 0, 65, 84
1, 244929, Note_on_c, 0, 65, 0
1, 244929, Note_on_c, 0, 62, 82
1, 244997, Note_on_c, 0, 62, 0
1, 244997, Note_on_c, 0, 65, 81
1, 245065, Note_on_c, 0, 65, 0
1, 245065, Note_on_c, 0, 62, 78
1, 245133, Note_on_c, 0, 62, 0
1, 245133, Note_on_c, 0, 59, 76
1, 245201, Note_on_c, 0, 59, 0
1, 245201, Note_on_c, 0, 31, 0
1, 245201, Note_on_c, 0, 62, 74
1, 245204, Note_on_c, 0, 43, 0
1, 245204, Note_on_c, 0, 24, 94
1, 245204, Note_on_c, 0, 36, 106
1, 245250, Control_c, 0, 64, 0
1, 245250, Control_c, 0, 64, 0
1, 245269, Note_on_c, 0, 62, 0
1, 245269, Note_on_c, 0, 59, 76
1, 245315, Control_c, 0, 64, 127
1, 245315, Control_c, 0, 64, 127
1, 245337, Note_on_c, 0, 59, 0
1, 245337, Note_on_c, 0, 53, 78
1, 245405, Note_on_c, 0, 53, 0
1, 245405, Note_on_c, 0, 62, 79
1, 245474, Note_on_c, 0, 62, 0
1, 245474, Note_on_c, 0, 59, 81
1, 245541, Note_on_c, 0, 59, 0
1, 245541, Note_on_c, 0, 53, 83
1, 245610, Note_on_c, 0, 53, 0
1, 245610, Note_on_c, 0, 62, 85
1, 245678, Note_on_c, 0, 62, 0
1, 245678, Note_on_c, 0, 59, 86
1, 245746, Note_on_c, 0, 59, 0
1, 245746, Note_on_c, 0, 53, 88
1, 245814, Note_on_c, 0, 53, 0
1, 245814, Note_on_c, 0, 62, 90
1, 245882, Note_on_c, 0, 62, 0
1, 245882, Note_on_c, 0, 59, 92
1, 245950, Note_on_c, 0, 59, 0
1, 245950, Note_on_c, 0, 53, 93
1, 246018, Note_on_c, 0, 53, 0
1, 246018, Note_on_c, 0, 62, 95
1, 246086, Note_on_c, 0, 62, 0
1, 246086, Note_on_c, 0, 59, 97
1, 246154, Note_on_c, 0, 59, 0
1, 246154, Note_on_c, 0, 53, 99
1, 246222, Note_on_c, 0, 53, 0
1, 246222, Note_on_c, 0, 62, 100
1, 246297, Note_on_c, 0, 62, 0
1, 246297, Note_on_c, 0, 59, 102
1, 246372, Note_on_c, 0, 59, 0
1, 246372, Note_on_c, 0, 53, 100
1, 246429, Control_c, 0, 64, 0
1, 246429, Control_c, 0, 64, 0
1, 246447, Note_on_c, 0, 53, 0
1, 246447, Note_on_c, 0, 24, 0
1, 246447, Note_on_c, 0, 62, 102
1, 246450, Note_on_c, 0, 36, 0
1, 246450, Note_on_c, 0, 25, 94
1, 246450, Note_on_c, 0, 37, 106
1, 246513, Control_c, 0, 64, 127
1, 246513, Control_c, 0, 64, 127
1, 246522, Note_on_c, 0, 62, 0
1, 246522, Note_on_c, 0, 59, 102
1, 246597, Note_on_c, 0, 59, 0
1, 246597, Note_on_c, 0, 53, 102
1, 246672, Note_on_c, 0, 53, 0
1, 246672, Note_on_c, 0, 62, 102
1, 246747, Note_on_c, 0, 62, 0
1, 246747, Note_on_c, 0, 59, 103
1, 246821, Note_on_c, 0, 59, 0
1, 246821, Note_on_c, 0, 53, 103
1, 246896, Note_on_c, 0, 53, 0
1, 246896, Note_on_c, 0, 25, 0
1, 246896, Note_on_c, 0, 61, 103
1, 246899, Note_on_c, 0, 37, 0
1, 246899, Note_on_c, 0, 37, 94
1, 246899, Note_on_c, 0, 49, 106
1, 246941, Control_c, 0, 64, 0
1, 246941, Control_c, 0, 64, 0
1, 246980, Note_on_c, 0, 61, 0
1, 246980, Note_on_c, 0, 59, 104
1, 246996, Note_on_c, 0, 49, 0
1, 246996, Note_on_c, 0, 37, 0
1, 247063, Note_on_c, 0, 59, 0
1, 247063, Note_on_c, 0, 53, 104
1, 247146, Note_on_c, 0, 53, 0
1, 247146, Note_on_c, 0, 61, 104
1, 247146, Note_on_c, 0, 44, 94
1, 247149, Note_on_c, 0, 56, 106
1, 247212, Control_c, 0, 64, 127
1, 247212, Control_c, 0, 64, 127
1, 247229, Note_on_c, 0, 61, 0
1, 247229, Note_on_c, 0, 59, 105
1, 247312, Note_on_c, 0, 59, 0
1, 247312, Note_on_c, 0, 53, 105
1, 247395, Note_on_c, 0, 53, 0
1, 247395, Note_on_c, 0, 44, 0
1, 247395, Note_on_c, 0, 61, 105
1, 247398, Note_on_c, 0, 56, 0
1, 247479, Note_on_c, 0, 61, 0
1, 247479, Note_on_c, 0, 59, 106
1, 247562, Note_on_c, 0, 59, 0
1, 247562, Note_on_c, 0, 53, 106
1, 247603, Control_c, 0, 64, 0
1, 247603, Control_c, 0, 64, 0
1, 247645, Note_on_c, 0, 53, 0
1, 247645, Note_on_c, 0, 73, 106
1, 247645, Note_on_c, 0, 77, 106
1, 247648, Note_on_c, 0, 80, 106
1, 247648, Note_on_c, 0, 85, 122
1, 247648, Note_on_c, 0, 49, 94
1, 247651, Note_on_c, 0, 61, 106
1, 247745, Note_on_c, 0, 80, 0
1, 247745, Note_on_c, 0, 73, 0
1, 247745, Note_on_c, 0, 77, 0
1, 247748, Note_on_c, 0, 85, 0
1, 247748, Note_on_c, 0, 49, 0
1, 247748, Note_on_c, 0, 61, 0
1, 247895, Note_on_c, 0, 78, 94
1, 247895, Note_on_c, 0, 90, 108
1, 247895, Note_on_c, 0, 54, 94
1, 247898, Note_on_c, 0, 57, 94
1, 247898, Note_on_c, 0, 61, 94
1, 247898, Note_on_c, 0, 66, 106
1, 247960, Control_c, 0, 64, 127
1, 247960, Control_c, 0, 64, 127
1, 247963, Note_on_c, 0, 90, 0
1, 247963, Note_on_c, 0, 78, 0
1, 247963, Note_on_c, 0, 85, 103
1, 248031, Note_on_c, 0, 85, 0
1, 248031, Note_on_c, 0, 81, 101
1, 248099, Note_on_c, 0, 81, 0
1, 248099, Note_on_c, 0, 54, 0
1, 248099, Note_on_c, 0, 78, 97
1, 248102, Note_on_c, 0, 57, 0
1, 248102, Note_on_c, 0, 66, 0
1, 248102, Note_on_c, 0, 61, 0
1, 248105, Note_on_c, 0, 37, 95
1, 248167, Note_on_c, 0, 78, 0
1, 248167, Note_on_c, 0, 73, 94
1, 248181, Note_on_c, 0, 37, 0
1, 248235, Note_on_c, 0, 73, 0
1, 248235, Note_on_c, 0, 69, 90
1, 248303, Note_on_c, 0, 69, 0
1, 248303, Note_on_c, 0, 73, 102
1, 248303, Note_on_c, 0, 42, 95
1, 248345, Control_c, 0, 64, 0
1, 248345, Control_c, 0, 64, 0
1, 248371, Note_on_c, 0, 66, 78
1, 248385, Note_on_c, 0, 42, 0
1, 248396, Control_c, 0, 64, 127
1, 248396, Control_c, 0, 64, 127
1, 248439, Note_on_c, 0, 66, 0
1, 248439, Note_on_c, 0, 61, 78
1, 248451, Note_on_c, 0, 73, 0
1, 248507, Note_on_c, 0, 61, 0
1, 248507, Note_on_c, 0, 71, 102
1, 248546, Control_c, 0, 64, 0
1, 248546, Control_c, 0, 64, 0
1, 248576, Note_on_c, 0, 66, 78
1, 248612, Control_c, 0, 64, 127
1, 248612, Control_c, 0, 64, 127
1, 248643, Note_on_c, 0, 66, 0
1, 248643, Note_on_c, 0, 62, 78
1, 248655, Note_on_c, 0, 71, 0
1, 248712, Note_on_c, 0, 62, 0
1, 248712, Note_on_c, 0, 66, 82
1, 248712, Note_on_c, 0, 30, 83
1, 248780, Note_on_c, 0, 66, 0
1, 248780, Note_on_c, 0, 62, 82
1, 248793, Note_on_c, 0, 30, 0
1, 248848, Note_on_c, 0, 62, 0
1, 248848, Note_on_c, 0, 66, 82
1, 248916, Note_on_c, 0, 66, 0
1, 248916, Control_c, 0, 64, 0
1, 248916, Note_on_c, 0, 69, 94
1, 248919, Control_c, 0, 64, 0
1, 248919, Note_on_c, 0, 35, 83
1, 248982, Control_c, 0, 64, 127
1, 248982, Note_on_c, 0, 66, 82
1, 248982, Control_c, 0, 64, 127
1, 248998, Note_on_c, 0, 35, 0
1, 249052, Note_on_c, 0, 66, 0
1, 249052, Note_on_c, 0, 62, 82
1, 249064, Note_on_c, 0, 69, 0
1, 249098, Control_c, 0, 64, 0
1, 249098, Control_c, 0, 64, 0
1, 249120, Note_on_c, 0, 62, 0
1, 249120, Note_on_c, 0, 68, 94
1, 249185, Control_c, 0, 64, 127
1, 249185, Control_c, 0, 64, 127
1, 249188, Note_on_c, 0, 68, 0
1, 249188, Note_on_c, 0, 65, 82
1, 249256, Note_on_c, 0, 65, 0
1, 249256, Note_on_c, 0, 59, 82
1, 249324, Note_on_c, 0, 59, 0
1, 249324, Note_on_c, 0, 65, 82
1, 249324, Note_on_c, 0, 37, 83
1, 249392, Note_on_c, 0, 65, 0
1, 249392, Note_on_c, 0, 59, 82
1, 249406, Note_on_c, 0, 37, 0
1, 249460, Note_on_c, 0, 59, 0
1, 249460, Note_on_c, 0, 65, 82
1, 249528, Note_on_c, 0, 65, 0
1, 249528, Note_on_c, 0, 69, 94
1, 249528, Note_on_c, 0, 49, 83
1, 249570, Control_c, 0, 64, 0
1, 249570, Control_c, 0, 64, 0
1, 249597, Note_on_c, 0, 65, 82
1, 249610, Note_on_c, 0, 49, 0
1, 249621, Control_c, 0, 64, 127
1, 249621, Control_c, 0, 64, 127
1, 249664, Note_on_c, 0, 65, 0
1, 249664, Note_on_c, 0, 59, 82
1, 249676, Note_on_c, 0, 69, 0
1, 249733, Note_on_c, 0, 59, 0
1, 249733, Note_on_c, 0, 65, 94
1, 249771, Control_c, 0, 64, 0
1, 249771, Control_c, 0, 64, 0
1, 249801, Note_on_c, 0, 61, 82
1, 249838, Control_c, 0, 64, 127
1, 249838, Control_c, 0, 64, 127
1, 249869, Note_on_c, 0, 61, 0
1, 249869, Note_on_c, 0, 59, 82
1, 249881, Note_on_c, 0, 65, 0
1, 249937, Note_on_c, 0, 59, 0
1, 249937, Note_on_c, 0, 65, 70
1, 249937, Note_on_c, 0, 42, 83
1, 250005, Note_on_c, 0, 65, 0
1, 250005, Note_on_c, 0, 61, 82
1, 250019, Note_on_c, 0, 42, 0
1, 250073, Note_on_c, 0, 61, 0
1, 250073, Note_on_c, 0, 59, 82
1, 250141, Note_on_c, 0, 59, 0
1, 250141, Control_c, 0, 64, 0
1, 250141, Note_on_c, 0, 61, 94
1, 250144, Note_on_c, 0, 66, 106
1, 250144, Control_c, 0, 64, 0
1, 250144, Note_on_c, 0, 54, 85
1, 250147, Note_on_c, 0, 57, 97
1, 250194, Control_c, 0, 64, 0
1, 250194, Control_c, 0, 64, 0
1, 250241, Note_on_c, 0, 54, 0
1, 250241, Note_on_c, 0, 61, 0
1, 250241, Note_on_c, 0, 66, 0
1, 250244, Note_on_c, 0, 57, 0
1, 250310, Note_on_c, 0, 49, 88
1, 250350, Note_on_c, 0, 56, 88
1, 250391, Note_on_c, 0, 73, 94
1, 250391, Note_on_c, 0, 85, 108
1, 250391, Note_on_c, 0, 64, 100
1, 250470, Control_c, 0, 64, 127
1, 250470, Control_c, 0, 64, 127
1, 250474, Note_on_c, 0, 85, 0
1, 250474, Note_on_c, 0, 73, 0
1, 250474, Note_on_c, 0, 80, 103
1, 250549, Note_on_c, 0, 80, 0
1, 250549, Note_on_c, 0, 76, 101
1, 250617, Note_on_c, 0, 76, 0
1, 250617, Note_on_c, 0, 49, 0
1, 250617, Note_on_c, 0, 73, 97
1, 250620, Note_on_c, 0, 56, 0
1, 250620, Note_on_c, 0, 64, 0
1, 250620, Note_on_c, 0, 44, 95
1, 250685, Note_on_c, 0, 73, 0
1, 250685, Note_on_c, 0, 68, 94
1, 250699, Note_on_c, 0, 44, 0
1, 250753, Note_on_c, 0, 68, 0
1, 250753, Note_on_c, 0, 64, 90
1, 250821, Note_on_c, 0, 64, 0
1, 250821, Note_on_c, 0, 73, 102
1, 250821, Note_on_c, 0, 49, 95
1, 250863, Control_c, 0, 64, 0
1, 250863, Control_c, 0, 64, 0
1, 250889, Note_on_c, 0, 68, 78
1, 250903, Note_on_c, 0, 49, 0
1, 250914, Control_c, 0, 64, 127
1, 250914, Control_c, 0, 64, 127
1, 250957, Note_on_c, 0, 68, 0
1, 250957, Note_on_c, 0, 64, 78
1, 250969, Note_on_c, 0, 73, 0
1, 251025, Note_on_c, 0, 64, 0
1, 251025, Note_on_c, 0, 71, 102
1, 251064, Control_c, 0, 64, 0
1, 251064, Control_c, 0, 64, 0
1, 251093, Note_on_c, 0, 64, 78
1, 251130, Control_c, 0, 64, 127
1, 251130, Control_c, 0, 64, 127
1, 251161, Note_on_c, 0, 64, 0
1, 251161, Note_on_c, 0, 61, 78
1, 251173, Note_on_c, 0, 71, 0
1, 251229, Note_on_c, 0, 61, 0
1, 251229, Note_on_c, 0, 64, 82
1, 251229, Note_on_c, 0, 40, 83
1, 251298, Note_on_c, 0, 64, 0
1, 251298, Note_on_c, 0, 61, 82
1, 251311, Note_on_c, 0, 40, 0
1, 251365, Note_on_c, 0, 61, 0
1, 251365, Note_on_c, 0, 64, 82
1, 251434, Note_on_c, 0, 64, 0
1, 251434, Control_c, 0, 64, 0
1, 251434, Note_on_c, 0, 69, 94
1, 251437, Control_c, 0, 64, 0
1, 251437, Note_on_c, 0, 45, 83
1, 251515, Control_c, 0, 64, 127
1, 251515, Note_on_c, 0, 64, 82
1, 251515, Control_c, 0, 64, 127
1, 251534, Note_on_c, 0, 45, 0
1, 251600, Note_on_c, 0, 64, 0
1, 251600, Note_on_c, 0, 61, 82
1, 251604, Note_on_c, 0, 50, 90
1, 251626, Note_on_c, 0, 69, 0
1, 251677, Note_on_c, 0, 57, 90
1, 251702, Control_c, 0, 64, 0
1, 251702, Control_c, 0, 64, 0
1, 251750, Note_on_c, 0, 61, 0
1, 251750, Note_on_c, 0, 74, 94
1, 251750, Note_on_c, 0, 86, 108
1, 251753, Note_on_c, 0, 66, 102
1, 251839, Control_c, 0, 64, 127
1, 251839, Control_c, 0, 64, 127
1, 251844, Note_on_c, 0, 86, 0
1, 251844, Note_on_c, 0, 74, 0
1, 251844, Note_on_c, 0, 81, 103
1, 251918, Note_on_c, 0, 81, 0
1, 251918, Note_on_c, 0, 78, 101
1, 251987, Note_on_c, 0, 78, 0
1, 251987, Note_on_c, 0, 50, 0
1, 251987, Note_on_c, 0, 74, 97
1, 251990, Note_on_c, 0, 57, 0
1, 251990, Note_on_c, 0, 66, 0
1, 251990, Note_on_c, 0, 45, 95
1, 252055, Note_on_c, 0, 74, 0
1, 252055, Note_on_c, 0, 69, 94
1, 252068, Note_on_c, 0, 45, 0
1, 252123, Note_on_c, 0, 69, 0
1, 252123, Note_on_c, 0, 66, 90
1, 252191, Note_on_c, 0, 66, 0
1, 252191, Note_on_c, 0, 71, 101
1, 252191, Note_on_c, 0, 50, 95
1, 252241, Control_c, 0, 64, 0
1, 252241, Control_c, 0, 64, 0
1, 252274, Note_on_c, 0, 66, 78
1, 252291, Note_on_c, 0, 50, 0
1, 252304, Control_c, 0, 64, 127
1, 252304, Control_c, 0, 64, 127
1, 252357, Note_on_c, 0, 66, 0
1, 252357, Note_on_c, 0, 62, 78
1, 252372, Note_on_c, 0, 71, 0
1, 252440, Note_on_c, 0, 62, 0
1, 252440, Note_on_c, 0, 69, 101
1, 252479, Control_c, 0, 64, 0
1, 252479, Control_c, 0, 64, 0
1, 252509, Note_on_c, 0, 66, 78
1, 252545, Control_c, 0, 64, 127
1, 252545, Control_c, 0, 64, 127
1, 252576, Note_on_c, 0, 66, 0
1, 252576, Note_on_c, 0, 60, 78
1, 252588, Note_on_c, 0, 69, 0
1, 252645, Note_on_c, 0, 60, 0
1, 252645, Note_on_c, 0, 66, 82
1, 252645, Note_on_c, 0, 38, 83
1, 252713, Note_on_c, 0, 66, 0
1, 252713, Note_on_c, 0, 60, 82
1, 252726, Note_on_c, 0, 38, 0
1, 252781, Note_on_c, 0, 60, 0
1, 252781, Note_on_c, 0, 66, 82
1, 252849, Note_on_c, 0, 66, 0
1, 252849, Control_c, 0, 64, 0
1, 252849, Note_on_c, 0, 67, 94
1, 252852, Control_c, 0, 64, 0
1, 252852, Note_on_c, 0, 43, 83
1, 252930, Control_c, 0, 64, 127
1, 252930, Note_on_c, 0, 62, 82
1, 252930, Control_c, 0, 64, 127
1, 252949, Note_on_c, 0, 43, 0
1, 253015, Note_on_c, 0, 62, 0
1, 253015, Note_on_c, 0, 59, 82
1, 253019, Note_on_c, 0, 48, 90
1, 253037, Note_on_c, 0, 67, 0
1, 253079, Note_on_c, 0, 55, 90
1, 253100, Control_c, 0, 64, 0
1, 253100, Control_c, 0, 64, 0
1, 253140, Note_on_c, 0, 59, 0
1, 253140, Note_on_c, 0, 76, 96
1, 253140, Note_on_c, 0, 88, 112
1, 253143, Note_on_c, 0, 64, 102
1, 253259, Control_c, 0, 64, 127
1, 253259, Control_c, 0, 64, 127
1, 253265, Note_on_c, 0, 88, 0
1, 253265, Note_on_c, 0, 76, 0
1, 253265, Note_on_c, 0, 84, 103
1, 253340, Note_on_c, 0, 84, 0
1, 253340, Note_on_c, 0, 79, 102
1, 253408, Note_on_c, 0, 79, 0
1, 253408, Note_on_c, 0, 48, 0
1, 253408, Note_on_c, 0, 76, 97
1, 253411, Note_on_c, 0, 55, 0
1, 253411, Note_on_c, 0, 64, 0
1, 253411, Note_on_c, 0, 43, 95
1, 253476, Note_on_c, 0, 76, 0
1, 253476, Note_on_c, 0, 72, 88
1, 253490, Note_on_c, 0, 43, 0
1, 253544, Note_on_c, 0, 72, 0
1, 253544, Note_on_c, 0, 67, 81
1, 253612, Note_on_c, 0, 67, 0
1, 253612, Note_on_c, 0, 64, 78
1, 253612, Note_on_c, 0, 48, 95
1, 253654, Control_c, 0, 64, 0
1, 253654, Control_c, 0, 64, 0
1, 253680, Note_on_c, 0, 60, 78
1, 253694, Note_on_c, 0, 48, 0
1, 253705, Control_c, 0, 64, 127
1, 253705, Control_c, 0, 64, 127
1, 253748, Note_on_c, 0, 60, 0
1, 253748, Note_on_c, 0, 55, 78
1, 253760, Note_on_c, 0, 64, 0
1, 253816, Note_on_c, 0, 55, 0
1, 253816, Note_on_c, 0, 64, 86
1, 253855, Control_c, 0, 64, 0
1, 253855, Control_c, 0, 64, 0
1, 253885, Note_on_c, 0, 60, 78
1, 253921, Control_c, 0, 64, 127
1, 253921, Control_c, 0, 64, 127
1, 253952, Note_on_c, 0, 60, 0
1, 253952, Note_on_c, 0, 55, 78
1, 253956, Control_c, 0, 64, 0
1, 253956, Control_c, 0, 64, 0
1, 253964, Note_on_c, 0, 64, 0
1, 254005, Control_c, 0, 64, 127
1, 254005, Control_c, 0, 64, 127
1, 254021, Note_on_c, 0, 55, 0
1, 254021, Note_on_c, 0, 65, 82
1, 254021, Note_on_c, 0, 47, 83
1, 254096, Note_on_c, 0, 65, 0
1, 254096, Note_on_c, 0, 62, 82
1, 254111, Note_on_c, 0, 47, 0
1, 254170, Note_on_c, 0, 62, 0
1, 254170, Note_on_c, 0, 56, 82
1, 254245, Note_on_c, 0, 56, 0
1, 254245, Control_c, 0, 64, 0
1, 254245, Note_on_c, 0, 65, 82
1, 254248, Control_c, 0, 64, 0
1, 254318, Control_c, 0, 64, 127
1, 254318, Note_on_c, 0, 62, 82
1, 254318, Control_c, 0, 64, 127
1, 254395, Note_on_c, 0, 62, 0
1, 254395, Note_on_c, 0, 56, 82
1, 254408, Note_on_c, 0, 65, 0
1, 254446, Control_c, 0, 64, 0
1, 254446, Control_c, 0, 64, 0
1, 254470, Note_on_c, 0, 56, 0
1, 254470, Note_on_c, 0, 65, 76
1, 254545, Note_on_c, 0, 62, 71
1, 254619, Note_on_c, 0, 62, 0
1, 254619, Note_on_c, 0, 56, 69
1, 254633, Note_on_c, 0, 65, 0
1, 254695, Note_on_c, 0, 56, 0
1, 254695, Note_on_c, 0, 64, 76
1, 254695, Note_on_c, 0, 48, 71
1, 254738, Control_c, 0, 64, 127
1, 254738, Control_c, 0, 64, 127
1, 254738, Control_c, 0, 64, 127
1, 254770, Note_on_c, 0, 60, 71
1, 254844, Note_on_c, 0, 60, 0
1, 254844, Note_on_c, 0, 55, 69
1, 254857, Note_on_c, 0, 64, 0
1, 254919, Note_on_c, 0, 55, 0
1, 254919, Note_on_c, 0, 48, 0
1, 254919, Note_on_c, 0, 64, 76
1, 254994, Note_on_c, 0, 64, 0
1, 254994, Note_on_c, 0, 60, 71
1, 255069, Note_on_c, 0, 60, 0
1, 255069, Note_on_c, 0, 55, 69
1, 255144, Note_on_c, 0, 55, 0
1, 255144, Note_on_c, 0, 64, 76
1, 255227, Note_on_c, 0, 60, 71
1, 255310, Note_on_c, 0, 60, 0
1, 255310, Note_on_c, 0, 55, 69
1, 255325, Note_on_c, 0, 64, 0
1, 255384, Control_c, 0, 64, 0
1, 255384, Control_c, 0, 64, 0
1, 255384, Control_c, 0, 64, 0
1, 255393, Note_on_c, 0, 55, 0
1, 255393, Note_on_c, 0, 65, 76
1, 255393, Note_on_c, 0, 47, 71
1, 255468, Note_on_c, 0, 62, 71
1, 255471, Control_c, 0, 64, 127
1, 255471, Control_c, 0, 64, 127
1, 255471, Control_c, 0, 64, 127
1, 255543, Note_on_c, 0, 62, 0
1, 255543, Note_on_c, 0, 56, 69
1, 255556, Note_on_c, 0, 65, 0
1, 255618, Note_on_c, 0, 56, 0
1, 255618, Note_on_c, 0, 47, 0
1, 255618, Note_on_c, 0, 65, 76
1, 255693, Note_on_c, 0, 62, 71
1, 255768, Note_on_c, 0, 62, 0
1, 255768, Note_on_c, 0, 56, 69
1, 255781, Note_on_c, 0, 65, 0
1, 255818, Control_c, 0, 64, 0
1, 255818, Control_c, 0, 64, 0
1, 255818, Control_c, 0, 64, 0
1, 255843, Note_on_c, 0, 56, 0
1, 255843, Note_on_c, 0, 65, 76
1, 255926, Note_on_c, 0, 62, 71
1, 256009, Note_on_c, 0, 62, 0
1, 256009, Note_on_c, 0, 56, 69
1, 256022, Note_on_c, 0, 65, 0
1, 256084, Note_on_c, 0, 56, 0
1, 256084, Note_on_c, 0, 64, 76
1, 256084, Note_on_c, 0, 48, 71
1, 256128, Control_c, 0, 64, 127
1, 256128, Control_c, 0, 64, 127
1, 256128, Control_c, 0, 64, 127
1, 256159, Note_on_c, 0, 60, 71
1, 256234, Note_on_c, 0, 60, 0
1, 256234, Note_on_c, 0, 55, 69
1, 256247, Note_on_c, 0, 64, 0
1, 256309, Note_on_c, 0, 55, 0
1, 256309, Note_on_c, 0, 48, 0
1, 256309, Note_on_c, 0, 64, 76
1, 256384, Note_on_c, 0, 64, 0
1, 256384, Note_on_c, 0, 60, 71
1, 256458, Note_on_c, 0, 60, 0
1, 256458, Note_on_c, 0, 55, 69
1, 256533, Note_on_c, 0, 55, 0
1, 256533, Note_on_c, 0, 64, 76
1, 256608, Note_on_c, 0, 60, 71
1, 256683, Note_on_c, 0, 60, 0
1, 256683, Note_on_c, 0, 55, 69
1, 256696, Note_on_c, 0, 64, 0
1, 256750, Control_c, 0, 64, 0
1, 256750, Control_c, 0, 64, 0
1, 256750, Control_c, 0, 64, 0
1, 256758, Note_on_c, 0, 55, 0
1, 256758, Note_on_c, 0, 67, 76
1, 256758, Note_on_c, 0, 46, 71
1, 256833, Note_on_c, 0, 64, 71
1, 256833, Control_c, 0, 64, 127
1, 256833, Control_c, 0, 64, 127
1, 256833, Control_c, 0, 64, 127
1, 256907, Note_on_c, 0, 64, 0
1, 256907, Note_on_c, 0, 61, 69
1, 256921, Note_on_c, 0, 67, 0
1, 256982, Note_on_c, 0, 61, 0
1, 256982, Note_on_c, 0, 46, 0
1, 256982, Note_on_c, 0, 67, 76
1, 257058, Note_on_c, 0, 64, 71
1, 257132, Note_on_c, 0, 64, 0
1, 257132, Note_on_c, 0, 61, 69
1, 257145, Note_on_c, 0, 67, 0
1, 257183, Control_c, 0, 64, 0
1, 257183, Control_c, 0, 64, 0
1, 257183, Control_c, 0, 64, 0
1, 257207, Note_on_c, 0, 61, 0
1, 257207, Note_on_c, 0, 67, 76
1, 257282, Note_on_c, 0, 67, 0
1, 257282, Note_on_c, 0, 64, 72
1, 257357, Note_on_c, 0, 64, 0
1, 257357, Note_on_c, 0, 61, 72
1, 257432, Note_on_c, 0, 61, 0
1, 257432, Note_on_c, 0, 66, 80
1, 257432, Note_on_c, 0, 47, 79
1, 257480, Control_c, 0, 64, 127
1, 257480, Control_c, 0, 64, 127
1, 257480, Control_c, 0, 64, 127
1, 257507, Note_on_c, 0, 66, 0
1, 257507, Note_on_c, 0, 63, 76
1, 257581, Note_on_c, 0, 63, 0
1, 257581, Note_on_c, 0, 59, 74
1, 257656, Note_on_c, 0, 59, 0
1, 257656, Note_on_c, 0, 47, 0
1, 257656, Note_on_c, 0, 66, 82
1, 257731, Note_on_c, 0, 66, 0
1, 257731, Note_on_c, 0, 63, 77
1, 257806, Note_on_c, 0, 63, 0
1, 257806, Note_on_c, 0, 59, 76
1, 257881, Note_on_c, 0, 59, 0
1, 257881, Note_on_c, 0, 66, 86
1, 257946, Control_c, 0, 64, 0
1, 257946, Control_c, 0, 64, 0
1, 257946, Control_c, 0, 64, 0
1, 257952, Note_on_c, 0, 66, 0
1, 257952, Note_on_c, 0, 63, 81
1, 258024, Note_on_c, 0, 63, 0
1, 258024, Note_on_c, 0, 59, 80
1, 258095, Note_on_c, 0, 59, 0
1, 258095, Note_on_c, 0, 71, 88
1, 258095, Note_on_c, 0, 44, 87
1, 258166, Note_on_c, 0, 71, 0
1, 258166, Note_on_c, 0, 65, 85
1, 258172, Control_c, 0, 64, 127
1, 258172, Control_c, 0, 64, 127
1, 258237, Note_on_c, 0, 65, 0
1, 258237, Note_on_c, 0, 62, 82
1, 258309, Note_on_c, 0, 62, 0
1, 258309, Note_on_c, 0, 44, 0
1, 258309, Note_on_c, 0, 69, 93
1, 258312, Note_on_c, 0, 45, 89
1, 258319, Control_c, 0, 64, 0
1, 258319, Control_c, 0, 64, 0
1, 258370, Control_c, 0, 64, 127
1, 258370, Control_c, 0, 64, 127
1, 258380, Note_on_c, 0, 69, 0
1, 258380, Note_on_c, 0, 66, 87
1, 258451, Note_on_c, 0, 66, 0
1, 258451, Note_on_c, 0, 61, 85
1, 258517, Control_c, 0, 64, 0
1, 258517, Control_c, 0, 64, 0
1, 258523, Note_on_c, 0, 61, 0
1, 258523, Note_on_c, 0, 45, 0
1, 258523, Note_on_c, 0, 74, 98
1, 258526, Note_on_c, 0, 41, 91
1, 258579, Control_c, 0, 64, 127
1, 258579, Control_c, 0, 64, 127
1, 258594, Note_on_c, 0, 74, 0
1, 258594, Note_on_c, 0, 71, 89
1, 258665, Note_on_c, 0, 71, 0
1, 258665, Note_on_c, 0, 68, 88
1, 258737, Note_on_c, 0, 68, 0
1, 258737, Note_on_c, 0, 41, 0
1, 258737, Note_on_c, 0, 73, 101
1, 258740, Note_on_c, 0, 42, 92
1, 258765, Control_c, 0, 64, 0
1, 258765, Control_c, 0, 64, 0
1, 258797, Control_c, 0, 64, 127
1, 258797, Control_c, 0, 64, 127
1, 258805, Note_on_c, 0, 73, 0
1, 258805, Note_on_c, 0, 71, 91
1, 258873, Note_on_c, 0, 71, 0
1, 258873, Note_on_c, 0, 68, 91
1, 258941, Note_on_c, 0, 68, 0
1, 258941, Note_on_c, 0, 42, 0
1, 258941, Note_on_c, 0, 79, 102
1, 258944, Note_on_c, 0, 38, 94
1, 258948, Control_c, 0, 64, 0
1, 258948, Control_c, 0, 64, 0
1, 258991, Control_c, 0, 64, 127
1, 258991, Control_c, 0, 64, 127
1, 259009, Note_on_c, 0, 79, 0
1, 259009, Note_on_c, 0, 72, 94
1, 259077, Note_on_c, 0, 72, 0
1, 259077, Note_on_c, 0, 69, 91
1, 259142, Control_c, 0, 64, 0
1, 259142, Control_c, 0, 64, 0
1, 259145, Note_on_c, 0, 69, 0
1, 259145, Note_on_c, 0, 38, 0
1, 259145, Note_on_c, 0, 78, 109
1, 259148, Note_on_c, 0, 39, 96
1, 259189, Control_c, 0, 64, 127
1, 259189, Control_c, 0, 64, 127
1, 259210, Note_on_c, 0, 78, 0
1, 259210, Note_on_c, 0, 72, 96
1, 259275, Note_on_c, 0, 72, 0
1, 259275, Note_on_c, 0, 69, 93
1, 259341, Note_on_c, 0, 69, 0
1, 259341, Note_on_c, 0, 39, 0
1, 259341, Note_on_c, 0, 81, 111
1, 259344, Note_on_c, 0, 36, 96
1, 259360, Control_c, 0, 64, 0
1, 259360, Control_c, 0, 64, 0
1, 259401, Control_c, 0, 64, 127
1, 259401, Control_c, 0, 64, 127
1, 259406, Note_on_c, 0, 81, 0
1, 259406, Note_on_c, 0, 78, 97
1, 259471, Note_on_c, 0, 78, 0
1, 259471, Note_on_c, 0, 75, 96
1, 259536, Note_on_c, 0, 75, 0
1, 259536, Note_on_c, 0, 36, 0
1, 259536, Note_on_c, 0, 85, 113
1, 259539, Note_on_c, 0, 37, 98
1, 259564, Control_c, 0, 64, 0
1, 259564, Control_c, 0, 64, 0
1, 259611, Note_on_c, 0, 85, 0
1, 259611, Note_on_c, 0, 77, 100
1, 259630, Control_c, 0, 64, 127
1, 259630, Control_c, 0, 64, 127
1, 259686, Note_on_c, 0, 77, 0
1, 259686, Note_on_c, 0, 73, 96
1, 259713, Control_c, 0, 64, 0
1, 259713, Control_c, 0, 64, 0
1, 259761, Note_on_c, 0, 73, 0
1, 259761, Note_on_c, 0, 78, 105
1, 259761, Note_on_c, 0, 90, 117
1, 259764, Note_on_c, 0, 37, 0
1, 259764, Note_on_c, 0, 30, 86
1, 259764, Note_on_c, 0, 42, 97
1, 259814, Control_c, 0, 64, 127
1, 259814, Control_c, 0, 64, 127
1, 259829, Note_on_c, 0, 90, 0
1, 259829, Note_on_c, 0, 78, 0
1, 259829, Note_on_c, 0, 85, 104
1, 259897, Note_on_c, 0, 85, 0
1, 259897, Note_on_c, 0, 81, 102
1, 259965, Note_on_c, 0, 81, 0
1, 259965, Note_on_c, 0, 30, 0
1, 259965, Note_on_c, 0, 78, 101
1, 259968, Note_on_c, 0, 42, 0
1, 259968, Note_on_c, 0, 61, 99
1, 260033, Note_on_c, 0, 78, 0
1, 260033, Note_on_c, 0, 73, 101
1, 260101, Note_on_c, 0, 73, 0
1, 260101, Note_on_c, 0, 69, 100
1, 260169, Note_on_c, 0, 69, 0
1, 260169, Note_on_c, 0, 61, 0
1, 260169, Note_on_c, 0, 78, 98
1, 260172, Note_on_c, 0, 66, 105
1, 260237, Note_on_c, 0, 78, 0
1, 260237, Note_on_c, 0, 73, 97
1, 260305, Note_on_c, 0, 73, 0
1, 260305, Note_on_c, 0, 69, 96
1, 260373, Note_on_c, 0, 69, 0
1, 260373, Note_on_c, 0, 66, 0
1, 260373, Note_on_c, 0, 66, 94
1, 260376, Control_c, 0, 64, 0
1, 260376, Note_on_c, 0, 49, 99
1, 260376, Control_c, 0, 64, 0
1, 260441, Note_on_c, 0, 66, 0
1, 260441, Note_on_c, 0, 61, 93
1, 260446, Control_c, 0, 64, 127
1, 260446, Control_c, 0, 64, 127
1, 260509, Note_on_c, 0, 61, 0
1, 260509, Note_on_c, 0, 57, 92
1, 260577, Note_on_c, 0, 57, 0
1, 260577, Note_on_c, 0, 49, 0
1, 260577, Note_on_c, 0, 66, 90
1, 260580, Note_on_c, 0, 54, 105
1, 260652, Note_on_c, 0, 66, 0
1, 260652, Note_on_c, 0, 61, 90
1, 260727, Note_on_c, 0, 61, 0
1, 260727, Note_on_c, 0, 57, 89
1, 260802, Note_on_c, 0, 57, 0
1, 260802, Note_on_c, 0, 54, 0
1, 260802, Note_on_c, 0, 54, 88
1, 260805, Note_on_c, 0, 25, 87
1, 260805, Note_on_c, 0, 37, 99
1, 260885, Note_on_c, 0, 54, 0
1, 260885, Note_on_c, 0, 49, 86
1, 260946, Control_c, 0, 64, 0
1, 260946, Control_c, 0, 64, 0
1, 260968, Note_on_c, 0, 49, 0
1, 260968, Note_on_c, 0, 45, 85
1, 261052, Note_on_c, 0, 45, 0
1, 261052, Note_on_c, 0, 37, 0
1, 261052, Note_on_c, 0, 25, 0
1, 261055, Note_on_c, 0, 30, 93
1, 261055, Note_on_c, 0, 42, 105
1, 261076, Control_c, 0, 64, 0
1, 261076, Control_c, 0, 64, 0
1, 261076, Control_c, 0, 64, 0
1, 261225, Control_c, 0, 64, 0
1, 261225, Control_c, 0, 64, 0
1, 261225, Control_c, 0, 64, 0
1, 261613, Note_on_c, 0, 42, 0
1, 261613, Note_on_c, 0, 30, 0
1, 262092, Control_c, 0, 64, 127
1, 262092, Control_c, 0, 64, 127
1, 262092, Control_c, 0, 64, 127
1, 262512, Note_on_c, 0, 69, 57
1, 262512, Note_on_c, 0, 73, 69
1, 262512, Note_on_c, 0, 66, 56
1, 262833, Note_on_c, 0, 73, 0
1, 262833, Note_on_c, 0, 69, 0
1, 262833, Note_on_c, 0, 69, 50
1, 262836, Note_on_c, 0, 66, 0
1, 262836, Note_on_c, 0, 73, 62
1, 262836, Note_on_c, 0, 66, 56
1, 263072, Control_c, 0, 64, 0
1, 263072, Control_c, 0, 64, 0
1, 263072, Control_c, 0, 64, 0
1, 263114, Note_on_c, 0, 65, 59
1, 263125, Note_on_c, 0, 66, 0
1, 264237, Note_on_c, 0, 70, 44
1, 264237, Note_on_c, 0, 64, 47
1, 264250, Note_on_c, 0, 65, 0
1, 264250, Note_on_c, 0, 69, 0
1, 264379, Control_c, 0, 64, 127
1, 264379, Control_c, 0, 64, 127
1, 264379, Control_c, 0, 64, 127
1, 264689, Control_c, 0, 64, 0
1, 264689, Control_c, 0, 64, 0
1, 264689, Control_c, 0, 64, 0
1, 264755, Note_on_c, 0, 73, 0
1, 264755, Note_on_c, 0, 70, 0
1, 264755, Note_on_c, 0, 64, 0
1, 264928, Note_on_c, 0, 50, 44
1, 264928, Note_on_c, 0, 54, 44
1, 264928, Note_on_c, 0, 59, 64
1, 265142, Control_c, 0, 64, 127
1, 265142, Control_c, 0, 64, 127
1, 265142, Control_c, 0, 64, 127
1, 265249, Note_on_c, 0, 59, 0
1, 265249, Note_on_c, 0, 54, 0
1, 265249, Note_on_c, 0, 50, 0
1, 265252, Note_on_c, 0, 50, 37
1, 265252, Note_on_c, 0, 54, 37
1, 265252, Note_on_c, 0, 59, 61
1, 265492, Control_c, 0, 64, 0
1, 265492, Control_c, 0, 64, 0
1, 265492, Control_c, 0, 64, 0
1, 265530, Note_on_c, 0, 49, 44
1, 265530, Note_on_c, 0, 53, 44
1, 265530, Note_on_c, 0, 57, 64
1, 265541, Note_on_c, 0, 59, 0
1, 265541, Note_on_c, 0, 50, 0
1, 265541, Note_on_c, 0, 54, 0
1, 266653, Note_on_c, 0, 56, 43
1, 266667, Note_on_c, 0, 57, 0
1, 266807, Control_c, 0, 64, 127
1, 266807, Control_c, 0, 64, 127
1, 266807, Control_c, 0, 64, 127
1, 267143, Control_c, 0, 64, 0
1, 267143, Control_c, 0, 64, 0
1, 267143, Control_c, 0, 64, 0
1, 267214, Note_on_c, 0, 49, 0
1, 267214, Note_on_c, 0, 53, 0
1, 267214, Note_on_c, 0, 56, 0
1, 267402, Note_on_c, 0, 66, 60
1, 267402, Note_on_c, 0, 73, 67
1, 267402, Note_on_c, 0, 57, 58
1, 267615, Control_c, 0, 64, 127
1, 267615, Control_c, 0, 64, 127
1, 267615, Control_c, 0, 64, 127
1, 267723, Note_on_c, 0, 73, 0
1, 267723, Note_on_c, 0, 66, 0
1, 267723, Note_on_c, 0, 66, 53
1, 267726, Note_on_c, 0, 57, 0
1, 267726, Note_on_c, 0, 73, 60
1, 267726, Note_on_c, 0, 57, 51
1, 267966, Control_c, 0, 64, 0
1, 267966, Control_c, 0, 64, 0
1, 267966, Control_c, 0, 64, 0
1, 268003, Note_on_c, 0, 65, 60
1, 268003, Note_on_c, 0, 56, 58
1, 268014, Note_on_c, 0, 57, 0
1, 268014, Note_on_c, 0, 66, 0
1, 269127, Note_on_c, 0, 64, 46
1, 269127, Note_on_c, 0, 55, 42
1, 269141, Note_on_c, 0, 56, 0
1, 269141, Note_on_c, 0, 65, 0
1, 269281, Control_c, 0, 64, 127
1, 269281, Control_c, 0, 64, 127
1, 269281, Control_c, 0, 64, 127
1, 269617, Control_c, 0, 64, 0
1, 269617, Control_c, 0, 64, 0
1, 269617, Control_c, 0, 64, 0
1, 269688, Note_on_c, 0, 73, 0
1, 269688, Note_on_c, 0, 64, 0
1, 269688, Note_on_c, 0, 55, 0
1, 269875, Note_on_c, 0, 38, 42
1, 269875, Note_on_c, 0, 54, 42
1, 269875, Note_on_c, 0, 59, 61
1, 270125, Control_c, 0, 64, 127
1, 270125, Control_c, 0, 64, 127
1, 270125, Control_c, 0, 64, 127
1, 270250, Note_on_c, 0, 59, 0
1, 270250, Note_on_c, 0, 54, 0
1, 270250, Note_on_c, 0, 38, 0
1, 270253, Note_on_c, 0, 38, 35
1, 270253, Note_on_c, 0, 54, 35
1, 270253, Note_on_c, 0, 59, 59
1, 270574, Control_c, 0, 64, 0
1, 270574, Control_c, 0, 64, 0
1, 270574, Control_c, 0, 64, 0
1, 270624, Note_on_c, 0, 40, 39
1, 270624, Note_on_c, 0, 50, 39
1, 270624, Note_on_c, 0, 56, 58
1, 270639, Note_on_c, 0, 59, 0
1, 270639, Note_on_c, 0, 38, 0
1, 270639, Note_on_c, 0, 54, 0
1, 272122, Note_on_c, 0, 33, 28
1, 272122, Note_on_c, 0, 49, 28
1, 272122, Note_on_c, 0, 57, 33
1, 272136, Note_on_c, 0, 40, 0
1, 272136, Note_on_c, 0, 56, 0
1, 272136, Note_on_c, 0, 50, 0
1, 272276, Control_c, 0, 64, 127
1, 272276, Control_c, 0, 64, 127
1, 272276, Control_c, 0, 64, 127
1, 272612, Control_c, 0, 64, 0
1, 272612, Control_c, 0, 64, 0
1, 272612, Control_c, 0, 64, 0
1, 272683, Note_on_c, 0, 33, 0
1, 272683, Note_on_c, 0, 49, 0
1, 272683, Note_on_c, 0, 57, 0
1, 272871, Note_on_c, 0, 64, 45
1, 272871, Note_on_c, 0, 73, 67
1, 272871, Note_on_c, 0, 57, 35
1, 272874, Note_on_c, 0, 61, 51
1, 273084, Control_c, 0, 64, 127
1, 273084, Control_c, 0, 64, 127
1, 273084, Control_c, 0, 64, 127
1, 273191, Note_on_c, 0, 73, 0
1, 273191, Note_on_c, 0, 64, 0
1, 273191, Note_on_c, 0, 64, 43
1, 273194, Note_on_c, 0, 57, 0
1, 273194, Note_on_c, 0, 61, 0
1, 273194, Note_on_c, 0, 73, 66
1, 273197, Note_on_c, 0, 57, 32
1, 273197, Note_on_c, 0, 61, 48
1, 273491, Control_c, 0, 64, 0
1, 273491, Control_c, 0, 64, 0
1, 273491, Control_c, 0, 64, 0
1, 273537, Note_on_c, 0, 72, 61
1, 273537, Note_on_c, 0, 76, 71
1, 273537, Note_on_c, 0, 60, 48
1, 273548, Note_on_c, 0, 61, 0
1, 273548, Note_on_c, 0, 73, 0
1, 274660, Note_on_c, 0, 71, 53
1, 274660, Note_on_c, 0, 56, 33
1, 274660, Note_on_c, 0, 59, 33
1, 274674, Note_on_c, 0, 57, 0
1, 274674, Note_on_c, 0, 60, 0
1, 274681, Note_on_c, 0, 76, 0
1, 274681, Note_on_c, 0, 72, 0
1, 274803, Control_c, 0, 64, 127
1, 274803, Control_c, 0, 64, 127
1, 274803, Control_c, 0, 64, 127
1, 275006, Note_on_c, 0, 56, 0
1, 275006, Note_on_c, 0, 64, 0
1, 275006, Note_on_c, 0, 71, 0
1, 275009, Note_on_c, 0, 59, 0
1, 275113, Control_c, 0, 64, 0
1, 275113, Control_c, 0, 64, 0
1, 275113, Control_c, 0, 64, 0
1, 275351, Note_on_c, 0, 44, 44
1, 275351, Note_on_c, 0, 52, 44
1, 275351, Note_on_c, 0, 59, 61
1, 275565, Control_c, 0, 64, 127
1, 275565, Control_c, 0, 64, 127
1, 275565, Control_c, 0, 64, 127
1, 275672, Note_on_c, 0, 59, 0
1, 275672, Note_on_c, 0, 52, 0
1, 275672, Note_on_c, 0, 44, 0
1, 275675, Note_on_c, 0, 44, 48
1, 275675, Note_on_c, 0, 52, 48
1, 275675, Note_on_c, 0, 59, 67
1, 275951, Control_c, 0, 64, 0
1, 275951, Control_c, 0, 64, 0
1, 275951, Control_c, 0, 64, 0
1, 275993, Note_on_c, 0, 43, 58
1, 275993, Note_on_c, 0, 64, 67
1, 276004, Note_on_c, 0, 44, 0
1, 277117, Note_on_c, 0, 58, 51
1, 277130, Note_on_c, 0, 59, 0
1, 277259, Control_c, 0, 64, 127
1, 277259, Control_c, 0, 64, 127
1, 277259, Control_c, 0, 64, 127
1, 277569, Control_c, 0, 64, 0
1, 277569, Control_c, 0, 64, 0
1, 277569, Control_c, 0, 64, 0
1, 277635, Note_on_c, 0, 43, 0
1, 277635, Note_on_c, 0, 52, 0
1, 277635, Note_on_c, 0, 58, 0
1, 277638, Note_on_c, 0, 64, 0
1, 277808, Note_on_c, 0, 64, 50
1, 277808, Note_on_c, 0, 70, 64
1, 277808, Note_on_c, 0, 55, 44
1, 277811, Note_on_c, 0, 58, 38
1, 278057, Control_c, 0, 64, 127
1, 278057, Control_c, 0, 64, 127
1, 278057, Control_c, 0, 64, 127
1, 278182, Note_on_c, 0, 70, 0
1, 278182, Note_on_c, 0, 64, 0
1, 278182, Note_on_c, 0, 64, 52
1, 278185, Note_on_c, 0, 55, 0
1, 278185, Note_on_c, 0, 58, 0
1, 278185, Note_on_c, 0, 70, 70
1, 278188, Note_on_c, 0, 55, 44
1, 278188, Note_on_c, 0, 58, 38
1, 278615, Control_c, 0, 64, 0
1, 278615, Control_c, 0, 64, 0
1, 278615, Control_c, 0, 64, 0
1, 278681, Note_on_c, 0, 76, 80
1, 278681, Note_on_c, 0, 53, 45
1, 278681, Note_on_c, 0, 61, 63
1, 278703, Note_on_c, 0, 58, 0
1, 278703, Note_on_c, 0, 55, 0
1, 278703, Note_on_c, 0, 64, 0
1, 280366, Note_on_c, 0, 69, 44
1, 280366, Note_on_c, 0, 74, 60
1, 280366, Note_on_c, 0, 62, 38
1, 280395, Note_on_c, 0, 76, 0
1, 280395, Note_on_c, 0, 61, 0
1, 280395, Note_on_c, 0, 70, 0
1, 281115, Note_on_c, 0, 65, 38
1, 281115, Note_on_c, 0, 71, 54
1, 281115, Note_on_c, 0, 55, 28
1, 281144, Note_on_c, 0, 69, 0
1, 281144, Note_on_c, 0, 53, 0
1, 281144, Note_on_c, 0, 74, 0
1, 281424, Control_c, 0, 64, 127
1, 281424, Control_c, 0, 64, 127
1, 281424, Control_c, 0, 64, 127
1, 281427, Control_c, 0, 64, 127
1, 281427, Control_c, 0, 64, 127
1, 281427, Control_c, 0, 64, 127
1, 282095, Control_c, 0, 64, 0
1, 282095, Control_c, 0, 64, 0
1, 282095, Control_c, 0, 64, 0
1, 282098, Control_c, 0, 64, 0
1, 282098, Control_c, 0, 64, 0
1, 282098, Control_c, 0, 64, 0
1, 282613, Note_on_c, 0, 65, 0
1, 282613, Note_on_c, 0, 55, 0
1, 282613, Note_on_c, 0, 71, 0
1, 282616, Note_on_c, 0, 62, 0
1, 282616, Note_on_c, 0, 43, 43
1, 282616, Note_on_c, 0, 53, 43
1, 282619, Note_on_c, 0, 62, 57
1, 282826, Control_c, 0, 64, 127
1, 282826, Control_c, 0, 64, 127
1, 282826, Control_c, 0, 64, 127
1, 282829, Control_c, 0, 64, 127
1, 282829, Control_c, 0, 64, 127
1, 282829, Control_c, 0, 64, 127
1, 282933, Note_on_c, 0, 62, 0
1, 282933, Note_on_c, 0, 53, 0
1, 282933, Note_on_c, 0, 43, 0
1, 282936, Note_on_c, 0, 43, 46
1, 282936, Note_on_c, 0, 53, 46
1, 282936, Note_on_c, 0, 62, 63
1, 283233, Control_c, 0, 64, 0
1, 283233, Control_c, 0, 64, 0
1, 283233, Control_c, 0, 64, 0
1, 283236, Control_c, 0, 64, 0
1, 283236, Control_c, 0, 64, 0
1, 283236, Control_c, 0, 64, 0
1, 283279, Note_on_c, 0, 61, 72
1, 283279, Note_on_c, 0, 44, 54
1, 283292, Note_on_c, 0, 62, 0
1, 283292, Note_on_c, 0, 43, 0
1, 284242, Note_on_c, 0, 59, 48
1, 284256, Note_on_c, 0, 61, 0
1, 284616, Note_on_c, 0, 44, 0
1, 284616, Note_on_c, 0, 65, 51
1, 284616, Note_on_c, 0, 71, 61
1, 284619, Note_on_c, 0, 53, 0
1, 284619, Note_on_c, 0, 59, 0
1, 284619, Note_on_c, 0, 56, 54
1, 284748, Control_c, 0, 64, 127
1, 284748, Control_c, 0, 64, 127
1, 284748, Control_c, 0, 64, 127
1, 284751, Control_c, 0, 64, 127
1, 284751, Control_c, 0, 64, 127
1, 284751, Control_c, 0, 64, 127
1, 284937, Note_on_c, 0, 65, 0
1, 284937, Note_on_c, 0, 71, 0
1, 284937, Note_on_c, 0, 65, 56
1, 284940, Note_on_c, 0, 56, 0
1, 284940, Note_on_c, 0, 71, 67
1, 284940, Note_on_c, 0, 56, 54
1, 285044, Control_c, 0, 64, 0
1, 285044, Control_c, 0, 64, 0
1, 285044, Control_c, 0, 64, 0
1, 285047, Control_c, 0, 64, 0
1, 285047, Control_c, 0, 64, 0
1, 285047, Control_c, 0, 64, 0
1, 285283, Note_on_c, 0, 66, 60
1, 285283, Note_on_c, 0, 69, 72
1, 285283, Note_on_c, 0, 59, 60
1, 285295, Note_on_c, 0, 56, 0
1, 285295, Note_on_c, 0, 65, 0
1, 285295, Note_on_c, 0, 71, 0
1, 285496, Control_c, 0, 64, 127
1, 285496, Control_c, 0, 64, 127
1, 285496, Control_c, 0, 64, 127
1, 285499, Control_c, 0, 64, 127
1, 285499, Control_c, 0, 64, 127
1, 285499, Control_c, 0, 64, 127
1, 285882, Control_c, 0, 64, 0
1, 285882, Control_c, 0, 64, 0
1, 285882, Control_c, 0, 64, 0
1, 285885, Control_c, 0, 64, 0
1, 285885, Control_c, 0, 64, 0
1, 285885, Control_c, 0, 64, 0
1, 286245, Note_on_c, 0, 68, 51
1, 286260, Note_on_c, 0, 69, 0
1, 286620, Note_on_c, 0, 66, 0
1, 286620, Note_on_c, 0, 59, 0
1, 286620, Note_on_c, 0, 68, 0
1, 286623, Note_on_c, 0, 54, 39
1, 286623, Note_on_c, 0, 57, 49
1, 286623, Note_on_c, 0, 36, 39
1, 286762, Control_c, 0, 64, 127
1, 286762, Control_c, 0, 64, 127
1, 286762, Control_c, 0, 64, 127
1, 286765, Control_c, 0, 64, 127
1, 286765, Control_c, 0, 64, 127
1, 286765, Control_c, 0, 64, 127
1, 286965, Note_on_c, 0, 36, 0
1, 286965, Note_on_c, 0, 57, 0
1, 286965, Note_on_c, 0, 54, 0
1, 286968, Note_on_c, 0, 36, 43
1, 286968, Note_on_c, 0, 54, 43
1, 286968, Note_on_c, 0, 57, 53
1, 287091, Control_c, 0, 64, 0
1, 287091, Control_c, 0, 64, 0
1, 287091, Control_c, 0, 64, 0
1, 287094, Control_c, 0, 64, 0
1, 287094, Control_c, 0, 64, 0
1, 287094, Control_c, 0, 64, 0
1, 287374, Note_on_c, 0, 50, 48
1, 287374, Note_on_c, 0, 35, 57
1, 287387, Note_on_c, 0, 36, 0
1, 287604, Control_c, 0, 64, 127
1, 287604, Control_c, 0, 64, 127
1, 287604, Control_c, 0, 64, 127
1, 287607, Control_c, 0, 64, 127
1, 287607, Control_c, 0, 64, 127
1, 287607, Control_c, 0, 64, 127
1, 288019, Control_c, 0, 64, 0
1, 288019, Control_c, 0, 64, 0
1, 288019, Control_c, 0, 64, 0
1, 288022, Control_c, 0, 64, 0
1, 288022, Control_c, 0, 64, 0
1, 288022, Control_c, 0, 64, 0
1, 288411, Note_on_c, 0, 54, 0
1, 288411, Note_on_c, 0, 55, 41
1, 288433, Note_on_c, 0, 57, 0
1, 288972, Note_on_c, 0, 35, 0
1, 288972, Note_on_c, 0, 50, 0
1, 288972, Note_on_c, 0, 65, 58
1, 288975, Note_on_c, 0, 55, 0
1, 288975, Note_on_c, 0, 49, 34
1, 288975, Note_on_c, 0, 56, 34
1, 288978, Note_on_c, 0, 59, 46
1, 289157, Control_c, 0, 64, 127
1, 289157, Control_c, 0, 64, 127
1, 289157, Control_c, 0, 64, 127
1, 289422, Note_on_c, 0, 49, 0
1, 289422, Note_on_c, 0, 65, 0
1, 289422, Note_on_c, 0, 65, 66
1, 289425, Note_on_c, 0, 56, 0
1, 289425, Note_on_c, 0, 59, 0
1, 289425, Note_on_c, 0, 49, 39
1, 289428, Note_on_c, 0, 56, 39
1, 289428, Note_on_c, 0, 59, 51
1, 289595, Control_c, 0, 64, 0
1, 289595, Control_c, 0, 64, 0
1, 289595, Control_c, 0, 64, 0
1, 289983, Note_on_c, 0, 59, 0
1, 289983, Note_on_c, 0, 62, 59
1, 289983, Note_on_c, 0, 59, 51
1, 289986, Note_on_c, 0, 54, 39
1, 290005, Note_on_c, 0, 56, 0
1, 290005, Note_on_c, 0, 49, 0
1, 290357, Control_c, 0, 64, 127
1, 290357, Control_c, 0, 64, 127
1, 290357, Control_c, 0, 64, 127
1, 291032, Control_c, 0, 64, 0
1, 291032, Control_c, 0, 64, 0
1, 291032, Control_c, 0, 64, 0
1, 291197, Control_c, 0, 64, 0
1, 291197, Control_c, 0, 64, 0
1, 291197, Control_c, 0, 64, 0
1, 291668, Note_on_c, 0, 61, 39
1, 291668, Note_on_c, 0, 66, 48
1, 291668, Note_on_c, 0, 57, 34
1, 291685, Control_c, 0, 64, 0
1, 291685, Control_c, 0, 64, 0
1, 291685, Control_c, 0, 64, 0
1, 291693, Note_on_c, 0, 62, 0
1, 291693, Note_on_c, 0, 59, 0
1, 291693, Note_on_c, 0, 65, 0
1, 291766, Control_c, 0, 64, 0
1, 291766, Control_c, 0, 64, 0
1, 291766, Control_c, 0, 64, 0
1, 291820, Control_c, 0, 64, 0
1, 291820, Control_c, 0, 64, 0
1, 291820, Control_c, 0, 64, 0
1, 291891, Control_c, 0, 64, 127
1, 291891, Control_c, 0, 64, 127
1, 291891, Control_c, 0, 64, 127
1, 292310, Note_on_c, 0, 61, 0
1, 292310, Note_on_c, 0, 66, 0
1, 292310, Note_on_c, 0, 61, 31
1, 292313, Note_on_c, 0, 57, 0
1, 292313, Note_on_c, 0, 66, 40
1, 292313, Note_on_c, 0, 42, 31
1, 292316, Note_on_c, 0, 57, 31
1, 292339, Note_on_c, 0, 54, 0
1, 293807, Note_on_c, 0, 61, 0
1, 293807, Note_on_c, 0, 66, 0
1, 293807, Control_c, 0, 64, 0
1, 293810, Note_on_c, 0, 42, 0
1, 293810, Control_c, 0, 64, 0
1, 293810, Control_c, 0, 64, 0
1, 293813, Note_on_c, 0, 57, 0
1, 294560, Note_on_c, 0, 66, 55
1, 294633, Note_on_c, 0, 69, 55
1, 294706, Note_on_c, 0, 73, 67
1, 294925, Control_c, 0, 64, 127
1, 294925, Control_c, 0, 64, 127
1, 295268, Note_on_c, 0, 69, 0
1, 295268, Note_on_c, 0, 66, 0
1, 295585, Note_on_c, 0, 65, 55
1, 295646, Note_on_c, 0, 68, 55
1, 295706, Note_on_c, 0, 71, 55
1, 295744, Control_c, 0, 64, 0
1, 295744, Control_c, 0, 64, 0
1, 295767, Note_on_c, 0, 73, 0
1, 295767, Note_on_c, 0, 73, 71
1, 295883, Control_c, 0, 64, 127
1, 295883, Control_c, 0, 64, 127
1, 296216, Note_on_c, 0, 65, 0
1, 296216, Note_on_c, 0, 71, 0
1, 296216, Note_on_c, 0, 68, 0
1, 296502, Note_on_c, 0, 64, 60
1, 296556, Note_on_c, 0, 66, 60
1, 296611, Note_on_c, 0, 70, 60
1, 296639, Control_c, 0, 64, 0
1, 296665, Note_on_c, 0, 73, 0
1, 296665, Note_on_c, 0, 73, 78
1, 296799, Control_c, 0, 64, 127
1, 296799, Control_c, 0, 64, 127
1, 296908, Control_c, 0, 64, 127
1, 296908, Control_c, 0, 64, 127
1, 297090, Control_c, 0, 64, 127
1, 297090, Control_c, 0, 64, 127
1, 297115, Note_on_c, 0, 64, 0
1, 297115, Note_on_c, 0, 70, 0
1, 297115, Note_on_c, 0, 66, 0
1, 297489, Control_c, 0, 64, 0
1, 297489, Control_c, 0, 64, 0
1, 297492, Note_on_c, 0, 62, 45
1, 297614, Note_on_c, 0, 66, 45
1, 298175, Note_on_c, 0, 66, 0
1, 298175, Note_on_c, 0, 62, 0
1, 298175, Control_c, 0, 64, 127
1, 298178, Note_on_c, 0, 71, 67
1, 298178, Control_c, 0, 64, 127
1, 298197, Note_on_c, 0, 73, 0
1, 298586, Control_c, 0, 64, 127
1, 298586, Control_c, 0, 64, 127
1, 298627, Note_on_c, 0, 61, 52
1, 298682, Note_on_c, 0, 66, 52
1, 298715, Control_c, 0, 64, 0
1, 298715, Control_c, 0, 64, 0
1, 298737, Note_on_c, 0, 71, 0
1, 298737, Note_on_c, 0, 69, 69
1, 298873, Control_c, 0, 64, 127
1, 298873, Control_c, 0, 64, 127
1, 298925, Note_on_c, 0, 49, 46
1, 299111, Note_on_c, 0, 49, 0
1, 299111, Note_on_c, 0, 61, 50
1, 299278, Note_on_c, 0, 61, 0
1, 299278, Note_on_c, 0, 66, 0
1, 299278, Note_on_c, 0, 61, 0
1, 299281, Note_on_c, 0, 49, 48
1, 299428, Note_on_c, 0, 49, 0
1, 299428, Note_on_c, 0, 61, 47
1, 299577, Note_on_c, 0, 61, 0
1, 299577, Note_on_c, 0, 49, 45
1, 299639, Note_on_c, 0, 59, 60
1, 299683, Note_on_c, 0, 65, 60
1, 299712, Control_c, 0, 64, 0
1, 299712, Control_c, 0, 64, 0
1, 299727, Note_on_c, 0, 49, 0
1, 299727, Note_on_c, 0, 68, 66
1, 299745, Note_on_c, 0, 69, 0
1, 299863, Control_c, 0, 64, 127
1, 299863, Control_c, 0, 64, 127
1, 299877, Note_on_c, 0, 49, 45
1, 300026, Note_on_c, 0, 49, 0
1, 300026, Note_on_c, 0, 61, 50
1, 300176, Note_on_c, 0, 61, 0
1, 300176, Note_on_c, 0, 65, 0
1, 300176, Note_on_c, 0, 59, 0
1, 300179, Note_on_c, 0, 49, 45
1, 300326, Note_on_c, 0, 49, 0
1, 300326, Note_on_c, 0, 61, 45
1, 300401, Note_on_c, 0, 69, 64
1, 300420, Note_on_c, 0, 68, 0
1, 300484, Note_on_c, 0, 61, 0
1, 300484, Note_on_c, 0, 49, 45
1, 300553, Note_on_c, 0, 57, 51
1, 300602, Note_on_c, 0, 66, 51
1, 300651, Note_on_c, 0, 49, 0
1, 300651, Note_on_c, 0, 69, 0
1, 300651, Note_on_c, 0, 69, 63
1, 300681, Control_c, 0, 64, 0
1, 300681, Control_c, 0, 64, 0
1, 300802, Control_c, 0, 64, 127
1, 300802, Control_c, 0, 64, 127
1, 300817, Note_on_c, 0, 49, 44
1, 300966, Note_on_c, 0, 49, 0
1, 300966, Note_on_c, 0, 61, 46
1, 301116, Note_on_c, 0, 61, 0
1, 301116, Note_on_c, 0, 57, 0
1, 301116, Note_on_c, 0, 66, 0
1, 301119, Note_on_c, 0, 49, 47
1, 301267, Note_on_c, 0, 49, 0
1, 301267, Note_on_c, 0, 61, 48
1, 301416, Note_on_c, 0, 61, 0
1, 301416, Note_on_c, 0, 49, 49
1, 301566, Note_on_c, 0, 49, 0
1, 301566, Note_on_c, 0, 61, 51
1, 301678, Note_on_c, 0, 61, 0
1, 301678, Note_on_c, 0, 49, 52
1, 301790, Note_on_c, 0, 49, 0
1, 301790, Note_on_c, 0, 61, 53
1, 301903, Note_on_c, 0, 61, 0
1, 301903, Note_on_c, 0, 49, 55
1, 301940, Control_c, 0, 64, 0
1, 301940, Control_c, 0, 64, 0
1, 301949, Note_on_c, 0, 62, 48
1, 302015, Note_on_c, 0, 49, 0
1, 302015, Note_on_c, 0, 69, 0
1, 302015, Note_on_c, 0, 66, 60
1, 302018, Note_on_c, 0, 35, 65
1, 302147, Control_c, 0, 64, 127
1, 302147, Control_c, 0, 64, 127
1, 302155, Note_on_c, 0, 47, 56
1, 302249, Note_on_c, 0, 47, 0
1, 302249, Note_on_c, 0, 59, 61
1, 302343, Note_on_c, 0, 59, 0
1, 302343, Note_on_c, 0, 47, 57
1, 302373, Note_on_c, 0, 61, 60
1, 302399, Control_c, 0, 64, 0
1, 302399, Control_c, 0, 64, 0
1, 302428, Note_on_c, 0, 66, 60
1, 302483, Note_on_c, 0, 66, 0
1, 302483, Note_on_c, 0, 62, 0
1, 302483, Note_on_c, 0, 73, 72
1, 302486, Note_on_c, 0, 47, 0
1, 302486, Note_on_c, 0, 35, 0
1, 302486, Note_on_c, 0, 37, 67
1, 302638, Control_c, 0, 64, 127
1, 302638, Control_c, 0, 64, 127
1, 302671, Note_on_c, 0, 45, 50
1, 302795, Note_on_c, 0, 45, 0
1, 302795, Note_on_c, 0, 57, 59
1, 302920, Note_on_c, 0, 57, 0
1, 302920, Note_on_c, 0, 66, 0
1, 302920, Note_on_c, 0, 61, 0
1, 302923, Note_on_c, 0, 45, 50
1, 303045, Note_on_c, 0, 45, 0
1, 303045, Note_on_c, 0, 57, 50
1, 303169, Note_on_c, 0, 57, 0
1, 303169, Note_on_c, 0, 45, 50
1, 303213, Note_on_c, 0, 61, 60
1, 303240, Note_on_c, 0, 65, 60
1, 303249, Control_c, 0, 64, 0
1, 303249, Control_c, 0, 64, 0
1, 303267, Note_on_c, 0, 71, 60
1, 303294, Note_on_c, 0, 73, 0
1, 303294, Note_on_c, 0, 37, 0
1, 303294, Note_on_c, 0, 73, 72
1, 303297, Note_on_c, 0, 45, 0
1, 303297, Note_on_c, 0, 37, 61
1, 303394, Control_c, 0, 64, 127
1, 303394, Control_c, 0, 64, 127
1, 303482, Note_on_c, 0, 44, 50
1, 303606, Note_on_c, 0, 44, 0
1, 303606, Note_on_c, 0, 56, 59
1, 303731, Note_on_c, 0, 65, 0
1, 303731, Note_on_c, 0, 61, 0
1, 303731, Note_on_c, 0, 71, 0
1, 303734, Note_on_c, 0, 56, 0
1, 303734, Note_on_c, 0, 44, 50
1, 303856, Note_on_c, 0, 44, 0
1, 303856, Note_on_c, 0, 56, 50
1, 304022, Note_on_c, 0, 45, 53
1, 304022, Note_on_c, 0, 57, 61
1, 304047, Note_on_c, 0, 56, 0
1, 304097, Note_on_c, 0, 61, 60
1, 304144, Note_on_c, 0, 66, 60
1, 304151, Control_c, 0, 64, 0
1, 304151, Control_c, 0, 64, 0
1, 304190, Note_on_c, 0, 69, 60
1, 304236, Note_on_c, 0, 73, 0
1, 304236, Note_on_c, 0, 37, 0
1, 304236, Note_on_c, 0, 73, 78
1, 304239, Note_on_c, 0, 30, 61
1, 304258, Note_on_c, 0, 57, 0
1, 304258, Note_on_c, 0, 45, 0
1, 304324, Control_c, 0, 64, 127
1, 304324, Control_c, 0, 64, 127
1, 304424, Note_on_c, 0, 45, 48
1, 304548, Note_on_c, 0, 45, 0
1, 304548, Note_on_c, 0, 57, 57
1, 304673, Note_on_c, 0, 69, 0
1, 304673, Note_on_c, 0, 61, 0
1, 304673, Note_on_c, 0, 66, 0
1, 304676, Note_on_c, 0, 57, 0
1, 304676, Note_on_c, 0, 45, 48
1, 304798, Note_on_c, 0, 45, 0
1, 304798, Note_on_c, 0, 57, 48
1, 304923, Note_on_c, 0, 57, 0
1, 304923, Note_on_c, 0, 45, 48
1, 305048, Note_on_c, 0, 45, 0
1, 305048, Note_on_c, 0, 57, 48
1, 305057, Control_c, 0, 64, 0
1, 305057, Control_c, 0, 64, 0
1, 305141, Note_on_c, 0, 57, 0
1, 305141, Note_on_c, 0, 45, 48
1, 305235, Note_on_c, 0, 45, 0
1, 305235, Control_c, 0, 64, 127
1, 305235, Control_c, 0, 64, 127
1, 305238, Note_on_c, 0, 57, 48
1, 305329, Note_on_c, 0, 57, 0
1, 305329, Note_on_c, 0, 45, 48
1, 305349, Note_on_c, 0, 62, 53
1, 305386, Note_on_c, 0, 66, 53
1, 305422, Note_on_c, 0, 30, 0
1, 305422, Note_on_c, 0, 71, 65
1, 305422, Note_on_c, 0, 38, 61
1, 305425, Note_on_c, 0, 45, 0
1, 305444, Note_on_c, 0, 73, 0
1, 305530, Control_c, 0, 64, 0
1, 305530, Control_c, 0, 64, 0
1, 305563, Note_on_c, 0, 42, 48
1, 305609, Control_c, 0, 64, 127
1, 305609, Control_c, 0, 64, 127
1, 305656, Note_on_c, 0, 42, 0
1, 305656, Note_on_c, 0, 54, 57
1, 305750, Note_on_c, 0, 54, 0
1, 305750, Note_on_c, 0, 42, 48
1, 305777, Note_on_c, 0, 61, 57
1, 305825, Control_c, 0, 64, 0
1, 305825, Note_on_c, 0, 66, 57
1, 305825, Control_c, 0, 64, 0
1, 305875, Note_on_c, 0, 62, 0
1, 305875, Note_on_c, 0, 66, 0
1, 305875, Note_on_c, 0, 69, 72
1, 305878, Note_on_c, 0, 42, 0
1, 305878, Note_on_c, 0, 38, 0
1, 305878, Note_on_c, 0, 37, 61
1, 305894, Note_on_c, 0, 71, 0
1, 305999, Control_c, 0, 64, 127
1, 305999, Control_c, 0, 64, 127
1, 306041, Note_on_c, 0, 49, 48
1, 306166, Note_on_c, 0, 49, 0
1, 306166, Note_on_c, 0, 61, 57
1, 306291, Note_on_c, 0, 61, 0
1, 306291, Note_on_c, 0, 61, 0
1, 306291, Note_on_c, 0, 66, 0
1, 306294, Note_on_c, 0, 49, 48
1, 306416, Note_on_c, 0, 49, 0
1, 306416, Note_on_c, 0, 61, 48
1, 306540, Note_on_c, 0, 61, 0
1, 306540, Note_on_c, 0, 49, 48
1, 306592, Note_on_c, 0, 59, 57
1, 306628, Note_on_c, 0, 65, 57
1, 306665, Control_c, 0, 64, 0
1, 306665, Note_on_c, 0, 68, 64
1, 306665, Control_c, 0, 64, 0
1, 306668, Note_on_c, 0, 49, 0
1, 306668, Note_on_c, 0, 37, 0
1, 306668, Note_on_c, 0, 37, 61
1, 306687, Note_on_c, 0, 69, 0
1, 306775, Control_c, 0, 64, 127
1, 306775, Control_c, 0, 64, 127
1, 306853, Note_on_c, 0, 49, 48
1, 306977, Note_on_c, 0, 49, 0
1, 306977, Note_on_c, 0, 61, 57
1, 307102, Note_on_c, 0, 61, 0
1, 307102, Note_on_c, 0, 65, 0
1, 307102, Note_on_c, 0, 59, 0
1, 307105, Note_on_c, 0, 49, 48
1, 307227, Note_on_c, 0, 49, 0
1, 307227, Note_on_c, 0, 61, 48
1, 307289, Note_on_c, 0, 69, 64
1, 307314, Note_on_c, 0, 68, 0
1, 307396, Note_on_c, 0, 61, 0
1, 307396, Note_on_c, 0, 49, 48
1, 307485, Note_on_c, 0, 57, 48
1, 307547, Note_on_c, 0, 66, 48
1, 307567, Control_c, 0, 64, 0
1, 307567, Control_c, 0, 64, 0
1, 307610, Note_on_c, 0, 37, 0
1, 307610, Note_on_c, 0, 69, 0
1, 307610, Note_on_c, 0, 69, 63
1, 307613, Note_on_c, 0, 49, 0
1, 307613, Note_on_c, 0, 42, 61
1, 307721, Control_c, 0, 64, 127
1, 307721, Control_c, 0, 64, 127
1, 307721, Control_c, 0, 64, 127
1, 307798, Note_on_c, 0, 49, 48
1, 307922, Note_on_c, 0, 49, 0
1, 307922, Note_on_c, 0, 61, 58
1, 308047, Note_on_c, 0, 61, 0
1, 308047, Note_on_c, 0, 66, 0
1, 308047, Note_on_c, 0, 57, 0
1, 308050, Note_on_c, 0, 49, 48
1, 308172, Note_on_c, 0, 49, 0
1, 308172, Note_on_c, 0, 61, 48
1, 308296, Note_on_c, 0, 61, 0
1, 308296, Note_on_c, 0, 49, 48
1, 308421, Note_on_c, 0, 49, 0
1, 308421, Note_on_c, 0, 61, 48
1, 308515, Note_on_c, 0, 61, 0
1, 308515, Note_on_c, 0, 49, 48
1, 308609, Note_on_c, 0, 49, 0
1, 308609, Note_on_c, 0, 61, 48
1, 308702, Note_on_c, 0, 61, 0
1, 308702, Note_on_c, 0, 49, 48
1, 308796, Note_on_c, 0, 49, 0
1, 308796, Note_on_c, 0, 42, 0
1, 308796, Note_on_c, 0, 38, 61
1, 308833, Control_c, 0, 64, 0
1, 308833, Control_c, 0, 64, 0
1, 308833, Control_c, 0, 64, 0
1, 308906, Control_c, 0, 64, 127
1, 308906, Control_c, 0, 64, 127
1, 308906, Control_c, 0, 64, 127
1, 308921, Note_on_c, 0, 47, 48
1, 309014, Note_on_c, 0, 47, 0
1, 309014, Note_on_c, 0, 59, 58
1, 309108, Note_on_c, 0, 59, 0
1, 309108, Note_on_c, 0, 47, 48
1, 309135, Note_on_c, 0, 61, 58
1, 309184, Note_on_c, 0, 64, 58
1, 309196, Control_c, 0, 64, 0
1, 309196, Control_c, 0, 64, 0
1, 309196, Control_c, 0, 64, 0
1, 309233, Note_on_c, 0, 38, 0
1, 309233, Note_on_c, 0, 69, 0
1, 309233, Note_on_c, 0, 73, 77
1, 309236, Note_on_c, 0, 47, 0
1, 309236, Note_on_c, 0, 40, 56
1, 309357, Control_c, 0, 64, 127
1, 309357, Control_c, 0, 64, 127
1, 309399, Note_on_c, 0, 45, 49
1, 309524, Note_on_c, 0, 45, 0
1, 309524, Note_on_c, 0, 57, 54
1, 309649, Note_on_c, 0, 57, 0
1, 309649, Note_on_c, 0, 64, 0
1, 309649, Note_on_c, 0, 61, 0
1, 309652, Note_on_c, 0, 45, 49
1, 309774, Note_on_c, 0, 45, 0
1, 309774, Note_on_c, 0, 57, 49
1, 309898, Note_on_c, 0, 57, 0
1, 309898, Note_on_c, 0, 45, 49
1, 309950, Note_on_c, 0, 60, 58
1, 309987, Note_on_c, 0, 64, 58
1, 310023, Control_c, 0, 64, 0
1, 310023, Note_on_c, 0, 72, 77
1, 310023, Control_c, 0, 64, 0
1, 310026, Note_on_c, 0, 45, 0
1, 310026, Note_on_c, 0, 40, 0
1, 310026, Note_on_c, 0, 40, 56
1, 310045, Note_on_c, 0, 73, 0
1, 310121, Control_c, 0, 64, 127
1, 310121, Control_c, 0, 64, 127
1, 310190, Note_on_c, 0, 44, 49
1, 310314, Note_on_c, 0, 44, 0
1, 310314, Note_on_c, 0, 56, 54
1, 310439, Note_on_c, 0, 56, 0
1, 310439, Note_on_c, 0, 64, 0
1, 310439, Note_on_c, 0, 60, 0
1, 310442, Note_on_c, 0, 44, 49
1, 310553, Note_on_c, 0, 61, 58
1, 310564, Note_on_c, 0, 44, 0
1, 310564, Note_on_c, 0, 56, 49
1, 310598, Note_on_c, 0, 64, 58
1, 310647, Note_on_c, 0, 73, 77
1, 310669, Note_on_c, 0, 72, 0
1, 310730, Note_on_c, 0, 56, 0
1, 310730, Note_on_c, 0, 45, 49
1, 310730, Note_on_c, 0, 57, 54
1, 310784, Note_on_c, 0, 61, 0
1, 310784, Note_on_c, 0, 61, 61
1, 310864, Note_on_c, 0, 64, 0
1, 310864, Note_on_c, 0, 73, 0
1, 310864, Note_on_c, 0, 73, 61
1, 310902, Control_c, 0, 64, 0
1, 310902, Control_c, 0, 64, 0
1, 310944, Note_on_c, 0, 45, 0
1, 310944, Note_on_c, 0, 40, 0
1, 310944, Note_on_c, 0, 76, 84
1, 310947, Note_on_c, 0, 57, 0
1, 310947, Note_on_c, 0, 33, 61
1, 311045, Control_c, 0, 64, 127
1, 311045, Control_c, 0, 64, 127
1, 311159, Note_on_c, 0, 45, 46
1, 311283, Note_on_c, 0, 45, 0
1, 311283, Note_on_c, 0, 57, 46
1, 311408, Note_on_c, 0, 57, 0
1, 311408, Note_on_c, 0, 73, 0
1, 311408, Note_on_c, 0, 61, 0
1, 311411, Note_on_c, 0, 45, 46
1, 311533, Note_on_c, 0, 45, 0
1, 311533, Note_on_c, 0, 57, 46
1, 311657, Note_on_c, 0, 57, 0
1, 311657, Note_on_c, 0, 45, 46
1, 311670, Control_c, 0, 64, 127
1, 311670, Control_c, 0, 64, 127
1, 311782, Note_on_c, 0, 45, 0
1, 311782, Note_on_c, 0, 57, 46
1, 311907, Note_on_c, 0, 57, 0
1, 311907, Note_on_c, 0, 45, 46
1, 312032, Note_on_c, 0, 45, 0
1, 312032, Note_on_c, 0, 57, 46
1, 312084, Note_on_c, 0, 61, 58
1, 312120, Note_on_c, 0, 69, 58
1, 312157, Note_on_c, 0, 57, 0
1, 312157, Note_on_c, 0, 73, 73
1, 312157, Note_on_c, 0, 45, 46
1, 312178, Note_on_c, 0, 76, 0
1, 312324, Note_on_c, 0, 45, 0
1, 312324, Note_on_c, 0, 57, 46
1, 312489, Note_on_c, 0, 57, 0
1, 312489, Note_on_c, 0, 45, 46
1, 312556, Control_c, 0, 64, 0
1, 312556, Control_c, 0, 64, 0
1, 312559, Note_on_c, 0, 64, 62
1, 312607, Note_on_c, 0, 69, 62
1, 312656, Note_on_c, 0, 73, 0
1, 312656, Note_on_c, 0, 69, 0
1, 312656, Note_on_c, 0, 61, 0
1, 312659, Note_on_c, 0, 45, 0
1, 312659, Note_on_c, 0, 33, 0
1, 312659, Note_on_c, 0, 76, 84
1, 312662, Note_on_c, 0, 33, 56
1, 312781, Control_c, 0, 64, 127
1, 312781, Control_c, 0, 64, 127
1, 312823, Note_on_c, 0, 49, 45
1, 312947, Note_on_c, 0, 49, 0
1, 312947, Note_on_c, 0, 61, 68
1, 313072, Note_on_c, 0, 61, 0
1, 313072, Note_on_c, 0, 64, 0
1, 313072, Note_on_c, 0, 69, 0
1, 313075, Note_on_c, 0, 49, 45
1, 313197, Note_on_c, 0, 49, 0
1, 313197, Note_on_c, 0, 61, 45
1, 313321, Note_on_c, 0, 61, 0
1, 313321, Note_on_c, 0, 49, 45
1, 313373, Note_on_c, 0, 63, 62
1, 313410, Note_on_c, 0, 69, 62
1, 313447, Control_c, 0, 64, 0
1, 313447, Note_on_c, 0, 75, 84
1, 313447, Control_c, 0, 64, 0
1, 313450, Note_on_c, 0, 49, 0
1, 313450, Note_on_c, 0, 33, 0
1, 313450, Note_on_c, 0, 45, 56
1, 313468, Note_on_c, 0, 76, 0
1, 313544, Control_c, 0, 64, 127
1, 313544, Control_c, 0, 64, 127
1, 313613, Note_on_c, 0, 48, 45
1, 313738, Note_on_c, 0, 48, 0
1, 313738, Note_on_c, 0, 60, 68
1, 313863, Note_on_c, 0, 60, 0
1, 313863, Note_on_c, 0, 69, 0
1, 313863, Note_on_c, 0, 63, 0
1, 313866, Note_on_c, 0, 48, 45
1, 313977, Note_on_c, 0, 64, 62
1, 313988, Note_on_c, 0, 48, 0
1, 313988, Note_on_c, 0, 60, 45
1, 314022, Note_on_c, 0, 69, 62
1, 314071, Note_on_c, 0, 76, 84
1, 314092, Note_on_c, 0, 75, 0
1, 314153, Note_on_c, 0, 60, 0
1, 314153, Note_on_c, 0, 49, 45
1, 314153, Note_on_c, 0, 61, 68
1, 314231, Note_on_c, 0, 68, 69
1, 314286, Note_on_c, 0, 73, 69
1, 314304, Control_c, 0, 64, 0
1, 314304, Control_c, 0, 64, 0
1, 314341, Note_on_c, 0, 69, 0
1, 314341, Note_on_c, 0, 64, 0
1, 314341, Note_on_c, 0, 80, 84
1, 314344, Note_on_c, 0, 49, 0
1, 314344, Note_on_c, 0, 61, 0
1, 314344, Note_on_c, 0, 45, 0
1, 314347, Note_on_c, 0, 40, 61
1, 314365, Note_on_c, 0, 76, 0
1, 314429, Control_c, 0, 64, 127
1, 314429, Control_c, 0, 64, 127
1, 314529, Note_on_c, 0, 52, 46
1, 314678, Note_on_c, 0, 52, 0
1, 314678, Note_on_c, 0, 64, 66
1, 314844, Note_on_c, 0, 64, 0
1, 314844, Note_on_c, 0, 73, 0
1, 314844, Note_on_c, 0, 68, 0
1, 314847, Note_on_c, 0, 52, 46
1, 314969, Note_on_c, 0, 52, 0
1, 314969, Note_on_c, 0, 64, 46
1, 315094, Note_on_c, 0, 64, 0
1, 315094, Note_on_c, 0, 52, 46
1, 315106, Control_c, 0, 64, 127
1, 315106, Control_c, 0, 64, 127
1, 315219, Note_on_c, 0, 52, 0
1, 315219, Note_on_c, 0, 64, 46
1, 315344, Note_on_c, 0, 64, 0
1, 315344, Note_on_c, 0, 52, 46
1, 315468, Note_on_c, 0, 52, 0
1, 315468, Note_on_c, 0, 64, 46
1, 315538, Note_on_c, 0, 68, 62
1, 315593, Note_on_c, 0, 64, 0
1, 315593, Note_on_c, 0, 40, 0
1, 315593, Note_on_c, 0, 76, 72
1, 315596, Note_on_c, 0, 49, 46
1, 315617, Note_on_c, 0, 80, 0
1, 315781, Note_on_c, 0, 49, 0
1, 315781, Note_on_c, 0, 61, 63
1, 315967, Note_on_c, 0, 61, 0
1, 315967, Note_on_c, 0, 49, 46
1, 316053, Control_c, 0, 64, 0
1, 316053, Control_c, 0, 64, 0
1, 316056, Note_on_c, 0, 61, 58
1, 316119, Note_on_c, 0, 69, 58
1, 316182, Note_on_c, 0, 49, 0
1, 316182, Note_on_c, 0, 68, 0
1, 316182, Note_on_c, 0, 73, 82
1, 316185, Note_on_c, 0, 45, 56
1, 316209, Note_on_c, 0, 76, 0
1, 316342, Control_c, 0, 64, 127
1, 316342, Control_c, 0, 64, 127
1, 316396, Note_on_c, 0, 52, 45
1, 316520, Note_on_c, 0, 52, 0
1, 316520, Note_on_c, 0, 64, 64
1, 316645, Note_on_c, 0, 64, 0
1, 316645, Note_on_c, 0, 61, 0
1, 316645, Note_on_c, 0, 69, 0
1, 316648, Note_on_c, 0, 52, 46
1, 316770, Note_on_c, 0, 52, 0
1, 316770, Note_on_c, 0, 64, 46
1, 316895, Note_on_c, 0, 64, 0
1, 316895, Note_on_c, 0, 52, 47
1, 317020, Control_c, 0, 64, 0
1, 317020, Note_on_c, 0, 60, 61
1, 317020, Note_on_c, 0, 69, 61
1, 317023, Note_on_c, 0, 45, 0
1, 317023, Note_on_c, 0, 72, 82
1, 317023, Control_c, 0, 64, 0
1, 317026, Note_on_c, 0, 52, 0
1, 317026, Note_on_c, 0, 45, 59
1, 317041, Note_on_c, 0, 73, 0
1, 317117, Control_c, 0, 64, 127
1, 317117, Control_c, 0, 64, 127
1, 317186, Note_on_c, 0, 51, 48
1, 317336, Note_on_c, 0, 51, 0
1, 317336, Note_on_c, 0, 63, 66
1, 317486, Note_on_c, 0, 63, 0
1, 317486, Note_on_c, 0, 60, 0
1, 317486, Note_on_c, 0, 69, 0
1, 317489, Note_on_c, 0, 51, 48
1, 317636, Note_on_c, 0, 51, 0
1, 317636, Note_on_c, 0, 63, 49
1, 317729, Note_on_c, 0, 61, 63
1, 317729, Note_on_c, 0, 69, 63
1, 317729, Note_on_c, 0, 73, 86
1, 317753, Note_on_c, 0, 72, 0
1, 317822, Note_on_c, 0, 63, 0
1, 317822, Note_on_c, 0, 52, 49
1, 317822, Note_on_c, 0, 64, 68
1, 317911, Note_on_c, 0, 61, 72
1, 317974, Note_on_c, 0, 71, 72
1, 317994, Control_c, 0, 64, 0
1, 317994, Control_c, 0, 64, 0
1, 318037, Note_on_c, 0, 61, 0
1, 318037, Note_on_c, 0, 69, 0
1, 318037, Note_on_c, 0, 73, 0
1, 318040, Note_on_c, 0, 45, 0
1, 318040, Note_on_c, 0, 52, 0
1, 318040, Note_on_c, 0, 73, 84
1, 318043, Note_on_c, 0, 64, 0
1, 318043, Note_on_c, 0, 41, 73
1, 318137, Control_c, 0, 64, 127
1, 318137, Control_c, 0, 64, 127
1, 318251, Note_on_c, 0, 56, 72
1, 318417, Note_on_c, 0, 56, 0
1, 318417, Note_on_c, 0, 68, 79
1, 318479, Note_on_c, 0, 71, 75
1, 318523, Note_on_c, 0, 74, 75
1, 318567, Note_on_c, 0, 73, 0
1, 318567, Note_on_c, 0, 61, 0
1, 318567, Note_on_c, 0, 71, 0
1, 318570, Note_on_c, 0, 68, 0
1, 318570, Note_on_c, 0, 83, 87
1, 318570, Note_on_c, 0, 56, 70
1, 318717, Note_on_c, 0, 56, 0
1, 318717, Note_on_c, 0, 68, 69
1, 318866, Note_on_c, 0, 68, 0
1, 318866, Note_on_c, 0, 56, 68
1, 318881, Control_c, 0, 64, 127
1, 318881, Control_c, 0, 64, 127
1, 319016, Note_on_c, 0, 56, 0
1, 319016, Note_on_c, 0, 74, 0
1, 319016, Note_on_c, 0, 71, 0
1, 319019, Note_on_c, 0, 68, 67
1, 319128, Note_on_c, 0, 68, 0
1, 319128, Note_on_c, 0, 56, 66
1, 319241, Note_on_c, 0, 56, 0
1, 319241, Note_on_c, 0, 68, 65
1, 319353, Note_on_c, 0, 68, 0
1, 319353, Note_on_c, 0, 56, 64
1, 319457, Control_c, 0, 64, 0
1, 319457, Control_c, 0, 64, 0
1, 319465, Note_on_c, 0, 69, 65
1, 319465, Note_on_c, 0, 73, 65
1, 319465, Note_on_c, 0, 81, 83
1, 319468, Note_on_c, 0, 56, 0
1, 319468, Note_on_c, 0, 41, 0
1, 319468, Note_on_c, 0, 42, 63
1, 319489, Note_on_c, 0, 83, 0
1, 319601, Control_c, 0, 64, 127
1, 319601, Control_c, 0, 64, 127
1, 319606, Note_on_c, 0, 54, 63
1, 319718, Note_on_c, 0, 54, 0
1, 319718, Note_on_c, 0, 66, 70
1, 319830, Note_on_c, 0, 66, 0
1, 319830, Note_on_c, 0, 54, 61
1, 319852, Control_c, 0, 64, 0
1, 319852, Control_c, 0, 64, 0
1, 319943, Note_on_c, 0, 42, 0
1, 319962, Note_on_c, 0, 73, 0
1, 319962, Note_on_c, 0, 69, 0
1, 319962, Note_on_c, 0, 81, 0
1, 319967, Note_on_c, 0, 65, 62
1, 320011, Note_on_c, 0, 68, 62
1, 320055, Note_on_c, 0, 54, 0
1, 320055, Note_on_c, 0, 77, 81
1, 320055, Note_on_c, 0, 44, 56
1, 320195, Control_c, 0, 64, 127
1, 320195, Control_c, 0, 64, 127
1, 320243, Note_on_c, 0, 49, 49
1, 320367, Note_on_c, 0, 49, 0
1, 320367, Note_on_c, 0, 61, 70
1, 320492, Note_on_c, 0, 61, 0
1, 320492, Note_on_c, 0, 68, 0
1, 320492, Note_on_c, 0, 65, 0
1, 320495, Note_on_c, 0, 49, 50
1, 320617, Note_on_c, 0, 49, 0
1, 320617, Note_on_c, 0, 61, 51
1, 320741, Note_on_c, 0, 61, 0
1, 320741, Note_on_c, 0, 49, 51
1, 320793, Note_on_c, 0, 66, 62
1, 320830, Note_on_c, 0, 69, 62
1, 320866, Note_on_c, 0, 77, 0
1, 320866, Control_c, 0, 64, 0
1, 320866, Note_on_c, 0, 75, 81
1, 320869, Note_on_c, 0, 44, 0
1, 320869, Control_c, 0, 64, 0
1, 320869, Note_on_c, 0, 44, 60
1, 320872, Note_on_c, 0, 49, 0
1, 320976, Control_c, 0, 64, 127
1, 320976, Control_c, 0, 64, 127
1, 321054, Note_on_c, 0, 48, 52
1, 321203, Note_on_c, 0, 48, 0
1, 321203, Note_on_c, 0, 60, 75
1, 321353, Note_on_c, 0, 60, 0
1, 321353, Note_on_c, 0, 69, 0
1, 321353, Note_on_c, 0, 66, 0
1, 321356, Note_on_c, 0, 48, 53
1, 321503, Note_on_c, 0, 48, 0
1, 321503, Note_on_c, 0, 60, 54
1, 321596, Note_on_c, 0, 75, 0
1, 321596, Note_on_c, 0, 65, 57
1, 321596, Note_on_c, 0, 68, 57
1, 321599, Note_on_c, 0, 73, 76
1, 321690, Note_on_c, 0, 60, 0
1, 321690, Note_on_c, 0, 49, 54
1, 321690, Note_on_c, 0, 61, 78
1, 321779, Note_on_c, 0, 65, 60
1, 321841, Note_on_c, 0, 68, 60
1, 321861, Control_c, 0, 64, 0
1, 321861, Control_c, 0, 64, 0
1, 321904, Note_on_c, 0, 68, 0
1, 321904, Note_on_c, 0, 73, 0
1, 321904, Note_on_c, 0, 65, 0
1, 321907, Note_on_c, 0, 44, 0
1, 321907, Note_on_c, 0, 73, 72
1, 321907, Note_on_c, 0, 37, 83
1, 321922, Control_c, 0, 64, 127
1, 321922, Control_c, 0, 64, 127
1, 322092, Note_on_c, 0, 49, 0
1, 322092, Note_on_c, 0, 61, 0
1, 322092, Note_on_c, 0, 49, 72
1, 322241, Note_on_c, 0, 49, 0
1, 322241, Note_on_c, 0, 61, 72
1, 322293, Note_on_c, 0, 61, 60
1, 322326, Note_on_c, 0, 65, 60
1, 322358, Note_on_c, 0, 68, 60
1, 322391, Note_on_c, 0, 61, 0
1, 322391, Note_on_c, 0, 68, 0
1, 322391, Note_on_c, 0, 65, 0
1, 322394, Note_on_c, 0, 59, 83
1, 322605, Note_on_c, 0, 59, 0
1, 322605, Note_on_c, 0, 71, 80
1, 322792, Note_on_c, 0, 71, 0
1, 322792, Note_on_c, 0, 59, 78
1, 322958, Note_on_c, 0, 61, 0
1, 322958, Note_on_c, 0, 68, 0
1, 322958, Note_on_c, 0, 65, 0
1, 322961, Note_on_c, 0, 59, 0
1, 322961, Note_on_c, 0, 71, 75
1, 323108, Note_on_c, 0, 71, 0
1, 323108, Note_on_c, 0, 59, 72
1, 323258, Note_on_c, 0, 59, 0
1, 323258, Note_on_c, 0, 71, 69
1, 323320, Note_on_c, 0, 61, 60
1, 323364, Note_on_c, 0, 66, 60
1, 323408, Note_on_c, 0, 71, 0
1, 323408, Note_on_c, 0, 57, 66
1, 323558, Note_on_c, 0, 57, 0
1, 323558, Note_on_c, 0, 69, 68
1, 323707, Note_on_c, 0, 69, 0
1, 323707, Note_on_c, 0, 57, 61
1, 323752, Note_on_c, 0, 61, 60
1, 323778, Note_on_c, 0, 65, 60
1, 323782, Control_c, 0, 64, 0
1, 323782, Control_c, 0, 64, 0
1, 323804, Note_on_c, 0, 68, 60
1, 323831, Note_on_c, 0, 71, 60
1, 323857, Note_on_c, 0, 61, 0
1, 323857, Note_on_c, 0, 66, 0
1, 323857, Note_on_c, 0, 73, 0
1, 323860, Note_on_c, 0, 37, 0
1, 323860, Note_on_c, 0, 57, 0
1, 323860, Note_on_c, 0, 73, 78
1, 323863, Note_on_c, 0, 37, 73
1, 323886, Control_c, 0, 64, 127
1, 323886, Control_c, 0, 64, 127
1, 324044, Note_on_c, 0, 53, 61
1, 324194, Note_on_c, 0, 53, 0
1, 324194, Note_on_c, 0, 65, 73
1, 324319, Note_on_c, 0, 61, 0
1, 324319, Note_on_c, 0, 68, 0
1, 324319, Note_on_c, 0, 65, 0
1, 324322, Note_on_c, 0, 65, 0
1, 324322, Note_on_c, 0, 71, 0
1, 324322, Note_on_c, 0, 53, 61
1, 324444, Note_on_c, 0, 53, 0
1, 324444, Note_on_c, 0, 65, 61
1, 324568, Note_on_c, 0, 65, 0
1, 324568, Note_on_c, 0, 53, 61
1, 324605, Note_on_c, 0, 61, 60
1, 324627, Note_on_c, 0, 66, 60
1, 324649, Note_on_c, 0, 69, 60
1, 324671, Note_on_c, 0, 72, 60
1, 324693, Note_on_c, 0, 37, 0
1, 324693, Note_on_c, 0, 73, 0
1, 324693, Note_on_c, 0, 73, 78
1, 324696, Note_on_c, 0, 53, 0
1, 324696, Note_on_c, 0, 49, 61
1, 324711, Control_c, 0, 64, 0
1, 324711, Control_c, 0, 64, 0
1, 324825, Control_c, 0, 64, 127
1, 324825, Control_c, 0, 64, 127
1, 324860, Note_on_c, 0, 51, 61
1, 324984, Note_on_c, 0, 51, 0
1, 324984, Note_on_c, 0, 63, 73
1, 325109, Note_on_c, 0, 69, 0
1, 325109, Note_on_c, 0, 66, 0
1, 325109, Note_on_c, 0, 61, 0
1, 325112, Note_on_c, 0, 63, 0
1, 325112, Note_on_c, 0, 72, 0
1, 325112, Note_on_c, 0, 51, 61
1, 325234, Note_on_c, 0, 51, 0
1, 325234, Note_on_c, 0, 63, 61
1, 325359, Note_on_c, 0, 63, 0
1, 325359, Note_on_c, 0, 51, 61
1, 325414, Control_c, 0, 64, 0
1, 325414, Control_c, 0, 64, 0
1, 325424, Note_on_c, 0, 61, 54
1, 325465, Note_on_c, 0, 65, 54
1, 325505, Note_on_c, 0, 68, 54
1, 325546, Note_on_c, 0, 49, 0
1, 325546, Note_on_c, 0, 73, 0
1, 325546, Note_on_c, 0, 73, 72
1, 325549, Note_on_c, 0, 51, 0
1, 325549, Note_on_c, 0, 49, 58
1, 325578, Control_c, 0, 64, 127
1, 325578, Control_c, 0, 64, 127
1, 325734, Note_on_c, 0, 49, 0
1, 325734, Note_on_c, 0, 61, 57
1, 325883, Note_on_c, 0, 61, 0
1, 325883, Note_on_c, 0, 49, 57
1, 326008, Note_on_c, 0, 68, 0
1, 326008, Note_on_c, 0, 61, 0
1, 326008, Note_on_c, 0, 65, 0
1, 326011, Note_on_c, 0, 49, 0
1, 326011, Note_on_c, 0, 61, 56
1, 326133, Note_on_c, 0, 61, 0
1, 326133, Note_on_c, 0, 49, 55
1, 326257, Note_on_c, 0, 49, 0
1, 326257, Note_on_c, 0, 61, 54
1, 326382, Note_on_c, 0, 61, 0
1, 326382, Note_on_c, 0, 62, 63
1, 326382, Note_on_c, 0, 66, 63
1, 326385, Note_on_c, 0, 49, 54
1, 326570, Note_on_c, 0, 49, 0
1, 326570, Note_on_c, 0, 61, 53
1, 326719, Note_on_c, 0, 61, 0
1, 326719, Note_on_c, 0, 49, 52
1, 326869, Note_on_c, 0, 49, 0
1, 326869, Note_on_c, 0, 71, 66
1, 326869, Note_on_c, 0, 61, 52
1, 326887, Note_on_c, 0, 73, 0
1, 326935, Control_c, 0, 64, 0
1, 326935, Control_c, 0, 64, 0
1, 326981, Note_on_c, 0, 61, 0
1, 326981, Note_on_c, 0, 49, 51
1, 327094, Note_on_c, 0, 49, 0
1, 327094, Note_on_c, 0, 61, 51
1, 327122, Control_c, 0, 64, 127
1, 327122, Control_c, 0, 64, 127
1, 327206, Note_on_c, 0, 61, 0
1, 327206, Note_on_c, 0, 49, 50
1, 327237, Note_on_c, 0, 61, 60
1, 327276, Control_c, 0, 64, 0
1, 327276, Control_c, 0, 64, 0
1, 327292, Note_on_c, 0, 66, 60
1, 327346, Note_on_c, 0, 62, 0
1, 327346, Note_on_c, 0, 71, 0
1, 327346, Note_on_c, 0, 66, 0
1, 327349, Note_on_c, 0, 49, 0
1, 327349, Note_on_c, 0, 69, 75
1, 327349, Note_on_c, 0, 37, 61
1, 327467, Control_c, 0, 64, 127
1, 327467, Control_c, 0, 64, 127
1, 327513, Note_on_c, 0, 49, 51
1, 327662, Note_on_c, 0, 49, 0
1, 327662, Note_on_c, 0, 61, 55
1, 327812, Note_on_c, 0, 61, 0
1, 327812, Note_on_c, 0, 61, 0
1, 327812, Note_on_c, 0, 66, 0
1, 327815, Note_on_c, 0, 49, 53
1, 327962, Note_on_c, 0, 49, 0
1, 327962, Note_on_c, 0, 61, 52
1, 328112, Note_on_c, 0, 61, 0
1, 328112, Note_on_c, 0, 49, 50
1, 328174, Note_on_c, 0, 59, 60
1, 328218, Note_on_c, 0, 65, 60
1, 328247, Control_c, 0, 64, 0
1, 328247, Control_c, 0, 64, 0
1, 328262, Note_on_c, 0, 37, 0
1, 328262, Note_on_c, 0, 68, 69
1, 328262, Note_on_c, 0, 37, 61
1, 328265, Note_on_c, 0, 49, 0
1, 328281, Note_on_c, 0, 69, 0
1, 328413, Control_c, 0, 64, 127
1, 328413, Control_c, 0, 64, 127
1, 328428, Note_on_c, 0, 49, 50
1, 328578, Note_on_c, 0, 49, 0
1, 328578, Note_on_c, 0, 61, 56
1, 328728, Note_on_c, 0, 61, 0
1, 328728, Note_on_c, 0, 59, 0
1, 328728, Note_on_c, 0, 65, 0
1, 328731, Note_on_c, 0, 49, 50
1, 328878, Note_on_c, 0, 49, 0
1, 328878, Note_on_c, 0, 61, 50
1, 328952, Note_on_c, 0, 69, 67
1, 328972, Note_on_c, 0, 68, 0
1, 329035, Note_on_c, 0, 61, 0
1, 329035, Note_on_c, 0, 49, 50
1, 329104, Note_on_c, 0, 57, 51
1, 329153, Note_on_c, 0, 66, 51
1, 329202, Note_on_c, 0, 37, 0
1, 329202, Note_on_c, 0, 69, 0
1, 329202, Note_on_c, 0, 69, 66
1, 329205, Note_on_c, 0, 49, 0
1, 329205, Note_on_c, 0, 38, 70
1, 329236, Control_c, 0, 64, 0
1, 329236, Control_c, 0, 64, 0
1, 329372, Control_c, 0, 64, 127
1, 329372, Control_c, 0, 64, 127
1, 329389, Note_on_c, 0, 49, 48
1, 329514, Note_on_c, 0, 49, 0
1, 329514, Note_on_c, 0, 61, 59
1, 329639, Note_on_c, 0, 61, 0
1, 329639, Note_on_c, 0, 66, 0
1, 329639, Note_on_c, 0, 57, 0
1, 329642, Note_on_c, 0, 49, 51
1, 329764, Note_on_c, 0, 49, 0
1, 329764, Note_on_c, 0, 61, 52
1, 329888, Note_on_c, 0, 61, 0
1, 329888, Note_on_c, 0, 49, 53
1, 330013, Note_on_c, 0, 49, 0
1, 330013, Note_on_c, 0, 61, 55
1, 330125, Note_on_c, 0, 61, 0
1, 330125, Note_on_c, 0, 49, 56
1, 330238, Note_on_c, 0, 49, 0
1, 330238, Note_on_c, 0, 61, 57
1, 330350, Note_on_c, 0, 61, 0
1, 330350, Note_on_c, 0, 49, 59
1, 330388, Control_c, 0, 64, 0
1, 330388, Control_c, 0, 64, 0
1, 330397, Note_on_c, 0, 62, 63
1, 330462, Note_on_c, 0, 69, 0
1, 330462, Note_on_c, 0, 38, 0
1, 330462, Note_on_c, 0, 66, 78
1, 330465, Note_on_c, 0, 49, 0
1, 330465, Note_on_c, 0, 35, 74
1, 330594, Control_c, 0, 64, 127
1, 330594, Control_c, 0, 64, 127
1, 330603, Note_on_c, 0, 47, 60
1, 330696, Note_on_c, 0, 47, 0
1, 330696, Note_on_c, 0, 59, 74
1, 330790, Note_on_c, 0, 59, 0
1, 330790, Note_on_c, 0, 47, 61
1, 330821, Note_on_c, 0, 61, 60
1, 330846, Control_c, 0, 64, 0
1, 330846, Control_c, 0, 64, 0
1, 330876, Note_on_c, 0, 66, 60
1, 330930, Note_on_c, 0, 66, 0
1, 330930, Note_on_c, 0, 62, 0
1, 330930, Note_on_c, 0, 73, 79
1, 330933, Note_on_c, 0, 47, 0
1, 330933, Note_on_c, 0, 35, 0
1, 330933, Note_on_c, 0, 33, 76
1, 331085, Control_c, 0, 64, 127
1, 331085, Control_c, 0, 64, 127
1, 331118, Note_on_c, 0, 45, 54
1, 331242, Note_on_c, 0, 45, 0
1, 331242, Note_on_c, 0, 57, 68
1, 331367, Note_on_c, 0, 57, 0
1, 331367, Note_on_c, 0, 66, 0
1, 331367, Note_on_c, 0, 61, 0
1, 331370, Note_on_c, 0, 45, 54
1, 331492, Note_on_c, 0, 45, 0
1, 331492, Note_on_c, 0, 57, 54
1, 331617, Note_on_c, 0, 57, 0
1, 331617, Note_on_c, 0, 45, 54
1, 331661, Note_on_c, 0, 61, 63
1, 331688, Note_on_c, 0, 65, 63
1, 331696, Control_c, 0, 64, 0
1, 331696, Control_c, 0, 64, 0
1, 331715, Note_on_c, 0, 71, 63
1, 331742, Note_on_c, 0, 73, 0
1, 331742, Note_on_c, 0, 33, 0
1, 331742, Note_on_c, 0, 73, 82
1, 331745, Note_on_c, 0, 45, 0
1, 331745, Note_on_c, 0, 32, 70
1, 331842, Control_c, 0, 64, 127
1, 331842, Control_c, 0, 64, 127
1, 331929, Note_on_c, 0, 44, 54
1, 332054, Note_on_c, 0, 44, 0
1, 332054, Note_on_c, 0, 56, 68
1, 332179, Note_on_c, 0, 65, 0
1, 332179, Note_on_c, 0, 61, 0
1, 332179, Note_on_c, 0, 71, 0
1, 332182, Note_on_c, 0, 56, 0
1, 332182, Note_on_c, 0, 44, 54
1, 332304, Note_on_c, 0, 44, 0
1, 332304, Note_on_c, 0, 56, 54
1, 332387, Note_on_c, 0, 73, 0
1, 332387, Note_on_c, 0, 73, 80
1, 332469, Note_on_c, 0, 45, 53
1, 332469, Note_on_c, 0, 57, 70
1, 332495, Note_on_c, 0, 56, 0
1, 332545, Note_on_c, 0, 61, 66
1, 332591, Note_on_c, 0, 66, 66
1, 332599, Control_c, 0, 64, 0
1, 332599, Control_c, 0, 64, 0
1, 332637, Note_on_c, 0, 69, 66
1, 332684, Note_on_c, 0, 32, 0
1, 332684, Note_on_c, 0, 73, 0
1, 332684, Note_on_c, 0, 73, 87
1, 332687, Note_on_c, 0, 30, 70
1, 332706, Note_on_c, 0, 57, 0
1, 332706, Note_on_c, 0, 45, 0
1, 332772, Control_c, 0, 64, 127
1, 332772, Control_c, 0, 64, 127
1, 332871, Note_on_c, 0, 45, 52
1, 332996, Note_on_c, 0, 45, 0
1, 332996, Note_on_c, 0, 57, 66
1, 333121, Note_on_c, 0, 69, 0
1, 333121, Note_on_c, 0, 61, 0
1, 333121, Note_on_c, 0, 66, 0
1, 333124, Note_on_c, 0, 57, 0
1, 333124, Note_on_c, 0, 45, 52
1, 333246, Note_on_c, 0, 45, 0
1, 333246, Note_on_c, 0, 57, 52
1, 333370, Note_on_c, 0, 57, 0
1, 333370, Note_on_c, 0, 45, 52
1, 333495, Note_on_c, 0, 45, 0
1, 333495, Note_on_c, 0, 57, 52
1, 333504, Control_c, 0, 64, 0
1, 333504, Control_c, 0, 64, 0
1, 333589, Note_on_c, 0, 57, 0
1, 333589, Note_on_c, 0, 45, 52
1, 333682, Note_on_c, 0, 45, 0
1, 333682, Control_c, 0, 64, 127
1, 333682, Control_c, 0, 64, 127
1, 333685, Note_on_c, 0, 57, 52
1, 333776, Note_on_c, 0, 57, 0
1, 333776, Note_on_c, 0, 45, 52
1, 333796, Note_on_c, 0, 62, 59
1, 333833, Note_on_c, 0, 66, 59
1, 333870, Note_on_c, 0, 30, 0
1, 333870, Note_on_c, 0, 71, 73
1, 333870, Note_on_c, 0, 38, 61
1, 333873, Note_on_c, 0, 45, 0
1, 333891, Note_on_c, 0, 73, 0
1, 333977, Control_c, 0, 64, 0
1, 333977, Control_c, 0, 64, 0
1, 334010, Note_on_c, 0, 42, 52
1, 334057, Control_c, 0, 64, 127
1, 334057, Control_c, 0, 64, 127
1, 334104, Note_on_c, 0, 42, 0
1, 334104, Note_on_c, 0, 54, 57
1, 334197, Note_on_c, 0, 54, 0
1, 334197, Note_on_c, 0, 42, 52
1, 334224, Note_on_c, 0, 61, 57
1, 334272, Control_c, 0, 64, 0
1, 334272, Note_on_c, 0, 66, 57
1, 334272, Control_c, 0, 64, 0
1, 334322, Note_on_c, 0, 62, 0
1, 334322, Note_on_c, 0, 66, 0
1, 334322, Note_on_c, 0, 69, 72
1, 334325, Note_on_c, 0, 42, 0
1, 334325, Note_on_c, 0, 38, 0
1, 334325, Note_on_c, 0, 37, 61
1, 334341, Note_on_c, 0, 71, 0
1, 334447, Control_c, 0, 64, 127
1, 334447, Control_c, 0, 64, 127
1, 334489, Note_on_c, 0, 49, 52
1, 334613, Note_on_c, 0, 49, 0
1, 334613, Note_on_c, 0, 61, 57
1, 334738, Note_on_c, 0, 61, 0
1, 334738, Note_on_c, 0, 61, 0
1, 334738, Note_on_c, 0, 66, 0
1, 334741, Note_on_c, 0, 49, 52
1, 334863, Note_on_c, 0, 49, 0
1, 334863, Note_on_c, 0, 61, 52
1, 334987, Note_on_c, 0, 61, 0
1, 334987, Note_on_c, 0, 49, 52
1, 335039, Note_on_c, 0, 59, 57
1, 335076, Note_on_c, 0, 65, 57
1, 335112, Control_c, 0, 64, 0
1, 335112, Note_on_c, 0, 68, 64
1, 335112, Control_c, 0, 64, 0
1, 335115, Note_on_c, 0, 49, 0
1, 335115, Note_on_c, 0, 37, 0
1, 335115, Note_on_c, 0, 37, 61
1, 335134, Note_on_c, 0, 69, 0
1, 335222, Control_c, 0, 64, 127
1, 335222, Control_c, 0, 64, 127
1, 335300, Note_on_c, 0, 49, 52
1, 335424, Note_on_c, 0, 49, 0
1, 335424, Note_on_c, 0, 61, 57
1, 335549, Note_on_c, 0, 61, 0
1, 335549, Note_on_c, 0, 65, 0
1, 335549, Note_on_c, 0, 59, 0
1, 335552, Note_on_c, 0, 49, 52
1, 335764, Note_on_c, 0, 49, 0
1, 335764, Note_on_c, 0, 61, 52
1, 335870, Note_on_c, 0, 66, 64
1, 335900, Note_on_c, 0, 68, 0
1, 335995, Note_on_c, 0, 61, 0
1, 335995, Note_on_c, 0, 49, 52
1, 336082, Note_on_c, 0, 54, 56
1, 336136, Note_on_c, 0, 58, 56
1, 336191, Note_on_c, 0, 64, 77
1, 336195, Control_c, 0, 64, 0
1, 336195, Control_c, 0, 64, 0
1, 336245, Note_on_c, 0, 37, 0
1, 336245, Note_on_c, 0, 66, 0
1, 336245, Note_on_c, 0, 66, 63
1, 336248, Note_on_c, 0, 49, 0
1, 336248, Note_on_c, 0, 30, 67
1, 336459, Note_on_c, 0, 49, 46
1, 336528, Control_c, 0, 64, 127
1, 336528, Control_c, 0, 64, 127
1, 336625, Note_on_c, 0, 49, 0
1, 336625, Note_on_c, 0, 61, 54
1, 336792, Note_on_c, 0, 61, 0
1, 336792, Note_on_c, 0, 54, 0
1, 336792, Note_on_c, 0, 58, 0
1, 336795, Note_on_c, 0, 49, 45
1, 336958, Note_on_c, 0, 49, 0
1, 336958, Note_on_c, 0, 61, 45
1, 337124, Note_on_c, 0, 61, 0
1, 337124, Note_on_c, 0, 49, 44
1, 337291, Note_on_c, 0, 49, 0
1, 337291, Note_on_c, 0, 63, 64
1, 337291, Note_on_c, 0, 61, 44
1, 337301, Control_c, 0, 64, 0
1, 337301, Control_c, 0, 64, 0
1, 337310, Note_on_c, 0, 64, 0
1, 337416, Note_on_c, 0, 61, 0
1, 337416, Note_on_c, 0, 49, 44
1, 337447, Control_c, 0, 64, 127
1, 337447, Control_c, 0, 64, 127
1, 337540, Note_on_c, 0, 49, 0
1, 337540, Note_on_c, 0, 61, 44
1, 337665, Note_on_c, 0, 61, 0
1, 337665, Note_on_c, 0, 49, 43
1, 337740, Control_c, 0, 64, 0
1, 337740, Control_c, 0, 64, 0
1, 337790, Note_on_c, 0, 30, 0
1, 337790, Note_on_c, 0, 62, 62
1, 337790, Note_on_c, 0, 42, 56
1, 337793, Note_on_c, 0, 49, 0
1, 337819, Note_on_c, 0, 63, 0
1, 337915, Note_on_c, 0, 47, 43
1, 337953, Control_c, 0, 64, 0
1, 337953, Control_c, 0, 64, 0
1, 338017, Control_c, 0, 64, 127
1, 338017, Control_c, 0, 64, 127
1, 338055, Note_on_c, 0, 47, 0
1, 338055, Note_on_c, 0, 59, 52
1, 338154, Note_on_c, 0, 54, 53
1, 338196, Note_on_c, 0, 59, 0
1, 338196, Note_on_c, 0, 47, 42
1, 338245, Note_on_c, 0, 61, 62
1, 338284, Control_c, 0, 64, 0
1, 338284, Control_c, 0, 64, 0
1, 338336, Note_on_c, 0, 62, 0
1, 338336, Note_on_c, 0, 66, 0
1, 338336, Note_on_c, 0, 66, 68
1, 338339, Note_on_c, 0, 42, 0
1, 338339, Note_on_c, 0, 47, 0
1, 338339, Note_on_c, 0, 42, 55
1, 338419, Control_c, 0, 64, 127
1, 338419, Control_c, 0, 64, 127
1, 338586, Note_on_c, 0, 46, 42
1, 338735, Note_on_c, 0, 46, 0
1, 338735, Note_on_c, 0, 58, 51
1, 338885, Note_on_c, 0, 58, 0
1, 338885, Note_on_c, 0, 54, 0
1, 338885, Note_on_c, 0, 46, 41
1, 338991, Note_on_c, 0, 61, 0
1, 339035, Note_on_c, 0, 46, 0
1, 339035, Note_on_c, 0, 58, 41
1, 339184, Note_on_c, 0, 58, 0
1, 339184, Note_on_c, 0, 46, 41
1, 339191, Note_on_c, 0, 54, 52
1, 339295, Note_on_c, 0, 59, 61
1, 339399, Note_on_c, 0, 46, 0
1, 339399, Note_on_c, 0, 42, 0
1, 339399, Note_on_c, 0, 42, 53
1, 339419, Control_c, 0, 64, 0
1, 339419, Control_c, 0, 64, 0
1, 339613, Note_on_c, 0, 44, 40
1, 339658, Control_c, 0, 64, 127
1, 339658, Control_c, 0, 64, 127
1, 339779, Note_on_c, 0, 44, 0
1, 339779, Note_on_c, 0, 56, 49
1, 339946, Note_on_c, 0, 56, 0
1, 339946, Note_on_c, 0, 54, 0
1, 339946, Note_on_c, 0, 44, 39
1, 340063, Note_on_c, 0, 59, 0
1, 340112, Note_on_c, 0, 44, 0
1, 340112, Note_on_c, 0, 56, 39
1, 340299, Note_on_c, 0, 56, 0
1, 340299, Note_on_c, 0, 44, 39
1, 340304, Note_on_c, 0, 54, 51
1, 340395, Note_on_c, 0, 61, 60
1, 340418, Control_c, 0, 64, 0
1, 340418, Control_c, 0, 64, 0
1, 340486, Note_on_c, 0, 66, 0
1, 340486, Note_on_c, 0, 42, 0
1, 340486, Note_on_c, 0, 66, 57
1, 340489, Note_on_c, 0, 44, 0
1, 340489, Note_on_c, 0, 42, 51
1, 340536, Control_c, 0, 64, 127
1, 340536, Control_c, 0, 64, 127
1, 340674, Note_on_c, 0, 46, 38
1, 340887, Note_on_c, 0, 46, 0
1, 340887, Note_on_c, 0, 58, 47
1, 341101, Note_on_c, 0, 58, 0
1, 341101, Note_on_c, 0, 61, 0
1, 341101, Note_on_c, 0, 54, 0
1, 341104, Note_on_c, 0, 46, 38
1, 341352, Note_on_c, 0, 46, 0
1, 341352, Note_on_c, 0, 58, 37
1, 341600, Note_on_c, 0, 58, 0
1, 341600, Note_on_c, 0, 46, 37
1, 341850, Note_on_c, 0, 46, 0
1, 341850, Note_on_c, 0, 42, 0
1, 341850, Note_on_c, 0, 58, 37
1, 342150, Note_on_c, 0, 58, 0
1, 342150, Note_on_c, 0, 46, 36
1, 342449, Note_on_c, 0, 46, 0
1, 342449, Note_on_c, 0, 58, 36
1, 342824, Note_on_c, 0, 58, 0
1, 342824, Note_on_c, 0, 30, 36
1, 343574, Control_c, 0, 64, 0
1, 343574, Control_c, 0, 64, 0
1, 345070, Note_on_c, 0, 30, 0
1, 345070, Note_on_c, 0, 66, 0
1, 345070, Note_on_c, 0, 54, 50
1, 345118, Control_c, 0, 64, 127
1, 345118, Control_c, 0, 64, 127
1, 345133, Note_on_c, 0, 54, 0
1, 345133, Note_on_c, 0, 59, 51
1, 345195, Note_on_c, 0, 59, 0
1, 345195, Note_on_c, 0, 62, 52
1, 345257, Note_on_c, 0, 62, 0
1, 345257, Note_on_c, 0, 66, 71
1, 345257, Note_on_c, 0, 35, 49
1, 345320, Note_on_c, 0, 71, 54
1, 345382, Note_on_c, 0, 71, 0
1, 345382, Control_c, 0, 64, 0
1, 345382, Note_on_c, 0, 74, 56
1, 345385, Control_c, 0, 64, 0
1, 345445, Note_on_c, 0, 74, 0
1, 345445, Note_on_c, 0, 35, 0
1, 345445, Note_on_c, 0, 73, 57
1, 345448, Note_on_c, 0, 30, 49
1, 345507, Note_on_c, 0, 73, 0
1, 345507, Note_on_c, 0, 70, 57
1, 345513, Control_c, 0, 64, 127
1, 345513, Control_c, 0, 64, 127
1, 345569, Note_on_c, 0, 70, 0
1, 345569, Note_on_c, 0, 67, 55
1, 345632, Note_on_c, 0, 67, 0
1, 345632, Note_on_c, 0, 30, 0
1, 345632, Note_on_c, 0, 64, 67
1, 345639, Note_on_c, 0, 66, 0
1, 345694, Note_on_c, 0, 61, 52
1, 345746, Control_c, 0, 64, 0
1, 345746, Control_c, 0, 64, 0
1, 345757, Note_on_c, 0, 61, 0
1, 345757, Note_on_c, 0, 58, 50
1, 345832, Note_on_c, 0, 58, 0
1, 345832, Note_on_c, 0, 64, 0
1, 345832, Note_on_c, 0, 54, 50
1, 345880, Control_c, 0, 64, 127
1, 345880, Control_c, 0, 64, 127
1, 345894, Note_on_c, 0, 54, 0
1, 345894, Note_on_c, 0, 59, 51
1, 345956, Note_on_c, 0, 59, 0
1, 345956, Note_on_c, 0, 61, 52
1, 346019, Note_on_c, 0, 61, 0
1, 346019, Note_on_c, 0, 62, 69
1, 346019, Note_on_c, 0, 35, 49
1, 346081, Note_on_c, 0, 65, 54
1, 346143, Note_on_c, 0, 65, 0
1, 346143, Control_c, 0, 64, 0
1, 346143, Note_on_c, 0, 71, 56
1, 346146, Control_c, 0, 64, 0
1, 346206, Note_on_c, 0, 71, 0
1, 346206, Note_on_c, 0, 35, 0
1, 346206, Note_on_c, 0, 70, 57
1, 346209, Note_on_c, 0, 30, 49
1, 346268, Note_on_c, 0, 70, 0
1, 346268, Note_on_c, 0, 67, 57
1, 346275, Control_c, 0, 64, 127
1, 346275, Control_c, 0, 64, 127
1, 346331, Note_on_c, 0, 67, 0
1, 346331, Note_on_c, 0, 64, 55
1, 346393, Note_on_c, 0, 64, 0
1, 346393, Note_on_c, 0, 30, 0
1, 346393, Note_on_c, 0, 61, 66
1, 346400, Note_on_c, 0, 62, 0
1, 346456, Note_on_c, 0, 58, 52
1, 346508, Control_c, 0, 64, 0
1, 346508, Control_c, 0, 64, 0
1, 346518, Note_on_c, 0, 58, 0
1, 346518, Note_on_c, 0, 55, 50
1, 346593, Note_on_c, 0, 55, 0
1, 346593, Note_on_c, 0, 61, 0
1, 346593, Note_on_c, 0, 54, 50
1, 346641, Control_c, 0, 64, 127
1, 346641, Control_c, 0, 64, 127
1, 346655, Note_on_c, 0, 54, 0
1, 346655, Note_on_c, 0, 59, 51
1, 346718, Note_on_c, 0, 59, 0
1, 346718, Note_on_c, 0, 62, 52
1, 346780, Note_on_c, 0, 62, 0
1, 346780, Note_on_c, 0, 66, 71
1, 346780, Note_on_c, 0, 35, 49
1, 346843, Note_on_c, 0, 71, 54
1, 346905, Note_on_c, 0, 71, 0
1, 346905, Control_c, 0, 64, 0
1, 346905, Note_on_c, 0, 74, 56
1, 346908, Control_c, 0, 64, 0
1, 346967, Note_on_c, 0, 74, 0
1, 346967, Note_on_c, 0, 35, 0
1, 346967, Note_on_c, 0, 73, 57
1, 346970, Note_on_c, 0, 28, 49
1, 347030, Note_on_c, 0, 73, 0
1, 347030, Note_on_c, 0, 70, 57
1, 347036, Control_c, 0, 64, 127
1, 347036, Control_c, 0, 64, 127
1, 347092, Note_on_c, 0, 70, 0
1, 347092, Note_on_c, 0, 67, 55
1, 347154, Note_on_c, 0, 67, 0
1, 347154, Note_on_c, 0, 28, 0
1, 347154, Note_on_c, 0, 64, 67
1, 347162, Note_on_c, 0, 66, 0
1, 347217, Note_on_c, 0, 61, 52
1, 347269, Control_c, 0, 64, 0
1, 347269, Control_c, 0, 64, 0
1, 347279, Note_on_c, 0, 61, 0
1, 347279, Note_on_c, 0, 58, 50
1, 347354, Note_on_c, 0, 58, 0
1, 347354, Note_on_c, 0, 64, 0
1, 347354, Note_on_c, 0, 52, 50
1, 347402, Control_c, 0, 64, 127
1, 347402, Control_c, 0, 64, 127
1, 347417, Note_on_c, 0, 52, 0
1, 347417, Note_on_c, 0, 55, 51
1, 347479, Note_on_c, 0, 55, 0
1, 347479, Note_on_c, 0, 57, 52
1, 347541, Note_on_c, 0, 57, 0
1, 347541, Note_on_c, 0, 61, 69
1, 347541, Note_on_c, 0, 33, 49
1, 347604, Note_on_c, 0, 64, 54
1, 347666, Note_on_c, 0, 64, 0
1, 347666, Control_c, 0, 64, 0
1, 347666, Note_on_c, 0, 67, 56
1, 347669, Control_c, 0, 64, 0
1, 347729, Note_on_c, 0, 67, 0
1, 347729, Note_on_c, 0, 33, 0
1, 347729, Note_on_c, 0, 69, 57
1, 347732, Note_on_c, 0, 26, 49
1, 347791, Note_on_c, 0, 69, 0
1, 347791, Note_on_c, 0, 66, 57
1, 347797, Control_c, 0, 64, 127
1, 347797, Control_c, 0, 64, 127
1, 347853, Note_on_c, 0, 66, 0
1, 347853, Note_on_c, 0, 64, 55
1, 347916, Note_on_c, 0, 64, 0
1, 347916, Note_on_c, 0, 26, 0
1, 347916, Note_on_c, 0, 62, 66
1, 347923, Note_on_c, 0, 61, 0
1, 347978, Note_on_c, 0, 57, 52
1, 348030, Control_c, 0, 64, 0
1, 348030, Control_c, 0, 64, 0
1, 348040, Note_on_c, 0, 57, 0
1, 348040, Note_on_c, 0, 54, 50
1, 348115, Note_on_c, 0, 54, 0
1, 348115, Note_on_c, 0, 62, 0
1, 348115, Note_on_c, 0, 54, 50
1, 348164, Control_c, 0, 64, 127
1, 348164, Control_c, 0, 64, 127
1, 348178, Note_on_c, 0, 54, 0
1, 348178, Note_on_c, 0, 59, 51
1, 348240, Note_on_c, 0, 59, 0
1, 348240, Note_on_c, 0, 62, 52
1, 348303, Note_on_c, 0, 62, 0
1, 348303, Note_on_c, 0, 66, 69
1, 348303, Note_on_c, 0, 35, 49
1, 348365, Note_on_c, 0, 71, 54
1, 348427, Note_on_c, 0, 71, 0
1, 348427, Control_c, 0, 64, 0
1, 348427, Note_on_c, 0, 74, 56
1, 348430, Control_c, 0, 64, 0
1, 348490, Note_on_c, 0, 74, 0
1, 348490, Note_on_c, 0, 35, 0
1, 348490, Note_on_c, 0, 73, 57
1, 348493, Note_on_c, 0, 30, 49
1, 348552, Note_on_c, 0, 73, 0
1, 348552, Note_on_c, 0, 70, 57
1, 348559, Control_c, 0, 64, 127
1, 348559, Control_c, 0, 64, 127
1, 348615, Note_on_c, 0, 70, 0
1, 348615, Note_on_c, 0, 67, 55
1, 348677, Note_on_c, 0, 67, 0
1, 348677, Note_on_c, 0, 30, 0
1, 348677, Note_on_c, 0, 64, 65
1, 348684, Note_on_c, 0, 66, 0
1, 348740, Note_on_c, 0, 61, 52
1, 348791, Control_c, 0, 64, 0
1, 348791, Control_c, 0, 64, 0
1, 348802, Note_on_c, 0, 61, 0
1, 348802, Note_on_c, 0, 58, 50
1, 348877, Note_on_c, 0, 58, 0
1, 348877, Note_on_c, 0, 64, 0
1, 348877, Note_on_c, 0, 54, 50
1, 348925, Control_c, 0, 64, 127
1, 348925, Control_c, 0, 64, 127
1, 348939, Note_on_c, 0, 54, 0
1, 348939, Note_on_c, 0, 59, 51
1, 349001, Note_on_c, 0, 59, 0
1, 349001, Note_on_c, 0, 61, 52
1, 349064, Note_on_c, 0, 61, 0
1, 349064, Note_on_c, 0, 62, 67
1, 349064, Note_on_c, 0, 35, 49
1, 349126, Note_on_c, 0, 65, 54
1, 349189, Note_on_c, 0, 65, 0
1, 349189, Control_c, 0, 64, 0
1, 349189, Note_on_c, 0, 71, 56
1, 349192, Control_c, 0, 64, 0
1, 349251, Note_on_c, 0, 71, 0
1, 349251, Note_on_c, 0, 35, 0
1, 349251, Note_on_c, 0, 70, 57
1, 349254, Note_on_c, 0, 30, 49
1, 349314, Note_on_c, 0, 70, 0
1, 349314, Note_on_c, 0, 67, 57
1, 349320, Control_c, 0, 64, 127
1, 349320, Control_c, 0, 64, 127
1, 349376, Note_on_c, 0, 67, 0
1, 349376, Note_on_c, 0, 64, 55
1, 349438, Note_on_c, 0, 64, 0
1, 349438, Note_on_c, 0, 30, 0
1, 349438, Note_on_c, 0, 61, 64
1, 349446, Note_on_c, 0, 62, 0
1, 349501, Note_on_c, 0, 58, 52
1, 349553, Control_c, 0, 64, 0
1, 349553, Control_c, 0, 64, 0
1, 349563, Note_on_c, 0, 58, 0
1, 349563, Note_on_c, 0, 55, 50
1, 349638, Note_on_c, 0, 55, 0
1, 349638, Note_on_c, 0, 61, 0
1, 349638, Note_on_c, 0, 54, 50
1, 349686, Control_c, 0, 64, 127
1, 349686, Control_c, 0, 64, 127
1, 349701, Note_on_c, 0, 54, 0
1, 349701, Note_on_c, 0, 59, 51
1, 349763, Note_on_c, 0, 59, 0
1, 349763, Note_on_c, 0, 62, 52
1, 349825, Note_on_c, 0, 62, 0
1, 349825, Note_on_c, 0, 66, 69
1, 349825, Note_on_c, 0, 35, 49
1, 349888, Note_on_c, 0, 71, 54
1, 349950, Note_on_c, 0, 71, 0
1, 349950, Control_c, 0, 64, 0
1, 349950, Note_on_c, 0, 74, 56
1, 349953, Control_c, 0, 64, 0
1, 350012, Note_on_c, 0, 74, 0
1, 350012, Note_on_c, 0, 35, 0
1, 350012, Note_on_c, 0, 73, 57
1, 350015, Note_on_c, 0, 28, 49
1, 350075, Note_on_c, 0, 73, 0
1, 350075, Note_on_c, 0, 70, 57
1, 350081, Control_c, 0, 64, 127
1, 350081, Control_c, 0, 64, 127
1, 350137, Note_on_c, 0, 70, 0
1, 350137, Note_on_c, 0, 67, 55
1, 350200, Note_on_c, 0, 67, 0
1, 350200, Note_on_c, 0, 28, 0
1, 350200, Note_on_c, 0, 64, 65
1, 350207, Note_on_c, 0, 66, 0
1, 350262, Note_on_c, 0, 61, 52
1, 350314, Control_c, 0, 64, 0
1, 350314, Control_c, 0, 64, 0
1, 350324, Note_on_c, 0, 61, 0
1, 350324, Note_on_c, 0, 58, 50
1, 350399, Note_on_c, 0, 58, 0
1, 350399, Note_on_c, 0, 64, 0
1, 350399, Note_on_c, 0, 52, 50
1, 350448, Control_c, 0, 64, 127
1, 350448, Control_c, 0, 64, 127
1, 350462, Note_on_c, 0, 52, 0
1, 350462, Note_on_c, 0, 55, 51
1, 350524, Note_on_c, 0, 55, 0
1, 350524, Note_on_c, 0, 57, 52
1, 350587, Note_on_c, 0, 57, 0
1, 350587, Note_on_c, 0, 61, 67
1, 350587, Note_on_c, 0, 33, 49
1, 350649, Note_on_c, 0, 64, 54
1, 350711, Note_on_c, 0, 64, 0
1, 350711, Control_c, 0, 64, 0
1, 350711, Note_on_c, 0, 67, 56
1, 350714, Control_c, 0, 64, 0
1, 350774, Note_on_c, 0, 67, 0
1, 350774, Note_on_c, 0, 33, 0
1, 350774, Note_on_c, 0, 69, 57
1, 350777, Note_on_c, 0, 26, 49
1, 350836, Note_on_c, 0, 69, 0
1, 350836, Note_on_c, 0, 66, 57
1, 350842, Control_c, 0, 64, 127
1, 350842, Control_c, 0, 64, 127
1, 350898, Note_on_c, 0, 66, 0
1, 350898, Note_on_c, 0, 64, 55
1, 350961, Note_on_c, 0, 64, 0
1, 350961, Note_on_c, 0, 26, 0
1, 350961, Note_on_c, 0, 62, 64
1, 350968, Note_on_c, 0, 61, 0
1, 351023, Note_on_c, 0, 57, 52
1, 351075, Control_c, 0, 64, 0
1, 351075, Control_c, 0, 64, 0
1, 351086, Note_on_c, 0, 57, 0
1, 351086, Note_on_c, 0, 54, 50
1, 351161, Note_on_c, 0, 54, 0
1, 351161, Note_on_c, 0, 62, 0
1, 351161, Note_on_c, 0, 57, 57
1, 351209, Control_c, 0, 64, 127
1, 351209, Control_c, 0, 64, 127
1, 351223, Note_on_c, 0, 57, 0
1, 351223, Note_on_c, 0, 62, 59
1, 351285, Note_on_c, 0, 62, 0
1, 351285, Note_on_c, 0, 64, 60
1, 351348, Note_on_c, 0, 64, 0
1, 351348, Note_on_c, 0, 65, 76
1, 351348, Note_on_c, 0, 38, 57
1, 351382, Control_c, 0, 64, 127
1, 351382, Control_c, 0, 64, 127
1, 351410, Note_on_c, 0, 69, 63
1, 351473, Note_on_c, 0, 69, 0
1, 351473, Note_on_c, 0, 74, 66
1, 351535, Note_on_c, 0, 74, 0
1, 351535, Note_on_c, 0, 38, 0
1, 351535, Note_on_c, 0, 77, 77
1, 351538, Note_on_c, 0, 33, 58
1, 351618, Note_on_c, 0, 74, 68
1, 351701, Note_on_c, 0, 74, 0
1, 351701, Note_on_c, 0, 69, 67
1, 351716, Note_on_c, 0, 77, 0
1, 351785, Note_on_c, 0, 69, 0
1, 351785, Note_on_c, 0, 66, 64
1, 351785, Note_on_c, 0, 78, 73
1, 351788, Note_on_c, 0, 33, 0
1, 351792, Note_on_c, 0, 65, 0
1, 351847, Note_on_c, 0, 61, 63
1, 351899, Control_c, 0, 64, 0
1, 351899, Control_c, 0, 64, 0
1, 351909, Note_on_c, 0, 61, 0
1, 351909, Note_on_c, 0, 57, 63
1, 351993, Note_on_c, 0, 57, 0
1, 351993, Note_on_c, 0, 66, 0
1, 351993, Note_on_c, 0, 78, 0
1, 351996, Note_on_c, 0, 57, 62
1, 352041, Control_c, 0, 64, 127
1, 352041, Control_c, 0, 64, 127
1, 352041, Control_c, 0, 64, 127
1, 352044, Control_c, 0, 64, 127
1, 352055, Note_on_c, 0, 57, 0
1, 352055, Note_on_c, 0, 62, 63
1, 352117, Note_on_c, 0, 62, 0
1, 352117, Note_on_c, 0, 64, 65
1, 352180, Note_on_c, 0, 64, 0
1, 352180, Note_on_c, 0, 65, 81
1, 352180, Note_on_c, 0, 38, 59
1, 352214, Control_c, 0, 64, 127
1, 352214, Control_c, 0, 64, 127
1, 352242, Note_on_c, 0, 71, 68
1, 352317, Note_on_c, 0, 71, 0
1, 352317, Control_c, 0, 64, 0
1, 352317, Note_on_c, 0, 74, 73
1, 352320, Control_c, 0, 64, 0
1, 352392, Note_on_c, 0, 74, 0
1, 352392, Note_on_c, 0, 38, 0
1, 352392, Note_on_c, 0, 80, 83
1, 352395, Note_on_c, 0, 33, 60
1, 352475, Note_on_c, 0, 74, 74
1, 352484, Control_c, 0, 64, 127
1, 352484, Control_c, 0, 64, 127
1, 352558, Note_on_c, 0, 74, 0
1, 352558, Note_on_c, 0, 71, 72
1, 352573, Note_on_c, 0, 80, 0
1, 352642, Note_on_c, 0, 71, 0
1, 352642, Note_on_c, 0, 66, 66
1, 352642, Note_on_c, 0, 69, 66
1, 352645, Note_on_c, 0, 33, 0
1, 352645, Note_on_c, 0, 81, 77
1, 352649, Note_on_c, 0, 65, 0
1, 352704, Note_on_c, 0, 61, 68
1, 352756, Control_c, 0, 64, 0
1, 352756, Control_c, 0, 64, 0
1, 352756, Control_c, 0, 64, 0
1, 352759, Control_c, 0, 64, 0
1, 352766, Note_on_c, 0, 61, 0
1, 352766, Note_on_c, 0, 57, 68
1, 352850, Note_on_c, 0, 57, 0
1, 352850, Note_on_c, 0, 69, 0
1, 352850, Note_on_c, 0, 66, 0
1, 352853, Note_on_c, 0, 81, 0
1, 352853, Note_on_c, 0, 57, 67
1, 352898, Control_c, 0, 64, 127
1, 352898, Control_c, 0, 64, 127
1, 352898, Control_c, 0, 64, 127
1, 352901, Control_c, 0, 64, 127
1, 352912, Note_on_c, 0, 57, 0
1, 352912, Note_on_c, 0, 62, 68
1, 352974, Note_on_c, 0, 62, 0
1, 352974, Note_on_c, 0, 65, 71
1, 353037, Note_on_c, 0, 65, 0
1, 353037, Note_on_c, 0, 68, 86
1, 353037, Note_on_c, 0, 38, 68
1, 353074, Control_c, 0, 64, 127
1, 353074, Control_c, 0, 64, 127
1, 353105, Note_on_c, 0, 74, 74
1, 353188, Note_on_c, 0, 74, 0
1, 353188, Control_c, 0, 64, 0
1, 353188, Note_on_c, 0, 77, 78
1, 353191, Control_c, 0, 64, 0
1, 353271, Note_on_c, 0, 77, 0
1, 353271, Note_on_c, 0, 38, 0
1, 353271, Note_on_c, 0, 80, 89
1, 353274, Note_on_c, 0, 33, 68
1, 353346, Note_on_c, 0, 77, 81
1, 353354, Control_c, 0, 64, 127
1, 353354, Control_c, 0, 64, 127
1, 353421, Note_on_c, 0, 77, 0
1, 353421, Note_on_c, 0, 74, 78
1, 353434, Note_on_c, 0, 80, 0
1, 353452, Control_c, 0, 64, 0
1, 353452, Control_c, 0, 64, 0
1, 353496, Note_on_c, 0, 74, 0
1, 353496, Note_on_c, 0, 69, 61
1, 353496, Note_on_c, 0, 73, 81
1, 353499, Note_on_c, 0, 33, 0
1, 353499, Note_on_c, 0, 85, 100
1, 353507, Note_on_c, 0, 68, 0
1, 353580, Control_c, 0, 64, 127
1, 353580, Control_c, 0, 64, 127
1, 353590, Note_on_c, 0, 69, 0
1, 353590, Note_on_c, 0, 66, 72
1, 353683, Note_on_c, 0, 66, 0
1, 353683, Note_on_c, 0, 61, 73
1, 353745, Control_c, 0, 64, 0
1, 353745, Control_c, 0, 64, 0
1, 353777, Note_on_c, 0, 61, 0
1, 353777, Note_on_c, 0, 73, 0
1, 353777, Note_on_c, 0, 73, 92
1, 353780, Note_on_c, 0, 35, 80
1, 353849, Control_c, 0, 64, 127
1, 353849, Control_c, 0, 64, 127
1, 353871, Note_on_c, 0, 74, 74
1, 353964, Note_on_c, 0, 74, 0
1, 353964, Note_on_c, 0, 80, 74
1, 354058, Note_on_c, 0, 85, 0
1, 354058, Note_on_c, 0, 71, 86
1, 354058, Note_on_c, 0, 86, 81
1, 354061, Note_on_c, 0, 80, 0
1, 354067, Note_on_c, 0, 73, 0
1, 354067, Control_c, 0, 64, 0
1, 354067, Control_c, 0, 64, 0
1, 354130, Control_c, 0, 64, 127
1, 354130, Control_c, 0, 64, 127
1, 354141, Note_on_c, 0, 68, 61
1, 354224, Note_on_c, 0, 68, 0
1, 354224, Note_on_c, 0, 62, 61
1, 354307, Note_on_c, 0, 62, 0
1, 354307, Note_on_c, 0, 71, 0
1, 354307, Note_on_c, 0, 71, 81
1, 354310, Note_on_c, 0, 35, 0
1, 354310, Note_on_c, 0, 37, 64
1, 354317, Control_c, 0, 64, 0
1, 354317, Control_c, 0, 64, 0
1, 354377, Control_c, 0, 64, 127
1, 354377, Control_c, 0, 64, 127
1, 354391, Note_on_c, 0, 73, 72
1, 354473, Note_on_c, 0, 73, 0
1, 354473, Note_on_c, 0, 77, 71
1, 354557, Note_on_c, 0, 86, 0
1, 354557, Note_on_c, 0, 68, 76
1, 354557, Note_on_c, 0, 85, 78
1, 354560, Note_on_c, 0, 77, 0
1, 354568, Note_on_c, 0, 71, 0
1, 354575, Control_c, 0, 64, 0
1, 354575, Control_c, 0, 64, 0
1, 354639, Control_c, 0, 64, 127
1, 354639, Control_c, 0, 64, 127
1, 354657, Note_on_c, 0, 65, 60
1, 354704, Control_c, 0, 64, 127
1, 354704, Control_c, 0, 64, 127
1, 354756, Note_on_c, 0, 65, 0
1, 354756, Note_on_c, 0, 61, 59
1, 354856, Note_on_c, 0, 85, 0
1, 354856, Note_on_c, 0, 68, 0
1, 354856, Control_c, 0, 64, 127
1, 354859, Note_on_c, 0, 61, 0
1, 354859, Note_on_c, 0, 67, 77
1, 354859, Control_c, 0, 64, 127
1, 354862, Note_on_c, 0, 37, 0
1, 354862, Control_c, 0, 64, 0
1, 354862, Note_on_c, 0, 42, 63
1, 354900, Control_c, 0, 64, 0
1, 354900, Control_c, 0, 64, 0
1, 354950, Note_on_c, 0, 71, 63
1, 354960, Control_c, 0, 64, 127
1, 354960, Control_c, 0, 64, 127
1, 355043, Note_on_c, 0, 71, 0
1, 355043, Note_on_c, 0, 73, 62
1, 355137, Note_on_c, 0, 73, 0
1, 355137, Note_on_c, 0, 42, 0
1, 355137, Note_on_c, 0, 79, 69
1, 355140, Note_on_c, 0, 65, 50
1, 355231, Note_on_c, 0, 65, 0
1, 355231, Note_on_c, 0, 61, 50
1, 355324, Note_on_c, 0, 61, 0
1, 355324, Note_on_c, 0, 59, 50
1, 355418, Note_on_c, 0, 59, 0
1, 355418, Note_on_c, 0, 79, 0
1, 355418, Note_on_c, 0, 54, 49
1, 355486, Note_on_c, 0, 71, 60
1, 355554, Note_on_c, 0, 71, 0
1, 355554, Note_on_c, 0, 73, 60
1, 355615, Control_c, 0, 64, 0
1, 355615, Control_c, 0, 64, 0
1, 355622, Note_on_c, 0, 73, 0
1, 355622, Note_on_c, 0, 54, 0
1, 355622, Note_on_c, 0, 79, 65
1, 355625, Note_on_c, 0, 64, 48
1, 355673, Control_c, 0, 64, 127
1, 355673, Control_c, 0, 64, 127
1, 355690, Note_on_c, 0, 64, 0
1, 355690, Note_on_c, 0, 61, 48
1, 355758, Note_on_c, 0, 61, 0
1, 355758, Note_on_c, 0, 59, 48
1, 355826, Note_on_c, 0, 79, 0
1, 355826, Control_c, 0, 64, 127
1, 355826, Control_c, 0, 64, 127
1, 355829, Note_on_c, 0, 59, 0
1, 355829, Control_c, 0, 64, 127
1, 355829, Note_on_c, 0, 54, 49
1, 355901, Note_on_c, 0, 71, 56
1, 355976, Note_on_c, 0, 71, 0
1, 355976, Note_on_c, 0, 73, 56
1, 356037, Control_c, 0, 64, 0
1, 356037, Control_c, 0, 64, 0
1, 356037, Control_c, 0, 64, 0
1, 356051, Note_on_c, 0, 73, 0
1, 356051, Note_on_c, 0, 54, 0
1, 356051, Note_on_c, 0, 79, 62
1, 356054, Note_on_c, 0, 64, 42
1, 356134, Control_c, 0, 64, 127
1, 356134, Control_c, 0, 64, 127
1, 356134, Control_c, 0, 64, 127
1, 356137, Note_on_c, 0, 64, 0
1, 356137, Note_on_c, 0, 61, 42
1, 356217, Note_on_c, 0, 61, 0
1, 356217, Note_on_c, 0, 58, 42
1, 356301, Note_on_c, 0, 58, 0
1, 356301, Note_on_c, 0, 79, 0
1, 356301, Note_on_c, 0, 54, 41
1, 356330, Control_c, 0, 64, 0
1, 356330, Control_c, 0, 64, 0
1, 356330, Control_c, 0, 64, 0
1, 356394, Control_c, 0, 64, 0
1, 356394, Note_on_c, 0, 70, 51
1, 356394, Control_c, 0, 64, 0
1, 356397, Control_c, 0, 64, 0
1, 356488, Note_on_c, 0, 70, 0
1, 356488, Note_on_c, 0, 73, 51
1, 356522, Control_c, 0, 64, 127
1, 356522, Control_c, 0, 64, 127
1, 356522, Control_c, 0, 64, 127
1, 356581, Note_on_c, 0, 73, 0
1, 356581, Note_on_c, 0, 54, 0
1, 356581, Note_on_c, 0, 79, 57
1, 356786, Control_c, 0, 64, 0
1, 356786, Control_c, 0, 64, 0
1, 356786, Control_c, 0, 64, 0
1, 356902, Note_on_c, 0, 79, 0
1, 356902, Note_on_c, 0, 67, 0
1, 356902, Note_on_c, 0, 54, 53
1, 356951, Control_c, 0, 64, 127
1, 356951, Control_c, 0, 64, 127
1, 356965, Note_on_c, 0, 54, 0
1, 356965, Note_on_c, 0, 59, 54
1, 357027, Note_on_c, 0, 59, 0
1, 357027, Note_on_c, 0, 62, 55
1, 357089, Note_on_c, 0, 62, 0
1, 357089, Note_on_c, 0, 66, 68
1, 357089, Note_on_c, 0, 35, 52
1, 357152, Note_on_c, 0, 71, 57
1, 357214, Note_on_c, 0, 71, 0
1, 357214, Control_c, 0, 64, 0
1, 357214, Note_on_c, 0, 74, 59
1, 357217, Control_c, 0, 64, 0
1, 357277, Note_on_c, 0, 74, 0
1, 357277, Note_on_c, 0, 35, 0
1, 357277, Note_on_c, 0, 73, 60
1, 357280, Note_on_c, 0, 30, 52
1, 357339, Note_on_c, 0, 73, 0
1, 357339, Note_on_c, 0, 70, 60
1, 357345, Control_c, 0, 64, 127
1, 357345, Control_c, 0, 64, 127
1, 357401, Note_on_c, 0, 70, 0
1, 357401, Note_on_c, 0, 67, 58
1, 357464, Note_on_c, 0, 67, 0
1, 357464, Note_on_c, 0, 30, 0
1, 357464, Note_on_c, 0, 64, 64
1, 357471, Note_on_c, 0, 66, 0
1, 357526, Note_on_c, 0, 61, 55
1, 357578, Control_c, 0, 64, 0
1, 357578, Control_c, 0, 64, 0
1, 357589, Note_on_c, 0, 61, 0
1, 357589, Note_on_c, 0, 58, 53
1, 357664, Note_on_c, 0, 58, 0
1, 357664, Note_on_c, 0, 64, 0
1, 357664, Note_on_c, 0, 54, 53
1, 357712, Control_c, 0, 64, 127
1, 357712, Control_c, 0, 64, 127
1, 357726, Note_on_c, 0, 54, 0
1, 357726, Note_on_c, 0, 59, 54
1, 357788, Note_on_c, 0, 59, 0
1, 357788, Note_on_c, 0, 61, 55
1, 357851, Note_on_c, 0, 61, 0
1, 357851, Note_on_c, 0, 62, 66
1, 357851, Note_on_c, 0, 35, 52
1, 357913, Note_on_c, 0, 65, 57
1, 357975, Note_on_c, 0, 65, 0
1, 357975, Control_c, 0, 64, 0
1, 357975, Note_on_c, 0, 71, 59
1, 357978, Control_c, 0, 64, 0
1, 358038, Note_on_c, 0, 71, 0
1, 358038, Note_on_c, 0, 35, 0
1, 358038, Note_on_c, 0, 70, 60
1, 358041, Note_on_c, 0, 30, 52
1, 358100, Note_on_c, 0, 70, 0
1, 358100, Note_on_c, 0, 67, 60
1, 358107, Control_c, 0, 64, 127
1, 358107, Control_c, 0, 64, 127
1, 358163, Note_on_c, 0, 67, 0
1, 358163, Note_on_c, 0, 64, 58
1, 358225, Note_on_c, 0, 64, 0
1, 358225, Note_on_c, 0, 30, 0
1, 358225, Note_on_c, 0, 61, 63
1, 358232, Note_on_c, 0, 62, 0
1, 358288, Note_on_c, 0, 58, 55
1, 358340, Control_c, 0, 64, 0
1, 358340, Control_c, 0, 64, 0
1, 358350, Note_on_c, 0, 58, 0
1, 358350, Note_on_c, 0, 55, 53
1, 358425, Note_on_c, 0, 55, 0
1, 358425, Note_on_c, 0, 61, 0
1, 358425, Note_on_c, 0, 59, 67
1, 358473, Control_c, 0, 64, 127
1, 358473, Control_c, 0, 64, 127
1, 358487, Note_on_c, 0, 59, 0
1, 358487, Note_on_c, 0, 64, 68
1, 358550, Note_on_c, 0, 64, 0
1, 358550, Note_on_c, 0, 67, 69
1, 358612, Note_on_c, 0, 67, 0
1, 358612, Note_on_c, 0, 71, 82
1, 358612, Note_on_c, 0, 40, 66
1, 358675, Note_on_c, 0, 76, 71
1, 358737, Note_on_c, 0, 76, 0
1, 358737, Control_c, 0, 64, 0
1, 358737, Note_on_c, 0, 79, 73
1, 358740, Control_c, 0, 64, 0
1, 358799, Note_on_c, 0, 79, 0
1, 358799, Note_on_c, 0, 40, 0
1, 358799, Note_on_c, 0, 78, 74
1, 358802, Note_on_c, 0, 35, 66
1, 358862, Note_on_c, 0, 78, 0
1, 358862, Note_on_c, 0, 75, 74
1, 358868, Control_c, 0, 64, 127
1, 358868, Control_c, 0, 64, 127
1, 358924, Note_on_c, 0, 75, 0
1, 358924, Note_on_c, 0, 72, 72
1, 358986, Note_on_c, 0, 72, 0
1, 358986, Note_on_c, 0, 35, 0
1, 358986, Note_on_c, 0, 69, 78
1, 358994, Note_on_c, 0, 71, 0
1, 359049, Note_on_c, 0, 66, 69
1, 359101, Control_c, 0, 64, 0
1, 359101, Control_c, 0, 64, 0
1, 359111, Note_on_c, 0, 66, 0
1, 359111, Note_on_c, 0, 63, 67
1, 359186, Note_on_c, 0, 63, 0
1, 359186, Note_on_c, 0, 69, 0
1, 359186, Note_on_c, 0, 59, 67
1, 359234, Control_c, 0, 64, 127
1, 359234, Control_c, 0, 64, 127
1, 359249, Note_on_c, 0, 59, 0
1, 359249, Note_on_c, 0, 64, 68
1, 359311, Note_on_c, 0, 64, 0
1, 359311, Note_on_c, 0, 66, 69
1, 359373, Note_on_c, 0, 66, 0
1, 359373, Note_on_c, 0, 67, 80
1, 359373, Note_on_c, 0, 40, 66
1, 359436, Note_on_c, 0, 70, 71
1, 359498, Note_on_c, 0, 70, 0
1, 359498, Control_c, 0, 64, 0
1, 359498, Note_on_c, 0, 76, 73
1, 359501, Control_c, 0, 64, 0
1, 359561, Note_on_c, 0, 76, 0
1, 359561, Note_on_c, 0, 40, 0
1, 359561, Note_on_c, 0, 75, 74
1, 359564, Note_on_c, 0, 35, 66
1, 359623, Note_on_c, 0, 75, 0
1, 359623, Note_on_c, 0, 72, 74
1, 359629, Control_c, 0, 64, 127
1, 359629, Control_c, 0, 64, 127
1, 359685, Note_on_c, 0, 72, 0
1, 359685, Note_on_c, 0, 69, 72
1, 359748, Note_on_c, 0, 69, 0
1, 359748, Note_on_c, 0, 35, 0
1, 359748, Note_on_c, 0, 66, 77
1, 359755, Note_on_c, 0, 67, 0
1, 359810, Note_on_c, 0, 63, 69
1, 359880, Control_c, 0, 64, 0
1, 359880, Control_c, 0, 64, 0
1, 359893, Note_on_c, 0, 63, 0
1, 359893, Note_on_c, 0, 60, 67
1, 360018, Note_on_c, 0, 60, 0
1, 360018, Note_on_c, 0, 66, 0
1, 360018, Note_on_c, 0, 67, 61
1, 360021, Note_on_c, 0, 61, 47
1, 360134, Note_on_c, 0, 61, 0
1, 360134, Note_on_c, 0, 67, 0
1, 360134, Note_on_c, 0, 64, 57
1, 360137, Control_c, 0, 64, 127
1, 360137, Note_on_c, 0, 64, 48
1, 360137, Control_c, 0, 64, 127
1, 360227, Note_on_c, 0, 64, 0
1, 360227, Note_on_c, 0, 64, 0
1, 360227, Note_on_c, 0, 70, 62
1, 360230, Note_on_c, 0, 55, 52
1, 360310, Note_on_c, 0, 55, 0
1, 360310, Note_on_c, 0, 70, 0
1, 360310, Note_on_c, 0, 67, 58
1, 360313, Note_on_c, 0, 58, 49
1, 360394, Note_on_c, 0, 58, 0
1, 360394, Note_on_c, 0, 67, 0
1, 360394, Note_on_c, 0, 73, 64
1, 360397, Note_on_c, 0, 52, 54
1, 360468, Note_on_c, 0, 52, 0
1, 360468, Note_on_c, 0, 73, 0
1, 360468, Note_on_c, 0, 70, 59
1, 360471, Note_on_c, 0, 55, 50
1, 360521, Control_c, 0, 64, 0
1, 360521, Control_c, 0, 64, 0
1, 360543, Note_on_c, 0, 55, 0
1, 360543, Note_on_c, 0, 70, 0
1, 360543, Note_on_c, 0, 76, 65
1, 360546, Note_on_c, 0, 49, 55
1, 360618, Note_on_c, 0, 49, 0
1, 360618, Note_on_c, 0, 76, 0
1, 360618, Note_on_c, 0, 73, 61
1, 360621, Control_c, 0, 64, 127
1, 360621, Note_on_c, 0, 52, 52
1, 360621, Control_c, 0, 64, 127
1, 360693, Note_on_c, 0, 52, 0
1, 360693, Note_on_c, 0, 73, 0
1, 360693, Note_on_c, 0, 79, 66
1, 360696, Note_on_c, 0, 46, 56
1, 360768, Note_on_c, 0, 46, 0
1, 360768, Note_on_c, 0, 79, 0
1, 360768, Note_on_c, 0, 76, 62
1, 360771, Note_on_c, 0, 49, 53
1, 360843, Note_on_c, 0, 49, 0
1, 360843, Note_on_c, 0, 76, 0
1, 360843, Note_on_c, 0, 82, 68
1, 360846, Note_on_c, 0, 43, 58
1, 360917, Note_on_c, 0, 43, 0
1, 360917, Note_on_c, 0, 82, 0
1, 360917, Note_on_c, 0, 79, 63
1, 360920, Note_on_c, 0, 46, 54
1, 360970, Control_c, 0, 64, 0
1, 360970, Control_c, 0, 64, 0
1, 360992, Note_on_c, 0, 46, 0
1, 360992, Note_on_c, 0, 79, 0
1, 360992, Note_on_c, 0, 91, 76
1, 360995, Note_on_c, 0, 35, 67
1, 361068, Control_c, 0, 64, 127
1, 361068, Control_c, 0, 64, 127
1, 361143, Note_on_c, 0, 35, 0
1, 361143, Note_on_c, 0, 91, 0
1, 361143, Note_on_c, 0, 88, 68
1, 361146, Note_on_c, 0, 37, 54
1, 361278, Note_on_c, 0, 85, 66
1, 361278, Note_on_c, 0, 40, 53
1, 361293, Note_on_c, 0, 37, 0
1, 361293, Note_on_c, 0, 88, 0
1, 361403, Note_on_c, 0, 82, 65
1, 361403, Note_on_c, 0, 43, 52
1, 361417, Note_on_c, 0, 85, 0
1, 361417, Note_on_c, 0, 40, 0
1, 361519, Note_on_c, 0, 81, 63
1, 361519, Note_on_c, 0, 45, 51
1, 361532, Note_on_c, 0, 82, 0
1, 361532, Note_on_c, 0, 43, 0
1, 361633, Note_on_c, 0, 79, 62
1, 361633, Note_on_c, 0, 46, 50
1, 361645, Note_on_c, 0, 81, 0
1, 361645, Note_on_c, 0, 45, 0
1, 361733, Note_on_c, 0, 76, 60
1, 361733, Note_on_c, 0, 49, 49
1, 361745, Note_on_c, 0, 79, 0
1, 361745, Note_on_c, 0, 46, 0
1, 361763, Control_c, 0, 64, 0
1, 361763, Control_c, 0, 64, 0
1, 361833, Note_on_c, 0, 73, 59
1, 361833, Note_on_c, 0, 52, 48
1, 361845, Note_on_c, 0, 76, 0
1, 361845, Note_on_c, 0, 49, 0
1, 361933, Note_on_c, 0, 70, 57
1, 361933, Note_on_c, 0, 55, 47
1, 361945, Note_on_c, 0, 73, 0
1, 361945, Note_on_c, 0, 52, 0
1, 362033, Note_on_c, 0, 69, 56
1, 362033, Note_on_c, 0, 57, 46
1, 362045, Note_on_c, 0, 70, 0
1, 362045, Note_on_c, 0, 55, 0
1, 362140, Note_on_c, 0, 67, 54
1, 362140, Note_on_c, 0, 58, 45
1, 362153, Note_on_c, 0, 69, 0
1, 362153, Note_on_c, 0, 57, 0
1, 362247, Note_on_c, 0, 64, 53
1, 362247, Note_on_c, 0, 61, 44
1, 362261, Note_on_c, 0, 67, 0
1, 362261, Note_on_c, 0, 58, 0
1, 362372, Note_on_c, 0, 61, 0
1, 362372, Note_on_c, 0, 67, 56
1, 362372, Note_on_c, 0, 59, 56
1, 362746, Note_on_c, 0, 64, 0
1, 362746, Note_on_c, 0, 62, 35
1, 362746, Note_on_c, 0, 66, 47
1, 362764, Note_on_c, 0, 67, 0
1, 362799, Control_c, 0, 64, 0
1, 362799, Control_c, 0, 64, 0
1, 362858, Note_on_c, 0, 47, 47
1, 362971, Note_on_c, 0, 47, 0
1, 362971, Note_on_c, 0, 54, 47
1, 363023, Control_c, 0, 64, 127
1, 363023, Control_c, 0, 64, 127
1, 363083, Note_on_c, 0, 54, 0
1, 363083, Note_on_c, 0, 59, 47
1, 363244, Note_on_c, 0, 66, 0
1, 363244, Note_on_c, 0, 62, 0
1, 363244, Note_on_c, 0, 62, 35
1, 363247, Note_on_c, 0, 59, 0
1, 363247, Note_on_c, 0, 66, 47
1, 363247, Note_on_c, 0, 71, 47
1, 365069, Control_c, 0, 64, 0
1, 365069, Control_c, 0, 64, 0
1, 365490, Note_on_c, 0, 66, 0
1, 365490, Note_on_c, 0, 59, 0
1, 365490, Note_on_c, 0, 62, 0
1, 365493, Note_on_c, 0, 71, 0
1, 366613, Note_on_c, 0, 78, 79
1, 366613, Note_on_c, 0, 38, 48
1, 367175, Note_on_c, 0, 66, 46
1, 367175, Note_on_c, 0, 69, 58
1, 367300, Control_c, 0, 64, 127
1, 367300, Control_c, 0, 64, 127
1, 367424, Note_on_c, 0, 69, 0
1, 367424, Note_on_c, 0, 66, 0
1, 367424, Note_on_c, 0, 66, 46
1, 367427, Note_on_c, 0, 69, 58
1, 367649, Note_on_c, 0, 69, 0
1, 367649, Note_on_c, 0, 66, 0
1, 367649, Note_on_c, 0, 66, 46
1, 367652, Note_on_c, 0, 38, 0
1, 367652, Note_on_c, 0, 69, 58
1, 367652, Note_on_c, 0, 73, 72
1, 367655, Note_on_c, 0, 43, 48
1, 367668, Note_on_c, 0, 78, 0
1, 367687, Control_c, 0, 64, 0
1, 367687, Control_c, 0, 64, 0
1, 367899, Note_on_c, 0, 64, 46
1, 367899, Note_on_c, 0, 67, 58
1, 367916, Note_on_c, 0, 66, 0
1, 367916, Note_on_c, 0, 69, 0
1, 367955, Control_c, 0, 64, 127
1, 367955, Control_c, 0, 64, 127
1, 368123, Note_on_c, 0, 62, 46
1, 368123, Note_on_c, 0, 66, 58
1, 368141, Note_on_c, 0, 64, 0
1, 368141, Note_on_c, 0, 67, 0
1, 368348, Note_on_c, 0, 57, 46
1, 368348, Note_on_c, 0, 64, 58
1, 368365, Note_on_c, 0, 62, 0
1, 368365, Note_on_c, 0, 66, 0
1, 368380, Control_c, 0, 64, 0
1, 368380, Control_c, 0, 64, 0
1, 368572, Note_on_c, 0, 43, 0
1, 368572, Note_on_c, 0, 74, 72
1, 368572, Note_on_c, 0, 42, 48
1, 368590, Note_on_c, 0, 73, 0
1, 368590, Note_on_c, 0, 57, 0
1, 368590, Note_on_c, 0, 64, 0
1, 369022, Note_on_c, 0, 62, 46
1, 369022, Note_on_c, 0, 66, 58
1, 369134, Control_c, 0, 64, 127
1, 369134, Control_c, 0, 64, 127
1, 369246, Note_on_c, 0, 66, 0
1, 369246, Note_on_c, 0, 62, 0
1, 369246, Note_on_c, 0, 62, 46
1, 369249, Note_on_c, 0, 66, 58
1, 369471, Note_on_c, 0, 66, 0
1, 369471, Note_on_c, 0, 62, 0
1, 369471, Note_on_c, 0, 62, 46
1, 369474, Note_on_c, 0, 66, 58
1, 369509, Control_c, 0, 64, 0
1, 369509, Control_c, 0, 64, 0
1, 369721, Note_on_c, 0, 57, 46
1, 369721, Note_on_c, 0, 64, 58
1, 369740, Note_on_c, 0, 66, 0
1, 369740, Note_on_c, 0, 62, 0
1, 369783, Control_c, 0, 64, 127
1, 369783, Control_c, 0, 64, 127
1, 369970, Note_on_c, 0, 59, 46
1, 369970, Note_on_c, 0, 67, 58
1, 369970, Note_on_c, 0, 71, 76
1, 369973, Note_on_c, 0, 45, 48
1, 369973, Note_on_c, 0, 55, 48
1, 369990, Note_on_c, 0, 57, 0
1, 369990, Note_on_c, 0, 74, 0
1, 369990, Note_on_c, 0, 64, 0
1, 369993, Note_on_c, 0, 42, 0
1, 370220, Note_on_c, 0, 59, 0
1, 370220, Note_on_c, 0, 67, 0
1, 370220, Note_on_c, 0, 59, 46
1, 370223, Note_on_c, 0, 55, 0
1, 370223, Note_on_c, 0, 62, 58
1, 370223, Note_on_c, 0, 55, 48
1, 370256, Control_c, 0, 64, 0
1, 370256, Control_c, 0, 64, 0
1, 370469, Note_on_c, 0, 55, 0
1, 370469, Note_on_c, 0, 73, 79
1, 370469, Note_on_c, 0, 43, 48
1, 370487, Note_on_c, 0, 59, 0
1, 370487, Note_on_c, 0, 62, 0
1, 370487, Note_on_c, 0, 71, 0
1, 370490, Note_on_c, 0, 45, 0
1, 370919, Note_on_c, 0, 61, 46
1, 370919, Note_on_c, 0, 64, 58
1, 370919, Note_on_c, 0, 57, 48
1, 371031, Control_c, 0, 64, 127
1, 371031, Control_c, 0, 64, 127
1, 371143, Note_on_c, 0, 64, 0
1, 371143, Note_on_c, 0, 61, 0
1, 371143, Note_on_c, 0, 61, 46
1, 371146, Note_on_c, 0, 57, 0
1, 371146, Note_on_c, 0, 64, 58
1, 371146, Note_on_c, 0, 57, 48
1, 371368, Note_on_c, 0, 64, 0
1, 371368, Note_on_c, 0, 61, 0
1, 371368, Note_on_c, 0, 73, 0
1, 371371, Note_on_c, 0, 61, 46
1, 371371, Note_on_c, 0, 64, 58
1, 371371, Note_on_c, 0, 73, 79
1, 371374, Note_on_c, 0, 43, 0
1, 371374, Note_on_c, 0, 57, 0
1, 371374, Note_on_c, 0, 57, 48
1, 371377, Note_on_c, 0, 43, 48
1, 371406, Control_c, 0, 64, 0
1, 371406, Control_c, 0, 64, 0
1, 371618, Note_on_c, 0, 62, 46
1, 371618, Note_on_c, 0, 66, 58
1, 371635, Note_on_c, 0, 64, 0
1, 371635, Note_on_c, 0, 61, 0
1, 371674, Control_c, 0, 64, 127
1, 371674, Control_c, 0, 64, 127
1, 371842, Note_on_c, 0, 66, 0
1, 371842, Note_on_c, 0, 66, 46
1, 371842, Note_on_c, 0, 69, 58
1, 371845, Note_on_c, 0, 57, 0
1, 371845, Note_on_c, 0, 74, 79
1, 371845, Note_on_c, 0, 42, 51
1, 371867, Note_on_c, 0, 43, 0
1, 371867, Note_on_c, 0, 73, 0
1, 371867, Note_on_c, 0, 62, 0
1, 372057, Note_on_c, 0, 76, 74
1, 372057, Note_on_c, 0, 40, 47
1, 372079, Note_on_c, 0, 42, 0
1, 372079, Note_on_c, 0, 74, 0
1, 372190, Control_c, 0, 64, 0
1, 372190, Control_c, 0, 64, 0
1, 372243, Note_on_c, 0, 69, 0
1, 372243, Note_on_c, 0, 64, 35
1, 372243, Note_on_c, 0, 67, 57
1, 372246, Note_on_c, 0, 67, 59
1, 372246, Note_on_c, 0, 49, 43
1, 372265, Note_on_c, 0, 66, 0
1, 372265, Note_on_c, 0, 76, 0
1, 372265, Note_on_c, 0, 40, 0
1, 372431, Note_on_c, 0, 67, 0
1, 372431, Note_on_c, 0, 62, 49
1, 372431, Note_on_c, 0, 66, 61
1, 372434, Note_on_c, 0, 38, 39
1, 372434, Note_on_c, 0, 50, 48
1, 372448, Note_on_c, 0, 64, 0
1, 372448, Note_on_c, 0, 49, 0
1, 372448, Note_on_c, 0, 67, 0
1, 372880, Note_on_c, 0, 50, 42
1, 372880, Note_on_c, 0, 57, 52
1, 372992, Control_c, 0, 64, 127
1, 372992, Control_c, 0, 64, 127
1, 373105, Note_on_c, 0, 57, 0
1, 373105, Note_on_c, 0, 50, 0
1, 373105, Note_on_c, 0, 50, 51
1, 373108, Note_on_c, 0, 57, 51
1, 373329, Note_on_c, 0, 66, 0
1, 373329, Note_on_c, 0, 62, 0
1, 373329, Note_on_c, 0, 38, 0
1, 373332, Note_on_c, 0, 50, 0
1, 373332, Note_on_c, 0, 50, 0
1, 373332, Note_on_c, 0, 57, 0
1, 373335, Note_on_c, 0, 50, 41
1, 373335, Note_on_c, 0, 57, 50
1, 373363, Control_c, 0, 64, 0
1, 373363, Control_c, 0, 64, 0
1, 373468, Control_c, 0, 64, 127
1, 373468, Control_c, 0, 64, 127
1, 373554, Note_on_c, 0, 54, 41
1, 373554, Note_on_c, 0, 62, 50
1, 373571, Note_on_c, 0, 57, 0
1, 373571, Note_on_c, 0, 50, 0
1, 373778, Note_on_c, 0, 57, 40
1, 373778, Note_on_c, 0, 64, 49
1, 373796, Note_on_c, 0, 54, 0
1, 373796, Note_on_c, 0, 62, 0
1, 374003, Note_on_c, 0, 62, 40
1, 374003, Note_on_c, 0, 66, 48
1, 374021, Note_on_c, 0, 57, 0
1, 374021, Note_on_c, 0, 64, 0
1, 374036, Control_c, 0, 64, 0
1, 374036, Control_c, 0, 64, 0
1, 374228, Note_on_c, 0, 78, 79
1, 374228, Note_on_c, 0, 38, 48
1, 374247, Note_on_c, 0, 62, 0
1, 374247, Note_on_c, 0, 66, 0
1, 374727, Note_on_c, 0, 66, 46
1, 374727, Note_on_c, 0, 69, 58
1, 374839, Control_c, 0, 64, 127
1, 374839, Control_c, 0, 64, 127
1, 374952, Note_on_c, 0, 69, 0
1, 374952, Note_on_c, 0, 66, 0
1, 374952, Note_on_c, 0, 66, 46
1, 374955, Note_on_c, 0, 69, 58
1, 375176, Note_on_c, 0, 69, 0
1, 375176, Note_on_c, 0, 66, 0
1, 375176, Note_on_c, 0, 66, 46
1, 375179, Note_on_c, 0, 69, 58
1, 375179, Note_on_c, 0, 73, 75
1, 375179, Note_on_c, 0, 43, 48
1, 375196, Note_on_c, 0, 78, 0
1, 375196, Note_on_c, 0, 38, 0
1, 375214, Control_c, 0, 64, 0
1, 375214, Control_c, 0, 64, 0
1, 375426, Note_on_c, 0, 64, 46
1, 375426, Note_on_c, 0, 67, 58
1, 375443, Note_on_c, 0, 69, 0
1, 375443, Note_on_c, 0, 66, 0
1, 375482, Control_c, 0, 64, 127
1, 375482, Control_c, 0, 64, 127
1, 375650, Note_on_c, 0, 62, 46
1, 375650, Note_on_c, 0, 66, 58
1, 375668, Note_on_c, 0, 64, 0
1, 375668, Note_on_c, 0, 67, 0
1, 375875, Note_on_c, 0, 57, 46
1, 375875, Note_on_c, 0, 64, 58
1, 375893, Note_on_c, 0, 62, 0
1, 375893, Note_on_c, 0, 66, 0
1, 375908, Control_c, 0, 64, 0
1, 375908, Control_c, 0, 64, 0
1, 376100, Note_on_c, 0, 74, 76
1, 376100, Note_on_c, 0, 42, 48
1, 376117, Note_on_c, 0, 73, 0
1, 376117, Note_on_c, 0, 57, 0
1, 376117, Note_on_c, 0, 64, 0
1, 376120, Note_on_c, 0, 43, 0
1, 376549, Note_on_c, 0, 62, 46
1, 376549, Note_on_c, 0, 66, 58
1, 376661, Control_c, 0, 64, 127
1, 376661, Control_c, 0, 64, 127
1, 376774, Note_on_c, 0, 66, 0
1, 376774, Note_on_c, 0, 62, 0
1, 376774, Note_on_c, 0, 62, 46
1, 376777, Note_on_c, 0, 66, 58
1, 376998, Note_on_c, 0, 66, 0
1, 376998, Note_on_c, 0, 62, 0
1, 376998, Note_on_c, 0, 62, 46
1, 377001, Note_on_c, 0, 66, 58
1, 377001, Note_on_c, 0, 71, 76
1, 377001, Note_on_c, 0, 45, 53
1, 377018, Note_on_c, 0, 74, 0
1, 377018, Note_on_c, 0, 42, 0
1, 377036, Control_c, 0, 64, 0
1, 377036, Control_c, 0, 64, 0
1, 377248, Note_on_c, 0, 64, 46
1, 377248, Note_on_c, 0, 68, 58
1, 377267, Note_on_c, 0, 66, 0
1, 377267, Note_on_c, 0, 62, 0
1, 377310, Control_c, 0, 64, 127
1, 377310, Control_c, 0, 64, 127
1, 377498, Note_on_c, 0, 66, 46
1, 377498, Note_on_c, 0, 69, 58
1, 377498, Note_on_c, 0, 78, 78
1, 377501, Note_on_c, 0, 38, 48
1, 377517, Note_on_c, 0, 71, 0
1, 377517, Note_on_c, 0, 64, 0
1, 377517, Note_on_c, 0, 68, 0
1, 377520, Note_on_c, 0, 45, 0
1, 377711, Control_c, 0, 64, 127
1, 377711, Control_c, 0, 64, 127
1, 377747, Note_on_c, 0, 69, 0
1, 377747, Note_on_c, 0, 69, 46
1, 377747, Note_on_c, 0, 71, 58
1, 377769, Note_on_c, 0, 66, 0
1, 377963, Control_c, 0, 64, 0
1, 377963, Control_c, 0, 64, 0
1, 378028, Note_on_c, 0, 69, 0
1, 378028, Note_on_c, 0, 71, 0
1, 378028, Note_on_c, 0, 78, 0
1, 378031, Note_on_c, 0, 38, 0
1, 378031, Note_on_c, 0, 78, 80
1, 378031, Note_on_c, 0, 38, 48
1, 378034, Note_on_c, 0, 50, 55
1, 378477, Note_on_c, 0, 66, 46
1, 378477, Note_on_c, 0, 69, 58
1, 378477, Note_on_c, 0, 71, 46
1, 378590, Control_c, 0, 64, 127
1, 378590, Control_c, 0, 64, 127
1, 378702, Note_on_c, 0, 71, 0
1, 378702, Note_on_c, 0, 66, 0
1, 378702, Note_on_c, 0, 69, 0
1, 378705, Note_on_c, 0, 66, 46
1, 378705, Note_on_c, 0, 69, 58
1, 378705, Note_on_c, 0, 71, 46
1, 378926, Note_on_c, 0, 71, 0
1, 378926, Note_on_c, 0, 66, 0
1, 378926, Note_on_c, 0, 69, 0
1, 378929, Note_on_c, 0, 50, 0
1, 378929, Note_on_c, 0, 38, 0
1, 378929, Note_on_c, 0, 80, 79
1, 378932, Note_on_c, 0, 38, 48
1, 378932, Note_on_c, 0, 50, 55
1, 378948, Note_on_c, 0, 78, 0
1, 378969, Control_c, 0, 64, 0
1, 378969, Control_c, 0, 64, 0
1, 379207, Note_on_c, 0, 71, 46
1, 379207, Note_on_c, 0, 76, 58
1, 379277, Control_c, 0, 64, 127
1, 379277, Control_c, 0, 64, 127
1, 379488, Note_on_c, 0, 76, 0
1, 379488, Note_on_c, 0, 71, 0
1, 379488, Note_on_c, 0, 69, 46
1, 379491, Note_on_c, 0, 76, 58
1, 379491, Note_on_c, 0, 81, 79
1, 379491, Note_on_c, 0, 37, 48
1, 379494, Note_on_c, 0, 49, 55
1, 379510, Note_on_c, 0, 50, 0
1, 379510, Note_on_c, 0, 80, 0
1, 379510, Note_on_c, 0, 38, 0
1, 379769, Note_on_c, 0, 69, 0
1, 379769, Note_on_c, 0, 76, 0
1, 379769, Note_on_c, 0, 68, 52
1, 379772, Note_on_c, 0, 76, 52
1, 379772, Note_on_c, 0, 83, 75
1, 379772, Note_on_c, 0, 35, 44
1, 379775, Note_on_c, 0, 47, 51
1, 379794, Note_on_c, 0, 49, 0
1, 379794, Note_on_c, 0, 81, 0
1, 379794, Note_on_c, 0, 37, 0
1, 379815, Control_c, 0, 64, 0
1, 379815, Control_c, 0, 64, 0
1, 380090, Note_on_c, 0, 68, 0
1, 380090, Note_on_c, 0, 76, 0
1, 380090, Note_on_c, 0, 81, 73
1, 380093, Note_on_c, 0, 37, 41
1, 380093, Note_on_c, 0, 49, 48
1, 380109, Note_on_c, 0, 47, 0
1, 380109, Note_on_c, 0, 83, 0
1, 380109, Note_on_c, 0, 35, 0
1, 380589, Note_on_c, 0, 57, 43
1, 380589, Note_on_c, 0, 61, 53
1, 380714, Control_c, 0, 64, 127
1, 380714, Control_c, 0, 64, 127
1, 380839, Note_on_c, 0, 61, 0
1, 380839, Note_on_c, 0, 57, 0
1, 380839, Note_on_c, 0, 57, 43
1, 380842, Note_on_c, 0, 61, 54
1, 381063, Note_on_c, 0, 61, 0
1, 381063, Note_on_c, 0, 57, 0
1, 381063, Note_on_c, 0, 57, 44
1, 381066, Note_on_c, 0, 61, 55
1, 381066, Note_on_c, 0, 33, 40
1, 381066, Note_on_c, 0, 45, 47
1, 381083, Note_on_c, 0, 49, 0
1, 381083, Note_on_c, 0, 37, 0
1, 381101, Control_c, 0, 64, 0
1, 381101, Control_c, 0, 64, 0
1, 381217, Control_c, 0, 64, 127
1, 381217, Control_c, 0, 64, 127
1, 381313, Note_on_c, 0, 61, 45
1, 381313, Note_on_c, 0, 64, 56
1, 381332, Note_on_c, 0, 61, 0
1, 381332, Note_on_c, 0, 57, 0
1, 381562, Note_on_c, 0, 62, 46
1, 381562, Note_on_c, 0, 66, 58
1, 381584, Note_on_c, 0, 61, 0
1, 381584, Note_on_c, 0, 64, 0
1, 381843, Note_on_c, 0, 64, 47
1, 381843, Note_on_c, 0, 67, 59
1, 381868, Note_on_c, 0, 62, 0
1, 381868, Note_on_c, 0, 66, 0
1, 381890, Control_c, 0, 64, 0
1, 381890, Control_c, 0, 64, 0
1, 382039, Note_on_c, 0, 66, 57
1, 382101, Note_on_c, 0, 69, 57
1, 382164, Note_on_c, 0, 33, 0
1, 382164, Note_on_c, 0, 81, 0
1, 382164, Note_on_c, 0, 78, 72
1, 382167, Note_on_c, 0, 45, 0
1, 382167, Note_on_c, 0, 38, 52
1, 382182, Note_on_c, 0, 64, 0
1, 382182, Note_on_c, 0, 67, 0
1, 382302, Control_c, 0, 64, 127
1, 382302, Control_c, 0, 64, 127
1, 382302, Control_c, 0, 64, 127
1, 382389, Note_on_c, 0, 69, 0
1, 382389, Note_on_c, 0, 66, 0
1, 382463, Note_on_c, 0, 54, 45
1, 382613, Note_on_c, 0, 54, 0
1, 382613, Note_on_c, 0, 57, 45
1, 382763, Note_on_c, 0, 57, 0
1, 382763, Note_on_c, 0, 62, 45
1, 382913, Note_on_c, 0, 62, 0
1, 382913, Note_on_c, 0, 66, 45
1, 382975, Note_on_c, 0, 64, 62
1, 383019, Note_on_c, 0, 69, 62
1, 383063, Note_on_c, 0, 38, 0
1, 383063, Note_on_c, 0, 73, 77
1, 383063, Note_on_c, 0, 40, 52
1, 383066, Note_on_c, 0, 66, 0
1, 383075, Control_c, 0, 64, 0
1, 383075, Control_c, 0, 64, 0
1, 383075, Control_c, 0, 64, 0
1, 383080, Note_on_c, 0, 78, 0
1, 383175, Control_c, 0, 64, 127
1, 383175, Control_c, 0, 64, 127
1, 383175, Control_c, 0, 64, 127
1, 383287, Note_on_c, 0, 64, 0
1, 383287, Note_on_c, 0, 69, 0
1, 383362, Note_on_c, 0, 55, 45
1, 383512, Note_on_c, 0, 55, 0
1, 383512, Note_on_c, 0, 57, 45
1, 383662, Note_on_c, 0, 57, 0
1, 383662, Note_on_c, 0, 61, 45
1, 383777, Control_c, 0, 64, 127
1, 383777, Control_c, 0, 64, 127
1, 383777, Control_c, 0, 64, 127
1, 383811, Note_on_c, 0, 61, 0
1, 383811, Note_on_c, 0, 67, 45
1, 383961, Note_on_c, 0, 67, 0
1, 383961, Note_on_c, 0, 40, 0
1, 383961, Note_on_c, 0, 74, 75
1, 383964, Note_on_c, 0, 42, 52
1, 383979, Note_on_c, 0, 73, 0
1, 383988, Note_on_c, 0, 62, 69
1, 384043, Control_c, 0, 64, 0
1, 384043, Control_c, 0, 64, 0
1, 384043, Control_c, 0, 64, 0
1, 384124, Control_c, 0, 64, 127
1, 384124, Control_c, 0, 64, 127
1, 384124, Control_c, 0, 64, 127
1, 384261, Note_on_c, 0, 54, 45
1, 384411, Note_on_c, 0, 54, 0
1, 384411, Note_on_c, 0, 57, 45
1, 384561, Note_on_c, 0, 57, 0
1, 384561, Note_on_c, 0, 62, 45
1, 384710, Note_on_c, 0, 62, 0
1, 384710, Note_on_c, 0, 66, 45
1, 384860, Note_on_c, 0, 42, 0
1, 384860, Note_on_c, 0, 67, 70
1, 384860, Note_on_c, 0, 43, 52
1, 384863, Note_on_c, 0, 66, 0
1, 384872, Control_c, 0, 64, 0
1, 384872, Control_c, 0, 64, 0
1, 384872, Control_c, 0, 64, 0
1, 384877, Note_on_c, 0, 62, 0
1, 384972, Control_c, 0, 64, 127
1, 384972, Control_c, 0, 64, 127
1, 384972, Control_c, 0, 64, 127
1, 385159, Note_on_c, 0, 55, 45
1, 385309, Note_on_c, 0, 55, 0
1, 385309, Note_on_c, 0, 71, 73
1, 385309, Note_on_c, 0, 59, 45
1, 385327, Note_on_c, 0, 74, 0
1, 385459, Note_on_c, 0, 59, 0
1, 385459, Note_on_c, 0, 62, 45
1, 385608, Note_on_c, 0, 62, 0
1, 385608, Note_on_c, 0, 67, 45
1, 385621, Control_c, 0, 64, 127
1, 385621, Control_c, 0, 64, 127
1, 385621, Control_c, 0, 64, 127
1, 385758, Note_on_c, 0, 43, 0
1, 385758, Note_on_c, 0, 73, 73
1, 385758, Note_on_c, 0, 66, 75
1, 385761, Note_on_c, 0, 67, 0
1, 385761, Note_on_c, 0, 45, 52
1, 385776, Note_on_c, 0, 71, 0
1, 385776, Note_on_c, 0, 67, 0
1, 385827, Control_c, 0, 64, 0
1, 385827, Control_c, 0, 64, 0
1, 385827, Control_c, 0, 64, 0
1, 385908, Control_c, 0, 64, 127
1, 385908, Control_c, 0, 64, 127
1, 385908, Control_c, 0, 64, 127
1, 386058, Note_on_c, 0, 52, 45
1, 386208, Note_on_c, 0, 52, 0
1, 386208, Note_on_c, 0, 55, 45
1, 386358, Note_on_c, 0, 55, 0
1, 386358, Note_on_c, 0, 57, 45
1, 386507, Note_on_c, 0, 57, 0
1, 386507, Note_on_c, 0, 61, 45
1, 386657, Note_on_c, 0, 73, 0
1, 386657, Note_on_c, 0, 64, 73
1, 386657, Note_on_c, 0, 73, 66
1, 386660, Note_on_c, 0, 61, 0
1, 386660, Note_on_c, 0, 45, 0
1, 386660, Note_on_c, 0, 45, 52
1, 386669, Control_c, 0, 64, 0
1, 386669, Control_c, 0, 64, 0
1, 386669, Control_c, 0, 64, 0
1, 386675, Note_on_c, 0, 66, 0
1, 386769, Control_c, 0, 64, 127
1, 386769, Control_c, 0, 64, 127
1, 386769, Control_c, 0, 64, 127
1, 386956, Note_on_c, 0, 52, 45
1, 387106, Note_on_c, 0, 73, 0
1, 387106, Note_on_c, 0, 69, 67
1, 387106, Note_on_c, 0, 74, 68
1, 387109, Note_on_c, 0, 52, 0
1, 387109, Note_on_c, 0, 55, 45
1, 387131, Note_on_c, 0, 64, 0
1, 387321, Note_on_c, 0, 55, 0
1, 387321, Note_on_c, 0, 76, 64
1, 387321, Note_on_c, 0, 57, 45
1, 387340, Note_on_c, 0, 74, 0
1, 387486, Note_on_c, 0, 76, 0
1, 387486, Note_on_c, 0, 57, 0
1, 387486, Note_on_c, 0, 67, 59
1, 387489, Note_on_c, 0, 61, 45
1, 387528, Control_c, 0, 64, 127
1, 387528, Control_c, 0, 64, 127
1, 387528, Control_c, 0, 64, 127
1, 387653, Note_on_c, 0, 69, 0
1, 387653, Note_on_c, 0, 66, 57
1, 387653, Note_on_c, 0, 69, 66
1, 387656, Note_on_c, 0, 45, 0
1, 387656, Note_on_c, 0, 61, 0
1, 387656, Note_on_c, 0, 38, 52
1, 387671, Note_on_c, 0, 67, 0
1, 387691, Control_c, 0, 64, 0
1, 387691, Control_c, 0, 64, 0
1, 387691, Control_c, 0, 64, 0
1, 387791, Control_c, 0, 64, 127
1, 387791, Control_c, 0, 64, 127
1, 387791, Control_c, 0, 64, 127
1, 387952, Note_on_c, 0, 50, 45
1, 388102, Note_on_c, 0, 50, 0
1, 388102, Note_on_c, 0, 54, 45
1, 388252, Note_on_c, 0, 54, 0
1, 388252, Note_on_c, 0, 57, 45
1, 388402, Note_on_c, 0, 57, 0
1, 388402, Note_on_c, 0, 62, 45
1, 388486, Note_on_c, 0, 61, 59
1, 388552, Note_on_c, 0, 69, 0
1, 388552, Note_on_c, 0, 66, 0
1, 388552, Note_on_c, 0, 67, 67
1, 388555, Note_on_c, 0, 38, 0
1, 388555, Note_on_c, 0, 62, 0
1, 388555, Note_on_c, 0, 38, 52
1, 388565, Control_c, 0, 64, 0
1, 388565, Control_c, 0, 64, 0
1, 388565, Control_c, 0, 64, 0
1, 388676, Control_c, 0, 64, 127
1, 388676, Control_c, 0, 64, 127
1, 388676, Control_c, 0, 64, 127
1, 388801, Note_on_c, 0, 61, 0
1, 388884, Note_on_c, 0, 55, 45
1, 389051, Note_on_c, 0, 55, 0
1, 389051, Note_on_c, 0, 67, 0
1, 389051, Note_on_c, 0, 66, 68
1, 389054, Note_on_c, 0, 57, 45
1, 389238, Note_on_c, 0, 57, 0
1, 389238, Note_on_c, 0, 66, 0
1, 389238, Note_on_c, 0, 64, 66
1, 389241, Note_on_c, 0, 61, 45
1, 389425, Note_on_c, 0, 64, 0
1, 389425, Control_c, 0, 64, 127
1, 389425, Note_on_c, 0, 73, 64
1, 389428, Note_on_c, 0, 61, 0
1, 389428, Control_c, 0, 64, 127
1, 389428, Control_c, 0, 64, 127
1, 389431, Note_on_c, 0, 67, 45
1, 389514, Note_on_c, 0, 66, 65
1, 389577, Note_on_c, 0, 74, 65
1, 389639, Note_on_c, 0, 73, 0
1, 389639, Note_on_c, 0, 38, 0
1, 389639, Note_on_c, 0, 78, 80
1, 389642, Note_on_c, 0, 67, 0
1, 389642, Note_on_c, 0, 38, 52
1, 389665, Control_c, 0, 64, 0
1, 389665, Control_c, 0, 64, 0
1, 389665, Control_c, 0, 64, 0
1, 389777, Control_c, 0, 64, 127
1, 389777, Control_c, 0, 64, 127
1, 389777, Control_c, 0, 64, 127
1, 389864, Note_on_c, 0, 66, 0
1, 389938, Note_on_c, 0, 54, 45
1, 390089, Note_on_c, 0, 54, 0
1, 390089, Note_on_c, 0, 57, 45
1, 390239, Note_on_c, 0, 57, 0
1, 390239, Note_on_c, 0, 62, 45
1, 390388, Note_on_c, 0, 62, 0
1, 390388, Note_on_c, 0, 66, 45
1, 390538, Note_on_c, 0, 78, 0
1, 390538, Note_on_c, 0, 74, 0
1, 390538, Note_on_c, 0, 73, 77
1, 390541, Note_on_c, 0, 38, 0
1, 390541, Note_on_c, 0, 66, 0
1, 390541, Note_on_c, 0, 40, 52
1, 390550, Control_c, 0, 64, 0
1, 390550, Control_c, 0, 64, 0
1, 390550, Control_c, 0, 64, 0
1, 390650, Control_c, 0, 64, 127
1, 390650, Control_c, 0, 64, 127
1, 390650, Control_c, 0, 64, 127
1, 390837, Note_on_c, 0, 55, 45
1, 390987, Note_on_c, 0, 55, 0
1, 390987, Note_on_c, 0, 57, 45
1, 391137, Note_on_c, 0, 57, 0
1, 391137, Note_on_c, 0, 61, 45
1, 391286, Control_c, 0, 64, 127
1, 391286, Control_c, 0, 64, 127
1, 391286, Control_c, 0, 64, 127
1, 391289, Note_on_c, 0, 61, 0
1, 391289, Note_on_c, 0, 67, 45
1, 391436, Note_on_c, 0, 40, 0
1, 391436, Note_on_c, 0, 62, 63
1, 391436, Note_on_c, 0, 74, 73
1, 391439, Note_on_c, 0, 67, 0
1, 391439, Note_on_c, 0, 42, 52
1, 391454, Note_on_c, 0, 73, 0
1, 391491, Control_c, 0, 64, 0
1, 391491, Control_c, 0, 64, 0
1, 391491, Control_c, 0, 64, 0
1, 391574, Control_c, 0, 64, 127
1, 391574, Control_c, 0, 64, 127
1, 391574, Control_c, 0, 64, 127
1, 391736, Note_on_c, 0, 54, 45
1, 391886, Note_on_c, 0, 54, 0
1, 391886, Note_on_c, 0, 57, 45
1, 392036, Note_on_c, 0, 57, 0
1, 392036, Note_on_c, 0, 62, 45
1, 392185, Note_on_c, 0, 62, 0
1, 392185, Note_on_c, 0, 66, 45
1, 392335, Note_on_c, 0, 42, 0
1, 392335, Note_on_c, 0, 71, 66
1, 392335, Note_on_c, 0, 69, 70
1, 392338, Note_on_c, 0, 66, 0
1, 392338, Note_on_c, 0, 38, 52
1, 392347, Control_c, 0, 64, 0
1, 392347, Control_c, 0, 64, 0
1, 392347, Control_c, 0, 64, 0
1, 392352, Note_on_c, 0, 74, 0
1, 392352, Note_on_c, 0, 62, 0
1, 392447, Control_c, 0, 64, 127
1, 392447, Control_c, 0, 64, 127
1, 392447, Control_c, 0, 64, 127
1, 392634, Note_on_c, 0, 54, 45
1, 392784, Note_on_c, 0, 54, 0
1, 392784, Note_on_c, 0, 78, 80
1, 392784, Note_on_c, 0, 57, 45
1, 392802, Note_on_c, 0, 71, 0
1, 392934, Note_on_c, 0, 57, 0
1, 392934, Note_on_c, 0, 62, 45
1, 393083, Control_c, 0, 64, 127
1, 393083, Control_c, 0, 64, 127
1, 393083, Control_c, 0, 64, 127
1, 393086, Note_on_c, 0, 62, 0
1, 393086, Note_on_c, 0, 66, 45
1, 393233, Note_on_c, 0, 78, 0
1, 393233, Note_on_c, 0, 69, 0
1, 393233, Note_on_c, 0, 69, 80
1, 393236, Note_on_c, 0, 38, 0
1, 393236, Note_on_c, 0, 66, 0
1, 393236, Note_on_c, 0, 78, 73
1, 393239, Note_on_c, 0, 35, 48
1, 393271, Control_c, 0, 64, 0
1, 393271, Control_c, 0, 64, 0
1, 393271, Control_c, 0, 64, 0
1, 393371, Control_c, 0, 64, 127
1, 393371, Control_c, 0, 64, 127
1, 393371, Control_c, 0, 64, 127
1, 393533, Note_on_c, 0, 54, 45
1, 393683, Note_on_c, 0, 54, 0
1, 393683, Note_on_c, 0, 57, 45
1, 393833, Note_on_c, 0, 57, 0
1, 393833, Note_on_c, 0, 62, 45
1, 393982, Note_on_c, 0, 62, 0
1, 393982, Note_on_c, 0, 66, 45
1, 394132, Note_on_c, 0, 35, 0
1, 394132, Note_on_c, 0, 80, 66
1, 394132, Note_on_c, 0, 71, 77
1, 394135, Note_on_c, 0, 66, 0
1, 394135, Note_on_c, 0, 40, 48
1, 394144, Control_c, 0, 64, 0
1, 394144, Control_c, 0, 64, 0
1, 394144, Control_c, 0, 64, 0
1, 394150, Note_on_c, 0, 69, 0
1, 394150, Note_on_c, 0, 78, 0
1, 394244, Control_c, 0, 64, 127
1, 394244, Control_c, 0, 64, 127
1, 394244, Control_c, 0, 64, 127
1, 394431, Note_on_c, 0, 52, 45
1, 394581, Note_on_c, 0, 52, 0
1, 394581, Note_on_c, 0, 64, 71
1, 394581, Note_on_c, 0, 81, 73
1, 394584, Note_on_c, 0, 59, 45
1, 394606, Note_on_c, 0, 71, 0
1, 394606, Note_on_c, 0, 80, 0
1, 394796, Note_on_c, 0, 59, 0
1, 394796, Note_on_c, 0, 62, 45
1, 394902, Note_on_c, 0, 83, 66
1, 394927, Note_on_c, 0, 81, 0
1, 395009, Note_on_c, 0, 62, 0
1, 395009, Note_on_c, 0, 52, 45
1, 395129, Note_on_c, 0, 45, 50
1, 395152, Control_c, 0, 64, 0
1, 395152, Control_c, 0, 64, 0
1, 395152, Control_c, 0, 64, 0
1, 395223, Note_on_c, 0, 64, 0
1, 395223, Note_on_c, 0, 40, 0
1, 395223, Note_on_c, 0, 81, 71
1, 395226, Note_on_c, 0, 52, 0
1, 395226, Note_on_c, 0, 62, 66
1, 395248, Note_on_c, 0, 83, 0
1, 395420, Control_c, 0, 64, 127
1, 395420, Control_c, 0, 64, 127
1, 395420, Control_c, 0, 64, 127
1, 395603, Note_on_c, 0, 52, 45
1, 395623, Note_on_c, 0, 62, 0
1, 395770, Note_on_c, 0, 52, 0
1, 395770, Note_on_c, 0, 61, 67
1, 395770, Note_on_c, 0, 57, 45
1, 395958, Note_on_c, 0, 57, 0
1, 395958, Note_on_c, 0, 64, 45
1, 396051, Note_on_c, 0, 59, 64
1, 396070, Note_on_c, 0, 61, 0
1, 396134, Note_on_c, 0, 64, 0
1, 396134, Note_on_c, 0, 52, 45
1, 396300, Note_on_c, 0, 52, 0
1, 396300, Note_on_c, 0, 45, 0
1, 396300, Note_on_c, 0, 61, 62
1, 396303, Note_on_c, 0, 45, 48
1, 396314, Control_c, 0, 64, 0
1, 396314, Control_c, 0, 64, 0
1, 396314, Control_c, 0, 64, 0
1, 396320, Note_on_c, 0, 59, 0
1, 396425, Control_c, 0, 64, 127
1, 396425, Control_c, 0, 64, 127
1, 396425, Control_c, 0, 64, 127
1, 396633, Note_on_c, 0, 57, 45
1, 396800, Note_on_c, 0, 57, 0
1, 396800, Note_on_c, 0, 64, 45
1, 396966, Note_on_c, 0, 64, 0
1, 396966, Note_on_c, 0, 69, 45
1, 397132, Note_on_c, 0, 69, 0
1, 397132, Note_on_c, 0, 57, 45
1, 397137, Note_on_c, 0, 66, 64
1, 397218, Note_on_c, 0, 74, 64
1, 397243, Control_c, 0, 64, 0
1, 397243, Control_c, 0, 64, 0
1, 397243, Control_c, 0, 64, 0
1, 397299, Note_on_c, 0, 81, 0
1, 397299, Note_on_c, 0, 61, 0
1, 397299, Note_on_c, 0, 81, 74
1, 397302, Note_on_c, 0, 57, 0
1, 397302, Note_on_c, 0, 45, 0
1, 397302, Note_on_c, 0, 47, 53
1, 397437, Control_c, 0, 64, 127
1, 397437, Control_c, 0, 64, 127
1, 397437, Control_c, 0, 64, 127
1, 397598, Note_on_c, 0, 54, 46
1, 397748, Note_on_c, 0, 54, 0
1, 397748, Note_on_c, 0, 66, 0
1, 397748, Note_on_c, 0, 74, 0
1, 397751, Note_on_c, 0, 59, 46
1, 397898, Note_on_c, 0, 59, 0
1, 397898, Note_on_c, 0, 62, 46
1, 398047, Note_on_c, 0, 62, 0
1, 398047, Note_on_c, 0, 66, 46
1, 398052, Note_on_c, 0, 66, 65
1, 398124, Note_on_c, 0, 74, 65
1, 398197, Note_on_c, 0, 81, 0
1, 398197, Note_on_c, 0, 47, 0
1, 398197, Note_on_c, 0, 80, 76
1, 398200, Note_on_c, 0, 66, 0
1, 398200, Note_on_c, 0, 49, 55
1, 398210, Control_c, 0, 64, 0
1, 398210, Control_c, 0, 64, 0
1, 398210, Control_c, 0, 64, 0
1, 398310, Control_c, 0, 64, 127
1, 398310, Control_c, 0, 64, 127
1, 398310, Control_c, 0, 64, 127
1, 398497, Note_on_c, 0, 54, 47
1, 398647, Note_on_c, 0, 54, 0
1, 398647, Note_on_c, 0, 74, 0
1, 398647, Note_on_c, 0, 66, 0
1, 398650, Note_on_c, 0, 62, 50
1, 398813, Note_on_c, 0, 62, 0
1, 398813, Note_on_c, 0, 66, 47
1, 398896, Note_on_c, 0, 81, 76
1, 398918, Note_on_c, 0, 80, 0
1, 398989, Note_on_c, 0, 49, 0
1, 398989, Note_on_c, 0, 66, 0
1, 398989, Note_on_c, 0, 47, 60
1, 399114, Control_c, 0, 64, 0
1, 399114, Control_c, 0, 64, 0
1, 399114, Control_c, 0, 64, 0
1, 399177, Note_on_c, 0, 68, 66
1, 399177, Note_on_c, 0, 80, 77
1, 399177, Note_on_c, 0, 78, 66
1, 399180, Note_on_c, 0, 47, 0
1, 399180, Note_on_c, 0, 49, 54
1, 399195, Note_on_c, 0, 81, 0
1, 399315, Control_c, 0, 64, 127
1, 399315, Control_c, 0, 64, 127
1, 399315, Control_c, 0, 64, 127
1, 399476, Note_on_c, 0, 54, 47
1, 399626, Note_on_c, 0, 54, 0
1, 399626, Note_on_c, 0, 56, 47
1, 399776, Note_on_c, 0, 56, 0
1, 399776, Note_on_c, 0, 61, 48
1, 399926, Note_on_c, 0, 61, 0
1, 399926, Note_on_c, 0, 66, 49
1, 400076, Note_on_c, 0, 49, 0
1, 400076, Note_on_c, 0, 77, 59
1, 400076, Note_on_c, 0, 49, 56
1, 400079, Note_on_c, 0, 66, 0
1, 400088, Control_c, 0, 64, 0
1, 400088, Control_c, 0, 64, 0
1, 400088, Control_c, 0, 64, 0
1, 400093, Note_on_c, 0, 78, 0
1, 400188, Control_c, 0, 64, 127
1, 400188, Control_c, 0, 64, 127
1, 400188, Control_c, 0, 64, 127
1, 400375, Note_on_c, 0, 53, 49
1, 400525, Note_on_c, 0, 53, 0
1, 400525, Note_on_c, 0, 56, 49
1, 400675, Note_on_c, 0, 56, 0
1, 400675, Note_on_c, 0, 61, 49
1, 400824, Note_on_c, 0, 61, 0
1, 400824, Note_on_c, 0, 65, 50
1, 400924, Control_c, 0, 64, 0
1, 400924, Control_c, 0, 64, 0
1, 400924, Control_c, 0, 64, 0
1, 400974, Note_on_c, 0, 80, 0
1, 400974, Note_on_c, 0, 68, 0
1, 400974, Note_on_c, 0, 69, 69
1, 400977, Note_on_c, 0, 49, 0
1, 400977, Note_on_c, 0, 78, 69
1, 400977, Note_on_c, 0, 81, 80
1, 400980, Note_on_c, 0, 65, 0
1, 400980, Note_on_c, 0, 47, 58
1, 400992, Note_on_c, 0, 77, 0
1, 401112, Control_c, 0, 64, 127
1, 401112, Control_c, 0, 64, 127
1, 401112, Control_c, 0, 64, 127
1, 401273, Note_on_c, 0, 54, 51
1, 401423, Note_on_c, 0, 54, 0
1, 401423, Note_on_c, 0, 59, 52
1, 401573, Note_on_c, 0, 59, 0
1, 401573, Note_on_c, 0, 62, 52
1, 401723, Note_on_c, 0, 62, 0
1, 401723, Note_on_c, 0, 66, 52
1, 401873, Note_on_c, 0, 78, 0
1, 401873, Note_on_c, 0, 68, 70
1, 401873, Note_on_c, 0, 80, 82
1, 401876, Note_on_c, 0, 47, 0
1, 401876, Note_on_c, 0, 66, 0
1, 401876, Note_on_c, 0, 78, 70
1, 401879, Note_on_c, 0, 49, 63
1, 401885, Control_c, 0, 64, 0
1, 401885, Control_c, 0, 64, 0
1, 401885, Control_c, 0, 64, 0
1, 401890, Note_on_c, 0, 81, 0
1, 401890, Note_on_c, 0, 69, 0
1, 401985, Control_c, 0, 64, 127
1, 401985, Control_c, 0, 64, 127
1, 401985, Control_c, 0, 64, 127
1, 402172, Note_on_c, 0, 54, 53
1, 402322, Note_on_c, 0, 54, 0
1, 402322, Note_on_c, 0, 62, 58
1, 402472, Note_on_c, 0, 62, 0
1, 402472, Note_on_c, 0, 66, 55
1, 402547, Note_on_c, 0, 69, 71
1, 402547, Note_on_c, 0, 81, 82
1, 402569, Note_on_c, 0, 68, 0
1, 402569, Note_on_c, 0, 80, 0
1, 402640, Note_on_c, 0, 66, 0
1, 402640, Note_on_c, 0, 49, 0
1, 402640, Note_on_c, 0, 47, 74
1, 402765, Control_c, 0, 64, 0
1, 402765, Control_c, 0, 64, 0
1, 402765, Control_c, 0, 64, 0
1, 402827, Note_on_c, 0, 78, 0
1, 402827, Note_on_c, 0, 78, 83
1, 402827, Note_on_c, 0, 68, 71
1, 402830, Note_on_c, 0, 47, 0
1, 402830, Note_on_c, 0, 49, 63
1, 402845, Note_on_c, 0, 69, 0
1, 402845, Note_on_c, 0, 81, 0
1, 402965, Control_c, 0, 64, 127
1, 402965, Control_c, 0, 64, 127
1, 402965, Control_c, 0, 64, 127
1, 403127, Note_on_c, 0, 56, 60
1, 403139, Control_c, 0, 64, 127
1, 403139, Control_c, 0, 64, 127
1, 403139, Control_c, 0, 64, 127
1, 403277, Note_on_c, 0, 56, 0
1, 403277, Note_on_c, 0, 77, 74
1, 403277, Note_on_c, 0, 59, 60
1, 403280, Note_on_c, 0, 50, 68
1, 403294, Note_on_c, 0, 49, 0
1, 403294, Note_on_c, 0, 78, 0
1, 403314, Control_c, 0, 64, 0
1, 403314, Control_c, 0, 64, 0
1, 403314, Control_c, 0, 64, 0
1, 403404, Control_c, 0, 64, 127
1, 403404, Control_c, 0, 64, 127
1, 403404, Control_c, 0, 64, 127
1, 403427, Note_on_c, 0, 59, 0
1, 403427, Note_on_c, 0, 65, 60
1, 403514, Control_c, 0, 64, 127
1, 403514, Control_c, 0, 64, 127
1, 403514, Control_c, 0, 64, 127
1, 403576, Note_on_c, 0, 65, 0
1, 403576, Note_on_c, 0, 68, 60
1, 403726, Control_c, 0, 64, 127
1, 403726, Control_c, 0, 64, 127
1, 403726, Control_c, 0, 64, 127
1, 403729, Note_on_c, 0, 68, 0
1, 404025, Note_on_c, 0, 56, 60
1, 404175, Note_on_c, 0, 56, 0
1, 404175, Note_on_c, 0, 59, 61
1, 404175, Note_on_c, 0, 49, 57
1, 404186, Control_c, 0, 64, 0
1, 404186, Control_c, 0, 64, 0
1, 404186, Control_c, 0, 64, 0
1, 404193, Note_on_c, 0, 50, 0
1, 404325, Control_c, 0, 64, 127
1, 404325, Control_c, 0, 64, 127
1, 404325, Control_c, 0, 64, 127
1, 404328, Note_on_c, 0, 59, 0
1, 404328, Note_on_c, 0, 65, 61
1, 404474, Note_on_c, 0, 65, 0
1, 404474, Note_on_c, 0, 68, 61
1, 404574, Note_on_c, 0, 69, 71
1, 404574, Control_c, 0, 64, 0
1, 404574, Control_c, 0, 64, 0
1, 404574, Control_c, 0, 64, 0
1, 404625, Note_on_c, 0, 68, 0
1, 404625, Note_on_c, 0, 77, 0
1, 404625, Note_on_c, 0, 68, 0
1, 404628, Note_on_c, 0, 49, 0
1, 404628, Note_on_c, 0, 75, 71
1, 404682, Note_on_c, 0, 78, 71
1, 404737, Note_on_c, 0, 81, 83
1, 404737, Note_on_c, 0, 48, 61
1, 404875, Control_c, 0, 64, 127
1, 404875, Control_c, 0, 64, 127
1, 404875, Control_c, 0, 64, 127
1, 405036, Note_on_c, 0, 54, 53
1, 405186, Note_on_c, 0, 54, 0
1, 405186, Note_on_c, 0, 57, 54
1, 405336, Note_on_c, 0, 57, 0
1, 405336, Note_on_c, 0, 63, 54
1, 405485, Note_on_c, 0, 63, 0
1, 405485, Note_on_c, 0, 66, 54
1, 405635, Note_on_c, 0, 75, 0
1, 405635, Note_on_c, 0, 78, 0
1, 405635, Note_on_c, 0, 68, 68
1, 405638, Note_on_c, 0, 48, 0
1, 405638, Note_on_c, 0, 80, 81
1, 405638, Note_on_c, 0, 78, 68
1, 405641, Note_on_c, 0, 66, 0
1, 405641, Note_on_c, 0, 49, 70
1, 405648, Control_c, 0, 64, 0
1, 405648, Control_c, 0, 64, 0
1, 405648, Control_c, 0, 64, 0
1, 405653, Note_on_c, 0, 81, 0
1, 405653, Note_on_c, 0, 69, 0
1, 405748, Control_c, 0, 64, 127
1, 405748, Control_c, 0, 64, 127
1, 405748, Control_c, 0, 64, 127
1, 405935, Note_on_c, 0, 54, 55
1, 406085, Note_on_c, 0, 54, 0
1, 406085, Note_on_c, 0, 63, 58
1, 406235, Note_on_c, 0, 63, 0
1, 406235, Note_on_c, 0, 66, 55
1, 406309, Note_on_c, 0, 69, 70
1, 406309, Note_on_c, 0, 81, 83
1, 406331, Note_on_c, 0, 80, 0
1, 406331, Note_on_c, 0, 68, 0
1, 406403, Note_on_c, 0, 66, 0
1, 406403, Note_on_c, 0, 49, 0
1, 406403, Note_on_c, 0, 48, 72
1, 406528, Control_c, 0, 64, 0
1, 406528, Control_c, 0, 64, 0
1, 406528, Control_c, 0, 64, 0
1, 406581, Control_c, 0, 64, 0
1, 406590, Note_on_c, 0, 78, 0
1, 406590, Note_on_c, 0, 75, 83
1, 406590, Note_on_c, 0, 66, 59
1, 406593, Note_on_c, 0, 48, 0
1, 406593, Note_on_c, 0, 54, 50
1, 406593, Note_on_c, 0, 60, 59
1, 406615, Note_on_c, 0, 69, 0
1, 406615, Note_on_c, 0, 81, 0
1, 406751, Control_c, 0, 64, 127
1, 406751, Control_c, 0, 64, 127
1, 406751, Control_c, 0, 64, 127
1, 406804, Note_on_c, 0, 66, 0
1, 406804, Note_on_c, 0, 69, 59
1, 406970, Note_on_c, 0, 69, 0
1, 406970, Note_on_c, 0, 66, 59
1, 407120, Note_on_c, 0, 66, 0
1, 407120, Note_on_c, 0, 69, 59
1, 407270, Note_on_c, 0, 69, 0
1, 407270, Note_on_c, 0, 66, 59
1, 407420, Note_on_c, 0, 66, 0
1, 407420, Note_on_c, 0, 69, 59
1, 407541, Control_c, 0, 64, 0
1, 407541, Control_c, 0, 64, 0
1, 407541, Control_c, 0, 64, 0
1, 407570, Note_on_c, 0, 69, 0
1, 407570, Note_on_c, 0, 68, 59
1, 407570, Note_on_c, 0, 77, 83
1, 407573, Note_on_c, 0, 61, 59
1, 407573, Note_on_c, 0, 53, 50
1, 407589, Note_on_c, 0, 54, 0
1, 407589, Note_on_c, 0, 75, 0
1, 407589, Note_on_c, 0, 60, 0
1, 407709, Control_c, 0, 64, 127
1, 407709, Control_c, 0, 64, 127
1, 407709, Control_c, 0, 64, 127
1, 407736, Note_on_c, 0, 68, 0
1, 407736, Note_on_c, 0, 73, 59
1, 407902, Note_on_c, 0, 73, 0
1, 407902, Note_on_c, 0, 68, 59
1, 408069, Note_on_c, 0, 68, 0
1, 408069, Note_on_c, 0, 69, 59
1, 408069, Note_on_c, 0, 78, 83
1, 408072, Note_on_c, 0, 51, 50
1, 408091, Note_on_c, 0, 53, 0
1, 408091, Note_on_c, 0, 77, 0
1, 408256, Note_on_c, 0, 69, 0
1, 408256, Note_on_c, 0, 72, 59
1, 408350, Note_on_c, 0, 60, 59
1, 408375, Note_on_c, 0, 61, 0
1, 408456, Note_on_c, 0, 72, 0
1, 408456, Note_on_c, 0, 69, 59
1, 408514, Note_on_c, 0, 49, 59
1, 408564, Control_c, 0, 64, 0
1, 408564, Control_c, 0, 64, 0
1, 408564, Control_c, 0, 64, 0
1, 408670, Note_on_c, 0, 69, 0
1, 408670, Note_on_c, 0, 68, 64
1, 408670, Note_on_c, 0, 72, 64
1, 408673, Note_on_c, 0, 80, 83
1, 408673, Note_on_c, 0, 66, 79
1, 408696, Note_on_c, 0, 78, 0
1, 408696, Note_on_c, 0, 60, 0
1, 408696, Note_on_c, 0, 51, 0
1, 408850, Control_c, 0, 64, 127
1, 408850, Control_c, 0, 64, 127
1, 408850, Control_c, 0, 64, 127
1, 409098, Note_on_c, 0, 60, 52
1, 409248, Note_on_c, 0, 60, 0
1, 409248, Note_on_c, 0, 56, 52
1, 409398, Note_on_c, 0, 56, 0
1, 409398, Note_on_c, 0, 54, 52
1, 409547, Note_on_c, 0, 54, 0
1, 409547, Note_on_c, 0, 49, 0
1, 409547, Note_on_c, 0, 49, 52
1, 409684, Control_c, 0, 64, 0
1, 409684, Control_c, 0, 64, 0
1, 409684, Control_c, 0, 64, 0
1, 409697, Note_on_c, 0, 68, 0
1, 409697, Note_on_c, 0, 72, 0
1, 409697, Note_on_c, 0, 80, 0
1, 409700, Note_on_c, 0, 68, 59
1, 409700, Note_on_c, 0, 80, 71
1, 409700, Note_on_c, 0, 72, 59
1, 409703, Note_on_c, 0, 65, 68
1, 409717, Note_on_c, 0, 66, 0
1, 410030, Control_c, 0, 64, 127
1, 410030, Control_c, 0, 64, 127
1, 410030, Control_c, 0, 64, 127
1, 410033, Note_on_c, 0, 49, 0
1, 410033, Note_on_c, 0, 60, 52
1, 410196, Note_on_c, 0, 72, 0
1, 410196, Note_on_c, 0, 78, 59
1, 410196, Note_on_c, 0, 63, 68
1, 410199, Note_on_c, 0, 60, 0
1, 410199, Note_on_c, 0, 56, 52
1, 410214, Note_on_c, 0, 65, 0
1, 410244, Control_c, 0, 64, 0
1, 410244, Control_c, 0, 64, 0
1, 410244, Control_c, 0, 64, 0
1, 410323, Control_c, 0, 64, 127
1, 410323, Control_c, 0, 64, 127
1, 410323, Control_c, 0, 64, 127
1, 410347, Note_on_c, 0, 56, 0
1, 410347, Note_on_c, 0, 51, 52
1, 410533, Note_on_c, 0, 51, 0
1, 410533, Note_on_c, 0, 49, 52
1, 410706, Control_c, 0, 64, 0
1, 410706, Control_c, 0, 64, 0
1, 410706, Control_c, 0, 64, 0
1, 410747, Note_on_c, 0, 80, 0
1, 410747, Note_on_c, 0, 68, 0
1, 410747, Note_on_c, 0, 68, 56
1, 410750, Note_on_c, 0, 77, 56
1, 410750, Note_on_c, 0, 80, 68
1, 410750, Note_on_c, 0, 61, 68
1, 410765, Note_on_c, 0, 78, 0
1, 410765, Note_on_c, 0, 63, 0
1, 410947, Control_c, 0, 64, 127
1, 410947, Control_c, 0, 64, 127
1, 410947, Control_c, 0, 64, 127
1, 411047, Note_on_c, 0, 49, 0
1, 411047, Note_on_c, 0, 56, 49
1, 411197, Note_on_c, 0, 56, 0
1, 411197, Note_on_c, 0, 53, 49
1, 411347, Note_on_c, 0, 53, 0
1, 411347, Note_on_c, 0, 49, 48
1, 411496, Note_on_c, 0, 49, 0
1, 411496, Note_on_c, 0, 37, 48
1, 411646, Note_on_c, 0, 61, 0
1, 411646, Note_on_c, 0, 61, 53
1, 411945, Note_on_c, 0, 37, 0
1, 411945, Note_on_c, 0, 56, 46
1, 412095, Note_on_c, 0, 56, 0
1, 412095, Note_on_c, 0, 53, 45
1, 412245, Note_on_c, 0, 53, 0
1, 412245, Note_on_c, 0, 47, 45
1, 412394, Note_on_c, 0, 47, 0
1, 412394, Note_on_c, 0, 35, 44
1, 412605, Note_on_c, 0, 46, 44
1, 412662, Control_c, 0, 64, 0
1, 412662, Control_c, 0, 64, 0
1, 412662, Control_c, 0, 64, 0
1, 412770, Note_on_c, 0, 68, 0
1, 412770, Note_on_c, 0, 80, 0
1, 412770, Note_on_c, 0, 77, 0
1, 412773, Note_on_c, 0, 67, 55
1, 412773, Note_on_c, 0, 76, 55
1, 412773, Note_on_c, 0, 79, 78
1, 412776, Note_on_c, 0, 61, 0
1, 412776, Note_on_c, 0, 35, 0
1, 412776, Note_on_c, 0, 61, 44
1, 412898, Control_c, 0, 64, 127
1, 412898, Control_c, 0, 64, 127
1, 412898, Control_c, 0, 64, 127
1, 413069, Note_on_c, 0, 61, 0
1, 413069, Note_on_c, 0, 46, 0
1, 413069, Note_on_c, 0, 55, 44
1, 413219, Note_on_c, 0, 55, 0
1, 413219, Note_on_c, 0, 52, 44
1, 413369, Note_on_c, 0, 52, 0
1, 413369, Note_on_c, 0, 46, 44
1, 413518, Note_on_c, 0, 46, 0
1, 413518, Note_on_c, 0, 34, 55
1, 413685, Note_on_c, 0, 76, 0
1, 413685, Note_on_c, 0, 67, 0
1, 413685, Control_c, 0, 64, 0
1, 413688, Note_on_c, 0, 73, 69
1, 413688, Control_c, 0, 64, 0
1, 413688, Control_c, 0, 64, 0
1, 413691, Note_on_c, 0, 64, 45
1, 413702, Note_on_c, 0, 79, 0
1, 413927, Control_c, 0, 64, 127
1, 413927, Control_c, 0, 64, 127
1, 413927, Control_c, 0, 64, 127
1, 413984, Note_on_c, 0, 34, 0
1, 413984, Note_on_c, 0, 64, 0
1, 413984, Note_on_c, 0, 58, 45
1, 414134, Note_on_c, 0, 58, 0
1, 414134, Note_on_c, 0, 55, 45
1, 414284, Note_on_c, 0, 55, 0
1, 414284, Note_on_c, 0, 52, 45
1, 414433, Note_on_c, 0, 52, 0
1, 414433, Note_on_c, 0, 40, 50
1, 414575, Control_c, 0, 64, 0
1, 414575, Control_c, 0, 64, 0
1, 414575, Control_c, 0, 64, 0
1, 414600, Note_on_c, 0, 66, 48
1, 414600, Note_on_c, 0, 71, 48
1, 414600, Note_on_c, 0, 74, 71
1, 414603, Note_on_c, 0, 62, 46
1, 414618, Note_on_c, 0, 73, 0
1, 414679, Note_on_c, 0, 40, 0
1, 414728, Control_c, 0, 64, 127
1, 414728, Control_c, 0, 64, 127
1, 414728, Control_c, 0, 64, 127
1, 414899, Note_on_c, 0, 62, 0
1, 414899, Note_on_c, 0, 59, 46
1, 415049, Note_on_c, 0, 59, 0
1, 415049, Note_on_c, 0, 54, 46
1, 415199, Note_on_c, 0, 54, 0
1, 415199, Note_on_c, 0, 50, 46
1, 415349, Note_on_c, 0, 50, 0
1, 415349, Note_on_c, 0, 38, 58
1, 415515, Control_c, 0, 64, 0
1, 415515, Control_c, 0, 64, 0
1, 415515, Control_c, 0, 64, 0
1, 415518, Note_on_c, 0, 66, 47
1, 415757, Control_c, 0, 64, 127
1, 415757, Control_c, 0, 64, 127
1, 415757, Control_c, 0, 64, 127
1, 415814, Note_on_c, 0, 66, 0
1, 415814, Note_on_c, 0, 38, 0
1, 415814, Note_on_c, 0, 59, 47
1, 415965, Note_on_c, 0, 71, 0
1, 415965, Note_on_c, 0, 66, 0
1, 415965, Note_on_c, 0, 66, 48
1, 415968, Note_on_c, 0, 59, 0
1, 415968, Note_on_c, 0, 71, 74
1, 415968, Note_on_c, 0, 54, 48
1, 415982, Note_on_c, 0, 74, 0
1, 416115, Note_on_c, 0, 54, 0
1, 416115, Note_on_c, 0, 50, 48
1, 416264, Note_on_c, 0, 50, 0
1, 416264, Note_on_c, 0, 42, 52
1, 416405, Control_c, 0, 64, 0
1, 416405, Control_c, 0, 64, 0
1, 416405, Control_c, 0, 64, 0
1, 416430, Note_on_c, 0, 71, 0
1, 416430, Note_on_c, 0, 66, 0
1, 416430, Note_on_c, 0, 67, 48
1, 416433, Note_on_c, 0, 71, 48
1, 416433, Note_on_c, 0, 73, 74
1, 416433, Control_c, 0, 64, 0
1, 416436, Note_on_c, 0, 64, 48
1, 416509, Note_on_c, 0, 42, 0
1, 416559, Control_c, 0, 64, 127
1, 416559, Control_c, 0, 64, 127
1, 416730, Note_on_c, 0, 64, 0
1, 416730, Note_on_c, 0, 59, 48
1, 416880, Note_on_c, 0, 59, 0
1, 416880, Note_on_c, 0, 55, 49
1, 417030, Note_on_c, 0, 55, 0
1, 417030, Note_on_c, 0, 52, 49
1, 417179, Note_on_c, 0, 52, 0
1, 417179, Note_on_c, 0, 40, 60
1, 417346, Note_on_c, 0, 67, 0
1, 417346, Note_on_c, 0, 71, 0
1, 417346, Control_c, 0, 64, 0
1, 417349, Note_on_c, 0, 73, 0
1, 417349, Note_on_c, 0, 73, 71
1, 417349, Note_on_c, 0, 67, 48
1, 417352, Note_on_c, 0, 70, 60
1, 417352, Control_c, 0, 64, 0
1, 417352, Note_on_c, 0, 64, 47
1, 417615, Control_c, 0, 64, 127
1, 417615, Control_c, 0, 64, 127
1, 417678, Note_on_c, 0, 64, 0
1, 417678, Note_on_c, 0, 40, 0
1, 417678, Note_on_c, 0, 52, 46
1, 417845, Note_on_c, 0, 52, 0
1, 417845, Note_on_c, 0, 74, 69
1, 417845, Note_on_c, 0, 50, 45
1, 417867, Note_on_c, 0, 73, 0
1, 418032, Note_on_c, 0, 76, 66
1, 418032, Note_on_c, 0, 49, 44
1, 418054, Note_on_c, 0, 74, 0
1, 418065, Note_on_c, 0, 50, 0
1, 418117, Control_c, 0, 64, 0
1, 418117, Control_c, 0, 64, 0
1, 418126, Note_on_c, 0, 70, 0
1, 418126, Note_on_c, 0, 67, 0
1, 418219, Note_on_c, 0, 64, 44
1, 418219, Note_on_c, 0, 67, 64
1, 418219, Note_on_c, 0, 58, 43
1, 418257, Note_on_c, 0, 49, 0
1, 418257, Note_on_c, 0, 76, 0
1, 418401, Control_c, 0, 64, 0
1, 418401, Control_c, 0, 64, 0
1, 418433, Note_on_c, 0, 62, 42
1, 418433, Note_on_c, 0, 66, 65
1, 418433, Note_on_c, 0, 59, 43
1, 418460, Note_on_c, 0, 67, 0
1, 418460, Note_on_c, 0, 58, 0
1, 418460, Note_on_c, 0, 64, 0
1, 418561, Control_c, 0, 64, 127
1, 418561, Control_c, 0, 64, 127
1, 418561, Control_c, 0, 64, 127
1, 418733, Note_on_c, 0, 59, 0
1, 418733, Note_on_c, 0, 54, 42
1, 418883, Note_on_c, 0, 54, 0
1, 418883, Note_on_c, 0, 50, 42
1, 419033, Note_on_c, 0, 50, 0
1, 419033, Note_on_c, 0, 47, 41
1, 419182, Note_on_c, 0, 47, 0
1, 419182, Note_on_c, 0, 35, 56
1, 419349, Note_on_c, 0, 66, 0
1, 419349, Note_on_c, 0, 62, 0
1, 419349, Control_c, 0, 64, 0
1, 419352, Control_c, 0, 64, 0
1, 419352, Control_c, 0, 64, 0
1, 419352, Note_on_c, 0, 59, 46
1, 419651, Control_c, 0, 64, 127
1, 419651, Control_c, 0, 64, 127
1, 419651, Control_c, 0, 64, 127
1, 419723, Note_on_c, 0, 59, 0
1, 419723, Note_on_c, 0, 35, 0
1, 419723, Note_on_c, 0, 54, 45
1, 419889, Note_on_c, 0, 54, 0
1, 419889, Note_on_c, 0, 50, 45
1, 420056, Note_on_c, 0, 50, 0
1, 420056, Note_on_c, 0, 44, 44
1, 420222, Note_on_c, 0, 44, 0
1, 420222, Note_on_c, 0, 32, 47
1, 420300, Note_on_c, 0, 66, 59
1, 420355, Note_on_c, 0, 74, 59
1, 420381, Control_c, 0, 64, 0
1, 420381, Control_c, 0, 64, 0
1, 420381, Control_c, 0, 64, 0
1, 420409, Note_on_c, 0, 32, 0
1, 420409, Note_on_c, 0, 78, 76
1, 420409, Note_on_c, 0, 45, 44
1, 420412, Note_on_c, 0, 57, 44
1, 420552, Control_c, 0, 64, 127
1, 420552, Control_c, 0, 64, 127
1, 420552, Control_c, 0, 64, 127
1, 420555, Control_c, 0, 64, 127
1, 420555, Control_c, 0, 64, 127
1, 420555, Control_c, 0, 64, 127
1, 420659, Note_on_c, 0, 74, 0
1, 420659, Note_on_c, 0, 66, 0
1, 420742, Note_on_c, 0, 45, 0
1, 420742, Note_on_c, 0, 57, 0
1, 420742, Note_on_c, 0, 54, 44
1, 420909, Note_on_c, 0, 54, 0
1, 420909, Note_on_c, 0, 50, 44
1, 421075, Note_on_c, 0, 50, 0
1, 421075, Note_on_c, 0, 45, 44
1, 421241, Note_on_c, 0, 45, 0
1, 421241, Note_on_c, 0, 33, 54
1, 421310, Note_on_c, 0, 64, 55
1, 421359, Note_on_c, 0, 69, 55
1, 421408, Control_c, 0, 64, 0
1, 421408, Control_c, 0, 64, 0
1, 421408, Note_on_c, 0, 73, 72
1, 421411, Control_c, 0, 64, 0
1, 421411, Control_c, 0, 64, 0
1, 421411, Control_c, 0, 64, 0
1, 421414, Control_c, 0, 64, 0
1, 421414, Note_on_c, 0, 55, 45
1, 421427, Note_on_c, 0, 78, 0
1, 421657, Note_on_c, 0, 69, 0
1, 421657, Note_on_c, 0, 64, 0
1, 421677, Control_c, 0, 64, 127
1, 421677, Control_c, 0, 64, 127
1, 421677, Control_c, 0, 64, 127
1, 421680, Control_c, 0, 64, 127
1, 421680, Control_c, 0, 64, 127
1, 421680, Control_c, 0, 64, 127
1, 421740, Note_on_c, 0, 33, 0
1, 421740, Note_on_c, 0, 55, 0
1, 421740, Note_on_c, 0, 52, 45
1, 421907, Note_on_c, 0, 52, 0
1, 421907, Note_on_c, 0, 45, 45
1, 422074, Note_on_c, 0, 45, 0
1, 422074, Note_on_c, 0, 43, 45
1, 422239, Note_on_c, 0, 43, 0
1, 422239, Note_on_c, 0, 31, 56
1, 422381, Control_c, 0, 64, 0
1, 422381, Control_c, 0, 64, 0
1, 422381, Control_c, 0, 64, 0
1, 422384, Control_c, 0, 64, 0
1, 422384, Control_c, 0, 64, 0
1, 422384, Control_c, 0, 64, 0
1, 422406, Note_on_c, 0, 74, 67
1, 422406, Note_on_c, 0, 57, 60
1, 422426, Note_on_c, 0, 73, 0
1, 422549, Control_c, 0, 64, 127
1, 422549, Control_c, 0, 64, 127
1, 422549, Control_c, 0, 64, 127
1, 422552, Control_c, 0, 64, 127
1, 422552, Control_c, 0, 64, 127
1, 422552, Control_c, 0, 64, 127
1, 422739, Note_on_c, 0, 31, 0
1, 422739, Note_on_c, 0, 50, 43
1, 422905, Note_on_c, 0, 50, 0
1, 422905, Note_on_c, 0, 62, 65
1, 422905, Note_on_c, 0, 45, 43
1, 422935, Note_on_c, 0, 57, 0
1, 423155, Note_on_c, 0, 45, 0
1, 423155, Note_on_c, 0, 42, 43
1, 423280, Note_on_c, 0, 66, 70
1, 423305, Note_on_c, 0, 62, 0
1, 423386, Note_on_c, 0, 42, 0
1, 423386, Note_on_c, 0, 30, 44
1, 423601, Note_on_c, 0, 66, 0
1, 423601, Control_c, 0, 64, 0
1, 423601, Control_c, 0, 64, 0
1, 423604, Note_on_c, 0, 66, 71
1, 423604, Control_c, 0, 64, 0
1, 423604, Control_c, 0, 64, 0
1, 423607, Control_c, 0, 64, 0
1, 423607, Control_c, 0, 64, 0
1, 423607, Note_on_c, 0, 55, 43
1, 423701, Note_on_c, 0, 30, 0
1, 423922, Note_on_c, 0, 59, 69
1, 423944, Note_on_c, 0, 66, 0
1, 423944, Control_c, 0, 64, 127
1, 423944, Control_c, 0, 64, 127
1, 423947, Control_c, 0, 64, 127
1, 423947, Control_c, 0, 64, 127
1, 423947, Control_c, 0, 64, 127
1, 423950, Control_c, 0, 64, 127
1, 424015, Note_on_c, 0, 55, 0
1, 424015, Note_on_c, 0, 52, 43
1, 424202, Note_on_c, 0, 52, 0
1, 424202, Note_on_c, 0, 64, 64
1, 424202, Note_on_c, 0, 71, 71
1, 424205, Note_on_c, 0, 47, 44
1, 424224, Note_on_c, 0, 74, 0
1, 424224, Note_on_c, 0, 59, 0
1, 424390, Note_on_c, 0, 47, 0
1, 424390, Note_on_c, 0, 43, 44
1, 424576, Note_on_c, 0, 43, 0
1, 424576, Note_on_c, 0, 31, 52
1, 424735, Control_c, 0, 64, 0
1, 424735, Control_c, 0, 64, 0
1, 424735, Control_c, 0, 64, 0
1, 424738, Control_c, 0, 64, 0
1, 424738, Control_c, 0, 64, 0
1, 424738, Control_c, 0, 64, 0
1, 424764, Note_on_c, 0, 73, 67
1, 424764, Note_on_c, 0, 69, 67
1, 424764, Control_c, 0, 64, 0
1, 424767, Note_on_c, 0, 57, 42
1, 424786, Note_on_c, 0, 64, 0
1, 424786, Note_on_c, 0, 71, 0
1, 424924, Control_c, 0, 64, 127
1, 424924, Control_c, 0, 64, 127
1, 424924, Control_c, 0, 64, 127
1, 424927, Control_c, 0, 64, 127
1, 425138, Note_on_c, 0, 31, 0
1, 425138, Note_on_c, 0, 57, 0
1, 425138, Note_on_c, 0, 55, 41
1, 425326, Note_on_c, 0, 55, 0
1, 425326, Note_on_c, 0, 63, 60
1, 425326, Note_on_c, 0, 52, 41
1, 425348, Note_on_c, 0, 69, 0
1, 425513, Note_on_c, 0, 52, 0
1, 425513, Note_on_c, 0, 45, 41
1, 425606, Note_on_c, 0, 64, 60
1, 425628, Note_on_c, 0, 63, 0
1, 425700, Note_on_c, 0, 45, 0
1, 425700, Note_on_c, 0, 33, 46
1, 425887, Note_on_c, 0, 73, 0
1, 425887, Control_c, 0, 64, 0
1, 425887, Control_c, 0, 64, 0
1, 425890, Note_on_c, 0, 67, 62
1, 425890, Note_on_c, 0, 73, 49
1, 425890, Control_c, 0, 64, 0
1, 425893, Control_c, 0, 64, 0
1, 425893, Note_on_c, 0, 57, 42
1, 425912, Note_on_c, 0, 64, 0
1, 426233, Control_c, 0, 64, 127
1, 426233, Control_c, 0, 64, 127
1, 426233, Control_c, 0, 64, 127
1, 426236, Control_c, 0, 64, 127
1, 426315, Note_on_c, 0, 33, 0
1, 426315, Note_on_c, 0, 57, 0
1, 426315, Note_on_c, 0, 55, 41
1, 426529, Note_on_c, 0, 55, 0
1, 426529, Note_on_c, 0, 74, 62
1, 426529, Note_on_c, 0, 52, 42
1, 426558, Note_on_c, 0, 73, 0
1, 426779, Note_on_c, 0, 76, 62
1, 426779, Note_on_c, 0, 45, 42
1, 426817, Note_on_c, 0, 52, 0
1, 426817, Note_on_c, 0, 74, 0
1, 426911, Note_on_c, 0, 67, 0
1, 426923, Control_c, 0, 64, 0
1, 426923, Control_c, 0, 64, 0
1, 426992, Note_on_c, 0, 61, 43
1, 426992, Note_on_c, 0, 67, 55
1, 426992, Note_on_c, 0, 33, 42
1, 427036, Note_on_c, 0, 45, 0
1, 427036, Note_on_c, 0, 76, 0
1, 427242, Note_on_c, 0, 62, 38
1, 427242, Note_on_c, 0, 66, 55
1, 427242, Note_on_c, 0, 57, 43
1, 427272, Note_on_c, 0, 67, 0
1, 427272, Note_on_c, 0, 33, 0
1, 427272, Note_on_c, 0, 61, 0
1, 427360, Control_c, 0, 64, 0
1, 427360, Control_c, 0, 64, 0
1, 427360, Control_c, 0, 64, 0
1, 427575, Note_on_c, 0, 57, 0
1, 427575, Note_on_c, 0, 54, 42
1, 427631, Control_c, 0, 64, 127
1, 427631, Control_c, 0, 64, 127
1, 427631, Control_c, 0, 64, 127
1, 427741, Note_on_c, 0, 54, 0
1, 427741, Note_on_c, 0, 50, 42
1, 427920, Note_on_c, 0, 50, 0
1, 427920, Note_on_c, 0, 45, 41
1, 428098, Note_on_c, 0, 45, 0
1, 428098, Note_on_c, 0, 38, 48
1, 428276, Note_on_c, 0, 62, 0
1, 428276, Control_c, 0, 64, 0
1, 428276, Control_c, 0, 64, 0
1, 428279, Note_on_c, 0, 66, 0
1, 428279, Control_c, 0, 64, 0
1, 428279, Control_c, 0, 64, 0
1, 428282, Control_c, 0, 64, 0
1, 428282, Control_c, 0, 64, 0
1, 428282, Note_on_c, 0, 54, 41
1, 428587, Control_c, 0, 64, 127
1, 428587, Control_c, 0, 64, 127
1, 428587, Control_c, 0, 64, 127
1, 428590, Control_c, 0, 64, 127
1, 428590, Control_c, 0, 64, 127
1, 428590, Control_c, 0, 64, 127
1, 428660, Note_on_c, 0, 54, 0
1, 428660, Note_on_c, 0, 38, 0
1, 428660, Note_on_c, 0, 50, 40
1, 428852, Note_on_c, 0, 50, 0
1, 428852, Note_on_c, 0, 45, 40
1, 429061, Note_on_c, 0, 45, 0
1, 429061, Note_on_c, 0, 42, 39
1, 429268, Note_on_c, 0, 42, 0
1, 429268, Note_on_c, 0, 38, 39
1, 429445, Control_c, 0, 64, 0
1, 429445, Control_c, 0, 64, 0
1, 429445, Control_c, 0, 64, 0
1, 429448, Control_c, 0, 64, 0
1, 429448, Control_c, 0, 64, 0
1, 429448, Control_c, 0, 64, 0
1, 429476, Control_c, 0, 64, 127
1, 429476, Control_c, 0, 64, 127
1, 429476, Control_c, 0, 64, 127
1, 429479, Note_on_c, 0, 50, 37
1, 429827, Note_on_c, 0, 50, 0
1, 429827, Note_on_c, 0, 38, 0
1, 429827, Note_on_c, 0, 45, 37
1, 430178, Note_on_c, 0, 45, 0
1, 430178, Note_on_c, 0, 42, 37
1, 430566, Note_on_c, 0, 42, 0
1, 430566, Note_on_c, 0, 38, 37
1, 431127, Control_c, 0, 64, 127
1, 431127, Control_c, 0, 64, 127
1, 431127, Control_c, 0, 64, 127
1, 431130, Note_on_c, 0, 38, 0
1, 431130, Note_on_c, 0, 26, 35
1, 431478, Note_on_c, 0, 72, 50
1, 431478, Note_on_c, 0, 84, 66
1, 431829, Note_on_c, 0, 84, 0
1, 431829, Note_on_c, 0, 72, 0
1, 431829, Note_on_c, 0, 72, 50
1, 431832, Note_on_c, 0, 84, 66
1, 431832, Note_on_c, 0, 78, 50
1, 431832, Note_on_c, 0, 62, 30
1, 431835, Note_on_c, 0, 69, 36
1, 432133, Note_on_c, 0, 84, 0
1, 432133, Note_on_c, 0, 72, 0
1, 432133, Note_on_c, 0, 72, 50
1, 432136, Note_on_c, 0, 84, 66
1, 432436, Note_on_c, 0, 72, 0
1, 432436, Note_on_c, 0, 78, 0
1, 432436, Control_c, 0, 64, 127
1, 432439, Note_on_c, 0, 84, 0
1, 432439, Note_on_c, 0, 72, 50
1, 432439, Note_on_c, 0, 84, 66
1, 432442, Note_on_c, 0, 26, 0
1, 432442, Note_on_c, 0, 62, 0
1, 432442, Control_c, 0, 64, 127
1, 432445, Note_on_c, 0, 69, 0
1, 432445, Note_on_c, 0, 38, 42
1, 432799, Note_on_c, 0, 71, 50
1, 432799, Note_on_c, 0, 83, 66
1, 432821, Note_on_c, 0, 84, 0
1, 432821, Note_on_c, 0, 72, 0
1, 433080, Note_on_c, 0, 69, 50
1, 433080, Note_on_c, 0, 81, 66
1, 433080, Note_on_c, 0, 74, 50
1, 433083, Note_on_c, 0, 62, 30
1, 433083, Note_on_c, 0, 65, 36
1, 433100, Note_on_c, 0, 71, 0
1, 433100, Note_on_c, 0, 83, 0
1, 433347, Note_on_c, 0, 68, 50
1, 433347, Note_on_c, 0, 80, 66
1, 433369, Note_on_c, 0, 69, 0
1, 433369, Note_on_c, 0, 81, 0
1, 433628, Note_on_c, 0, 80, 0
1, 433628, Note_on_c, 0, 68, 0
1, 433628, Control_c, 0, 64, 127
1, 433631, Note_on_c, 0, 68, 50
1, 433631, Note_on_c, 0, 80, 66
1, 433631, Control_c, 0, 64, 127
1, 433634, Note_on_c, 0, 38, 0
1, 433634, Note_on_c, 0, 62, 0
1, 433634, Note_on_c, 0, 65, 0
1, 433637, Note_on_c, 0, 38, 42
1, 433651, Note_on_c, 0, 74, 0
1, 433725, Control_c, 0, 64, 0
1, 433725, Control_c, 0, 64, 0
1, 433790, Control_c, 0, 64, 127
1, 433790, Control_c, 0, 64, 127
1, 433931, Note_on_c, 0, 69, 50
1, 433931, Note_on_c, 0, 81, 66
1, 433953, Note_on_c, 0, 68, 0
1, 433953, Note_on_c, 0, 80, 0
1, 434212, Note_on_c, 0, 71, 50
1, 434212, Note_on_c, 0, 83, 66
1, 434212, Note_on_c, 0, 74, 50
1, 434215, Note_on_c, 0, 62, 30
1, 434215, Note_on_c, 0, 66, 36
1, 434231, Note_on_c, 0, 81, 0
1, 434231, Note_on_c, 0, 69, 0
1, 434231, Control_c, 0, 64, 0
1, 434231, Control_c, 0, 64, 0
1, 434480, Note_on_c, 0, 72, 50
1, 434480, Note_on_c, 0, 84, 66
1, 434500, Note_on_c, 0, 83, 0
1, 434500, Note_on_c, 0, 71, 0
1, 434524, Control_c, 0, 64, 127
1, 434524, Control_c, 0, 64, 127
1, 434747, Note_on_c, 0, 38, 0
1, 434747, Note_on_c, 0, 76, 50
1, 434747, Note_on_c, 0, 88, 66
1, 434750, Note_on_c, 0, 38, 42
1, 434772, Note_on_c, 0, 74, 0
1, 434821, Control_c, 0, 64, 0
1, 434821, Control_c, 0, 64, 0
1, 434994, Control_c, 0, 64, 127
1, 434994, Control_c, 0, 64, 127
1, 435068, Note_on_c, 0, 72, 0
1, 435068, Note_on_c, 0, 84, 0
1, 435068, Note_on_c, 0, 76, 0
1, 435071, Note_on_c, 0, 88, 0
1, 435071, Note_on_c, 0, 76, 50
1, 435071, Note_on_c, 0, 88, 66
1, 435285, Control_c, 0, 64, 127
1, 435285, Control_c, 0, 64, 127
1, 435371, Note_on_c, 0, 88, 0
1, 435371, Note_on_c, 0, 76, 0
1, 435371, Note_on_c, 0, 76, 50
1, 435374, Note_on_c, 0, 62, 0
1, 435374, Note_on_c, 0, 88, 66
1, 435374, Note_on_c, 0, 78, 50
1, 435377, Note_on_c, 0, 66, 0
1, 435377, Note_on_c, 0, 62, 30
1, 435377, Note_on_c, 0, 69, 36
1, 435652, Note_on_c, 0, 88, 0
1, 435652, Note_on_c, 0, 76, 0
1, 435652, Note_on_c, 0, 76, 50
1, 435655, Note_on_c, 0, 88, 66
1, 435674, Control_c, 0, 64, 127
1, 435674, Control_c, 0, 64, 127
1, 435920, Note_on_c, 0, 76, 0
1, 435920, Note_on_c, 0, 78, 0
1, 435920, Control_c, 0, 64, 127
1, 435923, Note_on_c, 0, 88, 0
1, 435923, Note_on_c, 0, 76, 50
1, 435923, Note_on_c, 0, 88, 66
1, 435926, Note_on_c, 0, 38, 0
1, 435926, Note_on_c, 0, 62, 0
1, 435926, Control_c, 0, 64, 127
1, 435929, Note_on_c, 0, 69, 0
1, 435929, Note_on_c, 0, 38, 42
1, 436017, Control_c, 0, 64, 0
1, 436017, Control_c, 0, 64, 0
1, 436130, Control_c, 0, 64, 127
1, 436130, Control_c, 0, 64, 127
1, 436223, Note_on_c, 0, 74, 50
1, 436223, Note_on_c, 0, 86, 66
1, 436245, Note_on_c, 0, 88, 0
1, 436245, Note_on_c, 0, 76, 0
1, 436504, Note_on_c, 0, 72, 50
1, 436504, Note_on_c, 0, 84, 66
1, 436504, Note_on_c, 0, 77, 50
1, 436507, Note_on_c, 0, 62, 30
1, 436507, Note_on_c, 0, 68, 36
1, 436525, Note_on_c, 0, 74, 0
1, 436525, Note_on_c, 0, 86, 0
1, 436771, Note_on_c, 0, 71, 50
1, 436771, Note_on_c, 0, 83, 66
1, 436792, Note_on_c, 0, 72, 0
1, 436792, Note_on_c, 0, 84, 0
1, 437039, Note_on_c, 0, 71, 0
1, 437039, Control_c, 0, 64, 127
1, 437039, Control_c, 0, 64, 0
1, 437042, Note_on_c, 0, 83, 0
1, 437042, Note_on_c, 0, 71, 50
1, 437042, Note_on_c, 0, 83, 66
1, 437045, Note_on_c, 0, 38, 0
1, 437045, Control_c, 0, 64, 127
1, 437045, Control_c, 0, 64, 0
1, 437048, Note_on_c, 0, 68, 0
1, 437048, Note_on_c, 0, 62, 0
1, 437048, Note_on_c, 0, 38, 42
1, 437060, Note_on_c, 0, 77, 0
1, 437125, Control_c, 0, 64, 0
1, 437125, Control_c, 0, 64, 0
1, 437224, Control_c, 0, 64, 127
1, 437224, Control_c, 0, 64, 127
1, 437306, Note_on_c, 0, 72, 51
1, 437306, Note_on_c, 0, 84, 68
1, 437327, Note_on_c, 0, 83, 0
1, 437327, Note_on_c, 0, 71, 0
1, 437574, Note_on_c, 0, 71, 53
1, 437574, Note_on_c, 0, 83, 70
1, 437574, Note_on_c, 0, 78, 53
1, 437577, Note_on_c, 0, 62, 30
1, 437577, Note_on_c, 0, 69, 36
1, 437595, Note_on_c, 0, 84, 0
1, 437595, Note_on_c, 0, 72, 0
1, 437841, Note_on_c, 0, 72, 54
1, 437841, Note_on_c, 0, 84, 73
1, 437863, Note_on_c, 0, 83, 0
1, 437863, Note_on_c, 0, 71, 0
1, 438122, Control_c, 0, 64, 127
1, 438122, Control_c, 0, 64, 0
1, 438122, Control_c, 0, 64, 0
1, 438125, Note_on_c, 0, 76, 59
1, 438125, Note_on_c, 0, 88, 79
1, 438125, Control_c, 0, 64, 127
1, 438128, Note_on_c, 0, 38, 0
1, 438128, Control_c, 0, 64, 0
1, 438128, Control_c, 0, 64, 0
1, 438131, Note_on_c, 0, 62, 0
1, 438131, Note_on_c, 0, 69, 0
1, 438131, Note_on_c, 0, 38, 42
1, 438147, Note_on_c, 0, 78, 0
1, 438225, Control_c, 0, 64, 0
1, 438225, Control_c, 0, 64, 0
1, 438344, Control_c, 0, 64, 127
1, 438344, Control_c, 0, 64, 127
1, 438443, Note_on_c, 0, 84, 0
1, 438443, Note_on_c, 0, 72, 0
1, 438443, Note_on_c, 0, 72, 51
1, 438446, Note_on_c, 0, 84, 72
1, 438465, Note_on_c, 0, 88, 0
1, 438465, Note_on_c, 0, 76, 0
1, 438724, Note_on_c, 0, 71, 52
1, 438724, Note_on_c, 0, 83, 73
1, 438724, Note_on_c, 0, 79, 66
1, 438727, Note_on_c, 0, 62, 30
1, 438727, Note_on_c, 0, 64, 30
1, 438727, Note_on_c, 0, 67, 36
1, 438746, Note_on_c, 0, 84, 0
1, 438746, Note_on_c, 0, 72, 0
1, 439005, Note_on_c, 0, 72, 52
1, 439005, Note_on_c, 0, 84, 75
1, 439026, Note_on_c, 0, 83, 0
1, 439026, Note_on_c, 0, 71, 0
1, 439285, Control_c, 0, 64, 127
1, 439285, Note_on_c, 0, 79, 59
1, 439285, Note_on_c, 0, 91, 85
1, 439288, Note_on_c, 0, 38, 0
1, 439288, Note_on_c, 0, 62, 0
1, 439288, Control_c, 0, 64, 127
1, 439291, Note_on_c, 0, 64, 0
1, 439291, Note_on_c, 0, 67, 0
1, 439291, Note_on_c, 0, 38, 42
1, 439315, Note_on_c, 0, 84, 0
1, 439315, Note_on_c, 0, 72, 0
1, 439315, Note_on_c, 0, 79, 0
1, 439660, Note_on_c, 0, 78, 57
1, 439660, Note_on_c, 0, 90, 82
1, 439685, Note_on_c, 0, 79, 0
1, 439685, Note_on_c, 0, 91, 0
1, 439981, Note_on_c, 0, 78, 0
1, 439981, Note_on_c, 0, 71, 57
1, 439981, Note_on_c, 0, 83, 82
1, 439984, Note_on_c, 0, 78, 59
1, 439984, Note_on_c, 0, 62, 30
1, 439984, Note_on_c, 0, 69, 36
1, 440010, Note_on_c, 0, 90, 0
1, 440355, Note_on_c, 0, 72, 56
1, 440355, Note_on_c, 0, 84, 80
1, 440384, Note_on_c, 0, 83, 0
1, 440384, Note_on_c, 0, 71, 0
1, 440729, Note_on_c, 0, 84, 0
1, 440729, Control_c, 0, 64, 127
1, 440729, Note_on_c, 0, 81, 66
1, 440732, Note_on_c, 0, 84, 66
1, 440732, Note_on_c, 0, 93, 87
1, 440732, Control_c, 0, 64, 127
1, 440735, Note_on_c, 0, 38, 0
1, 440735, Note_on_c, 0, 62, 0
1, 440735, Control_c, 0, 64, 0
1, 440738, Note_on_c, 0, 69, 0
1, 440738, Note_on_c, 0, 40, 59
1, 440738, Note_on_c, 0, 52, 59
1, 440765, Note_on_c, 0, 72, 0
1, 440765, Note_on_c, 0, 78, 0
1, 440826, Control_c, 0, 64, 0
1, 440826, Control_c, 0, 64, 0
1, 441082, Control_c, 0, 64, 127
1, 441082, Control_c, 0, 64, 127
1, 441179, Note_on_c, 0, 84, 0
1, 441179, Note_on_c, 0, 79, 65
1, 441179, Note_on_c, 0, 84, 65
1, 441182, Note_on_c, 0, 91, 86
1, 441204, Control_c, 0, 64, 0
1, 441204, Control_c, 0, 64, 0
1, 441208, Note_on_c, 0, 81, 0
1, 441208, Note_on_c, 0, 93, 0
1, 441303, Control_c, 0, 64, 127
1, 441303, Control_c, 0, 64, 127
1, 441553, Note_on_c, 0, 38, 59
1, 441553, Note_on_c, 0, 50, 59
1, 441597, Note_on_c, 0, 52, 0
1, 441597, Note_on_c, 0, 40, 0
1, 441927, Note_on_c, 0, 84, 0
1, 441927, Note_on_c, 0, 78, 64
1, 441927, Note_on_c, 0, 84, 64
1, 441930, Note_on_c, 0, 90, 84
1, 441953, Note_on_c, 0, 79, 0
1, 441953, Note_on_c, 0, 91, 0
1, 441958, Control_c, 0, 64, 0
1, 441958, Control_c, 0, 64, 0
1, 442080, Control_c, 0, 64, 127
1, 442080, Control_c, 0, 64, 127
1, 442248, Control_c, 0, 64, 127
1, 442248, Control_c, 0, 64, 127
1, 442248, Control_c, 0, 64, 0
1, 442251, Note_on_c, 0, 36, 59
1, 442251, Note_on_c, 0, 48, 59
1, 442292, Note_on_c, 0, 38, 0
1, 442292, Note_on_c, 0, 50, 0
1, 442623, Note_on_c, 0, 76, 62
1, 442623, Note_on_c, 0, 81, 62
1, 442623, Note_on_c, 0, 88, 82
1, 442626, Control_c, 0, 64, 0
1, 442626, Control_c, 0, 64, 0
1, 442645, Note_on_c, 0, 84, 0
1, 442645, Note_on_c, 0, 90, 0
1, 442645, Note_on_c, 0, 78, 0
1, 442703, Control_c, 0, 64, 127
1, 442703, Control_c, 0, 64, 127
1, 442904, Note_on_c, 0, 66, 40
1, 442904, Note_on_c, 0, 69, 47
1, 443184, Note_on_c, 0, 81, 0
1, 443184, Note_on_c, 0, 74, 61
1, 443184, Note_on_c, 0, 81, 61
1, 443187, Note_on_c, 0, 86, 80
1, 443206, Note_on_c, 0, 76, 0
1, 443206, Note_on_c, 0, 88, 0
1, 443439, Control_c, 0, 64, 0
1, 443439, Control_c, 0, 64, 0
1, 443465, Control_c, 0, 64, 127
1, 443465, Control_c, 0, 64, 127
1, 443465, Control_c, 0, 64, 0
1, 443468, Note_on_c, 0, 35, 57
1, 443468, Note_on_c, 0, 47, 57
1, 443487, Note_on_c, 0, 36, 0
1, 443487, Note_on_c, 0, 48, 0
1, 443555, Control_c, 0, 64, 0
1, 443555, Control_c, 0, 64, 0
1, 443645, Control_c, 0, 64, 127
1, 443645, Control_c, 0, 64, 127
1, 443746, Note_on_c, 0, 81, 0
1, 443746, Note_on_c, 0, 76, 59
1, 443746, Note_on_c, 0, 81, 59
1, 443749, Note_on_c, 0, 88, 78
1, 443775, Note_on_c, 0, 86, 0
1, 443775, Note_on_c, 0, 74, 0
1, 444120, Note_on_c, 0, 69, 0
1, 444120, Note_on_c, 0, 66, 0
1, 444120, Note_on_c, 0, 66, 39
1, 444123, Note_on_c, 0, 69, 46
1, 444495, Note_on_c, 0, 81, 0
1, 444495, Note_on_c, 0, 75, 58
1, 444495, Note_on_c, 0, 81, 58
1, 444498, Note_on_c, 0, 87, 75
1, 444520, Note_on_c, 0, 88, 0
1, 444520, Note_on_c, 0, 76, 0
1, 444816, Control_c, 0, 64, 0
1, 444816, Note_on_c, 0, 36, 49
1, 444816, Note_on_c, 0, 48, 49
1, 444838, Note_on_c, 0, 47, 0
1, 444838, Note_on_c, 0, 35, 0
1, 444956, Control_c, 0, 64, 127
1, 444956, Control_c, 0, 64, 127
1, 445097, Note_on_c, 0, 81, 0
1, 445097, Note_on_c, 0, 76, 57
1, 445097, Note_on_c, 0, 81, 57
1, 445100, Note_on_c, 0, 88, 73
1, 445118, Note_on_c, 0, 75, 0
1, 445118, Note_on_c, 0, 87, 0
1, 445377, Note_on_c, 0, 69, 0
1, 445377, Note_on_c, 0, 66, 0
1, 445377, Note_on_c, 0, 66, 38
1, 445380, Note_on_c, 0, 69, 45
1, 445658, Note_on_c, 0, 81, 0
1, 445658, Note_on_c, 0, 74, 55
1, 445658, Note_on_c, 0, 81, 55
1, 445661, Note_on_c, 0, 86, 71
1, 445683, Note_on_c, 0, 88, 0
1, 445683, Note_on_c, 0, 76, 0
1, 445903, Control_c, 0, 64, 0
1, 445903, Control_c, 0, 64, 0
1, 445979, Control_c, 0, 64, 127
1, 445979, Control_c, 0, 64, 127
1, 445979, Control_c, 0, 64, 127
1, 445982, Note_on_c, 0, 37, 45
1, 445982, Note_on_c, 0, 49, 45
1, 446008, Note_on_c, 0, 48, 0
1, 446008, Note_on_c, 0, 36, 0
1, 446353, Note_on_c, 0, 81, 0
1, 446353, Note_on_c, 0, 73, 54
1, 446353, Note_on_c, 0, 81, 54
1, 446356, Note_on_c, 0, 85, 69
1, 446383, Note_on_c, 0, 74, 0
1, 446383, Note_on_c, 0, 86, 0
1, 446728, Note_on_c, 0, 38, 42
1, 446728, Note_on_c, 0, 50, 42
1, 446757, Note_on_c, 0, 37, 0
1, 446757, Note_on_c, 0, 49, 0
1, 446769, Control_c, 0, 64, 0
1, 446769, Control_c, 0, 64, 0
1, 446769, Control_c, 0, 64, 0
1, 447102, Note_on_c, 0, 72, 52
1, 447102, Note_on_c, 0, 79, 52
1, 447102, Note_on_c, 0, 84, 67
1, 447137, Note_on_c, 0, 81, 0
1, 447137, Note_on_c, 0, 85, 0
1, 447137, Note_on_c, 0, 73, 0
1, 447188, Control_c, 0, 64, 127
1, 447188, Control_c, 0, 64, 127
1, 447188, Control_c, 0, 64, 127
1, 447487, Control_c, 0, 64, 0
1, 447487, Control_c, 0, 64, 0
1, 447487, Control_c, 0, 64, 0
1, 447552, Control_c, 0, 64, 127
1, 447552, Control_c, 0, 64, 127
1, 447552, Control_c, 0, 64, 127
1, 447555, Note_on_c, 0, 66, 0
1, 447555, Control_c, 0, 64, 127
1, 447555, Control_c, 0, 64, 0
1, 447558, Note_on_c, 0, 69, 0
1, 447558, Note_on_c, 0, 26, 35
1, 447587, Note_on_c, 0, 50, 0
1, 447587, Note_on_c, 0, 38, 0
1, 448001, Note_on_c, 0, 79, 0
1, 448001, Note_on_c, 0, 84, 0
1, 448001, Note_on_c, 0, 72, 0
1, 448004, Note_on_c, 0, 72, 50
1, 448004, Note_on_c, 0, 84, 66
1, 448375, Note_on_c, 0, 84, 0
1, 448375, Note_on_c, 0, 72, 0
1, 448375, Note_on_c, 0, 72, 50
1, 448378, Note_on_c, 0, 84, 66
1, 448378, Note_on_c, 0, 78, 50
1, 448378, Note_on_c, 0, 62, 30
1, 448381, Note_on_c, 0, 69, 36
1, 448696, Note_on_c, 0, 84, 0
1, 448696, Note_on_c, 0, 72, 0
1, 448696, Note_on_c, 0, 72, 50
1, 448699, Note_on_c, 0, 84, 66
1, 449017, Note_on_c, 0, 72, 0
1, 449017, Note_on_c, 0, 78, 0
1, 449017, Control_c, 0, 64, 127
1, 449020, Note_on_c, 0, 84, 0
1, 449020, Note_on_c, 0, 72, 50
1, 449020, Note_on_c, 0, 84, 66
1, 449023, Note_on_c, 0, 26, 0
1, 449023, Control_c, 0, 64, 127
1, 449023, Control_c, 0, 64, 0
1, 449026, Note_on_c, 0, 62, 0
1, 449026, Note_on_c, 0, 69, 0
1, 449026, Note_on_c, 0, 38, 42
1, 449338, Note_on_c, 0, 71, 50
1, 449338, Note_on_c, 0, 83, 66
1, 449360, Note_on_c, 0, 72, 0
1, 449360, Note_on_c, 0, 84, 0
1, 449619, Note_on_c, 0, 69, 50
1, 449619, Note_on_c, 0, 81, 66
1, 449619, Note_on_c, 0, 74, 50
1, 449622, Note_on_c, 0, 62, 30
1, 449622, Note_on_c, 0, 65, 36
1, 449641, Note_on_c, 0, 71, 0
1, 449641, Note_on_c, 0, 83, 0
1, 449900, Note_on_c, 0, 68, 50
1, 449900, Note_on_c, 0, 80, 66
1, 449921, Note_on_c, 0, 69, 0
1, 449921, Note_on_c, 0, 81, 0
1, 450180, Note_on_c, 0, 80, 0
1, 450180, Note_on_c, 0, 68, 0
1, 450180, Control_c, 0, 64, 127
1, 450183, Note_on_c, 0, 68, 50
1, 450183, Note_on_c, 0, 80, 66
1, 450183, Control_c, 0, 64, 127
1, 450186, Note_on_c, 0, 38, 0
1, 450186, Note_on_c, 0, 62, 0
1, 450186, Control_c, 0, 64, 0
1, 450189, Note_on_c, 0, 65, 0
1, 450189, Note_on_c, 0, 38, 42
1, 450202, Note_on_c, 0, 74, 0
1, 450270, Control_c, 0, 64, 0
1, 450270, Control_c, 0, 64, 0
1, 450331, Control_c, 0, 64, 127
1, 450331, Control_c, 0, 64, 127
1, 450414, Control_c, 0, 64, 127
1, 450414, Control_c, 0, 64, 127
1, 450461, Note_on_c, 0, 69, 50
1, 450461, Note_on_c, 0, 81, 66
1, 450483, Note_on_c, 0, 68, 0
1, 450483, Note_on_c, 0, 80, 0
1, 450742, Note_on_c, 0, 71, 50
1, 450742, Note_on_c, 0, 83, 66
1, 450742, Note_on_c, 0, 74, 50
1, 450745, Note_on_c, 0, 62, 30
1, 450745, Note_on_c, 0, 66, 36
1, 450762, Control_c, 0, 64, 0
1, 450762, Control_c, 0, 64, 0
1, 450762, Control_c, 0, 64, 0
1, 450765, Note_on_c, 0, 81, 0
1, 450765, Note_on_c, 0, 69, 0
1, 450765, Control_c, 0, 64, 0
1, 451023, Note_on_c, 0, 72, 50
1, 451023, Note_on_c, 0, 84, 66
1, 451045, Note_on_c, 0, 83, 0
1, 451045, Note_on_c, 0, 71, 0
1, 451070, Control_c, 0, 64, 127
1, 451070, Control_c, 0, 64, 127
1, 451070, Control_c, 0, 64, 127
1, 451073, Control_c, 0, 64, 127
1, 451304, Note_on_c, 0, 76, 50
1, 451304, Note_on_c, 0, 88, 66
1, 451304, Control_c, 0, 64, 0
1, 451307, Note_on_c, 0, 38, 0
1, 451307, Note_on_c, 0, 38, 42
1, 451333, Note_on_c, 0, 74, 0
1, 451390, Control_c, 0, 64, 0
1, 451390, Control_c, 0, 64, 0
1, 451390, Control_c, 0, 64, 0
1, 451393, Control_c, 0, 64, 0
1, 451592, Control_c, 0, 64, 127
1, 451592, Control_c, 0, 64, 127
1, 451592, Control_c, 0, 64, 127
1, 451595, Control_c, 0, 64, 127
1, 451678, Note_on_c, 0, 72, 0
1, 451678, Note_on_c, 0, 84, 0
1, 451678, Note_on_c, 0, 76, 0
1, 451681, Note_on_c, 0, 88, 0
1, 451681, Note_on_c, 0, 76, 50
1, 451681, Note_on_c, 0, 88, 66
1, 451879, Control_c, 0, 64, 127
1, 451879, Control_c, 0, 64, 127
1, 451879, Control_c, 0, 64, 127
1, 451882, Control_c, 0, 64, 127
1, 451959, Note_on_c, 0, 88, 0
1, 451959, Note_on_c, 0, 76, 0
1, 451959, Note_on_c, 0, 76, 50
1, 451962, Note_on_c, 0, 62, 0
1, 451962, Note_on_c, 0, 88, 66
1, 451962, Note_on_c, 0, 78, 50
1, 451965, Note_on_c, 0, 66, 0
1, 451965, Note_on_c, 0, 62, 30
1, 451965, Note_on_c, 0, 69, 36
1, 452226, Note_on_c, 0, 88, 0
1, 452226, Note_on_c, 0, 76, 0
1, 452226, Note_on_c, 0, 76, 50
1, 452229, Note_on_c, 0, 88, 66
1, 452248, Control_c, 0, 64, 127
1, 452248, Control_c, 0, 64, 127
1, 452248, Control_c, 0, 64, 127
1, 452251, Control_c, 0, 64, 127
1, 452494, Note_on_c, 0, 76, 0
1, 452494, Note_on_c, 0, 78, 0
1, 452494, Control_c, 0, 64, 127
1, 452497, Note_on_c, 0, 88, 0
1, 452497, Note_on_c, 0, 76, 50
1, 452497, Note_on_c, 0, 88, 66
1, 452500, Note_on_c, 0, 38, 0
1, 452500, Control_c, 0, 64, 127
1, 452500, Control_c, 0, 64, 0
1, 452503, Note_on_c, 0, 69, 0
1, 452503, Note_on_c, 0, 62, 0
1, 452503, Note_on_c, 0, 38, 42
1, 452584, Control_c, 0, 64, 0
1, 452584, Control_c, 0, 64, 0
1, 452688, Control_c, 0, 64, 127
1, 452688, Control_c, 0, 64, 127
1, 452727, Control_c, 0, 64, 127
1, 452727, Control_c, 0, 64, 127
1, 452774, Note_on_c, 0, 74, 50
1, 452774, Note_on_c, 0, 86, 66
1, 452795, Note_on_c, 0, 76, 0
1, 452795, Note_on_c, 0, 88, 0
1, 453042, Note_on_c, 0, 72, 50
1, 453042, Note_on_c, 0, 84, 66
1, 453042, Note_on_c, 0, 77, 50
1, 453045, Note_on_c, 0, 62, 30
1, 453045, Note_on_c, 0, 68, 36
1, 453063, Note_on_c, 0, 74, 0
1, 453063, Note_on_c, 0, 86, 0
1, 453309, Note_on_c, 0, 71, 50
1, 453309, Note_on_c, 0, 83, 66
1, 453330, Note_on_c, 0, 72, 0
1, 453330, Note_on_c, 0, 84, 0
1, 453577, Note_on_c, 0, 71, 0
1, 453577, Control_c, 0, 64, 127
1, 453577, Control_c, 0, 64, 0
1, 453580, Note_on_c, 0, 83, 0
1, 453580, Note_on_c, 0, 71, 50
1, 453580, Note_on_c, 0, 83, 66
1, 453583, Control_c, 0, 64, 127
1, 453583, Control_c, 0, 64, 0
1, 453583, Control_c, 0, 64, 0
1, 453586, Note_on_c, 0, 38, 0
1, 453586, Note_on_c, 0, 68, 0
1, 453586, Note_on_c, 0, 62, 0
1, 453589, Note_on_c, 0, 38, 42
1, 453602, Note_on_c, 0, 77, 0
1, 453679, Control_c, 0, 64, 0
1, 453679, Control_c, 0, 64, 0
1, 453799, Control_c, 0, 64, 127
1, 453799, Control_c, 0, 64, 127
1, 453844, Control_c, 0, 64, 127
1, 453844, Control_c, 0, 64, 127
1, 453898, Note_on_c, 0, 72, 51
1, 453898, Note_on_c, 0, 84, 68
1, 453920, Note_on_c, 0, 83, 0
1, 453920, Note_on_c, 0, 71, 0
1, 454178, Note_on_c, 0, 71, 53
1, 454178, Note_on_c, 0, 83, 70
1, 454178, Note_on_c, 0, 78, 53
1, 454181, Note_on_c, 0, 62, 30
1, 454181, Note_on_c, 0, 69, 36
1, 454198, Note_on_c, 0, 84, 0
1, 454198, Note_on_c, 0, 72, 0
1, 454198, Control_c, 0, 64, 0
1, 454198, Control_c, 0, 64, 0
1, 454205, Control_c, 0, 64, 0
1, 454205, Control_c, 0, 64, 0
1, 454339, Control_c, 0, 64, 127
1, 454339, Control_c, 0, 64, 127
1, 454459, Note_on_c, 0, 72, 54
1, 454459, Note_on_c, 0, 84, 73
1, 454481, Note_on_c, 0, 83, 0
1, 454481, Note_on_c, 0, 71, 0
1, 454577, Control_c, 0, 64, 127
1, 454577, Control_c, 0, 64, 127
1, 454740, Control_c, 0, 64, 127
1, 454740, Control_c, 0, 64, 0
1, 454740, Control_c, 0, 64, 0
1, 454743, Note_on_c, 0, 76, 59
1, 454743, Note_on_c, 0, 88, 79
1, 454743, Control_c, 0, 64, 127
1, 454746, Control_c, 0, 64, 0
1, 454746, Control_c, 0, 64, 0
1, 454746, Control_c, 0, 64, 0
1, 454749, Note_on_c, 0, 69, 0
1, 454749, Note_on_c, 0, 62, 0
1, 454749, Note_on_c, 0, 38, 0
1, 454752, Note_on_c, 0, 38, 42
1, 454769, Note_on_c, 0, 78, 0
1, 454860, Control_c, 0, 64, 0
1, 454860, Control_c, 0, 64, 0
1, 454883, Control_c, 0, 64, 0
1, 454883, Control_c, 0, 64, 0
1, 454999, Control_c, 0, 64, 127
1, 454999, Control_c, 0, 64, 127
1, 455114, Note_on_c, 0, 84, 0
1, 455114, Note_on_c, 0, 72, 0
1, 455114, Note_on_c, 0, 72, 51
1, 455117, Note_on_c, 0, 84, 72
1, 455137, Note_on_c, 0, 88, 0
1, 455137, Note_on_c, 0, 76, 0
1, 455137, Control_c, 0, 64, 127
1, 455137, Control_c, 0, 64, 127
1, 455435, Note_on_c, 0, 71, 52
1, 455435, Note_on_c, 0, 83, 73
1, 455435, Note_on_c, 0, 79, 66
1, 455438, Note_on_c, 0, 62, 30
1, 455438, Note_on_c, 0, 64, 30
1, 455438, Note_on_c, 0, 67, 36
1, 455457, Note_on_c, 0, 84, 0
1, 455457, Note_on_c, 0, 72, 0
1, 455716, Note_on_c, 0, 72, 52
1, 455716, Note_on_c, 0, 84, 75
1, 455738, Note_on_c, 0, 83, 0
1, 455738, Note_on_c, 0, 71, 0
1, 455997, Control_c, 0, 64, 127
1, 455997, Note_on_c, 0, 79, 59
1, 455997, Note_on_c, 0, 91, 85
1, 456000, Note_on_c, 0, 38, 0
1, 456000, Note_on_c, 0, 62, 0
1, 456000, Control_c, 0, 64, 127
1, 456003, Note_on_c, 0, 64, 0
1, 456003, Note_on_c, 0, 67, 0
1, 456003, Note_on_c, 0, 38, 42
1, 456022, Note_on_c, 0, 84, 0
1, 456022, Note_on_c, 0, 72, 0
1, 456022, Note_on_c, 0, 79, 0
1, 456318, Note_on_c, 0, 78, 57
1, 456318, Note_on_c, 0, 90, 82
1, 456343, Note_on_c, 0, 79, 0
1, 456343, Note_on_c, 0, 91, 0
1, 456639, Note_on_c, 0, 78, 0
1, 456639, Note_on_c, 0, 71, 57
1, 456639, Note_on_c, 0, 83, 82
1, 456642, Note_on_c, 0, 78, 59
1, 456642, Note_on_c, 0, 62, 30
1, 456642, Note_on_c, 0, 69, 36
1, 456668, Note_on_c, 0, 90, 0
1, 456668, Control_c, 0, 64, 0
1, 456668, Control_c, 0, 64, 0
1, 456674, Control_c, 0, 64, 0
1, 456674, Control_c, 0, 64, 0
1, 456808, Control_c, 0, 64, 127
1, 456808, Control_c, 0, 64, 127
1, 456852, Control_c, 0, 64, 127
1, 456852, Control_c, 0, 64, 127
1, 457013, Note_on_c, 0, 72, 56
1, 457013, Note_on_c, 0, 84, 80
1, 457048, Note_on_c, 0, 83, 0
1, 457048, Note_on_c, 0, 71, 0
1, 457461, Note_on_c, 0, 84, 0
1, 457461, Note_on_c, 0, 62, 0
1, 457461, Note_on_c, 0, 69, 0
1, 457461, Note_on_c, 0, 38, 0
1, 457461, Control_c, 0, 64, 0
1, 457461, Control_c, 0, 64, 127
1, 457461, Note_on_c, 0, 81, 64
1, 457461, Note_on_c, 0, 84, 64
1, 457461, Note_on_c, 0, 93, 87
1, 457461, Control_c, 0, 64, 127
1, 457461, Control_c, 0, 64, 0
1, 457461, Note_on_c, 0, 40, 49
1, 457461, Note_on_c, 0, 52, 49
1, 457506, Note_on_c, 0, 72, 0
1, 457506, Note_on_c, 0, 78, 0
1, 457903, Control_c, 0, 64, 127
1, 457903, Control_c, 0, 64, 127
1, 458024, Note_on_c, 0, 84, 0
1, 458024, Note_on_c, 0, 79, 65
1, 458024, Note_on_c, 0, 84, 65
1, 458027, Note_on_c, 0, 91, 87
1, 458049, Control_c, 0, 64, 0
1, 458049, Control_c, 0, 64, 0
1, 458053, Note_on_c, 0, 93, 0
1, 458053, Note_on_c, 0, 81, 0
1, 458148, Control_c, 0, 64, 127
1, 458148, Control_c, 0, 64, 127
1, 458398, Note_on_c, 0, 38, 52
1, 458398, Note_on_c, 0, 50, 52
1, 458428, Note_on_c, 0, 40, 0
1, 458428, Note_on_c, 0, 52, 0
1, 458773, Note_on_c, 0, 84, 0
1, 458773, Note_on_c, 0, 78, 65
1, 458773, Note_on_c, 0, 84, 65
1, 458776, Note_on_c, 0, 90, 86
1, 458798, Note_on_c, 0, 79, 0
1, 458798, Note_on_c, 0, 91, 0
1, 458803, Control_c, 0, 64, 0
1, 458803, Control_c, 0, 64, 0
1, 458926, Control_c, 0, 64, 127
1, 458926, Control_c, 0, 64, 127
1, 459094, Control_c, 0, 64, 127
1, 459094, Control_c, 0, 64, 127
1, 459094, Control_c, 0, 64, 0
1, 459097, Note_on_c, 0, 36, 52
1, 459097, Note_on_c, 0, 48, 52
1, 459123, Note_on_c, 0, 50, 0
1, 459123, Note_on_c, 0, 38, 0
1, 459468, Note_on_c, 0, 76, 62
1, 459468, Note_on_c, 0, 81, 62
1, 459468, Note_on_c, 0, 88, 82
1, 459471, Control_c, 0, 64, 0
1, 459471, Control_c, 0, 64, 0
1, 459490, Note_on_c, 0, 84, 0
1, 459490, Note_on_c, 0, 90, 0
1, 459490, Note_on_c, 0, 78, 0
1, 459548, Control_c, 0, 64, 127
1, 459548, Control_c, 0, 64, 127
1, 459749, Note_on_c, 0, 66, 40
1, 459749, Note_on_c, 0, 69, 47
1, 460030, Note_on_c, 0, 81, 0
1, 460030, Note_on_c, 0, 74, 61
1, 460030, Note_on_c, 0, 81, 61
1, 460033, Note_on_c, 0, 86, 80
1, 460052, Note_on_c, 0, 76, 0
1, 460052, Note_on_c, 0, 88, 0
1, 460284, Control_c, 0, 64, 0
1, 460284, Control_c, 0, 64, 0
1, 460311, Control_c, 0, 64, 127
1, 460311, Control_c, 0, 64, 127
1, 460311, Control_c, 0, 64, 0
1, 460314, Note_on_c, 0, 35, 57
1, 460314, Note_on_c, 0, 47, 57
1, 460332, Note_on_c, 0, 36, 0
1, 460332, Note_on_c, 0, 48, 0
1, 460591, Note_on_c, 0, 81, 0
1, 460591, Note_on_c, 0, 76, 59
1, 460591, Note_on_c, 0, 81, 59
1, 460594, Note_on_c, 0, 88, 78
1, 460594, Control_c, 0, 64, 0
1, 460594, Control_c, 0, 64, 0
1, 460621, Note_on_c, 0, 86, 0
1, 460621, Note_on_c, 0, 74, 0
1, 460698, Control_c, 0, 64, 127
1, 460698, Control_c, 0, 64, 127
1, 460966, Note_on_c, 0, 69, 0
1, 460966, Note_on_c, 0, 66, 0
1, 460966, Note_on_c, 0, 66, 39
1, 460969, Note_on_c, 0, 69, 46
1, 461340, Note_on_c, 0, 81, 0
1, 461340, Note_on_c, 0, 75, 58
1, 461340, Note_on_c, 0, 81, 58
1, 461343, Note_on_c, 0, 87, 75
1, 461365, Note_on_c, 0, 88, 0
1, 461365, Note_on_c, 0, 76, 0
1, 461631, Control_c, 0, 64, 0
1, 461631, Control_c, 0, 64, 0
1, 461661, Control_c, 0, 64, 0
1, 461661, Note_on_c, 0, 36, 49
1, 461661, Note_on_c, 0, 48, 49
1, 461686, Note_on_c, 0, 47, 0
1, 461686, Note_on_c, 0, 35, 0
1, 461822, Control_c, 0, 64, 127
1, 461822, Control_c, 0, 64, 127
1, 461982, Note_on_c, 0, 81, 0
1, 461982, Note_on_c, 0, 76, 57
1, 461982, Note_on_c, 0, 81, 57
1, 461985, Note_on_c, 0, 88, 73
1, 462007, Note_on_c, 0, 75, 0
1, 462007, Note_on_c, 0, 87, 0
1, 462303, Note_on_c, 0, 69, 0
1, 462303, Note_on_c, 0, 66, 0
1, 462303, Note_on_c, 0, 66, 38
1, 462306, Note_on_c, 0, 69, 45
1, 462624, Note_on_c, 0, 81, 0
1, 462624, Note_on_c, 0, 74, 55
1, 462624, Note_on_c, 0, 81, 55
1, 462627, Note_on_c, 0, 86, 71
1, 462653, Note_on_c, 0, 88, 0
1, 462653, Note_on_c, 0, 76, 0
1, 462909, Control_c, 0, 64, 0
1, 462909, Control_c, 0, 64, 0
1, 462998, Control_c, 0, 64, 127
1, 462998, Control_c, 0, 64, 127
1, 462998, Control_c, 0, 64, 0
1, 463001, Note_on_c, 0, 69, 0
1, 463001, Note_on_c, 0, 66, 0
1, 463001, Note_on_c, 0, 37, 45
1, 463004, Note_on_c, 0, 49, 45
1, 463033, Note_on_c, 0, 48, 0
1, 463033, Note_on_c, 0, 36, 0
1, 463447, Note_on_c, 0, 81, 0
1, 463447, Note_on_c, 0, 73, 54
1, 463447, Note_on_c, 0, 81, 54
1, 463450, Note_on_c, 0, 85, 69
1, 463483, Note_on_c, 0, 86, 0
1, 463483, Note_on_c, 0, 74, 0
1, 463897, Note_on_c, 0, 38, 42
1, 463897, Note_on_c, 0, 50, 42
1, 463932, Note_on_c, 0, 37, 0
1, 463932, Note_on_c, 0, 49, 0
1, 463946, Control_c, 0, 64, 0
1, 463946, Control_c, 0, 64, 0
1, 464346, Note_on_c, 0, 72, 52
1, 464346, Note_on_c, 0, 78, 52
1, 464346, Note_on_c, 0, 84, 67
1, 464390, Note_on_c, 0, 81, 0
1, 464390, Note_on_c, 0, 73, 0
1, 464390, Note_on_c, 0, 85, 0
1, 464454, Control_c, 0, 64, 127
1, 464454, Control_c, 0, 64, 127
1, 464826, Control_c, 0, 64, 0
1, 464826, Control_c, 0, 64, 0
1, 464908, Control_c, 0, 64, 0
1, 464908, Note_on_c, 0, 37, 38
1, 464908, Note_on_c, 0, 49, 38
1, 464952, Note_on_c, 0, 50, 0
1, 464952, Note_on_c, 0, 38, 0
1, 466031, Note_on_c, 0, 61, 37
1, 466031, Note_on_c, 0, 68, 37
1, 466031, Note_on_c, 0, 73, 38
1, 466034, Note_on_c, 0, 77, 38
1, 466034, Note_on_c, 0, 85, 54
1, 466075, Note_on_c, 0, 84, 0
1, 466075, Note_on_c, 0, 72, 0
1, 466075, Note_on_c, 0, 78, 0
1, 467154, Note_on_c, 0, 37, 0
1, 467154, Note_on_c, 0, 68, 0
1, 467154, Note_on_c, 0, 61, 0
1, 467157, Note_on_c, 0, 49, 0
1, 467198, Note_on_c, 0, 73, 0
1, 467198, Note_on_c, 0, 77, 0
1, 467198, Note_on_c, 0, 85, 0
1, 468839, Note_on_c, 0, 61, 49
1, 468839, Note_on_c, 0, 49, 49
1, 468895, Note_on_c, 0, 49, 0
1, 468906, Note_on_c, 0, 61, 0
1, 468979, Note_on_c, 0, 73, 69
1, 468979, Note_on_c, 0, 42, 60
1, 469035, Note_on_c, 0, 42, 0
1, 469035, Note_on_c, 0, 73, 0
1, 469120, Note_on_c, 0, 61, 44
1, 469120, Note_on_c, 0, 66, 53
1, 469120, Note_on_c, 0, 54, 42
1, 469123, Note_on_c, 0, 57, 51
1, 469176, Note_on_c, 0, 54, 0
1, 469176, Note_on_c, 0, 61, 0
1, 469176, Note_on_c, 0, 66, 0
1, 469179, Note_on_c, 0, 57, 0
1, 469433, Note_on_c, 0, 61, 51
1, 469433, Note_on_c, 0, 65, 60
1, 469433, Note_on_c, 0, 56, 42
1, 469436, Note_on_c, 0, 59, 51
1, 469489, Note_on_c, 0, 56, 0
1, 469489, Note_on_c, 0, 61, 0
1, 469489, Note_on_c, 0, 65, 0
1, 469492, Note_on_c, 0, 59, 0
1, 469573, Note_on_c, 0, 73, 69
1, 469573, Note_on_c, 0, 38, 60
1, 469629, Note_on_c, 0, 38, 0
1, 469629, Note_on_c, 0, 73, 0
1, 469714, Note_on_c, 0, 62, 44
1, 469714, Note_on_c, 0, 66, 53
1, 469714, Note_on_c, 0, 54, 42
1, 469717, Note_on_c, 0, 59, 51
1, 469770, Note_on_c, 0, 54, 0
1, 469770, Note_on_c, 0, 62, 0
1, 469770, Note_on_c, 0, 66, 0
1, 469773, Note_on_c, 0, 59, 0
1, 470027, Note_on_c, 0, 71, 60
1, 470027, Note_on_c, 0, 35, 51
1, 470083, Note_on_c, 0, 35, 0
1, 470083, Note_on_c, 0, 71, 0
1, 470167, Note_on_c, 0, 69, 69
1, 470167, Note_on_c, 0, 36, 60
1, 470223, Note_on_c, 0, 36, 0
1, 470223, Note_on_c, 0, 69, 0
1, 470308, Note_on_c, 0, 57, 44
1, 470308, Note_on_c, 0, 63, 53
1, 470308, Note_on_c, 0, 54, 51
1, 470364, Note_on_c, 0, 54, 0
1, 470364, Note_on_c, 0, 63, 0
1, 470364, Note_on_c, 0, 57, 0
1, 470621, Note_on_c, 0, 66, 60
1, 470621, Note_on_c, 0, 39, 51
1, 470677, Note_on_c, 0, 39, 0
1, 470677, Note_on_c, 0, 66, 0
1, 470761, Note_on_c, 0, 68, 69
1, 470761, Note_on_c, 0, 37, 60
1, 470817, Note_on_c, 0, 37, 0
1, 470817, Note_on_c, 0, 68, 0
1, 470902, Note_on_c, 0, 56, 44
1, 470902, Note_on_c, 0, 61, 53
1, 470902, Note_on_c, 0, 49, 42
1, 470905, Note_on_c, 0, 53, 51
1, 470958, Note_on_c, 0, 49, 0
1, 470958, Note_on_c, 0, 56, 0
1, 470958, Note_on_c, 0, 61, 0
1, 470961, Note_on_c, 0, 53, 0
1, 471215, Note_on_c, 0, 61, 60
1, 471215, Note_on_c, 0, 49, 51
1, 471271, Note_on_c, 0, 49, 0
1, 471271, Note_on_c, 0, 61, 0
1, 471355, Note_on_c, 0, 73, 70
1, 471355, Note_on_c, 0, 42, 62
1, 471424, Note_on_c, 0, 42, 0
1, 471424, Note_on_c, 0, 73, 0
1, 471528, Note_on_c, 0, 61, 52
1, 471528, Note_on_c, 0, 66, 61
1, 471528, Note_on_c, 0, 54, 51
1, 471531, Note_on_c, 0, 57, 59
1, 471584, Note_on_c, 0, 54, 0
1, 471584, Note_on_c, 0, 61, 0
1, 471584, Note_on_c, 0, 66, 0
1, 471587, Note_on_c, 0, 57, 0
1, 471841, Note_on_c, 0, 62, 60
1, 471841, Note_on_c, 0, 65, 68
1, 471841, Note_on_c, 0, 44, 51
1, 471844, Note_on_c, 0, 59, 60
1, 471905, Note_on_c, 0, 44, 0
1, 471905, Note_on_c, 0, 62, 0
1, 471905, Note_on_c, 0, 65, 0
1, 471908, Note_on_c, 0, 59, 0
1, 472002, Note_on_c, 0, 76, 69
1, 472002, Note_on_c, 0, 45, 69
1, 472058, Note_on_c, 0, 45, 0
1, 472058, Note_on_c, 0, 76, 0
1, 472142, Note_on_c, 0, 64, 54
1, 472142, Note_on_c, 0, 69, 63
1, 472142, Note_on_c, 0, 57, 52
1, 472145, Note_on_c, 0, 61, 61
1, 472195, Note_on_c, 0, 57, 0
1, 472195, Note_on_c, 0, 64, 0
1, 472195, Note_on_c, 0, 69, 0
1, 472198, Note_on_c, 0, 61, 0
1, 472447, Note_on_c, 0, 65, 62
1, 472447, Note_on_c, 0, 68, 71
1, 472447, Note_on_c, 0, 47, 53
1, 472450, Note_on_c, 0, 62, 62
1, 472511, Note_on_c, 0, 47, 0
1, 472511, Note_on_c, 0, 65, 0
1, 472511, Note_on_c, 0, 68, 0
1, 472514, Note_on_c, 0, 62, 0
1, 472607, Note_on_c, 0, 76, 75
1, 472607, Note_on_c, 0, 49, 66
1, 472676, Note_on_c, 0, 49, 0
1, 472676, Note_on_c, 0, 76, 0
1, 472780, Note_on_c, 0, 64, 50
1, 472780, Note_on_c, 0, 69, 59
1, 472780, Note_on_c, 0, 61, 57
1, 472836, Note_on_c, 0, 61, 0
1, 472836, Note_on_c, 0, 69, 0
1, 472836, Note_on_c, 0, 64, 0
1, 472921, Note_on_c, 0, 74, 77
1, 472921, Note_on_c, 0, 50, 67
1, 472973, Note_on_c, 0, 50, 0
1, 472973, Note_on_c, 0, 74, 0
1, 473053, Note_on_c, 0, 62, 51
1, 473053, Note_on_c, 0, 66, 60
1, 473053, Note_on_c, 0, 59, 58
1, 473105, Note_on_c, 0, 59, 0
1, 473105, Note_on_c, 0, 66, 0
1, 473105, Note_on_c, 0, 62, 0
1, 473185, Note_on_c, 0, 71, 78
1, 473185, Note_on_c, 0, 40, 68
1, 473238, Note_on_c, 0, 40, 0
1, 473238, Note_on_c, 0, 71, 0
1, 473317, Note_on_c, 0, 59, 52
1, 473317, Note_on_c, 0, 64, 61
1, 473317, Note_on_c, 0, 56, 59
1, 473370, Note_on_c, 0, 56, 0
1, 473370, Note_on_c, 0, 64, 0
1, 473370, Note_on_c, 0, 59, 0
1, 473622, Note_on_c, 0, 64, 70
1, 473622, Note_on_c, 0, 52, 60
1, 473686, Note_on_c, 0, 52, 0
1, 473686, Note_on_c, 0, 64, 0
1, 473783, Note_on_c, 0, 76, 75
1, 473783, Note_on_c, 0, 45, 66
1, 473838, Note_on_c, 0, 45, 0
1, 473838, Note_on_c, 0, 76, 0
1, 473923, Note_on_c, 0, 64, 50
1, 473923, Note_on_c, 0, 69, 59
1, 473923, Note_on_c, 0, 57, 48
1, 473926, Note_on_c, 0, 61, 57
1, 473979, Note_on_c, 0, 57, 0
1, 473979, Note_on_c, 0, 64, 0
1, 473979, Note_on_c, 0, 69, 0
1, 473982, Note_on_c, 0, 61, 0
1, 474236, Note_on_c, 0, 65, 58
1, 474236, Note_on_c, 0, 68, 67
1, 474236, Note_on_c, 0, 59, 49
1, 474239, Note_on_c, 0, 62, 58
1, 474292, Note_on_c, 0, 59, 0
1, 474292, Note_on_c, 0, 65, 0
1, 474292, Note_on_c, 0, 68, 0
1, 474295, Note_on_c, 0, 62, 0
1, 474377, Note_on_c, 0, 76, 77
1, 474377, Note_on_c, 0, 45, 68
1, 474440, Note_on_c, 0, 45, 0
1, 474440, Note_on_c, 0, 76, 0
1, 474537, Note_on_c, 0, 65, 51
1, 474537, Note_on_c, 0, 68, 61
1, 474537, Note_on_c, 0, 59, 49
1, 474540, Note_on_c, 0, 62, 59
1, 474590, Note_on_c, 0, 59, 0
1, 474590, Note_on_c, 0, 65, 0
1, 474590, Note_on_c, 0, 68, 0
1, 474593, Note_on_c, 0, 62, 0
1, 474842, Note_on_c, 0, 64, 59
1, 474842, Note_on_c, 0, 67, 69
1, 474842, Note_on_c, 0, 61, 50
1, 474845, Note_on_c, 0, 64, 59
1, 474898, Note_on_c, 0, 61, 0
1, 474898, Note_on_c, 0, 64, 0
1, 474898, Note_on_c, 0, 67, 0
1, 474901, Note_on_c, 0, 64, 0
1, 474982, Note_on_c, 0, 76, 79
1, 474982, Note_on_c, 0, 45, 70
1, 475046, Note_on_c, 0, 45, 0
1, 475046, Note_on_c, 0, 76, 0
1, 475068, Control_c, 0, 64, 127
1, 475068, Control_c, 0, 64, 127
1, 475143, Note_on_c, 0, 64, 60
1, 475143, Note_on_c, 0, 67, 74
1, 475143, Note_on_c, 0, 61, 62
1, 475488, Note_on_c, 0, 61, 0
1, 475488, Note_on_c, 0, 67, 0
1, 475488, Note_on_c, 0, 69, 81
1, 475491, Note_on_c, 0, 58, 70
1, 475938, Note_on_c, 0, 58, 0
1, 475938, Note_on_c, 0, 69, 0
1, 475938, Note_on_c, 0, 67, 67
1, 475941, Note_on_c, 0, 61, 61
1, 476187, Control_c, 0, 64, 0
1, 476187, Control_c, 0, 64, 0
1, 476312, Note_on_c, 0, 67, 0
1, 476312, Note_on_c, 0, 64, 0
1, 476312, Note_on_c, 0, 66, 72
1, 476315, Note_on_c, 0, 61, 0
1, 476315, Note_on_c, 0, 46, 72
1, 476368, Note_on_c, 0, 46, 0
1, 476368, Note_on_c, 0, 66, 0
1, 476452, Note_on_c, 0, 78, 82
1, 476452, Note_on_c, 0, 47, 73
1, 476508, Note_on_c, 0, 47, 0
1, 476508, Note_on_c, 0, 78, 0
1, 476593, Note_on_c, 0, 66, 57
1, 476593, Note_on_c, 0, 71, 66
1, 476593, Note_on_c, 0, 59, 55
1, 476596, Note_on_c, 0, 63, 64
1, 476649, Note_on_c, 0, 59, 0
1, 476649, Note_on_c, 0, 66, 0
1, 476649, Note_on_c, 0, 71, 0
1, 476652, Note_on_c, 0, 63, 0
1, 476906, Note_on_c, 0, 67, 64
1, 476906, Note_on_c, 0, 70, 73
1, 476906, Note_on_c, 0, 61, 55
1, 476909, Note_on_c, 0, 64, 64
1, 476962, Note_on_c, 0, 61, 0
1, 476962, Note_on_c, 0, 67, 0
1, 476962, Note_on_c, 0, 70, 0
1, 476965, Note_on_c, 0, 64, 0
1, 477046, Note_on_c, 0, 78, 82
1, 477046, Note_on_c, 0, 47, 73
1, 477110, Note_on_c, 0, 47, 0
1, 477110, Note_on_c, 0, 78, 0
1, 477207, Note_on_c, 0, 67, 57
1, 477207, Note_on_c, 0, 70, 66
1, 477207, Note_on_c, 0, 61, 55
1, 477210, Note_on_c, 0, 64, 64
1, 477260, Note_on_c, 0, 61, 0
1, 477260, Note_on_c, 0, 67, 0
1, 477260, Note_on_c, 0, 70, 0
1, 477263, Note_on_c, 0, 64, 0
1, 477512, Note_on_c, 0, 66, 64
1, 477512, Note_on_c, 0, 69, 73
1, 477512, Note_on_c, 0, 63, 55
1, 477568, Note_on_c, 0, 63, 0
1, 477568, Note_on_c, 0, 69, 0
1, 477568, Note_on_c, 0, 66, 0
1, 477652, Note_on_c, 0, 78, 82
1, 477652, Note_on_c, 0, 47, 73
1, 477716, Note_on_c, 0, 47, 0
1, 477716, Note_on_c, 0, 78, 0
1, 477737, Control_c, 0, 64, 127
1, 477737, Control_c, 0, 64, 127
1, 477813, Note_on_c, 0, 66, 64
1, 477813, Note_on_c, 0, 69, 77
1, 477813, Note_on_c, 0, 63, 66
1, 478158, Note_on_c, 0, 63, 0
1, 478158, Note_on_c, 0, 69, 0
1, 478158, Note_on_c, 0, 71, 83
1, 478161, Note_on_c, 0, 60, 73
1, 478608, Note_on_c, 0, 60, 0
1, 478608, Note_on_c, 0, 71, 0
1, 478608, Note_on_c, 0, 69, 70
1, 478611, Note_on_c, 0, 63, 64
1, 478857, Control_c, 0, 64, 0
1, 478857, Control_c, 0, 64, 0
1, 478982, Note_on_c, 0, 69, 0
1, 478982, Note_on_c, 0, 66, 0
1, 478982, Note_on_c, 0, 68, 73
1, 478985, Note_on_c, 0, 63, 0
1, 478985, Note_on_c, 0, 48, 73
1, 479038, Note_on_c, 0, 48, 0
1, 479038, Note_on_c, 0, 68, 0
1, 479122, Note_on_c, 0, 80, 75
1, 479122, Note_on_c, 0, 53, 54
1, 479178, Note_on_c, 0, 53, 0
1, 479178, Note_on_c, 0, 80, 0
1, 479263, Note_on_c, 0, 68, 54
1, 479263, Note_on_c, 0, 73, 66
1, 479263, Note_on_c, 0, 61, 54
1, 479266, Note_on_c, 0, 65, 42
1, 479319, Note_on_c, 0, 61, 0
1, 479319, Note_on_c, 0, 68, 0
1, 479319, Note_on_c, 0, 73, 0
1, 479322, Note_on_c, 0, 65, 0
1, 479571, Control_c, 0, 64, 0
1, 479571, Control_c, 0, 64, 0
1, 479576, Note_on_c, 0, 69, 57
1, 479576, Note_on_c, 0, 72, 66
1, 479576, Note_on_c, 0, 63, 45
1, 479579, Note_on_c, 0, 66, 54
1, 479632, Note_on_c, 0, 63, 0
1, 479632, Note_on_c, 0, 69, 0
1, 479632, Note_on_c, 0, 72, 0
1, 479635, Note_on_c, 0, 66, 0
1, 479716, Note_on_c, 0, 68, 62
1, 479716, Note_on_c, 0, 73, 62
1, 479716, Note_on_c, 0, 80, 74
1, 479719, Note_on_c, 0, 53, 47
1, 479719, Note_on_c, 0, 61, 47
1, 479719, Note_on_c, 0, 65, 59
1, 479731, Control_c, 0, 64, 0
1, 479731, Control_c, 0, 64, 0
1, 479760, Control_c, 0, 64, 127
1, 479760, Control_c, 0, 64, 127
1, 479833, Control_c, 0, 64, 0
1, 479833, Control_c, 0, 64, 0
1, 479877, Note_on_c, 0, 69, 72
1, 479877, Note_on_c, 0, 75, 72
1, 479877, Note_on_c, 0, 81, 84
1, 479880, Note_on_c, 0, 60, 63
1, 479880, Note_on_c, 0, 63, 54
1, 479890, Note_on_c, 0, 80, 0
1, 479890, Note_on_c, 0, 68, 0
1, 479890, Note_on_c, 0, 73, 0
1, 479893, Note_on_c, 0, 61, 0
1, 479969, Control_c, 0, 64, 127
1, 479969, Control_c, 0, 64, 127
1, 480199, Control_c, 0, 64, 0
1, 480199, Control_c, 0, 64, 0
1, 480222, Note_on_c, 0, 53, 0
1, 480222, Note_on_c, 0, 63, 0
1, 480222, Note_on_c, 0, 60, 0
1, 480225, Note_on_c, 0, 65, 0
1, 480395, Note_on_c, 0, 81, 0
1, 480395, Note_on_c, 0, 75, 0
1, 480395, Note_on_c, 0, 69, 0
1, 480398, Note_on_c, 0, 80, 77
1, 480398, Note_on_c, 0, 53, 54
1, 480451, Note_on_c, 0, 53, 0
1, 480451, Note_on_c, 0, 80, 0
1, 480536, Note_on_c, 0, 68, 54
1, 480536, Note_on_c, 0, 73, 66
1, 480536, Note_on_c, 0, 61, 42
1, 480539, Note_on_c, 0, 65, 54
1, 480592, Note_on_c, 0, 61, 0
1, 480592, Note_on_c, 0, 68, 0
1, 480592, Note_on_c, 0, 73, 0
1, 480595, Note_on_c, 0, 65, 0
1, 480843, Control_c, 0, 64, 0
1, 480843, Control_c, 0, 64, 0
1, 480849, Note_on_c, 0, 69, 55
1, 480849, Note_on_c, 0, 72, 67
1, 480849, Note_on_c, 0, 63, 43
1, 480852, Note_on_c, 0, 66, 55
1, 480905, Note_on_c, 0, 63, 0
1, 480905, Note_on_c, 0, 69, 0
1, 480905, Note_on_c, 0, 72, 0
1, 480908, Note_on_c, 0, 66, 0
1, 480989, Note_on_c, 0, 68, 61
1, 480989, Note_on_c, 0, 73, 61
1, 480989, Note_on_c, 0, 80, 74
1, 480992, Note_on_c, 0, 53, 48
1, 480992, Note_on_c, 0, 61, 48
1, 480992, Note_on_c, 0, 65, 60
1, 481004, Control_c, 0, 64, 0
1, 481004, Control_c, 0, 64, 0
1, 481030, Control_c, 0, 64, 127
1, 481030, Control_c, 0, 64, 127
1, 481033, Control_c, 0, 64, 127
1, 481033, Control_c, 0, 64, 127
1, 481081, Control_c, 0, 64, 0
1, 481081, Control_c, 0, 64, 0
1, 481106, Control_c, 0, 64, 0
1, 481106, Control_c, 0, 64, 0
1, 481135, Control_c, 0, 64, 0
1, 481135, Control_c, 0, 64, 0
1, 481150, Note_on_c, 0, 69, 75
1, 481150, Note_on_c, 0, 75, 75
1, 481150, Note_on_c, 0, 81, 90
1, 481153, Note_on_c, 0, 60, 58
1, 481153, Note_on_c, 0, 63, 58
1, 481161, Note_on_c, 0, 80, 0
1, 481161, Note_on_c, 0, 68, 0
1, 481161, Note_on_c, 0, 73, 0
1, 481164, Note_on_c, 0, 61, 0
1, 481349, Control_c, 0, 64, 127
1, 481349, Control_c, 0, 64, 127
1, 481594, Control_c, 0, 64, 127
1, 481736, Control_c, 0, 64, 0
1, 481736, Control_c, 0, 64, 0
1, 481749, Note_on_c, 0, 70, 73
1, 481749, Note_on_c, 0, 73, 73
1, 481749, Note_on_c, 0, 77, 73
1, 481752, Note_on_c, 0, 53, 0
1, 481752, Note_on_c, 0, 63, 0
1, 481752, Note_on_c, 0, 82, 90
1, 481755, Note_on_c, 0, 65, 0
1, 481755, Note_on_c, 0, 53, 55
1, 481755, Note_on_c, 0, 58, 55
1, 481758, Note_on_c, 0, 81, 0
1, 481758, Note_on_c, 0, 75, 0
1, 481758, Note_on_c, 0, 60, 0
1, 481758, Note_on_c, 0, 69, 0
1, 481758, Note_on_c, 0, 61, 55
1, 481758, Note_on_c, 0, 65, 71
1, 481877, Control_c, 0, 64, 127
1, 481877, Control_c, 0, 64, 127
1, 482340, Control_c, 0, 64, 0
1, 482340, Control_c, 0, 64, 0
1, 482348, Note_on_c, 0, 73, 0
1, 482348, Note_on_c, 0, 71, 79
1, 482348, Note_on_c, 0, 73, 79
1, 482351, Note_on_c, 0, 53, 0
1, 482351, Note_on_c, 0, 80, 79
1, 482351, Note_on_c, 0, 83, 98
1, 482354, Note_on_c, 0, 65, 0
1, 482354, Note_on_c, 0, 61, 0
1, 482354, Note_on_c, 0, 53, 60
1, 482357, Note_on_c, 0, 56, 60
1, 482357, Note_on_c, 0, 61, 60
1, 482357, Note_on_c, 0, 65, 79
1, 482377, Note_on_c, 0, 82, 0
1, 482377, Note_on_c, 0, 77, 0
1, 482377, Note_on_c, 0, 70, 0
1, 482380, Note_on_c, 0, 58, 0
1, 482747, Control_c, 0, 64, 127
1, 482747, Control_c, 0, 64, 127
1, 483097, Note_on_c, 0, 71, 0
1, 483097, Note_on_c, 0, 73, 0
1, 483097, Control_c, 0, 64, 0
1, 483100, Note_on_c, 0, 80, 0
1, 483100, Note_on_c, 0, 83, 0
1, 483100, Note_on_c, 0, 61, 72
1, 483103, Note_on_c, 0, 53, 0
1, 483103, Note_on_c, 0, 56, 0
1, 483103, Control_c, 0, 64, 0
1, 483106, Note_on_c, 0, 65, 0
1, 483106, Note_on_c, 0, 61, 0
1, 483106, Note_on_c, 0, 49, 58
1, 483171, Note_on_c, 0, 49, 0
1, 483171, Note_on_c, 0, 61, 0
1, 483284, Note_on_c, 0, 73, 75
1, 483284, Note_on_c, 0, 46, 58
1, 483340, Note_on_c, 0, 46, 0
1, 483340, Note_on_c, 0, 73, 0
1, 483424, Note_on_c, 0, 61, 54
1, 483424, Note_on_c, 0, 67, 66
1, 483424, Note_on_c, 0, 58, 41
1, 483427, Note_on_c, 0, 64, 50
1, 483480, Note_on_c, 0, 58, 0
1, 483480, Note_on_c, 0, 61, 0
1, 483480, Note_on_c, 0, 67, 0
1, 483483, Note_on_c, 0, 64, 0
1, 483737, Note_on_c, 0, 61, 58
1, 483737, Note_on_c, 0, 66, 70
1, 483737, Note_on_c, 0, 58, 41
1, 483740, Note_on_c, 0, 64, 50
1, 483793, Note_on_c, 0, 58, 0
1, 483793, Note_on_c, 0, 61, 0
1, 483793, Note_on_c, 0, 66, 0
1, 483796, Note_on_c, 0, 64, 0
1, 483878, Note_on_c, 0, 73, 77
1, 483878, Note_on_c, 0, 47, 58
1, 483942, Note_on_c, 0, 47, 0
1, 483942, Note_on_c, 0, 73, 0
1, 484038, Note_on_c, 0, 61, 49
1, 484038, Note_on_c, 0, 66, 61
1, 484038, Note_on_c, 0, 62, 50
1, 484094, Note_on_c, 0, 62, 0
1, 484094, Note_on_c, 0, 66, 0
1, 484094, Note_on_c, 0, 61, 0
1, 484179, Note_on_c, 0, 71, 70
1, 484179, Note_on_c, 0, 50, 58
1, 484235, Note_on_c, 0, 50, 0
1, 484235, Note_on_c, 0, 71, 0
1, 484319, Note_on_c, 0, 59, 49
1, 484319, Note_on_c, 0, 66, 61
1, 484319, Note_on_c, 0, 62, 50
1, 484375, Note_on_c, 0, 62, 0
1, 484375, Note_on_c, 0, 66, 0
1, 484375, Note_on_c, 0, 59, 0
1, 484459, Note_on_c, 0, 69, 70
1, 484459, Note_on_c, 0, 42, 58
1, 484515, Note_on_c, 0, 42, 0
1, 484515, Note_on_c, 0, 69, 0
1, 484600, Note_on_c, 0, 60, 49
1, 484600, Note_on_c, 0, 63, 61
1, 484600, Note_on_c, 0, 57, 50
1, 484664, Note_on_c, 0, 57, 0
1, 484664, Note_on_c, 0, 63, 0
1, 484664, Note_on_c, 0, 60, 0
1, 484933, Note_on_c, 0, 62, 58
1, 484933, Note_on_c, 0, 68, 70
1, 484933, Note_on_c, 0, 40, 50
1, 484989, Note_on_c, 0, 40, 0
1, 484989, Note_on_c, 0, 68, 0
1, 484989, Note_on_c, 0, 62, 0
1, 485073, Note_on_c, 0, 71, 76
1, 485073, Note_on_c, 0, 33, 58
1, 485129, Note_on_c, 0, 33, 0
1, 485129, Note_on_c, 0, 71, 0
1, 485214, Note_on_c, 0, 57, 49
1, 485214, Note_on_c, 0, 61, 61
1, 485214, Note_on_c, 0, 52, 50
1, 485270, Note_on_c, 0, 52, 0
1, 485270, Note_on_c, 0, 61, 0
1, 485270, Note_on_c, 0, 57, 0
1, 485354, Note_on_c, 0, 69, 70
1, 485354, Note_on_c, 0, 37, 58
1, 485410, Note_on_c, 0, 37, 0
1, 485410, Note_on_c, 0, 69, 0
1, 485495, Note_on_c, 0, 57, 49
1, 485495, Note_on_c, 0, 61, 61
1, 485495, Note_on_c, 0, 52, 50
1, 485607, Note_on_c, 0, 52, 0
1, 485607, Note_on_c, 0, 61, 0
1, 485607, Note_on_c, 0, 57, 0
1, 485775, Note_on_c, 0, 73, 73
1, 485775, Note_on_c, 0, 42, 55
1, 485944, Control_c, 0, 64, 127
1, 485944, Control_c, 0, 64, 127
1, 485944, Control_c, 0, 64, 127
1, 486000, Note_on_c, 0, 73, 0
1, 486000, Note_on_c, 0, 61, 52
1, 486000, Note_on_c, 0, 66, 72
1, 486003, Note_on_c, 0, 54, 43
1, 486003, Note_on_c, 0, 57, 51
1, 486173, Note_on_c, 0, 54, 0
1, 486173, Note_on_c, 0, 61, 0
1, 486173, Note_on_c, 0, 62, 65
1, 486176, Note_on_c, 0, 57, 0
1, 486176, Note_on_c, 0, 56, 51
1, 486176, Note_on_c, 0, 59, 59
1, 486320, Control_c, 0, 64, 0
1, 486320, Control_c, 0, 64, 0
1, 486320, Control_c, 0, 64, 0
1, 486346, Note_on_c, 0, 66, 0
1, 486346, Note_on_c, 0, 65, 57
1, 486472, Note_on_c, 0, 65, 0
1, 486472, Note_on_c, 0, 62, 0
1, 486511, Note_on_c, 0, 42, 0
1, 486511, Note_on_c, 0, 73, 77
1, 486511, Note_on_c, 0, 42, 63
1, 486514, Note_on_c, 0, 56, 0
1, 486514, Note_on_c, 0, 59, 0
1, 486676, Note_on_c, 0, 73, 0
1, 486676, Control_c, 0, 64, 127
1, 486676, Note_on_c, 0, 61, 55
1, 486679, Note_on_c, 0, 66, 76
1, 486679, Control_c, 0, 64, 127
1, 486679, Control_c, 0, 64, 127
1, 486682, Note_on_c, 0, 54, 47
1, 486682, Note_on_c, 0, 57, 57
1, 486834, Note_on_c, 0, 54, 0
1, 486834, Note_on_c, 0, 61, 0
1, 486834, Note_on_c, 0, 62, 68
1, 486837, Note_on_c, 0, 57, 0
1, 486837, Note_on_c, 0, 56, 56
1, 486837, Note_on_c, 0, 59, 67
1, 486992, Note_on_c, 0, 66, 0
1, 486992, Note_on_c, 0, 65, 62
1, 487037, Control_c, 0, 64, 0
1, 487037, Control_c, 0, 64, 0
1, 487037, Control_c, 0, 64, 0
1, 487109, Note_on_c, 0, 65, 0
1, 487109, Note_on_c, 0, 62, 0
1, 487144, Note_on_c, 0, 56, 0
1, 487144, Note_on_c, 0, 42, 0
1, 487144, Note_on_c, 0, 78, 83
1, 487147, Note_on_c, 0, 59, 0
1, 487147, Note_on_c, 0, 42, 72
1, 487258, Control_c, 0, 64, 127
1, 487258, Control_c, 0, 64, 127
1, 487258, Control_c, 0, 64, 127
1, 487296, Note_on_c, 0, 78, 0
1, 487296, Note_on_c, 0, 66, 58
1, 487296, Note_on_c, 0, 71, 81
1, 487299, Note_on_c, 0, 59, 52
1, 487299, Note_on_c, 0, 62, 64
1, 487440, Note_on_c, 0, 59, 0
1, 487440, Note_on_c, 0, 66, 0
1, 487440, Note_on_c, 0, 67, 71
1, 487443, Note_on_c, 0, 62, 0
1, 487443, Note_on_c, 0, 61, 63
1, 487443, Note_on_c, 0, 64, 75
1, 487563, Control_c, 0, 64, 0
1, 487563, Control_c, 0, 64, 0
1, 487563, Control_c, 0, 64, 0
1, 487584, Note_on_c, 0, 71, 0
1, 487584, Note_on_c, 0, 70, 66
1, 487690, Note_on_c, 0, 70, 0
1, 487690, Note_on_c, 0, 67, 0
1, 487723, Note_on_c, 0, 42, 0
1, 487723, Note_on_c, 0, 83, 87
1, 487723, Note_on_c, 0, 42, 80
1, 487726, Note_on_c, 0, 61, 0
1, 487726, Note_on_c, 0, 64, 0
1, 487861, Note_on_c, 0, 83, 0
1, 487861, Control_c, 0, 64, 127
1, 487861, Note_on_c, 0, 71, 61
1, 487864, Note_on_c, 0, 76, 85
1, 487864, Control_c, 0, 64, 127
1, 487864, Control_c, 0, 64, 127
1, 487867, Note_on_c, 0, 64, 58
1, 487867, Note_on_c, 0, 67, 71
1, 487995, Note_on_c, 0, 64, 0
1, 487995, Note_on_c, 0, 71, 0
1, 487995, Note_on_c, 0, 72, 74
1, 487998, Note_on_c, 0, 67, 0
1, 487998, Note_on_c, 0, 66, 69
1, 487998, Note_on_c, 0, 69, 83
1, 488129, Note_on_c, 0, 76, 0
1, 488129, Note_on_c, 0, 75, 70
1, 488167, Control_c, 0, 64, 0
1, 488167, Control_c, 0, 64, 0
1, 488167, Control_c, 0, 64, 0
1, 488228, Note_on_c, 0, 75, 0
1, 488228, Note_on_c, 0, 72, 0
1, 488258, Note_on_c, 0, 66, 0
1, 488258, Note_on_c, 0, 42, 0
1, 488258, Note_on_c, 0, 83, 87
1, 488261, Note_on_c, 0, 69, 0
1, 488261, Note_on_c, 0, 42, 88
1, 488307, Note_on_c, 0, 83, 0
1, 488307, Control_c, 0, 64, 127
1, 488307, Control_c, 0, 64, 127
1, 488307, Control_c, 0, 64, 127
1, 488387, Note_on_c, 0, 71, 73
1, 488387, Note_on_c, 0, 76, 88
1, 488387, Note_on_c, 0, 64, 60
1, 488390, Note_on_c, 0, 67, 75
1, 488654, Note_on_c, 0, 76, 0
1, 488654, Note_on_c, 0, 71, 0
1, 488654, Note_on_c, 0, 72, 75
1, 488657, Note_on_c, 0, 67, 0
1, 488657, Note_on_c, 0, 64, 0
1, 488657, Note_on_c, 0, 75, 90
1, 488660, Note_on_c, 0, 66, 62
1, 488660, Note_on_c, 0, 69, 77
1, 488975, Note_on_c, 0, 75, 0
1, 488975, Note_on_c, 0, 72, 0
1, 488975, Note_on_c, 0, 72, 77
1, 488978, Note_on_c, 0, 69, 0
1, 488978, Note_on_c, 0, 66, 0
1, 488978, Note_on_c, 0, 76, 93
1, 488981, Note_on_c, 0, 64, 64
1, 488981, Note_on_c, 0, 67, 80
1, 489350, Note_on_c, 0, 76, 0
1, 489350, Note_on_c, 0, 72, 0
1, 489350, Note_on_c, 0, 72, 78
1, 489353, Note_on_c, 0, 67, 0
1, 489353, Note_on_c, 0, 64, 0
1, 489353, Note_on_c, 0, 81, 95
1, 489356, Note_on_c, 0, 62, 66
1, 489356, Note_on_c, 0, 69, 82
1, 489424, Control_c, 0, 64, 0
1, 489424, Control_c, 0, 64, 0
1, 489424, Control_c, 0, 64, 0
1, 489574, Note_on_c, 0, 81, 0
1, 489574, Note_on_c, 0, 72, 0
1, 489574, Note_on_c, 0, 72, 81
1, 489577, Note_on_c, 0, 42, 0
1, 489577, Note_on_c, 0, 62, 0
1, 489577, Note_on_c, 0, 81, 100
1, 489580, Note_on_c, 0, 69, 0
1, 489580, Note_on_c, 0, 54, 67
1, 489580, Note_on_c, 0, 62, 67
1, 489583, Note_on_c, 0, 69, 84
1, 491147, Note_on_c, 0, 81, 0
1, 491147, Note_on_c, 0, 72, 0
1, 491147, Note_on_c, 0, 73, 66
1, 491150, Note_on_c, 0, 62, 0
1, 491150, Note_on_c, 0, 69, 0
1, 491150, Note_on_c, 0, 54, 0
1, 491153, Note_on_c, 0, 49, 66
1, 491175, Control_c, 0, 64, 0
1, 491221, Note_on_c, 0, 49, 0
1, 491221, Note_on_c, 0, 73, 0
1, 491334, Note_on_c, 0, 85, 78
1, 491334, Note_on_c, 0, 37, 60
1, 491415, Note_on_c, 0, 85, 0
1, 491419, Note_on_c, 0, 37, 0
1, 491538, Note_on_c, 0, 73, 57
1, 491538, Note_on_c, 0, 78, 66
1, 491538, Note_on_c, 0, 66, 45
1, 491541, Note_on_c, 0, 69, 57
1, 491602, Note_on_c, 0, 66, 0
1, 491602, Note_on_c, 0, 73, 0
1, 491602, Note_on_c, 0, 78, 0
1, 491605, Note_on_c, 0, 69, 0
1, 491699, Note_on_c, 0, 73, 57
1, 491699, Note_on_c, 0, 76, 66
1, 491699, Note_on_c, 0, 66, 45
1, 491702, Note_on_c, 0, 69, 57
1, 491755, Note_on_c, 0, 66, 0
1, 491755, Note_on_c, 0, 73, 0
1, 491755, Note_on_c, 0, 76, 0
1, 491758, Note_on_c, 0, 69, 0
1, 491839, Note_on_c, 0, 85, 79
1, 491839, Note_on_c, 0, 37, 61
1, 491908, Note_on_c, 0, 85, 0
1, 491911, Note_on_c, 0, 37, 0
1, 492012, Note_on_c, 0, 73, 58
1, 492012, Note_on_c, 0, 76, 67
1, 492012, Note_on_c, 0, 66, 46
1, 492015, Note_on_c, 0, 69, 58
1, 492068, Note_on_c, 0, 66, 0
1, 492068, Note_on_c, 0, 73, 0
1, 492068, Note_on_c, 0, 76, 0
1, 492071, Note_on_c, 0, 69, 0
1, 492152, Note_on_c, 0, 71, 58
1, 492152, Note_on_c, 0, 74, 67
1, 492152, Note_on_c, 0, 66, 46
1, 492155, Note_on_c, 0, 69, 58
1, 492208, Note_on_c, 0, 66, 0
1, 492208, Note_on_c, 0, 71, 0
1, 492208, Note_on_c, 0, 74, 0
1, 492211, Note_on_c, 0, 69, 0
1, 492293, Note_on_c, 0, 83, 80
1, 492293, Note_on_c, 0, 37, 62
1, 492362, Note_on_c, 0, 37, 0
1, 492362, Note_on_c, 0, 83, 0
1, 492466, Note_on_c, 0, 71, 58
1, 492466, Note_on_c, 0, 74, 68
1, 492466, Note_on_c, 0, 66, 46
1, 492469, Note_on_c, 0, 69, 58
1, 492521, Note_on_c, 0, 66, 0
1, 492521, Note_on_c, 0, 71, 0
1, 492521, Note_on_c, 0, 74, 0
1, 492524, Note_on_c, 0, 69, 0
1, 492606, Note_on_c, 0, 71, 59
1, 492606, Note_on_c, 0, 74, 68
1, 492606, Note_on_c, 0, 64, 46
1, 492609, Note_on_c, 0, 68, 59
1, 492662, Note_on_c, 0, 64, 0
1, 492662, Note_on_c, 0, 71, 0
1, 492662, Note_on_c, 0, 74, 0
1, 492665, Note_on_c, 0, 68, 0
1, 492746, Note_on_c, 0, 83, 81
1, 492746, Note_on_c, 0, 37, 62
1, 492810, Note_on_c, 0, 83, 0
1, 492813, Note_on_c, 0, 37, 0
1, 492907, Note_on_c, 0, 71, 59
1, 492907, Note_on_c, 0, 74, 69
1, 492907, Note_on_c, 0, 64, 46
1, 492910, Note_on_c, 0, 68, 59
1, 492963, Note_on_c, 0, 64, 0
1, 492963, Note_on_c, 0, 71, 0
1, 492963, Note_on_c, 0, 74, 0
1, 492966, Note_on_c, 0, 68, 0
1, 493047, Note_on_c, 0, 69, 59
1, 493047, Note_on_c, 0, 73, 69
1, 493047, Note_on_c, 0, 64, 47
1, 493050, Note_on_c, 0, 68, 59
1, 493103, Note_on_c, 0, 64, 0
1, 493103, Note_on_c, 0, 69, 0
1, 493103, Note_on_c, 0, 73, 0
1, 493106, Note_on_c, 0, 68, 0
1, 493188, Note_on_c, 0, 81, 82
1, 493188, Note_on_c, 0, 37, 63
1, 493252, Note_on_c, 0, 37, 0
1, 493252, Note_on_c, 0, 81, 0
1, 493348, Note_on_c, 0, 69, 60
1, 493348, Note_on_c, 0, 73, 70
1, 493348, Note_on_c, 0, 64, 47
1, 493351, Note_on_c, 0, 68, 60
1, 493404, Note_on_c, 0, 64, 0
1, 493404, Note_on_c, 0, 69, 0
1, 493404, Note_on_c, 0, 73, 0
1, 493407, Note_on_c, 0, 68, 0
1, 493488, Note_on_c, 0, 69, 60
1, 493488, Note_on_c, 0, 73, 70
1, 493488, Note_on_c, 0, 62, 47
1, 493491, Note_on_c, 0, 66, 60
1, 493544, Note_on_c, 0, 62, 0
1, 493544, Note_on_c, 0, 69, 0
1, 493544, Note_on_c, 0, 73, 0
1, 493547, Note_on_c, 0, 66, 0
1, 493629, Note_on_c, 0, 81, 83
1, 493629, Note_on_c, 0, 37, 63
1, 493693, Note_on_c, 0, 37, 0
1, 493693, Note_on_c, 0, 81, 0
1, 493789, Note_on_c, 0, 69, 61
1, 493789, Note_on_c, 0, 73, 70
1, 493789, Note_on_c, 0, 62, 47
1, 493792, Note_on_c, 0, 66, 61
1, 493842, Note_on_c, 0, 62, 0
1, 493842, Note_on_c, 0, 69, 0
1, 493842, Note_on_c, 0, 73, 0
1, 493845, Note_on_c, 0, 66, 0
1, 493921, Note_on_c, 0, 69, 62
1, 493921, Note_on_c, 0, 71, 72
1, 493921, Note_on_c, 0, 62, 48
1, 493924, Note_on_c, 0, 66, 62
1, 493974, Note_on_c, 0, 62, 0
1, 493974, Note_on_c, 0, 69, 0
1, 493974, Note_on_c, 0, 71, 0
1, 493977, Note_on_c, 0, 66, 0
1, 494054, Note_on_c, 0, 81, 87
1, 494054, Note_on_c, 0, 37, 66
1, 494110, Note_on_c, 0, 37, 0
1, 494110, Note_on_c, 0, 81, 0
1, 494194, Note_on_c, 0, 69, 65
1, 494194, Note_on_c, 0, 71, 76
1, 494194, Note_on_c, 0, 62, 49
1, 494197, Note_on_c, 0, 66, 63
1, 494244, Note_on_c, 0, 62, 0
1, 494244, Note_on_c, 0, 69, 0
1, 494244, Note_on_c, 0, 71, 0
1, 494247, Note_on_c, 0, 66, 0
1, 494319, Note_on_c, 0, 69, 66
1, 494319, Note_on_c, 0, 71, 77
1, 494319, Note_on_c, 0, 62, 50
1, 494322, Note_on_c, 0, 66, 65
1, 494369, Note_on_c, 0, 62, 0
1, 494369, Note_on_c, 0, 69, 0
1, 494369, Note_on_c, 0, 71, 0
1, 494372, Note_on_c, 0, 66, 0
1, 494444, Note_on_c, 0, 68, 67
1, 494444, Note_on_c, 0, 71, 79
1, 494444, Note_on_c, 0, 62, 50
1, 494447, Note_on_c, 0, 66, 66
1, 494493, Note_on_c, 0, 62, 0
1, 494493, Note_on_c, 0, 68, 0
1, 494493, Note_on_c, 0, 71, 0
1, 494496, Note_on_c, 0, 66, 0
1, 494568, Note_on_c, 0, 80, 96
1, 494568, Note_on_c, 0, 37, 71
1, 494624, Note_on_c, 0, 80, 0
1, 494627, Note_on_c, 0, 37, 0
1, 494709, Note_on_c, 0, 68, 70
1, 494709, Note_on_c, 0, 71, 81
1, 494709, Note_on_c, 0, 62, 52
1, 494712, Note_on_c, 0, 66, 68
1, 494759, Note_on_c, 0, 62, 0
1, 494759, Note_on_c, 0, 68, 0
1, 494759, Note_on_c, 0, 71, 0
1, 494762, Note_on_c, 0, 66, 0
1, 494834, Note_on_c, 0, 68, 83
1, 494834, Note_on_c, 0, 71, 83
1, 494834, Note_on_c, 0, 61, 53
1, 494837, Note_on_c, 0, 65, 69
1, 494881, Note_on_c, 0, 61, 0
1, 494881, Note_on_c, 0, 68, 0
1, 494881, Note_on_c, 0, 71, 0
1, 494884, Note_on_c, 0, 65, 0
1, 494952, Note_on_c, 0, 80, 98
1, 494952, Note_on_c, 0, 37, 75
1, 495004, Note_on_c, 0, 80, 0
1, 495007, Note_on_c, 0, 37, 0
1, 495084, Note_on_c, 0, 69, 87
1, 495084, Note_on_c, 0, 61, 54
1, 495084, Note_on_c, 0, 66, 71
1, 495131, Note_on_c, 0, 66, 0
1, 495131, Note_on_c, 0, 61, 0
1, 495131, Note_on_c, 0, 69, 0
1, 495202, Note_on_c, 0, 78, 102
1, 495202, Note_on_c, 0, 37, 78
1, 495255, Note_on_c, 0, 37, 0
1, 495255, Note_on_c, 0, 78, 0
1, 495334, Note_on_c, 0, 66, 76
1, 495334, Note_on_c, 0, 69, 90
1, 495334, Note_on_c, 0, 60, 69
1, 495337, Note_on_c, 0, 63, 87
1, 495381, Note_on_c, 0, 60, 0
1, 495381, Note_on_c, 0, 66, 0
1, 495381, Note_on_c, 0, 69, 0
1, 495384, Note_on_c, 0, 63, 0
1, 495453, Note_on_c, 0, 78, 107
1, 495453, Note_on_c, 0, 37, 80
1, 495497, Note_on_c, 0, 37, 0
1, 495497, Note_on_c, 0, 78, 0
1, 495565, Note_on_c, 0, 65, 79
1, 495565, Note_on_c, 0, 68, 93
1, 495565, Note_on_c, 0, 61, 89
1, 495610, Note_on_c, 0, 61, 0
1, 495610, Note_on_c, 0, 68, 0
1, 495610, Note_on_c, 0, 65, 0
1, 495677, Note_on_c, 0, 77, 110
1, 495677, Note_on_c, 0, 37, 83
1, 495722, Note_on_c, 0, 37, 0
1, 495722, Note_on_c, 0, 77, 0
1, 495790, Note_on_c, 0, 69, 81
1, 495790, Note_on_c, 0, 73, 81
1, 495790, Note_on_c, 0, 78, 111
1, 495793, Note_on_c, 0, 42, 90
1, 495830, Note_on_c, 0, 78, 0
1, 495830, Note_on_c, 0, 69, 0
1, 495830, Note_on_c, 0, 73, 0
1, 495833, Note_on_c, 0, 42, 0
1, 495892, Note_on_c, 0, 66, 96
1, 495892, Note_on_c, 0, 54, 90
1, 495932, Note_on_c, 0, 54, 0
1, 495932, Note_on_c, 0, 66, 0
1, 495994, Note_on_c, 0, 65, 81
1, 495994, Note_on_c, 0, 68, 81
1, 495994, Note_on_c, 0, 73, 111
1, 495997, Note_on_c, 0, 37, 90
1, 496034, Note_on_c, 0, 73, 0
1, 496034, Note_on_c, 0, 65, 0
1, 496034, Note_on_c, 0, 68, 0
1, 496037, Note_on_c, 0, 37, 0
1, 496096, Note_on_c, 0, 61, 96
1, 496096, Note_on_c, 0, 49, 90
1, 496137, Note_on_c, 0, 49, 0
1, 496137, Note_on_c, 0, 61, 0
1, 496198, Note_on_c, 0, 66, 111
1, 496198, Note_on_c, 0, 30, 90
1, 496239, Note_on_c, 0, 30, 0
1, 496239, Note_on_c, 0, 66, 0
1, 496300, Note_on_c, 0, 54, 96
1, 496300, Note_on_c, 0, 42, 90
1, 496341, Note_on_c, 0, 42, 0
1, 496341, Note_on_c, 0, 54, 0
1, 498649, Note_on_c, 0, 78, 43
1, 498649, Note_on_c, 0, 84, 55
1, 498649, Note_on_c, 0, 69, 47
1, 498674, Control_c, 0, 64, 0
1, 498674, Control_c, 0, 64, 0
1, 498735, Control_c, 0, 64, 127
1, 498735, Control_c, 0, 64, 127
1, 498761, Note_on_c, 0, 81, 44
1, 498761, Note_on_c, 0, 85, 56
1, 498761, Note_on_c, 0, 66, 48
1, 498770, Note_on_c, 0, 69, 0
1, 498770, Note_on_c, 0, 78, 0
1, 498770, Note_on_c, 0, 84, 0
1, 498873, Note_on_c, 0, 78, 45
1, 498873, Note_on_c, 0, 84, 57
1, 498873, Note_on_c, 0, 69, 49
1, 498881, Note_on_c, 0, 81, 0
1, 498881, Note_on_c, 0, 66, 0
1, 498881, Note_on_c, 0, 85, 0
1, 498944, Control_c, 0, 64, 0
1, 498944, Control_c, 0, 64, 0
1, 498975, Note_on_c, 0, 81, 47
1, 498975, Note_on_c, 0, 85, 59
1, 498975, Note_on_c, 0, 66, 50
1, 498983, Note_on_c, 0, 78, 0
1, 498983, Note_on_c, 0, 69, 0
1, 498983, Note_on_c, 0, 84, 0
1, 499077, Note_on_c, 0, 83, 48
1, 499077, Note_on_c, 0, 86, 60
1, 499077, Note_on_c, 0, 65, 51
1, 499085, Note_on_c, 0, 81, 0
1, 499085, Note_on_c, 0, 66, 0
1, 499085, Note_on_c, 0, 85, 0
1, 499101, Control_c, 0, 64, 0
1, 499101, Control_c, 0, 64, 0
1, 499172, Control_c, 0, 64, 127
1, 499172, Control_c, 0, 64, 127
1, 499180, Note_on_c, 0, 85, 61
1, 499180, Note_on_c, 0, 68, 52
1, 499188, Note_on_c, 0, 83, 0
1, 499188, Note_on_c, 0, 65, 0
1, 499188, Note_on_c, 0, 86, 0
1, 499282, Note_on_c, 0, 81, 50
1, 499282, Note_on_c, 0, 86, 62
1, 499282, Note_on_c, 0, 66, 53
1, 499290, Note_on_c, 0, 85, 0
1, 499290, Note_on_c, 0, 68, 0
1, 499297, Control_c, 0, 64, 0
1, 499297, Control_c, 0, 64, 0
1, 499384, Note_on_c, 0, 85, 63
1, 499384, Note_on_c, 0, 69, 53
1, 499392, Note_on_c, 0, 86, 0
1, 499392, Note_on_c, 0, 66, 0
1, 499392, Note_on_c, 0, 81, 0
1, 499486, Note_on_c, 0, 85, 0
1, 499486, Note_on_c, 0, 81, 52
1, 499486, Note_on_c, 0, 85, 64
1, 499489, Note_on_c, 0, 67, 54
1, 499495, Note_on_c, 0, 69, 0
1, 499512, Control_c, 0, 64, 0
1, 499512, Control_c, 0, 64, 0
1, 499572, Control_c, 0, 64, 127
1, 499572, Control_c, 0, 64, 127
1, 499598, Note_on_c, 0, 79, 54
1, 499598, Note_on_c, 0, 83, 66
1, 499598, Note_on_c, 0, 71, 55
1, 499606, Note_on_c, 0, 81, 0
1, 499606, Note_on_c, 0, 67, 0
1, 499606, Note_on_c, 0, 85, 0
1, 499700, Note_on_c, 0, 79, 0
1, 499700, Note_on_c, 0, 83, 0
1, 499700, Note_on_c, 0, 79, 55
1, 499703, Note_on_c, 0, 83, 67
1, 499703, Note_on_c, 0, 69, 56
1, 499708, Note_on_c, 0, 71, 0
1, 499771, Control_c, 0, 64, 0
1, 499771, Control_c, 0, 64, 0
1, 499802, Note_on_c, 0, 78, 56
1, 499802, Note_on_c, 0, 81, 68
1, 499802, Note_on_c, 0, 73, 57
1, 499810, Note_on_c, 0, 79, 0
1, 499810, Note_on_c, 0, 69, 0
1, 499810, Note_on_c, 0, 83, 0
1, 499905, Note_on_c, 0, 78, 0
1, 499905, Note_on_c, 0, 81, 0
1, 499905, Note_on_c, 0, 78, 57
1, 499908, Note_on_c, 0, 81, 69
1, 499908, Note_on_c, 0, 71, 58
1, 499913, Note_on_c, 0, 73, 0
1, 499928, Control_c, 0, 64, 0
1, 499928, Control_c, 0, 64, 0
1, 499999, Control_c, 0, 64, 127
1, 499999, Control_c, 0, 64, 127
1, 500007, Note_on_c, 0, 77, 48
1, 500007, Note_on_c, 0, 80, 62
1, 500007, Note_on_c, 0, 74, 54
1, 500015, Note_on_c, 0, 78, 0
1, 500015, Note_on_c, 0, 71, 0
1, 500015, Note_on_c, 0, 81, 0
1, 500109, Note_on_c, 0, 77, 0
1, 500109, Note_on_c, 0, 80, 0
1, 500109, Note_on_c, 0, 77, 46
1, 500112, Note_on_c, 0, 80, 58
1, 500112, Note_on_c, 0, 69, 51
1, 500117, Note_on_c, 0, 74, 0
1, 500124, Control_c, 0, 64, 0
1, 500124, Control_c, 0, 64, 0
1, 500211, Note_on_c, 0, 77, 0
1, 500211, Note_on_c, 0, 80, 0
1, 500211, Note_on_c, 0, 78, 44
1, 500214, Note_on_c, 0, 81, 55
1, 500214, Note_on_c, 0, 73, 47
1, 500221, Note_on_c, 0, 69, 0
1, 500336, Note_on_c, 0, 78, 46
1, 500336, Note_on_c, 0, 84, 58
1, 500336, Note_on_c, 0, 69, 47
1, 500344, Note_on_c, 0, 78, 0
1, 500344, Note_on_c, 0, 73, 0
1, 500344, Note_on_c, 0, 81, 0
1, 500362, Control_c, 0, 64, 0
1, 500362, Control_c, 0, 64, 0
1, 500422, Control_c, 0, 64, 127
1, 500422, Control_c, 0, 64, 127
1, 500448, Note_on_c, 0, 81, 46
1, 500448, Note_on_c, 0, 85, 58
1, 500448, Note_on_c, 0, 66, 48
1, 500456, Note_on_c, 0, 78, 0
1, 500456, Note_on_c, 0, 69, 0
1, 500456, Note_on_c, 0, 84, 0
1, 500550, Note_on_c, 0, 78, 48
1, 500550, Note_on_c, 0, 84, 60
1, 500550, Note_on_c, 0, 69, 49
1, 500558, Note_on_c, 0, 81, 0
1, 500558, Note_on_c, 0, 66, 0
1, 500558, Note_on_c, 0, 85, 0
1, 500621, Control_c, 0, 64, 0
1, 500621, Control_c, 0, 64, 0
1, 500652, Note_on_c, 0, 81, 48
1, 500652, Note_on_c, 0, 85, 60
1, 500652, Note_on_c, 0, 66, 51
1, 500660, Note_on_c, 0, 78, 0
1, 500660, Note_on_c, 0, 69, 0
1, 500660, Note_on_c, 0, 84, 0
1, 500754, Note_on_c, 0, 83, 48
1, 500754, Note_on_c, 0, 86, 62
1, 500754, Note_on_c, 0, 65, 52
1, 500762, Note_on_c, 0, 81, 0
1, 500762, Note_on_c, 0, 66, 0
1, 500762, Note_on_c, 0, 85, 0
1, 500778, Control_c, 0, 64, 0
1, 500778, Control_c, 0, 64, 0
1, 500848, Control_c, 0, 64, 127
1, 500848, Control_c, 0, 64, 127
1, 500856, Note_on_c, 0, 85, 62
1, 500856, Note_on_c, 0, 68, 53
1, 500864, Note_on_c, 0, 83, 0
1, 500864, Note_on_c, 0, 65, 0
1, 500864, Note_on_c, 0, 86, 0
1, 500959, Note_on_c, 0, 81, 50
1, 500959, Note_on_c, 0, 86, 64
1, 500959, Note_on_c, 0, 66, 54
1, 500966, Note_on_c, 0, 85, 0
1, 500966, Note_on_c, 0, 68, 0
1, 500974, Control_c, 0, 64, 0
1, 500974, Control_c, 0, 64, 0
1, 501061, Note_on_c, 0, 85, 64
1, 501061, Note_on_c, 0, 69, 56
1, 501069, Note_on_c, 0, 86, 0
1, 501069, Note_on_c, 0, 66, 0
1, 501069, Note_on_c, 0, 81, 0
1, 501163, Note_on_c, 0, 85, 0
1, 501163, Note_on_c, 0, 78, 50
1, 501163, Note_on_c, 0, 85, 65
1, 501166, Note_on_c, 0, 62, 57
1, 501172, Note_on_c, 0, 69, 0
1, 501191, Control_c, 0, 64, 0
1, 501191, Control_c, 0, 64, 0
1, 501259, Control_c, 0, 64, 127
1, 501259, Control_c, 0, 64, 127
1, 501288, Note_on_c, 0, 74, 51
1, 501288, Note_on_c, 0, 83, 66
1, 501288, Note_on_c, 0, 66, 58
1, 501296, Note_on_c, 0, 78, 0
1, 501296, Note_on_c, 0, 62, 0
1, 501296, Note_on_c, 0, 85, 0
1, 501400, Note_on_c, 0, 83, 0
1, 501400, Note_on_c, 0, 76, 52
1, 501400, Note_on_c, 0, 83, 67
1, 501403, Note_on_c, 0, 61, 56
1, 501408, Note_on_c, 0, 66, 0
1, 501408, Note_on_c, 0, 74, 0
1, 501470, Control_c, 0, 64, 0
1, 501470, Control_c, 0, 64, 0
1, 501502, Note_on_c, 0, 73, 52
1, 501502, Note_on_c, 0, 81, 68
1, 501502, Note_on_c, 0, 64, 54
1, 501510, Note_on_c, 0, 83, 0
1, 501510, Note_on_c, 0, 61, 0
1, 501510, Note_on_c, 0, 76, 0
1, 501604, Note_on_c, 0, 81, 0
1, 501604, Note_on_c, 0, 74, 53
1, 501604, Note_on_c, 0, 81, 69
1, 501607, Note_on_c, 0, 52, 52
1, 501612, Note_on_c, 0, 64, 0
1, 501612, Note_on_c, 0, 73, 0
1, 501628, Control_c, 0, 64, 0
1, 501628, Control_c, 0, 64, 0
1, 501698, Control_c, 0, 64, 127
1, 501698, Control_c, 0, 64, 127
1, 501706, Note_on_c, 0, 71, 50
1, 501706, Note_on_c, 0, 80, 65
1, 501706, Note_on_c, 0, 62, 51
1, 501714, Note_on_c, 0, 81, 0
1, 501714, Note_on_c, 0, 52, 0
1, 501714, Note_on_c, 0, 74, 0
1, 501808, Note_on_c, 0, 71, 0
1, 501808, Note_on_c, 0, 80, 0
1, 501808, Note_on_c, 0, 71, 48
1, 501811, Note_on_c, 0, 80, 62
1, 501811, Note_on_c, 0, 57, 49
1, 501817, Note_on_c, 0, 62, 0
1, 501825, Control_c, 0, 64, 0
1, 501825, Control_c, 0, 64, 0
1, 501921, Note_on_c, 0, 73, 46
1, 501921, Note_on_c, 0, 81, 58
1, 501921, Note_on_c, 0, 61, 47
1, 501929, Note_on_c, 0, 71, 0
1, 501929, Note_on_c, 0, 57, 0
1, 501929, Note_on_c, 0, 80, 0
1, 502033, Note_on_c, 0, 78, 43
1, 502033, Note_on_c, 0, 84, 55
1, 502033, Note_on_c, 0, 69, 47
1, 502042, Note_on_c, 0, 73, 0
1, 502042, Note_on_c, 0, 61, 0
1, 502042, Note_on_c, 0, 81, 0
1, 502059, Control_c, 0, 64, 0
1, 502059, Control_c, 0, 64, 0
1, 502119, Control_c, 0, 64, 127
1, 502119, Control_c, 0, 64, 127
1, 502145, Note_on_c, 0, 81, 44
1, 502145, Note_on_c, 0, 85, 56
1, 502145, Note_on_c, 0, 66, 48
1, 502154, Note_on_c, 0, 78, 0
1, 502154, Note_on_c, 0, 69, 0
1, 502154, Note_on_c, 0, 84, 0
1, 502258, Note_on_c, 0, 78, 45
1, 502258, Note_on_c, 0, 84, 57
1, 502258, Note_on_c, 0, 69, 49
1, 502266, Note_on_c, 0, 81, 0
1, 502266, Note_on_c, 0, 66, 0
1, 502266, Note_on_c, 0, 85, 0
1, 502328, Control_c, 0, 64, 0
1, 502328, Control_c, 0, 64, 0
1, 502360, Note_on_c, 0, 81, 47
1, 502360, Note_on_c, 0, 85, 59
1, 502360, Note_on_c, 0, 66, 50
1, 502368, Note_on_c, 0, 78, 0
1, 502368, Note_on_c, 0, 69, 0
1, 502368, Note_on_c, 0, 84, 0
1, 502462, Note_on_c, 0, 83, 48
1, 502462, Note_on_c, 0, 86, 60
1, 502462, Note_on_c, 0, 65, 51
1, 502470, Note_on_c, 0, 81, 0
1, 502470, Note_on_c, 0, 66, 0
1, 502470, Note_on_c, 0, 85, 0
1, 502485, Control_c, 0, 64, 0
1, 502485, Control_c, 0, 64, 0
1, 502556, Control_c, 0, 64, 127
1, 502556, Control_c, 0, 64, 127
1, 502564, Note_on_c, 0, 85, 61
1, 502564, Note_on_c, 0, 68, 52
1, 502572, Note_on_c, 0, 83, 0
1, 502572, Note_on_c, 0, 65, 0
1, 502572, Note_on_c, 0, 86, 0
1, 502666, Note_on_c, 0, 81, 50
1, 502666, Note_on_c, 0, 86, 62
1, 502666, Note_on_c, 0, 66, 53
1, 502674, Note_on_c, 0, 85, 0
1, 502674, Note_on_c, 0, 68, 0
1, 502682, Control_c, 0, 64, 0
1, 502682, Control_c, 0, 64, 0
1, 502768, Note_on_c, 0, 85, 63
1, 502768, Note_on_c, 0, 69, 53
1, 502776, Note_on_c, 0, 86, 0
1, 502776, Note_on_c, 0, 66, 0
1, 502776, Note_on_c, 0, 81, 0
1, 502870, Note_on_c, 0, 85, 0
1, 502870, Note_on_c, 0, 81, 52
1, 502870, Note_on_c, 0, 85, 64
1, 502873, Note_on_c, 0, 67, 54
1, 502878, Note_on_c, 0, 69, 0
1, 502894, Control_c, 0, 64, 0
1, 502894, Control_c, 0, 64, 0
1, 502949, Control_c, 0, 64, 127
1, 502949, Control_c, 0, 64, 127
1, 502972, Note_on_c, 0, 79, 54
1, 502972, Note_on_c, 0, 83, 66
1, 502972, Note_on_c, 0, 71, 55
1, 502980, Note_on_c, 0, 81, 0
1, 502980, Note_on_c, 0, 67, 0
1, 502980, Note_on_c, 0, 85, 0
1, 503074, Note_on_c, 0, 79, 0
1, 503074, Note_on_c, 0, 83, 0
1, 503074, Note_on_c, 0, 79, 55
1, 503077, Note_on_c, 0, 83, 67
1, 503077, Note_on_c, 0, 69, 56
1, 503082, Note_on_c, 0, 71, 0
1, 503145, Control_c, 0, 64, 0
1, 503145, Control_c, 0, 64, 0
1, 503177, Note_on_c, 0, 78, 56
1, 503177, Note_on_c, 0, 81, 68
1, 503177, Note_on_c, 0, 73, 57
1, 503185, Note_on_c, 0, 79, 0
1, 503185, Note_on_c, 0, 69, 0
1, 503185, Note_on_c, 0, 83, 0
1, 503279, Note_on_c, 0, 78, 0
1, 503279, Note_on_c, 0, 81, 0
1, 503279, Note_on_c, 0, 78, 57
1, 503282, Note_on_c, 0, 81, 69
1, 503282, Note_on_c, 0, 71, 58
1, 503287, Note_on_c, 0, 73, 0
1, 503302, Control_c, 0, 64, 0
1, 503302, Control_c, 0, 64, 0
1, 503373, Control_c, 0, 64, 127
1, 503373, Control_c, 0, 64, 127
1, 503381, Note_on_c, 0, 77, 48
1, 503381, Note_on_c, 0, 80, 62
1, 503381, Note_on_c, 0, 74, 54
1, 503389, Note_on_c, 0, 78, 0
1, 503389, Note_on_c, 0, 71, 0
1, 503389, Note_on_c, 0, 81, 0
1, 503483, Note_on_c, 0, 77, 0
1, 503483, Note_on_c, 0, 80, 0
1, 503483, Note_on_c, 0, 77, 46
1, 503486, Note_on_c, 0, 80, 58
1, 503486, Note_on_c, 0, 69, 51
1, 503491, Note_on_c, 0, 74, 0
1, 503498, Control_c, 0, 64, 0
1, 503498, Control_c, 0, 64, 0
1, 503585, Note_on_c, 0, 77, 0
1, 503585, Note_on_c, 0, 80, 0
1, 503585, Note_on_c, 0, 78, 44
1, 503588, Note_on_c, 0, 81, 55
1, 503588, Note_on_c, 0, 73, 47
1, 503595, Note_on_c, 0, 69, 0
1, 503710, Note_on_c, 0, 78, 46
1, 503710, Note_on_c, 0, 84, 58
1, 503710, Note_on_c, 0, 69, 47
1, 503719, Note_on_c, 0, 78, 0
1, 503719, Note_on_c, 0, 73, 0
1, 503719, Note_on_c, 0, 81, 0
1, 503736, Control_c, 0, 64, 0
1, 503736, Control_c, 0, 64, 0
1, 503796, Control_c, 0, 64, 127
1, 503796, Control_c, 0, 64, 127
1, 503822, Note_on_c, 0, 81, 46
1, 503822, Note_on_c, 0, 85, 58
1, 503822, Note_on_c, 0, 66, 48
1, 503830, Note_on_c, 0, 78, 0
1, 503830, Note_on_c, 0, 69, 0
1, 503830, Note_on_c, 0, 84, 0
1, 503924, Note_on_c, 0, 78, 48
1, 503924, Note_on_c, 0, 84, 60
1, 503924, Note_on_c, 0, 69, 49
1, 503932, Note_on_c, 0, 81, 0
1, 503932, Note_on_c, 0, 66, 0
1, 503932, Note_on_c, 0, 85, 0
1, 503995, Control_c, 0, 64, 0
1, 503995, Control_c, 0, 64, 0
1, 504026, Note_on_c, 0, 81, 48
1, 504026, Note_on_c, 0, 85, 60
1, 504026, Note_on_c, 0, 66, 51
1, 504034, Note_on_c, 0, 78, 0
1, 504034, Note_on_c, 0, 69, 0
1, 504034, Note_on_c, 0, 84, 0
1, 504128, Note_on_c, 0, 83, 48
1, 504128, Note_on_c, 0, 86, 62
1, 504128, Note_on_c, 0, 65, 52
1, 504136, Note_on_c, 0, 81, 0
1, 504136, Note_on_c, 0, 66, 0
1, 504136, Note_on_c, 0, 85, 0
1, 504152, Control_c, 0, 64, 0
1, 504152, Control_c, 0, 64, 0
1, 504223, Control_c, 0, 64, 127
1, 504223, Control_c, 0, 64, 127
1, 504231, Note_on_c, 0, 85, 62
1, 504231, Note_on_c, 0, 68, 53
1, 504239, Note_on_c, 0, 83, 0
1, 504239, Note_on_c, 0, 65, 0
1, 504239, Note_on_c, 0, 86, 0
1, 504333, Note_on_c, 0, 81, 50
1, 504333, Note_on_c, 0, 86, 64
1, 504333, Note_on_c, 0, 66, 54
1, 504341, Note_on_c, 0, 85, 0
1, 504341, Note_on_c, 0, 68, 0
1, 504348, Control_c, 0, 64, 0
1, 504348, Control_c, 0, 64, 0
1, 504435, Note_on_c, 0, 85, 64
1, 504435, Note_on_c, 0, 69, 56
1, 504443, Note_on_c, 0, 86, 0
1, 504443, Note_on_c, 0, 66, 0
1, 504443, Note_on_c, 0, 81, 0
1, 504537, Note_on_c, 0, 85, 0
1, 504537, Note_on_c, 0, 78, 50
1, 504537, Note_on_c, 0, 85, 65
1, 504540, Note_on_c, 0, 62, 57
1, 504545, Note_on_c, 0, 69, 0
1, 504560, Control_c, 0, 64, 0
1, 504560, Control_c, 0, 64, 0
1, 504615, Control_c, 0, 64, 127
1, 504615, Control_c, 0, 64, 127
1, 504639, Note_on_c, 0, 74, 51
1, 504639, Note_on_c, 0, 83, 66
1, 504639, Note_on_c, 0, 66, 58
1, 504647, Note_on_c, 0, 78, 0
1, 504647, Note_on_c, 0, 62, 0
1, 504647, Note_on_c, 0, 85, 0
1, 504741, Note_on_c, 0, 83, 0
1, 504741, Note_on_c, 0, 76, 52
1, 504741, Note_on_c, 0, 83, 67
1, 504744, Note_on_c, 0, 61, 56
1, 504749, Note_on_c, 0, 66, 0
1, 504749, Note_on_c, 0, 74, 0
1, 504812, Control_c, 0, 64, 0
1, 504812, Control_c, 0, 64, 0
1, 504843, Note_on_c, 0, 73, 52
1, 504843, Note_on_c, 0, 81, 68
1, 504843, Note_on_c, 0, 64, 54
1, 504851, Note_on_c, 0, 83, 0
1, 504851, Note_on_c, 0, 61, 0
1, 504851, Note_on_c, 0, 76, 0
1, 504945, Note_on_c, 0, 81, 0
1, 504945, Note_on_c, 0, 74, 53
1, 504945, Note_on_c, 0, 81, 69
1, 504948, Note_on_c, 0, 52, 52
1, 504953, Note_on_c, 0, 64, 0
1, 504953, Note_on_c, 0, 73, 0
1, 504969, Control_c, 0, 64, 0
1, 504969, Control_c, 0, 64, 0
1, 505039, Control_c, 0, 64, 127
1, 505039, Control_c, 0, 64, 127
1, 505047, Note_on_c, 0, 71, 50
1, 505047, Note_on_c, 0, 80, 65
1, 505047, Note_on_c, 0, 62, 51
1, 505055, Note_on_c, 0, 81, 0
1, 505055, Note_on_c, 0, 52, 0
1, 505055, Note_on_c, 0, 74, 0
1, 505150, Note_on_c, 0, 71, 0
1, 505150, Note_on_c, 0, 80, 0
1, 505150, Note_on_c, 0, 71, 48
1, 505153, Note_on_c, 0, 80, 62
1, 505153, Note_on_c, 0, 57, 49
1, 505158, Note_on_c, 0, 62, 0
1, 505165, Control_c, 0, 64, 0
1, 505165, Control_c, 0, 64, 0
1, 505252, Note_on_c, 0, 73, 46
1, 505252, Note_on_c, 0, 81, 58
1, 505252, Note_on_c, 0, 61, 47
1, 505261, Note_on_c, 0, 71, 0
1, 505261, Note_on_c, 0, 57, 0
1, 505261, Note_on_c, 0, 80, 0
1, 505376, Note_on_c, 0, 76, 57
1, 505376, Note_on_c, 0, 84, 69
1, 505376, Note_on_c, 0, 69, 50
1, 505384, Note_on_c, 0, 73, 0
1, 505384, Note_on_c, 0, 61, 0
1, 505384, Note_on_c, 0, 81, 0
1, 505467, Control_c, 0, 64, 127
1, 505467, Control_c, 0, 64, 127
1, 505479, Note_on_c, 0, 76, 0
1, 505479, Note_on_c, 0, 84, 0
1, 505479, Note_on_c, 0, 81, 58
1, 505482, Note_on_c, 0, 69, 0
1, 505482, Note_on_c, 0, 85, 71
1, 505482, Note_on_c, 0, 73, 51
1, 505581, Note_on_c, 0, 85, 0
1, 505581, Note_on_c, 0, 81, 0
1, 505581, Note_on_c, 0, 76, 60
1, 505584, Note_on_c, 0, 73, 0
1, 505584, Note_on_c, 0, 84, 73
1, 505584, Note_on_c, 0, 69, 52
1, 505683, Note_on_c, 0, 84, 0
1, 505683, Note_on_c, 0, 76, 0
1, 505683, Note_on_c, 0, 81, 61
1, 505686, Note_on_c, 0, 69, 0
1, 505686, Note_on_c, 0, 85, 74
1, 505686, Note_on_c, 0, 73, 53
1, 505781, Control_c, 0, 64, 0
1, 505781, Control_c, 0, 64, 0
1, 505785, Note_on_c, 0, 85, 0
1, 505785, Note_on_c, 0, 81, 0
1, 505785, Note_on_c, 0, 80, 72
1, 505788, Note_on_c, 0, 73, 0
1, 505788, Note_on_c, 0, 88, 86
1, 505788, Note_on_c, 0, 68, 61
1, 505855, Control_c, 0, 64, 127
1, 505855, Control_c, 0, 64, 127
1, 505887, Note_on_c, 0, 88, 0
1, 505887, Note_on_c, 0, 80, 0
1, 505887, Note_on_c, 0, 76, 57
1, 505890, Note_on_c, 0, 68, 0
1, 505890, Note_on_c, 0, 85, 69
1, 505890, Note_on_c, 0, 73, 50
1, 505989, Note_on_c, 0, 85, 0
1, 505989, Note_on_c, 0, 76, 0
1, 505989, Note_on_c, 0, 80, 57
1, 505992, Note_on_c, 0, 73, 0
1, 505992, Note_on_c, 0, 88, 69
1, 505992, Note_on_c, 0, 68, 50
1, 506091, Note_on_c, 0, 88, 0
1, 506091, Note_on_c, 0, 80, 0
1, 506091, Note_on_c, 0, 76, 57
1, 506094, Note_on_c, 0, 68, 0
1, 506094, Note_on_c, 0, 85, 69
1, 506094, Note_on_c, 0, 73, 50
1, 506166, Control_c, 0, 64, 0
1, 506166, Control_c, 0, 64, 0
1, 506216, Note_on_c, 0, 85, 0
1, 506216, Note_on_c, 0, 76, 0
1, 506216, Note_on_c, 0, 76, 57
1, 506219, Note_on_c, 0, 73, 0
1, 506219, Note_on_c, 0, 84, 69
1, 506219, Note_on_c, 0, 69, 50
1, 506311, Control_c, 0, 64, 127
1, 506311, Control_c, 0, 64, 127
1, 506323, Note_on_c, 0, 84, 0
1, 506323, Note_on_c, 0, 76, 0
1, 506323, Note_on_c, 0, 81, 58
1, 506326, Note_on_c, 0, 69, 0
1, 506326, Note_on_c, 0, 85, 71
1, 506326, Note_on_c, 0, 73, 51
1, 506425, Note_on_c, 0, 85, 0
1, 506425, Note_on_c, 0, 81, 0
1, 506425, Note_on_c, 0, 76, 61
1, 506428, Note_on_c, 0, 73, 0
1, 506428, Note_on_c, 0, 84, 74
1, 506428, Note_on_c, 0, 69, 53
1, 506527, Note_on_c, 0, 84, 0
1, 506527, Note_on_c, 0, 76, 0
1, 506527, Note_on_c, 0, 81, 62
1, 506530, Note_on_c, 0, 69, 0
1, 506530, Note_on_c, 0, 85, 76
1, 506530, Note_on_c, 0, 73, 54
1, 506625, Control_c, 0, 64, 0
1, 506625, Control_c, 0, 64, 0
1, 506629, Note_on_c, 0, 85, 0
1, 506629, Note_on_c, 0, 81, 0
1, 506629, Note_on_c, 0, 85, 74
1, 506632, Note_on_c, 0, 73, 0
1, 506632, Note_on_c, 0, 93, 89
1, 506632, Note_on_c, 0, 67, 63
1, 506699, Control_c, 0, 64, 127
1, 506699, Control_c, 0, 64, 127
1, 506731, Note_on_c, 0, 93, 0
1, 506731, Note_on_c, 0, 85, 0
1, 506731, Note_on_c, 0, 81, 59
1, 506734, Note_on_c, 0, 67, 0
1, 506734, Note_on_c, 0, 88, 71
1, 506734, Note_on_c, 0, 73, 51
1, 506834, Note_on_c, 0, 88, 0
1, 506834, Note_on_c, 0, 81, 0
1, 506834, Note_on_c, 0, 85, 59
1, 506837, Note_on_c, 0, 73, 0
1, 506837, Note_on_c, 0, 93, 72
1, 506837, Note_on_c, 0, 67, 52
1, 506936, Note_on_c, 0, 93, 0
1, 506936, Note_on_c, 0, 85, 0
1, 506936, Note_on_c, 0, 81, 59
1, 506939, Note_on_c, 0, 67, 0
1, 506939, Note_on_c, 0, 88, 72
1, 506939, Note_on_c, 0, 73, 52
1, 507010, Control_c, 0, 64, 0
1, 507010, Control_c, 0, 64, 0
1, 507060, Note_on_c, 0, 88, 0
1, 507060, Note_on_c, 0, 81, 0
1, 507060, Note_on_c, 0, 76, 60
1, 507063, Note_on_c, 0, 73, 0
1, 507063, Note_on_c, 0, 84, 73
1, 507063, Note_on_c, 0, 69, 52
1, 507156, Control_c, 0, 64, 127
1, 507156, Control_c, 0, 64, 127
1, 507167, Note_on_c, 0, 84, 0
1, 507167, Note_on_c, 0, 76, 0
1, 507167, Note_on_c, 0, 81, 61
1, 507170, Note_on_c, 0, 69, 0
1, 507170, Note_on_c, 0, 85, 75
1, 507170, Note_on_c, 0, 73, 53
1, 507270, Note_on_c, 0, 85, 0
1, 507270, Note_on_c, 0, 81, 0
1, 507270, Note_on_c, 0, 76, 63
1, 507273, Note_on_c, 0, 73, 0
1, 507273, Note_on_c, 0, 84, 78
1, 507273, Note_on_c, 0, 69, 55
1, 507372, Note_on_c, 0, 84, 0
1, 507372, Note_on_c, 0, 76, 0
1, 507372, Note_on_c, 0, 81, 65
1, 507375, Note_on_c, 0, 69, 0
1, 507375, Note_on_c, 0, 85, 79
1, 507375, Note_on_c, 0, 73, 56
1, 507470, Control_c, 0, 64, 0
1, 507470, Control_c, 0, 64, 0
1, 507474, Note_on_c, 0, 85, 0
1, 507474, Note_on_c, 0, 81, 0
1, 507474, Note_on_c, 0, 85, 82
1, 507477, Note_on_c, 0, 73, 0
1, 507477, Note_on_c, 0, 94, 96
1, 507477, Note_on_c, 0, 66, 65
1, 507544, Control_c, 0, 64, 127
1, 507544, Control_c, 0, 64, 127
1, 507576, Note_on_c, 0, 94, 0
1, 507576, Note_on_c, 0, 85, 0
1, 507576, Note_on_c, 0, 82, 61
1, 507579, Note_on_c, 0, 66, 0
1, 507579, Note_on_c, 0, 88, 75
1, 507579, Note_on_c, 0, 73, 53
1, 507678, Note_on_c, 0, 88, 0
1, 507678, Note_on_c, 0, 82, 0
1, 507678, Note_on_c, 0, 85, 62
1, 507681, Note_on_c, 0, 73, 0
1, 507681, Note_on_c, 0, 94, 75
1, 507681, Note_on_c, 0, 66, 54
1, 507780, Note_on_c, 0, 94, 0
1, 507780, Note_on_c, 0, 85, 0
1, 507780, Note_on_c, 0, 82, 62
1, 507783, Note_on_c, 0, 66, 0
1, 507783, Note_on_c, 0, 88, 76
1, 507783, Note_on_c, 0, 73, 54
1, 507870, Control_c, 0, 64, 0
1, 507870, Control_c, 0, 64, 0
1, 507930, Note_on_c, 0, 88, 0
1, 507930, Note_on_c, 0, 82, 0
1, 507930, Note_on_c, 0, 86, 57
1, 507933, Note_on_c, 0, 73, 0
1, 507933, Note_on_c, 0, 95, 76
1, 507933, Note_on_c, 0, 62, 50
1, 508021, Control_c, 0, 64, 127
1, 508021, Control_c, 0, 64, 127
1, 508032, Note_on_c, 0, 95, 0
1, 508032, Note_on_c, 0, 86, 0
1, 508032, Note_on_c, 0, 83, 57
1, 508035, Note_on_c, 0, 62, 0
1, 508035, Note_on_c, 0, 90, 69
1, 508035, Note_on_c, 0, 66, 50
1, 508134, Note_on_c, 0, 90, 0
1, 508134, Note_on_c, 0, 83, 0
1, 508134, Note_on_c, 0, 86, 57
1, 508137, Note_on_c, 0, 66, 0
1, 508137, Note_on_c, 0, 95, 69
1, 508137, Note_on_c, 0, 62, 50
1, 508202, Control_c, 0, 64, 127
1, 508202, Control_c, 0, 64, 127
1, 508236, Note_on_c, 0, 95, 0
1, 508236, Note_on_c, 0, 86, 0
1, 508236, Note_on_c, 0, 83, 57
1, 508239, Note_on_c, 0, 62, 0
1, 508239, Note_on_c, 0, 90, 69
1, 508239, Note_on_c, 0, 71, 50
1, 508338, Note_on_c, 0, 90, 0
1, 508338, Note_on_c, 0, 83, 0
1, 508338, Note_on_c, 0, 86, 57
1, 508341, Note_on_c, 0, 71, 0
1, 508341, Note_on_c, 0, 93, 76
1, 508341, Note_on_c, 0, 62, 50
1, 508440, Note_on_c, 0, 93, 0
1, 508440, Note_on_c, 0, 86, 0
1, 508440, Note_on_c, 0, 81, 57
1, 508443, Note_on_c, 0, 62, 0
1, 508443, Note_on_c, 0, 90, 69
1, 508443, Note_on_c, 0, 66, 50
1, 508542, Note_on_c, 0, 90, 0
1, 508542, Note_on_c, 0, 81, 0
1, 508542, Note_on_c, 0, 86, 57
1, 508545, Note_on_c, 0, 66, 0
1, 508545, Note_on_c, 0, 93, 69
1, 508545, Note_on_c, 0, 62, 50
1, 508645, Note_on_c, 0, 93, 0
1, 508645, Note_on_c, 0, 86, 0
1, 508645, Note_on_c, 0, 81, 57
1, 508648, Note_on_c, 0, 62, 0
1, 508648, Note_on_c, 0, 90, 69
1, 508648, Note_on_c, 0, 69, 50
1, 508706, Control_c, 0, 64, 0
1, 508706, Control_c, 0, 64, 0
1, 508747, Note_on_c, 0, 90, 0
1, 508747, Note_on_c, 0, 81, 0
1, 508747, Note_on_c, 0, 83, 57
1, 508750, Note_on_c, 0, 69, 0
1, 508750, Note_on_c, 0, 91, 76
1, 508750, Note_on_c, 0, 59, 50
1, 508858, Control_c, 0, 64, 127
1, 508858, Control_c, 0, 64, 127
1, 508871, Note_on_c, 0, 91, 0
1, 508871, Note_on_c, 0, 83, 0
1, 508871, Note_on_c, 0, 79, 57
1, 508874, Note_on_c, 0, 59, 0
1, 508874, Note_on_c, 0, 86, 69
1, 508874, Note_on_c, 0, 62, 50
1, 508974, Note_on_c, 0, 86, 0
1, 508974, Note_on_c, 0, 79, 0
1, 508974, Note_on_c, 0, 83, 57
1, 508977, Note_on_c, 0, 62, 0
1, 508977, Note_on_c, 0, 91, 69
1, 508977, Note_on_c, 0, 59, 50
1, 509042, Control_c, 0, 64, 127
1, 509042, Control_c, 0, 64, 127
1, 509076, Note_on_c, 0, 91, 0
1, 509076, Note_on_c, 0, 83, 0
1, 509076, Note_on_c, 0, 79, 57
1, 509079, Note_on_c, 0, 59, 0
1, 509079, Note_on_c, 0, 86, 69
1, 509079, Note_on_c, 0, 67, 50
1, 509178, Note_on_c, 0, 86, 0
1, 509178, Note_on_c, 0, 79, 0
1, 509178, Note_on_c, 0, 83, 57
1, 509181, Note_on_c, 0, 67, 0
1, 509181, Note_on_c, 0, 90, 76
1, 509181, Note_on_c, 0, 59, 50
1, 509280, Note_on_c, 0, 90, 0
1, 509280, Note_on_c, 0, 83, 0
1, 509280, Note_on_c, 0, 78, 57
1, 509283, Note_on_c, 0, 59, 0
1, 509283, Note_on_c, 0, 86, 69
1, 509283, Note_on_c, 0, 62, 50
1, 509382, Note_on_c, 0, 86, 0
1, 509382, Note_on_c, 0, 78, 0
1, 509382, Note_on_c, 0, 83, 57
1, 509385, Note_on_c, 0, 62, 0
1, 509385, Note_on_c, 0, 90, 69
1, 509385, Note_on_c, 0, 59, 50
1, 509484, Note_on_c, 0, 90, 0
1, 509484, Note_on_c, 0, 83, 0
1, 509484, Note_on_c, 0, 78, 57
1, 509487, Note_on_c, 0, 59, 0
1, 509487, Note_on_c, 0, 86, 69
1, 509487, Note_on_c, 0, 66, 50
1, 509545, Control_c, 0, 64, 0
1, 509545, Control_c, 0, 64, 0
1, 509586, Note_on_c, 0, 86, 0
1, 509586, Note_on_c, 0, 78, 0
1, 509586, Note_on_c, 0, 81, 57
1, 509589, Note_on_c, 0, 66, 0
1, 509589, Note_on_c, 0, 90, 76
1, 509589, Note_on_c, 0, 57, 50
1, 509677, Control_c, 0, 64, 127
1, 509677, Control_c, 0, 64, 127
1, 509688, Note_on_c, 0, 90, 0
1, 509688, Note_on_c, 0, 81, 0
1, 509688, Note_on_c, 0, 78, 57
1, 509691, Note_on_c, 0, 57, 0
1, 509691, Note_on_c, 0, 85, 69
1, 509691, Note_on_c, 0, 61, 50
1, 509790, Note_on_c, 0, 85, 0
1, 509790, Note_on_c, 0, 78, 0
1, 509790, Note_on_c, 0, 81, 57
1, 509793, Note_on_c, 0, 61, 0
1, 509793, Note_on_c, 0, 90, 69
1, 509793, Note_on_c, 0, 57, 50
1, 509859, Control_c, 0, 64, 127
1, 509859, Control_c, 0, 64, 127
1, 509893, Note_on_c, 0, 90, 0
1, 509893, Note_on_c, 0, 81, 0
1, 509893, Note_on_c, 0, 78, 57
1, 509896, Note_on_c, 0, 57, 0
1, 509896, Note_on_c, 0, 85, 69
1, 509896, Note_on_c, 0, 66, 50
1, 509995, Note_on_c, 0, 85, 0
1, 509995, Note_on_c, 0, 78, 0
1, 509995, Note_on_c, 0, 81, 57
1, 509998, Note_on_c, 0, 66, 0
1, 509998, Note_on_c, 0, 88, 76
1, 509998, Note_on_c, 0, 57, 50
1, 510097, Note_on_c, 0, 88, 0
1, 510097, Note_on_c, 0, 81, 0
1, 510097, Note_on_c, 0, 76, 57
1, 510100, Note_on_c, 0, 57, 0
1, 510100, Note_on_c, 0, 85, 69
1, 510100, Note_on_c, 0, 61, 50
1, 510199, Note_on_c, 0, 85, 0
1, 510199, Note_on_c, 0, 76, 0
1, 510199, Note_on_c, 0, 81, 57
1, 510202, Note_on_c, 0, 61, 0
1, 510202, Note_on_c, 0, 88, 69
1, 510202, Note_on_c, 0, 57, 50
1, 510301, Note_on_c, 0, 88, 0
1, 510301, Note_on_c, 0, 81, 0
1, 510301, Note_on_c, 0, 76, 57
1, 510304, Note_on_c, 0, 57, 0
1, 510304, Note_on_c, 0, 85, 69
1, 510304, Note_on_c, 0, 64, 50
1, 510362, Control_c, 0, 64, 0
1, 510362, Control_c, 0, 64, 0
1, 510403, Note_on_c, 0, 85, 0
1, 510403, Note_on_c, 0, 76, 0
1, 510403, Note_on_c, 0, 84, 57
1, 510406, Note_on_c, 0, 64, 0
1, 510406, Note_on_c, 0, 92, 76
1, 510406, Note_on_c, 0, 56, 50
1, 510494, Control_c, 0, 64, 127
1, 510494, Control_c, 0, 64, 127
1, 510505, Note_on_c, 0, 92, 0
1, 510505, Note_on_c, 0, 84, 0
1, 510505, Note_on_c, 0, 80, 57
1, 510508, Note_on_c, 0, 56, 0
1, 510508, Note_on_c, 0, 87, 69
1, 510508, Note_on_c, 0, 60, 50
1, 510607, Note_on_c, 0, 87, 0
1, 510607, Note_on_c, 0, 80, 0
1, 510607, Note_on_c, 0, 84, 57
1, 510610, Note_on_c, 0, 60, 0
1, 510610, Note_on_c, 0, 92, 69
1, 510610, Note_on_c, 0, 56, 50
1, 510676, Control_c, 0, 64, 127
1, 510676, Control_c, 0, 64, 127
1, 510709, Note_on_c, 0, 92, 0
1, 510709, Note_on_c, 0, 84, 0
1, 510709, Note_on_c, 0, 80, 57
1, 510712, Note_on_c, 0, 56, 0
1, 510712, Note_on_c, 0, 87, 69
1, 510712, Note_on_c, 0, 68, 50
1, 510812, Note_on_c, 0, 87, 0
1, 510812, Note_on_c, 0, 80, 0
1, 510812, Note_on_c, 0, 84, 57
1, 510815, Note_on_c, 0, 68, 0
1, 510815, Note_on_c, 0, 92, 76
1, 510815, Note_on_c, 0, 56, 56
1, 510936, Note_on_c, 0, 92, 0
1, 510936, Note_on_c, 0, 84, 0
1, 510936, Note_on_c, 0, 80, 57
1, 510939, Note_on_c, 0, 56, 0
1, 510939, Note_on_c, 0, 87, 69
1, 510939, Note_on_c, 0, 75, 50
1, 511038, Note_on_c, 0, 87, 0
1, 511038, Note_on_c, 0, 80, 0
1, 511038, Note_on_c, 0, 84, 57
1, 511041, Note_on_c, 0, 75, 0
1, 511041, Note_on_c, 0, 92, 69
1, 511141, Note_on_c, 0, 92, 0
1, 511141, Note_on_c, 0, 84, 0
1, 511141, Note_on_c, 0, 80, 57
1, 511144, Note_on_c, 0, 87, 69
1, 511202, Control_c, 0, 64, 0
1, 511202, Control_c, 0, 64, 0
1, 511243, Note_on_c, 0, 87, 0
1, 511243, Note_on_c, 0, 80, 0
1, 511243, Note_on_c, 0, 85, 57
1, 511246, Note_on_c, 0, 92, 76
1, 511246, Note_on_c, 0, 37, 56
1, 511354, Control_c, 0, 64, 127
1, 511354, Control_c, 0, 64, 127
1, 511367, Note_on_c, 0, 92, 0
1, 511367, Note_on_c, 0, 85, 0
1, 511367, Note_on_c, 0, 80, 57
1, 511370, Note_on_c, 0, 37, 0
1, 511370, Note_on_c, 0, 88, 69
1, 511370, Note_on_c, 0, 56, 50
1, 511470, Note_on_c, 0, 88, 0
1, 511470, Note_on_c, 0, 80, 0
1, 511470, Note_on_c, 0, 85, 57
1, 511473, Note_on_c, 0, 56, 0
1, 511473, Note_on_c, 0, 92, 69
1, 511538, Control_c, 0, 64, 127
1, 511538, Control_c, 0, 64, 127
1, 511572, Note_on_c, 0, 92, 0
1, 511572, Note_on_c, 0, 85, 0
1, 511572, Note_on_c, 0, 80, 57
1, 511575, Note_on_c, 0, 88, 69
1, 511674, Note_on_c, 0, 88, 0
1, 511674, Note_on_c, 0, 80, 0
1, 511674, Note_on_c, 0, 84, 57
1, 511677, Note_on_c, 0, 92, 76
1, 511677, Note_on_c, 0, 56, 56
1, 511799, Note_on_c, 0, 92, 0
1, 511799, Note_on_c, 0, 84, 0
1, 511799, Note_on_c, 0, 80, 57
1, 511802, Note_on_c, 0, 56, 0
1, 511802, Note_on_c, 0, 87, 69
1, 511802, Note_on_c, 0, 75, 59
1, 511901, Note_on_c, 0, 87, 0
1, 511901, Note_on_c, 0, 80, 0
1, 511901, Note_on_c, 0, 84, 57
1, 511904, Note_on_c, 0, 75, 0
1, 511904, Note_on_c, 0, 92, 69
1, 512003, Note_on_c, 0, 92, 0
1, 512003, Note_on_c, 0, 84, 0
1, 512003, Note_on_c, 0, 80, 57
1, 512006, Note_on_c, 0, 87, 69
1, 512064, Control_c, 0, 64, 0
1, 512064, Control_c, 0, 64, 0
1, 512105, Note_on_c, 0, 87, 0
1, 512105, Note_on_c, 0, 80, 0
1, 512105, Note_on_c, 0, 85, 57
1, 512108, Note_on_c, 0, 92, 76
1, 512108, Note_on_c, 0, 37, 56
1, 512216, Control_c, 0, 64, 127
1, 512216, Control_c, 0, 64, 127
1, 512230, Note_on_c, 0, 92, 0
1, 512230, Note_on_c, 0, 85, 0
1, 512230, Note_on_c, 0, 80, 57
1, 512233, Note_on_c, 0, 37, 0
1, 512233, Note_on_c, 0, 88, 69
1, 512233, Note_on_c, 0, 56, 50
1, 512332, Note_on_c, 0, 88, 0
1, 512332, Note_on_c, 0, 80, 0
1, 512332, Note_on_c, 0, 85, 57
1, 512335, Note_on_c, 0, 56, 0
1, 512335, Note_on_c, 0, 92, 69
1, 512400, Control_c, 0, 64, 127
1, 512400, Control_c, 0, 64, 127
1, 512434, Note_on_c, 0, 92, 0
1, 512434, Note_on_c, 0, 85, 0
1, 512434, Note_on_c, 0, 80, 57
1, 512437, Note_on_c, 0, 88, 69
1, 512536, Note_on_c, 0, 88, 0
1, 512536, Note_on_c, 0, 80, 0
1, 512536, Note_on_c, 0, 84, 57
1, 512539, Note_on_c, 0, 92, 76
1, 512539, Note_on_c, 0, 56, 56
1, 512676, Note_on_c, 0, 92, 0
1, 512676, Note_on_c, 0, 84, 0
1, 512676, Note_on_c, 0, 80, 57
1, 512679, Note_on_c, 0, 56, 0
1, 512679, Note_on_c, 0, 87, 69
1, 512679, Note_on_c, 0, 75, 59
1, 512817, Note_on_c, 0, 87, 0
1, 512817, Note_on_c, 0, 80, 0
1, 512817, Note_on_c, 0, 84, 57
1, 512820, Note_on_c, 0, 75, 0
1, 512820, Note_on_c, 0, 92, 69
1, 512977, Note_on_c, 0, 92, 0
1, 512977, Note_on_c, 0, 84, 0
1, 512977, Note_on_c, 0, 80, 57
1, 512980, Note_on_c, 0, 87, 69
1, 513089, Control_c, 0, 64, 0
1, 513089, Control_c, 0, 64, 0
1, 513165, Note_on_c, 0, 87, 0
1, 513165, Note_on_c, 0, 80, 0
1, 513165, Control_c, 0, 64, 0
1, 513168, Note_on_c, 0, 66, 43
1, 513168, Note_on_c, 0, 72, 55
1, 513168, Control_c, 0, 64, 0
1, 513171, Control_c, 0, 64, 0
1, 513171, Note_on_c, 0, 57, 38
1, 513277, Note_on_c, 0, 69, 44
1, 513277, Note_on_c, 0, 73, 56
1, 513277, Note_on_c, 0, 54, 39
1, 513286, Note_on_c, 0, 57, 0
1, 513286, Note_on_c, 0, 66, 0
1, 513286, Note_on_c, 0, 72, 0
1, 513389, Note_on_c, 0, 66, 45
1, 513389, Note_on_c, 0, 72, 57
1, 513389, Note_on_c, 0, 57, 40
1, 513397, Note_on_c, 0, 69, 0
1, 513397, Note_on_c, 0, 54, 0
1, 513397, Note_on_c, 0, 73, 0
1, 513491, Note_on_c, 0, 69, 47
1, 513491, Note_on_c, 0, 73, 59
1, 513491, Note_on_c, 0, 54, 41
1, 513499, Note_on_c, 0, 66, 0
1, 513499, Note_on_c, 0, 57, 0
1, 513499, Note_on_c, 0, 72, 0
1, 513593, Note_on_c, 0, 71, 48
1, 513593, Note_on_c, 0, 74, 60
1, 513593, Note_on_c, 0, 53, 42
1, 513601, Note_on_c, 0, 69, 0
1, 513601, Note_on_c, 0, 54, 0
1, 513601, Note_on_c, 0, 73, 0
1, 513695, Note_on_c, 0, 73, 61
1, 513695, Note_on_c, 0, 56, 43
1, 513703, Note_on_c, 0, 71, 0
1, 513703, Note_on_c, 0, 53, 0
1, 513703, Note_on_c, 0, 74, 0
1, 513798, Note_on_c, 0, 69, 50
1, 513798, Note_on_c, 0, 74, 62
1, 513798, Note_on_c, 0, 54, 44
1, 513806, Note_on_c, 0, 73, 0
1, 513806, Note_on_c, 0, 56, 0
1, 513900, Note_on_c, 0, 73, 63
1, 513900, Note_on_c, 0, 57, 44
1, 513908, Note_on_c, 0, 74, 0
1, 513908, Note_on_c, 0, 54, 0
1, 513908, Note_on_c, 0, 69, 0
1, 514002, Note_on_c, 0, 73, 0
1, 514002, Control_c, 0, 64, 0
1, 514002, Note_on_c, 0, 69, 52
1, 514005, Note_on_c, 0, 73, 64
1, 514005, Control_c, 0, 64, 0
1, 514005, Control_c, 0, 64, 0
1, 514008, Note_on_c, 0, 55, 45
1, 514011, Note_on_c, 0, 57, 0
1, 514114, Note_on_c, 0, 67, 54
1, 514114, Note_on_c, 0, 71, 66
1, 514114, Note_on_c, 0, 59, 46
1, 514122, Note_on_c, 0, 69, 0
1, 514122, Note_on_c, 0, 55, 0
1, 514122, Note_on_c, 0, 73, 0
1, 514216, Note_on_c, 0, 67, 0
1, 514216, Note_on_c, 0, 71, 0
1, 514216, Note_on_c, 0, 67, 55
1, 514219, Note_on_c, 0, 71, 67
1, 514219, Note_on_c, 0, 57, 47
1, 514224, Note_on_c, 0, 59, 0
1, 514318, Note_on_c, 0, 66, 56
1, 514318, Note_on_c, 0, 69, 68
1, 514318, Note_on_c, 0, 61, 48
1, 514326, Note_on_c, 0, 67, 0
1, 514326, Note_on_c, 0, 57, 0
1, 514326, Note_on_c, 0, 71, 0
1, 514420, Note_on_c, 0, 66, 0
1, 514420, Note_on_c, 0, 69, 0
1, 514420, Note_on_c, 0, 66, 57
1, 514423, Note_on_c, 0, 69, 69
1, 514423, Note_on_c, 0, 59, 49
1, 514428, Note_on_c, 0, 61, 0
1, 514523, Note_on_c, 0, 65, 48
1, 514523, Note_on_c, 0, 68, 62
1, 514523, Note_on_c, 0, 62, 45
1, 514531, Note_on_c, 0, 66, 0
1, 514531, Note_on_c, 0, 59, 0
1, 514531, Note_on_c, 0, 69, 0
1, 514625, Note_on_c, 0, 65, 0
1, 514625, Note_on_c, 0, 68, 0
1, 514625, Note_on_c, 0, 65, 46
1, 514628, Note_on_c, 0, 68, 58
1, 514628, Note_on_c, 0, 57, 42
1, 514633, Note_on_c, 0, 62, 0
1, 514727, Note_on_c, 0, 65, 0
1, 514727, Note_on_c, 0, 68, 0
1, 514727, Note_on_c, 0, 66, 44
1, 514730, Note_on_c, 0, 69, 55
1, 514730, Note_on_c, 0, 61, 38
1, 514737, Note_on_c, 0, 57, 0
1, 514852, Control_c, 0, 64, 0
1, 514852, Note_on_c, 0, 71, 47
1, 514852, Note_on_c, 0, 77, 62
1, 514855, Control_c, 0, 64, 0
1, 514855, Control_c, 0, 64, 0
1, 514855, Note_on_c, 0, 62, 45
1, 514860, Note_on_c, 0, 66, 0
1, 514860, Note_on_c, 0, 61, 0
1, 514860, Note_on_c, 0, 69, 0
1, 514964, Note_on_c, 0, 74, 48
1, 514964, Note_on_c, 0, 78, 63
1, 514964, Note_on_c, 0, 59, 46
1, 514972, Note_on_c, 0, 71, 0
1, 514972, Note_on_c, 0, 62, 0
1, 514972, Note_on_c, 0, 77, 0
1, 515066, Note_on_c, 0, 71, 49
1, 515066, Note_on_c, 0, 77, 64
1, 515066, Note_on_c, 0, 62, 47
1, 515074, Note_on_c, 0, 74, 0
1, 515074, Note_on_c, 0, 59, 0
1, 515074, Note_on_c, 0, 78, 0
1, 515168, Note_on_c, 0, 74, 51
1, 515168, Note_on_c, 0, 78, 66
1, 515168, Note_on_c, 0, 59, 49
1, 515176, Note_on_c, 0, 71, 0
1, 515176, Note_on_c, 0, 62, 0
1, 515176, Note_on_c, 0, 77, 0
1, 515270, Note_on_c, 0, 76, 52
1, 515270, Note_on_c, 0, 79, 67
1, 515270, Note_on_c, 0, 58, 50
1, 515278, Note_on_c, 0, 74, 0
1, 515278, Note_on_c, 0, 59, 0
1, 515278, Note_on_c, 0, 78, 0
1, 515372, Note_on_c, 0, 78, 68
1, 515372, Note_on_c, 0, 61, 51
1, 515380, Note_on_c, 0, 76, 0
1, 515380, Note_on_c, 0, 58, 0
1, 515380, Note_on_c, 0, 79, 0
1, 515474, Note_on_c, 0, 74, 54
1, 515474, Note_on_c, 0, 79, 69
1, 515474, Note_on_c, 0, 59, 52
1, 515482, Note_on_c, 0, 78, 0
1, 515482, Note_on_c, 0, 61, 0
1, 515577, Note_on_c, 0, 78, 70
1, 515577, Note_on_c, 0, 62, 54
1, 515585, Note_on_c, 0, 79, 0
1, 515585, Note_on_c, 0, 59, 0
1, 515585, Note_on_c, 0, 74, 0
1, 515679, Note_on_c, 0, 78, 0
1, 515679, Control_c, 0, 64, 0
1, 515679, Note_on_c, 0, 74, 56
1, 515682, Note_on_c, 0, 78, 71
1, 515682, Control_c, 0, 64, 0
1, 515682, Control_c, 0, 64, 0
1, 515685, Note_on_c, 0, 62, 0
1, 515685, Note_on_c, 0, 60, 55
1, 515781, Note_on_c, 0, 72, 58
1, 515781, Note_on_c, 0, 76, 73
1, 515781, Note_on_c, 0, 64, 56
1, 515789, Note_on_c, 0, 60, 0
1, 515789, Note_on_c, 0, 74, 0
1, 515789, Note_on_c, 0, 78, 0
1, 515883, Note_on_c, 0, 76, 0
1, 515883, Note_on_c, 0, 72, 59
1, 515883, Note_on_c, 0, 76, 74
1, 515886, Note_on_c, 0, 62, 54
1, 515891, Note_on_c, 0, 64, 0
1, 515891, Note_on_c, 0, 72, 0
1, 515985, Note_on_c, 0, 71, 60
1, 515985, Note_on_c, 0, 74, 75
1, 515985, Note_on_c, 0, 66, 52
1, 515993, Note_on_c, 0, 76, 0
1, 515993, Note_on_c, 0, 62, 0
1, 515993, Note_on_c, 0, 72, 0
1, 516087, Note_on_c, 0, 74, 0
1, 516087, Note_on_c, 0, 71, 61
1, 516087, Note_on_c, 0, 74, 76
1, 516090, Note_on_c, 0, 64, 50
1, 516095, Note_on_c, 0, 66, 0
1, 516095, Note_on_c, 0, 71, 0
1, 516189, Note_on_c, 0, 70, 52
1, 516189, Note_on_c, 0, 73, 69
1, 516189, Note_on_c, 0, 67, 49
1, 516197, Note_on_c, 0, 74, 0
1, 516197, Note_on_c, 0, 64, 0
1, 516197, Note_on_c, 0, 71, 0
1, 516291, Note_on_c, 0, 70, 0
1, 516291, Note_on_c, 0, 73, 0
1, 516291, Note_on_c, 0, 70, 50
1, 516294, Note_on_c, 0, 73, 65
1, 516294, Note_on_c, 0, 62, 47
1, 516299, Note_on_c, 0, 67, 0
1, 516393, Note_on_c, 0, 71, 48
1, 516393, Note_on_c, 0, 74, 62
1, 516393, Note_on_c, 0, 66, 45
1, 516401, Note_on_c, 0, 70, 0
1, 516401, Note_on_c, 0, 62, 0
1, 516401, Note_on_c, 0, 73, 0
1, 516496, Note_on_c, 0, 73, 60
1, 516496, Note_on_c, 0, 81, 77
1, 516496, Note_on_c, 0, 55, 53
1, 516508, Note_on_c, 0, 71, 0
1, 516508, Note_on_c, 0, 66, 0
1, 516508, Note_on_c, 0, 74, 0
1, 516531, Control_c, 0, 64, 0
1, 516531, Control_c, 0, 64, 0
1, 516593, Control_c, 0, 64, 127
1, 516593, Control_c, 0, 64, 127
1, 516656, Note_on_c, 0, 71, 60
1, 516656, Note_on_c, 0, 79, 77
1, 516656, Note_on_c, 0, 59, 52
1, 516665, Note_on_c, 0, 73, 0
1, 516665, Note_on_c, 0, 55, 0
1, 516665, Note_on_c, 0, 81, 0
1, 516707, Control_c, 0, 64, 127
1, 516707, Control_c, 0, 64, 127
1, 516768, Note_on_c, 0, 71, 0
1, 516768, Note_on_c, 0, 79, 0
1, 516768, Note_on_c, 0, 71, 59
1, 516771, Note_on_c, 0, 79, 76
1, 516771, Note_on_c, 0, 57, 51
1, 516776, Note_on_c, 0, 59, 0
1, 516793, Control_c, 0, 64, 0
1, 516793, Control_c, 0, 64, 0
1, 516838, Control_c, 0, 64, 127
1, 516838, Control_c, 0, 64, 127
1, 516870, Note_on_c, 0, 69, 58
1, 516870, Note_on_c, 0, 78, 75
1, 516870, Note_on_c, 0, 61, 50
1, 516878, Note_on_c, 0, 71, 0
1, 516878, Note_on_c, 0, 57, 0
1, 516878, Note_on_c, 0, 79, 0
1, 516940, Control_c, 0, 64, 0
1, 516940, Control_c, 0, 64, 0
1, 516973, Note_on_c, 0, 69, 0
1, 516973, Note_on_c, 0, 78, 0
1, 516973, Note_on_c, 0, 69, 57
1, 516976, Note_on_c, 0, 78, 73
1, 516976, Control_c, 0, 64, 127
1, 516976, Note_on_c, 0, 59, 50
1, 516979, Note_on_c, 0, 61, 0
1, 516979, Control_c, 0, 64, 127
1, 517076, Control_c, 0, 64, 0
1, 517076, Control_c, 0, 64, 0
1, 517085, Note_on_c, 0, 68, 57
1, 517085, Note_on_c, 0, 77, 73
1, 517085, Note_on_c, 0, 62, 49
1, 517094, Note_on_c, 0, 69, 0
1, 517094, Note_on_c, 0, 59, 0
1, 517094, Note_on_c, 0, 78, 0
1, 517103, Control_c, 0, 64, 127
1, 517103, Control_c, 0, 64, 127
1, 517197, Note_on_c, 0, 68, 0
1, 517197, Note_on_c, 0, 77, 0
1, 517197, Control_c, 0, 64, 0
1, 517200, Note_on_c, 0, 68, 56
1, 517200, Note_on_c, 0, 77, 72
1, 517200, Control_c, 0, 64, 0
1, 517203, Note_on_c, 0, 57, 48
1, 517206, Note_on_c, 0, 62, 0
1, 517272, Control_c, 0, 64, 127
1, 517272, Control_c, 0, 64, 127
1, 517309, Note_on_c, 0, 69, 55
1, 517309, Note_on_c, 0, 78, 71
1, 517309, Note_on_c, 0, 61, 47
1, 517319, Note_on_c, 0, 68, 0
1, 517319, Note_on_c, 0, 57, 0
1, 517319, Note_on_c, 0, 77, 0
1, 517409, Control_c, 0, 64, 0
1, 517409, Control_c, 0, 64, 0
1, 517434, Note_on_c, 0, 69, 0
1, 517434, Note_on_c, 0, 78, 0
1, 517434, Note_on_c, 0, 69, 57
1, 517437, Note_on_c, 0, 78, 73
1, 517437, Note_on_c, 0, 59, 47
1, 517447, Note_on_c, 0, 61, 0
1, 517525, Control_c, 0, 64, 127
1, 517525, Control_c, 0, 64, 127
1, 517595, Note_on_c, 0, 66, 45
1, 517595, Note_on_c, 0, 74, 61
1, 517595, Note_on_c, 0, 62, 45
1, 517606, Note_on_c, 0, 69, 0
1, 517606, Note_on_c, 0, 59, 0
1, 517606, Note_on_c, 0, 78, 0
1, 517735, Note_on_c, 0, 66, 0
1, 517735, Note_on_c, 0, 74, 0
1, 517735, Control_c, 0, 64, 0
1, 517738, Control_c, 0, 64, 0
1, 517738, Note_on_c, 0, 59, 43
1, 517745, Note_on_c, 0, 62, 0
1, 517867, Note_on_c, 0, 62, 40
1, 517878, Note_on_c, 0, 59, 0
1, 517999, Note_on_c, 0, 65, 53
1, 517999, Note_on_c, 0, 73, 69
1, 517999, Note_on_c, 0, 49, 47
1, 518013, Note_on_c, 0, 62, 0
1, 518068, Control_c, 0, 64, 127
1, 518068, Control_c, 0, 64, 127
1, 518172, Note_on_c, 0, 61, 35
1, 518172, Note_on_c, 0, 68, 51
1, 518172, Note_on_c, 0, 59, 45
1, 518185, Note_on_c, 0, 65, 0
1, 518185, Note_on_c, 0, 49, 0
1, 518185, Note_on_c, 0, 73, 0
1, 518333, Note_on_c, 0, 61, 0
1, 518333, Note_on_c, 0, 68, 0
1, 518333, Control_c, 0, 64, 0
1, 518336, Control_c, 0, 64, 0
1, 518336, Note_on_c, 0, 49, 43
1, 518344, Note_on_c, 0, 59, 0
1, 518473, Note_on_c, 0, 59, 40
1, 518484, Note_on_c, 0, 49, 0
1, 518613, Note_on_c, 0, 66, 50
1, 518613, Note_on_c, 0, 71, 62
1, 518613, Note_on_c, 0, 42, 40
1, 518616, Note_on_c, 0, 49, 40
1, 518633, Note_on_c, 0, 59, 0
1, 518712, Control_c, 0, 64, 127
1, 518712, Control_c, 0, 64, 127
1, 518863, Note_on_c, 0, 61, 32
1, 518863, Note_on_c, 0, 69, 44
1, 518863, Note_on_c, 0, 57, 33
1, 518883, Note_on_c, 0, 42, 0
1, 518883, Note_on_c, 0, 66, 0
1, 518883, Note_on_c, 0, 71, 0
1, 518886, Note_on_c, 0, 49, 0
1, 518977, Control_c, 0, 64, 0
1, 518977, Control_c, 0, 64, 0
1, 519113, Note_on_c, 0, 57, 0
1, 519113, Note_on_c, 0, 69, 0
1, 519113, Note_on_c, 0, 61, 0
1, 521109, Note_on_c, 0, 73, 72
1, 521109, Note_on_c, 0, 42, 50
1, 521337, Control_c, 0, 64, 127
1, 521337, Control_c, 0, 64, 127
1, 521337, Control_c, 0, 64, 127
1, 521359, Note_on_c, 0, 42, 0
1, 521359, Note_on_c, 0, 49, 42
1, 521584, Note_on_c, 0, 49, 0
1, 521584, Note_on_c, 0, 54, 44
1, 521771, Note_on_c, 0, 54, 0
1, 521771, Note_on_c, 0, 74, 67
1, 521771, Note_on_c, 0, 57, 46
1, 521787, Note_on_c, 0, 73, 0
1, 521975, Note_on_c, 0, 57, 0
1, 521975, Note_on_c, 0, 73, 66
1, 521975, Note_on_c, 0, 61, 49
1, 521989, Note_on_c, 0, 74, 0
1, 522148, Note_on_c, 0, 61, 0
1, 522148, Note_on_c, 0, 66, 51
1, 522319, Note_on_c, 0, 66, 0
1, 522319, Control_c, 0, 64, 127
1, 522319, Control_c, 0, 64, 127
1, 522319, Control_c, 0, 64, 127
1, 522319, Note_on_c, 0, 69, 53
1, 522334, Note_on_c, 0, 73, 0
1, 522494, Note_on_c, 0, 69, 0
1, 522494, Note_on_c, 0, 66, 51
1, 522666, Note_on_c, 0, 66, 0
1, 522666, Note_on_c, 0, 73, 71
1, 522666, Note_on_c, 0, 61, 49
1, 522871, Note_on_c, 0, 61, 0
1, 522871, Note_on_c, 0, 57, 46
1, 523075, Note_on_c, 0, 57, 0
1, 523075, Note_on_c, 0, 73, 0
1, 523075, Note_on_c, 0, 73, 71
1, 523078, Note_on_c, 0, 54, 44
1, 523262, Note_on_c, 0, 54, 0
1, 523262, Note_on_c, 0, 49, 42
1, 523283, Control_c, 0, 64, 127
1, 523465, Note_on_c, 0, 49, 0
1, 523465, Note_on_c, 0, 73, 0
1, 523465, Control_c, 0, 64, 127
1, 523465, Note_on_c, 0, 74, 72
1, 523465, Note_on_c, 0, 73, 58
1, 523465, Control_c, 0, 64, 127
1, 523465, Control_c, 0, 64, 127
1, 523465, Note_on_c, 0, 38, 50
1, 523568, Control_c, 0, 64, 0
1, 523568, Control_c, 0, 64, 0
1, 523568, Control_c, 0, 64, 0
1, 523613, Control_c, 0, 64, 127
1, 523613, Control_c, 0, 64, 127
1, 523670, Note_on_c, 0, 38, 0
1, 523670, Note_on_c, 0, 47, 42
1, 523843, Note_on_c, 0, 47, 0
1, 523843, Note_on_c, 0, 50, 44
1, 524016, Note_on_c, 0, 50, 0
1, 524016, Note_on_c, 0, 76, 68
1, 524016, Note_on_c, 0, 54, 46
1, 524032, Note_on_c, 0, 74, 0
1, 524220, Note_on_c, 0, 54, 0
1, 524220, Note_on_c, 0, 71, 66
1, 524220, Note_on_c, 0, 74, 66
1, 524223, Note_on_c, 0, 59, 49
1, 524236, Note_on_c, 0, 76, 0
1, 524236, Note_on_c, 0, 73, 0
1, 524424, Note_on_c, 0, 59, 0
1, 524424, Note_on_c, 0, 62, 51
1, 524629, Note_on_c, 0, 62, 0
1, 524629, Control_c, 0, 64, 127
1, 524629, Control_c, 0, 64, 127
1, 524632, Note_on_c, 0, 66, 53
1, 524645, Note_on_c, 0, 71, 0
1, 524645, Note_on_c, 0, 74, 0
1, 524833, Note_on_c, 0, 62, 51
1, 524848, Note_on_c, 0, 66, 0
1, 524990, Control_c, 0, 64, 0
1, 524990, Control_c, 0, 64, 0
1, 525020, Note_on_c, 0, 69, 70
1, 525020, Note_on_c, 0, 74, 61
1, 525020, Note_on_c, 0, 59, 49
1, 525035, Note_on_c, 0, 62, 0
1, 525125, Control_c, 0, 64, 127
1, 525125, Control_c, 0, 64, 127
1, 525207, Note_on_c, 0, 54, 46
1, 525221, Note_on_c, 0, 59, 0
1, 525380, Note_on_c, 0, 74, 0
1, 525380, Note_on_c, 0, 68, 70
1, 525380, Note_on_c, 0, 74, 61
1, 525383, Note_on_c, 0, 50, 44
1, 525394, Note_on_c, 0, 69, 0
1, 525394, Note_on_c, 0, 54, 0
1, 525553, Note_on_c, 0, 47, 42
1, 525570, Note_on_c, 0, 50, 0
1, 525736, Control_c, 0, 64, 0
1, 525736, Control_c, 0, 64, 0
1, 525778, Note_on_c, 0, 74, 0
1, 525778, Control_c, 0, 64, 127
1, 525778, Note_on_c, 0, 66, 70
1, 525781, Note_on_c, 0, 74, 70
1, 525781, Control_c, 0, 64, 127
1, 525781, Control_c, 0, 64, 0
1, 525784, Note_on_c, 0, 37, 50
1, 525797, Note_on_c, 0, 68, 0
1, 525797, Note_on_c, 0, 47, 0
1, 525872, Control_c, 0, 64, 0
1, 525872, Control_c, 0, 64, 0
1, 526005, Control_c, 0, 64, 127
1, 526005, Control_c, 0, 64, 127
1, 526027, Note_on_c, 0, 44, 42
1, 526252, Note_on_c, 0, 49, 44
1, 526439, Note_on_c, 0, 56, 46
1, 526626, Note_on_c, 0, 65, 55
1, 526626, Note_on_c, 0, 73, 55
1, 526626, Note_on_c, 0, 61, 49
1, 526640, Note_on_c, 0, 74, 0
1, 526640, Note_on_c, 0, 66, 0
1, 526657, Control_c, 0, 64, 0
1, 526657, Control_c, 0, 64, 0
1, 526762, Control_c, 0, 64, 127
1, 526762, Control_c, 0, 64, 127
1, 526799, Note_on_c, 0, 61, 0
1, 526799, Note_on_c, 0, 65, 43
1, 526972, Note_on_c, 0, 73, 0
1, 526972, Note_on_c, 0, 65, 0
1, 526972, Control_c, 0, 64, 127
1, 526975, Note_on_c, 0, 49, 0
1, 526975, Note_on_c, 0, 44, 0
1, 526975, Control_c, 0, 64, 127
1, 526978, Note_on_c, 0, 56, 0
1, 526978, Note_on_c, 0, 65, 0
1, 526978, Note_on_c, 0, 68, 53
1, 527145, Note_on_c, 0, 68, 0
1, 527145, Note_on_c, 0, 37, 0
1, 527145, Note_on_c, 0, 65, 51
1, 527317, Note_on_c, 0, 65, 0
1, 527317, Note_on_c, 0, 71, 72
1, 527317, Note_on_c, 0, 61, 49
1, 527490, Note_on_c, 0, 61, 0
1, 527490, Note_on_c, 0, 56, 46
1, 527663, Note_on_c, 0, 56, 0
1, 527663, Note_on_c, 0, 69, 67
1, 527663, Note_on_c, 0, 53, 44
1, 527676, Note_on_c, 0, 71, 0
1, 527836, Note_on_c, 0, 53, 0
1, 527836, Note_on_c, 0, 49, 42
1, 528040, Control_c, 0, 64, 127
1, 528040, Note_on_c, 0, 73, 68
1, 528040, Note_on_c, 0, 68, 55
1, 528043, Note_on_c, 0, 49, 0
1, 528043, Control_c, 0, 64, 127
1, 528043, Control_c, 0, 64, 0
1, 528046, Note_on_c, 0, 42, 50
1, 528056, Note_on_c, 0, 69, 0
1, 528112, Control_c, 0, 64, 0
1, 528112, Control_c, 0, 64, 0
1, 528171, Control_c, 0, 64, 0
1, 528171, Control_c, 0, 64, 0
1, 528244, Note_on_c, 0, 49, 42
1, 528306, Control_c, 0, 64, 127
1, 528306, Control_c, 0, 64, 127
1, 528417, Note_on_c, 0, 49, 0
1, 528417, Note_on_c, 0, 42, 0
1, 528417, Note_on_c, 0, 54, 44
1, 528590, Note_on_c, 0, 54, 0
1, 528590, Note_on_c, 0, 73, 0
1, 528590, Note_on_c, 0, 74, 60
1, 528593, Note_on_c, 0, 57, 46
1, 528763, Note_on_c, 0, 74, 0
1, 528763, Note_on_c, 0, 68, 0
1, 528763, Note_on_c, 0, 66, 63
1, 528766, Note_on_c, 0, 57, 0
1, 528766, Note_on_c, 0, 73, 58
1, 528766, Note_on_c, 0, 61, 49
1, 528950, Note_on_c, 0, 66, 42
1, 529174, Note_on_c, 0, 73, 0
1, 529174, Note_on_c, 0, 66, 0
1, 529174, Control_c, 0, 64, 127
1, 529177, Control_c, 0, 64, 127
1, 529177, Control_c, 0, 64, 0
1, 529177, Note_on_c, 0, 58, 53
1, 529180, Note_on_c, 0, 70, 46
1, 529269, Control_c, 0, 64, 0
1, 529269, Control_c, 0, 64, 0
1, 529402, Control_c, 0, 64, 127
1, 529402, Control_c, 0, 64, 127
1, 529424, Note_on_c, 0, 61, 0
1, 529424, Note_on_c, 0, 66, 0
1, 529424, Note_on_c, 0, 64, 51
1, 529440, Note_on_c, 0, 58, 0
1, 529440, Note_on_c, 0, 70, 0
1, 529628, Note_on_c, 0, 72, 69
1, 529628, Note_on_c, 0, 61, 49
1, 529644, Note_on_c, 0, 64, 0
1, 529832, Note_on_c, 0, 73, 72
1, 529832, Note_on_c, 0, 58, 46
1, 529847, Note_on_c, 0, 61, 0
1, 529847, Note_on_c, 0, 72, 0
1, 529985, Control_c, 0, 64, 0
1, 529985, Control_c, 0, 64, 0
1, 530020, Note_on_c, 0, 79, 73
1, 530020, Note_on_c, 0, 52, 44
1, 530036, Note_on_c, 0, 73, 0
1, 530036, Note_on_c, 0, 58, 0
1, 530202, Control_c, 0, 64, 127
1, 530202, Control_c, 0, 64, 127
1, 530224, Note_on_c, 0, 78, 73
1, 530224, Note_on_c, 0, 46, 42
1, 530241, Note_on_c, 0, 79, 0
1, 530241, Note_on_c, 0, 52, 0
1, 530449, Note_on_c, 0, 78, 0
1, 530449, Control_c, 0, 64, 127
1, 530449, Note_on_c, 0, 74, 68
1, 530452, Note_on_c, 0, 78, 74
1, 530452, Control_c, 0, 64, 127
1, 530452, Control_c, 0, 64, 0
1, 530455, Note_on_c, 0, 35, 50
1, 530466, Note_on_c, 0, 46, 0
1, 530519, Control_c, 0, 64, 0
1, 530519, Control_c, 0, 64, 0
1, 530561, Control_c, 0, 64, 0
1, 530561, Control_c, 0, 64, 0
1, 530653, Control_c, 0, 64, 127
1, 530653, Control_c, 0, 64, 127
1, 530664, Control_c, 0, 64, 127
1, 530664, Control_c, 0, 64, 127
1, 530673, Note_on_c, 0, 35, 0
1, 530673, Note_on_c, 0, 42, 42
1, 530860, Note_on_c, 0, 42, 0
1, 530860, Note_on_c, 0, 71, 62
1, 530860, Note_on_c, 0, 47, 44
1, 530875, Note_on_c, 0, 78, 0
1, 531048, Note_on_c, 0, 47, 0
1, 531048, Note_on_c, 0, 76, 69
1, 531048, Note_on_c, 0, 54, 46
1, 531065, Note_on_c, 0, 74, 0
1, 531272, Note_on_c, 0, 54, 0
1, 531272, Note_on_c, 0, 74, 69
1, 531272, Note_on_c, 0, 59, 49
1, 531286, Note_on_c, 0, 76, 0
1, 531286, Note_on_c, 0, 71, 0
1, 531445, Note_on_c, 0, 59, 0
1, 531445, Note_on_c, 0, 62, 51
1, 531618, Note_on_c, 0, 62, 0
1, 531618, Control_c, 0, 64, 127
1, 531618, Control_c, 0, 64, 127
1, 531621, Note_on_c, 0, 66, 53
1, 531631, Note_on_c, 0, 74, 0
1, 531791, Note_on_c, 0, 62, 51
1, 531804, Note_on_c, 0, 66, 0
1, 531963, Note_on_c, 0, 73, 74
1, 531963, Note_on_c, 0, 68, 62
1, 531963, Note_on_c, 0, 59, 49
1, 531981, Note_on_c, 0, 62, 0
1, 532188, Note_on_c, 0, 74, 74
1, 532188, Note_on_c, 0, 54, 46
1, 532204, Note_on_c, 0, 73, 0
1, 532204, Note_on_c, 0, 59, 0
1, 532392, Note_on_c, 0, 66, 67
1, 532392, Note_on_c, 0, 81, 75
1, 532392, Note_on_c, 0, 50, 44
1, 532414, Note_on_c, 0, 74, 0
1, 532414, Note_on_c, 0, 54, 0
1, 532414, Note_on_c, 0, 68, 0
1, 532673, Note_on_c, 0, 80, 74
1, 532673, Note_on_c, 0, 47, 42
1, 532695, Note_on_c, 0, 50, 0
1, 532695, Note_on_c, 0, 81, 0
1, 532861, Note_on_c, 0, 80, 0
1, 532861, Note_on_c, 0, 64, 61
1, 532954, Control_c, 0, 64, 127
1, 532954, Note_on_c, 0, 80, 72
1, 532954, Control_c, 0, 64, 127
1, 532957, Control_c, 0, 64, 0
1, 532957, Note_on_c, 0, 40, 47
1, 532971, Note_on_c, 0, 47, 0
1, 532971, Note_on_c, 0, 66, 0
1, 533066, Control_c, 0, 64, 0
1, 533066, Control_c, 0, 64, 0
1, 533098, Control_c, 0, 64, 0
1, 533098, Control_c, 0, 64, 0
1, 533179, Note_on_c, 0, 40, 0
1, 533179, Note_on_c, 0, 44, 40
1, 533219, Control_c, 0, 64, 127
1, 533219, Control_c, 0, 64, 127
1, 533383, Note_on_c, 0, 44, 0
1, 533383, Note_on_c, 0, 74, 64
1, 533383, Note_on_c, 0, 50, 42
1, 533397, Note_on_c, 0, 80, 0
1, 533570, Note_on_c, 0, 50, 0
1, 533570, Note_on_c, 0, 52, 45
1, 533757, Note_on_c, 0, 52, 0
1, 533757, Note_on_c, 0, 62, 58
1, 533757, Note_on_c, 0, 56, 48
1, 533772, Note_on_c, 0, 74, 0
1, 533772, Note_on_c, 0, 64, 0
1, 533944, Note_on_c, 0, 56, 0
1, 533944, Note_on_c, 0, 59, 50
1, 534132, Note_on_c, 0, 62, 0
1, 534132, Control_c, 0, 64, 127
1, 534132, Control_c, 0, 64, 127
1, 534135, Note_on_c, 0, 59, 0
1, 534135, Note_on_c, 0, 64, 53
1, 534319, Note_on_c, 0, 64, 0
1, 534319, Note_on_c, 0, 62, 51
1, 534506, Note_on_c, 0, 62, 0
1, 534506, Note_on_c, 0, 69, 65
1, 534506, Note_on_c, 0, 59, 49
1, 534693, Note_on_c, 0, 59, 0
1, 534693, Note_on_c, 0, 52, 46
1, 534880, Note_on_c, 0, 52, 0
1, 534880, Note_on_c, 0, 68, 60
1, 534880, Note_on_c, 0, 50, 44
1, 534895, Note_on_c, 0, 69, 0
1, 535068, Note_on_c, 0, 50, 0
1, 535068, Note_on_c, 0, 47, 42
1, 535272, Control_c, 0, 64, 127
1, 535272, Note_on_c, 0, 73, 66
1, 535272, Note_on_c, 0, 66, 55
1, 535275, Note_on_c, 0, 47, 0
1, 535275, Control_c, 0, 64, 127
1, 535275, Control_c, 0, 64, 0
1, 535278, Note_on_c, 0, 45, 50
1, 535288, Note_on_c, 0, 68, 0
1, 535370, Control_c, 0, 64, 0
1, 535370, Control_c, 0, 64, 0
1, 535419, Control_c, 0, 64, 0
1, 535419, Control_c, 0, 64, 0
1, 535476, Note_on_c, 0, 52, 42
1, 535527, Control_c, 0, 64, 127
1, 535527, Control_c, 0, 64, 127
1, 535663, Note_on_c, 0, 57, 44
1, 535850, Note_on_c, 0, 74, 58
1, 535850, Note_on_c, 0, 61, 46
1, 535865, Note_on_c, 0, 73, 0
1, 536038, Note_on_c, 0, 64, 50
1, 536038, Note_on_c, 0, 73, 56
1, 536038, Note_on_c, 0, 64, 49
1, 536051, Note_on_c, 0, 66, 0
1, 536051, Note_on_c, 0, 74, 0
1, 536079, Control_c, 0, 64, 0
1, 536079, Control_c, 0, 64, 0
1, 536189, Control_c, 0, 64, 127
1, 536189, Control_c, 0, 64, 127
1, 536210, Note_on_c, 0, 69, 51
1, 536383, Note_on_c, 0, 45, 0
1, 536383, Control_c, 0, 64, 127
1, 536383, Control_c, 0, 64, 127
1, 536386, Note_on_c, 0, 61, 0
1, 536386, Note_on_c, 0, 52, 0
1, 536386, Note_on_c, 0, 57, 0
1, 536389, Note_on_c, 0, 69, 0
1, 536389, Note_on_c, 0, 64, 0
1, 536389, Note_on_c, 0, 73, 53
1, 536399, Note_on_c, 0, 73, 0
1, 536399, Note_on_c, 0, 64, 0
1, 536587, Note_on_c, 0, 69, 51
1, 536603, Note_on_c, 0, 73, 0
1, 536792, Note_on_c, 0, 72, 72
1, 536792, Note_on_c, 0, 64, 49
1, 536805, Note_on_c, 0, 69, 0
1, 536964, Note_on_c, 0, 61, 46
1, 536978, Note_on_c, 0, 64, 0
1, 537137, Note_on_c, 0, 73, 73
1, 537137, Note_on_c, 0, 57, 44
1, 537151, Note_on_c, 0, 61, 0
1, 537151, Note_on_c, 0, 72, 0
1, 537310, Note_on_c, 0, 52, 42
1, 537324, Note_on_c, 0, 57, 0
1, 537483, Control_c, 0, 64, 127
1, 537483, Note_on_c, 0, 74, 73
1, 537483, Note_on_c, 0, 79, 80
1, 537486, Control_c, 0, 64, 127
1, 537486, Control_c, 0, 64, 0
1, 537486, Note_on_c, 0, 47, 50
1, 537499, Note_on_c, 0, 52, 0
1, 537499, Note_on_c, 0, 73, 0
1, 537598, Control_c, 0, 64, 0
1, 537598, Control_c, 0, 64, 0
1, 537669, Control_c, 0, 64, 127
1, 537669, Control_c, 0, 64, 0
1, 537669, Control_c, 0, 64, 127
1, 537669, Control_c, 0, 64, 0
1, 537687, Note_on_c, 0, 50, 42
1, 537771, Control_c, 0, 64, 127
1, 537771, Control_c, 0, 64, 127
1, 537891, Note_on_c, 0, 50, 0
1, 537891, Note_on_c, 0, 47, 0
1, 537891, Note_on_c, 0, 55, 44
1, 538078, Note_on_c, 0, 55, 0
1, 538078, Note_on_c, 0, 76, 68
1, 538078, Note_on_c, 0, 59, 46
1, 538093, Note_on_c, 0, 74, 0
1, 538266, Note_on_c, 0, 59, 0
1, 538266, Note_on_c, 0, 74, 66
1, 538266, Note_on_c, 0, 62, 50
1, 538279, Note_on_c, 0, 76, 0
1, 538438, Note_on_c, 0, 62, 0
1, 538438, Note_on_c, 0, 67, 52
1, 538611, Note_on_c, 0, 67, 0
1, 538611, Control_c, 0, 64, 127
1, 538611, Control_c, 0, 64, 127
1, 538614, Note_on_c, 0, 71, 54
1, 538625, Note_on_c, 0, 74, 0
1, 538625, Note_on_c, 0, 79, 0
1, 538784, Note_on_c, 0, 71, 0
1, 538784, Note_on_c, 0, 67, 52
1, 538957, Note_on_c, 0, 67, 0
1, 538957, Note_on_c, 0, 73, 73
1, 538957, Note_on_c, 0, 62, 50
1, 539130, Note_on_c, 0, 62, 0
1, 539130, Note_on_c, 0, 59, 48
1, 539302, Note_on_c, 0, 59, 0
1, 539302, Note_on_c, 0, 74, 75
1, 539302, Note_on_c, 0, 55, 46
1, 539316, Note_on_c, 0, 73, 0
1, 539475, Note_on_c, 0, 55, 0
1, 539475, Note_on_c, 0, 50, 44
1, 539648, Control_c, 0, 64, 127
1, 539648, Note_on_c, 0, 81, 69
1, 539648, Note_on_c, 0, 76, 83
1, 539651, Note_on_c, 0, 50, 0
1, 539651, Control_c, 0, 64, 127
1, 539651, Control_c, 0, 64, 127
1, 539654, Note_on_c, 0, 49, 53
1, 539663, Note_on_c, 0, 74, 0
1, 539738, Control_c, 0, 64, 0
1, 539738, Control_c, 0, 64, 0
1, 539738, Control_c, 0, 64, 0
1, 539835, Note_on_c, 0, 49, 0
1, 539835, Note_on_c, 0, 52, 45
1, 539842, Control_c, 0, 64, 127
1, 539842, Control_c, 0, 64, 127
1, 539842, Control_c, 0, 64, 127
1, 540008, Note_on_c, 0, 52, 0
1, 540008, Note_on_c, 0, 57, 47
1, 540181, Note_on_c, 0, 57, 0
1, 540181, Note_on_c, 0, 78, 74
1, 540181, Note_on_c, 0, 61, 50
1, 540193, Note_on_c, 0, 76, 0
1, 540341, Note_on_c, 0, 61, 0
1, 540341, Note_on_c, 0, 76, 74
1, 540341, Note_on_c, 0, 64, 54
1, 540354, Note_on_c, 0, 78, 0
1, 540502, Note_on_c, 0, 64, 0
1, 540502, Note_on_c, 0, 69, 57
1, 540662, Note_on_c, 0, 69, 0
1, 540662, Control_c, 0, 64, 127
1, 540662, Control_c, 0, 64, 127
1, 540665, Note_on_c, 0, 73, 60
1, 540677, Note_on_c, 0, 76, 0
1, 540677, Note_on_c, 0, 81, 0
1, 540849, Note_on_c, 0, 73, 0
1, 540849, Note_on_c, 0, 69, 58
1, 541010, Note_on_c, 0, 69, 0
1, 541010, Note_on_c, 0, 75, 78
1, 541010, Note_on_c, 0, 64, 56
1, 541170, Note_on_c, 0, 64, 0
1, 541170, Note_on_c, 0, 61, 52
1, 541331, Note_on_c, 0, 61, 0
1, 541331, Note_on_c, 0, 76, 80
1, 541331, Note_on_c, 0, 57, 50
1, 541343, Note_on_c, 0, 75, 0
1, 541491, Note_on_c, 0, 57, 0
1, 541491, Note_on_c, 0, 52, 48
1, 541652, Control_c, 0, 64, 127
1, 541652, Note_on_c, 0, 83, 74
1, 541652, Note_on_c, 0, 77, 83
1, 541655, Note_on_c, 0, 52, 0
1, 541655, Control_c, 0, 64, 127
1, 541655, Control_c, 0, 64, 127
1, 541658, Note_on_c, 0, 50, 59
1, 541666, Note_on_c, 0, 76, 0
1, 541729, Control_c, 0, 64, 0
1, 541729, Control_c, 0, 64, 0
1, 541729, Control_c, 0, 64, 0
1, 541839, Note_on_c, 0, 50, 0
1, 541839, Note_on_c, 0, 53, 48
1, 541890, Control_c, 0, 64, 127
1, 541890, Control_c, 0, 64, 127
1, 541890, Control_c, 0, 64, 127
1, 542026, Note_on_c, 0, 53, 0
1, 542026, Note_on_c, 0, 56, 52
1, 542187, Note_on_c, 0, 56, 0
1, 542187, Note_on_c, 0, 79, 79
1, 542187, Note_on_c, 0, 62, 55
1, 542199, Note_on_c, 0, 77, 0
1, 542347, Note_on_c, 0, 62, 0
1, 542347, Note_on_c, 0, 77, 80
1, 542347, Note_on_c, 0, 65, 59
1, 542360, Note_on_c, 0, 79, 0
1, 542507, Note_on_c, 0, 65, 0
1, 542507, Note_on_c, 0, 68, 63
1, 542668, Note_on_c, 0, 68, 0
1, 542668, Control_c, 0, 64, 127
1, 542668, Control_c, 0, 64, 127
1, 542671, Note_on_c, 0, 74, 66
1, 542683, Note_on_c, 0, 77, 0
1, 542855, Note_on_c, 0, 74, 0
1, 542855, Note_on_c, 0, 68, 64
1, 543042, Note_on_c, 0, 68, 0
1, 543042, Note_on_c, 0, 76, 86
1, 543042, Note_on_c, 0, 65, 61
1, 543215, Note_on_c, 0, 65, 0
1, 543215, Note_on_c, 0, 62, 57
1, 543419, Note_on_c, 0, 62, 0
1, 543419, Note_on_c, 0, 71, 61
1, 543419, Note_on_c, 0, 77, 86
1, 543422, Note_on_c, 0, 56, 55
1, 543437, Note_on_c, 0, 76, 0
1, 543437, Note_on_c, 0, 83, 0
1, 543499, Control_c, 0, 64, 0
1, 543499, Control_c, 0, 64, 0
1, 543644, Note_on_c, 0, 53, 52
1, 543698, Control_c, 0, 64, 127
1, 543698, Control_c, 0, 64, 127
1, 543894, Control_c, 0, 64, 127
1, 543894, Note_on_c, 0, 85, 83
1, 543894, Control_c, 0, 64, 127
1, 543897, Note_on_c, 0, 49, 70
1, 544143, Note_on_c, 0, 56, 52
1, 544281, Note_on_c, 0, 56, 0
1, 544330, Note_on_c, 0, 49, 0
1, 544330, Note_on_c, 0, 56, 0
1, 544330, Note_on_c, 0, 59, 56
1, 544457, Note_on_c, 0, 53, 0
1, 544503, Note_on_c, 0, 59, 0
1, 544503, Note_on_c, 0, 65, 61
1, 544676, Note_on_c, 0, 65, 0
1, 544676, Note_on_c, 0, 68, 65
1, 544849, Note_on_c, 0, 68, 0
1, 544849, Note_on_c, 0, 71, 68
1, 545098, Note_on_c, 0, 77, 0
1, 545098, Note_on_c, 0, 71, 0
1, 545098, Control_c, 0, 64, 127
1, 545101, Note_on_c, 0, 71, 0
1, 545101, Control_c, 0, 64, 127
1, 545101, Note_on_c, 0, 77, 66
1, 545323, Note_on_c, 0, 77, 0
1, 545323, Note_on_c, 0, 71, 67
1, 545510, Note_on_c, 0, 71, 0
1, 545510, Note_on_c, 0, 68, 60
1, 545714, Note_on_c, 0, 68, 0
1, 545714, Note_on_c, 0, 65, 55
1, 545939, Note_on_c, 0, 65, 0
1, 545939, Note_on_c, 0, 85, 0
1, 545939, Note_on_c, 0, 73, 70
1, 545942, Note_on_c, 0, 59, 49
1, 546189, Note_on_c, 0, 59, 0
1, 546189, Note_on_c, 0, 56, 44
1, 546462, Control_c, 0, 64, 127
1, 546466, Control_c, 0, 64, 127
1, 546466, Control_c, 0, 64, 0
1, 546469, Note_on_c, 0, 56, 0
1, 546469, Note_on_c, 0, 73, 0
1, 546469, Note_on_c, 0, 46, 55
1, 546495, Control_c, 0, 64, 127
1, 546495, Control_c, 0, 64, 127
1, 546495, Control_c, 0, 64, 127
1, 546528, Note_on_c, 0, 73, 69
1, 546594, Control_c, 0, 64, 0
1, 546594, Control_c, 0, 64, 0
1, 546594, Control_c, 0, 64, 0
1, 546719, Control_c, 0, 64, 127
1, 546719, Control_c, 0, 64, 127
1, 546719, Control_c, 0, 64, 127
1, 546722, Note_on_c, 0, 52, 42
1, 546944, Note_on_c, 0, 52, 0
1, 546944, Note_on_c, 0, 46, 0
1, 546944, Note_on_c, 0, 55, 44
1, 547131, Note_on_c, 0, 55, 0
1, 547131, Note_on_c, 0, 74, 64
1, 547131, Note_on_c, 0, 58, 46
1, 547147, Note_on_c, 0, 73, 0
1, 547335, Note_on_c, 0, 58, 0
1, 547335, Note_on_c, 0, 73, 63
1, 547335, Note_on_c, 0, 61, 49
1, 547349, Note_on_c, 0, 74, 0
1, 547508, Note_on_c, 0, 61, 0
1, 547508, Note_on_c, 0, 64, 51
1, 547681, Note_on_c, 0, 64, 0
1, 547681, Control_c, 0, 64, 127
1, 547681, Control_c, 0, 64, 127
1, 547684, Note_on_c, 0, 67, 53
1, 547694, Note_on_c, 0, 73, 0
1, 547854, Note_on_c, 0, 67, 0
1, 547854, Note_on_c, 0, 64, 51
1, 548026, Note_on_c, 0, 64, 0
1, 548026, Note_on_c, 0, 73, 70
1, 548026, Note_on_c, 0, 61, 49
1, 548199, Note_on_c, 0, 61, 0
1, 548199, Note_on_c, 0, 58, 46
1, 548372, Note_on_c, 0, 58, 0
1, 548372, Note_on_c, 0, 73, 0
1, 548372, Note_on_c, 0, 73, 70
1, 548375, Note_on_c, 0, 55, 44
1, 548576, Note_on_c, 0, 55, 0
1, 548576, Note_on_c, 0, 52, 42
1, 548826, Note_on_c, 0, 73, 0
1, 548826, Control_c, 0, 64, 127
1, 548826, Note_on_c, 0, 73, 67
1, 548829, Note_on_c, 0, 74, 61
1, 548829, Control_c, 0, 64, 127
1, 548829, Control_c, 0, 64, 127
1, 548832, Note_on_c, 0, 52, 0
1, 548832, Note_on_c, 0, 47, 50
1, 548951, Control_c, 0, 64, 0
1, 548951, Control_c, 0, 64, 0
1, 548951, Control_c, 0, 64, 0
1, 549053, Control_c, 0, 64, 127
1, 549053, Control_c, 0, 64, 127
1, 549053, Control_c, 0, 64, 127
1, 549075, Note_on_c, 0, 47, 0
1, 549075, Note_on_c, 0, 54, 42
1, 549248, Note_on_c, 0, 54, 0
1, 549248, Note_on_c, 0, 59, 44
1, 549421, Note_on_c, 0, 59, 0
1, 549421, Note_on_c, 0, 76, 70
1, 549421, Note_on_c, 0, 62, 46
1, 549434, Note_on_c, 0, 74, 0
1, 549594, Note_on_c, 0, 76, 0
1, 549594, Note_on_c, 0, 74, 66
1, 549594, Note_on_c, 0, 71, 57
1, 549597, Note_on_c, 0, 62, 0
1, 549597, Note_on_c, 0, 66, 49
1, 549607, Note_on_c, 0, 73, 0
1, 549767, Note_on_c, 0, 66, 0
1, 549767, Note_on_c, 0, 71, 51
1, 549939, Note_on_c, 0, 71, 0
1, 549939, Control_c, 0, 64, 127
1, 549939, Control_c, 0, 64, 127
1, 549942, Note_on_c, 0, 74, 53
1, 549955, Note_on_c, 0, 74, 0
1, 549955, Note_on_c, 0, 71, 0
1, 550144, Note_on_c, 0, 74, 0
1, 550144, Note_on_c, 0, 71, 51
1, 550331, Note_on_c, 0, 71, 0
1, 550331, Note_on_c, 0, 69, 70
1, 550331, Note_on_c, 0, 74, 61
1, 550334, Note_on_c, 0, 66, 49
1, 550518, Note_on_c, 0, 66, 0
1, 550518, Note_on_c, 0, 62, 46
1, 550705, Note_on_c, 0, 74, 0
1, 550705, Note_on_c, 0, 68, 70
1, 550705, Note_on_c, 0, 74, 61
1, 550708, Note_on_c, 0, 62, 0
1, 550708, Note_on_c, 0, 59, 44
1, 550721, Note_on_c, 0, 69, 0
1, 550909, Note_on_c, 0, 59, 0
1, 550909, Note_on_c, 0, 54, 42
1, 551114, Note_on_c, 0, 74, 0
1, 551114, Control_c, 0, 64, 127
1, 551114, Note_on_c, 0, 66, 70
1, 551117, Note_on_c, 0, 74, 70
1, 551117, Control_c, 0, 64, 127
1, 551117, Control_c, 0, 64, 127
1, 551120, Note_on_c, 0, 54, 0
1, 551120, Note_on_c, 0, 40, 50
1, 551133, Note_on_c, 0, 68, 0
1, 551238, Control_c, 0, 64, 0
1, 551238, Control_c, 0, 64, 0
1, 551238, Control_c, 0, 64, 0
1, 551341, Control_c, 0, 64, 127
1, 551341, Control_c, 0, 64, 127
1, 551341, Control_c, 0, 64, 127
1, 551363, Note_on_c, 0, 40, 0
1, 551363, Note_on_c, 0, 47, 42
1, 551588, Note_on_c, 0, 47, 0
1, 551588, Note_on_c, 0, 50, 44
1, 551775, Note_on_c, 0, 50, 0
1, 551775, Note_on_c, 0, 52, 46
1, 551962, Note_on_c, 0, 64, 52
1, 551962, Note_on_c, 0, 73, 61
1, 551962, Note_on_c, 0, 56, 49
1, 551976, Note_on_c, 0, 66, 0
1, 551976, Note_on_c, 0, 74, 0
1, 552135, Note_on_c, 0, 62, 51
1, 552308, Control_c, 0, 64, 127
1, 552308, Control_c, 0, 64, 127
1, 552308, Note_on_c, 0, 64, 53
1, 552324, Note_on_c, 0, 73, 0
1, 552324, Note_on_c, 0, 64, 0
1, 552512, Note_on_c, 0, 62, 0
1, 552512, Note_on_c, 0, 62, 47
1, 552699, Note_on_c, 0, 52, 0
1, 552699, Note_on_c, 0, 56, 0
1, 552699, Note_on_c, 0, 71, 73
1, 552702, Note_on_c, 0, 64, 0
1, 552702, Note_on_c, 0, 62, 0
1, 552702, Note_on_c, 0, 56, 49
1, 552886, Note_on_c, 0, 56, 0
1, 552886, Note_on_c, 0, 74, 72
1, 552886, Note_on_c, 0, 52, 46
1, 553091, Note_on_c, 0, 52, 0
1, 553091, Note_on_c, 0, 69, 74
1, 553091, Note_on_c, 0, 78, 74
1, 553094, Note_on_c, 0, 47, 44
1, 553099, Note_on_c, 0, 71, 0
1, 553107, Note_on_c, 0, 74, 0
1, 553295, Note_on_c, 0, 47, 0
1, 553295, Note_on_c, 0, 83, 75
1, 553295, Note_on_c, 0, 40, 42
1, 553312, Note_on_c, 0, 78, 0
1, 553520, Note_on_c, 0, 83, 0
1, 553520, Control_c, 0, 64, 127
1, 553520, Note_on_c, 0, 68, 66
1, 553523, Note_on_c, 0, 83, 76
1, 553523, Control_c, 0, 64, 127
1, 553523, Control_c, 0, 64, 127
1, 553526, Note_on_c, 0, 40, 0
1, 553526, Note_on_c, 0, 44, 50
1, 553539, Note_on_c, 0, 69, 0
1, 553639, Control_c, 0, 64, 0
1, 553639, Control_c, 0, 64, 0
1, 553639, Control_c, 0, 64, 0
1, 553769, Note_on_c, 0, 50, 42
1, 553792, Control_c, 0, 64, 127
1, 553792, Control_c, 0, 64, 127
1, 553792, Control_c, 0, 64, 127
1, 553956, Note_on_c, 0, 54, 44
1, 554129, Note_on_c, 0, 59, 46
1, 554302, Note_on_c, 0, 66, 54
1, 554302, Note_on_c, 0, 74, 63
1, 554302, Note_on_c, 0, 62, 49
1, 554315, Note_on_c, 0, 83, 0
1, 554315, Note_on_c, 0, 68, 0
1, 554398, Control_c, 0, 64, 127
1, 554398, Control_c, 0, 64, 127
1, 554398, Control_c, 0, 64, 127
1, 554475, Note_on_c, 0, 66, 51
1, 554648, Control_c, 0, 64, 127
1, 554648, Control_c, 0, 64, 127
1, 554648, Control_c, 0, 64, 127
1, 554651, Note_on_c, 0, 66, 0
1, 554651, Note_on_c, 0, 54, 0
1, 554651, Note_on_c, 0, 50, 0
1, 554654, Note_on_c, 0, 71, 53
1, 554663, Note_on_c, 0, 74, 0
1, 554663, Note_on_c, 0, 66, 0
1, 554778, Control_c, 0, 64, 0
1, 554778, Control_c, 0, 64, 0
1, 554778, Control_c, 0, 64, 0
1, 554852, Note_on_c, 0, 65, 51
1, 554911, Note_on_c, 0, 62, 0
1, 554928, Control_c, 0, 64, 127
1, 554928, Control_c, 0, 64, 127
1, 554928, Control_c, 0, 64, 127
1, 555025, Note_on_c, 0, 44, 0
1, 555025, Note_on_c, 0, 59, 0
1, 555025, Note_on_c, 0, 73, 75
1, 555028, Note_on_c, 0, 71, 0
1, 555028, Note_on_c, 0, 65, 0
1, 555028, Note_on_c, 0, 61, 49
1, 555229, Note_on_c, 0, 61, 0
1, 555229, Note_on_c, 0, 77, 70
1, 555229, Note_on_c, 0, 59, 46
1, 555416, Note_on_c, 0, 59, 0
1, 555416, Note_on_c, 0, 80, 74
1, 555416, Note_on_c, 0, 71, 80
1, 555419, Note_on_c, 0, 53, 44
1, 555423, Note_on_c, 0, 73, 0
1, 555431, Note_on_c, 0, 77, 0
1, 555603, Note_on_c, 0, 53, 0
1, 555603, Note_on_c, 0, 85, 76
1, 555603, Note_on_c, 0, 49, 42
1, 555623, Note_on_c, 0, 80, 0
1, 555649, Control_c, 0, 64, 127
1, 555649, Control_c, 0, 64, 127
1, 555649, Control_c, 0, 64, 127
1, 555853, Note_on_c, 0, 71, 0
1, 555853, Note_on_c, 0, 85, 0
1, 555853, Control_c, 0, 64, 127
1, 555856, Note_on_c, 0, 71, 70
1, 555856, Note_on_c, 0, 85, 78
1, 555856, Control_c, 0, 64, 127
1, 555859, Note_on_c, 0, 49, 0
1, 555859, Control_c, 0, 64, 0
1, 555859, Note_on_c, 0, 37, 50
1, 555961, Control_c, 0, 64, 0
1, 555961, Control_c, 0, 64, 0
1, 556069, Control_c, 0, 64, 127
1, 556069, Control_c, 0, 64, 127
1, 556077, Note_on_c, 0, 44, 42
1, 556265, Note_on_c, 0, 49, 44
1, 556437, Note_on_c, 0, 69, 69
1, 556437, Note_on_c, 0, 53, 46
1, 556457, Note_on_c, 0, 71, 0
1, 556687, Note_on_c, 0, 77, 70
1, 556687, Note_on_c, 0, 68, 67
1, 556687, Note_on_c, 0, 56, 49
1, 556702, Note_on_c, 0, 85, 0
1, 556702, Note_on_c, 0, 69, 0
1, 556717, Control_c, 0, 64, 0
1, 556717, Control_c, 0, 64, 0
1, 556852, Control_c, 0, 64, 127
1, 556852, Control_c, 0, 64, 127
1, 556874, Note_on_c, 0, 59, 51
1, 557061, Note_on_c, 0, 68, 0
1, 557061, Control_c, 0, 64, 127
1, 557061, Note_on_c, 0, 68, 67
1, 557064, Note_on_c, 0, 44, 0
1, 557064, Note_on_c, 0, 49, 0
1, 557064, Control_c, 0, 64, 127
1, 557067, Note_on_c, 0, 59, 0
1, 557067, Note_on_c, 0, 53, 0
1, 557067, Note_on_c, 0, 56, 0
1, 557070, Note_on_c, 0, 65, 53
1, 557077, Note_on_c, 0, 77, 0
1, 557266, Note_on_c, 0, 65, 0
1, 557266, Note_on_c, 0, 37, 0
1, 557266, Note_on_c, 0, 59, 51
1, 557470, Note_on_c, 0, 59, 0
1, 557470, Note_on_c, 0, 74, 70
1, 557470, Note_on_c, 0, 56, 49
1, 557719, Note_on_c, 0, 56, 0
1, 557719, Note_on_c, 0, 53, 46
1, 557924, Note_on_c, 0, 53, 0
1, 557924, Note_on_c, 0, 73, 66
1, 557924, Note_on_c, 0, 47, 44
1, 557941, Note_on_c, 0, 74, 0
1, 557941, Note_on_c, 0, 68, 0
1, 558148, Note_on_c, 0, 47, 0
1, 558148, Note_on_c, 0, 44, 42
1, 558373, Note_on_c, 0, 73, 0
1, 558373, Control_c, 0, 64, 127
1, 558373, Note_on_c, 0, 73, 68
1, 558376, Note_on_c, 0, 44, 0
1, 558376, Control_c, 0, 64, 127
1, 558376, Control_c, 0, 64, 127
1, 558379, Note_on_c, 0, 42, 50
1, 558490, Control_c, 0, 64, 0
1, 558490, Control_c, 0, 64, 0
1, 558490, Control_c, 0, 64, 0
1, 558598, Control_c, 0, 64, 127
1, 558598, Control_c, 0, 64, 127
1, 558598, Control_c, 0, 64, 127
1, 558654, Note_on_c, 0, 49, 42
1, 558858, Note_on_c, 0, 49, 0
1, 558858, Note_on_c, 0, 54, 43
1, 559108, Note_on_c, 0, 54, 0
1, 559108, Note_on_c, 0, 71, 62
1, 559108, Note_on_c, 0, 57, 44
1, 559130, Note_on_c, 0, 73, 0
1, 559365, Control_c, 0, 64, 0
1, 559365, Control_c, 0, 64, 0
1, 559365, Control_c, 0, 64, 0
1, 559388, Note_on_c, 0, 69, 60
1, 559388, Note_on_c, 0, 61, 46
1, 559413, Note_on_c, 0, 71, 0
1, 559709, Note_on_c, 0, 66, 47
1, 559850, Control_c, 0, 64, 127
1, 559850, Control_c, 0, 64, 127
1, 559850, Control_c, 0, 64, 127
1, 560271, Note_on_c, 0, 69, 0
1, 560271, Control_c, 0, 64, 127
1, 560271, Note_on_c, 0, 69, 47
1, 560274, Control_c, 0, 64, 127
1, 560274, Note_on_c, 0, 73, 33
1, 560274, Note_on_c, 0, 78, 37
1, 562517, Note_on_c, 0, 69, 0
1, 562517, Note_on_c, 0, 57, 0
1, 562517, Note_on_c, 0, 42, 0
1, 562520, Note_on_c, 0, 66, 0
1, 562520, Note_on_c, 0, 61, 0
1, 562520, Note_on_c, 0, 73, 0
1, 562523, Note_on_c, 0, 78, 0
1, 562879, Control_c, 0, 64, 0
1, 562879, Control_c, 0, 64, 0
1, 562879, Control_c, 0, 64, 0
1, 562882, Control_c, 0, 64, 0
1, 562882, Control_c, 0, 64, 0
1, 562882, Control_c, 0, 64, 0
1, 562885, Control_c, 0, 64, 0
1, 564764, Note_on_c, 0, 70, 70
1, 565044, Note_on_c, 0, 49, 47
1, 565073, Control_c, 0, 64, 127
1, 565073, Control_c, 0, 64, 127
1, 565073, Control_c, 0, 64, 127
1, 565269, Note_on_c, 0, 49, 0
1, 565269, Note_on_c, 0, 54, 47
1, 565456, Note_on_c, 0, 54, 0
1, 565456, Note_on_c, 0, 58, 47
1, 565629, Note_on_c, 0, 58, 0
1, 565629, Note_on_c, 0, 61, 47
1, 565802, Note_on_c, 0, 61, 0
1, 565802, Note_on_c, 0, 66, 47
1, 565975, Note_on_c, 0, 66, 0
1, 565975, Note_on_c, 0, 70, 0
1, 565975, Note_on_c, 0, 70, 70
1, 566148, Note_on_c, 0, 46, 47
1, 566320, Note_on_c, 0, 46, 0
1, 566320, Note_on_c, 0, 49, 47
1, 566493, Note_on_c, 0, 49, 0
1, 566493, Note_on_c, 0, 54, 47
1, 566666, Note_on_c, 0, 54, 0
1, 566666, Note_on_c, 0, 58, 47
1, 566839, Note_on_c, 0, 58, 0
1, 566839, Note_on_c, 0, 61, 47
1, 566891, Control_c, 0, 64, 127
1, 566891, Control_c, 0, 64, 127
1, 566891, Control_c, 0, 64, 127
1, 567012, Note_on_c, 0, 61, 0
1, 567012, Note_on_c, 0, 70, 0
1, 567012, Note_on_c, 0, 70, 70
1, 567015, Note_on_c, 0, 37, 60
1, 567143, Control_c, 0, 64, 0
1, 567143, Control_c, 0, 64, 0
1, 567143, Control_c, 0, 64, 0
1, 567232, Control_c, 0, 64, 127
1, 567232, Control_c, 0, 64, 127
1, 567232, Control_c, 0, 64, 127
1, 567292, Note_on_c, 0, 49, 45
1, 567488, Note_on_c, 0, 49, 0
1, 567488, Note_on_c, 0, 53, 45
1, 567660, Note_on_c, 0, 53, 0
1, 567660, Note_on_c, 0, 54, 45
1, 567833, Note_on_c, 0, 54, 0
1, 567833, Note_on_c, 0, 58, 45
1, 568006, Note_on_c, 0, 58, 0
1, 568006, Note_on_c, 0, 61, 45
1, 568179, Note_on_c, 0, 61, 0
1, 568179, Note_on_c, 0, 37, 0
1, 568179, Note_on_c, 0, 37, 60
1, 568286, Control_c, 0, 64, 0
1, 568286, Control_c, 0, 64, 0
1, 568286, Control_c, 0, 64, 0
1, 568393, Note_on_c, 0, 49, 45
1, 568416, Control_c, 0, 64, 127
1, 568416, Control_c, 0, 64, 127
1, 568416, Control_c, 0, 64, 127
1, 568580, Note_on_c, 0, 49, 0
1, 568580, Note_on_c, 0, 55, 45
1, 568753, Note_on_c, 0, 55, 0
1, 568753, Note_on_c, 0, 56, 45
1, 568926, Note_on_c, 0, 56, 0
1, 568926, Note_on_c, 0, 68, 69
1, 568926, Note_on_c, 0, 59, 45
1, 568934, Note_on_c, 0, 70, 0
1, 569130, Note_on_c, 0, 59, 0
1, 569130, Note_on_c, 0, 63, 45
1, 569299, Control_c, 0, 64, 0
1, 569299, Control_c, 0, 64, 0
1, 569299, Control_c, 0, 64, 0
1, 569344, Note_on_c, 0, 63, 0
1, 569344, Note_on_c, 0, 37, 0
1, 569344, Note_on_c, 0, 66, 70
1, 569347, Note_on_c, 0, 37, 68
1, 569355, Note_on_c, 0, 68, 0
1, 569625, Control_c, 0, 64, 127
1, 569625, Control_c, 0, 64, 127
1, 569625, Control_c, 0, 64, 127
1, 569628, Note_on_c, 0, 49, 45
1, 569820, Note_on_c, 0, 49, 0
1, 569820, Note_on_c, 0, 57, 45
1, 570007, Note_on_c, 0, 57, 0
1, 570007, Note_on_c, 0, 58, 45
1, 570180, Note_on_c, 0, 58, 0
1, 570180, Note_on_c, 0, 60, 45
1, 570353, Note_on_c, 0, 60, 0
1, 570353, Note_on_c, 0, 61, 45
1, 570482, Control_c, 0, 64, 0
1, 570482, Control_c, 0, 64, 0
1, 570482, Control_c, 0, 64, 0
1, 570526, Note_on_c, 0, 61, 0
1, 570526, Note_on_c, 0, 65, 62
1, 570526, Note_on_c, 0, 49, 45
1, 570534, Note_on_c, 0, 66, 0
1, 570739, Note_on_c, 0, 49, 0
1, 570739, Note_on_c, 0, 53, 45
1, 570748, Control_c, 0, 64, 127
1, 570748, Control_c, 0, 64, 127
1, 570748, Control_c, 0, 64, 127
1, 570927, Note_on_c, 0, 55, 45
1, 571006, Control_c, 0, 64, 0
1, 571006, Control_c, 0, 64, 0
1, 571006, Control_c, 0, 64, 0
1, 571099, Note_on_c, 0, 55, 0
1, 571099, Note_on_c, 0, 56, 45
1, 571272, Note_on_c, 0, 56, 0
1, 571272, Note_on_c, 0, 56, 45
1, 571272, Note_on_c, 0, 35, 64
1, 571280, Note_on_c, 0, 37, 0
1, 571370, Control_c, 0, 64, 127
1, 571370, Control_c, 0, 64, 127
1, 571370, Control_c, 0, 64, 127
1, 571468, Note_on_c, 0, 61, 45
1, 571590, Control_c, 0, 64, 0
1, 571590, Control_c, 0, 64, 0
1, 571590, Control_c, 0, 64, 0
1, 571663, Note_on_c, 0, 66, 66
1, 571663, Note_on_c, 0, 34, 64
1, 571671, Note_on_c, 0, 65, 0
1, 571671, Note_on_c, 0, 35, 0
1, 571686, Note_on_c, 0, 56, 0
1, 571686, Note_on_c, 0, 61, 0
1, 571686, Note_on_c, 0, 53, 0
1, 571775, Control_c, 0, 64, 127
1, 571775, Control_c, 0, 64, 127
1, 571775, Control_c, 0, 64, 127
1, 571858, Note_on_c, 0, 46, 45
1, 572045, Note_on_c, 0, 46, 0
1, 572045, Note_on_c, 0, 48, 45
1, 572218, Note_on_c, 0, 48, 0
1, 572218, Note_on_c, 0, 49, 45
1, 572391, Note_on_c, 0, 49, 0
1, 572391, Note_on_c, 0, 54, 45
1, 572564, Note_on_c, 0, 54, 0
1, 572564, Note_on_c, 0, 61, 45
1, 572737, Note_on_c, 0, 61, 0
1, 572737, Note_on_c, 0, 32, 60
1, 572745, Note_on_c, 0, 34, 0
1, 572771, Control_c, 0, 64, 0
1, 572771, Control_c, 0, 64, 0
1, 572771, Control_c, 0, 64, 0
1, 572961, Note_on_c, 0, 44, 45
1, 573027, Control_c, 0, 64, 127
1, 573027, Control_c, 0, 64, 127
1, 573027, Control_c, 0, 64, 127
1, 573157, Note_on_c, 0, 44, 0
1, 573157, Note_on_c, 0, 50, 47
1, 573329, Note_on_c, 0, 50, 0
1, 573329, Note_on_c, 0, 51, 50
1, 573502, Note_on_c, 0, 51, 0
1, 573502, Note_on_c, 0, 63, 74
1, 573502, Note_on_c, 0, 54, 51
1, 573511, Note_on_c, 0, 66, 0
1, 573716, Note_on_c, 0, 54, 0
1, 573716, Note_on_c, 0, 60, 54
1, 573898, Control_c, 0, 64, 0
1, 573898, Control_c, 0, 64, 0
1, 573898, Control_c, 0, 64, 0
1, 573997, Note_on_c, 0, 60, 0
1, 573997, Note_on_c, 0, 73, 78
1, 573997, Note_on_c, 0, 34, 63
1, 574008, Note_on_c, 0, 63, 0
1, 574008, Note_on_c, 0, 32, 0
1, 574257, Control_c, 0, 64, 127
1, 574257, Control_c, 0, 64, 127
1, 574257, Control_c, 0, 64, 127
1, 574278, Note_on_c, 0, 46, 47
1, 574465, Note_on_c, 0, 46, 0
1, 574465, Note_on_c, 0, 53, 47
1, 574638, Note_on_c, 0, 53, 0
1, 574638, Note_on_c, 0, 54, 47
1, 574811, Note_on_c, 0, 54, 0
1, 574811, Note_on_c, 0, 61, 47
1, 574983, Note_on_c, 0, 61, 0
1, 574983, Note_on_c, 0, 66, 47
1, 575156, Note_on_c, 0, 66, 0
1, 575156, Note_on_c, 0, 71, 75
1, 575156, Note_on_c, 0, 46, 47
1, 575163, Note_on_c, 0, 73, 0
1, 575329, Note_on_c, 0, 46, 0
1, 575329, Note_on_c, 0, 49, 47
1, 575502, Note_on_c, 0, 49, 0
1, 575502, Note_on_c, 0, 53, 47
1, 575675, Note_on_c, 0, 53, 0
1, 575675, Note_on_c, 0, 54, 47
1, 575847, Note_on_c, 0, 54, 0
1, 575847, Note_on_c, 0, 70, 73
1, 575847, Note_on_c, 0, 61, 47
1, 575850, Note_on_c, 0, 30, 58
1, 575857, Note_on_c, 0, 71, 0
1, 575857, Note_on_c, 0, 34, 0
1, 576097, Note_on_c, 0, 61, 0
1, 576097, Note_on_c, 0, 66, 47
1, 576277, Control_c, 0, 64, 0
1, 576277, Control_c, 0, 64, 0
1, 576277, Control_c, 0, 64, 0
1, 576342, Control_c, 0, 64, 0
1, 576347, Note_on_c, 0, 66, 0
1, 576347, Note_on_c, 0, 70, 0
1, 576347, Note_on_c, 0, 70, 80
1, 576350, Note_on_c, 0, 40, 65
1, 576356, Note_on_c, 0, 30, 0
1, 576442, Control_c, 0, 64, 0
1, 576442, Control_c, 0, 64, 0
1, 576442, Control_c, 0, 64, 0
1, 576584, Control_c, 0, 64, 127
1, 576584, Control_c, 0, 64, 127
1, 576584, Control_c, 0, 64, 127
1, 576596, Note_on_c, 0, 52, 41
1, 576769, Note_on_c, 0, 52, 0
1, 576769, Note_on_c, 0, 54, 41
1, 576942, Note_on_c, 0, 54, 0
1, 576942, Note_on_c, 0, 58, 41
1, 577115, Note_on_c, 0, 58, 0
1, 577115, Note_on_c, 0, 60, 41
1, 577287, Note_on_c, 0, 60, 0
1, 577287, Note_on_c, 0, 61, 41
1, 577352, Control_c, 0, 64, 127
1, 577352, Control_c, 0, 64, 127
1, 577352, Control_c, 0, 64, 127
1, 577385, Control_c, 0, 64, 127
1, 577385, Control_c, 0, 64, 127
1, 577385, Control_c, 0, 64, 127
1, 577439, Control_c, 0, 64, 127
1, 577439, Control_c, 0, 64, 127
1, 577439, Control_c, 0, 64, 127
1, 577460, Note_on_c, 0, 61, 0
1, 577460, Note_on_c, 0, 39, 62
1, 577469, Note_on_c, 0, 40, 0
1, 577530, Control_c, 0, 64, 0
1, 577530, Control_c, 0, 64, 0
1, 577530, Control_c, 0, 64, 0
1, 577650, Control_c, 0, 64, 127
1, 577650, Control_c, 0, 64, 127
1, 577650, Control_c, 0, 64, 127
1, 577685, Note_on_c, 0, 51, 41
1, 577909, Note_on_c, 0, 51, 0
1, 577909, Note_on_c, 0, 68, 67
1, 577909, Note_on_c, 0, 54, 41
1, 577917, Note_on_c, 0, 70, 0
1, 578097, Note_on_c, 0, 54, 0
1, 578097, Note_on_c, 0, 56, 41
1, 578284, Control_c, 0, 64, 0
1, 578284, Note_on_c, 0, 66, 66
1, 578284, Control_c, 0, 64, 0
1, 578287, Note_on_c, 0, 56, 0
1, 578287, Control_c, 0, 64, 0
1, 578287, Note_on_c, 0, 59, 41
1, 578290, Note_on_c, 0, 39, 0
1, 578290, Note_on_c, 0, 68, 0
1, 578290, Note_on_c, 0, 37, 61
1, 578430, Control_c, 0, 64, 127
1, 578430, Control_c, 0, 64, 127
1, 578430, Control_c, 0, 64, 127
1, 578498, Note_on_c, 0, 59, 0
1, 578498, Note_on_c, 0, 63, 41
1, 578537, Control_c, 0, 64, 127
1, 578537, Control_c, 0, 64, 127
1, 578537, Control_c, 0, 64, 127
1, 578722, Note_on_c, 0, 66, 0
1, 578722, Note_on_c, 0, 66, 71
1, 578722, Control_c, 0, 64, 127
1, 578725, Note_on_c, 0, 63, 0
1, 578725, Note_on_c, 0, 37, 0
1, 578725, Note_on_c, 0, 37, 61
1, 578827, Control_c, 0, 64, 0
1, 578827, Control_c, 0, 64, 0
1, 578827, Control_c, 0, 64, 0
1, 578947, Control_c, 0, 64, 127
1, 578947, Control_c, 0, 64, 127
1, 578947, Control_c, 0, 64, 127
1, 578950, Note_on_c, 0, 49, 41
1, 579120, Note_on_c, 0, 49, 0
1, 579120, Note_on_c, 0, 53, 41
1, 579293, Note_on_c, 0, 53, 0
1, 579293, Note_on_c, 0, 54, 41
1, 579465, Note_on_c, 0, 54, 0
1, 579465, Note_on_c, 0, 58, 41
1, 579638, Note_on_c, 0, 58, 0
1, 579638, Note_on_c, 0, 61, 41
1, 579802, Control_c, 0, 64, 0
1, 579802, Control_c, 0, 64, 0
1, 579802, Control_c, 0, 64, 0
1, 579811, Note_on_c, 0, 61, 0
1, 579811, Note_on_c, 0, 65, 66
1, 579811, Note_on_c, 0, 49, 41
1, 579819, Note_on_c, 0, 66, 0
1, 579967, Control_c, 0, 64, 127
1, 579967, Control_c, 0, 64, 127
1, 579967, Control_c, 0, 64, 127
1, 580015, Note_on_c, 0, 49, 0
1, 580015, Note_on_c, 0, 53, 41
1, 580202, Note_on_c, 0, 53, 0
1, 580202, Note_on_c, 0, 56, 41
1, 580202, Note_on_c, 0, 35, 59
1, 580209, Note_on_c, 0, 37, 0
1, 580375, Note_on_c, 0, 56, 0
1, 580375, Note_on_c, 0, 61, 41
1, 580548, Note_on_c, 0, 61, 0
1, 580548, Note_on_c, 0, 66, 63
1, 580548, Note_on_c, 0, 54, 41
1, 580551, Note_on_c, 0, 35, 0
1, 580551, Note_on_c, 0, 34, 58
1, 580556, Note_on_c, 0, 65, 0
1, 580577, Control_c, 0, 64, 0
1, 580577, Control_c, 0, 64, 0
1, 580577, Control_c, 0, 64, 0
1, 580685, Control_c, 0, 64, 127
1, 580685, Control_c, 0, 64, 127
1, 580685, Control_c, 0, 64, 127
1, 580743, Note_on_c, 0, 54, 0
1, 580743, Note_on_c, 0, 61, 41
1, 580938, Note_on_c, 0, 61, 0
1, 580938, Note_on_c, 0, 66, 0
1, 580938, Note_on_c, 0, 34, 0
1, 580938, Note_on_c, 0, 66, 62
1, 580938, Control_c, 0, 64, 127
1, 580938, Note_on_c, 0, 34, 58
1, 581134, Note_on_c, 0, 46, 41
1, 581329, Note_on_c, 0, 46, 0
1, 581329, Note_on_c, 0, 48, 41
1, 581502, Note_on_c, 0, 48, 0
1, 581502, Note_on_c, 0, 49, 41
1, 581675, Note_on_c, 0, 49, 0
1, 581675, Note_on_c, 0, 54, 41
1, 581848, Note_on_c, 0, 54, 0
1, 581848, Note_on_c, 0, 61, 41
1, 582021, Control_c, 0, 64, 0
1, 582021, Control_c, 0, 64, 0
1, 582021, Control_c, 0, 64, 0
1, 582024, Note_on_c, 0, 61, 0
1, 582024, Note_on_c, 0, 33, 57
1, 582028, Note_on_c, 0, 34, 0
1, 582118, Control_c, 0, 64, 127
1, 582118, Control_c, 0, 64, 127
1, 582118, Control_c, 0, 64, 127
1, 582216, Note_on_c, 0, 45, 45
1, 582403, Note_on_c, 0, 45, 0
1, 582403, Note_on_c, 0, 48, 45
1, 582590, Note_on_c, 0, 51, 45
1, 582598, Note_on_c, 0, 48, 0
1, 582795, Note_on_c, 0, 66, 0
1, 582795, Control_c, 0, 64, 0
1, 582795, Control_c, 0, 64, 0
1, 582798, Control_c, 0, 64, 0
1, 582798, Note_on_c, 0, 54, 45
1, 582798, Note_on_c, 0, 34, 56
1, 582803, Note_on_c, 0, 33, 0
1, 582803, Note_on_c, 0, 51, 0
1, 582854, Control_c, 0, 64, 0
1, 582854, Control_c, 0, 64, 0
1, 582854, Control_c, 0, 64, 0
1, 583019, Note_on_c, 0, 63, 45
1, 583028, Note_on_c, 0, 54, 0
1, 583244, Note_on_c, 0, 34, 0
1, 583244, Note_on_c, 0, 70, 72
1, 583244, Note_on_c, 0, 34, 55
1, 583253, Note_on_c, 0, 63, 0
1, 583469, Note_on_c, 0, 46, 45
1, 583493, Control_c, 0, 64, 127
1, 583493, Control_c, 0, 64, 127
1, 583493, Control_c, 0, 64, 127
1, 583656, Note_on_c, 0, 46, 0
1, 583656, Note_on_c, 0, 53, 45
1, 583829, Note_on_c, 0, 53, 0
1, 583829, Note_on_c, 0, 56, 45
1, 584001, Note_on_c, 0, 56, 0
1, 584001, Note_on_c, 0, 58, 45
1, 584174, Note_on_c, 0, 58, 0
1, 584174, Note_on_c, 0, 62, 45
1, 584347, Note_on_c, 0, 62, 0
1, 584347, Note_on_c, 0, 69, 72
1, 584347, Note_on_c, 0, 46, 45
1, 584355, Note_on_c, 0, 70, 0
1, 584542, Note_on_c, 0, 46, 0
1, 584542, Note_on_c, 0, 53, 45
1, 584715, Note_on_c, 0, 53, 0
1, 584715, Note_on_c, 0, 56, 45
1, 584888, Note_on_c, 0, 56, 0
1, 584888, Note_on_c, 0, 58, 45
1, 585061, Note_on_c, 0, 58, 0
1, 585061, Note_on_c, 0, 70, 74
1, 585061, Note_on_c, 0, 62, 45
1, 585064, Note_on_c, 0, 34, 0
1, 585069, Note_on_c, 0, 69, 0
1, 585265, Note_on_c, 0, 62, 0
1, 585265, Note_on_c, 0, 68, 45
1, 585384, Control_c, 0, 64, 127
1, 585384, Control_c, 0, 64, 127
1, 585384, Control_c, 0, 64, 127
1, 585469, Note_on_c, 0, 68, 0
1, 585469, Note_on_c, 0, 70, 0
1, 585469, Note_on_c, 0, 70, 72
1, 585472, Note_on_c, 0, 38, 65
1, 585530, Control_c, 0, 64, 0
1, 585530, Control_c, 0, 64, 0
1, 585530, Control_c, 0, 64, 0
1, 585663, Control_c, 0, 64, 127
1, 585663, Control_c, 0, 64, 127
1, 585663, Control_c, 0, 64, 127
1, 585673, Note_on_c, 0, 46, 45
1, 585861, Note_on_c, 0, 46, 0
1, 585861, Note_on_c, 0, 50, 45
1, 586033, Note_on_c, 0, 50, 0
1, 586033, Note_on_c, 0, 53, 45
1, 586206, Note_on_c, 0, 53, 0
1, 586206, Note_on_c, 0, 65, 65
1, 586206, Note_on_c, 0, 56, 45
1, 586213, Note_on_c, 0, 70, 0
1, 586379, Note_on_c, 0, 56, 0
1, 586379, Note_on_c, 0, 58, 45
1, 586552, Note_on_c, 0, 58, 0
1, 586552, Note_on_c, 0, 38, 0
1, 586552, Note_on_c, 0, 37, 64
1, 586565, Control_c, 0, 64, 0
1, 586565, Control_c, 0, 64, 0
1, 586565, Control_c, 0, 64, 0
1, 586765, Control_c, 0, 64, 127
1, 586765, Control_c, 0, 64, 127
1, 586765, Control_c, 0, 64, 127
1, 586776, Note_on_c, 0, 49, 45
1, 586972, Note_on_c, 0, 49, 0
1, 586972, Note_on_c, 0, 52, 45
1, 587159, Note_on_c, 0, 52, 0
1, 587159, Note_on_c, 0, 53, 45
1, 587328, Control_c, 0, 64, 0
1, 587328, Control_c, 0, 64, 0
1, 587328, Control_c, 0, 64, 0
1, 587332, Note_on_c, 0, 53, 0
1, 587332, Note_on_c, 0, 37, 0
1, 587332, Note_on_c, 0, 56, 45
1, 587335, Note_on_c, 0, 38, 60
1, 587335, Note_on_c, 0, 50, 55
1, 587441, Control_c, 0, 64, 127
1, 587441, Control_c, 0, 64, 127
1, 587441, Control_c, 0, 64, 127
1, 587505, Note_on_c, 0, 56, 0
1, 587505, Note_on_c, 0, 58, 45
1, 587729, Note_on_c, 0, 58, 0
1, 587729, Note_on_c, 0, 65, 0
1, 587729, Note_on_c, 0, 70, 79
1, 587732, Note_on_c, 0, 38, 0
1, 587732, Note_on_c, 0, 50, 0
1, 587732, Note_on_c, 0, 38, 67
1, 587876, Control_c, 0, 64, 0
1, 587876, Control_c, 0, 64, 0
1, 587876, Control_c, 0, 64, 0
1, 587954, Control_c, 0, 64, 127
1, 587954, Note_on_c, 0, 45, 52
1, 587954, Control_c, 0, 64, 127
1, 587954, Control_c, 0, 64, 127
1, 588141, Note_on_c, 0, 45, 0
1, 588141, Note_on_c, 0, 46, 52
1, 588328, Note_on_c, 0, 46, 0
1, 588328, Note_on_c, 0, 50, 52
1, 588542, Note_on_c, 0, 50, 0
1, 588542, Note_on_c, 0, 38, 0
1, 588542, Note_on_c, 0, 58, 52
1, 588545, Note_on_c, 0, 32, 67
1, 588545, Note_on_c, 0, 44, 56
1, 588729, Note_on_c, 0, 58, 0
1, 588729, Note_on_c, 0, 65, 52
1, 588917, Control_c, 0, 64, 0
1, 588917, Note_on_c, 0, 69, 80
1, 588917, Control_c, 0, 64, 0
1, 588920, Note_on_c, 0, 65, 0
1, 588920, Control_c, 0, 64, 0
1, 588920, Note_on_c, 0, 46, 55
1, 588925, Note_on_c, 0, 70, 0
1, 589090, Control_c, 0, 64, 127
1, 589090, Control_c, 0, 64, 127
1, 589090, Control_c, 0, 64, 127
1, 589141, Note_on_c, 0, 46, 0
1, 589141, Note_on_c, 0, 53, 53
1, 589328, Note_on_c, 0, 53, 0
1, 589328, Note_on_c, 0, 56, 53
1, 589501, Note_on_c, 0, 56, 0
1, 589501, Note_on_c, 0, 62, 53
1, 589674, Note_on_c, 0, 62, 0
1, 589674, Note_on_c, 0, 70, 74
1, 589674, Note_on_c, 0, 58, 53
1, 589682, Note_on_c, 0, 69, 0
1, 589888, Note_on_c, 0, 58, 0
1, 589888, Note_on_c, 0, 65, 53
1, 590102, Note_on_c, 0, 65, 0
1, 590102, Note_on_c, 0, 70, 0
1, 590102, Note_on_c, 0, 70, 76
1, 590105, Note_on_c, 0, 32, 0
1, 590105, Note_on_c, 0, 44, 0
1, 590105, Note_on_c, 0, 38, 78
1, 590165, Control_c, 0, 64, 0
1, 590165, Control_c, 0, 64, 0
1, 590165, Control_c, 0, 64, 0
1, 590229, Control_c, 0, 64, 0
1, 590229, Control_c, 0, 64, 0
1, 590229, Control_c, 0, 64, 0
1, 590305, Control_c, 0, 64, 127
1, 590305, Control_c, 0, 64, 127
1, 590305, Control_c, 0, 64, 127
1, 590316, Note_on_c, 0, 45, 53
1, 590340, Control_c, 0, 64, 127
1, 590340, Control_c, 0, 64, 127
1, 590340, Control_c, 0, 64, 127
1, 590503, Note_on_c, 0, 45, 0
1, 590503, Note_on_c, 0, 46, 53
1, 590676, Note_on_c, 0, 46, 0
1, 590676, Note_on_c, 0, 50, 53
1, 590849, Note_on_c, 0, 50, 0
1, 590849, Note_on_c, 0, 58, 74
1, 590849, Note_on_c, 0, 53, 53
1, 590855, Note_on_c, 0, 70, 0
1, 591021, Note_on_c, 0, 53, 0
1, 591021, Note_on_c, 0, 56, 53
1, 591194, Control_c, 0, 64, 0
1, 591194, Control_c, 0, 64, 0
1, 591194, Control_c, 0, 64, 0
1, 591197, Note_on_c, 0, 56, 0
1, 591197, Note_on_c, 0, 38, 0
1, 591197, Note_on_c, 0, 37, 78
1, 591207, Control_c, 0, 64, 0
1, 591207, Control_c, 0, 64, 0
1, 591207, Control_c, 0, 64, 0
1, 591381, Control_c, 0, 64, 127
1, 591381, Control_c, 0, 64, 127
1, 591381, Control_c, 0, 64, 127
1, 591408, Control_c, 0, 64, 127
1, 591408, Control_c, 0, 64, 127
1, 591408, Control_c, 0, 64, 127
1, 591419, Note_on_c, 0, 45, 54
1, 591614, Note_on_c, 0, 45, 0
1, 591614, Note_on_c, 0, 46, 54
1, 591801, Note_on_c, 0, 46, 0
1, 591801, Note_on_c, 0, 49, 54
1, 591971, Control_c, 0, 64, 0
1, 591971, Control_c, 0, 64, 0
1, 591971, Control_c, 0, 64, 0
1, 591974, Note_on_c, 0, 49, 0
1, 591974, Note_on_c, 0, 37, 0
1, 591974, Note_on_c, 0, 53, 54
1, 591977, Note_on_c, 0, 38, 75
1, 591977, Note_on_c, 0, 50, 64
1, 592084, Control_c, 0, 64, 127
1, 592084, Control_c, 0, 64, 127
1, 592084, Control_c, 0, 64, 127
1, 592147, Note_on_c, 0, 53, 0
1, 592147, Note_on_c, 0, 56, 54
1, 592372, Note_on_c, 0, 56, 0
1, 592372, Note_on_c, 0, 58, 0
1, 592372, Note_on_c, 0, 77, 89
1, 592375, Note_on_c, 0, 38, 0
1, 592375, Note_on_c, 0, 50, 0
1, 592375, Note_on_c, 0, 38, 80
1, 592519, Control_c, 0, 64, 0
1, 592519, Control_c, 0, 64, 0
1, 592519, Control_c, 0, 64, 0
1, 592596, Control_c, 0, 64, 127
1, 592596, Note_on_c, 0, 45, 59
1, 592596, Control_c, 0, 64, 127
1, 592596, Control_c, 0, 64, 127
1, 592783, Note_on_c, 0, 45, 0
1, 592783, Note_on_c, 0, 46, 59
1, 592971, Note_on_c, 0, 50, 61
1, 593185, Note_on_c, 0, 38, 0
1, 593185, Note_on_c, 0, 65, 61
1, 593185, Note_on_c, 0, 26, 83
1, 593188, Note_on_c, 0, 38, 64
1, 593372, Note_on_c, 0, 68, 61
1, 593372, Note_on_c, 0, 70, 61
1, 593559, Note_on_c, 0, 77, 0
1, 593559, Control_c, 0, 64, 0
1, 593559, Note_on_c, 0, 76, 90
1, 593562, Note_on_c, 0, 46, 0
1, 593562, Control_c, 0, 64, 0
1, 593562, Control_c, 0, 64, 0
1, 593565, Note_on_c, 0, 46, 61
1, 593732, Control_c, 0, 64, 127
1, 593732, Control_c, 0, 64, 127
1, 593732, Control_c, 0, 64, 127
1, 593784, Note_on_c, 0, 46, 0
1, 593784, Note_on_c, 0, 65, 0
1, 593784, Note_on_c, 0, 50, 0
1, 593787, Note_on_c, 0, 68, 0
1, 593787, Note_on_c, 0, 70, 0
1, 593787, Note_on_c, 0, 53, 61
1, 593971, Note_on_c, 0, 56, 61
1, 594144, Note_on_c, 0, 62, 61
1, 594316, Note_on_c, 0, 76, 0
1, 594316, Note_on_c, 0, 77, 90
1, 594316, Note_on_c, 0, 65, 61
1, 594530, Note_on_c, 0, 68, 61
1, 594530, Note_on_c, 0, 70, 61
1, 594744, Note_on_c, 0, 77, 0
1, 594744, Note_on_c, 0, 26, 0
1, 594744, Note_on_c, 0, 77, 91
1, 594747, Note_on_c, 0, 38, 0
1, 594747, Note_on_c, 0, 44, 84
1, 594782, Note_on_c, 0, 53, 0
1, 594782, Note_on_c, 0, 56, 0
1, 594782, Note_on_c, 0, 62, 0
1, 594785, Note_on_c, 0, 70, 0
1, 594785, Note_on_c, 0, 68, 0
1, 594785, Note_on_c, 0, 65, 0
1, 594808, Control_c, 0, 64, 0
1, 594808, Control_c, 0, 64, 0
1, 594808, Control_c, 0, 64, 0
1, 594871, Control_c, 0, 64, 0
1, 594871, Control_c, 0, 64, 0
1, 594871, Control_c, 0, 64, 0
1, 594948, Control_c, 0, 64, 127
1, 594948, Control_c, 0, 64, 127
1, 594948, Control_c, 0, 64, 127
1, 594958, Note_on_c, 0, 56, 63
1, 594982, Control_c, 0, 64, 127
1, 594982, Control_c, 0, 64, 127
1, 594982, Control_c, 0, 64, 127
1, 595145, Note_on_c, 0, 62, 64
1, 595318, Note_on_c, 0, 65, 64
1, 595491, Note_on_c, 0, 83, 94
1, 595491, Note_on_c, 0, 71, 64
1, 595498, Note_on_c, 0, 77, 0
1, 595664, Note_on_c, 0, 74, 64
1, 595664, Note_on_c, 0, 77, 64
1, 595837, Control_c, 0, 64, 0
1, 595837, Control_c, 0, 64, 0
1, 595837, Control_c, 0, 64, 0
1, 595840, Note_on_c, 0, 44, 0
1, 595840, Note_on_c, 0, 56, 0
1, 595840, Note_on_c, 0, 43, 80
1, 595850, Control_c, 0, 64, 0
1, 595850, Control_c, 0, 64, 0
1, 595850, Control_c, 0, 64, 0
1, 596024, Control_c, 0, 64, 127
1, 596024, Control_c, 0, 64, 127
1, 596024, Control_c, 0, 64, 127
1, 596050, Control_c, 0, 64, 127
1, 596050, Control_c, 0, 64, 127
1, 596050, Control_c, 0, 64, 127
1, 596061, Note_on_c, 0, 71, 0
1, 596061, Note_on_c, 0, 62, 0
1, 596061, Note_on_c, 0, 65, 0
1, 596064, Note_on_c, 0, 74, 0
1, 596064, Note_on_c, 0, 77, 0
1, 596064, Note_on_c, 0, 55, 64
1, 596257, Note_on_c, 0, 55, 0
1, 596257, Note_on_c, 0, 62, 64
1, 596444, Note_on_c, 0, 65, 64
1, 596613, Control_c, 0, 64, 0
1, 596613, Control_c, 0, 64, 0
1, 596613, Control_c, 0, 64, 0
1, 596617, Note_on_c, 0, 43, 0
1, 596617, Note_on_c, 0, 82, 90
1, 596617, Note_on_c, 0, 70, 65
1, 596620, Note_on_c, 0, 44, 80
1, 596620, Note_on_c, 0, 56, 78
1, 596628, Note_on_c, 0, 83, 0
1, 596794, Control_c, 0, 64, 127
1, 596794, Control_c, 0, 64, 127
1, 596794, Control_c, 0, 64, 127
1, 596897, Note_on_c, 0, 74, 65
1, 596897, Note_on_c, 0, 77, 59
1, 597147, Note_on_c, 0, 82, 0
1, 597147, Note_on_c, 0, 44, 0
1, 597147, Note_on_c, 0, 82, 93
1, 597150, Note_on_c, 0, 56, 0
1, 597150, Note_on_c, 0, 44, 86
1, 597191, Note_on_c, 0, 65, 0
1, 597191, Note_on_c, 0, 70, 0
1, 597191, Note_on_c, 0, 62, 0
1, 597194, Note_on_c, 0, 74, 0
1, 597194, Note_on_c, 0, 77, 0
1, 597282, Control_c, 0, 64, 0
1, 597282, Control_c, 0, 64, 0
1, 597282, Control_c, 0, 64, 0
1, 597397, Note_on_c, 0, 56, 65
1, 597431, Control_c, 0, 64, 127
1, 597431, Control_c, 0, 64, 127
1, 597431, Control_c, 0, 64, 127
1, 597584, Note_on_c, 0, 56, 0
1, 597584, Note_on_c, 0, 62, 65
1, 597771, Note_on_c, 0, 62, 0
1, 597771, Note_on_c, 0, 65, 65
1, 597985, Note_on_c, 0, 65, 0
1, 597985, Note_on_c, 0, 44, 0
1, 597985, Note_on_c, 0, 77, 89
1, 597988, Note_on_c, 0, 68, 65
1, 597988, Note_on_c, 0, 50, 75
1, 597988, Note_on_c, 0, 62, 75
1, 597992, Note_on_c, 0, 82, 0
1, 598172, Note_on_c, 0, 68, 0
1, 598172, Note_on_c, 0, 70, 65
1, 598359, Note_on_c, 0, 70, 0
1, 598359, Note_on_c, 0, 62, 0
1, 598359, Note_on_c, 0, 53, 60
1, 598584, Note_on_c, 0, 53, 0
1, 598584, Note_on_c, 0, 56, 65
1, 598771, Note_on_c, 0, 56, 0
1, 598771, Note_on_c, 0, 58, 65
1, 598944, Note_on_c, 0, 58, 0
1, 598944, Note_on_c, 0, 62, 65
1, 599117, Note_on_c, 0, 62, 0
1, 599117, Note_on_c, 0, 50, 0
1, 599117, Note_on_c, 0, 65, 66
1, 599120, Note_on_c, 0, 49, 82
1, 599120, Note_on_c, 0, 61, 70
1, 599204, Control_c, 0, 64, 0
1, 599204, Control_c, 0, 64, 0
1, 599204, Control_c, 0, 64, 0
1, 599341, Note_on_c, 0, 65, 0
1, 599341, Note_on_c, 0, 68, 66
1, 599341, Note_on_c, 0, 70, 60
1, 599352, Control_c, 0, 64, 127
1, 599352, Control_c, 0, 64, 127
1, 599352, Control_c, 0, 64, 127
1, 599622, Note_on_c, 0, 68, 0
1, 599622, Note_on_c, 0, 77, 0
1, 599622, Note_on_c, 0, 75, 86
1, 599625, Note_on_c, 0, 61, 0
1, 599625, Note_on_c, 0, 70, 0
1, 599625, Note_on_c, 0, 49, 0
1, 599628, Note_on_c, 0, 49, 75
1, 599763, Control_c, 0, 64, 0
1, 599763, Control_c, 0, 64, 0
1, 599763, Control_c, 0, 64, 0
1, 599839, Control_c, 0, 64, 127
1, 599839, Control_c, 0, 64, 127
1, 599839, Control_c, 0, 64, 127
1, 599903, Note_on_c, 0, 55, 64
1, 600090, Note_on_c, 0, 55, 0
1, 600090, Note_on_c, 0, 58, 63
1, 600277, Note_on_c, 0, 58, 0
1, 600277, Note_on_c, 0, 61, 62
1, 600491, Note_on_c, 0, 61, 0
1, 600491, Note_on_c, 0, 49, 0
1, 600491, Note_on_c, 0, 63, 61
1, 600494, Note_on_c, 0, 43, 69
1, 600494, Note_on_c, 0, 55, 61
1, 600501, Control_c, 0, 64, 0
1, 600501, Control_c, 0, 64, 0
1, 600501, Control_c, 0, 64, 0
1, 600622, Control_c, 0, 64, 127
1, 600622, Control_c, 0, 64, 127
1, 600622, Control_c, 0, 64, 127
1, 600679, Note_on_c, 0, 63, 0
1, 600679, Note_on_c, 0, 70, 60
1, 600811, Control_c, 0, 64, 0
1, 600811, Control_c, 0, 64, 0
1, 600811, Control_c, 0, 64, 0
1, 600866, Note_on_c, 0, 70, 0
1, 600866, Note_on_c, 0, 51, 59
1, 600956, Control_c, 0, 64, 0
1, 600956, Control_c, 0, 64, 0
1, 600956, Control_c, 0, 64, 0
1, 600986, Control_c, 0, 64, 127
1, 600986, Control_c, 0, 64, 127
1, 600986, Control_c, 0, 64, 127
1, 601090, Note_on_c, 0, 51, 0
1, 601090, Note_on_c, 0, 55, 58
1, 601268, Control_c, 0, 64, 127
1, 601268, Control_c, 0, 64, 127
1, 601268, Control_c, 0, 64, 127
1, 601295, Note_on_c, 0, 55, 0
1, 601295, Note_on_c, 0, 73, 78
1, 601295, Note_on_c, 0, 58, 57
1, 601303, Note_on_c, 0, 75, 0
1, 601499, Note_on_c, 0, 58, 0
1, 601499, Note_on_c, 0, 61, 55
1, 601703, Note_on_c, 0, 61, 0
1, 601703, Note_on_c, 0, 72, 76
1, 601703, Note_on_c, 0, 61, 54
1, 601706, Note_on_c, 0, 55, 0
1, 601706, Note_on_c, 0, 43, 0
1, 601712, Note_on_c, 0, 73, 0
1, 601928, Note_on_c, 0, 61, 0
1, 601928, Note_on_c, 0, 63, 53
1, 602119, Control_c, 0, 64, 0
1, 602119, Control_c, 0, 64, 0
1, 602119, Control_c, 0, 64, 0
1, 602177, Note_on_c, 0, 63, 0
1, 602177, Note_on_c, 0, 70, 74
1, 602177, Note_on_c, 0, 42, 62
1, 602186, Note_on_c, 0, 72, 0
1, 602402, Note_on_c, 0, 51, 45
1, 602425, Control_c, 0, 64, 127
1, 602425, Control_c, 0, 64, 127
1, 602425, Control_c, 0, 64, 127
1, 602589, Note_on_c, 0, 51, 0
1, 602589, Note_on_c, 0, 54, 45
1, 602762, Note_on_c, 0, 54, 0
1, 602762, Note_on_c, 0, 56, 45
1, 602935, Note_on_c, 0, 56, 0
1, 602935, Note_on_c, 0, 60, 45
1, 603108, Note_on_c, 0, 60, 0
1, 603108, Note_on_c, 0, 63, 45
1, 603280, Note_on_c, 0, 63, 0
1, 603280, Note_on_c, 0, 70, 0
1, 603280, Note_on_c, 0, 70, 69
1, 603283, Note_on_c, 0, 48, 45
1, 603476, Note_on_c, 0, 48, 0
1, 603476, Note_on_c, 0, 51, 45
1, 603663, Note_on_c, 0, 51, 0
1, 603663, Note_on_c, 0, 54, 47
1, 603663, Note_on_c, 0, 41, 66
1, 603670, Note_on_c, 0, 42, 0
1, 603695, Control_c, 0, 64, 0
1, 603695, Control_c, 0, 64, 0
1, 603695, Control_c, 0, 64, 0
1, 603782, Control_c, 0, 64, 127
1, 603782, Control_c, 0, 64, 127
1, 603782, Control_c, 0, 64, 127
1, 603836, Note_on_c, 0, 54, 0
1, 603836, Note_on_c, 0, 56, 45
1, 604009, Note_on_c, 0, 56, 0
1, 604009, Note_on_c, 0, 60, 48
1, 604009, Note_on_c, 0, 39, 68
1, 604017, Note_on_c, 0, 41, 0
1, 604087, Control_c, 0, 64, 0
1, 604087, Control_c, 0, 64, 0
1, 604087, Control_c, 0, 64, 0
1, 604166, Control_c, 0, 64, 127
1, 604166, Control_c, 0, 64, 127
1, 604166, Control_c, 0, 64, 127
1, 604233, Note_on_c, 0, 60, 0
1, 604233, Note_on_c, 0, 66, 45
1, 604308, Control_c, 0, 64, 127
1, 604308, Control_c, 0, 64, 127
1, 604308, Control_c, 0, 64, 127
1, 604427, Control_c, 0, 64, 0
1, 604427, Control_c, 0, 64, 0
1, 604427, Control_c, 0, 64, 0
1, 604483, Note_on_c, 0, 66, 0
1, 604483, Note_on_c, 0, 70, 0
1, 604483, Note_on_c, 0, 70, 73
1, 604486, Note_on_c, 0, 37, 68
1, 604494, Note_on_c, 0, 39, 0
1, 604614, Control_c, 0, 64, 0
1, 604614, Control_c, 0, 64, 0
1, 604614, Control_c, 0, 64, 0
1, 604703, Control_c, 0, 64, 127
1, 604703, Control_c, 0, 64, 127
1, 604703, Control_c, 0, 64, 127
1, 604764, Note_on_c, 0, 49, 45
1, 604951, Note_on_c, 0, 49, 0
1, 604951, Note_on_c, 0, 53, 45
1, 605124, Note_on_c, 0, 53, 0
1, 605124, Note_on_c, 0, 54, 45
1, 605296, Note_on_c, 0, 54, 0
1, 605296, Note_on_c, 0, 58, 45
1, 605469, Note_on_c, 0, 58, 0
1, 605469, Note_on_c, 0, 61, 45
1, 605642, Note_on_c, 0, 61, 0
1, 605642, Note_on_c, 0, 37, 0
1, 605642, Note_on_c, 0, 37, 63
1, 605749, Control_c, 0, 64, 0
1, 605749, Control_c, 0, 64, 0
1, 605749, Control_c, 0, 64, 0
1, 605856, Note_on_c, 0, 49, 45
1, 605877, Control_c, 0, 64, 127
1, 605877, Control_c, 0, 64, 127
1, 605877, Control_c, 0, 64, 127
1, 606029, Note_on_c, 0, 49, 0
1, 606029, Note_on_c, 0, 55, 45
1, 606201, Note_on_c, 0, 55, 0
1, 606201, Note_on_c, 0, 56, 45
1, 606374, Note_on_c, 0, 56, 0
1, 606374, Note_on_c, 0, 68, 66
1, 606374, Note_on_c, 0, 59, 45
1, 606382, Note_on_c, 0, 70, 0
1, 606570, Note_on_c, 0, 59, 0
1, 606570, Note_on_c, 0, 63, 45
1, 606765, Note_on_c, 0, 63, 0
1, 606765, Note_on_c, 0, 37, 0
1, 606765, Note_on_c, 0, 66, 70
1, 606768, Note_on_c, 0, 37, 59
1, 606776, Note_on_c, 0, 68, 0
1, 607046, Control_c, 0, 64, 127
1, 607046, Control_c, 0, 64, 127
1, 607046, Control_c, 0, 64, 127
1, 607049, Note_on_c, 0, 49, 45
1, 607241, Note_on_c, 0, 49, 0
1, 607241, Note_on_c, 0, 57, 45
1, 607428, Note_on_c, 0, 57, 0
1, 607428, Note_on_c, 0, 58, 45
1, 607601, Note_on_c, 0, 58, 0
1, 607601, Note_on_c, 0, 60, 45
1, 607774, Note_on_c, 0, 60, 0
1, 607774, Note_on_c, 0, 61, 45
1, 607904, Control_c, 0, 64, 0
1, 607904, Control_c, 0, 64, 0
1, 607904, Control_c, 0, 64, 0
1, 607947, Note_on_c, 0, 61, 0
1, 607947, Note_on_c, 0, 65, 62
1, 607947, Note_on_c, 0, 49, 45
1, 607955, Note_on_c, 0, 66, 0
1, 608161, Note_on_c, 0, 49, 0
1, 608161, Note_on_c, 0, 53, 45
1, 608169, Control_c, 0, 64, 127
1, 608169, Control_c, 0, 64, 127
1, 608169, Control_c, 0, 64, 127
1, 608348, Note_on_c, 0, 53, 0
1, 608348, Note_on_c, 0, 55, 45
1, 608427, Control_c, 0, 64, 0
1, 608427, Control_c, 0, 64, 0
1, 608427, Control_c, 0, 64, 0
1, 608521, Note_on_c, 0, 55, 0
1, 608521, Note_on_c, 0, 56, 45
1, 608533, Control_c, 0, 64, 127
1, 608533, Control_c, 0, 64, 127
1, 608533, Control_c, 0, 64, 127
1, 608693, Note_on_c, 0, 56, 0
1, 608693, Note_on_c, 0, 56, 45
1, 608693, Note_on_c, 0, 35, 60
1, 608701, Note_on_c, 0, 37, 0
1, 608791, Control_c, 0, 64, 127
1, 608791, Control_c, 0, 64, 127
1, 608791, Control_c, 0, 64, 127
1, 608889, Note_on_c, 0, 61, 45
1, 608900, Note_on_c, 0, 56, 0
1, 609011, Control_c, 0, 64, 0
1, 609011, Control_c, 0, 64, 0
1, 609011, Control_c, 0, 64, 0
1, 609084, Note_on_c, 0, 66, 66
1, 609084, Note_on_c, 0, 34, 60
1, 609092, Note_on_c, 0, 65, 0
1, 609096, Note_on_c, 0, 61, 0
1, 609096, Note_on_c, 0, 35, 0
1, 609196, Control_c, 0, 64, 127
1, 609196, Control_c, 0, 64, 127
1, 609196, Control_c, 0, 64, 127
1, 609279, Note_on_c, 0, 46, 45
1, 609467, Note_on_c, 0, 46, 0
1, 609467, Note_on_c, 0, 48, 45
1, 609639, Note_on_c, 0, 48, 0
1, 609639, Note_on_c, 0, 49, 45
1, 609812, Note_on_c, 0, 49, 0
1, 609812, Note_on_c, 0, 54, 45
1, 609985, Note_on_c, 0, 54, 0
1, 609985, Note_on_c, 0, 61, 45
1, 610158, Note_on_c, 0, 61, 0
1, 610158, Note_on_c, 0, 32, 60
1, 610167, Note_on_c, 0, 34, 0
1, 610193, Control_c, 0, 64, 0
1, 610193, Control_c, 0, 64, 0
1, 610193, Control_c, 0, 64, 0
1, 610383, Note_on_c, 0, 44, 45
1, 610448, Control_c, 0, 64, 127
1, 610448, Control_c, 0, 64, 127
1, 610448, Control_c, 0, 64, 127
1, 610578, Note_on_c, 0, 44, 0
1, 610578, Note_on_c, 0, 50, 47
1, 610751, Note_on_c, 0, 50, 0
1, 610751, Note_on_c, 0, 51, 50
1, 610923, Note_on_c, 0, 51, 0
1, 610923, Note_on_c, 0, 63, 74
1, 610923, Note_on_c, 0, 54, 51
1, 610933, Note_on_c, 0, 66, 0
1, 611137, Note_on_c, 0, 54, 0
1, 611137, Note_on_c, 0, 60, 54
1, 611319, Control_c, 0, 64, 0
1, 611319, Control_c, 0, 64, 0
1, 611319, Control_c, 0, 64, 0
1, 611418, Note_on_c, 0, 60, 0
1, 611418, Note_on_c, 0, 73, 78
1, 611418, Note_on_c, 0, 34, 63
1, 611429, Note_on_c, 0, 63, 0
1, 611429, Note_on_c, 0, 32, 0
1, 611679, Control_c, 0, 64, 127
1, 611679, Control_c, 0, 64, 127
1, 611679, Control_c, 0, 64, 127
1, 611699, Note_on_c, 0, 42, 47
1, 611886, Note_on_c, 0, 42, 0
1, 611886, Note_on_c, 0, 53, 47
1, 612059, Note_on_c, 0, 53, 0
1, 612059, Note_on_c, 0, 54, 47
1, 612232, Note_on_c, 0, 54, 0
1, 612232, Note_on_c, 0, 61, 47
1, 612405, Note_on_c, 0, 61, 0
1, 612405, Note_on_c, 0, 66, 47
1, 612577, Note_on_c, 0, 66, 0
1, 612577, Note_on_c, 0, 71, 75
1, 612577, Note_on_c, 0, 46, 47
1, 612584, Note_on_c, 0, 73, 0
1, 612750, Note_on_c, 0, 46, 0
1, 612750, Note_on_c, 0, 49, 47
1, 612923, Note_on_c, 0, 49, 0
1, 612923, Note_on_c, 0, 53, 47
1, 613096, Note_on_c, 0, 53, 0
1, 613096, Note_on_c, 0, 54, 47
1, 613269, Note_on_c, 0, 54, 0
1, 613269, Note_on_c, 0, 70, 73
1, 613269, Note_on_c, 0, 61, 47
1, 613272, Note_on_c, 0, 30, 58
1, 613278, Note_on_c, 0, 71, 0
1, 613278, Note_on_c, 0, 34, 0
1, 613518, Note_on_c, 0, 61, 0
1, 613518, Note_on_c, 0, 66, 47
1, 613699, Control_c, 0, 64, 0
1, 613699, Control_c, 0, 64, 0
1, 613699, Control_c, 0, 64, 0
1, 613768, Note_on_c, 0, 66, 0
1, 613768, Note_on_c, 0, 70, 0
1, 613768, Note_on_c, 0, 70, 75
1, 613771, Note_on_c, 0, 40, 65
1, 613778, Note_on_c, 0, 30, 0
1, 613863, Control_c, 0, 64, 0
1, 613863, Control_c, 0, 64, 0
1, 613863, Control_c, 0, 64, 0
1, 614006, Control_c, 0, 64, 127
1, 614006, Control_c, 0, 64, 127
1, 614006, Control_c, 0, 64, 127
1, 614017, Note_on_c, 0, 52, 41
1, 614190, Note_on_c, 0, 52, 0
1, 614190, Note_on_c, 0, 54, 41
1, 614363, Note_on_c, 0, 58, 41
1, 614536, Note_on_c, 0, 60, 41
1, 614709, Note_on_c, 0, 60, 0
1, 614709, Note_on_c, 0, 61, 41
1, 614881, Control_c, 0, 64, 0
1, 614881, Control_c, 0, 64, 0
1, 614881, Control_c, 0, 64, 0
1, 614884, Note_on_c, 0, 39, 57
1, 614890, Note_on_c, 0, 40, 0
1, 615106, Control_c, 0, 64, 127
1, 615106, Control_c, 0, 64, 127
1, 615106, Control_c, 0, 64, 127
1, 615109, Note_on_c, 0, 61, 0
1, 615109, Note_on_c, 0, 58, 0
1, 615109, Note_on_c, 0, 54, 0
1, 615112, Note_on_c, 0, 51, 41
1, 615331, Note_on_c, 0, 51, 0
1, 615331, Note_on_c, 0, 68, 71
1, 615331, Note_on_c, 0, 54, 41
1, 615338, Note_on_c, 0, 70, 0
1, 615518, Note_on_c, 0, 54, 0
1, 615518, Note_on_c, 0, 56, 41
1, 615705, Control_c, 0, 64, 0
1, 615705, Note_on_c, 0, 66, 71
1, 615705, Control_c, 0, 64, 0
1, 615708, Note_on_c, 0, 56, 0
1, 615708, Control_c, 0, 64, 0
1, 615708, Note_on_c, 0, 59, 41
1, 615711, Note_on_c, 0, 39, 0
1, 615711, Note_on_c, 0, 68, 0
1, 615711, Note_on_c, 0, 37, 56
1, 615851, Control_c, 0, 64, 127
1, 615851, Control_c, 0, 64, 127
1, 615851, Control_c, 0, 64, 127
1, 615919, Note_on_c, 0, 59, 0
1, 615919, Note_on_c, 0, 63, 41
1, 615958, Control_c, 0, 64, 127
1, 615958, Control_c, 0, 64, 127
1, 615958, Control_c, 0, 64, 127
1, 616144, Note_on_c, 0, 63, 0
1, 616144, Note_on_c, 0, 66, 0
1, 616144, Note_on_c, 0, 66, 70
1, 616147, Note_on_c, 0, 37, 0
1, 616147, Note_on_c, 0, 37, 56
1, 616249, Control_c, 0, 64, 0
1, 616249, Control_c, 0, 64, 0
1, 616249, Control_c, 0, 64, 0
1, 616368, Control_c, 0, 64, 127
1, 616368, Control_c, 0, 64, 127
1, 616368, Control_c, 0, 64, 127
1, 616371, Note_on_c, 0, 49, 41
1, 616541, Note_on_c, 0, 49, 0
1, 616541, Note_on_c, 0, 53, 41
1, 616714, Note_on_c, 0, 53, 0
1, 616714, Note_on_c, 0, 54, 41
1, 616887, Note_on_c, 0, 54, 0
1, 616887, Note_on_c, 0, 58, 41
1, 617059, Note_on_c, 0, 58, 0
1, 617059, Note_on_c, 0, 61, 41
1, 617223, Control_c, 0, 64, 0
1, 617223, Control_c, 0, 64, 0
1, 617223, Control_c, 0, 64, 0
1, 617232, Note_on_c, 0, 61, 0
1, 617232, Note_on_c, 0, 65, 67
1, 617232, Note_on_c, 0, 49, 41
1, 617240, Note_on_c, 0, 66, 0
1, 617389, Control_c, 0, 64, 127
1, 617389, Control_c, 0, 64, 127
1, 617389, Control_c, 0, 64, 127
1, 617437, Note_on_c, 0, 49, 0
1, 617437, Note_on_c, 0, 53, 41
1, 617624, Note_on_c, 0, 53, 0
1, 617624, Note_on_c, 0, 56, 41
1, 617624, Note_on_c, 0, 35, 54
1, 617630, Note_on_c, 0, 37, 0
1, 617797, Note_on_c, 0, 56, 0
1, 617797, Note_on_c, 0, 61, 41
1, 617969, Note_on_c, 0, 61, 0
1, 617969, Note_on_c, 0, 66, 65
1, 617969, Note_on_c, 0, 54, 41
1, 617972, Note_on_c, 0, 35, 0
1, 617972, Note_on_c, 0, 34, 53
1, 617977, Note_on_c, 0, 65, 0
1, 617999, Control_c, 0, 64, 0
1, 617999, Control_c, 0, 64, 0
1, 617999, Control_c, 0, 64, 0
1, 618106, Control_c, 0, 64, 127
1, 618106, Control_c, 0, 64, 127
1, 618106, Control_c, 0, 64, 127
1, 618165, Note_on_c, 0, 54, 0
1, 618165, Note_on_c, 0, 61, 41
1, 618359, Note_on_c, 0, 61, 0
1, 618359, Note_on_c, 0, 66, 0
1, 618359, Note_on_c, 0, 34, 0
1, 618359, Note_on_c, 0, 66, 64
1, 618359, Control_c, 0, 64, 127
1, 618359, Note_on_c, 0, 34, 53
1, 618458, Control_c, 0, 64, 0
1, 618458, Control_c, 0, 64, 0
1, 618458, Control_c, 0, 64, 0
1, 618555, Note_on_c, 0, 46, 41
1, 618588, Control_c, 0, 64, 127
1, 618588, Control_c, 0, 64, 127
1, 618588, Control_c, 0, 64, 127
1, 618751, Note_on_c, 0, 46, 0
1, 618751, Note_on_c, 0, 48, 41
1, 618923, Note_on_c, 0, 48, 0
1, 618923, Note_on_c, 0, 49, 41
1, 619096, Note_on_c, 0, 49, 0
1, 619096, Note_on_c, 0, 54, 41
1, 619269, Note_on_c, 0, 54, 0
1, 619269, Note_on_c, 0, 61, 41
1, 619442, Control_c, 0, 64, 0
1, 619442, Control_c, 0, 64, 0
1, 619442, Control_c, 0, 64, 0
1, 619445, Note_on_c, 0, 61, 0
1, 619445, Note_on_c, 0, 33, 52
1, 619449, Note_on_c, 0, 34, 0
1, 619540, Control_c, 0, 64, 127
1, 619540, Control_c, 0, 64, 127
1, 619540, Control_c, 0, 64, 127
1, 619637, Note_on_c, 0, 45, 45
1, 619824, Note_on_c, 0, 45, 0
1, 619824, Note_on_c, 0, 48, 45
1, 619997, Note_on_c, 0, 51, 45
1, 620004, Note_on_c, 0, 48, 0
1, 620078, Control_c, 0, 64, 127
1, 620078, Control_c, 0, 64, 127
1, 620078, Control_c, 0, 64, 127
1, 620170, Note_on_c, 0, 54, 45
1, 620177, Note_on_c, 0, 51, 0
1, 620343, Note_on_c, 0, 63, 45
1, 620350, Note_on_c, 0, 54, 0
1, 620496, Control_c, 0, 64, 0
1, 620496, Control_c, 0, 64, 0
1, 620496, Control_c, 0, 64, 0
1, 620516, Note_on_c, 0, 34, 53
1, 620524, Note_on_c, 0, 63, 0
1, 620524, Note_on_c, 0, 33, 0
1, 620691, Control_c, 0, 64, 127
1, 620691, Control_c, 0, 64, 127
1, 620691, Control_c, 0, 64, 127
1, 620720, Note_on_c, 0, 46, 41
1, 620893, Note_on_c, 0, 46, 0
1, 620893, Note_on_c, 0, 48, 41
1, 621065, Note_on_c, 0, 48, 0
1, 621065, Note_on_c, 0, 49, 41
1, 621238, Note_on_c, 0, 49, 0
1, 621238, Note_on_c, 0, 54, 41
1, 621442, Note_on_c, 0, 54, 0
1, 621442, Note_on_c, 0, 61, 41
1, 621723, Note_on_c, 0, 66, 0
1, 621723, Control_c, 0, 64, 0
1, 621723, Note_on_c, 0, 75, 76
1, 621726, Note_on_c, 0, 34, 0
1, 621726, Control_c, 0, 64, 0
1, 621726, Control_c, 0, 64, 0
1, 621729, Note_on_c, 0, 61, 0
1, 621729, Note_on_c, 0, 33, 52
1, 621871, Control_c, 0, 64, 127
1, 621871, Control_c, 0, 64, 127
1, 621871, Control_c, 0, 64, 127
1, 621973, Note_on_c, 0, 45, 45
1, 622187, Note_on_c, 0, 45, 0
1, 622187, Note_on_c, 0, 48, 45
1, 622391, Note_on_c, 0, 48, 0
1, 622391, Note_on_c, 0, 54, 45
1, 622586, Note_on_c, 0, 54, 0
1, 622586, Note_on_c, 0, 63, 45
1, 622782, Note_on_c, 0, 63, 0
1, 622782, Note_on_c, 0, 66, 45
1, 622878, Note_on_c, 0, 61, 53
1, 622940, Note_on_c, 0, 66, 53
1, 622947, Control_c, 0, 64, 0
1, 622947, Control_c, 0, 64, 0
1, 622947, Control_c, 0, 64, 0
1, 623001, Note_on_c, 0, 70, 53
1, 623062, Note_on_c, 0, 66, 0
1, 623062, Note_on_c, 0, 75, 0
1, 623062, Note_on_c, 0, 73, 64
1, 623065, Note_on_c, 0, 33, 0
1, 623065, Note_on_c, 0, 30, 53
1, 623287, Control_c, 0, 64, 127
1, 623287, Control_c, 0, 64, 127
1, 623287, Control_c, 0, 64, 127
1, 623343, Note_on_c, 0, 34, 41
1, 623568, Note_on_c, 0, 66, 0
1, 623568, Note_on_c, 0, 61, 0
1, 623568, Note_on_c, 0, 70, 0
1, 623571, Note_on_c, 0, 34, 0
1, 623571, Note_on_c, 0, 46, 41
1, 623782, Note_on_c, 0, 46, 0
1, 623782, Note_on_c, 0, 49, 41
1, 623986, Note_on_c, 0, 49, 0
1, 623986, Note_on_c, 0, 54, 41
1, 624190, Note_on_c, 0, 54, 0
1, 624190, Note_on_c, 0, 57, 41
1, 624276, Note_on_c, 0, 58, 46
1, 624331, Note_on_c, 0, 61, 46
1, 624385, Note_on_c, 0, 66, 46
1, 624440, Note_on_c, 0, 30, 0
1, 624440, Note_on_c, 0, 73, 0
1, 624440, Note_on_c, 0, 70, 54
1, 624443, Note_on_c, 0, 57, 0
1, 624689, Note_on_c, 0, 30, 41
1, 624939, Note_on_c, 0, 37, 41
1, 625220, Note_on_c, 0, 46, 41
1, 625501, Note_on_c, 0, 49, 41
1, 625781, Note_on_c, 0, 53, 41
1, 626006, Control_c, 0, 64, 0
1, 626006, Control_c, 0, 64, 0
1, 626006, Control_c, 0, 64, 0
1, 626062, Note_on_c, 0, 66, 0
1, 626062, Note_on_c, 0, 58, 0
1, 626062, Note_on_c, 0, 61, 0
1, 626065, Note_on_c, 0, 70, 0
1, 626065, Note_on_c, 0, 30, 0
1, 626065, Note_on_c, 0, 42, 41
1, 626132, Note_on_c, 0, 54, 41
1, 626156, Control_c, 0, 64, 0
1, 626156, Control_c, 0, 64, 0
1, 626156, Control_c, 0, 64, 0
1, 626203, Note_on_c, 0, 58, 41
1, 626273, Note_on_c, 0, 61, 41
1, 626343, Control_c, 0, 64, 0
1, 626343, Control_c, 0, 64, 0
1, 626343, Control_c, 0, 64, 0
1, 626346, Note_on_c, 0, 46, 0
1, 626346, Note_on_c, 0, 49, 0
1, 626346, Note_on_c, 0, 37, 0
1, 626349, Note_on_c, 0, 53, 0
1, 626349, Note_on_c, 0, 66, 59
1, 626574, Control_c, 0, 64, 127
1, 626574, Control_c, 0, 64, 127
1, 626574, Control_c, 0, 64, 127
1, 627380, Note_on_c, 0, 66, 0
1, 627380, Note_on_c, 0, 61, 0
1, 627380, Note_on_c, 0, 58, 0
1, 627383, Note_on_c, 0, 37, 39
1, 627383, Note_on_c, 0, 49, 51
1, 627387, Note_on_c, 0, 54, 0
1, 627387, Note_on_c, 0, 42, 0
1, 627387, Control_c, 0, 64, 0
1, 627387, Control_c, 0, 64, 0
1, 627387, Control_c, 0, 64, 0
1, 627569, Control_c, 0, 64, 127
1, 627569, Control_c, 0, 64, 127
1, 627569, Control_c, 0, 64, 127
1, 628415, Control_c, 0, 64, 127
1, 628415, Note_on_c, 0, 39, 42
1, 628415, Note_on_c, 0, 51, 54
1, 628423, Note_on_c, 0, 37, 0
1, 628423, Note_on_c, 0, 49, 0
1, 628470, Control_c, 0, 64, 0
1, 628470, Control_c, 0, 64, 0
1, 628470, Control_c, 0, 64, 0
1, 628683, Control_c, 0, 64, 127
1, 628683, Control_c, 0, 64, 127
1, 628683, Control_c, 0, 64, 127
1, 629108, Note_on_c, 0, 66, 48
1, 629108, Note_on_c, 0, 70, 68
1, 629443, Control_c, 0, 64, 0
1, 629443, Control_c, 0, 64, 0
1, 629443, Control_c, 0, 64, 0
1, 629453, Note_on_c, 0, 59, 39
1, 629453, Note_on_c, 0, 63, 48
1, 629453, Note_on_c, 0, 35, 33
1, 629456, Note_on_c, 0, 47, 45
1, 629460, Note_on_c, 0, 39, 0
1, 629460, Note_on_c, 0, 51, 0
1, 629732, Control_c, 0, 64, 127
1, 629732, Control_c, 0, 64, 127
1, 629732, Control_c, 0, 64, 127
1, 630145, Note_on_c, 0, 68, 48
1, 630151, Note_on_c, 0, 70, 0
1, 630416, Control_c, 0, 64, 0
1, 630416, Control_c, 0, 64, 0
1, 630416, Control_c, 0, 64, 0
1, 630490, Note_on_c, 0, 59, 0
1, 630490, Note_on_c, 0, 66, 0
1, 630490, Note_on_c, 0, 63, 0
1, 630493, Note_on_c, 0, 37, 33
1, 630493, Note_on_c, 0, 49, 45
1, 630497, Note_on_c, 0, 47, 0
1, 630497, Note_on_c, 0, 68, 0
1, 630497, Note_on_c, 0, 35, 0
1, 630790, Control_c, 0, 64, 127
1, 630790, Control_c, 0, 64, 127
1, 630790, Control_c, 0, 64, 127
1, 631527, Note_on_c, 0, 37, 0
1, 631527, Note_on_c, 0, 49, 0
1, 631527, Note_on_c, 0, 37, 39
1, 631530, Note_on_c, 0, 49, 39
1, 632218, Note_on_c, 0, 59, 48
1, 632218, Note_on_c, 0, 65, 60
1, 632517, Control_c, 0, 64, 0
1, 632517, Control_c, 0, 64, 0
1, 632517, Control_c, 0, 64, 0
1, 632564, Note_on_c, 0, 30, 35
1, 632564, Note_on_c, 0, 42, 35
1, 632571, Note_on_c, 0, 49, 0
1, 632571, Note_on_c, 0, 37, 0
1, 632737, Control_c, 0, 64, 127
1, 632737, Control_c, 0, 64, 127
1, 632737, Control_c, 0, 64, 127
1, 633255, Note_on_c, 0, 58, 28
1, 633255, Note_on_c, 0, 66, 40
1, 633262, Note_on_c, 0, 65, 0
1, 633262, Note_on_c, 0, 59, 0
1, 633298, Control_c, 0, 64, 0
1, 633298, Control_c, 0, 64, 0
1, 633298, Control_c, 0, 64, 0
1, 633946, Note_on_c, 0, 58, 0
1, 633946, Note_on_c, 0, 66, 0
1, 634637, Note_on_c, 0, 42, 0
1, 634637, Note_on_c, 0, 30, 0
1, 634637, Note_on_c, 0, 42, 42
1, 634640, Note_on_c, 0, 54, 54
1, 634691, Control_c, 0, 64, 0
1, 634691, Control_c, 0, 64, 0
1, 634691, Control_c, 0, 64, 0
1, 634694, Control_c, 0, 64, 0
1, 634694, Control_c, 0, 64, 0
1, 634694, Control_c, 0, 64, 0
1, 634903, Control_c, 0, 64, 127
1, 634903, Control_c, 0, 64, 127
1, 634903, Control_c, 0, 64, 127
1, 634906, Control_c, 0, 64, 127
1, 634906, Control_c, 0, 64, 127
1, 634906, Control_c, 0, 64, 127
1, 635663, Control_c, 0, 64, 0
1, 635663, Control_c, 0, 64, 0
1, 635663, Control_c, 0, 64, 0
1, 635666, Control_c, 0, 64, 0
1, 635666, Control_c, 0, 64, 0
1, 635666, Control_c, 0, 64, 0
1, 635674, Note_on_c, 0, 37, 33
1, 635674, Note_on_c, 0, 49, 45
1, 635681, Note_on_c, 0, 54, 0
1, 635681, Note_on_c, 0, 42, 0
1, 635953, Control_c, 0, 64, 127
1, 635953, Control_c, 0, 64, 127
1, 635953, Control_c, 0, 64, 127
1, 635956, Control_c, 0, 64, 127
1, 635956, Control_c, 0, 64, 127
1, 635956, Control_c, 0, 64, 127
1, 636637, Control_c, 0, 64, 0
1, 636637, Control_c, 0, 64, 0
1, 636637, Control_c, 0, 64, 0
1, 636640, Control_c, 0, 64, 0
1, 636640, Control_c, 0, 64, 0
1, 636640, Control_c, 0, 64, 0
1, 636711, Note_on_c, 0, 39, 42
1, 636711, Note_on_c, 0, 51, 54
1, 636718, Note_on_c, 0, 37, 0
1, 636718, Note_on_c, 0, 49, 0
1, 636764, Control_c, 0, 64, 0
1, 636764, Control_c, 0, 64, 0
1, 636764, Control_c, 0, 64, 0
1, 636977, Control_c, 0, 64, 127
1, 636977, Control_c, 0, 64, 127
1, 636977, Control_c, 0, 64, 127
1, 637011, Control_c, 0, 64, 127
1, 637011, Control_c, 0, 64, 127
1, 637011, Control_c, 0, 64, 127
1, 637402, Note_on_c, 0, 70, 56
1, 637402, Note_on_c, 0, 73, 80
1, 637765, Control_c, 0, 64, 0
1, 637765, Control_c, 0, 64, 0
1, 637765, Control_c, 0, 64, 0
1, 637777, Note_on_c, 0, 63, 39
1, 637777, Note_on_c, 0, 66, 48
1, 637777, Note_on_c, 0, 35, 33
1, 637780, Note_on_c, 0, 47, 45
1, 637784, Note_on_c, 0, 39, 0
1, 637784, Note_on_c, 0, 51, 0
1, 638079, Control_c, 0, 64, 127
1, 638079, Control_c, 0, 64, 127
1, 638079, Control_c, 0, 64, 127
1, 638525, Note_on_c, 0, 71, 55
1, 638533, Note_on_c, 0, 73, 0
1, 638820, Control_c, 0, 64, 0
1, 638820, Control_c, 0, 64, 0
1, 638820, Control_c, 0, 64, 0
1, 638849, Control_c, 0, 64, 0
1, 638849, Control_c, 0, 64, 0
1, 638849, Control_c, 0, 64, 0
1, 638900, Note_on_c, 0, 63, 0
1, 638900, Note_on_c, 0, 70, 0
1, 638900, Note_on_c, 0, 66, 0
1, 638903, Note_on_c, 0, 42, 41
1, 638903, Note_on_c, 0, 54, 53
1, 638908, Note_on_c, 0, 47, 0
1, 638908, Note_on_c, 0, 71, 0
1, 638908, Note_on_c, 0, 35, 0
1, 639104, Control_c, 0, 64, 127
1, 639104, Control_c, 0, 64, 127
1, 639104, Control_c, 0, 64, 127
1, 639254, Control_c, 0, 64, 127
1, 639254, Control_c, 0, 64, 127
1, 639254, Control_c, 0, 64, 127
1, 639768, Control_c, 0, 64, 0
1, 639768, Control_c, 0, 64, 0
1, 639768, Control_c, 0, 64, 0
1, 640125, Note_on_c, 0, 42, 0
1, 640125, Note_on_c, 0, 54, 0
1, 640125, Note_on_c, 0, 41, 33
1, 640128, Note_on_c, 0, 53, 45
1, 640816, Note_on_c, 0, 63, 48
1, 640816, Note_on_c, 0, 69, 60
1, 641154, Control_c, 0, 64, 0
1, 641154, Control_c, 0, 64, 0
1, 641154, Control_c, 0, 64, 0
1, 641207, Note_on_c, 0, 34, 33
1, 641207, Note_on_c, 0, 46, 45
1, 641215, Note_on_c, 0, 53, 0
1, 641215, Note_on_c, 0, 41, 0
1, 641411, Control_c, 0, 64, 127
1, 641411, Control_c, 0, 64, 127
1, 641411, Control_c, 0, 64, 127
1, 642024, Note_on_c, 0, 61, 28
1, 642024, Note_on_c, 0, 70, 40
1, 642032, Note_on_c, 0, 69, 0
1, 642032, Note_on_c, 0, 63, 0
1, 642075, Control_c, 0, 64, 0
1, 642075, Control_c, 0, 64, 0
1, 642075, Control_c, 0, 64, 0
1, 642841, Note_on_c, 0, 61, 0
1, 642841, Note_on_c, 0, 70, 0
1, 643532, Note_on_c, 0, 46, 0
1, 643532, Note_on_c, 0, 34, 0
1, 643532, Note_on_c, 0, 46, 45
1, 643535, Note_on_c, 0, 58, 52
1, 644223, Note_on_c, 0, 63, 53
1, 644223, Note_on_c, 0, 65, 53
1, 644223, Note_on_c, 0, 72, 66
1, 644396, Control_c, 0, 64, 127
1, 644396, Control_c, 0, 64, 127
1, 644569, Note_on_c, 0, 45, 48
1, 644569, Note_on_c, 0, 57, 55
1, 644576, Note_on_c, 0, 58, 0
1, 644576, Note_on_c, 0, 46, 0
1, 645176, Control_c, 0, 64, 0
1, 645176, Control_c, 0, 64, 0
1, 645260, Note_on_c, 0, 61, 49
1, 645260, Note_on_c, 0, 73, 62
1, 645260, Note_on_c, 0, 46, 50
1, 645263, Note_on_c, 0, 58, 57
1, 645267, Note_on_c, 0, 63, 0
1, 645267, Note_on_c, 0, 72, 0
1, 645267, Note_on_c, 0, 45, 0
1, 645270, Note_on_c, 0, 57, 0
1, 645423, Control_c, 0, 64, 127
1, 645423, Control_c, 0, 64, 127
1, 645602, Control_c, 0, 64, 0
1, 645606, Note_on_c, 0, 73, 0
1, 645606, Note_on_c, 0, 65, 0
1, 645606, Note_on_c, 0, 61, 0
1, 645609, Note_on_c, 0, 44, 57
1, 645609, Note_on_c, 0, 56, 65
1, 645612, Note_on_c, 0, 46, 0
1, 645612, Note_on_c, 0, 58, 0
1, 646297, Note_on_c, 0, 65, 56
1, 646297, Note_on_c, 0, 71, 56
1, 646297, Note_on_c, 0, 74, 76
1, 646394, Control_c, 0, 64, 127
1, 646394, Control_c, 0, 64, 127
1, 647315, Control_c, 0, 64, 0
1, 647315, Control_c, 0, 64, 0
1, 647334, Note_on_c, 0, 71, 0
1, 647334, Note_on_c, 0, 66, 56
1, 647334, Note_on_c, 0, 72, 56
1, 647337, Note_on_c, 0, 75, 71
1, 647343, Note_on_c, 0, 65, 0
1, 647343, Note_on_c, 0, 74, 0
1, 647600, Control_c, 0, 64, 127
1, 647600, Control_c, 0, 64, 127
1, 647833, Note_on_c, 0, 72, 0
1, 647833, Note_on_c, 0, 66, 0
1, 647833, Note_on_c, 0, 75, 0
1, 647836, Note_on_c, 0, 46, 55
1, 647836, Note_on_c, 0, 58, 64
1, 647840, Note_on_c, 0, 56, 0
1, 647840, Note_on_c, 0, 44, 0
1, 647857, Control_c, 0, 64, 0
1, 647857, Control_c, 0, 64, 0
1, 648524, Note_on_c, 0, 61, 58
1, 648524, Note_on_c, 0, 66, 58
1, 648524, Note_on_c, 0, 73, 73
1, 648593, Control_c, 0, 64, 127
1, 648593, Control_c, 0, 64, 127
1, 648852, Control_c, 0, 64, 0
1, 648852, Control_c, 0, 64, 0
1, 648870, Note_on_c, 0, 66, 0
1, 648870, Note_on_c, 0, 63, 64
1, 648870, Note_on_c, 0, 66, 64
1, 648873, Note_on_c, 0, 72, 79
1, 648873, Note_on_c, 0, 45, 59
1, 648873, Note_on_c, 0, 57, 68
1, 648876, Note_on_c, 0, 61, 0
1, 648876, Note_on_c, 0, 73, 0
1, 648876, Note_on_c, 0, 46, 0
1, 648879, Note_on_c, 0, 58, 0
1, 649063, Control_c, 0, 64, 127
1, 649063, Control_c, 0, 64, 127
1, 649561, Note_on_c, 0, 66, 0
1, 649561, Note_on_c, 0, 61, 59
1, 649561, Note_on_c, 0, 66, 59
1, 649564, Note_on_c, 0, 73, 74
1, 649564, Note_on_c, 0, 46, 61
1, 649564, Note_on_c, 0, 58, 70
1, 649568, Note_on_c, 0, 63, 0
1, 649568, Note_on_c, 0, 72, 0
1, 649568, Note_on_c, 0, 45, 0
1, 649571, Note_on_c, 0, 57, 0
1, 649616, Control_c, 0, 64, 0
1, 649616, Control_c, 0, 64, 0
1, 649685, Control_c, 0, 64, 127
1, 649685, Control_c, 0, 64, 127
1, 649906, Note_on_c, 0, 66, 0
1, 649906, Note_on_c, 0, 61, 0
1, 649906, Note_on_c, 0, 73, 0
1, 649909, Note_on_c, 0, 41, 62
1, 649909, Note_on_c, 0, 53, 71
1, 649913, Note_on_c, 0, 58, 0
1, 649913, Note_on_c, 0, 46, 0
1, 649921, Control_c, 0, 64, 0
1, 649921, Control_c, 0, 64, 0
1, 650541, Control_c, 0, 64, 127
1, 650541, Control_c, 0, 64, 127
1, 650598, Note_on_c, 0, 70, 67
1, 650598, Note_on_c, 0, 73, 67
1, 650598, Note_on_c, 0, 76, 67
1, 650601, Note_on_c, 0, 79, 86
1, 651412, Control_c, 0, 64, 0
1, 651412, Control_c, 0, 64, 0
1, 651634, Control_c, 0, 64, 127
1, 651634, Note_on_c, 0, 68, 53
1, 651634, Note_on_c, 0, 77, 53
1, 651637, Note_on_c, 0, 80, 68
1, 651637, Control_c, 0, 64, 127
1, 651644, Note_on_c, 0, 79, 0
1, 651644, Note_on_c, 0, 70, 0
1, 651644, Note_on_c, 0, 76, 0
1, 651955, Control_c, 0, 64, 0
1, 651955, Control_c, 0, 64, 0
1, 652134, Note_on_c, 0, 77, 0
1, 652134, Note_on_c, 0, 73, 0
1, 652134, Note_on_c, 0, 68, 0
1, 652137, Note_on_c, 0, 80, 0
1, 652137, Note_on_c, 0, 46, 55
1, 652137, Note_on_c, 0, 58, 64
1, 652140, Note_on_c, 0, 53, 0
1, 652140, Note_on_c, 0, 41, 0
1, 652825, Note_on_c, 0, 63, 56
1, 652825, Note_on_c, 0, 65, 56
1, 652825, Note_on_c, 0, 72, 80
1, 653041, Control_c, 0, 64, 127
1, 653041, Control_c, 0, 64, 127
1, 653170, Note_on_c, 0, 45, 57
1, 653170, Note_on_c, 0, 57, 66
1, 653177, Note_on_c, 0, 46, 0
1, 653177, Note_on_c, 0, 58, 0
1, 653830, Control_c, 0, 64, 0
1, 653830, Control_c, 0, 64, 0
1, 653862, Note_on_c, 0, 62, 53
1, 653862, Note_on_c, 0, 74, 75
1, 653862, Note_on_c, 0, 46, 58
1, 653865, Note_on_c, 0, 58, 67
1, 653870, Note_on_c, 0, 63, 0
1, 653870, Note_on_c, 0, 72, 0
1, 653870, Note_on_c, 0, 45, 0
1, 653873, Note_on_c, 0, 57, 0
1, 654131, Control_c, 0, 64, 127
1, 654131, Control_c, 0, 64, 127
1, 654306, Control_c, 0, 64, 127
1, 654311, Note_on_c, 0, 74, 0
1, 654311, Note_on_c, 0, 65, 0
1, 654311, Note_on_c, 0, 62, 0
1, 654314, Note_on_c, 0, 62, 57
1, 654314, Note_on_c, 0, 65, 57
1, 654314, Note_on_c, 0, 74, 80
1, 654317, Note_on_c, 0, 46, 0
1, 654317, Note_on_c, 0, 58, 0
1, 654317, Note_on_c, 0, 46, 44
1, 654320, Note_on_c, 0, 58, 53
1, 655092, Note_on_c, 0, 65, 0
1, 655092, Note_on_c, 0, 74, 0
1, 655092, Note_on_c, 0, 62, 0
1, 655095, Note_on_c, 0, 65, 54
1, 655095, Note_on_c, 0, 68, 70
1, 655095, Note_on_c, 0, 38, 54
1, 655098, Note_on_c, 0, 46, 0
1, 655098, Note_on_c, 0, 58, 0
1, 655098, Note_on_c, 0, 50, 63
1, 655103, Control_c, 0, 64, 0
1, 655103, Control_c, 0, 64, 0
1, 655215, Control_c, 0, 64, 127
1, 655215, Control_c, 0, 64, 127
1, 656226, Control_c, 0, 64, 0
1, 656226, Control_c, 0, 64, 0
1, 656300, Note_on_c, 0, 63, 46
1, 656300, Note_on_c, 0, 66, 62
1, 656300, Note_on_c, 0, 39, 45
1, 656303, Note_on_c, 0, 51, 54
1, 656309, Note_on_c, 0, 68, 0
1, 656309, Note_on_c, 0, 38, 0
1, 656309, Note_on_c, 0, 65, 0
1, 656312, Note_on_c, 0, 50, 0
1, 656549, Control_c, 0, 64, 127
1, 656549, Control_c, 0, 64, 127
1, 656748, Note_on_c, 0, 63, 0
1, 656748, Note_on_c, 0, 66, 0
1, 656748, Control_c, 0, 64, 127
1, 656748, Note_on_c, 0, 41, 47
1, 656748, Note_on_c, 0, 53, 55
1, 656756, Note_on_c, 0, 51, 0
1, 656756, Note_on_c, 0, 39, 0
1, 656824, Control_c, 0, 64, 0
1, 656824, Control_c, 0, 64, 0
1, 657498, Note_on_c, 0, 57, 50
1, 657498, Note_on_c, 0, 61, 64
1, 657498, Note_on_c, 0, 63, 50
1, 657731, Control_c, 0, 64, 127
1, 657731, Control_c, 0, 64, 127
1, 657947, Note_on_c, 0, 41, 0
1, 657947, Note_on_c, 0, 53, 0
1, 657947, Note_on_c, 0, 41, 39
1, 657950, Note_on_c, 0, 53, 45
1, 658120, Note_on_c, 0, 61, 0
1, 658120, Note_on_c, 0, 63, 0
1, 658120, Note_on_c, 0, 57, 0
1, 658185, Control_c, 0, 64, 0
1, 658185, Control_c, 0, 64, 0
1, 658638, Note_on_c, 0, 57, 45
1, 658638, Note_on_c, 0, 60, 54
1, 658638, Note_on_c, 0, 63, 45
1, 658810, Control_c, 0, 64, 127
1, 658810, Control_c, 0, 64, 127
1, 659065, Note_on_c, 0, 41, 0
1, 659065, Note_on_c, 0, 53, 0
1, 659065, Control_c, 0, 64, 127
1, 659065, Note_on_c, 0, 34, 40
1, 659065, Note_on_c, 0, 46, 49
1, 659965, Control_c, 0, 64, 0
1, 659965, Note_on_c, 0, 58, 41
1, 659965, Note_on_c, 0, 61, 41
1, 659968, Control_c, 0, 64, 0
1, 659974, Note_on_c, 0, 60, 0
1, 659974, Note_on_c, 0, 63, 0
1, 659974, Note_on_c, 0, 57, 0
1, 660863, Note_on_c, 0, 61, 0
1, 660863, Note_on_c, 0, 58, 0
1, 661555, Note_on_c, 0, 34, 0
1, 661555, Note_on_c, 0, 46, 0
1, 661555, Note_on_c, 0, 34, 38
1, 661558, Note_on_c, 0, 46, 43
1, 662246, Note_on_c, 0, 68, 51
1, 662246, Note_on_c, 0, 74, 60
1, 662332, Control_c, 0, 64, 127
1, 662332, Control_c, 0, 64, 127
1, 662591, Note_on_c, 0, 46, 0
1, 662591, Note_on_c, 0, 34, 0
1, 662591, Note_on_c, 0, 34, 39
1, 662594, Note_on_c, 0, 46, 45
1, 662764, Note_on_c, 0, 68, 0
1, 662764, Note_on_c, 0, 74, 0
1, 662862, Control_c, 0, 64, 0
1, 662862, Control_c, 0, 64, 0
1, 663283, Note_on_c, 0, 68, 53
1, 663283, Note_on_c, 0, 74, 62
1, 663487, Control_c, 0, 64, 127
1, 663487, Control_c, 0, 64, 127
1, 663690, Control_c, 0, 64, 127
1, 663690, Note_on_c, 0, 35, 41
1, 663690, Note_on_c, 0, 47, 47
1, 663699, Note_on_c, 0, 34, 0
1, 663699, Note_on_c, 0, 46, 0
1, 663936, Control_c, 0, 64, 0
1, 663936, Control_c, 0, 64, 0
1, 664508, Note_on_c, 0, 66, 43
1, 664508, Note_on_c, 0, 75, 50
1, 664518, Note_on_c, 0, 74, 0
1, 664518, Note_on_c, 0, 68, 0
1, 664559, Control_c, 0, 64, 0
1, 664559, Control_c, 0, 64, 0
1, 665199, Note_on_c, 0, 66, 0
1, 665199, Note_on_c, 0, 75, 0
1, 665430, Control_c, 0, 64, 127
1, 665430, Control_c, 0, 64, 127
1, 665545, Note_on_c, 0, 39, 43
1, 665545, Note_on_c, 0, 51, 50
1, 665553, Note_on_c, 0, 47, 0
1, 665553, Note_on_c, 0, 35, 0
1, 665942, Control_c, 0, 64, 0
1, 665942, Control_c, 0, 64, 0
1, 665994, Note_on_c, 0, 42, 43
1, 665994, Note_on_c, 0, 54, 50
1, 666003, Note_on_c, 0, 39, 0
1, 666003, Note_on_c, 0, 51, 0
1, 666892, Note_on_c, 0, 63, 47
1, 666892, Note_on_c, 0, 70, 56
1, 667088, Control_c, 0, 64, 127
1, 667088, Control_c, 0, 64, 127
1, 667238, Note_on_c, 0, 41, 30
1, 667238, Note_on_c, 0, 53, 39
1, 667245, Note_on_c, 0, 42, 0
1, 667245, Note_on_c, 0, 54, 0
1, 667411, Note_on_c, 0, 70, 0
1, 667411, Note_on_c, 0, 63, 0
1, 667557, Control_c, 0, 64, 0
1, 667557, Control_c, 0, 64, 0
1, 667929, Note_on_c, 0, 63, 44
1, 667929, Note_on_c, 0, 68, 51
1, 668185, Control_c, 0, 64, 127
1, 668185, Control_c, 0, 64, 127
1, 668337, Control_c, 0, 64, 127
1, 668337, Note_on_c, 0, 34, 28
1, 668337, Note_on_c, 0, 46, 35
1, 668346, Note_on_c, 0, 53, 0
1, 668346, Note_on_c, 0, 41, 0
1, 668367, Control_c, 0, 64, 0
1, 668367, Control_c, 0, 64, 0
1, 669155, Note_on_c, 0, 62, 33
1, 669163, Note_on_c, 0, 63, 0
1, 669971, Note_on_c, 0, 68, 0
1, 669971, Note_on_c, 0, 62, 0
1, 670663, Note_on_c, 0, 34, 0
1, 670663, Note_on_c, 0, 46, 0
1, 670663, Note_on_c, 0, 42, 41
1, 670666, Note_on_c, 0, 54, 46
1, 671354, Note_on_c, 0, 58, 39
1, 671354, Note_on_c, 0, 63, 55
1, 671354, Note_on_c, 0, 66, 39
1, 671613, Control_c, 0, 64, 127
1, 671613, Control_c, 0, 64, 127
1, 671699, Note_on_c, 0, 37, 39
1, 671699, Note_on_c, 0, 49, 44
1, 671706, Note_on_c, 0, 54, 0
1, 671706, Note_on_c, 0, 42, 0
1, 671872, Note_on_c, 0, 63, 0
1, 671872, Note_on_c, 0, 66, 0
1, 671872, Note_on_c, 0, 58, 0
1, 672319, Control_c, 0, 64, 0
1, 672319, Control_c, 0, 64, 0
1, 672391, Note_on_c, 0, 58, 43
1, 672391, Note_on_c, 0, 64, 59
1, 672391, Note_on_c, 0, 66, 43
1, 672682, Control_c, 0, 64, 127
1, 672682, Control_c, 0, 64, 127
1, 672798, Control_c, 0, 64, 127
1, 672798, Note_on_c, 0, 39, 38
1, 672798, Note_on_c, 0, 51, 42
1, 672807, Note_on_c, 0, 49, 0
1, 672807, Note_on_c, 0, 37, 0
1, 672857, Control_c, 0, 64, 0
1, 672857, Control_c, 0, 64, 0
1, 673057, Control_c, 0, 64, 127
1, 673057, Control_c, 0, 64, 127
1, 673172, Control_c, 0, 64, 0
1, 673172, Control_c, 0, 64, 0
1, 673616, Note_on_c, 0, 59, 32
1, 673616, Note_on_c, 0, 63, 46
1, 673624, Note_on_c, 0, 64, 0
1, 673624, Note_on_c, 0, 58, 0
1, 674024, Note_on_c, 0, 35, 30
1, 674024, Note_on_c, 0, 47, 34
1, 674032, Note_on_c, 0, 39, 0
1, 674032, Note_on_c, 0, 51, 0
1, 674415, Note_on_c, 0, 59, 0
1, 674415, Note_on_c, 0, 66, 0
1, 674415, Note_on_c, 0, 63, 0
1, 675196, Note_on_c, 0, 37, 34
1, 675196, Note_on_c, 0, 49, 38
1, 675204, Note_on_c, 0, 47, 0
1, 675204, Note_on_c, 0, 35, 0
1, 676013, Note_on_c, 0, 54, 36
1, 676013, Note_on_c, 0, 58, 50
1, 676013, Note_on_c, 0, 61, 36
1, 676270, Control_c, 0, 64, 127
1, 676270, Control_c, 0, 64, 127
1, 676441, Note_on_c, 0, 37, 0
1, 676441, Note_on_c, 0, 25, 31
1, 676441, Note_on_c, 0, 37, 31
1, 676450, Note_on_c, 0, 49, 0
1, 676597, Control_c, 0, 64, 0
1, 676597, Control_c, 0, 64, 0
1, 676666, Note_on_c, 0, 61, 0
1, 676666, Note_on_c, 0, 58, 0
1, 676666, Note_on_c, 0, 54, 0
1, 677340, Note_on_c, 0, 53, 35
1, 677340, Note_on_c, 0, 56, 35
1, 677340, Note_on_c, 0, 59, 48
1, 677343, Note_on_c, 0, 61, 35
1, 677901, Note_on_c, 0, 30, 31
1, 677901, Note_on_c, 0, 42, 33
1, 677919, Note_on_c, 0, 37, 0
1, 677919, Note_on_c, 0, 25, 0
1, 679698, Note_on_c, 0, 54, 29
1, 679698, Note_on_c, 0, 58, 37
1, 679716, Note_on_c, 0, 56, 0
1, 679716, Note_on_c, 0, 59, 0
1, 679716, Note_on_c, 0, 53, 0
1, 682394, Note_on_c, 0, 61, 0
1, 682394, Note_on_c, 0, 58, 0
1, 682394, Note_on_c, 0, 54, 0
1, 682397, Note_on_c, 0, 42, 0
1, 682397, Note_on_c, 0, 30, 0
1, 683293, Control_c, 0, 64, 0
1, 683293, Control_c, 0, 64, 0
1, 683293, Control_c, 0, 64, 0
1, 683293, End_track
0, 0, End_of_file
