0, 0, Header, 1, 14, 480
1, 0, Start_track
1, 0, Title_t, "untitled"
1, 0, Copyright_t, "\012__________________________________________________________\012Kunst der Fuge comment: this is the Contributor's property.\012Can *not* be used for commercial purposes without authorization!\012Copyright by Contributor - Kunst der Fuge, © 2002-05\012http://www.kunstderfuge.com/thanks.htm -> Contributors' list\012http://www.kunstderfuge.com/notes.htm -> Terms & conditions"
1, 0, Text_t, "SB AWE32 MIDI Synth [620]\012"
1, 0, Text_t, "SB AWE32 MIDI Synth [620]\012"
1, 0, Text_t, "SB AWE32 MIDI Synth [620]\012"
1, 0, Text_t, "SB AWE32 MIDI Synth [620]\012"
1, 0, Text_t, "SB AWE32 MIDI Synth [620]\012"
1, 0, Text_t, "SB AWE32 MIDI Synth [620]\012"
1, 0, Text_t, "SB AWE32 MIDI Synth [620]\012"
1, 0, Text_t, "SB AWE32 MIDI Synth [620]\012"
1, 0, Time_signature, 2, 2, 24, 8
1, 0, Key_signature, 0, "major"
1, 0, Tempo, 600000
1, 0, Marker_t, "Brahms Piano Concerto #1, Piano Four Hands 1864"
1, 17344, Tempo, 606735
1, 19680, Tempo, 610438
1, 22016, Tempo, 588870
1, 23072, Tempo, 575319
1, 24896, Tempo, 568774
1, 27936, Tempo, 562377
1, 30688, Tempo, 595888
1, 30760, Marker_t, ""
1, 31232, Tempo, 592359
1, 33120, Tempo, 603076
1, 42272, Tempo, 625717
1, 47040, Tempo, 629657
1, 47264, Tempo, 625717
1, 49024, Tempo, 617983
1, 52736, Tempo, 603076
1, 53184, Tempo, 599460
1, 57152, Tempo, 614188
1, 59520, Tempo, 633647
1, 63360, Tempo, 711575
1, 63426, Tempo, 706547
1, 63487, Tempo, 701590
1, 63620, Marker_t, "A1"
1, 63840, Tempo, 716675
1, 63952, Tempo, 706547
1, 64040, Tempo, 701590
1, 64120, Tempo, 696702
1, 64200, Tempo, 691882
1, 64280, Tempo, 687128
1, 64344, Tempo, 677813
1, 65416, Tempo, 655594
1, 65760, Tempo, 716675
1, 65840, Tempo, 721848
1, 66064, Tempo, 691882
1, 66720, Tempo, 677813
1, 67200, Tempo, 668747
1, 70944, Tempo, 625717
1, 71552, Tempo, 629657
1, 72160, Tempo, 633647
1, 74888, Tempo, 651324
1, 75848, Tempo, 659921
1, 76792, Tempo, 677813
1, 77248, Tempo, 625717
1, 77256, Tempo, 651324
1, 79680, Tempo, 664305
1, 80648, Tempo, 677813
1, 82560, Tempo, 659921
1, 84448, Tempo, 654379
1, 88288, Tempo, 637687
1, 90720, Tempo, 625717
1, 92160, Tempo, 588870
1, 94100, Marker_t, ""
1, 95072, Tempo, 582016
1, 97856, Tempo, 575319
1, 102144, Tempo, 588870
1, 103680, Tempo, 603076
1, 107456, Tempo, 621826
1, 109408, Tempo, 637687
1, 109549, Marker_t, ""
1, 111872, Tempo, 614188
1, 113664, Tempo, 606735
1, 115680, Tempo, 599460
1, 117152, Tempo, 588870
1, 120896, Tempo, 633647
1, 121024, Tempo, 629657
1, 121120, Tempo, 625717
1, 121344, Tempo, 625717
1, 121664, Tempo, 621826
1, 121920, Tempo, 621826
1, 122816, Tempo, 637687
1, 123808, Tempo, 645925
1, 124768, Tempo, 663057
1, 127712, Tempo, 633647
1, 138208, Tempo, 592359
1, 138540, Marker_t, "A1"
1, 141568, Tempo, 595888
1, 145920, Tempo, 595888
1, 146144, Tempo, 599460
1, 146368, Tempo, 603076
1, 146560, Tempo, 606735
1, 147840, Tempo, 625717
1, 148800, Tempo, 629657
1, 149728, Tempo, 641780
1, 150688, Tempo, 654379
1, 152608, Tempo, 595888
1, 153600, Tempo, 592359
1, 153952, Tempo, 592359
1, 154272, Tempo, 595888
1, 155552, Tempo, 588870
1, 157408, Tempo, 578648
1, 158464, Tempo, 553046
1, 160352, Tempo, 599460
1, 160992, Tempo, 595888
1, 161344, Tempo, 588870
1, 164640, Tempo, 599460
1, 166080, Tempo, 606735
1, 167936, Tempo, 625717
1, 169504, Tempo, 637687
1, 171872, Tempo, 725602
1, 173280, Tempo, 667482
1, 173607, Tempo, 671968
1, 173647, Tempo, 707631
1, 173667, Marker_t, "A1"
1, 173687, Tempo, 747291
1, 173727, Tempo, 793231
1, 173767, Tempo, 767362
1, 173807, Tempo, 758629
1, 173847, Tempo, 750094
1, 173887, Tempo, 741748
1, 173927, Tempo, 733586
1, 173967, Tempo, 725602
1, 174007, Tempo, 717789
1, 174047, Tempo, 708885
1, 174087, Tempo, 701426
1, 174127, Tempo, 694123
1, 174167, Tempo, 686970
1, 174207, Tempo, 679964
1, 174247, Tempo, 673098
1, 174287, Tempo, 666371
1, 174327, Tempo, 658689
1, 174367, Tempo, 652245
1, 174407, Tempo, 645925
1, 174447, Tempo, 639727
1, 174487, Tempo, 633647
1, 174527, Tempo, 627681
1, 174567, Tempo, 621826
1, 174607, Tempo, 615132
1, 175647, Tempo, 747291
1, 175687, Tempo, 741748
1, 175727, Tempo, 736287
1, 175767, Tempo, 729572
1, 175807, Tempo, 724288
1, 175847, Tempo, 719080
1, 175887, Tempo, 712674
1, 175927, Tempo, 707631
1, 175967, Tempo, 702658
1, 176007, Tempo, 696541
1, 176047, Tempo, 691722
1, 176087, Tempo, 686970
1, 176127, Tempo, 681122
1, 176167, Tempo, 676514
1, 176207, Tempo, 671968
1, 176247, Tempo, 666371
1, 176287, Tempo, 661959
1, 176327, Tempo, 657606
1, 176367, Tempo, 652245
1, 176407, Tempo, 648018
1, 176447, Tempo, 643846
1, 176487, Tempo, 638706
1, 176527, Tempo, 634652
1, 176567, Tempo, 630650
1, 176607, Tempo, 625717
1, 176647, Tempo, 626697
1, 176687, Tempo, 627681
1, 176727, Tempo, 628667
1, 176767, Tempo, 630650
1, 176807, Tempo, 631645
1, 176847, Tempo, 632644
1, 176887, Tempo, 634652
1, 176927, Tempo, 635661
1, 176967, Tempo, 636672
1, 177007, Tempo, 637687
1, 177047, Tempo, 639727
1, 177087, Tempo, 640752
1, 177127, Tempo, 641780
1, 177167, Tempo, 643846
1, 177207, Tempo, 644884
1, 177247, Tempo, 645925
1, 177287, Tempo, 646970
1, 177327, Tempo, 649070
1, 177367, Tempo, 650125
1, 177407, Tempo, 651183
1, 177447, Tempo, 653310
1, 177487, Tempo, 654379
1, 177527, Tempo, 655451
1, 177567, Tempo, 657606
1, 177607, Tempo, 658689
1, 177647, Tempo, 659776
1, 177687, Tempo, 660866
1, 177727, Tempo, 663057
1, 177767, Tempo, 664158
1, 177807, Tempo, 665262
1, 177847, Tempo, 667482
1, 177887, Tempo, 668598
1, 177927, Tempo, 669718
1, 177967, Tempo, 670841
1, 178007, Tempo, 673098
1, 178047, Tempo, 674233
1, 178087, Tempo, 675371
1, 178127, Tempo, 677660
1, 178167, Tempo, 678810
1, 178207, Tempo, 679964
1, 178247, Tempo, 681122
1, 178287, Tempo, 683449
1, 178327, Tempo, 684619
1, 178367, Tempo, 685793
1, 178407, Tempo, 688152
1, 178447, Tempo, 689338
1, 178487, Tempo, 690528
1, 178527, Tempo, 692921
1, 180416, Tempo, 637687
1, 183328, Tempo, 650125
1, 185312, Tempo, 621826
1, 188160, Tempo, 645925
1, 188192, Tempo, 650125
1, 188594, Tempo, 663570
1, 189128, Tempo, 677048
1, 190080, Tempo, 691085
1, 191024, Tempo, 659196
1, 191120, Tempo, 663570
1, 192000, Tempo, 842460
1, 192080, Tempo, 771010
1, 192120, Tempo, 765111
1, 192128, Tempo, 720981
1, 192152, Tempo, 710732
1, 192288, Tempo, 705716
1, 192312, Tempo, 626174
1, 192456, Tempo, 642261
1, 193424, Tempo, 654879
1, 193920, Tempo, 668003
1, 194392, Tempo, 686342
1, 194400, Tempo, 705716
1, 195352, Tempo, 681663
1, 197000, Tempo, 663570
1, 197432, Tempo, 630120
1, 203520, Tempo, 585423
1, 205440, Tempo, 582016
1, 206272, Tempo, 578648
1, 208256, Tempo, 582016
1, 210240, Tempo, 588870
1, 212160, Tempo, 595888
1, 213056, Tempo, 617983
1, 213133, Marker_t, ""
1, 216032, Tempo, 595888
1, 216960, Marker_t, ""
1, 217920, Tempo, 582016
1, 220800, Tempo, 654379
1, 220864, Tempo, 621826
1, 228480, Tempo, 610438
1, 232288, Tempo, 599460
1, 241760, Tempo, 595888
1, 247220, Marker_t, ""
1, 247680, Tempo, 599460
1, 248160, Tempo, 603076
1, 248640, Tempo, 606735
1, 248736, Tempo, 585423
1, 253408, Tempo, 575319
1, 258144, Tempo, 606735
1, 258560, Tempo, 603076
1, 261120, Tempo, 592359
1, 263072, Tempo, 588870
1, 264064, Tempo, 595888
1, 264084, Marker_t, "A1"
1, 266624, Tempo, 592359
1, 270304, Tempo, 617983
1, 273920, Tempo, 610438
1, 281216, Tempo, 553046
1, 281248, Tempo, 582016
1, 281664, Tempo, 578648
1, 285568, Tempo, 588870
1, 286048, Tempo, 595888
1, 292800, Tempo, 603076
1, 295616, Tempo, 629657
1, 299520, Marker_t, "A1"
1, 301344, Tempo, 614188
1, 304192, Tempo, 595888
1, 321088, Tempo, 625717
1, 322560, Tempo, 606735
1, 325440, Tempo, 599460
1, 326272, Tempo, 603076
1, 327104, Tempo, 606735
1, 327368, Marker_t, ""
1, 329152, Tempo, 595888
1, 331232, Tempo, 610438
1, 333856, Tempo, 706880
1, 334080, Tempo, 667482
1, 334083, Tempo, 711913
1, 334128, Marker_t, ""
1, 334552, Tempo, 664599
1, 335648, Tempo, 667482
1, 336456, Tempo, 701919
1, 337920, Tempo, 687443
1, 338848, Tempo, 654379
1, 338880, Tempo, 654379
1, 340208, Tempo, 749251
1, 340672, Tempo, 692201
1, 340912, Tempo, 669045
1, 342752, Tempo, 658689
1, 343200, Tempo, 654379
1, 345600, Tempo, 645925
1, 348800, Tempo, 633647
1, 348832, Tempo, 633647
1, 348992, Tempo, 629657
1, 350944, Tempo, 633647
1, 351584, Tempo, 629657
1, 352480, Tempo, 621826
1, 354240, Tempo, 710143
1, 355200, Tempo, 705136
1, 356096, Tempo, 685793
1, 357216, Tempo, 671968
1, 358048, Tempo, 650125
1, 359136, Tempo, 633647
1, 359968, Tempo, 848776
1, 360592, Marker_t, ""
1, 360928, Tempo, 710143
1, 362816, Tempo, 681122
1, 364832, Tempo, 667482
1, 366720, Tempo, 654379
1, 371584, Tempo, 617983
1, 373408, Tempo, 595888
1, 375392, Tempo, 617983
1, 378272, Tempo, 637687
1, 379232, Tempo, 758629
1, 379328, Tempo, 741748
1, 379392, Tempo, 736287
1, 379424, Tempo, 730905
1, 379456, Tempo, 725602
1, 379488, Tempo, 720375
1, 379520, Tempo, 715222
1, 379552, Tempo, 710143
1, 379616, Tempo, 705136
1, 379648, Tempo, 700198
1, 379680, Tempo, 695330
1, 379712, Tempo, 690528
1, 379744, Tempo, 685793
1, 379776, Tempo, 681122
1, 379840, Tempo, 676514
1, 379872, Tempo, 671968
1, 379904, Tempo, 667482
1, 379936, Tempo, 663057
1, 379968, Tempo, 667482
1, 380288, Tempo, 820906
1, 380480, Tempo, 827700
1, 380640, Tempo, 834608
1, 380800, Tempo, 841633
1, 381120, Tempo, 820906
1, 382112, Tempo, 801175
1, 383968, Tempo, 827700
1, 384960, Tempo, 801175
1, 386400, Tempo, 650125
1, 386784, Tempo, 654379
1, 386912, Tempo, 705136
1, 387872, Tempo, 650125
1, 388768, Tempo, 625717
1, 389312, Tempo, 695330
1, 389760, Tempo, 676514
1, 390752, Tempo, 690528
1, 391648, Tempo, 710143
1, 392448, Tempo, 752918
1, 393056, Tempo, 758629
1, 393600, Tempo, 770317
1, 393600, Marker_t, ""
1, 396480, Tempo, 747291
1, 398432, Tempo, 741748
1, 406080, Tempo, 736287
1, 407104, Tempo, 720375
1, 408992, Tempo, 788540
1, 409120, Tempo, 782371
1, 409856, Tempo, 776297
1, 410880, Tempo, 752918
1, 412832, Tempo, 770317
1, 418560, Tempo, 788540
1, 421376, Tempo, 788540
1, 423712, Tempo, 781963
1, 423904, Tempo, 788126
1, 424009, Tempo, 775896
1, 424106, Tempo, 781963
1, 424203, Tempo, 788126
1, 424219, Tempo, 800747
1, 424265, Tempo, 794386
1, 424275, Tempo, 1192132
1, 424290, Tempo, 1137872
1, 424295, Tempo, 1125070
1, 424311, Tempo, 709807
1, 424346, Tempo, 730549
1, 424352, Marker_t, "Change"
1, 424392, Tempo, 735925
1, 428096, Tempo, 700198
1, 432928, Tempo, 690528
1, 435296, Tempo, 710143
1, 435552, Tempo, 715222
1, 435808, Tempo, 720375
1, 436768, Tempo, 730905
1, 437088, Tempo, 736287
1, 438688, Tempo, 752918
1, 439072, Tempo, 747291
1, 439776, Tempo, 752918
1, 440704, Tempo, 741748
1, 441856, Tempo, 715222
1, 442592, Tempo, 720375
1, 444160, Tempo, 711659
1, 444200, Tempo, 712928
1, 444280, Tempo, 770614
1, 444320, Tempo, 772101
1, 444440, Tempo, 619707
1, 444480, Marker_t, ""
1, 444520, Tempo, 624740
1, 444560, Tempo, 488122
1, 445440, Tempo, 487646
1, 445920, Tempo, 488242
1, 447320, Tempo, 488838
1, 452920, Tempo, 491119
1, 452960, Tempo, 491723
1, 453000, Tempo, 492328
1, 453040, Tempo, 492935
1, 453080, Tempo, 493543
1, 453120, Tempo, 494153
1, 453160, Tempo, 494764
1, 453200, Tempo, 495376
1, 453240, Tempo, 495991
1, 453280, Tempo, 496607
1, 453320, Tempo, 497843
1, 453360, Tempo, 498463
1, 453400, Tempo, 499085
1, 453440, Tempo, 499709
1, 453480, Tempo, 500334
1, 453520, Tempo, 500960
1, 453560, Tempo, 501588
1, 453600, Tempo, 502218
1, 453640, Tempo, 502849
1, 453680, Tempo, 503482
1, 453720, Tempo, 504753
1, 453760, Tempo, 505391
1, 453800, Tempo, 506030
1, 453840, Tempo, 506671
1, 453880, Tempo, 507314
1, 453920, Tempo, 507958
1, 453960, Tempo, 508604
1, 454000, Tempo, 509251
1, 454040, Tempo, 509901
1, 454080, Tempo, 511204
1, 457720, Tempo, 511204
1, 457920, Tempo, 511858
1, 458120, Tempo, 512514
1, 459800, Tempo, 487527
1, 460200, Tempo, 486934
1, 460600, Tempo, 486342
1, 460960, Tempo, 485751
1, 461360, Tempo, 485162
1, 461720, Tempo, 484574
1, 462120, Tempo, 483988
1, 462480, Tempo, 483403
1, 462880, Tempo, 482820
1, 463240, Tempo, 482238
1, 463640, Tempo, 481657
1, 464000, Tempo, 481078
1, 464400, Tempo, 480500
1, 464760, Tempo, 479923
1, 465160, Tempo, 479348
1, 465520, Tempo, 478774
1, 469280, Tempo, 479348
1, 469760, Tempo, 479923
1, 470200, Tempo, 480500
1, 470640, Tempo, 481078
1, 471080, Tempo, 481657
1, 471520, Tempo, 482238
1, 471960, Tempo, 482820
1, 472400, Tempo, 483403
1, 472840, Tempo, 483988
1, 473280, Tempo, 484574
1, 473720, Tempo, 485162
1, 474160, Tempo, 485751
1, 474600, Tempo, 486342
1, 474960, Tempo, 488122
1, 478000, Tempo, 488719
1, 478880, Tempo, 488719
1, 478920, Tempo, 488122
1, 478960, Tempo, 487527
1, 479000, Tempo, 486934
1, 479040, Tempo, 486342
1, 479060, Marker_t, ""
1, 479080, Tempo, 485162
1, 479120, Tempo, 484574
1, 479160, Tempo, 483988
1, 479200, Tempo, 483403
1, 479240, Tempo, 482238
1, 479280, Tempo, 481657
1, 479320, Tempo, 481078
1, 479360, Tempo, 480500
1, 479400, Tempo, 479348
1, 479440, Tempo, 478774
1, 479480, Tempo, 477631
1, 479560, Tempo, 465405
1, 480840, Tempo, 464864
1, 482120, Tempo, 464324
1, 482560, Tempo, 465405
1, 482600, Tempo, 467035
1, 482640, Tempo, 469227
1, 482680, Tempo, 471439
1, 482720, Tempo, 473672
1, 482760, Tempo, 475926
1, 482800, Tempo, 478202
1, 482840, Tempo, 480500
1, 482880, Tempo, 482820
1, 482920, Tempo, 485162
1, 482960, Tempo, 487527
1, 483000, Tempo, 489916
1, 483040, Tempo, 492328
1, 483080, Tempo, 494764
1, 483120, Tempo, 497224
1, 483160, Tempo, 499709
1, 483200, Tempo, 502218
1, 483240, Tempo, 504753
1, 483280, Tempo, 507314
1, 483320, Tempo, 509901
1, 483360, Tempo, 513171
1, 483880, Tempo, 512514
1, 484400, Tempo, 511858
1, 484720, Tempo, 513479
1, 484760, Tempo, 515464
1, 484800, Tempo, 517464
1, 484840, Tempo, 519481
1, 484880, Tempo, 521512
1, 484920, Tempo, 523560
1, 484960, Tempo, 525624
1, 485000, Tempo, 527704
1, 485040, Tempo, 529801
1, 485080, Tempo, 531915
1, 485120, Tempo, 534045
1, 485160, Tempo, 536193
1, 485200, Tempo, 538358
1, 485240, Tempo, 541272
1, 485280, Tempo, 543478
1, 485320, Tempo, 545703
1, 485360, Tempo, 547945
1, 485400, Tempo, 550206
1, 485440, Tempo, 552486
1, 485480, Tempo, 554785
1, 485520, Tempo, 557103
1, 485560, Tempo, 559441
1, 485600, Tempo, 561798
1, 485640, Tempo, 564175
1, 485680, Tempo, 566572
1, 485720, Tempo, 569801
1, 486178, Tempo, 521195
1, 486240, Tempo, 517911
1, 486304, Tempo, 515243
1, 486336, Tempo, 512601
1, 486368, Tempo, 509987
1, 486400, Tempo, 507400
1, 486432, Tempo, 504838
1, 486464, Tempo, 502302
1, 486496, Tempo, 499792
1, 486528, Tempo, 497306
1, 486560, Tempo, 494845
1, 486592, Tempo, 492409
1, 486624, Tempo, 489996
1, 486656, Tempo, 487607
1, 486688, Tempo, 485241
1, 486720, Tempo, 482897
1, 486752, Tempo, 480577
1, 486784, Tempo, 478278
1, 486816, Tempo, 476002
1, 486848, Tempo, 473747
1, 486912, Tempo, 471513
1, 486944, Tempo, 469300
1, 486976, Tempo, 467108
1, 487008, Tempo, 464936
1, 487040, Tempo, 462784
1, 487072, Tempo, 460653
1, 487104, Tempo, 458540
1, 487136, Tempo, 456447
1, 487168, Tempo, 454373
1, 487200, Tempo, 452318
1, 487232, Tempo, 450281
1, 487264, Tempo, 448263
1, 487296, Tempo, 446263
1, 487328, Tempo, 444280
1, 487360, Tempo, 442315
1, 487392, Tempo, 440367
1, 487424, Tempo, 438436
1, 487456, Tempo, 436522
1, 487488, Tempo, 434625
1, 487552, Tempo, 432744
1, 487584, Tempo, 430880
1, 487616, Tempo, 429031
1, 487648, Tempo, 427198
1, 487680, Tempo, 425381
1, 487712, Tempo, 423579
1, 487744, Tempo, 421793
1, 487776, Tempo, 420021
1, 487808, Tempo, 418264
1, 487840, Tempo, 416522
1, 487872, Tempo, 414794
1, 487904, Tempo, 413081
1, 487936, Tempo, 411382
1, 487968, Tempo, 409696
1, 488000, Tempo, 408024
1, 488032, Tempo, 406366
1, 488064, Tempo, 404722
1, 488096, Tempo, 403090
1, 488160, Tempo, 401472
1, 488192, Tempo, 399867
1, 488224, Tempo, 398274
1, 488256, Tempo, 396694
1, 488288, Tempo, 395127
1, 488320, Tempo, 393572
1, 488352, Tempo, 392029
1, 488384, Tempo, 390498
1, 488416, Tempo, 388979
1, 488448, Tempo, 387472
1, 488480, Tempo, 385976
1, 488512, Tempo, 384492
1, 488544, Tempo, 383019
1, 488576, Tempo, 381558
1, 488608, Tempo, 380108
1, 488640, Tempo, 378668
1, 488672, Tempo, 377240
1, 488704, Tempo, 375822
1, 488736, Tempo, 374415
1, 488800, Tempo, 373018
1, 488832, Tempo, 371632
1, 488864, Tempo, 370256
1, 488896, Tempo, 368890
1, 488928, Tempo, 367534
1, 488960, Tempo, 366189
1, 488992, Tempo, 364853
1, 489024, Tempo, 363526
1, 489056, Tempo, 362209
1, 489088, Tempo, 360902
1, 489120, Tempo, 359604
1, 489152, Tempo, 358316
1, 489184, Tempo, 357037
1, 489216, Tempo, 355766
1, 489248, Tempo, 354505
1, 489280, Tempo, 353253
1, 489312, Tempo, 352009
1, 489344, Tempo, 350775
1, 489376, Tempo, 349548
1, 489440, Tempo, 348331
1, 489472, Tempo, 347122
1, 489504, Tempo, 345921
1, 489536, Tempo, 344729
1, 489568, Tempo, 343544
1, 489600, Tempo, 342368
1, 489632, Tempo, 341200
1, 489664, Tempo, 340040
1, 489696, Tempo, 338887
1, 489728, Tempo, 337743
1, 489760, Tempo, 336606
1, 489792, Tempo, 335477
1, 489824, Tempo, 334355
1, 489856, Tempo, 333241
1, 489888, Tempo, 332134
1, 489920, Tempo, 331034
1, 489952, Tempo, 329942
1, 489984, Tempo, 328857
1, 490048, Tempo, 327779
1, 490080, Tempo, 326708
1, 490112, Tempo, 325645
1, 490144, Tempo, 324588
1, 490176, Tempo, 323537
1, 490208, Tempo, 322494
1, 490240, Tempo, 321457
1, 490272, Tempo, 320427
1, 490304, Tempo, 319404
1, 490336, Tempo, 318387
1, 490368, Tempo, 317376
1, 490400, Tempo, 316372
1, 490432, Tempo, 315375
1, 490464, Tempo, 314383
1, 490496, Tempo, 313398
1, 490528, Tempo, 312419
1, 490560, Tempo, 311446
1, 490592, Tempo, 310479
1, 490624, Tempo, 309518
1, 490688, Tempo, 308563
1, 490720, Tempo, 307613
1, 490752, Tempo, 306670
1, 490784, Tempo, 305732
1, 490816, Tempo, 304801
1, 490848, Tempo, 303874
1, 490880, Tempo, 302954
1, 490912, Tempo, 302039
1, 490944, Tempo, 301129
1, 490976, Tempo, 300225
1, 491008, Tempo, 299327
1, 491040, Tempo, 298433
1, 491072, Tempo, 297545
1, 491104, Tempo, 296663
1, 491136, Tempo, 295785
1, 491168, Tempo, 294913
1, 491200, Tempo, 294046
1, 491232, Tempo, 293183
1, 491296, Tempo, 292326
1, 491328, Tempo, 291474
1, 491360, Tempo, 290627
1, 491392, Tempo, 289785
1, 491424, Tempo, 288948
1, 491456, Tempo, 288115
1, 491488, Tempo, 287288
1, 491520, Tempo, 286465
1, 491552, Tempo, 285646
1, 491584, Tempo, 284833
1, 491616, Tempo, 284024
1, 491648, Tempo, 283219
1, 491680, Tempo, 282419
1, 491712, Tempo, 281624
1, 491744, Tempo, 280833
1, 491776, Tempo, 280047
1, 491808, Tempo, 279265
1, 491840, Tempo, 278487
1, 491872, Tempo, 277713
1, 491936, Tempo, 276944
1, 491968, Tempo, 276180
1, 492000, Tempo, 275419
1, 492032, Tempo, 274662
1, 492064, Tempo, 273910
1, 492096, Tempo, 273162
1, 492128, Tempo, 272418
1, 492160, Tempo, 271678
1, 492192, Tempo, 270942
1, 492224, Tempo, 270209
1, 492256, Tempo, 269481
1, 492288, Tempo, 268757
1, 492320, Tempo, 268037
1, 492352, Tempo, 267320
1, 492384, Tempo, 266607
1, 492416, Tempo, 265899
1, 492448, Tempo, 262009
1, 492544, Tempo, 261324
1, 492608, Tempo, 260643
1, 492704, Tempo, 259965
1, 492768, Tempo, 259291
1, 492864, Tempo, 258621
1, 492928, Tempo, 257954
1, 493024, Tempo, 257290
1, 493088, Tempo, 256630
1, 493184, Tempo, 255973
1, 493248, Tempo, 255319
1, 493344, Tempo, 254669
1, 493408, Tempo, 254022
1, 493504, Tempo, 253378
1, 493568, Tempo, 252738
1, 493664, Tempo, 252101
1, 493728, Tempo, 251467
1, 493824, Tempo, 250836
1, 493888, Tempo, 250209
1, 493984, Tempo, 249584
1, 494048, Tempo, 248963
1, 494144, Tempo, 248344
1, 494208, Tempo, 247729
1, 494304, Tempo, 247117
1, 494368, Tempo, 246508
1, 494880, Tempo, 263100
1, 494912, Tempo, 305935
1, 494976, Tempo, 305002
1, 495040, Tempo, 304075
1, 495104, Tempo, 303153
1, 495168, Tempo, 302237
1, 495232, Tempo, 301326
1, 495264, Tempo, 532434
1, 495296, Tempo, 510682
1, 496736, Tempo, 521331
1, 496768, Tempo, 546996
1, 496992, Tempo, 544020
1, 497184, Tempo, 541077
1, 497408, Tempo, 538165
1, 497600, Tempo, 535284
1, 497824, Tempo, 532434
1, 498016, Tempo, 529614
1, 498208, Tempo, 526824
1, 504960, Tempo, 546996
1, 505600, Tempo, 550005
1, 506208, Tempo, 553046
1, 506848, Tempo, 556122
1, 506900, Tempo, 526223
1, 507620, Tempo, 525532
1, 508340, Tempo, 524843
1, 509260, Tempo, 524155
1, 514540, Tempo, 523469
1, 514540, End_track
2, 0, Start_track
2, 0, Title_t, "Track 1"
2, 0, Program_c, 0, 0
2, 0, Control_c, 0, 7, 115
2, 0, Control_c, 0, 10, 111
2, 31800, Control_c, 0, 64, 127
2, 31920, Note_on_c, 0, 69, 90
2, 32136, Note_on_c, 0, 69, 0
2, 32160, Note_on_c, 0, 74, 90
2, 32484, Note_on_c, 0, 74, 0
2, 32505, Control_c, 0, 64, 0
2, 32520, Note_on_c, 0, 74, 90
2, 32628, Note_on_c, 0, 74, 0
2, 32640, Control_c, 0, 64, 127
2, 32640, Note_on_c, 0, 73, 90
2, 32748, Note_on_c, 0, 73, 0
2, 32760, Note_on_c, 0, 74, 90
2, 32868, Note_on_c, 0, 74, 0
2, 32880, Note_on_c, 0, 76, 90
2, 32934, Note_on_c, 0, 76, 0
2, 33000, Note_on_c, 0, 77, 90
2, 33054, Note_on_c, 0, 77, 0
2, 33120, Note_on_c, 0, 73, 90
2, 33228, Note_on_c, 0, 73, 0
2, 33480, Note_on_c, 0, 74, 90
2, 33534, Note_on_c, 0, 74, 0
2, 33600, Control_c, 0, 64, 0
2, 33600, Note_on_c, 0, 73, 90
2, 33708, Note_on_c, 0, 73, 0
2, 33720, Note_on_c, 0, 74, 90
2, 33828, Note_on_c, 0, 74, 0
2, 33840, Note_on_c, 0, 76, 90
2, 33894, Note_on_c, 0, 76, 0
2, 33960, Note_on_c, 0, 77, 90
2, 34014, Note_on_c, 0, 77, 0
2, 34080, Note_on_c, 0, 73, 90
2, 34296, Note_on_c, 0, 73, 0
2, 34440, Note_on_c, 0, 69, 90
2, 34455, Control_c, 0, 64, 127
2, 34476, Note_on_c, 0, 69, 0
2, 34480, Note_on_c, 0, 71, 90
2, 34516, Note_on_c, 0, 71, 0
2, 34520, Note_on_c, 0, 73, 90
2, 34556, Note_on_c, 0, 73, 0
2, 34560, Note_on_c, 0, 74, 90
2, 34668, Note_on_c, 0, 74, 0
2, 34800, Note_on_c, 0, 79, 92
2, 34800, Note_on_c, 0, 74, 92
2, 35232, Note_on_c, 0, 74, 0
2, 35232, Note_on_c, 0, 79, 0
2, 35280, Note_on_c, 0, 81, 95
2, 35280, Note_on_c, 0, 74, 95
2, 35334, Note_on_c, 0, 74, 0
2, 35334, Note_on_c, 0, 81, 0
2, 35340, Note_on_c, 0, 82, 95
2, 35340, Note_on_c, 0, 76, 95
2, 35394, Note_on_c, 0, 76, 0
2, 35394, Note_on_c, 0, 82, 0
2, 35400, Note_on_c, 0, 79, 96
2, 35415, Control_c, 0, 64, 0
2, 35454, Note_on_c, 0, 79, 0
2, 35460, Note_on_c, 0, 81, 96
2, 35514, Note_on_c, 0, 81, 0
2, 35520, Control_c, 0, 64, 127
2, 36480, Control_c, 0, 64, 0
2, 40320, Note_on_c, 0, 67, 56
2, 40320, Note_on_c, 0, 70, 56
2, 40679, Note_on_c, 0, 70, 0
2, 40679, Note_on_c, 0, 67, 0
2, 40680, Note_on_c, 0, 69, 50
2, 40799, Note_on_c, 0, 69, 0
2, 40800, Note_on_c, 0, 67, 54
2, 40800, Note_on_c, 0, 70, 54
2, 41159, Note_on_c, 0, 70, 0
2, 41159, Note_on_c, 0, 67, 0
2, 41160, Note_on_c, 0, 65, 48
2, 41268, Note_on_c, 0, 65, 0
2, 41280, Note_on_c, 0, 67, 54
2, 41280, Note_on_c, 0, 72, 54
2, 41639, Note_on_c, 0, 72, 0
2, 41639, Note_on_c, 0, 67, 0
2, 41640, Note_on_c, 0, 69, 48
2, 41759, Note_on_c, 0, 69, 0
2, 41760, Note_on_c, 0, 67, 53
2, 41760, Note_on_c, 0, 72, 53
2, 42119, Note_on_c, 0, 72, 0
2, 42119, Note_on_c, 0, 67, 0
2, 42120, Note_on_c, 0, 65, 46
2, 42228, Note_on_c, 0, 65, 0
2, 42240, Note_on_c, 0, 67, 52
2, 42240, Note_on_c, 0, 72, 52
2, 42599, Note_on_c, 0, 72, 0
2, 42599, Note_on_c, 0, 67, 0
2, 42600, Note_on_c, 0, 70, 48
2, 42719, Note_on_c, 0, 70, 0
2, 42720, Note_on_c, 0, 67, 51
2, 42720, Note_on_c, 0, 72, 51
2, 43079, Note_on_c, 0, 72, 0
2, 43079, Note_on_c, 0, 67, 0
2, 43080, Note_on_c, 0, 65, 44
2, 43188, Note_on_c, 0, 65, 0
2, 43200, Note_on_c, 0, 67, 47
2, 43200, Note_on_c, 0, 72, 47
2, 43559, Note_on_c, 0, 72, 0
2, 43559, Note_on_c, 0, 67, 0
2, 43560, Note_on_c, 0, 65, 42
2, 43679, Note_on_c, 0, 65, 0
2, 43680, Note_on_c, 0, 67, 45
2, 43680, Note_on_c, 0, 72, 45
2, 44039, Note_on_c, 0, 72, 0
2, 44039, Note_on_c, 0, 67, 0
2, 44040, Note_on_c, 0, 65, 40
2, 44148, Note_on_c, 0, 65, 0
2, 44160, Note_on_c, 0, 72, 56
2, 44160, Note_on_c, 0, 67, 56
2, 44484, Note_on_c, 0, 67, 0
2, 44484, Note_on_c, 0, 72, 0
2, 46560, Note_on_c, 0, 73, 64
2, 46992, Note_on_c, 0, 73, 0
2, 47040, Note_on_c, 0, 74, 64
2, 47519, Note_on_c, 0, 74, 0
2, 47520, Note_on_c, 0, 82, 64
2, 47952, Note_on_c, 0, 82, 0
2, 48000, Note_on_c, 0, 81, 64
2, 48432, Note_on_c, 0, 81, 0
2, 59520, Note_on_c, 0, 80, 71
2, 59999, Note_on_c, 0, 80, 0
2, 60000, Note_on_c, 0, 78, 71
2, 60432, Note_on_c, 0, 78, 0
2, 60480, Note_on_c, 0, 77, 74
2, 60959, Note_on_c, 0, 77, 0
2, 60960, Note_on_c, 0, 76, 73
2, 61392, Note_on_c, 0, 76, 0
2, 61440, Note_on_c, 0, 77, 75
2, 61872, Note_on_c, 0, 77, 0
2, 65040, Note_on_c, 0, 72, 64
2, 65208, Control_c, 0, 64, 127
2, 65256, Note_on_c, 0, 72, 0
2, 65280, Note_on_c, 0, 74, 95
2, 65759, Note_on_c, 0, 74, 0
2, 65760, Note_on_c, 0, 74, 95
2, 65919, Note_on_c, 0, 74, 0
2, 65920, Note_on_c, 0, 76, 98
2, 66079, Note_on_c, 0, 76, 0
2, 66080, Note_on_c, 0, 77, 101
2, 66116, Note_on_c, 0, 77, 0
2, 66240, Note_on_c, 0, 77, 95
2, 66719, Note_on_c, 0, 77, 0
2, 66720, Note_on_c, 0, 76, 95
2, 66936, Note_on_c, 0, 76, 0
2, 67128, Control_c, 0, 64, 0
2, 67200, Note_on_c, 0, 69, 95
2, 67224, Control_c, 0, 64, 127
2, 67679, Note_on_c, 0, 69, 0
2, 67680, Note_on_c, 0, 74, 95
2, 67919, Note_on_c, 0, 74, 0
2, 67920, Note_on_c, 0, 77, 95
2, 68136, Note_on_c, 0, 77, 0
2, 68160, Note_on_c, 0, 81, 95
2, 68160, Note_on_c, 0, 77, 95
2, 68879, Note_on_c, 0, 77, 0
2, 68879, Note_on_c, 0, 81, 0
2, 68880, Note_on_c, 0, 81, 95
2, 68880, Note_on_c, 0, 77, 95
2, 69096, Note_on_c, 0, 77, 0
2, 69096, Note_on_c, 0, 81, 0
2, 69120, Note_on_c, 0, 83, 95
2, 69479, Note_on_c, 0, 83, 0
2, 69480, Note_on_c, 0, 84, 101
2, 69539, Note_on_c, 0, 84, 0
2, 69540, Note_on_c, 0, 83, 96
2, 69599, Note_on_c, 0, 83, 0
2, 69600, Note_on_c, 0, 81, 92
2, 69839, Note_on_c, 0, 81, 0
2, 69840, Note_on_c, 0, 83, 95
2, 70056, Note_on_c, 0, 83, 0
2, 70080, Note_on_c, 0, 84, 95
2, 70080, Note_on_c, 0, 79, 95
2, 70319, Note_on_c, 0, 79, 0
2, 70319, Note_on_c, 0, 84, 0
2, 70320, Note_on_c, 0, 79, 95
2, 70559, Note_on_c, 0, 79, 0
2, 70560, Note_on_c, 0, 82, 88
2, 71279, Note_on_c, 0, 82, 0
2, 71280, Note_on_c, 0, 81, 95
2, 71519, Note_on_c, 0, 81, 0
2, 71520, Note_on_c, 0, 76, 90
2, 71736, Note_on_c, 0, 76, 0
2, 72240, Note_on_c, 0, 77, 90
2, 72479, Note_on_c, 0, 77, 0
2, 72480, Note_on_c, 0, 66, 84
2, 72696, Note_on_c, 0, 66, 0
2, 73200, Note_on_c, 0, 77, 90
2, 73439, Note_on_c, 0, 77, 0
2, 73440, Note_on_c, 0, 67, 84
2, 73656, Note_on_c, 0, 67, 0
2, 74160, Note_on_c, 0, 69, 90
2, 74399, Note_on_c, 0, 69, 0
2, 74400, Note_on_c, 0, 72, 82
2, 74519, Note_on_c, 0, 72, 0
2, 74520, Note_on_c, 0, 70, 91
2, 74639, Note_on_c, 0, 70, 0
2, 74640, Note_on_c, 0, 67, 89
2, 74748, Note_on_c, 0, 67, 0
2, 74880, Note_on_c, 0, 66, 90
2, 75359, Note_on_c, 0, 66, 0
2, 75360, Note_on_c, 0, 75, 90
2, 75576, Note_on_c, 0, 75, 0
2, 75840, Note_on_c, 0, 74, 91
2, 76079, Note_on_c, 0, 74, 0
2, 76080, Note_on_c, 0, 82, 93
2, 76080, Note_on_c, 0, 74, 93
2, 76559, Note_on_c, 0, 74, 0
2, 76559, Note_on_c, 0, 82, 0
2, 76560, Note_on_c, 0, 83, 96
2, 76560, Note_on_c, 0, 74, 96
2, 76668, Note_on_c, 0, 74, 0
2, 76668, Note_on_c, 0, 83, 0
2, 76800, Note_on_c, 0, 84, 98
2, 76800, Note_on_c, 0, 79, 98
2, 77279, Note_on_c, 0, 79, 0
2, 77279, Note_on_c, 0, 84, 0
2, 77280, Note_on_c, 0, 77, 101
2, 77496, Note_on_c, 0, 77, 0
2, 77760, Note_on_c, 0, 76, 101
2, 77999, Note_on_c, 0, 76, 0
2, 78000, Note_on_c, 0, 84, 101
2, 78000, Note_on_c, 0, 81, 101
2, 78479, Note_on_c, 0, 81, 0
2, 78479, Note_on_c, 0, 84, 0
2, 78480, Note_on_c, 0, 89, 90
2, 78480, Note_on_c, 0, 77, 90
2, 78696, Note_on_c, 0, 77, 0
2, 78696, Note_on_c, 0, 89, 0
2, 78720, Note_on_c, 0, 89, 96
2, 78720, Note_on_c, 0, 77, 96
2, 78959, Note_on_c, 0, 77, 0
2, 78959, Note_on_c, 0, 89, 0
2, 78960, Note_on_c, 0, 82, 93
2, 79199, Note_on_c, 0, 82, 0
2, 79200, Note_on_c, 0, 85, 91
2, 79200, Note_on_c, 0, 82, 91
2, 79200, Note_on_c, 0, 76, 91
2, 79632, Note_on_c, 0, 76, 0
2, 79632, Note_on_c, 0, 82, 0
2, 79632, Note_on_c, 0, 85, 0
2, 79920, Note_on_c, 0, 84, 102
2, 79920, Note_on_c, 0, 80, 102
2, 80159, Note_on_c, 0, 80, 0
2, 80159, Note_on_c, 0, 84, 0
2, 80160, Note_on_c, 0, 79, 97
2, 80592, Note_on_c, 0, 79, 0
2, 80880, Note_on_c, 0, 80, 99
2, 81119, Note_on_c, 0, 80, 0
2, 81120, Note_on_c, 0, 71, 92
2, 81552, Note_on_c, 0, 71, 0
2, 81669, Control_c, 0, 64, 127
2, 81840, Note_on_c, 0, 72, 102
2, 82079, Note_on_c, 0, 72, 0
2, 82080, Note_on_c, 0, 70, 97
2, 82319, Note_on_c, 0, 70, 0
2, 82320, Note_on_c, 0, 67, 92
2, 82536, Note_on_c, 0, 67, 0
2, 82560, Note_on_c, 0, 64, 87
2, 82629, Control_c, 0, 64, 0
2, 82799, Note_on_c, 0, 64, 0
2, 82800, Control_c, 0, 64, 127
2, 82800, Note_on_c, 0, 81, 94
2, 83039, Note_on_c, 0, 81, 0
2, 83040, Note_on_c, 0, 79, 93
2, 83279, Note_on_c, 0, 79, 0
2, 83280, Note_on_c, 0, 76, 93
2, 83496, Note_on_c, 0, 76, 0
2, 83520, Note_on_c, 0, 77, 94
2, 83759, Note_on_c, 0, 77, 0
2, 83760, Note_on_c, 0, 69, 94
2, 83999, Note_on_c, 0, 69, 0
2, 84000, Note_on_c, 0, 74, 102
2, 84239, Note_on_c, 0, 74, 0
2, 84240, Note_on_c, 0, 72, 102
2, 84456, Note_on_c, 0, 72, 0
2, 84480, Note_on_c, 0, 70, 98
2, 84480, Control_c, 0, 64, 0
2, 84696, Control_c, 0, 64, 127
2, 84719, Note_on_c, 0, 70, 0
2, 84720, Note_on_c, 0, 82, 92
2, 84959, Note_on_c, 0, 82, 0
2, 84960, Note_on_c, 0, 81, 101
2, 85199, Note_on_c, 0, 81, 0
2, 85200, Note_on_c, 0, 78, 99
2, 85416, Note_on_c, 0, 78, 0
2, 85440, Note_on_c, 0, 79, 97
2, 85679, Note_on_c, 0, 79, 0
2, 85680, Note_on_c, 0, 74, 96
2, 85919, Note_on_c, 0, 74, 0
2, 85920, Note_on_c, 0, 76, 94
2, 86159, Note_on_c, 0, 76, 0
2, 86160, Note_on_c, 0, 74, 92
2, 86376, Note_on_c, 0, 74, 0
2, 86400, Note_on_c, 0, 72, 90
2, 86472, Control_c, 0, 64, 0
2, 86520, Control_c, 0, 64, 127
2, 86639, Note_on_c, 0, 72, 0
2, 86640, Note_on_c, 0, 84, 94
2, 86640, Note_on_c, 0, 75, 94
2, 87119, Note_on_c, 0, 75, 0
2, 87119, Note_on_c, 0, 84, 0
2, 87120, Note_on_c, 0, 84, 96
2, 87120, Note_on_c, 0, 75, 96
2, 87599, Note_on_c, 0, 75, 0
2, 87599, Note_on_c, 0, 84, 0
2, 87600, Note_on_c, 0, 85, 98
2, 87600, Note_on_c, 0, 75, 98
2, 88079, Note_on_c, 0, 75, 0
2, 88079, Note_on_c, 0, 85, 0
2, 88080, Note_on_c, 0, 85, 96
2, 88080, Note_on_c, 0, 75, 96
2, 88296, Note_on_c, 0, 75, 0
2, 88296, Note_on_c, 0, 85, 0
2, 88320, Note_on_c, 0, 86, 98
2, 88559, Note_on_c, 0, 86, 0
2, 88560, Note_on_c, 0, 86, 100
2, 88560, Note_on_c, 0, 82, 100
2, 88799, Note_on_c, 0, 86, 0
2, 88800, Note_on_c, 0, 88, 101
2, 89039, Note_on_c, 0, 88, 0
2, 89039, Note_on_c, 0, 82, 0
2, 89040, Note_on_c, 0, 88, 103
2, 89040, Note_on_c, 0, 82, 103
2, 89256, Note_on_c, 0, 82, 0
2, 89256, Note_on_c, 0, 88, 0
2, 89280, Note_on_c, 0, 81, 103
2, 89280, Note_on_c, 0, 89, 103
2, 89519, Note_on_c, 0, 89, 0
2, 89519, Note_on_c, 0, 81, 0
2, 89520, Note_on_c, 0, 89, 103
2, 89520, Note_on_c, 0, 81, 103
2, 89759, Note_on_c, 0, 81, 0
2, 89759, Note_on_c, 0, 89, 0
2, 89760, Note_on_c, 0, 91, 103
2, 89760, Note_on_c, 0, 84, 103
2, 89999, Note_on_c, 0, 84, 0
2, 89999, Note_on_c, 0, 91, 0
2, 90000, Note_on_c, 0, 91, 103
2, 90000, Note_on_c, 0, 84, 103
2, 90216, Note_on_c, 0, 84, 0
2, 90216, Note_on_c, 0, 91, 0
2, 90240, Note_on_c, 0, 93, 104
2, 90240, Note_on_c, 0, 89, 104
2, 90479, Note_on_c, 0, 89, 0
2, 90479, Note_on_c, 0, 93, 0
2, 90480, Note_on_c, 0, 93, 104
2, 90480, Note_on_c, 0, 89, 104
2, 90959, Note_on_c, 0, 89, 0
2, 90959, Note_on_c, 0, 93, 0
2, 90960, Note_on_c, 0, 93, 104
2, 90960, Note_on_c, 0, 89, 104
2, 91176, Note_on_c, 0, 89, 0
2, 91176, Note_on_c, 0, 93, 0
2, 91200, Note_on_c, 0, 96, 104
2, 91200, Note_on_c, 0, 88, 104
2, 91439, Note_on_c, 0, 88, 0
2, 91439, Note_on_c, 0, 96, 0
2, 91440, Note_on_c, 0, 96, 102
2, 91440, Note_on_c, 0, 88, 102
2, 91919, Note_on_c, 0, 88, 0
2, 91919, Note_on_c, 0, 96, 0
2, 91920, Note_on_c, 0, 96, 104
2, 91920, Note_on_c, 0, 88, 104
2, 92160, Control_c, 0, 64, 0
2, 92279, Note_on_c, 0, 88, 0
2, 92279, Note_on_c, 0, 96, 0
2, 92280, Note_on_c, 0, 94, 102
2, 92334, Note_on_c, 0, 94, 0
2, 92400, Note_on_c, 0, 91, 100
2, 92454, Note_on_c, 0, 91, 0
2, 92520, Note_on_c, 0, 88, 97
2, 92574, Note_on_c, 0, 88, 0
2, 92640, Note_on_c, 0, 84, 95
2, 92694, Note_on_c, 0, 84, 0
2, 92760, Note_on_c, 0, 82, 93
2, 92814, Note_on_c, 0, 82, 0
2, 92880, Note_on_c, 0, 79, 90
2, 92934, Note_on_c, 0, 79, 0
2, 93000, Note_on_c, 0, 76, 88
2, 93054, Note_on_c, 0, 76, 0
2, 116160, Control_c, 0, 64, 127
2, 116160, Note_on_c, 0, 69, 92
2, 116399, Note_on_c, 0, 69, 0
2, 116400, Note_on_c, 0, 74, 96
2, 116879, Note_on_c, 0, 74, 0
2, 116880, Note_on_c, 0, 76, 103
2, 116988, Note_on_c, 0, 76, 0
2, 117120, Note_on_c, 0, 81, 107
2, 117599, Note_on_c, 0, 81, 0
2, 117600, Note_on_c, 0, 84, 105
2, 117600, Note_on_c, 0, 93, 105
2, 117600, Note_on_c, 0, 81, 105
2, 117816, Note_on_c, 0, 81, 0
2, 117816, Note_on_c, 0, 93, 0
2, 117816, Note_on_c, 0, 84, 0
2, 118080, Note_on_c, 0, 83, 105
2, 118080, Note_on_c, 0, 93, 105
2, 118080, Note_on_c, 0, 81, 105
2, 118319, Note_on_c, 0, 81, 0
2, 118319, Note_on_c, 0, 93, 0
2, 118319, Note_on_c, 0, 83, 0
2, 118560, Note_on_c, 0, 92, 107
2, 118560, Note_on_c, 0, 83, 107
2, 118560, Note_on_c, 0, 80, 107
2, 118776, Note_on_c, 0, 80, 0
2, 118776, Note_on_c, 0, 83, 0
2, 118776, Note_on_c, 0, 92, 0
2, 118956, Control_c, 0, 64, 0
2, 119040, Note_on_c, 0, 81, 101
2, 119040, Note_on_c, 0, 93, 101
2, 119040, Control_c, 0, 64, 127
2, 119040, Note_on_c, 0, 85, 101
2, 119159, Note_on_c, 0, 85, 0
2, 119159, Note_on_c, 0, 93, 0
2, 119159, Note_on_c, 0, 81, 0
2, 119280, Note_on_c, 0, 93, 110
2, 119359, Note_on_c, 0, 93, 0
2, 119360, Note_on_c, 0, 92, 109
2, 119439, Note_on_c, 0, 92, 0
2, 119440, Note_on_c, 0, 91, 108
2, 119519, Note_on_c, 0, 91, 0
2, 119520, Note_on_c, 0, 90, 106
2, 119599, Note_on_c, 0, 90, 0
2, 119600, Note_on_c, 0, 89, 105
2, 119679, Note_on_c, 0, 89, 0
2, 119680, Note_on_c, 0, 88, 104
2, 119759, Note_on_c, 0, 88, 0
2, 119760, Note_on_c, 0, 87, 103
2, 119839, Note_on_c, 0, 87, 0
2, 119840, Note_on_c, 0, 86, 102
2, 119919, Note_on_c, 0, 86, 0
2, 119920, Note_on_c, 0, 85, 100
2, 119992, Note_on_c, 0, 85, 0
2, 120000, Note_on_c, 0, 84, 99
2, 120079, Note_on_c, 0, 84, 0
2, 120080, Note_on_c, 0, 83, 98
2, 120159, Note_on_c, 0, 83, 0
2, 120160, Note_on_c, 0, 82, 97
2, 120239, Note_on_c, 0, 82, 0
2, 120240, Note_on_c, 0, 81, 96
2, 120319, Note_on_c, 0, 81, 0
2, 120320, Note_on_c, 0, 80, 95
2, 120399, Note_on_c, 0, 80, 0
2, 120400, Note_on_c, 0, 79, 93
2, 120479, Note_on_c, 0, 79, 0
2, 120480, Note_on_c, 0, 78, 92
2, 120559, Note_on_c, 0, 78, 0
2, 120560, Note_on_c, 0, 77, 91
2, 120639, Note_on_c, 0, 77, 0
2, 120640, Note_on_c, 0, 76, 90
2, 120719, Note_on_c, 0, 76, 0
2, 120720, Note_on_c, 0, 75, 89
2, 120799, Note_on_c, 0, 75, 0
2, 120800, Note_on_c, 0, 74, 88
2, 120879, Note_on_c, 0, 74, 0
2, 120880, Note_on_c, 0, 73, 86
2, 120952, Note_on_c, 0, 73, 0
2, 120960, Note_on_c, 0, 72, 85
2, 120990, Control_c, 0, 64, 0
2, 121039, Note_on_c, 0, 72, 0
2, 121040, Note_on_c, 0, 71, 84
2, 121119, Note_on_c, 0, 71, 0
2, 121120, Note_on_c, 0, 70, 83
2, 121180, Control_c, 0, 64, 127
2, 121199, Note_on_c, 0, 70, 0
2, 121200, Note_on_c, 0, 77, 87
2, 121200, Note_on_c, 0, 86, 87
2, 121200, Note_on_c, 0, 74, 87
2, 121679, Note_on_c, 0, 74, 0
2, 121679, Note_on_c, 0, 86, 0
2, 121679, Note_on_c, 0, 77, 0
2, 121680, Note_on_c, 0, 77, 92
2, 121680, Note_on_c, 0, 89, 92
2, 121896, Note_on_c, 0, 89, 0
2, 121896, Note_on_c, 0, 77, 0
2, 121920, Note_on_c, 0, 88, 95
2, 121920, Note_on_c, 0, 93, 95
2, 121920, Note_on_c, 0, 81, 95
2, 122399, Note_on_c, 0, 81, 0
2, 122399, Note_on_c, 0, 93, 0
2, 122399, Note_on_c, 0, 88, 0
2, 122400, Note_on_c, 0, 88, 93
2, 122400, Note_on_c, 0, 93, 93
2, 122400, Note_on_c, 0, 85, 93
2, 122400, Note_on_c, 0, 81, 93
2, 122616, Note_on_c, 0, 81, 0
2, 122616, Note_on_c, 0, 88, 0
2, 122616, Note_on_c, 0, 93, 0
2, 122616, Note_on_c, 0, 85, 0
2, 122880, Note_on_c, 0, 93, 89
2, 122880, Note_on_c, 0, 81, 89
2, 122880, Note_on_c, 0, 88, 89
2, 122880, Note_on_c, 0, 85, 89
2, 123744, Note_on_c, 0, 85, 0
2, 123744, Note_on_c, 0, 93, 0
2, 123744, Note_on_c, 0, 81, 0
2, 123744, Note_on_c, 0, 88, 0
2, 123840, Note_on_c, 0, 92, 81
2, 123840, Note_on_c, 0, 80, 81
2, 123840, Note_on_c, 0, 86, 81
2, 124704, Note_on_c, 0, 86, 0
2, 124704, Note_on_c, 0, 80, 0
2, 124704, Note_on_c, 0, 92, 0
2, 124800, Note_on_c, 0, 91, 77
2, 124800, Note_on_c, 0, 88, 77
2, 124800, Note_on_c, 0, 79, 77
2, 125664, Note_on_c, 0, 79, 0
2, 125664, Note_on_c, 0, 88, 0
2, 125664, Note_on_c, 0, 91, 0
2, 125760, Note_on_c, 0, 86, 73
2, 125760, Note_on_c, 0, 77, 73
2, 125760, Note_on_c, 0, 89, 73
2, 126624, Note_on_c, 0, 89, 0
2, 126624, Note_on_c, 0, 77, 0
2, 126624, Note_on_c, 0, 86, 0
2, 126720, Note_on_c, 0, 88, 69
2, 126720, Note_on_c, 0, 85, 69
2, 126720, Note_on_c, 0, 76, 69
2, 126980, Control_c, 0, 64, 0
2, 127199, Note_on_c, 0, 76, 0
2, 127199, Note_on_c, 0, 85, 0
2, 127199, Note_on_c, 0, 88, 0
2, 127200, Note_on_c, 0, 64, 50
2, 127215, Control_c, 0, 64, 127
2, 127279, Note_on_c, 0, 64, 0
2, 127280, Note_on_c, 0, 67, 51
2, 127359, Note_on_c, 0, 67, 0
2, 127360, Note_on_c, 0, 70, 51
2, 127439, Note_on_c, 0, 70, 0
2, 127440, Note_on_c, 0, 67, 51
2, 127519, Note_on_c, 0, 67, 0
2, 127520, Note_on_c, 0, 70, 52
2, 127599, Note_on_c, 0, 70, 0
2, 127600, Note_on_c, 0, 76, 52
2, 127672, Note_on_c, 0, 76, 0
2, 127680, Note_on_c, 0, 70, 53
2, 127759, Note_on_c, 0, 70, 0
2, 127760, Note_on_c, 0, 76, 53
2, 127839, Note_on_c, 0, 76, 0
2, 127840, Note_on_c, 0, 79, 54
2, 127919, Note_on_c, 0, 79, 0
2, 127920, Note_on_c, 0, 76, 54
2, 127999, Note_on_c, 0, 76, 0
2, 128000, Note_on_c, 0, 79, 55
2, 128079, Note_on_c, 0, 79, 0
2, 128080, Note_on_c, 0, 82, 55
2, 128159, Note_on_c, 0, 82, 0
2, 128160, Note_on_c, 0, 81, 55
2, 128239, Note_on_c, 0, 81, 0
2, 128240, Note_on_c, 0, 79, 56
2, 128319, Note_on_c, 0, 79, 0
2, 128320, Note_on_c, 0, 77, 56
2, 128399, Note_on_c, 0, 77, 0
2, 128400, Note_on_c, 0, 76, 57
2, 128479, Note_on_c, 0, 76, 0
2, 128480, Note_on_c, 0, 79, 57
2, 128559, Note_on_c, 0, 79, 0
2, 128560, Note_on_c, 0, 82, 64
2, 128632, Note_on_c, 0, 82, 0
2, 128640, Note_on_c, 0, 81, 59
2, 128719, Note_on_c, 0, 81, 0
2, 128720, Note_on_c, 0, 79, 59
2, 128799, Note_on_c, 0, 79, 0
2, 128800, Note_on_c, 0, 77, 59
2, 128879, Note_on_c, 0, 77, 0
2, 128880, Note_on_c, 0, 76, 59
2, 128959, Note_on_c, 0, 76, 0
2, 128960, Note_on_c, 0, 79, 59
2, 129039, Note_on_c, 0, 79, 0
2, 129040, Note_on_c, 0, 82, 59
2, 129119, Note_on_c, 0, 82, 0
2, 129120, Note_on_c, 0, 79, 59
2, 129199, Note_on_c, 0, 79, 0
2, 129200, Note_on_c, 0, 82, 59
2, 129279, Note_on_c, 0, 82, 0
2, 129280, Note_on_c, 0, 88, 59
2, 129359, Note_on_c, 0, 88, 0
2, 129360, Note_on_c, 0, 82, 59
2, 129439, Note_on_c, 0, 82, 0
2, 129440, Note_on_c, 0, 88, 60
2, 129519, Note_on_c, 0, 88, 0
2, 129520, Note_on_c, 0, 91, 60
2, 129592, Note_on_c, 0, 91, 0
2, 129600, Note_on_c, 0, 88, 61
2, 129679, Note_on_c, 0, 88, 0
2, 129680, Note_on_c, 0, 91, 61
2, 129759, Note_on_c, 0, 91, 0
2, 129760, Note_on_c, 0, 94, 62
2, 129839, Note_on_c, 0, 94, 0
2, 129840, Note_on_c, 0, 93, 62
2, 129919, Note_on_c, 0, 93, 0
2, 129920, Note_on_c, 0, 91, 63
2, 129999, Note_on_c, 0, 91, 0
2, 130000, Note_on_c, 0, 89, 63
2, 130079, Note_on_c, 0, 89, 0
2, 130080, Note_on_c, 0, 88, 64
2, 130159, Note_on_c, 0, 88, 0
2, 130160, Note_on_c, 0, 91, 64
2, 130239, Note_on_c, 0, 91, 0
2, 130240, Note_on_c, 0, 94, 64
2, 130319, Note_on_c, 0, 94, 0
2, 130320, Note_on_c, 0, 93, 63
2, 130399, Note_on_c, 0, 93, 0
2, 130400, Note_on_c, 0, 91, 63
2, 130479, Note_on_c, 0, 91, 0
2, 130480, Note_on_c, 0, 89, 63
2, 130552, Note_on_c, 0, 89, 0
2, 130560, Note_on_c, 0, 87, 63
2, 130639, Note_on_c, 0, 87, 0
2, 130640, Note_on_c, 0, 95, 62
2, 130719, Note_on_c, 0, 95, 0
2, 130720, Note_on_c, 0, 88, 62
2, 130799, Note_on_c, 0, 88, 0
2, 130800, Note_on_c, 0, 82, 62
2, 130879, Note_on_c, 0, 82, 0
2, 130880, Note_on_c, 0, 91, 61
2, 130959, Note_on_c, 0, 91, 0
2, 130960, Note_on_c, 0, 85, 61
2, 131039, Note_on_c, 0, 85, 0
2, 131040, Note_on_c, 0, 81, 61
2, 131119, Note_on_c, 0, 81, 0
2, 131120, Note_on_c, 0, 88, 60
2, 131199, Note_on_c, 0, 88, 0
2, 131200, Note_on_c, 0, 82, 60
2, 131279, Note_on_c, 0, 82, 0
2, 131280, Note_on_c, 0, 78, 60
2, 131359, Note_on_c, 0, 78, 0
2, 131360, Note_on_c, 0, 85, 60
2, 131439, Note_on_c, 0, 85, 0
2, 131440, Note_on_c, 0, 79, 59
2, 131512, Note_on_c, 0, 79, 0
2, 131520, Note_on_c, 0, 75, 59
2, 131599, Note_on_c, 0, 75, 0
2, 131600, Note_on_c, 0, 82, 59
2, 131679, Note_on_c, 0, 82, 0
2, 131680, Note_on_c, 0, 76, 58
2, 131759, Note_on_c, 0, 76, 0
2, 131760, Note_on_c, 0, 72, 58
2, 131839, Note_on_c, 0, 72, 0
2, 131840, Note_on_c, 0, 79, 58
2, 131919, Note_on_c, 0, 79, 0
2, 131920, Note_on_c, 0, 73, 58
2, 131999, Note_on_c, 0, 73, 0
2, 132000, Note_on_c, 0, 69, 57
2, 132079, Note_on_c, 0, 69, 0
2, 132080, Note_on_c, 0, 76, 57
2, 132159, Note_on_c, 0, 76, 0
2, 132160, Note_on_c, 0, 70, 57
2, 132239, Note_on_c, 0, 70, 0
2, 132240, Note_on_c, 0, 66, 56
2, 132319, Note_on_c, 0, 66, 0
2, 132320, Note_on_c, 0, 73, 56
2, 132399, Note_on_c, 0, 73, 0
2, 132400, Note_on_c, 0, 67, 56
2, 132472, Note_on_c, 0, 67, 0
2, 132480, Note_on_c, 0, 63, 55
2, 132559, Note_on_c, 0, 63, 0
2, 132560, Note_on_c, 0, 70, 54
2, 132639, Note_on_c, 0, 70, 0
2, 132640, Note_on_c, 0, 64, 54
2, 132719, Note_on_c, 0, 64, 0
2, 132720, Note_on_c, 0, 63, 54
2, 132799, Note_on_c, 0, 63, 0
2, 132800, Note_on_c, 0, 70, 54
2, 132879, Note_on_c, 0, 70, 0
2, 132880, Note_on_c, 0, 64, 54
2, 132959, Note_on_c, 0, 64, 0
2, 132960, Note_on_c, 0, 60, 54
2, 133039, Note_on_c, 0, 60, 0
2, 133040, Note_on_c, 0, 67, 54
2, 133119, Note_on_c, 0, 67, 0
2, 133120, Note_on_c, 0, 61, 54
2, 133199, Note_on_c, 0, 61, 0
2, 133200, Note_on_c, 0, 60, 54
2, 133279, Note_on_c, 0, 60, 0
2, 133280, Note_on_c, 0, 67, 54
2, 133359, Note_on_c, 0, 67, 0
2, 133360, Note_on_c, 0, 61, 53
2, 133432, Note_on_c, 0, 61, 0
2, 133440, Note_on_c, 0, 57, 53
2, 133519, Note_on_c, 0, 57, 0
2, 133520, Note_on_c, 0, 64, 53
2, 133599, Note_on_c, 0, 64, 0
2, 133600, Note_on_c, 0, 58, 53
2, 133679, Note_on_c, 0, 58, 0
2, 133680, Note_on_c, 0, 57, 53
2, 133759, Note_on_c, 0, 57, 0
2, 133760, Note_on_c, 0, 64, 53
2, 133839, Note_on_c, 0, 64, 0
2, 133840, Note_on_c, 0, 58, 53
2, 133919, Note_on_c, 0, 58, 0
2, 133920, Note_on_c, 0, 54, 53
2, 133999, Note_on_c, 0, 54, 0
2, 134000, Note_on_c, 0, 62, 53
2, 134079, Note_on_c, 0, 62, 0
2, 134080, Note_on_c, 0, 55, 52
2, 134159, Note_on_c, 0, 55, 0
2, 134160, Note_on_c, 0, 54, 52
2, 134239, Note_on_c, 0, 54, 0
2, 134240, Note_on_c, 0, 62, 52
2, 134319, Note_on_c, 0, 62, 0
2, 134320, Note_on_c, 0, 54, 52
2, 134392, Note_on_c, 0, 54, 0
2, 134400, Note_on_c, 0, 54, 52
2, 134479, Note_on_c, 0, 54, 0
2, 134480, Note_on_c, 0, 61, 52
2, 134559, Note_on_c, 0, 61, 0
2, 134560, Note_on_c, 0, 55, 52
2, 134639, Note_on_c, 0, 55, 0
2, 134640, Note_on_c, 0, 54, 52
2, 134719, Note_on_c, 0, 54, 0
2, 134720, Note_on_c, 0, 61, 52
2, 134799, Note_on_c, 0, 61, 0
2, 134800, Note_on_c, 0, 55, 52
2, 134879, Note_on_c, 0, 55, 0
2, 134880, Note_on_c, 0, 51, 51
2, 134959, Note_on_c, 0, 51, 0
2, 134960, Note_on_c, 0, 61, 51
2, 135039, Note_on_c, 0, 61, 0
2, 135040, Note_on_c, 0, 52, 51
2, 135119, Note_on_c, 0, 52, 0
2, 135120, Note_on_c, 0, 51, 51
2, 135199, Note_on_c, 0, 51, 0
2, 135200, Note_on_c, 0, 61, 51
2, 135279, Note_on_c, 0, 61, 0
2, 135280, Note_on_c, 0, 52, 51
2, 135352, Note_on_c, 0, 52, 0
2, 135360, Note_on_c, 0, 51, 51
2, 135439, Note_on_c, 0, 51, 0
2, 135440, Note_on_c, 0, 61, 53
2, 135519, Note_on_c, 0, 61, 0
2, 135520, Note_on_c, 0, 52, 54
2, 135599, Note_on_c, 0, 52, 0
2, 135600, Note_on_c, 0, 53, 56
2, 135679, Note_on_c, 0, 53, 0
2, 135680, Note_on_c, 0, 61, 57
2, 135759, Note_on_c, 0, 61, 0
2, 135760, Note_on_c, 0, 52, 59
2, 135839, Note_on_c, 0, 52, 0
2, 135840, Note_on_c, 0, 55, 60
2, 135919, Note_on_c, 0, 55, 0
2, 135920, Note_on_c, 0, 61, 62
2, 135999, Note_on_c, 0, 61, 0
2, 136000, Note_on_c, 0, 53, 63
2, 136079, Note_on_c, 0, 53, 0
2, 136080, Note_on_c, 0, 57, 65
2, 136159, Note_on_c, 0, 57, 0
2, 136160, Note_on_c, 0, 61, 66
2, 136239, Note_on_c, 0, 61, 0
2, 136240, Note_on_c, 0, 55, 68
2, 136312, Note_on_c, 0, 55, 0
2, 136320, Note_on_c, 0, 58, 69
2, 136399, Note_on_c, 0, 58, 0
2, 136400, Note_on_c, 0, 61, 71
2, 136479, Note_on_c, 0, 61, 0
2, 136480, Note_on_c, 0, 57, 72
2, 136559, Note_on_c, 0, 57, 0
2, 136560, Note_on_c, 0, 58, 74
2, 136639, Note_on_c, 0, 58, 0
2, 136640, Note_on_c, 0, 61, 75
2, 136719, Note_on_c, 0, 61, 0
2, 136720, Note_on_c, 0, 57, 77
2, 136799, Note_on_c, 0, 57, 0
2, 136800, Note_on_c, 0, 58, 78
2, 136879, Note_on_c, 0, 58, 0
2, 136880, Note_on_c, 0, 61, 80
2, 136959, Note_on_c, 0, 61, 0
2, 136960, Note_on_c, 0, 57, 81
2, 137039, Note_on_c, 0, 57, 0
2, 137040, Note_on_c, 0, 58, 83
2, 137119, Note_on_c, 0, 58, 0
2, 137120, Note_on_c, 0, 61, 84
2, 137199, Note_on_c, 0, 61, 0
2, 137200, Note_on_c, 0, 57, 86
2, 137272, Note_on_c, 0, 57, 0
2, 137280, Note_on_c, 0, 58, 87
2, 137359, Note_on_c, 0, 58, 0
2, 137360, Note_on_c, 0, 61, 89
2, 137439, Note_on_c, 0, 61, 0
2, 137440, Note_on_c, 0, 56, 90
2, 137519, Note_on_c, 0, 56, 0
2, 137520, Note_on_c, 0, 58, 92
2, 137599, Note_on_c, 0, 58, 0
2, 137600, Note_on_c, 0, 61, 93
2, 137679, Note_on_c, 0, 61, 0
2, 137680, Note_on_c, 0, 56, 95
2, 137759, Note_on_c, 0, 56, 0
2, 137760, Note_on_c, 0, 58, 96
2, 137839, Note_on_c, 0, 58, 0
2, 137840, Note_on_c, 0, 61, 98
2, 137919, Note_on_c, 0, 61, 0
2, 137920, Note_on_c, 0, 56, 99
2, 137999, Note_on_c, 0, 56, 0
2, 138000, Note_on_c, 0, 58, 101
2, 138030, Control_c, 0, 64, 0
2, 138079, Note_on_c, 0, 58, 0
2, 138080, Note_on_c, 0, 61, 102
2, 138159, Note_on_c, 0, 61, 0
2, 138160, Note_on_c, 0, 56, 104
2, 138232, Note_on_c, 0, 56, 0
2, 138240, Note_on_c, 0, 57, 105
2, 138479, Note_on_c, 0, 57, 0
2, 138480, Note_on_c, 0, 62, 95
2, 138549, Control_c, 0, 64, 127
2, 138959, Note_on_c, 0, 62, 0
2, 138960, Note_on_c, 0, 64, 95
2, 139019, Note_on_c, 0, 64, 0
2, 139020, Note_on_c, 0, 65, 97
2, 139079, Note_on_c, 0, 65, 0
2, 139080, Note_on_c, 0, 62, 99
2, 139139, Note_on_c, 0, 62, 0
2, 139140, Note_on_c, 0, 64, 101
2, 139194, Note_on_c, 0, 64, 0
2, 139200, Note_on_c, 0, 65, 103
2, 139200, Control_c, 0, 64, 0
2, 139416, Note_on_c, 0, 65, 0
2, 139440, Note_on_c, 0, 69, 95
2, 139656, Note_on_c, 0, 69, 0
2, 139680, Note_on_c, 0, 74, 95
2, 140004, Note_on_c, 0, 74, 0
2, 140040, Note_on_c, 0, 74, 94
2, 140148, Note_on_c, 0, 74, 0
2, 140160, Note_on_c, 0, 73, 97
2, 140160, Control_c, 0, 64, 127
2, 140268, Note_on_c, 0, 73, 0
2, 140280, Note_on_c, 0, 74, 100
2, 140388, Note_on_c, 0, 74, 0
2, 140400, Note_on_c, 0, 76, 102
2, 140508, Note_on_c, 0, 76, 0
2, 140520, Note_on_c, 0, 77, 105
2, 140580, Control_c, 0, 64, 0
2, 140628, Note_on_c, 0, 77, 0
2, 140640, Note_on_c, 0, 73, 95
2, 140856, Note_on_c, 0, 73, 0
2, 141000, Note_on_c, 0, 74, 94
2, 141108, Note_on_c, 0, 74, 0
2, 141120, Note_on_c, 0, 73, 97
2, 141228, Note_on_c, 0, 73, 0
2, 141240, Note_on_c, 0, 74, 99
2, 141348, Note_on_c, 0, 74, 0
2, 141360, Note_on_c, 0, 76, 102
2, 141468, Note_on_c, 0, 76, 0
2, 141480, Note_on_c, 0, 77, 105
2, 141588, Note_on_c, 0, 77, 0
2, 141600, Note_on_c, 0, 73, 95
2, 141816, Note_on_c, 0, 73, 0
2, 141960, Note_on_c, 0, 69, 97
2, 141996, Note_on_c, 0, 69, 0
2, 142000, Note_on_c, 0, 71, 100
2, 142036, Note_on_c, 0, 71, 0
2, 142040, Note_on_c, 0, 72, 102
2, 142076, Note_on_c, 0, 72, 0
2, 142080, Note_on_c, 0, 74, 104
2, 142080, Control_c, 0, 64, 127
2, 142296, Note_on_c, 0, 74, 0
2, 142320, Note_on_c, 0, 74, 95
2, 142320, Note_on_c, 0, 79, 95
2, 142752, Note_on_c, 0, 79, 0
2, 142752, Note_on_c, 0, 74, 0
2, 142800, Note_on_c, 0, 81, 88
2, 143016, Note_on_c, 0, 81, 0
2, 143040, Note_on_c, 0, 82, 93
2, 143040, Control_c, 0, 64, 0
2, 143256, Note_on_c, 0, 82, 0
2, 143280, Note_on_c, 0, 81, 97
2, 143280, Note_on_c, 0, 86, 97
2, 143496, Note_on_c, 0, 86, 0
2, 143496, Note_on_c, 0, 81, 0
2, 143520, Note_on_c, 0, 91, 102
2, 143520, Note_on_c, 0, 82, 102
2, 143952, Note_on_c, 0, 82, 0
2, 143952, Note_on_c, 0, 91, 0
2, 144000, Note_on_c, 0, 94, 103
2, 144000, Note_on_c, 0, 91, 103
2, 144108, Note_on_c, 0, 91, 0
2, 144108, Note_on_c, 0, 94, 0
2, 144240, Note_on_c, 0, 89, 99
2, 144240, Note_on_c, 0, 93, 99
2, 144348, Note_on_c, 0, 93, 0
2, 144348, Note_on_c, 0, 89, 0
2, 144480, Note_on_c, 0, 88, 95
2, 144480, Note_on_c, 0, 91, 95
2, 144588, Note_on_c, 0, 91, 0
2, 144588, Note_on_c, 0, 88, 0
2, 144720, Note_on_c, 0, 89, 91
2, 144720, Note_on_c, 0, 86, 91
2, 144828, Note_on_c, 0, 86, 0
2, 144828, Note_on_c, 0, 89, 0
2, 144960, Note_on_c, 0, 88, 87
2, 144960, Note_on_c, 0, 85, 87
2, 145176, Note_on_c, 0, 85, 0
2, 145176, Note_on_c, 0, 88, 0
2, 145200, Note_on_c, 0, 86, 96
2, 145254, Note_on_c, 0, 86, 0
2, 145260, Note_on_c, 0, 88, 94
2, 145314, Note_on_c, 0, 88, 0
2, 145320, Note_on_c, 0, 85, 93
2, 145374, Note_on_c, 0, 85, 0
2, 145380, Note_on_c, 0, 86, 91
2, 145434, Note_on_c, 0, 86, 0
2, 145440, Note_on_c, 0, 85, 89
2, 145656, Note_on_c, 0, 85, 0
2, 145680, Note_on_c, 0, 69, 97
2, 145734, Note_on_c, 0, 69, 0
2, 145740, Note_on_c, 0, 70, 94
2, 145794, Note_on_c, 0, 70, 0
2, 145800, Note_on_c, 0, 68, 91
2, 145854, Note_on_c, 0, 68, 0
2, 145860, Note_on_c, 0, 69, 88
2, 145914, Note_on_c, 0, 69, 0
2, 145920, Note_on_c, 0, 79, 85
2, 145920, Note_on_c, 0, 82, 85
2, 146136, Note_on_c, 0, 82, 0
2, 146136, Note_on_c, 0, 79, 0
2, 146160, Note_on_c, 0, 81, 92
2, 146268, Note_on_c, 0, 81, 0
2, 146400, Note_on_c, 0, 79, 89
2, 146508, Note_on_c, 0, 79, 0
2, 146640, Note_on_c, 0, 77, 85
2, 146748, Note_on_c, 0, 77, 0
2, 146880, Note_on_c, 0, 76, 82
2, 147096, Note_on_c, 0, 76, 0
2, 147120, Note_on_c, 0, 74, 93
2, 147174, Note_on_c, 0, 74, 0
2, 147180, Note_on_c, 0, 76, 91
2, 147234, Note_on_c, 0, 76, 0
2, 147240, Note_on_c, 0, 73, 88
2, 147294, Note_on_c, 0, 73, 0
2, 147300, Note_on_c, 0, 74, 86
2, 147354, Note_on_c, 0, 74, 0
2, 147360, Control_c, 0, 64, 127
2, 147360, Note_on_c, 0, 73, 84
2, 147576, Note_on_c, 0, 73, 0
2, 147600, Note_on_c, 0, 76, 95
2, 147978, Control_c, 0, 64, 0
2, 148056, Note_on_c, 0, 76, 0
2, 148080, Note_on_c, 0, 74, 92
2, 148116, Control_c, 0, 64, 127
2, 148134, Note_on_c, 0, 74, 0
2, 148140, Note_on_c, 0, 76, 91
2, 148194, Note_on_c, 0, 76, 0
2, 148200, Note_on_c, 0, 73, 89
2, 148254, Note_on_c, 0, 73, 0
2, 148260, Note_on_c, 0, 74, 87
2, 148314, Note_on_c, 0, 74, 0
2, 148320, Note_on_c, 0, 73, 85
2, 148536, Note_on_c, 0, 73, 0
2, 148560, Note_on_c, 0, 76, 95
2, 148800, Control_c, 0, 64, 0
2, 148900, Control_c, 0, 64, 127
2, 149016, Note_on_c, 0, 76, 0
2, 149040, Note_on_c, 0, 75, 73
2, 149094, Note_on_c, 0, 75, 0
2, 149100, Note_on_c, 0, 76, 70
2, 149154, Note_on_c, 0, 76, 0
2, 149160, Note_on_c, 0, 73, 67
2, 149214, Note_on_c, 0, 73, 0
2, 149220, Note_on_c, 0, 75, 64
2, 149274, Note_on_c, 0, 75, 0
2, 149280, Note_on_c, 0, 73, 61
2, 149496, Note_on_c, 0, 73, 0
2, 149520, Note_on_c, 0, 76, 58
2, 149860, Control_c, 0, 64, 0
2, 149960, Control_c, 0, 64, 127
2, 149976, Note_on_c, 0, 76, 0
2, 150000, Note_on_c, 0, 75, 63
2, 150054, Note_on_c, 0, 75, 0
2, 150060, Note_on_c, 0, 76, 60
2, 150114, Note_on_c, 0, 76, 0
2, 150120, Note_on_c, 0, 73, 58
2, 150174, Note_on_c, 0, 73, 0
2, 150180, Note_on_c, 0, 75, 55
2, 150234, Note_on_c, 0, 75, 0
2, 150240, Note_on_c, 0, 73, 52
2, 150456, Note_on_c, 0, 73, 0
2, 150480, Note_on_c, 0, 76, 64
2, 150670, Control_c, 0, 64, 0
2, 150696, Note_on_c, 0, 76, 0
2, 150810, Control_c, 0, 64, 127
2, 150840, Note_on_c, 0, 73, 64
2, 150948, Note_on_c, 0, 73, 0
2, 150960, Note_on_c, 0, 76, 64
2, 151308, Note_on_c, 0, 76, 0
2, 151320, Note_on_c, 0, 73, 64
2, 151428, Note_on_c, 0, 73, 0
2, 151440, Note_on_c, 0, 76, 64
2, 151788, Note_on_c, 0, 76, 0
2, 151800, Note_on_c, 0, 73, 64
2, 151908, Note_on_c, 0, 73, 0
2, 151920, Note_on_c, 0, 76, 64
2, 152115, Control_c, 0, 64, 0
2, 152268, Note_on_c, 0, 76, 0
2, 152280, Note_on_c, 0, 73, 70
2, 152388, Note_on_c, 0, 73, 0
2, 152400, Note_on_c, 0, 76, 70
2, 152508, Note_on_c, 0, 76, 0
2, 152520, Note_on_c, 0, 73, 70
2, 152628, Note_on_c, 0, 73, 0
2, 152640, Note_on_c, 0, 76, 70
2, 152640, Control_c, 0, 64, 127
2, 152748, Note_on_c, 0, 76, 0
2, 152760, Note_on_c, 0, 68, 70
2, 152868, Note_on_c, 0, 68, 0
2, 152880, Note_on_c, 0, 73, 72
2, 152988, Note_on_c, 0, 73, 0
2, 153000, Note_on_c, 0, 68, 74
2, 153108, Note_on_c, 0, 68, 0
2, 153120, Note_on_c, 0, 73, 77
2, 153228, Note_on_c, 0, 73, 0
2, 153240, Note_on_c, 0, 64, 80
2, 153348, Note_on_c, 0, 64, 0
2, 153360, Note_on_c, 0, 68, 82
2, 153468, Note_on_c, 0, 68, 0
2, 153480, Note_on_c, 0, 64, 85
2, 153588, Note_on_c, 0, 64, 0
2, 153600, Control_c, 0, 64, 0
2, 153600, Note_on_c, 0, 68, 88
2, 153708, Note_on_c, 0, 68, 0
2, 153720, Note_on_c, 0, 61, 90
2, 153828, Note_on_c, 0, 61, 0
2, 153840, Note_on_c, 0, 64, 93
2, 153948, Note_on_c, 0, 64, 0
2, 153960, Note_on_c, 0, 61, 95
2, 154068, Note_on_c, 0, 61, 0
2, 154080, Note_on_c, 0, 64, 98
2, 154188, Note_on_c, 0, 64, 0
2, 154200, Note_on_c, 0, 56, 90
2, 154308, Note_on_c, 0, 56, 0
2, 154320, Note_on_c, 0, 61, 70
2, 154428, Note_on_c, 0, 61, 0
2, 154440, Note_on_c, 0, 57, 85
2, 154548, Note_on_c, 0, 57, 0
2, 154560, Note_on_c, 0, 61, 70
2, 154560, Control_c, 0, 64, 127
2, 154668, Note_on_c, 0, 61, 0
2, 154680, Note_on_c, 0, 56, 88
2, 154788, Note_on_c, 0, 56, 0
2, 154800, Note_on_c, 0, 61, 81
2, 154908, Note_on_c, 0, 61, 0
2, 154920, Note_on_c, 0, 55, 96
2, 155028, Note_on_c, 0, 55, 0
2, 155040, Note_on_c, 0, 61, 90
2, 155148, Note_on_c, 0, 61, 0
2, 155160, Note_on_c, 0, 56, 103
2, 155268, Note_on_c, 0, 56, 0
2, 155280, Note_on_c, 0, 61, 99
2, 155388, Note_on_c, 0, 61, 0
2, 155400, Note_on_c, 0, 57, 104
2, 155508, Note_on_c, 0, 57, 0
2, 155520, Note_on_c, 0, 61, 84
2, 155520, Control_c, 0, 64, 0
2, 155628, Note_on_c, 0, 61, 0
2, 155640, Note_on_c, 0, 56, 98
2, 155748, Note_on_c, 0, 56, 0
2, 155760, Note_on_c, 0, 61, 91
2, 155868, Note_on_c, 0, 61, 0
2, 155880, Note_on_c, 0, 55, 95
2, 155988, Note_on_c, 0, 55, 0
2, 156000, Note_on_c, 0, 61, 70
2, 156108, Note_on_c, 0, 61, 0
2, 156120, Note_on_c, 0, 56, 84
2, 156228, Note_on_c, 0, 56, 0
2, 156240, Note_on_c, 0, 61, 78
2, 156348, Note_on_c, 0, 61, 0
2, 156360, Note_on_c, 0, 57, 89
2, 156468, Note_on_c, 0, 57, 0
2, 156480, Note_on_c, 0, 61, 84
2, 156492, Control_c, 0, 64, 127
2, 156588, Note_on_c, 0, 61, 0
2, 156600, Note_on_c, 0, 61, 87
2, 156708, Note_on_c, 0, 61, 0
2, 156720, Note_on_c, 0, 64, 97
2, 156828, Note_on_c, 0, 64, 0
2, 156840, Note_on_c, 0, 64, 93
2, 156948, Note_on_c, 0, 64, 0
2, 156960, Note_on_c, 0, 67, 101
2, 157068, Note_on_c, 0, 67, 0
2, 157080, Note_on_c, 0, 67, 99
2, 157188, Note_on_c, 0, 67, 0
2, 157200, Note_on_c, 0, 73, 102
2, 157308, Note_on_c, 0, 73, 0
2, 157320, Note_on_c, 0, 73, 105
2, 157428, Note_on_c, 0, 73, 0
2, 157440, Note_on_c, 0, 76, 86
2, 157452, Control_c, 0, 64, 0
2, 157548, Note_on_c, 0, 76, 0
2, 157560, Note_on_c, 0, 76, 87
2, 157668, Note_on_c, 0, 76, 0
2, 157680, Note_on_c, 0, 79, 89
2, 157788, Note_on_c, 0, 79, 0
2, 157800, Note_on_c, 0, 79, 91
2, 157908, Note_on_c, 0, 79, 0
2, 157920, Note_on_c, 0, 85, 92
2, 158028, Note_on_c, 0, 85, 0
2, 158040, Note_on_c, 0, 85, 94
2, 158148, Note_on_c, 0, 85, 0
2, 158160, Note_on_c, 0, 88, 96
2, 158268, Note_on_c, 0, 88, 0
2, 158280, Note_on_c, 0, 88, 97
2, 158388, Note_on_c, 0, 88, 0
2, 158400, Control_c, 0, 64, 127
2, 158400, Note_on_c, 0, 91, 81
2, 158472, Note_on_c, 0, 91, 0
2, 158480, Note_on_c, 0, 89, 82
2, 158552, Note_on_c, 0, 89, 0
2, 158560, Note_on_c, 0, 88, 83
2, 158632, Note_on_c, 0, 88, 0
2, 158640, Note_on_c, 0, 86, 83
2, 158712, Note_on_c, 0, 86, 0
2, 158720, Note_on_c, 0, 85, 84
2, 158792, Note_on_c, 0, 85, 0
2, 158800, Note_on_c, 0, 83, 85
2, 158872, Note_on_c, 0, 83, 0
2, 158880, Note_on_c, 0, 81, 86
2, 158952, Note_on_c, 0, 81, 0
2, 158960, Note_on_c, 0, 79, 87
2, 159032, Note_on_c, 0, 79, 0
2, 159040, Note_on_c, 0, 77, 87
2, 159112, Note_on_c, 0, 77, 0
2, 159120, Note_on_c, 0, 76, 88
2, 159192, Note_on_c, 0, 76, 0
2, 159200, Note_on_c, 0, 74, 89
2, 159272, Note_on_c, 0, 74, 0
2, 159280, Note_on_c, 0, 73, 90
2, 159352, Note_on_c, 0, 73, 0
2, 159360, Note_on_c, 0, 70, 90
2, 159432, Note_on_c, 0, 70, 0
2, 159440, Note_on_c, 0, 69, 91
2, 159512, Note_on_c, 0, 69, 0
2, 159520, Note_on_c, 0, 67, 92
2, 159592, Note_on_c, 0, 67, 0
2, 159600, Note_on_c, 0, 65, 92
2, 159672, Note_on_c, 0, 65, 0
2, 159680, Note_on_c, 0, 64, 94
2, 159752, Note_on_c, 0, 64, 0
2, 159760, Note_on_c, 0, 62, 94
2, 159770, Control_c, 0, 64, 0
2, 159814, Note_on_c, 0, 62, 0
2, 159820, Note_on_c, 0, 61, 95
2, 159874, Note_on_c, 0, 61, 0
2, 159880, Note_on_c, 0, 58, 96
2, 160096, Note_on_c, 0, 58, 0
2, 161040, Note_on_c, 0, 64, 89
2, 161076, Note_on_c, 0, 64, 0
2, 161080, Note_on_c, 0, 65, 94
2, 161116, Note_on_c, 0, 65, 0
2, 161120, Note_on_c, 0, 64, 99
2, 161156, Note_on_c, 0, 64, 0
2, 161160, Note_on_c, 0, 62, 95
2, 161214, Note_on_c, 0, 62, 0
2, 161220, Note_on_c, 0, 64, 93
2, 161274, Note_on_c, 0, 64, 0
2, 161280, Control_c, 0, 64, 127
2, 161280, Note_on_c, 0, 65, 90
2, 161496, Note_on_c, 0, 65, 0
2, 161520, Note_on_c, 0, 69, 97
2, 161736, Note_on_c, 0, 69, 0
2, 161760, Note_on_c, 0, 74, 97
2, 162084, Note_on_c, 0, 74, 0
2, 162120, Note_on_c, 0, 74, 94
2, 162228, Note_on_c, 0, 74, 0
2, 162240, Control_c, 0, 64, 0
2, 162240, Note_on_c, 0, 73, 96
2, 162348, Note_on_c, 0, 73, 0
2, 162360, Note_on_c, 0, 74, 98
2, 162468, Note_on_c, 0, 74, 0
2, 162480, Note_on_c, 0, 76, 100
2, 162588, Note_on_c, 0, 76, 0
2, 162600, Note_on_c, 0, 77, 102
2, 162708, Note_on_c, 0, 77, 0
2, 162720, Note_on_c, 0, 73, 97
2, 162936, Note_on_c, 0, 73, 0
2, 163080, Note_on_c, 0, 74, 96
2, 163188, Note_on_c, 0, 74, 0
2, 163200, Control_c, 0, 64, 127
2, 163200, Note_on_c, 0, 73, 98
2, 163308, Note_on_c, 0, 73, 0
2, 163320, Note_on_c, 0, 74, 100
2, 163368, Control_c, 0, 64, 0
2, 163428, Note_on_c, 0, 74, 0
2, 163440, Note_on_c, 0, 76, 102
2, 163548, Note_on_c, 0, 76, 0
2, 163560, Note_on_c, 0, 77, 104
2, 163668, Note_on_c, 0, 77, 0
2, 163680, Note_on_c, 0, 73, 97
2, 163896, Note_on_c, 0, 73, 0
2, 164040, Note_on_c, 0, 69, 88
2, 164076, Note_on_c, 0, 69, 0
2, 164080, Note_on_c, 0, 71, 93
2, 164116, Note_on_c, 0, 71, 0
2, 164120, Note_on_c, 0, 73, 97
2, 164156, Note_on_c, 0, 73, 0
2, 164160, Note_on_c, 0, 74, 102
2, 164376, Note_on_c, 0, 74, 0
2, 164400, Note_on_c, 0, 79, 97
2, 164400, Note_on_c, 0, 74, 97
2, 164832, Note_on_c, 0, 74, 0
2, 164832, Note_on_c, 0, 79, 0
2, 164880, Note_on_c, 0, 81, 84
2, 164934, Note_on_c, 0, 81, 0
2, 164940, Note_on_c, 0, 82, 89
2, 164994, Note_on_c, 0, 82, 0
2, 165000, Note_on_c, 0, 81, 93
2, 165054, Note_on_c, 0, 81, 0
2, 165060, Note_on_c, 0, 82, 98
2, 165114, Note_on_c, 0, 82, 0
2, 165120, Note_on_c, 0, 82, 103
2, 165120, Control_c, 0, 64, 127
2, 165336, Note_on_c, 0, 82, 0
2, 165360, Note_on_c, 0, 81, 97
2, 165360, Note_on_c, 0, 86, 97
2, 165576, Note_on_c, 0, 86, 0
2, 165576, Note_on_c, 0, 81, 0
2, 165600, Note_on_c, 0, 82, 108
2, 165600, Note_on_c, 0, 91, 108
2, 165936, Control_c, 0, 64, 0
2, 166032, Note_on_c, 0, 91, 0
2, 166032, Note_on_c, 0, 82, 0
2, 166080, Note_on_c, 0, 91, 91
2, 166080, Note_on_c, 0, 94, 91
2, 166296, Note_on_c, 0, 94, 0
2, 166296, Note_on_c, 0, 91, 0
2, 166320, Note_on_c, 0, 93, 84
2, 166320, Note_on_c, 0, 89, 84
2, 166536, Note_on_c, 0, 89, 0
2, 166536, Note_on_c, 0, 93, 0
2, 166560, Note_on_c, 0, 91, 84
2, 166560, Note_on_c, 0, 88, 84
2, 166776, Note_on_c, 0, 88, 0
2, 166776, Note_on_c, 0, 91, 0
2, 166800, Note_on_c, 0, 86, 84
2, 166800, Note_on_c, 0, 89, 84
2, 167016, Note_on_c, 0, 89, 0
2, 167016, Note_on_c, 0, 86, 0
2, 167040, Note_on_c, 0, 88, 84
2, 167040, Note_on_c, 0, 82, 84
2, 167055, Control_c, 0, 64, 127
2, 167256, Note_on_c, 0, 82, 0
2, 167256, Note_on_c, 0, 88, 0
2, 167280, Note_on_c, 0, 85, 80
2, 167334, Note_on_c, 0, 85, 0
2, 167340, Note_on_c, 0, 86, 85
2, 167394, Note_on_c, 0, 86, 0
2, 167400, Note_on_c, 0, 83, 89
2, 167454, Note_on_c, 0, 83, 0
2, 167460, Note_on_c, 0, 85, 94
2, 167514, Note_on_c, 0, 85, 0
2, 167520, Note_on_c, 0, 86, 84
2, 167736, Note_on_c, 0, 86, 0
2, 167760, Note_on_c, 0, 88, 80
2, 167814, Note_on_c, 0, 88, 0
2, 167820, Note_on_c, 0, 89, 83
2, 167874, Note_on_c, 0, 89, 0
2, 167880, Note_on_c, 0, 91, 87
2, 167934, Note_on_c, 0, 91, 0
2, 167940, Note_on_c, 0, 93, 91
2, 167994, Note_on_c, 0, 93, 0
2, 168000, Note_on_c, 0, 94, 95
2, 168015, Control_c, 0, 64, 0
2, 168216, Note_on_c, 0, 94, 0
2, 168240, Note_on_c, 0, 93, 94
2, 168240, Note_on_c, 0, 89, 94
2, 168456, Note_on_c, 0, 89, 0
2, 168456, Note_on_c, 0, 93, 0
2, 168480, Note_on_c, 0, 91, 88
2, 168480, Note_on_c, 0, 88, 88
2, 168696, Note_on_c, 0, 88, 0
2, 168696, Note_on_c, 0, 91, 0
2, 168720, Note_on_c, 0, 89, 82
2, 168720, Note_on_c, 0, 86, 82
2, 168936, Note_on_c, 0, 86, 0
2, 168936, Note_on_c, 0, 89, 0
2, 168960, Note_on_c, 0, 88, 100
2, 168960, Note_on_c, 0, 82, 100
2, 168960, Control_c, 0, 64, 127
2, 169176, Note_on_c, 0, 82, 0
2, 169176, Note_on_c, 0, 88, 0
2, 169200, Note_on_c, 0, 85, 99
2, 169254, Note_on_c, 0, 85, 0
2, 169260, Note_on_c, 0, 86, 96
2, 169314, Note_on_c, 0, 86, 0
2, 169320, Note_on_c, 0, 83, 93
2, 169374, Note_on_c, 0, 83, 0
2, 169380, Note_on_c, 0, 85, 90
2, 169434, Note_on_c, 0, 85, 0
2, 169440, Note_on_c, 0, 86, 87
2, 169656, Note_on_c, 0, 86, 0
2, 169680, Note_on_c, 0, 88, 94
2, 169734, Note_on_c, 0, 88, 0
2, 169740, Note_on_c, 0, 90, 92
2, 169794, Note_on_c, 0, 90, 0
2, 169800, Note_on_c, 0, 91, 91
2, 169808, Control_c, 0, 64, 0
2, 169854, Note_on_c, 0, 91, 0
2, 169860, Note_on_c, 0, 93, 89
2, 169914, Note_on_c, 0, 93, 0
2, 169920, Note_on_c, 0, 98, 87
2, 169920, Note_on_c, 0, 86, 87
2, 170136, Note_on_c, 0, 86, 0
2, 170136, Note_on_c, 0, 98, 0
2, 170160, Note_on_c, 0, 91, 92
2, 170160, Note_on_c, 0, 94, 92
2, 170376, Note_on_c, 0, 94, 0
2, 170376, Note_on_c, 0, 91, 0
2, 170400, Note_on_c, 0, 91, 86
2, 170400, Note_on_c, 0, 86, 86
2, 170400, Note_on_c, 0, 82, 86
2, 170616, Note_on_c, 0, 82, 0
2, 170616, Note_on_c, 0, 86, 0
2, 170616, Note_on_c, 0, 91, 0
2, 170640, Note_on_c, 0, 82, 82
2, 170640, Note_on_c, 0, 79, 82
2, 170640, Note_on_c, 0, 86, 82
2, 170856, Note_on_c, 0, 86, 0
2, 170856, Note_on_c, 0, 79, 0
2, 170856, Note_on_c, 0, 82, 0
2, 170880, Note_on_c, 0, 79, 77
2, 170880, Note_on_c, 0, 82, 77
2, 171096, Note_on_c, 0, 82, 0
2, 171096, Note_on_c, 0, 79, 0
2, 171120, Note_on_c, 0, 74, 73
2, 171120, Note_on_c, 0, 79, 73
2, 171336, Note_on_c, 0, 79, 0
2, 171336, Note_on_c, 0, 74, 0
2, 171360, Note_on_c, 0, 76, 68
2, 171360, Note_on_c, 0, 74, 68
2, 171576, Note_on_c, 0, 74, 0
2, 171576, Note_on_c, 0, 76, 0
2, 171600, Note_on_c, 0, 81, 63
2, 171600, Note_on_c, 0, 73, 63
2, 171816, Note_on_c, 0, 73, 0
2, 171816, Note_on_c, 0, 81, 0
2, 171840, Note_on_c, 0, 74, 76
2, 172056, Note_on_c, 0, 74, 0
2, 173760, Note_on_c, 0, 62, 65
2, 173760, Control_c, 0, 64, 127
2, 173999, Note_on_c, 0, 62, 0
2, 174000, Note_on_c, 0, 65, 58
2, 174239, Note_on_c, 0, 65, 0
2, 174240, Note_on_c, 0, 70, 64
2, 174479, Note_on_c, 0, 70, 0
2, 174480, Note_on_c, 0, 74, 69
2, 174696, Note_on_c, 0, 74, 0
2, 174720, Note_on_c, 0, 77, 76
2, 175439, Note_on_c, 0, 77, 0
2, 175440, Note_on_c, 0, 72, 65
2, 175656, Note_on_c, 0, 72, 0
2, 175680, Note_on_c, 0, 75, 75
2, 176159, Note_on_c, 0, 75, 0
2, 176160, Note_on_c, 0, 74, 72
2, 176399, Note_on_c, 0, 74, 0
2, 176400, Note_on_c, 0, 72, 68
2, 176616, Note_on_c, 0, 72, 0
2, 176640, Note_on_c, 0, 70, 64
2, 177119, Note_on_c, 0, 70, 0
2, 177120, Note_on_c, 0, 69, 56
2, 177839, Note_on_c, 0, 69, 0
2, 177840, Note_on_c, 0, 72, 62
2, 178079, Note_on_c, 0, 72, 0
2, 178080, Note_on_c, 0, 74, 66
2, 178319, Note_on_c, 0, 74, 0
2, 178320, Note_on_c, 0, 79, 71
2, 178536, Note_on_c, 0, 79, 0
2, 178560, Note_on_c, 0, 82, 75
2, 179279, Note_on_c, 0, 82, 0
2, 179280, Note_on_c, 0, 70, 49
2, 179496, Note_on_c, 0, 70, 0
2, 179520, Note_on_c, 0, 81, 44
2, 179999, Note_on_c, 0, 81, 0
2, 180000, Note_on_c, 0, 79, 62
2, 180239, Note_on_c, 0, 79, 0
2, 180240, Note_on_c, 0, 77, 55
2, 180456, Note_on_c, 0, 77, 0
2, 180480, Note_on_c, 0, 77, 48
2, 180857, Control_c, 0, 64, 0
2, 180912, Note_on_c, 0, 77, 0
2, 181440, Control_c, 0, 64, 127
2, 181680, Note_on_c, 0, 74, 55
2, 181680, Note_on_c, 0, 86, 55
2, 182159, Note_on_c, 0, 86, 0
2, 182159, Note_on_c, 0, 74, 0
2, 182160, Note_on_c, 0, 89, 58
2, 182160, Note_on_c, 0, 77, 58
2, 182639, Note_on_c, 0, 77, 0
2, 182639, Note_on_c, 0, 89, 0
2, 182640, Note_on_c, 0, 72, 65
2, 182640, Note_on_c, 0, 84, 65
2, 183119, Note_on_c, 0, 84, 0
2, 183119, Note_on_c, 0, 72, 0
2, 183120, Note_on_c, 0, 77, 66
2, 183120, Note_on_c, 0, 89, 66
2, 183599, Note_on_c, 0, 89, 0
2, 183599, Note_on_c, 0, 77, 0
2, 183600, Note_on_c, 0, 70, 66
2, 183600, Note_on_c, 0, 82, 66
2, 184079, Note_on_c, 0, 82, 0
2, 184079, Note_on_c, 0, 70, 0
2, 184080, Note_on_c, 0, 75, 67
2, 184080, Note_on_c, 0, 87, 67
2, 184559, Note_on_c, 0, 87, 0
2, 184559, Note_on_c, 0, 75, 0
2, 184560, Note_on_c, 0, 74, 68
2, 184560, Note_on_c, 0, 86, 68
2, 185039, Note_on_c, 0, 86, 0
2, 185039, Note_on_c, 0, 74, 0
2, 185040, Note_on_c, 0, 84, 68
2, 185040, Note_on_c, 0, 72, 68
2, 185256, Note_on_c, 0, 72, 0
2, 185256, Note_on_c, 0, 84, 0
2, 185520, Note_on_c, 0, 82, 68
2, 185999, Note_on_c, 0, 82, 0
2, 186000, Note_on_c, 0, 82, 69
2, 186000, Note_on_c, 0, 94, 49
2, 186479, Note_on_c, 0, 94, 0
2, 186479, Note_on_c, 0, 82, 0
2, 186480, Note_on_c, 0, 82, 69
2, 186959, Note_on_c, 0, 82, 0
2, 186960, Note_on_c, 0, 81, 70
2, 186960, Note_on_c, 0, 93, 70
2, 187439, Note_on_c, 0, 93, 0
2, 187439, Note_on_c, 0, 81, 0
2, 187440, Note_on_c, 0, 82, 71
2, 187919, Note_on_c, 0, 82, 0
2, 187920, Note_on_c, 0, 91, 71
2, 187920, Note_on_c, 0, 79, 71
2, 188639, Note_on_c, 0, 79, 0
2, 188639, Note_on_c, 0, 91, 0
2, 188640, Note_on_c, 0, 89, 56
2, 188640, Note_on_c, 0, 77, 56
2, 188856, Note_on_c, 0, 77, 0
2, 188856, Note_on_c, 0, 89, 0
2, 195840, Control_c, 0, 64, 127
2, 195840, Note_on_c, 0, 82, 81
2, 196704, Note_on_c, 0, 82, 0
2, 196800, Control_c, 0, 64, 0
2, 196800, Note_on_c, 0, 81, 72
2, 197232, Note_on_c, 0, 81, 0
2, 197760, Note_on_c, 0, 77, 52
2, 197760, Note_on_c, 0, 80, 52
2, 197760, Note_on_c, 0, 73, 52
2, 198624, Note_on_c, 0, 80, 0
2, 198720, Note_on_c, 0, 82, 61
2, 199584, Note_on_c, 0, 82, 0
2, 199584, Note_on_c, 0, 73, 0
2, 199584, Note_on_c, 0, 77, 0
2, 199680, Note_on_c, 0, 82, 49
2, 199680, Note_on_c, 0, 78, 49
2, 201359, Note_on_c, 0, 78, 0
2, 201359, Note_on_c, 0, 82, 0
2, 201360, Note_on_c, 0, 70, 55
2, 201360, Note_on_c, 0, 65, 55
2, 201360, Note_on_c, 0, 77, 55
2, 202319, Note_on_c, 0, 77, 0
2, 202319, Note_on_c, 0, 65, 0
2, 202319, Note_on_c, 0, 70, 0
2, 202320, Note_on_c, 0, 82, 56
2, 202320, Note_on_c, 0, 89, 56
2, 202320, Note_on_c, 0, 77, 56
2, 203039, Note_on_c, 0, 77, 0
2, 203039, Note_on_c, 0, 89, 0
2, 203039, Note_on_c, 0, 82, 0
2, 203040, Note_on_c, 0, 81, 72
2, 203159, Note_on_c, 0, 81, 0
2, 203160, Note_on_c, 0, 82, 72
2, 203279, Note_on_c, 0, 82, 0
2, 203280, Note_on_c, 0, 81, 72
2, 203399, Note_on_c, 0, 81, 0
2, 203400, Note_on_c, 0, 82, 72
2, 203508, Note_on_c, 0, 82, 0
2, 203520, Note_on_c, 0, 82, 72
2, 203520, Control_c, 0, 64, 127
2, 203579, Note_on_c, 0, 82, 0
2, 203580, Note_on_c, 0, 83, 72
2, 203639, Note_on_c, 0, 83, 0
2, 203640, Note_on_c, 0, 82, 72
2, 203699, Note_on_c, 0, 82, 0
2, 203700, Note_on_c, 0, 83, 72
2, 203759, Note_on_c, 0, 83, 0
2, 203760, Note_on_c, 0, 82, 73
2, 203819, Note_on_c, 0, 82, 0
2, 203820, Note_on_c, 0, 83, 72
2, 203879, Note_on_c, 0, 83, 0
2, 203880, Note_on_c, 0, 82, 72
2, 203939, Note_on_c, 0, 82, 0
2, 203940, Note_on_c, 0, 83, 72
2, 203999, Note_on_c, 0, 83, 0
2, 204000, Note_on_c, 0, 83, 72
2, 204059, Note_on_c, 0, 83, 0
2, 204060, Note_on_c, 0, 85, 69
2, 204119, Note_on_c, 0, 85, 0
2, 204120, Note_on_c, 0, 83, 72
2, 204179, Note_on_c, 0, 83, 0
2, 204180, Note_on_c, 0, 85, 72
2, 204239, Note_on_c, 0, 85, 0
2, 204240, Note_on_c, 0, 83, 73
2, 204299, Note_on_c, 0, 83, 0
2, 204300, Note_on_c, 0, 85, 72
2, 204359, Note_on_c, 0, 85, 0
2, 204360, Note_on_c, 0, 83, 73
2, 204419, Note_on_c, 0, 83, 0
2, 204420, Note_on_c, 0, 85, 71
2, 204474, Note_on_c, 0, 85, 0
2, 204480, Note_on_c, 0, 85, 70
2, 204539, Note_on_c, 0, 85, 0
2, 204540, Note_on_c, 0, 87, 71
2, 204599, Note_on_c, 0, 87, 0
2, 204600, Note_on_c, 0, 85, 73
2, 204659, Note_on_c, 0, 85, 0
2, 204660, Note_on_c, 0, 87, 73
2, 204719, Note_on_c, 0, 87, 0
2, 204720, Note_on_c, 0, 85, 72
2, 204779, Note_on_c, 0, 85, 0
2, 204780, Note_on_c, 0, 87, 73
2, 204839, Note_on_c, 0, 87, 0
2, 204840, Note_on_c, 0, 85, 72
2, 204899, Note_on_c, 0, 85, 0
2, 204900, Note_on_c, 0, 87, 73
2, 204959, Note_on_c, 0, 87, 0
2, 204960, Note_on_c, 0, 87, 72
2, 205019, Note_on_c, 0, 87, 0
2, 205020, Note_on_c, 0, 88, 72
2, 205079, Note_on_c, 0, 88, 0
2, 205080, Note_on_c, 0, 87, 74
2, 205139, Note_on_c, 0, 87, 0
2, 205140, Note_on_c, 0, 88, 74
2, 205199, Note_on_c, 0, 88, 0
2, 205200, Note_on_c, 0, 87, 74
2, 205259, Note_on_c, 0, 87, 0
2, 205260, Note_on_c, 0, 88, 74
2, 205319, Note_on_c, 0, 88, 0
2, 205320, Note_on_c, 0, 87, 74
2, 205379, Note_on_c, 0, 87, 0
2, 205380, Note_on_c, 0, 88, 72
2, 205434, Note_on_c, 0, 88, 0
2, 205440, Note_on_c, 0, 89, 72
2, 205499, Note_on_c, 0, 89, 0
2, 205500, Note_on_c, 0, 90, 72
2, 205559, Note_on_c, 0, 90, 0
2, 205560, Note_on_c, 0, 89, 72
2, 205619, Note_on_c, 0, 89, 0
2, 205620, Note_on_c, 0, 90, 72
2, 205679, Note_on_c, 0, 90, 0
2, 205680, Note_on_c, 0, 89, 72
2, 205739, Note_on_c, 0, 89, 0
2, 205740, Note_on_c, 0, 90, 72
2, 205799, Note_on_c, 0, 90, 0
2, 205800, Note_on_c, 0, 89, 68
2, 205859, Note_on_c, 0, 89, 0
2, 205860, Note_on_c, 0, 90, 71
2, 205919, Note_on_c, 0, 90, 0
2, 205920, Note_on_c, 0, 89, 72
2, 205979, Note_on_c, 0, 89, 0
2, 205980, Note_on_c, 0, 90, 72
2, 206039, Note_on_c, 0, 90, 0
2, 206040, Note_on_c, 0, 89, 69
2, 206099, Note_on_c, 0, 89, 0
2, 206100, Note_on_c, 0, 90, 72
2, 206159, Note_on_c, 0, 90, 0
2, 206160, Note_on_c, 0, 89, 68
2, 206219, Note_on_c, 0, 89, 0
2, 206220, Note_on_c, 0, 90, 68
2, 206279, Note_on_c, 0, 90, 0
2, 206280, Note_on_c, 0, 89, 72
2, 206339, Note_on_c, 0, 89, 0
2, 206340, Note_on_c, 0, 90, 68
2, 206394, Note_on_c, 0, 90, 0
2, 206400, Note_on_c, 0, 92, 71
2, 206459, Note_on_c, 0, 92, 0
2, 206460, Note_on_c, 0, 94, 72
2, 206519, Note_on_c, 0, 94, 0
2, 206520, Note_on_c, 0, 92, 71
2, 206579, Note_on_c, 0, 92, 0
2, 206580, Note_on_c, 0, 94, 71
2, 206639, Note_on_c, 0, 94, 0
2, 206640, Note_on_c, 0, 92, 72
2, 206699, Note_on_c, 0, 92, 0
2, 206700, Note_on_c, 0, 94, 72
2, 206759, Note_on_c, 0, 94, 0
2, 206760, Note_on_c, 0, 92, 68
2, 206819, Note_on_c, 0, 92, 0
2, 206820, Note_on_c, 0, 94, 68
2, 206879, Note_on_c, 0, 94, 0
2, 206880, Note_on_c, 0, 92, 72
2, 206939, Note_on_c, 0, 92, 0
2, 206940, Note_on_c, 0, 94, 78
2, 206999, Note_on_c, 0, 94, 0
2, 207000, Note_on_c, 0, 92, 72
2, 207059, Note_on_c, 0, 92, 0
2, 207060, Note_on_c, 0, 94, 75
2, 207119, Note_on_c, 0, 94, 0
2, 207120, Note_on_c, 0, 92, 69
2, 207179, Note_on_c, 0, 92, 0
2, 207180, Note_on_c, 0, 94, 69
2, 207239, Note_on_c, 0, 94, 0
2, 207240, Note_on_c, 0, 92, 69
2, 207299, Note_on_c, 0, 92, 0
2, 207300, Note_on_c, 0, 94, 64
2, 207354, Note_on_c, 0, 94, 0
2, 207360, Note_on_c, 0, 95, 62
2, 207419, Note_on_c, 0, 95, 0
2, 207420, Note_on_c, 0, 97, 64
2, 207479, Note_on_c, 0, 97, 0
2, 207480, Note_on_c, 0, 95, 61
2, 207539, Note_on_c, 0, 95, 0
2, 207540, Note_on_c, 0, 97, 60
2, 207599, Note_on_c, 0, 97, 0
2, 207600, Note_on_c, 0, 95, 58
2, 207659, Note_on_c, 0, 95, 0
2, 207660, Note_on_c, 0, 97, 53
2, 207719, Note_on_c, 0, 97, 0
2, 207720, Note_on_c, 0, 95, 54
2, 207779, Note_on_c, 0, 95, 0
2, 207780, Note_on_c, 0, 97, 51
2, 207839, Note_on_c, 0, 97, 0
2, 207840, Note_on_c, 0, 95, 48
2, 207899, Note_on_c, 0, 95, 0
2, 207900, Note_on_c, 0, 97, 49
2, 207959, Note_on_c, 0, 97, 0
2, 207960, Note_on_c, 0, 95, 74
2, 208019, Note_on_c, 0, 95, 0
2, 208020, Note_on_c, 0, 97, 51
2, 208079, Note_on_c, 0, 97, 0
2, 208080, Note_on_c, 0, 95, 74
2, 208139, Note_on_c, 0, 95, 0
2, 208140, Note_on_c, 0, 97, 51
2, 208199, Note_on_c, 0, 97, 0
2, 208200, Note_on_c, 0, 95, 74
2, 208259, Note_on_c, 0, 95, 0
2, 208260, Note_on_c, 0, 97, 51
2, 208314, Note_on_c, 0, 97, 0
2, 208320, Note_on_c, 0, 95, 74
2, 208379, Note_on_c, 0, 95, 0
2, 208380, Note_on_c, 0, 97, 51
2, 208439, Note_on_c, 0, 97, 0
2, 208440, Note_on_c, 0, 95, 75
2, 208499, Note_on_c, 0, 95, 0
2, 208500, Note_on_c, 0, 97, 51
2, 208559, Note_on_c, 0, 97, 0
2, 208560, Note_on_c, 0, 95, 75
2, 208619, Note_on_c, 0, 95, 0
2, 208620, Note_on_c, 0, 97, 51
2, 208679, Note_on_c, 0, 97, 0
2, 208680, Note_on_c, 0, 95, 75
2, 208739, Note_on_c, 0, 95, 0
2, 208740, Note_on_c, 0, 97, 51
2, 208799, Note_on_c, 0, 97, 0
2, 208800, Note_on_c, 0, 95, 75
2, 208859, Note_on_c, 0, 95, 0
2, 208860, Note_on_c, 0, 97, 51
2, 208919, Note_on_c, 0, 97, 0
2, 208920, Note_on_c, 0, 95, 75
2, 208979, Note_on_c, 0, 95, 0
2, 208980, Note_on_c, 0, 97, 51
2, 209039, Note_on_c, 0, 97, 0
2, 209040, Note_on_c, 0, 95, 75
2, 209099, Note_on_c, 0, 95, 0
2, 209100, Note_on_c, 0, 97, 51
2, 209159, Note_on_c, 0, 97, 0
2, 209160, Note_on_c, 0, 95, 76
2, 209219, Note_on_c, 0, 95, 0
2, 209220, Note_on_c, 0, 97, 51
2, 209274, Note_on_c, 0, 97, 0
2, 209280, Note_on_c, 0, 94, 51
2, 209339, Note_on_c, 0, 94, 0
2, 209340, Note_on_c, 0, 95, 48
2, 209399, Note_on_c, 0, 95, 0
2, 209400, Note_on_c, 0, 94, 51
2, 209459, Note_on_c, 0, 94, 0
2, 209460, Note_on_c, 0, 95, 47
2, 209519, Note_on_c, 0, 95, 0
2, 209520, Note_on_c, 0, 94, 51
2, 209579, Note_on_c, 0, 94, 0
2, 209580, Note_on_c, 0, 95, 48
2, 209639, Note_on_c, 0, 95, 0
2, 209640, Note_on_c, 0, 94, 51
2, 209699, Note_on_c, 0, 94, 0
2, 209700, Note_on_c, 0, 95, 51
2, 209759, Note_on_c, 0, 95, 0
2, 209760, Note_on_c, 0, 88, 49
2, 209819, Note_on_c, 0, 88, 0
2, 209820, Note_on_c, 0, 90, 50
2, 209879, Note_on_c, 0, 90, 0
2, 209880, Note_on_c, 0, 88, 48
2, 209939, Note_on_c, 0, 88, 0
2, 209940, Note_on_c, 0, 90, 51
2, 209999, Note_on_c, 0, 90, 0
2, 210000, Note_on_c, 0, 88, 51
2, 210059, Note_on_c, 0, 88, 0
2, 210060, Note_on_c, 0, 90, 51
2, 210119, Note_on_c, 0, 90, 0
2, 210120, Note_on_c, 0, 88, 46
2, 210179, Note_on_c, 0, 88, 0
2, 210180, Note_on_c, 0, 90, 51
2, 210234, Note_on_c, 0, 90, 0
2, 210240, Note_on_c, 0, 85, 45
2, 210299, Note_on_c, 0, 85, 0
2, 210300, Note_on_c, 0, 87, 51
2, 210359, Note_on_c, 0, 87, 0
2, 210360, Note_on_c, 0, 85, 51
2, 210419, Note_on_c, 0, 85, 0
2, 210420, Note_on_c, 0, 87, 47
2, 210479, Note_on_c, 0, 87, 0
2, 210480, Note_on_c, 0, 85, 50
2, 210539, Note_on_c, 0, 85, 0
2, 210540, Note_on_c, 0, 87, 49
2, 210599, Note_on_c, 0, 87, 0
2, 210600, Note_on_c, 0, 85, 49
2, 210659, Note_on_c, 0, 85, 0
2, 210660, Note_on_c, 0, 87, 48
2, 210719, Note_on_c, 0, 87, 0
2, 210720, Note_on_c, 0, 82, 48
2, 210779, Note_on_c, 0, 82, 0
2, 210780, Note_on_c, 0, 83, 48
2, 210839, Note_on_c, 0, 83, 0
2, 210840, Note_on_c, 0, 82, 48
2, 210899, Note_on_c, 0, 82, 0
2, 210900, Note_on_c, 0, 83, 45
2, 210959, Note_on_c, 0, 83, 0
2, 210960, Note_on_c, 0, 82, 48
2, 211019, Note_on_c, 0, 82, 0
2, 211020, Note_on_c, 0, 83, 44
2, 211079, Note_on_c, 0, 83, 0
2, 211080, Note_on_c, 0, 82, 44
2, 211139, Note_on_c, 0, 82, 0
2, 211140, Note_on_c, 0, 83, 46
2, 211194, Note_on_c, 0, 83, 0
2, 211200, Note_on_c, 0, 76, 40
2, 211259, Note_on_c, 0, 76, 0
2, 211260, Note_on_c, 0, 78, 40
2, 211319, Note_on_c, 0, 78, 0
2, 211320, Note_on_c, 0, 76, 45
2, 211379, Note_on_c, 0, 76, 0
2, 211380, Note_on_c, 0, 78, 35
2, 211439, Note_on_c, 0, 78, 0
2, 211440, Note_on_c, 0, 76, 44
2, 211499, Note_on_c, 0, 76, 0
2, 211500, Note_on_c, 0, 78, 44
2, 211559, Note_on_c, 0, 78, 0
2, 211560, Note_on_c, 0, 76, 44
2, 211619, Note_on_c, 0, 76, 0
2, 211620, Note_on_c, 0, 78, 41
2, 211679, Note_on_c, 0, 78, 0
2, 211680, Note_on_c, 0, 73, 41
2, 211739, Note_on_c, 0, 73, 0
2, 211740, Note_on_c, 0, 75, 42
2, 211799, Note_on_c, 0, 75, 0
2, 211800, Note_on_c, 0, 73, 42
2, 211859, Note_on_c, 0, 73, 0
2, 211860, Note_on_c, 0, 75, 42
2, 211919, Note_on_c, 0, 75, 0
2, 211920, Note_on_c, 0, 73, 41
2, 211979, Note_on_c, 0, 73, 0
2, 211980, Note_on_c, 0, 75, 40
2, 212034, Note_on_c, 0, 75, 0
2, 212040, Note_on_c, 0, 73, 39
2, 212094, Note_on_c, 0, 73, 0
2, 212100, Note_on_c, 0, 75, 36
2, 212154, Note_on_c, 0, 75, 0
2, 212160, Note_on_c, 0, 70, 40
2, 212219, Note_on_c, 0, 70, 0
2, 212220, Note_on_c, 0, 71, 40
2, 212279, Note_on_c, 0, 71, 0
2, 212280, Note_on_c, 0, 70, 37
2, 212339, Note_on_c, 0, 70, 0
2, 212340, Note_on_c, 0, 71, 39
2, 212399, Note_on_c, 0, 71, 0
2, 212400, Note_on_c, 0, 70, 36
2, 212459, Note_on_c, 0, 70, 0
2, 212460, Note_on_c, 0, 71, 37
2, 212519, Note_on_c, 0, 71, 0
2, 212520, Note_on_c, 0, 70, 36
2, 212579, Note_on_c, 0, 70, 0
2, 212580, Note_on_c, 0, 71, 37
2, 212639, Note_on_c, 0, 71, 0
2, 212640, Note_on_c, 0, 64, 37
2, 212699, Note_on_c, 0, 64, 0
2, 212700, Note_on_c, 0, 66, 34
2, 212759, Note_on_c, 0, 66, 0
2, 212760, Note_on_c, 0, 64, 35
2, 212819, Note_on_c, 0, 64, 0
2, 212820, Note_on_c, 0, 66, 35
2, 212879, Note_on_c, 0, 66, 0
2, 212880, Note_on_c, 0, 63, 36
2, 212999, Note_on_c, 0, 63, 0
2, 213000, Note_on_c, 0, 64, 42
2, 213108, Note_on_c, 0, 64, 0
2, 213120, Note_on_c, 0, 66, 44
2, 213239, Note_on_c, 0, 66, 0
2, 213240, Note_on_c, 0, 63, 45
2, 213359, Note_on_c, 0, 63, 0
2, 213360, Note_on_c, 0, 64, 47
2, 213479, Note_on_c, 0, 64, 0
2, 213480, Note_on_c, 0, 67, 49
2, 213599, Note_on_c, 0, 67, 0
2, 213600, Note_on_c, 0, 63, 50
2, 213719, Note_on_c, 0, 63, 0
2, 213720, Note_on_c, 0, 64, 52
2, 213839, Note_on_c, 0, 64, 0
2, 213840, Note_on_c, 0, 66, 54
2, 213959, Note_on_c, 0, 66, 0
2, 213960, Note_on_c, 0, 63, 55
2, 214068, Note_on_c, 0, 63, 0
2, 214080, Note_on_c, 0, 64, 57
2, 214199, Note_on_c, 0, 64, 0
2, 214200, Note_on_c, 0, 67, 60
2, 214319, Note_on_c, 0, 67, 0
2, 214320, Note_on_c, 0, 66, 60
2, 214439, Note_on_c, 0, 66, 0
2, 214440, Note_on_c, 0, 67, 60
2, 214559, Note_on_c, 0, 67, 0
2, 214560, Note_on_c, 0, 69, 60
2, 214679, Note_on_c, 0, 69, 0
2, 214680, Note_on_c, 0, 66, 59
2, 214799, Note_on_c, 0, 66, 0
2, 214800, Note_on_c, 0, 67, 59
2, 214919, Note_on_c, 0, 67, 0
2, 214920, Note_on_c, 0, 70, 59
2, 215028, Note_on_c, 0, 70, 0
2, 215040, Note_on_c, 0, 69, 58
2, 215159, Note_on_c, 0, 69, 0
2, 215160, Note_on_c, 0, 70, 58
2, 215279, Note_on_c, 0, 70, 0
2, 215280, Note_on_c, 0, 72, 58
2, 215399, Note_on_c, 0, 72, 0
2, 215400, Note_on_c, 0, 69, 57
2, 215519, Note_on_c, 0, 69, 0
2, 215520, Note_on_c, 0, 70, 57
2, 215639, Note_on_c, 0, 70, 0
2, 215640, Note_on_c, 0, 73, 57
2, 215759, Note_on_c, 0, 73, 0
2, 215760, Note_on_c, 0, 69, 56
2, 215879, Note_on_c, 0, 69, 0
2, 215880, Note_on_c, 0, 70, 56
2, 215988, Note_on_c, 0, 70, 0
2, 216000, Note_on_c, 0, 73, 56
2, 216119, Note_on_c, 0, 73, 0
2, 216120, Note_on_c, 0, 74, 56
2, 216239, Note_on_c, 0, 74, 0
2, 216240, Note_on_c, 0, 69, 55
2, 216359, Note_on_c, 0, 69, 0
2, 216360, Note_on_c, 0, 70, 55
2, 216479, Note_on_c, 0, 70, 0
2, 216480, Note_on_c, 0, 73, 55
2, 216599, Note_on_c, 0, 73, 0
2, 216600, Note_on_c, 0, 74, 54
2, 216719, Note_on_c, 0, 74, 0
2, 216720, Note_on_c, 0, 69, 54
2, 216839, Note_on_c, 0, 69, 0
2, 216840, Note_on_c, 0, 70, 54
2, 216948, Note_on_c, 0, 70, 0
2, 216960, Note_on_c, 0, 73, 51
2, 216960, Control_c, 0, 64, 127
2, 217079, Note_on_c, 0, 73, 0
2, 217080, Note_on_c, 0, 74, 51
2, 217199, Note_on_c, 0, 74, 0
2, 217200, Note_on_c, 0, 76, 52
2, 217319, Note_on_c, 0, 76, 0
2, 217320, Note_on_c, 0, 77, 54
2, 217439, Note_on_c, 0, 77, 0
2, 217440, Note_on_c, 0, 81, 54
2, 217559, Note_on_c, 0, 81, 0
2, 217560, Note_on_c, 0, 82, 56
2, 217679, Note_on_c, 0, 82, 0
2, 217680, Note_on_c, 0, 85, 57
2, 217799, Note_on_c, 0, 85, 0
2, 217800, Note_on_c, 0, 86, 58
2, 217908, Note_on_c, 0, 86, 0
2, 217920, Control_c, 0, 64, 0
2, 217920, Note_on_c, 0, 91, 59
2, 218039, Note_on_c, 0, 91, 0
2, 218040, Note_on_c, 0, 89, 60
2, 218159, Note_on_c, 0, 89, 0
2, 218160, Note_on_c, 0, 88, 62
2, 218279, Note_on_c, 0, 88, 0
2, 218280, Note_on_c, 0, 89, 63
2, 218399, Note_on_c, 0, 89, 0
2, 218400, Note_on_c, 0, 84, 64
2, 218519, Note_on_c, 0, 84, 0
2, 218520, Note_on_c, 0, 80, 66
2, 218628, Note_on_c, 0, 80, 0
2, 218880, Note_on_c, 0, 89, 69
2, 218892, Control_c, 0, 64, 127
2, 218999, Note_on_c, 0, 89, 0
2, 219000, Note_on_c, 0, 87, 71
2, 219119, Note_on_c, 0, 87, 0
2, 219120, Note_on_c, 0, 86, 72
2, 219239, Note_on_c, 0, 86, 0
2, 219240, Note_on_c, 0, 87, 73
2, 219359, Note_on_c, 0, 87, 0
2, 219360, Note_on_c, 0, 82, 74
2, 219479, Note_on_c, 0, 82, 0
2, 219480, Note_on_c, 0, 78, 76
2, 219588, Note_on_c, 0, 78, 0
2, 219840, Note_on_c, 0, 87, 57
2, 219852, Control_c, 0, 64, 0
2, 219959, Note_on_c, 0, 87, 0
2, 219960, Note_on_c, 0, 86, 57
2, 220079, Note_on_c, 0, 86, 0
2, 220080, Note_on_c, 0, 85, 57
2, 220199, Note_on_c, 0, 85, 0
2, 220200, Note_on_c, 0, 86, 58
2, 220319, Note_on_c, 0, 86, 0
2, 220320, Note_on_c, 0, 84, 58
2, 220439, Note_on_c, 0, 84, 0
2, 220440, Note_on_c, 0, 81, 58
2, 220559, Note_on_c, 0, 81, 0
2, 220560, Note_on_c, 0, 77, 58
2, 220668, Note_on_c, 0, 77, 0
2, 220752, Control_c, 0, 64, 127
2, 221280, Note_on_c, 0, 81, 63
2, 221399, Note_on_c, 0, 81, 0
2, 221400, Note_on_c, 0, 82, 63
2, 221519, Note_on_c, 0, 82, 0
2, 221520, Note_on_c, 0, 88, 64
2, 221639, Note_on_c, 0, 88, 0
2, 221640, Note_on_c, 0, 89, 66
2, 221712, Control_c, 0, 64, 0
2, 221748, Note_on_c, 0, 89, 0
2, 221760, Note_on_c, 0, 94, 67
2, 221868, Note_on_c, 0, 94, 0
2, 221880, Note_on_c, 0, 92, 68
2, 221988, Note_on_c, 0, 92, 0
2, 222000, Note_on_c, 0, 91, 68
2, 222119, Note_on_c, 0, 91, 0
2, 222120, Note_on_c, 0, 92, 69
2, 222228, Note_on_c, 0, 92, 0
2, 222240, Note_on_c, 0, 91, 71
2, 222359, Note_on_c, 0, 91, 0
2, 222360, Note_on_c, 0, 89, 72
2, 222479, Note_on_c, 0, 89, 0
2, 222480, Note_on_c, 0, 88, 74
2, 222599, Note_on_c, 0, 88, 0
2, 222600, Note_on_c, 0, 89, 75
2, 222708, Note_on_c, 0, 89, 0
2, 222720, Note_on_c, 0, 89, 76
2, 222720, Control_c, 0, 64, 127
2, 222828, Note_on_c, 0, 89, 0
2, 222840, Note_on_c, 0, 87, 77
2, 222948, Note_on_c, 0, 87, 0
2, 222960, Note_on_c, 0, 86, 78
2, 223068, Note_on_c, 0, 86, 0
2, 223080, Note_on_c, 0, 87, 79
2, 223188, Note_on_c, 0, 87, 0
2, 223200, Note_on_c, 0, 86, 80
2, 223308, Note_on_c, 0, 86, 0
2, 223320, Note_on_c, 0, 84, 81
2, 223428, Note_on_c, 0, 84, 0
2, 223440, Note_on_c, 0, 83, 81
2, 223548, Note_on_c, 0, 83, 0
2, 223560, Note_on_c, 0, 84, 82
2, 223668, Note_on_c, 0, 84, 0
2, 223680, Note_on_c, 0, 87, 83
2, 223680, Control_c, 0, 64, 0
2, 223788, Note_on_c, 0, 87, 0
2, 223800, Note_on_c, 0, 84, 84
2, 223908, Note_on_c, 0, 84, 0
2, 223920, Note_on_c, 0, 81, 85
2, 224028, Note_on_c, 0, 81, 0
2, 224040, Note_on_c, 0, 79, 85
2, 224148, Note_on_c, 0, 79, 0
2, 224160, Note_on_c, 0, 77, 87
2, 224268, Note_on_c, 0, 77, 0
2, 224280, Note_on_c, 0, 75, 87
2, 224388, Note_on_c, 0, 75, 0
2, 224400, Note_on_c, 0, 72, 88
2, 224508, Note_on_c, 0, 72, 0
2, 224520, Note_on_c, 0, 69, 89
2, 224628, Note_on_c, 0, 69, 0
2, 224640, Note_on_c, 0, 73, 86
2, 224640, Control_c, 0, 64, 127
2, 224748, Note_on_c, 0, 73, 0
2, 224760, Note_on_c, 0, 74, 84
2, 224868, Note_on_c, 0, 74, 0
2, 224880, Note_on_c, 0, 70, 82
2, 224988, Note_on_c, 0, 70, 0
2, 225000, Note_on_c, 0, 65, 80
2, 225072, Control_c, 0, 64, 0
2, 225108, Note_on_c, 0, 65, 0
2, 225120, Note_on_c, 0, 69, 78
2, 225228, Note_on_c, 0, 69, 0
2, 225240, Note_on_c, 0, 70, 76
2, 225348, Note_on_c, 0, 70, 0
2, 225360, Note_on_c, 0, 65, 74
2, 225468, Note_on_c, 0, 65, 0
2, 225480, Note_on_c, 0, 62, 72
2, 225588, Note_on_c, 0, 62, 0
2, 225600, Note_on_c, 0, 69, 70
2, 225708, Note_on_c, 0, 69, 0
2, 225720, Note_on_c, 0, 70, 68
2, 225828, Note_on_c, 0, 70, 0
2, 225840, Note_on_c, 0, 65, 66
2, 225948, Note_on_c, 0, 65, 0
2, 225960, Note_on_c, 0, 62, 64
2, 226068, Note_on_c, 0, 62, 0
2, 226080, Note_on_c, 0, 64, 62
2, 226188, Note_on_c, 0, 64, 0
2, 226200, Note_on_c, 0, 65, 60
2, 226308, Note_on_c, 0, 65, 0
2, 226320, Note_on_c, 0, 62, 57
2, 226428, Note_on_c, 0, 62, 0
2, 226440, Note_on_c, 0, 58, 55
2, 226548, Note_on_c, 0, 58, 0
2, 226560, Note_on_c, 0, 61, 53
2, 226668, Note_on_c, 0, 61, 0
2, 226680, Note_on_c, 0, 62, 51
2, 226788, Note_on_c, 0, 62, 0
2, 236880, Note_on_c, 0, 78, 86
2, 237228, Note_on_c, 0, 78, 0
2, 237240, Note_on_c, 0, 77, 68
2, 237294, Note_on_c, 0, 77, 0
2, 237360, Note_on_c, 0, 75, 68
2, 237414, Note_on_c, 0, 75, 0
2, 237480, Note_on_c, 0, 72, 68
2, 237534, Note_on_c, 0, 72, 0
2, 237600, Note_on_c, 0, 73, 68
2, 237708, Note_on_c, 0, 73, 0
2, 237840, Note_on_c, 0, 77, 68
2, 237948, Note_on_c, 0, 77, 0
2, 238080, Note_on_c, 0, 73, 68
2, 238512, Note_on_c, 0, 73, 0
2, 238560, Note_on_c, 0, 72, 68
2, 238776, Note_on_c, 0, 72, 0
2, 238800, Note_on_c, 0, 77, 68
2, 238908, Note_on_c, 0, 77, 0
2, 239040, Note_on_c, 0, 72, 68
2, 239040, Control_c, 0, 64, 127
2, 239227, Control_c, 0, 64, 0
2, 239472, Note_on_c, 0, 72, 0
2, 239520, Note_on_c, 0, 70, 68
2, 239736, Note_on_c, 0, 70, 0
2, 239760, Note_on_c, 0, 68, 68
2, 239868, Note_on_c, 0, 68, 0
2, 239880, Note_on_c, 0, 77, 68
2, 240108, Note_on_c, 0, 77, 0
2, 240120, Note_on_c, 0, 75, 68
2, 240228, Note_on_c, 0, 75, 0
2, 240360, Note_on_c, 0, 73, 68
2, 240468, Note_on_c, 0, 73, 0
2, 240600, Note_on_c, 0, 72, 68
2, 240708, Note_on_c, 0, 72, 0
2, 240840, Note_on_c, 0, 71, 68
2, 241176, Note_on_c, 0, 71, 0
2, 241200, Note_on_c, 0, 72, 68
2, 241416, Note_on_c, 0, 72, 0
2, 241680, Note_on_c, 0, 72, 68
2, 242028, Note_on_c, 0, 72, 0
2, 242040, Note_on_c, 0, 74, 68
2, 242148, Note_on_c, 0, 74, 0
2, 242160, Note_on_c, 0, 76, 68
2, 242214, Note_on_c, 0, 76, 0
2, 242280, Note_on_c, 0, 77, 68
2, 242334, Note_on_c, 0, 77, 0
2, 242400, Note_on_c, 0, 79, 68
2, 242454, Note_on_c, 0, 79, 0
2, 242520, Note_on_c, 0, 80, 68
2, 242574, Note_on_c, 0, 80, 0
2, 242640, Note_on_c, 0, 80, 68
2, 242748, Note_on_c, 0, 80, 0
2, 242880, Note_on_c, 0, 84, 68
2, 242988, Note_on_c, 0, 84, 0
2, 243120, Note_on_c, 0, 77, 68
2, 243228, Note_on_c, 0, 77, 0
2, 243360, Note_on_c, 0, 76, 68
2, 243468, Note_on_c, 0, 76, 0
2, 243600, Note_on_c, 0, 82, 68
2, 243708, Note_on_c, 0, 82, 0
2, 243840, Note_on_c, 0, 80, 68
2, 243948, Note_on_c, 0, 80, 0
2, 244440, Note_on_c, 0, 80, 68
2, 244494, Note_on_c, 0, 80, 0
2, 244560, Note_on_c, 0, 79, 68
2, 244614, Note_on_c, 0, 79, 0
2, 244680, Note_on_c, 0, 73, 68
2, 244734, Note_on_c, 0, 73, 0
2, 244800, Note_on_c, 0, 72, 68
2, 244854, Note_on_c, 0, 72, 0
2, 244920, Note_on_c, 0, 77, 68
2, 244974, Note_on_c, 0, 77, 0
2, 245040, Note_on_c, 0, 73, 68
2, 245094, Note_on_c, 0, 73, 0
2, 245160, Note_on_c, 0, 70, 68
2, 245214, Note_on_c, 0, 70, 0
2, 245280, Note_on_c, 0, 68, 68
2, 245334, Note_on_c, 0, 68, 0
2, 245400, Note_on_c, 0, 72, 68
2, 245454, Note_on_c, 0, 72, 0
2, 245520, Note_on_c, 0, 70, 68
2, 245574, Note_on_c, 0, 70, 0
2, 245640, Note_on_c, 0, 67, 68
2, 245694, Note_on_c, 0, 67, 0
2, 245760, Note_on_c, 0, 77, 68
2, 245760, Note_on_c, 0, 72, 68
2, 245814, Note_on_c, 0, 72, 0
2, 245814, Note_on_c, 0, 77, 0
2, 245880, Note_on_c, 0, 75, 68
2, 245934, Note_on_c, 0, 75, 0
2, 246000, Note_on_c, 0, 73, 68
2, 246054, Note_on_c, 0, 73, 0
2, 246120, Note_on_c, 0, 70, 68
2, 246174, Note_on_c, 0, 70, 0
2, 246240, Note_on_c, 0, 69, 68
2, 246294, Note_on_c, 0, 69, 0
2, 246360, Note_on_c, 0, 72, 68
2, 246414, Note_on_c, 0, 72, 0
2, 246480, Note_on_c, 0, 70, 68
2, 246534, Note_on_c, 0, 70, 0
2, 246600, Note_on_c, 0, 67, 68
2, 246654, Note_on_c, 0, 67, 0
2, 246720, Note_on_c, 0, 77, 68
2, 246774, Note_on_c, 0, 77, 0
2, 246840, Note_on_c, 0, 76, 68
2, 246894, Note_on_c, 0, 76, 0
2, 246960, Note_on_c, 0, 77, 68
2, 247014, Note_on_c, 0, 77, 0
2, 247080, Note_on_c, 0, 75, 68
2, 247134, Note_on_c, 0, 75, 0
2, 247200, Note_on_c, 0, 73, 69
2, 247254, Note_on_c, 0, 73, 0
2, 247320, Note_on_c, 0, 72, 71
2, 247374, Note_on_c, 0, 72, 0
2, 247440, Note_on_c, 0, 73, 74
2, 247494, Note_on_c, 0, 73, 0
2, 247560, Note_on_c, 0, 72, 76
2, 247614, Note_on_c, 0, 72, 0
2, 247680, Note_on_c, 0, 78, 78
2, 247734, Note_on_c, 0, 78, 0
2, 247800, Note_on_c, 0, 77, 81
2, 247854, Note_on_c, 0, 77, 0
2, 247920, Note_on_c, 0, 76, 83
2, 247974, Note_on_c, 0, 76, 0
2, 248040, Note_on_c, 0, 73, 86
2, 248094, Note_on_c, 0, 73, 0
2, 248160, Note_on_c, 0, 81, 88
2, 248214, Note_on_c, 0, 81, 0
2, 248280, Note_on_c, 0, 79, 91
2, 248334, Note_on_c, 0, 79, 0
2, 248400, Note_on_c, 0, 77, 93
2, 248454, Note_on_c, 0, 77, 0
2, 248520, Note_on_c, 0, 75, 96
2, 248574, Note_on_c, 0, 75, 0
2, 248640, Note_on_c, 0, 82, 98
2, 248694, Note_on_c, 0, 82, 0
2, 248760, Note_on_c, 0, 77, 94
2, 248814, Note_on_c, 0, 77, 0
2, 248880, Note_on_c, 0, 75, 94
2, 248934, Note_on_c, 0, 75, 0
2, 249000, Note_on_c, 0, 73, 95
2, 249054, Note_on_c, 0, 73, 0
2, 249120, Note_on_c, 0, 73, 95
2, 249174, Note_on_c, 0, 73, 0
2, 249240, Note_on_c, 0, 72, 95
2, 249294, Note_on_c, 0, 72, 0
2, 249360, Note_on_c, 0, 70, 96
2, 249468, Note_on_c, 0, 70, 0
2, 249480, Note_on_c, 0, 69, 96
2, 249588, Note_on_c, 0, 69, 0
2, 249600, Note_on_c, 0, 70, 96
2, 249600, Note_on_c, 0, 77, 96
2, 249708, Note_on_c, 0, 77, 0
2, 249708, Note_on_c, 0, 70, 0
2, 249840, Note_on_c, 0, 82, 64
2, 250234, Control_c, 0, 64, 127
2, 250272, Note_on_c, 0, 82, 0
2, 250320, Note_on_c, 0, 84, 64
2, 250374, Note_on_c, 0, 84, 0
2, 250380, Note_on_c, 0, 85, 64
2, 250434, Note_on_c, 0, 85, 0
2, 250440, Note_on_c, 0, 84, 64
2, 250494, Note_on_c, 0, 84, 0
2, 250500, Note_on_c, 0, 85, 64
2, 250554, Note_on_c, 0, 85, 0
2, 250560, Note_on_c, 0, 85, 64
2, 250680, Control_c, 0, 64, 0
2, 250776, Note_on_c, 0, 85, 0
2, 250800, Note_on_c, 0, 89, 64
2, 251016, Note_on_c, 0, 89, 0
2, 251040, Note_on_c, 0, 94, 90
2, 251364, Note_on_c, 0, 94, 0
2, 251400, Note_on_c, 0, 89, 64
2, 251508, Note_on_c, 0, 89, 0
2, 251520, Note_on_c, 0, 87, 64
2, 251574, Note_on_c, 0, 87, 0
2, 251640, Note_on_c, 0, 90, 62
2, 251694, Note_on_c, 0, 90, 0
2, 251760, Note_on_c, 0, 89, 60
2, 251814, Note_on_c, 0, 89, 0
2, 251880, Note_on_c, 0, 87, 59
2, 251934, Note_on_c, 0, 87, 0
2, 252000, Note_on_c, 0, 85, 57
2, 252054, Note_on_c, 0, 85, 0
2, 252120, Note_on_c, 0, 84, 56
2, 252174, Note_on_c, 0, 84, 0
2, 252240, Note_on_c, 0, 85, 54
2, 252294, Note_on_c, 0, 85, 0
2, 252360, Note_on_c, 0, 87, 53
2, 252414, Note_on_c, 0, 87, 0
2, 252480, Note_on_c, 0, 89, 51
2, 252480, Note_on_c, 0, 77, 51
2, 252588, Note_on_c, 0, 77, 0
2, 252588, Note_on_c, 0, 89, 0
2, 253080, Note_on_c, 0, 82, 50
2, 253080, Note_on_c, 0, 77, 50
2, 253134, Note_on_c, 0, 77, 0
2, 253134, Note_on_c, 0, 82, 0
2, 253200, Note_on_c, 0, 77, 50
2, 253200, Note_on_c, 0, 81, 50
2, 253254, Note_on_c, 0, 81, 0
2, 253254, Note_on_c, 0, 77, 0
2, 253320, Note_on_c, 0, 77, 50
2, 253320, Note_on_c, 0, 87, 50
2, 253320, Note_on_c, 0, 84, 50
2, 253374, Note_on_c, 0, 84, 0
2, 253374, Note_on_c, 0, 87, 0
2, 253374, Note_on_c, 0, 77, 0
2, 253440, Note_on_c, 0, 77, 50
2, 253440, Note_on_c, 0, 82, 50
2, 253440, Note_on_c, 0, 85, 50
2, 253548, Note_on_c, 0, 85, 0
2, 253548, Note_on_c, 0, 82, 0
2, 253548, Note_on_c, 0, 77, 0
2, 254040, Note_on_c, 0, 89, 49
2, 254094, Note_on_c, 0, 89, 0
2, 254160, Note_on_c, 0, 88, 49
2, 254214, Note_on_c, 0, 88, 0
2, 254280, Note_on_c, 0, 81, 49
2, 254334, Note_on_c, 0, 81, 0
2, 254400, Note_on_c, 0, 77, 49
2, 254454, Note_on_c, 0, 77, 0
2, 254520, Note_on_c, 0, 82, 49
2, 254574, Note_on_c, 0, 82, 0
2, 254640, Note_on_c, 0, 86, 49
2, 254694, Note_on_c, 0, 86, 0
2, 254760, Note_on_c, 0, 89, 49
2, 254814, Note_on_c, 0, 89, 0
2, 254880, Note_on_c, 0, 92, 48
2, 254934, Note_on_c, 0, 92, 0
2, 255000, Note_on_c, 0, 89, 48
2, 255054, Note_on_c, 0, 89, 0
2, 255120, Note_on_c, 0, 87, 48
2, 255174, Note_on_c, 0, 87, 0
2, 255240, Note_on_c, 0, 86, 48
2, 255294, Note_on_c, 0, 86, 0
2, 255360, Note_on_c, 0, 87, 48
2, 255468, Note_on_c, 0, 87, 0
2, 255960, Note_on_c, 0, 70, 48
2, 255960, Note_on_c, 0, 75, 48
2, 256014, Note_on_c, 0, 75, 0
2, 256014, Note_on_c, 0, 70, 0
2, 256080, Note_on_c, 0, 70, 48
2, 256080, Note_on_c, 0, 73, 48
2, 256134, Note_on_c, 0, 73, 0
2, 256134, Note_on_c, 0, 70, 0
2, 256200, Note_on_c, 0, 70, 48
2, 256200, Note_on_c, 0, 72, 48
2, 256254, Note_on_c, 0, 70, 0
2, 256308, Note_on_c, 0, 72, 0
2, 256320, Note_on_c, 0, 65, 48
2, 256374, Note_on_c, 0, 65, 0
2, 256440, Note_on_c, 0, 70, 48
2, 256494, Note_on_c, 0, 70, 0
2, 256560, Note_on_c, 0, 72, 47
2, 256614, Note_on_c, 0, 72, 0
2, 256680, Note_on_c, 0, 77, 47
2, 256734, Note_on_c, 0, 77, 0
2, 256800, Note_on_c, 0, 84, 47
2, 256908, Note_on_c, 0, 84, 0
2, 258240, Note_on_c, 0, 72, 46
2, 258294, Note_on_c, 0, 72, 0
2, 258360, Note_on_c, 0, 77, 45
2, 258414, Note_on_c, 0, 77, 0
2, 258480, Note_on_c, 0, 80, 45
2, 258534, Note_on_c, 0, 80, 0
2, 258600, Note_on_c, 0, 84, 45
2, 258654, Note_on_c, 0, 84, 0
2, 258720, Note_on_c, 0, 89, 45
2, 258828, Note_on_c, 0, 89, 0
2, 260160, Note_on_c, 0, 72, 44
2, 260268, Note_on_c, 0, 72, 0
2, 260280, Note_on_c, 0, 75, 44
2, 260388, Note_on_c, 0, 75, 0
2, 260400, Note_on_c, 0, 79, 44
2, 260508, Note_on_c, 0, 79, 0
2, 260520, Note_on_c, 0, 84, 44
2, 260628, Note_on_c, 0, 84, 0
2, 260640, Note_on_c, 0, 87, 44
2, 260856, Note_on_c, 0, 87, 0
2, 263280, Note_on_c, 0, 72, 59
2, 263388, Note_on_c, 0, 72, 0
2, 263400, Note_on_c, 0, 76, 63
2, 263508, Note_on_c, 0, 76, 0
2, 263520, Note_on_c, 0, 79, 66
2, 263628, Note_on_c, 0, 79, 0
2, 263640, Note_on_c, 0, 84, 69
2, 263748, Note_on_c, 0, 84, 0
2, 263760, Note_on_c, 0, 88, 73
2, 263976, Note_on_c, 0, 88, 0
2, 264000, Note_on_c, 0, 72, 58
2, 264210, Control_c, 0, 64, 127
2, 264216, Note_on_c, 0, 72, 0
2, 264240, Note_on_c, 0, 77, 79
2, 264719, Note_on_c, 0, 77, 0
2, 264720, Note_on_c, 0, 79, 64
2, 264774, Note_on_c, 0, 79, 0
2, 264780, Note_on_c, 0, 81, 65
2, 264834, Note_on_c, 0, 81, 0
2, 264840, Note_on_c, 0, 79, 68
2, 264894, Note_on_c, 0, 79, 0
2, 264900, Note_on_c, 0, 81, 70
2, 264954, Note_on_c, 0, 81, 0
2, 264960, Note_on_c, 0, 81, 72
2, 265176, Note_on_c, 0, 81, 0
2, 265200, Note_on_c, 0, 84, 67
2, 265416, Note_on_c, 0, 84, 0
2, 265440, Note_on_c, 0, 89, 79
2, 265872, Note_on_c, 0, 89, 0
2, 265956, Control_c, 0, 64, 127
2, 266040, Note_on_c, 0, 89, 78
2, 266159, Note_on_c, 0, 89, 0
2, 266160, Note_on_c, 0, 88, 76
2, 266279, Note_on_c, 0, 88, 0
2, 266280, Note_on_c, 0, 84, 74
2, 266399, Note_on_c, 0, 84, 0
2, 266400, Note_on_c, 0, 82, 72
2, 266519, Note_on_c, 0, 82, 0
2, 266520, Note_on_c, 0, 86, 70
2, 266639, Note_on_c, 0, 86, 0
2, 266640, Note_on_c, 0, 82, 68
2, 266759, Note_on_c, 0, 82, 0
2, 266760, Note_on_c, 0, 79, 65
2, 266868, Note_on_c, 0, 79, 0
2, 266880, Note_on_c, 0, 81, 63
2, 266916, Control_c, 0, 64, 0
2, 266999, Note_on_c, 0, 81, 0
2, 267000, Note_on_c, 0, 84, 64
2, 267119, Note_on_c, 0, 84, 0
2, 267120, Note_on_c, 0, 82, 66
2, 267239, Note_on_c, 0, 82, 0
2, 267240, Note_on_c, 0, 79, 68
2, 267359, Note_on_c, 0, 79, 0
2, 267360, Note_on_c, 0, 81, 69
2, 267479, Note_on_c, 0, 81, 0
2, 267480, Note_on_c, 0, 84, 71
2, 267599, Note_on_c, 0, 84, 0
2, 267600, Note_on_c, 0, 81, 72
2, 267719, Note_on_c, 0, 81, 0
2, 267720, Note_on_c, 0, 77, 74
2, 268056, Note_on_c, 0, 77, 0
2, 268080, Note_on_c, 0, 82, 82
2, 268512, Note_on_c, 0, 82, 0
2, 268560, Note_on_c, 0, 84, 73
2, 268619, Note_on_c, 0, 84, 0
2, 268620, Note_on_c, 0, 86, 72
2, 268679, Note_on_c, 0, 86, 0
2, 268680, Note_on_c, 0, 84, 74
2, 268739, Note_on_c, 0, 84, 0
2, 268740, Note_on_c, 0, 86, 76
2, 268794, Note_on_c, 0, 86, 0
2, 268800, Note_on_c, 0, 86, 77
2, 268812, Control_c, 0, 64, 127
2, 269039, Note_on_c, 0, 86, 0
2, 269040, Note_on_c, 0, 89, 73
2, 269279, Note_on_c, 0, 89, 0
2, 269280, Note_on_c, 0, 94, 73
2, 269879, Note_on_c, 0, 94, 0
2, 269880, Note_on_c, 0, 94, 79
2, 269999, Note_on_c, 0, 94, 0
2, 270000, Note_on_c, 0, 93, 77
2, 270119, Note_on_c, 0, 93, 0
2, 270120, Note_on_c, 0, 87, 76
2, 270239, Note_on_c, 0, 87, 0
2, 270240, Note_on_c, 0, 86, 74
2, 270359, Note_on_c, 0, 86, 0
2, 270360, Note_on_c, 0, 91, 73
2, 270479, Note_on_c, 0, 91, 0
2, 270480, Note_on_c, 0, 89, 72
2, 270599, Note_on_c, 0, 89, 0
2, 270600, Note_on_c, 0, 80, 70
2, 270708, Note_on_c, 0, 80, 0
2, 270720, Note_on_c, 0, 81, 68
2, 270839, Note_on_c, 0, 81, 0
2, 270840, Note_on_c, 0, 89, 67
2, 270959, Note_on_c, 0, 89, 0
2, 270960, Note_on_c, 0, 87, 68
2, 271079, Note_on_c, 0, 87, 0
2, 271080, Note_on_c, 0, 77, 68
2, 271199, Note_on_c, 0, 77, 0
2, 271200, Note_on_c, 0, 80, 69
2, 271319, Note_on_c, 0, 80, 0
2, 271320, Note_on_c, 0, 87, 70
2, 271439, Note_on_c, 0, 87, 0
2, 271440, Note_on_c, 0, 86, 71
2, 271559, Note_on_c, 0, 86, 0
2, 271560, Note_on_c, 0, 74, 72
2, 271668, Note_on_c, 0, 74, 0
2, 271680, Note_on_c, 0, 75, 72
2, 271799, Note_on_c, 0, 75, 0
2, 271800, Note_on_c, 0, 82, 73
2, 271919, Note_on_c, 0, 82, 0
2, 271920, Note_on_c, 0, 81, 74
2, 272039, Note_on_c, 0, 81, 0
2, 272040, Note_on_c, 0, 74, 75
2, 272159, Note_on_c, 0, 74, 0
2, 272160, Note_on_c, 0, 75, 76
2, 272279, Note_on_c, 0, 75, 0
2, 272280, Note_on_c, 0, 82, 76
2, 272399, Note_on_c, 0, 82, 0
2, 272400, Note_on_c, 0, 81, 77
2, 272519, Note_on_c, 0, 81, 0
2, 272520, Note_on_c, 0, 72, 78
2, 272628, Note_on_c, 0, 72, 0
2, 272640, Note_on_c, 0, 74, 73
2, 272719, Note_on_c, 0, 74, 0
2, 272720, Note_on_c, 0, 75, 73
2, 272799, Note_on_c, 0, 75, 0
2, 272800, Note_on_c, 0, 82, 74
2, 272879, Note_on_c, 0, 82, 0
2, 272880, Note_on_c, 0, 81, 76
2, 272959, Note_on_c, 0, 81, 0
2, 272960, Note_on_c, 0, 75, 77
2, 273039, Note_on_c, 0, 75, 0
2, 273040, Note_on_c, 0, 72, 78
2, 273119, Note_on_c, 0, 72, 0
2, 273120, Note_on_c, 0, 74, 79
2, 273199, Note_on_c, 0, 74, 0
2, 273200, Note_on_c, 0, 75, 79
2, 273279, Note_on_c, 0, 75, 0
2, 273280, Note_on_c, 0, 82, 80
2, 273359, Note_on_c, 0, 82, 0
2, 273360, Note_on_c, 0, 81, 81
2, 273439, Note_on_c, 0, 81, 0
2, 273440, Note_on_c, 0, 75, 83
2, 273519, Note_on_c, 0, 75, 0
2, 273520, Note_on_c, 0, 72, 84
2, 273592, Note_on_c, 0, 72, 0
2, 273600, Note_on_c, 0, 74, 85
2, 273672, Note_on_c, 0, 74, 0
2, 273680, Note_on_c, 0, 79, 85
2, 273752, Note_on_c, 0, 79, 0
2, 273760, Note_on_c, 0, 84, 87
2, 273832, Note_on_c, 0, 84, 0
2, 273840, Note_on_c, 0, 82, 88
2, 273912, Note_on_c, 0, 82, 0
2, 273920, Note_on_c, 0, 79, 89
2, 273992, Note_on_c, 0, 79, 0
2, 274000, Note_on_c, 0, 75, 91
2, 274072, Note_on_c, 0, 75, 0
2, 274080, Note_on_c, 0, 74, 92
2, 274152, Note_on_c, 0, 74, 0
2, 274160, Note_on_c, 0, 79, 92
2, 274232, Note_on_c, 0, 79, 0
2, 274240, Note_on_c, 0, 84, 93
2, 274312, Note_on_c, 0, 84, 0
2, 274320, Note_on_c, 0, 82, 95
2, 274392, Note_on_c, 0, 82, 0
2, 274400, Note_on_c, 0, 79, 96
2, 274472, Note_on_c, 0, 79, 0
2, 274480, Note_on_c, 0, 74, 97
2, 274552, Note_on_c, 0, 74, 0
2, 274560, Note_on_c, 0, 77, 98
2, 274632, Note_on_c, 0, 77, 0
2, 274640, Note_on_c, 0, 83, 99
2, 274712, Note_on_c, 0, 83, 0
2, 274720, Note_on_c, 0, 88, 99
2, 274792, Note_on_c, 0, 88, 0
2, 274800, Note_on_c, 0, 86, 99
2, 274872, Note_on_c, 0, 86, 0
2, 274880, Note_on_c, 0, 83, 100
2, 274952, Note_on_c, 0, 83, 0
2, 274960, Note_on_c, 0, 74, 100
2, 275032, Note_on_c, 0, 74, 0
2, 275040, Note_on_c, 0, 77, 100
2, 275094, Note_on_c, 0, 77, 0
2, 275100, Note_on_c, 0, 83, 100
2, 275154, Note_on_c, 0, 83, 0
2, 275160, Note_on_c, 0, 86, 101
2, 275214, Note_on_c, 0, 86, 0
2, 275220, Note_on_c, 0, 93, 101
2, 275274, Note_on_c, 0, 93, 0
2, 275280, Note_on_c, 0, 91, 101
2, 275334, Note_on_c, 0, 91, 0
2, 275340, Note_on_c, 0, 89, 101
2, 275394, Note_on_c, 0, 89, 0
2, 275400, Note_on_c, 0, 86, 101
2, 275454, Note_on_c, 0, 86, 0
2, 275460, Note_on_c, 0, 74, 110
2, 275514, Note_on_c, 0, 74, 0
2, 275520, Note_on_c, 0, 73, 102
2, 275574, Note_on_c, 0, 73, 0
2, 275580, Note_on_c, 0, 76, 102
2, 275634, Note_on_c, 0, 76, 0
2, 275640, Note_on_c, 0, 81, 102
2, 275694, Note_on_c, 0, 81, 0
2, 275700, Note_on_c, 0, 89, 102
2, 275754, Note_on_c, 0, 89, 0
2, 275760, Note_on_c, 0, 87, 110
2, 275814, Note_on_c, 0, 87, 0
2, 275820, Note_on_c, 0, 81, 103
2, 275874, Note_on_c, 0, 81, 0
2, 275880, Note_on_c, 0, 76, 103
2, 275934, Note_on_c, 0, 76, 0
2, 275940, Note_on_c, 0, 73, 103
2, 275994, Note_on_c, 0, 73, 0
2, 276000, Note_on_c, 0, 69, 110
2, 276054, Note_on_c, 0, 69, 0
2, 276060, Note_on_c, 0, 73, 103
2, 276114, Note_on_c, 0, 73, 0
2, 276120, Note_on_c, 0, 76, 103
2, 276174, Note_on_c, 0, 76, 0
2, 276180, Note_on_c, 0, 82, 102
2, 276234, Note_on_c, 0, 82, 0
2, 276240, Note_on_c, 0, 81, 110
2, 276294, Note_on_c, 0, 81, 0
2, 276300, Note_on_c, 0, 76, 101
2, 276354, Note_on_c, 0, 76, 0
2, 276360, Note_on_c, 0, 73, 101
2, 276414, Note_on_c, 0, 73, 0
2, 276420, Note_on_c, 0, 69, 100
2, 276474, Note_on_c, 0, 69, 0
2, 276480, Note_on_c, 0, 64, 110
2, 276534, Note_on_c, 0, 64, 0
2, 276540, Note_on_c, 0, 69, 99
2, 276594, Note_on_c, 0, 69, 0
2, 276600, Note_on_c, 0, 73, 99
2, 276654, Note_on_c, 0, 73, 0
2, 276660, Note_on_c, 0, 77, 98
2, 276714, Note_on_c, 0, 77, 0
2, 276720, Note_on_c, 0, 76, 110
2, 276774, Note_on_c, 0, 76, 0
2, 276780, Note_on_c, 0, 73, 97
2, 276834, Note_on_c, 0, 73, 0
2, 276840, Note_on_c, 0, 69, 97
2, 276894, Note_on_c, 0, 69, 0
2, 276900, Note_on_c, 0, 64, 96
2, 276954, Note_on_c, 0, 64, 0
2, 276960, Note_on_c, 0, 61, 110
2, 277014, Note_on_c, 0, 61, 0
2, 277020, Note_on_c, 0, 64, 95
2, 277074, Note_on_c, 0, 64, 0
2, 277080, Note_on_c, 0, 69, 95
2, 277134, Note_on_c, 0, 69, 0
2, 277140, Note_on_c, 0, 74, 94
2, 277194, Note_on_c, 0, 74, 0
2, 277200, Note_on_c, 0, 73, 110
2, 277254, Note_on_c, 0, 73, 0
2, 277260, Note_on_c, 0, 69, 93
2, 277314, Note_on_c, 0, 69, 0
2, 277320, Note_on_c, 0, 64, 93
2, 277374, Note_on_c, 0, 64, 0
2, 277380, Note_on_c, 0, 61, 92
2, 277434, Note_on_c, 0, 61, 0
2, 277440, Note_on_c, 0, 57, 110
2, 277494, Note_on_c, 0, 57, 0
2, 277500, Note_on_c, 0, 61, 91
2, 277554, Note_on_c, 0, 61, 0
2, 277560, Note_on_c, 0, 64, 91
2, 277614, Note_on_c, 0, 64, 0
2, 277620, Note_on_c, 0, 71, 90
2, 277674, Note_on_c, 0, 71, 0
2, 277680, Note_on_c, 0, 69, 110
2, 277734, Note_on_c, 0, 69, 0
2, 277740, Note_on_c, 0, 64, 89
2, 277794, Note_on_c, 0, 64, 0
2, 277800, Note_on_c, 0, 61, 89
2, 277854, Note_on_c, 0, 61, 0
2, 277860, Note_on_c, 0, 58, 88
2, 277914, Note_on_c, 0, 58, 0
2, 277920, Note_on_c, 0, 57, 88
2, 277974, Note_on_c, 0, 57, 0
2, 277980, Note_on_c, 0, 61, 87
2, 278034, Note_on_c, 0, 61, 0
2, 278040, Note_on_c, 0, 64, 87
2, 278094, Note_on_c, 0, 64, 0
2, 278100, Note_on_c, 0, 69, 86
2, 278154, Note_on_c, 0, 69, 0
2, 278160, Note_on_c, 0, 68, 110
2, 278214, Note_on_c, 0, 68, 0
2, 278220, Note_on_c, 0, 64, 85
2, 278274, Note_on_c, 0, 64, 0
2, 278280, Note_on_c, 0, 61, 85
2, 278334, Note_on_c, 0, 61, 0
2, 278340, Note_on_c, 0, 58, 84
2, 278394, Note_on_c, 0, 58, 0
2, 278400, Note_on_c, 0, 57, 90
2, 278459, Note_on_c, 0, 57, 0
2, 278460, Note_on_c, 0, 61, 90
2, 278519, Note_on_c, 0, 61, 0
2, 278520, Note_on_c, 0, 64, 91
2, 278579, Note_on_c, 0, 64, 0
2, 278580, Note_on_c, 0, 68, 91
2, 278639, Note_on_c, 0, 68, 0
2, 278640, Note_on_c, 0, 67, 92
2, 278699, Note_on_c, 0, 67, 0
2, 278700, Note_on_c, 0, 64, 93
2, 278759, Note_on_c, 0, 64, 0
2, 278760, Note_on_c, 0, 61, 93
2, 278819, Note_on_c, 0, 61, 0
2, 278820, Note_on_c, 0, 58, 94
2, 278879, Note_on_c, 0, 58, 0
2, 278880, Note_on_c, 0, 57, 94
2, 278939, Note_on_c, 0, 57, 0
2, 278940, Note_on_c, 0, 61, 95
2, 278999, Note_on_c, 0, 61, 0
2, 279000, Note_on_c, 0, 64, 96
2, 279059, Note_on_c, 0, 64, 0
2, 279060, Note_on_c, 0, 68, 96
2, 279119, Note_on_c, 0, 68, 0
2, 279120, Note_on_c, 0, 65, 96
2, 279199, Note_on_c, 0, 65, 0
2, 279200, Note_on_c, 0, 61, 96
2, 279279, Note_on_c, 0, 61, 0
2, 279280, Note_on_c, 0, 58, 96
2, 279352, Note_on_c, 0, 58, 0
2, 279360, Note_on_c, 0, 57, 96
2, 279360, Control_c, 0, 64, 0
2, 279439, Note_on_c, 0, 57, 0
2, 279440, Note_on_c, 0, 61, 96
2, 279519, Note_on_c, 0, 61, 0
2, 279520, Note_on_c, 0, 65, 96
2, 279599, Note_on_c, 0, 65, 0
2, 279600, Note_on_c, 0, 64, 96
2, 279679, Note_on_c, 0, 64, 0
2, 279680, Note_on_c, 0, 61, 96
2, 279759, Note_on_c, 0, 61, 0
2, 279760, Note_on_c, 0, 58, 96
2, 279839, Note_on_c, 0, 58, 0
2, 279840, Note_on_c, 0, 57, 96
2, 279919, Note_on_c, 0, 57, 0
2, 279920, Note_on_c, 0, 61, 96
2, 279999, Note_on_c, 0, 61, 0
2, 280000, Note_on_c, 0, 65, 96
2, 280079, Note_on_c, 0, 65, 0
2, 280080, Note_on_c, 0, 64, 96
2, 280159, Note_on_c, 0, 64, 0
2, 280160, Note_on_c, 0, 61, 96
2, 280239, Note_on_c, 0, 61, 0
2, 280240, Note_on_c, 0, 58, 96
2, 280312, Note_on_c, 0, 58, 0
2, 280320, Note_on_c, 0, 57, 96
2, 280399, Note_on_c, 0, 57, 0
2, 280400, Note_on_c, 0, 61, 96
2, 280479, Note_on_c, 0, 61, 0
2, 280480, Note_on_c, 0, 65, 96
2, 280559, Note_on_c, 0, 65, 0
2, 280560, Note_on_c, 0, 64, 96
2, 280639, Note_on_c, 0, 64, 0
2, 280640, Note_on_c, 0, 61, 96
2, 280719, Note_on_c, 0, 61, 0
2, 280720, Note_on_c, 0, 58, 96
2, 280799, Note_on_c, 0, 58, 0
2, 280800, Note_on_c, 0, 57, 96
2, 280879, Note_on_c, 0, 57, 0
2, 280880, Note_on_c, 0, 61, 96
2, 280959, Note_on_c, 0, 61, 0
2, 280960, Note_on_c, 0, 65, 96
2, 281039, Note_on_c, 0, 65, 0
2, 281040, Note_on_c, 0, 64, 96
2, 281119, Note_on_c, 0, 64, 0
2, 281120, Note_on_c, 0, 61, 96
2, 281199, Note_on_c, 0, 61, 0
2, 281200, Note_on_c, 0, 58, 96
2, 281272, Note_on_c, 0, 58, 0
2, 281280, Control_c, 0, 64, 127
2, 281280, Note_on_c, 0, 57, 94
2, 281439, Note_on_c, 0, 57, 0
2, 281600, Note_on_c, 0, 91, 112
2, 281679, Note_on_c, 0, 91, 0
2, 281680, Note_on_c, 0, 103, 112
2, 281752, Note_on_c, 0, 103, 0
2, 281840, Note_on_c, 0, 88, 112
2, 281919, Note_on_c, 0, 88, 0
2, 281920, Note_on_c, 0, 100, 112
2, 282079, Note_on_c, 0, 100, 0
2, 282080, Note_on_c, 0, 85, 112
2, 282159, Note_on_c, 0, 85, 0
2, 282160, Note_on_c, 0, 97, 112
2, 282232, Note_on_c, 0, 97, 0
2, 282320, Note_on_c, 0, 82, 112
2, 282399, Note_on_c, 0, 82, 0
2, 282400, Note_on_c, 0, 94, 112
2, 282559, Note_on_c, 0, 94, 0
2, 282560, Note_on_c, 0, 79, 112
2, 282639, Note_on_c, 0, 79, 0
2, 282640, Note_on_c, 0, 91, 112
2, 282799, Note_on_c, 0, 91, 0
2, 282800, Note_on_c, 0, 76, 112
2, 282879, Note_on_c, 0, 76, 0
2, 282880, Note_on_c, 0, 88, 112
2, 283039, Note_on_c, 0, 88, 0
2, 283040, Note_on_c, 0, 73, 114
2, 283119, Note_on_c, 0, 73, 0
2, 283120, Note_on_c, 0, 85, 114
2, 283192, Note_on_c, 0, 85, 0
2, 283280, Note_on_c, 0, 70, 114
2, 283352, Note_on_c, 0, 70, 0
2, 283360, Note_on_c, 0, 82, 114
2, 283432, Note_on_c, 0, 82, 0
2, 283520, Note_on_c, 0, 67, 114
2, 283592, Note_on_c, 0, 67, 0
2, 283600, Note_on_c, 0, 79, 114
2, 283672, Note_on_c, 0, 79, 0
2, 283760, Note_on_c, 0, 64, 114
2, 283832, Note_on_c, 0, 64, 0
2, 283840, Note_on_c, 0, 76, 114
2, 283912, Note_on_c, 0, 76, 0
2, 284000, Note_on_c, 0, 61, 114
2, 284072, Note_on_c, 0, 61, 0
2, 284080, Note_on_c, 0, 73, 114
2, 284152, Note_on_c, 0, 73, 0
2, 284895, Control_c, 0, 64, 0
2, 299520, Note_on_c, 0, 76, 90
2, 299520, Note_on_c, 0, 88, 90
2, 299520, Control_c, 0, 64, 127
2, 299759, Note_on_c, 0, 88, 0
2, 299759, Note_on_c, 0, 76, 0
2, 299760, Note_on_c, 0, 73, 90
2, 299760, Note_on_c, 0, 85, 90
2, 299999, Note_on_c, 0, 85, 0
2, 299999, Note_on_c, 0, 73, 0
2, 300000, Note_on_c, 0, 73, 90
2, 300000, Note_on_c, 0, 85, 90
2, 300239, Note_on_c, 0, 85, 0
2, 300239, Note_on_c, 0, 73, 0
2, 300240, Note_on_c, 0, 68, 90
2, 300240, Note_on_c, 0, 80, 90
2, 300456, Note_on_c, 0, 80, 0
2, 300456, Note_on_c, 0, 68, 0
2, 300480, Note_on_c, 0, 80, 90
2, 300480, Note_on_c, 0, 68, 90
2, 300480, Control_c, 0, 64, 0
2, 300719, Note_on_c, 0, 68, 0
2, 300719, Note_on_c, 0, 80, 0
2, 300720, Note_on_c, 0, 64, 90
2, 300720, Note_on_c, 0, 76, 90
2, 300959, Note_on_c, 0, 76, 0
2, 300959, Note_on_c, 0, 64, 0
2, 300960, Note_on_c, 0, 64, 97
2, 300960, Note_on_c, 0, 76, 97
2, 301199, Note_on_c, 0, 76, 0
2, 301199, Note_on_c, 0, 64, 0
2, 301200, Note_on_c, 0, 67, 101
2, 301200, Note_on_c, 0, 73, 101
2, 301200, Note_on_c, 0, 61, 101
2, 301416, Note_on_c, 0, 61, 0
2, 301416, Note_on_c, 0, 73, 0
2, 301416, Note_on_c, 0, 67, 0
2, 301440, Note_on_c, 0, 69, 105
2, 301440, Control_c, 0, 64, 127
2, 301440, Note_on_c, 0, 73, 105
2, 301440, Note_on_c, 0, 61, 105
2, 301679, Note_on_c, 0, 61, 0
2, 301679, Note_on_c, 0, 73, 0
2, 301679, Note_on_c, 0, 69, 0
2, 301680, Note_on_c, 0, 68, 92
2, 301680, Note_on_c, 0, 73, 92
2, 301680, Note_on_c, 0, 61, 92
2, 301919, Note_on_c, 0, 61, 0
2, 301919, Note_on_c, 0, 73, 0
2, 301919, Note_on_c, 0, 68, 0
2, 301920, Note_on_c, 0, 73, 96
2, 301920, Note_on_c, 0, 67, 96
2, 301920, Note_on_c, 0, 61, 96
2, 302159, Note_on_c, 0, 61, 0
2, 302159, Note_on_c, 0, 67, 0
2, 302159, Note_on_c, 0, 73, 0
2, 302160, Note_on_c, 0, 73, 101
2, 302160, Note_on_c, 0, 68, 101
2, 302160, Note_on_c, 0, 61, 101
2, 302376, Note_on_c, 0, 61, 0
2, 302376, Note_on_c, 0, 68, 0
2, 302376, Note_on_c, 0, 73, 0
2, 302400, Note_on_c, 0, 73, 105
2, 302400, Note_on_c, 0, 61, 105
2, 302400, Control_c, 0, 64, 0
2, 302400, Note_on_c, 0, 69, 105
2, 302639, Note_on_c, 0, 69, 0
2, 302639, Note_on_c, 0, 61, 0
2, 302639, Note_on_c, 0, 73, 0
2, 302640, Note_on_c, 0, 68, 90
2, 302640, Note_on_c, 0, 73, 90
2, 302640, Note_on_c, 0, 61, 90
2, 302879, Note_on_c, 0, 61, 0
2, 302879, Note_on_c, 0, 73, 0
2, 302879, Note_on_c, 0, 68, 0
2, 302880, Note_on_c, 0, 73, 93
2, 302880, Note_on_c, 0, 67, 93
2, 302880, Note_on_c, 0, 61, 93
2, 303119, Note_on_c, 0, 61, 0
2, 303119, Note_on_c, 0, 67, 0
2, 303119, Note_on_c, 0, 73, 0
2, 303120, Note_on_c, 0, 73, 98
2, 303120, Note_on_c, 0, 68, 98
2, 303120, Note_on_c, 0, 61, 98
2, 303336, Note_on_c, 0, 61, 0
2, 303336, Note_on_c, 0, 68, 0
2, 303336, Note_on_c, 0, 73, 0
2, 303360, Note_on_c, 0, 61, 102
2, 303360, Note_on_c, 0, 73, 102
2, 303360, Note_on_c, 0, 69, 102
2, 303360, Control_c, 0, 64, 127
2, 303599, Note_on_c, 0, 69, 0
2, 303599, Note_on_c, 0, 73, 0
2, 303599, Note_on_c, 0, 61, 0
2, 303600, Note_on_c, 0, 73, 90
2, 303600, Note_on_c, 0, 76, 90
2, 303839, Note_on_c, 0, 76, 0
2, 303839, Note_on_c, 0, 73, 0
2, 303840, Note_on_c, 0, 76, 90
2, 303840, Note_on_c, 0, 79, 90
2, 304079, Note_on_c, 0, 79, 0
2, 304079, Note_on_c, 0, 76, 0
2, 304080, Note_on_c, 0, 85, 90
2, 304080, Note_on_c, 0, 79, 90
2, 304296, Note_on_c, 0, 79, 0
2, 304296, Note_on_c, 0, 85, 0
2, 304320, Note_on_c, 0, 88, 98
2, 304320, Note_on_c, 0, 85, 98
2, 304320, Control_c, 0, 64, 0
2, 304559, Note_on_c, 0, 85, 0
2, 304559, Note_on_c, 0, 88, 0
2, 304560, Note_on_c, 0, 79, 99
2, 304560, Note_on_c, 0, 91, 99
2, 304799, Note_on_c, 0, 91, 0
2, 304799, Note_on_c, 0, 79, 0
2, 304800, Note_on_c, 0, 97, 100
2, 304800, Note_on_c, 0, 85, 100
2, 305039, Note_on_c, 0, 85, 0
2, 305039, Note_on_c, 0, 97, 0
2, 305040, Note_on_c, 0, 100, 101
2, 305040, Note_on_c, 0, 88, 101
2, 305256, Note_on_c, 0, 88, 0
2, 305256, Note_on_c, 0, 100, 0
2, 305280, Control_c, 0, 64, 127
2, 305280, Note_on_c, 0, 91, 102
2, 305359, Note_on_c, 0, 91, 0
2, 305360, Note_on_c, 0, 89, 102
2, 305439, Note_on_c, 0, 89, 0
2, 305440, Note_on_c, 0, 88, 100
2, 305519, Note_on_c, 0, 88, 0
2, 305520, Note_on_c, 0, 86, 100
2, 305599, Note_on_c, 0, 86, 0
2, 305600, Note_on_c, 0, 85, 100
2, 305679, Note_on_c, 0, 85, 0
2, 305680, Note_on_c, 0, 82, 100
2, 305759, Note_on_c, 0, 82, 0
2, 305760, Note_on_c, 0, 81, 100
2, 305839, Note_on_c, 0, 81, 0
2, 305840, Note_on_c, 0, 79, 100
2, 305919, Note_on_c, 0, 79, 0
2, 305920, Note_on_c, 0, 77, 100
2, 305999, Note_on_c, 0, 77, 0
2, 306000, Note_on_c, 0, 76, 100
2, 306079, Note_on_c, 0, 76, 0
2, 306080, Note_on_c, 0, 74, 100
2, 306159, Note_on_c, 0, 74, 0
2, 306160, Note_on_c, 0, 73, 100
2, 306232, Note_on_c, 0, 73, 0
2, 306240, Note_on_c, 0, 82, 100
2, 306319, Note_on_c, 0, 82, 0
2, 306320, Note_on_c, 0, 81, 100
2, 306399, Note_on_c, 0, 81, 0
2, 306400, Note_on_c, 0, 79, 99
2, 306479, Note_on_c, 0, 79, 0
2, 306480, Note_on_c, 0, 77, 99
2, 306559, Note_on_c, 0, 77, 0
2, 306560, Note_on_c, 0, 76, 99
2, 306639, Note_on_c, 0, 76, 0
2, 306640, Note_on_c, 0, 74, 99
2, 306699, Note_on_c, 0, 74, 0
2, 306700, Note_on_c, 0, 73, 99
2, 306759, Note_on_c, 0, 73, 0
2, 306760, Note_on_c, 0, 70, 99
2, 306819, Note_on_c, 0, 70, 0
2, 306820, Note_on_c, 0, 69, 99
2, 306879, Note_on_c, 0, 69, 0
2, 306880, Note_on_c, 0, 67, 99
2, 306939, Note_on_c, 0, 67, 0
2, 306940, Note_on_c, 0, 65, 99
2, 306999, Note_on_c, 0, 65, 0
2, 307000, Note_on_c, 0, 64, 99
2, 307059, Note_on_c, 0, 64, 0
2, 307060, Note_on_c, 0, 62, 99
2, 307119, Note_on_c, 0, 62, 0
2, 307120, Note_on_c, 0, 61, 99
2, 307179, Note_on_c, 0, 61, 0
2, 307180, Note_on_c, 0, 58, 99
2, 307200, Note_on_c, 0, 58, 0
2, 307200, Note_on_c, 0, 69, 99
2, 307215, Control_c, 0, 64, 0
2, 307308, Note_on_c, 0, 69, 0
2, 307440, Note_on_c, 0, 74, 98
2, 307872, Note_on_c, 0, 74, 0
2, 307920, Note_on_c, 0, 76, 97
2, 307974, Note_on_c, 0, 76, 0
2, 307980, Note_on_c, 0, 77, 99
2, 308034, Note_on_c, 0, 77, 0
2, 308040, Note_on_c, 0, 76, 98
2, 308094, Note_on_c, 0, 76, 0
2, 308100, Note_on_c, 0, 77, 96
2, 308184, Control_c, 0, 64, 127
2, 308376, Note_on_c, 0, 77, 0
2, 308400, Note_on_c, 0, 81, 95
2, 308400, Note_on_c, 0, 76, 95
2, 308616, Note_on_c, 0, 76, 0
2, 308616, Note_on_c, 0, 81, 0
2, 308640, Note_on_c, 0, 77, 109
2, 308640, Note_on_c, 0, 86, 109
2, 308964, Note_on_c, 0, 86, 0
2, 308964, Note_on_c, 0, 77, 0
2, 309000, Note_on_c, 0, 77, 90
2, 309000, Note_on_c, 0, 86, 90
2, 309108, Note_on_c, 0, 86, 0
2, 309108, Note_on_c, 0, 77, 0
2, 309120, Note_on_c, 0, 85, 97
2, 309120, Note_on_c, 0, 76, 97
2, 309144, Control_c, 0, 64, 0
2, 309228, Note_on_c, 0, 76, 0
2, 309228, Note_on_c, 0, 85, 0
2, 309240, Note_on_c, 0, 77, 97
2, 309240, Note_on_c, 0, 86, 97
2, 309294, Note_on_c, 0, 86, 0
2, 309294, Note_on_c, 0, 77, 0
2, 309360, Note_on_c, 0, 88, 96
2, 309360, Note_on_c, 0, 79, 96
2, 309414, Note_on_c, 0, 79, 0
2, 309414, Note_on_c, 0, 88, 0
2, 309480, Note_on_c, 0, 81, 96
2, 309480, Note_on_c, 0, 89, 96
2, 309534, Note_on_c, 0, 89, 0
2, 309534, Note_on_c, 0, 81, 0
2, 309600, Note_on_c, 0, 85, 96
2, 309600, Note_on_c, 0, 76, 96
2, 309708, Note_on_c, 0, 76, 0
2, 309708, Note_on_c, 0, 85, 0
2, 309960, Note_on_c, 0, 77, 90
2, 309960, Note_on_c, 0, 86, 90
2, 310014, Note_on_c, 0, 86, 0
2, 310014, Note_on_c, 0, 77, 0
2, 310080, Control_c, 0, 64, 127
2, 310080, Note_on_c, 0, 76, 97
2, 310080, Note_on_c, 0, 85, 97
2, 310134, Note_on_c, 0, 85, 0
2, 310134, Note_on_c, 0, 76, 0
2, 310200, Note_on_c, 0, 77, 97
2, 310200, Note_on_c, 0, 86, 97
2, 310254, Note_on_c, 0, 86, 0
2, 310254, Note_on_c, 0, 77, 0
2, 310260, Control_c, 0, 64, 0
2, 310320, Note_on_c, 0, 79, 97
2, 310320, Note_on_c, 0, 88, 97
2, 310374, Note_on_c, 0, 88, 0
2, 310374, Note_on_c, 0, 79, 0
2, 310440, Note_on_c, 0, 89, 97
2, 310440, Note_on_c, 0, 81, 97
2, 310494, Note_on_c, 0, 81, 0
2, 310494, Note_on_c, 0, 89, 0
2, 310560, Note_on_c, 0, 76, 97
2, 310560, Note_on_c, 0, 85, 97
2, 310668, Note_on_c, 0, 85, 0
2, 310668, Note_on_c, 0, 76, 0
2, 310920, Note_on_c, 0, 81, 103
2, 310956, Note_on_c, 0, 81, 0
2, 310960, Note_on_c, 0, 83, 100
2, 310996, Note_on_c, 0, 83, 0
2, 311000, Note_on_c, 0, 84, 97
2, 311036, Note_on_c, 0, 84, 0
2, 311040, Note_on_c, 0, 78, 94
2, 311040, Note_on_c, 0, 86, 94
2, 311148, Note_on_c, 0, 86, 0
2, 311148, Note_on_c, 0, 78, 0
2, 311280, Note_on_c, 0, 79, 97
2, 311280, Note_on_c, 0, 82, 97
2, 311280, Note_on_c, 0, 91, 97
2, 311280, Note_on_c, 0, 86, 97
2, 311496, Note_on_c, 0, 86, 0
2, 311496, Note_on_c, 0, 79, 0
2, 311496, Note_on_c, 0, 82, 0
2, 311496, Note_on_c, 0, 91, 0
2, 311760, Note_on_c, 0, 81, 101
2, 311814, Note_on_c, 0, 81, 0
2, 311820, Note_on_c, 0, 82, 98
2, 311874, Note_on_c, 0, 82, 0
2, 311880, Note_on_c, 0, 81, 96
2, 311934, Note_on_c, 0, 81, 0
2, 311940, Note_on_c, 0, 82, 93
2, 311994, Note_on_c, 0, 82, 0
2, 312000, Control_c, 0, 64, 127
2, 312000, Note_on_c, 0, 82, 91
2, 312000, Note_on_c, 0, 86, 91
2, 312108, Note_on_c, 0, 86, 0
2, 312108, Note_on_c, 0, 82, 0
2, 312240, Note_on_c, 0, 81, 98
2, 312240, Note_on_c, 0, 86, 98
2, 312348, Note_on_c, 0, 86, 0
2, 312348, Note_on_c, 0, 81, 0
2, 312480, Note_on_c, 0, 79, 91
2, 312480, Note_on_c, 0, 82, 91
2, 312480, Note_on_c, 0, 91, 91
2, 312804, Note_on_c, 0, 91, 0
2, 312804, Note_on_c, 0, 82, 0
2, 312804, Note_on_c, 0, 79, 0
2, 312840, Note_on_c, 0, 89, 90
2, 312840, Note_on_c, 0, 82, 90
2, 312840, Note_on_c, 0, 77, 90
2, 312948, Note_on_c, 0, 77, 0
2, 312948, Note_on_c, 0, 82, 0
2, 312948, Note_on_c, 0, 89, 0
2, 312960, Control_c, 0, 64, 127
2, 312960, Note_on_c, 0, 88, 92
2, 312960, Note_on_c, 0, 76, 92
2, 312960, Note_on_c, 0, 82, 92
2, 313068, Note_on_c, 0, 82, 0
2, 313068, Note_on_c, 0, 76, 0
2, 313068, Note_on_c, 0, 88, 0
2, 313080, Note_on_c, 0, 77, 95
2, 313080, Note_on_c, 0, 89, 95
2, 313188, Note_on_c, 0, 89, 0
2, 313188, Note_on_c, 0, 77, 0
2, 313200, Note_on_c, 0, 91, 99
2, 313200, Note_on_c, 0, 79, 99
2, 313308, Note_on_c, 0, 79, 0
2, 313308, Note_on_c, 0, 91, 0
2, 313320, Note_on_c, 0, 93, 103
2, 313320, Note_on_c, 0, 81, 103
2, 313374, Note_on_c, 0, 81, 0
2, 313374, Note_on_c, 0, 93, 0
2, 313440, Note_on_c, 0, 77, 90
2, 313440, Note_on_c, 0, 81, 90
2, 313440, Note_on_c, 0, 89, 90
2, 313548, Note_on_c, 0, 89, 0
2, 313548, Note_on_c, 0, 81, 0
2, 313548, Note_on_c, 0, 77, 0
2, 313800, Note_on_c, 0, 86, 92
2, 313800, Note_on_c, 0, 81, 92
2, 313854, Note_on_c, 0, 81, 0
2, 313854, Note_on_c, 0, 86, 0
2, 313920, Control_c, 0, 64, 0
2, 313920, Note_on_c, 0, 83, 94
2, 314028, Note_on_c, 0, 83, 0
2, 314040, Note_on_c, 0, 85, 97
2, 314148, Note_on_c, 0, 85, 0
2, 314160, Note_on_c, 0, 86, 99
2, 314214, Note_on_c, 0, 86, 0
2, 314280, Note_on_c, 0, 88, 102
2, 314334, Note_on_c, 0, 88, 0
2, 314400, Note_on_c, 0, 85, 90
2, 314400, Note_on_c, 0, 81, 90
2, 314508, Note_on_c, 0, 81, 0
2, 314508, Note_on_c, 0, 85, 0
2, 314670, Control_c, 0, 64, 0
2, 314760, Note_on_c, 0, 91, 91
2, 314760, Note_on_c, 0, 88, 91
2, 314814, Note_on_c, 0, 88, 0
2, 314814, Note_on_c, 0, 91, 0
2, 314880, Note_on_c, 0, 86, 93
2, 314880, Note_on_c, 0, 83, 93
2, 314895, Control_c, 0, 64, 127
2, 314988, Note_on_c, 0, 83, 0
2, 314988, Note_on_c, 0, 86, 0
2, 315000, Note_on_c, 0, 88, 95
2, 315000, Note_on_c, 0, 84, 95
2, 315108, Note_on_c, 0, 84, 0
2, 315108, Note_on_c, 0, 88, 0
2, 315120, Note_on_c, 0, 86, 97
2, 315120, Note_on_c, 0, 90, 97
2, 315228, Note_on_c, 0, 90, 0
2, 315228, Note_on_c, 0, 86, 0
2, 315240, Note_on_c, 0, 92, 99
2, 315240, Note_on_c, 0, 83, 99
2, 315294, Note_on_c, 0, 83, 0
2, 315294, Note_on_c, 0, 92, 0
2, 315360, Note_on_c, 0, 93, 100
2, 315360, Note_on_c, 0, 84, 100
2, 315468, Note_on_c, 0, 84, 0
2, 315468, Note_on_c, 0, 93, 0
2, 315645, Control_c, 0, 64, 0
2, 315720, Note_on_c, 0, 84, 89
2, 315720, Note_on_c, 0, 81, 89
2, 315774, Note_on_c, 0, 81, 0
2, 315774, Note_on_c, 0, 84, 0
2, 315840, Note_on_c, 0, 82, 89
2, 315840, Note_on_c, 0, 79, 89
2, 315900, Control_c, 0, 64, 127
2, 315948, Note_on_c, 0, 79, 0
2, 315948, Note_on_c, 0, 82, 0
2, 315960, Note_on_c, 0, 81, 89
2, 315960, Note_on_c, 0, 84, 89
2, 316068, Note_on_c, 0, 84, 0
2, 316068, Note_on_c, 0, 81, 0
2, 316080, Note_on_c, 0, 82, 89
2, 316080, Note_on_c, 0, 86, 89
2, 316188, Note_on_c, 0, 86, 0
2, 316188, Note_on_c, 0, 82, 0
2, 316200, Note_on_c, 0, 84, 89
2, 316200, Note_on_c, 0, 88, 89
2, 316254, Note_on_c, 0, 88, 0
2, 316254, Note_on_c, 0, 84, 0
2, 316320, Note_on_c, 0, 81, 89
2, 316320, Note_on_c, 0, 89, 89
2, 316428, Note_on_c, 0, 89, 0
2, 316428, Note_on_c, 0, 81, 0
2, 316680, Note_on_c, 0, 84, 90
2, 316680, Note_on_c, 0, 81, 90
2, 316695, Control_c, 0, 64, 0
2, 316734, Note_on_c, 0, 81, 0
2, 316734, Note_on_c, 0, 84, 0
2, 316800, Note_on_c, 0, 79, 95
2, 316800, Control_c, 0, 64, 127
2, 316908, Note_on_c, 0, 79, 0
2, 316920, Note_on_c, 0, 81, 97
2, 317028, Note_on_c, 0, 81, 0
2, 317040, Note_on_c, 0, 82, 99
2, 317148, Note_on_c, 0, 82, 0
2, 317160, Note_on_c, 0, 84, 101
2, 317214, Note_on_c, 0, 84, 0
2, 317280, Note_on_c, 0, 81, 104
2, 317388, Note_on_c, 0, 81, 0
2, 317595, Control_c, 0, 64, 0
2, 317640, Note_on_c, 0, 81, 97
2, 317694, Note_on_c, 0, 81, 0
2, 317760, Note_on_c, 0, 79, 98
2, 317760, Control_c, 0, 64, 127
2, 317760, Control_c, 0, 64, 0
2, 317868, Note_on_c, 0, 79, 0
2, 317880, Note_on_c, 0, 81, 100
2, 317988, Note_on_c, 0, 81, 0
2, 318000, Note_on_c, 0, 82, 101
2, 318108, Note_on_c, 0, 82, 0
2, 318120, Note_on_c, 0, 84, 103
2, 318174, Note_on_c, 0, 84, 0
2, 318240, Note_on_c, 0, 81, 104
2, 318348, Note_on_c, 0, 81, 0
2, 318600, Note_on_c, 0, 84, 93
2, 318600, Note_on_c, 0, 80, 93
2, 318654, Note_on_c, 0, 80, 0
2, 318654, Note_on_c, 0, 84, 0
2, 318720, Note_on_c, 0, 84, 106
2, 319079, Note_on_c, 0, 84, 0
2, 319080, Note_on_c, 0, 84, 95
2, 319199, Note_on_c, 0, 84, 0
2, 319200, Note_on_c, 0, 84, 103
2, 319559, Note_on_c, 0, 84, 0
2, 319560, Note_on_c, 0, 84, 93
2, 319668, Note_on_c, 0, 84, 0
2, 319680, Note_on_c, 0, 87, 101
2, 320039, Note_on_c, 0, 87, 0
2, 320040, Note_on_c, 0, 87, 94
2, 320159, Note_on_c, 0, 87, 0
2, 320160, Note_on_c, 0, 87, 101
2, 320519, Note_on_c, 0, 87, 0
2, 320520, Note_on_c, 0, 87, 96
2, 320628, Note_on_c, 0, 87, 0
2, 320640, Note_on_c, 0, 91, 105
2, 320999, Note_on_c, 0, 91, 0
2, 321000, Note_on_c, 0, 91, 97
2, 321119, Note_on_c, 0, 91, 0
2, 321120, Note_on_c, 0, 91, 105
2, 321479, Note_on_c, 0, 91, 0
2, 321480, Note_on_c, 0, 91, 94
2, 321588, Note_on_c, 0, 91, 0
2, 321600, Note_on_c, 0, 91, 100
2, 321959, Note_on_c, 0, 91, 0
2, 321960, Note_on_c, 0, 91, 95
2, 322079, Note_on_c, 0, 91, 0
2, 322080, Note_on_c, 0, 90, 106
2, 322439, Note_on_c, 0, 90, 0
2, 322440, Note_on_c, 0, 90, 98
2, 322548, Note_on_c, 0, 90, 0
2, 322560, Note_on_c, 0, 95, 90
2, 322560, Note_on_c, 0, 103, 90
2, 322679, Note_on_c, 0, 103, 0
2, 322679, Note_on_c, 0, 95, 0
2, 322680, Note_on_c, 0, 79, 91
2, 322734, Note_on_c, 0, 79, 0
2, 322740, Note_on_c, 0, 81, 93
2, 322794, Note_on_c, 0, 81, 0
2, 322800, Note_on_c, 0, 82, 95
2, 322836, Note_on_c, 0, 82, 0
2, 322840, Note_on_c, 0, 84, 97
2, 322876, Note_on_c, 0, 84, 0
2, 322880, Note_on_c, 0, 86, 98
2, 322916, Note_on_c, 0, 86, 0
2, 322920, Note_on_c, 0, 88, 100
2, 322956, Note_on_c, 0, 88, 0
2, 322960, Note_on_c, 0, 89, 101
2, 322996, Note_on_c, 0, 89, 0
2, 323000, Note_on_c, 0, 91, 102
2, 323036, Note_on_c, 0, 91, 0
2, 323040, Note_on_c, 0, 91, 104
2, 323256, Note_on_c, 0, 91, 0
2, 323280, Note_on_c, 0, 91, 102
2, 323399, Note_on_c, 0, 91, 0
2, 323400, Note_on_c, 0, 91, 102
2, 323508, Note_on_c, 0, 91, 0
2, 323520, Note_on_c, 0, 91, 102
2, 323759, Note_on_c, 0, 91, 0
2, 323760, Note_on_c, 0, 91, 101
2, 323879, Note_on_c, 0, 91, 0
2, 323880, Note_on_c, 0, 91, 101
2, 323999, Note_on_c, 0, 91, 0
2, 324000, Note_on_c, 0, 90, 101
2, 324239, Note_on_c, 0, 90, 0
2, 324240, Note_on_c, 0, 90, 100
2, 324359, Note_on_c, 0, 90, 0
2, 324360, Note_on_c, 0, 90, 100
2, 324468, Note_on_c, 0, 90, 0
2, 324480, Control_c, 0, 64, 127
2, 324480, Note_on_c, 0, 83, 100
2, 324480, Note_on_c, 0, 91, 100
2, 324480, Note_on_c, 0, 86, 100
2, 325050, Control_c, 0, 64, 0
2, 325193, Control_c, 0, 64, 127
2, 325199, Note_on_c, 0, 86, 0
2, 325199, Note_on_c, 0, 91, 0
2, 325199, Note_on_c, 0, 83, 0
2, 325200, Note_on_c, 0, 74, 89
2, 325254, Note_on_c, 0, 74, 0
2, 325260, Note_on_c, 0, 76, 92
2, 325314, Note_on_c, 0, 76, 0
2, 325320, Note_on_c, 0, 78, 95
2, 325356, Note_on_c, 0, 78, 0
2, 325360, Note_on_c, 0, 79, 97
2, 325396, Note_on_c, 0, 79, 0
2, 325400, Note_on_c, 0, 81, 99
2, 325436, Note_on_c, 0, 81, 0
2, 325440, Note_on_c, 0, 74, 101
2, 325440, Note_on_c, 0, 83, 101
2, 325440, Note_on_c, 0, 79, 101
2, 325853, Control_c, 0, 64, 0
2, 326088, Note_on_c, 0, 79, 0
2, 326088, Note_on_c, 0, 83, 0
2, 326088, Note_on_c, 0, 74, 0
2, 326160, Note_on_c, 0, 74, 94
2, 326196, Note_on_c, 0, 74, 0
2, 326200, Note_on_c, 0, 76, 95
2, 326236, Note_on_c, 0, 76, 0
2, 326240, Note_on_c, 0, 78, 97
2, 326276, Note_on_c, 0, 78, 0
2, 326280, Note_on_c, 0, 79, 99
2, 326316, Note_on_c, 0, 79, 0
2, 326320, Note_on_c, 0, 81, 101
2, 326356, Note_on_c, 0, 81, 0
2, 326360, Note_on_c, 0, 84, 102
2, 326396, Note_on_c, 0, 84, 0
2, 326400, Note_on_c, 0, 86, 104
2, 326400, Control_c, 0, 64, 127
2, 326616, Note_on_c, 0, 86, 0
2, 326640, Note_on_c, 0, 74, 89
2, 326676, Note_on_c, 0, 74, 0
2, 326680, Note_on_c, 0, 76, 97
2, 326716, Note_on_c, 0, 76, 0
2, 326720, Note_on_c, 0, 78, 100
2, 326756, Note_on_c, 0, 78, 0
2, 326760, Note_on_c, 0, 79, 103
2, 326790, Control_c, 0, 64, 0
2, 326796, Note_on_c, 0, 79, 0
2, 326800, Note_on_c, 0, 81, 106
2, 326836, Note_on_c, 0, 81, 0
2, 326840, Note_on_c, 0, 84, 108
2, 326876, Note_on_c, 0, 84, 0
2, 326880, Note_on_c, 0, 86, 111
2, 327096, Note_on_c, 0, 86, 0
2, 328320, Note_on_c, 0, 86, 90
2, 328320, Control_c, 0, 64, 127
2, 328320, Note_on_c, 0, 83, 90
2, 328559, Note_on_c, 0, 83, 0
2, 328559, Note_on_c, 0, 86, 0
2, 328560, Note_on_c, 0, 85, 96
2, 328560, Note_on_c, 0, 81, 96
2, 328639, Note_on_c, 0, 81, 0
2, 328639, Note_on_c, 0, 85, 0
2, 328640, Note_on_c, 0, 88, 100
2, 328719, Note_on_c, 0, 88, 0
2, 328720, Note_on_c, 0, 90, 104
2, 328799, Note_on_c, 0, 90, 0
2, 328800, Note_on_c, 0, 88, 108
2, 328800, Note_on_c, 0, 91, 108
2, 329496, Note_on_c, 0, 91, 0
2, 329496, Note_on_c, 0, 88, 0
2, 329520, Note_on_c, 0, 87, 90
2, 329520, Note_on_c, 0, 90, 90
2, 329736, Note_on_c, 0, 90, 0
2, 329736, Note_on_c, 0, 87, 0
2, 329760, Note_on_c, 0, 85, 90
2, 329760, Note_on_c, 0, 88, 90
2, 329760, Control_c, 0, 64, 0
2, 329976, Note_on_c, 0, 88, 0
2, 329976, Note_on_c, 0, 85, 0
2, 330000, Note_on_c, 0, 83, 91
2, 330000, Note_on_c, 0, 86, 91
2, 330079, Note_on_c, 0, 86, 0
2, 330079, Note_on_c, 0, 83, 0
2, 330080, Note_on_c, 0, 90, 95
2, 330159, Note_on_c, 0, 90, 0
2, 330160, Note_on_c, 0, 92, 98
2, 330232, Note_on_c, 0, 92, 0
2, 330240, Note_on_c, 0, 90, 102
2, 330240, Control_c, 0, 64, 127
2, 330240, Note_on_c, 0, 93, 102
2, 330479, Note_on_c, 0, 93, 0
2, 330479, Note_on_c, 0, 90, 0
2, 330480, Note_on_c, 0, 87, 88
2, 330559, Note_on_c, 0, 87, 0
2, 330560, Note_on_c, 0, 90, 93
2, 330639, Note_on_c, 0, 90, 0
2, 330640, Note_on_c, 0, 92, 97
2, 330719, Note_on_c, 0, 92, 0
2, 330720, Note_on_c, 0, 93, 101
2, 330720, Note_on_c, 0, 90, 101
2, 330959, Note_on_c, 0, 90, 0
2, 330959, Note_on_c, 0, 93, 0
2, 330960, Note_on_c, 0, 87, 94
2, 331032, Note_on_c, 0, 87, 0
2, 331040, Note_on_c, 0, 90, 97
2, 331112, Note_on_c, 0, 90, 0
2, 331120, Note_on_c, 0, 92, 101
2, 331192, Note_on_c, 0, 92, 0
2, 331200, Note_on_c, 0, 88, 104
2, 331200, Note_on_c, 0, 93, 104
2, 331308, Note_on_c, 0, 93, 0
2, 331308, Note_on_c, 0, 88, 0
2, 331440, Note_on_c, 0, 88, 101
2, 331440, Note_on_c, 0, 93, 101
2, 331440, Note_on_c, 0, 81, 101
2, 331460, Control_c, 0, 64, 0
2, 331548, Note_on_c, 0, 81, 0
2, 331548, Note_on_c, 0, 93, 0
2, 331548, Note_on_c, 0, 88, 0
2, 331680, Note_on_c, 0, 86, 100
2, 331680, Note_on_c, 0, 89, 100
2, 331680, Note_on_c, 0, 81, 100
2, 331896, Note_on_c, 0, 81, 0
2, 331896, Note_on_c, 0, 89, 0
2, 331896, Note_on_c, 0, 86, 0
2, 331920, Note_on_c, 0, 79, 99
2, 331920, Note_on_c, 0, 85, 99
2, 331920, Note_on_c, 0, 88, 99
2, 332136, Note_on_c, 0, 88, 0
2, 332136, Note_on_c, 0, 85, 0
2, 332136, Note_on_c, 0, 79, 0
2, 332160, Note_on_c, 0, 77, 98
2, 332160, Note_on_c, 0, 86, 98
2, 332160, Note_on_c, 0, 81, 98
2, 332268, Note_on_c, 0, 81, 0
2, 332268, Note_on_c, 0, 86, 0
2, 332268, Note_on_c, 0, 77, 0
2, 332400, Note_on_c, 0, 83, 97
2, 332400, Note_on_c, 0, 88, 97
2, 332400, Note_on_c, 0, 76, 97
2, 332508, Note_on_c, 0, 76, 0
2, 332508, Note_on_c, 0, 88, 0
2, 332508, Note_on_c, 0, 83, 0
2, 332640, Note_on_c, 0, 76, 96
2, 332640, Note_on_c, 0, 81, 96
2, 332640, Note_on_c, 0, 85, 96
2, 332748, Note_on_c, 0, 85, 0
2, 332748, Note_on_c, 0, 81, 0
2, 332748, Note_on_c, 0, 76, 0
2, 332880, Note_on_c, 0, 76, 95
2, 332988, Note_on_c, 0, 76, 0
2, 333120, Note_on_c, 0, 73, 93
2, 333336, Note_on_c, 0, 73, 0
2, 333360, Note_on_c, 0, 68, 92
2, 333576, Note_on_c, 0, 68, 0
2, 333600, Note_on_c, 0, 69, 91
2, 333816, Note_on_c, 0, 69, 0
2, 334080, Note_on_c, 0, 65, 89
2, 334080, Note_on_c, 0, 74, 89
2, 334097, Control_c, 0, 64, 127
2, 334559, Note_on_c, 0, 74, 0
2, 334559, Note_on_c, 0, 65, 0
2, 334560, Note_on_c, 0, 69, 93
2, 334560, Note_on_c, 0, 76, 93
2, 334799, Note_on_c, 0, 76, 0
2, 334799, Note_on_c, 0, 69, 0
2, 334800, Note_on_c, 0, 77, 99
2, 334800, Note_on_c, 0, 74, 99
2, 335016, Note_on_c, 0, 74, 0
2, 335016, Note_on_c, 0, 77, 0
2, 335040, Note_on_c, 0, 76, 106
2, 335040, Note_on_c, 0, 81, 106
2, 335519, Note_on_c, 0, 81, 0
2, 335519, Note_on_c, 0, 76, 0
2, 335520, Note_on_c, 0, 76, 90
2, 335520, Note_on_c, 0, 72, 90
2, 335759, Note_on_c, 0, 72, 0
2, 335759, Note_on_c, 0, 76, 0
2, 335760, Note_on_c, 0, 81, 90
2, 335760, Note_on_c, 0, 76, 90
2, 335760, Note_on_c, 0, 72, 90
2, 335976, Note_on_c, 0, 72, 0
2, 335976, Note_on_c, 0, 76, 0
2, 335976, Note_on_c, 0, 81, 0
2, 336000, Note_on_c, 0, 81, 90
2, 336000, Note_on_c, 0, 77, 90
2, 336000, Note_on_c, 0, 86, 90
2, 336479, Note_on_c, 0, 86, 0
2, 336479, Note_on_c, 0, 77, 0
2, 336479, Note_on_c, 0, 81, 0
2, 336480, Note_on_c, 0, 86, 95
2, 336480, Note_on_c, 0, 80, 95
2, 336480, Note_on_c, 0, 83, 95
2, 336639, Note_on_c, 0, 83, 0
2, 336639, Note_on_c, 0, 80, 0
2, 336639, Note_on_c, 0, 86, 0
2, 336640, Note_on_c, 0, 83, 98
2, 336640, Note_on_c, 0, 80, 98
2, 336640, Note_on_c, 0, 88, 98
2, 336799, Note_on_c, 0, 88, 0
2, 336799, Note_on_c, 0, 80, 0
2, 336799, Note_on_c, 0, 83, 0
2, 336800, Note_on_c, 0, 89, 101
2, 336800, Note_on_c, 0, 83, 101
2, 336800, Note_on_c, 0, 80, 101
2, 336872, Note_on_c, 0, 80, 0
2, 336872, Note_on_c, 0, 83, 0
2, 336872, Note_on_c, 0, 89, 0
2, 336960, Note_on_c, 0, 86, 104
2, 336960, Note_on_c, 0, 89, 104
2, 336960, Note_on_c, 0, 81, 104
2, 337439, Note_on_c, 0, 81, 0
2, 337439, Note_on_c, 0, 89, 0
2, 337439, Note_on_c, 0, 86, 0
2, 337440, Note_on_c, 0, 81, 90
2, 337440, Note_on_c, 0, 88, 90
2, 337656, Note_on_c, 0, 88, 0
2, 337656, Note_on_c, 0, 81, 0
2, 337920, Note_on_c, 0, 77, 90
2, 337920, Note_on_c, 0, 81, 90
2, 338399, Note_on_c, 0, 81, 0
2, 338399, Note_on_c, 0, 77, 0
2, 338400, Note_on_c, 0, 77, 96
2, 338400, Note_on_c, 0, 81, 96
2, 338400, Note_on_c, 0, 86, 96
2, 338508, Note_on_c, 0, 86, 0
2, 338508, Note_on_c, 0, 81, 0
2, 338508, Note_on_c, 0, 77, 0
2, 338640, Note_on_c, 0, 89, 101
2, 338640, Note_on_c, 0, 86, 101
2, 338640, Note_on_c, 0, 81, 101
2, 338748, Note_on_c, 0, 81, 0
2, 338748, Note_on_c, 0, 86, 0
2, 338748, Note_on_c, 0, 89, 0
2, 338880, Note_on_c, 0, 86, 106
2, 339359, Note_on_c, 0, 86, 0
2, 339360, Note_on_c, 0, 84, 96
2, 339792, Note_on_c, 0, 84, 0
2, 339840, Note_on_c, 0, 71, 96
2, 339840, Control_c, 0, 64, 127
2, 339840, Note_on_c, 0, 83, 96
2, 339840, Control_c, 0, 64, 0
2, 340199, Note_on_c, 0, 83, 0
2, 340199, Note_on_c, 0, 71, 0
2, 340200, Note_on_c, 0, 84, 99
2, 340254, Note_on_c, 0, 84, 0
2, 340260, Note_on_c, 0, 83, 100
2, 340287, Note_on_c, 0, 83, 0
2, 340320, Note_on_c, 0, 69, 102
2, 340320, Note_on_c, 0, 81, 102
2, 340428, Note_on_c, 0, 81, 0
2, 340428, Note_on_c, 0, 69, 0
2, 340560, Note_on_c, 0, 71, 105
2, 340560, Note_on_c, 0, 83, 105
2, 340668, Note_on_c, 0, 83, 0
2, 340668, Note_on_c, 0, 71, 0
2, 340800, Note_on_c, 0, 84, 105
2, 340800, Note_on_c, 0, 96, 105
2, 341279, Note_on_c, 0, 96, 0
2, 341279, Note_on_c, 0, 84, 0
2, 341280, Note_on_c, 0, 82, 103
2, 341280, Note_on_c, 0, 94, 103
2, 341712, Note_on_c, 0, 94, 0
2, 341712, Note_on_c, 0, 82, 0
2, 341760, Note_on_c, 0, 93, 101
2, 341760, Note_on_c, 0, 81, 101
2, 342239, Note_on_c, 0, 81, 0
2, 342239, Note_on_c, 0, 93, 0
2, 342240, Note_on_c, 0, 91, 100
2, 342240, Note_on_c, 0, 79, 100
2, 342672, Note_on_c, 0, 79, 0
2, 342672, Note_on_c, 0, 91, 0
2, 342720, Note_on_c, 0, 90, 98
2, 342720, Note_on_c, 0, 78, 98
2, 343199, Note_on_c, 0, 78, 0
2, 343199, Note_on_c, 0, 90, 0
2, 343200, Note_on_c, 0, 77, 92
2, 343200, Note_on_c, 0, 89, 92
2, 343632, Note_on_c, 0, 89, 0
2, 343632, Note_on_c, 0, 77, 0
2, 343680, Note_on_c, 0, 87, 81
2, 343680, Note_on_c, 0, 75, 81
2, 344159, Note_on_c, 0, 75, 0
2, 344159, Note_on_c, 0, 87, 0
2, 344160, Note_on_c, 0, 86, 76
2, 344160, Note_on_c, 0, 74, 76
2, 344592, Note_on_c, 0, 74, 0
2, 344592, Note_on_c, 0, 86, 0
2, 344640, Note_on_c, 0, 73, 72
2, 344640, Note_on_c, 0, 85, 72
2, 345479, Note_on_c, 0, 85, 0
2, 345479, Note_on_c, 0, 73, 0
2, 345480, Note_on_c, 0, 69, 90
2, 345719, Note_on_c, 0, 69, 0
2, 345720, Note_on_c, 0, 79, 90
2, 345959, Note_on_c, 0, 79, 0
2, 345960, Note_on_c, 0, 76, 90
2, 346199, Note_on_c, 0, 76, 0
2, 346200, Note_on_c, 0, 73, 90
2, 346439, Note_on_c, 0, 73, 0
2, 346440, Note_on_c, 0, 69, 91
2, 346548, Note_on_c, 0, 69, 0
2, 346680, Note_on_c, 0, 81, 91
2, 346919, Note_on_c, 0, 81, 0
2, 346920, Note_on_c, 0, 77, 91
2, 347159, Note_on_c, 0, 77, 0
2, 347160, Note_on_c, 0, 74, 91
2, 347399, Note_on_c, 0, 74, 0
2, 347400, Note_on_c, 0, 69, 92
2, 347508, Note_on_c, 0, 69, 0
2, 347640, Note_on_c, 0, 83, 92
2, 347856, Note_on_c, 0, 83, 0
2, 347880, Note_on_c, 0, 77, 92
2, 348096, Note_on_c, 0, 77, 0
2, 348120, Note_on_c, 0, 74, 93
2, 348228, Note_on_c, 0, 74, 0
2, 348497, Control_c, 0, 64, 127
2, 348600, Note_on_c, 0, 85, 93
2, 348924, Note_on_c, 0, 85, 0
2, 349560, Note_on_c, 0, 88, 94
2, 349884, Note_on_c, 0, 88, 0
2, 350040, Note_on_c, 0, 91, 93
2, 350364, Note_on_c, 0, 91, 0
2, 350520, Note_on_c, 0, 93, 91
2, 350844, Note_on_c, 0, 93, 0
2, 351000, Note_on_c, 0, 96, 90
2, 351216, Note_on_c, 0, 96, 0
2, 351240, Note_on_c, 0, 91, 89
2, 351468, Note_on_c, 0, 91, 0
2, 351480, Note_on_c, 0, 88, 88
2, 351696, Note_on_c, 0, 88, 0
2, 351720, Note_on_c, 0, 85, 88
2, 351936, Note_on_c, 0, 85, 0
2, 351960, Note_on_c, 0, 82, 87
2, 352176, Note_on_c, 0, 82, 0
2, 352200, Note_on_c, 0, 79, 86
2, 352428, Note_on_c, 0, 79, 0
2, 352440, Note_on_c, 0, 77, 78
2, 352656, Note_on_c, 0, 77, 0
2, 352680, Note_on_c, 0, 74, 75
2, 352896, Note_on_c, 0, 74, 0
2, 352920, Note_on_c, 0, 71, 72
2, 353136, Note_on_c, 0, 71, 0
2, 353160, Note_on_c, 0, 68, 69
2, 353268, Note_on_c, 0, 68, 0
2, 353280, Note_on_c, 0, 68, 68
2, 353399, Note_on_c, 0, 68, 0
2, 353400, Note_on_c, 0, 69, 66
2, 353508, Control_c, 0, 64, 0
2, 353639, Note_on_c, 0, 69, 0
2, 353640, Note_on_c, 0, 64, 63
2, 353748, Note_on_c, 0, 64, 0
2, 356165, Note_on_c, 0, 74, 81
2, 356165, Control_c, 0, 64, 127
2, 356165, Note_on_c, 0, 81, 81
2, 356204, Note_on_c, 0, 81, 0
2, 356204, Note_on_c, 0, 74, 0
2, 356205, Note_on_c, 0, 69, 81
2, 356244, Note_on_c, 0, 69, 0
2, 356245, Note_on_c, 0, 81, 82
2, 356245, Note_on_c, 0, 74, 82
2, 356284, Note_on_c, 0, 74, 0
2, 356284, Note_on_c, 0, 81, 0
2, 356285, Note_on_c, 0, 69, 81
2, 356324, Note_on_c, 0, 69, 0
2, 356325, Note_on_c, 0, 74, 83
2, 356325, Note_on_c, 0, 81, 83
2, 356364, Note_on_c, 0, 81, 0
2, 356364, Note_on_c, 0, 74, 0
2, 356365, Note_on_c, 0, 69, 83
2, 356404, Note_on_c, 0, 69, 0
2, 356405, Note_on_c, 0, 74, 81
2, 356405, Note_on_c, 0, 81, 81
2, 356444, Note_on_c, 0, 81, 0
2, 356444, Note_on_c, 0, 74, 0
2, 356445, Note_on_c, 0, 69, 84
2, 356484, Note_on_c, 0, 69, 0
2, 356485, Note_on_c, 0, 81, 84
2, 356485, Note_on_c, 0, 74, 84
2, 356524, Note_on_c, 0, 74, 0
2, 356524, Note_on_c, 0, 81, 0
2, 356525, Note_on_c, 0, 69, 85
2, 356564, Note_on_c, 0, 69, 0
2, 356565, Note_on_c, 0, 81, 85
2, 356565, Note_on_c, 0, 74, 85
2, 356604, Note_on_c, 0, 74, 0
2, 356604, Note_on_c, 0, 81, 0
2, 356605, Note_on_c, 0, 69, 83
2, 356644, Note_on_c, 0, 69, 0
2, 356645, Note_on_c, 0, 81, 86
2, 356645, Note_on_c, 0, 74, 86
2, 356684, Note_on_c, 0, 74, 0
2, 356684, Note_on_c, 0, 81, 0
2, 356685, Note_on_c, 0, 69, 87
2, 356724, Note_on_c, 0, 69, 0
2, 356725, Note_on_c, 0, 81, 87
2, 356725, Note_on_c, 0, 74, 87
2, 356764, Note_on_c, 0, 74, 0
2, 356764, Note_on_c, 0, 81, 0
2, 356765, Note_on_c, 0, 69, 88
2, 356804, Note_on_c, 0, 69, 0
2, 356805, Note_on_c, 0, 74, 89
2, 356805, Note_on_c, 0, 81, 89
2, 356844, Note_on_c, 0, 81, 0
2, 356844, Note_on_c, 0, 74, 0
2, 356845, Note_on_c, 0, 69, 88
2, 356884, Note_on_c, 0, 69, 0
2, 356885, Note_on_c, 0, 81, 89
2, 356885, Note_on_c, 0, 74, 89
2, 356924, Note_on_c, 0, 74, 0
2, 356924, Note_on_c, 0, 81, 0
2, 356925, Note_on_c, 0, 69, 82
2, 356964, Note_on_c, 0, 69, 0
2, 356965, Note_on_c, 0, 74, 90
2, 356965, Note_on_c, 0, 81, 90
2, 357004, Note_on_c, 0, 81, 0
2, 357004, Note_on_c, 0, 74, 0
2, 357005, Note_on_c, 0, 69, 84
2, 357044, Note_on_c, 0, 69, 0
2, 357045, Note_on_c, 0, 74, 91
2, 357045, Note_on_c, 0, 81, 91
2, 357084, Note_on_c, 0, 81, 0
2, 357084, Note_on_c, 0, 74, 0
2, 357085, Note_on_c, 0, 69, 91
2, 357121, Note_on_c, 0, 69, 0
2, 357125, Note_on_c, 0, 86, 92
2, 357125, Note_on_c, 0, 81, 92
2, 357161, Note_on_c, 0, 81, 0
2, 357161, Note_on_c, 0, 86, 0
2, 357165, Note_on_c, 0, 74, 91
2, 357201, Note_on_c, 0, 74, 0
2, 357205, Note_on_c, 0, 81, 93
2, 357205, Note_on_c, 0, 86, 93
2, 357241, Note_on_c, 0, 86, 0
2, 357241, Note_on_c, 0, 81, 0
2, 357245, Note_on_c, 0, 74, 93
2, 357281, Note_on_c, 0, 74, 0
2, 357285, Note_on_c, 0, 86, 94
2, 357285, Note_on_c, 0, 81, 94
2, 357321, Note_on_c, 0, 81, 0
2, 357321, Note_on_c, 0, 86, 0
2, 357325, Note_on_c, 0, 74, 94
2, 357361, Note_on_c, 0, 74, 0
2, 357365, Note_on_c, 0, 86, 92
2, 357365, Note_on_c, 0, 81, 92
2, 357401, Note_on_c, 0, 81, 0
2, 357401, Note_on_c, 0, 86, 0
2, 357405, Note_on_c, 0, 74, 92
2, 357441, Note_on_c, 0, 74, 0
2, 357445, Note_on_c, 0, 81, 92
2, 357445, Note_on_c, 0, 86, 92
2, 357481, Note_on_c, 0, 86, 0
2, 357481, Note_on_c, 0, 81, 0
2, 357485, Note_on_c, 0, 74, 96
2, 357521, Note_on_c, 0, 74, 0
2, 357525, Note_on_c, 0, 86, 93
2, 357525, Note_on_c, 0, 81, 93
2, 357561, Note_on_c, 0, 81, 0
2, 357561, Note_on_c, 0, 86, 0
2, 357565, Note_on_c, 0, 74, 94
2, 357601, Note_on_c, 0, 74, 0
2, 357605, Note_on_c, 0, 81, 95
2, 357605, Note_on_c, 0, 86, 95
2, 357641, Note_on_c, 0, 86, 0
2, 357641, Note_on_c, 0, 81, 0
2, 357645, Note_on_c, 0, 74, 98
2, 357681, Note_on_c, 0, 74, 0
2, 357685, Note_on_c, 0, 86, 94
2, 357685, Note_on_c, 0, 81, 94
2, 357721, Note_on_c, 0, 81, 0
2, 357721, Note_on_c, 0, 86, 0
2, 357725, Note_on_c, 0, 74, 99
2, 357761, Note_on_c, 0, 74, 0
2, 357765, Note_on_c, 0, 81, 96
2, 357765, Note_on_c, 0, 86, 96
2, 357801, Note_on_c, 0, 86, 0
2, 357801, Note_on_c, 0, 81, 0
2, 357805, Note_on_c, 0, 74, 99
2, 357841, Note_on_c, 0, 74, 0
2, 357845, Note_on_c, 0, 81, 100
2, 357845, Note_on_c, 0, 86, 100
2, 357881, Note_on_c, 0, 86, 0
2, 357881, Note_on_c, 0, 81, 0
2, 357885, Note_on_c, 0, 74, 98
2, 357921, Note_on_c, 0, 74, 0
2, 357925, Note_on_c, 0, 81, 101
2, 357925, Note_on_c, 0, 86, 101
2, 357928, Control_c, 0, 64, 0
2, 357961, Note_on_c, 0, 86, 0
2, 357961, Note_on_c, 0, 81, 0
2, 357965, Note_on_c, 0, 74, 101
2, 358001, Note_on_c, 0, 74, 0
2, 358005, Note_on_c, 0, 86, 102
2, 358005, Note_on_c, 0, 81, 102
2, 358040, Note_on_c, 0, 74, 102
2, 358041, Note_on_c, 0, 81, 0
2, 358041, Note_on_c, 0, 86, 0
2, 358076, Note_on_c, 0, 74, 0
2, 358080, Note_on_c, 0, 83, 103
2, 358080, Note_on_c, 0, 86, 103
2, 358080, Note_on_c, 0, 77, 103
2, 358559, Note_on_c, 0, 77, 0
2, 358559, Note_on_c, 0, 86, 0
2, 358559, Note_on_c, 0, 83, 0
2, 358560, Note_on_c, 0, 89, 91
2, 358560, Note_on_c, 0, 86, 91
2, 358560, Note_on_c, 0, 83, 91
2, 358992, Note_on_c, 0, 83, 0
2, 358992, Note_on_c, 0, 86, 0
2, 358992, Note_on_c, 0, 89, 0
2, 359520, Note_on_c, 0, 92, 94
2, 359520, Note_on_c, 0, 86, 94
2, 359520, Note_on_c, 0, 89, 94
2, 359952, Note_on_c, 0, 89, 0
2, 359952, Note_on_c, 0, 86, 0
2, 359952, Note_on_c, 0, 92, 0
2, 360000, Control_c, 0, 64, 127
2, 360000, Note_on_c, 0, 86, 96
2, 360000, Note_on_c, 0, 89, 96
2, 360000, Note_on_c, 0, 93, 96
2, 360432, Note_on_c, 0, 93, 0
2, 360432, Note_on_c, 0, 89, 0
2, 360432, Note_on_c, 0, 86, 0
2, 360960, Control_c, 0, 64, 0
2, 399360, Note_on_c, 0, 83, 88
2, 399360, Control_c, 0, 64, 127
2, 399360, Note_on_c, 0, 80, 88
2, 399792, Note_on_c, 0, 80, 0
2, 399792, Note_on_c, 0, 83, 0
2, 399840, Note_on_c, 0, 76, 80
2, 399840, Note_on_c, 0, 85, 80
2, 400056, Note_on_c, 0, 85, 0
2, 400056, Note_on_c, 0, 76, 0
2, 400080, Note_on_c, 0, 86, 76
2, 400080, Note_on_c, 0, 83, 76
2, 400296, Note_on_c, 0, 83, 0
2, 400296, Note_on_c, 0, 86, 0
2, 400320, Note_on_c, 0, 88, 96
2, 400320, Note_on_c, 0, 79, 96
2, 400752, Note_on_c, 0, 79, 0
2, 400752, Note_on_c, 0, 88, 0
2, 400800, Note_on_c, 0, 90, 82
2, 400800, Note_on_c, 0, 81, 82
2, 401016, Note_on_c, 0, 81, 0
2, 401016, Note_on_c, 0, 90, 0
2, 401040, Note_on_c, 0, 88, 71
2, 401040, Note_on_c, 0, 79, 71
2, 401040, Note_on_c, 0, 91, 71
2, 401256, Note_on_c, 0, 91, 0
2, 401256, Note_on_c, 0, 79, 0
2, 401256, Note_on_c, 0, 88, 0
2, 401280, Note_on_c, 0, 93, 76
2, 401280, Note_on_c, 0, 90, 60
2, 401280, Note_on_c, 0, 81, 60
2, 401712, Note_on_c, 0, 81, 0
2, 401712, Note_on_c, 0, 90, 0
2, 401712, Note_on_c, 0, 93, 0
2, 402024, Control_c, 0, 64, 0
2, 408920, Control_c, 0, 11, 122
2, 408960, Control_c, 0, 64, 127
2, 408960, Note_on_c, 0, 86, 65
2, 408960, Note_on_c, 0, 74, 65
2, 408960, Note_on_c, 0, 78, 65
2, 409392, Note_on_c, 0, 78, 0
2, 409392, Note_on_c, 0, 74, 0
2, 409392, Note_on_c, 0, 86, 0
2, 409920, Note_on_c, 0, 57, 69
2, 409920, Control_c, 0, 64, 127
2, 409920, Control_c, 0, 64, 0
2, 410159, Note_on_c, 0, 57, 0
2, 410160, Note_on_c, 0, 61, 76
2, 410399, Note_on_c, 0, 61, 0
2, 410400, Note_on_c, 0, 62, 84
2, 410639, Note_on_c, 0, 62, 0
2, 410640, Note_on_c, 0, 66, 91
2, 410856, Note_on_c, 0, 66, 0
2, 410880, Note_on_c, 0, 74, 95
2, 411599, Note_on_c, 0, 74, 0
2, 411600, Note_on_c, 0, 74, 79
2, 411690, Control_c, 0, 64, 0
2, 411816, Note_on_c, 0, 74, 0
2, 411840, Note_on_c, 0, 79, 88
2, 411840, Control_c, 0, 64, 127
2, 412319, Note_on_c, 0, 79, 0
2, 412320, Note_on_c, 0, 78, 82
2, 412559, Note_on_c, 0, 78, 0
2, 412560, Note_on_c, 0, 76, 79
2, 412776, Note_on_c, 0, 76, 0
2, 412800, Note_on_c, 0, 81, 73
2, 413519, Note_on_c, 0, 81, 0
2, 413520, Note_on_c, 0, 81, 78
2, 413736, Note_on_c, 0, 81, 0
2, 413760, Note_on_c, 0, 83, 83
2, 413760, Note_on_c, 0, 74, 83
2, 413760, Note_on_c, 0, 81, 83
2, 414479, Note_on_c, 0, 81, 0
2, 414479, Note_on_c, 0, 74, 0
2, 414479, Note_on_c, 0, 83, 0
2, 414480, Note_on_c, 0, 83, 70
2, 414480, Note_on_c, 0, 81, 70
2, 414655, Control_c, 0, 64, 0
2, 414696, Note_on_c, 0, 81, 0
2, 414696, Note_on_c, 0, 83, 0
2, 414720, Note_on_c, 0, 83, 96
2, 414735, Control_c, 0, 64, 127
2, 415199, Note_on_c, 0, 83, 0
2, 415200, Note_on_c, 0, 85, 86
2, 415439, Note_on_c, 0, 85, 0
2, 415440, Note_on_c, 0, 86, 90
2, 415656, Note_on_c, 0, 86, 0
2, 415680, Note_on_c, 0, 88, 57
2, 415680, Note_on_c, 0, 85, 57
2, 416159, Note_on_c, 0, 85, 0
2, 416159, Note_on_c, 0, 88, 0
2, 416160, Note_on_c, 0, 86, 56
2, 416160, Note_on_c, 0, 90, 56
2, 416399, Note_on_c, 0, 90, 0
2, 416399, Note_on_c, 0, 86, 0
2, 416400, Note_on_c, 0, 79, 62
2, 416400, Note_on_c, 0, 85, 62
2, 416400, Note_on_c, 0, 88, 62
2, 416616, Note_on_c, 0, 88, 0
2, 416616, Note_on_c, 0, 85, 0
2, 416616, Note_on_c, 0, 79, 0
2, 416640, Note_on_c, 0, 90, 65
2, 416640, Note_on_c, 0, 81, 65
2, 416640, Note_on_c, 0, 93, 82
2, 416640, Note_on_c, 0, 86, 65
2, 417072, Note_on_c, 0, 86, 0
2, 417072, Note_on_c, 0, 90, 0
2, 417072, Note_on_c, 0, 81, 0
2, 417072, Note_on_c, 0, 93, 0
2, 417456, Control_c, 0, 64, 0
2, 424320, Note_on_c, 0, 78, 51
2, 424320, Note_on_c, 0, 86, 51
2, 424320, Control_c, 0, 64, 127
2, 424795, Note_on_c, 0, 86, 0
2, 424795, Note_on_c, 0, 78, 0
2, 425964, Control_c, 0, 64, 0
2, 426120, Note_on_c, 0, 74, 64
2, 426228, Note_on_c, 0, 74, 0
2, 426240, Note_on_c, 0, 73, 64
2, 426240, Control_c, 0, 64, 127
2, 426348, Note_on_c, 0, 73, 0
2, 426360, Note_on_c, 0, 74, 64
2, 426463, Control_c, 0, 64, 0
2, 426468, Note_on_c, 0, 74, 0
2, 426480, Note_on_c, 0, 76, 64
2, 426507, Note_on_c, 0, 76, 0
2, 426600, Note_on_c, 0, 78, 64
2, 426627, Note_on_c, 0, 78, 0
2, 426720, Note_on_c, 0, 79, 64
2, 426732, Control_c, 0, 64, 127
2, 426828, Note_on_c, 0, 79, 0
2, 426840, Note_on_c, 0, 76, 64
2, 426936, Control_c, 0, 64, 0
2, 426948, Note_on_c, 0, 76, 0
2, 426960, Note_on_c, 0, 74, 64
2, 426987, Note_on_c, 0, 74, 0
2, 427080, Note_on_c, 0, 73, 64
2, 427107, Note_on_c, 0, 73, 0
2, 427200, Note_on_c, 0, 74, 64
2, 427200, Control_c, 0, 64, 127
2, 427308, Note_on_c, 0, 74, 0
2, 427320, Note_on_c, 0, 76, 64
2, 427428, Note_on_c, 0, 76, 0
2, 427440, Note_on_c, 0, 78, 64
2, 427467, Note_on_c, 0, 78, 0
2, 427560, Note_on_c, 0, 79, 64
2, 427587, Note_on_c, 0, 79, 0
2, 427680, Note_on_c, 0, 81, 64
2, 427788, Note_on_c, 0, 81, 0
2, 427800, Note_on_c, 0, 78, 64
2, 427908, Note_on_c, 0, 78, 0
2, 427920, Note_on_c, 0, 76, 64
2, 427947, Note_on_c, 0, 76, 0
2, 428040, Note_on_c, 0, 74, 64
2, 428067, Note_on_c, 0, 74, 0
2, 428160, Control_c, 0, 64, 0
2, 428160, Note_on_c, 0, 81, 64
2, 428964, Note_on_c, 0, 81, 0
2, 429000, Note_on_c, 0, 81, 64
2, 429108, Note_on_c, 0, 81, 0
2, 429120, Note_on_c, 0, 81, 64
2, 429924, Note_on_c, 0, 81, 0
2, 429960, Note_on_c, 0, 81, 64
2, 429960, Note_on_c, 0, 74, 64
2, 430068, Note_on_c, 0, 74, 0
2, 430068, Note_on_c, 0, 81, 0
2, 430080, Note_on_c, 0, 73, 64
2, 430100, Control_c, 0, 64, 127
2, 430188, Note_on_c, 0, 73, 0
2, 430200, Note_on_c, 0, 76, 64
2, 430308, Note_on_c, 0, 76, 0
2, 430320, Note_on_c, 0, 78, 64
2, 430374, Note_on_c, 0, 78, 0
2, 430440, Note_on_c, 0, 79, 64
2, 430494, Note_on_c, 0, 79, 0
2, 430560, Note_on_c, 0, 83, 64
2, 430668, Note_on_c, 0, 83, 0
2, 430680, Note_on_c, 0, 79, 64
2, 430788, Note_on_c, 0, 79, 0
2, 430800, Note_on_c, 0, 78, 64
2, 430854, Note_on_c, 0, 78, 0
2, 430920, Note_on_c, 0, 76, 64
2, 430974, Note_on_c, 0, 76, 0
2, 431040, Control_c, 0, 64, 127
2, 431040, Note_on_c, 0, 74, 64
2, 431060, Control_c, 0, 64, 0
2, 431148, Note_on_c, 0, 74, 0
2, 431160, Note_on_c, 0, 76, 66
2, 431268, Note_on_c, 0, 76, 0
2, 431280, Note_on_c, 0, 78, 68
2, 431334, Note_on_c, 0, 78, 0
2, 431400, Note_on_c, 0, 81, 70
2, 431454, Note_on_c, 0, 81, 0
2, 431520, Note_on_c, 0, 86, 73
2, 431532, Control_c, 0, 64, 0
2, 431628, Note_on_c, 0, 86, 0
2, 431640, Note_on_c, 0, 81, 75
2, 431748, Note_on_c, 0, 81, 0
2, 431760, Note_on_c, 0, 79, 77
2, 431814, Note_on_c, 0, 79, 0
2, 431880, Note_on_c, 0, 78, 79
2, 431934, Note_on_c, 0, 78, 0
2, 432000, Note_on_c, 0, 76, 82
2, 432108, Note_on_c, 0, 76, 0
2, 432120, Note_on_c, 0, 74, 84
2, 432120, Note_on_c, 0, 78, 84
2, 432228, Note_on_c, 0, 78, 0
2, 432228, Note_on_c, 0, 74, 0
2, 432240, Note_on_c, 0, 76, 86
2, 432240, Note_on_c, 0, 80, 86
2, 432294, Note_on_c, 0, 80, 0
2, 432294, Note_on_c, 0, 76, 0
2, 432360, Note_on_c, 0, 78, 88
2, 432360, Note_on_c, 0, 81, 88
2, 432414, Note_on_c, 0, 81, 0
2, 432414, Note_on_c, 0, 78, 0
2, 432480, Note_on_c, 0, 80, 90
2, 432480, Note_on_c, 0, 83, 90
2, 432534, Note_on_c, 0, 83, 0
2, 432534, Note_on_c, 0, 80, 0
2, 432600, Note_on_c, 0, 81, 92
2, 432600, Note_on_c, 0, 85, 92
2, 432654, Note_on_c, 0, 85, 0
2, 432654, Note_on_c, 0, 81, 0
2, 432720, Note_on_c, 0, 86, 91
2, 432720, Note_on_c, 0, 83, 91
2, 432774, Note_on_c, 0, 83, 0
2, 432774, Note_on_c, 0, 86, 0
2, 432840, Note_on_c, 0, 83, 86
2, 432840, Note_on_c, 0, 86, 86
2, 432894, Note_on_c, 0, 86, 0
2, 432894, Note_on_c, 0, 83, 0
2, 432960, Control_c, 0, 64, 127
2, 432960, Note_on_c, 0, 86, 71
2, 433014, Note_on_c, 0, 86, 0
2, 433020, Note_on_c, 0, 88, 60
2, 433074, Note_on_c, 0, 88, 0
2, 433080, Note_on_c, 0, 86, 62
2, 433134, Note_on_c, 0, 86, 0
2, 433140, Note_on_c, 0, 88, 63
2, 433194, Note_on_c, 0, 88, 0
2, 433200, Note_on_c, 0, 86, 64
2, 433254, Note_on_c, 0, 86, 0
2, 433260, Note_on_c, 0, 88, 65
2, 433314, Note_on_c, 0, 88, 0
2, 433320, Note_on_c, 0, 86, 66
2, 433374, Note_on_c, 0, 86, 0
2, 433380, Note_on_c, 0, 88, 68
2, 433434, Note_on_c, 0, 88, 0
2, 433440, Note_on_c, 0, 86, 69
2, 433764, Note_on_c, 0, 86, 0
2, 433800, Note_on_c, 0, 78, 64
2, 433836, Note_on_c, 0, 78, 0
2, 433840, Note_on_c, 0, 80, 64
2, 433876, Note_on_c, 0, 80, 0
2, 433880, Note_on_c, 0, 78, 64
2, 433916, Note_on_c, 0, 78, 0
2, 433920, Note_on_c, 0, 83, 64
2, 433979, Note_on_c, 0, 83, 0
2, 433980, Note_on_c, 0, 85, 64
2, 434039, Note_on_c, 0, 85, 0
2, 434040, Note_on_c, 0, 83, 64
2, 434099, Note_on_c, 0, 83, 0
2, 434100, Note_on_c, 0, 85, 64
2, 434159, Note_on_c, 0, 85, 0
2, 434160, Note_on_c, 0, 83, 64
2, 434219, Note_on_c, 0, 83, 0
2, 434220, Note_on_c, 0, 85, 64
2, 434279, Note_on_c, 0, 85, 0
2, 434280, Note_on_c, 0, 76, 64
2, 434319, Note_on_c, 0, 76, 0
2, 434320, Note_on_c, 0, 78, 64
2, 434359, Note_on_c, 0, 78, 0
2, 434360, Note_on_c, 0, 76, 64
2, 434399, Note_on_c, 0, 76, 0
2, 434400, Note_on_c, 0, 81, 64
2, 434459, Note_on_c, 0, 81, 0
2, 434460, Note_on_c, 0, 83, 64
2, 434519, Note_on_c, 0, 83, 0
2, 434520, Note_on_c, 0, 81, 65
2, 434579, Note_on_c, 0, 81, 0
2, 434580, Note_on_c, 0, 83, 65
2, 434639, Note_on_c, 0, 83, 0
2, 434640, Note_on_c, 0, 81, 65
2, 434699, Note_on_c, 0, 81, 0
2, 434700, Note_on_c, 0, 83, 65
2, 434759, Note_on_c, 0, 83, 0
2, 434760, Note_on_c, 0, 74, 65
2, 434799, Note_on_c, 0, 74, 0
2, 434800, Note_on_c, 0, 76, 65
2, 434839, Note_on_c, 0, 76, 0
2, 434840, Note_on_c, 0, 74, 65
2, 434876, Note_on_c, 0, 74, 0
2, 434880, Note_on_c, 0, 80, 65
2, 434939, Note_on_c, 0, 80, 0
2, 434940, Note_on_c, 0, 81, 65
2, 434999, Note_on_c, 0, 81, 0
2, 435000, Note_on_c, 0, 80, 65
2, 435059, Note_on_c, 0, 80, 0
2, 435060, Note_on_c, 0, 81, 65
2, 435119, Note_on_c, 0, 81, 0
2, 435120, Note_on_c, 0, 80, 65
2, 435179, Note_on_c, 0, 80, 0
2, 435180, Note_on_c, 0, 81, 65
2, 435239, Note_on_c, 0, 81, 0
2, 435240, Note_on_c, 0, 73, 63
2, 435279, Note_on_c, 0, 73, 0
2, 435280, Note_on_c, 0, 74, 63
2, 435319, Note_on_c, 0, 74, 0
2, 435320, Note_on_c, 0, 73, 63
2, 435359, Note_on_c, 0, 73, 0
2, 435360, Note_on_c, 0, 78, 63
2, 435419, Note_on_c, 0, 78, 0
2, 435420, Note_on_c, 0, 80, 63
2, 435479, Note_on_c, 0, 80, 0
2, 435480, Note_on_c, 0, 78, 63
2, 435539, Note_on_c, 0, 78, 0
2, 435540, Note_on_c, 0, 80, 63
2, 435599, Note_on_c, 0, 80, 0
2, 435600, Note_on_c, 0, 78, 63
2, 435659, Note_on_c, 0, 78, 0
2, 435660, Note_on_c, 0, 80, 63
2, 435719, Note_on_c, 0, 80, 0
2, 435720, Note_on_c, 0, 71, 63
2, 435759, Note_on_c, 0, 71, 0
2, 435760, Note_on_c, 0, 73, 63
2, 435799, Note_on_c, 0, 73, 0
2, 435800, Note_on_c, 0, 71, 63
2, 435836, Note_on_c, 0, 71, 0
2, 435840, Note_on_c, 0, 76, 63
2, 435899, Note_on_c, 0, 76, 0
2, 435900, Note_on_c, 0, 78, 63
2, 435959, Note_on_c, 0, 78, 0
2, 435960, Note_on_c, 0, 76, 63
2, 436019, Note_on_c, 0, 76, 0
2, 436020, Note_on_c, 0, 78, 63
2, 436079, Note_on_c, 0, 78, 0
2, 436080, Note_on_c, 0, 76, 63
2, 436139, Note_on_c, 0, 76, 0
2, 436140, Note_on_c, 0, 78, 63
2, 436199, Note_on_c, 0, 78, 0
2, 436200, Note_on_c, 0, 69, 63
2, 436239, Note_on_c, 0, 69, 0
2, 436240, Note_on_c, 0, 71, 63
2, 436279, Note_on_c, 0, 71, 0
2, 436280, Note_on_c, 0, 69, 63
2, 436319, Note_on_c, 0, 69, 0
2, 436320, Note_on_c, 0, 75, 63
2, 436379, Note_on_c, 0, 75, 0
2, 436380, Note_on_c, 0, 76, 63
2, 436439, Note_on_c, 0, 76, 0
2, 436440, Note_on_c, 0, 75, 63
2, 436499, Note_on_c, 0, 75, 0
2, 436500, Note_on_c, 0, 76, 63
2, 436559, Note_on_c, 0, 76, 0
2, 436560, Note_on_c, 0, 75, 63
2, 436619, Note_on_c, 0, 75, 0
2, 436620, Note_on_c, 0, 76, 63
2, 436679, Note_on_c, 0, 76, 0
2, 436680, Note_on_c, 0, 68, 63
2, 436719, Note_on_c, 0, 68, 0
2, 436720, Note_on_c, 0, 69, 63
2, 436759, Note_on_c, 0, 69, 0
2, 436760, Note_on_c, 0, 68, 63
2, 436796, Note_on_c, 0, 68, 0
2, 436800, Note_on_c, 0, 74, 63
2, 436859, Note_on_c, 0, 74, 0
2, 436860, Note_on_c, 0, 76, 60
2, 436919, Note_on_c, 0, 76, 0
2, 436920, Note_on_c, 0, 74, 60
2, 436979, Note_on_c, 0, 74, 0
2, 436980, Note_on_c, 0, 76, 60
2, 437039, Note_on_c, 0, 76, 0
2, 437040, Note_on_c, 0, 74, 60
2, 437099, Note_on_c, 0, 74, 0
2, 437100, Note_on_c, 0, 76, 60
2, 437159, Note_on_c, 0, 76, 0
2, 437160, Note_on_c, 0, 64, 59
2, 437199, Note_on_c, 0, 64, 0
2, 437200, Note_on_c, 0, 66, 59
2, 437239, Note_on_c, 0, 66, 0
2, 437240, Note_on_c, 0, 64, 59
2, 437279, Note_on_c, 0, 64, 0
2, 437280, Note_on_c, 0, 71, 59
2, 437339, Note_on_c, 0, 71, 0
2, 437340, Note_on_c, 0, 73, 59
2, 437399, Note_on_c, 0, 73, 0
2, 437400, Note_on_c, 0, 71, 58
2, 437459, Note_on_c, 0, 71, 0
2, 437460, Note_on_c, 0, 73, 58
2, 437519, Note_on_c, 0, 73, 0
2, 437520, Note_on_c, 0, 71, 58
2, 437579, Note_on_c, 0, 71, 0
2, 437580, Note_on_c, 0, 73, 58
2, 437639, Note_on_c, 0, 73, 0
2, 437640, Note_on_c, 0, 64, 58
2, 437679, Note_on_c, 0, 64, 0
2, 437680, Note_on_c, 0, 66, 58
2, 437719, Note_on_c, 0, 66, 0
2, 437720, Note_on_c, 0, 64, 57
2, 437756, Note_on_c, 0, 64, 0
2, 437760, Note_on_c, 0, 74, 57
2, 437819, Note_on_c, 0, 74, 0
2, 437820, Note_on_c, 0, 76, 57
2, 437879, Note_on_c, 0, 76, 0
2, 437880, Note_on_c, 0, 74, 57
2, 437939, Note_on_c, 0, 74, 0
2, 437940, Note_on_c, 0, 76, 57
2, 437999, Note_on_c, 0, 76, 0
2, 438000, Note_on_c, 0, 74, 56
2, 438059, Note_on_c, 0, 74, 0
2, 438060, Note_on_c, 0, 76, 56
2, 438119, Note_on_c, 0, 76, 0
2, 438120, Note_on_c, 0, 64, 56
2, 438159, Note_on_c, 0, 64, 0
2, 438160, Note_on_c, 0, 66, 56
2, 438199, Note_on_c, 0, 66, 0
2, 438200, Note_on_c, 0, 64, 56
2, 438239, Note_on_c, 0, 64, 0
2, 438240, Note_on_c, 0, 71, 56
2, 438299, Note_on_c, 0, 71, 0
2, 438300, Note_on_c, 0, 73, 55
2, 438359, Note_on_c, 0, 73, 0
2, 438360, Note_on_c, 0, 71, 55
2, 438419, Note_on_c, 0, 71, 0
2, 438420, Note_on_c, 0, 73, 55
2, 438479, Note_on_c, 0, 73, 0
2, 438480, Note_on_c, 0, 71, 55
2, 438539, Note_on_c, 0, 71, 0
2, 438540, Note_on_c, 0, 73, 55
2, 438599, Note_on_c, 0, 73, 0
2, 438600, Note_on_c, 0, 64, 54
2, 438639, Note_on_c, 0, 64, 0
2, 438640, Note_on_c, 0, 66, 54
2, 438679, Note_on_c, 0, 66, 0
2, 438680, Note_on_c, 0, 64, 54
2, 438716, Note_on_c, 0, 64, 0
2, 438720, Note_on_c, 0, 71, 54
2, 438779, Note_on_c, 0, 71, 0
2, 438780, Note_on_c, 0, 73, 54
2, 438839, Note_on_c, 0, 73, 0
2, 438840, Note_on_c, 0, 71, 54
2, 438899, Note_on_c, 0, 71, 0
2, 438900, Note_on_c, 0, 73, 53
2, 438959, Note_on_c, 0, 73, 0
2, 438960, Note_on_c, 0, 71, 53
2, 439019, Note_on_c, 0, 71, 0
2, 439020, Note_on_c, 0, 73, 53
2, 439079, Note_on_c, 0, 73, 0
2, 439080, Note_on_c, 0, 64, 53
2, 439119, Note_on_c, 0, 64, 0
2, 439120, Note_on_c, 0, 66, 53
2, 439159, Note_on_c, 0, 66, 0
2, 439160, Note_on_c, 0, 64, 53
2, 439199, Note_on_c, 0, 64, 0
2, 439200, Note_on_c, 0, 69, 52
2, 439259, Note_on_c, 0, 69, 0
2, 439260, Note_on_c, 0, 71, 52
2, 439319, Note_on_c, 0, 71, 0
2, 439320, Note_on_c, 0, 69, 52
2, 439379, Note_on_c, 0, 69, 0
2, 439380, Note_on_c, 0, 71, 52
2, 439439, Note_on_c, 0, 71, 0
2, 439440, Note_on_c, 0, 69, 52
2, 439499, Note_on_c, 0, 69, 0
2, 439500, Note_on_c, 0, 71, 51
2, 439559, Note_on_c, 0, 71, 0
2, 439560, Note_on_c, 0, 64, 51
2, 439599, Note_on_c, 0, 64, 0
2, 439600, Note_on_c, 0, 66, 51
2, 439639, Note_on_c, 0, 66, 0
2, 439640, Note_on_c, 0, 64, 51
2, 439676, Note_on_c, 0, 64, 0
2, 439680, Note_on_c, 0, 71, 51
2, 439739, Note_on_c, 0, 71, 0
2, 439740, Note_on_c, 0, 73, 51
2, 439799, Note_on_c, 0, 73, 0
2, 439800, Note_on_c, 0, 71, 50
2, 439859, Note_on_c, 0, 71, 0
2, 439860, Note_on_c, 0, 73, 50
2, 439919, Note_on_c, 0, 73, 0
2, 439920, Note_on_c, 0, 71, 50
2, 439979, Note_on_c, 0, 71, 0
2, 439980, Note_on_c, 0, 73, 50
2, 440039, Note_on_c, 0, 73, 0
2, 440040, Note_on_c, 0, 64, 50
2, 440079, Note_on_c, 0, 64, 0
2, 440080, Note_on_c, 0, 66, 49
2, 440119, Note_on_c, 0, 66, 0
2, 440120, Note_on_c, 0, 64, 49
2, 440159, Note_on_c, 0, 64, 0
2, 440160, Note_on_c, 0, 69, 49
2, 440219, Note_on_c, 0, 69, 0
2, 440220, Note_on_c, 0, 71, 49
2, 440279, Note_on_c, 0, 71, 0
2, 440280, Note_on_c, 0, 69, 49
2, 440339, Note_on_c, 0, 69, 0
2, 440340, Note_on_c, 0, 71, 49
2, 440399, Note_on_c, 0, 71, 0
2, 440400, Note_on_c, 0, 69, 48
2, 440459, Note_on_c, 0, 69, 0
2, 440460, Note_on_c, 0, 71, 48
2, 440519, Note_on_c, 0, 71, 0
2, 440520, Note_on_c, 0, 64, 48
2, 440559, Note_on_c, 0, 64, 0
2, 440560, Note_on_c, 0, 66, 48
2, 440599, Note_on_c, 0, 66, 0
2, 440600, Note_on_c, 0, 64, 48
2, 440636, Note_on_c, 0, 64, 0
2, 440640, Note_on_c, 0, 67, 48
2, 440699, Note_on_c, 0, 67, 0
2, 440700, Note_on_c, 0, 69, 66
2, 440759, Note_on_c, 0, 69, 0
2, 440760, Note_on_c, 0, 67, 67
2, 440819, Note_on_c, 0, 67, 0
2, 440820, Note_on_c, 0, 66, 68
2, 440879, Note_on_c, 0, 66, 0
2, 440880, Note_on_c, 0, 67, 69
2, 440939, Note_on_c, 0, 67, 0
2, 440940, Note_on_c, 0, 69, 70
2, 440999, Note_on_c, 0, 69, 0
2, 441000, Note_on_c, 0, 71, 71
2, 441059, Note_on_c, 0, 71, 0
2, 441060, Note_on_c, 0, 73, 72
2, 441119, Note_on_c, 0, 73, 0
2, 441120, Note_on_c, 0, 74, 73
2, 441159, Note_on_c, 0, 74, 0
2, 441160, Note_on_c, 0, 76, 73
2, 441199, Note_on_c, 0, 76, 0
2, 441200, Note_on_c, 0, 78, 74
2, 441239, Note_on_c, 0, 78, 0
2, 441240, Note_on_c, 0, 79, 74
2, 441279, Note_on_c, 0, 79, 0
2, 441280, Note_on_c, 0, 78, 75
2, 441319, Note_on_c, 0, 78, 0
2, 441320, Note_on_c, 0, 76, 75
2, 441359, Note_on_c, 0, 76, 0
2, 441360, Note_on_c, 0, 74, 76
2, 441399, Note_on_c, 0, 74, 0
2, 441400, Note_on_c, 0, 73, 77
2, 441439, Note_on_c, 0, 73, 0
2, 441440, Note_on_c, 0, 71, 77
2, 441479, Note_on_c, 0, 71, 0
2, 441480, Note_on_c, 0, 69, 78
2, 441519, Note_on_c, 0, 69, 0
2, 441520, Note_on_c, 0, 67, 78
2, 441559, Note_on_c, 0, 67, 0
2, 441560, Note_on_c, 0, 71, 79
2, 441596, Note_on_c, 0, 71, 0
2, 441600, Note_on_c, 0, 73, 80
2, 441659, Note_on_c, 0, 73, 0
2, 441660, Note_on_c, 0, 74, 80
2, 441719, Note_on_c, 0, 74, 0
2, 441720, Note_on_c, 0, 76, 81
2, 441779, Note_on_c, 0, 76, 0
2, 441780, Note_on_c, 0, 78, 82
2, 441839, Note_on_c, 0, 78, 0
2, 441840, Note_on_c, 0, 79, 83
2, 441899, Note_on_c, 0, 79, 0
2, 441900, Note_on_c, 0, 81, 84
2, 441959, Note_on_c, 0, 81, 0
2, 441960, Note_on_c, 0, 83, 85
2, 442019, Note_on_c, 0, 83, 0
2, 442020, Note_on_c, 0, 85, 86
2, 442079, Note_on_c, 0, 85, 0
2, 442080, Note_on_c, 0, 86, 87
2, 442119, Note_on_c, 0, 86, 0
2, 442120, Note_on_c, 0, 88, 87
2, 442159, Note_on_c, 0, 88, 0
2, 442160, Note_on_c, 0, 86, 88
2, 442199, Note_on_c, 0, 86, 0
2, 442200, Note_on_c, 0, 85, 88
2, 442239, Note_on_c, 0, 85, 0
2, 442240, Note_on_c, 0, 83, 89
2, 442279, Note_on_c, 0, 83, 0
2, 442280, Note_on_c, 0, 81, 89
2, 442319, Note_on_c, 0, 81, 0
2, 442320, Note_on_c, 0, 79, 90
2, 442359, Note_on_c, 0, 79, 0
2, 442360, Note_on_c, 0, 78, 91
2, 442399, Note_on_c, 0, 78, 0
2, 442400, Note_on_c, 0, 76, 91
2, 442439, Note_on_c, 0, 76, 0
2, 442440, Note_on_c, 0, 78, 92
2, 442479, Note_on_c, 0, 78, 0
2, 442480, Note_on_c, 0, 79, 92
2, 442519, Note_on_c, 0, 79, 0
2, 442520, Note_on_c, 0, 83, 93
2, 442556, Note_on_c, 0, 83, 0
2, 442560, Note_on_c, 0, 85, 94
2, 442619, Note_on_c, 0, 85, 0
2, 442620, Note_on_c, 0, 86, 94
2, 442679, Note_on_c, 0, 86, 0
2, 442680, Note_on_c, 0, 76, 95
2, 442739, Note_on_c, 0, 76, 0
2, 442740, Note_on_c, 0, 78, 96
2, 442799, Note_on_c, 0, 78, 0
2, 442800, Note_on_c, 0, 79, 97
2, 442859, Note_on_c, 0, 79, 0
2, 442860, Note_on_c, 0, 81, 98
2, 442899, Note_on_c, 0, 81, 0
2, 442900, Note_on_c, 0, 83, 98
2, 442939, Note_on_c, 0, 83, 0
2, 442940, Note_on_c, 0, 85, 99
2, 442979, Note_on_c, 0, 85, 0
2, 442980, Note_on_c, 0, 86, 100
2, 443019, Note_on_c, 0, 86, 0
2, 443020, Note_on_c, 0, 88, 100
2, 443059, Note_on_c, 0, 88, 0
2, 443060, Note_on_c, 0, 90, 101
2, 443099, Note_on_c, 0, 90, 0
2, 443100, Note_on_c, 0, 91, 100
2, 443139, Note_on_c, 0, 91, 0
2, 443140, Note_on_c, 0, 90, 100
2, 443179, Note_on_c, 0, 90, 0
2, 443180, Note_on_c, 0, 88, 98
2, 443219, Note_on_c, 0, 88, 0
2, 443220, Note_on_c, 0, 86, 98
2, 443259, Note_on_c, 0, 86, 0
2, 443260, Note_on_c, 0, 85, 97
2, 443299, Note_on_c, 0, 85, 0
2, 443300, Note_on_c, 0, 83, 96
2, 443339, Note_on_c, 0, 83, 0
2, 443340, Note_on_c, 0, 81, 95
2, 443379, Note_on_c, 0, 81, 0
2, 443380, Note_on_c, 0, 79, 94
2, 443419, Note_on_c, 0, 79, 0
2, 443420, Note_on_c, 0, 78, 93
2, 443459, Note_on_c, 0, 78, 0
2, 443460, Note_on_c, 0, 76, 92
2, 443499, Note_on_c, 0, 76, 0
2, 443500, Note_on_c, 0, 74, 92
2, 443520, Note_on_c, 0, 85, 91
2, 443536, Note_on_c, 0, 74, 0
2, 443579, Note_on_c, 0, 85, 0
2, 443580, Note_on_c, 0, 83, 96
2, 443639, Note_on_c, 0, 83, 0
2, 443640, Note_on_c, 0, 81, 95
2, 443699, Note_on_c, 0, 81, 0
2, 443700, Note_on_c, 0, 79, 93
2, 443759, Note_on_c, 0, 79, 0
2, 443760, Note_on_c, 0, 78, 92
2, 443819, Note_on_c, 0, 78, 0
2, 443820, Note_on_c, 0, 76, 91
2, 443859, Note_on_c, 0, 76, 0
2, 443860, Note_on_c, 0, 74, 90
2, 443899, Note_on_c, 0, 74, 0
2, 443900, Note_on_c, 0, 73, 89
2, 443939, Note_on_c, 0, 73, 0
2, 443940, Note_on_c, 0, 71, 89
2, 443979, Note_on_c, 0, 71, 0
2, 443980, Note_on_c, 0, 69, 88
2, 444019, Note_on_c, 0, 69, 0
2, 444020, Note_on_c, 0, 67, 87
2, 444059, Note_on_c, 0, 67, 0
2, 444060, Note_on_c, 0, 66, 75
2, 444113, Control_c, 0, 64, 0
2, 444276, Note_on_c, 0, 66, 0
2, 452160, Control_c, 0, 64, 127
2, 452160, Note_on_c, 0, 93, 109
2, 452160, Note_on_c, 0, 81, 109
2, 452399, Note_on_c, 0, 81, 0
2, 452399, Note_on_c, 0, 93, 0
2, 452400, Note_on_c, 0, 91, 106
2, 452400, Note_on_c, 0, 79, 106
2, 452879, Note_on_c, 0, 79, 0
2, 452879, Note_on_c, 0, 91, 0
2, 452880, Note_on_c, 0, 91, 102
2, 452880, Note_on_c, 0, 79, 102
2, 453096, Note_on_c, 0, 79, 0
2, 453096, Note_on_c, 0, 91, 0
2, 453120, Note_on_c, 0, 91, 102
2, 453120, Note_on_c, 0, 79, 102
2, 453359, Note_on_c, 0, 79, 0
2, 453359, Note_on_c, 0, 91, 0
2, 453360, Note_on_c, 0, 90, 102
2, 453360, Note_on_c, 0, 78, 102
2, 453839, Note_on_c, 0, 78, 0
2, 453839, Note_on_c, 0, 90, 0
2, 453840, Note_on_c, 0, 78, 102
2, 453840, Note_on_c, 0, 90, 102
2, 454056, Note_on_c, 0, 90, 0
2, 454056, Note_on_c, 0, 78, 0
2, 454080, Note_on_c, 0, 90, 102
2, 454080, Note_on_c, 0, 78, 102
2, 454319, Note_on_c, 0, 78, 0
2, 454319, Note_on_c, 0, 90, 0
2, 454320, Note_on_c, 0, 88, 102
2, 454320, Note_on_c, 0, 76, 102
2, 454799, Note_on_c, 0, 76, 0
2, 454799, Note_on_c, 0, 88, 0
2, 454800, Note_on_c, 0, 76, 102
2, 454800, Note_on_c, 0, 88, 102
2, 455016, Note_on_c, 0, 88, 0
2, 455016, Note_on_c, 0, 76, 0
2, 455040, Note_on_c, 0, 78, 102
2, 455040, Note_on_c, 0, 90, 102
2, 455279, Note_on_c, 0, 90, 0
2, 455279, Note_on_c, 0, 78, 0
2, 455280, Note_on_c, 0, 88, 102
2, 455280, Note_on_c, 0, 76, 102
2, 455759, Note_on_c, 0, 76, 0
2, 455759, Note_on_c, 0, 88, 0
2, 455760, Note_on_c, 0, 88, 102
2, 455760, Note_on_c, 0, 76, 102
2, 455976, Note_on_c, 0, 76, 0
2, 455976, Note_on_c, 0, 88, 0
2, 456000, Note_on_c, 0, 88, 102
2, 456000, Note_on_c, 0, 76, 102
2, 456054, Note_on_c, 0, 76, 0
2, 456054, Note_on_c, 0, 88, 0
2, 456240, Note_on_c, 0, 81, 102
2, 456294, Note_on_c, 0, 81, 0
2, 456480, Note_on_c, 0, 74, 102
2, 456480, Note_on_c, 0, 86, 102
2, 456534, Note_on_c, 0, 86, 0
2, 456534, Note_on_c, 0, 74, 0
2, 456720, Note_on_c, 0, 81, 102
2, 456774, Note_on_c, 0, 81, 0
2, 456960, Note_on_c, 0, 86, 102
2, 456960, Note_on_c, 0, 74, 102
2, 457014, Note_on_c, 0, 74, 0
2, 457014, Note_on_c, 0, 86, 0
2, 457200, Note_on_c, 0, 79, 102
2, 457254, Note_on_c, 0, 79, 0
2, 457440, Note_on_c, 0, 85, 102
2, 457440, Note_on_c, 0, 73, 102
2, 457494, Note_on_c, 0, 73, 0
2, 457494, Note_on_c, 0, 85, 0
2, 457680, Note_on_c, 0, 76, 102
2, 457734, Note_on_c, 0, 76, 0
2, 457920, Note_on_c, 0, 71, 102
2, 457920, Note_on_c, 0, 83, 102
2, 457974, Note_on_c, 0, 83, 0
2, 457974, Note_on_c, 0, 71, 0
2, 458160, Note_on_c, 0, 74, 99
2, 458214, Note_on_c, 0, 74, 0
2, 458400, Note_on_c, 0, 83, 96
2, 458454, Note_on_c, 0, 83, 0
2, 458640, Note_on_c, 0, 74, 94
2, 458694, Note_on_c, 0, 74, 0
2, 459051, Control_c, 0, 64, 0
2, 480000, Control_c, 0, 64, 127
2, 480000, Note_on_c, 0, 76, 96
2, 480000, Note_on_c, 0, 73, 96
2, 480432, Note_on_c, 0, 73, 0
2, 480432, Note_on_c, 0, 76, 0
2, 480960, Note_on_c, 0, 85, 96
2, 480960, Note_on_c, 0, 88, 96
2, 481392, Note_on_c, 0, 88, 0
2, 481392, Note_on_c, 0, 85, 0
2, 481920, Note_on_c, 0, 76, 96
2, 481920, Note_on_c, 0, 79, 96
2, 482352, Note_on_c, 0, 79, 0
2, 482352, Note_on_c, 0, 76, 0
2, 482709, Control_c, 0, 64, 0
2, 482880, Note_on_c, 0, 88, 88
2, 482880, Control_c, 0, 64, 127
2, 482880, Note_on_c, 0, 91, 88
2, 483096, Note_on_c, 0, 91, 0
2, 483096, Note_on_c, 0, 88, 0
2, 483120, Note_on_c, 0, 85, 99
2, 483120, Note_on_c, 0, 91, 99
2, 483552, Note_on_c, 0, 91, 0
2, 483552, Note_on_c, 0, 85, 0
2, 483600, Note_on_c, 0, 86, 89
2, 483600, Note_on_c, 0, 90, 89
2, 484056, Note_on_c, 0, 90, 0
2, 484056, Note_on_c, 0, 86, 0
2, 484080, Note_on_c, 0, 81, 89
2, 484080, Note_on_c, 0, 88, 89
2, 484512, Note_on_c, 0, 88, 0
2, 484512, Note_on_c, 0, 81, 0
2, 484560, Note_on_c, 0, 81, 89
2, 484560, Note_on_c, 0, 86, 89
2, 484800, Control_c, 0, 64, 0
2, 485016, Note_on_c, 0, 86, 0
2, 485016, Note_on_c, 0, 81, 0
2, 485040, Note_on_c, 0, 85, 89
2, 485074, Control_c, 0, 64, 127
2, 485256, Note_on_c, 0, 85, 0
2, 485280, Note_on_c, 0, 80, 89
2, 485496, Note_on_c, 0, 80, 0
2, 485520, Note_on_c, 0, 83, 84
2, 485999, Note_on_c, 0, 83, 0
2, 486000, Note_on_c, 0, 85, 93
2, 486239, Note_on_c, 0, 85, 0
2, 486240, Note_on_c, 0, 80, 87
2, 486479, Note_on_c, 0, 80, 0
2, 486480, Note_on_c, 0, 83, 82
2, 486959, Note_on_c, 0, 83, 0
2, 486960, Note_on_c, 0, 85, 89
2, 487199, Note_on_c, 0, 85, 0
2, 487200, Note_on_c, 0, 80, 86
2, 487439, Note_on_c, 0, 80, 0
2, 487440, Note_on_c, 0, 83, 82
2, 487577, Control_c, 0, 64, 0
2, 487680, Control_c, 0, 64, 127
2, 487919, Note_on_c, 0, 83, 0
2, 487920, Note_on_c, 0, 81, 89
2, 488159, Note_on_c, 0, 81, 0
2, 488160, Note_on_c, 0, 76, 85
2, 488399, Note_on_c, 0, 76, 0
2, 488400, Note_on_c, 0, 79, 82
2, 488879, Note_on_c, 0, 79, 0
2, 488880, Note_on_c, 0, 78, 86
2, 489119, Note_on_c, 0, 78, 0
2, 489120, Note_on_c, 0, 73, 83
2, 489359, Note_on_c, 0, 73, 0
2, 489360, Note_on_c, 0, 76, 80
2, 489497, Control_c, 0, 64, 0
2, 489600, Control_c, 0, 64, 127
2, 489839, Note_on_c, 0, 76, 0
2, 489840, Note_on_c, 0, 74, 82
2, 490079, Note_on_c, 0, 74, 0
2, 490080, Note_on_c, 0, 65, 79
2, 490319, Note_on_c, 0, 65, 0
2, 490320, Note_on_c, 0, 74, 76
2, 490799, Note_on_c, 0, 74, 0
2, 490800, Note_on_c, 0, 74, 83
2, 491039, Note_on_c, 0, 74, 0
2, 491040, Note_on_c, 0, 65, 79
2, 491279, Note_on_c, 0, 65, 0
2, 491280, Note_on_c, 0, 74, 75
2, 491314, Control_c, 0, 64, 0
2, 491520, Control_c, 0, 64, 127
2, 491736, Note_on_c, 0, 74, 0
2, 491760, Note_on_c, 0, 74, 80
2, 491976, Note_on_c, 0, 74, 0
2, 492000, Note_on_c, 0, 66, 76
2, 492216, Note_on_c, 0, 66, 0
2, 492240, Note_on_c, 0, 74, 73
2, 492456, Note_on_c, 0, 74, 0
2, 492480, Control_c, 0, 64, 0
2, 492651, Control_c, 0, 64, 127
2, 492720, Note_on_c, 0, 76, 80
2, 492936, Note_on_c, 0, 76, 0
2, 492960, Note_on_c, 0, 69, 76
2, 493176, Note_on_c, 0, 69, 0
2, 493200, Note_on_c, 0, 76, 72
2, 493416, Note_on_c, 0, 76, 0
2, 493611, Control_c, 0, 64, 0
2, 493680, Note_on_c, 0, 76, 80
2, 493851, Control_c, 0, 64, 127
2, 493896, Note_on_c, 0, 76, 0
2, 493920, Note_on_c, 0, 69, 76
2, 494136, Note_on_c, 0, 69, 0
2, 494160, Note_on_c, 0, 76, 72
2, 494376, Note_on_c, 0, 76, 0
2, 494640, Note_on_c, 0, 76, 77
2, 494856, Note_on_c, 0, 76, 0
2, 494880, Note_on_c, 0, 69, 72
2, 495096, Note_on_c, 0, 69, 0
2, 495120, Note_on_c, 0, 76, 67
2, 495200, Control_c, 0, 64, 0
2, 495336, Note_on_c, 0, 76, 0
2, 495336, End_track
3, 0, Start_track
3, 0, Title_t, "Track 2"
3, 0, Program_c, 0, 0
3, 0, Control_c, 0, 7, 115
3, 0, Control_c, 0, 10, 95
3, 30720, Note_on_c, 0, 57, 96
3, 30926, Control_c, 0, 64, 127
3, 30936, Note_on_c, 0, 57, 0
3, 30960, Note_on_c, 0, 62, 90
3, 31392, Note_on_c, 0, 62, 0
3, 31440, Note_on_c, 0, 64, 90
3, 31494, Note_on_c, 0, 64, 0
3, 31500, Note_on_c, 0, 65, 90
3, 31554, Note_on_c, 0, 65, 0
3, 31560, Note_on_c, 0, 62, 90
3, 31614, Note_on_c, 0, 62, 0
3, 31620, Note_on_c, 0, 64, 90
3, 31674, Note_on_c, 0, 64, 0
3, 31680, Note_on_c, 0, 65, 90
3, 31896, Note_on_c, 0, 65, 0
3, 31920, Note_on_c, 0, 64, 90
3, 32136, Note_on_c, 0, 64, 0
3, 32160, Note_on_c, 0, 65, 90
3, 32484, Note_on_c, 0, 65, 0
3, 32490, Control_c, 0, 64, 0
3, 32520, Note_on_c, 0, 65, 90
3, 32628, Note_on_c, 0, 65, 0
3, 32640, Control_c, 0, 64, 127
3, 32640, Note_on_c, 0, 64, 90
3, 32748, Note_on_c, 0, 64, 0
3, 32760, Note_on_c, 0, 65, 90
3, 32868, Note_on_c, 0, 65, 0
3, 32880, Note_on_c, 0, 67, 90
3, 32934, Note_on_c, 0, 67, 0
3, 33000, Note_on_c, 0, 69, 90
3, 33054, Note_on_c, 0, 69, 0
3, 33120, Note_on_c, 0, 64, 90
3, 33228, Note_on_c, 0, 64, 0
3, 33390, Control_c, 0, 64, 0
3, 33480, Note_on_c, 0, 65, 90
3, 33534, Note_on_c, 0, 65, 0
3, 33600, Control_c, 0, 64, 127
3, 33600, Note_on_c, 0, 64, 90
3, 33708, Note_on_c, 0, 64, 0
3, 33720, Note_on_c, 0, 65, 90
3, 33828, Note_on_c, 0, 65, 0
3, 33840, Note_on_c, 0, 67, 90
3, 33894, Note_on_c, 0, 67, 0
3, 33960, Note_on_c, 0, 69, 90
3, 34014, Note_on_c, 0, 69, 0
3, 34080, Note_on_c, 0, 64, 90
3, 34296, Note_on_c, 0, 64, 0
3, 34425, Control_c, 0, 64, 0
3, 34560, Note_on_c, 0, 69, 90
3, 34560, Note_on_c, 0, 66, 90
3, 34668, Note_on_c, 0, 66, 0
3, 34668, Note_on_c, 0, 69, 0
3, 34800, Note_on_c, 0, 67, 90
3, 35232, Note_on_c, 0, 67, 0
3, 35280, Note_on_c, 0, 66, 90
3, 35280, Note_on_c, 0, 69, 90
3, 35496, Note_on_c, 0, 69, 0
3, 35496, Note_on_c, 0, 66, 0
3, 40320, Note_on_c, 0, 64, 57
3, 40679, Note_on_c, 0, 64, 0
3, 40680, Note_on_c, 0, 65, 50
3, 40799, Note_on_c, 0, 65, 0
3, 40800, Note_on_c, 0, 64, 56
3, 41159, Note_on_c, 0, 64, 0
3, 41160, Note_on_c, 0, 62, 48
3, 41268, Note_on_c, 0, 62, 0
3, 41280, Note_on_c, 0, 64, 53
3, 41639, Note_on_c, 0, 64, 0
3, 41640, Note_on_c, 0, 65, 48
3, 41759, Note_on_c, 0, 65, 0
3, 41760, Note_on_c, 0, 64, 53
3, 42119, Note_on_c, 0, 64, 0
3, 42120, Note_on_c, 0, 62, 46
3, 42228, Note_on_c, 0, 62, 0
3, 42240, Note_on_c, 0, 64, 50
3, 42599, Note_on_c, 0, 64, 0
3, 42600, Note_on_c, 0, 65, 44
3, 42719, Note_on_c, 0, 65, 0
3, 42720, Note_on_c, 0, 64, 50
3, 43079, Note_on_c, 0, 64, 0
3, 43080, Note_on_c, 0, 62, 44
3, 43188, Note_on_c, 0, 62, 0
3, 43200, Note_on_c, 0, 64, 49
3, 43559, Note_on_c, 0, 64, 0
3, 43560, Note_on_c, 0, 62, 42
3, 43679, Note_on_c, 0, 62, 0
3, 43680, Note_on_c, 0, 64, 49
3, 44039, Note_on_c, 0, 64, 0
3, 44040, Note_on_c, 0, 62, 40
3, 44148, Note_on_c, 0, 62, 0
3, 44160, Note_on_c, 0, 64, 61
3, 44184, Control_c, 0, 64, 127
3, 44484, Note_on_c, 0, 64, 0
3, 45144, Control_c, 0, 64, 0
3, 46512, Control_c, 0, 64, 127
3, 47520, Note_on_c, 0, 72, 64
3, 47520, Note_on_c, 0, 76, 64
3, 47952, Note_on_c, 0, 76, 0
3, 48000, Note_on_c, 0, 77, 64
3, 48216, Note_on_c, 0, 77, 0
3, 48216, Note_on_c, 0, 72, 0
3, 48888, Control_c, 0, 64, 0
3, 54240, Control_c, 0, 64, 127
3, 54240, Note_on_c, 0, 85, 75
3, 54672, Note_on_c, 0, 85, 0
3, 54720, Note_on_c, 0, 89, 82
3, 55199, Note_on_c, 0, 89, 0
3, 55200, Note_on_c, 0, 97, 90
3, 55200, Note_on_c, 0, 85, 90
3, 55632, Note_on_c, 0, 85, 0
3, 55632, Note_on_c, 0, 97, 0
3, 55680, Note_on_c, 0, 85, 92
3, 55680, Note_on_c, 0, 97, 92
3, 58079, Note_on_c, 0, 97, 0
3, 58079, Note_on_c, 0, 85, 0
3, 58080, Note_on_c, 0, 85, 84
3, 58512, Note_on_c, 0, 85, 0
3, 58560, Note_on_c, 0, 84, 81
3, 59039, Note_on_c, 0, 84, 0
3, 59040, Note_on_c, 0, 82, 79
3, 59472, Note_on_c, 0, 82, 0
3, 59580, Control_c, 0, 64, 127
3, 60540, Control_c, 0, 64, 0
3, 130560, Control_c, 0, 64, 127
3, 130560, Note_on_c, 0, 79, 72
3, 130799, Note_on_c, 0, 79, 0
3, 130800, Note_on_c, 0, 76, 71
3, 131039, Note_on_c, 0, 76, 0
3, 131040, Note_on_c, 0, 73, 70
3, 131279, Note_on_c, 0, 73, 0
3, 131280, Note_on_c, 0, 70, 68
3, 131496, Note_on_c, 0, 70, 0
3, 131520, Note_on_c, 0, 67, 67
3, 131759, Note_on_c, 0, 67, 0
3, 131760, Note_on_c, 0, 64, 66
3, 131999, Note_on_c, 0, 64, 0
3, 132000, Note_on_c, 0, 61, 65
3, 132239, Note_on_c, 0, 61, 0
3, 132240, Note_on_c, 0, 58, 64
3, 132456, Note_on_c, 0, 58, 0
3, 133335, Control_c, 0, 64, 0
3, 139440, Note_on_c, 0, 64, 95
3, 139656, Note_on_c, 0, 64, 0
3, 139665, Control_c, 0, 64, 127
3, 139680, Note_on_c, 0, 65, 95
3, 140004, Note_on_c, 0, 65, 0
3, 140040, Note_on_c, 0, 65, 95
3, 140148, Note_on_c, 0, 65, 0
3, 140160, Note_on_c, 0, 64, 95
3, 140256, Control_c, 0, 64, 0
3, 140268, Note_on_c, 0, 64, 0
3, 140280, Note_on_c, 0, 65, 95
3, 140388, Note_on_c, 0, 65, 0
3, 140400, Note_on_c, 0, 67, 95
3, 140508, Note_on_c, 0, 67, 0
3, 140520, Note_on_c, 0, 69, 95
3, 140628, Note_on_c, 0, 69, 0
3, 140640, Note_on_c, 0, 64, 95
3, 140856, Note_on_c, 0, 64, 0
3, 141000, Note_on_c, 0, 65, 95
3, 141108, Note_on_c, 0, 65, 0
3, 141120, Control_c, 0, 64, 127
3, 141120, Note_on_c, 0, 64, 95
3, 141228, Note_on_c, 0, 64, 0
3, 141240, Note_on_c, 0, 65, 95
3, 141348, Note_on_c, 0, 65, 0
3, 141360, Note_on_c, 0, 67, 95
3, 141468, Note_on_c, 0, 67, 0
3, 141480, Note_on_c, 0, 69, 95
3, 141588, Note_on_c, 0, 69, 0
3, 141600, Note_on_c, 0, 64, 95
3, 141816, Note_on_c, 0, 64, 0
3, 142080, Note_on_c, 0, 69, 95
3, 142080, Control_c, 0, 64, 0
3, 142080, Note_on_c, 0, 66, 95
3, 142296, Note_on_c, 0, 66, 0
3, 142296, Note_on_c, 0, 69, 0
3, 142320, Note_on_c, 0, 67, 95
3, 142752, Note_on_c, 0, 67, 0
3, 142764, Control_c, 0, 64, 127
3, 142800, Note_on_c, 0, 74, 95
3, 142800, Note_on_c, 0, 69, 95
3, 143016, Note_on_c, 0, 69, 0
3, 143040, Note_on_c, 0, 70, 95
3, 143256, Note_on_c, 0, 70, 0
3, 143256, Note_on_c, 0, 74, 0
3, 143280, Note_on_c, 0, 74, 95
3, 143280, Note_on_c, 0, 69, 95
3, 143496, Note_on_c, 0, 69, 0
3, 143496, Note_on_c, 0, 74, 0
3, 143520, Note_on_c, 0, 79, 95
3, 143520, Note_on_c, 0, 70, 95
3, 143724, Control_c, 0, 64, 0
3, 143952, Note_on_c, 0, 70, 0
3, 143952, Note_on_c, 0, 79, 0
3, 144000, Note_on_c, 0, 82, 95
3, 144000, Note_on_c, 0, 79, 95
3, 144108, Note_on_c, 0, 79, 0
3, 144108, Note_on_c, 0, 82, 0
3, 144240, Note_on_c, 0, 81, 95
3, 144240, Note_on_c, 0, 77, 95
3, 144348, Note_on_c, 0, 77, 0
3, 144348, Note_on_c, 0, 81, 0
3, 144480, Note_on_c, 0, 79, 95
3, 144480, Note_on_c, 0, 76, 95
3, 144588, Note_on_c, 0, 76, 0
3, 144588, Note_on_c, 0, 79, 0
3, 144720, Note_on_c, 0, 77, 95
3, 144720, Note_on_c, 0, 74, 95
3, 144828, Note_on_c, 0, 74, 0
3, 144828, Note_on_c, 0, 77, 0
3, 144960, Control_c, 0, 64, 127
3, 144960, Note_on_c, 0, 76, 95
3, 144960, Note_on_c, 0, 73, 95
3, 145176, Note_on_c, 0, 73, 0
3, 145176, Note_on_c, 0, 76, 0
3, 145200, Note_on_c, 0, 77, 95
3, 145200, Note_on_c, 0, 74, 95
3, 145416, Note_on_c, 0, 74, 0
3, 145416, Note_on_c, 0, 77, 0
3, 145440, Note_on_c, 0, 76, 95
3, 145440, Note_on_c, 0, 73, 95
3, 145656, Note_on_c, 0, 73, 0
3, 145656, Note_on_c, 0, 76, 0
3, 145733, Control_c, 0, 64, 0
3, 146160, Note_on_c, 0, 77, 95
3, 146268, Note_on_c, 0, 77, 0
3, 146400, Note_on_c, 0, 76, 95
3, 146508, Note_on_c, 0, 76, 0
3, 146640, Note_on_c, 0, 74, 95
3, 146748, Note_on_c, 0, 74, 0
3, 146880, Note_on_c, 0, 73, 95
3, 147096, Note_on_c, 0, 73, 0
3, 147120, Note_on_c, 0, 69, 95
3, 147552, Note_on_c, 0, 69, 0
3, 160320, Note_on_c, 0, 57, 87
3, 160505, Control_c, 0, 64, 127
3, 160536, Note_on_c, 0, 57, 0
3, 160560, Note_on_c, 0, 62, 86
3, 160992, Note_on_c, 0, 62, 0
3, 161040, Note_on_c, 0, 61, 76
3, 161094, Note_on_c, 0, 61, 0
3, 161100, Note_on_c, 0, 62, 78
3, 161154, Note_on_c, 0, 62, 0
3, 161160, Note_on_c, 0, 60, 80
3, 161214, Note_on_c, 0, 60, 0
3, 161220, Note_on_c, 0, 61, 65
3, 161274, Note_on_c, 0, 61, 0
3, 161280, Note_on_c, 0, 62, 84
3, 161308, Control_c, 0, 64, 0
3, 161496, Note_on_c, 0, 62, 0
3, 161520, Note_on_c, 0, 64, 77
3, 161736, Note_on_c, 0, 64, 0
3, 161760, Note_on_c, 0, 65, 77
3, 162084, Note_on_c, 0, 65, 0
3, 162120, Note_on_c, 0, 65, 77
3, 162228, Note_on_c, 0, 65, 0
3, 162240, Control_c, 0, 64, 127
3, 162240, Note_on_c, 0, 64, 74
3, 162348, Note_on_c, 0, 64, 0
3, 162360, Note_on_c, 0, 65, 76
3, 162468, Note_on_c, 0, 65, 0
3, 162480, Note_on_c, 0, 67, 79
3, 162492, Control_c, 0, 64, 0
3, 162588, Note_on_c, 0, 67, 0
3, 162600, Note_on_c, 0, 69, 81
3, 162708, Note_on_c, 0, 69, 0
3, 162720, Note_on_c, 0, 64, 76
3, 162936, Note_on_c, 0, 64, 0
3, 163080, Note_on_c, 0, 65, 72
3, 163188, Note_on_c, 0, 65, 0
3, 163200, Note_on_c, 0, 64, 74
3, 163308, Note_on_c, 0, 64, 0
3, 163320, Note_on_c, 0, 65, 76
3, 163428, Note_on_c, 0, 65, 0
3, 163440, Note_on_c, 0, 67, 77
3, 163548, Note_on_c, 0, 67, 0
3, 163560, Note_on_c, 0, 69, 79
3, 163668, Note_on_c, 0, 69, 0
3, 163680, Note_on_c, 0, 64, 77
3, 163896, Note_on_c, 0, 64, 0
3, 164040, Note_on_c, 0, 67, 67
3, 164148, Note_on_c, 0, 67, 0
3, 164160, Note_on_c, 0, 66, 85
3, 164178, Control_c, 0, 64, 127
3, 164376, Note_on_c, 0, 66, 0
3, 164400, Note_on_c, 0, 67, 88
3, 164832, Note_on_c, 0, 67, 0
3, 164880, Note_on_c, 0, 66, 93
3, 164880, Note_on_c, 0, 69, 93
3, 165096, Note_on_c, 0, 69, 0
3, 165096, Note_on_c, 0, 66, 0
3, 165120, Note_on_c, 0, 67, 96
3, 165120, Note_on_c, 0, 70, 96
3, 165138, Control_c, 0, 64, 0
3, 165336, Note_on_c, 0, 70, 0
3, 165336, Note_on_c, 0, 67, 0
3, 165360, Note_on_c, 0, 69, 99
3, 165360, Note_on_c, 0, 74, 99
3, 165576, Note_on_c, 0, 74, 0
3, 165576, Note_on_c, 0, 69, 0
3, 165600, Note_on_c, 0, 79, 101
3, 165600, Note_on_c, 0, 70, 101
3, 166032, Note_on_c, 0, 70, 0
3, 166032, Note_on_c, 0, 79, 0
3, 166080, Note_on_c, 0, 82, 91
3, 166080, Note_on_c, 0, 79, 91
3, 166296, Note_on_c, 0, 79, 0
3, 166296, Note_on_c, 0, 82, 0
3, 166320, Note_on_c, 0, 77, 84
3, 166320, Note_on_c, 0, 81, 84
3, 166536, Note_on_c, 0, 81, 0
3, 166536, Note_on_c, 0, 77, 0
3, 166560, Note_on_c, 0, 79, 84
3, 166560, Note_on_c, 0, 76, 84
3, 166776, Note_on_c, 0, 76, 0
3, 166776, Note_on_c, 0, 79, 0
3, 166800, Note_on_c, 0, 74, 84
3, 166800, Note_on_c, 0, 77, 84
3, 167016, Note_on_c, 0, 77, 0
3, 167016, Note_on_c, 0, 74, 0
3, 167040, Note_on_c, 0, 76, 84
3, 167040, Note_on_c, 0, 70, 84
3, 167256, Note_on_c, 0, 70, 0
3, 167256, Note_on_c, 0, 76, 0
3, 167280, Note_on_c, 0, 73, 86
3, 167280, Note_on_c, 0, 69, 86
3, 167334, Note_on_c, 0, 69, 0
3, 167334, Note_on_c, 0, 73, 0
3, 167340, Note_on_c, 0, 74, 84
3, 167394, Note_on_c, 0, 74, 0
3, 167400, Note_on_c, 0, 71, 81
3, 167454, Note_on_c, 0, 71, 0
3, 167460, Note_on_c, 0, 73, 79
3, 167514, Note_on_c, 0, 73, 0
3, 167520, Note_on_c, 0, 69, 90
3, 167520, Note_on_c, 0, 74, 90
3, 167736, Note_on_c, 0, 74, 0
3, 167736, Note_on_c, 0, 69, 0
3, 167760, Note_on_c, 0, 73, 81
3, 167814, Note_on_c, 0, 73, 0
3, 167820, Note_on_c, 0, 74, 80
3, 167874, Note_on_c, 0, 74, 0
3, 167880, Note_on_c, 0, 76, 78
3, 167934, Note_on_c, 0, 76, 0
3, 167940, Note_on_c, 0, 77, 77
3, 167994, Note_on_c, 0, 77, 0
3, 168000, Note_on_c, 0, 79, 89
3, 168216, Note_on_c, 0, 79, 0
3, 168240, Note_on_c, 0, 81, 84
3, 168240, Note_on_c, 0, 77, 84
3, 168456, Note_on_c, 0, 77, 0
3, 168456, Note_on_c, 0, 81, 0
3, 168480, Note_on_c, 0, 79, 84
3, 168480, Note_on_c, 0, 76, 84
3, 168696, Note_on_c, 0, 76, 0
3, 168696, Note_on_c, 0, 79, 0
3, 168720, Note_on_c, 0, 74, 84
3, 168720, Note_on_c, 0, 77, 84
3, 168936, Note_on_c, 0, 77, 0
3, 168936, Note_on_c, 0, 74, 0
3, 168960, Note_on_c, 0, 76, 100
3, 168960, Note_on_c, 0, 70, 100
3, 169176, Note_on_c, 0, 70, 0
3, 169176, Note_on_c, 0, 76, 0
3, 169200, Note_on_c, 0, 73, 96
3, 169200, Note_on_c, 0, 69, 96
3, 169236, Note_on_c, 0, 69, 0
3, 169236, Note_on_c, 0, 73, 0
3, 169240, Note_on_c, 0, 74, 94
3, 169276, Note_on_c, 0, 74, 0
3, 169280, Note_on_c, 0, 73, 92
3, 169316, Note_on_c, 0, 73, 0
3, 169320, Note_on_c, 0, 72, 90
3, 169356, Note_on_c, 0, 72, 0
3, 169360, Note_on_c, 0, 73, 88
3, 169396, Note_on_c, 0, 73, 0
3, 169400, Note_on_c, 0, 74, 86
3, 169400, Note_on_c, 0, 69, 86
3, 169616, Note_on_c, 0, 69, 0
3, 169616, Note_on_c, 0, 74, 0
3, 169640, Note_on_c, 0, 72, 97
3, 169694, Note_on_c, 0, 72, 0
3, 169700, Note_on_c, 0, 74, 95
3, 169754, Note_on_c, 0, 74, 0
3, 169760, Note_on_c, 0, 76, 93
3, 169814, Note_on_c, 0, 76, 0
3, 169820, Note_on_c, 0, 78, 91
3, 169874, Note_on_c, 0, 78, 0
3, 169880, Note_on_c, 0, 78, 90
3, 169920, Note_on_c, 0, 78, 0
3, 169920, Note_on_c, 0, 70, 97
3, 169920, Note_on_c, 0, 79, 97
3, 169920, Note_on_c, 0, 74, 97
3, 170136, Note_on_c, 0, 74, 0
3, 170136, Note_on_c, 0, 79, 0
3, 170136, Note_on_c, 0, 70, 0
3, 170160, Note_on_c, 0, 82, 74
3, 170160, Note_on_c, 0, 79, 74
3, 170376, Note_on_c, 0, 79, 0
3, 170376, Note_on_c, 0, 82, 0
3, 170400, Note_on_c, 0, 74, 72
3, 170400, Note_on_c, 0, 70, 72
3, 170400, Note_on_c, 0, 79, 72
3, 170616, Note_on_c, 0, 79, 0
3, 170616, Note_on_c, 0, 70, 0
3, 170616, Note_on_c, 0, 74, 0
3, 170640, Note_on_c, 0, 70, 70
3, 170640, Note_on_c, 0, 67, 70
3, 170640, Note_on_c, 0, 74, 70
3, 170856, Note_on_c, 0, 74, 0
3, 170856, Note_on_c, 0, 67, 0
3, 170856, Note_on_c, 0, 70, 0
3, 170880, Note_on_c, 0, 70, 68
3, 170880, Note_on_c, 0, 67, 68
3, 171096, Note_on_c, 0, 67, 0
3, 171096, Note_on_c, 0, 70, 0
3, 171120, Note_on_c, 0, 62, 66
3, 171120, Note_on_c, 0, 67, 66
3, 171120, Note_on_c, 0, 70, 66
3, 171336, Note_on_c, 0, 70, 0
3, 171336, Note_on_c, 0, 67, 0
3, 171336, Note_on_c, 0, 62, 0
3, 171360, Note_on_c, 0, 62, 64
3, 171360, Note_on_c, 0, 64, 64
3, 171360, Note_on_c, 0, 69, 64
3, 171576, Note_on_c, 0, 69, 0
3, 171576, Note_on_c, 0, 64, 0
3, 171576, Note_on_c, 0, 62, 0
3, 171600, Note_on_c, 0, 61, 63
3, 171600, Note_on_c, 0, 64, 63
3, 171600, Note_on_c, 0, 69, 63
3, 171816, Note_on_c, 0, 69, 0
3, 171816, Note_on_c, 0, 64, 0
3, 171816, Note_on_c, 0, 61, 0
3, 171840, Note_on_c, 0, 62, 76
3, 171840, Note_on_c, 0, 65, 76
3, 171840, Note_on_c, 0, 69, 76
3, 172056, Note_on_c, 0, 69, 0
3, 172056, Note_on_c, 0, 65, 0
3, 172056, Note_on_c, 0, 62, 0
3, 172320, Note_on_c, 0, 62, 62
3, 172536, Note_on_c, 0, 62, 0
3, 209280, Note_on_c, 0, 85, 51
3, 209759, Note_on_c, 0, 85, 0
3, 209760, Note_on_c, 0, 82, 51
3, 210192, Note_on_c, 0, 82, 0
3, 210240, Control_c, 0, 64, 127
3, 210240, Note_on_c, 0, 78, 51
3, 210719, Note_on_c, 0, 78, 0
3, 210720, Note_on_c, 0, 76, 51
3, 211152, Note_on_c, 0, 76, 0
3, 211200, Note_on_c, 0, 73, 51
3, 211679, Note_on_c, 0, 73, 0
3, 211680, Note_on_c, 0, 70, 51
3, 212112, Note_on_c, 0, 70, 0
3, 212160, Note_on_c, 0, 64, 51
3, 212639, Note_on_c, 0, 64, 0
3, 212640, Note_on_c, 0, 61, 51
3, 213072, Note_on_c, 0, 61, 0
3, 213120, Note_on_c, 0, 58, 51
3, 213552, Note_on_c, 0, 58, 0
3, 213880, Control_c, 0, 64, 0
3, 217200, Note_on_c, 0, 64, 52
3, 217319, Note_on_c, 0, 64, 0
3, 217320, Note_on_c, 0, 65, 54
3, 217439, Note_on_c, 0, 65, 0
3, 217440, Note_on_c, 0, 69, 54
3, 217559, Note_on_c, 0, 69, 0
3, 217560, Note_on_c, 0, 70, 56
3, 217679, Note_on_c, 0, 70, 0
3, 217680, Note_on_c, 0, 73, 57
3, 217799, Note_on_c, 0, 73, 0
3, 217800, Note_on_c, 0, 74, 58
3, 217908, Note_on_c, 0, 74, 0
3, 217920, Control_c, 0, 64, 127
3, 217920, Note_on_c, 0, 79, 59
3, 218039, Note_on_c, 0, 79, 0
3, 218040, Note_on_c, 0, 77, 60
3, 218159, Note_on_c, 0, 77, 0
3, 218160, Note_on_c, 0, 76, 62
3, 218279, Note_on_c, 0, 76, 0
3, 218280, Note_on_c, 0, 77, 63
3, 218399, Note_on_c, 0, 77, 0
3, 218400, Note_on_c, 0, 72, 64
3, 218639, Note_on_c, 0, 72, 0
3, 218640, Note_on_c, 0, 77, 67
3, 218759, Note_on_c, 0, 77, 0
3, 218760, Note_on_c, 0, 72, 68
3, 218868, Note_on_c, 0, 72, 0
3, 218880, Control_c, 0, 64, 0
3, 218880, Note_on_c, 0, 77, 69
3, 218999, Note_on_c, 0, 77, 0
3, 219000, Note_on_c, 0, 75, 71
3, 219119, Note_on_c, 0, 75, 0
3, 219120, Note_on_c, 0, 74, 72
3, 219239, Note_on_c, 0, 74, 0
3, 219240, Note_on_c, 0, 75, 73
3, 219359, Note_on_c, 0, 75, 0
3, 219360, Note_on_c, 0, 70, 74
3, 219599, Note_on_c, 0, 70, 0
3, 219600, Note_on_c, 0, 75, 78
3, 219719, Note_on_c, 0, 75, 0
3, 219720, Note_on_c, 0, 70, 79
3, 219828, Note_on_c, 0, 70, 0
3, 219840, Note_on_c, 0, 75, 57
3, 219840, Control_c, 0, 64, 127
3, 219959, Note_on_c, 0, 75, 0
3, 219960, Note_on_c, 0, 74, 57
3, 220079, Note_on_c, 0, 74, 0
3, 220080, Note_on_c, 0, 73, 57
3, 220199, Note_on_c, 0, 73, 0
3, 220200, Note_on_c, 0, 74, 58
3, 220319, Note_on_c, 0, 74, 0
3, 220320, Note_on_c, 0, 72, 58
3, 220679, Note_on_c, 0, 72, 0
3, 220680, Note_on_c, 0, 72, 58
3, 220788, Note_on_c, 0, 72, 0
3, 220800, Control_c, 0, 64, 0
3, 220800, Note_on_c, 0, 69, 59
3, 220919, Note_on_c, 0, 69, 0
3, 220920, Note_on_c, 0, 70, 59
3, 221039, Note_on_c, 0, 70, 0
3, 221040, Note_on_c, 0, 76, 61
3, 221159, Note_on_c, 0, 76, 0
3, 221160, Note_on_c, 0, 77, 61
3, 221279, Note_on_c, 0, 77, 0
3, 221280, Note_on_c, 0, 69, 63
3, 221399, Note_on_c, 0, 69, 0
3, 221400, Note_on_c, 0, 70, 63
3, 221519, Note_on_c, 0, 70, 0
3, 221520, Note_on_c, 0, 76, 64
3, 221639, Note_on_c, 0, 76, 0
3, 221640, Note_on_c, 0, 77, 66
3, 221748, Note_on_c, 0, 77, 0
3, 221760, Control_c, 0, 64, 127
3, 221760, Note_on_c, 0, 82, 67
3, 221879, Note_on_c, 0, 82, 0
3, 221880, Note_on_c, 0, 80, 68
3, 221999, Note_on_c, 0, 80, 0
3, 222000, Note_on_c, 0, 79, 68
3, 222119, Note_on_c, 0, 79, 0
3, 222120, Note_on_c, 0, 80, 69
3, 222239, Note_on_c, 0, 80, 0
3, 222240, Note_on_c, 0, 79, 71
3, 222359, Note_on_c, 0, 79, 0
3, 222360, Note_on_c, 0, 77, 72
3, 222479, Note_on_c, 0, 77, 0
3, 222480, Note_on_c, 0, 76, 74
3, 222599, Note_on_c, 0, 76, 0
3, 222600, Note_on_c, 0, 77, 75
3, 222708, Note_on_c, 0, 77, 0
3, 222720, Control_c, 0, 64, 0
3, 222720, Note_on_c, 0, 77, 76
3, 222828, Note_on_c, 0, 77, 0
3, 222840, Note_on_c, 0, 75, 77
3, 222948, Note_on_c, 0, 75, 0
3, 222960, Note_on_c, 0, 74, 78
3, 223068, Note_on_c, 0, 74, 0
3, 223080, Note_on_c, 0, 75, 79
3, 223188, Note_on_c, 0, 75, 0
3, 223200, Note_on_c, 0, 74, 80
3, 223308, Note_on_c, 0, 74, 0
3, 223320, Note_on_c, 0, 72, 81
3, 223428, Note_on_c, 0, 72, 0
3, 223440, Note_on_c, 0, 71, 81
3, 223548, Note_on_c, 0, 71, 0
3, 223560, Note_on_c, 0, 72, 82
3, 223668, Note_on_c, 0, 72, 0
3, 223680, Note_on_c, 0, 75, 83
3, 223680, Control_c, 0, 64, 127
3, 223788, Note_on_c, 0, 75, 0
3, 223800, Note_on_c, 0, 72, 84
3, 223908, Note_on_c, 0, 72, 0
3, 223920, Note_on_c, 0, 69, 85
3, 224028, Note_on_c, 0, 69, 0
3, 224040, Note_on_c, 0, 67, 85
3, 224148, Note_on_c, 0, 67, 0
3, 224160, Note_on_c, 0, 65, 87
3, 224364, Control_c, 0, 64, 0
3, 224376, Note_on_c, 0, 65, 0
3, 224400, Note_on_c, 0, 63, 88
3, 224616, Note_on_c, 0, 63, 0
3, 228480, Note_on_c, 0, 61, 71
3, 228588, Note_on_c, 0, 61, 0
3, 228720, Note_on_c, 0, 65, 64
3, 228828, Note_on_c, 0, 65, 0
3, 228960, Note_on_c, 0, 70, 64
3, 229068, Note_on_c, 0, 70, 0
3, 229200, Note_on_c, 0, 73, 64
3, 229308, Note_on_c, 0, 73, 0
3, 229440, Note_on_c, 0, 77, 64
3, 229548, Note_on_c, 0, 77, 0
3, 229680, Note_on_c, 0, 70, 64
3, 229788, Note_on_c, 0, 70, 0
3, 229920, Note_on_c, 0, 69, 64
3, 230028, Note_on_c, 0, 69, 0
3, 230160, Note_on_c, 0, 75, 64
3, 230268, Note_on_c, 0, 75, 0
3, 230400, Note_on_c, 0, 73, 64
3, 230508, Note_on_c, 0, 73, 0
3, 231000, Note_on_c, 0, 73, 64
3, 231054, Note_on_c, 0, 73, 0
3, 231120, Note_on_c, 0, 72, 64
3, 231174, Note_on_c, 0, 72, 0
3, 231240, Note_on_c, 0, 68, 64
3, 231294, Note_on_c, 0, 68, 0
3, 231360, Note_on_c, 0, 67, 64
3, 231414, Note_on_c, 0, 67, 0
3, 231480, Note_on_c, 0, 70, 64
3, 231534, Note_on_c, 0, 70, 0
3, 231600, Note_on_c, 0, 68, 64
3, 231654, Note_on_c, 0, 68, 0
3, 231720, Note_on_c, 0, 65, 64
3, 231774, Note_on_c, 0, 65, 0
3, 231840, Note_on_c, 0, 64, 64
3, 231894, Note_on_c, 0, 64, 0
3, 231960, Note_on_c, 0, 67, 64
3, 232014, Note_on_c, 0, 67, 0
3, 232080, Note_on_c, 0, 65, 64
3, 232134, Note_on_c, 0, 65, 0
3, 232200, Note_on_c, 0, 61, 64
3, 232254, Note_on_c, 0, 61, 0
3, 232320, Note_on_c, 0, 60, 64
3, 232428, Note_on_c, 0, 60, 0
3, 233040, Note_on_c, 0, 72, 68
3, 233148, Note_on_c, 0, 72, 0
3, 233280, Note_on_c, 0, 68, 68
3, 233496, Note_on_c, 0, 68, 0
3, 233760, Note_on_c, 0, 67, 68
3, 233868, Note_on_c, 0, 67, 0
3, 234000, Note_on_c, 0, 72, 68
3, 234108, Note_on_c, 0, 72, 0
3, 234240, Note_on_c, 0, 66, 68
3, 234240, Control_c, 0, 64, 127
3, 234440, Control_c, 0, 64, 0
3, 234456, Note_on_c, 0, 66, 0
3, 234720, Note_on_c, 0, 65, 68
3, 234828, Note_on_c, 0, 65, 0
3, 234960, Note_on_c, 0, 70, 68
3, 235254, Note_on_c, 0, 70, 0
3, 235320, Note_on_c, 0, 68, 68
3, 235428, Note_on_c, 0, 68, 0
3, 235560, Note_on_c, 0, 66, 68
3, 235668, Note_on_c, 0, 66, 0
3, 235800, Note_on_c, 0, 65, 68
3, 235908, Note_on_c, 0, 65, 0
3, 236040, Note_on_c, 0, 64, 68
3, 236376, Note_on_c, 0, 64, 0
3, 236400, Note_on_c, 0, 65, 68
3, 236616, Note_on_c, 0, 65, 0
3, 237360, Note_on_c, 0, 66, 90
3, 237708, Note_on_c, 0, 66, 0
3, 237720, Note_on_c, 0, 65, 68
3, 237774, Note_on_c, 0, 65, 0
3, 237840, Note_on_c, 0, 61, 68
3, 237894, Note_on_c, 0, 61, 0
3, 237960, Note_on_c, 0, 60, 68
3, 238014, Note_on_c, 0, 60, 0
3, 238080, Note_on_c, 0, 58, 68
3, 238188, Note_on_c, 0, 58, 0
3, 238320, Note_on_c, 0, 61, 68
3, 238428, Note_on_c, 0, 61, 0
3, 238560, Note_on_c, 0, 65, 68
3, 238668, Note_on_c, 0, 65, 0
3, 241920, Note_on_c, 0, 68, 68
3, 242028, Note_on_c, 0, 68, 0
3, 242160, Note_on_c, 0, 72, 68
3, 242268, Note_on_c, 0, 72, 0
3, 242400, Note_on_c, 0, 77, 68
3, 242508, Note_on_c, 0, 77, 0
3, 242640, Note_on_c, 0, 68, 68
3, 243096, Note_on_c, 0, 68, 0
3, 243120, Note_on_c, 0, 67, 68
3, 243336, Note_on_c, 0, 67, 0
3, 243600, Note_on_c, 0, 67, 68
3, 243816, Note_on_c, 0, 67, 0
3, 243840, Note_on_c, 0, 56, 64
3, 243894, Note_on_c, 0, 56, 0
3, 243960, Note_on_c, 0, 60, 64
3, 244014, Note_on_c, 0, 60, 0
3, 244080, Note_on_c, 0, 65, 64
3, 244134, Note_on_c, 0, 65, 0
3, 244200, Note_on_c, 0, 68, 64
3, 244254, Note_on_c, 0, 68, 0
3, 244320, Note_on_c, 0, 72, 64
3, 244374, Note_on_c, 0, 72, 0
3, 244440, Note_on_c, 0, 65, 64
3, 244494, Note_on_c, 0, 65, 0
3, 244560, Note_on_c, 0, 64, 64
3, 244614, Note_on_c, 0, 64, 0
3, 244680, Note_on_c, 0, 70, 64
3, 244734, Note_on_c, 0, 70, 0
3, 244800, Note_on_c, 0, 68, 68
3, 244908, Note_on_c, 0, 68, 0
3, 245040, Note_on_c, 0, 67, 68
3, 245148, Note_on_c, 0, 67, 0
3, 245280, Note_on_c, 0, 65, 68
3, 245388, Note_on_c, 0, 65, 0
3, 245520, Note_on_c, 0, 64, 68
3, 245628, Note_on_c, 0, 64, 0
3, 245760, Note_on_c, 0, 65, 68
3, 245868, Note_on_c, 0, 65, 0
3, 246000, Note_on_c, 0, 61, 68
3, 246000, Note_on_c, 0, 65, 68
3, 246108, Note_on_c, 0, 65, 0
3, 246108, Note_on_c, 0, 61, 0
3, 246240, Note_on_c, 0, 65, 68
3, 246348, Note_on_c, 0, 65, 0
3, 246480, Note_on_c, 0, 64, 68
3, 246588, Note_on_c, 0, 64, 0
3, 246720, Note_on_c, 0, 65, 68
3, 246720, Note_on_c, 0, 72, 68
3, 246828, Note_on_c, 0, 72, 0
3, 246828, Note_on_c, 0, 65, 0
3, 246960, Note_on_c, 0, 65, 68
3, 246960, Note_on_c, 0, 69, 68
3, 247068, Note_on_c, 0, 69, 0
3, 247068, Note_on_c, 0, 65, 0
3, 247200, Note_on_c, 0, 69, 68
3, 247200, Note_on_c, 0, 65, 68
3, 247308, Note_on_c, 0, 65, 0
3, 247308, Note_on_c, 0, 69, 0
3, 247440, Note_on_c, 0, 63, 74
3, 247440, Note_on_c, 0, 65, 74
3, 247548, Note_on_c, 0, 65, 0
3, 247548, Note_on_c, 0, 63, 0
3, 247680, Note_on_c, 0, 61, 79
3, 247788, Note_on_c, 0, 61, 0
3, 247920, Note_on_c, 0, 65, 84
3, 247974, Note_on_c, 0, 65, 0
3, 248040, Note_on_c, 0, 70, 86
3, 248094, Note_on_c, 0, 70, 0
3, 248160, Note_on_c, 0, 63, 89
3, 248268, Note_on_c, 0, 63, 0
3, 248400, Note_on_c, 0, 69, 94
3, 248454, Note_on_c, 0, 69, 0
3, 248520, Note_on_c, 0, 72, 97
3, 248574, Note_on_c, 0, 72, 0
3, 248640, Note_on_c, 0, 70, 95
3, 248748, Note_on_c, 0, 70, 0
3, 248880, Note_on_c, 0, 69, 95
3, 248934, Note_on_c, 0, 69, 0
3, 249000, Note_on_c, 0, 70, 95
3, 249054, Note_on_c, 0, 70, 0
3, 249120, Note_on_c, 0, 65, 95
3, 249336, Note_on_c, 0, 65, 0
3, 250217, Control_c, 0, 64, 127
3, 250320, Note_on_c, 0, 72, 64
3, 250374, Note_on_c, 0, 72, 0
3, 250380, Note_on_c, 0, 73, 64
3, 250434, Note_on_c, 0, 73, 0
3, 250440, Note_on_c, 0, 72, 64
3, 250494, Note_on_c, 0, 72, 0
3, 250500, Note_on_c, 0, 73, 64
3, 250554, Note_on_c, 0, 73, 0
3, 250560, Note_on_c, 0, 73, 64
3, 250740, Control_c, 0, 64, 0
3, 250776, Note_on_c, 0, 73, 0
3, 250800, Note_on_c, 0, 77, 64
3, 251016, Note_on_c, 0, 77, 0
3, 251040, Note_on_c, 0, 82, 90
3, 251364, Note_on_c, 0, 82, 0
3, 251400, Note_on_c, 0, 77, 64
3, 251508, Note_on_c, 0, 77, 0
3, 251520, Note_on_c, 0, 75, 64
3, 251574, Note_on_c, 0, 75, 0
3, 251640, Note_on_c, 0, 78, 62
3, 251694, Note_on_c, 0, 78, 0
3, 251760, Note_on_c, 0, 77, 60
3, 251814, Note_on_c, 0, 77, 0
3, 251880, Note_on_c, 0, 75, 59
3, 251934, Note_on_c, 0, 75, 0
3, 252000, Note_on_c, 0, 73, 57
3, 252054, Note_on_c, 0, 73, 0
3, 252120, Note_on_c, 0, 72, 56
3, 252174, Note_on_c, 0, 72, 0
3, 252240, Note_on_c, 0, 73, 54
3, 252294, Note_on_c, 0, 73, 0
3, 252360, Note_on_c, 0, 75, 53
3, 252414, Note_on_c, 0, 75, 0
3, 252480, Note_on_c, 0, 61, 51
3, 252534, Note_on_c, 0, 61, 0
3, 252600, Note_on_c, 0, 65, 51
3, 252654, Note_on_c, 0, 65, 0
3, 252720, Note_on_c, 0, 70, 51
3, 252774, Note_on_c, 0, 70, 0
3, 252840, Note_on_c, 0, 73, 51
3, 252894, Note_on_c, 0, 73, 0
3, 252960, Note_on_c, 0, 77, 51
3, 253014, Note_on_c, 0, 77, 0
3, 253080, Note_on_c, 0, 70, 50
3, 253134, Note_on_c, 0, 70, 0
3, 253200, Note_on_c, 0, 69, 50
3, 253254, Note_on_c, 0, 69, 0
3, 253320, Note_on_c, 0, 75, 50
3, 253374, Note_on_c, 0, 75, 0
3, 253440, Note_on_c, 0, 73, 50
3, 253548, Note_on_c, 0, 73, 0
3, 254040, Note_on_c, 0, 73, 49
3, 254040, Note_on_c, 0, 77, 49
3, 254094, Note_on_c, 0, 77, 0
3, 254094, Note_on_c, 0, 73, 0
3, 254160, Note_on_c, 0, 77, 49
3, 254160, Note_on_c, 0, 72, 49
3, 254214, Note_on_c, 0, 72, 0
3, 254214, Note_on_c, 0, 77, 0
3, 254280, Note_on_c, 0, 77, 49
3, 254280, Note_on_c, 0, 69, 49
3, 254334, Note_on_c, 0, 69, 0
3, 254334, Note_on_c, 0, 77, 0
3, 254400, Note_on_c, 0, 82, 49
3, 254400, Note_on_c, 0, 70, 49
3, 254508, Note_on_c, 0, 70, 0
3, 254508, Note_on_c, 0, 82, 0
3, 255000, Note_on_c, 0, 68, 48
3, 255000, Note_on_c, 0, 77, 48
3, 255000, Note_on_c, 0, 70, 48
3, 255054, Note_on_c, 0, 70, 0
3, 255054, Note_on_c, 0, 77, 0
3, 255054, Note_on_c, 0, 68, 0
3, 255120, Note_on_c, 0, 75, 48
3, 255120, Note_on_c, 0, 70, 48
3, 255120, Note_on_c, 0, 66, 48
3, 255174, Note_on_c, 0, 66, 0
3, 255174, Note_on_c, 0, 70, 0
3, 255174, Note_on_c, 0, 75, 0
3, 255240, Note_on_c, 0, 74, 48
3, 255240, Note_on_c, 0, 70, 48
3, 255240, Note_on_c, 0, 65, 48
3, 255294, Note_on_c, 0, 65, 0
3, 255294, Note_on_c, 0, 70, 0
3, 255294, Note_on_c, 0, 74, 0
3, 255360, Note_on_c, 0, 75, 48
3, 255360, Note_on_c, 0, 70, 48
3, 255360, Note_on_c, 0, 66, 48
3, 255468, Note_on_c, 0, 66, 0
3, 255468, Note_on_c, 0, 70, 0
3, 255468, Note_on_c, 0, 75, 0
3, 255840, Note_on_c, 0, 63, 48
3, 255894, Note_on_c, 0, 63, 0
3, 255960, Note_on_c, 0, 65, 48
3, 256014, Note_on_c, 0, 65, 0
3, 256080, Note_on_c, 0, 67, 48
3, 256134, Note_on_c, 0, 67, 0
3, 256200, Note_on_c, 0, 70, 48
3, 256200, Note_on_c, 0, 72, 48
3, 256416, Note_on_c, 0, 72, 0
3, 256416, Note_on_c, 0, 70, 0
3, 258600, Note_on_c, 0, 72, 45
3, 258654, Note_on_c, 0, 72, 0
3, 258720, Note_on_c, 0, 77, 45
3, 258828, Note_on_c, 0, 77, 0
3, 260520, Note_on_c, 0, 72, 44
3, 260628, Note_on_c, 0, 72, 0
3, 260640, Note_on_c, 0, 75, 44
3, 260856, Note_on_c, 0, 75, 0
3, 261720, Note_on_c, 0, 71, 42
3, 261828, Note_on_c, 0, 71, 0
3, 261840, Note_on_c, 0, 74, 42
3, 261948, Note_on_c, 0, 74, 0
3, 261960, Note_on_c, 0, 79, 42
3, 262068, Note_on_c, 0, 79, 0
3, 263520, Note_on_c, 0, 72, 56
3, 263628, Note_on_c, 0, 72, 0
3, 263640, Note_on_c, 0, 76, 56
3, 263748, Note_on_c, 0, 76, 0
3, 263760, Note_on_c, 0, 79, 56
3, 263976, Note_on_c, 0, 79, 0
3, 264000, Note_on_c, 0, 69, 68
3, 264080, Control_c, 0, 64, 127
3, 264480, Note_on_c, 0, 69, 0
3, 264480, Note_on_c, 0, 70, 59
3, 264960, Note_on_c, 0, 70, 0
3, 264960, Note_on_c, 0, 72, 68
3, 265440, Note_on_c, 0, 72, 0
3, 265440, Note_on_c, 0, 69, 71
3, 265920, Note_on_c, 0, 69, 0
3, 265920, Note_on_c, 0, 72, 71
3, 266250, Control_c, 0, 64, 0
3, 266640, Note_on_c, 0, 72, 0
3, 266640, Note_on_c, 0, 65, 68
3, 266850, Control_c, 0, 64, 127
3, 266880, Note_on_c, 0, 65, 0
3, 266880, Note_on_c, 0, 70, 68
3, 267360, Note_on_c, 0, 70, 0
3, 267360, Note_on_c, 0, 75, 68
3, 267840, Note_on_c, 0, 75, 0
3, 267840, Note_on_c, 0, 74, 66
3, 267840, Note_on_c, 0, 77, 66
3, 268320, Note_on_c, 0, 77, 0
3, 268320, Note_on_c, 0, 74, 0
3, 268320, Note_on_c, 0, 76, 66
3, 268320, Note_on_c, 0, 73, 68
3, 268800, Note_on_c, 0, 73, 0
3, 268800, Note_on_c, 0, 76, 0
3, 268800, Note_on_c, 0, 75, 55
3, 268800, Note_on_c, 0, 72, 66
3, 269160, Note_on_c, 0, 72, 0
3, 269160, Note_on_c, 0, 75, 0
3, 269655, Control_c, 0, 64, 0
3, 285840, Note_on_c, 0, 76, 98
3, 285894, Note_on_c, 0, 76, 0
3, 285900, Note_on_c, 0, 77, 100
3, 285954, Note_on_c, 0, 77, 0
3, 285960, Note_on_c, 0, 74, 103
3, 286005, Control_c, 0, 64, 127
3, 286014, Note_on_c, 0, 74, 0
3, 286020, Note_on_c, 0, 76, 105
3, 286074, Note_on_c, 0, 76, 0
3, 286080, Note_on_c, 0, 77, 107
3, 286296, Note_on_c, 0, 77, 0
3, 286320, Note_on_c, 0, 81, 95
3, 286320, Note_on_c, 0, 76, 95
3, 286536, Note_on_c, 0, 76, 0
3, 286536, Note_on_c, 0, 81, 0
3, 286560, Note_on_c, 0, 86, 106
3, 286560, Note_on_c, 0, 77, 106
3, 286725, Control_c, 0, 64, 0
3, 286884, Note_on_c, 0, 77, 0
3, 286884, Note_on_c, 0, 86, 0
3, 286920, Note_on_c, 0, 86, 94
3, 286920, Note_on_c, 0, 77, 94
3, 287028, Note_on_c, 0, 77, 0
3, 287028, Note_on_c, 0, 86, 0
3, 287040, Control_c, 0, 64, 127
3, 287040, Note_on_c, 0, 85, 96
3, 287040, Note_on_c, 0, 76, 96
3, 287148, Note_on_c, 0, 76, 0
3, 287148, Note_on_c, 0, 85, 0
3, 287160, Note_on_c, 0, 77, 99
3, 287160, Note_on_c, 0, 86, 99
3, 287268, Note_on_c, 0, 86, 0
3, 287268, Note_on_c, 0, 77, 0
3, 287280, Note_on_c, 0, 88, 101
3, 287280, Note_on_c, 0, 79, 101
3, 287334, Note_on_c, 0, 79, 0
3, 287334, Note_on_c, 0, 88, 0
3, 287400, Note_on_c, 0, 81, 104
3, 287400, Note_on_c, 0, 89, 104
3, 287454, Note_on_c, 0, 89, 0
3, 287454, Note_on_c, 0, 81, 0
3, 287520, Note_on_c, 0, 76, 95
3, 287520, Note_on_c, 0, 85, 95
3, 287736, Note_on_c, 0, 85, 0
3, 287736, Note_on_c, 0, 76, 0
3, 287760, Control_c, 0, 64, 0
3, 287880, Note_on_c, 0, 86, 91
3, 287880, Note_on_c, 0, 77, 91
3, 287988, Note_on_c, 0, 77, 0
3, 287988, Note_on_c, 0, 86, 0
3, 288000, Control_c, 0, 64, 127
3, 288000, Note_on_c, 0, 76, 93
3, 288000, Note_on_c, 0, 85, 93
3, 288108, Note_on_c, 0, 85, 0
3, 288108, Note_on_c, 0, 76, 0
3, 288120, Note_on_c, 0, 86, 96
3, 288120, Note_on_c, 0, 77, 96
3, 288228, Note_on_c, 0, 77, 0
3, 288228, Note_on_c, 0, 86, 0
3, 288240, Note_on_c, 0, 88, 98
3, 288240, Note_on_c, 0, 79, 98
3, 288294, Note_on_c, 0, 79, 0
3, 288294, Note_on_c, 0, 88, 0
3, 288360, Note_on_c, 0, 89, 100
3, 288360, Note_on_c, 0, 81, 100
3, 288387, Note_on_c, 0, 81, 0
3, 288387, Note_on_c, 0, 89, 0
3, 288480, Note_on_c, 0, 76, 95
3, 288480, Note_on_c, 0, 85, 95
3, 288588, Note_on_c, 0, 85, 0
3, 288588, Note_on_c, 0, 76, 0
3, 288840, Note_on_c, 0, 81, 97
3, 288876, Note_on_c, 0, 81, 0
3, 288880, Note_on_c, 0, 83, 101
3, 288916, Note_on_c, 0, 83, 0
3, 288920, Note_on_c, 0, 84, 105
3, 288956, Note_on_c, 0, 84, 0
3, 288960, Note_on_c, 0, 86, 110
3, 288960, Control_c, 0, 64, 127
3, 288960, Control_c, 0, 64, 0
3, 289176, Note_on_c, 0, 86, 0
3, 289200, Note_on_c, 0, 79, 95
3, 289200, Note_on_c, 0, 91, 95
3, 289632, Note_on_c, 0, 91, 0
3, 289632, Note_on_c, 0, 79, 0
3, 289680, Note_on_c, 0, 81, 92
3, 289734, Note_on_c, 0, 81, 0
3, 289740, Note_on_c, 0, 82, 95
3, 289794, Note_on_c, 0, 82, 0
3, 289800, Note_on_c, 0, 81, 98
3, 289854, Note_on_c, 0, 81, 0
3, 289860, Note_on_c, 0, 82, 101
3, 289920, Control_c, 0, 64, 0
3, 290136, Note_on_c, 0, 82, 0
3, 290160, Note_on_c, 0, 86, 95
3, 290160, Note_on_c, 0, 81, 95
3, 290376, Note_on_c, 0, 81, 0
3, 290376, Note_on_c, 0, 86, 0
3, 290400, Note_on_c, 0, 82, 112
3, 290400, Note_on_c, 0, 91, 112
3, 290724, Note_on_c, 0, 91, 0
3, 290724, Note_on_c, 0, 82, 0
3, 290760, Note_on_c, 0, 89, 91
3, 290760, Note_on_c, 0, 86, 91
3, 290868, Note_on_c, 0, 86, 0
3, 290868, Note_on_c, 0, 89, 0
3, 290880, Note_on_c, 0, 88, 94
3, 290880, Control_c, 0, 64, 127
3, 290880, Note_on_c, 0, 79, 94
3, 290988, Note_on_c, 0, 79, 0
3, 290988, Note_on_c, 0, 88, 0
3, 291000, Note_on_c, 0, 89, 97
3, 291000, Note_on_c, 0, 81, 97
3, 291108, Note_on_c, 0, 81, 0
3, 291108, Note_on_c, 0, 89, 0
3, 291120, Note_on_c, 0, 91, 99
3, 291120, Note_on_c, 0, 83, 99
3, 291174, Note_on_c, 0, 83, 0
3, 291174, Note_on_c, 0, 91, 0
3, 291240, Note_on_c, 0, 85, 102
3, 291240, Note_on_c, 0, 93, 102
3, 291294, Note_on_c, 0, 93, 0
3, 291294, Note_on_c, 0, 85, 0
3, 291360, Note_on_c, 0, 86, 95
3, 291360, Note_on_c, 0, 89, 95
3, 291468, Note_on_c, 0, 89, 0
3, 291468, Note_on_c, 0, 86, 0
3, 291510, Control_c, 0, 64, 0
3, 291720, Note_on_c, 0, 81, 89
3, 291720, Note_on_c, 0, 86, 89
3, 291828, Note_on_c, 0, 86, 0
3, 291828, Note_on_c, 0, 81, 0
3, 291840, Note_on_c, 0, 76, 91
3, 291840, Note_on_c, 0, 83, 91
3, 291870, Control_c, 0, 64, 127
3, 291948, Note_on_c, 0, 83, 0
3, 291948, Note_on_c, 0, 76, 0
3, 291960, Note_on_c, 0, 81, 94
3, 291960, Note_on_c, 0, 85, 94
3, 292068, Note_on_c, 0, 85, 0
3, 292068, Note_on_c, 0, 81, 0
3, 292080, Note_on_c, 0, 86, 97
3, 292080, Note_on_c, 0, 83, 97
3, 292134, Note_on_c, 0, 83, 0
3, 292134, Note_on_c, 0, 86, 0
3, 292200, Note_on_c, 0, 88, 99
3, 292200, Note_on_c, 0, 80, 99
3, 292254, Note_on_c, 0, 80, 0
3, 292254, Note_on_c, 0, 88, 0
3, 292320, Note_on_c, 0, 85, 95
3, 292320, Note_on_c, 0, 81, 95
3, 292428, Note_on_c, 0, 81, 0
3, 292428, Note_on_c, 0, 85, 0
3, 292560, Note_on_c, 0, 81, 91
3, 292614, Note_on_c, 0, 81, 0
3, 292620, Note_on_c, 0, 82, 93
3, 292674, Note_on_c, 0, 82, 0
3, 292680, Note_on_c, 0, 80, 96
3, 292734, Note_on_c, 0, 80, 0
3, 292740, Note_on_c, 0, 81, 98
3, 292794, Note_on_c, 0, 81, 0
3, 292800, Note_on_c, 0, 82, 101
3, 292800, Note_on_c, 0, 86, 101
3, 292830, Control_c, 0, 64, 0
3, 292944, Control_c, 0, 64, 127
3, 293039, Note_on_c, 0, 86, 0
3, 293039, Note_on_c, 0, 82, 0
3, 293040, Note_on_c, 0, 81, 101
3, 293279, Note_on_c, 0, 81, 0
3, 293280, Note_on_c, 0, 79, 98
3, 293519, Note_on_c, 0, 79, 0
3, 293520, Note_on_c, 0, 77, 96
3, 293628, Note_on_c, 0, 77, 0
3, 293760, Note_on_c, 0, 76, 94
3, 293904, Control_c, 0, 64, 0
3, 293976, Note_on_c, 0, 76, 0
3, 294000, Note_on_c, 0, 74, 94
3, 294054, Note_on_c, 0, 74, 0
3, 294060, Note_on_c, 0, 76, 96
3, 294114, Note_on_c, 0, 76, 0
3, 294120, Note_on_c, 0, 74, 99
3, 294174, Note_on_c, 0, 74, 0
3, 294180, Note_on_c, 0, 76, 101
3, 294210, Control_c, 0, 64, 127
3, 294234, Note_on_c, 0, 76, 0
3, 294240, Note_on_c, 0, 73, 104
3, 294456, Note_on_c, 0, 73, 0
3, 294480, Note_on_c, 0, 76, 93
3, 294936, Note_on_c, 0, 76, 0
3, 294940, Control_c, 0, 64, 0
3, 294960, Note_on_c, 0, 74, 82
3, 295014, Note_on_c, 0, 74, 0
3, 295020, Note_on_c, 0, 76, 86
3, 295074, Note_on_c, 0, 76, 0
3, 295080, Note_on_c, 0, 74, 90
3, 295134, Note_on_c, 0, 74, 0
3, 295140, Note_on_c, 0, 76, 93
3, 295194, Note_on_c, 0, 76, 0
3, 295200, Note_on_c, 0, 73, 97
3, 295210, Control_c, 0, 64, 127
3, 295416, Note_on_c, 0, 73, 0
3, 295440, Note_on_c, 0, 76, 89
3, 295880, Control_c, 0, 64, 0
3, 295896, Note_on_c, 0, 76, 0
3, 295920, Note_on_c, 0, 74, 80
3, 295974, Note_on_c, 0, 74, 0
3, 295980, Note_on_c, 0, 76, 83
3, 296034, Note_on_c, 0, 76, 0
3, 296040, Note_on_c, 0, 74, 87
3, 296094, Note_on_c, 0, 74, 0
3, 296100, Note_on_c, 0, 76, 90
3, 296130, Control_c, 0, 64, 127
3, 296154, Note_on_c, 0, 76, 0
3, 296160, Note_on_c, 0, 73, 93
3, 296376, Note_on_c, 0, 73, 0
3, 296400, Note_on_c, 0, 76, 84
3, 296800, Control_c, 0, 64, 0
3, 296856, Note_on_c, 0, 76, 0
3, 296880, Note_on_c, 0, 75, 77
3, 296934, Note_on_c, 0, 75, 0
3, 296940, Note_on_c, 0, 76, 80
3, 296994, Note_on_c, 0, 76, 0
3, 297000, Note_on_c, 0, 75, 83
3, 297054, Note_on_c, 0, 75, 0
3, 297060, Note_on_c, 0, 76, 86
3, 297070, Control_c, 0, 64, 127
3, 297114, Note_on_c, 0, 76, 0
3, 297120, Note_on_c, 0, 73, 90
3, 297336, Note_on_c, 0, 73, 0
3, 297360, Note_on_c, 0, 76, 80
3, 297708, Note_on_c, 0, 76, 0
3, 297720, Note_on_c, 0, 73, 78
3, 297828, Note_on_c, 0, 73, 0
3, 297840, Note_on_c, 0, 76, 78
3, 298188, Note_on_c, 0, 76, 0
3, 298200, Note_on_c, 0, 73, 77
3, 298308, Note_on_c, 0, 73, 0
3, 298320, Note_on_c, 0, 76, 77
3, 298668, Note_on_c, 0, 76, 0
3, 298680, Note_on_c, 0, 73, 75
3, 298788, Note_on_c, 0, 73, 0
3, 298800, Note_on_c, 0, 76, 75
3, 299148, Note_on_c, 0, 76, 0
3, 299190, Control_c, 0, 64, 0
3, 299280, Note_on_c, 0, 76, 90
3, 299280, Note_on_c, 0, 88, 90
3, 299496, Note_on_c, 0, 88, 0
3, 299496, Note_on_c, 0, 76, 0
3, 307200, Control_c, 0, 64, 127
3, 307200, Note_on_c, 0, 57, 90
3, 307308, Note_on_c, 0, 57, 0
3, 307440, Note_on_c, 0, 62, 90
3, 307872, Note_on_c, 0, 62, 0
3, 307920, Note_on_c, 0, 64, 90
3, 307920, Note_on_c, 0, 61, 90
3, 308136, Note_on_c, 0, 61, 0
3, 308136, Note_on_c, 0, 64, 0
3, 308160, Note_on_c, 0, 62, 90
3, 308160, Control_c, 0, 64, 0
3, 308160, Note_on_c, 0, 65, 90
3, 308376, Note_on_c, 0, 65, 0
3, 308376, Note_on_c, 0, 62, 0
3, 308400, Note_on_c, 0, 64, 90
3, 308400, Note_on_c, 0, 69, 90
3, 308616, Note_on_c, 0, 69, 0
3, 308616, Note_on_c, 0, 64, 0
3, 308640, Note_on_c, 0, 65, 90
3, 308640, Note_on_c, 0, 74, 90
3, 308964, Note_on_c, 0, 74, 0
3, 308964, Note_on_c, 0, 65, 0
3, 309000, Note_on_c, 0, 74, 86
3, 309000, Note_on_c, 0, 65, 86
3, 309108, Note_on_c, 0, 65, 0
3, 309108, Note_on_c, 0, 74, 0
3, 309120, Note_on_c, 0, 73, 89
3, 309120, Note_on_c, 0, 64, 89
3, 309144, Control_c, 0, 64, 127
3, 309228, Note_on_c, 0, 64, 0
3, 309228, Note_on_c, 0, 73, 0
3, 309240, Note_on_c, 0, 65, 92
3, 309240, Note_on_c, 0, 74, 92
3, 309264, Control_c, 0, 64, 0
3, 309294, Note_on_c, 0, 74, 0
3, 309294, Note_on_c, 0, 65, 0
3, 309360, Note_on_c, 0, 67, 96
3, 309360, Note_on_c, 0, 76, 96
3, 309414, Note_on_c, 0, 76, 0
3, 309414, Note_on_c, 0, 67, 0
3, 309480, Note_on_c, 0, 69, 99
3, 309480, Note_on_c, 0, 77, 99
3, 309534, Note_on_c, 0, 77, 0
3, 309534, Note_on_c, 0, 69, 0
3, 309600, Note_on_c, 0, 73, 90
3, 309600, Note_on_c, 0, 64, 90
3, 309708, Note_on_c, 0, 64, 0
3, 309708, Note_on_c, 0, 73, 0
3, 309760, Control_c, 0, 64, 127
3, 309960, Note_on_c, 0, 65, 90
3, 309960, Note_on_c, 0, 74, 90
3, 310014, Note_on_c, 0, 74, 0
3, 310014, Note_on_c, 0, 65, 0
3, 310080, Note_on_c, 0, 64, 88
3, 310080, Note_on_c, 0, 73, 88
3, 310134, Note_on_c, 0, 73, 0
3, 310134, Note_on_c, 0, 64, 0
3, 310200, Note_on_c, 0, 74, 91
3, 310200, Note_on_c, 0, 65, 91
3, 310254, Note_on_c, 0, 65, 0
3, 310254, Note_on_c, 0, 74, 0
3, 310320, Note_on_c, 0, 76, 94
3, 310320, Note_on_c, 0, 67, 94
3, 310374, Note_on_c, 0, 67, 0
3, 310374, Note_on_c, 0, 76, 0
3, 310440, Note_on_c, 0, 77, 97
3, 310440, Note_on_c, 0, 69, 97
3, 310494, Note_on_c, 0, 69, 0
3, 310494, Note_on_c, 0, 77, 0
3, 310560, Note_on_c, 0, 73, 90
3, 310560, Note_on_c, 0, 64, 90
3, 310668, Note_on_c, 0, 64, 0
3, 310668, Note_on_c, 0, 73, 0
3, 310720, Control_c, 0, 64, 0
3, 310920, Note_on_c, 0, 69, 86
3, 310956, Note_on_c, 0, 69, 0
3, 310960, Note_on_c, 0, 71, 91
3, 310996, Note_on_c, 0, 71, 0
3, 311000, Note_on_c, 0, 73, 96
3, 311036, Note_on_c, 0, 73, 0
3, 311040, Note_on_c, 0, 74, 101
3, 311040, Note_on_c, 0, 66, 101
3, 311040, Control_c, 0, 64, 127
3, 311148, Note_on_c, 0, 66, 0
3, 311148, Note_on_c, 0, 74, 0
3, 311280, Note_on_c, 0, 67, 90
3, 311280, Note_on_c, 0, 74, 90
3, 311280, Note_on_c, 0, 70, 90
3, 311496, Note_on_c, 0, 70, 0
3, 311496, Note_on_c, 0, 74, 0
3, 311496, Note_on_c, 0, 67, 0
3, 311760, Note_on_c, 0, 74, 87
3, 311760, Note_on_c, 0, 69, 87
3, 311760, Note_on_c, 0, 66, 87
3, 311976, Note_on_c, 0, 66, 0
3, 311976, Note_on_c, 0, 69, 0
3, 311976, Note_on_c, 0, 74, 0
3, 312000, Note_on_c, 0, 70, 92
3, 312000, Note_on_c, 0, 67, 92
3, 312000, Note_on_c, 0, 74, 92
3, 312108, Note_on_c, 0, 74, 0
3, 312108, Note_on_c, 0, 67, 0
3, 312108, Note_on_c, 0, 70, 0
3, 312240, Note_on_c, 0, 69, 97
3, 312240, Note_on_c, 0, 66, 97
3, 312240, Note_on_c, 0, 74, 97
3, 312348, Note_on_c, 0, 74, 0
3, 312348, Note_on_c, 0, 66, 0
3, 312348, Note_on_c, 0, 69, 0
3, 312480, Note_on_c, 0, 70, 90
3, 312480, Note_on_c, 0, 67, 90
3, 312804, Note_on_c, 0, 67, 0
3, 312804, Note_on_c, 0, 70, 0
3, 312840, Note_on_c, 0, 70, 84
3, 312840, Note_on_c, 0, 65, 84
3, 312948, Note_on_c, 0, 65, 0
3, 312948, Note_on_c, 0, 70, 0
3, 312960, Note_on_c, 0, 70, 87
3, 312960, Note_on_c, 0, 64, 87
3, 313068, Note_on_c, 0, 64, 0
3, 313068, Note_on_c, 0, 70, 0
3, 313080, Note_on_c, 0, 65, 91
3, 313188, Note_on_c, 0, 65, 0
3, 313200, Note_on_c, 0, 67, 95
3, 313308, Note_on_c, 0, 67, 0
3, 313320, Note_on_c, 0, 69, 99
3, 313374, Note_on_c, 0, 69, 0
3, 313440, Note_on_c, 0, 65, 90
3, 313440, Note_on_c, 0, 69, 90
3, 313548, Note_on_c, 0, 69, 0
3, 313548, Note_on_c, 0, 65, 0
3, 313800, Note_on_c, 0, 69, 90
3, 313800, Note_on_c, 0, 74, 90
3, 313854, Note_on_c, 0, 74, 0
3, 313854, Note_on_c, 0, 69, 0
3, 313920, Control_c, 0, 64, 127
3, 313920, Note_on_c, 0, 71, 92
3, 314028, Note_on_c, 0, 71, 0
3, 314040, Note_on_c, 0, 73, 94
3, 314148, Note_on_c, 0, 73, 0
3, 314160, Note_on_c, 0, 74, 97
3, 314214, Note_on_c, 0, 74, 0
3, 314280, Note_on_c, 0, 76, 99
3, 314334, Note_on_c, 0, 76, 0
3, 314400, Note_on_c, 0, 69, 90
3, 314400, Note_on_c, 0, 73, 90
3, 314508, Note_on_c, 0, 73, 0
3, 314508, Note_on_c, 0, 69, 0
3, 314760, Note_on_c, 0, 76, 86
3, 314760, Note_on_c, 0, 73, 86
3, 314814, Note_on_c, 0, 73, 0
3, 314814, Note_on_c, 0, 76, 0
3, 314880, Control_c, 0, 64, 0
3, 314880, Control_c, 0, 64, 127
3, 314880, Note_on_c, 0, 74, 89
3, 314880, Note_on_c, 0, 71, 89
3, 314988, Note_on_c, 0, 71, 0
3, 314988, Note_on_c, 0, 74, 0
3, 315000, Note_on_c, 0, 76, 91
3, 315000, Note_on_c, 0, 72, 91
3, 315108, Note_on_c, 0, 72, 0
3, 315108, Note_on_c, 0, 76, 0
3, 315120, Note_on_c, 0, 78, 94
3, 315120, Note_on_c, 0, 74, 94
3, 315228, Note_on_c, 0, 74, 0
3, 315228, Note_on_c, 0, 78, 0
3, 315240, Note_on_c, 0, 71, 96
3, 315240, Note_on_c, 0, 80, 96
3, 315294, Note_on_c, 0, 80, 0
3, 315294, Note_on_c, 0, 71, 0
3, 315360, Note_on_c, 0, 72, 99
3, 315360, Note_on_c, 0, 81, 99
3, 315468, Note_on_c, 0, 81, 0
3, 315468, Note_on_c, 0, 72, 0
3, 315600, Control_c, 0, 64, 0
3, 315720, Note_on_c, 0, 72, 86
3, 315720, Note_on_c, 0, 69, 86
3, 315774, Note_on_c, 0, 69, 0
3, 315774, Note_on_c, 0, 72, 0
3, 315840, Note_on_c, 0, 67, 90
3, 315840, Note_on_c, 0, 70, 90
3, 315855, Control_c, 0, 64, 127
3, 315948, Note_on_c, 0, 70, 0
3, 315948, Note_on_c, 0, 67, 0
3, 315960, Note_on_c, 0, 69, 93
3, 315960, Note_on_c, 0, 72, 93
3, 316068, Note_on_c, 0, 72, 0
3, 316068, Note_on_c, 0, 69, 0
3, 316080, Note_on_c, 0, 70, 97
3, 316080, Note_on_c, 0, 74, 97
3, 316188, Note_on_c, 0, 74, 0
3, 316188, Note_on_c, 0, 70, 0
3, 316200, Note_on_c, 0, 72, 101
3, 316200, Note_on_c, 0, 76, 101
3, 316254, Note_on_c, 0, 76, 0
3, 316254, Note_on_c, 0, 72, 0
3, 316320, Note_on_c, 0, 69, 90
3, 316320, Note_on_c, 0, 77, 90
3, 316428, Note_on_c, 0, 77, 0
3, 316428, Note_on_c, 0, 69, 0
3, 316665, Control_c, 0, 64, 0
3, 316680, Note_on_c, 0, 72, 85
3, 316680, Note_on_c, 0, 69, 85
3, 316734, Note_on_c, 0, 69, 0
3, 316734, Note_on_c, 0, 72, 0
3, 316800, Control_c, 0, 64, 127
3, 316800, Note_on_c, 0, 70, 89
3, 316800, Note_on_c, 0, 67, 89
3, 316908, Note_on_c, 0, 67, 0
3, 316908, Note_on_c, 0, 70, 0
3, 316920, Note_on_c, 0, 69, 93
3, 316920, Note_on_c, 0, 72, 93
3, 317028, Note_on_c, 0, 72, 0
3, 317028, Note_on_c, 0, 69, 0
3, 317040, Note_on_c, 0, 74, 97
3, 317040, Note_on_c, 0, 70, 97
3, 317148, Note_on_c, 0, 70, 0
3, 317148, Note_on_c, 0, 74, 0
3, 317160, Note_on_c, 0, 76, 101
3, 317160, Note_on_c, 0, 72, 101
3, 317214, Note_on_c, 0, 72, 0
3, 317214, Note_on_c, 0, 76, 0
3, 317280, Note_on_c, 0, 77, 90
3, 317280, Note_on_c, 0, 69, 90
3, 317388, Note_on_c, 0, 69, 0
3, 317388, Note_on_c, 0, 77, 0
3, 317595, Control_c, 0, 64, 0
3, 317640, Note_on_c, 0, 69, 88
3, 317640, Note_on_c, 0, 72, 88
3, 317694, Note_on_c, 0, 72, 0
3, 317694, Note_on_c, 0, 69, 0
3, 317760, Note_on_c, 0, 70, 91
3, 317760, Note_on_c, 0, 67, 91
3, 317760, Control_c, 0, 64, 127
3, 317868, Note_on_c, 0, 67, 0
3, 317868, Note_on_c, 0, 70, 0
3, 317880, Note_on_c, 0, 69, 94
3, 317880, Note_on_c, 0, 72, 94
3, 317988, Note_on_c, 0, 72, 0
3, 317988, Note_on_c, 0, 69, 0
3, 318000, Note_on_c, 0, 74, 97
3, 318000, Note_on_c, 0, 70, 97
3, 318108, Note_on_c, 0, 70, 0
3, 318108, Note_on_c, 0, 74, 0
3, 318120, Note_on_c, 0, 76, 101
3, 318120, Note_on_c, 0, 72, 101
3, 318174, Note_on_c, 0, 72, 0
3, 318174, Note_on_c, 0, 76, 0
3, 318240, Note_on_c, 0, 69, 90
3, 318240, Note_on_c, 0, 77, 90
3, 318348, Note_on_c, 0, 77, 0
3, 318348, Note_on_c, 0, 69, 0
3, 318600, Note_on_c, 0, 72, 87
3, 318600, Note_on_c, 0, 77, 87
3, 318654, Note_on_c, 0, 77, 0
3, 318654, Note_on_c, 0, 72, 0
3, 318720, Control_c, 0, 64, 127
3, 318720, Note_on_c, 0, 79, 87
3, 318720, Control_c, 0, 64, 0
3, 318839, Note_on_c, 0, 79, 0
3, 318840, Note_on_c, 0, 80, 87
3, 318959, Note_on_c, 0, 80, 0
3, 318960, Note_on_c, 0, 82, 87
3, 319079, Note_on_c, 0, 82, 0
3, 319080, Note_on_c, 0, 79, 88
3, 319199, Note_on_c, 0, 79, 0
3, 319200, Note_on_c, 0, 80, 88
3, 319319, Note_on_c, 0, 80, 0
3, 319320, Note_on_c, 0, 82, 88
3, 319439, Note_on_c, 0, 82, 0
3, 319440, Note_on_c, 0, 84, 89
3, 319559, Note_on_c, 0, 84, 0
3, 319560, Note_on_c, 0, 80, 89
3, 319614, Note_on_c, 0, 80, 0
3, 319680, Control_c, 0, 64, 0
3, 319680, Note_on_c, 0, 82, 89
3, 319799, Note_on_c, 0, 82, 0
3, 319800, Note_on_c, 0, 84, 89
3, 319919, Note_on_c, 0, 84, 0
3, 319920, Note_on_c, 0, 85, 90
3, 320039, Note_on_c, 0, 85, 0
3, 320040, Note_on_c, 0, 82, 90
3, 320159, Note_on_c, 0, 82, 0
3, 320160, Note_on_c, 0, 84, 90
3, 320279, Note_on_c, 0, 84, 0
3, 320280, Note_on_c, 0, 85, 91
3, 320399, Note_on_c, 0, 85, 0
3, 320400, Note_on_c, 0, 87, 91
3, 320519, Note_on_c, 0, 87, 0
3, 320520, Note_on_c, 0, 84, 91
3, 320574, Note_on_c, 0, 84, 0
3, 320640, Note_on_c, 0, 83, 91
3, 320640, Control_c, 0, 64, 127
3, 320759, Note_on_c, 0, 83, 0
3, 320760, Note_on_c, 0, 84, 92
3, 320879, Note_on_c, 0, 84, 0
3, 320880, Note_on_c, 0, 86, 92
3, 320999, Note_on_c, 0, 86, 0
3, 321000, Note_on_c, 0, 89, 92
3, 321119, Note_on_c, 0, 89, 0
3, 321120, Note_on_c, 0, 88, 93
3, 321239, Note_on_c, 0, 88, 0
3, 321240, Note_on_c, 0, 86, 93
3, 321359, Note_on_c, 0, 86, 0
3, 321360, Note_on_c, 0, 84, 93
3, 321479, Note_on_c, 0, 84, 0
3, 321480, Note_on_c, 0, 84, 93
3, 321534, Note_on_c, 0, 84, 0
3, 321600, Note_on_c, 0, 86, 94
3, 321600, Control_c, 0, 64, 0
3, 321708, Note_on_c, 0, 86, 0
3, 321720, Note_on_c, 0, 84, 94
3, 321828, Note_on_c, 0, 84, 0
3, 321840, Note_on_c, 0, 83, 94
3, 321867, Note_on_c, 0, 83, 0
3, 321960, Note_on_c, 0, 83, 95
3, 321987, Note_on_c, 0, 83, 0
3, 322080, Note_on_c, 0, 84, 95
3, 322188, Note_on_c, 0, 84, 0
3, 322200, Note_on_c, 0, 83, 95
3, 322308, Note_on_c, 0, 83, 0
3, 322320, Note_on_c, 0, 84, 95
3, 322347, Note_on_c, 0, 84, 0
3, 322440, Note_on_c, 0, 86, 90
3, 322467, Note_on_c, 0, 86, 0
3, 322643, Control_c, 0, 64, 127
3, 323040, Note_on_c, 0, 91, 98
3, 323256, Note_on_c, 0, 91, 0
3, 323280, Note_on_c, 0, 91, 98
3, 323399, Note_on_c, 0, 91, 0
3, 323400, Note_on_c, 0, 91, 97
3, 323508, Note_on_c, 0, 91, 0
3, 323520, Note_on_c, 0, 91, 97
3, 323603, Control_c, 0, 64, 0
3, 323759, Note_on_c, 0, 91, 0
3, 323760, Note_on_c, 0, 91, 96
3, 323879, Note_on_c, 0, 91, 0
3, 323880, Note_on_c, 0, 91, 96
3, 323999, Note_on_c, 0, 91, 0
3, 324000, Note_on_c, 0, 90, 96
3, 324239, Note_on_c, 0, 90, 0
3, 324240, Note_on_c, 0, 90, 95
3, 324359, Note_on_c, 0, 90, 0
3, 324360, Note_on_c, 0, 90, 94
3, 324468, Note_on_c, 0, 90, 0
3, 324480, Control_c, 0, 64, 127
3, 324480, Note_on_c, 0, 83, 94
3, 324480, Note_on_c, 0, 86, 94
3, 324480, Note_on_c, 0, 91, 94
3, 325155, Control_c, 0, 64, 0
3, 325199, Note_on_c, 0, 91, 0
3, 325199, Note_on_c, 0, 86, 0
3, 325199, Note_on_c, 0, 83, 0
3, 325200, Note_on_c, 0, 62, 86
3, 325238, Control_c, 0, 64, 127
3, 325254, Note_on_c, 0, 62, 0
3, 325260, Note_on_c, 0, 64, 89
3, 325314, Note_on_c, 0, 64, 0
3, 325320, Note_on_c, 0, 66, 92
3, 325356, Note_on_c, 0, 66, 0
3, 325360, Note_on_c, 0, 67, 94
3, 325396, Note_on_c, 0, 67, 0
3, 325400, Note_on_c, 0, 69, 96
3, 325436, Note_on_c, 0, 69, 0
3, 325440, Note_on_c, 0, 67, 98
3, 325440, Note_on_c, 0, 71, 98
3, 325440, Note_on_c, 0, 62, 98
3, 325853, Control_c, 0, 64, 0
3, 326088, Note_on_c, 0, 62, 0
3, 326088, Note_on_c, 0, 71, 0
3, 326088, Note_on_c, 0, 67, 0
3, 326160, Note_on_c, 0, 62, 88
3, 326196, Note_on_c, 0, 62, 0
3, 326200, Note_on_c, 0, 64, 89
3, 326236, Note_on_c, 0, 64, 0
3, 326240, Note_on_c, 0, 66, 90
3, 326276, Note_on_c, 0, 66, 0
3, 326280, Note_on_c, 0, 67, 91
3, 326316, Note_on_c, 0, 67, 0
3, 326320, Note_on_c, 0, 69, 92
3, 326356, Note_on_c, 0, 69, 0
3, 326360, Note_on_c, 0, 72, 93
3, 326396, Note_on_c, 0, 72, 0
3, 326400, Control_c, 0, 64, 127
3, 326400, Note_on_c, 0, 74, 94
3, 326616, Note_on_c, 0, 74, 0
3, 326640, Note_on_c, 0, 62, 92
3, 326676, Note_on_c, 0, 62, 0
3, 326680, Note_on_c, 0, 64, 94
3, 326716, Note_on_c, 0, 64, 0
3, 326720, Note_on_c, 0, 66, 96
3, 326756, Note_on_c, 0, 66, 0
3, 326760, Note_on_c, 0, 67, 98
3, 326796, Note_on_c, 0, 67, 0
3, 326800, Note_on_c, 0, 69, 99
3, 326836, Note_on_c, 0, 69, 0
3, 326840, Note_on_c, 0, 71, 101
3, 326876, Note_on_c, 0, 71, 0
3, 326880, Note_on_c, 0, 74, 103
3, 326880, Control_c, 0, 64, 0
3, 327096, Note_on_c, 0, 74, 0
3, 328320, Note_on_c, 0, 71, 90
3, 328320, Note_on_c, 0, 74, 90
3, 328390, Control_c, 0, 64, 127
3, 328559, Note_on_c, 0, 74, 0
3, 328559, Note_on_c, 0, 71, 0
3, 328560, Note_on_c, 0, 69, 94
3, 328560, Note_on_c, 0, 73, 94
3, 328639, Note_on_c, 0, 73, 0
3, 328639, Note_on_c, 0, 69, 0
3, 328640, Note_on_c, 0, 76, 96
3, 328719, Note_on_c, 0, 76, 0
3, 328720, Note_on_c, 0, 78, 98
3, 328799, Note_on_c, 0, 78, 0
3, 328800, Note_on_c, 0, 79, 100
3, 328800, Note_on_c, 0, 76, 100
3, 329190, Control_c, 0, 64, 0
3, 329496, Note_on_c, 0, 76, 0
3, 329496, Note_on_c, 0, 79, 0
3, 329520, Note_on_c, 0, 75, 90
3, 329520, Note_on_c, 0, 78, 90
3, 329736, Note_on_c, 0, 78, 0
3, 329736, Note_on_c, 0, 75, 0
3, 329760, Note_on_c, 0, 76, 90
3, 329760, Note_on_c, 0, 73, 90
3, 329976, Note_on_c, 0, 73, 0
3, 329976, Note_on_c, 0, 76, 0
3, 330000, Note_on_c, 0, 74, 97
3, 330000, Note_on_c, 0, 71, 97
3, 330079, Note_on_c, 0, 71, 0
3, 330079, Note_on_c, 0, 74, 0
3, 330080, Note_on_c, 0, 78, 99
3, 330159, Note_on_c, 0, 78, 0
3, 330160, Note_on_c, 0, 80, 100
3, 330232, Note_on_c, 0, 80, 0
3, 330240, Note_on_c, 0, 78, 101
3, 330240, Note_on_c, 0, 81, 101
3, 330250, Control_c, 0, 64, 127
3, 330479, Note_on_c, 0, 81, 0
3, 330479, Note_on_c, 0, 78, 0
3, 330480, Note_on_c, 0, 75, 95
3, 330559, Note_on_c, 0, 75, 0
3, 330560, Note_on_c, 0, 78, 97
3, 330639, Note_on_c, 0, 78, 0
3, 330640, Note_on_c, 0, 80, 99
3, 330719, Note_on_c, 0, 80, 0
3, 330720, Note_on_c, 0, 81, 101
3, 330720, Note_on_c, 0, 78, 101
3, 330959, Note_on_c, 0, 78, 0
3, 330959, Note_on_c, 0, 81, 0
3, 330960, Note_on_c, 0, 75, 94
3, 331032, Note_on_c, 0, 75, 0
3, 331040, Note_on_c, 0, 78, 97
3, 331112, Note_on_c, 0, 78, 0
3, 331120, Note_on_c, 0, 80, 101
3, 331192, Note_on_c, 0, 80, 0
3, 331200, Note_on_c, 0, 81, 105
3, 331200, Note_on_c, 0, 76, 105
3, 331308, Note_on_c, 0, 76, 0
3, 331308, Note_on_c, 0, 81, 0
3, 331400, Control_c, 0, 64, 0
3, 331440, Note_on_c, 0, 69, 98
3, 331440, Note_on_c, 0, 81, 98
3, 331440, Note_on_c, 0, 76, 98
3, 331548, Note_on_c, 0, 76, 0
3, 331548, Note_on_c, 0, 81, 0
3, 331548, Note_on_c, 0, 69, 0
3, 331680, Note_on_c, 0, 69, 98
3, 331680, Note_on_c, 0, 77, 98
3, 331680, Note_on_c, 0, 74, 98
3, 331896, Note_on_c, 0, 74, 0
3, 331896, Note_on_c, 0, 77, 0
3, 331896, Note_on_c, 0, 69, 0
3, 331920, Note_on_c, 0, 76, 97
3, 331920, Note_on_c, 0, 73, 97
3, 331920, Note_on_c, 0, 67, 97
3, 332136, Note_on_c, 0, 67, 0
3, 332136, Note_on_c, 0, 73, 0
3, 332136, Note_on_c, 0, 76, 0
3, 332160, Note_on_c, 0, 69, 96
3, 332160, Note_on_c, 0, 65, 96
3, 332160, Note_on_c, 0, 74, 96
3, 332268, Note_on_c, 0, 74, 0
3, 332268, Note_on_c, 0, 65, 0
3, 332268, Note_on_c, 0, 69, 0
3, 332400, Note_on_c, 0, 64, 95
3, 332400, Note_on_c, 0, 71, 95
3, 332508, Note_on_c, 0, 71, 0
3, 332508, Note_on_c, 0, 64, 0
3, 332640, Note_on_c, 0, 73, 94
3, 332640, Note_on_c, 0, 69, 94
3, 332748, Note_on_c, 0, 69, 0
3, 332748, Note_on_c, 0, 73, 0
3, 332880, Note_on_c, 0, 68, 94
3, 332880, Note_on_c, 0, 64, 94
3, 332988, Note_on_c, 0, 64, 0
3, 332988, Note_on_c, 0, 68, 0
3, 333120, Note_on_c, 0, 69, 74
3, 333120, Note_on_c, 0, 64, 74
3, 333336, Note_on_c, 0, 64, 0
3, 333336, Note_on_c, 0, 69, 0
3, 333360, Note_on_c, 0, 59, 73
3, 333360, Note_on_c, 0, 64, 73
3, 333420, Control_c, 0, 64, 127
3, 333540, Control_c, 0, 64, 0
3, 333576, Note_on_c, 0, 64, 0
3, 333576, Note_on_c, 0, 59, 0
3, 333600, Note_on_c, 0, 64, 72
3, 333600, Note_on_c, 0, 61, 72
3, 333816, Note_on_c, 0, 61, 0
3, 333816, Note_on_c, 0, 64, 0
3, 333840, Note_on_c, 0, 57, 72
3, 334056, Note_on_c, 0, 57, 0
3, 334080, Control_c, 0, 64, 127
3, 334080, Note_on_c, 0, 53, 72
3, 334080, Note_on_c, 0, 62, 57
3, 334559, Note_on_c, 0, 62, 0
3, 334559, Note_on_c, 0, 53, 0
3, 334560, Note_on_c, 0, 64, 59
3, 334560, Note_on_c, 0, 57, 59
3, 334799, Note_on_c, 0, 57, 0
3, 334799, Note_on_c, 0, 64, 0
3, 334800, Note_on_c, 0, 62, 64
3, 334800, Note_on_c, 0, 65, 64
3, 335016, Note_on_c, 0, 65, 0
3, 335016, Note_on_c, 0, 62, 0
3, 335040, Note_on_c, 0, 69, 69
3, 335040, Note_on_c, 0, 64, 69
3, 335519, Note_on_c, 0, 64, 0
3, 335519, Note_on_c, 0, 69, 0
3, 335520, Note_on_c, 0, 64, 57
3, 335520, Note_on_c, 0, 60, 57
3, 335759, Note_on_c, 0, 60, 0
3, 335759, Note_on_c, 0, 64, 0
3, 335760, Note_on_c, 0, 69, 57
3, 335760, Note_on_c, 0, 64, 57
3, 335760, Note_on_c, 0, 60, 57
3, 335976, Note_on_c, 0, 60, 0
3, 335976, Note_on_c, 0, 64, 0
3, 335976, Note_on_c, 0, 69, 0
3, 336000, Note_on_c, 0, 74, 57
3, 336000, Note_on_c, 0, 69, 57
3, 336000, Note_on_c, 0, 65, 57
3, 336479, Note_on_c, 0, 65, 0
3, 336479, Note_on_c, 0, 69, 0
3, 336479, Note_on_c, 0, 74, 0
3, 336480, Note_on_c, 0, 71, 60
3, 336480, Note_on_c, 0, 68, 60
3, 336480, Note_on_c, 0, 74, 60
3, 336639, Note_on_c, 0, 74, 0
3, 336639, Note_on_c, 0, 68, 0
3, 336639, Note_on_c, 0, 71, 0
3, 336640, Note_on_c, 0, 68, 64
3, 336640, Note_on_c, 0, 76, 64
3, 336640, Note_on_c, 0, 71, 64
3, 336799, Note_on_c, 0, 71, 0
3, 336799, Note_on_c, 0, 76, 0
3, 336799, Note_on_c, 0, 68, 0
3, 336800, Note_on_c, 0, 71, 66
3, 336800, Note_on_c, 0, 68, 66
3, 336800, Note_on_c, 0, 77, 66
3, 336872, Note_on_c, 0, 77, 0
3, 336872, Note_on_c, 0, 68, 0
3, 336872, Note_on_c, 0, 71, 0
3, 336960, Note_on_c, 0, 69, 68
3, 336960, Note_on_c, 0, 77, 68
3, 336960, Note_on_c, 0, 74, 68
3, 337439, Note_on_c, 0, 74, 0
3, 337439, Note_on_c, 0, 77, 0
3, 337439, Note_on_c, 0, 69, 0
3, 337440, Note_on_c, 0, 76, 57
3, 337440, Note_on_c, 0, 69, 57
3, 337656, Note_on_c, 0, 69, 0
3, 337656, Note_on_c, 0, 76, 0
3, 337920, Note_on_c, 0, 65, 57
3, 337920, Note_on_c, 0, 69, 57
3, 338399, Note_on_c, 0, 69, 0
3, 338399, Note_on_c, 0, 65, 0
3, 338400, Note_on_c, 0, 65, 60
3, 338400, Note_on_c, 0, 69, 60
3, 338400, Note_on_c, 0, 74, 60
3, 338508, Note_on_c, 0, 74, 0
3, 338508, Note_on_c, 0, 69, 0
3, 338508, Note_on_c, 0, 65, 0
3, 338640, Note_on_c, 0, 74, 64
3, 338640, Note_on_c, 0, 69, 64
3, 338640, Note_on_c, 0, 77, 64
3, 338748, Note_on_c, 0, 77, 0
3, 338748, Note_on_c, 0, 69, 0
3, 338748, Note_on_c, 0, 74, 0
3, 338880, Note_on_c, 0, 74, 68
3, 339576, Control_c, 0, 64, 0
3, 339599, Note_on_c, 0, 74, 0
3, 339600, Note_on_c, 0, 69, 57
3, 339600, Note_on_c, 0, 81, 57
3, 339816, Note_on_c, 0, 81, 0
3, 339816, Note_on_c, 0, 69, 0
3, 339840, Note_on_c, 0, 76, 72
3, 340559, Note_on_c, 0, 76, 0
3, 340560, Note_on_c, 0, 76, 72
3, 340668, Note_on_c, 0, 76, 0
3, 394560, Note_on_c, 0, 54, 76
3, 394560, Control_c, 0, 64, 127
3, 394799, Note_on_c, 0, 54, 0
3, 394800, Note_on_c, 0, 57, 78
3, 395039, Note_on_c, 0, 57, 0
3, 395040, Note_on_c, 0, 62, 80
3, 395279, Note_on_c, 0, 62, 0
3, 395280, Note_on_c, 0, 66, 81
3, 395496, Note_on_c, 0, 66, 0
3, 395520, Note_on_c, 0, 74, 83
3, 396239, Note_on_c, 0, 74, 0
3, 396240, Note_on_c, 0, 74, 88
3, 396375, Control_c, 0, 64, 0
3, 396480, Note_on_c, 0, 79, 90
3, 396480, Control_c, 0, 64, 127
3, 396959, Note_on_c, 0, 79, 0
3, 396959, Note_on_c, 0, 74, 0
3, 396960, Note_on_c, 0, 78, 86
3, 397068, Note_on_c, 0, 78, 0
3, 397200, Note_on_c, 0, 76, 92
3, 397308, Note_on_c, 0, 76, 0
3, 397440, Note_on_c, 0, 81, 89
3, 398088, Note_on_c, 0, 81, 0
3, 398160, Note_on_c, 0, 81, 74
3, 398376, Note_on_c, 0, 81, 0
3, 398400, Note_on_c, 0, 81, 83
3, 398400, Note_on_c, 0, 83, 83
3, 399048, Note_on_c, 0, 83, 0
3, 399120, Note_on_c, 0, 83, 85
3, 399336, Note_on_c, 0, 83, 0
3, 399336, Note_on_c, 0, 81, 0
3, 400110, Control_c, 0, 64, 0
3, 401604, Control_c, 0, 64, 127
3, 401640, Note_on_c, 0, 54, 50
3, 401694, Note_on_c, 0, 54, 0
3, 401700, Note_on_c, 0, 62, 52
3, 401754, Note_on_c, 0, 62, 0
3, 401760, Note_on_c, 0, 69, 60
3, 401814, Note_on_c, 0, 69, 0
3, 401820, Note_on_c, 0, 74, 65
3, 401874, Note_on_c, 0, 74, 0
3, 401880, Note_on_c, 0, 78, 72
3, 401934, Note_on_c, 0, 78, 0
3, 401940, Note_on_c, 0, 81, 66
3, 401994, Note_on_c, 0, 81, 0
3, 402000, Note_on_c, 0, 86, 61
3, 402054, Note_on_c, 0, 86, 0
3, 402060, Note_on_c, 0, 90, 56
3, 402114, Note_on_c, 0, 90, 0
3, 402120, Note_on_c, 0, 93, 46
3, 402174, Note_on_c, 0, 93, 0
3, 402780, Note_on_c, 0, 74, 52
3, 402834, Note_on_c, 0, 74, 0
3, 402840, Note_on_c, 0, 78, 67
3, 402894, Note_on_c, 0, 78, 0
3, 402900, Note_on_c, 0, 81, 74
3, 402954, Note_on_c, 0, 81, 0
3, 402960, Note_on_c, 0, 86, 68
3, 403014, Note_on_c, 0, 86, 0
3, 403020, Note_on_c, 0, 90, 57
3, 403074, Note_on_c, 0, 90, 0
3, 403080, Note_on_c, 0, 93, 43
3, 403134, Note_on_c, 0, 93, 0
3, 403740, Note_on_c, 0, 75, 58
3, 403794, Note_on_c, 0, 75, 0
3, 403800, Note_on_c, 0, 78, 63
3, 403854, Note_on_c, 0, 78, 0
3, 403860, Note_on_c, 0, 81, 73
3, 403914, Note_on_c, 0, 81, 0
3, 403920, Note_on_c, 0, 87, 59
3, 403974, Note_on_c, 0, 87, 0
3, 403980, Note_on_c, 0, 90, 50
3, 404034, Note_on_c, 0, 90, 0
3, 404040, Note_on_c, 0, 93, 41
3, 404094, Note_on_c, 0, 93, 0
3, 404700, Note_on_c, 0, 76, 61
3, 404754, Note_on_c, 0, 76, 0
3, 404760, Note_on_c, 0, 79, 68
3, 404814, Note_on_c, 0, 79, 0
3, 404820, Note_on_c, 0, 83, 75
3, 404874, Note_on_c, 0, 83, 0
3, 404880, Note_on_c, 0, 88, 82
3, 404907, Control_c, 0, 64, 0
3, 404934, Note_on_c, 0, 88, 0
3, 404940, Note_on_c, 0, 91, 72
3, 404994, Note_on_c, 0, 91, 0
3, 405000, Note_on_c, 0, 95, 60
3, 405054, Note_on_c, 0, 95, 0
3, 405120, Control_c, 0, 64, 127
3, 405120, Note_on_c, 0, 93, 62
3, 405174, Note_on_c, 0, 93, 0
3, 405180, Note_on_c, 0, 90, 62
3, 405234, Note_on_c, 0, 90, 0
3, 405240, Note_on_c, 0, 81, 62
3, 405294, Note_on_c, 0, 81, 0
3, 405300, Note_on_c, 0, 90, 62
3, 405354, Note_on_c, 0, 90, 0
3, 405360, Note_on_c, 0, 81, 62
3, 405414, Note_on_c, 0, 81, 0
3, 405420, Note_on_c, 0, 78, 62
3, 405474, Note_on_c, 0, 78, 0
3, 405480, Note_on_c, 0, 69, 62
3, 405534, Note_on_c, 0, 69, 0
3, 405540, Note_on_c, 0, 78, 62
3, 405594, Note_on_c, 0, 78, 0
3, 405600, Note_on_c, 0, 92, 62
3, 405654, Note_on_c, 0, 92, 0
3, 405660, Note_on_c, 0, 89, 62
3, 405714, Note_on_c, 0, 89, 0
3, 405720, Note_on_c, 0, 81, 62
3, 405774, Note_on_c, 0, 81, 0
3, 405780, Note_on_c, 0, 89, 62
3, 405834, Note_on_c, 0, 89, 0
3, 405840, Note_on_c, 0, 80, 62
3, 405894, Note_on_c, 0, 80, 0
3, 405900, Note_on_c, 0, 77, 62
3, 405954, Note_on_c, 0, 77, 0
3, 405960, Note_on_c, 0, 69, 61
3, 406014, Note_on_c, 0, 69, 0
3, 406020, Note_on_c, 0, 77, 62
3, 406074, Note_on_c, 0, 77, 0
3, 406080, Note_on_c, 0, 91, 64
3, 406134, Note_on_c, 0, 91, 0
3, 406140, Note_on_c, 0, 88, 65
3, 406194, Note_on_c, 0, 88, 0
3, 406200, Note_on_c, 0, 81, 67
3, 406254, Note_on_c, 0, 81, 0
3, 406260, Note_on_c, 0, 88, 68
3, 406314, Note_on_c, 0, 88, 0
3, 406320, Note_on_c, 0, 79, 70
3, 406374, Note_on_c, 0, 79, 0
3, 406380, Note_on_c, 0, 76, 71
3, 406434, Note_on_c, 0, 76, 0
3, 406440, Note_on_c, 0, 69, 73
3, 406494, Note_on_c, 0, 69, 0
3, 406500, Note_on_c, 0, 76, 74
3, 406554, Note_on_c, 0, 76, 0
3, 406560, Note_on_c, 0, 90, 76
3, 406614, Note_on_c, 0, 90, 0
3, 406620, Note_on_c, 0, 86, 77
3, 406674, Note_on_c, 0, 86, 0
3, 406680, Note_on_c, 0, 81, 79
3, 406734, Note_on_c, 0, 81, 0
3, 406740, Note_on_c, 0, 86, 80
3, 406794, Note_on_c, 0, 86, 0
3, 406800, Note_on_c, 0, 78, 82
3, 406854, Note_on_c, 0, 78, 0
3, 406860, Note_on_c, 0, 74, 83
3, 406914, Note_on_c, 0, 74, 0
3, 406920, Note_on_c, 0, 69, 84
3, 406974, Note_on_c, 0, 69, 0
3, 406980, Note_on_c, 0, 74, 86
3, 407034, Note_on_c, 0, 74, 0
3, 407040, Note_on_c, 0, 85, 88
3, 407099, Note_on_c, 0, 85, 0
3, 407100, Note_on_c, 0, 81, 88
3, 407159, Note_on_c, 0, 81, 0
3, 407160, Note_on_c, 0, 76, 88
3, 407219, Note_on_c, 0, 76, 0
3, 407220, Note_on_c, 0, 81, 88
3, 407279, Note_on_c, 0, 81, 0
3, 407280, Note_on_c, 0, 73, 88
3, 407339, Note_on_c, 0, 73, 0
3, 407340, Note_on_c, 0, 69, 88
3, 407399, Note_on_c, 0, 69, 0
3, 407400, Note_on_c, 0, 64, 89
3, 407459, Note_on_c, 0, 64, 0
3, 407460, Note_on_c, 0, 69, 89
3, 407519, Note_on_c, 0, 69, 0
3, 407520, Note_on_c, 0, 86, 89
3, 407579, Note_on_c, 0, 86, 0
3, 407580, Note_on_c, 0, 81, 89
3, 407639, Note_on_c, 0, 81, 0
3, 407640, Note_on_c, 0, 74, 89
3, 407699, Note_on_c, 0, 74, 0
3, 407700, Note_on_c, 0, 81, 90
3, 407759, Note_on_c, 0, 81, 0
3, 407760, Note_on_c, 0, 74, 90
3, 407819, Note_on_c, 0, 74, 0
3, 407820, Note_on_c, 0, 69, 90
3, 407879, Note_on_c, 0, 69, 0
3, 407880, Note_on_c, 0, 62, 90
3, 407939, Note_on_c, 0, 62, 0
3, 407940, Note_on_c, 0, 69, 90
3, 407994, Note_on_c, 0, 69, 0
3, 408000, Note_on_c, 0, 86, 91
3, 408059, Note_on_c, 0, 86, 0
3, 408060, Note_on_c, 0, 80, 90
3, 408119, Note_on_c, 0, 80, 0
3, 408120, Note_on_c, 0, 74, 86
3, 408179, Note_on_c, 0, 74, 0
3, 408180, Note_on_c, 0, 80, 83
3, 408239, Note_on_c, 0, 80, 0
3, 408240, Note_on_c, 0, 74, 80
3, 408299, Note_on_c, 0, 74, 0
3, 408300, Note_on_c, 0, 68, 77
3, 408359, Note_on_c, 0, 68, 0
3, 408360, Note_on_c, 0, 62, 74
3, 408405, Control_c, 0, 64, 0
3, 408419, Note_on_c, 0, 62, 0
3, 408420, Note_on_c, 0, 68, 70
3, 408479, Note_on_c, 0, 68, 0
3, 408480, Note_on_c, 0, 85, 67
3, 408539, Note_on_c, 0, 85, 0
3, 408540, Note_on_c, 0, 79, 64
3, 408599, Note_on_c, 0, 79, 0
3, 408600, Note_on_c, 0, 73, 61
3, 408659, Note_on_c, 0, 73, 0
3, 408660, Note_on_c, 0, 79, 58
3, 408719, Note_on_c, 0, 79, 0
3, 408720, Note_on_c, 0, 69, 54
3, 408779, Note_on_c, 0, 69, 0
3, 408780, Note_on_c, 0, 64, 52
3, 408839, Note_on_c, 0, 64, 0
3, 408840, Note_on_c, 0, 61, 48
3, 408899, Note_on_c, 0, 61, 0
3, 408900, Note_on_c, 0, 64, 45
3, 408954, Note_on_c, 0, 64, 0
3, 412800, Note_on_c, 0, 69, 81
3, 412800, Control_c, 0, 64, 127
3, 413039, Note_on_c, 0, 69, 0
3, 413040, Note_on_c, 0, 74, 80
3, 413279, Note_on_c, 0, 74, 0
3, 413280, Note_on_c, 0, 78, 85
3, 413519, Note_on_c, 0, 78, 0
3, 413520, Note_on_c, 0, 81, 61
3, 413736, Note_on_c, 0, 81, 0
3, 413760, Note_on_c, 0, 57, 63
3, 413760, Control_c, 0, 64, 0
3, 413999, Note_on_c, 0, 57, 0
3, 414000, Note_on_c, 0, 62, 76
3, 414239, Note_on_c, 0, 62, 0
3, 414240, Note_on_c, 0, 65, 79
3, 414479, Note_on_c, 0, 65, 0
3, 414480, Note_on_c, 0, 69, 68
3, 414696, Note_on_c, 0, 69, 0
3, 414720, Note_on_c, 0, 64, 88
3, 414959, Note_on_c, 0, 64, 0
3, 414960, Note_on_c, 0, 68, 89
3, 415199, Note_on_c, 0, 68, 0
3, 415200, Note_on_c, 0, 69, 88
3, 415439, Note_on_c, 0, 69, 0
3, 415440, Note_on_c, 0, 74, 89
3, 415656, Note_on_c, 0, 74, 0
3, 415680, Note_on_c, 0, 69, 83
3, 415680, Note_on_c, 0, 79, 83
3, 416112, Note_on_c, 0, 79, 0
3, 416112, Note_on_c, 0, 69, 0
3, 416880, Control_c, 0, 64, 127
3, 417000, Note_on_c, 0, 54, 50
3, 417059, Note_on_c, 0, 54, 0
3, 417060, Note_on_c, 0, 62, 56
3, 417119, Note_on_c, 0, 62, 0
3, 417120, Note_on_c, 0, 69, 62
3, 417179, Note_on_c, 0, 69, 0
3, 417180, Note_on_c, 0, 74, 66
3, 417239, Note_on_c, 0, 74, 0
3, 417240, Note_on_c, 0, 78, 72
3, 417299, Note_on_c, 0, 78, 0
3, 417300, Note_on_c, 0, 81, 82
3, 417359, Note_on_c, 0, 81, 0
3, 417360, Note_on_c, 0, 86, 75
3, 417419, Note_on_c, 0, 86, 0
3, 417420, Note_on_c, 0, 90, 70
3, 417479, Note_on_c, 0, 90, 0
3, 417480, Note_on_c, 0, 93, 64
3, 417534, Note_on_c, 0, 93, 0
3, 417960, Note_on_c, 0, 54, 53
3, 418019, Note_on_c, 0, 54, 0
3, 418020, Note_on_c, 0, 62, 60
3, 418079, Note_on_c, 0, 62, 0
3, 418080, Note_on_c, 0, 69, 67
3, 418139, Note_on_c, 0, 69, 0
3, 418140, Note_on_c, 0, 74, 72
3, 418199, Note_on_c, 0, 74, 0
3, 418200, Note_on_c, 0, 78, 80
3, 418259, Note_on_c, 0, 78, 0
3, 418260, Note_on_c, 0, 81, 76
3, 418319, Note_on_c, 0, 81, 0
3, 418320, Note_on_c, 0, 86, 67
3, 418379, Note_on_c, 0, 86, 0
3, 418380, Note_on_c, 0, 90, 60
3, 418439, Note_on_c, 0, 90, 0
3, 418440, Note_on_c, 0, 93, 50
3, 418494, Note_on_c, 0, 93, 0
3, 418920, Note_on_c, 0, 54, 52
3, 418979, Note_on_c, 0, 54, 0
3, 418980, Note_on_c, 0, 63, 60
3, 419039, Note_on_c, 0, 63, 0
3, 419040, Note_on_c, 0, 69, 66
3, 419099, Note_on_c, 0, 69, 0
3, 419100, Note_on_c, 0, 75, 72
3, 419159, Note_on_c, 0, 75, 0
3, 419160, Note_on_c, 0, 78, 78
3, 419219, Note_on_c, 0, 78, 0
3, 419220, Note_on_c, 0, 81, 76
3, 419279, Note_on_c, 0, 81, 0
3, 419280, Note_on_c, 0, 87, 72
3, 419339, Note_on_c, 0, 87, 0
3, 419340, Note_on_c, 0, 90, 67
3, 419399, Note_on_c, 0, 90, 0
3, 419400, Note_on_c, 0, 93, 60
3, 419454, Note_on_c, 0, 93, 0
3, 419880, Note_on_c, 0, 55, 52
3, 419939, Note_on_c, 0, 55, 0
3, 419940, Note_on_c, 0, 64, 59
3, 419999, Note_on_c, 0, 64, 0
3, 420000, Note_on_c, 0, 72, 67
3, 420059, Note_on_c, 0, 72, 0
3, 420060, Note_on_c, 0, 76, 73
3, 420119, Note_on_c, 0, 76, 0
3, 420120, Note_on_c, 0, 79, 77
3, 420179, Note_on_c, 0, 79, 0
3, 420180, Note_on_c, 0, 84, 70
3, 420239, Note_on_c, 0, 84, 0
3, 420240, Note_on_c, 0, 88, 64
3, 420299, Note_on_c, 0, 88, 0
3, 420300, Note_on_c, 0, 91, 59
3, 420359, Note_on_c, 0, 91, 0
3, 420360, Note_on_c, 0, 96, 52
3, 420414, Note_on_c, 0, 96, 0
3, 420480, Note_on_c, 0, 84, 63
3, 420539, Note_on_c, 0, 84, 0
3, 420540, Note_on_c, 0, 81, 63
3, 420599, Note_on_c, 0, 81, 0
3, 420600, Note_on_c, 0, 74, 63
3, 420659, Note_on_c, 0, 74, 0
3, 420660, Note_on_c, 0, 81, 63
3, 420719, Note_on_c, 0, 81, 0
3, 420720, Note_on_c, 0, 72, 63
3, 420779, Note_on_c, 0, 72, 0
3, 420780, Note_on_c, 0, 69, 63
3, 420839, Note_on_c, 0, 69, 0
3, 420840, Note_on_c, 0, 62, 63
3, 420899, Note_on_c, 0, 62, 0
3, 420900, Note_on_c, 0, 69, 63
3, 420959, Note_on_c, 0, 69, 0
3, 420960, Note_on_c, 0, 83, 63
3, 421019, Note_on_c, 0, 83, 0
3, 421020, Note_on_c, 0, 79, 63
3, 421079, Note_on_c, 0, 79, 0
3, 421080, Note_on_c, 0, 74, 63
3, 421139, Note_on_c, 0, 74, 0
3, 421140, Note_on_c, 0, 79, 63
3, 421199, Note_on_c, 0, 79, 0
3, 421200, Note_on_c, 0, 71, 63
3, 421259, Note_on_c, 0, 71, 0
3, 421260, Note_on_c, 0, 67, 63
3, 421319, Note_on_c, 0, 67, 0
3, 421320, Note_on_c, 0, 62, 63
3, 421379, Note_on_c, 0, 62, 0
3, 421380, Note_on_c, 0, 67, 63
3, 421434, Note_on_c, 0, 67, 0
3, 421440, Note_on_c, 0, 91, 63
3, 421499, Note_on_c, 0, 91, 0
3, 421500, Note_on_c, 0, 86, 64
3, 421559, Note_on_c, 0, 86, 0
3, 421560, Note_on_c, 0, 83, 65
3, 421619, Note_on_c, 0, 83, 0
3, 421620, Note_on_c, 0, 86, 66
3, 421679, Note_on_c, 0, 86, 0
3, 421680, Note_on_c, 0, 79, 67
3, 421739, Note_on_c, 0, 79, 0
3, 421740, Note_on_c, 0, 74, 68
3, 421799, Note_on_c, 0, 74, 0
3, 421800, Note_on_c, 0, 71, 69
3, 421859, Note_on_c, 0, 71, 0
3, 421860, Note_on_c, 0, 74, 70
3, 421919, Note_on_c, 0, 74, 0
3, 421920, Note_on_c, 0, 90, 71
3, 421979, Note_on_c, 0, 90, 0
3, 421980, Note_on_c, 0, 86, 72
3, 422039, Note_on_c, 0, 86, 0
3, 422040, Note_on_c, 0, 81, 73
3, 422099, Note_on_c, 0, 81, 0
3, 422100, Note_on_c, 0, 86, 74
3, 422159, Note_on_c, 0, 86, 0
3, 422160, Note_on_c, 0, 78, 75
3, 422219, Note_on_c, 0, 78, 0
3, 422220, Note_on_c, 0, 74, 76
3, 422279, Note_on_c, 0, 74, 0
3, 422280, Note_on_c, 0, 69, 77
3, 422339, Note_on_c, 0, 69, 0
3, 422340, Note_on_c, 0, 74, 78
3, 422394, Note_on_c, 0, 74, 0
3, 422400, Note_on_c, 0, 88, 63
3, 422459, Note_on_c, 0, 88, 0
3, 422460, Note_on_c, 0, 83, 79
3, 422519, Note_on_c, 0, 83, 0
3, 422520, Note_on_c, 0, 79, 77
3, 422579, Note_on_c, 0, 79, 0
3, 422580, Note_on_c, 0, 83, 76
3, 422639, Note_on_c, 0, 83, 0
3, 422640, Note_on_c, 0, 76, 75
3, 422699, Note_on_c, 0, 76, 0
3, 422700, Note_on_c, 0, 71, 74
3, 422759, Note_on_c, 0, 71, 0
3, 422760, Note_on_c, 0, 67, 73
3, 422819, Note_on_c, 0, 67, 0
3, 422820, Note_on_c, 0, 71, 72
3, 422879, Note_on_c, 0, 71, 0
3, 422880, Note_on_c, 0, 83, 71
3, 422939, Note_on_c, 0, 83, 0
3, 422940, Note_on_c, 0, 79, 70
3, 422999, Note_on_c, 0, 79, 0
3, 423000, Note_on_c, 0, 76, 68
3, 423059, Note_on_c, 0, 76, 0
3, 423060, Note_on_c, 0, 79, 67
3, 423119, Note_on_c, 0, 79, 0
3, 423120, Note_on_c, 0, 71, 66
3, 423179, Note_on_c, 0, 71, 0
3, 423180, Note_on_c, 0, 67, 65
3, 423239, Note_on_c, 0, 67, 0
3, 423240, Note_on_c, 0, 64, 65
3, 423299, Note_on_c, 0, 64, 0
3, 423300, Note_on_c, 0, 67, 65
3, 423354, Note_on_c, 0, 67, 0
3, 423360, Note_on_c, 0, 86, 74
3, 423419, Note_on_c, 0, 86, 0
3, 423420, Note_on_c, 0, 81, 66
3, 423479, Note_on_c, 0, 81, 0
3, 423480, Note_on_c, 0, 78, 63
3, 423539, Note_on_c, 0, 78, 0
3, 423540, Note_on_c, 0, 81, 61
3, 423599, Note_on_c, 0, 81, 0
3, 423600, Note_on_c, 0, 74, 57
3, 423659, Note_on_c, 0, 74, 0
3, 423660, Note_on_c, 0, 69, 55
3, 423719, Note_on_c, 0, 69, 0
3, 423720, Note_on_c, 0, 66, 53
3, 423779, Note_on_c, 0, 66, 0
3, 423780, Note_on_c, 0, 69, 50
3, 423795, Control_c, 0, 64, 0
3, 423839, Note_on_c, 0, 69, 0
3, 423840, Note_on_c, 0, 85, 45
3, 423899, Note_on_c, 0, 85, 0
3, 423900, Note_on_c, 0, 79, 43
3, 423959, Note_on_c, 0, 79, 0
3, 423960, Note_on_c, 0, 76, 41
3, 424019, Note_on_c, 0, 76, 0
3, 424020, Note_on_c, 0, 79, 39
3, 424079, Note_on_c, 0, 79, 0
3, 424080, Note_on_c, 0, 73, 35
3, 424139, Note_on_c, 0, 73, 0
3, 424140, Note_on_c, 0, 67, 33
3, 424199, Note_on_c, 0, 67, 0
3, 424200, Note_on_c, 0, 64, 31
3, 424259, Note_on_c, 0, 64, 0
3, 424260, Note_on_c, 0, 67, 29
3, 424319, Note_on_c, 0, 67, 0
3, 424320, Note_on_c, 0, 69, 42
3, 424320, Note_on_c, 0, 74, 42
3, 424320, Note_on_c, 0, 66, 42
3, 424795, Note_on_c, 0, 66, 0
3, 424795, Note_on_c, 0, 74, 0
3, 424795, Note_on_c, 0, 69, 0
3, 426120, Note_on_c, 0, 66, 64
3, 426228, Note_on_c, 0, 66, 0
3, 426240, Control_c, 0, 64, 127
3, 426240, Note_on_c, 0, 64, 64
3, 426348, Note_on_c, 0, 64, 0
3, 426360, Note_on_c, 0, 66, 64
3, 426468, Note_on_c, 0, 66, 0
3, 426480, Note_on_c, 0, 67, 64
3, 426507, Note_on_c, 0, 67, 0
3, 426600, Note_on_c, 0, 69, 64
3, 426627, Note_on_c, 0, 69, 0
3, 426720, Note_on_c, 0, 71, 64
3, 426828, Note_on_c, 0, 71, 0
3, 426840, Note_on_c, 0, 67, 64
3, 426948, Note_on_c, 0, 67, 0
3, 426960, Note_on_c, 0, 66, 64
3, 426987, Note_on_c, 0, 66, 0
3, 427080, Note_on_c, 0, 64, 64
3, 427107, Note_on_c, 0, 64, 0
3, 427200, Control_c, 0, 64, 0
3, 427200, Control_c, 0, 64, 127
3, 427200, Note_on_c, 0, 66, 64
3, 427308, Note_on_c, 0, 66, 0
3, 427320, Note_on_c, 0, 69, 64
3, 427354, Control_c, 0, 64, 0
3, 427428, Note_on_c, 0, 69, 0
3, 427440, Note_on_c, 0, 74, 64
3, 427467, Note_on_c, 0, 74, 0
3, 427560, Note_on_c, 0, 76, 64
3, 427587, Note_on_c, 0, 76, 0
3, 427680, Note_on_c, 0, 78, 64
3, 427788, Note_on_c, 0, 78, 0
3, 427800, Note_on_c, 0, 74, 64
3, 427908, Note_on_c, 0, 74, 0
3, 427920, Note_on_c, 0, 69, 64
3, 427947, Note_on_c, 0, 69, 0
3, 428040, Note_on_c, 0, 66, 64
3, 428067, Note_on_c, 0, 66, 0
3, 428160, Note_on_c, 0, 69, 64
3, 428240, Control_c, 0, 64, 127
3, 428964, Note_on_c, 0, 69, 0
3, 429000, Note_on_c, 0, 69, 64
3, 429108, Note_on_c, 0, 69, 0
3, 429120, Note_on_c, 0, 69, 64
3, 429200, Control_c, 0, 64, 0
3, 429444, Note_on_c, 0, 69, 0
3, 429960, Note_on_c, 0, 66, 64
3, 430068, Note_on_c, 0, 66, 0
3, 430080, Note_on_c, 0, 64, 64
3, 430080, Control_c, 0, 64, 127
3, 430188, Note_on_c, 0, 64, 0
3, 430200, Note_on_c, 0, 64, 64
3, 430200, Note_on_c, 0, 67, 64
3, 430308, Note_on_c, 0, 67, 0
3, 430308, Note_on_c, 0, 64, 0
3, 430320, Note_on_c, 0, 69, 64
3, 430320, Note_on_c, 0, 66, 64
3, 430344, Control_c, 0, 64, 0
3, 430374, Note_on_c, 0, 66, 0
3, 430374, Note_on_c, 0, 69, 0
3, 430440, Note_on_c, 0, 71, 64
3, 430440, Note_on_c, 0, 67, 64
3, 430494, Note_on_c, 0, 67, 0
3, 430494, Note_on_c, 0, 71, 0
3, 430560, Note_on_c, 0, 74, 64
3, 430560, Note_on_c, 0, 71, 64
3, 430668, Note_on_c, 0, 71, 0
3, 430668, Note_on_c, 0, 74, 0
3, 430680, Note_on_c, 0, 67, 64
3, 430680, Note_on_c, 0, 71, 64
3, 430788, Note_on_c, 0, 71, 0
3, 430788, Note_on_c, 0, 67, 0
3, 430800, Note_on_c, 0, 69, 64
3, 430800, Note_on_c, 0, 66, 64
3, 430854, Note_on_c, 0, 66, 0
3, 430854, Note_on_c, 0, 69, 0
3, 430920, Note_on_c, 0, 67, 64
3, 430920, Note_on_c, 0, 64, 64
3, 430974, Note_on_c, 0, 64, 0
3, 430974, Note_on_c, 0, 67, 0
3, 431040, Note_on_c, 0, 62, 64
3, 431040, Note_on_c, 0, 66, 64
3, 431148, Note_on_c, 0, 66, 0
3, 431148, Note_on_c, 0, 62, 0
3, 431160, Note_on_c, 0, 64, 66
3, 431160, Note_on_c, 0, 69, 66
3, 431268, Note_on_c, 0, 69, 0
3, 431268, Note_on_c, 0, 64, 0
3, 431280, Note_on_c, 0, 66, 69
3, 431280, Note_on_c, 0, 74, 69
3, 431334, Note_on_c, 0, 74, 0
3, 431334, Note_on_c, 0, 66, 0
3, 431400, Note_on_c, 0, 76, 71
3, 431400, Note_on_c, 0, 69, 71
3, 431454, Note_on_c, 0, 69, 0
3, 431454, Note_on_c, 0, 76, 0
3, 431520, Note_on_c, 0, 78, 73
3, 431520, Note_on_c, 0, 74, 73
3, 431628, Note_on_c, 0, 74, 0
3, 431640, Note_on_c, 0, 69, 75
3, 431748, Note_on_c, 0, 69, 0
3, 431748, Note_on_c, 0, 78, 0
3, 431760, Note_on_c, 0, 76, 77
3, 431760, Note_on_c, 0, 67, 77
3, 431814, Note_on_c, 0, 67, 0
3, 431814, Note_on_c, 0, 76, 0
3, 431880, Note_on_c, 0, 74, 80
3, 431880, Note_on_c, 0, 66, 80
3, 431934, Note_on_c, 0, 66, 0
3, 431934, Note_on_c, 0, 74, 0
3, 432000, Note_on_c, 0, 68, 82
3, 432000, Control_c, 0, 64, 127
3, 432000, Note_on_c, 0, 64, 82
3, 432108, Note_on_c, 0, 64, 0
3, 432108, Note_on_c, 0, 68, 0
3, 432120, Note_on_c, 0, 62, 84
3, 432120, Note_on_c, 0, 66, 84
3, 432228, Note_on_c, 0, 66, 0
3, 432228, Note_on_c, 0, 62, 0
3, 432240, Note_on_c, 0, 64, 86
3, 432240, Note_on_c, 0, 68, 86
3, 432294, Note_on_c, 0, 68, 0
3, 432294, Note_on_c, 0, 64, 0
3, 432360, Note_on_c, 0, 69, 88
3, 432360, Note_on_c, 0, 66, 88
3, 432414, Note_on_c, 0, 66, 0
3, 432414, Note_on_c, 0, 69, 0
3, 432480, Note_on_c, 0, 71, 91
3, 432480, Note_on_c, 0, 68, 91
3, 432534, Note_on_c, 0, 68, 0
3, 432534, Note_on_c, 0, 71, 0
3, 432540, Control_c, 0, 64, 0
3, 432600, Note_on_c, 0, 73, 93
3, 432600, Note_on_c, 0, 69, 93
3, 432654, Note_on_c, 0, 69, 0
3, 432654, Note_on_c, 0, 73, 0
3, 432720, Note_on_c, 0, 74, 89
3, 432720, Note_on_c, 0, 71, 89
3, 432774, Note_on_c, 0, 71, 0
3, 432774, Note_on_c, 0, 74, 0
3, 432840, Note_on_c, 0, 71, 84
3, 432840, Note_on_c, 0, 74, 84
3, 432894, Note_on_c, 0, 74, 0
3, 432894, Note_on_c, 0, 71, 0
3, 432960, Note_on_c, 0, 74, 64
3, 432960, Note_on_c, 0, 71, 64
3, 433176, Note_on_c, 0, 71, 0
3, 433176, Note_on_c, 0, 74, 0
3, 461760, Note_on_c, 0, 74, 90
3, 462936, Note_on_c, 0, 74, 0
3, 462960, Note_on_c, 0, 86, 95
3, 463068, Note_on_c, 0, 86, 0
3, 463200, Note_on_c, 0, 91, 92
3, 463200, Note_on_c, 0, 84, 92
3, 463308, Note_on_c, 0, 84, 0
3, 463308, Note_on_c, 0, 91, 0
3, 463440, Note_on_c, 0, 91, 88
3, 463440, Note_on_c, 0, 83, 88
3, 463548, Note_on_c, 0, 83, 0
3, 463548, Note_on_c, 0, 91, 0
3, 463680, Note_on_c, 0, 79, 85
3, 463680, Note_on_c, 0, 91, 85
3, 464328, Note_on_c, 0, 91, 0
3, 464328, Note_on_c, 0, 79, 0
3, 464400, Note_on_c, 0, 86, 82
3, 464454, Note_on_c, 0, 86, 0
3, 464460, Note_on_c, 0, 88, 85
3, 464514, Note_on_c, 0, 88, 0
3, 464520, Note_on_c, 0, 86, 89
3, 464574, Note_on_c, 0, 86, 0
3, 464580, Note_on_c, 0, 88, 93
3, 464640, Control_c, 0, 64, 127
3, 464856, Note_on_c, 0, 88, 0
3, 464880, Note_on_c, 0, 79, 95
3, 464880, Note_on_c, 0, 86, 95
3, 464880, Note_on_c, 0, 91, 95
3, 464914, Control_c, 0, 64, 0
3, 464988, Note_on_c, 0, 91, 0
3, 464988, Note_on_c, 0, 86, 0
3, 464988, Note_on_c, 0, 79, 0
3, 465120, Note_on_c, 0, 96, 92
3, 465120, Note_on_c, 0, 88, 92
3, 465120, Note_on_c, 0, 84, 92
3, 465228, Note_on_c, 0, 84, 0
3, 465228, Note_on_c, 0, 88, 0
3, 465228, Note_on_c, 0, 96, 0
3, 465360, Note_on_c, 0, 86, 90
3, 465360, Note_on_c, 0, 98, 90
3, 465360, Note_on_c, 0, 95, 90
3, 465468, Note_on_c, 0, 95, 0
3, 465468, Note_on_c, 0, 98, 0
3, 465468, Note_on_c, 0, 86, 0
3, 465600, Control_c, 0, 64, 127
3, 465600, Note_on_c, 0, 88, 87
3, 465600, Note_on_c, 0, 96, 87
3, 465600, Note_on_c, 0, 100, 87
3, 465600, Note_on_c, 0, 94, 87
3, 465816, Note_on_c, 0, 94, 0
3, 465816, Note_on_c, 0, 88, 0
3, 465816, Note_on_c, 0, 96, 0
3, 465816, Note_on_c, 0, 100, 0
3, 465840, Note_on_c, 0, 84, 84
3, 466200, Control_c, 0, 64, 0
3, 466272, Note_on_c, 0, 84, 0
3, 466320, Note_on_c, 0, 86, 84
3, 466374, Note_on_c, 0, 86, 0
3, 466380, Note_on_c, 0, 88, 87
3, 466434, Note_on_c, 0, 88, 0
3, 466440, Note_on_c, 0, 86, 91
3, 466494, Note_on_c, 0, 86, 0
3, 466500, Note_on_c, 0, 88, 95
3, 466560, Control_c, 0, 64, 127
3, 466749, Control_c, 0, 64, 0
3, 466776, Note_on_c, 0, 88, 0
3, 466800, Note_on_c, 0, 79, 96
3, 466800, Note_on_c, 0, 91, 96
3, 466800, Note_on_c, 0, 86, 96
3, 467016, Note_on_c, 0, 86, 0
3, 467016, Note_on_c, 0, 91, 0
3, 467016, Note_on_c, 0, 79, 0
3, 467040, Note_on_c, 0, 84, 93
3, 467040, Note_on_c, 0, 88, 93
3, 467040, Note_on_c, 0, 96, 93
3, 467256, Note_on_c, 0, 96, 0
3, 467256, Note_on_c, 0, 88, 0
3, 467256, Note_on_c, 0, 84, 0
3, 467280, Note_on_c, 0, 95, 90
3, 467280, Note_on_c, 0, 86, 90
3, 467280, Note_on_c, 0, 98, 90
3, 467496, Note_on_c, 0, 98, 0
3, 467496, Note_on_c, 0, 86, 0
3, 467496, Note_on_c, 0, 95, 0
3, 467520, Note_on_c, 0, 88, 87
3, 467520, Note_on_c, 0, 100, 87
3, 467520, Note_on_c, 0, 96, 87
3, 467736, Note_on_c, 0, 96, 0
3, 467736, Note_on_c, 0, 100, 0
3, 467736, Note_on_c, 0, 88, 0
3, 467760, Note_on_c, 0, 88, 104
3, 467760, Note_on_c, 0, 100, 104
3, 467760, Note_on_c, 0, 96, 104
3, 468239, Note_on_c, 0, 96, 0
3, 468239, Note_on_c, 0, 100, 0
3, 468239, Note_on_c, 0, 88, 0
3, 468240, Note_on_c, 0, 88, 94
3, 468240, Note_on_c, 0, 96, 94
3, 468240, Note_on_c, 0, 100, 94
3, 468456, Note_on_c, 0, 100, 0
3, 468456, Note_on_c, 0, 96, 0
3, 468456, Note_on_c, 0, 88, 0
3, 468480, Note_on_c, 0, 100, 96
3, 468480, Note_on_c, 0, 88, 96
3, 468480, Note_on_c, 0, 96, 96
3, 468696, Note_on_c, 0, 96, 0
3, 468696, Note_on_c, 0, 88, 0
3, 468696, Note_on_c, 0, 100, 0
3, 468720, Note_on_c, 0, 100, 104
3, 468720, Note_on_c, 0, 88, 104
3, 468720, Note_on_c, 0, 96, 104
3, 469199, Note_on_c, 0, 96, 0
3, 469199, Note_on_c, 0, 88, 0
3, 469199, Note_on_c, 0, 100, 0
3, 469200, Note_on_c, 0, 96, 86
3, 469200, Note_on_c, 0, 100, 86
3, 469200, Note_on_c, 0, 88, 86
3, 469416, Note_on_c, 0, 88, 0
3, 469416, Note_on_c, 0, 100, 0
3, 469416, Note_on_c, 0, 96, 0
3, 469440, Note_on_c, 0, 100, 105
3, 469440, Note_on_c, 0, 88, 105
3, 469440, Note_on_c, 0, 96, 105
3, 469872, Note_on_c, 0, 96, 0
3, 469872, Note_on_c, 0, 88, 0
3, 469872, Note_on_c, 0, 100, 0
3, 470130, Control_c, 0, 64, 127
3, 470160, Note_on_c, 0, 88, 96
3, 470232, Note_on_c, 0, 88, 0
3, 470240, Note_on_c, 0, 97, 101
3, 470312, Note_on_c, 0, 97, 0
3, 470320, Note_on_c, 0, 100, 106
3, 470392, Note_on_c, 0, 100, 0
3, 470400, Note_on_c, 0, 88, 112
3, 470400, Control_c, 0, 64, 127
3, 470400, Note_on_c, 0, 97, 112
3, 470400, Note_on_c, 0, 100, 112
3, 470616, Note_on_c, 0, 100, 0
3, 470616, Note_on_c, 0, 97, 0
3, 470616, Note_on_c, 0, 88, 0
3, 470640, Note_on_c, 0, 88, 107
3, 470640, Note_on_c, 0, 100, 107
3, 470640, Note_on_c, 0, 97, 107
3, 471090, Control_c, 0, 64, 0
3, 471119, Note_on_c, 0, 97, 0
3, 471119, Note_on_c, 0, 100, 0
3, 471119, Note_on_c, 0, 88, 0
3, 471120, Note_on_c, 0, 97, 96
3, 471120, Note_on_c, 0, 100, 96
3, 471120, Note_on_c, 0, 88, 96
3, 471336, Note_on_c, 0, 88, 0
3, 471336, Note_on_c, 0, 100, 0
3, 471336, Note_on_c, 0, 97, 0
3, 471360, Note_on_c, 0, 97, 107
3, 471360, Control_c, 0, 64, 0
3, 471360, Note_on_c, 0, 88, 107
3, 471360, Note_on_c, 0, 100, 107
3, 471792, Note_on_c, 0, 100, 0
3, 471792, Note_on_c, 0, 88, 0
3, 471792, Note_on_c, 0, 97, 0
3, 472035, Control_c, 0, 64, 127
3, 472080, Note_on_c, 0, 88, 95
3, 472152, Note_on_c, 0, 88, 0
3, 472160, Note_on_c, 0, 97, 100
3, 472232, Note_on_c, 0, 97, 0
3, 472240, Note_on_c, 0, 100, 104
3, 472312, Note_on_c, 0, 100, 0
3, 472320, Note_on_c, 0, 97, 110
3, 472320, Note_on_c, 0, 100, 110
3, 472320, Note_on_c, 0, 88, 110
3, 472350, Control_c, 0, 64, 0
3, 472536, Note_on_c, 0, 88, 0
3, 472536, Note_on_c, 0, 100, 0
3, 472536, Note_on_c, 0, 97, 0
3, 472560, Note_on_c, 0, 97, 104
3, 472560, Note_on_c, 0, 88, 104
3, 472560, Note_on_c, 0, 100, 104
3, 473039, Note_on_c, 0, 100, 0
3, 473039, Note_on_c, 0, 88, 0
3, 473039, Note_on_c, 0, 97, 0
3, 473040, Note_on_c, 0, 100, 82
3, 473040, Note_on_c, 0, 97, 82
3, 473040, Note_on_c, 0, 88, 82
3, 473256, Note_on_c, 0, 88, 0
3, 473256, Note_on_c, 0, 97, 0
3, 473256, Note_on_c, 0, 100, 0
3, 473280, Note_on_c, 0, 93, 105
3, 473280, Note_on_c, 0, 101, 105
3, 473280, Note_on_c, 0, 89, 105
3, 473280, Note_on_c, 0, 96, 105
3, 473914, Control_c, 0, 64, 127
3, 473999, Note_on_c, 0, 96, 0
3, 473999, Note_on_c, 0, 93, 0
3, 473999, Note_on_c, 0, 101, 0
3, 473999, Note_on_c, 0, 89, 0
3, 474000, Note_on_c, 0, 89, 83
3, 474072, Note_on_c, 0, 89, 0
3, 474080, Note_on_c, 0, 93, 89
3, 474152, Note_on_c, 0, 93, 0
3, 474160, Note_on_c, 0, 101, 96
3, 474232, Note_on_c, 0, 101, 0
3, 474240, Note_on_c, 0, 93, 94
3, 474240, Note_on_c, 0, 89, 94
3, 474240, Note_on_c, 0, 101, 94
3, 474456, Note_on_c, 0, 101, 0
3, 474456, Note_on_c, 0, 89, 0
3, 474456, Note_on_c, 0, 93, 0
3, 474480, Note_on_c, 0, 93, 105
3, 474480, Note_on_c, 0, 89, 105
3, 474480, Note_on_c, 0, 101, 105
3, 474514, Control_c, 0, 64, 0
3, 474959, Note_on_c, 0, 101, 0
3, 474959, Note_on_c, 0, 89, 0
3, 474959, Note_on_c, 0, 93, 0
3, 474960, Note_on_c, 0, 93, 85
3, 474960, Note_on_c, 0, 101, 85
3, 474960, Note_on_c, 0, 89, 85
3, 475176, Note_on_c, 0, 89, 0
3, 475176, Note_on_c, 0, 101, 0
3, 475176, Note_on_c, 0, 93, 0
3, 475200, Note_on_c, 0, 102, 106
3, 475200, Note_on_c, 0, 93, 106
3, 475200, Note_on_c, 0, 90, 106
3, 475908, Control_c, 0, 64, 127
3, 475919, Note_on_c, 0, 90, 0
3, 475919, Note_on_c, 0, 93, 0
3, 475919, Note_on_c, 0, 102, 0
3, 475920, Note_on_c, 0, 89, 92
3, 475992, Note_on_c, 0, 89, 0
3, 476000, Note_on_c, 0, 93, 98
3, 476072, Note_on_c, 0, 93, 0
3, 476080, Note_on_c, 0, 101, 103
3, 476152, Note_on_c, 0, 101, 0
3, 476160, Note_on_c, 0, 93, 99
3, 476160, Note_on_c, 0, 89, 99
3, 476160, Note_on_c, 0, 101, 99
3, 476232, Control_c, 0, 64, 0
3, 476399, Note_on_c, 0, 101, 0
3, 476399, Note_on_c, 0, 89, 0
3, 476399, Note_on_c, 0, 93, 0
3, 476400, Note_on_c, 0, 81, 103
3, 476400, Note_on_c, 0, 86, 103
3, 476400, Note_on_c, 0, 90, 103
3, 476879, Note_on_c, 0, 90, 0
3, 476879, Note_on_c, 0, 86, 0
3, 476879, Note_on_c, 0, 81, 0
3, 476880, Note_on_c, 0, 86, 96
3, 476880, Note_on_c, 0, 81, 96
3, 476880, Note_on_c, 0, 90, 96
3, 477096, Note_on_c, 0, 90, 0
3, 477096, Note_on_c, 0, 81, 0
3, 477096, Note_on_c, 0, 86, 0
3, 477360, Note_on_c, 0, 83, 109
3, 477360, Note_on_c, 0, 91, 109
3, 477360, Note_on_c, 0, 86, 109
3, 477576, Note_on_c, 0, 86, 0
3, 477576, Note_on_c, 0, 91, 0
3, 477576, Note_on_c, 0, 83, 0
3, 477840, Note_on_c, 0, 81, 96
3, 477840, Note_on_c, 0, 90, 96
3, 477840, Note_on_c, 0, 86, 96
3, 478056, Note_on_c, 0, 86, 0
3, 478056, Note_on_c, 0, 90, 0
3, 478056, Note_on_c, 0, 81, 0
3, 478320, Note_on_c, 0, 91, 106
3, 478320, Note_on_c, 0, 83, 106
3, 478320, Note_on_c, 0, 86, 106
3, 478536, Note_on_c, 0, 86, 0
3, 478536, Note_on_c, 0, 83, 0
3, 478536, Note_on_c, 0, 91, 0
3, 478800, Note_on_c, 0, 81, 96
3, 478800, Note_on_c, 0, 86, 96
3, 478800, Note_on_c, 0, 90, 96
3, 479016, Note_on_c, 0, 90, 0
3, 479016, Note_on_c, 0, 86, 0
3, 479016, Note_on_c, 0, 81, 0
3, 479040, Note_on_c, 0, 85, 96
3, 479040, Note_on_c, 0, 88, 96
3, 479040, Note_on_c, 0, 81, 96
3, 479256, Note_on_c, 0, 81, 0
3, 479256, Note_on_c, 0, 88, 0
3, 479256, Note_on_c, 0, 85, 0
3, 480456, Control_c, 0, 64, 127
3, 480480, Note_on_c, 0, 69, 85
3, 480588, Note_on_c, 0, 69, 0
3, 480600, Note_on_c, 0, 73, 90
3, 480708, Note_on_c, 0, 73, 0
3, 480720, Note_on_c, 0, 76, 94
3, 480828, Note_on_c, 0, 76, 0
3, 480840, Note_on_c, 0, 81, 99
3, 480948, Note_on_c, 0, 81, 0
3, 481217, Control_c, 0, 64, 0
3, 481344, Control_c, 0, 64, 127
3, 481440, Note_on_c, 0, 61, 88
3, 481548, Note_on_c, 0, 61, 0
3, 481560, Note_on_c, 0, 64, 91
3, 481668, Note_on_c, 0, 64, 0
3, 481680, Note_on_c, 0, 67, 95
3, 481788, Note_on_c, 0, 67, 0
3, 481800, Note_on_c, 0, 73, 99
3, 481908, Note_on_c, 0, 73, 0
3, 482211, Control_c, 0, 64, 0
3, 482340, Control_c, 0, 64, 127
3, 482400, Note_on_c, 0, 73, 84
3, 482508, Note_on_c, 0, 73, 0
3, 482520, Note_on_c, 0, 76, 88
3, 482628, Note_on_c, 0, 76, 0
3, 482640, Note_on_c, 0, 79, 93
3, 482748, Note_on_c, 0, 79, 0
3, 482760, Note_on_c, 0, 85, 97
3, 482868, Note_on_c, 0, 85, 0
3, 483120, Note_on_c, 0, 73, 95
3, 483120, Note_on_c, 0, 79, 95
3, 483300, Control_c, 0, 64, 0
3, 483336, Note_on_c, 0, 79, 0
3, 483336, Note_on_c, 0, 73, 0
3, 483360, Note_on_c, 0, 69, 93
3, 483576, Note_on_c, 0, 69, 0
3, 483600, Note_on_c, 0, 78, 94
3, 483600, Note_on_c, 0, 74, 94
3, 483816, Note_on_c, 0, 74, 0
3, 483816, Note_on_c, 0, 78, 0
3, 483840, Note_on_c, 0, 69, 86
3, 484056, Note_on_c, 0, 69, 0
3, 484080, Note_on_c, 0, 73, 92
3, 484080, Note_on_c, 0, 76, 92
3, 484296, Note_on_c, 0, 76, 0
3, 484296, Note_on_c, 0, 73, 0
3, 484320, Note_on_c, 0, 69, 83
3, 484536, Note_on_c, 0, 69, 0
3, 484560, Note_on_c, 0, 74, 94
3, 484560, Note_on_c, 0, 71, 94
3, 484776, Note_on_c, 0, 71, 0
3, 484776, Note_on_c, 0, 74, 0
3, 484800, Control_c, 0, 64, 127
3, 484800, Note_on_c, 0, 69, 83
3, 485016, Note_on_c, 0, 69, 0
3, 485040, Note_on_c, 0, 73, 91
3, 485256, Note_on_c, 0, 73, 0
3, 485280, Note_on_c, 0, 68, 84
3, 485496, Note_on_c, 0, 68, 0
3, 485520, Note_on_c, 0, 71, 96
3, 485760, Control_c, 0, 64, 0
3, 485928, Control_c, 0, 64, 127
3, 485999, Note_on_c, 0, 71, 0
3, 486000, Note_on_c, 0, 73, 92
3, 486239, Note_on_c, 0, 73, 0
3, 486240, Note_on_c, 0, 68, 81
3, 486479, Note_on_c, 0, 68, 0
3, 486480, Note_on_c, 0, 71, 92
3, 486888, Control_c, 0, 64, 0
3, 486959, Note_on_c, 0, 71, 0
3, 486960, Note_on_c, 0, 73, 92
3, 487104, Control_c, 0, 64, 127
3, 487199, Note_on_c, 0, 73, 0
3, 487200, Note_on_c, 0, 68, 86
3, 487439, Note_on_c, 0, 68, 0
3, 487440, Note_on_c, 0, 71, 80
3, 487919, Note_on_c, 0, 71, 0
3, 487920, Note_on_c, 0, 69, 92
3, 488064, Control_c, 0, 64, 0
3, 488159, Note_on_c, 0, 69, 0
3, 488160, Note_on_c, 0, 64, 86
3, 488208, Control_c, 0, 64, 127
3, 488399, Note_on_c, 0, 64, 0
3, 488400, Note_on_c, 0, 67, 79
3, 488879, Note_on_c, 0, 67, 0
3, 488880, Note_on_c, 0, 66, 91
3, 489119, Note_on_c, 0, 66, 0
3, 489120, Note_on_c, 0, 61, 83
3, 489168, Control_c, 0, 64, 0
3, 489312, Control_c, 0, 64, 127
3, 489359, Note_on_c, 0, 61, 0
3, 489360, Note_on_c, 0, 64, 76
3, 489839, Note_on_c, 0, 64, 0
3, 489840, Note_on_c, 0, 62, 86
3, 490079, Note_on_c, 0, 62, 0
3, 490080, Note_on_c, 0, 59, 80
3, 490272, Control_c, 0, 64, 0
3, 490319, Note_on_c, 0, 59, 0
3, 490320, Note_on_c, 0, 62, 74
3, 490560, Control_c, 0, 64, 127
3, 490799, Note_on_c, 0, 62, 0
3, 490800, Note_on_c, 0, 62, 80
3, 491039, Note_on_c, 0, 62, 0
3, 491040, Note_on_c, 0, 59, 76
3, 491279, Note_on_c, 0, 59, 0
3, 491280, Note_on_c, 0, 62, 72
3, 491520, Control_c, 0, 64, 0
3, 491736, Note_on_c, 0, 62, 0
3, 491760, Note_on_c, 0, 62, 81
3, 491784, Control_c, 0, 64, 127
3, 491976, Note_on_c, 0, 62, 0
3, 492000, Note_on_c, 0, 59, 79
3, 492216, Note_on_c, 0, 59, 0
3, 492240, Note_on_c, 0, 62, 75
3, 492456, Note_on_c, 0, 62, 0
3, 492720, Note_on_c, 0, 64, 80
3, 492744, Control_c, 0, 64, 0
3, 492936, Note_on_c, 0, 64, 0
3, 492960, Note_on_c, 0, 62, 75
3, 492960, Control_c, 0, 64, 127
3, 493176, Note_on_c, 0, 62, 0
3, 493200, Note_on_c, 0, 64, 69
3, 493416, Note_on_c, 0, 64, 0
3, 493680, Note_on_c, 0, 64, 78
3, 493896, Note_on_c, 0, 64, 0
3, 493920, Note_on_c, 0, 62, 74
3, 494136, Note_on_c, 0, 62, 0
3, 494160, Note_on_c, 0, 64, 70
3, 494376, Note_on_c, 0, 64, 0
3, 494640, Note_on_c, 0, 64, 76
3, 494856, Note_on_c, 0, 64, 0
3, 494880, Note_on_c, 0, 62, 70
3, 495096, Note_on_c, 0, 62, 0
3, 495120, Note_on_c, 0, 64, 66
3, 495336, Note_on_c, 0, 64, 0
3, 495360, Control_c, 0, 64, 0
3, 497280, Note_on_c, 0, 76, 92
3, 497280, Control_c, 0, 64, 127
3, 497339, Note_on_c, 0, 76, 0
3, 497340, Note_on_c, 0, 78, 93
3, 497399, Note_on_c, 0, 78, 0
3, 497400, Note_on_c, 0, 76, 92
3, 497459, Note_on_c, 0, 76, 0
3, 497460, Note_on_c, 0, 78, 91
3, 497519, Note_on_c, 0, 78, 0
3, 497520, Note_on_c, 0, 76, 90
3, 497579, Note_on_c, 0, 76, 0
3, 497580, Note_on_c, 0, 78, 88
3, 497639, Note_on_c, 0, 78, 0
3, 497640, Note_on_c, 0, 76, 87
3, 497699, Note_on_c, 0, 76, 0
3, 497700, Note_on_c, 0, 78, 86
3, 497759, Note_on_c, 0, 78, 0
3, 497760, Note_on_c, 0, 76, 85
3, 497819, Note_on_c, 0, 76, 0
3, 497820, Note_on_c, 0, 78, 84
3, 497879, Note_on_c, 0, 78, 0
3, 497880, Note_on_c, 0, 76, 82
3, 497939, Note_on_c, 0, 76, 0
3, 497940, Note_on_c, 0, 78, 81
3, 497999, Note_on_c, 0, 78, 0
3, 498000, Note_on_c, 0, 76, 80
3, 498059, Note_on_c, 0, 76, 0
3, 498060, Note_on_c, 0, 78, 79
3, 498119, Note_on_c, 0, 78, 0
3, 498120, Note_on_c, 0, 76, 77
3, 498179, Note_on_c, 0, 76, 0
3, 498180, Note_on_c, 0, 78, 76
3, 498234, Note_on_c, 0, 78, 0
3, 498240, Note_on_c, 0, 76, 75
3, 498299, Note_on_c, 0, 76, 0
3, 498300, Note_on_c, 0, 78, 74
3, 498359, Note_on_c, 0, 78, 0
3, 498360, Note_on_c, 0, 76, 72
3, 498419, Note_on_c, 0, 76, 0
3, 498420, Note_on_c, 0, 78, 71
3, 498479, Note_on_c, 0, 78, 0
3, 498480, Note_on_c, 0, 76, 70
3, 498539, Note_on_c, 0, 76, 0
3, 498540, Note_on_c, 0, 78, 69
3, 498599, Note_on_c, 0, 78, 0
3, 498600, Note_on_c, 0, 76, 67
3, 498659, Note_on_c, 0, 76, 0
3, 498660, Note_on_c, 0, 78, 66
3, 498719, Note_on_c, 0, 78, 0
3, 498720, Note_on_c, 0, 76, 59
3, 498779, Note_on_c, 0, 76, 0
3, 498780, Note_on_c, 0, 78, 59
3, 498839, Note_on_c, 0, 78, 0
3, 498840, Note_on_c, 0, 76, 59
3, 498899, Note_on_c, 0, 76, 0
3, 498900, Note_on_c, 0, 78, 59
3, 498959, Note_on_c, 0, 78, 0
3, 498960, Note_on_c, 0, 76, 59
3, 499019, Note_on_c, 0, 76, 0
3, 499020, Note_on_c, 0, 78, 59
3, 499079, Note_on_c, 0, 78, 0
3, 499080, Note_on_c, 0, 76, 59
3, 499139, Note_on_c, 0, 76, 0
3, 499140, Note_on_c, 0, 78, 59
3, 499194, Note_on_c, 0, 78, 0
3, 499200, Note_on_c, 0, 76, 59
3, 499259, Note_on_c, 0, 76, 0
3, 499260, Note_on_c, 0, 78, 59
3, 499319, Note_on_c, 0, 78, 0
3, 499320, Note_on_c, 0, 76, 59
3, 499379, Note_on_c, 0, 76, 0
3, 499380, Note_on_c, 0, 78, 59
3, 499439, Note_on_c, 0, 78, 0
3, 499440, Note_on_c, 0, 76, 59
3, 499499, Note_on_c, 0, 76, 0
3, 499500, Note_on_c, 0, 78, 59
3, 499559, Note_on_c, 0, 78, 0
3, 499560, Note_on_c, 0, 76, 59
3, 499619, Note_on_c, 0, 76, 0
3, 499620, Note_on_c, 0, 78, 59
3, 499679, Note_on_c, 0, 78, 0
3, 499680, Note_on_c, 0, 76, 59
3, 499739, Note_on_c, 0, 76, 0
3, 499740, Note_on_c, 0, 78, 59
3, 499799, Note_on_c, 0, 78, 0
3, 499800, Note_on_c, 0, 76, 59
3, 499859, Note_on_c, 0, 76, 0
3, 499860, Note_on_c, 0, 78, 59
3, 499919, Note_on_c, 0, 78, 0
3, 499920, Note_on_c, 0, 76, 59
3, 499979, Note_on_c, 0, 76, 0
3, 499980, Note_on_c, 0, 78, 59
3, 500039, Note_on_c, 0, 78, 0
3, 500040, Note_on_c, 0, 76, 59
3, 500099, Note_on_c, 0, 76, 0
3, 500100, Note_on_c, 0, 78, 59
3, 500154, Note_on_c, 0, 78, 0
3, 500160, Note_on_c, 0, 76, 59
3, 500219, Note_on_c, 0, 76, 0
3, 500220, Note_on_c, 0, 78, 59
3, 500279, Note_on_c, 0, 78, 0
3, 500280, Note_on_c, 0, 76, 59
3, 500339, Note_on_c, 0, 76, 0
3, 500340, Note_on_c, 0, 78, 59
3, 500399, Note_on_c, 0, 78, 0
3, 500400, Note_on_c, 0, 76, 59
3, 500459, Note_on_c, 0, 76, 0
3, 500460, Note_on_c, 0, 78, 59
3, 500519, Note_on_c, 0, 78, 0
3, 500520, Note_on_c, 0, 76, 59
3, 500579, Note_on_c, 0, 76, 0
3, 500580, Note_on_c, 0, 78, 59
3, 500639, Note_on_c, 0, 78, 0
3, 500640, Note_on_c, 0, 76, 59
3, 500699, Note_on_c, 0, 76, 0
3, 500700, Note_on_c, 0, 78, 59
3, 500759, Note_on_c, 0, 78, 0
3, 500760, Note_on_c, 0, 76, 59
3, 500819, Note_on_c, 0, 76, 0
3, 500820, Note_on_c, 0, 78, 59
3, 500879, Note_on_c, 0, 78, 0
3, 500880, Note_on_c, 0, 76, 58
3, 500939, Note_on_c, 0, 76, 0
3, 500940, Note_on_c, 0, 78, 58
3, 500999, Note_on_c, 0, 78, 0
3, 501000, Note_on_c, 0, 76, 58
3, 501059, Note_on_c, 0, 76, 0
3, 501060, Note_on_c, 0, 78, 58
3, 501114, Note_on_c, 0, 78, 0
3, 501120, Note_on_c, 0, 76, 58
3, 501179, Note_on_c, 0, 76, 0
3, 501180, Note_on_c, 0, 78, 58
3, 501239, Note_on_c, 0, 78, 0
3, 501240, Note_on_c, 0, 76, 58
3, 501299, Note_on_c, 0, 76, 0
3, 501300, Note_on_c, 0, 78, 58
3, 501359, Note_on_c, 0, 78, 0
3, 501360, Note_on_c, 0, 76, 58
3, 501419, Note_on_c, 0, 76, 0
3, 501420, Note_on_c, 0, 78, 58
3, 501479, Note_on_c, 0, 78, 0
3, 501480, Note_on_c, 0, 76, 58
3, 501539, Note_on_c, 0, 76, 0
3, 501540, Note_on_c, 0, 78, 58
3, 501599, Note_on_c, 0, 78, 0
3, 501600, Note_on_c, 0, 76, 58
3, 501659, Note_on_c, 0, 76, 0
3, 501660, Note_on_c, 0, 78, 58
3, 501719, Note_on_c, 0, 78, 0
3, 501720, Note_on_c, 0, 76, 58
3, 501779, Note_on_c, 0, 76, 0
3, 501780, Note_on_c, 0, 78, 58
3, 501839, Note_on_c, 0, 78, 0
3, 501840, Note_on_c, 0, 76, 58
3, 501899, Note_on_c, 0, 76, 0
3, 501900, Note_on_c, 0, 78, 58
3, 501959, Note_on_c, 0, 78, 0
3, 501960, Note_on_c, 0, 76, 58
3, 502019, Note_on_c, 0, 76, 0
3, 502020, Note_on_c, 0, 78, 58
3, 502074, Note_on_c, 0, 78, 0
3, 502080, Note_on_c, 0, 76, 58
3, 502139, Note_on_c, 0, 76, 0
3, 502140, Note_on_c, 0, 78, 58
3, 502199, Note_on_c, 0, 78, 0
3, 502200, Note_on_c, 0, 76, 58
3, 502259, Note_on_c, 0, 76, 0
3, 502260, Note_on_c, 0, 78, 58
3, 502319, Note_on_c, 0, 78, 0
3, 502320, Note_on_c, 0, 76, 58
3, 502379, Note_on_c, 0, 76, 0
3, 502380, Note_on_c, 0, 78, 58
3, 502439, Note_on_c, 0, 78, 0
3, 502440, Note_on_c, 0, 76, 58
3, 502499, Note_on_c, 0, 76, 0
3, 502500, Note_on_c, 0, 78, 58
3, 502559, Note_on_c, 0, 78, 0
3, 502560, Note_on_c, 0, 76, 58
3, 502619, Note_on_c, 0, 76, 0
3, 502620, Note_on_c, 0, 78, 58
3, 502679, Note_on_c, 0, 78, 0
3, 502680, Note_on_c, 0, 76, 58
3, 502739, Note_on_c, 0, 76, 0
3, 502740, Note_on_c, 0, 78, 58
3, 502799, Note_on_c, 0, 78, 0
3, 502800, Note_on_c, 0, 76, 58
3, 502859, Note_on_c, 0, 76, 0
3, 502860, Note_on_c, 0, 78, 58
3, 502919, Note_on_c, 0, 78, 0
3, 502920, Note_on_c, 0, 76, 58
3, 502979, Note_on_c, 0, 76, 0
3, 502980, Note_on_c, 0, 78, 58
3, 503034, Note_on_c, 0, 78, 0
3, 503040, Note_on_c, 0, 79, 58
3, 503099, Note_on_c, 0, 79, 0
3, 503100, Note_on_c, 0, 81, 58
3, 503159, Note_on_c, 0, 81, 0
3, 503160, Note_on_c, 0, 79, 59
3, 503219, Note_on_c, 0, 79, 0
3, 503220, Note_on_c, 0, 81, 59
3, 503279, Note_on_c, 0, 81, 0
3, 503280, Note_on_c, 0, 79, 60
3, 503339, Note_on_c, 0, 79, 0
3, 503340, Note_on_c, 0, 81, 60
3, 503399, Note_on_c, 0, 81, 0
3, 503400, Note_on_c, 0, 79, 61
3, 503459, Note_on_c, 0, 79, 0
3, 503460, Note_on_c, 0, 81, 61
3, 503519, Note_on_c, 0, 81, 0
3, 503520, Note_on_c, 0, 79, 62
3, 503579, Note_on_c, 0, 79, 0
3, 503580, Note_on_c, 0, 81, 63
3, 503639, Note_on_c, 0, 81, 0
3, 503640, Note_on_c, 0, 79, 63
3, 503699, Note_on_c, 0, 79, 0
3, 503700, Note_on_c, 0, 81, 64
3, 503759, Note_on_c, 0, 81, 0
3, 503760, Note_on_c, 0, 79, 64
3, 503819, Note_on_c, 0, 79, 0
3, 503820, Note_on_c, 0, 81, 65
3, 503879, Note_on_c, 0, 81, 0
3, 503880, Note_on_c, 0, 79, 65
3, 503939, Note_on_c, 0, 79, 0
3, 503940, Note_on_c, 0, 81, 66
3, 503994, Note_on_c, 0, 81, 0
3, 504000, Note_on_c, 0, 79, 67
3, 504059, Note_on_c, 0, 79, 0
3, 504060, Note_on_c, 0, 81, 67
3, 504119, Note_on_c, 0, 81, 0
3, 504120, Note_on_c, 0, 79, 68
3, 504179, Note_on_c, 0, 79, 0
3, 504180, Note_on_c, 0, 81, 68
3, 504239, Note_on_c, 0, 81, 0
3, 504240, Note_on_c, 0, 79, 69
3, 504299, Note_on_c, 0, 79, 0
3, 504300, Note_on_c, 0, 81, 69
3, 504359, Note_on_c, 0, 81, 0
3, 504360, Note_on_c, 0, 79, 70
3, 504419, Note_on_c, 0, 79, 0
3, 504420, Note_on_c, 0, 81, 71
3, 504479, Note_on_c, 0, 81, 0
3, 504480, Note_on_c, 0, 79, 71
3, 504539, Note_on_c, 0, 79, 0
3, 504540, Note_on_c, 0, 81, 72
3, 504599, Note_on_c, 0, 81, 0
3, 504600, Note_on_c, 0, 79, 72
3, 504659, Note_on_c, 0, 79, 0
3, 504660, Note_on_c, 0, 81, 73
3, 504719, Note_on_c, 0, 81, 0
3, 504720, Note_on_c, 0, 79, 74
3, 504779, Note_on_c, 0, 79, 0
3, 504780, Note_on_c, 0, 81, 74
3, 504839, Note_on_c, 0, 81, 0
3, 504840, Note_on_c, 0, 79, 75
3, 504899, Note_on_c, 0, 79, 0
3, 504900, Note_on_c, 0, 81, 75
3, 504954, Note_on_c, 0, 81, 0
3, 504960, Note_on_c, 0, 85, 76
3, 505019, Note_on_c, 0, 85, 0
3, 505020, Note_on_c, 0, 86, 76
3, 505079, Note_on_c, 0, 86, 0
3, 505080, Note_on_c, 0, 85, 77
3, 505139, Note_on_c, 0, 85, 0
3, 505140, Note_on_c, 0, 86, 78
3, 505199, Note_on_c, 0, 86, 0
3, 505200, Note_on_c, 0, 85, 78
3, 505259, Note_on_c, 0, 85, 0
3, 505260, Note_on_c, 0, 86, 79
3, 505319, Note_on_c, 0, 86, 0
3, 505320, Note_on_c, 0, 85, 79
3, 505379, Note_on_c, 0, 85, 0
3, 505380, Note_on_c, 0, 86, 80
3, 505439, Note_on_c, 0, 86, 0
3, 505440, Note_on_c, 0, 85, 80
3, 505499, Note_on_c, 0, 85, 0
3, 505500, Note_on_c, 0, 86, 81
3, 505559, Note_on_c, 0, 86, 0
3, 505560, Note_on_c, 0, 85, 81
3, 505619, Note_on_c, 0, 85, 0
3, 505620, Note_on_c, 0, 86, 82
3, 505679, Note_on_c, 0, 86, 0
3, 505680, Note_on_c, 0, 85, 83
3, 505739, Note_on_c, 0, 85, 0
3, 505740, Note_on_c, 0, 86, 83
3, 505799, Note_on_c, 0, 86, 0
3, 505800, Note_on_c, 0, 85, 84
3, 505859, Note_on_c, 0, 85, 0
3, 505860, Note_on_c, 0, 86, 84
3, 505914, Note_on_c, 0, 86, 0
3, 505920, Note_on_c, 0, 85, 85
3, 505979, Note_on_c, 0, 85, 0
3, 505980, Note_on_c, 0, 86, 85
3, 506039, Note_on_c, 0, 86, 0
3, 506040, Note_on_c, 0, 85, 86
3, 506099, Note_on_c, 0, 85, 0
3, 506100, Note_on_c, 0, 86, 87
3, 506159, Note_on_c, 0, 86, 0
3, 506160, Note_on_c, 0, 85, 87
3, 506219, Note_on_c, 0, 85, 0
3, 506220, Note_on_c, 0, 86, 88
3, 506279, Note_on_c, 0, 86, 0
3, 506280, Note_on_c, 0, 85, 88
3, 506339, Note_on_c, 0, 85, 0
3, 506340, Note_on_c, 0, 86, 89
3, 506399, Note_on_c, 0, 86, 0
3, 506400, Note_on_c, 0, 85, 90
3, 506459, Note_on_c, 0, 85, 0
3, 506460, Note_on_c, 0, 86, 90
3, 506519, Note_on_c, 0, 86, 0
3, 506520, Note_on_c, 0, 85, 91
3, 506579, Note_on_c, 0, 85, 0
3, 506580, Note_on_c, 0, 86, 91
3, 506639, Note_on_c, 0, 86, 0
3, 506640, Note_on_c, 0, 85, 92
3, 506699, Note_on_c, 0, 85, 0
3, 506700, Note_on_c, 0, 86, 92
3, 506759, Note_on_c, 0, 86, 0
3, 506760, Note_on_c, 0, 83, 93
3, 506819, Note_on_c, 0, 83, 0
3, 506820, Note_on_c, 0, 85, 94
3, 506874, Note_on_c, 0, 85, 0
3, 506880, Note_on_c, 0, 86, 94
3, 507096, Note_on_c, 0, 86, 0
3, 507651, Control_c, 0, 64, 0
3, 508080, Note_on_c, 0, 81, 96
3, 508097, Control_c, 0, 64, 127
3, 508134, Note_on_c, 0, 81, 0
3, 508200, Note_on_c, 0, 86, 96
3, 508254, Note_on_c, 0, 86, 0
3, 508320, Note_on_c, 0, 81, 96
3, 508320, Note_on_c, 0, 88, 96
3, 508374, Note_on_c, 0, 88, 0
3, 508374, Note_on_c, 0, 81, 0
3, 508440, Note_on_c, 0, 90, 96
3, 508440, Note_on_c, 0, 86, 96
3, 508494, Note_on_c, 0, 86, 0
3, 508494, Note_on_c, 0, 90, 0
3, 508560, Note_on_c, 0, 85, 96
3, 508560, Note_on_c, 0, 81, 96
3, 508560, Note_on_c, 0, 93, 96
3, 508560, Note_on_c, 0, 88, 96
3, 508668, Note_on_c, 0, 88, 0
3, 508668, Note_on_c, 0, 85, 0
3, 508668, Note_on_c, 0, 81, 0
3, 508668, Note_on_c, 0, 93, 0
3, 508800, Note_on_c, 0, 81, 96
3, 508800, Note_on_c, 0, 90, 96
3, 508800, Note_on_c, 0, 86, 96
3, 508812, Control_c, 0, 64, 0
3, 508908, Note_on_c, 0, 86, 0
3, 508908, Note_on_c, 0, 90, 0
3, 508908, Note_on_c, 0, 81, 0
3, 509983, Control_c, 0, 64, 127
3, 510000, Note_on_c, 0, 81, 96
3, 510054, Note_on_c, 0, 81, 0
3, 510120, Note_on_c, 0, 86, 96
3, 510174, Note_on_c, 0, 86, 0
3, 510240, Note_on_c, 0, 81, 96
3, 510240, Note_on_c, 0, 88, 96
3, 510294, Note_on_c, 0, 88, 0
3, 510294, Note_on_c, 0, 81, 0
3, 510360, Note_on_c, 0, 90, 96
3, 510360, Note_on_c, 0, 86, 96
3, 510414, Note_on_c, 0, 86, 0
3, 510414, Note_on_c, 0, 90, 0
3, 510480, Note_on_c, 0, 93, 96
3, 510480, Note_on_c, 0, 88, 96
3, 510480, Note_on_c, 0, 85, 96
3, 510480, Note_on_c, 0, 81, 96
3, 510588, Note_on_c, 0, 81, 0
3, 510588, Note_on_c, 0, 93, 0
3, 510588, Note_on_c, 0, 88, 0
3, 510588, Note_on_c, 0, 85, 0
3, 510634, Control_c, 0, 64, 0
3, 510720, Control_c, 0, 64, 127
3, 510720, Note_on_c, 0, 90, 96
3, 510720, Note_on_c, 0, 86, 96
3, 510720, Note_on_c, 0, 81, 96
3, 510828, Note_on_c, 0, 81, 0
3, 510828, Note_on_c, 0, 86, 0
3, 510828, Note_on_c, 0, 90, 0
3, 510960, Note_on_c, 0, 81, 96
3, 510960, Note_on_c, 0, 76, 96
3, 511068, Note_on_c, 0, 76, 0
3, 511068, Note_on_c, 0, 81, 0
3, 511200, Note_on_c, 0, 78, 96
3, 511308, Note_on_c, 0, 78, 0
3, 511440, Note_on_c, 0, 76, 96
3, 511440, Note_on_c, 0, 81, 96
3, 511548, Note_on_c, 0, 81, 0
3, 511548, Note_on_c, 0, 76, 0
3, 511680, Note_on_c, 0, 78, 96
3, 511788, Note_on_c, 0, 78, 0
3, 511920, Note_on_c, 0, 81, 96
3, 511920, Note_on_c, 0, 76, 96
3, 512028, Note_on_c, 0, 76, 0
3, 512028, Note_on_c, 0, 81, 0
3, 512160, Note_on_c, 0, 78, 96
3, 512160, Note_on_c, 0, 86, 96
3, 512160, Note_on_c, 0, 81, 96
3, 512268, Note_on_c, 0, 81, 0
3, 512268, Note_on_c, 0, 86, 0
3, 512268, Note_on_c, 0, 78, 0
3, 512400, Note_on_c, 0, 81, 96
3, 512400, Note_on_c, 0, 88, 96
3, 512400, Note_on_c, 0, 85, 96
3, 512508, Note_on_c, 0, 85, 0
3, 512508, Note_on_c, 0, 88, 0
3, 512508, Note_on_c, 0, 81, 0
3, 512509, Control_c, 0, 64, 0
3, 512640, Note_on_c, 0, 81, 96
3, 512640, Note_on_c, 0, 90, 96
3, 512640, Note_on_c, 0, 86, 96
3, 512700, Note_on_c, 0, 86, 0
3, 512700, Note_on_c, 0, 90, 0
3, 512700, Note_on_c, 0, 81, 0
3, 513120, Note_on_c, 0, 85, 96
3, 513120, Note_on_c, 0, 93, 96
3, 513120, Note_on_c, 0, 88, 96
3, 513174, Note_on_c, 0, 88, 0
3, 513174, Note_on_c, 0, 93, 0
3, 513174, Note_on_c, 0, 85, 0
3, 513600, Note_on_c, 0, 81, 96
3, 513600, Note_on_c, 0, 90, 96
3, 513600, Note_on_c, 0, 86, 96
3, 513720, Note_on_c, 0, 86, 0
3, 513720, Note_on_c, 0, 90, 0
3, 513720, Note_on_c, 0, 81, 0
3, 514080, Note_on_c, 0, 85, 96
3, 514080, Note_on_c, 0, 93, 96
3, 514080, Note_on_c, 0, 88, 96
3, 514134, Note_on_c, 0, 88, 0
3, 514134, Note_on_c, 0, 93, 0
3, 514134, Note_on_c, 0, 85, 0
3, 514560, Control_c, 0, 64, 127
3, 514560, Note_on_c, 0, 78, 96
3, 514560, Note_on_c, 0, 86, 96
3, 514560, Note_on_c, 0, 81, 96
3, 515424, Note_on_c, 0, 81, 0
3, 515424, Note_on_c, 0, 86, 0
3, 515424, Note_on_c, 0, 78, 0
3, 516960, Control_c, 0, 64, 0
3, 516960, End_track
4, 0, Start_track
4, 0, Title_t, "Track 3"
4, 0, Program_c, 0, 0
4, 0, Control_c, 0, 7, 115
4, 0, Control_c, 0, 10, 47
4, 1440, Note_on_c, 0, 74, 100
4, 1764, Note_on_c, 0, 74, 0
4, 1800, Note_on_c, 0, 74, 91
4, 1820, Control_c, 0, 64, 127
4, 1908, Note_on_c, 0, 74, 0
4, 1920, Note_on_c, 0, 73, 93
4, 2028, Note_on_c, 0, 73, 0
4, 2040, Note_on_c, 0, 74, 95
4, 2148, Note_on_c, 0, 74, 0
4, 2160, Note_on_c, 0, 76, 97
4, 2268, Note_on_c, 0, 76, 0
4, 2280, Note_on_c, 0, 77, 99
4, 2388, Note_on_c, 0, 77, 0
4, 2400, Note_on_c, 0, 73, 91
4, 2540, Control_c, 0, 64, 0
4, 2616, Note_on_c, 0, 73, 0
4, 2760, Note_on_c, 0, 74, 93
4, 2800, Control_c, 0, 64, 127
4, 2868, Note_on_c, 0, 74, 0
4, 2880, Note_on_c, 0, 73, 95
4, 2988, Note_on_c, 0, 73, 0
4, 3000, Note_on_c, 0, 74, 96
4, 3108, Note_on_c, 0, 74, 0
4, 3120, Note_on_c, 0, 76, 98
4, 3228, Note_on_c, 0, 76, 0
4, 3240, Note_on_c, 0, 77, 100
4, 3348, Note_on_c, 0, 77, 0
4, 3360, Note_on_c, 0, 73, 93
4, 3576, Note_on_c, 0, 73, 0
4, 3720, Note_on_c, 0, 69, 87
4, 3756, Note_on_c, 0, 69, 0
4, 3760, Control_c, 0, 64, 0
4, 3760, Note_on_c, 0, 71, 92
4, 3796, Note_on_c, 0, 71, 0
4, 3800, Note_on_c, 0, 73, 97
4, 3836, Note_on_c, 0, 73, 0
4, 3840, Control_c, 0, 64, 127
4, 3840, Note_on_c, 0, 74, 103
4, 4056, Note_on_c, 0, 74, 0
4, 4080, Note_on_c, 0, 79, 100
4, 4080, Note_on_c, 0, 74, 100
4, 4512, Note_on_c, 0, 74, 0
4, 4512, Note_on_c, 0, 79, 0
4, 4560, Note_on_c, 0, 81, 89
4, 4776, Note_on_c, 0, 81, 0
4, 4800, Note_on_c, 0, 82, 91
4, 5016, Note_on_c, 0, 82, 0
4, 5040, Note_on_c, 0, 86, 94
4, 5040, Note_on_c, 0, 81, 94
4, 5256, Note_on_c, 0, 81, 0
4, 5256, Note_on_c, 0, 86, 0
4, 5280, Note_on_c, 0, 91, 97
4, 5280, Note_on_c, 0, 82, 97
4, 5670, Control_c, 0, 64, 0
4, 5712, Note_on_c, 0, 82, 0
4, 5712, Note_on_c, 0, 91, 0
4, 5760, Control_c, 0, 64, 127
4, 5760, Note_on_c, 0, 94, 96
4, 5760, Note_on_c, 0, 91, 96
4, 5976, Note_on_c, 0, 91, 0
4, 5976, Note_on_c, 0, 94, 0
4, 6000, Note_on_c, 0, 93, 94
4, 6000, Note_on_c, 0, 89, 94
4, 6216, Note_on_c, 0, 89, 0
4, 6216, Note_on_c, 0, 93, 0
4, 6240, Note_on_c, 0, 91, 91
4, 6240, Note_on_c, 0, 88, 91
4, 6456, Note_on_c, 0, 88, 0
4, 6456, Note_on_c, 0, 91, 0
4, 6480, Note_on_c, 0, 89, 89
4, 6480, Note_on_c, 0, 86, 89
4, 6696, Note_on_c, 0, 86, 0
4, 6696, Note_on_c, 0, 89, 0
4, 6720, Note_on_c, 0, 88, 86
4, 6720, Note_on_c, 0, 85, 86
4, 6936, Note_on_c, 0, 85, 0
4, 6936, Note_on_c, 0, 88, 0
4, 6960, Note_on_c, 0, 86, 80
4, 7014, Note_on_c, 0, 86, 0
4, 7020, Note_on_c, 0, 88, 84
4, 7074, Note_on_c, 0, 88, 0
4, 7080, Note_on_c, 0, 85, 88
4, 7188, Note_on_c, 0, 85, 0
4, 7200, Note_on_c, 0, 86, 90
4, 7308, Note_on_c, 0, 86, 0
4, 7320, Note_on_c, 0, 85, 90
4, 7536, Note_on_c, 0, 85, 0
4, 7560, Control_c, 0, 64, 0
4, 7680, Control_c, 0, 64, 127
4, 7680, Note_on_c, 0, 81, 90
4, 7788, Note_on_c, 0, 81, 0
4, 7920, Note_on_c, 0, 86, 100
4, 8352, Note_on_c, 0, 86, 0
4, 8640, Control_c, 0, 64, 0
4, 8880, Note_on_c, 0, 81, 90
4, 9096, Note_on_c, 0, 81, 0
4, 9120, Note_on_c, 0, 86, 100
4, 9444, Note_on_c, 0, 86, 0
4, 9480, Note_on_c, 0, 86, 87
4, 9588, Note_on_c, 0, 86, 0
4, 9600, Control_c, 0, 64, 127
4, 9600, Note_on_c, 0, 85, 90
4, 9708, Note_on_c, 0, 85, 0
4, 9720, Note_on_c, 0, 86, 92
4, 9828, Note_on_c, 0, 86, 0
4, 9840, Note_on_c, 0, 88, 95
4, 9948, Note_on_c, 0, 88, 0
4, 9960, Note_on_c, 0, 89, 97
4, 10068, Note_on_c, 0, 89, 0
4, 10080, Note_on_c, 0, 85, 90
4, 10296, Note_on_c, 0, 85, 0
4, 10440, Note_on_c, 0, 86, 91
4, 10548, Note_on_c, 0, 86, 0
4, 10560, Control_c, 0, 64, 0
4, 10560, Note_on_c, 0, 85, 93
4, 10630, Control_c, 0, 64, 127
4, 10668, Note_on_c, 0, 85, 0
4, 10680, Note_on_c, 0, 86, 95
4, 10788, Note_on_c, 0, 86, 0
4, 10800, Note_on_c, 0, 88, 97
4, 10908, Note_on_c, 0, 88, 0
4, 10920, Note_on_c, 0, 89, 99
4, 11028, Note_on_c, 0, 89, 0
4, 11040, Note_on_c, 0, 85, 90
4, 11256, Note_on_c, 0, 85, 0
4, 11400, Note_on_c, 0, 81, 90
4, 11436, Note_on_c, 0, 81, 0
4, 11440, Note_on_c, 0, 83, 94
4, 11476, Note_on_c, 0, 83, 0
4, 11480, Note_on_c, 0, 85, 98
4, 11516, Note_on_c, 0, 85, 0
4, 11520, Note_on_c, 0, 86, 102
4, 11736, Note_on_c, 0, 86, 0
4, 11760, Note_on_c, 0, 91, 100
4, 11760, Note_on_c, 0, 86, 100
4, 12072, Control_c, 0, 64, 0
4, 12192, Note_on_c, 0, 86, 0
4, 12192, Note_on_c, 0, 91, 0
4, 12240, Note_on_c, 0, 81, 79
4, 12294, Note_on_c, 0, 81, 0
4, 12300, Note_on_c, 0, 82, 84
4, 12354, Note_on_c, 0, 82, 0
4, 12360, Note_on_c, 0, 81, 89
4, 12414, Note_on_c, 0, 81, 0
4, 12420, Note_on_c, 0, 82, 94
4, 12474, Note_on_c, 0, 82, 0
4, 12480, Control_c, 0, 64, 127
4, 12480, Note_on_c, 0, 82, 99
4, 12696, Note_on_c, 0, 82, 0
4, 12720, Note_on_c, 0, 86, 89
4, 12720, Note_on_c, 0, 81, 89
4, 12936, Note_on_c, 0, 81, 0
4, 12936, Note_on_c, 0, 86, 0
4, 12960, Note_on_c, 0, 91, 97
4, 12960, Note_on_c, 0, 82, 97
4, 13392, Note_on_c, 0, 82, 0
4, 13392, Note_on_c, 0, 91, 0
4, 13440, Control_c, 0, 64, 0
4, 13440, Note_on_c, 0, 95, 95
4, 13440, Note_on_c, 0, 91, 95
4, 13656, Note_on_c, 0, 91, 0
4, 13656, Note_on_c, 0, 95, 0
4, 13680, Note_on_c, 0, 93, 92
4, 13680, Note_on_c, 0, 90, 92
4, 13896, Note_on_c, 0, 90, 0
4, 13896, Note_on_c, 0, 93, 0
4, 13920, Note_on_c, 0, 91, 90
4, 13920, Note_on_c, 0, 88, 90
4, 14136, Note_on_c, 0, 88, 0
4, 14136, Note_on_c, 0, 91, 0
4, 14160, Note_on_c, 0, 90, 87
4, 14160, Note_on_c, 0, 86, 87
4, 14376, Note_on_c, 0, 86, 0
4, 14376, Note_on_c, 0, 90, 0
4, 14400, Note_on_c, 0, 85, 84
4, 14400, Control_c, 0, 64, 127
4, 14400, Note_on_c, 0, 88, 84
4, 14616, Note_on_c, 0, 88, 0
4, 14616, Note_on_c, 0, 85, 0
4, 14640, Note_on_c, 0, 86, 96
4, 14640, Note_on_c, 0, 83, 96
4, 14694, Note_on_c, 0, 83, 0
4, 14694, Note_on_c, 0, 86, 0
4, 14700, Note_on_c, 0, 88, 94
4, 14700, Note_on_c, 0, 85, 94
4, 14754, Note_on_c, 0, 85, 0
4, 14754, Note_on_c, 0, 88, 0
4, 14760, Note_on_c, 0, 85, 92
4, 14760, Note_on_c, 0, 81, 92
4, 14814, Note_on_c, 0, 81, 0
4, 14814, Note_on_c, 0, 85, 0
4, 14820, Note_on_c, 0, 86, 90
4, 14820, Note_on_c, 0, 83, 90
4, 14874, Note_on_c, 0, 83, 0
4, 14874, Note_on_c, 0, 86, 0
4, 14880, Note_on_c, 0, 85, 87
4, 14880, Note_on_c, 0, 81, 87
4, 15040, Control_c, 0, 64, 0
4, 15096, Note_on_c, 0, 81, 0
4, 15096, Note_on_c, 0, 85, 0
4, 15120, Note_on_c, 0, 81, 94
4, 15174, Note_on_c, 0, 81, 0
4, 15180, Note_on_c, 0, 83, 92
4, 15234, Note_on_c, 0, 83, 0
4, 15240, Note_on_c, 0, 80, 89
4, 15294, Note_on_c, 0, 80, 0
4, 15300, Note_on_c, 0, 81, 87
4, 15354, Note_on_c, 0, 81, 0
4, 15360, Control_c, 0, 64, 127
4, 15360, Note_on_c, 0, 83, 85
4, 15360, Note_on_c, 0, 79, 85
4, 15576, Note_on_c, 0, 79, 0
4, 15576, Note_on_c, 0, 83, 0
4, 15600, Note_on_c, 0, 81, 100
4, 15816, Note_on_c, 0, 81, 0
4, 15840, Note_on_c, 0, 79, 96
4, 16056, Note_on_c, 0, 79, 0
4, 16080, Note_on_c, 0, 77, 92
4, 16296, Note_on_c, 0, 77, 0
4, 16320, Control_c, 0, 64, 0
4, 16320, Note_on_c, 0, 76, 89
4, 16536, Note_on_c, 0, 76, 0
4, 16560, Note_on_c, 0, 74, 88
4, 16608, Control_c, 0, 64, 127
4, 16614, Note_on_c, 0, 74, 0
4, 16620, Note_on_c, 0, 76, 88
4, 16674, Note_on_c, 0, 76, 0
4, 16680, Note_on_c, 0, 73, 84
4, 16734, Note_on_c, 0, 73, 0
4, 16740, Note_on_c, 0, 74, 84
4, 16794, Note_on_c, 0, 74, 0
4, 16800, Note_on_c, 0, 73, 84
4, 17016, Note_on_c, 0, 73, 0
4, 17040, Note_on_c, 0, 76, 80
4, 17424, Control_c, 0, 64, 0
4, 17496, Note_on_c, 0, 76, 0
4, 17520, Note_on_c, 0, 74, 77
4, 17556, Control_c, 0, 64, 127
4, 17574, Note_on_c, 0, 74, 0
4, 17580, Note_on_c, 0, 76, 77
4, 17634, Note_on_c, 0, 76, 0
4, 17640, Note_on_c, 0, 73, 73
4, 17694, Note_on_c, 0, 73, 0
4, 17700, Note_on_c, 0, 74, 73
4, 17754, Note_on_c, 0, 74, 0
4, 17760, Note_on_c, 0, 73, 73
4, 17976, Note_on_c, 0, 73, 0
4, 18000, Note_on_c, 0, 76, 70
4, 18372, Control_c, 0, 64, 0
4, 18456, Note_on_c, 0, 76, 0
4, 18468, Control_c, 0, 64, 127
4, 18480, Note_on_c, 0, 74, 67
4, 18534, Note_on_c, 0, 74, 0
4, 18540, Note_on_c, 0, 76, 66
4, 18594, Note_on_c, 0, 76, 0
4, 18600, Note_on_c, 0, 73, 66
4, 18654, Note_on_c, 0, 73, 0
4, 18660, Note_on_c, 0, 74, 64
4, 18714, Note_on_c, 0, 74, 0
4, 18720, Note_on_c, 0, 73, 64
4, 18936, Note_on_c, 0, 73, 0
4, 18960, Note_on_c, 0, 76, 64
4, 19320, Control_c, 0, 64, 0
4, 19416, Note_on_c, 0, 76, 0
4, 19440, Note_on_c, 0, 75, 58
4, 19464, Control_c, 0, 64, 127
4, 19494, Note_on_c, 0, 75, 0
4, 19500, Note_on_c, 0, 76, 58
4, 19554, Note_on_c, 0, 76, 0
4, 19560, Note_on_c, 0, 73, 58
4, 19614, Note_on_c, 0, 73, 0
4, 19620, Note_on_c, 0, 75, 58
4, 19674, Note_on_c, 0, 75, 0
4, 19680, Note_on_c, 0, 73, 56
4, 19896, Note_on_c, 0, 73, 0
4, 19920, Note_on_c, 0, 76, 55
4, 20052, Control_c, 0, 64, 0
4, 20160, Control_c, 0, 64, 127
4, 20268, Note_on_c, 0, 76, 0
4, 20280, Note_on_c, 0, 73, 53
4, 20388, Note_on_c, 0, 73, 0
4, 20400, Note_on_c, 0, 76, 51
4, 20748, Note_on_c, 0, 76, 0
4, 20760, Note_on_c, 0, 73, 47
4, 20868, Note_on_c, 0, 73, 0
4, 20880, Note_on_c, 0, 76, 47
4, 21096, Note_on_c, 0, 76, 0
4, 21120, Note_on_c, 0, 76, 46
4, 21228, Note_on_c, 0, 76, 0
4, 21240, Note_on_c, 0, 73, 46
4, 21348, Note_on_c, 0, 73, 0
4, 21360, Note_on_c, 0, 76, 44
4, 21420, Control_c, 0, 64, 0
4, 21708, Note_on_c, 0, 76, 0
4, 21720, Note_on_c, 0, 73, 46
4, 21828, Note_on_c, 0, 73, 0
4, 21840, Note_on_c, 0, 76, 46
4, 21948, Note_on_c, 0, 76, 0
4, 21960, Note_on_c, 0, 73, 45
4, 22068, Note_on_c, 0, 73, 0
4, 22080, Note_on_c, 0, 76, 90
4, 22188, Note_on_c, 0, 76, 0
4, 22200, Note_on_c, 0, 68, 90
4, 22308, Note_on_c, 0, 68, 0
4, 22320, Note_on_c, 0, 73, 90
4, 22428, Note_on_c, 0, 73, 0
4, 22440, Note_on_c, 0, 68, 90
4, 22548, Note_on_c, 0, 68, 0
4, 22560, Note_on_c, 0, 73, 90
4, 22668, Note_on_c, 0, 73, 0
4, 22680, Note_on_c, 0, 64, 90
4, 22788, Note_on_c, 0, 64, 0
4, 22800, Note_on_c, 0, 68, 93
4, 22908, Note_on_c, 0, 68, 0
4, 22920, Note_on_c, 0, 64, 94
4, 23028, Note_on_c, 0, 64, 0
4, 23040, Note_on_c, 0, 68, 96
4, 23148, Note_on_c, 0, 68, 0
4, 23160, Note_on_c, 0, 61, 97
4, 23268, Note_on_c, 0, 61, 0
4, 23280, Note_on_c, 0, 64, 99
4, 23388, Note_on_c, 0, 64, 0
4, 23400, Note_on_c, 0, 61, 100
4, 23508, Note_on_c, 0, 61, 0
4, 23520, Note_on_c, 0, 64, 102
4, 23628, Note_on_c, 0, 64, 0
4, 23640, Note_on_c, 0, 56, 90
4, 23748, Note_on_c, 0, 56, 0
4, 23760, Note_on_c, 0, 61, 90
4, 23868, Note_on_c, 0, 61, 0
4, 23880, Note_on_c, 0, 57, 90
4, 23988, Note_on_c, 0, 57, 0
4, 24000, Note_on_c, 0, 61, 91
4, 24108, Note_on_c, 0, 61, 0
4, 24120, Note_on_c, 0, 56, 92
4, 24228, Note_on_c, 0, 56, 0
4, 24240, Note_on_c, 0, 61, 94
4, 24348, Note_on_c, 0, 61, 0
4, 24360, Note_on_c, 0, 55, 95
4, 24468, Note_on_c, 0, 55, 0
4, 24480, Note_on_c, 0, 61, 97
4, 24588, Note_on_c, 0, 61, 0
4, 24600, Note_on_c, 0, 56, 98
4, 24708, Note_on_c, 0, 56, 0
4, 24720, Note_on_c, 0, 61, 100
4, 24828, Note_on_c, 0, 61, 0
4, 24840, Note_on_c, 0, 57, 101
4, 24948, Note_on_c, 0, 57, 0
4, 24960, Note_on_c, 0, 61, 103
4, 25068, Note_on_c, 0, 61, 0
4, 25080, Note_on_c, 0, 56, 104
4, 25188, Note_on_c, 0, 56, 0
4, 25200, Note_on_c, 0, 61, 90
4, 25308, Note_on_c, 0, 61, 0
4, 25320, Note_on_c, 0, 55, 90
4, 25428, Note_on_c, 0, 55, 0
4, 25440, Note_on_c, 0, 61, 90
4, 25548, Note_on_c, 0, 61, 0
4, 25560, Note_on_c, 0, 56, 90
4, 25668, Note_on_c, 0, 56, 0
4, 25680, Note_on_c, 0, 61, 90
4, 25788, Note_on_c, 0, 61, 0
4, 25800, Note_on_c, 0, 57, 92
4, 25908, Note_on_c, 0, 57, 0
4, 25920, Note_on_c, 0, 61, 93
4, 26028, Note_on_c, 0, 61, 0
4, 26040, Note_on_c, 0, 61, 94
4, 26148, Note_on_c, 0, 61, 0
4, 26160, Note_on_c, 0, 64, 95
4, 26268, Note_on_c, 0, 64, 0
4, 26280, Note_on_c, 0, 64, 96
4, 26388, Note_on_c, 0, 64, 0
4, 26400, Note_on_c, 0, 67, 98
4, 26508, Note_on_c, 0, 67, 0
4, 26520, Note_on_c, 0, 67, 99
4, 26628, Note_on_c, 0, 67, 0
4, 26640, Note_on_c, 0, 73, 100
4, 26748, Note_on_c, 0, 73, 0
4, 26760, Note_on_c, 0, 73, 101
4, 26868, Note_on_c, 0, 73, 0
4, 26880, Note_on_c, 0, 73, 100
4, 26988, Note_on_c, 0, 73, 0
4, 27000, Note_on_c, 0, 73, 100
4, 27108, Note_on_c, 0, 73, 0
4, 27120, Note_on_c, 0, 76, 100
4, 27228, Note_on_c, 0, 76, 0
4, 27240, Note_on_c, 0, 76, 100
4, 27348, Note_on_c, 0, 76, 0
4, 27360, Note_on_c, 0, 79, 101
4, 27468, Note_on_c, 0, 79, 0
4, 27480, Note_on_c, 0, 79, 101
4, 27588, Note_on_c, 0, 79, 0
4, 27600, Note_on_c, 0, 85, 101
4, 27708, Note_on_c, 0, 85, 0
4, 27720, Note_on_c, 0, 85, 102
4, 27828, Note_on_c, 0, 85, 0
4, 27840, Note_on_c, 0, 88, 102
4, 27948, Note_on_c, 0, 88, 0
4, 27960, Note_on_c, 0, 88, 102
4, 28068, Note_on_c, 0, 88, 0
4, 28080, Note_on_c, 0, 91, 103
4, 28188, Note_on_c, 0, 91, 0
4, 28200, Note_on_c, 0, 91, 103
4, 28308, Note_on_c, 0, 91, 0
4, 28320, Note_on_c, 0, 97, 103
4, 28335, Control_c, 0, 64, 127
4, 28428, Note_on_c, 0, 97, 0
4, 28440, Note_on_c, 0, 97, 103
4, 28548, Note_on_c, 0, 97, 0
4, 28560, Note_on_c, 0, 100, 104
4, 28668, Note_on_c, 0, 100, 0
4, 28680, Note_on_c, 0, 100, 104
4, 28788, Note_on_c, 0, 100, 0
4, 28800, Note_on_c, 0, 91, 104
4, 28872, Note_on_c, 0, 91, 0
4, 28880, Note_on_c, 0, 89, 104
4, 28952, Note_on_c, 0, 89, 0
4, 28960, Note_on_c, 0, 88, 105
4, 29032, Note_on_c, 0, 88, 0
4, 29040, Note_on_c, 0, 86, 104
4, 29112, Note_on_c, 0, 86, 0
4, 29120, Note_on_c, 0, 85, 103
4, 29192, Note_on_c, 0, 85, 0
4, 29200, Note_on_c, 0, 83, 103
4, 29272, Note_on_c, 0, 83, 0
4, 29280, Note_on_c, 0, 81, 102
4, 29352, Note_on_c, 0, 81, 0
4, 29360, Note_on_c, 0, 79, 101
4, 29432, Note_on_c, 0, 79, 0
4, 29440, Note_on_c, 0, 77, 100
4, 29512, Note_on_c, 0, 77, 0
4, 29520, Note_on_c, 0, 76, 99
4, 29592, Note_on_c, 0, 76, 0
4, 29600, Note_on_c, 0, 74, 99
4, 29672, Note_on_c, 0, 74, 0
4, 29680, Note_on_c, 0, 73, 98
4, 29752, Note_on_c, 0, 73, 0
4, 29760, Note_on_c, 0, 71, 97
4, 29814, Note_on_c, 0, 71, 0
4, 29820, Note_on_c, 0, 69, 96
4, 29874, Note_on_c, 0, 69, 0
4, 29880, Note_on_c, 0, 67, 96
4, 29934, Note_on_c, 0, 67, 0
4, 29940, Note_on_c, 0, 65, 95
4, 29994, Note_on_c, 0, 65, 0
4, 30000, Note_on_c, 0, 64, 95
4, 30054, Note_on_c, 0, 64, 0
4, 30060, Note_on_c, 0, 62, 94
4, 30114, Note_on_c, 0, 62, 0
4, 30120, Note_on_c, 0, 61, 93
4, 30174, Note_on_c, 0, 61, 0
4, 30180, Note_on_c, 0, 59, 93
4, 30234, Note_on_c, 0, 59, 0
4, 30240, Note_on_c, 0, 57, 92
4, 30348, Note_on_c, 0, 57, 0
4, 30360, Note_on_c, 0, 55, 91
4, 30414, Note_on_c, 0, 55, 0
4, 30420, Note_on_c, 0, 53, 90
4, 30450, Control_c, 0, 64, 0
4, 30474, Note_on_c, 0, 53, 0
4, 30480, Note_on_c, 0, 52, 90
4, 30534, Note_on_c, 0, 52, 0
4, 30540, Note_on_c, 0, 50, 89
4, 30594, Note_on_c, 0, 50, 0
4, 30600, Note_on_c, 0, 49, 89
4, 30654, Note_on_c, 0, 49, 0
4, 30660, Note_on_c, 0, 47, 88
4, 30714, Note_on_c, 0, 47, 0
4, 35520, Note_on_c, 0, 82, 99
4, 35520, Note_on_c, 0, 79, 99
4, 35535, Control_c, 0, 64, 127
4, 35736, Note_on_c, 0, 79, 0
4, 35736, Note_on_c, 0, 82, 0
4, 35760, Note_on_c, 0, 86, 99
4, 35760, Note_on_c, 0, 81, 99
4, 35976, Note_on_c, 0, 81, 0
4, 35976, Note_on_c, 0, 86, 0
4, 36000, Note_on_c, 0, 91, 99
4, 36000, Note_on_c, 0, 82, 99
4, 36324, Note_on_c, 0, 82, 0
4, 36324, Note_on_c, 0, 91, 0
4, 36345, Control_c, 0, 64, 0
4, 36360, Note_on_c, 0, 89, 99
4, 36468, Note_on_c, 0, 89, 0
4, 36480, Control_c, 0, 64, 127
4, 36480, Note_on_c, 0, 88, 98
4, 36588, Note_on_c, 0, 88, 0
4, 36600, Note_on_c, 0, 89, 98
4, 36708, Note_on_c, 0, 89, 0
4, 36720, Note_on_c, 0, 91, 98
4, 36810, Control_c, 0, 64, 0
4, 36828, Note_on_c, 0, 91, 0
4, 36840, Note_on_c, 0, 85, 98
4, 36840, Note_on_c, 0, 93, 98
4, 36948, Note_on_c, 0, 93, 0
4, 36948, Note_on_c, 0, 85, 0
4, 36960, Note_on_c, 0, 86, 98
4, 37068, Note_on_c, 0, 86, 0
4, 37080, Note_on_c, 0, 88, 98
4, 37188, Note_on_c, 0, 88, 0
4, 37200, Note_on_c, 0, 89, 98
4, 37308, Note_on_c, 0, 89, 0
4, 37320, Note_on_c, 0, 82, 98
4, 37320, Note_on_c, 0, 91, 98
4, 37428, Note_on_c, 0, 91, 0
4, 37428, Note_on_c, 0, 82, 0
4, 37440, Note_on_c, 0, 84, 97
4, 37548, Note_on_c, 0, 84, 0
4, 37560, Note_on_c, 0, 86, 97
4, 37668, Note_on_c, 0, 86, 0
4, 37680, Note_on_c, 0, 88, 97
4, 37788, Note_on_c, 0, 88, 0
4, 37800, Note_on_c, 0, 89, 97
4, 37800, Note_on_c, 0, 84, 97
4, 37908, Note_on_c, 0, 84, 0
4, 37908, Note_on_c, 0, 89, 0
4, 37920, Note_on_c, 0, 82, 97
4, 38136, Note_on_c, 0, 82, 0
4, 38280, Note_on_c, 0, 86, 97
4, 38388, Note_on_c, 0, 86, 0
4, 38400, Control_c, 0, 64, 127
4, 38400, Note_on_c, 0, 84, 97
4, 38508, Note_on_c, 0, 84, 0
4, 38520, Note_on_c, 0, 86, 96
4, 38628, Note_on_c, 0, 86, 0
4, 38640, Note_on_c, 0, 88, 96
4, 38748, Note_on_c, 0, 88, 0
4, 38760, Note_on_c, 0, 89, 96
4, 38760, Note_on_c, 0, 81, 96
4, 38868, Note_on_c, 0, 81, 0
4, 38868, Note_on_c, 0, 89, 0
4, 38880, Note_on_c, 0, 82, 96
4, 38988, Note_on_c, 0, 82, 0
4, 39000, Note_on_c, 0, 84, 96
4, 39108, Note_on_c, 0, 84, 0
4, 39120, Note_on_c, 0, 86, 96
4, 39228, Note_on_c, 0, 86, 0
4, 39240, Note_on_c, 0, 88, 96
4, 39240, Note_on_c, 0, 79, 96
4, 39348, Note_on_c, 0, 79, 0
4, 39348, Note_on_c, 0, 88, 0
4, 39360, Note_on_c, 0, 81, 96
4, 39360, Control_c, 0, 64, 0
4, 39450, Control_c, 0, 64, 127
4, 39468, Note_on_c, 0, 81, 0
4, 39480, Note_on_c, 0, 82, 96
4, 39588, Note_on_c, 0, 82, 0
4, 39600, Note_on_c, 0, 84, 96
4, 39708, Note_on_c, 0, 84, 0
4, 39720, Note_on_c, 0, 81, 96
4, 39720, Note_on_c, 0, 86, 96
4, 39828, Note_on_c, 0, 86, 0
4, 39828, Note_on_c, 0, 81, 0
4, 39840, Note_on_c, 0, 79, 96
4, 39880, Control_c, 0, 64, 0
4, 40056, Note_on_c, 0, 79, 0
4, 40200, Note_on_c, 0, 70, 96
4, 40308, Note_on_c, 0, 70, 0
4, 50400, Note_on_c, 0, 84, 66
4, 50448, Control_c, 0, 64, 127
4, 50832, Note_on_c, 0, 84, 0
4, 50880, Note_on_c, 0, 85, 72
4, 51359, Note_on_c, 0, 85, 0
4, 51360, Note_on_c, 0, 94, 78
4, 51360, Note_on_c, 0, 91, 78
4, 51360, Note_on_c, 0, 82, 78
4, 51792, Note_on_c, 0, 82, 0
4, 51792, Note_on_c, 0, 91, 0
4, 51792, Note_on_c, 0, 94, 0
4, 51840, Note_on_c, 0, 89, 55
4, 51840, Note_on_c, 0, 92, 55
4, 51840, Note_on_c, 0, 80, 55
4, 52272, Note_on_c, 0, 80, 0
4, 52272, Note_on_c, 0, 92, 0
4, 52272, Note_on_c, 0, 89, 0
4, 52680, Control_c, 0, 64, 0
4, 54720, Control_c, 0, 64, 127
4, 54720, Note_on_c, 0, 77, 67
4, 55199, Note_on_c, 0, 77, 0
4, 55200, Note_on_c, 0, 83, 72
4, 55200, Note_on_c, 0, 73, 72
4, 55200, Note_on_c, 0, 71, 72
4, 55632, Note_on_c, 0, 71, 0
4, 55632, Note_on_c, 0, 73, 0
4, 55632, Note_on_c, 0, 83, 0
4, 55680, Note_on_c, 0, 73, 66
4, 56159, Note_on_c, 0, 73, 0
4, 56160, Note_on_c, 0, 73, 79
4, 56592, Note_on_c, 0, 73, 0
4, 56640, Note_on_c, 0, 73, 75
4, 56640, Control_c, 0, 64, 0
4, 57119, Note_on_c, 0, 73, 0
4, 57120, Note_on_c, 0, 73, 72
4, 57552, Note_on_c, 0, 73, 0
4, 59520, Note_on_c, 0, 68, 71
4, 59520, Note_on_c, 0, 73, 71
4, 59532, Control_c, 0, 64, 127
4, 59999, Note_on_c, 0, 73, 0
4, 59999, Note_on_c, 0, 68, 0
4, 60000, Note_on_c, 0, 70, 71
4, 60000, Note_on_c, 0, 73, 71
4, 60432, Note_on_c, 0, 73, 0
4, 60432, Note_on_c, 0, 70, 0
4, 60480, Note_on_c, 0, 68, 74
4, 60480, Note_on_c, 0, 73, 74
4, 60959, Note_on_c, 0, 73, 0
4, 60959, Note_on_c, 0, 68, 0
4, 60960, Note_on_c, 0, 67, 73
4, 60960, Note_on_c, 0, 73, 73
4, 61392, Note_on_c, 0, 73, 0
4, 61392, Note_on_c, 0, 67, 0
4, 61440, Note_on_c, 0, 68, 75
4, 61440, Note_on_c, 0, 72, 75
4, 61919, Note_on_c, 0, 72, 0
4, 61919, Note_on_c, 0, 68, 0
4, 61920, Note_on_c, 0, 71, 75
4, 61920, Note_on_c, 0, 65, 75
4, 62352, Note_on_c, 0, 65, 0
4, 62352, Note_on_c, 0, 71, 0
4, 62400, Note_on_c, 0, 65, 84
4, 62400, Note_on_c, 0, 72, 84
4, 62879, Note_on_c, 0, 72, 0
4, 62879, Note_on_c, 0, 65, 0
4, 62880, Note_on_c, 0, 64, 78
4, 62880, Note_on_c, 0, 58, 78
4, 63264, Control_c, 0, 64, 0
4, 63312, Note_on_c, 0, 58, 0
4, 63312, Note_on_c, 0, 64, 0
4, 63360, Control_c, 0, 64, 127
4, 63360, Note_on_c, 0, 65, 109
4, 63360, Note_on_c, 0, 57, 109
4, 63839, Note_on_c, 0, 57, 0
4, 63839, Note_on_c, 0, 65, 0
4, 63840, Note_on_c, 0, 60, 104
4, 63840, Note_on_c, 0, 67, 104
4, 64079, Note_on_c, 0, 67, 0
4, 64079, Note_on_c, 0, 60, 0
4, 64080, Note_on_c, 0, 65, 106
4, 64080, Note_on_c, 0, 69, 106
4, 64296, Note_on_c, 0, 69, 0
4, 64296, Note_on_c, 0, 65, 0
4, 65112, Control_c, 0, 64, 0
4, 75857, Control_c, 0, 64, 127
4, 76080, Note_on_c, 0, 70, 90
4, 76559, Note_on_c, 0, 70, 0
4, 76560, Note_on_c, 0, 71, 90
4, 76668, Note_on_c, 0, 71, 0
4, 76800, Note_on_c, 0, 72, 90
4, 76908, Note_on_c, 0, 72, 0
4, 78000, Note_on_c, 0, 72, 90
4, 78479, Note_on_c, 0, 72, 0
4, 78480, Note_on_c, 0, 72, 90
4, 78696, Note_on_c, 0, 72, 0
4, 78720, Control_c, 0, 64, 0
4, 95760, Note_on_c, 0, 81, 74
4, 95760, Note_on_c, 0, 74, 74
4, 95976, Note_on_c, 0, 81, 0
4, 96000, Note_on_c, 0, 82, 76
4, 96719, Note_on_c, 0, 82, 0
4, 96719, Note_on_c, 0, 74, 0
4, 96720, Note_on_c, 0, 83, 71
4, 96720, Note_on_c, 0, 74, 71
4, 96936, Note_on_c, 0, 74, 0
4, 96936, Note_on_c, 0, 83, 0
4, 96960, Note_on_c, 0, 84, 73
4, 96960, Note_on_c, 0, 79, 73
4, 97679, Note_on_c, 0, 79, 0
4, 97679, Note_on_c, 0, 84, 0
4, 97680, Note_on_c, 0, 82, 76
4, 97680, Note_on_c, 0, 76, 76
4, 97896, Note_on_c, 0, 76, 0
4, 97896, Note_on_c, 0, 82, 0
4, 97920, Note_on_c, 0, 81, 72
4, 97920, Note_on_c, 0, 77, 72
4, 98136, Note_on_c, 0, 77, 0
4, 98136, Note_on_c, 0, 81, 0
4, 99600, Note_on_c, 0, 90, 78
4, 99600, Note_on_c, 0, 81, 78
4, 99816, Note_on_c, 0, 81, 0
4, 99816, Note_on_c, 0, 90, 0
4, 99840, Note_on_c, 0, 86, 73
4, 99840, Note_on_c, 0, 91, 73
4, 100559, Note_on_c, 0, 91, 0
4, 100559, Note_on_c, 0, 86, 0
4, 100560, Note_on_c, 0, 84, 73
4, 100560, Note_on_c, 0, 79, 73
4, 100776, Note_on_c, 0, 79, 0
4, 100776, Note_on_c, 0, 84, 0
4, 100800, Note_on_c, 0, 89, 64
4, 100800, Note_on_c, 0, 81, 64
4, 101519, Note_on_c, 0, 81, 0
4, 101519, Note_on_c, 0, 89, 0
4, 101520, Note_on_c, 0, 82, 68
4, 101520, Note_on_c, 0, 77, 68
4, 101736, Note_on_c, 0, 82, 0
4, 101760, Note_on_c, 0, 81, 65
4, 102479, Note_on_c, 0, 81, 0
4, 102479, Note_on_c, 0, 77, 0
4, 102480, Note_on_c, 0, 79, 66
4, 102480, Note_on_c, 0, 77, 66
4, 102696, Note_on_c, 0, 79, 0
4, 102720, Note_on_c, 0, 86, 63
4, 103439, Note_on_c, 0, 86, 0
4, 103439, Note_on_c, 0, 77, 0
4, 103440, Note_on_c, 0, 76, 66
4, 103440, Note_on_c, 0, 84, 66
4, 103656, Note_on_c, 0, 84, 0
4, 103656, Note_on_c, 0, 76, 0
4, 103680, Note_on_c, 0, 77, 59
4, 103896, Note_on_c, 0, 77, 0
4, 105360, Note_on_c, 0, 72, 60
4, 105360, Note_on_c, 0, 67, 60
4, 105576, Note_on_c, 0, 67, 0
4, 105576, Note_on_c, 0, 72, 0
4, 105600, Note_on_c, 0, 65, 52
4, 105816, Note_on_c, 0, 65, 0
4, 121920, Note_on_c, 0, 88, 76
4, 121920, Note_on_c, 0, 93, 76
4, 121920, Note_on_c, 0, 81, 76
4, 122399, Note_on_c, 0, 81, 0
4, 122399, Note_on_c, 0, 93, 0
4, 122399, Note_on_c, 0, 88, 0
4, 122400, Note_on_c, 0, 88, 70
4, 122400, Note_on_c, 0, 93, 70
4, 122400, Note_on_c, 0, 85, 70
4, 122400, Note_on_c, 0, 81, 70
4, 122616, Note_on_c, 0, 81, 0
4, 122616, Note_on_c, 0, 88, 0
4, 122616, Note_on_c, 0, 93, 0
4, 122616, Note_on_c, 0, 85, 0
4, 122880, Note_on_c, 0, 93, 63
4, 122880, Note_on_c, 0, 81, 63
4, 122880, Note_on_c, 0, 88, 63
4, 122880, Note_on_c, 0, 85, 63
4, 123744, Note_on_c, 0, 85, 0
4, 123744, Note_on_c, 0, 93, 0
4, 123744, Note_on_c, 0, 81, 0
4, 123744, Note_on_c, 0, 88, 0
4, 174720, Note_on_c, 0, 53, 52
4, 174720, Control_c, 0, 64, 127
4, 174959, Note_on_c, 0, 53, 0
4, 174960, Note_on_c, 0, 57, 58
4, 175199, Note_on_c, 0, 57, 0
4, 175200, Note_on_c, 0, 60, 64
4, 175439, Note_on_c, 0, 60, 0
4, 175440, Note_on_c, 0, 65, 68
4, 175656, Note_on_c, 0, 65, 0
4, 175680, Note_on_c, 0, 70, 59
4, 175680, Control_c, 0, 64, 0
4, 176544, Note_on_c, 0, 70, 0
4, 176640, Note_on_c, 0, 67, 61
4, 176664, Control_c, 0, 64, 127
4, 177119, Note_on_c, 0, 67, 0
4, 177120, Note_on_c, 0, 65, 69
4, 177359, Note_on_c, 0, 65, 0
4, 177360, Note_on_c, 0, 63, 66
4, 177576, Note_on_c, 0, 63, 0
4, 177600, Note_on_c, 0, 63, 63
4, 177624, Control_c, 0, 64, 0
4, 178079, Note_on_c, 0, 63, 0
4, 178080, Note_on_c, 0, 62, 63
4, 178560, Control_c, 0, 64, 127
4, 178799, Note_on_c, 0, 62, 0
4, 178800, Note_on_c, 0, 62, 60
4, 179039, Note_on_c, 0, 62, 0
4, 179040, Note_on_c, 0, 67, 64
4, 179279, Note_on_c, 0, 67, 0
4, 179280, Note_on_c, 0, 74, 68
4, 179496, Note_on_c, 0, 74, 0
4, 179520, Control_c, 0, 64, 0
4, 179520, Note_on_c, 0, 72, 66
4, 180384, Note_on_c, 0, 72, 0
4, 180480, Note_on_c, 0, 72, 68
4, 180912, Note_on_c, 0, 72, 0
4, 182400, Note_on_c, 0, 65, 46
4, 182520, Control_c, 0, 64, 127
4, 182616, Note_on_c, 0, 65, 0
4, 183360, Note_on_c, 0, 63, 47
4, 183468, Note_on_c, 0, 63, 0
4, 184320, Note_on_c, 0, 57, 48
4, 185039, Note_on_c, 0, 57, 0
4, 185040, Note_on_c, 0, 63, 48
4, 185148, Note_on_c, 0, 63, 0
4, 185280, Note_on_c, 0, 62, 48
4, 185519, Note_on_c, 0, 62, 0
4, 185520, Note_on_c, 0, 70, 48
4, 185999, Note_on_c, 0, 70, 0
4, 186000, Note_on_c, 0, 62, 49
4, 186108, Note_on_c, 0, 62, 0
4, 186240, Note_on_c, 0, 67, 49
4, 186479, Note_on_c, 0, 67, 0
4, 186480, Note_on_c, 0, 74, 49
4, 186959, Note_on_c, 0, 74, 0
4, 186960, Note_on_c, 0, 65, 49
4, 187068, Note_on_c, 0, 65, 0
4, 187200, Note_on_c, 0, 64, 49
4, 187439, Note_on_c, 0, 64, 0
4, 187440, Note_on_c, 0, 70, 50
4, 187919, Note_on_c, 0, 70, 0
4, 187920, Note_on_c, 0, 64, 50
4, 188028, Note_on_c, 0, 64, 0
4, 188160, Note_on_c, 0, 60, 51
4, 188268, Note_on_c, 0, 60, 0
4, 189120, Control_c, 0, 64, 0
4, 189440, Control_c, 0, 64, 127
4, 189600, Note_on_c, 0, 75, 72
4, 190559, Note_on_c, 0, 75, 0
4, 190560, Note_on_c, 0, 74, 65
4, 191519, Note_on_c, 0, 74, 0
4, 191520, Note_on_c, 0, 72, 59
4, 191952, Note_on_c, 0, 72, 0
4, 192000, Note_on_c, 0, 79, 67
4, 192479, Note_on_c, 0, 79, 0
4, 192480, Note_on_c, 0, 77, 76
4, 193439, Note_on_c, 0, 77, 0
4, 193440, Note_on_c, 0, 75, 72
4, 193679, Note_on_c, 0, 75, 0
4, 193680, Note_on_c, 0, 72, 64
4, 193896, Note_on_c, 0, 72, 0
4, 193920, Note_on_c, 0, 69, 56
4, 194399, Note_on_c, 0, 69, 0
4, 194400, Note_on_c, 0, 70, 54
4, 194832, Note_on_c, 0, 70, 0
4, 194880, Note_on_c, 0, 72, 64
4, 195359, Note_on_c, 0, 72, 0
4, 195360, Note_on_c, 0, 74, 76
4, 195792, Note_on_c, 0, 74, 0
4, 197760, Note_on_c, 0, 56, 54
4, 197760, Control_c, 0, 64, 127
4, 197999, Note_on_c, 0, 56, 0
4, 198000, Note_on_c, 0, 61, 59
4, 198239, Note_on_c, 0, 61, 0
4, 198240, Note_on_c, 0, 65, 63
4, 198479, Note_on_c, 0, 65, 0
4, 198480, Note_on_c, 0, 68, 68
4, 198696, Note_on_c, 0, 68, 0
4, 198720, Note_on_c, 0, 70, 72
4, 198959, Note_on_c, 0, 70, 0
4, 198960, Note_on_c, 0, 58, 58
4, 199439, Note_on_c, 0, 58, 0
4, 199440, Note_on_c, 0, 60, 72
4, 199656, Note_on_c, 0, 60, 0
4, 199680, Note_on_c, 0, 61, 72
4, 199919, Note_on_c, 0, 61, 0
4, 199920, Note_on_c, 0, 66, 55
4, 200159, Note_on_c, 0, 66, 0
4, 200160, Note_on_c, 0, 70, 60
4, 200399, Note_on_c, 0, 70, 0
4, 200400, Note_on_c, 0, 73, 65
4, 200616, Note_on_c, 0, 73, 0
4, 200640, Note_on_c, 0, 75, 71
4, 200879, Note_on_c, 0, 75, 0
4, 200880, Note_on_c, 0, 63, 62
4, 201260, Control_c, 0, 64, 0
4, 201359, Note_on_c, 0, 63, 0
4, 201360, Note_on_c, 0, 57, 49
4, 201479, Note_on_c, 0, 57, 0
4, 201480, Note_on_c, 0, 58, 51
4, 201588, Note_on_c, 0, 58, 0
4, 201600, Control_c, 0, 64, 127
4, 201600, Note_on_c, 0, 62, 48
4, 201719, Note_on_c, 0, 62, 0
4, 201720, Note_on_c, 0, 63, 51
4, 201839, Note_on_c, 0, 63, 0
4, 201840, Note_on_c, 0, 65, 53
4, 201959, Note_on_c, 0, 65, 0
4, 201960, Note_on_c, 0, 66, 56
4, 202079, Note_on_c, 0, 66, 0
4, 202080, Note_on_c, 0, 69, 57
4, 202199, Note_on_c, 0, 69, 0
4, 202200, Note_on_c, 0, 70, 60
4, 202319, Note_on_c, 0, 70, 0
4, 202320, Note_on_c, 0, 72, 62
4, 202439, Note_on_c, 0, 72, 0
4, 202440, Note_on_c, 0, 73, 64
4, 202548, Note_on_c, 0, 73, 0
4, 202560, Note_on_c, 0, 74, 67
4, 202679, Note_on_c, 0, 74, 0
4, 202680, Note_on_c, 0, 75, 68
4, 202799, Note_on_c, 0, 75, 0
4, 202800, Note_on_c, 0, 77, 71
4, 202919, Note_on_c, 0, 77, 0
4, 202920, Note_on_c, 0, 78, 73
4, 203280, Note_on_c, 0, 70, 70
4, 203460, Control_c, 0, 64, 0
4, 203496, Note_on_c, 0, 78, 0
4, 203520, Note_on_c, 0, 76, 51
4, 203520, Note_on_c, 0, 73, 51
4, 204135, Control_c, 0, 64, 127
4, 204239, Note_on_c, 0, 73, 0
4, 204239, Note_on_c, 0, 76, 0
4, 204239, Note_on_c, 0, 70, 0
4, 204240, Note_on_c, 0, 75, 58
4, 204240, Note_on_c, 0, 71, 58
4, 204480, Note_on_c, 0, 73, 47
4, 205199, Note_on_c, 0, 73, 0
4, 205199, Note_on_c, 0, 71, 0
4, 205199, Note_on_c, 0, 75, 0
4, 205200, Note_on_c, 0, 71, 61
4, 205200, Note_on_c, 0, 75, 61
4, 205416, Note_on_c, 0, 75, 0
4, 205440, Note_on_c, 0, 68, 51
4, 205440, Note_on_c, 0, 74, 51
4, 206159, Note_on_c, 0, 74, 0
4, 206159, Note_on_c, 0, 68, 0
4, 206159, Note_on_c, 0, 71, 0
4, 206160, Note_on_c, 0, 68, 67
4, 206160, Note_on_c, 0, 71, 67
4, 206160, Note_on_c, 0, 74, 67
4, 206400, Note_on_c, 0, 77, 51
4, 207119, Note_on_c, 0, 77, 0
4, 207119, Note_on_c, 0, 68, 0
4, 207119, Note_on_c, 0, 71, 0
4, 207119, Note_on_c, 0, 74, 0
4, 207120, Note_on_c, 0, 71, 71
4, 207120, Note_on_c, 0, 74, 71
4, 207120, Note_on_c, 0, 77, 71
4, 207360, Note_on_c, 0, 80, 64
4, 208079, Note_on_c, 0, 80, 0
4, 208079, Note_on_c, 0, 71, 0
4, 208079, Note_on_c, 0, 74, 0
4, 208079, Note_on_c, 0, 77, 0
4, 208080, Note_on_c, 0, 77, 63
4, 208080, Note_on_c, 0, 74, 63
4, 208080, Note_on_c, 0, 80, 63
4, 208296, Note_on_c, 0, 80, 0
4, 208296, Note_on_c, 0, 74, 0
4, 208296, Note_on_c, 0, 77, 0
4, 208320, Note_on_c, 0, 74, 51
4, 208320, Note_on_c, 0, 77, 51
4, 208320, Note_on_c, 0, 83, 51
4, 208320, Note_on_c, 0, 80, 51
4, 209039, Note_on_c, 0, 80, 0
4, 209039, Note_on_c, 0, 74, 0
4, 209039, Note_on_c, 0, 77, 0
4, 209039, Note_on_c, 0, 83, 0
4, 209040, Note_on_c, 0, 83, 51
4, 209040, Note_on_c, 0, 80, 51
4, 209040, Note_on_c, 0, 77, 51
4, 209256, Note_on_c, 0, 77, 0
4, 209256, Note_on_c, 0, 80, 0
4, 209256, Note_on_c, 0, 83, 0
4, 209280, Note_on_c, 0, 76, 51
4, 209280, Note_on_c, 0, 78, 51
4, 210144, Note_on_c, 0, 78, 0
4, 210144, Note_on_c, 0, 76, 0
4, 210240, Note_on_c, 0, 70, 51
4, 211104, Note_on_c, 0, 70, 0
4, 211200, Control_c, 0, 64, 0
4, 256320, Note_on_c, 0, 70, 48
4, 256320, Note_on_c, 0, 72, 48
4, 256536, Note_on_c, 0, 72, 0
4, 256536, Note_on_c, 0, 70, 0
4, 281310, Control_c, 0, 64, 127
4, 281520, Note_on_c, 0, 79, 115
4, 281520, Note_on_c, 0, 91, 115
4, 281736, Note_on_c, 0, 91, 0
4, 281736, Note_on_c, 0, 79, 0
4, 281760, Note_on_c, 0, 76, 114
4, 281760, Note_on_c, 0, 88, 114
4, 281976, Note_on_c, 0, 88, 0
4, 281976, Note_on_c, 0, 76, 0
4, 282000, Note_on_c, 0, 85, 114
4, 282000, Note_on_c, 0, 73, 114
4, 282216, Note_on_c, 0, 73, 0
4, 282216, Note_on_c, 0, 85, 0
4, 282240, Note_on_c, 0, 82, 118
4, 282240, Note_on_c, 0, 70, 118
4, 282456, Note_on_c, 0, 70, 0
4, 282456, Note_on_c, 0, 82, 0
4, 282480, Note_on_c, 0, 79, 118
4, 282480, Note_on_c, 0, 67, 118
4, 282696, Note_on_c, 0, 67, 0
4, 282696, Note_on_c, 0, 79, 0
4, 282720, Note_on_c, 0, 64, 118
4, 282720, Note_on_c, 0, 76, 118
4, 282936, Note_on_c, 0, 76, 0
4, 282936, Note_on_c, 0, 64, 0
4, 282960, Note_on_c, 0, 73, 118
4, 282960, Note_on_c, 0, 61, 118
4, 283176, Note_on_c, 0, 61, 0
4, 283176, Note_on_c, 0, 73, 0
4, 283200, Note_on_c, 0, 70, 118
4, 283308, Note_on_c, 0, 70, 0
4, 283440, Note_on_c, 0, 67, 118
4, 283548, Note_on_c, 0, 67, 0
4, 283680, Note_on_c, 0, 64, 118
4, 283788, Note_on_c, 0, 64, 0
4, 283920, Note_on_c, 0, 61, 118
4, 284028, Note_on_c, 0, 61, 0
4, 284160, Note_on_c, 0, 70, 118
4, 284268, Note_on_c, 0, 70, 0
4, 284280, Note_on_c, 0, 70, 118
4, 284388, Note_on_c, 0, 70, 0
4, 284400, Note_on_c, 0, 67, 120
4, 284508, Note_on_c, 0, 67, 0
4, 284520, Note_on_c, 0, 67, 120
4, 284628, Note_on_c, 0, 67, 0
4, 284640, Note_on_c, 0, 64, 120
4, 284655, Control_c, 0, 64, 0
4, 284748, Note_on_c, 0, 64, 0
4, 284760, Note_on_c, 0, 64, 120
4, 284868, Note_on_c, 0, 64, 0
4, 284880, Note_on_c, 0, 61, 118
4, 284988, Note_on_c, 0, 61, 0
4, 285000, Note_on_c, 0, 61, 118
4, 285108, Note_on_c, 0, 61, 0
4, 285120, Control_c, 0, 64, 127
4, 285120, Note_on_c, 0, 57, 113
4, 285228, Note_on_c, 0, 57, 0
4, 285240, Note_on_c, 0, 69, 109
4, 285348, Note_on_c, 0, 69, 0
4, 285360, Note_on_c, 0, 74, 105
4, 285792, Note_on_c, 0, 74, 0
4, 285840, Note_on_c, 0, 73, 95
4, 285894, Note_on_c, 0, 73, 0
4, 285900, Note_on_c, 0, 74, 95
4, 285954, Note_on_c, 0, 74, 0
4, 285960, Note_on_c, 0, 71, 95
4, 286014, Note_on_c, 0, 71, 0
4, 286020, Note_on_c, 0, 73, 95
4, 286074, Note_on_c, 0, 73, 0
4, 286080, Note_on_c, 0, 74, 95
4, 286080, Control_c, 0, 64, 0
4, 286080, Control_c, 0, 64, 127
4, 286296, Note_on_c, 0, 74, 0
4, 286320, Note_on_c, 0, 64, 95
4, 286320, Note_on_c, 0, 69, 95
4, 286536, Note_on_c, 0, 69, 0
4, 286536, Note_on_c, 0, 64, 0
4, 286560, Note_on_c, 0, 65, 105
4, 286560, Note_on_c, 0, 74, 105
4, 286884, Note_on_c, 0, 74, 0
4, 286884, Note_on_c, 0, 65, 0
4, 286920, Note_on_c, 0, 74, 95
4, 286920, Note_on_c, 0, 65, 95
4, 287028, Note_on_c, 0, 65, 0
4, 287028, Note_on_c, 0, 74, 0
4, 287040, Note_on_c, 0, 73, 95
4, 287040, Note_on_c, 0, 64, 95
4, 287040, Control_c, 0, 64, 0
4, 287148, Note_on_c, 0, 64, 0
4, 287148, Note_on_c, 0, 73, 0
4, 287160, Note_on_c, 0, 65, 95
4, 287160, Note_on_c, 0, 74, 95
4, 287268, Note_on_c, 0, 74, 0
4, 287268, Note_on_c, 0, 65, 0
4, 287280, Note_on_c, 0, 76, 95
4, 287280, Note_on_c, 0, 67, 95
4, 287334, Note_on_c, 0, 67, 0
4, 287334, Note_on_c, 0, 76, 0
4, 287400, Note_on_c, 0, 69, 95
4, 287400, Note_on_c, 0, 77, 95
4, 287454, Note_on_c, 0, 77, 0
4, 287454, Note_on_c, 0, 69, 0
4, 287520, Note_on_c, 0, 73, 95
4, 287520, Note_on_c, 0, 64, 95
4, 287736, Note_on_c, 0, 64, 0
4, 287736, Note_on_c, 0, 73, 0
4, 287880, Note_on_c, 0, 65, 95
4, 287880, Note_on_c, 0, 74, 95
4, 287988, Note_on_c, 0, 74, 0
4, 287988, Note_on_c, 0, 65, 0
4, 288000, Control_c, 0, 64, 127
4, 288000, Note_on_c, 0, 64, 95
4, 288000, Note_on_c, 0, 73, 95
4, 288108, Note_on_c, 0, 73, 0
4, 288108, Note_on_c, 0, 64, 0
4, 288120, Note_on_c, 0, 74, 95
4, 288120, Note_on_c, 0, 65, 95
4, 288228, Note_on_c, 0, 65, 0
4, 288228, Note_on_c, 0, 74, 0
4, 288240, Note_on_c, 0, 67, 95
4, 288240, Note_on_c, 0, 76, 95
4, 288294, Note_on_c, 0, 76, 0
4, 288294, Note_on_c, 0, 67, 0
4, 288360, Note_on_c, 0, 69, 95
4, 288360, Note_on_c, 0, 77, 95
4, 288387, Note_on_c, 0, 77, 0
4, 288387, Note_on_c, 0, 69, 0
4, 288480, Note_on_c, 0, 73, 95
4, 288480, Note_on_c, 0, 64, 95
4, 288588, Note_on_c, 0, 64, 0
4, 288588, Note_on_c, 0, 73, 0
4, 288840, Note_on_c, 0, 69, 95
4, 288860, Control_c, 0, 64, 0
4, 288876, Note_on_c, 0, 69, 0
4, 288880, Note_on_c, 0, 71, 95
4, 288916, Note_on_c, 0, 71, 0
4, 288920, Note_on_c, 0, 72, 95
4, 288956, Note_on_c, 0, 72, 0
4, 288960, Control_c, 0, 64, 127
4, 288960, Note_on_c, 0, 74, 95
4, 289176, Note_on_c, 0, 74, 0
4, 289200, Note_on_c, 0, 67, 95
4, 289632, Note_on_c, 0, 67, 0
4, 289680, Note_on_c, 0, 69, 95
4, 289680, Note_on_c, 0, 66, 95
4, 289896, Note_on_c, 0, 66, 0
4, 289896, Note_on_c, 0, 69, 0
4, 289920, Control_c, 0, 64, 0
4, 289920, Note_on_c, 0, 67, 95
4, 289920, Note_on_c, 0, 70, 95
4, 289956, Control_c, 0, 64, 127
4, 290136, Note_on_c, 0, 70, 0
4, 290136, Note_on_c, 0, 67, 0
4, 290160, Note_on_c, 0, 69, 95
4, 290160, Note_on_c, 0, 74, 95
4, 290376, Note_on_c, 0, 74, 0
4, 290376, Note_on_c, 0, 69, 0
4, 290400, Note_on_c, 0, 79, 112
4, 290400, Note_on_c, 0, 70, 112
4, 290724, Note_on_c, 0, 70, 0
4, 290724, Note_on_c, 0, 79, 0
4, 290730, Control_c, 0, 64, 0
4, 290760, Note_on_c, 0, 77, 95
4, 290760, Note_on_c, 0, 74, 95
4, 290820, Control_c, 0, 64, 127
4, 290868, Note_on_c, 0, 74, 0
4, 290868, Note_on_c, 0, 77, 0
4, 290880, Note_on_c, 0, 76, 95
4, 290880, Note_on_c, 0, 67, 95
4, 290988, Note_on_c, 0, 67, 0
4, 290988, Note_on_c, 0, 76, 0
4, 291000, Note_on_c, 0, 77, 95
4, 291000, Note_on_c, 0, 69, 95
4, 291108, Note_on_c, 0, 69, 0
4, 291108, Note_on_c, 0, 77, 0
4, 291120, Note_on_c, 0, 71, 95
4, 291120, Note_on_c, 0, 79, 95
4, 291174, Note_on_c, 0, 79, 0
4, 291174, Note_on_c, 0, 71, 0
4, 291240, Note_on_c, 0, 73, 95
4, 291240, Note_on_c, 0, 81, 95
4, 291294, Note_on_c, 0, 81, 0
4, 291294, Note_on_c, 0, 73, 0
4, 291360, Note_on_c, 0, 77, 95
4, 291360, Note_on_c, 0, 74, 95
4, 291468, Note_on_c, 0, 74, 0
4, 291468, Note_on_c, 0, 77, 0
4, 291720, Note_on_c, 0, 69, 95
4, 291720, Note_on_c, 0, 74, 95
4, 291780, Control_c, 0, 64, 0
4, 291828, Note_on_c, 0, 74, 0
4, 291828, Note_on_c, 0, 69, 0
4, 291840, Note_on_c, 0, 71, 95
4, 291840, Note_on_c, 0, 64, 95
4, 291855, Control_c, 0, 64, 127
4, 291948, Note_on_c, 0, 64, 0
4, 291948, Note_on_c, 0, 71, 0
4, 291960, Note_on_c, 0, 73, 95
4, 291960, Note_on_c, 0, 69, 95
4, 292068, Note_on_c, 0, 69, 0
4, 292068, Note_on_c, 0, 73, 0
4, 292080, Note_on_c, 0, 74, 95
4, 292080, Note_on_c, 0, 71, 95
4, 292134, Note_on_c, 0, 71, 0
4, 292134, Note_on_c, 0, 74, 0
4, 292200, Note_on_c, 0, 76, 95
4, 292200, Note_on_c, 0, 68, 95
4, 292254, Note_on_c, 0, 68, 0
4, 292254, Note_on_c, 0, 76, 0
4, 292320, Note_on_c, 0, 69, 95
4, 292320, Note_on_c, 0, 73, 95
4, 292428, Note_on_c, 0, 73, 0
4, 292428, Note_on_c, 0, 69, 0
4, 292800, Control_c, 0, 64, 127
4, 292815, Control_c, 0, 64, 0
4, 293040, Note_on_c, 0, 77, 95
4, 293279, Note_on_c, 0, 77, 0
4, 293280, Note_on_c, 0, 76, 95
4, 293519, Note_on_c, 0, 76, 0
4, 293520, Note_on_c, 0, 74, 95
4, 293628, Note_on_c, 0, 74, 0
4, 293760, Note_on_c, 0, 73, 90
4, 293760, Control_c, 0, 64, 0
4, 293976, Note_on_c, 0, 73, 0
4, 294000, Note_on_c, 0, 69, 90
4, 294432, Note_on_c, 0, 69, 0
4, 294480, Note_on_c, 0, 73, 64
4, 294696, Note_on_c, 0, 73, 0
4, 294720, Note_on_c, 0, 71, 64
4, 295152, Note_on_c, 0, 71, 0
4, 295200, Note_on_c, 0, 69, 64
4, 295416, Note_on_c, 0, 69, 0
4, 299120, Note_on_c, 0, 73, 64
4, 299192, Note_on_c, 0, 73, 0
4, 299200, Note_on_c, 0, 76, 64
4, 299272, Note_on_c, 0, 76, 0
4, 299360, Note_on_c, 0, 73, 90
4, 299432, Note_on_c, 0, 73, 0
4, 299440, Note_on_c, 0, 76, 90
4, 299512, Note_on_c, 0, 76, 0
4, 299600, Note_on_c, 0, 68, 90
4, 299679, Note_on_c, 0, 68, 0
4, 299680, Note_on_c, 0, 73, 90
4, 299839, Note_on_c, 0, 73, 0
4, 299840, Note_on_c, 0, 68, 90
4, 299919, Note_on_c, 0, 68, 0
4, 299920, Note_on_c, 0, 73, 90
4, 300079, Note_on_c, 0, 73, 0
4, 300080, Note_on_c, 0, 64, 90
4, 300159, Note_on_c, 0, 64, 0
4, 300160, Note_on_c, 0, 68, 90
4, 300319, Note_on_c, 0, 68, 0
4, 300320, Note_on_c, 0, 64, 90
4, 300399, Note_on_c, 0, 64, 0
4, 300400, Note_on_c, 0, 68, 90
4, 300472, Note_on_c, 0, 68, 0
4, 300560, Note_on_c, 0, 61, 90
4, 300639, Note_on_c, 0, 61, 0
4, 300640, Note_on_c, 0, 64, 90
4, 300799, Note_on_c, 0, 64, 0
4, 300800, Note_on_c, 0, 61, 90
4, 300879, Note_on_c, 0, 61, 0
4, 300880, Note_on_c, 0, 64, 90
4, 301039, Note_on_c, 0, 64, 0
4, 301040, Note_on_c, 0, 56, 90
4, 301119, Note_on_c, 0, 56, 0
4, 301120, Note_on_c, 0, 61, 92
4, 301279, Note_on_c, 0, 61, 0
4, 301280, Note_on_c, 0, 56, 97
4, 301359, Note_on_c, 0, 56, 0
4, 301360, Note_on_c, 0, 61, 100
4, 301432, Note_on_c, 0, 61, 0
4, 301520, Note_on_c, 0, 56, 90
4, 301599, Note_on_c, 0, 56, 0
4, 301600, Note_on_c, 0, 61, 90
4, 301759, Note_on_c, 0, 61, 0
4, 301760, Note_on_c, 0, 55, 92
4, 301839, Note_on_c, 0, 55, 0
4, 301840, Note_on_c, 0, 61, 93
4, 301999, Note_on_c, 0, 61, 0
4, 302000, Note_on_c, 0, 56, 95
4, 302079, Note_on_c, 0, 56, 0
4, 302080, Note_on_c, 0, 61, 95
4, 302239, Note_on_c, 0, 61, 0
4, 302240, Note_on_c, 0, 57, 100
4, 302319, Note_on_c, 0, 57, 0
4, 302320, Note_on_c, 0, 61, 102
4, 302392, Note_on_c, 0, 61, 0
4, 302480, Note_on_c, 0, 56, 90
4, 302559, Note_on_c, 0, 56, 0
4, 302560, Note_on_c, 0, 61, 90
4, 302719, Note_on_c, 0, 61, 0
4, 302720, Note_on_c, 0, 55, 90
4, 302799, Note_on_c, 0, 55, 0
4, 302800, Note_on_c, 0, 61, 90
4, 302959, Note_on_c, 0, 61, 0
4, 302960, Note_on_c, 0, 56, 90
4, 303039, Note_on_c, 0, 56, 0
4, 303040, Note_on_c, 0, 61, 94
4, 303199, Note_on_c, 0, 61, 0
4, 303200, Note_on_c, 0, 57, 100
4, 303279, Note_on_c, 0, 57, 0
4, 303280, Note_on_c, 0, 61, 103
4, 303352, Note_on_c, 0, 61, 0
4, 303440, Note_on_c, 0, 61, 90
4, 303519, Note_on_c, 0, 61, 0
4, 303520, Note_on_c, 0, 64, 90
4, 303679, Note_on_c, 0, 64, 0
4, 303680, Note_on_c, 0, 64, 90
4, 303759, Note_on_c, 0, 64, 0
4, 303760, Note_on_c, 0, 67, 90
4, 303919, Note_on_c, 0, 67, 0
4, 303920, Note_on_c, 0, 69, 90
4, 303999, Note_on_c, 0, 69, 0
4, 304000, Note_on_c, 0, 73, 90
4, 304159, Note_on_c, 0, 73, 0
4, 304160, Note_on_c, 0, 73, 90
4, 304239, Note_on_c, 0, 73, 0
4, 304240, Note_on_c, 0, 76, 91
4, 304312, Note_on_c, 0, 76, 0
4, 304320, Control_c, 0, 64, 127
4, 304400, Note_on_c, 0, 76, 93
4, 304479, Note_on_c, 0, 76, 0
4, 304480, Note_on_c, 0, 79, 94
4, 304639, Note_on_c, 0, 79, 0
4, 304640, Note_on_c, 0, 79, 95
4, 304719, Note_on_c, 0, 79, 0
4, 304720, Note_on_c, 0, 85, 96
4, 304879, Note_on_c, 0, 85, 0
4, 304880, Note_on_c, 0, 85, 97
4, 304959, Note_on_c, 0, 85, 0
4, 304960, Note_on_c, 0, 88, 98
4, 305119, Note_on_c, 0, 88, 0
4, 305120, Note_on_c, 0, 88, 100
4, 305199, Note_on_c, 0, 88, 0
4, 305200, Note_on_c, 0, 91, 100
4, 305272, Note_on_c, 0, 91, 0
4, 305280, Control_c, 0, 64, 0
4, 313920, Note_on_c, 0, 80, 90
4, 314279, Note_on_c, 0, 80, 0
4, 314280, Note_on_c, 0, 80, 90
4, 314388, Note_on_c, 0, 80, 0
4, 318720, Note_on_c, 0, 76, 84
4, 318839, Note_on_c, 0, 76, 0
4, 318840, Note_on_c, 0, 77, 85
4, 318959, Note_on_c, 0, 77, 0
4, 318960, Note_on_c, 0, 79, 85
4, 319079, Note_on_c, 0, 79, 0
4, 319080, Note_on_c, 0, 76, 86
4, 319199, Note_on_c, 0, 76, 0
4, 319200, Note_on_c, 0, 77, 86
4, 319319, Note_on_c, 0, 77, 0
4, 319320, Note_on_c, 0, 79, 87
4, 319439, Note_on_c, 0, 79, 0
4, 319440, Note_on_c, 0, 80, 87
4, 319559, Note_on_c, 0, 80, 0
4, 319560, Note_on_c, 0, 77, 88
4, 319614, Note_on_c, 0, 77, 0
4, 319680, Note_on_c, 0, 79, 88
4, 319704, Control_c, 0, 64, 127
4, 319799, Note_on_c, 0, 79, 0
4, 319800, Note_on_c, 0, 80, 89
4, 319919, Note_on_c, 0, 80, 0
4, 319920, Note_on_c, 0, 82, 89
4, 320039, Note_on_c, 0, 82, 0
4, 320040, Note_on_c, 0, 79, 89
4, 320159, Note_on_c, 0, 79, 0
4, 320160, Note_on_c, 0, 80, 90
4, 320279, Note_on_c, 0, 80, 0
4, 320280, Note_on_c, 0, 82, 90
4, 320399, Note_on_c, 0, 82, 0
4, 320400, Note_on_c, 0, 84, 91
4, 320519, Note_on_c, 0, 84, 0
4, 320520, Note_on_c, 0, 80, 91
4, 320574, Note_on_c, 0, 80, 0
4, 320640, Note_on_c, 0, 79, 92
4, 320664, Control_c, 0, 64, 0
4, 320759, Note_on_c, 0, 79, 0
4, 320760, Note_on_c, 0, 81, 92
4, 320879, Note_on_c, 0, 81, 0
4, 320880, Note_on_c, 0, 83, 93
4, 320999, Note_on_c, 0, 83, 0
4, 321000, Note_on_c, 0, 86, 93
4, 321119, Note_on_c, 0, 86, 0
4, 321120, Note_on_c, 0, 84, 94
4, 321239, Note_on_c, 0, 84, 0
4, 321240, Note_on_c, 0, 83, 94
4, 321359, Note_on_c, 0, 83, 0
4, 321360, Note_on_c, 0, 81, 95
4, 321479, Note_on_c, 0, 81, 0
4, 321480, Note_on_c, 0, 81, 95
4, 321534, Note_on_c, 0, 81, 0
4, 321600, Note_on_c, 0, 83, 96
4, 321617, Control_c, 0, 64, 127
4, 321708, Note_on_c, 0, 83, 0
4, 321720, Note_on_c, 0, 81, 96
4, 321828, Note_on_c, 0, 81, 0
4, 321840, Note_on_c, 0, 79, 97
4, 321867, Note_on_c, 0, 79, 0
4, 321960, Note_on_c, 0, 79, 97
4, 321987, Note_on_c, 0, 79, 0
4, 322080, Note_on_c, 0, 81, 98
4, 322188, Note_on_c, 0, 81, 0
4, 322200, Note_on_c, 0, 79, 98
4, 322308, Note_on_c, 0, 79, 0
4, 322320, Note_on_c, 0, 81, 90
4, 322347, Note_on_c, 0, 81, 0
4, 322440, Note_on_c, 0, 81, 90
4, 322467, Note_on_c, 0, 81, 0
4, 322577, Control_c, 0, 64, 0
4, 323040, Note_on_c, 0, 86, 95
4, 323040, Note_on_c, 0, 89, 95
4, 323148, Note_on_c, 0, 89, 0
4, 323148, Note_on_c, 0, 86, 0
4, 323160, Note_on_c, 0, 84, 95
4, 323160, Note_on_c, 0, 88, 95
4, 323268, Note_on_c, 0, 88, 0
4, 323268, Note_on_c, 0, 84, 0
4, 323280, Note_on_c, 0, 82, 95
4, 323280, Note_on_c, 0, 86, 95
4, 323388, Note_on_c, 0, 86, 0
4, 323388, Note_on_c, 0, 82, 0
4, 323400, Note_on_c, 0, 82, 95
4, 323400, Note_on_c, 0, 86, 95
4, 323508, Note_on_c, 0, 86, 0
4, 323508, Note_on_c, 0, 82, 0
4, 323520, Control_c, 0, 64, 127
4, 323520, Note_on_c, 0, 88, 95
4, 323520, Note_on_c, 0, 84, 95
4, 323628, Note_on_c, 0, 84, 0
4, 323628, Note_on_c, 0, 88, 0
4, 323640, Note_on_c, 0, 83, 95
4, 323640, Note_on_c, 0, 86, 95
4, 323709, Control_c, 0, 64, 0
4, 323748, Note_on_c, 0, 86, 0
4, 323748, Note_on_c, 0, 83, 0
4, 323760, Note_on_c, 0, 84, 95
4, 323760, Note_on_c, 0, 81, 95
4, 323868, Note_on_c, 0, 81, 0
4, 323868, Note_on_c, 0, 84, 0
4, 323880, Note_on_c, 0, 84, 95
4, 323880, Note_on_c, 0, 81, 95
4, 323988, Note_on_c, 0, 81, 0
4, 323988, Note_on_c, 0, 84, 0
4, 324000, Note_on_c, 0, 84, 95
4, 324000, Note_on_c, 0, 81, 95
4, 324108, Note_on_c, 0, 81, 0
4, 324108, Note_on_c, 0, 84, 0
4, 324120, Note_on_c, 0, 83, 95
4, 324228, Note_on_c, 0, 83, 0
4, 324240, Note_on_c, 0, 84, 95
4, 324240, Note_on_c, 0, 81, 95
4, 324348, Note_on_c, 0, 81, 0
4, 324348, Note_on_c, 0, 84, 0
4, 324360, Note_on_c, 0, 86, 95
4, 324360, Note_on_c, 0, 81, 95
4, 324468, Note_on_c, 0, 81, 0
4, 324468, Note_on_c, 0, 86, 0
4, 327083, Control_c, 0, 64, 127
4, 327120, Note_on_c, 0, 62, 99
4, 327156, Note_on_c, 0, 62, 0
4, 327160, Note_on_c, 0, 65, 101
4, 327196, Note_on_c, 0, 65, 0
4, 327200, Note_on_c, 0, 71, 102
4, 327236, Note_on_c, 0, 71, 0
4, 327240, Note_on_c, 0, 77, 104
4, 327276, Note_on_c, 0, 77, 0
4, 327280, Note_on_c, 0, 83, 106
4, 327316, Note_on_c, 0, 83, 0
4, 327320, Note_on_c, 0, 86, 108
4, 327360, Note_on_c, 0, 89, 110
4, 327360, Note_on_c, 0, 83, 110
4, 327780, Control_c, 0, 64, 0
4, 328008, Note_on_c, 0, 83, 0
4, 328008, Note_on_c, 0, 89, 0
4, 328008, Note_on_c, 0, 86, 0
4, 328080, Note_on_c, 0, 88, 105
4, 328080, Note_on_c, 0, 85, 105
4, 328134, Note_on_c, 0, 85, 0
4, 328134, Note_on_c, 0, 88, 0
4, 338880, Note_on_c, 0, 77, 72
4, 338880, Note_on_c, 0, 74, 72
4, 338880, Control_c, 0, 64, 127
4, 339359, Note_on_c, 0, 74, 0
4, 339359, Note_on_c, 0, 77, 0
4, 339360, Note_on_c, 0, 77, 77
4, 339360, Note_on_c, 0, 72, 77
4, 339792, Note_on_c, 0, 72, 0
4, 339792, Note_on_c, 0, 77, 0
4, 339840, Note_on_c, 0, 71, 78
4, 340199, Note_on_c, 0, 71, 0
4, 340200, Note_on_c, 0, 72, 79
4, 340254, Note_on_c, 0, 72, 0
4, 340260, Note_on_c, 0, 71, 80
4, 340287, Note_on_c, 0, 71, 0
4, 340320, Note_on_c, 0, 69, 82
4, 340428, Note_on_c, 0, 69, 0
4, 340560, Note_on_c, 0, 71, 72
4, 340668, Note_on_c, 0, 71, 0
4, 340800, Control_c, 0, 64, 0
4, 361920, Note_on_c, 0, 62, 90
4, 361920, Control_c, 0, 64, 127
4, 361999, Note_on_c, 0, 62, 0
4, 362000, Note_on_c, 0, 65, 90
4, 362079, Note_on_c, 0, 65, 0
4, 362080, Note_on_c, 0, 69, 90
4, 362159, Note_on_c, 0, 69, 0
4, 362160, Note_on_c, 0, 65, 90
4, 362239, Note_on_c, 0, 65, 0
4, 362240, Note_on_c, 0, 69, 90
4, 362319, Note_on_c, 0, 69, 0
4, 362320, Note_on_c, 0, 74, 90
4, 362399, Note_on_c, 0, 74, 0
4, 362400, Note_on_c, 0, 69, 90
4, 362479, Note_on_c, 0, 69, 0
4, 362480, Note_on_c, 0, 74, 90
4, 362559, Note_on_c, 0, 74, 0
4, 362560, Note_on_c, 0, 77, 90
4, 362639, Note_on_c, 0, 77, 0
4, 362640, Note_on_c, 0, 74, 90
4, 362719, Note_on_c, 0, 74, 0
4, 362720, Note_on_c, 0, 77, 90
4, 362799, Note_on_c, 0, 77, 0
4, 362800, Note_on_c, 0, 81, 90
4, 362872, Note_on_c, 0, 81, 0
4, 362880, Note_on_c, 0, 79, 90
4, 362959, Note_on_c, 0, 79, 0
4, 362960, Note_on_c, 0, 77, 90
4, 363039, Note_on_c, 0, 77, 0
4, 363040, Note_on_c, 0, 76, 90
4, 363119, Note_on_c, 0, 76, 0
4, 363120, Note_on_c, 0, 74, 90
4, 363199, Note_on_c, 0, 74, 0
4, 363200, Note_on_c, 0, 77, 90
4, 363279, Note_on_c, 0, 77, 0
4, 363280, Note_on_c, 0, 81, 90
4, 363359, Note_on_c, 0, 81, 0
4, 363360, Note_on_c, 0, 79, 90
4, 363439, Note_on_c, 0, 79, 0
4, 363440, Note_on_c, 0, 77, 90
4, 363519, Note_on_c, 0, 77, 0
4, 363520, Note_on_c, 0, 76, 90
4, 363599, Note_on_c, 0, 76, 0
4, 363600, Note_on_c, 0, 74, 90
4, 363679, Note_on_c, 0, 74, 0
4, 363680, Note_on_c, 0, 77, 90
4, 363759, Note_on_c, 0, 77, 0
4, 363760, Note_on_c, 0, 81, 90
4, 363832, Note_on_c, 0, 81, 0
4, 364632, Control_c, 0, 64, 0
4, 364800, Control_c, 0, 64, 127
4, 364800, Note_on_c, 0, 62, 90
4, 364872, Note_on_c, 0, 62, 0
4, 364880, Note_on_c, 0, 65, 90
4, 364952, Note_on_c, 0, 65, 0
4, 364960, Note_on_c, 0, 71, 90
4, 365032, Note_on_c, 0, 71, 0
4, 365040, Note_on_c, 0, 65, 90
4, 365112, Note_on_c, 0, 65, 0
4, 365120, Note_on_c, 0, 71, 90
4, 365192, Note_on_c, 0, 71, 0
4, 365200, Note_on_c, 0, 74, 90
4, 365272, Note_on_c, 0, 74, 0
4, 365280, Note_on_c, 0, 71, 90
4, 365352, Note_on_c, 0, 71, 0
4, 365360, Note_on_c, 0, 74, 90
4, 365432, Note_on_c, 0, 74, 0
4, 365440, Note_on_c, 0, 77, 90
4, 365512, Note_on_c, 0, 77, 0
4, 365520, Note_on_c, 0, 74, 90
4, 365592, Note_on_c, 0, 74, 0
4, 365600, Note_on_c, 0, 77, 90
4, 365672, Note_on_c, 0, 77, 0
4, 365680, Note_on_c, 0, 83, 90
4, 365752, Note_on_c, 0, 83, 0
4, 365760, Note_on_c, 0, 79, 90
4, 365832, Note_on_c, 0, 79, 0
4, 365840, Note_on_c, 0, 77, 90
4, 365912, Note_on_c, 0, 77, 0
4, 365920, Note_on_c, 0, 76, 90
4, 365992, Note_on_c, 0, 76, 0
4, 366000, Note_on_c, 0, 74, 90
4, 366072, Note_on_c, 0, 74, 0
4, 366080, Note_on_c, 0, 77, 90
4, 366152, Note_on_c, 0, 77, 0
4, 366160, Note_on_c, 0, 83, 90
4, 366232, Note_on_c, 0, 83, 0
4, 366240, Note_on_c, 0, 79, 90
4, 366312, Note_on_c, 0, 79, 0
4, 366320, Note_on_c, 0, 77, 90
4, 366392, Note_on_c, 0, 77, 0
4, 366400, Note_on_c, 0, 76, 90
4, 366472, Note_on_c, 0, 76, 0
4, 366480, Note_on_c, 0, 74, 90
4, 366552, Note_on_c, 0, 74, 0
4, 366560, Note_on_c, 0, 77, 90
4, 366632, Note_on_c, 0, 77, 0
4, 366640, Note_on_c, 0, 83, 90
4, 366712, Note_on_c, 0, 83, 0
4, 366720, Control_c, 0, 64, 0
4, 367680, Control_c, 0, 64, 127
4, 367680, Note_on_c, 0, 64, 90
4, 367752, Note_on_c, 0, 64, 0
4, 367760, Note_on_c, 0, 67, 90
4, 367832, Note_on_c, 0, 67, 0
4, 367840, Note_on_c, 0, 70, 90
4, 367912, Note_on_c, 0, 70, 0
4, 367920, Note_on_c, 0, 67, 90
4, 367992, Note_on_c, 0, 67, 0
4, 368000, Note_on_c, 0, 70, 90
4, 368072, Note_on_c, 0, 70, 0
4, 368080, Note_on_c, 0, 76, 90
4, 368152, Note_on_c, 0, 76, 0
4, 368160, Note_on_c, 0, 70, 90
4, 368232, Note_on_c, 0, 70, 0
4, 368240, Note_on_c, 0, 76, 90
4, 368312, Note_on_c, 0, 76, 0
4, 368320, Note_on_c, 0, 79, 90
4, 368392, Note_on_c, 0, 79, 0
4, 368400, Note_on_c, 0, 76, 90
4, 368472, Note_on_c, 0, 76, 0
4, 368480, Note_on_c, 0, 79, 90
4, 368552, Note_on_c, 0, 79, 0
4, 368560, Note_on_c, 0, 82, 90
4, 368632, Note_on_c, 0, 82, 0
4, 368640, Note_on_c, 0, 81, 90
4, 368719, Note_on_c, 0, 81, 0
4, 368720, Note_on_c, 0, 79, 90
4, 368799, Note_on_c, 0, 79, 0
4, 368800, Note_on_c, 0, 77, 89
4, 368879, Note_on_c, 0, 77, 0
4, 368880, Note_on_c, 0, 76, 89
4, 368959, Note_on_c, 0, 76, 0
4, 368960, Note_on_c, 0, 79, 90
4, 369039, Note_on_c, 0, 79, 0
4, 369040, Note_on_c, 0, 82, 91
4, 369119, Note_on_c, 0, 82, 0
4, 369120, Note_on_c, 0, 81, 91
4, 369199, Note_on_c, 0, 81, 0
4, 369200, Note_on_c, 0, 79, 92
4, 369279, Note_on_c, 0, 79, 0
4, 369280, Note_on_c, 0, 77, 93
4, 369359, Note_on_c, 0, 77, 0
4, 369360, Note_on_c, 0, 76, 93
4, 369479, Note_on_c, 0, 76, 0
4, 369480, Note_on_c, 0, 79, 94
4, 369588, Note_on_c, 0, 79, 0
4, 369600, Note_on_c, 0, 82, 98
4, 369719, Note_on_c, 0, 82, 0
4, 369720, Note_on_c, 0, 75, 97
4, 369839, Note_on_c, 0, 75, 0
4, 369840, Note_on_c, 0, 78, 96
4, 369959, Note_on_c, 0, 78, 0
4, 369960, Note_on_c, 0, 82, 96
4, 370079, Note_on_c, 0, 82, 0
4, 370080, Note_on_c, 0, 75, 95
4, 370199, Note_on_c, 0, 75, 0
4, 370200, Note_on_c, 0, 78, 94
4, 370319, Note_on_c, 0, 78, 0
4, 370320, Note_on_c, 0, 81, 93
4, 370439, Note_on_c, 0, 81, 0
4, 370440, Note_on_c, 0, 74, 93
4, 370548, Note_on_c, 0, 74, 0
4, 370560, Note_on_c, 0, 78, 92
4, 370679, Note_on_c, 0, 78, 0
4, 370680, Note_on_c, 0, 81, 91
4, 370799, Note_on_c, 0, 81, 0
4, 370800, Note_on_c, 0, 74, 90
4, 370919, Note_on_c, 0, 74, 0
4, 370920, Note_on_c, 0, 78, 90
4, 371039, Note_on_c, 0, 78, 0
4, 371040, Note_on_c, 0, 81, 89
4, 371159, Note_on_c, 0, 81, 0
4, 371160, Note_on_c, 0, 74, 88
4, 371279, Note_on_c, 0, 74, 0
4, 371280, Note_on_c, 0, 78, 88
4, 371399, Note_on_c, 0, 78, 0
4, 371400, Note_on_c, 0, 79, 87
4, 371508, Note_on_c, 0, 79, 0
4, 371520, Note_on_c, 0, 73, 86
4, 371639, Note_on_c, 0, 73, 0
4, 371640, Note_on_c, 0, 76, 86
4, 371759, Note_on_c, 0, 76, 0
4, 371760, Note_on_c, 0, 79, 85
4, 371879, Note_on_c, 0, 79, 0
4, 371880, Note_on_c, 0, 73, 84
4, 371999, Note_on_c, 0, 73, 0
4, 372000, Note_on_c, 0, 74, 83
4, 372119, Note_on_c, 0, 74, 0
4, 372120, Note_on_c, 0, 78, 83
4, 372239, Note_on_c, 0, 78, 0
4, 372240, Note_on_c, 0, 73, 82
4, 372359, Note_on_c, 0, 73, 0
4, 372360, Note_on_c, 0, 74, 81
4, 372468, Note_on_c, 0, 74, 0
4, 372480, Note_on_c, 0, 77, 80
4, 372599, Note_on_c, 0, 77, 0
4, 372600, Note_on_c, 0, 71, 80
4, 372719, Note_on_c, 0, 71, 0
4, 372720, Note_on_c, 0, 74, 79
4, 372839, Note_on_c, 0, 74, 0
4, 372840, Note_on_c, 0, 77, 78
4, 372959, Note_on_c, 0, 77, 0
4, 372960, Note_on_c, 0, 70, 78
4, 373079, Note_on_c, 0, 70, 0
4, 373080, Note_on_c, 0, 73, 77
4, 373199, Note_on_c, 0, 73, 0
4, 373200, Note_on_c, 0, 76, 76
4, 373319, Note_on_c, 0, 76, 0
4, 373320, Note_on_c, 0, 69, 75
4, 373428, Note_on_c, 0, 69, 0
4, 373440, Note_on_c, 0, 73, 75
4, 373559, Note_on_c, 0, 73, 0
4, 373560, Note_on_c, 0, 76, 74
4, 373679, Note_on_c, 0, 76, 0
4, 373680, Note_on_c, 0, 69, 73
4, 373799, Note_on_c, 0, 69, 0
4, 373800, Note_on_c, 0, 73, 73
4, 373919, Note_on_c, 0, 73, 0
4, 373920, Note_on_c, 0, 74, 72
4, 374039, Note_on_c, 0, 74, 0
4, 374040, Note_on_c, 0, 68, 71
4, 374159, Note_on_c, 0, 68, 0
4, 374160, Note_on_c, 0, 71, 70
4, 374279, Note_on_c, 0, 71, 0
4, 374280, Note_on_c, 0, 74, 70
4, 374388, Note_on_c, 0, 74, 0
4, 374400, Note_on_c, 0, 64, 69
4, 374519, Note_on_c, 0, 64, 0
4, 374520, Note_on_c, 0, 69, 64
4, 374639, Note_on_c, 0, 69, 0
4, 374640, Note_on_c, 0, 74, 64
4, 374759, Note_on_c, 0, 74, 0
4, 374760, Note_on_c, 0, 73, 64
4, 374879, Note_on_c, 0, 73, 0
4, 374880, Note_on_c, 0, 62, 64
4, 374999, Note_on_c, 0, 62, 0
4, 375000, Note_on_c, 0, 68, 64
4, 375119, Note_on_c, 0, 68, 0
4, 375120, Note_on_c, 0, 73, 64
4, 375239, Note_on_c, 0, 73, 0
4, 375240, Note_on_c, 0, 71, 64
4, 375348, Note_on_c, 0, 71, 0
4, 375360, Note_on_c, 0, 61, 64
4, 375479, Note_on_c, 0, 61, 0
4, 375480, Note_on_c, 0, 64, 64
4, 375599, Note_on_c, 0, 64, 0
4, 375600, Note_on_c, 0, 71, 64
4, 375719, Note_on_c, 0, 71, 0
4, 375720, Note_on_c, 0, 69, 64
4, 375839, Note_on_c, 0, 69, 0
4, 375840, Note_on_c, 0, 71, 64
4, 375959, Note_on_c, 0, 71, 0
4, 375960, Note_on_c, 0, 69, 64
4, 376079, Note_on_c, 0, 69, 0
4, 376080, Note_on_c, 0, 71, 64
4, 376199, Note_on_c, 0, 71, 0
4, 376200, Note_on_c, 0, 69, 64
4, 376308, Note_on_c, 0, 69, 0
4, 376320, Note_on_c, 0, 74, 64
4, 376439, Note_on_c, 0, 74, 0
4, 376440, Note_on_c, 0, 73, 64
4, 376559, Note_on_c, 0, 73, 0
4, 376560, Note_on_c, 0, 74, 64
4, 376679, Note_on_c, 0, 74, 0
4, 376680, Note_on_c, 0, 73, 64
4, 376799, Note_on_c, 0, 73, 0
4, 376800, Note_on_c, 0, 77, 64
4, 376859, Note_on_c, 0, 77, 0
4, 376860, Note_on_c, 0, 76, 64
4, 376919, Note_on_c, 0, 76, 0
4, 376920, Note_on_c, 0, 77, 64
4, 376979, Note_on_c, 0, 77, 0
4, 376980, Note_on_c, 0, 76, 64
4, 377039, Note_on_c, 0, 76, 0
4, 377040, Note_on_c, 0, 77, 64
4, 377099, Note_on_c, 0, 77, 0
4, 377100, Note_on_c, 0, 76, 64
4, 377159, Note_on_c, 0, 76, 0
4, 377160, Note_on_c, 0, 77, 64
4, 377219, Note_on_c, 0, 77, 0
4, 377220, Note_on_c, 0, 76, 64
4, 377274, Note_on_c, 0, 76, 0
4, 377280, Note_on_c, 0, 81, 65
4, 377339, Note_on_c, 0, 81, 0
4, 377340, Note_on_c, 0, 79, 65
4, 377399, Note_on_c, 0, 79, 0
4, 377400, Note_on_c, 0, 81, 66
4, 377459, Note_on_c, 0, 81, 0
4, 377460, Note_on_c, 0, 79, 67
4, 377519, Note_on_c, 0, 79, 0
4, 377520, Note_on_c, 0, 81, 68
4, 377579, Note_on_c, 0, 81, 0
4, 377580, Note_on_c, 0, 79, 69
4, 377639, Note_on_c, 0, 79, 0
4, 377640, Note_on_c, 0, 81, 70
4, 377699, Note_on_c, 0, 81, 0
4, 377700, Note_on_c, 0, 79, 71
4, 377759, Note_on_c, 0, 79, 0
4, 377760, Note_on_c, 0, 81, 72
4, 377819, Note_on_c, 0, 81, 0
4, 377820, Note_on_c, 0, 79, 73
4, 377879, Note_on_c, 0, 79, 0
4, 377880, Note_on_c, 0, 81, 74
4, 377939, Note_on_c, 0, 81, 0
4, 377940, Note_on_c, 0, 79, 75
4, 377999, Note_on_c, 0, 79, 0
4, 378000, Note_on_c, 0, 81, 76
4, 378059, Note_on_c, 0, 81, 0
4, 378060, Note_on_c, 0, 79, 76
4, 378119, Note_on_c, 0, 79, 0
4, 378120, Note_on_c, 0, 81, 77
4, 378179, Note_on_c, 0, 81, 0
4, 378180, Note_on_c, 0, 79, 78
4, 378234, Note_on_c, 0, 79, 0
4, 378240, Note_on_c, 0, 81, 79
4, 378299, Note_on_c, 0, 81, 0
4, 378300, Note_on_c, 0, 80, 80
4, 378359, Note_on_c, 0, 80, 0
4, 378360, Note_on_c, 0, 81, 81
4, 378419, Note_on_c, 0, 81, 0
4, 378420, Note_on_c, 0, 80, 82
4, 378479, Note_on_c, 0, 80, 0
4, 378480, Note_on_c, 0, 81, 83
4, 378539, Note_on_c, 0, 81, 0
4, 378540, Note_on_c, 0, 80, 84
4, 378599, Note_on_c, 0, 80, 0
4, 378600, Note_on_c, 0, 81, 85
4, 378659, Note_on_c, 0, 81, 0
4, 378660, Note_on_c, 0, 80, 85
4, 378719, Note_on_c, 0, 80, 0
4, 378720, Note_on_c, 0, 81, 86
4, 378779, Note_on_c, 0, 81, 0
4, 378780, Note_on_c, 0, 80, 87
4, 378839, Note_on_c, 0, 80, 0
4, 378840, Note_on_c, 0, 81, 88
4, 378899, Note_on_c, 0, 81, 0
4, 378900, Note_on_c, 0, 80, 89
4, 378959, Note_on_c, 0, 80, 0
4, 378960, Note_on_c, 0, 81, 90
4, 379019, Note_on_c, 0, 81, 0
4, 379020, Note_on_c, 0, 80, 91
4, 379079, Note_on_c, 0, 80, 0
4, 379080, Note_on_c, 0, 81, 92
4, 379139, Note_on_c, 0, 81, 0
4, 379140, Note_on_c, 0, 80, 93
4, 379194, Note_on_c, 0, 80, 0
4, 379200, Note_on_c, 0, 83, 94
4, 379259, Note_on_c, 0, 83, 0
4, 379260, Note_on_c, 0, 81, 91
4, 379319, Note_on_c, 0, 81, 0
4, 379320, Note_on_c, 0, 83, 90
4, 379379, Note_on_c, 0, 83, 0
4, 379380, Note_on_c, 0, 81, 89
4, 379439, Note_on_c, 0, 81, 0
4, 379440, Note_on_c, 0, 83, 87
4, 379499, Note_on_c, 0, 83, 0
4, 379500, Note_on_c, 0, 81, 87
4, 379559, Note_on_c, 0, 81, 0
4, 379560, Note_on_c, 0, 83, 86
4, 379619, Note_on_c, 0, 83, 0
4, 379620, Note_on_c, 0, 81, 85
4, 379679, Note_on_c, 0, 81, 0
4, 379680, Note_on_c, 0, 83, 83
4, 379739, Note_on_c, 0, 83, 0
4, 379740, Note_on_c, 0, 81, 83
4, 379799, Note_on_c, 0, 81, 0
4, 379800, Note_on_c, 0, 83, 82
4, 379859, Note_on_c, 0, 83, 0
4, 379860, Note_on_c, 0, 81, 80
4, 379919, Note_on_c, 0, 81, 0
4, 379920, Note_on_c, 0, 83, 79
4, 379979, Note_on_c, 0, 83, 0
4, 379980, Note_on_c, 0, 81, 79
4, 380039, Note_on_c, 0, 81, 0
4, 380040, Note_on_c, 0, 83, 78
4, 380099, Note_on_c, 0, 83, 0
4, 380100, Note_on_c, 0, 81, 76
4, 380154, Note_on_c, 0, 81, 0
4, 380160, Note_on_c, 0, 81, 75
4, 380214, Note_on_c, 0, 81, 0
4, 380220, Note_on_c, 0, 83, 75
4, 380274, Note_on_c, 0, 83, 0
4, 380280, Note_on_c, 0, 81, 73
4, 380334, Note_on_c, 0, 81, 0
4, 380340, Note_on_c, 0, 83, 72
4, 380394, Note_on_c, 0, 83, 0
4, 380400, Note_on_c, 0, 81, 71
4, 380454, Note_on_c, 0, 81, 0
4, 380460, Note_on_c, 0, 83, 71
4, 380514, Note_on_c, 0, 83, 0
4, 380520, Note_on_c, 0, 81, 69
4, 380574, Note_on_c, 0, 81, 0
4, 380580, Note_on_c, 0, 83, 68
4, 380634, Note_on_c, 0, 83, 0
4, 380640, Note_on_c, 0, 81, 67
4, 380694, Note_on_c, 0, 81, 0
4, 380700, Note_on_c, 0, 83, 66
4, 380754, Note_on_c, 0, 83, 0
4, 380760, Note_on_c, 0, 81, 65
4, 380814, Note_on_c, 0, 81, 0
4, 380820, Note_on_c, 0, 83, 64
4, 380874, Note_on_c, 0, 83, 0
4, 380880, Note_on_c, 0, 81, 60
4, 380934, Note_on_c, 0, 81, 0
4, 380940, Note_on_c, 0, 83, 58
4, 380994, Note_on_c, 0, 83, 0
4, 381000, Note_on_c, 0, 81, 56
4, 381054, Note_on_c, 0, 81, 0
4, 381060, Note_on_c, 0, 83, 53
4, 381114, Note_on_c, 0, 83, 0
4, 381120, Note_on_c, 0, 81, 51
4, 381174, Note_on_c, 0, 81, 0
4, 381180, Note_on_c, 0, 83, 49
4, 381234, Note_on_c, 0, 83, 0
4, 381240, Note_on_c, 0, 81, 46
4, 381294, Note_on_c, 0, 81, 0
4, 381300, Note_on_c, 0, 83, 46
4, 381354, Note_on_c, 0, 83, 0
4, 381360, Note_on_c, 0, 81, 46
4, 381414, Note_on_c, 0, 81, 0
4, 381420, Note_on_c, 0, 83, 46
4, 381474, Note_on_c, 0, 83, 0
4, 381480, Note_on_c, 0, 81, 46
4, 381534, Note_on_c, 0, 81, 0
4, 381540, Note_on_c, 0, 83, 46
4, 381594, Note_on_c, 0, 83, 0
4, 381600, Note_on_c, 0, 79, 46
4, 381654, Note_on_c, 0, 79, 0
4, 381660, Note_on_c, 0, 81, 46
4, 381714, Note_on_c, 0, 81, 0
4, 381720, Note_on_c, 0, 79, 46
4, 381774, Note_on_c, 0, 79, 0
4, 381780, Note_on_c, 0, 81, 46
4, 381834, Note_on_c, 0, 81, 0
4, 381840, Note_on_c, 0, 79, 46
4, 381894, Note_on_c, 0, 79, 0
4, 381900, Note_on_c, 0, 81, 46
4, 381954, Note_on_c, 0, 81, 0
4, 381960, Note_on_c, 0, 79, 46
4, 382014, Note_on_c, 0, 79, 0
4, 382020, Note_on_c, 0, 81, 46
4, 382074, Note_on_c, 0, 81, 0
4, 382080, Note_on_c, 0, 79, 46
4, 382134, Note_on_c, 0, 79, 0
4, 382140, Note_on_c, 0, 81, 47
4, 382194, Note_on_c, 0, 81, 0
4, 382200, Note_on_c, 0, 79, 47
4, 382254, Note_on_c, 0, 79, 0
4, 382260, Note_on_c, 0, 81, 47
4, 382314, Note_on_c, 0, 81, 0
4, 382320, Note_on_c, 0, 79, 48
4, 382374, Note_on_c, 0, 79, 0
4, 382380, Note_on_c, 0, 81, 48
4, 382434, Note_on_c, 0, 81, 0
4, 382440, Note_on_c, 0, 79, 48
4, 382494, Note_on_c, 0, 79, 0
4, 382500, Note_on_c, 0, 81, 48
4, 382554, Note_on_c, 0, 81, 0
4, 382560, Note_on_c, 0, 78, 49
4, 382614, Note_on_c, 0, 78, 0
4, 382620, Note_on_c, 0, 79, 49
4, 382674, Note_on_c, 0, 79, 0
4, 382680, Note_on_c, 0, 78, 49
4, 382734, Note_on_c, 0, 78, 0
4, 382740, Note_on_c, 0, 79, 50
4, 382794, Note_on_c, 0, 79, 0
4, 382800, Note_on_c, 0, 78, 50
4, 382854, Note_on_c, 0, 78, 0
4, 382860, Note_on_c, 0, 79, 50
4, 382914, Note_on_c, 0, 79, 0
4, 382920, Note_on_c, 0, 78, 50
4, 382974, Note_on_c, 0, 78, 0
4, 382980, Note_on_c, 0, 79, 51
4, 383034, Note_on_c, 0, 79, 0
4, 383040, Note_on_c, 0, 78, 51
4, 383094, Note_on_c, 0, 78, 0
4, 383100, Note_on_c, 0, 79, 51
4, 383154, Note_on_c, 0, 79, 0
4, 383160, Note_on_c, 0, 78, 52
4, 383214, Note_on_c, 0, 78, 0
4, 383220, Note_on_c, 0, 79, 52
4, 383274, Note_on_c, 0, 79, 0
4, 383280, Note_on_c, 0, 78, 52
4, 383334, Note_on_c, 0, 78, 0
4, 383340, Note_on_c, 0, 79, 52
4, 383394, Note_on_c, 0, 79, 0
4, 383400, Note_on_c, 0, 78, 53
4, 383454, Note_on_c, 0, 78, 0
4, 383460, Note_on_c, 0, 79, 53
4, 383514, Note_on_c, 0, 79, 0
4, 383520, Note_on_c, 0, 76, 53
4, 383574, Note_on_c, 0, 76, 0
4, 383580, Note_on_c, 0, 77, 54
4, 383634, Note_on_c, 0, 77, 0
4, 383640, Note_on_c, 0, 76, 54
4, 383694, Note_on_c, 0, 76, 0
4, 383700, Note_on_c, 0, 77, 54
4, 383754, Note_on_c, 0, 77, 0
4, 383760, Note_on_c, 0, 76, 54
4, 383814, Note_on_c, 0, 76, 0
4, 383820, Note_on_c, 0, 77, 55
4, 383874, Note_on_c, 0, 77, 0
4, 383880, Note_on_c, 0, 76, 55
4, 383934, Note_on_c, 0, 76, 0
4, 383940, Note_on_c, 0, 77, 55
4, 383994, Note_on_c, 0, 77, 0
4, 384000, Note_on_c, 0, 83, 56
4, 384054, Note_on_c, 0, 83, 0
4, 384060, Note_on_c, 0, 84, 56
4, 384114, Note_on_c, 0, 84, 0
4, 384120, Note_on_c, 0, 83, 56
4, 384174, Note_on_c, 0, 83, 0
4, 384180, Note_on_c, 0, 84, 56
4, 384234, Note_on_c, 0, 84, 0
4, 384240, Note_on_c, 0, 83, 57
4, 384294, Note_on_c, 0, 83, 0
4, 384300, Note_on_c, 0, 84, 57
4, 384354, Note_on_c, 0, 84, 0
4, 384360, Note_on_c, 0, 83, 57
4, 384414, Note_on_c, 0, 83, 0
4, 384420, Note_on_c, 0, 84, 58
4, 384474, Note_on_c, 0, 84, 0
4, 384480, Note_on_c, 0, 81, 58
4, 384534, Note_on_c, 0, 81, 0
4, 384540, Note_on_c, 0, 83, 58
4, 384594, Note_on_c, 0, 83, 0
4, 384600, Note_on_c, 0, 81, 58
4, 384654, Note_on_c, 0, 81, 0
4, 384660, Note_on_c, 0, 83, 59
4, 384714, Note_on_c, 0, 83, 0
4, 384720, Note_on_c, 0, 81, 59
4, 384774, Note_on_c, 0, 81, 0
4, 384780, Note_on_c, 0, 83, 59
4, 384834, Note_on_c, 0, 83, 0
4, 384840, Note_on_c, 0, 81, 60
4, 384894, Note_on_c, 0, 81, 0
4, 384900, Note_on_c, 0, 83, 60
4, 384954, Note_on_c, 0, 83, 0
4, 384960, Note_on_c, 0, 81, 60
4, 385014, Note_on_c, 0, 81, 0
4, 385020, Note_on_c, 0, 83, 60
4, 385074, Note_on_c, 0, 83, 0
4, 385080, Note_on_c, 0, 81, 61
4, 385134, Note_on_c, 0, 81, 0
4, 385140, Note_on_c, 0, 83, 61
4, 385194, Note_on_c, 0, 83, 0
4, 385200, Note_on_c, 0, 81, 61
4, 385254, Note_on_c, 0, 81, 0
4, 385260, Note_on_c, 0, 83, 62
4, 385314, Note_on_c, 0, 83, 0
4, 385320, Note_on_c, 0, 81, 62
4, 385374, Note_on_c, 0, 81, 0
4, 385380, Note_on_c, 0, 83, 62
4, 385434, Note_on_c, 0, 83, 0
4, 385440, Note_on_c, 0, 79, 62
4, 385548, Note_on_c, 0, 79, 0
4, 385560, Note_on_c, 0, 78, 64
4, 385668, Note_on_c, 0, 78, 0
4, 385680, Note_on_c, 0, 81, 64
4, 385788, Note_on_c, 0, 81, 0
4, 385800, Note_on_c, 0, 79, 64
4, 385854, Note_on_c, 0, 79, 0
4, 385860, Note_on_c, 0, 76, 62
4, 385872, Control_c, 0, 64, 127
4, 385914, Note_on_c, 0, 76, 0
4, 385920, Note_on_c, 0, 74, 57
4, 386064, Note_on_c, 0, 74, 0
4, 386080, Note_on_c, 0, 76, 66
4, 386224, Note_on_c, 0, 76, 0
4, 386240, Note_on_c, 0, 73, 67
4, 386384, Note_on_c, 0, 73, 0
4, 386400, Note_on_c, 0, 74, 69
4, 386544, Note_on_c, 0, 74, 0
4, 386560, Note_on_c, 0, 76, 71
4, 386704, Note_on_c, 0, 76, 0
4, 386720, Note_on_c, 0, 78, 73
4, 386864, Note_on_c, 0, 78, 0
4, 386880, Note_on_c, 0, 79, 75
4, 387024, Note_on_c, 0, 79, 0
4, 387040, Note_on_c, 0, 80, 77
4, 387184, Note_on_c, 0, 80, 0
4, 387200, Note_on_c, 0, 81, 79
4, 387344, Note_on_c, 0, 81, 0
4, 387360, Note_on_c, 0, 83, 81
4, 387504, Note_on_c, 0, 83, 0
4, 387520, Note_on_c, 0, 80, 83
4, 387664, Note_on_c, 0, 80, 0
4, 387680, Note_on_c, 0, 81, 85
4, 387999, Note_on_c, 0, 81, 0
4, 388000, Note_on_c, 0, 83, 62
4, 388159, Note_on_c, 0, 83, 0
4, 388160, Note_on_c, 0, 85, 66
4, 388319, Note_on_c, 0, 85, 0
4, 388320, Note_on_c, 0, 86, 70
4, 388479, Note_on_c, 0, 86, 0
4, 388480, Note_on_c, 0, 88, 74
4, 388639, Note_on_c, 0, 88, 0
4, 388640, Note_on_c, 0, 90, 77
4, 388784, Note_on_c, 0, 90, 0
4, 388800, Note_on_c, 0, 91, 81
4, 388959, Note_on_c, 0, 91, 0
4, 388960, Note_on_c, 0, 92, 85
4, 389119, Note_on_c, 0, 92, 0
4, 389120, Note_on_c, 0, 93, 89
4, 389279, Note_on_c, 0, 93, 0
4, 389280, Note_on_c, 0, 94, 93
4, 389439, Note_on_c, 0, 94, 0
4, 389440, Note_on_c, 0, 91, 93
4, 389599, Note_on_c, 0, 91, 0
4, 389600, Note_on_c, 0, 93, 91
4, 389744, Note_on_c, 0, 93, 0
4, 389760, Note_on_c, 0, 90, 89
4, 389919, Note_on_c, 0, 90, 0
4, 389920, Note_on_c, 0, 92, 88
4, 390079, Note_on_c, 0, 92, 0
4, 390080, Note_on_c, 0, 88, 86
4, 390239, Note_on_c, 0, 88, 0
4, 390240, Note_on_c, 0, 85, 84
4, 390399, Note_on_c, 0, 85, 0
4, 390400, Note_on_c, 0, 81, 83
4, 390492, Control_c, 0, 64, 0
4, 390559, Note_on_c, 0, 81, 0
4, 390560, Note_on_c, 0, 79, 78
4, 390704, Note_on_c, 0, 79, 0
4, 390720, Note_on_c, 0, 76, 74
4, 390800, Note_on_c, 0, 76, 0
4, 390880, Note_on_c, 0, 73, 70
4, 390960, Note_on_c, 0, 73, 0
4, 391040, Note_on_c, 0, 69, 66
4, 391120, Note_on_c, 0, 69, 0
4, 391200, Note_on_c, 0, 67, 62
4, 391280, Note_on_c, 0, 67, 0
4, 391360, Note_on_c, 0, 64, 58
4, 391440, Note_on_c, 0, 64, 0
4, 391520, Note_on_c, 0, 61, 53
4, 391556, Note_on_c, 0, 61, 0
4, 393600, Note_on_c, 0, 57, 70
4, 393600, Control_c, 0, 64, 127
4, 393839, Note_on_c, 0, 57, 0
4, 393840, Note_on_c, 0, 61, 71
4, 394079, Note_on_c, 0, 61, 0
4, 394080, Note_on_c, 0, 62, 73
4, 394319, Note_on_c, 0, 62, 0
4, 394320, Note_on_c, 0, 66, 75
4, 394536, Note_on_c, 0, 66, 0
4, 394560, Note_on_c, 0, 69, 76
4, 395279, Note_on_c, 0, 69, 0
4, 395280, Note_on_c, 0, 62, 81
4, 395496, Note_on_c, 0, 62, 0
4, 395520, Note_on_c, 0, 67, 83
4, 395999, Note_on_c, 0, 67, 0
4, 396000, Note_on_c, 0, 66, 87
4, 396239, Note_on_c, 0, 66, 0
4, 396240, Note_on_c, 0, 64, 88
4, 396456, Note_on_c, 0, 64, 0
4, 396480, Note_on_c, 0, 64, 90
4, 396959, Note_on_c, 0, 64, 0
4, 396960, Note_on_c, 0, 69, 94
4, 397303, Control_c, 0, 64, 0
4, 397392, Note_on_c, 0, 69, 0
4, 397440, Control_c, 0, 64, 127
4, 397440, Note_on_c, 0, 69, 64
4, 397440, Note_on_c, 0, 62, 64
4, 398304, Note_on_c, 0, 62, 0
4, 398304, Note_on_c, 0, 69, 0
4, 398400, Note_on_c, 0, 69, 64
4, 398400, Note_on_c, 0, 62, 64
4, 399264, Note_on_c, 0, 62, 0
4, 399264, Note_on_c, 0, 69, 0
4, 399360, Note_on_c, 0, 74, 86
4, 400008, Note_on_c, 0, 74, 0
4, 400080, Note_on_c, 0, 68, 56
4, 400245, Control_c, 0, 64, 0
4, 400296, Note_on_c, 0, 68, 0
4, 400320, Control_c, 0, 64, 127
4, 400320, Note_on_c, 0, 69, 76
4, 400536, Note_on_c, 0, 69, 0
4, 400560, Note_on_c, 0, 76, 78
4, 400776, Note_on_c, 0, 76, 0
4, 400800, Note_on_c, 0, 78, 76
4, 401016, Note_on_c, 0, 78, 0
4, 401040, Note_on_c, 0, 76, 70
4, 401256, Note_on_c, 0, 76, 0
4, 401280, Note_on_c, 0, 74, 45
4, 401280, Note_on_c, 0, 78, 45
4, 401280, Note_on_c, 0, 66, 45
4, 401604, Note_on_c, 0, 66, 0
4, 401604, Note_on_c, 0, 78, 0
4, 401604, Note_on_c, 0, 74, 0
4, 401916, Control_c, 0, 64, 0
4, 408960, Control_c, 0, 64, 127
4, 408960, Note_on_c, 0, 54, 65
4, 409199, Note_on_c, 0, 54, 0
4, 409200, Note_on_c, 0, 57, 67
4, 409439, Note_on_c, 0, 57, 0
4, 409440, Note_on_c, 0, 62, 75
4, 409679, Note_on_c, 0, 62, 0
4, 409680, Note_on_c, 0, 66, 82
4, 409896, Note_on_c, 0, 66, 0
4, 409920, Note_on_c, 0, 69, 71
4, 410639, Note_on_c, 0, 69, 0
4, 410640, Note_on_c, 0, 62, 75
4, 410670, Control_c, 0, 64, 0
4, 410856, Note_on_c, 0, 62, 0
4, 410880, Note_on_c, 0, 67, 77
4, 410910, Control_c, 0, 64, 127
4, 411359, Note_on_c, 0, 67, 0
4, 411360, Note_on_c, 0, 67, 88
4, 411599, Note_on_c, 0, 67, 0
4, 411600, Note_on_c, 0, 64, 87
4, 411816, Note_on_c, 0, 64, 0
4, 411840, Note_on_c, 0, 62, 84
4, 411840, Note_on_c, 0, 64, 84
4, 411840, Control_c, 0, 64, 0
4, 411945, Control_c, 0, 64, 127
4, 412319, Note_on_c, 0, 62, 0
4, 412320, Note_on_c, 0, 61, 78
4, 412320, Note_on_c, 0, 69, 78
4, 412752, Note_on_c, 0, 69, 0
4, 412752, Note_on_c, 0, 61, 0
4, 412752, Note_on_c, 0, 64, 0
4, 412800, Note_on_c, 0, 62, 77
4, 412800, Note_on_c, 0, 69, 77
4, 413519, Note_on_c, 0, 69, 0
4, 413519, Note_on_c, 0, 62, 0
4, 413520, Note_on_c, 0, 62, 65
4, 413520, Note_on_c, 0, 69, 65
4, 413736, Note_on_c, 0, 69, 0
4, 413736, Note_on_c, 0, 62, 0
4, 413760, Note_on_c, 0, 69, 67
4, 414479, Note_on_c, 0, 69, 0
4, 414480, Note_on_c, 0, 74, 72
4, 414696, Note_on_c, 0, 74, 0
4, 414720, Note_on_c, 0, 74, 89
4, 415584, Note_on_c, 0, 74, 0
4, 415620, Control_c, 0, 64, 0
4, 415680, Control_c, 0, 64, 127
4, 415680, Note_on_c, 0, 73, 81
4, 415919, Note_on_c, 0, 73, 0
4, 415920, Note_on_c, 0, 76, 80
4, 416159, Note_on_c, 0, 76, 0
4, 416160, Note_on_c, 0, 69, 79
4, 416160, Note_on_c, 0, 78, 79
4, 416160, Note_on_c, 0, 74, 79
4, 416399, Note_on_c, 0, 74, 0
4, 416399, Note_on_c, 0, 78, 0
4, 416399, Note_on_c, 0, 69, 0
4, 416400, Note_on_c, 0, 76, 73
4, 416400, Note_on_c, 0, 73, 73
4, 416400, Note_on_c, 0, 67, 73
4, 416616, Note_on_c, 0, 67, 0
4, 416616, Note_on_c, 0, 73, 0
4, 416616, Note_on_c, 0, 76, 0
4, 416640, Note_on_c, 0, 74, 71
4, 416640, Note_on_c, 0, 69, 71
4, 416640, Note_on_c, 0, 66, 71
4, 416964, Note_on_c, 0, 66, 0
4, 416964, Note_on_c, 0, 69, 0
4, 416964, Note_on_c, 0, 74, 0
4, 417360, Control_c, 0, 64, 0
4, 424320, Control_c, 0, 64, 127
4, 424320, Note_on_c, 0, 86, 51
4, 424320, Note_on_c, 0, 78, 51
4, 424795, Note_on_c, 0, 78, 0
4, 424795, Note_on_c, 0, 86, 0
4, 425280, Control_c, 0, 64, 0
4, 430080, Note_on_c, 0, 81, 64
4, 430919, Note_on_c, 0, 81, 0
4, 430920, Note_on_c, 0, 81, 64
4, 431028, Note_on_c, 0, 81, 0
4, 431040, Note_on_c, 0, 81, 64
4, 431879, Note_on_c, 0, 81, 0
4, 431880, Note_on_c, 0, 86, 64
4, 431988, Note_on_c, 0, 86, 0
4, 432000, Note_on_c, 0, 86, 64
4, 432432, Note_on_c, 0, 86, 0
4, 446400, Note_on_c, 0, 62, 85
4, 446639, Note_on_c, 0, 62, 0
4, 446640, Note_on_c, 0, 67, 95
4, 447119, Note_on_c, 0, 67, 0
4, 447120, Note_on_c, 0, 69, 99
4, 447179, Note_on_c, 0, 69, 0
4, 447180, Note_on_c, 0, 71, 95
4, 447239, Note_on_c, 0, 71, 0
4, 447240, Note_on_c, 0, 69, 92
4, 447299, Note_on_c, 0, 69, 0
4, 447300, Note_on_c, 0, 71, 89
4, 447599, Note_on_c, 0, 71, 0
4, 447600, Note_on_c, 0, 74, 83
4, 447839, Note_on_c, 0, 74, 0
4, 447840, Note_on_c, 0, 79, 89
4, 448079, Note_on_c, 0, 79, 0
4, 448080, Note_on_c, 0, 79, 94
4, 448296, Note_on_c, 0, 79, 0
4, 448320, Note_on_c, 0, 79, 100
4, 449280, Control_c, 0, 64, 127
4, 449519, Note_on_c, 0, 79, 0
4, 449520, Note_on_c, 0, 79, 102
4, 449759, Note_on_c, 0, 79, 0
4, 449760, Note_on_c, 0, 78, 99
4, 449999, Note_on_c, 0, 78, 0
4, 450000, Note_on_c, 0, 76, 95
4, 450216, Note_on_c, 0, 76, 0
4, 450240, Note_on_c, 0, 74, 91
4, 450240, Control_c, 0, 64, 0
4, 450348, Note_on_c, 0, 74, 0
4, 450480, Note_on_c, 0, 78, 106
4, 450959, Note_on_c, 0, 78, 0
4, 450960, Note_on_c, 0, 79, 103
4, 451019, Note_on_c, 0, 79, 0
4, 451020, Note_on_c, 0, 81, 102
4, 451079, Note_on_c, 0, 81, 0
4, 451080, Note_on_c, 0, 79, 99
4, 451139, Note_on_c, 0, 79, 0
4, 451140, Note_on_c, 0, 81, 96
4, 451194, Note_on_c, 0, 81, 0
4, 451200, Note_on_c, 0, 81, 94
4, 451200, Control_c, 0, 64, 127
4, 451439, Note_on_c, 0, 81, 0
4, 451440, Note_on_c, 0, 84, 93
4, 451679, Note_on_c, 0, 84, 0
4, 451680, Note_on_c, 0, 93, 100
4, 451896, Note_on_c, 0, 93, 0
4, 451920, Note_on_c, 0, 93, 106
4, 452136, Note_on_c, 0, 93, 0
4, 452160, Control_c, 0, 64, 0
4, 452400, Note_on_c, 0, 62, 82
4, 452424, Control_c, 0, 64, 127
4, 452508, Note_on_c, 0, 62, 0
4, 452520, Note_on_c, 0, 71, 91
4, 452628, Note_on_c, 0, 71, 0
4, 452640, Note_on_c, 0, 74, 89
4, 452748, Note_on_c, 0, 74, 0
4, 452760, Note_on_c, 0, 71, 86
4, 452868, Note_on_c, 0, 71, 0
4, 452880, Note_on_c, 0, 62, 83
4, 452988, Note_on_c, 0, 62, 0
4, 453264, Control_c, 0, 64, 0
4, 453360, Note_on_c, 0, 62, 87
4, 453432, Control_c, 0, 64, 127
4, 453468, Note_on_c, 0, 62, 0
4, 453480, Note_on_c, 0, 69, 94
4, 453588, Note_on_c, 0, 69, 0
4, 453600, Note_on_c, 0, 74, 90
4, 453708, Note_on_c, 0, 74, 0
4, 453720, Note_on_c, 0, 69, 88
4, 453828, Note_on_c, 0, 69, 0
4, 453840, Note_on_c, 0, 62, 85
4, 453948, Note_on_c, 0, 62, 0
4, 454183, Control_c, 0, 64, 0
4, 454320, Note_on_c, 0, 62, 90
4, 454354, Control_c, 0, 64, 127
4, 454428, Note_on_c, 0, 62, 0
4, 454440, Note_on_c, 0, 68, 96
4, 454548, Note_on_c, 0, 68, 0
4, 454560, Note_on_c, 0, 74, 96
4, 454668, Note_on_c, 0, 74, 0
4, 454680, Note_on_c, 0, 68, 91
4, 454788, Note_on_c, 0, 68, 0
4, 454800, Note_on_c, 0, 62, 85
4, 454908, Note_on_c, 0, 62, 0
4, 455143, Control_c, 0, 64, 0
4, 455263, Control_c, 0, 64, 127
4, 455280, Note_on_c, 0, 61, 89
4, 455388, Note_on_c, 0, 61, 0
4, 455400, Note_on_c, 0, 67, 102
4, 455508, Note_on_c, 0, 67, 0
4, 455520, Note_on_c, 0, 73, 93
4, 455628, Note_on_c, 0, 73, 0
4, 455640, Note_on_c, 0, 67, 90
4, 455748, Note_on_c, 0, 67, 0
4, 455760, Note_on_c, 0, 61, 86
4, 455868, Note_on_c, 0, 61, 0
4, 456000, Control_c, 0, 64, 0
4, 456120, Note_on_c, 0, 57, 96
4, 456228, Note_on_c, 0, 57, 0
4, 456240, Note_on_c, 0, 66, 90
4, 456348, Note_on_c, 0, 66, 0
4, 456360, Note_on_c, 0, 69, 84
4, 456468, Note_on_c, 0, 69, 0
4, 456600, Note_on_c, 0, 57, 96
4, 456708, Note_on_c, 0, 57, 0
4, 456720, Note_on_c, 0, 65, 90
4, 456828, Note_on_c, 0, 65, 0
4, 456840, Note_on_c, 0, 69, 85
4, 456948, Note_on_c, 0, 69, 0
4, 457080, Note_on_c, 0, 55, 96
4, 457188, Note_on_c, 0, 55, 0
4, 457200, Note_on_c, 0, 64, 91
4, 457308, Note_on_c, 0, 64, 0
4, 457320, Note_on_c, 0, 67, 87
4, 457428, Note_on_c, 0, 67, 0
4, 457560, Note_on_c, 0, 61, 94
4, 457668, Note_on_c, 0, 61, 0
4, 457680, Note_on_c, 0, 64, 87
4, 457788, Note_on_c, 0, 64, 0
4, 457800, Note_on_c, 0, 67, 81
4, 457908, Note_on_c, 0, 67, 0
4, 458040, Note_on_c, 0, 57, 93
4, 458148, Note_on_c, 0, 57, 0
4, 458160, Note_on_c, 0, 66, 86
4, 458268, Note_on_c, 0, 66, 0
4, 458280, Note_on_c, 0, 69, 80
4, 458388, Note_on_c, 0, 69, 0
4, 458520, Note_on_c, 0, 62, 88
4, 458628, Note_on_c, 0, 62, 0
4, 458640, Note_on_c, 0, 67, 82
4, 458748, Note_on_c, 0, 67, 0
4, 458760, Note_on_c, 0, 71, 78
4, 458868, Note_on_c, 0, 71, 0
4, 459000, Note_on_c, 0, 62, 84
4, 459119, Note_on_c, 0, 62, 0
4, 459120, Note_on_c, 0, 66, 78
4, 459239, Note_on_c, 0, 66, 0
4, 459240, Note_on_c, 0, 69, 72
4, 459479, Note_on_c, 0, 69, 0
4, 459480, Note_on_c, 0, 61, 67
4, 459599, Note_on_c, 0, 61, 0
4, 459600, Note_on_c, 0, 64, 73
4, 459719, Note_on_c, 0, 64, 0
4, 459720, Note_on_c, 0, 69, 68
4, 459828, Note_on_c, 0, 69, 0
4, 459840, Note_on_c, 0, 57, 97
4, 459948, Note_on_c, 0, 57, 0
4, 460080, Note_on_c, 0, 62, 85
4, 460512, Note_on_c, 0, 62, 0
4, 460560, Note_on_c, 0, 62, 86
4, 460614, Note_on_c, 0, 62, 0
4, 460620, Note_on_c, 0, 64, 88
4, 460674, Note_on_c, 0, 64, 0
4, 460680, Note_on_c, 0, 62, 90
4, 460734, Note_on_c, 0, 62, 0
4, 460740, Note_on_c, 0, 64, 92
4, 460794, Note_on_c, 0, 64, 0
4, 460800, Control_c, 0, 64, 127
4, 460800, Note_on_c, 0, 66, 94
4, 460908, Note_on_c, 0, 66, 0
4, 461040, Note_on_c, 0, 69, 107
4, 461148, Note_on_c, 0, 69, 0
4, 461280, Note_on_c, 0, 74, 91
4, 461388, Note_on_c, 0, 74, 0
4, 461520, Note_on_c, 0, 74, 98
4, 461628, Note_on_c, 0, 74, 0
4, 461760, Control_c, 0, 64, 0
4, 461760, Note_on_c, 0, 62, 76
4, 461868, Note_on_c, 0, 62, 0
4, 462000, Note_on_c, 0, 67, 107
4, 462432, Note_on_c, 0, 67, 0
4, 462480, Note_on_c, 0, 69, 86
4, 462534, Note_on_c, 0, 69, 0
4, 462540, Note_on_c, 0, 71, 89
4, 462594, Note_on_c, 0, 71, 0
4, 462600, Note_on_c, 0, 69, 92
4, 462654, Note_on_c, 0, 69, 0
4, 462660, Note_on_c, 0, 71, 95
4, 462714, Note_on_c, 0, 71, 0
4, 462720, Control_c, 0, 64, 127
4, 462720, Note_on_c, 0, 71, 99
4, 462936, Note_on_c, 0, 71, 0
4, 462960, Note_on_c, 0, 74, 96
4, 463068, Note_on_c, 0, 74, 0
4, 463200, Note_on_c, 0, 79, 93
4, 463200, Note_on_c, 0, 72, 93
4, 463308, Note_on_c, 0, 72, 0
4, 463308, Note_on_c, 0, 79, 0
4, 463440, Note_on_c, 0, 79, 90
4, 463440, Note_on_c, 0, 71, 90
4, 463548, Note_on_c, 0, 71, 0
4, 463548, Note_on_c, 0, 79, 0
4, 463680, Control_c, 0, 64, 0
4, 463680, Note_on_c, 0, 67, 86
4, 463788, Note_on_c, 0, 67, 0
4, 463920, Note_on_c, 0, 72, 105
4, 464352, Note_on_c, 0, 72, 0
4, 464400, Note_on_c, 0, 74, 86
4, 464454, Note_on_c, 0, 74, 0
4, 464460, Note_on_c, 0, 76, 89
4, 464514, Note_on_c, 0, 76, 0
4, 464520, Note_on_c, 0, 74, 92
4, 464574, Note_on_c, 0, 74, 0
4, 464580, Note_on_c, 0, 76, 96
4, 464856, Note_on_c, 0, 76, 0
4, 464880, Note_on_c, 0, 74, 96
4, 464880, Note_on_c, 0, 67, 96
4, 464988, Note_on_c, 0, 67, 0
4, 464988, Note_on_c, 0, 74, 0
4, 465120, Note_on_c, 0, 76, 94
4, 465120, Note_on_c, 0, 72, 94
4, 465228, Note_on_c, 0, 72, 0
4, 465228, Note_on_c, 0, 76, 0
4, 465360, Note_on_c, 0, 79, 91
4, 465360, Note_on_c, 0, 74, 91
4, 465360, Note_on_c, 0, 71, 91
4, 465468, Note_on_c, 0, 71, 0
4, 465468, Note_on_c, 0, 74, 0
4, 465468, Note_on_c, 0, 79, 0
4, 465600, Control_c, 0, 64, 127
4, 465600, Note_on_c, 0, 76, 88
4, 465600, Note_on_c, 0, 72, 88
4, 465600, Note_on_c, 0, 79, 88
4, 465816, Note_on_c, 0, 79, 0
4, 465816, Note_on_c, 0, 72, 0
4, 465816, Note_on_c, 0, 76, 0
4, 465840, Note_on_c, 0, 72, 85
4, 466170, Control_c, 0, 64, 0
4, 466272, Note_on_c, 0, 72, 0
4, 466320, Note_on_c, 0, 74, 89
4, 466374, Note_on_c, 0, 74, 0
4, 466380, Note_on_c, 0, 76, 91
4, 466434, Note_on_c, 0, 76, 0
4, 466440, Note_on_c, 0, 74, 95
4, 466494, Note_on_c, 0, 74, 0
4, 466500, Note_on_c, 0, 76, 98
4, 466776, Note_on_c, 0, 76, 0
4, 466800, Note_on_c, 0, 74, 97
4, 466800, Note_on_c, 0, 67, 97
4, 467016, Note_on_c, 0, 67, 0
4, 467016, Note_on_c, 0, 74, 0
4, 467040, Note_on_c, 0, 76, 93
4, 467040, Note_on_c, 0, 72, 93
4, 467256, Note_on_c, 0, 72, 0
4, 467256, Note_on_c, 0, 76, 0
4, 467280, Note_on_c, 0, 71, 90
4, 467280, Note_on_c, 0, 79, 90
4, 467280, Note_on_c, 0, 74, 90
4, 467496, Note_on_c, 0, 74, 0
4, 467496, Note_on_c, 0, 79, 0
4, 467496, Note_on_c, 0, 71, 0
4, 467520, Note_on_c, 0, 76, 87
4, 467520, Note_on_c, 0, 72, 87
4, 467736, Note_on_c, 0, 72, 0
4, 467736, Note_on_c, 0, 76, 0
4, 467760, Note_on_c, 0, 76, 106
4, 467760, Note_on_c, 0, 72, 106
4, 468239, Note_on_c, 0, 72, 0
4, 468239, Note_on_c, 0, 76, 0
4, 468240, Note_on_c, 0, 76, 92
4, 468240, Note_on_c, 0, 72, 92
4, 468456, Note_on_c, 0, 72, 0
4, 468456, Note_on_c, 0, 76, 0
4, 468480, Note_on_c, 0, 76, 95
4, 468480, Note_on_c, 0, 72, 95
4, 468696, Note_on_c, 0, 72, 0
4, 468696, Note_on_c, 0, 76, 0
4, 468720, Note_on_c, 0, 76, 108
4, 468720, Note_on_c, 0, 72, 108
4, 469199, Note_on_c, 0, 72, 0
4, 469199, Note_on_c, 0, 76, 0
4, 469200, Note_on_c, 0, 76, 88
4, 469200, Note_on_c, 0, 72, 88
4, 469416, Note_on_c, 0, 72, 0
4, 469416, Note_on_c, 0, 76, 0
4, 469440, Note_on_c, 0, 76, 107
4, 469440, Note_on_c, 0, 72, 107
4, 469860, Control_c, 0, 64, 127
4, 469872, Note_on_c, 0, 72, 0
4, 469872, Note_on_c, 0, 76, 0
4, 469920, Note_on_c, 0, 72, 93
4, 469992, Note_on_c, 0, 72, 0
4, 470000, Note_on_c, 0, 76, 102
4, 470072, Note_on_c, 0, 76, 0
4, 470080, Note_on_c, 0, 84, 112
4, 470152, Note_on_c, 0, 84, 0
4, 470348, Control_c, 0, 64, 0
4, 470400, Note_on_c, 0, 76, 96
4, 470400, Note_on_c, 0, 72, 96
4, 470400, Note_on_c, 0, 84, 96
4, 470616, Note_on_c, 0, 84, 0
4, 470616, Note_on_c, 0, 72, 0
4, 470616, Note_on_c, 0, 76, 0
4, 470640, Note_on_c, 0, 72, 85
4, 470640, Note_on_c, 0, 84, 85
4, 470640, Note_on_c, 0, 76, 85
4, 471119, Note_on_c, 0, 76, 0
4, 471119, Note_on_c, 0, 84, 0
4, 471119, Note_on_c, 0, 72, 0
4, 471120, Note_on_c, 0, 76, 96
4, 471120, Note_on_c, 0, 72, 96
4, 471120, Note_on_c, 0, 84, 96
4, 471336, Note_on_c, 0, 84, 0
4, 471336, Note_on_c, 0, 72, 0
4, 471336, Note_on_c, 0, 76, 0
4, 471360, Note_on_c, 0, 85, 86
4, 471360, Note_on_c, 0, 76, 86
4, 471360, Note_on_c, 0, 73, 86
4, 471792, Note_on_c, 0, 73, 0
4, 471792, Note_on_c, 0, 76, 0
4, 471792, Note_on_c, 0, 85, 0
4, 471840, Control_c, 0, 64, 127
4, 471840, Note_on_c, 0, 73, 90
4, 471912, Note_on_c, 0, 73, 0
4, 471920, Note_on_c, 0, 76, 98
4, 471992, Note_on_c, 0, 76, 0
4, 472000, Note_on_c, 0, 85, 105
4, 472072, Note_on_c, 0, 85, 0
4, 472200, Control_c, 0, 64, 0
4, 472320, Note_on_c, 0, 76, 96
4, 472320, Note_on_c, 0, 73, 96
4, 472320, Note_on_c, 0, 85, 96
4, 472536, Note_on_c, 0, 85, 0
4, 472536, Note_on_c, 0, 73, 0
4, 472536, Note_on_c, 0, 76, 0
4, 472560, Note_on_c, 0, 85, 89
4, 472560, Note_on_c, 0, 76, 89
4, 472560, Note_on_c, 0, 73, 89
4, 473039, Note_on_c, 0, 73, 0
4, 473039, Note_on_c, 0, 76, 0
4, 473039, Note_on_c, 0, 85, 0
4, 473040, Note_on_c, 0, 85, 82
4, 473040, Note_on_c, 0, 76, 82
4, 473040, Note_on_c, 0, 73, 82
4, 473256, Note_on_c, 0, 73, 0
4, 473256, Note_on_c, 0, 76, 0
4, 473256, Note_on_c, 0, 85, 0
4, 473280, Note_on_c, 0, 84, 82
4, 473280, Note_on_c, 0, 77, 82
4, 473280, Note_on_c, 0, 72, 82
4, 473280, Note_on_c, 0, 81, 82
4, 473640, Control_c, 0, 64, 127
4, 473759, Note_on_c, 0, 81, 0
4, 473759, Note_on_c, 0, 84, 0
4, 473759, Note_on_c, 0, 77, 0
4, 473759, Note_on_c, 0, 72, 0
4, 473760, Note_on_c, 0, 72, 87
4, 473832, Note_on_c, 0, 72, 0
4, 473840, Note_on_c, 0, 81, 93
4, 473912, Note_on_c, 0, 81, 0
4, 473920, Note_on_c, 0, 84, 99
4, 473992, Note_on_c, 0, 84, 0
4, 474103, Control_c, 0, 64, 0
4, 474240, Note_on_c, 0, 84, 106
4, 474240, Note_on_c, 0, 81, 106
4, 474240, Note_on_c, 0, 72, 106
4, 474456, Note_on_c, 0, 72, 0
4, 474456, Note_on_c, 0, 81, 0
4, 474456, Note_on_c, 0, 84, 0
4, 474480, Note_on_c, 0, 72, 85
4, 474480, Note_on_c, 0, 84, 85
4, 474480, Note_on_c, 0, 81, 85
4, 474959, Note_on_c, 0, 81, 0
4, 474959, Note_on_c, 0, 84, 0
4, 474959, Note_on_c, 0, 72, 0
4, 474960, Note_on_c, 0, 81, 87
4, 474960, Note_on_c, 0, 72, 87
4, 474960, Note_on_c, 0, 84, 87
4, 475176, Note_on_c, 0, 84, 0
4, 475176, Note_on_c, 0, 72, 0
4, 475176, Note_on_c, 0, 81, 0
4, 475200, Note_on_c, 0, 81, 82
4, 475200, Note_on_c, 0, 74, 82
4, 475200, Note_on_c, 0, 86, 82
4, 475608, Control_c, 0, 64, 127
4, 475679, Note_on_c, 0, 86, 0
4, 475679, Note_on_c, 0, 74, 0
4, 475679, Note_on_c, 0, 81, 0
4, 475680, Note_on_c, 0, 74, 89
4, 475752, Note_on_c, 0, 74, 0
4, 475760, Note_on_c, 0, 81, 95
4, 475832, Note_on_c, 0, 81, 0
4, 475840, Note_on_c, 0, 86, 101
4, 475912, Note_on_c, 0, 86, 0
4, 476064, Control_c, 0, 64, 0
4, 476160, Note_on_c, 0, 86, 111
4, 476160, Note_on_c, 0, 81, 111
4, 476160, Note_on_c, 0, 74, 111
4, 476399, Note_on_c, 0, 74, 0
4, 476399, Note_on_c, 0, 81, 0
4, 476399, Note_on_c, 0, 86, 0
4, 476400, Note_on_c, 0, 74, 105
4, 476400, Note_on_c, 0, 69, 105
4, 476400, Note_on_c, 0, 78, 105
4, 476879, Note_on_c, 0, 78, 0
4, 476879, Note_on_c, 0, 69, 0
4, 476879, Note_on_c, 0, 74, 0
4, 476880, Note_on_c, 0, 78, 96
4, 476880, Note_on_c, 0, 74, 96
4, 476880, Note_on_c, 0, 69, 96
4, 477096, Note_on_c, 0, 69, 0
4, 477096, Note_on_c, 0, 74, 0
4, 477096, Note_on_c, 0, 78, 0
4, 477360, Note_on_c, 0, 74, 109
4, 477360, Note_on_c, 0, 71, 109
4, 477360, Note_on_c, 0, 79, 109
4, 477576, Note_on_c, 0, 79, 0
4, 477576, Note_on_c, 0, 71, 0
4, 477576, Note_on_c, 0, 74, 0
4, 477840, Note_on_c, 0, 78, 96
4, 477840, Note_on_c, 0, 74, 96
4, 477840, Note_on_c, 0, 69, 96
4, 478056, Note_on_c, 0, 69, 0
4, 478056, Note_on_c, 0, 74, 0
4, 478056, Note_on_c, 0, 78, 0
4, 478320, Note_on_c, 0, 71, 107
4, 478320, Note_on_c, 0, 79, 107
4, 478320, Note_on_c, 0, 74, 107
4, 478536, Note_on_c, 0, 74, 0
4, 478536, Note_on_c, 0, 79, 0
4, 478536, Note_on_c, 0, 71, 0
4, 478800, Note_on_c, 0, 78, 84
4, 478800, Note_on_c, 0, 74, 84
4, 478800, Note_on_c, 0, 69, 84
4, 479016, Note_on_c, 0, 69, 0
4, 479016, Note_on_c, 0, 74, 0
4, 479016, Note_on_c, 0, 78, 0
4, 479040, Note_on_c, 0, 73, 105
4, 479040, Note_on_c, 0, 69, 105
4, 479040, Note_on_c, 0, 76, 105
4, 479256, Note_on_c, 0, 76, 0
4, 479256, Note_on_c, 0, 69, 0
4, 479256, Note_on_c, 0, 73, 0
4, 479436, Control_c, 0, 64, 127
4, 479520, Note_on_c, 0, 57, 85
4, 479639, Note_on_c, 0, 57, 0
4, 479640, Note_on_c, 0, 61, 88
4, 479759, Note_on_c, 0, 61, 0
4, 479760, Note_on_c, 0, 64, 92
4, 479879, Note_on_c, 0, 64, 0
4, 479880, Note_on_c, 0, 69, 96
4, 479988, Note_on_c, 0, 69, 0
4, 480583, Control_c, 0, 64, 0
4, 482880, Control_c, 0, 64, 127
4, 482880, Note_on_c, 0, 88, 70
4, 482880, Note_on_c, 0, 91, 70
4, 483096, Note_on_c, 0, 91, 0
4, 483096, Note_on_c, 0, 88, 0
4, 483120, Note_on_c, 0, 91, 79
4, 483120, Note_on_c, 0, 85, 79
4, 483552, Note_on_c, 0, 85, 0
4, 483552, Note_on_c, 0, 91, 0
4, 483600, Note_on_c, 0, 90, 71
4, 483600, Note_on_c, 0, 86, 71
4, 484056, Note_on_c, 0, 86, 0
4, 484056, Note_on_c, 0, 90, 0
4, 484080, Note_on_c, 0, 88, 71
4, 484080, Note_on_c, 0, 81, 71
4, 484512, Note_on_c, 0, 81, 0
4, 484512, Note_on_c, 0, 88, 0
4, 484560, Note_on_c, 0, 86, 71
4, 484560, Note_on_c, 0, 81, 71
4, 484800, Control_c, 0, 64, 0
4, 485016, Note_on_c, 0, 81, 0
4, 485016, Note_on_c, 0, 86, 0
4, 485040, Note_on_c, 0, 85, 71
4, 485074, Control_c, 0, 64, 127
4, 485256, Note_on_c, 0, 85, 0
4, 485280, Note_on_c, 0, 80, 71
4, 485496, Note_on_c, 0, 80, 0
4, 485520, Note_on_c, 0, 83, 67
4, 485999, Note_on_c, 0, 83, 0
4, 486000, Note_on_c, 0, 85, 74
4, 486239, Note_on_c, 0, 85, 0
4, 486240, Note_on_c, 0, 80, 69
4, 486479, Note_on_c, 0, 80, 0
4, 486480, Note_on_c, 0, 83, 65
4, 486959, Note_on_c, 0, 83, 0
4, 486960, Note_on_c, 0, 85, 71
4, 487199, Note_on_c, 0, 85, 0
4, 487200, Note_on_c, 0, 80, 68
4, 487439, Note_on_c, 0, 80, 0
4, 487440, Note_on_c, 0, 83, 65
4, 487577, Control_c, 0, 64, 0
4, 487680, Control_c, 0, 64, 127
4, 487919, Note_on_c, 0, 83, 0
4, 487920, Note_on_c, 0, 81, 71
4, 488159, Note_on_c, 0, 81, 0
4, 488160, Note_on_c, 0, 76, 68
4, 488399, Note_on_c, 0, 76, 0
4, 488400, Note_on_c, 0, 79, 65
4, 488879, Note_on_c, 0, 79, 0
4, 488880, Note_on_c, 0, 78, 68
4, 489119, Note_on_c, 0, 78, 0
4, 489120, Note_on_c, 0, 73, 66
4, 489359, Note_on_c, 0, 73, 0
4, 489360, Note_on_c, 0, 76, 64
4, 489497, Control_c, 0, 64, 0
4, 489600, Control_c, 0, 64, 127
4, 489839, Note_on_c, 0, 76, 0
4, 489840, Note_on_c, 0, 74, 65
4, 490079, Note_on_c, 0, 74, 0
4, 490080, Note_on_c, 0, 65, 63
4, 490319, Note_on_c, 0, 65, 0
4, 490320, Note_on_c, 0, 74, 60
4, 490799, Note_on_c, 0, 74, 0
4, 490800, Note_on_c, 0, 74, 66
4, 491039, Note_on_c, 0, 74, 0
4, 491040, Note_on_c, 0, 65, 63
4, 491279, Note_on_c, 0, 65, 0
4, 491280, Note_on_c, 0, 74, 60
4, 491314, Control_c, 0, 64, 0
4, 491520, Control_c, 0, 64, 127
4, 491736, Note_on_c, 0, 74, 0
4, 491760, Note_on_c, 0, 74, 64
4, 491976, Note_on_c, 0, 74, 0
4, 492000, Note_on_c, 0, 66, 60
4, 492216, Note_on_c, 0, 66, 0
4, 492240, Note_on_c, 0, 74, 58
4, 492456, Note_on_c, 0, 74, 0
4, 492480, Control_c, 0, 64, 0
4, 492651, Control_c, 0, 64, 127
4, 492720, Note_on_c, 0, 76, 64
4, 492936, Note_on_c, 0, 76, 0
4, 492960, Note_on_c, 0, 69, 60
4, 493176, Note_on_c, 0, 69, 0
4, 493200, Note_on_c, 0, 76, 57
4, 493416, Note_on_c, 0, 76, 0
4, 493611, Control_c, 0, 64, 0
4, 493680, Note_on_c, 0, 76, 64
4, 493851, Control_c, 0, 64, 127
4, 493896, Note_on_c, 0, 76, 0
4, 493920, Note_on_c, 0, 69, 60
4, 494136, Note_on_c, 0, 69, 0
4, 494160, Note_on_c, 0, 76, 57
4, 494376, Note_on_c, 0, 76, 0
4, 494640, Note_on_c, 0, 76, 61
4, 494856, Note_on_c, 0, 76, 0
4, 494880, Note_on_c, 0, 69, 57
4, 495096, Note_on_c, 0, 69, 0
4, 495120, Note_on_c, 0, 76, 53
4, 495200, Control_c, 0, 64, 0
4, 495336, Note_on_c, 0, 76, 0
4, 495336, End_track
5, 0, Start_track
5, 0, Title_t, "Track 4"
5, 0, Program_c, 0, 0
5, 0, Control_c, 0, 7, 115
5, 0, Control_c, 0, 10, 16
5, 0, Note_on_c, 0, 57, 108
5, 216, Note_on_c, 0, 57, 0
5, 240, Note_on_c, 0, 62, 106
5, 672, Note_on_c, 0, 62, 0
5, 720, Note_on_c, 0, 64, 83
5, 774, Note_on_c, 0, 64, 0
5, 780, Note_on_c, 0, 65, 86
5, 834, Note_on_c, 0, 65, 0
5, 840, Note_on_c, 0, 62, 89
5, 894, Note_on_c, 0, 62, 0
5, 900, Note_on_c, 0, 64, 92
5, 954, Note_on_c, 0, 64, 0
5, 960, Control_c, 0, 64, 127
5, 960, Note_on_c, 0, 65, 95
5, 1176, Note_on_c, 0, 65, 0
5, 1200, Note_on_c, 0, 69, 91
5, 1416, Note_on_c, 0, 69, 0
5, 1440, Note_on_c, 0, 65, 100
5, 1520, Control_c, 0, 64, 0
5, 1764, Note_on_c, 0, 65, 0
5, 1800, Note_on_c, 0, 65, 91
5, 1908, Note_on_c, 0, 65, 0
5, 1920, Note_on_c, 0, 64, 91
5, 2028, Note_on_c, 0, 64, 0
5, 2040, Note_on_c, 0, 65, 91
5, 2148, Note_on_c, 0, 65, 0
5, 2160, Note_on_c, 0, 67, 91
5, 2268, Note_on_c, 0, 67, 0
5, 2280, Note_on_c, 0, 69, 91
5, 2388, Note_on_c, 0, 69, 0
5, 2400, Note_on_c, 0, 64, 91
5, 2616, Note_on_c, 0, 64, 0
5, 2760, Note_on_c, 0, 65, 91
5, 2868, Note_on_c, 0, 65, 0
5, 2880, Control_c, 0, 64, 127
5, 2880, Note_on_c, 0, 64, 91
5, 2988, Note_on_c, 0, 64, 0
5, 3000, Note_on_c, 0, 65, 91
5, 3108, Note_on_c, 0, 65, 0
5, 3120, Note_on_c, 0, 67, 91
5, 3228, Note_on_c, 0, 67, 0
5, 3240, Note_on_c, 0, 69, 91
5, 3348, Note_on_c, 0, 69, 0
5, 3360, Note_on_c, 0, 64, 91
5, 3576, Note_on_c, 0, 64, 0
5, 3840, Note_on_c, 0, 66, 91
5, 3840, Control_c, 0, 64, 0
5, 3840, Note_on_c, 0, 69, 91
5, 4056, Note_on_c, 0, 69, 0
5, 4056, Note_on_c, 0, 66, 0
5, 4080, Note_on_c, 0, 67, 100
5, 4512, Note_on_c, 0, 67, 0
5, 4560, Note_on_c, 0, 69, 91
5, 4560, Note_on_c, 0, 74, 91
5, 4776, Note_on_c, 0, 74, 0
5, 4776, Note_on_c, 0, 69, 0
5, 4800, Note_on_c, 0, 74, 91
5, 4800, Note_on_c, 0, 70, 91
5, 4800, Control_c, 0, 64, 127
5, 5016, Note_on_c, 0, 70, 0
5, 5016, Note_on_c, 0, 74, 0
5, 5040, Note_on_c, 0, 74, 91
5, 5040, Note_on_c, 0, 69, 91
5, 5256, Note_on_c, 0, 69, 0
5, 5256, Note_on_c, 0, 74, 0
5, 5280, Note_on_c, 0, 79, 100
5, 5280, Note_on_c, 0, 70, 100
5, 5712, Note_on_c, 0, 70, 0
5, 5712, Note_on_c, 0, 79, 0
5, 5760, Control_c, 0, 64, 0
5, 5760, Note_on_c, 0, 79, 91
5, 5760, Note_on_c, 0, 82, 91
5, 5904, Control_c, 0, 64, 127
5, 5976, Note_on_c, 0, 82, 0
5, 5976, Note_on_c, 0, 79, 0
5, 6000, Note_on_c, 0, 81, 91
5, 6000, Note_on_c, 0, 77, 91
5, 6216, Note_on_c, 0, 77, 0
5, 6216, Note_on_c, 0, 81, 0
5, 6240, Note_on_c, 0, 79, 91
5, 6240, Note_on_c, 0, 76, 91
5, 6456, Note_on_c, 0, 76, 0
5, 6456, Note_on_c, 0, 79, 0
5, 6480, Note_on_c, 0, 77, 91
5, 6480, Note_on_c, 0, 74, 91
5, 6696, Note_on_c, 0, 74, 0
5, 6696, Note_on_c, 0, 77, 0
5, 6720, Note_on_c, 0, 76, 90
5, 6720, Note_on_c, 0, 73, 90
5, 6936, Note_on_c, 0, 73, 0
5, 6936, Note_on_c, 0, 76, 0
5, 6960, Note_on_c, 0, 77, 90
5, 6960, Note_on_c, 0, 74, 90
5, 7176, Note_on_c, 0, 74, 0
5, 7176, Note_on_c, 0, 77, 0
5, 7200, Note_on_c, 0, 76, 90
5, 7200, Note_on_c, 0, 73, 90
5, 7416, Note_on_c, 0, 73, 0
5, 7416, Note_on_c, 0, 76, 0
5, 7570, Control_c, 0, 64, 0
5, 7920, Note_on_c, 0, 74, 100
5, 8352, Note_on_c, 0, 74, 0
5, 8400, Note_on_c, 0, 76, 82
5, 8454, Note_on_c, 0, 76, 0
5, 8460, Note_on_c, 0, 77, 86
5, 8472, Control_c, 0, 64, 127
5, 8514, Note_on_c, 0, 77, 0
5, 8520, Note_on_c, 0, 74, 90
5, 8574, Note_on_c, 0, 74, 0
5, 8580, Note_on_c, 0, 76, 94
5, 8634, Note_on_c, 0, 76, 0
5, 8640, Note_on_c, 0, 77, 98
5, 8856, Note_on_c, 0, 77, 0
5, 8880, Note_on_c, 0, 69, 90
5, 8880, Note_on_c, 0, 76, 90
5, 9096, Note_on_c, 0, 76, 0
5, 9096, Note_on_c, 0, 69, 0
5, 9120, Note_on_c, 0, 74, 100
5, 9120, Note_on_c, 0, 77, 100
5, 9432, Control_c, 0, 64, 0
5, 9444, Note_on_c, 0, 77, 0
5, 9444, Note_on_c, 0, 74, 0
5, 9480, Note_on_c, 0, 77, 90
5, 9480, Note_on_c, 0, 74, 90
5, 9588, Note_on_c, 0, 74, 0
5, 9588, Note_on_c, 0, 77, 0
5, 9600, Control_c, 0, 64, 127
5, 9600, Note_on_c, 0, 73, 90
5, 9600, Note_on_c, 0, 76, 90
5, 9708, Note_on_c, 0, 76, 0
5, 9708, Note_on_c, 0, 73, 0
5, 9720, Note_on_c, 0, 74, 90
5, 9720, Note_on_c, 0, 77, 90
5, 9828, Note_on_c, 0, 77, 0
5, 9828, Note_on_c, 0, 74, 0
5, 9840, Note_on_c, 0, 76, 90
5, 9840, Note_on_c, 0, 79, 90
5, 9948, Note_on_c, 0, 79, 0
5, 9948, Note_on_c, 0, 76, 0
5, 9960, Note_on_c, 0, 77, 90
5, 9960, Note_on_c, 0, 81, 90
5, 10068, Note_on_c, 0, 81, 0
5, 10068, Note_on_c, 0, 77, 0
5, 10080, Note_on_c, 0, 76, 90
5, 10080, Note_on_c, 0, 73, 90
5, 10296, Note_on_c, 0, 73, 0
5, 10296, Note_on_c, 0, 76, 0
5, 10440, Note_on_c, 0, 77, 90
5, 10440, Note_on_c, 0, 74, 90
5, 10548, Note_on_c, 0, 74, 0
5, 10548, Note_on_c, 0, 77, 0
5, 10560, Control_c, 0, 64, 0
5, 10560, Note_on_c, 0, 73, 90
5, 10560, Note_on_c, 0, 76, 90
5, 10630, Control_c, 0, 64, 127
5, 10668, Note_on_c, 0, 76, 0
5, 10668, Note_on_c, 0, 73, 0
5, 10680, Note_on_c, 0, 77, 90
5, 10680, Note_on_c, 0, 74, 90
5, 10788, Note_on_c, 0, 74, 0
5, 10788, Note_on_c, 0, 77, 0
5, 10800, Note_on_c, 0, 79, 90
5, 10800, Note_on_c, 0, 76, 90
5, 10908, Note_on_c, 0, 76, 0
5, 10908, Note_on_c, 0, 79, 0
5, 10920, Note_on_c, 0, 81, 90
5, 10920, Note_on_c, 0, 77, 90
5, 11028, Note_on_c, 0, 77, 0
5, 11028, Note_on_c, 0, 81, 0
5, 11040, Note_on_c, 0, 76, 90
5, 11040, Note_on_c, 0, 73, 90
5, 11256, Note_on_c, 0, 73, 0
5, 11256, Note_on_c, 0, 76, 0
5, 11520, Note_on_c, 0, 74, 90
5, 11520, Note_on_c, 0, 78, 90
5, 11590, Control_c, 0, 64, 0
5, 11736, Note_on_c, 0, 78, 0
5, 11736, Note_on_c, 0, 74, 0
5, 11760, Note_on_c, 0, 79, 100
5, 11760, Note_on_c, 0, 74, 100
5, 12192, Note_on_c, 0, 74, 0
5, 12192, Note_on_c, 0, 79, 0
5, 12240, Note_on_c, 0, 74, 90
5, 12240, Note_on_c, 0, 69, 90
5, 12456, Note_on_c, 0, 69, 0
5, 12456, Note_on_c, 0, 74, 0
5, 12480, Control_c, 0, 64, 127
5, 12480, Note_on_c, 0, 70, 90
5, 12480, Note_on_c, 0, 74, 90
5, 12696, Note_on_c, 0, 74, 0
5, 12696, Note_on_c, 0, 70, 0
5, 12720, Note_on_c, 0, 69, 90
5, 12720, Note_on_c, 0, 74, 90
5, 12936, Note_on_c, 0, 74, 0
5, 12936, Note_on_c, 0, 69, 0
5, 12960, Note_on_c, 0, 70, 90
5, 12960, Note_on_c, 0, 79, 90
5, 13392, Note_on_c, 0, 79, 0
5, 13392, Note_on_c, 0, 70, 0
5, 13440, Note_on_c, 0, 82, 90
5, 13440, Control_c, 0, 64, 0
5, 13440, Note_on_c, 0, 79, 90
5, 13656, Note_on_c, 0, 79, 0
5, 13656, Note_on_c, 0, 82, 0
5, 13680, Note_on_c, 0, 77, 90
5, 13680, Note_on_c, 0, 81, 90
5, 13896, Note_on_c, 0, 81, 0
5, 13896, Note_on_c, 0, 77, 0
5, 13920, Note_on_c, 0, 79, 90
5, 13920, Note_on_c, 0, 76, 90
5, 14136, Note_on_c, 0, 76, 0
5, 14136, Note_on_c, 0, 79, 0
5, 14160, Note_on_c, 0, 77, 90
5, 14160, Note_on_c, 0, 74, 90
5, 14376, Note_on_c, 0, 74, 0
5, 14376, Note_on_c, 0, 77, 0
5, 14400, Control_c, 0, 64, 127
5, 14400, Note_on_c, 0, 73, 90
5, 14400, Note_on_c, 0, 76, 90
5, 14616, Note_on_c, 0, 76, 0
5, 14616, Note_on_c, 0, 73, 0
5, 14640, Note_on_c, 0, 71, 90
5, 14640, Note_on_c, 0, 74, 90
5, 14694, Note_on_c, 0, 74, 0
5, 14694, Note_on_c, 0, 71, 0
5, 14700, Note_on_c, 0, 73, 90
5, 14700, Note_on_c, 0, 76, 90
5, 14754, Note_on_c, 0, 76, 0
5, 14754, Note_on_c, 0, 73, 0
5, 14760, Note_on_c, 0, 73, 90
5, 14868, Note_on_c, 0, 73, 0
5, 14880, Note_on_c, 0, 74, 90
5, 14988, Note_on_c, 0, 74, 0
5, 15000, Note_on_c, 0, 73, 90
5, 15000, Note_on_c, 0, 69, 90
5, 15110, Control_c, 0, 64, 0
5, 15216, Note_on_c, 0, 69, 0
5, 15216, Note_on_c, 0, 73, 0
5, 15240, Note_on_c, 0, 69, 90
5, 15276, Note_on_c, 0, 69, 0
5, 15280, Note_on_c, 0, 68, 90
5, 15316, Note_on_c, 0, 68, 0
5, 15320, Note_on_c, 0, 69, 90
5, 15356, Note_on_c, 0, 69, 0
5, 15360, Control_c, 0, 64, 127
5, 15360, Note_on_c, 0, 79, 90
5, 15360, Note_on_c, 0, 82, 90
5, 15576, Note_on_c, 0, 82, 0
5, 15576, Note_on_c, 0, 79, 0
5, 15600, Note_on_c, 0, 81, 100
5, 15816, Note_on_c, 0, 81, 0
5, 15840, Note_on_c, 0, 79, 96
5, 16056, Note_on_c, 0, 79, 0
5, 16080, Note_on_c, 0, 77, 92
5, 16296, Note_on_c, 0, 77, 0
5, 16320, Control_c, 0, 64, 0
5, 16320, Note_on_c, 0, 76, 89
5, 16536, Note_on_c, 0, 76, 0
5, 35520, Note_on_c, 0, 70, 90
5, 35520, Note_on_c, 0, 67, 90
5, 35736, Note_on_c, 0, 67, 0
5, 35736, Note_on_c, 0, 70, 0
5, 35760, Note_on_c, 0, 74, 90
5, 35760, Note_on_c, 0, 69, 90
5, 35976, Note_on_c, 0, 69, 0
5, 35976, Note_on_c, 0, 74, 0
5, 36000, Note_on_c, 0, 79, 90
5, 36000, Note_on_c, 0, 70, 90
5, 36324, Note_on_c, 0, 70, 0
5, 36324, Note_on_c, 0, 79, 0
5, 36360, Note_on_c, 0, 77, 96
5, 36468, Note_on_c, 0, 77, 0
5, 36480, Note_on_c, 0, 76, 96
5, 36480, Control_c, 0, 64, 127
5, 36588, Note_on_c, 0, 76, 0
5, 36600, Note_on_c, 0, 77, 96
5, 36708, Note_on_c, 0, 77, 0
5, 36720, Note_on_c, 0, 79, 96
5, 36828, Note_on_c, 0, 79, 0
5, 36840, Note_on_c, 0, 73, 96
5, 36840, Note_on_c, 0, 81, 96
5, 36885, Control_c, 0, 64, 0
5, 36948, Note_on_c, 0, 81, 0
5, 36948, Note_on_c, 0, 73, 0
5, 36960, Note_on_c, 0, 62, 96
5, 37068, Note_on_c, 0, 62, 0
5, 37080, Note_on_c, 0, 64, 96
5, 37188, Note_on_c, 0, 64, 0
5, 37200, Note_on_c, 0, 65, 96
5, 37308, Note_on_c, 0, 65, 0
5, 37320, Note_on_c, 0, 67, 96
5, 37320, Note_on_c, 0, 58, 96
5, 37428, Note_on_c, 0, 58, 0
5, 37428, Note_on_c, 0, 67, 0
5, 37440, Note_on_c, 0, 60, 96
5, 37548, Note_on_c, 0, 60, 0
5, 37560, Note_on_c, 0, 62, 96
5, 37668, Note_on_c, 0, 62, 0
5, 37680, Note_on_c, 0, 64, 96
5, 37788, Note_on_c, 0, 64, 0
5, 37800, Note_on_c, 0, 65, 96
5, 37800, Note_on_c, 0, 60, 96
5, 37908, Note_on_c, 0, 60, 0
5, 37908, Note_on_c, 0, 65, 0
5, 37920, Note_on_c, 0, 58, 96
5, 38136, Note_on_c, 0, 58, 0
5, 38280, Note_on_c, 0, 62, 96
5, 38388, Note_on_c, 0, 62, 0
5, 38400, Control_c, 0, 64, 127
5, 38400, Note_on_c, 0, 60, 96
5, 38508, Note_on_c, 0, 60, 0
5, 38520, Note_on_c, 0, 62, 96
5, 38628, Note_on_c, 0, 62, 0
5, 38640, Note_on_c, 0, 64, 96
5, 38748, Note_on_c, 0, 64, 0
5, 38760, Note_on_c, 0, 57, 96
5, 38760, Note_on_c, 0, 65, 96
5, 38868, Note_on_c, 0, 65, 0
5, 38868, Note_on_c, 0, 57, 0
5, 38880, Note_on_c, 0, 58, 96
5, 38988, Note_on_c, 0, 58, 0
5, 39000, Note_on_c, 0, 60, 96
5, 39108, Note_on_c, 0, 60, 0
5, 39120, Note_on_c, 0, 62, 96
5, 39228, Note_on_c, 0, 62, 0
5, 39240, Note_on_c, 0, 64, 96
5, 39240, Note_on_c, 0, 55, 96
5, 39348, Note_on_c, 0, 55, 0
5, 39348, Note_on_c, 0, 64, 0
5, 39360, Note_on_c, 0, 57, 96
5, 39360, Control_c, 0, 64, 0
5, 39468, Note_on_c, 0, 57, 0
5, 39480, Note_on_c, 0, 58, 96
5, 39585, Control_c, 0, 64, 127
5, 39588, Note_on_c, 0, 58, 0
5, 39600, Note_on_c, 0, 60, 96
5, 39708, Note_on_c, 0, 60, 0
5, 39720, Note_on_c, 0, 62, 96
5, 39720, Note_on_c, 0, 57, 96
5, 39820, Control_c, 0, 64, 0
5, 39828, Note_on_c, 0, 57, 0
5, 39828, Note_on_c, 0, 62, 0
5, 39840, Note_on_c, 0, 55, 96
5, 40056, Note_on_c, 0, 55, 0
5, 40200, Note_on_c, 0, 58, 96
5, 40308, Note_on_c, 0, 58, 0
5, 50880, Note_on_c, 0, 73, 67
5, 50983, Control_c, 0, 64, 127
5, 51359, Note_on_c, 0, 73, 0
5, 51360, Note_on_c, 0, 79, 84
5, 51360, Note_on_c, 0, 76, 84
5, 51792, Note_on_c, 0, 76, 0
5, 51792, Note_on_c, 0, 79, 0
5, 51840, Note_on_c, 0, 80, 58
5, 51840, Note_on_c, 0, 77, 58
5, 52272, Note_on_c, 0, 77, 0
5, 52272, Note_on_c, 0, 80, 0
5, 52632, Control_c, 0, 64, 0
5, 55680, Control_c, 0, 64, 127
5, 55680, Note_on_c, 0, 70, 68
5, 55680, Note_on_c, 0, 82, 68
5, 56544, Note_on_c, 0, 82, 0
5, 56544, Note_on_c, 0, 70, 0
5, 56640, Note_on_c, 0, 80, 77
5, 56640, Note_on_c, 0, 68, 77
5, 57504, Note_on_c, 0, 68, 0
5, 57504, Note_on_c, 0, 80, 0
5, 57600, Note_on_c, 0, 79, 64
5, 57600, Note_on_c, 0, 67, 64
5, 57600, Note_on_c, 0, 73, 64
5, 58079, Note_on_c, 0, 73, 0
5, 58079, Note_on_c, 0, 67, 0
5, 58079, Note_on_c, 0, 79, 0
5, 58080, Note_on_c, 0, 67, 63
5, 58080, Note_on_c, 0, 73, 63
5, 58080, Note_on_c, 0, 79, 63
5, 58512, Note_on_c, 0, 79, 0
5, 58512, Note_on_c, 0, 73, 0
5, 58512, Note_on_c, 0, 67, 0
5, 58560, Note_on_c, 0, 73, 62
5, 58560, Note_on_c, 0, 67, 62
5, 58560, Note_on_c, 0, 79, 62
5, 59039, Note_on_c, 0, 79, 0
5, 59039, Note_on_c, 0, 67, 0
5, 59039, Note_on_c, 0, 73, 0
5, 59040, Note_on_c, 0, 73, 60
5, 59040, Note_on_c, 0, 67, 60
5, 59040, Note_on_c, 0, 70, 60
5, 59472, Note_on_c, 0, 70, 0
5, 59472, Note_on_c, 0, 67, 0
5, 59472, Note_on_c, 0, 73, 0
5, 64320, Note_on_c, 0, 72, 109
5, 64320, Note_on_c, 0, 67, 109
5, 64320, Note_on_c, 0, 60, 109
5, 64320, Control_c, 0, 64, 127
5, 64799, Note_on_c, 0, 60, 0
5, 64799, Note_on_c, 0, 67, 0
5, 64799, Note_on_c, 0, 72, 0
5, 64800, Note_on_c, 0, 67, 103
5, 64800, Note_on_c, 0, 64, 103
5, 65039, Note_on_c, 0, 64, 0
5, 65039, Note_on_c, 0, 67, 0
5, 65040, Note_on_c, 0, 67, 103
5, 65040, Note_on_c, 0, 64, 103
5, 65256, Note_on_c, 0, 64, 0
5, 65256, Note_on_c, 0, 67, 0
5, 65280, Note_on_c, 0, 65, 103
5, 65280, Note_on_c, 0, 69, 103
5, 65280, Note_on_c, 0, 72, 103
5, 65759, Note_on_c, 0, 72, 0
5, 65759, Note_on_c, 0, 69, 0
5, 65759, Note_on_c, 0, 65, 0
5, 65760, Note_on_c, 0, 67, 102
5, 65760, Note_on_c, 0, 65, 102
5, 65760, Note_on_c, 0, 71, 102
5, 65919, Note_on_c, 0, 71, 0
5, 65919, Note_on_c, 0, 65, 0
5, 65919, Note_on_c, 0, 67, 0
5, 65920, Note_on_c, 0, 65, 102
5, 65920, Note_on_c, 0, 71, 102
5, 65920, Note_on_c, 0, 67, 102
5, 66079, Note_on_c, 0, 67, 0
5, 66079, Note_on_c, 0, 71, 0
5, 66079, Note_on_c, 0, 65, 0
5, 66080, Note_on_c, 0, 65, 102
5, 66080, Note_on_c, 0, 67, 102
5, 66080, Note_on_c, 0, 71, 102
5, 66116, Note_on_c, 0, 71, 0
5, 66116, Note_on_c, 0, 67, 0
5, 66116, Note_on_c, 0, 65, 0
5, 66240, Note_on_c, 0, 65, 95
5, 66240, Note_on_c, 0, 71, 95
5, 66240, Note_on_c, 0, 67, 95
5, 66719, Note_on_c, 0, 67, 0
5, 66719, Note_on_c, 0, 71, 0
5, 66719, Note_on_c, 0, 65, 0
5, 66720, Note_on_c, 0, 67, 95
5, 66720, Note_on_c, 0, 64, 95
5, 66720, Note_on_c, 0, 72, 95
5, 66936, Note_on_c, 0, 72, 0
5, 66936, Note_on_c, 0, 64, 0
5, 66936, Note_on_c, 0, 67, 0
5, 67200, Note_on_c, 0, 62, 94
5, 67200, Note_on_c, 0, 65, 94
5, 67200, Control_c, 0, 64, 0
5, 67286, Control_c, 0, 64, 127
5, 67679, Note_on_c, 0, 65, 0
5, 67679, Note_on_c, 0, 62, 0
5, 67680, Note_on_c, 0, 69, 95
5, 67680, Note_on_c, 0, 65, 95
5, 67919, Note_on_c, 0, 65, 0
5, 67919, Note_on_c, 0, 69, 0
5, 67920, Note_on_c, 0, 74, 95
5, 67920, Note_on_c, 0, 69, 95
5, 68136, Note_on_c, 0, 69, 0
5, 68136, Note_on_c, 0, 74, 0
5, 68160, Note_on_c, 0, 69, 96
5, 68160, Note_on_c, 0, 74, 96
5, 68639, Note_on_c, 0, 74, 0
5, 68639, Note_on_c, 0, 69, 0
5, 68640, Note_on_c, 0, 69, 96
5, 68640, Note_on_c, 0, 72, 96
5, 69072, Note_on_c, 0, 72, 0
5, 69072, Note_on_c, 0, 69, 0
5, 69120, Note_on_c, 0, 71, 95
5, 69839, Note_on_c, 0, 71, 0
5, 69840, Note_on_c, 0, 71, 95
5, 70056, Note_on_c, 0, 71, 0
5, 70080, Note_on_c, 0, 72, 95
5, 70319, Note_on_c, 0, 72, 0
5, 70320, Note_on_c, 0, 67, 95
5, 70320, Note_on_c, 0, 72, 95
5, 70559, Note_on_c, 0, 72, 0
5, 70559, Note_on_c, 0, 67, 0
5, 70560, Note_on_c, 0, 70, 95
5, 70560, Note_on_c, 0, 73, 95
5, 71279, Note_on_c, 0, 73, 0
5, 71279, Note_on_c, 0, 70, 0
5, 71280, Note_on_c, 0, 65, 95
5, 71280, Note_on_c, 0, 72, 95
5, 71519, Note_on_c, 0, 72, 0
5, 71519, Note_on_c, 0, 65, 0
5, 71520, Note_on_c, 0, 73, 95
5, 71520, Note_on_c, 0, 70, 95
5, 71736, Note_on_c, 0, 70, 0
5, 71736, Note_on_c, 0, 73, 0
5, 72240, Note_on_c, 0, 65, 90
5, 72696, Note_on_c, 0, 65, 0
5, 73200, Note_on_c, 0, 65, 90
5, 73656, Note_on_c, 0, 65, 0
5, 74160, Note_on_c, 0, 65, 90
5, 74639, Note_on_c, 0, 65, 0
5, 74640, Note_on_c, 0, 64, 90
5, 74748, Note_on_c, 0, 64, 0
5, 74880, Note_on_c, 0, 63, 90
5, 75119, Note_on_c, 0, 63, 0
5, 75120, Note_on_c, 0, 70, 90
5, 75359, Note_on_c, 0, 70, 0
5, 75360, Note_on_c, 0, 69, 90
5, 75599, Note_on_c, 0, 69, 0
5, 75600, Note_on_c, 0, 66, 91
5, 75708, Note_on_c, 0, 66, 0
5, 75840, Note_on_c, 0, 67, 73
5, 76079, Note_on_c, 0, 67, 0
5, 76080, Note_on_c, 0, 62, 74
5, 76319, Note_on_c, 0, 62, 0
5, 76320, Note_on_c, 0, 67, 75
5, 76559, Note_on_c, 0, 67, 0
5, 76560, Note_on_c, 0, 65, 76
5, 76668, Note_on_c, 0, 65, 0
5, 76800, Note_on_c, 0, 64, 97
5, 77039, Note_on_c, 0, 64, 0
5, 77040, Note_on_c, 0, 72, 97
5, 77279, Note_on_c, 0, 72, 0
5, 77280, Note_on_c, 0, 71, 97
5, 77519, Note_on_c, 0, 71, 0
5, 77520, Note_on_c, 0, 68, 98
5, 77628, Note_on_c, 0, 68, 0
5, 77760, Note_on_c, 0, 69, 99
5, 77999, Note_on_c, 0, 69, 0
5, 78000, Note_on_c, 0, 64, 90
5, 78239, Note_on_c, 0, 64, 0
5, 78240, Note_on_c, 0, 65, 90
5, 78479, Note_on_c, 0, 65, 0
5, 78480, Note_on_c, 0, 63, 90
5, 78696, Note_on_c, 0, 63, 0
5, 78720, Note_on_c, 0, 70, 90
5, 78720, Note_on_c, 0, 62, 90
5, 78959, Note_on_c, 0, 62, 0
5, 78959, Note_on_c, 0, 70, 0
5, 78960, Note_on_c, 0, 70, 90
5, 79200, Note_on_c, 0, 73, 90
5, 79200, Note_on_c, 0, 64, 90
5, 79632, Note_on_c, 0, 64, 0
5, 79632, Note_on_c, 0, 73, 0
5, 79632, Note_on_c, 0, 70, 0
5, 79920, Note_on_c, 0, 65, 90
5, 79920, Note_on_c, 0, 72, 90
5, 79920, Note_on_c, 0, 68, 90
5, 80159, Note_on_c, 0, 68, 0
5, 80159, Note_on_c, 0, 72, 0
5, 80159, Note_on_c, 0, 65, 0
5, 80160, Note_on_c, 0, 70, 90
5, 80160, Note_on_c, 0, 73, 90
5, 80592, Note_on_c, 0, 73, 0
5, 80592, Note_on_c, 0, 70, 0
5, 80880, Note_on_c, 0, 68, 64
5, 80880, Note_on_c, 0, 65, 64
5, 81552, Note_on_c, 0, 65, 0
5, 81552, Note_on_c, 0, 68, 0
5, 81840, Note_on_c, 0, 67, 90
5, 81840, Note_on_c, 0, 65, 90
5, 82319, Note_on_c, 0, 65, 0
5, 82319, Note_on_c, 0, 67, 0
5, 82320, Note_on_c, 0, 64, 90
5, 82536, Note_on_c, 0, 64, 0
5, 82560, Note_on_c, 0, 60, 90
5, 82629, Control_c, 0, 64, 0
5, 83016, Control_c, 0, 64, 127
5, 83199, Note_on_c, 0, 60, 0
5, 83200, Note_on_c, 0, 67, 92
5, 83359, Note_on_c, 0, 67, 0
5, 83360, Note_on_c, 0, 72, 91
5, 83679, Note_on_c, 0, 72, 0
5, 83680, Note_on_c, 0, 65, 89
5, 83839, Note_on_c, 0, 65, 0
5, 83840, Note_on_c, 0, 69, 88
5, 84159, Note_on_c, 0, 69, 0
5, 84160, Note_on_c, 0, 62, 86
5, 84319, Note_on_c, 0, 62, 0
5, 84320, Note_on_c, 0, 69, 85
5, 84464, Note_on_c, 0, 69, 0
5, 84480, Control_c, 0, 64, 0
5, 84480, Note_on_c, 0, 67, 84
5, 84566, Control_c, 0, 64, 127
5, 84719, Note_on_c, 0, 67, 0
5, 84720, Note_on_c, 0, 74, 90
5, 85119, Note_on_c, 0, 74, 0
5, 85120, Note_on_c, 0, 69, 91
5, 85279, Note_on_c, 0, 69, 0
5, 85280, Note_on_c, 0, 74, 91
5, 85599, Note_on_c, 0, 74, 0
5, 85600, Note_on_c, 0, 67, 89
5, 85759, Note_on_c, 0, 67, 0
5, 85760, Note_on_c, 0, 70, 88
5, 86079, Note_on_c, 0, 70, 0
5, 86080, Note_on_c, 0, 64, 87
5, 86239, Note_on_c, 0, 64, 0
5, 86240, Note_on_c, 0, 71, 86
5, 86384, Note_on_c, 0, 71, 0
5, 86400, Note_on_c, 0, 69, 90
5, 86520, Control_c, 0, 64, 0
5, 86623, Control_c, 0, 64, 127
5, 86639, Note_on_c, 0, 69, 0
5, 86640, Note_on_c, 0, 72, 89
5, 86640, Note_on_c, 0, 69, 89
5, 87119, Note_on_c, 0, 69, 0
5, 87119, Note_on_c, 0, 72, 0
5, 87120, Note_on_c, 0, 72, 90
5, 87120, Note_on_c, 0, 69, 90
5, 87599, Note_on_c, 0, 69, 0
5, 87599, Note_on_c, 0, 72, 0
5, 87600, Note_on_c, 0, 69, 92
5, 87600, Note_on_c, 0, 73, 92
5, 88079, Note_on_c, 0, 73, 0
5, 88079, Note_on_c, 0, 69, 0
5, 88080, Note_on_c, 0, 69, 94
5, 88080, Note_on_c, 0, 73, 94
5, 88296, Note_on_c, 0, 73, 0
5, 88296, Note_on_c, 0, 69, 0
5, 88320, Note_on_c, 0, 74, 95
5, 88320, Note_on_c, 0, 70, 95
5, 88559, Note_on_c, 0, 70, 0
5, 88559, Note_on_c, 0, 74, 0
5, 88560, Note_on_c, 0, 74, 95
5, 88560, Note_on_c, 0, 70, 95
5, 88799, Note_on_c, 0, 74, 0
5, 88800, Note_on_c, 0, 76, 96
5, 88800, Note_on_c, 0, 67, 96
5, 89039, Note_on_c, 0, 67, 0
5, 89039, Note_on_c, 0, 76, 0
5, 89039, Note_on_c, 0, 70, 0
5, 89040, Note_on_c, 0, 76, 97
5, 89040, Note_on_c, 0, 67, 97
5, 89040, Note_on_c, 0, 70, 97
5, 89256, Note_on_c, 0, 70, 0
5, 89256, Note_on_c, 0, 67, 0
5, 89256, Note_on_c, 0, 76, 0
5, 89280, Note_on_c, 0, 77, 98
5, 89280, Note_on_c, 0, 69, 98
5, 89519, Note_on_c, 0, 69, 0
5, 89519, Note_on_c, 0, 77, 0
5, 89520, Note_on_c, 0, 77, 99
5, 89520, Note_on_c, 0, 69, 99
5, 89759, Note_on_c, 0, 69, 0
5, 89759, Note_on_c, 0, 77, 0
5, 89760, Note_on_c, 0, 79, 100
5, 89760, Note_on_c, 0, 72, 100
5, 89999, Note_on_c, 0, 72, 0
5, 89999, Note_on_c, 0, 79, 0
5, 90000, Note_on_c, 0, 79, 101
5, 90000, Note_on_c, 0, 72, 101
5, 90216, Note_on_c, 0, 72, 0
5, 90216, Note_on_c, 0, 79, 0
5, 90240, Note_on_c, 0, 81, 101
5, 90240, Note_on_c, 0, 77, 101
5, 90479, Note_on_c, 0, 77, 0
5, 90479, Note_on_c, 0, 81, 0
5, 90480, Note_on_c, 0, 81, 102
5, 90480, Note_on_c, 0, 77, 102
5, 90959, Note_on_c, 0, 77, 0
5, 90959, Note_on_c, 0, 81, 0
5, 90960, Note_on_c, 0, 81, 104
5, 90960, Note_on_c, 0, 77, 104
5, 91176, Note_on_c, 0, 77, 0
5, 91176, Note_on_c, 0, 81, 0
5, 91200, Note_on_c, 0, 76, 105
5, 91200, Note_on_c, 0, 84, 105
5, 91439, Note_on_c, 0, 84, 0
5, 91439, Note_on_c, 0, 76, 0
5, 91440, Note_on_c, 0, 76, 103
5, 91440, Note_on_c, 0, 84, 103
5, 91919, Note_on_c, 0, 84, 0
5, 91919, Note_on_c, 0, 76, 0
5, 91920, Note_on_c, 0, 76, 98
5, 91920, Note_on_c, 0, 84, 98
5, 92160, Control_c, 0, 64, 0
5, 92279, Note_on_c, 0, 84, 0
5, 92279, Note_on_c, 0, 76, 0
5, 92280, Note_on_c, 0, 82, 94
5, 92334, Note_on_c, 0, 82, 0
5, 92400, Note_on_c, 0, 79, 93
5, 92454, Note_on_c, 0, 79, 0
5, 92520, Note_on_c, 0, 76, 92
5, 92574, Note_on_c, 0, 76, 0
5, 92640, Note_on_c, 0, 72, 91
5, 92694, Note_on_c, 0, 72, 0
5, 92760, Note_on_c, 0, 70, 90
5, 92814, Note_on_c, 0, 70, 0
5, 92880, Note_on_c, 0, 67, 88
5, 92934, Note_on_c, 0, 67, 0
5, 93000, Note_on_c, 0, 64, 87
5, 93054, Note_on_c, 0, 64, 0
5, 93120, Note_on_c, 0, 72, 86
5, 93228, Note_on_c, 0, 72, 0
5, 93240, Note_on_c, 0, 70, 85
5, 93348, Note_on_c, 0, 70, 0
5, 93360, Note_on_c, 0, 67, 84
5, 93414, Note_on_c, 0, 67, 0
5, 93480, Note_on_c, 0, 64, 82
5, 93534, Note_on_c, 0, 64, 0
5, 94354, Control_c, 0, 64, 127
5, 94560, Note_on_c, 0, 69, 44
5, 94799, Note_on_c, 0, 69, 0
5, 94800, Note_on_c, 0, 69, 44
5, 95279, Note_on_c, 0, 69, 0
5, 95280, Note_on_c, 0, 69, 43
5, 95314, Control_c, 0, 64, 0
5, 95759, Note_on_c, 0, 69, 0
5, 95760, Note_on_c, 0, 69, 41
5, 95976, Note_on_c, 0, 69, 0
5, 96000, Control_c, 0, 64, 127
5, 96000, Note_on_c, 0, 70, 41
5, 96239, Note_on_c, 0, 70, 0
5, 96240, Note_on_c, 0, 67, 40
5, 96240, Note_on_c, 0, 70, 40
5, 96719, Note_on_c, 0, 70, 0
5, 96719, Note_on_c, 0, 67, 0
5, 96720, Note_on_c, 0, 67, 39
5, 96720, Note_on_c, 0, 71, 39
5, 96936, Note_on_c, 0, 71, 0
5, 96960, Control_c, 0, 64, 0
5, 96960, Note_on_c, 0, 72, 38
5, 97199, Note_on_c, 0, 72, 0
5, 97199, Note_on_c, 0, 67, 0
5, 97200, Note_on_c, 0, 72, 38
5, 97200, Note_on_c, 0, 67, 38
5, 97439, Note_on_c, 0, 72, 0
5, 97440, Note_on_c, 0, 70, 37
5, 97679, Note_on_c, 0, 70, 0
5, 97679, Note_on_c, 0, 67, 0
5, 97680, Note_on_c, 0, 70, 38
5, 97680, Note_on_c, 0, 67, 38
5, 97896, Note_on_c, 0, 67, 0
5, 97896, Note_on_c, 0, 70, 0
5, 97920, Note_on_c, 0, 69, 42
5, 97920, Control_c, 0, 64, 127
5, 98159, Note_on_c, 0, 69, 0
5, 98160, Note_on_c, 0, 69, 45
5, 98400, Note_on_c, 0, 77, 49
5, 98639, Note_on_c, 0, 77, 0
5, 98639, Note_on_c, 0, 69, 0
5, 98640, Note_on_c, 0, 77, 52
5, 98640, Note_on_c, 0, 69, 52
5, 98880, Control_c, 0, 64, 0
5, 99119, Note_on_c, 0, 69, 0
5, 99119, Note_on_c, 0, 77, 0
5, 99120, Note_on_c, 0, 69, 60
5, 99120, Note_on_c, 0, 77, 60
5, 99359, Note_on_c, 0, 77, 0
5, 99359, Note_on_c, 0, 69, 0
5, 99360, Note_on_c, 0, 72, 63
5, 99360, Note_on_c, 0, 78, 63
5, 99599, Note_on_c, 0, 78, 0
5, 99599, Note_on_c, 0, 72, 0
5, 99600, Note_on_c, 0, 72, 63
5, 99600, Note_on_c, 0, 78, 63
5, 99816, Note_on_c, 0, 78, 0
5, 99816, Note_on_c, 0, 72, 0
5, 99840, Note_on_c, 0, 71, 63
5, 99840, Control_c, 0, 64, 127
5, 99840, Note_on_c, 0, 79, 63
5, 100079, Note_on_c, 0, 79, 0
5, 100079, Note_on_c, 0, 71, 0
5, 100080, Note_on_c, 0, 79, 63
5, 100080, Note_on_c, 0, 71, 63
5, 100319, Note_on_c, 0, 71, 0
5, 100319, Note_on_c, 0, 79, 0
5, 100320, Note_on_c, 0, 70, 63
5, 100320, Note_on_c, 0, 72, 63
5, 100559, Note_on_c, 0, 72, 0
5, 100559, Note_on_c, 0, 70, 0
5, 100560, Note_on_c, 0, 70, 63
5, 100560, Note_on_c, 0, 72, 63
5, 100776, Note_on_c, 0, 72, 0
5, 100776, Note_on_c, 0, 70, 0
5, 100800, Note_on_c, 0, 77, 62
5, 100800, Note_on_c, 0, 69, 62
5, 100800, Control_c, 0, 64, 0
5, 101039, Note_on_c, 0, 69, 0
5, 101039, Note_on_c, 0, 77, 0
5, 101040, Note_on_c, 0, 77, 60
5, 101040, Note_on_c, 0, 69, 60
5, 101279, Note_on_c, 0, 69, 0
5, 101279, Note_on_c, 0, 77, 0
5, 101280, Note_on_c, 0, 70, 60
5, 101280, Note_on_c, 0, 65, 60
5, 101519, Note_on_c, 0, 65, 0
5, 101519, Note_on_c, 0, 70, 0
5, 101520, Note_on_c, 0, 70, 58
5, 101520, Note_on_c, 0, 65, 58
5, 101736, Note_on_c, 0, 65, 0
5, 101736, Note_on_c, 0, 70, 0
5, 101760, Control_c, 0, 64, 127
5, 101760, Note_on_c, 0, 69, 57
5, 101760, Note_on_c, 0, 65, 57
5, 101999, Note_on_c, 0, 65, 0
5, 101999, Note_on_c, 0, 69, 0
5, 102000, Note_on_c, 0, 65, 56
5, 102000, Note_on_c, 0, 69, 56
5, 102239, Note_on_c, 0, 69, 0
5, 102240, Note_on_c, 0, 67, 55
5, 102479, Note_on_c, 0, 67, 0
5, 102479, Note_on_c, 0, 65, 0
5, 102480, Note_on_c, 0, 65, 53
5, 102480, Note_on_c, 0, 67, 53
5, 102696, Note_on_c, 0, 67, 0
5, 102720, Control_c, 0, 64, 0
5, 102720, Note_on_c, 0, 74, 52
5, 102959, Note_on_c, 0, 74, 0
5, 102959, Note_on_c, 0, 65, 0
5, 102960, Note_on_c, 0, 65, 51
5, 102960, Note_on_c, 0, 74, 51
5, 103199, Note_on_c, 0, 74, 0
5, 103199, Note_on_c, 0, 65, 0
5, 103200, Note_on_c, 0, 64, 50
5, 103200, Note_on_c, 0, 72, 50
5, 103439, Note_on_c, 0, 72, 0
5, 103439, Note_on_c, 0, 64, 0
5, 103440, Note_on_c, 0, 72, 48
5, 103440, Note_on_c, 0, 64, 48
5, 103656, Note_on_c, 0, 64, 0
5, 103656, Note_on_c, 0, 72, 0
5, 103680, Note_on_c, 0, 65, 48
5, 103680, Control_c, 0, 64, 127
5, 103919, Note_on_c, 0, 65, 0
5, 103920, Note_on_c, 0, 65, 48
5, 104159, Note_on_c, 0, 65, 0
5, 104160, Note_on_c, 0, 60, 48
5, 104399, Note_on_c, 0, 60, 0
5, 104400, Note_on_c, 0, 60, 48
5, 104616, Note_on_c, 0, 60, 0
5, 104640, Note_on_c, 0, 65, 48
5, 104640, Control_c, 0, 64, 0
5, 104879, Note_on_c, 0, 65, 0
5, 104880, Note_on_c, 0, 65, 47
5, 105119, Note_on_c, 0, 65, 0
5, 105120, Note_on_c, 0, 60, 47
5, 105359, Note_on_c, 0, 60, 0
5, 105360, Note_on_c, 0, 60, 46
5, 105576, Note_on_c, 0, 60, 0
5, 105600, Note_on_c, 0, 65, 46
5, 105600, Control_c, 0, 64, 127
5, 105839, Note_on_c, 0, 65, 0
5, 105840, Note_on_c, 0, 65, 45
5, 106079, Note_on_c, 0, 65, 0
5, 106080, Note_on_c, 0, 60, 45
5, 106319, Note_on_c, 0, 60, 0
5, 106320, Note_on_c, 0, 60, 44
5, 106536, Note_on_c, 0, 60, 0
5, 106560, Note_on_c, 0, 65, 44
5, 106560, Control_c, 0, 64, 0
5, 106799, Note_on_c, 0, 65, 0
5, 106800, Note_on_c, 0, 65, 44
5, 107039, Note_on_c, 0, 65, 0
5, 107040, Note_on_c, 0, 60, 44
5, 107279, Note_on_c, 0, 60, 0
5, 107280, Note_on_c, 0, 60, 43
5, 107496, Note_on_c, 0, 60, 0
5, 107520, Control_c, 0, 64, 127
5, 107520, Note_on_c, 0, 60, 43
5, 107759, Note_on_c, 0, 60, 0
5, 107760, Note_on_c, 0, 60, 43
5, 108239, Note_on_c, 0, 60, 0
5, 108240, Note_on_c, 0, 60, 42
5, 108719, Note_on_c, 0, 60, 0
5, 108720, Note_on_c, 0, 60, 41
5, 109176, Note_on_c, 0, 60, 0
5, 109280, Control_c, 0, 64, 0
5, 114240, Control_c, 0, 64, 127
5, 114240, Note_on_c, 0, 57, 79
5, 114479, Note_on_c, 0, 57, 0
5, 114480, Note_on_c, 0, 62, 86
5, 114959, Note_on_c, 0, 62, 0
5, 114960, Note_on_c, 0, 64, 99
5, 115176, Note_on_c, 0, 64, 0
5, 115200, Note_on_c, 0, 69, 106
5, 116040, Control_c, 0, 64, 0
5, 116064, Note_on_c, 0, 69, 0
5, 116184, Control_c, 0, 64, 127
5, 116400, Note_on_c, 0, 62, 88
5, 116879, Note_on_c, 0, 62, 0
5, 116880, Note_on_c, 0, 64, 96
5, 116988, Note_on_c, 0, 64, 0
5, 117120, Note_on_c, 0, 69, 100
5, 117120, Note_on_c, 0, 72, 100
5, 117599, Note_on_c, 0, 72, 0
5, 117599, Note_on_c, 0, 69, 0
5, 117600, Note_on_c, 0, 74, 98
5, 117600, Note_on_c, 0, 78, 98
5, 117600, Note_on_c, 0, 69, 98
5, 117816, Note_on_c, 0, 69, 0
5, 117816, Note_on_c, 0, 78, 0
5, 117816, Note_on_c, 0, 74, 0
5, 118080, Note_on_c, 0, 64, 98
5, 118080, Note_on_c, 0, 71, 98
5, 118080, Note_on_c, 0, 76, 98
5, 118080, Note_on_c, 0, 69, 98
5, 118319, Note_on_c, 0, 69, 0
5, 118319, Note_on_c, 0, 64, 0
5, 118319, Note_on_c, 0, 71, 0
5, 118319, Note_on_c, 0, 76, 0
5, 118560, Note_on_c, 0, 64, 107
5, 118560, Note_on_c, 0, 71, 107
5, 118560, Note_on_c, 0, 76, 107
5, 118560, Note_on_c, 0, 68, 107
5, 118776, Note_on_c, 0, 68, 0
5, 118776, Note_on_c, 0, 64, 0
5, 118776, Note_on_c, 0, 71, 0
5, 118776, Note_on_c, 0, 76, 0
5, 118992, Control_c, 0, 64, 0
5, 119040, Control_c, 0, 64, 127
5, 119040, Note_on_c, 0, 76, 100
5, 119040, Note_on_c, 0, 73, 100
5, 119040, Note_on_c, 0, 69, 100
5, 119159, Note_on_c, 0, 69, 0
5, 119159, Note_on_c, 0, 73, 0
5, 119159, Note_on_c, 0, 76, 0
5, 119280, Note_on_c, 0, 81, 103
5, 119359, Note_on_c, 0, 81, 0
5, 119360, Note_on_c, 0, 80, 102
5, 119439, Note_on_c, 0, 80, 0
5, 119440, Note_on_c, 0, 79, 101
5, 119519, Note_on_c, 0, 79, 0
5, 119520, Note_on_c, 0, 78, 100
5, 119599, Note_on_c, 0, 78, 0
5, 119600, Note_on_c, 0, 77, 99
5, 119679, Note_on_c, 0, 77, 0
5, 119680, Note_on_c, 0, 76, 98
5, 119759, Note_on_c, 0, 76, 0
5, 119760, Note_on_c, 0, 75, 97
5, 119839, Note_on_c, 0, 75, 0
5, 119840, Note_on_c, 0, 74, 96
5, 119919, Note_on_c, 0, 74, 0
5, 119920, Note_on_c, 0, 73, 94
5, 119992, Note_on_c, 0, 73, 0
5, 120000, Note_on_c, 0, 72, 93
5, 120079, Note_on_c, 0, 72, 0
5, 120080, Note_on_c, 0, 71, 92
5, 120159, Note_on_c, 0, 71, 0
5, 120160, Note_on_c, 0, 70, 91
5, 120239, Note_on_c, 0, 70, 0
5, 120240, Note_on_c, 0, 69, 90
5, 120319, Note_on_c, 0, 69, 0
5, 120320, Note_on_c, 0, 68, 89
5, 120399, Note_on_c, 0, 68, 0
5, 120400, Note_on_c, 0, 67, 88
5, 120479, Note_on_c, 0, 67, 0
5, 120480, Note_on_c, 0, 66, 87
5, 120559, Note_on_c, 0, 66, 0
5, 120560, Note_on_c, 0, 65, 86
5, 120639, Note_on_c, 0, 65, 0
5, 120640, Note_on_c, 0, 64, 85
5, 120719, Note_on_c, 0, 64, 0
5, 120720, Note_on_c, 0, 63, 84
5, 120799, Note_on_c, 0, 63, 0
5, 120800, Note_on_c, 0, 62, 83
5, 120879, Note_on_c, 0, 62, 0
5, 120880, Note_on_c, 0, 61, 82
5, 120952, Note_on_c, 0, 61, 0
5, 120960, Note_on_c, 0, 60, 81
5, 121039, Note_on_c, 0, 60, 0
5, 121040, Note_on_c, 0, 59, 80
5, 121119, Note_on_c, 0, 59, 0
5, 121120, Note_on_c, 0, 58, 79
5, 121199, Note_on_c, 0, 58, 0
5, 121200, Note_on_c, 0, 69, 78
5, 121279, Note_on_c, 0, 69, 0
5, 121280, Note_on_c, 0, 68, 77
5, 121359, Note_on_c, 0, 68, 0
5, 121360, Note_on_c, 0, 67, 76
5, 121439, Note_on_c, 0, 67, 0
5, 121440, Note_on_c, 0, 66, 75
5, 121519, Note_on_c, 0, 66, 0
5, 121520, Note_on_c, 0, 65, 74
5, 121599, Note_on_c, 0, 65, 0
5, 121600, Note_on_c, 0, 64, 73
5, 121679, Note_on_c, 0, 64, 0
5, 121680, Note_on_c, 0, 63, 72
5, 121759, Note_on_c, 0, 63, 0
5, 121760, Note_on_c, 0, 62, 71
5, 121839, Note_on_c, 0, 62, 0
5, 121840, Note_on_c, 0, 61, 70
5, 121912, Note_on_c, 0, 61, 0
5, 121920, Note_on_c, 0, 60, 69
5, 121999, Note_on_c, 0, 60, 0
5, 122000, Note_on_c, 0, 59, 68
5, 122079, Note_on_c, 0, 59, 0
5, 122080, Note_on_c, 0, 58, 64
5, 122159, Note_on_c, 0, 58, 0
5, 122160, Note_on_c, 0, 57, 64
5, 122239, Note_on_c, 0, 57, 0
5, 122240, Note_on_c, 0, 57, 63
5, 122319, Note_on_c, 0, 57, 0
5, 122320, Note_on_c, 0, 56, 63
5, 122399, Note_on_c, 0, 56, 0
5, 122400, Note_on_c, 0, 57, 62
5, 122479, Note_on_c, 0, 57, 0
5, 122480, Note_on_c, 0, 56, 62
5, 122559, Note_on_c, 0, 56, 0
5, 122560, Note_on_c, 0, 57, 62
5, 122639, Note_on_c, 0, 57, 0
5, 122640, Note_on_c, 0, 56, 61
5, 122719, Note_on_c, 0, 56, 0
5, 122720, Note_on_c, 0, 57, 61
5, 122799, Note_on_c, 0, 57, 0
5, 122800, Note_on_c, 0, 56, 60
5, 122872, Note_on_c, 0, 56, 0
5, 122880, Note_on_c, 0, 57, 60
5, 122959, Note_on_c, 0, 57, 0
5, 122960, Note_on_c, 0, 56, 60
5, 123039, Note_on_c, 0, 56, 0
5, 123040, Note_on_c, 0, 57, 59
5, 123119, Note_on_c, 0, 57, 0
5, 123120, Note_on_c, 0, 56, 59
5, 123199, Note_on_c, 0, 56, 0
5, 123200, Note_on_c, 0, 57, 58
5, 123279, Note_on_c, 0, 57, 0
5, 123280, Note_on_c, 0, 56, 58
5, 123359, Note_on_c, 0, 56, 0
5, 123360, Note_on_c, 0, 57, 58
5, 123439, Note_on_c, 0, 57, 0
5, 123440, Note_on_c, 0, 56, 57
5, 123519, Note_on_c, 0, 56, 0
5, 123520, Note_on_c, 0, 57, 57
5, 123599, Note_on_c, 0, 57, 0
5, 123600, Note_on_c, 0, 56, 56
5, 123679, Note_on_c, 0, 56, 0
5, 123680, Note_on_c, 0, 57, 56
5, 123759, Note_on_c, 0, 57, 0
5, 123760, Note_on_c, 0, 56, 56
5, 123832, Note_on_c, 0, 56, 0
5, 123840, Note_on_c, 0, 57, 55
5, 123919, Note_on_c, 0, 57, 0
5, 123920, Note_on_c, 0, 56, 55
5, 123999, Note_on_c, 0, 56, 0
5, 124000, Note_on_c, 0, 57, 51
5, 124079, Note_on_c, 0, 57, 0
5, 124080, Note_on_c, 0, 56, 51
5, 124159, Note_on_c, 0, 56, 0
5, 124160, Note_on_c, 0, 57, 51
5, 124239, Note_on_c, 0, 57, 0
5, 124240, Note_on_c, 0, 56, 51
5, 124319, Note_on_c, 0, 56, 0
5, 124320, Note_on_c, 0, 57, 51
5, 124399, Note_on_c, 0, 57, 0
5, 124400, Note_on_c, 0, 56, 51
5, 124479, Note_on_c, 0, 56, 0
5, 124480, Note_on_c, 0, 57, 51
5, 124559, Note_on_c, 0, 57, 0
5, 124560, Note_on_c, 0, 56, 51
5, 124639, Note_on_c, 0, 56, 0
5, 124640, Note_on_c, 0, 57, 51
5, 124719, Note_on_c, 0, 57, 0
5, 124720, Note_on_c, 0, 56, 51
5, 124792, Note_on_c, 0, 56, 0
5, 124800, Note_on_c, 0, 57, 51
5, 124879, Note_on_c, 0, 57, 0
5, 124880, Note_on_c, 0, 56, 51
5, 124959, Note_on_c, 0, 56, 0
5, 124960, Note_on_c, 0, 57, 51
5, 125039, Note_on_c, 0, 57, 0
5, 125040, Note_on_c, 0, 56, 51
5, 125119, Note_on_c, 0, 56, 0
5, 125120, Note_on_c, 0, 57, 51
5, 125199, Note_on_c, 0, 57, 0
5, 125200, Note_on_c, 0, 56, 51
5, 125279, Note_on_c, 0, 56, 0
5, 125280, Note_on_c, 0, 57, 51
5, 125359, Note_on_c, 0, 57, 0
5, 125360, Note_on_c, 0, 56, 51
5, 125439, Note_on_c, 0, 56, 0
5, 125440, Note_on_c, 0, 57, 51
5, 125519, Note_on_c, 0, 57, 0
5, 125520, Note_on_c, 0, 56, 51
5, 125599, Note_on_c, 0, 56, 0
5, 125600, Note_on_c, 0, 57, 51
5, 125679, Note_on_c, 0, 57, 0
5, 125680, Note_on_c, 0, 56, 51
5, 125752, Note_on_c, 0, 56, 0
5, 125760, Note_on_c, 0, 57, 51
5, 125839, Note_on_c, 0, 57, 0
5, 125840, Note_on_c, 0, 56, 51
5, 125919, Note_on_c, 0, 56, 0
5, 125920, Note_on_c, 0, 57, 51
5, 125999, Note_on_c, 0, 57, 0
5, 126000, Note_on_c, 0, 56, 51
5, 126079, Note_on_c, 0, 56, 0
5, 126080, Note_on_c, 0, 57, 51
5, 126159, Note_on_c, 0, 57, 0
5, 126160, Note_on_c, 0, 56, 51
5, 126239, Note_on_c, 0, 56, 0
5, 126240, Note_on_c, 0, 57, 51
5, 126319, Note_on_c, 0, 57, 0
5, 126320, Note_on_c, 0, 56, 51
5, 126399, Note_on_c, 0, 56, 0
5, 126400, Note_on_c, 0, 57, 51
5, 126479, Note_on_c, 0, 57, 0
5, 126480, Note_on_c, 0, 56, 51
5, 126559, Note_on_c, 0, 56, 0
5, 126560, Note_on_c, 0, 57, 51
5, 126639, Note_on_c, 0, 57, 0
5, 126640, Note_on_c, 0, 56, 51
5, 126712, Note_on_c, 0, 56, 0
5, 127350, Control_c, 0, 64, 0
5, 179520, Note_on_c, 0, 70, 44
5, 180239, Note_on_c, 0, 70, 0
5, 180240, Note_on_c, 0, 69, 44
5, 180456, Note_on_c, 0, 69, 0
5, 180480, Note_on_c, 0, 69, 44
5, 180912, Note_on_c, 0, 69, 0
5, 205575, Control_c, 0, 64, 127
5, 205680, Note_on_c, 0, 54, 51
5, 205680, Note_on_c, 0, 56, 51
5, 205680, Note_on_c, 0, 59, 51
5, 205680, Note_on_c, 0, 62, 51
5, 206328, Note_on_c, 0, 62, 0
5, 206328, Note_on_c, 0, 54, 0
5, 206328, Note_on_c, 0, 56, 0
5, 206328, Note_on_c, 0, 59, 0
5, 206640, Note_on_c, 0, 54, 51
5, 206640, Note_on_c, 0, 65, 51
5, 206640, Note_on_c, 0, 62, 51
5, 206640, Note_on_c, 0, 59, 51
5, 207288, Note_on_c, 0, 59, 0
5, 207288, Note_on_c, 0, 54, 0
5, 207288, Note_on_c, 0, 65, 0
5, 207288, Note_on_c, 0, 62, 0
5, 207360, Control_c, 0, 64, 0
5, 207600, Note_on_c, 0, 65, 51
5, 207600, Note_on_c, 0, 59, 51
5, 207600, Note_on_c, 0, 62, 51
5, 207600, Note_on_c, 0, 54, 51
5, 208248, Note_on_c, 0, 54, 0
5, 208248, Note_on_c, 0, 65, 0
5, 208248, Note_on_c, 0, 59, 0
5, 208248, Note_on_c, 0, 62, 0
5, 208560, Note_on_c, 0, 65, 51
5, 208560, Note_on_c, 0, 54, 51
5, 208560, Note_on_c, 0, 68, 51
5, 208560, Note_on_c, 0, 62, 51
5, 209208, Note_on_c, 0, 62, 0
5, 209208, Note_on_c, 0, 65, 0
5, 209208, Note_on_c, 0, 54, 0
5, 209208, Note_on_c, 0, 68, 0
5, 209520, Note_on_c, 0, 61, 51
5, 209520, Note_on_c, 0, 54, 51
5, 209520, Note_on_c, 0, 66, 51
5, 209520, Note_on_c, 0, 64, 51
5, 210168, Note_on_c, 0, 64, 0
5, 210168, Note_on_c, 0, 61, 0
5, 210168, Note_on_c, 0, 54, 0
5, 210168, Note_on_c, 0, 66, 0
5, 211253, Control_c, 0, 64, 127
5, 211440, Note_on_c, 0, 66, 51
5, 211440, Note_on_c, 0, 54, 51
5, 211440, Note_on_c, 0, 64, 51
5, 211440, Note_on_c, 0, 58, 51
5, 212088, Note_on_c, 0, 58, 0
5, 212088, Note_on_c, 0, 66, 0
5, 212088, Note_on_c, 0, 54, 0
5, 212088, Note_on_c, 0, 64, 0
5, 212213, Control_c, 0, 64, 0
5, 313920, Control_c, 0, 64, 127
5, 313920, Note_on_c, 0, 68, 90
5, 314279, Note_on_c, 0, 68, 0
5, 314280, Note_on_c, 0, 68, 90
5, 314388, Note_on_c, 0, 68, 0
5, 314880, Control_c, 0, 64, 0
5, 318720, Note_on_c, 0, 72, 90
5, 319079, Note_on_c, 0, 72, 0
5, 319080, Note_on_c, 0, 72, 90
5, 319199, Note_on_c, 0, 72, 0
5, 319200, Note_on_c, 0, 72, 90
5, 319559, Note_on_c, 0, 72, 0
5, 319560, Note_on_c, 0, 72, 90
5, 319668, Note_on_c, 0, 72, 0
5, 319680, Note_on_c, 0, 75, 90
5, 320039, Note_on_c, 0, 75, 0
5, 320040, Note_on_c, 0, 75, 90
5, 320159, Note_on_c, 0, 75, 0
5, 320160, Note_on_c, 0, 75, 90
5, 320519, Note_on_c, 0, 75, 0
5, 320520, Note_on_c, 0, 75, 90
5, 320628, Note_on_c, 0, 75, 0
5, 320640, Note_on_c, 0, 79, 90
5, 320999, Note_on_c, 0, 79, 0
5, 321000, Note_on_c, 0, 79, 90
5, 321119, Note_on_c, 0, 79, 0
5, 321120, Note_on_c, 0, 79, 90
5, 321479, Note_on_c, 0, 79, 0
5, 321480, Note_on_c, 0, 79, 90
5, 321588, Note_on_c, 0, 79, 0
5, 321600, Note_on_c, 0, 79, 90
5, 321959, Note_on_c, 0, 79, 0
5, 321960, Note_on_c, 0, 79, 90
5, 322079, Note_on_c, 0, 79, 0
5, 322080, Note_on_c, 0, 78, 90
5, 322439, Note_on_c, 0, 78, 0
5, 322440, Note_on_c, 0, 78, 90
5, 322548, Note_on_c, 0, 78, 0
5, 322560, Control_c, 0, 64, 127
5, 322560, Note_on_c, 0, 79, 91
5, 322668, Note_on_c, 0, 79, 0
5, 322680, Note_on_c, 0, 67, 96
5, 322734, Note_on_c, 0, 67, 0
5, 322740, Note_on_c, 0, 69, 98
5, 322794, Note_on_c, 0, 69, 0
5, 322800, Note_on_c, 0, 70, 100
5, 322836, Note_on_c, 0, 70, 0
5, 322840, Note_on_c, 0, 72, 102
5, 322876, Note_on_c, 0, 72, 0
5, 322880, Note_on_c, 0, 74, 103
5, 322916, Note_on_c, 0, 74, 0
5, 322920, Note_on_c, 0, 76, 105
5, 322956, Note_on_c, 0, 76, 0
5, 322960, Note_on_c, 0, 77, 106
5, 322996, Note_on_c, 0, 77, 0
5, 323000, Note_on_c, 0, 79, 108
5, 323036, Note_on_c, 0, 79, 0
5, 323040, Note_on_c, 0, 74, 109
5, 323040, Note_on_c, 0, 77, 109
5, 323148, Note_on_c, 0, 77, 0
5, 323148, Note_on_c, 0, 74, 0
5, 323160, Note_on_c, 0, 72, 90
5, 323160, Note_on_c, 0, 76, 90
5, 323268, Note_on_c, 0, 76, 0
5, 323268, Note_on_c, 0, 72, 0
5, 323280, Note_on_c, 0, 70, 90
5, 323280, Note_on_c, 0, 74, 90
5, 323388, Note_on_c, 0, 74, 0
5, 323388, Note_on_c, 0, 70, 0
5, 323400, Note_on_c, 0, 70, 90
5, 323400, Note_on_c, 0, 74, 90
5, 323508, Note_on_c, 0, 74, 0
5, 323508, Note_on_c, 0, 70, 0
5, 323520, Note_on_c, 0, 72, 90
5, 323520, Control_c, 0, 64, 0
5, 323520, Note_on_c, 0, 76, 90
5, 323628, Note_on_c, 0, 76, 0
5, 323628, Note_on_c, 0, 72, 0
5, 323640, Note_on_c, 0, 74, 90
5, 323640, Note_on_c, 0, 71, 90
5, 323748, Note_on_c, 0, 71, 0
5, 323748, Note_on_c, 0, 74, 0
5, 323760, Note_on_c, 0, 72, 90
5, 323760, Note_on_c, 0, 69, 90
5, 323868, Note_on_c, 0, 69, 0
5, 323868, Note_on_c, 0, 72, 0
5, 323880, Note_on_c, 0, 72, 90
5, 323880, Note_on_c, 0, 69, 90
5, 323988, Note_on_c, 0, 69, 0
5, 323988, Note_on_c, 0, 72, 0
5, 324000, Note_on_c, 0, 72, 90
5, 324000, Note_on_c, 0, 69, 90
5, 324108, Note_on_c, 0, 69, 0
5, 324108, Note_on_c, 0, 72, 0
5, 324120, Note_on_c, 0, 71, 90
5, 324228, Note_on_c, 0, 71, 0
5, 324240, Note_on_c, 0, 69, 90
5, 324240, Note_on_c, 0, 72, 90
5, 324348, Note_on_c, 0, 72, 0
5, 324348, Note_on_c, 0, 69, 0
5, 324360, Note_on_c, 0, 69, 90
5, 324360, Note_on_c, 0, 74, 90
5, 324468, Note_on_c, 0, 74, 0
5, 324468, Note_on_c, 0, 69, 0
5, 338880, Control_c, 0, 64, 127
5, 338880, Note_on_c, 0, 93, 90
5, 338880, Note_on_c, 0, 81, 90
5, 338880, Note_on_c, 0, 69, 90
5, 339599, Note_on_c, 0, 69, 0
5, 339599, Note_on_c, 0, 81, 0
5, 339599, Note_on_c, 0, 93, 0
5, 339600, Note_on_c, 0, 69, 90
5, 339600, Note_on_c, 0, 81, 90
5, 339600, Note_on_c, 0, 93, 90
5, 339816, Note_on_c, 0, 93, 0
5, 339816, Note_on_c, 0, 81, 0
5, 339816, Note_on_c, 0, 69, 0
5, 340650, Control_c, 0, 64, 0
5, 340800, Note_on_c, 0, 81, 80
5, 340800, Control_c, 0, 64, 127
5, 340800, Note_on_c, 0, 72, 80
5, 340800, Note_on_c, 0, 76, 80
5, 341279, Note_on_c, 0, 76, 0
5, 341279, Note_on_c, 0, 72, 0
5, 341279, Note_on_c, 0, 81, 0
5, 341280, Note_on_c, 0, 76, 80
5, 341280, Note_on_c, 0, 70, 80
5, 341280, Note_on_c, 0, 79, 80
5, 341712, Note_on_c, 0, 79, 0
5, 341712, Note_on_c, 0, 70, 0
5, 341712, Note_on_c, 0, 76, 0
5, 341760, Note_on_c, 0, 69, 98
5, 341760, Note_on_c, 0, 72, 98
5, 341760, Note_on_c, 0, 77, 98
5, 342239, Note_on_c, 0, 77, 0
5, 342239, Note_on_c, 0, 72, 0
5, 342239, Note_on_c, 0, 69, 0
5, 342240, Note_on_c, 0, 73, 96
5, 342240, Note_on_c, 0, 69, 96
5, 342240, Note_on_c, 0, 67, 96
5, 342240, Note_on_c, 0, 76, 96
5, 342672, Note_on_c, 0, 76, 0
5, 342672, Note_on_c, 0, 73, 0
5, 342672, Note_on_c, 0, 69, 0
5, 342672, Note_on_c, 0, 67, 0
5, 342720, Note_on_c, 0, 69, 94
5, 342720, Note_on_c, 0, 66, 94
5, 342720, Note_on_c, 0, 76, 94
5, 343199, Note_on_c, 0, 76, 0
5, 343199, Note_on_c, 0, 66, 0
5, 343199, Note_on_c, 0, 69, 0
5, 343200, Note_on_c, 0, 65, 93
5, 343200, Note_on_c, 0, 69, 93
5, 343200, Note_on_c, 0, 74, 93
5, 343632, Note_on_c, 0, 74, 0
5, 343632, Note_on_c, 0, 69, 0
5, 343632, Note_on_c, 0, 65, 0
5, 343680, Note_on_c, 0, 63, 90
5, 343680, Note_on_c, 0, 67, 90
5, 343680, Note_on_c, 0, 70, 90
5, 344159, Note_on_c, 0, 70, 0
5, 344159, Note_on_c, 0, 67, 0
5, 344159, Note_on_c, 0, 63, 0
5, 344160, Note_on_c, 0, 62, 90
5, 344160, Note_on_c, 0, 65, 90
5, 344160, Note_on_c, 0, 70, 90
5, 344592, Note_on_c, 0, 70, 0
5, 344592, Note_on_c, 0, 65, 0
5, 344592, Note_on_c, 0, 62, 0
5, 344640, Note_on_c, 0, 69, 90
5, 344640, Note_on_c, 0, 61, 90
5, 344640, Note_on_c, 0, 64, 90
5, 345276, Control_c, 0, 64, 0
5, 345359, Note_on_c, 0, 64, 0
5, 345359, Note_on_c, 0, 61, 0
5, 345359, Note_on_c, 0, 69, 0
5, 345360, Note_on_c, 0, 57, 90
5, 345576, Note_on_c, 0, 57, 0
5, 345600, Note_on_c, 0, 67, 90
5, 345839, Note_on_c, 0, 67, 0
5, 345840, Note_on_c, 0, 64, 90
5, 346079, Note_on_c, 0, 64, 0
5, 346080, Note_on_c, 0, 61, 90
5, 346319, Note_on_c, 0, 61, 0
5, 346320, Note_on_c, 0, 57, 90
5, 346428, Note_on_c, 0, 57, 0
5, 346560, Note_on_c, 0, 69, 91
5, 346608, Control_c, 0, 64, 127
5, 346799, Note_on_c, 0, 69, 0
5, 346800, Note_on_c, 0, 65, 91
5, 347039, Note_on_c, 0, 65, 0
5, 347040, Note_on_c, 0, 62, 91
5, 347279, Note_on_c, 0, 62, 0
5, 347280, Note_on_c, 0, 57, 92
5, 347496, Note_on_c, 0, 57, 0
5, 347520, Note_on_c, 0, 71, 92
5, 347568, Control_c, 0, 64, 0
5, 347736, Note_on_c, 0, 71, 0
5, 347760, Note_on_c, 0, 65, 92
5, 347976, Note_on_c, 0, 65, 0
5, 348000, Note_on_c, 0, 62, 92
5, 348216, Note_on_c, 0, 62, 0
5, 348360, Note_on_c, 0, 69, 93
5, 348468, Note_on_c, 0, 69, 0
5, 348480, Control_c, 0, 64, 127
5, 348480, Note_on_c, 0, 73, 93
5, 348804, Note_on_c, 0, 73, 0
5, 348840, Note_on_c, 0, 69, 93
5, 348948, Note_on_c, 0, 69, 0
5, 348960, Note_on_c, 0, 76, 93
5, 349284, Note_on_c, 0, 76, 0
5, 349320, Note_on_c, 0, 69, 94
5, 349428, Note_on_c, 0, 69, 0
5, 349440, Control_c, 0, 64, 0
5, 349440, Note_on_c, 0, 79, 94
5, 349764, Note_on_c, 0, 79, 0
5, 349800, Note_on_c, 0, 69, 93
5, 349908, Note_on_c, 0, 69, 0
5, 349920, Note_on_c, 0, 80, 94
5, 350244, Note_on_c, 0, 80, 0
5, 350280, Note_on_c, 0, 69, 92
5, 350388, Note_on_c, 0, 69, 0
5, 350400, Control_c, 0, 64, 127
5, 350400, Note_on_c, 0, 81, 92
5, 350724, Note_on_c, 0, 81, 0
5, 350760, Note_on_c, 0, 69, 91
5, 350868, Note_on_c, 0, 69, 0
5, 350880, Note_on_c, 0, 82, 91
5, 351096, Note_on_c, 0, 82, 0
5, 351120, Note_on_c, 0, 79, 90
5, 351336, Note_on_c, 0, 79, 0
5, 351360, Control_c, 0, 64, 0
5, 351360, Note_on_c, 0, 76, 89
5, 351576, Note_on_c, 0, 76, 0
5, 351600, Note_on_c, 0, 73, 88
5, 351816, Note_on_c, 0, 73, 0
5, 351840, Note_on_c, 0, 70, 88
5, 352056, Note_on_c, 0, 70, 0
5, 352080, Note_on_c, 0, 67, 87
5, 352296, Note_on_c, 0, 67, 0
5, 352320, Control_c, 0, 64, 127
5, 352320, Note_on_c, 0, 65, 80
5, 352536, Note_on_c, 0, 65, 0
5, 352560, Note_on_c, 0, 62, 77
5, 352776, Note_on_c, 0, 62, 0
5, 352800, Note_on_c, 0, 59, 73
5, 353016, Note_on_c, 0, 59, 0
5, 353040, Note_on_c, 0, 56, 71
5, 353256, Note_on_c, 0, 56, 0
5, 353280, Control_c, 0, 64, 0
5, 353280, Note_on_c, 0, 57, 68
5, 353519, Note_on_c, 0, 57, 0
5, 353520, Note_on_c, 0, 52, 65
5, 353759, Note_on_c, 0, 52, 0
5, 353760, Note_on_c, 0, 61, 62
5, 353999, Note_on_c, 0, 61, 0
5, 354000, Note_on_c, 0, 57, 59
5, 354216, Note_on_c, 0, 57, 0
5, 357120, Control_c, 0, 64, 127
5, 357120, Note_on_c, 0, 62, 104
5, 357228, Note_on_c, 0, 62, 0
5, 357360, Note_on_c, 0, 67, 105
5, 357792, Note_on_c, 0, 67, 0
5, 357840, Note_on_c, 0, 69, 107
5, 357948, Note_on_c, 0, 69, 0
5, 358080, Note_on_c, 0, 65, 108
5, 358080, Control_c, 0, 64, 0
5, 358080, Note_on_c, 0, 74, 108
5, 358080, Note_on_c, 0, 71, 108
5, 358440, Control_c, 0, 64, 127
5, 358512, Note_on_c, 0, 71, 0
5, 358512, Note_on_c, 0, 74, 0
5, 358512, Note_on_c, 0, 65, 0
5, 358560, Note_on_c, 0, 74, 104
5, 358560, Note_on_c, 0, 71, 104
5, 358560, Note_on_c, 0, 77, 104
5, 358992, Note_on_c, 0, 77, 0
5, 358992, Note_on_c, 0, 71, 0
5, 358992, Note_on_c, 0, 74, 0
5, 359040, Control_c, 0, 64, 0
5, 359520, Note_on_c, 0, 68, 102
5, 359616, Control_c, 0, 64, 127
5, 359952, Note_on_c, 0, 68, 0
5, 360000, Note_on_c, 0, 69, 102
5, 360432, Note_on_c, 0, 69, 0
5, 360576, Control_c, 0, 64, 0
5, 360960, Control_c, 0, 64, 127
5, 360960, Note_on_c, 0, 45, 90
5, 361039, Note_on_c, 0, 45, 0
5, 361040, Note_on_c, 0, 50, 90
5, 361119, Note_on_c, 0, 50, 0
5, 361120, Note_on_c, 0, 53, 90
5, 361199, Note_on_c, 0, 53, 0
5, 361200, Note_on_c, 0, 50, 90
5, 361279, Note_on_c, 0, 50, 0
5, 361280, Note_on_c, 0, 53, 90
5, 361359, Note_on_c, 0, 53, 0
5, 361360, Note_on_c, 0, 57, 90
5, 361439, Note_on_c, 0, 57, 0
5, 361440, Note_on_c, 0, 53, 90
5, 361519, Note_on_c, 0, 53, 0
5, 361520, Note_on_c, 0, 57, 90
5, 361599, Note_on_c, 0, 57, 0
5, 361600, Note_on_c, 0, 62, 90
5, 361679, Note_on_c, 0, 62, 0
5, 361680, Note_on_c, 0, 57, 90
5, 361759, Note_on_c, 0, 57, 0
5, 361760, Note_on_c, 0, 62, 90
5, 361839, Note_on_c, 0, 62, 0
5, 361840, Note_on_c, 0, 65, 90
5, 361912, Note_on_c, 0, 65, 0
5, 363620, Control_c, 0, 64, 0
5, 363840, Control_c, 0, 64, 127
5, 363840, Note_on_c, 0, 45, 90
5, 363919, Note_on_c, 0, 45, 0
5, 363920, Note_on_c, 0, 50, 90
5, 363999, Note_on_c, 0, 50, 0
5, 364000, Note_on_c, 0, 53, 90
5, 364079, Note_on_c, 0, 53, 0
5, 364080, Note_on_c, 0, 50, 90
5, 364159, Note_on_c, 0, 50, 0
5, 364160, Note_on_c, 0, 53, 90
5, 364239, Note_on_c, 0, 53, 0
5, 364240, Note_on_c, 0, 59, 90
5, 364319, Note_on_c, 0, 59, 0
5, 364320, Note_on_c, 0, 53, 90
5, 364399, Note_on_c, 0, 53, 0
5, 364400, Note_on_c, 0, 59, 90
5, 364479, Note_on_c, 0, 59, 0
5, 364480, Note_on_c, 0, 62, 90
5, 364559, Note_on_c, 0, 62, 0
5, 364560, Note_on_c, 0, 59, 90
5, 364639, Note_on_c, 0, 59, 0
5, 364640, Note_on_c, 0, 62, 90
5, 364719, Note_on_c, 0, 62, 0
5, 364720, Note_on_c, 0, 65, 90
5, 364792, Note_on_c, 0, 65, 0
5, 366600, Control_c, 0, 64, 0
5, 366720, Control_c, 0, 64, 127
5, 366720, Note_on_c, 0, 49, 90
5, 366792, Note_on_c, 0, 49, 0
5, 366800, Note_on_c, 0, 52, 90
5, 366872, Note_on_c, 0, 52, 0
5, 366880, Note_on_c, 0, 55, 90
5, 366952, Note_on_c, 0, 55, 0
5, 366960, Note_on_c, 0, 52, 90
5, 367032, Note_on_c, 0, 52, 0
5, 367040, Note_on_c, 0, 55, 90
5, 367112, Note_on_c, 0, 55, 0
5, 367120, Note_on_c, 0, 61, 90
5, 367192, Note_on_c, 0, 61, 0
5, 367200, Note_on_c, 0, 55, 90
5, 367272, Note_on_c, 0, 55, 0
5, 367280, Note_on_c, 0, 61, 90
5, 367352, Note_on_c, 0, 61, 0
5, 367360, Note_on_c, 0, 64, 90
5, 367432, Note_on_c, 0, 64, 0
5, 367440, Note_on_c, 0, 61, 90
5, 367512, Note_on_c, 0, 61, 0
5, 367520, Note_on_c, 0, 64, 90
5, 367592, Note_on_c, 0, 64, 0
5, 367600, Note_on_c, 0, 67, 90
5, 367672, Note_on_c, 0, 67, 0
5, 367680, Note_on_c, 0, 61, 90
5, 367896, Note_on_c, 0, 61, 0
5, 368355, Control_c, 0, 64, 0
5, 368640, Note_on_c, 0, 73, 90
5, 368700, Control_c, 0, 64, 127
5, 369504, Note_on_c, 0, 73, 0
5, 369600, Note_on_c, 0, 72, 64
5, 370464, Note_on_c, 0, 72, 0
5, 370560, Note_on_c, 0, 71, 64
5, 371424, Note_on_c, 0, 71, 0
5, 371520, Note_on_c, 0, 70, 84
5, 371999, Note_on_c, 0, 70, 0
5, 372000, Note_on_c, 0, 69, 81
5, 372432, Note_on_c, 0, 69, 0
5, 372480, Note_on_c, 0, 68, 77
5, 372959, Note_on_c, 0, 68, 0
5, 372960, Note_on_c, 0, 67, 74
5, 373392, Note_on_c, 0, 67, 0
5, 373440, Note_on_c, 0, 66, 70
5, 373919, Note_on_c, 0, 66, 0
5, 373920, Note_on_c, 0, 65, 66
5, 374352, Note_on_c, 0, 65, 0
5, 375315, Control_c, 0, 64, 0
5, 379600, Control_c, 0, 64, 127
5, 379680, Note_on_c, 0, 57, 64
5, 379759, Note_on_c, 0, 57, 0
5, 379760, Note_on_c, 0, 61, 79
5, 379839, Note_on_c, 0, 61, 0
5, 379840, Note_on_c, 0, 64, 82
5, 379919, Note_on_c, 0, 64, 0
5, 379920, Note_on_c, 0, 69, 86
5, 379999, Note_on_c, 0, 69, 0
5, 380000, Note_on_c, 0, 73, 89
5, 380079, Note_on_c, 0, 73, 0
5, 380080, Note_on_c, 0, 76, 92
5, 380152, Note_on_c, 0, 76, 0
5, 380160, Note_on_c, 0, 79, 95
5, 380376, Note_on_c, 0, 79, 0
5, 380560, Control_c, 0, 64, 0
5, 381680, Control_c, 0, 64, 127
5, 381840, Note_on_c, 0, 68, 64
5, 382056, Note_on_c, 0, 68, 0
5, 382080, Note_on_c, 0, 69, 64
5, 382296, Note_on_c, 0, 69, 0
5, 382320, Note_on_c, 0, 61, 64
5, 382536, Note_on_c, 0, 61, 0
5, 382560, Note_on_c, 0, 62, 64
5, 382776, Note_on_c, 0, 62, 0
5, 382800, Note_on_c, 0, 70, 64
5, 383016, Note_on_c, 0, 70, 0
5, 383040, Note_on_c, 0, 71, 64
5, 383256, Note_on_c, 0, 71, 0
5, 383280, Note_on_c, 0, 63, 71
5, 383496, Note_on_c, 0, 63, 0
5, 383520, Note_on_c, 0, 64, 72
5, 383736, Note_on_c, 0, 64, 0
5, 383760, Note_on_c, 0, 73, 74
5, 384216, Note_on_c, 0, 73, 0
5, 384240, Note_on_c, 0, 73, 77
5, 384456, Note_on_c, 0, 73, 0
5, 384480, Note_on_c, 0, 76, 79
5, 384696, Note_on_c, 0, 76, 0
5, 384720, Note_on_c, 0, 74, 80
5, 384936, Note_on_c, 0, 74, 0
5, 384960, Note_on_c, 0, 73, 82
5, 385176, Note_on_c, 0, 73, 0
5, 385200, Note_on_c, 0, 74, 64
5, 385416, Note_on_c, 0, 74, 0
5, 385440, Note_on_c, 0, 71, 64
5, 385656, Note_on_c, 0, 71, 0
5, 385680, Note_on_c, 0, 67, 64
5, 385815, Control_c, 0, 64, 0
5, 385896, Note_on_c, 0, 67, 0
5, 385920, Note_on_c, 0, 69, 60
5, 385920, Control_c, 0, 64, 127
5, 385920, Note_on_c, 0, 66, 60
5, 387744, Note_on_c, 0, 66, 0
5, 387744, Note_on_c, 0, 69, 0
5, 387840, Note_on_c, 0, 69, 48
5, 387840, Note_on_c, 0, 65, 48
5, 389664, Note_on_c, 0, 65, 0
5, 389664, Note_on_c, 0, 69, 0
5, 389760, Note_on_c, 0, 64, 48
5, 389760, Note_on_c, 0, 69, 48
5, 390624, Note_on_c, 0, 69, 0
5, 390624, Note_on_c, 0, 64, 0
5, 391620, Control_c, 0, 64, 0
5, 396960, Note_on_c, 0, 72, 70
5, 397392, Note_on_c, 0, 72, 0
5, 397440, Control_c, 0, 64, 127
5, 397440, Note_on_c, 0, 69, 73
5, 397679, Note_on_c, 0, 69, 0
5, 397680, Note_on_c, 0, 74, 75
5, 397919, Note_on_c, 0, 74, 0
5, 397920, Note_on_c, 0, 78, 77
5, 398159, Note_on_c, 0, 78, 0
5, 398160, Note_on_c, 0, 81, 79
5, 398376, Note_on_c, 0, 81, 0
5, 398400, Note_on_c, 0, 69, 81
5, 398639, Note_on_c, 0, 69, 0
5, 398640, Note_on_c, 0, 74, 83
5, 398879, Note_on_c, 0, 74, 0
5, 398880, Note_on_c, 0, 77, 84
5, 399119, Note_on_c, 0, 77, 0
5, 399120, Note_on_c, 0, 81, 86
5, 399336, Note_on_c, 0, 81, 0
5, 399360, Note_on_c, 0, 64, 88
5, 399576, Note_on_c, 0, 64, 0
5, 399600, Note_on_c, 0, 68, 84
5, 399816, Note_on_c, 0, 68, 0
5, 399840, Note_on_c, 0, 69, 80
5, 400056, Note_on_c, 0, 69, 0
5, 400080, Note_on_c, 0, 68, 76
5, 400080, Note_on_c, 0, 71, 76
5, 400296, Note_on_c, 0, 71, 0
5, 400296, Note_on_c, 0, 68, 0
5, 400320, Note_on_c, 0, 69, 96
5, 400752, Note_on_c, 0, 69, 0
5, 400800, Note_on_c, 0, 69, 57
5, 401016, Note_on_c, 0, 69, 0
5, 401040, Note_on_c, 0, 67, 54
5, 401040, Note_on_c, 0, 76, 54
5, 401040, Note_on_c, 0, 73, 54
5, 401256, Note_on_c, 0, 73, 0
5, 401256, Note_on_c, 0, 76, 0
5, 401256, Note_on_c, 0, 67, 0
5, 401280, Note_on_c, 0, 66, 40
5, 401280, Note_on_c, 0, 74, 40
5, 401280, Note_on_c, 0, 78, 40
5, 401496, Note_on_c, 0, 78, 0
5, 401496, Note_on_c, 0, 74, 0
5, 401496, Note_on_c, 0, 66, 0
5, 401844, Control_c, 0, 64, 0
5, 424320, Note_on_c, 0, 66, 42
5, 424320, Note_on_c, 0, 69, 42
5, 424320, Note_on_c, 0, 74, 42
5, 424360, Control_c, 0, 64, 127
5, 424795, Note_on_c, 0, 74, 0
5, 424795, Note_on_c, 0, 69, 0
5, 424795, Note_on_c, 0, 66, 0
5, 425320, Control_c, 0, 64, 0
5, 441600, Note_on_c, 0, 64, 90
5, 441600, Note_on_c, 0, 67, 90
5, 441600, Control_c, 0, 64, 127
5, 442080, Note_on_c, 0, 73, 90
5, 442512, Note_on_c, 0, 73, 0
5, 442512, Note_on_c, 0, 67, 0
5, 442512, Note_on_c, 0, 64, 0
5, 442560, Note_on_c, 0, 76, 91
5, 442560, Note_on_c, 0, 73, 91
5, 442560, Note_on_c, 0, 67, 91
5, 442560, Note_on_c, 0, 69, 91
5, 443039, Note_on_c, 0, 69, 0
5, 443039, Note_on_c, 0, 76, 0
5, 443039, Note_on_c, 0, 73, 0
5, 443039, Note_on_c, 0, 67, 0
5, 443040, Note_on_c, 0, 69, 92
5, 443040, Note_on_c, 0, 79, 92
5, 443040, Note_on_c, 0, 73, 92
5, 443040, Note_on_c, 0, 76, 92
5, 443628, Note_on_c, 0, 76, 0
5, 443628, Note_on_c, 0, 69, 0
5, 443628, Note_on_c, 0, 79, 0
5, 443628, Note_on_c, 0, 73, 0
5, 444360, Control_c, 0, 64, 0
5, 444674, Control_c, 0, 64, 127
5, 444720, Note_on_c, 0, 62, 97
5, 445152, Note_on_c, 0, 62, 0
5, 445200, Note_on_c, 0, 64, 91
5, 445259, Note_on_c, 0, 64, 0
5, 445260, Note_on_c, 0, 66, 91
5, 445319, Note_on_c, 0, 66, 0
5, 445320, Note_on_c, 0, 64, 88
5, 445379, Note_on_c, 0, 64, 0
5, 445380, Note_on_c, 0, 66, 84
5, 445440, Control_c, 0, 64, 0
5, 445620, Control_c, 0, 64, 127
5, 445679, Note_on_c, 0, 66, 0
5, 445680, Note_on_c, 0, 69, 86
5, 445919, Note_on_c, 0, 69, 0
5, 445920, Note_on_c, 0, 74, 92
5, 446159, Note_on_c, 0, 74, 0
5, 446160, Note_on_c, 0, 74, 97
5, 446376, Note_on_c, 0, 74, 0
5, 446400, Note_on_c, 0, 74, 94
5, 446580, Control_c, 0, 64, 0
5, 447516, Control_c, 0, 64, 127
5, 447599, Note_on_c, 0, 74, 0
5, 447600, Note_on_c, 0, 74, 101
5, 447839, Note_on_c, 0, 74, 0
5, 447840, Note_on_c, 0, 73, 96
5, 448079, Note_on_c, 0, 73, 0
5, 448080, Note_on_c, 0, 71, 92
5, 448296, Note_on_c, 0, 71, 0
5, 448320, Note_on_c, 0, 69, 88
5, 448476, Control_c, 0, 64, 0
5, 448559, Note_on_c, 0, 69, 0
5, 448560, Note_on_c, 0, 73, 94
5, 449039, Note_on_c, 0, 73, 0
5, 449040, Note_on_c, 0, 74, 102
5, 449099, Note_on_c, 0, 74, 0
5, 449100, Note_on_c, 0, 76, 99
5, 449159, Note_on_c, 0, 76, 0
5, 449160, Note_on_c, 0, 74, 96
5, 449219, Note_on_c, 0, 74, 0
5, 449220, Note_on_c, 0, 76, 93
5, 449232, Control_c, 0, 64, 127
5, 449519, Note_on_c, 0, 76, 0
5, 449520, Note_on_c, 0, 79, 92
5, 449759, Note_on_c, 0, 79, 0
5, 449760, Note_on_c, 0, 84, 96
5, 449999, Note_on_c, 0, 84, 0
5, 450000, Note_on_c, 0, 84, 100
5, 450192, Control_c, 0, 64, 0
5, 450216, Note_on_c, 0, 84, 0
5, 450240, Note_on_c, 0, 84, 104
5, 451200, Control_c, 0, 64, 127
5, 451439, Note_on_c, 0, 84, 0
5, 451440, Note_on_c, 0, 84, 108
5, 451679, Note_on_c, 0, 84, 0
5, 451680, Note_on_c, 0, 83, 102
5, 451919, Note_on_c, 0, 83, 0
5, 451920, Note_on_c, 0, 81, 95
5, 452136, Note_on_c, 0, 81, 0
5, 452160, Control_c, 0, 64, 0
5, 458880, Control_c, 0, 64, 127
5, 458880, Note_on_c, 0, 81, 74
5, 458988, Note_on_c, 0, 81, 0
5, 459120, Note_on_c, 0, 74, 73
5, 459228, Note_on_c, 0, 74, 0
5, 459360, Note_on_c, 0, 81, 70
5, 459468, Note_on_c, 0, 81, 0
5, 459600, Note_on_c, 0, 73, 69
5, 459700, Control_c, 0, 64, 0
5, 459708, Note_on_c, 0, 73, 0
5, 482880, Note_on_c, 0, 91, 70
5, 482880, Control_c, 0, 64, 127
5, 482880, Note_on_c, 0, 88, 70
5, 483096, Note_on_c, 0, 88, 0
5, 483096, Note_on_c, 0, 91, 0
5, 483120, Note_on_c, 0, 91, 79
5, 483120, Note_on_c, 0, 85, 79
5, 483552, Note_on_c, 0, 85, 0
5, 483552, Note_on_c, 0, 91, 0
5, 483600, Note_on_c, 0, 90, 71
5, 483600, Note_on_c, 0, 86, 71
5, 484056, Note_on_c, 0, 86, 0
5, 484056, Note_on_c, 0, 90, 0
5, 484080, Note_on_c, 0, 88, 71
5, 484080, Note_on_c, 0, 81, 71
5, 484512, Note_on_c, 0, 81, 0
5, 484512, Note_on_c, 0, 88, 0
5, 484560, Note_on_c, 0, 86, 71
5, 484560, Note_on_c, 0, 81, 71
5, 484800, Control_c, 0, 64, 0
5, 485016, Note_on_c, 0, 81, 0
5, 485016, Note_on_c, 0, 86, 0
5, 485040, Note_on_c, 0, 85, 71
5, 485074, Control_c, 0, 64, 127
5, 485256, Note_on_c, 0, 85, 0
5, 485280, Note_on_c, 0, 80, 71
5, 485496, Note_on_c, 0, 80, 0
5, 485520, Note_on_c, 0, 83, 67
5, 485999, Note_on_c, 0, 83, 0
5, 486000, Note_on_c, 0, 85, 74
5, 486239, Note_on_c, 0, 85, 0
5, 486240, Note_on_c, 0, 80, 69
5, 486479, Note_on_c, 0, 80, 0
5, 486480, Note_on_c, 0, 83, 65
5, 486959, Note_on_c, 0, 83, 0
5, 486960, Note_on_c, 0, 85, 71
5, 487199, Note_on_c, 0, 85, 0
5, 487200, Note_on_c, 0, 80, 68
5, 487439, Note_on_c, 0, 80, 0
5, 487440, Note_on_c, 0, 83, 65
5, 487577, Control_c, 0, 64, 0
5, 487680, Control_c, 0, 64, 127
5, 487919, Note_on_c, 0, 83, 0
5, 487920, Note_on_c, 0, 81, 71
5, 488159, Note_on_c, 0, 81, 0
5, 488160, Note_on_c, 0, 76, 68
5, 488399, Note_on_c, 0, 76, 0
5, 488400, Note_on_c, 0, 79, 65
5, 488879, Note_on_c, 0, 79, 0
5, 488880, Note_on_c, 0, 78, 68
5, 489119, Note_on_c, 0, 78, 0
5, 489120, Note_on_c, 0, 73, 66
5, 489359, Note_on_c, 0, 73, 0
5, 489360, Note_on_c, 0, 76, 64
5, 489497, Control_c, 0, 64, 0
5, 489600, Control_c, 0, 64, 127
5, 489839, Note_on_c, 0, 76, 0
5, 489840, Note_on_c, 0, 74, 65
5, 490079, Note_on_c, 0, 74, 0
5, 490080, Note_on_c, 0, 65, 63
5, 490319, Note_on_c, 0, 65, 0
5, 490320, Note_on_c, 0, 74, 60
5, 490799, Note_on_c, 0, 74, 0
5, 490800, Note_on_c, 0, 74, 66
5, 491039, Note_on_c, 0, 74, 0
5, 491040, Note_on_c, 0, 65, 63
5, 491279, Note_on_c, 0, 65, 0
5, 491280, Note_on_c, 0, 74, 60
5, 491314, Control_c, 0, 64, 0
5, 491520, Control_c, 0, 64, 127
5, 491736, Note_on_c, 0, 74, 0
5, 491760, Note_on_c, 0, 74, 64
5, 491976, Note_on_c, 0, 74, 0
5, 492000, Note_on_c, 0, 66, 60
5, 492216, Note_on_c, 0, 66, 0
5, 492240, Note_on_c, 0, 74, 58
5, 492456, Note_on_c, 0, 74, 0
5, 492480, Control_c, 0, 64, 0
5, 492651, Control_c, 0, 64, 127
5, 492720, Note_on_c, 0, 76, 64
5, 492936, Note_on_c, 0, 76, 0
5, 492960, Note_on_c, 0, 69, 60
5, 493176, Note_on_c, 0, 69, 0
5, 493200, Note_on_c, 0, 76, 57
5, 493416, Note_on_c, 0, 76, 0
5, 493611, Control_c, 0, 64, 0
5, 493680, Note_on_c, 0, 76, 64
5, 493851, Control_c, 0, 64, 127
5, 493896, Note_on_c, 0, 76, 0
5, 493920, Note_on_c, 0, 69, 60
5, 494136, Note_on_c, 0, 69, 0
5, 494160, Note_on_c, 0, 76, 57
5, 494376, Note_on_c, 0, 76, 0
5, 494640, Note_on_c, 0, 76, 61
5, 494856, Note_on_c, 0, 76, 0
5, 494880, Note_on_c, 0, 69, 57
5, 495096, Note_on_c, 0, 69, 0
5, 495120, Note_on_c, 0, 76, 53
5, 495200, Control_c, 0, 64, 0
5, 495336, Note_on_c, 0, 76, 0
5, 503040, Control_c, 0, 64, 127
5, 503040, Note_on_c, 0, 76, 57
5, 503099, Note_on_c, 0, 76, 0
5, 503100, Note_on_c, 0, 78, 57
5, 503159, Note_on_c, 0, 78, 0
5, 503160, Note_on_c, 0, 76, 58
5, 503219, Note_on_c, 0, 76, 0
5, 503220, Note_on_c, 0, 78, 58
5, 503279, Note_on_c, 0, 78, 0
5, 503280, Note_on_c, 0, 76, 59
5, 503339, Note_on_c, 0, 76, 0
5, 503340, Note_on_c, 0, 78, 59
5, 503399, Note_on_c, 0, 78, 0
5, 503400, Note_on_c, 0, 76, 60
5, 503459, Note_on_c, 0, 76, 0
5, 503460, Note_on_c, 0, 78, 61
5, 503519, Note_on_c, 0, 78, 0
5, 503520, Note_on_c, 0, 76, 61
5, 503579, Note_on_c, 0, 76, 0
5, 503580, Note_on_c, 0, 78, 62
5, 503639, Note_on_c, 0, 78, 0
5, 503640, Note_on_c, 0, 76, 62
5, 503699, Note_on_c, 0, 76, 0
5, 503700, Note_on_c, 0, 78, 63
5, 503759, Note_on_c, 0, 78, 0
5, 503760, Note_on_c, 0, 76, 64
5, 503819, Note_on_c, 0, 76, 0
5, 503820, Note_on_c, 0, 78, 64
5, 503879, Note_on_c, 0, 78, 0
5, 503880, Note_on_c, 0, 76, 65
5, 503939, Note_on_c, 0, 76, 0
5, 503940, Note_on_c, 0, 78, 65
5, 503994, Note_on_c, 0, 78, 0
5, 504000, Note_on_c, 0, 76, 66
5, 504059, Note_on_c, 0, 76, 0
5, 504060, Note_on_c, 0, 78, 66
5, 504119, Note_on_c, 0, 78, 0
5, 504120, Note_on_c, 0, 76, 67
5, 504179, Note_on_c, 0, 76, 0
5, 504180, Note_on_c, 0, 78, 68
5, 504239, Note_on_c, 0, 78, 0
5, 504240, Note_on_c, 0, 76, 68
5, 504299, Note_on_c, 0, 76, 0
5, 504300, Note_on_c, 0, 78, 69
5, 504359, Note_on_c, 0, 78, 0
5, 504360, Note_on_c, 0, 76, 69
5, 504419, Note_on_c, 0, 76, 0
5, 504420, Note_on_c, 0, 78, 70
5, 504479, Note_on_c, 0, 78, 0
5, 504480, Note_on_c, 0, 76, 70
5, 504539, Note_on_c, 0, 76, 0
5, 504540, Note_on_c, 0, 78, 71
5, 504599, Note_on_c, 0, 78, 0
5, 504600, Note_on_c, 0, 76, 71
5, 504659, Note_on_c, 0, 76, 0
5, 504660, Note_on_c, 0, 78, 72
5, 504719, Note_on_c, 0, 78, 0
5, 504720, Note_on_c, 0, 76, 73
5, 504779, Note_on_c, 0, 76, 0
5, 504780, Note_on_c, 0, 78, 73
5, 504839, Note_on_c, 0, 78, 0
5, 504840, Note_on_c, 0, 76, 74
5, 504899, Note_on_c, 0, 76, 0
5, 504900, Note_on_c, 0, 78, 74
5, 504954, Note_on_c, 0, 78, 0
5, 504960, Note_on_c, 0, 76, 75
5, 505019, Note_on_c, 0, 76, 0
5, 505020, Note_on_c, 0, 79, 75
5, 505079, Note_on_c, 0, 79, 0
5, 505080, Note_on_c, 0, 76, 76
5, 505139, Note_on_c, 0, 76, 0
5, 505140, Note_on_c, 0, 79, 77
5, 505199, Note_on_c, 0, 79, 0
5, 505200, Note_on_c, 0, 76, 77
5, 505259, Note_on_c, 0, 76, 0
5, 505260, Note_on_c, 0, 79, 78
5, 505319, Note_on_c, 0, 79, 0
5, 505320, Note_on_c, 0, 76, 78
5, 505379, Note_on_c, 0, 76, 0
5, 505380, Note_on_c, 0, 79, 79
5, 505439, Note_on_c, 0, 79, 0
5, 505440, Note_on_c, 0, 76, 80
5, 505499, Note_on_c, 0, 76, 0
5, 505500, Note_on_c, 0, 79, 80
5, 505559, Note_on_c, 0, 79, 0
5, 505560, Note_on_c, 0, 76, 81
5, 505619, Note_on_c, 0, 76, 0
5, 505620, Note_on_c, 0, 79, 81
5, 505679, Note_on_c, 0, 79, 0
5, 505680, Note_on_c, 0, 76, 82
5, 505739, Note_on_c, 0, 76, 0
5, 505740, Note_on_c, 0, 79, 82
5, 505799, Note_on_c, 0, 79, 0
5, 505800, Note_on_c, 0, 76, 83
5, 505859, Note_on_c, 0, 76, 0
5, 505860, Note_on_c, 0, 79, 84
5, 505914, Note_on_c, 0, 79, 0
5, 505920, Note_on_c, 0, 76, 84
5, 505979, Note_on_c, 0, 76, 0
5, 505980, Note_on_c, 0, 79, 85
5, 506039, Note_on_c, 0, 79, 0
5, 506040, Note_on_c, 0, 76, 85
5, 506099, Note_on_c, 0, 76, 0
5, 506100, Note_on_c, 0, 79, 86
5, 506159, Note_on_c, 0, 79, 0
5, 506160, Note_on_c, 0, 76, 86
5, 506219, Note_on_c, 0, 76, 0
5, 506220, Note_on_c, 0, 79, 87
5, 506279, Note_on_c, 0, 79, 0
5, 506280, Note_on_c, 0, 76, 88
5, 506339, Note_on_c, 0, 76, 0
5, 506340, Note_on_c, 0, 79, 88
5, 506399, Note_on_c, 0, 79, 0
5, 506400, Note_on_c, 0, 76, 89
5, 506459, Note_on_c, 0, 76, 0
5, 506460, Note_on_c, 0, 79, 89
5, 506519, Note_on_c, 0, 79, 0
5, 506520, Note_on_c, 0, 76, 90
5, 506579, Note_on_c, 0, 76, 0
5, 506580, Note_on_c, 0, 79, 90
5, 506639, Note_on_c, 0, 79, 0
5, 506640, Note_on_c, 0, 76, 91
5, 506699, Note_on_c, 0, 76, 0
5, 506700, Note_on_c, 0, 79, 92
5, 506759, Note_on_c, 0, 79, 0
5, 506760, Note_on_c, 0, 76, 92
5, 506819, Note_on_c, 0, 76, 0
5, 506820, Note_on_c, 0, 79, 93
5, 506874, Note_on_c, 0, 79, 0
5, 506880, Note_on_c, 0, 74, 93
5, 506880, Note_on_c, 0, 78, 93
5, 506880, Control_c, 0, 64, 0
5, 507599, Note_on_c, 0, 78, 0
5, 507599, Note_on_c, 0, 74, 0
5, 507600, Note_on_c, 0, 69, 94
5, 507654, Note_on_c, 0, 69, 0
5, 507669, Control_c, 0, 64, 127
5, 507720, Note_on_c, 0, 74, 94
5, 507774, Note_on_c, 0, 74, 0
5, 507840, Note_on_c, 0, 76, 91
5, 507840, Note_on_c, 0, 69, 91
5, 507894, Note_on_c, 0, 69, 0
5, 507894, Note_on_c, 0, 76, 0
5, 507960, Note_on_c, 0, 78, 96
5, 507960, Note_on_c, 0, 74, 96
5, 508014, Note_on_c, 0, 74, 0
5, 508014, Note_on_c, 0, 78, 0
5, 508080, Note_on_c, 0, 76, 96
5, 508080, Note_on_c, 0, 69, 96
5, 508134, Note_on_c, 0, 69, 0
5, 508134, Note_on_c, 0, 76, 0
5, 508200, Note_on_c, 0, 78, 96
5, 508200, Note_on_c, 0, 74, 96
5, 508254, Note_on_c, 0, 74, 0
5, 508254, Note_on_c, 0, 78, 0
5, 508320, Note_on_c, 0, 76, 96
5, 508320, Note_on_c, 0, 69, 96
5, 508374, Note_on_c, 0, 69, 0
5, 508374, Note_on_c, 0, 76, 0
5, 508440, Note_on_c, 0, 78, 96
5, 508440, Note_on_c, 0, 74, 96
5, 508494, Note_on_c, 0, 74, 0
5, 508494, Note_on_c, 0, 78, 0
5, 508560, Note_on_c, 0, 73, 96
5, 508560, Note_on_c, 0, 76, 96
5, 508560, Note_on_c, 0, 69, 96
5, 508668, Note_on_c, 0, 69, 0
5, 508668, Note_on_c, 0, 76, 0
5, 508668, Note_on_c, 0, 73, 0
5, 508800, Note_on_c, 0, 69, 96
5, 508800, Note_on_c, 0, 78, 96
5, 508800, Note_on_c, 0, 74, 96
5, 508908, Note_on_c, 0, 74, 0
5, 508908, Note_on_c, 0, 78, 0
5, 508908, Note_on_c, 0, 69, 0
5, 509366, Control_c, 0, 64, 0
5, 509520, Note_on_c, 0, 69, 91
5, 509574, Note_on_c, 0, 69, 0
5, 509640, Note_on_c, 0, 74, 92
5, 509694, Note_on_c, 0, 74, 0
5, 509760, Control_c, 0, 64, 127
5, 509760, Note_on_c, 0, 69, 94
5, 509760, Note_on_c, 0, 76, 94
5, 509814, Note_on_c, 0, 76, 0
5, 509814, Note_on_c, 0, 69, 0
5, 509880, Note_on_c, 0, 74, 95
5, 509880, Note_on_c, 0, 78, 95
5, 509934, Note_on_c, 0, 78, 0
5, 509934, Note_on_c, 0, 74, 0
5, 510000, Note_on_c, 0, 69, 96
5, 510000, Note_on_c, 0, 76, 96
5, 510054, Note_on_c, 0, 76, 0
5, 510054, Note_on_c, 0, 69, 0
5, 510120, Note_on_c, 0, 74, 96
5, 510120, Note_on_c, 0, 78, 96
5, 510174, Note_on_c, 0, 78, 0
5, 510174, Note_on_c, 0, 74, 0
5, 510240, Note_on_c, 0, 69, 96
5, 510240, Note_on_c, 0, 76, 96
5, 510294, Note_on_c, 0, 76, 0
5, 510294, Note_on_c, 0, 69, 0
5, 510360, Note_on_c, 0, 74, 96
5, 510360, Note_on_c, 0, 78, 96
5, 510414, Note_on_c, 0, 78, 0
5, 510414, Note_on_c, 0, 74, 0
5, 510480, Note_on_c, 0, 76, 96
5, 510480, Note_on_c, 0, 73, 96
5, 510480, Note_on_c, 0, 69, 96
5, 510588, Note_on_c, 0, 69, 0
5, 510588, Note_on_c, 0, 73, 0
5, 510588, Note_on_c, 0, 76, 0
5, 510600, Control_c, 0, 64, 0
5, 510720, Control_c, 0, 64, 127
5, 510720, Note_on_c, 0, 69, 96
5, 510720, Note_on_c, 0, 74, 96
5, 510720, Note_on_c, 0, 78, 96
5, 510828, Note_on_c, 0, 78, 0
5, 510828, Note_on_c, 0, 74, 0
5, 510828, Note_on_c, 0, 69, 0
5, 510960, Note_on_c, 0, 73, 96
5, 510960, Note_on_c, 0, 69, 96
5, 510960, Note_on_c, 0, 64, 96
5, 511068, Note_on_c, 0, 64, 0
5, 511068, Note_on_c, 0, 69, 0
5, 511068, Note_on_c, 0, 73, 0
5, 511200, Note_on_c, 0, 69, 96
5, 511200, Note_on_c, 0, 74, 96
5, 511200, Note_on_c, 0, 66, 96
5, 511308, Note_on_c, 0, 66, 0
5, 511308, Note_on_c, 0, 74, 0
5, 511308, Note_on_c, 0, 69, 0
5, 511440, Note_on_c, 0, 64, 96
5, 511440, Note_on_c, 0, 69, 96
5, 511440, Note_on_c, 0, 73, 96
5, 511548, Note_on_c, 0, 73, 0
5, 511548, Note_on_c, 0, 69, 0
5, 511548, Note_on_c, 0, 64, 0
5, 511680, Note_on_c, 0, 66, 96
5, 511680, Note_on_c, 0, 69, 96
5, 511680, Note_on_c, 0, 74, 96
5, 511788, Note_on_c, 0, 74, 0
5, 511788, Note_on_c, 0, 69, 0
5, 511788, Note_on_c, 0, 66, 0
5, 511920, Note_on_c, 0, 73, 96
5, 511920, Note_on_c, 0, 69, 96
5, 511920, Note_on_c, 0, 64, 96
5, 512028, Note_on_c, 0, 64, 0
5, 512028, Note_on_c, 0, 69, 0
5, 512028, Note_on_c, 0, 73, 0
5, 512160, Note_on_c, 0, 66, 96
5, 512160, Note_on_c, 0, 69, 96
5, 512160, Note_on_c, 0, 74, 96
5, 512268, Note_on_c, 0, 74, 0
5, 512268, Note_on_c, 0, 69, 0
5, 512268, Note_on_c, 0, 66, 0
5, 512400, Note_on_c, 0, 76, 96
5, 512400, Note_on_c, 0, 73, 96
5, 512400, Note_on_c, 0, 69, 96
5, 512444, Control_c, 0, 64, 0
5, 512508, Note_on_c, 0, 69, 0
5, 512508, Note_on_c, 0, 73, 0
5, 512508, Note_on_c, 0, 76, 0
5, 512640, Note_on_c, 0, 69, 96
5, 512640, Note_on_c, 0, 78, 96
5, 512640, Note_on_c, 0, 74, 96
5, 512700, Note_on_c, 0, 74, 0
5, 512700, Note_on_c, 0, 78, 0
5, 512700, Note_on_c, 0, 69, 0
5, 513120, Note_on_c, 0, 81, 96
5, 513120, Note_on_c, 0, 69, 96
5, 513120, Note_on_c, 0, 73, 96
5, 513120, Note_on_c, 0, 76, 96
5, 513174, Note_on_c, 0, 76, 0
5, 513174, Note_on_c, 0, 81, 0
5, 513174, Note_on_c, 0, 69, 0
5, 513174, Note_on_c, 0, 73, 0
5, 513600, Note_on_c, 0, 69, 96
5, 513600, Note_on_c, 0, 74, 96
5, 513600, Note_on_c, 0, 78, 96
5, 513720, Note_on_c, 0, 78, 0
5, 513720, Note_on_c, 0, 74, 0
5, 513720, Note_on_c, 0, 69, 0
5, 514080, Note_on_c, 0, 81, 96
5, 514080, Note_on_c, 0, 69, 96
5, 514080, Note_on_c, 0, 73, 96
5, 514080, Note_on_c, 0, 76, 96
5, 514134, Note_on_c, 0, 76, 0
5, 514134, Note_on_c, 0, 81, 0
5, 514134, Note_on_c, 0, 69, 0
5, 514134, Note_on_c, 0, 73, 0
5, 514560, Control_c, 0, 64, 127
5, 514560, Note_on_c, 0, 69, 96
5, 514560, Note_on_c, 0, 66, 96
5, 514560, Note_on_c, 0, 74, 96
5, 515424, Note_on_c, 0, 74, 0
5, 515424, Note_on_c, 0, 66, 0
5, 515424, Note_on_c, 0, 69, 0
5, 515520, Control_c, 0, 64, 0
5, 515520, End_track
6, 0, Start_track
6, 0, Title_t, "Track 5"
6, 0, Program_c, 0, 0
6, 0, Control_c, 0, 7, 115
6, 0, Control_c, 0, 10, 96
6, 120, Note_on_c, 0, 55, 72
6, 228, Note_on_c, 0, 55, 0
6, 240, Note_on_c, 0, 53, 72
6, 348, Note_on_c, 0, 53, 0
6, 360, Note_on_c, 0, 52, 72
6, 432, Control_c, 0, 64, 127
6, 468, Note_on_c, 0, 52, 0
6, 480, Note_on_c, 0, 53, 72
6, 588, Note_on_c, 0, 53, 0
6, 600, Note_on_c, 0, 57, 71
6, 708, Note_on_c, 0, 57, 0
6, 720, Note_on_c, 0, 55, 70
6, 828, Note_on_c, 0, 55, 0
6, 840, Note_on_c, 0, 52, 70
6, 948, Note_on_c, 0, 52, 0
6, 960, Note_on_c, 0, 50, 69
6, 1008, Control_c, 0, 64, 0
6, 1068, Note_on_c, 0, 50, 0
6, 1080, Note_on_c, 0, 53, 69
6, 1188, Note_on_c, 0, 53, 0
6, 1200, Note_on_c, 0, 52, 68
6, 1308, Note_on_c, 0, 52, 0
6, 1320, Note_on_c, 0, 48, 68
6, 1428, Note_on_c, 0, 48, 0
6, 1440, Note_on_c, 0, 46, 68
6, 1548, Note_on_c, 0, 46, 0
6, 1560, Note_on_c, 0, 50, 67
6, 1668, Note_on_c, 0, 50, 0
6, 1680, Note_on_c, 0, 45, 67
6, 1788, Note_on_c, 0, 45, 0
6, 1800, Note_on_c, 0, 50, 66
6, 1908, Note_on_c, 0, 50, 0
6, 1920, Control_c, 0, 64, 127
6, 2040, Note_on_c, 0, 50, 72
6, 2148, Note_on_c, 0, 50, 0
6, 2280, Note_on_c, 0, 50, 72
6, 2388, Note_on_c, 0, 50, 0
6, 2520, Note_on_c, 0, 57, 72
6, 2628, Note_on_c, 0, 57, 0
6, 2640, Note_on_c, 0, 58, 72
6, 2748, Note_on_c, 0, 58, 0
6, 2760, Note_on_c, 0, 57, 74
6, 2868, Note_on_c, 0, 57, 0
6, 2880, Control_c, 0, 64, 0
6, 2880, Control_c, 0, 64, 127
6, 3000, Note_on_c, 0, 53, 74
6, 3108, Note_on_c, 0, 53, 0
6, 3240, Note_on_c, 0, 50, 74
6, 3348, Note_on_c, 0, 50, 0
6, 3480, Note_on_c, 0, 57, 72
6, 3588, Note_on_c, 0, 57, 0
6, 3600, Note_on_c, 0, 55, 72
6, 3708, Note_on_c, 0, 55, 0
6, 3720, Note_on_c, 0, 52, 72
6, 3828, Note_on_c, 0, 52, 0
6, 3840, Control_c, 0, 64, 0
6, 3840, Note_on_c, 0, 50, 72
6, 3948, Note_on_c, 0, 50, 0
6, 3960, Note_on_c, 0, 48, 71
6, 4068, Note_on_c, 0, 48, 0
6, 4080, Note_on_c, 0, 46, 71
6, 4188, Note_on_c, 0, 46, 0
6, 4200, Note_on_c, 0, 45, 70
6, 4308, Note_on_c, 0, 45, 0
6, 4320, Note_on_c, 0, 46, 70
6, 4428, Note_on_c, 0, 46, 0
6, 4440, Note_on_c, 0, 50, 69
6, 4548, Note_on_c, 0, 50, 0
6, 4560, Note_on_c, 0, 48, 69
6, 4668, Note_on_c, 0, 48, 0
6, 4680, Note_on_c, 0, 45, 68
6, 4788, Note_on_c, 0, 45, 0
6, 4800, Note_on_c, 0, 43, 68
6, 4908, Note_on_c, 0, 43, 0
6, 4920, Note_on_c, 0, 46, 68
6, 5028, Note_on_c, 0, 46, 0
6, 5040, Note_on_c, 0, 45, 68
6, 5148, Note_on_c, 0, 45, 0
6, 5160, Note_on_c, 0, 41, 67
6, 5268, Note_on_c, 0, 41, 0
6, 5400, Note_on_c, 0, 51, 72
6, 5508, Note_on_c, 0, 51, 0
6, 5640, Note_on_c, 0, 50, 72
6, 5748, Note_on_c, 0, 50, 0
6, 5880, Note_on_c, 0, 52, 72
6, 5988, Note_on_c, 0, 52, 0
6, 6120, Note_on_c, 0, 53, 68
6, 6228, Note_on_c, 0, 53, 0
6, 6360, Note_on_c, 0, 55, 65
6, 6400, Control_c, 0, 64, 127
6, 6468, Note_on_c, 0, 55, 0
6, 6600, Note_on_c, 0, 57, 64
6, 6708, Note_on_c, 0, 57, 0
6, 6840, Note_on_c, 0, 58, 60
6, 6948, Note_on_c, 0, 58, 0
6, 7080, Note_on_c, 0, 59, 57
6, 7188, Note_on_c, 0, 59, 0
6, 7270, Control_c, 0, 64, 0
6, 7320, Note_on_c, 0, 61, 72
6, 7428, Note_on_c, 0, 61, 0
6, 7440, Note_on_c, 0, 57, 73
6, 7512, Note_on_c, 0, 57, 0
6, 7520, Note_on_c, 0, 61, 75
6, 7592, Note_on_c, 0, 61, 0
6, 7600, Note_on_c, 0, 64, 76
6, 7672, Note_on_c, 0, 64, 0
6, 7680, Note_on_c, 0, 69, 76
6, 7788, Note_on_c, 0, 69, 0
6, 7800, Note_on_c, 0, 67, 76
6, 7908, Note_on_c, 0, 67, 0
6, 7920, Note_on_c, 0, 65, 76
6, 8028, Note_on_c, 0, 65, 0
6, 8040, Note_on_c, 0, 64, 76
6, 8148, Note_on_c, 0, 64, 0
6, 8160, Note_on_c, 0, 65, 75
6, 8268, Note_on_c, 0, 65, 0
6, 8280, Note_on_c, 0, 69, 74
6, 8388, Note_on_c, 0, 69, 0
6, 8400, Note_on_c, 0, 67, 74
6, 8508, Note_on_c, 0, 67, 0
6, 8520, Note_on_c, 0, 64, 73
6, 8628, Note_on_c, 0, 64, 0
6, 8640, Note_on_c, 0, 62, 73
6, 8748, Note_on_c, 0, 62, 0
6, 8760, Note_on_c, 0, 65, 72
6, 8868, Note_on_c, 0, 65, 0
6, 8880, Note_on_c, 0, 64, 72
6, 8988, Note_on_c, 0, 64, 0
6, 9000, Note_on_c, 0, 60, 72
6, 9108, Note_on_c, 0, 60, 0
6, 9120, Note_on_c, 0, 58, 71
6, 9228, Note_on_c, 0, 58, 0
6, 9240, Note_on_c, 0, 62, 70
6, 9348, Note_on_c, 0, 62, 0
6, 9360, Note_on_c, 0, 57, 70
6, 9468, Note_on_c, 0, 57, 0
6, 9480, Note_on_c, 0, 62, 69
6, 9588, Note_on_c, 0, 62, 0
6, 9600, Control_c, 0, 64, 127
6, 9600, Note_on_c, 0, 55, 69
6, 9708, Note_on_c, 0, 55, 0
6, 9720, Note_on_c, 0, 62, 70
6, 9828, Note_on_c, 0, 62, 0
6, 9840, Note_on_c, 0, 53, 71
6, 9948, Note_on_c, 0, 53, 0
6, 9960, Note_on_c, 0, 62, 72
6, 10068, Note_on_c, 0, 62, 0
6, 10080, Note_on_c, 0, 57, 72
6, 10188, Note_on_c, 0, 57, 0
6, 10200, Note_on_c, 0, 69, 73
6, 10308, Note_on_c, 0, 69, 0
6, 10320, Note_on_c, 0, 70, 74
6, 10428, Note_on_c, 0, 70, 0
6, 10430, Control_c, 0, 64, 0
6, 10440, Note_on_c, 0, 69, 75
6, 10548, Note_on_c, 0, 69, 0
6, 10560, Control_c, 0, 64, 127
6, 10560, Note_on_c, 0, 57, 76
6, 10668, Note_on_c, 0, 57, 0
6, 10680, Note_on_c, 0, 69, 72
6, 10788, Note_on_c, 0, 69, 0
6, 10800, Note_on_c, 0, 57, 72
6, 10908, Note_on_c, 0, 57, 0
6, 10920, Note_on_c, 0, 69, 72
6, 11028, Note_on_c, 0, 69, 0
6, 11040, Note_on_c, 0, 57, 64
6, 11148, Note_on_c, 0, 57, 0
6, 11160, Note_on_c, 0, 69, 66
6, 11268, Note_on_c, 0, 69, 0
6, 11280, Note_on_c, 0, 67, 68
6, 11388, Note_on_c, 0, 67, 0
6, 11400, Note_on_c, 0, 64, 71
6, 11508, Note_on_c, 0, 64, 0
6, 11520, Control_c, 0, 64, 0
6, 11520, Note_on_c, 0, 62, 73
6, 11616, Control_c, 0, 64, 127
6, 11628, Note_on_c, 0, 62, 0
6, 11640, Note_on_c, 0, 60, 72
6, 11748, Note_on_c, 0, 60, 0
6, 11760, Note_on_c, 0, 58, 72
6, 11868, Note_on_c, 0, 58, 0
6, 11880, Note_on_c, 0, 57, 72
6, 11988, Note_on_c, 0, 57, 0
6, 12000, Note_on_c, 0, 58, 72
6, 12108, Note_on_c, 0, 58, 0
6, 12120, Note_on_c, 0, 62, 72
6, 12228, Note_on_c, 0, 62, 0
6, 12240, Note_on_c, 0, 60, 72
6, 12348, Note_on_c, 0, 60, 0
6, 12360, Note_on_c, 0, 57, 72
6, 12468, Note_on_c, 0, 57, 0
6, 12480, Control_c, 0, 64, 0
6, 12480, Note_on_c, 0, 55, 90
6, 12588, Note_on_c, 0, 55, 0
6, 12600, Note_on_c, 0, 58, 90
6, 12708, Note_on_c, 0, 58, 0
6, 12720, Note_on_c, 0, 57, 90
6, 12828, Note_on_c, 0, 57, 0
6, 12840, Note_on_c, 0, 53, 90
6, 12948, Note_on_c, 0, 53, 0
6, 12960, Note_on_c, 0, 55, 90
6, 13068, Note_on_c, 0, 55, 0
6, 13080, Note_on_c, 0, 51, 90
6, 13188, Note_on_c, 0, 51, 0
6, 13200, Note_on_c, 0, 53, 90
6, 13308, Note_on_c, 0, 53, 0
6, 13320, Note_on_c, 0, 50, 90
6, 13428, Note_on_c, 0, 50, 0
6, 13440, Note_on_c, 0, 52, 90
6, 13548, Note_on_c, 0, 52, 0
6, 13560, Note_on_c, 0, 49, 90
6, 13668, Note_on_c, 0, 49, 0
6, 13680, Note_on_c, 0, 53, 90
6, 13788, Note_on_c, 0, 53, 0
6, 13800, Note_on_c, 0, 50, 90
6, 13908, Note_on_c, 0, 50, 0
6, 13920, Note_on_c, 0, 55, 90
6, 14028, Note_on_c, 0, 55, 0
6, 14040, Note_on_c, 0, 52, 90
6, 14148, Note_on_c, 0, 52, 0
6, 14160, Note_on_c, 0, 57, 90
6, 14268, Note_on_c, 0, 57, 0
6, 14280, Note_on_c, 0, 53, 90
6, 14388, Note_on_c, 0, 53, 0
6, 14400, Note_on_c, 0, 58, 90
6, 14508, Note_on_c, 0, 58, 0
6, 14520, Note_on_c, 0, 55, 90
6, 14628, Note_on_c, 0, 55, 0
6, 14640, Note_on_c, 0, 59, 90
6, 14748, Note_on_c, 0, 59, 0
6, 14760, Note_on_c, 0, 56, 90
6, 14868, Note_on_c, 0, 56, 0
6, 14880, Note_on_c, 0, 61, 90
6, 14988, Note_on_c, 0, 61, 0
6, 15000, Note_on_c, 0, 57, 90
6, 15108, Note_on_c, 0, 57, 0
6, 15480, Note_on_c, 0, 57, 80
6, 15588, Note_on_c, 0, 57, 0
6, 15720, Note_on_c, 0, 57, 76
6, 15828, Note_on_c, 0, 57, 0
6, 15960, Note_on_c, 0, 57, 76
6, 16068, Note_on_c, 0, 57, 0
6, 16200, Note_on_c, 0, 57, 72
6, 16308, Note_on_c, 0, 57, 0
6, 16440, Note_on_c, 0, 57, 68
6, 16548, Note_on_c, 0, 57, 0
6, 16680, Note_on_c, 0, 57, 64
6, 16788, Note_on_c, 0, 57, 0
6, 16920, Note_on_c, 0, 64, 80
6, 17028, Note_on_c, 0, 64, 0
6, 17160, Note_on_c, 0, 64, 76
6, 17268, Note_on_c, 0, 64, 0
6, 17400, Note_on_c, 0, 64, 72
6, 17508, Note_on_c, 0, 64, 0
6, 17640, Note_on_c, 0, 64, 68
6, 17748, Note_on_c, 0, 64, 0
6, 17880, Note_on_c, 0, 64, 67
6, 17988, Note_on_c, 0, 64, 0
6, 18120, Note_on_c, 0, 64, 64
6, 18228, Note_on_c, 0, 64, 0
6, 18360, Note_on_c, 0, 64, 60
6, 18468, Note_on_c, 0, 64, 0
6, 18600, Note_on_c, 0, 64, 60
6, 18708, Note_on_c, 0, 64, 0
6, 18840, Note_on_c, 0, 64, 57
6, 18948, Note_on_c, 0, 64, 0
6, 19080, Note_on_c, 0, 67, 55
6, 19188, Note_on_c, 0, 67, 0
6, 19320, Note_on_c, 0, 68, 51
6, 19428, Note_on_c, 0, 68, 0
6, 19560, Note_on_c, 0, 68, 51
6, 19668, Note_on_c, 0, 68, 0
6, 19800, Note_on_c, 0, 68, 47
6, 19908, Note_on_c, 0, 68, 0
6, 20040, Note_on_c, 0, 68, 45
6, 20148, Note_on_c, 0, 68, 0
6, 20280, Note_on_c, 0, 68, 45
6, 20388, Note_on_c, 0, 68, 0
6, 20520, Note_on_c, 0, 68, 43
6, 20628, Note_on_c, 0, 68, 0
6, 20760, Note_on_c, 0, 68, 39
6, 20868, Note_on_c, 0, 68, 0
6, 21000, Note_on_c, 0, 68, 38
6, 21108, Note_on_c, 0, 68, 0
6, 21168, Control_c, 0, 64, 127
6, 21240, Note_on_c, 0, 68, 38
6, 21348, Note_on_c, 0, 68, 0
6, 21480, Note_on_c, 0, 68, 36
6, 21636, Control_c, 0, 64, 0
6, 21708, Note_on_c, 0, 68, 0
6, 21720, Note_on_c, 0, 61, 41
6, 21828, Note_on_c, 0, 61, 0
6, 21840, Note_on_c, 0, 64, 41
6, 21948, Note_on_c, 0, 64, 0
6, 21960, Note_on_c, 0, 61, 39
6, 22068, Note_on_c, 0, 61, 0
6, 22080, Control_c, 0, 64, 127
6, 22080, Note_on_c, 0, 56, 98
6, 22188, Note_on_c, 0, 56, 0
6, 22200, Note_on_c, 0, 49, 97
6, 22308, Note_on_c, 0, 49, 0
6, 22320, Note_on_c, 0, 52, 97
6, 22428, Note_on_c, 0, 52, 0
6, 22440, Note_on_c, 0, 49, 97
6, 22548, Note_on_c, 0, 49, 0
6, 22560, Note_on_c, 0, 52, 97
6, 22668, Note_on_c, 0, 52, 0
6, 22680, Note_on_c, 0, 44, 96
6, 22728, Control_c, 0, 64, 0
6, 22788, Note_on_c, 0, 44, 0
6, 22800, Note_on_c, 0, 49, 96
6, 22908, Note_on_c, 0, 49, 0
6, 22920, Note_on_c, 0, 45, 96
6, 23028, Note_on_c, 0, 45, 0
6, 23040, Control_c, 0, 64, 127
6, 23040, Note_on_c, 0, 49, 96
6, 23148, Note_on_c, 0, 49, 0
6, 23160, Note_on_c, 0, 44, 95
6, 23268, Note_on_c, 0, 44, 0
6, 23280, Note_on_c, 0, 49, 95
6, 23388, Note_on_c, 0, 49, 0
6, 23400, Note_on_c, 0, 43, 95
6, 23508, Note_on_c, 0, 43, 0
6, 23520, Note_on_c, 0, 49, 95
6, 23628, Note_on_c, 0, 49, 0
6, 23640, Note_on_c, 0, 44, 94
6, 23748, Note_on_c, 0, 44, 0
6, 23760, Note_on_c, 0, 49, 94
6, 23868, Note_on_c, 0, 49, 0
6, 23880, Note_on_c, 0, 45, 94
6, 23910, Control_c, 0, 64, 0
6, 23988, Note_on_c, 0, 45, 0
6, 24000, Control_c, 0, 64, 127
6, 24000, Note_on_c, 0, 49, 94
6, 24108, Note_on_c, 0, 49, 0
6, 24120, Note_on_c, 0, 44, 94
6, 24228, Note_on_c, 0, 44, 0
6, 24240, Note_on_c, 0, 49, 93
6, 24348, Note_on_c, 0, 49, 0
6, 24360, Note_on_c, 0, 43, 93
6, 24468, Note_on_c, 0, 43, 0
6, 24480, Note_on_c, 0, 49, 93
6, 24588, Note_on_c, 0, 49, 0
6, 24600, Note_on_c, 0, 44, 93
6, 24708, Note_on_c, 0, 44, 0
6, 24720, Note_on_c, 0, 49, 92
6, 24828, Note_on_c, 0, 49, 0
6, 24840, Control_c, 0, 64, 0
6, 24840, Note_on_c, 0, 45, 92
6, 24948, Note_on_c, 0, 45, 0
6, 24960, Control_c, 0, 64, 127
6, 24960, Note_on_c, 0, 49, 92
6, 25068, Note_on_c, 0, 49, 0
6, 25080, Note_on_c, 0, 44, 92
6, 25188, Note_on_c, 0, 44, 0
6, 25200, Note_on_c, 0, 49, 91
6, 25308, Note_on_c, 0, 49, 0
6, 25320, Note_on_c, 0, 43, 91
6, 25428, Note_on_c, 0, 43, 0
6, 25440, Note_on_c, 0, 49, 91
6, 25548, Note_on_c, 0, 49, 0
6, 25560, Note_on_c, 0, 44, 91
6, 25668, Note_on_c, 0, 44, 0
6, 25680, Note_on_c, 0, 49, 90
6, 25785, Control_c, 0, 64, 0
6, 25788, Note_on_c, 0, 49, 0
6, 25800, Note_on_c, 0, 45, 90
6, 25908, Note_on_c, 0, 45, 0
6, 25920, Note_on_c, 0, 49, 92
6, 26028, Note_on_c, 0, 49, 0
6, 26040, Note_on_c, 0, 49, 93
6, 26148, Note_on_c, 0, 49, 0
6, 26160, Note_on_c, 0, 52, 94
6, 26268, Note_on_c, 0, 52, 0
6, 26280, Note_on_c, 0, 52, 95
6, 26388, Note_on_c, 0, 52, 0
6, 26400, Note_on_c, 0, 55, 97
6, 26508, Note_on_c, 0, 55, 0
6, 26520, Note_on_c, 0, 55, 98
6, 26628, Note_on_c, 0, 55, 0
6, 26640, Note_on_c, 0, 61, 99
6, 26748, Note_on_c, 0, 61, 0
6, 26760, Note_on_c, 0, 61, 100
6, 26868, Note_on_c, 0, 61, 0
6, 26880, Note_on_c, 0, 61, 91
6, 26988, Note_on_c, 0, 61, 0
6, 27000, Note_on_c, 0, 61, 92
6, 27108, Note_on_c, 0, 61, 0
6, 27120, Note_on_c, 0, 64, 93
6, 27228, Note_on_c, 0, 64, 0
6, 27240, Note_on_c, 0, 64, 94
6, 27348, Note_on_c, 0, 64, 0
6, 27360, Note_on_c, 0, 67, 95
6, 27468, Note_on_c, 0, 67, 0
6, 27480, Note_on_c, 0, 67, 97
6, 27588, Note_on_c, 0, 67, 0
6, 27600, Note_on_c, 0, 73, 98
6, 27708, Note_on_c, 0, 73, 0
6, 27720, Note_on_c, 0, 73, 99
6, 27828, Note_on_c, 0, 73, 0
6, 27840, Note_on_c, 0, 76, 90
6, 27948, Note_on_c, 0, 76, 0
6, 27960, Note_on_c, 0, 76, 91
6, 28068, Note_on_c, 0, 76, 0
6, 28080, Note_on_c, 0, 79, 92
6, 28188, Note_on_c, 0, 79, 0
6, 28200, Note_on_c, 0, 79, 93
6, 28308, Note_on_c, 0, 79, 0
6, 28320, Note_on_c, 0, 85, 94
6, 28428, Note_on_c, 0, 85, 0
6, 28440, Note_on_c, 0, 85, 95
6, 28548, Note_on_c, 0, 85, 0
6, 28560, Note_on_c, 0, 88, 96
6, 28668, Note_on_c, 0, 88, 0
6, 28680, Note_on_c, 0, 88, 98
6, 28788, Note_on_c, 0, 88, 0
6, 28800, Note_on_c, 0, 79, 101
6, 28820, Control_c, 0, 64, 127
6, 28872, Note_on_c, 0, 79, 0
6, 28880, Note_on_c, 0, 77, 100
6, 28952, Note_on_c, 0, 77, 0
6, 28960, Note_on_c, 0, 76, 98
6, 29032, Note_on_c, 0, 76, 0
6, 29040, Note_on_c, 0, 74, 97
6, 29112, Note_on_c, 0, 74, 0
6, 29120, Note_on_c, 0, 73, 95
6, 29192, Note_on_c, 0, 73, 0
6, 29200, Note_on_c, 0, 71, 94
6, 29272, Note_on_c, 0, 71, 0
6, 29280, Note_on_c, 0, 69, 92
6, 29352, Note_on_c, 0, 69, 0
6, 29360, Note_on_c, 0, 67, 91
6, 29432, Note_on_c, 0, 67, 0
6, 29440, Note_on_c, 0, 65, 89
6, 29512, Note_on_c, 0, 65, 0
6, 29520, Note_on_c, 0, 64, 88
6, 29592, Note_on_c, 0, 64, 0
6, 29600, Note_on_c, 0, 62, 86
6, 29672, Note_on_c, 0, 62, 0
6, 29680, Note_on_c, 0, 61, 85
6, 29752, Note_on_c, 0, 61, 0
6, 29760, Note_on_c, 0, 59, 83
6, 29814, Note_on_c, 0, 59, 0
6, 29820, Note_on_c, 0, 57, 82
6, 29874, Note_on_c, 0, 57, 0
6, 29880, Note_on_c, 0, 55, 81
6, 29934, Note_on_c, 0, 55, 0
6, 29940, Note_on_c, 0, 53, 80
6, 29994, Note_on_c, 0, 53, 0
6, 30000, Note_on_c, 0, 52, 78
6, 30054, Note_on_c, 0, 52, 0
6, 30060, Note_on_c, 0, 50, 77
6, 30114, Note_on_c, 0, 50, 0
6, 30120, Note_on_c, 0, 49, 76
6, 30174, Note_on_c, 0, 49, 0
6, 30180, Note_on_c, 0, 47, 75
6, 30234, Note_on_c, 0, 47, 0
6, 30240, Note_on_c, 0, 45, 74
6, 30348, Note_on_c, 0, 45, 0
6, 30360, Note_on_c, 0, 43, 72
6, 30414, Note_on_c, 0, 43, 0
6, 30420, Note_on_c, 0, 41, 70
6, 30474, Note_on_c, 0, 41, 0
6, 30480, Note_on_c, 0, 40, 69
6, 30490, Control_c, 0, 64, 0
6, 30534, Note_on_c, 0, 40, 0
6, 30540, Note_on_c, 0, 38, 68
6, 30594, Note_on_c, 0, 38, 0
6, 30600, Note_on_c, 0, 37, 67
6, 30654, Note_on_c, 0, 37, 0
6, 30660, Note_on_c, 0, 35, 66
6, 30714, Note_on_c, 0, 35, 0
6, 30720, Control_c, 0, 64, 127
6, 31680, Control_c, 0, 64, 0
6, 109680, Note_on_c, 0, 57, 40
6, 109680, Note_on_c, 0, 53, 40
6, 109740, Note_on_c, 0, 53, 0
6, 109740, Note_on_c, 0, 57, 0
6, 110160, Note_on_c, 0, 55, 40
6, 110160, Note_on_c, 0, 52, 40
6, 110214, Note_on_c, 0, 52, 0
6, 110214, Note_on_c, 0, 55, 0
6, 110640, Note_on_c, 0, 57, 40
6, 110640, Note_on_c, 0, 53, 40
6, 110700, Note_on_c, 0, 53, 0
6, 110700, Note_on_c, 0, 57, 0
6, 111120, Note_on_c, 0, 55, 40
6, 111120, Note_on_c, 0, 52, 40
6, 111174, Note_on_c, 0, 52, 0
6, 111174, Note_on_c, 0, 55, 0
6, 111600, Note_on_c, 0, 55, 40
6, 111600, Note_on_c, 0, 50, 40
6, 111660, Note_on_c, 0, 50, 0
6, 111660, Note_on_c, 0, 55, 0
6, 112080, Note_on_c, 0, 53, 40
6, 112080, Note_on_c, 0, 50, 40
6, 112134, Note_on_c, 0, 50, 0
6, 112134, Note_on_c, 0, 53, 0
6, 112560, Note_on_c, 0, 53, 40
6, 112560, Note_on_c, 0, 48, 40
6, 112679, Note_on_c, 0, 48, 0
6, 112679, Note_on_c, 0, 53, 0
6, 113040, Note_on_c, 0, 52, 40
6, 113040, Note_on_c, 0, 48, 40
6, 113094, Note_on_c, 0, 48, 0
6, 113094, Note_on_c, 0, 52, 0
6, 113280, Control_c, 0, 64, 127
6, 113280, Note_on_c, 0, 46, 44
6, 113359, Note_on_c, 0, 46, 0
6, 113360, Note_on_c, 0, 52, 44
6, 113439, Note_on_c, 0, 52, 0
6, 113440, Note_on_c, 0, 46, 45
6, 113519, Note_on_c, 0, 46, 0
6, 113520, Note_on_c, 0, 52, 46
6, 113599, Note_on_c, 0, 52, 0
6, 113600, Note_on_c, 0, 46, 46
6, 113679, Note_on_c, 0, 46, 0
6, 113680, Note_on_c, 0, 52, 47
6, 113759, Note_on_c, 0, 52, 0
6, 113760, Note_on_c, 0, 46, 48
6, 113839, Note_on_c, 0, 46, 0
6, 113840, Note_on_c, 0, 52, 48
6, 113919, Note_on_c, 0, 52, 0
6, 113920, Note_on_c, 0, 46, 48
6, 113999, Note_on_c, 0, 46, 0
6, 114000, Note_on_c, 0, 52, 49
6, 114079, Note_on_c, 0, 52, 0
6, 114080, Note_on_c, 0, 46, 49
6, 114159, Note_on_c, 0, 46, 0
6, 114160, Note_on_c, 0, 52, 50
6, 114232, Note_on_c, 0, 52, 0
6, 114240, Note_on_c, 0, 45, 40
6, 114319, Note_on_c, 0, 45, 0
6, 114320, Note_on_c, 0, 52, 42
6, 114399, Note_on_c, 0, 52, 0
6, 114400, Note_on_c, 0, 45, 43
6, 114479, Note_on_c, 0, 45, 0
6, 114480, Note_on_c, 0, 52, 45
6, 114559, Note_on_c, 0, 52, 0
6, 114560, Note_on_c, 0, 45, 46
6, 114639, Note_on_c, 0, 45, 0
6, 114640, Note_on_c, 0, 52, 47
6, 114719, Note_on_c, 0, 52, 0
6, 114720, Note_on_c, 0, 45, 49
6, 114799, Note_on_c, 0, 45, 0
6, 114800, Note_on_c, 0, 52, 50
6, 114879, Note_on_c, 0, 52, 0
6, 114880, Note_on_c, 0, 45, 52
6, 114959, Note_on_c, 0, 45, 0
6, 114960, Note_on_c, 0, 52, 53
6, 115039, Note_on_c, 0, 52, 0
6, 115040, Note_on_c, 0, 45, 54
6, 115119, Note_on_c, 0, 45, 0
6, 115120, Note_on_c, 0, 52, 56
6, 115192, Note_on_c, 0, 52, 0
6, 115200, Note_on_c, 0, 50, 57
6, 115200, Note_on_c, 0, 45, 57
6, 115279, Note_on_c, 0, 45, 0
6, 115279, Note_on_c, 0, 50, 0
6, 115280, Note_on_c, 0, 57, 59
6, 115359, Note_on_c, 0, 57, 0
6, 115360, Note_on_c, 0, 50, 60
6, 115360, Note_on_c, 0, 45, 60
6, 115439, Note_on_c, 0, 45, 0
6, 115439, Note_on_c, 0, 50, 0
6, 115440, Note_on_c, 0, 57, 61
6, 115519, Note_on_c, 0, 57, 0
6, 115520, Note_on_c, 0, 50, 63
6, 115520, Note_on_c, 0, 45, 63
6, 115599, Note_on_c, 0, 45, 0
6, 115599, Note_on_c, 0, 50, 0
6, 115600, Note_on_c, 0, 57, 64
6, 115679, Note_on_c, 0, 57, 0
6, 115680, Note_on_c, 0, 50, 65
6, 115680, Note_on_c, 0, 45, 65
6, 115759, Note_on_c, 0, 45, 0
6, 115759, Note_on_c, 0, 50, 0
6, 115760, Note_on_c, 0, 57, 67
6, 115839, Note_on_c, 0, 57, 0
6, 115840, Note_on_c, 0, 50, 68
6, 115840, Note_on_c, 0, 45, 68
6, 115919, Note_on_c, 0, 45, 0
6, 115919, Note_on_c, 0, 50, 0
6, 115920, Note_on_c, 0, 57, 70
6, 115999, Note_on_c, 0, 57, 0
6, 116000, Note_on_c, 0, 50, 71
6, 116000, Note_on_c, 0, 45, 71
6, 116079, Note_on_c, 0, 45, 0
6, 116079, Note_on_c, 0, 50, 0
6, 116080, Note_on_c, 0, 57, 72
6, 116152, Note_on_c, 0, 57, 0
6, 116160, Note_on_c, 0, 50, 74
6, 116160, Note_on_c, 0, 45, 74
6, 116239, Note_on_c, 0, 45, 0
6, 116239, Note_on_c, 0, 50, 0
6, 116240, Note_on_c, 0, 57, 75
6, 116319, Note_on_c, 0, 57, 0
6, 116320, Note_on_c, 0, 50, 77
6, 116320, Note_on_c, 0, 45, 77
6, 116399, Note_on_c, 0, 45, 0
6, 116399, Note_on_c, 0, 50, 0
6, 116400, Note_on_c, 0, 57, 78
6, 116479, Note_on_c, 0, 57, 0
6, 116480, Note_on_c, 0, 50, 79
6, 116480, Note_on_c, 0, 45, 79
6, 116559, Note_on_c, 0, 45, 0
6, 116559, Note_on_c, 0, 50, 0
6, 116560, Note_on_c, 0, 57, 81
6, 116639, Note_on_c, 0, 57, 0
6, 116640, Note_on_c, 0, 50, 82
6, 116640, Note_on_c, 0, 45, 82
6, 116719, Note_on_c, 0, 45, 0
6, 116719, Note_on_c, 0, 50, 0
6, 116720, Note_on_c, 0, 57, 84
6, 116799, Note_on_c, 0, 57, 0
6, 116800, Note_on_c, 0, 50, 85
6, 116800, Note_on_c, 0, 45, 85
6, 116879, Note_on_c, 0, 45, 0
6, 116879, Note_on_c, 0, 50, 0
6, 116880, Note_on_c, 0, 57, 86
6, 116959, Note_on_c, 0, 57, 0
6, 116960, Note_on_c, 0, 50, 88
6, 116960, Note_on_c, 0, 45, 88
6, 117039, Note_on_c, 0, 45, 0
6, 117039, Note_on_c, 0, 50, 0
6, 117040, Note_on_c, 0, 57, 89
6, 117112, Note_on_c, 0, 57, 0
6, 117120, Note_on_c, 0, 57, 90
6, 117120, Note_on_c, 0, 48, 90
6, 117199, Note_on_c, 0, 48, 0
6, 117199, Note_on_c, 0, 57, 0
6, 117200, Note_on_c, 0, 60, 89
6, 117279, Note_on_c, 0, 60, 0
6, 117280, Note_on_c, 0, 57, 89
6, 117280, Note_on_c, 0, 48, 89
6, 117359, Note_on_c, 0, 48, 0
6, 117359, Note_on_c, 0, 57, 0
6, 117360, Note_on_c, 0, 60, 89
6, 117439, Note_on_c, 0, 60, 0
6, 117440, Note_on_c, 0, 57, 89
6, 117440, Note_on_c, 0, 48, 89
6, 117519, Note_on_c, 0, 48, 0
6, 117519, Note_on_c, 0, 57, 0
6, 117520, Note_on_c, 0, 60, 89
6, 117599, Note_on_c, 0, 60, 0
6, 117600, Note_on_c, 0, 57, 89
6, 117600, Note_on_c, 0, 48, 89
6, 117679, Note_on_c, 0, 48, 0
6, 117679, Note_on_c, 0, 57, 0
6, 117680, Note_on_c, 0, 60, 89
6, 117759, Note_on_c, 0, 60, 0
6, 117760, Note_on_c, 0, 57, 89
6, 117760, Note_on_c, 0, 48, 89
6, 117839, Note_on_c, 0, 48, 0
6, 117839, Note_on_c, 0, 57, 0
6, 117840, Note_on_c, 0, 60, 89
6, 117919, Note_on_c, 0, 60, 0
6, 117920, Note_on_c, 0, 57, 89
6, 117920, Note_on_c, 0, 48, 89
6, 117999, Note_on_c, 0, 48, 0
6, 117999, Note_on_c, 0, 57, 0
6, 118000, Note_on_c, 0, 60, 89
6, 118072, Note_on_c, 0, 60, 0
6, 118080, Note_on_c, 0, 57, 89
6, 118080, Note_on_c, 0, 52, 89
6, 118159, Note_on_c, 0, 52, 0
6, 118159, Note_on_c, 0, 57, 0
6, 118160, Note_on_c, 0, 58, 89
6, 118239, Note_on_c, 0, 58, 0
6, 118240, Note_on_c, 0, 57, 89
6, 118240, Note_on_c, 0, 52, 89
6, 118319, Note_on_c, 0, 52, 0
6, 118319, Note_on_c, 0, 57, 0
6, 118320, Note_on_c, 0, 58, 89
6, 118399, Note_on_c, 0, 58, 0
6, 118400, Note_on_c, 0, 57, 89
6, 118400, Note_on_c, 0, 52, 89
6, 118479, Note_on_c, 0, 52, 0
6, 118479, Note_on_c, 0, 57, 0
6, 118480, Note_on_c, 0, 58, 89
6, 118559, Note_on_c, 0, 58, 0
6, 118560, Note_on_c, 0, 56, 89
6, 118560, Note_on_c, 0, 52, 89
6, 118639, Note_on_c, 0, 52, 0
6, 118639, Note_on_c, 0, 56, 0
6, 118640, Note_on_c, 0, 58, 89
6, 118719, Note_on_c, 0, 58, 0
6, 118720, Note_on_c, 0, 56, 89
6, 118720, Note_on_c, 0, 52, 89
6, 118799, Note_on_c, 0, 52, 0
6, 118799, Note_on_c, 0, 56, 0
6, 118800, Note_on_c, 0, 58, 89
6, 118879, Note_on_c, 0, 58, 0
6, 118880, Note_on_c, 0, 56, 89
6, 118880, Note_on_c, 0, 52, 89
6, 118959, Note_on_c, 0, 52, 0
6, 118959, Note_on_c, 0, 56, 0
6, 118960, Note_on_c, 0, 58, 89
6, 119032, Note_on_c, 0, 58, 0
6, 119040, Control_c, 0, 64, 0
6, 119040, Note_on_c, 0, 61, 89
6, 119040, Note_on_c, 0, 57, 89
6, 119040, Note_on_c, 0, 52, 89
6, 119100, Control_c, 0, 64, 127
6, 119279, Note_on_c, 0, 52, 0
6, 119279, Note_on_c, 0, 57, 0
6, 119279, Note_on_c, 0, 61, 0
6, 119520, Note_on_c, 0, 62, 96
6, 119520, Note_on_c, 0, 57, 96
6, 119520, Note_on_c, 0, 53, 96
6, 119628, Note_on_c, 0, 53, 0
6, 119628, Note_on_c, 0, 57, 0
6, 119628, Note_on_c, 0, 62, 0
6, 120000, Note_on_c, 0, 61, 97
6, 120000, Note_on_c, 0, 57, 97
6, 120000, Note_on_c, 0, 52, 97
6, 120239, Note_on_c, 0, 52, 0
6, 120239, Note_on_c, 0, 57, 0
6, 120239, Note_on_c, 0, 61, 0
6, 120480, Note_on_c, 0, 62, 97
6, 120480, Note_on_c, 0, 57, 97
6, 120480, Note_on_c, 0, 53, 97
6, 120588, Note_on_c, 0, 53, 0
6, 120588, Note_on_c, 0, 57, 0
6, 120588, Note_on_c, 0, 62, 0
6, 120960, Note_on_c, 0, 57, 94
6, 120960, Note_on_c, 0, 52, 94
6, 121065, Control_c, 0, 64, 0
6, 121103, Control_c, 0, 64, 127
6, 121199, Note_on_c, 0, 52, 0
6, 121199, Note_on_c, 0, 57, 0
6, 121200, Note_on_c, 0, 57, 96
6, 121279, Note_on_c, 0, 57, 0
6, 121280, Note_on_c, 0, 56, 94
6, 121359, Note_on_c, 0, 56, 0
6, 121360, Note_on_c, 0, 55, 93
6, 121439, Note_on_c, 0, 55, 0
6, 121440, Note_on_c, 0, 54, 92
6, 121519, Note_on_c, 0, 54, 0
6, 121520, Note_on_c, 0, 53, 90
6, 121599, Note_on_c, 0, 53, 0
6, 121600, Note_on_c, 0, 52, 89
6, 121679, Note_on_c, 0, 52, 0
6, 121680, Note_on_c, 0, 51, 88
6, 121759, Note_on_c, 0, 51, 0
6, 121760, Note_on_c, 0, 50, 86
6, 121839, Note_on_c, 0, 50, 0
6, 121840, Note_on_c, 0, 49, 85
6, 121912, Note_on_c, 0, 49, 0
6, 121920, Note_on_c, 0, 48, 84
6, 121999, Note_on_c, 0, 48, 0
6, 122000, Note_on_c, 0, 47, 82
6, 122079, Note_on_c, 0, 47, 0
6, 122080, Note_on_c, 0, 46, 81
6, 122159, Note_on_c, 0, 46, 0
6, 122160, Note_on_c, 0, 45, 80
6, 122239, Note_on_c, 0, 45, 0
6, 122240, Note_on_c, 0, 45, 78
6, 122319, Note_on_c, 0, 45, 0
6, 122320, Note_on_c, 0, 44, 77
6, 122399, Note_on_c, 0, 44, 0
6, 122400, Note_on_c, 0, 45, 76
6, 122479, Note_on_c, 0, 45, 0
6, 122480, Note_on_c, 0, 44, 74
6, 122559, Note_on_c, 0, 44, 0
6, 122560, Note_on_c, 0, 45, 73
6, 122639, Note_on_c, 0, 45, 0
6, 122640, Note_on_c, 0, 44, 72
6, 122719, Note_on_c, 0, 44, 0
6, 122720, Note_on_c, 0, 45, 70
6, 122799, Note_on_c, 0, 45, 0
6, 122800, Note_on_c, 0, 44, 69
6, 122872, Note_on_c, 0, 44, 0
6, 122880, Note_on_c, 0, 45, 89
6, 122880, Note_on_c, 0, 49, 89
6, 123744, Note_on_c, 0, 49, 0
6, 123744, Note_on_c, 0, 45, 0
6, 123840, Note_on_c, 0, 47, 51
6, 123840, Note_on_c, 0, 50, 51
6, 124704, Note_on_c, 0, 50, 0
6, 124704, Note_on_c, 0, 47, 0
6, 124800, Note_on_c, 0, 49, 51
6, 124800, Note_on_c, 0, 52, 51
6, 125664, Note_on_c, 0, 52, 0
6, 125664, Note_on_c, 0, 49, 0
6, 125760, Note_on_c, 0, 50, 51
6, 125760, Note_on_c, 0, 53, 51
6, 126624, Note_on_c, 0, 53, 0
6, 126624, Note_on_c, 0, 50, 0
6, 126720, Note_on_c, 0, 45, 51
6, 127152, Note_on_c, 0, 45, 0
6, 127440, Control_c, 0, 64, 0
6, 132480, Control_c, 0, 64, 127
6, 132480, Note_on_c, 0, 55, 64
6, 132959, Note_on_c, 0, 55, 0
6, 132960, Note_on_c, 0, 52, 64
6, 133392, Note_on_c, 0, 52, 0
6, 133440, Note_on_c, 0, 49, 64
6, 133919, Note_on_c, 0, 49, 0
6, 133920, Note_on_c, 0, 46, 64
6, 134352, Note_on_c, 0, 46, 0
6, 134400, Note_on_c, 0, 45, 64
6, 138090, Control_c, 0, 64, 0
6, 138144, Note_on_c, 0, 45, 0
6, 138360, Note_on_c, 0, 55, 95
6, 138479, Note_on_c, 0, 55, 0
6, 138480, Note_on_c, 0, 53, 93
6, 138599, Note_on_c, 0, 53, 0
6, 138600, Note_on_c, 0, 52, 91
6, 138719, Note_on_c, 0, 52, 0
6, 138720, Note_on_c, 0, 53, 89
6, 138839, Note_on_c, 0, 53, 0
6, 138840, Note_on_c, 0, 57, 88
6, 138959, Note_on_c, 0, 57, 0
6, 138960, Note_on_c, 0, 55, 86
6, 139079, Note_on_c, 0, 55, 0
6, 139080, Note_on_c, 0, 52, 84
6, 139188, Note_on_c, 0, 52, 0
6, 139200, Note_on_c, 0, 50, 82
6, 139308, Note_on_c, 0, 50, 0
6, 139320, Note_on_c, 0, 53, 76
6, 139428, Note_on_c, 0, 53, 0
6, 139440, Note_on_c, 0, 52, 76
6, 139548, Note_on_c, 0, 52, 0
6, 139560, Note_on_c, 0, 48, 76
6, 139668, Note_on_c, 0, 48, 0
6, 139680, Note_on_c, 0, 46, 76
6, 139788, Note_on_c, 0, 46, 0
6, 139800, Note_on_c, 0, 50, 76
6, 139908, Note_on_c, 0, 50, 0
6, 139920, Note_on_c, 0, 45, 76
6, 140028, Note_on_c, 0, 45, 0
6, 140040, Note_on_c, 0, 50, 76
6, 140148, Note_on_c, 0, 50, 0
6, 140280, Note_on_c, 0, 50, 76
6, 140388, Note_on_c, 0, 50, 0
6, 140520, Note_on_c, 0, 50, 76
6, 140628, Note_on_c, 0, 50, 0
6, 140760, Note_on_c, 0, 57, 76
6, 140868, Note_on_c, 0, 57, 0
6, 140880, Note_on_c, 0, 58, 76
6, 140988, Note_on_c, 0, 58, 0
6, 141000, Note_on_c, 0, 57, 76
6, 141108, Note_on_c, 0, 57, 0
6, 141240, Note_on_c, 0, 53, 76
6, 141348, Note_on_c, 0, 53, 0
6, 141480, Note_on_c, 0, 50, 76
6, 141588, Note_on_c, 0, 50, 0
6, 141720, Note_on_c, 0, 57, 76
6, 141828, Note_on_c, 0, 57, 0
6, 141840, Note_on_c, 0, 55, 76
6, 141948, Note_on_c, 0, 55, 0
6, 141960, Note_on_c, 0, 52, 76
6, 142068, Note_on_c, 0, 52, 0
6, 142080, Note_on_c, 0, 50, 76
6, 142188, Note_on_c, 0, 50, 0
6, 142200, Note_on_c, 0, 48, 76
6, 142308, Note_on_c, 0, 48, 0
6, 142320, Note_on_c, 0, 46, 76
6, 142428, Note_on_c, 0, 46, 0
6, 142440, Note_on_c, 0, 45, 76
6, 142548, Note_on_c, 0, 45, 0
6, 142560, Note_on_c, 0, 46, 76
6, 142668, Note_on_c, 0, 46, 0
6, 142680, Note_on_c, 0, 50, 76
6, 142788, Note_on_c, 0, 50, 0
6, 142800, Note_on_c, 0, 48, 76
6, 142908, Note_on_c, 0, 48, 0
6, 142920, Note_on_c, 0, 45, 76
6, 143028, Note_on_c, 0, 45, 0
6, 143040, Note_on_c, 0, 43, 76
6, 143148, Note_on_c, 0, 43, 0
6, 143160, Note_on_c, 0, 46, 76
6, 143268, Note_on_c, 0, 46, 0
6, 143280, Note_on_c, 0, 45, 76
6, 143388, Note_on_c, 0, 45, 0
6, 143400, Note_on_c, 0, 41, 76
6, 143508, Note_on_c, 0, 41, 0
6, 143640, Note_on_c, 0, 51, 76
6, 143748, Note_on_c, 0, 51, 0
6, 143880, Note_on_c, 0, 50, 76
6, 143988, Note_on_c, 0, 50, 0
6, 144120, Note_on_c, 0, 52, 76
6, 144228, Note_on_c, 0, 52, 0
6, 144360, Note_on_c, 0, 53, 76
6, 144468, Note_on_c, 0, 53, 0
6, 144600, Note_on_c, 0, 55, 76
6, 144708, Note_on_c, 0, 55, 0
6, 144840, Note_on_c, 0, 57, 76
6, 144948, Note_on_c, 0, 57, 0
6, 145080, Note_on_c, 0, 58, 76
6, 145188, Note_on_c, 0, 58, 0
6, 145320, Note_on_c, 0, 59, 76
6, 145428, Note_on_c, 0, 59, 0
6, 145560, Note_on_c, 0, 61, 64
6, 145668, Note_on_c, 0, 61, 0
6, 146040, Note_on_c, 0, 57, 64
6, 146148, Note_on_c, 0, 57, 0
6, 146280, Note_on_c, 0, 57, 64
6, 146388, Note_on_c, 0, 57, 0
6, 146520, Note_on_c, 0, 57, 64
6, 146628, Note_on_c, 0, 57, 0
6, 146760, Note_on_c, 0, 57, 64
6, 146868, Note_on_c, 0, 57, 0
6, 147000, Note_on_c, 0, 57, 64
6, 147108, Note_on_c, 0, 57, 0
6, 147240, Note_on_c, 0, 57, 64
6, 147348, Note_on_c, 0, 57, 0
6, 147480, Note_on_c, 0, 64, 83
6, 147588, Note_on_c, 0, 64, 0
6, 147720, Note_on_c, 0, 64, 81
6, 147828, Note_on_c, 0, 64, 0
6, 147960, Note_on_c, 0, 64, 78
6, 148068, Note_on_c, 0, 64, 0
6, 148200, Note_on_c, 0, 64, 76
6, 148308, Note_on_c, 0, 64, 0
6, 148440, Note_on_c, 0, 64, 73
6, 148548, Note_on_c, 0, 64, 0
6, 148680, Note_on_c, 0, 64, 71
6, 148788, Note_on_c, 0, 64, 0
6, 148920, Note_on_c, 0, 64, 68
6, 149028, Note_on_c, 0, 64, 0
6, 149160, Note_on_c, 0, 64, 66
6, 149268, Note_on_c, 0, 64, 0
6, 149400, Note_on_c, 0, 64, 65
6, 149508, Note_on_c, 0, 64, 0
6, 149640, Note_on_c, 0, 67, 63
6, 149748, Note_on_c, 0, 67, 0
6, 149880, Note_on_c, 0, 68, 61
6, 149988, Note_on_c, 0, 68, 0
6, 150120, Note_on_c, 0, 68, 60
6, 150228, Note_on_c, 0, 68, 0
6, 150360, Note_on_c, 0, 68, 59
6, 150468, Note_on_c, 0, 68, 0
6, 150600, Note_on_c, 0, 68, 58
6, 150708, Note_on_c, 0, 68, 0
6, 150765, Control_c, 0, 64, 127
6, 150840, Note_on_c, 0, 68, 54
6, 150948, Note_on_c, 0, 68, 0
6, 151080, Note_on_c, 0, 68, 52
6, 151188, Note_on_c, 0, 68, 0
6, 151320, Note_on_c, 0, 68, 48
6, 151428, Note_on_c, 0, 68, 0
6, 151560, Note_on_c, 0, 68, 46
6, 151668, Note_on_c, 0, 68, 0
6, 151800, Note_on_c, 0, 68, 43
6, 151908, Note_on_c, 0, 68, 0
6, 152040, Note_on_c, 0, 68, 52
6, 152268, Note_on_c, 0, 68, 0
6, 152280, Note_on_c, 0, 61, 56
6, 152388, Note_on_c, 0, 61, 0
6, 152400, Note_on_c, 0, 64, 56
6, 152508, Note_on_c, 0, 64, 0
6, 152520, Note_on_c, 0, 61, 56
6, 152628, Note_on_c, 0, 61, 0
6, 152640, Note_on_c, 0, 64, 71
6, 152748, Note_on_c, 0, 64, 0
6, 152760, Note_on_c, 0, 56, 73
6, 152868, Note_on_c, 0, 56, 0
6, 152880, Note_on_c, 0, 61, 74
6, 152988, Note_on_c, 0, 61, 0
6, 153000, Note_on_c, 0, 56, 75
6, 153108, Note_on_c, 0, 56, 0
6, 153120, Note_on_c, 0, 61, 78
6, 153228, Note_on_c, 0, 61, 0
6, 153240, Note_on_c, 0, 52, 79
6, 153348, Note_on_c, 0, 52, 0
6, 153360, Note_on_c, 0, 56, 80
6, 153468, Note_on_c, 0, 56, 0
6, 153480, Note_on_c, 0, 52, 81
6, 153570, Control_c, 0, 64, 0
6, 153588, Note_on_c, 0, 52, 0
6, 153600, Note_on_c, 0, 56, 81
6, 153624, Control_c, 0, 64, 127
6, 153708, Note_on_c, 0, 56, 0
6, 153720, Note_on_c, 0, 49, 86
6, 153828, Note_on_c, 0, 49, 0
6, 153840, Note_on_c, 0, 52, 92
6, 153948, Note_on_c, 0, 52, 0
6, 153960, Note_on_c, 0, 49, 99
6, 154068, Note_on_c, 0, 49, 0
6, 154080, Note_on_c, 0, 52, 104
6, 154188, Note_on_c, 0, 52, 0
6, 154200, Note_on_c, 0, 44, 71
6, 154308, Note_on_c, 0, 44, 0
6, 154320, Note_on_c, 0, 49, 72
6, 154428, Note_on_c, 0, 49, 0
6, 154440, Note_on_c, 0, 45, 73
6, 154548, Note_on_c, 0, 45, 0
6, 154560, Note_on_c, 0, 49, 75
6, 154584, Control_c, 0, 64, 0
6, 154668, Note_on_c, 0, 49, 0
6, 154680, Note_on_c, 0, 44, 78
6, 154788, Note_on_c, 0, 44, 0
6, 154800, Note_on_c, 0, 49, 79
6, 154908, Note_on_c, 0, 49, 0
6, 154920, Note_on_c, 0, 43, 77
6, 155028, Note_on_c, 0, 43, 0
6, 155040, Note_on_c, 0, 49, 82
6, 155148, Note_on_c, 0, 49, 0
6, 155160, Note_on_c, 0, 44, 89
6, 155268, Note_on_c, 0, 44, 0
6, 155280, Note_on_c, 0, 49, 94
6, 155388, Note_on_c, 0, 49, 0
6, 155400, Note_on_c, 0, 45, 101
6, 155508, Note_on_c, 0, 45, 0
6, 155520, Note_on_c, 0, 49, 70
6, 155520, Control_c, 0, 64, 127
6, 155628, Note_on_c, 0, 49, 0
6, 155640, Note_on_c, 0, 44, 71
6, 155748, Note_on_c, 0, 44, 0
6, 155760, Note_on_c, 0, 49, 73
6, 155868, Note_on_c, 0, 49, 0
6, 155880, Note_on_c, 0, 43, 75
6, 155988, Note_on_c, 0, 43, 0
6, 156000, Note_on_c, 0, 49, 78
6, 156108, Note_on_c, 0, 49, 0
6, 156120, Note_on_c, 0, 44, 80
6, 156228, Note_on_c, 0, 44, 0
6, 156240, Note_on_c, 0, 49, 82
6, 156348, Note_on_c, 0, 49, 0
6, 156360, Note_on_c, 0, 45, 84
6, 156468, Note_on_c, 0, 45, 0
6, 156480, Control_c, 0, 64, 0
6, 156480, Note_on_c, 0, 49, 88
6, 156588, Note_on_c, 0, 49, 0
6, 156600, Note_on_c, 0, 49, 90
6, 156708, Note_on_c, 0, 49, 0
6, 156720, Note_on_c, 0, 52, 92
6, 156828, Note_on_c, 0, 52, 0
6, 156840, Note_on_c, 0, 52, 94
6, 156948, Note_on_c, 0, 52, 0
6, 156960, Note_on_c, 0, 55, 96
6, 157068, Note_on_c, 0, 55, 0
6, 157080, Note_on_c, 0, 55, 99
6, 157188, Note_on_c, 0, 55, 0
6, 157200, Note_on_c, 0, 61, 101
6, 157308, Note_on_c, 0, 61, 0
6, 157320, Note_on_c, 0, 61, 103
6, 157428, Note_on_c, 0, 61, 0
6, 157440, Note_on_c, 0, 64, 70
6, 157440, Control_c, 0, 64, 127
6, 157548, Note_on_c, 0, 64, 0
6, 157560, Note_on_c, 0, 64, 70
6, 157668, Note_on_c, 0, 64, 0
6, 157680, Note_on_c, 0, 67, 70
6, 157788, Note_on_c, 0, 67, 0
6, 157800, Note_on_c, 0, 67, 70
6, 157908, Note_on_c, 0, 67, 0
6, 157920, Note_on_c, 0, 73, 70
6, 158028, Note_on_c, 0, 73, 0
6, 158040, Note_on_c, 0, 73, 70
6, 158148, Note_on_c, 0, 73, 0
6, 158160, Note_on_c, 0, 76, 70
6, 158268, Note_on_c, 0, 76, 0
6, 158280, Note_on_c, 0, 76, 70
6, 158388, Note_on_c, 0, 76, 0
6, 158400, Note_on_c, 0, 79, 76
6, 158472, Note_on_c, 0, 79, 0
6, 158480, Note_on_c, 0, 77, 76
6, 158552, Note_on_c, 0, 77, 0
6, 158560, Note_on_c, 0, 76, 76
6, 158632, Note_on_c, 0, 76, 0
6, 158640, Note_on_c, 0, 74, 76
6, 158712, Note_on_c, 0, 74, 0
6, 158720, Note_on_c, 0, 73, 76
6, 158792, Note_on_c, 0, 73, 0
6, 158800, Note_on_c, 0, 71, 76
6, 158872, Note_on_c, 0, 71, 0
6, 158880, Note_on_c, 0, 69, 76
6, 158952, Note_on_c, 0, 69, 0
6, 158960, Note_on_c, 0, 67, 76
6, 159032, Note_on_c, 0, 67, 0
6, 159040, Note_on_c, 0, 65, 76
6, 159112, Note_on_c, 0, 65, 0
6, 159120, Note_on_c, 0, 64, 76
6, 159192, Note_on_c, 0, 64, 0
6, 159200, Note_on_c, 0, 62, 76
6, 159272, Note_on_c, 0, 62, 0
6, 159280, Note_on_c, 0, 61, 76
6, 159352, Note_on_c, 0, 61, 0
6, 159360, Control_c, 0, 64, 0
6, 159360, Control_c, 0, 64, 127
6, 159360, Note_on_c, 0, 58, 76
6, 159432, Note_on_c, 0, 58, 0
6, 159440, Note_on_c, 0, 57, 76
6, 159512, Note_on_c, 0, 57, 0
6, 159520, Note_on_c, 0, 55, 76
6, 159592, Note_on_c, 0, 55, 0
6, 159600, Note_on_c, 0, 53, 76
6, 159672, Note_on_c, 0, 53, 0
6, 159680, Note_on_c, 0, 52, 76
6, 159752, Note_on_c, 0, 52, 0
6, 159760, Note_on_c, 0, 50, 76
6, 159814, Note_on_c, 0, 50, 0
6, 159820, Note_on_c, 0, 49, 76
6, 159874, Note_on_c, 0, 49, 0
6, 159880, Note_on_c, 0, 46, 98
6, 159900, Control_c, 0, 64, 0
6, 159934, Note_on_c, 0, 46, 0
6, 159940, Note_on_c, 0, 57, 96
6, 159994, Note_on_c, 0, 57, 0
6, 160000, Note_on_c, 0, 55, 93
6, 160054, Note_on_c, 0, 55, 0
6, 160060, Note_on_c, 0, 53, 91
6, 160114, Note_on_c, 0, 53, 0
6, 160120, Note_on_c, 0, 52, 88
6, 160174, Note_on_c, 0, 52, 0
6, 160180, Note_on_c, 0, 50, 86
6, 160234, Note_on_c, 0, 50, 0
6, 160240, Note_on_c, 0, 49, 84
6, 160294, Note_on_c, 0, 49, 0
6, 160300, Note_on_c, 0, 47, 81
6, 160320, Note_on_c, 0, 47, 0
6, 160320, Note_on_c, 0, 45, 76
6, 160428, Note_on_c, 0, 45, 0
6, 160440, Note_on_c, 0, 55, 76
6, 160548, Note_on_c, 0, 55, 0
6, 160560, Note_on_c, 0, 53, 76
6, 160668, Note_on_c, 0, 53, 0
6, 160680, Note_on_c, 0, 52, 76
6, 160788, Note_on_c, 0, 52, 0
6, 160800, Note_on_c, 0, 53, 76
6, 160908, Note_on_c, 0, 53, 0
6, 160920, Note_on_c, 0, 57, 76
6, 161028, Note_on_c, 0, 57, 0
6, 161040, Note_on_c, 0, 55, 76
6, 161148, Note_on_c, 0, 55, 0
6, 161160, Note_on_c, 0, 52, 76
6, 161268, Note_on_c, 0, 52, 0
6, 161280, Note_on_c, 0, 50, 76
6, 161388, Note_on_c, 0, 50, 0
6, 161400, Note_on_c, 0, 53, 76
6, 161508, Note_on_c, 0, 53, 0
6, 161520, Note_on_c, 0, 52, 76
6, 161628, Note_on_c, 0, 52, 0
6, 161640, Note_on_c, 0, 48, 76
6, 161748, Note_on_c, 0, 48, 0
6, 161760, Note_on_c, 0, 46, 76
6, 161868, Note_on_c, 0, 46, 0
6, 161880, Note_on_c, 0, 50, 76
6, 161988, Note_on_c, 0, 50, 0
6, 162000, Note_on_c, 0, 45, 76
6, 162108, Note_on_c, 0, 45, 0
6, 162120, Note_on_c, 0, 50, 76
6, 162228, Note_on_c, 0, 50, 0
6, 162360, Note_on_c, 0, 55, 76
6, 162360, Note_on_c, 0, 50, 76
6, 162468, Note_on_c, 0, 50, 0
6, 162468, Note_on_c, 0, 55, 0
6, 162600, Note_on_c, 0, 50, 76
6, 162600, Note_on_c, 0, 53, 76
6, 162708, Note_on_c, 0, 53, 0
6, 162708, Note_on_c, 0, 50, 0
6, 162840, Note_on_c, 0, 57, 76
6, 162948, Note_on_c, 0, 57, 0
6, 162960, Note_on_c, 0, 58, 76
6, 163068, Note_on_c, 0, 58, 0
6, 163080, Note_on_c, 0, 57, 76
6, 163188, Note_on_c, 0, 57, 0
6, 163320, Note_on_c, 0, 53, 76
6, 163320, Note_on_c, 0, 57, 76
6, 163428, Note_on_c, 0, 57, 0
6, 163428, Note_on_c, 0, 53, 0
6, 163560, Note_on_c, 0, 50, 76
6, 163560, Note_on_c, 0, 57, 76
6, 163668, Note_on_c, 0, 57, 0
6, 163668, Note_on_c, 0, 50, 0
6, 163800, Note_on_c, 0, 57, 76
6, 163908, Note_on_c, 0, 57, 0
6, 163920, Note_on_c, 0, 55, 76
6, 164028, Note_on_c, 0, 55, 0
6, 164040, Note_on_c, 0, 52, 76
6, 164148, Note_on_c, 0, 52, 0
6, 164160, Note_on_c, 0, 62, 70
6, 164268, Note_on_c, 0, 62, 0
6, 164280, Note_on_c, 0, 60, 70
6, 164388, Note_on_c, 0, 60, 0
6, 164400, Note_on_c, 0, 58, 70
6, 164508, Note_on_c, 0, 58, 0
6, 164520, Note_on_c, 0, 57, 70
6, 164628, Note_on_c, 0, 57, 0
6, 164640, Note_on_c, 0, 58, 70
6, 164748, Note_on_c, 0, 58, 0
6, 164760, Note_on_c, 0, 62, 70
6, 164868, Note_on_c, 0, 62, 0
6, 164880, Note_on_c, 0, 60, 70
6, 164988, Note_on_c, 0, 60, 0
6, 165000, Note_on_c, 0, 57, 70
6, 165108, Note_on_c, 0, 57, 0
6, 165120, Note_on_c, 0, 55, 70
6, 165228, Note_on_c, 0, 55, 0
6, 165240, Note_on_c, 0, 58, 70
6, 165348, Note_on_c, 0, 58, 0
6, 165360, Note_on_c, 0, 57, 70
6, 165468, Note_on_c, 0, 57, 0
6, 165480, Note_on_c, 0, 53, 70
6, 165588, Note_on_c, 0, 53, 0
6, 165600, Note_on_c, 0, 51, 70
6, 165708, Note_on_c, 0, 51, 0
6, 165720, Note_on_c, 0, 55, 70
6, 165828, Note_on_c, 0, 55, 0
6, 165840, Note_on_c, 0, 50, 70
6, 165948, Note_on_c, 0, 50, 0
6, 165960, Note_on_c, 0, 53, 70
6, 166068, Note_on_c, 0, 53, 0
6, 166080, Note_on_c, 0, 52, 70
6, 166188, Note_on_c, 0, 52, 0
6, 166200, Note_on_c, 0, 49, 84
6, 166308, Note_on_c, 0, 49, 0
6, 166320, Note_on_c, 0, 53, 84
6, 166428, Note_on_c, 0, 53, 0
6, 166440, Note_on_c, 0, 50, 84
6, 166548, Note_on_c, 0, 50, 0
6, 166560, Note_on_c, 0, 55, 84
6, 166668, Note_on_c, 0, 55, 0
6, 166680, Note_on_c, 0, 52, 84
6, 166788, Note_on_c, 0, 52, 0
6, 166800, Note_on_c, 0, 57, 84
6, 166908, Note_on_c, 0, 57, 0
6, 166920, Note_on_c, 0, 53, 84
6, 167028, Note_on_c, 0, 53, 0
6, 167040, Note_on_c, 0, 58, 84
6, 167148, Note_on_c, 0, 58, 0
6, 167160, Note_on_c, 0, 55, 84
6, 167268, Note_on_c, 0, 55, 0
6, 167280, Note_on_c, 0, 61, 84
6, 167388, Note_on_c, 0, 61, 0
6, 167400, Note_on_c, 0, 57, 84
6, 167508, Note_on_c, 0, 57, 0
6, 167520, Note_on_c, 0, 62, 84
6, 167628, Note_on_c, 0, 62, 0
6, 167640, Note_on_c, 0, 53, 84
6, 167748, Note_on_c, 0, 53, 0
6, 167760, Note_on_c, 0, 55, 84
6, 167868, Note_on_c, 0, 55, 0
6, 167880, Note_on_c, 0, 53, 84
6, 167988, Note_on_c, 0, 53, 0
6, 168000, Note_on_c, 0, 52, 84
6, 168108, Note_on_c, 0, 52, 0
6, 168120, Note_on_c, 0, 49, 84
6, 168228, Note_on_c, 0, 49, 0
6, 168240, Note_on_c, 0, 53, 84
6, 168348, Note_on_c, 0, 53, 0
6, 168360, Note_on_c, 0, 50, 84
6, 168468, Note_on_c, 0, 50, 0
6, 168480, Note_on_c, 0, 55, 84
6, 168588, Note_on_c, 0, 55, 0
6, 168600, Note_on_c, 0, 52, 84
6, 168708, Note_on_c, 0, 52, 0
6, 168720, Note_on_c, 0, 57, 84
6, 168828, Note_on_c, 0, 57, 0
6, 168840, Note_on_c, 0, 53, 84
6, 168948, Note_on_c, 0, 53, 0
6, 168960, Note_on_c, 0, 58, 100
6, 169068, Note_on_c, 0, 58, 0
6, 169080, Note_on_c, 0, 55, 100
6, 169188, Note_on_c, 0, 55, 0
6, 169200, Note_on_c, 0, 61, 100
6, 169308, Note_on_c, 0, 61, 0
6, 169320, Note_on_c, 0, 57, 100
6, 169428, Note_on_c, 0, 57, 0
6, 169440, Note_on_c, 0, 62, 100
6, 169548, Note_on_c, 0, 62, 0
6, 169560, Note_on_c, 0, 54, 100
6, 169668, Note_on_c, 0, 54, 0
6, 169680, Note_on_c, 0, 50, 100
6, 169788, Note_on_c, 0, 50, 0
6, 169800, Note_on_c, 0, 48, 100
6, 169908, Note_on_c, 0, 48, 0
6, 169920, Note_on_c, 0, 46, 76
6, 170136, Note_on_c, 0, 46, 0
6, 170160, Note_on_c, 0, 50, 74
6, 170376, Note_on_c, 0, 50, 0
6, 170400, Note_on_c, 0, 55, 72
6, 170400, Note_on_c, 0, 43, 72
6, 170616, Note_on_c, 0, 43, 0
6, 170616, Note_on_c, 0, 55, 0
6, 170640, Note_on_c, 0, 58, 70
6, 170640, Note_on_c, 0, 46, 70
6, 170856, Note_on_c, 0, 46, 0
6, 170856, Note_on_c, 0, 58, 0
6, 170880, Note_on_c, 0, 62, 68
6, 170880, Note_on_c, 0, 50, 68
6, 171096, Note_on_c, 0, 50, 0
6, 171096, Note_on_c, 0, 62, 0
6, 171120, Note_on_c, 0, 55, 66
6, 171336, Note_on_c, 0, 55, 0
6, 171360, Note_on_c, 0, 57, 64
6, 171576, Note_on_c, 0, 57, 0
6, 171600, Note_on_c, 0, 45, 63
6, 171816, Note_on_c, 0, 45, 0
6, 171840, Note_on_c, 0, 50, 76
6, 172056, Note_on_c, 0, 50, 0
6, 172320, Note_on_c, 0, 50, 57
6, 173279, Note_on_c, 0, 50, 0
6, 173280, Note_on_c, 0, 53, 52
6, 173712, Note_on_c, 0, 53, 0
6, 175680, Note_on_c, 0, 51, 46
6, 175919, Note_on_c, 0, 51, 0
6, 175920, Note_on_c, 0, 55, 52
6, 176159, Note_on_c, 0, 55, 0
6, 176160, Note_on_c, 0, 58, 57
6, 176399, Note_on_c, 0, 58, 0
6, 176400, Note_on_c, 0, 63, 63
6, 176616, Note_on_c, 0, 63, 0
6, 176640, Note_on_c, 0, 63, 68
6, 177119, Note_on_c, 0, 63, 0
6, 177120, Note_on_c, 0, 62, 68
6, 177359, Note_on_c, 0, 62, 0
6, 177360, Note_on_c, 0, 60, 60
6, 177576, Note_on_c, 0, 60, 0
6, 177600, Note_on_c, 0, 60, 51
6, 178079, Note_on_c, 0, 60, 0
6, 178080, Note_on_c, 0, 58, 60
6, 178512, Note_on_c, 0, 58, 0
6, 178560, Note_on_c, 0, 55, 44
6, 178560, Note_on_c, 0, 58, 44
6, 179424, Note_on_c, 0, 58, 0
6, 179424, Note_on_c, 0, 55, 0
6, 179520, Note_on_c, 0, 60, 37
6, 180384, Note_on_c, 0, 60, 0
6, 180480, Note_on_c, 0, 53, 68
6, 180480, Control_c, 0, 64, 127
6, 180719, Note_on_c, 0, 53, 0
6, 180720, Note_on_c, 0, 57, 65
6, 180959, Note_on_c, 0, 57, 0
6, 180960, Note_on_c, 0, 60, 59
6, 181199, Note_on_c, 0, 60, 0
6, 181200, Note_on_c, 0, 63, 53
6, 181308, Note_on_c, 0, 63, 0
6, 181440, Note_on_c, 0, 50, 47
6, 181440, Control_c, 0, 64, 0
6, 181679, Note_on_c, 0, 50, 0
6, 181680, Note_on_c, 0, 53, 51
6, 181919, Note_on_c, 0, 53, 0
6, 181920, Note_on_c, 0, 58, 53
6, 182159, Note_on_c, 0, 58, 0
6, 182160, Note_on_c, 0, 62, 56
6, 182268, Note_on_c, 0, 62, 0
6, 182400, Note_on_c, 0, 48, 47
6, 182639, Note_on_c, 0, 48, 0
6, 182640, Note_on_c, 0, 53, 52
6, 182879, Note_on_c, 0, 53, 0
6, 182880, Note_on_c, 0, 56, 57
6, 183119, Note_on_c, 0, 56, 0
6, 183120, Note_on_c, 0, 59, 58
6, 183228, Note_on_c, 0, 59, 0
6, 183360, Note_on_c, 0, 46, 44
6, 183468, Note_on_c, 0, 46, 0
6, 183600, Note_on_c, 0, 51, 46
6, 183708, Note_on_c, 0, 51, 0
6, 183840, Note_on_c, 0, 54, 49
6, 183948, Note_on_c, 0, 54, 0
6, 184080, Note_on_c, 0, 58, 52
6, 184188, Note_on_c, 0, 58, 0
6, 184320, Note_on_c, 0, 48, 52
6, 184428, Note_on_c, 0, 48, 0
6, 184560, Note_on_c, 0, 53, 59
6, 184668, Note_on_c, 0, 53, 0
6, 184800, Note_on_c, 0, 57, 65
6, 184908, Note_on_c, 0, 57, 0
6, 185280, Note_on_c, 0, 50, 49
6, 185388, Note_on_c, 0, 50, 0
6, 185520, Note_on_c, 0, 55, 56
6, 185628, Note_on_c, 0, 55, 0
6, 185760, Note_on_c, 0, 58, 63
6, 185868, Note_on_c, 0, 58, 0
6, 186240, Note_on_c, 0, 52, 47
6, 186348, Note_on_c, 0, 52, 0
6, 186480, Note_on_c, 0, 55, 54
6, 186588, Note_on_c, 0, 55, 0
6, 186720, Note_on_c, 0, 58, 61
6, 186828, Note_on_c, 0, 58, 0
6, 187200, Note_on_c, 0, 48, 45
6, 187308, Note_on_c, 0, 48, 0
6, 187440, Note_on_c, 0, 55, 48
6, 187548, Note_on_c, 0, 55, 0
6, 187680, Note_on_c, 0, 58, 49
6, 187788, Note_on_c, 0, 58, 0
6, 187920, Note_on_c, 0, 48, 51
6, 187920, Note_on_c, 0, 58, 51
6, 188028, Note_on_c, 0, 58, 0
6, 188028, Note_on_c, 0, 48, 0
6, 188160, Control_c, 0, 64, 127
6, 188160, Note_on_c, 0, 53, 68
6, 188160, Note_on_c, 0, 57, 68
6, 188376, Note_on_c, 0, 57, 0
6, 188376, Note_on_c, 0, 53, 0
6, 189120, Control_c, 0, 64, 0
6, 189120, Control_c, 0, 64, 127
6, 189360, Note_on_c, 0, 57, 48
6, 189576, Note_on_c, 0, 57, 0
6, 189600, Note_on_c, 0, 60, 49
6, 189816, Note_on_c, 0, 60, 0
6, 189840, Note_on_c, 0, 64, 50
6, 190056, Note_on_c, 0, 64, 0
6, 190080, Note_on_c, 0, 65, 53
6, 190296, Note_on_c, 0, 65, 0
6, 190320, Note_on_c, 0, 57, 59
6, 190536, Note_on_c, 0, 57, 0
6, 190560, Note_on_c, 0, 58, 64
6, 190776, Note_on_c, 0, 58, 0
6, 190800, Note_on_c, 0, 66, 52
6, 191016, Note_on_c, 0, 66, 0
6, 191040, Note_on_c, 0, 67, 53
6, 191279, Note_on_c, 0, 67, 0
6, 191280, Note_on_c, 0, 59, 50
6, 191519, Note_on_c, 0, 59, 0
6, 191520, Note_on_c, 0, 60, 59
6, 191759, Note_on_c, 0, 60, 0
6, 191760, Note_on_c, 0, 70, 68
6, 192239, Note_on_c, 0, 70, 0
6, 192240, Note_on_c, 0, 69, 62
6, 192479, Note_on_c, 0, 69, 0
6, 192480, Note_on_c, 0, 72, 74
6, 192719, Note_on_c, 0, 72, 0
6, 192720, Note_on_c, 0, 70, 69
6, 192936, Note_on_c, 0, 70, 0
6, 192960, Note_on_c, 0, 69, 64
6, 193199, Note_on_c, 0, 69, 0
6, 193200, Note_on_c, 0, 70, 60
6, 193439, Note_on_c, 0, 70, 0
6, 193440, Note_on_c, 0, 67, 60
6, 193679, Note_on_c, 0, 67, 0
6, 193680, Note_on_c, 0, 63, 60
6, 193896, Note_on_c, 0, 63, 0
6, 193920, Note_on_c, 0, 60, 51
6, 194159, Note_on_c, 0, 60, 0
6, 194160, Note_on_c, 0, 65, 51
6, 194399, Note_on_c, 0, 65, 0
6, 194400, Note_on_c, 0, 58, 51
6, 194639, Note_on_c, 0, 58, 0
6, 194640, Note_on_c, 0, 65, 51
6, 194856, Note_on_c, 0, 65, 0
6, 194880, Note_on_c, 0, 57, 59
6, 194880, Control_c, 0, 64, 0
6, 195119, Note_on_c, 0, 57, 0
6, 195120, Note_on_c, 0, 65, 62
6, 195599, Note_on_c, 0, 65, 0
6, 195600, Note_on_c, 0, 53, 68
6, 195840, Control_c, 0, 64, 127
6, 196079, Note_on_c, 0, 53, 0
6, 196080, Note_on_c, 0, 52, 51
6, 196319, Note_on_c, 0, 52, 0
6, 196320, Note_on_c, 0, 50, 72
6, 196559, Note_on_c, 0, 50, 0
6, 196560, Note_on_c, 0, 52, 68
6, 196776, Note_on_c, 0, 52, 0
6, 196800, Note_on_c, 0, 53, 62
6, 196800, Control_c, 0, 64, 0
6, 197039, Note_on_c, 0, 53, 0
6, 197040, Note_on_c, 0, 57, 55
6, 197279, Note_on_c, 0, 57, 0
6, 197280, Note_on_c, 0, 60, 48
6, 197519, Note_on_c, 0, 60, 0
6, 197520, Note_on_c, 0, 65, 40
6, 197736, Note_on_c, 0, 65, 0
6, 198000, Note_on_c, 0, 52, 43
6, 198119, Note_on_c, 0, 52, 0
6, 198120, Note_on_c, 0, 53, 43
6, 198479, Note_on_c, 0, 53, 0
6, 198480, Note_on_c, 0, 52, 43
6, 198599, Note_on_c, 0, 52, 0
6, 198600, Note_on_c, 0, 53, 43
6, 198708, Note_on_c, 0, 53, 0
6, 198960, Note_on_c, 0, 52, 43
6, 199079, Note_on_c, 0, 52, 0
6, 199080, Note_on_c, 0, 53, 43
6, 199439, Note_on_c, 0, 53, 0
6, 199440, Note_on_c, 0, 48, 43
6, 199559, Note_on_c, 0, 48, 0
6, 199560, Note_on_c, 0, 49, 43
6, 199668, Note_on_c, 0, 49, 0
6, 199920, Note_on_c, 0, 48, 43
6, 200039, Note_on_c, 0, 48, 0
6, 200040, Note_on_c, 0, 49, 43
6, 200399, Note_on_c, 0, 49, 0
6, 200400, Note_on_c, 0, 45, 43
6, 200519, Note_on_c, 0, 45, 0
6, 200520, Note_on_c, 0, 46, 43
6, 200628, Note_on_c, 0, 46, 0
6, 200880, Note_on_c, 0, 45, 43
6, 200999, Note_on_c, 0, 45, 0
6, 201000, Note_on_c, 0, 46, 38
6, 201359, Note_on_c, 0, 46, 0
6, 201360, Note_on_c, 0, 45, 39
6, 201479, Note_on_c, 0, 45, 0
6, 201480, Note_on_c, 0, 46, 40
6, 201588, Note_on_c, 0, 46, 0
6, 201612, Control_c, 0, 64, 127
6, 201840, Note_on_c, 0, 54, 53
6, 202079, Note_on_c, 0, 54, 0
6, 202080, Note_on_c, 0, 53, 55
6, 202319, Note_on_c, 0, 53, 0
6, 202320, Note_on_c, 0, 65, 56
6, 202536, Note_on_c, 0, 65, 0
6, 202560, Note_on_c, 0, 63, 58
6, 202572, Control_c, 0, 64, 0
6, 202799, Note_on_c, 0, 63, 0
6, 202800, Note_on_c, 0, 66, 59
6, 202800, Note_on_c, 0, 58, 59
6, 203279, Note_on_c, 0, 58, 0
6, 203279, Note_on_c, 0, 66, 0
6, 203280, Note_on_c, 0, 65, 62
6, 203484, Control_c, 0, 64, 127
6, 203496, Note_on_c, 0, 65, 0
6, 203520, Note_on_c, 0, 66, 63
6, 203759, Note_on_c, 0, 66, 0
6, 203760, Note_on_c, 0, 64, 60
6, 203760, Note_on_c, 0, 58, 60
6, 203999, Note_on_c, 0, 58, 0
6, 203999, Note_on_c, 0, 64, 0
6, 204000, Note_on_c, 0, 63, 57
6, 204000, Note_on_c, 0, 59, 57
6, 204239, Note_on_c, 0, 59, 0
6, 204239, Note_on_c, 0, 63, 0
6, 204240, Note_on_c, 0, 66, 55
6, 204444, Control_c, 0, 64, 0
6, 204719, Note_on_c, 0, 66, 0
6, 204720, Note_on_c, 0, 58, 49
6, 204720, Note_on_c, 0, 64, 49
6, 204959, Note_on_c, 0, 64, 0
6, 204959, Note_on_c, 0, 58, 0
6, 204960, Note_on_c, 0, 59, 47
6, 204960, Note_on_c, 0, 63, 47
6, 205176, Note_on_c, 0, 63, 0
6, 205176, Note_on_c, 0, 59, 0
6, 217044, Control_c, 0, 64, 127
6, 217200, Note_on_c, 0, 62, 51
6, 217679, Note_on_c, 0, 62, 0
6, 217680, Note_on_c, 0, 65, 52
6, 218004, Control_c, 0, 64, 0
6, 218159, Note_on_c, 0, 65, 0
6, 218160, Note_on_c, 0, 60, 53
6, 218639, Note_on_c, 0, 60, 0
6, 218640, Note_on_c, 0, 65, 54
6, 218892, Control_c, 0, 64, 127
6, 219119, Note_on_c, 0, 65, 0
6, 219120, Note_on_c, 0, 58, 55
6, 219599, Note_on_c, 0, 58, 0
6, 219600, Note_on_c, 0, 63, 56
6, 219816, Note_on_c, 0, 63, 0
6, 219840, Note_on_c, 0, 62, 57
6, 219852, Control_c, 0, 64, 0
6, 220319, Note_on_c, 0, 62, 0
6, 220320, Note_on_c, 0, 60, 58
6, 220536, Note_on_c, 0, 60, 0
6, 220800, Control_c, 0, 64, 127
6, 221040, Note_on_c, 0, 58, 60
6, 221040, Note_on_c, 0, 62, 60
6, 221519, Note_on_c, 0, 62, 0
6, 221519, Note_on_c, 0, 58, 0
6, 221520, Note_on_c, 0, 62, 74
6, 221520, Note_on_c, 0, 58, 74
6, 221520, Note_on_c, 0, 65, 74
6, 221760, Control_c, 0, 64, 0
6, 221999, Note_on_c, 0, 65, 0
6, 221999, Note_on_c, 0, 58, 0
6, 221999, Note_on_c, 0, 62, 0
6, 222000, Note_on_c, 0, 58, 85
6, 222479, Note_on_c, 0, 58, 0
6, 222480, Note_on_c, 0, 70, 88
6, 222480, Note_on_c, 0, 62, 88
6, 222696, Note_on_c, 0, 62, 0
6, 222696, Note_on_c, 0, 70, 0
6, 222720, Note_on_c, 0, 70, 84
6, 222744, Control_c, 0, 64, 127
6, 222959, Note_on_c, 0, 70, 0
6, 222960, Note_on_c, 0, 67, 80
6, 223439, Note_on_c, 0, 67, 0
6, 223440, Note_on_c, 0, 63, 72
6, 223656, Note_on_c, 0, 63, 0
6, 223680, Note_on_c, 0, 57, 64
6, 223680, Note_on_c, 0, 60, 64
6, 223704, Control_c, 0, 64, 0
6, 224544, Note_on_c, 0, 60, 0
6, 224544, Note_on_c, 0, 57, 0
6, 224640, Note_on_c, 0, 61, 68
6, 224759, Note_on_c, 0, 61, 0
6, 224760, Note_on_c, 0, 62, 67
6, 225119, Note_on_c, 0, 62, 0
6, 225120, Note_on_c, 0, 57, 63
6, 225239, Note_on_c, 0, 57, 0
6, 225240, Note_on_c, 0, 58, 62
6, 225348, Note_on_c, 0, 58, 0
6, 225600, Note_on_c, 0, 57, 59
6, 225719, Note_on_c, 0, 57, 0
6, 225720, Note_on_c, 0, 58, 57
6, 226079, Note_on_c, 0, 58, 0
6, 226080, Note_on_c, 0, 52, 54
6, 226199, Note_on_c, 0, 52, 0
6, 226200, Note_on_c, 0, 53, 53
6, 226308, Note_on_c, 0, 53, 0
6, 226800, Note_on_c, 0, 58, 57
6, 226919, Note_on_c, 0, 58, 0
6, 226920, Note_on_c, 0, 53, 57
6, 227039, Note_on_c, 0, 53, 0
6, 227040, Note_on_c, 0, 57, 56
6, 227159, Note_on_c, 0, 57, 0
6, 227160, Note_on_c, 0, 58, 56
6, 227279, Note_on_c, 0, 58, 0
6, 227280, Note_on_c, 0, 53, 55
6, 227399, Note_on_c, 0, 53, 0
6, 227400, Note_on_c, 0, 50, 55
6, 227508, Note_on_c, 0, 50, 0
6, 227520, Note_on_c, 0, 52, 55
6, 227639, Note_on_c, 0, 52, 0
6, 227640, Note_on_c, 0, 53, 54
6, 227759, Note_on_c, 0, 53, 0
6, 227760, Note_on_c, 0, 50, 53
6, 227879, Note_on_c, 0, 50, 0
6, 227880, Note_on_c, 0, 46, 53
6, 227999, Note_on_c, 0, 46, 0
6, 228000, Note_on_c, 0, 52, 53
6, 228119, Note_on_c, 0, 52, 0
6, 228120, Note_on_c, 0, 53, 52
6, 228239, Note_on_c, 0, 53, 0
6, 228240, Note_on_c, 0, 46, 51
6, 228359, Note_on_c, 0, 46, 0
6, 228360, Note_on_c, 0, 41, 51
6, 228468, Note_on_c, 0, 41, 0
6, 232320, Note_on_c, 0, 44, 64
6, 232428, Note_on_c, 0, 44, 0
6, 232560, Note_on_c, 0, 48, 64
6, 232668, Note_on_c, 0, 48, 0
6, 232800, Note_on_c, 0, 53, 64
6, 232908, Note_on_c, 0, 53, 0
6, 233040, Note_on_c, 0, 56, 64
6, 233148, Note_on_c, 0, 56, 0
6, 233280, Note_on_c, 0, 60, 64
6, 233388, Note_on_c, 0, 60, 0
6, 233520, Note_on_c, 0, 53, 64
6, 233628, Note_on_c, 0, 53, 0
6, 233760, Note_on_c, 0, 52, 64
6, 233868, Note_on_c, 0, 52, 0
6, 234000, Note_on_c, 0, 58, 64
6, 234108, Note_on_c, 0, 58, 0
6, 234240, Note_on_c, 0, 57, 64
6, 234348, Note_on_c, 0, 57, 0
6, 234840, Note_on_c, 0, 54, 64
6, 234894, Note_on_c, 0, 54, 0
6, 234960, Note_on_c, 0, 53, 64
6, 235014, Note_on_c, 0, 53, 0
6, 235080, Note_on_c, 0, 49, 64
6, 235134, Note_on_c, 0, 49, 0
6, 235200, Note_on_c, 0, 48, 64
6, 235254, Note_on_c, 0, 48, 0
6, 235320, Note_on_c, 0, 51, 64
6, 235374, Note_on_c, 0, 51, 0
6, 235440, Note_on_c, 0, 49, 64
6, 235494, Note_on_c, 0, 49, 0
6, 235560, Note_on_c, 0, 46, 64
6, 235614, Note_on_c, 0, 46, 0
6, 235680, Note_on_c, 0, 44, 64
6, 235734, Note_on_c, 0, 44, 0
6, 235800, Note_on_c, 0, 48, 64
6, 235854, Note_on_c, 0, 48, 0
6, 235920, Note_on_c, 0, 46, 64
6, 235974, Note_on_c, 0, 46, 0
6, 236040, Note_on_c, 0, 43, 64
6, 236094, Note_on_c, 0, 43, 0
6, 236160, Note_on_c, 0, 41, 64
6, 236268, Note_on_c, 0, 41, 0
6, 236400, Note_on_c, 0, 45, 64
6, 236508, Note_on_c, 0, 45, 0
6, 236640, Note_on_c, 0, 48, 64
6, 236748, Note_on_c, 0, 48, 0
6, 236880, Note_on_c, 0, 57, 64
6, 236988, Note_on_c, 0, 57, 0
6, 237120, Note_on_c, 0, 58, 64
6, 237228, Note_on_c, 0, 58, 0
6, 239040, Note_on_c, 0, 53, 64
6, 239148, Note_on_c, 0, 53, 0
6, 239280, Note_on_c, 0, 58, 64
6, 239712, Note_on_c, 0, 58, 0
6, 239760, Note_on_c, 0, 60, 64
6, 239814, Note_on_c, 0, 60, 0
6, 239820, Note_on_c, 0, 61, 67
6, 239874, Note_on_c, 0, 61, 0
6, 239880, Note_on_c, 0, 58, 62
6, 239934, Note_on_c, 0, 58, 0
6, 239940, Note_on_c, 0, 60, 57
6, 239994, Note_on_c, 0, 60, 0
6, 240000, Note_on_c, 0, 61, 52
6, 240108, Note_on_c, 0, 61, 0
6, 240240, Note_on_c, 0, 65, 64
6, 240348, Note_on_c, 0, 65, 0
6, 240480, Note_on_c, 0, 67, 85
6, 240804, Note_on_c, 0, 67, 0
6, 240840, Note_on_c, 0, 65, 64
6, 240948, Note_on_c, 0, 65, 0
6, 240960, Note_on_c, 0, 65, 64
6, 241284, Note_on_c, 0, 65, 0
6, 241320, Note_on_c, 0, 64, 64
6, 241428, Note_on_c, 0, 64, 0
6, 241440, Note_on_c, 0, 60, 64
6, 241548, Note_on_c, 0, 60, 0
6, 241680, Note_on_c, 0, 64, 85
6, 241788, Note_on_c, 0, 64, 0
6, 241920, Note_on_c, 0, 65, 64
6, 242028, Note_on_c, 0, 65, 0
6, 242160, Note_on_c, 0, 58, 64
6, 242268, Note_on_c, 0, 58, 0
6, 242400, Note_on_c, 0, 60, 64
6, 242508, Note_on_c, 0, 60, 0
6, 242640, Note_on_c, 0, 53, 64
6, 242748, Note_on_c, 0, 53, 0
6, 242880, Note_on_c, 0, 52, 64
6, 242988, Note_on_c, 0, 52, 0
6, 243120, Note_on_c, 0, 49, 90
6, 243444, Note_on_c, 0, 49, 0
6, 243480, Note_on_c, 0, 48, 64
6, 243534, Note_on_c, 0, 48, 0
6, 243600, Note_on_c, 0, 51, 64
6, 243654, Note_on_c, 0, 51, 0
6, 243720, Note_on_c, 0, 55, 64
6, 243774, Note_on_c, 0, 55, 0
6, 243840, Note_on_c, 0, 48, 57
6, 243948, Note_on_c, 0, 48, 0
6, 244080, Note_on_c, 0, 53, 90
6, 244512, Note_on_c, 0, 53, 0
6, 244560, Note_on_c, 0, 55, 57
6, 244614, Note_on_c, 0, 55, 0
6, 244620, Note_on_c, 0, 56, 57
6, 244674, Note_on_c, 0, 56, 0
6, 244680, Note_on_c, 0, 55, 57
6, 244734, Note_on_c, 0, 55, 0
6, 244740, Note_on_c, 0, 56, 57
6, 244794, Note_on_c, 0, 56, 0
6, 244800, Note_on_c, 0, 56, 57
6, 244908, Note_on_c, 0, 56, 0
6, 245040, Note_on_c, 0, 58, 57
6, 245148, Note_on_c, 0, 58, 0
6, 245280, Note_on_c, 0, 60, 90
6, 245712, Note_on_c, 0, 60, 0
6, 245760, Note_on_c, 0, 45, 54
6, 245868, Note_on_c, 0, 45, 0
6, 246000, Note_on_c, 0, 46, 54
6, 246108, Note_on_c, 0, 46, 0
6, 246240, Note_on_c, 0, 48, 90
6, 246672, Note_on_c, 0, 48, 0
6, 246720, Note_on_c, 0, 45, 62
6, 246828, Note_on_c, 0, 45, 0
6, 246960, Note_on_c, 0, 48, 63
6, 247068, Note_on_c, 0, 48, 0
6, 247200, Note_on_c, 0, 53, 64
6, 247308, Note_on_c, 0, 53, 0
6, 247440, Note_on_c, 0, 57, 64
6, 247548, Note_on_c, 0, 57, 0
6, 247680, Note_on_c, 0, 46, 65
6, 247788, Note_on_c, 0, 46, 0
6, 247920, Note_on_c, 0, 58, 65
6, 248028, Note_on_c, 0, 58, 0
6, 248160, Note_on_c, 0, 48, 66
6, 248268, Note_on_c, 0, 48, 0
6, 248640, Note_on_c, 0, 53, 67
6, 248748, Note_on_c, 0, 53, 0
6, 248880, Note_on_c, 0, 58, 90
6, 249312, Note_on_c, 0, 58, 0
6, 249340, Control_c, 0, 64, 127
6, 249360, Note_on_c, 0, 60, 69
6, 249414, Note_on_c, 0, 60, 0
6, 249420, Note_on_c, 0, 61, 69
6, 249474, Note_on_c, 0, 61, 0
6, 249480, Note_on_c, 0, 58, 69
6, 249534, Note_on_c, 0, 58, 0
6, 249540, Note_on_c, 0, 60, 69
6, 249594, Note_on_c, 0, 60, 0
6, 249600, Note_on_c, 0, 61, 69
6, 249669, Control_c, 0, 64, 0
6, 249708, Note_on_c, 0, 61, 0
6, 249840, Note_on_c, 0, 65, 70
6, 249948, Note_on_c, 0, 65, 0
6, 250080, Note_on_c, 0, 70, 90
6, 250512, Note_on_c, 0, 70, 0
6, 250680, Note_on_c, 0, 70, 72
6, 250734, Note_on_c, 0, 70, 0
6, 250800, Note_on_c, 0, 68, 72
6, 250854, Note_on_c, 0, 68, 0
6, 250920, Note_on_c, 0, 65, 72
6, 250974, Note_on_c, 0, 65, 0
6, 251040, Note_on_c, 0, 63, 73
6, 251094, Note_on_c, 0, 63, 0
6, 251160, Note_on_c, 0, 66, 73
6, 251214, Note_on_c, 0, 66, 0
6, 251280, Note_on_c, 0, 65, 73
6, 251334, Note_on_c, 0, 65, 0
6, 251400, Note_on_c, 0, 61, 74
6, 251454, Note_on_c, 0, 61, 0
6, 251520, Note_on_c, 0, 60, 74
6, 251574, Note_on_c, 0, 60, 0
6, 251640, Note_on_c, 0, 63, 72
6, 251694, Note_on_c, 0, 63, 0
6, 251760, Note_on_c, 0, 61, 70
6, 251814, Note_on_c, 0, 61, 0
6, 251880, Note_on_c, 0, 60, 69
6, 251934, Note_on_c, 0, 60, 0
6, 252000, Note_on_c, 0, 58, 67
6, 252054, Note_on_c, 0, 58, 0
6, 252120, Note_on_c, 0, 57, 66
6, 252174, Note_on_c, 0, 57, 0
6, 252240, Note_on_c, 0, 58, 64
6, 252294, Note_on_c, 0, 58, 0
6, 252360, Note_on_c, 0, 60, 63
6, 252414, Note_on_c, 0, 60, 0
6, 252480, Note_on_c, 0, 58, 51
6, 252588, Note_on_c, 0, 58, 0
6, 253080, Note_on_c, 0, 61, 50
6, 253080, Note_on_c, 0, 65, 50
6, 253134, Note_on_c, 0, 65, 0
6, 253134, Note_on_c, 0, 61, 0
6, 253200, Note_on_c, 0, 60, 50
6, 253200, Note_on_c, 0, 65, 50
6, 253254, Note_on_c, 0, 65, 0
6, 253254, Note_on_c, 0, 60, 0
6, 253320, Note_on_c, 0, 65, 50
6, 253320, Note_on_c, 0, 57, 50
6, 253374, Note_on_c, 0, 57, 0
6, 253374, Note_on_c, 0, 65, 0
6, 253440, Note_on_c, 0, 49, 50
6, 253494, Note_on_c, 0, 49, 0
6, 253560, Note_on_c, 0, 53, 50
6, 253614, Note_on_c, 0, 53, 0
6, 253680, Note_on_c, 0, 58, 49
6, 253734, Note_on_c, 0, 58, 0
6, 253800, Note_on_c, 0, 61, 49
6, 253854, Note_on_c, 0, 61, 0
6, 253920, Note_on_c, 0, 65, 49
6, 253974, Note_on_c, 0, 65, 0
6, 254040, Note_on_c, 0, 58, 49
6, 254094, Note_on_c, 0, 58, 0
6, 254160, Note_on_c, 0, 57, 49
6, 254214, Note_on_c, 0, 57, 0
6, 254280, Note_on_c, 0, 63, 49
6, 254334, Note_on_c, 0, 63, 0
6, 254400, Note_on_c, 0, 62, 49
6, 254508, Note_on_c, 0, 62, 0
6, 255360, Note_on_c, 0, 42, 48
6, 255414, Note_on_c, 0, 42, 0
6, 255480, Note_on_c, 0, 46, 48
6, 255534, Note_on_c, 0, 46, 0
6, 255600, Note_on_c, 0, 51, 48
6, 255654, Note_on_c, 0, 51, 0
6, 255720, Note_on_c, 0, 54, 48
6, 255774, Note_on_c, 0, 54, 0
6, 255840, Note_on_c, 0, 58, 48
6, 255894, Note_on_c, 0, 58, 0
6, 255960, Note_on_c, 0, 54, 48
6, 256014, Note_on_c, 0, 54, 0
6, 256080, Note_on_c, 0, 53, 48
6, 256134, Note_on_c, 0, 53, 0
6, 256200, Note_on_c, 0, 52, 48
6, 256254, Note_on_c, 0, 52, 0
6, 256320, Note_on_c, 0, 53, 48
6, 256428, Note_on_c, 0, 53, 0
6, 256920, Note_on_c, 0, 65, 47
6, 256920, Note_on_c, 0, 60, 47
6, 256920, Note_on_c, 0, 70, 47
6, 256974, Note_on_c, 0, 70, 0
6, 256974, Note_on_c, 0, 60, 0
6, 256974, Note_on_c, 0, 65, 0
6, 257040, Note_on_c, 0, 65, 47
6, 257040, Note_on_c, 0, 70, 47
6, 257040, Note_on_c, 0, 60, 47
6, 257094, Note_on_c, 0, 60, 0
6, 257094, Note_on_c, 0, 70, 0
6, 257094, Note_on_c, 0, 65, 0
6, 257160, Note_on_c, 0, 65, 46
6, 257160, Note_on_c, 0, 70, 46
6, 257160, Note_on_c, 0, 60, 46
6, 257214, Note_on_c, 0, 60, 0
6, 257214, Note_on_c, 0, 70, 0
6, 257214, Note_on_c, 0, 65, 0
6, 257280, Note_on_c, 0, 48, 46
6, 257334, Note_on_c, 0, 48, 0
6, 257400, Note_on_c, 0, 53, 46
6, 257454, Note_on_c, 0, 53, 0
6, 257520, Note_on_c, 0, 57, 46
6, 257574, Note_on_c, 0, 57, 0
6, 257640, Note_on_c, 0, 60, 46
6, 257694, Note_on_c, 0, 60, 0
6, 257760, Note_on_c, 0, 65, 46
6, 257814, Note_on_c, 0, 65, 0
6, 257880, Note_on_c, 0, 65, 46
6, 257880, Note_on_c, 0, 69, 46
6, 257880, Note_on_c, 0, 60, 46
6, 257934, Note_on_c, 0, 60, 0
6, 257934, Note_on_c, 0, 69, 0
6, 257934, Note_on_c, 0, 65, 0
6, 258000, Note_on_c, 0, 65, 46
6, 258000, Note_on_c, 0, 69, 46
6, 258000, Note_on_c, 0, 60, 46
6, 258054, Note_on_c, 0, 60, 0
6, 258054, Note_on_c, 0, 69, 0
6, 258054, Note_on_c, 0, 65, 0
6, 258120, Note_on_c, 0, 60, 46
6, 258120, Note_on_c, 0, 65, 46
6, 258120, Note_on_c, 0, 69, 46
6, 258174, Note_on_c, 0, 69, 0
6, 258174, Note_on_c, 0, 65, 0
6, 258174, Note_on_c, 0, 60, 0
6, 258240, Note_on_c, 0, 68, 46
6, 258240, Note_on_c, 0, 60, 46
6, 258240, Note_on_c, 0, 65, 46
6, 258348, Note_on_c, 0, 65, 0
6, 258348, Note_on_c, 0, 60, 0
6, 258348, Note_on_c, 0, 68, 0
6, 258840, Note_on_c, 0, 65, 44
6, 258840, Note_on_c, 0, 60, 44
6, 258840, Note_on_c, 0, 68, 44
6, 258948, Note_on_c, 0, 68, 0
6, 258948, Note_on_c, 0, 60, 0
6, 258948, Note_on_c, 0, 65, 0
6, 258960, Note_on_c, 0, 65, 44
6, 258960, Note_on_c, 0, 68, 44
6, 258960, Note_on_c, 0, 60, 44
6, 259068, Note_on_c, 0, 60, 0
6, 259068, Note_on_c, 0, 68, 0
6, 259068, Note_on_c, 0, 65, 0
6, 259080, Note_on_c, 0, 68, 44
6, 259080, Note_on_c, 0, 65, 44
6, 259080, Note_on_c, 0, 60, 44
6, 259188, Note_on_c, 0, 60, 0
6, 259188, Note_on_c, 0, 65, 0
6, 259188, Note_on_c, 0, 68, 0
6, 259200, Note_on_c, 0, 67, 44
6, 259200, Note_on_c, 0, 60, 44
6, 259200, Note_on_c, 0, 65, 44
6, 259416, Note_on_c, 0, 65, 0
6, 259416, Note_on_c, 0, 60, 0
6, 259416, Note_on_c, 0, 67, 0
6, 259800, Note_on_c, 0, 64, 44
6, 259800, Note_on_c, 0, 60, 44
6, 259800, Note_on_c, 0, 67, 44
6, 259908, Note_on_c, 0, 67, 0
6, 259908, Note_on_c, 0, 60, 0
6, 259908, Note_on_c, 0, 64, 0
6, 259920, Note_on_c, 0, 64, 44
6, 259920, Note_on_c, 0, 67, 44
6, 259920, Note_on_c, 0, 60, 44
6, 260028, Note_on_c, 0, 60, 0
6, 260028, Note_on_c, 0, 67, 0
6, 260028, Note_on_c, 0, 64, 0
6, 260040, Note_on_c, 0, 64, 44
6, 260040, Note_on_c, 0, 67, 44
6, 260040, Note_on_c, 0, 60, 44
6, 260148, Note_on_c, 0, 60, 0
6, 260148, Note_on_c, 0, 67, 0
6, 260148, Note_on_c, 0, 64, 0
6, 260160, Note_on_c, 0, 60, 44
6, 260160, Note_on_c, 0, 63, 44
6, 260160, Note_on_c, 0, 67, 44
6, 260376, Note_on_c, 0, 67, 0
6, 260376, Note_on_c, 0, 63, 0
6, 260376, Note_on_c, 0, 60, 0
6, 260760, Note_on_c, 0, 67, 44
6, 260760, Note_on_c, 0, 60, 44
6, 260760, Note_on_c, 0, 63, 44
6, 260868, Note_on_c, 0, 63, 0
6, 260868, Note_on_c, 0, 60, 0
6, 260868, Note_on_c, 0, 67, 0
6, 260880, Note_on_c, 0, 67, 44
6, 260880, Note_on_c, 0, 63, 44
6, 260880, Note_on_c, 0, 60, 44
6, 260988, Note_on_c, 0, 60, 0
6, 260988, Note_on_c, 0, 63, 0
6, 260988, Note_on_c, 0, 67, 0
6, 261000, Note_on_c, 0, 67, 44
6, 261000, Note_on_c, 0, 60, 44
6, 261000, Note_on_c, 0, 63, 44
6, 261108, Note_on_c, 0, 63, 0
6, 261108, Note_on_c, 0, 60, 0
6, 261108, Note_on_c, 0, 67, 0
6, 261120, Note_on_c, 0, 62, 44
6, 261120, Note_on_c, 0, 60, 44
6, 261120, Note_on_c, 0, 67, 44
6, 261336, Note_on_c, 0, 67, 0
6, 261336, Note_on_c, 0, 60, 0
6, 261336, Note_on_c, 0, 62, 0
6, 261600, Note_on_c, 0, 62, 43
6, 261600, Note_on_c, 0, 67, 43
6, 261600, Note_on_c, 0, 59, 43
6, 261816, Note_on_c, 0, 59, 0
6, 261816, Note_on_c, 0, 67, 0
6, 261816, Note_on_c, 0, 62, 0
6, 262080, Note_on_c, 0, 64, 53
6, 262080, Note_on_c, 0, 67, 53
6, 262080, Note_on_c, 0, 60, 53
6, 262296, Note_on_c, 0, 60, 0
6, 262296, Note_on_c, 0, 67, 0
6, 262296, Note_on_c, 0, 64, 0
6, 262560, Note_on_c, 0, 48, 53
6, 262668, Note_on_c, 0, 48, 0
6, 262680, Note_on_c, 0, 52, 53
6, 262788, Note_on_c, 0, 52, 0
6, 262800, Note_on_c, 0, 55, 53
6, 262908, Note_on_c, 0, 55, 0
6, 262920, Note_on_c, 0, 60, 52
6, 263028, Note_on_c, 0, 60, 0
6, 263040, Control_c, 0, 64, 127
6, 263040, Note_on_c, 0, 64, 52
6, 263148, Note_on_c, 0, 64, 0
6, 263160, Note_on_c, 0, 60, 52
6, 263268, Note_on_c, 0, 60, 0
6, 263280, Note_on_c, 0, 64, 52
6, 263388, Note_on_c, 0, 64, 0
6, 263400, Note_on_c, 0, 67, 52
6, 263508, Note_on_c, 0, 67, 0
6, 263520, Note_on_c, 0, 64, 51
6, 263736, Note_on_c, 0, 64, 0
6, 263760, Note_on_c, 0, 60, 51
6, 263976, Note_on_c, 0, 60, 0
6, 264000, Control_c, 0, 64, 0
6, 264240, Note_on_c, 0, 60, 48
6, 264359, Note_on_c, 0, 60, 0
6, 264360, Note_on_c, 0, 53, 45
6, 264400, Control_c, 0, 64, 127
6, 264479, Note_on_c, 0, 53, 0
6, 264480, Note_on_c, 0, 60, 48
6, 264599, Note_on_c, 0, 60, 0
6, 264600, Note_on_c, 0, 64, 45
6, 264719, Note_on_c, 0, 64, 0
6, 264720, Note_on_c, 0, 60, 42
6, 264839, Note_on_c, 0, 60, 0
6, 264840, Note_on_c, 0, 53, 40
6, 264948, Note_on_c, 0, 53, 0
6, 264960, Note_on_c, 0, 60, 52
6, 265079, Note_on_c, 0, 60, 0
6, 265080, Note_on_c, 0, 69, 48
6, 265199, Note_on_c, 0, 69, 0
6, 265200, Note_on_c, 0, 60, 44
6, 265319, Note_on_c, 0, 60, 0
6, 265320, Note_on_c, 0, 53, 40
6, 265439, Note_on_c, 0, 53, 0
6, 265440, Note_on_c, 0, 60, 49
6, 265559, Note_on_c, 0, 60, 0
6, 265560, Note_on_c, 0, 65, 46
6, 265679, Note_on_c, 0, 65, 0
6, 265680, Note_on_c, 0, 60, 43
6, 265799, Note_on_c, 0, 60, 0
6, 265800, Control_c, 0, 64, 0
6, 265800, Note_on_c, 0, 53, 40
6, 265908, Note_on_c, 0, 53, 0
6, 265920, Control_c, 0, 64, 127
6, 265920, Note_on_c, 0, 60, 47
6, 266039, Note_on_c, 0, 60, 0
6, 266040, Note_on_c, 0, 67, 44
6, 266159, Note_on_c, 0, 67, 0
6, 266160, Note_on_c, 0, 60, 41
6, 266279, Note_on_c, 0, 60, 0
6, 266280, Note_on_c, 0, 53, 38
6, 266399, Note_on_c, 0, 53, 0
6, 266400, Note_on_c, 0, 60, 50
6, 266519, Note_on_c, 0, 60, 0
6, 266520, Note_on_c, 0, 65, 48
6, 266639, Note_on_c, 0, 65, 0
6, 266640, Note_on_c, 0, 60, 46
6, 266759, Note_on_c, 0, 60, 0
6, 266760, Note_on_c, 0, 53, 44
6, 266868, Note_on_c, 0, 53, 0
6, 266880, Control_c, 0, 64, 0
6, 266880, Control_c, 0, 64, 127
6, 266880, Note_on_c, 0, 60, 47
6, 266999, Note_on_c, 0, 60, 0
6, 267000, Note_on_c, 0, 64, 44
6, 267119, Note_on_c, 0, 64, 0
6, 267120, Note_on_c, 0, 60, 43
6, 267239, Note_on_c, 0, 60, 0
6, 267240, Note_on_c, 0, 53, 40
6, 267359, Note_on_c, 0, 53, 0
6, 267360, Note_on_c, 0, 60, 51
6, 267479, Note_on_c, 0, 60, 0
6, 267480, Note_on_c, 0, 63, 49
6, 267599, Note_on_c, 0, 63, 0
6, 267600, Note_on_c, 0, 60, 47
6, 267719, Note_on_c, 0, 60, 0
6, 267720, Note_on_c, 0, 53, 44
6, 267828, Note_on_c, 0, 53, 0
6, 267840, Control_c, 0, 64, 0
6, 267840, Control_c, 0, 64, 127
6, 267840, Note_on_c, 0, 58, 51
6, 267959, Note_on_c, 0, 58, 0
6, 267960, Note_on_c, 0, 62, 48
6, 268079, Note_on_c, 0, 62, 0
6, 268080, Note_on_c, 0, 58, 46
6, 268199, Note_on_c, 0, 58, 0
6, 268200, Note_on_c, 0, 53, 44
6, 268319, Note_on_c, 0, 53, 0
6, 268320, Note_on_c, 0, 57, 52
6, 268439, Note_on_c, 0, 57, 0
6, 268440, Note_on_c, 0, 62, 49
6, 268559, Note_on_c, 0, 62, 0
6, 268560, Note_on_c, 0, 57, 48
6, 268679, Note_on_c, 0, 57, 0
6, 268680, Note_on_c, 0, 53, 45
6, 268788, Note_on_c, 0, 53, 0
6, 268800, Control_c, 0, 64, 0
6, 268800, Control_c, 0, 64, 127
6, 268800, Note_on_c, 0, 58, 56
6, 268919, Note_on_c, 0, 58, 0
6, 268920, Note_on_c, 0, 65, 52
6, 269039, Note_on_c, 0, 65, 0
6, 269040, Note_on_c, 0, 58, 50
6, 269159, Note_on_c, 0, 58, 0
6, 269160, Note_on_c, 0, 53, 47
6, 269279, Note_on_c, 0, 53, 0
6, 269280, Note_on_c, 0, 61, 51
6, 269399, Note_on_c, 0, 61, 0
6, 269400, Note_on_c, 0, 67, 48
6, 269519, Note_on_c, 0, 67, 0
6, 269520, Note_on_c, 0, 61, 45
6, 269639, Note_on_c, 0, 61, 0
6, 269640, Note_on_c, 0, 53, 42
6, 269748, Note_on_c, 0, 53, 0
6, 269760, Control_c, 0, 64, 0
6, 269760, Control_c, 0, 64, 127
6, 269760, Note_on_c, 0, 60, 50
6, 269879, Note_on_c, 0, 60, 0
6, 269880, Note_on_c, 0, 65, 48
6, 269999, Note_on_c, 0, 65, 0
6, 270000, Note_on_c, 0, 60, 46
6, 270119, Note_on_c, 0, 60, 0
6, 270120, Note_on_c, 0, 53, 44
6, 270239, Note_on_c, 0, 53, 0
6, 270240, Note_on_c, 0, 59, 51
6, 270359, Note_on_c, 0, 59, 0
6, 270360, Note_on_c, 0, 65, 48
6, 270479, Note_on_c, 0, 65, 0
6, 270480, Note_on_c, 0, 59, 44
6, 270599, Note_on_c, 0, 59, 0
6, 270600, Note_on_c, 0, 53, 40
6, 270708, Note_on_c, 0, 53, 0
6, 270720, Control_c, 0, 64, 0
6, 270720, Control_c, 0, 64, 127
6, 270720, Note_on_c, 0, 60, 47
6, 270839, Note_on_c, 0, 60, 0
6, 270840, Note_on_c, 0, 65, 44
6, 270959, Note_on_c, 0, 65, 0
6, 270960, Note_on_c, 0, 60, 41
6, 271079, Note_on_c, 0, 60, 0
6, 271080, Note_on_c, 0, 53, 38
6, 271199, Note_on_c, 0, 53, 0
6, 271200, Note_on_c, 0, 59, 51
6, 271319, Note_on_c, 0, 59, 0
6, 271320, Note_on_c, 0, 65, 48
6, 271439, Note_on_c, 0, 65, 0
6, 271440, Note_on_c, 0, 59, 47
6, 271559, Note_on_c, 0, 59, 0
6, 271560, Note_on_c, 0, 53, 44
6, 271668, Note_on_c, 0, 53, 0
6, 271680, Control_c, 0, 64, 0
6, 271680, Note_on_c, 0, 53, 51
6, 271830, Control_c, 0, 64, 127
6, 271919, Note_on_c, 0, 53, 0
6, 271920, Note_on_c, 0, 57, 56
6, 272159, Note_on_c, 0, 57, 0
6, 272160, Note_on_c, 0, 60, 62
6, 272399, Note_on_c, 0, 60, 0
6, 272400, Note_on_c, 0, 65, 68
6, 272616, Note_on_c, 0, 65, 0
6, 272640, Note_on_c, 0, 69, 72
6, 272879, Note_on_c, 0, 69, 0
6, 272880, Note_on_c, 0, 63, 68
6, 273119, Note_on_c, 0, 63, 0
6, 273120, Note_on_c, 0, 62, 64
6, 273359, Note_on_c, 0, 62, 0
6, 273360, Note_on_c, 0, 60, 59
6, 273504, Control_c, 0, 64, 0
6, 273576, Note_on_c, 0, 60, 0
6, 273576, Control_c, 0, 64, 127
6, 273600, Note_on_c, 0, 58, 81
6, 273816, Note_on_c, 0, 58, 0
6, 273840, Note_on_c, 0, 62, 82
6, 274056, Note_on_c, 0, 62, 0
6, 274080, Note_on_c, 0, 67, 85
6, 274296, Note_on_c, 0, 67, 0
6, 274320, Note_on_c, 0, 70, 87
6, 274536, Note_on_c, 0, 70, 0
6, 274560, Note_on_c, 0, 71, 90
6, 274776, Note_on_c, 0, 71, 0
6, 274800, Note_on_c, 0, 64, 90
6, 275016, Note_on_c, 0, 64, 0
6, 275040, Note_on_c, 0, 64, 90
6, 275256, Note_on_c, 0, 64, 0
6, 275280, Note_on_c, 0, 65, 90
6, 275280, Note_on_c, 0, 62, 90
6, 275415, Control_c, 0, 64, 0
6, 275496, Note_on_c, 0, 62, 0
6, 275496, Note_on_c, 0, 65, 0
6, 275520, Note_on_c, 0, 61, 90
6, 275520, Note_on_c, 0, 64, 90
6, 275952, Note_on_c, 0, 64, 0
6, 275952, Note_on_c, 0, 61, 0
6, 283200, Note_on_c, 0, 58, 120
6, 283308, Note_on_c, 0, 58, 0
6, 283440, Note_on_c, 0, 55, 117
6, 283548, Note_on_c, 0, 55, 0
6, 283680, Note_on_c, 0, 52, 114
6, 283788, Note_on_c, 0, 52, 0
6, 283920, Note_on_c, 0, 49, 111
6, 284028, Note_on_c, 0, 49, 0
6, 284240, Note_on_c, 0, 46, 106
6, 284276, Note_on_c, 0, 46, 0
6, 284320, Note_on_c, 0, 58, 105
6, 284356, Note_on_c, 0, 58, 0
6, 284480, Note_on_c, 0, 43, 104
6, 284516, Note_on_c, 0, 43, 0
6, 284560, Note_on_c, 0, 55, 103
6, 284596, Note_on_c, 0, 55, 0
6, 284720, Note_on_c, 0, 40, 100
6, 284756, Note_on_c, 0, 40, 0
6, 284800, Note_on_c, 0, 52, 99
6, 284836, Note_on_c, 0, 52, 0
6, 284960, Note_on_c, 0, 37, 97
6, 284996, Note_on_c, 0, 37, 0
6, 285040, Note_on_c, 0, 49, 96
6, 285076, Note_on_c, 0, 49, 0
6, 285200, Note_on_c, 0, 33, 94
6, 285218, Note_on_c, 0, 33, 0
6, 285280, Note_on_c, 0, 45, 93
6, 285316, Note_on_c, 0, 45, 0
6, 285440, Note_on_c, 0, 58, 92
6, 285476, Note_on_c, 0, 58, 0
6, 285520, Note_on_c, 0, 70, 91
6, 285556, Note_on_c, 0, 70, 0
6, 285680, Note_on_c, 0, 57, 85
6, 285716, Note_on_c, 0, 57, 0
6, 285760, Note_on_c, 0, 69, 84
6, 285796, Note_on_c, 0, 69, 0
6, 285920, Note_on_c, 0, 55, 80
6, 285956, Note_on_c, 0, 55, 0
6, 286000, Note_on_c, 0, 67, 80
6, 286036, Note_on_c, 0, 67, 0
6, 286160, Note_on_c, 0, 53, 80
6, 286196, Note_on_c, 0, 53, 0
6, 286240, Note_on_c, 0, 65, 80
6, 286276, Note_on_c, 0, 65, 0
6, 286400, Note_on_c, 0, 52, 80
6, 286436, Note_on_c, 0, 52, 0
6, 286480, Note_on_c, 0, 64, 80
6, 286516, Note_on_c, 0, 64, 0
6, 286640, Note_on_c, 0, 50, 80
6, 286676, Note_on_c, 0, 50, 0
6, 286720, Note_on_c, 0, 62, 80
6, 286756, Note_on_c, 0, 62, 0
6, 286880, Note_on_c, 0, 50, 80
6, 286916, Note_on_c, 0, 50, 0
6, 286960, Note_on_c, 0, 62, 80
6, 286996, Note_on_c, 0, 62, 0
6, 287120, Note_on_c, 0, 45, 80
6, 287156, Note_on_c, 0, 45, 0
6, 287200, Note_on_c, 0, 57, 80
6, 287236, Note_on_c, 0, 57, 0
6, 287360, Note_on_c, 0, 38, 80
6, 287396, Note_on_c, 0, 38, 0
6, 287440, Note_on_c, 0, 50, 80
6, 287476, Note_on_c, 0, 50, 0
6, 287600, Note_on_c, 0, 45, 80
6, 287636, Note_on_c, 0, 45, 0
6, 287680, Note_on_c, 0, 57, 80
6, 287716, Note_on_c, 0, 57, 0
6, 287840, Note_on_c, 0, 50, 80
6, 287876, Note_on_c, 0, 50, 0
6, 287920, Note_on_c, 0, 62, 80
6, 287956, Note_on_c, 0, 62, 0
6, 288080, Note_on_c, 0, 45, 80
6, 288152, Note_on_c, 0, 45, 0
6, 288160, Note_on_c, 0, 57, 80
6, 288232, Note_on_c, 0, 57, 0
6, 288320, Note_on_c, 0, 38, 80
6, 288392, Note_on_c, 0, 38, 0
6, 288400, Note_on_c, 0, 50, 80
6, 288472, Note_on_c, 0, 50, 0
6, 288560, Note_on_c, 0, 45, 80
6, 288632, Note_on_c, 0, 45, 0
6, 288640, Note_on_c, 0, 57, 80
6, 288712, Note_on_c, 0, 57, 0
6, 288800, Note_on_c, 0, 56, 80
6, 288872, Note_on_c, 0, 56, 0
6, 288880, Note_on_c, 0, 57, 80
6, 288952, Note_on_c, 0, 57, 0
6, 289040, Note_on_c, 0, 62, 100
6, 289112, Note_on_c, 0, 62, 0
6, 289120, Note_on_c, 0, 66, 100
6, 289192, Note_on_c, 0, 66, 0
6, 289280, Note_on_c, 0, 60, 100
6, 289352, Note_on_c, 0, 60, 0
6, 289360, Note_on_c, 0, 63, 100
6, 289432, Note_on_c, 0, 63, 0
6, 289520, Note_on_c, 0, 58, 100
6, 289592, Note_on_c, 0, 58, 0
6, 289600, Note_on_c, 0, 62, 100
6, 289672, Note_on_c, 0, 62, 0
6, 289760, Note_on_c, 0, 57, 100
6, 289832, Note_on_c, 0, 57, 0
6, 289840, Note_on_c, 0, 60, 100
6, 289912, Note_on_c, 0, 60, 0
6, 290000, Note_on_c, 0, 55, 100
6, 290072, Note_on_c, 0, 55, 0
6, 290080, Note_on_c, 0, 58, 100
6, 290152, Note_on_c, 0, 58, 0
6, 290240, Note_on_c, 0, 53, 100
6, 290312, Note_on_c, 0, 53, 0
6, 290320, Note_on_c, 0, 57, 100
6, 290392, Note_on_c, 0, 57, 0
6, 290480, Note_on_c, 0, 51, 100
6, 290552, Note_on_c, 0, 51, 0
6, 290560, Note_on_c, 0, 55, 100
6, 290632, Note_on_c, 0, 55, 0
6, 290720, Note_on_c, 0, 50, 100
6, 290792, Note_on_c, 0, 50, 0
6, 290800, Note_on_c, 0, 55, 100
6, 290872, Note_on_c, 0, 55, 0
6, 290960, Note_on_c, 0, 49, 80
6, 291032, Note_on_c, 0, 49, 0
6, 291040, Note_on_c, 0, 57, 80
6, 291112, Note_on_c, 0, 57, 0
6, 291200, Note_on_c, 0, 45, 80
6, 291272, Note_on_c, 0, 45, 0
6, 291280, Note_on_c, 0, 57, 80
6, 291352, Note_on_c, 0, 57, 0
6, 291440, Note_on_c, 0, 50, 80
6, 291512, Note_on_c, 0, 50, 0
6, 291520, Note_on_c, 0, 62, 80
6, 291592, Note_on_c, 0, 62, 0
6, 291680, Note_on_c, 0, 53, 80
6, 291752, Note_on_c, 0, 53, 0
6, 291760, Note_on_c, 0, 65, 80
6, 291832, Note_on_c, 0, 65, 0
6, 291920, Note_on_c, 0, 52, 80
6, 291992, Note_on_c, 0, 52, 0
6, 292000, Note_on_c, 0, 64, 80
6, 292072, Note_on_c, 0, 64, 0
6, 292160, Note_on_c, 0, 40, 80
6, 292232, Note_on_c, 0, 40, 0
6, 292240, Note_on_c, 0, 52, 80
6, 292312, Note_on_c, 0, 52, 0
6, 292400, Note_on_c, 0, 45, 80
6, 292472, Note_on_c, 0, 45, 0
6, 292480, Note_on_c, 0, 57, 80
6, 292552, Note_on_c, 0, 57, 0
6, 292800, Control_c, 0, 64, 127
6, 292920, Note_on_c, 0, 57, 80
6, 293028, Note_on_c, 0, 57, 0
6, 293160, Note_on_c, 0, 57, 80
6, 293268, Note_on_c, 0, 57, 0
6, 293400, Note_on_c, 0, 57, 80
6, 293508, Note_on_c, 0, 57, 0
6, 293640, Control_c, 0, 64, 0
6, 293640, Note_on_c, 0, 57, 80
6, 293748, Note_on_c, 0, 57, 0
6, 293770, Control_c, 0, 64, 127
6, 293880, Note_on_c, 0, 57, 80
6, 293988, Note_on_c, 0, 57, 0
6, 294120, Note_on_c, 0, 57, 80
6, 294228, Note_on_c, 0, 57, 0
6, 294360, Note_on_c, 0, 57, 80
6, 294468, Note_on_c, 0, 57, 0
6, 294570, Control_c, 0, 64, 0
6, 294600, Note_on_c, 0, 61, 79
6, 294600, Note_on_c, 0, 64, 79
6, 294720, Control_c, 0, 64, 127
6, 294839, Note_on_c, 0, 64, 0
6, 294839, Note_on_c, 0, 61, 0
6, 294840, Note_on_c, 0, 59, 78
6, 294840, Note_on_c, 0, 64, 78
6, 295079, Note_on_c, 0, 64, 0
6, 295079, Note_on_c, 0, 59, 0
6, 295080, Note_on_c, 0, 64, 79
6, 295080, Note_on_c, 0, 56, 79
6, 295210, Control_c, 0, 64, 0
6, 295319, Note_on_c, 0, 56, 0
6, 295319, Note_on_c, 0, 64, 0
6, 295320, Note_on_c, 0, 61, 81
6, 295320, Note_on_c, 0, 64, 81
6, 295559, Note_on_c, 0, 64, 0
6, 295559, Note_on_c, 0, 61, 0
6, 295560, Note_on_c, 0, 64, 64
6, 295560, Note_on_c, 0, 59, 64
6, 295680, Control_c, 0, 64, 127
6, 295799, Note_on_c, 0, 59, 0
6, 295799, Note_on_c, 0, 64, 0
6, 295800, Note_on_c, 0, 64, 64
6, 295800, Note_on_c, 0, 58, 64
6, 296039, Note_on_c, 0, 58, 0
6, 296039, Note_on_c, 0, 64, 0
6, 296040, Note_on_c, 0, 64, 64
6, 296040, Note_on_c, 0, 55, 64
6, 296279, Note_on_c, 0, 55, 0
6, 296279, Note_on_c, 0, 64, 0
6, 296280, Note_on_c, 0, 64, 64
6, 296280, Note_on_c, 0, 54, 64
6, 296519, Note_on_c, 0, 54, 0
6, 296519, Note_on_c, 0, 64, 0
6, 296520, Note_on_c, 0, 61, 64
6, 296520, Note_on_c, 0, 64, 64
6, 296560, Control_c, 0, 64, 0
6, 296640, Control_c, 0, 64, 127
6, 296759, Note_on_c, 0, 64, 0
6, 296759, Note_on_c, 0, 61, 0
6, 296760, Note_on_c, 0, 66, 64
6, 296760, Note_on_c, 0, 68, 64
6, 296999, Note_on_c, 0, 68, 0
6, 296999, Note_on_c, 0, 66, 0
6, 297000, Note_on_c, 0, 66, 64
6, 297000, Note_on_c, 0, 68, 64
6, 297239, Note_on_c, 0, 68, 0
6, 297239, Note_on_c, 0, 66, 0
6, 297240, Note_on_c, 0, 64, 64
6, 297240, Note_on_c, 0, 68, 64
6, 297479, Note_on_c, 0, 68, 0
6, 297479, Note_on_c, 0, 64, 0
6, 297480, Note_on_c, 0, 68, 64
6, 297480, Note_on_c, 0, 64, 64
6, 297708, Note_on_c, 0, 64, 0
6, 297708, Note_on_c, 0, 68, 0
6, 297720, Note_on_c, 0, 64, 63
6, 297720, Note_on_c, 0, 68, 63
6, 297936, Note_on_c, 0, 68, 0
6, 297936, Note_on_c, 0, 64, 0
6, 297960, Note_on_c, 0, 64, 61
6, 297960, Note_on_c, 0, 68, 61
6, 298176, Note_on_c, 0, 68, 0
6, 298176, Note_on_c, 0, 64, 0
6, 298200, Note_on_c, 0, 64, 60
6, 298200, Note_on_c, 0, 68, 60
6, 298416, Note_on_c, 0, 68, 0
6, 298416, Note_on_c, 0, 64, 0
6, 298440, Note_on_c, 0, 68, 58
6, 298440, Note_on_c, 0, 64, 58
6, 298668, Note_on_c, 0, 64, 0
6, 298668, Note_on_c, 0, 68, 0
6, 298680, Note_on_c, 0, 64, 56
6, 298680, Note_on_c, 0, 68, 56
6, 298896, Note_on_c, 0, 68, 0
6, 298896, Note_on_c, 0, 64, 0
6, 298920, Note_on_c, 0, 68, 55
6, 298920, Note_on_c, 0, 64, 55
6, 299028, Note_on_c, 0, 64, 0
6, 299028, Note_on_c, 0, 68, 0
6, 299160, Note_on_c, 0, 61, 47
6, 299268, Note_on_c, 0, 61, 0
6, 299280, Note_on_c, 0, 64, 90
6, 299388, Note_on_c, 0, 64, 0
6, 299400, Note_on_c, 0, 61, 90
6, 299430, Control_c, 0, 64, 0
6, 299508, Note_on_c, 0, 61, 0
6, 299520, Note_on_c, 0, 64, 90
6, 299639, Note_on_c, 0, 64, 0
6, 299640, Note_on_c, 0, 56, 90
6, 299759, Note_on_c, 0, 56, 0
6, 299760, Note_on_c, 0, 61, 90
6, 299879, Note_on_c, 0, 61, 0
6, 299880, Note_on_c, 0, 56, 90
6, 299999, Note_on_c, 0, 56, 0
6, 300000, Note_on_c, 0, 61, 90
6, 300119, Note_on_c, 0, 61, 0
6, 300120, Note_on_c, 0, 52, 90
6, 300239, Note_on_c, 0, 52, 0
6, 300240, Note_on_c, 0, 56, 90
6, 300359, Note_on_c, 0, 56, 0
6, 300360, Note_on_c, 0, 52, 90
6, 300468, Note_on_c, 0, 52, 0
6, 300480, Note_on_c, 0, 56, 90
6, 300599, Note_on_c, 0, 56, 0
6, 300600, Note_on_c, 0, 49, 90
6, 300719, Note_on_c, 0, 49, 0
6, 300720, Note_on_c, 0, 52, 90
6, 300839, Note_on_c, 0, 52, 0
6, 300840, Note_on_c, 0, 49, 90
6, 300959, Note_on_c, 0, 49, 0
6, 300960, Note_on_c, 0, 52, 97
6, 301079, Note_on_c, 0, 52, 0
6, 301080, Note_on_c, 0, 44, 99
6, 301199, Note_on_c, 0, 44, 0
6, 301200, Note_on_c, 0, 49, 100
6, 301319, Note_on_c, 0, 49, 0
6, 301320, Note_on_c, 0, 45, 102
6, 301428, Note_on_c, 0, 45, 0
6, 301440, Note_on_c, 0, 49, 103
6, 301559, Note_on_c, 0, 49, 0
6, 301560, Note_on_c, 0, 44, 90
6, 301679, Note_on_c, 0, 44, 0
6, 301680, Note_on_c, 0, 49, 90
6, 301799, Note_on_c, 0, 49, 0
6, 301800, Note_on_c, 0, 43, 90
6, 301919, Note_on_c, 0, 43, 0
6, 301920, Note_on_c, 0, 49, 90
6, 302039, Note_on_c, 0, 49, 0
6, 302040, Note_on_c, 0, 44, 90
6, 302159, Note_on_c, 0, 44, 0
6, 302160, Note_on_c, 0, 49, 90
6, 302279, Note_on_c, 0, 49, 0
6, 302280, Note_on_c, 0, 45, 90
6, 302388, Note_on_c, 0, 45, 0
6, 302400, Note_on_c, 0, 49, 93
6, 302519, Note_on_c, 0, 49, 0
6, 302520, Note_on_c, 0, 44, 96
6, 302639, Note_on_c, 0, 44, 0
6, 302640, Note_on_c, 0, 49, 98
6, 302759, Note_on_c, 0, 49, 0
6, 302760, Note_on_c, 0, 43, 101
6, 302879, Note_on_c, 0, 43, 0
6, 302880, Note_on_c, 0, 49, 104
6, 302999, Note_on_c, 0, 49, 0
6, 303000, Note_on_c, 0, 44, 90
6, 303119, Note_on_c, 0, 44, 0
6, 303120, Note_on_c, 0, 49, 90
6, 303239, Note_on_c, 0, 49, 0
6, 303240, Note_on_c, 0, 45, 90
6, 303348, Note_on_c, 0, 45, 0
6, 303360, Note_on_c, 0, 49, 90
6, 303479, Note_on_c, 0, 49, 0
6, 303480, Note_on_c, 0, 49, 90
6, 303599, Note_on_c, 0, 49, 0
6, 303600, Note_on_c, 0, 52, 90
6, 303719, Note_on_c, 0, 52, 0
6, 303720, Note_on_c, 0, 52, 95
6, 303839, Note_on_c, 0, 52, 0
6, 303840, Note_on_c, 0, 55, 97
6, 303959, Note_on_c, 0, 55, 0
6, 303960, Note_on_c, 0, 55, 99
6, 304079, Note_on_c, 0, 55, 0
6, 304080, Note_on_c, 0, 61, 101
6, 304199, Note_on_c, 0, 61, 0
6, 304200, Note_on_c, 0, 61, 96
6, 304308, Note_on_c, 0, 61, 0
6, 304320, Note_on_c, 0, 64, 96
6, 304439, Note_on_c, 0, 64, 0
6, 304440, Note_on_c, 0, 64, 97
6, 304559, Note_on_c, 0, 64, 0
6, 304560, Note_on_c, 0, 67, 97
6, 304679, Note_on_c, 0, 67, 0
6, 304680, Note_on_c, 0, 67, 98
6, 304799, Note_on_c, 0, 67, 0
6, 304800, Note_on_c, 0, 73, 98
6, 304919, Note_on_c, 0, 73, 0
6, 304920, Note_on_c, 0, 73, 99
6, 305039, Note_on_c, 0, 73, 0
6, 305040, Note_on_c, 0, 76, 99
6, 305159, Note_on_c, 0, 76, 0
6, 305160, Note_on_c, 0, 76, 100
6, 305268, Note_on_c, 0, 76, 0
6, 305280, Control_c, 0, 64, 127
6, 305280, Note_on_c, 0, 79, 100
6, 305359, Note_on_c, 0, 79, 0
6, 305360, Note_on_c, 0, 77, 90
6, 305439, Note_on_c, 0, 77, 0
6, 305440, Note_on_c, 0, 76, 90
6, 305519, Note_on_c, 0, 76, 0
6, 305520, Note_on_c, 0, 74, 90
6, 305599, Note_on_c, 0, 74, 0
6, 305600, Note_on_c, 0, 73, 90
6, 305679, Note_on_c, 0, 73, 0
6, 305680, Note_on_c, 0, 70, 90
6, 305759, Note_on_c, 0, 70, 0
6, 305760, Note_on_c, 0, 69, 90
6, 305839, Note_on_c, 0, 69, 0
6, 305840, Note_on_c, 0, 67, 90
6, 305919, Note_on_c, 0, 67, 0
6, 305920, Note_on_c, 0, 65, 90
6, 305999, Note_on_c, 0, 65, 0
6, 306000, Note_on_c, 0, 64, 90
6, 306079, Note_on_c, 0, 64, 0
6, 306080, Note_on_c, 0, 62, 90
6, 306159, Note_on_c, 0, 62, 0
6, 306160, Note_on_c, 0, 61, 90
6, 306232, Note_on_c, 0, 61, 0
6, 306240, Note_on_c, 0, 58, 90
6, 306319, Note_on_c, 0, 58, 0
6, 306320, Note_on_c, 0, 57, 90
6, 306399, Note_on_c, 0, 57, 0
6, 306400, Note_on_c, 0, 55, 90
6, 306479, Note_on_c, 0, 55, 0
6, 306480, Note_on_c, 0, 53, 90
6, 306559, Note_on_c, 0, 53, 0
6, 306560, Note_on_c, 0, 52, 90
6, 306639, Note_on_c, 0, 52, 0
6, 306640, Note_on_c, 0, 50, 90
6, 306699, Note_on_c, 0, 50, 0
6, 306700, Note_on_c, 0, 49, 90
6, 306759, Note_on_c, 0, 49, 0
6, 306760, Note_on_c, 0, 46, 90
6, 306819, Note_on_c, 0, 46, 0
6, 306820, Note_on_c, 0, 45, 90
6, 306879, Note_on_c, 0, 45, 0
6, 306880, Note_on_c, 0, 43, 90
6, 306939, Note_on_c, 0, 43, 0
6, 306940, Note_on_c, 0, 41, 90
6, 306999, Note_on_c, 0, 41, 0
6, 307000, Note_on_c, 0, 40, 90
6, 307059, Note_on_c, 0, 40, 0
6, 307060, Note_on_c, 0, 38, 90
6, 307070, Control_c, 0, 64, 0
6, 307119, Note_on_c, 0, 38, 0
6, 307120, Note_on_c, 0, 37, 90
6, 307179, Note_on_c, 0, 37, 0
6, 307180, Note_on_c, 0, 34, 72
6, 307200, Note_on_c, 0, 34, 0
6, 307200, Note_on_c, 0, 45, 80
6, 307227, Note_on_c, 0, 45, 0
6, 307320, Note_on_c, 0, 55, 72
6, 307347, Note_on_c, 0, 55, 0
6, 307440, Note_on_c, 0, 53, 76
6, 307467, Note_on_c, 0, 53, 0
6, 307560, Note_on_c, 0, 52, 76
6, 307587, Note_on_c, 0, 52, 0
6, 307680, Note_on_c, 0, 50, 76
6, 307707, Note_on_c, 0, 50, 0
6, 307800, Note_on_c, 0, 57, 76
6, 307827, Note_on_c, 0, 57, 0
6, 307920, Note_on_c, 0, 55, 76
6, 307947, Note_on_c, 0, 55, 0
6, 308040, Note_on_c, 0, 52, 76
6, 308067, Note_on_c, 0, 52, 0
6, 308160, Note_on_c, 0, 50, 76
6, 308187, Note_on_c, 0, 50, 0
6, 308280, Note_on_c, 0, 53, 76
6, 308307, Note_on_c, 0, 53, 0
6, 308400, Note_on_c, 0, 52, 76
6, 308427, Note_on_c, 0, 52, 0
6, 308520, Note_on_c, 0, 48, 76
6, 308547, Note_on_c, 0, 48, 0
6, 308640, Note_on_c, 0, 46, 76
6, 308667, Note_on_c, 0, 46, 0
6, 308760, Note_on_c, 0, 50, 76
6, 308787, Note_on_c, 0, 50, 0
6, 308880, Note_on_c, 0, 45, 76
6, 308907, Note_on_c, 0, 45, 0
6, 309000, Note_on_c, 0, 50, 76
6, 309027, Note_on_c, 0, 50, 0
6, 309240, Note_on_c, 0, 55, 76
6, 309240, Note_on_c, 0, 50, 76
6, 309479, Note_on_c, 0, 50, 0
6, 309479, Note_on_c, 0, 55, 0
6, 309480, Note_on_c, 0, 53, 76
6, 309480, Note_on_c, 0, 50, 76
6, 309719, Note_on_c, 0, 50, 0
6, 309719, Note_on_c, 0, 53, 0
6, 309720, Note_on_c, 0, 57, 76
6, 309839, Note_on_c, 0, 57, 0
6, 309840, Note_on_c, 0, 58, 76
6, 309959, Note_on_c, 0, 58, 0
6, 309960, Note_on_c, 0, 57, 76
6, 310068, Note_on_c, 0, 57, 0
6, 310200, Note_on_c, 0, 57, 76
6, 310200, Note_on_c, 0, 53, 76
6, 310439, Note_on_c, 0, 53, 0
6, 310439, Note_on_c, 0, 57, 0
6, 310440, Note_on_c, 0, 57, 76
6, 310440, Note_on_c, 0, 50, 76
6, 310679, Note_on_c, 0, 50, 0
6, 310679, Note_on_c, 0, 57, 0
6, 310680, Note_on_c, 0, 57, 76
6, 310799, Note_on_c, 0, 57, 0
6, 310800, Note_on_c, 0, 55, 76
6, 310919, Note_on_c, 0, 55, 0
6, 310920, Note_on_c, 0, 52, 76
6, 311028, Note_on_c, 0, 52, 0
6, 311040, Note_on_c, 0, 50, 86
6, 311040, Note_on_c, 0, 62, 86
6, 311067, Note_on_c, 0, 62, 0
6, 311067, Note_on_c, 0, 50, 0
6, 311160, Note_on_c, 0, 60, 81
6, 311187, Note_on_c, 0, 60, 0
6, 311280, Note_on_c, 0, 58, 81
6, 311307, Note_on_c, 0, 58, 0
6, 311400, Note_on_c, 0, 57, 80
6, 311427, Note_on_c, 0, 57, 0
6, 311520, Note_on_c, 0, 58, 80
6, 311547, Note_on_c, 0, 58, 0
6, 311640, Note_on_c, 0, 62, 79
6, 311667, Note_on_c, 0, 62, 0
6, 311760, Note_on_c, 0, 60, 79
6, 311787, Note_on_c, 0, 60, 0
6, 311880, Note_on_c, 0, 57, 78
6, 311907, Note_on_c, 0, 57, 0
6, 312000, Note_on_c, 0, 55, 78
6, 312027, Note_on_c, 0, 55, 0
6, 312120, Note_on_c, 0, 58, 78
6, 312147, Note_on_c, 0, 58, 0
6, 312240, Note_on_c, 0, 57, 77
6, 312267, Note_on_c, 0, 57, 0
6, 312360, Note_on_c, 0, 53, 77
6, 312387, Note_on_c, 0, 53, 0
6, 312480, Note_on_c, 0, 51, 76
6, 312507, Note_on_c, 0, 51, 0
6, 312600, Note_on_c, 0, 55, 76
6, 312627, Note_on_c, 0, 55, 0
6, 312720, Note_on_c, 0, 50, 75
6, 312747, Note_on_c, 0, 50, 0
6, 312840, Note_on_c, 0, 53, 75
6, 312867, Note_on_c, 0, 53, 0
6, 312960, Note_on_c, 0, 49, 75
6, 313014, Note_on_c, 0, 49, 0
6, 313080, Note_on_c, 0, 52, 74
6, 313134, Note_on_c, 0, 52, 0
6, 313200, Note_on_c, 0, 45, 74
6, 313254, Note_on_c, 0, 45, 0
6, 313320, Note_on_c, 0, 49, 73
6, 313374, Note_on_c, 0, 49, 0
6, 313560, Note_on_c, 0, 62, 72
6, 313560, Note_on_c, 0, 50, 72
6, 313799, Note_on_c, 0, 50, 0
6, 313799, Note_on_c, 0, 62, 0
6, 313800, Note_on_c, 0, 53, 72
6, 313800, Note_on_c, 0, 65, 72
6, 313854, Note_on_c, 0, 65, 0
6, 313854, Note_on_c, 0, 53, 0
6, 313920, Control_c, 0, 64, 127
6, 314040, Note_on_c, 0, 64, 72
6, 314040, Note_on_c, 0, 52, 72
6, 314279, Note_on_c, 0, 52, 0
6, 314279, Note_on_c, 0, 64, 0
6, 314280, Note_on_c, 0, 52, 72
6, 314399, Note_on_c, 0, 52, 0
6, 314400, Note_on_c, 0, 57, 72
6, 314639, Note_on_c, 0, 57, 0
6, 314640, Note_on_c, 0, 60, 82
6, 314640, Note_on_c, 0, 48, 82
6, 314748, Note_on_c, 0, 48, 0
6, 314748, Note_on_c, 0, 60, 0
6, 314805, Control_c, 0, 64, 0
6, 314880, Control_c, 0, 64, 127
6, 314880, Note_on_c, 0, 64, 72
6, 314880, Note_on_c, 0, 52, 72
6, 315119, Note_on_c, 0, 52, 0
6, 315119, Note_on_c, 0, 64, 0
6, 315120, Note_on_c, 0, 52, 72
6, 315359, Note_on_c, 0, 52, 0
6, 315360, Note_on_c, 0, 57, 72
6, 315599, Note_on_c, 0, 57, 0
6, 315600, Note_on_c, 0, 48, 72
6, 315600, Note_on_c, 0, 60, 72
6, 315654, Note_on_c, 0, 60, 0
6, 315654, Note_on_c, 0, 48, 0
6, 315735, Control_c, 0, 64, 0
6, 315840, Control_c, 0, 64, 127
6, 315840, Note_on_c, 0, 64, 72
6, 315840, Note_on_c, 0, 52, 72
6, 316079, Note_on_c, 0, 52, 0
6, 316079, Note_on_c, 0, 64, 0
6, 316080, Note_on_c, 0, 52, 72
6, 316319, Note_on_c, 0, 52, 0
6, 316320, Note_on_c, 0, 57, 72
6, 316679, Note_on_c, 0, 57, 0
6, 316680, Note_on_c, 0, 57, 80
6, 316734, Note_on_c, 0, 57, 0
6, 316800, Control_c, 0, 64, 0
6, 316920, Note_on_c, 0, 60, 72
6, 316950, Control_c, 0, 64, 127
6, 316974, Note_on_c, 0, 60, 0
6, 317160, Note_on_c, 0, 48, 72
6, 317214, Note_on_c, 0, 48, 0
6, 317400, Note_on_c, 0, 53, 72
6, 317454, Note_on_c, 0, 53, 0
6, 317640, Note_on_c, 0, 57, 72
6, 317694, Note_on_c, 0, 57, 0
6, 317808, Control_c, 0, 64, 0
6, 317880, Control_c, 0, 64, 127
6, 317880, Note_on_c, 0, 60, 72
6, 317934, Note_on_c, 0, 60, 0
6, 318120, Note_on_c, 0, 48, 72
6, 318174, Note_on_c, 0, 48, 0
6, 318360, Note_on_c, 0, 53, 72
6, 318414, Note_on_c, 0, 53, 0
6, 318600, Note_on_c, 0, 56, 72
6, 318600, Note_on_c, 0, 53, 72
6, 318648, Control_c, 0, 64, 0
6, 318654, Note_on_c, 0, 53, 0
6, 318654, Note_on_c, 0, 56, 0
6, 318720, Note_on_c, 0, 67, 102
6, 318720, Note_on_c, 0, 64, 102
6, 318828, Note_on_c, 0, 64, 0
6, 318828, Note_on_c, 0, 67, 0
6, 318840, Note_on_c, 0, 68, 90
6, 318840, Note_on_c, 0, 65, 90
6, 318948, Note_on_c, 0, 65, 0
6, 318948, Note_on_c, 0, 68, 0
6, 318960, Note_on_c, 0, 70, 90
6, 318960, Note_on_c, 0, 67, 90
6, 319014, Note_on_c, 0, 67, 0
6, 319014, Note_on_c, 0, 70, 0
6, 319080, Note_on_c, 0, 67, 90
6, 319080, Note_on_c, 0, 64, 90
6, 319134, Note_on_c, 0, 64, 0
6, 319134, Note_on_c, 0, 67, 0
6, 319200, Note_on_c, 0, 65, 90
6, 319200, Note_on_c, 0, 68, 90
6, 319308, Note_on_c, 0, 68, 0
6, 319308, Note_on_c, 0, 65, 0
6, 319320, Note_on_c, 0, 67, 90
6, 319320, Note_on_c, 0, 70, 90
6, 319428, Note_on_c, 0, 70, 0
6, 319428, Note_on_c, 0, 67, 0
6, 319440, Note_on_c, 0, 68, 90
6, 319440, Note_on_c, 0, 65, 90
6, 319494, Note_on_c, 0, 65, 0
6, 319494, Note_on_c, 0, 68, 0
6, 319560, Note_on_c, 0, 65, 90
6, 319560, Note_on_c, 0, 68, 90
6, 319614, Note_on_c, 0, 68, 0
6, 319614, Note_on_c, 0, 65, 0
6, 319680, Note_on_c, 0, 67, 90
6, 319680, Note_on_c, 0, 70, 90
6, 319788, Note_on_c, 0, 70, 0
6, 319788, Note_on_c, 0, 67, 0
6, 319800, Note_on_c, 0, 72, 90
6, 319800, Note_on_c, 0, 68, 90
6, 319908, Note_on_c, 0, 68, 0
6, 319908, Note_on_c, 0, 72, 0
6, 319920, Note_on_c, 0, 70, 90
6, 319920, Note_on_c, 0, 73, 90
6, 319974, Note_on_c, 0, 73, 0
6, 319974, Note_on_c, 0, 70, 0
6, 320040, Note_on_c, 0, 67, 90
6, 320040, Note_on_c, 0, 70, 90
6, 320094, Note_on_c, 0, 70, 0
6, 320094, Note_on_c, 0, 67, 0
6, 320160, Note_on_c, 0, 68, 90
6, 320160, Note_on_c, 0, 72, 90
6, 320268, Note_on_c, 0, 72, 0
6, 320268, Note_on_c, 0, 68, 0
6, 320280, Note_on_c, 0, 70, 90
6, 320280, Note_on_c, 0, 73, 90
6, 320388, Note_on_c, 0, 73, 0
6, 320388, Note_on_c, 0, 70, 0
6, 320400, Note_on_c, 0, 72, 90
6, 320400, Note_on_c, 0, 68, 90
6, 320454, Note_on_c, 0, 68, 0
6, 320454, Note_on_c, 0, 72, 0
6, 320520, Note_on_c, 0, 68, 90
6, 320520, Note_on_c, 0, 72, 90
6, 320574, Note_on_c, 0, 72, 0
6, 320574, Note_on_c, 0, 68, 0
6, 320640, Note_on_c, 0, 71, 90
6, 320748, Note_on_c, 0, 71, 0
6, 320760, Note_on_c, 0, 69, 90
6, 320760, Note_on_c, 0, 72, 90
6, 320868, Note_on_c, 0, 72, 0
6, 320868, Note_on_c, 0, 69, 0
6, 320880, Note_on_c, 0, 74, 90
6, 320880, Note_on_c, 0, 71, 90
6, 320988, Note_on_c, 0, 71, 0
6, 320988, Note_on_c, 0, 74, 0
6, 321000, Note_on_c, 0, 77, 90
6, 321000, Note_on_c, 0, 74, 90
6, 321108, Note_on_c, 0, 74, 0
6, 321108, Note_on_c, 0, 77, 0
6, 321120, Note_on_c, 0, 76, 90
6, 321120, Note_on_c, 0, 72, 90
6, 321228, Note_on_c, 0, 72, 0
6, 321228, Note_on_c, 0, 76, 0
6, 321240, Note_on_c, 0, 74, 90
6, 321240, Note_on_c, 0, 70, 90
6, 321348, Note_on_c, 0, 70, 0
6, 321348, Note_on_c, 0, 74, 0
6, 321360, Note_on_c, 0, 72, 90
6, 321360, Note_on_c, 0, 69, 90
6, 321468, Note_on_c, 0, 69, 0
6, 321468, Note_on_c, 0, 72, 0
6, 321480, Note_on_c, 0, 72, 90
6, 321480, Note_on_c, 0, 69, 90
6, 321588, Note_on_c, 0, 69, 0
6, 321588, Note_on_c, 0, 72, 0
6, 325440, Control_c, 0, 64, 127
6, 325440, Note_on_c, 0, 43, 95
6, 325440, Note_on_c, 0, 55, 95
6, 325656, Note_on_c, 0, 55, 0
6, 325656, Note_on_c, 0, 43, 0
6, 325680, Note_on_c, 0, 38, 102
6, 325734, Note_on_c, 0, 38, 0
6, 325740, Note_on_c, 0, 36, 99
6, 325794, Note_on_c, 0, 36, 0
6, 325800, Note_on_c, 0, 35, 96
6, 325854, Note_on_c, 0, 35, 0
6, 325860, Note_on_c, 0, 33, 94
6, 325914, Note_on_c, 0, 33, 0
6, 325920, Note_on_c, 0, 31, 91
6, 326300, Control_c, 0, 64, 0
6, 326352, Note_on_c, 0, 31, 0
6, 327360, Note_on_c, 0, 59, 90
6, 327360, Note_on_c, 0, 62, 90
6, 327500, Control_c, 0, 64, 127
6, 328008, Note_on_c, 0, 62, 0
6, 328008, Note_on_c, 0, 59, 0
6, 328080, Note_on_c, 0, 64, 96
6, 328080, Note_on_c, 0, 61, 96
6, 328188, Note_on_c, 0, 61, 0
6, 328188, Note_on_c, 0, 64, 0
6, 328320, Note_on_c, 0, 65, 94
6, 328320, Note_on_c, 0, 62, 94
6, 328428, Note_on_c, 0, 62, 0
6, 328428, Note_on_c, 0, 65, 0
6, 328560, Note_on_c, 0, 61, 92
6, 328560, Note_on_c, 0, 64, 92
6, 328668, Note_on_c, 0, 64, 0
6, 328668, Note_on_c, 0, 61, 0
6, 328800, Note_on_c, 0, 61, 89
6, 328800, Note_on_c, 0, 64, 89
6, 328950, Control_c, 0, 64, 0
6, 329391, Control_c, 0, 64, 127
6, 329496, Note_on_c, 0, 64, 0
6, 329496, Note_on_c, 0, 61, 0
6, 329520, Note_on_c, 0, 66, 102
6, 329520, Note_on_c, 0, 63, 102
6, 329736, Note_on_c, 0, 63, 0
6, 329736, Note_on_c, 0, 66, 0
6, 329760, Note_on_c, 0, 67, 98
6, 329760, Note_on_c, 0, 64, 98
6, 329976, Note_on_c, 0, 64, 0
6, 329976, Note_on_c, 0, 67, 0
6, 330000, Note_on_c, 0, 63, 93
6, 330000, Note_on_c, 0, 66, 93
6, 330216, Note_on_c, 0, 66, 0
6, 330216, Note_on_c, 0, 63, 0
6, 330240, Note_on_c, 0, 63, 88
6, 330240, Note_on_c, 0, 66, 88
6, 330456, Note_on_c, 0, 66, 0
6, 330456, Note_on_c, 0, 63, 0
6, 330480, Note_on_c, 0, 57, 90
6, 330480, Note_on_c, 0, 63, 90
6, 330480, Note_on_c, 0, 66, 90
6, 330912, Note_on_c, 0, 66, 0
6, 330912, Note_on_c, 0, 63, 0
6, 330912, Note_on_c, 0, 57, 0
6, 330960, Note_on_c, 0, 66, 90
6, 330960, Note_on_c, 0, 63, 90
6, 330960, Note_on_c, 0, 57, 90
6, 331110, Control_c, 0, 64, 0
6, 331176, Note_on_c, 0, 66, 0
6, 331200, Note_on_c, 0, 67, 90
6, 331416, Note_on_c, 0, 67, 0
6, 331416, Note_on_c, 0, 57, 0
6, 331416, Note_on_c, 0, 63, 0
6, 331440, Note_on_c, 0, 57, 90
6, 331440, Note_on_c, 0, 64, 90
6, 331548, Note_on_c, 0, 64, 0
6, 331548, Note_on_c, 0, 57, 0
6, 331680, Note_on_c, 0, 62, 90
6, 331680, Note_on_c, 0, 65, 90
6, 331788, Note_on_c, 0, 65, 0
6, 331788, Note_on_c, 0, 62, 0
6, 331920, Note_on_c, 0, 57, 90
6, 331920, Note_on_c, 0, 61, 90
6, 332028, Note_on_c, 0, 61, 0
6, 332028, Note_on_c, 0, 57, 0
6, 332160, Note_on_c, 0, 62, 90
6, 332160, Note_on_c, 0, 57, 90
6, 332268, Note_on_c, 0, 57, 0
6, 332268, Note_on_c, 0, 62, 0
6, 332400, Note_on_c, 0, 59, 90
6, 332400, Note_on_c, 0, 52, 90
6, 332508, Note_on_c, 0, 52, 0
6, 332508, Note_on_c, 0, 59, 0
6, 332640, Note_on_c, 0, 52, 97
6, 332640, Note_on_c, 0, 61, 97
6, 332748, Note_on_c, 0, 61, 0
6, 332748, Note_on_c, 0, 52, 0
6, 332880, Note_on_c, 0, 52, 93
6, 332880, Note_on_c, 0, 59, 93
6, 332988, Note_on_c, 0, 59, 0
6, 332988, Note_on_c, 0, 52, 0
6, 333120, Control_c, 0, 64, 127
6, 333120, Note_on_c, 0, 52, 90
6, 333120, Note_on_c, 0, 57, 90
6, 333228, Note_on_c, 0, 57, 0
6, 333228, Note_on_c, 0, 52, 0
6, 333360, Note_on_c, 0, 52, 86
6, 333468, Note_on_c, 0, 52, 0
6, 333600, Note_on_c, 0, 57, 83
6, 333630, Control_c, 0, 64, 0
6, 333708, Note_on_c, 0, 57, 0
6, 333840, Note_on_c, 0, 45, 79
6, 334056, Note_on_c, 0, 45, 0
6, 334200, Note_on_c, 0, 50, 72
6, 334254, Note_on_c, 0, 50, 0
6, 334320, Note_on_c, 0, 45, 71
6, 334374, Note_on_c, 0, 45, 0
6, 334440, Note_on_c, 0, 41, 68
6, 334494, Note_on_c, 0, 41, 0
6, 334680, Note_on_c, 0, 53, 72
6, 334734, Note_on_c, 0, 53, 0
6, 334800, Note_on_c, 0, 50, 70
6, 334854, Note_on_c, 0, 50, 0
6, 334920, Note_on_c, 0, 45, 68
6, 334974, Note_on_c, 0, 45, 0
6, 335160, Note_on_c, 0, 52, 70
6, 335214, Note_on_c, 0, 52, 0
6, 335280, Note_on_c, 0, 48, 68
6, 335334, Note_on_c, 0, 48, 0
6, 335400, Note_on_c, 0, 45, 65
6, 335454, Note_on_c, 0, 45, 0
6, 335640, Note_on_c, 0, 57, 69
6, 335694, Note_on_c, 0, 57, 0
6, 335760, Note_on_c, 0, 52, 68
6, 335814, Note_on_c, 0, 52, 0
6, 335880, Note_on_c, 0, 48, 65
6, 335934, Note_on_c, 0, 48, 0
6, 336120, Note_on_c, 0, 62, 70
6, 336174, Note_on_c, 0, 62, 0
6, 336240, Note_on_c, 0, 57, 68
6, 336294, Note_on_c, 0, 57, 0
6, 336360, Note_on_c, 0, 53, 65
6, 336414, Note_on_c, 0, 53, 0
6, 336600, Note_on_c, 0, 62, 71
6, 336654, Note_on_c, 0, 62, 0
6, 336720, Note_on_c, 0, 56, 69
6, 336774, Note_on_c, 0, 56, 0
6, 336840, Note_on_c, 0, 52, 67
6, 336894, Note_on_c, 0, 52, 0
6, 337080, Note_on_c, 0, 62, 71
6, 337134, Note_on_c, 0, 62, 0
6, 337200, Note_on_c, 0, 57, 68
6, 337254, Note_on_c, 0, 57, 0
6, 337320, Note_on_c, 0, 53, 66
6, 337374, Note_on_c, 0, 53, 0
6, 337560, Note_on_c, 0, 61, 75
6, 337614, Note_on_c, 0, 61, 0
6, 337680, Note_on_c, 0, 57, 72
6, 337734, Note_on_c, 0, 57, 0
6, 337800, Note_on_c, 0, 52, 69
6, 337854, Note_on_c, 0, 52, 0
6, 338040, Note_on_c, 0, 62, 72
6, 338094, Note_on_c, 0, 62, 0
6, 338160, Note_on_c, 0, 57, 70
6, 338214, Note_on_c, 0, 57, 0
6, 338280, Note_on_c, 0, 53, 68
6, 338334, Note_on_c, 0, 53, 0
6, 338520, Note_on_c, 0, 62, 74
6, 338574, Note_on_c, 0, 62, 0
6, 338640, Note_on_c, 0, 57, 72
6, 338694, Note_on_c, 0, 57, 0
6, 338760, Note_on_c, 0, 53, 72
6, 338814, Note_on_c, 0, 53, 0
6, 339000, Note_on_c, 0, 62, 72
6, 339054, Note_on_c, 0, 62, 0
6, 339120, Note_on_c, 0, 57, 68
6, 339174, Note_on_c, 0, 57, 0
6, 339240, Note_on_c, 0, 53, 65
6, 339294, Note_on_c, 0, 53, 0
6, 339480, Note_on_c, 0, 65, 72
6, 339534, Note_on_c, 0, 65, 0
6, 339600, Note_on_c, 0, 60, 71
6, 339654, Note_on_c, 0, 60, 0
6, 339720, Note_on_c, 0, 57, 68
6, 339774, Note_on_c, 0, 57, 0
6, 339960, Note_on_c, 0, 64, 72
6, 340014, Note_on_c, 0, 64, 0
6, 340080, Note_on_c, 0, 59, 70
6, 340134, Note_on_c, 0, 59, 0
6, 340200, Note_on_c, 0, 56, 67
6, 340254, Note_on_c, 0, 56, 0
6, 340440, Note_on_c, 0, 64, 72
6, 340440, Note_on_c, 0, 68, 72
6, 340494, Note_on_c, 0, 68, 0
6, 340494, Note_on_c, 0, 64, 0
6, 340560, Note_on_c, 0, 64, 68
6, 340560, Note_on_c, 0, 59, 68
6, 340614, Note_on_c, 0, 59, 0
6, 340614, Note_on_c, 0, 64, 0
6, 340680, Note_on_c, 0, 56, 66
6, 340680, Note_on_c, 0, 59, 66
6, 340734, Note_on_c, 0, 59, 0
6, 340734, Note_on_c, 0, 56, 0
6, 340920, Note_on_c, 0, 69, 68
6, 340920, Note_on_c, 0, 64, 68
6, 340974, Note_on_c, 0, 64, 0
6, 341039, Note_on_c, 0, 69, 0
6, 341040, Note_on_c, 0, 60, 66
6, 341040, Note_on_c, 0, 64, 66
6, 341094, Note_on_c, 0, 64, 0
6, 341094, Note_on_c, 0, 60, 0
6, 341160, Note_on_c, 0, 60, 64
6, 341160, Note_on_c, 0, 57, 64
6, 341214, Note_on_c, 0, 57, 0
6, 341214, Note_on_c, 0, 60, 0
6, 341400, Note_on_c, 0, 64, 70
6, 341400, Note_on_c, 0, 67, 70
6, 341454, Note_on_c, 0, 64, 0
6, 341519, Note_on_c, 0, 67, 0
6, 341520, Note_on_c, 0, 60, 68
6, 341520, Note_on_c, 0, 64, 68
6, 341574, Note_on_c, 0, 64, 0
6, 341574, Note_on_c, 0, 60, 0
6, 341640, Note_on_c, 0, 60, 65
6, 341640, Note_on_c, 0, 55, 65
6, 341694, Note_on_c, 0, 55, 0
6, 341694, Note_on_c, 0, 60, 0
6, 341840, Control_c, 0, 64, 127
6, 341880, Note_on_c, 0, 60, 72
6, 341880, Note_on_c, 0, 65, 72
6, 341934, Note_on_c, 0, 60, 0
6, 341999, Note_on_c, 0, 65, 0
6, 342000, Note_on_c, 0, 57, 71
6, 342000, Note_on_c, 0, 60, 71
6, 342054, Note_on_c, 0, 60, 0
6, 342054, Note_on_c, 0, 57, 0
6, 342120, Note_on_c, 0, 53, 68
6, 342120, Note_on_c, 0, 57, 68
6, 342174, Note_on_c, 0, 57, 0
6, 342174, Note_on_c, 0, 53, 0
6, 342290, Control_c, 0, 64, 0
6, 342360, Note_on_c, 0, 64, 72
6, 342360, Note_on_c, 0, 61, 72
6, 342380, Control_c, 0, 64, 127
6, 342414, Note_on_c, 0, 61, 0
6, 342414, Note_on_c, 0, 64, 0
6, 342480, Note_on_c, 0, 57, 68
6, 342480, Note_on_c, 0, 61, 68
6, 342534, Note_on_c, 0, 61, 0
6, 342534, Note_on_c, 0, 57, 0
6, 342600, Note_on_c, 0, 57, 66
6, 342600, Note_on_c, 0, 52, 66
6, 342654, Note_on_c, 0, 52, 0
6, 342654, Note_on_c, 0, 57, 0
6, 342720, Control_c, 0, 64, 0
6, 342840, Note_on_c, 0, 64, 70
6, 342840, Note_on_c, 0, 57, 70
6, 342855, Control_c, 0, 64, 127
6, 342894, Note_on_c, 0, 57, 0
6, 342894, Note_on_c, 0, 64, 0
6, 342960, Note_on_c, 0, 64, 68
6, 342960, Note_on_c, 0, 57, 68
6, 343014, Note_on_c, 0, 57, 0
6, 343014, Note_on_c, 0, 64, 0
6, 343080, Note_on_c, 0, 57, 68
6, 343080, Note_on_c, 0, 54, 68
6, 343134, Note_on_c, 0, 54, 0
6, 343134, Note_on_c, 0, 57, 0
6, 343260, Control_c, 0, 64, 0
6, 343320, Note_on_c, 0, 57, 72
6, 343320, Note_on_c, 0, 62, 72
6, 343350, Control_c, 0, 64, 127
6, 343374, Note_on_c, 0, 62, 0
6, 343374, Note_on_c, 0, 57, 0
6, 343440, Note_on_c, 0, 62, 69
6, 343440, Note_on_c, 0, 57, 69
6, 343494, Note_on_c, 0, 57, 0
6, 343494, Note_on_c, 0, 62, 0
6, 343560, Note_on_c, 0, 57, 67
6, 343560, Note_on_c, 0, 54, 67
6, 343614, Note_on_c, 0, 54, 0
6, 343614, Note_on_c, 0, 57, 0
6, 343680, Control_c, 0, 64, 0
6, 343785, Control_c, 0, 64, 127
6, 343800, Note_on_c, 0, 55, 71
6, 343800, Note_on_c, 0, 58, 71
6, 343854, Note_on_c, 0, 58, 0
6, 343854, Note_on_c, 0, 55, 0
6, 343920, Note_on_c, 0, 58, 69
6, 343920, Note_on_c, 0, 55, 69
6, 343974, Note_on_c, 0, 55, 0
6, 343974, Note_on_c, 0, 58, 0
6, 344040, Note_on_c, 0, 51, 68
6, 344040, Note_on_c, 0, 55, 68
6, 344094, Note_on_c, 0, 55, 0
6, 344094, Note_on_c, 0, 51, 0
6, 344160, Control_c, 0, 64, 0
6, 344265, Control_c, 0, 64, 127
6, 344280, Note_on_c, 0, 59, 73
6, 344280, Note_on_c, 0, 53, 73
6, 344334, Note_on_c, 0, 53, 0
6, 344334, Note_on_c, 0, 59, 0
6, 344400, Note_on_c, 0, 53, 72
6, 344400, Note_on_c, 0, 59, 72
6, 344454, Note_on_c, 0, 59, 0
6, 344454, Note_on_c, 0, 53, 0
6, 344520, Note_on_c, 0, 50, 70
6, 344520, Note_on_c, 0, 53, 70
6, 344574, Note_on_c, 0, 53, 0
6, 344574, Note_on_c, 0, 50, 0
6, 344640, Control_c, 0, 64, 0
6, 344760, Note_on_c, 0, 57, 71
6, 344814, Note_on_c, 0, 57, 0
6, 344820, Control_c, 0, 64, 127
6, 344880, Note_on_c, 0, 52, 70
6, 344934, Note_on_c, 0, 52, 0
6, 345000, Note_on_c, 0, 49, 68
6, 345054, Note_on_c, 0, 49, 0
6, 345120, Note_on_c, 0, 45, 67
6, 345228, Note_on_c, 0, 45, 0
6, 345480, Note_on_c, 0, 45, 72
6, 345510, Control_c, 0, 64, 0
6, 345600, Control_c, 0, 64, 127
6, 345719, Note_on_c, 0, 45, 0
6, 345720, Note_on_c, 0, 55, 90
6, 345959, Note_on_c, 0, 55, 0
6, 345960, Note_on_c, 0, 52, 90
6, 346199, Note_on_c, 0, 52, 0
6, 346200, Note_on_c, 0, 49, 90
6, 346439, Note_on_c, 0, 49, 0
6, 346440, Note_on_c, 0, 49, 91
6, 346548, Note_on_c, 0, 49, 0
6, 346560, Control_c, 0, 64, 0
6, 346680, Note_on_c, 0, 57, 91
6, 346919, Note_on_c, 0, 57, 0
6, 346920, Note_on_c, 0, 53, 91
6, 347159, Note_on_c, 0, 53, 0
6, 347160, Note_on_c, 0, 50, 91
6, 347399, Note_on_c, 0, 50, 0
6, 347400, Note_on_c, 0, 45, 92
6, 347508, Note_on_c, 0, 45, 0
6, 347520, Control_c, 0, 64, 127
6, 347640, Note_on_c, 0, 59, 92
6, 347856, Note_on_c, 0, 59, 0
6, 347880, Note_on_c, 0, 53, 92
6, 348096, Note_on_c, 0, 53, 0
6, 348120, Note_on_c, 0, 50, 93
6, 348228, Note_on_c, 0, 50, 0
6, 348480, Control_c, 0, 64, 0
6, 348480, Note_on_c, 0, 49, 93
6, 348588, Note_on_c, 0, 49, 0
6, 348600, Note_on_c, 0, 61, 93
6, 348708, Note_on_c, 0, 61, 0
6, 348960, Note_on_c, 0, 52, 93
6, 349068, Note_on_c, 0, 52, 0
6, 349080, Note_on_c, 0, 64, 94
6, 349188, Note_on_c, 0, 64, 0
6, 349440, Control_c, 0, 64, 127
6, 349440, Note_on_c, 0, 55, 94
6, 349548, Note_on_c, 0, 55, 0
6, 349560, Note_on_c, 0, 67, 94
6, 349668, Note_on_c, 0, 67, 0
6, 349920, Note_on_c, 0, 56, 94
6, 350028, Note_on_c, 0, 56, 0
6, 350040, Note_on_c, 0, 68, 93
6, 350148, Note_on_c, 0, 68, 0
6, 350400, Control_c, 0, 64, 0
6, 350400, Note_on_c, 0, 57, 92
6, 350508, Note_on_c, 0, 57, 0
6, 350520, Note_on_c, 0, 69, 91
6, 350628, Note_on_c, 0, 69, 0
6, 350760, Note_on_c, 0, 58, 91
6, 350868, Note_on_c, 0, 58, 0
6, 350880, Note_on_c, 0, 70, 91
6, 350988, Note_on_c, 0, 70, 0
6, 351000, Note_on_c, 0, 55, 90
6, 351108, Note_on_c, 0, 55, 0
6, 351120, Note_on_c, 0, 67, 90
6, 351228, Note_on_c, 0, 67, 0
6, 351390, Control_c, 0, 64, 127
6, 351480, Note_on_c, 0, 64, 88
6, 351696, Note_on_c, 0, 64, 0
6, 351720, Note_on_c, 0, 61, 88
6, 351936, Note_on_c, 0, 61, 0
6, 351960, Note_on_c, 0, 58, 87
6, 352176, Note_on_c, 0, 58, 0
6, 352200, Note_on_c, 0, 55, 86
6, 352350, Control_c, 0, 64, 0
6, 352428, Note_on_c, 0, 55, 0
6, 352440, Note_on_c, 0, 56, 78
6, 352656, Note_on_c, 0, 56, 0
6, 352680, Note_on_c, 0, 53, 75
6, 352896, Note_on_c, 0, 53, 0
6, 352920, Note_on_c, 0, 50, 72
6, 353136, Note_on_c, 0, 50, 0
6, 353160, Note_on_c, 0, 47, 69
6, 353280, Control_c, 0, 64, 127
6, 353399, Note_on_c, 0, 47, 0
6, 353400, Note_on_c, 0, 49, 66
6, 353639, Note_on_c, 0, 49, 0
6, 353640, Note_on_c, 0, 45, 63
6, 353879, Note_on_c, 0, 45, 0
6, 353880, Note_on_c, 0, 49, 60
6, 354060, Control_c, 0, 64, 0
6, 354119, Note_on_c, 0, 49, 0
6, 354120, Note_on_c, 0, 45, 58
6, 354228, Note_on_c, 0, 45, 0
6, 354240, Control_c, 0, 64, 127
6, 354245, Note_on_c, 0, 57, 60
6, 354304, Note_on_c, 0, 57, 0
6, 354305, Note_on_c, 0, 51, 48
6, 354364, Note_on_c, 0, 51, 0
6, 354365, Note_on_c, 0, 57, 50
6, 354424, Note_on_c, 0, 57, 0
6, 354425, Note_on_c, 0, 51, 52
6, 354484, Note_on_c, 0, 51, 0
6, 354485, Note_on_c, 0, 57, 53
6, 354544, Note_on_c, 0, 57, 0
6, 354545, Note_on_c, 0, 51, 55
6, 354604, Note_on_c, 0, 51, 0
6, 354605, Note_on_c, 0, 57, 58
6, 354664, Note_on_c, 0, 57, 0
6, 354665, Note_on_c, 0, 51, 59
6, 354724, Note_on_c, 0, 51, 0
6, 354725, Note_on_c, 0, 57, 62
6, 354784, Note_on_c, 0, 57, 0
6, 354785, Note_on_c, 0, 51, 64
6, 354844, Note_on_c, 0, 51, 0
6, 354845, Note_on_c, 0, 57, 66
6, 354904, Note_on_c, 0, 57, 0
6, 354905, Note_on_c, 0, 51, 69
6, 354964, Note_on_c, 0, 51, 0
6, 354965, Note_on_c, 0, 57, 70
6, 355024, Note_on_c, 0, 57, 0
6, 355025, Note_on_c, 0, 51, 71
6, 355084, Note_on_c, 0, 51, 0
6, 355085, Note_on_c, 0, 57, 76
6, 355116, Control_c, 0, 64, 0
6, 355144, Note_on_c, 0, 57, 0
6, 355145, Note_on_c, 0, 51, 78
6, 355199, Note_on_c, 0, 51, 0
6, 355200, Note_on_c, 0, 50, 100
6, 355240, Control_c, 0, 64, 127
6, 355439, Note_on_c, 0, 50, 0
6, 355440, Note_on_c, 0, 55, 97
6, 355919, Note_on_c, 0, 55, 0
6, 355920, Note_on_c, 0, 57, 99
6, 356028, Note_on_c, 0, 57, 0
6, 356160, Note_on_c, 0, 62, 99
6, 357010, Control_c, 0, 64, 0
6, 357024, Note_on_c, 0, 62, 0
6, 357120, Control_c, 0, 64, 127
6, 357120, Note_on_c, 0, 50, 103
6, 357228, Note_on_c, 0, 50, 0
6, 357360, Note_on_c, 0, 55, 104
6, 357792, Note_on_c, 0, 55, 0
6, 357840, Note_on_c, 0, 57, 106
6, 357948, Note_on_c, 0, 57, 0
6, 358032, Control_c, 0, 64, 0
6, 358080, Note_on_c, 0, 59, 104
6, 358080, Note_on_c, 0, 53, 104
6, 358080, Note_on_c, 0, 62, 104
6, 358440, Control_c, 0, 64, 127
6, 358512, Note_on_c, 0, 62, 0
6, 358512, Note_on_c, 0, 53, 0
6, 358512, Note_on_c, 0, 59, 0
6, 358560, Note_on_c, 0, 62, 104
6, 358560, Note_on_c, 0, 65, 104
6, 358560, Note_on_c, 0, 56, 104
6, 358992, Note_on_c, 0, 56, 0
6, 358992, Note_on_c, 0, 65, 0
6, 358992, Note_on_c, 0, 62, 0
6, 359040, Control_c, 0, 64, 0
6, 359472, Control_c, 0, 64, 127
6, 359520, Note_on_c, 0, 59, 103
6, 359520, Note_on_c, 0, 65, 103
6, 359520, Note_on_c, 0, 62, 103
6, 359952, Note_on_c, 0, 62, 0
6, 359952, Note_on_c, 0, 65, 0
6, 359952, Note_on_c, 0, 59, 0
6, 360000, Note_on_c, 0, 57, 103
6, 360000, Note_on_c, 0, 62, 103
6, 360000, Note_on_c, 0, 65, 103
6, 360432, Note_on_c, 0, 65, 0
6, 360432, Note_on_c, 0, 62, 0
6, 360432, Note_on_c, 0, 57, 0
6, 360432, Control_c, 0, 64, 0
6, 393600, Control_c, 0, 64, 127
6, 393600, Note_on_c, 0, 38, 44
6, 393659, Note_on_c, 0, 38, 0
6, 393660, Note_on_c, 0, 50, 44
6, 393719, Note_on_c, 0, 50, 0
6, 393720, Note_on_c, 0, 38, 44
6, 393779, Note_on_c, 0, 38, 0
6, 393780, Note_on_c, 0, 50, 44
6, 393839, Note_on_c, 0, 50, 0
6, 393840, Note_on_c, 0, 38, 44
6, 393899, Note_on_c, 0, 38, 0
6, 393900, Note_on_c, 0, 50, 44
6, 393959, Note_on_c, 0, 50, 0
6, 393960, Note_on_c, 0, 38, 44
6, 394019, Note_on_c, 0, 38, 0
6, 394020, Note_on_c, 0, 50, 44
6, 394079, Note_on_c, 0, 50, 0
6, 394080, Note_on_c, 0, 38, 44
6, 394139, Note_on_c, 0, 38, 0
6, 394140, Note_on_c, 0, 50, 44
6, 394199, Note_on_c, 0, 50, 0
6, 394200, Note_on_c, 0, 38, 44
6, 394259, Note_on_c, 0, 38, 0
6, 394260, Note_on_c, 0, 50, 44
6, 394319, Note_on_c, 0, 50, 0
6, 394320, Note_on_c, 0, 38, 44
6, 394379, Note_on_c, 0, 38, 0
6, 394380, Note_on_c, 0, 50, 44
6, 394439, Note_on_c, 0, 50, 0
6, 394440, Note_on_c, 0, 38, 44
6, 394499, Note_on_c, 0, 38, 0
6, 394500, Note_on_c, 0, 50, 44
6, 394554, Note_on_c, 0, 50, 0
6, 394560, Note_on_c, 0, 48, 45
6, 394619, Note_on_c, 0, 48, 0
6, 394620, Note_on_c, 0, 50, 45
6, 394679, Note_on_c, 0, 50, 0
6, 394680, Note_on_c, 0, 48, 45
6, 394739, Note_on_c, 0, 48, 0
6, 394740, Note_on_c, 0, 50, 45
6, 394799, Note_on_c, 0, 50, 0
6, 394800, Note_on_c, 0, 48, 45
6, 394859, Note_on_c, 0, 48, 0
6, 394860, Note_on_c, 0, 50, 45
6, 394919, Note_on_c, 0, 50, 0
6, 394920, Note_on_c, 0, 48, 45
6, 394979, Note_on_c, 0, 48, 0
6, 394980, Note_on_c, 0, 50, 45
6, 395039, Note_on_c, 0, 50, 0
6, 395040, Note_on_c, 0, 48, 45
6, 395099, Note_on_c, 0, 48, 0
6, 395100, Note_on_c, 0, 50, 45
6, 395159, Note_on_c, 0, 50, 0
6, 395160, Note_on_c, 0, 48, 45
6, 395219, Note_on_c, 0, 48, 0
6, 395220, Note_on_c, 0, 50, 45
6, 395279, Note_on_c, 0, 50, 0
6, 395280, Note_on_c, 0, 48, 45
6, 395339, Note_on_c, 0, 48, 0
6, 395340, Note_on_c, 0, 50, 45
6, 395399, Note_on_c, 0, 50, 0
6, 395400, Note_on_c, 0, 48, 45
6, 395459, Note_on_c, 0, 48, 0
6, 395460, Note_on_c, 0, 50, 46
6, 395514, Note_on_c, 0, 50, 0
6, 395520, Note_on_c, 0, 47, 46
6, 395579, Note_on_c, 0, 47, 0
6, 395580, Note_on_c, 0, 50, 46
6, 395639, Note_on_c, 0, 50, 0
6, 395640, Note_on_c, 0, 47, 47
6, 395699, Note_on_c, 0, 47, 0
6, 395700, Note_on_c, 0, 50, 47
6, 395759, Note_on_c, 0, 50, 0
6, 395760, Note_on_c, 0, 47, 48
6, 395819, Note_on_c, 0, 47, 0
6, 395820, Note_on_c, 0, 50, 48
6, 395879, Note_on_c, 0, 50, 0
6, 395880, Note_on_c, 0, 47, 48
6, 395939, Note_on_c, 0, 47, 0
6, 395940, Note_on_c, 0, 50, 49
6, 395999, Note_on_c, 0, 50, 0
6, 396000, Note_on_c, 0, 47, 49
6, 396059, Note_on_c, 0, 47, 0
6, 396060, Note_on_c, 0, 50, 50
6, 396119, Note_on_c, 0, 50, 0
6, 396120, Note_on_c, 0, 47, 50
6, 396179, Note_on_c, 0, 47, 0
6, 396180, Note_on_c, 0, 50, 51
6, 396239, Note_on_c, 0, 50, 0
6, 396240, Note_on_c, 0, 47, 51
6, 396299, Note_on_c, 0, 47, 0
6, 396300, Note_on_c, 0, 50, 51
6, 396359, Note_on_c, 0, 50, 0
6, 396360, Note_on_c, 0, 47, 52
6, 396419, Note_on_c, 0, 47, 0
6, 396420, Note_on_c, 0, 50, 41
6, 396474, Note_on_c, 0, 50, 0
6, 396480, Note_on_c, 0, 45, 42
6, 396539, Note_on_c, 0, 45, 0
6, 396540, Note_on_c, 0, 57, 42
6, 396599, Note_on_c, 0, 57, 0
6, 396600, Note_on_c, 0, 45, 43
6, 396659, Note_on_c, 0, 45, 0
6, 396660, Note_on_c, 0, 57, 43
6, 396719, Note_on_c, 0, 57, 0
6, 396720, Note_on_c, 0, 45, 44
6, 396779, Note_on_c, 0, 45, 0
6, 396780, Note_on_c, 0, 57, 44
6, 396839, Note_on_c, 0, 57, 0
6, 396840, Note_on_c, 0, 45, 44
6, 396899, Note_on_c, 0, 45, 0
6, 396900, Note_on_c, 0, 57, 44
6, 396959, Note_on_c, 0, 57, 0
6, 396960, Note_on_c, 0, 45, 44
6, 397019, Note_on_c, 0, 45, 0
6, 397020, Note_on_c, 0, 57, 45
6, 397079, Note_on_c, 0, 57, 0
6, 397080, Note_on_c, 0, 45, 45
6, 397139, Note_on_c, 0, 45, 0
6, 397140, Note_on_c, 0, 57, 46
6, 397199, Note_on_c, 0, 57, 0
6, 397200, Note_on_c, 0, 45, 46
6, 397259, Note_on_c, 0, 45, 0
6, 397260, Note_on_c, 0, 57, 46
6, 397319, Note_on_c, 0, 57, 0
6, 397320, Note_on_c, 0, 45, 47
6, 397379, Note_on_c, 0, 45, 0
6, 397380, Note_on_c, 0, 57, 47
6, 397434, Note_on_c, 0, 57, 0
6, 397440, Note_on_c, 0, 50, 48
6, 397499, Note_on_c, 0, 50, 0
6, 397500, Note_on_c, 0, 57, 47
6, 397559, Note_on_c, 0, 57, 0
6, 397560, Note_on_c, 0, 50, 46
6, 397619, Note_on_c, 0, 50, 0
6, 397620, Note_on_c, 0, 57, 44
6, 397679, Note_on_c, 0, 57, 0
6, 397680, Note_on_c, 0, 50, 44
6, 397739, Note_on_c, 0, 50, 0
6, 397740, Note_on_c, 0, 57, 43
6, 397799, Note_on_c, 0, 57, 0
6, 397800, Note_on_c, 0, 50, 42
6, 397859, Note_on_c, 0, 50, 0
6, 397860, Note_on_c, 0, 57, 41
6, 397919, Note_on_c, 0, 57, 0
6, 397920, Note_on_c, 0, 50, 40
6, 397979, Note_on_c, 0, 50, 0
6, 397980, Note_on_c, 0, 57, 39
6, 398039, Note_on_c, 0, 57, 0
6, 398040, Note_on_c, 0, 50, 38
6, 398099, Note_on_c, 0, 50, 0
6, 398100, Note_on_c, 0, 57, 37
6, 398159, Note_on_c, 0, 57, 0
6, 398160, Note_on_c, 0, 50, 36
6, 398219, Note_on_c, 0, 50, 0
6, 398220, Note_on_c, 0, 57, 36
6, 398279, Note_on_c, 0, 57, 0
6, 398280, Note_on_c, 0, 50, 34
6, 398339, Note_on_c, 0, 50, 0
6, 398340, Note_on_c, 0, 57, 33
6, 398394, Note_on_c, 0, 57, 0
6, 398400, Note_on_c, 0, 50, 32
6, 398459, Note_on_c, 0, 50, 0
6, 398460, Note_on_c, 0, 57, 35
6, 398519, Note_on_c, 0, 57, 0
6, 398520, Note_on_c, 0, 50, 36
6, 398579, Note_on_c, 0, 50, 0
6, 398580, Note_on_c, 0, 57, 36
6, 398639, Note_on_c, 0, 57, 0
6, 398640, Note_on_c, 0, 50, 36
6, 398699, Note_on_c, 0, 50, 0
6, 398700, Note_on_c, 0, 57, 36
6, 398759, Note_on_c, 0, 57, 0
6, 398760, Note_on_c, 0, 50, 36
6, 398819, Note_on_c, 0, 50, 0
6, 398820, Note_on_c, 0, 57, 37
6, 398879, Note_on_c, 0, 57, 0
6, 398880, Note_on_c, 0, 50, 37
6, 398939, Note_on_c, 0, 50, 0
6, 398940, Note_on_c, 0, 57, 37
6, 398999, Note_on_c, 0, 57, 0
6, 399000, Note_on_c, 0, 50, 37
6, 399059, Note_on_c, 0, 50, 0
6, 399060, Note_on_c, 0, 57, 38
6, 399119, Note_on_c, 0, 57, 0
6, 399120, Note_on_c, 0, 50, 38
6, 399179, Note_on_c, 0, 50, 0
6, 399180, Note_on_c, 0, 57, 38
6, 399239, Note_on_c, 0, 57, 0
6, 399240, Note_on_c, 0, 50, 38
6, 399299, Note_on_c, 0, 50, 0
6, 399300, Note_on_c, 0, 57, 40
6, 399354, Note_on_c, 0, 57, 0
6, 399360, Note_on_c, 0, 50, 40
6, 399414, Note_on_c, 0, 50, 0
6, 399420, Note_on_c, 0, 52, 40
6, 399474, Note_on_c, 0, 52, 0
6, 399480, Note_on_c, 0, 50, 40
6, 399534, Note_on_c, 0, 50, 0
6, 399540, Note_on_c, 0, 52, 40
6, 399594, Note_on_c, 0, 52, 0
6, 399600, Note_on_c, 0, 50, 40
6, 399654, Note_on_c, 0, 50, 0
6, 399660, Note_on_c, 0, 52, 40
6, 399714, Note_on_c, 0, 52, 0
6, 399720, Note_on_c, 0, 50, 40
6, 399774, Note_on_c, 0, 50, 0
6, 399780, Note_on_c, 0, 52, 42
6, 399834, Note_on_c, 0, 52, 0
6, 399840, Note_on_c, 0, 50, 42
6, 399894, Note_on_c, 0, 50, 0
6, 399900, Note_on_c, 0, 52, 43
6, 399954, Note_on_c, 0, 52, 0
6, 399960, Note_on_c, 0, 50, 43
6, 400014, Note_on_c, 0, 50, 0
6, 400020, Note_on_c, 0, 52, 43
6, 400074, Note_on_c, 0, 52, 0
6, 400080, Note_on_c, 0, 50, 43
6, 400134, Note_on_c, 0, 50, 0
6, 400140, Note_on_c, 0, 52, 43
6, 400194, Note_on_c, 0, 52, 0
6, 400200, Note_on_c, 0, 50, 44
6, 400254, Note_on_c, 0, 50, 0
6, 400260, Note_on_c, 0, 52, 44
6, 400314, Note_on_c, 0, 52, 0
6, 400320, Note_on_c, 0, 45, 44
6, 400374, Note_on_c, 0, 45, 0
6, 400380, Note_on_c, 0, 57, 44
6, 400434, Note_on_c, 0, 57, 0
6, 400440, Note_on_c, 0, 45, 45
6, 400494, Note_on_c, 0, 45, 0
6, 400500, Note_on_c, 0, 57, 45
6, 400554, Note_on_c, 0, 57, 0
6, 400560, Note_on_c, 0, 45, 45
6, 400614, Note_on_c, 0, 45, 0
6, 400620, Note_on_c, 0, 57, 45
6, 400674, Note_on_c, 0, 57, 0
6, 400680, Note_on_c, 0, 45, 46
6, 400734, Note_on_c, 0, 45, 0
6, 400740, Note_on_c, 0, 57, 46
6, 400794, Note_on_c, 0, 57, 0
6, 400800, Note_on_c, 0, 45, 46
6, 400854, Note_on_c, 0, 45, 0
6, 400860, Note_on_c, 0, 57, 46
6, 400914, Note_on_c, 0, 57, 0
6, 400920, Note_on_c, 0, 45, 47
6, 400974, Note_on_c, 0, 45, 0
6, 400980, Note_on_c, 0, 57, 47
6, 401034, Note_on_c, 0, 57, 0
6, 401040, Note_on_c, 0, 45, 47
6, 401094, Note_on_c, 0, 45, 0
6, 401100, Note_on_c, 0, 57, 47
6, 401154, Note_on_c, 0, 57, 0
6, 401160, Note_on_c, 0, 45, 48
6, 401214, Note_on_c, 0, 45, 0
6, 401220, Note_on_c, 0, 57, 32
6, 401274, Note_on_c, 0, 57, 0
6, 401280, Note_on_c, 0, 48, 32
6, 401280, Note_on_c, 0, 50, 32
6, 401334, Note_on_c, 0, 50, 0
6, 401334, Note_on_c, 0, 48, 0
6, 401340, Note_on_c, 0, 50, 55
6, 401340, Note_on_c, 0, 48, 55
6, 401394, Note_on_c, 0, 48, 0
6, 401394, Note_on_c, 0, 50, 0
6, 401400, Note_on_c, 0, 50, 53
6, 401400, Note_on_c, 0, 48, 53
6, 401454, Note_on_c, 0, 48, 0
6, 401454, Note_on_c, 0, 50, 0
6, 401460, Note_on_c, 0, 48, 52
6, 401460, Note_on_c, 0, 50, 52
6, 401514, Note_on_c, 0, 50, 0
6, 401514, Note_on_c, 0, 48, 0
6, 401520, Note_on_c, 0, 48, 50
6, 401520, Note_on_c, 0, 50, 50
6, 401574, Note_on_c, 0, 50, 0
6, 401574, Note_on_c, 0, 48, 0
6, 401580, Note_on_c, 0, 48, 48
6, 401580, Note_on_c, 0, 50, 48
6, 401634, Note_on_c, 0, 50, 0
6, 401634, Note_on_c, 0, 48, 0
6, 401640, Note_on_c, 0, 48, 47
6, 401640, Note_on_c, 0, 50, 47
6, 401694, Note_on_c, 0, 50, 0
6, 401694, Note_on_c, 0, 48, 0
6, 401700, Note_on_c, 0, 50, 45
6, 401700, Note_on_c, 0, 48, 45
6, 401754, Note_on_c, 0, 48, 0
6, 401754, Note_on_c, 0, 50, 0
6, 401760, Note_on_c, 0, 47, 44
6, 401760, Note_on_c, 0, 50, 44
6, 401814, Note_on_c, 0, 50, 0
6, 401814, Note_on_c, 0, 47, 0
6, 401820, Note_on_c, 0, 47, 42
6, 401820, Note_on_c, 0, 50, 42
6, 401874, Note_on_c, 0, 50, 0
6, 401874, Note_on_c, 0, 47, 0
6, 401880, Note_on_c, 0, 50, 40
6, 401880, Note_on_c, 0, 47, 40
6, 401934, Note_on_c, 0, 47, 0
6, 401934, Note_on_c, 0, 50, 0
6, 401940, Note_on_c, 0, 50, 39
6, 401940, Note_on_c, 0, 47, 39
6, 401994, Note_on_c, 0, 47, 0
6, 401994, Note_on_c, 0, 50, 0
6, 402000, Note_on_c, 0, 50, 37
6, 402000, Note_on_c, 0, 45, 37
6, 402054, Note_on_c, 0, 45, 0
6, 402054, Note_on_c, 0, 50, 0
6, 402060, Note_on_c, 0, 50, 36
6, 402060, Note_on_c, 0, 45, 36
6, 402114, Note_on_c, 0, 45, 0
6, 402114, Note_on_c, 0, 50, 0
6, 402120, Note_on_c, 0, 50, 34
6, 402120, Note_on_c, 0, 45, 34
6, 402174, Note_on_c, 0, 45, 0
6, 402174, Note_on_c, 0, 50, 0
6, 402180, Note_on_c, 0, 50, 32
6, 402180, Note_on_c, 0, 45, 32
6, 402234, Note_on_c, 0, 45, 0
6, 402234, Note_on_c, 0, 50, 0
6, 402240, Note_on_c, 0, 48, 40
6, 402240, Note_on_c, 0, 50, 40
6, 402294, Note_on_c, 0, 50, 0
6, 402294, Note_on_c, 0, 48, 0
6, 402300, Note_on_c, 0, 48, 58
6, 402300, Note_on_c, 0, 50, 58
6, 402354, Note_on_c, 0, 50, 0
6, 402354, Note_on_c, 0, 48, 0
6, 402360, Note_on_c, 0, 48, 56
6, 402360, Note_on_c, 0, 50, 56
6, 402414, Note_on_c, 0, 50, 0
6, 402414, Note_on_c, 0, 48, 0
6, 402420, Note_on_c, 0, 48, 55
6, 402420, Note_on_c, 0, 50, 55
6, 402474, Note_on_c, 0, 50, 0
6, 402474, Note_on_c, 0, 48, 0
6, 402480, Note_on_c, 0, 50, 53
6, 402480, Note_on_c, 0, 48, 53
6, 402534, Note_on_c, 0, 48, 0
6, 402534, Note_on_c, 0, 50, 0
6, 402540, Note_on_c, 0, 50, 52
6, 402540, Note_on_c, 0, 48, 52
6, 402594, Note_on_c, 0, 48, 0
6, 402594, Note_on_c, 0, 50, 0
6, 402600, Note_on_c, 0, 50, 51
6, 402600, Note_on_c, 0, 48, 51
6, 402654, Note_on_c, 0, 48, 0
6, 402654, Note_on_c, 0, 50, 0
6, 402660, Note_on_c, 0, 50, 48
6, 402660, Note_on_c, 0, 48, 48
6, 402714, Note_on_c, 0, 48, 0
6, 402714, Note_on_c, 0, 50, 0
6, 402720, Note_on_c, 0, 47, 48
6, 402720, Note_on_c, 0, 50, 48
6, 402774, Note_on_c, 0, 50, 0
6, 402774, Note_on_c, 0, 47, 0
6, 402780, Note_on_c, 0, 47, 46
6, 402780, Note_on_c, 0, 50, 46
6, 402834, Note_on_c, 0, 50, 0
6, 402834, Note_on_c, 0, 47, 0
6, 402840, Note_on_c, 0, 47, 44
6, 402840, Note_on_c, 0, 50, 44
6, 402894, Note_on_c, 0, 50, 0
6, 402894, Note_on_c, 0, 47, 0
6, 402900, Note_on_c, 0, 47, 43
6, 402900, Note_on_c, 0, 50, 43
6, 402954, Note_on_c, 0, 50, 0
6, 402954, Note_on_c, 0, 47, 0
6, 402960, Note_on_c, 0, 50, 41
6, 402960, Note_on_c, 0, 45, 41
6, 403014, Note_on_c, 0, 45, 0
6, 403014, Note_on_c, 0, 50, 0
6, 403020, Note_on_c, 0, 45, 40
6, 403020, Note_on_c, 0, 50, 40
6, 403074, Note_on_c, 0, 50, 0
6, 403074, Note_on_c, 0, 45, 0
6, 403080, Note_on_c, 0, 45, 38
6, 403080, Note_on_c, 0, 50, 38
6, 403134, Note_on_c, 0, 50, 0
6, 403134, Note_on_c, 0, 45, 0
6, 403140, Note_on_c, 0, 50, 36
6, 403140, Note_on_c, 0, 45, 36
6, 403194, Note_on_c, 0, 45, 0
6, 403194, Note_on_c, 0, 50, 0
6, 403200, Note_on_c, 0, 51, 58
6, 403200, Note_on_c, 0, 48, 58
6, 403254, Note_on_c, 0, 48, 0
6, 403254, Note_on_c, 0, 51, 0
6, 403260, Note_on_c, 0, 51, 57
6, 403260, Note_on_c, 0, 48, 57
6, 403314, Note_on_c, 0, 48, 0
6, 403314, Note_on_c, 0, 51, 0
6, 403320, Note_on_c, 0, 48, 56
6, 403320, Note_on_c, 0, 51, 56
6, 403374, Note_on_c, 0, 51, 0
6, 403374, Note_on_c, 0, 48, 0
6, 403380, Note_on_c, 0, 48, 54
6, 403380, Note_on_c, 0, 51, 54
6, 403434, Note_on_c, 0, 51, 0
6, 403434, Note_on_c, 0, 48, 0
6, 403440, Note_on_c, 0, 48, 53
6, 403440, Note_on_c, 0, 51, 53
6, 403494, Note_on_c, 0, 51, 0
6, 403494, Note_on_c, 0, 48, 0
6, 403500, Note_on_c, 0, 48, 52
6, 403500, Note_on_c, 0, 51, 52
6, 403554, Note_on_c, 0, 51, 0
6, 403554, Note_on_c, 0, 48, 0
6, 403560, Note_on_c, 0, 48, 51
6, 403560, Note_on_c, 0, 51, 51
6, 403614, Note_on_c, 0, 51, 0
6, 403614, Note_on_c, 0, 48, 0
6, 403620, Note_on_c, 0, 51, 49
6, 403620, Note_on_c, 0, 48, 49
6, 403674, Note_on_c, 0, 48, 0
6, 403674, Note_on_c, 0, 51, 0
6, 403680, Note_on_c, 0, 50, 48
6, 403680, Note_on_c, 0, 47, 48
6, 403734, Note_on_c, 0, 47, 0
6, 403734, Note_on_c, 0, 50, 0
6, 403740, Note_on_c, 0, 47, 47
6, 403740, Note_on_c, 0, 50, 47
6, 403794, Note_on_c, 0, 50, 0
6, 403794, Note_on_c, 0, 47, 0
6, 403800, Note_on_c, 0, 50, 45
6, 403800, Note_on_c, 0, 47, 45
6, 403854, Note_on_c, 0, 47, 0
6, 403854, Note_on_c, 0, 50, 0
6, 403860, Note_on_c, 0, 47, 44
6, 403860, Note_on_c, 0, 50, 44
6, 403914, Note_on_c, 0, 50, 0
6, 403914, Note_on_c, 0, 47, 0
6, 403920, Note_on_c, 0, 45, 42
6, 403920, Note_on_c, 0, 50, 42
6, 403974, Note_on_c, 0, 50, 0
6, 403974, Note_on_c, 0, 45, 0
6, 403980, Note_on_c, 0, 50, 41
6, 403980, Note_on_c, 0, 45, 41
6, 404034, Note_on_c, 0, 45, 0
6, 404034, Note_on_c, 0, 50, 0
6, 404040, Note_on_c, 0, 50, 40
6, 404040, Note_on_c, 0, 45, 40
6, 404094, Note_on_c, 0, 45, 0
6, 404094, Note_on_c, 0, 50, 0
6, 404100, Note_on_c, 0, 50, 48
6, 404100, Note_on_c, 0, 45, 48
6, 404154, Note_on_c, 0, 45, 0
6, 404154, Note_on_c, 0, 50, 0
6, 404160, Note_on_c, 0, 52, 64
6, 405000, Control_c, 0, 64, 0
6, 405024, Note_on_c, 0, 52, 0
6, 405563, Control_c, 0, 64, 127
6, 405600, Note_on_c, 0, 47, 49
6, 405654, Note_on_c, 0, 47, 0
6, 405660, Note_on_c, 0, 45, 50
6, 405714, Note_on_c, 0, 45, 0
6, 405720, Note_on_c, 0, 47, 51
6, 405774, Note_on_c, 0, 47, 0
6, 405780, Note_on_c, 0, 45, 51
6, 405834, Note_on_c, 0, 45, 0
6, 405840, Note_on_c, 0, 47, 52
6, 405894, Note_on_c, 0, 47, 0
6, 405900, Note_on_c, 0, 45, 53
6, 405954, Note_on_c, 0, 45, 0
6, 405960, Note_on_c, 0, 47, 53
6, 406014, Note_on_c, 0, 47, 0
6, 406020, Note_on_c, 0, 45, 54
6, 406074, Note_on_c, 0, 45, 0
6, 406080, Note_on_c, 0, 49, 55
6, 406134, Note_on_c, 0, 49, 0
6, 406140, Note_on_c, 0, 45, 55
6, 406194, Note_on_c, 0, 45, 0
6, 406200, Note_on_c, 0, 49, 56
6, 406254, Note_on_c, 0, 49, 0
6, 406260, Note_on_c, 0, 45, 57
6, 406314, Note_on_c, 0, 45, 0
6, 406320, Note_on_c, 0, 49, 57
6, 406374, Note_on_c, 0, 49, 0
6, 406380, Note_on_c, 0, 45, 58
6, 406434, Note_on_c, 0, 45, 0
6, 406440, Note_on_c, 0, 49, 59
6, 406494, Note_on_c, 0, 49, 0
6, 406500, Note_on_c, 0, 45, 59
6, 406554, Note_on_c, 0, 45, 0
6, 406560, Note_on_c, 0, 50, 60
6, 406614, Note_on_c, 0, 50, 0
6, 406620, Note_on_c, 0, 45, 61
6, 406674, Note_on_c, 0, 45, 0
6, 406680, Note_on_c, 0, 50, 61
6, 406734, Note_on_c, 0, 50, 0
6, 406740, Note_on_c, 0, 45, 62
6, 406794, Note_on_c, 0, 45, 0
6, 406800, Note_on_c, 0, 50, 63
6, 406854, Note_on_c, 0, 50, 0
6, 406860, Note_on_c, 0, 45, 63
6, 406914, Note_on_c, 0, 45, 0
6, 406920, Note_on_c, 0, 50, 64
6, 406974, Note_on_c, 0, 50, 0
6, 406980, Note_on_c, 0, 45, 65
6, 407034, Note_on_c, 0, 45, 0
6, 407040, Note_on_c, 0, 55, 66
6, 407099, Note_on_c, 0, 55, 0
6, 407100, Note_on_c, 0, 45, 66
6, 407159, Note_on_c, 0, 45, 0
6, 407160, Note_on_c, 0, 55, 65
6, 407219, Note_on_c, 0, 55, 0
6, 407220, Note_on_c, 0, 45, 65
6, 407279, Note_on_c, 0, 45, 0
6, 407280, Note_on_c, 0, 55, 64
6, 407339, Note_on_c, 0, 55, 0
6, 407340, Note_on_c, 0, 45, 64
6, 407399, Note_on_c, 0, 45, 0
6, 407400, Note_on_c, 0, 55, 63
6, 407459, Note_on_c, 0, 55, 0
6, 407460, Note_on_c, 0, 45, 63
6, 407519, Note_on_c, 0, 45, 0
6, 407520, Note_on_c, 0, 54, 62
6, 407579, Note_on_c, 0, 54, 0
6, 407580, Note_on_c, 0, 45, 62
6, 407639, Note_on_c, 0, 45, 0
6, 407640, Note_on_c, 0, 54, 61
6, 407699, Note_on_c, 0, 54, 0
6, 407700, Note_on_c, 0, 45, 60
6, 407759, Note_on_c, 0, 45, 0
6, 407760, Note_on_c, 0, 54, 60
6, 407819, Note_on_c, 0, 54, 0
6, 407820, Note_on_c, 0, 45, 59
6, 407879, Note_on_c, 0, 45, 0
6, 407880, Note_on_c, 0, 54, 59
6, 407939, Note_on_c, 0, 54, 0
6, 407940, Note_on_c, 0, 45, 58
6, 407994, Note_on_c, 0, 45, 0
6, 408000, Note_on_c, 0, 53, 58
6, 408059, Note_on_c, 0, 53, 0
6, 408060, Note_on_c, 0, 45, 58
6, 408119, Note_on_c, 0, 45, 0
6, 408120, Note_on_c, 0, 53, 57
6, 408179, Note_on_c, 0, 53, 0
6, 408180, Note_on_c, 0, 45, 56
6, 408239, Note_on_c, 0, 45, 0
6, 408240, Note_on_c, 0, 53, 55
6, 408299, Note_on_c, 0, 53, 0
6, 408300, Note_on_c, 0, 45, 54
6, 408359, Note_on_c, 0, 45, 0
6, 408360, Note_on_c, 0, 53, 54
6, 408419, Note_on_c, 0, 53, 0
6, 408420, Note_on_c, 0, 45, 53
6, 408479, Note_on_c, 0, 45, 0
6, 408480, Note_on_c, 0, 52, 52
6, 408495, Control_c, 0, 64, 0
6, 408539, Note_on_c, 0, 52, 0
6, 408540, Note_on_c, 0, 45, 51
6, 408599, Note_on_c, 0, 45, 0
6, 408600, Note_on_c, 0, 52, 50
6, 408659, Note_on_c, 0, 52, 0
6, 408660, Note_on_c, 0, 45, 50
6, 408719, Note_on_c, 0, 45, 0
6, 408720, Note_on_c, 0, 52, 49
6, 408779, Note_on_c, 0, 52, 0
6, 408780, Note_on_c, 0, 45, 48
6, 408839, Note_on_c, 0, 45, 0
6, 408840, Note_on_c, 0, 52, 47
6, 408899, Note_on_c, 0, 52, 0
6, 408900, Note_on_c, 0, 45, 28
6, 408954, Note_on_c, 0, 45, 0
6, 408960, Note_on_c, 0, 50, 28
6, 409019, Note_on_c, 0, 50, 0
6, 409020, Note_on_c, 0, 45, 28
6, 409050, Control_c, 0, 64, 127
6, 409079, Note_on_c, 0, 45, 0
6, 409080, Note_on_c, 0, 50, 27
6, 409139, Note_on_c, 0, 50, 0
6, 409140, Note_on_c, 0, 45, 27
6, 409199, Note_on_c, 0, 45, 0
6, 409200, Note_on_c, 0, 50, 27
6, 409259, Note_on_c, 0, 50, 0
6, 409260, Note_on_c, 0, 45, 28
6, 409319, Note_on_c, 0, 45, 0
6, 409320, Note_on_c, 0, 50, 28
6, 409379, Note_on_c, 0, 50, 0
6, 409380, Note_on_c, 0, 45, 28
6, 409439, Note_on_c, 0, 45, 0
6, 409440, Note_on_c, 0, 50, 28
6, 409499, Note_on_c, 0, 50, 0
6, 409500, Note_on_c, 0, 45, 28
6, 409559, Note_on_c, 0, 45, 0
6, 409560, Note_on_c, 0, 50, 28
6, 409619, Note_on_c, 0, 50, 0
6, 409620, Note_on_c, 0, 45, 28
6, 409679, Note_on_c, 0, 45, 0
6, 409680, Note_on_c, 0, 50, 29
6, 409739, Note_on_c, 0, 50, 0
6, 409740, Note_on_c, 0, 45, 29
6, 409799, Note_on_c, 0, 45, 0
6, 409800, Note_on_c, 0, 50, 30
6, 409859, Note_on_c, 0, 50, 0
6, 409860, Note_on_c, 0, 45, 30
6, 409914, Note_on_c, 0, 45, 0
6, 409920, Note_on_c, 0, 48, 31
6, 409979, Note_on_c, 0, 48, 0
6, 409980, Note_on_c, 0, 45, 31
6, 410039, Note_on_c, 0, 45, 0
6, 410040, Note_on_c, 0, 48, 31
6, 410099, Note_on_c, 0, 48, 0
6, 410100, Note_on_c, 0, 45, 32
6, 410159, Note_on_c, 0, 45, 0
6, 410160, Note_on_c, 0, 48, 32
6, 410219, Note_on_c, 0, 48, 0
6, 410220, Note_on_c, 0, 45, 32
6, 410279, Note_on_c, 0, 45, 0
6, 410280, Note_on_c, 0, 48, 32
6, 410339, Note_on_c, 0, 48, 0
6, 410340, Note_on_c, 0, 45, 32
6, 410399, Note_on_c, 0, 45, 0
6, 410400, Note_on_c, 0, 48, 32
6, 410459, Note_on_c, 0, 48, 0
6, 410460, Note_on_c, 0, 45, 32
6, 410519, Note_on_c, 0, 45, 0
6, 410520, Note_on_c, 0, 48, 33
6, 410579, Note_on_c, 0, 48, 0
6, 410580, Note_on_c, 0, 45, 33
6, 410639, Note_on_c, 0, 45, 0
6, 410640, Note_on_c, 0, 48, 34
6, 410699, Note_on_c, 0, 48, 0
6, 410700, Note_on_c, 0, 45, 34
6, 410759, Note_on_c, 0, 45, 0
6, 410760, Note_on_c, 0, 48, 35
6, 410819, Note_on_c, 0, 48, 0
6, 410820, Note_on_c, 0, 45, 35
6, 410874, Note_on_c, 0, 45, 0
6, 410880, Note_on_c, 0, 47, 35
6, 410939, Note_on_c, 0, 47, 0
6, 410940, Note_on_c, 0, 45, 35
6, 410999, Note_on_c, 0, 45, 0
6, 411000, Note_on_c, 0, 47, 35
6, 411059, Note_on_c, 0, 47, 0
6, 411060, Note_on_c, 0, 45, 36
6, 411119, Note_on_c, 0, 45, 0
6, 411120, Note_on_c, 0, 47, 36
6, 411179, Note_on_c, 0, 47, 0
6, 411180, Note_on_c, 0, 45, 36
6, 411239, Note_on_c, 0, 45, 0
6, 411240, Note_on_c, 0, 47, 36
6, 411299, Note_on_c, 0, 47, 0
6, 411300, Note_on_c, 0, 45, 36
6, 411359, Note_on_c, 0, 45, 0
6, 411360, Note_on_c, 0, 47, 37
6, 411419, Note_on_c, 0, 47, 0
6, 411420, Note_on_c, 0, 45, 37
6, 411479, Note_on_c, 0, 45, 0
6, 411480, Note_on_c, 0, 47, 38
6, 411539, Note_on_c, 0, 47, 0
6, 411540, Note_on_c, 0, 45, 38
6, 411599, Note_on_c, 0, 45, 0
6, 411600, Note_on_c, 0, 47, 38
6, 411659, Note_on_c, 0, 47, 0
6, 411660, Note_on_c, 0, 45, 38
6, 411719, Note_on_c, 0, 45, 0
6, 411720, Note_on_c, 0, 47, 38
6, 411779, Note_on_c, 0, 47, 0
6, 411780, Note_on_c, 0, 45, 39
6, 411834, Note_on_c, 0, 45, 0
6, 411840, Note_on_c, 0, 57, 39
6, 411899, Note_on_c, 0, 57, 0
6, 411900, Note_on_c, 0, 45, 40
6, 411959, Note_on_c, 0, 45, 0
6, 411960, Note_on_c, 0, 57, 40
6, 412019, Note_on_c, 0, 57, 0
6, 412020, Note_on_c, 0, 45, 40
6, 412079, Note_on_c, 0, 45, 0
6, 412080, Note_on_c, 0, 57, 40
6, 412139, Note_on_c, 0, 57, 0
6, 412140, Note_on_c, 0, 45, 40
6, 412199, Note_on_c, 0, 45, 0
6, 412200, Note_on_c, 0, 57, 40
6, 412259, Note_on_c, 0, 57, 0
6, 412260, Note_on_c, 0, 45, 40
6, 412319, Note_on_c, 0, 45, 0
6, 412320, Note_on_c, 0, 57, 40
6, 412379, Note_on_c, 0, 57, 0
6, 412380, Note_on_c, 0, 45, 40
6, 412439, Note_on_c, 0, 45, 0
6, 412440, Note_on_c, 0, 57, 40
6, 412499, Note_on_c, 0, 57, 0
6, 412500, Note_on_c, 0, 45, 40
6, 412559, Note_on_c, 0, 45, 0
6, 412560, Note_on_c, 0, 57, 40
6, 412619, Note_on_c, 0, 57, 0
6, 412620, Note_on_c, 0, 45, 40
6, 412679, Note_on_c, 0, 45, 0
6, 412680, Note_on_c, 0, 57, 40
6, 412739, Note_on_c, 0, 57, 0
6, 412740, Note_on_c, 0, 45, 40
6, 412794, Note_on_c, 0, 45, 0
6, 412800, Note_on_c, 0, 57, 40
6, 412859, Note_on_c, 0, 57, 0
6, 412860, Note_on_c, 0, 45, 40
6, 412919, Note_on_c, 0, 45, 0
6, 412920, Note_on_c, 0, 57, 41
6, 412979, Note_on_c, 0, 57, 0
6, 412980, Note_on_c, 0, 45, 41
6, 413039, Note_on_c, 0, 45, 0
6, 413040, Note_on_c, 0, 57, 41
6, 413099, Note_on_c, 0, 57, 0
6, 413100, Note_on_c, 0, 45, 41
6, 413159, Note_on_c, 0, 45, 0
6, 413160, Note_on_c, 0, 57, 42
6, 413219, Note_on_c, 0, 57, 0
6, 413220, Note_on_c, 0, 45, 43
6, 413279, Note_on_c, 0, 45, 0
6, 413280, Note_on_c, 0, 50, 43
6, 413339, Note_on_c, 0, 50, 0
6, 413340, Note_on_c, 0, 45, 44
6, 413399, Note_on_c, 0, 45, 0
6, 413400, Note_on_c, 0, 50, 44
6, 413459, Note_on_c, 0, 50, 0
6, 413460, Note_on_c, 0, 45, 44
6, 413519, Note_on_c, 0, 45, 0
6, 413520, Note_on_c, 0, 50, 44
6, 413579, Note_on_c, 0, 50, 0
6, 413580, Note_on_c, 0, 45, 44
6, 413639, Note_on_c, 0, 45, 0
6, 413640, Note_on_c, 0, 50, 45
6, 413699, Note_on_c, 0, 50, 0
6, 413700, Note_on_c, 0, 45, 45
6, 413754, Note_on_c, 0, 45, 0
6, 413760, Note_on_c, 0, 50, 46
6, 413819, Note_on_c, 0, 50, 0
6, 413820, Note_on_c, 0, 45, 46
6, 413879, Note_on_c, 0, 45, 0
6, 413880, Note_on_c, 0, 50, 47
6, 413939, Note_on_c, 0, 50, 0
6, 413940, Note_on_c, 0, 45, 48
6, 413999, Note_on_c, 0, 45, 0
6, 414000, Note_on_c, 0, 50, 48
6, 414059, Note_on_c, 0, 50, 0
6, 414060, Note_on_c, 0, 45, 48
6, 414119, Note_on_c, 0, 45, 0
6, 414120, Note_on_c, 0, 50, 48
6, 414179, Note_on_c, 0, 50, 0
6, 414180, Note_on_c, 0, 45, 48
6, 414239, Note_on_c, 0, 45, 0
6, 414240, Note_on_c, 0, 50, 49
6, 414299, Note_on_c, 0, 50, 0
6, 414300, Note_on_c, 0, 45, 49
6, 414359, Note_on_c, 0, 45, 0
6, 414360, Note_on_c, 0, 50, 50
6, 414419, Note_on_c, 0, 50, 0
6, 414420, Note_on_c, 0, 45, 50
6, 414479, Note_on_c, 0, 45, 0
6, 414480, Note_on_c, 0, 50, 51
6, 414539, Note_on_c, 0, 50, 0
6, 414540, Note_on_c, 0, 45, 51
6, 414599, Note_on_c, 0, 45, 0
6, 414600, Note_on_c, 0, 50, 51
6, 414659, Note_on_c, 0, 50, 0
6, 414660, Note_on_c, 0, 45, 41
6, 414714, Note_on_c, 0, 45, 0
6, 414720, Note_on_c, 0, 52, 51
6, 414779, Note_on_c, 0, 52, 0
6, 414780, Note_on_c, 0, 50, 50
6, 414839, Note_on_c, 0, 50, 0
6, 414840, Note_on_c, 0, 52, 48
6, 414899, Note_on_c, 0, 52, 0
6, 414900, Note_on_c, 0, 50, 48
6, 414959, Note_on_c, 0, 50, 0
6, 414960, Note_on_c, 0, 52, 47
6, 415019, Note_on_c, 0, 52, 0
6, 415020, Note_on_c, 0, 50, 45
6, 415079, Note_on_c, 0, 50, 0
6, 415080, Note_on_c, 0, 52, 44
6, 415139, Note_on_c, 0, 52, 0
6, 415140, Note_on_c, 0, 50, 44
6, 415199, Note_on_c, 0, 50, 0
6, 415200, Note_on_c, 0, 52, 42
6, 415259, Note_on_c, 0, 52, 0
6, 415260, Note_on_c, 0, 50, 41
6, 415319, Note_on_c, 0, 50, 0
6, 415320, Note_on_c, 0, 52, 40
6, 415379, Note_on_c, 0, 52, 0
6, 415380, Note_on_c, 0, 50, 39
6, 415439, Note_on_c, 0, 50, 0
6, 415440, Note_on_c, 0, 52, 38
6, 415499, Note_on_c, 0, 52, 0
6, 415500, Note_on_c, 0, 50, 37
6, 415559, Note_on_c, 0, 50, 0
6, 415560, Note_on_c, 0, 52, 36
6, 415619, Note_on_c, 0, 52, 0
6, 415620, Note_on_c, 0, 50, 35
6, 415674, Note_on_c, 0, 50, 0
6, 415680, Note_on_c, 0, 52, 34
6, 415739, Note_on_c, 0, 52, 0
6, 415740, Note_on_c, 0, 45, 44
6, 415799, Note_on_c, 0, 45, 0
6, 415800, Note_on_c, 0, 52, 44
6, 415859, Note_on_c, 0, 52, 0
6, 415860, Note_on_c, 0, 45, 43
6, 415919, Note_on_c, 0, 45, 0
6, 415920, Note_on_c, 0, 52, 42
6, 415979, Note_on_c, 0, 52, 0
6, 415980, Note_on_c, 0, 45, 41
6, 416039, Note_on_c, 0, 45, 0
6, 416040, Note_on_c, 0, 52, 40
6, 416099, Note_on_c, 0, 52, 0
6, 416100, Note_on_c, 0, 45, 39
6, 416159, Note_on_c, 0, 45, 0
6, 416160, Note_on_c, 0, 52, 38
6, 416219, Note_on_c, 0, 52, 0
6, 416220, Note_on_c, 0, 45, 38
6, 416279, Note_on_c, 0, 45, 0
6, 416280, Note_on_c, 0, 52, 36
6, 416339, Note_on_c, 0, 52, 0
6, 416340, Note_on_c, 0, 45, 35
6, 416399, Note_on_c, 0, 45, 0
6, 416400, Note_on_c, 0, 52, 35
6, 416459, Note_on_c, 0, 52, 0
6, 416460, Note_on_c, 0, 45, 34
6, 416519, Note_on_c, 0, 45, 0
6, 416520, Note_on_c, 0, 52, 33
6, 416579, Note_on_c, 0, 52, 0
6, 416580, Note_on_c, 0, 45, 28
6, 416634, Note_on_c, 0, 45, 0
6, 416640, Note_on_c, 0, 48, 45
6, 416699, Note_on_c, 0, 48, 0
6, 416700, Note_on_c, 0, 50, 44
6, 416759, Note_on_c, 0, 50, 0
6, 416760, Note_on_c, 0, 48, 44
6, 416819, Note_on_c, 0, 48, 0
6, 416820, Note_on_c, 0, 50, 43
6, 416879, Note_on_c, 0, 50, 0
6, 416880, Note_on_c, 0, 48, 42
6, 416939, Note_on_c, 0, 48, 0
6, 416940, Note_on_c, 0, 50, 41
6, 416999, Note_on_c, 0, 50, 0
6, 417000, Note_on_c, 0, 48, 40
6, 417059, Note_on_c, 0, 48, 0
6, 417060, Note_on_c, 0, 50, 39
6, 417119, Note_on_c, 0, 50, 0
6, 417120, Note_on_c, 0, 47, 38
6, 417120, Note_on_c, 0, 50, 38
6, 417179, Note_on_c, 0, 50, 0
6, 417179, Note_on_c, 0, 47, 0
6, 417180, Note_on_c, 0, 47, 38
6, 417180, Note_on_c, 0, 50, 38
6, 417239, Note_on_c, 0, 50, 0
6, 417239, Note_on_c, 0, 47, 0
6, 417240, Note_on_c, 0, 50, 36
6, 417240, Note_on_c, 0, 47, 36
6, 417299, Note_on_c, 0, 47, 0
6, 417299, Note_on_c, 0, 50, 0
6, 417300, Note_on_c, 0, 47, 35
6, 417300, Note_on_c, 0, 50, 35
6, 417359, Note_on_c, 0, 50, 0
6, 417359, Note_on_c, 0, 47, 0
6, 417360, Note_on_c, 0, 50, 35
6, 417360, Note_on_c, 0, 45, 35
6, 417419, Note_on_c, 0, 45, 0
6, 417419, Note_on_c, 0, 50, 0
6, 417420, Note_on_c, 0, 45, 34
6, 417420, Note_on_c, 0, 50, 34
6, 417479, Note_on_c, 0, 50, 0
6, 417479, Note_on_c, 0, 45, 0
6, 417480, Note_on_c, 0, 45, 33
6, 417480, Note_on_c, 0, 50, 33
6, 417539, Note_on_c, 0, 50, 0
6, 417539, Note_on_c, 0, 45, 0
6, 417540, Note_on_c, 0, 50, 36
6, 417540, Note_on_c, 0, 45, 36
6, 417594, Note_on_c, 0, 45, 0
6, 417594, Note_on_c, 0, 50, 0
6, 417600, Note_on_c, 0, 48, 45
6, 417659, Note_on_c, 0, 48, 0
6, 417660, Note_on_c, 0, 50, 44
6, 417719, Note_on_c, 0, 50, 0
6, 417720, Note_on_c, 0, 48, 44
6, 417779, Note_on_c, 0, 48, 0
6, 417780, Note_on_c, 0, 50, 42
6, 417839, Note_on_c, 0, 50, 0
6, 417840, Note_on_c, 0, 48, 41
6, 417899, Note_on_c, 0, 48, 0
6, 417900, Note_on_c, 0, 50, 40
6, 417959, Note_on_c, 0, 50, 0
6, 417960, Note_on_c, 0, 48, 40
6, 418019, Note_on_c, 0, 48, 0
6, 418020, Note_on_c, 0, 50, 39
6, 418079, Note_on_c, 0, 50, 0
6, 418080, Note_on_c, 0, 50, 38
6, 418080, Note_on_c, 0, 47, 38
6, 418139, Note_on_c, 0, 47, 0
6, 418139, Note_on_c, 0, 50, 0
6, 418140, Note_on_c, 0, 47, 36
6, 418140, Note_on_c, 0, 50, 36
6, 418199, Note_on_c, 0, 50, 0
6, 418199, Note_on_c, 0, 47, 0
6, 418200, Note_on_c, 0, 50, 36
6, 418200, Note_on_c, 0, 47, 36
6, 418259, Note_on_c, 0, 47, 0
6, 418259, Note_on_c, 0, 50, 0
6, 418260, Note_on_c, 0, 47, 35
6, 418260, Note_on_c, 0, 50, 35
6, 418319, Note_on_c, 0, 50, 0
6, 418319, Note_on_c, 0, 47, 0
6, 418320, Note_on_c, 0, 45, 34
6, 418320, Note_on_c, 0, 50, 34
6, 418379, Note_on_c, 0, 50, 0
6, 418379, Note_on_c, 0, 45, 0
6, 418380, Note_on_c, 0, 50, 33
6, 418380, Note_on_c, 0, 45, 33
6, 418439, Note_on_c, 0, 45, 0
6, 418439, Note_on_c, 0, 50, 0
6, 418440, Note_on_c, 0, 50, 32
6, 418440, Note_on_c, 0, 45, 32
6, 418499, Note_on_c, 0, 45, 0
6, 418499, Note_on_c, 0, 50, 0
6, 418500, Note_on_c, 0, 45, 46
6, 418500, Note_on_c, 0, 50, 46
6, 418554, Note_on_c, 0, 50, 0
6, 418554, Note_on_c, 0, 45, 0
6, 418560, Note_on_c, 0, 48, 45
6, 418619, Note_on_c, 0, 48, 0
6, 418620, Note_on_c, 0, 51, 44
6, 418679, Note_on_c, 0, 51, 0
6, 418680, Note_on_c, 0, 48, 44
6, 418739, Note_on_c, 0, 48, 0
6, 418740, Note_on_c, 0, 51, 42
6, 418799, Note_on_c, 0, 51, 0
6, 418800, Note_on_c, 0, 48, 41
6, 418859, Note_on_c, 0, 48, 0
6, 418860, Note_on_c, 0, 51, 40
6, 418919, Note_on_c, 0, 51, 0
6, 418920, Note_on_c, 0, 48, 40
6, 418979, Note_on_c, 0, 48, 0
6, 418980, Note_on_c, 0, 51, 39
6, 419039, Note_on_c, 0, 51, 0
6, 419040, Note_on_c, 0, 47, 38
6, 419040, Note_on_c, 0, 50, 38
6, 419099, Note_on_c, 0, 50, 0
6, 419099, Note_on_c, 0, 47, 0
6, 419100, Note_on_c, 0, 50, 36
6, 419100, Note_on_c, 0, 47, 36
6, 419159, Note_on_c, 0, 47, 0
6, 419159, Note_on_c, 0, 50, 0
6, 419160, Note_on_c, 0, 47, 36
6, 419160, Note_on_c, 0, 50, 36
6, 419219, Note_on_c, 0, 50, 0
6, 419219, Note_on_c, 0, 47, 0
6, 419220, Note_on_c, 0, 47, 35
6, 419220, Note_on_c, 0, 50, 35
6, 419279, Note_on_c, 0, 50, 0
6, 419279, Note_on_c, 0, 47, 0
6, 419280, Note_on_c, 0, 50, 34
6, 419280, Note_on_c, 0, 45, 34
6, 419339, Note_on_c, 0, 45, 0
6, 419339, Note_on_c, 0, 50, 0
6, 419340, Note_on_c, 0, 45, 33
6, 419340, Note_on_c, 0, 50, 33
6, 419399, Note_on_c, 0, 50, 0
6, 419399, Note_on_c, 0, 45, 0
6, 419400, Note_on_c, 0, 45, 32
6, 419400, Note_on_c, 0, 50, 32
6, 419459, Note_on_c, 0, 50, 0
6, 419459, Note_on_c, 0, 45, 0
6, 419460, Note_on_c, 0, 45, 46
6, 419460, Note_on_c, 0, 50, 46
6, 419514, Note_on_c, 0, 50, 0
6, 419514, Note_on_c, 0, 45, 0
6, 419520, Note_on_c, 0, 48, 57
6, 419579, Note_on_c, 0, 48, 0
6, 419580, Note_on_c, 0, 52, 56
6, 419639, Note_on_c, 0, 52, 0
6, 419640, Note_on_c, 0, 48, 55
6, 419699, Note_on_c, 0, 48, 0
6, 419700, Note_on_c, 0, 52, 53
6, 419759, Note_on_c, 0, 52, 0
6, 419760, Note_on_c, 0, 48, 52
6, 419819, Note_on_c, 0, 48, 0
6, 419820, Note_on_c, 0, 52, 51
6, 419879, Note_on_c, 0, 52, 0
6, 419880, Note_on_c, 0, 48, 50
6, 419939, Note_on_c, 0, 48, 0
6, 419940, Note_on_c, 0, 52, 49
6, 419999, Note_on_c, 0, 52, 0
6, 420000, Note_on_c, 0, 48, 48
6, 420059, Note_on_c, 0, 48, 0
6, 420060, Note_on_c, 0, 52, 46
6, 420119, Note_on_c, 0, 52, 0
6, 420120, Note_on_c, 0, 48, 45
6, 420179, Note_on_c, 0, 48, 0
6, 420180, Note_on_c, 0, 52, 44
6, 420239, Note_on_c, 0, 52, 0
6, 420240, Note_on_c, 0, 48, 43
6, 420299, Note_on_c, 0, 48, 0
6, 420300, Note_on_c, 0, 52, 42
6, 420359, Note_on_c, 0, 52, 0
6, 420360, Note_on_c, 0, 48, 40
6, 420419, Note_on_c, 0, 48, 0
6, 420420, Note_on_c, 0, 52, 46
6, 420474, Note_on_c, 0, 52, 0
6, 420480, Note_on_c, 0, 54, 46
6, 420539, Note_on_c, 0, 54, 0
6, 420540, Note_on_c, 0, 50, 46
6, 420599, Note_on_c, 0, 50, 0
6, 420600, Note_on_c, 0, 54, 46
6, 420659, Note_on_c, 0, 54, 0
6, 420660, Note_on_c, 0, 50, 46
6, 420719, Note_on_c, 0, 50, 0
6, 420720, Note_on_c, 0, 54, 46
6, 420779, Note_on_c, 0, 54, 0
6, 420780, Note_on_c, 0, 50, 47
6, 420839, Note_on_c, 0, 50, 0
6, 420840, Note_on_c, 0, 54, 47
6, 420899, Note_on_c, 0, 54, 0
6, 420900, Note_on_c, 0, 50, 47
6, 420959, Note_on_c, 0, 50, 0
6, 420960, Note_on_c, 0, 55, 47
6, 421019, Note_on_c, 0, 55, 0
6, 421020, Note_on_c, 0, 50, 47
6, 421079, Note_on_c, 0, 50, 0
6, 421080, Note_on_c, 0, 55, 47
6, 421139, Note_on_c, 0, 55, 0
6, 421140, Note_on_c, 0, 50, 48
6, 421199, Note_on_c, 0, 50, 0
6, 421200, Note_on_c, 0, 55, 48
6, 421259, Note_on_c, 0, 55, 0
6, 421260, Note_on_c, 0, 50, 48
6, 421319, Note_on_c, 0, 50, 0
6, 421320, Note_on_c, 0, 55, 48
6, 421379, Note_on_c, 0, 55, 0
6, 421380, Note_on_c, 0, 50, 48
6, 421434, Note_on_c, 0, 50, 0
6, 421440, Note_on_c, 0, 59, 49
6, 421499, Note_on_c, 0, 59, 0
6, 421500, Note_on_c, 0, 50, 50
6, 421559, Note_on_c, 0, 50, 0
6, 421560, Note_on_c, 0, 59, 52
6, 421619, Note_on_c, 0, 59, 0
6, 421620, Note_on_c, 0, 50, 54
6, 421679, Note_on_c, 0, 50, 0
6, 421680, Note_on_c, 0, 59, 55
6, 421739, Note_on_c, 0, 59, 0
6, 421740, Note_on_c, 0, 50, 57
6, 421799, Note_on_c, 0, 50, 0
6, 421800, Note_on_c, 0, 59, 59
6, 421859, Note_on_c, 0, 59, 0
6, 421860, Note_on_c, 0, 50, 60
6, 421919, Note_on_c, 0, 50, 0
6, 421920, Note_on_c, 0, 62, 62
6, 421979, Note_on_c, 0, 62, 0
6, 421980, Note_on_c, 0, 50, 63
6, 422039, Note_on_c, 0, 50, 0
6, 422040, Note_on_c, 0, 62, 65
6, 422099, Note_on_c, 0, 62, 0
6, 422100, Note_on_c, 0, 50, 67
6, 422159, Note_on_c, 0, 50, 0
6, 422160, Note_on_c, 0, 62, 69
6, 422219, Note_on_c, 0, 62, 0
6, 422220, Note_on_c, 0, 50, 70
6, 422279, Note_on_c, 0, 50, 0
6, 422280, Note_on_c, 0, 62, 72
6, 422339, Note_on_c, 0, 62, 0
6, 422340, Note_on_c, 0, 50, 73
6, 422394, Note_on_c, 0, 50, 0
6, 422400, Note_on_c, 0, 67, 77
6, 422459, Note_on_c, 0, 67, 0
6, 422460, Note_on_c, 0, 55, 76
6, 422519, Note_on_c, 0, 55, 0
6, 422520, Note_on_c, 0, 67, 74
6, 422579, Note_on_c, 0, 67, 0
6, 422580, Note_on_c, 0, 55, 73
6, 422639, Note_on_c, 0, 55, 0
6, 422640, Note_on_c, 0, 67, 72
6, 422699, Note_on_c, 0, 67, 0
6, 422700, Note_on_c, 0, 55, 71
6, 422759, Note_on_c, 0, 55, 0
6, 422760, Note_on_c, 0, 67, 69
6, 422819, Note_on_c, 0, 67, 0
6, 422820, Note_on_c, 0, 55, 68
6, 422879, Note_on_c, 0, 55, 0
6, 422880, Note_on_c, 0, 67, 67
6, 422939, Note_on_c, 0, 67, 0
6, 422940, Note_on_c, 0, 55, 66
6, 422999, Note_on_c, 0, 55, 0
6, 423000, Note_on_c, 0, 67, 64
6, 423059, Note_on_c, 0, 67, 0
6, 423060, Note_on_c, 0, 55, 63
6, 423119, Note_on_c, 0, 55, 0
6, 423120, Note_on_c, 0, 67, 62
6, 423179, Note_on_c, 0, 67, 0
6, 423180, Note_on_c, 0, 55, 61
6, 423239, Note_on_c, 0, 55, 0
6, 423240, Note_on_c, 0, 67, 59
6, 423299, Note_on_c, 0, 67, 0
6, 423300, Note_on_c, 0, 55, 58
6, 423354, Note_on_c, 0, 55, 0
6, 423360, Note_on_c, 0, 57, 57
6, 423419, Note_on_c, 0, 57, 0
6, 423420, Note_on_c, 0, 54, 54
6, 423479, Note_on_c, 0, 54, 0
6, 423480, Note_on_c, 0, 57, 50
6, 423539, Note_on_c, 0, 57, 0
6, 423540, Note_on_c, 0, 54, 48
6, 423599, Note_on_c, 0, 54, 0
6, 423600, Note_on_c, 0, 57, 44
6, 423659, Note_on_c, 0, 57, 0
6, 423660, Note_on_c, 0, 54, 43
6, 423719, Note_on_c, 0, 54, 0
6, 423720, Note_on_c, 0, 57, 39
6, 423779, Note_on_c, 0, 57, 0
6, 423780, Note_on_c, 0, 54, 37
6, 423839, Note_on_c, 0, 54, 0
6, 423840, Note_on_c, 0, 57, 35
6, 423855, Control_c, 0, 64, 0
6, 423899, Note_on_c, 0, 57, 0
6, 423900, Note_on_c, 0, 54, 32
6, 423959, Note_on_c, 0, 54, 0
6, 423960, Note_on_c, 0, 57, 30
6, 424019, Note_on_c, 0, 57, 0
6, 424020, Note_on_c, 0, 54, 28
6, 424079, Note_on_c, 0, 54, 0
6, 424080, Note_on_c, 0, 57, 26
6, 424139, Note_on_c, 0, 57, 0
6, 424140, Note_on_c, 0, 54, 24
6, 424199, Note_on_c, 0, 54, 0
6, 424200, Note_on_c, 0, 57, 22
6, 424259, Note_on_c, 0, 57, 0
6, 424260, Note_on_c, 0, 54, 21
6, 424287, Note_on_c, 0, 54, 0
6, 424320, Note_on_c, 0, 45, 30
6, 424440, Note_on_c, 0, 45, 0
6, 424560, Note_on_c, 0, 50, 51
6, 424800, Note_on_c, 0, 50, 0
6, 425040, Note_on_c, 0, 52, 51
6, 425070, Note_on_c, 0, 52, 0
6, 425100, Note_on_c, 0, 54, 51
6, 425130, Note_on_c, 0, 54, 0
6, 425160, Note_on_c, 0, 50, 51
6, 425190, Note_on_c, 0, 50, 0
6, 425220, Note_on_c, 0, 52, 51
6, 425247, Note_on_c, 0, 52, 0
6, 425280, Note_on_c, 0, 54, 51
6, 425400, Note_on_c, 0, 54, 0
6, 425520, Note_on_c, 0, 57, 51
6, 425640, Note_on_c, 0, 57, 0
6, 425760, Note_on_c, 0, 62, 64
6, 425820, Control_c, 0, 64, 127
6, 427860, Control_c, 0, 64, 0
6, 428004, Note_on_c, 0, 62, 0
6, 428040, Note_on_c, 0, 62, 64
6, 428040, Note_on_c, 0, 54, 64
6, 428148, Note_on_c, 0, 54, 0
6, 428148, Note_on_c, 0, 62, 0
6, 428160, Note_on_c, 0, 52, 64
6, 428160, Note_on_c, 0, 61, 64
6, 428160, Control_c, 0, 64, 127
6, 428268, Note_on_c, 0, 61, 0
6, 428268, Note_on_c, 0, 52, 0
6, 428280, Note_on_c, 0, 54, 64
6, 428280, Note_on_c, 0, 62, 64
6, 428388, Note_on_c, 0, 62, 0
6, 428388, Note_on_c, 0, 54, 0
6, 428400, Control_c, 0, 64, 0
6, 428400, Note_on_c, 0, 55, 64
6, 428400, Note_on_c, 0, 64, 64
6, 428454, Note_on_c, 0, 64, 0
6, 428454, Note_on_c, 0, 55, 0
6, 428520, Note_on_c, 0, 57, 64
6, 428520, Note_on_c, 0, 66, 64
6, 428574, Note_on_c, 0, 66, 0
6, 428574, Note_on_c, 0, 57, 0
6, 428640, Note_on_c, 0, 67, 64
6, 428640, Note_on_c, 0, 59, 64
6, 428748, Note_on_c, 0, 59, 0
6, 428748, Note_on_c, 0, 67, 0
6, 428760, Note_on_c, 0, 64, 64
6, 428760, Note_on_c, 0, 55, 64
6, 428868, Note_on_c, 0, 55, 0
6, 428868, Note_on_c, 0, 64, 0
6, 428880, Note_on_c, 0, 54, 64
6, 428880, Note_on_c, 0, 62, 64
6, 428934, Note_on_c, 0, 62, 0
6, 428934, Note_on_c, 0, 54, 0
6, 429000, Note_on_c, 0, 52, 64
6, 429000, Note_on_c, 0, 61, 64
6, 429054, Note_on_c, 0, 61, 0
6, 429054, Note_on_c, 0, 52, 0
6, 429120, Note_on_c, 0, 62, 64
6, 429120, Note_on_c, 0, 54, 64
6, 429140, Control_c, 0, 64, 127
6, 429228, Note_on_c, 0, 54, 0
6, 429228, Note_on_c, 0, 62, 0
6, 429240, Note_on_c, 0, 57, 64
6, 429240, Note_on_c, 0, 64, 64
6, 429348, Note_on_c, 0, 64, 0
6, 429348, Note_on_c, 0, 57, 0
6, 429360, Note_on_c, 0, 66, 64
6, 429360, Note_on_c, 0, 62, 64
6, 429414, Note_on_c, 0, 62, 0
6, 429414, Note_on_c, 0, 66, 0
6, 429480, Note_on_c, 0, 64, 64
6, 429480, Note_on_c, 0, 67, 64
6, 429534, Note_on_c, 0, 67, 0
6, 429534, Note_on_c, 0, 64, 0
6, 429600, Note_on_c, 0, 66, 64
6, 429600, Note_on_c, 0, 69, 64
6, 429708, Note_on_c, 0, 69, 0
6, 429708, Note_on_c, 0, 66, 0
6, 429720, Note_on_c, 0, 62, 64
6, 429720, Note_on_c, 0, 66, 64
6, 429828, Note_on_c, 0, 66, 0
6, 429828, Note_on_c, 0, 62, 0
6, 429840, Note_on_c, 0, 57, 64
6, 429840, Note_on_c, 0, 64, 64
6, 429894, Note_on_c, 0, 64, 0
6, 429894, Note_on_c, 0, 57, 0
6, 429960, Note_on_c, 0, 54, 64
6, 429960, Note_on_c, 0, 62, 64
6, 430014, Note_on_c, 0, 62, 0
6, 430014, Note_on_c, 0, 54, 0
6, 430080, Note_on_c, 0, 52, 64
6, 430080, Note_on_c, 0, 61, 64
6, 430100, Control_c, 0, 64, 0
6, 430188, Note_on_c, 0, 61, 0
6, 430188, Note_on_c, 0, 52, 0
6, 430200, Note_on_c, 0, 55, 64
6, 430308, Note_on_c, 0, 55, 0
6, 430320, Note_on_c, 0, 57, 64
6, 430374, Note_on_c, 0, 57, 0
6, 430440, Note_on_c, 0, 59, 64
6, 430494, Note_on_c, 0, 59, 0
6, 430560, Note_on_c, 0, 62, 64
6, 430668, Note_on_c, 0, 62, 0
6, 430680, Note_on_c, 0, 59, 64
6, 430788, Note_on_c, 0, 59, 0
6, 430800, Note_on_c, 0, 57, 64
6, 430854, Note_on_c, 0, 57, 0
6, 430920, Note_on_c, 0, 55, 64
6, 430974, Note_on_c, 0, 55, 0
6, 431040, Note_on_c, 0, 54, 64
6, 431040, Control_c, 0, 64, 127
6, 431148, Note_on_c, 0, 54, 0
6, 431160, Note_on_c, 0, 57, 64
6, 431268, Note_on_c, 0, 57, 0
6, 431280, Note_on_c, 0, 62, 64
6, 431334, Note_on_c, 0, 62, 0
6, 431400, Note_on_c, 0, 64, 64
6, 431454, Note_on_c, 0, 64, 0
6, 431520, Note_on_c, 0, 66, 64
6, 431736, Note_on_c, 0, 66, 0
6, 431760, Note_on_c, 0, 64, 64
6, 431814, Note_on_c, 0, 64, 0
6, 431880, Note_on_c, 0, 62, 64
6, 431934, Note_on_c, 0, 62, 0
6, 432000, Note_on_c, 0, 56, 64
6, 432432, Note_on_c, 0, 56, 0
6, 432516, Control_c, 0, 64, 0
6, 432960, Control_c, 0, 64, 127
6, 432960, Note_on_c, 0, 52, 70
6, 432960, Note_on_c, 0, 56, 70
6, 433068, Note_on_c, 0, 56, 0
6, 433068, Note_on_c, 0, 52, 0
6, 433080, Note_on_c, 0, 54, 73
6, 433080, Note_on_c, 0, 57, 73
6, 433188, Note_on_c, 0, 57, 0
6, 433188, Note_on_c, 0, 54, 0
6, 433200, Note_on_c, 0, 56, 77
6, 433200, Note_on_c, 0, 59, 77
6, 433254, Note_on_c, 0, 59, 0
6, 433254, Note_on_c, 0, 56, 0
6, 433320, Note_on_c, 0, 57, 81
6, 433320, Note_on_c, 0, 61, 81
6, 433374, Note_on_c, 0, 61, 0
6, 433374, Note_on_c, 0, 57, 0
6, 433440, Note_on_c, 0, 59, 85
6, 433440, Note_on_c, 0, 62, 85
6, 433494, Note_on_c, 0, 62, 0
6, 433494, Note_on_c, 0, 59, 0
6, 433560, Note_on_c, 0, 61, 89
6, 433560, Note_on_c, 0, 64, 89
6, 433614, Note_on_c, 0, 64, 0
6, 433614, Note_on_c, 0, 61, 0
6, 433635, Control_c, 0, 64, 0
6, 433680, Note_on_c, 0, 66, 90
6, 433680, Note_on_c, 0, 62, 90
6, 433734, Note_on_c, 0, 62, 0
6, 433734, Note_on_c, 0, 66, 0
6, 433800, Note_on_c, 0, 62, 80
6, 433800, Note_on_c, 0, 66, 80
6, 433854, Note_on_c, 0, 66, 0
6, 433854, Note_on_c, 0, 62, 0
6, 433920, Note_on_c, 0, 66, 69
6, 433920, Control_c, 0, 64, 127
6, 433920, Note_on_c, 0, 62, 69
6, 434399, Note_on_c, 0, 62, 0
6, 434399, Note_on_c, 0, 66, 0
6, 434400, Note_on_c, 0, 61, 67
6, 434400, Note_on_c, 0, 64, 67
6, 434832, Note_on_c, 0, 64, 0
6, 434832, Note_on_c, 0, 61, 0
6, 434880, Note_on_c, 0, 59, 64
6, 434880, Note_on_c, 0, 62, 64
6, 435359, Note_on_c, 0, 62, 0
6, 435359, Note_on_c, 0, 59, 0
6, 435360, Note_on_c, 0, 57, 62
6, 435360, Note_on_c, 0, 61, 62
6, 435792, Note_on_c, 0, 61, 0
6, 435792, Note_on_c, 0, 57, 0
6, 435840, Note_on_c, 0, 56, 59
6, 435840, Note_on_c, 0, 59, 59
6, 436319, Note_on_c, 0, 59, 0
6, 436319, Note_on_c, 0, 56, 0
6, 436320, Note_on_c, 0, 54, 56
6, 436320, Note_on_c, 0, 57, 56
6, 436752, Note_on_c, 0, 57, 0
6, 436752, Note_on_c, 0, 54, 0
6, 436800, Note_on_c, 0, 52, 53
6, 436800, Note_on_c, 0, 56, 53
6, 438624, Note_on_c, 0, 56, 0
6, 438624, Note_on_c, 0, 52, 0
6, 438720, Note_on_c, 0, 55, 45
6, 438720, Note_on_c, 0, 52, 45
6, 440519, Note_on_c, 0, 52, 0
6, 440519, Note_on_c, 0, 55, 0
6, 440520, Note_on_c, 0, 45, 59
6, 440628, Note_on_c, 0, 45, 0
6, 440640, Note_on_c, 0, 55, 63
6, 440999, Note_on_c, 0, 55, 0
6, 441000, Note_on_c, 0, 45, 61
6, 441119, Note_on_c, 0, 45, 0
6, 441120, Note_on_c, 0, 52, 72
6, 441479, Note_on_c, 0, 52, 0
6, 441480, Note_on_c, 0, 45, 57
6, 441588, Note_on_c, 0, 45, 0
6, 441600, Note_on_c, 0, 55, 63
6, 441959, Note_on_c, 0, 55, 0
6, 441960, Note_on_c, 0, 45, 59
6, 442079, Note_on_c, 0, 45, 0
6, 442080, Note_on_c, 0, 52, 71
6, 442439, Note_on_c, 0, 52, 0
6, 442440, Note_on_c, 0, 45, 59
6, 442548, Note_on_c, 0, 45, 0
6, 442560, Note_on_c, 0, 55, 72
6, 442560, Note_on_c, 0, 57, 72
6, 442560, Note_on_c, 0, 52, 72
6, 443318, Control_c, 0, 64, 127
6, 443399, Note_on_c, 0, 52, 0
6, 443399, Note_on_c, 0, 57, 0
6, 443399, Note_on_c, 0, 55, 0
6, 443400, Note_on_c, 0, 45, 64
6, 443508, Note_on_c, 0, 45, 0
6, 443520, Note_on_c, 0, 55, 79
6, 443520, Note_on_c, 0, 57, 79
6, 443520, Note_on_c, 0, 52, 79
6, 444039, Note_on_c, 0, 52, 0
6, 444039, Note_on_c, 0, 57, 0
6, 444039, Note_on_c, 0, 55, 0
6, 444040, Note_on_c, 0, 62, 82
6, 444079, Note_on_c, 0, 62, 0
6, 444080, Note_on_c, 0, 61, 80
6, 444119, Note_on_c, 0, 61, 0
6, 444120, Note_on_c, 0, 59, 79
6, 444159, Note_on_c, 0, 59, 0
6, 444160, Note_on_c, 0, 57, 78
6, 444199, Note_on_c, 0, 57, 0
6, 444200, Note_on_c, 0, 55, 77
6, 444239, Note_on_c, 0, 55, 0
6, 444240, Note_on_c, 0, 54, 76
6, 444279, Note_on_c, 0, 54, 0
6, 444280, Note_on_c, 0, 52, 74
6, 444285, Control_c, 0, 64, 0
6, 444319, Note_on_c, 0, 52, 0
6, 444320, Note_on_c, 0, 50, 73
6, 444359, Note_on_c, 0, 50, 0
6, 444360, Note_on_c, 0, 49, 72
6, 444399, Note_on_c, 0, 49, 0
6, 444400, Note_on_c, 0, 47, 71
6, 444439, Note_on_c, 0, 47, 0
6, 444440, Note_on_c, 0, 45, 84
6, 444458, Note_on_c, 0, 45, 0
6, 444480, Note_on_c, 0, 57, 105
6, 444540, Note_on_c, 0, 57, 0
6, 444600, Note_on_c, 0, 55, 95
6, 444660, Note_on_c, 0, 55, 0
6, 444720, Note_on_c, 0, 54, 94
6, 444780, Note_on_c, 0, 54, 0
6, 444840, Note_on_c, 0, 52, 93
6, 444900, Note_on_c, 0, 52, 0
6, 444960, Note_on_c, 0, 54, 92
6, 445020, Note_on_c, 0, 54, 0
6, 445080, Note_on_c, 0, 57, 91
6, 445140, Note_on_c, 0, 57, 0
6, 445200, Note_on_c, 0, 55, 87
6, 445260, Note_on_c, 0, 55, 0
6, 445320, Note_on_c, 0, 52, 87
6, 445374, Note_on_c, 0, 52, 0
6, 445440, Note_on_c, 0, 50, 86
6, 445500, Note_on_c, 0, 50, 0
6, 445560, Note_on_c, 0, 54, 86
6, 445620, Note_on_c, 0, 54, 0
6, 445680, Note_on_c, 0, 52, 85
6, 445740, Note_on_c, 0, 52, 0
6, 445800, Note_on_c, 0, 49, 85
6, 445860, Note_on_c, 0, 49, 0
6, 445920, Note_on_c, 0, 47, 85
6, 445980, Note_on_c, 0, 47, 0
6, 446040, Note_on_c, 0, 50, 84
6, 446100, Note_on_c, 0, 50, 0
6, 446160, Note_on_c, 0, 49, 84
6, 446220, Note_on_c, 0, 49, 0
6, 446280, Note_on_c, 0, 45, 83
6, 446334, Note_on_c, 0, 45, 0
6, 446400, Note_on_c, 0, 47, 83
6, 446519, Note_on_c, 0, 47, 0
6, 446520, Note_on_c, 0, 50, 83
6, 446639, Note_on_c, 0, 50, 0
6, 446640, Note_on_c, 0, 55, 82
6, 446759, Note_on_c, 0, 55, 0
6, 446760, Note_on_c, 0, 57, 82
6, 446879, Note_on_c, 0, 57, 0
6, 446880, Note_on_c, 0, 59, 81
6, 446999, Note_on_c, 0, 59, 0
6, 447000, Note_on_c, 0, 62, 81
6, 447119, Note_on_c, 0, 62, 0
6, 447120, Note_on_c, 0, 61, 80
6, 447239, Note_on_c, 0, 61, 0
6, 447240, Note_on_c, 0, 57, 76
6, 447348, Note_on_c, 0, 57, 0
6, 447360, Note_on_c, 0, 54, 78
6, 447479, Note_on_c, 0, 54, 0
6, 447480, Note_on_c, 0, 59, 79
6, 447599, Note_on_c, 0, 59, 0
6, 447600, Note_on_c, 0, 57, 79
6, 447719, Note_on_c, 0, 57, 0
6, 447720, Note_on_c, 0, 54, 80
6, 447839, Note_on_c, 0, 54, 0
6, 447840, Note_on_c, 0, 52, 81
6, 447959, Note_on_c, 0, 52, 0
6, 447960, Note_on_c, 0, 55, 81
6, 448079, Note_on_c, 0, 55, 0
6, 448080, Note_on_c, 0, 54, 81
6, 448199, Note_on_c, 0, 54, 0
6, 448200, Note_on_c, 0, 50, 82
6, 448308, Note_on_c, 0, 50, 0
6, 448320, Note_on_c, 0, 49, 82
6, 448368, Note_on_c, 0, 49, 0
6, 448440, Note_on_c, 0, 52, 84
6, 448488, Note_on_c, 0, 52, 0
6, 448560, Note_on_c, 0, 55, 84
6, 448608, Note_on_c, 0, 55, 0
6, 448680, Note_on_c, 0, 61, 85
6, 448728, Note_on_c, 0, 61, 0
6, 448800, Note_on_c, 0, 64, 86
6, 448848, Note_on_c, 0, 64, 0
6, 448920, Note_on_c, 0, 67, 86
6, 448968, Note_on_c, 0, 67, 0
6, 449040, Note_on_c, 0, 66, 86
6, 449088, Note_on_c, 0, 66, 0
6, 449160, Note_on_c, 0, 62, 87
6, 449203, Note_on_c, 0, 62, 0
6, 449280, Note_on_c, 0, 61, 87
6, 449328, Note_on_c, 0, 61, 0
6, 449400, Note_on_c, 0, 64, 88
6, 449448, Note_on_c, 0, 64, 0
6, 449520, Note_on_c, 0, 62, 90
6, 449568, Note_on_c, 0, 62, 0
6, 449640, Note_on_c, 0, 59, 90
6, 449688, Note_on_c, 0, 59, 0
6, 449760, Note_on_c, 0, 57, 91
6, 449808, Note_on_c, 0, 57, 0
6, 449880, Note_on_c, 0, 60, 91
6, 449928, Note_on_c, 0, 60, 0
6, 450000, Note_on_c, 0, 59, 91
6, 450048, Note_on_c, 0, 59, 0
6, 450120, Note_on_c, 0, 55, 92
6, 450163, Note_on_c, 0, 55, 0
6, 450240, Note_on_c, 0, 54, 92
6, 450288, Note_on_c, 0, 54, 0
6, 450360, Note_on_c, 0, 57, 93
6, 450408, Note_on_c, 0, 57, 0
6, 450480, Note_on_c, 0, 60, 94
6, 450528, Note_on_c, 0, 60, 0
6, 450600, Note_on_c, 0, 66, 94
6, 450648, Note_on_c, 0, 66, 0
6, 450720, Note_on_c, 0, 69, 96
6, 450768, Note_on_c, 0, 69, 0
6, 450840, Note_on_c, 0, 72, 96
6, 450883, Note_on_c, 0, 72, 0
6, 450960, Note_on_c, 0, 71, 96
6, 451008, Note_on_c, 0, 71, 0
6, 451080, Note_on_c, 0, 67, 97
6, 451123, Note_on_c, 0, 67, 0
6, 451200, Note_on_c, 0, 66, 94
6, 451248, Note_on_c, 0, 66, 0
6, 451320, Note_on_c, 0, 69, 93
6, 451368, Note_on_c, 0, 69, 0
6, 451440, Note_on_c, 0, 67, 92
6, 451488, Note_on_c, 0, 67, 0
6, 451560, Note_on_c, 0, 64, 91
6, 451608, Note_on_c, 0, 64, 0
6, 451680, Note_on_c, 0, 62, 91
6, 451728, Note_on_c, 0, 62, 0
6, 451800, Note_on_c, 0, 66, 90
6, 451848, Note_on_c, 0, 66, 0
6, 451920, Note_on_c, 0, 64, 88
6, 451968, Note_on_c, 0, 64, 0
6, 452040, Note_on_c, 0, 60, 88
6, 452083, Note_on_c, 0, 60, 0
6, 452160, Note_on_c, 0, 47, 92
6, 452160, Control_c, 0, 64, 127
6, 452268, Note_on_c, 0, 47, 0
6, 452280, Note_on_c, 0, 50, 89
6, 452388, Note_on_c, 0, 50, 0
6, 452400, Note_on_c, 0, 59, 89
6, 452508, Note_on_c, 0, 59, 0
6, 452880, Note_on_c, 0, 59, 98
6, 452988, Note_on_c, 0, 59, 0
6, 453000, Note_on_c, 0, 50, 96
6, 453108, Note_on_c, 0, 50, 0
6, 453120, Note_on_c, 0, 45, 94
6, 453120, Control_c, 0, 64, 0
6, 453228, Note_on_c, 0, 45, 0
6, 453240, Note_on_c, 0, 50, 92
6, 453348, Note_on_c, 0, 50, 0
6, 453360, Note_on_c, 0, 57, 89
6, 453468, Note_on_c, 0, 57, 0
6, 453720, Control_c, 0, 64, 127
6, 453840, Note_on_c, 0, 57, 96
6, 453948, Note_on_c, 0, 57, 0
6, 453960, Note_on_c, 0, 50, 94
6, 454068, Note_on_c, 0, 50, 0
6, 454080, Note_on_c, 0, 44, 92
6, 454188, Note_on_c, 0, 44, 0
6, 454200, Note_on_c, 0, 50, 90
6, 454308, Note_on_c, 0, 50, 0
6, 454320, Note_on_c, 0, 56, 88
6, 454428, Note_on_c, 0, 56, 0
6, 454680, Control_c, 0, 64, 0
6, 454749, Control_c, 0, 64, 127
6, 454800, Note_on_c, 0, 56, 93
6, 454908, Note_on_c, 0, 56, 0
6, 454920, Note_on_c, 0, 49, 91
6, 455028, Note_on_c, 0, 49, 0
6, 455040, Note_on_c, 0, 43, 88
6, 455148, Note_on_c, 0, 43, 0
6, 455160, Note_on_c, 0, 48, 86
6, 455268, Note_on_c, 0, 48, 0
6, 455280, Note_on_c, 0, 55, 84
6, 455388, Note_on_c, 0, 55, 0
6, 455709, Control_c, 0, 64, 0
6, 455760, Note_on_c, 0, 55, 89
6, 455777, Control_c, 0, 64, 127
6, 455868, Note_on_c, 0, 55, 0
6, 455880, Note_on_c, 0, 48, 93
6, 455988, Note_on_c, 0, 48, 0
6, 456000, Note_on_c, 0, 45, 92
6, 456108, Note_on_c, 0, 45, 0
6, 456120, Note_on_c, 0, 50, 91
6, 456228, Note_on_c, 0, 50, 0
6, 456240, Note_on_c, 0, 54, 89
6, 456348, Note_on_c, 0, 54, 0
6, 456480, Note_on_c, 0, 45, 93
6, 456588, Note_on_c, 0, 45, 0
6, 456600, Note_on_c, 0, 50, 91
6, 456708, Note_on_c, 0, 50, 0
6, 456720, Note_on_c, 0, 53, 89
6, 456737, Control_c, 0, 64, 0
6, 456828, Note_on_c, 0, 53, 0
6, 456960, Note_on_c, 0, 43, 97
6, 457068, Note_on_c, 0, 43, 0
6, 457080, Note_on_c, 0, 50, 95
6, 457188, Note_on_c, 0, 50, 0
6, 457200, Note_on_c, 0, 52, 92
6, 457308, Note_on_c, 0, 52, 0
6, 457440, Note_on_c, 0, 43, 96
6, 457548, Note_on_c, 0, 43, 0
6, 457560, Note_on_c, 0, 52, 95
6, 457668, Note_on_c, 0, 52, 0
6, 457680, Note_on_c, 0, 55, 93
6, 457788, Note_on_c, 0, 55, 0
6, 457920, Note_on_c, 0, 45, 97
6, 458028, Note_on_c, 0, 45, 0
6, 458040, Note_on_c, 0, 50, 92
6, 458148, Note_on_c, 0, 50, 0
6, 458160, Note_on_c, 0, 54, 89
6, 458268, Note_on_c, 0, 54, 0
6, 458400, Note_on_c, 0, 50, 91
6, 458508, Note_on_c, 0, 50, 0
6, 458520, Note_on_c, 0, 55, 85
6, 458628, Note_on_c, 0, 55, 0
6, 458640, Note_on_c, 0, 59, 79
6, 458748, Note_on_c, 0, 59, 0
6, 458880, Note_on_c, 0, 50, 87
6, 458999, Note_on_c, 0, 50, 0
6, 459000, Note_on_c, 0, 54, 83
6, 459119, Note_on_c, 0, 54, 0
6, 459120, Note_on_c, 0, 57, 80
6, 459359, Note_on_c, 0, 57, 0
6, 459360, Note_on_c, 0, 49, 82
6, 459479, Note_on_c, 0, 49, 0
6, 459480, Note_on_c, 0, 52, 78
6, 459599, Note_on_c, 0, 52, 0
6, 459600, Note_on_c, 0, 57, 75
6, 459708, Note_on_c, 0, 57, 0
6, 459840, Note_on_c, 0, 45, 77
6, 459959, Note_on_c, 0, 45, 0
6, 459960, Note_on_c, 0, 55, 77
6, 460079, Note_on_c, 0, 55, 0
6, 460080, Note_on_c, 0, 54, 72
6, 460199, Note_on_c, 0, 54, 0
6, 460200, Note_on_c, 0, 52, 72
6, 460319, Note_on_c, 0, 52, 0
6, 460320, Note_on_c, 0, 54, 72
6, 460439, Note_on_c, 0, 54, 0
6, 460440, Note_on_c, 0, 57, 72
6, 460559, Note_on_c, 0, 57, 0
6, 460560, Note_on_c, 0, 55, 72
6, 460679, Note_on_c, 0, 55, 0
6, 460680, Note_on_c, 0, 52, 72
6, 460788, Note_on_c, 0, 52, 0
6, 460800, Note_on_c, 0, 50, 72
6, 460919, Note_on_c, 0, 50, 0
6, 460920, Note_on_c, 0, 54, 72
6, 461039, Note_on_c, 0, 54, 0
6, 461040, Note_on_c, 0, 52, 72
6, 461159, Note_on_c, 0, 52, 0
6, 461160, Note_on_c, 0, 48, 73
6, 461279, Note_on_c, 0, 48, 0
6, 461280, Note_on_c, 0, 47, 73
6, 461399, Note_on_c, 0, 47, 0
6, 461400, Note_on_c, 0, 50, 73
6, 461519, Note_on_c, 0, 50, 0
6, 461520, Note_on_c, 0, 45, 73
6, 461639, Note_on_c, 0, 45, 0
6, 461640, Note_on_c, 0, 50, 73
6, 461748, Note_on_c, 0, 50, 0
6, 461880, Note_on_c, 0, 43, 74
6, 461999, Note_on_c, 0, 43, 0
6, 462000, Note_on_c, 0, 50, 74
6, 462119, Note_on_c, 0, 50, 0
6, 462120, Note_on_c, 0, 55, 74
6, 462239, Note_on_c, 0, 55, 0
6, 462240, Note_on_c, 0, 59, 74
6, 462359, Note_on_c, 0, 59, 0
6, 462360, Note_on_c, 0, 62, 75
6, 462479, Note_on_c, 0, 62, 0
6, 462480, Note_on_c, 0, 60, 75
6, 462599, Note_on_c, 0, 60, 0
6, 462600, Note_on_c, 0, 57, 75
6, 462708, Note_on_c, 0, 57, 0
6, 462720, Note_on_c, 0, 55, 75
6, 462839, Note_on_c, 0, 55, 0
6, 462840, Note_on_c, 0, 59, 75
6, 462959, Note_on_c, 0, 59, 0
6, 462960, Note_on_c, 0, 57, 76
6, 463079, Note_on_c, 0, 57, 0
6, 463080, Note_on_c, 0, 53, 76
6, 463199, Note_on_c, 0, 53, 0
6, 463200, Note_on_c, 0, 52, 76
6, 463319, Note_on_c, 0, 52, 0
6, 463320, Note_on_c, 0, 55, 76
6, 463439, Note_on_c, 0, 55, 0
6, 463440, Note_on_c, 0, 50, 76
6, 463559, Note_on_c, 0, 50, 0
6, 463560, Note_on_c, 0, 55, 76
6, 463668, Note_on_c, 0, 55, 0
6, 463680, Note_on_c, 0, 52, 76
6, 463799, Note_on_c, 0, 52, 0
6, 463800, Note_on_c, 0, 55, 76
6, 463919, Note_on_c, 0, 55, 0
6, 463920, Note_on_c, 0, 60, 76
6, 464039, Note_on_c, 0, 60, 0
6, 464040, Note_on_c, 0, 64, 76
6, 464159, Note_on_c, 0, 64, 0
6, 464160, Note_on_c, 0, 55, 76
6, 464279, Note_on_c, 0, 55, 0
6, 464280, Note_on_c, 0, 67, 76
6, 464399, Note_on_c, 0, 67, 0
6, 464400, Note_on_c, 0, 65, 76
6, 464519, Note_on_c, 0, 65, 0
6, 464520, Note_on_c, 0, 53, 76
6, 464628, Note_on_c, 0, 53, 0
6, 464640, Note_on_c, 0, 52, 76
6, 464759, Note_on_c, 0, 52, 0
6, 464760, Note_on_c, 0, 64, 76
6, 464879, Note_on_c, 0, 64, 0
6, 464880, Note_on_c, 0, 62, 76
6, 464999, Note_on_c, 0, 62, 0
6, 465000, Note_on_c, 0, 50, 76
6, 465119, Note_on_c, 0, 50, 0
6, 465120, Note_on_c, 0, 48, 76
6, 465239, Note_on_c, 0, 48, 0
6, 465240, Note_on_c, 0, 60, 76
6, 465359, Note_on_c, 0, 60, 0
6, 465360, Note_on_c, 0, 62, 76
6, 465479, Note_on_c, 0, 62, 0
6, 465480, Note_on_c, 0, 50, 76
6, 465588, Note_on_c, 0, 50, 0
6, 465600, Note_on_c, 0, 52, 76
6, 465719, Note_on_c, 0, 52, 0
6, 465720, Note_on_c, 0, 55, 76
6, 465839, Note_on_c, 0, 55, 0
6, 465840, Note_on_c, 0, 60, 76
6, 465959, Note_on_c, 0, 60, 0
6, 465960, Note_on_c, 0, 64, 76
6, 466079, Note_on_c, 0, 64, 0
6, 466080, Note_on_c, 0, 55, 76
6, 466199, Note_on_c, 0, 55, 0
6, 466200, Note_on_c, 0, 67, 76
6, 466319, Note_on_c, 0, 67, 0
6, 466320, Note_on_c, 0, 65, 76
6, 466439, Note_on_c, 0, 65, 0
6, 466440, Note_on_c, 0, 53, 76
6, 466548, Note_on_c, 0, 53, 0
6, 466560, Note_on_c, 0, 52, 96
6, 466679, Note_on_c, 0, 52, 0
6, 466680, Note_on_c, 0, 64, 96
6, 466799, Note_on_c, 0, 64, 0
6, 466800, Note_on_c, 0, 62, 96
6, 466919, Note_on_c, 0, 62, 0
6, 466920, Note_on_c, 0, 50, 96
6, 467039, Note_on_c, 0, 50, 0
6, 467040, Note_on_c, 0, 48, 96
6, 467159, Note_on_c, 0, 48, 0
6, 467160, Note_on_c, 0, 60, 96
6, 467279, Note_on_c, 0, 60, 0
6, 467280, Note_on_c, 0, 62, 96
6, 467399, Note_on_c, 0, 62, 0
6, 467400, Note_on_c, 0, 50, 96
6, 467508, Note_on_c, 0, 50, 0
6, 467520, Note_on_c, 0, 52, 96
6, 467520, Note_on_c, 0, 64, 96
6, 467520, Note_on_c, 0, 60, 96
6, 467736, Note_on_c, 0, 60, 0
6, 467736, Note_on_c, 0, 64, 0
6, 467736, Note_on_c, 0, 52, 0
6, 467760, Note_on_c, 0, 52, 105
6, 467760, Note_on_c, 0, 60, 105
6, 467760, Note_on_c, 0, 64, 105
6, 468239, Note_on_c, 0, 64, 0
6, 468239, Note_on_c, 0, 60, 0
6, 468239, Note_on_c, 0, 52, 0
6, 468240, Note_on_c, 0, 60, 96
6, 468240, Note_on_c, 0, 52, 96
6, 468240, Note_on_c, 0, 64, 96
6, 468456, Note_on_c, 0, 64, 0
6, 468456, Note_on_c, 0, 52, 0
6, 468456, Note_on_c, 0, 60, 0
6, 468480, Note_on_c, 0, 60, 96
6, 468480, Note_on_c, 0, 64, 96
6, 468480, Note_on_c, 0, 52, 96
6, 468696, Note_on_c, 0, 52, 0
6, 468696, Note_on_c, 0, 64, 0
6, 468696, Note_on_c, 0, 60, 0
6, 468720, Note_on_c, 0, 52, 106
6, 468720, Note_on_c, 0, 64, 106
6, 468720, Note_on_c, 0, 60, 106
6, 469199, Note_on_c, 0, 60, 0
6, 469199, Note_on_c, 0, 64, 0
6, 469199, Note_on_c, 0, 52, 0
6, 469200, Note_on_c, 0, 60, 96
6, 469200, Note_on_c, 0, 52, 96
6, 469200, Note_on_c, 0, 64, 96
6, 469416, Note_on_c, 0, 64, 0
6, 469416, Note_on_c, 0, 52, 0
6, 469416, Note_on_c, 0, 60, 0
6, 469440, Note_on_c, 0, 64, 108
6, 469440, Note_on_c, 0, 60, 108
6, 469440, Note_on_c, 0, 52, 108
6, 469620, Control_c, 0, 64, 127
6, 469656, Note_on_c, 0, 52, 0
6, 469656, Note_on_c, 0, 60, 0
6, 469656, Note_on_c, 0, 64, 0
6, 469680, Note_on_c, 0, 52, 92
6, 469752, Note_on_c, 0, 52, 0
6, 469760, Note_on_c, 0, 60, 95
6, 469832, Note_on_c, 0, 60, 0
6, 469840, Note_on_c, 0, 64, 98
6, 469912, Note_on_c, 0, 64, 0
6, 469920, Note_on_c, 0, 60, 101
6, 469920, Note_on_c, 0, 52, 101
6, 469920, Note_on_c, 0, 64, 101
6, 470580, Control_c, 0, 64, 0
6, 470616, Note_on_c, 0, 64, 0
6, 470616, Note_on_c, 0, 52, 0
6, 470616, Note_on_c, 0, 60, 0
6, 470640, Note_on_c, 0, 64, 110
6, 470640, Note_on_c, 0, 60, 110
6, 470640, Note_on_c, 0, 52, 110
6, 471119, Note_on_c, 0, 52, 0
6, 471119, Note_on_c, 0, 60, 0
6, 471119, Note_on_c, 0, 64, 0
6, 471120, Note_on_c, 0, 64, 96
6, 471120, Note_on_c, 0, 52, 96
6, 471120, Note_on_c, 0, 60, 96
6, 471336, Note_on_c, 0, 60, 0
6, 471336, Note_on_c, 0, 52, 0
6, 471336, Note_on_c, 0, 64, 0
6, 471360, Note_on_c, 0, 52, 111
6, 471360, Note_on_c, 0, 64, 111
6, 471360, Control_c, 0, 64, 127
6, 471360, Note_on_c, 0, 61, 111
6, 471576, Note_on_c, 0, 61, 0
6, 471576, Note_on_c, 0, 64, 0
6, 471576, Note_on_c, 0, 52, 0
6, 471600, Note_on_c, 0, 52, 90
6, 471672, Note_on_c, 0, 52, 0
6, 471680, Note_on_c, 0, 61, 95
6, 471752, Note_on_c, 0, 61, 0
6, 471760, Note_on_c, 0, 64, 99
6, 471832, Note_on_c, 0, 64, 0
6, 471840, Note_on_c, 0, 61, 106
6, 471840, Note_on_c, 0, 64, 106
6, 471840, Note_on_c, 0, 52, 106
6, 472320, Control_c, 0, 64, 0
6, 472536, Note_on_c, 0, 52, 0
6, 472536, Note_on_c, 0, 64, 0
6, 472536, Note_on_c, 0, 61, 0
6, 472560, Note_on_c, 0, 57, 105
6, 472560, Note_on_c, 0, 52, 105
6, 472560, Note_on_c, 0, 64, 105
6, 472560, Note_on_c, 0, 61, 105
6, 473039, Note_on_c, 0, 61, 0
6, 473039, Note_on_c, 0, 57, 0
6, 473039, Note_on_c, 0, 52, 0
6, 473039, Note_on_c, 0, 64, 0
6, 473040, Note_on_c, 0, 52, 96
6, 473040, Note_on_c, 0, 64, 96
6, 473040, Note_on_c, 0, 57, 96
6, 473040, Note_on_c, 0, 61, 96
6, 473256, Note_on_c, 0, 61, 0
6, 473256, Note_on_c, 0, 52, 0
6, 473256, Note_on_c, 0, 64, 0
6, 473256, Note_on_c, 0, 57, 0
6, 473280, Note_on_c, 0, 53, 107
6, 473280, Note_on_c, 0, 57, 107
6, 473280, Control_c, 0, 64, 127
6, 473280, Note_on_c, 0, 65, 107
6, 473280, Note_on_c, 0, 60, 107
6, 473519, Note_on_c, 0, 60, 0
6, 473519, Note_on_c, 0, 53, 0
6, 473519, Note_on_c, 0, 57, 0
6, 473519, Note_on_c, 0, 65, 0
6, 473520, Note_on_c, 0, 53, 79
6, 473592, Note_on_c, 0, 53, 0
6, 473600, Note_on_c, 0, 57, 86
6, 473672, Note_on_c, 0, 57, 0
6, 473680, Note_on_c, 0, 65, 92
6, 473752, Note_on_c, 0, 65, 0
6, 473760, Note_on_c, 0, 57, 99
6, 473760, Note_on_c, 0, 53, 99
6, 473760, Note_on_c, 0, 65, 99
6, 474240, Control_c, 0, 64, 0
6, 474456, Note_on_c, 0, 65, 0
6, 474456, Note_on_c, 0, 53, 0
6, 474456, Note_on_c, 0, 57, 0
6, 474480, Note_on_c, 0, 69, 105
6, 474480, Note_on_c, 0, 65, 105
6, 474480, Note_on_c, 0, 57, 105
6, 474480, Note_on_c, 0, 60, 105
6, 474959, Note_on_c, 0, 60, 0
6, 474959, Note_on_c, 0, 69, 0
6, 474959, Note_on_c, 0, 65, 0
6, 474959, Note_on_c, 0, 57, 0
6, 474960, Note_on_c, 0, 60, 96
6, 474960, Note_on_c, 0, 65, 96
6, 474960, Note_on_c, 0, 69, 96
6, 474960, Note_on_c, 0, 57, 96
6, 475176, Note_on_c, 0, 57, 0
6, 475176, Note_on_c, 0, 60, 0
6, 475176, Note_on_c, 0, 65, 0
6, 475176, Note_on_c, 0, 69, 0
6, 475200, Note_on_c, 0, 69, 106
6, 475200, Note_on_c, 0, 62, 106
6, 475200, Note_on_c, 0, 66, 106
6, 475200, Note_on_c, 0, 57, 106
6, 475272, Control_c, 0, 64, 127
6, 475439, Note_on_c, 0, 57, 0
6, 475439, Note_on_c, 0, 69, 0
6, 475439, Note_on_c, 0, 62, 0
6, 475439, Note_on_c, 0, 66, 0
6, 475440, Note_on_c, 0, 57, 79
6, 475512, Note_on_c, 0, 57, 0
6, 475520, Note_on_c, 0, 66, 86
6, 475592, Note_on_c, 0, 66, 0
6, 475600, Note_on_c, 0, 69, 94
6, 475672, Note_on_c, 0, 69, 0
6, 475680, Note_on_c, 0, 66, 102
6, 475680, Note_on_c, 0, 57, 102
6, 475680, Note_on_c, 0, 69, 102
6, 476232, Control_c, 0, 64, 0
6, 476399, Note_on_c, 0, 69, 0
6, 476399, Note_on_c, 0, 57, 0
6, 476399, Note_on_c, 0, 66, 0
6, 476400, Note_on_c, 0, 62, 96
6, 476400, Note_on_c, 0, 66, 96
6, 476400, Note_on_c, 0, 57, 96
6, 476879, Note_on_c, 0, 57, 0
6, 476879, Note_on_c, 0, 66, 0
6, 476879, Note_on_c, 0, 62, 0
6, 476880, Note_on_c, 0, 62, 106
6, 476880, Note_on_c, 0, 66, 106
6, 476880, Note_on_c, 0, 57, 106
6, 477096, Note_on_c, 0, 57, 0
6, 477096, Note_on_c, 0, 66, 0
6, 477096, Note_on_c, 0, 62, 0
6, 477120, Note_on_c, 0, 62, 96
6, 477120, Note_on_c, 0, 67, 96
6, 477120, Note_on_c, 0, 59, 96
6, 477336, Note_on_c, 0, 59, 0
6, 477336, Note_on_c, 0, 67, 0
6, 477336, Note_on_c, 0, 62, 0
6, 477600, Note_on_c, 0, 62, 96
6, 477600, Note_on_c, 0, 57, 96
6, 477600, Note_on_c, 0, 66, 96
6, 477816, Note_on_c, 0, 66, 0
6, 477816, Note_on_c, 0, 57, 0
6, 477816, Note_on_c, 0, 62, 0
6, 478080, Note_on_c, 0, 67, 96
6, 478080, Note_on_c, 0, 59, 96
6, 478080, Note_on_c, 0, 62, 96
6, 478296, Note_on_c, 0, 62, 0
6, 478296, Note_on_c, 0, 59, 0
6, 478296, Note_on_c, 0, 67, 0
6, 478560, Note_on_c, 0, 66, 96
6, 478560, Note_on_c, 0, 62, 96
6, 478560, Note_on_c, 0, 57, 96
6, 478776, Note_on_c, 0, 57, 0
6, 478776, Note_on_c, 0, 62, 0
6, 478776, Note_on_c, 0, 66, 0
6, 479040, Note_on_c, 0, 61, 96
6, 479040, Note_on_c, 0, 57, 96
6, 479040, Note_on_c, 0, 64, 96
6, 479232, Control_c, 0, 64, 127
6, 479256, Note_on_c, 0, 64, 0
6, 479256, Note_on_c, 0, 57, 0
6, 479256, Note_on_c, 0, 61, 0
6, 479280, Note_on_c, 0, 49, 91
6, 479388, Note_on_c, 0, 49, 0
6, 479400, Note_on_c, 0, 52, 94
6, 479508, Note_on_c, 0, 52, 0
6, 479520, Note_on_c, 0, 49, 97
6, 479639, Note_on_c, 0, 49, 0
6, 479640, Note_on_c, 0, 45, 94
6, 479759, Note_on_c, 0, 45, 0
6, 479760, Note_on_c, 0, 40, 91
6, 479879, Note_on_c, 0, 40, 0
6, 479880, Note_on_c, 0, 37, 87
6, 479988, Note_on_c, 0, 37, 0
6, 480000, Control_c, 0, 64, 0
6, 480192, Control_c, 0, 64, 127
6, 480240, Note_on_c, 0, 61, 86
6, 480348, Note_on_c, 0, 61, 0
6, 480360, Note_on_c, 0, 64, 92
6, 480468, Note_on_c, 0, 64, 0
6, 480480, Note_on_c, 0, 61, 96
6, 480588, Note_on_c, 0, 61, 0
6, 480600, Note_on_c, 0, 57, 92
6, 480708, Note_on_c, 0, 57, 0
6, 480720, Note_on_c, 0, 52, 88
6, 480828, Note_on_c, 0, 52, 0
6, 480840, Note_on_c, 0, 49, 84
6, 480948, Note_on_c, 0, 49, 0
6, 480960, Control_c, 0, 64, 0
6, 481152, Control_c, 0, 64, 127
6, 481200, Note_on_c, 0, 61, 84
6, 481308, Note_on_c, 0, 61, 0
6, 481320, Note_on_c, 0, 64, 88
6, 481428, Note_on_c, 0, 64, 0
6, 481440, Note_on_c, 0, 61, 96
6, 481548, Note_on_c, 0, 61, 0
6, 481560, Note_on_c, 0, 57, 92
6, 481668, Note_on_c, 0, 57, 0
6, 481680, Note_on_c, 0, 52, 89
6, 481788, Note_on_c, 0, 52, 0
6, 481800, Note_on_c, 0, 49, 87
6, 481908, Note_on_c, 0, 49, 0
6, 482074, Control_c, 0, 64, 0
6, 482160, Note_on_c, 0, 64, 84
6, 482211, Control_c, 0, 64, 127
6, 482268, Note_on_c, 0, 64, 0
6, 482280, Note_on_c, 0, 67, 89
6, 482388, Note_on_c, 0, 67, 0
6, 482400, Note_on_c, 0, 64, 96
6, 482508, Note_on_c, 0, 64, 0
6, 482520, Note_on_c, 0, 61, 93
6, 482628, Note_on_c, 0, 61, 0
6, 482640, Note_on_c, 0, 57, 88
6, 482748, Note_on_c, 0, 57, 0
6, 482760, Note_on_c, 0, 52, 84
6, 482868, Note_on_c, 0, 52, 0
6, 483120, Note_on_c, 0, 45, 96
6, 483171, Control_c, 0, 64, 0
6, 483336, Note_on_c, 0, 45, 0
6, 483360, Note_on_c, 0, 47, 96
6, 483576, Note_on_c, 0, 47, 0
6, 483600, Note_on_c, 0, 45, 96
6, 483816, Note_on_c, 0, 45, 0
6, 483840, Control_c, 0, 64, 127
6, 483840, Note_on_c, 0, 49, 96
6, 484056, Note_on_c, 0, 49, 0
6, 484080, Note_on_c, 0, 45, 96
6, 484296, Note_on_c, 0, 45, 0
6, 484320, Note_on_c, 0, 50, 96
6, 484536, Note_on_c, 0, 50, 0
6, 484560, Note_on_c, 0, 45, 96
6, 484776, Note_on_c, 0, 45, 0
6, 484800, Control_c, 0, 64, 0
6, 484800, Note_on_c, 0, 52, 96
6, 485016, Note_on_c, 0, 52, 0
6, 485040, Note_on_c, 0, 45, 96
6, 485256, Note_on_c, 0, 45, 0
6, 485280, Note_on_c, 0, 53, 96
6, 485496, Note_on_c, 0, 53, 0
6, 485520, Note_on_c, 0, 45, 96
6, 485736, Note_on_c, 0, 45, 0
6, 485760, Control_c, 0, 64, 127
6, 485760, Note_on_c, 0, 52, 96
6, 485999, Note_on_c, 0, 52, 0
6, 486000, Note_on_c, 0, 45, 96
6, 486239, Note_on_c, 0, 45, 0
6, 486240, Note_on_c, 0, 53, 96
6, 486479, Note_on_c, 0, 53, 0
6, 486480, Note_on_c, 0, 45, 96
6, 486696, Note_on_c, 0, 45, 0
6, 486720, Control_c, 0, 64, 0
6, 486720, Note_on_c, 0, 52, 96
6, 486959, Note_on_c, 0, 52, 0
6, 486960, Note_on_c, 0, 45, 96
6, 487199, Note_on_c, 0, 45, 0
6, 487200, Note_on_c, 0, 47, 95
6, 487439, Note_on_c, 0, 47, 0
6, 487440, Note_on_c, 0, 50, 95
6, 487656, Note_on_c, 0, 50, 0
6, 487680, Control_c, 0, 64, 127
6, 487920, Note_on_c, 0, 48, 94
6, 488159, Note_on_c, 0, 48, 0
6, 488160, Note_on_c, 0, 49, 93
6, 488399, Note_on_c, 0, 49, 0
6, 488400, Note_on_c, 0, 52, 93
6, 488616, Note_on_c, 0, 52, 0
6, 488640, Control_c, 0, 64, 0
6, 488880, Note_on_c, 0, 50, 92
6, 489119, Note_on_c, 0, 50, 0
6, 489120, Note_on_c, 0, 52, 91
6, 489359, Note_on_c, 0, 52, 0
6, 489360, Note_on_c, 0, 55, 91
6, 489576, Note_on_c, 0, 55, 0
6, 489600, Control_c, 0, 64, 127
6, 489840, Note_on_c, 0, 53, 89
6, 490079, Note_on_c, 0, 53, 0
6, 490080, Note_on_c, 0, 56, 89
6, 490319, Note_on_c, 0, 56, 0
6, 490320, Note_on_c, 0, 53, 88
6, 490560, Control_c, 0, 64, 0
6, 490704, Control_c, 0, 64, 127
6, 490799, Note_on_c, 0, 53, 0
6, 490800, Note_on_c, 0, 53, 87
6, 491039, Note_on_c, 0, 53, 0
6, 491040, Note_on_c, 0, 56, 87
6, 491279, Note_on_c, 0, 56, 0
6, 491280, Note_on_c, 0, 53, 86
6, 491664, Control_c, 0, 64, 0
6, 491736, Note_on_c, 0, 53, 0
6, 491760, Note_on_c, 0, 53, 85
6, 491808, Control_c, 0, 64, 127
6, 491976, Note_on_c, 0, 53, 0
6, 492000, Note_on_c, 0, 56, 85
6, 492216, Note_on_c, 0, 56, 0
6, 492240, Note_on_c, 0, 53, 84
6, 492456, Note_on_c, 0, 53, 0
6, 492720, Note_on_c, 0, 50, 83
6, 492768, Control_c, 0, 64, 0
6, 492936, Note_on_c, 0, 50, 0
6, 492960, Note_on_c, 0, 52, 82
6, 493176, Note_on_c, 0, 52, 0
6, 493200, Control_c, 0, 64, 127
6, 493200, Note_on_c, 0, 57, 82
6, 493416, Note_on_c, 0, 57, 0
6, 493680, Note_on_c, 0, 50, 81
6, 493896, Note_on_c, 0, 50, 0
6, 493920, Note_on_c, 0, 52, 80
6, 494136, Note_on_c, 0, 52, 0
6, 494160, Control_c, 0, 64, 0
6, 494160, Note_on_c, 0, 57, 80
6, 494376, Note_on_c, 0, 57, 0
6, 494400, Control_c, 0, 64, 127
6, 494640, Note_on_c, 0, 50, 79
6, 494856, Note_on_c, 0, 50, 0
6, 494880, Note_on_c, 0, 52, 78
6, 495096, Note_on_c, 0, 52, 0
6, 495120, Note_on_c, 0, 57, 77
6, 495200, Control_c, 0, 64, 0
6, 495336, Note_on_c, 0, 57, 0
6, 495336, End_track
7, 0, Start_track
7, 0, Title_t, "Track 6"
7, 0, Program_c, 0, 0
7, 0, Control_c, 0, 7, 115
7, 0, Control_c, 0, 10, 79
7, 1920, Note_on_c, 0, 43, 76
7, 1935, Control_c, 0, 64, 127
7, 2028, Note_on_c, 0, 43, 0
7, 2160, Note_on_c, 0, 43, 76
7, 2268, Note_on_c, 0, 43, 0
7, 2400, Note_on_c, 0, 45, 76
7, 2508, Note_on_c, 0, 45, 0
7, 2880, Note_on_c, 0, 41, 76
7, 2895, Control_c, 0, 64, 0
7, 2988, Note_on_c, 0, 41, 0
7, 3120, Note_on_c, 0, 38, 76
7, 3228, Note_on_c, 0, 38, 0
7, 3360, Note_on_c, 0, 45, 76
7, 3468, Note_on_c, 0, 45, 0
7, 5280, Note_on_c, 0, 39, 76
7, 5496, Note_on_c, 0, 39, 0
7, 5520, Note_on_c, 0, 38, 76
7, 5736, Note_on_c, 0, 38, 0
7, 5760, Note_on_c, 0, 37, 75
7, 5808, Control_c, 0, 64, 127
7, 5976, Note_on_c, 0, 37, 0
7, 6000, Note_on_c, 0, 38, 72
7, 6216, Note_on_c, 0, 38, 0
7, 6240, Note_on_c, 0, 40, 69
7, 6456, Note_on_c, 0, 40, 0
7, 6480, Note_on_c, 0, 41, 67
7, 6696, Note_on_c, 0, 41, 0
7, 6720, Note_on_c, 0, 43, 64
7, 6936, Note_on_c, 0, 43, 0
7, 6960, Note_on_c, 0, 44, 61
7, 7176, Note_on_c, 0, 44, 0
7, 7200, Note_on_c, 0, 45, 75
7, 7310, Control_c, 0, 64, 0
7, 7416, Note_on_c, 0, 45, 0
7, 7440, Note_on_c, 0, 45, 72
7, 7512, Note_on_c, 0, 45, 0
7, 7520, Note_on_c, 0, 49, 72
7, 7592, Note_on_c, 0, 49, 0
7, 7600, Note_on_c, 0, 52, 72
7, 7672, Note_on_c, 0, 52, 0
7, 7680, Note_on_c, 0, 57, 72
7, 7788, Note_on_c, 0, 57, 0
7, 7800, Note_on_c, 0, 55, 72
7, 7908, Note_on_c, 0, 55, 0
7, 7920, Note_on_c, 0, 53, 72
7, 8028, Note_on_c, 0, 53, 0
7, 8040, Note_on_c, 0, 52, 72
7, 8148, Note_on_c, 0, 52, 0
7, 8160, Note_on_c, 0, 53, 72
7, 8268, Note_on_c, 0, 53, 0
7, 8280, Note_on_c, 0, 57, 72
7, 8388, Note_on_c, 0, 57, 0
7, 8400, Note_on_c, 0, 55, 72
7, 8508, Note_on_c, 0, 55, 0
7, 8520, Note_on_c, 0, 52, 72
7, 8628, Note_on_c, 0, 52, 0
7, 8640, Note_on_c, 0, 50, 72
7, 8748, Note_on_c, 0, 50, 0
7, 8760, Note_on_c, 0, 53, 72
7, 8868, Note_on_c, 0, 53, 0
7, 8880, Note_on_c, 0, 52, 72
7, 8988, Note_on_c, 0, 52, 0
7, 9000, Note_on_c, 0, 48, 72
7, 9108, Note_on_c, 0, 48, 0
7, 9120, Note_on_c, 0, 46, 72
7, 9228, Note_on_c, 0, 46, 0
7, 9240, Note_on_c, 0, 50, 72
7, 9348, Note_on_c, 0, 50, 0
7, 9360, Note_on_c, 0, 45, 72
7, 9468, Note_on_c, 0, 45, 0
7, 9480, Note_on_c, 0, 50, 72
7, 9588, Note_on_c, 0, 50, 0
7, 9600, Note_on_c, 0, 43, 72
7, 9708, Note_on_c, 0, 43, 0
7, 9720, Note_on_c, 0, 50, 72
7, 9828, Note_on_c, 0, 50, 0
7, 9840, Note_on_c, 0, 41, 72
7, 9948, Note_on_c, 0, 41, 0
7, 9960, Note_on_c, 0, 50, 72
7, 10068, Note_on_c, 0, 50, 0
7, 10080, Note_on_c, 0, 45, 72
7, 10188, Note_on_c, 0, 45, 0
7, 10200, Note_on_c, 0, 57, 72
7, 10308, Note_on_c, 0, 57, 0
7, 10320, Note_on_c, 0, 58, 72
7, 10428, Note_on_c, 0, 58, 0
7, 10440, Note_on_c, 0, 57, 72
7, 10548, Note_on_c, 0, 57, 0
7, 10560, Note_on_c, 0, 41, 72
7, 10668, Note_on_c, 0, 41, 0
7, 10680, Note_on_c, 0, 53, 72
7, 10788, Note_on_c, 0, 53, 0
7, 10800, Note_on_c, 0, 38, 72
7, 10908, Note_on_c, 0, 38, 0
7, 10920, Note_on_c, 0, 50, 72
7, 11028, Note_on_c, 0, 50, 0
7, 11040, Note_on_c, 0, 45, 72
7, 11148, Note_on_c, 0, 45, 0
7, 11160, Note_on_c, 0, 57, 72
7, 11268, Note_on_c, 0, 57, 0
7, 11280, Note_on_c, 0, 55, 72
7, 11388, Note_on_c, 0, 55, 0
7, 11400, Note_on_c, 0, 52, 72
7, 11508, Note_on_c, 0, 52, 0
7, 11520, Note_on_c, 0, 50, 72
7, 11628, Note_on_c, 0, 50, 0
7, 11640, Note_on_c, 0, 48, 72
7, 11748, Note_on_c, 0, 48, 0
7, 11760, Note_on_c, 0, 46, 72
7, 11868, Note_on_c, 0, 46, 0
7, 11880, Note_on_c, 0, 45, 72
7, 11988, Note_on_c, 0, 45, 0
7, 12000, Note_on_c, 0, 46, 72
7, 12108, Note_on_c, 0, 46, 0
7, 12120, Note_on_c, 0, 50, 72
7, 12228, Note_on_c, 0, 50, 0
7, 12240, Note_on_c, 0, 48, 72
7, 12348, Note_on_c, 0, 48, 0
7, 12360, Note_on_c, 0, 45, 72
7, 12468, Note_on_c, 0, 45, 0
7, 12480, Note_on_c, 0, 43, 90
7, 12588, Note_on_c, 0, 43, 0
7, 12600, Note_on_c, 0, 46, 90
7, 12708, Note_on_c, 0, 46, 0
7, 12720, Note_on_c, 0, 45, 90
7, 12828, Note_on_c, 0, 45, 0
7, 12840, Note_on_c, 0, 41, 90
7, 12948, Note_on_c, 0, 41, 0
7, 12960, Note_on_c, 0, 39, 90
7, 13068, Note_on_c, 0, 39, 0
7, 13080, Note_on_c, 0, 43, 90
7, 13188, Note_on_c, 0, 43, 0
7, 13200, Note_on_c, 0, 38, 90
7, 13308, Note_on_c, 0, 38, 0
7, 13320, Note_on_c, 0, 41, 90
7, 13428, Note_on_c, 0, 41, 0
7, 13440, Note_on_c, 0, 37, 90
7, 13548, Note_on_c, 0, 37, 0
7, 13560, Note_on_c, 0, 40, 90
7, 13668, Note_on_c, 0, 40, 0
7, 13680, Note_on_c, 0, 38, 90
7, 13788, Note_on_c, 0, 38, 0
7, 13800, Note_on_c, 0, 41, 90
7, 13908, Note_on_c, 0, 41, 0
7, 13920, Note_on_c, 0, 40, 90
7, 14028, Note_on_c, 0, 40, 0
7, 14040, Note_on_c, 0, 43, 90
7, 14148, Note_on_c, 0, 43, 0
7, 14160, Note_on_c, 0, 41, 90
7, 14268, Note_on_c, 0, 41, 0
7, 14280, Note_on_c, 0, 45, 90
7, 14388, Note_on_c, 0, 45, 0
7, 14400, Note_on_c, 0, 43, 90
7, 14508, Note_on_c, 0, 43, 0
7, 14520, Note_on_c, 0, 46, 90
7, 14628, Note_on_c, 0, 46, 0
7, 14640, Note_on_c, 0, 44, 90
7, 14748, Note_on_c, 0, 44, 0
7, 14760, Note_on_c, 0, 47, 90
7, 14868, Note_on_c, 0, 47, 0
7, 14880, Note_on_c, 0, 45, 90
7, 14988, Note_on_c, 0, 45, 0
7, 15000, Note_on_c, 0, 49, 90
7, 15108, Note_on_c, 0, 49, 0
7, 15360, Note_on_c, 0, 49, 65
7, 15576, Note_on_c, 0, 49, 0
7, 15600, Note_on_c, 0, 50, 80
7, 15816, Note_on_c, 0, 50, 0
7, 15840, Note_on_c, 0, 52, 76
7, 16056, Note_on_c, 0, 52, 0
7, 16080, Note_on_c, 0, 53, 72
7, 16296, Note_on_c, 0, 53, 0
7, 16320, Note_on_c, 0, 55, 69
7, 16536, Note_on_c, 0, 55, 0
7, 16560, Note_on_c, 0, 53, 68
7, 16776, Note_on_c, 0, 53, 0
7, 16800, Note_on_c, 0, 52, 64
7, 17016, Note_on_c, 0, 52, 0
7, 17040, Note_on_c, 0, 57, 60
7, 17256, Note_on_c, 0, 57, 0
7, 17280, Note_on_c, 0, 56, 75
7, 17496, Note_on_c, 0, 56, 0
7, 17520, Note_on_c, 0, 52, 72
7, 17736, Note_on_c, 0, 52, 0
7, 17760, Note_on_c, 0, 57, 67
7, 17976, Note_on_c, 0, 57, 0
7, 18000, Note_on_c, 0, 55, 64
7, 18216, Note_on_c, 0, 55, 0
7, 18240, Note_on_c, 0, 54, 63
7, 18456, Note_on_c, 0, 54, 0
7, 18480, Note_on_c, 0, 59, 60
7, 18696, Note_on_c, 0, 59, 0
7, 18720, Note_on_c, 0, 58, 57
7, 18936, Note_on_c, 0, 58, 0
7, 18960, Note_on_c, 0, 55, 57
7, 19176, Note_on_c, 0, 55, 0
7, 19200, Note_on_c, 0, 56, 54
7, 19416, Note_on_c, 0, 56, 0
7, 19440, Note_on_c, 0, 60, 51
7, 19656, Note_on_c, 0, 60, 0
7, 19680, Note_on_c, 0, 61, 48
7, 19896, Note_on_c, 0, 61, 0
7, 19920, Note_on_c, 0, 56, 47
7, 20136, Note_on_c, 0, 56, 0
7, 20160, Note_on_c, 0, 61, 45
7, 20376, Note_on_c, 0, 61, 0
7, 20400, Note_on_c, 0, 56, 43
7, 20616, Note_on_c, 0, 56, 0
7, 20640, Note_on_c, 0, 61, 40
7, 20856, Note_on_c, 0, 61, 0
7, 20880, Note_on_c, 0, 56, 39
7, 21096, Note_on_c, 0, 56, 0
7, 21120, Note_on_c, 0, 61, 38
7, 21336, Note_on_c, 0, 61, 0
7, 21360, Note_on_c, 0, 56, 36
7, 21576, Note_on_c, 0, 56, 0
7, 30720, Note_on_c, 0, 45, 89
7, 30828, Note_on_c, 0, 45, 0
7, 30840, Note_on_c, 0, 55, 90
7, 30948, Note_on_c, 0, 55, 0
7, 30960, Note_on_c, 0, 53, 90
7, 31068, Note_on_c, 0, 53, 0
7, 31080, Note_on_c, 0, 52, 90
7, 31188, Note_on_c, 0, 52, 0
7, 31200, Note_on_c, 0, 53, 90
7, 31308, Note_on_c, 0, 53, 0
7, 31320, Note_on_c, 0, 57, 90
7, 31428, Note_on_c, 0, 57, 0
7, 31440, Note_on_c, 0, 55, 90
7, 31548, Note_on_c, 0, 55, 0
7, 31560, Note_on_c, 0, 52, 90
7, 31668, Note_on_c, 0, 52, 0
7, 31680, Note_on_c, 0, 50, 90
7, 31788, Note_on_c, 0, 50, 0
7, 31800, Note_on_c, 0, 53, 90
7, 31908, Note_on_c, 0, 53, 0
7, 31920, Note_on_c, 0, 52, 90
7, 32028, Note_on_c, 0, 52, 0
7, 32040, Note_on_c, 0, 48, 90
7, 32148, Note_on_c, 0, 48, 0
7, 32160, Note_on_c, 0, 46, 90
7, 32268, Note_on_c, 0, 46, 0
7, 32280, Note_on_c, 0, 50, 90
7, 32388, Note_on_c, 0, 50, 0
7, 32400, Note_on_c, 0, 45, 90
7, 32508, Note_on_c, 0, 45, 0
7, 32520, Note_on_c, 0, 50, 90
7, 32628, Note_on_c, 0, 50, 0
7, 32760, Note_on_c, 0, 50, 90
7, 32868, Note_on_c, 0, 50, 0
7, 33000, Note_on_c, 0, 50, 90
7, 33108, Note_on_c, 0, 50, 0
7, 33240, Note_on_c, 0, 57, 98
7, 33348, Note_on_c, 0, 57, 0
7, 33360, Note_on_c, 0, 58, 98
7, 33468, Note_on_c, 0, 58, 0
7, 33480, Note_on_c, 0, 57, 98
7, 33588, Note_on_c, 0, 57, 0
7, 33720, Note_on_c, 0, 53, 98
7, 33828, Note_on_c, 0, 53, 0
7, 33960, Note_on_c, 0, 50, 98
7, 34068, Note_on_c, 0, 50, 0
7, 34200, Note_on_c, 0, 57, 98
7, 34308, Note_on_c, 0, 57, 0
7, 34320, Note_on_c, 0, 55, 98
7, 34428, Note_on_c, 0, 55, 0
7, 34440, Note_on_c, 0, 52, 98
7, 34548, Note_on_c, 0, 52, 0
7, 34560, Note_on_c, 0, 62, 98
7, 34668, Note_on_c, 0, 62, 0
7, 34680, Note_on_c, 0, 60, 98
7, 34788, Note_on_c, 0, 60, 0
7, 34800, Note_on_c, 0, 58, 98
7, 34908, Note_on_c, 0, 58, 0
7, 34920, Note_on_c, 0, 57, 98
7, 35028, Note_on_c, 0, 57, 0
7, 35040, Note_on_c, 0, 58, 98
7, 35148, Note_on_c, 0, 58, 0
7, 35160, Note_on_c, 0, 62, 98
7, 35268, Note_on_c, 0, 62, 0
7, 35280, Note_on_c, 0, 60, 98
7, 35388, Note_on_c, 0, 60, 0
7, 35400, Note_on_c, 0, 57, 98
7, 35508, Note_on_c, 0, 57, 0
7, 35520, Note_on_c, 0, 55, 98
7, 35628, Note_on_c, 0, 55, 0
7, 35640, Note_on_c, 0, 58, 98
7, 35748, Note_on_c, 0, 58, 0
7, 35760, Note_on_c, 0, 57, 98
7, 35868, Note_on_c, 0, 57, 0
7, 35880, Note_on_c, 0, 53, 98
7, 35988, Note_on_c, 0, 53, 0
7, 36000, Note_on_c, 0, 51, 98
7, 36108, Note_on_c, 0, 51, 0
7, 36120, Note_on_c, 0, 55, 98
7, 36228, Note_on_c, 0, 55, 0
7, 36240, Note_on_c, 0, 50, 98
7, 36348, Note_on_c, 0, 50, 0
7, 36600, Note_on_c, 0, 53, 90
7, 36708, Note_on_c, 0, 53, 0
7, 36840, Note_on_c, 0, 64, 90
7, 36840, Note_on_c, 0, 61, 90
7, 36840, Note_on_c, 0, 57, 90
7, 36948, Note_on_c, 0, 57, 0
7, 36948, Note_on_c, 0, 61, 0
7, 36948, Note_on_c, 0, 64, 0
7, 37080, Note_on_c, 0, 62, 90
7, 37080, Note_on_c, 0, 58, 90
7, 37188, Note_on_c, 0, 58, 0
7, 37188, Note_on_c, 0, 62, 0
7, 37320, Note_on_c, 0, 58, 90
7, 37320, Note_on_c, 0, 55, 90
7, 37428, Note_on_c, 0, 55, 0
7, 37428, Note_on_c, 0, 58, 0
7, 37440, Note_on_c, 0, 64, 90
7, 37440, Note_on_c, 0, 57, 90
7, 37440, Note_on_c, 0, 52, 90
7, 37752, Control_c, 0, 64, 127
7, 37764, Note_on_c, 0, 52, 0
7, 37764, Note_on_c, 0, 57, 0
7, 37764, Note_on_c, 0, 64, 0
7, 37800, Note_on_c, 0, 60, 90
7, 37800, Note_on_c, 0, 57, 90
7, 37908, Note_on_c, 0, 57, 0
7, 37908, Note_on_c, 0, 60, 0
7, 37920, Note_on_c, 0, 62, 90
7, 37920, Note_on_c, 0, 50, 90
7, 38028, Note_on_c, 0, 50, 0
7, 38028, Note_on_c, 0, 62, 0
7, 38040, Note_on_c, 0, 64, 90
7, 38040, Note_on_c, 0, 52, 90
7, 38148, Note_on_c, 0, 52, 0
7, 38148, Note_on_c, 0, 64, 0
7, 38160, Note_on_c, 0, 65, 90
7, 38160, Note_on_c, 0, 53, 90
7, 38214, Note_on_c, 0, 53, 0
7, 38214, Note_on_c, 0, 65, 0
7, 38280, Note_on_c, 0, 67, 90
7, 38280, Note_on_c, 0, 55, 90
7, 38334, Note_on_c, 0, 55, 0
7, 38334, Note_on_c, 0, 67, 0
7, 38445, Control_c, 0, 64, 0
7, 38520, Note_on_c, 0, 60, 91
7, 38520, Note_on_c, 0, 57, 91
7, 38628, Note_on_c, 0, 57, 0
7, 38628, Note_on_c, 0, 60, 0
7, 38760, Note_on_c, 0, 60, 87
7, 38760, Note_on_c, 0, 57, 87
7, 38760, Note_on_c, 0, 53, 87
7, 38868, Note_on_c, 0, 53, 0
7, 38868, Note_on_c, 0, 57, 0
7, 38868, Note_on_c, 0, 60, 0
7, 39000, Note_on_c, 0, 58, 82
7, 39000, Note_on_c, 0, 55, 82
7, 39108, Note_on_c, 0, 55, 0
7, 39108, Note_on_c, 0, 58, 0
7, 39240, Note_on_c, 0, 55, 78
7, 39240, Note_on_c, 0, 52, 78
7, 39348, Note_on_c, 0, 52, 0
7, 39348, Note_on_c, 0, 55, 0
7, 39360, Note_on_c, 0, 60, 76
7, 39360, Note_on_c, 0, 53, 76
7, 39555, Control_c, 0, 64, 127
7, 39684, Note_on_c, 0, 53, 0
7, 39684, Note_on_c, 0, 60, 0
7, 39720, Note_on_c, 0, 57, 61
7, 39720, Note_on_c, 0, 53, 61
7, 39820, Control_c, 0, 64, 0
7, 39828, Note_on_c, 0, 53, 0
7, 39828, Note_on_c, 0, 57, 0
7, 39840, Note_on_c, 0, 58, 61
7, 39840, Note_on_c, 0, 55, 61
7, 39948, Note_on_c, 0, 55, 0
7, 39948, Note_on_c, 0, 58, 0
7, 39960, Note_on_c, 0, 60, 60
7, 40068, Note_on_c, 0, 60, 0
7, 40080, Note_on_c, 0, 62, 59
7, 40188, Note_on_c, 0, 62, 0
7, 40200, Note_on_c, 0, 55, 58
7, 40308, Note_on_c, 0, 55, 0
7, 40320, Note_on_c, 0, 60, 45
7, 40379, Note_on_c, 0, 60, 0
7, 40440, Note_on_c, 0, 60, 45
7, 40499, Note_on_c, 0, 60, 0
7, 40560, Note_on_c, 0, 60, 44
7, 40619, Note_on_c, 0, 60, 0
7, 40680, Note_on_c, 0, 60, 44
7, 40739, Note_on_c, 0, 60, 0
7, 40800, Note_on_c, 0, 60, 44
7, 40859, Note_on_c, 0, 60, 0
7, 40920, Note_on_c, 0, 60, 44
7, 40979, Note_on_c, 0, 60, 0
7, 41040, Note_on_c, 0, 60, 44
7, 41099, Note_on_c, 0, 60, 0
7, 41160, Note_on_c, 0, 60, 43
7, 41214, Note_on_c, 0, 60, 0
7, 41280, Note_on_c, 0, 60, 43
7, 41339, Note_on_c, 0, 60, 0
7, 41400, Note_on_c, 0, 60, 43
7, 41459, Note_on_c, 0, 60, 0
7, 41520, Note_on_c, 0, 60, 42
7, 41579, Note_on_c, 0, 60, 0
7, 41640, Note_on_c, 0, 60, 42
7, 41699, Note_on_c, 0, 60, 0
7, 41760, Note_on_c, 0, 60, 42
7, 41819, Note_on_c, 0, 60, 0
7, 41880, Note_on_c, 0, 60, 41
7, 41939, Note_on_c, 0, 60, 0
7, 42000, Note_on_c, 0, 60, 40
7, 42059, Note_on_c, 0, 60, 0
7, 42120, Note_on_c, 0, 60, 40
7, 42174, Note_on_c, 0, 60, 0
7, 42240, Note_on_c, 0, 60, 40
7, 42299, Note_on_c, 0, 60, 0
7, 42360, Note_on_c, 0, 60, 40
7, 42419, Note_on_c, 0, 60, 0
7, 42480, Note_on_c, 0, 60, 40
7, 42539, Note_on_c, 0, 60, 0
7, 42600, Note_on_c, 0, 60, 40
7, 42659, Note_on_c, 0, 60, 0
7, 42720, Note_on_c, 0, 60, 40
7, 42779, Note_on_c, 0, 60, 0
7, 42840, Note_on_c, 0, 60, 39
7, 42899, Note_on_c, 0, 60, 0
7, 42960, Note_on_c, 0, 60, 39
7, 43019, Note_on_c, 0, 60, 0
7, 43080, Note_on_c, 0, 60, 39
7, 43134, Note_on_c, 0, 60, 0
7, 43200, Note_on_c, 0, 60, 38
7, 43259, Note_on_c, 0, 60, 0
7, 43320, Note_on_c, 0, 60, 37
7, 43379, Note_on_c, 0, 60, 0
7, 43440, Note_on_c, 0, 60, 37
7, 43499, Note_on_c, 0, 60, 0
7, 43560, Note_on_c, 0, 60, 37
7, 43619, Note_on_c, 0, 60, 0
7, 43680, Note_on_c, 0, 60, 36
7, 43739, Note_on_c, 0, 60, 0
7, 43800, Note_on_c, 0, 60, 36
7, 43859, Note_on_c, 0, 60, 0
7, 43920, Note_on_c, 0, 60, 36
7, 43979, Note_on_c, 0, 60, 0
7, 44040, Note_on_c, 0, 60, 36
7, 44094, Note_on_c, 0, 60, 0
7, 44520, Note_on_c, 0, 60, 57
7, 44640, Note_on_c, 0, 72, 58
7, 44999, Note_on_c, 0, 72, 0
7, 44999, Note_on_c, 0, 60, 0
7, 45000, Note_on_c, 0, 60, 59
7, 45120, Note_on_c, 0, 72, 59
7, 45479, Note_on_c, 0, 72, 0
7, 45479, Note_on_c, 0, 60, 0
7, 45480, Note_on_c, 0, 60, 60
7, 45600, Note_on_c, 0, 72, 60
7, 45959, Note_on_c, 0, 72, 0
7, 45959, Note_on_c, 0, 60, 0
7, 45960, Note_on_c, 0, 60, 61
7, 46080, Note_on_c, 0, 48, 62
7, 46439, Note_on_c, 0, 48, 0
7, 46439, Note_on_c, 0, 60, 0
7, 46440, Note_on_c, 0, 61, 63
7, 46560, Note_on_c, 0, 72, 68
7, 46919, Note_on_c, 0, 72, 0
7, 46919, Note_on_c, 0, 61, 0
7, 46920, Note_on_c, 0, 62, 71
7, 47040, Note_on_c, 0, 70, 73
7, 47399, Note_on_c, 0, 70, 0
7, 47399, Note_on_c, 0, 62, 0
7, 47400, Note_on_c, 0, 64, 76
7, 47519, Note_on_c, 0, 64, 0
7, 47520, Note_on_c, 0, 64, 80
7, 47520, Note_on_c, 0, 67, 80
7, 47879, Note_on_c, 0, 67, 0
7, 47879, Note_on_c, 0, 64, 0
7, 47880, Note_on_c, 0, 65, 80
7, 48000, Note_on_c, 0, 69, 70
7, 48359, Note_on_c, 0, 69, 0
7, 48359, Note_on_c, 0, 65, 0
7, 48360, Note_on_c, 0, 60, 64
7, 48480, Note_on_c, 0, 72, 64
7, 48839, Note_on_c, 0, 72, 0
7, 48839, Note_on_c, 0, 60, 0
7, 48840, Note_on_c, 0, 60, 64
7, 48960, Note_on_c, 0, 72, 64
7, 49319, Note_on_c, 0, 72, 0
7, 49319, Note_on_c, 0, 60, 0
7, 49320, Note_on_c, 0, 60, 64
7, 49440, Note_on_c, 0, 72, 64
7, 49799, Note_on_c, 0, 72, 0
7, 49799, Note_on_c, 0, 60, 0
7, 49800, Note_on_c, 0, 60, 64
7, 49920, Note_on_c, 0, 72, 64
7, 50279, Note_on_c, 0, 72, 0
7, 50279, Note_on_c, 0, 60, 0
7, 50280, Note_on_c, 0, 60, 67
7, 50400, Note_on_c, 0, 72, 70
7, 50759, Note_on_c, 0, 72, 0
7, 50759, Note_on_c, 0, 60, 0
7, 50760, Note_on_c, 0, 61, 79
7, 50880, Note_on_c, 0, 70, 82
7, 51239, Note_on_c, 0, 70, 0
7, 51239, Note_on_c, 0, 61, 0
7, 51240, Note_on_c, 0, 64, 82
7, 51360, Note_on_c, 0, 67, 79
7, 51719, Note_on_c, 0, 67, 0
7, 51719, Note_on_c, 0, 64, 0
7, 51720, Note_on_c, 0, 65, 64
7, 51840, Note_on_c, 0, 68, 51
7, 52199, Note_on_c, 0, 68, 0
7, 52199, Note_on_c, 0, 65, 0
7, 52200, Note_on_c, 0, 60, 52
7, 52320, Note_on_c, 0, 72, 53
7, 52679, Note_on_c, 0, 72, 0
7, 52679, Note_on_c, 0, 60, 0
7, 52680, Note_on_c, 0, 60, 54
7, 52800, Note_on_c, 0, 72, 55
7, 53159, Note_on_c, 0, 72, 0
7, 53159, Note_on_c, 0, 60, 0
7, 53160, Note_on_c, 0, 60, 56
7, 53280, Note_on_c, 0, 72, 57
7, 53639, Note_on_c, 0, 72, 0
7, 53639, Note_on_c, 0, 60, 0
7, 53640, Note_on_c, 0, 60, 58
7, 53760, Note_on_c, 0, 72, 59
7, 54119, Note_on_c, 0, 72, 0
7, 54119, Note_on_c, 0, 60, 0
7, 54120, Note_on_c, 0, 61, 60
7, 54240, Note_on_c, 0, 73, 61
7, 54599, Note_on_c, 0, 73, 0
7, 54599, Note_on_c, 0, 61, 0
7, 54600, Note_on_c, 0, 61, 69
7, 54720, Note_on_c, 0, 73, 71
7, 55079, Note_on_c, 0, 73, 0
7, 55079, Note_on_c, 0, 61, 0
7, 55080, Note_on_c, 0, 61, 79
7, 55200, Note_on_c, 0, 65, 81
7, 55559, Note_on_c, 0, 65, 0
7, 55559, Note_on_c, 0, 61, 0
7, 55560, Note_on_c, 0, 61, 89
7, 55680, Note_on_c, 0, 66, 91
7, 56039, Note_on_c, 0, 66, 0
7, 56039, Note_on_c, 0, 61, 0
7, 56040, Note_on_c, 0, 58, 88
7, 56160, Note_on_c, 0, 61, 87
7, 56519, Note_on_c, 0, 61, 0
7, 56519, Note_on_c, 0, 58, 0
7, 56520, Note_on_c, 0, 56, 82
7, 56640, Note_on_c, 0, 61, 80
7, 56999, Note_on_c, 0, 61, 0
7, 56999, Note_on_c, 0, 56, 0
7, 57000, Note_on_c, 0, 56, 75
7, 57120, Note_on_c, 0, 61, 74
7, 57479, Note_on_c, 0, 61, 0
7, 57479, Note_on_c, 0, 56, 0
7, 57480, Note_on_c, 0, 55, 69
7, 57600, Note_on_c, 0, 61, 64
7, 57959, Note_on_c, 0, 61, 0
7, 57959, Note_on_c, 0, 55, 0
7, 57960, Note_on_c, 0, 55, 63
7, 58080, Note_on_c, 0, 61, 63
7, 58439, Note_on_c, 0, 61, 0
7, 58439, Note_on_c, 0, 55, 0
7, 58440, Note_on_c, 0, 55, 62
7, 58560, Note_on_c, 0, 61, 62
7, 58919, Note_on_c, 0, 61, 0
7, 58919, Note_on_c, 0, 55, 0
7, 58920, Note_on_c, 0, 55, 60
7, 59040, Note_on_c, 0, 61, 60
7, 59399, Note_on_c, 0, 61, 0
7, 59399, Note_on_c, 0, 55, 0
7, 59400, Note_on_c, 0, 56, 58
7, 59520, Note_on_c, 0, 61, 59
7, 59879, Note_on_c, 0, 61, 0
7, 59879, Note_on_c, 0, 56, 0
7, 59880, Note_on_c, 0, 58, 56
7, 60000, Note_on_c, 0, 61, 58
7, 60359, Note_on_c, 0, 61, 0
7, 60359, Note_on_c, 0, 58, 0
7, 60360, Note_on_c, 0, 56, 55
7, 60480, Note_on_c, 0, 61, 56
7, 60839, Note_on_c, 0, 61, 0
7, 60839, Note_on_c, 0, 56, 0
7, 60840, Note_on_c, 0, 55, 53
7, 60960, Note_on_c, 0, 61, 55
7, 61319, Note_on_c, 0, 61, 0
7, 61319, Note_on_c, 0, 55, 0
7, 61320, Note_on_c, 0, 53, 51
7, 61440, Note_on_c, 0, 60, 54
7, 61799, Note_on_c, 0, 60, 0
7, 61799, Note_on_c, 0, 53, 0
7, 61800, Note_on_c, 0, 53, 48
7, 61920, Note_on_c, 0, 56, 48
7, 62279, Note_on_c, 0, 56, 0
7, 62279, Note_on_c, 0, 53, 0
7, 62280, Note_on_c, 0, 53, 46
7, 62400, Note_on_c, 0, 57, 52
7, 62759, Note_on_c, 0, 57, 0
7, 62759, Note_on_c, 0, 53, 0
7, 62760, Note_on_c, 0, 52, 44
7, 62880, Note_on_c, 0, 55, 45
7, 63239, Note_on_c, 0, 55, 0
7, 63239, Note_on_c, 0, 52, 0
7, 63240, Note_on_c, 0, 48, 67
7, 63348, Note_on_c, 0, 48, 0
7, 134880, Note_on_c, 0, 33, 64
7, 134940, Control_c, 0, 64, 127
7, 138105, Control_c, 0, 64, 0
7, 138144, Note_on_c, 0, 33, 0
7, 140160, Note_on_c, 0, 43, 76
7, 140376, Note_on_c, 0, 43, 0
7, 140400, Note_on_c, 0, 41, 76
7, 140616, Note_on_c, 0, 41, 0
7, 140640, Note_on_c, 0, 45, 76
7, 140856, Note_on_c, 0, 45, 0
7, 141120, Note_on_c, 0, 41, 76
7, 141336, Note_on_c, 0, 41, 0
7, 141360, Note_on_c, 0, 38, 76
7, 141576, Note_on_c, 0, 38, 0
7, 141600, Note_on_c, 0, 45, 76
7, 141816, Note_on_c, 0, 45, 0
7, 143520, Note_on_c, 0, 39, 76
7, 143736, Note_on_c, 0, 39, 0
7, 143760, Note_on_c, 0, 38, 76
7, 143976, Note_on_c, 0, 38, 0
7, 144000, Note_on_c, 0, 37, 76
7, 144216, Note_on_c, 0, 37, 0
7, 144240, Note_on_c, 0, 38, 76
7, 144456, Note_on_c, 0, 38, 0
7, 144480, Note_on_c, 0, 40, 76
7, 144696, Note_on_c, 0, 40, 0
7, 144720, Note_on_c, 0, 41, 76
7, 144936, Note_on_c, 0, 41, 0
7, 144960, Note_on_c, 0, 43, 76
7, 145176, Note_on_c, 0, 43, 0
7, 145200, Note_on_c, 0, 44, 76
7, 145416, Note_on_c, 0, 44, 0
7, 145440, Note_on_c, 0, 45, 76
7, 145656, Note_on_c, 0, 45, 0
7, 145920, Note_on_c, 0, 49, 64
7, 146136, Note_on_c, 0, 49, 0
7, 146160, Note_on_c, 0, 50, 64
7, 146376, Note_on_c, 0, 50, 0
7, 146400, Note_on_c, 0, 52, 64
7, 146616, Note_on_c, 0, 52, 0
7, 146640, Note_on_c, 0, 53, 64
7, 146856, Note_on_c, 0, 53, 0
7, 146880, Note_on_c, 0, 55, 64
7, 147096, Note_on_c, 0, 55, 0
7, 147120, Note_on_c, 0, 53, 64
7, 147336, Note_on_c, 0, 53, 0
7, 147360, Note_on_c, 0, 52, 64
7, 147576, Note_on_c, 0, 52, 0
7, 147600, Note_on_c, 0, 57, 71
7, 147816, Note_on_c, 0, 57, 0
7, 147840, Note_on_c, 0, 56, 68
7, 148056, Note_on_c, 0, 56, 0
7, 148080, Note_on_c, 0, 52, 64
7, 148296, Note_on_c, 0, 52, 0
7, 148320, Note_on_c, 0, 57, 62
7, 148536, Note_on_c, 0, 57, 0
7, 148560, Note_on_c, 0, 55, 59
7, 148776, Note_on_c, 0, 55, 0
7, 148800, Note_on_c, 0, 54, 55
7, 149016, Note_on_c, 0, 54, 0
7, 149040, Note_on_c, 0, 59, 52
7, 149256, Note_on_c, 0, 59, 0
7, 149280, Note_on_c, 0, 58, 50
7, 149496, Note_on_c, 0, 58, 0
7, 149520, Note_on_c, 0, 55, 47
7, 149736, Note_on_c, 0, 55, 0
7, 149760, Control_c, 0, 64, 127
7, 149760, Note_on_c, 0, 56, 46
7, 149976, Note_on_c, 0, 56, 0
7, 150000, Note_on_c, 0, 60, 57
7, 150216, Note_on_c, 0, 60, 0
7, 150240, Note_on_c, 0, 61, 55
7, 150456, Note_on_c, 0, 61, 0
7, 150480, Note_on_c, 0, 56, 52
7, 150696, Note_on_c, 0, 56, 0
7, 150720, Control_c, 0, 64, 0
7, 150720, Note_on_c, 0, 61, 51
7, 150795, Control_c, 0, 64, 127
7, 150936, Note_on_c, 0, 61, 0
7, 150960, Note_on_c, 0, 56, 46
7, 151176, Note_on_c, 0, 56, 0
7, 151200, Note_on_c, 0, 61, 43
7, 151416, Note_on_c, 0, 61, 0
7, 151440, Note_on_c, 0, 56, 39
7, 151656, Note_on_c, 0, 56, 0
7, 151680, Note_on_c, 0, 61, 36
7, 151755, Control_c, 0, 64, 0
7, 151896, Note_on_c, 0, 61, 0
7, 151905, Control_c, 0, 64, 127
7, 151920, Note_on_c, 0, 56, 33
7, 152136, Note_on_c, 0, 56, 0
7, 152865, Control_c, 0, 64, 0
7, 159900, Note_on_c, 0, 45, 98
7, 159954, Note_on_c, 0, 45, 0
7, 159960, Note_on_c, 0, 43, 95
7, 160014, Note_on_c, 0, 43, 0
7, 160020, Note_on_c, 0, 41, 93
7, 160074, Note_on_c, 0, 41, 0
7, 160080, Note_on_c, 0, 40, 90
7, 160134, Note_on_c, 0, 40, 0
7, 160140, Note_on_c, 0, 38, 88
7, 160194, Note_on_c, 0, 38, 0
7, 160200, Note_on_c, 0, 37, 86
7, 160254, Note_on_c, 0, 37, 0
7, 160260, Note_on_c, 0, 34, 83
7, 160314, Note_on_c, 0, 34, 0
7, 160320, Note_on_c, 0, 33, 81
7, 160428, Note_on_c, 0, 33, 0
7, 160440, Note_on_c, 0, 43, 76
7, 160548, Note_on_c, 0, 43, 0
7, 160560, Note_on_c, 0, 41, 76
7, 160668, Note_on_c, 0, 41, 0
7, 160680, Note_on_c, 0, 40, 76
7, 160788, Note_on_c, 0, 40, 0
7, 160800, Note_on_c, 0, 41, 76
7, 160908, Note_on_c, 0, 41, 0
7, 160920, Note_on_c, 0, 45, 76
7, 161028, Note_on_c, 0, 45, 0
7, 161040, Note_on_c, 0, 43, 76
7, 161148, Note_on_c, 0, 43, 0
7, 161160, Note_on_c, 0, 40, 76
7, 161268, Note_on_c, 0, 40, 0
7, 161280, Note_on_c, 0, 38, 76
7, 161388, Note_on_c, 0, 38, 0
7, 161400, Note_on_c, 0, 41, 76
7, 161508, Note_on_c, 0, 41, 0
7, 161520, Note_on_c, 0, 40, 76
7, 161628, Note_on_c, 0, 40, 0
7, 161640, Note_on_c, 0, 36, 76
7, 161748, Note_on_c, 0, 36, 0
7, 161760, Note_on_c, 0, 34, 76
7, 161868, Note_on_c, 0, 34, 0
7, 161880, Note_on_c, 0, 38, 76
7, 161988, Note_on_c, 0, 38, 0
7, 162000, Note_on_c, 0, 33, 76
7, 162108, Note_on_c, 0, 33, 0
7, 162120, Note_on_c, 0, 38, 76
7, 162228, Note_on_c, 0, 38, 0
7, 162240, Note_on_c, 0, 31, 76
7, 162240, Note_on_c, 0, 43, 76
7, 162456, Note_on_c, 0, 43, 0
7, 162456, Note_on_c, 0, 31, 0
7, 162480, Note_on_c, 0, 29, 76
7, 162480, Note_on_c, 0, 41, 76
7, 162696, Note_on_c, 0, 41, 0
7, 162696, Note_on_c, 0, 29, 0
7, 162720, Note_on_c, 0, 33, 76
7, 162720, Note_on_c, 0, 45, 76
7, 162936, Note_on_c, 0, 45, 0
7, 162936, Note_on_c, 0, 33, 0
7, 163200, Note_on_c, 0, 29, 76
7, 163200, Note_on_c, 0, 41, 76
7, 163416, Note_on_c, 0, 41, 0
7, 163416, Note_on_c, 0, 29, 0
7, 163440, Note_on_c, 0, 26, 76
7, 163440, Note_on_c, 0, 38, 76
7, 163656, Note_on_c, 0, 38, 0
7, 163656, Note_on_c, 0, 26, 0
7, 163680, Note_on_c, 0, 33, 76
7, 163680, Note_on_c, 0, 45, 76
7, 163896, Note_on_c, 0, 45, 0
7, 163896, Note_on_c, 0, 33, 0
7, 164160, Note_on_c, 0, 50, 70
7, 164268, Note_on_c, 0, 50, 0
7, 164280, Note_on_c, 0, 48, 70
7, 164388, Note_on_c, 0, 48, 0
7, 164400, Note_on_c, 0, 46, 70
7, 164508, Note_on_c, 0, 46, 0
7, 164520, Note_on_c, 0, 45, 70
7, 164628, Note_on_c, 0, 45, 0
7, 164640, Note_on_c, 0, 46, 70
7, 164748, Note_on_c, 0, 46, 0
7, 164760, Note_on_c, 0, 50, 70
7, 164868, Note_on_c, 0, 50, 0
7, 164880, Note_on_c, 0, 48, 70
7, 164988, Note_on_c, 0, 48, 0
7, 165000, Note_on_c, 0, 45, 70
7, 165108, Note_on_c, 0, 45, 0
7, 165120, Note_on_c, 0, 43, 70
7, 165228, Note_on_c, 0, 43, 0
7, 165240, Note_on_c, 0, 46, 70
7, 165348, Note_on_c, 0, 46, 0
7, 165360, Note_on_c, 0, 45, 70
7, 165468, Note_on_c, 0, 45, 0
7, 165480, Note_on_c, 0, 41, 70
7, 165588, Note_on_c, 0, 41, 0
7, 165600, Note_on_c, 0, 39, 70
7, 165708, Note_on_c, 0, 39, 0
7, 165720, Note_on_c, 0, 43, 70
7, 165828, Note_on_c, 0, 43, 0
7, 165840, Note_on_c, 0, 38, 70
7, 165948, Note_on_c, 0, 38, 0
7, 165960, Note_on_c, 0, 43, 70
7, 166068, Note_on_c, 0, 43, 0
7, 166080, Note_on_c, 0, 37, 70
7, 166188, Note_on_c, 0, 37, 0
7, 166200, Note_on_c, 0, 40, 84
7, 166308, Note_on_c, 0, 40, 0
7, 166320, Note_on_c, 0, 38, 84
7, 166428, Note_on_c, 0, 38, 0
7, 166440, Note_on_c, 0, 41, 84
7, 166548, Note_on_c, 0, 41, 0
7, 166560, Note_on_c, 0, 40, 84
7, 166668, Note_on_c, 0, 40, 0
7, 166680, Note_on_c, 0, 43, 84
7, 166788, Note_on_c, 0, 43, 0
7, 166800, Note_on_c, 0, 41, 84
7, 166908, Note_on_c, 0, 41, 0
7, 166920, Note_on_c, 0, 45, 84
7, 167028, Note_on_c, 0, 45, 0
7, 167040, Note_on_c, 0, 43, 84
7, 167256, Note_on_c, 0, 43, 0
7, 167280, Note_on_c, 0, 45, 84
7, 167496, Note_on_c, 0, 45, 0
7, 167520, Note_on_c, 0, 41, 84
7, 167736, Note_on_c, 0, 41, 0
7, 167760, Note_on_c, 0, 40, 84
7, 167868, Note_on_c, 0, 40, 0
7, 167880, Note_on_c, 0, 38, 84
7, 167988, Note_on_c, 0, 38, 0
7, 168000, Note_on_c, 0, 37, 84
7, 168108, Note_on_c, 0, 37, 0
7, 168120, Note_on_c, 0, 40, 84
7, 168228, Note_on_c, 0, 40, 0
7, 168240, Note_on_c, 0, 38, 84
7, 168348, Note_on_c, 0, 38, 0
7, 168360, Note_on_c, 0, 41, 84
7, 168468, Note_on_c, 0, 41, 0
7, 168480, Note_on_c, 0, 40, 84
7, 168588, Note_on_c, 0, 40, 0
7, 168600, Note_on_c, 0, 43, 84
7, 168708, Note_on_c, 0, 43, 0
7, 168720, Note_on_c, 0, 41, 84
7, 168828, Note_on_c, 0, 41, 0
7, 168840, Note_on_c, 0, 45, 84
7, 168948, Note_on_c, 0, 45, 0
7, 168960, Note_on_c, 0, 43, 100
7, 169176, Note_on_c, 0, 43, 0
7, 169200, Note_on_c, 0, 45, 100
7, 169416, Note_on_c, 0, 45, 0
7, 169440, Note_on_c, 0, 42, 100
7, 169656, Note_on_c, 0, 42, 0
7, 169680, Note_on_c, 0, 38, 100
7, 169788, Note_on_c, 0, 38, 0
7, 169800, Note_on_c, 0, 36, 100
7, 169908, Note_on_c, 0, 36, 0
7, 169920, Note_on_c, 0, 34, 76
7, 170136, Note_on_c, 0, 34, 0
7, 170160, Note_on_c, 0, 29, 74
7, 170160, Note_on_c, 0, 41, 74
7, 170376, Note_on_c, 0, 41, 0
7, 170376, Note_on_c, 0, 29, 0
7, 170400, Note_on_c, 0, 31, 72
7, 170616, Note_on_c, 0, 31, 0
7, 170640, Note_on_c, 0, 34, 70
7, 170856, Note_on_c, 0, 34, 0
7, 170880, Note_on_c, 0, 38, 68
7, 171096, Note_on_c, 0, 38, 0
7, 171120, Note_on_c, 0, 43, 66
7, 171336, Note_on_c, 0, 43, 0
7, 171360, Note_on_c, 0, 45, 64
7, 171576, Note_on_c, 0, 45, 0
7, 171600, Note_on_c, 0, 33, 63
7, 171816, Note_on_c, 0, 33, 0
7, 171840, Note_on_c, 0, 38, 76
7, 172056, Note_on_c, 0, 38, 0
7, 172320, Note_on_c, 0, 38, 62
7, 173279, Note_on_c, 0, 38, 0
7, 173280, Note_on_c, 0, 38, 54
7, 173712, Note_on_c, 0, 38, 0
7, 188160, Control_c, 0, 64, 127
7, 188160, Note_on_c, 0, 41, 54
7, 188376, Note_on_c, 0, 41, 0
7, 188400, Note_on_c, 0, 45, 60
7, 188616, Note_on_c, 0, 45, 0
7, 188640, Note_on_c, 0, 48, 66
7, 188856, Note_on_c, 0, 48, 0
7, 188880, Note_on_c, 0, 52, 72
7, 189096, Note_on_c, 0, 52, 0
7, 189120, Control_c, 0, 64, 0
7, 197760, Note_on_c, 0, 37, 43
7, 197879, Note_on_c, 0, 37, 0
7, 197880, Note_on_c, 0, 49, 43
7, 198239, Note_on_c, 0, 49, 0
7, 198240, Note_on_c, 0, 37, 43
7, 198359, Note_on_c, 0, 37, 0
7, 198360, Note_on_c, 0, 49, 43
7, 198468, Note_on_c, 0, 49, 0
7, 198720, Note_on_c, 0, 34, 43
7, 198839, Note_on_c, 0, 34, 0
7, 198840, Note_on_c, 0, 46, 43
7, 199199, Note_on_c, 0, 46, 0
7, 199200, Note_on_c, 0, 34, 43
7, 199319, Note_on_c, 0, 34, 0
7, 199320, Note_on_c, 0, 46, 43
7, 199428, Note_on_c, 0, 46, 0
7, 199680, Note_on_c, 0, 30, 43
7, 199799, Note_on_c, 0, 30, 0
7, 199800, Note_on_c, 0, 42, 43
7, 200159, Note_on_c, 0, 42, 0
7, 200160, Note_on_c, 0, 30, 43
7, 200279, Note_on_c, 0, 30, 0
7, 200280, Note_on_c, 0, 42, 43
7, 200388, Note_on_c, 0, 42, 0
7, 200640, Note_on_c, 0, 30, 43
7, 200759, Note_on_c, 0, 30, 0
7, 200760, Note_on_c, 0, 42, 43
7, 201119, Note_on_c, 0, 42, 0
7, 201120, Note_on_c, 0, 30, 38
7, 201239, Note_on_c, 0, 30, 0
7, 201240, Note_on_c, 0, 42, 39
7, 201359, Note_on_c, 0, 42, 0
7, 201360, Note_on_c, 0, 29, 39
7, 201479, Note_on_c, 0, 29, 0
7, 201480, Note_on_c, 0, 41, 40
7, 201588, Note_on_c, 0, 41, 0
7, 201600, Note_on_c, 0, 27, 48
7, 201600, Note_on_c, 0, 39, 48
7, 201839, Note_on_c, 0, 39, 0
7, 201839, Note_on_c, 0, 27, 0
7, 201840, Note_on_c, 0, 39, 48
7, 201840, Note_on_c, 0, 46, 48
7, 202079, Note_on_c, 0, 39, 0
7, 202080, Note_on_c, 0, 41, 49
7, 202296, Note_on_c, 0, 41, 0
7, 202296, Note_on_c, 0, 46, 0
7, 202800, Note_on_c, 0, 39, 52
7, 203039, Note_on_c, 0, 39, 0
7, 203040, Note_on_c, 0, 41, 53
7, 203256, Note_on_c, 0, 41, 0
7, 203520, Control_c, 0, 64, 127
7, 203520, Note_on_c, 0, 42, 55
7, 203976, Note_on_c, 0, 42, 0
7, 204480, Note_on_c, 0, 42, 59
7, 204936, Note_on_c, 0, 42, 0
7, 205920, Note_on_c, 0, 42, 51
7, 206352, Note_on_c, 0, 42, 0
7, 206880, Note_on_c, 0, 42, 51
7, 207312, Note_on_c, 0, 42, 0
7, 207840, Note_on_c, 0, 42, 51
7, 208272, Note_on_c, 0, 42, 0
7, 208800, Note_on_c, 0, 42, 51
7, 209232, Note_on_c, 0, 42, 0
7, 209760, Note_on_c, 0, 42, 51
7, 210192, Note_on_c, 0, 42, 0
7, 211620, Control_c, 0, 64, 127
7, 211680, Note_on_c, 0, 42, 51
7, 212112, Note_on_c, 0, 42, 0
7, 213120, Control_c, 0, 64, 0
7, 217200, Note_on_c, 0, 58, 51
7, 217848, Note_on_c, 0, 58, 0
7, 217920, Control_c, 0, 64, 127
7, 217920, Note_on_c, 0, 57, 53
7, 218399, Note_on_c, 0, 57, 0
7, 218400, Note_on_c, 0, 56, 54
7, 218832, Note_on_c, 0, 56, 0
7, 218880, Control_c, 0, 64, 0
7, 218880, Note_on_c, 0, 55, 55
7, 219359, Note_on_c, 0, 55, 0
7, 219360, Note_on_c, 0, 54, 56
7, 219792, Note_on_c, 0, 54, 0
7, 219840, Control_c, 0, 64, 127
7, 219840, Note_on_c, 0, 53, 57
7, 220319, Note_on_c, 0, 53, 0
7, 220320, Note_on_c, 0, 51, 58
7, 220752, Note_on_c, 0, 51, 0
7, 220800, Control_c, 0, 64, 0
7, 220800, Note_on_c, 0, 41, 59
7, 220800, Note_on_c, 0, 50, 59
7, 221279, Note_on_c, 0, 50, 0
7, 221279, Note_on_c, 0, 41, 0
7, 221280, Note_on_c, 0, 38, 60
7, 221280, Note_on_c, 0, 50, 60
7, 221712, Note_on_c, 0, 50, 0
7, 221712, Note_on_c, 0, 38, 0
7, 221760, Control_c, 0, 64, 127
7, 221760, Note_on_c, 0, 34, 61
7, 221760, Note_on_c, 0, 46, 61
7, 222239, Note_on_c, 0, 46, 0
7, 222239, Note_on_c, 0, 34, 0
7, 222240, Note_on_c, 0, 56, 62
7, 222240, Note_on_c, 0, 53, 62
7, 222240, Note_on_c, 0, 46, 62
7, 222672, Note_on_c, 0, 46, 0
7, 222672, Note_on_c, 0, 53, 0
7, 222672, Note_on_c, 0, 56, 0
7, 222720, Control_c, 0, 64, 0
7, 222720, Note_on_c, 0, 55, 57
7, 222720, Note_on_c, 0, 51, 57
7, 223584, Note_on_c, 0, 51, 0
7, 223584, Note_on_c, 0, 55, 0
7, 223644, Control_c, 0, 64, 127
7, 223680, Note_on_c, 0, 53, 57
7, 223680, Note_on_c, 0, 51, 57
7, 223680, Note_on_c, 0, 41, 57
7, 224544, Note_on_c, 0, 41, 0
7, 224544, Note_on_c, 0, 51, 0
7, 224544, Note_on_c, 0, 53, 0
7, 224604, Control_c, 0, 64, 0
7, 224640, Note_on_c, 0, 53, 57
7, 224640, Note_on_c, 0, 50, 57
7, 224640, Note_on_c, 0, 46, 57
7, 226032, Note_on_c, 0, 46, 0
7, 226032, Note_on_c, 0, 50, 0
7, 226032, Note_on_c, 0, 53, 0
7, 226560, Note_on_c, 0, 49, 64
7, 226679, Note_on_c, 0, 49, 0
7, 226680, Note_on_c, 0, 50, 64
7, 227039, Note_on_c, 0, 50, 0
7, 227040, Note_on_c, 0, 45, 59
7, 227159, Note_on_c, 0, 45, 0
7, 227160, Note_on_c, 0, 46, 59
7, 227268, Note_on_c, 0, 46, 0
7, 227520, Note_on_c, 0, 40, 56
7, 227639, Note_on_c, 0, 40, 0
7, 227640, Note_on_c, 0, 41, 56
7, 227999, Note_on_c, 0, 41, 0
7, 228000, Note_on_c, 0, 40, 54
7, 228119, Note_on_c, 0, 40, 0
7, 228120, Note_on_c, 0, 41, 53
7, 228228, Note_on_c, 0, 41, 0
7, 228480, Note_on_c, 0, 34, 64
7, 228696, Note_on_c, 0, 34, 0
7, 237120, Note_on_c, 0, 37, 64
7, 237228, Note_on_c, 0, 37, 0
7, 237360, Note_on_c, 0, 41, 64
7, 237468, Note_on_c, 0, 41, 0
7, 237600, Note_on_c, 0, 46, 64
7, 237708, Note_on_c, 0, 46, 0
7, 237840, Note_on_c, 0, 49, 64
7, 237948, Note_on_c, 0, 49, 0
7, 238080, Note_on_c, 0, 53, 64
7, 238188, Note_on_c, 0, 53, 0
7, 238320, Note_on_c, 0, 46, 64
7, 238428, Note_on_c, 0, 46, 0
7, 238560, Note_on_c, 0, 45, 64
7, 238668, Note_on_c, 0, 45, 0
7, 238800, Note_on_c, 0, 51, 64
7, 238908, Note_on_c, 0, 51, 0
7, 239040, Note_on_c, 0, 49, 64
7, 239148, Note_on_c, 0, 49, 0
7, 239640, Note_on_c, 0, 49, 64
7, 239694, Note_on_c, 0, 49, 0
7, 239760, Note_on_c, 0, 48, 64
7, 239814, Note_on_c, 0, 48, 0
7, 239880, Note_on_c, 0, 44, 64
7, 239934, Note_on_c, 0, 44, 0
7, 240000, Note_on_c, 0, 43, 64
7, 240054, Note_on_c, 0, 43, 0
7, 240120, Note_on_c, 0, 46, 64
7, 240174, Note_on_c, 0, 46, 0
7, 240240, Note_on_c, 0, 44, 64
7, 240294, Note_on_c, 0, 44, 0
7, 240360, Note_on_c, 0, 41, 64
7, 240414, Note_on_c, 0, 41, 0
7, 240480, Note_on_c, 0, 39, 64
7, 240534, Note_on_c, 0, 39, 0
7, 240600, Note_on_c, 0, 43, 64
7, 240654, Note_on_c, 0, 43, 0
7, 240720, Note_on_c, 0, 41, 64
7, 240774, Note_on_c, 0, 41, 0
7, 240840, Note_on_c, 0, 37, 64
7, 240894, Note_on_c, 0, 37, 0
7, 240960, Note_on_c, 0, 36, 64
7, 241068, Note_on_c, 0, 36, 0
7, 241200, Note_on_c, 0, 43, 64
7, 241308, Note_on_c, 0, 43, 0
7, 241440, Note_on_c, 0, 48, 64
7, 241548, Note_on_c, 0, 48, 0
7, 241680, Note_on_c, 0, 52, 64
7, 241788, Note_on_c, 0, 52, 0
7, 241920, Note_on_c, 0, 53, 64
7, 242028, Note_on_c, 0, 53, 0
7, 243840, Note_on_c, 0, 36, 45
7, 243948, Note_on_c, 0, 36, 0
7, 244080, Note_on_c, 0, 41, 90
7, 244512, Note_on_c, 0, 41, 0
7, 244560, Note_on_c, 0, 43, 45
7, 244614, Note_on_c, 0, 43, 0
7, 244620, Note_on_c, 0, 44, 45
7, 244674, Note_on_c, 0, 44, 0
7, 244680, Note_on_c, 0, 43, 45
7, 244734, Note_on_c, 0, 43, 0
7, 244740, Note_on_c, 0, 44, 45
7, 244794, Note_on_c, 0, 44, 0
7, 244800, Note_on_c, 0, 44, 45
7, 244908, Note_on_c, 0, 44, 0
7, 245040, Note_on_c, 0, 46, 45
7, 245148, Note_on_c, 0, 46, 0
7, 245280, Note_on_c, 0, 48, 90
7, 245712, Note_on_c, 0, 48, 0
7, 245760, Note_on_c, 0, 33, 43
7, 245868, Note_on_c, 0, 33, 0
7, 246000, Note_on_c, 0, 34, 43
7, 246108, Note_on_c, 0, 34, 0
7, 246240, Note_on_c, 0, 36, 90
7, 246672, Note_on_c, 0, 36, 0
7, 246720, Note_on_c, 0, 33, 44
7, 246828, Note_on_c, 0, 33, 0
7, 246960, Note_on_c, 0, 36, 45
7, 247068, Note_on_c, 0, 36, 0
7, 247200, Note_on_c, 0, 41, 45
7, 247308, Note_on_c, 0, 41, 0
7, 247440, Note_on_c, 0, 45, 45
7, 247548, Note_on_c, 0, 45, 0
7, 247680, Note_on_c, 0, 34, 45
7, 247788, Note_on_c, 0, 34, 0
7, 247920, Note_on_c, 0, 46, 45
7, 248028, Note_on_c, 0, 46, 0
7, 248160, Note_on_c, 0, 36, 46
7, 248268, Note_on_c, 0, 36, 0
7, 248400, Note_on_c, 0, 48, 47
7, 248508, Note_on_c, 0, 48, 0
7, 248640, Note_on_c, 0, 37, 67
7, 248640, Note_on_c, 0, 49, 67
7, 248748, Note_on_c, 0, 49, 0
7, 248748, Note_on_c, 0, 37, 0
7, 249120, Note_on_c, 0, 53, 68
7, 249120, Note_on_c, 0, 41, 68
7, 249228, Note_on_c, 0, 41, 0
7, 249228, Note_on_c, 0, 53, 0
7, 249600, Note_on_c, 0, 58, 69
7, 249600, Note_on_c, 0, 46, 69
7, 249708, Note_on_c, 0, 46, 0
7, 249708, Note_on_c, 0, 58, 0
7, 250080, Note_on_c, 0, 49, 71
7, 250188, Note_on_c, 0, 49, 0
7, 250560, Note_on_c, 0, 53, 72
7, 250668, Note_on_c, 0, 53, 0
7, 251040, Note_on_c, 0, 46, 73
7, 251148, Note_on_c, 0, 46, 0
7, 251520, Note_on_c, 0, 45, 74
7, 251628, Note_on_c, 0, 45, 0
7, 252000, Note_on_c, 0, 51, 67
7, 252108, Note_on_c, 0, 51, 0
7, 252480, Note_on_c, 0, 49, 51
7, 252588, Note_on_c, 0, 49, 0
7, 253440, Note_on_c, 0, 53, 50
7, 253440, Note_on_c, 0, 46, 50
7, 253548, Note_on_c, 0, 46, 0
7, 253548, Note_on_c, 0, 53, 0
7, 257280, Note_on_c, 0, 69, 46
7, 257280, Note_on_c, 0, 65, 46
7, 257280, Note_on_c, 0, 60, 46
7, 257388, Note_on_c, 0, 60, 0
7, 257388, Note_on_c, 0, 65, 0
7, 257388, Note_on_c, 0, 69, 0
7, 259200, Note_on_c, 0, 48, 44
7, 259308, Note_on_c, 0, 48, 0
7, 259320, Note_on_c, 0, 53, 44
7, 259428, Note_on_c, 0, 53, 0
7, 259440, Note_on_c, 0, 55, 44
7, 259548, Note_on_c, 0, 55, 0
7, 259560, Note_on_c, 0, 59, 44
7, 259668, Note_on_c, 0, 59, 0
7, 259680, Note_on_c, 0, 60, 44
7, 259896, Note_on_c, 0, 60, 0
7, 260160, Note_on_c, 0, 31, 44
7, 260160, Note_on_c, 0, 43, 44
7, 260376, Note_on_c, 0, 43, 0
7, 260376, Note_on_c, 0, 31, 0
7, 261120, Note_on_c, 0, 43, 44
7, 261228, Note_on_c, 0, 43, 0
7, 261240, Note_on_c, 0, 48, 43
7, 261348, Note_on_c, 0, 48, 0
7, 261360, Note_on_c, 0, 50, 43
7, 261468, Note_on_c, 0, 50, 0
7, 261480, Note_on_c, 0, 55, 43
7, 261588, Note_on_c, 0, 55, 0
7, 261600, Note_on_c, 0, 31, 52
7, 261816, Note_on_c, 0, 31, 0
7, 262080, Note_on_c, 0, 36, 53
7, 262188, Note_on_c, 0, 36, 0
7, 262200, Note_on_c, 0, 40, 53
7, 262308, Note_on_c, 0, 40, 0
7, 262320, Note_on_c, 0, 43, 53
7, 262428, Note_on_c, 0, 43, 0
7, 262440, Note_on_c, 0, 48, 53
7, 262548, Note_on_c, 0, 48, 0
7, 262560, Note_on_c, 0, 52, 53
7, 262776, Note_on_c, 0, 52, 0
7, 262800, Note_on_c, 0, 48, 53
7, 263016, Note_on_c, 0, 48, 0
7, 263040, Control_c, 0, 64, 127
7, 263040, Note_on_c, 0, 48, 52
7, 263148, Note_on_c, 0, 48, 0
7, 263160, Note_on_c, 0, 52, 52
7, 263268, Note_on_c, 0, 52, 0
7, 263280, Note_on_c, 0, 55, 52
7, 263388, Note_on_c, 0, 55, 0
7, 263400, Note_on_c, 0, 60, 52
7, 263508, Note_on_c, 0, 60, 0
7, 264000, Control_c, 0, 64, 0
7, 274800, Control_c, 0, 64, 127
7, 275040, Note_on_c, 0, 59, 90
7, 275472, Note_on_c, 0, 59, 0
7, 275760, Control_c, 0, 64, 0
7, 284160, Note_on_c, 0, 46, 108
7, 284268, Note_on_c, 0, 46, 0
7, 284400, Note_on_c, 0, 43, 104
7, 284508, Note_on_c, 0, 43, 0
7, 284640, Note_on_c, 0, 40, 102
7, 284748, Note_on_c, 0, 40, 0
7, 284880, Note_on_c, 0, 37, 98
7, 284988, Note_on_c, 0, 37, 0
7, 285120, Note_on_c, 0, 33, 96
7, 285228, Note_on_c, 0, 33, 0
7, 285360, Note_on_c, 0, 43, 92
7, 285360, Note_on_c, 0, 55, 92
7, 285468, Note_on_c, 0, 55, 0
7, 285468, Note_on_c, 0, 43, 0
7, 285600, Note_on_c, 0, 41, 89
7, 285600, Note_on_c, 0, 53, 89
7, 285708, Note_on_c, 0, 53, 0
7, 285708, Note_on_c, 0, 41, 0
7, 285840, Note_on_c, 0, 40, 80
7, 285840, Note_on_c, 0, 52, 80
7, 285948, Note_on_c, 0, 52, 0
7, 285948, Note_on_c, 0, 40, 0
7, 286080, Note_on_c, 0, 38, 80
7, 286080, Note_on_c, 0, 50, 80
7, 286188, Note_on_c, 0, 50, 0
7, 286188, Note_on_c, 0, 38, 0
7, 286320, Note_on_c, 0, 36, 80
7, 286320, Note_on_c, 0, 48, 80
7, 286428, Note_on_c, 0, 48, 0
7, 286428, Note_on_c, 0, 36, 0
7, 286560, Note_on_c, 0, 34, 80
7, 286560, Note_on_c, 0, 46, 80
7, 286668, Note_on_c, 0, 46, 0
7, 286668, Note_on_c, 0, 34, 0
7, 286800, Note_on_c, 0, 50, 88
7, 286908, Note_on_c, 0, 50, 0
7, 287040, Note_on_c, 0, 45, 80
7, 287148, Note_on_c, 0, 45, 0
7, 287280, Note_on_c, 0, 38, 80
7, 287388, Note_on_c, 0, 38, 0
7, 287520, Note_on_c, 0, 33, 80
7, 287628, Note_on_c, 0, 33, 0
7, 287760, Note_on_c, 0, 50, 80
7, 287868, Note_on_c, 0, 50, 0
7, 292800, Control_c, 0, 64, 127
7, 292800, Note_on_c, 0, 37, 80
7, 292800, Note_on_c, 0, 49, 80
7, 292854, Note_on_c, 0, 49, 0
7, 292854, Note_on_c, 0, 37, 0
7, 293040, Note_on_c, 0, 38, 80
7, 293040, Note_on_c, 0, 50, 80
7, 293094, Note_on_c, 0, 50, 0
7, 293094, Note_on_c, 0, 38, 0
7, 293184, Control_c, 0, 64, 0
7, 293280, Note_on_c, 0, 40, 80
7, 293280, Note_on_c, 0, 52, 80
7, 293334, Note_on_c, 0, 52, 0
7, 293334, Note_on_c, 0, 40, 0
7, 293520, Note_on_c, 0, 41, 80
7, 293520, Note_on_c, 0, 53, 80
7, 293574, Note_on_c, 0, 53, 0
7, 293574, Note_on_c, 0, 41, 0
7, 293760, Control_c, 0, 64, 127
7, 293760, Note_on_c, 0, 55, 80
7, 293760, Note_on_c, 0, 43, 80
7, 293814, Note_on_c, 0, 43, 0
7, 293814, Note_on_c, 0, 55, 0
7, 294000, Note_on_c, 0, 53, 80
7, 294000, Note_on_c, 0, 41, 80
7, 294054, Note_on_c, 0, 41, 0
7, 294054, Note_on_c, 0, 53, 0
7, 294240, Note_on_c, 0, 52, 80
7, 294240, Note_on_c, 0, 40, 80
7, 294294, Note_on_c, 0, 40, 0
7, 294294, Note_on_c, 0, 52, 0
7, 294480, Note_on_c, 0, 57, 80
7, 294534, Note_on_c, 0, 57, 0
7, 294720, Control_c, 0, 64, 0
7, 294720, Control_c, 0, 64, 127
7, 294720, Note_on_c, 0, 56, 80
7, 294774, Note_on_c, 0, 56, 0
7, 294960, Note_on_c, 0, 52, 79
7, 295014, Note_on_c, 0, 52, 0
7, 295190, Control_c, 0, 64, 0
7, 295200, Note_on_c, 0, 57, 80
7, 295254, Note_on_c, 0, 57, 0
7, 295440, Note_on_c, 0, 43, 51
7, 295494, Note_on_c, 0, 43, 0
7, 295680, Control_c, 0, 64, 127
7, 295680, Note_on_c, 0, 42, 96
7, 295788, Note_on_c, 0, 42, 0
7, 295920, Note_on_c, 0, 47, 78
7, 296028, Note_on_c, 0, 47, 0
7, 296130, Control_c, 0, 64, 0
7, 296160, Note_on_c, 0, 46, 64
7, 296268, Note_on_c, 0, 46, 0
7, 296400, Note_on_c, 0, 55, 64
7, 296508, Note_on_c, 0, 55, 0
7, 296640, Note_on_c, 0, 56, 64
7, 296748, Note_on_c, 0, 56, 0
7, 296880, Note_on_c, 0, 60, 62
7, 296988, Note_on_c, 0, 60, 0
7, 297120, Note_on_c, 0, 61, 63
7, 297228, Note_on_c, 0, 61, 0
7, 297360, Note_on_c, 0, 44, 73
7, 297360, Control_c, 0, 64, 127
7, 297414, Note_on_c, 0, 44, 0
7, 297600, Note_on_c, 0, 49, 83
7, 297627, Note_on_c, 0, 49, 0
7, 297840, Note_on_c, 0, 56, 93
7, 297867, Note_on_c, 0, 56, 0
7, 298080, Note_on_c, 0, 61, 88
7, 298107, Note_on_c, 0, 61, 0
7, 298120, Control_c, 0, 64, 0
7, 298300, Control_c, 0, 64, 127
7, 298320, Note_on_c, 0, 32, 85
7, 298320, Note_on_c, 0, 44, 85
7, 298347, Note_on_c, 0, 44, 0
7, 298347, Note_on_c, 0, 32, 0
7, 298560, Note_on_c, 0, 49, 75
7, 298560, Note_on_c, 0, 37, 75
7, 298587, Note_on_c, 0, 37, 0
7, 298587, Note_on_c, 0, 49, 0
7, 298800, Note_on_c, 0, 56, 66
7, 298800, Note_on_c, 0, 44, 66
7, 298827, Note_on_c, 0, 44, 0
7, 298827, Note_on_c, 0, 56, 0
7, 299040, Note_on_c, 0, 61, 57
7, 299040, Note_on_c, 0, 49, 57
7, 299067, Note_on_c, 0, 49, 0
7, 299067, Note_on_c, 0, 61, 0
7, 299376, Control_c, 0, 64, 0
7, 307200, Note_on_c, 0, 33, 82
7, 307227, Note_on_c, 0, 33, 0
7, 307320, Note_on_c, 0, 43, 77
7, 307347, Note_on_c, 0, 43, 0
7, 307440, Note_on_c, 0, 41, 77
7, 307467, Note_on_c, 0, 41, 0
7, 307560, Note_on_c, 0, 40, 77
7, 307587, Note_on_c, 0, 40, 0
7, 307680, Note_on_c, 0, 38, 77
7, 307707, Note_on_c, 0, 38, 0
7, 307800, Note_on_c, 0, 45, 77
7, 307827, Note_on_c, 0, 45, 0
7, 307920, Note_on_c, 0, 43, 77
7, 307947, Note_on_c, 0, 43, 0
7, 308040, Note_on_c, 0, 40, 77
7, 308067, Note_on_c, 0, 40, 0
7, 308160, Note_on_c, 0, 38, 77
7, 308187, Note_on_c, 0, 38, 0
7, 308280, Note_on_c, 0, 41, 77
7, 308307, Note_on_c, 0, 41, 0
7, 308400, Note_on_c, 0, 40, 77
7, 308427, Note_on_c, 0, 40, 0
7, 308520, Note_on_c, 0, 36, 77
7, 308547, Note_on_c, 0, 36, 0
7, 308640, Note_on_c, 0, 34, 77
7, 308667, Note_on_c, 0, 34, 0
7, 308760, Note_on_c, 0, 38, 77
7, 308787, Note_on_c, 0, 38, 0
7, 308880, Note_on_c, 0, 33, 77
7, 308907, Note_on_c, 0, 33, 0
7, 309000, Note_on_c, 0, 38, 77
7, 309027, Note_on_c, 0, 38, 0
7, 309120, Note_on_c, 0, 43, 77
7, 309120, Note_on_c, 0, 31, 77
7, 309228, Note_on_c, 0, 31, 0
7, 309228, Note_on_c, 0, 43, 0
7, 309360, Note_on_c, 0, 41, 77
7, 309360, Note_on_c, 0, 29, 77
7, 309468, Note_on_c, 0, 29, 0
7, 309468, Note_on_c, 0, 41, 0
7, 309600, Note_on_c, 0, 45, 77
7, 309600, Note_on_c, 0, 33, 77
7, 309708, Note_on_c, 0, 33, 0
7, 309708, Note_on_c, 0, 45, 0
7, 310080, Note_on_c, 0, 41, 77
7, 310080, Note_on_c, 0, 29, 77
7, 310188, Note_on_c, 0, 29, 0
7, 310188, Note_on_c, 0, 41, 0
7, 310320, Note_on_c, 0, 26, 77
7, 310320, Note_on_c, 0, 38, 77
7, 310428, Note_on_c, 0, 38, 0
7, 310428, Note_on_c, 0, 26, 0
7, 310560, Note_on_c, 0, 33, 77
7, 310560, Note_on_c, 0, 45, 77
7, 310668, Note_on_c, 0, 45, 0
7, 310668, Note_on_c, 0, 33, 0
7, 311040, Note_on_c, 0, 50, 87
7, 311040, Note_on_c, 0, 38, 87
7, 311067, Note_on_c, 0, 38, 0
7, 311067, Note_on_c, 0, 50, 0
7, 311160, Note_on_c, 0, 48, 87
7, 311187, Note_on_c, 0, 48, 0
7, 311280, Note_on_c, 0, 46, 87
7, 311307, Note_on_c, 0, 46, 0
7, 311400, Note_on_c, 0, 45, 86
7, 311427, Note_on_c, 0, 45, 0
7, 311520, Note_on_c, 0, 46, 86
7, 311547, Note_on_c, 0, 46, 0
7, 311640, Note_on_c, 0, 50, 85
7, 311667, Note_on_c, 0, 50, 0
7, 311760, Note_on_c, 0, 48, 79
7, 311787, Note_on_c, 0, 48, 0
7, 311880, Note_on_c, 0, 45, 78
7, 311907, Note_on_c, 0, 45, 0
7, 312000, Note_on_c, 0, 43, 78
7, 312027, Note_on_c, 0, 43, 0
7, 312120, Note_on_c, 0, 46, 78
7, 312147, Note_on_c, 0, 46, 0
7, 312240, Note_on_c, 0, 45, 77
7, 312267, Note_on_c, 0, 45, 0
7, 312360, Note_on_c, 0, 41, 77
7, 312387, Note_on_c, 0, 41, 0
7, 312480, Note_on_c, 0, 39, 76
7, 312507, Note_on_c, 0, 39, 0
7, 312600, Note_on_c, 0, 43, 76
7, 312627, Note_on_c, 0, 43, 0
7, 312720, Note_on_c, 0, 38, 75
7, 312747, Note_on_c, 0, 38, 0
7, 312840, Note_on_c, 0, 41, 75
7, 312867, Note_on_c, 0, 41, 0
7, 312960, Note_on_c, 0, 37, 75
7, 313014, Note_on_c, 0, 37, 0
7, 313080, Note_on_c, 0, 40, 74
7, 313134, Note_on_c, 0, 40, 0
7, 313200, Note_on_c, 0, 33, 74
7, 313254, Note_on_c, 0, 33, 0
7, 313320, Note_on_c, 0, 37, 73
7, 313374, Note_on_c, 0, 37, 0
7, 313440, Note_on_c, 0, 38, 73
7, 313679, Note_on_c, 0, 38, 0
7, 313680, Note_on_c, 0, 41, 72
7, 313896, Note_on_c, 0, 41, 0
7, 321600, Note_on_c, 0, 67, 90
7, 321959, Note_on_c, 0, 67, 0
7, 321960, Note_on_c, 0, 67, 93
7, 322079, Note_on_c, 0, 67, 0
7, 322080, Note_on_c, 0, 67, 93
7, 322439, Note_on_c, 0, 67, 0
7, 322440, Note_on_c, 0, 67, 96
7, 322548, Note_on_c, 0, 67, 0
7, 322560, Note_on_c, 0, 67, 97
7, 322884, Note_on_c, 0, 67, 0
7, 322920, Note_on_c, 0, 67, 99
7, 323039, Note_on_c, 0, 67, 0
7, 323040, Note_on_c, 0, 67, 90
7, 323279, Note_on_c, 0, 67, 0
7, 323280, Note_on_c, 0, 67, 96
7, 323399, Note_on_c, 0, 67, 0
7, 323400, Note_on_c, 0, 67, 96
7, 323508, Note_on_c, 0, 67, 0
7, 323520, Note_on_c, 0, 64, 96
7, 323520, Control_c, 0, 64, 127
7, 323520, Note_on_c, 0, 60, 96
7, 323628, Note_on_c, 0, 60, 0
7, 323628, Note_on_c, 0, 64, 0
7, 323640, Note_on_c, 0, 62, 96
7, 323640, Note_on_c, 0, 59, 96
7, 323748, Note_on_c, 0, 59, 0
7, 323748, Note_on_c, 0, 62, 0
7, 323760, Note_on_c, 0, 57, 96
7, 323760, Note_on_c, 0, 60, 96
7, 323814, Note_on_c, 0, 60, 0
7, 323814, Note_on_c, 0, 57, 0
7, 323880, Note_on_c, 0, 57, 96
7, 323880, Note_on_c, 0, 60, 96
7, 323934, Note_on_c, 0, 60, 0
7, 323934, Note_on_c, 0, 57, 0
7, 324000, Note_on_c, 0, 57, 96
7, 324000, Note_on_c, 0, 60, 96
7, 324108, Note_on_c, 0, 60, 0
7, 324108, Note_on_c, 0, 57, 0
7, 324120, Note_on_c, 0, 59, 96
7, 324228, Note_on_c, 0, 59, 0
7, 324240, Note_on_c, 0, 57, 96
7, 324240, Note_on_c, 0, 60, 96
7, 324294, Note_on_c, 0, 60, 0
7, 324294, Note_on_c, 0, 57, 0
7, 324360, Note_on_c, 0, 55, 96
7, 324360, Note_on_c, 0, 62, 96
7, 324414, Note_on_c, 0, 62, 0
7, 324414, Note_on_c, 0, 55, 0
7, 324480, Note_on_c, 0, 67, 96
7, 324480, Note_on_c, 0, 59, 96
7, 324480, Note_on_c, 0, 62, 96
7, 324696, Note_on_c, 0, 62, 0
7, 324696, Note_on_c, 0, 59, 0
7, 324696, Note_on_c, 0, 67, 0
7, 324870, Control_c, 0, 64, 0
7, 338880, Note_on_c, 0, 86, 84
7, 338880, Control_c, 0, 64, 0
7, 339000, Control_c, 0, 64, 127
7, 339359, Note_on_c, 0, 86, 0
7, 339360, Note_on_c, 0, 84, 76
7, 339792, Note_on_c, 0, 84, 0
7, 339840, Note_on_c, 0, 83, 76
7, 339840, Note_on_c, 0, 71, 76
7, 340199, Note_on_c, 0, 71, 0
7, 340199, Note_on_c, 0, 83, 0
7, 340200, Note_on_c, 0, 84, 79
7, 340254, Note_on_c, 0, 84, 0
7, 340260, Note_on_c, 0, 83, 80
7, 340287, Note_on_c, 0, 83, 0
7, 340320, Note_on_c, 0, 69, 81
7, 340320, Note_on_c, 0, 81, 81
7, 340428, Note_on_c, 0, 81, 0
7, 340428, Note_on_c, 0, 69, 0
7, 340560, Note_on_c, 0, 71, 84
7, 340560, Note_on_c, 0, 83, 84
7, 340668, Note_on_c, 0, 83, 0
7, 340668, Note_on_c, 0, 71, 0
7, 341355, Control_c, 0, 64, 0
7, 354240, Control_c, 0, 64, 127
7, 354240, Note_on_c, 0, 48, 60
7, 354299, Note_on_c, 0, 48, 0
7, 354300, Note_on_c, 0, 36, 48
7, 354359, Note_on_c, 0, 36, 0
7, 354360, Note_on_c, 0, 48, 50
7, 354419, Note_on_c, 0, 48, 0
7, 354420, Note_on_c, 0, 36, 52
7, 354479, Note_on_c, 0, 36, 0
7, 354480, Note_on_c, 0, 48, 53
7, 354539, Note_on_c, 0, 48, 0
7, 354540, Note_on_c, 0, 36, 55
7, 354599, Note_on_c, 0, 36, 0
7, 354600, Note_on_c, 0, 48, 58
7, 354659, Note_on_c, 0, 48, 0
7, 354660, Note_on_c, 0, 36, 57
7, 354719, Note_on_c, 0, 36, 0
7, 354720, Note_on_c, 0, 48, 61
7, 354779, Note_on_c, 0, 48, 0
7, 354780, Note_on_c, 0, 36, 61
7, 354839, Note_on_c, 0, 36, 0
7, 354840, Note_on_c, 0, 48, 63
7, 354899, Note_on_c, 0, 48, 0
7, 354900, Note_on_c, 0, 36, 67
7, 354959, Note_on_c, 0, 36, 0
7, 354960, Note_on_c, 0, 48, 70
7, 355019, Note_on_c, 0, 48, 0
7, 355020, Note_on_c, 0, 36, 71
7, 355079, Note_on_c, 0, 36, 0
7, 355080, Note_on_c, 0, 48, 76
7, 355139, Note_on_c, 0, 48, 0
7, 355140, Note_on_c, 0, 36, 78
7, 355194, Note_on_c, 0, 36, 0
7, 355200, Note_on_c, 0, 35, 78
7, 355259, Note_on_c, 0, 35, 0
7, 355260, Note_on_c, 0, 47, 79
7, 355319, Note_on_c, 0, 47, 0
7, 355320, Note_on_c, 0, 35, 78
7, 355379, Note_on_c, 0, 35, 0
7, 355380, Note_on_c, 0, 47, 79
7, 355439, Note_on_c, 0, 47, 0
7, 355440, Note_on_c, 0, 35, 79
7, 355499, Note_on_c, 0, 35, 0
7, 355500, Note_on_c, 0, 47, 79
7, 355559, Note_on_c, 0, 47, 0
7, 355560, Note_on_c, 0, 35, 80
7, 355619, Note_on_c, 0, 35, 0
7, 355620, Note_on_c, 0, 47, 80
7, 355679, Note_on_c, 0, 47, 0
7, 355680, Note_on_c, 0, 35, 79
7, 355739, Note_on_c, 0, 35, 0
7, 355740, Note_on_c, 0, 47, 80
7, 355799, Note_on_c, 0, 47, 0
7, 355800, Note_on_c, 0, 35, 80
7, 355859, Note_on_c, 0, 35, 0
7, 355860, Note_on_c, 0, 47, 77
7, 355919, Note_on_c, 0, 47, 0
7, 355920, Note_on_c, 0, 35, 81
7, 355979, Note_on_c, 0, 35, 0
7, 355980, Note_on_c, 0, 47, 79
7, 356039, Note_on_c, 0, 47, 0
7, 356040, Note_on_c, 0, 35, 80
7, 356099, Note_on_c, 0, 35, 0
7, 356100, Note_on_c, 0, 47, 81
7, 356154, Note_on_c, 0, 47, 0
7, 356160, Note_on_c, 0, 34, 82
7, 356219, Note_on_c, 0, 34, 0
7, 356220, Note_on_c, 0, 46, 81
7, 356279, Note_on_c, 0, 46, 0
7, 356280, Note_on_c, 0, 34, 83
7, 356339, Note_on_c, 0, 34, 0
7, 356340, Note_on_c, 0, 46, 82
7, 356399, Note_on_c, 0, 46, 0
7, 356400, Note_on_c, 0, 34, 82
7, 356459, Note_on_c, 0, 34, 0
7, 356460, Note_on_c, 0, 46, 83
7, 356519, Note_on_c, 0, 46, 0
7, 356520, Note_on_c, 0, 34, 81
7, 356579, Note_on_c, 0, 34, 0
7, 356580, Note_on_c, 0, 46, 81
7, 356639, Note_on_c, 0, 46, 0
7, 356640, Note_on_c, 0, 34, 83
7, 356699, Note_on_c, 0, 34, 0
7, 356700, Note_on_c, 0, 46, 84
7, 356759, Note_on_c, 0, 46, 0
7, 356760, Note_on_c, 0, 34, 84
7, 356819, Note_on_c, 0, 34, 0
7, 356820, Note_on_c, 0, 46, 81
7, 356879, Note_on_c, 0, 46, 0
7, 356880, Note_on_c, 0, 34, 84
7, 356939, Note_on_c, 0, 34, 0
7, 356940, Note_on_c, 0, 46, 82
7, 356999, Note_on_c, 0, 46, 0
7, 357000, Note_on_c, 0, 34, 85
7, 357059, Note_on_c, 0, 34, 0
7, 357060, Note_on_c, 0, 46, 83
7, 357114, Note_on_c, 0, 46, 0
7, 357120, Note_on_c, 0, 33, 85
7, 357174, Note_on_c, 0, 33, 0
7, 357180, Note_on_c, 0, 45, 85
7, 357234, Note_on_c, 0, 45, 0
7, 357240, Note_on_c, 0, 33, 86
7, 357294, Note_on_c, 0, 33, 0
7, 357300, Note_on_c, 0, 45, 86
7, 357354, Note_on_c, 0, 45, 0
7, 357360, Note_on_c, 0, 33, 86
7, 357414, Note_on_c, 0, 33, 0
7, 357420, Note_on_c, 0, 45, 86
7, 357474, Note_on_c, 0, 45, 0
7, 357480, Note_on_c, 0, 33, 87
7, 357534, Note_on_c, 0, 33, 0
7, 357540, Note_on_c, 0, 45, 87
7, 357594, Note_on_c, 0, 45, 0
7, 357600, Note_on_c, 0, 33, 87
7, 357654, Note_on_c, 0, 33, 0
7, 357660, Note_on_c, 0, 45, 87
7, 357714, Note_on_c, 0, 45, 0
7, 357720, Note_on_c, 0, 33, 87
7, 357774, Note_on_c, 0, 33, 0
7, 357780, Note_on_c, 0, 45, 86
7, 357834, Note_on_c, 0, 45, 0
7, 357840, Note_on_c, 0, 33, 87
7, 357894, Note_on_c, 0, 33, 0
7, 357900, Note_on_c, 0, 45, 87
7, 357932, Control_c, 0, 64, 0
7, 357954, Note_on_c, 0, 45, 0
7, 357960, Note_on_c, 0, 33, 88
7, 358014, Note_on_c, 0, 33, 0
7, 358020, Note_on_c, 0, 45, 89
7, 358074, Note_on_c, 0, 45, 0
7, 358080, Note_on_c, 0, 32, 89
7, 358080, Note_on_c, 0, 44, 89
7, 358120, Control_c, 0, 64, 127
7, 358512, Note_on_c, 0, 44, 0
7, 358512, Note_on_c, 0, 32, 0
7, 358560, Control_c, 0, 64, 0
7, 359040, Control_c, 0, 64, 127
7, 359040, Note_on_c, 0, 35, 92
7, 359040, Note_on_c, 0, 47, 92
7, 359472, Note_on_c, 0, 47, 0
7, 359472, Note_on_c, 0, 35, 0
7, 359472, Control_c, 0, 64, 0
7, 360000, Note_on_c, 0, 33, 96
7, 360000, Control_c, 0, 64, 127
7, 360000, Note_on_c, 0, 45, 96
7, 360432, Note_on_c, 0, 45, 0
7, 360432, Note_on_c, 0, 33, 0
7, 360560, Control_c, 0, 64, 0
7, 379343, Control_c, 0, 64, 127
7, 379440, Note_on_c, 0, 49, 88
7, 379560, Note_on_c, 0, 52, 91
7, 379680, Note_on_c, 0, 55, 95
7, 380376, Note_on_c, 0, 55, 0
7, 380376, Note_on_c, 0, 52, 0
7, 380376, Note_on_c, 0, 49, 0
7, 380400, Note_on_c, 0, 56, 65
7, 380616, Note_on_c, 0, 56, 0
7, 380640, Note_on_c, 0, 57, 65
7, 380856, Note_on_c, 0, 57, 0
7, 380880, Note_on_c, 0, 60, 65
7, 381020, Control_c, 0, 64, 0
7, 381096, Note_on_c, 0, 60, 0
7, 381120, Note_on_c, 0, 61, 65
7, 381120, Control_c, 0, 64, 127
7, 381336, Note_on_c, 0, 61, 0
7, 381360, Note_on_c, 0, 63, 65
7, 381576, Note_on_c, 0, 63, 0
7, 381600, Note_on_c, 0, 64, 64
7, 381816, Note_on_c, 0, 64, 0
7, 381840, Note_on_c, 0, 56, 64
7, 382056, Note_on_c, 0, 56, 0
7, 382080, Note_on_c, 0, 57, 67
7, 382296, Note_on_c, 0, 57, 0
7, 382320, Note_on_c, 0, 49, 70
7, 382536, Note_on_c, 0, 49, 0
7, 382560, Note_on_c, 0, 50, 73
7, 382776, Note_on_c, 0, 50, 0
7, 382800, Note_on_c, 0, 58, 76
7, 382970, Control_c, 0, 64, 0
7, 383016, Note_on_c, 0, 58, 0
7, 383040, Control_c, 0, 64, 127
7, 383040, Note_on_c, 0, 59, 79
7, 383256, Note_on_c, 0, 59, 0
7, 383280, Note_on_c, 0, 51, 82
7, 383496, Note_on_c, 0, 51, 0
7, 383520, Note_on_c, 0, 52, 85
7, 383736, Note_on_c, 0, 52, 0
7, 383760, Note_on_c, 0, 61, 87
7, 384216, Note_on_c, 0, 61, 0
7, 384240, Note_on_c, 0, 61, 84
7, 384456, Note_on_c, 0, 61, 0
7, 384480, Note_on_c, 0, 64, 81
7, 384696, Note_on_c, 0, 64, 0
7, 384720, Note_on_c, 0, 62, 78
7, 384780, Control_c, 0, 64, 0
7, 384915, Control_c, 0, 64, 127
7, 384936, Note_on_c, 0, 62, 0
7, 384960, Note_on_c, 0, 61, 75
7, 385176, Note_on_c, 0, 61, 0
7, 385200, Note_on_c, 0, 62, 72
7, 385416, Note_on_c, 0, 62, 0
7, 385440, Note_on_c, 0, 59, 69
7, 385656, Note_on_c, 0, 59, 0
7, 385680, Note_on_c, 0, 55, 66
7, 385896, Note_on_c, 0, 55, 0
7, 385920, Note_on_c, 0, 54, 72
7, 385920, Note_on_c, 0, 57, 72
7, 387744, Note_on_c, 0, 57, 0
7, 387744, Note_on_c, 0, 54, 0
7, 387840, Note_on_c, 0, 53, 58
7, 387840, Note_on_c, 0, 57, 58
7, 389664, Note_on_c, 0, 57, 0
7, 389664, Note_on_c, 0, 53, 0
7, 389760, Note_on_c, 0, 52, 48
7, 389760, Note_on_c, 0, 57, 48
7, 391152, Note_on_c, 0, 57, 0
7, 391152, Note_on_c, 0, 52, 0
7, 391560, Control_c, 0, 64, 0
7, 391680, Note_on_c, 0, 57, 55
7, 391788, Note_on_c, 0, 57, 0
7, 391920, Note_on_c, 0, 55, 62
7, 392028, Note_on_c, 0, 55, 0
7, 392160, Note_on_c, 0, 52, 60
7, 392268, Note_on_c, 0, 52, 0
7, 392400, Note_on_c, 0, 49, 58
7, 392508, Note_on_c, 0, 49, 0
7, 392640, Note_on_c, 0, 45, 56
7, 392784, Note_on_c, 0, 45, 0
7, 392960, Note_on_c, 0, 43, 53
7, 393104, Note_on_c, 0, 43, 0
7, 393280, Note_on_c, 0, 40, 51
7, 393424, Note_on_c, 0, 40, 0
7, 393600, Control_c, 0, 64, 127
7, 393600, Note_on_c, 0, 26, 64
7, 394464, Note_on_c, 0, 26, 0
7, 394560, Note_on_c, 0, 36, 74
7, 395424, Note_on_c, 0, 36, 0
7, 395520, Note_on_c, 0, 35, 64
7, 396384, Note_on_c, 0, 35, 0
7, 396480, Note_on_c, 0, 33, 74
7, 396959, Note_on_c, 0, 33, 0
7, 396960, Note_on_c, 0, 31, 68
7, 396960, Note_on_c, 0, 43, 68
7, 397392, Note_on_c, 0, 43, 0
7, 397392, Note_on_c, 0, 31, 0
7, 397440, Note_on_c, 0, 30, 63
7, 397440, Note_on_c, 0, 42, 63
7, 398304, Note_on_c, 0, 42, 0
7, 398304, Note_on_c, 0, 30, 0
7, 398400, Note_on_c, 0, 29, 64
7, 398400, Note_on_c, 0, 41, 64
7, 399264, Note_on_c, 0, 41, 0
7, 399264, Note_on_c, 0, 29, 0
7, 399360, Note_on_c, 0, 28, 64
7, 399360, Note_on_c, 0, 40, 64
7, 400224, Note_on_c, 0, 40, 0
7, 400224, Note_on_c, 0, 28, 0
7, 400320, Note_on_c, 0, 33, 64
7, 401184, Note_on_c, 0, 33, 0
7, 401280, Note_on_c, 0, 36, 61
7, 401712, Note_on_c, 0, 36, 0
7, 401760, Note_on_c, 0, 35, 58
7, 401976, Note_on_c, 0, 35, 0
7, 402000, Note_on_c, 0, 33, 53
7, 402216, Note_on_c, 0, 33, 0
7, 402240, Note_on_c, 0, 36, 59
7, 402672, Note_on_c, 0, 36, 0
7, 402720, Note_on_c, 0, 35, 55
7, 402936, Note_on_c, 0, 35, 0
7, 402960, Note_on_c, 0, 33, 52
7, 403176, Note_on_c, 0, 33, 0
7, 403200, Note_on_c, 0, 36, 60
7, 403632, Note_on_c, 0, 36, 0
7, 403680, Note_on_c, 0, 35, 58
7, 403896, Note_on_c, 0, 35, 0
7, 403920, Note_on_c, 0, 33, 52
7, 404085, Control_c, 0, 64, 0
7, 404136, Note_on_c, 0, 33, 0
7, 404160, Note_on_c, 0, 31, 78
7, 404160, Control_c, 0, 64, 127
7, 404214, Note_on_c, 0, 31, 0
7, 404220, Note_on_c, 0, 31, 78
7, 404274, Note_on_c, 0, 31, 0
7, 404280, Note_on_c, 0, 43, 75
7, 404334, Note_on_c, 0, 43, 0
7, 404340, Note_on_c, 0, 31, 71
7, 404394, Note_on_c, 0, 31, 0
7, 404400, Note_on_c, 0, 43, 67
7, 404454, Note_on_c, 0, 43, 0
7, 404460, Note_on_c, 0, 31, 64
7, 404514, Note_on_c, 0, 31, 0
7, 404520, Note_on_c, 0, 30, 60
7, 404574, Note_on_c, 0, 30, 0
7, 404580, Note_on_c, 0, 42, 56
7, 404634, Note_on_c, 0, 42, 0
7, 404640, Note_on_c, 0, 30, 52
7, 404694, Note_on_c, 0, 30, 0
7, 404700, Note_on_c, 0, 42, 48
7, 404754, Note_on_c, 0, 42, 0
7, 404760, Note_on_c, 0, 30, 47
7, 404814, Note_on_c, 0, 30, 0
7, 404820, Note_on_c, 0, 28, 47
7, 404874, Note_on_c, 0, 28, 0
7, 404880, Note_on_c, 0, 40, 47
7, 404900, Control_c, 0, 64, 0
7, 404934, Note_on_c, 0, 40, 0
7, 404940, Note_on_c, 0, 28, 47
7, 404994, Note_on_c, 0, 28, 0
7, 405000, Note_on_c, 0, 40, 47
7, 405054, Note_on_c, 0, 40, 0
7, 405060, Note_on_c, 0, 28, 47
7, 405114, Note_on_c, 0, 28, 0
7, 405120, Note_on_c, 0, 33, 47
7, 405120, Control_c, 0, 64, 127
7, 405174, Note_on_c, 0, 33, 0
7, 405180, Note_on_c, 0, 45, 47
7, 405234, Note_on_c, 0, 45, 0
7, 405240, Note_on_c, 0, 33, 47
7, 405294, Note_on_c, 0, 33, 0
7, 405300, Note_on_c, 0, 45, 47
7, 405354, Note_on_c, 0, 45, 0
7, 405360, Note_on_c, 0, 33, 47
7, 405414, Note_on_c, 0, 33, 0
7, 405420, Note_on_c, 0, 45, 47
7, 405474, Note_on_c, 0, 45, 0
7, 405480, Note_on_c, 0, 33, 47
7, 405534, Note_on_c, 0, 33, 0
7, 405540, Note_on_c, 0, 45, 47
7, 405594, Note_on_c, 0, 45, 0
7, 405600, Note_on_c, 0, 33, 47
7, 406032, Note_on_c, 0, 33, 0
7, 406080, Control_c, 0, 64, 127
7, 406080, Control_c, 0, 64, 0
7, 406080, Note_on_c, 0, 33, 67
7, 406944, Note_on_c, 0, 33, 0
7, 407040, Note_on_c, 0, 33, 72
7, 407904, Note_on_c, 0, 33, 0
7, 408000, Note_on_c, 0, 33, 75
7, 408768, Control_c, 0, 64, 0
7, 408864, Note_on_c, 0, 33, 0
7, 408960, Note_on_c, 0, 33, 28
7, 409019, Note_on_c, 0, 33, 0
7, 409020, Note_on_c, 0, 38, 28
7, 409050, Control_c, 0, 64, 127
7, 409079, Note_on_c, 0, 38, 0
7, 409080, Note_on_c, 0, 33, 28
7, 409139, Note_on_c, 0, 33, 0
7, 409140, Note_on_c, 0, 38, 28
7, 409199, Note_on_c, 0, 38, 0
7, 409200, Note_on_c, 0, 33, 28
7, 409259, Note_on_c, 0, 33, 0
7, 409260, Note_on_c, 0, 38, 28
7, 409319, Note_on_c, 0, 38, 0
7, 409320, Note_on_c, 0, 33, 28
7, 409379, Note_on_c, 0, 33, 0
7, 409380, Note_on_c, 0, 38, 28
7, 409439, Note_on_c, 0, 38, 0
7, 409440, Note_on_c, 0, 33, 28
7, 409499, Note_on_c, 0, 33, 0
7, 409500, Note_on_c, 0, 38, 30
7, 409559, Note_on_c, 0, 38, 0
7, 409560, Note_on_c, 0, 33, 30
7, 409619, Note_on_c, 0, 33, 0
7, 409620, Note_on_c, 0, 38, 30
7, 409679, Note_on_c, 0, 38, 0
7, 409680, Note_on_c, 0, 33, 30
7, 409739, Note_on_c, 0, 33, 0
7, 409740, Note_on_c, 0, 38, 30
7, 409799, Note_on_c, 0, 38, 0
7, 409800, Note_on_c, 0, 33, 31
7, 409859, Note_on_c, 0, 33, 0
7, 409860, Note_on_c, 0, 38, 31
7, 409914, Note_on_c, 0, 38, 0
7, 409920, Note_on_c, 0, 33, 32
7, 409979, Note_on_c, 0, 33, 0
7, 409980, Note_on_c, 0, 36, 32
7, 410039, Note_on_c, 0, 36, 0
7, 410040, Note_on_c, 0, 33, 32
7, 410099, Note_on_c, 0, 33, 0
7, 410100, Note_on_c, 0, 36, 32
7, 410159, Note_on_c, 0, 36, 0
7, 410160, Note_on_c, 0, 33, 32
7, 410219, Note_on_c, 0, 33, 0
7, 410220, Note_on_c, 0, 36, 32
7, 410279, Note_on_c, 0, 36, 0
7, 410280, Note_on_c, 0, 33, 32
7, 410339, Note_on_c, 0, 33, 0
7, 410340, Note_on_c, 0, 36, 33
7, 410399, Note_on_c, 0, 36, 0
7, 410400, Note_on_c, 0, 33, 33
7, 410459, Note_on_c, 0, 33, 0
7, 410460, Note_on_c, 0, 36, 34
7, 410519, Note_on_c, 0, 36, 0
7, 410520, Note_on_c, 0, 33, 34
7, 410579, Note_on_c, 0, 33, 0
7, 410580, Note_on_c, 0, 36, 34
7, 410639, Note_on_c, 0, 36, 0
7, 410640, Note_on_c, 0, 33, 34
7, 410699, Note_on_c, 0, 33, 0
7, 410700, Note_on_c, 0, 36, 34
7, 410759, Note_on_c, 0, 36, 0
7, 410760, Note_on_c, 0, 33, 35
7, 410819, Note_on_c, 0, 33, 0
7, 410820, Note_on_c, 0, 36, 35
7, 410874, Note_on_c, 0, 36, 0
7, 410880, Note_on_c, 0, 33, 35
7, 410939, Note_on_c, 0, 33, 0
7, 410940, Note_on_c, 0, 35, 36
7, 410999, Note_on_c, 0, 35, 0
7, 411000, Note_on_c, 0, 33, 36
7, 411059, Note_on_c, 0, 33, 0
7, 411060, Note_on_c, 0, 35, 36
7, 411119, Note_on_c, 0, 35, 0
7, 411120, Note_on_c, 0, 33, 36
7, 411179, Note_on_c, 0, 33, 0
7, 411180, Note_on_c, 0, 35, 36
7, 411239, Note_on_c, 0, 35, 0
7, 411240, Note_on_c, 0, 33, 37
7, 411299, Note_on_c, 0, 33, 0
7, 411300, Note_on_c, 0, 35, 38
7, 411359, Note_on_c, 0, 35, 0
7, 411360, Note_on_c, 0, 33, 38
7, 411419, Note_on_c, 0, 33, 0
7, 411420, Note_on_c, 0, 35, 38
7, 411479, Note_on_c, 0, 35, 0
7, 411480, Note_on_c, 0, 33, 38
7, 411539, Note_on_c, 0, 33, 0
7, 411540, Note_on_c, 0, 35, 38
7, 411599, Note_on_c, 0, 35, 0
7, 411600, Note_on_c, 0, 33, 38
7, 411659, Note_on_c, 0, 33, 0
7, 411660, Note_on_c, 0, 35, 39
7, 411719, Note_on_c, 0, 35, 0
7, 411720, Note_on_c, 0, 33, 39
7, 411779, Note_on_c, 0, 33, 0
7, 411780, Note_on_c, 0, 35, 40
7, 411834, Note_on_c, 0, 35, 0
7, 411840, Note_on_c, 0, 33, 40
7, 412319, Note_on_c, 0, 33, 0
7, 412320, Note_on_c, 0, 31, 42
7, 412320, Note_on_c, 0, 43, 42
7, 412665, Control_c, 0, 64, 0
7, 412752, Note_on_c, 0, 43, 0
7, 412752, Note_on_c, 0, 31, 0
7, 412800, Control_c, 0, 64, 127
7, 412800, Note_on_c, 0, 30, 44
7, 412859, Note_on_c, 0, 30, 0
7, 412860, Note_on_c, 0, 42, 44
7, 412919, Note_on_c, 0, 42, 0
7, 412920, Note_on_c, 0, 30, 44
7, 412979, Note_on_c, 0, 30, 0
7, 412980, Note_on_c, 0, 42, 44
7, 413039, Note_on_c, 0, 42, 0
7, 413040, Note_on_c, 0, 30, 45
7, 413099, Note_on_c, 0, 30, 0
7, 413100, Note_on_c, 0, 42, 45
7, 413159, Note_on_c, 0, 42, 0
7, 413160, Note_on_c, 0, 30, 45
7, 413219, Note_on_c, 0, 30, 0
7, 413220, Note_on_c, 0, 42, 46
7, 413279, Note_on_c, 0, 42, 0
7, 413280, Note_on_c, 0, 30, 47
7, 413339, Note_on_c, 0, 30, 0
7, 413340, Note_on_c, 0, 42, 47
7, 413399, Note_on_c, 0, 42, 0
7, 413400, Note_on_c, 0, 30, 48
7, 413459, Note_on_c, 0, 30, 0
7, 413460, Note_on_c, 0, 42, 48
7, 413519, Note_on_c, 0, 42, 0
7, 413520, Note_on_c, 0, 30, 48
7, 413579, Note_on_c, 0, 30, 0
7, 413580, Note_on_c, 0, 42, 48
7, 413639, Note_on_c, 0, 42, 0
7, 413640, Note_on_c, 0, 30, 48
7, 413699, Note_on_c, 0, 30, 0
7, 413700, Note_on_c, 0, 42, 48
7, 413754, Note_on_c, 0, 42, 0
7, 413760, Note_on_c, 0, 29, 48
7, 413819, Note_on_c, 0, 29, 0
7, 413820, Note_on_c, 0, 41, 49
7, 413879, Note_on_c, 0, 41, 0
7, 413880, Note_on_c, 0, 29, 49
7, 413939, Note_on_c, 0, 29, 0
7, 413940, Note_on_c, 0, 41, 50
7, 413999, Note_on_c, 0, 41, 0
7, 414000, Note_on_c, 0, 29, 50
7, 414059, Note_on_c, 0, 29, 0
7, 414060, Note_on_c, 0, 41, 50
7, 414119, Note_on_c, 0, 41, 0
7, 414120, Note_on_c, 0, 29, 51
7, 414179, Note_on_c, 0, 29, 0
7, 414180, Note_on_c, 0, 41, 51
7, 414239, Note_on_c, 0, 41, 0
7, 414240, Note_on_c, 0, 29, 51
7, 414299, Note_on_c, 0, 29, 0
7, 414300, Note_on_c, 0, 41, 51
7, 414359, Note_on_c, 0, 41, 0
7, 414360, Note_on_c, 0, 29, 52
7, 414419, Note_on_c, 0, 29, 0
7, 414420, Note_on_c, 0, 41, 52
7, 414479, Note_on_c, 0, 41, 0
7, 414480, Note_on_c, 0, 29, 53
7, 414539, Note_on_c, 0, 29, 0
7, 414540, Note_on_c, 0, 41, 53
7, 414599, Note_on_c, 0, 41, 0
7, 414600, Note_on_c, 0, 29, 53
7, 414659, Note_on_c, 0, 29, 0
7, 414660, Note_on_c, 0, 41, 45
7, 414714, Note_on_c, 0, 41, 0
7, 414720, Note_on_c, 0, 28, 51
7, 414779, Note_on_c, 0, 28, 0
7, 414780, Note_on_c, 0, 40, 51
7, 414839, Note_on_c, 0, 40, 0
7, 414840, Note_on_c, 0, 28, 48
7, 414899, Note_on_c, 0, 28, 0
7, 414900, Note_on_c, 0, 40, 48
7, 414959, Note_on_c, 0, 40, 0
7, 414960, Note_on_c, 0, 28, 48
7, 415019, Note_on_c, 0, 28, 0
7, 415020, Note_on_c, 0, 40, 46
7, 415079, Note_on_c, 0, 40, 0
7, 415080, Note_on_c, 0, 28, 45
7, 415139, Note_on_c, 0, 28, 0
7, 415140, Note_on_c, 0, 40, 44
7, 415199, Note_on_c, 0, 40, 0
7, 415200, Note_on_c, 0, 28, 44
7, 415259, Note_on_c, 0, 28, 0
7, 415260, Note_on_c, 0, 40, 42
7, 415319, Note_on_c, 0, 40, 0
7, 415320, Note_on_c, 0, 28, 41
7, 415379, Note_on_c, 0, 28, 0
7, 415380, Note_on_c, 0, 40, 40
7, 415439, Note_on_c, 0, 40, 0
7, 415440, Note_on_c, 0, 28, 40
7, 415499, Note_on_c, 0, 28, 0
7, 415500, Note_on_c, 0, 40, 39
7, 415559, Note_on_c, 0, 40, 0
7, 415560, Note_on_c, 0, 28, 38
7, 415619, Note_on_c, 0, 28, 0
7, 415620, Note_on_c, 0, 40, 49
7, 415674, Note_on_c, 0, 40, 0
7, 415680, Note_on_c, 0, 33, 57
7, 416400, Control_c, 0, 64, 0
7, 416544, Note_on_c, 0, 33, 0
7, 416640, Note_on_c, 0, 36, 72
7, 416640, Control_c, 0, 64, 127
7, 416699, Note_on_c, 0, 36, 0
7, 416700, Note_on_c, 0, 38, 69
7, 416759, Note_on_c, 0, 38, 0
7, 416760, Note_on_c, 0, 36, 65
7, 416819, Note_on_c, 0, 36, 0
7, 416820, Note_on_c, 0, 38, 62
7, 416879, Note_on_c, 0, 38, 0
7, 416880, Note_on_c, 0, 36, 59
7, 416939, Note_on_c, 0, 36, 0
7, 416940, Note_on_c, 0, 38, 55
7, 416999, Note_on_c, 0, 38, 0
7, 417000, Note_on_c, 0, 36, 53
7, 417059, Note_on_c, 0, 36, 0
7, 417060, Note_on_c, 0, 38, 49
7, 417552, Note_on_c, 0, 38, 0
7, 417600, Note_on_c, 0, 36, 72
7, 417659, Note_on_c, 0, 36, 0
7, 417660, Note_on_c, 0, 38, 69
7, 417719, Note_on_c, 0, 38, 0
7, 417720, Note_on_c, 0, 36, 65
7, 417779, Note_on_c, 0, 36, 0
7, 417780, Note_on_c, 0, 38, 61
7, 417839, Note_on_c, 0, 38, 0
7, 417840, Note_on_c, 0, 36, 58
7, 417899, Note_on_c, 0, 36, 0
7, 417900, Note_on_c, 0, 38, 55
7, 417959, Note_on_c, 0, 38, 0
7, 417960, Note_on_c, 0, 36, 52
7, 418019, Note_on_c, 0, 36, 0
7, 418020, Note_on_c, 0, 38, 49
7, 418512, Note_on_c, 0, 38, 0
7, 418560, Note_on_c, 0, 36, 72
7, 418619, Note_on_c, 0, 36, 0
7, 418620, Note_on_c, 0, 39, 69
7, 418679, Note_on_c, 0, 39, 0
7, 418680, Note_on_c, 0, 36, 65
7, 418739, Note_on_c, 0, 36, 0
7, 418740, Note_on_c, 0, 39, 61
7, 418799, Note_on_c, 0, 39, 0
7, 418800, Note_on_c, 0, 36, 58
7, 418859, Note_on_c, 0, 36, 0
7, 418860, Note_on_c, 0, 39, 55
7, 418919, Note_on_c, 0, 39, 0
7, 418920, Note_on_c, 0, 36, 52
7, 418979, Note_on_c, 0, 36, 0
7, 418980, Note_on_c, 0, 39, 49
7, 419412, Control_c, 0, 64, 0
7, 419472, Note_on_c, 0, 39, 0
7, 419520, Note_on_c, 0, 36, 86
7, 419759, Note_on_c, 0, 36, 0
7, 419760, Note_on_c, 0, 43, 84
7, 419760, Note_on_c, 0, 31, 84
7, 419999, Note_on_c, 0, 31, 0
7, 419999, Note_on_c, 0, 43, 0
7, 420000, Note_on_c, 0, 29, 83
7, 420000, Note_on_c, 0, 41, 83
7, 420239, Note_on_c, 0, 41, 0
7, 420239, Note_on_c, 0, 29, 0
7, 420240, Note_on_c, 0, 28, 81
7, 420240, Note_on_c, 0, 40, 81
7, 420456, Note_on_c, 0, 40, 0
7, 420456, Note_on_c, 0, 28, 0
7, 420480, Control_c, 0, 64, 127
7, 420480, Note_on_c, 0, 26, 46
7, 420539, Note_on_c, 0, 26, 0
7, 420540, Note_on_c, 0, 38, 46
7, 420599, Note_on_c, 0, 38, 0
7, 420600, Note_on_c, 0, 26, 46
7, 420659, Note_on_c, 0, 26, 0
7, 420660, Note_on_c, 0, 38, 46
7, 420719, Note_on_c, 0, 38, 0
7, 420720, Note_on_c, 0, 26, 47
7, 420779, Note_on_c, 0, 26, 0
7, 420780, Note_on_c, 0, 38, 47
7, 420839, Note_on_c, 0, 38, 0
7, 420840, Note_on_c, 0, 26, 47
7, 420899, Note_on_c, 0, 26, 0
7, 420900, Note_on_c, 0, 38, 48
7, 420959, Note_on_c, 0, 38, 0
7, 420960, Note_on_c, 0, 26, 48
7, 421019, Note_on_c, 0, 26, 0
7, 421020, Note_on_c, 0, 38, 48
7, 421079, Note_on_c, 0, 38, 0
7, 421080, Note_on_c, 0, 26, 48
7, 421139, Note_on_c, 0, 26, 0
7, 421140, Note_on_c, 0, 38, 49
7, 421199, Note_on_c, 0, 38, 0
7, 421200, Note_on_c, 0, 26, 49
7, 421259, Note_on_c, 0, 26, 0
7, 421260, Note_on_c, 0, 38, 49
7, 421319, Note_on_c, 0, 38, 0
7, 421320, Note_on_c, 0, 26, 49
7, 421379, Note_on_c, 0, 26, 0
7, 421380, Note_on_c, 0, 38, 49
7, 421434, Note_on_c, 0, 38, 0
7, 421440, Note_on_c, 0, 26, 51
7, 421499, Note_on_c, 0, 26, 0
7, 421500, Note_on_c, 0, 38, 52
7, 421559, Note_on_c, 0, 38, 0
7, 421560, Note_on_c, 0, 26, 54
7, 421619, Note_on_c, 0, 26, 0
7, 421620, Note_on_c, 0, 38, 56
7, 421679, Note_on_c, 0, 38, 0
7, 421680, Note_on_c, 0, 26, 58
7, 421739, Note_on_c, 0, 26, 0
7, 421740, Note_on_c, 0, 38, 60
7, 421799, Note_on_c, 0, 38, 0
7, 421800, Note_on_c, 0, 26, 62
7, 421859, Note_on_c, 0, 26, 0
7, 421860, Note_on_c, 0, 38, 64
7, 421919, Note_on_c, 0, 38, 0
7, 421920, Note_on_c, 0, 38, 65
7, 421979, Note_on_c, 0, 38, 0
7, 421980, Note_on_c, 0, 45, 67
7, 422039, Note_on_c, 0, 45, 0
7, 422040, Note_on_c, 0, 38, 69
7, 422099, Note_on_c, 0, 38, 0
7, 422100, Note_on_c, 0, 45, 71
7, 422159, Note_on_c, 0, 45, 0
7, 422160, Note_on_c, 0, 38, 73
7, 422219, Note_on_c, 0, 38, 0
7, 422220, Note_on_c, 0, 45, 74
7, 422279, Note_on_c, 0, 45, 0
7, 422280, Note_on_c, 0, 38, 76
7, 422339, Note_on_c, 0, 38, 0
7, 422340, Note_on_c, 0, 45, 78
7, 422394, Note_on_c, 0, 45, 0
7, 422400, Note_on_c, 0, 31, 76
7, 422459, Note_on_c, 0, 31, 0
7, 422460, Note_on_c, 0, 43, 78
7, 422519, Note_on_c, 0, 43, 0
7, 422520, Note_on_c, 0, 31, 77
7, 422579, Note_on_c, 0, 31, 0
7, 422580, Note_on_c, 0, 43, 76
7, 422639, Note_on_c, 0, 43, 0
7, 422640, Note_on_c, 0, 31, 74
7, 422699, Note_on_c, 0, 31, 0
7, 422700, Note_on_c, 0, 43, 73
7, 422759, Note_on_c, 0, 43, 0
7, 422760, Note_on_c, 0, 31, 72
7, 422819, Note_on_c, 0, 31, 0
7, 422820, Note_on_c, 0, 43, 70
7, 422879, Note_on_c, 0, 43, 0
7, 422880, Note_on_c, 0, 31, 69
7, 422939, Note_on_c, 0, 31, 0
7, 422940, Note_on_c, 0, 43, 68
7, 422999, Note_on_c, 0, 43, 0
7, 423000, Note_on_c, 0, 31, 66
7, 423059, Note_on_c, 0, 31, 0
7, 423060, Note_on_c, 0, 43, 65
7, 423119, Note_on_c, 0, 43, 0
7, 423120, Note_on_c, 0, 31, 63
7, 423179, Note_on_c, 0, 31, 0
7, 423180, Note_on_c, 0, 43, 62
7, 423239, Note_on_c, 0, 43, 0
7, 423240, Note_on_c, 0, 31, 61
7, 423299, Note_on_c, 0, 31, 0
7, 423300, Note_on_c, 0, 43, 59
7, 423354, Note_on_c, 0, 43, 0
7, 423360, Note_on_c, 0, 33, 58
7, 423419, Note_on_c, 0, 33, 0
7, 423420, Note_on_c, 0, 45, 54
7, 423479, Note_on_c, 0, 45, 0
7, 423480, Note_on_c, 0, 33, 50
7, 423539, Note_on_c, 0, 33, 0
7, 423540, Note_on_c, 0, 45, 48
7, 423599, Note_on_c, 0, 45, 0
7, 423600, Note_on_c, 0, 33, 44
7, 423659, Note_on_c, 0, 33, 0
7, 423660, Note_on_c, 0, 45, 42
7, 423719, Note_on_c, 0, 45, 0
7, 423720, Note_on_c, 0, 33, 39
7, 423779, Note_on_c, 0, 33, 0
7, 423780, Note_on_c, 0, 45, 36
7, 423840, Note_on_c, 0, 33, 32
7, 424104, Control_c, 0, 64, 0
7, 424272, Note_on_c, 0, 33, 0
7, 424272, Note_on_c, 0, 45, 0
7, 424320, Note_on_c, 0, 78, 51
7, 424320, Note_on_c, 0, 86, 51
7, 424752, Note_on_c, 0, 86, 0
7, 424752, Note_on_c, 0, 78, 0
7, 446400, Note_on_c, 0, 62, 85
7, 446639, Note_on_c, 0, 62, 0
7, 446640, Note_on_c, 0, 67, 95
7, 447119, Note_on_c, 0, 67, 0
7, 447120, Note_on_c, 0, 69, 99
7, 447179, Note_on_c, 0, 69, 0
7, 447180, Note_on_c, 0, 71, 95
7, 447239, Note_on_c, 0, 71, 0
7, 447240, Note_on_c, 0, 69, 92
7, 447299, Note_on_c, 0, 69, 0
7, 447300, Note_on_c, 0, 71, 89
7, 447599, Note_on_c, 0, 71, 0
7, 447600, Note_on_c, 0, 74, 83
7, 447839, Note_on_c, 0, 74, 0
7, 447840, Note_on_c, 0, 79, 89
7, 448079, Note_on_c, 0, 79, 0
7, 448080, Note_on_c, 0, 79, 94
7, 448296, Note_on_c, 0, 79, 0
7, 448320, Note_on_c, 0, 79, 100
7, 449280, Control_c, 0, 64, 127
7, 449519, Note_on_c, 0, 79, 0
7, 449520, Note_on_c, 0, 79, 102
7, 449759, Note_on_c, 0, 79, 0
7, 449760, Note_on_c, 0, 78, 99
7, 449999, Note_on_c, 0, 78, 0
7, 450000, Note_on_c, 0, 76, 95
7, 450216, Note_on_c, 0, 76, 0
7, 450240, Control_c, 0, 64, 0
7, 450240, Note_on_c, 0, 74, 91
7, 450348, Note_on_c, 0, 74, 0
7, 450480, Note_on_c, 0, 78, 106
7, 450959, Note_on_c, 0, 78, 0
7, 450960, Note_on_c, 0, 79, 103
7, 451019, Note_on_c, 0, 79, 0
7, 451020, Note_on_c, 0, 81, 102
7, 451079, Note_on_c, 0, 81, 0
7, 451080, Note_on_c, 0, 79, 99
7, 451139, Note_on_c, 0, 79, 0
7, 451140, Note_on_c, 0, 81, 96
7, 451194, Note_on_c, 0, 81, 0
7, 451200, Control_c, 0, 64, 127
7, 451200, Note_on_c, 0, 81, 94
7, 451439, Note_on_c, 0, 81, 0
7, 451440, Note_on_c, 0, 84, 93
7, 451679, Note_on_c, 0, 84, 0
7, 451680, Note_on_c, 0, 93, 100
7, 451896, Note_on_c, 0, 93, 0
7, 451920, Note_on_c, 0, 93, 106
7, 452136, Note_on_c, 0, 93, 0
7, 459840, Note_on_c, 0, 57, 97
7, 459948, Note_on_c, 0, 57, 0
7, 460080, Note_on_c, 0, 62, 85
7, 460512, Note_on_c, 0, 62, 0
7, 460560, Note_on_c, 0, 62, 86
7, 460614, Note_on_c, 0, 62, 0
7, 460620, Note_on_c, 0, 64, 88
7, 460674, Note_on_c, 0, 64, 0
7, 460680, Note_on_c, 0, 62, 90
7, 460734, Note_on_c, 0, 62, 0
7, 460740, Note_on_c, 0, 64, 92
7, 460794, Note_on_c, 0, 64, 0
7, 460800, Control_c, 0, 64, 127
7, 460800, Note_on_c, 0, 66, 94
7, 460908, Note_on_c, 0, 66, 0
7, 461040, Note_on_c, 0, 69, 107
7, 461148, Note_on_c, 0, 69, 0
7, 461280, Note_on_c, 0, 74, 91
7, 461388, Note_on_c, 0, 74, 0
7, 461520, Note_on_c, 0, 74, 98
7, 461628, Note_on_c, 0, 74, 0
7, 461760, Note_on_c, 0, 62, 76
7, 461760, Control_c, 0, 64, 0
7, 461868, Note_on_c, 0, 62, 0
7, 462000, Note_on_c, 0, 67, 85
7, 462432, Note_on_c, 0, 67, 0
7, 462480, Note_on_c, 0, 69, 86
7, 462534, Note_on_c, 0, 69, 0
7, 462540, Note_on_c, 0, 71, 89
7, 462594, Note_on_c, 0, 71, 0
7, 462600, Note_on_c, 0, 69, 92
7, 462654, Note_on_c, 0, 69, 0
7, 462660, Note_on_c, 0, 71, 95
7, 462714, Note_on_c, 0, 71, 0
7, 499200, Control_c, 0, 64, 127
7, 499200, Note_on_c, 0, 57, 61
7, 499254, Note_on_c, 0, 57, 0
7, 499440, Note_on_c, 0, 62, 71
7, 499890, Control_c, 0, 64, 0
7, 499919, Note_on_c, 0, 62, 0
7, 499920, Note_on_c, 0, 64, 59
7, 499974, Note_on_c, 0, 64, 0
7, 500160, Control_c, 0, 64, 127
7, 500160, Note_on_c, 0, 57, 66
7, 500214, Note_on_c, 0, 57, 0
7, 500400, Note_on_c, 0, 64, 83
7, 500879, Note_on_c, 0, 64, 0
7, 500880, Control_c, 0, 64, 0
7, 500880, Note_on_c, 0, 69, 62
7, 500934, Note_on_c, 0, 69, 0
7, 501120, Control_c, 0, 64, 127
7, 501120, Note_on_c, 0, 57, 70
7, 501174, Note_on_c, 0, 57, 0
7, 501360, Note_on_c, 0, 62, 79
7, 501825, Control_c, 0, 64, 0
7, 501839, Note_on_c, 0, 62, 0
7, 501840, Note_on_c, 0, 64, 65
7, 501894, Note_on_c, 0, 64, 0
7, 502080, Note_on_c, 0, 57, 74
7, 502080, Control_c, 0, 64, 127
7, 502134, Note_on_c, 0, 57, 0
7, 502320, Note_on_c, 0, 64, 87
7, 502799, Note_on_c, 0, 64, 0
7, 502800, Note_on_c, 0, 69, 67
7, 502800, Control_c, 0, 64, 0
7, 502854, Note_on_c, 0, 69, 0
7, 503040, Note_on_c, 0, 57, 79
7, 503040, Control_c, 0, 64, 127
7, 503094, Note_on_c, 0, 57, 0
7, 503280, Note_on_c, 0, 52, 92
7, 503280, Note_on_c, 0, 64, 92
7, 503745, Control_c, 0, 64, 0
7, 503759, Note_on_c, 0, 64, 0
7, 503759, Note_on_c, 0, 52, 0
7, 503760, Note_on_c, 0, 57, 66
7, 503760, Note_on_c, 0, 69, 66
7, 503814, Note_on_c, 0, 69, 0
7, 503814, Note_on_c, 0, 57, 0
7, 504000, Note_on_c, 0, 57, 76
7, 504000, Control_c, 0, 64, 127
7, 504108, Note_on_c, 0, 57, 0
7, 504240, Note_on_c, 0, 52, 90
7, 504240, Note_on_c, 0, 64, 90
7, 504456, Note_on_c, 0, 64, 0
7, 504456, Note_on_c, 0, 52, 0
7, 504630, Control_c, 0, 64, 0
7, 504720, Note_on_c, 0, 69, 88
7, 504720, Note_on_c, 0, 57, 88
7, 504828, Note_on_c, 0, 57, 0
7, 504828, Note_on_c, 0, 69, 0
7, 504960, Note_on_c, 0, 45, 65
7, 505014, Note_on_c, 0, 45, 0
7, 505080, Note_on_c, 0, 52, 70
7, 505134, Note_on_c, 0, 52, 0
7, 505200, Note_on_c, 0, 52, 77
7, 505254, Note_on_c, 0, 52, 0
7, 505320, Note_on_c, 0, 57, 82
7, 505374, Note_on_c, 0, 57, 0
7, 505440, Note_on_c, 0, 45, 67
7, 505494, Note_on_c, 0, 45, 0
7, 505560, Note_on_c, 0, 52, 74
7, 505614, Note_on_c, 0, 52, 0
7, 505680, Note_on_c, 0, 52, 81
7, 505734, Note_on_c, 0, 52, 0
7, 505800, Note_on_c, 0, 57, 88
7, 505854, Note_on_c, 0, 57, 0
7, 505920, Note_on_c, 0, 57, 70
7, 505974, Note_on_c, 0, 57, 0
7, 506040, Note_on_c, 0, 67, 76
7, 506040, Note_on_c, 0, 64, 76
7, 506094, Note_on_c, 0, 64, 0
7, 506094, Note_on_c, 0, 67, 0
7, 506160, Note_on_c, 0, 64, 82
7, 506160, Note_on_c, 0, 67, 82
7, 506214, Note_on_c, 0, 67, 0
7, 506214, Note_on_c, 0, 64, 0
7, 506280, Note_on_c, 0, 69, 88
7, 506334, Note_on_c, 0, 69, 0
7, 506400, Note_on_c, 0, 57, 70
7, 506454, Note_on_c, 0, 57, 0
7, 506520, Note_on_c, 0, 64, 75
7, 506520, Note_on_c, 0, 67, 75
7, 506574, Note_on_c, 0, 67, 0
7, 506574, Note_on_c, 0, 64, 0
7, 506640, Note_on_c, 0, 67, 80
7, 506640, Note_on_c, 0, 64, 80
7, 506694, Note_on_c, 0, 64, 0
7, 506694, Note_on_c, 0, 67, 0
7, 506760, Note_on_c, 0, 69, 85
7, 506814, Note_on_c, 0, 69, 0
7, 506880, Note_on_c, 0, 57, 96
7, 506880, Note_on_c, 0, 66, 96
7, 506880, Note_on_c, 0, 62, 96
7, 506988, Note_on_c, 0, 62, 0
7, 506988, Note_on_c, 0, 66, 0
7, 506988, Note_on_c, 0, 57, 0
7, 507120, Note_on_c, 0, 59, 65
7, 507120, Note_on_c, 0, 50, 65
7, 507174, Note_on_c, 0, 50, 0
7, 507174, Note_on_c, 0, 59, 0
7, 507240, Note_on_c, 0, 54, 68
7, 507240, Note_on_c, 0, 62, 68
7, 507294, Note_on_c, 0, 62, 0
7, 507294, Note_on_c, 0, 54, 0
7, 507360, Note_on_c, 0, 64, 70
7, 507360, Note_on_c, 0, 57, 70
7, 507380, Control_c, 0, 64, 127
7, 507414, Note_on_c, 0, 57, 0
7, 507414, Note_on_c, 0, 64, 0
7, 507480, Note_on_c, 0, 62, 72
7, 507480, Note_on_c, 0, 66, 72
7, 507534, Note_on_c, 0, 66, 0
7, 507534, Note_on_c, 0, 62, 0
7, 507600, Note_on_c, 0, 57, 75
7, 507600, Note_on_c, 0, 64, 75
7, 507654, Note_on_c, 0, 64, 0
7, 507654, Note_on_c, 0, 57, 0
7, 507720, Note_on_c, 0, 66, 77
7, 507720, Note_on_c, 0, 62, 77
7, 507774, Note_on_c, 0, 62, 0
7, 507774, Note_on_c, 0, 66, 0
7, 507840, Note_on_c, 0, 57, 80
7, 507840, Note_on_c, 0, 64, 80
7, 507894, Note_on_c, 0, 64, 0
7, 507894, Note_on_c, 0, 57, 0
7, 507960, Note_on_c, 0, 66, 82
7, 507960, Note_on_c, 0, 62, 82
7, 508014, Note_on_c, 0, 62, 0
7, 508014, Note_on_c, 0, 66, 0
7, 508080, Note_on_c, 0, 57, 84
7, 508080, Note_on_c, 0, 64, 84
7, 508134, Note_on_c, 0, 64, 0
7, 508134, Note_on_c, 0, 57, 0
7, 508200, Note_on_c, 0, 62, 87
7, 508200, Note_on_c, 0, 66, 87
7, 508254, Note_on_c, 0, 66, 0
7, 508254, Note_on_c, 0, 62, 0
7, 508320, Note_on_c, 0, 64, 89
7, 508320, Note_on_c, 0, 57, 89
7, 508340, Control_c, 0, 64, 0
7, 508374, Note_on_c, 0, 57, 0
7, 508374, Note_on_c, 0, 64, 0
7, 508440, Note_on_c, 0, 66, 91
7, 508440, Note_on_c, 0, 62, 91
7, 508494, Note_on_c, 0, 62, 0
7, 508494, Note_on_c, 0, 66, 0
7, 508512, Control_c, 0, 64, 127
7, 508560, Note_on_c, 0, 64, 96
7, 508560, Note_on_c, 0, 57, 96
7, 508560, Note_on_c, 0, 61, 96
7, 508668, Note_on_c, 0, 61, 0
7, 508668, Note_on_c, 0, 57, 0
7, 508668, Note_on_c, 0, 64, 0
7, 508800, Note_on_c, 0, 57, 96
7, 508800, Note_on_c, 0, 66, 96
7, 508800, Note_on_c, 0, 62, 96
7, 508872, Control_c, 0, 64, 0
7, 508908, Note_on_c, 0, 62, 0
7, 508908, Note_on_c, 0, 66, 0
7, 508908, Note_on_c, 0, 57, 0
7, 509040, Note_on_c, 0, 50, 69
7, 509040, Note_on_c, 0, 57, 69
7, 509094, Note_on_c, 0, 57, 0
7, 509094, Note_on_c, 0, 50, 0
7, 509160, Note_on_c, 0, 54, 71
7, 509160, Control_c, 0, 64, 127
7, 509160, Note_on_c, 0, 62, 71
7, 509214, Note_on_c, 0, 62, 0
7, 509214, Note_on_c, 0, 54, 0
7, 509280, Note_on_c, 0, 57, 74
7, 509280, Note_on_c, 0, 64, 74
7, 509334, Note_on_c, 0, 64, 0
7, 509334, Note_on_c, 0, 57, 0
7, 509400, Note_on_c, 0, 62, 76
7, 509400, Note_on_c, 0, 66, 76
7, 509454, Note_on_c, 0, 66, 0
7, 509454, Note_on_c, 0, 62, 0
7, 509520, Note_on_c, 0, 64, 78
7, 509520, Note_on_c, 0, 57, 78
7, 509574, Note_on_c, 0, 57, 0
7, 509574, Note_on_c, 0, 64, 0
7, 509640, Note_on_c, 0, 62, 80
7, 509640, Note_on_c, 0, 66, 80
7, 509694, Note_on_c, 0, 66, 0
7, 509694, Note_on_c, 0, 62, 0
7, 509760, Note_on_c, 0, 64, 82
7, 509760, Note_on_c, 0, 57, 82
7, 509814, Note_on_c, 0, 57, 0
7, 509814, Note_on_c, 0, 64, 0
7, 509880, Note_on_c, 0, 62, 84
7, 509880, Note_on_c, 0, 66, 84
7, 509934, Note_on_c, 0, 66, 0
7, 509934, Note_on_c, 0, 62, 0
7, 510000, Note_on_c, 0, 64, 86
7, 510000, Note_on_c, 0, 57, 86
7, 510054, Note_on_c, 0, 57, 0
7, 510054, Note_on_c, 0, 64, 0
7, 510120, Control_c, 0, 64, 0
7, 510120, Note_on_c, 0, 66, 88
7, 510120, Note_on_c, 0, 62, 88
7, 510174, Note_on_c, 0, 62, 0
7, 510174, Note_on_c, 0, 66, 0
7, 510240, Note_on_c, 0, 57, 90
7, 510240, Note_on_c, 0, 64, 90
7, 510294, Note_on_c, 0, 64, 0
7, 510294, Note_on_c, 0, 57, 0
7, 510360, Note_on_c, 0, 66, 92
7, 510360, Note_on_c, 0, 62, 92
7, 510414, Note_on_c, 0, 62, 0
7, 510414, Note_on_c, 0, 66, 0
7, 510480, Note_on_c, 0, 57, 95
7, 510480, Note_on_c, 0, 61, 95
7, 510480, Note_on_c, 0, 64, 95
7, 510588, Note_on_c, 0, 64, 0
7, 510588, Note_on_c, 0, 61, 0
7, 510588, Note_on_c, 0, 57, 0
7, 510720, Note_on_c, 0, 66, 96
7, 510720, Control_c, 0, 64, 127
7, 510720, Note_on_c, 0, 57, 96
7, 510720, Note_on_c, 0, 62, 96
7, 510828, Note_on_c, 0, 62, 0
7, 510828, Note_on_c, 0, 57, 0
7, 510828, Note_on_c, 0, 66, 0
7, 510960, Note_on_c, 0, 61, 96
7, 510960, Control_c, 0, 64, 0
7, 510960, Note_on_c, 0, 57, 96
7, 511068, Note_on_c, 0, 57, 0
7, 511068, Note_on_c, 0, 61, 0
7, 511200, Note_on_c, 0, 57, 96
7, 511200, Note_on_c, 0, 62, 96
7, 511308, Note_on_c, 0, 62, 0
7, 511308, Note_on_c, 0, 57, 0
7, 511440, Note_on_c, 0, 57, 96
7, 511440, Note_on_c, 0, 61, 96
7, 511548, Note_on_c, 0, 61, 0
7, 511548, Note_on_c, 0, 57, 0
7, 511680, Note_on_c, 0, 62, 96
7, 511680, Note_on_c, 0, 57, 96
7, 511788, Note_on_c, 0, 57, 0
7, 511788, Note_on_c, 0, 62, 0
7, 511920, Note_on_c, 0, 61, 96
7, 511920, Note_on_c, 0, 57, 96
7, 512028, Note_on_c, 0, 57, 0
7, 512028, Note_on_c, 0, 61, 0
7, 512160, Note_on_c, 0, 62, 96
7, 512160, Note_on_c, 0, 57, 96
7, 512268, Note_on_c, 0, 57, 0
7, 512268, Note_on_c, 0, 62, 0
7, 512400, Note_on_c, 0, 57, 96
7, 512400, Note_on_c, 0, 61, 96
7, 512400, Note_on_c, 0, 64, 96
7, 512508, Note_on_c, 0, 64, 0
7, 512508, Note_on_c, 0, 61, 0
7, 512508, Note_on_c, 0, 57, 0
7, 512640, Note_on_c, 0, 66, 96
7, 512640, Note_on_c, 0, 57, 96
7, 512640, Note_on_c, 0, 62, 96
7, 512760, Note_on_c, 0, 62, 0
7, 512760, Note_on_c, 0, 57, 0
7, 512760, Note_on_c, 0, 66, 0
7, 513120, Note_on_c, 0, 61, 96
7, 513120, Note_on_c, 0, 64, 96
7, 513120, Note_on_c, 0, 57, 96
7, 513174, Note_on_c, 0, 57, 0
7, 513174, Note_on_c, 0, 64, 0
7, 513174, Note_on_c, 0, 61, 0
7, 513600, Note_on_c, 0, 57, 96
7, 513600, Note_on_c, 0, 66, 96
7, 513600, Note_on_c, 0, 62, 96
7, 513720, Note_on_c, 0, 62, 0
7, 513720, Note_on_c, 0, 66, 0
7, 513720, Note_on_c, 0, 57, 0
7, 514080, Note_on_c, 0, 64, 96
7, 514080, Note_on_c, 0, 57, 96
7, 514080, Note_on_c, 0, 61, 96
7, 514134, Note_on_c, 0, 61, 0
7, 514134, Note_on_c, 0, 57, 0
7, 514134, Note_on_c, 0, 64, 0
7, 514560, Control_c, 0, 64, 127
7, 514560, Note_on_c, 0, 50, 96
7, 514560, Note_on_c, 0, 54, 96
7, 514560, Note_on_c, 0, 57, 96
7, 514560, Note_on_c, 0, 62, 96
7, 515424, Note_on_c, 0, 62, 0
7, 515424, Note_on_c, 0, 50, 0
7, 515424, Note_on_c, 0, 54, 0
7, 515424, Note_on_c, 0, 57, 0
7, 515520, Control_c, 0, 64, 0
7, 515520, End_track
8, 0, Start_track
8, 0, Title_t, "Track 7"
8, 0, Program_c, 0, 0
8, 0, Control_c, 0, 7, 115
8, 0, Control_c, 0, 10, 32
8, 63600, Note_on_c, 0, 48, 62
8, 63659, Note_on_c, 0, 48, 0
8, 63720, Note_on_c, 0, 45, 63
8, 63839, Note_on_c, 0, 45, 0
8, 63960, Note_on_c, 0, 57, 65
8, 64019, Note_on_c, 0, 57, 0
8, 64080, Note_on_c, 0, 53, 65
8, 64139, Note_on_c, 0, 53, 0
8, 64200, Note_on_c, 0, 48, 66
8, 64254, Note_on_c, 0, 48, 0
8, 64440, Note_on_c, 0, 55, 68
8, 64494, Note_on_c, 0, 55, 0
8, 64560, Note_on_c, 0, 52, 68
8, 64614, Note_on_c, 0, 52, 0
8, 64680, Note_on_c, 0, 48, 69
8, 64734, Note_on_c, 0, 48, 0
8, 64920, Note_on_c, 0, 60, 71
8, 64974, Note_on_c, 0, 60, 0
8, 65040, Note_on_c, 0, 55, 71
8, 65094, Note_on_c, 0, 55, 0
8, 65160, Note_on_c, 0, 52, 72
8, 65214, Note_on_c, 0, 52, 0
8, 65400, Note_on_c, 0, 62, 74
8, 65454, Note_on_c, 0, 62, 0
8, 65520, Note_on_c, 0, 57, 75
8, 65574, Note_on_c, 0, 57, 0
8, 65640, Note_on_c, 0, 53, 75
8, 65694, Note_on_c, 0, 53, 0
8, 65880, Note_on_c, 0, 62, 77
8, 65934, Note_on_c, 0, 62, 0
8, 66000, Note_on_c, 0, 59, 78
8, 66054, Note_on_c, 0, 59, 0
8, 66120, Note_on_c, 0, 55, 78
8, 66174, Note_on_c, 0, 55, 0
8, 66360, Note_on_c, 0, 62, 80
8, 66414, Note_on_c, 0, 62, 0
8, 66480, Note_on_c, 0, 59, 81
8, 66534, Note_on_c, 0, 59, 0
8, 66600, Note_on_c, 0, 55, 81
8, 66654, Note_on_c, 0, 55, 0
8, 66840, Note_on_c, 0, 60, 82
8, 66894, Note_on_c, 0, 60, 0
8, 66960, Note_on_c, 0, 55, 82
8, 67014, Note_on_c, 0, 55, 0
8, 67080, Note_on_c, 0, 52, 82
8, 67134, Note_on_c, 0, 52, 0
8, 67320, Note_on_c, 0, 57, 83
8, 67374, Note_on_c, 0, 57, 0
8, 67440, Note_on_c, 0, 53, 84
8, 67494, Note_on_c, 0, 53, 0
8, 67560, Note_on_c, 0, 50, 84
8, 67614, Note_on_c, 0, 50, 0
8, 67800, Note_on_c, 0, 62, 85
8, 67854, Note_on_c, 0, 62, 0
8, 67920, Note_on_c, 0, 57, 86
8, 67974, Note_on_c, 0, 57, 0
8, 68040, Note_on_c, 0, 53, 86
8, 68094, Note_on_c, 0, 53, 0
8, 68280, Note_on_c, 0, 62, 87
8, 68334, Note_on_c, 0, 62, 0
8, 68400, Note_on_c, 0, 57, 88
8, 68454, Note_on_c, 0, 57, 0
8, 68520, Note_on_c, 0, 53, 88
8, 68574, Note_on_c, 0, 53, 0
8, 68760, Note_on_c, 0, 60, 89
8, 68814, Note_on_c, 0, 60, 0
8, 68880, Note_on_c, 0, 57, 90
8, 68934, Note_on_c, 0, 57, 0
8, 69000, Note_on_c, 0, 53, 90
8, 69054, Note_on_c, 0, 53, 0
8, 69240, Note_on_c, 0, 62, 91
8, 69294, Note_on_c, 0, 62, 0
8, 69360, Note_on_c, 0, 59, 91
8, 69414, Note_on_c, 0, 59, 0
8, 69480, Note_on_c, 0, 53, 92
8, 69534, Note_on_c, 0, 53, 0
8, 69720, Note_on_c, 0, 62, 93
8, 69774, Note_on_c, 0, 62, 0
8, 69840, Note_on_c, 0, 55, 93
8, 69894, Note_on_c, 0, 55, 0
8, 69960, Note_on_c, 0, 50, 94
8, 70014, Note_on_c, 0, 50, 0
8, 70200, Note_on_c, 0, 60, 74
8, 70254, Note_on_c, 0, 60, 0
8, 70320, Note_on_c, 0, 55, 74
8, 70374, Note_on_c, 0, 55, 0
8, 70440, Note_on_c, 0, 52, 73
8, 70494, Note_on_c, 0, 52, 0
8, 70680, Note_on_c, 0, 61, 72
8, 70734, Note_on_c, 0, 61, 0
8, 70800, Note_on_c, 0, 58, 72
8, 70854, Note_on_c, 0, 58, 0
8, 70920, Note_on_c, 0, 55, 72
8, 70974, Note_on_c, 0, 55, 0
8, 71160, Note_on_c, 0, 60, 70
8, 71214, Note_on_c, 0, 60, 0
8, 71280, Note_on_c, 0, 57, 70
8, 71334, Note_on_c, 0, 57, 0
8, 71400, Note_on_c, 0, 53, 69
8, 71454, Note_on_c, 0, 53, 0
8, 71640, Note_on_c, 0, 61, 68
8, 71694, Note_on_c, 0, 61, 0
8, 71760, Note_on_c, 0, 58, 68
8, 71814, Note_on_c, 0, 58, 0
8, 71880, Note_on_c, 0, 55, 67
8, 71934, Note_on_c, 0, 55, 0
8, 72120, Note_on_c, 0, 60, 66
8, 72174, Note_on_c, 0, 60, 0
8, 72240, Note_on_c, 0, 56, 66
8, 72294, Note_on_c, 0, 56, 0
8, 72360, Note_on_c, 0, 53, 65
8, 72414, Note_on_c, 0, 53, 0
8, 72600, Note_on_c, 0, 61, 64
8, 72654, Note_on_c, 0, 61, 0
8, 72720, Note_on_c, 0, 58, 64
8, 72774, Note_on_c, 0, 58, 0
8, 72840, Note_on_c, 0, 53, 63
8, 72894, Note_on_c, 0, 53, 0
8, 73080, Note_on_c, 0, 60, 62
8, 73134, Note_on_c, 0, 60, 0
8, 73200, Note_on_c, 0, 57, 61
8, 73254, Note_on_c, 0, 57, 0
8, 73320, Note_on_c, 0, 53, 61
8, 73374, Note_on_c, 0, 53, 0
8, 73560, Note_on_c, 0, 62, 60
8, 73614, Note_on_c, 0, 62, 0
8, 73680, Note_on_c, 0, 58, 60
8, 73734, Note_on_c, 0, 58, 0
8, 73800, Note_on_c, 0, 53, 59
8, 73854, Note_on_c, 0, 53, 0
8, 74040, Note_on_c, 0, 60, 58
8, 74094, Note_on_c, 0, 60, 0
8, 74160, Note_on_c, 0, 57, 57
8, 74214, Note_on_c, 0, 57, 0
8, 74280, Note_on_c, 0, 53, 57
8, 74334, Note_on_c, 0, 53, 0
8, 74520, Note_on_c, 0, 60, 56
8, 74574, Note_on_c, 0, 60, 0
8, 74640, Note_on_c, 0, 58, 56
8, 74694, Note_on_c, 0, 58, 0
8, 74760, Note_on_c, 0, 55, 55
8, 74814, Note_on_c, 0, 55, 0
8, 74880, Note_on_c, 0, 57, 68
8, 75519, Note_on_c, 0, 57, 0
8, 75520, Note_on_c, 0, 57, 70
8, 75679, Note_on_c, 0, 57, 0
8, 75680, Note_on_c, 0, 54, 70
8, 75752, Note_on_c, 0, 54, 0
8, 76000, Note_on_c, 0, 55, 56
8, 76159, Note_on_c, 0, 55, 0
8, 76160, Note_on_c, 0, 50, 56
8, 76479, Note_on_c, 0, 50, 0
8, 76480, Note_on_c, 0, 55, 56
8, 76639, Note_on_c, 0, 55, 0
8, 76640, Note_on_c, 0, 53, 56
8, 76712, Note_on_c, 0, 53, 0
8, 76960, Note_on_c, 0, 52, 70
8, 77119, Note_on_c, 0, 52, 0
8, 77120, Note_on_c, 0, 60, 70
8, 77439, Note_on_c, 0, 60, 0
8, 77440, Note_on_c, 0, 59, 70
8, 77599, Note_on_c, 0, 59, 0
8, 77600, Note_on_c, 0, 56, 70
8, 77672, Note_on_c, 0, 56, 0
8, 77920, Note_on_c, 0, 57, 64
8, 78079, Note_on_c, 0, 57, 0
8, 78080, Note_on_c, 0, 52, 63
8, 78399, Note_on_c, 0, 52, 0
8, 78400, Note_on_c, 0, 53, 62
8, 78559, Note_on_c, 0, 53, 0
8, 78560, Note_on_c, 0, 51, 62
8, 78704, Note_on_c, 0, 51, 0
8, 78840, Note_on_c, 0, 50, 62
8, 78894, Note_on_c, 0, 50, 0
8, 78960, Note_on_c, 0, 53, 61
8, 79014, Note_on_c, 0, 53, 0
8, 79080, Note_on_c, 0, 58, 61
8, 79134, Note_on_c, 0, 58, 0
8, 79320, Note_on_c, 0, 52, 72
8, 79374, Note_on_c, 0, 52, 0
8, 79440, Note_on_c, 0, 55, 78
8, 79494, Note_on_c, 0, 55, 0
8, 79560, Note_on_c, 0, 58, 84
8, 79614, Note_on_c, 0, 58, 0
8, 79800, Note_on_c, 0, 60, 92
8, 79854, Note_on_c, 0, 60, 0
8, 79920, Note_on_c, 0, 56, 92
8, 79974, Note_on_c, 0, 56, 0
8, 80040, Note_on_c, 0, 53, 92
8, 80094, Note_on_c, 0, 53, 0
8, 80280, Note_on_c, 0, 61, 92
8, 80334, Note_on_c, 0, 61, 0
8, 80400, Note_on_c, 0, 58, 92
8, 80454, Note_on_c, 0, 58, 0
8, 80520, Note_on_c, 0, 55, 92
8, 80574, Note_on_c, 0, 55, 0
8, 80760, Note_on_c, 0, 60, 92
8, 80814, Note_on_c, 0, 60, 0
8, 80880, Note_on_c, 0, 56, 91
8, 80934, Note_on_c, 0, 56, 0
8, 81000, Note_on_c, 0, 53, 91
8, 81054, Note_on_c, 0, 53, 0
8, 81240, Note_on_c, 0, 59, 91
8, 81294, Note_on_c, 0, 59, 0
8, 81360, Note_on_c, 0, 56, 91
8, 81414, Note_on_c, 0, 56, 0
8, 81480, Note_on_c, 0, 53, 91
8, 81534, Note_on_c, 0, 53, 0
8, 81720, Note_on_c, 0, 60, 88
8, 81774, Note_on_c, 0, 60, 0
8, 81840, Note_on_c, 0, 55, 85
8, 81894, Note_on_c, 0, 55, 0
8, 81960, Note_on_c, 0, 50, 81
8, 82014, Note_on_c, 0, 50, 0
8, 82080, Note_on_c, 0, 52, 78
8, 82134, Note_on_c, 0, 52, 0
8, 82200, Note_on_c, 0, 48, 74
8, 82254, Note_on_c, 0, 48, 0
8, 82320, Note_on_c, 0, 55, 71
8, 82374, Note_on_c, 0, 55, 0
8, 82440, Note_on_c, 0, 48, 67
8, 82494, Note_on_c, 0, 48, 0
8, 82560, Control_c, 0, 64, 127
8, 82560, Note_on_c, 0, 58, 64
8, 83039, Note_on_c, 0, 58, 0
8, 83040, Note_on_c, 0, 46, 64
8, 83472, Note_on_c, 0, 46, 0
8, 83520, Note_on_c, 0, 45, 95
8, 83759, Note_on_c, 0, 45, 0
8, 83760, Note_on_c, 0, 53, 95
8, 84239, Note_on_c, 0, 53, 0
8, 84240, Note_on_c, 0, 54, 82
8, 84456, Note_on_c, 0, 54, 0
8, 84480, Note_on_c, 0, 55, 88
8, 84959, Note_on_c, 0, 55, 0
8, 84960, Note_on_c, 0, 48, 98
8, 85392, Note_on_c, 0, 48, 0
8, 85440, Note_on_c, 0, 47, 64
8, 85679, Note_on_c, 0, 47, 0
8, 85680, Note_on_c, 0, 55, 67
8, 86159, Note_on_c, 0, 55, 0
8, 86160, Note_on_c, 0, 56, 82
8, 86370, Control_c, 0, 64, 0
8, 86376, Note_on_c, 0, 56, 0
8, 86400, Note_on_c, 0, 45, 72
8, 86639, Note_on_c, 0, 45, 0
8, 86640, Note_on_c, 0, 41, 79
8, 86759, Note_on_c, 0, 41, 0
8, 86760, Note_on_c, 0, 45, 69
8, 86879, Note_on_c, 0, 45, 0
8, 86880, Note_on_c, 0, 53, 71
8, 86999, Note_on_c, 0, 53, 0
8, 87000, Note_on_c, 0, 45, 72
8, 87119, Note_on_c, 0, 45, 0
8, 87120, Note_on_c, 0, 41, 74
8, 87239, Note_on_c, 0, 41, 0
8, 87240, Note_on_c, 0, 45, 76
8, 87348, Note_on_c, 0, 45, 0
8, 87360, Note_on_c, 0, 53, 78
8, 87479, Note_on_c, 0, 53, 0
8, 87480, Note_on_c, 0, 45, 80
8, 87599, Note_on_c, 0, 45, 0
8, 87600, Note_on_c, 0, 41, 81
8, 87719, Note_on_c, 0, 41, 0
8, 87720, Note_on_c, 0, 45, 83
8, 87839, Note_on_c, 0, 45, 0
8, 87840, Note_on_c, 0, 53, 86
8, 87959, Note_on_c, 0, 53, 0
8, 87960, Note_on_c, 0, 45, 88
8, 88079, Note_on_c, 0, 45, 0
8, 88080, Note_on_c, 0, 41, 90
8, 88199, Note_on_c, 0, 41, 0
8, 88200, Note_on_c, 0, 45, 92
8, 88308, Note_on_c, 0, 45, 0
8, 88320, Note_on_c, 0, 53, 93
8, 88439, Note_on_c, 0, 53, 0
8, 88440, Note_on_c, 0, 46, 94
8, 88559, Note_on_c, 0, 46, 0
8, 88560, Note_on_c, 0, 41, 95
8, 88679, Note_on_c, 0, 41, 0
8, 88680, Note_on_c, 0, 46, 96
8, 88799, Note_on_c, 0, 46, 0
8, 88800, Note_on_c, 0, 53, 96
8, 88919, Note_on_c, 0, 53, 0
8, 88920, Note_on_c, 0, 43, 96
8, 89159, Note_on_c, 0, 43, 0
8, 89160, Note_on_c, 0, 43, 96
8, 89268, Note_on_c, 0, 43, 0
8, 89280, Control_c, 0, 64, 127
8, 89280, Note_on_c, 0, 53, 96
8, 89399, Note_on_c, 0, 53, 0
8, 89400, Note_on_c, 0, 41, 96
8, 89639, Note_on_c, 0, 41, 0
8, 89640, Note_on_c, 0, 41, 96
8, 89759, Note_on_c, 0, 41, 0
8, 89760, Note_on_c, 0, 52, 96
8, 89879, Note_on_c, 0, 52, 0
8, 89880, Note_on_c, 0, 40, 96
8, 90119, Note_on_c, 0, 40, 0
8, 90120, Note_on_c, 0, 40, 96
8, 90228, Note_on_c, 0, 40, 0
8, 90240, Note_on_c, 0, 50, 95
8, 90359, Note_on_c, 0, 50, 0
8, 90360, Note_on_c, 0, 38, 95
8, 90599, Note_on_c, 0, 38, 0
8, 90600, Note_on_c, 0, 38, 95
8, 90719, Note_on_c, 0, 38, 0
8, 90720, Note_on_c, 0, 50, 95
8, 90839, Note_on_c, 0, 50, 0
8, 90840, Note_on_c, 0, 38, 95
8, 91079, Note_on_c, 0, 38, 0
8, 91080, Note_on_c, 0, 38, 95
8, 91188, Note_on_c, 0, 38, 0
8, 91200, Note_on_c, 0, 48, 95
8, 91319, Note_on_c, 0, 48, 0
8, 91320, Note_on_c, 0, 36, 95
8, 91559, Note_on_c, 0, 36, 0
8, 91560, Note_on_c, 0, 36, 93
8, 91679, Note_on_c, 0, 36, 0
8, 91680, Note_on_c, 0, 48, 94
8, 91799, Note_on_c, 0, 48, 0
8, 91800, Note_on_c, 0, 36, 94
8, 92039, Note_on_c, 0, 36, 0
8, 92040, Note_on_c, 0, 36, 96
8, 92148, Note_on_c, 0, 36, 0
8, 92160, Note_on_c, 0, 48, 96
8, 92376, Note_on_c, 0, 48, 0
8, 92540, Control_c, 0, 64, 0
8, 93120, Note_on_c, 0, 60, 97
8, 93228, Note_on_c, 0, 60, 0
8, 93240, Note_on_c, 0, 58, 94
8, 93348, Note_on_c, 0, 58, 0
8, 93360, Note_on_c, 0, 55, 91
8, 93414, Note_on_c, 0, 55, 0
8, 93480, Note_on_c, 0, 52, 87
8, 93534, Note_on_c, 0, 52, 0
8, 93600, Note_on_c, 0, 60, 84
8, 93708, Note_on_c, 0, 60, 0
8, 93720, Note_on_c, 0, 58, 81
8, 93828, Note_on_c, 0, 58, 0
8, 93840, Note_on_c, 0, 55, 78
8, 93894, Note_on_c, 0, 55, 0
8, 93960, Note_on_c, 0, 52, 75
8, 94014, Note_on_c, 0, 52, 0
8, 94080, Note_on_c, 0, 48, 56
8, 94559, Note_on_c, 0, 48, 0
8, 94560, Note_on_c, 0, 53, 56
8, 94560, Note_on_c, 0, 60, 56
8, 94799, Note_on_c, 0, 60, 0
8, 94799, Note_on_c, 0, 53, 0
8, 94800, Note_on_c, 0, 53, 55
8, 94800, Note_on_c, 0, 60, 55
8, 95279, Note_on_c, 0, 60, 0
8, 95279, Note_on_c, 0, 53, 0
8, 95280, Note_on_c, 0, 53, 54
8, 95280, Note_on_c, 0, 61, 54
8, 95519, Note_on_c, 0, 61, 0
8, 95519, Note_on_c, 0, 53, 0
8, 95520, Note_on_c, 0, 54, 53
8, 95520, Note_on_c, 0, 62, 53
8, 95759, Note_on_c, 0, 62, 0
8, 95759, Note_on_c, 0, 54, 0
8, 95760, Note_on_c, 0, 54, 52
8, 95760, Note_on_c, 0, 62, 52
8, 95976, Note_on_c, 0, 54, 0
8, 96000, Note_on_c, 0, 55, 52
8, 96239, Note_on_c, 0, 55, 0
8, 96239, Note_on_c, 0, 62, 0
8, 96240, Note_on_c, 0, 62, 51
8, 96240, Note_on_c, 0, 55, 51
8, 96479, Note_on_c, 0, 55, 0
8, 96480, Note_on_c, 0, 53, 51
8, 96719, Note_on_c, 0, 53, 0
8, 96719, Note_on_c, 0, 62, 0
8, 96720, Note_on_c, 0, 53, 49
8, 96720, Note_on_c, 0, 62, 49
8, 96936, Note_on_c, 0, 62, 0
8, 96936, Note_on_c, 0, 53, 0
8, 96960, Note_on_c, 0, 52, 48
8, 96960, Note_on_c, 0, 60, 48
8, 97199, Note_on_c, 0, 60, 0
8, 97199, Note_on_c, 0, 52, 0
8, 97200, Note_on_c, 0, 52, 53
8, 97200, Note_on_c, 0, 60, 53
8, 97439, Note_on_c, 0, 60, 0
8, 97439, Note_on_c, 0, 52, 0
8, 97440, Note_on_c, 0, 55, 55
8, 97440, Note_on_c, 0, 64, 55
8, 97679, Note_on_c, 0, 64, 0
8, 97679, Note_on_c, 0, 55, 0
8, 97680, Note_on_c, 0, 55, 56
8, 97680, Note_on_c, 0, 64, 56
8, 97896, Note_on_c, 0, 64, 0
8, 97896, Note_on_c, 0, 55, 0
8, 97920, Note_on_c, 0, 53, 58
8, 97920, Note_on_c, 0, 60, 58
8, 98159, Note_on_c, 0, 60, 0
8, 98159, Note_on_c, 0, 53, 0
8, 98160, Note_on_c, 0, 53, 60
8, 98160, Note_on_c, 0, 60, 60
8, 98639, Note_on_c, 0, 60, 0
8, 98639, Note_on_c, 0, 53, 0
8, 98640, Note_on_c, 0, 60, 64
8, 98856, Note_on_c, 0, 60, 0
8, 98880, Note_on_c, 0, 61, 67
8, 99119, Note_on_c, 0, 61, 0
8, 99120, Note_on_c, 0, 61, 68
8, 99359, Note_on_c, 0, 61, 0
8, 99360, Note_on_c, 0, 62, 71
8, 99599, Note_on_c, 0, 62, 0
8, 99600, Note_on_c, 0, 62, 73
8, 99816, Note_on_c, 0, 62, 0
8, 99840, Note_on_c, 0, 65, 75
8, 100079, Note_on_c, 0, 65, 0
8, 100080, Note_on_c, 0, 65, 74
8, 100319, Note_on_c, 0, 65, 0
8, 100320, Note_on_c, 0, 64, 72
8, 100559, Note_on_c, 0, 64, 0
8, 100560, Note_on_c, 0, 64, 71
8, 100776, Note_on_c, 0, 64, 0
8, 100800, Note_on_c, 0, 63, 68
8, 101039, Note_on_c, 0, 63, 0
8, 101040, Note_on_c, 0, 63, 67
8, 101279, Note_on_c, 0, 63, 0
8, 101280, Note_on_c, 0, 62, 65
8, 101519, Note_on_c, 0, 62, 0
8, 101520, Note_on_c, 0, 62, 65
8, 101736, Note_on_c, 0, 62, 0
8, 101760, Note_on_c, 0, 60, 64
8, 101999, Note_on_c, 0, 60, 0
8, 102000, Note_on_c, 0, 60, 64
8, 102239, Note_on_c, 0, 60, 0
8, 102240, Note_on_c, 0, 59, 62
8, 102479, Note_on_c, 0, 59, 0
8, 102480, Note_on_c, 0, 59, 61
8, 102696, Note_on_c, 0, 59, 0
8, 102720, Note_on_c, 0, 58, 60
8, 102959, Note_on_c, 0, 58, 0
8, 102960, Note_on_c, 0, 58, 59
8, 103200, Note_on_c, 0, 55, 58
8, 103439, Note_on_c, 0, 55, 0
8, 103439, Note_on_c, 0, 58, 0
8, 103440, Note_on_c, 0, 55, 56
8, 103440, Note_on_c, 0, 58, 56
8, 103656, Note_on_c, 0, 58, 0
8, 103656, Note_on_c, 0, 55, 0
8, 103680, Note_on_c, 0, 53, 56
8, 103680, Note_on_c, 0, 57, 56
8, 103919, Note_on_c, 0, 57, 0
8, 103919, Note_on_c, 0, 53, 0
8, 103920, Note_on_c, 0, 53, 55
8, 103920, Note_on_c, 0, 57, 55
8, 104159, Note_on_c, 0, 57, 0
8, 104159, Note_on_c, 0, 53, 0
8, 104160, Note_on_c, 0, 51, 53
8, 104160, Note_on_c, 0, 57, 53
8, 104399, Note_on_c, 0, 57, 0
8, 104399, Note_on_c, 0, 51, 0
8, 104400, Note_on_c, 0, 51, 52
8, 104400, Note_on_c, 0, 57, 52
8, 104616, Note_on_c, 0, 57, 0
8, 104616, Note_on_c, 0, 51, 0
8, 104640, Note_on_c, 0, 50, 52
8, 104640, Note_on_c, 0, 58, 52
8, 104879, Note_on_c, 0, 58, 0
8, 104879, Note_on_c, 0, 50, 0
8, 104880, Note_on_c, 0, 50, 50
8, 104880, Note_on_c, 0, 58, 50
8, 105119, Note_on_c, 0, 58, 0
8, 105119, Note_on_c, 0, 50, 0
8, 105120, Note_on_c, 0, 52, 49
8, 105120, Note_on_c, 0, 55, 49
8, 105359, Note_on_c, 0, 55, 0
8, 105359, Note_on_c, 0, 52, 0
8, 105360, Note_on_c, 0, 52, 48
8, 105360, Note_on_c, 0, 55, 48
8, 105576, Note_on_c, 0, 55, 0
8, 105576, Note_on_c, 0, 52, 0
8, 105600, Note_on_c, 0, 53, 47
8, 105600, Note_on_c, 0, 57, 47
8, 105839, Note_on_c, 0, 57, 0
8, 105839, Note_on_c, 0, 53, 0
8, 105840, Note_on_c, 0, 53, 46
8, 105840, Note_on_c, 0, 57, 46
8, 106079, Note_on_c, 0, 53, 0
8, 106080, Note_on_c, 0, 51, 45
8, 106319, Note_on_c, 0, 51, 0
8, 106319, Note_on_c, 0, 57, 0
8, 106320, Note_on_c, 0, 57, 44
8, 106320, Note_on_c, 0, 51, 44
8, 106536, Note_on_c, 0, 51, 0
8, 106536, Note_on_c, 0, 57, 0
8, 106560, Note_on_c, 0, 58, 43
8, 106560, Note_on_c, 0, 50, 43
8, 106799, Note_on_c, 0, 50, 0
8, 106799, Note_on_c, 0, 58, 0
8, 106800, Note_on_c, 0, 58, 41
8, 106800, Note_on_c, 0, 50, 41
8, 107039, Note_on_c, 0, 50, 0
8, 107039, Note_on_c, 0, 58, 0
8, 107040, Note_on_c, 0, 55, 40
8, 107040, Note_on_c, 0, 52, 40
8, 107279, Note_on_c, 0, 52, 0
8, 107279, Note_on_c, 0, 55, 0
8, 107280, Note_on_c, 0, 55, 40
8, 107280, Note_on_c, 0, 52, 40
8, 107496, Note_on_c, 0, 52, 0
8, 107496, Note_on_c, 0, 55, 0
8, 107520, Note_on_c, 0, 57, 38
8, 107520, Note_on_c, 0, 53, 38
8, 107759, Note_on_c, 0, 53, 0
8, 107759, Note_on_c, 0, 57, 0
8, 107760, Note_on_c, 0, 57, 37
8, 107760, Note_on_c, 0, 53, 37
8, 107999, Note_on_c, 0, 53, 0
8, 107999, Note_on_c, 0, 57, 0
8, 108000, Note_on_c, 0, 52, 36
8, 108000, Note_on_c, 0, 55, 36
8, 108239, Note_on_c, 0, 55, 0
8, 108239, Note_on_c, 0, 52, 0
8, 108240, Note_on_c, 0, 52, 35
8, 108240, Note_on_c, 0, 55, 35
8, 108456, Note_on_c, 0, 55, 0
8, 108456, Note_on_c, 0, 52, 0
8, 108480, Note_on_c, 0, 53, 34
8, 108480, Note_on_c, 0, 57, 34
8, 108719, Note_on_c, 0, 57, 0
8, 108719, Note_on_c, 0, 53, 0
8, 108720, Note_on_c, 0, 53, 33
8, 108720, Note_on_c, 0, 57, 33
8, 108959, Note_on_c, 0, 57, 0
8, 108959, Note_on_c, 0, 53, 0
8, 108960, Note_on_c, 0, 52, 32
8, 108960, Note_on_c, 0, 55, 32
8, 109199, Note_on_c, 0, 55, 0
8, 109199, Note_on_c, 0, 52, 0
8, 109200, Note_on_c, 0, 52, 31
8, 109200, Note_on_c, 0, 55, 31
8, 109416, Note_on_c, 0, 55, 0
8, 109416, Note_on_c, 0, 52, 0
8, 173760, Note_on_c, 0, 46, 51
8, 173760, Note_on_c, 0, 34, 51
8, 174624, Note_on_c, 0, 34, 0
8, 174624, Note_on_c, 0, 46, 0
8, 174720, Note_on_c, 0, 45, 32
8, 174720, Note_on_c, 0, 33, 32
8, 175584, Note_on_c, 0, 33, 0
8, 175584, Note_on_c, 0, 45, 0
8, 175680, Note_on_c, 0, 43, 32
8, 175680, Note_on_c, 0, 31, 32
8, 176544, Note_on_c, 0, 31, 0
8, 176544, Note_on_c, 0, 43, 0
8, 176640, Note_on_c, 0, 41, 33
8, 176640, Note_on_c, 0, 29, 33
8, 177504, Note_on_c, 0, 29, 0
8, 177504, Note_on_c, 0, 41, 0
8, 177600, Note_on_c, 0, 43, 34
8, 177600, Note_on_c, 0, 31, 34
8, 178464, Note_on_c, 0, 31, 0
8, 178464, Note_on_c, 0, 43, 0
8, 178560, Note_on_c, 0, 41, 34
8, 178560, Note_on_c, 0, 29, 34
8, 179424, Note_on_c, 0, 29, 0
8, 179424, Note_on_c, 0, 41, 0
8, 179520, Note_on_c, 0, 40, 35
8, 179520, Note_on_c, 0, 28, 35
8, 180384, Note_on_c, 0, 28, 0
8, 180384, Note_on_c, 0, 40, 0
8, 180480, Note_on_c, 0, 29, 70
8, 180480, Control_c, 0, 64, 127
8, 180480, Note_on_c, 0, 41, 70
8, 180719, Note_on_c, 0, 41, 0
8, 180719, Note_on_c, 0, 29, 0
8, 180720, Note_on_c, 0, 45, 64
8, 180959, Note_on_c, 0, 45, 0
8, 180960, Note_on_c, 0, 48, 58
8, 181199, Note_on_c, 0, 48, 0
8, 181200, Control_c, 0, 64, 0
8, 181200, Note_on_c, 0, 53, 52
8, 181416, Note_on_c, 0, 53, 0
8, 181440, Note_on_c, 0, 34, 46
8, 181919, Note_on_c, 0, 34, 0
8, 181920, Note_on_c, 0, 46, 39
8, 182352, Note_on_c, 0, 46, 0
8, 182400, Note_on_c, 0, 45, 40
8, 182879, Note_on_c, 0, 45, 0
8, 182880, Note_on_c, 0, 44, 42
8, 183312, Note_on_c, 0, 44, 0
8, 183360, Note_on_c, 0, 43, 44
8, 183839, Note_on_c, 0, 43, 0
8, 183840, Note_on_c, 0, 42, 46
8, 184272, Note_on_c, 0, 42, 0
8, 184320, Note_on_c, 0, 41, 48
8, 185184, Note_on_c, 0, 41, 0
8, 185280, Note_on_c, 0, 43, 52
8, 185759, Note_on_c, 0, 43, 0
8, 185760, Note_on_c, 0, 41, 53
8, 186192, Note_on_c, 0, 41, 0
8, 186240, Note_on_c, 0, 40, 55
8, 186719, Note_on_c, 0, 40, 0
8, 186720, Note_on_c, 0, 38, 57
8, 187152, Note_on_c, 0, 38, 0
8, 187200, Note_on_c, 0, 36, 59
8, 188064, Note_on_c, 0, 36, 0
8, 188160, Control_c, 0, 64, 127
8, 188160, Note_on_c, 0, 41, 43
8, 189024, Note_on_c, 0, 41, 0
8, 189120, Note_on_c, 0, 53, 65
8, 189120, Note_on_c, 0, 41, 65
8, 191519, Note_on_c, 0, 41, 0
8, 191519, Note_on_c, 0, 53, 0
8, 191520, Note_on_c, 0, 51, 44
8, 191520, Note_on_c, 0, 39, 44
8, 192479, Note_on_c, 0, 39, 0
8, 192479, Note_on_c, 0, 51, 0
8, 192480, Note_on_c, 0, 38, 44
8, 192480, Note_on_c, 0, 50, 44
8, 193439, Note_on_c, 0, 50, 0
8, 193439, Note_on_c, 0, 38, 0
8, 193440, Note_on_c, 0, 51, 46
8, 193440, Note_on_c, 0, 39, 46
8, 194399, Note_on_c, 0, 39, 0
8, 194399, Note_on_c, 0, 51, 0
8, 194400, Note_on_c, 0, 38, 48
8, 194400, Note_on_c, 0, 50, 48
8, 194832, Note_on_c, 0, 50, 0
8, 194832, Note_on_c, 0, 38, 0
8, 194880, Note_on_c, 0, 36, 54
8, 194880, Note_on_c, 0, 48, 54
8, 195359, Note_on_c, 0, 48, 0
8, 195359, Note_on_c, 0, 36, 0
8, 195360, Note_on_c, 0, 34, 67
8, 195360, Note_on_c, 0, 46, 67
8, 195792, Note_on_c, 0, 46, 0
8, 195792, Note_on_c, 0, 34, 0
8, 195840, Note_on_c, 0, 31, 72
8, 195840, Note_on_c, 0, 43, 72
8, 196704, Note_on_c, 0, 43, 0
8, 196704, Note_on_c, 0, 31, 0
8, 196800, Note_on_c, 0, 29, 51
8, 196800, Note_on_c, 0, 41, 51
8, 197232, Note_on_c, 0, 41, 0
8, 197232, Note_on_c, 0, 29, 0
8, 197486, Control_c, 0, 64, 0
8, 205440, Control_c, 0, 64, 127
8, 205680, Note_on_c, 0, 56, 38
8, 205680, Note_on_c, 0, 62, 38
8, 205680, Note_on_c, 0, 59, 38
8, 205680, Note_on_c, 0, 54, 38
8, 206400, Note_on_c, 0, 54, 0
8, 206400, Note_on_c, 0, 56, 0
8, 206400, Note_on_c, 0, 62, 0
8, 206400, Note_on_c, 0, 59, 0
8, 206640, Note_on_c, 0, 65, 27
8, 206640, Note_on_c, 0, 54, 27
8, 206640, Note_on_c, 0, 59, 27
8, 206640, Note_on_c, 0, 62, 27
8, 207360, Note_on_c, 0, 62, 0
8, 207360, Note_on_c, 0, 65, 0
8, 207360, Note_on_c, 0, 54, 0
8, 207360, Note_on_c, 0, 59, 0
8, 207600, Note_on_c, 0, 54, 25
8, 207600, Note_on_c, 0, 65, 25
8, 207600, Note_on_c, 0, 59, 25
8, 207600, Note_on_c, 0, 62, 25
8, 208320, Note_on_c, 0, 62, 0
8, 208320, Note_on_c, 0, 54, 0
8, 208320, Note_on_c, 0, 65, 0
8, 208320, Note_on_c, 0, 59, 0
8, 208560, Note_on_c, 0, 54, 25
8, 208560, Note_on_c, 0, 68, 25
8, 208560, Note_on_c, 0, 62, 25
8, 208560, Note_on_c, 0, 65, 25
8, 209280, Note_on_c, 0, 65, 0
8, 209280, Note_on_c, 0, 54, 0
8, 209280, Note_on_c, 0, 68, 0
8, 209280, Note_on_c, 0, 62, 0
8, 209520, Note_on_c, 0, 61, 35
8, 209520, Note_on_c, 0, 66, 35
8, 209520, Note_on_c, 0, 64, 35
8, 209520, Note_on_c, 0, 54, 35
8, 210240, Note_on_c, 0, 54, 0
8, 210240, Note_on_c, 0, 61, 0
8, 210240, Note_on_c, 0, 66, 0
8, 210240, Note_on_c, 0, 64, 0
8, 211230, Control_c, 0, 64, 127
8, 211440, Note_on_c, 0, 64, 48
8, 211440, Note_on_c, 0, 66, 48
8, 211440, Note_on_c, 0, 54, 48
8, 211440, Note_on_c, 0, 58, 48
8, 211920, Note_on_c, 0, 58, 0
8, 211920, Note_on_c, 0, 64, 0
8, 211920, Note_on_c, 0, 66, 0
8, 211920, Note_on_c, 0, 54, 0
8, 212190, Control_c, 0, 64, 0
8, 213540, Control_c, 0, 64, 127
8, 213740, Note_on_c, 0, 54, 38
8, 213740, Note_on_c, 0, 66, 38
8, 213740, Note_on_c, 0, 58, 38
8, 213740, Note_on_c, 0, 61, 38
8, 213740, Note_on_c, 0, 64, 38
8, 214460, Note_on_c, 0, 64, 0
8, 214460, Note_on_c, 0, 58, 0
8, 214460, Note_on_c, 0, 54, 0
8, 214460, Note_on_c, 0, 66, 0
8, 214460, Note_on_c, 0, 61, 0
8, 214500, Control_c, 0, 64, 0
8, 214740, Control_c, 0, 64, 0
8, 216960, Note_on_c, 0, 41, 45
8, 218784, Note_on_c, 0, 41, 0
8, 218880, Note_on_c, 0, 41, 49
8, 220704, Note_on_c, 0, 41, 0
8, 296640, Control_c, 0, 64, 127
8, 296760, Note_on_c, 0, 60, 64
8, 296814, Note_on_c, 0, 60, 0
8, 297600, Control_c, 0, 64, 0
8, 321600, Note_on_c, 0, 71, 90
8, 321600, Note_on_c, 0, 74, 90
8, 321672, Control_c, 0, 64, 127
8, 321708, Note_on_c, 0, 74, 0
8, 321708, Note_on_c, 0, 71, 0
8, 321720, Note_on_c, 0, 72, 90
8, 321720, Note_on_c, 0, 69, 90
8, 321828, Note_on_c, 0, 69, 0
8, 321828, Note_on_c, 0, 72, 0
8, 321840, Note_on_c, 0, 71, 91
8, 321840, Note_on_c, 0, 67, 91
8, 321894, Note_on_c, 0, 67, 0
8, 321894, Note_on_c, 0, 71, 0
8, 321960, Note_on_c, 0, 71, 92
8, 321960, Note_on_c, 0, 67, 92
8, 322014, Note_on_c, 0, 67, 0
8, 322014, Note_on_c, 0, 71, 0
8, 322080, Note_on_c, 0, 72, 92
8, 322080, Note_on_c, 0, 69, 92
8, 322188, Note_on_c, 0, 69, 0
8, 322188, Note_on_c, 0, 72, 0
8, 322200, Note_on_c, 0, 71, 93
8, 322254, Note_on_c, 0, 71, 0
8, 322320, Note_on_c, 0, 69, 94
8, 322320, Note_on_c, 0, 72, 94
8, 322374, Note_on_c, 0, 72, 0
8, 322374, Note_on_c, 0, 69, 0
8, 322440, Note_on_c, 0, 69, 95
8, 322440, Note_on_c, 0, 74, 95
8, 322494, Note_on_c, 0, 74, 0
8, 322494, Note_on_c, 0, 69, 0
8, 322560, Note_on_c, 0, 71, 95
8, 322560, Note_on_c, 0, 67, 95
8, 322560, Note_on_c, 0, 74, 95
8, 322632, Control_c, 0, 64, 0
8, 322668, Note_on_c, 0, 74, 0
8, 322668, Note_on_c, 0, 67, 0
8, 322668, Note_on_c, 0, 71, 0
8, 322680, Note_on_c, 0, 55, 96
8, 322730, Control_c, 0, 64, 127
8, 322734, Note_on_c, 0, 55, 0
8, 322740, Note_on_c, 0, 57, 96
8, 322794, Note_on_c, 0, 57, 0
8, 322800, Note_on_c, 0, 59, 97
8, 322836, Note_on_c, 0, 59, 0
8, 322840, Note_on_c, 0, 60, 97
8, 322876, Note_on_c, 0, 60, 0
8, 322880, Note_on_c, 0, 62, 97
8, 322916, Note_on_c, 0, 62, 0
8, 322920, Note_on_c, 0, 64, 98
8, 322956, Note_on_c, 0, 64, 0
8, 322960, Note_on_c, 0, 65, 98
8, 322996, Note_on_c, 0, 65, 0
8, 323000, Note_on_c, 0, 67, 98
8, 323036, Note_on_c, 0, 67, 0
8, 323040, Note_on_c, 0, 67, 98
8, 323256, Note_on_c, 0, 67, 0
8, 323280, Note_on_c, 0, 67, 94
8, 323399, Note_on_c, 0, 67, 0
8, 323400, Note_on_c, 0, 67, 94
8, 323508, Note_on_c, 0, 67, 0
8, 323520, Note_on_c, 0, 67, 94
8, 323690, Control_c, 0, 64, 0
8, 323759, Note_on_c, 0, 67, 0
8, 323760, Note_on_c, 0, 67, 95
8, 323879, Note_on_c, 0, 67, 0
8, 323880, Note_on_c, 0, 67, 95
8, 323999, Note_on_c, 0, 67, 0
8, 324000, Note_on_c, 0, 66, 95
8, 324239, Note_on_c, 0, 66, 0
8, 324240, Note_on_c, 0, 66, 96
8, 324359, Note_on_c, 0, 66, 0
8, 324360, Note_on_c, 0, 66, 96
8, 324414, Note_on_c, 0, 66, 0
8, 324480, Note_on_c, 0, 62, 96
8, 324480, Note_on_c, 0, 59, 96
8, 324480, Note_on_c, 0, 67, 96
8, 324696, Note_on_c, 0, 67, 0
8, 324696, Note_on_c, 0, 59, 0
8, 324696, Note_on_c, 0, 62, 0
8, 324720, Note_on_c, 0, 50, 99
8, 324774, Note_on_c, 0, 50, 0
8, 324780, Note_on_c, 0, 48, 97
8, 324834, Note_on_c, 0, 48, 0
8, 324840, Note_on_c, 0, 47, 95
8, 324894, Note_on_c, 0, 47, 0
8, 324900, Note_on_c, 0, 45, 93
8, 324954, Note_on_c, 0, 45, 0
8, 324960, Note_on_c, 0, 43, 91
8, 325392, Note_on_c, 0, 43, 0
8, 325680, Note_on_c, 0, 50, 103
8, 325734, Note_on_c, 0, 50, 0
8, 325740, Note_on_c, 0, 48, 101
8, 325794, Note_on_c, 0, 48, 0
8, 325800, Note_on_c, 0, 47, 98
8, 325854, Note_on_c, 0, 47, 0
8, 325860, Note_on_c, 0, 45, 96
8, 325914, Note_on_c, 0, 45, 0
8, 325920, Note_on_c, 0, 43, 94
8, 326352, Note_on_c, 0, 43, 0
8, 326400, Control_c, 0, 64, 127
8, 326400, Note_on_c, 0, 55, 100
8, 326400, Note_on_c, 0, 59, 100
8, 326879, Note_on_c, 0, 59, 0
8, 326879, Note_on_c, 0, 55, 0
8, 326880, Note_on_c, 0, 55, 101
8, 326880, Note_on_c, 0, 59, 101
8, 327312, Note_on_c, 0, 59, 0
8, 327312, Note_on_c, 0, 55, 0
8, 327360, Control_c, 0, 64, 0
8, 338880, Control_c, 0, 64, 0
8, 338880, Note_on_c, 0, 86, 106
8, 339000, Control_c, 0, 64, 127
8, 339359, Note_on_c, 0, 86, 0
8, 339360, Note_on_c, 0, 84, 96
8, 339600, Note_on_c, 0, 81, 90
8, 339792, Note_on_c, 0, 84, 0
8, 339816, Note_on_c, 0, 81, 0
8, 339840, Note_on_c, 0, 83, 96
8, 339840, Note_on_c, 0, 71, 96
8, 340199, Note_on_c, 0, 71, 0
8, 340199, Note_on_c, 0, 83, 0
8, 340200, Note_on_c, 0, 84, 99
8, 340254, Note_on_c, 0, 84, 0
8, 340260, Note_on_c, 0, 83, 100
8, 340287, Note_on_c, 0, 83, 0
8, 340320, Note_on_c, 0, 81, 102
8, 340320, Note_on_c, 0, 69, 102
8, 340428, Note_on_c, 0, 69, 0
8, 340428, Note_on_c, 0, 81, 0
8, 340560, Note_on_c, 0, 83, 105
8, 340560, Note_on_c, 0, 71, 105
8, 340668, Note_on_c, 0, 71, 0
8, 340668, Note_on_c, 0, 83, 0
8, 341355, Control_c, 0, 64, 0
8, 361272, Control_c, 0, 64, 127
8, 361440, Note_on_c, 0, 45, 95
8, 361920, Note_on_c, 0, 53, 95
8, 363312, Note_on_c, 0, 53, 0
8, 363312, Note_on_c, 0, 45, 0
8, 364320, Note_on_c, 0, 45, 94
8, 364800, Note_on_c, 0, 56, 94
8, 366192, Note_on_c, 0, 56, 0
8, 366192, Note_on_c, 0, 45, 0
8, 367200, Note_on_c, 0, 45, 93
8, 367632, Note_on_c, 0, 45, 0
8, 367680, Note_on_c, 0, 52, 93
8, 368544, Note_on_c, 0, 52, 0
8, 368640, Note_on_c, 0, 57, 93
8, 375792, Note_on_c, 0, 57, 0
8, 379200, Control_c, 0, 64, 127
8, 379200, Note_on_c, 0, 33, 82
8, 379319, Note_on_c, 0, 33, 0
8, 379320, Note_on_c, 0, 45, 84
8, 379439, Note_on_c, 0, 45, 0
8, 379440, Note_on_c, 0, 45, 86
8, 379650, Control_c, 0, 64, 0
8, 380160, Note_on_c, 0, 33, 65
8, 380160, Control_c, 0, 64, 127
8, 380376, Note_on_c, 0, 33, 0
8, 380376, Note_on_c, 0, 45, 0
8, 380400, Note_on_c, 0, 44, 65
8, 380616, Note_on_c, 0, 44, 0
8, 380640, Note_on_c, 0, 45, 65
8, 380856, Note_on_c, 0, 45, 0
8, 380880, Note_on_c, 0, 48, 65
8, 381096, Note_on_c, 0, 48, 0
8, 381120, Note_on_c, 0, 49, 65
8, 381336, Note_on_c, 0, 49, 0
8, 381360, Note_on_c, 0, 51, 65
8, 381576, Note_on_c, 0, 51, 0
8, 381600, Note_on_c, 0, 52, 65
8, 382032, Note_on_c, 0, 52, 0
8, 382080, Note_on_c, 0, 45, 65
8, 382512, Note_on_c, 0, 45, 0
8, 382560, Note_on_c, 0, 33, 71
8, 382560, Note_on_c, 0, 45, 71
8, 382992, Note_on_c, 0, 45, 0
8, 382992, Note_on_c, 0, 33, 0
8, 383840, Control_c, 0, 64, 0
8, 417048, Control_c, 0, 64, 127
8, 417120, Note_on_c, 0, 38, 75
8, 417359, Note_on_c, 0, 38, 0
8, 417360, Note_on_c, 0, 33, 64
8, 417576, Note_on_c, 0, 33, 0
8, 418080, Note_on_c, 0, 38, 72
8, 418319, Note_on_c, 0, 38, 0
8, 418320, Note_on_c, 0, 33, 66
8, 418536, Note_on_c, 0, 33, 0
8, 419040, Note_on_c, 0, 38, 78
8, 419279, Note_on_c, 0, 38, 0
8, 419280, Note_on_c, 0, 33, 69
8, 419496, Note_on_c, 0, 33, 0
8, 420195, Control_c, 0, 64, 0
8, 424320, Note_on_c, 0, 74, 42
8, 424320, Note_on_c, 0, 66, 42
8, 424320, Note_on_c, 0, 69, 42
8, 424752, Note_on_c, 0, 69, 0
8, 424752, Note_on_c, 0, 66, 0
8, 424752, Note_on_c, 0, 74, 0
8, 444720, Note_on_c, 0, 62, 64
8, 445152, Note_on_c, 0, 62, 0
8, 445200, Note_on_c, 0, 64, 91
8, 445259, Note_on_c, 0, 64, 0
8, 445260, Note_on_c, 0, 66, 91
8, 445319, Note_on_c, 0, 66, 0
8, 445320, Note_on_c, 0, 64, 88
8, 445379, Note_on_c, 0, 64, 0
8, 445380, Note_on_c, 0, 66, 84
8, 445440, Control_c, 0, 64, 0
8, 445620, Control_c, 0, 64, 127
8, 445679, Note_on_c, 0, 66, 0
8, 445680, Note_on_c, 0, 69, 86
8, 445919, Note_on_c, 0, 69, 0
8, 445920, Note_on_c, 0, 74, 92
8, 446159, Note_on_c, 0, 74, 0
8, 446160, Note_on_c, 0, 74, 97
8, 446376, Note_on_c, 0, 74, 0
8, 446400, Note_on_c, 0, 74, 94
8, 446580, Control_c, 0, 64, 0
8, 447516, Control_c, 0, 64, 127
8, 447599, Note_on_c, 0, 74, 0
8, 447600, Note_on_c, 0, 74, 101
8, 447839, Note_on_c, 0, 74, 0
8, 447840, Note_on_c, 0, 73, 96
8, 448079, Note_on_c, 0, 73, 0
8, 448080, Note_on_c, 0, 71, 92
8, 448296, Note_on_c, 0, 71, 0
8, 448320, Note_on_c, 0, 69, 88
8, 448476, Control_c, 0, 64, 0
8, 448559, Note_on_c, 0, 69, 0
8, 448560, Note_on_c, 0, 73, 94
8, 449039, Note_on_c, 0, 73, 0
8, 449040, Note_on_c, 0, 74, 102
8, 449099, Note_on_c, 0, 74, 0
8, 449100, Note_on_c, 0, 76, 99
8, 449159, Note_on_c, 0, 76, 0
8, 449160, Note_on_c, 0, 74, 96
8, 449219, Note_on_c, 0, 74, 0
8, 449220, Note_on_c, 0, 76, 93
8, 449232, Control_c, 0, 64, 127
8, 449519, Note_on_c, 0, 76, 0
8, 449520, Note_on_c, 0, 79, 92
8, 449759, Note_on_c, 0, 79, 0
8, 449760, Note_on_c, 0, 84, 96
8, 449999, Note_on_c, 0, 84, 0
8, 450000, Note_on_c, 0, 84, 100
8, 450192, Control_c, 0, 64, 0
8, 450216, Note_on_c, 0, 84, 0
8, 450240, Note_on_c, 0, 84, 104
8, 451200, Control_c, 0, 64, 127
8, 451439, Note_on_c, 0, 84, 0
8, 451440, Note_on_c, 0, 84, 108
8, 451679, Note_on_c, 0, 84, 0
8, 451680, Note_on_c, 0, 83, 102
8, 451919, Note_on_c, 0, 83, 0
8, 451920, Note_on_c, 0, 81, 95
8, 452136, Note_on_c, 0, 81, 0
8, 503040, Control_c, 0, 64, 127
8, 503040, Note_on_c, 0, 57, 79
8, 503094, Note_on_c, 0, 57, 0
8, 503280, Note_on_c, 0, 52, 92
8, 503280, Note_on_c, 0, 64, 92
8, 503745, Control_c, 0, 64, 0
8, 503759, Note_on_c, 0, 64, 0
8, 503759, Note_on_c, 0, 52, 0
8, 503760, Note_on_c, 0, 57, 66
8, 503760, Note_on_c, 0, 69, 66
8, 503814, Note_on_c, 0, 69, 0
8, 503814, Note_on_c, 0, 57, 0
8, 504000, Note_on_c, 0, 57, 76
8, 504108, Note_on_c, 0, 57, 0
8, 504240, Note_on_c, 0, 52, 90
8, 504240, Note_on_c, 0, 64, 90
8, 504456, Note_on_c, 0, 64, 0
8, 504456, Note_on_c, 0, 52, 0
8, 504720, Note_on_c, 0, 69, 88
8, 504720, Note_on_c, 0, 57, 88
8, 504828, Note_on_c, 0, 57, 0
8, 504828, Note_on_c, 0, 69, 0
8, 504828, End_track
9, 0, Start_track
9, 0, Title_t, "Track 8"
9, 0, Program_c, 0, 0
9, 0, Control_c, 0, 7, 115
9, 0, Control_c, 0, 10, 32
9, 32640, Note_on_c, 0, 43, 90
9, 32748, Note_on_c, 0, 43, 0
9, 32880, Note_on_c, 0, 41, 90
9, 32988, Note_on_c, 0, 41, 0
9, 33120, Note_on_c, 0, 45, 97
9, 33228, Note_on_c, 0, 45, 0
9, 33600, Note_on_c, 0, 41, 97
9, 33708, Note_on_c, 0, 41, 0
9, 33840, Note_on_c, 0, 38, 97
9, 33948, Note_on_c, 0, 38, 0
9, 34080, Note_on_c, 0, 45, 97
9, 34188, Note_on_c, 0, 45, 0
9, 34560, Note_on_c, 0, 50, 97
9, 34668, Note_on_c, 0, 50, 0
9, 34680, Note_on_c, 0, 48, 97
9, 34788, Note_on_c, 0, 48, 0
9, 34800, Note_on_c, 0, 46, 97
9, 34908, Note_on_c, 0, 46, 0
9, 34920, Note_on_c, 0, 45, 97
9, 35028, Note_on_c, 0, 45, 0
9, 35040, Note_on_c, 0, 46, 97
9, 35148, Note_on_c, 0, 46, 0
9, 35160, Note_on_c, 0, 50, 97
9, 35268, Note_on_c, 0, 50, 0
9, 35280, Note_on_c, 0, 48, 97
9, 35388, Note_on_c, 0, 48, 0
9, 35400, Note_on_c, 0, 45, 97
9, 35508, Note_on_c, 0, 45, 0
9, 35520, Note_on_c, 0, 43, 97
9, 35628, Note_on_c, 0, 43, 0
9, 35640, Note_on_c, 0, 46, 97
9, 35748, Note_on_c, 0, 46, 0
9, 35760, Note_on_c, 0, 45, 97
9, 35868, Note_on_c, 0, 45, 0
9, 35880, Note_on_c, 0, 41, 97
9, 35988, Note_on_c, 0, 41, 0
9, 36000, Note_on_c, 0, 39, 97
9, 36108, Note_on_c, 0, 39, 0
9, 36120, Note_on_c, 0, 43, 97
9, 36228, Note_on_c, 0, 43, 0
9, 36240, Note_on_c, 0, 38, 97
9, 36348, Note_on_c, 0, 38, 0
9, 36360, Note_on_c, 0, 43, 97
9, 36468, Note_on_c, 0, 43, 0
9, 36480, Note_on_c, 0, 37, 90
9, 36588, Note_on_c, 0, 37, 0
9, 36720, Note_on_c, 0, 33, 90
9, 36720, Note_on_c, 0, 45, 90
9, 36828, Note_on_c, 0, 45, 0
9, 36828, Note_on_c, 0, 33, 0
9, 36960, Note_on_c, 0, 34, 90
9, 36960, Note_on_c, 0, 46, 90
9, 37068, Note_on_c, 0, 46, 0
9, 37068, Note_on_c, 0, 34, 0
9, 37200, Note_on_c, 0, 31, 90
9, 37200, Note_on_c, 0, 43, 90
9, 37308, Note_on_c, 0, 43, 0
9, 37308, Note_on_c, 0, 31, 0
9, 37440, Note_on_c, 0, 33, 90
9, 37440, Note_on_c, 0, 45, 90
9, 37764, Note_on_c, 0, 45, 0
9, 37764, Note_on_c, 0, 33, 0
9, 37800, Note_on_c, 0, 33, 90
9, 37800, Note_on_c, 0, 45, 90
9, 37908, Note_on_c, 0, 45, 0
9, 37908, Note_on_c, 0, 33, 0
9, 37920, Note_on_c, 0, 33, 90
9, 37920, Note_on_c, 0, 45, 90
9, 38136, Note_on_c, 0, 45, 0
9, 38136, Note_on_c, 0, 33, 0
9, 38400, Note_on_c, 0, 33, 93
9, 38400, Note_on_c, 0, 45, 93
9, 38508, Note_on_c, 0, 45, 0
9, 38508, Note_on_c, 0, 33, 0
9, 38640, Note_on_c, 0, 29, 87
9, 38640, Note_on_c, 0, 41, 87
9, 38748, Note_on_c, 0, 41, 0
9, 38748, Note_on_c, 0, 29, 0
9, 38880, Note_on_c, 0, 31, 81
9, 38880, Note_on_c, 0, 43, 81
9, 38988, Note_on_c, 0, 43, 0
9, 38988, Note_on_c, 0, 31, 0
9, 39120, Note_on_c, 0, 28, 76
9, 39120, Note_on_c, 0, 40, 76
9, 39228, Note_on_c, 0, 40, 0
9, 39228, Note_on_c, 0, 28, 0
9, 39360, Note_on_c, 0, 29, 70
9, 39360, Note_on_c, 0, 41, 70
9, 39684, Note_on_c, 0, 41, 0
9, 39684, Note_on_c, 0, 29, 0
9, 39720, Note_on_c, 0, 29, 64
9, 39720, Note_on_c, 0, 41, 64
9, 39828, Note_on_c, 0, 41, 0
9, 39828, Note_on_c, 0, 29, 0
9, 39840, Note_on_c, 0, 31, 64
9, 39840, Note_on_c, 0, 43, 64
9, 40056, Note_on_c, 0, 43, 0
9, 40056, Note_on_c, 0, 31, 0
9, 40200, Note_on_c, 0, 43, 64
9, 40254, Note_on_c, 0, 43, 0
9, 40320, Note_on_c, 0, 33, 64
9, 40428, Note_on_c, 0, 33, 0
9, 41280, Note_on_c, 0, 48, 70
9, 41496, Note_on_c, 0, 48, 0
9, 42240, Note_on_c, 0, 48, 70
9, 42456, Note_on_c, 0, 48, 0
9, 44280, Note_on_c, 0, 36, 55
9, 44400, Note_on_c, 0, 48, 55
9, 44759, Note_on_c, 0, 48, 0
9, 44759, Note_on_c, 0, 36, 0
9, 44760, Note_on_c, 0, 36, 56
9, 44880, Note_on_c, 0, 48, 56
9, 45096, Note_on_c, 0, 48, 0
9, 45096, Note_on_c, 0, 36, 0
9, 45240, Note_on_c, 0, 36, 57
9, 45360, Note_on_c, 0, 48, 58
9, 45719, Note_on_c, 0, 48, 0
9, 45719, Note_on_c, 0, 36, 0
9, 45720, Note_on_c, 0, 36, 59
9, 45840, Note_on_c, 0, 48, 59
9, 46056, Note_on_c, 0, 48, 0
9, 46056, Note_on_c, 0, 36, 0
9, 46200, Note_on_c, 0, 36, 60
9, 46320, Note_on_c, 0, 48, 60
9, 46679, Note_on_c, 0, 48, 0
9, 46679, Note_on_c, 0, 36, 0
9, 46680, Note_on_c, 0, 48, 61
9, 46800, Note_on_c, 0, 60, 61
9, 47016, Note_on_c, 0, 60, 0
9, 47016, Note_on_c, 0, 48, 0
9, 47160, Note_on_c, 0, 48, 62
9, 47280, Note_on_c, 0, 60, 63
9, 47639, Note_on_c, 0, 60, 0
9, 47639, Note_on_c, 0, 48, 0
9, 47640, Note_on_c, 0, 48, 64
9, 47760, Note_on_c, 0, 60, 64
9, 47976, Note_on_c, 0, 60, 0
9, 47976, Note_on_c, 0, 48, 0
9, 48120, Note_on_c, 0, 48, 64
9, 48240, Note_on_c, 0, 60, 64
9, 48599, Note_on_c, 0, 60, 0
9, 48599, Note_on_c, 0, 48, 0
9, 48600, Note_on_c, 0, 36, 64
9, 48720, Note_on_c, 0, 48, 64
9, 48936, Note_on_c, 0, 48, 0
9, 48936, Note_on_c, 0, 36, 0
9, 49080, Note_on_c, 0, 36, 64
9, 49200, Note_on_c, 0, 48, 64
9, 49559, Note_on_c, 0, 48, 0
9, 49559, Note_on_c, 0, 36, 0
9, 49560, Note_on_c, 0, 36, 64
9, 49679, Note_on_c, 0, 36, 0
9, 49680, Note_on_c, 0, 36, 64
9, 49680, Note_on_c, 0, 48, 64
9, 49896, Note_on_c, 0, 48, 0
9, 49896, Note_on_c, 0, 36, 0
9, 50040, Note_on_c, 0, 36, 64
9, 50160, Note_on_c, 0, 48, 64
9, 50519, Note_on_c, 0, 48, 0
9, 50519, Note_on_c, 0, 36, 0
9, 50520, Note_on_c, 0, 48, 72
9, 50640, Note_on_c, 0, 60, 75
9, 50856, Note_on_c, 0, 60, 0
9, 50856, Note_on_c, 0, 48, 0
9, 51000, Note_on_c, 0, 48, 84
9, 51120, Note_on_c, 0, 60, 86
9, 51479, Note_on_c, 0, 60, 0
9, 51479, Note_on_c, 0, 48, 0
9, 51480, Note_on_c, 0, 48, 73
9, 51600, Note_on_c, 0, 60, 69
9, 51816, Note_on_c, 0, 60, 0
9, 51816, Note_on_c, 0, 48, 0
9, 51960, Note_on_c, 0, 48, 51
9, 52080, Note_on_c, 0, 60, 51
9, 52439, Note_on_c, 0, 60, 0
9, 52439, Note_on_c, 0, 48, 0
9, 52440, Note_on_c, 0, 36, 53
9, 52560, Note_on_c, 0, 48, 54
9, 52776, Note_on_c, 0, 48, 0
9, 52776, Note_on_c, 0, 36, 0
9, 52920, Note_on_c, 0, 36, 56
9, 53040, Note_on_c, 0, 48, 56
9, 53399, Note_on_c, 0, 48, 0
9, 53399, Note_on_c, 0, 36, 0
9, 53400, Note_on_c, 0, 36, 58
9, 53520, Note_on_c, 0, 48, 59
9, 53736, Note_on_c, 0, 48, 0
9, 53736, Note_on_c, 0, 36, 0
9, 53880, Note_on_c, 0, 36, 61
9, 54000, Note_on_c, 0, 48, 62
9, 54359, Note_on_c, 0, 48, 0
9, 54359, Note_on_c, 0, 36, 0
9, 54360, Note_on_c, 0, 48, 68
9, 54480, Note_on_c, 0, 60, 70
9, 54720, Note_on_c, 0, 60, 0
9, 54720, Note_on_c, 0, 48, 0
9, 54840, Note_on_c, 0, 47, 76
9, 54960, Note_on_c, 0, 59, 78
9, 55319, Note_on_c, 0, 59, 0
9, 55319, Note_on_c, 0, 47, 0
9, 55320, Note_on_c, 0, 44, 85
9, 55440, Note_on_c, 0, 56, 87
9, 55656, Note_on_c, 0, 56, 0
9, 55656, Note_on_c, 0, 44, 0
9, 55800, Note_on_c, 0, 42, 86
9, 55919, Note_on_c, 0, 42, 0
9, 55920, Note_on_c, 0, 42, 85
9, 55920, Note_on_c, 0, 54, 85
9, 56279, Note_on_c, 0, 54, 0
9, 56279, Note_on_c, 0, 42, 0
9, 56280, Note_on_c, 0, 42, 80
9, 56399, Note_on_c, 0, 42, 0
9, 56400, Note_on_c, 0, 42, 79
9, 56400, Note_on_c, 0, 54, 79
9, 56616, Note_on_c, 0, 54, 0
9, 56616, Note_on_c, 0, 42, 0
9, 56760, Note_on_c, 0, 41, 74
9, 56879, Note_on_c, 0, 41, 0
9, 56880, Note_on_c, 0, 41, 73
9, 56880, Note_on_c, 0, 53, 73
9, 57239, Note_on_c, 0, 53, 0
9, 57239, Note_on_c, 0, 41, 0
9, 57240, Note_on_c, 0, 41, 68
9, 57359, Note_on_c, 0, 41, 0
9, 57360, Note_on_c, 0, 41, 67
9, 57360, Note_on_c, 0, 53, 67
9, 57576, Note_on_c, 0, 53, 0
9, 57576, Note_on_c, 0, 41, 0
9, 57720, Note_on_c, 0, 40, 64
9, 57839, Note_on_c, 0, 40, 0
9, 57840, Note_on_c, 0, 40, 64
9, 57840, Note_on_c, 0, 52, 64
9, 58199, Note_on_c, 0, 52, 0
9, 58199, Note_on_c, 0, 40, 0
9, 58200, Note_on_c, 0, 40, 62
9, 58319, Note_on_c, 0, 40, 0
9, 58320, Note_on_c, 0, 40, 62
9, 58320, Note_on_c, 0, 52, 62
9, 58536, Note_on_c, 0, 52, 0
9, 58536, Note_on_c, 0, 40, 0
9, 58680, Note_on_c, 0, 28, 61
9, 58800, Note_on_c, 0, 40, 61
9, 59159, Note_on_c, 0, 40, 0
9, 59159, Note_on_c, 0, 28, 0
9, 59160, Note_on_c, 0, 28, 58
9, 59279, Note_on_c, 0, 28, 0
9, 59280, Note_on_c, 0, 28, 57
9, 59280, Note_on_c, 0, 40, 57
9, 59496, Note_on_c, 0, 40, 0
9, 59496, Note_on_c, 0, 28, 0
9, 59640, Note_on_c, 0, 29, 55
9, 59759, Note_on_c, 0, 29, 0
9, 59760, Note_on_c, 0, 29, 54
9, 59760, Note_on_c, 0, 41, 54
9, 60119, Note_on_c, 0, 41, 0
9, 60119, Note_on_c, 0, 29, 0
9, 60120, Note_on_c, 0, 30, 52
9, 60239, Note_on_c, 0, 30, 0
9, 60240, Note_on_c, 0, 30, 52
9, 60240, Note_on_c, 0, 42, 52
9, 60456, Note_on_c, 0, 42, 0
9, 60456, Note_on_c, 0, 30, 0
9, 60600, Note_on_c, 0, 32, 49
9, 60719, Note_on_c, 0, 32, 0
9, 60720, Note_on_c, 0, 32, 49
9, 60720, Note_on_c, 0, 44, 49
9, 61079, Note_on_c, 0, 44, 0
9, 61079, Note_on_c, 0, 32, 0
9, 61080, Note_on_c, 0, 34, 46
9, 61199, Note_on_c, 0, 34, 0
9, 61200, Note_on_c, 0, 34, 46
9, 61200, Note_on_c, 0, 46, 46
9, 61416, Note_on_c, 0, 46, 0
9, 61416, Note_on_c, 0, 34, 0
9, 61560, Note_on_c, 0, 32, 50
9, 61679, Note_on_c, 0, 32, 0
9, 61680, Note_on_c, 0, 32, 50
9, 61680, Note_on_c, 0, 44, 50
9, 62039, Note_on_c, 0, 44, 0
9, 62039, Note_on_c, 0, 32, 0
9, 62040, Note_on_c, 0, 32, 46
9, 62159, Note_on_c, 0, 32, 0
9, 62160, Note_on_c, 0, 32, 46
9, 62160, Note_on_c, 0, 44, 46
9, 62376, Note_on_c, 0, 44, 0
9, 62376, Note_on_c, 0, 32, 0
9, 62520, Note_on_c, 0, 36, 49
9, 62639, Note_on_c, 0, 36, 0
9, 62640, Note_on_c, 0, 36, 50
9, 62640, Note_on_c, 0, 48, 50
9, 62999, Note_on_c, 0, 48, 0
9, 62999, Note_on_c, 0, 36, 0
9, 63000, Note_on_c, 0, 24, 42
9, 63119, Note_on_c, 0, 24, 0
9, 63120, Note_on_c, 0, 24, 53
9, 63120, Note_on_c, 0, 36, 53
9, 63336, Note_on_c, 0, 36, 0
9, 63336, Note_on_c, 0, 24, 0
9, 63360, Control_c, 0, 64, 127
9, 63360, Note_on_c, 0, 29, 69
9, 63360, Note_on_c, 0, 41, 69
9, 63839, Note_on_c, 0, 41, 0
9, 63839, Note_on_c, 0, 29, 0
9, 63840, Note_on_c, 0, 41, 65
9, 64056, Note_on_c, 0, 41, 0
9, 64320, Note_on_c, 0, 52, 68
9, 64320, Note_on_c, 0, 40, 68
9, 64799, Note_on_c, 0, 40, 0
9, 64799, Note_on_c, 0, 52, 0
9, 64800, Note_on_c, 0, 40, 70
9, 65016, Note_on_c, 0, 40, 0
9, 65280, Note_on_c, 0, 38, 73
9, 65759, Note_on_c, 0, 38, 0
9, 65760, Note_on_c, 0, 31, 76
9, 65760, Note_on_c, 0, 43, 76
9, 66192, Note_on_c, 0, 43, 0
9, 66192, Note_on_c, 0, 31, 0
9, 66240, Note_on_c, 0, 36, 79
9, 66719, Note_on_c, 0, 36, 0
9, 66720, Note_on_c, 0, 48, 79
9, 66936, Note_on_c, 0, 48, 0
9, 67200, Note_on_c, 0, 38, 82
9, 67679, Note_on_c, 0, 38, 0
9, 67680, Note_on_c, 0, 36, 67
9, 67680, Note_on_c, 0, 48, 67
9, 68112, Note_on_c, 0, 48, 0
9, 68112, Note_on_c, 0, 36, 0
9, 68160, Note_on_c, 0, 35, 68
9, 68160, Note_on_c, 0, 47, 68
9, 68639, Note_on_c, 0, 47, 0
9, 68639, Note_on_c, 0, 35, 0
9, 68640, Note_on_c, 0, 33, 70
9, 68640, Note_on_c, 0, 45, 70
9, 69072, Note_on_c, 0, 45, 0
9, 69072, Note_on_c, 0, 33, 0
9, 69120, Note_on_c, 0, 31, 72
9, 69120, Note_on_c, 0, 43, 72
9, 69599, Note_on_c, 0, 43, 0
9, 69599, Note_on_c, 0, 31, 0
9, 69600, Note_on_c, 0, 29, 74
9, 69600, Note_on_c, 0, 41, 74
9, 70032, Note_on_c, 0, 41, 0
9, 70032, Note_on_c, 0, 29, 0
9, 70080, Note_on_c, 0, 28, 76
9, 70080, Note_on_c, 0, 40, 76
9, 70559, Note_on_c, 0, 40, 0
9, 70559, Note_on_c, 0, 28, 0
9, 70560, Note_on_c, 0, 40, 72
9, 70776, Note_on_c, 0, 40, 0
9, 71040, Note_on_c, 0, 41, 70
9, 71519, Note_on_c, 0, 41, 0
9, 71520, Note_on_c, 0, 43, 68
9, 71736, Note_on_c, 0, 43, 0
9, 72000, Note_on_c, 0, 44, 67
9, 72479, Note_on_c, 0, 44, 0
9, 72480, Note_on_c, 0, 46, 65
9, 72696, Note_on_c, 0, 46, 0
9, 72960, Note_on_c, 0, 45, 64
9, 73439, Note_on_c, 0, 45, 0
9, 73440, Note_on_c, 0, 46, 62
9, 73656, Note_on_c, 0, 46, 0
9, 73920, Note_on_c, 0, 48, 60
9, 74399, Note_on_c, 0, 48, 0
9, 74400, Note_on_c, 0, 36, 59
9, 74616, Note_on_c, 0, 36, 0
9, 74880, Note_on_c, 0, 48, 72
9, 75359, Note_on_c, 0, 48, 0
9, 75360, Note_on_c, 0, 36, 98
9, 75360, Note_on_c, 0, 48, 98
9, 75576, Note_on_c, 0, 48, 0
9, 75576, Note_on_c, 0, 36, 0
9, 75840, Note_on_c, 0, 34, 59
9, 75840, Note_on_c, 0, 46, 59
9, 76319, Note_on_c, 0, 46, 0
9, 76319, Note_on_c, 0, 34, 0
9, 76320, Note_on_c, 0, 31, 64
9, 76320, Note_on_c, 0, 43, 64
9, 76536, Note_on_c, 0, 43, 0
9, 76536, Note_on_c, 0, 31, 0
9, 76800, Note_on_c, 0, 40, 85
9, 77279, Note_on_c, 0, 40, 0
9, 77280, Note_on_c, 0, 38, 91
9, 77280, Note_on_c, 0, 50, 91
9, 77496, Note_on_c, 0, 50, 0
9, 77496, Note_on_c, 0, 38, 0
9, 77760, Note_on_c, 0, 36, 64
9, 77760, Note_on_c, 0, 48, 64
9, 78239, Note_on_c, 0, 48, 0
9, 78239, Note_on_c, 0, 36, 0
9, 78240, Note_on_c, 0, 33, 63
9, 78240, Note_on_c, 0, 45, 63
9, 78672, Note_on_c, 0, 45, 0
9, 78672, Note_on_c, 0, 33, 0
9, 78720, Note_on_c, 0, 34, 62
9, 78720, Note_on_c, 0, 46, 62
9, 79199, Note_on_c, 0, 46, 0
9, 79199, Note_on_c, 0, 34, 0
9, 79200, Note_on_c, 0, 43, 70
9, 79632, Note_on_c, 0, 43, 0
9, 79680, Note_on_c, 0, 44, 85
9, 80159, Note_on_c, 0, 44, 0
9, 80160, Note_on_c, 0, 40, 88
9, 80592, Note_on_c, 0, 40, 0
9, 80640, Note_on_c, 0, 41, 90
9, 81119, Note_on_c, 0, 41, 0
9, 81120, Note_on_c, 0, 38, 91
9, 81552, Note_on_c, 0, 38, 0
9, 81600, Note_on_c, 0, 36, 89
9, 82464, Note_on_c, 0, 36, 0
9, 82560, Note_on_c, 0, 48, 67
9, 83039, Note_on_c, 0, 48, 0
9, 83040, Note_on_c, 0, 34, 64
9, 83472, Note_on_c, 0, 34, 0
9, 83520, Note_on_c, 0, 33, 93
9, 83759, Note_on_c, 0, 33, 0
9, 83760, Note_on_c, 0, 41, 95
9, 84239, Note_on_c, 0, 41, 0
9, 84240, Note_on_c, 0, 42, 84
9, 84456, Note_on_c, 0, 42, 0
9, 84480, Note_on_c, 0, 43, 88
9, 84959, Note_on_c, 0, 43, 0
9, 84960, Note_on_c, 0, 36, 96
9, 85392, Note_on_c, 0, 36, 0
9, 85440, Note_on_c, 0, 35, 64
9, 85679, Note_on_c, 0, 35, 0
9, 85680, Note_on_c, 0, 43, 67
9, 86159, Note_on_c, 0, 43, 0
9, 86160, Note_on_c, 0, 44, 81
9, 86376, Note_on_c, 0, 44, 0
9, 86400, Control_c, 0, 64, 0
9, 86400, Note_on_c, 0, 45, 91
9, 86592, Control_c, 0, 64, 127
9, 86639, Note_on_c, 0, 45, 0
9, 86640, Note_on_c, 0, 41, 101
9, 87119, Note_on_c, 0, 41, 0
9, 87120, Note_on_c, 0, 41, 85
9, 87336, Note_on_c, 0, 41, 0
9, 87360, Note_on_c, 0, 53, 86
9, 87599, Note_on_c, 0, 53, 0
9, 87600, Note_on_c, 0, 41, 88
9, 88079, Note_on_c, 0, 41, 0
9, 88080, Note_on_c, 0, 41, 90
9, 88296, Note_on_c, 0, 41, 0
9, 88320, Note_on_c, 0, 53, 92
9, 88559, Note_on_c, 0, 53, 0
9, 88560, Note_on_c, 0, 41, 93
9, 88799, Note_on_c, 0, 41, 0
9, 88800, Note_on_c, 0, 53, 94
9, 89039, Note_on_c, 0, 53, 0
9, 89040, Note_on_c, 0, 41, 94
9, 89256, Note_on_c, 0, 41, 0
9, 89280, Note_on_c, 0, 53, 94
9, 89519, Note_on_c, 0, 53, 0
9, 89520, Note_on_c, 0, 41, 94
9, 89759, Note_on_c, 0, 41, 0
9, 89760, Note_on_c, 0, 40, 94
9, 89999, Note_on_c, 0, 40, 0
9, 90000, Note_on_c, 0, 40, 94
9, 90216, Note_on_c, 0, 40, 0
9, 90240, Note_on_c, 0, 38, 95
9, 90479, Note_on_c, 0, 38, 0
9, 90480, Note_on_c, 0, 38, 95
9, 90959, Note_on_c, 0, 38, 0
9, 90960, Note_on_c, 0, 38, 95
9, 91176, Note_on_c, 0, 38, 0
9, 91200, Note_on_c, 0, 36, 95
9, 91439, Note_on_c, 0, 36, 0
9, 91440, Note_on_c, 0, 36, 95
9, 91919, Note_on_c, 0, 36, 0
9, 91920, Note_on_c, 0, 36, 96
9, 92136, Note_on_c, 0, 36, 0
9, 92160, Note_on_c, 0, 48, 96
9, 92160, Note_on_c, 0, 36, 96
9, 93000, Control_c, 0, 64, 0
9, 93024, Note_on_c, 0, 36, 0
9, 93024, Note_on_c, 0, 48, 0
9, 93600, Note_on_c, 0, 48, 83
9, 93708, Note_on_c, 0, 48, 0
9, 93720, Note_on_c, 0, 46, 81
9, 93828, Note_on_c, 0, 46, 0
9, 93840, Note_on_c, 0, 43, 78
9, 93948, Note_on_c, 0, 43, 0
9, 93960, Note_on_c, 0, 40, 76
9, 94068, Note_on_c, 0, 40, 0
9, 94080, Note_on_c, 0, 36, 58
9, 94319, Note_on_c, 0, 36, 0
9, 94320, Note_on_c, 0, 36, 44
9, 94799, Note_on_c, 0, 36, 0
9, 94800, Note_on_c, 0, 36, 42
9, 95279, Note_on_c, 0, 36, 0
9, 95280, Note_on_c, 0, 36, 40
9, 95759, Note_on_c, 0, 36, 0
9, 95760, Note_on_c, 0, 36, 38
9, 96239, Note_on_c, 0, 36, 0
9, 96240, Note_on_c, 0, 36, 36
9, 96719, Note_on_c, 0, 36, 0
9, 96720, Note_on_c, 0, 36, 33
9, 97199, Note_on_c, 0, 36, 0
9, 97200, Note_on_c, 0, 36, 52
9, 97679, Note_on_c, 0, 36, 0
9, 97680, Note_on_c, 0, 36, 52
9, 98159, Note_on_c, 0, 36, 0
9, 98160, Note_on_c, 0, 36, 57
9, 98639, Note_on_c, 0, 36, 0
9, 98640, Note_on_c, 0, 36, 62
9, 99119, Note_on_c, 0, 36, 0
9, 99120, Note_on_c, 0, 36, 67
9, 99599, Note_on_c, 0, 36, 0
9, 99600, Note_on_c, 0, 36, 72
9, 100079, Note_on_c, 0, 36, 0
9, 100080, Note_on_c, 0, 36, 72
9, 100559, Note_on_c, 0, 36, 0
9, 100560, Note_on_c, 0, 36, 69
9, 101039, Note_on_c, 0, 36, 0
9, 101040, Note_on_c, 0, 36, 65
9, 101519, Note_on_c, 0, 36, 0
9, 101520, Note_on_c, 0, 36, 70
9, 101999, Note_on_c, 0, 36, 0
9, 102000, Note_on_c, 0, 36, 68
9, 102479, Note_on_c, 0, 36, 0
9, 102480, Note_on_c, 0, 36, 66
9, 102696, Note_on_c, 0, 36, 0
9, 102720, Note_on_c, 0, 36, 64
9, 102959, Note_on_c, 0, 36, 0
9, 102960, Note_on_c, 0, 36, 64
9, 103439, Note_on_c, 0, 36, 0
9, 103440, Note_on_c, 0, 36, 61
9, 103919, Note_on_c, 0, 36, 0
9, 103920, Note_on_c, 0, 36, 59
9, 104159, Note_on_c, 0, 36, 0
9, 104160, Note_on_c, 0, 36, 58
9, 104399, Note_on_c, 0, 36, 0
9, 104400, Note_on_c, 0, 36, 56
9, 104879, Note_on_c, 0, 36, 0
9, 104880, Note_on_c, 0, 36, 55
9, 105359, Note_on_c, 0, 36, 0
9, 105360, Note_on_c, 0, 36, 52
9, 105839, Note_on_c, 0, 36, 0
9, 105840, Note_on_c, 0, 36, 50
9, 106319, Note_on_c, 0, 36, 0
9, 106320, Note_on_c, 0, 36, 48
9, 106799, Note_on_c, 0, 36, 0
9, 106800, Note_on_c, 0, 36, 45
9, 107279, Note_on_c, 0, 36, 0
9, 107280, Note_on_c, 0, 36, 44
9, 107759, Note_on_c, 0, 36, 0
9, 107760, Note_on_c, 0, 36, 41
9, 108239, Note_on_c, 0, 36, 0
9, 108240, Note_on_c, 0, 36, 39
9, 108719, Note_on_c, 0, 36, 0
9, 108720, Note_on_c, 0, 36, 36
9, 109199, Note_on_c, 0, 36, 0
9, 109200, Note_on_c, 0, 36, 34
9, 109416, Note_on_c, 0, 36, 0
9, 109680, Note_on_c, 0, 36, 51
9, 109740, Note_on_c, 0, 36, 0
9, 110160, Note_on_c, 0, 36, 51
9, 110214, Note_on_c, 0, 36, 0
9, 110640, Note_on_c, 0, 36, 51
9, 110700, Note_on_c, 0, 36, 0
9, 111120, Note_on_c, 0, 36, 51
9, 111174, Note_on_c, 0, 36, 0
9, 111600, Note_on_c, 0, 34, 51
9, 111660, Note_on_c, 0, 34, 0
9, 112080, Note_on_c, 0, 34, 51
9, 112134, Note_on_c, 0, 34, 0
9, 112560, Note_on_c, 0, 33, 51
9, 112679, Note_on_c, 0, 33, 0
9, 113040, Note_on_c, 0, 33, 51
9, 113094, Note_on_c, 0, 33, 0
9, 113280, Note_on_c, 0, 31, 44
9, 113304, Control_c, 0, 64, 127
9, 113359, Note_on_c, 0, 31, 0
9, 113360, Note_on_c, 0, 43, 44
9, 113439, Note_on_c, 0, 43, 0
9, 113440, Note_on_c, 0, 31, 45
9, 113519, Note_on_c, 0, 31, 0
9, 113520, Note_on_c, 0, 43, 46
9, 113599, Note_on_c, 0, 43, 0
9, 113600, Note_on_c, 0, 31, 46
9, 113679, Note_on_c, 0, 31, 0
9, 113680, Note_on_c, 0, 43, 47
9, 113759, Note_on_c, 0, 43, 0
9, 113760, Note_on_c, 0, 31, 48
9, 113839, Note_on_c, 0, 31, 0
9, 113840, Note_on_c, 0, 43, 48
9, 113919, Note_on_c, 0, 43, 0
9, 113920, Note_on_c, 0, 31, 48
9, 113999, Note_on_c, 0, 31, 0
9, 114000, Note_on_c, 0, 43, 49
9, 114079, Note_on_c, 0, 43, 0
9, 114080, Note_on_c, 0, 31, 49
9, 114159, Note_on_c, 0, 31, 0
9, 114160, Note_on_c, 0, 43, 50
9, 114232, Note_on_c, 0, 43, 0
9, 114240, Note_on_c, 0, 30, 42
9, 114319, Note_on_c, 0, 30, 0
9, 114320, Note_on_c, 0, 42, 44
9, 114399, Note_on_c, 0, 42, 0
9, 114400, Note_on_c, 0, 30, 45
9, 114479, Note_on_c, 0, 30, 0
9, 114480, Note_on_c, 0, 42, 47
9, 114559, Note_on_c, 0, 42, 0
9, 114560, Note_on_c, 0, 30, 48
9, 114639, Note_on_c, 0, 30, 0
9, 114640, Note_on_c, 0, 42, 49
9, 114719, Note_on_c, 0, 42, 0
9, 114720, Note_on_c, 0, 30, 51
9, 114799, Note_on_c, 0, 30, 0
9, 114800, Note_on_c, 0, 42, 52
9, 114879, Note_on_c, 0, 42, 0
9, 114880, Note_on_c, 0, 30, 54
9, 114959, Note_on_c, 0, 30, 0
9, 114960, Note_on_c, 0, 42, 55
9, 115039, Note_on_c, 0, 42, 0
9, 115040, Note_on_c, 0, 30, 57
9, 115119, Note_on_c, 0, 30, 0
9, 115120, Note_on_c, 0, 42, 58
9, 115192, Note_on_c, 0, 42, 0
9, 115200, Note_on_c, 0, 29, 60
9, 115279, Note_on_c, 0, 29, 0
9, 115280, Note_on_c, 0, 41, 61
9, 115359, Note_on_c, 0, 41, 0
9, 115360, Note_on_c, 0, 29, 62
9, 115439, Note_on_c, 0, 29, 0
9, 115440, Note_on_c, 0, 41, 64
9, 115519, Note_on_c, 0, 41, 0
9, 115520, Note_on_c, 0, 29, 65
9, 115599, Note_on_c, 0, 29, 0
9, 115600, Note_on_c, 0, 41, 67
9, 115679, Note_on_c, 0, 41, 0
9, 115680, Note_on_c, 0, 29, 68
9, 115759, Note_on_c, 0, 29, 0
9, 115760, Note_on_c, 0, 41, 70
9, 115839, Note_on_c, 0, 41, 0
9, 115840, Note_on_c, 0, 29, 71
9, 115919, Note_on_c, 0, 29, 0
9, 115920, Note_on_c, 0, 41, 73
9, 115999, Note_on_c, 0, 41, 0
9, 116000, Note_on_c, 0, 29, 74
9, 116079, Note_on_c, 0, 29, 0
9, 116080, Note_on_c, 0, 41, 75
9, 116152, Note_on_c, 0, 41, 0
9, 116160, Note_on_c, 0, 28, 77
9, 116239, Note_on_c, 0, 28, 0
9, 116240, Note_on_c, 0, 40, 78
9, 116319, Note_on_c, 0, 40, 0
9, 116320, Note_on_c, 0, 28, 80
9, 116399, Note_on_c, 0, 28, 0
9, 116400, Note_on_c, 0, 40, 81
9, 116479, Note_on_c, 0, 40, 0
9, 116480, Note_on_c, 0, 28, 83
9, 116559, Note_on_c, 0, 28, 0
9, 116560, Note_on_c, 0, 40, 84
9, 116639, Note_on_c, 0, 40, 0
9, 116640, Note_on_c, 0, 28, 86
9, 116719, Note_on_c, 0, 28, 0
9, 116720, Note_on_c, 0, 40, 87
9, 116799, Note_on_c, 0, 40, 0
9, 116800, Note_on_c, 0, 28, 88
9, 116879, Note_on_c, 0, 28, 0
9, 116880, Note_on_c, 0, 40, 90
9, 116959, Note_on_c, 0, 40, 0
9, 116960, Note_on_c, 0, 28, 90
9, 117039, Note_on_c, 0, 28, 0
9, 117040, Note_on_c, 0, 40, 90
9, 117112, Note_on_c, 0, 40, 0
9, 117120, Note_on_c, 0, 39, 90
9, 117120, Note_on_c, 0, 27, 90
9, 117599, Note_on_c, 0, 27, 0
9, 117599, Note_on_c, 0, 39, 0
9, 117600, Note_on_c, 0, 39, 90
9, 117600, Note_on_c, 0, 51, 90
9, 118032, Note_on_c, 0, 51, 0
9, 118032, Note_on_c, 0, 39, 0
9, 118080, Note_on_c, 0, 40, 91
9, 118319, Note_on_c, 0, 40, 0
9, 118560, Note_on_c, 0, 28, 91
9, 118560, Note_on_c, 0, 40, 91
9, 118776, Note_on_c, 0, 40, 0
9, 118776, Note_on_c, 0, 28, 0
9, 119040, Note_on_c, 0, 33, 91
9, 119159, Note_on_c, 0, 33, 0
9, 119280, Note_on_c, 0, 38, 105
9, 119759, Note_on_c, 0, 38, 0
9, 119760, Note_on_c, 0, 41, 95
9, 119770, Control_c, 0, 64, 0
9, 119868, Note_on_c, 0, 41, 0
9, 120000, Note_on_c, 0, 45, 95
9, 120000, Note_on_c, 0, 33, 95
9, 120119, Note_on_c, 0, 33, 0
9, 120119, Note_on_c, 0, 45, 0
9, 120240, Note_on_c, 0, 50, 105
9, 120240, Note_on_c, 0, 38, 105
9, 120719, Note_on_c, 0, 38, 0
9, 120719, Note_on_c, 0, 50, 0
9, 120720, Note_on_c, 0, 41, 95
9, 120720, Note_on_c, 0, 53, 95
9, 120828, Note_on_c, 0, 53, 0
9, 120828, Note_on_c, 0, 41, 0
9, 120960, Note_on_c, 0, 45, 95
9, 121199, Note_on_c, 0, 45, 0
9, 121440, Note_on_c, 0, 38, 96
9, 121519, Note_on_c, 0, 38, 0
9, 121520, Note_on_c, 0, 45, 95
9, 121599, Note_on_c, 0, 45, 0
9, 121600, Note_on_c, 0, 50, 94
9, 121672, Note_on_c, 0, 50, 0
9, 121920, Control_c, 0, 64, 127
9, 121920, Note_on_c, 0, 33, 94
9, 121999, Note_on_c, 0, 33, 0
9, 122000, Note_on_c, 0, 40, 92
9, 122079, Note_on_c, 0, 40, 0
9, 122080, Note_on_c, 0, 45, 90
9, 122239, Note_on_c, 0, 45, 0
9, 122240, Note_on_c, 0, 33, 86
9, 122319, Note_on_c, 0, 33, 0
9, 122320, Note_on_c, 0, 32, 84
9, 122399, Note_on_c, 0, 32, 0
9, 122400, Note_on_c, 0, 33, 82
9, 122479, Note_on_c, 0, 33, 0
9, 122480, Note_on_c, 0, 32, 80
9, 122559, Note_on_c, 0, 32, 0
9, 122560, Note_on_c, 0, 33, 78
9, 122639, Note_on_c, 0, 33, 0
9, 122640, Note_on_c, 0, 32, 76
9, 122719, Note_on_c, 0, 32, 0
9, 122720, Note_on_c, 0, 33, 74
9, 122799, Note_on_c, 0, 33, 0
9, 122800, Note_on_c, 0, 32, 72
9, 122872, Note_on_c, 0, 32, 0
9, 122880, Note_on_c, 0, 33, 91
9, 123744, Note_on_c, 0, 33, 0
9, 123840, Note_on_c, 0, 35, 51
9, 124704, Note_on_c, 0, 35, 0
9, 124800, Note_on_c, 0, 37, 51
9, 125664, Note_on_c, 0, 37, 0
9, 125760, Note_on_c, 0, 38, 51
9, 126624, Note_on_c, 0, 38, 0
9, 126720, Note_on_c, 0, 33, 51
9, 127080, Control_c, 0, 64, 0
9, 127152, Note_on_c, 0, 33, 0
9, 264000, Control_c, 0, 64, 127
9, 264000, Note_on_c, 0, 29, 71
9, 264000, Note_on_c, 0, 41, 71
9, 267744, Note_on_c, 0, 41, 0
9, 267744, Note_on_c, 0, 29, 0
9, 267840, Note_on_c, 0, 29, 72
9, 267840, Note_on_c, 0, 41, 72
9, 271584, Note_on_c, 0, 41, 0
9, 271584, Note_on_c, 0, 29, 0
9, 271605, Control_c, 0, 64, 0
9, 271680, Note_on_c, 0, 29, 51
9, 271680, Control_c, 0, 64, 127
9, 271799, Note_on_c, 0, 29, 0
9, 271800, Note_on_c, 0, 41, 53
9, 271919, Note_on_c, 0, 41, 0
9, 271920, Note_on_c, 0, 29, 56
9, 272039, Note_on_c, 0, 29, 0
9, 272040, Note_on_c, 0, 41, 60
9, 272159, Note_on_c, 0, 41, 0
9, 272160, Note_on_c, 0, 45, 62
9, 272279, Note_on_c, 0, 45, 0
9, 272280, Note_on_c, 0, 41, 65
9, 272399, Note_on_c, 0, 41, 0
9, 272400, Note_on_c, 0, 45, 68
9, 272519, Note_on_c, 0, 45, 0
9, 272520, Note_on_c, 0, 41, 72
9, 272628, Note_on_c, 0, 41, 0
9, 272640, Note_on_c, 0, 48, 72
9, 272759, Note_on_c, 0, 48, 0
9, 272760, Note_on_c, 0, 42, 70
9, 272879, Note_on_c, 0, 42, 0
9, 272880, Note_on_c, 0, 48, 68
9, 272999, Note_on_c, 0, 48, 0
9, 273000, Note_on_c, 0, 42, 65
9, 273119, Note_on_c, 0, 42, 0
9, 273120, Note_on_c, 0, 54, 64
9, 273239, Note_on_c, 0, 54, 0
9, 273240, Note_on_c, 0, 42, 61
9, 273359, Note_on_c, 0, 42, 0
9, 273360, Note_on_c, 0, 54, 59
9, 273479, Note_on_c, 0, 54, 0
9, 273480, Note_on_c, 0, 42, 56
9, 273588, Note_on_c, 0, 42, 0
9, 273600, Note_on_c, 0, 31, 81
9, 273708, Note_on_c, 0, 31, 0
9, 273720, Note_on_c, 0, 43, 81
9, 273828, Note_on_c, 0, 43, 0
9, 273840, Note_on_c, 0, 31, 82
9, 273948, Note_on_c, 0, 31, 0
9, 273960, Note_on_c, 0, 43, 83
9, 274068, Note_on_c, 0, 43, 0
9, 274080, Note_on_c, 0, 46, 85
9, 274188, Note_on_c, 0, 46, 0
9, 274200, Note_on_c, 0, 43, 86
9, 274308, Note_on_c, 0, 43, 0
9, 274320, Note_on_c, 0, 46, 87
9, 274428, Note_on_c, 0, 46, 0
9, 274440, Note_on_c, 0, 43, 88
9, 274548, Note_on_c, 0, 43, 0
9, 274560, Note_on_c, 0, 50, 90
9, 274668, Note_on_c, 0, 50, 0
9, 274680, Note_on_c, 0, 44, 90
9, 274788, Note_on_c, 0, 44, 0
9, 274800, Note_on_c, 0, 50, 90
9, 274908, Note_on_c, 0, 50, 0
9, 274920, Note_on_c, 0, 44, 90
9, 275028, Note_on_c, 0, 44, 0
9, 275040, Note_on_c, 0, 56, 90
9, 275148, Note_on_c, 0, 56, 0
9, 275160, Note_on_c, 0, 44, 90
9, 275268, Note_on_c, 0, 44, 0
9, 275280, Note_on_c, 0, 56, 90
9, 275388, Note_on_c, 0, 56, 0
9, 275400, Note_on_c, 0, 44, 90
9, 275508, Note_on_c, 0, 44, 0
9, 275520, Note_on_c, 0, 33, 90
9, 275520, Note_on_c, 0, 45, 90
9, 275550, Control_c, 0, 64, 0
9, 275952, Note_on_c, 0, 45, 0
9, 275952, Note_on_c, 0, 33, 0
9, 288000, Note_on_c, 0, 45, 100
9, 288054, Note_on_c, 0, 45, 0
9, 288240, Note_on_c, 0, 38, 100
9, 288294, Note_on_c, 0, 38, 0
9, 288480, Note_on_c, 0, 33, 100
9, 288534, Note_on_c, 0, 33, 0
9, 288720, Note_on_c, 0, 45, 100
9, 288774, Note_on_c, 0, 45, 0
9, 288960, Note_on_c, 0, 54, 100
9, 288960, Note_on_c, 0, 50, 100
9, 289014, Note_on_c, 0, 50, 0
9, 289014, Note_on_c, 0, 54, 0
9, 289200, Note_on_c, 0, 51, 100
9, 289200, Note_on_c, 0, 48, 100
9, 289254, Note_on_c, 0, 48, 0
9, 289254, Note_on_c, 0, 51, 0
9, 289440, Note_on_c, 0, 50, 100
9, 289440, Note_on_c, 0, 46, 100
9, 289494, Note_on_c, 0, 46, 0
9, 289494, Note_on_c, 0, 50, 0
9, 289680, Note_on_c, 0, 48, 100
9, 289680, Note_on_c, 0, 45, 100
9, 289734, Note_on_c, 0, 45, 0
9, 289734, Note_on_c, 0, 48, 0
9, 289920, Note_on_c, 0, 46, 100
9, 289920, Note_on_c, 0, 43, 100
9, 289974, Note_on_c, 0, 43, 0
9, 289974, Note_on_c, 0, 46, 0
9, 290160, Note_on_c, 0, 45, 100
9, 290160, Note_on_c, 0, 41, 100
9, 290214, Note_on_c, 0, 41, 0
9, 290214, Note_on_c, 0, 45, 0
9, 290400, Note_on_c, 0, 39, 100
9, 290400, Note_on_c, 0, 43, 100
9, 290454, Note_on_c, 0, 43, 0
9, 290454, Note_on_c, 0, 39, 0
9, 290640, Note_on_c, 0, 38, 100
9, 290640, Note_on_c, 0, 43, 100
9, 290694, Note_on_c, 0, 43, 0
9, 290694, Note_on_c, 0, 38, 0
9, 290880, Note_on_c, 0, 37, 80
9, 290880, Note_on_c, 0, 45, 80
9, 290934, Note_on_c, 0, 45, 0
9, 290934, Note_on_c, 0, 37, 0
9, 291120, Note_on_c, 0, 33, 80
9, 291174, Note_on_c, 0, 33, 0
9, 291360, Note_on_c, 0, 38, 80
9, 291414, Note_on_c, 0, 38, 0
9, 291600, Note_on_c, 0, 41, 80
9, 291654, Note_on_c, 0, 41, 0
9, 291840, Note_on_c, 0, 40, 80
9, 291894, Note_on_c, 0, 40, 0
9, 292080, Note_on_c, 0, 28, 80
9, 292134, Note_on_c, 0, 28, 0
9, 292320, Note_on_c, 0, 33, 80
9, 292374, Note_on_c, 0, 33, 0
9, 313920, Note_on_c, 0, 40, 72
9, 313974, Note_on_c, 0, 40, 0
9, 314160, Note_on_c, 0, 28, 72
9, 314160, Note_on_c, 0, 40, 72
9, 314214, Note_on_c, 0, 40, 0
9, 314214, Note_on_c, 0, 28, 0
9, 314400, Note_on_c, 0, 33, 72
9, 314400, Note_on_c, 0, 45, 72
9, 314454, Note_on_c, 0, 45, 0
9, 314454, Note_on_c, 0, 33, 0
9, 314640, Note_on_c, 0, 36, 81
9, 314694, Note_on_c, 0, 36, 0
9, 314880, Note_on_c, 0, 40, 72
9, 314934, Note_on_c, 0, 40, 0
9, 315120, Note_on_c, 0, 40, 72
9, 315120, Note_on_c, 0, 28, 72
9, 315174, Note_on_c, 0, 28, 0
9, 315174, Note_on_c, 0, 40, 0
9, 315360, Note_on_c, 0, 45, 72
9, 315360, Note_on_c, 0, 33, 72
9, 315414, Note_on_c, 0, 33, 0
9, 315414, Note_on_c, 0, 45, 0
9, 315600, Note_on_c, 0, 36, 72
9, 315654, Note_on_c, 0, 36, 0
9, 315840, Note_on_c, 0, 40, 72
9, 315894, Note_on_c, 0, 40, 0
9, 316080, Note_on_c, 0, 40, 72
9, 316080, Note_on_c, 0, 28, 72
9, 316134, Note_on_c, 0, 28, 0
9, 316134, Note_on_c, 0, 40, 0
9, 316320, Note_on_c, 0, 45, 72
9, 316320, Note_on_c, 0, 33, 72
9, 316374, Note_on_c, 0, 33, 0
9, 316374, Note_on_c, 0, 45, 0
9, 316560, Note_on_c, 0, 45, 72
9, 316614, Note_on_c, 0, 45, 0
9, 316800, Note_on_c, 0, 48, 72
9, 316854, Note_on_c, 0, 48, 0
9, 317040, Note_on_c, 0, 36, 72
9, 317094, Note_on_c, 0, 36, 0
9, 317280, Note_on_c, 0, 41, 72
9, 317388, Note_on_c, 0, 41, 0
9, 317520, Note_on_c, 0, 29, 72
9, 317520, Note_on_c, 0, 41, 72
9, 317628, Note_on_c, 0, 41, 0
9, 317628, Note_on_c, 0, 29, 0
9, 317760, Note_on_c, 0, 48, 72
9, 317760, Note_on_c, 0, 36, 72
9, 317868, Note_on_c, 0, 36, 0
9, 317868, Note_on_c, 0, 48, 0
9, 318000, Note_on_c, 0, 36, 72
9, 318000, Note_on_c, 0, 24, 72
9, 318108, Note_on_c, 0, 24, 0
9, 318108, Note_on_c, 0, 36, 0
9, 318240, Note_on_c, 0, 53, 72
9, 318240, Note_on_c, 0, 41, 72
9, 318348, Note_on_c, 0, 41, 0
9, 318348, Note_on_c, 0, 53, 0
9, 318480, Note_on_c, 0, 41, 84
9, 318480, Note_on_c, 0, 29, 84
9, 318588, Note_on_c, 0, 29, 0
9, 318588, Note_on_c, 0, 41, 0
9, 318720, Note_on_c, 0, 48, 103
9, 318720, Note_on_c, 0, 36, 103
9, 318828, Note_on_c, 0, 36, 0
9, 318828, Note_on_c, 0, 48, 0
9, 318960, Note_on_c, 0, 36, 90
9, 318960, Note_on_c, 0, 24, 90
9, 319068, Note_on_c, 0, 24, 0
9, 319068, Note_on_c, 0, 36, 0
9, 319200, Note_on_c, 0, 53, 90
9, 319200, Note_on_c, 0, 41, 90
9, 319308, Note_on_c, 0, 41, 0
9, 319308, Note_on_c, 0, 53, 0
9, 319440, Note_on_c, 0, 41, 90
9, 319440, Note_on_c, 0, 29, 90
9, 319548, Note_on_c, 0, 29, 0
9, 319548, Note_on_c, 0, 41, 0
9, 319680, Note_on_c, 0, 39, 90
9, 319680, Note_on_c, 0, 51, 90
9, 319734, Note_on_c, 0, 51, 0
9, 319734, Note_on_c, 0, 39, 0
9, 319920, Note_on_c, 0, 27, 90
9, 319920, Note_on_c, 0, 39, 90
9, 319974, Note_on_c, 0, 39, 0
9, 319974, Note_on_c, 0, 27, 0
9, 320160, Note_on_c, 0, 44, 90
9, 320160, Note_on_c, 0, 56, 90
9, 320214, Note_on_c, 0, 56, 0
9, 320214, Note_on_c, 0, 44, 0
9, 320400, Note_on_c, 0, 32, 90
9, 320400, Note_on_c, 0, 44, 90
9, 320454, Note_on_c, 0, 44, 0
9, 320454, Note_on_c, 0, 32, 0
9, 320640, Note_on_c, 0, 43, 90
9, 320640, Note_on_c, 0, 55, 90
9, 320748, Note_on_c, 0, 55, 0
9, 320748, Note_on_c, 0, 43, 0
9, 320880, Note_on_c, 0, 31, 90
9, 320880, Note_on_c, 0, 43, 90
9, 320988, Note_on_c, 0, 43, 0
9, 320988, Note_on_c, 0, 31, 0
9, 321120, Note_on_c, 0, 43, 90
9, 321120, Note_on_c, 0, 55, 90
9, 321228, Note_on_c, 0, 55, 0
9, 321228, Note_on_c, 0, 43, 0
9, 321360, Note_on_c, 0, 31, 90
9, 321360, Note_on_c, 0, 43, 90
9, 321468, Note_on_c, 0, 43, 0
9, 321468, Note_on_c, 0, 31, 0
9, 321600, Note_on_c, 0, 43, 90
9, 321600, Note_on_c, 0, 55, 90
9, 321708, Note_on_c, 0, 55, 0
9, 321708, Note_on_c, 0, 43, 0
9, 321840, Note_on_c, 0, 43, 90
9, 321840, Note_on_c, 0, 31, 90
9, 321948, Note_on_c, 0, 31, 0
9, 321948, Note_on_c, 0, 43, 0
9, 322080, Note_on_c, 0, 55, 90
9, 322080, Note_on_c, 0, 43, 90
9, 322188, Note_on_c, 0, 43, 0
9, 322188, Note_on_c, 0, 55, 0
9, 322320, Note_on_c, 0, 43, 90
9, 322320, Note_on_c, 0, 31, 90
9, 322428, Note_on_c, 0, 31, 0
9, 322428, Note_on_c, 0, 43, 0
9, 322560, Note_on_c, 0, 55, 91
9, 322560, Note_on_c, 0, 43, 91
9, 322668, Note_on_c, 0, 43, 0
9, 322668, Note_on_c, 0, 55, 0
9, 322800, Note_on_c, 0, 43, 92
9, 322800, Note_on_c, 0, 31, 92
9, 322908, Note_on_c, 0, 31, 0
9, 322908, Note_on_c, 0, 43, 0
9, 323040, Note_on_c, 0, 55, 93
9, 323040, Note_on_c, 0, 43, 93
9, 323148, Note_on_c, 0, 43, 0
9, 323148, Note_on_c, 0, 55, 0
9, 323280, Note_on_c, 0, 43, 94
9, 323280, Note_on_c, 0, 31, 94
9, 323388, Note_on_c, 0, 31, 0
9, 323388, Note_on_c, 0, 43, 0
9, 323520, Note_on_c, 0, 55, 95
9, 323520, Note_on_c, 0, 43, 95
9, 323628, Note_on_c, 0, 43, 0
9, 323628, Note_on_c, 0, 55, 0
9, 323760, Note_on_c, 0, 31, 97
9, 323760, Note_on_c, 0, 43, 97
9, 323868, Note_on_c, 0, 43, 0
9, 323868, Note_on_c, 0, 31, 0
9, 324000, Note_on_c, 0, 43, 98
9, 324000, Note_on_c, 0, 55, 98
9, 324108, Note_on_c, 0, 55, 0
9, 324108, Note_on_c, 0, 43, 0
9, 324240, Note_on_c, 0, 31, 99
9, 324240, Note_on_c, 0, 43, 99
9, 324348, Note_on_c, 0, 43, 0
9, 324348, Note_on_c, 0, 31, 0
9, 324480, Note_on_c, 0, 43, 100
9, 324480, Note_on_c, 0, 55, 100
9, 324500, Control_c, 0, 64, 127
9, 324696, Note_on_c, 0, 55, 0
9, 324696, Note_on_c, 0, 43, 0
9, 324720, Note_on_c, 0, 38, 101
9, 324774, Note_on_c, 0, 38, 0
9, 324780, Note_on_c, 0, 36, 100
9, 324834, Note_on_c, 0, 36, 0
9, 324840, Note_on_c, 0, 35, 100
9, 324894, Note_on_c, 0, 35, 0
9, 324900, Note_on_c, 0, 33, 99
9, 324954, Note_on_c, 0, 33, 0
9, 324960, Note_on_c, 0, 31, 98
9, 325310, Control_c, 0, 64, 0
9, 325392, Note_on_c, 0, 31, 0
9, 325620, Control_c, 0, 64, 127
9, 325680, Note_on_c, 0, 38, 98
9, 325734, Note_on_c, 0, 38, 0
9, 325740, Note_on_c, 0, 36, 98
9, 325794, Note_on_c, 0, 36, 0
9, 325800, Note_on_c, 0, 35, 98
9, 325854, Note_on_c, 0, 35, 0
9, 325860, Note_on_c, 0, 33, 98
9, 325914, Note_on_c, 0, 33, 0
9, 326320, Control_c, 0, 64, 0
9, 327400, Control_c, 0, 64, 127
9, 327600, Note_on_c, 0, 50, 104
9, 327672, Note_on_c, 0, 50, 0
9, 327680, Note_on_c, 0, 47, 104
9, 327752, Note_on_c, 0, 47, 0
9, 327760, Note_on_c, 0, 45, 105
9, 327832, Note_on_c, 0, 45, 0
9, 327840, Note_on_c, 0, 32, 105
9, 327840, Note_on_c, 0, 44, 105
9, 328140, Control_c, 0, 64, 0
9, 328536, Note_on_c, 0, 44, 0
9, 328536, Note_on_c, 0, 32, 0
9, 328560, Note_on_c, 0, 45, 90
9, 328560, Note_on_c, 0, 33, 90
9, 328668, Note_on_c, 0, 33, 0
9, 328668, Note_on_c, 0, 45, 0
9, 329000, Control_c, 0, 64, 127
9, 329040, Note_on_c, 0, 52, 97
9, 329112, Note_on_c, 0, 52, 0
9, 329120, Note_on_c, 0, 49, 97
9, 329192, Note_on_c, 0, 49, 0
9, 329200, Note_on_c, 0, 47, 97
9, 329272, Note_on_c, 0, 47, 0
9, 329280, Note_on_c, 0, 34, 97
9, 329280, Note_on_c, 0, 46, 97
9, 329554, Control_c, 0, 64, 0
9, 329928, Note_on_c, 0, 46, 0
9, 329928, Note_on_c, 0, 34, 0
9, 330000, Note_on_c, 0, 47, 90
9, 330000, Note_on_c, 0, 35, 90
9, 330216, Note_on_c, 0, 35, 0
9, 330216, Note_on_c, 0, 47, 0
9, 330440, Control_c, 0, 64, 127
9, 330480, Note_on_c, 0, 35, 90
9, 330480, Note_on_c, 0, 47, 90
9, 330696, Note_on_c, 0, 47, 0
9, 330696, Note_on_c, 0, 35, 0
9, 330720, Note_on_c, 0, 36, 90
9, 330720, Note_on_c, 0, 48, 90
9, 330936, Note_on_c, 0, 48, 0
9, 330936, Note_on_c, 0, 36, 0
9, 330960, Note_on_c, 0, 36, 90
9, 330960, Note_on_c, 0, 48, 90
9, 331130, Control_c, 0, 64, 0
9, 331176, Note_on_c, 0, 48, 0
9, 331176, Note_on_c, 0, 36, 0
9, 331200, Note_on_c, 0, 49, 90
9, 331200, Note_on_c, 0, 37, 90
9, 331308, Note_on_c, 0, 37, 0
9, 331308, Note_on_c, 0, 49, 0
9, 331440, Note_on_c, 0, 49, 90
9, 331440, Note_on_c, 0, 37, 90
9, 331548, Note_on_c, 0, 37, 0
9, 331548, Note_on_c, 0, 49, 0
9, 331680, Note_on_c, 0, 50, 90
9, 331680, Note_on_c, 0, 38, 90
9, 331788, Note_on_c, 0, 38, 0
9, 331788, Note_on_c, 0, 50, 0
9, 331920, Note_on_c, 0, 52, 90
9, 331920, Note_on_c, 0, 40, 90
9, 332028, Note_on_c, 0, 40, 0
9, 332028, Note_on_c, 0, 52, 0
9, 332160, Note_on_c, 0, 41, 90
9, 332160, Note_on_c, 0, 53, 90
9, 332268, Note_on_c, 0, 53, 0
9, 332268, Note_on_c, 0, 41, 0
9, 332400, Note_on_c, 0, 44, 90
9, 332508, Note_on_c, 0, 44, 0
9, 332640, Note_on_c, 0, 45, 98
9, 332748, Note_on_c, 0, 45, 0
9, 332880, Note_on_c, 0, 40, 94
9, 332988, Note_on_c, 0, 40, 0
9, 333120, Note_on_c, 0, 45, 89
9, 333120, Control_c, 0, 64, 127
9, 333359, Note_on_c, 0, 45, 0
9, 333360, Note_on_c, 0, 40, 85
9, 333599, Note_on_c, 0, 40, 0
9, 333600, Note_on_c, 0, 45, 80
9, 333600, Control_c, 0, 64, 0
9, 333839, Note_on_c, 0, 45, 0
9, 333840, Note_on_c, 0, 33, 76
9, 334056, Note_on_c, 0, 33, 0
9, 334080, Note_on_c, 0, 26, 51
9, 334080, Control_c, 0, 64, 127
9, 334080, Note_on_c, 0, 38, 51
9, 334559, Note_on_c, 0, 38, 0
9, 334559, Note_on_c, 0, 26, 0
9, 334560, Note_on_c, 0, 38, 72
9, 334776, Note_on_c, 0, 38, 0
9, 335040, Note_on_c, 0, 36, 72
9, 335040, Control_c, 0, 64, 0
9, 335040, Note_on_c, 0, 24, 72
9, 335519, Note_on_c, 0, 24, 0
9, 335519, Note_on_c, 0, 36, 0
9, 335520, Note_on_c, 0, 36, 72
9, 335736, Note_on_c, 0, 36, 0
9, 336000, Control_c, 0, 64, 127
9, 336000, Note_on_c, 0, 35, 72
9, 336479, Note_on_c, 0, 35, 0
9, 336480, Note_on_c, 0, 28, 72
9, 336480, Note_on_c, 0, 40, 72
9, 336912, Note_on_c, 0, 40, 0
9, 336912, Note_on_c, 0, 28, 0
9, 336960, Control_c, 0, 64, 0
9, 336960, Note_on_c, 0, 33, 72
9, 337319, Note_on_c, 0, 33, 0
9, 337320, Note_on_c, 0, 35, 72
9, 337439, Note_on_c, 0, 35, 0
9, 337440, Note_on_c, 0, 37, 72
9, 337656, Note_on_c, 0, 37, 0
9, 337920, Control_c, 0, 64, 127
9, 337920, Note_on_c, 0, 26, 57
9, 337920, Note_on_c, 0, 38, 57
9, 338399, Note_on_c, 0, 38, 0
9, 338399, Note_on_c, 0, 26, 0
9, 338400, Note_on_c, 0, 24, 57
9, 338400, Note_on_c, 0, 36, 57
9, 338832, Note_on_c, 0, 36, 0
9, 338832, Note_on_c, 0, 24, 0
9, 338880, Note_on_c, 0, 35, 57
9, 338880, Control_c, 0, 64, 0
9, 338880, Note_on_c, 0, 47, 57
9, 339264, Control_c, 0, 64, 127
9, 339359, Note_on_c, 0, 47, 0
9, 339359, Note_on_c, 0, 35, 0
9, 339360, Note_on_c, 0, 45, 57
9, 339360, Note_on_c, 0, 33, 57
9, 339600, Note_on_c, 0, 81, 72
9, 339792, Note_on_c, 0, 33, 0
9, 339792, Note_on_c, 0, 45, 0
9, 339816, Note_on_c, 0, 81, 0
9, 339840, Note_on_c, 0, 32, 57
9, 339840, Note_on_c, 0, 44, 57
9, 340224, Control_c, 0, 64, 0
9, 340319, Note_on_c, 0, 44, 0
9, 340319, Note_on_c, 0, 32, 0
9, 340320, Note_on_c, 0, 28, 57
9, 340320, Note_on_c, 0, 40, 57
9, 340752, Note_on_c, 0, 40, 0
9, 340752, Note_on_c, 0, 28, 0
9, 340800, Control_c, 0, 64, 127
9, 340800, Note_on_c, 0, 33, 57
9, 341279, Note_on_c, 0, 33, 0
9, 341280, Note_on_c, 0, 36, 57
9, 341280, Note_on_c, 0, 24, 57
9, 341712, Note_on_c, 0, 24, 0
9, 341712, Note_on_c, 0, 36, 0
9, 341760, Note_on_c, 0, 41, 72
9, 341760, Note_on_c, 0, 29, 72
9, 342239, Note_on_c, 0, 29, 0
9, 342239, Note_on_c, 0, 41, 0
9, 342240, Note_on_c, 0, 33, 72
9, 342240, Note_on_c, 0, 45, 72
9, 342672, Note_on_c, 0, 45, 0
9, 342672, Note_on_c, 0, 33, 0
9, 342720, Note_on_c, 0, 38, 72
9, 342720, Note_on_c, 0, 50, 72
9, 343199, Note_on_c, 0, 50, 0
9, 343199, Note_on_c, 0, 38, 0
9, 343200, Note_on_c, 0, 41, 72
9, 343632, Note_on_c, 0, 41, 0
9, 343680, Note_on_c, 0, 43, 72
9, 344159, Note_on_c, 0, 43, 0
9, 344160, Note_on_c, 0, 44, 72
9, 344592, Note_on_c, 0, 44, 0
9, 344640, Note_on_c, 0, 45, 72
9, 345240, Control_c, 0, 64, 0
9, 345359, Note_on_c, 0, 45, 0
9, 345360, Note_on_c, 0, 33, 72
9, 345576, Note_on_c, 0, 33, 0
9, 345600, Note_on_c, 0, 43, 72
9, 345839, Note_on_c, 0, 43, 0
9, 345840, Note_on_c, 0, 40, 72
9, 346079, Note_on_c, 0, 40, 0
9, 346080, Note_on_c, 0, 37, 72
9, 346319, Note_on_c, 0, 37, 0
9, 346320, Note_on_c, 0, 33, 72
9, 346536, Note_on_c, 0, 33, 0
9, 346560, Note_on_c, 0, 45, 72
9, 346560, Control_c, 0, 64, 127
9, 346799, Note_on_c, 0, 45, 0
9, 346800, Note_on_c, 0, 41, 72
9, 347039, Note_on_c, 0, 41, 0
9, 347040, Note_on_c, 0, 38, 72
9, 347279, Note_on_c, 0, 38, 0
9, 347280, Note_on_c, 0, 33, 73
9, 347400, Control_c, 0, 64, 0
9, 347496, Note_on_c, 0, 33, 0
9, 347520, Control_c, 0, 64, 127
9, 347520, Note_on_c, 0, 47, 73
9, 347736, Note_on_c, 0, 47, 0
9, 347760, Note_on_c, 0, 41, 73
9, 347976, Note_on_c, 0, 41, 0
9, 348000, Note_on_c, 0, 38, 73
9, 348216, Note_on_c, 0, 38, 0
9, 348240, Note_on_c, 0, 33, 74
9, 348348, Note_on_c, 0, 33, 0
9, 348360, Note_on_c, 0, 45, 74
9, 348384, Control_c, 0, 64, 0
9, 348480, Control_c, 0, 64, 127
9, 348696, Note_on_c, 0, 45, 0
9, 348720, Note_on_c, 0, 33, 74
9, 348828, Note_on_c, 0, 33, 0
9, 348840, Note_on_c, 0, 45, 74
9, 349176, Note_on_c, 0, 45, 0
9, 349200, Note_on_c, 0, 33, 75
9, 349308, Note_on_c, 0, 33, 0
9, 349320, Note_on_c, 0, 45, 75
9, 349344, Control_c, 0, 64, 0
9, 349440, Control_c, 0, 64, 127
9, 349656, Note_on_c, 0, 45, 0
9, 349680, Note_on_c, 0, 33, 75
9, 349788, Note_on_c, 0, 33, 0
9, 349800, Note_on_c, 0, 45, 74
9, 350136, Note_on_c, 0, 45, 0
9, 350160, Note_on_c, 0, 33, 74
9, 350256, Control_c, 0, 64, 0
9, 350268, Note_on_c, 0, 33, 0
9, 350280, Note_on_c, 0, 45, 73
9, 350400, Control_c, 0, 64, 127
9, 350616, Note_on_c, 0, 45, 0
9, 350640, Note_on_c, 0, 33, 72
9, 350748, Note_on_c, 0, 33, 0
9, 350760, Note_on_c, 0, 45, 72
9, 351312, Note_on_c, 0, 45, 0
9, 351360, Note_on_c, 0, 52, 89
9, 351360, Control_c, 0, 64, 0
9, 351576, Note_on_c, 0, 52, 0
9, 351600, Note_on_c, 0, 49, 88
9, 351816, Note_on_c, 0, 49, 0
9, 351840, Note_on_c, 0, 46, 88
9, 352056, Note_on_c, 0, 46, 0
9, 352080, Note_on_c, 0, 43, 87
9, 352296, Note_on_c, 0, 43, 0
9, 352320, Note_on_c, 0, 44, 80
9, 352536, Note_on_c, 0, 44, 0
9, 352560, Note_on_c, 0, 41, 77
9, 352776, Note_on_c, 0, 41, 0
9, 352800, Note_on_c, 0, 38, 73
9, 353016, Note_on_c, 0, 38, 0
9, 353040, Note_on_c, 0, 35, 71
9, 353256, Note_on_c, 0, 35, 0
9, 353280, Note_on_c, 0, 37, 68
9, 353519, Note_on_c, 0, 37, 0
9, 353520, Note_on_c, 0, 33, 65
9, 353759, Note_on_c, 0, 33, 0
9, 353760, Note_on_c, 0, 28, 62
9, 353760, Note_on_c, 0, 40, 62
9, 353999, Note_on_c, 0, 40, 0
9, 353999, Note_on_c, 0, 28, 0
9, 354000, Note_on_c, 0, 25, 59
9, 354000, Note_on_c, 0, 37, 59
9, 354030, Control_c, 0, 64, 127
9, 354216, Note_on_c, 0, 37, 0
9, 354216, Note_on_c, 0, 25, 0
9, 354240, Note_on_c, 0, 36, 91
9, 354359, Note_on_c, 0, 36, 0
9, 354360, Note_on_c, 0, 48, 76
9, 354479, Note_on_c, 0, 48, 0
9, 354480, Note_on_c, 0, 36, 75
9, 354599, Note_on_c, 0, 36, 0
9, 354600, Note_on_c, 0, 48, 78
9, 354719, Note_on_c, 0, 48, 0
9, 354720, Note_on_c, 0, 36, 76
9, 354839, Note_on_c, 0, 36, 0
9, 354840, Note_on_c, 0, 48, 77
9, 354959, Note_on_c, 0, 48, 0
9, 354960, Note_on_c, 0, 36, 77
9, 355079, Note_on_c, 0, 36, 0
9, 355080, Note_on_c, 0, 48, 78
9, 355188, Note_on_c, 0, 48, 0
9, 355200, Note_on_c, 0, 35, 95
9, 355319, Note_on_c, 0, 35, 0
9, 355320, Note_on_c, 0, 47, 77
9, 355439, Note_on_c, 0, 47, 0
9, 355440, Note_on_c, 0, 35, 79
9, 355559, Note_on_c, 0, 35, 0
9, 355560, Note_on_c, 0, 47, 79
9, 355679, Note_on_c, 0, 47, 0
9, 355680, Note_on_c, 0, 35, 82
9, 355799, Note_on_c, 0, 35, 0
9, 355800, Note_on_c, 0, 47, 76
9, 355919, Note_on_c, 0, 47, 0
9, 355920, Note_on_c, 0, 35, 85
9, 356039, Note_on_c, 0, 35, 0
9, 356040, Note_on_c, 0, 47, 81
9, 356148, Note_on_c, 0, 47, 0
9, 356160, Note_on_c, 0, 34, 80
9, 356279, Note_on_c, 0, 34, 0
9, 356280, Note_on_c, 0, 46, 80
9, 356399, Note_on_c, 0, 46, 0
9, 356400, Note_on_c, 0, 34, 81
9, 356519, Note_on_c, 0, 34, 0
9, 356520, Note_on_c, 0, 46, 83
9, 356639, Note_on_c, 0, 46, 0
9, 356640, Note_on_c, 0, 34, 87
9, 356759, Note_on_c, 0, 34, 0
9, 356760, Note_on_c, 0, 46, 82
9, 356879, Note_on_c, 0, 46, 0
9, 356880, Note_on_c, 0, 34, 84
9, 356999, Note_on_c, 0, 34, 0
9, 357000, Note_on_c, 0, 46, 85
9, 357108, Note_on_c, 0, 46, 0
9, 357120, Note_on_c, 0, 33, 85
9, 357239, Note_on_c, 0, 33, 0
9, 357240, Note_on_c, 0, 45, 79
9, 357359, Note_on_c, 0, 45, 0
9, 357360, Note_on_c, 0, 33, 86
9, 357479, Note_on_c, 0, 33, 0
9, 357480, Note_on_c, 0, 45, 87
9, 357599, Note_on_c, 0, 45, 0
9, 357600, Note_on_c, 0, 33, 82
9, 357719, Note_on_c, 0, 33, 0
9, 357720, Note_on_c, 0, 45, 85
9, 357839, Note_on_c, 0, 45, 0
9, 357840, Note_on_c, 0, 33, 88
9, 357914, Control_c, 0, 64, 0
9, 357959, Note_on_c, 0, 33, 0
9, 357960, Note_on_c, 0, 45, 88
9, 358068, Note_on_c, 0, 45, 0
9, 358080, Note_on_c, 0, 44, 86
9, 358080, Note_on_c, 0, 32, 86
9, 358200, Control_c, 0, 64, 127
9, 358512, Note_on_c, 0, 32, 0
9, 358512, Note_on_c, 0, 44, 0
9, 358720, Control_c, 0, 64, 0
9, 359040, Control_c, 0, 64, 127
9, 359040, Note_on_c, 0, 35, 105
9, 359040, Note_on_c, 0, 47, 105
9, 359472, Note_on_c, 0, 47, 0
9, 359472, Note_on_c, 0, 35, 0
9, 359664, Control_c, 0, 64, 0
9, 360000, Note_on_c, 0, 45, 103
9, 360000, Note_on_c, 0, 33, 103
9, 360080, Control_c, 0, 64, 127
9, 360432, Note_on_c, 0, 33, 0
9, 360432, Note_on_c, 0, 45, 0
9, 360640, Control_c, 0, 64, 0
9, 360960, Note_on_c, 0, 33, 97
9, 361032, Control_c, 0, 64, 127
9, 363744, Note_on_c, 0, 33, 0
9, 363840, Note_on_c, 0, 33, 97
9, 366624, Note_on_c, 0, 33, 0
9, 366720, Note_on_c, 0, 33, 97
9, 368160, Note_on_c, 0, 45, 97
9, 375792, Note_on_c, 0, 45, 0
9, 375792, Note_on_c, 0, 33, 0
9, 379200, Note_on_c, 0, 33, 64
9, 380160, Control_c, 0, 64, 127
9, 380376, Note_on_c, 0, 33, 0
9, 380640, Note_on_c, 0, 45, 63
9, 381552, Note_on_c, 0, 45, 0
9, 381600, Note_on_c, 0, 45, 63
9, 382512, Note_on_c, 0, 45, 0
9, 382560, Note_on_c, 0, 33, 48
9, 382560, Note_on_c, 0, 45, 48
9, 383472, Note_on_c, 0, 45, 0
9, 383472, Note_on_c, 0, 33, 0
9, 383520, Note_on_c, 0, 31, 64
9, 383520, Note_on_c, 0, 43, 64
9, 383952, Note_on_c, 0, 43, 0
9, 383952, Note_on_c, 0, 31, 0
9, 384000, Note_on_c, 0, 30, 64
9, 384000, Note_on_c, 0, 42, 64
9, 385392, Note_on_c, 0, 42, 0
9, 385392, Note_on_c, 0, 30, 0
9, 385440, Note_on_c, 0, 31, 64
9, 385440, Note_on_c, 0, 43, 64
9, 385872, Note_on_c, 0, 43, 0
9, 385872, Note_on_c, 0, 31, 0
9, 385920, Note_on_c, 0, 45, 48
9, 385920, Note_on_c, 0, 33, 48
9, 387744, Note_on_c, 0, 33, 0
9, 387744, Note_on_c, 0, 45, 0
9, 387840, Note_on_c, 0, 45, 48
9, 387840, Note_on_c, 0, 33, 48
9, 389664, Note_on_c, 0, 33, 0
9, 389664, Note_on_c, 0, 45, 0
9, 389760, Note_on_c, 0, 45, 48
9, 389760, Note_on_c, 0, 33, 48
9, 391152, Note_on_c, 0, 33, 0
9, 391152, Note_on_c, 0, 45, 0
9, 391455, Control_c, 0, 64, 0
9, 424320, Note_on_c, 0, 38, 51
9, 424320, Note_on_c, 0, 45, 51
9, 424500, Note_on_c, 0, 45, 0
9, 424500, Note_on_c, 0, 38, 0
9, 424800, Note_on_c, 0, 38, 51
9, 424800, Note_on_c, 0, 45, 51
9, 424980, Note_on_c, 0, 45, 0
9, 424980, Note_on_c, 0, 38, 0
9, 425280, Note_on_c, 0, 38, 51
9, 425280, Note_on_c, 0, 45, 51
9, 425460, Note_on_c, 0, 45, 0
9, 425460, Note_on_c, 0, 38, 0
9, 425760, Note_on_c, 0, 38, 57
9, 425760, Note_on_c, 0, 45, 57
9, 425940, Note_on_c, 0, 45, 0
9, 425940, Note_on_c, 0, 38, 0
9, 426120, Note_on_c, 0, 38, 51
9, 426120, Note_on_c, 0, 45, 51
9, 426174, Note_on_c, 0, 45, 0
9, 426174, Note_on_c, 0, 38, 0
9, 426240, Note_on_c, 0, 45, 58
9, 426240, Note_on_c, 0, 38, 58
9, 426420, Note_on_c, 0, 38, 0
9, 426420, Note_on_c, 0, 45, 0
9, 426600, Note_on_c, 0, 38, 51
9, 426600, Note_on_c, 0, 45, 51
9, 426660, Note_on_c, 0, 45, 0
9, 426660, Note_on_c, 0, 38, 0
9, 426720, Note_on_c, 0, 38, 58
9, 426720, Note_on_c, 0, 45, 58
9, 426900, Note_on_c, 0, 45, 0
9, 426900, Note_on_c, 0, 38, 0
9, 427080, Note_on_c, 0, 38, 51
9, 427080, Note_on_c, 0, 45, 51
9, 427134, Note_on_c, 0, 45, 0
9, 427134, Note_on_c, 0, 38, 0
9, 427200, Note_on_c, 0, 38, 60
9, 427200, Note_on_c, 0, 45, 60
9, 427559, Note_on_c, 0, 45, 0
9, 427559, Note_on_c, 0, 38, 0
9, 427560, Note_on_c, 0, 38, 51
9, 427560, Note_on_c, 0, 45, 51
9, 427679, Note_on_c, 0, 45, 0
9, 427679, Note_on_c, 0, 38, 0
9, 427680, Note_on_c, 0, 38, 58
9, 427680, Note_on_c, 0, 45, 58
9, 428039, Note_on_c, 0, 45, 0
9, 428039, Note_on_c, 0, 38, 0
9, 428040, Note_on_c, 0, 38, 51
9, 428040, Note_on_c, 0, 45, 51
9, 428148, Note_on_c, 0, 45, 0
9, 428148, Note_on_c, 0, 38, 0
9, 428160, Note_on_c, 0, 38, 57
9, 428160, Note_on_c, 0, 45, 57
9, 428519, Note_on_c, 0, 45, 0
9, 428519, Note_on_c, 0, 38, 0
9, 428520, Note_on_c, 0, 45, 51
9, 428520, Note_on_c, 0, 38, 51
9, 428639, Note_on_c, 0, 38, 0
9, 428639, Note_on_c, 0, 45, 0
9, 428640, Note_on_c, 0, 45, 58
9, 428640, Note_on_c, 0, 38, 58
9, 428999, Note_on_c, 0, 38, 0
9, 428999, Note_on_c, 0, 45, 0
9, 429000, Note_on_c, 0, 45, 51
9, 429000, Note_on_c, 0, 38, 51
9, 429108, Note_on_c, 0, 38, 0
9, 429108, Note_on_c, 0, 45, 0
9, 429120, Note_on_c, 0, 45, 57
9, 429120, Note_on_c, 0, 38, 57
9, 429479, Note_on_c, 0, 38, 0
9, 429479, Note_on_c, 0, 45, 0
9, 429480, Note_on_c, 0, 45, 50
9, 429480, Note_on_c, 0, 38, 50
9, 429599, Note_on_c, 0, 38, 0
9, 429599, Note_on_c, 0, 45, 0
9, 429600, Note_on_c, 0, 45, 57
9, 429600, Note_on_c, 0, 38, 57
9, 429959, Note_on_c, 0, 38, 0
9, 429959, Note_on_c, 0, 45, 0
9, 429960, Note_on_c, 0, 45, 47
9, 429960, Note_on_c, 0, 38, 47
9, 430068, Note_on_c, 0, 38, 0
9, 430068, Note_on_c, 0, 45, 0
9, 430080, Note_on_c, 0, 45, 57
9, 430080, Note_on_c, 0, 38, 57
9, 430439, Note_on_c, 0, 38, 0
9, 430439, Note_on_c, 0, 45, 0
9, 430440, Note_on_c, 0, 38, 49
9, 430440, Note_on_c, 0, 45, 49
9, 430559, Note_on_c, 0, 45, 0
9, 430559, Note_on_c, 0, 38, 0
9, 430560, Note_on_c, 0, 38, 57
9, 430560, Note_on_c, 0, 45, 57
9, 430919, Note_on_c, 0, 45, 0
9, 430919, Note_on_c, 0, 38, 0
9, 430920, Note_on_c, 0, 38, 47
9, 430920, Note_on_c, 0, 45, 47
9, 431028, Note_on_c, 0, 45, 0
9, 431028, Note_on_c, 0, 38, 0
9, 431040, Note_on_c, 0, 38, 57
9, 431040, Note_on_c, 0, 45, 57
9, 431399, Note_on_c, 0, 45, 0
9, 431399, Note_on_c, 0, 38, 0
9, 431400, Note_on_c, 0, 38, 46
9, 431400, Note_on_c, 0, 45, 46
9, 431519, Note_on_c, 0, 45, 0
9, 431519, Note_on_c, 0, 38, 0
9, 431520, Note_on_c, 0, 38, 57
9, 431520, Note_on_c, 0, 50, 57
9, 431879, Note_on_c, 0, 50, 0
9, 431879, Note_on_c, 0, 38, 0
9, 431880, Note_on_c, 0, 38, 57
9, 431880, Note_on_c, 0, 50, 57
9, 431988, Note_on_c, 0, 50, 0
9, 431988, Note_on_c, 0, 38, 0
9, 432000, Note_on_c, 0, 40, 64
9, 432000, Note_on_c, 0, 47, 64
9, 432359, Note_on_c, 0, 47, 0
9, 432359, Note_on_c, 0, 40, 0
9, 432360, Note_on_c, 0, 40, 55
9, 432360, Note_on_c, 0, 47, 55
9, 432479, Note_on_c, 0, 47, 0
9, 432479, Note_on_c, 0, 40, 0
9, 432480, Note_on_c, 0, 47, 64
9, 432480, Note_on_c, 0, 40, 64
9, 432839, Note_on_c, 0, 40, 0
9, 432839, Note_on_c, 0, 47, 0
9, 432840, Note_on_c, 0, 47, 54
9, 432840, Note_on_c, 0, 40, 54
9, 432948, Note_on_c, 0, 40, 0
9, 432948, Note_on_c, 0, 47, 0
9, 432960, Note_on_c, 0, 47, 64
9, 432960, Note_on_c, 0, 40, 64
9, 433319, Note_on_c, 0, 40, 0
9, 433319, Note_on_c, 0, 47, 0
9, 433320, Note_on_c, 0, 40, 54
9, 433439, Note_on_c, 0, 40, 0
9, 433440, Note_on_c, 0, 40, 64
9, 433799, Note_on_c, 0, 40, 0
9, 433800, Note_on_c, 0, 40, 56
9, 433800, Note_on_c, 0, 28, 56
9, 433908, Note_on_c, 0, 28, 0
9, 433908, Note_on_c, 0, 40, 0
9, 433920, Note_on_c, 0, 40, 64
9, 433920, Note_on_c, 0, 28, 64
9, 433940, Control_c, 0, 64, 127
9, 438624, Note_on_c, 0, 28, 0
9, 438624, Note_on_c, 0, 40, 0
9, 438720, Note_on_c, 0, 33, 45
9, 438720, Note_on_c, 0, 45, 45
9, 440520, Note_on_c, 0, 45, 0
9, 440520, Note_on_c, 0, 33, 0
9, 440640, Note_on_c, 0, 33, 51
9, 441504, Note_on_c, 0, 33, 0
9, 441600, Note_on_c, 0, 33, 51
9, 442464, Note_on_c, 0, 33, 0
9, 442920, Note_on_c, 0, 45, 65
9, 443039, Note_on_c, 0, 45, 0
9, 443040, Note_on_c, 0, 33, 77
9, 443879, Note_on_c, 0, 33, 0
9, 443880, Note_on_c, 0, 45, 77
9, 443999, Note_on_c, 0, 45, 0
9, 444000, Note_on_c, 0, 33, 91
9, 444315, Control_c, 0, 64, 0
9, 444359, Note_on_c, 0, 33, 0
9, 444360, Note_on_c, 0, 33, 90
9, 444468, Note_on_c, 0, 33, 0
9, 444480, Note_on_c, 0, 26, 104
9, 444480, Note_on_c, 0, 38, 104
9, 446304, Note_on_c, 0, 38, 0
9, 446304, Note_on_c, 0, 26, 0
9, 446400, Note_on_c, 0, 26, 95
9, 446400, Note_on_c, 0, 38, 95
9, 448224, Note_on_c, 0, 38, 0
9, 448224, Note_on_c, 0, 26, 0
9, 448320, Note_on_c, 0, 26, 95
9, 448320, Note_on_c, 0, 38, 95
9, 450144, Note_on_c, 0, 38, 0
9, 450144, Note_on_c, 0, 26, 0
9, 450240, Note_on_c, 0, 26, 95
9, 450240, Note_on_c, 0, 38, 95
9, 452064, Note_on_c, 0, 38, 0
9, 452064, Note_on_c, 0, 26, 0
9, 452160, Note_on_c, 0, 26, 95
9, 452160, Note_on_c, 0, 38, 95
9, 453024, Note_on_c, 0, 38, 0
9, 453024, Note_on_c, 0, 26, 0
9, 453120, Note_on_c, 0, 26, 95
9, 453120, Note_on_c, 0, 38, 95
9, 453984, Note_on_c, 0, 38, 0
9, 453984, Note_on_c, 0, 26, 0
9, 454080, Note_on_c, 0, 38, 95
9, 454080, Note_on_c, 0, 26, 95
9, 454944, Note_on_c, 0, 26, 0
9, 454944, Note_on_c, 0, 38, 0
9, 455040, Note_on_c, 0, 38, 95
9, 455040, Note_on_c, 0, 26, 95
9, 455904, Note_on_c, 0, 26, 0
9, 455904, Note_on_c, 0, 38, 0
9, 456000, Note_on_c, 0, 38, 93
9, 456000, Note_on_c, 0, 26, 93
9, 456216, Note_on_c, 0, 26, 0
9, 456216, Note_on_c, 0, 38, 0
9, 456480, Note_on_c, 0, 38, 94
9, 456696, Note_on_c, 0, 38, 0
9, 456960, Note_on_c, 0, 38, 94
9, 456960, Note_on_c, 0, 26, 94
9, 457176, Note_on_c, 0, 26, 0
9, 457176, Note_on_c, 0, 38, 0
9, 457440, Note_on_c, 0, 38, 95
9, 457656, Note_on_c, 0, 38, 0
9, 457920, Note_on_c, 0, 38, 96
9, 457920, Note_on_c, 0, 26, 96
9, 458136, Note_on_c, 0, 26, 0
9, 458136, Note_on_c, 0, 38, 0
9, 458400, Note_on_c, 0, 43, 92
9, 458400, Note_on_c, 0, 31, 92
9, 458616, Note_on_c, 0, 31, 0
9, 458616, Note_on_c, 0, 43, 0
9, 458880, Note_on_c, 0, 45, 86
9, 458880, Note_on_c, 0, 33, 86
9, 459359, Note_on_c, 0, 33, 0
9, 459359, Note_on_c, 0, 45, 0
9, 459360, Note_on_c, 0, 45, 81
9, 459576, Note_on_c, 0, 45, 0
9, 459840, Note_on_c, 0, 26, 96
9, 459840, Note_on_c, 0, 38, 96
9, 461039, Note_on_c, 0, 38, 0
9, 461039, Note_on_c, 0, 26, 0
9, 461040, Note_on_c, 0, 36, 103
9, 461279, Note_on_c, 0, 36, 0
9, 461280, Note_on_c, 0, 35, 102
9, 461519, Note_on_c, 0, 35, 0
9, 461520, Note_on_c, 0, 33, 100
9, 461736, Note_on_c, 0, 33, 0
9, 461760, Note_on_c, 0, 31, 99
9, 461760, Note_on_c, 0, 43, 99
9, 462959, Note_on_c, 0, 43, 0
9, 462959, Note_on_c, 0, 31, 0
9, 462960, Note_on_c, 0, 29, 99
9, 462960, Note_on_c, 0, 41, 99
9, 463199, Note_on_c, 0, 41, 0
9, 463199, Note_on_c, 0, 29, 0
9, 463200, Note_on_c, 0, 28, 96
9, 463200, Note_on_c, 0, 40, 96
9, 463439, Note_on_c, 0, 40, 0
9, 463439, Note_on_c, 0, 28, 0
9, 463440, Note_on_c, 0, 26, 93
9, 463440, Note_on_c, 0, 38, 93
9, 463656, Note_on_c, 0, 38, 0
9, 463656, Note_on_c, 0, 26, 0
9, 463680, Note_on_c, 0, 24, 72
9, 463799, Note_on_c, 0, 24, 0
9, 463800, Note_on_c, 0, 28, 76
9, 463919, Note_on_c, 0, 28, 0
9, 463920, Note_on_c, 0, 31, 76
9, 464039, Note_on_c, 0, 31, 0
9, 464040, Note_on_c, 0, 36, 76
9, 464159, Note_on_c, 0, 36, 0
9, 464160, Note_on_c, 0, 40, 75
9, 464279, Note_on_c, 0, 40, 0
9, 464280, Note_on_c, 0, 52, 75
9, 464399, Note_on_c, 0, 52, 0
9, 464400, Note_on_c, 0, 38, 74
9, 464519, Note_on_c, 0, 38, 0
9, 464520, Note_on_c, 0, 50, 73
9, 464628, Note_on_c, 0, 50, 0
9, 464640, Note_on_c, 0, 36, 72
9, 464759, Note_on_c, 0, 36, 0
9, 464760, Note_on_c, 0, 48, 72
9, 464879, Note_on_c, 0, 48, 0
9, 464880, Note_on_c, 0, 35, 72
9, 464999, Note_on_c, 0, 35, 0
9, 465000, Note_on_c, 0, 47, 71
9, 465119, Note_on_c, 0, 47, 0
9, 465120, Note_on_c, 0, 33, 70
9, 465239, Note_on_c, 0, 33, 0
9, 465240, Note_on_c, 0, 45, 70
9, 465359, Note_on_c, 0, 45, 0
9, 465360, Note_on_c, 0, 31, 69
9, 465479, Note_on_c, 0, 31, 0
9, 465480, Note_on_c, 0, 43, 68
9, 465588, Note_on_c, 0, 43, 0
9, 465600, Note_on_c, 0, 24, 79
9, 465719, Note_on_c, 0, 24, 0
9, 465720, Note_on_c, 0, 28, 78
9, 465839, Note_on_c, 0, 28, 0
9, 465840, Note_on_c, 0, 31, 76
9, 465959, Note_on_c, 0, 31, 0
9, 465960, Note_on_c, 0, 36, 76
9, 466079, Note_on_c, 0, 36, 0
9, 466080, Note_on_c, 0, 40, 75
9, 466199, Note_on_c, 0, 40, 0
9, 466200, Note_on_c, 0, 52, 74
9, 466319, Note_on_c, 0, 52, 0
9, 466320, Note_on_c, 0, 38, 72
9, 466439, Note_on_c, 0, 38, 0
9, 466440, Note_on_c, 0, 50, 72
9, 466548, Note_on_c, 0, 50, 0
9, 466560, Note_on_c, 0, 36, 89
9, 466679, Note_on_c, 0, 36, 0
9, 466680, Note_on_c, 0, 48, 84
9, 466799, Note_on_c, 0, 48, 0
9, 466800, Note_on_c, 0, 35, 86
9, 466919, Note_on_c, 0, 35, 0
9, 466920, Note_on_c, 0, 47, 87
9, 467039, Note_on_c, 0, 47, 0
9, 467040, Note_on_c, 0, 33, 89
9, 467159, Note_on_c, 0, 33, 0
9, 467160, Note_on_c, 0, 45, 90
9, 467279, Note_on_c, 0, 45, 0
9, 467280, Note_on_c, 0, 31, 92
9, 467399, Note_on_c, 0, 31, 0
9, 467400, Note_on_c, 0, 43, 94
9, 467508, Note_on_c, 0, 43, 0
9, 467520, Note_on_c, 0, 36, 95
9, 467520, Note_on_c, 0, 24, 95
9, 467736, Note_on_c, 0, 24, 0
9, 467736, Note_on_c, 0, 36, 0
9, 467760, Note_on_c, 0, 36, 103
9, 467760, Note_on_c, 0, 24, 103
9, 468192, Note_on_c, 0, 24, 0
9, 468192, Note_on_c, 0, 36, 0
9, 468240, Note_on_c, 0, 36, 96
9, 468240, Note_on_c, 0, 24, 96
9, 468456, Note_on_c, 0, 24, 0
9, 468456, Note_on_c, 0, 36, 0
9, 468480, Note_on_c, 0, 24, 96
9, 468480, Note_on_c, 0, 36, 96
9, 468696, Note_on_c, 0, 36, 0
9, 468696, Note_on_c, 0, 24, 0
9, 468720, Note_on_c, 0, 24, 105
9, 468720, Note_on_c, 0, 36, 105
9, 469152, Note_on_c, 0, 36, 0
9, 469152, Note_on_c, 0, 24, 0
9, 469200, Note_on_c, 0, 24, 87
9, 469200, Note_on_c, 0, 36, 87
9, 469416, Note_on_c, 0, 36, 0
9, 469416, Note_on_c, 0, 24, 0
9, 469440, Note_on_c, 0, 24, 104
9, 469440, Note_on_c, 0, 36, 104
9, 470616, Note_on_c, 0, 36, 0
9, 470616, Note_on_c, 0, 24, 0
9, 470640, Note_on_c, 0, 36, 103
9, 470640, Note_on_c, 0, 48, 103
9, 471072, Note_on_c, 0, 48, 0
9, 471072, Note_on_c, 0, 36, 0
9, 471120, Note_on_c, 0, 36, 89
9, 471120, Note_on_c, 0, 48, 89
9, 471336, Note_on_c, 0, 48, 0
9, 471336, Note_on_c, 0, 36, 0
9, 471360, Note_on_c, 0, 33, 107
9, 471360, Note_on_c, 0, 45, 107
9, 472536, Note_on_c, 0, 45, 0
9, 472536, Note_on_c, 0, 33, 0
9, 472560, Note_on_c, 0, 33, 96
9, 472560, Note_on_c, 0, 45, 96
9, 472992, Note_on_c, 0, 45, 0
9, 472992, Note_on_c, 0, 33, 0
9, 473040, Note_on_c, 0, 33, 87
9, 473040, Note_on_c, 0, 45, 87
9, 473256, Note_on_c, 0, 45, 0
9, 473256, Note_on_c, 0, 33, 0
9, 473280, Note_on_c, 0, 41, 104
9, 473280, Note_on_c, 0, 29, 104
9, 474456, Note_on_c, 0, 29, 0
9, 474456, Note_on_c, 0, 41, 0
9, 474480, Note_on_c, 0, 41, 96
9, 474480, Note_on_c, 0, 29, 96
9, 474912, Note_on_c, 0, 29, 0
9, 474912, Note_on_c, 0, 41, 0
9, 474960, Note_on_c, 0, 41, 90
9, 474960, Note_on_c, 0, 29, 90
9, 475176, Note_on_c, 0, 29, 0
9, 475176, Note_on_c, 0, 41, 0
9, 475200, Note_on_c, 0, 38, 102
9, 475200, Note_on_c, 0, 26, 102
9, 476376, Note_on_c, 0, 26, 0
9, 476376, Note_on_c, 0, 38, 0
9, 476400, Note_on_c, 0, 50, 96
9, 476400, Note_on_c, 0, 38, 96
9, 476832, Note_on_c, 0, 38, 0
9, 476832, Note_on_c, 0, 50, 0
9, 476880, Note_on_c, 0, 50, 89
9, 476880, Note_on_c, 0, 38, 89
9, 477096, Note_on_c, 0, 38, 0
9, 477096, Note_on_c, 0, 50, 0
9, 477120, Note_on_c, 0, 43, 96
9, 477120, Note_on_c, 0, 31, 96
9, 477336, Note_on_c, 0, 31, 0
9, 477336, Note_on_c, 0, 43, 0
9, 477600, Note_on_c, 0, 50, 96
9, 477600, Note_on_c, 0, 38, 96
9, 477816, Note_on_c, 0, 38, 0
9, 477816, Note_on_c, 0, 50, 0
9, 478080, Note_on_c, 0, 31, 96
9, 478080, Note_on_c, 0, 43, 96
9, 478296, Note_on_c, 0, 43, 0
9, 478296, Note_on_c, 0, 31, 0
9, 478560, Note_on_c, 0, 38, 96
9, 478560, Note_on_c, 0, 50, 96
9, 478776, Note_on_c, 0, 50, 0
9, 478776, Note_on_c, 0, 38, 0
9, 479040, Note_on_c, 0, 33, 96
9, 479040, Control_c, 0, 64, 127
9, 479040, Note_on_c, 0, 45, 96
9, 479256, Note_on_c, 0, 45, 0
9, 479256, Note_on_c, 0, 33, 0
9, 480000, Note_on_c, 0, 33, 96
9, 480864, Note_on_c, 0, 33, 0
9, 480960, Note_on_c, 0, 33, 96
9, 481824, Note_on_c, 0, 33, 0
9, 481920, Note_on_c, 0, 33, 96
9, 482784, Note_on_c, 0, 33, 0
9, 482880, Note_on_c, 0, 33, 96
9, 483528, Note_on_c, 0, 33, 0
9, 483600, Note_on_c, 0, 35, 96
9, 483816, Note_on_c, 0, 35, 0
9, 483840, Note_on_c, 0, 33, 96
9, 484056, Note_on_c, 0, 33, 0
9, 484080, Note_on_c, 0, 37, 96
9, 484296, Note_on_c, 0, 37, 0
9, 484320, Note_on_c, 0, 33, 96
9, 484536, Note_on_c, 0, 33, 0
9, 484560, Note_on_c, 0, 38, 96
9, 484625, Control_c, 0, 64, 0
9, 484776, Note_on_c, 0, 38, 0
9, 484800, Note_on_c, 0, 33, 96
9, 484800, Control_c, 0, 64, 127
9, 485016, Note_on_c, 0, 33, 0
9, 485040, Note_on_c, 0, 40, 96
9, 485256, Note_on_c, 0, 40, 0
9, 485280, Note_on_c, 0, 33, 96
9, 485496, Note_on_c, 0, 33, 0
9, 485520, Note_on_c, 0, 41, 96
9, 485736, Note_on_c, 0, 41, 0
9, 485760, Note_on_c, 0, 33, 64
9, 485999, Note_on_c, 0, 33, 0
9, 486000, Note_on_c, 0, 40, 92
9, 486239, Note_on_c, 0, 40, 0
9, 486240, Note_on_c, 0, 33, 92
9, 486479, Note_on_c, 0, 33, 0
9, 486480, Note_on_c, 0, 41, 92
9, 486696, Note_on_c, 0, 41, 0
9, 486720, Note_on_c, 0, 33, 92
9, 486959, Note_on_c, 0, 33, 0
9, 486960, Note_on_c, 0, 40, 92
9, 487199, Note_on_c, 0, 40, 0
9, 487200, Note_on_c, 0, 44, 91
9, 487200, Note_on_c, 0, 33, 91
9, 487439, Note_on_c, 0, 33, 0
9, 487439, Note_on_c, 0, 44, 0
9, 487440, Note_on_c, 0, 45, 91
9, 487611, Control_c, 0, 64, 0
9, 487656, Note_on_c, 0, 45, 0
9, 487680, Note_on_c, 0, 33, 90
9, 487749, Control_c, 0, 64, 127
9, 487919, Note_on_c, 0, 33, 0
9, 487920, Note_on_c, 0, 45, 90
9, 488159, Note_on_c, 0, 45, 0
9, 488160, Note_on_c, 0, 33, 89
9, 488399, Note_on_c, 0, 33, 0
9, 488400, Note_on_c, 0, 45, 89
9, 488616, Note_on_c, 0, 45, 0
9, 488640, Note_on_c, 0, 33, 88
9, 488879, Note_on_c, 0, 33, 0
9, 488880, Note_on_c, 0, 45, 88
9, 489119, Note_on_c, 0, 45, 0
9, 489120, Note_on_c, 0, 33, 87
9, 489359, Note_on_c, 0, 33, 0
9, 489360, Note_on_c, 0, 45, 87
9, 489576, Note_on_c, 0, 45, 0
9, 489600, Note_on_c, 0, 33, 86
9, 489839, Note_on_c, 0, 33, 0
9, 489840, Note_on_c, 0, 45, 85
9, 490079, Note_on_c, 0, 45, 0
9, 490080, Note_on_c, 0, 33, 85
9, 490319, Note_on_c, 0, 33, 0
9, 490320, Note_on_c, 0, 45, 84
9, 490536, Note_on_c, 0, 45, 0
9, 490560, Note_on_c, 0, 33, 84
9, 490799, Note_on_c, 0, 33, 0
9, 490800, Note_on_c, 0, 45, 83
9, 491039, Note_on_c, 0, 45, 0
9, 491040, Note_on_c, 0, 33, 83
9, 491279, Note_on_c, 0, 33, 0
9, 491280, Note_on_c, 0, 45, 82
9, 491496, Note_on_c, 0, 45, 0
9, 491520, Note_on_c, 0, 33, 82
9, 491736, Note_on_c, 0, 33, 0
9, 491760, Note_on_c, 0, 45, 81
9, 491976, Note_on_c, 0, 45, 0
9, 492000, Note_on_c, 0, 33, 81
9, 492216, Note_on_c, 0, 33, 0
9, 492240, Note_on_c, 0, 45, 80
9, 492456, Note_on_c, 0, 45, 0
9, 492480, Note_on_c, 0, 33, 80
9, 492696, Note_on_c, 0, 33, 0
9, 492720, Note_on_c, 0, 45, 80
9, 492936, Note_on_c, 0, 45, 0
9, 492960, Note_on_c, 0, 33, 79
9, 493176, Note_on_c, 0, 33, 0
9, 493200, Note_on_c, 0, 45, 79
9, 493416, Note_on_c, 0, 45, 0
9, 493440, Note_on_c, 0, 33, 78
9, 493656, Note_on_c, 0, 33, 0
9, 493680, Note_on_c, 0, 45, 78
9, 493896, Note_on_c, 0, 45, 0
9, 493920, Note_on_c, 0, 33, 77
9, 494136, Note_on_c, 0, 33, 0
9, 494160, Note_on_c, 0, 45, 77
9, 494376, Note_on_c, 0, 45, 0
9, 494400, Note_on_c, 0, 33, 76
9, 494616, Note_on_c, 0, 33, 0
9, 494640, Note_on_c, 0, 45, 76
9, 494856, Note_on_c, 0, 45, 0
9, 494880, Note_on_c, 0, 33, 75
9, 495096, Note_on_c, 0, 33, 0
9, 495120, Note_on_c, 0, 45, 74
9, 495200, Control_c, 0, 64, 0
9, 495336, Note_on_c, 0, 45, 0
9, 496629, Control_c, 0, 64, 127
9, 496800, Note_on_c, 0, 33, 99
9, 496836, Note_on_c, 0, 33, 0
9, 496840, Note_on_c, 0, 38, 87
9, 496876, Note_on_c, 0, 38, 0
9, 496880, Note_on_c, 0, 40, 92
9, 496916, Note_on_c, 0, 40, 0
9, 496920, Note_on_c, 0, 45, 96
9, 496974, Note_on_c, 0, 45, 0
9, 496980, Note_on_c, 0, 50, 99
9, 497034, Note_on_c, 0, 50, 0
9, 497040, Note_on_c, 0, 52, 99
9, 497094, Note_on_c, 0, 52, 0
9, 497100, Note_on_c, 0, 57, 99
9, 497154, Note_on_c, 0, 57, 0
9, 497160, Note_on_c, 0, 62, 99
9, 497214, Note_on_c, 0, 62, 0
9, 497220, Note_on_c, 0, 64, 99
9, 497274, Note_on_c, 0, 64, 0
9, 497280, Note_on_c, 0, 69, 97
9, 497388, Note_on_c, 0, 69, 0
9, 499222, Control_c, 0, 64, 0
9, 502080, Note_on_c, 0, 45, 64
9, 502188, Note_on_c, 0, 45, 0
9, 502320, Note_on_c, 0, 52, 64
9, 502799, Note_on_c, 0, 52, 0
9, 502800, Note_on_c, 0, 45, 64
9, 502908, Note_on_c, 0, 45, 0
9, 503040, Control_c, 0, 64, 127
9, 503040, Note_on_c, 0, 45, 64
9, 503040, Note_on_c, 0, 57, 64
9, 503148, Note_on_c, 0, 57, 0
9, 503148, Note_on_c, 0, 45, 0
9, 504000, Control_c, 0, 64, 0
9, 504000, Control_c, 0, 64, 127
9, 504000, Note_on_c, 0, 33, 64
9, 504000, Note_on_c, 0, 45, 64
9, 504108, Note_on_c, 0, 45, 0
9, 504108, Note_on_c, 0, 33, 0
9, 504960, Note_on_c, 0, 33, 64
9, 505068, Note_on_c, 0, 33, 0
9, 505440, Note_on_c, 0, 33, 64
9, 505548, Note_on_c, 0, 33, 0
9, 505865, Control_c, 0, 64, 0
9, 505920, Note_on_c, 0, 33, 64
9, 505974, Note_on_c, 0, 33, 0
9, 506040, Note_on_c, 0, 40, 67
9, 506094, Note_on_c, 0, 40, 0
9, 506160, Note_on_c, 0, 40, 70
9, 506214, Note_on_c, 0, 40, 0
9, 506280, Note_on_c, 0, 45, 73
9, 506334, Note_on_c, 0, 45, 0
9, 506400, Note_on_c, 0, 33, 76
9, 506454, Note_on_c, 0, 33, 0
9, 506520, Note_on_c, 0, 40, 79
9, 506574, Note_on_c, 0, 40, 0
9, 506640, Note_on_c, 0, 40, 82
9, 506694, Note_on_c, 0, 40, 0
9, 506760, Note_on_c, 0, 45, 84
9, 506814, Note_on_c, 0, 45, 0
9, 506880, Note_on_c, 0, 38, 88
9, 506988, Note_on_c, 0, 38, 0
9, 507120, Note_on_c, 0, 33, 66
9, 507174, Note_on_c, 0, 33, 0
9, 507240, Note_on_c, 0, 38, 68
9, 507294, Note_on_c, 0, 38, 0
9, 507360, Note_on_c, 0, 33, 71
9, 507414, Note_on_c, 0, 33, 0
9, 507480, Note_on_c, 0, 38, 73
9, 507534, Note_on_c, 0, 38, 0
9, 507600, Note_on_c, 0, 33, 75
9, 507654, Note_on_c, 0, 33, 0
9, 507720, Note_on_c, 0, 38, 78
9, 507774, Note_on_c, 0, 38, 0
9, 507840, Note_on_c, 0, 33, 80
9, 507894, Note_on_c, 0, 33, 0
9, 507960, Note_on_c, 0, 38, 82
9, 508014, Note_on_c, 0, 38, 0
9, 508080, Note_on_c, 0, 33, 85
9, 508134, Note_on_c, 0, 33, 0
9, 508200, Note_on_c, 0, 38, 87
9, 508254, Note_on_c, 0, 38, 0
9, 508320, Note_on_c, 0, 33, 89
9, 508374, Note_on_c, 0, 33, 0
9, 508440, Note_on_c, 0, 38, 92
9, 508494, Note_on_c, 0, 38, 0
9, 508536, Control_c, 0, 64, 127
9, 508560, Note_on_c, 0, 33, 96
9, 508560, Note_on_c, 0, 45, 96
9, 508668, Note_on_c, 0, 45, 0
9, 508668, Note_on_c, 0, 33, 0
9, 508800, Note_on_c, 0, 45, 96
9, 508800, Control_c, 0, 64, 0
9, 508800, Note_on_c, 0, 33, 96
9, 508908, Note_on_c, 0, 33, 0
9, 508908, Note_on_c, 0, 45, 0
9, 509040, Note_on_c, 0, 33, 71
9, 509094, Note_on_c, 0, 33, 0
9, 509160, Note_on_c, 0, 38, 74
9, 509214, Note_on_c, 0, 38, 0
9, 509280, Note_on_c, 0, 33, 76
9, 509334, Note_on_c, 0, 33, 0
9, 509400, Note_on_c, 0, 38, 79
9, 509454, Note_on_c, 0, 38, 0
9, 509520, Note_on_c, 0, 33, 81
9, 509574, Note_on_c, 0, 33, 0
9, 509640, Note_on_c, 0, 38, 84
9, 509694, Note_on_c, 0, 38, 0
9, 509760, Note_on_c, 0, 33, 86
9, 509814, Note_on_c, 0, 33, 0
9, 509880, Note_on_c, 0, 38, 89
9, 509934, Note_on_c, 0, 38, 0
9, 510000, Note_on_c, 0, 33, 91
9, 510054, Note_on_c, 0, 33, 0
9, 510120, Note_on_c, 0, 38, 94
9, 510174, Note_on_c, 0, 38, 0
9, 510240, Note_on_c, 0, 33, 96
9, 510294, Note_on_c, 0, 33, 0
9, 510360, Note_on_c, 0, 38, 96
9, 510414, Note_on_c, 0, 38, 0
9, 510480, Note_on_c, 0, 45, 96
9, 510480, Note_on_c, 0, 33, 96
9, 510588, Note_on_c, 0, 33, 0
9, 510588, Note_on_c, 0, 45, 0
9, 510720, Note_on_c, 0, 38, 96
9, 510720, Note_on_c, 0, 26, 96
9, 510828, Note_on_c, 0, 26, 0
9, 510828, Note_on_c, 0, 38, 0
9, 510960, Note_on_c, 0, 33, 96
9, 511068, Note_on_c, 0, 33, 0
9, 511200, Note_on_c, 0, 38, 96
9, 511308, Note_on_c, 0, 38, 0
9, 511440, Note_on_c, 0, 33, 96
9, 511548, Note_on_c, 0, 33, 0
9, 511680, Note_on_c, 0, 38, 96
9, 511788, Note_on_c, 0, 38, 0
9, 511920, Note_on_c, 0, 33, 96
9, 512028, Note_on_c, 0, 33, 0
9, 512160, Note_on_c, 0, 38, 96
9, 512268, Note_on_c, 0, 38, 0
9, 512400, Note_on_c, 0, 33, 96
9, 512508, Note_on_c, 0, 33, 0
9, 512640, Note_on_c, 0, 50, 96
9, 512640, Note_on_c, 0, 38, 96
9, 512760, Note_on_c, 0, 38, 0
9, 512760, Note_on_c, 0, 50, 0
9, 513120, Note_on_c, 0, 45, 96
9, 513120, Note_on_c, 0, 33, 96
9, 513174, Note_on_c, 0, 33, 0
9, 513174, Note_on_c, 0, 45, 0
9, 513600, Note_on_c, 0, 50, 96
9, 513600, Note_on_c, 0, 38, 96
9, 513720, Note_on_c, 0, 38, 0
9, 513720, Note_on_c, 0, 50, 0
9, 514080, Note_on_c, 0, 45, 96
9, 514080, Note_on_c, 0, 33, 96
9, 514134, Note_on_c, 0, 33, 0
9, 514134, Note_on_c, 0, 45, 0
9, 514560, Control_c, 0, 64, 127
9, 514560, Note_on_c, 0, 38, 96
9, 514560, Note_on_c, 0, 26, 96
9, 515424, Note_on_c, 0, 26, 0
9, 515424, Note_on_c, 0, 38, 0
9, 515520, Control_c, 0, 64, 0
9, 515520, End_track
10, 0, Start_track
10, 0, Title_t, "Brahms"
10, 0, End_track
11, 0, Start_track
11, 0, Title_t, "Piano Concerto #1 Dmi"
11, 0, End_track
12, 0, Start_track
12, 0, Title_t, "Piano, Four Hands"
12, 0, End_track
13, 0, Start_track
13, 0, Title_t, "No Op. #- 1864"
13, 0, End_track
14, 0, Start_track
14, 0, Title_t, "Arr.W.Pepperdine 1999"
14, 0, End_track
0, 0, End_of_file
