0, 0, Header, 1, 2, 480
1, 0, Start_track
1, 0, Title_t, "untitled"
1, 0, Time_signature, 4, 2, 24, 8
1, 0, Key_signature, 0, "major"
1, 0, Tempo, 500000
1, 0, End_track
2, 0, Start_track
2, 0, Title_t, "Brahms: Rhapsody n. 2"
2, 0, Program_c, 0, 0
2, 0, Control_c, 0, 7, 100
2, 0, Control_c, 0, 91, 127
2, 0, Note_on_c, 0, 26, 78
2, 0, Note_on_c, 0, 38, 80
2, 0, Note_on_c, 0, 62, 96
2, 112, Control_c, 0, 64, 127
2, 222, Note_on_c, 0, 50, 67
2, 232, Note_on_c, 0, 26, 0
2, 314, Note_on_c, 0, 38, 0
2, 372, Note_on_c, 0, 50, 0
2, 434, Note_on_c, 0, 57, 56
2, 496, Note_on_c, 0, 62, 0
2, 612, Note_on_c, 0, 63, 112
2, 615, Note_on_c, 0, 43, 96
2, 615, Note_on_c, 0, 31, 101
2, 648, Control_c, 0, 64, 0
2, 692, Note_on_c, 0, 57, 0
2, 797, Note_on_c, 0, 51, 73
2, 838, Note_on_c, 0, 31, 0
2, 850, Control_c, 0, 64, 127
2, 886, Note_on_c, 0, 43, 0
2, 968, Note_on_c, 0, 58, 52
2, 1002, Note_on_c, 0, 51, 0
2, 1108, Note_on_c, 0, 58, 0
2, 1214, Note_on_c, 0, 67, 108
2, 1376, Note_on_c, 0, 67, 0
2, 1388, Note_on_c, 0, 51, 64
2, 1526, Note_on_c, 0, 58, 46
2, 1554, Note_on_c, 0, 51, 0
2, 1682, Note_on_c, 0, 58, 0
2, 1692, Note_on_c, 0, 70, 104
2, 1772, Note_on_c, 0, 70, 0
2, 1828, Note_on_c, 0, 51, 71
2, 1952, Note_on_c, 0, 51, 0
2, 1962, Note_on_c, 0, 58, 56
2, 2030, Note_on_c, 0, 63, 0
2, 2134, Note_on_c, 0, 64, 116
2, 2136, Note_on_c, 0, 58, 0
2, 2136, Note_on_c, 0, 36, 104
2, 2139, Control_c, 0, 64, 0
2, 2146, Note_on_c, 0, 24, 98
2, 2258, Note_on_c, 0, 52, 96
2, 2268, Note_on_c, 0, 24, 0
2, 2308, Control_c, 0, 64, 127
2, 2326, Note_on_c, 0, 36, 0
2, 2408, Note_on_c, 0, 58, 64
2, 2428, Note_on_c, 0, 52, 0
2, 2482, Note_on_c, 0, 64, 0
2, 2526, Note_on_c, 0, 58, 0
2, 2554, Control_c, 0, 64, 0
2, 2568, Note_on_c, 0, 65, 118
2, 2572, Note_on_c, 0, 45, 104
2, 2574, Note_on_c, 0, 33, 104
2, 2716, Note_on_c, 0, 53, 109
2, 2738, Note_on_c, 0, 33, 0
2, 2754, Control_c, 0, 64, 127
2, 2782, Note_on_c, 0, 45, 0
2, 2868, Note_on_c, 0, 60, 74
2, 2916, Note_on_c, 0, 53, 0
2, 3016, Note_on_c, 0, 60, 0
2, 3024, Note_on_c, 0, 69, 112
2, 3182, Note_on_c, 0, 53, 104
2, 3302, Note_on_c, 0, 60, 77
2, 3340, Note_on_c, 0, 53, 0
2, 3414, Note_on_c, 0, 69, 0
2, 3434, Note_on_c, 0, 60, 0
2, 3452, Note_on_c, 0, 72, 116
2, 3528, Note_on_c, 0, 72, 0
2, 3558, Note_on_c, 0, 53, 115
2, 3624, Note_on_c, 0, 65, 0
2, 3660, Note_on_c, 0, 53, 0
2, 3682, Note_on_c, 0, 60, 85
2, 3726, Note_on_c, 0, 60, 0
2, 3976, Note_on_c, 0, 77, 115
2, 3990, Note_on_c, 0, 33, 105
2, 3993, Note_on_c, 0, 21, 104
2, 4080, Note_on_c, 0, 21, 0
2, 4108, Note_on_c, 0, 65, 82
2, 4116, Note_on_c, 0, 33, 0
2, 4260, Note_on_c, 0, 72, 89
2, 4274, Note_on_c, 0, 77, 0
2, 4352, Note_on_c, 0, 65, 0
2, 4434, Note_on_c, 0, 76, 108
2, 4438, Note_on_c, 0, 36, 104
2, 4440, Note_on_c, 0, 48, 102
2, 4460, Control_c, 0, 64, 0
2, 4506, Note_on_c, 0, 72, 0
2, 4552, Note_on_c, 0, 64, 82
2, 4674, Control_c, 0, 64, 127
2, 4698, Note_on_c, 0, 76, 0
2, 4704, Note_on_c, 0, 67, 83
2, 4770, Note_on_c, 0, 48, 0
2, 4774, Note_on_c, 0, 64, 0
2, 4832, Note_on_c, 0, 72, 109
2, 4844, Note_on_c, 0, 36, 0
2, 4856, Note_on_c, 0, 67, 0
2, 4958, Note_on_c, 0, 60, 83
2, 5060, Note_on_c, 0, 72, 0
2, 5090, Note_on_c, 0, 64, 81
2, 5156, Note_on_c, 0, 60, 0
2, 5208, Note_on_c, 0, 64, 0
2, 5222, Note_on_c, 0, 67, 108
2, 5232, Note_on_c, 0, 24, 109
2, 5234, Note_on_c, 0, 36, 102
2, 5274, Note_on_c, 0, 24, 0
2, 5334, Note_on_c, 0, 36, 0
2, 5364, Note_on_c, 0, 55, 97
2, 5474, Note_on_c, 0, 55, 0
2, 5496, Note_on_c, 0, 64, 97
2, 5556, Note_on_c, 0, 67, 0
2, 5626, Note_on_c, 0, 64, 0
2, 5626, Note_on_c, 0, 69, 101
2, 5636, Note_on_c, 0, 54, 105
2, 5648, Note_on_c, 0, 67, 63
2, 5650, Note_on_c, 0, 51, 90
2, 5650, Note_on_c, 0, 48, 81
2, 5768, Note_on_c, 0, 57, 93
2, 5782, Note_on_c, 0, 54, 0
2, 5802, Note_on_c, 0, 51, 0
2, 5808, Note_on_c, 0, 48, 0
2, 5916, Note_on_c, 0, 66, 88
2, 5919, Note_on_c, 0, 63, 95
2, 5950, Note_on_c, 0, 67, 0
2, 5958, Note_on_c, 0, 57, 0
2, 5990, Note_on_c, 0, 69, 0
2, 6070, Note_on_c, 0, 63, 0
2, 6086, Note_on_c, 0, 43, 106
2, 6088, Note_on_c, 0, 31, 111
2, 6088, Control_c, 0, 64, 0
2, 6090, Note_on_c, 0, 71, 124
2, 6098, Note_on_c, 0, 66, 0
2, 6236, Note_on_c, 0, 59, 103
2, 6252, Note_on_c, 0, 31, 0
2, 6288, Control_c, 0, 64, 127
2, 6300, Note_on_c, 0, 43, 0
2, 6360, Note_on_c, 0, 59, 0
2, 6390, Note_on_c, 0, 62, 85
2, 6393, Note_on_c, 0, 67, 94
2, 6438, Note_on_c, 0, 62, 0
2, 6448, Note_on_c, 0, 71, 0
2, 6494, Note_on_c, 0, 67, 0
2, 6582, Note_on_c, 0, 74, 116
2, 6590, Note_on_c, 0, 55, 100
2, 6596, Note_on_c, 0, 47, 78
2, 6602, Note_on_c, 0, 50, 83
2, 6736, Note_on_c, 0, 50, 0
2, 6768, Note_on_c, 0, 62, 93
2, 6834, Note_on_c, 0, 55, 0
2, 6964, Note_on_c, 0, 71, 82
2, 6967, Note_on_c, 0, 67, 65
2, 6984, Note_on_c, 0, 62, 0
2, 7166, Note_on_c, 0, 67, 0
2, 7180, Note_on_c, 0, 59, 94
2, 7186, Note_on_c, 0, 50, 72
2, 7192, Note_on_c, 0, 55, 83
2, 7200, Note_on_c, 0, 71, 0
2, 7404, Note_on_c, 0, 62, 72
2, 7428, Note_on_c, 0, 59, 0
2, 7510, Note_on_c, 0, 47, 0
2, 7532, Note_on_c, 0, 55, 0
2, 7566, Note_on_c, 0, 50, 0
2, 7570, Note_on_c, 0, 62, 0
2, 7682, Note_on_c, 0, 71, 83
2, 7694, Note_on_c, 0, 67, 54
2, 7718, Note_on_c, 0, 74, 0
2, 7752, Note_on_c, 0, 67, 0
2, 7754, Note_on_c, 0, 71, 0
2, 8374, Note_on_c, 0, 66, 69
2, 8378, Note_on_c, 0, 42, 77
2, 8386, Note_on_c, 0, 30, 80
2, 8578, Control_c, 0, 64, 0
2, 8602, Note_on_c, 0, 54, 75
2, 8746, Control_c, 0, 64, 127
2, 8768, Note_on_c, 0, 30, 0
2, 8792, Note_on_c, 0, 61, 73
2, 8795, Note_on_c, 0, 42, 0
2, 8798, Note_on_c, 0, 54, 0
2, 8936, Note_on_c, 0, 66, 0
2, 9000, Note_on_c, 0, 67, 97
2, 9006, Note_on_c, 0, 47, 90
2, 9010, Note_on_c, 0, 35, 101
2, 9032, Note_on_c, 0, 61, 0
2, 9054, Control_c, 0, 64, 0
2, 9184, Note_on_c, 0, 55, 71
2, 9206, Note_on_c, 0, 35, 0
2, 9254, Control_c, 0, 64, 127
2, 9257, Note_on_c, 0, 47, 0
2, 9350, Note_on_c, 0, 62, 66
2, 9392, Note_on_c, 0, 55, 0
2, 9518, Note_on_c, 0, 62, 0
2, 9536, Note_on_c, 0, 71, 115
2, 9704, Note_on_c, 0, 55, 62
2, 9832, Note_on_c, 0, 62, 73
2, 9856, Note_on_c, 0, 55, 0
2, 9858, Note_on_c, 0, 71, 0
2, 9976, Note_on_c, 0, 62, 0
2, 10018, Note_on_c, 0, 74, 112
2, 10096, Note_on_c, 0, 74, 0
2, 10186, Note_on_c, 0, 55, 66
2, 10288, Note_on_c, 0, 55, 0
2, 10312, Note_on_c, 0, 62, 81
2, 10330, Note_on_c, 0, 67, 0
2, 10358, Note_on_c, 0, 62, 0
2, 10464, Note_on_c, 0, 68, 105
2, 10470, Note_on_c, 0, 40, 111
2, 10472, Note_on_c, 0, 28, 90
2, 10514, Control_c, 0, 64, 0
2, 10618, Note_on_c, 0, 56, 82
2, 10634, Note_on_c, 0, 28, 0
2, 10682, Control_c, 0, 64, 127
2, 10684, Note_on_c, 0, 40, 0
2, 10762, Note_on_c, 0, 56, 0
2, 10778, Note_on_c, 0, 62, 79
2, 10852, Note_on_c, 0, 68, 0
2, 10916, Note_on_c, 0, 62, 0
2, 10944, Note_on_c, 0, 69, 100
2, 10946, Note_on_c, 0, 49, 106
2, 10954, Note_on_c, 0, 37, 101
2, 11006, Control_c, 0, 64, 0
2, 11126, Note_on_c, 0, 57, 85
2, 11160, Note_on_c, 0, 37, 0
2, 11190, Control_c, 0, 64, 127
2, 11193, Note_on_c, 0, 49, 0
2, 11276, Note_on_c, 0, 64, 81
2, 11314, Note_on_c, 0, 57, 0
2, 11400, Note_on_c, 0, 73, 103
2, 11422, Note_on_c, 0, 64, 0
2, 11518, Note_on_c, 0, 57, 80
2, 11674, Note_on_c, 0, 64, 85
2, 11684, Note_on_c, 0, 57, 0
2, 11786, Note_on_c, 0, 64, 0
2, 11794, Note_on_c, 0, 73, 0
2, 11820, Note_on_c, 0, 76, 108
2, 11910, Note_on_c, 0, 76, 0
2, 11918, Note_on_c, 0, 57, 74
2, 11994, Note_on_c, 0, 69, 0
2, 12000, Note_on_c, 0, 57, 0
2, 12056, Note_on_c, 0, 64, 67
2, 12102, Note_on_c, 0, 64, 0
2, 12348, Note_on_c, 0, 81, 124
2, 12352, Note_on_c, 0, 37, 104
2, 12356, Note_on_c, 0, 25, 106
2, 12510, Note_on_c, 0, 69, 67
2, 12538, Note_on_c, 0, 25, 0
2, 12574, Note_on_c, 0, 37, 0
2, 12700, Note_on_c, 0, 76, 77
2, 12720, Note_on_c, 0, 69, 0
2, 12740, Note_on_c, 0, 81, 0
2, 12868, Note_on_c, 0, 80, 115
2, 12878, Note_on_c, 0, 52, 118
2, 12880, Note_on_c, 0, 76, 0
2, 12880, Note_on_c, 0, 40, 115
2, 12894, Control_c, 0, 64, 0
2, 13014, Note_on_c, 0, 68, 72
2, 13096, Control_c, 0, 64, 127
2, 13160, Note_on_c, 0, 80, 0
2, 13168, Note_on_c, 0, 71, 72
2, 13194, Note_on_c, 0, 68, 0
2, 13242, Note_on_c, 0, 52, 0
2, 13270, Note_on_c, 0, 71, 0
2, 13306, Note_on_c, 0, 76, 113
2, 13326, Note_on_c, 0, 40, 0
2, 13432, Note_on_c, 0, 64, 88
2, 13524, Note_on_c, 0, 76, 0
2, 13548, Note_on_c, 0, 68, 89
2, 13588, Note_on_c, 0, 64, 0
2, 13666, Note_on_c, 0, 68, 0
2, 13704, Note_on_c, 0, 71, 119
2, 13704, Note_on_c, 0, 40, 125
2, 13718, Note_on_c, 0, 28, 96
2, 13754, Note_on_c, 0, 28, 0
2, 13804, Note_on_c, 0, 40, 0
2, 13804, Note_on_c, 0, 59, 95
2, 13916, Note_on_c, 0, 59, 0
2, 13960, Note_on_c, 0, 68, 90
2, 13994, Note_on_c, 0, 71, 0
2, 14086, Note_on_c, 0, 68, 0
2, 14118, Note_on_c, 0, 73, 113
2, 14130, Note_on_c, 0, 58, 90
2, 14148, Note_on_c, 0, 55, 74
2, 14152, Note_on_c, 0, 52, 87
2, 14232, Note_on_c, 0, 55, 0
2, 14244, Note_on_c, 0, 61, 89
2, 14268, Note_on_c, 0, 58, 0
2, 14280, Note_on_c, 0, 52, 0
2, 14400, Note_on_c, 0, 61, 0
2, 14404, Note_on_c, 0, 67, 81
2, 14404, Note_on_c, 0, 70, 81
2, 14474, Note_on_c, 0, 73, 0
2, 14478, Note_on_c, 0, 67, 0
2, 14576, Note_on_c, 0, 75, 116
2, 14576, Note_on_c, 0, 47, 111
2, 14582, Note_on_c, 0, 35, 120
2, 14584, Note_on_c, 0, 70, 0
2, 14600, Control_c, 0, 64, 0
2, 14728, Note_on_c, 0, 63, 103
2, 14782, Note_on_c, 0, 35, 0
2, 14830, Note_on_c, 0, 47, 0
2, 14846, Note_on_c, 0, 63, 0
2, 14846, Control_c, 0, 64, 127
2, 14878, Note_on_c, 0, 66, 79
2, 14888, Note_on_c, 0, 71, 97
2, 14924, Note_on_c, 0, 66, 0
2, 14970, Note_on_c, 0, 75, 0
2, 14996, Note_on_c, 0, 71, 0
2, 15068, Note_on_c, 0, 78, 113
2, 15074, Note_on_c, 0, 59, 109
2, 15074, Note_on_c, 0, 54, 101
2, 15088, Note_on_c, 0, 51, 80
2, 15256, Note_on_c, 0, 66, 87
2, 15350, Note_on_c, 0, 54, 0
2, 15384, Note_on_c, 0, 51, 0
2, 15388, Note_on_c, 0, 59, 0
2, 15438, Note_on_c, 0, 75, 80
2, 15452, Note_on_c, 0, 71, 82
2, 15481, Note_on_c, 0, 66, 0
2, 15626, Note_on_c, 0, 63, 104
2, 15629, Note_on_c, 0, 71, 0
2, 15629, Note_on_c, 0, 54, 92
2, 15652, Note_on_c, 0, 59, 86
2, 15692, Note_on_c, 0, 75, 0
2, 15756, Note_on_c, 0, 63, 0
2, 15780, Note_on_c, 0, 54, 0
2, 15783, Note_on_c, 0, 59, 0
2, 15842, Note_on_c, 0, 66, 92
2, 16064, Note_on_c, 0, 66, 0
2, 16160, Note_on_c, 0, 75, 92
2, 16168, Note_on_c, 0, 71, 89
2, 16256, Note_on_c, 0, 71, 0
2, 16266, Note_on_c, 0, 78, 0
2, 16540, Note_on_c, 0, 75, 0
2, 17566, Control_c, 0, 64, 0
2, 17578, Note_on_c, 0, 71, 127
2, 17581, Note_on_c, 0, 47, 115
2, 17581, Note_on_c, 0, 59, 123
2, 17584, Note_on_c, 0, 35, 119
2, 17662, Note_on_c, 0, 35, 0
2, 17678, Note_on_c, 0, 47, 0
2, 17702, Note_on_c, 0, 59, 0
2, 17720, Control_c, 0, 64, 127
2, 17768, Note_on_c, 0, 71, 0
2, 18106, Note_on_c, 0, 76, 121
2, 18112, Note_on_c, 0, 67, 101
2, 18112, Note_on_c, 0, 71, 118
2, 18116, Note_on_c, 0, 64, 120
2, 18116, Note_on_c, 0, 28, 115
2, 18118, Note_on_c, 0, 40, 127
2, 18166, Note_on_c, 0, 28, 0
2, 18196, Note_on_c, 0, 40, 0
2, 18234, Note_on_c, 0, 64, 0
2, 18258, Note_on_c, 0, 76, 0
2, 18330, Note_on_c, 0, 67, 0
2, 18333, Note_on_c, 0, 71, 0
2, 18504, Control_c, 0, 64, 0
2, 18768, Note_on_c, 0, 74, 124
2, 18770, Note_on_c, 0, 42, 115
2, 18770, Note_on_c, 0, 62, 119
2, 18774, Note_on_c, 0, 69, 102
2, 18776, Note_on_c, 0, 30, 111
2, 18780, Control_c, 0, 64, 127
2, 19072, Control_c, 0, 64, 0
2, 19270, Control_c, 0, 64, 127
2, 19284, Note_on_c, 0, 74, 0
2, 19288, Note_on_c, 0, 69, 0
2, 19300, Note_on_c, 0, 30, 0
2, 19354, Note_on_c, 0, 42, 0
2, 19372, Note_on_c, 0, 62, 0
2, 19516, Note_on_c, 0, 69, 95
2, 19519, Note_on_c, 0, 62, 93
2, 19548, Control_c, 0, 64, 0
2, 19562, Note_on_c, 0, 62, 0
2, 19572, Note_on_c, 0, 69, 0
2, 19666, Note_on_c, 0, 71, 116
2, 19668, Note_on_c, 0, 67, 103
2, 19670, Note_on_c, 0, 31, 109
2, 19672, Note_on_c, 0, 62, 92
2, 19674, Note_on_c, 0, 43, 108
2, 19704, Note_on_c, 0, 31, 0
2, 19726, Note_on_c, 0, 43, 0
2, 19729, Note_on_c, 0, 62, 0
2, 19748, Note_on_c, 0, 67, 0
2, 19782, Note_on_c, 0, 71, 0
2, 19834, Note_on_c, 0, 35, 111
2, 19834, Note_on_c, 0, 47, 94
2, 19920, Note_on_c, 0, 35, 0
2, 19938, Note_on_c, 0, 47, 0
2, 19984, Note_on_c, 0, 67, 85
2, 19987, Note_on_c, 0, 62, 85
2, 20030, Note_on_c, 0, 62, 0
2, 20036, Note_on_c, 0, 67, 0
2, 20130, Note_on_c, 0, 69, 85
2, 20130, Note_on_c, 0, 50, 105
2, 20133, Note_on_c, 0, 38, 100
2, 20136, Note_on_c, 0, 62, 67
2, 20136, Note_on_c, 0, 66, 66
2, 20170, Note_on_c, 0, 38, 0
2, 20173, Note_on_c, 0, 50, 0
2, 20196, Note_on_c, 0, 66, 0
2, 20212, Note_on_c, 0, 62, 0
2, 20226, Note_on_c, 0, 69, 0
2, 20254, Control_c, 0, 64, 127
2, 20298, Note_on_c, 0, 54, 110
2, 20302, Note_on_c, 0, 42, 95
2, 20332, Control_c, 0, 64, 0
2, 20372, Note_on_c, 0, 42, 0
2, 20372, Note_on_c, 0, 54, 0
2, 20434, Note_on_c, 0, 62, 96
2, 20498, Note_on_c, 0, 62, 0
2, 20584, Note_on_c, 0, 71, 108
2, 20584, Note_on_c, 0, 67, 95
2, 20587, Note_on_c, 0, 55, 115
2, 20587, Note_on_c, 0, 62, 90
2, 20594, Note_on_c, 0, 43, 104
2, 20630, Note_on_c, 0, 43, 0
2, 20644, Note_on_c, 0, 55, 0
2, 20664, Note_on_c, 0, 62, 0
2, 20682, Note_on_c, 0, 67, 0
2, 20702, Note_on_c, 0, 71, 0
2, 20744, Note_on_c, 0, 59, 109
2, 20748, Note_on_c, 0, 47, 101
2, 20828, Note_on_c, 0, 47, 0
2, 20838, Note_on_c, 0, 59, 0
2, 20872, Note_on_c, 0, 67, 97
2, 20884, Note_on_c, 0, 62, 82
2, 20928, Note_on_c, 0, 62, 0
2, 20968, Note_on_c, 0, 67, 0
2, 21030, Note_on_c, 0, 62, 109
2, 21030, Note_on_c, 0, 69, 97
2, 21033, Note_on_c, 0, 50, 117
2, 21036, Note_on_c, 0, 66, 83
2, 21082, Note_on_c, 0, 50, 0
2, 21102, Note_on_c, 0, 62, 0
2, 21172, Note_on_c, 0, 66, 0
2, 21192, Control_c, 0, 64, 127
2, 21206, Note_on_c, 0, 38, 109
2, 21210, Note_on_c, 0, 50, 115
2, 21226, Note_on_c, 0, 69, 0
2, 21238, Note_on_c, 0, 38, 0
2, 21246, Note_on_c, 0, 50, 0
2, 21252, Control_c, 0, 64, 0
2, 21324, Note_on_c, 0, 62, 102
2, 21434, Note_on_c, 0, 62, 0
2, 21480, Note_on_c, 0, 55, 97
2, 21480, Note_on_c, 0, 71, 112
2, 21480, Note_on_c, 0, 67, 104
2, 21483, Note_on_c, 0, 62, 121
2, 21483, Note_on_c, 0, 43, 102
2, 21516, Note_on_c, 0, 55, 0
2, 21524, Note_on_c, 0, 62, 0
2, 21536, Note_on_c, 0, 67, 0
2, 21544, Note_on_c, 0, 43, 0
2, 21560, Control_c, 0, 64, 127
2, 21588, Note_on_c, 0, 71, 0
2, 21650, Note_on_c, 0, 43, 98
2, 21654, Note_on_c, 0, 31, 112
2, 21684, Note_on_c, 0, 31, 0
2, 21684, Note_on_c, 0, 43, 0
2, 21776, Note_on_c, 0, 67, 111
2, 21868, Control_c, 0, 64, 0
2, 21898, Note_on_c, 0, 67, 0
2, 21982, Note_on_c, 0, 67, 119
2, 21984, Note_on_c, 0, 79, 126
2, 21984, Note_on_c, 0, 75, 110
2, 21988, Note_on_c, 0, 72, 112
2, 21988, Note_on_c, 0, 36, 123
2, 21988, Note_on_c, 0, 24, 125
2, 22034, Note_on_c, 0, 24, 0
2, 22084, Note_on_c, 0, 36, 0
2, 22114, Control_c, 0, 64, 127
2, 22120, Note_on_c, 0, 79, 0
2, 22134, Note_on_c, 0, 67, 0
2, 22174, Note_on_c, 0, 75, 0
2, 22174, Note_on_c, 0, 72, 0
2, 22374, Control_c, 0, 64, 0
2, 22634, Note_on_c, 0, 78, 118
2, 22638, Note_on_c, 0, 66, 110
2, 22642, Note_on_c, 0, 74, 111
2, 22644, Note_on_c, 0, 26, 119
2, 22644, Note_on_c, 0, 69, 96
2, 22646, Note_on_c, 0, 38, 118
2, 22652, Control_c, 0, 64, 127
2, 22694, Note_on_c, 0, 72, 21
2, 22762, Note_on_c, 0, 72, 0
2, 22836, Control_c, 0, 64, 0
2, 23174, Control_c, 0, 64, 127
2, 23198, Note_on_c, 0, 26, 0
2, 23224, Note_on_c, 0, 78, 0
2, 23226, Note_on_c, 0, 74, 0
2, 23248, Note_on_c, 0, 38, 0
2, 23250, Note_on_c, 0, 69, 0
2, 23286, Note_on_c, 0, 66, 0
2, 23462, Note_on_c, 0, 74, 104
2, 23464, Note_on_c, 0, 62, 92
2, 23466, Note_on_c, 0, 69, 85
2, 23518, Note_on_c, 0, 74, 0
2, 23522, Note_on_c, 0, 62, 0
2, 23536, Note_on_c, 0, 69, 0
2, 23606, Note_on_c, 0, 43, 106
2, 23606, Note_on_c, 0, 31, 108
2, 23618, Note_on_c, 0, 70, 94
2, 23618, Note_on_c, 0, 62, 94
2, 23618, Note_on_c, 0, 67, 90
2, 23640, Note_on_c, 0, 31, 0
2, 23644, Note_on_c, 0, 43, 0
2, 23708, Note_on_c, 0, 62, 0
2, 23710, Note_on_c, 0, 67, 0
2, 23740, Note_on_c, 0, 70, 0
2, 23742, Control_c, 0, 64, 0
2, 23766, Note_on_c, 0, 46, 103
2, 23769, Note_on_c, 0, 34, 100
2, 23828, Note_on_c, 0, 34, 0
2, 23880, Note_on_c, 0, 46, 0
2, 23922, Note_on_c, 0, 67, 100
2, 23925, Note_on_c, 0, 62, 93
2, 23972, Note_on_c, 0, 62, 0
2, 23990, Note_on_c, 0, 67, 0
2, 24080, Note_on_c, 0, 50, 109
2, 24080, Note_on_c, 0, 66, 87
2, 24083, Note_on_c, 0, 38, 95
2, 24083, Note_on_c, 0, 62, 81
2, 24116, Note_on_c, 0, 50, 0
2, 24119, Note_on_c, 0, 38, 0
2, 24132, Note_on_c, 0, 62, 0
2, 24188, Control_c, 0, 64, 127
2, 24208, Note_on_c, 0, 66, 0
2, 24228, Note_on_c, 0, 54, 109
2, 24238, Note_on_c, 0, 42, 86
2, 24248, Control_c, 0, 64, 0
2, 24276, Note_on_c, 0, 54, 0
2, 24282, Note_on_c, 0, 42, 0
2, 24354, Note_on_c, 0, 69, 98
2, 24358, Note_on_c, 0, 74, 108
2, 24358, Note_on_c, 0, 62, 111
2, 24414, Note_on_c, 0, 62, 0
2, 24420, Note_on_c, 0, 74, 0
2, 24464, Note_on_c, 0, 69, 0
2, 24514, Note_on_c, 0, 43, 110
2, 24514, Note_on_c, 0, 55, 111
2, 24517, Note_on_c, 0, 62, 109
2, 24517, Note_on_c, 0, 67, 101
2, 24517, Note_on_c, 0, 70, 98
2, 24546, Note_on_c, 0, 43, 0
2, 24558, Note_on_c, 0, 55, 0
2, 24620, Note_on_c, 0, 62, 0
2, 24632, Note_on_c, 0, 67, 0
2, 24648, Note_on_c, 0, 70, 0
2, 24648, Control_c, 0, 64, 127
2, 24660, Note_on_c, 0, 58, 101
2, 24665, Note_on_c, 0, 46, 102
2, 24710, Control_c, 0, 64, 0
2, 24724, Note_on_c, 0, 46, 0
2, 24750, Note_on_c, 0, 58, 0
2, 24816, Note_on_c, 0, 67, 97
2, 24820, Note_on_c, 0, 62, 92
2, 24866, Note_on_c, 0, 62, 0
2, 24894, Note_on_c, 0, 67, 0
2, 24960, Note_on_c, 0, 50, 113
2, 24962, Note_on_c, 0, 62, 95
2, 24970, Note_on_c, 0, 66, 95
2, 24992, Note_on_c, 0, 50, 0
2, 25064, Note_on_c, 0, 62, 0
2, 25080, Control_c, 0, 64, 127
2, 25122, Note_on_c, 0, 38, 112
2, 25128, Note_on_c, 0, 50, 89
2, 25130, Note_on_c, 0, 66, 0
2, 25150, Note_on_c, 0, 38, 0
2, 25170, Note_on_c, 0, 50, 0
2, 25202, Control_c, 0, 64, 0
2, 25242, Note_on_c, 0, 69, 90
2, 25245, Note_on_c, 0, 62, 109
2, 25250, Note_on_c, 0, 74, 100
2, 25298, Note_on_c, 0, 74, 0
2, 25306, Note_on_c, 0, 62, 0
2, 25352, Note_on_c, 0, 69, 0
2, 25400, Note_on_c, 0, 62, 112
2, 25404, Note_on_c, 0, 55, 100
2, 25406, Note_on_c, 0, 70, 98
2, 25408, Note_on_c, 0, 43, 95
2, 25408, Note_on_c, 0, 67, 97
2, 25438, Note_on_c, 0, 55, 0
2, 25448, Note_on_c, 0, 67, 0
2, 25448, Note_on_c, 0, 70, 0
2, 25458, Note_on_c, 0, 43, 0
2, 25478, Control_c, 0, 64, 127
2, 25502, Note_on_c, 0, 62, 0
2, 25580, Note_on_c, 0, 43, 93
2, 25582, Note_on_c, 0, 31, 97
2, 25620, Note_on_c, 0, 31, 0
2, 25620, Note_on_c, 0, 43, 0
2, 25720, Note_on_c, 0, 58, 87
2, 25720, Note_on_c, 0, 67, 104
2, 25723, Control_c, 0, 64, 0
2, 25738, Note_on_c, 0, 62, 95
2, 25780, Note_on_c, 0, 62, 0
2, 25812, Note_on_c, 0, 58, 0
2, 25815, Note_on_c, 0, 67, 0
2, 25906, Note_on_c, 0, 57, 108
2, 25911, Note_on_c, 0, 66, 108
2, 25911, Note_on_c, 0, 45, 105
2, 25916, Note_on_c, 0, 54, 125
2, 25924, Note_on_c, 0, 62, 111
2, 25946, Note_on_c, 0, 57, 0
2, 26004, Control_c, 0, 64, 127
2, 26016, Note_on_c, 0, 45, 0
2, 26114, Note_on_c, 0, 45, 81
2, 26122, Note_on_c, 0, 33, 104
2, 26154, Note_on_c, 0, 45, 0
2, 26158, Note_on_c, 0, 33, 0
2, 26298, Note_on_c, 0, 54, 0
2, 26354, Note_on_c, 0, 66, 0
2, 26492, Note_on_c, 0, 65, 109
2, 26494, Note_on_c, 0, 56, 103
2, 26504, Note_on_c, 0, 38, 108
2, 26506, Note_on_c, 0, 59, 102
2, 26510, Note_on_c, 0, 50, 104
2, 26550, Note_on_c, 0, 50, 0
2, 26552, Note_on_c, 0, 62, 0
2, 26608, Note_on_c, 0, 38, 0
2, 26770, Control_c, 0, 64, 0
2, 26773, Note_on_c, 0, 38, 111
2, 26776, Note_on_c, 0, 26, 112
2, 26968, Note_on_c, 0, 26, 0
2, 26970, Control_c, 0, 64, 127
2, 26986, Note_on_c, 0, 38, 0
2, 27042, Note_on_c, 0, 59, 0
2, 27042, Note_on_c, 0, 65, 0
2, 27094, Note_on_c, 0, 56, 0
2, 27298, Note_on_c, 0, 61, 106
2, 27300, Note_on_c, 0, 45, 104
2, 27300, Note_on_c, 0, 64, 120
2, 27302, Note_on_c, 0, 52, 120
2, 27306, Note_on_c, 0, 33, 110
2, 27352, Control_c, 0, 64, 0
2, 27510, Note_on_c, 0, 45, 0
2, 27568, Control_c, 0, 64, 127
2, 27572, Note_on_c, 0, 33, 0
2, 27748, Note_on_c, 0, 33, 115
2, 27748, Note_on_c, 0, 21, 113
2, 28248, Note_on_c, 0, 33, 0
2, 28700, Note_on_c, 0, 21, 0
2, 29022, Note_on_c, 0, 52, 0
2, 29404, Note_on_c, 0, 64, 0
2, 29470, Note_on_c, 0, 61, 0
2, 30946, Note_on_c, 0, 81, 69
2, 30948, Control_c, 0, 64, 0
2, 30958, Note_on_c, 0, 69, 33
2, 31212, Note_on_c, 0, 69, 0
2, 31226, Control_c, 0, 64, 127
2, 31332, Note_on_c, 0, 82, 77
2, 31332, Note_on_c, 0, 70, 55
2, 31400, Note_on_c, 0, 81, 0
2, 31486, Note_on_c, 0, 70, 0
2, 31542, Note_on_c, 0, 82, 0
2, 31584, Note_on_c, 0, 81, 100
2, 31590, Note_on_c, 0, 69, 60
2, 31654, Note_on_c, 0, 69, 0
2, 31816, Note_on_c, 0, 68, 65
2, 31820, Note_on_c, 0, 80, 90
2, 31834, Note_on_c, 0, 38, 37
2, 31854, Control_c, 0, 64, 0
2, 31868, Note_on_c, 0, 81, 0
2, 32024, Note_on_c, 0, 46, 43
2, 32116, Control_c, 0, 64, 127
2, 32132, Note_on_c, 0, 38, 0
2, 32184, Note_on_c, 0, 46, 0
2, 32232, Note_on_c, 0, 50, 64
2, 32296, Note_on_c, 0, 50, 0
2, 32440, Note_on_c, 0, 53, 83
2, 32640, Note_on_c, 0, 58, 26
2, 32648, Note_on_c, 0, 53, 0
2, 32676, Note_on_c, 0, 74, 87
2, 32790, Note_on_c, 0, 80, 0
2, 32846, Note_on_c, 0, 76, 88
2, 32849, Note_on_c, 0, 50, 59
2, 32902, Note_on_c, 0, 58, 0
2, 32924, Note_on_c, 0, 50, 0
2, 32958, Note_on_c, 0, 74, 0
2, 33028, Note_on_c, 0, 59, 71
2, 33028, Note_on_c, 0, 77, 96
2, 33054, Control_c, 0, 64, 0
2, 33092, Note_on_c, 0, 76, 0
2, 33202, Note_on_c, 0, 79, 103
2, 33205, Control_c, 0, 64, 127
2, 33226, Note_on_c, 0, 77, 0
2, 33234, Note_on_c, 0, 50, 59
2, 33266, Note_on_c, 0, 59, 0
2, 33318, Note_on_c, 0, 50, 0
2, 33348, Note_on_c, 0, 79, 0
2, 33378, Note_on_c, 0, 77, 96
2, 33468, Note_on_c, 0, 68, 0
2, 33568, Note_on_c, 0, 77, 0
2, 33586, Note_on_c, 0, 81, 100
2, 33598, Note_on_c, 0, 76, 54
2, 33600, Note_on_c, 0, 69, 69
2, 33606, Note_on_c, 0, 37, 64
2, 33622, Control_c, 0, 64, 0
2, 33766, Note_on_c, 0, 69, 0
2, 33776, Control_c, 0, 64, 127
2, 33866, Note_on_c, 0, 70, 71
2, 33869, Note_on_c, 0, 37, 0
2, 33869, Note_on_c, 0, 82, 92
2, 33898, Note_on_c, 0, 49, 55
2, 33920, Note_on_c, 0, 81, 0
2, 33960, Note_on_c, 0, 49, 0
2, 33986, Note_on_c, 0, 70, 0
2, 34040, Note_on_c, 0, 82, 0
2, 34050, Note_on_c, 0, 76, 0
2, 34088, Note_on_c, 0, 81, 95
2, 34102, Note_on_c, 0, 69, 57
2, 34120, Note_on_c, 0, 52, 66
2, 34172, Note_on_c, 0, 69, 0
2, 34190, Note_on_c, 0, 52, 0
2, 34298, Note_on_c, 0, 38, 54
2, 34304, Note_on_c, 0, 80, 86
2, 34308, Note_on_c, 0, 68, 75
2, 34344, Control_c, 0, 64, 0
2, 34360, Note_on_c, 0, 81, 0
2, 34520, Note_on_c, 0, 46, 42
2, 34590, Control_c, 0, 64, 127
2, 34614, Note_on_c, 0, 38, 0
2, 34688, Note_on_c, 0, 46, 0
2, 34756, Note_on_c, 0, 50, 47
2, 34826, Note_on_c, 0, 50, 0
2, 35012, Note_on_c, 0, 53, 63
2, 35100, Note_on_c, 0, 53, 0
2, 35194, Note_on_c, 0, 58, 41
2, 35202, Note_on_c, 0, 74, 75
2, 35390, Note_on_c, 0, 76, 80
2, 35398, Note_on_c, 0, 50, 59
2, 35424, Note_on_c, 0, 80, 0
2, 35452, Note_on_c, 0, 58, 0
2, 35492, Note_on_c, 0, 74, 0
2, 35504, Note_on_c, 0, 50, 0
2, 35578, Note_on_c, 0, 59, 66
2, 35584, Note_on_c, 0, 77, 82
2, 35662, Note_on_c, 0, 76, 0
2, 35712, Control_c, 0, 64, 0
2, 35768, Note_on_c, 0, 79, 101
2, 35790, Note_on_c, 0, 50, 63
2, 35793, Note_on_c, 0, 77, 0
2, 35850, Control_c, 0, 64, 127
2, 35874, Note_on_c, 0, 79, 0
2, 35876, Note_on_c, 0, 59, 0
2, 35932, Note_on_c, 0, 77, 93
2, 35950, Note_on_c, 0, 47, 65
2, 35956, Note_on_c, 0, 50, 0
2, 35996, Note_on_c, 0, 68, 0
2, 35998, Note_on_c, 0, 47, 0
2, 36108, Note_on_c, 0, 77, 0
2, 36124, Note_on_c, 0, 36, 83
2, 36127, Note_on_c, 0, 81, 105
2, 36142, Note_on_c, 0, 69, 75
2, 36142, Control_c, 0, 64, 0
2, 36152, Note_on_c, 0, 76, 57
2, 36244, Note_on_c, 0, 69, 0
2, 36280, Control_c, 0, 64, 127
2, 36302, Note_on_c, 0, 36, 0
2, 36344, Note_on_c, 0, 82, 88
2, 36344, Note_on_c, 0, 70, 77
2, 36347, Note_on_c, 0, 48, 56
2, 36380, Note_on_c, 0, 81, 0
2, 36444, Note_on_c, 0, 48, 0
2, 36447, Note_on_c, 0, 70, 0
2, 36480, Note_on_c, 0, 82, 0
2, 36542, Note_on_c, 0, 81, 90
2, 36544, Note_on_c, 0, 52, 64
2, 36548, Note_on_c, 0, 69, 65
2, 36560, Note_on_c, 0, 76, 0
2, 36592, Note_on_c, 0, 52, 0
2, 36670, Note_on_c, 0, 81, 0
2, 36692, Note_on_c, 0, 69, 0
2, 36754, Note_on_c, 0, 34, 56
2, 36842, Note_on_c, 0, 79, 96
2, 36848, Note_on_c, 0, 67, 60
2, 36878, Control_c, 0, 64, 0
2, 37068, Note_on_c, 0, 34, 0
2, 37072, Note_on_c, 0, 46, 49
2, 37080, Control_c, 0, 64, 127
2, 37126, Note_on_c, 0, 46, 0
2, 37268, Note_on_c, 0, 50, 67
2, 37360, Note_on_c, 0, 50, 0
2, 37446, Note_on_c, 0, 55, 65
2, 37586, Note_on_c, 0, 55, 0
2, 37634, Note_on_c, 0, 73, 74
2, 37646, Note_on_c, 0, 58, 46
2, 37724, Note_on_c, 0, 79, 0
2, 37766, Note_on_c, 0, 58, 0
2, 37814, Note_on_c, 0, 74, 100
2, 37838, Note_on_c, 0, 55, 60
2, 37902, Note_on_c, 0, 73, 0
2, 37944, Note_on_c, 0, 55, 0
2, 37986, Note_on_c, 0, 76, 89
2, 37989, Note_on_c, 0, 61, 78
2, 38062, Note_on_c, 0, 74, 0
2, 38126, Note_on_c, 0, 61, 0
2, 38170, Note_on_c, 0, 77, 96
2, 38180, Note_on_c, 0, 58, 62
2, 38204, Note_on_c, 0, 76, 0
2, 38336, Note_on_c, 0, 58, 0
2, 38336, Note_on_c, 0, 49, 83
2, 38348, Note_on_c, 0, 76, 94
2, 38372, Note_on_c, 0, 49, 0
2, 38398, Note_on_c, 0, 77, 0
2, 38420, Note_on_c, 0, 67, 0
2, 38528, Note_on_c, 0, 74, 104
2, 38530, Note_on_c, 0, 65, 80
2, 38538, Control_c, 0, 64, 0
2, 38548, Note_on_c, 0, 33, 85
2, 38582, Note_on_c, 0, 76, 0
2, 38690, Note_on_c, 0, 33, 0
2, 38696, Note_on_c, 0, 45, 65
2, 38706, Note_on_c, 0, 76, 92
2, 38708, Control_c, 0, 64, 127
2, 38738, Note_on_c, 0, 74, 0
2, 38762, Note_on_c, 0, 45, 0
2, 38846, Note_on_c, 0, 50, 81
2, 38876, Note_on_c, 0, 74, 103
2, 38890, Note_on_c, 0, 50, 0
2, 38908, Note_on_c, 0, 76, 0
2, 38934, Note_on_c, 0, 65, 0
2, 39040, Note_on_c, 0, 72, 100
2, 39046, Note_on_c, 0, 31, 93
2, 39050, Note_on_c, 0, 64, 81
2, 39062, Control_c, 0, 64, 0
2, 39074, Note_on_c, 0, 74, 0
2, 39202, Note_on_c, 0, 31, 0
2, 39210, Note_on_c, 0, 43, 74
2, 39224, Note_on_c, 0, 74, 105
2, 39230, Control_c, 0, 64, 127
2, 39244, Note_on_c, 0, 72, 0
2, 39256, Note_on_c, 0, 64, 0
2, 39262, Note_on_c, 0, 43, 0
2, 39360, Note_on_c, 0, 74, 0
2, 39370, Note_on_c, 0, 70, 85
2, 39370, Note_on_c, 0, 62, 94
2, 39382, Note_on_c, 0, 52, 59
2, 39426, Note_on_c, 0, 62, 0
2, 39434, Note_on_c, 0, 52, 0
2, 39510, Note_on_c, 0, 70, 0
2, 39538, Control_c, 0, 64, 0
2, 39544, Note_on_c, 0, 69, 89
2, 39546, Note_on_c, 0, 61, 98
2, 39552, Note_on_c, 0, 33, 81
2, 39698, Note_on_c, 0, 45, 71
2, 39702, Note_on_c, 0, 33, 0
2, 39714, Note_on_c, 0, 70, 93
2, 39736, Control_c, 0, 64, 127
2, 39748, Note_on_c, 0, 61, 0
2, 39757, Note_on_c, 0, 45, 0
2, 39760, Note_on_c, 0, 69, 0
2, 39878, Note_on_c, 0, 52, 96
2, 39881, Note_on_c, 0, 69, 95
2, 39938, Note_on_c, 0, 70, 0
2, 39944, Note_on_c, 0, 52, 0
2, 40090, Note_on_c, 0, 57, 63
2, 40093, Note_on_c, 0, 76, 90
2, 40098, Note_on_c, 0, 67, 77
2, 40118, Note_on_c, 0, 69, 0
2, 40122, Control_c, 0, 64, 0
2, 40288, Note_on_c, 0, 57, 0
2, 40322, Control_c, 0, 64, 127
2, 40325, Note_on_c, 0, 52, 58
2, 40472, Note_on_c, 0, 52, 0
2, 40488, Note_on_c, 0, 49, 55
2, 40540, Note_on_c, 0, 49, 0
2, 40556, Note_on_c, 0, 67, 0
2, 40684, Note_on_c, 0, 65, 65
2, 40692, Note_on_c, 0, 74, 77
2, 40702, Note_on_c, 0, 33, 58
2, 40720, Note_on_c, 0, 76, 0
2, 40720, Control_c, 0, 64, 0
2, 40858, Note_on_c, 0, 33, 0
2, 40876, Note_on_c, 0, 45, 59
2, 40878, Note_on_c, 0, 76, 72
2, 40890, Note_on_c, 0, 74, 0
2, 40890, Control_c, 0, 64, 127
2, 40938, Note_on_c, 0, 45, 0
2, 41012, Note_on_c, 0, 50, 79
2, 41038, Note_on_c, 0, 74, 94
2, 41056, Note_on_c, 0, 50, 0
2, 41058, Note_on_c, 0, 76, 0
2, 41088, Note_on_c, 0, 65, 0
2, 41178, Note_on_c, 0, 72, 98
2, 41181, Note_on_c, 0, 64, 80
2, 41181, Control_c, 0, 64, 0
2, 41194, Note_on_c, 0, 31, 87
2, 41202, Note_on_c, 0, 74, 0
2, 41332, Note_on_c, 0, 31, 0
2, 41332, Note_on_c, 0, 43, 74
2, 41350, Control_c, 0, 64, 127
2, 41352, Note_on_c, 0, 74, 105
2, 41356, Note_on_c, 0, 72, 0
2, 41372, Note_on_c, 0, 64, 0
2, 41382, Note_on_c, 0, 43, 0
2, 41476, Note_on_c, 0, 74, 0
2, 41476, Note_on_c, 0, 70, 93
2, 41479, Note_on_c, 0, 52, 85
2, 41484, Note_on_c, 0, 62, 95
2, 41518, Note_on_c, 0, 52, 0
2, 41530, Note_on_c, 0, 62, 0
2, 41602, Note_on_c, 0, 70, 0
2, 41642, Control_c, 0, 64, 0
2, 41644, Note_on_c, 0, 69, 90
2, 41646, Note_on_c, 0, 33, 93
2, 41646, Note_on_c, 0, 61, 100
2, 41790, Note_on_c, 0, 61, 0
2, 41790, Note_on_c, 0, 45, 82
2, 41796, Note_on_c, 0, 70, 96
2, 41800, Note_on_c, 0, 33, 0
2, 41812, Control_c, 0, 64, 127
2, 41848, Note_on_c, 0, 45, 0
2, 41852, Note_on_c, 0, 69, 0
2, 41950, Note_on_c, 0, 69, 75
2, 41976, Note_on_c, 0, 52, 89
2, 42026, Note_on_c, 0, 70, 0
2, 42066, Note_on_c, 0, 52, 0
2, 42134, Note_on_c, 0, 67, 90
2, 42136, Note_on_c, 0, 76, 101
2, 42146, Note_on_c, 0, 57, 82
2, 42160, Note_on_c, 0, 69, 0
2, 42164, Control_c, 0, 64, 0
2, 42312, Note_on_c, 0, 57, 0
2, 42334, Control_c, 0, 64, 127
2, 42344, Note_on_c, 0, 52, 78
2, 42422, Note_on_c, 0, 67, 0
2, 42425, Note_on_c, 0, 76, 0
2, 42474, Note_on_c, 0, 49, 87
2, 42498, Note_on_c, 0, 52, 0
2, 42510, Note_on_c, 0, 49, 0
2, 42640, Note_on_c, 0, 61, 100
2, 42648, Note_on_c, 0, 69, 86
2, 42658, Control_c, 0, 64, 0
2, 42658, Note_on_c, 0, 33, 87
2, 42742, Note_on_c, 0, 61, 0
2, 42790, Note_on_c, 0, 45, 82
2, 42796, Control_c, 0, 64, 127
2, 42799, Note_on_c, 0, 33, 0
2, 42818, Note_on_c, 0, 70, 89
2, 42838, Note_on_c, 0, 45, 0
2, 42858, Note_on_c, 0, 69, 0
2, 42934, Note_on_c, 0, 70, 0
2, 42954, Note_on_c, 0, 69, 72
2, 42956, Note_on_c, 0, 52, 92
2, 43060, Note_on_c, 0, 52, 0
2, 43102, Control_c, 0, 64, 0
2, 43104, Note_on_c, 0, 69, 0
2, 43110, Note_on_c, 0, 68, 95
2, 43113, Note_on_c, 0, 77, 116
2, 43118, Note_on_c, 0, 59, 102
2, 43268, Note_on_c, 0, 59, 0
2, 43302, Control_c, 0, 64, 127
2, 43306, Note_on_c, 0, 53, 104
2, 43308, Note_on_c, 0, 77, 0
2, 43380, Note_on_c, 0, 68, 0
2, 43426, Note_on_c, 0, 50, 97
2, 43444, Note_on_c, 0, 53, 0
2, 43464, Note_on_c, 0, 50, 0
2, 43594, Note_on_c, 0, 61, 98
2, 43600, Note_on_c, 0, 69, 87
2, 43603, Note_on_c, 0, 33, 108
2, 43610, Control_c, 0, 64, 0
2, 43708, Note_on_c, 0, 61, 0
2, 43726, Note_on_c, 0, 45, 95
2, 43740, Note_on_c, 0, 33, 0
2, 43762, Control_c, 0, 64, 127
2, 43764, Note_on_c, 0, 70, 90
2, 43767, Note_on_c, 0, 45, 0
2, 43810, Note_on_c, 0, 69, 0
2, 43850, Note_on_c, 0, 70, 0
2, 43904, Note_on_c, 0, 52, 111
2, 43908, Note_on_c, 0, 69, 74
2, 44028, Note_on_c, 0, 69, 0
2, 44040, Control_c, 0, 64, 0
2, 44052, Note_on_c, 0, 52, 0
2, 44056, Note_on_c, 0, 80, 118
2, 44064, Note_on_c, 0, 71, 97
2, 44067, Note_on_c, 0, 62, 118
2, 44224, Control_c, 0, 64, 127
2, 44240, Note_on_c, 0, 59, 102
2, 44242, Note_on_c, 0, 62, 0
2, 44274, Note_on_c, 0, 80, 0
2, 44288, Note_on_c, 0, 71, 0
2, 44380, Note_on_c, 0, 53, 119
2, 44400, Note_on_c, 0, 59, 0
2, 44420, Note_on_c, 0, 53, 0
2, 44552, Note_on_c, 0, 61, 98
2, 44556, Note_on_c, 0, 69, 96
2, 44558, Note_on_c, 0, 33, 126
2, 44562, Control_c, 0, 64, 0
2, 44674, Note_on_c, 0, 61, 0
2, 44734, Note_on_c, 0, 45, 105
2, 44740, Note_on_c, 0, 70, 95
2, 44746, Control_c, 0, 64, 127
2, 44750, Note_on_c, 0, 33, 0
2, 44788, Note_on_c, 0, 45, 0
2, 44791, Note_on_c, 0, 69, 0
2, 44820, Note_on_c, 0, 70, 0
2, 44916, Note_on_c, 0, 69, 108
2, 44930, Note_on_c, 0, 52, 118
2, 45196, Note_on_c, 0, 81, 120
2, 45199, Note_on_c, 0, 76, 105
2, 45199, Note_on_c, 0, 73, 88
2, 45206, Note_on_c, 0, 64, 112
2, 45208, Control_c, 0, 64, 0
2, 45430, Note_on_c, 0, 61, 89
2, 45436, Note_on_c, 0, 64, 0
2, 45438, Control_c, 0, 64, 127
2, 45450, Note_on_c, 0, 52, 0
2, 45586, Note_on_c, 0, 61, 0
2, 45600, Note_on_c, 0, 57, 87
2, 45646, Note_on_c, 0, 57, 0
2, 45760, Note_on_c, 0, 52, 101
2, 45852, Control_c, 0, 64, 0
2, 45926, Note_on_c, 0, 49, 79
2, 45950, Note_on_c, 0, 52, 0
2, 46022, Control_c, 0, 64, 127
2, 46068, Note_on_c, 0, 49, 0
2, 46092, Note_on_c, 0, 45, 79
2, 46140, Note_on_c, 0, 45, 0
2, 46268, Note_on_c, 0, 40, 92
2, 46298, Control_c, 0, 64, 0
2, 46398, Note_on_c, 0, 40, 0
2, 46402, Note_on_c, 0, 81, 0
2, 46424, Note_on_c, 0, 37, 62
2, 46468, Control_c, 0, 64, 127
2, 46494, Note_on_c, 0, 76, 0
2, 46532, Note_on_c, 0, 69, 0
2, 46568, Note_on_c, 0, 73, 0
2, 46606, Note_on_c, 0, 32, 59
2, 46642, Note_on_c, 0, 37, 0
2, 46784, Note_on_c, 0, 32, 0
2, 46820, Note_on_c, 0, 33, 71
2, 46822, Control_c, 0, 64, 0
2, 46894, Note_on_c, 0, 57, 50
2, 46934, Note_on_c, 0, 45, 40
2, 46974, Note_on_c, 0, 33, 0
2, 47058, Note_on_c, 0, 45, 0
2, 47066, Control_c, 0, 64, 127
2, 47090, Note_on_c, 0, 58, 55
2, 47100, Note_on_c, 0, 57, 0
2, 47106, Note_on_c, 0, 46, 54
2, 47170, Note_on_c, 0, 46, 0
2, 47264, Note_on_c, 0, 45, 52
2, 47274, Note_on_c, 0, 57, 59
2, 47308, Note_on_c, 0, 58, 0
2, 47322, Note_on_c, 0, 45, 0
2, 47328, Note_on_c, 0, 57, 0
2, 47450, Control_c, 0, 64, 0
2, 47470, Note_on_c, 0, 26, 89
2, 47474, Note_on_c, 0, 38, 66
2, 47474, Note_on_c, 0, 62, 57
2, 47488, Note_on_c, 0, 57, 48
2, 47576, Note_on_c, 0, 57, 0
2, 47664, Note_on_c, 0, 58, 40
2, 47714, Note_on_c, 0, 38, 0
2, 47728, Control_c, 0, 64, 127
2, 47744, Note_on_c, 0, 62, 0
2, 47748, Note_on_c, 0, 26, 0
2, 47816, Note_on_c, 0, 58, 0
2, 47832, Note_on_c, 0, 57, 49
2, 47894, Note_on_c, 0, 57, 0
2, 48004, Control_c, 0, 64, 0
2, 48024, Note_on_c, 0, 57, 41
2, 48032, Note_on_c, 0, 62, 65
2, 48036, Note_on_c, 0, 29, 59
2, 48036, Note_on_c, 0, 41, 46
2, 48164, Note_on_c, 0, 57, 0
2, 48200, Note_on_c, 0, 58, 40
2, 48250, Control_c, 0, 64, 127
2, 48272, Note_on_c, 0, 62, 0
2, 48312, Note_on_c, 0, 29, 0
2, 48320, Note_on_c, 0, 41, 0
2, 48374, Note_on_c, 0, 57, 51
2, 48392, Note_on_c, 0, 58, 0
2, 48430, Note_on_c, 0, 57, 0
2, 48552, Note_on_c, 0, 57, 19
2, 48555, Control_c, 0, 64, 0
2, 48560, Note_on_c, 0, 31, 52
2, 48562, Note_on_c, 0, 43, 39
2, 48568, Note_on_c, 0, 62, 50
2, 48728, Note_on_c, 0, 57, 0
2, 48738, Note_on_c, 0, 58, 37
2, 48818, Control_c, 0, 64, 127
2, 48820, Note_on_c, 0, 31, 0
2, 48868, Note_on_c, 0, 62, 0
2, 48900, Note_on_c, 0, 43, 0
2, 48912, Note_on_c, 0, 57, 47
2, 48934, Note_on_c, 0, 58, 0
2, 48974, Note_on_c, 0, 57, 0
2, 49032, Control_c, 0, 64, 0
2, 49060, Note_on_c, 0, 33, 58
2, 49084, Note_on_c, 0, 57, 32
2, 49110, Note_on_c, 0, 33, 0
2, 49120, Note_on_c, 0, 45, 59
2, 49188, Control_c, 0, 64, 127
2, 49228, Note_on_c, 0, 57, 0
2, 49246, Note_on_c, 0, 58, 43
2, 49248, Note_on_c, 0, 46, 63
2, 49252, Note_on_c, 0, 45, 0
2, 49368, Note_on_c, 0, 46, 0
2, 49398, Note_on_c, 0, 45, 79
2, 49422, Note_on_c, 0, 57, 56
2, 49432, Note_on_c, 0, 58, 0
2, 49440, Note_on_c, 0, 45, 0
2, 49480, Note_on_c, 0, 57, 0
2, 49592, Note_on_c, 0, 38, 74
2, 49594, Note_on_c, 0, 57, 35
2, 49600, Note_on_c, 0, 26, 75
2, 49610, Note_on_c, 0, 62, 54
2, 49618, Control_c, 0, 64, 0
2, 49766, Note_on_c, 0, 57, 0
2, 49768, Note_on_c, 0, 58, 48
2, 49836, Note_on_c, 0, 62, 0
2, 49862, Control_c, 0, 64, 127
2, 49864, Note_on_c, 0, 26, 0
2, 49892, Note_on_c, 0, 38, 0
2, 49940, Note_on_c, 0, 57, 56
2, 49980, Note_on_c, 0, 58, 0
2, 50000, Note_on_c, 0, 57, 0
2, 50108, Control_c, 0, 64, 0
2, 50126, Note_on_c, 0, 57, 44
2, 50126, Note_on_c, 0, 29, 48
2, 50126, Note_on_c, 0, 62, 67
2, 50134, Note_on_c, 0, 41, 50
2, 50254, Note_on_c, 0, 57, 0
2, 50288, Note_on_c, 0, 58, 43
2, 50374, Note_on_c, 0, 62, 0
2, 50386, Control_c, 0, 64, 127
2, 50398, Note_on_c, 0, 29, 0
2, 50432, Note_on_c, 0, 41, 0
2, 50454, Note_on_c, 0, 57, 55
2, 50482, Note_on_c, 0, 58, 0
2, 50516, Note_on_c, 0, 57, 0
2, 50646, Control_c, 0, 64, 0
2, 50650, Note_on_c, 0, 57, 25
2, 50655, Note_on_c, 0, 62, 49
2, 50662, Note_on_c, 0, 43, 39
2, 50664, Note_on_c, 0, 31, 41
2, 50824, Note_on_c, 0, 58, 41
2, 50830, Note_on_c, 0, 57, 0
2, 50920, Note_on_c, 0, 31, 0
2, 50922, Control_c, 0, 64, 127
2, 50936, Note_on_c, 0, 62, 0
2, 50984, Note_on_c, 0, 43, 0
2, 50998, Note_on_c, 0, 57, 41
2, 51030, Note_on_c, 0, 58, 0
2, 51058, Note_on_c, 0, 57, 0
2, 51098, Note_on_c, 0, 33, 62
2, 51108, Control_c, 0, 64, 0
2, 51142, Note_on_c, 0, 57, 35
2, 51160, Note_on_c, 0, 33, 0
2, 51182, Note_on_c, 0, 45, 55
2, 51276, Control_c, 0, 64, 127
2, 51284, Note_on_c, 0, 45, 0
2, 51316, Note_on_c, 0, 58, 50
2, 51326, Note_on_c, 0, 46, 58
2, 51328, Note_on_c, 0, 57, 0
2, 51390, Note_on_c, 0, 46, 0
2, 51410, Note_on_c, 0, 58, 0
2, 51488, Note_on_c, 0, 45, 65
2, 51488, Note_on_c, 0, 57, 62
2, 51540, Note_on_c, 0, 45, 0
2, 51550, Note_on_c, 0, 57, 0
2, 51694, Note_on_c, 0, 65, 60
2, 51696, Note_on_c, 0, 57, 46
2, 51698, Note_on_c, 0, 38, 79
2, 51700, Note_on_c, 0, 62, 49
2, 51704, Note_on_c, 0, 26, 71
2, 51722, Control_c, 0, 64, 0
2, 51846, Note_on_c, 0, 57, 0
2, 51850, Note_on_c, 0, 58, 57
2, 51906, Control_c, 0, 64, 127
2, 51916, Note_on_c, 0, 62, 0
2, 51922, Note_on_c, 0, 26, 0
2, 51930, Note_on_c, 0, 38, 0
2, 52004, Note_on_c, 0, 58, 0
2, 52018, Note_on_c, 0, 65, 0
2, 52018, Note_on_c, 0, 57, 56
2, 52062, Note_on_c, 0, 40, 112
2, 52068, Note_on_c, 0, 28, 85
2, 52076, Note_on_c, 0, 57, 0
2, 52096, Note_on_c, 0, 40, 0
2, 52104, Note_on_c, 0, 28, 0
2, 52184, Note_on_c, 0, 65, 70
2, 52186, Note_on_c, 0, 57, 44
2, 52200, Note_on_c, 0, 62, 70
2, 52202, Note_on_c, 0, 41, 98
2, 52210, Note_on_c, 0, 29, 88
2, 52230, Control_c, 0, 64, 0
2, 52352, Note_on_c, 0, 58, 70
2, 52376, Note_on_c, 0, 57, 0
2, 52416, Note_on_c, 0, 41, 0
2, 52430, Note_on_c, 0, 62, 0
2, 52430, Control_c, 0, 64, 127
2, 52448, Note_on_c, 0, 29, 0
2, 52528, Note_on_c, 0, 38, 109
2, 52528, Note_on_c, 0, 26, 109
2, 52532, Note_on_c, 0, 57, 71
2, 52534, Note_on_c, 0, 58, 0
2, 52540, Note_on_c, 0, 65, 0
2, 52558, Note_on_c, 0, 26, 0
2, 52562, Note_on_c, 0, 38, 0
2, 52584, Note_on_c, 0, 57, 0
2, 52660, Note_on_c, 0, 57, 65
2, 52674, Note_on_c, 0, 65, 80
2, 52682, Note_on_c, 0, 46, 110
2, 52688, Note_on_c, 0, 62, 78
2, 52692, Note_on_c, 0, 34, 98
2, 52766, Control_c, 0, 64, 0
2, 52856, Note_on_c, 0, 58, 67
2, 52870, Note_on_c, 0, 57, 0
2, 52998, Control_c, 0, 64, 127
2, 53026, Note_on_c, 0, 57, 71
2, 53038, Note_on_c, 0, 58, 0
2, 53064, Note_on_c, 0, 65, 0
2, 53076, Note_on_c, 0, 46, 0
2, 53078, Note_on_c, 0, 57, 0
2, 53096, Note_on_c, 0, 62, 0
2, 53172, Note_on_c, 0, 34, 0
2, 53192, Note_on_c, 0, 57, 39
2, 53202, Note_on_c, 0, 64, 90
2, 53205, Note_on_c, 0, 43, 74
2, 53208, Note_on_c, 0, 31, 78
2, 53214, Note_on_c, 0, 55, 77
2, 53228, Control_c, 0, 64, 0
2, 53338, Note_on_c, 0, 57, 0
2, 53380, Note_on_c, 0, 58, 47
2, 53420, Note_on_c, 0, 43, 0
2, 53442, Control_c, 0, 64, 127
2, 53456, Note_on_c, 0, 55, 0
2, 53461, Note_on_c, 0, 31, 0
2, 53532, Note_on_c, 0, 64, 0
2, 53538, Note_on_c, 0, 57, 65
2, 53564, Note_on_c, 0, 28, 56
2, 53572, Note_on_c, 0, 58, 0
2, 53590, Note_on_c, 0, 57, 0
2, 53612, Note_on_c, 0, 28, 0
2, 53704, Note_on_c, 0, 57, 27
2, 53710, Note_on_c, 0, 62, 66
2, 53716, Note_on_c, 0, 53, 80
2, 53718, Note_on_c, 0, 45, 62
2, 53720, Control_c, 0, 64, 0
2, 53724, Note_on_c, 0, 33, 55
2, 53828, Note_on_c, 0, 57, 0
2, 53862, Note_on_c, 0, 58, 43
2, 53996, Control_c, 0, 64, 127
2, 54010, Note_on_c, 0, 57, 50
2, 54026, Note_on_c, 0, 53, 0
2, 54044, Note_on_c, 0, 58, 0
2, 54044, Note_on_c, 0, 45, 0
2, 54060, Note_on_c, 0, 33, 0
2, 54066, Note_on_c, 0, 62, 0
2, 54070, Note_on_c, 0, 57, 0
2, 54220, Note_on_c, 0, 61, 64
2, 54226, Control_c, 0, 64, 0
2, 54240, Note_on_c, 0, 52, 49
2, 54242, Note_on_c, 0, 45, 43
2, 54242, Note_on_c, 0, 33, 48
2, 54244, Note_on_c, 0, 57, 52
2, 54322, Note_on_c, 0, 57, 0
2, 54402, Note_on_c, 0, 58, 42
2, 54462, Note_on_c, 0, 52, 0
2, 54472, Control_c, 0, 64, 127
2, 54514, Note_on_c, 0, 33, 0
2, 54534, Note_on_c, 0, 45, 0
2, 54562, Note_on_c, 0, 61, 0
2, 54570, Note_on_c, 0, 57, 28
2, 54578, Note_on_c, 0, 58, 0
2, 54638, Note_on_c, 0, 57, 0
2, 54702, Control_c, 0, 64, 0
2, 54728, Note_on_c, 0, 53, 77
2, 54730, Note_on_c, 0, 45, 31
2, 54733, Note_on_c, 0, 57, 20
2, 54736, Note_on_c, 0, 62, 52
2, 54748, Note_on_c, 0, 33, 41
2, 54856, Note_on_c, 0, 57, 0
2, 54866, Note_on_c, 0, 33, 0
2, 54888, Control_c, 0, 64, 127
2, 54896, Note_on_c, 0, 45, 0
2, 54908, Note_on_c, 0, 53, 0
2, 54912, Note_on_c, 0, 58, 37
2, 54982, Note_on_c, 0, 62, 0
2, 55064, Note_on_c, 0, 58, 0
2, 55158, Note_on_c, 0, 45, 57
2, 55194, Control_c, 0, 64, 0
2, 55258, Note_on_c, 0, 52, 77
2, 55284, Note_on_c, 0, 64, 75
2, 55284, Note_on_c, 0, 69, 69
2, 55306, Note_on_c, 0, 52, 0
2, 55324, Note_on_c, 0, 45, 0
2, 55327, Note_on_c, 0, 57, 77
2, 55380, Control_c, 0, 64, 127
2, 55434, Note_on_c, 0, 69, 0
2, 55438, Note_on_c, 0, 57, 0
2, 55444, Note_on_c, 0, 70, 65
2, 55460, Note_on_c, 0, 58, 67
2, 55530, Note_on_c, 0, 58, 0
2, 55596, Note_on_c, 0, 57, 71
2, 55608, Note_on_c, 0, 69, 77
2, 55614, Note_on_c, 0, 64, 0
2, 55636, Note_on_c, 0, 70, 0
2, 55642, Note_on_c, 0, 57, 0
2, 55658, Note_on_c, 0, 69, 0
2, 55824, Note_on_c, 0, 74, 93
2, 55828, Note_on_c, 0, 69, 58
2, 55830, Note_on_c, 0, 62, 75
2, 55838, Note_on_c, 0, 38, 72
2, 55841, Note_on_c, 0, 50, 72
2, 55886, Control_c, 0, 64, 0
2, 56014, Note_on_c, 0, 69, 0
2, 56036, Note_on_c, 0, 70, 54
2, 56064, Note_on_c, 0, 38, 0
2, 56085, Control_c, 0, 64, 127
2, 56100, Note_on_c, 0, 50, 0
2, 56240, Note_on_c, 0, 69, 50
2, 56252, Note_on_c, 0, 62, 0
2, 56254, Note_on_c, 0, 70, 0
2, 56268, Note_on_c, 0, 74, 0
2, 56300, Note_on_c, 0, 69, 0
2, 56374, Note_on_c, 0, 74, 69
2, 56378, Note_on_c, 0, 69, 36
2, 56380, Note_on_c, 0, 53, 111
2, 56386, Note_on_c, 0, 62, 62
2, 56386, Note_on_c, 0, 41, 78
2, 56536, Note_on_c, 0, 70, 62
2, 56542, Note_on_c, 0, 69, 0
2, 56626, Note_on_c, 0, 74, 0
2, 56636, Note_on_c, 0, 62, 0
2, 56692, Note_on_c, 0, 70, 0
2, 56720, Note_on_c, 0, 41, 0
2, 56732, Note_on_c, 0, 69, 57
2, 56742, Note_on_c, 0, 53, 0
2, 56786, Note_on_c, 0, 69, 0
2, 56892, Note_on_c, 0, 74, 96
2, 56894, Note_on_c, 0, 69, 47
2, 56900, Note_on_c, 0, 62, 74
2, 56902, Note_on_c, 0, 55, 90
2, 56912, Note_on_c, 0, 43, 75
2, 56916, Control_c, 0, 64, 0
2, 57058, Note_on_c, 0, 70, 67
2, 57078, Note_on_c, 0, 69, 0
2, 57126, Note_on_c, 0, 43, 0
2, 57130, Control_c, 0, 64, 127
2, 57138, Note_on_c, 0, 62, 0
2, 57200, Note_on_c, 0, 55, 0
2, 57203, Note_on_c, 0, 69, 65
2, 57240, Note_on_c, 0, 74, 0
2, 57258, Note_on_c, 0, 70, 0
2, 57266, Note_on_c, 0, 69, 0
2, 57338, Note_on_c, 0, 45, 77
2, 57400, Note_on_c, 0, 69, 85
2, 57408, Control_c, 0, 64, 0
2, 57438, Note_on_c, 0, 57, 82
2, 57482, Note_on_c, 0, 45, 0
2, 57546, Control_c, 0, 64, 127
2, 57586, Note_on_c, 0, 70, 80
2, 57606, Note_on_c, 0, 58, 71
2, 57620, Note_on_c, 0, 69, 0
2, 57624, Note_on_c, 0, 57, 0
2, 57726, Note_on_c, 0, 58, 0
2, 57756, Note_on_c, 0, 69, 93
2, 57759, Note_on_c, 0, 57, 87
2, 57798, Note_on_c, 0, 57, 0
2, 57812, Note_on_c, 0, 70, 0
2, 57816, Note_on_c, 0, 69, 0
2, 57956, Note_on_c, 0, 74, 102
2, 57962, Note_on_c, 0, 69, 67
2, 57968, Note_on_c, 0, 38, 90
2, 57970, Note_on_c, 0, 62, 78
2, 57972, Note_on_c, 0, 50, 87
2, 58052, Control_c, 0, 64, 0
2, 58134, Note_on_c, 0, 69, 0
2, 58134, Note_on_c, 0, 70, 67
2, 58252, Control_c, 0, 64, 127
2, 58286, Note_on_c, 0, 38, 0
2, 58312, Note_on_c, 0, 69, 73
2, 58316, Note_on_c, 0, 50, 0
2, 58322, Note_on_c, 0, 62, 0
2, 58348, Note_on_c, 0, 74, 0
2, 58366, Note_on_c, 0, 69, 0
2, 58370, Note_on_c, 0, 70, 0
2, 58490, Note_on_c, 0, 74, 104
2, 58494, Note_on_c, 0, 62, 86
2, 58494, Note_on_c, 0, 69, 73
2, 58506, Note_on_c, 0, 53, 106
2, 58509, Note_on_c, 0, 41, 79
2, 58560, Control_c, 0, 64, 0
2, 58652, Note_on_c, 0, 70, 71
2, 58686, Note_on_c, 0, 69, 0
2, 58728, Control_c, 0, 64, 127
2, 58782, Note_on_c, 0, 41, 0
2, 58782, Note_on_c, 0, 53, 0
2, 58826, Note_on_c, 0, 69, 74
2, 58860, Note_on_c, 0, 74, 0
2, 58892, Note_on_c, 0, 62, 0
2, 58900, Note_on_c, 0, 70, 0
2, 58924, Note_on_c, 0, 69, 0
2, 58982, Note_on_c, 0, 69, 85
2, 58985, Note_on_c, 0, 62, 79
2, 58992, Note_on_c, 0, 74, 108
2, 58998, Note_on_c, 0, 43, 86
2, 59000, Note_on_c, 0, 55, 96
2, 59020, Control_c, 0, 64, 0
2, 59152, Note_on_c, 0, 70, 79
2, 59192, Note_on_c, 0, 69, 0
2, 59220, Control_c, 0, 64, 127
2, 59226, Note_on_c, 0, 62, 0
2, 59302, Note_on_c, 0, 43, 0
2, 59302, Note_on_c, 0, 69, 74
2, 59368, Note_on_c, 0, 55, 0
2, 59392, Note_on_c, 0, 70, 0
2, 59424, Note_on_c, 0, 69, 0
2, 59430, Note_on_c, 0, 74, 0
2, 59444, Note_on_c, 0, 45, 92
2, 59466, Control_c, 0, 64, 0
2, 59486, Note_on_c, 0, 69, 86
2, 59520, Note_on_c, 0, 57, 96
2, 59554, Note_on_c, 0, 45, 0
2, 59620, Control_c, 0, 64, 127
2, 59664, Note_on_c, 0, 58, 75
2, 59664, Note_on_c, 0, 70, 93
2, 59676, Note_on_c, 0, 57, 0
2, 59702, Note_on_c, 0, 69, 0
2, 59782, Note_on_c, 0, 58, 0
2, 59810, Note_on_c, 0, 69, 77
2, 59818, Note_on_c, 0, 57, 90
2, 59852, Note_on_c, 0, 70, 0
2, 59858, Note_on_c, 0, 57, 0
2, 59910, Note_on_c, 0, 69, 0
2, 60022, Note_on_c, 0, 77, 89
2, 60024, Note_on_c, 0, 38, 94
2, 60024, Note_on_c, 0, 69, 59
2, 60026, Note_on_c, 0, 50, 95
2, 60028, Note_on_c, 0, 74, 81
2, 60066, Control_c, 0, 64, 0
2, 60202, Note_on_c, 0, 70, 79
2, 60234, Note_on_c, 0, 69, 0
2, 60250, Control_c, 0, 64, 127
2, 60288, Note_on_c, 0, 38, 0
2, 60291, Note_on_c, 0, 50, 0
2, 60302, Note_on_c, 0, 74, 0
2, 60376, Note_on_c, 0, 69, 75
2, 60386, Note_on_c, 0, 70, 0
2, 60390, Note_on_c, 0, 77, 0
2, 60414, Note_on_c, 0, 52, 111
2, 60416, Note_on_c, 0, 40, 112
2, 60428, Note_on_c, 0, 69, 0
2, 60448, Note_on_c, 0, 40, 0
2, 60466, Note_on_c, 0, 52, 0
2, 60550, Note_on_c, 0, 77, 95
2, 60558, Note_on_c, 0, 69, 88
2, 60560, Note_on_c, 0, 74, 88
2, 60562, Note_on_c, 0, 53, 126
2, 60570, Note_on_c, 0, 41, 104
2, 60588, Control_c, 0, 64, 0
2, 60714, Note_on_c, 0, 70, 85
2, 60740, Note_on_c, 0, 53, 0
2, 60746, Note_on_c, 0, 69, 0
2, 60772, Control_c, 0, 64, 127
2, 60780, Note_on_c, 0, 41, 0
2, 60788, Note_on_c, 0, 74, 0
2, 60878, Note_on_c, 0, 38, 100
2, 60880, Note_on_c, 0, 50, 101
2, 60884, Note_on_c, 0, 69, 74
2, 60888, Note_on_c, 0, 77, 0
2, 60894, Note_on_c, 0, 70, 0
2, 60910, Note_on_c, 0, 38, 0
2, 60918, Note_on_c, 0, 50, 0
2, 60932, Note_on_c, 0, 69, 0
2, 61032, Note_on_c, 0, 77, 105
2, 61034, Note_on_c, 0, 69, 65
2, 61040, Note_on_c, 0, 74, 90
2, 61044, Note_on_c, 0, 58, 101
2, 61050, Note_on_c, 0, 46, 95
2, 61172, Control_c, 0, 64, 0
2, 61190, Note_on_c, 0, 70, 79
2, 61198, Note_on_c, 0, 69, 0
2, 61338, Note_on_c, 0, 69, 82
2, 61340, Control_c, 0, 64, 127
2, 61370, Note_on_c, 0, 46, 0
2, 61388, Note_on_c, 0, 58, 0
2, 61412, Note_on_c, 0, 77, 0
2, 61432, Note_on_c, 0, 70, 0
2, 61444, Note_on_c, 0, 69, 0
2, 61448, Note_on_c, 0, 74, 0
2, 61526, Note_on_c, 0, 69, 69
2, 61530, Note_on_c, 0, 43, 94
2, 61530, Note_on_c, 0, 76, 105
2, 61530, Note_on_c, 0, 55, 102
2, 61536, Note_on_c, 0, 67, 96
2, 61632, Control_c, 0, 64, 0
2, 61680, Note_on_c, 0, 70, 79
2, 61692, Note_on_c, 0, 69, 0
2, 61756, Control_c, 0, 64, 127
2, 61768, Note_on_c, 0, 55, 0
2, 61794, Note_on_c, 0, 67, 0
2, 61799, Note_on_c, 0, 43, 0
2, 61852, Note_on_c, 0, 69, 82
2, 61876, Note_on_c, 0, 52, 116
2, 61878, Note_on_c, 0, 40, 120
2, 61900, Note_on_c, 0, 76, 0
2, 61904, Note_on_c, 0, 40, 0
2, 61914, Note_on_c, 0, 70, 0
2, 61918, Note_on_c, 0, 52, 0
2, 61948, Note_on_c, 0, 69, 0
2, 62012, Note_on_c, 0, 76, 102
2, 62014, Note_on_c, 0, 69, 80
2, 62024, Note_on_c, 0, 65, 96
2, 62032, Note_on_c, 0, 57, 100
2, 62035, Note_on_c, 0, 45, 93
2, 62094, Control_c, 0, 64, 0
2, 62180, Note_on_c, 0, 70, 78
2, 62204, Note_on_c, 0, 69, 0
2, 62324, Control_c, 0, 64, 127
2, 62340, Note_on_c, 0, 69, 87
2, 62380, Note_on_c, 0, 57, 0
2, 62390, Note_on_c, 0, 65, 0
2, 62406, Note_on_c, 0, 76, 0
2, 62412, Note_on_c, 0, 70, 0
2, 62420, Note_on_c, 0, 45, 0
2, 62460, Note_on_c, 0, 69, 0
2, 62502, Note_on_c, 0, 74, 117
2, 62508, Note_on_c, 0, 69, 90
2, 62512, Note_on_c, 0, 65, 94
2, 62514, Note_on_c, 0, 53, 121
2, 62514, Note_on_c, 0, 41, 109
2, 62670, Note_on_c, 0, 69, 0
2, 62678, Note_on_c, 0, 70, 73
2, 62726, Note_on_c, 0, 53, 0
2, 62770, Note_on_c, 0, 41, 0
2, 62772, Note_on_c, 0, 65, 0
2, 62832, Note_on_c, 0, 74, 0
2, 62840, Note_on_c, 0, 69, 86
2, 62844, Note_on_c, 0, 38, 109
2, 62848, Note_on_c, 0, 50, 111
2, 62878, Note_on_c, 0, 38, 0
2, 62888, Note_on_c, 0, 70, 0
2, 62894, Note_on_c, 0, 50, 0
2, 62918, Note_on_c, 0, 69, 0
2, 62984, Note_on_c, 0, 74, 116
2, 62992, Note_on_c, 0, 69, 77
2, 62996, Note_on_c, 0, 64, 104
2, 63000, Control_c, 0, 64, 0
2, 63012, Note_on_c, 0, 57, 108
2, 63016, Note_on_c, 0, 45, 100
2, 63160, Note_on_c, 0, 70, 83
2, 63170, Note_on_c, 0, 69, 0
2, 63196, Note_on_c, 0, 57, 0
2, 63199, Control_c, 0, 64, 127
2, 63246, Note_on_c, 0, 45, 0
2, 63262, Note_on_c, 0, 64, 0
2, 63312, Note_on_c, 0, 69, 90
2, 63356, Note_on_c, 0, 74, 0
2, 63366, Note_on_c, 0, 70, 0
2, 63430, Note_on_c, 0, 69, 0
2, 63490, Note_on_c, 0, 73, 109
2, 63490, Note_on_c, 0, 69, 80
2, 63496, Note_on_c, 0, 45, 100
2, 63502, Note_on_c, 0, 64, 105
2, 63506, Note_on_c, 0, 33, 101
2, 63600, Control_c, 0, 64, 0
2, 63630, Note_on_c, 0, 69, 0
2, 63652, Note_on_c, 0, 70, 92
2, 63694, Note_on_c, 0, 64, 0
2, 63718, Note_on_c, 0, 33, 0
2, 63738, Control_c, 0, 64, 127
2, 63760, Note_on_c, 0, 45, 0
2, 63812, Note_on_c, 0, 69, 102
2, 63862, Note_on_c, 0, 69, 0
2, 63864, Note_on_c, 0, 73, 0
2, 63870, Note_on_c, 0, 70, 0
2, 63990, Note_on_c, 0, 81, 118
2, 63990, Note_on_c, 0, 50, 115
2, 63993, Note_on_c, 0, 38, 105
2, 63998, Note_on_c, 0, 77, 113
2, 64076, Control_c, 0, 64, 0
2, 64176, Note_on_c, 0, 70, 96
2, 64214, Control_c, 0, 64, 127
2, 64238, Note_on_c, 0, 38, 0
2, 64250, Note_on_c, 0, 50, 0
2, 64306, Note_on_c, 0, 77, 0
2, 64312, Note_on_c, 0, 81, 0
2, 64320, Note_on_c, 0, 70, 0
2, 64358, Note_on_c, 0, 69, 90
2, 64374, Note_on_c, 0, 52, 123
2, 64380, Note_on_c, 0, 40, 124
2, 64410, Note_on_c, 0, 40, 0
2, 64456, Note_on_c, 0, 52, 0
2, 64500, Note_on_c, 0, 81, 118
2, 64500, Note_on_c, 0, 77, 102
2, 64506, Note_on_c, 0, 69, 0
2, 64518, Note_on_c, 0, 53, 127
2, 64521, Control_c, 0, 64, 0
2, 64524, Note_on_c, 0, 41, 121
2, 64664, Note_on_c, 0, 70, 102
2, 64680, Note_on_c, 0, 53, 0
2, 64690, Control_c, 0, 64, 127
2, 64724, Note_on_c, 0, 41, 0
2, 64768, Note_on_c, 0, 77, 0
2, 64776, Note_on_c, 0, 81, 0
2, 64800, Note_on_c, 0, 70, 0
2, 64824, Note_on_c, 0, 50, 121
2, 64826, Note_on_c, 0, 38, 115
2, 64834, Note_on_c, 0, 69, 101
2, 64854, Note_on_c, 0, 38, 0
2, 64884, Note_on_c, 0, 50, 0
2, 64982, Note_on_c, 0, 69, 0
2, 65008, Note_on_c, 0, 81, 110
2, 65014, Note_on_c, 0, 77, 93
2, 65042, Note_on_c, 0, 58, 118
2, 65050, Note_on_c, 0, 46, 112
2, 65196, Note_on_c, 0, 70, 98
2, 65198, Control_c, 0, 64, 0
2, 65350, Control_c, 0, 64, 127
2, 65352, Note_on_c, 0, 69, 90
2, 65368, Note_on_c, 0, 70, 0
2, 65386, Note_on_c, 0, 81, 0
2, 65424, Note_on_c, 0, 77, 0
2, 65427, Note_on_c, 0, 58, 0
2, 65432, Note_on_c, 0, 46, 0
2, 65456, Note_on_c, 0, 69, 0
2, 65510, Note_on_c, 0, 69, 101
2, 65512, Note_on_c, 0, 79, 115
2, 65516, Note_on_c, 0, 76, 97
2, 65518, Note_on_c, 0, 55, 115
2, 65522, Note_on_c, 0, 43, 111
2, 65666, Note_on_c, 0, 70, 89
2, 65692, Note_on_c, 0, 69, 0
2, 65716, Note_on_c, 0, 55, 0
2, 65764, Note_on_c, 0, 43, 0
2, 65766, Note_on_c, 0, 79, 0
2, 65816, Note_on_c, 0, 70, 0
2, 65819, Note_on_c, 0, 69, 97
2, 65842, Note_on_c, 0, 52, 126
2, 65847, Note_on_c, 0, 40, 124
2, 65874, Note_on_c, 0, 40, 0
2, 65904, Note_on_c, 0, 52, 0
2, 65916, Note_on_c, 0, 76, 0
2, 65938, Note_on_c, 0, 69, 0
2, 65984, Note_on_c, 0, 76, 90
2, 65986, Note_on_c, 0, 69, 102
2, 65989, Note_on_c, 0, 77, 111
2, 66006, Note_on_c, 0, 57, 116
2, 66010, Note_on_c, 0, 45, 111
2, 66058, Control_c, 0, 64, 0
2, 66162, Note_on_c, 0, 70, 82
2, 66232, Note_on_c, 0, 69, 0
2, 66242, Control_c, 0, 64, 127
2, 66308, Note_on_c, 0, 69, 71
2, 66344, Note_on_c, 0, 57, 0
2, 66378, Note_on_c, 0, 45, 0
2, 66381, Note_on_c, 0, 77, 0
2, 66384, Note_on_c, 0, 70, 0
2, 66402, Note_on_c, 0, 76, 0
2, 66412, Note_on_c, 0, 69, 0
2, 66464, Note_on_c, 0, 77, 93
2, 66464, Note_on_c, 0, 53, 127
2, 66467, Note_on_c, 0, 41, 115
2, 66470, Note_on_c, 0, 69, 95
2, 66474, Note_on_c, 0, 74, 108
2, 66614, Note_on_c, 0, 70, 83
2, 66632, Note_on_c, 0, 69, 0
2, 66642, Note_on_c, 0, 53, 0
2, 66698, Note_on_c, 0, 41, 0
2, 66722, Note_on_c, 0, 74, 0
2, 66776, Note_on_c, 0, 69, 79
2, 66788, Note_on_c, 0, 50, 121
2, 66788, Note_on_c, 0, 38, 111
2, 66791, Note_on_c, 0, 70, 0
2, 66818, Note_on_c, 0, 38, 0
2, 66828, Note_on_c, 0, 77, 0
2, 66844, Note_on_c, 0, 50, 0
2, 66886, Note_on_c, 0, 69, 0
2, 66934, Control_c, 0, 64, 0
2, 66934, Note_on_c, 0, 69, 106
2, 66937, Note_on_c, 0, 76, 109
2, 66940, Note_on_c, 0, 74, 120
2, 66960, Note_on_c, 0, 57, 116
2, 66964, Note_on_c, 0, 45, 110
2, 67102, Note_on_c, 0, 70, 86
2, 67118, Control_c, 0, 64, 127
2, 67140, Note_on_c, 0, 69, 0
2, 67176, Note_on_c, 0, 57, 0
2, 67248, Note_on_c, 0, 69, 60
2, 67250, Note_on_c, 0, 45, 0
2, 67286, Note_on_c, 0, 76, 0
2, 67296, Note_on_c, 0, 70, 0
2, 67320, Note_on_c, 0, 69, 0
2, 67352, Note_on_c, 0, 74, 0
2, 67420, Note_on_c, 0, 76, 108
2, 67422, Note_on_c, 0, 73, 103
2, 67425, Note_on_c, 0, 69, 100
2, 67434, Note_on_c, 0, 45, 115
2, 67437, Note_on_c, 0, 33, 115
2, 67498, Note_on_c, 0, 33, 0
2, 67568, Note_on_c, 0, 70, 92
2, 67598, Note_on_c, 0, 45, 0
2, 67602, Note_on_c, 0, 69, 0
2, 67716, Note_on_c, 0, 69, 81
2, 67752, Note_on_c, 0, 70, 0
2, 67790, Note_on_c, 0, 73, 0
2, 67830, Note_on_c, 0, 69, 0
2, 67838, Note_on_c, 0, 76, 0
2, 67892, Note_on_c, 0, 69, 90
2, 67896, Note_on_c, 0, 50, 119
2, 67900, Note_on_c, 0, 74, 116
2, 67902, Control_c, 0, 64, 0
2, 67906, Note_on_c, 0, 38, 115
2, 68054, Note_on_c, 0, 69, 0
2, 68054, Note_on_c, 0, 70, 96
2, 68070, Control_c, 0, 64, 127
2, 68086, Note_on_c, 0, 38, 0
2, 68130, Note_on_c, 0, 50, 0
2, 68196, Note_on_c, 0, 69, 90
2, 68214, Note_on_c, 0, 74, 0
2, 68240, Note_on_c, 0, 70, 0
2, 68302, Note_on_c, 0, 69, 0
2, 68362, Note_on_c, 0, 57, 115
2, 68368, Note_on_c, 0, 52, 119
2, 68372, Note_on_c, 0, 45, 104
2, 68378, Control_c, 0, 64, 0
2, 68498, Note_on_c, 0, 76, 92
2, 68498, Note_on_c, 0, 82, 103
2, 68510, Note_on_c, 0, 73, 90
2, 68514, Note_on_c, 0, 70, 90
2, 68546, Control_c, 0, 64, 127
2, 68551, Note_on_c, 0, 45, 0
2, 68572, Note_on_c, 0, 52, 0
2, 68598, Note_on_c, 0, 57, 0
2, 68638, Note_on_c, 0, 70, 0
2, 68648, Note_on_c, 0, 82, 0
2, 68676, Note_on_c, 0, 81, 102
2, 68682, Note_on_c, 0, 69, 83
2, 68698, Note_on_c, 0, 73, 0
2, 68701, Note_on_c, 0, 76, 0
2, 68788, Note_on_c, 0, 69, 0
2, 68806, Note_on_c, 0, 81, 0
2, 68820, Note_on_c, 0, 62, 127
2, 68820, Note_on_c, 0, 53, 127
2, 68834, Note_on_c, 0, 50, 113
2, 68840, Control_c, 0, 64, 0
2, 68966, Note_on_c, 0, 82, 109
2, 68970, Note_on_c, 0, 70, 106
2, 68978, Note_on_c, 0, 74, 98
2, 69000, Note_on_c, 0, 50, 0
2, 69008, Control_c, 0, 64, 127
2, 69010, Note_on_c, 0, 53, 0
2, 69044, Note_on_c, 0, 62, 0
2, 69074, Note_on_c, 0, 82, 0
2, 69077, Note_on_c, 0, 70, 0
2, 69122, Note_on_c, 0, 74, 0
2, 69126, Note_on_c, 0, 69, 92
2, 69128, Note_on_c, 0, 81, 100
2, 69164, Note_on_c, 0, 69, 0
2, 69212, Note_on_c, 0, 81, 0
2, 69302, Note_on_c, 0, 69, 124
2, 69308, Note_on_c, 0, 64, 118
2, 69310, Note_on_c, 0, 57, 111
2, 69316, Control_c, 0, 64, 0
2, 69490, Note_on_c, 0, 94, 109
2, 69495, Note_on_c, 0, 82, 101
2, 69495, Note_on_c, 0, 88, 100
2, 69495, Note_on_c, 0, 85, 95
2, 69514, Control_c, 0, 64, 127
2, 69552, Note_on_c, 0, 57, 0
2, 69586, Note_on_c, 0, 64, 0
2, 69626, Note_on_c, 0, 69, 0
2, 69642, Note_on_c, 0, 94, 0
2, 69646, Note_on_c, 0, 82, 0
2, 69700, Note_on_c, 0, 88, 0
2, 69712, Note_on_c, 0, 93, 111
2, 69716, Note_on_c, 0, 85, 0
2, 69716, Note_on_c, 0, 81, 116
2, 69890, Note_on_c, 0, 93, 0
2, 69904, Note_on_c, 0, 74, 123
2, 69910, Note_on_c, 0, 89, 118
2, 69914, Note_on_c, 0, 65, 92
2, 69918, Note_on_c, 0, 62, 95
2, 69930, Control_c, 0, 64, 0
2, 70004, Note_on_c, 0, 81, 0
2, 70092, Note_on_c, 0, 86, 109
2, 70130, Control_c, 0, 64, 127
2, 70140, Note_on_c, 0, 89, 0
2, 70206, Note_on_c, 0, 74, 0
2, 70244, Note_on_c, 0, 81, 102
2, 70260, Note_on_c, 0, 65, 0
2, 70263, Note_on_c, 0, 62, 0
2, 70266, Note_on_c, 0, 86, 0
2, 70370, Note_on_c, 0, 81, 0
2, 70406, Note_on_c, 0, 77, 82
2, 70552, Note_on_c, 0, 74, 97
2, 70590, Note_on_c, 0, 77, 0
2, 70688, Note_on_c, 0, 74, 0
2, 70690, Note_on_c, 0, 69, 77
2, 70818, Note_on_c, 0, 69, 0
2, 70852, Note_on_c, 0, 65, 93
2, 70870, Note_on_c, 0, 38, 82
2, 70872, Note_on_c, 0, 26, 66
2, 71020, Note_on_c, 0, 62, 87
2, 71048, Note_on_c, 0, 65, 0
2, 71130, Note_on_c, 0, 62, 0
2, 71190, Note_on_c, 0, 57, 73
2, 71288, Note_on_c, 0, 57, 0
2, 71410, Note_on_c, 0, 62, 108
2, 71614, Note_on_c, 0, 50, 73
2, 71790, Note_on_c, 0, 38, 0
2, 71824, Note_on_c, 0, 57, 55
2, 71842, Note_on_c, 0, 50, 0
2, 71882, Note_on_c, 0, 62, 0
2, 72044, Note_on_c, 0, 60, 100
2, 72050, Note_on_c, 0, 27, 78
2, 72056, Note_on_c, 0, 26, 0
2, 72056, Note_on_c, 0, 39, 79
2, 72064, Note_on_c, 0, 57, 0
2, 72112, Control_c, 0, 64, 0
2, 72250, Note_on_c, 0, 48, 50
2, 72332, Note_on_c, 0, 27, 0
2, 72372, Control_c, 0, 64, 127
2, 72374, Note_on_c, 0, 39, 0
2, 72440, Note_on_c, 0, 55, 59
2, 72504, Note_on_c, 0, 48, 0
2, 72594, Note_on_c, 0, 55, 0
2, 72628, Note_on_c, 0, 63, 96
2, 72790, Note_on_c, 0, 48, 50
2, 72964, Note_on_c, 0, 55, 54
2, 72986, Note_on_c, 0, 48, 0
2, 73116, Note_on_c, 0, 55, 0
2, 73140, Note_on_c, 0, 63, 0
2, 73150, Note_on_c, 0, 67, 88
2, 73200, Note_on_c, 0, 60, 0
2, 73284, Note_on_c, 0, 67, 0
2, 73292, Note_on_c, 0, 48, 59
2, 73410, Note_on_c, 0, 48, 0
2, 73462, Note_on_c, 0, 55, 60
2, 73612, Note_on_c, 0, 58, 78
2, 73630, Note_on_c, 0, 40, 100
2, 73633, Note_on_c, 0, 28, 79
2, 73648, Note_on_c, 0, 55, 0
2, 73772, Note_on_c, 0, 49, 66
2, 73932, Note_on_c, 0, 55, 67
2, 73956, Note_on_c, 0, 49, 0
2, 73958, Note_on_c, 0, 28, 0
2, 73960, Note_on_c, 0, 40, 0
2, 74018, Note_on_c, 0, 58, 0
2, 74082, Note_on_c, 0, 57, 93
2, 74094, Control_c, 0, 64, 0
2, 74098, Note_on_c, 0, 29, 86
2, 74100, Note_on_c, 0, 41, 85
2, 74128, Note_on_c, 0, 55, 0
2, 74252, Note_on_c, 0, 48, 54
2, 74280, Note_on_c, 0, 29, 0
2, 74314, Note_on_c, 0, 41, 0
2, 74340, Control_c, 0, 64, 127
2, 74408, Note_on_c, 0, 53, 81
2, 74416, Note_on_c, 0, 48, 0
2, 74498, Note_on_c, 0, 53, 0
2, 74584, Note_on_c, 0, 60, 75
2, 74714, Note_on_c, 0, 48, 49
2, 74864, Note_on_c, 0, 53, 77
2, 74874, Note_on_c, 0, 48, 0
2, 75016, Note_on_c, 0, 60, 0
2, 75050, Note_on_c, 0, 53, 0
2, 75080, Note_on_c, 0, 65, 75
2, 75186, Note_on_c, 0, 65, 0
2, 75232, Note_on_c, 0, 48, 50
2, 75380, Note_on_c, 0, 48, 0
2, 75402, Note_on_c, 0, 57, 0
2, 75410, Note_on_c, 0, 53, 75
2, 75592, Note_on_c, 0, 53, 0
2, 75600, Note_on_c, 0, 56, 86
2, 75606, Note_on_c, 0, 38, 69
2, 75614, Note_on_c, 0, 26, 67
2, 75692, Control_c, 0, 64, 0
2, 75760, Note_on_c, 0, 47, 63
2, 75876, Control_c, 0, 64, 127
2, 75904, Note_on_c, 0, 47, 0
2, 75930, Note_on_c, 0, 53, 92
2, 75944, Note_on_c, 0, 38, 0
2, 75958, Note_on_c, 0, 26, 0
2, 75998, Note_on_c, 0, 56, 0
2, 76078, Note_on_c, 0, 39, 86
2, 76088, Note_on_c, 0, 27, 89
2, 76091, Note_on_c, 0, 55, 95
2, 76124, Note_on_c, 0, 53, 0
2, 76138, Control_c, 0, 64, 0
2, 76228, Note_on_c, 0, 46, 69
2, 76300, Note_on_c, 0, 27, 0
2, 76334, Note_on_c, 0, 39, 0
2, 76336, Control_c, 0, 64, 127
2, 76384, Note_on_c, 0, 51, 58
2, 76418, Note_on_c, 0, 46, 0
2, 76480, Note_on_c, 0, 51, 0
2, 76590, Note_on_c, 0, 61, 102
2, 76704, Note_on_c, 0, 61, 0
2, 76710, Note_on_c, 0, 46, 50
2, 76842, Note_on_c, 0, 55, 0
2, 76852, Note_on_c, 0, 46, 0
2, 76876, Note_on_c, 0, 51, 63
2, 76936, Note_on_c, 0, 51, 0
2, 77092, Note_on_c, 0, 40, 101
2, 77092, Note_on_c, 0, 60, 108
2, 77095, Note_on_c, 0, 28, 71
2, 77106, Control_c, 0, 64, 0
2, 77226, Note_on_c, 0, 48, 81
2, 77268, Note_on_c, 0, 28, 0
2, 77306, Control_c, 0, 64, 127
2, 77309, Note_on_c, 0, 40, 0
2, 77394, Note_on_c, 0, 48, 0
2, 77404, Note_on_c, 0, 55, 67
2, 77560, Note_on_c, 0, 55, 0
2, 77592, Note_on_c, 0, 67, 111
2, 77602, Note_on_c, 0, 58, 58
2, 77684, Note_on_c, 0, 67, 0
2, 77758, Note_on_c, 0, 48, 63
2, 77844, Note_on_c, 0, 60, 0
2, 77852, Note_on_c, 0, 48, 0
2, 77866, Note_on_c, 0, 58, 0
2, 77886, Note_on_c, 0, 55, 73
2, 77932, Note_on_c, 0, 55, 0
2, 78074, Note_on_c, 0, 29, 59
2, 78148, Note_on_c, 0, 65, 100
2, 78150, Note_on_c, 0, 41, 80
2, 78166, Control_c, 0, 64, 0
2, 78296, Note_on_c, 0, 29, 0
2, 78308, Note_on_c, 0, 53, 95
2, 78348, Note_on_c, 0, 41, 0
2, 78366, Control_c, 0, 64, 127
2, 78472, Note_on_c, 0, 53, 0
2, 78482, Note_on_c, 0, 57, 52
2, 78600, Note_on_c, 0, 57, 0
2, 78664, Note_on_c, 0, 72, 102
2, 78667, Note_on_c, 0, 63, 70
2, 78724, Note_on_c, 0, 72, 0
2, 78734, Note_on_c, 0, 65, 0
2, 78814, Note_on_c, 0, 63, 0
2, 78826, Note_on_c, 0, 53, 75
2, 78922, Note_on_c, 0, 53, 0
2, 78962, Note_on_c, 0, 57, 47
2, 79024, Note_on_c, 0, 57, 0
2, 79192, Note_on_c, 0, 34, 31
2, 79195, Note_on_c, 0, 70, 74
2, 79195, Note_on_c, 0, 46, 27
2, 79256, Control_c, 0, 64, 0
2, 79348, Note_on_c, 0, 58, 47
2, 79430, Note_on_c, 0, 34, 0
2, 79472, Control_c, 0, 64, 127
2, 79476, Note_on_c, 0, 46, 0
2, 79528, Note_on_c, 0, 58, 0
2, 79550, Note_on_c, 0, 62, 35
2, 79656, Note_on_c, 0, 62, 0
2, 79812, Note_on_c, 0, 68, 41
2, 79898, Note_on_c, 0, 77, 92
2, 79904, Note_on_c, 0, 68, 0
2, 80006, Note_on_c, 0, 77, 0
2, 80122, Note_on_c, 0, 58, 20
2, 80198, Note_on_c, 0, 58, 0
2, 80264, Note_on_c, 0, 70, 0
2, 80612, Note_on_c, 0, 34, 29
2, 80622, Note_on_c, 0, 76, 70
2, 80640, Control_c, 0, 64, 0
2, 80798, Note_on_c, 0, 34, 0
2, 80808, Control_c, 0, 64, 127
2, 80840, Note_on_c, 0, 64, 41
2, 80982, Note_on_c, 0, 64, 0
2, 81036, Note_on_c, 0, 67, 17
2, 81138, Note_on_c, 0, 67, 0
2, 81234, Note_on_c, 0, 73, 43
2, 81422, Note_on_c, 0, 64, 32
2, 81530, Note_on_c, 0, 64, 0
2, 81568, Note_on_c, 0, 67, 27
2, 81580, Note_on_c, 0, 73, 0
2, 81722, Note_on_c, 0, 70, 43
2, 81740, Note_on_c, 0, 67, 0
2, 81800, Note_on_c, 0, 76, 0
2, 81916, Note_on_c, 0, 64, 33
2, 81994, Note_on_c, 0, 64, 0
2, 82058, Note_on_c, 0, 67, 27
2, 82102, Note_on_c, 0, 70, 0
2, 82128, Note_on_c, 0, 67, 0
2, 82304, Note_on_c, 0, 76, 83
2, 82338, Note_on_c, 0, 34, 25
2, 82488, Note_on_c, 0, 64, 36
2, 82596, Note_on_c, 0, 64, 0
2, 82652, Note_on_c, 0, 67, 40
2, 82730, Note_on_c, 0, 67, 0
2, 82746, Note_on_c, 0, 76, 0
2, 82900, Note_on_c, 0, 77, 81
2, 83066, Note_on_c, 0, 65, 33
2, 83174, Control_c, 0, 64, 0
2, 83222, Note_on_c, 0, 68, 50
2, 83370, Note_on_c, 0, 65, 0
2, 83390, Control_c, 0, 64, 127
2, 83412, Note_on_c, 0, 74, 65
2, 83458, Note_on_c, 0, 68, 0
2, 83580, Note_on_c, 0, 65, 39
2, 83642, Note_on_c, 0, 74, 0
2, 83718, Note_on_c, 0, 65, 0
2, 83768, Note_on_c, 0, 68, 36
2, 83850, Note_on_c, 0, 68, 0
2, 83934, Note_on_c, 0, 70, 57
2, 83990, Note_on_c, 0, 77, 0
2, 84008, Note_on_c, 0, 34, 0
2, 84108, Note_on_c, 0, 70, 0
2, 84114, Note_on_c, 0, 65, 39
2, 84220, Note_on_c, 0, 65, 0
2, 84234, Note_on_c, 0, 68, 44
2, 84288, Note_on_c, 0, 68, 0
2, 84380, Note_on_c, 0, 77, 95
2, 84390, Note_on_c, 0, 34, 57
2, 84572, Note_on_c, 0, 65, 24
2, 84668, Note_on_c, 0, 65, 0
2, 84712, Note_on_c, 0, 77, 0
2, 84720, Note_on_c, 0, 68, 37
2, 84792, Note_on_c, 0, 68, 0
2, 84988, Note_on_c, 0, 76, 73
2, 85126, Control_c, 0, 64, 0
2, 85178, Note_on_c, 0, 64, 32
2, 85312, Note_on_c, 0, 67, 44
2, 85372, Control_c, 0, 64, 127
2, 85388, Note_on_c, 0, 64, 0
2, 85476, Note_on_c, 0, 67, 0
2, 85486, Note_on_c, 0, 73, 50
2, 85642, Note_on_c, 0, 64, 50
2, 85756, Note_on_c, 0, 64, 0
2, 85790, Note_on_c, 0, 67, 39
2, 85894, Note_on_c, 0, 73, 0
2, 85948, Note_on_c, 0, 34, 0
2, 85951, Note_on_c, 0, 67, 0
2, 85951, Note_on_c, 0, 70, 55
2, 86108, Note_on_c, 0, 64, 28
2, 86192, Note_on_c, 0, 64, 0
2, 86230, Note_on_c, 0, 67, 32
2, 86283, Note_on_c, 0, 70, 0
2, 86283, Note_on_c, 0, 76, 0
2, 86300, Note_on_c, 0, 67, 0
2, 86408, Note_on_c, 0, 79, 108
2, 86424, Note_on_c, 0, 34, 40
2, 86616, Note_on_c, 0, 67, 42
2, 86736, Note_on_c, 0, 67, 0
2, 86778, Note_on_c, 0, 73, 43
2, 86854, Note_on_c, 0, 79, 0
2, 86890, Note_on_c, 0, 73, 0
2, 87100, Note_on_c, 0, 80, 80
2, 87384, Control_c, 0, 64, 0
2, 87402, Note_on_c, 0, 68, 28
2, 87490, Note_on_c, 0, 41, 34
2, 87616, Control_c, 0, 64, 127
2, 87619, Note_on_c, 0, 74, 46
2, 87678, Note_on_c, 0, 80, 0
2, 87708, Note_on_c, 0, 68, 0
2, 87824, Note_on_c, 0, 41, 0
2, 87842, Note_on_c, 0, 34, 0
2, 87876, Note_on_c, 0, 74, 0
2, 87876, Note_on_c, 0, 77, 74
2, 87879, Note_on_c, 0, 46, 24
2, 88038, Note_on_c, 0, 46, 0
2, 88046, Note_on_c, 0, 65, 33
2, 88114, Note_on_c, 0, 77, 0
2, 88226, Note_on_c, 0, 50, 41
2, 88228, Note_on_c, 0, 70, 47
2, 88232, Note_on_c, 0, 65, 0
2, 88306, Note_on_c, 0, 50, 0
2, 88314, Note_on_c, 0, 70, 0
2, 88448, Note_on_c, 0, 74, 80
2, 88492, Note_on_c, 0, 53, 69
2, 88570, Note_on_c, 0, 74, 0
2, 88602, Note_on_c, 0, 62, 44
2, 88608, Note_on_c, 0, 53, 0
2, 88714, Note_on_c, 0, 58, 41
2, 88736, Note_on_c, 0, 62, 0
2, 88818, Note_on_c, 0, 68, 39
2, 88868, Note_on_c, 0, 58, 0
2, 88878, Note_on_c, 0, 68, 0
2, 89014, Note_on_c, 0, 70, 63
2, 89036, Note_on_c, 0, 56, 26
2, 89130, Note_on_c, 0, 56, 0
2, 89204, Note_on_c, 0, 58, 31
2, 89276, Note_on_c, 0, 70, 0
2, 89286, Note_on_c, 0, 58, 0
2, 89344, Note_on_c, 0, 50, 36
2, 89410, Note_on_c, 0, 50, 0
2, 89478, Note_on_c, 0, 65, 28
2, 89628, Note_on_c, 0, 65, 0
2, 89836, Note_on_c, 0, 68, 47
2, 89858, Control_c, 0, 64, 0
2, 89862, Note_on_c, 0, 35, 34
2, 89880, Note_on_c, 0, 47, 24
2, 90120, Note_on_c, 0, 56, 36
2, 90188, Note_on_c, 0, 35, 0
2, 90226, Control_c, 0, 64, 127
2, 90231, Note_on_c, 0, 47, 0
2, 90392, Note_on_c, 0, 63, 27
2, 90422, Note_on_c, 0, 56, 0
2, 90494, Note_on_c, 0, 63, 0
2, 90574, Note_on_c, 0, 71, 62
2, 90764, Note_on_c, 0, 56, 37
2, 90812, Note_on_c, 0, 71, 0
2, 90930, Note_on_c, 0, 63, 39
2, 90938, Note_on_c, 0, 56, 0
2, 91022, Note_on_c, 0, 63, 0
2, 91114, Note_on_c, 0, 75, 59
2, 91212, Note_on_c, 0, 75, 0
2, 91268, Note_on_c, 0, 56, 40
2, 91440, Note_on_c, 0, 56, 0
2, 91440, Note_on_c, 0, 63, 46
2, 91504, Note_on_c, 0, 63, 0
2, 91600, Note_on_c, 0, 36, 34
2, 91620, Note_on_c, 0, 66, 57
2, 91634, Note_on_c, 0, 48, 23
2, 91672, Control_c, 0, 64, 0
2, 91686, Note_on_c, 0, 68, 0
2, 91774, Note_on_c, 0, 57, 39
2, 91856, Control_c, 0, 64, 127
2, 91876, Note_on_c, 0, 48, 0
2, 91914, Note_on_c, 0, 57, 0
2, 91944, Note_on_c, 0, 63, 51
2, 92018, Note_on_c, 0, 63, 0
2, 92060, Note_on_c, 0, 36, 0
2, 92212, Note_on_c, 0, 65, 59
2, 92232, Note_on_c, 0, 66, 0
2, 92232, Note_on_c, 0, 37, 32
2, 92234, Note_on_c, 0, 49, 31
2, 92256, Control_c, 0, 64, 0
2, 92370, Note_on_c, 0, 56, 41
2, 92458, Note_on_c, 0, 37, 0
2, 92496, Note_on_c, 0, 49, 0
2, 92502, Control_c, 0, 64, 127
2, 92562, Note_on_c, 0, 61, 34
2, 92574, Note_on_c, 0, 56, 0
2, 92694, Note_on_c, 0, 61, 0
2, 92790, Note_on_c, 0, 68, 40
2, 92944, Note_on_c, 0, 56, 29
2, 93030, Note_on_c, 0, 68, 0
2, 93092, Note_on_c, 0, 56, 0
2, 93096, Note_on_c, 0, 61, 39
2, 93258, Note_on_c, 0, 61, 0
2, 93330, Note_on_c, 0, 73, 49
2, 93444, Note_on_c, 0, 73, 0
2, 93490, Note_on_c, 0, 56, 27
2, 93630, Note_on_c, 0, 65, 0
2, 93662, Note_on_c, 0, 61, 32
2, 93730, Note_on_c, 0, 56, 0
2, 93834, Note_on_c, 0, 61, 0
2, 93866, Note_on_c, 0, 64, 65
2, 93880, Note_on_c, 0, 34, 35
2, 93896, Note_on_c, 0, 46, 23
2, 93914, Control_c, 0, 64, 0
2, 94028, Note_on_c, 0, 55, 46
2, 94130, Control_c, 0, 64, 127
2, 94180, Note_on_c, 0, 61, 44
2, 94200, Note_on_c, 0, 55, 0
2, 94206, Note_on_c, 0, 46, 0
2, 94242, Note_on_c, 0, 34, 0
2, 94346, Note_on_c, 0, 64, 0
2, 94364, Note_on_c, 0, 63, 72
2, 94366, Note_on_c, 0, 61, 0
2, 94374, Note_on_c, 0, 35, 54
2, 94378, Note_on_c, 0, 47, 39
2, 94390, Control_c, 0, 64, 0
2, 94532, Note_on_c, 0, 54, 55
2, 94568, Note_on_c, 0, 35, 0
2, 94590, Control_c, 0, 64, 127
2, 94626, Note_on_c, 0, 47, 0
2, 94710, Note_on_c, 0, 54, 0
2, 94710, Note_on_c, 0, 59, 36
2, 94796, Note_on_c, 0, 59, 0
2, 94930, Note_on_c, 0, 69, 83
2, 95032, Note_on_c, 0, 69, 0
2, 95090, Note_on_c, 0, 54, 63
2, 95242, Note_on_c, 0, 54, 0
2, 95266, Note_on_c, 0, 59, 43
2, 95316, Note_on_c, 0, 59, 0
2, 95332, Note_on_c, 0, 63, 0
2, 95440, Note_on_c, 0, 68, 83
2, 95448, Note_on_c, 0, 48, 48
2, 95450, Note_on_c, 0, 36, 57
2, 95466, Control_c, 0, 64, 0
2, 95618, Note_on_c, 0, 56, 59
2, 95620, Note_on_c, 0, 36, 0
2, 95682, Note_on_c, 0, 48, 0
2, 95682, Control_c, 0, 64, 127
2, 95760, Note_on_c, 0, 63, 69
2, 95766, Note_on_c, 0, 56, 0
2, 95850, Note_on_c, 0, 63, 0
2, 95946, Note_on_c, 0, 75, 102
2, 95948, Note_on_c, 0, 66, 60
2, 96046, Note_on_c, 0, 75, 0
2, 96122, Note_on_c, 0, 56, 58
2, 96240, Note_on_c, 0, 56, 0
2, 96278, Note_on_c, 0, 63, 73
2, 96290, Note_on_c, 0, 68, 0
2, 96338, Note_on_c, 0, 63, 0
2, 96382, Note_on_c, 0, 66, 0
2, 96454, Note_on_c, 0, 37, 44
2, 96492, Note_on_c, 0, 73, 102
2, 96542, Control_c, 0, 64, 0
2, 96544, Note_on_c, 0, 49, 52
2, 96670, Note_on_c, 0, 61, 67
2, 96700, Note_on_c, 0, 37, 0
2, 96726, Control_c, 0, 64, 127
2, 96746, Note_on_c, 0, 49, 0
2, 96802, Note_on_c, 0, 61, 0
2, 96844, Note_on_c, 0, 65, 48
2, 96982, Note_on_c, 0, 65, 0
2, 97046, Note_on_c, 0, 71, 60
2, 97049, Note_on_c, 0, 80, 103
2, 97146, Note_on_c, 0, 80, 0
2, 97214, Note_on_c, 0, 61, 59
2, 97318, Note_on_c, 0, 61, 0
2, 97386, Note_on_c, 0, 71, 0
2, 97386, Note_on_c, 0, 65, 50
2, 97434, Note_on_c, 0, 65, 0
2, 97434, Note_on_c, 0, 73, 0
2, 97574, Note_on_c, 0, 78, 94
2, 97608, Note_on_c, 0, 42, 43
2, 97618, Control_c, 0, 64, 0
2, 97621, Note_on_c, 0, 54, 42
2, 97768, Note_on_c, 0, 66, 52
2, 97816, Note_on_c, 0, 42, 0
2, 97816, Control_c, 0, 64, 127
2, 97850, Note_on_c, 0, 54, 0
2, 97902, Note_on_c, 0, 66, 0
2, 97948, Note_on_c, 0, 70, 41
2, 98028, Note_on_c, 0, 70, 0
2, 98248, Note_on_c, 0, 76, 40
2, 98304, Note_on_c, 0, 85, 95
2, 98434, Note_on_c, 0, 85, 0
2, 98478, Note_on_c, 0, 78, 0
2, 98538, Note_on_c, 0, 66, 32
2, 98616, Note_on_c, 0, 66, 0
2, 98648, Note_on_c, 0, 76, 0
2, 98736, Note_on_c, 0, 70, 35
2, 98800, Note_on_c, 0, 70, 0
2, 99074, Note_on_c, 0, 84, 85
2, 99092, Note_on_c, 0, 30, 56
2, 99138, Control_c, 0, 64, 0
2, 99330, Note_on_c, 0, 72, 34
2, 99346, Note_on_c, 0, 30, 0
2, 99370, Control_c, 0, 64, 127
2, 99496, Note_on_c, 0, 72, 0
2, 99500, Note_on_c, 0, 75, 34
2, 99584, Note_on_c, 0, 75, 0
2, 99694, Note_on_c, 0, 69, 39
2, 99712, Note_on_c, 0, 81, 48
2, 99886, Note_on_c, 0, 72, 28
2, 99894, Note_on_c, 0, 69, 0
2, 100008, Note_on_c, 0, 72, 0
2, 100028, Note_on_c, 0, 81, 0
2, 100042, Note_on_c, 0, 75, 41
2, 100122, Note_on_c, 0, 75, 0
2, 100226, Note_on_c, 0, 78, 65
2, 100254, Note_on_c, 0, 66, 29
2, 100310, Note_on_c, 0, 84, 0
2, 100330, Note_on_c, 0, 66, 0
2, 100398, Note_on_c, 0, 72, 33
2, 100518, Note_on_c, 0, 72, 0
2, 100548, Note_on_c, 0, 75, 39
2, 100614, Note_on_c, 0, 75, 0
2, 100742, Note_on_c, 0, 84, 96
2, 100766, Note_on_c, 0, 78, 0
2, 100776, Note_on_c, 0, 30, 64
2, 100966, Note_on_c, 0, 72, 48
2, 101072, Note_on_c, 0, 72, 0
2, 101080, Note_on_c, 0, 84, 0
2, 101138, Note_on_c, 0, 75, 47
2, 101224, Note_on_c, 0, 75, 0
2, 101380, Note_on_c, 0, 83, 112
2, 101428, Control_c, 0, 64, 0
2, 101586, Note_on_c, 0, 71, 41
2, 101610, Note_on_c, 0, 30, 0
2, 101613, Control_c, 0, 64, 127
2, 101742, Note_on_c, 0, 74, 42
2, 101746, Note_on_c, 0, 71, 0
2, 101832, Note_on_c, 0, 74, 0
2, 101918, Note_on_c, 0, 80, 58
2, 101924, Note_on_c, 0, 68, 56
2, 102084, Note_on_c, 0, 68, 0
2, 102098, Note_on_c, 0, 71, 55
2, 102186, Note_on_c, 0, 80, 0
2, 102234, Note_on_c, 0, 71, 0
2, 102244, Note_on_c, 0, 74, 46
2, 102338, Note_on_c, 0, 74, 0
2, 102434, Note_on_c, 0, 65, 40
2, 102434, Note_on_c, 0, 77, 69
2, 102508, Note_on_c, 0, 83, 0
2, 102552, Note_on_c, 0, 65, 0
2, 102602, Note_on_c, 0, 71, 55
2, 102684, Note_on_c, 0, 71, 0
2, 102728, Note_on_c, 0, 77, 0
2, 102760, Note_on_c, 0, 74, 41
2, 102836, Note_on_c, 0, 74, 0
2, 102894, Note_on_c, 0, 83, 111
2, 102904, Note_on_c, 0, 30, 52
2, 103074, Note_on_c, 0, 71, 37
2, 103124, Note_on_c, 0, 83, 0
2, 103222, Note_on_c, 0, 71, 0
2, 103250, Note_on_c, 0, 74, 44
2, 103332, Note_on_c, 0, 74, 0
2, 103516, Note_on_c, 0, 82, 77
2, 103548, Control_c, 0, 64, 0
2, 103694, Note_on_c, 0, 70, 36
2, 103730, Note_on_c, 0, 30, 0
2, 103733, Control_c, 0, 64, 127
2, 103848, Note_on_c, 0, 70, 0
2, 103866, Note_on_c, 0, 73, 40
2, 104000, Note_on_c, 0, 73, 0
2, 104076, Note_on_c, 0, 67, 41
2, 104084, Note_on_c, 0, 79, 48
2, 104228, Note_on_c, 0, 70, 37
2, 104296, Note_on_c, 0, 67, 0
2, 104340, Note_on_c, 0, 70, 0
2, 104348, Note_on_c, 0, 79, 0
2, 104378, Note_on_c, 0, 73, 36
2, 104480, Note_on_c, 0, 73, 0
2, 104598, Note_on_c, 0, 76, 49
2, 104604, Note_on_c, 0, 64, 48
2, 104638, Note_on_c, 0, 82, 0
2, 104664, Note_on_c, 0, 64, 0
2, 104752, Note_on_c, 0, 70, 40
2, 104838, Note_on_c, 0, 70, 0
2, 104902, Note_on_c, 0, 73, 37
2, 104916, Note_on_c, 0, 76, 0
2, 104962, Note_on_c, 0, 73, 0
2, 105076, Note_on_c, 0, 30, 50
2, 105082, Note_on_c, 0, 82, 74
2, 105248, Note_on_c, 0, 70, 32
2, 105350, Note_on_c, 0, 70, 0
2, 105390, Note_on_c, 0, 73, 33
2, 105448, Note_on_c, 0, 73, 0
2, 105452, Note_on_c, 0, 82, 0
2, 105606, Note_on_c, 0, 83, 111
2, 105714, Control_c, 0, 64, 0
2, 105786, Note_on_c, 0, 71, 28
2, 105838, Note_on_c, 0, 42, 57
2, 105862, Note_on_c, 0, 30, 0
2, 105884, Control_c, 0, 64, 127
2, 105896, Note_on_c, 0, 42, 0
2, 105954, Note_on_c, 0, 71, 0
2, 105957, Note_on_c, 0, 83, 0
2, 105957, Note_on_c, 0, 75, 46
2, 106014, Note_on_c, 0, 75, 0
2, 106132, Note_on_c, 0, 78, 96
2, 106146, Note_on_c, 0, 47, 42
2, 106290, Note_on_c, 0, 66, 51
2, 106380, Note_on_c, 0, 51, 64
2, 106422, Note_on_c, 0, 66, 0
2, 106448, Note_on_c, 0, 71, 74
2, 106451, Note_on_c, 0, 78, 0
2, 106500, Note_on_c, 0, 71, 0
2, 106638, Note_on_c, 0, 75, 90
2, 106654, Note_on_c, 0, 54, 70
2, 106684, Note_on_c, 0, 51, 0
2, 106792, Note_on_c, 0, 63, 57
2, 106888, Note_on_c, 0, 59, 73
2, 106890, Note_on_c, 0, 54, 0
2, 106906, Note_on_c, 0, 63, 0
2, 106968, Note_on_c, 0, 66, 43
2, 107038, Note_on_c, 0, 75, 0
2, 107058, Note_on_c, 0, 66, 0
2, 107168, Note_on_c, 0, 56, 51
2, 107168, Note_on_c, 0, 74, 78
2, 107190, Control_c, 0, 64, 0
2, 107202, Note_on_c, 0, 59, 0
2, 107358, Control_c, 0, 64, 127
2, 107380, Note_on_c, 0, 62, 40
2, 107422, Note_on_c, 0, 47, 0
2, 107436, Note_on_c, 0, 56, 0
2, 107460, Note_on_c, 0, 62, 0
2, 107480, Note_on_c, 0, 53, 75
2, 107564, Note_on_c, 0, 74, 0
2, 107608, Note_on_c, 0, 53, 0
2, 107630, Note_on_c, 0, 71, 48
2, 107708, Note_on_c, 0, 71, 0
2, 107826, Note_on_c, 0, 73, 70
2, 107848, Note_on_c, 0, 30, 58
2, 107896, Control_c, 0, 64, 0
2, 108004, Note_on_c, 0, 61, 41
2, 108106, Note_on_c, 0, 30, 0
2, 108128, Control_c, 0, 64, 127
2, 108166, Note_on_c, 0, 61, 0
2, 108188, Note_on_c, 0, 64, 42
2, 108258, Note_on_c, 0, 64, 0
2, 108404, Note_on_c, 0, 58, 41
2, 108576, Note_on_c, 0, 61, 44
2, 108598, Note_on_c, 0, 58, 0
2, 108680, Note_on_c, 0, 61, 0
2, 108772, Note_on_c, 0, 64, 29
2, 108844, Note_on_c, 0, 64, 0
2, 108912, Note_on_c, 0, 55, 52
2, 109088, Note_on_c, 0, 55, 0
2, 109098, Note_on_c, 0, 61, 29
2, 109202, Note_on_c, 0, 61, 0
2, 109302, Note_on_c, 0, 64, 16
2, 109326, Note_on_c, 0, 73, 0
2, 109382, Note_on_c, 0, 64, 0
2, 109484, Note_on_c, 0, 73, 67
2, 109502, Note_on_c, 0, 30, 42
2, 109644, Note_on_c, 0, 61, 27
2, 109694, Note_on_c, 0, 73, 0
2, 109766, Note_on_c, 0, 61, 0
2, 109818, Note_on_c, 0, 64, 41
2, 109880, Note_on_c, 0, 64, 0
2, 109976, Note_on_c, 0, 71, 65
2, 110016, Control_c, 0, 64, 0
2, 110132, Note_on_c, 0, 59, 28
2, 110206, Note_on_c, 0, 30, 0
2, 110216, Control_c, 0, 64, 127
2, 110274, Note_on_c, 0, 62, 34
2, 110296, Note_on_c, 0, 59, 0
2, 110410, Note_on_c, 0, 62, 0
2, 110488, Note_on_c, 0, 56, 50
2, 110656, Note_on_c, 0, 59, 36
2, 110682, Note_on_c, 0, 56, 0
2, 110810, Note_on_c, 0, 59, 0
2, 110816, Note_on_c, 0, 62, 36
2, 110958, Note_on_c, 0, 62, 0
2, 111058, Note_on_c, 0, 53, 71
2, 111116, Note_on_c, 0, 71, 0
2, 111214, Note_on_c, 0, 53, 0
2, 111234, Note_on_c, 0, 59, 28
2, 111368, Note_on_c, 0, 59, 0
2, 111388, Note_on_c, 0, 62, 26
2, 111486, Note_on_c, 0, 62, 0
2, 111558, Note_on_c, 0, 71, 83
2, 111596, Note_on_c, 0, 30, 47
2, 111754, Note_on_c, 0, 59, 42
2, 111762, Note_on_c, 0, 71, 0
2, 111880, Note_on_c, 0, 59, 0
2, 111908, Note_on_c, 0, 62, 42
2, 111988, Note_on_c, 0, 62, 0
2, 112216, Note_on_c, 0, 70, 58
2, 112276, Control_c, 0, 64, 0
2, 112390, Note_on_c, 0, 58, 31
2, 112474, Control_c, 0, 64, 127
2, 112479, Note_on_c, 0, 30, 0
2, 112552, Note_on_c, 0, 58, 0
2, 112582, Note_on_c, 0, 61, 35
2, 112678, Note_on_c, 0, 61, 0
2, 112756, Note_on_c, 0, 55, 44
2, 112868, Note_on_c, 0, 55, 0
2, 112940, Note_on_c, 0, 58, 14
2, 113058, Note_on_c, 0, 58, 0
2, 113078, Note_on_c, 0, 61, 41
2, 113156, Note_on_c, 0, 61, 0
2, 113258, Note_on_c, 0, 52, 49
2, 113358, Note_on_c, 0, 52, 0
2, 113428, Note_on_c, 0, 58, 26
2, 113462, Note_on_c, 0, 70, 0
2, 113542, Note_on_c, 0, 58, 0
2, 113572, Note_on_c, 0, 61, 40
2, 113636, Note_on_c, 0, 61, 0
2, 113742, Note_on_c, 0, 70, 55
2, 113760, Note_on_c, 0, 30, 43
2, 113896, Note_on_c, 0, 58, 32
2, 114012, Note_on_c, 0, 58, 0
2, 114062, Note_on_c, 0, 61, 44
2, 114128, Note_on_c, 0, 61, 0
2, 114138, Note_on_c, 0, 70, 0
2, 114240, Note_on_c, 0, 71, 70
2, 114334, Control_c, 0, 64, 0
2, 114410, Note_on_c, 0, 59, 47
2, 114482, Note_on_c, 0, 35, 51
2, 114504, Control_c, 0, 64, 127
2, 114546, Note_on_c, 0, 59, 0
2, 114570, Note_on_c, 0, 71, 0
2, 114570, Note_on_c, 0, 63, 54
2, 114618, Note_on_c, 0, 63, 0
2, 114764, Note_on_c, 0, 66, 57
2, 114802, Note_on_c, 0, 39, 39
2, 114872, Control_c, 0, 64, 0
2, 114918, Note_on_c, 0, 54, 50
2, 114986, Note_on_c, 0, 35, 0
2, 114994, Control_c, 0, 64, 127
2, 115040, Note_on_c, 0, 42, 56
2, 115054, Note_on_c, 0, 30, 0
2, 115072, Note_on_c, 0, 39, 0
2, 115090, Note_on_c, 0, 54, 0
2, 115100, Note_on_c, 0, 66, 0
2, 115100, Note_on_c, 0, 59, 44
2, 115103, Note_on_c, 0, 42, 0
2, 115158, Note_on_c, 0, 59, 0
2, 115304, Note_on_c, 0, 63, 60
2, 115338, Note_on_c, 0, 47, 39
2, 115486, Note_on_c, 0, 51, 55
2, 115502, Control_c, 0, 64, 0
2, 115562, Note_on_c, 0, 47, 0
2, 115610, Note_on_c, 0, 35, 72
2, 115626, Control_c, 0, 64, 127
2, 115688, Note_on_c, 0, 54, 60
2, 115732, Note_on_c, 0, 51, 0
2, 115802, Note_on_c, 0, 54, 0
2, 115834, Note_on_c, 0, 63, 0
2, 115864, Note_on_c, 0, 35, 0
2, 115914, Note_on_c, 0, 62, 57
2, 115936, Note_on_c, 0, 41, 36
2, 115948, Control_c, 0, 64, 0
2, 116096, Note_on_c, 0, 50, 54
2, 116162, Control_c, 0, 64, 127
2, 116186, Note_on_c, 0, 41, 0
2, 116248, Note_on_c, 0, 29, 40
2, 116254, Note_on_c, 0, 50, 0
2, 116312, Note_on_c, 0, 62, 0
2, 116344, Note_on_c, 0, 56, 33
2, 116468, Note_on_c, 0, 29, 0
2, 116670, Control_c, 0, 64, 0
2, 116710, Note_on_c, 0, 49, 28
2, 116712, Note_on_c, 0, 61, 33
2, 116730, Note_on_c, 0, 58, 25
2, 116733, Note_on_c, 0, 30, 25
2, 116748, Note_on_c, 0, 42, 12
2, 116806, Note_on_c, 0, 56, 0
2, 117118, Note_on_c, 0, 30, 0
2, 117132, Control_c, 0, 64, 127
2, 117148, Note_on_c, 0, 42, 0
2, 117418, Note_on_c, 0, 42, 24
2, 117566, Note_on_c, 0, 42, 0
2, 117598, Note_on_c, 0, 43, 48
2, 117668, Note_on_c, 0, 43, 0
2, 117708, Note_on_c, 0, 49, 0
2, 117738, Note_on_c, 0, 42, 47
2, 117800, Note_on_c, 0, 42, 0
2, 117802, Note_on_c, 0, 58, 0
2, 117866, Note_on_c, 0, 61, 0
2, 117884, Control_c, 0, 64, 0
2, 117910, Note_on_c, 0, 42, 57
2, 118068, Note_on_c, 0, 42, 0
2, 118080, Note_on_c, 0, 43, 52
2, 118098, Control_c, 0, 64, 127
2, 118174, Note_on_c, 0, 43, 0
2, 118238, Note_on_c, 0, 42, 49
2, 118308, Note_on_c, 0, 42, 0
2, 118406, Control_c, 0, 64, 0
2, 118414, Note_on_c, 0, 54, 63
2, 118436, Note_on_c, 0, 42, 48
2, 118562, Note_on_c, 0, 42, 0
2, 118596, Note_on_c, 0, 43, 47
2, 118600, Note_on_c, 0, 55, 50
2, 118606, Note_on_c, 0, 54, 0
2, 118652, Control_c, 0, 64, 127
2, 118688, Note_on_c, 0, 43, 0
2, 118744, Note_on_c, 0, 54, 59
2, 118764, Note_on_c, 0, 55, 0
2, 118764, Note_on_c, 0, 42, 36
2, 118814, Note_on_c, 0, 54, 0
2, 118874, Note_on_c, 0, 42, 0
2, 118914, Control_c, 0, 64, 0
2, 118958, Note_on_c, 0, 59, 57
2, 118960, Note_on_c, 0, 47, 43
2, 118964, Note_on_c, 0, 35, 67
2, 118966, Note_on_c, 0, 54, 58
2, 119106, Note_on_c, 0, 54, 0
2, 119180, Note_on_c, 0, 55, 35
2, 119200, Note_on_c, 0, 59, 0
2, 119236, Control_c, 0, 64, 127
2, 119278, Note_on_c, 0, 35, 0
2, 119310, Note_on_c, 0, 47, 0
2, 119318, Note_on_c, 0, 54, 54
2, 119346, Note_on_c, 0, 55, 0
2, 119376, Note_on_c, 0, 54, 0
2, 119512, Control_c, 0, 64, 0
2, 119542, Note_on_c, 0, 50, 57
2, 119544, Note_on_c, 0, 38, 52
2, 119556, Note_on_c, 0, 59, 41
2, 119556, Note_on_c, 0, 54, 43
2, 119638, Note_on_c, 0, 54, 0
2, 119728, Note_on_c, 0, 59, 0
2, 119730, Note_on_c, 0, 55, 35
2, 119820, Control_c, 0, 64, 127
2, 119884, Note_on_c, 0, 38, 0
2, 119887, Note_on_c, 0, 54, 49
2, 119910, Note_on_c, 0, 50, 0
2, 119913, Note_on_c, 0, 55, 0
2, 119958, Note_on_c, 0, 54, 0
2, 120050, Control_c, 0, 64, 0
2, 120088, Note_on_c, 0, 59, 54
2, 120093, Note_on_c, 0, 54, 33
2, 120102, Note_on_c, 0, 40, 62
2, 120104, Note_on_c, 0, 52, 52
2, 120204, Note_on_c, 0, 54, 0
2, 120304, Note_on_c, 0, 55, 18
2, 120352, Note_on_c, 0, 59, 0
2, 120358, Control_c, 0, 64, 127
2, 120370, Note_on_c, 0, 52, 0
2, 120410, Note_on_c, 0, 54, 42
2, 120412, Note_on_c, 0, 55, 0
2, 120472, Note_on_c, 0, 40, 0
2, 120474, Note_on_c, 0, 54, 0
2, 120606, Note_on_c, 0, 54, 52
2, 120606, Note_on_c, 0, 42, 70
2, 120618, Control_c, 0, 64, 0
2, 120742, Note_on_c, 0, 54, 0
2, 120760, Note_on_c, 0, 55, 63
2, 120766, Note_on_c, 0, 42, 0
2, 120772, Note_on_c, 0, 43, 77
2, 120834, Control_c, 0, 64, 127
2, 120902, Note_on_c, 0, 54, 69
2, 120920, Note_on_c, 0, 42, 74
2, 120928, Note_on_c, 0, 43, 0
2, 120952, Note_on_c, 0, 55, 0
2, 120964, Note_on_c, 0, 54, 0
2, 121000, Note_on_c, 0, 42, 0
2, 121048, Control_c, 0, 64, 0
2, 121098, Note_on_c, 0, 59, 65
2, 121100, Note_on_c, 0, 47, 67
2, 121102, Note_on_c, 0, 54, 59
2, 121104, Note_on_c, 0, 35, 85
2, 121216, Note_on_c, 0, 54, 0
2, 121262, Note_on_c, 0, 47, 0
2, 121278, Note_on_c, 0, 55, 46
2, 121290, Note_on_c, 0, 35, 0
2, 121293, Note_on_c, 0, 59, 0
2, 121310, Control_c, 0, 64, 127
2, 121406, Note_on_c, 0, 54, 60
2, 121440, Note_on_c, 0, 55, 0
2, 121476, Note_on_c, 0, 54, 0
2, 121620, Note_on_c, 0, 50, 62
2, 121626, Note_on_c, 0, 38, 58
2, 121634, Control_c, 0, 64, 0
2, 121637, Note_on_c, 0, 59, 52
2, 121640, Note_on_c, 0, 54, 50
2, 121712, Note_on_c, 0, 54, 0
2, 121794, Note_on_c, 0, 55, 50
2, 121814, Note_on_c, 0, 59, 0
2, 121864, Control_c, 0, 64, 127
2, 121886, Note_on_c, 0, 50, 0
2, 121888, Note_on_c, 0, 38, 0
2, 121926, Note_on_c, 0, 54, 55
2, 121944, Note_on_c, 0, 55, 0
2, 121996, Note_on_c, 0, 54, 0
2, 122094, Control_c, 0, 64, 0
2, 122144, Note_on_c, 0, 54, 40
2, 122149, Note_on_c, 0, 59, 48
2, 122160, Note_on_c, 0, 52, 55
2, 122170, Note_on_c, 0, 40, 55
2, 122276, Note_on_c, 0, 54, 0
2, 122336, Note_on_c, 0, 55, 39
2, 122352, Note_on_c, 0, 59, 0
2, 122354, Control_c, 0, 64, 127
2, 122418, Note_on_c, 0, 52, 0
2, 122494, Note_on_c, 0, 54, 60
2, 122522, Note_on_c, 0, 55, 0
2, 122528, Note_on_c, 0, 40, 0
2, 122550, Note_on_c, 0, 54, 0
2, 122660, Note_on_c, 0, 42, 71
2, 122662, Note_on_c, 0, 54, 70
2, 122678, Control_c, 0, 64, 0
2, 122824, Note_on_c, 0, 43, 72
2, 122827, Note_on_c, 0, 42, 0
2, 122830, Note_on_c, 0, 55, 73
2, 122832, Note_on_c, 0, 54, 0
2, 122846, Control_c, 0, 64, 127
2, 122958, Note_on_c, 0, 54, 67
2, 122968, Note_on_c, 0, 55, 0
2, 122978, Note_on_c, 0, 42, 73
2, 122980, Note_on_c, 0, 43, 0
2, 123026, Note_on_c, 0, 42, 0
2, 123032, Note_on_c, 0, 54, 0
2, 123138, Control_c, 0, 64, 0
2, 123154, Note_on_c, 0, 54, 52
2, 123158, Note_on_c, 0, 62, 69
2, 123168, Note_on_c, 0, 47, 63
2, 123174, Note_on_c, 0, 35, 81
2, 123182, Note_on_c, 0, 59, 44
2, 123290, Note_on_c, 0, 54, 0
2, 123338, Control_c, 0, 64, 127
2, 123346, Note_on_c, 0, 35, 0
2, 123364, Note_on_c, 0, 55, 44
2, 123374, Note_on_c, 0, 47, 0
2, 123430, Note_on_c, 0, 59, 0
2, 123438, Note_on_c, 0, 62, 0
2, 123460, Note_on_c, 0, 55, 0
2, 123516, Note_on_c, 0, 54, 57
2, 123542, Note_on_c, 0, 49, 73
2, 123550, Note_on_c, 0, 37, 70
2, 123580, Note_on_c, 0, 54, 0
2, 123614, Note_on_c, 0, 37, 0
2, 123626, Note_on_c, 0, 49, 0
2, 123676, Note_on_c, 0, 54, 67
2, 123692, Note_on_c, 0, 62, 80
2, 123698, Note_on_c, 0, 50, 97
2, 123702, Note_on_c, 0, 38, 82
2, 123716, Note_on_c, 0, 59, 57
2, 123722, Control_c, 0, 64, 0
2, 123852, Note_on_c, 0, 54, 0
2, 123902, Note_on_c, 0, 55, 62
2, 123922, Control_c, 0, 64, 127
2, 123930, Note_on_c, 0, 50, 0
2, 123962, Note_on_c, 0, 59, 0
2, 123964, Note_on_c, 0, 38, 0
2, 124012, Note_on_c, 0, 62, 0
2, 124048, Note_on_c, 0, 55, 0
2, 124084, Note_on_c, 0, 54, 46
2, 124128, Note_on_c, 0, 47, 97
2, 124134, Note_on_c, 0, 35, 95
2, 124148, Note_on_c, 0, 54, 0
2, 124250, Note_on_c, 0, 35, 0
2, 124276, Note_on_c, 0, 54, 75
2, 124279, Note_on_c, 0, 47, 0
2, 124282, Note_on_c, 0, 62, 81
2, 124324, Note_on_c, 0, 43, 97
2, 124342, Note_on_c, 0, 59, 27
2, 124352, Control_c, 0, 64, 0
2, 124414, Note_on_c, 0, 54, 0
2, 124524, Note_on_c, 0, 55, 64
2, 124592, Note_on_c, 0, 59, 0
2, 124674, Control_c, 0, 64, 127
2, 124682, Note_on_c, 0, 55, 0
2, 124700, Note_on_c, 0, 54, 70
2, 124778, Note_on_c, 0, 54, 0
2, 124786, Note_on_c, 0, 62, 0
2, 124900, Note_on_c, 0, 55, 65
2, 124914, Note_on_c, 0, 59, 69
2, 124944, Note_on_c, 0, 52, 29
2, 125098, Note_on_c, 0, 61, 69
2, 125104, Note_on_c, 0, 59, 0
2, 125220, Note_on_c, 0, 43, 0
2, 125220, Note_on_c, 0, 55, 0
2, 125254, Note_on_c, 0, 59, 67
2, 125256, Note_on_c, 0, 61, 0
2, 125268, Note_on_c, 0, 52, 0
2, 125394, Note_on_c, 0, 59, 0
2, 125402, Note_on_c, 0, 61, 78
2, 125406, Note_on_c, 0, 45, 89
2, 125410, Note_on_c, 0, 33, 86
2, 125428, Control_c, 0, 64, 0
2, 125434, Note_on_c, 0, 52, 60
2, 125434, Note_on_c, 0, 57, 43
2, 125566, Note_on_c, 0, 54, 78
2, 125578, Note_on_c, 0, 52, 0
2, 125628, Control_c, 0, 64, 127
2, 125642, Note_on_c, 0, 57, 0
2, 125702, Note_on_c, 0, 33, 0
2, 125702, Note_on_c, 0, 45, 0
2, 125740, Note_on_c, 0, 61, 0
2, 125743, Note_on_c, 0, 52, 72
2, 125808, Note_on_c, 0, 52, 0
2, 125826, Note_on_c, 0, 54, 0
2, 125858, Note_on_c, 0, 35, 106
2, 125860, Note_on_c, 0, 47, 86
2, 125904, Note_on_c, 0, 47, 0
2, 125948, Note_on_c, 0, 35, 0
2, 125980, Note_on_c, 0, 61, 78
2, 125984, Note_on_c, 0, 52, 82
2, 125994, Note_on_c, 0, 57, 62
2, 126008, Note_on_c, 0, 49, 96
2, 126010, Note_on_c, 0, 37, 93
2, 126057, Control_c, 0, 64, 0
2, 126166, Note_on_c, 0, 54, 77
2, 126170, Note_on_c, 0, 52, 0
2, 126242, Control_c, 0, 64, 127
2, 126254, Note_on_c, 0, 49, 0
2, 126316, Note_on_c, 0, 37, 0
2, 126328, Note_on_c, 0, 57, 0
2, 126332, Note_on_c, 0, 52, 73
2, 126370, Note_on_c, 0, 61, 0
2, 126373, Note_on_c, 0, 54, 0
2, 126386, Note_on_c, 0, 52, 0
2, 126390, Note_on_c, 0, 33, 109
2, 126390, Note_on_c, 0, 45, 104
2, 126436, Note_on_c, 0, 33, 0
2, 126476, Note_on_c, 0, 45, 0
2, 126518, Note_on_c, 0, 61, 79
2, 126536, Note_on_c, 0, 52, 77
2, 126539, Note_on_c, 0, 57, 63
2, 126570, Note_on_c, 0, 42, 101
2, 126596, Control_c, 0, 64, 0
2, 126722, Note_on_c, 0, 52, 0
2, 126748, Note_on_c, 0, 54, 69
2, 126871, Control_c, 0, 64, 127
2, 126924, Note_on_c, 0, 57, 0
2, 126942, Note_on_c, 0, 52, 63
2, 126982, Note_on_c, 0, 54, 0
2, 127020, Note_on_c, 0, 52, 0
2, 127050, Note_on_c, 0, 61, 0
2, 127150, Note_on_c, 0, 57, 64
2, 127156, Note_on_c, 0, 54, 57
2, 127172, Note_on_c, 0, 50, 51
2, 127338, Note_on_c, 0, 59, 79
2, 127366, Note_on_c, 0, 57, 0
2, 127470, Note_on_c, 0, 59, 0
2, 127506, Note_on_c, 0, 57, 69
2, 127534, Note_on_c, 0, 50, 0
2, 127550, Note_on_c, 0, 42, 0
2, 127600, Note_on_c, 0, 54, 0
2, 127664, Note_on_c, 0, 43, 87
2, 127668, Note_on_c, 0, 57, 0
2, 127668, Note_on_c, 0, 31, 82
2, 127678, Note_on_c, 0, 59, 74
2, 127678, Note_on_c, 0, 55, 65
2, 127692, Note_on_c, 0, 50, 69
2, 127748, Control_c, 0, 64, 0
2, 127840, Note_on_c, 0, 50, 0
2, 127852, Note_on_c, 0, 52, 83
2, 127978, Control_c, 0, 64, 127
2, 128000, Note_on_c, 0, 55, 0
2, 128002, Note_on_c, 0, 50, 73
2, 128026, Note_on_c, 0, 59, 0
2, 128084, Note_on_c, 0, 52, 0
2, 128100, Note_on_c, 0, 50, 0
2, 128200, Note_on_c, 0, 59, 82
2, 128202, Note_on_c, 0, 55, 77
2, 128204, Note_on_c, 0, 50, 58
2, 128242, Note_on_c, 0, 43, 0
2, 128244, Note_on_c, 0, 31, 0
2, 128356, Note_on_c, 0, 50, 0
2, 128396, Note_on_c, 0, 52, 78
2, 128444, Note_on_c, 0, 45, 92
2, 128456, Note_on_c, 0, 33, 93
2, 128482, Note_on_c, 0, 59, 0
2, 128485, Note_on_c, 0, 55, 0
2, 128566, Note_on_c, 0, 52, 0
2, 128574, Note_on_c, 0, 50, 64
2, 128618, Note_on_c, 0, 45, 0
2, 128646, Note_on_c, 0, 33, 0
2, 128649, Note_on_c, 0, 50, 0
2, 128736, Note_on_c, 0, 58, 77
2, 128739, Note_on_c, 0, 50, 67
2, 128746, Note_on_c, 0, 55, 72
2, 128748, Note_on_c, 0, 46, 102
2, 128754, Note_on_c, 0, 34, 93
2, 128870, Control_c, 0, 64, 0
2, 128922, Note_on_c, 0, 51, 74
2, 128940, Note_on_c, 0, 50, 0
2, 129076, Note_on_c, 0, 50, 80
2, 129084, Control_c, 0, 64, 127
2, 129142, Note_on_c, 0, 58, 0
2, 129154, Note_on_c, 0, 50, 0
2, 129188, Note_on_c, 0, 55, 0
2, 129191, Note_on_c, 0, 51, 0
2, 129262, Note_on_c, 0, 58, 87
2, 129266, Note_on_c, 0, 51, 70
2, 129270, Note_on_c, 0, 46, 0
2, 129278, Note_on_c, 0, 50, 87
2, 129292, Note_on_c, 0, 55, 67
2, 129356, Note_on_c, 0, 51, 0
2, 129366, Note_on_c, 0, 34, 0
2, 129406, Note_on_c, 0, 50, 0
2, 129494, Note_on_c, 0, 50, 62
2, 129538, Note_on_c, 0, 43, 111
2, 129542, Note_on_c, 0, 31, 111
2, 129568, Note_on_c, 0, 51, 78
2, 129594, Note_on_c, 0, 31, 0
2, 129597, Note_on_c, 0, 50, 0
2, 129624, Note_on_c, 0, 43, 0
2, 129690, Note_on_c, 0, 51, 0
2, 129702, Note_on_c, 0, 50, 80
2, 129784, Note_on_c, 0, 55, 0
2, 129787, Note_on_c, 0, 58, 0
2, 129814, Note_on_c, 0, 50, 0
2, 129970, Note_on_c, 0, 58, 86
2, 129976, Note_on_c, 0, 50, 89
2, 130010, Note_on_c, 0, 51, 111
2, 130012, Note_on_c, 0, 39, 111
2, 130130, Control_c, 0, 64, 0
2, 130240, Note_on_c, 0, 55, 78
2, 130284, Note_on_c, 0, 50, 0
2, 130360, Control_c, 0, 64, 127
2, 130394, Note_on_c, 0, 50, 67
2, 130444, Note_on_c, 0, 55, 0
2, 130470, Note_on_c, 0, 50, 0
2, 130504, Note_on_c, 0, 51, 0
2, 130564, Note_on_c, 0, 39, 0
2, 130588, Note_on_c, 0, 50, 70
2, 130748, Note_on_c, 0, 50, 0
2, 130766, Note_on_c, 0, 55, 73
2, 130912, Note_on_c, 0, 50, 72
2, 130966, Note_on_c, 0, 58, 0
2, 131032, Note_on_c, 0, 50, 0
2, 131188, Note_on_c, 0, 57, 75
2, 131196, Note_on_c, 0, 51, 64
2, 131224, Note_on_c, 0, 55, 0
2, 131230, Note_on_c, 0, 36, 93
2, 131230, Note_on_c, 0, 48, 82
2, 131428, Note_on_c, 0, 55, 73
2, 131450, Note_on_c, 0, 51, 0
2, 131568, Note_on_c, 0, 55, 0
2, 131598, Note_on_c, 0, 51, 47
2, 131658, Note_on_c, 0, 51, 0
2, 131728, Note_on_c, 0, 48, 0
2, 131746, Note_on_c, 0, 51, 58
2, 131864, Note_on_c, 0, 51, 0
2, 131934, Note_on_c, 0, 36, 0
2, 132012, Note_on_c, 0, 55, 93
2, 132014, Note_on_c, 0, 33, 81
2, 132016, Note_on_c, 0, 45, 71
2, 132020, Note_on_c, 0, 48, 60
2, 132054, Note_on_c, 0, 57, 0
2, 132172, Note_on_c, 0, 45, 0
2, 132196, Note_on_c, 0, 48, 0
2, 132200, Note_on_c, 0, 55, 0
2, 132352, Note_on_c, 0, 55, 93
2, 132356, Note_on_c, 0, 50, 64
2, 132356, Note_on_c, 0, 45, 58
2, 132358, Control_c, 0, 64, 0
2, 132366, Note_on_c, 0, 33, 0
2, 132368, Note_on_c, 0, 38, 62
2, 132612, Note_on_c, 0, 51, 58
2, 132630, Note_on_c, 0, 50, 0
2, 132650, Control_c, 0, 64, 127
2, 132786, Note_on_c, 0, 51, 0
2, 132792, Note_on_c, 0, 50, 72
2, 132872, Note_on_c, 0, 50, 0
2, 132980, Note_on_c, 0, 50, 62
2, 133144, Note_on_c, 0, 50, 0
2, 133164, Note_on_c, 0, 51, 54
2, 133260, Note_on_c, 0, 45, 0
2, 133260, Note_on_c, 0, 38, 0
2, 133308, Note_on_c, 0, 51, 0
2, 133308, Note_on_c, 0, 50, 71
2, 133364, Note_on_c, 0, 50, 0
2, 133480, Control_c, 0, 64, 0
2, 133494, Note_on_c, 0, 54, 85
2, 133496, Note_on_c, 0, 45, 60
2, 133512, Note_on_c, 0, 38, 63
2, 133512, Note_on_c, 0, 50, 63
2, 133542, Note_on_c, 0, 55, 0
2, 133686, Note_on_c, 0, 50, 0
2, 133694, Note_on_c, 0, 51, 75
2, 133740, Control_c, 0, 64, 127
2, 133844, Note_on_c, 0, 50, 82
2, 133892, Note_on_c, 0, 51, 0
2, 133912, Note_on_c, 0, 50, 0
2, 134016, Note_on_c, 0, 50, 71
2, 134144, Note_on_c, 0, 50, 0
2, 134182, Note_on_c, 0, 51, 69
2, 134220, Note_on_c, 0, 54, 0
2, 134320, Note_on_c, 0, 51, 0
2, 134338, Note_on_c, 0, 50, 88
2, 134378, Note_on_c, 0, 50, 0
2, 134454, Note_on_c, 0, 45, 0
2, 134542, Note_on_c, 0, 38, 0
2, 134650, Note_on_c, 0, 59, 96
2, 134652, Note_on_c, 0, 62, 89
2, 134652, Note_on_c, 0, 67, 90
2, 134654, Note_on_c, 0, 71, 101
2, 134660, Note_on_c, 0, 43, 95
2, 134662, Note_on_c, 0, 31, 102
2, 134892, Control_c, 0, 64, 0
2, 134928, Note_on_c, 0, 64, 79
2, 134940, Note_on_c, 0, 62, 0
2, 135046, Control_c, 0, 64, 127
2, 135090, Note_on_c, 0, 62, 82
2, 135122, Note_on_c, 0, 64, 0
2, 135136, Note_on_c, 0, 62, 0
2, 135276, Note_on_c, 0, 62, 73
2, 135348, Note_on_c, 0, 31, 0
2, 135354, Note_on_c, 0, 43, 0
2, 135408, Note_on_c, 0, 62, 0
2, 135430, Note_on_c, 0, 71, 0
2, 135448, Note_on_c, 0, 64, 79
2, 135462, Note_on_c, 0, 67, 0
2, 135470, Note_on_c, 0, 59, 0
2, 135510, Note_on_c, 0, 45, 105
2, 135518, Note_on_c, 0, 33, 98
2, 135604, Note_on_c, 0, 62, 90
2, 135618, Note_on_c, 0, 64, 0
2, 135660, Note_on_c, 0, 45, 0
2, 135672, Note_on_c, 0, 33, 0
2, 135694, Note_on_c, 0, 62, 0
2, 135772, Note_on_c, 0, 58, 85
2, 135774, Note_on_c, 0, 62, 87
2, 135774, Note_on_c, 0, 67, 80
2, 135776, Note_on_c, 0, 70, 93
2, 135778, Note_on_c, 0, 46, 101
2, 135782, Note_on_c, 0, 34, 101
2, 135830, Control_c, 0, 64, 0
2, 135960, Note_on_c, 0, 63, 89
2, 135972, Note_on_c, 0, 62, 0
2, 136046, Control_c, 0, 64, 127
2, 136098, Note_on_c, 0, 62, 70
2, 136148, Note_on_c, 0, 63, 0
2, 136158, Note_on_c, 0, 62, 0
2, 136306, Note_on_c, 0, 46, 0
2, 136310, Note_on_c, 0, 62, 83
2, 136344, Note_on_c, 0, 58, 0
2, 136430, Note_on_c, 0, 34, 0
2, 136456, Note_on_c, 0, 63, 78
2, 136470, Note_on_c, 0, 62, 0
2, 136552, Note_on_c, 0, 43, 120
2, 136555, Note_on_c, 0, 31, 118
2, 136560, Note_on_c, 0, 70, 0
2, 136596, Note_on_c, 0, 67, 0
2, 136604, Note_on_c, 0, 31, 0
2, 136628, Note_on_c, 0, 62, 85
2, 136632, Note_on_c, 0, 43, 0
2, 136652, Note_on_c, 0, 63, 0
2, 136756, Note_on_c, 0, 62, 0
2, 136886, Note_on_c, 0, 70, 98
2, 136890, Note_on_c, 0, 58, 90
2, 136902, Note_on_c, 0, 62, 102
2, 136904, Note_on_c, 0, 51, 118
2, 136912, Note_on_c, 0, 39, 112
2, 137028, Control_c, 0, 64, 0
2, 137148, Note_on_c, 0, 67, 81
2, 137178, Note_on_c, 0, 62, 0
2, 137228, Control_c, 0, 64, 127
2, 137324, Note_on_c, 0, 67, 0
2, 137327, Note_on_c, 0, 62, 75
2, 137380, Note_on_c, 0, 62, 0
2, 137538, Note_on_c, 0, 62, 72
2, 137644, Note_on_c, 0, 62, 0
2, 137694, Note_on_c, 0, 67, 67
2, 137806, Note_on_c, 0, 70, 0
2, 137848, Note_on_c, 0, 67, 0
2, 137860, Note_on_c, 0, 62, 72
2, 137900, Note_on_c, 0, 58, 0
2, 137900, Note_on_c, 0, 51, 0
2, 137932, Note_on_c, 0, 62, 0
2, 138094, Note_on_c, 0, 69, 77
2, 138094, Note_on_c, 0, 57, 83
2, 138097, Note_on_c, 0, 63, 82
2, 138106, Note_on_c, 0, 48, 79
2, 138110, Note_on_c, 0, 36, 87
2, 138116, Note_on_c, 0, 39, 0
2, 138180, Control_c, 0, 64, 0
2, 138336, Note_on_c, 0, 63, 0
2, 138346, Note_on_c, 0, 67, 62
2, 138382, Control_c, 0, 64, 127
2, 138438, Note_on_c, 0, 67, 0
2, 138494, Note_on_c, 0, 63, 50
2, 138546, Note_on_c, 0, 63, 0
2, 138556, Note_on_c, 0, 57, 0
2, 138640, Note_on_c, 0, 63, 54
2, 138650, Note_on_c, 0, 48, 0
2, 138718, Note_on_c, 0, 36, 0
2, 138786, Note_on_c, 0, 63, 0
2, 138900, Note_on_c, 0, 67, 85
2, 138903, Note_on_c, 0, 33, 93
2, 138908, Note_on_c, 0, 45, 72
2, 138916, Note_on_c, 0, 60, 56
2, 138972, Note_on_c, 0, 69, 0
2, 139082, Note_on_c, 0, 45, 0
2, 139098, Note_on_c, 0, 60, 0
2, 139124, Note_on_c, 0, 33, 0
2, 139130, Note_on_c, 0, 67, 0
2, 139246, Control_c, 0, 64, 0
2, 139250, Note_on_c, 0, 45, 63
2, 139252, Note_on_c, 0, 38, 78
2, 139255, Note_on_c, 0, 67, 81
2, 139264, Note_on_c, 0, 62, 67
2, 139482, Note_on_c, 0, 62, 0
2, 139488, Note_on_c, 0, 63, 50
2, 139564, Control_c, 0, 64, 127
2, 139650, Note_on_c, 0, 63, 0
2, 139660, Note_on_c, 0, 62, 54
2, 139676, Note_on_c, 0, 38, 0
2, 139680, Note_on_c, 0, 45, 0
2, 139710, Note_on_c, 0, 62, 0
2, 139814, Note_on_c, 0, 62, 27
2, 139922, Note_on_c, 0, 62, 0
2, 139982, Note_on_c, 0, 63, 43
2, 140082, Note_on_c, 0, 63, 0
2, 140138, Note_on_c, 0, 62, 44
2, 140196, Note_on_c, 0, 62, 0
2, 140282, Note_on_c, 0, 62, 42
2, 140384, Note_on_c, 0, 62, 0
2, 140462, Note_on_c, 0, 63, 40
2, 140550, Note_on_c, 0, 63, 0
2, 140606, Note_on_c, 0, 62, 32
2, 140670, Note_on_c, 0, 62, 0
2, 140764, Note_on_c, 0, 62, 35
2, 140866, Note_on_c, 0, 62, 0
2, 140966, Note_on_c, 0, 63, 36
2, 141086, Note_on_c, 0, 63, 0
2, 141124, Note_on_c, 0, 62, 33
2, 141186, Note_on_c, 0, 62, 0
2, 141338, Note_on_c, 0, 66, 46
2, 141372, Note_on_c, 0, 62, 35
2, 141378, Note_on_c, 0, 67, 0
2, 141392, Control_c, 0, 64, 0
2, 141424, Note_on_c, 0, 38, 3
2, 141454, Note_on_c, 0, 45, 2
2, 141555, Note_on_c, 0, 63, 40
2, 141566, Note_on_c, 0, 62, 0
2, 141608, Control_c, 0, 64, 127
2, 141644, Note_on_c, 0, 63, 0
2, 141706, Note_on_c, 0, 62, 23
2, 141784, Note_on_c, 0, 62, 0
2, 141870, Note_on_c, 0, 62, 54
2, 141930, Control_c, 0, 64, 0
2, 142044, Note_on_c, 0, 62, 0
2, 142060, Note_on_c, 0, 63, 51
2, 142084, Control_c, 0, 64, 127
2, 142174, Note_on_c, 0, 63, 0
2, 142234, Note_on_c, 0, 62, 34
2, 142298, Note_on_c, 0, 62, 0
2, 142344, Control_c, 0, 64, 0
2, 142380, Note_on_c, 0, 62, 49
2, 142514, Note_on_c, 0, 62, 0
2, 142530, Control_c, 0, 64, 127
2, 142552, Note_on_c, 0, 45, 0
2, 142564, Note_on_c, 0, 63, 46
2, 142586, Note_on_c, 0, 38, 0
2, 142640, Note_on_c, 0, 66, 0
2, 142706, Note_on_c, 0, 63, 0
2, 143000, Note_on_c, 0, 38, 43
2, 143016, Note_on_c, 0, 26, 17
2, 143016, Note_on_c, 0, 50, 23
2, 143020, Control_c, 0, 64, 0
2, 143226, Note_on_c, 0, 62, 52
2, 143228, Note_on_c, 0, 50, 0
2, 143236, Control_c, 0, 64, 127
2, 143278, Note_on_c, 0, 26, 0
2, 143318, Note_on_c, 0, 62, 0
2, 143336, Note_on_c, 0, 38, 0
2, 143450, Note_on_c, 0, 50, 72
2, 143498, Note_on_c, 0, 50, 0
2, 143698, Control_c, 0, 64, 0
2, 143724, Note_on_c, 0, 67, 60
2, 143732, Note_on_c, 0, 62, 50
2, 143736, Note_on_c, 0, 55, 55
2, 143744, Note_on_c, 0, 43, 41
2, 143747, Note_on_c, 0, 31, 41
2, 143747, Note_on_c, 0, 38, 39
2, 143920, Note_on_c, 0, 62, 0
2, 143922, Note_on_c, 0, 63, 52
2, 143924, Note_on_c, 0, 31, 0
2, 143952, Note_on_c, 0, 38, 0
2, 143958, Control_c, 0, 64, 127
2, 143970, Note_on_c, 0, 43, 0
2, 144102, Note_on_c, 0, 63, 0
2, 144112, Note_on_c, 0, 62, 36
2, 144178, Note_on_c, 0, 62, 0
2, 144216, Note_on_c, 0, 55, 0
2, 144358, Note_on_c, 0, 62, 28
2, 144360, Note_on_c, 0, 70, 31
2, 144442, Note_on_c, 0, 62, 0
2, 144502, Note_on_c, 0, 63, 40
2, 144542, Note_on_c, 0, 70, 0
2, 144572, Note_on_c, 0, 63, 0
2, 144676, Note_on_c, 0, 62, 46
2, 144732, Note_on_c, 0, 62, 0
2, 144884, Note_on_c, 0, 74, 65
2, 144908, Note_on_c, 0, 62, 11
2, 144926, Note_on_c, 0, 74, 0
2, 144990, Note_on_c, 0, 62, 0
2, 145042, Note_on_c, 0, 63, 40
2, 145114, Note_on_c, 0, 67, 0
2, 145198, Note_on_c, 0, 62, 23
2, 145222, Note_on_c, 0, 63, 0
2, 145266, Note_on_c, 0, 62, 0
2, 145390, Note_on_c, 0, 69, 57
2, 145398, Note_on_c, 0, 57, 50
2, 145416, Note_on_c, 0, 45, 32
2, 145418, Control_c, 0, 64, 0
2, 145420, Note_on_c, 0, 33, 36
2, 145434, Note_on_c, 0, 38, 39
2, 145442, Note_on_c, 0, 62, 21
2, 145522, Note_on_c, 0, 62, 0
2, 145586, Control_c, 0, 64, 127
2, 145598, Note_on_c, 0, 38, 0
2, 145604, Note_on_c, 0, 63, 35
2, 145646, Note_on_c, 0, 57, 0
2, 145648, Note_on_c, 0, 33, 0
2, 145660, Note_on_c, 0, 45, 0
2, 145690, Note_on_c, 0, 63, 0
2, 145694, Note_on_c, 0, 69, 0
2, 145758, Note_on_c, 0, 62, 32
2, 145820, Note_on_c, 0, 62, 0
2, 145922, Note_on_c, 0, 70, 66
2, 145932, Note_on_c, 0, 58, 46
2, 145934, Note_on_c, 0, 62, 19
2, 145940, Control_c, 0, 64, 0
2, 145942, Note_on_c, 0, 46, 47
2, 145950, Note_on_c, 0, 34, 47
2, 145980, Note_on_c, 0, 38, 43
2, 146082, Note_on_c, 0, 62, 0
2, 146122, Note_on_c, 0, 34, 0
2, 146122, Note_on_c, 0, 38, 0
2, 146140, Control_c, 0, 64, 127
2, 146148, Note_on_c, 0, 63, 43
2, 146162, Note_on_c, 0, 46, 0
2, 146168, Note_on_c, 0, 58, 0
2, 146218, Note_on_c, 0, 63, 0
2, 146290, Note_on_c, 0, 70, 0
2, 146340, Note_on_c, 0, 62, 9
2, 146412, Note_on_c, 0, 62, 0
2, 146510, Note_on_c, 0, 62, 35
2, 146518, Note_on_c, 0, 74, 70
2, 146606, Note_on_c, 0, 62, 0
2, 146702, Note_on_c, 0, 63, 46
2, 146736, Note_on_c, 0, 74, 0
2, 146782, Note_on_c, 0, 63, 0
2, 146874, Note_on_c, 0, 62, 18
2, 146944, Note_on_c, 0, 62, 0
2, 147042, Note_on_c, 0, 79, 73
2, 147045, Note_on_c, 0, 62, 33
2, 147104, Note_on_c, 0, 79, 0
2, 147164, Note_on_c, 0, 62, 0
2, 147216, Note_on_c, 0, 63, 52
2, 147360, Note_on_c, 0, 63, 0
2, 147382, Note_on_c, 0, 62, 52
2, 147440, Note_on_c, 0, 62, 0
2, 147578, Note_on_c, 0, 45, 50
2, 147582, Note_on_c, 0, 69, 56
2, 147584, Note_on_c, 0, 57, 46
2, 147594, Note_on_c, 0, 33, 39
2, 147606, Note_on_c, 0, 38, 41
2, 147626, Note_on_c, 0, 62, 23
2, 147690, Note_on_c, 0, 62, 0
2, 147772, Note_on_c, 0, 38, 0
2, 147786, Note_on_c, 0, 63, 35
2, 147828, Note_on_c, 0, 57, 0
2, 147848, Note_on_c, 0, 69, 0
2, 147866, Note_on_c, 0, 63, 0
2, 147932, Note_on_c, 0, 33, 0
2, 147946, Note_on_c, 0, 45, 0
2, 147951, Note_on_c, 0, 62, 16
2, 148012, Note_on_c, 0, 62, 0
2, 148092, Control_c, 0, 64, 0
2, 148094, Note_on_c, 0, 62, 63
2, 148100, Note_on_c, 0, 43, 72
2, 148110, Note_on_c, 0, 55, 72
2, 148112, Note_on_c, 0, 67, 74
2, 148112, Note_on_c, 0, 31, 57
2, 148128, Note_on_c, 0, 38, 48
2, 148260, Note_on_c, 0, 31, 0
2, 148278, Note_on_c, 0, 62, 0
2, 148288, Note_on_c, 0, 63, 51
2, 148296, Note_on_c, 0, 38, 0
2, 148306, Control_c, 0, 64, 127
2, 148308, Note_on_c, 0, 43, 0
2, 148326, Note_on_c, 0, 55, 0
2, 148396, Note_on_c, 0, 63, 0
2, 148446, Note_on_c, 0, 62, 40
2, 148506, Note_on_c, 0, 62, 0
2, 148632, Note_on_c, 0, 70, 62
2, 148644, Note_on_c, 0, 62, 29
2, 148732, Note_on_c, 0, 62, 0
2, 148796, Note_on_c, 0, 63, 37
2, 148832, Note_on_c, 0, 70, 0
2, 148894, Note_on_c, 0, 63, 0
2, 148934, Note_on_c, 0, 62, 40
2, 148944, Note_on_c, 0, 67, 0
2, 148998, Note_on_c, 0, 62, 0
2, 149160, Note_on_c, 0, 74, 69
2, 149186, Note_on_c, 0, 62, 41
2, 149212, Note_on_c, 0, 74, 0
2, 149266, Note_on_c, 0, 62, 0
2, 149324, Note_on_c, 0, 63, 48
2, 149468, Note_on_c, 0, 63, 0
2, 149532, Note_on_c, 0, 62, 29
2, 149598, Note_on_c, 0, 62, 0
2, 149762, Note_on_c, 0, 66, 50
2, 149762, Note_on_c, 0, 42, 32
2, 149764, Note_on_c, 0, 54, 52
2, 149778, Note_on_c, 0, 30, 39
2, 149792, Note_on_c, 0, 62, 33
2, 149798, Control_c, 0, 64, 0
2, 149818, Note_on_c, 0, 38, 21
2, 149862, Note_on_c, 0, 62, 0
2, 149944, Note_on_c, 0, 63, 43
2, 149950, Note_on_c, 0, 38, 0
2, 149996, Control_c, 0, 64, 127
2, 150052, Note_on_c, 0, 54, 0
2, 150062, Note_on_c, 0, 42, 0
2, 150090, Note_on_c, 0, 66, 0
2, 150132, Note_on_c, 0, 63, 0
2, 150136, Note_on_c, 0, 62, 40
2, 150146, Note_on_c, 0, 30, 0
2, 150198, Note_on_c, 0, 62, 0
2, 150334, Control_c, 0, 64, 0
2, 150352, Note_on_c, 0, 65, 55
2, 150354, Note_on_c, 0, 53, 72
2, 150372, Note_on_c, 0, 29, 41
2, 150374, Note_on_c, 0, 41, 48
2, 150378, Note_on_c, 0, 38, 44
2, 150380, Note_on_c, 0, 62, 48
2, 150550, Control_c, 0, 64, 127
2, 150552, Note_on_c, 0, 29, 0
2, 150568, Note_on_c, 0, 62, 0
2, 150588, Note_on_c, 0, 38, 0
2, 150590, Note_on_c, 0, 63, 54
2, 150594, Note_on_c, 0, 41, 0
2, 150624, Note_on_c, 0, 53, 0
2, 150706, Note_on_c, 0, 63, 0
2, 150752, Note_on_c, 0, 62, 35
2, 150816, Note_on_c, 0, 62, 0
2, 150902, Note_on_c, 0, 70, 63
2, 150916, Note_on_c, 0, 62, 33
2, 151034, Note_on_c, 0, 62, 0
2, 151082, Note_on_c, 0, 70, 0
2, 151096, Note_on_c, 0, 63, 31
2, 151178, Note_on_c, 0, 63, 0
2, 151216, Note_on_c, 0, 62, 41
2, 151272, Note_on_c, 0, 65, 0
2, 151296, Note_on_c, 0, 62, 0
2, 151436, Note_on_c, 0, 74, 67
2, 151462, Note_on_c, 0, 62, 41
2, 151480, Note_on_c, 0, 74, 0
2, 151560, Note_on_c, 0, 62, 0
2, 151604, Note_on_c, 0, 63, 54
2, 151712, Note_on_c, 0, 63, 0
2, 151742, Note_on_c, 0, 62, 42
2, 151804, Note_on_c, 0, 62, 0
2, 151990, Note_on_c, 0, 26, 71
2, 151992, Note_on_c, 0, 38, 71
2, 151994, Note_on_c, 0, 50, 81
2, 152056, Control_c, 0, 64, 0
2, 152172, Note_on_c, 0, 50, 0
2, 152175, Note_on_c, 0, 62, 57
2, 152208, Note_on_c, 0, 26, 0
2, 152210, Control_c, 0, 64, 127
2, 152260, Note_on_c, 0, 38, 0
2, 152328, Note_on_c, 0, 50, 63
2, 152380, Note_on_c, 0, 50, 0
2, 152380, Note_on_c, 0, 62, 0
2, 152578, Control_c, 0, 64, 0
2, 152604, Note_on_c, 0, 31, 70
2, 152604, Note_on_c, 0, 67, 80
2, 152604, Note_on_c, 0, 43, 60
2, 152612, Note_on_c, 0, 62, 66
2, 152615, Note_on_c, 0, 38, 55
2, 152615, Note_on_c, 0, 55, 71
2, 152792, Note_on_c, 0, 31, 0
2, 152800, Note_on_c, 0, 62, 0
2, 152810, Note_on_c, 0, 63, 57
2, 152830, Note_on_c, 0, 38, 0
2, 152840, Control_c, 0, 64, 127
2, 152846, Note_on_c, 0, 43, 0
2, 152896, Note_on_c, 0, 63, 0
2, 152966, Note_on_c, 0, 55, 0
2, 152974, Note_on_c, 0, 62, 50
2, 153038, Note_on_c, 0, 62, 0
2, 153158, Note_on_c, 0, 62, 39
2, 153174, Note_on_c, 0, 70, 69
2, 153320, Note_on_c, 0, 62, 0
2, 153344, Note_on_c, 0, 63, 44
2, 153388, Note_on_c, 0, 70, 0
2, 153444, Note_on_c, 0, 63, 0
2, 153494, Note_on_c, 0, 62, 57
2, 153556, Note_on_c, 0, 62, 0
2, 153682, Note_on_c, 0, 74, 80
2, 153692, Note_on_c, 0, 62, 56
2, 153724, Note_on_c, 0, 74, 0
2, 153842, Note_on_c, 0, 62, 0
2, 153848, Note_on_c, 0, 63, 63
2, 154002, Note_on_c, 0, 67, 0
2, 154010, Note_on_c, 0, 62, 67
2, 154064, Note_on_c, 0, 62, 0
2, 154086, Note_on_c, 0, 63, 0
2, 154156, Note_on_c, 0, 45, 62
2, 154156, Note_on_c, 0, 69, 83
2, 154162, Note_on_c, 0, 62, 60
2, 154162, Note_on_c, 0, 57, 75
2, 154162, Note_on_c, 0, 33, 63
2, 154165, Note_on_c, 0, 38, 66
2, 154190, Control_c, 0, 64, 0
2, 154330, Note_on_c, 0, 62, 0
2, 154346, Note_on_c, 0, 63, 71
2, 154360, Control_c, 0, 64, 127
2, 154390, Note_on_c, 0, 38, 0
2, 154396, Note_on_c, 0, 57, 0
2, 154442, Note_on_c, 0, 69, 0
2, 154448, Note_on_c, 0, 33, 0
2, 154464, Note_on_c, 0, 45, 0
2, 154498, Note_on_c, 0, 62, 63
2, 154520, Note_on_c, 0, 63, 0
2, 154556, Note_on_c, 0, 62, 0
2, 154664, Note_on_c, 0, 70, 87
2, 154667, Control_c, 0, 64, 0
2, 154670, Note_on_c, 0, 62, 70
2, 154670, Note_on_c, 0, 58, 73
2, 154676, Note_on_c, 0, 46, 77
2, 154680, Note_on_c, 0, 34, 74
2, 154716, Note_on_c, 0, 38, 51
2, 154846, Note_on_c, 0, 58, 0
2, 154862, Note_on_c, 0, 63, 80
2, 154874, Note_on_c, 0, 38, 0
2, 154876, Note_on_c, 0, 34, 0
2, 154880, Note_on_c, 0, 62, 0
2, 154882, Control_c, 0, 64, 127
2, 154916, Note_on_c, 0, 46, 0
2, 155022, Note_on_c, 0, 70, 0
2, 155022, Note_on_c, 0, 62, 67
2, 155046, Note_on_c, 0, 63, 0
2, 155084, Note_on_c, 0, 62, 0
2, 155202, Note_on_c, 0, 62, 63
2, 155208, Note_on_c, 0, 74, 100
2, 155378, Note_on_c, 0, 63, 81
2, 155396, Note_on_c, 0, 62, 0
2, 155530, Note_on_c, 0, 62, 77
2, 155558, Note_on_c, 0, 63, 0
2, 155564, Note_on_c, 0, 74, 0
2, 155592, Note_on_c, 0, 62, 0
2, 155684, Note_on_c, 0, 79, 104
2, 155700, Note_on_c, 0, 62, 79
2, 155774, Note_on_c, 0, 79, 0
2, 155830, Note_on_c, 0, 62, 0
2, 155860, Note_on_c, 0, 63, 79
2, 155908, Note_on_c, 0, 63, 0
2, 155998, Note_on_c, 0, 62, 62
2, 156094, Note_on_c, 0, 62, 0
2, 156174, Note_on_c, 0, 50, 97
2, 156182, Note_on_c, 0, 38, 80
2, 156186, Note_on_c, 0, 62, 83
2, 156330, Note_on_c, 0, 62, 0
2, 156340, Note_on_c, 0, 50, 0
2, 156374, Note_on_c, 0, 74, 80
2, 156398, Note_on_c, 0, 38, 0
2, 156510, Note_on_c, 0, 74, 0
2, 156530, Note_on_c, 0, 62, 82
2, 156582, Note_on_c, 0, 62, 0
2, 156772, Control_c, 0, 64, 0
2, 156774, Note_on_c, 0, 68, 80
2, 156780, Note_on_c, 0, 44, 87
2, 156780, Note_on_c, 0, 56, 80
2, 156783, Note_on_c, 0, 32, 74
2, 156790, Note_on_c, 0, 62, 77
2, 156800, Note_on_c, 0, 38, 63
2, 156976, Note_on_c, 0, 32, 0
2, 156998, Note_on_c, 0, 38, 0
2, 157001, Note_on_c, 0, 62, 0
2, 157014, Note_on_c, 0, 64, 65
2, 157017, Control_c, 0, 64, 127
2, 157022, Note_on_c, 0, 44, 0
2, 157080, Note_on_c, 0, 56, 0
2, 157178, Note_on_c, 0, 62, 62
2, 157184, Note_on_c, 0, 64, 0
2, 157268, Note_on_c, 0, 62, 0
2, 157382, Note_on_c, 0, 62, 55
2, 157402, Note_on_c, 0, 74, 74
2, 157570, Note_on_c, 0, 62, 0
2, 157588, Note_on_c, 0, 64, 65
2, 157694, Note_on_c, 0, 74, 0
2, 157736, Note_on_c, 0, 62, 62
2, 157739, Note_on_c, 0, 64, 0
2, 157790, Note_on_c, 0, 62, 0
2, 157922, Note_on_c, 0, 77, 64
2, 157924, Note_on_c, 0, 62, 34
2, 157966, Note_on_c, 0, 77, 0
2, 158080, Note_on_c, 0, 62, 0
2, 158126, Note_on_c, 0, 64, 41
2, 158150, Note_on_c, 0, 68, 0
2, 158270, Note_on_c, 0, 62, 47
2, 158314, Note_on_c, 0, 64, 0
2, 158350, Note_on_c, 0, 62, 0
2, 158472, Note_on_c, 0, 62, 35
2, 158475, Note_on_c, 0, 57, 56
2, 158478, Note_on_c, 0, 69, 49
2, 158482, Note_on_c, 0, 45, 37
2, 158492, Note_on_c, 0, 33, 39
2, 158494, Control_c, 0, 64, 0
2, 158518, Note_on_c, 0, 38, 32
2, 158660, Note_on_c, 0, 62, 0
2, 158692, Control_c, 0, 64, 127
2, 158718, Note_on_c, 0, 64, 39
2, 158721, Note_on_c, 0, 45, 0
2, 158732, Note_on_c, 0, 69, 0
2, 158752, Note_on_c, 0, 57, 0
2, 158756, Note_on_c, 0, 38, 0
2, 158784, Note_on_c, 0, 33, 0
2, 158850, Note_on_c, 0, 64, 0
2, 158878, Note_on_c, 0, 62, 52
2, 158932, Note_on_c, 0, 62, 0
2, 159090, Note_on_c, 0, 38, 47
2, 159093, Control_c, 0, 64, 0
2, 159096, Note_on_c, 0, 26, 39
2, 159112, Note_on_c, 0, 50, 25
2, 159232, Note_on_c, 0, 26, 0
2, 159262, Control_c, 0, 64, 127
2, 159268, Note_on_c, 0, 38, 0
2, 159278, Note_on_c, 0, 50, 0
2, 159278, Note_on_c, 0, 62, 47
2, 159388, Note_on_c, 0, 62, 0
2, 159440, Note_on_c, 0, 50, 51
2, 159511, Note_on_c, 0, 50, 0
2, 159620, Note_on_c, 0, 69, 34
2, 159634, Note_on_c, 0, 50, 31
2, 159726, Note_on_c, 0, 50, 0
2, 159790, Note_on_c, 0, 62, 37
2, 159838, Note_on_c, 0, 69, 0
2, 159892, Note_on_c, 0, 62, 0
2, 159926, Note_on_c, 0, 50, 32
2, 160010, Note_on_c, 0, 50, 0
2, 160118, Note_on_c, 0, 50, 34
2, 160134, Note_on_c, 0, 74, 32
2, 160190, Note_on_c, 0, 74, 0
2, 160250, Note_on_c, 0, 50, 0
2, 160314, Note_on_c, 0, 62, 41
2, 160450, Note_on_c, 0, 62, 0
2, 160488, Note_on_c, 0, 50, 55
2, 160540, Note_on_c, 0, 50, 0
2, 160742, Note_on_c, 0, 62, 63
2, 160752, Note_on_c, 0, 26, 35
2, 160760, Note_on_c, 0, 38, 42
2, 160918, Note_on_c, 0, 62, 0
2, 160936, Note_on_c, 0, 63, 59
2, 160942, Note_on_c, 0, 26, 0
2, 161004, Note_on_c, 0, 38, 0
2, 161038, Note_on_c, 0, 63, 0
2, 161096, Note_on_c, 0, 62, 63
2, 161148, Note_on_c, 0, 62, 0
2, 161260, Control_c, 0, 64, 0
2, 161270, Note_on_c, 0, 43, 50
2, 161272, Note_on_c, 0, 31, 63
2, 161280, Note_on_c, 0, 55, 54
2, 161280, Note_on_c, 0, 67, 70
2, 161286, Note_on_c, 0, 38, 51
2, 161298, Note_on_c, 0, 62, 34
2, 161456, Note_on_c, 0, 62, 0
2, 161460, Note_on_c, 0, 38, 0
2, 161476, Note_on_c, 0, 31, 0
2, 161480, Note_on_c, 0, 63, 42
2, 161490, Control_c, 0, 64, 127
2, 161518, Note_on_c, 0, 43, 0
2, 161586, Note_on_c, 0, 63, 0
2, 161616, Note_on_c, 0, 55, 0
2, 161646, Note_on_c, 0, 62, 40
2, 161706, Note_on_c, 0, 62, 0
2, 161846, Note_on_c, 0, 62, 13
2, 161884, Note_on_c, 0, 71, 55
2, 162024, Note_on_c, 0, 62, 0
2, 162038, Note_on_c, 0, 63, 57
2, 162122, Note_on_c, 0, 63, 0
2, 162184, Note_on_c, 0, 71, 0
2, 162196, Note_on_c, 0, 62, 58
2, 162254, Note_on_c, 0, 62, 0
2, 162358, Note_on_c, 0, 62, 46
2, 162361, Note_on_c, 0, 74, 66
2, 162410, Note_on_c, 0, 74, 0
2, 162496, Note_on_c, 0, 62, 0
2, 162528, Note_on_c, 0, 63, 50
2, 162674, Note_on_c, 0, 62, 50
2, 162702, Note_on_c, 0, 67, 0
2, 162732, Note_on_c, 0, 62, 0
2, 162738, Note_on_c, 0, 63, 0
2, 162864, Note_on_c, 0, 56, 70
2, 162864, Note_on_c, 0, 68, 77
2, 162870, Note_on_c, 0, 41, 63
2, 162872, Note_on_c, 0, 29, 60
2, 162888, Control_c, 0, 64, 0
2, 162894, Note_on_c, 0, 38, 55
2, 162902, Note_on_c, 0, 62, 48
2, 162962, Note_on_c, 0, 62, 0
2, 163056, Note_on_c, 0, 38, 0
2, 163102, Control_c, 0, 64, 127
2, 163118, Note_on_c, 0, 63, 36
2, 163144, Note_on_c, 0, 29, 0
2, 163174, Note_on_c, 0, 68, 0
2, 163198, Note_on_c, 0, 41, 0
2, 163210, Note_on_c, 0, 63, 0
2, 163286, Note_on_c, 0, 56, 0
2, 163464, Note_on_c, 0, 65, 72
2, 163476, Note_on_c, 0, 62, 56
2, 163478, Note_on_c, 0, 53, 80
2, 163480, Note_on_c, 0, 44, 56
2, 163484, Note_on_c, 0, 32, 41
2, 163488, Control_c, 0, 64, 0
2, 163508, Note_on_c, 0, 38, 44
2, 163686, Note_on_c, 0, 32, 0
2, 163686, Note_on_c, 0, 63, 64
2, 163689, Control_c, 0, 64, 127
2, 163698, Note_on_c, 0, 38, 0
2, 163706, Note_on_c, 0, 62, 0
2, 163718, Note_on_c, 0, 53, 0
2, 163724, Note_on_c, 0, 44, 0
2, 163850, Note_on_c, 0, 63, 0
2, 163864, Note_on_c, 0, 62, 50
2, 163920, Note_on_c, 0, 62, 0
2, 164010, Note_on_c, 0, 62, 49
2, 164010, Note_on_c, 0, 71, 85
2, 164178, Note_on_c, 0, 62, 0
2, 164178, Note_on_c, 0, 63, 59
2, 164318, Note_on_c, 0, 63, 0
2, 164318, Note_on_c, 0, 71, 0
2, 164324, Note_on_c, 0, 62, 59
2, 164380, Note_on_c, 0, 62, 0
2, 164498, Note_on_c, 0, 74, 81
2, 164530, Note_on_c, 0, 62, 47
2, 164542, Note_on_c, 0, 74, 0
2, 164638, Note_on_c, 0, 62, 0
2, 164664, Note_on_c, 0, 63, 65
2, 164680, Note_on_c, 0, 65, 0
2, 164806, Note_on_c, 0, 62, 69
2, 164834, Note_on_c, 0, 63, 0
2, 164850, Note_on_c, 0, 62, 0
2, 164978, Note_on_c, 0, 38, 81
2, 164986, Note_on_c, 0, 26, 63
2, 164996, Note_on_c, 0, 50, 92
2, 165028, Note_on_c, 0, 58, 29
2, 165104, Note_on_c, 0, 58, 0
2, 165107, Note_on_c, 0, 50, 0
2, 165142, Note_on_c, 0, 62, 77
2, 165148, Note_on_c, 0, 26, 0
2, 165194, Note_on_c, 0, 38, 0
2, 165270, Note_on_c, 0, 50, 79
2, 165316, Note_on_c, 0, 50, 0
2, 165346, Note_on_c, 0, 62, 0
2, 165484, Control_c, 0, 64, 0
2, 165486, Note_on_c, 0, 43, 81
2, 165486, Note_on_c, 0, 67, 88
2, 165496, Note_on_c, 0, 31, 81
2, 165496, Note_on_c, 0, 62, 81
2, 165499, Note_on_c, 0, 55, 77
2, 165499, Note_on_c, 0, 38, 67
2, 165644, Note_on_c, 0, 31, 0
2, 165656, Note_on_c, 0, 63, 77
2, 165659, Note_on_c, 0, 62, 0
2, 165674, Note_on_c, 0, 38, 0
2, 165684, Control_c, 0, 64, 127
2, 165696, Note_on_c, 0, 43, 0
2, 165804, Note_on_c, 0, 63, 0
2, 165844, Note_on_c, 0, 62, 62
2, 165898, Note_on_c, 0, 62, 0
2, 166034, Note_on_c, 0, 71, 96
2, 166046, Note_on_c, 0, 62, 69
2, 166168, Note_on_c, 0, 55, 0
2, 166200, Note_on_c, 0, 63, 60
2, 166210, Note_on_c, 0, 62, 0
2, 166336, Note_on_c, 0, 62, 62
2, 166352, Note_on_c, 0, 71, 0
2, 166370, Note_on_c, 0, 63, 0
2, 166394, Note_on_c, 0, 62, 0
2, 166516, Note_on_c, 0, 74, 103
2, 166534, Note_on_c, 0, 62, 64
2, 166622, Note_on_c, 0, 74, 0
2, 166640, Note_on_c, 0, 62, 0
2, 166684, Note_on_c, 0, 63, 65
2, 166832, Note_on_c, 0, 62, 65
2, 166862, Note_on_c, 0, 67, 0
2, 166904, Note_on_c, 0, 62, 0
2, 166926, Note_on_c, 0, 63, 0
2, 167008, Note_on_c, 0, 68, 88
2, 167008, Note_on_c, 0, 56, 82
2, 167011, Note_on_c, 0, 41, 82
2, 167014, Note_on_c, 0, 62, 66
2, 167018, Note_on_c, 0, 29, 70
2, 167020, Note_on_c, 0, 38, 64
2, 167052, Control_c, 0, 64, 0
2, 167210, Note_on_c, 0, 62, 0
2, 167222, Note_on_c, 0, 63, 70
2, 167252, Control_c, 0, 64, 127
2, 167272, Note_on_c, 0, 38, 0
2, 167298, Note_on_c, 0, 56, 0
2, 167304, Note_on_c, 0, 29, 0
2, 167316, Note_on_c, 0, 68, 0
2, 167332, Note_on_c, 0, 41, 0
2, 167396, Note_on_c, 0, 62, 67
2, 167400, Note_on_c, 0, 63, 0
2, 167452, Note_on_c, 0, 62, 0
2, 167606, Note_on_c, 0, 44, 69
2, 167616, Note_on_c, 0, 65, 78
2, 167618, Note_on_c, 0, 32, 46
2, 167620, Note_on_c, 0, 62, 67
2, 167622, Control_c, 0, 64, 0
2, 167628, Note_on_c, 0, 53, 104
2, 167642, Note_on_c, 0, 38, 56
2, 167820, Note_on_c, 0, 63, 77
2, 167820, Control_c, 0, 64, 127
2, 167834, Note_on_c, 0, 32, 0
2, 167842, Note_on_c, 0, 38, 0
2, 167850, Note_on_c, 0, 62, 0
2, 167880, Note_on_c, 0, 44, 0
2, 167898, Note_on_c, 0, 53, 0
2, 168000, Note_on_c, 0, 62, 72
2, 168004, Note_on_c, 0, 63, 0
2, 168056, Note_on_c, 0, 62, 0
2, 168194, Note_on_c, 0, 71, 96
2, 168198, Note_on_c, 0, 62, 55
2, 168346, Note_on_c, 0, 63, 63
2, 168354, Note_on_c, 0, 62, 0
2, 168484, Note_on_c, 0, 63, 0
2, 168506, Note_on_c, 0, 62, 59
2, 168558, Note_on_c, 0, 71, 0
2, 168561, Note_on_c, 0, 62, 0
2, 168672, Note_on_c, 0, 74, 92
2, 168700, Note_on_c, 0, 62, 47
2, 168712, Note_on_c, 0, 74, 0
2, 168822, Note_on_c, 0, 65, 0
2, 168824, Note_on_c, 0, 63, 70
2, 168826, Note_on_c, 0, 62, 0
2, 168944, Note_on_c, 0, 62, 79
2, 168972, Note_on_c, 0, 63, 0
2, 168984, Note_on_c, 0, 62, 0
2, 169132, Note_on_c, 0, 38, 100
2, 169142, Note_on_c, 0, 26, 87
2, 169144, Note_on_c, 0, 50, 109
2, 169170, Note_on_c, 0, 58, 29
2, 169262, Note_on_c, 0, 58, 0
2, 169268, Note_on_c, 0, 50, 0
2, 169280, Note_on_c, 0, 26, 0
2, 169292, Note_on_c, 0, 62, 85
2, 169332, Note_on_c, 0, 38, 0
2, 169412, Note_on_c, 0, 50, 92
2, 169438, Note_on_c, 0, 62, 0
2, 169452, Note_on_c, 0, 50, 0
2, 169670, Note_on_c, 0, 71, 117
2, 169676, Note_on_c, 0, 62, 101
2, 169678, Note_on_c, 0, 59, 104
2, 169680, Control_c, 0, 64, 0
2, 169680, Note_on_c, 0, 43, 93
2, 169688, Note_on_c, 0, 31, 85
2, 169818, Note_on_c, 0, 31, 0
2, 169864, Control_c, 0, 64, 127
2, 169868, Note_on_c, 0, 43, 0
2, 169890, Note_on_c, 0, 64, 73
2, 169900, Note_on_c, 0, 62, 0
2, 170024, Note_on_c, 0, 62, 51
2, 170040, Note_on_c, 0, 64, 0
2, 170098, Note_on_c, 0, 62, 0
2, 170194, Note_on_c, 0, 74, 100
2, 170202, Note_on_c, 0, 62, 72
2, 170352, Note_on_c, 0, 62, 0
2, 170352, Note_on_c, 0, 64, 74
2, 170476, Note_on_c, 0, 62, 72
2, 170534, Note_on_c, 0, 64, 0
2, 170552, Note_on_c, 0, 62, 0
2, 170580, Note_on_c, 0, 74, 0
2, 170684, Note_on_c, 0, 77, 108
2, 170688, Note_on_c, 0, 62, 97
2, 170758, Note_on_c, 0, 77, 0
2, 170824, Note_on_c, 0, 62, 0
2, 170832, Note_on_c, 0, 64, 92
2, 170844, Note_on_c, 0, 59, 0
2, 170856, Note_on_c, 0, 71, 0
2, 170972, Note_on_c, 0, 62, 83
2, 171042, Note_on_c, 0, 62, 0
2, 171092, Note_on_c, 0, 64, 0
2, 171126, Note_on_c, 0, 71, 115
2, 171129, Note_on_c, 0, 43, 96
2, 171134, Note_on_c, 0, 62, 81
2, 171134, Note_on_c, 0, 31, 101
2, 171136, Note_on_c, 0, 59, 95
2, 171300, Note_on_c, 0, 64, 81
2, 171302, Note_on_c, 0, 62, 0
2, 171362, Note_on_c, 0, 71, 0
2, 171426, Note_on_c, 0, 59, 0
2, 171438, Note_on_c, 0, 43, 0
2, 171440, Note_on_c, 0, 62, 65
2, 171468, Note_on_c, 0, 31, 0
2, 171472, Note_on_c, 0, 64, 0
2, 171496, Note_on_c, 0, 62, 0
2, 171554, Control_c, 0, 64, 0
2, 171588, Note_on_c, 0, 71, 118
2, 171590, Note_on_c, 0, 62, 93
2, 171593, Note_on_c, 0, 42, 118
2, 171598, Note_on_c, 0, 30, 111
2, 171598, Note_on_c, 0, 59, 102
2, 171732, Note_on_c, 0, 30, 0
2, 171764, Note_on_c, 0, 42, 0
2, 171774, Note_on_c, 0, 64, 83
2, 171784, Control_c, 0, 64, 127
2, 171788, Note_on_c, 0, 62, 0
2, 171900, Note_on_c, 0, 62, 65
2, 171942, Note_on_c, 0, 64, 0
2, 172018, Note_on_c, 0, 62, 0
2, 172106, Note_on_c, 0, 78, 116
2, 172116, Note_on_c, 0, 62, 65
2, 172190, Note_on_c, 0, 78, 0
2, 172292, Note_on_c, 0, 64, 81
2, 172295, Note_on_c, 0, 62, 0
2, 172392, Note_on_c, 0, 71, 0
2, 172432, Note_on_c, 0, 62, 82
2, 172508, Note_on_c, 0, 64, 0
2, 172514, Note_on_c, 0, 59, 0
2, 172542, Note_on_c, 0, 62, 0
2, 172600, Control_c, 0, 64, 0
2, 172603, Note_on_c, 0, 62, 103
2, 172606, Note_on_c, 0, 59, 105
2, 172606, Note_on_c, 0, 71, 120
2, 172612, Note_on_c, 0, 67, 97
2, 172612, Note_on_c, 0, 41, 124
2, 172618, Note_on_c, 0, 29, 119
2, 172774, Note_on_c, 0, 29, 0
2, 172814, Control_c, 0, 64, 127
2, 172826, Note_on_c, 0, 41, 0
2, 172826, Note_on_c, 0, 64, 92
2, 172848, Note_on_c, 0, 62, 0
2, 172978, Note_on_c, 0, 62, 101
2, 173016, Note_on_c, 0, 64, 0
2, 173098, Note_on_c, 0, 62, 0
2, 173166, Note_on_c, 0, 79, 127
2, 173170, Note_on_c, 0, 62, 90
2, 173250, Note_on_c, 0, 79, 0
2, 173360, Note_on_c, 0, 64, 87
2, 173392, Note_on_c, 0, 62, 0
2, 173412, Note_on_c, 0, 59, 0
2, 173474, Note_on_c, 0, 67, 0
2, 173477, Note_on_c, 0, 71, 0
2, 173520, Note_on_c, 0, 62, 93
2, 173568, Note_on_c, 0, 64, 0
2, 173632, Note_on_c, 0, 62, 0
2, 173736, Control_c, 0, 64, 0
2, 173739, Note_on_c, 0, 71, 119
2, 173739, Note_on_c, 0, 62, 111
2, 173739, Note_on_c, 0, 59, 118
2, 173743, Note_on_c, 0, 68, 97
2, 173746, Note_on_c, 0, 40, 127
2, 173750, Note_on_c, 0, 28, 115
2, 173930, Note_on_c, 0, 28, 0
2, 173982, Control_c, 0, 64, 127
2, 173988, Note_on_c, 0, 40, 0
2, 174002, Note_on_c, 0, 64, 92
2, 174024, Note_on_c, 0, 62, 0
2, 174166, Note_on_c, 0, 62, 93
2, 174200, Note_on_c, 0, 64, 0
2, 174306, Note_on_c, 0, 62, 0
2, 174420, Note_on_c, 0, 62, 64
2, 174450, Note_on_c, 0, 80, 111
2, 174676, Note_on_c, 0, 62, 0
2, 174681, Note_on_c, 0, 80, 0
2, 174681, Note_on_c, 0, 64, 81
2, 174838, Note_on_c, 0, 62, 83
2, 174888, Note_on_c, 0, 64, 0
2, 174950, Note_on_c, 0, 62, 0
2, 175024, Note_on_c, 0, 62, 82
2, 175040, Note_on_c, 0, 83, 127
2, 175196, Note_on_c, 0, 83, 0
2, 175210, Note_on_c, 0, 64, 79
2, 175234, Note_on_c, 0, 62, 0
2, 175236, Note_on_c, 0, 59, 0
2, 175374, Note_on_c, 0, 62, 64
2, 175406, Note_on_c, 0, 64, 0
2, 175428, Note_on_c, 0, 62, 0
2, 175558, Note_on_c, 0, 62, 81
2, 175706, Note_on_c, 0, 62, 0
2, 175728, Note_on_c, 0, 64, 80
2, 175782, Note_on_c, 0, 71, 0
2, 175826, Note_on_c, 0, 68, 0
2, 175896, Note_on_c, 0, 62, 75
2, 175942, Note_on_c, 0, 62, 0
2, 176044, Note_on_c, 0, 69, 87
2, 176046, Control_c, 0, 64, 0
2, 176050, Note_on_c, 0, 62, 77
2, 176052, Note_on_c, 0, 29, 93
2, 176054, Note_on_c, 0, 57, 89
2, 176056, Note_on_c, 0, 41, 89
2, 176086, Note_on_c, 0, 64, 0
2, 176194, Note_on_c, 0, 29, 0
2, 176224, Note_on_c, 0, 64, 70
2, 176230, Note_on_c, 0, 41, 0
2, 176238, Note_on_c, 0, 62, 0
2, 176240, Control_c, 0, 64, 127
2, 176370, Note_on_c, 0, 57, 0
2, 176382, Note_on_c, 0, 64, 0
2, 176386, Note_on_c, 0, 62, 51
2, 176504, Note_on_c, 0, 62, 0
2, 176618, Note_on_c, 0, 62, 57
2, 176642, Note_on_c, 0, 77, 93
2, 176832, Note_on_c, 0, 62, 0
2, 176848, Note_on_c, 0, 64, 56
2, 176880, Note_on_c, 0, 77, 0
2, 176940, Note_on_c, 0, 64, 0
2, 177014, Note_on_c, 0, 62, 43
2, 177084, Note_on_c, 0, 62, 0
2, 177264, Note_on_c, 0, 62, 39
2, 177270, Note_on_c, 0, 81, 71
2, 177350, Note_on_c, 0, 62, 0
2, 177376, Note_on_c, 0, 81, 0
2, 177428, Note_on_c, 0, 64, 31
2, 177558, Note_on_c, 0, 64, 0
2, 177574, Note_on_c, 0, 69, 0
2, 177582, Note_on_c, 0, 62, 50
2, 177646, Note_on_c, 0, 62, 0
2, 177772, Note_on_c, 0, 50, 87
2, 177786, Note_on_c, 0, 38, 62
2, 177792, Note_on_c, 0, 62, 69
2, 177956, Note_on_c, 0, 62, 0
2, 177964, Note_on_c, 0, 50, 0
2, 177966, Note_on_c, 0, 64, 55
2, 178014, Note_on_c, 0, 38, 0
2, 178038, Note_on_c, 0, 64, 0
2, 178138, Note_on_c, 0, 62, 28
2, 178214, Note_on_c, 0, 62, 0
2, 178308, Note_on_c, 0, 59, 93
2, 178322, Note_on_c, 0, 56, 62
2, 178326, Note_on_c, 0, 40, 81
2, 178328, Note_on_c, 0, 28, 63
2, 178330, Control_c, 0, 64, 0
2, 178390, Note_on_c, 0, 62, 9
2, 178486, Note_on_c, 0, 62, 0
2, 178488, Note_on_c, 0, 28, 0
2, 178526, Note_on_c, 0, 40, 0
2, 178529, Control_c, 0, 64, 127
2, 178546, Note_on_c, 0, 64, 63
2, 178680, Note_on_c, 0, 64, 0
2, 178696, Note_on_c, 0, 62, 59
2, 178764, Note_on_c, 0, 62, 0
2, 178874, Note_on_c, 0, 62, 50
2, 178877, Note_on_c, 0, 68, 72
2, 179046, Note_on_c, 0, 62, 0
2, 179062, Note_on_c, 0, 64, 50
2, 179154, Note_on_c, 0, 64, 0
2, 179198, Note_on_c, 0, 62, 49
2, 179270, Note_on_c, 0, 62, 0
2, 179374, Note_on_c, 0, 62, 55
2, 179374, Note_on_c, 0, 71, 79
2, 179377, Note_on_c, 0, 68, 0
2, 179526, Note_on_c, 0, 62, 0
2, 179548, Note_on_c, 0, 64, 47
2, 179658, Note_on_c, 0, 64, 0
2, 179674, Note_on_c, 0, 62, 35
2, 179726, Note_on_c, 0, 71, 0
2, 179744, Note_on_c, 0, 62, 0
2, 179862, Note_on_c, 0, 62, 35
2, 180014, Note_on_c, 0, 62, 0
2, 180048, Note_on_c, 0, 64, 56
2, 180194, Note_on_c, 0, 64, 0
2, 180208, Note_on_c, 0, 62, 50
2, 180262, Note_on_c, 0, 62, 0
2, 180298, Note_on_c, 0, 56, 0
2, 180420, Control_c, 0, 64, 0
2, 180426, Note_on_c, 0, 29, 48
2, 180426, Note_on_c, 0, 57, 51
2, 180440, Note_on_c, 0, 62, 49
2, 180440, Note_on_c, 0, 41, 48
2, 180486, Note_on_c, 0, 59, 0
2, 180678, Note_on_c, 0, 64, 50
2, 180680, Control_c, 0, 64, 127
2, 180682, Note_on_c, 0, 62, 0
2, 180694, Note_on_c, 0, 29, 0
2, 180736, Note_on_c, 0, 41, 0
2, 180810, Note_on_c, 0, 64, 0
2, 180870, Note_on_c, 0, 62, 35
2, 180930, Note_on_c, 0, 62, 0
2, 181026, Note_on_c, 0, 62, 35
2, 181036, Note_on_c, 0, 65, 46
2, 181208, Note_on_c, 0, 62, 0
2, 181220, Note_on_c, 0, 64, 54
2, 181298, Note_on_c, 0, 64, 0
2, 181358, Note_on_c, 0, 62, 39
2, 181372, Note_on_c, 0, 65, 0
2, 181434, Note_on_c, 0, 62, 0
2, 181550, Note_on_c, 0, 69, 32
2, 181564, Note_on_c, 0, 62, 33
2, 181638, Note_on_c, 0, 69, 0
2, 181696, Note_on_c, 0, 62, 0
2, 181780, Note_on_c, 0, 64, 37
2, 181858, Note_on_c, 0, 64, 0
2, 181922, Note_on_c, 0, 57, 0
2, 181938, Note_on_c, 0, 62, 50
2, 181994, Note_on_c, 0, 62, 0
2, 182128, Note_on_c, 0, 38, 54
2, 182131, Note_on_c, 0, 50, 74
2, 182208, Note_on_c, 0, 50, 0
2, 182368, Note_on_c, 0, 52, 58
2, 182496, Note_on_c, 0, 38, 0
2, 182572, Note_on_c, 0, 50, 66
2, 182584, Note_on_c, 0, 52, 0
2, 182648, Note_on_c, 0, 50, 0
2, 182954, Control_c, 0, 64, 0
2, 182956, Note_on_c, 0, 58, 54
2, 182962, Note_on_c, 0, 31, 49
2, 182970, Note_on_c, 0, 55, 48
2, 182972, Note_on_c, 0, 43, 37
2, 182972, Note_on_c, 0, 50, 52
2, 183302, Note_on_c, 0, 52, 56
2, 183320, Note_on_c, 0, 50, 0
2, 183322, Control_c, 0, 64, 127
2, 183540, Note_on_c, 0, 50, 52
2, 183542, Note_on_c, 0, 52, 0
2, 183722, Note_on_c, 0, 50, 0
2, 183734, Note_on_c, 0, 31, 0
2, 183744, Note_on_c, 0, 52, 52
2, 183846, Note_on_c, 0, 43, 0
2, 183898, Note_on_c, 0, 52, 0
2, 183950, Note_on_c, 0, 50, 42
2, 184034, Note_on_c, 0, 50, 0
2, 184146, Note_on_c, 0, 52, 51
2, 184150, Note_on_c, 0, 55, 0
2, 184202, Note_on_c, 0, 52, 0
2, 184290, Note_on_c, 0, 58, 0
2, 184332, Note_on_c, 0, 43, 47
2, 184342, Note_on_c, 0, 46, 37
2, 184358, Note_on_c, 0, 50, 33
2, 184462, Note_on_c, 0, 50, 0
2, 184550, Note_on_c, 0, 58, 43
2, 184592, Note_on_c, 0, 52, 39
2, 184692, Note_on_c, 0, 52, 0
2, 184744, Note_on_c, 0, 58, 0
2, 184784, Note_on_c, 0, 50, 36
2, 184828, Note_on_c, 0, 62, 36
2, 184906, Note_on_c, 0, 50, 0
2, 185032, Note_on_c, 0, 67, 47
2, 185040, Note_on_c, 0, 62, 0
2, 185040, Note_on_c, 0, 52, 26
2, 185126, Note_on_c, 0, 52, 0
2, 185228, Note_on_c, 0, 67, 0
2, 185230, Note_on_c, 0, 70, 52
2, 185252, Note_on_c, 0, 50, 25
2, 185338, Note_on_c, 0, 50, 0
2, 185386, Note_on_c, 0, 70, 0
2, 185406, Note_on_c, 0, 74, 74
2, 185432, Note_on_c, 0, 52, 43
2, 185466, Note_on_c, 0, 74, 0
2, 185530, Note_on_c, 0, 52, 0
2, 185600, Note_on_c, 0, 79, 80
2, 185642, Note_on_c, 0, 50, 27
2, 185740, Note_on_c, 0, 50, 0
2, 185810, Note_on_c, 0, 82, 60
2, 185822, Note_on_c, 0, 79, 0
2, 185852, Note_on_c, 0, 52, 47
2, 185942, Note_on_c, 0, 52, 0
2, 185982, Note_on_c, 0, 82, 0
2, 186012, Note_on_c, 0, 74, 59
2, 186028, Note_on_c, 0, 50, 40
2, 186100, Note_on_c, 0, 50, 0
2, 186122, Note_on_c, 0, 74, 0
2, 186194, Note_on_c, 0, 81, 50
2, 186210, Note_on_c, 0, 52, 48
2, 186290, Note_on_c, 0, 52, 0
2, 186342, Note_on_c, 0, 81, 0
2, 186350, Note_on_c, 0, 70, 49
2, 186392, Note_on_c, 0, 50, 32
2, 186472, Note_on_c, 0, 50, 0
2, 186546, Note_on_c, 0, 79, 59
2, 186552, Note_on_c, 0, 70, 0
2, 186558, Note_on_c, 0, 52, 36
2, 186612, Note_on_c, 0, 79, 0
2, 186632, Note_on_c, 0, 52, 0
2, 186724, Note_on_c, 0, 69, 21
2, 186727, Note_on_c, 0, 50, 31
2, 186804, Note_on_c, 0, 50, 0
2, 186894, Note_on_c, 0, 69, 0
2, 186897, Note_on_c, 0, 74, 36
2, 186910, Note_on_c, 0, 52, 33
2, 187000, Note_on_c, 0, 52, 0
2, 187062, Note_on_c, 0, 67, 46
2, 187074, Note_on_c, 0, 74, 0
2, 187088, Note_on_c, 0, 50, 35
2, 187168, Note_on_c, 0, 50, 0
2, 187246, Note_on_c, 0, 70, 36
2, 187248, Note_on_c, 0, 67, 0
2, 187278, Note_on_c, 0, 52, 37
2, 187364, Note_on_c, 0, 52, 0
2, 187372, Note_on_c, 0, 70, 0
2, 187436, Note_on_c, 0, 62, 44
2, 187448, Note_on_c, 0, 50, 32
2, 187520, Note_on_c, 0, 62, 0
2, 187528, Note_on_c, 0, 50, 0
2, 187612, Note_on_c, 0, 69, 36
2, 187664, Note_on_c, 0, 52, 35
2, 187700, Note_on_c, 0, 69, 0
2, 187758, Note_on_c, 0, 52, 0
2, 187794, Note_on_c, 0, 58, 37
2, 187864, Note_on_c, 0, 50, 24
2, 187968, Note_on_c, 0, 50, 0
2, 187982, Note_on_c, 0, 58, 0
2, 188054, Note_on_c, 0, 67, 32
2, 188082, Note_on_c, 0, 52, 35
2, 188178, Note_on_c, 0, 52, 0
2, 188306, Note_on_c, 0, 57, 26
2, 188312, Note_on_c, 0, 67, 0
2, 188334, Note_on_c, 0, 50, 20
2, 188434, Note_on_c, 0, 57, 0
2, 188470, Note_on_c, 0, 50, 0
2, 188608, Note_on_c, 0, 62, 39
2, 188624, Note_on_c, 0, 52, 33
2, 188924, Note_on_c, 0, 52, 0
2, 188982, Note_on_c, 0, 55, 24
2, 188982, Note_on_c, 0, 50, 19
2, 189706, Note_on_c, 0, 58, 21
2, 189758, Note_on_c, 0, 52, 26
2, 191048, Note_on_c, 0, 52, 0
2, 191452, Note_on_c, 0, 62, 0
2, 191514, Note_on_c, 0, 50, 0
2, 191572, Note_on_c, 0, 43, 0
2, 191594, Note_on_c, 0, 46, 0
2, 191626, Note_on_c, 0, 55, 0
2, 191640, Note_on_c, 0, 58, 0
2, 192050, Control_c, 0, 64, 0
2, 192298, Note_on_c, 0, 54, 115
2, 192300, Note_on_c, 0, 62, 121
2, 192302, Note_on_c, 0, 50, 127
2, 192302, Note_on_c, 0, 57, 108
2, 192306, Note_on_c, 0, 38, 126
2, 192310, Note_on_c, 0, 26, 125
2, 192380, Note_on_c, 0, 26, 0
2, 192380, Note_on_c, 0, 38, 0
2, 192420, Control_c, 0, 64, 127
2, 192434, Note_on_c, 0, 50, 0
2, 192486, Note_on_c, 0, 62, 0
2, 192546, Note_on_c, 0, 50, 113
2, 192590, Note_on_c, 0, 57, 0
2, 192600, Note_on_c, 0, 54, 0
2, 192710, Note_on_c, 0, 62, 112
2, 192710, Control_c, 0, 64, 0
2, 192754, Note_on_c, 0, 50, 0
2, 192832, Note_on_c, 0, 62, 0
2, 192920, Note_on_c, 0, 63, 126
2, 192928, Note_on_c, 0, 43, 127
2, 192930, Note_on_c, 0, 31, 127
2, 193050, Control_c, 0, 64, 127
2, 193060, Note_on_c, 0, 31, 0
2, 193086, Note_on_c, 0, 43, 0
2, 193108, Note_on_c, 0, 51, 89
2, 193278, Note_on_c, 0, 58, 63
2, 193298, Note_on_c, 0, 51, 0
2, 193472, Note_on_c, 0, 58, 0
2, 193514, Note_on_c, 0, 67, 123
2, 193672, Note_on_c, 0, 67, 0
2, 193680, Note_on_c, 0, 51, 77
2, 193810, Note_on_c, 0, 58, 55
2, 193842, Note_on_c, 0, 51, 0
2, 193968, Note_on_c, 0, 70, 112
2, 193972, Note_on_c, 0, 58, 0
2, 194050, Note_on_c, 0, 70, 0
2, 194114, Note_on_c, 0, 51, 80
2, 194232, Note_on_c, 0, 51, 0
2, 194240, Note_on_c, 0, 58, 59
2, 194274, Note_on_c, 0, 63, 0
2, 194420, Note_on_c, 0, 36, 119
2, 194420, Note_on_c, 0, 24, 118
2, 194426, Note_on_c, 0, 64, 120
2, 194432, Control_c, 0, 64, 0
2, 194480, Note_on_c, 0, 58, 0
2, 194550, Note_on_c, 0, 52, 105
2, 194582, Note_on_c, 0, 24, 0
2, 194616, Control_c, 0, 64, 127
2, 194646, Note_on_c, 0, 36, 0
2, 194710, Note_on_c, 0, 58, 67
2, 194713, Note_on_c, 0, 52, 0
2, 194768, Note_on_c, 0, 64, 0
2, 194842, Note_on_c, 0, 58, 0
2, 194900, Note_on_c, 0, 45, 111
2, 194902, Note_on_c, 0, 65, 118
2, 194906, Note_on_c, 0, 33, 113
2, 194908, Control_c, 0, 64, 0
2, 195072, Note_on_c, 0, 33, 0
2, 195072, Note_on_c, 0, 53, 116
2, 195120, Note_on_c, 0, 45, 0
2, 195123, Control_c, 0, 64, 127
2, 195270, Note_on_c, 0, 60, 101
2, 195310, Note_on_c, 0, 53, 0
2, 195402, Note_on_c, 0, 69, 117
2, 195452, Note_on_c, 0, 60, 0
2, 195558, Note_on_c, 0, 53, 111
2, 195692, Note_on_c, 0, 60, 100
2, 195720, Note_on_c, 0, 53, 0
2, 195794, Note_on_c, 0, 69, 0
2, 195840, Note_on_c, 0, 72, 116
2, 195858, Note_on_c, 0, 60, 0
2, 195922, Note_on_c, 0, 72, 0
2, 195986, Note_on_c, 0, 53, 116
2, 196048, Note_on_c, 0, 53, 0
2, 196124, Note_on_c, 0, 60, 101
2, 196148, Note_on_c, 0, 65, 0
2, 196222, Note_on_c, 0, 60, 0
2, 196368, Note_on_c, 0, 24, 109
2, 196370, Note_on_c, 0, 36, 112
2, 196374, Note_on_c, 0, 77, 112
2, 196492, Note_on_c, 0, 24, 0
2, 196532, Note_on_c, 0, 65, 64
2, 196558, Note_on_c, 0, 36, 0
2, 196584, Note_on_c, 0, 77, 0
2, 196642, Note_on_c, 0, 72, 80
2, 196734, Note_on_c, 0, 65, 0
2, 196830, Note_on_c, 0, 48, 95
2, 196833, Note_on_c, 0, 36, 95
2, 196833, Note_on_c, 0, 76, 111
2, 196876, Note_on_c, 0, 72, 0
2, 196876, Control_c, 0, 64, 0
2, 196946, Note_on_c, 0, 64, 86
2, 197074, Control_c, 0, 64, 127
2, 197094, Note_on_c, 0, 67, 74
2, 197116, Note_on_c, 0, 76, 0
2, 197208, Note_on_c, 0, 64, 0
2, 197224, Note_on_c, 0, 48, 0
2, 197268, Note_on_c, 0, 72, 105
2, 197294, Note_on_c, 0, 67, 0
2, 197320, Note_on_c, 0, 36, 0
2, 197388, Note_on_c, 0, 60, 79
2, 197504, Note_on_c, 0, 72, 0
2, 197542, Note_on_c, 0, 64, 73
2, 197592, Note_on_c, 0, 60, 0
2, 197636, Note_on_c, 0, 64, 0
2, 197674, Note_on_c, 0, 67, 112
2, 197680, Note_on_c, 0, 36, 104
2, 197682, Note_on_c, 0, 24, 109
2, 197728, Note_on_c, 0, 24, 0
2, 197790, Note_on_c, 0, 36, 0
2, 197808, Note_on_c, 0, 55, 90
2, 197920, Note_on_c, 0, 55, 0
2, 197948, Note_on_c, 0, 64, 95
2, 198012, Note_on_c, 0, 67, 0
2, 198090, Note_on_c, 0, 69, 104
2, 198100, Note_on_c, 0, 64, 0
2, 198104, Note_on_c, 0, 54, 103
2, 198116, Note_on_c, 0, 48, 80
2, 198120, Note_on_c, 0, 51, 74
2, 198198, Note_on_c, 0, 54, 0
2, 198208, Note_on_c, 0, 57, 93
2, 198212, Note_on_c, 0, 51, 0
2, 198244, Note_on_c, 0, 48, 0
2, 198372, Note_on_c, 0, 66, 86
2, 198372, Note_on_c, 0, 63, 97
2, 198398, Note_on_c, 0, 57, 0
2, 198464, Note_on_c, 0, 69, 0
2, 198492, Note_on_c, 0, 63, 0
2, 198526, Note_on_c, 0, 66, 0
2, 198534, Control_c, 0, 64, 0
2, 198552, Note_on_c, 0, 43, 108
2, 198554, Note_on_c, 0, 71, 121
2, 198556, Note_on_c, 0, 31, 111
2, 198686, Note_on_c, 0, 59, 88
2, 198708, Note_on_c, 0, 31, 0
2, 198750, Control_c, 0, 64, 127
2, 198760, Note_on_c, 0, 43, 0
2, 198830, Note_on_c, 0, 59, 0
2, 198848, Note_on_c, 0, 62, 79
2, 198856, Note_on_c, 0, 67, 88
2, 198900, Note_on_c, 0, 62, 0
2, 198914, Note_on_c, 0, 71, 0
2, 198972, Note_on_c, 0, 67, 0
2, 199050, Note_on_c, 0, 74, 121
2, 199050, Note_on_c, 0, 55, 100
2, 199056, Note_on_c, 0, 47, 80
2, 199068, Note_on_c, 0, 50, 80
2, 199196, Note_on_c, 0, 50, 0
2, 199224, Note_on_c, 0, 62, 72
2, 199290, Note_on_c, 0, 55, 0
2, 199390, Note_on_c, 0, 71, 75
2, 199392, Note_on_c, 0, 67, 67
2, 199410, Note_on_c, 0, 62, 0
2, 199580, Note_on_c, 0, 67, 0
2, 199584, Note_on_c, 0, 71, 0
2, 199594, Note_on_c, 0, 59, 95
2, 199614, Note_on_c, 0, 55, 67
2, 199614, Note_on_c, 0, 50, 75
2, 199742, Note_on_c, 0, 59, 0
2, 199758, Note_on_c, 0, 47, 0
2, 199792, Note_on_c, 0, 62, 78
2, 199810, Note_on_c, 0, 55, 0
2, 199816, Note_on_c, 0, 50, 0
2, 199854, Note_on_c, 0, 62, 0
2, 200038, Note_on_c, 0, 74, 0
2, 200048, Note_on_c, 0, 67, 64
2, 200056, Note_on_c, 0, 71, 62
2, 200108, Note_on_c, 0, 71, 0
2, 200108, Note_on_c, 0, 67, 0
2, 200420, Note_on_c, 0, 66, 82
2, 200432, Note_on_c, 0, 42, 93
2, 200435, Note_on_c, 0, 30, 93
2, 200500, Control_c, 0, 64, 0
2, 200614, Note_on_c, 0, 54, 86
2, 200722, Note_on_c, 0, 30, 0
2, 200732, Control_c, 0, 64, 127
2, 200756, Note_on_c, 0, 54, 0
2, 200764, Note_on_c, 0, 42, 0
2, 200782, Note_on_c, 0, 61, 83
2, 200902, Note_on_c, 0, 66, 0
2, 200964, Note_on_c, 0, 67, 101
2, 200968, Note_on_c, 0, 35, 100
2, 200968, Note_on_c, 0, 47, 93
2, 200994, Note_on_c, 0, 61, 0
2, 201008, Control_c, 0, 64, 0
2, 201156, Note_on_c, 0, 55, 85
2, 201168, Note_on_c, 0, 35, 0
2, 201220, Note_on_c, 0, 47, 0
2, 201224, Control_c, 0, 64, 127
2, 201326, Note_on_c, 0, 62, 85
2, 201344, Note_on_c, 0, 55, 0
2, 201508, Note_on_c, 0, 62, 0
2, 201532, Note_on_c, 0, 71, 118
2, 201706, Note_on_c, 0, 55, 74
2, 201818, Note_on_c, 0, 71, 0
2, 201836, Note_on_c, 0, 62, 79
2, 201840, Note_on_c, 0, 55, 0
2, 201978, Note_on_c, 0, 62, 0
2, 202032, Note_on_c, 0, 74, 117
2, 202104, Note_on_c, 0, 74, 0
2, 202109, Note_on_c, 0, 67, 0
2, 202172, Note_on_c, 0, 55, 79
2, 202300, Note_on_c, 0, 55, 0
2, 202322, Note_on_c, 0, 62, 72
2, 202380, Note_on_c, 0, 62, 0
2, 202492, Note_on_c, 0, 68, 109
2, 202498, Note_on_c, 0, 40, 115
2, 202504, Note_on_c, 0, 28, 95
2, 202530, Control_c, 0, 64, 0
2, 202634, Note_on_c, 0, 56, 82
2, 202636, Note_on_c, 0, 28, 0
2, 202684, Control_c, 0, 64, 127
2, 202687, Note_on_c, 0, 40, 0
2, 202784, Note_on_c, 0, 56, 0
2, 202792, Note_on_c, 0, 62, 83
2, 202866, Note_on_c, 0, 68, 0
2, 202946, Note_on_c, 0, 69, 101
2, 202954, Note_on_c, 0, 49, 103
2, 202956, Note_on_c, 0, 62, 0
2, 202956, Note_on_c, 0, 37, 101
2, 202960, Control_c, 0, 64, 0
2, 203102, Note_on_c, 0, 57, 77
2, 203120, Note_on_c, 0, 37, 0
2, 203166, Note_on_c, 0, 49, 0
2, 203190, Control_c, 0, 64, 127
2, 203262, Note_on_c, 0, 64, 81
2, 203282, Note_on_c, 0, 57, 0
2, 203404, Note_on_c, 0, 64, 0
2, 203406, Note_on_c, 0, 73, 102
2, 203534, Note_on_c, 0, 57, 71
2, 203682, Note_on_c, 0, 64, 83
2, 203690, Note_on_c, 0, 57, 0
2, 203752, Note_on_c, 0, 73, 0
2, 203798, Note_on_c, 0, 64, 0
2, 203852, Note_on_c, 0, 76, 108
2, 203926, Note_on_c, 0, 76, 0
2, 203980, Note_on_c, 0, 57, 65
2, 204048, Note_on_c, 0, 69, 0
2, 204066, Note_on_c, 0, 57, 0
2, 204110, Note_on_c, 0, 64, 65
2, 204154, Note_on_c, 0, 64, 0
2, 204410, Note_on_c, 0, 81, 121
2, 204426, Note_on_c, 0, 37, 95
2, 204429, Note_on_c, 0, 25, 102
2, 204536, Note_on_c, 0, 25, 0
2, 204560, Note_on_c, 0, 69, 79
2, 204570, Note_on_c, 0, 37, 0
2, 204716, Note_on_c, 0, 76, 81
2, 204732, Note_on_c, 0, 69, 0
2, 204744, Note_on_c, 0, 81, 0
2, 204846, Note_on_c, 0, 76, 0
2, 204916, Note_on_c, 0, 52, 118
2, 204918, Note_on_c, 0, 80, 115
2, 204918, Note_on_c, 0, 40, 117
2, 204942, Control_c, 0, 64, 0
2, 205048, Note_on_c, 0, 68, 71
2, 205142, Control_c, 0, 64, 127
2, 205162, Note_on_c, 0, 80, 0
2, 205196, Note_on_c, 0, 68, 0
2, 205208, Note_on_c, 0, 71, 74
2, 205264, Note_on_c, 0, 52, 0
2, 205306, Note_on_c, 0, 71, 0
2, 205342, Note_on_c, 0, 40, 0
2, 205358, Note_on_c, 0, 76, 108
2, 205464, Note_on_c, 0, 64, 83
2, 205590, Note_on_c, 0, 76, 0
2, 205608, Note_on_c, 0, 68, 77
2, 205632, Note_on_c, 0, 64, 0
2, 205740, Note_on_c, 0, 68, 0
2, 205770, Note_on_c, 0, 71, 119
2, 205773, Note_on_c, 0, 40, 113
2, 205776, Note_on_c, 0, 28, 98
2, 205813, Note_on_c, 0, 28, 0
2, 205864, Note_on_c, 0, 40, 0
2, 205888, Note_on_c, 0, 59, 97
2, 205992, Note_on_c, 0, 59, 0
2, 206032, Note_on_c, 0, 68, 86
2, 206076, Note_on_c, 0, 71, 0
2, 206152, Note_on_c, 0, 68, 0
2, 206186, Control_c, 0, 64, 0
2, 206200, Note_on_c, 0, 73, 113
2, 206208, Note_on_c, 0, 58, 89
2, 206220, Note_on_c, 0, 52, 98
2, 206226, Note_on_c, 0, 55, 77
2, 206310, Note_on_c, 0, 61, 89
2, 206350, Note_on_c, 0, 55, 0
2, 206360, Note_on_c, 0, 58, 0
2, 206370, Control_c, 0, 64, 127
2, 206375, Note_on_c, 0, 52, 0
2, 206462, Note_on_c, 0, 61, 0
2, 206466, Note_on_c, 0, 70, 75
2, 206474, Note_on_c, 0, 67, 73
2, 206540, Note_on_c, 0, 73, 0
2, 206550, Note_on_c, 0, 67, 0
2, 206660, Note_on_c, 0, 75, 115
2, 206672, Note_on_c, 0, 47, 110
2, 206674, Note_on_c, 0, 35, 119
2, 206678, Note_on_c, 0, 70, 0
2, 206678, Control_c, 0, 64, 0
2, 206792, Note_on_c, 0, 63, 87
2, 206838, Note_on_c, 0, 35, 0
2, 206892, Note_on_c, 0, 47, 0
2, 206894, Control_c, 0, 64, 127
2, 206920, Note_on_c, 0, 63, 0
2, 206952, Note_on_c, 0, 66, 65
2, 206960, Note_on_c, 0, 71, 90
2, 207014, Note_on_c, 0, 66, 0
2, 207032, Note_on_c, 0, 75, 0
2, 207078, Note_on_c, 0, 71, 0
2, 207184, Note_on_c, 0, 78, 116
2, 207196, Note_on_c, 0, 59, 97
2, 207200, Note_on_c, 0, 51, 89
2, 207204, Note_on_c, 0, 54, 81
2, 207358, Note_on_c, 0, 66, 82
2, 207376, Note_on_c, 0, 54, 0
2, 207392, Note_on_c, 0, 59, 0
2, 207434, Note_on_c, 0, 51, 0
2, 207504, Note_on_c, 0, 66, 0
2, 207540, Note_on_c, 0, 75, 83
2, 207546, Note_on_c, 0, 71, 89
2, 207676, Note_on_c, 0, 71, 0
2, 207718, Note_on_c, 0, 75, 0
2, 207726, Note_on_c, 0, 54, 109
2, 207730, Note_on_c, 0, 63, 104
2, 207752, Note_on_c, 0, 59, 86
2, 207788, Note_on_c, 0, 59, 0
2, 207792, Note_on_c, 0, 63, 0
2, 207794, Note_on_c, 0, 54, 0
2, 207940, Note_on_c, 0, 66, 89
2, 208176, Note_on_c, 0, 66, 0
2, 208212, Note_on_c, 0, 75, 89
2, 208220, Note_on_c, 0, 71, 86
2, 208638, Note_on_c, 0, 71, 0
2, 208722, Note_on_c, 0, 78, 0
2, 208778, Note_on_c, 0, 75, 0
2, 209644, Note_on_c, 0, 71, 126
2, 209644, Control_c, 0, 64, 0
2, 209650, Note_on_c, 0, 59, 124
2, 209654, Note_on_c, 0, 47, 121
2, 209656, Note_on_c, 0, 35, 123
2, 209802, Note_on_c, 0, 47, 0
2, 209828, Note_on_c, 0, 35, 0
2, 209836, Note_on_c, 0, 59, 0
2, 209858, Control_c, 0, 64, 127
2, 209899, Note_on_c, 0, 71, 0
2, 210170, Note_on_c, 0, 76, 121
2, 210172, Note_on_c, 0, 64, 124
2, 210175, Note_on_c, 0, 67, 109
2, 210175, Note_on_c, 0, 71, 121
2, 210182, Note_on_c, 0, 40, 127
2, 210184, Note_on_c, 0, 28, 118
2, 210238, Note_on_c, 0, 28, 0
2, 210278, Note_on_c, 0, 40, 0
2, 210318, Note_on_c, 0, 64, 0
2, 210354, Note_on_c, 0, 76, 0
2, 210408, Note_on_c, 0, 67, 0
2, 210426, Note_on_c, 0, 71, 0
2, 210596, Control_c, 0, 64, 0
2, 210852, Note_on_c, 0, 62, 123
2, 210852, Note_on_c, 0, 74, 127
2, 210855, Note_on_c, 0, 69, 109
2, 210860, Note_on_c, 0, 42, 117
2, 210864, Note_on_c, 0, 30, 118
2, 211242, Control_c, 0, 64, 127
2, 211310, Note_on_c, 0, 30, 0
2, 211318, Note_on_c, 0, 42, 0
2, 211366, Note_on_c, 0, 74, 0
2, 211470, Note_on_c, 0, 69, 0
2, 211534, Note_on_c, 0, 62, 0
2, 211722, Note_on_c, 0, 69, 95
2, 211725, Note_on_c, 0, 62, 90
2, 211774, Note_on_c, 0, 62, 0
2, 211838, Note_on_c, 0, 69, 0
2, 211892, Note_on_c, 0, 71, 109
2, 211892, Note_on_c, 0, 67, 100
2, 211892, Note_on_c, 0, 43, 113
2, 211895, Note_on_c, 0, 62, 102
2, 211895, Note_on_c, 0, 31, 115
2, 211902, Control_c, 0, 64, 0
2, 211928, Note_on_c, 0, 31, 0
2, 211956, Note_on_c, 0, 43, 0
2, 211961, Note_on_c, 0, 67, 0
2, 211974, Note_on_c, 0, 62, 0
2, 212020, Note_on_c, 0, 71, 0
2, 212052, Note_on_c, 0, 47, 106
2, 212055, Note_on_c, 0, 35, 112
2, 212120, Note_on_c, 0, 35, 0
2, 212162, Note_on_c, 0, 47, 0
2, 212196, Note_on_c, 0, 67, 97
2, 212200, Note_on_c, 0, 62, 90
2, 212252, Note_on_c, 0, 62, 0
2, 212284, Note_on_c, 0, 67, 0
2, 212350, Note_on_c, 0, 50, 100
2, 212354, Note_on_c, 0, 69, 90
2, 212358, Note_on_c, 0, 66, 77
2, 212360, Note_on_c, 0, 62, 86
2, 212362, Note_on_c, 0, 38, 74
2, 212396, Note_on_c, 0, 50, 0
2, 212402, Note_on_c, 0, 38, 0
2, 212434, Note_on_c, 0, 62, 0
2, 212466, Note_on_c, 0, 66, 0
2, 212468, Note_on_c, 0, 69, 0
2, 212512, Note_on_c, 0, 54, 109
2, 212522, Note_on_c, 0, 42, 93
2, 212598, Note_on_c, 0, 54, 0
2, 212601, Note_on_c, 0, 42, 0
2, 212666, Note_on_c, 0, 62, 90
2, 212732, Note_on_c, 0, 62, 0
2, 212812, Note_on_c, 0, 55, 115
2, 212816, Note_on_c, 0, 43, 105
2, 212816, Note_on_c, 0, 67, 97
2, 212818, Note_on_c, 0, 71, 105
2, 212821, Note_on_c, 0, 62, 92
2, 212848, Note_on_c, 0, 43, 0
2, 212864, Note_on_c, 0, 55, 0
2, 212906, Note_on_c, 0, 62, 0
2, 212936, Note_on_c, 0, 67, 0
2, 212946, Note_on_c, 0, 71, 0
2, 212962, Note_on_c, 0, 59, 105
2, 212968, Note_on_c, 0, 47, 97
2, 213066, Note_on_c, 0, 47, 0
2, 213078, Note_on_c, 0, 59, 0
2, 213112, Note_on_c, 0, 67, 103
2, 213120, Note_on_c, 0, 62, 97
2, 213162, Note_on_c, 0, 62, 0
2, 213224, Note_on_c, 0, 67, 0
2, 213250, Note_on_c, 0, 62, 98
2, 213252, Note_on_c, 0, 50, 118
2, 213260, Note_on_c, 0, 69, 102
2, 213268, Note_on_c, 0, 66, 87
2, 213300, Note_on_c, 0, 50, 0
2, 213354, Note_on_c, 0, 62, 0
2, 213408, Note_on_c, 0, 66, 0
2, 213432, Note_on_c, 0, 38, 120
2, 213432, Note_on_c, 0, 50, 118
2, 213450, Note_on_c, 0, 69, 0
2, 213460, Note_on_c, 0, 38, 0
2, 213478, Note_on_c, 0, 50, 0
2, 213564, Note_on_c, 0, 62, 108
2, 213670, Note_on_c, 0, 62, 0
2, 213716, Note_on_c, 0, 67, 105
2, 213716, Note_on_c, 0, 55, 111
2, 213719, Note_on_c, 0, 43, 116
2, 213719, Note_on_c, 0, 71, 115
2, 213719, Note_on_c, 0, 62, 120
2, 213750, Note_on_c, 0, 55, 0
2, 213756, Note_on_c, 0, 62, 0
2, 213808, Control_c, 0, 64, 127
2, 213816, Note_on_c, 0, 67, 0
2, 213819, Note_on_c, 0, 71, 0
2, 213824, Note_on_c, 0, 43, 0
2, 213878, Note_on_c, 0, 43, 111
2, 213884, Note_on_c, 0, 31, 120
2, 213918, Note_on_c, 0, 31, 0
2, 213920, Note_on_c, 0, 43, 0
2, 214022, Note_on_c, 0, 67, 105
2, 214022, Control_c, 0, 64, 0
2, 214150, Note_on_c, 0, 67, 0
2, 214214, Note_on_c, 0, 75, 110
2, 214218, Note_on_c, 0, 67, 115
2, 214218, Note_on_c, 0, 79, 126
2, 214222, Note_on_c, 0, 36, 127
2, 214222, Note_on_c, 0, 72, 112
2, 214222, Note_on_c, 0, 24, 126
2, 214294, Note_on_c, 0, 36, 0
2, 214316, Note_on_c, 0, 24, 0
2, 214360, Control_c, 0, 64, 127
2, 214392, Note_on_c, 0, 79, 0
2, 214424, Note_on_c, 0, 72, 0
2, 214436, Note_on_c, 0, 75, 0
2, 214446, Note_on_c, 0, 67, 0
2, 214546, Control_c, 0, 64, 0
2, 214814, Note_on_c, 0, 78, 116
2, 214819, Note_on_c, 0, 66, 111
2, 214819, Note_on_c, 0, 69, 93
2, 214819, Note_on_c, 0, 74, 109
2, 214826, Note_on_c, 0, 26, 124
2, 214828, Note_on_c, 0, 38, 119
2, 215052, Control_c, 0, 64, 127
2, 215260, Note_on_c, 0, 26, 0
2, 215288, Note_on_c, 0, 78, 0
2, 215292, Note_on_c, 0, 74, 0
2, 215308, Note_on_c, 0, 69, 0
2, 215362, Note_on_c, 0, 38, 0
2, 215378, Note_on_c, 0, 66, 0
2, 215622, Note_on_c, 0, 74, 104
2, 215624, Note_on_c, 0, 62, 100
2, 215630, Note_on_c, 0, 69, 73
2, 215670, Note_on_c, 0, 62, 0
2, 215682, Note_on_c, 0, 74, 0
2, 215694, Note_on_c, 0, 69, 0
2, 215780, Note_on_c, 0, 43, 106
2, 215782, Note_on_c, 0, 31, 112
2, 215784, Note_on_c, 0, 70, 92
2, 215788, Note_on_c, 0, 62, 90
2, 215790, Control_c, 0, 64, 0
2, 215792, Note_on_c, 0, 67, 82
2, 215814, Note_on_c, 0, 31, 0
2, 215830, Note_on_c, 0, 43, 0
2, 215852, Note_on_c, 0, 67, 0
2, 215858, Note_on_c, 0, 62, 0
2, 215900, Note_on_c, 0, 70, 0
2, 215930, Note_on_c, 0, 46, 92
2, 215942, Note_on_c, 0, 34, 96
2, 216036, Note_on_c, 0, 46, 0
2, 216052, Note_on_c, 0, 34, 0
2, 216090, Note_on_c, 0, 67, 96
2, 216090, Note_on_c, 0, 62, 89
2, 216142, Note_on_c, 0, 62, 0
2, 216160, Note_on_c, 0, 67, 0
2, 216236, Note_on_c, 0, 50, 106
2, 216236, Note_on_c, 0, 38, 102
2, 216239, Note_on_c, 0, 66, 87
2, 216246, Note_on_c, 0, 62, 78
2, 216268, Note_on_c, 0, 38, 0
2, 216273, Note_on_c, 0, 50, 0
2, 216304, Note_on_c, 0, 62, 0
2, 216368, Note_on_c, 0, 66, 0
2, 216390, Note_on_c, 0, 54, 111
2, 216396, Note_on_c, 0, 42, 95
2, 216456, Note_on_c, 0, 54, 0
2, 216470, Note_on_c, 0, 42, 0
2, 216524, Note_on_c, 0, 74, 103
2, 216526, Note_on_c, 0, 69, 88
2, 216530, Note_on_c, 0, 62, 100
2, 216588, Note_on_c, 0, 62, 0
2, 216614, Note_on_c, 0, 74, 0
2, 216640, Note_on_c, 0, 69, 0
2, 216674, Note_on_c, 0, 43, 110
2, 216676, Note_on_c, 0, 55, 111
2, 216678, Note_on_c, 0, 62, 95
2, 216682, Note_on_c, 0, 70, 93
2, 216684, Note_on_c, 0, 67, 93
2, 216712, Note_on_c, 0, 43, 0
2, 216715, Note_on_c, 0, 55, 0
2, 216740, Note_on_c, 0, 67, 0
2, 216780, Note_on_c, 0, 62, 0
2, 216804, Note_on_c, 0, 70, 0
2, 216818, Control_c, 0, 64, 127
2, 216834, Note_on_c, 0, 58, 101
2, 216837, Note_on_c, 0, 46, 102
2, 216912, Control_c, 0, 64, 0
2, 216918, Note_on_c, 0, 46, 0
2, 216936, Note_on_c, 0, 58, 0
2, 216958, Note_on_c, 0, 67, 103
2, 216970, Note_on_c, 0, 62, 87
2, 217016, Note_on_c, 0, 62, 0
2, 217074, Note_on_c, 0, 67, 0
2, 217116, Note_on_c, 0, 66, 95
2, 217130, Note_on_c, 0, 50, 101
2, 217130, Note_on_c, 0, 62, 93
2, 217168, Note_on_c, 0, 50, 0
2, 217182, Note_on_c, 0, 62, 0
2, 217218, Control_c, 0, 64, 127
2, 217264, Note_on_c, 0, 66, 0
2, 217294, Note_on_c, 0, 38, 120
2, 217308, Note_on_c, 0, 50, 100
2, 217324, Note_on_c, 0, 38, 0
2, 217348, Note_on_c, 0, 50, 0
2, 217358, Control_c, 0, 64, 0
2, 217404, Note_on_c, 0, 74, 108
2, 217408, Note_on_c, 0, 62, 100
2, 217408, Note_on_c, 0, 69, 82
2, 217488, Note_on_c, 0, 62, 0
2, 217491, Note_on_c, 0, 74, 0
2, 217536, Note_on_c, 0, 69, 0
2, 217562, Note_on_c, 0, 62, 109
2, 217570, Note_on_c, 0, 55, 115
2, 217572, Note_on_c, 0, 70, 93
2, 217574, Note_on_c, 0, 67, 98
2, 217586, Note_on_c, 0, 43, 86
2, 217606, Note_on_c, 0, 55, 0
2, 217614, Note_on_c, 0, 70, 0
2, 217616, Note_on_c, 0, 67, 0
2, 217644, Note_on_c, 0, 43, 0
2, 217648, Note_on_c, 0, 62, 0
2, 217648, Control_c, 0, 64, 127
2, 217752, Note_on_c, 0, 43, 98
2, 217757, Note_on_c, 0, 31, 105
2, 217790, Note_on_c, 0, 43, 0
2, 217792, Note_on_c, 0, 31, 0
2, 217890, Note_on_c, 0, 58, 90
2, 217890, Note_on_c, 0, 67, 102
2, 217904, Note_on_c, 0, 62, 101
2, 217980, Note_on_c, 0, 67, 0
2, 218002, Control_c, 0, 64, 0
2, 218018, Note_on_c, 0, 58, 0
2, 218042, Note_on_c, 0, 62, 0
2, 218090, Note_on_c, 0, 57, 116
2, 218093, Note_on_c, 0, 45, 109
2, 218102, Note_on_c, 0, 65, 108
2, 218102, Note_on_c, 0, 62, 108
2, 218104, Note_on_c, 0, 53, 127
2, 218176, Note_on_c, 0, 57, 0
2, 218182, Note_on_c, 0, 45, 0
2, 218232, Control_c, 0, 64, 127
2, 218338, Note_on_c, 0, 45, 69
2, 218348, Note_on_c, 0, 33, 78
2, 218390, Note_on_c, 0, 45, 0
2, 218392, Note_on_c, 0, 33, 0
2, 218434, Note_on_c, 0, 53, 0
2, 218434, Note_on_c, 0, 62, 0
2, 218464, Note_on_c, 0, 65, 0
2, 218724, Control_c, 0, 64, 0
2, 218730, Note_on_c, 0, 63, 112
2, 218732, Note_on_c, 0, 55, 120
2, 218732, Note_on_c, 0, 60, 101
2, 218732, Note_on_c, 0, 51, 120
2, 218738, Note_on_c, 0, 43, 110
2, 218738, Note_on_c, 0, 57, 90
2, 218844, Note_on_c, 0, 55, 0
2, 218884, Note_on_c, 0, 43, 0
2, 218924, Control_c, 0, 64, 127
2, 218998, Note_on_c, 0, 31, 104
2, 219000, Note_on_c, 0, 43, 79
2, 219032, Note_on_c, 0, 31, 0
2, 219042, Note_on_c, 0, 43, 0
2, 219224, Note_on_c, 0, 57, 0
2, 219228, Note_on_c, 0, 51, 0
2, 219244, Note_on_c, 0, 60, 0
2, 219346, Note_on_c, 0, 63, 0
2, 219588, Note_on_c, 0, 54, 118
2, 219594, Note_on_c, 0, 50, 123
2, 219594, Note_on_c, 0, 42, 108
2, 219596, Note_on_c, 0, 62, 117
2, 219596, Note_on_c, 0, 60, 106
2, 219600, Note_on_c, 0, 57, 95
2, 219616, Control_c, 0, 64, 0
2, 219816, Note_on_c, 0, 54, 0
2, 219846, Control_c, 0, 64, 127
2, 219874, Note_on_c, 0, 42, 0
2, 219988, Note_on_c, 0, 42, 97
2, 219992, Note_on_c, 0, 30, 108
2, 220690, Note_on_c, 0, 42, 0
2, 220764, Note_on_c, 0, 30, 0
2, 220782, Note_on_c, 0, 50, 0
2, 221062, Note_on_c, 0, 57, 0
2, 221138, Note_on_c, 0, 62, 0
2, 221180, Note_on_c, 0, 60, 0
2, 222192, Note_on_c, 0, 86, 78
2, 222220, Note_on_c, 0, 74, 46
2, 222244, Control_c, 0, 64, 0
2, 222488, Control_c, 0, 64, 127
2, 222514, Note_on_c, 0, 74, 0
2, 222676, Note_on_c, 0, 87, 74
2, 222676, Note_on_c, 0, 75, 41
2, 222736, Note_on_c, 0, 86, 0
2, 222910, Note_on_c, 0, 75, 0
2, 222918, Note_on_c, 0, 87, 0
2, 222958, Note_on_c, 0, 86, 83
2, 222972, Note_on_c, 0, 74, 60
2, 223040, Note_on_c, 0, 74, 0
2, 223218, Note_on_c, 0, 85, 71
2, 223220, Note_on_c, 0, 43, 35
2, 223220, Note_on_c, 0, 73, 43
2, 223272, Control_c, 0, 64, 0
2, 223276, Note_on_c, 0, 86, 0
2, 223452, Note_on_c, 0, 51, 39
2, 223534, Control_c, 0, 64, 127
2, 223572, Note_on_c, 0, 43, 0
2, 223660, Note_on_c, 0, 51, 0
2, 223692, Note_on_c, 0, 55, 41
2, 223810, Note_on_c, 0, 55, 0
2, 223936, Note_on_c, 0, 58, 14
2, 224092, Note_on_c, 0, 58, 0
2, 224148, Note_on_c, 0, 63, 34
2, 224156, Note_on_c, 0, 79, 69
2, 224302, Note_on_c, 0, 63, 0
2, 224356, Note_on_c, 0, 55, 42
2, 224366, Note_on_c, 0, 81, 77
2, 224414, Note_on_c, 0, 85, 0
2, 224452, Note_on_c, 0, 55, 0
2, 224506, Note_on_c, 0, 79, 0
2, 224546, Note_on_c, 0, 82, 74
2, 224554, Note_on_c, 0, 64, 58
2, 224636, Note_on_c, 0, 81, 0
2, 224740, Note_on_c, 0, 84, 101
2, 224768, Note_on_c, 0, 55, 41
2, 224798, Note_on_c, 0, 82, 0
2, 224812, Note_on_c, 0, 64, 0
2, 224884, Note_on_c, 0, 55, 0
2, 224934, Note_on_c, 0, 82, 93
2, 224974, Note_on_c, 0, 84, 0
2, 225042, Note_on_c, 0, 73, 0
2, 225166, Note_on_c, 0, 86, 105
2, 225168, Note_on_c, 0, 42, 55
2, 225174, Note_on_c, 0, 81, 67
2, 225184, Note_on_c, 0, 74, 77
2, 225194, Control_c, 0, 64, 0
2, 225214, Note_on_c, 0, 82, 0
2, 225342, Note_on_c, 0, 74, 0
2, 225376, Control_c, 0, 64, 127
2, 225440, Note_on_c, 0, 42, 0
2, 225440, Note_on_c, 0, 54, 37
2, 225443, Note_on_c, 0, 87, 92
2, 225448, Note_on_c, 0, 75, 79
2, 225496, Note_on_c, 0, 86, 0
2, 225508, Note_on_c, 0, 54, 0
2, 225556, Note_on_c, 0, 75, 0
2, 225606, Note_on_c, 0, 87, 0
2, 225628, Note_on_c, 0, 81, 0
2, 225656, Note_on_c, 0, 86, 92
2, 225664, Note_on_c, 0, 74, 83
2, 225720, Note_on_c, 0, 57, 14
2, 225756, Note_on_c, 0, 74, 0
2, 225846, Note_on_c, 0, 57, 0
2, 225940, Note_on_c, 0, 43, 39
2, 225968, Note_on_c, 0, 85, 79
2, 225971, Note_on_c, 0, 73, 59
2, 226022, Note_on_c, 0, 86, 0
2, 226068, Control_c, 0, 64, 0
2, 226208, Note_on_c, 0, 51, 48
2, 226300, Note_on_c, 0, 43, 0
2, 226300, Control_c, 0, 64, 127
2, 226378, Note_on_c, 0, 51, 0
2, 226424, Note_on_c, 0, 55, 48
2, 226496, Note_on_c, 0, 55, 0
2, 226636, Note_on_c, 0, 58, 33
2, 226814, Note_on_c, 0, 58, 0
2, 226862, Note_on_c, 0, 79, 58
2, 226864, Note_on_c, 0, 63, 46
2, 227028, Note_on_c, 0, 85, 0
2, 227041, Note_on_c, 0, 63, 0
2, 227050, Note_on_c, 0, 81, 72
2, 227066, Note_on_c, 0, 55, 56
2, 227150, Note_on_c, 0, 55, 0
2, 227150, Note_on_c, 0, 79, 0
2, 227240, Note_on_c, 0, 82, 69
2, 227254, Note_on_c, 0, 64, 65
2, 227304, Note_on_c, 0, 81, 0
2, 227426, Note_on_c, 0, 84, 96
2, 227442, Note_on_c, 0, 55, 57
2, 227468, Note_on_c, 0, 64, 0
2, 227474, Note_on_c, 0, 82, 0
2, 227624, Note_on_c, 0, 52, 80
2, 227624, Note_on_c, 0, 82, 90
2, 227630, Note_on_c, 0, 55, 0
2, 227658, Note_on_c, 0, 84, 0
2, 227664, Note_on_c, 0, 52, 0
2, 227698, Note_on_c, 0, 73, 0
2, 227816, Note_on_c, 0, 41, 66
2, 227834, Note_on_c, 0, 86, 105
2, 227834, Control_c, 0, 64, 0
2, 227844, Note_on_c, 0, 74, 86
2, 227846, Note_on_c, 0, 81, 65
2, 227888, Note_on_c, 0, 82, 0
2, 227990, Control_c, 0, 64, 127
2, 228004, Note_on_c, 0, 74, 0
2, 228038, Note_on_c, 0, 81, 0
2, 228056, Note_on_c, 0, 41, 0
2, 228102, Note_on_c, 0, 87, 98
2, 228104, Note_on_c, 0, 75, 92
2, 228116, Note_on_c, 0, 53, 77
2, 228164, Note_on_c, 0, 86, 0
2, 228194, Note_on_c, 0, 53, 0
2, 228224, Note_on_c, 0, 75, 0
2, 228266, Note_on_c, 0, 87, 0
2, 228304, Note_on_c, 0, 57, 42
2, 228318, Note_on_c, 0, 86, 106
2, 228324, Note_on_c, 0, 74, 97
2, 228366, Note_on_c, 0, 57, 0
2, 228422, Note_on_c, 0, 74, 0
2, 228444, Note_on_c, 0, 86, 0
2, 228498, Note_on_c, 0, 39, 63
2, 228532, Note_on_c, 0, 84, 108
2, 228536, Note_on_c, 0, 72, 87
2, 228558, Control_c, 0, 64, 0
2, 228694, Note_on_c, 0, 51, 65
2, 228696, Note_on_c, 0, 39, 0
2, 228728, Control_c, 0, 64, 127
2, 228744, Note_on_c, 0, 51, 0
2, 228880, Note_on_c, 0, 55, 64
2, 228976, Note_on_c, 0, 55, 0
2, 229118, Note_on_c, 0, 60, 58
2, 229254, Note_on_c, 0, 60, 0
2, 229304, Note_on_c, 0, 78, 72
2, 229320, Note_on_c, 0, 63, 52
2, 229492, Note_on_c, 0, 63, 0
2, 229502, Note_on_c, 0, 79, 98
2, 229520, Note_on_c, 0, 60, 57
2, 229538, Note_on_c, 0, 84, 0
2, 229610, Note_on_c, 0, 78, 0
2, 229640, Note_on_c, 0, 60, 0
2, 229674, Note_on_c, 0, 54, 71
2, 229690, Note_on_c, 0, 81, 89
2, 229746, Note_on_c, 0, 79, 0
2, 229782, Note_on_c, 0, 54, 0
2, 229862, Note_on_c, 0, 82, 89
2, 229872, Note_on_c, 0, 60, 60
2, 229880, Note_on_c, 0, 81, 0
2, 229966, Note_on_c, 0, 60, 0
2, 230002, Note_on_c, 0, 82, 0
2, 230004, Note_on_c, 0, 72, 0
2, 230028, Note_on_c, 0, 81, 97
2, 230036, Note_on_c, 0, 54, 80
2, 230078, Note_on_c, 0, 54, 0
2, 230218, Note_on_c, 0, 79, 100
2, 230218, Note_on_c, 0, 38, 67
2, 230226, Note_on_c, 0, 70, 73
2, 230232, Control_c, 0, 64, 0
2, 230240, Note_on_c, 0, 81, 0
2, 230360, Note_on_c, 0, 38, 0
2, 230386, Control_c, 0, 64, 127
2, 230398, Note_on_c, 0, 50, 65
2, 230400, Note_on_c, 0, 79, 0
2, 230410, Note_on_c, 0, 81, 85
2, 230442, Note_on_c, 0, 70, 0
2, 230466, Note_on_c, 0, 50, 0
2, 230560, Note_on_c, 0, 55, 72
2, 230576, Note_on_c, 0, 79, 109
2, 230604, Note_on_c, 0, 55, 0
2, 230626, Note_on_c, 0, 81, 0
2, 230744, Note_on_c, 0, 36, 80
2, 230747, Note_on_c, 0, 69, 65
2, 230747, Note_on_c, 0, 77, 101
2, 230756, Control_c, 0, 64, 0
2, 230784, Note_on_c, 0, 79, 0
2, 230892, Note_on_c, 0, 36, 0
2, 230906, Note_on_c, 0, 48, 63
2, 230924, Control_c, 0, 64, 127
2, 230926, Note_on_c, 0, 79, 105
2, 230946, Note_on_c, 0, 77, 0
2, 230952, Note_on_c, 0, 48, 0
2, 230972, Note_on_c, 0, 69, 0
2, 231062, Note_on_c, 0, 57, 62
2, 231074, Note_on_c, 0, 75, 87
2, 231077, Note_on_c, 0, 79, 0
2, 231077, Note_on_c, 0, 67, 83
2, 231114, Note_on_c, 0, 57, 0
2, 231138, Note_on_c, 0, 67, 0
2, 231232, Note_on_c, 0, 75, 0
2, 231254, Note_on_c, 0, 38, 62
2, 231264, Note_on_c, 0, 66, 83
2, 231264, Note_on_c, 0, 74, 97
2, 231278, Control_c, 0, 64, 0
2, 231414, Note_on_c, 0, 38, 0
2, 231430, Note_on_c, 0, 50, 72
2, 231438, Note_on_c, 0, 75, 89
2, 231446, Control_c, 0, 64, 127
2, 231468, Note_on_c, 0, 66, 0
2, 231472, Note_on_c, 0, 74, 0
2, 231484, Note_on_c, 0, 50, 0
2, 231598, Note_on_c, 0, 57, 56
2, 231601, Note_on_c, 0, 74, 92
2, 231660, Note_on_c, 0, 57, 0
2, 231662, Note_on_c, 0, 75, 0
2, 231712, Note_on_c, 0, 50, 31
2, 231780, Note_on_c, 0, 62, 56
2, 231816, Control_c, 0, 64, 0
2, 231816, Note_on_c, 0, 81, 89
2, 231822, Note_on_c, 0, 72, 65
2, 231824, Note_on_c, 0, 74, 0
2, 231972, Note_on_c, 0, 62, 0
2, 232000, Control_c, 0, 64, 127
2, 232034, Note_on_c, 0, 57, 41
2, 232116, Note_on_c, 0, 50, 0
2, 232130, Note_on_c, 0, 57, 0
2, 232158, Note_on_c, 0, 72, 0
2, 232188, Note_on_c, 0, 54, 49
2, 232250, Note_on_c, 0, 54, 0
2, 232384, Note_on_c, 0, 70, 69
2, 232390, Note_on_c, 0, 79, 90
2, 232406, Note_on_c, 0, 81, 0
2, 232428, Note_on_c, 0, 38, 41
2, 232564, Note_on_c, 0, 38, 0
2, 232572, Note_on_c, 0, 50, 75
2, 232592, Note_on_c, 0, 79, 0
2, 232598, Note_on_c, 0, 81, 87
2, 232636, Note_on_c, 0, 50, 0
2, 232734, Note_on_c, 0, 55, 71
2, 232752, Note_on_c, 0, 79, 101
2, 232780, Note_on_c, 0, 55, 0
2, 232792, Note_on_c, 0, 81, 0
2, 232828, Note_on_c, 0, 70, 0
2, 232916, Note_on_c, 0, 36, 89
2, 232920, Note_on_c, 0, 77, 97
2, 232924, Note_on_c, 0, 69, 75
2, 232938, Control_c, 0, 64, 0
2, 232946, Note_on_c, 0, 79, 0
2, 233076, Note_on_c, 0, 36, 0
2, 233076, Note_on_c, 0, 48, 67
2, 233096, Note_on_c, 0, 79, 103
2, 233106, Control_c, 0, 64, 127
2, 233108, Note_on_c, 0, 77, 0
2, 233126, Note_on_c, 0, 48, 0
2, 233148, Note_on_c, 0, 69, 0
2, 233226, Note_on_c, 0, 79, 0
2, 233226, Note_on_c, 0, 57, 73
2, 233242, Note_on_c, 0, 75, 95
2, 233248, Note_on_c, 0, 67, 92
2, 233270, Note_on_c, 0, 57, 0
2, 233300, Note_on_c, 0, 67, 0
2, 233398, Control_c, 0, 64, 0
2, 233400, Note_on_c, 0, 75, 0
2, 233404, Note_on_c, 0, 38, 90
2, 233414, Note_on_c, 0, 74, 101
2, 233422, Note_on_c, 0, 66, 82
2, 233556, Note_on_c, 0, 38, 0
2, 233560, Note_on_c, 0, 50, 79
2, 233566, Control_c, 0, 64, 127
2, 233580, Note_on_c, 0, 66, 0
2, 233585, Note_on_c, 0, 75, 89
2, 233614, Note_on_c, 0, 74, 0
2, 233636, Note_on_c, 0, 50, 0
2, 233718, Note_on_c, 0, 74, 92
2, 233726, Note_on_c, 0, 57, 80
2, 233792, Note_on_c, 0, 75, 0
2, 233842, Note_on_c, 0, 57, 0
2, 233845, Note_on_c, 0, 50, 40
2, 233898, Note_on_c, 0, 62, 96
2, 233900, Note_on_c, 0, 72, 93
2, 233900, Note_on_c, 0, 81, 109
2, 233912, Note_on_c, 0, 74, 0
2, 234036, Note_on_c, 0, 62, 0
2, 234090, Note_on_c, 0, 57, 70
2, 234140, Note_on_c, 0, 50, 0
2, 234162, Note_on_c, 0, 72, 0
2, 234170, Note_on_c, 0, 81, 0
2, 234226, Note_on_c, 0, 54, 89
2, 234234, Note_on_c, 0, 57, 0
2, 234264, Note_on_c, 0, 54, 0
2, 234418, Note_on_c, 0, 74, 109
2, 234420, Note_on_c, 0, 38, 97
2, 234422, Note_on_c, 0, 66, 94
2, 234458, Control_c, 0, 64, 0
2, 234544, Note_on_c, 0, 66, 0
2, 234590, Note_on_c, 0, 50, 93
2, 234596, Note_on_c, 0, 38, 0
2, 234614, Note_on_c, 0, 75, 96
2, 234628, Control_c, 0, 64, 127
2, 234650, Note_on_c, 0, 50, 0
2, 234670, Note_on_c, 0, 74, 0
2, 234750, Note_on_c, 0, 57, 82
2, 234754, Note_on_c, 0, 74, 89
2, 234880, Note_on_c, 0, 75, 0
2, 234918, Note_on_c, 0, 82, 104
2, 234918, Note_on_c, 0, 73, 95
2, 234926, Note_on_c, 0, 64, 102
2, 234934, Control_c, 0, 64, 0
2, 234939, Note_on_c, 0, 74, 0
2, 235018, Note_on_c, 0, 57, 0
2, 235092, Note_on_c, 0, 58, 73
2, 235104, Control_c, 0, 64, 127
2, 235128, Note_on_c, 0, 64, 0
2, 235176, Note_on_c, 0, 82, 0
2, 235244, Note_on_c, 0, 55, 92
2, 235262, Note_on_c, 0, 58, 0
2, 235282, Note_on_c, 0, 55, 0
2, 235396, Note_on_c, 0, 73, 0
2, 235418, Note_on_c, 0, 38, 111
2, 235418, Note_on_c, 0, 74, 112
2, 235426, Note_on_c, 0, 66, 90
2, 235426, Control_c, 0, 64, 0
2, 235552, Note_on_c, 0, 50, 103
2, 235566, Note_on_c, 0, 38, 0
2, 235576, Note_on_c, 0, 66, 0
2, 235596, Note_on_c, 0, 75, 95
2, 235596, Control_c, 0, 64, 127
2, 235604, Note_on_c, 0, 50, 0
2, 235640, Note_on_c, 0, 74, 0
2, 235706, Note_on_c, 0, 75, 0
2, 235722, Note_on_c, 0, 57, 94
2, 235734, Note_on_c, 0, 74, 92
2, 235864, Note_on_c, 0, 74, 0
2, 235900, Note_on_c, 0, 85, 117
2, 235902, Control_c, 0, 64, 0
2, 235908, Note_on_c, 0, 76, 97
2, 235916, Note_on_c, 0, 64, 109
2, 235976, Note_on_c, 0, 57, 0
2, 236072, Control_c, 0, 64, 127
2, 236090, Note_on_c, 0, 58, 74
2, 236118, Note_on_c, 0, 64, 0
2, 236152, Note_on_c, 0, 85, 0
2, 236180, Note_on_c, 0, 76, 0
2, 236248, Note_on_c, 0, 58, 0
2, 236262, Note_on_c, 0, 55, 92
2, 236304, Note_on_c, 0, 55, 0
2, 236464, Note_on_c, 0, 74, 116
2, 236467, Note_on_c, 0, 38, 108
2, 236467, Note_on_c, 0, 66, 83
2, 236486, Control_c, 0, 64, 0
2, 236592, Note_on_c, 0, 66, 0
2, 236656, Control_c, 0, 64, 127
2, 236659, Note_on_c, 0, 50, 101
2, 236662, Note_on_c, 0, 38, 0
2, 236674, Note_on_c, 0, 75, 101
2, 236700, Note_on_c, 0, 50, 0
2, 236726, Note_on_c, 0, 74, 0
2, 236758, Note_on_c, 0, 75, 0
2, 236856, Note_on_c, 0, 74, 112
2, 236859, Note_on_c, 0, 57, 86
2, 237086, Control_c, 0, 64, 0
2, 237094, Note_on_c, 0, 86, 119
2, 237098, Note_on_c, 0, 69, 83
2, 237102, Note_on_c, 0, 78, 86
2, 237106, Note_on_c, 0, 81, 96
2, 237192, Note_on_c, 0, 57, 0
2, 237316, Control_c, 0, 64, 127
2, 237348, Note_on_c, 0, 66, 67
2, 237352, Note_on_c, 0, 69, 0
2, 237476, Note_on_c, 0, 66, 0
2, 237532, Note_on_c, 0, 62, 67
2, 237578, Note_on_c, 0, 62, 0
2, 237696, Note_on_c, 0, 57, 54
2, 237844, Note_on_c, 0, 54, 74
2, 237850, Note_on_c, 0, 57, 0
2, 237946, Note_on_c, 0, 54, 0
2, 238012, Note_on_c, 0, 50, 69
2, 238060, Note_on_c, 0, 50, 0
2, 238106, Note_on_c, 0, 86, 0
2, 238176, Note_on_c, 0, 45, 67
2, 238190, Note_on_c, 0, 74, 0
2, 238226, Note_on_c, 0, 81, 0
2, 238232, Note_on_c, 0, 78, 0
2, 238308, Note_on_c, 0, 45, 0
2, 238338, Note_on_c, 0, 42, 59
2, 238520, Note_on_c, 0, 37, 69
2, 238523, Note_on_c, 0, 42, 0
2, 238714, Control_c, 0, 64, 0
2, 238728, Note_on_c, 0, 38, 64
2, 238734, Note_on_c, 0, 37, 0
2, 238740, Note_on_c, 0, 50, 51
2, 238914, Note_on_c, 0, 38, 0
2, 238916, Note_on_c, 0, 39, 56
2, 238934, Note_on_c, 0, 50, 0
2, 238944, Note_on_c, 0, 51, 44
2, 239006, Control_c, 0, 64, 127
2, 239090, Note_on_c, 0, 39, 0
2, 239112, Note_on_c, 0, 50, 57
2, 239118, Note_on_c, 0, 38, 69
2, 239184, Note_on_c, 0, 50, 0
2, 239186, Note_on_c, 0, 51, 0
2, 239220, Note_on_c, 0, 38, 0
2, 239314, Control_c, 0, 64, 0
2, 239346, Note_on_c, 0, 55, 56
2, 239346, Note_on_c, 0, 31, 66
2, 239349, Note_on_c, 0, 43, 58
2, 239358, Note_on_c, 0, 50, 58
2, 239464, Note_on_c, 0, 50, 0
2, 239572, Note_on_c, 0, 51, 42
2, 239612, Note_on_c, 0, 55, 0
2, 239620, Control_c, 0, 64, 127
2, 239636, Note_on_c, 0, 31, 0
2, 239656, Note_on_c, 0, 43, 0
2, 239716, Note_on_c, 0, 50, 54
2, 239754, Note_on_c, 0, 51, 0
2, 239774, Note_on_c, 0, 50, 0
2, 239898, Control_c, 0, 64, 0
2, 239906, Note_on_c, 0, 34, 49
2, 239908, Note_on_c, 0, 46, 39
2, 239920, Note_on_c, 0, 50, 34
2, 239922, Note_on_c, 0, 55, 52
2, 240020, Note_on_c, 0, 50, 0
2, 240108, Note_on_c, 0, 51, 40
2, 240154, Note_on_c, 0, 55, 0
2, 240190, Control_c, 0, 64, 127
2, 240254, Note_on_c, 0, 50, 57
2, 240266, Note_on_c, 0, 34, 0
2, 240302, Note_on_c, 0, 46, 0
2, 240316, Note_on_c, 0, 50, 0
2, 240319, Note_on_c, 0, 51, 0
2, 240404, Control_c, 0, 64, 0
2, 240434, Note_on_c, 0, 36, 50
2, 240440, Note_on_c, 0, 48, 34
2, 240470, Note_on_c, 0, 55, 40
2, 240510, Note_on_c, 0, 50, 3
2, 240620, Note_on_c, 0, 50, 0
2, 240638, Note_on_c, 0, 51, 40
2, 240702, Note_on_c, 0, 48, 0
2, 240712, Control_c, 0, 64, 127
2, 240716, Note_on_c, 0, 55, 0
2, 240812, Note_on_c, 0, 50, 43
2, 240820, Note_on_c, 0, 51, 0
2, 240850, Note_on_c, 0, 36, 0
2, 240870, Note_on_c, 0, 50, 0
2, 240952, Note_on_c, 0, 50, 52
2, 240976, Note_on_c, 0, 38, 58
2, 240988, Control_c, 0, 64, 0
2, 241116, Note_on_c, 0, 50, 0
2, 241128, Note_on_c, 0, 51, 64
2, 241132, Note_on_c, 0, 38, 0
2, 241134, Note_on_c, 0, 39, 71
2, 241172, Control_c, 0, 64, 127
2, 241290, Note_on_c, 0, 39, 0
2, 241294, Note_on_c, 0, 50, 73
2, 241298, Note_on_c, 0, 38, 75
2, 241352, Note_on_c, 0, 38, 0
2, 241362, Note_on_c, 0, 50, 0
2, 241368, Note_on_c, 0, 51, 0
2, 241450, Control_c, 0, 64, 0
2, 241478, Note_on_c, 0, 43, 67
2, 241480, Note_on_c, 0, 50, 50
2, 241482, Note_on_c, 0, 31, 79
2, 241498, Note_on_c, 0, 55, 58
2, 241642, Note_on_c, 0, 50, 0
2, 241672, Note_on_c, 0, 51, 47
2, 241748, Note_on_c, 0, 55, 0
2, 241758, Note_on_c, 0, 31, 0
2, 241758, Control_c, 0, 64, 127
2, 241772, Note_on_c, 0, 43, 0
2, 241822, Note_on_c, 0, 50, 58
2, 241876, Note_on_c, 0, 51, 0
2, 241888, Note_on_c, 0, 50, 0
2, 242004, Note_on_c, 0, 46, 52
2, 242016, Note_on_c, 0, 34, 52
2, 242026, Note_on_c, 0, 50, 41
2, 242048, Control_c, 0, 64, 0
2, 242050, Note_on_c, 0, 55, 52
2, 242164, Note_on_c, 0, 50, 0
2, 242208, Note_on_c, 0, 51, 47
2, 242248, Note_on_c, 0, 55, 0
2, 242280, Control_c, 0, 64, 127
2, 242334, Note_on_c, 0, 34, 0
2, 242362, Note_on_c, 0, 50, 54
2, 242390, Note_on_c, 0, 46, 0
2, 242424, Note_on_c, 0, 50, 0
2, 242430, Note_on_c, 0, 51, 0
2, 242524, Control_c, 0, 64, 0
2, 242526, Note_on_c, 0, 50, 34
2, 242546, Note_on_c, 0, 36, 42
2, 242549, Note_on_c, 0, 48, 34
2, 242558, Note_on_c, 0, 55, 43
2, 242704, Note_on_c, 0, 50, 0
2, 242722, Note_on_c, 0, 51, 46
2, 242816, Control_c, 0, 64, 127
2, 242830, Note_on_c, 0, 55, 0
2, 242842, Note_on_c, 0, 48, 0
2, 242892, Note_on_c, 0, 50, 47
2, 242950, Note_on_c, 0, 50, 0
2, 242958, Note_on_c, 0, 36, 0
2, 242970, Note_on_c, 0, 51, 0
2, 243032, Note_on_c, 0, 50, 50
2, 243048, Note_on_c, 0, 38, 56
2, 243078, Control_c, 0, 64, 0
2, 243204, Note_on_c, 0, 38, 0
2, 243210, Note_on_c, 0, 50, 0
2, 243216, Note_on_c, 0, 39, 66
2, 243218, Note_on_c, 0, 51, 64
2, 243246, Control_c, 0, 64, 127
2, 243366, Note_on_c, 0, 50, 80
2, 243366, Note_on_c, 0, 38, 77
2, 243372, Note_on_c, 0, 51, 0
2, 243380, Note_on_c, 0, 39, 0
2, 243432, Note_on_c, 0, 50, 0
2, 243470, Note_on_c, 0, 38, 0
2, 243536, Note_on_c, 0, 58, 64
2, 243540, Note_on_c, 0, 50, 55
2, 243552, Note_on_c, 0, 55, 66
2, 243555, Note_on_c, 0, 31, 93
2, 243558, Note_on_c, 0, 43, 73
2, 243586, Control_c, 0, 64, 0
2, 243738, Note_on_c, 0, 51, 73
2, 243768, Note_on_c, 0, 50, 0
2, 243814, Note_on_c, 0, 31, 0
2, 243814, Control_c, 0, 64, 127
2, 243840, Note_on_c, 0, 43, 0
2, 243874, Note_on_c, 0, 55, 0
2, 243926, Note_on_c, 0, 50, 75
2, 243960, Note_on_c, 0, 33, 100
2, 243962, Note_on_c, 0, 51, 0
2, 243962, Note_on_c, 0, 45, 94
2, 243978, Note_on_c, 0, 58, 0
2, 243998, Note_on_c, 0, 50, 0
2, 244004, Note_on_c, 0, 45, 0
2, 244076, Note_on_c, 0, 33, 0
2, 244104, Note_on_c, 0, 58, 73
2, 244110, Note_on_c, 0, 50, 70
2, 244114, Note_on_c, 0, 55, 79
2, 244122, Note_on_c, 0, 46, 86
2, 244134, Note_on_c, 0, 34, 78
2, 244170, Control_c, 0, 64, 0
2, 244290, Note_on_c, 0, 51, 78
2, 244314, Note_on_c, 0, 50, 0
2, 244380, Note_on_c, 0, 46, 0
2, 244384, Control_c, 0, 64, 127
2, 244386, Note_on_c, 0, 55, 0
2, 244420, Note_on_c, 0, 34, 0
2, 244462, Note_on_c, 0, 50, 77
2, 244472, Note_on_c, 0, 43, 97
2, 244476, Note_on_c, 0, 58, 0
2, 244478, Note_on_c, 0, 31, 102
2, 244510, Note_on_c, 0, 51, 0
2, 244516, Note_on_c, 0, 50, 0
2, 244522, Note_on_c, 0, 31, 0
2, 244582, Note_on_c, 0, 43, 0
2, 244612, Note_on_c, 0, 58, 73
2, 244615, Note_on_c, 0, 50, 57
2, 244630, Note_on_c, 0, 55, 58
2, 244632, Control_c, 0, 64, 0
2, 244660, Note_on_c, 0, 39, 81
2, 244752, Note_on_c, 0, 50, 0
2, 244826, Note_on_c, 0, 51, 62
2, 244906, Control_c, 0, 64, 127
2, 244976, Note_on_c, 0, 50, 70
2, 245002, Note_on_c, 0, 51, 0
2, 245010, Note_on_c, 0, 58, 0
2, 245030, Note_on_c, 0, 50, 0
2, 245068, Note_on_c, 0, 55, 0
2, 245148, Note_on_c, 0, 57, 80
2, 245153, Note_on_c, 0, 50, 35
2, 245170, Note_on_c, 0, 48, 56
2, 245180, Note_on_c, 0, 36, 83
2, 245198, Control_c, 0, 64, 0
2, 245202, Note_on_c, 0, 39, 0
2, 245306, Note_on_c, 0, 50, 0
2, 245352, Control_c, 0, 64, 127
2, 245360, Note_on_c, 0, 48, 0
2, 245368, Note_on_c, 0, 51, 46
2, 245378, Note_on_c, 0, 57, 0
2, 245484, Note_on_c, 0, 36, 0
2, 245528, Note_on_c, 0, 50, 70
2, 245538, Note_on_c, 0, 33, 74
2, 245584, Note_on_c, 0, 50, 0
2, 245600, Note_on_c, 0, 51, 0
2, 245610, Note_on_c, 0, 33, 0
2, 245666, Note_on_c, 0, 50, 71
2, 245666, Note_on_c, 0, 46, 77
2, 245674, Note_on_c, 0, 55, 83
2, 245680, Note_on_c, 0, 38, 73
2, 245690, Control_c, 0, 64, 0
2, 245846, Note_on_c, 0, 51, 73
2, 245860, Note_on_c, 0, 50, 0
2, 245898, Note_on_c, 0, 38, 0
2, 245898, Note_on_c, 0, 46, 0
2, 245920, Control_c, 0, 64, 127
2, 245994, Note_on_c, 0, 50, 85
2, 246028, Note_on_c, 0, 51, 0
2, 246050, Note_on_c, 0, 50, 0
2, 246094, Note_on_c, 0, 55, 0
2, 246160, Note_on_c, 0, 45, 71
2, 246162, Note_on_c, 0, 54, 97
2, 246170, Note_on_c, 0, 38, 67
2, 246170, Note_on_c, 0, 50, 71
2, 246196, Control_c, 0, 64, 0
2, 246298, Note_on_c, 0, 50, 0
2, 246318, Note_on_c, 0, 51, 86
2, 246394, Note_on_c, 0, 45, 0
2, 246396, Note_on_c, 0, 38, 0
2, 246396, Control_c, 0, 64, 127
2, 246398, Note_on_c, 0, 54, 0
2, 246462, Note_on_c, 0, 50, 94
2, 246490, Note_on_c, 0, 51, 0
2, 246498, Note_on_c, 0, 50, 0
2, 246676, Note_on_c, 0, 50, 69
2, 246682, Note_on_c, 0, 67, 97
2, 246692, Note_on_c, 0, 38, 54
2, 246692, Note_on_c, 0, 62, 82
2, 246694, Note_on_c, 0, 46, 52
2, 246698, Note_on_c, 0, 55, 82
2, 246736, Control_c, 0, 64, 0
2, 246832, Note_on_c, 0, 62, 0
2, 246858, Note_on_c, 0, 63, 86
2, 246920, Note_on_c, 0, 50, 0
2, 246920, Note_on_c, 0, 55, 0
2, 246920, Control_c, 0, 64, 127
2, 246936, Note_on_c, 0, 38, 0
2, 246982, Note_on_c, 0, 62, 85
2, 246988, Note_on_c, 0, 46, 0
2, 247022, Note_on_c, 0, 62, 0
2, 247024, Note_on_c, 0, 63, 0
2, 247028, Note_on_c, 0, 67, 0
2, 247092, Note_on_c, 0, 38, 82
2, 247104, Control_c, 0, 64, 0
2, 247122, Note_on_c, 0, 45, 64
2, 247178, Note_on_c, 0, 69, 47
2, 247186, Note_on_c, 0, 62, 62
2, 247192, Note_on_c, 0, 74, 63
2, 247198, Note_on_c, 0, 45, 0
2, 247198, Note_on_c, 0, 50, 96
2, 247212, Note_on_c, 0, 38, 0
2, 247212, Control_c, 0, 64, 127
2, 247236, Note_on_c, 0, 74, 0
2, 247239, Note_on_c, 0, 62, 0
2, 247250, Note_on_c, 0, 69, 0
2, 247330, Note_on_c, 0, 50, 0
2, 247333, Note_on_c, 0, 75, 93
2, 247336, Note_on_c, 0, 63, 92
2, 247336, Note_on_c, 0, 51, 94
2, 247412, Note_on_c, 0, 63, 0
2, 247424, Note_on_c, 0, 75, 0
2, 247462, Note_on_c, 0, 51, 0
2, 247486, Note_on_c, 0, 50, 104
2, 247496, Note_on_c, 0, 74, 108
2, 247498, Note_on_c, 0, 62, 93
2, 247526, Note_on_c, 0, 50, 0
2, 247534, Note_on_c, 0, 62, 0
2, 247570, Note_on_c, 0, 74, 0
2, 247714, Note_on_c, 0, 79, 112
2, 247716, Note_on_c, 0, 70, 96
2, 247732, Note_on_c, 0, 75, 74
2, 247734, Control_c, 0, 64, 0
2, 247734, Note_on_c, 0, 31, 109
2, 247736, Note_on_c, 0, 43, 111
2, 247874, Note_on_c, 0, 70, 0
2, 247890, Note_on_c, 0, 31, 0
2, 247893, Note_on_c, 0, 72, 78
2, 247924, Note_on_c, 0, 43, 0
2, 247934, Control_c, 0, 64, 127
2, 247978, Note_on_c, 0, 75, 0
2, 247992, Note_on_c, 0, 79, 0
2, 248036, Note_on_c, 0, 72, 0
2, 248039, Note_on_c, 0, 70, 58
2, 248070, Note_on_c, 0, 46, 105
2, 248074, Note_on_c, 0, 34, 94
2, 248108, Note_on_c, 0, 70, 0
2, 248111, Note_on_c, 0, 34, 0
2, 248124, Note_on_c, 0, 46, 0
2, 248188, Note_on_c, 0, 70, 74
2, 248190, Note_on_c, 0, 79, 112
2, 248194, Note_on_c, 0, 75, 90
2, 248228, Note_on_c, 0, 51, 115
2, 248240, Note_on_c, 0, 39, 96
2, 248312, Note_on_c, 0, 70, 0
2, 248316, Note_on_c, 0, 39, 0
2, 248342, Note_on_c, 0, 51, 0
2, 248354, Note_on_c, 0, 72, 78
2, 248448, Note_on_c, 0, 75, 0
2, 248470, Note_on_c, 0, 79, 0
2, 248508, Note_on_c, 0, 70, 65
2, 248514, Note_on_c, 0, 72, 0
2, 248518, Note_on_c, 0, 55, 105
2, 248520, Note_on_c, 0, 43, 97
2, 248558, Note_on_c, 0, 43, 0
2, 248576, Note_on_c, 0, 70, 0
2, 248586, Note_on_c, 0, 55, 0
2, 248662, Note_on_c, 0, 79, 112
2, 248665, Note_on_c, 0, 70, 78
2, 248674, Note_on_c, 0, 75, 87
2, 248688, Note_on_c, 0, 58, 101
2, 248698, Note_on_c, 0, 46, 86
2, 248786, Note_on_c, 0, 70, 0
2, 248818, Note_on_c, 0, 46, 0
2, 248834, Note_on_c, 0, 58, 0
2, 248838, Note_on_c, 0, 72, 77
2, 248888, Note_on_c, 0, 75, 0
2, 248950, Note_on_c, 0, 70, 62
2, 249040, Note_on_c, 0, 72, 0
2, 249040, Note_on_c, 0, 50, 117
2, 249054, Note_on_c, 0, 79, 0
2, 249070, Note_on_c, 0, 70, 0
2, 249112, Note_on_c, 0, 57, 82
2, 249114, Control_c, 0, 64, 0
2, 249152, Note_on_c, 0, 74, 104
2, 249155, Note_on_c, 0, 69, 86
2, 249196, Note_on_c, 0, 62, 112
2, 249204, Note_on_c, 0, 50, 0
2, 249230, Note_on_c, 0, 57, 0
2, 249270, Control_c, 0, 64, 127
2, 249308, Note_on_c, 0, 75, 104
2, 249314, Note_on_c, 0, 62, 0
2, 249330, Note_on_c, 0, 63, 95
2, 249356, Note_on_c, 0, 74, 0
2, 249408, Note_on_c, 0, 63, 0
2, 249454, Note_on_c, 0, 62, 96
2, 249456, Note_on_c, 0, 74, 85
2, 249492, Note_on_c, 0, 62, 0
2, 249506, Note_on_c, 0, 69, 0
2, 249520, Note_on_c, 0, 75, 0
2, 249572, Note_on_c, 0, 74, 0
2, 249662, Note_on_c, 0, 79, 115
2, 249667, Note_on_c, 0, 70, 95
2, 249670, Note_on_c, 0, 75, 89
2, 249688, Note_on_c, 0, 31, 108
2, 249690, Note_on_c, 0, 43, 106
2, 249722, Note_on_c, 0, 31, 0
2, 249742, Note_on_c, 0, 43, 0
2, 249810, Note_on_c, 0, 70, 0
2, 249828, Note_on_c, 0, 72, 81
2, 249932, Note_on_c, 0, 75, 0
2, 249962, Note_on_c, 0, 70, 63
2, 249994, Note_on_c, 0, 79, 0
2, 250012, Note_on_c, 0, 46, 109
2, 250018, Note_on_c, 0, 72, 0
2, 250022, Note_on_c, 0, 34, 89
2, 250056, Note_on_c, 0, 34, 0
2, 250058, Note_on_c, 0, 46, 0
2, 250066, Note_on_c, 0, 70, 0
2, 250136, Note_on_c, 0, 79, 111
2, 250138, Note_on_c, 0, 70, 75
2, 250146, Note_on_c, 0, 75, 93
2, 250160, Note_on_c, 0, 51, 119
2, 250170, Note_on_c, 0, 39, 101
2, 250192, Control_c, 0, 64, 0
2, 250260, Note_on_c, 0, 39, 0
2, 250272, Note_on_c, 0, 70, 0
2, 250312, Note_on_c, 0, 72, 79
2, 250315, Note_on_c, 0, 51, 0
2, 250330, Control_c, 0, 64, 127
2, 250400, Note_on_c, 0, 75, 0
2, 250424, Note_on_c, 0, 79, 0
2, 250468, Note_on_c, 0, 55, 105
2, 250471, Note_on_c, 0, 70, 67
2, 250471, Note_on_c, 0, 43, 93
2, 250506, Note_on_c, 0, 55, 0
2, 250509, Note_on_c, 0, 43, 0
2, 250520, Note_on_c, 0, 72, 0
2, 250532, Note_on_c, 0, 70, 0
2, 250606, Note_on_c, 0, 70, 82
2, 250606, Note_on_c, 0, 79, 117
2, 250616, Note_on_c, 0, 75, 95
2, 250618, Note_on_c, 0, 58, 111
2, 250632, Note_on_c, 0, 46, 109
2, 250680, Note_on_c, 0, 46, 0
2, 250754, Note_on_c, 0, 58, 0
2, 250757, Note_on_c, 0, 70, 0
2, 250798, Note_on_c, 0, 72, 69
2, 250840, Note_on_c, 0, 75, 0
2, 250902, Note_on_c, 0, 70, 66
2, 250950, Note_on_c, 0, 72, 0
2, 250956, Note_on_c, 0, 79, 0
2, 250964, Note_on_c, 0, 50, 105
2, 251012, Note_on_c, 0, 57, 81
2, 251018, Note_on_c, 0, 70, 0
2, 251036, Control_c, 0, 64, 0
2, 251088, Note_on_c, 0, 69, 94
2, 251088, Note_on_c, 0, 74, 105
2, 251094, Note_on_c, 0, 50, 0
2, 251098, Note_on_c, 0, 62, 123
2, 251134, Note_on_c, 0, 57, 0
2, 251192, Control_c, 0, 64, 127
2, 251212, Note_on_c, 0, 75, 95
2, 251224, Note_on_c, 0, 62, 0
2, 251244, Note_on_c, 0, 63, 98
2, 251254, Note_on_c, 0, 74, 0
2, 251280, Note_on_c, 0, 69, 0
2, 251334, Note_on_c, 0, 75, 0
2, 251338, Note_on_c, 0, 63, 0
2, 251360, Note_on_c, 0, 62, 116
2, 251396, Note_on_c, 0, 74, 36
2, 251418, Note_on_c, 0, 62, 0
2, 251462, Note_on_c, 0, 74, 0
2, 251622, Note_on_c, 0, 74, 100
2, 251624, Note_on_c, 0, 82, 103
2, 251626, Note_on_c, 0, 79, 111
2, 251646, Note_on_c, 0, 31, 117
2, 251646, Note_on_c, 0, 43, 112
2, 251674, Note_on_c, 0, 31, 0
2, 251716, Note_on_c, 0, 43, 0
2, 251774, Note_on_c, 0, 75, 89
2, 251788, Note_on_c, 0, 74, 0
2, 251844, Note_on_c, 0, 79, 0
2, 251940, Note_on_c, 0, 75, 0
2, 251942, Note_on_c, 0, 74, 92
2, 251958, Note_on_c, 0, 50, 111
2, 251960, Note_on_c, 0, 82, 0
2, 251962, Note_on_c, 0, 38, 90
2, 251998, Note_on_c, 0, 38, 0
2, 252008, Note_on_c, 0, 50, 0
2, 252034, Note_on_c, 0, 74, 0
2, 252098, Note_on_c, 0, 74, 108
2, 252100, Note_on_c, 0, 82, 102
2, 252104, Note_on_c, 0, 79, 109
2, 252120, Note_on_c, 0, 55, 121
2, 252124, Note_on_c, 0, 43, 116
2, 252154, Note_on_c, 0, 43, 0
2, 252160, Note_on_c, 0, 55, 0
2, 252248, Note_on_c, 0, 75, 94
2, 252272, Note_on_c, 0, 74, 0
2, 252320, Note_on_c, 0, 79, 0
2, 252378, Note_on_c, 0, 82, 0
2, 252418, Note_on_c, 0, 75, 0
2, 252421, Note_on_c, 0, 74, 101
2, 252421, Note_on_c, 0, 58, 115
2, 252428, Note_on_c, 0, 46, 104
2, 252464, Note_on_c, 0, 46, 0
2, 252496, Note_on_c, 0, 58, 0
2, 252510, Note_on_c, 0, 74, 0
2, 252570, Note_on_c, 0, 74, 113
2, 252570, Note_on_c, 0, 82, 98
2, 252573, Note_on_c, 0, 79, 108
2, 252573, Control_c, 0, 64, 0
2, 252594, Note_on_c, 0, 63, 127
2, 252604, Note_on_c, 0, 51, 111
2, 252746, Note_on_c, 0, 75, 86
2, 252752, Note_on_c, 0, 74, 0
2, 252758, Control_c, 0, 64, 127
2, 252832, Note_on_c, 0, 63, 0
2, 252844, Note_on_c, 0, 51, 0
2, 252886, Note_on_c, 0, 74, 81
2, 252924, Note_on_c, 0, 82, 0
2, 252940, Note_on_c, 0, 75, 0
2, 252948, Note_on_c, 0, 79, 0
2, 252948, Note_on_c, 0, 74, 0
2, 253048, Note_on_c, 0, 81, 118
2, 253050, Note_on_c, 0, 72, 108
2, 253053, Note_on_c, 0, 74, 94
2, 253058, Note_on_c, 0, 60, 112
2, 253066, Note_on_c, 0, 48, 97
2, 253180, Note_on_c, 0, 74, 0
2, 253192, Note_on_c, 0, 75, 79
2, 253226, Note_on_c, 0, 60, 0
2, 253260, Note_on_c, 0, 72, 0
2, 253276, Note_on_c, 0, 48, 0
2, 253312, Note_on_c, 0, 81, 0
2, 253368, Note_on_c, 0, 74, 83
2, 253376, Note_on_c, 0, 75, 0
2, 253390, Note_on_c, 0, 57, 90
2, 253402, Note_on_c, 0, 45, 74
2, 253428, Note_on_c, 0, 74, 0
2, 253432, Note_on_c, 0, 57, 0
2, 253450, Note_on_c, 0, 45, 0
2, 253518, Note_on_c, 0, 81, 116
2, 253522, Note_on_c, 0, 74, 89
2, 253526, Note_on_c, 0, 70, 96
2, 253544, Note_on_c, 0, 62, 121
2, 253547, Note_on_c, 0, 50, 115
2, 253558, Control_c, 0, 64, 0
2, 253692, Note_on_c, 0, 75, 82
2, 253697, Note_on_c, 0, 74, 0
2, 253772, Control_c, 0, 64, 127
2, 253826, Note_on_c, 0, 74, 80
2, 253836, Note_on_c, 0, 62, 0
2, 253854, Note_on_c, 0, 81, 0
2, 253874, Note_on_c, 0, 50, 0
2, 253877, Note_on_c, 0, 70, 0
2, 253890, Note_on_c, 0, 74, 0
2, 253912, Note_on_c, 0, 75, 0
2, 253980, Note_on_c, 0, 58, 104
2, 253984, Note_on_c, 0, 79, 116
2, 253986, Note_on_c, 0, 74, 92
2, 253988, Note_on_c, 0, 70, 94
2, 253990, Note_on_c, 0, 46, 98
2, 254134, Note_on_c, 0, 58, 0
2, 254142, Note_on_c, 0, 74, 0
2, 254142, Note_on_c, 0, 75, 77
2, 254212, Note_on_c, 0, 46, 0
2, 254226, Note_on_c, 0, 79, 0
2, 254236, Note_on_c, 0, 70, 0
2, 254292, Note_on_c, 0, 55, 116
2, 254292, Note_on_c, 0, 43, 109
2, 254298, Note_on_c, 0, 75, 0
2, 254306, Note_on_c, 0, 74, 88
2, 254328, Note_on_c, 0, 43, 0
2, 254344, Note_on_c, 0, 55, 0
2, 254408, Note_on_c, 0, 74, 0
2, 254434, Control_c, 0, 64, 0
2, 254446, Note_on_c, 0, 79, 124
2, 254454, Note_on_c, 0, 69, 96
2, 254466, Note_on_c, 0, 74, 112
2, 254470, Note_on_c, 0, 62, 120
2, 254475, Note_on_c, 0, 50, 115
2, 254620, Note_on_c, 0, 75, 92
2, 254628, Note_on_c, 0, 74, 0
2, 254640, Note_on_c, 0, 62, 0
2, 254648, Control_c, 0, 64, 127
2, 254686, Note_on_c, 0, 50, 0
2, 254698, Note_on_c, 0, 69, 0
2, 254776, Note_on_c, 0, 74, 108
2, 254808, Note_on_c, 0, 75, 0
2, 254810, Note_on_c, 0, 79, 0
2, 254876, Note_on_c, 0, 74, 0
2, 254932, Note_on_c, 0, 74, 118
2, 254934, Note_on_c, 0, 78, 113
2, 254938, Note_on_c, 0, 50, 118
2, 254944, Note_on_c, 0, 69, 97
2, 254946, Note_on_c, 0, 38, 112
2, 255094, Note_on_c, 0, 74, 0
2, 255098, Note_on_c, 0, 75, 93
2, 255122, Note_on_c, 0, 50, 0
2, 255142, Note_on_c, 0, 69, 0
2, 255164, Note_on_c, 0, 38, 0
2, 255250, Note_on_c, 0, 74, 104
2, 255288, Note_on_c, 0, 74, 0
2, 255298, Note_on_c, 0, 78, 0
2, 255314, Note_on_c, 0, 75, 0
2, 255432, Control_c, 0, 64, 0
2, 255438, Note_on_c, 0, 86, 119
2, 255440, Note_on_c, 0, 82, 111
2, 255448, Note_on_c, 0, 43, 126
2, 255454, Note_on_c, 0, 31, 126
2, 255530, Note_on_c, 0, 31, 0
2, 255584, Control_c, 0, 64, 127
2, 255589, Note_on_c, 0, 43, 0
2, 255628, Note_on_c, 0, 75, 90
2, 255702, Note_on_c, 0, 82, 0
2, 255718, Note_on_c, 0, 86, 0
2, 255760, Note_on_c, 0, 75, 0
2, 255804, Note_on_c, 0, 74, 102
2, 255820, Note_on_c, 0, 50, 116
2, 255822, Note_on_c, 0, 38, 97
2, 255856, Note_on_c, 0, 38, 0
2, 255878, Note_on_c, 0, 50, 0
2, 255912, Note_on_c, 0, 74, 0
2, 255948, Note_on_c, 0, 86, 121
2, 255954, Note_on_c, 0, 82, 98
2, 255976, Note_on_c, 0, 55, 124
2, 255980, Note_on_c, 0, 43, 113
2, 256016, Note_on_c, 0, 43, 0
2, 256028, Note_on_c, 0, 55, 0
2, 256096, Note_on_c, 0, 75, 101
2, 256182, Note_on_c, 0, 86, 0
2, 256192, Note_on_c, 0, 82, 0
2, 256242, Note_on_c, 0, 75, 0
2, 256245, Note_on_c, 0, 58, 117
2, 256249, Note_on_c, 0, 46, 111
2, 256254, Note_on_c, 0, 74, 108
2, 256284, Note_on_c, 0, 46, 0
2, 256304, Note_on_c, 0, 58, 0
2, 256352, Note_on_c, 0, 74, 0
2, 256368, Control_c, 0, 64, 0
2, 256374, Note_on_c, 0, 86, 120
2, 256384, Note_on_c, 0, 82, 101
2, 256396, Note_on_c, 0, 63, 127
2, 256404, Note_on_c, 0, 51, 117
2, 256522, Control_c, 0, 64, 127
2, 256554, Note_on_c, 0, 75, 103
2, 256588, Note_on_c, 0, 86, 0
2, 256600, Note_on_c, 0, 51, 0
2, 256614, Note_on_c, 0, 63, 0
2, 256638, Note_on_c, 0, 82, 0
2, 256654, Note_on_c, 0, 75, 0
2, 256714, Note_on_c, 0, 74, 97
2, 256764, Note_on_c, 0, 74, 0
2, 256850, Note_on_c, 0, 74, 112
2, 256852, Note_on_c, 0, 84, 118
2, 256854, Note_on_c, 0, 81, 108
2, 256854, Note_on_c, 0, 60, 120
2, 256862, Note_on_c, 0, 48, 111
2, 257000, Note_on_c, 0, 75, 94
2, 257006, Note_on_c, 0, 74, 0
2, 257018, Note_on_c, 0, 60, 0
2, 257066, Note_on_c, 0, 48, 0
2, 257076, Note_on_c, 0, 84, 0
2, 257086, Note_on_c, 0, 81, 0
2, 257114, Note_on_c, 0, 75, 0
2, 257162, Note_on_c, 0, 74, 89
2, 257184, Note_on_c, 0, 57, 92
2, 257192, Note_on_c, 0, 45, 78
2, 257223, Note_on_c, 0, 57, 0
2, 257238, Note_on_c, 0, 45, 0
2, 257258, Note_on_c, 0, 74, 0
2, 257304, Note_on_c, 0, 81, 109
2, 257304, Note_on_c, 0, 82, 105
2, 257308, Note_on_c, 0, 74, 120
2, 257320, Note_on_c, 0, 62, 127
2, 257322, Note_on_c, 0, 50, 121
2, 257338, Control_c, 0, 64, 0
2, 257452, Note_on_c, 0, 75, 97
2, 257486, Note_on_c, 0, 74, 0
2, 257536, Control_c, 0, 64, 127
2, 257598, Note_on_c, 0, 74, 78
2, 257602, Note_on_c, 0, 62, 0
2, 257610, Note_on_c, 0, 82, 0
2, 257630, Note_on_c, 0, 75, 0
2, 257644, Note_on_c, 0, 50, 0
2, 257678, Note_on_c, 0, 74, 0
2, 257688, Note_on_c, 0, 81, 0
2, 257748, Note_on_c, 0, 58, 111
2, 257750, Note_on_c, 0, 82, 102
2, 257752, Note_on_c, 0, 74, 108
2, 257752, Note_on_c, 0, 79, 113
2, 257756, Note_on_c, 0, 46, 104
2, 257904, Note_on_c, 0, 58, 0
2, 257916, Note_on_c, 0, 75, 87
2, 257934, Note_on_c, 0, 74, 0
2, 257946, Note_on_c, 0, 79, 0
2, 257984, Note_on_c, 0, 46, 0
2, 258024, Note_on_c, 0, 75, 0
2, 258048, Note_on_c, 0, 82, 0
2, 258064, Note_on_c, 0, 43, 106
2, 258064, Note_on_c, 0, 55, 116
2, 258074, Note_on_c, 0, 74, 96
2, 258100, Note_on_c, 0, 43, 0
2, 258124, Note_on_c, 0, 55, 0
2, 258142, Note_on_c, 0, 74, 0
2, 258212, Control_c, 0, 64, 0
2, 258224, Note_on_c, 0, 79, 120
2, 258224, Note_on_c, 0, 81, 116
2, 258224, Note_on_c, 0, 74, 112
2, 258240, Note_on_c, 0, 62, 127
2, 258242, Note_on_c, 0, 50, 126
2, 258390, Note_on_c, 0, 75, 93
2, 258422, Note_on_c, 0, 74, 0
2, 258428, Control_c, 0, 64, 127
2, 258458, Note_on_c, 0, 62, 0
2, 258524, Note_on_c, 0, 50, 0
2, 258544, Note_on_c, 0, 74, 81
2, 258558, Note_on_c, 0, 81, 0
2, 258564, Note_on_c, 0, 75, 0
2, 258636, Note_on_c, 0, 74, 0
2, 258658, Note_on_c, 0, 79, 0
2, 258728, Note_on_c, 0, 74, 108
2, 258728, Note_on_c, 0, 81, 118
2, 258730, Note_on_c, 0, 78, 109
2, 258734, Note_on_c, 0, 38, 125
2, 258734, Note_on_c, 0, 50, 127
2, 258812, Control_c, 0, 64, 0
2, 258920, Note_on_c, 0, 74, 0
2, 258920, Note_on_c, 0, 75, 92
2, 258950, Control_c, 0, 64, 127
2, 258990, Note_on_c, 0, 50, 0
2, 259046, Note_on_c, 0, 38, 0
2, 259104, Note_on_c, 0, 75, 0
2, 259106, Note_on_c, 0, 78, 0
2, 259112, Note_on_c, 0, 74, 108
2, 259140, Note_on_c, 0, 81, 0
2, 259192, Note_on_c, 0, 74, 0
2, 259344, Note_on_c, 0, 31, 127
2, 259344, Note_on_c, 0, 70, 103
2, 259344, Note_on_c, 0, 74, 102
2, 259344, Note_on_c, 0, 79, 119
2, 259412, Control_c, 0, 64, 0
2, 259562, Note_on_c, 0, 74, 0
2, 259582, Note_on_c, 0, 43, 108
2, 259586, Note_on_c, 0, 75, 90
2, 259602, Note_on_c, 0, 31, 0
2, 259610, Control_c, 0, 64, 127
2, 259634, Note_on_c, 0, 43, 0
2, 259782, Note_on_c, 0, 70, 0
2, 259782, Note_on_c, 0, 50, 109
2, 259788, Note_on_c, 0, 74, 100
2, 259828, Note_on_c, 0, 75, 0
2, 259900, Note_on_c, 0, 50, 0
2, 259964, Note_on_c, 0, 75, 96
2, 259968, Note_on_c, 0, 55, 96
2, 259992, Note_on_c, 0, 74, 0
2, 260120, Note_on_c, 0, 55, 0
2, 260132, Note_on_c, 0, 58, 83
2, 260136, Note_on_c, 0, 74, 97
2, 260156, Note_on_c, 0, 75, 0
2, 260284, Note_on_c, 0, 74, 0
2, 260294, Note_on_c, 0, 62, 93
2, 260294, Note_on_c, 0, 75, 80
2, 260380, Note_on_c, 0, 58, 0
2, 260430, Note_on_c, 0, 62, 0
2, 260448, Note_on_c, 0, 67, 101
2, 260452, Note_on_c, 0, 75, 0
2, 260452, Note_on_c, 0, 74, 86
2, 260610, Note_on_c, 0, 70, 83
2, 260610, Note_on_c, 0, 75, 85
2, 260634, Note_on_c, 0, 74, 0
2, 260648, Note_on_c, 0, 67, 0
2, 260768, Note_on_c, 0, 70, 0
2, 260773, Note_on_c, 0, 74, 96
2, 260773, Note_on_c, 0, 62, 87
2, 260790, Note_on_c, 0, 75, 0
2, 260894, Note_on_c, 0, 62, 0
2, 260916, Note_on_c, 0, 75, 62
2, 260918, Note_on_c, 0, 69, 81
2, 260934, Note_on_c, 0, 74, 0
2, 261026, Note_on_c, 0, 69, 0
2, 261058, Note_on_c, 0, 58, 71
2, 261068, Note_on_c, 0, 74, 70
2, 261082, Note_on_c, 0, 75, 0
2, 261206, Note_on_c, 0, 75, 63
2, 261214, Note_on_c, 0, 67, 81
2, 261220, Note_on_c, 0, 74, 0
2, 261252, Note_on_c, 0, 58, 0
2, 261316, Note_on_c, 0, 67, 0
2, 261350, Note_on_c, 0, 75, 0
2, 261366, Note_on_c, 0, 57, 75
2, 261374, Note_on_c, 0, 74, 75
2, 261496, Note_on_c, 0, 70, 2
2, 261528, Note_on_c, 0, 66, 69
2, 261534, Note_on_c, 0, 75, 65
2, 261552, Note_on_c, 0, 74, 0
2, 261554, Note_on_c, 0, 57, 0
2, 261652, Note_on_c, 0, 66, 0
2, 261678, Note_on_c, 0, 74, 58
2, 261682, Note_on_c, 0, 58, 54
2, 261698, Note_on_c, 0, 75, 0
2, 261826, Note_on_c, 0, 67, 67
2, 261829, Note_on_c, 0, 74, 0
2, 261838, Note_on_c, 0, 75, 57
2, 261850, Note_on_c, 0, 58, 0
2, 261902, Note_on_c, 0, 67, 0
2, 261984, Note_on_c, 0, 75, 0
2, 261990, Note_on_c, 0, 57, 49
2, 262000, Note_on_c, 0, 74, 72
2, 262054, Note_on_c, 0, 57, 0
2, 262116, Note_on_c, 0, 74, 0
2, 262134, Note_on_c, 0, 62, 51
2, 262144, Note_on_c, 0, 75, 62
2, 262270, Note_on_c, 0, 75, 0
2, 262280, Note_on_c, 0, 55, 58
2, 262288, Note_on_c, 0, 74, 63
2, 262324, Note_on_c, 0, 62, 0
2, 262408, Control_c, 0, 64, 0
2, 262428, Note_on_c, 0, 75, 55
2, 262440, Note_on_c, 0, 74, 0
2, 262440, Note_on_c, 0, 58, 63
2, 262492, Note_on_c, 0, 55, 0
2, 262530, Control_c, 0, 64, 127
2, 262586, Note_on_c, 0, 74, 42
2, 262588, Note_on_c, 0, 58, 0
2, 262592, Note_on_c, 0, 75, 0
2, 262600, Note_on_c, 0, 50, 44
2, 262676, Note_on_c, 0, 50, 0
2, 262740, Note_on_c, 0, 75, 52
2, 262743, Note_on_c, 0, 74, 0
2, 262746, Note_on_c, 0, 57, 44
2, 262856, Note_on_c, 0, 57, 0
2, 262884, Note_on_c, 0, 75, 0
2, 262894, Note_on_c, 0, 46, 41
2, 262900, Note_on_c, 0, 74, 46
2, 263010, Note_on_c, 0, 74, 0
2, 263048, Note_on_c, 0, 75, 54
2, 263060, Note_on_c, 0, 55, 63
2, 263068, Note_on_c, 0, 46, 0
2, 263160, Note_on_c, 0, 55, 0
2, 263196, Note_on_c, 0, 75, 0
2, 263212, Note_on_c, 0, 45, 50
2, 263222, Control_c, 0, 64, 0
2, 263224, Note_on_c, 0, 74, 56
2, 263354, Note_on_c, 0, 54, 69
2, 263356, Note_on_c, 0, 75, 56
2, 263360, Control_c, 0, 64, 127
2, 263380, Note_on_c, 0, 74, 0
2, 263402, Note_on_c, 0, 45, 0
2, 263502, Note_on_c, 0, 54, 0
2, 263518, Note_on_c, 0, 74, 40
2, 263522, Note_on_c, 0, 75, 0
2, 263526, Note_on_c, 0, 46, 43
2, 263660, Note_on_c, 0, 55, 55
2, 263662, Note_on_c, 0, 46, 0
2, 263665, Note_on_c, 0, 74, 0
2, 263665, Note_on_c, 0, 75, 47
2, 263756, Note_on_c, 0, 55, 0
2, 263812, Note_on_c, 0, 75, 0
2, 263815, Note_on_c, 0, 45, 50
2, 263822, Note_on_c, 0, 74, 39
2, 263916, Note_on_c, 0, 45, 0
2, 263952, Note_on_c, 0, 74, 0
2, 263956, Note_on_c, 0, 50, 65
2, 263974, Note_on_c, 0, 75, 52
2, 264100, Note_on_c, 0, 75, 0
2, 264126, Note_on_c, 0, 74, 62
2, 264126, Note_on_c, 0, 43, 54
2, 264142, Note_on_c, 0, 50, 0
2, 264144, Control_c, 0, 64, 0
2, 264344, Control_c, 0, 64, 127
2, 264347, Note_on_c, 0, 46, 54
2, 264356, Note_on_c, 0, 75, 57
2, 264364, Note_on_c, 0, 74, 0
2, 264406, Note_on_c, 0, 43, 0
2, 264574, Note_on_c, 0, 75, 0
2, 264586, Note_on_c, 0, 38, 42
2, 264598, Note_on_c, 0, 46, 0
2, 264601, Note_on_c, 0, 74, 51
2, 264712, Control_c, 0, 64, 0
2, 264824, Note_on_c, 0, 45, 48
2, 264826, Note_on_c, 0, 75, 52
2, 264834, Control_c, 0, 64, 127
2, 264836, Note_on_c, 0, 74, 0
2, 264836, Note_on_c, 0, 38, 0
2, 265032, Note_on_c, 0, 75, 0
2, 265038, Note_on_c, 0, 45, 0
2, 265044, Note_on_c, 0, 34, 54
2, 265052, Note_on_c, 0, 74, 46
2, 265128, Control_c, 0, 64, 0
2, 265274, Note_on_c, 0, 75, 41
2, 265280, Control_c, 0, 64, 127
2, 265290, Note_on_c, 0, 74, 0
2, 265293, Note_on_c, 0, 43, 43
2, 265462, Note_on_c, 0, 43, 0
2, 265480, Note_on_c, 0, 75, 0
2, 265514, Note_on_c, 0, 34, 0
2, 265514, Note_on_c, 0, 33, 50
2, 265528, Note_on_c, 0, 74, 40
2, 265588, Control_c, 0, 64, 0
2, 265724, Note_on_c, 0, 42, 48
2, 265744, Note_on_c, 0, 75, 42
2, 265746, Note_on_c, 0, 74, 0
2, 265818, Control_c, 0, 64, 127
2, 265940, Note_on_c, 0, 33, 0
2, 265962, Note_on_c, 0, 75, 0
2, 265976, Note_on_c, 0, 34, 51
2, 265998, Note_on_c, 0, 42, 0
2, 266001, Note_on_c, 0, 74, 31
2, 266048, Control_c, 0, 64, 0
2, 266236, Note_on_c, 0, 43, 44
2, 266238, Note_on_c, 0, 74, 0
2, 266238, Note_on_c, 0, 75, 40
2, 266248, Control_c, 0, 64, 127
2, 266364, Note_on_c, 0, 43, 0
2, 266462, Note_on_c, 0, 75, 0
2, 266486, Note_on_c, 0, 33, 57
2, 266510, Control_c, 0, 64, 0
2, 266512, Note_on_c, 0, 74, 37
2, 266538, Note_on_c, 0, 34, 0
2, 266734, Note_on_c, 0, 74, 0
2, 266740, Control_c, 0, 64, 127
2, 266742, Note_on_c, 0, 38, 54
2, 266762, Note_on_c, 0, 75, 37
2, 266922, Note_on_c, 0, 33, 0
2, 267110, Note_on_c, 0, 75, 0
2, 267132, Note_on_c, 0, 38, 0
2, 267134, Note_on_c, 0, 34, 36
2, 267144, Note_on_c, 0, 31, 58
2, 267152, Note_on_c, 0, 74, 44
2, 267200, Control_c, 0, 64, 0
2, 267354, Control_c, 0, 64, 127
2, 267488, Note_on_c, 0, 75, 44
2, 267524, Note_on_c, 0, 74, 0
2, 267844, Note_on_c, 0, 75, 0
2, 267876, Note_on_c, 0, 74, 44
2, 267908, Control_c, 0, 64, 0
2, 268000, Control_c, 0, 64, 127
2, 268262, Control_c, 0, 64, 0
2, 268296, Note_on_c, 0, 75, 41
2, 268302, Note_on_c, 0, 74, 0
2, 268430, Control_c, 0, 64, 127
2, 268692, Note_on_c, 0, 75, 0
2, 268734, Note_on_c, 0, 74, 27
2, 268840, Note_on_c, 0, 34, 0
2, 268882, Note_on_c, 0, 31, 0
2, 269080, Note_on_c, 0, 74, 0
2, 269132, Note_on_c, 0, 75, 28
2, 269382, Note_on_c, 0, 75, 0
2, 269602, Note_on_c, 0, 34, 21
2, 269621, Note_on_c, 0, 31, 26
2, 269638, Note_on_c, 0, 74, 33
2, 270150, Note_on_c, 0, 75, 24
2, 270155, Note_on_c, 0, 74, 0
2, 270678, Note_on_c, 0, 75, 0
2, 270734, Note_on_c, 0, 74, 18
2, 271194, Note_on_c, 0, 74, 0
2, 271298, Note_on_c, 0, 75, 24
2, 271460, Note_on_c, 0, 31, 0
2, 271476, Note_on_c, 0, 34, 0
2, 271916, Note_on_c, 0, 75, 0
2, 272014, Note_on_c, 0, 34, 11
2, 272028, Note_on_c, 0, 31, 20
2, 272038, Note_on_c, 0, 74, 19
2, 273426, Note_on_c, 0, 74, 0
2, 273444, Note_on_c, 0, 70, 0
2, 273448, Note_on_c, 0, 31, 0
2, 273450, Note_on_c, 0, 79, 0
2, 273468, Note_on_c, 0, 34, 0
2, 274392, Control_c, 0, 64, 0
2, 274402, Note_on_c, 0, 86, 121
2, 274402, Note_on_c, 0, 78, 115
2, 274405, Note_on_c, 0, 74, 127
2, 274410, Note_on_c, 0, 81, 116
2, 274410, Note_on_c, 0, 50, 125
2, 274410, Note_on_c, 0, 38, 113
2, 274413, Note_on_c, 0, 45, 109
2, 274494, Note_on_c, 0, 38, 0
2, 274500, Note_on_c, 0, 74, 0
2, 274504, Note_on_c, 0, 50, 0
2, 274514, Note_on_c, 0, 86, 0
2, 274526, Note_on_c, 0, 45, 0
2, 274540, Control_c, 0, 64, 127
2, 274558, Note_on_c, 0, 78, 0
2, 274560, Note_on_c, 0, 81, 0
2, 274914, Control_c, 0, 64, 0
2, 275098, Note_on_c, 0, 79, 127
2, 275098, Note_on_c, 0, 70, 110
2, 275098, Note_on_c, 0, 74, 123
2, 275101, Note_on_c, 0, 67, 120
2, 275106, Note_on_c, 0, 43, 111
2, 275106, Note_on_c, 0, 55, 121
2, 275110, Note_on_c, 0, 50, 112
2, 275112, Note_on_c, 0, 46, 95
2, 275190, Control_c, 0, 64, 127
2, 276948, Note_on_c, 0, 50, 0
2, 276958, Note_on_c, 0, 46, 0
2, 276966, Note_on_c, 0, 74, 0
2, 276968, Note_on_c, 0, 43, 0
2, 276970, Note_on_c, 0, 70, 0
2, 276972, Note_on_c, 0, 55, 0
2, 276972, Note_on_c, 0, 67, 0
2, 276986, Note_on_c, 0, 79, 0
2, 277034, Control_c, 0, 64, 0
2, 278400, Control_c, 0, 64, 0
2, 278400, End_track
0, 0, End_of_file
