0, 0, Header, 0, 1, 480
1, 0, Start_track
1, 0, Sequencer_specific, 6, 67, 113, 0, 0, 0, 67
1, 0, Sequencer_specific, 39, 67, 113, 0, 1, 0, 1, 1, 83, 111, 110, 97, 116, 97, 32, 105, 110, 32, 70, 32, 77, 105, 110, 46, 73, 110, 110, 97, 32, 70, 97, 108, 105, 107, 115, 32, 32, 32, 32, 32
1, 0, Sequencer_specific, 5, 67, 123, 12, 2, 1
1, 0, Tempo, 512820
1, 0, Time_signature, 4, 2, 24, 8
1, 0, System_exclusive, 5, 126, 127, 9, 1, 247
1, 0, Text_t, "Sonata in F Minor, Opus 5 by Johannes Brahms"
1, 0, Text_t, "Performed May 26, 2004 by Inna Faliks"
1, 0, Text_t, "From a live recital at the Second International Piano-e-Competition"
1, 0, Instrument_name_t, "Yamaha Disklavier Pro concert grand piano, model DCFIIISAPRO"
1, 1, System_exclusive, 8, 67, 16, 76, 0, 0, 126, 0, 247
1, 2, System_exclusive, 6, 67, 113, 126, 10, 0, 247
1, 5, Control_c, 0, 0, 0
1, 6, Control_c, 0, 32, 0
1, 7, Program_c, 0, 0
1, 8, Control_c, 0, 7, 100
1, 10, Sequencer_specific, 7, 67, 113, 125, 0, 0, 0, 0
1, 10, System_exclusive, 5, 67, 113, 5, 1, 247
1, 10, Title_t, "Sonata in F Min.Inna Faliks"
1, 10, SMPTE_offset, 96, 0, 0, 0, 0
1, 1964, Control_c, 0, 64, 8
1, 2018, Control_c, 0, 64, 12
1, 2122, Control_c, 0, 64, 16
1, 2251, Control_c, 0, 64, 26
1, 2269, Control_c, 0, 64, 47
1, 2289, Control_c, 0, 64, 73
1, 2291, Note_on_c, 0, 41, 97
1, 2293, Note_on_c, 0, 29, 86
1, 2294, Note_on_c, 0, 53, 92
1, 2307, Control_c, 0, 64, 89
1, 2326, Control_c, 0, 64, 109
1, 2344, Control_c, 0, 64, 127
1, 2366, Note_on_c, 0, 41, 0
1, 2368, Note_on_c, 0, 29, 0
1, 2373, Note_on_c, 0, 53, 0
1, 3114, Note_on_c, 0, 80, 94
1, 3115, Note_on_c, 0, 60, 88
1, 3117, Note_on_c, 0, 65, 94
1, 3119, Note_on_c, 0, 72, 86
1, 3122, Note_on_c, 0, 68, 89
1, 3127, Note_on_c, 0, 53, 83
1, 3409, Note_on_c, 0, 72, 0
1, 3415, Note_on_c, 0, 68, 0
1, 3417, Note_on_c, 0, 53, 0
1, 3438, Note_on_c, 0, 80, 0
1, 3503, Note_on_c, 0, 65, 0
1, 3545, Note_on_c, 0, 60, 0
1, 3618, Note_on_c, 0, 79, 73
1, 3633, Note_on_c, 0, 55, 68
1, 3668, Note_on_c, 0, 56, 77
1, 3677, Note_on_c, 0, 55, 0
1, 3683, Note_on_c, 0, 77, 75
1, 3694, Note_on_c, 0, 79, 0
1, 3709, Note_on_c, 0, 77, 0
1, 3717, Note_on_c, 0, 56, 0
1, 3780, Note_on_c, 0, 67, 98
1, 3786, Note_on_c, 0, 73, 92
1, 3787, Note_on_c, 0, 58, 87
1, 3789, Note_on_c, 0, 79, 87
1, 3789, Note_on_c, 0, 85, 86
1, 3801, Note_on_c, 0, 61, 72
1, 3813, Note_on_c, 0, 82, 35
1, 3837, Note_on_c, 0, 57, 41
1, 3849, Note_on_c, 0, 82, 0
1, 3853, Control_c, 0, 64, 94
1, 3870, Control_c, 0, 64, 44
1, 3877, Note_on_c, 0, 57, 0
1, 3889, Control_c, 0, 64, 0
1, 4049, Control_c, 0, 64, 38
1, 4065, Control_c, 0, 64, 71
1, 4067, Note_on_c, 0, 85, 0
1, 4073, Note_on_c, 0, 67, 0
1, 4084, Control_c, 0, 64, 106
1, 4101, Control_c, 0, 64, 127
1, 4132, Note_on_c, 0, 58, 0
1, 4133, Note_on_c, 0, 79, 0
1, 4139, Note_on_c, 0, 73, 0
1, 4155, Note_on_c, 0, 61, 0
1, 4650, Note_on_c, 0, 52, 93
1, 4651, Note_on_c, 0, 40, 99
1, 4653, Note_on_c, 0, 28, 94
1, 4678, Control_c, 0, 64, 75
1, 4696, Control_c, 0, 64, 0
1, 4756, Note_on_c, 0, 28, 0
1, 4771, Control_c, 0, 64, 51
1, 4784, Note_on_c, 0, 40, 0
1, 4789, Control_c, 0, 64, 103
1, 4806, Control_c, 0, 64, 127
1, 4813, Note_on_c, 0, 52, 0
1, 5492, Note_on_c, 0, 85, 98
1, 5502, Note_on_c, 0, 73, 89
1, 5502, Note_on_c, 0, 67, 90
1, 5503, Note_on_c, 0, 58, 85
1, 5503, Note_on_c, 0, 64, 88
1, 5504, Note_on_c, 0, 79, 83
1, 5810, Note_on_c, 0, 58, 0
1, 5835, Note_on_c, 0, 73, 0
1, 5851, Note_on_c, 0, 85, 0
1, 5900, Note_on_c, 0, 79, 0
1, 5971, Note_on_c, 0, 67, 0
1, 5981, Note_on_c, 0, 64, 0
1, 6021, Note_on_c, 0, 84, 71
1, 6023, Note_on_c, 0, 60, 63
1, 6064, Note_on_c, 0, 61, 68
1, 6085, Note_on_c, 0, 60, 0
1, 6090, Note_on_c, 0, 82, 81
1, 6095, Note_on_c, 0, 61, 0
1, 6115, Note_on_c, 0, 84, 0
1, 6138, Note_on_c, 0, 82, 0
1, 6178, Note_on_c, 0, 69, 96
1, 6181, Note_on_c, 0, 66, 90
1, 6191, Note_on_c, 0, 78, 105
1, 6191, Note_on_c, 0, 60, 81
1, 6194, Note_on_c, 0, 90, 98
1, 6201, Note_on_c, 0, 84, 89
1, 6271, Control_c, 0, 64, 107
1, 6290, Control_c, 0, 64, 56
1, 6308, Control_c, 0, 64, 0
1, 6387, Poly_aftertouch_c, 0, 87, 0
1, 6419, Control_c, 0, 64, 31
1, 6438, Control_c, 0, 64, 76
1, 6447, Note_on_c, 0, 69, 0
1, 6455, Control_c, 0, 64, 127
1, 6468, Note_on_c, 0, 90, 0
1, 6469, Note_on_c, 0, 60, 0
1, 6524, Note_on_c, 0, 84, 0
1, 6536, Note_on_c, 0, 66, 0
1, 6541, Note_on_c, 0, 78, 0
1, 7037, Note_on_c, 0, 51, 94
1, 7043, Note_on_c, 0, 39, 103
1, 7044, Note_on_c, 0, 27, 98
1, 7057, Control_c, 0, 64, 85
1, 7077, Control_c, 0, 64, 0
1, 7144, Note_on_c, 0, 39, 0
1, 7146, Note_on_c, 0, 27, 0
1, 7151, Control_c, 0, 64, 36
1, 7170, Control_c, 0, 64, 93
1, 7187, Control_c, 0, 64, 127
1, 7192, Note_on_c, 0, 51, 0
1, 7917, Note_on_c, 0, 90, 99
1, 7922, Note_on_c, 0, 63, 88
1, 7923, Note_on_c, 0, 72, 96
1, 7924, Note_on_c, 0, 78, 95
1, 7929, Note_on_c, 0, 69, 90
1, 7929, Note_on_c, 0, 84, 88
1, 8203, Note_on_c, 0, 63, 0
1, 8270, Note_on_c, 0, 90, 0
1, 8299, Note_on_c, 0, 78, 0
1, 8332, Note_on_c, 0, 72, 0
1, 8341, Note_on_c, 0, 84, 0
1, 8437, Note_on_c, 0, 69, 0
1, 8460, Note_on_c, 0, 65, 68
1, 8480, Note_on_c, 0, 89, 69
1, 8519, Note_on_c, 0, 66, 76
1, 8538, Note_on_c, 0, 87, 86
1, 8545, Note_on_c, 0, 65, 0
1, 8550, Note_on_c, 0, 66, 0
1, 8576, Note_on_c, 0, 89, 0
1, 8591, Note_on_c, 0, 87, 0
1, 8657, Note_on_c, 0, 94, 100
1, 8659, Note_on_c, 0, 82, 103
1, 8662, Note_on_c, 0, 77, 99
1, 8664, Note_on_c, 0, 89, 91
1, 8668, Note_on_c, 0, 70, 88
1, 8669, Note_on_c, 0, 65, 84
1, 8713, Note_on_c, 0, 90, 7
1, 8728, Control_c, 0, 64, 90
1, 8741, Note_on_c, 0, 90, 0
1, 8742, Control_c, 0, 64, 0
1, 8838, Control_c, 0, 64, 32
1, 8855, Control_c, 0, 64, 86
1, 8874, Control_c, 0, 64, 127
1, 8886, Note_on_c, 0, 77, 0
1, 8901, Note_on_c, 0, 65, 0
1, 8913, Note_on_c, 0, 94, 0
1, 8963, Note_on_c, 0, 89, 0
1, 8971, Note_on_c, 0, 70, 0
1, 8975, Note_on_c, 0, 82, 0
1, 9471, Note_on_c, 0, 50, 97
1, 9473, Note_on_c, 0, 38, 101
1, 9475, Note_on_c, 0, 26, 90
1, 9503, Control_c, 0, 64, 113
1, 9523, Control_c, 0, 64, 55
1, 9550, Control_c, 0, 64, 0
1, 9615, Note_on_c, 0, 26, 0
1, 9617, Poly_aftertouch_c, 0, 33, 0
1, 9625, Control_c, 0, 64, 62
1, 9643, Control_c, 0, 64, 106
1, 9651, Note_on_c, 0, 50, 0
1, 9660, Note_on_c, 0, 38, 0
1, 9661, Control_c, 0, 64, 127
1, 10383, Note_on_c, 0, 101, 98
1, 10384, Note_on_c, 0, 89, 109
1, 10384, Note_on_c, 0, 77, 105
1, 10388, Note_on_c, 0, 94, 102
1, 10391, Note_on_c, 0, 65, 87
1, 10392, Note_on_c, 0, 70, 92
1, 10437, Note_on_c, 0, 65, 0
1, 10460, Note_on_c, 0, 77, 0
1, 10485, Note_on_c, 0, 70, 0
1, 10530, Note_on_c, 0, 101, 0
1, 10571, Note_on_c, 0, 89, 0
1, 10609, Note_on_c, 0, 94, 0
1, 11235, Note_on_c, 0, 49, 101
1, 11236, Note_on_c, 0, 37, 103
1, 11241, Note_on_c, 0, 25, 101
1, 11310, Note_on_c, 0, 52, 27
1, 11318, Note_on_c, 0, 24, 17
1, 11377, Note_on_c, 0, 24, 0
1, 11380, Note_on_c, 0, 52, 0
1, 11380, Poly_aftertouch_c, 0, 27, 0
1, 11388, Note_on_c, 0, 25, 0
1, 11431, Note_on_c, 0, 49, 0
1, 11456, Poly_aftertouch_c, 0, 51, 0
1, 11681, Note_on_c, 0, 37, 0
1, 11750, Note_on_c, 0, 24, 91
1, 11773, Control_c, 0, 64, 99
1, 11792, Control_c, 0, 64, 28
1, 11809, Control_c, 0, 64, 0
1, 11866, Control_c, 0, 64, 45
1, 11885, Control_c, 0, 64, 93
1, 11891, Note_on_c, 0, 36, 105
1, 11897, Note_on_c, 0, 31, 50
1, 11904, Control_c, 0, 64, 127
1, 11910, Note_on_c, 0, 24, 0
1, 11941, Note_on_c, 0, 31, 0
1, 11968, Note_on_c, 0, 36, 0
1, 12522, Note_on_c, 0, 101, 92
1, 12526, Note_on_c, 0, 92, 96
1, 12528, Note_on_c, 0, 89, 105
1, 12530, Note_on_c, 0, 72, 94
1, 12531, Note_on_c, 0, 77, 108
1, 12535, Note_on_c, 0, 96, 92
1, 12536, Note_on_c, 0, 65, 86
1, 12537, Note_on_c, 0, 68, 90
1, 13366, Note_on_c, 0, 101, 0
1, 13377, Note_on_c, 0, 65, 0
1, 13408, Note_on_c, 0, 68, 0
1, 13542, Poly_aftertouch_c, 0, 77, 24
1, 13669, Note_on_c, 0, 77, 0
1, 13669, Poly_aftertouch_c, 0, 77, 0
1, 13712, Note_on_c, 0, 72, 0
1, 13802, Note_on_c, 0, 92, 0
1, 13832, Note_on_c, 0, 96, 0
1, 13840, Poly_aftertouch_c, 0, 89, 24
1, 13882, Note_on_c, 0, 89, 0
1, 13882, Poly_aftertouch_c, 0, 89, 0
1, 14110, Note_on_c, 0, 100, 96
1, 14117, Note_on_c, 0, 67, 76
1, 14118, Note_on_c, 0, 76, 97
1, 14119, Note_on_c, 0, 88, 93
1, 14119, Note_on_c, 0, 72, 84
1, 14122, Note_on_c, 0, 91, 92
1, 14122, Note_on_c, 0, 64, 82
1, 14125, Note_on_c, 0, 96, 85
1, 14228, Note_on_c, 0, 67, 0
1, 14259, Note_on_c, 0, 64, 0
1, 14278, Note_on_c, 0, 91, 0
1, 14294, Note_on_c, 0, 100, 0
1, 14345, Note_on_c, 0, 88, 0
1, 14380, Note_on_c, 0, 76, 0
1, 14419, Note_on_c, 0, 96, 0
1, 14419, Note_on_c, 0, 72, 0
1, 14474, Note_on_c, 0, 72, 72
1, 14482, Note_on_c, 0, 65, 79
1, 14484, Note_on_c, 0, 98, 97
1, 14485, Note_on_c, 0, 89, 98
1, 14485, Note_on_c, 0, 86, 101
1, 14486, Note_on_c, 0, 74, 98
1, 14495, Note_on_c, 0, 96, 74
1, 14498, Note_on_c, 0, 62, 77
1, 14575, Note_on_c, 0, 65, 0
1, 14592, Note_on_c, 0, 62, 0
1, 14613, Note_on_c, 0, 74, 0
1, 14629, Note_on_c, 0, 96, 0
1, 14639, Poly_aftertouch_c, 0, 67, 0
1, 14646, Note_on_c, 0, 72, 0
1, 14662, Note_on_c, 0, 89, 0
1, 14688, Note_on_c, 0, 86, 0
1, 14714, Note_on_c, 0, 98, 0
1, 14724, Note_on_c, 0, 60, 81
1, 14744, Note_on_c, 0, 64, 48
1, 14746, Control_c, 0, 64, 111
1, 14765, Control_c, 0, 64, 68
1, 14785, Control_c, 0, 64, 17
1, 14802, Control_c, 0, 64, 0
1, 14829, Note_on_c, 0, 67, 70
1, 14871, Note_on_c, 0, 60, 0
1, 14894, Control_c, 0, 64, 37
1, 14898, Note_on_c, 0, 72, 76
1, 14912, Control_c, 0, 64, 72
1, 14934, Control_c, 0, 64, 114
1, 14939, Note_on_c, 0, 100, 96
1, 14941, Note_on_c, 0, 88, 103
1, 14943, Note_on_c, 0, 91, 97
1, 14945, Note_on_c, 0, 96, 91
1, 14951, Control_c, 0, 64, 127
1, 14952, Note_on_c, 0, 76, 111
1, 14966, Note_on_c, 0, 64, 0
1, 15013, Note_on_c, 0, 100, 0
1, 15024, Note_on_c, 0, 76, 0
1, 15024, Note_on_c, 0, 88, 0
1, 15038, Note_on_c, 0, 67, 0
1, 15046, Note_on_c, 0, 72, 0
1, 15047, Note_on_c, 0, 96, 0
1, 15063, Note_on_c, 0, 91, 0
1, 15080, Poly_aftertouch_c, 0, 73, 0
1, 15258, Control_c, 0, 67, 23
1, 15275, Control_c, 0, 67, 53
1, 15293, Control_c, 0, 67, 62
1, 15388, Control_c, 0, 64, 111
1, 15405, Control_c, 0, 64, 88
1, 15424, Control_c, 0, 64, 66
1, 15443, Control_c, 0, 64, 51
1, 15461, Control_c, 0, 64, 47
1, 15477, Control_c, 0, 64, 43
1, 15496, Control_c, 0, 64, 36
1, 15499, Control_c, 0, 67, 57
1, 15515, Control_c, 0, 64, 25
1, 15535, Control_c, 0, 64, 19
1, 15571, Control_c, 0, 64, 15
1, 15588, Control_c, 0, 67, 52
1, 15593, Note_on_c, 0, 48, 70
1, 15654, Note_on_c, 0, 55, 70
1, 15663, Control_c, 0, 64, 20
1, 15682, Control_c, 0, 64, 35
1, 15683, Control_c, 0, 67, 45
1, 15692, Note_on_c, 0, 48, 0
1, 15700, Control_c, 0, 64, 52
1, 15701, Control_c, 0, 67, 37
1, 15718, Control_c, 0, 64, 78
1, 15719, Control_c, 0, 67, 27
1, 15724, Note_on_c, 0, 60, 70
1, 15739, Control_c, 0, 64, 106
1, 15741, Control_c, 0, 67, 15
1, 15756, Control_c, 0, 64, 127
1, 15764, Note_on_c, 0, 64, 103
1, 15769, Note_on_c, 0, 72, 96
1, 15771, Note_on_c, 0, 84, 90
1, 15777, Note_on_c, 0, 79, 84
1, 15778, Note_on_c, 0, 76, 86
1, 15812, Control_c, 0, 67, 0
1, 15833, Note_on_c, 0, 72, 0
1, 15835, Note_on_c, 0, 64, 0
1, 15839, Note_on_c, 0, 84, 0
1, 15840, Note_on_c, 0, 55, 0
1, 15850, Note_on_c, 0, 60, 0
1, 15857, Note_on_c, 0, 79, 0
1, 15865, Note_on_c, 0, 76, 0
1, 15873, Poly_aftertouch_c, 0, 61, 0
1, 16654, Control_c, 0, 64, 121
1, 16674, Control_c, 0, 64, 114
1, 16692, Control_c, 0, 64, 106
1, 16712, Control_c, 0, 64, 98
1, 16729, Control_c, 0, 64, 91
1, 16749, Control_c, 0, 64, 86
1, 16766, Control_c, 0, 64, 78
1, 16784, Control_c, 0, 64, 70
1, 16802, Control_c, 0, 64, 64
1, 16822, Control_c, 0, 64, 58
1, 16840, Control_c, 0, 64, 55
1, 16859, Control_c, 0, 64, 53
1, 16878, Control_c, 0, 64, 50
1, 16896, Control_c, 0, 64, 47
1, 16988, Control_c, 0, 64, 45
1, 17026, Control_c, 0, 67, 8
1, 17146, Control_c, 0, 64, 43
1, 17219, Control_c, 0, 67, 12
1, 17277, Control_c, 0, 67, 17
1, 17314, Control_c, 0, 67, 21
1, 17367, Control_c, 0, 67, 27
1, 17406, Control_c, 0, 67, 33
1, 17443, Control_c, 0, 67, 38
1, 17480, Control_c, 0, 67, 44
1, 17517, Control_c, 0, 67, 50
1, 17553, Control_c, 0, 67, 57
1, 17572, Control_c, 0, 64, 45
1, 17590, Control_c, 0, 67, 64
1, 17628, Control_c, 0, 67, 70
1, 17647, Control_c, 0, 64, 47
1, 17665, Control_c, 0, 67, 77
1, 17703, Control_c, 0, 64, 50
1, 17704, Control_c, 0, 67, 84
1, 17719, Control_c, 0, 67, 88
1, 17739, Control_c, 0, 64, 53
1, 17740, Control_c, 0, 67, 93
1, 17776, Control_c, 0, 64, 55
1, 17777, Control_c, 0, 67, 100
1, 17815, Control_c, 0, 64, 59
1, 17816, Control_c, 0, 67, 108
1, 17832, Control_c, 0, 64, 61
1, 17832, Control_c, 0, 67, 112
1, 17850, Control_c, 0, 64, 62
1, 17852, Control_c, 0, 67, 120
1, 17870, Control_c, 0, 64, 64
1, 17871, Control_c, 0, 67, 126
1, 17888, Control_c, 0, 64, 68
1, 17905, Control_c, 0, 64, 72
1, 17923, Control_c, 0, 64, 77
1, 17942, Control_c, 0, 64, 85
1, 17961, Control_c, 0, 64, 94
1, 17989, Control_c, 0, 64, 102
1, 18007, Control_c, 0, 64, 109
1, 18027, Control_c, 0, 64, 117
1, 18044, Control_c, 0, 64, 125
1, 18347, Note_on_c, 0, 63, 59
1, 18361, Note_on_c, 0, 55, 32
1, 18372, Note_on_c, 0, 60, 45
1, 18373, Note_on_c, 0, 43, 33
1, 18395, Note_on_c, 0, 36, 27
1, 18558, Note_on_c, 0, 36, 0
1, 18564, Note_on_c, 0, 43, 0
1, 18653, Note_on_c, 0, 43, 33
1, 18666, Note_on_c, 0, 36, 33
1, 18768, Note_on_c, 0, 36, 0
1, 18816, Note_on_c, 0, 43, 0
1, 18896, Note_on_c, 0, 43, 41
1, 18920, Note_on_c, 0, 60, 0
1, 18920, Note_on_c, 0, 36, 42
1, 18939, Note_on_c, 0, 55, 0
1, 18999, Note_on_c, 0, 36, 0
1, 19038, Note_on_c, 0, 63, 0
1, 19046, Note_on_c, 0, 43, 0
1, 19191, Note_on_c, 0, 43, 45
1, 19192, Note_on_c, 0, 62, 56
1, 19200, Note_on_c, 0, 36, 33
1, 19208, Note_on_c, 0, 53, 35
1, 19220, Note_on_c, 0, 60, 39
1, 19277, Control_c, 0, 64, 105
1, 19295, Control_c, 0, 64, 77
1, 19313, Control_c, 0, 64, 62
1, 19333, Control_c, 0, 64, 66
1, 19351, Control_c, 0, 64, 71
1, 19370, Control_c, 0, 64, 77
1, 19373, Note_on_c, 0, 53, 0
1, 19380, Note_on_c, 0, 60, 0
1, 19389, Control_c, 0, 64, 91
1, 19405, Control_c, 0, 64, 109
1, 19424, Control_c, 0, 64, 127
1, 19447, Note_on_c, 0, 62, 0
1, 19537, Control_c, 0, 67, 121
1, 19556, Control_c, 0, 67, 117
1, 19573, Control_c, 0, 67, 113
1, 19590, Control_c, 0, 67, 109
1, 19595, Note_on_c, 0, 60, 66
1, 19608, Control_c, 0, 67, 104
1, 19617, Note_on_c, 0, 51, 42
1, 19628, Control_c, 0, 67, 99
1, 19646, Control_c, 0, 67, 94
1, 19666, Control_c, 0, 67, 88
1, 19684, Control_c, 0, 67, 82
1, 19704, Control_c, 0, 67, 75
1, 19721, Control_c, 0, 67, 66
1, 19741, Control_c, 0, 67, 56
1, 19751, Note_on_c, 0, 36, 0
1, 19760, Note_on_c, 0, 51, 0
1, 19760, Control_c, 0, 67, 47
1, 19769, Control_c, 0, 67, 38
1, 19782, Note_on_c, 0, 60, 0
1, 19782, Note_on_c, 0, 43, 0
1, 19788, Control_c, 0, 67, 31
1, 19806, Control_c, 0, 67, 25
1, 19825, Control_c, 0, 67, 20
1, 19855, Control_c, 0, 67, 15
1, 19872, Control_c, 0, 67, 11
1, 20047, Note_on_c, 0, 53, 40
1, 20047, Note_on_c, 0, 43, 31
1, 20048, Note_on_c, 0, 62, 56
1, 20051, Note_on_c, 0, 36, 31
1, 20058, Note_on_c, 0, 60, 42
1, 20094, Control_c, 0, 64, 98
1, 20113, Control_c, 0, 64, 63
1, 20132, Control_c, 0, 64, 29
1, 20149, Control_c, 0, 67, 0
1, 20168, Note_on_c, 0, 36, 0
1, 20182, Note_on_c, 0, 43, 0
1, 20185, Control_c, 0, 64, 40
1, 20205, Control_c, 0, 64, 54
1, 20223, Control_c, 0, 64, 73
1, 20242, Control_c, 0, 64, 89
1, 20261, Control_c, 0, 64, 109
1, 20280, Control_c, 0, 64, 124
1, 20312, Note_on_c, 0, 43, 41
1, 20317, Note_on_c, 0, 36, 37
1, 20395, Note_on_c, 0, 43, 0
1, 20397, Note_on_c, 0, 36, 0
1, 20444, Note_on_c, 0, 53, 0
1, 20449, Note_on_c, 0, 60, 0
1, 20502, Note_on_c, 0, 62, 0
1, 20544, Note_on_c, 0, 36, 57
1, 20545, Note_on_c, 0, 43, 55
1, 20651, Note_on_c, 0, 43, 0
1, 20691, Note_on_c, 0, 36, 0
1, 20875, Note_on_c, 0, 36, 41
1, 20888, Note_on_c, 0, 43, 42
1, 20899, Note_on_c, 0, 65, 73
1, 20920, Note_on_c, 0, 56, 43
1, 20923, Note_on_c, 0, 60, 56
1, 21029, Control_c, 0, 64, 117
1, 21050, Control_c, 0, 64, 87
1, 21067, Control_c, 0, 64, 53
1, 21085, Control_c, 0, 64, 22
1, 21140, Control_c, 0, 64, 34
1, 21160, Control_c, 0, 64, 47
1, 21177, Control_c, 0, 64, 70
1, 21197, Control_c, 0, 64, 90
1, 21214, Control_c, 0, 64, 114
1, 21232, Control_c, 0, 64, 127
1, 21278, Note_on_c, 0, 36, 0
1, 21297, Note_on_c, 0, 43, 0
1, 21444, Note_on_c, 0, 60, 0
1, 21456, Note_on_c, 0, 65, 0
1, 21478, Note_on_c, 0, 56, 0
1, 21683, Note_on_c, 0, 63, 58
1, 21688, Note_on_c, 0, 55, 45
1, 21688, Note_on_c, 0, 60, 45
1, 21688, Note_on_c, 0, 36, 35
1, 21689, Note_on_c, 0, 43, 40
1, 21711, Control_c, 0, 64, 110
1, 21724, Control_c, 0, 64, 79
1, 21743, Control_c, 0, 64, 46
1, 21762, Control_c, 0, 64, 34
1, 21797, Control_c, 0, 64, 46
1, 21811, Note_on_c, 0, 43, 0
1, 21815, Control_c, 0, 64, 57
1, 21836, Control_c, 0, 64, 73
1, 21839, Note_on_c, 0, 36, 0
1, 21853, Control_c, 0, 64, 89
1, 21872, Control_c, 0, 64, 110
1, 21891, Control_c, 0, 64, 125
1, 21909, Note_on_c, 0, 55, 0
1, 21935, Note_on_c, 0, 43, 38
1, 21939, Note_on_c, 0, 36, 35
1, 21947, Note_on_c, 0, 60, 0
1, 21963, Note_on_c, 0, 63, 0
1, 22076, Note_on_c, 0, 62, 72
1, 22082, Note_on_c, 0, 36, 0
1, 22089, Note_on_c, 0, 53, 48
1, 22093, Note_on_c, 0, 60, 49
1, 22105, Note_on_c, 0, 43, 0
1, 22153, Note_on_c, 0, 43, 40
1, 22164, Note_on_c, 0, 36, 38
1, 22180, Note_on_c, 0, 60, 0
1, 22223, Note_on_c, 0, 53, 0
1, 22270, Note_on_c, 0, 62, 0
1, 22281, Note_on_c, 0, 36, 0
1, 22327, Note_on_c, 0, 43, 0
1, 22589, Note_on_c, 0, 63, 58
1, 22606, Note_on_c, 0, 43, 33
1, 22608, Note_on_c, 0, 60, 52
1, 22609, Note_on_c, 0, 55, 43
1, 22610, Note_on_c, 0, 36, 31
1, 22716, Control_c, 0, 64, 104
1, 22735, Control_c, 0, 64, 71
1, 22754, Control_c, 0, 64, 29
1, 22770, Control_c, 0, 64, 0
1, 22864, Control_c, 0, 64, 16
1, 22882, Control_c, 0, 64, 40
1, 22900, Control_c, 0, 64, 63
1, 22917, Control_c, 0, 64, 83
1, 22937, Control_c, 0, 64, 101
1, 22956, Control_c, 0, 64, 115
1, 22974, Control_c, 0, 64, 123
1, 22993, Control_c, 0, 64, 127
1, 23058, Note_on_c, 0, 36, 0
1, 23082, Note_on_c, 0, 55, 0
1, 23098, Note_on_c, 0, 43, 0
1, 23138, Note_on_c, 0, 60, 0
1, 23296, Note_on_c, 0, 63, 0
1, 23433, Note_on_c, 0, 43, 34
1, 23440, Note_on_c, 0, 67, 61
1, 23448, Note_on_c, 0, 36, 36
1, 23464, Note_on_c, 0, 58, 41
1, 23467, Note_on_c, 0, 60, 51
1, 23473, Control_c, 0, 64, 119
1, 23492, Control_c, 0, 64, 88
1, 23511, Control_c, 0, 64, 55
1, 23530, Control_c, 0, 64, 38
1, 23548, Control_c, 0, 64, 41
1, 23568, Control_c, 0, 64, 50
1, 23595, Control_c, 0, 64, 61
1, 23614, Control_c, 0, 64, 75
1, 23632, Control_c, 0, 64, 94
1, 23649, Control_c, 0, 64, 119
1, 23667, Control_c, 0, 64, 127
1, 23685, Note_on_c, 0, 67, 0
1, 23691, Note_on_c, 0, 58, 0
1, 23693, Note_on_c, 0, 43, 0
1, 23693, Note_on_c, 0, 43, 34
1, 23702, Note_on_c, 0, 36, 0
1, 23702, Note_on_c, 0, 36, 26
1, 23806, Note_on_c, 0, 43, 0
1, 23807, Note_on_c, 0, 60, 0
1, 23807, Note_on_c, 0, 60, 55
1, 23808, Note_on_c, 0, 36, 0
1, 23811, Note_on_c, 0, 65, 73
1, 23822, Note_on_c, 0, 56, 57
1, 23930, Note_on_c, 0, 43, 62
1, 23933, Note_on_c, 0, 60, 0
1, 23934, Note_on_c, 0, 36, 54
1, 24038, Note_on_c, 0, 43, 0
1, 24044, Note_on_c, 0, 36, 0
1, 24053, Note_on_c, 0, 56, 0
1, 24391, Note_on_c, 0, 68, 72
1, 24396, Note_on_c, 0, 60, 53
1, 24403, Note_on_c, 0, 43, 37
1, 24406, Note_on_c, 0, 36, 37
1, 24485, Note_on_c, 0, 65, 0
1, 24531, Control_c, 0, 64, 110
1, 24550, Control_c, 0, 64, 75
1, 24568, Control_c, 0, 64, 32
1, 24585, Control_c, 0, 64, 0
1, 24660, Control_c, 0, 64, 13
1, 24678, Control_c, 0, 64, 36
1, 24698, Control_c, 0, 64, 62
1, 24717, Control_c, 0, 64, 86
1, 24735, Control_c, 0, 64, 106
1, 24755, Control_c, 0, 64, 121
1, 24771, Control_c, 0, 64, 127
1, 24799, Note_on_c, 0, 36, 0
1, 24808, Note_on_c, 0, 43, 0
1, 24845, Control_c, 0, 67, 8
1, 24919, Control_c, 0, 67, 13
1, 24950, Note_on_c, 0, 68, 0
1, 24993, Control_c, 0, 67, 18
1, 25035, Note_on_c, 0, 60, 0
1, 25068, Control_c, 0, 67, 22
1, 25160, Control_c, 0, 67, 26
1, 25179, Control_c, 0, 64, 116
1, 25193, Note_on_c, 0, 67, 55
1, 25196, Note_on_c, 0, 36, 33
1, 25197, Control_c, 0, 64, 81
1, 25198, Note_on_c, 0, 43, 32
1, 25198, Control_c, 0, 67, 33
1, 25207, Note_on_c, 0, 60, 34
1, 25209, Note_on_c, 0, 58, 45
1, 25216, Control_c, 0, 64, 51
1, 25236, Control_c, 0, 67, 38
1, 25253, Control_c, 0, 64, 61
1, 25272, Control_c, 0, 64, 72
1, 25293, Control_c, 0, 64, 89
1, 25295, Control_c, 0, 67, 44
1, 25310, Control_c, 0, 64, 117
1, 25326, Note_on_c, 0, 36, 0
1, 25326, Note_on_c, 0, 43, 0
1, 25326, Control_c, 0, 64, 127
1, 25344, Control_c, 0, 67, 48
1, 25379, Note_on_c, 0, 58, 0
1, 25419, Control_c, 0, 64, 121
1, 25426, Note_on_c, 0, 43, 43
1, 25429, Note_on_c, 0, 36, 38
1, 25439, Control_c, 0, 64, 88
1, 25467, Control_c, 0, 64, 57
1, 25486, Control_c, 0, 64, 55
1, 25504, Control_c, 0, 64, 65
1, 25520, Control_c, 0, 64, 74
1, 25524, Note_on_c, 0, 67, 0
1, 25534, Note_on_c, 0, 36, 0
1, 25535, Note_on_c, 0, 43, 0
1, 25540, Control_c, 0, 64, 91
1, 25543, Control_c, 0, 67, 52
1, 25547, Note_on_c, 0, 60, 0
1, 25547, Note_on_c, 0, 60, 31
1, 25558, Control_c, 0, 64, 117
1, 25560, Note_on_c, 0, 56, 52
1, 25563, Note_on_c, 0, 65, 60
1, 25577, Control_c, 0, 64, 127
1, 25650, Note_on_c, 0, 43, 49
1, 25655, Note_on_c, 0, 36, 40
1, 25682, Note_on_c, 0, 60, 0
1, 25750, Note_on_c, 0, 36, 0
1, 25758, Note_on_c, 0, 43, 0
1, 25772, Note_on_c, 0, 56, 0
1, 25789, Note_on_c, 0, 65, 0
1, 25933, Note_on_c, 0, 43, 49
1, 25934, Note_on_c, 0, 63, 60
1, 25947, Control_c, 0, 64, 116
1, 25947, Note_on_c, 0, 55, 49
1, 25947, Note_on_c, 0, 36, 43
1, 25966, Control_c, 0, 64, 76
1, 25985, Note_on_c, 0, 60, 34
1, 25986, Control_c, 0, 64, 30
1, 26004, Control_c, 0, 64, 19
1, 26022, Control_c, 0, 64, 29
1, 26042, Control_c, 0, 64, 43
1, 26059, Control_c, 0, 64, 63
1, 26068, Note_on_c, 0, 63, 0
1, 26077, Control_c, 0, 64, 85
1, 26095, Control_c, 0, 64, 105
1, 26114, Control_c, 0, 64, 119
1, 26127, Note_on_c, 0, 55, 0
1, 26132, Control_c, 0, 64, 124
1, 26191, Note_on_c, 0, 60, 0
1, 26334, Note_on_c, 0, 53, 52
1, 26337, Note_on_c, 0, 62, 66
1, 26337, Note_on_c, 0, 60, 50
1, 26355, Control_c, 0, 67, 57
1, 26402, Control_c, 0, 67, 62
1, 26419, Note_on_c, 0, 62, 0
1, 26419, Note_on_c, 0, 60, 0
1, 26457, Control_c, 0, 67, 66
1, 26460, Note_on_c, 0, 53, 0
1, 26494, Control_c, 0, 67, 71
1, 26529, Note_on_c, 0, 36, 0
1, 26531, Control_c, 0, 67, 78
1, 26550, Control_c, 0, 67, 82
1, 26556, Note_on_c, 0, 43, 0
1, 26569, Control_c, 0, 67, 86
1, 26587, Control_c, 0, 67, 90
1, 26606, Control_c, 0, 67, 95
1, 26625, Control_c, 0, 67, 99
1, 26660, Control_c, 0, 67, 109
1, 26679, Control_c, 0, 67, 116
1, 26735, Control_c, 0, 67, 123
1, 26754, Control_c, 0, 67, 127
1, 26826, Note_on_c, 0, 36, 30
1, 26828, Note_on_c, 0, 43, 33
1, 26833, Note_on_c, 0, 51, 47
1, 26834, Note_on_c, 0, 60, 58
1, 26883, Control_c, 0, 64, 103
1, 26903, Control_c, 0, 64, 78
1, 26918, Note_on_c, 0, 43, 0
1, 26920, Control_c, 0, 64, 51
1, 26924, Note_on_c, 0, 36, 0
1, 26939, Control_c, 0, 64, 34
1, 27050, Control_c, 0, 64, 30
1, 27080, Note_on_c, 0, 43, 47
1, 27082, Note_on_c, 0, 36, 44
1, 27165, Note_on_c, 0, 36, 0
1, 27171, Note_on_c, 0, 43, 0
1, 27333, Note_on_c, 0, 43, 49
1, 27349, Note_on_c, 0, 36, 38
1, 27434, Note_on_c, 0, 36, 0
1, 27449, Note_on_c, 0, 43, 0
1, 27504, Control_c, 0, 64, 26
1, 27542, Control_c, 0, 64, 20
1, 27560, Control_c, 0, 64, 15
1, 27578, Control_c, 0, 64, 11
1, 27639, Note_on_c, 0, 43, 35
1, 27648, Note_on_c, 0, 36, 36
1, 27690, Control_c, 0, 64, 19
1, 27709, Control_c, 0, 64, 30
1, 27727, Control_c, 0, 64, 41
1, 27745, Control_c, 0, 64, 57
1, 27763, Control_c, 0, 64, 75
1, 27781, Control_c, 0, 64, 87
1, 27800, Control_c, 0, 64, 100
1, 27819, Control_c, 0, 64, 111
1, 27837, Control_c, 0, 64, 119
1, 27857, Control_c, 0, 64, 124
1, 27869, Note_on_c, 0, 51, 0
1, 28068, Note_on_c, 0, 62, 48
1, 28084, Note_on_c, 0, 50, 34
1, 28151, Note_on_c, 0, 36, 0
1, 28299, Note_on_c, 0, 62, 0
1, 28306, Note_on_c, 0, 50, 0
1, 28319, Note_on_c, 0, 43, 0
1, 28574, Note_on_c, 0, 31, 40
1, 28576, Note_on_c, 0, 43, 38
1, 28596, Note_on_c, 0, 50, 39
1, 28598, Note_on_c, 0, 62, 48
1, 28601, Note_on_c, 0, 55, 24
1, 28605, Note_on_c, 0, 59, 48
1, 28605, Control_c, 0, 64, 114
1, 28625, Control_c, 0, 64, 96
1, 28644, Control_c, 0, 64, 75
1, 28663, Control_c, 0, 64, 53
1, 28676, Note_on_c, 0, 31, 0
1, 28681, Control_c, 0, 64, 40
1, 28688, Note_on_c, 0, 60, 0
1, 28694, Note_on_c, 0, 43, 0
1, 28754, Control_c, 0, 64, 35
1, 28829, Control_c, 0, 64, 31
1, 28840, Note_on_c, 0, 43, 51
1, 28850, Note_on_c, 0, 31, 42
1, 28902, Control_c, 0, 64, 27
1, 28920, Note_on_c, 0, 31, 0
1, 28925, Note_on_c, 0, 43, 0
1, 28997, Control_c, 0, 64, 23
1, 29079, Note_on_c, 0, 43, 52
1, 29087, Note_on_c, 0, 31, 39
1, 29125, Control_c, 0, 64, 19
1, 29173, Note_on_c, 0, 31, 0
1, 29180, Control_c, 0, 64, 15
1, 29184, Note_on_c, 0, 43, 0
1, 29227, Control_c, 0, 64, 10
1, 29262, Control_c, 0, 64, 0
1, 29399, Note_on_c, 0, 43, 35
1, 29405, Note_on_c, 0, 31, 35
1, 29467, Control_c, 0, 64, 16
1, 29485, Control_c, 0, 64, 27
1, 29505, Control_c, 0, 64, 37
1, 29523, Control_c, 0, 64, 53
1, 29542, Control_c, 0, 64, 72
1, 29560, Control_c, 0, 64, 83
1, 29580, Control_c, 0, 64, 94
1, 29599, Control_c, 0, 64, 104
1, 29616, Control_c, 0, 64, 114
1, 29635, Control_c, 0, 64, 120
1, 29652, Control_c, 0, 64, 126
1, 29768, Note_on_c, 0, 31, 0
1, 29883, Note_on_c, 0, 50, 0
1, 29976, Note_on_c, 0, 55, 0
1, 29979, Note_on_c, 0, 43, 0
1, 30004, Note_on_c, 0, 62, 0
1, 30106, Note_on_c, 0, 59, 0
1, 30272, Note_on_c, 0, 38, 38
1, 30281, Note_on_c, 0, 31, 34
1, 30348, Control_c, 0, 67, 122
1, 30376, Note_on_c, 0, 38, 0
1, 30384, Note_on_c, 0, 31, 0
1, 30403, Control_c, 0, 67, 117
1, 30441, Control_c, 0, 67, 109
1, 30459, Control_c, 0, 67, 102
1, 30477, Control_c, 0, 67, 95
1, 30496, Control_c, 0, 67, 86
1, 30515, Control_c, 0, 67, 76
1, 30534, Control_c, 0, 67, 66
1, 30541, Note_on_c, 0, 38, 41
1, 30546, Note_on_c, 0, 31, 28
1, 30552, Control_c, 0, 67, 55
1, 30569, Control_c, 0, 67, 46
1, 30587, Control_c, 0, 67, 36
1, 30607, Control_c, 0, 67, 28
1, 30611, Note_on_c, 0, 38, 0
1, 30627, Control_c, 0, 67, 21
1, 30629, Note_on_c, 0, 31, 0
1, 30644, Control_c, 0, 67, 17
1, 30681, Control_c, 0, 67, 12
1, 30769, Note_on_c, 0, 31, 44
1, 30772, Note_on_c, 0, 38, 48
1, 30828, Control_c, 0, 67, 8
1, 30856, Note_on_c, 0, 38, 0
1, 30874, Note_on_c, 0, 31, 0
1, 31160, Note_on_c, 0, 31, 21
1, 31165, Note_on_c, 0, 38, 35
1, 31197, Note_on_c, 0, 74, 58
1, 31229, Note_on_c, 0, 70, 45
1, 31236, Note_on_c, 0, 62, 41
1, 31338, Control_c, 0, 64, 98
1, 31358, Control_c, 0, 64, 63
1, 31361, Control_c, 0, 67, 0
1, 31376, Control_c, 0, 64, 34
1, 31413, Control_c, 0, 64, 41
1, 31431, Control_c, 0, 64, 52
1, 31451, Control_c, 0, 64, 66
1, 31469, Control_c, 0, 64, 81
1, 31488, Control_c, 0, 64, 100
1, 31505, Control_c, 0, 64, 122
1, 31524, Control_c, 0, 64, 127
1, 31639, Note_on_c, 0, 70, 0
1, 31690, Note_on_c, 0, 38, 0
1, 31716, Note_on_c, 0, 62, 0
1, 31733, Note_on_c, 0, 31, 0
1, 31974, Note_on_c, 0, 69, 50
1, 31983, Note_on_c, 0, 38, 41
1, 31985, Note_on_c, 0, 60, 45
1, 31990, Note_on_c, 0, 31, 38
1, 32095, Note_on_c, 0, 38, 0
1, 32169, Note_on_c, 0, 74, 0
1, 32171, Note_on_c, 0, 60, 0
1, 32231, Note_on_c, 0, 38, 48
1, 32253, Note_on_c, 0, 31, 0
1, 32253, Note_on_c, 0, 31, 17
1, 32319, Note_on_c, 0, 38, 0
1, 32348, Note_on_c, 0, 67, 65
1, 32363, Note_on_c, 0, 58, 60
1, 32435, Note_on_c, 0, 69, 0
1, 32451, Note_on_c, 0, 38, 49
1, 32465, Note_on_c, 0, 31, 0
1, 32465, Note_on_c, 0, 31, 21
1, 32500, Note_on_c, 0, 58, 0
1, 32599, Note_on_c, 0, 38, 0
1, 32640, Note_on_c, 0, 31, 0
1, 32776, Note_on_c, 0, 67, 0
1, 32803, Note_on_c, 0, 31, 44
1, 32809, Note_on_c, 0, 38, 49
1, 32847, Note_on_c, 0, 74, 64
1, 32854, Note_on_c, 0, 69, 61
1, 32857, Note_on_c, 0, 60, 48
1, 32948, Poly_aftertouch_c, 0, 67, 0
1, 33006, Control_c, 0, 64, 123
1, 33024, Control_c, 0, 64, 93
1, 33043, Control_c, 0, 64, 58
1, 33062, Control_c, 0, 64, 17
1, 33118, Control_c, 0, 64, 22
1, 33137, Control_c, 0, 64, 37
1, 33155, Control_c, 0, 64, 57
1, 33175, Control_c, 0, 64, 81
1, 33191, Control_c, 0, 64, 103
1, 33210, Control_c, 0, 64, 126
1, 33325, Note_on_c, 0, 60, 0
1, 33354, Note_on_c, 0, 38, 0
1, 33447, Note_on_c, 0, 69, 0
1, 33450, Note_on_c, 0, 31, 0
1, 33805, Note_on_c, 0, 72, 80
1, 33826, Note_on_c, 0, 63, 58
1, 33836, Note_on_c, 0, 31, 44
1, 33840, Note_on_c, 0, 38, 45
1, 33959, Note_on_c, 0, 31, 0
1, 33977, Note_on_c, 0, 38, 0
1, 34048, Note_on_c, 0, 74, 0
1, 34096, Note_on_c, 0, 38, 51
1, 34097, Note_on_c, 0, 31, 46
1, 34164, Note_on_c, 0, 38, 0
1, 34183, Note_on_c, 0, 31, 0
1, 34315, Note_on_c, 0, 63, 0
1, 34325, Note_on_c, 0, 38, 57
1, 34326, Note_on_c, 0, 31, 56
1, 34427, Note_on_c, 0, 31, 0
1, 34436, Note_on_c, 0, 38, 0
1, 34573, Note_on_c, 0, 31, 49
1, 34582, Note_on_c, 0, 38, 55
1, 34624, Note_on_c, 0, 74, 56
1, 34635, Note_on_c, 0, 70, 61
1, 34644, Note_on_c, 0, 62, 42
1, 34682, Control_c, 0, 64, 96
1, 34702, Control_c, 0, 64, 53
1, 34703, Note_on_c, 0, 72, 0
1, 34719, Control_c, 0, 64, 0
1, 34794, Control_c, 0, 64, 14
1, 34803, Note_on_c, 0, 70, 0
1, 34822, Control_c, 0, 64, 42
1, 34841, Control_c, 0, 64, 72
1, 34860, Control_c, 0, 64, 99
1, 34877, Control_c, 0, 64, 127
1, 34897, Note_on_c, 0, 62, 0
1, 35010, Note_on_c, 0, 69, 72
1, 35020, Note_on_c, 0, 60, 64
1, 35160, Note_on_c, 0, 60, 0
1, 35201, Note_on_c, 0, 38, 0
1, 35215, Note_on_c, 0, 31, 0
1, 35221, Note_on_c, 0, 69, 0
1, 35437, Note_on_c, 0, 38, 43
1, 35453, Note_on_c, 0, 31, 34
1, 35479, Note_on_c, 0, 62, 55
1, 35484, Note_on_c, 0, 70, 77
1, 35526, Control_c, 0, 64, 90
1, 35545, Control_c, 0, 64, 46
1, 35564, Control_c, 0, 64, 0
1, 35626, Note_on_c, 0, 38, 0
1, 35631, Note_on_c, 0, 31, 0
1, 35655, Control_c, 0, 64, 30
1, 35673, Control_c, 0, 64, 59
1, 35693, Control_c, 0, 64, 87
1, 35712, Control_c, 0, 64, 110
1, 35729, Control_c, 0, 64, 127
1, 35758, Note_on_c, 0, 38, 61
1, 35763, Note_on_c, 0, 31, 57
1, 35832, Note_on_c, 0, 74, 0
1, 35852, Note_on_c, 0, 38, 0
1, 35860, Note_on_c, 0, 31, 0
1, 36000, Note_on_c, 0, 38, 71
1, 36004, Note_on_c, 0, 31, 62
1, 36074, Note_on_c, 0, 62, 0
1, 36110, Note_on_c, 0, 31, 0
1, 36128, Note_on_c, 0, 38, 0
1, 36262, Note_on_c, 0, 38, 67
1, 36270, Note_on_c, 0, 31, 56
1, 36274, Note_on_c, 0, 74, 74
1, 36283, Note_on_c, 0, 65, 63
1, 36339, Note_on_c, 0, 70, 0
1, 36418, Note_on_c, 0, 65, 0
1, 36525, Note_on_c, 0, 74, 0
1, 36663, Note_on_c, 0, 72, 82
1, 36676, Note_on_c, 0, 63, 72
1, 36773, Note_on_c, 0, 63, 0
1, 36839, Note_on_c, 0, 72, 0
1, 36864, Note_on_c, 0, 38, 0
1, 36878, Note_on_c, 0, 31, 0
1, 37305, Note_on_c, 0, 77, 82
1, 37321, Note_on_c, 0, 38, 49
1, 37324, Note_on_c, 0, 72, 62
1, 37327, Note_on_c, 0, 68, 60
1, 37327, Note_on_c, 0, 31, 40
1, 37416, Control_c, 0, 64, 118
1, 37434, Control_c, 0, 64, 81
1, 37453, Control_c, 0, 64, 32
1, 37472, Control_c, 0, 64, 0
1, 37526, Control_c, 0, 64, 10
1, 37530, Note_on_c, 0, 38, 0
1, 37544, Control_c, 0, 64, 34
1, 37564, Control_c, 0, 64, 62
1, 37583, Control_c, 0, 64, 86
1, 37601, Control_c, 0, 64, 104
1, 37629, Control_c, 0, 64, 116
1, 37641, Note_on_c, 0, 38, 48
1, 37647, Control_c, 0, 64, 122
1, 37649, Note_on_c, 0, 31, 0
1, 37649, Note_on_c, 0, 31, 28
1, 37668, Control_c, 0, 64, 127
1, 37720, Control_c, 0, 67, 8
1, 37740, Control_c, 0, 67, 12
1, 37759, Control_c, 0, 67, 19
1, 37768, Note_on_c, 0, 38, 0
1, 37774, Note_on_c, 0, 31, 0
1, 37777, Control_c, 0, 67, 29
1, 37796, Control_c, 0, 67, 39
1, 37815, Control_c, 0, 67, 46
1, 37833, Control_c, 0, 67, 54
1, 37852, Control_c, 0, 67, 60
1, 37869, Control_c, 0, 67, 66
1, 37870, Note_on_c, 0, 72, 0
1, 37888, Control_c, 0, 67, 70
1, 37924, Control_c, 0, 67, 75
1, 37933, Note_on_c, 0, 31, 39
1, 37935, Note_on_c, 0, 38, 48
1, 38052, Note_on_c, 0, 68, 0
1, 38087, Note_on_c, 0, 38, 0
1, 38094, Note_on_c, 0, 31, 0
1, 38263, Note_on_c, 0, 38, 43
1, 38266, Note_on_c, 0, 31, 42
1, 38293, Note_on_c, 0, 75, 59
1, 38305, Note_on_c, 0, 67, 45
1, 38333, Control_c, 0, 64, 113
1, 38352, Note_on_c, 0, 72, 31
1, 38352, Control_c, 0, 64, 76
1, 38371, Control_c, 0, 64, 27
1, 38388, Control_c, 0, 64, 0
1, 38408, Control_c, 0, 67, 80
1, 38411, Note_on_c, 0, 77, 0
1, 38411, Note_on_c, 0, 72, 0
1, 38445, Control_c, 0, 64, 31
1, 38461, Control_c, 0, 64, 51
1, 38481, Control_c, 0, 64, 79
1, 38482, Control_c, 0, 67, 84
1, 38500, Control_c, 0, 64, 100
1, 38519, Control_c, 0, 64, 120
1, 38528, Note_on_c, 0, 67, 0
1, 38536, Control_c, 0, 64, 127
1, 38583, Control_c, 0, 67, 90
1, 38589, Note_on_c, 0, 75, 0
1, 38637, Control_c, 0, 67, 96
1, 38675, Control_c, 0, 67, 100
1, 38704, Note_on_c, 0, 74, 67
1, 38711, Control_c, 0, 67, 105
1, 38718, Note_on_c, 0, 65, 50
1, 38730, Control_c, 0, 67, 110
1, 38738, Note_on_c, 0, 72, 41
1, 38769, Control_c, 0, 67, 114
1, 38823, Control_c, 0, 67, 119
1, 38831, Note_on_c, 0, 72, 0
1, 38845, Note_on_c, 0, 31, 0
1, 38861, Control_c, 0, 67, 124
1, 38868, Note_on_c, 0, 74, 0
1, 38870, Note_on_c, 0, 65, 0
1, 38912, Note_on_c, 0, 38, 0
1, 39084, Note_on_c, 0, 38, 42
1, 39097, Note_on_c, 0, 31, 33
1, 39102, Control_c, 0, 64, 115
1, 39117, Note_on_c, 0, 72, 54
1, 39121, Control_c, 0, 64, 80
1, 39132, Note_on_c, 0, 63, 32
1, 39138, Control_c, 0, 64, 42
1, 39158, Control_c, 0, 64, 28
1, 39175, Control_c, 0, 64, 39
1, 39193, Control_c, 0, 64, 56
1, 39198, Poly_aftertouch_c, 0, 73, 0
1, 39212, Control_c, 0, 64, 78
1, 39232, Control_c, 0, 64, 98
1, 39251, Control_c, 0, 64, 120
1, 39268, Control_c, 0, 64, 127
1, 39285, Note_on_c, 0, 38, 0
1, 39298, Note_on_c, 0, 31, 0
1, 39329, Note_on_c, 0, 63, 0
1, 39405, Note_on_c, 0, 31, 45
1, 39415, Note_on_c, 0, 38, 44
1, 39550, Note_on_c, 0, 65, 48
1, 39554, Note_on_c, 0, 74, 60
1, 39604, Note_on_c, 0, 38, 0
1, 39610, Control_c, 0, 64, 102
1, 39620, Note_on_c, 0, 72, 0
1, 39629, Control_c, 0, 64, 67
1, 39632, Note_on_c, 0, 31, 0
1, 39650, Control_c, 0, 64, 21
1, 39667, Control_c, 0, 64, 9
1, 39685, Control_c, 0, 64, 24
1, 39704, Control_c, 0, 64, 39
1, 39704, Note_on_c, 0, 31, 33
1, 39705, Note_on_c, 0, 38, 38
1, 39723, Control_c, 0, 64, 58
1, 39741, Control_c, 0, 64, 80
1, 39759, Control_c, 0, 64, 98
1, 39778, Control_c, 0, 64, 115
1, 39798, Control_c, 0, 64, 124
1, 39801, Note_on_c, 0, 65, 0
1, 39908, Note_on_c, 0, 38, 0
1, 39918, Note_on_c, 0, 31, 0
1, 40317, Note_on_c, 0, 71, 57
1, 40320, Note_on_c, 0, 38, 34
1, 40320, Note_on_c, 0, 62, 35
1, 40321, Note_on_c, 0, 65, 42
1, 40324, Note_on_c, 0, 31, 24
1, 40454, Control_c, 0, 64, 97
1, 40474, Control_c, 0, 64, 65
1, 40488, Note_on_c, 0, 74, 0
1, 40490, Control_c, 0, 64, 14
1, 40509, Control_c, 0, 64, 0
1, 40584, Control_c, 0, 64, 10
1, 40602, Control_c, 0, 64, 33
1, 40622, Control_c, 0, 64, 58
1, 40641, Control_c, 0, 64, 81
1, 40659, Control_c, 0, 64, 96
1, 40677, Control_c, 0, 64, 110
1, 40694, Control_c, 0, 64, 119
1, 40713, Control_c, 0, 64, 124
1, 40728, Note_on_c, 0, 38, 0
1, 40772, Note_on_c, 0, 31, 0
1, 40953, Note_on_c, 0, 65, 0
1, 41158, Control_c, 0, 64, 115
1, 41175, Control_c, 0, 64, 85
1, 41181, Note_on_c, 0, 36, 31
1, 41194, Note_on_c, 0, 24, 24
1, 41196, Control_c, 0, 64, 51
1, 41214, Control_c, 0, 64, 36
1, 41232, Note_on_c, 0, 62, 0
1, 41232, Control_c, 0, 64, 41
1, 41250, Control_c, 0, 64, 52
1, 41269, Control_c, 0, 64, 68
1, 41289, Control_c, 0, 64, 83
1, 41306, Control_c, 0, 64, 100
1, 41325, Control_c, 0, 64, 116
1, 41345, Control_c, 0, 64, 126
1, 41354, Note_on_c, 0, 36, 0
1, 41390, Note_on_c, 0, 24, 0
1, 41520, Note_on_c, 0, 36, 36
1, 41532, Note_on_c, 0, 24, 7
1, 41649, Note_on_c, 0, 64, 36
1, 41656, Note_on_c, 0, 60, 29
1, 41664, Note_on_c, 0, 72, 44
1, 41711, Note_on_c, 0, 36, 0
1, 41723, Note_on_c, 0, 24, 0
1, 41798, Control_c, 0, 64, 118
1, 41815, Control_c, 0, 64, 89
1, 41823, Note_on_c, 0, 71, 0
1, 41834, Control_c, 0, 64, 58
1, 41852, Control_c, 0, 64, 46
1, 41870, Control_c, 0, 64, 52
1, 41870, Note_on_c, 0, 36, 25
1, 41878, Note_on_c, 0, 24, 19
1, 41890, Control_c, 0, 64, 62
1, 41909, Control_c, 0, 64, 73
1, 41928, Control_c, 0, 64, 88
1, 41946, Control_c, 0, 64, 106
1, 41964, Control_c, 0, 64, 121
1, 41984, Control_c, 0, 64, 127
1, 42043, Note_on_c, 0, 64, 0
1, 42055, Note_on_c, 0, 36, 0
1, 42060, Note_on_c, 0, 72, 0
1, 42104, Note_on_c, 0, 60, 0
1, 42106, Note_on_c, 0, 24, 0
1, 42440, Note_on_c, 0, 72, 42
1, 42450, Note_on_c, 0, 36, 28
1, 42465, Note_on_c, 0, 64, 32
1, 42473, Note_on_c, 0, 60, 32
1, 42474, Note_on_c, 0, 24, 18
1, 42659, Control_c, 0, 64, 117
1, 42678, Control_c, 0, 64, 99
1, 42696, Control_c, 0, 64, 75
1, 42715, Control_c, 0, 64, 50
1, 42733, Control_c, 0, 64, 35
1, 43316, Control_c, 0, 64, 39
1, 43428, Control_c, 0, 64, 41
1, 43465, Control_c, 0, 64, 43
1, 43484, Control_c, 0, 64, 46
1, 43501, Control_c, 0, 64, 49
1, 43520, Control_c, 0, 64, 55
1, 43538, Control_c, 0, 64, 61
1, 43557, Control_c, 0, 64, 68
1, 43558, Control_c, 0, 67, 120
1, 43576, Control_c, 0, 64, 75
1, 43595, Control_c, 0, 64, 87
1, 43598, Control_c, 0, 67, 113
1, 43611, Control_c, 0, 64, 103
1, 43611, Control_c, 0, 67, 104
1, 43631, Control_c, 0, 64, 120
1, 43632, Control_c, 0, 67, 91
1, 43650, Control_c, 0, 64, 127
1, 43652, Control_c, 0, 67, 72
1, 43668, Control_c, 0, 67, 49
1, 43686, Control_c, 0, 67, 25
1, 43724, Control_c, 0, 67, 0
1, 43854, Note_on_c, 0, 72, 0
1, 43932, Note_on_c, 0, 64, 0
1, 43953, Note_on_c, 0, 24, 0
1, 43960, Note_on_c, 0, 60, 0
1, 44080, Note_on_c, 0, 36, 0
1, 44236, Control_c, 0, 64, 119
1, 44252, Control_c, 0, 64, 88
1, 44270, Control_c, 0, 64, 55
1, 44289, Control_c, 0, 64, 30
1, 44459, Note_on_c, 0, 60, 70
1, 44464, Note_on_c, 0, 48, 68
1, 44467, Note_on_c, 0, 36, 73
1, 44502, Note_on_c, 0, 60, 0
1, 44505, Note_on_c, 0, 48, 0
1, 44516, Note_on_c, 0, 36, 0
1, 44583, Note_on_c, 0, 34, 86
1, 44592, Note_on_c, 0, 58, 81
1, 44633, Note_on_c, 0, 34, 0
1, 44651, Note_on_c, 0, 58, 0
1, 44727, Note_on_c, 0, 56, 90
1, 44731, Note_on_c, 0, 32, 90
1, 44770, Note_on_c, 0, 32, 0
1, 44784, Note_on_c, 0, 56, 0
1, 44860, Note_on_c, 0, 48, 95
1, 44865, Note_on_c, 0, 60, 93
1, 44870, Note_on_c, 0, 36, 85
1, 44908, Note_on_c, 0, 36, 0
1, 44909, Note_on_c, 0, 60, 0
1, 44911, Note_on_c, 0, 48, 0
1, 44999, Note_on_c, 0, 31, 89
1, 45000, Note_on_c, 0, 55, 91
1, 45047, Note_on_c, 0, 31, 0
1, 45057, Note_on_c, 0, 55, 0
1, 45109, Note_on_c, 0, 36, 59
1, 45131, Control_c, 0, 64, 34
1, 45131, Note_on_c, 0, 60, 94
1, 45132, Note_on_c, 0, 48, 92
1, 45145, Note_on_c, 0, 36, 0
1, 45160, Note_on_c, 0, 48, 0
1, 45196, Note_on_c, 0, 60, 0
1, 45244, Control_c, 0, 64, 39
1, 45290, Poly_aftertouch_c, 0, 32, 0
1, 45300, Note_on_c, 0, 41, 100
1, 45307, Note_on_c, 0, 29, 87
1, 45308, Note_on_c, 0, 53, 98
1, 45316, Control_c, 0, 64, 23
1, 45335, Control_c, 0, 64, 0
1, 45339, Poly_aftertouch_c, 0, 36, 0
1, 45372, Control_c, 0, 67, 8
1, 45391, Control_c, 0, 67, 12
1, 45409, Control_c, 0, 67, 16
1, 45436, Note_on_c, 0, 53, 0
1, 45438, Note_on_c, 0, 29, 0
1, 45467, Control_c, 0, 64, 42
1, 45482, Control_c, 0, 64, 80
1, 45502, Control_c, 0, 64, 105
1, 45504, Note_on_c, 0, 41, 0
1, 45520, Control_c, 0, 64, 127
1, 45521, Control_c, 0, 67, 9
1, 45557, Control_c, 0, 67, 0
1, 46006, Note_on_c, 0, 65, 94
1, 46006, Note_on_c, 0, 60, 87
1, 46008, Note_on_c, 0, 56, 90
1, 46445, Note_on_c, 0, 65, 0
1, 46454, Note_on_c, 0, 60, 0
1, 46521, Note_on_c, 0, 55, 69
1, 46583, Note_on_c, 0, 56, 0
1, 46586, Note_on_c, 0, 53, 78
1, 46602, Note_on_c, 0, 55, 0
1, 46635, Note_on_c, 0, 53, 0
1, 46698, Note_on_c, 0, 82, 90
1, 46699, Note_on_c, 0, 67, 90
1, 46701, Note_on_c, 0, 61, 88
1, 46703, Note_on_c, 0, 70, 92
1, 46704, Note_on_c, 0, 79, 86
1, 46722, Control_c, 0, 64, 81
1, 46735, Control_c, 0, 64, 0
1, 46807, Control_c, 0, 64, 47
1, 46827, Control_c, 0, 64, 94
1, 46844, Control_c, 0, 64, 127
1, 46903, Note_on_c, 0, 70, 0
1, 46910, Note_on_c, 0, 79, 0
1, 46931, Note_on_c, 0, 82, 0
1, 46959, Note_on_c, 0, 67, 0
1, 47021, Note_on_c, 0, 61, 0
1, 47036, Note_on_c, 0, 72, 83
1, 47039, Note_on_c, 0, 84, 88
1, 47061, Note_on_c, 0, 72, 0
1, 47076, Note_on_c, 0, 84, 0
1, 47118, Note_on_c, 0, 73, 95
1, 47128, Note_on_c, 0, 85, 89
1, 47150, Note_on_c, 0, 85, 0
1, 47158, Note_on_c, 0, 73, 0
1, 47412, Note_on_c, 0, 40, 98
1, 47414, Note_on_c, 0, 28, 90
1, 47420, Note_on_c, 0, 52, 90
1, 47424, Note_on_c, 0, 50, 96
1, 47448, Control_c, 0, 64, 111
1, 47467, Control_c, 0, 64, 54
1, 47485, Control_c, 0, 64, 0
1, 47547, Note_on_c, 0, 28, 0
1, 47573, Note_on_c, 0, 50, 0
1, 47576, Control_c, 0, 64, 17
1, 47595, Control_c, 0, 64, 44
1, 47614, Control_c, 0, 64, 75
1, 47619, Note_on_c, 0, 40, 0
1, 47632, Control_c, 0, 64, 105
1, 47651, Control_c, 0, 64, 127
1, 47792, Note_on_c, 0, 52, 0
1, 48126, Note_on_c, 0, 67, 97
1, 48128, Note_on_c, 0, 61, 92
1, 48180, Control_c, 0, 64, 118
1, 48198, Control_c, 0, 64, 68
1, 48216, Control_c, 0, 64, 0
1, 48221, Poly_aftertouch_c, 0, 60, 0
1, 48273, Control_c, 0, 64, 17
1, 48290, Control_c, 0, 64, 57
1, 48308, Control_c, 0, 64, 101
1, 48327, Control_c, 0, 64, 127
1, 48519, Note_on_c, 0, 67, 0
1, 48614, Note_on_c, 0, 60, 78
1, 48622, Note_on_c, 0, 61, 0
1, 48663, Note_on_c, 0, 58, 72
1, 48684, Note_on_c, 0, 60, 0
1, 48703, Note_on_c, 0, 58, 0
1, 48788, Note_on_c, 0, 78, 89
1, 48792, Note_on_c, 0, 84, 89
1, 48793, Note_on_c, 0, 72, 92
1, 48797, Note_on_c, 0, 69, 95
1, 48802, Note_on_c, 0, 66, 87
1, 48829, Control_c, 0, 64, 84
1, 48855, Control_c, 0, 64, 12
1, 48873, Control_c, 0, 64, 0
1, 48911, Control_c, 0, 64, 20
1, 48930, Control_c, 0, 64, 58
1, 48948, Control_c, 0, 64, 101
1, 48967, Control_c, 0, 64, 127
1, 48977, Note_on_c, 0, 72, 0
1, 49007, Note_on_c, 0, 84, 0
1, 49038, Note_on_c, 0, 78, 0
1, 49094, Note_on_c, 0, 69, 0
1, 49131, Note_on_c, 0, 66, 0
1, 49147, Note_on_c, 0, 85, 96
1, 49150, Note_on_c, 0, 73, 87
1, 49165, Note_on_c, 0, 85, 0
1, 49171, Note_on_c, 0, 73, 0
1, 49226, Note_on_c, 0, 75, 89
1, 49230, Note_on_c, 0, 87, 99
1, 49265, Note_on_c, 0, 87, 0
1, 49269, Note_on_c, 0, 75, 0
1, 49529, Note_on_c, 0, 39, 102
1, 49532, Note_on_c, 0, 27, 92
1, 49538, Note_on_c, 0, 51, 93
1, 49596, Control_c, 0, 64, 95
1, 49614, Control_c, 0, 64, 0
1, 49650, Note_on_c, 0, 27, 0
1, 49708, Control_c, 0, 64, 19
1, 49726, Control_c, 0, 64, 73
1, 49729, Note_on_c, 0, 39, 0
1, 49747, Control_c, 0, 64, 102
1, 49764, Control_c, 0, 64, 122
1, 49765, Note_on_c, 0, 51, 0
1, 49790, Control_c, 0, 64, 127
1, 50275, Note_on_c, 0, 72, 98
1, 50276, Note_on_c, 0, 69, 94
1, 50277, Note_on_c, 0, 66, 89
1, 50554, Note_on_c, 0, 72, 0
1, 50554, Note_on_c, 0, 66, 0
1, 50796, Note_on_c, 0, 65, 68
1, 50821, Note_on_c, 0, 67, 46
1, 50838, Note_on_c, 0, 66, 20
1, 50849, Note_on_c, 0, 69, 0
1, 50859, Note_on_c, 0, 66, 0
1, 50862, Note_on_c, 0, 63, 81
1, 50868, Note_on_c, 0, 67, 0
1, 50893, Note_on_c, 0, 65, 0
1, 50995, Note_on_c, 0, 82, 92
1, 51000, Note_on_c, 0, 77, 98
1, 51002, Note_on_c, 0, 89, 92
1, 51004, Control_c, 0, 64, 105
1, 51007, Note_on_c, 0, 70, 86
1, 51008, Note_on_c, 0, 75, 90
1, 51024, Control_c, 0, 64, 40
1, 51041, Control_c, 0, 64, 0
1, 51079, Control_c, 0, 64, 22
1, 51098, Control_c, 0, 64, 59
1, 51117, Control_c, 0, 64, 104
1, 51135, Control_c, 0, 64, 127
1, 51168, Note_on_c, 0, 77, 0
1, 51178, Note_on_c, 0, 82, 0
1, 51212, Note_on_c, 0, 89, 0
1, 51215, Note_on_c, 0, 63, 0
1, 51343, Note_on_c, 0, 75, 0
1, 51405, Note_on_c, 0, 70, 0
1, 51430, Note_on_c, 0, 81, 91
1, 51432, Note_on_c, 0, 93, 93
1, 51457, Note_on_c, 0, 81, 0
1, 51462, Note_on_c, 0, 93, 0
1, 51519, Note_on_c, 0, 82, 101
1, 51524, Note_on_c, 0, 94, 93
1, 51556, Note_on_c, 0, 95, 56
1, 51557, Note_on_c, 0, 95, 0
1, 51566, Note_on_c, 0, 82, 0
1, 51567, Note_on_c, 0, 94, 0
1, 51827, Poly_aftertouch_c, 0, 30, 0
1, 51832, Note_on_c, 0, 38, 101
1, 51836, Note_on_c, 0, 50, 98
1, 51839, Note_on_c, 0, 26, 94
1, 51921, Control_c, 0, 64, 99
1, 51941, Control_c, 0, 64, 13
1, 51942, Poly_aftertouch_c, 0, 33, 0
1, 51958, Control_c, 0, 64, 0
1, 52034, Note_on_c, 0, 26, 0
1, 52050, Control_c, 0, 64, 62
1, 52069, Control_c, 0, 64, 120
1, 52088, Control_c, 0, 64, 127
1, 52097, Note_on_c, 0, 38, 0
1, 52100, Note_on_c, 0, 50, 0
1, 52494, Note_on_c, 0, 65, 69
1, 52509, Note_on_c, 0, 70, 73
1, 52552, Note_on_c, 0, 74, 81
1, 52578, Note_on_c, 0, 77, 89
1, 52607, Note_on_c, 0, 82, 97
1, 52609, Note_on_c, 0, 89, 91
1, 52610, Note_on_c, 0, 94, 93
1, 52728, Note_on_c, 0, 82, 0
1, 52763, Note_on_c, 0, 89, 0
1, 52789, Note_on_c, 0, 94, 0
1, 53023, Note_on_c, 0, 98, 103
1, 53029, Note_on_c, 0, 86, 89
1, 53057, Note_on_c, 0, 86, 0
1, 53103, Note_on_c, 0, 77, 0
1, 53129, Note_on_c, 0, 101, 99
1, 53132, Note_on_c, 0, 89, 103
1, 53137, Note_on_c, 0, 74, 0
1, 53154, Note_on_c, 0, 98, 0
1, 53165, Note_on_c, 0, 70, 0
1, 53174, Note_on_c, 0, 65, 0
1, 53262, Note_on_c, 0, 101, 0
1, 53268, Note_on_c, 0, 89, 0
1, 53426, Note_on_c, 0, 49, 103
1, 53432, Note_on_c, 0, 37, 97
1, 53554, Control_c, 0, 64, 102
1, 53571, Control_c, 0, 64, 49
1, 53590, Control_c, 0, 64, 0
1, 53644, Control_c, 0, 64, 32
1, 53664, Control_c, 0, 64, 69
1, 53682, Control_c, 0, 64, 108
1, 53701, Control_c, 0, 64, 127
1, 53741, Note_on_c, 0, 37, 0
1, 54186, Note_on_c, 0, 49, 0
1, 54262, Note_on_c, 0, 48, 105
1, 54264, Note_on_c, 0, 68, 90
1, 54267, Note_on_c, 0, 65, 92
1, 54267, Note_on_c, 0, 36, 90
1, 54293, Note_on_c, 0, 43, 46
1, 54311, Control_c, 0, 64, 105
1, 54330, Control_c, 0, 64, 47
1, 54332, Note_on_c, 0, 43, 0
1, 54347, Control_c, 0, 64, 0
1, 54460, Control_c, 0, 64, 26
1, 54489, Control_c, 0, 64, 61
1, 54503, Note_on_c, 0, 36, 0
1, 54507, Control_c, 0, 64, 100
1, 54526, Control_c, 0, 64, 127
1, 54576, Note_on_c, 0, 48, 0
1, 54732, Note_on_c, 0, 65, 0
1, 54758, Note_on_c, 0, 72, 79
1, 54784, Note_on_c, 0, 68, 0
1, 54849, Note_on_c, 0, 48, 80
1, 54853, Note_on_c, 0, 77, 91
1, 54865, Note_on_c, 0, 72, 0
1, 54895, Note_on_c, 0, 77, 0
1, 54924, Note_on_c, 0, 48, 0
1, 54928, Note_on_c, 0, 56, 80
1, 54965, Note_on_c, 0, 60, 80
1, 55006, Note_on_c, 0, 92, 101
1, 55009, Note_on_c, 0, 80, 89
1, 55009, Note_on_c, 0, 65, 91
1, 55031, Note_on_c, 0, 80, 0
1, 55050, Note_on_c, 0, 92, 0
1, 55305, Note_on_c, 0, 65, 0
1, 55354, Note_on_c, 0, 96, 96
1, 55356, Note_on_c, 0, 56, 0
1, 55364, Note_on_c, 0, 60, 0
1, 55385, Note_on_c, 0, 84, 40
1, 55413, Note_on_c, 0, 96, 0
1, 55434, Note_on_c, 0, 84, 0
1, 55472, Note_on_c, 0, 101, 95
1, 55475, Note_on_c, 0, 48, 74
1, 55486, Note_on_c, 0, 89, 85
1, 55535, Note_on_c, 0, 55, 47
1, 55542, Note_on_c, 0, 101, 0
1, 55582, Note_on_c, 0, 89, 0
1, 55603, Note_on_c, 0, 48, 0
1, 55636, Note_on_c, 0, 64, 99
1, 55646, Note_on_c, 0, 62, 80
1, 55694, Note_on_c, 0, 62, 0
1, 55694, Note_on_c, 0, 62, 55
1, 55705, Note_on_c, 0, 55, 0
1, 55720, Control_c, 0, 64, 117
1, 55720, Poly_aftertouch_c, 0, 52, 0
1, 55729, Note_on_c, 0, 64, 0
1, 55739, Control_c, 0, 64, 88
1, 55757, Control_c, 0, 64, 61
1, 55760, Note_on_c, 0, 62, 0
1, 55776, Control_c, 0, 64, 48
1, 55789, Note_on_c, 0, 91, 93
1, 55790, Note_on_c, 0, 100, 91
1, 55794, Note_on_c, 0, 88, 93
1, 55859, Note_on_c, 0, 91, 0
1, 55891, Note_on_c, 0, 100, 0
1, 55899, Note_on_c, 0, 88, 0
1, 55905, Control_c, 0, 64, 46
1, 55937, Note_on_c, 0, 62, 105
1, 55941, Note_on_c, 0, 60, 98
1, 55944, Note_on_c, 0, 53, 80
1, 55953, Note_on_c, 0, 48, 75
1, 55967, Note_on_c, 0, 54, 36
1, 55997, Control_c, 0, 64, 44
1, 56017, Note_on_c, 0, 54, 0
1, 56032, Note_on_c, 0, 53, 0
1, 56054, Note_on_c, 0, 48, 0
1, 56066, Note_on_c, 0, 98, 83
1, 56069, Note_on_c, 0, 89, 76
1, 56074, Note_on_c, 0, 86, 85
1, 56105, Note_on_c, 0, 60, 0
1, 56113, Note_on_c, 0, 62, 0
1, 56129, Note_on_c, 0, 89, 0
1, 56143, Note_on_c, 0, 86, 0
1, 56146, Control_c, 0, 64, 41
1, 56148, Note_on_c, 0, 56, 32
1, 56149, Note_on_c, 0, 56, 0
1, 56182, Control_c, 0, 64, 34
1, 56192, Note_on_c, 0, 98, 0
1, 56196, Note_on_c, 0, 48, 74
1, 56201, Control_c, 0, 64, 30
1, 56231, Note_on_c, 0, 55, 69
1, 56257, Control_c, 0, 64, 44
1, 56272, Note_on_c, 0, 48, 0
1, 56273, Note_on_c, 0, 60, 81
1, 56275, Control_c, 0, 64, 68
1, 56294, Control_c, 0, 64, 96
1, 56303, Note_on_c, 0, 96, 81
1, 56304, Note_on_c, 0, 91, 90
1, 56305, Note_on_c, 0, 100, 97
1, 56307, Note_on_c, 0, 88, 102
1, 56312, Control_c, 0, 64, 127
1, 56313, Note_on_c, 0, 64, 108
1, 56390, Poly_aftertouch_c, 0, 52, 0
1, 56397, Poly_aftertouch_c, 0, 50, 0
1, 56406, Note_on_c, 0, 100, 0
1, 56413, Note_on_c, 0, 88, 0
1, 56424, Note_on_c, 0, 64, 0
1, 56435, Note_on_c, 0, 55, 0
1, 56448, Note_on_c, 0, 60, 0
1, 56451, Note_on_c, 0, 96, 0
1, 56461, Note_on_c, 0, 91, 0
1, 56859, Control_c, 0, 64, 119
1, 56879, Control_c, 0, 64, 96
1, 56894, Control_c, 0, 64, 66
1, 56900, Note_on_c, 0, 36, 72
1, 56915, Control_c, 0, 64, 32
1, 56933, Control_c, 0, 64, 12
1, 56958, Note_on_c, 0, 43, 70
1, 57002, Note_on_c, 0, 36, 0
1, 57007, Control_c, 0, 64, 24
1, 57027, Control_c, 0, 64, 44
1, 57036, Note_on_c, 0, 48, 72
1, 57044, Control_c, 0, 64, 69
1, 57064, Control_c, 0, 64, 96
1, 57075, Note_on_c, 0, 52, 105
1, 57082, Control_c, 0, 64, 127
1, 57094, Note_on_c, 0, 72, 103
1, 57094, Note_on_c, 0, 84, 92
1, 57099, Note_on_c, 0, 76, 94
1, 57101, Note_on_c, 0, 79, 89
1, 57157, Note_on_c, 0, 43, 0
1, 57163, Note_on_c, 0, 84, 0
1, 57165, Note_on_c, 0, 52, 0
1, 57166, Note_on_c, 0, 72, 0
1, 57178, Note_on_c, 0, 48, 0
1, 57196, Note_on_c, 0, 79, 0
1, 57210, Note_on_c, 0, 76, 0
1, 58034, Control_c, 0, 64, 120
1, 58054, Control_c, 0, 64, 107
1, 58072, Control_c, 0, 64, 92
1, 58091, Control_c, 0, 64, 79
1, 58109, Control_c, 0, 64, 71
1, 58128, Control_c, 0, 64, 67
1, 58147, Control_c, 0, 64, 60
1, 58160, Control_c, 0, 64, 52
1, 58180, Control_c, 0, 64, 45
1, 58198, Control_c, 0, 64, 42
1, 58243, Control_c, 0, 64, 40
1, 58846, Note_on_c, 0, 72, 90
1, 58859, Note_on_c, 0, 60, 77
1, 58860, Note_on_c, 0, 63, 75
1, 58861, Note_on_c, 0, 68, 72
1, 59291, Control_c, 0, 64, 42
1, 59539, Note_on_c, 0, 36, 87
1, 59585, Note_on_c, 0, 36, 0
1, 59878, Note_on_c, 0, 34, 83
1, 59916, Note_on_c, 0, 34, 0
1, 60030, Note_on_c, 0, 32, 88
1, 60041, Note_on_c, 0, 68, 0
1, 60054, Note_on_c, 0, 60, 0
1, 60071, Note_on_c, 0, 32, 0
1, 60126, Note_on_c, 0, 63, 0
1, 60219, Note_on_c, 0, 39, 90
1, 60248, Note_on_c, 0, 70, 79
1, 60249, Note_on_c, 0, 58, 84
1, 60253, Note_on_c, 0, 63, 81
1, 60253, Note_on_c, 0, 67, 74
1, 60277, Note_on_c, 0, 39, 0
1, 60297, Note_on_c, 0, 72, 0
1, 60374, Control_c, 0, 64, 34
1, 60394, Control_c, 0, 64, 26
1, 60430, Control_c, 0, 64, 0
1, 60559, Control_c, 0, 64, 17
1, 60578, Control_c, 0, 64, 46
1, 60597, Control_c, 0, 64, 80
1, 60616, Control_c, 0, 64, 109
1, 60634, Control_c, 0, 64, 127
1, 60637, Note_on_c, 0, 58, 0
1, 60701, Note_on_c, 0, 67, 0
1, 60724, Note_on_c, 0, 63, 0
1, 60810, Note_on_c, 0, 70, 0
1, 61130, Note_on_c, 0, 73, 90
1, 61131, Note_on_c, 0, 68, 80
1, 61133, Note_on_c, 0, 61, 88
1, 61136, Note_on_c, 0, 65, 85
1, 61235, Control_c, 0, 64, 108
1, 61253, Control_c, 0, 64, 76
1, 61272, Control_c, 0, 64, 38
1, 61291, Control_c, 0, 64, 10
1, 61820, Note_on_c, 0, 41, 87
1, 61873, Note_on_c, 0, 41, 0
1, 62176, Note_on_c, 0, 39, 76
1, 62218, Note_on_c, 0, 39, 0
1, 62322, Note_on_c, 0, 37, 88
1, 62388, Note_on_c, 0, 37, 0
1, 62535, Note_on_c, 0, 49, 86
1, 62627, Note_on_c, 0, 49, 0
1, 62820, Control_c, 0, 64, 0
1, 62959, Control_c, 0, 64, 20
1, 62977, Control_c, 0, 64, 38
1, 62996, Control_c, 0, 64, 57
1, 63014, Control_c, 0, 64, 72
1, 63033, Control_c, 0, 64, 86
1, 63051, Control_c, 0, 64, 106
1, 63071, Control_c, 0, 64, 125
1, 63122, Note_on_c, 0, 68, 0
1, 63174, Note_on_c, 0, 61, 0
1, 63193, Note_on_c, 0, 65, 0
1, 63209, Note_on_c, 0, 73, 0
1, 63498, Note_on_c, 0, 73, 89
1, 63504, Note_on_c, 0, 70, 84
1, 63505, Note_on_c, 0, 61, 83
1, 63506, Note_on_c, 0, 65, 82
1, 63755, Control_c, 0, 64, 110
1, 63774, Control_c, 0, 64, 94
1, 63792, Control_c, 0, 64, 77
1, 63812, Control_c, 0, 64, 62
1, 63838, Control_c, 0, 64, 55
1, 63857, Control_c, 0, 64, 51
1, 63875, Control_c, 0, 64, 47
1, 63893, Control_c, 0, 64, 42
1, 63913, Control_c, 0, 64, 38
1, 64193, Note_on_c, 0, 37, 82
1, 64231, Note_on_c, 0, 37, 0
1, 64530, Note_on_c, 0, 36, 76
1, 64564, Note_on_c, 0, 36, 0
1, 64668, Note_on_c, 0, 34, 85
1, 64697, Note_on_c, 0, 65, 0
1, 64747, Note_on_c, 0, 34, 0
1, 64771, Note_on_c, 0, 61, 0
1, 64780, Note_on_c, 0, 73, 0
1, 64790, Note_on_c, 0, 70, 0
1, 64846, Note_on_c, 0, 41, 87
1, 64850, Note_on_c, 0, 60, 91
1, 64854, Note_on_c, 0, 72, 89
1, 64854, Note_on_c, 0, 68, 82
1, 64858, Note_on_c, 0, 65, 80
1, 64904, Control_c, 0, 64, 33
1, 64907, Note_on_c, 0, 41, 0
1, 64923, Control_c, 0, 64, 28
1, 64942, Control_c, 0, 64, 19
1, 64958, Control_c, 0, 64, 0
1, 65126, Control_c, 0, 64, 19
1, 65144, Control_c, 0, 64, 47
1, 65162, Control_c, 0, 64, 75
1, 65181, Control_c, 0, 64, 101
1, 65200, Control_c, 0, 64, 127
1, 65232, Note_on_c, 0, 60, 0
1, 65261, Note_on_c, 0, 72, 0
1, 65308, Note_on_c, 0, 65, 0
1, 65348, Note_on_c, 0, 68, 0
1, 65764, Note_on_c, 0, 75, 95
1, 65775, Note_on_c, 0, 63, 90
1, 65776, Note_on_c, 0, 66, 85
1, 65778, Note_on_c, 0, 70, 83
1, 65894, Control_c, 0, 64, 96
1, 65913, Control_c, 0, 64, 60
1, 65931, Control_c, 0, 64, 24
1, 66449, Note_on_c, 0, 42, 88
1, 66495, Note_on_c, 0, 42, 0
1, 66794, Note_on_c, 0, 41, 77
1, 66834, Note_on_c, 0, 41, 0
1, 66946, Note_on_c, 0, 39, 89
1, 67001, Note_on_c, 0, 39, 0
1, 67129, Control_c, 0, 64, 18
1, 67137, Note_on_c, 0, 51, 93
1, 67146, Control_c, 0, 64, 10
1, 67165, Control_c, 0, 64, 0
1, 67278, Note_on_c, 0, 51, 0
1, 67460, Control_c, 0, 64, 14
1, 67479, Control_c, 0, 64, 44
1, 67497, Control_c, 0, 64, 77
1, 67515, Control_c, 0, 64, 107
1, 67533, Control_c, 0, 64, 127
1, 67553, Note_on_c, 0, 70, 0
1, 67599, Note_on_c, 0, 66, 0
1, 67637, Note_on_c, 0, 63, 0
1, 67686, Note_on_c, 0, 75, 0
1, 67818, Note_on_c, 0, 75, 90
1, 67835, Note_on_c, 0, 66, 69
1, 67839, Note_on_c, 0, 72, 78
1, 67844, Note_on_c, 0, 70, 67
1, 67877, Control_c, 0, 64, 102
1, 67897, Control_c, 0, 64, 60
1, 67915, Control_c, 0, 64, 40
1, 67934, Control_c, 0, 64, 54
1, 67951, Control_c, 0, 64, 74
1, 67970, Control_c, 0, 64, 96
1, 67974, Note_on_c, 0, 70, 0
1, 67988, Control_c, 0, 64, 127
1, 67995, Note_on_c, 0, 72, 0
1, 68065, Note_on_c, 0, 66, 0
1, 68071, Note_on_c, 0, 75, 0
1, 68203, Note_on_c, 0, 73, 93
1, 68206, Note_on_c, 0, 70, 80
1, 68214, Note_on_c, 0, 65, 79
1, 68250, Note_on_c, 0, 65, 0
1, 68325, Note_on_c, 0, 70, 0
1, 68356, Note_on_c, 0, 73, 0
1, 68650, Note_on_c, 0, 78, 97
1, 68665, Note_on_c, 0, 70, 80
1, 68669, Note_on_c, 0, 72, 81
1, 68738, Control_c, 0, 64, 88
1, 68758, Control_c, 0, 64, 53
1, 68775, Control_c, 0, 64, 45
1, 69008, Note_on_c, 0, 30, 80
1, 69057, Note_on_c, 0, 30, 0
1, 69147, Note_on_c, 0, 29, 79
1, 69257, Control_c, 0, 64, 43
1, 69277, Control_c, 0, 64, 37
1, 69294, Control_c, 0, 64, 27
1, 69312, Control_c, 0, 64, 0
1, 69324, Note_on_c, 0, 29, 0
1, 69348, Note_on_c, 0, 41, 88
1, 69389, Note_on_c, 0, 72, 0
1, 69526, Control_c, 0, 64, 30
1, 69545, Control_c, 0, 64, 61
1, 69564, Control_c, 0, 64, 95
1, 69582, Control_c, 0, 64, 127
1, 69593, Note_on_c, 0, 70, 0
1, 69713, Note_on_c, 0, 77, 78
1, 69730, Note_on_c, 0, 72, 60
1, 69738, Note_on_c, 0, 68, 68
1, 69808, Note_on_c, 0, 41, 0
1, 69813, Note_on_c, 0, 78, 0
1, 69865, Note_on_c, 0, 77, 0
1, 69880, Note_on_c, 0, 72, 0
1, 69915, Note_on_c, 0, 68, 0
1, 70099, Note_on_c, 0, 75, 81
1, 70109, Note_on_c, 0, 70, 61
1, 70113, Note_on_c, 0, 66, 63
1, 70157, Control_c, 0, 64, 97
1, 70175, Control_c, 0, 64, 75
1, 70193, Control_c, 0, 64, 77
1, 70211, Control_c, 0, 64, 92
1, 70229, Control_c, 0, 64, 115
1, 70250, Control_c, 0, 64, 127
1, 70319, Note_on_c, 0, 75, 0
1, 70324, Note_on_c, 0, 70, 0
1, 70362, Note_on_c, 0, 66, 0
1, 70456, Note_on_c, 0, 73, 81
1, 70466, Note_on_c, 0, 65, 65
1, 70472, Note_on_c, 0, 68, 65
1, 70553, Note_on_c, 0, 65, 0
1, 70563, Note_on_c, 0, 68, 0
1, 70588, Note_on_c, 0, 73, 0
1, 70926, Control_c, 0, 67, 9
1, 70980, Control_c, 0, 67, 14
1, 71005, Note_on_c, 0, 70, 73
1, 71008, Note_on_c, 0, 61, 45
1, 71011, Note_on_c, 0, 67, 56
1, 71020, Note_on_c, 0, 64, 54
1, 71036, Control_c, 0, 67, 19
1, 71073, Control_c, 0, 67, 24
1, 71111, Control_c, 0, 67, 30
1, 71146, Control_c, 0, 67, 34
1, 71165, Control_c, 0, 64, 111
1, 71185, Control_c, 0, 64, 90
1, 71202, Control_c, 0, 64, 68
1, 71221, Control_c, 0, 64, 50
1, 71241, Control_c, 0, 64, 46
1, 71242, Control_c, 0, 67, 38
1, 71296, Control_c, 0, 64, 43
1, 71322, Control_c, 0, 64, 41
1, 71379, Note_on_c, 0, 31, 60
1, 71397, Control_c, 0, 64, 37
1, 71430, Note_on_c, 0, 31, 0
1, 71527, Control_c, 0, 64, 32
1, 71534, Note_on_c, 0, 29, 59
1, 71583, Control_c, 0, 64, 27
1, 71618, Note_on_c, 0, 29, 0
1, 71619, Control_c, 0, 64, 18
1, 71639, Control_c, 0, 64, 8
1, 71657, Control_c, 0, 64, 0
1, 71761, Note_on_c, 0, 41, 56
1, 71862, Control_c, 0, 64, 27
1, 71878, Control_c, 0, 64, 43
1, 71897, Control_c, 0, 64, 65
1, 71916, Control_c, 0, 64, 80
1, 71934, Control_c, 0, 64, 92
1, 71954, Control_c, 0, 64, 103
1, 71970, Note_on_c, 0, 41, 0
1, 71972, Control_c, 0, 64, 113
1, 71990, Control_c, 0, 64, 121
1, 72009, Control_c, 0, 64, 127
1, 72046, Note_on_c, 0, 61, 0
1, 72189, Note_on_c, 0, 72, 64
1, 72214, Note_on_c, 0, 60, 47
1, 72214, Control_c, 0, 64, 117
1, 72231, Control_c, 0, 64, 85
1, 72258, Control_c, 0, 64, 61
1, 72276, Control_c, 0, 64, 63
1, 72296, Control_c, 0, 64, 72
1, 72314, Control_c, 0, 64, 83
1, 72333, Control_c, 0, 64, 102
1, 72352, Control_c, 0, 64, 127
1, 72371, Control_c, 0, 67, 42
1, 72469, Note_on_c, 0, 64, 0
1, 72473, Note_on_c, 0, 60, 0
1, 72489, Note_on_c, 0, 72, 0
1, 72497, Note_on_c, 0, 70, 0
1, 72574, Control_c, 0, 67, 46
1, 72665, Control_c, 0, 67, 50
1, 72779, Control_c, 0, 67, 54
1, 72844, Note_on_c, 0, 60, 33
1, 72849, Note_on_c, 0, 72, 54
1, 72875, Note_on_c, 0, 65, 39
1, 72881, Note_on_c, 0, 69, 52
1, 72927, Control_c, 0, 64, 122
1, 72944, Control_c, 0, 64, 109
1, 72953, Note_on_c, 0, 67, 0
1, 72964, Control_c, 0, 64, 95
1, 72982, Control_c, 0, 64, 80
1, 73000, Control_c, 0, 64, 67
1, 73001, Control_c, 0, 67, 58
1, 73018, Control_c, 0, 64, 61
1, 73055, Control_c, 0, 64, 57
1, 73074, Control_c, 0, 64, 54
1, 73093, Control_c, 0, 64, 50
1, 73111, Control_c, 0, 64, 46
1, 73167, Control_c, 0, 67, 62
1, 73250, Control_c, 0, 67, 66
1, 73306, Control_c, 0, 67, 72
1, 73324, Control_c, 0, 67, 76
1, 73363, Control_c, 0, 67, 84
1, 73379, Control_c, 0, 67, 91
1, 73398, Control_c, 0, 67, 99
1, 73416, Control_c, 0, 67, 105
1, 73436, Control_c, 0, 67, 109
1, 73473, Control_c, 0, 67, 115
1, 73511, Control_c, 0, 67, 119
1, 73602, Control_c, 0, 67, 124
1, 73632, Note_on_c, 0, 33, 64
1, 73676, Note_on_c, 0, 33, 0
1, 74366, Note_on_c, 0, 31, 40
1, 74413, Note_on_c, 0, 31, 0
1, 74556, Control_c, 0, 64, 44
1, 74752, Note_on_c, 0, 29, 50
1, 74818, Note_on_c, 0, 29, 0
1, 75233, Control_c, 0, 64, 47
1, 75250, Control_c, 0, 64, 50
1, 75268, Control_c, 0, 64, 53
1, 75287, Control_c, 0, 64, 56
1, 75306, Control_c, 0, 64, 61
1, 75315, Note_on_c, 0, 41, 53
1, 75324, Control_c, 0, 64, 67
1, 75343, Control_c, 0, 64, 73
1, 75364, Control_c, 0, 64, 79
1, 75381, Control_c, 0, 64, 87
1, 75400, Control_c, 0, 64, 93
1, 75418, Control_c, 0, 64, 98
1, 75454, Control_c, 0, 64, 103
1, 75522, Note_on_c, 0, 41, 0
1, 75586, Control_c, 0, 64, 99
1, 75620, Control_c, 0, 64, 92
1, 75658, Control_c, 0, 64, 87
1, 75677, Control_c, 0, 64, 81
1, 75695, Control_c, 0, 64, 73
1, 75714, Control_c, 0, 64, 65
1, 75734, Control_c, 0, 64, 62
1, 75771, Control_c, 0, 64, 61
1, 75806, Control_c, 0, 64, 57
1, 75824, Control_c, 0, 64, 54
1, 75844, Control_c, 0, 64, 52
1, 75862, Control_c, 0, 64, 49
1, 75881, Control_c, 0, 64, 47
1, 75899, Control_c, 0, 64, 44
1, 75919, Control_c, 0, 64, 41
1, 75956, Control_c, 0, 64, 34
1, 76000, Control_c, 0, 64, 27
1, 76019, Control_c, 0, 64, 23
1, 76038, Control_c, 0, 64, 19
1, 76057, Control_c, 0, 64, 14
1, 76150, Control_c, 0, 64, 28
1, 76169, Control_c, 0, 64, 41
1, 76186, Control_c, 0, 64, 57
1, 76204, Control_c, 0, 64, 75
1, 76224, Control_c, 0, 64, 86
1, 76241, Control_c, 0, 64, 98
1, 76261, Control_c, 0, 64, 109
1, 76278, Control_c, 0, 64, 119
1, 76298, Control_c, 0, 64, 126
1, 76690, Note_on_c, 0, 72, 0
1, 76804, Note_on_c, 0, 69, 0
1, 76806, Note_on_c, 0, 60, 0
1, 76872, Note_on_c, 0, 65, 0
1, 77086, Control_c, 0, 64, 120
1, 77104, Control_c, 0, 64, 116
1, 77122, Control_c, 0, 64, 109
1, 77140, Control_c, 0, 64, 99
1, 77159, Control_c, 0, 64, 86
1, 77177, Control_c, 0, 64, 74
1, 77196, Control_c, 0, 64, 66
1, 77215, Control_c, 0, 64, 62
1, 77233, Control_c, 0, 64, 59
1, 77251, Control_c, 0, 64, 53
1, 77269, Control_c, 0, 64, 43
1, 77287, Control_c, 0, 64, 34
1, 77306, Control_c, 0, 64, 29
1, 77325, Control_c, 0, 64, 24
1, 77344, Control_c, 0, 64, 20
1, 77362, Control_c, 0, 64, 15
1, 77401, Control_c, 0, 64, 10
1, 77529, Control_c, 0, 64, 16
1, 77548, Control_c, 0, 64, 24
1, 77566, Control_c, 0, 64, 32
1, 77585, Control_c, 0, 64, 41
1, 77604, Control_c, 0, 64, 55
1, 77623, Control_c, 0, 64, 69
1, 77642, Control_c, 0, 64, 75
1, 77660, Control_c, 0, 64, 82
1, 77678, Control_c, 0, 64, 90
1, 77696, Control_c, 0, 64, 99
1, 77714, Control_c, 0, 64, 108
1, 77733, Control_c, 0, 64, 115
1, 77752, Control_c, 0, 64, 120
1, 77770, Control_c, 0, 64, 124
1, 77823, Note_on_c, 0, 62, 65
1, 77827, Control_c, 0, 67, 117
1, 77845, Control_c, 0, 67, 113
1, 77853, Note_on_c, 0, 58, 47
1, 77872, Note_on_c, 0, 50, 35
1, 77872, Control_c, 0, 67, 106
1, 77877, Note_on_c, 0, 53, 34
1, 77890, Control_c, 0, 67, 96
1, 77908, Control_c, 0, 67, 83
1, 77928, Control_c, 0, 67, 65
1, 77946, Control_c, 0, 67, 48
1, 77964, Control_c, 0, 67, 33
1, 77984, Control_c, 0, 67, 18
1, 78040, Control_c, 0, 67, 0
1, 78207, Control_c, 0, 67, 9
1, 78242, Control_c, 0, 67, 18
1, 78261, Control_c, 0, 67, 25
1, 78280, Control_c, 0, 67, 36
1, 78298, Control_c, 0, 67, 52
1, 78317, Control_c, 0, 67, 68
1, 78337, Control_c, 0, 67, 83
1, 78354, Control_c, 0, 67, 96
1, 78371, Control_c, 0, 67, 106
1, 78390, Control_c, 0, 67, 113
1, 78409, Control_c, 0, 67, 118
1, 78427, Control_c, 0, 67, 123
1, 78465, Control_c, 0, 67, 127
1, 78525, Note_on_c, 0, 38, 66
1, 78540, Control_c, 0, 64, 108
1, 78557, Control_c, 0, 64, 87
1, 78559, Note_on_c, 0, 38, 0
1, 78575, Control_c, 0, 64, 62
1, 78595, Control_c, 0, 64, 42
1, 78761, Control_c, 0, 64, 38
1, 78824, Note_on_c, 0, 53, 0
1, 78873, Note_on_c, 0, 36, 44
1, 78894, Note_on_c, 0, 50, 0
1, 78898, Note_on_c, 0, 58, 0
1, 78922, Note_on_c, 0, 36, 0
1, 78979, Note_on_c, 0, 34, 63
1, 79012, Note_on_c, 0, 34, 0
1, 79155, Note_on_c, 0, 60, 67
1, 79163, Note_on_c, 0, 53, 50
1, 79177, Note_on_c, 0, 57, 49
1, 79290, Control_c, 0, 67, 120
1, 79307, Control_c, 0, 67, 116
1, 79316, Note_on_c, 0, 62, 0
1, 79325, Control_c, 0, 67, 110
1, 79345, Control_c, 0, 67, 99
1, 79363, Control_c, 0, 67, 82
1, 79382, Control_c, 0, 64, 46
1, 79384, Control_c, 0, 67, 59
1, 79401, Control_c, 0, 64, 55
1, 79402, Control_c, 0, 67, 35
1, 79420, Control_c, 0, 64, 64
1, 79422, Control_c, 0, 67, 12
1, 79437, Control_c, 0, 64, 72
1, 79438, Control_c, 0, 67, 0
1, 79457, Control_c, 0, 64, 84
1, 79475, Control_c, 0, 64, 99
1, 79482, Note_on_c, 0, 57, 0
1, 79487, Note_on_c, 0, 41, 59
1, 79491, Control_c, 0, 64, 113
1, 79510, Control_c, 0, 64, 124
1, 79532, Note_on_c, 0, 53, 0
1, 79615, Note_on_c, 0, 41, 0
1, 79924, Note_on_c, 0, 63, 72
1, 79926, Note_on_c, 0, 55, 42
1, 79934, Note_on_c, 0, 51, 37
1, 79936, Note_on_c, 0, 58, 55
1, 80110, Note_on_c, 0, 60, 0
1, 80169, Control_c, 0, 64, 118
1, 80189, Control_c, 0, 64, 111
1, 80206, Control_c, 0, 64, 103
1, 80226, Control_c, 0, 64, 96
1, 80226, Control_c, 0, 67, 8
1, 80242, Control_c, 0, 64, 88
1, 80262, Control_c, 0, 64, 79
1, 80264, Control_c, 0, 67, 12
1, 80280, Control_c, 0, 64, 70
1, 80299, Control_c, 0, 64, 66
1, 80299, Control_c, 0, 67, 18
1, 80317, Control_c, 0, 67, 22
1, 80336, Control_c, 0, 64, 65
1, 80337, Control_c, 0, 67, 26
1, 80355, Control_c, 0, 64, 64
1, 80356, Control_c, 0, 67, 31
1, 80373, Control_c, 0, 64, 62
1, 80374, Control_c, 0, 67, 39
1, 80392, Control_c, 0, 64, 60
1, 80394, Control_c, 0, 67, 50
1, 80411, Control_c, 0, 67, 62
1, 80428, Control_c, 0, 67, 72
1, 80446, Control_c, 0, 67, 79
1, 80466, Control_c, 0, 64, 58
1, 80467, Control_c, 0, 67, 84
1, 80484, Control_c, 0, 67, 89
1, 80503, Control_c, 0, 67, 96
1, 80521, Control_c, 0, 67, 104
1, 80540, Control_c, 0, 67, 110
1, 80558, Control_c, 0, 64, 55
1, 80558, Note_on_c, 0, 67, 63
1, 80577, Control_c, 0, 64, 53
1, 80578, Control_c, 0, 67, 116
1, 80596, Control_c, 0, 64, 50
1, 80606, Note_on_c, 0, 67, 0
1, 80613, Control_c, 0, 64, 48
1, 80614, Control_c, 0, 67, 123
1, 80650, Control_c, 0, 67, 127
1, 80679, Control_c, 0, 64, 46
1, 80717, Control_c, 0, 64, 44
1, 80773, Control_c, 0, 64, 42
1, 80788, Note_on_c, 0, 58, 0
1, 80866, Note_on_c, 0, 63, 0
1, 80875, Note_on_c, 0, 65, 41
1, 80913, Note_on_c, 0, 65, 0
1, 80919, Control_c, 0, 64, 40
1, 80983, Note_on_c, 0, 63, 57
1, 81016, Note_on_c, 0, 63, 0
1, 81087, Control_c, 0, 64, 35
1, 81105, Control_c, 0, 64, 31
1, 81123, Control_c, 0, 64, 25
1, 81142, Control_c, 0, 64, 16
1, 81148, Note_on_c, 0, 59, 56
1, 81178, Control_c, 0, 64, 0
1, 81252, Control_c, 0, 64, 10
1, 81272, Control_c, 0, 64, 25
1, 81291, Control_c, 0, 64, 37
1, 81309, Control_c, 0, 64, 53
1, 81327, Control_c, 0, 64, 68
1, 81348, Control_c, 0, 64, 78
1, 81349, Control_c, 0, 67, 123
1, 81364, Control_c, 0, 64, 89
1, 81365, Control_c, 0, 67, 119
1, 81382, Control_c, 0, 64, 104
1, 81384, Control_c, 0, 67, 115
1, 81402, Control_c, 0, 64, 119
1, 81404, Control_c, 0, 67, 108
1, 81420, Control_c, 0, 64, 127
1, 81421, Control_c, 0, 67, 97
1, 81438, Control_c, 0, 67, 81
1, 81456, Control_c, 0, 67, 61
1, 81475, Note_on_c, 0, 75, 59
1, 81475, Control_c, 0, 67, 41
1, 81494, Control_c, 0, 67, 21
1, 81515, Note_on_c, 0, 75, 0
1, 81531, Control_c, 0, 67, 0
1, 81561, Note_on_c, 0, 59, 0
1, 81638, Note_on_c, 0, 51, 0
1, 81641, Note_on_c, 0, 55, 0
1, 81923, Note_on_c, 0, 63, 78
1, 81937, Note_on_c, 0, 55, 50
1, 81937, Note_on_c, 0, 60, 67
1, 81952, Note_on_c, 0, 51, 52
1, 82264, Control_c, 0, 64, 121
1, 82282, Control_c, 0, 64, 113
1, 82299, Control_c, 0, 64, 106
1, 82318, Control_c, 0, 64, 100
1, 82336, Control_c, 0, 64, 95
1, 82355, Control_c, 0, 64, 90
1, 82374, Control_c, 0, 64, 82
1, 82392, Control_c, 0, 64, 74
1, 82410, Control_c, 0, 64, 70
1, 82449, Control_c, 0, 64, 67
1, 82467, Control_c, 0, 64, 65
1, 82484, Control_c, 0, 64, 61
1, 82494, Note_on_c, 0, 39, 77
1, 82503, Control_c, 0, 64, 56
1, 82522, Control_c, 0, 64, 52
1, 82532, Note_on_c, 0, 39, 0
1, 82568, Control_c, 0, 64, 49
1, 82625, Control_c, 0, 64, 46
1, 82761, Note_on_c, 0, 60, 0
1, 82763, Note_on_c, 0, 55, 0
1, 82799, Note_on_c, 0, 38, 71
1, 82840, Note_on_c, 0, 38, 0
1, 82853, Note_on_c, 0, 51, 0
1, 82912, Note_on_c, 0, 36, 74
1, 82943, Note_on_c, 0, 36, 0
1, 83072, Note_on_c, 0, 62, 80
1, 83092, Note_on_c, 0, 58, 58
1, 83095, Note_on_c, 0, 55, 50
1, 83142, Control_c, 0, 64, 43
1, 83148, Note_on_c, 0, 63, 0
1, 83163, Control_c, 0, 64, 37
1, 83180, Control_c, 0, 64, 25
1, 83218, Control_c, 0, 64, 0
1, 83346, Control_c, 0, 64, 12
1, 83365, Control_c, 0, 64, 34
1, 83372, Note_on_c, 0, 43, 70
1, 83385, Control_c, 0, 64, 56
1, 83387, Note_on_c, 0, 58, 0
1, 83402, Control_c, 0, 64, 80
1, 83420, Control_c, 0, 64, 101
1, 83429, Note_on_c, 0, 55, 0
1, 83438, Control_c, 0, 64, 122
1, 83457, Control_c, 0, 64, 127
1, 83584, Note_on_c, 0, 43, 0
1, 83874, Note_on_c, 0, 65, 82
1, 83892, Note_on_c, 0, 60, 64
1, 83901, Note_on_c, 0, 58, 57
1, 83910, Note_on_c, 0, 53, 54
1, 84035, Note_on_c, 0, 62, 0
1, 84059, Control_c, 0, 64, 122
1, 84079, Control_c, 0, 64, 114
1, 84097, Control_c, 0, 64, 105
1, 84116, Control_c, 0, 64, 95
1, 84136, Control_c, 0, 64, 86
1, 84153, Control_c, 0, 64, 75
1, 84171, Control_c, 0, 64, 67
1, 84189, Control_c, 0, 64, 64
1, 84207, Control_c, 0, 64, 62
1, 84226, Control_c, 0, 64, 60
1, 84245, Control_c, 0, 64, 58
1, 84263, Control_c, 0, 64, 56
1, 84355, Control_c, 0, 64, 54
1, 84440, Control_c, 0, 64, 52
1, 84441, Control_c, 0, 67, 8
1, 84482, Note_on_c, 0, 70, 73
1, 84513, Note_on_c, 0, 70, 0
1, 84533, Control_c, 0, 64, 50
1, 84606, Control_c, 0, 64, 48
1, 84718, Control_c, 0, 64, 46
1, 84722, Note_on_c, 0, 60, 0
1, 84738, Note_on_c, 0, 58, 0
1, 84755, Note_on_c, 0, 65, 0
1, 84771, Note_on_c, 0, 67, 63
1, 84791, Control_c, 0, 64, 43
1, 84810, Control_c, 0, 64, 41
1, 84823, Note_on_c, 0, 67, 0
1, 84848, Control_c, 0, 64, 35
1, 84884, Control_c, 0, 64, 27
1, 84891, Note_on_c, 0, 65, 66
1, 84904, Control_c, 0, 64, 20
1, 84913, Note_on_c, 0, 65, 0
1, 84939, Control_c, 0, 64, 0
1, 85038, Note_on_c, 0, 60, 66
1, 85051, Note_on_c, 0, 56, 58
1, 85089, Control_c, 0, 64, 18
1, 85107, Control_c, 0, 64, 36
1, 85125, Control_c, 0, 64, 57
1, 85143, Control_c, 0, 64, 77
1, 85162, Control_c, 0, 64, 91
1, 85181, Control_c, 0, 64, 106
1, 85199, Control_c, 0, 64, 119
1, 85218, Control_c, 0, 64, 127
1, 85364, Note_on_c, 0, 56, 0
1, 85380, Note_on_c, 0, 77, 65
1, 85411, Note_on_c, 0, 77, 0
1, 85423, Note_on_c, 0, 60, 0
1, 85586, Note_on_c, 0, 53, 0
1, 85711, Note_on_c, 0, 65, 76
1, 85725, Note_on_c, 0, 44, 59
1, 85738, Note_on_c, 0, 60, 58
1, 85802, Control_c, 0, 64, 96
1, 85820, Control_c, 0, 64, 58
1, 85840, Control_c, 0, 64, 32
1, 85856, Control_c, 0, 64, 38
1, 85874, Control_c, 0, 64, 53
1, 85893, Control_c, 0, 64, 72
1, 85912, Control_c, 0, 64, 90
1, 85931, Control_c, 0, 64, 114
1, 85949, Control_c, 0, 64, 127
1, 85978, Note_on_c, 0, 65, 0
1, 86033, Note_on_c, 0, 63, 90
1, 86041, Control_c, 0, 64, 116
1, 86043, Note_on_c, 0, 44, 0
1, 86054, Note_on_c, 0, 58, 66
1, 86060, Control_c, 0, 64, 80
1, 86064, Note_on_c, 0, 43, 62
1, 86079, Control_c, 0, 64, 57
1, 86097, Control_c, 0, 64, 65
1, 86103, Note_on_c, 0, 60, 0
1, 86104, Poly_aftertouch_c, 0, 60, 0
1, 86116, Control_c, 0, 64, 77
1, 86135, Note_on_c, 0, 43, 0
1, 86135, Control_c, 0, 64, 95
1, 86140, Note_on_c, 0, 58, 0
1, 86153, Control_c, 0, 64, 121
1, 86172, Control_c, 0, 64, 127
1, 86295, Note_on_c, 0, 63, 0
1, 86568, Note_on_c, 0, 68, 82
1, 86581, Note_on_c, 0, 61, 55
1, 86596, Note_on_c, 0, 29, 42
1, 86597, Note_on_c, 0, 41, 43
1, 86599, Note_on_c, 0, 56, 54
1, 86625, Control_c, 0, 64, 120
1, 86644, Control_c, 0, 64, 86
1, 86663, Control_c, 0, 64, 35
1, 86680, Control_c, 0, 64, 0
1, 86791, Control_c, 0, 64, 20
1, 86810, Control_c, 0, 64, 57
1, 86829, Control_c, 0, 64, 88
1, 86848, Control_c, 0, 64, 111
1, 86866, Control_c, 0, 64, 127
1, 86890, Note_on_c, 0, 29, 0
1, 86968, Note_on_c, 0, 56, 0
1, 86968, Note_on_c, 0, 68, 0
1, 86991, Note_on_c, 0, 61, 0
1, 87006, Note_on_c, 0, 41, 0
1, 87180, Control_c, 0, 64, 116
1, 87193, Note_on_c, 0, 67, 68
1, 87199, Control_c, 0, 64, 81
1, 87227, Control_c, 0, 64, 42
1, 87232, Note_on_c, 0, 58, 41
1, 87234, Note_on_c, 0, 31, 42
1, 87241, Note_on_c, 0, 43, 38
1, 87246, Control_c, 0, 64, 34
1, 87248, Note_on_c, 0, 61, 25
1, 87265, Control_c, 0, 64, 50
1, 87284, Control_c, 0, 64, 71
1, 87303, Control_c, 0, 64, 89
1, 87322, Control_c, 0, 64, 110
1, 87340, Control_c, 0, 64, 124
1, 87344, Note_on_c, 0, 43, 0
1, 87381, Note_on_c, 0, 58, 0
1, 87435, Note_on_c, 0, 61, 0
1, 87445, Note_on_c, 0, 67, 0
1, 87506, Control_c, 0, 64, 105
1, 87524, Note_on_c, 0, 65, 73
1, 87525, Control_c, 0, 64, 70
1, 87530, Note_on_c, 0, 32, 54
1, 87535, Note_on_c, 0, 56, 62
1, 87537, Note_on_c, 0, 31, 0
1, 87539, Note_on_c, 0, 44, 51
1, 87542, Control_c, 0, 64, 60
1, 87554, Note_on_c, 0, 61, 52
1, 87561, Control_c, 0, 64, 71
1, 87579, Control_c, 0, 64, 82
1, 87598, Control_c, 0, 64, 101
1, 87616, Control_c, 0, 64, 127
1, 87621, Note_on_c, 0, 61, 0
1, 87646, Note_on_c, 0, 32, 0
1, 87694, Note_on_c, 0, 44, 0
1, 87741, Note_on_c, 0, 56, 0
1, 87745, Note_on_c, 0, 65, 0
1, 87839, Control_c, 0, 64, 116
1, 87857, Control_c, 0, 64, 76
1, 87861, Note_on_c, 0, 63, 71
1, 87871, Note_on_c, 0, 34, 52
1, 87875, Note_on_c, 0, 61, 55
1, 87876, Control_c, 0, 64, 13
1, 87883, Note_on_c, 0, 46, 39
1, 87889, Note_on_c, 0, 55, 48
1, 87894, Control_c, 0, 64, 0
1, 87931, Control_c, 0, 64, 37
1, 87950, Control_c, 0, 64, 70
1, 87968, Control_c, 0, 64, 96
1, 87988, Control_c, 0, 64, 123
1, 88004, Note_on_c, 0, 34, 0
1, 88005, Control_c, 0, 64, 127
1, 88007, Note_on_c, 0, 61, 0
1, 88058, Note_on_c, 0, 55, 0
1, 88062, Note_on_c, 0, 46, 0
1, 88064, Note_on_c, 0, 63, 0
1, 88202, Note_on_c, 0, 61, 63
1, 88218, Note_on_c, 0, 37, 49
1, 88221, Control_c, 0, 64, 88
1, 88222, Note_on_c, 0, 49, 53
1, 88233, Note_on_c, 0, 56, 49
1, 88238, Control_c, 0, 64, 41
1, 88241, Control_c, 0, 67, 13
1, 88256, Control_c, 0, 64, 0
1, 88265, Note_on_c, 0, 53, 33
1, 88275, Control_c, 0, 67, 18
1, 88293, Control_c, 0, 64, 19
1, 88311, Control_c, 0, 64, 45
1, 88312, Control_c, 0, 67, 22
1, 88329, Control_c, 0, 64, 75
1, 88348, Control_c, 0, 64, 97
1, 88352, Note_on_c, 0, 56, 0
1, 88367, Control_c, 0, 64, 122
1, 88386, Control_c, 0, 64, 127
1, 88387, Control_c, 0, 67, 26
1, 88439, Note_on_c, 0, 37, 0
1, 88448, Note_on_c, 0, 53, 0
1, 88504, Note_on_c, 0, 49, 0
1, 88590, Control_c, 0, 67, 30
1, 88681, Control_c, 0, 67, 35
1, 88743, Note_on_c, 0, 51, 26
1, 88749, Note_on_c, 0, 39, 37
1, 88754, Note_on_c, 0, 58, 59
1, 88765, Note_on_c, 0, 55, 39
1, 88775, Control_c, 0, 67, 39
1, 88831, Control_c, 0, 64, 118
1, 88832, Control_c, 0, 67, 45
1, 88848, Control_c, 0, 64, 104
1, 88867, Control_c, 0, 64, 82
1, 88885, Control_c, 0, 64, 54
1, 88887, Control_c, 0, 67, 50
1, 88904, Control_c, 0, 64, 22
1, 88925, Control_c, 0, 64, 9
1, 88934, Note_on_c, 0, 61, 0
1, 88942, Control_c, 0, 64, 0
1, 88959, Control_c, 0, 67, 54
1, 89016, Control_c, 0, 67, 59
1, 89136, Control_c, 0, 64, 17
1, 89154, Control_c, 0, 64, 34
1, 89174, Control_c, 0, 64, 45
1, 89175, Control_c, 0, 67, 63
1, 89192, Control_c, 0, 64, 57
1, 89210, Control_c, 0, 64, 61
1, 89228, Control_c, 0, 67, 68
1, 89246, Control_c, 0, 64, 63
1, 89265, Control_c, 0, 67, 75
1, 89283, Control_c, 0, 67, 81
1, 89303, Control_c, 0, 64, 61
1, 89304, Control_c, 0, 67, 91
1, 89322, Control_c, 0, 64, 59
1, 89323, Control_c, 0, 67, 100
1, 89341, Control_c, 0, 64, 57
1, 89342, Control_c, 0, 67, 108
1, 89360, Control_c, 0, 64, 54
1, 89361, Control_c, 0, 67, 115
1, 89378, Control_c, 0, 67, 120
1, 89396, Control_c, 0, 67, 126
1, 89413, Control_c, 0, 64, 52
1, 89450, Control_c, 0, 64, 50
1, 89526, Control_c, 0, 64, 47
1, 89562, Control_c, 0, 64, 43
1, 89582, Control_c, 0, 64, 39
1, 89599, Control_c, 0, 64, 34
1, 89617, Control_c, 0, 64, 29
1, 89620, Note_on_c, 0, 63, 43
1, 89635, Control_c, 0, 64, 22
1, 89654, Control_c, 0, 64, 8
1, 89673, Control_c, 0, 64, 0
1, 89722, Note_on_c, 0, 58, 0
1, 89802, Control_c, 0, 64, 17
1, 89821, Control_c, 0, 64, 39
1, 89839, Control_c, 0, 64, 67
1, 89859, Control_c, 0, 64, 86
1, 89867, Note_on_c, 0, 39, 0
1, 89868, Note_on_c, 0, 55, 0
1, 89878, Control_c, 0, 64, 103
1, 89896, Control_c, 0, 64, 114
1, 89915, Control_c, 0, 64, 123
1, 89923, Note_on_c, 0, 51, 0
1, 89933, Control_c, 0, 64, 127
1, 89937, Note_on_c, 0, 63, 0
1, 90508, Note_on_c, 0, 89, 56
1, 90525, Note_on_c, 0, 80, 33
1, 90547, Note_on_c, 0, 84, 34
1, 90729, Note_on_c, 0, 89, 0
1, 90737, Control_c, 0, 67, 121
1, 90750, Note_on_c, 0, 80, 0
1, 90756, Control_c, 0, 67, 116
1, 90774, Control_c, 0, 67, 110
1, 90794, Control_c, 0, 67, 101
1, 90812, Control_c, 0, 67, 86
1, 90831, Control_c, 0, 67, 65
1, 90847, Note_on_c, 0, 87, 75
1, 90850, Note_on_c, 0, 84, 0
1, 90850, Control_c, 0, 67, 40
1, 90850, Poly_aftertouch_c, 0, 84, 0
1, 90869, Control_c, 0, 67, 16
1, 90889, Control_c, 0, 67, 0
1, 90890, Note_on_c, 0, 82, 40
1, 90895, Note_on_c, 0, 79, 39
1, 90952, Note_on_c, 0, 82, 0
1, 91073, Note_on_c, 0, 87, 0
1, 91077, Note_on_c, 0, 79, 0
1, 91356, Note_on_c, 0, 92, 80
1, 91391, Note_on_c, 0, 85, 43
1, 91415, Note_on_c, 0, 80, 33
1, 91427, Note_on_c, 0, 77, 24
1, 91694, Note_on_c, 0, 80, 0
1, 91743, Note_on_c, 0, 65, 41
1, 91799, Note_on_c, 0, 77, 0
1, 91839, Control_c, 0, 67, 8
1, 91845, Note_on_c, 0, 85, 0
1, 91870, Note_on_c, 0, 92, 0
1, 92045, Note_on_c, 0, 65, 0
1, 92095, Note_on_c, 0, 91, 58
1, 92105, Note_on_c, 0, 67, 45
1, 92119, Note_on_c, 0, 82, 47
1, 92121, Note_on_c, 0, 85, 43
1, 92219, Note_on_c, 0, 85, 0
1, 92219, Control_c, 0, 67, 12
1, 92236, Note_on_c, 0, 82, 0
1, 92294, Control_c, 0, 67, 16
1, 92334, Note_on_c, 0, 91, 0
1, 92341, Note_on_c, 0, 67, 0
1, 92424, Control_c, 0, 67, 20
1, 92446, Note_on_c, 0, 89, 73
1, 92460, Note_on_c, 0, 85, 52
1, 92465, Note_on_c, 0, 80, 48
1, 92478, Note_on_c, 0, 68, 47
1, 92590, Control_c, 0, 67, 24
1, 92621, Note_on_c, 0, 85, 0
1, 92633, Note_on_c, 0, 89, 0
1, 92674, Note_on_c, 0, 68, 0
1, 92679, Note_on_c, 0, 80, 0
1, 92702, Control_c, 0, 67, 29
1, 92795, Control_c, 0, 67, 33
1, 92851, Note_on_c, 0, 87, 63
1, 92853, Note_on_c, 0, 63, 34
1, 92860, Control_c, 0, 64, 93
1, 92868, Note_on_c, 0, 85, 46
1, 92870, Note_on_c, 0, 70, 45
1, 92878, Control_c, 0, 64, 57
1, 92882, Note_on_c, 0, 79, 35
1, 92898, Control_c, 0, 64, 34
1, 92899, Control_c, 0, 67, 37
1, 92935, Control_c, 0, 64, 47
1, 92953, Control_c, 0, 64, 64
1, 92970, Control_c, 0, 64, 83
1, 92973, Note_on_c, 0, 85, 0
1, 92989, Control_c, 0, 64, 104
1, 93009, Control_c, 0, 64, 126
1, 93049, Note_on_c, 0, 87, 0
1, 93051, Note_on_c, 0, 70, 0
1, 93067, Note_on_c, 0, 79, 0
1, 93199, Note_on_c, 0, 85, 67
1, 93242, Note_on_c, 0, 80, 44
1, 93253, Note_on_c, 0, 73, 43
1, 93256, Note_on_c, 0, 77, 31
1, 93335, Note_on_c, 0, 80, 0
1, 93384, Note_on_c, 0, 77, 0
1, 93397, Control_c, 0, 67, 41
1, 93407, Note_on_c, 0, 73, 0
1, 93526, Control_c, 0, 67, 45
1, 93620, Control_c, 0, 67, 49
1, 93777, Control_c, 0, 67, 54
1, 93795, Note_on_c, 0, 82, 55
1, 93833, Note_on_c, 0, 79, 28
1, 93841, Note_on_c, 0, 75, 29
1, 93852, Control_c, 0, 67, 58
1, 93924, Control_c, 0, 67, 63
1, 93961, Control_c, 0, 64, 108
1, 93981, Control_c, 0, 64, 76
1, 93983, Control_c, 0, 67, 68
1, 94000, Control_c, 0, 64, 40
1, 94018, Control_c, 0, 64, 12
1, 94018, Control_c, 0, 67, 72
1, 94043, Note_on_c, 0, 85, 0
1, 94055, Control_c, 0, 67, 78
1, 94091, Control_c, 0, 67, 83
1, 94110, Control_c, 0, 64, 24
1, 94129, Control_c, 0, 64, 44
1, 94130, Control_c, 0, 67, 87
1, 94147, Control_c, 0, 64, 66
1, 94166, Control_c, 0, 64, 86
1, 94168, Control_c, 0, 67, 92
1, 94185, Control_c, 0, 64, 104
1, 94205, Control_c, 0, 64, 119
1, 94222, Control_c, 0, 64, 127
1, 94223, Control_c, 0, 67, 97
1, 94276, Control_c, 0, 67, 102
1, 94315, Control_c, 0, 67, 108
1, 94352, Control_c, 0, 67, 112
1, 94354, Note_on_c, 0, 75, 0
1, 94389, Control_c, 0, 67, 116
1, 94427, Control_c, 0, 67, 121
1, 94461, Control_c, 0, 67, 127
1, 94872, Note_on_c, 0, 87, 48
1, 94887, Note_on_c, 0, 73, 33
1, 94968, Note_on_c, 0, 79, 0
1, 94997, Note_on_c, 0, 63, 0
1, 95084, Note_on_c, 0, 82, 0
1, 95132, Note_on_c, 0, 87, 0
1, 95154, Note_on_c, 0, 73, 0
1, 96336, Note_on_c, 0, 72, 60
1, 96358, Note_on_c, 0, 44, 34
1, 96365, Note_on_c, 0, 68, 39
1, 96502, Control_c, 0, 64, 117
1, 96518, Control_c, 0, 64, 83
1, 96537, Control_c, 0, 64, 47
1, 96555, Control_c, 0, 64, 31
1, 96602, Control_c, 0, 64, 46
1, 96621, Control_c, 0, 64, 63
1, 96639, Control_c, 0, 64, 81
1, 96659, Control_c, 0, 64, 99
1, 96677, Control_c, 0, 64, 120
1, 96695, Control_c, 0, 64, 127
1, 96812, Note_on_c, 0, 51, 36
1, 96823, Note_on_c, 0, 44, 0
1, 97182, Note_on_c, 0, 63, 37
1, 97221, Note_on_c, 0, 51, 0
1, 97342, Control_c, 0, 67, 122
1, 97380, Control_c, 0, 67, 118
1, 97419, Control_c, 0, 67, 112
1, 97437, Control_c, 0, 67, 107
1, 97453, Control_c, 0, 67, 100
1, 97472, Control_c, 0, 67, 93
1, 97490, Control_c, 0, 67, 84
1, 97510, Control_c, 0, 67, 74
1, 97538, Control_c, 0, 67, 63
1, 97541, Note_on_c, 0, 51, 25
1, 97557, Control_c, 0, 67, 51
1, 97576, Control_c, 0, 67, 39
1, 97583, Note_on_c, 0, 63, 0
1, 97593, Control_c, 0, 67, 28
1, 97613, Control_c, 0, 67, 18
1, 97632, Control_c, 0, 67, 12
1, 97666, Control_c, 0, 67, 8
1, 97835, Note_on_c, 0, 63, 28
1, 97912, Note_on_c, 0, 51, 0
1, 98086, Note_on_c, 0, 63, 0
1, 98140, Note_on_c, 0, 51, 28
1, 98160, Note_on_c, 0, 68, 0
1, 98464, Note_on_c, 0, 44, 42
1, 98537, Note_on_c, 0, 70, 60
1, 98570, Note_on_c, 0, 68, 32
1, 98599, Note_on_c, 0, 51, 0
1, 98678, Control_c, 0, 64, 100
1, 98696, Control_c, 0, 64, 77
1, 98716, Control_c, 0, 64, 71
1, 98734, Control_c, 0, 64, 78
1, 98752, Control_c, 0, 64, 87
1, 98753, Note_on_c, 0, 72, 0
1, 98769, Control_c, 0, 64, 101
1, 98787, Control_c, 0, 64, 118
1, 98806, Control_c, 0, 64, 127
1, 98825, Note_on_c, 0, 51, 39
1, 98844, Control_c, 0, 67, 0
1, 98875, Note_on_c, 0, 44, 0
1, 99116, Note_on_c, 0, 62, 46
1, 99196, Note_on_c, 0, 51, 0
1, 99396, Note_on_c, 0, 62, 0
1, 99402, Note_on_c, 0, 51, 35
1, 99701, Note_on_c, 0, 61, 43
1, 99734, Note_on_c, 0, 67, 39
1, 99761, Control_c, 0, 64, 117
1, 99780, Control_c, 0, 64, 86
1, 99794, Note_on_c, 0, 51, 0
1, 99798, Control_c, 0, 64, 55
1, 99801, Note_on_c, 0, 68, 0
1, 99817, Control_c, 0, 64, 46
1, 99836, Control_c, 0, 64, 54
1, 99853, Control_c, 0, 64, 67
1, 99873, Control_c, 0, 64, 80
1, 99889, Control_c, 0, 64, 98
1, 99909, Control_c, 0, 64, 119
1, 99910, Control_c, 0, 67, 9
1, 99927, Control_c, 0, 64, 127
1, 99965, Control_c, 0, 67, 17
1, 99982, Control_c, 0, 67, 24
1, 99989, Note_on_c, 0, 51, 39
1, 100002, Control_c, 0, 67, 30
1, 100022, Control_c, 0, 67, 34
1, 100029, Note_on_c, 0, 61, 0
1, 100058, Control_c, 0, 67, 41
1, 100076, Control_c, 0, 67, 45
1, 100113, Control_c, 0, 67, 53
1, 100131, Control_c, 0, 67, 58
1, 100150, Control_c, 0, 67, 63
1, 100188, Control_c, 0, 67, 70
1, 100206, Control_c, 0, 67, 75
1, 100224, Control_c, 0, 67, 79
1, 100244, Control_c, 0, 67, 83
1, 100260, Control_c, 0, 67, 89
1, 100279, Control_c, 0, 67, 97
1, 100297, Control_c, 0, 67, 105
1, 100317, Control_c, 0, 67, 111
1, 100345, Control_c, 0, 67, 115
1, 100365, Note_on_c, 0, 70, 0
1, 100381, Control_c, 0, 67, 120
1, 100438, Control_c, 0, 67, 125
1, 100482, Note_on_c, 0, 44, 33
1, 100590, Note_on_c, 0, 75, 63
1, 100600, Note_on_c, 0, 63, 36
1, 100614, Note_on_c, 0, 70, 36
1, 100679, Note_on_c, 0, 51, 0
1, 100733, Control_c, 0, 64, 112
1, 100753, Control_c, 0, 64, 81
1, 100758, Note_on_c, 0, 67, 0
1, 100771, Control_c, 0, 64, 46
1, 100788, Control_c, 0, 64, 34
1, 100825, Control_c, 0, 64, 43
1, 100844, Control_c, 0, 64, 56
1, 100862, Control_c, 0, 64, 72
1, 100882, Control_c, 0, 64, 87
1, 100900, Control_c, 0, 64, 106
1, 100920, Control_c, 0, 64, 121
1, 100925, Note_on_c, 0, 51, 35
1, 100938, Control_c, 0, 64, 127
1, 100988, Note_on_c, 0, 44, 0
1, 101239, Note_on_c, 0, 60, 40
1, 101337, Note_on_c, 0, 51, 0
1, 101535, Note_on_c, 0, 51, 28
1, 101559, Note_on_c, 0, 60, 0
1, 101875, Note_on_c, 0, 60, 27
1, 101950, Note_on_c, 0, 68, 27
1, 102007, Note_on_c, 0, 51, 0
1, 102182, Note_on_c, 0, 70, 0
1, 102203, Note_on_c, 0, 60, 0
1, 102234, Note_on_c, 0, 51, 24
1, 102547, Control_c, 0, 64, 107
1, 102555, Note_on_c, 0, 44, 34
1, 102568, Control_c, 0, 64, 77
1, 102586, Control_c, 0, 64, 40
1, 102605, Control_c, 0, 64, 0
1, 102637, Note_on_c, 0, 51, 0
1, 102697, Control_c, 0, 64, 14
1, 102715, Control_c, 0, 64, 36
1, 102734, Control_c, 0, 64, 62
1, 102752, Control_c, 0, 64, 86
1, 102771, Control_c, 0, 64, 105
1, 102790, Control_c, 0, 64, 118
1, 102808, Control_c, 0, 64, 124
1, 102920, Note_on_c, 0, 51, 31
1, 102934, Note_on_c, 0, 44, 0
1, 102968, Note_on_c, 0, 75, 0
1, 103269, Note_on_c, 0, 59, 28
1, 103282, Note_on_c, 0, 75, 46
1, 103399, Note_on_c, 0, 51, 0
1, 103418, Note_on_c, 0, 68, 0
1, 103568, Note_on_c, 0, 51, 32
1, 103629, Note_on_c, 0, 59, 0
1, 103838, Note_on_c, 0, 76, 58
1, 103855, Note_on_c, 0, 59, 35
1, 103861, Note_on_c, 0, 51, 0
1, 103953, Note_on_c, 0, 63, 0
1, 104049, Note_on_c, 0, 59, 0
1, 104091, Note_on_c, 0, 76, 0
1, 104119, Note_on_c, 0, 51, 21
1, 104135, Note_on_c, 0, 63, 34
1, 104242, Note_on_c, 0, 71, 36
1, 104467, Note_on_c, 0, 42, 35
1, 104475, Control_c, 0, 67, 119
1, 104512, Control_c, 0, 67, 114
1, 104531, Control_c, 0, 67, 110
1, 104548, Control_c, 0, 67, 102
1, 104568, Control_c, 0, 67, 94
1, 104586, Control_c, 0, 67, 83
1, 104606, Control_c, 0, 67, 72
1, 104623, Control_c, 0, 67, 61
1, 104640, Note_on_c, 0, 78, 57
1, 104642, Control_c, 0, 67, 51
1, 104661, Control_c, 0, 67, 44
1, 104678, Note_on_c, 0, 51, 0
1, 104680, Control_c, 0, 67, 37
1, 104697, Control_c, 0, 64, 103
1, 104698, Control_c, 0, 67, 29
1, 104716, Control_c, 0, 64, 72
1, 104719, Control_c, 0, 67, 22
1, 104734, Control_c, 0, 64, 41
1, 104737, Control_c, 0, 67, 16
1, 104753, Control_c, 0, 64, 33
1, 104754, Control_c, 0, 67, 11
1, 104763, Note_on_c, 0, 75, 0
1, 104810, Control_c, 0, 64, 47
1, 104811, Control_c, 0, 67, 0
1, 104827, Control_c, 0, 64, 61
1, 104847, Control_c, 0, 64, 76
1, 104865, Control_c, 0, 64, 93
1, 104882, Control_c, 0, 64, 113
1, 104900, Control_c, 0, 64, 127
1, 104953, Note_on_c, 0, 51, 33
1, 105010, Note_on_c, 0, 42, 0
1, 105224, Note_on_c, 0, 59, 41
1, 105315, Note_on_c, 0, 51, 0
1, 105349, Note_on_c, 0, 78, 0
1, 105489, Note_on_c, 0, 63, 0
1, 105504, Note_on_c, 0, 51, 29
1, 105528, Note_on_c, 0, 59, 0
1, 105682, Note_on_c, 0, 71, 0
1, 105713, Note_on_c, 0, 59, 36
1, 105770, Note_on_c, 0, 51, 0
1, 105841, Note_on_c, 0, 61, 48
1, 105922, Note_on_c, 0, 61, 0
1, 105931, Note_on_c, 0, 51, 38
1, 105980, Note_on_c, 0, 59, 0
1, 106017, Note_on_c, 0, 71, 63
1, 106204, Note_on_c, 0, 51, 0
1, 106301, Note_on_c, 0, 42, 41
1, 106462, Note_on_c, 0, 78, 62
1, 106587, Control_c, 0, 64, 118
1, 106605, Control_c, 0, 64, 90
1, 106625, Control_c, 0, 64, 61
1, 106643, Control_c, 0, 64, 45
1, 106681, Control_c, 0, 64, 51
1, 106699, Control_c, 0, 64, 59
1, 106718, Control_c, 0, 64, 68
1, 106730, Note_on_c, 0, 49, 50
1, 106735, Control_c, 0, 64, 79
1, 106754, Control_c, 0, 64, 96
1, 106772, Control_c, 0, 64, 117
1, 106790, Control_c, 0, 64, 127
1, 107007, Note_on_c, 0, 42, 0
1, 107052, Note_on_c, 0, 54, 48
1, 107270, Note_on_c, 0, 54, 0
1, 107298, Note_on_c, 0, 42, 45
1, 107564, Note_on_c, 0, 52, 39
1, 107571, Note_on_c, 0, 70, 63
1, 107636, Note_on_c, 0, 71, 0
1, 107662, Note_on_c, 0, 42, 0
1, 107825, Note_on_c, 0, 42, 47
1, 107859, Note_on_c, 0, 78, 0
1, 107868, Note_on_c, 0, 49, 0
1, 107955, Note_on_c, 0, 52, 0
1, 108151, Note_on_c, 0, 51, 47
1, 108281, Note_on_c, 0, 73, 69
1, 108292, Note_on_c, 0, 78, 58
1, 108299, Note_on_c, 0, 66, 39
1, 108452, Note_on_c, 0, 42, 0
1, 108456, Control_c, 0, 64, 118
1, 108478, Control_c, 0, 64, 87
1, 108485, Note_on_c, 0, 70, 0
1, 108496, Control_c, 0, 64, 55
1, 108514, Control_c, 0, 64, 35
1, 108571, Control_c, 0, 64, 49
1, 108574, Note_on_c, 0, 42, 51
1, 108589, Control_c, 0, 64, 62
1, 108607, Control_c, 0, 64, 77
1, 108626, Control_c, 0, 64, 93
1, 108643, Control_c, 0, 64, 111
1, 108662, Control_c, 0, 64, 123
1, 108682, Control_c, 0, 64, 127
1, 108708, Note_on_c, 0, 51, 0
1, 108848, Note_on_c, 0, 51, 60
1, 108944, Note_on_c, 0, 42, 0
1, 109112, Note_on_c, 0, 42, 55
1, 109229, Note_on_c, 0, 51, 0
1, 109371, Note_on_c, 0, 51, 50
1, 109416, Note_on_c, 0, 71, 66
1, 109544, Note_on_c, 0, 42, 0
1, 109587, Note_on_c, 0, 73, 0
1, 109673, Note_on_c, 0, 42, 54
1, 109812, Note_on_c, 0, 51, 0
1, 110082, Note_on_c, 0, 50, 43
1, 110187, Note_on_c, 0, 72, 64
1, 110293, Control_c, 0, 64, 111
1, 110307, Note_on_c, 0, 42, 0
1, 110310, Control_c, 0, 64, 75
1, 110330, Control_c, 0, 64, 32
1, 110333, Note_on_c, 0, 78, 0
1, 110347, Control_c, 0, 64, 0
1, 110402, Note_on_c, 0, 71, 0
1, 110423, Control_c, 0, 64, 10
1, 110442, Control_c, 0, 64, 36
1, 110460, Control_c, 0, 64, 59
1, 110471, Note_on_c, 0, 42, 36
1, 110479, Control_c, 0, 64, 83
1, 110497, Control_c, 0, 64, 101
1, 110515, Control_c, 0, 64, 116
1, 110533, Control_c, 0, 64, 125
1, 110574, Note_on_c, 0, 50, 0
1, 110796, Note_on_c, 0, 50, 38
1, 110803, Note_on_c, 0, 78, 58
1, 110867, Note_on_c, 0, 72, 0
1, 110894, Note_on_c, 0, 42, 0
1, 111057, Note_on_c, 0, 42, 34
1, 111153, Note_on_c, 0, 50, 0
1, 111342, Note_on_c, 0, 80, 72
1, 111354, Note_on_c, 0, 50, 34
1, 111411, Note_on_c, 0, 66, 0
1, 111423, Note_on_c, 0, 42, 0
1, 111460, Note_on_c, 0, 78, 0
1, 111583, Note_on_c, 0, 42, 43
1, 111602, Note_on_c, 0, 66, 35
1, 111627, Note_on_c, 0, 80, 0
1, 111631, Note_on_c, 0, 73, 55
1, 111665, Note_on_c, 0, 50, 0
1, 111744, Note_on_c, 0, 78, 41
1, 111966, Note_on_c, 0, 49, 44
1, 112156, Note_on_c, 0, 82, 72
1, 112213, Note_on_c, 0, 42, 0
1, 112386, Control_c, 0, 64, 100
1, 112404, Control_c, 0, 64, 66
1, 112419, Note_on_c, 0, 42, 36
1, 112424, Control_c, 0, 64, 36
1, 112479, Control_c, 0, 64, 49
1, 112507, Control_c, 0, 64, 66
1, 112526, Control_c, 0, 64, 83
1, 112528, Note_on_c, 0, 49, 0
1, 112545, Control_c, 0, 64, 102
1, 112563, Control_c, 0, 64, 120
1, 112579, Control_c, 0, 64, 127
1, 112730, Note_on_c, 0, 49, 36
1, 112783, Note_on_c, 0, 66, 0
1, 112871, Note_on_c, 0, 42, 0
1, 112994, Note_on_c, 0, 42, 46
1, 113045, Note_on_c, 0, 49, 0
1, 113183, Note_on_c, 0, 73, 0
1, 113229, Note_on_c, 0, 78, 0
1, 113260, Note_on_c, 0, 49, 46
1, 113309, Note_on_c, 0, 42, 0
1, 113317, Note_on_c, 0, 82, 0
1, 113509, Note_on_c, 0, 42, 54
1, 113638, Note_on_c, 0, 49, 0
1, 113762, Note_on_c, 0, 54, 47
1, 113821, Note_on_c, 0, 84, 80
1, 113844, Note_on_c, 0, 80, 63
1, 113850, Note_on_c, 0, 75, 53
1, 113852, Note_on_c, 0, 72, 49
1, 113883, Note_on_c, 0, 42, 0
1, 114106, Note_on_c, 0, 39, 55
1, 114221, Control_c, 0, 64, 112
1, 114226, Note_on_c, 0, 54, 0
1, 114239, Control_c, 0, 64, 77
1, 114257, Control_c, 0, 64, 45
1, 114275, Control_c, 0, 64, 39
1, 114294, Control_c, 0, 64, 42
1, 114313, Control_c, 0, 64, 56
1, 114332, Control_c, 0, 64, 71
1, 114350, Control_c, 0, 64, 88
1, 114370, Note_on_c, 0, 54, 60
1, 114378, Control_c, 0, 64, 110
1, 114397, Control_c, 0, 64, 127
1, 114471, Note_on_c, 0, 39, 0
1, 114625, Note_on_c, 0, 39, 65
1, 114683, Note_on_c, 0, 54, 0
1, 114697, Note_on_c, 0, 84, 0
1, 114723, Note_on_c, 0, 72, 0
1, 114877, Note_on_c, 0, 54, 62
1, 114920, Note_on_c, 0, 39, 0
1, 115010, Note_on_c, 0, 75, 0
1, 115093, Note_on_c, 0, 39, 62
1, 115129, Note_on_c, 0, 80, 0
1, 115195, Note_on_c, 0, 54, 0
1, 115368, Note_on_c, 0, 39, 0
1, 115371, Note_on_c, 0, 53, 64
1, 115467, Note_on_c, 0, 85, 89
1, 115482, Note_on_c, 0, 80, 69
1, 115488, Note_on_c, 0, 73, 65
1, 115496, Note_on_c, 0, 77, 60
1, 115572, Control_c, 0, 64, 110
1, 115592, Control_c, 0, 64, 78
1, 115610, Control_c, 0, 64, 45
1, 115628, Control_c, 0, 64, 32
1, 115636, Note_on_c, 0, 53, 0
1, 115684, Control_c, 0, 64, 41
1, 115703, Control_c, 0, 64, 55
1, 115722, Control_c, 0, 64, 74
1, 115739, Control_c, 0, 64, 94
1, 115743, Note_on_c, 0, 37, 71
1, 115758, Control_c, 0, 64, 118
1, 115776, Control_c, 0, 64, 127
1, 115868, Note_on_c, 0, 37, 0
1, 116001, Note_on_c, 0, 53, 71
1, 116061, Note_on_c, 0, 73, 0
1, 116064, Note_on_c, 0, 80, 0
1, 116116, Note_on_c, 0, 53, 0
1, 116208, Note_on_c, 0, 77, 0
1, 116248, Note_on_c, 0, 37, 80
1, 116278, Note_on_c, 0, 85, 0
1, 116333, Poly_aftertouch_c, 0, 41, 0
1, 116496, Note_on_c, 0, 51, 69
1, 116589, Note_on_c, 0, 87, 92
1, 116600, Note_on_c, 0, 80, 79
1, 116602, Note_on_c, 0, 75, 77
1, 116613, Note_on_c, 0, 78, 74
1, 116652, Note_on_c, 0, 37, 0
1, 116694, Control_c, 0, 64, 123
1, 116712, Control_c, 0, 64, 94
1, 116731, Control_c, 0, 64, 61
1, 116750, Control_c, 0, 64, 22
1, 116768, Control_c, 0, 64, 12
1, 116824, Control_c, 0, 64, 17
1, 116839, Note_on_c, 0, 36, 76
1, 116840, Control_c, 0, 64, 38
1, 116859, Control_c, 0, 64, 59
1, 116878, Note_on_c, 0, 51, 0
1, 116878, Control_c, 0, 64, 80
1, 116898, Control_c, 0, 64, 101
1, 116916, Control_c, 0, 64, 122
1, 116935, Control_c, 0, 64, 127
1, 117043, Note_on_c, 0, 75, 0
1, 117096, Note_on_c, 0, 51, 84
1, 117100, Note_on_c, 0, 87, 0
1, 117104, Note_on_c, 0, 36, 0
1, 117215, Note_on_c, 0, 78, 0
1, 117241, Note_on_c, 0, 80, 0
1, 117323, Note_on_c, 0, 51, 0
1, 117336, Note_on_c, 0, 36, 84
1, 117567, Note_on_c, 0, 49, 81
1, 117660, Note_on_c, 0, 89, 93
1, 117661, Note_on_c, 0, 77, 98
1, 117668, Note_on_c, 0, 80, 83
1, 117676, Note_on_c, 0, 85, 80
1, 117699, Note_on_c, 0, 36, 0
1, 117778, Control_c, 0, 64, 95
1, 117796, Control_c, 0, 64, 54
1, 117813, Control_c, 0, 64, 0
1, 117889, Control_c, 0, 64, 17
1, 117907, Control_c, 0, 64, 42
1, 117910, Note_on_c, 0, 35, 84
1, 117926, Control_c, 0, 64, 69
1, 117936, Note_on_c, 0, 49, 0
1, 117943, Control_c, 0, 64, 95
1, 117963, Control_c, 0, 64, 122
1, 117980, Control_c, 0, 64, 127
1, 118143, Note_on_c, 0, 77, 0
1, 118159, Note_on_c, 0, 89, 0
1, 118198, Note_on_c, 0, 49, 87
1, 118261, Note_on_c, 0, 35, 0
1, 118392, Note_on_c, 0, 49, 0
1, 118408, Note_on_c, 0, 80, 0
1, 118418, Note_on_c, 0, 35, 83
1, 118456, Note_on_c, 0, 85, 0
1, 118487, Note_on_c, 0, 35, 0
1, 118559, Note_on_c, 0, 38, 23
1, 118583, Note_on_c, 0, 34, 83
1, 118583, Control_c, 0, 64, 105
1, 118602, Control_c, 0, 64, 70
1, 118605, Note_on_c, 0, 38, 0
1, 118620, Control_c, 0, 64, 32
1, 118640, Control_c, 0, 64, 12
1, 118677, Control_c, 0, 64, 8
1, 118789, Control_c, 0, 64, 23
1, 118806, Control_c, 0, 64, 42
1, 118824, Control_c, 0, 64, 62
1, 118844, Control_c, 0, 64, 80
1, 118844, Note_on_c, 0, 90, 93
1, 118846, Note_on_c, 0, 78, 99
1, 118849, Note_on_c, 0, 49, 102
1, 118851, Note_on_c, 0, 85, 89
1, 118863, Control_c, 0, 64, 96
1, 118876, Note_on_c, 0, 34, 0
1, 118880, Control_c, 0, 64, 111
1, 118899, Control_c, 0, 64, 119
1, 118918, Note_on_c, 0, 49, 0
1, 118945, Poly_aftertouch_c, 0, 41, 0
1, 118953, Control_c, 0, 64, 125
1, 119259, Note_on_c, 0, 46, 71
1, 119299, Note_on_c, 0, 46, 0
1, 119311, Note_on_c, 0, 61, 88
1, 119341, Note_on_c, 0, 61, 0
1, 119356, Note_on_c, 0, 78, 0
1, 119378, Note_on_c, 0, 52, 25
1, 119405, Note_on_c, 0, 48, 75
1, 119408, Note_on_c, 0, 55, 17
1, 119419, Note_on_c, 0, 87, 81
1, 119424, Note_on_c, 0, 78, 80
1, 119430, Note_on_c, 0, 80, 86
1, 119433, Note_on_c, 0, 52, 0
1, 119443, Note_on_c, 0, 63, 96
1, 119465, Note_on_c, 0, 85, 0
1, 119481, Control_c, 0, 64, 88
1, 119500, Control_c, 0, 64, 30
1, 119518, Control_c, 0, 64, 0
1, 119535, Note_on_c, 0, 55, 0
1, 119630, Control_c, 0, 64, 26
1, 119651, Control_c, 0, 64, 65
1, 119665, Note_on_c, 0, 48, 0
1, 119666, Control_c, 0, 64, 96
1, 119685, Control_c, 0, 64, 126
1, 119782, Note_on_c, 0, 80, 0
1, 119804, Note_on_c, 0, 63, 0
1, 119842, Note_on_c, 0, 90, 0
1, 119854, Note_on_c, 0, 78, 0
1, 119865, Note_on_c, 0, 87, 0
1, 119903, Note_on_c, 0, 49, 66
1, 119945, Control_c, 0, 64, 120
1, 119948, Note_on_c, 0, 56, 73
1, 119966, Control_c, 0, 64, 74
1, 119975, Note_on_c, 0, 49, 0
1, 119992, Control_c, 0, 64, 0
1, 120017, Note_on_c, 0, 65, 89
1, 120018, Note_on_c, 0, 89, 86
1, 120025, Note_on_c, 0, 77, 95
1, 120026, Note_on_c, 0, 85, 87
1, 120026, Note_on_c, 0, 80, 91
1, 120046, Control_c, 0, 64, 41
1, 120066, Control_c, 0, 64, 78
1, 120074, Note_on_c, 0, 65, 0
1, 120079, Note_on_c, 0, 56, 0
1, 120084, Control_c, 0, 64, 109
1, 120102, Control_c, 0, 64, 127
1, 120127, Note_on_c, 0, 77, 0
1, 120149, Note_on_c, 0, 89, 0
1, 120233, Note_on_c, 0, 80, 0
1, 120265, Note_on_c, 0, 85, 0
1, 120326, Control_c, 0, 64, 91
1, 120343, Control_c, 0, 64, 51
1, 120362, Control_c, 0, 64, 0
1, 120375, Note_on_c, 0, 34, 76
1, 120585, Control_c, 0, 64, 15
1, 120599, Note_on_c, 0, 49, 101
1, 120601, Note_on_c, 0, 82, 103
1, 120602, Control_c, 0, 64, 37
1, 120603, Note_on_c, 0, 94, 95
1, 120606, Note_on_c, 0, 90, 91
1, 120606, Note_on_c, 0, 85, 94
1, 120623, Control_c, 0, 64, 66
1, 120626, Note_on_c, 0, 34, 0
1, 120640, Control_c, 0, 64, 96
1, 120658, Control_c, 0, 64, 127
1, 120668, Note_on_c, 0, 49, 0
1, 120669, Note_on_c, 0, 82, 0
1, 120676, Note_on_c, 0, 94, 0
1, 120709, Note_on_c, 0, 90, 0
1, 120713, Note_on_c, 0, 85, 0
1, 120971, Note_on_c, 0, 46, 78
1, 121045, Note_on_c, 0, 61, 87
1, 121051, Note_on_c, 0, 46, 0
1, 121067, Note_on_c, 0, 85, 62
1, 121074, Note_on_c, 0, 78, 92
1, 121076, Note_on_c, 0, 90, 92
1, 121113, Note_on_c, 0, 85, 0
1, 121121, Note_on_c, 0, 61, 0
1, 121121, Note_on_c, 0, 78, 0
1, 121152, Note_on_c, 0, 48, 81
1, 121169, Note_on_c, 0, 87, 72
1, 121172, Note_on_c, 0, 78, 85
1, 121174, Note_on_c, 0, 80, 96
1, 121182, Poly_aftertouch_c, 0, 52, 0
1, 121191, Note_on_c, 0, 63, 87
1, 121223, Control_c, 0, 64, 119
1, 121241, Control_c, 0, 64, 78
1, 121261, Control_c, 0, 64, 8
1, 121276, Poly_aftertouch_c, 0, 55, 0
1, 121280, Control_c, 0, 64, 0
1, 121371, Control_c, 0, 64, 14
1, 121390, Control_c, 0, 64, 53
1, 121409, Control_c, 0, 64, 89
1, 121415, Note_on_c, 0, 48, 0
1, 121427, Control_c, 0, 64, 118
1, 121446, Control_c, 0, 64, 127
1, 121527, Note_on_c, 0, 80, 0
1, 121538, Note_on_c, 0, 63, 0
1, 121596, Note_on_c, 0, 78, 0
1, 121602, Note_on_c, 0, 87, 0
1, 121610, Note_on_c, 0, 90, 0
1, 121640, Note_on_c, 0, 49, 65
1, 121679, Poly_aftertouch_c, 0, 90, 0
1, 121703, Note_on_c, 0, 56, 66
1, 121703, Control_c, 0, 64, 99
1, 121723, Control_c, 0, 64, 50
1, 121725, Note_on_c, 0, 49, 0
1, 121742, Control_c, 0, 64, 0
1, 121769, Note_on_c, 0, 65, 86
1, 121778, Control_c, 0, 64, 24
1, 121779, Note_on_c, 0, 89, 87
1, 121782, Note_on_c, 0, 77, 97
1, 121785, Note_on_c, 0, 80, 86
1, 121786, Note_on_c, 0, 85, 85
1, 121799, Control_c, 0, 64, 51
1, 121816, Control_c, 0, 64, 83
1, 121827, Note_on_c, 0, 65, 0
1, 121835, Control_c, 0, 64, 109
1, 121844, Note_on_c, 0, 56, 0
1, 121864, Control_c, 0, 64, 127
1, 121928, Note_on_c, 0, 77, 0
1, 121933, Note_on_c, 0, 89, 0
1, 122038, Note_on_c, 0, 80, 0
1, 122080, Note_on_c, 0, 85, 0
1, 122159, Control_c, 0, 64, 119
1, 122177, Control_c, 0, 64, 82
1, 122192, Note_on_c, 0, 34, 84
1, 122196, Control_c, 0, 64, 38
1, 122215, Control_c, 0, 64, 0
1, 122437, Control_c, 0, 64, 18
1, 122457, Control_c, 0, 64, 42
1, 122466, Note_on_c, 0, 49, 99
1, 122468, Note_on_c, 0, 85, 106
1, 122468, Note_on_c, 0, 97, 98
1, 122473, Note_on_c, 0, 94, 95
1, 122474, Note_on_c, 0, 90, 95
1, 122476, Control_c, 0, 64, 73
1, 122488, Note_on_c, 0, 34, 0
1, 122495, Control_c, 0, 64, 99
1, 122511, Control_c, 0, 64, 127
1, 122536, Note_on_c, 0, 49, 0
1, 122538, Note_on_c, 0, 85, 0
1, 122539, Note_on_c, 0, 97, 0
1, 122572, Note_on_c, 0, 90, 0
1, 122581, Note_on_c, 0, 94, 0
1, 122894, Note_on_c, 0, 46, 76
1, 122993, Note_on_c, 0, 61, 85
1, 123016, Note_on_c, 0, 82, 99
1, 123019, Note_on_c, 0, 94, 93
1, 123023, Note_on_c, 0, 46, 0
1, 123035, Note_on_c, 0, 89, 70
1, 123042, Note_on_c, 0, 94, 0
1, 123044, Note_on_c, 0, 61, 0
1, 123056, Note_on_c, 0, 82, 0
1, 123056, Note_on_c, 0, 89, 0
1, 123099, Note_on_c, 0, 47, 86
1, 123107, Note_on_c, 0, 92, 28
1, 123108, Note_on_c, 0, 92, 0
1, 123151, Control_c, 0, 64, 104
1, 123154, Note_on_c, 0, 47, 0
1, 123157, Note_on_c, 0, 89, 74
1, 123161, Note_on_c, 0, 80, 98
1, 123170, Control_c, 0, 64, 35
1, 123180, Note_on_c, 0, 62, 93
1, 123189, Control_c, 0, 64, 0
1, 123203, Note_on_c, 0, 55, 42
1, 123232, Poly_aftertouch_c, 0, 50, 0
1, 123244, Control_c, 0, 64, 56
1, 123246, Note_on_c, 0, 55, 0
1, 123261, Poly_aftertouch_c, 0, 48, 0
1, 123262, Control_c, 0, 64, 108
1, 123280, Control_c, 0, 64, 127
1, 123316, Poly_aftertouch_c, 0, 52, 0
1, 123318, Note_on_c, 0, 62, 0
1, 123344, Poly_aftertouch_c, 0, 92, 0
1, 123357, Note_on_c, 0, 89, 0
1, 123381, Note_on_c, 0, 80, 0
1, 123407, Note_on_c, 0, 48, 72
1, 123466, Control_c, 0, 64, 92
1, 123473, Note_on_c, 0, 48, 0
1, 123487, Control_c, 0, 64, 27
1, 123493, Note_on_c, 0, 90, 95
1, 123496, Note_on_c, 0, 78, 98
1, 123502, Note_on_c, 0, 87, 83
1, 123505, Control_c, 0, 64, 0
1, 123511, Note_on_c, 0, 63, 94
1, 123540, Control_c, 0, 64, 46
1, 123560, Control_c, 0, 64, 89
1, 123578, Control_c, 0, 64, 127
1, 123630, Note_on_c, 0, 63, 0
1, 123635, Note_on_c, 0, 87, 0
1, 123637, Note_on_c, 0, 49, 79
1, 123682, Note_on_c, 0, 78, 0
1, 123696, Note_on_c, 0, 90, 0
1, 123708, Note_on_c, 0, 49, 0
1, 123753, Control_c, 0, 64, 78
1, 123773, Control_c, 0, 64, 0
1, 123779, Note_on_c, 0, 65, 72
1, 123780, Note_on_c, 0, 89, 90
1, 123783, Note_on_c, 0, 77, 95
1, 123783, Note_on_c, 0, 85, 85
1, 123830, Control_c, 0, 64, 36
1, 123848, Control_c, 0, 64, 80
1, 123867, Control_c, 0, 64, 125
1, 123902, Note_on_c, 0, 65, 0
1, 123925, Note_on_c, 0, 77, 0
1, 123933, Note_on_c, 0, 89, 0
1, 123948, Note_on_c, 0, 51, 66
1, 124014, Control_c, 0, 64, 116
1, 124033, Control_c, 0, 64, 56
1, 124050, Control_c, 0, 64, 0
1, 124056, Note_on_c, 0, 66, 87
1, 124058, Note_on_c, 0, 75, 101
1, 124060, Note_on_c, 0, 87, 92
1, 124082, Note_on_c, 0, 51, 0
1, 124088, Control_c, 0, 64, 46
1, 124106, Control_c, 0, 64, 88
1, 124124, Control_c, 0, 64, 127
1, 124195, Note_on_c, 0, 87, 0
1, 124202, Note_on_c, 0, 85, 0
1, 124223, Note_on_c, 0, 66, 0
1, 124245, Note_on_c, 0, 75, 0
1, 124275, Note_on_c, 0, 53, 69
1, 124384, Control_c, 0, 64, 98
1, 124394, Note_on_c, 0, 73, 97
1, 124395, Note_on_c, 0, 85, 90
1, 124399, Note_on_c, 0, 80, 76
1, 124403, Control_c, 0, 64, 41
1, 124407, Note_on_c, 0, 68, 86
1, 124422, Control_c, 0, 64, 0
1, 124479, Control_c, 0, 64, 32
1, 124497, Control_c, 0, 64, 72
1, 124515, Note_on_c, 0, 53, 0
1, 124515, Control_c, 0, 64, 112
1, 124534, Control_c, 0, 64, 127
1, 124671, Note_on_c, 0, 68, 0
1, 124675, Note_on_c, 0, 73, 0
1, 124699, Note_on_c, 0, 55, 75
1, 124728, Control_c, 0, 64, 112
1, 124747, Control_c, 0, 64, 55
1, 124761, Note_on_c, 0, 75, 99
1, 124764, Note_on_c, 0, 87, 93
1, 124765, Note_on_c, 0, 82, 80
1, 124767, Control_c, 0, 64, 0
1, 124773, Note_on_c, 0, 70, 88
1, 124804, Note_on_c, 0, 80, 0
1, 124813, Note_on_c, 0, 85, 0
1, 124819, Control_c, 0, 64, 47
1, 124832, Note_on_c, 0, 55, 0
1, 124839, Control_c, 0, 64, 86
1, 124856, Control_c, 0, 64, 121
1, 124875, Control_c, 0, 64, 127
1, 124962, Note_on_c, 0, 82, 0
1, 124963, Note_on_c, 0, 87, 0
1, 125060, Note_on_c, 0, 70, 0
1, 125099, Note_on_c, 0, 75, 0
1, 125212, Note_on_c, 0, 56, 77
1, 125213, Note_on_c, 0, 85, 93
1, 125213, Note_on_c, 0, 68, 92
1, 125214, Note_on_c, 0, 73, 97
1, 125217, Note_on_c, 0, 63, 85
1, 125218, Note_on_c, 0, 80, 85
1, 125219, Note_on_c, 0, 75, 90
1, 125264, Control_c, 0, 64, 116
1, 125285, Control_c, 0, 64, 67
1, 125301, Control_c, 0, 64, 0
1, 125449, Control_c, 0, 64, 38
1, 125468, Control_c, 0, 64, 71
1, 125488, Control_c, 0, 64, 90
1, 125499, Note_on_c, 0, 56, 0
1, 125505, Control_c, 0, 64, 110
1, 125523, Control_c, 0, 64, 125
1, 125541, Note_on_c, 0, 68, 0
1, 125653, Note_on_c, 0, 63, 0
1, 125681, Note_on_c, 0, 85, 0
1, 125746, Note_on_c, 0, 73, 0
1, 126021, Note_on_c, 0, 84, 88
1, 126022, Note_on_c, 0, 72, 88
1, 126061, Note_on_c, 0, 75, 0
1, 126067, Note_on_c, 0, 80, 0
1, 126456, Note_on_c, 0, 84, 0
1, 126483, Note_on_c, 0, 41, 87
1, 126487, Note_on_c, 0, 72, 0
1, 126516, Control_c, 0, 64, 79
1, 126542, Control_c, 0, 64, 19
1, 126560, Control_c, 0, 64, 0
1, 126579, Control_c, 0, 64, 33
1, 126598, Control_c, 0, 64, 65
1, 126617, Control_c, 0, 64, 98
1, 126623, Note_on_c, 0, 41, 0
1, 126624, Note_on_c, 0, 56, 92
1, 126635, Note_on_c, 0, 85, 93
1, 126636, Control_c, 0, 64, 127
1, 126637, Note_on_c, 0, 73, 98
1, 126637, Note_on_c, 0, 80, 90
1, 126701, Note_on_c, 0, 83, 12
1, 126735, Note_on_c, 0, 73, 0
1, 126773, Note_on_c, 0, 83, 0
1, 126793, Note_on_c, 0, 56, 0
1, 126816, Note_on_c, 0, 43, 85
1, 126818, Note_on_c, 0, 80, 0
1, 126826, Note_on_c, 0, 85, 0
1, 126839, Control_c, 0, 64, 87
1, 126858, Control_c, 0, 64, 0
1, 126901, Note_on_c, 0, 43, 0
1, 126908, Note_on_c, 0, 89, 98
1, 126910, Note_on_c, 0, 77, 97
1, 126912, Control_c, 0, 64, 24
1, 126918, Note_on_c, 0, 58, 97
1, 126932, Control_c, 0, 64, 65
1, 126950, Control_c, 0, 64, 107
1, 126965, Note_on_c, 0, 77, 0
1, 126968, Control_c, 0, 64, 127
1, 126973, Note_on_c, 0, 89, 0
1, 127013, Poly_aftertouch_c, 0, 50, 0
1, 127062, Note_on_c, 0, 87, 95
1, 127064, Note_on_c, 0, 75, 99
1, 127069, Note_on_c, 0, 82, 86
1, 127110, Note_on_c, 0, 58, 0
1, 127139, Note_on_c, 0, 82, 0
1, 127145, Note_on_c, 0, 87, 0
1, 127195, Note_on_c, 0, 75, 0
1, 127198, Note_on_c, 0, 51, 16
1, 127264, Note_on_c, 0, 44, 94
1, 127288, Note_on_c, 0, 51, 0
1, 127378, Control_c, 0, 64, 110
1, 127379, Note_on_c, 0, 80, 53
1, 127387, Note_on_c, 0, 85, 88
1, 127390, Note_on_c, 0, 73, 86
1, 127397, Note_on_c, 0, 75, 81
1, 127397, Control_c, 0, 64, 68
1, 127415, Control_c, 0, 64, 0
1, 127527, Note_on_c, 0, 51, 78
1, 127553, Control_c, 0, 64, 41
1, 127571, Control_c, 0, 64, 75
1, 127582, Note_on_c, 0, 44, 0
1, 127591, Control_c, 0, 64, 110
1, 127609, Control_c, 0, 64, 127
1, 127654, Note_on_c, 0, 56, 80
1, 127789, Note_on_c, 0, 63, 83
1, 127943, Note_on_c, 0, 85, 0
1, 128141, Note_on_c, 0, 73, 0
1, 128385, Note_on_c, 0, 84, 77
1, 128395, Note_on_c, 0, 72, 49
1, 128507, Control_c, 0, 64, 105
1, 128525, Control_c, 0, 64, 69
1, 128545, Control_c, 0, 64, 36
1, 128582, Control_c, 0, 64, 41
1, 128598, Control_c, 0, 64, 56
1, 128619, Control_c, 0, 64, 70
1, 128636, Control_c, 0, 64, 87
1, 128640, Control_c, 0, 67, 8
1, 128655, Control_c, 0, 64, 115
1, 128673, Control_c, 0, 64, 127
1, 128821, Control_c, 0, 67, 12
1, 128845, Note_on_c, 0, 72, 0
1, 128877, Control_c, 0, 67, 16
1, 128914, Note_on_c, 0, 51, 0
1, 128934, Note_on_c, 0, 63, 0
1, 128952, Note_on_c, 0, 75, 0
1, 128953, Note_on_c, 0, 80, 0
1, 128972, Note_on_c, 0, 56, 0
1, 129100, Control_c, 0, 67, 23
1, 129137, Control_c, 0, 67, 32
1, 129154, Control_c, 0, 67, 46
1, 129173, Control_c, 0, 67, 62
1, 129192, Control_c, 0, 67, 74
1, 129210, Control_c, 0, 67, 80
1, 129228, Control_c, 0, 67, 84
1, 129572, Note_on_c, 0, 80, 76
1, 129577, Note_on_c, 0, 75, 39
1, 129590, Note_on_c, 0, 72, 43
1, 129646, Control_c, 0, 64, 102
1, 129666, Control_c, 0, 64, 66
1, 129685, Control_c, 0, 64, 44
1, 129703, Control_c, 0, 64, 48
1, 129718, Control_c, 0, 64, 61
1, 129738, Control_c, 0, 64, 73
1, 129742, Note_on_c, 0, 84, 0
1, 129747, Note_on_c, 0, 72, 0
1, 129757, Control_c, 0, 64, 89
1, 129777, Control_c, 0, 64, 118
1, 129794, Control_c, 0, 64, 127
1, 129879, Note_on_c, 0, 56, 50
1, 129967, Note_on_c, 0, 56, 0
1, 130144, Control_c, 0, 67, 80
1, 130157, Note_on_c, 0, 72, 33
1, 130213, Note_on_c, 0, 72, 0
1, 130347, Note_on_c, 0, 56, 48
1, 130417, Note_on_c, 0, 56, 0
1, 130470, Control_c, 0, 67, 76
1, 130544, Control_c, 0, 67, 71
1, 130575, Note_on_c, 0, 72, 36
1, 130619, Control_c, 0, 67, 67
1, 130623, Note_on_c, 0, 72, 0
1, 130654, Control_c, 0, 67, 62
1, 130694, Control_c, 0, 67, 55
1, 130712, Control_c, 0, 67, 49
1, 130729, Control_c, 0, 67, 43
1, 130739, Note_on_c, 0, 56, 50
1, 130748, Control_c, 0, 67, 37
1, 130768, Control_c, 0, 67, 30
1, 130786, Control_c, 0, 67, 25
1, 130805, Control_c, 0, 67, 21
1, 130840, Control_c, 0, 67, 14
1, 130856, Note_on_c, 0, 56, 0
1, 130877, Control_c, 0, 67, 10
1, 130949, Note_on_c, 0, 71, 28
1, 130953, Note_on_c, 0, 79, 65
1, 130997, Note_on_c, 0, 74, 32
1, 131044, Control_c, 0, 67, 0
1, 131058, Note_on_c, 0, 71, 0
1, 131094, Note_on_c, 0, 74, 0
1, 131094, Note_on_c, 0, 74, 6
1, 131122, Note_on_c, 0, 56, 49
1, 131153, Note_on_c, 0, 75, 0
1, 131193, Note_on_c, 0, 80, 0
1, 131252, Note_on_c, 0, 56, 0
1, 131320, Note_on_c, 0, 71, 49
1, 131376, Note_on_c, 0, 71, 0
1, 131437, Note_on_c, 0, 56, 51
1, 131563, Note_on_c, 0, 56, 0
1, 131567, Note_on_c, 0, 74, 0
1, 131576, Note_on_c, 0, 70, 57
1, 131576, Note_on_c, 0, 78, 76
1, 131587, Note_on_c, 0, 73, 59
1, 131650, Note_on_c, 0, 79, 0
1, 131691, Note_on_c, 0, 73, 0
1, 131707, Note_on_c, 0, 70, 0
1, 131712, Note_on_c, 0, 56, 57
1, 131751, Note_on_c, 0, 72, 53
1, 131814, Note_on_c, 0, 78, 0
1, 131959, Note_on_c, 0, 69, 38
1, 132105, Note_on_c, 0, 84, 70
1, 132110, Control_c, 0, 64, 121
1, 132127, Note_on_c, 0, 56, 0
1, 132128, Control_c, 0, 64, 88
1, 132156, Control_c, 0, 64, 51
1, 132175, Control_c, 0, 64, 30
1, 132212, Control_c, 0, 64, 36
1, 132232, Control_c, 0, 64, 48
1, 132249, Control_c, 0, 64, 65
1, 132268, Control_c, 0, 64, 81
1, 132277, Note_on_c, 0, 72, 0
1, 132287, Control_c, 0, 64, 101
1, 132292, Note_on_c, 0, 69, 0
1, 132306, Control_c, 0, 64, 124
1, 132307, Note_on_c, 0, 56, 47
1, 132495, Note_on_c, 0, 77, 59
1, 132496, Note_on_c, 0, 84, 0
1, 132497, Note_on_c, 0, 56, 0
1, 132511, Note_on_c, 0, 68, 45
1, 132512, Note_on_c, 0, 71, 45
1, 132568, Note_on_c, 0, 71, 0
1, 132628, Note_on_c, 0, 77, 0
1, 132654, Note_on_c, 0, 56, 55
1, 132721, Note_on_c, 0, 70, 60
1, 132732, Note_on_c, 0, 68, 0
1, 132762, Note_on_c, 0, 76, 66
1, 132804, Note_on_c, 0, 67, 48
1, 132805, Note_on_c, 0, 56, 0
1, 132811, Note_on_c, 0, 82, 77
1, 132824, Control_c, 0, 64, 112
1, 132843, Control_c, 0, 64, 78
1, 132862, Control_c, 0, 64, 65
1, 132879, Control_c, 0, 64, 72
1, 132900, Control_c, 0, 64, 82
1, 132918, Control_c, 0, 64, 98
1, 132935, Control_c, 0, 64, 125
1, 132949, Note_on_c, 0, 76, 0
1, 132957, Note_on_c, 0, 56, 61
1, 133004, Note_on_c, 0, 70, 0
1, 133015, Note_on_c, 0, 67, 0
1, 133114, Note_on_c, 0, 66, 53
1, 133125, Note_on_c, 0, 56, 0
1, 133126, Note_on_c, 0, 75, 74
1, 133129, Note_on_c, 0, 69, 65
1, 133186, Note_on_c, 0, 82, 0
1, 133207, Note_on_c, 0, 69, 0
1, 133266, Note_on_c, 0, 56, 65
1, 133329, Note_on_c, 0, 66, 0
1, 133381, Note_on_c, 0, 68, 54
1, 133383, Note_on_c, 0, 74, 62
1, 133438, Note_on_c, 0, 80, 78
1, 133448, Note_on_c, 0, 65, 47
1, 133452, Note_on_c, 0, 56, 0
1, 133462, Control_c, 0, 64, 107
1, 133480, Control_c, 0, 64, 68
1, 133491, Note_on_c, 0, 75, 0
1, 133498, Control_c, 0, 64, 27
1, 133518, Control_c, 0, 64, 22
1, 133536, Control_c, 0, 64, 29
1, 133540, Poly_aftertouch_c, 0, 78, 0
1, 133555, Control_c, 0, 64, 48
1, 133563, Note_on_c, 0, 74, 0
1, 133574, Control_c, 0, 64, 71
1, 133593, Control_c, 0, 64, 93
1, 133610, Control_c, 0, 64, 119
1, 133611, Note_on_c, 0, 56, 58
1, 133630, Control_c, 0, 64, 127
1, 133652, Note_on_c, 0, 68, 0
1, 133763, Note_on_c, 0, 64, 54
1, 133765, Note_on_c, 0, 56, 0
1, 133779, Note_on_c, 0, 73, 71
1, 133781, Note_on_c, 0, 67, 59
1, 133797, Note_on_c, 0, 65, 0
1, 133871, Note_on_c, 0, 80, 0
1, 133921, Note_on_c, 0, 56, 57
1, 133925, Note_on_c, 0, 67, 0
1, 134159, Note_on_c, 0, 63, 46
1, 134185, Note_on_c, 0, 64, 0
1, 134261, Note_on_c, 0, 56, 0
1, 134277, Note_on_c, 0, 66, 59
1, 134297, Note_on_c, 0, 78, 60
1, 134311, Note_on_c, 0, 72, 52
1, 134343, Control_c, 0, 64, 110
1, 134363, Control_c, 0, 64, 77
1, 134381, Control_c, 0, 64, 43
1, 134398, Note_on_c, 0, 73, 0
1, 134398, Control_c, 0, 64, 30
1, 134437, Control_c, 0, 64, 39
1, 134456, Control_c, 0, 64, 56
1, 134457, Note_on_c, 0, 56, 35
1, 134474, Control_c, 0, 64, 76
1, 134493, Control_c, 0, 64, 98
1, 134508, Note_on_c, 0, 63, 0
1, 134512, Control_c, 0, 64, 125
1, 134667, Note_on_c, 0, 63, 54
1, 134688, Note_on_c, 0, 56, 0
1, 134796, Note_on_c, 0, 63, 0
1, 134831, Note_on_c, 0, 56, 55
1, 134901, Control_c, 0, 67, 8
1, 134983, Note_on_c, 0, 64, 55
1, 134995, Note_on_c, 0, 67, 70
1, 135001, Note_on_c, 0, 66, 0
1, 135001, Control_c, 0, 67, 12
1, 135005, Note_on_c, 0, 56, 0
1, 135077, Control_c, 0, 67, 16
1, 135101, Note_on_c, 0, 72, 0
1, 135132, Control_c, 0, 67, 21
1, 135165, Note_on_c, 0, 64, 0
1, 135170, Control_c, 0, 67, 25
1, 135177, Note_on_c, 0, 56, 46
1, 135373, Control_c, 0, 67, 29
1, 135444, Note_on_c, 0, 65, 40
1, 135468, Note_on_c, 0, 72, 52
1, 135471, Note_on_c, 0, 68, 51
1, 135476, Note_on_c, 0, 56, 0
1, 135583, Note_on_c, 0, 78, 0
1, 135596, Control_c, 0, 64, 109
1, 135597, Control_c, 0, 67, 33
1, 135613, Control_c, 0, 64, 75
1, 135632, Control_c, 0, 64, 37
1, 135639, Note_on_c, 0, 67, 0
1, 135652, Control_c, 0, 64, 10
1, 135653, Control_c, 0, 67, 38
1, 135686, Note_on_c, 0, 56, 31
1, 135687, Control_c, 0, 67, 42
1, 135707, Control_c, 0, 64, 24
1, 135711, Note_on_c, 0, 65, 0
1, 135724, Control_c, 0, 64, 41
1, 135726, Control_c, 0, 67, 47
1, 135744, Control_c, 0, 64, 60
1, 135761, Control_c, 0, 64, 83
1, 135763, Control_c, 0, 67, 52
1, 135780, Control_c, 0, 64, 101
1, 135800, Control_c, 0, 64, 116
1, 135801, Control_c, 0, 67, 56
1, 135817, Control_c, 0, 64, 122
1, 135836, Control_c, 0, 64, 127
1, 135837, Control_c, 0, 67, 60
1, 135872, Control_c, 0, 67, 65
1, 135876, Note_on_c, 0, 65, 37
1, 135919, Control_c, 0, 67, 71
1, 135957, Control_c, 0, 67, 77
1, 135959, Note_on_c, 0, 56, 0
1, 135993, Control_c, 0, 67, 83
1, 136031, Control_c, 0, 67, 88
1, 136068, Control_c, 0, 67, 93
1, 136109, Note_on_c, 0, 56, 35
1, 136123, Control_c, 0, 67, 98
1, 136135, Note_on_c, 0, 65, 0
1, 136178, Control_c, 0, 67, 102
1, 136254, Control_c, 0, 67, 106
1, 136296, Note_on_c, 0, 56, 0
1, 136297, Note_on_c, 0, 63, 43
1, 136306, Note_on_c, 0, 66, 43
1, 136344, Control_c, 0, 67, 110
1, 136386, Note_on_c, 0, 68, 0
1, 136420, Control_c, 0, 67, 114
1, 136491, Control_c, 0, 67, 119
1, 136495, Note_on_c, 0, 56, 32
1, 136512, Control_c, 0, 67, 124
1, 136533, Note_on_c, 0, 63, 0
1, 136564, Note_on_c, 0, 66, 0
1, 136824, Note_on_c, 0, 56, 0
1, 136829, Note_on_c, 0, 60, 25
1, 136929, Control_c, 0, 64, 103
1, 136933, Note_on_c, 0, 68, 58
1, 136948, Note_on_c, 0, 63, 40
1, 136948, Control_c, 0, 64, 64
1, 136966, Control_c, 0, 64, 30
1, 137003, Control_c, 0, 64, 38
1, 137023, Control_c, 0, 64, 54
1, 137039, Control_c, 0, 64, 74
1, 137059, Control_c, 0, 64, 92
1, 137065, Note_on_c, 0, 72, 0
1, 137067, Note_on_c, 0, 60, 0
1, 137077, Control_c, 0, 64, 118
1, 137095, Control_c, 0, 64, 127
1, 137175, Note_on_c, 0, 44, 47
1, 137243, Note_on_c, 0, 44, 0
1, 137400, Note_on_c, 0, 60, 51
1, 137459, Note_on_c, 0, 60, 0
1, 137591, Note_on_c, 0, 44, 43
1, 137628, Note_on_c, 0, 44, 0
1, 137754, Note_on_c, 0, 60, 54
1, 137834, Note_on_c, 0, 60, 0
1, 137845, Control_c, 0, 67, 117
1, 137865, Control_c, 0, 67, 112
1, 137882, Control_c, 0, 67, 105
1, 137902, Control_c, 0, 67, 95
1, 137921, Control_c, 0, 67, 81
1, 137935, Note_on_c, 0, 44, 54
1, 137939, Control_c, 0, 67, 65
1, 137959, Control_c, 0, 67, 46
1, 137975, Control_c, 0, 67, 27
1, 137994, Control_c, 0, 67, 11
1, 138031, Control_c, 0, 67, 0
1, 138041, Note_on_c, 0, 44, 0
1, 138130, Note_on_c, 0, 67, 67
1, 138131, Note_on_c, 0, 59, 48
1, 138150, Note_on_c, 0, 62, 48
1, 138291, Note_on_c, 0, 59, 0
1, 138296, Note_on_c, 0, 63, 0
1, 138308, Note_on_c, 0, 44, 56
1, 138415, Note_on_c, 0, 44, 0
1, 138482, Note_on_c, 0, 59, 54
1, 138523, Poly_aftertouch_c, 0, 68, 22
1, 138566, Note_on_c, 0, 59, 0
1, 138611, Note_on_c, 0, 44, 57
1, 138766, Note_on_c, 0, 62, 0
1, 138795, Note_on_c, 0, 66, 74
1, 138798, Note_on_c, 0, 44, 0
1, 138799, Note_on_c, 0, 58, 49
1, 138809, Poly_aftertouch_c, 0, 68, 20
1, 138811, Note_on_c, 0, 61, 56
1, 138833, Note_on_c, 0, 68, 0
1, 138833, Poly_aftertouch_c, 0, 68, 0
1, 138867, Note_on_c, 0, 67, 0
1, 138895, Note_on_c, 0, 61, 0
1, 138946, Note_on_c, 0, 44, 59
1, 138948, Note_on_c, 0, 60, 57
1, 138978, Note_on_c, 0, 58, 0
1, 139011, Note_on_c, 0, 66, 0
1, 139216, Note_on_c, 0, 57, 47
1, 139353, Note_on_c, 0, 72, 69
1, 139386, Note_on_c, 0, 44, 0
1, 139392, Control_c, 0, 64, 118
1, 139413, Control_c, 0, 64, 85
1, 139430, Control_c, 0, 64, 52
1, 139450, Control_c, 0, 64, 36
1, 139486, Control_c, 0, 64, 44
1, 139504, Control_c, 0, 64, 57
1, 139523, Control_c, 0, 64, 72
1, 139541, Control_c, 0, 64, 87
1, 139542, Note_on_c, 0, 60, 0
1, 139560, Control_c, 0, 64, 110
1, 139574, Note_on_c, 0, 57, 0
1, 139575, Note_on_c, 0, 44, 47
1, 139579, Control_c, 0, 64, 127
1, 139762, Note_on_c, 0, 44, 0
1, 139772, Note_on_c, 0, 56, 46
1, 139776, Note_on_c, 0, 65, 59
1, 139783, Note_on_c, 0, 72, 0
1, 139787, Note_on_c, 0, 59, 45
1, 139849, Note_on_c, 0, 59, 0
1, 139870, Note_on_c, 0, 65, 0
1, 139914, Note_on_c, 0, 44, 55
1, 139949, Note_on_c, 0, 56, 0
1, 140010, Note_on_c, 0, 58, 53
1, 140047, Note_on_c, 0, 64, 62
1, 140097, Note_on_c, 0, 55, 47
1, 140113, Note_on_c, 0, 44, 0
1, 140122, Note_on_c, 0, 70, 78
1, 140144, Control_c, 0, 64, 107
1, 140162, Control_c, 0, 64, 72
1, 140181, Control_c, 0, 64, 39
1, 140217, Control_c, 0, 64, 41
1, 140235, Control_c, 0, 64, 54
1, 140239, Note_on_c, 0, 64, 0
1, 140253, Control_c, 0, 64, 70
1, 140272, Control_c, 0, 64, 88
1, 140277, Note_on_c, 0, 44, 48
1, 140292, Control_c, 0, 64, 115
1, 140309, Control_c, 0, 64, 127
1, 140315, Note_on_c, 0, 58, 0
1, 140409, Note_on_c, 0, 55, 0
1, 140453, Note_on_c, 0, 44, 0
1, 140453, Note_on_c, 0, 54, 44
1, 140473, Note_on_c, 0, 57, 51
1, 140474, Note_on_c, 0, 63, 64
1, 140529, Note_on_c, 0, 70, 0
1, 140551, Control_c, 0, 67, 8
1, 140567, Note_on_c, 0, 57, 0
1, 140598, Control_c, 0, 67, 13
1, 140634, Control_c, 0, 67, 20
1, 140635, Note_on_c, 0, 44, 49
1, 140653, Control_c, 0, 67, 24
1, 140671, Control_c, 0, 67, 28
1, 140690, Control_c, 0, 67, 33
1, 140699, Note_on_c, 0, 54, 0
1, 140709, Control_c, 0, 67, 39
1, 140727, Control_c, 0, 67, 45
1, 140746, Control_c, 0, 67, 52
1, 140764, Control_c, 0, 67, 59
1, 140782, Control_c, 0, 67, 67
1, 140787, Note_on_c, 0, 56, 39
1, 140791, Note_on_c, 0, 62, 48
1, 140800, Control_c, 0, 67, 73
1, 140819, Control_c, 0, 67, 78
1, 140847, Note_on_c, 0, 53, 36
1, 140849, Note_on_c, 0, 68, 60
1, 140856, Control_c, 0, 67, 82
1, 140876, Control_c, 0, 64, 122
1, 140887, Note_on_c, 0, 63, 0
1, 140893, Note_on_c, 0, 44, 0
1, 140894, Control_c, 0, 64, 89
1, 140913, Control_c, 0, 64, 52
1, 140916, Control_c, 0, 67, 86
1, 140932, Control_c, 0, 64, 9
1, 140949, Poly_aftertouch_c, 0, 66, 0
1, 140950, Control_c, 0, 64, 0
1, 140950, Control_c, 0, 67, 91
1, 140984, Note_on_c, 0, 62, 0
1, 140986, Control_c, 0, 64, 15
1, 141007, Control_c, 0, 64, 35
1, 141008, Control_c, 0, 67, 95
1, 141024, Control_c, 0, 64, 52
1, 141041, Control_c, 0, 64, 76
1, 141042, Control_c, 0, 67, 100
1, 141051, Note_on_c, 0, 44, 32
1, 141062, Control_c, 0, 64, 98
1, 141081, Control_c, 0, 64, 119
1, 141084, Note_on_c, 0, 56, 0
1, 141099, Control_c, 0, 64, 126
1, 141100, Control_c, 0, 67, 104
1, 141257, Note_on_c, 0, 55, 49
1, 141264, Note_on_c, 0, 61, 61
1, 141277, Note_on_c, 0, 52, 44
1, 141281, Control_c, 0, 67, 109
1, 141303, Control_c, 0, 64, 98
1, 141310, Note_on_c, 0, 44, 0
1, 141322, Control_c, 0, 64, 61
1, 141328, Note_on_c, 0, 53, 0
1, 141338, Control_c, 0, 64, 39
1, 141358, Control_c, 0, 64, 43
1, 141366, Note_on_c, 0, 68, 0
1, 141374, Control_c, 0, 64, 57
1, 141394, Control_c, 0, 64, 72
1, 141414, Control_c, 0, 64, 88
1, 141432, Control_c, 0, 64, 110
1, 141437, Note_on_c, 0, 55, 0
1, 141451, Control_c, 0, 64, 127
1, 141475, Note_on_c, 0, 44, 36
1, 141488, Control_c, 0, 67, 113
1, 141548, Note_on_c, 0, 52, 0
1, 141608, Control_c, 0, 67, 118
1, 141645, Control_c, 0, 67, 122
1, 141701, Control_c, 0, 67, 127
1, 141820, Note_on_c, 0, 51, 31
1, 141915, Note_on_c, 0, 44, 0
1, 141933, Note_on_c, 0, 66, 54
1, 141957, Note_on_c, 0, 60, 40
1, 141965, Note_on_c, 0, 54, 36
1, 142035, Control_c, 0, 64, 123
1, 142054, Control_c, 0, 64, 98
1, 142057, Note_on_c, 0, 61, 0
1, 142072, Control_c, 0, 64, 67
1, 142089, Control_c, 0, 64, 34
1, 142107, Control_c, 0, 64, 19
1, 142182, Control_c, 0, 64, 33
1, 142192, Note_on_c, 0, 44, 32
1, 142200, Control_c, 0, 64, 49
1, 142220, Control_c, 0, 64, 69
1, 142223, Note_on_c, 0, 51, 0
1, 142240, Control_c, 0, 64, 85
1, 142256, Control_c, 0, 64, 100
1, 142274, Control_c, 0, 64, 111
1, 142292, Control_c, 0, 64, 121
1, 142311, Control_c, 0, 64, 127
1, 142393, Note_on_c, 0, 51, 43
1, 142430, Note_on_c, 0, 44, 0
1, 142592, Note_on_c, 0, 44, 39
1, 142621, Note_on_c, 0, 51, 0
1, 142787, Note_on_c, 0, 55, 52
1, 142801, Note_on_c, 0, 54, 0
1, 142807, Note_on_c, 0, 52, 40
1, 142823, Note_on_c, 0, 44, 0
1, 142910, Note_on_c, 0, 60, 0
1, 142988, Note_on_c, 0, 44, 47
1, 143029, Note_on_c, 0, 52, 0
1, 143299, Note_on_c, 0, 53, 36
1, 143300, Note_on_c, 0, 60, 50
1, 143312, Note_on_c, 0, 56, 36
1, 143361, Note_on_c, 0, 44, 0
1, 143378, Control_c, 0, 64, 104
1, 143405, Control_c, 0, 64, 74
1, 143411, Note_on_c, 0, 55, 0
1, 143424, Control_c, 0, 64, 41
1, 143441, Control_c, 0, 64, 17
1, 143449, Note_on_c, 0, 66, 0
1, 143479, Control_c, 0, 64, 13
1, 143516, Note_on_c, 0, 44, 42
1, 143529, Note_on_c, 0, 53, 0
1, 143534, Control_c, 0, 64, 32
1, 143553, Control_c, 0, 64, 49
1, 143572, Control_c, 0, 64, 66
1, 143589, Control_c, 0, 64, 79
1, 143608, Control_c, 0, 64, 91
1, 143627, Control_c, 0, 64, 103
1, 143645, Control_c, 0, 64, 114
1, 143665, Control_c, 0, 64, 121
1, 143683, Control_c, 0, 64, 126
1, 143759, Note_on_c, 0, 53, 32
1, 143802, Note_on_c, 0, 44, 0
1, 143969, Note_on_c, 0, 44, 28
1, 144173, Note_on_c, 0, 53, 0
1, 144251, Note_on_c, 0, 54, 38
1, 144265, Note_on_c, 0, 51, 34
1, 144314, Control_c, 0, 64, 105
1, 144329, Note_on_c, 0, 56, 0
1, 144340, Control_c, 0, 64, 77
1, 144345, Note_on_c, 0, 44, 0
1, 144358, Control_c, 0, 64, 62
1, 144378, Control_c, 0, 64, 66
1, 144396, Control_c, 0, 64, 72
1, 144415, Control_c, 0, 64, 80
1, 144433, Control_c, 0, 64, 94
1, 144452, Control_c, 0, 64, 112
1, 144471, Control_c, 0, 64, 125
1, 144544, Note_on_c, 0, 44, 37
1, 144572, Note_on_c, 0, 51, 0
1, 144617, Note_on_c, 0, 54, 0
1, 145106, Note_on_c, 0, 65, 43
1, 145113, Note_on_c, 0, 49, 30
1, 145133, Note_on_c, 0, 61, 50
1, 145134, Note_on_c, 0, 37, 37
1, 145136, Note_on_c, 0, 56, 31
1, 145154, Note_on_c, 0, 53, 6
1, 145305, Note_on_c, 0, 60, 0
1, 145331, Control_c, 0, 64, 103
1, 145351, Control_c, 0, 64, 76
1, 145369, Control_c, 0, 64, 47
1, 145387, Control_c, 0, 64, 17
1, 145425, Control_c, 0, 64, 11
1, 145444, Control_c, 0, 64, 0
1, 145516, Control_c, 0, 64, 8
1, 145536, Control_c, 0, 64, 32
1, 145554, Control_c, 0, 64, 51
1, 145573, Control_c, 0, 64, 75
1, 145591, Control_c, 0, 64, 93
1, 145611, Control_c, 0, 64, 113
1, 145629, Control_c, 0, 64, 127
1, 145771, Note_on_c, 0, 37, 0
1, 145801, Note_on_c, 0, 49, 0
1, 145804, Note_on_c, 0, 65, 0
1, 145876, Note_on_c, 0, 53, 0
1, 145931, Note_on_c, 0, 44, 0
1, 145945, Note_on_c, 0, 61, 0
1, 145992, Note_on_c, 0, 56, 0
1, 146186, Control_c, 0, 64, 115
1, 146211, Control_c, 0, 64, 92
1, 146230, Control_c, 0, 64, 66
1, 146250, Control_c, 0, 64, 42
1, 146267, Control_c, 0, 64, 30
1, 146323, Control_c, 0, 64, 25
1, 146619, Control_c, 0, 64, 30
1, 146655, Control_c, 0, 64, 36
1, 146675, Control_c, 0, 64, 40
1, 146693, Control_c, 0, 64, 46
1, 146712, Control_c, 0, 64, 54
1, 146732, Control_c, 0, 64, 64
1, 146750, Control_c, 0, 64, 69
1, 146766, Control_c, 0, 64, 73
1, 146786, Control_c, 0, 64, 80
1, 146804, Control_c, 0, 64, 90
1, 146823, Control_c, 0, 64, 99
1, 146838, Note_on_c, 0, 65, 44
1, 146841, Note_on_c, 0, 61, 43
1, 146842, Control_c, 0, 64, 107
1, 146842, Note_on_c, 0, 49, 33
1, 146856, Note_on_c, 0, 37, 39
1, 146857, Note_on_c, 0, 44, 38
1, 146859, Control_c, 0, 64, 113
1, 146861, Note_on_c, 0, 56, 31
1, 146861, Note_on_c, 0, 53, 34
1, 146879, Control_c, 0, 64, 118
1, 146899, Control_c, 0, 64, 122
1, 146917, Control_c, 0, 64, 126
1, 147203, Note_on_c, 0, 37, 0
1, 147234, Note_on_c, 0, 49, 0
1, 147325, Poly_aftertouch_c, 0, 44, 20
1, 147329, Note_on_c, 0, 65, 0
1, 147343, Note_on_c, 0, 44, 0
1, 147343, Poly_aftertouch_c, 0, 44, 0
1, 147359, Note_on_c, 0, 53, 0
1, 147492, Poly_aftertouch_c, 0, 61, 24
1, 147494, Note_on_c, 0, 56, 0
1, 147514, Note_on_c, 0, 61, 0
1, 147514, Poly_aftertouch_c, 0, 61, 0
1, 147981, Control_c, 0, 64, 122
1, 147999, Control_c, 0, 64, 110
1, 148016, Control_c, 0, 64, 91
1, 148035, Control_c, 0, 64, 65
1, 148055, Control_c, 0, 64, 34
1, 148082, Control_c, 0, 64, 10
1, 148101, Control_c, 0, 64, 0
1, 148195, Control_c, 0, 64, 25
1, 148213, Control_c, 0, 64, 37
1, 148232, Control_c, 0, 64, 47
1, 148250, Control_c, 0, 64, 64
1, 148267, Control_c, 0, 64, 77
1, 148286, Control_c, 0, 64, 87
1, 148305, Control_c, 0, 64, 98
1, 148323, Control_c, 0, 64, 108
1, 148343, Control_c, 0, 64, 117
1, 148361, Control_c, 0, 64, 122
1, 148380, Control_c, 0, 64, 127
1, 149231, Note_on_c, 0, 65, 45
1, 149241, Note_on_c, 0, 44, 34
1, 149248, Note_on_c, 0, 49, 38
1, 149248, Note_on_c, 0, 53, 31
1, 149254, Note_on_c, 0, 61, 41
1, 149261, Note_on_c, 0, 56, 36
1, 149262, Note_on_c, 0, 37, 34
1, 149648, Control_c, 0, 67, 122
1, 149686, Control_c, 0, 67, 116
1, 149705, Control_c, 0, 67, 110
1, 149723, Control_c, 0, 67, 103
1, 149742, Control_c, 0, 67, 94
1, 149758, Control_c, 0, 67, 82
1, 149778, Control_c, 0, 67, 67
1, 149796, Control_c, 0, 67, 53
1, 149814, Control_c, 0, 67, 39
1, 149833, Control_c, 0, 67, 28
1, 149852, Control_c, 0, 67, 19
1, 149871, Control_c, 0, 67, 12
1, 150047, Control_c, 0, 67, 0
1, 150528, Control_c, 0, 67, 9
1, 150546, Control_c, 0, 67, 16
1, 150565, Control_c, 0, 67, 27
1, 150584, Control_c, 0, 67, 44
1, 150603, Control_c, 0, 67, 61
1, 150621, Control_c, 0, 67, 76
1, 150640, Control_c, 0, 67, 90
1, 150659, Control_c, 0, 67, 103
1, 150677, Control_c, 0, 67, 113
1, 150693, Control_c, 0, 67, 117
1, 150750, Control_c, 0, 67, 121
1, 150807, Control_c, 0, 67, 125
1, 151051, Note_on_c, 0, 49, 0
1, 151128, Note_on_c, 0, 37, 0
1, 151153, Note_on_c, 0, 53, 0
1, 151171, Note_on_c, 0, 65, 0
1, 151186, Note_on_c, 0, 44, 0
1, 151192, Note_on_c, 0, 56, 0
1, 151205, Note_on_c, 0, 61, 0
1, 151464, Note_on_c, 0, 48, 62
1, 151464, Control_c, 0, 64, 98
1, 151479, Note_on_c, 0, 36, 53
1, 151481, Control_c, 0, 64, 69
1, 151493, Note_on_c, 0, 48, 0
1, 151501, Control_c, 0, 64, 43
1, 151520, Note_on_c, 0, 36, 0
1, 151521, Control_c, 0, 64, 34
1, 151601, Note_on_c, 0, 46, 69
1, 151613, Control_c, 0, 67, 120
1, 151620, Note_on_c, 0, 34, 49
1, 151628, Note_on_c, 0, 46, 0
1, 151629, Control_c, 0, 67, 116
1, 151649, Control_c, 0, 67, 111
1, 151663, Note_on_c, 0, 34, 0
1, 151668, Control_c, 0, 67, 105
1, 151686, Control_c, 0, 67, 96
1, 151705, Control_c, 0, 67, 80
1, 151724, Control_c, 0, 67, 56
1, 151741, Note_on_c, 0, 32, 80
1, 151743, Control_c, 0, 67, 27
1, 151744, Note_on_c, 0, 44, 72
1, 151775, Note_on_c, 0, 44, 0
1, 151779, Control_c, 0, 67, 0
1, 151783, Note_on_c, 0, 32, 0
1, 151899, Note_on_c, 0, 48, 85
1, 151908, Note_on_c, 0, 36, 76
1, 151931, Note_on_c, 0, 48, 0
1, 151940, Note_on_c, 0, 36, 0
1, 152044, Note_on_c, 0, 43, 91
1, 152054, Note_on_c, 0, 31, 83
1, 152079, Note_on_c, 0, 43, 0
1, 152088, Note_on_c, 0, 31, 0
1, 152186, Note_on_c, 0, 48, 83
1, 152191, Note_on_c, 0, 36, 82
1, 152221, Note_on_c, 0, 48, 0
1, 152228, Note_on_c, 0, 36, 0
1, 152288, Control_c, 0, 64, 22
1, 152308, Control_c, 0, 64, 0
1, 152365, Note_on_c, 0, 42, 99
1, 152374, Note_on_c, 0, 30, 90
1, 152392, Note_on_c, 0, 42, 0
1, 152407, Note_on_c, 0, 30, 0
1, 152418, Control_c, 0, 64, 47
1, 152437, Control_c, 0, 64, 84
1, 152455, Control_c, 0, 64, 118
1, 152475, Control_c, 0, 64, 127
1, 152680, Note_on_c, 0, 93, 75
1, 152692, Note_on_c, 0, 81, 70
1, 152701, Note_on_c, 0, 93, 0
1, 152709, Note_on_c, 0, 81, 0
1, 152811, Note_on_c, 0, 79, 77
1, 152822, Note_on_c, 0, 91, 62
1, 152828, Note_on_c, 0, 81, 46
1, 152833, Note_on_c, 0, 93, 45
1, 152839, Note_on_c, 0, 79, 0
1, 152860, Note_on_c, 0, 81, 0
1, 152866, Note_on_c, 0, 54, 56
1, 152868, Note_on_c, 0, 91, 0
1, 152870, Note_on_c, 0, 93, 0
1, 152935, Note_on_c, 0, 60, 71
1, 152959, Note_on_c, 0, 78, 84
1, 152962, Note_on_c, 0, 90, 92
1, 152965, Note_on_c, 0, 54, 0
1, 152973, Note_on_c, 0, 63, 80
1, 153001, Note_on_c, 0, 69, 76
1, 153011, Note_on_c, 0, 78, 0
1, 153021, Note_on_c, 0, 90, 0
1, 153100, Note_on_c, 0, 81, 91
1, 153100, Note_on_c, 0, 93, 97
1, 153142, Note_on_c, 0, 81, 0
1, 153147, Note_on_c, 0, 93, 0
1, 153241, Note_on_c, 0, 76, 87
1, 153242, Note_on_c, 0, 89, 91
1, 153249, Note_on_c, 0, 77, 83
1, 153252, Note_on_c, 0, 88, 82
1, 153267, Note_on_c, 0, 76, 0
1, 153272, Note_on_c, 0, 77, 0
1, 153273, Note_on_c, 0, 88, 0
1, 153282, Note_on_c, 0, 89, 0
1, 153376, Note_on_c, 0, 93, 93
1, 153377, Note_on_c, 0, 81, 94
1, 153378, Note_on_c, 0, 95, 94
1, 153384, Note_on_c, 0, 83, 81
1, 153391, Control_c, 0, 67, 10
1, 153398, Note_on_c, 0, 95, 0
1, 153406, Note_on_c, 0, 83, 0
1, 153411, Poly_aftertouch_c, 0, 88, 0
1, 153417, Note_on_c, 0, 81, 0
1, 153422, Note_on_c, 0, 93, 0
1, 153427, Control_c, 0, 67, 14
1, 153507, Note_on_c, 0, 69, 0
1, 153526, Note_on_c, 0, 75, 101
1, 153526, Note_on_c, 0, 87, 102
1, 153536, Note_on_c, 0, 63, 0
1, 153538, Control_c, 0, 67, 9
1, 153542, Poly_aftertouch_c, 0, 83, 0
1, 153545, Note_on_c, 0, 75, 0
1, 153547, Note_on_c, 0, 60, 0
1, 153568, Note_on_c, 0, 87, 0
1, 153640, Poly_aftertouch_c, 0, 85, 0
1, 153714, Control_c, 0, 67, 0
1, 153843, Note_on_c, 0, 45, 88
1, 153845, Note_on_c, 0, 33, 87
1, 153880, Note_on_c, 0, 45, 0
1, 153888, Note_on_c, 0, 33, 0
1, 153961, Note_on_c, 0, 43, 93
1, 153970, Note_on_c, 0, 31, 85
1, 154013, Note_on_c, 0, 43, 0
1, 154015, Note_on_c, 0, 31, 0
1, 154104, Note_on_c, 0, 96, 92
1, 154108, Note_on_c, 0, 84, 93
1, 154110, Note_on_c, 0, 87, 93
1, 154110, Note_on_c, 0, 42, 92
1, 154111, Note_on_c, 0, 93, 87
1, 154113, Note_on_c, 0, 30, 87
1, 154142, Control_c, 0, 64, 123
1, 154155, Note_on_c, 0, 29, 46
1, 154157, Note_on_c, 0, 42, 0
1, 154158, Control_c, 0, 64, 98
1, 154164, Note_on_c, 0, 30, 0
1, 154179, Control_c, 0, 64, 73
1, 154198, Control_c, 0, 64, 57
1, 154203, Note_on_c, 0, 29, 0
1, 154215, Control_c, 0, 64, 55
1, 154245, Note_on_c, 0, 45, 97
1, 154254, Note_on_c, 0, 33, 88
1, 154277, Note_on_c, 0, 45, 0
1, 154289, Control_c, 0, 64, 52
1, 154290, Note_on_c, 0, 33, 0
1, 154327, Control_c, 0, 64, 49
1, 154396, Note_on_c, 0, 40, 84
1, 154403, Note_on_c, 0, 38, 76
1, 154408, Note_on_c, 0, 28, 75
1, 154419, Note_on_c, 0, 26, 58
1, 154420, Note_on_c, 0, 26, 0
1, 154423, Note_on_c, 0, 40, 0
1, 154431, Note_on_c, 0, 38, 0
1, 154443, Note_on_c, 0, 28, 0
1, 154525, Note_on_c, 0, 45, 97
1, 154535, Note_on_c, 0, 33, 88
1, 154558, Note_on_c, 0, 45, 0
1, 154565, Note_on_c, 0, 33, 0
1, 154587, Control_c, 0, 64, 47
1, 154605, Control_c, 0, 64, 39
1, 154632, Control_c, 0, 64, 8
1, 154650, Control_c, 0, 64, 0
1, 154701, Note_on_c, 0, 39, 102
1, 154706, Note_on_c, 0, 27, 102
1, 154727, Poly_aftertouch_c, 0, 33, 0
1, 154738, Note_on_c, 0, 27, 0
1, 154742, Note_on_c, 0, 39, 0
1, 154751, Note_on_c, 0, 93, 0
1, 154759, Note_on_c, 0, 40, 25
1, 154762, Control_c, 0, 64, 29
1, 154781, Control_c, 0, 64, 70
1, 154789, Note_on_c, 0, 87, 0
1, 154800, Control_c, 0, 64, 110
1, 154807, Note_on_c, 0, 84, 0
1, 154816, Control_c, 0, 64, 127
1, 154826, Note_on_c, 0, 40, 0
1, 154837, Note_on_c, 0, 96, 0
1, 154887, Poly_aftertouch_c, 0, 27, 0
1, 154990, Note_on_c, 0, 96, 86
1, 154993, Note_on_c, 0, 84, 89
1, 155052, Note_on_c, 0, 84, 0
1, 155057, Note_on_c, 0, 96, 0
1, 155123, Note_on_c, 0, 83, 94
1, 155124, Note_on_c, 0, 95, 93
1, 155168, Note_on_c, 0, 51, 78
1, 155178, Note_on_c, 0, 83, 0
1, 155179, Note_on_c, 0, 95, 0
1, 155207, Note_on_c, 0, 57, 67
1, 155234, Note_on_c, 0, 60, 78
1, 155262, Note_on_c, 0, 66, 89
1, 155266, Note_on_c, 0, 81, 94
1, 155269, Note_on_c, 0, 93, 96
1, 155310, Note_on_c, 0, 81, 0
1, 155316, Note_on_c, 0, 93, 0
1, 155395, Note_on_c, 0, 96, 102
1, 155402, Note_on_c, 0, 84, 89
1, 155404, Note_on_c, 0, 83, 90
1, 155436, Note_on_c, 0, 83, 0
1, 155439, Note_on_c, 0, 84, 0
1, 155439, Note_on_c, 0, 96, 0
1, 155540, Note_on_c, 0, 79, 94
1, 155545, Note_on_c, 0, 91, 95
1, 155582, Note_on_c, 0, 79, 0
1, 155584, Note_on_c, 0, 91, 0
1, 155672, Note_on_c, 0, 84, 99
1, 155673, Note_on_c, 0, 96, 105
1, 155709, Note_on_c, 0, 84, 0
1, 155716, Note_on_c, 0, 96, 0
1, 155820, Note_on_c, 0, 66, 0
1, 155839, Note_on_c, 0, 90, 105
1, 155840, Note_on_c, 0, 78, 107
1, 155873, Note_on_c, 0, 90, 0
1, 155874, Note_on_c, 0, 60, 0
1, 155878, Poly_aftertouch_c, 0, 55, 0
1, 155880, Note_on_c, 0, 57, 0
1, 155884, Note_on_c, 0, 78, 0
1, 155903, Note_on_c, 0, 77, 23
1, 155904, Note_on_c, 0, 77, 0
1, 155905, Note_on_c, 0, 51, 0
1, 156109, Note_on_c, 0, 42, 88
1, 156114, Note_on_c, 0, 30, 84
1, 156160, Note_on_c, 0, 42, 0
1, 156169, Note_on_c, 0, 30, 0
1, 156188, Note_on_c, 0, 28, 10
1, 156248, Note_on_c, 0, 40, 81
1, 156249, Note_on_c, 0, 28, 0
1, 156249, Note_on_c, 0, 28, 57
1, 156254, Note_on_c, 0, 38, 82
1, 156266, Poly_aftertouch_c, 0, 29, 0
1, 156292, Note_on_c, 0, 40, 0
1, 156297, Note_on_c, 0, 27, 28
1, 156299, Note_on_c, 0, 38, 0
1, 156307, Note_on_c, 0, 28, 0
1, 156350, Note_on_c, 0, 27, 0
1, 156407, Note_on_c, 0, 39, 97
1, 156409, Note_on_c, 0, 93, 89
1, 156410, Note_on_c, 0, 99, 92
1, 156411, Note_on_c, 0, 27, 93
1, 156411, Note_on_c, 0, 90, 98
1, 156412, Note_on_c, 0, 102, 96
1, 156446, Note_on_c, 0, 39, 0
1, 156454, Note_on_c, 0, 27, 0
1, 156477, Control_c, 0, 64, 120
1, 156503, Control_c, 0, 64, 92
1, 156522, Control_c, 0, 64, 66
1, 156541, Control_c, 0, 64, 50
1, 156563, Note_on_c, 0, 42, 102
1, 156567, Note_on_c, 0, 30, 99
1, 156596, Note_on_c, 0, 42, 0
1, 156596, Control_c, 0, 64, 48
1, 156609, Note_on_c, 0, 30, 0
1, 156707, Control_c, 0, 64, 46
1, 156730, Note_on_c, 0, 37, 98
1, 156738, Note_on_c, 0, 25, 94
1, 156762, Note_on_c, 0, 37, 0
1, 156778, Note_on_c, 0, 25, 0
1, 156883, Note_on_c, 0, 42, 95
1, 156884, Note_on_c, 0, 30, 90
1, 156926, Note_on_c, 0, 30, 0
1, 156929, Note_on_c, 0, 42, 0
1, 157084, Note_on_c, 0, 93, 0
1, 157089, Note_on_c, 0, 36, 102
1, 157095, Control_c, 0, 64, 36
1, 157099, Note_on_c, 0, 24, 91
1, 157114, Control_c, 0, 64, 0
1, 157126, Note_on_c, 0, 99, 0
1, 157170, Control_c, 0, 67, 8
1, 157208, Note_on_c, 0, 25, 19
1, 157214, Note_on_c, 0, 25, 0
1, 157227, Control_c, 0, 64, 30
1, 157243, Control_c, 0, 64, 69
1, 157259, Note_on_c, 0, 24, 0
1, 157262, Control_c, 0, 64, 112
1, 157280, Control_c, 0, 64, 127
1, 157285, Note_on_c, 0, 90, 0
1, 157301, Note_on_c, 0, 102, 0
1, 157308, Note_on_c, 0, 36, 0
1, 157431, Note_on_c, 0, 90, 73
1, 157432, Note_on_c, 0, 102, 81
1, 157494, Control_c, 0, 67, 0
1, 157503, Note_on_c, 0, 90, 0
1, 157517, Note_on_c, 0, 102, 0
1, 157583, Note_on_c, 0, 100, 75
1, 157584, Note_on_c, 0, 88, 80
1, 157591, Note_on_c, 0, 48, 68
1, 157628, Note_on_c, 0, 51, 66
1, 157640, Note_on_c, 0, 88, 0
1, 157649, Note_on_c, 0, 54, 48
1, 157674, Note_on_c, 0, 100, 0
1, 157686, Note_on_c, 0, 57, 66
1, 157705, Note_on_c, 0, 48, 0
1, 157752, Note_on_c, 0, 63, 80
1, 157781, Note_on_c, 0, 87, 86
1, 157784, Note_on_c, 0, 99, 86
1, 157818, Note_on_c, 0, 63, 0
1, 157831, Note_on_c, 0, 87, 0
1, 157854, Note_on_c, 0, 57, 0
1, 157855, Note_on_c, 0, 99, 0
1, 157886, Note_on_c, 0, 54, 0
1, 157899, Note_on_c, 0, 51, 0
1, 157929, Note_on_c, 0, 102, 91
1, 157945, Note_on_c, 0, 90, 72
1, 157953, Note_on_c, 0, 102, 0
1, 157962, Note_on_c, 0, 90, 0
1, 158075, Note_on_c, 0, 97, 99
1, 158077, Note_on_c, 0, 85, 91
1, 158108, Note_on_c, 0, 85, 0
1, 158125, Note_on_c, 0, 97, 0
1, 158197, Note_on_c, 0, 102, 102
1, 158213, Note_on_c, 0, 90, 86
1, 158237, Note_on_c, 0, 90, 0
1, 158242, Note_on_c, 0, 102, 0
1, 158274, Control_c, 0, 64, 78
1, 158291, Control_c, 0, 64, 0
1, 158305, Note_on_c, 0, 44, 95
1, 158314, Note_on_c, 0, 32, 76
1, 158327, Control_c, 0, 64, 15
1, 158343, Note_on_c, 0, 96, 96
1, 158344, Note_on_c, 0, 84, 96
1, 158345, Control_c, 0, 64, 42
1, 158351, Note_on_c, 0, 32, 0
1, 158369, Note_on_c, 0, 44, 0
1, 158373, Control_c, 0, 64, 74
1, 158384, Note_on_c, 0, 84, 0
1, 158388, Note_on_c, 0, 45, 19
1, 158389, Note_on_c, 0, 45, 0
1, 158393, Control_c, 0, 64, 111
1, 158401, Note_on_c, 0, 96, 0
1, 158412, Control_c, 0, 64, 127
1, 158450, Poly_aftertouch_c, 0, 45, 0
1, 158487, Note_on_c, 0, 102, 98
1, 158490, Note_on_c, 0, 90, 99
1, 158511, Note_on_c, 0, 90, 0
1, 158522, Note_on_c, 0, 102, 0
1, 158630, Note_on_c, 0, 95, 82
1, 158631, Note_on_c, 0, 83, 80
1, 158632, Note_on_c, 0, 81, 85
1, 158635, Note_on_c, 0, 93, 81
1, 158654, Note_on_c, 0, 81, 0
1, 158657, Note_on_c, 0, 83, 0
1, 158657, Note_on_c, 0, 95, 0
1, 158659, Note_on_c, 0, 93, 0
1, 158708, Note_on_c, 0, 94, 20
1, 158709, Note_on_c, 0, 94, 0
1, 158757, Note_on_c, 0, 102, 102
1, 158766, Note_on_c, 0, 90, 101
1, 158769, Note_on_c, 0, 56, 73
1, 158790, Note_on_c, 0, 60, 74
1, 158791, Note_on_c, 0, 90, 0
1, 158806, Note_on_c, 0, 102, 0
1, 158822, Note_on_c, 0, 63, 67
1, 158827, Note_on_c, 0, 56, 0
1, 158860, Note_on_c, 0, 66, 74
1, 158867, Note_on_c, 0, 60, 0
1, 158888, Note_on_c, 0, 72, 81
1, 158910, Note_on_c, 0, 92, 106
1, 158910, Note_on_c, 0, 80, 102
1, 158917, Note_on_c, 0, 72, 0
1, 158924, Note_on_c, 0, 63, 0
1, 158930, Note_on_c, 0, 66, 0
1, 158935, Note_on_c, 0, 80, 0
1, 158954, Note_on_c, 0, 92, 0
1, 159060, Note_on_c, 0, 99, 102
1, 159067, Note_on_c, 0, 87, 105
1, 159091, Note_on_c, 0, 87, 0
1, 159106, Note_on_c, 0, 99, 0
1, 159210, Note_on_c, 0, 78, 97
1, 159213, Note_on_c, 0, 90, 107
1, 159244, Note_on_c, 0, 78, 0
1, 159268, Note_on_c, 0, 90, 0
1, 159377, Note_on_c, 0, 99, 106
1, 159383, Note_on_c, 0, 87, 105
1, 159406, Note_on_c, 0, 87, 0
1, 159419, Note_on_c, 0, 99, 0
1, 159523, Note_on_c, 0, 51, 77
1, 159524, Note_on_c, 0, 54, 89
1, 159526, Note_on_c, 0, 56, 98
1, 159530, Note_on_c, 0, 44, 88
1, 159550, Note_on_c, 0, 88, 99
1, 159553, Note_on_c, 0, 76, 97
1, 159574, Note_on_c, 0, 76, 0
1, 159594, Note_on_c, 0, 88, 0
1, 159733, Note_on_c, 0, 84, 98
1, 159737, Note_on_c, 0, 96, 100
1, 159770, Note_on_c, 0, 96, 0
1, 159772, Note_on_c, 0, 84, 0
1, 159951, Note_on_c, 0, 87, 97
1, 159955, Note_on_c, 0, 75, 92
1, 159976, Note_on_c, 0, 75, 0
1, 159980, Note_on_c, 0, 87, 0
1, 160102, Note_on_c, 0, 56, 0
1, 160128, Note_on_c, 0, 54, 0
1, 160134, Note_on_c, 0, 51, 0
1, 160149, Note_on_c, 0, 44, 0
1, 160173, Note_on_c, 0, 96, 96
1, 160180, Note_on_c, 0, 83, 91
1, 160182, Note_on_c, 0, 95, 87
1, 160200, Note_on_c, 0, 84, 67
1, 160210, Note_on_c, 0, 83, 0
1, 160235, Note_on_c, 0, 84, 0
1, 160246, Note_on_c, 0, 95, 0
1, 160248, Note_on_c, 0, 96, 0
1, 160374, Control_c, 0, 64, 89
1, 160395, Control_c, 0, 64, 54
1, 160412, Control_c, 0, 64, 25
1, 160427, Note_on_c, 0, 37, 58
1, 160431, Control_c, 0, 64, 19
1, 160449, Control_c, 0, 64, 15
1, 160467, Control_c, 0, 64, 0
1, 160508, Note_on_c, 0, 44, 74
1, 160524, Control_c, 0, 64, 45
1, 160543, Control_c, 0, 64, 85
1, 160549, Note_on_c, 0, 37, 0
1, 160556, Note_on_c, 0, 85, 105
1, 160557, Note_on_c, 0, 92, 95
1, 160558, Control_c, 0, 64, 126
1, 160558, Note_on_c, 0, 97, 101
1, 160561, Note_on_c, 0, 88, 95
1, 160568, Note_on_c, 0, 52, 87
1, 160608, Note_on_c, 0, 85, 0
1, 160614, Note_on_c, 0, 97, 0
1, 160617, Note_on_c, 0, 44, 0
1, 160617, Note_on_c, 0, 52, 0
1, 160629, Note_on_c, 0, 88, 0
1, 160643, Note_on_c, 0, 92, 0
1, 161211, Note_on_c, 0, 68, 78
1, 161213, Note_on_c, 0, 73, 78
1, 161219, Note_on_c, 0, 61, 74
1, 161229, Note_on_c, 0, 88, 99
1, 161235, Note_on_c, 0, 76, 88
1, 161235, Note_on_c, 0, 80, 86
1, 161465, Note_on_c, 0, 80, 0
1, 161488, Note_on_c, 0, 73, 0
1, 161539, Note_on_c, 0, 61, 0
1, 161594, Note_on_c, 0, 88, 0
1, 161621, Note_on_c, 0, 76, 0
1, 161674, Note_on_c, 0, 63, 70
1, 161687, Note_on_c, 0, 87, 73
1, 161701, Note_on_c, 0, 68, 0
1, 161704, Note_on_c, 0, 63, 0
1, 161706, Note_on_c, 0, 64, 68
1, 161747, Note_on_c, 0, 64, 0
1, 161747, Note_on_c, 0, 85, 81
1, 161790, Note_on_c, 0, 87, 0
1, 161791, Control_c, 0, 64, 85
1, 161805, Note_on_c, 0, 85, 0
1, 161810, Control_c, 0, 64, 40
1, 161831, Control_c, 0, 64, 42
1, 161843, Note_on_c, 0, 77, 101
1, 161850, Control_c, 0, 64, 62
1, 161852, Note_on_c, 0, 68, 76
1, 161855, Note_on_c, 0, 65, 71
1, 161856, Note_on_c, 0, 73, 80
1, 161856, Note_on_c, 0, 92, 98
1, 161857, Note_on_c, 0, 85, 87
1, 161857, Note_on_c, 0, 80, 100
1, 161877, Control_c, 0, 64, 88
1, 161884, Control_c, 0, 64, 127
1, 161901, Note_on_c, 0, 77, 0
1, 161916, Note_on_c, 0, 65, 0
1, 161921, Note_on_c, 0, 80, 0
1, 161923, Note_on_c, 0, 73, 0
1, 161930, Note_on_c, 0, 92, 0
1, 161948, Note_on_c, 0, 85, 0
1, 161958, Note_on_c, 0, 68, 0
1, 162523, Control_c, 0, 64, 100
1, 162543, Control_c, 0, 64, 30
1, 162558, Note_on_c, 0, 48, 102
1, 162558, Note_on_c, 0, 60, 103
1, 162559, Note_on_c, 0, 36, 86
1, 162563, Control_c, 0, 64, 0
1, 162635, Control_c, 0, 64, 49
1, 162646, Note_on_c, 0, 36, 0
1, 162653, Control_c, 0, 64, 84
1, 162667, Note_on_c, 0, 60, 0
1, 162671, Control_c, 0, 64, 112
1, 162675, Note_on_c, 0, 48, 0
1, 162691, Control_c, 0, 64, 127
1, 163251, Note_on_c, 0, 92, 96
1, 163258, Note_on_c, 0, 85, 93
1, 163260, Note_on_c, 0, 77, 92
1, 163260, Note_on_c, 0, 73, 82
1, 163264, Note_on_c, 0, 80, 90
1, 163266, Note_on_c, 0, 65, 80
1, 163517, Note_on_c, 0, 77, 0
1, 163555, Note_on_c, 0, 80, 0
1, 163563, Note_on_c, 0, 92, 0
1, 163648, Note_on_c, 0, 65, 0
1, 163660, Note_on_c, 0, 90, 78
1, 163669, Note_on_c, 0, 85, 0
1, 163692, Note_on_c, 0, 66, 73
1, 163699, Note_on_c, 0, 73, 0
1, 163715, Note_on_c, 0, 68, 77
1, 163725, Note_on_c, 0, 66, 0
1, 163728, Note_on_c, 0, 89, 81
1, 163733, Note_on_c, 0, 68, 0
1, 163787, Note_on_c, 0, 90, 0
1, 163795, Note_on_c, 0, 89, 0
1, 163878, Note_on_c, 0, 97, 100
1, 163881, Note_on_c, 0, 92, 97
1, 163882, Note_on_c, 0, 85, 102
1, 163889, Note_on_c, 0, 89, 87
1, 163905, Note_on_c, 0, 45, 80
1, 163908, Note_on_c, 0, 47, 82
1, 163909, Note_on_c, 0, 35, 83
1, 164002, Note_on_c, 0, 45, 0
1, 164004, Control_c, 0, 64, 90
1, 164025, Control_c, 0, 64, 44
1, 164043, Control_c, 0, 64, 0
1, 164191, Control_c, 0, 64, 26
1, 164210, Control_c, 0, 64, 63
1, 164215, Note_on_c, 0, 97, 0
1, 164230, Control_c, 0, 64, 108
1, 164248, Control_c, 0, 64, 127
1, 164256, Note_on_c, 0, 89, 0
1, 164256, Note_on_c, 0, 92, 0
1, 164261, Note_on_c, 0, 85, 0
1, 164330, Note_on_c, 0, 35, 0
1, 164364, Note_on_c, 0, 47, 0
1, 164543, Control_c, 0, 64, 91
1, 164563, Control_c, 0, 64, 36
1, 164580, Control_c, 0, 64, 0
1, 164630, Note_on_c, 0, 46, 105
1, 164632, Note_on_c, 0, 34, 80
1, 164638, Note_on_c, 0, 58, 98
1, 164672, Note_on_c, 0, 34, 0
1, 164710, Control_c, 0, 64, 37
1, 164715, Note_on_c, 0, 46, 0
1, 164721, Note_on_c, 0, 58, 0
1, 164729, Control_c, 0, 64, 72
1, 164747, Control_c, 0, 64, 93
1, 164767, Control_c, 0, 64, 116
1, 164785, Control_c, 0, 64, 127
1, 165330, Note_on_c, 0, 97, 98
1, 165336, Note_on_c, 0, 90, 91
1, 165337, Note_on_c, 0, 73, 83
1, 165337, Note_on_c, 0, 85, 92
1, 165338, Note_on_c, 0, 78, 91
1, 165342, Note_on_c, 0, 66, 80
1, 165602, Note_on_c, 0, 78, 0
1, 165603, Note_on_c, 0, 97, 0
1, 165623, Note_on_c, 0, 66, 0
1, 165693, Note_on_c, 0, 85, 0
1, 165782, Note_on_c, 0, 95, 88
1, 165783, Note_on_c, 0, 90, 0
1, 165811, Note_on_c, 0, 68, 70
1, 165840, Note_on_c, 0, 73, 0
1, 165842, Note_on_c, 0, 70, 81
1, 165871, Note_on_c, 0, 94, 95
1, 165877, Note_on_c, 0, 70, 0
1, 165880, Note_on_c, 0, 68, 0
1, 165903, Note_on_c, 0, 95, 0
1, 165957, Note_on_c, 0, 94, 0
1, 166095, Note_on_c, 0, 102, 102
1, 166099, Note_on_c, 0, 90, 105
1, 166102, Note_on_c, 0, 97, 100
1, 166113, Note_on_c, 0, 43, 90
1, 166120, Note_on_c, 0, 45, 79
1, 166120, Note_on_c, 0, 33, 85
1, 166165, Note_on_c, 0, 31, 19
1, 166167, Note_on_c, 0, 43, 0
1, 166173, Control_c, 0, 64, 118
1, 166192, Control_c, 0, 64, 83
1, 166210, Control_c, 0, 64, 43
1, 166219, Note_on_c, 0, 31, 0
1, 166227, Control_c, 0, 64, 0
1, 166488, Control_c, 0, 64, 26
1, 166508, Control_c, 0, 64, 55
1, 166527, Control_c, 0, 64, 87
1, 166543, Control_c, 0, 64, 124
1, 166671, Note_on_c, 0, 33, 0
1, 166690, Note_on_c, 0, 90, 0
1, 166721, Note_on_c, 0, 102, 0
1, 166762, Note_on_c, 0, 97, 0
1, 166795, Note_on_c, 0, 45, 0
1, 167053, Note_on_c, 0, 44, 101
1, 167054, Note_on_c, 0, 102, 97
1, 167056, Note_on_c, 0, 90, 95
1, 167058, Note_on_c, 0, 32, 92
1, 167062, Note_on_c, 0, 99, 91
1, 167062, Note_on_c, 0, 96, 92
1, 167127, Control_c, 0, 64, 113
1, 167146, Control_c, 0, 64, 60
1, 167165, Control_c, 0, 64, 0
1, 167277, Control_c, 0, 64, 11
1, 167293, Control_c, 0, 64, 53
1, 167313, Control_c, 0, 64, 93
1, 167331, Control_c, 0, 64, 127
1, 167336, Note_on_c, 0, 32, 0
1, 167422, Note_on_c, 0, 44, 0
1, 167919, Note_on_c, 0, 102, 0
1, 167946, Note_on_c, 0, 99, 0
1, 167950, Note_on_c, 0, 96, 0
1, 167973, Note_on_c, 0, 90, 0
1, 167986, Note_on_c, 0, 68, 93
1, 167994, Note_on_c, 0, 56, 81
1, 168141, Note_on_c, 0, 56, 0
1, 168155, Note_on_c, 0, 68, 0
1, 168250, Note_on_c, 0, 68, 93
1, 168265, Note_on_c, 0, 56, 81
1, 168374, Note_on_c, 0, 56, 0
1, 168400, Note_on_c, 0, 68, 0
1, 168488, Note_on_c, 0, 68, 90
1, 168494, Note_on_c, 0, 56, 81
1, 168577, Note_on_c, 0, 68, 0
1, 168579, Note_on_c, 0, 56, 0
1, 168832, Note_on_c, 0, 68, 97
1, 168845, Note_on_c, 0, 56, 76
1, 168896, Note_on_c, 0, 56, 0
1, 168916, Note_on_c, 0, 68, 0
1, 169148, Control_c, 0, 67, 8
1, 169638, Control_c, 0, 67, 12
1, 169694, Control_c, 0, 67, 18
1, 169713, Control_c, 0, 67, 25
1, 169731, Control_c, 0, 67, 32
1, 169805, Control_c, 0, 67, 36
1, 169893, Note_on_c, 0, 52, 45
1, 169910, Note_on_c, 0, 40, 46
1, 169927, Note_on_c, 0, 61, 49
1, 169938, Note_on_c, 0, 56, 43
1, 169943, Note_on_c, 0, 68, 58
1, 169971, Control_c, 0, 64, 96
1, 169990, Control_c, 0, 64, 57
1, 170009, Control_c, 0, 64, 19
1, 170009, Control_c, 0, 67, 31
1, 170046, Control_c, 0, 64, 36
1, 170047, Control_c, 0, 67, 26
1, 170066, Control_c, 0, 64, 53
1, 170067, Control_c, 0, 67, 19
1, 170084, Control_c, 0, 64, 76
1, 170086, Control_c, 0, 67, 9
1, 170094, Note_on_c, 0, 68, 0
1, 170099, Control_c, 0, 64, 96
1, 170102, Control_c, 0, 67, 0
1, 170119, Control_c, 0, 64, 119
1, 170138, Control_c, 0, 64, 127
1, 170141, Note_on_c, 0, 56, 0
1, 170223, Note_on_c, 0, 56, 36
1, 170239, Note_on_c, 0, 68, 60
1, 170344, Note_on_c, 0, 68, 0
1, 170395, Note_on_c, 0, 52, 0
1, 170397, Note_on_c, 0, 56, 0
1, 170482, Note_on_c, 0, 56, 41
1, 170484, Note_on_c, 0, 68, 58
1, 170598, Note_on_c, 0, 68, 0
1, 170606, Note_on_c, 0, 40, 0
1, 170639, Note_on_c, 0, 56, 0
1, 170777, Control_c, 0, 64, 112
1, 170783, Note_on_c, 0, 68, 53
1, 170790, Note_on_c, 0, 56, 45
1, 170796, Control_c, 0, 64, 78
1, 170802, Note_on_c, 0, 51, 43
1, 170816, Control_c, 0, 64, 42
1, 170834, Note_on_c, 0, 39, 35
1, 170834, Control_c, 0, 64, 19
1, 170870, Control_c, 0, 64, 23
1, 170888, Control_c, 0, 64, 38
1, 170907, Control_c, 0, 64, 53
1, 170926, Control_c, 0, 64, 74
1, 170945, Control_c, 0, 64, 93
1, 170964, Control_c, 0, 64, 115
1, 170981, Control_c, 0, 64, 127
1, 170998, Note_on_c, 0, 51, 0
1, 171041, Note_on_c, 0, 39, 0
1, 171175, Note_on_c, 0, 49, 61
1, 171178, Note_on_c, 0, 61, 0
1, 171186, Note_on_c, 0, 37, 55
1, 171320, Note_on_c, 0, 56, 0
1, 171330, Note_on_c, 0, 68, 0
1, 171333, Note_on_c, 0, 49, 0
1, 171341, Note_on_c, 0, 37, 0
1, 171523, Note_on_c, 0, 51, 53
1, 171523, Note_on_c, 0, 60, 67
1, 171525, Note_on_c, 0, 68, 60
1, 171530, Note_on_c, 0, 39, 49
1, 171543, Note_on_c, 0, 56, 44
1, 171566, Control_c, 0, 64, 91
1, 171585, Control_c, 0, 64, 51
1, 171601, Control_c, 0, 64, 0
1, 171626, Note_on_c, 0, 68, 0
1, 171630, Note_on_c, 0, 56, 0
1, 171657, Control_c, 0, 64, 29
1, 171677, Control_c, 0, 64, 46
1, 171695, Control_c, 0, 64, 69
1, 171714, Control_c, 0, 64, 90
1, 171732, Control_c, 0, 64, 112
1, 171740, Note_on_c, 0, 60, 0
1, 171744, Note_on_c, 0, 68, 63
1, 171750, Control_c, 0, 64, 124
1, 171784, Note_on_c, 0, 56, 32
1, 171854, Note_on_c, 0, 58, 82
1, 171902, Note_on_c, 0, 68, 0
1, 171909, Note_on_c, 0, 51, 0
1, 171917, Note_on_c, 0, 39, 0
1, 171932, Note_on_c, 0, 56, 0
1, 171979, Note_on_c, 0, 56, 51
1, 171988, Note_on_c, 0, 68, 59
1, 172074, Poly_aftertouch_c, 0, 65, 0
1, 172085, Note_on_c, 0, 58, 0
1, 172125, Note_on_c, 0, 68, 0
1, 172132, Note_on_c, 0, 56, 0
1, 172385, Note_on_c, 0, 63, 76
1, 172410, Note_on_c, 0, 68, 66
1, 172423, Note_on_c, 0, 56, 50
1, 172431, Note_on_c, 0, 54, 40
1, 172438, Note_on_c, 0, 42, 44
1, 172502, Control_c, 0, 64, 108
1, 172521, Control_c, 0, 64, 70
1, 172537, Control_c, 0, 64, 16
1, 172555, Control_c, 0, 64, 0
1, 172630, Control_c, 0, 64, 15
1, 172649, Control_c, 0, 64, 41
1, 172668, Control_c, 0, 64, 69
1, 172687, Control_c, 0, 64, 91
1, 172706, Control_c, 0, 64, 112
1, 172722, Control_c, 0, 64, 122
1, 172723, Note_on_c, 0, 68, 0
1, 172740, Control_c, 0, 64, 127
1, 172824, Note_on_c, 0, 56, 0
1, 172840, Note_on_c, 0, 54, 0
1, 173111, Control_c, 0, 64, 117
1, 173127, Note_on_c, 0, 68, 51
1, 173129, Note_on_c, 0, 52, 55
1, 173130, Control_c, 0, 64, 78
1, 173132, Note_on_c, 0, 56, 42
1, 173137, Note_on_c, 0, 40, 54
1, 173149, Control_c, 0, 64, 31
1, 173159, Note_on_c, 0, 42, 0
1, 173168, Control_c, 0, 64, 0
1, 173205, Control_c, 0, 64, 13
1, 173223, Control_c, 0, 64, 37
1, 173229, Note_on_c, 0, 68, 0
1, 173241, Note_on_c, 0, 56, 0
1, 173241, Control_c, 0, 64, 59
1, 173261, Control_c, 0, 64, 84
1, 173278, Control_c, 0, 64, 106
1, 173297, Control_c, 0, 64, 125
1, 173302, Note_on_c, 0, 40, 0
1, 173314, Note_on_c, 0, 52, 0
1, 173365, Note_on_c, 0, 56, 52
1, 173369, Note_on_c, 0, 68, 58
1, 173453, Note_on_c, 0, 68, 0
1, 173468, Note_on_c, 0, 51, 73
1, 173469, Note_on_c, 0, 56, 0
1, 173470, Note_on_c, 0, 39, 72
1, 173578, Note_on_c, 0, 68, 69
1, 173579, Note_on_c, 0, 56, 54
1, 173696, Note_on_c, 0, 39, 0
1, 173700, Note_on_c, 0, 51, 0
1, 173702, Note_on_c, 0, 56, 0
1, 173703, Note_on_c, 0, 68, 0
1, 173779, Note_on_c, 0, 63, 0
1, 173838, Note_on_c, 0, 61, 81
1, 173839, Note_on_c, 0, 52, 63
1, 173845, Note_on_c, 0, 68, 78
1, 173859, Note_on_c, 0, 56, 67
1, 173860, Note_on_c, 0, 40, 58
1, 173880, Control_c, 0, 64, 117
1, 173881, Control_c, 0, 67, 14
1, 173900, Control_c, 0, 64, 84
1, 173901, Control_c, 0, 67, 25
1, 173918, Control_c, 0, 64, 41
1, 173921, Control_c, 0, 67, 34
1, 173937, Control_c, 0, 64, 0
1, 173938, Control_c, 0, 67, 42
1, 173956, Control_c, 0, 67, 48
1, 174012, Control_c, 0, 64, 22
1, 174028, Control_c, 0, 64, 44
1, 174029, Control_c, 0, 67, 43
1, 174047, Control_c, 0, 64, 72
1, 174048, Control_c, 0, 67, 36
1, 174066, Control_c, 0, 64, 92
1, 174069, Control_c, 0, 67, 22
1, 174074, Note_on_c, 0, 61, 0
1, 174084, Control_c, 0, 64, 111
1, 174103, Control_c, 0, 64, 119
1, 174103, Control_c, 0, 67, 0
1, 174122, Control_c, 0, 64, 127
1, 174133, Note_on_c, 0, 40, 0
1, 174223, Note_on_c, 0, 60, 84
1, 174289, Note_on_c, 0, 52, 0
1, 174296, Note_on_c, 0, 56, 0
1, 174367, Note_on_c, 0, 68, 0
1, 174451, Note_on_c, 0, 60, 0
1, 174577, Note_on_c, 0, 64, 78
1, 174580, Note_on_c, 0, 68, 69
1, 174581, Note_on_c, 0, 56, 62
1, 174586, Note_on_c, 0, 44, 53
1, 174612, Control_c, 0, 64, 90
1, 174631, Control_c, 0, 64, 45
1, 174649, Control_c, 0, 64, 0
1, 174682, Note_on_c, 0, 68, 0
1, 174705, Control_c, 0, 64, 30
1, 174724, Control_c, 0, 64, 53
1, 174742, Control_c, 0, 64, 81
1, 174762, Control_c, 0, 64, 103
1, 174768, Note_on_c, 0, 44, 0
1, 174774, Note_on_c, 0, 56, 0
1, 174774, Note_on_c, 0, 56, 39
1, 174778, Control_c, 0, 64, 125
1, 174783, Note_on_c, 0, 68, 68
1, 174906, Note_on_c, 0, 63, 81
1, 174923, Note_on_c, 0, 42, 69
1, 174924, Note_on_c, 0, 56, 0
1, 174924, Note_on_c, 0, 54, 68
1, 174936, Note_on_c, 0, 68, 0
1, 174956, Note_on_c, 0, 64, 0
1, 175006, Note_on_c, 0, 42, 0
1, 175038, Note_on_c, 0, 68, 69
1, 175056, Note_on_c, 0, 56, 55
1, 175077, Note_on_c, 0, 54, 0
1, 175197, Note_on_c, 0, 56, 0
1, 175269, Note_on_c, 0, 68, 0
1, 175472, Note_on_c, 0, 66, 72
1, 175474, Note_on_c, 0, 57, 47
1, 175494, Note_on_c, 0, 68, 62
1, 175494, Note_on_c, 0, 45, 49
1, 175500, Note_on_c, 0, 56, 44
1, 175532, Note_on_c, 0, 63, 0
1, 175547, Control_c, 0, 64, 115
1, 175567, Control_c, 0, 64, 83
1, 175584, Control_c, 0, 64, 46
1, 175604, Control_c, 0, 64, 0
1, 175714, Control_c, 0, 64, 28
1, 175733, Control_c, 0, 64, 48
1, 175751, Control_c, 0, 64, 75
1, 175771, Control_c, 0, 64, 94
1, 175773, Control_c, 0, 67, 9
1, 175789, Control_c, 0, 64, 115
1, 175807, Control_c, 0, 64, 125
1, 175809, Control_c, 0, 67, 15
1, 175823, Note_on_c, 0, 68, 0
1, 175825, Control_c, 0, 67, 22
1, 175839, Note_on_c, 0, 57, 0
1, 175845, Control_c, 0, 67, 32
1, 175863, Control_c, 0, 67, 42
1, 175884, Control_c, 0, 67, 49
1, 175899, Control_c, 0, 67, 55
1, 175913, Note_on_c, 0, 56, 0
1, 175917, Control_c, 0, 67, 61
1, 175937, Control_c, 0, 67, 69
1, 175955, Control_c, 0, 67, 78
1, 175974, Control_c, 0, 67, 85
1, 175992, Control_c, 0, 67, 92
1, 176012, Control_c, 0, 67, 96
1, 176049, Control_c, 0, 67, 103
1, 176084, Control_c, 0, 67, 109
1, 176151, Control_c, 0, 67, 114
1, 176188, Control_c, 0, 67, 120
1, 176206, Control_c, 0, 67, 126
1, 176225, Control_c, 0, 64, 98
1, 176227, Note_on_c, 0, 64, 59
1, 176230, Note_on_c, 0, 45, 0
1, 176235, Note_on_c, 0, 56, 48
1, 176237, Note_on_c, 0, 66, 0
1, 176237, Note_on_c, 0, 44, 43
1, 176242, Control_c, 0, 64, 54
1, 176262, Control_c, 0, 64, 0
1, 176299, Control_c, 0, 64, 10
1, 176316, Control_c, 0, 64, 38
1, 176334, Control_c, 0, 64, 63
1, 176354, Control_c, 0, 64, 88
1, 176370, Note_on_c, 0, 56, 0
1, 176373, Control_c, 0, 64, 113
1, 176391, Control_c, 0, 64, 127
1, 176433, Note_on_c, 0, 68, 63
1, 176457, Note_on_c, 0, 56, 45
1, 176460, Note_on_c, 0, 64, 0
1, 176521, Control_c, 0, 64, 120
1, 176532, Note_on_c, 0, 68, 0
1, 176538, Control_c, 0, 64, 81
1, 176548, Note_on_c, 0, 63, 63
1, 176551, Note_on_c, 0, 44, 0
1, 176557, Note_on_c, 0, 54, 42
1, 176557, Control_c, 0, 64, 34
1, 176560, Note_on_c, 0, 56, 0
1, 176563, Note_on_c, 0, 42, 42
1, 176577, Control_c, 0, 64, 14
1, 176595, Control_c, 0, 64, 33
1, 176615, Control_c, 0, 64, 54
1, 176634, Control_c, 0, 64, 74
1, 176650, Control_c, 0, 64, 92
1, 176667, Note_on_c, 0, 68, 65
1, 176668, Note_on_c, 0, 56, 49
1, 176669, Control_c, 0, 64, 115
1, 176688, Control_c, 0, 64, 127
1, 176729, Note_on_c, 0, 63, 0
1, 176764, Note_on_c, 0, 54, 0
1, 176781, Note_on_c, 0, 68, 0
1, 176782, Note_on_c, 0, 56, 0
1, 176915, Note_on_c, 0, 42, 0
1, 176929, Control_c, 0, 64, 109
1, 176940, Note_on_c, 0, 52, 51
1, 176940, Note_on_c, 0, 68, 62
1, 176943, Note_on_c, 0, 61, 60
1, 176944, Note_on_c, 0, 40, 51
1, 176949, Note_on_c, 0, 56, 51
1, 176949, Control_c, 0, 64, 66
1, 176965, Control_c, 0, 64, 0
1, 177058, Control_c, 0, 64, 33
1, 177086, Control_c, 0, 64, 60
1, 177089, Note_on_c, 0, 61, 0
1, 177105, Control_c, 0, 64, 86
1, 177123, Control_c, 0, 64, 104
1, 177125, Note_on_c, 0, 52, 0
1, 177142, Control_c, 0, 64, 116
1, 177161, Control_c, 0, 64, 122
1, 177180, Control_c, 0, 64, 127
1, 177328, Note_on_c, 0, 60, 75
1, 177359, Note_on_c, 0, 51, 48
1, 177361, Note_on_c, 0, 39, 53
1, 177397, Note_on_c, 0, 68, 0
1, 177402, Note_on_c, 0, 56, 0
1, 177413, Note_on_c, 0, 40, 0
1, 177480, Note_on_c, 0, 60, 0
1, 177494, Note_on_c, 0, 51, 0
1, 177748, Note_on_c, 0, 49, 47
1, 177766, Note_on_c, 0, 37, 48
1, 177774, Note_on_c, 0, 68, 63
1, 177782, Note_on_c, 0, 58, 58
1, 177783, Note_on_c, 0, 56, 58
1, 177807, Control_c, 0, 64, 111
1, 177819, Note_on_c, 0, 39, 0
1, 177827, Control_c, 0, 64, 92
1, 177846, Control_c, 0, 64, 71
1, 177864, Control_c, 0, 64, 53
1, 177877, Note_on_c, 0, 68, 0
1, 177882, Control_c, 0, 64, 47
1, 177887, Note_on_c, 0, 56, 0
1, 177957, Control_c, 0, 64, 45
1, 177974, Control_c, 0, 64, 43
1, 178023, Control_c, 0, 64, 40
1, 178034, Note_on_c, 0, 68, 63
1, 178049, Note_on_c, 0, 56, 48
1, 178110, Note_on_c, 0, 56, 0
1, 178118, Note_on_c, 0, 68, 0
1, 178150, Control_c, 0, 64, 36
1, 178244, Control_c, 0, 64, 31
1, 178271, Note_on_c, 0, 68, 63
1, 178278, Note_on_c, 0, 56, 49
1, 178300, Control_c, 0, 64, 25
1, 178318, Control_c, 0, 64, 21
1, 178335, Control_c, 0, 64, 16
1, 178374, Control_c, 0, 64, 10
1, 178381, Note_on_c, 0, 68, 0
1, 178390, Note_on_c, 0, 56, 0
1, 178429, Control_c, 0, 64, 0
1, 178463, Note_on_c, 0, 49, 0
1, 178485, Control_c, 0, 64, 12
1, 178504, Control_c, 0, 64, 25
1, 178520, Control_c, 0, 64, 38
1, 178523, Note_on_c, 0, 68, 60
1, 178539, Control_c, 0, 64, 54
1, 178551, Note_on_c, 0, 56, 47
1, 178557, Control_c, 0, 64, 72
1, 178577, Control_c, 0, 64, 83
1, 178595, Control_c, 0, 64, 95
1, 178614, Control_c, 0, 64, 107
1, 178633, Control_c, 0, 64, 117
1, 178652, Control_c, 0, 64, 124
1, 178905, Note_on_c, 0, 60, 58
1, 178909, Control_c, 0, 64, 110
1, 178914, Note_on_c, 0, 58, 0
1, 178924, Note_on_c, 0, 44, 40
1, 178928, Note_on_c, 0, 32, 37
1, 178928, Control_c, 0, 64, 72
1, 178947, Control_c, 0, 64, 26
1, 178976, Control_c, 0, 64, 17
1, 178978, Note_on_c, 0, 37, 0
1, 178994, Control_c, 0, 64, 32
1, 179013, Control_c, 0, 64, 49
1, 179032, Control_c, 0, 64, 71
1, 179050, Control_c, 0, 64, 91
1, 179059, Note_on_c, 0, 60, 0
1, 179068, Control_c, 0, 64, 115
1, 179086, Control_c, 0, 64, 127
1, 179107, Note_on_c, 0, 56, 0
1, 179145, Note_on_c, 0, 44, 0
1, 179159, Note_on_c, 0, 32, 0
1, 179166, Note_on_c, 0, 68, 0
1, 179166, Poly_aftertouch_c, 0, 68, 0
1, 179361, Note_on_c, 0, 44, 43
1, 179370, Note_on_c, 0, 68, 52
1, 179375, Note_on_c, 0, 60, 47
1, 179380, Note_on_c, 0, 56, 38
1, 179383, Note_on_c, 0, 32, 31
1, 179400, Control_c, 0, 64, 122
1, 179419, Control_c, 0, 64, 108
1, 179437, Control_c, 0, 64, 91
1, 179457, Control_c, 0, 64, 73
1, 179463, Note_on_c, 0, 68, 0
1, 179475, Control_c, 0, 64, 58
1, 179486, Note_on_c, 0, 56, 0
1, 179494, Control_c, 0, 64, 54
1, 179549, Control_c, 0, 64, 51
1, 179569, Control_c, 0, 64, 47
1, 179589, Control_c, 0, 64, 43
1, 179606, Control_c, 0, 64, 40
1, 179619, Note_on_c, 0, 68, 58
1, 179638, Note_on_c, 0, 56, 39
1, 179679, Control_c, 0, 64, 36
1, 179700, Note_on_c, 0, 56, 0
1, 179705, Note_on_c, 0, 68, 0
1, 179736, Control_c, 0, 64, 31
1, 179773, Control_c, 0, 64, 26
1, 179809, Control_c, 0, 64, 22
1, 179845, Control_c, 0, 64, 16
1, 179853, Note_on_c, 0, 56, 36
1, 179860, Note_on_c, 0, 68, 57
1, 179883, Control_c, 0, 64, 10
1, 179911, Control_c, 0, 64, 0
1, 179968, Note_on_c, 0, 68, 0
1, 179989, Note_on_c, 0, 56, 0
1, 180151, Note_on_c, 0, 68, 47
1, 180180, Note_on_c, 0, 56, 31
1, 180188, Control_c, 0, 64, 14
1, 180206, Control_c, 0, 64, 34
1, 180225, Control_c, 0, 64, 55
1, 180244, Control_c, 0, 64, 74
1, 180263, Control_c, 0, 64, 85
1, 180281, Control_c, 0, 64, 98
1, 180301, Control_c, 0, 64, 110
1, 180319, Control_c, 0, 64, 121
1, 180337, Control_c, 0, 64, 127
1, 180386, Note_on_c, 0, 32, 0
1, 180396, Note_on_c, 0, 56, 0
1, 180440, Note_on_c, 0, 68, 0
1, 180490, Note_on_c, 0, 60, 0
1, 180532, Note_on_c, 0, 44, 0
1, 181032, Control_c, 0, 64, 115
1, 181050, Control_c, 0, 64, 86
1, 181054, Note_on_c, 0, 75, 53
1, 181072, Control_c, 0, 64, 62
1, 181086, Control_c, 0, 64, 64
1, 181107, Control_c, 0, 64, 71
1, 181109, Note_on_c, 0, 63, 31
1, 181123, Control_c, 0, 64, 80
1, 181142, Control_c, 0, 64, 96
1, 181161, Control_c, 0, 64, 118
1, 181180, Control_c, 0, 64, 127
1, 181186, Note_on_c, 0, 63, 0
1, 181197, Note_on_c, 0, 75, 0
1, 181317, Note_on_c, 0, 75, 67
1, 181348, Note_on_c, 0, 63, 28
1, 181393, Note_on_c, 0, 63, 0
1, 181421, Control_c, 0, 67, 120
1, 181430, Note_on_c, 0, 75, 0
1, 181459, Control_c, 0, 67, 111
1, 181477, Control_c, 0, 67, 101
1, 181496, Control_c, 0, 67, 87
1, 181512, Control_c, 0, 67, 69
1, 181532, Control_c, 0, 67, 48
1, 181537, Note_on_c, 0, 75, 71
1, 181547, Note_on_c, 0, 63, 36
1, 181550, Control_c, 0, 67, 30
1, 181569, Control_c, 0, 67, 14
1, 181607, Control_c, 0, 67, 0
1, 181693, Note_on_c, 0, 63, 0
1, 181696, Note_on_c, 0, 75, 0
1, 181875, Note_on_c, 0, 75, 57
1, 181902, Note_on_c, 0, 63, 38
1, 181915, Note_on_c, 0, 68, 42
1, 181920, Note_on_c, 0, 59, 40
1, 181937, Note_on_c, 0, 47, 36
1, 182005, Control_c, 0, 64, 100
1, 182022, Control_c, 0, 64, 69
1, 182041, Control_c, 0, 64, 41
1, 182059, Control_c, 0, 64, 32
1, 182116, Control_c, 0, 64, 45
1, 182134, Control_c, 0, 64, 60
1, 182153, Control_c, 0, 64, 79
1, 182172, Control_c, 0, 64, 97
1, 182191, Control_c, 0, 64, 116
1, 182207, Control_c, 0, 64, 126
1, 182292, Note_on_c, 0, 59, 0
1, 182305, Note_on_c, 0, 63, 0
1, 182307, Note_on_c, 0, 75, 0
1, 182417, Note_on_c, 0, 47, 0
1, 182603, Note_on_c, 0, 75, 53
1, 182617, Note_on_c, 0, 63, 43
1, 182632, Note_on_c, 0, 58, 58
1, 182632, Control_c, 0, 64, 109
1, 182646, Note_on_c, 0, 46, 48
1, 182651, Control_c, 0, 64, 76
1, 182671, Control_c, 0, 64, 47
1, 182690, Control_c, 0, 64, 43
1, 182706, Note_on_c, 0, 63, 0
1, 182718, Control_c, 0, 64, 51
1, 182721, Note_on_c, 0, 75, 0
1, 182736, Control_c, 0, 64, 64
1, 182756, Control_c, 0, 64, 77
1, 182772, Control_c, 0, 64, 94
1, 182791, Control_c, 0, 64, 117
1, 182806, Note_on_c, 0, 58, 0
1, 182810, Control_c, 0, 64, 127
1, 182840, Note_on_c, 0, 63, 42
1, 182847, Note_on_c, 0, 75, 50
1, 182895, Note_on_c, 0, 63, 0
1, 182924, Note_on_c, 0, 46, 0
1, 182926, Note_on_c, 0, 75, 0
1, 182944, Note_on_c, 0, 56, 74
1, 182954, Note_on_c, 0, 68, 0
1, 182954, Note_on_c, 0, 44, 65
1, 183014, Control_c, 0, 64, 95
1, 183033, Control_c, 0, 64, 76
1, 183050, Control_c, 0, 64, 78
1, 183051, Note_on_c, 0, 63, 54
1, 183061, Note_on_c, 0, 75, 68
1, 183069, Control_c, 0, 64, 92
1, 183088, Control_c, 0, 64, 112
1, 183107, Control_c, 0, 64, 127
1, 183138, Note_on_c, 0, 56, 0
1, 183144, Note_on_c, 0, 44, 0
1, 183173, Note_on_c, 0, 75, 0
1, 183215, Note_on_c, 0, 63, 0
1, 183301, Note_on_c, 0, 58, 56
1, 183302, Note_on_c, 0, 46, 53
1, 183309, Note_on_c, 0, 67, 70
1, 183312, Note_on_c, 0, 75, 66
1, 183327, Note_on_c, 0, 63, 56
1, 183347, Control_c, 0, 64, 99
1, 183365, Control_c, 0, 64, 57
1, 183384, Control_c, 0, 64, 0
1, 183440, Control_c, 0, 64, 30
1, 183459, Control_c, 0, 64, 48
1, 183467, Note_on_c, 0, 67, 0
1, 183478, Control_c, 0, 64, 73
1, 183496, Control_c, 0, 64, 92
1, 183513, Control_c, 0, 64, 112
1, 183533, Control_c, 0, 64, 121
1, 183551, Control_c, 0, 64, 126
1, 183684, Note_on_c, 0, 65, 80
1, 183773, Note_on_c, 0, 63, 0
1, 183792, Note_on_c, 0, 46, 0
1, 183803, Note_on_c, 0, 58, 0
1, 183870, Note_on_c, 0, 65, 0
1, 183871, Note_on_c, 0, 75, 0
1, 184160, Note_on_c, 0, 49, 44
1, 184170, Note_on_c, 0, 61, 52
1, 184173, Note_on_c, 0, 70, 76
1, 184188, Note_on_c, 0, 75, 68
1, 184192, Note_on_c, 0, 63, 64
1, 184227, Control_c, 0, 64, 114
1, 184247, Control_c, 0, 64, 77
1, 184264, Control_c, 0, 64, 34
1, 184283, Control_c, 0, 64, 0
1, 184312, Note_on_c, 0, 75, 0
1, 184319, Control_c, 0, 64, 22
1, 184321, Note_on_c, 0, 63, 0
1, 184340, Control_c, 0, 64, 41
1, 184357, Control_c, 0, 64, 61
1, 184376, Control_c, 0, 64, 83
1, 184395, Control_c, 0, 64, 104
1, 184414, Control_c, 0, 64, 121
1, 184432, Control_c, 0, 64, 127
1, 184460, Note_on_c, 0, 75, 53
1, 184472, Note_on_c, 0, 63, 40
1, 184519, Note_on_c, 0, 63, 0
1, 184524, Note_on_c, 0, 75, 0
1, 184679, Note_on_c, 0, 63, 51
1, 184679, Note_on_c, 0, 75, 68
1, 184738, Note_on_c, 0, 61, 0
1, 184751, Note_on_c, 0, 63, 0
1, 184780, Note_on_c, 0, 75, 0
1, 184919, Note_on_c, 0, 63, 51
1, 184925, Note_on_c, 0, 75, 63
1, 184941, Control_c, 0, 64, 103
1, 184952, Note_on_c, 0, 59, 57
1, 184959, Control_c, 0, 64, 66
1, 184961, Note_on_c, 0, 47, 44
1, 184978, Control_c, 0, 64, 19
1, 184980, Note_on_c, 0, 49, 0
1, 184997, Control_c, 0, 64, 0
1, 185052, Control_c, 0, 64, 10
1, 185070, Control_c, 0, 64, 32
1, 185089, Control_c, 0, 64, 52
1, 185107, Control_c, 0, 64, 78
1, 185113, Note_on_c, 0, 59, 0
1, 185127, Control_c, 0, 64, 98
1, 185146, Control_c, 0, 64, 119
1, 185163, Control_c, 0, 64, 127
1, 185308, Note_on_c, 0, 70, 0
1, 185308, Note_on_c, 0, 46, 67
1, 185312, Note_on_c, 0, 58, 70
1, 185328, Note_on_c, 0, 47, 0
1, 185403, Note_on_c, 0, 75, 0
1, 185448, Note_on_c, 0, 63, 0
1, 185538, Note_on_c, 0, 58, 0
1, 185660, Note_on_c, 0, 68, 75
1, 185660, Note_on_c, 0, 75, 63
1, 185662, Note_on_c, 0, 59, 59
1, 185664, Note_on_c, 0, 46, 0
1, 185677, Note_on_c, 0, 47, 59
1, 185691, Control_c, 0, 64, 95
1, 185710, Control_c, 0, 64, 53
1, 185713, Note_on_c, 0, 63, 27
1, 185729, Control_c, 0, 64, 0
1, 185752, Note_on_c, 0, 75, 0
1, 185762, Note_on_c, 0, 63, 0
1, 185801, Control_c, 0, 64, 31
1, 185820, Control_c, 0, 64, 50
1, 185838, Control_c, 0, 64, 77
1, 185858, Control_c, 0, 64, 99
1, 185876, Control_c, 0, 64, 120
1, 185877, Note_on_c, 0, 75, 71
1, 185886, Note_on_c, 0, 63, 51
1, 185894, Control_c, 0, 64, 127
1, 185916, Note_on_c, 0, 68, 0
1, 185990, Note_on_c, 0, 67, 81
1, 185999, Note_on_c, 0, 75, 0
1, 186010, Note_on_c, 0, 63, 0
1, 186011, Note_on_c, 0, 47, 0
1, 186084, Note_on_c, 0, 59, 0
1, 186108, Note_on_c, 0, 75, 78
1, 186131, Note_on_c, 0, 63, 61
1, 186196, Note_on_c, 0, 67, 0
1, 186263, Note_on_c, 0, 63, 0
1, 186264, Note_on_c, 0, 75, 0
1, 186387, Note_on_c, 0, 71, 74
1, 186399, Note_on_c, 0, 63, 67
1, 186413, Note_on_c, 0, 75, 59
1, 186416, Note_on_c, 0, 51, 55
1, 186462, Control_c, 0, 64, 110
1, 186479, Control_c, 0, 64, 69
1, 186497, Control_c, 0, 64, 10
1, 186516, Control_c, 0, 64, 0
1, 186552, Control_c, 0, 64, 12
1, 186572, Control_c, 0, 64, 36
1, 186590, Control_c, 0, 64, 58
1, 186609, Control_c, 0, 64, 84
1, 186628, Control_c, 0, 64, 105
1, 186645, Control_c, 0, 64, 123
1, 186664, Control_c, 0, 64, 127
1, 186670, Note_on_c, 0, 51, 0
1, 186726, Note_on_c, 0, 71, 0
1, 186773, Note_on_c, 0, 70, 82
1, 186792, Note_on_c, 0, 61, 65
1, 186794, Note_on_c, 0, 49, 62
1, 186877, Note_on_c, 0, 49, 0
1, 186923, Note_on_c, 0, 63, 0
1, 186926, Note_on_c, 0, 75, 0
1, 186969, Note_on_c, 0, 61, 0
1, 187401, Note_on_c, 0, 54, 66
1, 187401, Note_on_c, 0, 66, 72
1, 187413, Note_on_c, 0, 75, 72
1, 187428, Note_on_c, 0, 70, 0
1, 187433, Control_c, 0, 64, 123
1, 187450, Control_c, 0, 64, 84
1, 187464, Note_on_c, 0, 63, 37
1, 187469, Control_c, 0, 64, 37
1, 187488, Control_c, 0, 64, 0
1, 187544, Control_c, 0, 64, 34
1, 187552, Note_on_c, 0, 63, 0
1, 187563, Control_c, 0, 64, 57
1, 187581, Control_c, 0, 64, 84
1, 187597, Note_on_c, 0, 75, 0
1, 187600, Control_c, 0, 64, 105
1, 187619, Control_c, 0, 64, 123
1, 187636, Control_c, 0, 64, 127
1, 187735, Note_on_c, 0, 75, 65
1, 187753, Note_on_c, 0, 63, 41
1, 187768, Note_on_c, 0, 66, 0
1, 187838, Note_on_c, 0, 63, 0
1, 187846, Note_on_c, 0, 75, 0
1, 187858, Control_c, 0, 67, 8
1, 187981, Note_on_c, 0, 75, 53
1, 187999, Note_on_c, 0, 63, 35
1, 188025, Control_c, 0, 67, 12
1, 188128, Note_on_c, 0, 75, 0
1, 188144, Note_on_c, 0, 63, 0
1, 188259, Note_on_c, 0, 73, 59
1, 188260, Note_on_c, 0, 63, 39
1, 188266, Control_c, 0, 64, 123
1, 188267, Control_c, 0, 67, 16
1, 188269, Note_on_c, 0, 75, 49
1, 188285, Control_c, 0, 64, 86
1, 188289, Note_on_c, 0, 64, 46
1, 188304, Control_c, 0, 64, 42
1, 188309, Note_on_c, 0, 52, 33
1, 188333, Control_c, 0, 64, 11
1, 188334, Control_c, 0, 67, 22
1, 188350, Control_c, 0, 64, 17
1, 188369, Control_c, 0, 64, 33
1, 188372, Note_on_c, 0, 54, 0
1, 188386, Control_c, 0, 64, 50
1, 188388, Control_c, 0, 67, 27
1, 188404, Control_c, 0, 64, 70
1, 188424, Control_c, 0, 64, 89
1, 188425, Control_c, 0, 67, 32
1, 188427, Note_on_c, 0, 64, 0
1, 188442, Control_c, 0, 64, 112
1, 188460, Control_c, 0, 64, 127
1, 188628, Control_c, 0, 67, 37
1, 188674, Note_on_c, 0, 71, 70
1, 188683, Control_c, 0, 67, 41
1, 188688, Note_on_c, 0, 51, 57
1, 188716, Note_on_c, 0, 73, 0
1, 188720, Note_on_c, 0, 52, 0
1, 188720, Control_c, 0, 67, 45
1, 188768, Control_c, 0, 67, 50
1, 188786, Control_c, 0, 67, 55
1, 188806, Control_c, 0, 67, 63
1, 188824, Control_c, 0, 67, 70
1, 188843, Control_c, 0, 67, 75
1, 188850, Note_on_c, 0, 75, 0
1, 188862, Control_c, 0, 67, 81
1, 188880, Control_c, 0, 67, 85
1, 188889, Note_on_c, 0, 63, 0
1, 188899, Control_c, 0, 67, 90
1, 188910, Note_on_c, 0, 71, 0
1, 188917, Control_c, 0, 67, 95
1, 188934, Control_c, 0, 67, 100
1, 188954, Control_c, 0, 67, 105
1, 188972, Control_c, 0, 67, 109
1, 188991, Control_c, 0, 67, 114
1, 189009, Control_c, 0, 64, 118
1, 189010, Control_c, 0, 67, 119
1, 189024, Note_on_c, 0, 75, 53
1, 189028, Control_c, 0, 64, 79
1, 189030, Control_c, 0, 67, 124
1, 189036, Note_on_c, 0, 63, 51
1, 189042, Note_on_c, 0, 70, 60
1, 189045, Control_c, 0, 64, 34
1, 189059, Note_on_c, 0, 61, 40
1, 189061, Note_on_c, 0, 49, 44
1, 189084, Control_c, 0, 64, 21
1, 189104, Control_c, 0, 64, 41
1, 189105, Note_on_c, 0, 51, 0
1, 189119, Control_c, 0, 64, 63
1, 189139, Control_c, 0, 64, 86
1, 189147, Note_on_c, 0, 75, 0
1, 189157, Control_c, 0, 64, 108
1, 189169, Note_on_c, 0, 63, 0
1, 189176, Control_c, 0, 64, 127
1, 189204, Note_on_c, 0, 49, 0
1, 189265, Note_on_c, 0, 61, 0
1, 189301, Note_on_c, 0, 70, 0
1, 189301, Note_on_c, 0, 75, 60
1, 189327, Note_on_c, 0, 63, 35
1, 189411, Note_on_c, 0, 75, 0
1, 189445, Note_on_c, 0, 47, 52
1, 189457, Note_on_c, 0, 68, 62
1, 189459, Note_on_c, 0, 59, 49
1, 189499, Control_c, 0, 64, 104
1, 189518, Control_c, 0, 64, 62
1, 189537, Control_c, 0, 64, 26
1, 189555, Control_c, 0, 64, 31
1, 189573, Control_c, 0, 64, 44
1, 189580, Note_on_c, 0, 75, 47
1, 189593, Control_c, 0, 64, 61
1, 189598, Note_on_c, 0, 63, 0
1, 189598, Note_on_c, 0, 63, 6
1, 189612, Control_c, 0, 64, 82
1, 189630, Control_c, 0, 64, 101
1, 189649, Control_c, 0, 64, 121
1, 189668, Control_c, 0, 64, 127
1, 189717, Note_on_c, 0, 59, 0
1, 189745, Note_on_c, 0, 68, 0
1, 189765, Note_on_c, 0, 75, 0
1, 189835, Note_on_c, 0, 63, 0
1, 190056, Note_on_c, 0, 67, 61
1, 190063, Note_on_c, 0, 46, 34
1, 190064, Note_on_c, 0, 63, 45
1, 190068, Note_on_c, 0, 75, 45
1, 190081, Note_on_c, 0, 58, 29
1, 190157, Note_on_c, 0, 47, 0
1, 190214, Control_c, 0, 64, 114
1, 190233, Control_c, 0, 64, 83
1, 190249, Control_c, 0, 64, 46
1, 190269, Control_c, 0, 64, 0
1, 190381, Control_c, 0, 64, 34
1, 190400, Control_c, 0, 64, 52
1, 190418, Control_c, 0, 64, 75
1, 190435, Control_c, 0, 64, 92
1, 190454, Control_c, 0, 64, 108
1, 190472, Control_c, 0, 64, 116
1, 190492, Control_c, 0, 64, 122
1, 190509, Control_c, 0, 64, 127
1, 190529, Note_on_c, 0, 58, 0
1, 191175, Note_on_c, 0, 73, 48
1, 191196, Note_on_c, 0, 39, 30
1, 191198, Note_on_c, 0, 51, 19
1, 191335, Control_c, 0, 64, 101
1, 191354, Control_c, 0, 64, 68
1, 191372, Control_c, 0, 64, 31
1, 191389, Control_c, 0, 64, 18
1, 191400, Note_on_c, 0, 46, 0
1, 191427, Control_c, 0, 64, 28
1, 191445, Control_c, 0, 64, 42
1, 191464, Control_c, 0, 64, 58
1, 191485, Control_c, 0, 64, 78
1, 191502, Control_c, 0, 64, 96
1, 191520, Control_c, 0, 64, 115
1, 191539, Control_c, 0, 64, 124
1, 191604, Note_on_c, 0, 75, 0
1, 191662, Note_on_c, 0, 67, 0
1, 191677, Poly_aftertouch_c, 0, 63, 24
1, 191690, Note_on_c, 0, 51, 0
1, 191749, Note_on_c, 0, 63, 0
1, 191749, Poly_aftertouch_c, 0, 63, 0
1, 192357, Note_on_c, 0, 75, 41
1, 192383, Note_on_c, 0, 72, 44
1, 192392, Note_on_c, 0, 44, 37
1, 192395, Note_on_c, 0, 63, 37
1, 192403, Note_on_c, 0, 32, 30
1, 192409, Note_on_c, 0, 68, 35
1, 192439, Note_on_c, 0, 39, 0
1, 192486, Note_on_c, 0, 73, 0
1, 192490, Control_c, 0, 64, 101
1, 192511, Control_c, 0, 64, 68
1, 192528, Control_c, 0, 64, 19
1, 192548, Control_c, 0, 64, 0
1, 192642, Control_c, 0, 64, 22
1, 192660, Control_c, 0, 64, 45
1, 192669, Note_on_c, 0, 68, 0
1, 192678, Control_c, 0, 64, 71
1, 192696, Control_c, 0, 64, 92
1, 192714, Control_c, 0, 64, 113
1, 192734, Control_c, 0, 64, 124
1, 192830, Note_on_c, 0, 68, 46
1, 193064, Note_on_c, 0, 32, 0
1, 193157, Note_on_c, 0, 44, 0
1, 193193, Note_on_c, 0, 68, 0
1, 193448, Note_on_c, 0, 68, 33
1, 193668, Control_c, 0, 67, 119
1, 193706, Control_c, 0, 67, 114
1, 193726, Control_c, 0, 67, 109
1, 193743, Control_c, 0, 67, 101
1, 193755, Note_on_c, 0, 68, 0
1, 193760, Control_c, 0, 67, 90
1, 193781, Control_c, 0, 67, 73
1, 193799, Control_c, 0, 67, 53
1, 193816, Control_c, 0, 67, 33
1, 193835, Control_c, 0, 67, 15
1, 193872, Control_c, 0, 67, 0
1, 193994, Note_on_c, 0, 63, 0
1, 194086, Note_on_c, 0, 68, 27
1, 194416, Note_on_c, 0, 67, 56
1, 194523, Note_on_c, 0, 68, 0
1, 194595, Note_on_c, 0, 67, 0
1, 194762, Note_on_c, 0, 68, 32
1, 194768, Note_on_c, 0, 67, 39
1, 194946, Control_c, 0, 67, 9
1, 195003, Control_c, 0, 67, 15
1, 195041, Control_c, 0, 67, 20
1, 195077, Control_c, 0, 67, 26
1, 195088, Note_on_c, 0, 68, 0
1, 195100, Note_on_c, 0, 67, 0
1, 195114, Control_c, 0, 67, 32
1, 195150, Control_c, 0, 67, 36
1, 195245, Control_c, 0, 67, 40
1, 195324, Note_on_c, 0, 68, 31
1, 195352, Note_on_c, 0, 67, 35
1, 195466, Control_c, 0, 67, 45
1, 195502, Control_c, 0, 67, 50
1, 195539, Control_c, 0, 67, 56
1, 195559, Control_c, 0, 67, 61
1, 195578, Control_c, 0, 67, 65
1, 195614, Control_c, 0, 67, 71
1, 195633, Note_on_c, 0, 68, 0
1, 195652, Control_c, 0, 67, 76
1, 195667, Note_on_c, 0, 67, 0
1, 195687, Control_c, 0, 67, 80
1, 195727, Control_c, 0, 67, 84
1, 195939, Note_on_c, 0, 68, 29
1, 195955, Note_on_c, 0, 67, 30
1, 195956, Control_c, 0, 67, 88
1, 196032, Control_c, 0, 67, 92
1, 196066, Note_on_c, 0, 67, 0
1, 196124, Control_c, 0, 67, 97
1, 196162, Control_c, 0, 67, 101
1, 196402, Control_c, 0, 67, 105
1, 196421, Note_on_c, 0, 66, 40
1, 196493, Note_on_c, 0, 68, 0
1, 196513, Control_c, 0, 64, 120
1, 196531, Control_c, 0, 64, 90
1, 196550, Control_c, 0, 64, 58
1, 196569, Control_c, 0, 64, 44
1, 196571, Control_c, 0, 67, 109
1, 196589, Control_c, 0, 64, 49
1, 196605, Control_c, 0, 64, 61
1, 196624, Control_c, 0, 64, 73
1, 196642, Control_c, 0, 64, 87
1, 196661, Control_c, 0, 64, 107
1, 196680, Control_c, 0, 64, 124
1, 196716, Control_c, 0, 67, 113
1, 196738, Note_on_c, 0, 66, 0
1, 196836, Control_c, 0, 67, 117
1, 196873, Control_c, 0, 67, 121
1, 196894, Note_on_c, 0, 66, 16
1, 196902, Note_on_c, 0, 68, 31
1, 196912, Control_c, 0, 67, 126
1, 197225, Note_on_c, 0, 68, 0
1, 197276, Note_on_c, 0, 66, 0
1, 197682, Note_on_c, 0, 68, 16
1, 197702, Note_on_c, 0, 66, 14
1, 198055, Note_on_c, 0, 68, 0
1, 198055, Note_on_c, 0, 66, 0
1, 198065, Note_on_c, 0, 44, 36
1, 198198, Poly_aftertouch_c, 0, 75, 22
1, 198226, Note_on_c, 0, 75, 0
1, 198226, Poly_aftertouch_c, 0, 75, 0
1, 198379, Note_on_c, 0, 48, 56
1, 198401, Note_on_c, 0, 72, 0
1, 198413, Note_on_c, 0, 66, 27
1, 198460, Note_on_c, 0, 66, 0
1, 198478, Note_on_c, 0, 44, 0
1, 198511, Poly_aftertouch_c, 0, 68, 0
1, 198733, Note_on_c, 0, 37, 39
1, 198891, Note_on_c, 0, 54, 58
1, 198896, Note_on_c, 0, 48, 0
1, 199023, Control_c, 0, 64, 116
1, 199041, Control_c, 0, 64, 85
1, 199059, Control_c, 0, 64, 52
1, 199078, Control_c, 0, 64, 31
1, 199116, Control_c, 0, 64, 40
1, 199134, Control_c, 0, 64, 54
1, 199153, Control_c, 0, 64, 72
1, 199172, Control_c, 0, 64, 90
1, 199190, Control_c, 0, 64, 113
1, 199210, Control_c, 0, 64, 127
1, 199326, Note_on_c, 0, 37, 0
1, 199345, Note_on_c, 0, 68, 40
1, 199356, Note_on_c, 0, 63, 37
1, 199504, Note_on_c, 0, 54, 0
1, 199706, Note_on_c, 0, 53, 53
1, 199797, Note_on_c, 0, 68, 0
1, 200023, Note_on_c, 0, 51, 64
1, 200056, Note_on_c, 0, 68, 39
1, 200058, Note_on_c, 0, 66, 40
1, 200120, Note_on_c, 0, 53, 0
1, 200154, Note_on_c, 0, 63, 0
1, 200269, Note_on_c, 0, 66, 0
1, 200345, Note_on_c, 0, 68, 0
1, 200450, Note_on_c, 0, 53, 46
1, 200544, Note_on_c, 0, 51, 0
1, 200580, Control_c, 0, 64, 114
1, 200598, Control_c, 0, 64, 87
1, 200618, Control_c, 0, 64, 55
1, 200635, Control_c, 0, 64, 21
1, 200654, Control_c, 0, 64, 10
1, 200710, Control_c, 0, 64, 19
1, 200727, Control_c, 0, 64, 39
1, 200746, Control_c, 0, 64, 59
1, 200763, Control_c, 0, 64, 82
1, 200783, Control_c, 0, 64, 99
1, 200794, Note_on_c, 0, 68, 42
1, 200802, Note_on_c, 0, 65, 25
1, 200802, Control_c, 0, 64, 115
1, 200820, Control_c, 0, 64, 123
1, 200838, Control_c, 0, 64, 127
1, 200931, Note_on_c, 0, 53, 0
1, 201155, Note_on_c, 0, 37, 40
1, 201198, Note_on_c, 0, 68, 0
1, 201204, Note_on_c, 0, 65, 0
1, 201301, Control_c, 0, 67, 119
1, 201338, Control_c, 0, 67, 114
1, 201375, Control_c, 0, 67, 108
1, 201394, Control_c, 0, 67, 102
1, 201422, Control_c, 0, 67, 93
1, 201441, Control_c, 0, 67, 78
1, 201460, Control_c, 0, 67, 59
1, 201477, Control_c, 0, 67, 39
1, 201495, Control_c, 0, 67, 20
1, 201498, Note_on_c, 0, 68, 37
1, 201506, Note_on_c, 0, 65, 24
1, 201533, Control_c, 0, 67, 0
1, 201798, Note_on_c, 0, 49, 53
1, 201833, Note_on_c, 0, 68, 0
1, 201864, Note_on_c, 0, 65, 0
1, 201911, Note_on_c, 0, 37, 0
1, 202106, Note_on_c, 0, 65, 44
1, 202107, Note_on_c, 0, 68, 51
1, 202311, Control_c, 0, 67, 8
1, 202431, Control_c, 0, 67, 12
1, 202483, Note_on_c, 0, 38, 55
1, 202486, Note_on_c, 0, 47, 58
1, 202509, Note_on_c, 0, 65, 0
1, 202525, Control_c, 0, 67, 17
1, 202542, Note_on_c, 0, 68, 0
1, 202574, Note_on_c, 0, 49, 0
1, 202578, Control_c, 0, 67, 22
1, 202618, Control_c, 0, 64, 111
1, 202635, Control_c, 0, 64, 79
1, 202638, Control_c, 0, 67, 29
1, 202654, Control_c, 0, 64, 45
1, 202673, Control_c, 0, 64, 30
1, 202674, Control_c, 0, 67, 34
1, 202710, Control_c, 0, 64, 35
1, 202729, Control_c, 0, 64, 47
1, 202748, Control_c, 0, 64, 62
1, 202766, Control_c, 0, 64, 78
1, 202783, Control_c, 0, 64, 96
1, 202802, Control_c, 0, 64, 113
1, 202821, Control_c, 0, 64, 122
1, 202832, Note_on_c, 0, 38, 0
1, 202833, Note_on_c, 0, 68, 44
1, 202837, Note_on_c, 0, 65, 31
1, 202858, Control_c, 0, 64, 127
1, 202987, Control_c, 0, 67, 40
1, 203025, Control_c, 0, 67, 45
1, 203062, Control_c, 0, 67, 49
1, 203099, Control_c, 0, 67, 55
1, 203117, Control_c, 0, 67, 59
1, 203154, Control_c, 0, 67, 65
1, 203190, Control_c, 0, 67, 70
1, 203229, Control_c, 0, 67, 77
1, 203266, Control_c, 0, 67, 83
1, 203276, Note_on_c, 0, 39, 53
1, 203311, Control_c, 0, 67, 87
1, 203348, Control_c, 0, 67, 92
1, 203366, Control_c, 0, 67, 98
1, 203386, Control_c, 0, 67, 104
1, 203389, Note_on_c, 0, 65, 0
1, 203404, Control_c, 0, 67, 109
1, 203441, Control_c, 0, 67, 115
1, 203479, Control_c, 0, 67, 121
1, 203498, Control_c, 0, 67, 126
1, 203553, Control_c, 0, 64, 118
1, 203570, Control_c, 0, 64, 105
1, 203590, Control_c, 0, 64, 90
1, 203608, Control_c, 0, 64, 74
1, 203627, Control_c, 0, 64, 61
1, 203646, Control_c, 0, 64, 53
1, 203662, Control_c, 0, 64, 46
1, 203681, Control_c, 0, 64, 37
1, 203694, Note_on_c, 0, 66, 28
1, 203700, Control_c, 0, 64, 26
1, 203705, Note_on_c, 0, 65, 26
1, 203713, Note_on_c, 0, 68, 0
1, 203717, Control_c, 0, 64, 14
1, 203756, Control_c, 0, 64, 0
1, 203847, Control_c, 0, 64, 25
1, 203867, Control_c, 0, 64, 36
1, 203885, Control_c, 0, 64, 47
1, 203905, Control_c, 0, 64, 65
1, 203922, Control_c, 0, 64, 82
1, 203944, Control_c, 0, 64, 96
1, 203960, Control_c, 0, 64, 108
1, 203978, Control_c, 0, 64, 118
1, 203997, Control_c, 0, 64, 127
1, 204012, Note_on_c, 0, 66, 0
1, 204037, Note_on_c, 0, 65, 0
1, 204320, Control_c, 0, 67, 122
1, 204331, Note_on_c, 0, 65, 42
1, 204335, Note_on_c, 0, 66, 33
1, 204358, Control_c, 0, 67, 115
1, 204396, Control_c, 0, 67, 109
1, 204414, Control_c, 0, 67, 102
1, 204431, Control_c, 0, 67, 92
1, 204451, Control_c, 0, 67, 77
1, 204469, Control_c, 0, 67, 60
1, 204489, Control_c, 0, 67, 43
1, 204506, Control_c, 0, 67, 28
1, 204525, Control_c, 0, 67, 15
1, 204558, Note_on_c, 0, 66, 0
1, 204563, Control_c, 0, 67, 0
1, 204594, Note_on_c, 0, 46, 59
1, 204701, Note_on_c, 0, 39, 0
1, 204719, Note_on_c, 0, 47, 0
1, 204901, Note_on_c, 0, 51, 73
1, 204906, Note_on_c, 0, 66, 57
1, 204908, Note_on_c, 0, 65, 0
1, 204908, Note_on_c, 0, 63, 46
1, 205033, Note_on_c, 0, 39, 57
1, 205067, Note_on_c, 0, 63, 0
1, 205107, Note_on_c, 0, 39, 0
1, 205149, Note_on_c, 0, 66, 0
1, 205162, Note_on_c, 0, 46, 0
1, 205435, Note_on_c, 0, 56, 71
1, 205665, Note_on_c, 0, 51, 0
1, 205718, Control_c, 0, 64, 117
1, 205738, Control_c, 0, 64, 97
1, 205757, Control_c, 0, 64, 73
1, 205776, Control_c, 0, 64, 49
1, 205794, Control_c, 0, 64, 35
1, 205832, Control_c, 0, 64, 31
1, 205843, Note_on_c, 0, 65, 35
1, 205845, Note_on_c, 0, 70, 45
1, 205887, Control_c, 0, 64, 40
1, 205907, Control_c, 0, 64, 53
1, 205924, Control_c, 0, 64, 68
1, 205944, Control_c, 0, 64, 80
1, 205962, Control_c, 0, 64, 94
1, 205979, Control_c, 0, 64, 108
1, 205997, Control_c, 0, 64, 121
1, 206016, Control_c, 0, 64, 127
1, 206179, Note_on_c, 0, 54, 57
1, 206186, Note_on_c, 0, 70, 0
1, 206331, Note_on_c, 0, 65, 0
1, 206447, Note_on_c, 0, 56, 0
1, 206486, Note_on_c, 0, 53, 61
1, 206521, Note_on_c, 0, 68, 50
1, 206523, Note_on_c, 0, 70, 48
1, 206527, Control_c, 0, 67, 8
1, 206552, Note_on_c, 0, 54, 0
1, 206692, Control_c, 0, 67, 12
1, 206788, Note_on_c, 0, 70, 0
1, 206811, Note_on_c, 0, 68, 0
1, 206888, Note_on_c, 0, 54, 53
1, 206989, Control_c, 0, 67, 16
1, 206991, Note_on_c, 0, 53, 0
1, 207054, Control_c, 0, 64, 123
1, 207074, Control_c, 0, 64, 104
1, 207075, Control_c, 0, 67, 22
1, 207093, Control_c, 0, 64, 78
1, 207108, Control_c, 0, 64, 51
1, 207128, Control_c, 0, 64, 34
1, 207146, Control_c, 0, 64, 30
1, 207166, Control_c, 0, 64, 26
1, 207222, Note_on_c, 0, 66, 31
1, 207222, Note_on_c, 0, 70, 45
1, 207256, Control_c, 0, 64, 39
1, 207276, Control_c, 0, 64, 48
1, 207294, Control_c, 0, 64, 59
1, 207313, Control_c, 0, 64, 73
1, 207314, Control_c, 0, 67, 17
1, 207332, Control_c, 0, 64, 85
1, 207351, Control_c, 0, 64, 99
1, 207352, Control_c, 0, 67, 9
1, 207370, Control_c, 0, 64, 110
1, 207388, Control_c, 0, 64, 120
1, 207389, Control_c, 0, 67, 0
1, 207406, Control_c, 0, 64, 126
1, 207586, Note_on_c, 0, 39, 45
1, 207612, Note_on_c, 0, 66, 0
1, 207667, Note_on_c, 0, 70, 0
1, 207926, Note_on_c, 0, 66, 32
1, 207934, Note_on_c, 0, 70, 40
1, 207954, Note_on_c, 0, 54, 0
1, 208240, Note_on_c, 0, 66, 0
1, 208248, Note_on_c, 0, 51, 65
1, 208287, Note_on_c, 0, 70, 0
1, 208541, Note_on_c, 0, 66, 43
1, 208546, Note_on_c, 0, 39, 0
1, 208550, Note_on_c, 0, 70, 49
1, 208825, Note_on_c, 0, 70, 0
1, 208929, Note_on_c, 0, 40, 53
1, 208931, Note_on_c, 0, 49, 68
1, 208936, Note_on_c, 0, 66, 0
1, 209018, Control_c, 0, 64, 98
1, 209037, Control_c, 0, 64, 57
1, 209055, Control_c, 0, 64, 0
1, 209166, Control_c, 0, 64, 28
1, 209180, Note_on_c, 0, 51, 0
1, 209185, Control_c, 0, 64, 51
1, 209204, Control_c, 0, 64, 78
1, 209222, Control_c, 0, 64, 99
1, 209241, Control_c, 0, 64, 123
1, 209260, Control_c, 0, 64, 127
1, 209261, Note_on_c, 0, 40, 0
1, 209282, Note_on_c, 0, 67, 44
1, 209291, Note_on_c, 0, 70, 47
1, 209620, Note_on_c, 0, 67, 0
1, 209694, Note_on_c, 0, 41, 61
1, 209972, Control_c, 0, 64, 112
1, 209991, Control_c, 0, 64, 93
1, 210009, Control_c, 0, 64, 70
1, 210027, Control_c, 0, 64, 48
1, 210045, Control_c, 0, 64, 31
1, 210064, Control_c, 0, 64, 23
1, 210082, Control_c, 0, 64, 15
1, 210088, Note_on_c, 0, 67, 41
1, 210092, Note_on_c, 0, 68, 41
1, 210100, Control_c, 0, 64, 0
1, 210151, Note_on_c, 0, 70, 0
1, 210250, Control_c, 0, 64, 19
1, 210267, Control_c, 0, 64, 36
1, 210287, Control_c, 0, 64, 59
1, 210305, Control_c, 0, 64, 81
1, 210325, Control_c, 0, 64, 94
1, 210342, Control_c, 0, 64, 108
1, 210362, Control_c, 0, 64, 119
1, 210381, Control_c, 0, 64, 127
1, 210458, Note_on_c, 0, 68, 0
1, 210471, Note_on_c, 0, 67, 0
1, 210735, Note_on_c, 0, 67, 50
1, 210760, Note_on_c, 0, 68, 32
1, 210968, Note_on_c, 0, 68, 0
1, 210991, Note_on_c, 0, 48, 69
1, 211000, Note_on_c, 0, 49, 0
1, 211115, Note_on_c, 0, 41, 0
1, 211293, Note_on_c, 0, 53, 72
1, 211312, Note_on_c, 0, 68, 60
1, 211332, Note_on_c, 0, 67, 0
1, 211401, Poly_aftertouch_c, 0, 65, 0
1, 211469, Note_on_c, 0, 41, 49
1, 211488, Note_on_c, 0, 48, 0
1, 211561, Note_on_c, 0, 68, 0
1, 211623, Note_on_c, 0, 41, 0
1, 211750, Poly_aftertouch_c, 0, 52, 0
1, 211862, Note_on_c, 0, 58, 74
1, 212089, Note_on_c, 0, 53, 0
1, 212290, Note_on_c, 0, 72, 54
1, 212291, Note_on_c, 0, 65, 44
1, 212326, Control_c, 0, 64, 105
1, 212343, Control_c, 0, 64, 76
1, 212361, Control_c, 0, 64, 53
1, 212381, Control_c, 0, 64, 44
1, 212436, Control_c, 0, 64, 52
1, 212454, Control_c, 0, 64, 60
1, 212472, Control_c, 0, 64, 72
1, 212491, Control_c, 0, 64, 88
1, 212509, Control_c, 0, 64, 108
1, 212529, Control_c, 0, 64, 122
1, 212547, Control_c, 0, 64, 127
1, 212590, Note_on_c, 0, 56, 68
1, 212720, Note_on_c, 0, 72, 0
1, 212782, Note_on_c, 0, 58, 0
1, 212943, Note_on_c, 0, 65, 0
1, 212944, Note_on_c, 0, 55, 73
1, 212955, Note_on_c, 0, 70, 54
1, 212958, Note_on_c, 0, 72, 52
1, 213050, Note_on_c, 0, 56, 0
1, 213143, Note_on_c, 0, 70, 0
1, 213225, Note_on_c, 0, 72, 0
1, 213246, Note_on_c, 0, 56, 70
1, 213279, Control_c, 0, 64, 120
1, 213297, Control_c, 0, 64, 88
1, 213312, Note_on_c, 0, 55, 0
1, 213314, Control_c, 0, 64, 50
1, 213353, Control_c, 0, 64, 0
1, 213389, Control_c, 0, 64, 14
1, 213407, Control_c, 0, 64, 33
1, 213426, Control_c, 0, 64, 52
1, 213446, Control_c, 0, 64, 77
1, 213464, Control_c, 0, 64, 95
1, 213483, Control_c, 0, 64, 113
1, 213500, Control_c, 0, 64, 122
1, 213507, Note_on_c, 0, 60, 72
1, 213521, Control_c, 0, 64, 127
1, 213594, Note_on_c, 0, 56, 0
1, 213645, Note_on_c, 0, 72, 61
1, 213657, Note_on_c, 0, 68, 56
1, 213751, Note_on_c, 0, 63, 80
1, 213771, Note_on_c, 0, 68, 0
1, 213780, Note_on_c, 0, 72, 0
1, 213948, Note_on_c, 0, 63, 0
1, 214287, Note_on_c, 0, 66, 63
1, 214287, Note_on_c, 0, 53, 42
1, 214493, Control_c, 0, 64, 118
1, 214519, Control_c, 0, 64, 100
1, 214538, Control_c, 0, 64, 79
1, 214556, Control_c, 0, 64, 57
1, 214558, Note_on_c, 0, 60, 0
1, 214575, Control_c, 0, 64, 37
1, 214594, Control_c, 0, 64, 27
1, 214631, Control_c, 0, 64, 21
1, 214742, Control_c, 0, 64, 28
1, 214757, Note_on_c, 0, 72, 57
1, 214761, Control_c, 0, 64, 35
1, 214767, Note_on_c, 0, 69, 39
1, 214779, Control_c, 0, 64, 43
1, 214799, Control_c, 0, 64, 59
1, 214816, Control_c, 0, 64, 76
1, 214838, Control_c, 0, 64, 86
1, 214854, Control_c, 0, 64, 98
1, 214873, Control_c, 0, 64, 109
1, 214889, Control_c, 0, 64, 120
1, 214908, Control_c, 0, 64, 127
1, 215058, Control_c, 0, 67, 8
1, 215112, Control_c, 0, 67, 13
1, 215168, Control_c, 0, 67, 17
1, 215217, Note_on_c, 0, 69, 0
1, 215225, Control_c, 0, 67, 21
1, 215280, Note_on_c, 0, 72, 0
1, 215335, Control_c, 0, 67, 25
1, 215476, Note_on_c, 0, 75, 62
1, 215507, Note_on_c, 0, 66, 0
1, 215536, Note_on_c, 0, 69, 38
1, 215537, Note_on_c, 0, 72, 35
1, 215718, Note_on_c, 0, 72, 0
1, 215737, Note_on_c, 0, 69, 0
1, 215752, Control_c, 0, 67, 30
1, 215809, Control_c, 0, 67, 35
1, 215864, Control_c, 0, 67, 39
1, 215918, Control_c, 0, 67, 43
1, 215974, Control_c, 0, 67, 48
1, 216048, Control_c, 0, 67, 52
1, 216221, Note_on_c, 0, 78, 66
1, 216248, Note_on_c, 0, 69, 35
1, 216269, Note_on_c, 0, 66, 37
1, 216275, Note_on_c, 0, 72, 44
1, 216308, Control_c, 0, 67, 56
1, 216348, Note_on_c, 0, 75, 0
1, 216391, Control_c, 0, 67, 61
1, 216428, Control_c, 0, 67, 68
1, 216446, Control_c, 0, 67, 74
1, 216466, Control_c, 0, 67, 82
1, 216483, Control_c, 0, 67, 90
1, 216502, Control_c, 0, 67, 97
1, 216521, Control_c, 0, 67, 102
1, 216541, Control_c, 0, 67, 106
1, 216576, Control_c, 0, 67, 111
1, 216614, Control_c, 0, 67, 115
1, 216631, Control_c, 0, 64, 97
1, 216650, Control_c, 0, 64, 71
1, 216652, Control_c, 0, 67, 119
1, 216653, Note_on_c, 0, 41, 43
1, 216671, Control_c, 0, 64, 67
1, 216688, Control_c, 0, 64, 74
1, 216707, Control_c, 0, 64, 84
1, 216726, Control_c, 0, 64, 101
1, 216744, Control_c, 0, 64, 122
1, 216751, Note_on_c, 0, 66, 0
1, 216761, Control_c, 0, 64, 127
1, 216786, Note_on_c, 0, 69, 0
1, 216790, Note_on_c, 0, 72, 0
1, 216793, Note_on_c, 0, 41, 0
1, 216810, Note_on_c, 0, 78, 0
1, 217030, Note_on_c, 0, 78, 52
1, 217054, Note_on_c, 0, 69, 36
1, 217063, Note_on_c, 0, 66, 23
1, 217066, Note_on_c, 0, 72, 35
1, 217281, Control_c, 0, 67, 115
1, 217317, Note_on_c, 0, 66, 0
1, 217363, Control_c, 0, 67, 111
1, 217377, Note_on_c, 0, 65, 61
1, 217404, Note_on_c, 0, 69, 0
1, 217429, Note_on_c, 0, 72, 0
1, 217436, Control_c, 0, 67, 107
1, 217449, Note_on_c, 0, 78, 0
1, 217494, Control_c, 0, 67, 101
1, 217513, Control_c, 0, 67, 96
1, 217530, Control_c, 0, 67, 88
1, 217549, Control_c, 0, 67, 76
1, 217567, Control_c, 0, 67, 63
1, 217586, Control_c, 0, 67, 50
1, 217604, Control_c, 0, 67, 37
1, 217624, Control_c, 0, 67, 25
1, 217641, Control_c, 0, 67, 11
1, 217661, Control_c, 0, 67, 0
1, 217685, Note_on_c, 0, 78, 53
1, 217696, Note_on_c, 0, 69, 45
1, 217696, Note_on_c, 0, 66, 40
1, 217706, Note_on_c, 0, 72, 47
1, 218005, Note_on_c, 0, 63, 71
1, 218009, Note_on_c, 0, 69, 0
1, 218030, Note_on_c, 0, 72, 0
1, 218084, Note_on_c, 0, 78, 0
1, 218084, Note_on_c, 0, 66, 0
1, 218097, Note_on_c, 0, 53, 0
1, 218209, Note_on_c, 0, 65, 0
1, 218338, Note_on_c, 0, 78, 55
1, 218342, Note_on_c, 0, 66, 44
1, 218344, Note_on_c, 0, 69, 42
1, 218347, Note_on_c, 0, 72, 49
1, 218598, Control_c, 0, 67, 8
1, 218671, Control_c, 0, 67, 13
1, 218727, Control_c, 0, 67, 17
1, 218779, Note_on_c, 0, 66, 0
1, 218846, Note_on_c, 0, 61, 62
1, 218863, Note_on_c, 0, 54, 48
1, 218866, Note_on_c, 0, 72, 0
1, 218869, Note_on_c, 0, 78, 0
1, 218878, Note_on_c, 0, 69, 0
1, 218987, Control_c, 0, 67, 22
1, 219009, Note_on_c, 0, 63, 0
1, 219042, Control_c, 0, 67, 26
1, 219079, Control_c, 0, 64, 116
1, 219099, Control_c, 0, 64, 96
1, 219100, Control_c, 0, 67, 31
1, 219118, Control_c, 0, 64, 71
1, 219135, Control_c, 0, 64, 48
1, 219137, Control_c, 0, 67, 37
1, 219154, Control_c, 0, 64, 35
1, 219173, Control_c, 0, 64, 30
1, 219175, Control_c, 0, 67, 41
1, 219237, Control_c, 0, 67, 46
1, 219275, Control_c, 0, 64, 34
1, 219292, Control_c, 0, 64, 44
1, 219312, Control_c, 0, 64, 54
1, 219324, Note_on_c, 0, 78, 56
1, 219331, Control_c, 0, 64, 69
1, 219332, Control_c, 0, 67, 50
1, 219342, Note_on_c, 0, 73, 40
1, 219348, Note_on_c, 0, 66, 34
1, 219349, Control_c, 0, 64, 83
1, 219369, Control_c, 0, 64, 98
1, 219378, Note_on_c, 0, 70, 18
1, 219386, Control_c, 0, 64, 111
1, 219403, Control_c, 0, 64, 123
1, 219422, Control_c, 0, 64, 127
1, 219424, Control_c, 0, 67, 54
1, 219478, Control_c, 0, 67, 61
1, 219515, Control_c, 0, 67, 68
1, 219534, Control_c, 0, 67, 72
1, 219553, Control_c, 0, 67, 77
1, 219571, Note_on_c, 0, 61, 0
1, 219571, Control_c, 0, 67, 85
1, 219590, Control_c, 0, 67, 94
1, 219610, Control_c, 0, 67, 100
1, 219646, Control_c, 0, 67, 107
1, 219675, Poly_aftertouch_c, 0, 70, 24
1, 219683, Control_c, 0, 67, 111
1, 219705, Note_on_c, 0, 73, 0
1, 219720, Note_on_c, 0, 70, 0
1, 219720, Poly_aftertouch_c, 0, 70, 0
1, 219740, Control_c, 0, 67, 117
1, 219773, Note_on_c, 0, 78, 0
1, 219783, Note_on_c, 0, 66, 0
1, 219794, Control_c, 0, 67, 121
1, 219888, Control_c, 0, 67, 125
1, 219957, Note_on_c, 0, 78, 55
1, 219968, Note_on_c, 0, 66, 39
1, 219992, Note_on_c, 0, 73, 40
1, 220007, Note_on_c, 0, 70, 36
1, 220130, Note_on_c, 0, 73, 0
1, 220163, Note_on_c, 0, 70, 0
1, 220224, Note_on_c, 0, 66, 0
1, 220228, Note_on_c, 0, 42, 44
1, 220256, Note_on_c, 0, 78, 0
1, 220464, Note_on_c, 0, 42, 0
1, 220499, Note_on_c, 0, 65, 51
1, 220500, Note_on_c, 0, 77, 58
1, 220507, Note_on_c, 0, 73, 50
1, 220536, Note_on_c, 0, 70, 42
1, 220563, Control_c, 0, 64, 88
1, 220581, Control_c, 0, 64, 47
1, 220585, Note_on_c, 0, 43, 54
1, 220598, Note_on_c, 0, 70, 0
1, 220600, Control_c, 0, 64, 18
1, 220605, Note_on_c, 0, 54, 0
1, 220640, Control_c, 0, 64, 30
1, 220648, Note_on_c, 0, 73, 0
1, 220657, Control_c, 0, 64, 49
1, 220676, Control_c, 0, 64, 71
1, 220695, Control_c, 0, 64, 92
1, 220711, Control_c, 0, 64, 117
1, 220712, Note_on_c, 0, 77, 0
1, 220729, Control_c, 0, 64, 127
1, 220740, Note_on_c, 0, 43, 0
1, 220797, Note_on_c, 0, 65, 0
1, 220865, Note_on_c, 0, 60, 67
1, 221297, Note_on_c, 0, 73, 45
1, 221300, Note_on_c, 0, 76, 51
1, 221310, Note_on_c, 0, 64, 41
1, 221313, Note_on_c, 0, 67, 39
1, 221388, Control_c, 0, 64, 104
1, 221408, Control_c, 0, 64, 72
1, 221426, Control_c, 0, 64, 50
1, 221445, Control_c, 0, 64, 54
1, 221461, Control_c, 0, 64, 63
1, 221480, Control_c, 0, 64, 74
1, 221499, Control_c, 0, 64, 89
1, 221517, Control_c, 0, 64, 112
1, 221536, Control_c, 0, 64, 127
1, 221626, Note_on_c, 0, 67, 0
1, 221666, Note_on_c, 0, 73, 0
1, 221693, Note_on_c, 0, 64, 0
1, 221702, Note_on_c, 0, 76, 0
1, 221943, Note_on_c, 0, 76, 43
1, 221947, Note_on_c, 0, 64, 40
1, 221960, Note_on_c, 0, 73, 45
1, 221967, Note_on_c, 0, 67, 29
1, 222182, Note_on_c, 0, 67, 0
1, 222253, Note_on_c, 0, 73, 0
1, 222267, Note_on_c, 0, 64, 0
1, 222274, Note_on_c, 0, 58, 48
1, 222281, Note_on_c, 0, 76, 0
1, 222391, Note_on_c, 0, 60, 0
1, 222508, Note_on_c, 0, 58, 0
1, 222623, Note_on_c, 0, 67, 33
1, 222624, Note_on_c, 0, 76, 45
1, 222625, Note_on_c, 0, 73, 40
1, 222632, Note_on_c, 0, 64, 38
1, 222812, Note_on_c, 0, 67, 0
1, 222900, Note_on_c, 0, 73, 0
1, 223009, Note_on_c, 0, 64, 0
1, 223109, Note_on_c, 0, 76, 0
1, 223130, Note_on_c, 0, 57, 48
1, 223152, Note_on_c, 0, 45, 36
1, 223222, Control_c, 0, 64, 119
1, 223240, Control_c, 0, 64, 87
1, 223259, Control_c, 0, 64, 51
1, 223279, Control_c, 0, 64, 21
1, 223316, Control_c, 0, 64, 16
1, 223370, Control_c, 0, 64, 35
1, 223388, Control_c, 0, 64, 51
1, 223407, Control_c, 0, 64, 69
1, 223426, Control_c, 0, 64, 83
1, 223445, Control_c, 0, 64, 100
1, 223464, Control_c, 0, 64, 119
1, 223482, Control_c, 0, 64, 127
1, 223553, Note_on_c, 0, 45, 0
1, 223573, Note_on_c, 0, 77, 43
1, 223585, Note_on_c, 0, 72, 34
1, 223591, Control_c, 0, 67, 121
1, 223593, Note_on_c, 0, 65, 27
1, 223630, Control_c, 0, 67, 114
1, 223649, Control_c, 0, 67, 110
1, 223667, Control_c, 0, 67, 104
1, 223686, Control_c, 0, 67, 97
1, 223703, Control_c, 0, 67, 87
1, 223722, Control_c, 0, 67, 75
1, 223741, Control_c, 0, 67, 63
1, 223759, Control_c, 0, 67, 50
1, 223779, Control_c, 0, 67, 39
1, 223796, Control_c, 0, 67, 30
1, 223816, Control_c, 0, 67, 23
1, 223834, Control_c, 0, 67, 19
1, 223871, Control_c, 0, 67, 12
1, 223898, Control_c, 0, 67, 8
1, 223925, Note_on_c, 0, 53, 40
1, 223935, Control_c, 0, 67, 0
1, 224000, Note_on_c, 0, 72, 0
1, 224009, Note_on_c, 0, 65, 0
1, 224057, Note_on_c, 0, 77, 0
1, 224259, Note_on_c, 0, 52, 66
1, 224325, Note_on_c, 0, 77, 55
1, 224333, Note_on_c, 0, 65, 49
1, 224346, Note_on_c, 0, 72, 48
1, 224353, Note_on_c, 0, 57, 0
1, 224395, Note_on_c, 0, 53, 0
1, 224498, Note_on_c, 0, 65, 0
1, 224544, Note_on_c, 0, 53, 70
1, 224606, Note_on_c, 0, 77, 0
1, 224614, Note_on_c, 0, 52, 0
1, 224639, Note_on_c, 0, 72, 0
1, 224639, Control_c, 0, 64, 120
1, 224658, Control_c, 0, 64, 83
1, 224676, Control_c, 0, 64, 38
1, 224695, Control_c, 0, 64, 0
1, 224770, Control_c, 0, 64, 11
1, 224776, Note_on_c, 0, 57, 75
1, 224789, Control_c, 0, 64, 43
1, 224807, Control_c, 0, 64, 70
1, 224833, Control_c, 0, 64, 97
1, 224853, Control_c, 0, 64, 127
1, 224877, Note_on_c, 0, 53, 0
1, 224955, Note_on_c, 0, 69, 57
1, 224955, Note_on_c, 0, 60, 78
1, 224956, Note_on_c, 0, 81, 67
1, 224960, Note_on_c, 0, 72, 59
1, 224966, Note_on_c, 0, 77, 57
1, 225019, Note_on_c, 0, 69, 0
1, 225034, Note_on_c, 0, 57, 0
1, 225061, Note_on_c, 0, 72, 0
1, 225085, Note_on_c, 0, 53, 60
1, 225142, Note_on_c, 0, 60, 0
1, 225183, Note_on_c, 0, 77, 0
1, 225208, Note_on_c, 0, 81, 0
1, 225418, Note_on_c, 0, 66, 71
1, 225611, Control_c, 0, 64, 102
1, 225630, Control_c, 0, 64, 66
1, 225649, Control_c, 0, 64, 32
1, 225667, Control_c, 0, 64, 19
1, 225724, Control_c, 0, 64, 25
1, 225742, Control_c, 0, 64, 42
1, 225769, Control_c, 0, 64, 60
1, 225787, Control_c, 0, 64, 79
1, 225807, Control_c, 0, 64, 96
1, 225825, Control_c, 0, 64, 113
1, 225844, Control_c, 0, 64, 127
1, 225857, Note_on_c, 0, 90, 67
1, 225863, Control_c, 0, 67, 8
1, 225879, Note_on_c, 0, 81, 33
1, 225880, Note_on_c, 0, 78, 50
1, 225881, Note_on_c, 0, 84, 50
1, 225918, Control_c, 0, 67, 12
1, 225955, Control_c, 0, 67, 16
1, 225973, Control_c, 0, 67, 21
1, 225992, Control_c, 0, 67, 26
1, 226010, Control_c, 0, 67, 31
1, 226029, Control_c, 0, 67, 35
1, 226035, Note_on_c, 0, 66, 0
1, 226096, Note_on_c, 0, 78, 0
1, 226170, Poly_aftertouch_c, 0, 81, 24
1, 226224, Note_on_c, 0, 81, 0
1, 226224, Poly_aftertouch_c, 0, 81, 0
1, 226243, Note_on_c, 0, 90, 0
1, 226271, Note_on_c, 0, 84, 0
1, 226515, Note_on_c, 0, 90, 71
1, 226533, Note_on_c, 0, 84, 52
1, 226566, Note_on_c, 0, 78, 31
1, 226711, Note_on_c, 0, 78, 0
1, 226753, Note_on_c, 0, 90, 0
1, 226825, Note_on_c, 0, 84, 0
1, 226829, Poly_aftertouch_c, 0, 81, 0
1, 226847, Note_on_c, 0, 41, 45
1, 227002, Note_on_c, 0, 53, 0
1, 227157, Note_on_c, 0, 90, 69
1, 227187, Note_on_c, 0, 84, 49
1, 227215, Note_on_c, 0, 78, 36
1, 227219, Note_on_c, 0, 81, 20
1, 227312, Note_on_c, 0, 78, 0
1, 227319, Note_on_c, 0, 90, 0
1, 227379, Note_on_c, 0, 81, 0
1, 227399, Note_on_c, 0, 41, 0
1, 227400, Note_on_c, 0, 84, 0
1, 227447, Note_on_c, 0, 53, 39
1, 227780, Note_on_c, 0, 90, 66
1, 227794, Note_on_c, 0, 84, 53
1, 227817, Note_on_c, 0, 78, 35
1, 227839, Note_on_c, 0, 81, 33
1, 227862, Control_c, 0, 67, 39
1, 227902, Note_on_c, 0, 78, 0
1, 227954, Note_on_c, 0, 90, 0
1, 228000, Note_on_c, 0, 81, 0
1, 228026, Note_on_c, 0, 84, 0
1, 228084, Control_c, 0, 67, 44
1, 228089, Note_on_c, 0, 65, 61
1, 228395, Note_on_c, 0, 90, 60
1, 228421, Note_on_c, 0, 84, 46
1, 228433, Note_on_c, 0, 78, 35
1, 228439, Note_on_c, 0, 81, 37
1, 228548, Control_c, 0, 67, 48
1, 228613, Control_c, 0, 67, 53
1, 228633, Control_c, 0, 67, 59
1, 228641, Note_on_c, 0, 78, 0
1, 228651, Control_c, 0, 67, 65
1, 228658, Note_on_c, 0, 84, 0
1, 228669, Control_c, 0, 67, 70
1, 228692, Note_on_c, 0, 81, 0
1, 228705, Note_on_c, 0, 90, 0
1, 228724, Control_c, 0, 67, 74
1, 228735, Note_on_c, 0, 53, 0
1, 228742, Note_on_c, 0, 63, 59
1, 228960, Note_on_c, 0, 65, 0
1, 229059, Note_on_c, 0, 90, 63
1, 229079, Note_on_c, 0, 84, 49
1, 229091, Note_on_c, 0, 78, 22
1, 229105, Note_on_c, 0, 81, 29
1, 229466, Note_on_c, 0, 61, 54
1, 229479, Note_on_c, 0, 54, 35
1, 229533, Note_on_c, 0, 84, 0
1, 229568, Control_c, 0, 64, 117
1, 229587, Control_c, 0, 64, 82
1, 229600, Note_on_c, 0, 81, 0
1, 229604, Control_c, 0, 64, 47
1, 229624, Control_c, 0, 64, 39
1, 229640, Note_on_c, 0, 63, 0
1, 229641, Control_c, 0, 64, 48
1, 229660, Control_c, 0, 64, 64
1, 229680, Control_c, 0, 64, 84
1, 229696, Control_c, 0, 64, 110
1, 229716, Control_c, 0, 64, 127
1, 229726, Note_on_c, 0, 90, 0
1, 229762, Note_on_c, 0, 78, 0
1, 229924, Note_on_c, 0, 90, 63
1, 229937, Control_c, 0, 67, 78
1, 229945, Note_on_c, 0, 85, 49
1, 229962, Note_on_c, 0, 78, 35
1, 229974, Control_c, 0, 67, 83
1, 229981, Note_on_c, 0, 82, 28
1, 230012, Control_c, 0, 64, 99
1, 230015, Control_c, 0, 67, 87
1, 230032, Control_c, 0, 64, 61
1, 230051, Control_c, 0, 64, 22
1, 230052, Control_c, 0, 67, 93
1, 230057, Note_on_c, 0, 82, 0
1, 230086, Control_c, 0, 64, 33
1, 230087, Control_c, 0, 67, 99
1, 230104, Control_c, 0, 64, 54
1, 230124, Control_c, 0, 64, 79
1, 230125, Control_c, 0, 67, 104
1, 230142, Control_c, 0, 64, 102
1, 230160, Control_c, 0, 64, 127
1, 230275, Poly_aftertouch_c, 0, 82, 0
1, 230281, Note_on_c, 0, 85, 0
1, 230294, Note_on_c, 0, 61, 0
1, 230349, Note_on_c, 0, 78, 0
1, 230356, Note_on_c, 0, 90, 0
1, 230580, Note_on_c, 0, 90, 71
1, 230591, Note_on_c, 0, 78, 56
1, 230602, Note_on_c, 0, 85, 54
1, 230619, Note_on_c, 0, 82, 36
1, 230693, Note_on_c, 0, 85, 0
1, 230722, Note_on_c, 0, 82, 0
1, 230815, Note_on_c, 0, 90, 0
1, 230859, Note_on_c, 0, 42, 51
1, 230861, Note_on_c, 0, 78, 0
1, 231093, Note_on_c, 0, 42, 0
1, 231129, Note_on_c, 0, 89, 73
1, 231134, Note_on_c, 0, 77, 60
1, 231142, Note_on_c, 0, 85, 58
1, 231161, Note_on_c, 0, 82, 49
1, 231171, Control_c, 0, 64, 119
1, 231190, Control_c, 0, 64, 72
1, 231198, Note_on_c, 0, 43, 59
1, 231207, Control_c, 0, 64, 22
1, 231222, Note_on_c, 0, 54, 0
1, 231244, Control_c, 0, 64, 34
1, 231262, Control_c, 0, 64, 52
1, 231282, Control_c, 0, 64, 79
1, 231300, Control_c, 0, 64, 107
1, 231318, Control_c, 0, 64, 127
1, 231328, Note_on_c, 0, 43, 0
1, 231354, Note_on_c, 0, 82, 0
1, 231374, Note_on_c, 0, 85, 0
1, 231433, Note_on_c, 0, 89, 0
1, 231481, Note_on_c, 0, 77, 0
1, 231483, Note_on_c, 0, 60, 69
1, 231876, Note_on_c, 0, 88, 70
1, 231891, Note_on_c, 0, 76, 48
1, 231893, Note_on_c, 0, 85, 58
1, 231894, Note_on_c, 0, 79, 39
1, 231975, Control_c, 0, 64, 106
1, 231995, Control_c, 0, 64, 93
1, 232013, Control_c, 0, 64, 98
1, 232032, Control_c, 0, 64, 112
1, 232050, Control_c, 0, 64, 127
1, 232069, Control_c, 0, 67, 108
1, 232200, Control_c, 0, 67, 112
1, 232229, Note_on_c, 0, 85, 0
1, 232232, Note_on_c, 0, 88, 0
1, 232237, Note_on_c, 0, 79, 0
1, 232264, Note_on_c, 0, 76, 0
1, 232337, Control_c, 0, 67, 116
1, 232503, Control_c, 0, 67, 120
1, 232537, Note_on_c, 0, 88, 54
1, 232553, Note_on_c, 0, 76, 40
1, 232556, Note_on_c, 0, 85, 51
1, 232559, Control_c, 0, 67, 125
1, 232560, Note_on_c, 0, 79, 26
1, 232800, Note_on_c, 0, 85, 0
1, 232800, Note_on_c, 0, 79, 0
1, 232859, Note_on_c, 0, 76, 0
1, 232863, Note_on_c, 0, 58, 53
1, 232868, Note_on_c, 0, 88, 0
1, 233024, Note_on_c, 0, 60, 0
1, 233182, Note_on_c, 0, 58, 0
1, 233222, Note_on_c, 0, 88, 47
1, 233247, Note_on_c, 0, 76, 33
1, 233248, Note_on_c, 0, 85, 48
1, 233254, Note_on_c, 0, 79, 26
1, 233537, Note_on_c, 0, 79, 0
1, 233685, Note_on_c, 0, 85, 0
1, 233721, Note_on_c, 0, 56, 48
1, 233740, Note_on_c, 0, 44, 42
1, 233751, Note_on_c, 0, 76, 0
1, 233790, Note_on_c, 0, 88, 0
1, 233885, Control_c, 0, 64, 99
1, 233903, Control_c, 0, 64, 68
1, 233922, Control_c, 0, 64, 39
1, 233940, Control_c, 0, 64, 27
1, 234032, Control_c, 0, 64, 34
1, 234050, Control_c, 0, 64, 43
1, 234069, Control_c, 0, 64, 53
1, 234089, Control_c, 0, 64, 63
1, 234106, Control_c, 0, 64, 76
1, 234126, Control_c, 0, 64, 91
1, 234145, Control_c, 0, 64, 108
1, 234157, Note_on_c, 0, 89, 61
1, 234163, Control_c, 0, 64, 121
1, 234189, Control_c, 0, 64, 127
1, 234190, Note_on_c, 0, 80, 35
1, 234193, Note_on_c, 0, 85, 48
1, 234194, Note_on_c, 0, 77, 37
1, 234415, Note_on_c, 0, 85, 0
1, 234475, Poly_aftertouch_c, 0, 80, 24
1, 234513, Note_on_c, 0, 80, 0
1, 234513, Poly_aftertouch_c, 0, 80, 0
1, 234533, Note_on_c, 0, 89, 0
1, 234544, Note_on_c, 0, 77, 0
1, 234799, Note_on_c, 0, 89, 46
1, 234819, Note_on_c, 0, 77, 36
1, 234829, Note_on_c, 0, 80, 27
1, 234832, Note_on_c, 0, 85, 39
1, 235093, Note_on_c, 0, 49, 54
1, 235104, Note_on_c, 0, 85, 0
1, 235114, Note_on_c, 0, 80, 0
1, 235145, Note_on_c, 0, 89, 0
1, 235200, Note_on_c, 0, 77, 0
1, 235317, Note_on_c, 0, 56, 0
1, 235372, Note_on_c, 0, 44, 0
1, 235446, Note_on_c, 0, 77, 43
1, 235449, Note_on_c, 0, 89, 42
1, 235449, Note_on_c, 0, 85, 47
1, 235451, Note_on_c, 0, 80, 38
1, 235703, Note_on_c, 0, 85, 0
1, 235809, Note_on_c, 0, 89, 0
1, 235822, Note_on_c, 0, 80, 0
1, 235831, Note_on_c, 0, 77, 0
1, 235890, Note_on_c, 0, 44, 32
1, 235895, Note_on_c, 0, 51, 48
1, 236112, Note_on_c, 0, 49, 0
1, 236116, Control_c, 0, 64, 116
1, 236135, Control_c, 0, 64, 98
1, 236154, Control_c, 0, 64, 78
1, 236172, Control_c, 0, 64, 59
1, 236190, Control_c, 0, 64, 47
1, 236209, Control_c, 0, 64, 41
1, 236226, Control_c, 0, 64, 36
1, 236263, Control_c, 0, 64, 32
1, 236266, Note_on_c, 0, 78, 37
1, 236270, Note_on_c, 0, 80, 40
1, 236271, Note_on_c, 0, 90, 45
1, 236281, Note_on_c, 0, 84, 37
1, 236320, Control_c, 0, 64, 37
1, 236340, Control_c, 0, 64, 46
1, 236358, Control_c, 0, 64, 54
1, 236378, Control_c, 0, 64, 69
1, 236395, Control_c, 0, 64, 83
1, 236415, Control_c, 0, 64, 99
1, 236431, Control_c, 0, 64, 113
1, 236449, Control_c, 0, 64, 124
1, 236578, Note_on_c, 0, 90, 0
1, 236578, Note_on_c, 0, 84, 0
1, 236595, Note_on_c, 0, 80, 0
1, 236608, Note_on_c, 0, 78, 0
1, 236901, Note_on_c, 0, 90, 33
1, 236902, Note_on_c, 0, 78, 30
1, 236906, Note_on_c, 0, 80, 29
1, 236927, Note_on_c, 0, 84, 32
1, 237158, Note_on_c, 0, 84, 0
1, 237160, Note_on_c, 0, 80, 0
1, 237195, Note_on_c, 0, 78, 0
1, 237208, Note_on_c, 0, 90, 0
1, 237219, Note_on_c, 0, 53, 48
1, 237283, Note_on_c, 0, 51, 0
1, 237537, Note_on_c, 0, 90, 34
1, 237540, Note_on_c, 0, 78, 44
1, 237545, Note_on_c, 0, 84, 32
1, 237561, Note_on_c, 0, 53, 0
1, 237577, Note_on_c, 0, 80, 28
1, 237659, Note_on_c, 0, 80, 0
1, 237705, Note_on_c, 0, 84, 0
1, 237717, Note_on_c, 0, 90, 0
1, 237752, Note_on_c, 0, 78, 0
1, 237899, Note_on_c, 0, 49, 44
1, 237928, Note_on_c, 0, 37, 42
1, 238091, Note_on_c, 0, 44, 0
1, 238239, Note_on_c, 0, 89, 54
1, 238261, Note_on_c, 0, 80, 38
1, 238267, Note_on_c, 0, 77, 34
1, 238278, Note_on_c, 0, 85, 45
1, 238320, Control_c, 0, 64, 100
1, 238340, Control_c, 0, 64, 75
1, 238358, Control_c, 0, 64, 50
1, 238377, Control_c, 0, 64, 40
1, 238433, Control_c, 0, 64, 47
1, 238449, Note_on_c, 0, 85, 0
1, 238451, Control_c, 0, 64, 57
1, 238470, Control_c, 0, 64, 72
1, 238488, Control_c, 0, 64, 88
1, 238508, Control_c, 0, 64, 106
1, 238524, Control_c, 0, 64, 120
1, 238526, Note_on_c, 0, 80, 0
1, 238544, Control_c, 0, 64, 127
1, 238582, Note_on_c, 0, 89, 0
1, 238590, Note_on_c, 0, 77, 0
1, 238868, Note_on_c, 0, 89, 39
1, 238900, Note_on_c, 0, 77, 35
1, 238904, Note_on_c, 0, 85, 40
1, 238912, Note_on_c, 0, 80, 23
1, 239078, Note_on_c, 0, 85, 0
1, 239088, Note_on_c, 0, 80, 0
1, 239137, Note_on_c, 0, 77, 0
1, 239196, Note_on_c, 0, 89, 0
1, 239255, Note_on_c, 0, 49, 0
1, 239272, Note_on_c, 0, 37, 0
1, 239481, Note_on_c, 0, 89, 51
1, 239517, Note_on_c, 0, 77, 28
1, 239527, Note_on_c, 0, 85, 33
1, 239538, Note_on_c, 0, 80, 14
1, 239613, Note_on_c, 0, 80, 0
1, 239711, Note_on_c, 0, 85, 0
1, 239724, Note_on_c, 0, 89, 0
1, 239778, Poly_aftertouch_c, 0, 77, 24
1, 239816, Note_on_c, 0, 51, 42
1, 239825, Note_on_c, 0, 37, 39
1, 239860, Note_on_c, 0, 77, 0
1, 239860, Poly_aftertouch_c, 0, 77, 0
1, 240209, Note_on_c, 0, 88, 63
1, 240221, Note_on_c, 0, 82, 38
1, 240242, Note_on_c, 0, 76, 33
1, 240260, Note_on_c, 0, 79, 30
1, 240527, Note_on_c, 0, 79, 0
1, 240550, Note_on_c, 0, 82, 0
1, 240563, Note_on_c, 0, 76, 0
1, 240596, Note_on_c, 0, 88, 0
1, 240844, Note_on_c, 0, 88, 55
1, 240857, Note_on_c, 0, 82, 40
1, 240865, Note_on_c, 0, 76, 42
1, 240889, Note_on_c, 0, 79, 30
1, 240898, Note_on_c, 0, 37, 0
1, 241036, Note_on_c, 0, 51, 0
1, 241096, Note_on_c, 0, 79, 0
1, 241102, Note_on_c, 0, 82, 0
1, 241158, Note_on_c, 0, 52, 41
1, 241170, Note_on_c, 0, 76, 0
1, 241214, Note_on_c, 0, 88, 0
1, 241418, Note_on_c, 0, 52, 0
1, 241462, Note_on_c, 0, 88, 56
1, 241471, Note_on_c, 0, 82, 41
1, 241481, Note_on_c, 0, 76, 43
1, 241505, Note_on_c, 0, 79, 37
1, 241639, Note_on_c, 0, 82, 0
1, 241678, Note_on_c, 0, 79, 0
1, 241784, Note_on_c, 0, 49, 54
1, 241788, Note_on_c, 0, 37, 42
1, 241847, Note_on_c, 0, 88, 0
1, 241853, Note_on_c, 0, 76, 0
1, 242176, Note_on_c, 0, 89, 59
1, 242194, Note_on_c, 0, 77, 42
1, 242200, Note_on_c, 0, 80, 36
1, 242200, Note_on_c, 0, 85, 46
1, 242267, Control_c, 0, 64, 110
1, 242286, Control_c, 0, 64, 81
1, 242305, Control_c, 0, 64, 53
1, 242324, Control_c, 0, 64, 43
1, 242359, Control_c, 0, 64, 47
1, 242378, Control_c, 0, 64, 56
1, 242397, Control_c, 0, 64, 67
1, 242415, Control_c, 0, 64, 82
1, 242434, Control_c, 0, 64, 102
1, 242453, Control_c, 0, 64, 123
1, 242471, Control_c, 0, 64, 127
1, 242476, Note_on_c, 0, 85, 0
1, 242531, Note_on_c, 0, 89, 0
1, 242536, Note_on_c, 0, 80, 0
1, 242557, Note_on_c, 0, 77, 0
1, 242811, Note_on_c, 0, 89, 43
1, 242825, Note_on_c, 0, 85, 41
1, 242829, Note_on_c, 0, 77, 33
1, 242836, Note_on_c, 0, 80, 29
1, 242961, Control_c, 0, 67, 120
1, 243038, Poly_aftertouch_c, 0, 49, 20
1, 243039, Note_on_c, 0, 85, 0
1, 243040, Note_on_c, 0, 49, 0
1, 243040, Poly_aftertouch_c, 0, 49, 0
1, 243055, Control_c, 0, 67, 114
1, 243074, Control_c, 0, 67, 109
1, 243083, Note_on_c, 0, 80, 0
1, 243092, Control_c, 0, 67, 101
1, 243107, Note_on_c, 0, 89, 0
1, 243110, Control_c, 0, 67, 92
1, 243117, Note_on_c, 0, 77, 0
1, 243129, Control_c, 0, 67, 82
1, 243146, Control_c, 0, 67, 74
1, 243149, Poly_aftertouch_c, 0, 37, 20
1, 243153, Note_on_c, 0, 37, 0
1, 243153, Poly_aftertouch_c, 0, 37, 0
1, 243165, Control_c, 0, 67, 68
1, 243184, Control_c, 0, 67, 62
1, 243203, Control_c, 0, 67, 54
1, 243223, Control_c, 0, 67, 45
1, 243240, Control_c, 0, 67, 34
1, 243260, Control_c, 0, 67, 23
1, 243277, Control_c, 0, 67, 13
1, 243350, Control_c, 0, 67, 0
1, 243392, Note_on_c, 0, 89, 49
1, 243419, Note_on_c, 0, 77, 35
1, 243429, Note_on_c, 0, 80, 23
1, 243458, Note_on_c, 0, 85, 25
1, 243575, Note_on_c, 0, 85, 0
1, 243604, Note_on_c, 0, 80, 0
1, 243735, Note_on_c, 0, 77, 0
1, 243742, Note_on_c, 0, 51, 62
1, 243773, Note_on_c, 0, 37, 50
1, 243814, Note_on_c, 0, 89, 0
1, 244114, Note_on_c, 0, 91, 68
1, 244133, Note_on_c, 0, 85, 59
1, 244144, Note_on_c, 0, 82, 34
1, 244146, Note_on_c, 0, 79, 38
1, 244485, Note_on_c, 0, 85, 0
1, 244490, Note_on_c, 0, 82, 0
1, 244562, Note_on_c, 0, 79, 0
1, 244570, Note_on_c, 0, 91, 0
1, 244599, Note_on_c, 0, 37, 0
1, 244739, Note_on_c, 0, 91, 68
1, 244758, Note_on_c, 0, 82, 48
1, 244762, Note_on_c, 0, 85, 59
1, 244764, Note_on_c, 0, 79, 44
1, 244800, Note_on_c, 0, 51, 0
1, 245023, Note_on_c, 0, 52, 66
1, 245108, Note_on_c, 0, 85, 0
1, 245140, Note_on_c, 0, 82, 0
1, 245153, Note_on_c, 0, 79, 0
1, 245191, Note_on_c, 0, 91, 0
1, 245313, Note_on_c, 0, 91, 76
1, 245323, Note_on_c, 0, 82, 49
1, 245332, Note_on_c, 0, 79, 45
1, 245335, Note_on_c, 0, 85, 66
1, 245354, Note_on_c, 0, 52, 0
1, 245620, Note_on_c, 0, 49, 63
1, 245630, Note_on_c, 0, 37, 62
1, 245650, Note_on_c, 0, 79, 0
1, 245651, Note_on_c, 0, 91, 0
1, 245721, Note_on_c, 0, 85, 0
1, 245737, Note_on_c, 0, 82, 0
1, 246025, Note_on_c, 0, 92, 75
1, 246030, Note_on_c, 0, 83, 49
1, 246035, Note_on_c, 0, 85, 57
1, 246037, Note_on_c, 0, 80, 53
1, 246157, Control_c, 0, 64, 98
1, 246176, Control_c, 0, 64, 65
1, 246195, Control_c, 0, 64, 39
1, 246232, Control_c, 0, 64, 41
1, 246251, Control_c, 0, 64, 56
1, 246270, Control_c, 0, 64, 73
1, 246287, Control_c, 0, 64, 92
1, 246305, Control_c, 0, 64, 121
1, 246324, Control_c, 0, 64, 127
1, 246394, Note_on_c, 0, 85, 0
1, 246401, Note_on_c, 0, 83, 0
1, 246420, Note_on_c, 0, 80, 0
1, 246435, Note_on_c, 0, 92, 0
1, 246658, Note_on_c, 0, 92, 75
1, 246669, Note_on_c, 0, 85, 62
1, 246683, Note_on_c, 0, 80, 57
1, 246684, Note_on_c, 0, 83, 56
1, 246844, Note_on_c, 0, 37, 0
1, 246955, Note_on_c, 0, 85, 0
1, 247032, Note_on_c, 0, 83, 0
1, 247051, Note_on_c, 0, 92, 0
1, 247076, Note_on_c, 0, 80, 0
1, 247286, Note_on_c, 0, 92, 80
1, 247297, Note_on_c, 0, 85, 69
1, 247298, Note_on_c, 0, 49, 0
1, 247299, Note_on_c, 0, 80, 63
1, 247304, Note_on_c, 0, 83, 64
1, 247369, Note_on_c, 0, 37, 61
1, 247420, Note_on_c, 0, 43, 69
1, 247480, Note_on_c, 0, 83, 0
1, 247487, Note_on_c, 0, 85, 0
1, 247632, Note_on_c, 0, 80, 0
1, 247649, Note_on_c, 0, 51, 83
1, 247678, Note_on_c, 0, 92, 0
1, 248039, Note_on_c, 0, 94, 82
1, 248042, Note_on_c, 0, 82, 64
1, 248050, Note_on_c, 0, 85, 66
1, 248054, Note_on_c, 0, 91, 72
1, 248372, Note_on_c, 0, 37, 0
1, 248404, Note_on_c, 0, 94, 0
1, 248453, Note_on_c, 0, 82, 0
1, 248459, Note_on_c, 0, 85, 0
1, 248474, Note_on_c, 0, 91, 0
1, 248631, Note_on_c, 0, 94, 84
1, 248643, Note_on_c, 0, 91, 67
1, 248645, Note_on_c, 0, 85, 67
1, 248645, Note_on_c, 0, 82, 79
1, 248719, Note_on_c, 0, 51, 0
1, 248879, Note_on_c, 0, 52, 87
1, 248976, Note_on_c, 0, 82, 0
1, 248978, Note_on_c, 0, 85, 0
1, 248980, Note_on_c, 0, 94, 0
1, 248988, Note_on_c, 0, 43, 0
1, 249052, Note_on_c, 0, 91, 0
1, 249120, Note_on_c, 0, 52, 0
1, 249164, Note_on_c, 0, 94, 81
1, 249167, Note_on_c, 0, 82, 79
1, 249167, Note_on_c, 0, 91, 79
1, 249171, Note_on_c, 0, 85, 68
1, 249228, Note_on_c, 0, 37, 71
1, 249272, Note_on_c, 0, 44, 77
1, 249306, Note_on_c, 0, 37, 0
1, 249372, Note_on_c, 0, 85, 0
1, 249477, Note_on_c, 0, 94, 0
1, 249543, Note_on_c, 0, 91, 0
1, 249545, Note_on_c, 0, 82, 0
1, 249553, Note_on_c, 0, 53, 93
1, 249933, Note_on_c, 0, 95, 93
1, 249939, Note_on_c, 0, 85, 77
1, 249943, Note_on_c, 0, 83, 81
1, 249949, Note_on_c, 0, 89, 80
1, 249993, Control_c, 0, 64, 111
1, 250015, Control_c, 0, 64, 67
1, 250029, Control_c, 0, 64, 0
1, 250132, Control_c, 0, 64, 8
1, 250150, Control_c, 0, 64, 44
1, 250169, Control_c, 0, 64, 75
1, 250189, Control_c, 0, 64, 98
1, 250207, Control_c, 0, 64, 125
1, 250372, Note_on_c, 0, 53, 0
1, 250395, Note_on_c, 0, 44, 0
1, 250409, Note_on_c, 0, 95, 0
1, 250424, Note_on_c, 0, 85, 0
1, 250436, Note_on_c, 0, 89, 0
1, 250443, Note_on_c, 0, 83, 0
1, 250552, Note_on_c, 0, 95, 86
1, 250565, Note_on_c, 0, 85, 82
1, 250566, Note_on_c, 0, 89, 79
1, 250567, Note_on_c, 0, 83, 82
1, 250939, Note_on_c, 0, 89, 0
1, 250954, Note_on_c, 0, 85, 0
1, 250982, Note_on_c, 0, 83, 0
1, 251001, Note_on_c, 0, 95, 0
1, 251186, Note_on_c, 0, 95, 89
1, 251190, Note_on_c, 0, 85, 84
1, 251196, Note_on_c, 0, 83, 87
1, 251197, Note_on_c, 0, 89, 80
1, 251486, Note_on_c, 0, 51, 87
1, 251488, Note_on_c, 0, 42, 84
1, 251493, Note_on_c, 0, 37, 78
1, 251511, Note_on_c, 0, 89, 0
1, 251572, Note_on_c, 0, 85, 0
1, 251575, Note_on_c, 0, 83, 0
1, 251633, Note_on_c, 0, 95, 0
1, 251841, Note_on_c, 0, 96, 97
1, 251845, Note_on_c, 0, 84, 94
1, 251846, Note_on_c, 0, 87, 93
1, 251848, Note_on_c, 0, 93, 88
1, 251900, Control_c, 0, 64, 121
1, 251919, Control_c, 0, 64, 73
1, 251937, Control_c, 0, 64, 0
1, 252040, Control_c, 0, 64, 39
1, 252059, Control_c, 0, 64, 78
1, 252078, Control_c, 0, 64, 110
1, 252095, Control_c, 0, 64, 127
1, 252303, Note_on_c, 0, 84, 0
1, 252316, Note_on_c, 0, 96, 0
1, 252316, Note_on_c, 0, 93, 0
1, 252333, Note_on_c, 0, 87, 0
1, 252540, Note_on_c, 0, 96, 97
1, 252547, Note_on_c, 0, 84, 97
1, 252547, Note_on_c, 0, 93, 88
1, 252548, Note_on_c, 0, 87, 95
1, 252968, Note_on_c, 0, 96, 0
1, 253041, Note_on_c, 0, 42, 0
1, 253063, Note_on_c, 0, 84, 0
1, 253079, Note_on_c, 0, 37, 0
1, 253087, Note_on_c, 0, 93, 0
1, 253164, Note_on_c, 0, 87, 0
1, 253344, Note_on_c, 0, 51, 0
1, 253375, Note_on_c, 0, 93, 92
1, 253376, Note_on_c, 0, 84, 98
1, 253377, Note_on_c, 0, 96, 96
1, 253378, Note_on_c, 0, 87, 95
1, 253441, Note_on_c, 0, 84, 0
1, 253480, Note_on_c, 0, 96, 0
1, 253487, Note_on_c, 0, 87, 0
1, 253510, Note_on_c, 0, 93, 0
1, 253864, Note_on_c, 0, 49, 103
1, 253866, Note_on_c, 0, 99, 97
1, 253867, Note_on_c, 0, 87, 100
1, 253868, Note_on_c, 0, 37, 85
1, 253874, Control_c, 0, 64, 102
1, 253874, Note_on_c, 0, 41, 83
1, 253874, Note_on_c, 0, 95, 93
1, 253874, Note_on_c, 0, 92, 93
1, 253897, Control_c, 0, 64, 29
1, 253911, Control_c, 0, 64, 0
1, 253962, Note_on_c, 0, 37, 0
1, 253966, Control_c, 0, 64, 25
1, 253979, Note_on_c, 0, 99, 0
1, 253982, Control_c, 0, 64, 70
1, 253996, Poly_aftertouch_c, 0, 97, 0
1, 254000, Note_on_c, 0, 87, 0
1, 254001, Note_on_c, 0, 41, 0
1, 254003, Control_c, 0, 64, 111
1, 254021, Note_on_c, 0, 95, 0
1, 254021, Control_c, 0, 64, 127
1, 254029, Note_on_c, 0, 49, 0
1, 254050, Note_on_c, 0, 92, 0
1, 254555, Note_on_c, 0, 87, 93
1, 254564, Note_on_c, 0, 80, 93
1, 254564, Note_on_c, 0, 83, 91
1, 254567, Note_on_c, 0, 75, 86
1, 254575, Note_on_c, 0, 71, 72
1, 254591, Note_on_c, 0, 69, 70
1, 254596, Note_on_c, 0, 68, 64
1, 254597, Note_on_c, 0, 72, 52
1, 254634, Note_on_c, 0, 69, 0
1, 254643, Note_on_c, 0, 72, 0
1, 254681, Note_on_c, 0, 87, 0
1, 254688, Note_on_c, 0, 71, 0
1, 254710, Note_on_c, 0, 68, 0
1, 254718, Note_on_c, 0, 83, 0
1, 254743, Note_on_c, 0, 80, 0
1, 254925, Note_on_c, 0, 75, 0
1, 255053, Note_on_c, 0, 77, 82
1, 255079, Note_on_c, 0, 65, 73
1, 255117, Note_on_c, 0, 63, 78
1, 255119, Note_on_c, 0, 75, 84
1, 255218, Note_on_c, 0, 68, 87
1, 255220, Note_on_c, 0, 71, 97
1, 255222, Note_on_c, 0, 83, 89
1, 255228, Note_on_c, 0, 80, 83
1, 255300, Note_on_c, 0, 65, 0
1, 255303, Note_on_c, 0, 63, 0
1, 255306, Note_on_c, 0, 75, 0
1, 255319, Note_on_c, 0, 71, 0
1, 255329, Note_on_c, 0, 83, 0
1, 255342, Note_on_c, 0, 77, 0
1, 255375, Note_on_c, 0, 68, 0
1, 255389, Note_on_c, 0, 80, 0
1, 255735, Note_on_c, 0, 71, 77
1, 255751, Note_on_c, 0, 59, 72
1, 255790, Note_on_c, 0, 68, 81
1, 255793, Note_on_c, 0, 58, 25
1, 255804, Note_on_c, 0, 56, 70
1, 255877, Note_on_c, 0, 58, 0
1, 255889, Note_on_c, 0, 65, 96
1, 255893, Note_on_c, 0, 63, 88
1, 255899, Note_on_c, 0, 77, 87
1, 255908, Note_on_c, 0, 75, 83
1, 255988, Note_on_c, 0, 59, 0
1, 256002, Note_on_c, 0, 56, 0
1, 256007, Note_on_c, 0, 65, 0
1, 256012, Note_on_c, 0, 77, 0
1, 256027, Note_on_c, 0, 68, 0
1, 256042, Note_on_c, 0, 71, 0
1, 256067, Note_on_c, 0, 63, 0
1, 256077, Note_on_c, 0, 75, 0
1, 256427, Note_on_c, 0, 65, 85
1, 256447, Note_on_c, 0, 53, 66
1, 256465, Note_on_c, 0, 51, 78
1, 256510, Note_on_c, 0, 63, 92
1, 256659, Note_on_c, 0, 59, 102
1, 256663, Note_on_c, 0, 56, 84
1, 256675, Note_on_c, 0, 71, 90
1, 256677, Note_on_c, 0, 68, 80
1, 256717, Control_c, 0, 64, 83
1, 256737, Control_c, 0, 64, 10
1, 256749, Poly_aftertouch_c, 0, 55, 0
1, 256757, Control_c, 0, 64, 0
1, 256791, Control_c, 0, 64, 16
1, 256809, Control_c, 0, 64, 52
1, 256829, Control_c, 0, 64, 90
1, 256848, Control_c, 0, 64, 127
1, 256859, Note_on_c, 0, 59, 0
1, 256883, Note_on_c, 0, 53, 0
1, 256937, Note_on_c, 0, 71, 0
1, 256950, Note_on_c, 0, 51, 0
1, 256953, Note_on_c, 0, 63, 0
1, 256971, Note_on_c, 0, 56, 0
1, 257000, Note_on_c, 0, 65, 0
1, 257012, Note_on_c, 0, 68, 0
1, 257323, Note_on_c, 0, 61, 103
1, 257340, Note_on_c, 0, 49, 98
1, 257347, Note_on_c, 0, 37, 88
1, 257440, Control_c, 0, 67, 8
1, 257475, Note_on_c, 0, 61, 0
1, 257477, Control_c, 0, 67, 13
1, 257562, Note_on_c, 0, 49, 0
1, 257599, Control_c, 0, 67, 9
1, 257624, Note_on_c, 0, 37, 0
1, 257648, Note_on_c, 0, 59, 103
1, 257654, Note_on_c, 0, 47, 103
1, 257654, Control_c, 0, 67, 0
1, 257668, Note_on_c, 0, 35, 82
1, 257672, Control_c, 0, 64, 120
1, 257689, Note_on_c, 0, 36, 65
1, 257691, Control_c, 0, 64, 88
1, 257708, Note_on_c, 0, 35, 0
1, 257708, Control_c, 0, 64, 59
1, 257711, Note_on_c, 0, 59, 0
1, 257717, Note_on_c, 0, 47, 0
1, 257723, Note_on_c, 0, 36, 0
1, 257726, Control_c, 0, 64, 41
1, 257740, Poly_aftertouch_c, 0, 64, 0
1, 257902, Note_on_c, 0, 46, 99
1, 257906, Note_on_c, 0, 34, 93
1, 257908, Note_on_c, 0, 58, 101
1, 257952, Note_on_c, 0, 58, 0
1, 257954, Note_on_c, 0, 46, 0
1, 257963, Note_on_c, 0, 34, 0
1, 258129, Note_on_c, 0, 44, 98
1, 258133, Note_on_c, 0, 56, 103
1, 258135, Note_on_c, 0, 32, 93
1, 258186, Note_on_c, 0, 56, 0
1, 258193, Note_on_c, 0, 44, 0
1, 258200, Note_on_c, 0, 32, 0
1, 258413, Control_c, 0, 64, 37
1, 258430, Poly_aftertouch_c, 0, 58, 0
1, 258431, Control_c, 0, 64, 29
1, 258449, Control_c, 0, 64, 0
1, 258491, Note_on_c, 0, 54, 99
1, 258498, Note_on_c, 0, 42, 108
1, 258502, Note_on_c, 0, 30, 98
1, 258533, Control_c, 0, 64, 44
1, 258553, Control_c, 0, 64, 84
1, 258571, Control_c, 0, 64, 118
1, 258579, Note_on_c, 0, 30, 0
1, 258588, Note_on_c, 0, 42, 0
1, 258588, Control_c, 0, 64, 127
1, 258591, Note_on_c, 0, 54, 0
1, 258635, Note_on_c, 0, 32, 13
1, 258657, Note_on_c, 0, 32, 0
1, 259267, Note_on_c, 0, 82, 98
1, 259268, Note_on_c, 0, 61, 90
1, 259269, Note_on_c, 0, 66, 93
1, 259273, Note_on_c, 0, 54, 78
1, 259274, Note_on_c, 0, 70, 96
1, 259276, Note_on_c, 0, 73, 91
1, 259541, Note_on_c, 0, 54, 0
1, 259573, Note_on_c, 0, 73, 0
1, 259620, Note_on_c, 0, 82, 0
1, 259633, Note_on_c, 0, 70, 0
1, 259736, Note_on_c, 0, 61, 0
1, 259761, Note_on_c, 0, 66, 0
1, 259783, Note_on_c, 0, 56, 73
1, 259785, Note_on_c, 0, 80, 67
1, 259812, Note_on_c, 0, 56, 0
1, 259848, Note_on_c, 0, 78, 81
1, 259885, Note_on_c, 0, 80, 0
1, 259902, Note_on_c, 0, 78, 0
1, 259970, Note_on_c, 0, 80, 93
1, 259970, Note_on_c, 0, 87, 98
1, 259972, Note_on_c, 0, 68, 82
1, 259973, Note_on_c, 0, 78, 96
1, 259973, Note_on_c, 0, 75, 103
1, 259983, Note_on_c, 0, 59, 62
1, 259995, Note_on_c, 0, 66, 64
1, 260007, Control_c, 0, 64, 116
1, 260025, Control_c, 0, 64, 72
1, 260044, Control_c, 0, 64, 16
1, 260062, Control_c, 0, 64, 0
1, 260097, Control_c, 0, 64, 34
1, 260117, Control_c, 0, 64, 67
1, 260136, Control_c, 0, 64, 114
1, 260153, Control_c, 0, 64, 127
1, 260180, Note_on_c, 0, 68, 0
1, 260217, Note_on_c, 0, 87, 0
1, 260238, Note_on_c, 0, 66, 0
1, 260255, Note_on_c, 0, 59, 0
1, 260263, Note_on_c, 0, 75, 0
1, 260306, Note_on_c, 0, 78, 0
1, 260313, Note_on_c, 0, 80, 0
1, 260591, Control_c, 0, 64, 113
1, 260608, Control_c, 0, 64, 55
1, 260626, Control_c, 0, 64, 0
1, 260630, Note_on_c, 0, 35, 84
1, 260631, Note_on_c, 0, 47, 92
1, 260640, Note_on_c, 0, 59, 94
1, 260668, Note_on_c, 0, 35, 0
1, 260681, Control_c, 0, 64, 43
1, 260685, Note_on_c, 0, 59, 0
1, 260685, Note_on_c, 0, 47, 0
1, 260700, Control_c, 0, 64, 84
1, 260720, Control_c, 0, 64, 125
1, 261001, Note_on_c, 0, 66, 81
1, 261002, Note_on_c, 0, 68, 97
1, 261003, Note_on_c, 0, 75, 105
1, 261006, Note_on_c, 0, 87, 90
1, 261008, Note_on_c, 0, 59, 73
1, 261009, Note_on_c, 0, 78, 91
1, 261010, Note_on_c, 0, 80, 91
1, 261045, Note_on_c, 0, 68, 0
1, 261055, Note_on_c, 0, 66, 0
1, 261067, Note_on_c, 0, 87, 0
1, 261068, Note_on_c, 0, 59, 0
1, 261096, Note_on_c, 0, 75, 0
1, 261103, Note_on_c, 0, 78, 0
1, 261106, Note_on_c, 0, 80, 0
1, 261255, Control_c, 0, 64, 116
1, 261273, Note_on_c, 0, 44, 29
1, 261276, Control_c, 0, 64, 59
1, 261294, Control_c, 0, 64, 0
1, 261322, Note_on_c, 0, 49, 101
1, 261325, Note_on_c, 0, 37, 89
1, 261326, Note_on_c, 0, 44, 0
1, 261332, Note_on_c, 0, 61, 101
1, 261377, Control_c, 0, 64, 41
1, 261385, Note_on_c, 0, 61, 0
1, 261396, Note_on_c, 0, 37, 0
1, 261396, Control_c, 0, 64, 74
1, 261415, Control_c, 0, 64, 101
1, 261434, Control_c, 0, 64, 127
1, 261441, Note_on_c, 0, 49, 0
1, 261622, Note_on_c, 0, 75, 102
1, 261626, Note_on_c, 0, 71, 84
1, 261630, Note_on_c, 0, 87, 96
1, 261630, Note_on_c, 0, 80, 81
1, 261630, Note_on_c, 0, 77, 84
1, 261701, Poly_aftertouch_c, 0, 65, 0
1, 261747, Note_on_c, 0, 87, 0
1, 261760, Note_on_c, 0, 71, 0
1, 261777, Note_on_c, 0, 75, 0
1, 261796, Note_on_c, 0, 77, 0
1, 261841, Note_on_c, 0, 80, 0
1, 261873, Note_on_c, 0, 56, 69
1, 261888, Note_on_c, 0, 61, 61
1, 261938, Note_on_c, 0, 56, 0
1, 261947, Note_on_c, 0, 65, 62
1, 261996, Note_on_c, 0, 71, 102
1, 261999, Note_on_c, 0, 85, 93
1, 262004, Note_on_c, 0, 73, 105
1, 262007, Note_on_c, 0, 80, 86
1, 262011, Note_on_c, 0, 77, 90
1, 262032, Note_on_c, 0, 61, 0
1, 262085, Note_on_c, 0, 85, 0
1, 262094, Note_on_c, 0, 80, 0
1, 262098, Note_on_c, 0, 65, 0
1, 262106, Note_on_c, 0, 71, 0
1, 262113, Note_on_c, 0, 77, 0
1, 262142, Note_on_c, 0, 73, 0
1, 262232, Note_on_c, 0, 56, 77
1, 262273, Note_on_c, 0, 61, 58
1, 262332, Note_on_c, 0, 65, 81
1, 262340, Note_on_c, 0, 71, 98
1, 262343, Note_on_c, 0, 83, 90
1, 262343, Note_on_c, 0, 68, 97
1, 262349, Note_on_c, 0, 77, 79
1, 262349, Note_on_c, 0, 73, 89
1, 262377, Note_on_c, 0, 56, 0
1, 262380, Note_on_c, 0, 80, 55
1, 262389, Note_on_c, 0, 68, 0
1, 262396, Note_on_c, 0, 83, 0
1, 262408, Note_on_c, 0, 80, 0
1, 262413, Note_on_c, 0, 65, 0
1, 262415, Note_on_c, 0, 71, 0
1, 262435, Note_on_c, 0, 77, 0
1, 262437, Note_on_c, 0, 61, 0
1, 262452, Note_on_c, 0, 73, 0
1, 262465, Poly_aftertouch_c, 0, 66, 0
1, 262775, Control_c, 0, 64, 123
1, 262784, Note_on_c, 0, 54, 101
1, 262787, Note_on_c, 0, 30, 98
1, 262787, Note_on_c, 0, 42, 102
1, 262793, Control_c, 0, 64, 65
1, 262813, Control_c, 0, 64, 0
1, 262923, Control_c, 0, 64, 45
1, 262942, Control_c, 0, 64, 91
1, 262961, Control_c, 0, 64, 127
1, 262963, Note_on_c, 0, 30, 0
1, 262972, Note_on_c, 0, 54, 0
1, 262979, Note_on_c, 0, 42, 0
1, 263477, Note_on_c, 0, 61, 80
1, 263479, Note_on_c, 0, 82, 94
1, 263483, Note_on_c, 0, 66, 87
1, 263487, Note_on_c, 0, 70, 93
1, 263488, Note_on_c, 0, 54, 77
1, 263528, Note_on_c, 0, 74, 33
1, 263572, Note_on_c, 0, 74, 0
1, 263755, Note_on_c, 0, 54, 0
1, 263795, Note_on_c, 0, 82, 0
1, 263865, Note_on_c, 0, 70, 0
1, 263904, Note_on_c, 0, 56, 72
1, 263905, Note_on_c, 0, 66, 0
1, 263916, Note_on_c, 0, 61, 0
1, 263918, Note_on_c, 0, 80, 80
1, 263933, Note_on_c, 0, 56, 0
1, 263975, Note_on_c, 0, 78, 84
1, 263999, Note_on_c, 0, 80, 0
1, 264020, Note_on_c, 0, 78, 0
1, 264039, Poly_aftertouch_c, 0, 58, 0
1, 264183, Control_c, 0, 64, 119
1, 264189, Note_on_c, 0, 60, 86
1, 264189, Note_on_c, 0, 68, 98
1, 264191, Note_on_c, 0, 66, 89
1, 264197, Poly_aftertouch_c, 0, 61, 0
1, 264197, Note_on_c, 0, 90, 100
1, 264197, Note_on_c, 0, 78, 110
1, 264200, Control_c, 0, 64, 60
1, 264205, Note_on_c, 0, 87, 82
1, 264208, Note_on_c, 0, 80, 90
1, 264216, Note_on_c, 0, 85, 72
1, 264219, Control_c, 0, 64, 0
1, 264227, Note_on_c, 0, 88, 74
1, 264258, Note_on_c, 0, 85, 0
1, 264276, Control_c, 0, 64, 49
1, 264295, Control_c, 0, 64, 98
1, 264314, Poly_aftertouch_c, 0, 79, 0
1, 264314, Control_c, 0, 64, 127
1, 264366, Note_on_c, 0, 68, 0
1, 264416, Note_on_c, 0, 66, 0
1, 264437, Note_on_c, 0, 60, 0
1, 264442, Note_on_c, 0, 90, 0
1, 264458, Note_on_c, 0, 88, 0
1, 264475, Note_on_c, 0, 87, 0
1, 264480, Poly_aftertouch_c, 0, 85, 0
1, 264498, Note_on_c, 0, 78, 0
1, 264546, Note_on_c, 0, 80, 0
1, 264794, Control_c, 0, 64, 111
1, 264814, Control_c, 0, 64, 48
1, 264832, Control_c, 0, 64, 0
1, 264857, Note_on_c, 0, 32, 87
1, 264857, Note_on_c, 0, 44, 102
1, 264871, Note_on_c, 0, 56, 97
1, 264888, Control_c, 0, 64, 30
1, 264898, Note_on_c, 0, 32, 0
1, 264907, Control_c, 0, 64, 73
1, 264919, Note_on_c, 0, 56, 0
1, 264927, Note_on_c, 0, 44, 0
1, 264928, Control_c, 0, 64, 110
1, 264942, Control_c, 0, 64, 127
1, 265321, Note_on_c, 0, 78, 108
1, 265324, Note_on_c, 0, 60, 85
1, 265325, Note_on_c, 0, 80, 92
1, 265325, Note_on_c, 0, 68, 101
1, 265327, Note_on_c, 0, 90, 96
1, 265328, Note_on_c, 0, 66, 93
1, 265332, Note_on_c, 0, 87, 88
1, 265375, Note_on_c, 0, 68, 0
1, 265392, Note_on_c, 0, 66, 0
1, 265399, Note_on_c, 0, 60, 0
1, 265416, Note_on_c, 0, 90, 0
1, 265436, Note_on_c, 0, 78, 0
1, 265444, Note_on_c, 0, 87, 0
1, 265455, Poly_aftertouch_c, 0, 84, 0
1, 265459, Note_on_c, 0, 80, 0
1, 265638, Control_c, 0, 64, 121
1, 265657, Control_c, 0, 64, 62
1, 265675, Control_c, 0, 64, 0
1, 265677, Note_on_c, 0, 37, 83
1, 265680, Note_on_c, 0, 49, 98
1, 265688, Note_on_c, 0, 61, 94
1, 265730, Control_c, 0, 64, 38
1, 265739, Note_on_c, 0, 61, 0
1, 265749, Control_c, 0, 64, 76
1, 265752, Note_on_c, 0, 37, 0
1, 265768, Control_c, 0, 64, 103
1, 265785, Note_on_c, 0, 49, 0
1, 265785, Control_c, 0, 64, 127
1, 265982, Note_on_c, 0, 71, 83
1, 266001, Note_on_c, 0, 77, 104
1, 266003, Note_on_c, 0, 89, 94
1, 266012, Note_on_c, 0, 80, 82
1, 266018, Note_on_c, 0, 83, 74
1, 266067, Note_on_c, 0, 66, 16
1, 266068, Note_on_c, 0, 66, 0
1, 266117, Note_on_c, 0, 89, 0
1, 266120, Note_on_c, 0, 77, 0
1, 266141, Note_on_c, 0, 83, 0
1, 266151, Note_on_c, 0, 80, 0
1, 266164, Note_on_c, 0, 71, 0
1, 266249, Note_on_c, 0, 56, 70
1, 266288, Note_on_c, 0, 61, 78
1, 266349, Note_on_c, 0, 65, 68
1, 266352, Note_on_c, 0, 56, 0
1, 266394, Note_on_c, 0, 71, 102
1, 266401, Note_on_c, 0, 75, 105
1, 266405, Note_on_c, 0, 87, 93
1, 266410, Note_on_c, 0, 80, 92
1, 266411, Note_on_c, 0, 83, 80
1, 266431, Note_on_c, 0, 61, 0
1, 266525, Note_on_c, 0, 87, 0
1, 266531, Note_on_c, 0, 80, 0
1, 266540, Note_on_c, 0, 65, 0
1, 266546, Note_on_c, 0, 83, 0
1, 266620, Note_on_c, 0, 71, 0
1, 266669, Note_on_c, 0, 75, 0
1, 266709, Note_on_c, 0, 56, 70
1, 266768, Note_on_c, 0, 61, 62
1, 266794, Note_on_c, 0, 56, 0
1, 266800, Note_on_c, 0, 65, 72
1, 266822, Note_on_c, 0, 71, 85
1, 266844, Note_on_c, 0, 73, 93
1, 266845, Note_on_c, 0, 85, 88
1, 266853, Note_on_c, 0, 80, 79
1, 266854, Note_on_c, 0, 77, 80
1, 266868, Note_on_c, 0, 61, 0
1, 266898, Note_on_c, 0, 71, 0
1, 266910, Note_on_c, 0, 65, 0
1, 267027, Control_c, 0, 67, 9
1, 267044, Control_c, 0, 67, 14
1, 267064, Control_c, 0, 67, 19
1, 267068, Note_on_c, 0, 85, 0
1, 267074, Note_on_c, 0, 77, 0
1, 267083, Control_c, 0, 67, 23
1, 267086, Note_on_c, 0, 73, 0
1, 267091, Note_on_c, 0, 80, 0
1, 267101, Control_c, 0, 67, 28
1, 267120, Control_c, 0, 67, 35
1, 267139, Control_c, 0, 67, 44
1, 267158, Control_c, 0, 67, 55
1, 267177, Control_c, 0, 67, 67
1, 267193, Control_c, 0, 67, 80
1, 267212, Control_c, 0, 64, 119
1, 267213, Control_c, 0, 67, 93
1, 267232, Control_c, 0, 64, 92
1, 267232, Control_c, 0, 67, 104
1, 267250, Control_c, 0, 64, 62
1, 267252, Control_c, 0, 67, 112
1, 267268, Control_c, 0, 64, 26
1, 267269, Control_c, 0, 67, 117
1, 267278, Note_on_c, 0, 30, 52
1, 267287, Control_c, 0, 64, 0
1, 267288, Control_c, 0, 67, 121
1, 267305, Control_c, 0, 67, 127
1, 267547, Control_c, 0, 64, 17
1, 267564, Control_c, 0, 64, 40
1, 267583, Control_c, 0, 64, 66
1, 267601, Control_c, 0, 64, 83
1, 267621, Control_c, 0, 64, 99
1, 267639, Control_c, 0, 64, 113
1, 267657, Control_c, 0, 64, 125
1, 267733, Note_on_c, 0, 82, 65
1, 267747, Note_on_c, 0, 30, 0
1, 267758, Note_on_c, 0, 78, 46
1, 267764, Note_on_c, 0, 70, 45
1, 267772, Note_on_c, 0, 73, 39
1, 268041, Note_on_c, 0, 82, 0
1, 268077, Note_on_c, 0, 78, 0
1, 268090, Note_on_c, 0, 58, 55
1, 268091, Note_on_c, 0, 70, 0
1, 268095, Note_on_c, 0, 73, 0
1, 268459, Note_on_c, 0, 82, 41
1, 268462, Note_on_c, 0, 70, 32
1, 268482, Note_on_c, 0, 78, 43
1, 268497, Note_on_c, 0, 73, 9
1, 268505, Note_on_c, 0, 58, 0
1, 268519, Note_on_c, 0, 56, 44
1, 268577, Note_on_c, 0, 56, 0
1, 268602, Note_on_c, 0, 73, 0
1, 268621, Note_on_c, 0, 54, 37
1, 268627, Note_on_c, 0, 70, 0
1, 268636, Note_on_c, 0, 82, 0
1, 268671, Note_on_c, 0, 78, 0
1, 268684, Note_on_c, 0, 54, 0
1, 269122, Note_on_c, 0, 82, 40
1, 269137, Note_on_c, 0, 78, 42
1, 269153, Note_on_c, 0, 70, 27
1, 269161, Note_on_c, 0, 73, 23
1, 269317, Note_on_c, 0, 73, 0
1, 269385, Note_on_c, 0, 70, 0
1, 269405, Note_on_c, 0, 78, 0
1, 269423, Note_on_c, 0, 37, 65
1, 269447, Note_on_c, 0, 82, 0
1, 269490, Control_c, 0, 64, 114
1, 269512, Control_c, 0, 64, 77
1, 269528, Control_c, 0, 64, 36
1, 269547, Control_c, 0, 64, 0
1, 269619, Control_c, 0, 64, 26
1, 269639, Control_c, 0, 64, 47
1, 269658, Control_c, 0, 64, 74
1, 269677, Control_c, 0, 64, 94
1, 269695, Control_c, 0, 64, 116
1, 269714, Control_c, 0, 64, 126
1, 269793, Note_on_c, 0, 85, 81
1, 269808, Note_on_c, 0, 80, 63
1, 269809, Note_on_c, 0, 73, 54
1, 269826, Note_on_c, 0, 77, 49
1, 269838, Note_on_c, 0, 37, 0
1, 270051, Note_on_c, 0, 73, 0
1, 270116, Note_on_c, 0, 56, 63
1, 270122, Poly_aftertouch_c, 0, 77, 24
1, 270179, Note_on_c, 0, 77, 0
1, 270179, Poly_aftertouch_c, 0, 77, 0
1, 270180, Poly_aftertouch_c, 0, 77, 0
1, 270181, Note_on_c, 0, 80, 0
1, 270222, Note_on_c, 0, 85, 0
1, 270493, Note_on_c, 0, 85, 55
1, 270502, Note_on_c, 0, 80, 45
1, 270510, Note_on_c, 0, 77, 40
1, 270549, Note_on_c, 0, 54, 43
1, 270570, Note_on_c, 0, 56, 0
1, 270617, Poly_aftertouch_c, 0, 73, 0
1, 270628, Note_on_c, 0, 54, 0
1, 270654, Note_on_c, 0, 53, 46
1, 270699, Note_on_c, 0, 80, 0
1, 270714, Note_on_c, 0, 77, 0
1, 270730, Note_on_c, 0, 85, 0
1, 270752, Note_on_c, 0, 53, 0
1, 271076, Note_on_c, 0, 85, 51
1, 271078, Note_on_c, 0, 73, 38
1, 271087, Note_on_c, 0, 80, 42
1, 271122, Note_on_c, 0, 77, 27
1, 271300, Note_on_c, 0, 77, 0
1, 271354, Note_on_c, 0, 80, 0
1, 271366, Note_on_c, 0, 73, 0
1, 271379, Note_on_c, 0, 34, 70
1, 271399, Control_c, 0, 64, 108
1, 271418, Control_c, 0, 64, 69
1, 271423, Note_on_c, 0, 85, 0
1, 271437, Control_c, 0, 64, 22
1, 271457, Control_c, 0, 64, 0
1, 271510, Control_c, 0, 64, 19
1, 271530, Control_c, 0, 64, 42
1, 271547, Control_c, 0, 64, 70
1, 271566, Control_c, 0, 64, 96
1, 271585, Control_c, 0, 64, 124
1, 271733, Note_on_c, 0, 34, 0
1, 271735, Note_on_c, 0, 90, 80
1, 271751, Note_on_c, 0, 78, 49
1, 271760, Note_on_c, 0, 85, 58
1, 271780, Note_on_c, 0, 82, 40
1, 272035, Note_on_c, 0, 78, 0
1, 272062, Note_on_c, 0, 61, 71
1, 272125, Note_on_c, 0, 82, 0
1, 272139, Note_on_c, 0, 85, 0
1, 272153, Note_on_c, 0, 90, 0
1, 272395, Note_on_c, 0, 90, 58
1, 272405, Note_on_c, 0, 78, 41
1, 272405, Note_on_c, 0, 85, 52
1, 272417, Note_on_c, 0, 82, 37
1, 272450, Note_on_c, 0, 61, 0
1, 272470, Note_on_c, 0, 59, 50
1, 272491, Note_on_c, 0, 82, 0
1, 272509, Note_on_c, 0, 78, 0
1, 272531, Note_on_c, 0, 59, 0
1, 272545, Note_on_c, 0, 58, 57
1, 272585, Note_on_c, 0, 90, 0
1, 272589, Note_on_c, 0, 85, 0
1, 272611, Note_on_c, 0, 58, 0
1, 273024, Note_on_c, 0, 90, 51
1, 273034, Note_on_c, 0, 85, 45
1, 273040, Note_on_c, 0, 78, 40
1, 273051, Note_on_c, 0, 82, 36
1, 273265, Note_on_c, 0, 90, 0
1, 273289, Note_on_c, 0, 85, 0
1, 273301, Note_on_c, 0, 82, 0
1, 273380, Note_on_c, 0, 36, 66
1, 273418, Control_c, 0, 64, 115
1, 273423, Note_on_c, 0, 78, 0
1, 273437, Control_c, 0, 64, 81
1, 273456, Control_c, 0, 64, 39
1, 273477, Control_c, 0, 64, 0
1, 273613, Control_c, 0, 64, 22
1, 273633, Control_c, 0, 64, 46
1, 273651, Control_c, 0, 64, 71
1, 273670, Control_c, 0, 64, 90
1, 273688, Control_c, 0, 64, 113
1, 273707, Control_c, 0, 64, 127
1, 273728, Note_on_c, 0, 88, 66
1, 273740, Note_on_c, 0, 84, 53
1, 273745, Note_on_c, 0, 76, 45
1, 273752, Note_on_c, 0, 82, 47
1, 273786, Note_on_c, 0, 36, 0
1, 274050, Note_on_c, 0, 58, 64
1, 274057, Note_on_c, 0, 76, 0
1, 274062, Note_on_c, 0, 84, 0
1, 274068, Note_on_c, 0, 82, 0
1, 274139, Note_on_c, 0, 88, 0
1, 274381, Note_on_c, 0, 88, 50
1, 274395, Note_on_c, 0, 76, 40
1, 274403, Note_on_c, 0, 82, 38
1, 274409, Note_on_c, 0, 84, 38
1, 274482, Note_on_c, 0, 56, 46
1, 274514, Note_on_c, 0, 58, 0
1, 274536, Note_on_c, 0, 82, 0
1, 274545, Note_on_c, 0, 56, 0
1, 274576, Note_on_c, 0, 55, 49
1, 274578, Note_on_c, 0, 84, 0
1, 274585, Note_on_c, 0, 76, 0
1, 274641, Note_on_c, 0, 88, 0
1, 274666, Note_on_c, 0, 55, 0
1, 275065, Note_on_c, 0, 88, 50
1, 275072, Note_on_c, 0, 76, 40
1, 275086, Note_on_c, 0, 84, 24
1, 275094, Note_on_c, 0, 82, 30
1, 275222, Note_on_c, 0, 82, 0
1, 275247, Note_on_c, 0, 84, 0
1, 275289, Note_on_c, 0, 76, 0
1, 275307, Note_on_c, 0, 88, 0
1, 275376, Note_on_c, 0, 35, 68
1, 275429, Control_c, 0, 64, 119
1, 275447, Control_c, 0, 64, 86
1, 275466, Control_c, 0, 64, 46
1, 275484, Control_c, 0, 64, 0
1, 275559, Control_c, 0, 64, 25
1, 275578, Control_c, 0, 64, 47
1, 275597, Control_c, 0, 64, 75
1, 275612, Note_on_c, 0, 35, 0
1, 275612, Control_c, 0, 64, 96
1, 275632, Control_c, 0, 64, 120
1, 275651, Control_c, 0, 64, 127
1, 275691, Note_on_c, 0, 89, 73
1, 275708, Note_on_c, 0, 85, 61
1, 275713, Note_on_c, 0, 77, 51
1, 275720, Note_on_c, 0, 80, 45
1, 276012, Note_on_c, 0, 56, 65
1, 276072, Note_on_c, 0, 80, 0
1, 276073, Note_on_c, 0, 85, 0
1, 276109, Note_on_c, 0, 77, 0
1, 276114, Note_on_c, 0, 89, 0
1, 276353, Note_on_c, 0, 85, 51
1, 276363, Note_on_c, 0, 80, 42
1, 276371, Note_on_c, 0, 77, 18
1, 276373, Note_on_c, 0, 89, 52
1, 276410, Note_on_c, 0, 56, 0
1, 276437, Note_on_c, 0, 54, 39
1, 276481, Note_on_c, 0, 54, 0
1, 276493, Note_on_c, 0, 53, 57
1, 276533, Note_on_c, 0, 53, 0
1, 276598, Note_on_c, 0, 68, 66
1, 276617, Poly_aftertouch_c, 0, 77, 24
1, 276632, Note_on_c, 0, 68, 0
1, 276646, Note_on_c, 0, 85, 0
1, 276669, Note_on_c, 0, 77, 0
1, 276669, Poly_aftertouch_c, 0, 77, 0
1, 276672, Note_on_c, 0, 80, 0
1, 276724, Note_on_c, 0, 89, 0
1, 276960, Note_on_c, 0, 89, 53
1, 276972, Note_on_c, 0, 85, 45
1, 276975, Note_on_c, 0, 77, 41
1, 276987, Note_on_c, 0, 80, 35
1, 277110, Note_on_c, 0, 80, 0
1, 277141, Note_on_c, 0, 85, 0
1, 277267, Note_on_c, 0, 34, 72
1, 277281, Note_on_c, 0, 77, 0
1, 277319, Control_c, 0, 64, 117
1, 277337, Control_c, 0, 64, 77
1, 277355, Control_c, 0, 64, 35
1, 277370, Note_on_c, 0, 89, 0
1, 277373, Control_c, 0, 64, 10
1, 277375, Control_c, 0, 67, 123
1, 277394, Control_c, 0, 67, 118
1, 277411, Control_c, 0, 64, 21
1, 277431, Control_c, 0, 64, 42
1, 277432, Control_c, 0, 67, 107
1, 277450, Control_c, 0, 64, 63
1, 277451, Control_c, 0, 67, 96
1, 277469, Control_c, 0, 64, 88
1, 277471, Control_c, 0, 67, 79
1, 277485, Control_c, 0, 64, 114
1, 277487, Control_c, 0, 67, 59
1, 277506, Control_c, 0, 64, 127
1, 277507, Control_c, 0, 67, 41
1, 277509, Note_on_c, 0, 34, 0
1, 277523, Control_c, 0, 67, 26
1, 277542, Control_c, 0, 67, 13
1, 277578, Control_c, 0, 67, 0
1, 277578, Note_on_c, 0, 90, 73
1, 277590, Note_on_c, 0, 78, 52
1, 277595, Note_on_c, 0, 85, 49
1, 277908, Note_on_c, 0, 58, 71
1, 277946, Note_on_c, 0, 90, 0
1, 277951, Note_on_c, 0, 78, 0
1, 277973, Note_on_c, 0, 85, 0
1, 278243, Note_on_c, 0, 85, 51
1, 278247, Note_on_c, 0, 78, 53
1, 278250, Note_on_c, 0, 90, 67
1, 278303, Note_on_c, 0, 58, 0
1, 278309, Control_c, 0, 67, 8
1, 278327, Control_c, 0, 67, 14
1, 278334, Note_on_c, 0, 56, 59
1, 278347, Control_c, 0, 67, 25
1, 278366, Control_c, 0, 67, 36
1, 278385, Control_c, 0, 67, 44
1, 278391, Note_on_c, 0, 56, 0
1, 278396, Note_on_c, 0, 54, 58
1, 278404, Control_c, 0, 67, 52
1, 278420, Control_c, 0, 67, 61
1, 278439, Control_c, 0, 67, 72
1, 278447, Note_on_c, 0, 54, 0
1, 278458, Control_c, 0, 67, 85
1, 278477, Control_c, 0, 67, 98
1, 278494, Control_c, 0, 67, 111
1, 278513, Note_on_c, 0, 70, 71
1, 278514, Control_c, 0, 67, 121
1, 278533, Control_c, 0, 67, 127
1, 278551, Note_on_c, 0, 70, 0
1, 278552, Note_on_c, 0, 85, 0
1, 278555, Note_on_c, 0, 90, 0
1, 278599, Note_on_c, 0, 78, 0
1, 278841, Note_on_c, 0, 90, 59
1, 278866, Note_on_c, 0, 85, 43
1, 278879, Note_on_c, 0, 78, 49
1, 279201, Note_on_c, 0, 30, 67
1, 279226, Control_c, 0, 64, 89
1, 279246, Control_c, 0, 64, 43
1, 279264, Control_c, 0, 64, 0
1, 279286, Note_on_c, 0, 78, 0
1, 279322, Control_c, 0, 64, 34
1, 279332, Note_on_c, 0, 85, 0
1, 279337, Control_c, 0, 64, 55
1, 279356, Control_c, 0, 64, 83
1, 279367, Note_on_c, 0, 90, 0
1, 279374, Control_c, 0, 64, 109
1, 279393, Control_c, 0, 64, 127
1, 279431, Note_on_c, 0, 30, 0
1, 279538, Note_on_c, 0, 94, 76
1, 279558, Note_on_c, 0, 90, 48
1, 279567, Note_on_c, 0, 82, 49
1, 279570, Note_on_c, 0, 85, 50
1, 279905, Note_on_c, 0, 61, 65
1, 279974, Note_on_c, 0, 90, 0
1, 279974, Note_on_c, 0, 85, 0
1, 279999, Note_on_c, 0, 82, 0
1, 280058, Note_on_c, 0, 94, 0
1, 280245, Note_on_c, 0, 94, 52
1, 280251, Note_on_c, 0, 90, 49
1, 280262, Note_on_c, 0, 82, 31
1, 280266, Note_on_c, 0, 85, 45
1, 280321, Note_on_c, 0, 61, 0
1, 280351, Note_on_c, 0, 59, 51
1, 280391, Note_on_c, 0, 58, 60
1, 280394, Note_on_c, 0, 59, 0
1, 280477, Note_on_c, 0, 58, 0
1, 280556, Note_on_c, 0, 73, 63
1, 280586, Note_on_c, 0, 85, 0
1, 280599, Note_on_c, 0, 90, 0
1, 280610, Note_on_c, 0, 73, 0
1, 280614, Note_on_c, 0, 82, 0
1, 280653, Note_on_c, 0, 94, 0
1, 280935, Note_on_c, 0, 94, 53
1, 280947, Note_on_c, 0, 82, 39
1, 280950, Note_on_c, 0, 90, 46
1, 280965, Note_on_c, 0, 85, 35
1, 281155, Note_on_c, 0, 94, 0
1, 281224, Note_on_c, 0, 90, 0
1, 281281, Note_on_c, 0, 85, 0
1, 281320, Note_on_c, 0, 82, 0
1, 281375, Note_on_c, 0, 36, 53
1, 281432, Control_c, 0, 64, 114
1, 281450, Control_c, 0, 64, 75
1, 281468, Control_c, 0, 64, 27
1, 281488, Control_c, 0, 64, 0
1, 281543, Control_c, 0, 64, 17
1, 281560, Control_c, 0, 64, 41
1, 281579, Control_c, 0, 64, 68
1, 281598, Control_c, 0, 64, 91
1, 281616, Control_c, 0, 64, 115
1, 281636, Control_c, 0, 64, 127
1, 281680, Note_on_c, 0, 36, 0
1, 281761, Note_on_c, 0, 88, 55
1, 281787, Note_on_c, 0, 82, 34
1, 281787, Note_on_c, 0, 84, 41
1, 281800, Note_on_c, 0, 76, 36
1, 282104, Poly_aftertouch_c, 0, 82, 24
1, 282118, Poly_aftertouch_c, 0, 76, 24
1, 282143, Note_on_c, 0, 82, 0
1, 282143, Poly_aftertouch_c, 0, 82, 0
1, 282145, Note_on_c, 0, 58, 41
1, 282164, Note_on_c, 0, 76, 0
1, 282164, Poly_aftertouch_c, 0, 76, 0
1, 282183, Note_on_c, 0, 84, 0
1, 282228, Note_on_c, 0, 88, 0
1, 282520, Note_on_c, 0, 88, 49
1, 282529, Note_on_c, 0, 76, 34
1, 282530, Note_on_c, 0, 82, 39
1, 282531, Note_on_c, 0, 84, 45
1, 282588, Note_on_c, 0, 58, 0
1, 282596, Note_on_c, 0, 56, 37
1, 282675, Note_on_c, 0, 56, 0
1, 282717, Note_on_c, 0, 55, 35
1, 282764, Note_on_c, 0, 55, 0
1, 283102, Poly_aftertouch_c, 0, 82, 24
1, 283119, Note_on_c, 0, 76, 0
1, 283127, Note_on_c, 0, 72, 46
1, 283179, Note_on_c, 0, 82, 0
1, 283179, Poly_aftertouch_c, 0, 82, 0
1, 283205, Note_on_c, 0, 84, 0
1, 283221, Note_on_c, 0, 72, 0
1, 283221, Note_on_c, 0, 88, 0
1, 283634, Note_on_c, 0, 88, 51
1, 283650, Note_on_c, 0, 82, 32
1, 283656, Note_on_c, 0, 84, 36
1, 283659, Note_on_c, 0, 76, 31
1, 283748, Note_on_c, 0, 82, 0
1, 283806, Note_on_c, 0, 84, 0
1, 283846, Note_on_c, 0, 88, 0
1, 283851, Note_on_c, 0, 76, 0
1, 284165, Control_c, 0, 64, 90
1, 284184, Control_c, 0, 64, 51
1, 284196, Note_on_c, 0, 89, 60
1, 284197, Note_on_c, 0, 41, 42
1, 284203, Control_c, 0, 64, 32
1, 284210, Note_on_c, 0, 32, 43
1, 284212, Note_on_c, 0, 77, 41
1, 284216, Note_on_c, 0, 84, 39
1, 284221, Control_c, 0, 64, 37
1, 284222, Note_on_c, 0, 80, 35
1, 284241, Control_c, 0, 64, 53
1, 284259, Control_c, 0, 64, 71
1, 284278, Control_c, 0, 64, 91
1, 284287, Note_on_c, 0, 80, 0
1, 284296, Control_c, 0, 64, 117
1, 284301, Note_on_c, 0, 84, 0
1, 284315, Control_c, 0, 64, 127
1, 284316, Note_on_c, 0, 89, 0
1, 284328, Note_on_c, 0, 77, 0
1, 284458, Note_on_c, 0, 89, 58
1, 284484, Note_on_c, 0, 77, 30
1, 284490, Note_on_c, 0, 84, 40
1, 284533, Note_on_c, 0, 77, 0
1, 284534, Note_on_c, 0, 84, 0
1, 284540, Note_on_c, 0, 89, 0
1, 284600, Note_on_c, 0, 41, 0
1, 284607, Note_on_c, 0, 32, 0
1, 284637, Note_on_c, 0, 89, 47
1, 284643, Note_on_c, 0, 84, 49
1, 284647, Note_on_c, 0, 77, 24
1, 284667, Note_on_c, 0, 31, 50
1, 284736, Note_on_c, 0, 29, 61
1, 284743, Note_on_c, 0, 31, 0
1, 284778, Note_on_c, 0, 29, 0
1, 284803, Poly_aftertouch_c, 0, 80, 0
1, 284878, Note_on_c, 0, 77, 0
1, 284880, Control_c, 0, 64, 97
1, 284895, Note_on_c, 0, 44, 61
1, 284898, Note_on_c, 0, 53, 63
1, 284899, Control_c, 0, 64, 69
1, 284915, Control_c, 0, 64, 45
1, 284923, Note_on_c, 0, 84, 0
1, 284934, Control_c, 0, 64, 39
1, 284949, Note_on_c, 0, 89, 0
1, 285008, Control_c, 0, 64, 35
1, 285138, Control_c, 0, 64, 31
1, 285258, Poly_aftertouch_c, 0, 53, 24
1, 285343, Note_on_c, 0, 44, 0
1, 285350, Note_on_c, 0, 53, 0
1, 285350, Poly_aftertouch_c, 0, 53, 0
1, 285366, Note_on_c, 0, 43, 53
1, 285422, Note_on_c, 0, 43, 0
1, 285441, Note_on_c, 0, 41, 61
1, 285510, Note_on_c, 0, 41, 0
1, 285547, Control_c, 0, 64, 25
1, 285580, Note_on_c, 0, 53, 39
1, 285582, Control_c, 0, 64, 14
1, 285601, Control_c, 0, 64, 0
1, 285603, Note_on_c, 0, 49, 28
1, 285740, Control_c, 0, 64, 14
1, 285761, Control_c, 0, 64, 27
1, 285777, Control_c, 0, 64, 39
1, 285797, Control_c, 0, 64, 55
1, 285815, Control_c, 0, 64, 74
1, 285835, Control_c, 0, 64, 85
1, 285851, Control_c, 0, 64, 95
1, 285869, Control_c, 0, 64, 107
1, 285889, Control_c, 0, 64, 118
1, 285897, Note_on_c, 0, 53, 0
1, 285907, Control_c, 0, 64, 125
1, 285925, Note_on_c, 0, 49, 0
1, 285971, Note_on_c, 0, 89, 67
1, 285996, Note_on_c, 0, 85, 51
1, 286000, Note_on_c, 0, 82, 43
1, 286007, Note_on_c, 0, 77, 42
1, 286056, Note_on_c, 0, 82, 0
1, 286061, Note_on_c, 0, 85, 0
1, 286074, Note_on_c, 0, 77, 0
1, 286150, Note_on_c, 0, 89, 0
1, 286370, Control_c, 0, 64, 96
1, 286374, Note_on_c, 0, 31, 43
1, 286377, Note_on_c, 0, 40, 46
1, 286389, Control_c, 0, 64, 60
1, 286394, Note_on_c, 0, 91, 75
1, 286404, Note_on_c, 0, 85, 59
1, 286405, Control_c, 0, 64, 26
1, 286416, Note_on_c, 0, 82, 49
1, 286421, Note_on_c, 0, 79, 62
1, 286445, Control_c, 0, 64, 38
1, 286463, Control_c, 0, 64, 58
1, 286481, Control_c, 0, 64, 79
1, 286500, Control_c, 0, 64, 103
1, 286514, Note_on_c, 0, 85, 0
1, 286514, Note_on_c, 0, 82, 0
1, 286518, Control_c, 0, 64, 127
1, 286541, Note_on_c, 0, 91, 0
1, 286556, Note_on_c, 0, 79, 0
1, 286601, Control_c, 0, 67, 120
1, 286620, Control_c, 0, 67, 114
1, 286640, Control_c, 0, 67, 103
1, 286657, Control_c, 0, 67, 87
1, 286675, Control_c, 0, 67, 67
1, 286675, Note_on_c, 0, 82, 45
1, 286675, Note_on_c, 0, 91, 75
1, 286676, Note_on_c, 0, 85, 53
1, 286681, Note_on_c, 0, 79, 57
1, 286696, Control_c, 0, 67, 44
1, 286713, Control_c, 0, 67, 25
1, 286732, Control_c, 0, 67, 9
1, 286738, Note_on_c, 0, 82, 0
1, 286741, Note_on_c, 0, 85, 0
1, 286750, Control_c, 0, 67, 0
1, 286754, Note_on_c, 0, 79, 0
1, 286758, Note_on_c, 0, 91, 0
1, 286843, Note_on_c, 0, 40, 0
1, 286847, Note_on_c, 0, 29, 62
1, 286848, Note_on_c, 0, 31, 0
1, 286865, Note_on_c, 0, 91, 66
1, 286868, Note_on_c, 0, 82, 54
1, 286872, Note_on_c, 0, 85, 64
1, 286885, Note_on_c, 0, 79, 41
1, 286925, Note_on_c, 0, 28, 73
1, 286930, Note_on_c, 0, 29, 0
1, 286967, Note_on_c, 0, 28, 0
1, 287078, Note_on_c, 0, 82, 0
1, 287088, Note_on_c, 0, 43, 72
1, 287095, Note_on_c, 0, 52, 69
1, 287103, Control_c, 0, 64, 116
1, 287115, Note_on_c, 0, 79, 0
1, 287118, Note_on_c, 0, 85, 0
1, 287122, Control_c, 0, 64, 91
1, 287139, Control_c, 0, 64, 64
1, 287151, Note_on_c, 0, 91, 0
1, 287155, Control_c, 0, 64, 43
1, 287176, Control_c, 0, 64, 37
1, 287195, Control_c, 0, 64, 31
1, 287213, Control_c, 0, 64, 20
1, 287251, Control_c, 0, 64, 0
1, 287511, Control_c, 0, 64, 10
1, 287537, Control_c, 0, 64, 27
1, 287555, Note_on_c, 0, 52, 0
1, 287555, Control_c, 0, 64, 42
1, 287559, Note_on_c, 0, 43, 0
1, 287573, Control_c, 0, 64, 61
1, 287578, Note_on_c, 0, 41, 62
1, 287593, Control_c, 0, 64, 81
1, 287612, Control_c, 0, 64, 99
1, 287631, Control_c, 0, 64, 116
1, 287645, Note_on_c, 0, 41, 0
1, 287647, Note_on_c, 0, 40, 65
1, 287648, Control_c, 0, 64, 123
1, 287667, Control_c, 0, 64, 127
1, 287679, Note_on_c, 0, 40, 0
1, 287791, Note_on_c, 0, 49, 67
1, 287801, Note_on_c, 0, 55, 51
1, 287816, Control_c, 0, 64, 108
1, 287835, Control_c, 0, 64, 84
1, 287854, Control_c, 0, 64, 57
1, 287871, Control_c, 0, 64, 32
1, 287891, Control_c, 0, 64, 26
1, 287963, Control_c, 0, 64, 36
1, 287983, Control_c, 0, 64, 55
1, 288000, Control_c, 0, 64, 71
1, 288020, Control_c, 0, 64, 79
1, 288039, Control_c, 0, 64, 88
1, 288057, Control_c, 0, 64, 101
1, 288077, Control_c, 0, 64, 118
1, 288092, Control_c, 0, 64, 127
1, 288122, Note_on_c, 0, 55, 0
1, 288150, Note_on_c, 0, 49, 0
1, 288152, Note_on_c, 0, 91, 81
1, 288181, Note_on_c, 0, 82, 45
1, 288184, Note_on_c, 0, 79, 51
1, 288203, Note_on_c, 0, 85, 28
1, 288239, Note_on_c, 0, 79, 0
1, 288239, Note_on_c, 0, 85, 0
1, 288246, Note_on_c, 0, 82, 0
1, 288287, Note_on_c, 0, 91, 0
1, 288557, Note_on_c, 0, 30, 53
1, 288558, Note_on_c, 0, 93, 82
1, 288565, Control_c, 0, 64, 103
1, 288566, Note_on_c, 0, 39, 58
1, 288570, Note_on_c, 0, 90, 68
1, 288573, Note_on_c, 0, 81, 61
1, 288575, Note_on_c, 0, 84, 62
1, 288584, Control_c, 0, 64, 64
1, 288603, Control_c, 0, 64, 18
1, 288641, Control_c, 0, 64, 12
1, 288658, Control_c, 0, 64, 34
1, 288676, Control_c, 0, 64, 55
1, 288691, Note_on_c, 0, 84, 0
1, 288695, Control_c, 0, 64, 75
1, 288703, Note_on_c, 0, 81, 0
1, 288714, Note_on_c, 0, 90, 0
1, 288714, Control_c, 0, 64, 97
1, 288727, Note_on_c, 0, 93, 0
1, 288732, Control_c, 0, 64, 125
1, 288848, Note_on_c, 0, 93, 76
1, 288854, Note_on_c, 0, 90, 65
1, 288854, Note_on_c, 0, 81, 58
1, 288862, Note_on_c, 0, 84, 59
1, 288923, Note_on_c, 0, 84, 0
1, 288936, Note_on_c, 0, 81, 0
1, 288939, Note_on_c, 0, 90, 0
1, 288941, Note_on_c, 0, 93, 0
1, 288969, Note_on_c, 0, 39, 0
1, 288981, Note_on_c, 0, 30, 0
1, 288996, Note_on_c, 0, 29, 59
1, 289035, Note_on_c, 0, 93, 74
1, 289050, Note_on_c, 0, 81, 57
1, 289051, Note_on_c, 0, 90, 68
1, 289055, Note_on_c, 0, 27, 76
1, 289060, Note_on_c, 0, 84, 61
1, 289090, Note_on_c, 0, 29, 0
1, 289106, Note_on_c, 0, 27, 0
1, 289160, Note_on_c, 0, 81, 0
1, 289185, Note_on_c, 0, 93, 0
1, 289234, Note_on_c, 0, 51, 78
1, 289245, Note_on_c, 0, 42, 65
1, 289251, Note_on_c, 0, 84, 0
1, 289266, Note_on_c, 0, 90, 0
1, 289288, Control_c, 0, 64, 104
1, 289307, Control_c, 0, 64, 71
1, 289326, Control_c, 0, 64, 35
1, 289345, Control_c, 0, 64, 0
1, 289447, Control_c, 0, 64, 32
1, 289467, Control_c, 0, 64, 54
1, 289482, Control_c, 0, 64, 72
1, 289502, Control_c, 0, 64, 86
1, 289521, Control_c, 0, 64, 104
1, 289538, Control_c, 0, 64, 122
1, 289558, Control_c, 0, 64, 127
1, 289637, Note_on_c, 0, 51, 0
1, 289682, Note_on_c, 0, 41, 59
1, 289692, Note_on_c, 0, 42, 0
1, 289720, Note_on_c, 0, 39, 76
1, 289740, Note_on_c, 0, 41, 0
1, 289771, Note_on_c, 0, 39, 0
1, 289877, Note_on_c, 0, 51, 73
1, 289879, Note_on_c, 0, 57, 75
1, 289909, Control_c, 0, 64, 96
1, 289929, Control_c, 0, 64, 57
1, 289946, Control_c, 0, 64, 0
1, 290003, Control_c, 0, 64, 21
1, 290021, Control_c, 0, 64, 46
1, 290039, Control_c, 0, 64, 70
1, 290057, Control_c, 0, 64, 95
1, 290077, Control_c, 0, 64, 125
1, 290158, Note_on_c, 0, 57, 0
1, 290195, Note_on_c, 0, 93, 87
1, 290203, Note_on_c, 0, 90, 81
1, 290204, Note_on_c, 0, 84, 78
1, 290205, Note_on_c, 0, 81, 75
1, 290218, Note_on_c, 0, 51, 0
1, 290239, Note_on_c, 0, 81, 0
1, 290249, Note_on_c, 0, 84, 0
1, 290285, Note_on_c, 0, 93, 0
1, 290300, Note_on_c, 0, 90, 0
1, 290564, Note_on_c, 0, 29, 80
1, 290567, Note_on_c, 0, 38, 79
1, 290613, Note_on_c, 0, 94, 86
1, 290616, Note_on_c, 0, 82, 81
1, 290619, Note_on_c, 0, 89, 80
1, 290621, Control_c, 0, 64, 82
1, 290642, Control_c, 0, 64, 31
1, 290660, Control_c, 0, 64, 0
1, 290697, Control_c, 0, 64, 11
1, 290715, Control_c, 0, 64, 41
1, 290723, Note_on_c, 0, 82, 0
1, 290733, Control_c, 0, 64, 66
1, 290750, Note_on_c, 0, 89, 0
1, 290751, Note_on_c, 0, 94, 0
1, 290752, Control_c, 0, 64, 91
1, 290770, Control_c, 0, 64, 119
1, 290789, Control_c, 0, 64, 127
1, 290854, Note_on_c, 0, 89, 71
1, 290856, Note_on_c, 0, 94, 75
1, 290858, Note_on_c, 0, 82, 64
1, 290930, Note_on_c, 0, 82, 0
1, 290952, Note_on_c, 0, 94, 0
1, 290952, Note_on_c, 0, 89, 0
1, 290966, Note_on_c, 0, 27, 68
1, 291020, Note_on_c, 0, 38, 0
1, 291035, Note_on_c, 0, 29, 0
1, 291054, Note_on_c, 0, 94, 83
1, 291056, Note_on_c, 0, 26, 76
1, 291060, Note_on_c, 0, 82, 67
1, 291066, Note_on_c, 0, 89, 74
1, 291071, Note_on_c, 0, 27, 0
1, 291114, Note_on_c, 0, 26, 0
1, 291278, Note_on_c, 0, 50, 90
1, 291279, Note_on_c, 0, 41, 88
1, 291309, Note_on_c, 0, 82, 0
1, 291318, Control_c, 0, 64, 119
1, 291337, Control_c, 0, 64, 77
1, 291354, Control_c, 0, 64, 46
1, 291362, Note_on_c, 0, 94, 0
1, 291371, Note_on_c, 0, 89, 0
1, 291373, Control_c, 0, 64, 50
1, 291392, Control_c, 0, 64, 66
1, 291410, Control_c, 0, 64, 81
1, 291429, Control_c, 0, 64, 105
1, 291448, Control_c, 0, 64, 127
1, 291753, Note_on_c, 0, 39, 63
1, 291770, Note_on_c, 0, 50, 0
1, 291813, Note_on_c, 0, 41, 0
1, 291832, Note_on_c, 0, 38, 66
1, 292064, Note_on_c, 0, 49, 78
1, 292081, Note_on_c, 0, 41, 67
1, 292090, Note_on_c, 0, 101, 75
1, 292093, Note_on_c, 0, 94, 66
1, 292096, Note_on_c, 0, 89, 68
1, 292099, Note_on_c, 0, 38, 0
1, 292116, Note_on_c, 0, 39, 0
1, 292132, Control_c, 0, 64, 107
1, 292152, Control_c, 0, 64, 65
1, 292188, Control_c, 0, 64, 0
1, 292236, Note_on_c, 0, 94, 0
1, 292246, Note_on_c, 0, 89, 0
1, 292252, Control_c, 0, 64, 33
1, 292259, Note_on_c, 0, 101, 0
1, 292270, Control_c, 0, 64, 57
1, 292289, Control_c, 0, 64, 82
1, 292309, Control_c, 0, 64, 106
1, 292327, Control_c, 0, 64, 127
1, 292369, Note_on_c, 0, 101, 73
1, 292375, Note_on_c, 0, 94, 61
1, 292384, Note_on_c, 0, 89, 62
1, 292448, Note_on_c, 0, 94, 0
1, 292463, Note_on_c, 0, 101, 0
1, 292492, Note_on_c, 0, 89, 0
1, 292587, Note_on_c, 0, 94, 71
1, 292590, Note_on_c, 0, 101, 77
1, 292594, Note_on_c, 0, 39, 65
1, 292604, Note_on_c, 0, 49, 0
1, 292606, Note_on_c, 0, 89, 68
1, 292639, Note_on_c, 0, 41, 0
1, 292652, Note_on_c, 0, 37, 79
1, 292684, Note_on_c, 0, 39, 0
1, 292687, Note_on_c, 0, 94, 0
1, 292710, Note_on_c, 0, 101, 0
1, 292711, Note_on_c, 0, 37, 0
1, 292733, Note_on_c, 0, 89, 0
1, 292803, Note_on_c, 0, 96, 82
1, 292805, Note_on_c, 0, 101, 88
1, 292806, Note_on_c, 0, 36, 80
1, 292808, Note_on_c, 0, 29, 86
1, 292816, Note_on_c, 0, 89, 72
1, 292822, Note_on_c, 0, 92, 75
1, 292846, Control_c, 0, 64, 117
1, 292864, Control_c, 0, 64, 75
1, 292871, Note_on_c, 0, 98, 19
1, 292883, Control_c, 0, 64, 24
1, 292901, Control_c, 0, 64, 0
1, 292932, Note_on_c, 0, 98, 0
1, 292938, Control_c, 0, 64, 20
1, 292943, Note_on_c, 0, 101, 0
1, 292946, Note_on_c, 0, 96, 0
1, 292951, Note_on_c, 0, 92, 0
1, 292955, Control_c, 0, 64, 46
1, 292963, Note_on_c, 0, 89, 0
1, 292975, Control_c, 0, 64, 69
1, 292993, Control_c, 0, 64, 92
1, 293012, Control_c, 0, 64, 121
1, 293032, Control_c, 0, 64, 127
1, 293084, Note_on_c, 0, 101, 75
1, 293088, Note_on_c, 0, 96, 68
1, 293096, Note_on_c, 0, 89, 71
1, 293096, Note_on_c, 0, 92, 63
1, 293191, Note_on_c, 0, 92, 0
1, 293193, Note_on_c, 0, 101, 0
1, 293198, Note_on_c, 0, 96, 0
1, 293208, Note_on_c, 0, 89, 0
1, 293279, Note_on_c, 0, 25, 64
1, 293319, Note_on_c, 0, 101, 78
1, 293319, Note_on_c, 0, 96, 73
1, 293325, Note_on_c, 0, 92, 67
1, 293327, Note_on_c, 0, 89, 71
1, 293332, Note_on_c, 0, 36, 0
1, 293358, Note_on_c, 0, 24, 80
1, 293371, Note_on_c, 0, 29, 0
1, 293378, Note_on_c, 0, 25, 0
1, 293401, Note_on_c, 0, 96, 0
1, 293411, Note_on_c, 0, 101, 0
1, 293416, Note_on_c, 0, 24, 0
1, 293443, Note_on_c, 0, 89, 0
1, 293447, Note_on_c, 0, 92, 0
1, 293522, Note_on_c, 0, 43, 95
1, 293528, Note_on_c, 0, 100, 91
1, 293529, Note_on_c, 0, 96, 89
1, 293531, Note_on_c, 0, 48, 84
1, 293532, Note_on_c, 0, 91, 88
1, 293534, Note_on_c, 0, 88, 88
1, 293538, Note_on_c, 0, 50, 71
1, 293567, Note_on_c, 0, 50, 0
1, 293596, Control_c, 0, 64, 92
1, 293615, Control_c, 0, 64, 49
1, 293632, Control_c, 0, 64, 0
1, 293634, Note_on_c, 0, 91, 0
1, 293643, Note_on_c, 0, 100, 0
1, 293649, Note_on_c, 0, 88, 0
1, 293672, Note_on_c, 0, 96, 0
1, 293672, Control_c, 0, 64, 32
1, 293689, Control_c, 0, 64, 57
1, 293706, Control_c, 0, 64, 84
1, 293724, Control_c, 0, 64, 117
1, 293744, Control_c, 0, 64, 127
1, 293759, Note_on_c, 0, 91, 81
1, 293760, Note_on_c, 0, 100, 87
1, 293760, Note_on_c, 0, 88, 86
1, 293764, Note_on_c, 0, 96, 77
1, 293851, Note_on_c, 0, 91, 0
1, 293854, Note_on_c, 0, 96, 0
1, 293864, Note_on_c, 0, 100, 0
1, 293869, Note_on_c, 0, 88, 0
1, 293949, Note_on_c, 0, 40, 62
1, 293967, Note_on_c, 0, 91, 83
1, 293971, Note_on_c, 0, 100, 83
1, 293975, Note_on_c, 0, 88, 81
1, 293979, Note_on_c, 0, 48, 0
1, 293983, Note_on_c, 0, 96, 71
1, 293991, Note_on_c, 0, 36, 77
1, 294004, Note_on_c, 0, 43, 0
1, 294045, Note_on_c, 0, 40, 0
1, 294063, Note_on_c, 0, 100, 0
1, 294070, Note_on_c, 0, 36, 0
1, 294100, Note_on_c, 0, 91, 0
1, 294103, Note_on_c, 0, 88, 0
1, 294111, Note_on_c, 0, 96, 0
1, 294179, Note_on_c, 0, 53, 93
1, 294183, Note_on_c, 0, 60, 97
1, 294197, Note_on_c, 0, 98, 95
1, 294197, Note_on_c, 0, 95, 96
1, 294201, Note_on_c, 0, 86, 94
1, 294203, Note_on_c, 0, 92, 90
1, 294248, Note_on_c, 0, 96, 35
1, 294249, Note_on_c, 0, 96, 0
1, 294272, Control_c, 0, 64, 97
1, 294290, Control_c, 0, 64, 49
1, 294308, Control_c, 0, 64, 0
1, 294323, Note_on_c, 0, 95, 0
1, 294325, Note_on_c, 0, 86, 0
1, 294330, Note_on_c, 0, 98, 0
1, 294332, Note_on_c, 0, 92, 0
1, 294346, Control_c, 0, 64, 27
1, 294365, Control_c, 0, 64, 53
1, 294383, Control_c, 0, 64, 84
1, 294403, Control_c, 0, 64, 112
1, 294420, Control_c, 0, 64, 127
1, 294432, Note_on_c, 0, 86, 93
1, 294433, Note_on_c, 0, 95, 91
1, 294435, Note_on_c, 0, 98, 90
1, 294440, Note_on_c, 0, 92, 84
1, 294533, Note_on_c, 0, 86, 0
1, 294537, Note_on_c, 0, 92, 0
1, 294543, Note_on_c, 0, 98, 0
1, 294546, Note_on_c, 0, 95, 0
1, 294635, Note_on_c, 0, 95, 88
1, 294635, Note_on_c, 0, 98, 89
1, 294639, Note_on_c, 0, 50, 64
1, 294640, Note_on_c, 0, 86, 87
1, 294641, Note_on_c, 0, 92, 82
1, 294667, Note_on_c, 0, 60, 0
1, 294676, Note_on_c, 0, 48, 80
1, 294684, Note_on_c, 0, 53, 0
1, 294726, Note_on_c, 0, 50, 0
1, 294742, Note_on_c, 0, 48, 0
1, 294772, Note_on_c, 0, 86, 0
1, 294779, Note_on_c, 0, 98, 0
1, 294787, Note_on_c, 0, 92, 0
1, 294806, Note_on_c, 0, 95, 0
1, 294851, Note_on_c, 0, 67, 97
1, 294855, Note_on_c, 0, 72, 93
1, 294859, Note_on_c, 0, 100, 97
1, 294859, Note_on_c, 0, 91, 98
1, 294860, Note_on_c, 0, 88, 99
1, 294861, Note_on_c, 0, 96, 92
1, 294883, Control_c, 0, 64, 101
1, 294903, Control_c, 0, 64, 42
1, 294920, Control_c, 0, 64, 0
1, 294995, Control_c, 0, 64, 43
1, 295022, Control_c, 0, 64, 82
1, 295026, Note_on_c, 0, 88, 0
1, 295031, Note_on_c, 0, 100, 0
1, 295034, Note_on_c, 0, 91, 0
1, 295041, Control_c, 0, 64, 127
1, 295043, Note_on_c, 0, 96, 0
1, 295118, Note_on_c, 0, 88, 98
1, 295118, Note_on_c, 0, 100, 92
1, 295123, Note_on_c, 0, 91, 91
1, 295125, Note_on_c, 0, 96, 80
1, 295205, Note_on_c, 0, 91, 0
1, 295215, Note_on_c, 0, 100, 0
1, 295218, Note_on_c, 0, 88, 0
1, 295220, Note_on_c, 0, 96, 0
1, 295309, Note_on_c, 0, 64, 70
1, 295310, Note_on_c, 0, 91, 94
1, 295310, Note_on_c, 0, 88, 97
1, 295311, Note_on_c, 0, 100, 85
1, 295313, Note_on_c, 0, 72, 0
1, 295313, Note_on_c, 0, 96, 82
1, 295351, Note_on_c, 0, 100, 0
1, 295361, Note_on_c, 0, 60, 79
1, 295370, Note_on_c, 0, 67, 0
1, 295380, Note_on_c, 0, 96, 0
1, 295396, Note_on_c, 0, 64, 0
1, 295402, Note_on_c, 0, 91, 0
1, 295402, Note_on_c, 0, 88, 0
1, 295429, Note_on_c, 0, 60, 0
1, 295516, Note_on_c, 0, 60, 95
1, 295518, Note_on_c, 0, 53, 93
1, 295527, Note_on_c, 0, 86, 95
1, 295530, Note_on_c, 0, 83, 91
1, 295531, Note_on_c, 0, 80, 94
1, 295532, Note_on_c, 0, 72, 99
1, 295534, Note_on_c, 0, 74, 94
1, 295553, Note_on_c, 0, 84, 58
1, 295670, Note_on_c, 0, 84, 0
1, 295675, Note_on_c, 0, 74, 0
1, 295678, Note_on_c, 0, 72, 0
1, 295679, Note_on_c, 0, 80, 0
1, 295679, Note_on_c, 0, 86, 0
1, 295694, Note_on_c, 0, 83, 0
1, 295797, Note_on_c, 0, 86, 98
1, 295799, Note_on_c, 0, 72, 92
1, 295802, Note_on_c, 0, 74, 96
1, 295804, Note_on_c, 0, 80, 85
1, 295805, Note_on_c, 0, 83, 86
1, 295903, Note_on_c, 0, 74, 0
1, 295908, Note_on_c, 0, 72, 0
1, 295914, Note_on_c, 0, 80, 0
1, 295916, Note_on_c, 0, 86, 0
1, 295925, Note_on_c, 0, 83, 0
1, 296005, Note_on_c, 0, 50, 75
1, 296029, Note_on_c, 0, 86, 93
1, 296029, Note_on_c, 0, 74, 92
1, 296029, Note_on_c, 0, 83, 88
1, 296030, Note_on_c, 0, 72, 93
1, 296030, Note_on_c, 0, 80, 90
1, 296033, Note_on_c, 0, 60, 0
1, 296088, Note_on_c, 0, 48, 87
1, 296099, Note_on_c, 0, 53, 0
1, 296135, Note_on_c, 0, 50, 0
1, 296159, Note_on_c, 0, 48, 0
1, 296179, Note_on_c, 0, 72, 0
1, 296183, Note_on_c, 0, 74, 0
1, 296191, Note_on_c, 0, 80, 0
1, 296192, Note_on_c, 0, 86, 0
1, 296204, Note_on_c, 0, 83, 0
1, 296275, Note_on_c, 0, 48, 95
1, 296276, Note_on_c, 0, 43, 93
1, 296282, Note_on_c, 0, 86, 105
1, 296289, Note_on_c, 0, 74, 103
1, 296290, Note_on_c, 0, 83, 93
1, 296291, Note_on_c, 0, 72, 102
1, 296292, Note_on_c, 0, 80, 97
1, 296413, Note_on_c, 0, 74, 0
1, 296413, Note_on_c, 0, 72, 0
1, 296433, Note_on_c, 0, 86, 0
1, 296433, Poly_aftertouch_c, 0, 84, 0
1, 296441, Note_on_c, 0, 43, 0
1, 296442, Note_on_c, 0, 80, 0
1, 296453, Note_on_c, 0, 83, 0
1, 296525, Note_on_c, 0, 86, 102
1, 296530, Note_on_c, 0, 74, 93
1, 296531, Note_on_c, 0, 83, 85
1, 296531, Note_on_c, 0, 72, 93
1, 296532, Note_on_c, 0, 80, 90
1, 296637, Note_on_c, 0, 74, 0
1, 296637, Note_on_c, 0, 72, 0
1, 296651, Note_on_c, 0, 86, 0
1, 296656, Note_on_c, 0, 83, 0
1, 296658, Note_on_c, 0, 80, 0
1, 296750, Note_on_c, 0, 74, 88
1, 296750, Note_on_c, 0, 86, 96
1, 296753, Note_on_c, 0, 83, 78
1, 296754, Note_on_c, 0, 72, 89
1, 296754, Note_on_c, 0, 80, 86
1, 296798, Note_on_c, 0, 76, 44
1, 296830, Note_on_c, 0, 76, 0
1, 296832, Note_on_c, 0, 38, 88
1, 296862, Note_on_c, 0, 74, 0
1, 296866, Note_on_c, 0, 72, 0
1, 296869, Note_on_c, 0, 86, 0
1, 296873, Note_on_c, 0, 48, 0
1, 296907, Note_on_c, 0, 83, 0
1, 296912, Note_on_c, 0, 80, 0
1, 296931, Poly_aftertouch_c, 0, 43, 0
1, 296956, Note_on_c, 0, 36, 83
1, 296975, Note_on_c, 0, 72, 72
1, 296986, Control_c, 0, 64, 122
1, 297006, Control_c, 0, 64, 86
1, 297009, Note_on_c, 0, 38, 0
1, 297024, Control_c, 0, 64, 53
1, 297042, Control_c, 0, 64, 26
1, 297046, Note_on_c, 0, 79, 61
1, 297048, Note_on_c, 0, 72, 0
1, 297063, Control_c, 0, 64, 14
1, 297080, Control_c, 0, 64, 0
1, 297091, Note_on_c, 0, 84, 78
1, 297153, Control_c, 0, 64, 42
1, 297155, Note_on_c, 0, 79, 0
1, 297170, Note_on_c, 0, 48, 110
1, 297171, Control_c, 0, 64, 81
1, 297171, Note_on_c, 0, 43, 93
1, 297175, Note_on_c, 0, 88, 106
1, 297190, Control_c, 0, 64, 127
1, 297193, Note_on_c, 0, 84, 0
1, 297214, Note_on_c, 0, 36, 0
1, 297226, Note_on_c, 0, 88, 0
1, 297233, Note_on_c, 0, 48, 0
1, 297235, Note_on_c, 0, 43, 0
1, 298245, Note_on_c, 0, 30, 11
1, 298250, Note_on_c, 0, 60, 83
1, 298254, Control_c, 0, 64, 118
1, 298256, Note_on_c, 0, 36, 82
1, 298256, Note_on_c, 0, 48, 80
1, 298258, Note_on_c, 0, 30, 0
1, 298274, Control_c, 0, 64, 90
1, 298275, Note_on_c, 0, 61, 54
1, 298276, Note_on_c, 0, 61, 0
1, 298294, Control_c, 0, 64, 65
1, 298297, Note_on_c, 0, 50, 45
1, 298306, Note_on_c, 0, 48, 0
1, 298313, Control_c, 0, 64, 51
1, 298323, Note_on_c, 0, 60, 0
1, 298325, Note_on_c, 0, 36, 0
1, 298336, Note_on_c, 0, 50, 0
1, 298398, Note_on_c, 0, 34, 93
1, 298400, Note_on_c, 0, 58, 90
1, 298458, Note_on_c, 0, 34, 0
1, 298466, Note_on_c, 0, 58, 0
1, 298548, Note_on_c, 0, 32, 95
1, 298561, Note_on_c, 0, 57, 84
1, 298562, Note_on_c, 0, 56, 54
1, 298588, Note_on_c, 0, 56, 0
1, 298590, Note_on_c, 0, 32, 0
1, 298595, Note_on_c, 0, 57, 0
1, 298682, Note_on_c, 0, 36, 98
1, 298684, Note_on_c, 0, 48, 97
1, 298688, Note_on_c, 0, 60, 96
1, 298733, Note_on_c, 0, 48, 0
1, 298741, Note_on_c, 0, 36, 0
1, 298744, Note_on_c, 0, 60, 0
1, 298823, Note_on_c, 0, 31, 98
1, 298840, Note_on_c, 0, 55, 98
1, 298872, Note_on_c, 0, 31, 0
1, 298911, Note_on_c, 0, 55, 0
1, 298958, Note_on_c, 0, 60, 92
1, 298970, Note_on_c, 0, 48, 88
1, 299001, Note_on_c, 0, 48, 0
1, 299043, Note_on_c, 0, 60, 0
1, 299081, Control_c, 0, 64, 53
1, 299116, Poly_aftertouch_c, 0, 37, 0
1, 299117, Control_c, 0, 64, 47
1, 299134, Poly_aftertouch_c, 0, 32, 0
1, 299135, Control_c, 0, 64, 16
1, 299138, Note_on_c, 0, 41, 96
1, 299141, Note_on_c, 0, 29, 85
1, 299149, Note_on_c, 0, 53, 98
1, 299154, Control_c, 0, 64, 0
1, 299159, Note_on_c, 0, 40, 63
1, 299246, Note_on_c, 0, 53, 0
1, 299246, Control_c, 0, 64, 39
1, 299249, Note_on_c, 0, 29, 0
1, 299265, Control_c, 0, 64, 74
1, 299287, Control_c, 0, 64, 98
1, 299290, Note_on_c, 0, 40, 0
1, 299300, Note_on_c, 0, 41, 0
1, 299302, Control_c, 0, 64, 125
1, 299738, Note_on_c, 0, 53, 63
1, 299802, Note_on_c, 0, 60, 70
1, 299846, Note_on_c, 0, 65, 100
1, 299872, Note_on_c, 0, 53, 0
1, 299889, Note_on_c, 0, 68, 102
1, 299889, Note_on_c, 0, 72, 92
1, 299890, Note_on_c, 0, 80, 98
1, 299906, Note_on_c, 0, 65, 0
1, 299941, Note_on_c, 0, 60, 0
1, 300168, Note_on_c, 0, 68, 0
1, 300249, Note_on_c, 0, 80, 0
1, 300262, Note_on_c, 0, 72, 0
1, 300327, Note_on_c, 0, 72, 62
1, 300338, Note_on_c, 0, 67, 73
1, 300342, Note_on_c, 0, 79, 63
1, 300399, Note_on_c, 0, 79, 0
1, 300420, Note_on_c, 0, 77, 80
1, 300435, Note_on_c, 0, 72, 0
1, 300447, Note_on_c, 0, 67, 0
1, 300471, Note_on_c, 0, 77, 0
1, 300535, Note_on_c, 0, 46, 103
1, 300537, Note_on_c, 0, 34, 99
1, 300562, Note_on_c, 0, 73, 101
1, 300564, Note_on_c, 0, 85, 96
1, 300569, Note_on_c, 0, 79, 81
1, 300571, Note_on_c, 0, 77, 84
1, 300575, Note_on_c, 0, 82, 71
1, 300610, Note_on_c, 0, 82, 0
1, 300693, Poly_aftertouch_c, 0, 47, 0
1, 300693, Control_c, 0, 64, 99
1, 300710, Control_c, 0, 64, 54
1, 300729, Control_c, 0, 64, 0
1, 300804, Control_c, 0, 64, 29
1, 300823, Control_c, 0, 64, 55
1, 300840, Control_c, 0, 64, 88
1, 300857, Control_c, 0, 64, 120
1, 300861, Note_on_c, 0, 46, 0
1, 300877, Control_c, 0, 64, 127
1, 300899, Note_on_c, 0, 34, 0
1, 300979, Note_on_c, 0, 48, 89
1, 300989, Note_on_c, 0, 36, 81
1, 301010, Note_on_c, 0, 48, 0
1, 301031, Note_on_c, 0, 36, 0
1, 301080, Note_on_c, 0, 49, 99
1, 301093, Note_on_c, 0, 37, 77
1, 301102, Note_on_c, 0, 49, 0
1, 301111, Note_on_c, 0, 36, 59
1, 301128, Note_on_c, 0, 37, 0
1, 301140, Note_on_c, 0, 36, 0
1, 301210, Note_on_c, 0, 40, 98
1, 301223, Note_on_c, 0, 28, 93
1, 301285, Control_c, 0, 64, 121
1, 301303, Control_c, 0, 64, 84
1, 301324, Poly_aftertouch_c, 0, 36, 0
1, 301324, Control_c, 0, 64, 29
1, 301340, Control_c, 0, 64, 0
1, 301382, Note_on_c, 0, 85, 0
1, 301446, Note_on_c, 0, 73, 0
1, 301470, Control_c, 0, 64, 38
1, 301474, Note_on_c, 0, 77, 0
1, 301488, Control_c, 0, 64, 69
1, 301508, Control_c, 0, 64, 100
1, 301513, Note_on_c, 0, 28, 0
1, 301526, Control_c, 0, 64, 127
1, 301540, Note_on_c, 0, 79, 0
1, 301560, Note_on_c, 0, 40, 0
1, 301851, Note_on_c, 0, 52, 70
1, 301882, Note_on_c, 0, 58, 71
1, 301926, Note_on_c, 0, 61, 78
1, 301935, Note_on_c, 0, 52, 0
1, 301973, Note_on_c, 0, 67, 97
1, 301996, Note_on_c, 0, 58, 0
1, 301998, Note_on_c, 0, 85, 95
1, 301998, Note_on_c, 0, 73, 105
1, 302002, Note_on_c, 0, 79, 91
1, 302008, Note_on_c, 0, 61, 0
1, 302019, Note_on_c, 0, 67, 0
1, 302296, Note_on_c, 0, 73, 0
1, 302330, Note_on_c, 0, 85, 0
1, 302348, Note_on_c, 0, 79, 0
1, 302433, Note_on_c, 0, 84, 80
1, 302445, Note_on_c, 0, 72, 67
1, 302468, Note_on_c, 0, 72, 0
1, 302471, Note_on_c, 0, 84, 0
1, 302475, Note_on_c, 0, 79, 31
1, 302535, Note_on_c, 0, 70, 99
1, 302537, Note_on_c, 0, 82, 92
1, 302550, Note_on_c, 0, 79, 0
1, 302550, Note_on_c, 0, 79, 48
1, 302563, Note_on_c, 0, 78, 41
1, 302564, Note_on_c, 0, 78, 0
1, 302578, Note_on_c, 0, 70, 0
1, 302586, Note_on_c, 0, 79, 0
1, 302602, Note_on_c, 0, 82, 0
1, 302662, Note_on_c, 0, 45, 96
1, 302664, Note_on_c, 0, 33, 84
1, 302670, Note_on_c, 0, 78, 98
1, 302672, Note_on_c, 0, 81, 93
1, 302673, Note_on_c, 0, 90, 101
1, 302678, Note_on_c, 0, 84, 88
1, 302700, Note_on_c, 0, 85, 45
1, 302737, Note_on_c, 0, 85, 0
1, 302786, Control_c, 0, 64, 107
1, 302794, Poly_aftertouch_c, 0, 87, 0
1, 302798, Poly_aftertouch_c, 0, 41, 0
1, 302805, Control_c, 0, 64, 56
1, 302823, Control_c, 0, 64, 0
1, 302915, Control_c, 0, 64, 43
1, 302932, Control_c, 0, 64, 83
1, 302952, Control_c, 0, 64, 115
1, 302966, Note_on_c, 0, 33, 0
1, 302969, Note_on_c, 0, 45, 0
1, 302971, Control_c, 0, 64, 127
1, 303091, Note_on_c, 0, 48, 83
1, 303094, Note_on_c, 0, 36, 73
1, 303117, Note_on_c, 0, 48, 0
1, 303123, Note_on_c, 0, 36, 0
1, 303187, Note_on_c, 0, 51, 98
1, 303199, Note_on_c, 0, 39, 91
1, 303202, Poly_aftertouch_c, 0, 35, 0
1, 303228, Note_on_c, 0, 51, 0
1, 303239, Note_on_c, 0, 39, 0
1, 303322, Control_c, 0, 64, 116
1, 303342, Control_c, 0, 64, 52
1, 303360, Note_on_c, 0, 39, 83
1, 303360, Control_c, 0, 64, 0
1, 303368, Note_on_c, 0, 27, 98
1, 303389, Note_on_c, 0, 25, 71
1, 303415, Note_on_c, 0, 26, 37
1, 303424, Note_on_c, 0, 25, 0
1, 303459, Note_on_c, 0, 27, 0
1, 303460, Note_on_c, 0, 39, 0
1, 303460, Control_c, 0, 64, 21
1, 303475, Note_on_c, 0, 26, 0
1, 303481, Control_c, 0, 64, 65
1, 303499, Control_c, 0, 64, 105
1, 303507, Note_on_c, 0, 90, 0
1, 303517, Control_c, 0, 64, 127
1, 303578, Note_on_c, 0, 78, 0
1, 303634, Note_on_c, 0, 84, 0
1, 303675, Note_on_c, 0, 81, 0
1, 303939, Note_on_c, 0, 51, 76
1, 303986, Note_on_c, 0, 57, 77
1, 304031, Note_on_c, 0, 60, 80
1, 304035, Note_on_c, 0, 51, 0
1, 304045, Note_on_c, 0, 55, 12
1, 304053, Note_on_c, 0, 66, 100
1, 304058, Note_on_c, 0, 61, 46
1, 304083, Note_on_c, 0, 78, 106
1, 304088, Note_on_c, 0, 81, 95
1, 304088, Note_on_c, 0, 90, 97
1, 304091, Note_on_c, 0, 84, 84
1, 304111, Note_on_c, 0, 61, 0
1, 304111, Note_on_c, 0, 61, 33
1, 304117, Note_on_c, 0, 66, 0
1, 304124, Note_on_c, 0, 57, 0
1, 304124, Note_on_c, 0, 55, 0
1, 304157, Note_on_c, 0, 60, 0
1, 304205, Note_on_c, 0, 61, 0
1, 304362, Note_on_c, 0, 78, 0
1, 304408, Note_on_c, 0, 90, 0
1, 304426, Note_on_c, 0, 84, 0
1, 304510, Note_on_c, 0, 77, 82
1, 304527, Note_on_c, 0, 89, 73
1, 304537, Note_on_c, 0, 77, 0
1, 304548, Note_on_c, 0, 89, 0
1, 304568, Note_on_c, 0, 81, 0
1, 304605, Note_on_c, 0, 81, 73
1, 304606, Note_on_c, 0, 75, 98
1, 304610, Note_on_c, 0, 87, 93
1, 304636, Note_on_c, 0, 81, 0
1, 304658, Note_on_c, 0, 75, 0
1, 304683, Note_on_c, 0, 87, 0
1, 304752, Note_on_c, 0, 46, 102
1, 304756, Note_on_c, 0, 34, 104
1, 304768, Note_on_c, 0, 94, 106
1, 304769, Note_on_c, 0, 82, 108
1, 304777, Note_on_c, 0, 89, 84
1, 304786, Control_c, 0, 64, 70
1, 304804, Control_c, 0, 64, 0
1, 304861, Control_c, 0, 64, 14
1, 304878, Control_c, 0, 64, 58
1, 304898, Control_c, 0, 64, 105
1, 304917, Control_c, 0, 64, 127
1, 304994, Note_on_c, 0, 46, 0
1, 305005, Note_on_c, 0, 34, 0
1, 305183, Note_on_c, 0, 50, 96
1, 305187, Note_on_c, 0, 38, 90
1, 305210, Note_on_c, 0, 50, 0
1, 305218, Note_on_c, 0, 38, 0
1, 305285, Note_on_c, 0, 53, 101
1, 305288, Note_on_c, 0, 41, 94
1, 305328, Note_on_c, 0, 53, 0
1, 305345, Note_on_c, 0, 41, 0
1, 305404, Poly_aftertouch_c, 0, 38, 0
1, 305497, Note_on_c, 0, 38, 94
1, 305499, Note_on_c, 0, 36, 89
1, 305500, Note_on_c, 0, 26, 95
1, 305536, Control_c, 0, 64, 108
1, 305555, Control_c, 0, 64, 53
1, 305573, Control_c, 0, 64, 0
1, 305606, Note_on_c, 0, 36, 0
1, 305740, Control_c, 0, 64, 52
1, 305758, Control_c, 0, 64, 101
1, 305778, Control_c, 0, 64, 127
1, 305782, Note_on_c, 0, 26, 0
1, 305812, Note_on_c, 0, 38, 0
1, 305900, Note_on_c, 0, 82, 0
1, 305908, Note_on_c, 0, 89, 0
1, 305930, Note_on_c, 0, 94, 0
1, 306050, Note_on_c, 0, 50, 74
1, 306072, Note_on_c, 0, 53, 62
1, 306129, Note_on_c, 0, 58, 80
1, 306146, Note_on_c, 0, 50, 0
1, 306164, Note_on_c, 0, 55, 8
1, 306179, Note_on_c, 0, 53, 0
1, 306182, Note_on_c, 0, 65, 95
1, 306210, Note_on_c, 0, 98, 95
1, 306211, Note_on_c, 0, 94, 90
1, 306213, Note_on_c, 0, 86, 102
1, 306240, Note_on_c, 0, 65, 0
1, 306254, Note_on_c, 0, 55, 0
1, 306273, Note_on_c, 0, 58, 0
1, 306416, Note_on_c, 0, 98, 0
1, 306438, Note_on_c, 0, 86, 0
1, 306550, Note_on_c, 0, 94, 0
1, 306595, Note_on_c, 0, 90, 51
1, 306596, Note_on_c, 0, 96, 76
1, 306599, Note_on_c, 0, 84, 73
1, 306624, Note_on_c, 0, 96, 0
1, 306630, Note_on_c, 0, 84, 0
1, 306631, Note_on_c, 0, 90, 0
1, 306686, Note_on_c, 0, 82, 98
1, 306687, Note_on_c, 0, 94, 92
1, 306717, Note_on_c, 0, 92, 57
1, 306738, Note_on_c, 0, 82, 0
1, 306746, Note_on_c, 0, 92, 0
1, 306748, Note_on_c, 0, 94, 0
1, 306811, Note_on_c, 0, 37, 100
1, 306816, Note_on_c, 0, 25, 92
1, 306836, Note_on_c, 0, 101, 106
1, 306841, Note_on_c, 0, 89, 102
1, 306843, Note_on_c, 0, 94, 103
1, 306898, Control_c, 0, 64, 95
1, 306910, Poly_aftertouch_c, 0, 28, 0
1, 306918, Control_c, 0, 64, 33
1, 306935, Control_c, 0, 64, 0
1, 306938, Poly_aftertouch_c, 0, 31, 0
1, 306993, Control_c, 0, 64, 41
1, 307005, Note_on_c, 0, 25, 0
1, 307009, Control_c, 0, 64, 76
1, 307027, Control_c, 0, 64, 111
1, 307028, Note_on_c, 0, 37, 0
1, 307047, Control_c, 0, 64, 127
1, 307200, Note_on_c, 0, 41, 90
1, 307201, Note_on_c, 0, 29, 83
1, 307233, Note_on_c, 0, 29, 0
1, 307237, Note_on_c, 0, 41, 0
1, 307252, Note_on_c, 0, 89, 0
1, 307254, Note_on_c, 0, 94, 0
1, 307294, Note_on_c, 0, 101, 0
1, 307306, Note_on_c, 0, 46, 92
1, 307338, Note_on_c, 0, 34, 47
1, 307358, Note_on_c, 0, 46, 0
1, 307383, Note_on_c, 0, 34, 0
1, 307536, Note_on_c, 0, 30, 32
1, 307549, Note_on_c, 0, 92, 97
1, 307551, Note_on_c, 0, 89, 101
1, 307551, Note_on_c, 0, 101, 98
1, 307552, Note_on_c, 0, 96, 90
1, 307556, Note_on_c, 0, 24, 89
1, 307557, Note_on_c, 0, 36, 99
1, 307588, Note_on_c, 0, 30, 0
1, 307594, Control_c, 0, 64, 105
1, 307595, Note_on_c, 0, 31, 43
1, 307612, Control_c, 0, 64, 41
1, 307629, Control_c, 0, 64, 0
1, 307640, Note_on_c, 0, 31, 0
1, 307643, Poly_aftertouch_c, 0, 28, 0
1, 307704, Control_c, 0, 64, 67
1, 307715, Note_on_c, 0, 24, 0
1, 307723, Control_c, 0, 64, 115
1, 307742, Control_c, 0, 64, 127
1, 307796, Note_on_c, 0, 36, 0
1, 307952, Note_on_c, 0, 41, 86
1, 307960, Note_on_c, 0, 101, 0
1, 307968, Note_on_c, 0, 29, 71
1, 307983, Note_on_c, 0, 41, 0
1, 307986, Note_on_c, 0, 96, 0
1, 308002, Note_on_c, 0, 89, 0
1, 308003, Note_on_c, 0, 29, 0
1, 308013, Note_on_c, 0, 92, 0
1, 308056, Note_on_c, 0, 44, 99
1, 308065, Note_on_c, 0, 32, 86
1, 308106, Note_on_c, 0, 32, 0
1, 308114, Note_on_c, 0, 44, 0
1, 308188, Note_on_c, 0, 88, 99
1, 308189, Note_on_c, 0, 100, 99
1, 308191, Note_on_c, 0, 91, 91
1, 308192, Note_on_c, 0, 96, 93
1, 308204, Note_on_c, 0, 48, 99
1, 308211, Note_on_c, 0, 36, 89
1, 308252, Control_c, 0, 64, 123
1, 308269, Control_c, 0, 64, 70
1, 308276, Note_on_c, 0, 37, 10
1, 308288, Control_c, 0, 64, 0
1, 308315, Note_on_c, 0, 37, 0
1, 308336, Note_on_c, 0, 36, 0
1, 308342, Control_c, 0, 64, 44
1, 308362, Control_c, 0, 64, 85
1, 308380, Control_c, 0, 64, 123
1, 308398, Control_c, 0, 64, 127
1, 308405, Note_on_c, 0, 48, 0
1, 308558, Note_on_c, 0, 40, 80
1, 308564, Note_on_c, 0, 52, 73
1, 308590, Note_on_c, 0, 100, 0
1, 308591, Note_on_c, 0, 40, 0
1, 308597, Note_on_c, 0, 52, 0
1, 308598, Note_on_c, 0, 91, 0
1, 308607, Note_on_c, 0, 88, 0
1, 308666, Note_on_c, 0, 96, 0
1, 308669, Note_on_c, 0, 55, 88
1, 308678, Note_on_c, 0, 43, 75
1, 308712, Note_on_c, 0, 43, 0
1, 308721, Note_on_c, 0, 55, 0
1, 308799, Note_on_c, 0, 98, 97
1, 308803, Note_on_c, 0, 86, 100
1, 308805, Note_on_c, 0, 92, 90
1, 308808, Note_on_c, 0, 95, 91
1, 308818, Note_on_c, 0, 48, 85
1, 308822, Note_on_c, 0, 60, 84
1, 308844, Control_c, 0, 64, 122
1, 308864, Control_c, 0, 64, 74
1, 308880, Control_c, 0, 64, 0
1, 308936, Control_c, 0, 64, 23
1, 308954, Control_c, 0, 64, 65
1, 308973, Control_c, 0, 64, 104
1, 308981, Note_on_c, 0, 48, 0
1, 308992, Control_c, 0, 64, 127
1, 309039, Note_on_c, 0, 60, 0
1, 309153, Note_on_c, 0, 86, 0
1, 309169, Note_on_c, 0, 98, 0
1, 309188, Note_on_c, 0, 65, 83
1, 309194, Note_on_c, 0, 53, 76
1, 309224, Note_on_c, 0, 65, 0
1, 309229, Note_on_c, 0, 53, 0
1, 309234, Note_on_c, 0, 95, 0
1, 309246, Note_on_c, 0, 92, 0
1, 309301, Note_on_c, 0, 68, 92
1, 309305, Note_on_c, 0, 56, 78
1, 309368, Note_on_c, 0, 68, 0
1, 309372, Note_on_c, 0, 56, 0
1, 309446, Control_c, 0, 64, 81
1, 309463, Control_c, 0, 64, 0
1, 309470, Note_on_c, 0, 88, 105
1, 309470, Note_on_c, 0, 100, 97
1, 309471, Note_on_c, 0, 96, 94
1, 309473, Note_on_c, 0, 91, 100
1, 309478, Note_on_c, 0, 72, 101
1, 309487, Note_on_c, 0, 60, 88
1, 309518, Note_on_c, 0, 61, 52
1, 309524, Note_on_c, 0, 100, 0
1, 309540, Note_on_c, 0, 61, 0
1, 309540, Control_c, 0, 64, 47
1, 309541, Note_on_c, 0, 72, 0
1, 309543, Note_on_c, 0, 60, 0
1, 309552, Note_on_c, 0, 88, 0
1, 309557, Control_c, 0, 64, 92
1, 309564, Note_on_c, 0, 96, 0
1, 309576, Control_c, 0, 64, 127
1, 309587, Note_on_c, 0, 91, 0
1, 309693, Note_on_c, 0, 61, 32
1, 309748, Note_on_c, 0, 65, 77
1, 309756, Note_on_c, 0, 53, 67
1, 309788, Note_on_c, 0, 65, 0
1, 309794, Note_on_c, 0, 53, 0
1, 309822, Note_on_c, 0, 61, 0
1, 309889, Note_on_c, 0, 56, 78
1, 309891, Note_on_c, 0, 68, 91
1, 309934, Note_on_c, 0, 74, 97
1, 309935, Note_on_c, 0, 86, 86
1, 309936, Note_on_c, 0, 80, 93
1, 309944, Note_on_c, 0, 83, 80
1, 309950, Note_on_c, 0, 68, 0
1, 309957, Note_on_c, 0, 56, 0
1, 309977, Note_on_c, 0, 74, 0
1, 309983, Note_on_c, 0, 86, 0
1, 310009, Note_on_c, 0, 80, 0
1, 310029, Control_c, 0, 64, 120
1, 310047, Control_c, 0, 64, 60
1, 310050, Note_on_c, 0, 84, 93
1, 310051, Note_on_c, 0, 76, 108
1, 310054, Note_on_c, 0, 79, 94
1, 310055, Note_on_c, 0, 72, 99
1, 310058, Note_on_c, 0, 88, 96
1, 310061, Note_on_c, 0, 60, 87
1, 310066, Control_c, 0, 64, 0
1, 310084, Note_on_c, 0, 61, 64
1, 310096, Note_on_c, 0, 72, 0
1, 310109, Note_on_c, 0, 61, 0
1, 310114, Note_on_c, 0, 83, 0
1, 310118, Note_on_c, 0, 60, 0
1, 310119, Control_c, 0, 64, 25
1, 310139, Control_c, 0, 64, 64
1, 310159, Control_c, 0, 64, 107
1, 310176, Control_c, 0, 64, 127
1, 310179, Note_on_c, 0, 88, 0
1, 310230, Note_on_c, 0, 84, 0
1, 310246, Note_on_c, 0, 76, 0
1, 310262, Note_on_c, 0, 79, 0
1, 310280, Poly_aftertouch_c, 0, 78, 0
1, 310364, Note_on_c, 0, 53, 90
1, 310371, Note_on_c, 0, 41, 87
1, 310420, Note_on_c, 0, 41, 0
1, 310423, Note_on_c, 0, 53, 0
1, 310517, Note_on_c, 0, 56, 92
1, 310518, Note_on_c, 0, 44, 75
1, 310565, Note_on_c, 0, 62, 98
1, 310566, Note_on_c, 0, 68, 95
1, 310570, Note_on_c, 0, 74, 86
1, 310575, Note_on_c, 0, 71, 78
1, 310583, Note_on_c, 0, 56, 0
1, 310589, Note_on_c, 0, 44, 0
1, 310610, Note_on_c, 0, 74, 0
1, 310610, Note_on_c, 0, 62, 0
1, 310636, Note_on_c, 0, 68, 0
1, 310683, Note_on_c, 0, 72, 71
1, 310683, Note_on_c, 0, 60, 102
1, 310684, Note_on_c, 0, 71, 0
1, 310684, Note_on_c, 0, 71, 58
1, 310685, Note_on_c, 0, 67, 98
1, 310685, Note_on_c, 0, 64, 108
1, 310689, Note_on_c, 0, 76, 97
1, 310691, Note_on_c, 0, 48, 90
1, 310697, Control_c, 0, 64, 90
1, 310715, Control_c, 0, 64, 17
1, 310734, Control_c, 0, 64, 0
1, 310739, Note_on_c, 0, 71, 0
1, 310760, Note_on_c, 0, 60, 0
1, 310788, Control_c, 0, 64, 28
1, 310800, Note_on_c, 0, 48, 0
1, 310807, Control_c, 0, 64, 57
1, 310827, Control_c, 0, 64, 93
1, 310844, Control_c, 0, 64, 127
1, 310879, Note_on_c, 0, 76, 0
1, 310917, Note_on_c, 0, 72, 0
1, 310917, Note_on_c, 0, 64, 0
1, 310947, Note_on_c, 0, 67, 0
1, 311070, Note_on_c, 0, 41, 95
1, 311082, Note_on_c, 0, 29, 84
1, 311128, Poly_aftertouch_c, 0, 37, 0
1, 311135, Note_on_c, 0, 41, 0
1, 311138, Note_on_c, 0, 29, 0
1, 311251, Note_on_c, 0, 44, 93
1, 311260, Note_on_c, 0, 32, 74
1, 311313, Note_on_c, 0, 32, 0
1, 311323, Note_on_c, 0, 62, 93
1, 311323, Note_on_c, 0, 56, 94
1, 311330, Note_on_c, 0, 59, 87
1, 311352, Note_on_c, 0, 44, 0
1, 311356, Note_on_c, 0, 58, 51
1, 311357, Note_on_c, 0, 58, 0
1, 311389, Note_on_c, 0, 56, 0
1, 311407, Note_on_c, 0, 59, 0
1, 311463, Note_on_c, 0, 64, 96
1, 311466, Note_on_c, 0, 60, 90
1, 311468, Note_on_c, 0, 55, 102
1, 311478, Note_on_c, 0, 36, 86
1, 311482, Note_on_c, 0, 48, 99
1, 311509, Note_on_c, 0, 43, 57
1, 311519, Control_c, 0, 64, 84
1, 311539, Control_c, 0, 64, 0
1, 311546, Note_on_c, 0, 43, 0
1, 311560, Note_on_c, 0, 62, 0
1, 311651, Control_c, 0, 64, 36
1, 311670, Control_c, 0, 64, 78
1, 311686, Control_c, 0, 64, 111
1, 311690, Note_on_c, 0, 36, 0
1, 311693, Note_on_c, 0, 48, 0
1, 311705, Control_c, 0, 64, 127
1, 311756, Note_on_c, 0, 64, 0
1, 311758, Note_on_c, 0, 55, 0
1, 311794, Note_on_c, 0, 60, 0
1, 311938, Control_c, 0, 64, 99
1, 311956, Control_c, 0, 64, 65
1, 311974, Control_c, 0, 64, 22
1, 311993, Control_c, 0, 64, 0
1, 312275, Note_on_c, 0, 60, 97
1, 312282, Note_on_c, 0, 36, 99
1, 312282, Note_on_c, 0, 55, 93
1, 312283, Note_on_c, 0, 52, 96
1, 312288, Control_c, 0, 64, 15
1, 312288, Note_on_c, 0, 24, 90
1, 312307, Control_c, 0, 64, 35
1, 312326, Control_c, 0, 64, 57
1, 312346, Control_c, 0, 64, 84
1, 312356, Note_on_c, 0, 36, 0
1, 312356, Note_on_c, 0, 24, 0
1, 312364, Note_on_c, 0, 52, 0
1, 312365, Control_c, 0, 64, 106
1, 312382, Control_c, 0, 64, 121
1, 312387, Note_on_c, 0, 60, 0
1, 312397, Note_on_c, 0, 55, 0
1, 312401, Control_c, 0, 64, 127
1, 312409, Poly_aftertouch_c, 0, 31, 0
1, 313205, Control_c, 0, 64, 118
1, 313225, Control_c, 0, 64, 104
1, 313243, Control_c, 0, 64, 86
1, 313262, Control_c, 0, 64, 67
1, 313281, Control_c, 0, 64, 55
1, 313299, Control_c, 0, 64, 52
1, 313318, Control_c, 0, 64, 50
1, 313337, Control_c, 0, 64, 45
1, 313356, Control_c, 0, 64, 36
1, 313372, Control_c, 0, 64, 30
1, 313974, Control_c, 0, 64, 35
1, 313993, Control_c, 0, 64, 45
1, 314013, Control_c, 0, 64, 60
1, 314030, Control_c, 0, 64, 77
1, 314033, Note_on_c, 0, 69, 95
1, 314039, Note_on_c, 0, 57, 95
1, 314047, Note_on_c, 0, 65, 83
1, 314047, Note_on_c, 0, 60, 87
1, 314047, Control_c, 0, 64, 91
1, 314067, Control_c, 0, 64, 106
1, 314087, Control_c, 0, 64, 117
1, 314105, Control_c, 0, 64, 123
1, 314123, Control_c, 0, 64, 127
1, 314726, Control_c, 0, 64, 111
1, 314735, Note_on_c, 0, 33, 87
1, 314744, Control_c, 0, 64, 89
1, 314764, Control_c, 0, 64, 62
1, 314776, Note_on_c, 0, 33, 0
1, 314782, Control_c, 0, 64, 37
1, 314801, Control_c, 0, 64, 32
1, 314875, Control_c, 0, 64, 28
1, 315086, Note_on_c, 0, 31, 83
1, 315125, Note_on_c, 0, 31, 0
1, 315228, Note_on_c, 0, 29, 87
1, 315269, Note_on_c, 0, 29, 0
1, 315337, Note_on_c, 0, 69, 0
1, 315339, Note_on_c, 0, 57, 0
1, 315341, Note_on_c, 0, 60, 0
1, 315378, Note_on_c, 0, 65, 0
1, 315417, Note_on_c, 0, 36, 86
1, 315427, Note_on_c, 0, 55, 97
1, 315430, Note_on_c, 0, 64, 85
1, 315434, Note_on_c, 0, 60, 86
1, 315435, Note_on_c, 0, 67, 83
1, 315453, Note_on_c, 0, 36, 0
1, 315580, Control_c, 0, 64, 22
1, 315598, Control_c, 0, 64, 17
1, 315626, Control_c, 0, 64, 11
1, 315642, Control_c, 0, 64, 0
1, 315848, Control_c, 0, 64, 27
1, 315866, Control_c, 0, 64, 47
1, 315877, Note_on_c, 0, 55, 0
1, 315883, Control_c, 0, 64, 72
1, 315904, Control_c, 0, 64, 94
1, 315922, Control_c, 0, 64, 125
1, 315930, Note_on_c, 0, 67, 0
1, 315954, Note_on_c, 0, 60, 0
1, 315984, Note_on_c, 0, 64, 0
1, 316279, Note_on_c, 0, 70, 92
1, 316280, Note_on_c, 0, 58, 93
1, 316285, Note_on_c, 0, 65, 81
1, 316287, Note_on_c, 0, 62, 86
1, 316348, Control_c, 0, 64, 89
1, 316366, Control_c, 0, 64, 48
1, 316384, Control_c, 0, 64, 0
1, 317005, Note_on_c, 0, 38, 88
1, 317044, Note_on_c, 0, 38, 0
1, 317333, Note_on_c, 0, 36, 77
1, 317367, Note_on_c, 0, 36, 0
1, 317472, Note_on_c, 0, 34, 84
1, 317526, Note_on_c, 0, 34, 0
1, 317657, Note_on_c, 0, 46, 91
1, 317728, Note_on_c, 0, 46, 0
1, 318013, Control_c, 0, 64, 28
1, 318033, Control_c, 0, 64, 46
1, 318051, Control_c, 0, 64, 70
1, 318070, Control_c, 0, 64, 87
1, 318089, Control_c, 0, 64, 108
1, 318107, Control_c, 0, 64, 126
1, 318175, Note_on_c, 0, 65, 0
1, 318202, Note_on_c, 0, 58, 0
1, 318209, Note_on_c, 0, 62, 0
1, 318215, Note_on_c, 0, 70, 0
1, 318513, Note_on_c, 0, 70, 91
1, 318516, Note_on_c, 0, 58, 92
1, 318520, Note_on_c, 0, 67, 82
1, 318523, Note_on_c, 0, 62, 84
1, 318636, Control_c, 0, 64, 106
1, 318654, Control_c, 0, 64, 78
1, 318673, Control_c, 0, 64, 51
1, 318692, Control_c, 0, 64, 37
1, 318764, Control_c, 0, 64, 33
1, 319166, Note_on_c, 0, 34, 89
1, 319205, Note_on_c, 0, 34, 0
1, 319504, Note_on_c, 0, 33, 88
1, 319541, Note_on_c, 0, 33, 0
1, 319649, Note_on_c, 0, 31, 93
1, 319672, Note_on_c, 0, 62, 0
1, 319698, Note_on_c, 0, 31, 0
1, 319732, Note_on_c, 0, 58, 0
1, 319745, Note_on_c, 0, 70, 0
1, 319749, Note_on_c, 0, 67, 0
1, 319820, Note_on_c, 0, 38, 96
1, 319828, Note_on_c, 0, 57, 97
1, 319830, Note_on_c, 0, 69, 88
1, 319834, Note_on_c, 0, 65, 80
1, 319835, Note_on_c, 0, 62, 85
1, 319871, Note_on_c, 0, 38, 0
1, 319960, Control_c, 0, 64, 29
1, 319997, Control_c, 0, 64, 19
1, 320017, Control_c, 0, 64, 9
1, 320034, Control_c, 0, 64, 0
1, 320164, Control_c, 0, 64, 14
1, 320182, Control_c, 0, 64, 42
1, 320202, Control_c, 0, 64, 73
1, 320219, Control_c, 0, 64, 103
1, 320236, Control_c, 0, 64, 127
1, 320247, Note_on_c, 0, 65, 0
1, 320262, Note_on_c, 0, 62, 0
1, 320270, Note_on_c, 0, 57, 0
1, 320337, Note_on_c, 0, 69, 0
1, 320691, Note_on_c, 0, 72, 96
1, 320697, Note_on_c, 0, 63, 87
1, 320699, Note_on_c, 0, 60, 88
1, 320703, Note_on_c, 0, 67, 77
1, 320786, Control_c, 0, 64, 106
1, 320802, Control_c, 0, 64, 71
1, 320822, Control_c, 0, 64, 40
1, 320839, Control_c, 0, 64, 30
1, 320896, Control_c, 0, 64, 26
1, 321341, Note_on_c, 0, 39, 86
1, 321384, Note_on_c, 0, 39, 0
1, 321652, Note_on_c, 0, 38, 81
1, 321696, Note_on_c, 0, 38, 0
1, 321784, Note_on_c, 0, 36, 88
1, 321823, Note_on_c, 0, 36, 0
1, 321960, Control_c, 0, 64, 21
1, 321966, Note_on_c, 0, 48, 87
1, 321979, Control_c, 0, 64, 14
1, 322018, Control_c, 0, 64, 0
1, 322097, Note_on_c, 0, 48, 0
1, 322174, Control_c, 0, 64, 15
1, 322192, Control_c, 0, 64, 38
1, 322211, Control_c, 0, 64, 57
1, 322229, Control_c, 0, 64, 78
1, 322249, Control_c, 0, 64, 102
1, 322267, Control_c, 0, 64, 127
1, 322275, Note_on_c, 0, 67, 0
1, 322311, Note_on_c, 0, 63, 0
1, 322358, Note_on_c, 0, 60, 0
1, 322375, Note_on_c, 0, 72, 0
1, 322585, Note_on_c, 0, 72, 85
1, 322592, Note_on_c, 0, 67, 70
1, 322599, Control_c, 0, 64, 105
1, 322607, Note_on_c, 0, 63, 68
1, 322619, Control_c, 0, 64, 62
1, 322637, Control_c, 0, 64, 0
1, 322673, Control_c, 0, 64, 30
1, 322692, Control_c, 0, 64, 56
1, 322711, Control_c, 0, 64, 85
1, 322730, Control_c, 0, 64, 119
1, 322748, Control_c, 0, 64, 127
1, 322807, Note_on_c, 0, 63, 0
1, 322809, Note_on_c, 0, 72, 0
1, 322857, Note_on_c, 0, 67, 0
1, 322918, Note_on_c, 0, 70, 93
1, 322918, Note_on_c, 0, 67, 69
1, 322928, Note_on_c, 0, 62, 81
1, 322959, Note_on_c, 0, 62, 0
1, 322986, Note_on_c, 0, 67, 0
1, 323041, Note_on_c, 0, 70, 0
1, 323353, Note_on_c, 0, 75, 95
1, 323371, Note_on_c, 0, 67, 77
1, 323375, Note_on_c, 0, 69, 72
1, 323461, Control_c, 0, 64, 119
1, 323480, Control_c, 0, 64, 92
1, 323498, Control_c, 0, 64, 68
1, 323518, Control_c, 0, 64, 53
1, 323609, Control_c, 0, 64, 50
1, 323635, Note_on_c, 0, 27, 79
1, 323665, Control_c, 0, 64, 48
1, 323685, Note_on_c, 0, 27, 0
1, 323702, Control_c, 0, 64, 43
1, 323721, Control_c, 0, 64, 38
1, 323740, Control_c, 0, 64, 32
1, 323759, Control_c, 0, 64, 25
1, 323777, Control_c, 0, 64, 17
1, 323781, Note_on_c, 0, 26, 76
1, 323793, Control_c, 0, 64, 0
1, 323875, Note_on_c, 0, 26, 0
1, 323963, Note_on_c, 0, 38, 80
1, 324045, Control_c, 0, 64, 30
1, 324064, Control_c, 0, 64, 60
1, 324082, Control_c, 0, 64, 95
1, 324092, Note_on_c, 0, 67, 0
1, 324100, Control_c, 0, 64, 127
1, 324110, Note_on_c, 0, 69, 0
1, 324282, Note_on_c, 0, 74, 79
1, 324293, Note_on_c, 0, 69, 59
1, 324300, Note_on_c, 0, 65, 66
1, 324334, Note_on_c, 0, 75, 0
1, 324371, Note_on_c, 0, 69, 0
1, 324387, Note_on_c, 0, 74, 0
1, 324402, Note_on_c, 0, 65, 0
1, 324549, Note_on_c, 0, 38, 0
1, 324651, Note_on_c, 0, 72, 74
1, 324658, Note_on_c, 0, 67, 62
1, 324681, Note_on_c, 0, 63, 60
1, 324758, Note_on_c, 0, 67, 0
1, 324870, Note_on_c, 0, 63, 0
1, 324906, Note_on_c, 0, 72, 0
1, 324999, Note_on_c, 0, 65, 71
1, 325002, Note_on_c, 0, 70, 73
1, 325008, Note_on_c, 0, 62, 69
1, 325070, Note_on_c, 0, 65, 0
1, 325088, Note_on_c, 0, 70, 0
1, 325089, Note_on_c, 0, 62, 0
1, 325332, Control_c, 0, 67, 8
1, 325406, Control_c, 0, 67, 14
1, 325462, Control_c, 0, 67, 18
1, 325494, Note_on_c, 0, 67, 72
1, 325498, Control_c, 0, 67, 23
1, 325501, Note_on_c, 0, 58, 52
1, 325504, Note_on_c, 0, 64, 60
1, 325507, Note_on_c, 0, 61, 56
1, 325535, Control_c, 0, 67, 28
1, 325573, Control_c, 0, 67, 32
1, 325592, Control_c, 0, 64, 118
1, 325611, Control_c, 0, 64, 97
1, 325630, Control_c, 0, 64, 75
1, 325631, Control_c, 0, 67, 36
1, 325649, Control_c, 0, 64, 56
1, 325665, Control_c, 0, 64, 50
1, 325721, Control_c, 0, 64, 47
1, 325759, Control_c, 0, 64, 45
1, 325820, Note_on_c, 0, 28, 53
1, 325834, Control_c, 0, 64, 43
1, 325863, Note_on_c, 0, 28, 0
1, 325888, Control_c, 0, 64, 41
1, 325952, Control_c, 0, 64, 35
1, 325962, Note_on_c, 0, 26, 47
1, 325991, Control_c, 0, 64, 27
1, 326010, Control_c, 0, 64, 22
1, 326022, Note_on_c, 0, 26, 0
1, 326027, Control_c, 0, 64, 16
1, 326045, Control_c, 0, 64, 10
1, 326064, Control_c, 0, 64, 0
1, 326201, Note_on_c, 0, 38, 49
1, 326230, Control_c, 0, 64, 10
1, 326250, Control_c, 0, 64, 28
1, 326267, Control_c, 0, 64, 42
1, 326287, Control_c, 0, 64, 63
1, 326304, Control_c, 0, 64, 80
1, 326324, Control_c, 0, 64, 92
1, 326343, Control_c, 0, 64, 101
1, 326362, Control_c, 0, 64, 110
1, 326380, Control_c, 0, 64, 121
1, 326394, Note_on_c, 0, 58, 0
1, 326398, Control_c, 0, 64, 127
1, 326407, Note_on_c, 0, 38, 0
1, 326472, Control_c, 0, 67, 40
1, 326584, Control_c, 0, 64, 100
1, 326587, Note_on_c, 0, 69, 64
1, 326601, Control_c, 0, 64, 73
1, 326604, Note_on_c, 0, 57, 50
1, 326620, Control_c, 0, 64, 65
1, 326621, Control_c, 0, 67, 44
1, 326639, Control_c, 0, 64, 73
1, 326652, Note_on_c, 0, 64, 0
1, 326654, Control_c, 0, 64, 82
1, 326676, Control_c, 0, 64, 99
1, 326694, Control_c, 0, 64, 120
1, 326713, Control_c, 0, 64, 127
1, 326713, Control_c, 0, 67, 49
1, 326774, Note_on_c, 0, 61, 0
1, 326790, Note_on_c, 0, 57, 0
1, 326847, Note_on_c, 0, 69, 0
1, 326870, Control_c, 0, 67, 53
1, 326999, Control_c, 0, 67, 58
1, 327130, Control_c, 0, 67, 62
1, 327152, Note_on_c, 0, 69, 50
1, 327152, Note_on_c, 0, 62, 37
1, 327154, Note_on_c, 0, 57, 37
1, 327181, Note_on_c, 0, 66, 43
1, 327184, Control_c, 0, 67, 66
1, 327223, Control_c, 0, 64, 120
1, 327240, Control_c, 0, 64, 108
1, 327259, Control_c, 0, 64, 94
1, 327278, Control_c, 0, 64, 80
1, 327279, Control_c, 0, 67, 71
1, 327297, Control_c, 0, 64, 68
1, 327315, Control_c, 0, 64, 61
1, 327317, Note_on_c, 0, 67, 0
1, 327335, Control_c, 0, 64, 58
1, 327336, Control_c, 0, 67, 77
1, 327371, Control_c, 0, 64, 54
1, 327371, Control_c, 0, 67, 83
1, 327388, Control_c, 0, 64, 50
1, 327389, Control_c, 0, 67, 89
1, 327408, Control_c, 0, 67, 96
1, 327426, Control_c, 0, 67, 101
1, 327444, Control_c, 0, 67, 106
1, 327464, Control_c, 0, 67, 110
1, 327501, Control_c, 0, 67, 117
1, 327536, Control_c, 0, 67, 125
1, 327848, Note_on_c, 0, 30, 66
1, 327896, Note_on_c, 0, 30, 0
1, 328398, Control_c, 0, 64, 52
1, 328553, Note_on_c, 0, 28, 47
1, 328608, Note_on_c, 0, 28, 0
1, 328899, Note_on_c, 0, 26, 58
1, 328941, Note_on_c, 0, 26, 0
1, 329378, Note_on_c, 0, 38, 59
1, 329464, Note_on_c, 0, 38, 0
1, 329973, Control_c, 0, 64, 55
1, 330011, Control_c, 0, 64, 58
1, 330029, Control_c, 0, 64, 62
1, 330047, Control_c, 0, 64, 65
1, 330066, Control_c, 0, 64, 70
1, 330085, Control_c, 0, 64, 75
1, 330104, Control_c, 0, 64, 83
1, 330123, Control_c, 0, 64, 91
1, 330141, Control_c, 0, 64, 102
1, 330157, Control_c, 0, 64, 114
1, 330177, Control_c, 0, 64, 123
1, 330194, Control_c, 0, 64, 127
1, 330214, Control_c, 0, 67, 119
1, 330233, Control_c, 0, 67, 114
1, 330251, Control_c, 0, 67, 105
1, 330271, Control_c, 0, 67, 90
1, 330288, Control_c, 0, 67, 71
1, 330308, Control_c, 0, 67, 50
1, 330325, Control_c, 0, 67, 29
1, 330343, Control_c, 0, 67, 13
1, 330381, Control_c, 0, 67, 0
1, 330594, Control_c, 0, 67, 9
1, 330631, Control_c, 0, 67, 16
1, 330650, Control_c, 0, 67, 21
1, 330668, Control_c, 0, 67, 26
1, 330688, Control_c, 0, 67, 32
1, 330706, Control_c, 0, 67, 36
1, 330717, Note_on_c, 0, 69, 0
1, 330721, Control_c, 0, 67, 41
1, 330742, Control_c, 0, 67, 48
1, 330760, Control_c, 0, 67, 58
1, 330779, Control_c, 0, 67, 71
1, 330793, Note_on_c, 0, 57, 0
1, 330795, Note_on_c, 0, 62, 0
1, 330797, Control_c, 0, 67, 87
1, 330800, Note_on_c, 0, 66, 0
1, 330816, Control_c, 0, 67, 100
1, 330836, Control_c, 0, 67, 108
1, 330853, Control_c, 0, 67, 112
1, 330873, Control_c, 0, 67, 117
1, 330891, Control_c, 0, 67, 125
1, 331058, Control_c, 0, 64, 120
1, 331076, Control_c, 0, 64, 112
1, 331094, Control_c, 0, 64, 101
1, 331112, Control_c, 0, 64, 89
1, 331131, Control_c, 0, 64, 76
1, 331149, Control_c, 0, 64, 67
1, 331169, Control_c, 0, 64, 62
1, 331206, Control_c, 0, 64, 61
1, 331244, Control_c, 0, 64, 58
1, 331681, Note_on_c, 0, 59, 63
1, 331689, Note_on_c, 0, 55, 40
1, 331700, Note_on_c, 0, 50, 43
1, 331702, Note_on_c, 0, 47, 38
1, 331715, Control_c, 0, 64, 62
1, 331733, Control_c, 0, 64, 65
1, 331753, Control_c, 0, 64, 68
1, 331771, Control_c, 0, 64, 71
1, 331790, Control_c, 0, 64, 77
1, 331808, Control_c, 0, 64, 85
1, 331827, Control_c, 0, 64, 94
1, 331844, Control_c, 0, 64, 103
1, 331862, Control_c, 0, 64, 110
1, 331882, Control_c, 0, 64, 117
1, 331900, Control_c, 0, 64, 122
1, 331919, Control_c, 0, 64, 127
1, 332292, Note_on_c, 0, 35, 69
1, 332309, Control_c, 0, 64, 112
1, 332327, Control_c, 0, 64, 94
1, 332334, Note_on_c, 0, 35, 0
1, 332345, Control_c, 0, 64, 74
1, 332364, Control_c, 0, 64, 59
1, 332382, Control_c, 0, 64, 56
1, 332511, Note_on_c, 0, 50, 0
1, 332621, Note_on_c, 0, 47, 0
1, 332631, Note_on_c, 0, 33, 52
1, 332646, Note_on_c, 0, 55, 0
1, 332669, Note_on_c, 0, 33, 0
1, 332688, Control_c, 0, 64, 54
1, 332738, Note_on_c, 0, 31, 52
1, 332788, Note_on_c, 0, 31, 0
1, 332926, Note_on_c, 0, 57, 65
1, 332946, Note_on_c, 0, 50, 41
1, 332947, Note_on_c, 0, 54, 43
1, 332984, Control_c, 0, 64, 52
1, 333041, Control_c, 0, 64, 49
1, 333047, Note_on_c, 0, 59, 0
1, 333077, Control_c, 0, 64, 47
1, 333149, Control_c, 0, 64, 51
1, 333169, Control_c, 0, 64, 58
1, 333171, Control_c, 0, 67, 120
1, 333188, Control_c, 0, 64, 64
1, 333189, Control_c, 0, 67, 115
1, 333206, Control_c, 0, 64, 71
1, 333206, Control_c, 0, 67, 107
1, 333214, Note_on_c, 0, 54, 0
1, 333224, Control_c, 0, 64, 82
1, 333225, Control_c, 0, 67, 95
1, 333243, Control_c, 0, 64, 97
1, 333245, Control_c, 0, 67, 77
1, 333249, Note_on_c, 0, 38, 56
1, 333263, Control_c, 0, 64, 117
1, 333264, Control_c, 0, 67, 56
1, 333273, Note_on_c, 0, 50, 0
1, 333280, Control_c, 0, 64, 127
1, 333281, Control_c, 0, 67, 38
1, 333301, Control_c, 0, 67, 25
1, 333318, Control_c, 0, 67, 15
1, 333372, Control_c, 0, 67, 0
1, 333556, Note_on_c, 0, 38, 0
1, 333747, Note_on_c, 0, 60, 71
1, 333767, Note_on_c, 0, 55, 50
1, 333770, Note_on_c, 0, 52, 42
1, 333777, Note_on_c, 0, 48, 46
1, 333864, Control_c, 0, 67, 8
1, 333901, Control_c, 0, 64, 120
1, 333919, Control_c, 0, 64, 112
1, 333924, Note_on_c, 0, 57, 0
1, 333938, Control_c, 0, 64, 102
1, 333956, Control_c, 0, 64, 91
1, 333975, Control_c, 0, 64, 82
1, 333996, Control_c, 0, 64, 74
1, 333997, Control_c, 0, 67, 13
1, 334012, Control_c, 0, 64, 69
1, 334031, Control_c, 0, 64, 65
1, 334050, Control_c, 0, 64, 61
1, 334051, Control_c, 0, 67, 18
1, 334069, Control_c, 0, 64, 57
1, 334084, Control_c, 0, 64, 54
1, 334085, Control_c, 0, 67, 25
1, 334104, Control_c, 0, 64, 51
1, 334123, Control_c, 0, 67, 30
1, 334160, Control_c, 0, 67, 35
1, 334199, Control_c, 0, 64, 49
1, 334200, Control_c, 0, 67, 41
1, 334234, Control_c, 0, 67, 49
1, 334255, Control_c, 0, 67, 53
1, 334270, Control_c, 0, 67, 57
1, 334289, Control_c, 0, 67, 63
1, 334308, Control_c, 0, 67, 72
1, 334336, Control_c, 0, 67, 83
1, 334341, Note_on_c, 0, 64, 74
1, 334355, Control_c, 0, 67, 91
1, 334374, Control_c, 0, 64, 47
1, 334375, Control_c, 0, 67, 98
1, 334378, Note_on_c, 0, 64, 0
1, 334391, Control_c, 0, 67, 105
1, 334411, Control_c, 0, 67, 114
1, 334429, Control_c, 0, 67, 120
1, 334449, Control_c, 0, 67, 125
1, 334635, Note_on_c, 0, 55, 0
1, 334636, Note_on_c, 0, 62, 58
1, 334650, Note_on_c, 0, 60, 0
1, 334695, Note_on_c, 0, 62, 0
1, 334744, Note_on_c, 0, 60, 61
1, 334788, Note_on_c, 0, 60, 0
1, 334924, Note_on_c, 0, 56, 48
1, 335096, Control_c, 0, 64, 55
1, 335116, Control_c, 0, 64, 60
1, 335134, Control_c, 0, 64, 65
1, 335152, Control_c, 0, 64, 72
1, 335171, Control_c, 0, 64, 82
1, 335190, Control_c, 0, 64, 96
1, 335207, Control_c, 0, 64, 109
1, 335220, Note_on_c, 0, 72, 59
1, 335225, Control_c, 0, 64, 122
1, 335244, Control_c, 0, 64, 127
1, 335245, Control_c, 0, 67, 119
1, 335288, Note_on_c, 0, 72, 0
1, 335289, Control_c, 0, 67, 111
1, 335309, Control_c, 0, 67, 102
1, 335327, Control_c, 0, 67, 88
1, 335346, Control_c, 0, 67, 69
1, 335365, Control_c, 0, 67, 48
1, 335371, Note_on_c, 0, 48, 0
1, 335377, Note_on_c, 0, 56, 0
1, 335384, Control_c, 0, 67, 29
1, 335401, Control_c, 0, 67, 16
1, 335417, Note_on_c, 0, 52, 0
1, 335420, Control_c, 0, 67, 8
1, 335476, Control_c, 0, 67, 0
1, 335712, Note_on_c, 0, 60, 81
1, 335724, Note_on_c, 0, 57, 64
1, 335768, Note_on_c, 0, 48, 51
1, 335883, Control_c, 0, 64, 121
1, 335902, Control_c, 0, 64, 112
1, 335923, Control_c, 0, 64, 102
1, 335940, Control_c, 0, 64, 93
1, 335956, Control_c, 0, 64, 83
1, 335975, Control_c, 0, 64, 73
1, 335995, Control_c, 0, 64, 69
1, 336032, Control_c, 0, 64, 67
1, 336069, Control_c, 0, 64, 65
1, 336088, Control_c, 0, 64, 64
1, 336125, Control_c, 0, 64, 63
1, 336179, Control_c, 0, 64, 62
1, 336285, Note_on_c, 0, 36, 60
1, 336319, Control_c, 0, 64, 61
1, 336321, Note_on_c, 0, 36, 0
1, 336511, Note_on_c, 0, 57, 0
1, 336568, Poly_aftertouch_c, 0, 52, 0
1, 336586, Note_on_c, 0, 35, 71
1, 336595, Control_c, 0, 64, 60
1, 336596, Note_on_c, 0, 48, 0
1, 336671, Note_on_c, 0, 35, 0
1, 336690, Note_on_c, 0, 33, 74
1, 336723, Note_on_c, 0, 33, 0
1, 336853, Note_on_c, 0, 59, 78
1, 336877, Note_on_c, 0, 55, 47
1, 336877, Note_on_c, 0, 52, 46
1, 336930, Note_on_c, 0, 60, 0
1, 336967, Control_c, 0, 64, 57
1, 336985, Control_c, 0, 64, 50
1, 337006, Control_c, 0, 64, 39
1, 337024, Control_c, 0, 64, 27
1, 337042, Control_c, 0, 64, 12
1, 337061, Control_c, 0, 64, 0
1, 337149, Note_on_c, 0, 40, 72
1, 337162, Control_c, 0, 64, 29
1, 337180, Control_c, 0, 64, 45
1, 337195, Note_on_c, 0, 55, 0
1, 337198, Control_c, 0, 64, 67
1, 337203, Note_on_c, 0, 52, 0
1, 337218, Control_c, 0, 64, 88
1, 337236, Control_c, 0, 64, 111
1, 337256, Control_c, 0, 64, 127
1, 337459, Note_on_c, 0, 40, 0
1, 337640, Note_on_c, 0, 62, 80
1, 337662, Note_on_c, 0, 57, 62
1, 337666, Note_on_c, 0, 55, 43
1, 337674, Note_on_c, 0, 50, 57
1, 337774, Control_c, 0, 64, 115
1, 337792, Control_c, 0, 64, 104
1, 337794, Note_on_c, 0, 59, 0
1, 337812, Control_c, 0, 64, 91
1, 337828, Control_c, 0, 64, 79
1, 337846, Control_c, 0, 64, 69
1, 337866, Control_c, 0, 64, 63
1, 337884, Control_c, 0, 64, 59
1, 337903, Control_c, 0, 64, 54
1, 337921, Control_c, 0, 64, 48
1, 337941, Control_c, 0, 64, 45
1, 338014, Control_c, 0, 64, 43
1, 338015, Control_c, 0, 67, 8
1, 338135, Control_c, 0, 67, 13
1, 338172, Control_c, 0, 67, 19
1, 338208, Control_c, 0, 67, 26
1, 338226, Control_c, 0, 67, 30
1, 338265, Control_c, 0, 67, 38
1, 338273, Note_on_c, 0, 67, 76
1, 338283, Control_c, 0, 67, 42
1, 338301, Control_c, 0, 67, 46
1, 338320, Control_c, 0, 67, 50
1, 338324, Note_on_c, 0, 67, 0
1, 338339, Control_c, 0, 67, 54
1, 338412, Control_c, 0, 67, 59
1, 338527, Note_on_c, 0, 57, 0
1, 338547, Note_on_c, 0, 62, 0
1, 338549, Note_on_c, 0, 55, 0
1, 338573, Note_on_c, 0, 64, 66
1, 338650, Note_on_c, 0, 64, 0
1, 338685, Note_on_c, 0, 62, 68
1, 338735, Note_on_c, 0, 62, 0
1, 338765, Control_c, 0, 67, 64
1, 338782, Control_c, 0, 64, 40
1, 338820, Control_c, 0, 64, 35
1, 338837, Control_c, 0, 64, 30
1, 338856, Control_c, 0, 64, 26
1, 338859, Note_on_c, 0, 57, 63
1, 338875, Control_c, 0, 64, 22
1, 338878, Note_on_c, 0, 53, 49
1, 338969, Control_c, 0, 64, 26
1, 338985, Control_c, 0, 64, 42
1, 339014, Control_c, 0, 64, 59
1, 339033, Control_c, 0, 64, 75
1, 339052, Control_c, 0, 64, 89
1, 339071, Control_c, 0, 64, 107
1, 339087, Control_c, 0, 64, 126
1, 339150, Note_on_c, 0, 53, 0
1, 339156, Note_on_c, 0, 57, 0
1, 339200, Note_on_c, 0, 74, 61
1, 339236, Note_on_c, 0, 74, 0
1, 339345, Note_on_c, 0, 50, 0
1, 339385, Control_c, 0, 67, 60
1, 339506, Note_on_c, 0, 62, 77
1, 339527, Note_on_c, 0, 57, 54
1, 339541, Note_on_c, 0, 41, 52
1, 339550, Control_c, 0, 67, 54
1, 339589, Control_c, 0, 67, 49
1, 339607, Control_c, 0, 64, 86
1, 339609, Control_c, 0, 67, 44
1, 339627, Control_c, 0, 64, 47
1, 339629, Control_c, 0, 67, 37
1, 339643, Control_c, 0, 64, 32
1, 339644, Control_c, 0, 67, 29
1, 339663, Control_c, 0, 67, 18
1, 339680, Control_c, 0, 64, 47
1, 339700, Control_c, 0, 64, 66
1, 339700, Control_c, 0, 67, 0
1, 339718, Control_c, 0, 64, 85
1, 339729, Note_on_c, 0, 57, 0
1, 339735, Control_c, 0, 64, 106
1, 339755, Control_c, 0, 64, 127
1, 339817, Note_on_c, 0, 60, 86
1, 339830, Note_on_c, 0, 41, 0
1, 339831, Note_on_c, 0, 62, 0
1, 339832, Note_on_c, 0, 40, 62
1, 339834, Note_on_c, 0, 55, 66
1, 339886, Note_on_c, 0, 40, 0
1, 339889, Note_on_c, 0, 55, 0
1, 340322, Note_on_c, 0, 38, 46
1, 340338, Note_on_c, 0, 65, 80
1, 340344, Note_on_c, 0, 26, 44
1, 340345, Note_on_c, 0, 58, 52
1, 340376, Note_on_c, 0, 53, 54
1, 340415, Control_c, 0, 64, 122
1, 340432, Control_c, 0, 64, 95
1, 340441, Note_on_c, 0, 60, 0
1, 340450, Control_c, 0, 64, 61
1, 340468, Control_c, 0, 64, 12
1, 340472, Note_on_c, 0, 62, 27
1, 340480, Note_on_c, 0, 62, 0
1, 340486, Control_c, 0, 64, 0
1, 340562, Control_c, 0, 64, 10
1, 340578, Control_c, 0, 64, 39
1, 340597, Control_c, 0, 64, 66
1, 340616, Control_c, 0, 64, 89
1, 340635, Control_c, 0, 64, 110
1, 340647, Note_on_c, 0, 26, 0
1, 340652, Control_c, 0, 64, 124
1, 340770, Note_on_c, 0, 53, 0
1, 340798, Note_on_c, 0, 38, 0
1, 340803, Note_on_c, 0, 65, 0
1, 340821, Note_on_c, 0, 58, 0
1, 340941, Control_c, 0, 64, 94
1, 340958, Control_c, 0, 64, 63
1, 340977, Control_c, 0, 64, 57
1, 340990, Note_on_c, 0, 64, 69
1, 340993, Note_on_c, 0, 28, 51
1, 340996, Control_c, 0, 64, 65
1, 340999, Note_on_c, 0, 40, 47
1, 341009, Note_on_c, 0, 58, 34
1, 341015, Control_c, 0, 64, 75
1, 341015, Note_on_c, 0, 55, 54
1, 341035, Control_c, 0, 64, 92
1, 341053, Control_c, 0, 64, 117
1, 341071, Control_c, 0, 64, 127
1, 341148, Note_on_c, 0, 40, 0
1, 341166, Note_on_c, 0, 28, 0
1, 341172, Note_on_c, 0, 55, 0
1, 341199, Note_on_c, 0, 64, 0
1, 341218, Note_on_c, 0, 58, 0
1, 341238, Control_c, 0, 64, 122
1, 341256, Control_c, 0, 64, 85
1, 341275, Control_c, 0, 64, 53
1, 341303, Note_on_c, 0, 62, 77
1, 341312, Control_c, 0, 64, 63
1, 341315, Note_on_c, 0, 41, 52
1, 341319, Note_on_c, 0, 29, 49
1, 341328, Note_on_c, 0, 53, 53
1, 341329, Control_c, 0, 64, 78
1, 341346, Note_on_c, 0, 58, 48
1, 341347, Control_c, 0, 64, 101
1, 341367, Control_c, 0, 64, 127
1, 341482, Note_on_c, 0, 58, 0
1, 341488, Note_on_c, 0, 62, 0
1, 341496, Note_on_c, 0, 41, 0
1, 341499, Note_on_c, 0, 53, 0
1, 341515, Note_on_c, 0, 29, 0
1, 341626, Control_c, 0, 64, 120
1, 341638, Note_on_c, 0, 60, 72
1, 341644, Note_on_c, 0, 43, 56
1, 341644, Control_c, 0, 64, 87
1, 341648, Note_on_c, 0, 58, 48
1, 341659, Note_on_c, 0, 31, 45
1, 341663, Control_c, 0, 64, 47
1, 341679, Note_on_c, 0, 52, 42
1, 341681, Control_c, 0, 64, 0
1, 341700, Note_on_c, 0, 58, 0
1, 341718, Control_c, 0, 64, 26
1, 341736, Control_c, 0, 64, 48
1, 341755, Control_c, 0, 64, 74
1, 341774, Control_c, 0, 64, 95
1, 341793, Control_c, 0, 64, 118
1, 341809, Note_on_c, 0, 43, 0
1, 341820, Control_c, 0, 64, 127
1, 341823, Note_on_c, 0, 52, 0
1, 341872, Note_on_c, 0, 31, 0
1, 341932, Control_c, 0, 64, 122
1, 341952, Control_c, 0, 64, 90
1, 341969, Control_c, 0, 64, 49
1, 341983, Note_on_c, 0, 58, 72
1, 341987, Control_c, 0, 64, 0
1, 341999, Note_on_c, 0, 34, 54
1, 342006, Note_on_c, 0, 50, 51
1, 342013, Note_on_c, 0, 46, 50
1, 342014, Note_on_c, 0, 60, 0
1, 342019, Note_on_c, 0, 53, 48
1, 342025, Control_c, 0, 67, 8
1, 342081, Control_c, 0, 64, 10
1, 342101, Control_c, 0, 64, 45
1, 342118, Control_c, 0, 64, 76
1, 342119, Control_c, 0, 67, 12
1, 342128, Note_on_c, 0, 53, 0
1, 342133, Control_c, 0, 64, 101
1, 342155, Control_c, 0, 64, 126
1, 342198, Note_on_c, 0, 50, 0
1, 342198, Note_on_c, 0, 46, 0
1, 342221, Note_on_c, 0, 34, 0
1, 342394, Control_c, 0, 67, 16
1, 342523, Note_on_c, 0, 55, 65
1, 342542, Control_c, 0, 67, 20
1, 342549, Note_on_c, 0, 52, 43
1, 342560, Note_on_c, 0, 36, 38
1, 342566, Note_on_c, 0, 48, 36
1, 342599, Control_c, 0, 64, 118
1, 342619, Control_c, 0, 64, 101
1, 342628, Note_on_c, 0, 58, 0
1, 342636, Control_c, 0, 64, 78
1, 342654, Control_c, 0, 64, 51
1, 342656, Control_c, 0, 67, 24
1, 342672, Control_c, 0, 64, 22
1, 342691, Control_c, 0, 64, 10
1, 342710, Control_c, 0, 64, 0
1, 342747, Control_c, 0, 67, 29
1, 342887, Control_c, 0, 67, 33
1, 342904, Control_c, 0, 64, 28
1, 342923, Control_c, 0, 64, 46
1, 342944, Control_c, 0, 64, 67
1, 342961, Control_c, 0, 64, 79
1, 342980, Control_c, 0, 64, 90
1, 342983, Control_c, 0, 67, 38
1, 343000, Control_c, 0, 64, 98
1, 343015, Control_c, 0, 64, 108
1, 343034, Control_c, 0, 64, 114
1, 343071, Control_c, 0, 64, 120
1, 343090, Control_c, 0, 67, 44
1, 343127, Control_c, 0, 67, 48
1, 343165, Control_c, 0, 67, 52
1, 343219, Control_c, 0, 67, 59
1, 343238, Control_c, 0, 67, 65
1, 343256, Control_c, 0, 67, 70
1, 343294, Control_c, 0, 67, 74
1, 343330, Control_c, 0, 64, 114
1, 343336, Note_on_c, 0, 60, 55
1, 343350, Control_c, 0, 67, 78
1, 343362, Note_on_c, 0, 55, 0
1, 343368, Control_c, 0, 64, 105
1, 343386, Control_c, 0, 64, 92
1, 343386, Control_c, 0, 67, 88
1, 343404, Control_c, 0, 64, 70
1, 343406, Control_c, 0, 67, 95
1, 343424, Control_c, 0, 64, 37
1, 343425, Control_c, 0, 67, 101
1, 343442, Control_c, 0, 64, 0
1, 343443, Control_c, 0, 67, 106
1, 343460, Control_c, 0, 67, 110
1, 343497, Control_c, 0, 67, 116
1, 343516, Control_c, 0, 67, 120
1, 343535, Control_c, 0, 67, 124
1, 343549, Note_on_c, 0, 36, 0
1, 343555, Control_c, 0, 64, 25
1, 343568, Note_on_c, 0, 52, 0
1, 343570, Control_c, 0, 64, 53
1, 343589, Control_c, 0, 64, 82
1, 343608, Control_c, 0, 64, 104
1, 343625, Note_on_c, 0, 48, 0
1, 343625, Control_c, 0, 64, 127
1, 343641, Note_on_c, 0, 60, 0
1, 344130, Note_on_c, 0, 86, 54
1, 344156, Note_on_c, 0, 77, 38
1, 344277, Poly_aftertouch_c, 0, 81, 0
1, 344339, Note_on_c, 0, 77, 0
1, 344434, Control_c, 0, 67, 118
1, 344439, Note_on_c, 0, 86, 0
1, 344453, Note_on_c, 0, 84, 80
1, 344470, Control_c, 0, 67, 111
1, 344505, Control_c, 0, 67, 100
1, 344508, Note_on_c, 0, 76, 39
1, 344518, Note_on_c, 0, 79, 14
1, 344524, Control_c, 0, 67, 89
1, 344544, Control_c, 0, 67, 72
1, 344562, Control_c, 0, 67, 53
1, 344581, Control_c, 0, 67, 33
1, 344587, Note_on_c, 0, 79, 0
1, 344599, Control_c, 0, 67, 14
1, 344614, Note_on_c, 0, 84, 0
1, 344616, Control_c, 0, 67, 0
1, 344704, Note_on_c, 0, 76, 0
1, 344913, Note_on_c, 0, 89, 80
1, 344935, Note_on_c, 0, 82, 54
1, 344969, Note_on_c, 0, 77, 27
1, 344998, Note_on_c, 0, 74, 43
1, 345217, Poly_aftertouch_c, 0, 77, 24
1, 345287, Note_on_c, 0, 77, 0
1, 345287, Poly_aftertouch_c, 0, 77, 0
1, 345298, Note_on_c, 0, 62, 36
1, 345347, Note_on_c, 0, 74, 0
1, 345392, Note_on_c, 0, 89, 0
1, 345407, Note_on_c, 0, 82, 0
1, 345582, Note_on_c, 0, 62, 0
1, 345635, Note_on_c, 0, 88, 63
1, 345647, Note_on_c, 0, 64, 43
1, 345672, Note_on_c, 0, 79, 32
1, 345693, Note_on_c, 0, 82, 24
1, 345774, Note_on_c, 0, 82, 0
1, 345828, Note_on_c, 0, 79, 0
1, 345844, Note_on_c, 0, 64, 0
1, 345867, Note_on_c, 0, 88, 0
1, 345992, Note_on_c, 0, 86, 65
1, 346003, Note_on_c, 0, 65, 42
1, 346020, Note_on_c, 0, 77, 46
1, 346033, Note_on_c, 0, 82, 33
1, 346092, Note_on_c, 0, 82, 0
1, 346148, Note_on_c, 0, 77, 0
1, 346152, Note_on_c, 0, 86, 0
1, 346228, Note_on_c, 0, 65, 0
1, 346351, Note_on_c, 0, 60, 38
1, 346352, Note_on_c, 0, 84, 63
1, 346370, Note_on_c, 0, 82, 40
1, 346377, Control_c, 0, 64, 103
1, 346384, Note_on_c, 0, 67, 36
1, 346391, Note_on_c, 0, 76, 29
1, 346396, Control_c, 0, 64, 68
1, 346414, Control_c, 0, 64, 37
1, 346440, Note_on_c, 0, 82, 0
1, 346452, Control_c, 0, 64, 40
1, 346471, Control_c, 0, 64, 53
1, 346489, Control_c, 0, 64, 70
1, 346518, Control_c, 0, 64, 87
1, 346525, Note_on_c, 0, 67, 0
1, 346537, Control_c, 0, 64, 106
1, 346556, Control_c, 0, 64, 122
1, 346569, Note_on_c, 0, 76, 0
1, 346572, Control_c, 0, 64, 127
1, 346735, Note_on_c, 0, 82, 62
1, 346749, Note_on_c, 0, 77, 40
1, 346763, Note_on_c, 0, 74, 37
1, 346766, Note_on_c, 0, 70, 36
1, 346879, Note_on_c, 0, 84, 0
1, 346899, Note_on_c, 0, 77, 0
1, 346910, Note_on_c, 0, 74, 0
1, 346969, Note_on_c, 0, 70, 0
1, 347112, Control_c, 0, 67, 8
1, 347341, Note_on_c, 0, 79, 54
1, 347365, Note_on_c, 0, 76, 35
1, 347386, Note_on_c, 0, 72, 35
1, 347492, Control_c, 0, 67, 12
1, 347517, Note_on_c, 0, 82, 0
1, 347526, Control_c, 0, 64, 123
1, 347545, Control_c, 0, 64, 107
1, 347564, Control_c, 0, 64, 83
1, 347565, Control_c, 0, 67, 16
1, 347583, Control_c, 0, 64, 54
1, 347600, Control_c, 0, 64, 28
1, 347620, Control_c, 0, 64, 22
1, 347621, Control_c, 0, 67, 23
1, 347639, Control_c, 0, 67, 28
1, 347676, Control_c, 0, 64, 18
1, 347678, Control_c, 0, 67, 33
1, 347712, Control_c, 0, 64, 26
1, 347730, Control_c, 0, 64, 41
1, 347749, Control_c, 0, 64, 58
1, 347768, Control_c, 0, 64, 77
1, 347787, Control_c, 0, 64, 90
1, 347804, Control_c, 0, 64, 104
1, 347806, Control_c, 0, 67, 37
1, 347823, Control_c, 0, 64, 116
1, 347843, Control_c, 0, 64, 123
1, 347861, Control_c, 0, 64, 127
1, 347896, Control_c, 0, 67, 47
1, 347915, Control_c, 0, 67, 55
1, 347934, Control_c, 0, 67, 63
1, 347953, Control_c, 0, 67, 69
1, 347972, Control_c, 0, 67, 75
1, 347991, Control_c, 0, 67, 81
1, 348008, Control_c, 0, 67, 89
1, 348029, Control_c, 0, 67, 97
1, 348046, Control_c, 0, 67, 105
1, 348064, Control_c, 0, 67, 111
1, 348101, Control_c, 0, 67, 117
1, 348139, Control_c, 0, 67, 123
1, 348194, Control_c, 0, 67, 127
1, 348401, Note_on_c, 0, 84, 48
1, 348447, Note_on_c, 0, 70, 28
1, 348561, Note_on_c, 0, 76, 0
1, 348589, Note_on_c, 0, 72, 0
1, 348608, Note_on_c, 0, 79, 0
1, 348734, Note_on_c, 0, 70, 0
1, 348750, Note_on_c, 0, 84, 0
1, 348887, Note_on_c, 0, 60, 0
1, 350129, Note_on_c, 0, 69, 57
1, 350155, Note_on_c, 0, 65, 36
1, 350156, Note_on_c, 0, 41, 28
1, 350278, Control_c, 0, 64, 113
1, 350297, Control_c, 0, 64, 81
1, 350315, Control_c, 0, 64, 48
1, 350332, Control_c, 0, 64, 39
1, 350370, Control_c, 0, 64, 51
1, 350390, Control_c, 0, 64, 67
1, 350407, Control_c, 0, 64, 84
1, 350427, Control_c, 0, 64, 106
1, 350445, Control_c, 0, 64, 127
1, 350581, Note_on_c, 0, 41, 0
1, 350608, Note_on_c, 0, 48, 34
1, 351001, Note_on_c, 0, 60, 33
1, 351108, Note_on_c, 0, 48, 0
1, 351322, Note_on_c, 0, 48, 26
1, 351411, Note_on_c, 0, 60, 0
1, 351626, Note_on_c, 0, 60, 29
1, 351675, Note_on_c, 0, 48, 0
1, 351853, Note_on_c, 0, 60, 0
1, 351899, Note_on_c, 0, 48, 38
1, 351944, Note_on_c, 0, 65, 0
1, 352214, Note_on_c, 0, 41, 37
1, 352300, Note_on_c, 0, 67, 60
1, 352315, Note_on_c, 0, 65, 36
1, 352395, Poly_aftertouch_c, 0, 48, 20
1, 352408, Note_on_c, 0, 48, 0
1, 352408, Poly_aftertouch_c, 0, 48, 0
1, 352446, Control_c, 0, 64, 120
1, 352464, Control_c, 0, 64, 91
1, 352484, Control_c, 0, 64, 71
1, 352509, Note_on_c, 0, 69, 0
1, 352521, Control_c, 0, 64, 78
1, 352540, Control_c, 0, 64, 89
1, 352556, Control_c, 0, 64, 106
1, 352575, Control_c, 0, 64, 127
1, 352599, Note_on_c, 0, 41, 0
1, 352896, Note_on_c, 0, 59, 33
1, 353000, Poly_aftertouch_c, 0, 48, 0
1, 353210, Note_on_c, 0, 48, 37
1, 353215, Note_on_c, 0, 59, 0
1, 353437, Note_on_c, 0, 58, 39
1, 353447, Note_on_c, 0, 64, 42
1, 353453, Note_on_c, 0, 65, 0
1, 353534, Note_on_c, 0, 48, 0
1, 353709, Note_on_c, 0, 48, 35
1, 353750, Note_on_c, 0, 58, 0
1, 353853, Note_on_c, 0, 67, 0
1, 354106, Note_on_c, 0, 41, 34
1, 354281, Note_on_c, 0, 72, 65
1, 354337, Note_on_c, 0, 48, 0
1, 354338, Note_on_c, 0, 67, 14
1, 354345, Note_on_c, 0, 60, 23
1, 354465, Control_c, 0, 64, 111
1, 354483, Control_c, 0, 64, 81
1, 354502, Control_c, 0, 64, 50
1, 354521, Control_c, 0, 64, 33
1, 354542, Note_on_c, 0, 64, 0
1, 354577, Control_c, 0, 64, 39
1, 354597, Control_c, 0, 64, 53
1, 354613, Control_c, 0, 64, 71
1, 354623, Note_on_c, 0, 48, 38
1, 354631, Control_c, 0, 64, 90
1, 354651, Control_c, 0, 64, 112
1, 354668, Control_c, 0, 64, 127
1, 354730, Note_on_c, 0, 41, 0
1, 354996, Note_on_c, 0, 57, 36
1, 355066, Note_on_c, 0, 48, 0
1, 355321, Note_on_c, 0, 48, 35
1, 355360, Note_on_c, 0, 57, 0
1, 355623, Note_on_c, 0, 65, 36
1, 355627, Note_on_c, 0, 57, 33
1, 355735, Note_on_c, 0, 48, 0
1, 355914, Note_on_c, 0, 48, 32
1, 356004, Note_on_c, 0, 57, 0
1, 356053, Note_on_c, 0, 67, 0
1, 356280, Note_on_c, 0, 41, 41
1, 356317, Control_c, 0, 64, 113
1, 356336, Control_c, 0, 64, 80
1, 356355, Control_c, 0, 64, 47
1, 356373, Control_c, 0, 64, 33
1, 356401, Note_on_c, 0, 48, 0
1, 356429, Control_c, 0, 64, 48
1, 356448, Control_c, 0, 64, 64
1, 356466, Control_c, 0, 64, 82
1, 356484, Control_c, 0, 64, 105
1, 356503, Control_c, 0, 64, 127
1, 356636, Note_on_c, 0, 48, 37
1, 356664, Note_on_c, 0, 72, 0
1, 356737, Note_on_c, 0, 41, 0
1, 357003, Note_on_c, 0, 56, 28
1, 357073, Note_on_c, 0, 72, 45
1, 357151, Note_on_c, 0, 48, 0
1, 357262, Note_on_c, 0, 65, 0
1, 357371, Note_on_c, 0, 48, 22
1, 357376, Note_on_c, 0, 56, 0
1, 357659, Note_on_c, 0, 73, 52
1, 357691, Note_on_c, 0, 60, 0
1, 357695, Note_on_c, 0, 56, 25
1, 357701, Note_on_c, 0, 48, 0
1, 357767, Note_on_c, 0, 72, 0
1, 357893, Note_on_c, 0, 56, 0
1, 357938, Note_on_c, 0, 48, 34
1, 358059, Note_on_c, 0, 60, 36
1, 358115, Note_on_c, 0, 68, 42
1, 358404, Note_on_c, 0, 39, 32
1, 358625, Note_on_c, 0, 75, 53
1, 358683, Note_on_c, 0, 48, 0
1, 358698, Control_c, 0, 64, 116
1, 358718, Control_c, 0, 64, 84
1, 358734, Control_c, 0, 64, 47
1, 358754, Control_c, 0, 64, 17
1, 358755, Note_on_c, 0, 73, 0
1, 358809, Control_c, 0, 64, 27
1, 358829, Control_c, 0, 64, 43
1, 358847, Control_c, 0, 64, 60
1, 358866, Control_c, 0, 64, 82
1, 358885, Control_c, 0, 64, 103
1, 358903, Control_c, 0, 64, 124
1, 358996, Note_on_c, 0, 48, 33
1, 359001, Note_on_c, 0, 39, 0
1, 359230, Poly_aftertouch_c, 0, 60, 20
1, 359239, Note_on_c, 0, 60, 0
1, 359239, Poly_aftertouch_c, 0, 60, 0
1, 359297, Note_on_c, 0, 56, 40
1, 359415, Note_on_c, 0, 48, 0
1, 359442, Note_on_c, 0, 75, 0
1, 359495, Control_c, 0, 67, 122
1, 359532, Control_c, 0, 67, 115
1, 359552, Control_c, 0, 67, 109
1, 359569, Control_c, 0, 67, 99
1, 359589, Control_c, 0, 67, 88
1, 359616, Note_on_c, 0, 48, 34
1, 359616, Control_c, 0, 67, 73
1, 359634, Control_c, 0, 67, 56
1, 359654, Control_c, 0, 67, 39
1, 359670, Control_c, 0, 67, 23
1, 359678, Note_on_c, 0, 56, 0
1, 359687, Note_on_c, 0, 68, 0
1, 359689, Control_c, 0, 67, 8
1, 359707, Control_c, 0, 67, 0
1, 359864, Note_on_c, 0, 48, 0
1, 359883, Note_on_c, 0, 56, 33
1, 359999, Note_on_c, 0, 58, 40
1, 360023, Note_on_c, 0, 56, 0
1, 360079, Note_on_c, 0, 48, 41
1, 360102, Note_on_c, 0, 58, 0
1, 360140, Note_on_c, 0, 68, 65
1, 360377, Note_on_c, 0, 39, 42
1, 360566, Note_on_c, 0, 48, 0
1, 360615, Note_on_c, 0, 75, 66
1, 360756, Control_c, 0, 64, 112
1, 360774, Control_c, 0, 64, 79
1, 360791, Control_c, 0, 64, 48
1, 360809, Control_c, 0, 64, 41
1, 360829, Control_c, 0, 64, 43
1, 360848, Control_c, 0, 64, 51
1, 360866, Control_c, 0, 64, 64
1, 360881, Note_on_c, 0, 46, 47
1, 360884, Control_c, 0, 64, 76
1, 360903, Control_c, 0, 64, 96
1, 360920, Control_c, 0, 64, 123
1, 360938, Control_c, 0, 64, 127
1, 361206, Note_on_c, 0, 39, 0
1, 361209, Note_on_c, 0, 51, 50
1, 361404, Note_on_c, 0, 68, 0
1, 361491, Note_on_c, 0, 39, 44
1, 361784, Note_on_c, 0, 67, 61
1, 361798, Note_on_c, 0, 49, 48
1, 361860, Poly_aftertouch_c, 0, 69, 0
1, 361913, Note_on_c, 0, 39, 0
1, 361929, Note_on_c, 0, 51, 0
1, 361974, Note_on_c, 0, 46, 0
1, 362003, Note_on_c, 0, 75, 0
1, 362059, Note_on_c, 0, 39, 60
1, 362384, Note_on_c, 0, 48, 53
1, 362454, Note_on_c, 0, 70, 66
1, 362455, Note_on_c, 0, 75, 54
1, 362458, Note_on_c, 0, 63, 59
1, 362565, Note_on_c, 0, 49, 0
1, 362577, Note_on_c, 0, 39, 0
1, 362589, Control_c, 0, 64, 97
1, 362607, Control_c, 0, 64, 61
1, 362612, Note_on_c, 0, 67, 0
1, 362625, Control_c, 0, 64, 31
1, 362700, Control_c, 0, 64, 48
1, 362720, Control_c, 0, 64, 63
1, 362737, Control_c, 0, 64, 78
1, 362753, Note_on_c, 0, 39, 54
1, 362755, Control_c, 0, 64, 96
1, 362775, Control_c, 0, 64, 118
1, 362792, Control_c, 0, 64, 127
1, 362873, Note_on_c, 0, 48, 0
1, 363010, Note_on_c, 0, 48, 60
1, 363156, Note_on_c, 0, 39, 0
1, 363272, Note_on_c, 0, 39, 63
1, 363367, Note_on_c, 0, 48, 0
1, 363554, Note_on_c, 0, 48, 46
1, 363568, Note_on_c, 0, 68, 61
1, 363659, Note_on_c, 0, 39, 0
1, 363670, Poly_aftertouch_c, 0, 43, 0
1, 363727, Note_on_c, 0, 70, 0
1, 363826, Note_on_c, 0, 39, 57
1, 364177, Note_on_c, 0, 47, 58
1, 364319, Note_on_c, 0, 69, 70
1, 364377, Note_on_c, 0, 68, 0
1, 364423, Control_c, 0, 64, 103
1, 364443, Control_c, 0, 64, 70
1, 364445, Note_on_c, 0, 48, 0
1, 364453, Note_on_c, 0, 39, 0
1, 364461, Control_c, 0, 64, 31
1, 364479, Control_c, 0, 64, 0
1, 364535, Note_on_c, 0, 75, 0
1, 364552, Control_c, 0, 64, 30
1, 364571, Control_c, 0, 64, 51
1, 364590, Control_c, 0, 64, 73
1, 364600, Note_on_c, 0, 39, 51
1, 364608, Control_c, 0, 64, 92
1, 364627, Control_c, 0, 64, 115
1, 364646, Control_c, 0, 64, 127
1, 364656, Note_on_c, 0, 47, 0
1, 364874, Note_on_c, 0, 47, 46
1, 364897, Note_on_c, 0, 75, 68
1, 364945, Note_on_c, 0, 69, 0
1, 365030, Note_on_c, 0, 39, 0
1, 365160, Note_on_c, 0, 39, 64
1, 365273, Note_on_c, 0, 47, 0
1, 365436, Note_on_c, 0, 77, 80
1, 365442, Note_on_c, 0, 47, 58
1, 365470, Note_on_c, 0, 63, 0
1, 365562, Note_on_c, 0, 39, 0
1, 365608, Note_on_c, 0, 75, 0
1, 365654, Note_on_c, 0, 63, 45
1, 365678, Note_on_c, 0, 39, 52
1, 365729, Note_on_c, 0, 70, 51
1, 365731, Note_on_c, 0, 63, 0
1, 365752, Note_on_c, 0, 77, 0
1, 365839, Note_on_c, 0, 75, 50
1, 365880, Note_on_c, 0, 47, 0
1, 366069, Note_on_c, 0, 46, 49
1, 366263, Note_on_c, 0, 79, 78
1, 366349, Note_on_c, 0, 39, 0
1, 366462, Control_c, 0, 64, 105
1, 366480, Control_c, 0, 64, 74
1, 366498, Control_c, 0, 64, 42
1, 366517, Control_c, 0, 64, 23
1, 366534, Control_c, 0, 64, 16
1, 366543, Note_on_c, 0, 39, 47
1, 366552, Control_c, 0, 64, 0
1, 366616, Note_on_c, 0, 46, 0
1, 366627, Control_c, 0, 64, 26
1, 366646, Control_c, 0, 64, 46
1, 366665, Control_c, 0, 64, 63
1, 366684, Control_c, 0, 64, 80
1, 366702, Control_c, 0, 64, 99
1, 366718, Control_c, 0, 64, 121
1, 366738, Control_c, 0, 64, 127
1, 366796, Note_on_c, 0, 46, 45
1, 366940, Note_on_c, 0, 39, 0
1, 367054, Note_on_c, 0, 39, 52
1, 367138, Note_on_c, 0, 46, 0
1, 367330, Note_on_c, 0, 46, 50
1, 367346, Note_on_c, 0, 39, 0
1, 367362, Note_on_c, 0, 70, 0
1, 367446, Note_on_c, 0, 79, 0
1, 367530, Note_on_c, 0, 75, 0
1, 367544, Note_on_c, 0, 39, 55
1, 367616, Note_on_c, 0, 46, 0
1, 367820, Note_on_c, 0, 51, 50
1, 367898, Note_on_c, 0, 39, 0
1, 367929, Note_on_c, 0, 81, 81
1, 367953, Note_on_c, 0, 72, 55
1, 367956, Note_on_c, 0, 77, 61
1, 367958, Note_on_c, 0, 69, 58
1, 368109, Control_c, 0, 64, 99
1, 368128, Control_c, 0, 64, 65
1, 368146, Control_c, 0, 64, 34
1, 368165, Control_c, 0, 64, 29
1, 368204, Note_on_c, 0, 36, 56
1, 368220, Control_c, 0, 64, 43
1, 368238, Control_c, 0, 64, 58
1, 368257, Control_c, 0, 64, 77
1, 368278, Control_c, 0, 64, 97
1, 368294, Control_c, 0, 64, 121
1, 368313, Control_c, 0, 64, 127
1, 368337, Note_on_c, 0, 51, 0
1, 368505, Note_on_c, 0, 51, 60
1, 368599, Note_on_c, 0, 36, 0
1, 368762, Note_on_c, 0, 36, 56
1, 368848, Note_on_c, 0, 81, 0
1, 368887, Note_on_c, 0, 51, 0
1, 368894, Note_on_c, 0, 69, 0
1, 369042, Note_on_c, 0, 51, 62
1, 369049, Note_on_c, 0, 77, 0
1, 369084, Note_on_c, 0, 72, 0
1, 369179, Note_on_c, 0, 36, 0
1, 369281, Note_on_c, 0, 36, 64
1, 369404, Note_on_c, 0, 51, 0
1, 369578, Note_on_c, 0, 50, 66
1, 369656, Note_on_c, 0, 82, 89
1, 369668, Note_on_c, 0, 36, 0
1, 369672, Note_on_c, 0, 77, 71
1, 369674, Note_on_c, 0, 74, 70
1, 369676, Note_on_c, 0, 70, 70
1, 369769, Control_c, 0, 64, 111
1, 369787, Control_c, 0, 64, 76
1, 369804, Control_c, 0, 64, 42
1, 369823, Control_c, 0, 64, 32
1, 369860, Control_c, 0, 64, 38
1, 369872, Note_on_c, 0, 50, 0
1, 369879, Control_c, 0, 64, 53
1, 369908, Control_c, 0, 64, 67
1, 369926, Control_c, 0, 64, 83
1, 369945, Control_c, 0, 64, 105
1, 369961, Control_c, 0, 64, 127
1, 369966, Note_on_c, 0, 34, 75
1, 370105, Note_on_c, 0, 34, 0
1, 370230, Note_on_c, 0, 77, 0
1, 370241, Note_on_c, 0, 50, 73
1, 370289, Note_on_c, 0, 70, 0
1, 370389, Note_on_c, 0, 74, 0
1, 370403, Note_on_c, 0, 50, 0
1, 370479, Note_on_c, 0, 38, 27
1, 370490, Note_on_c, 0, 82, 0
1, 370494, Note_on_c, 0, 34, 76
1, 370532, Note_on_c, 0, 38, 0
1, 370698, Note_on_c, 0, 34, 0
1, 370739, Note_on_c, 0, 48, 82
1, 370802, Note_on_c, 0, 84, 86
1, 370808, Note_on_c, 0, 72, 96
1, 370809, Note_on_c, 0, 77, 81
1, 370811, Note_on_c, 0, 75, 81
1, 370899, Control_c, 0, 64, 121
1, 370915, Control_c, 0, 64, 83
1, 370935, Control_c, 0, 64, 41
1, 370954, Control_c, 0, 64, 0
1, 370997, Note_on_c, 0, 48, 0
1, 371027, Control_c, 0, 64, 34
1, 371046, Control_c, 0, 64, 57
1, 371062, Note_on_c, 0, 33, 83
1, 371065, Control_c, 0, 64, 84
1, 371084, Control_c, 0, 64, 108
1, 371101, Control_c, 0, 64, 127
1, 371137, Poly_aftertouch_c, 0, 36, 0
1, 371228, Note_on_c, 0, 84, 0
1, 371233, Note_on_c, 0, 33, 0
1, 371274, Note_on_c, 0, 72, 0
1, 371331, Note_on_c, 0, 48, 81
1, 371408, Note_on_c, 0, 77, 0
1, 371429, Note_on_c, 0, 75, 0
1, 371498, Note_on_c, 0, 48, 0
1, 371577, Note_on_c, 0, 33, 82
1, 371851, Note_on_c, 0, 46, 82
1, 371937, Note_on_c, 0, 86, 96
1, 371940, Note_on_c, 0, 74, 101
1, 371945, Note_on_c, 0, 82, 88
1, 371946, Note_on_c, 0, 77, 91
1, 371947, Note_on_c, 0, 33, 0
1, 372076, Control_c, 0, 64, 118
1, 372093, Control_c, 0, 64, 85
1, 372112, Control_c, 0, 64, 48
1, 372132, Control_c, 0, 64, 16
1, 372166, Control_c, 0, 64, 9
1, 372200, Note_on_c, 0, 32, 88
1, 372222, Control_c, 0, 64, 41
1, 372241, Control_c, 0, 64, 68
1, 372259, Control_c, 0, 64, 96
1, 372278, Control_c, 0, 64, 127
1, 372286, Note_on_c, 0, 46, 0
1, 372476, Note_on_c, 0, 74, 0
1, 372505, Note_on_c, 0, 86, 0
1, 372505, Note_on_c, 0, 46, 88
1, 372559, Note_on_c, 0, 32, 0
1, 372737, Note_on_c, 0, 32, 80
1, 372747, Note_on_c, 0, 77, 0
1, 372785, Note_on_c, 0, 46, 0
1, 372817, Note_on_c, 0, 32, 0
1, 372824, Note_on_c, 0, 82, 0
1, 372895, Note_on_c, 0, 31, 85
1, 372916, Control_c, 0, 64, 113
1, 372936, Control_c, 0, 64, 75
1, 372954, Control_c, 0, 64, 38
1, 372972, Control_c, 0, 64, 17
1, 372991, Control_c, 0, 64, 9
1, 373010, Control_c, 0, 64, 0
1, 373102, Control_c, 0, 64, 26
1, 373120, Control_c, 0, 64, 46
1, 373139, Control_c, 0, 64, 72
1, 373159, Control_c, 0, 64, 103
1, 373169, Note_on_c, 0, 87, 92
1, 373169, Note_on_c, 0, 75, 99
1, 373173, Note_on_c, 0, 46, 100
1, 373173, Note_on_c, 0, 82, 87
1, 373174, Note_on_c, 0, 31, 0
1, 373177, Control_c, 0, 64, 127
1, 373231, Note_on_c, 0, 46, 0
1, 373283, Poly_aftertouch_c, 0, 38, 0
1, 373543, Note_on_c, 0, 43, 81
1, 373590, Note_on_c, 0, 43, 0
1, 373608, Note_on_c, 0, 58, 85
1, 373620, Note_on_c, 0, 75, 0
1, 373649, Note_on_c, 0, 82, 0
1, 373651, Note_on_c, 0, 58, 0
1, 373693, Note_on_c, 0, 45, 76
1, 373702, Poly_aftertouch_c, 0, 44, 0
1, 373712, Note_on_c, 0, 77, 88
1, 373713, Note_on_c, 0, 75, 89
1, 373721, Note_on_c, 0, 84, 83
1, 373735, Note_on_c, 0, 45, 0
1, 373763, Note_on_c, 0, 60, 92
1, 373775, Note_on_c, 0, 47, 67
1, 373778, Control_c, 0, 64, 90
1, 373797, Control_c, 0, 64, 36
1, 373803, Note_on_c, 0, 47, 0
1, 373817, Control_c, 0, 64, 0
1, 373908, Control_c, 0, 64, 10
1, 373927, Control_c, 0, 64, 56
1, 373947, Control_c, 0, 64, 96
1, 373964, Control_c, 0, 64, 127
1, 374080, Note_on_c, 0, 77, 0
1, 374087, Note_on_c, 0, 60, 0
1, 374114, Note_on_c, 0, 87, 0
1, 374137, Note_on_c, 0, 84, 0
1, 374158, Note_on_c, 0, 75, 0
1, 374168, Note_on_c, 0, 46, 72
1, 374215, Note_on_c, 0, 53, 65
1, 374246, Note_on_c, 0, 46, 0
1, 374260, Control_c, 0, 64, 118
1, 374278, Control_c, 0, 64, 69
1, 374289, Note_on_c, 0, 86, 90
1, 374293, Note_on_c, 0, 77, 90
1, 374294, Note_on_c, 0, 74, 97
1, 374295, Note_on_c, 0, 82, 86
1, 374295, Note_on_c, 0, 62, 87
1, 374297, Control_c, 0, 64, 0
1, 374324, Note_on_c, 0, 50, 19
1, 374333, Note_on_c, 0, 60, 41
1, 374334, Note_on_c, 0, 60, 0
1, 374342, Note_on_c, 0, 50, 0
1, 374347, Note_on_c, 0, 62, 0
1, 374353, Control_c, 0, 64, 27
1, 374373, Control_c, 0, 64, 61
1, 374376, Note_on_c, 0, 53, 0
1, 374390, Control_c, 0, 64, 93
1, 374397, Note_on_c, 0, 86, 0
1, 374399, Note_on_c, 0, 74, 0
1, 374407, Control_c, 0, 64, 126
1, 374461, Note_on_c, 0, 77, 0
1, 374508, Note_on_c, 0, 82, 0
1, 374583, Control_c, 0, 64, 120
1, 374603, Control_c, 0, 64, 84
1, 374621, Control_c, 0, 64, 47
1, 374640, Control_c, 0, 64, 0
1, 374643, Note_on_c, 0, 31, 80
1, 374825, Control_c, 0, 64, 36
1, 374844, Control_c, 0, 64, 64
1, 374847, Note_on_c, 0, 79, 103
1, 374849, Note_on_c, 0, 91, 95
1, 374850, Note_on_c, 0, 82, 99
1, 374850, Note_on_c, 0, 87, 96
1, 374851, Note_on_c, 0, 46, 96
1, 374868, Note_on_c, 0, 31, 0
1, 374868, Control_c, 0, 64, 92
1, 374881, Control_c, 0, 64, 120
1, 374889, Note_on_c, 0, 79, 0
1, 374890, Note_on_c, 0, 91, 0
1, 374893, Note_on_c, 0, 38, 18
1, 374900, Control_c, 0, 64, 127
1, 374903, Note_on_c, 0, 46, 0
1, 374925, Note_on_c, 0, 87, 0
1, 374928, Note_on_c, 0, 82, 0
1, 374956, Poly_aftertouch_c, 0, 35, 0
1, 374958, Note_on_c, 0, 38, 0
1, 375183, Note_on_c, 0, 43, 73
1, 375257, Note_on_c, 0, 43, 0
1, 375266, Note_on_c, 0, 82, 71
1, 375269, Note_on_c, 0, 58, 90
1, 375272, Note_on_c, 0, 75, 91
1, 375276, Note_on_c, 0, 87, 86
1, 375320, Note_on_c, 0, 58, 0
1, 375321, Note_on_c, 0, 75, 0
1, 375332, Note_on_c, 0, 82, 0
1, 375344, Note_on_c, 0, 48, 17
1, 375352, Note_on_c, 0, 45, 80
1, 375375, Note_on_c, 0, 46, 66
1, 375379, Note_on_c, 0, 75, 79
1, 375379, Note_on_c, 0, 77, 89
1, 375388, Note_on_c, 0, 84, 81
1, 375411, Note_on_c, 0, 48, 0
1, 375411, Note_on_c, 0, 46, 0
1, 375438, Poly_aftertouch_c, 0, 51, 0
1, 375438, Control_c, 0, 64, 91
1, 375451, Poly_aftertouch_c, 0, 82, 0
1, 375454, Control_c, 0, 64, 39
1, 375455, Note_on_c, 0, 60, 79
1, 375459, Note_on_c, 0, 45, 0
1, 375473, Control_c, 0, 64, 0
1, 375479, Note_on_c, 0, 47, 37
1, 375525, Note_on_c, 0, 47, 0
1, 375557, Control_c, 0, 64, 25
1, 375576, Control_c, 0, 64, 57
1, 375594, Control_c, 0, 64, 94
1, 375612, Control_c, 0, 64, 127
1, 375722, Note_on_c, 0, 60, 0
1, 375740, Note_on_c, 0, 77, 0
1, 375777, Note_on_c, 0, 87, 0
1, 375784, Note_on_c, 0, 75, 0
1, 375794, Note_on_c, 0, 84, 0
1, 375803, Note_on_c, 0, 46, 71
1, 375868, Note_on_c, 0, 53, 64
1, 375884, Note_on_c, 0, 46, 0
1, 375908, Control_c, 0, 64, 82
1, 375927, Control_c, 0, 64, 0
1, 375937, Note_on_c, 0, 86, 90
1, 375942, Note_on_c, 0, 74, 96
1, 375946, Note_on_c, 0, 82, 86
1, 375946, Note_on_c, 0, 77, 89
1, 375949, Note_on_c, 0, 62, 89
1, 376002, Control_c, 0, 64, 26
1, 376016, Note_on_c, 0, 62, 0
1, 376021, Control_c, 0, 64, 69
1, 376031, Note_on_c, 0, 53, 0
1, 376039, Control_c, 0, 64, 111
1, 376058, Control_c, 0, 64, 127
1, 376093, Note_on_c, 0, 74, 0
1, 376109, Note_on_c, 0, 86, 0
1, 376177, Note_on_c, 0, 77, 0
1, 376239, Note_on_c, 0, 82, 0
1, 376315, Control_c, 0, 64, 94
1, 376321, Note_on_c, 0, 31, 86
1, 376336, Control_c, 0, 64, 52
1, 376354, Control_c, 0, 64, 0
1, 376604, Control_c, 0, 64, 38
1, 376623, Control_c, 0, 64, 70
1, 376624, Note_on_c, 0, 94, 99
1, 376625, Note_on_c, 0, 46, 96
1, 376625, Note_on_c, 0, 82, 105
1, 376629, Note_on_c, 0, 31, 0
1, 376629, Note_on_c, 0, 87, 98
1, 376630, Note_on_c, 0, 91, 92
1, 376645, Control_c, 0, 64, 101
1, 376658, Control_c, 0, 64, 127
1, 376678, Note_on_c, 0, 46, 0
1, 376692, Note_on_c, 0, 94, 0
1, 376694, Note_on_c, 0, 82, 0
1, 376714, Note_on_c, 0, 91, 0
1, 376720, Note_on_c, 0, 87, 0
1, 376751, Poly_aftertouch_c, 0, 38, 0
1, 376932, Poly_aftertouch_c, 0, 46, 0
1, 377037, Note_on_c, 0, 43, 69
1, 377110, Note_on_c, 0, 43, 0
1, 377142, Note_on_c, 0, 58, 88
1, 377166, Note_on_c, 0, 87, 97
1, 377170, Note_on_c, 0, 79, 96
1, 377178, Note_on_c, 0, 91, 74
1, 377198, Note_on_c, 0, 91, 0
1, 377199, Note_on_c, 0, 58, 0
1, 377201, Note_on_c, 0, 79, 0
1, 377202, Note_on_c, 0, 87, 0
1, 377204, Note_on_c, 0, 89, 48
1, 377205, Note_on_c, 0, 50, 16
1, 377219, Note_on_c, 0, 44, 81
1, 377237, Note_on_c, 0, 89, 0
1, 377252, Control_c, 0, 64, 86
1, 377266, Poly_aftertouch_c, 0, 47, 0
1, 377267, Note_on_c, 0, 50, 0
1, 377270, Control_c, 0, 64, 11
1, 377287, Note_on_c, 0, 44, 0
1, 377287, Control_c, 0, 64, 0
1, 377291, Note_on_c, 0, 77, 99
1, 377291, Note_on_c, 0, 59, 88
1, 377294, Note_on_c, 0, 89, 94
1, 377298, Note_on_c, 0, 86, 86
1, 377321, Note_on_c, 0, 88, 60
1, 377328, Control_c, 0, 64, 14
1, 377345, Control_c, 0, 64, 50
1, 377364, Control_c, 0, 64, 88
1, 377390, Control_c, 0, 64, 123
1, 377409, Control_c, 0, 64, 127
1, 377472, Note_on_c, 0, 89, 0
1, 377478, Note_on_c, 0, 88, 0
1, 377489, Note_on_c, 0, 77, 0
1, 377537, Note_on_c, 0, 59, 0
1, 377556, Note_on_c, 0, 45, 79
1, 377578, Control_c, 0, 64, 107
1, 377594, Control_c, 0, 64, 55
1, 377613, Control_c, 0, 64, 0
1, 377624, Note_on_c, 0, 45, 0
1, 377630, Note_on_c, 0, 87, 89
1, 377630, Note_on_c, 0, 75, 96
1, 377631, Control_c, 0, 64, 12
1, 377633, Note_on_c, 0, 84, 87
1, 377634, Note_on_c, 0, 86, 0
1, 377634, Note_on_c, 0, 86, 39
1, 377650, Control_c, 0, 64, 49
1, 377655, Note_on_c, 0, 60, 90
1, 377669, Control_c, 0, 64, 87
1, 377680, Note_on_c, 0, 86, 0
1, 377688, Control_c, 0, 64, 127
1, 377730, Note_on_c, 0, 84, 0
1, 377761, Note_on_c, 0, 87, 0
1, 377784, Note_on_c, 0, 75, 0
1, 377790, Note_on_c, 0, 60, 0
1, 377815, Note_on_c, 0, 46, 67
1, 377856, Control_c, 0, 64, 108
1, 377873, Control_c, 0, 64, 50
1, 377882, Note_on_c, 0, 46, 0
1, 377890, Control_c, 0, 64, 0
1, 377899, Note_on_c, 0, 86, 92
1, 377900, Note_on_c, 0, 82, 81
1, 377901, Note_on_c, 0, 74, 95
1, 377909, Control_c, 0, 64, 19
1, 377916, Note_on_c, 0, 62, 89
1, 377930, Control_c, 0, 64, 51
1, 377946, Control_c, 0, 64, 87
1, 377965, Control_c, 0, 64, 126
1, 378062, Note_on_c, 0, 62, 0
1, 378065, Note_on_c, 0, 82, 0
1, 378081, Note_on_c, 0, 74, 0
1, 378084, Note_on_c, 0, 86, 0
1, 378103, Note_on_c, 0, 48, 78
1, 378115, Control_c, 0, 64, 109
1, 378132, Control_c, 0, 64, 60
1, 378150, Control_c, 0, 64, 0
1, 378188, Control_c, 0, 64, 42
1, 378191, Note_on_c, 0, 84, 92
1, 378191, Note_on_c, 0, 72, 101
1, 378193, Note_on_c, 0, 48, 0
1, 378194, Note_on_c, 0, 82, 84
1, 378200, Note_on_c, 0, 63, 91
1, 378207, Control_c, 0, 64, 76
1, 378225, Control_c, 0, 64, 112
1, 378244, Control_c, 0, 64, 127
1, 378341, Note_on_c, 0, 82, 0
1, 378385, Note_on_c, 0, 84, 0
1, 378410, Note_on_c, 0, 63, 0
1, 378416, Note_on_c, 0, 72, 0
1, 378435, Note_on_c, 0, 50, 74
1, 378485, Poly_aftertouch_c, 0, 79, 0
1, 378512, Control_c, 0, 64, 118
1, 378530, Control_c, 0, 64, 63
1, 378532, Note_on_c, 0, 50, 0
1, 378548, Control_c, 0, 64, 0
1, 378551, Note_on_c, 0, 82, 92
1, 378552, Note_on_c, 0, 70, 104
1, 378562, Note_on_c, 0, 65, 83
1, 378587, Control_c, 0, 64, 36
1, 378604, Control_c, 0, 64, 79
1, 378624, Control_c, 0, 64, 123
1, 378643, Control_c, 0, 64, 127
1, 378690, Poly_aftertouch_c, 0, 81, 0
1, 378690, Poly_aftertouch_c, 0, 79, 0
1, 378752, Note_on_c, 0, 65, 0
1, 378777, Note_on_c, 0, 70, 0
1, 378800, Note_on_c, 0, 52, 74
1, 378808, Control_c, 0, 64, 93
1, 378827, Control_c, 0, 64, 36
1, 378835, Note_on_c, 0, 82, 0
1, 378846, Control_c, 0, 64, 0
1, 378849, Note_on_c, 0, 52, 0
1, 378860, Note_on_c, 0, 84, 92
1, 378866, Control_c, 0, 64, 29
1, 378866, Note_on_c, 0, 72, 103
1, 378866, Note_on_c, 0, 79, 92
1, 378881, Control_c, 0, 64, 59
1, 378885, Note_on_c, 0, 67, 93
1, 378900, Control_c, 0, 64, 94
1, 378919, Control_c, 0, 64, 127
1, 378998, Note_on_c, 0, 67, 0
1, 379003, Note_on_c, 0, 84, 0
1, 379018, Note_on_c, 0, 79, 0
1, 379038, Note_on_c, 0, 72, 0
1, 379335, Note_on_c, 0, 82, 93
1, 379337, Note_on_c, 0, 70, 102
1, 379342, Note_on_c, 0, 77, 92
1, 379343, Note_on_c, 0, 65, 98
1, 379347, Note_on_c, 0, 60, 83
1, 379349, Note_on_c, 0, 53, 80
1, 379394, Control_c, 0, 64, 96
1, 379411, Control_c, 0, 64, 45
1, 379430, Control_c, 0, 64, 0
1, 379559, Control_c, 0, 64, 23
1, 379578, Control_c, 0, 64, 55
1, 379587, Note_on_c, 0, 53, 0
1, 379596, Control_c, 0, 64, 87
1, 379607, Note_on_c, 0, 65, 0
1, 379614, Control_c, 0, 64, 114
1, 379632, Control_c, 0, 64, 127
1, 379719, Note_on_c, 0, 60, 0
1, 379934, Note_on_c, 0, 82, 0
1, 379992, Note_on_c, 0, 70, 0
1, 380159, Note_on_c, 0, 81, 89
1, 380162, Note_on_c, 0, 69, 91
1, 380270, Note_on_c, 0, 77, 0
1, 380718, Note_on_c, 0, 38, 91
1, 380728, Note_on_c, 0, 69, 0
1, 380735, Control_c, 0, 64, 82
1, 380753, Control_c, 0, 64, 36
1, 380791, Control_c, 0, 64, 47
1, 380797, Note_on_c, 0, 81, 0
1, 380811, Control_c, 0, 64, 69
1, 380828, Control_c, 0, 64, 96
1, 380845, Note_on_c, 0, 38, 0
1, 380846, Control_c, 0, 64, 127
1, 380896, Note_on_c, 0, 53, 91
1, 380909, Note_on_c, 0, 82, 89
1, 380910, Note_on_c, 0, 70, 96
1, 380913, Note_on_c, 0, 77, 84
1, 380943, Poly_aftertouch_c, 0, 45, 0
1, 380986, Note_on_c, 0, 70, 0
1, 380986, Poly_aftertouch_c, 0, 40, 0
1, 381004, Poly_aftertouch_c, 0, 43, 0
1, 381045, Note_on_c, 0, 77, 0
1, 381060, Note_on_c, 0, 53, 0
1, 381088, Note_on_c, 0, 40, 91
1, 381108, Control_c, 0, 64, 109
1, 381123, Note_on_c, 0, 42, 54
1, 381132, Control_c, 0, 64, 48
1, 381133, Note_on_c, 0, 82, 0
1, 381151, Control_c, 0, 64, 0
1, 381175, Note_on_c, 0, 86, 92
1, 381179, Note_on_c, 0, 42, 0
1, 381180, Note_on_c, 0, 74, 95
1, 381188, Control_c, 0, 64, 37
1, 381206, Note_on_c, 0, 40, 0
1, 381206, Note_on_c, 0, 48, 43
1, 381206, Control_c, 0, 64, 73
1, 381226, Control_c, 0, 64, 115
1, 381231, Note_on_c, 0, 55, 88
1, 381241, Note_on_c, 0, 41, 51
1, 381244, Control_c, 0, 64, 127
1, 381255, Note_on_c, 0, 48, 0
1, 381256, Note_on_c, 0, 86, 0
1, 381271, Note_on_c, 0, 74, 0
1, 381280, Note_on_c, 0, 41, 0
1, 381345, Note_on_c, 0, 84, 88
1, 381346, Note_on_c, 0, 72, 101
1, 381349, Note_on_c, 0, 79, 87
1, 381444, Note_on_c, 0, 55, 0
1, 381463, Note_on_c, 0, 84, 0
1, 381465, Note_on_c, 0, 79, 0
1, 381478, Note_on_c, 0, 72, 0
1, 381546, Note_on_c, 0, 41, 93
1, 381653, Control_c, 0, 64, 104
1, 381673, Control_c, 0, 64, 56
1, 381678, Poly_aftertouch_c, 0, 81, 0
1, 381689, Control_c, 0, 64, 0
1, 381691, Note_on_c, 0, 70, 92
1, 381691, Note_on_c, 0, 82, 86
1, 381697, Note_on_c, 0, 77, 83
1, 381819, Note_on_c, 0, 48, 80
1, 381838, Control_c, 0, 64, 8
1, 381857, Control_c, 0, 64, 35
1, 381866, Note_on_c, 0, 41, 0
1, 381874, Control_c, 0, 64, 69
1, 381894, Control_c, 0, 64, 101
1, 381911, Control_c, 0, 64, 127
1, 381938, Note_on_c, 0, 53, 82
1, 382128, Note_on_c, 0, 60, 80
1, 382357, Note_on_c, 0, 82, 0
1, 382515, Note_on_c, 0, 70, 0
1, 382943, Note_on_c, 0, 81, 68
1, 382949, Note_on_c, 0, 69, 53
1, 383042, Control_c, 0, 64, 123
1, 383060, Poly_aftertouch_c, 0, 80, 0
1, 383060, Control_c, 0, 64, 94
1, 383078, Control_c, 0, 64, 65
1, 383098, Control_c, 0, 64, 49
1, 383116, Control_c, 0, 64, 54
1, 383135, Control_c, 0, 64, 63
1, 383153, Control_c, 0, 64, 73
1, 383172, Control_c, 0, 64, 90
1, 383191, Control_c, 0, 64, 117
1, 383209, Control_c, 0, 64, 127
1, 383370, Note_on_c, 0, 77, 0
1, 383376, Control_c, 0, 67, 8
1, 383457, Note_on_c, 0, 48, 0
1, 383487, Note_on_c, 0, 69, 0
1, 383496, Note_on_c, 0, 60, 0
1, 383511, Note_on_c, 0, 53, 0
1, 383525, Control_c, 0, 67, 12
1, 383634, Control_c, 0, 67, 16
1, 383672, Control_c, 0, 67, 20
1, 383709, Control_c, 0, 67, 33
1, 383728, Control_c, 0, 67, 45
1, 383747, Control_c, 0, 67, 54
1, 383764, Control_c, 0, 67, 60
1, 383782, Control_c, 0, 67, 67
1, 383801, Control_c, 0, 67, 74
1, 383820, Control_c, 0, 67, 82
1, 383838, Control_c, 0, 67, 88
1, 383857, Control_c, 0, 67, 95
1, 383875, Control_c, 0, 67, 101
1, 383895, Control_c, 0, 67, 105
1, 383932, Control_c, 0, 67, 110
1, 383977, Control_c, 0, 67, 114
1, 384014, Control_c, 0, 67, 118
1, 384083, Note_on_c, 0, 69, 26
1, 384162, Control_c, 0, 67, 122
1, 384236, Note_on_c, 0, 77, 62
1, 384253, Note_on_c, 0, 72, 43
1, 384256, Control_c, 0, 64, 95
1, 384258, Control_c, 0, 67, 127
1, 384276, Control_c, 0, 64, 58
1, 384292, Control_c, 0, 64, 22
1, 384326, Note_on_c, 0, 69, 0
1, 384348, Control_c, 0, 64, 37
1, 384365, Control_c, 0, 64, 55
1, 384369, Note_on_c, 0, 81, 0
1, 384385, Control_c, 0, 64, 78
1, 384404, Control_c, 0, 64, 100
1, 384422, Control_c, 0, 64, 127
1, 384444, Note_on_c, 0, 53, 33
1, 384574, Note_on_c, 0, 53, 0
1, 384650, Note_on_c, 0, 69, 39
1, 384717, Note_on_c, 0, 69, 0
1, 384826, Note_on_c, 0, 53, 41
1, 384879, Note_on_c, 0, 53, 0
1, 384950, Control_c, 0, 67, 123
1, 384985, Control_c, 0, 67, 117
1, 384987, Note_on_c, 0, 69, 47
1, 385019, Note_on_c, 0, 69, 0
1, 385023, Control_c, 0, 67, 113
1, 385062, Control_c, 0, 67, 108
1, 385081, Control_c, 0, 67, 103
1, 385097, Control_c, 0, 67, 96
1, 385116, Control_c, 0, 67, 85
1, 385119, Note_on_c, 0, 53, 43
1, 385135, Control_c, 0, 67, 71
1, 385154, Control_c, 0, 67, 56
1, 385172, Control_c, 0, 67, 41
1, 385191, Control_c, 0, 67, 29
1, 385210, Control_c, 0, 67, 20
1, 385230, Control_c, 0, 67, 14
1, 385247, Control_c, 0, 67, 10
1, 385267, Note_on_c, 0, 68, 40
1, 385272, Note_on_c, 0, 53, 0
1, 385273, Poly_aftertouch_c, 0, 53, 0
1, 385309, Note_on_c, 0, 76, 68
1, 385320, Control_c, 0, 67, 0
1, 385342, Note_on_c, 0, 71, 38
1, 385386, Note_on_c, 0, 68, 0
1, 385432, Note_on_c, 0, 53, 45
1, 385439, Note_on_c, 0, 72, 0
1, 385548, Note_on_c, 0, 53, 0
1, 385569, Note_on_c, 0, 68, 56
1, 385573, Note_on_c, 0, 77, 0
1, 385648, Note_on_c, 0, 68, 0
1, 385687, Note_on_c, 0, 53, 67
1, 385813, Note_on_c, 0, 53, 0
1, 385817, Note_on_c, 0, 67, 64
1, 385819, Note_on_c, 0, 71, 0
1, 385839, Note_on_c, 0, 75, 80
1, 385849, Note_on_c, 0, 70, 59
1, 385888, Note_on_c, 0, 67, 0
1, 385899, Note_on_c, 0, 76, 0
1, 385944, Note_on_c, 0, 70, 0
1, 385949, Note_on_c, 0, 53, 63
1, 385957, Note_on_c, 0, 69, 58
1, 386049, Note_on_c, 0, 75, 0
1, 386151, Note_on_c, 0, 66, 49
1, 386223, Note_on_c, 0, 53, 0
1, 386237, Control_c, 0, 64, 97
1, 386256, Control_c, 0, 64, 62
1, 386263, Note_on_c, 0, 81, 71
1, 386275, Control_c, 0, 64, 38
1, 386311, Control_c, 0, 64, 45
1, 386331, Control_c, 0, 64, 57
1, 386351, Control_c, 0, 64, 72
1, 386369, Control_c, 0, 64, 90
1, 386379, Note_on_c, 0, 69, 0
1, 386384, Control_c, 0, 64, 118
1, 386402, Control_c, 0, 64, 127
1, 386412, Note_on_c, 0, 53, 47
1, 386506, Note_on_c, 0, 66, 0
1, 386605, Note_on_c, 0, 53, 0
1, 386617, Note_on_c, 0, 65, 49
1, 386618, Note_on_c, 0, 74, 64
1, 386635, Note_on_c, 0, 68, 49
1, 386643, Note_on_c, 0, 81, 0
1, 386713, Note_on_c, 0, 65, 0
1, 386718, Note_on_c, 0, 74, 0
1, 386735, Note_on_c, 0, 53, 60
1, 386779, Note_on_c, 0, 68, 0
1, 386852, Note_on_c, 0, 67, 56
1, 386880, Note_on_c, 0, 73, 64
1, 386886, Note_on_c, 0, 64, 56
1, 386892, Note_on_c, 0, 53, 0
1, 386908, Note_on_c, 0, 79, 81
1, 386971, Note_on_c, 0, 73, 0
1, 387021, Note_on_c, 0, 67, 0
1, 387025, Note_on_c, 0, 53, 62
1, 387092, Note_on_c, 0, 64, 0
1, 387140, Note_on_c, 0, 53, 0
1, 387146, Note_on_c, 0, 63, 66
1, 387164, Note_on_c, 0, 66, 71
1, 387168, Note_on_c, 0, 72, 69
1, 387208, Note_on_c, 0, 79, 0
1, 387263, Note_on_c, 0, 53, 74
1, 387265, Note_on_c, 0, 72, 0
1, 387300, Note_on_c, 0, 66, 0
1, 387309, Note_on_c, 0, 63, 0
1, 387373, Poly_aftertouch_c, 0, 75, 0
1, 387378, Note_on_c, 0, 65, 64
1, 387406, Note_on_c, 0, 71, 67
1, 387434, Control_c, 0, 64, 113
1, 387451, Note_on_c, 0, 62, 53
1, 387451, Control_c, 0, 64, 77
1, 387456, Note_on_c, 0, 53, 0
1, 387465, Note_on_c, 0, 77, 76
1, 387470, Control_c, 0, 64, 40
1, 387489, Control_c, 0, 64, 30
1, 387524, Control_c, 0, 64, 44
1, 387544, Control_c, 0, 64, 59
1, 387562, Control_c, 0, 64, 77
1, 387569, Note_on_c, 0, 71, 0
1, 387582, Control_c, 0, 64, 96
1, 387598, Control_c, 0, 64, 121
1, 387603, Note_on_c, 0, 53, 59
1, 387617, Note_on_c, 0, 65, 0
1, 387617, Control_c, 0, 64, 127
1, 387669, Note_on_c, 0, 62, 0
1, 387732, Note_on_c, 0, 61, 56
1, 387734, Note_on_c, 0, 70, 63
1, 387738, Note_on_c, 0, 64, 66
1, 387744, Note_on_c, 0, 53, 0
1, 387870, Note_on_c, 0, 64, 0
1, 387870, Note_on_c, 0, 61, 0
1, 387887, Note_on_c, 0, 53, 62
1, 387905, Note_on_c, 0, 70, 0
1, 388085, Note_on_c, 0, 60, 48
1, 388138, Note_on_c, 0, 53, 0
1, 388160, Note_on_c, 0, 63, 70
1, 388174, Note_on_c, 0, 75, 61
1, 388196, Note_on_c, 0, 69, 36
1, 388222, Control_c, 0, 64, 101
1, 388240, Control_c, 0, 64, 69
1, 388257, Control_c, 0, 64, 43
1, 388282, Note_on_c, 0, 77, 0
1, 388295, Control_c, 0, 64, 49
1, 388312, Control_c, 0, 64, 63
1, 388316, Note_on_c, 0, 53, 44
1, 388332, Control_c, 0, 64, 77
1, 388351, Control_c, 0, 64, 97
1, 388362, Note_on_c, 0, 60, 0
1, 388368, Control_c, 0, 64, 125
1, 388482, Note_on_c, 0, 60, 62
1, 388497, Note_on_c, 0, 53, 0
1, 388633, Note_on_c, 0, 53, 65
1, 388684, Note_on_c, 0, 60, 0
1, 388793, Note_on_c, 0, 61, 65
1, 388811, Note_on_c, 0, 64, 76
1, 388819, Note_on_c, 0, 53, 0
1, 388844, Note_on_c, 0, 63, 0
1, 388845, Note_on_c, 0, 69, 0
1, 388976, Note_on_c, 0, 53, 60
1, 389016, Note_on_c, 0, 61, 0
1, 389081, Control_c, 0, 67, 8
1, 389136, Control_c, 0, 67, 12
1, 389174, Control_c, 0, 67, 18
1, 389192, Control_c, 0, 67, 26
1, 389211, Control_c, 0, 67, 34
1, 389225, Note_on_c, 0, 62, 48
1, 389229, Control_c, 0, 67, 39
1, 389258, Note_on_c, 0, 65, 67
1, 389266, Control_c, 0, 67, 46
1, 389285, Note_on_c, 0, 69, 55
1, 389295, Note_on_c, 0, 53, 0
1, 389304, Control_c, 0, 67, 50
1, 389377, Control_c, 0, 64, 112
1, 389379, Note_on_c, 0, 75, 0
1, 389396, Control_c, 0, 64, 81
1, 389415, Control_c, 0, 64, 50
1, 389417, Control_c, 0, 67, 55
1, 389433, Control_c, 0, 64, 25
1, 389446, Note_on_c, 0, 64, 0
1, 389452, Control_c, 0, 64, 20
1, 389452, Control_c, 0, 67, 62
1, 389456, Note_on_c, 0, 53, 48
1, 389489, Control_c, 0, 67, 67
1, 389508, Control_c, 0, 64, 28
1, 389511, Note_on_c, 0, 62, 0
1, 389528, Control_c, 0, 64, 47
1, 389545, Control_c, 0, 64, 67
1, 389547, Control_c, 0, 67, 71
1, 389572, Control_c, 0, 64, 86
1, 389590, Control_c, 0, 64, 104
1, 389591, Control_c, 0, 67, 76
1, 389609, Control_c, 0, 64, 120
1, 389611, Control_c, 0, 67, 82
1, 389628, Control_c, 0, 64, 127
1, 389629, Control_c, 0, 67, 92
1, 389647, Control_c, 0, 67, 101
1, 389665, Control_c, 0, 67, 107
1, 389673, Note_on_c, 0, 53, 0
1, 389675, Note_on_c, 0, 62, 45
1, 389703, Control_c, 0, 67, 113
1, 389740, Control_c, 0, 67, 119
1, 389757, Control_c, 0, 67, 123
1, 389795, Control_c, 0, 67, 127
1, 389802, Note_on_c, 0, 53, 31
1, 389806, Note_on_c, 0, 62, 0
1, 390021, Note_on_c, 0, 60, 44
1, 390038, Note_on_c, 0, 53, 0
1, 390067, Note_on_c, 0, 63, 57
1, 390120, Note_on_c, 0, 65, 0
1, 390221, Note_on_c, 0, 53, 38
1, 390242, Note_on_c, 0, 63, 0
1, 390264, Note_on_c, 0, 60, 0
1, 390476, Note_on_c, 0, 53, 0
1, 390483, Note_on_c, 0, 57, 42
1, 390673, Note_on_c, 0, 65, 61
1, 390683, Note_on_c, 0, 60, 49
1, 390768, Control_c, 0, 64, 117
1, 390787, Control_c, 0, 64, 83
1, 390805, Control_c, 0, 64, 47
1, 390824, Control_c, 0, 64, 19
1, 390864, Note_on_c, 0, 69, 0
1, 390874, Note_on_c, 0, 57, 0
1, 390878, Control_c, 0, 64, 37
1, 390896, Control_c, 0, 64, 56
1, 390903, Note_on_c, 0, 41, 41
1, 390915, Control_c, 0, 64, 75
1, 390934, Control_c, 0, 64, 98
1, 390953, Control_c, 0, 64, 127
1, 391057, Note_on_c, 0, 41, 0
1, 391124, Note_on_c, 0, 57, 34
1, 391234, Note_on_c, 0, 57, 0
1, 391301, Note_on_c, 0, 41, 36
1, 391376, Note_on_c, 0, 41, 0
1, 391488, Note_on_c, 0, 57, 41
1, 391606, Note_on_c, 0, 57, 0
1, 391676, Note_on_c, 0, 41, 44
1, 391832, Control_c, 0, 67, 122
1, 391841, Note_on_c, 0, 41, 0
1, 391869, Control_c, 0, 67, 116
1, 391887, Control_c, 0, 67, 109
1, 391893, Note_on_c, 0, 56, 45
1, 391907, Note_on_c, 0, 64, 61
1, 391908, Control_c, 0, 67, 99
1, 391927, Control_c, 0, 67, 85
1, 391931, Note_on_c, 0, 59, 37
1, 391944, Control_c, 0, 67, 65
1, 391963, Control_c, 0, 67, 41
1, 391983, Control_c, 0, 67, 19
1, 392018, Control_c, 0, 67, 0
1, 392025, Note_on_c, 0, 56, 0
1, 392050, Note_on_c, 0, 60, 0
1, 392055, Note_on_c, 0, 41, 44
1, 392199, Note_on_c, 0, 41, 0
1, 392210, Note_on_c, 0, 56, 52
1, 392234, Note_on_c, 0, 65, 0
1, 392345, Note_on_c, 0, 56, 0
1, 392369, Note_on_c, 0, 41, 58
1, 392488, Note_on_c, 0, 59, 0
1, 392489, Note_on_c, 0, 41, 0
1, 392521, Note_on_c, 0, 55, 54
1, 392533, Note_on_c, 0, 63, 72
1, 392543, Note_on_c, 0, 58, 44
1, 392622, Note_on_c, 0, 64, 0
1, 392626, Note_on_c, 0, 55, 0
1, 392639, Note_on_c, 0, 58, 0
1, 392656, Note_on_c, 0, 41, 57
1, 392680, Note_on_c, 0, 57, 51
1, 392741, Note_on_c, 0, 63, 0
1, 392919, Note_on_c, 0, 54, 43
1, 392991, Control_c, 0, 64, 111
1, 393011, Control_c, 0, 64, 77
1, 393013, Note_on_c, 0, 41, 0
1, 393027, Control_c, 0, 64, 44
1, 393044, Note_on_c, 0, 69, 60
1, 393047, Control_c, 0, 64, 23
1, 393104, Control_c, 0, 64, 29
1, 393120, Control_c, 0, 64, 44
1, 393138, Control_c, 0, 64, 60
1, 393153, Note_on_c, 0, 57, 0
1, 393156, Control_c, 0, 64, 77
1, 393176, Control_c, 0, 64, 94
1, 393194, Control_c, 0, 64, 115
1, 393214, Control_c, 0, 64, 127
1, 393224, Note_on_c, 0, 41, 44
1, 393318, Note_on_c, 0, 54, 0
1, 393440, Note_on_c, 0, 62, 61
1, 393442, Note_on_c, 0, 53, 47
1, 393444, Note_on_c, 0, 56, 47
1, 393450, Note_on_c, 0, 41, 0
1, 393487, Note_on_c, 0, 69, 0
1, 393541, Note_on_c, 0, 62, 0
1, 393572, Note_on_c, 0, 41, 61
1, 393575, Note_on_c, 0, 53, 0
1, 393602, Note_on_c, 0, 56, 0
1, 393680, Note_on_c, 0, 55, 56
1, 393722, Note_on_c, 0, 61, 69
1, 393727, Note_on_c, 0, 41, 0
1, 393733, Note_on_c, 0, 52, 54
1, 393759, Control_c, 0, 64, 111
1, 393760, Note_on_c, 0, 67, 74
1, 393779, Control_c, 0, 64, 73
1, 393798, Control_c, 0, 64, 32
1, 393815, Control_c, 0, 64, 22
1, 393847, Note_on_c, 0, 61, 0
1, 393854, Control_c, 0, 64, 41
1, 393870, Control_c, 0, 64, 60
1, 393873, Note_on_c, 0, 41, 56
1, 393888, Control_c, 0, 64, 79
1, 393899, Note_on_c, 0, 55, 0
1, 393907, Control_c, 0, 64, 102
1, 393927, Control_c, 0, 64, 127
1, 394043, Note_on_c, 0, 51, 56
1, 394049, Note_on_c, 0, 41, 0
1, 394054, Control_c, 0, 64, 110
1, 394059, Note_on_c, 0, 54, 67
1, 394060, Note_on_c, 0, 60, 71
1, 394062, Note_on_c, 0, 52, 0
1, 394092, Control_c, 0, 64, 124
1, 394121, Note_on_c, 0, 67, 0
1, 394201, Note_on_c, 0, 41, 49
1, 394202, Note_on_c, 0, 60, 0
1, 394223, Control_c, 0, 67, 8
1, 394244, Note_on_c, 0, 54, 0
1, 394263, Note_on_c, 0, 51, 0
1, 394286, Control_c, 0, 67, 13
1, 394319, Note_on_c, 0, 53, 53
1, 394343, Control_c, 0, 67, 17
1, 394380, Note_on_c, 0, 59, 56
1, 394380, Control_c, 0, 64, 116
1, 394399, Control_c, 0, 64, 81
1, 394400, Control_c, 0, 67, 22
1, 394405, Note_on_c, 0, 41, 0
1, 394419, Control_c, 0, 64, 41
1, 394435, Note_on_c, 0, 50, 39
1, 394436, Control_c, 0, 64, 0
1, 394437, Note_on_c, 0, 65, 63
1, 394474, Control_c, 0, 64, 9
1, 394491, Control_c, 0, 64, 33
1, 394511, Control_c, 0, 64, 53
1, 394529, Control_c, 0, 64, 75
1, 394548, Control_c, 0, 64, 98
1, 394551, Note_on_c, 0, 59, 0
1, 394565, Control_c, 0, 64, 125
1, 394566, Control_c, 0, 67, 26
1, 394581, Note_on_c, 0, 41, 50
1, 394603, Note_on_c, 0, 53, 0
1, 394649, Note_on_c, 0, 50, 0
1, 394767, Control_c, 0, 64, 92
1, 394768, Note_on_c, 0, 58, 60
1, 394774, Note_on_c, 0, 49, 47
1, 394780, Note_on_c, 0, 52, 55
1, 394785, Note_on_c, 0, 41, 0
1, 394786, Control_c, 0, 64, 58
1, 394788, Control_c, 0, 67, 30
1, 394807, Control_c, 0, 64, 47
1, 394824, Control_c, 0, 64, 57
1, 394826, Control_c, 0, 67, 34
1, 394843, Control_c, 0, 64, 69
1, 394862, Control_c, 0, 64, 81
1, 394863, Control_c, 0, 67, 39
1, 394881, Control_c, 0, 64, 98
1, 394899, Control_c, 0, 64, 117
1, 394900, Control_c, 0, 67, 45
1, 394918, Control_c, 0, 64, 127
1, 394919, Control_c, 0, 67, 51
1, 394925, Note_on_c, 0, 49, 0
1, 394938, Control_c, 0, 67, 58
1, 394952, Note_on_c, 0, 41, 44
1, 394956, Control_c, 0, 67, 66
1, 394957, Note_on_c, 0, 52, 0
1, 394974, Control_c, 0, 67, 72
1, 394990, Control_c, 0, 67, 79
1, 395010, Control_c, 0, 67, 84
1, 395028, Control_c, 0, 67, 89
1, 395037, Note_on_c, 0, 58, 0
1, 395047, Control_c, 0, 67, 94
1, 395066, Control_c, 0, 67, 100
1, 395086, Control_c, 0, 67, 106
1, 395103, Control_c, 0, 67, 111
1, 395138, Control_c, 0, 67, 118
1, 395158, Control_c, 0, 67, 122
1, 395204, Control_c, 0, 67, 127
1, 395248, Note_on_c, 0, 48, 35
1, 395377, Note_on_c, 0, 51, 51
1, 395389, Note_on_c, 0, 63, 51
1, 395398, Note_on_c, 0, 57, 46
1, 395414, Note_on_c, 0, 41, 0
1, 395465, Control_c, 0, 64, 110
1, 395483, Control_c, 0, 64, 84
1, 395502, Control_c, 0, 64, 56
1, 395512, Note_on_c, 0, 65, 0
1, 395521, Control_c, 0, 64, 34
1, 395539, Control_c, 0, 64, 29
1, 395589, Note_on_c, 0, 41, 36
1, 395593, Control_c, 0, 64, 41
1, 395612, Control_c, 0, 64, 53
1, 395630, Control_c, 0, 64, 66
1, 395650, Control_c, 0, 64, 81
1, 395658, Note_on_c, 0, 48, 0
1, 395668, Control_c, 0, 64, 94
1, 395685, Control_c, 0, 64, 106
1, 395703, Control_c, 0, 64, 115
1, 395723, Control_c, 0, 64, 122
1, 395741, Control_c, 0, 64, 127
1, 395817, Note_on_c, 0, 48, 37
1, 395841, Note_on_c, 0, 41, 0
1, 395980, Note_on_c, 0, 41, 48
1, 396022, Note_on_c, 0, 48, 0
1, 396183, Note_on_c, 0, 52, 60
1, 396192, Note_on_c, 0, 49, 34
1, 396211, Note_on_c, 0, 41, 0
1, 396220, Note_on_c, 0, 51, 0
1, 396305, Note_on_c, 0, 57, 0
1, 396358, Note_on_c, 0, 49, 0
1, 396373, Note_on_c, 0, 41, 40
1, 396676, Note_on_c, 0, 50, 37
1, 396743, Note_on_c, 0, 53, 52
1, 396745, Note_on_c, 0, 41, 0
1, 396753, Note_on_c, 0, 57, 46
1, 396808, Control_c, 0, 64, 121
1, 396826, Control_c, 0, 64, 94
1, 396845, Control_c, 0, 64, 59
1, 396862, Control_c, 0, 64, 0
1, 396871, Note_on_c, 0, 63, 0
1, 396895, Note_on_c, 0, 52, 0
1, 396973, Control_c, 0, 64, 15
1, 396975, Note_on_c, 0, 41, 43
1, 396992, Control_c, 0, 64, 38
1, 397009, Control_c, 0, 64, 61
1, 397029, Control_c, 0, 64, 81
1, 397057, Control_c, 0, 64, 98
1, 397073, Note_on_c, 0, 50, 0
1, 397075, Control_c, 0, 64, 114
1, 397094, Control_c, 0, 64, 125
1, 397241, Note_on_c, 0, 50, 31
1, 397246, Note_on_c, 0, 41, 0
1, 397455, Note_on_c, 0, 41, 33
1, 397461, Note_on_c, 0, 50, 0
1, 397726, Note_on_c, 0, 48, 33
1, 397734, Note_on_c, 0, 51, 40
1, 397747, Note_on_c, 0, 41, 0
1, 397779, Control_c, 0, 64, 120
1, 397798, Control_c, 0, 64, 90
1, 397820, Control_c, 0, 64, 57
1, 397821, Note_on_c, 0, 53, 0
1, 397835, Control_c, 0, 64, 31
1, 397873, Control_c, 0, 64, 35
1, 397891, Control_c, 0, 64, 48
1, 397910, Control_c, 0, 64, 61
1, 397926, Control_c, 0, 64, 75
1, 397946, Control_c, 0, 64, 90
1, 397966, Control_c, 0, 64, 107
1, 397991, Note_on_c, 0, 41, 43
1, 397991, Control_c, 0, 64, 121
1, 398011, Control_c, 0, 64, 127
1, 398023, Note_on_c, 0, 48, 0
1, 398201, Note_on_c, 0, 41, 0
1, 398270, Note_on_c, 0, 48, 41
1, 398362, Control_c, 0, 64, 113
1, 398382, Control_c, 0, 64, 78
1, 398400, Control_c, 0, 64, 35
1, 398420, Control_c, 0, 64, 0
1, 398475, Control_c, 0, 64, 16
1, 398486, Note_on_c, 0, 42, 44
1, 398492, Control_c, 0, 64, 37
1, 398510, Control_c, 0, 64, 55
1, 398528, Control_c, 0, 64, 76
1, 398548, Control_c, 0, 64, 94
1, 398559, Note_on_c, 0, 48, 0
1, 398566, Control_c, 0, 64, 116
1, 398585, Control_c, 0, 64, 127
1, 398660, Control_c, 0, 67, 122
1, 398696, Control_c, 0, 67, 117
1, 398727, Note_on_c, 0, 48, 40
1, 398728, Note_on_c, 0, 57, 0
1, 398733, Control_c, 0, 67, 111
1, 398752, Control_c, 0, 67, 105
1, 398760, Note_on_c, 0, 42, 0
1, 398771, Control_c, 0, 67, 97
1, 398789, Control_c, 0, 67, 86
1, 398794, Note_on_c, 0, 51, 0
1, 398808, Control_c, 0, 67, 73
1, 398827, Control_c, 0, 67, 57
1, 398845, Control_c, 0, 67, 40
1, 398862, Control_c, 0, 67, 25
1, 398881, Control_c, 0, 67, 12
1, 398923, Note_on_c, 0, 42, 46
1, 398926, Control_c, 0, 67, 0
1, 398969, Note_on_c, 0, 48, 0
1, 399225, Control_c, 0, 64, 117
1, 399227, Note_on_c, 0, 49, 32
1, 399241, Note_on_c, 0, 64, 62
1, 399243, Control_c, 0, 64, 87
1, 399261, Control_c, 0, 64, 60
1, 399280, Control_c, 0, 64, 57
1, 399286, Note_on_c, 0, 52, 22
1, 399299, Control_c, 0, 64, 64
1, 399311, Note_on_c, 0, 42, 0
1, 399316, Control_c, 0, 64, 72
1, 399336, Control_c, 0, 64, 82
1, 399356, Control_c, 0, 64, 99
1, 399373, Control_c, 0, 64, 119
1, 399391, Control_c, 0, 64, 127
1, 399447, Note_on_c, 0, 42, 52
1, 399517, Note_on_c, 0, 49, 0
1, 399761, Note_on_c, 0, 51, 33
1, 399855, Note_on_c, 0, 58, 60
1, 399867, Note_on_c, 0, 54, 50
1, 399892, Note_on_c, 0, 42, 0
1, 399976, Control_c, 0, 64, 113
1, 399992, Control_c, 0, 64, 81
1, 400012, Control_c, 0, 64, 46
1, 400029, Control_c, 0, 64, 12
1, 400050, Note_on_c, 0, 52, 0
1, 400057, Note_on_c, 0, 64, 0
1, 400067, Control_c, 0, 64, 0
1, 400086, Note_on_c, 0, 42, 36
1, 400124, Control_c, 0, 64, 19
1, 400142, Control_c, 0, 64, 39
1, 400144, Note_on_c, 0, 51, 0
1, 400161, Control_c, 0, 64, 55
1, 400178, Control_c, 0, 64, 72
1, 400196, Control_c, 0, 64, 85
1, 400215, Control_c, 0, 64, 101
1, 400234, Control_c, 0, 64, 118
1, 400252, Control_c, 0, 64, 127
1, 400324, Note_on_c, 0, 51, 35
1, 400366, Note_on_c, 0, 42, 0
1, 400517, Note_on_c, 0, 42, 41
1, 400566, Note_on_c, 0, 51, 0
1, 400757, Note_on_c, 0, 52, 38
1, 400757, Note_on_c, 0, 49, 37
1, 400771, Control_c, 0, 64, 101
1, 400800, Control_c, 0, 64, 68
1, 400805, Note_on_c, 0, 42, 0
1, 400818, Control_c, 0, 64, 56
1, 400836, Control_c, 0, 64, 62
1, 400855, Control_c, 0, 64, 70
1, 400860, Note_on_c, 0, 54, 0
1, 400874, Control_c, 0, 64, 81
1, 400892, Control_c, 0, 64, 100
1, 400911, Control_c, 0, 64, 125
1, 400948, Note_on_c, 0, 42, 50
1, 400971, Note_on_c, 0, 49, 0
1, 401202, Note_on_c, 0, 49, 46
1, 401204, Note_on_c, 0, 42, 0
1, 401264, Control_c, 0, 64, 120
1, 401282, Control_c, 0, 64, 83
1, 401300, Control_c, 0, 64, 41
1, 401317, Control_c, 0, 64, 10
1, 401356, Control_c, 0, 64, 29
1, 401374, Control_c, 0, 64, 48
1, 401392, Control_c, 0, 64, 67
1, 401411, Control_c, 0, 64, 88
1, 401427, Note_on_c, 0, 43, 48
1, 401430, Control_c, 0, 64, 115
1, 401448, Control_c, 0, 64, 127
1, 401458, Note_on_c, 0, 49, 0
1, 401484, Note_on_c, 0, 52, 0
1, 401572, Note_on_c, 0, 58, 0
1, 401625, Note_on_c, 0, 49, 51
1, 401656, Note_on_c, 0, 43, 0
1, 401838, Note_on_c, 0, 43, 55
1, 401860, Note_on_c, 0, 49, 0
1, 402091, Note_on_c, 0, 50, 41
1, 402132, Note_on_c, 0, 65, 66
1, 402134, Note_on_c, 0, 53, 49
1, 402207, Note_on_c, 0, 43, 0
1, 402348, Note_on_c, 0, 43, 59
1, 402428, Note_on_c, 0, 50, 0
1, 402636, Note_on_c, 0, 52, 34
1, 402676, Note_on_c, 0, 59, 61
1, 402681, Note_on_c, 0, 55, 57
1, 402707, Control_c, 0, 64, 94
1, 402712, Note_on_c, 0, 53, 0
1, 402726, Control_c, 0, 64, 54
1, 402746, Control_c, 0, 64, 0
1, 402757, Note_on_c, 0, 43, 0
1, 402770, Note_on_c, 0, 65, 0
1, 402818, Control_c, 0, 64, 28
1, 402827, Poly_aftertouch_c, 0, 62, 0
1, 402837, Control_c, 0, 64, 53
1, 402855, Control_c, 0, 64, 78
1, 402875, Control_c, 0, 64, 103
1, 402893, Control_c, 0, 64, 127
1, 402905, Note_on_c, 0, 43, 57
1, 402984, Note_on_c, 0, 52, 0
1, 403112, Note_on_c, 0, 52, 56
1, 403159, Note_on_c, 0, 43, 0
1, 403162, Note_on_c, 0, 55, 0
1, 403171, Note_on_c, 0, 59, 0
1, 403304, Note_on_c, 0, 43, 66
1, 403349, Note_on_c, 0, 52, 0
1, 403525, Note_on_c, 0, 65, 81
1, 403534, Note_on_c, 0, 50, 51
1, 403548, Note_on_c, 0, 53, 61
1, 403578, Note_on_c, 0, 43, 0
1, 403713, Note_on_c, 0, 43, 63
1, 403747, Note_on_c, 0, 50, 0
1, 403957, Note_on_c, 0, 52, 60
1, 403968, Note_on_c, 0, 53, 0
1, 403976, Note_on_c, 0, 59, 75
1, 403978, Note_on_c, 0, 55, 72
1, 403995, Control_c, 0, 64, 107
1, 404014, Control_c, 0, 64, 69
1, 404029, Note_on_c, 0, 43, 0
1, 404032, Control_c, 0, 64, 27
1, 404051, Control_c, 0, 64, 12
1, 404071, Note_on_c, 0, 65, 0
1, 404089, Control_c, 0, 64, 35
1, 404106, Control_c, 0, 64, 57
1, 404124, Control_c, 0, 64, 78
1, 404134, Poly_aftertouch_c, 0, 62, 0
1, 404142, Control_c, 0, 64, 104
1, 404162, Control_c, 0, 64, 127
1, 404178, Note_on_c, 0, 43, 59
1, 404222, Note_on_c, 0, 52, 0
1, 404228, Note_on_c, 0, 55, 0
1, 404237, Note_on_c, 0, 59, 0
1, 404374, Note_on_c, 0, 52, 72
1, 404426, Note_on_c, 0, 43, 0
1, 404568, Note_on_c, 0, 43, 76
1, 404594, Note_on_c, 0, 52, 0
1, 404782, Note_on_c, 0, 69, 88
1, 404782, Note_on_c, 0, 53, 66
1, 404795, Note_on_c, 0, 57, 75
1, 404858, Note_on_c, 0, 43, 0
1, 404961, Note_on_c, 0, 43, 69
1, 404970, Note_on_c, 0, 53, 0
1, 405172, Note_on_c, 0, 57, 0
1, 405202, Note_on_c, 0, 55, 62
1, 405222, Note_on_c, 0, 59, 72
1, 405223, Note_on_c, 0, 62, 80
1, 405227, Control_c, 0, 64, 112
1, 405248, Control_c, 0, 64, 69
1, 405281, Control_c, 0, 64, 0
1, 405284, Note_on_c, 0, 43, 0
1, 405312, Note_on_c, 0, 69, 0
1, 405339, Control_c, 0, 64, 20
1, 405357, Control_c, 0, 64, 41
1, 405375, Control_c, 0, 64, 62
1, 405396, Control_c, 0, 64, 85
1, 405411, Control_c, 0, 64, 109
1, 405425, Note_on_c, 0, 43, 73
1, 405428, Control_c, 0, 64, 127
1, 405484, Note_on_c, 0, 55, 0
1, 405545, Note_on_c, 0, 59, 0
1, 405554, Note_on_c, 0, 62, 0
1, 405630, Note_on_c, 0, 55, 76
1, 405663, Note_on_c, 0, 43, 0
1, 405800, Note_on_c, 0, 43, 77
1, 405822, Note_on_c, 0, 55, 0
1, 406002, Note_on_c, 0, 57, 80
1, 406012, Note_on_c, 0, 43, 0
1, 406023, Note_on_c, 0, 72, 90
1, 406026, Note_on_c, 0, 60, 83
1, 406187, Note_on_c, 0, 43, 76
1, 406207, Note_on_c, 0, 57, 0
1, 406276, Note_on_c, 0, 43, 0
1, 406310, Note_on_c, 0, 60, 0
1, 406409, Note_on_c, 0, 59, 84
1, 406442, Note_on_c, 0, 62, 92
1, 406443, Note_on_c, 0, 65, 86
1, 406451, Control_c, 0, 64, 122
1, 406468, Control_c, 0, 64, 79
1, 406488, Control_c, 0, 64, 12
1, 406507, Control_c, 0, 64, 0
1, 406523, Note_on_c, 0, 72, 0
1, 406561, Control_c, 0, 64, 37
1, 406565, Note_on_c, 0, 59, 0
1, 406580, Control_c, 0, 64, 74
1, 406598, Control_c, 0, 64, 102
1, 406616, Control_c, 0, 64, 127
1, 406632, Note_on_c, 0, 43, 83
1, 406704, Note_on_c, 0, 62, 0
1, 406730, Note_on_c, 0, 65, 0
1, 406731, Note_on_c, 0, 43, 0
1, 406829, Note_on_c, 0, 59, 91
1, 406920, Note_on_c, 0, 59, 0
1, 406990, Note_on_c, 0, 43, 85
1, 407053, Note_on_c, 0, 43, 0
1, 407179, Note_on_c, 0, 76, 95
1, 407181, Note_on_c, 0, 64, 99
1, 407201, Note_on_c, 0, 62, 72
1, 407204, Note_on_c, 0, 60, 74
1, 407237, Note_on_c, 0, 62, 0
1, 407249, Note_on_c, 0, 60, 0
1, 407377, Note_on_c, 0, 43, 79
1, 407404, Note_on_c, 0, 43, 0
1, 407439, Note_on_c, 0, 45, 26
1, 407484, Note_on_c, 0, 64, 0
1, 407489, Note_on_c, 0, 45, 0
1, 407593, Note_on_c, 0, 62, 87
1, 407641, Note_on_c, 0, 65, 98
1, 407641, Note_on_c, 0, 69, 92
1, 407662, Control_c, 0, 64, 98
1, 407681, Control_c, 0, 64, 50
1, 407694, Note_on_c, 0, 76, 0
1, 407699, Control_c, 0, 64, 0
1, 407720, Note_on_c, 0, 62, 0
1, 407737, Control_c, 0, 64, 24
1, 407758, Control_c, 0, 64, 69
1, 407775, Control_c, 0, 64, 110
1, 407793, Control_c, 0, 64, 127
1, 407841, Note_on_c, 0, 43, 82
1, 407903, Note_on_c, 0, 43, 0
1, 407958, Note_on_c, 0, 65, 0
1, 407984, Note_on_c, 0, 69, 0
1, 408046, Note_on_c, 0, 62, 89
1, 408108, Note_on_c, 0, 62, 0
1, 408233, Note_on_c, 0, 43, 90
1, 408288, Note_on_c, 0, 43, 0
1, 408457, Note_on_c, 0, 62, 89
1, 408465, Note_on_c, 0, 65, 102
1, 408467, Note_on_c, 0, 77, 95
1, 408524, Note_on_c, 0, 62, 0
1, 408658, Note_on_c, 0, 43, 86
1, 408696, Note_on_c, 0, 43, 0
1, 408723, Note_on_c, 0, 65, 0
1, 408754, Note_on_c, 0, 77, 0
1, 408939, Note_on_c, 0, 62, 95
1, 408942, Note_on_c, 0, 55, 82
1, 408946, Note_on_c, 0, 77, 93
1, 408947, Note_on_c, 0, 65, 104
1, 408950, Note_on_c, 0, 53, 78
1, 408953, Note_on_c, 0, 71, 89
1, 409000, Note_on_c, 0, 62, 0
1, 409042, Note_on_c, 0, 55, 0
1, 409046, Note_on_c, 0, 53, 0
1, 409180, Note_on_c, 0, 43, 87
1, 409245, Note_on_c, 0, 43, 0
1, 409447, Note_on_c, 0, 62, 95
1, 409450, Note_on_c, 0, 55, 87
1, 409453, Note_on_c, 0, 53, 81
1, 409512, Note_on_c, 0, 62, 0
1, 409557, Note_on_c, 0, 53, 0
1, 409560, Note_on_c, 0, 55, 0
1, 409706, Note_on_c, 0, 43, 91
1, 409759, Note_on_c, 0, 43, 0
1, 409967, Note_on_c, 0, 62, 96
1, 409971, Note_on_c, 0, 55, 86
1, 409978, Note_on_c, 0, 53, 84
1, 410046, Note_on_c, 0, 62, 0
1, 410078, Note_on_c, 0, 55, 0
1, 410092, Note_on_c, 0, 53, 0
1, 410241, Note_on_c, 0, 43, 79
1, 410271, Note_on_c, 0, 43, 0
1, 410296, Note_on_c, 0, 41, 21
1, 410297, Note_on_c, 0, 41, 0
1, 410321, Note_on_c, 0, 65, 0
1, 410324, Note_on_c, 0, 71, 0
1, 410363, Note_on_c, 0, 77, 0
1, 410528, Control_c, 0, 64, 104
1, 410530, Note_on_c, 0, 64, 99
1, 410530, Note_on_c, 0, 55, 77
1, 410533, Note_on_c, 0, 60, 87
1, 410536, Note_on_c, 0, 79, 93
1, 410537, Note_on_c, 0, 67, 103
1, 410542, Note_on_c, 0, 52, 79
1, 410542, Note_on_c, 0, 70, 95
1, 410543, Note_on_c, 0, 76, 85
1, 410545, Control_c, 0, 64, 36
1, 410571, Control_c, 0, 64, 0
1, 410607, Note_on_c, 0, 64, 0
1, 410618, Control_c, 0, 64, 41
1, 410638, Control_c, 0, 64, 86
1, 410647, Note_on_c, 0, 60, 0
1, 410653, Control_c, 0, 64, 127
1, 410660, Note_on_c, 0, 55, 0
1, 410670, Note_on_c, 0, 52, 0
1, 410841, Note_on_c, 0, 48, 82
1, 410848, Note_on_c, 0, 36, 76
1, 410853, Note_on_c, 0, 47, 68
1, 410876, Note_on_c, 0, 48, 0
1, 410876, Note_on_c, 0, 36, 0
1, 410882, Note_on_c, 0, 47, 0
1, 411158, Note_on_c, 0, 64, 103
1, 411162, Note_on_c, 0, 60, 91
1, 411163, Note_on_c, 0, 55, 80
1, 411168, Note_on_c, 0, 52, 79
1, 411210, Note_on_c, 0, 64, 0
1, 411232, Note_on_c, 0, 60, 0
1, 411244, Note_on_c, 0, 55, 0
1, 411260, Note_on_c, 0, 52, 0
1, 411487, Note_on_c, 0, 48, 100
1, 411493, Note_on_c, 0, 36, 85
1, 411522, Note_on_c, 0, 43, 33
1, 411531, Note_on_c, 0, 36, 0
1, 411549, Note_on_c, 0, 48, 0
1, 411572, Note_on_c, 0, 43, 0
1, 411858, Note_on_c, 0, 64, 103
1, 411861, Note_on_c, 0, 60, 86
1, 411865, Note_on_c, 0, 52, 81
1, 411866, Note_on_c, 0, 55, 79
1, 411926, Note_on_c, 0, 64, 0
1, 411969, Note_on_c, 0, 60, 0
1, 411981, Note_on_c, 0, 55, 0
1, 411992, Note_on_c, 0, 52, 0
1, 412292, Note_on_c, 0, 48, 100
1, 412302, Note_on_c, 0, 36, 93
1, 412351, Note_on_c, 0, 48, 0
1, 412353, Note_on_c, 0, 36, 0
1, 412824, Note_on_c, 0, 41, 105
1, 412829, Note_on_c, 0, 29, 91
1, 412867, Note_on_c, 0, 67, 0
1, 412871, Note_on_c, 0, 36, 38
1, 412879, Control_c, 0, 64, 121
1, 412887, Note_on_c, 0, 79, 0
1, 412897, Control_c, 0, 64, 74
1, 412905, Note_on_c, 0, 70, 0
1, 412906, Note_on_c, 0, 76, 0
1, 412914, Note_on_c, 0, 36, 0
1, 412914, Control_c, 0, 64, 0
1, 413056, Control_c, 0, 64, 23
1, 413074, Control_c, 0, 64, 48
1, 413090, Control_c, 0, 64, 83
1, 413109, Control_c, 0, 64, 117
1, 413114, Note_on_c, 0, 29, 0
1, 413128, Control_c, 0, 64, 127
1, 413156, Note_on_c, 0, 41, 0
1, 413536, Note_on_c, 0, 81, 98
1, 413543, Note_on_c, 0, 65, 101
1, 413544, Note_on_c, 0, 60, 87
1, 413546, Note_on_c, 0, 72, 89
1, 413551, Note_on_c, 0, 69, 92
1, 413554, Note_on_c, 0, 53, 82
1, 413586, Note_on_c, 0, 53, 0
1, 413590, Note_on_c, 0, 65, 0
1, 413599, Note_on_c, 0, 60, 0
1, 413657, Note_on_c, 0, 69, 0
1, 413683, Note_on_c, 0, 72, 0
1, 414086, Note_on_c, 0, 79, 78
1, 414094, Note_on_c, 0, 81, 0
1, 414153, Note_on_c, 0, 77, 86
1, 414192, Note_on_c, 0, 79, 0
1, 414212, Note_on_c, 0, 77, 0
1, 414259, Note_on_c, 0, 46, 99
1, 414267, Note_on_c, 0, 34, 97
1, 414277, Note_on_c, 0, 79, 95
1, 414277, Note_on_c, 0, 77, 90
1, 414278, Note_on_c, 0, 74, 101
1, 414284, Note_on_c, 0, 86, 94
1, 414398, Control_c, 0, 64, 117
1, 414416, Control_c, 0, 64, 71
1, 414435, Control_c, 0, 64, 0
1, 414491, Control_c, 0, 64, 13
1, 414509, Control_c, 0, 64, 44
1, 414528, Control_c, 0, 64, 71
1, 414546, Control_c, 0, 64, 101
1, 414554, Note_on_c, 0, 46, 0
1, 414566, Control_c, 0, 64, 127
1, 414588, Note_on_c, 0, 34, 0
1, 414677, Note_on_c, 0, 45, 84
1, 414698, Note_on_c, 0, 33, 67
1, 414711, Note_on_c, 0, 45, 0
1, 414727, Note_on_c, 0, 33, 0
1, 414767, Note_on_c, 0, 43, 99
1, 414780, Note_on_c, 0, 31, 83
1, 414816, Note_on_c, 0, 31, 0
1, 414818, Note_on_c, 0, 43, 0
1, 414867, Note_on_c, 0, 74, 0
1, 414875, Note_on_c, 0, 86, 0
1, 414916, Note_on_c, 0, 55, 102
1, 414918, Note_on_c, 0, 77, 0
1, 414919, Note_on_c, 0, 33, 13
1, 414922, Note_on_c, 0, 43, 93
1, 414926, Note_on_c, 0, 53, 75
1, 414929, Note_on_c, 0, 79, 0
1, 414935, Note_on_c, 0, 33, 0
1, 415075, Control_c, 0, 64, 108
1, 415093, Control_c, 0, 64, 74
1, 415095, Note_on_c, 0, 53, 0
1, 415111, Control_c, 0, 64, 34
1, 415132, Control_c, 0, 64, 0
1, 415259, Control_c, 0, 64, 36
1, 415276, Note_on_c, 0, 74, 102
1, 415277, Note_on_c, 0, 76, 95
1, 415277, Note_on_c, 0, 82, 91
1, 415278, Note_on_c, 0, 86, 95
1, 415279, Control_c, 0, 64, 65
1, 415282, Note_on_c, 0, 79, 84
1, 415298, Control_c, 0, 64, 98
1, 415315, Control_c, 0, 64, 127
1, 415325, Note_on_c, 0, 43, 0
1, 415338, Note_on_c, 0, 55, 0
1, 415426, Note_on_c, 0, 86, 0
1, 415476, Note_on_c, 0, 74, 0
1, 415533, Note_on_c, 0, 82, 0
1, 415560, Note_on_c, 0, 76, 0
1, 415566, Note_on_c, 0, 52, 100
1, 415574, Note_on_c, 0, 40, 91
1, 415587, Note_on_c, 0, 79, 0
1, 415649, Control_c, 0, 64, 94
1, 415668, Control_c, 0, 64, 51
1, 415687, Control_c, 0, 64, 0
1, 415769, Control_c, 0, 64, 20
1, 415787, Control_c, 0, 64, 51
1, 415806, Control_c, 0, 64, 83
1, 415810, Note_on_c, 0, 40, 0
1, 415810, Note_on_c, 0, 52, 0
1, 415824, Control_c, 0, 64, 116
1, 415829, Note_on_c, 0, 86, 94
1, 415829, Note_on_c, 0, 82, 86
1, 415829, Note_on_c, 0, 76, 89
1, 415831, Note_on_c, 0, 74, 94
1, 415839, Note_on_c, 0, 79, 70
1, 415843, Control_c, 0, 64, 127
1, 415901, Note_on_c, 0, 50, 90
1, 415919, Note_on_c, 0, 38, 76
1, 415930, Note_on_c, 0, 50, 0
1, 415949, Note_on_c, 0, 86, 0
1, 415955, Note_on_c, 0, 38, 0
1, 415956, Note_on_c, 0, 74, 0
1, 415974, Note_on_c, 0, 76, 0
1, 415983, Note_on_c, 0, 79, 0
1, 416008, Note_on_c, 0, 48, 92
1, 416027, Note_on_c, 0, 82, 0
1, 416028, Note_on_c, 0, 36, 74
1, 416064, Note_on_c, 0, 48, 0
1, 416068, Note_on_c, 0, 36, 0
1, 416188, Note_on_c, 0, 84, 92
1, 416191, Note_on_c, 0, 72, 102
1, 416195, Note_on_c, 0, 76, 93
1, 416196, Note_on_c, 0, 79, 87
1, 416199, Note_on_c, 0, 60, 102
1, 416203, Note_on_c, 0, 48, 90
1, 416217, Control_c, 0, 64, 95
1, 416233, Control_c, 0, 64, 43
1, 416251, Control_c, 0, 64, 0
1, 416323, Control_c, 0, 64, 13
1, 416332, Note_on_c, 0, 84, 0
1, 416343, Control_c, 0, 64, 54
1, 416351, Note_on_c, 0, 72, 0
1, 416362, Control_c, 0, 64, 91
1, 416380, Control_c, 0, 64, 127
1, 416403, Note_on_c, 0, 79, 0
1, 416412, Note_on_c, 0, 76, 0
1, 416557, Note_on_c, 0, 82, 91
1, 416558, Note_on_c, 0, 70, 105
1, 416564, Note_on_c, 0, 79, 82
1, 416565, Note_on_c, 0, 76, 86
1, 416587, Note_on_c, 0, 60, 0
1, 416627, Note_on_c, 0, 48, 0
1, 416688, Note_on_c, 0, 82, 0
1, 416800, Note_on_c, 0, 70, 0
1, 416819, Note_on_c, 0, 79, 0
1, 416825, Note_on_c, 0, 76, 0
1, 416943, Note_on_c, 0, 53, 103
1, 416947, Note_on_c, 0, 41, 94
1, 416983, Control_c, 0, 64, 108
1, 417001, Control_c, 0, 64, 59
1, 417018, Control_c, 0, 64, 0
1, 417094, Control_c, 0, 64, 20
1, 417111, Control_c, 0, 64, 55
1, 417131, Note_on_c, 0, 41, 0
1, 417131, Control_c, 0, 64, 94
1, 417149, Control_c, 0, 64, 127
1, 417179, Note_on_c, 0, 53, 0
1, 417403, Note_on_c, 0, 51, 86
1, 417433, Note_on_c, 0, 39, 58
1, 417434, Note_on_c, 0, 39, 0
1, 417435, Note_on_c, 0, 51, 0
1, 417469, Poly_aftertouch_c, 0, 39, 0
1, 417498, Note_on_c, 0, 49, 90
1, 417516, Note_on_c, 0, 37, 80
1, 417530, Note_on_c, 0, 49, 0
1, 417544, Note_on_c, 0, 37, 0
1, 417602, Note_on_c, 0, 68, 101
1, 417603, Note_on_c, 0, 80, 95
1, 417608, Note_on_c, 0, 73, 93
1, 417610, Note_on_c, 0, 77, 86
1, 417611, Control_c, 0, 64, 114
1, 417642, Control_c, 0, 64, 63
1, 417648, Note_on_c, 0, 61, 106
1, 417649, Note_on_c, 0, 49, 83
1, 417659, Control_c, 0, 64, 0
1, 417753, Control_c, 0, 64, 50
1, 417769, Control_c, 0, 64, 89
1, 417784, Poly_aftertouch_c, 0, 48, 0
1, 417786, Control_c, 0, 64, 127
1, 417801, Note_on_c, 0, 61, 0
1, 417831, Note_on_c, 0, 80, 0
1, 417847, Note_on_c, 0, 49, 0
1, 417857, Note_on_c, 0, 68, 0
1, 417876, Note_on_c, 0, 77, 0
1, 417904, Note_on_c, 0, 73, 0
1, 418057, Note_on_c, 0, 78, 85
1, 418067, Note_on_c, 0, 66, 68
1, 418080, Note_on_c, 0, 78, 0
1, 418090, Note_on_c, 0, 66, 0
1, 418135, Note_on_c, 0, 65, 88
1, 418135, Note_on_c, 0, 77, 85
1, 418164, Note_on_c, 0, 65, 0
1, 418200, Note_on_c, 0, 77, 0
1, 418311, Note_on_c, 0, 34, 98
1, 418311, Note_on_c, 0, 46, 105
1, 418344, Control_c, 0, 64, 103
1, 418350, Note_on_c, 0, 78, 106
1, 418350, Note_on_c, 0, 90, 105
1, 418358, Note_on_c, 0, 85, 89
1, 418364, Control_c, 0, 64, 28
1, 418380, Control_c, 0, 64, 0
1, 418411, Note_on_c, 0, 44, 22
1, 418412, Note_on_c, 0, 44, 0
1, 418437, Control_c, 0, 64, 20
1, 418456, Control_c, 0, 64, 65
1, 418467, Poly_aftertouch_c, 0, 33, 0
1, 418472, Control_c, 0, 64, 111
1, 418475, Note_on_c, 0, 46, 0
1, 418492, Control_c, 0, 64, 127
1, 418526, Note_on_c, 0, 34, 0
1, 418766, Note_on_c, 0, 44, 95
1, 418786, Note_on_c, 0, 32, 80
1, 418787, Note_on_c, 0, 32, 0
1, 418796, Note_on_c, 0, 44, 0
1, 418860, Note_on_c, 0, 42, 96
1, 418873, Note_on_c, 0, 30, 96
1, 418907, Note_on_c, 0, 30, 0
1, 418908, Note_on_c, 0, 42, 0
1, 418973, Note_on_c, 0, 78, 0
1, 419005, Note_on_c, 0, 42, 96
1, 419005, Note_on_c, 0, 54, 108
1, 419045, Note_on_c, 0, 85, 0
1, 419099, Note_on_c, 0, 90, 0
1, 419131, Control_c, 0, 64, 101
1, 419150, Control_c, 0, 64, 64
1, 419168, Control_c, 0, 64, 19
1, 419188, Control_c, 0, 64, 0
1, 419374, Control_c, 0, 64, 26
1, 419384, Note_on_c, 0, 94, 105
1, 419386, Note_on_c, 0, 82, 108
1, 419391, Control_c, 0, 64, 66
1, 419395, Note_on_c, 0, 85, 93
1, 419407, Control_c, 0, 64, 103
1, 419408, Note_on_c, 0, 92, 66
1, 419409, Note_on_c, 0, 89, 80
1, 419419, Note_on_c, 0, 90, 44
1, 419420, Note_on_c, 0, 90, 0
1, 419426, Control_c, 0, 64, 127
1, 419431, Note_on_c, 0, 92, 0
1, 419451, Note_on_c, 0, 54, 0
1, 419477, Note_on_c, 0, 42, 0
1, 419480, Note_on_c, 0, 89, 0
1, 419824, Note_on_c, 0, 82, 0
1, 419824, Note_on_c, 0, 52, 97
1, 419830, Note_on_c, 0, 94, 0
1, 419834, Note_on_c, 0, 40, 91
1, 419853, Note_on_c, 0, 85, 0
1, 419902, Control_c, 0, 64, 111
1, 419919, Control_c, 0, 64, 66
1, 419937, Control_c, 0, 64, 0
1, 420086, Control_c, 0, 64, 40
1, 420089, Note_on_c, 0, 40, 0
1, 420090, Note_on_c, 0, 52, 0
1, 420105, Control_c, 0, 64, 72
1, 420113, Note_on_c, 0, 94, 98
1, 420119, Note_on_c, 0, 82, 96
1, 420122, Note_on_c, 0, 91, 83
1, 420122, Note_on_c, 0, 84, 86
1, 420123, Control_c, 0, 64, 102
1, 420139, Control_c, 0, 64, 127
1, 420155, Note_on_c, 0, 85, 40
1, 420156, Note_on_c, 0, 85, 0
1, 420187, Note_on_c, 0, 50, 86
1, 420211, Note_on_c, 0, 38, 59
1, 420217, Note_on_c, 0, 50, 0
1, 420246, Note_on_c, 0, 38, 0
1, 420269, Note_on_c, 0, 84, 0
1, 420280, Note_on_c, 0, 94, 0
1, 420286, Note_on_c, 0, 48, 88
1, 420305, Note_on_c, 0, 91, 0
1, 420309, Note_on_c, 0, 82, 0
1, 420313, Note_on_c, 0, 36, 55
1, 420327, Note_on_c, 0, 48, 0
1, 420350, Note_on_c, 0, 36, 0
1, 420557, Note_on_c, 0, 81, 106
1, 420558, Note_on_c, 0, 93, 99
1, 420561, Note_on_c, 0, 84, 101
1, 420564, Note_on_c, 0, 88, 93
1, 420569, Note_on_c, 0, 60, 105
1, 420574, Note_on_c, 0, 48, 89
1, 420625, Note_on_c, 0, 89, 15
1, 420631, Control_c, 0, 64, 87
1, 420651, Control_c, 0, 64, 0
1, 420662, Poly_aftertouch_c, 0, 55, 0
1, 420665, Note_on_c, 0, 89, 0
1, 420744, Control_c, 0, 64, 64
1, 420750, Note_on_c, 0, 88, 0
1, 420758, Note_on_c, 0, 84, 0
1, 420763, Control_c, 0, 64, 104
1, 420769, Note_on_c, 0, 93, 0
1, 420780, Control_c, 0, 64, 127
1, 420832, Note_on_c, 0, 81, 0
1, 420953, Note_on_c, 0, 60, 0
1, 420968, Note_on_c, 0, 48, 0
1, 421009, Note_on_c, 0, 91, 97
1, 421012, Note_on_c, 0, 82, 92
1, 421012, Note_on_c, 0, 79, 97
1, 421014, Note_on_c, 0, 88, 87
1, 421018, Poly_aftertouch_c, 0, 87, 0
1, 421211, Note_on_c, 0, 91, 0
1, 421220, Note_on_c, 0, 82, 0
1, 421232, Note_on_c, 0, 88, 0
1, 421277, Note_on_c, 0, 79, 0
1, 421426, Note_on_c, 0, 41, 100
1, 421432, Note_on_c, 0, 29, 86
1, 421434, Note_on_c, 0, 89, 95
1, 421434, Note_on_c, 0, 77, 103
1, 421438, Note_on_c, 0, 81, 95
1, 421440, Note_on_c, 0, 84, 90
1, 421456, Control_c, 0, 64, 80
1, 421473, Control_c, 0, 64, 0
1, 421549, Control_c, 0, 64, 56
1, 421568, Control_c, 0, 64, 98
1, 421586, Control_c, 0, 64, 127
1, 421588, Note_on_c, 0, 29, 0
1, 421630, Note_on_c, 0, 84, 0
1, 421721, Note_on_c, 0, 77, 0
1, 421749, Note_on_c, 0, 41, 0
1, 421772, Note_on_c, 0, 89, 0
1, 421888, Note_on_c, 0, 89, 96
1, 421891, Note_on_c, 0, 77, 106
1, 421891, Note_on_c, 0, 45, 100
1, 421892, Note_on_c, 0, 85, 97
1, 421899, Note_on_c, 0, 33, 88
1, 421933, Note_on_c, 0, 86, 49
1, 421966, Note_on_c, 0, 86, 0
1, 421978, Note_on_c, 0, 89, 0
1, 421987, Note_on_c, 0, 33, 0
1, 422001, Note_on_c, 0, 81, 0
1, 422002, Poly_aftertouch_c, 0, 81, 0
1, 422036, Note_on_c, 0, 85, 0
1, 422050, Note_on_c, 0, 77, 0
1, 422055, Note_on_c, 0, 45, 0
1, 422179, Poly_aftertouch_c, 0, 45, 0
1, 422252, Control_c, 0, 64, 122
1, 422272, Control_c, 0, 64, 69
1, 422279, Note_on_c, 0, 46, 103
1, 422286, Note_on_c, 0, 86, 90
1, 422286, Note_on_c, 0, 74, 102
1, 422287, Note_on_c, 0, 82, 92
1, 422287, Note_on_c, 0, 34, 84
1, 422289, Note_on_c, 0, 77, 97
1, 422289, Control_c, 0, 64, 22
1, 422318, Control_c, 0, 64, 30
1, 422336, Control_c, 0, 64, 54
1, 422356, Control_c, 0, 64, 81
1, 422374, Control_c, 0, 64, 115
1, 422381, Note_on_c, 0, 34, 0
1, 422385, Note_on_c, 0, 86, 0
1, 422391, Control_c, 0, 64, 127
1, 422399, Poly_aftertouch_c, 0, 41, 0
1, 422414, Note_on_c, 0, 74, 0
1, 422440, Note_on_c, 0, 77, 0
1, 422450, Note_on_c, 0, 82, 0
1, 422498, Note_on_c, 0, 46, 0
1, 422660, Note_on_c, 0, 82, 98
1, 422662, Note_on_c, 0, 70, 105
1, 422668, Note_on_c, 0, 78, 90
1, 422670, Note_on_c, 0, 50, 102
1, 422683, Note_on_c, 0, 38, 85
1, 422752, Note_on_c, 0, 38, 0
1, 422769, Note_on_c, 0, 82, 0
1, 422771, Note_on_c, 0, 78, 0
1, 422804, Note_on_c, 0, 70, 0
1, 422831, Note_on_c, 0, 50, 0
1, 423040, Control_c, 0, 64, 110
1, 423059, Control_c, 0, 64, 56
1, 423070, Note_on_c, 0, 51, 106
1, 423072, Note_on_c, 0, 79, 88
1, 423073, Note_on_c, 0, 70, 98
1, 423074, Note_on_c, 0, 67, 99
1, 423076, Note_on_c, 0, 75, 91
1, 423077, Control_c, 0, 64, 18
1, 423080, Note_on_c, 0, 39, 84
1, 423098, Control_c, 0, 64, 32
1, 423116, Control_c, 0, 64, 57
1, 423132, Control_c, 0, 64, 85
1, 423151, Control_c, 0, 64, 118
1, 423156, Note_on_c, 0, 79, 0
1, 423170, Control_c, 0, 64, 127
1, 423201, Note_on_c, 0, 67, 0
1, 423236, Note_on_c, 0, 75, 0
1, 423267, Note_on_c, 0, 70, 0
1, 423369, Note_on_c, 0, 39, 0
1, 423423, Note_on_c, 0, 51, 0
1, 423496, Control_c, 0, 64, 81
1, 423507, Note_on_c, 0, 61, 97
1, 423507, Note_on_c, 0, 73, 91
1, 423512, Control_c, 0, 64, 62
1, 423513, Note_on_c, 0, 70, 86
1, 423513, Note_on_c, 0, 52, 108
1, 423516, Note_on_c, 0, 67, 84
1, 423522, Note_on_c, 0, 40, 89
1, 423530, Control_c, 0, 64, 77
1, 423549, Control_c, 0, 64, 100
1, 423553, Note_on_c, 0, 60, 57
1, 423564, Note_on_c, 0, 66, 36
1, 423565, Note_on_c, 0, 66, 0
1, 423568, Control_c, 0, 64, 127
1, 423594, Note_on_c, 0, 60, 0
1, 423608, Note_on_c, 0, 40, 0
1, 423616, Note_on_c, 0, 73, 0
1, 423641, Note_on_c, 0, 61, 0
1, 423659, Note_on_c, 0, 52, 0
1, 423665, Note_on_c, 0, 67, 0
1, 423668, Note_on_c, 0, 70, 0
1, 423978, Note_on_c, 0, 63, 98
1, 423979, Note_on_c, 0, 60, 104
1, 423979, Control_c, 0, 64, 97
1, 423980, Note_on_c, 0, 72, 93
1, 423984, Note_on_c, 0, 53, 110
1, 423985, Note_on_c, 0, 41, 90
1, 423985, Note_on_c, 0, 69, 86
1, 424006, Control_c, 0, 64, 37
1, 424013, Control_c, 0, 64, 0
1, 424049, Note_on_c, 0, 41, 0
1, 424049, Control_c, 0, 64, 17
1, 424068, Control_c, 0, 64, 58
1, 424077, Note_on_c, 0, 53, 0
1, 424086, Control_c, 0, 64, 93
1, 424104, Control_c, 0, 64, 127
1, 424107, Note_on_c, 0, 72, 0
1, 424117, Note_on_c, 0, 60, 0
1, 424151, Note_on_c, 0, 69, 0
1, 424205, Note_on_c, 0, 63, 0
1, 424393, Control_c, 0, 64, 108
1, 424412, Control_c, 0, 64, 80
1, 424430, Control_c, 0, 64, 53
1, 424448, Control_c, 0, 64, 31
1, 424466, Control_c, 0, 64, 26
1, 424523, Control_c, 0, 64, 22
1, 424727, Control_c, 0, 64, 34
1, 424745, Control_c, 0, 64, 43
1, 424764, Control_c, 0, 64, 52
1, 424782, Control_c, 0, 64, 72
1, 424802, Control_c, 0, 64, 103
1, 424818, Control_c, 0, 64, 127
1, 424830, Note_on_c, 0, 46, 98
1, 424833, Note_on_c, 0, 74, 107
1, 424833, Note_on_c, 0, 34, 90
1, 424833, Note_on_c, 0, 86, 101
1, 424834, Note_on_c, 0, 77, 101
1, 424835, Note_on_c, 0, 41, 92
1, 424835, Note_on_c, 0, 82, 97
1, 424911, Control_c, 0, 64, 96
1, 424932, Control_c, 0, 64, 41
1, 424948, Control_c, 0, 64, 0
1, 425097, Control_c, 0, 64, 26
1, 425115, Control_c, 0, 64, 41
1, 425143, Control_c, 0, 64, 56
1, 425162, Control_c, 0, 64, 66
1, 425180, Control_c, 0, 64, 70
1, 425198, Control_c, 0, 64, 79
1, 425217, Control_c, 0, 64, 93
1, 425235, Control_c, 0, 64, 110
1, 425254, Control_c, 0, 64, 125
1, 425416, Note_on_c, 0, 34, 0
1, 425429, Note_on_c, 0, 86, 0
1, 425550, Note_on_c, 0, 74, 0
1, 425561, Note_on_c, 0, 41, 0
1, 425608, Note_on_c, 0, 82, 0
1, 425613, Note_on_c, 0, 46, 0
1, 425645, Note_on_c, 0, 77, 0
1, 426354, Note_on_c, 0, 76, 71
1, 426378, Note_on_c, 0, 64, 52
1, 426379, Note_on_c, 0, 55, 47
1, 426385, Note_on_c, 0, 48, 45
1, 426386, Note_on_c, 0, 60, 45
1, 426393, Note_on_c, 0, 70, 45
1, 426412, Control_c, 0, 64, 120
1, 426430, Control_c, 0, 64, 93
1, 426451, Control_c, 0, 64, 61
1, 426468, Control_c, 0, 64, 23
1, 426487, Control_c, 0, 64, 0
1, 426598, Control_c, 0, 64, 20
1, 426616, Control_c, 0, 64, 39
1, 426635, Control_c, 0, 64, 57
1, 426653, Control_c, 0, 64, 78
1, 426660, Note_on_c, 0, 48, 0
1, 426669, Note_on_c, 0, 60, 0
1, 426672, Control_c, 0, 64, 95
1, 426689, Control_c, 0, 64, 116
1, 426707, Control_c, 0, 64, 127
1, 426712, Note_on_c, 0, 64, 0
1, 426716, Note_on_c, 0, 76, 0
1, 426776, Note_on_c, 0, 55, 0
1, 426804, Note_on_c, 0, 70, 0
1, 427144, Control_c, 0, 64, 102
1, 427162, Control_c, 0, 64, 67
1, 427181, Control_c, 0, 64, 36
1, 427218, Control_c, 0, 64, 45
1, 427237, Control_c, 0, 64, 65
1, 427254, Control_c, 0, 64, 84
1, 427272, Control_c, 0, 64, 106
1, 427291, Control_c, 0, 64, 127
1, 427409, Note_on_c, 0, 77, 101
1, 427410, Note_on_c, 0, 89, 99
1, 427411, Note_on_c, 0, 43, 97
1, 427412, Note_on_c, 0, 82, 95
1, 427413, Note_on_c, 0, 38, 89
1, 427414, Note_on_c, 0, 86, 90
1, 427418, Note_on_c, 0, 31, 89
1, 427457, Control_c, 0, 64, 92
1, 427477, Control_c, 0, 64, 40
1, 427495, Control_c, 0, 64, 0
1, 427608, Control_c, 0, 64, 26
1, 427625, Control_c, 0, 64, 58
1, 427643, Control_c, 0, 64, 82
1, 427662, Control_c, 0, 64, 96
1, 427681, Control_c, 0, 64, 111
1, 427700, Control_c, 0, 64, 124
1, 427787, Note_on_c, 0, 31, 0
1, 427815, Note_on_c, 0, 89, 0
1, 427893, Note_on_c, 0, 77, 0
1, 427936, Note_on_c, 0, 43, 0
1, 427938, Note_on_c, 0, 38, 0
1, 427978, Note_on_c, 0, 86, 0
1, 428034, Note_on_c, 0, 82, 0
1, 428915, Note_on_c, 0, 76, 70
1, 428919, Note_on_c, 0, 55, 57
1, 428924, Note_on_c, 0, 60, 57
1, 428928, Note_on_c, 0, 64, 56
1, 428934, Note_on_c, 0, 48, 51
1, 428936, Note_on_c, 0, 70, 52
1, 428997, Control_c, 0, 64, 110
1, 429015, Control_c, 0, 64, 74
1, 429033, Control_c, 0, 64, 30
1, 429051, Control_c, 0, 64, 0
1, 429109, Control_c, 0, 64, 12
1, 429125, Control_c, 0, 64, 37
1, 429145, Control_c, 0, 64, 65
1, 429163, Control_c, 0, 64, 91
1, 429181, Control_c, 0, 64, 119
1, 429189, Note_on_c, 0, 48, 0
1, 429199, Control_c, 0, 64, 127
1, 429210, Note_on_c, 0, 60, 0
1, 429239, Note_on_c, 0, 64, 0
1, 429264, Note_on_c, 0, 76, 0
1, 429305, Note_on_c, 0, 55, 0
1, 429373, Note_on_c, 0, 70, 0
1, 430040, Note_on_c, 0, 94, 100
1, 430044, Note_on_c, 0, 82, 90
1, 430047, Note_on_c, 0, 89, 88
1, 430049, Note_on_c, 0, 38, 97
1, 430051, Note_on_c, 0, 26, 91
1, 430098, Control_c, 0, 64, 88
1, 430103, Note_on_c, 0, 33, 21
1, 430117, Control_c, 0, 64, 34
1, 430135, Control_c, 0, 64, 0
1, 430141, Note_on_c, 0, 33, 0
1, 430192, Control_c, 0, 64, 25
1, 430210, Control_c, 0, 64, 54
1, 430230, Control_c, 0, 64, 79
1, 430245, Control_c, 0, 64, 99
1, 430265, Control_c, 0, 64, 125
1, 430389, Note_on_c, 0, 89, 0
1, 430390, Note_on_c, 0, 26, 0
1, 430462, Note_on_c, 0, 38, 0
1, 430504, Note_on_c, 0, 82, 0
1, 430522, Note_on_c, 0, 94, 0
1, 430771, Note_on_c, 0, 39, 100
1, 430775, Note_on_c, 0, 27, 90
1, 430776, Note_on_c, 0, 94, 102
1, 430778, Note_on_c, 0, 82, 101
1, 430785, Note_on_c, 0, 91, 95
1, 430814, Control_c, 0, 64, 70
1, 430830, Control_c, 0, 64, 0
1, 430886, Control_c, 0, 64, 34
1, 430888, Poly_aftertouch_c, 0, 33, 0
1, 430896, Note_on_c, 0, 27, 0
1, 430903, Control_c, 0, 64, 83
1, 430924, Control_c, 0, 64, 127
1, 430945, Note_on_c, 0, 91, 0
1, 430951, Note_on_c, 0, 94, 0
1, 430962, Note_on_c, 0, 39, 0
1, 430988, Note_on_c, 0, 82, 0
1, 431471, Note_on_c, 0, 70, 97
1, 431472, Note_on_c, 0, 67, 90
1, 431473, Note_on_c, 0, 58, 80
1, 431473, Note_on_c, 0, 63, 81
1, 431475, Note_on_c, 0, 51, 78
1, 431535, Note_on_c, 0, 67, 0
1, 431590, Note_on_c, 0, 70, 0
1, 431593, Note_on_c, 0, 63, 0
1, 431691, Note_on_c, 0, 58, 0
1, 431742, Note_on_c, 0, 51, 0
1, 432094, Note_on_c, 0, 82, 104
1, 432095, Note_on_c, 0, 94, 99
1, 432100, Note_on_c, 0, 91, 89
1, 432101, Note_on_c, 0, 39, 100
1, 432103, Note_on_c, 0, 27, 101
1, 432167, Note_on_c, 0, 39, 0
1, 432174, Note_on_c, 0, 27, 0
1, 432225, Note_on_c, 0, 82, 0
1, 432316, Note_on_c, 0, 91, 0
1, 432333, Note_on_c, 0, 94, 0
1, 432817, Note_on_c, 0, 96, 103
1, 432818, Note_on_c, 0, 84, 105
1, 432819, Note_on_c, 0, 36, 105
1, 432822, Note_on_c, 0, 94, 98
1, 432825, Note_on_c, 0, 88, 98
1, 432827, Note_on_c, 0, 24, 96
1, 432828, Note_on_c, 0, 91, 87
1, 432856, Note_on_c, 0, 31, 48
1, 432867, Control_c, 0, 64, 94
1, 432875, Note_on_c, 0, 26, 40
1, 432887, Control_c, 0, 64, 36
1, 432897, Note_on_c, 0, 31, 0
1, 432904, Control_c, 0, 64, 0
1, 432915, Note_on_c, 0, 86, 21
1, 432916, Note_on_c, 0, 86, 0
1, 432925, Note_on_c, 0, 26, 0
1, 432961, Control_c, 0, 64, 45
1, 432980, Control_c, 0, 64, 90
1, 432998, Control_c, 0, 64, 127
1, 433049, Note_on_c, 0, 96, 0
1, 433067, Note_on_c, 0, 24, 0
1, 433086, Note_on_c, 0, 94, 0
1, 433086, Note_on_c, 0, 91, 0
1, 433087, Note_on_c, 0, 36, 0
1, 433102, Note_on_c, 0, 88, 0
1, 433124, Note_on_c, 0, 84, 0
1, 433595, Note_on_c, 0, 64, 97
1, 433597, Note_on_c, 0, 60, 101
1, 433599, Note_on_c, 0, 72, 91
1, 433599, Note_on_c, 0, 70, 87
1, 433600, Note_on_c, 0, 67, 87
1, 433604, Note_on_c, 0, 48, 88
1, 433731, Note_on_c, 0, 64, 0
1, 433755, Note_on_c, 0, 60, 0
1, 433785, Note_on_c, 0, 48, 0
1, 433788, Note_on_c, 0, 67, 0
1, 433828, Note_on_c, 0, 72, 0
1, 433843, Note_on_c, 0, 70, 0
1, 434370, Note_on_c, 0, 96, 99
1, 434372, Note_on_c, 0, 84, 105
1, 434380, Note_on_c, 0, 88, 97
1, 434381, Note_on_c, 0, 94, 95
1, 434382, Note_on_c, 0, 36, 98
1, 434383, Note_on_c, 0, 24, 90
1, 434383, Note_on_c, 0, 91, 88
1, 434501, Note_on_c, 0, 24, 0
1, 434530, Poly_aftertouch_c, 0, 31, 0
1, 434594, Note_on_c, 0, 96, 0
1, 434598, Note_on_c, 0, 84, 0
1, 434705, Note_on_c, 0, 88, 0
1, 434712, Note_on_c, 0, 91, 0
1, 434722, Note_on_c, 0, 36, 0
1, 434749, Note_on_c, 0, 94, 0
1, 435265, Note_on_c, 0, 41, 103
1, 435266, Note_on_c, 0, 101, 102
1, 435269, Note_on_c, 0, 96, 91
1, 435269, Note_on_c, 0, 89, 102
1, 435270, Note_on_c, 0, 93, 95
1, 435276, Note_on_c, 0, 29, 91
1, 435320, Note_on_c, 0, 98, 36
1, 435333, Control_c, 0, 64, 77
1, 435351, Control_c, 0, 64, 0
1, 435369, Note_on_c, 0, 98, 0
1, 435380, Poly_aftertouch_c, 0, 36, 0
1, 435435, Control_c, 0, 64, 9
1, 435453, Control_c, 0, 64, 57
1, 435473, Control_c, 0, 64, 96
1, 435489, Control_c, 0, 64, 127
1, 435498, Note_on_c, 0, 29, 0
1, 435592, Note_on_c, 0, 96, 0
1, 435712, Note_on_c, 0, 89, 0
1, 435717, Note_on_c, 0, 101, 0
1, 435725, Note_on_c, 0, 41, 0
1, 435769, Note_on_c, 0, 93, 0
1, 435877, Note_on_c, 0, 100, 98
1, 435878, Note_on_c, 0, 88, 99
1, 435882, Note_on_c, 0, 96, 88
1, 435883, Note_on_c, 0, 45, 96
1, 435883, Note_on_c, 0, 93, 84
1, 435890, Note_on_c, 0, 33, 84
1, 436026, Note_on_c, 0, 93, 0
1, 436037, Note_on_c, 0, 96, 0
1, 436056, Note_on_c, 0, 33, 0
1, 436065, Note_on_c, 0, 100, 0
1, 436169, Note_on_c, 0, 88, 0
1, 436195, Note_on_c, 0, 45, 0
1, 436327, Note_on_c, 0, 94, 90
1, 436328, Note_on_c, 0, 98, 96
1, 436329, Note_on_c, 0, 89, 97
1, 436331, Note_on_c, 0, 86, 98
1, 436333, Note_on_c, 0, 46, 103
1, 436347, Note_on_c, 0, 34, 87
1, 436419, Note_on_c, 0, 34, 0
1, 436509, Note_on_c, 0, 89, 0
1, 436521, Poly_aftertouch_c, 0, 35, 0
1, 436562, Note_on_c, 0, 98, 0
1, 436592, Note_on_c, 0, 46, 0
1, 436594, Note_on_c, 0, 86, 0
1, 436612, Note_on_c, 0, 94, 0
1, 436712, Note_on_c, 0, 91, 69
1, 436712, Note_on_c, 0, 96, 98
1, 436712, Note_on_c, 0, 84, 103
1, 436718, Note_on_c, 0, 88, 93
1, 436720, Note_on_c, 0, 48, 99
1, 436721, Note_on_c, 0, 36, 87
1, 436723, Control_c, 0, 64, 90
1, 436740, Control_c, 0, 64, 0
1, 436767, Note_on_c, 0, 43, 26
1, 436768, Note_on_c, 0, 43, 0
1, 436814, Control_c, 0, 64, 29
1, 436833, Poly_aftertouch_c, 0, 43, 0
1, 436833, Control_c, 0, 64, 70
1, 436851, Control_c, 0, 64, 113
1, 436870, Control_c, 0, 64, 127
1, 436877, Note_on_c, 0, 36, 0
1, 436907, Note_on_c, 0, 96, 0
1, 436931, Note_on_c, 0, 84, 0
1, 436957, Note_on_c, 0, 48, 0
1, 437003, Note_on_c, 0, 91, 0
1, 437055, Note_on_c, 0, 88, 0
1, 437055, Note_on_c, 0, 88, 64
1, 437056, Note_on_c, 0, 93, 94
1, 437059, Note_on_c, 0, 81, 105
1, 437060, Note_on_c, 0, 37, 90
1, 437063, Note_on_c, 0, 49, 101
1, 437094, Note_on_c, 0, 87, 41
1, 437095, Note_on_c, 0, 87, 0
1, 437138, Note_on_c, 0, 37, 0
1, 437160, Note_on_c, 0, 88, 0
1, 437160, Note_on_c, 0, 93, 0
1, 437178, Poly_aftertouch_c, 0, 91, 0
1, 437202, Note_on_c, 0, 81, 0
1, 437250, Note_on_c, 0, 49, 0
1, 437335, Note_on_c, 0, 50, 87
1, 437340, Note_on_c, 0, 38, 71
1, 437353, Note_on_c, 0, 89, 88
1, 437353, Note_on_c, 0, 77, 97
1, 437375, Note_on_c, 0, 38, 0
1, 437386, Note_on_c, 0, 50, 0
1, 437406, Note_on_c, 0, 88, 27
1, 437407, Note_on_c, 0, 88, 0
1, 437490, Control_c, 0, 64, 118
1, 437491, Note_on_c, 0, 38, 46
1, 437504, Note_on_c, 0, 89, 0
1, 437506, Note_on_c, 0, 31, 80
1, 437509, Control_c, 0, 64, 52
1, 437528, Control_c, 0, 64, 0
1, 437539, Note_on_c, 0, 77, 0
1, 437575, Note_on_c, 0, 43, 92
1, 437588, Poly_aftertouch_c, 0, 35, 0
1, 437598, Note_on_c, 0, 38, 0
1, 437601, Control_c, 0, 64, 38
1, 437610, Note_on_c, 0, 31, 0
1, 437621, Control_c, 0, 64, 96
1, 437639, Control_c, 0, 64, 127
1, 437645, Note_on_c, 0, 43, 0
1, 437674, Poly_aftertouch_c, 0, 33, 0
1, 437864, Note_on_c, 0, 86, 93
1, 437865, Note_on_c, 0, 74, 105
1, 437866, Note_on_c, 0, 65, 98
1, 437870, Note_on_c, 0, 62, 89
1, 437870, Note_on_c, 0, 82, 93
1, 437874, Note_on_c, 0, 77, 96
1, 437874, Note_on_c, 0, 58, 85
1, 437875, Note_on_c, 0, 55, 80
1, 437904, Note_on_c, 0, 55, 0
1, 437911, Note_on_c, 0, 65, 0
1, 437923, Note_on_c, 0, 62, 0
1, 437931, Note_on_c, 0, 58, 0
1, 438012, Poly_aftertouch_c, 0, 57, 0
1, 438555, Control_c, 0, 64, 110
1, 438575, Control_c, 0, 64, 50
1, 438595, Control_c, 0, 64, 0
1, 438636, Note_on_c, 0, 36, 82
1, 438651, Control_c, 0, 64, 28
1, 438659, Note_on_c, 0, 82, 0
1, 438667, Control_c, 0, 64, 69
1, 438674, Note_on_c, 0, 77, 0
1, 438683, Note_on_c, 0, 86, 0
1, 438685, Control_c, 0, 64, 115
1, 438700, Note_on_c, 0, 48, 94
1, 438704, Control_c, 0, 64, 127
1, 438705, Note_on_c, 0, 43, 30
1, 438713, Note_on_c, 0, 36, 0
1, 438731, Note_on_c, 0, 74, 0
1, 438739, Note_on_c, 0, 48, 0
1, 438757, Note_on_c, 0, 43, 0
1, 438846, Note_on_c, 0, 84, 94
1, 438848, Note_on_c, 0, 72, 102
1, 438849, Note_on_c, 0, 82, 86
1, 438852, Note_on_c, 0, 76, 92
1, 438860, Note_on_c, 0, 55, 88
1, 438863, Note_on_c, 0, 60, 87
1, 438870, Note_on_c, 0, 58, 78
1, 438880, Note_on_c, 0, 65, 61
1, 438886, Note_on_c, 0, 64, 60
1, 438891, Note_on_c, 0, 60, 0
1, 438894, Note_on_c, 0, 55, 0
1, 438896, Note_on_c, 0, 58, 0
1, 438907, Note_on_c, 0, 65, 0
1, 438915, Note_on_c, 0, 64, 0
1, 439040, Poly_aftertouch_c, 0, 58, 0
1, 439530, Control_c, 0, 64, 83
1, 439548, Control_c, 0, 64, 0
1, 439562, Note_on_c, 0, 29, 91
1, 439594, Note_on_c, 0, 72, 0
1, 439612, Note_on_c, 0, 84, 0
1, 439639, Control_c, 0, 64, 22
1, 439659, Control_c, 0, 64, 63
1, 439670, Note_on_c, 0, 76, 0
1, 439676, Control_c, 0, 64, 101
1, 439695, Control_c, 0, 64, 127
1, 439700, Note_on_c, 0, 82, 0
1, 439720, Note_on_c, 0, 41, 103
1, 439725, Note_on_c, 0, 29, 0
1, 439734, Note_on_c, 0, 36, 35
1, 439779, Note_on_c, 0, 41, 0
1, 439785, Note_on_c, 0, 36, 0
1, 440154, Note_on_c, 0, 93, 97
1, 440155, Note_on_c, 0, 81, 106
1, 440156, Note_on_c, 0, 65, 105
1, 440158, Note_on_c, 0, 53, 86
1, 440159, Note_on_c, 0, 89, 93
1, 440161, Note_on_c, 0, 84, 99
1, 440164, Note_on_c, 0, 60, 91
1, 440165, Note_on_c, 0, 57, 89
1, 440282, Poly_aftertouch_c, 0, 59, 0
1, 440816, Note_on_c, 0, 65, 0
1, 440953, Note_on_c, 0, 53, 0
1, 441095, Note_on_c, 0, 60, 0
1, 441161, Note_on_c, 0, 57, 0
1, 441769, Note_on_c, 0, 89, 0
1, 441809, Note_on_c, 0, 84, 0
1, 441818, Note_on_c, 0, 29, 67
1, 441854, Note_on_c, 0, 81, 0
1, 441872, Note_on_c, 0, 93, 0
1, 441879, Note_on_c, 0, 36, 70
1, 441901, Note_on_c, 0, 29, 0
1, 441978, Note_on_c, 0, 41, 72
1, 442024, Note_on_c, 0, 36, 0
1, 442043, Note_on_c, 0, 81, 97
1, 442043, Note_on_c, 0, 93, 94
1, 442044, Note_on_c, 0, 84, 93
1, 442047, Note_on_c, 0, 48, 98
1, 442047, Note_on_c, 0, 89, 86
1, 442085, Note_on_c, 0, 41, 0
1, 442108, Note_on_c, 0, 48, 0
1, 442920, Note_on_c, 0, 29, 89
1, 443126, Note_on_c, 0, 36, 90
1, 443162, Note_on_c, 0, 29, 0
1, 443259, Note_on_c, 0, 41, 93
1, 443266, Note_on_c, 0, 81, 0
1, 443284, Note_on_c, 0, 93, 0
1, 443290, Note_on_c, 0, 84, 0
1, 443302, Note_on_c, 0, 89, 0
1, 443313, Note_on_c, 0, 36, 0
1, 443407, Note_on_c, 0, 48, 105
1, 443430, Note_on_c, 0, 81, 93
1, 443431, Note_on_c, 0, 93, 91
1, 443432, Note_on_c, 0, 84, 83
1, 443432, Note_on_c, 0, 89, 85
1, 443458, Note_on_c, 0, 41, 0
1, 443474, Note_on_c, 0, 48, 0
1, 444277, Note_on_c, 0, 29, 92
1, 444585, Note_on_c, 0, 36, 92
1, 444622, Note_on_c, 0, 29, 0
1, 444830, Note_on_c, 0, 41, 93
1, 444889, Note_on_c, 0, 36, 0
1, 445048, Note_on_c, 0, 48, 103
1, 445080, Note_on_c, 0, 41, 0
1, 445094, Note_on_c, 0, 48, 0
1, 445124, Note_on_c, 0, 81, 0
1, 445127, Note_on_c, 0, 89, 0
1, 445152, Note_on_c, 0, 93, 0
1, 445206, Note_on_c, 0, 84, 0
1, 445380, Note_on_c, 0, 53, 68
1, 445417, Note_on_c, 0, 57, 70
1, 445478, Note_on_c, 0, 60, 80
1, 445542, Note_on_c, 0, 65, 105
1, 445564, Note_on_c, 0, 81, 104
1, 445565, Note_on_c, 0, 93, 97
1, 445568, Note_on_c, 0, 89, 90
1, 445571, Note_on_c, 0, 84, 96
1, 448585, Note_on_c, 0, 93, 0
1, 448589, Note_on_c, 0, 65, 0
1, 448591, Note_on_c, 0, 53, 0
1, 448594, Note_on_c, 0, 81, 0
1, 448611, Note_on_c, 0, 89, 0
1, 448620, Note_on_c, 0, 84, 0
1, 448622, Note_on_c, 0, 60, 0
1, 448624, Note_on_c, 0, 57, 0
1, 448643, Control_c, 0, 64, 123
1, 448662, Control_c, 0, 64, 91
1, 448681, Control_c, 0, 64, 58
1, 448700, Control_c, 0, 64, 28
1, 448735, Control_c, 0, 64, 23
1, 448773, Control_c, 0, 64, 18
1, 448793, Control_c, 0, 64, 14
1, 448866, Control_c, 0, 64, 10
1, 452404, Control_c, 0, 64, 0
1, 459398, Control_c, 0, 67, 8
1, 463029, Control_c, 0, 67, 18
1, 463047, Control_c, 0, 67, 29
1, 463066, Control_c, 0, 67, 40
1, 463086, Control_c, 0, 67, 48
1, 463104, Control_c, 0, 67, 56
1, 463122, Control_c, 0, 67, 65
1, 463139, Control_c, 0, 67, 75
1, 463159, Control_c, 0, 67, 87
1, 463177, Control_c, 0, 67, 99
1, 463196, Control_c, 0, 64, 8
1, 463197, Control_c, 0, 67, 109
1, 463216, Control_c, 0, 64, 18
1, 463217, Control_c, 0, 67, 115
1, 463233, Control_c, 0, 64, 32
1, 463234, Control_c, 0, 67, 119
1, 463250, Control_c, 0, 64, 48
1, 463251, Control_c, 0, 67, 123
1, 463269, Control_c, 0, 64, 59
1, 463270, Control_c, 0, 67, 127
1, 463287, Control_c, 0, 64, 62
1, 463306, Control_c, 0, 64, 65
1, 463326, Control_c, 0, 64, 69
1, 463343, Control_c, 0, 64, 75
1, 463363, Control_c, 0, 64, 82
1, 463381, Control_c, 0, 64, 89
1, 463400, Control_c, 0, 64, 95
1, 463418, Control_c, 0, 64, 100
1, 463435, Control_c, 0, 64, 104
1, 463473, Control_c, 0, 64, 112
1, 463491, Control_c, 0, 64, 116
1, 463520, Control_c, 0, 64, 120
1, 463539, Control_c, 0, 64, 125
1, 464423, Note_on_c, 0, 75, 47
1, 464484, Note_on_c, 0, 60, 30
1, 464898, Note_on_c, 0, 63, 30
1, 464975, Control_c, 0, 67, 122
1, 464989, Note_on_c, 0, 60, 0
1, 465010, Control_c, 0, 67, 117
1, 465048, Control_c, 0, 67, 112
1, 465085, Control_c, 0, 67, 105
1, 465104, Control_c, 0, 67, 99
1, 465122, Control_c, 0, 67, 89
1, 465140, Control_c, 0, 67, 77
1, 465158, Control_c, 0, 67, 63
1, 465179, Control_c, 0, 67, 48
1, 465196, Control_c, 0, 67, 35
1, 465215, Control_c, 0, 67, 24
1, 465233, Control_c, 0, 67, 15
1, 465253, Control_c, 0, 67, 10
1, 465380, Note_on_c, 0, 56, 32
1, 465395, Note_on_c, 0, 72, 56
1, 465496, Note_on_c, 0, 63, 0
1, 465567, Note_on_c, 0, 75, 0
1, 465844, Note_on_c, 0, 60, 42
1, 465866, Note_on_c, 0, 56, 0
1, 466251, Note_on_c, 0, 53, 39
1, 466271, Note_on_c, 0, 68, 58
1, 466400, Control_c, 0, 64, 99
1, 466420, Control_c, 0, 64, 75
1, 466440, Control_c, 0, 64, 66
1, 466457, Control_c, 0, 64, 70
1, 466459, Control_c, 0, 67, 0
1, 466476, Control_c, 0, 64, 77
1, 466495, Control_c, 0, 64, 90
1, 466512, Control_c, 0, 64, 106
1, 466530, Control_c, 0, 64, 123
1, 466544, Note_on_c, 0, 72, 0
1, 466547, Control_c, 0, 64, 127
1, 466634, Note_on_c, 0, 60, 0
1, 466650, Note_on_c, 0, 56, 51
1, 466852, Note_on_c, 0, 53, 0
1, 467061, Note_on_c, 0, 65, 60
1, 467065, Note_on_c, 0, 49, 40
1, 467142, Control_c, 0, 64, 104
1, 467161, Control_c, 0, 64, 76
1, 467179, Control_c, 0, 64, 49
1, 467199, Control_c, 0, 64, 40
1, 467221, Note_on_c, 0, 56, 0
1, 467228, Note_on_c, 0, 68, 0
1, 467234, Control_c, 0, 64, 45
1, 467262, Control_c, 0, 64, 58
1, 467280, Control_c, 0, 64, 74
1, 467301, Control_c, 0, 64, 89
1, 467318, Control_c, 0, 64, 105
1, 467337, Control_c, 0, 64, 118
1, 467355, Control_c, 0, 64, 124
1, 467442, Note_on_c, 0, 53, 47
1, 467462, Note_on_c, 0, 49, 0
1, 467822, Note_on_c, 0, 61, 64
1, 467834, Note_on_c, 0, 46, 36
1, 467911, Control_c, 0, 64, 120
1, 467930, Control_c, 0, 64, 94
1, 467949, Control_c, 0, 64, 67
1, 467967, Control_c, 0, 64, 48
1, 467976, Note_on_c, 0, 65, 0
1, 468003, Control_c, 0, 64, 54
1, 468022, Control_c, 0, 64, 64
1, 468028, Note_on_c, 0, 53, 0
1, 468041, Control_c, 0, 64, 76
1, 468059, Control_c, 0, 64, 89
1, 468078, Control_c, 0, 64, 106
1, 468096, Control_c, 0, 64, 120
1, 468115, Control_c, 0, 64, 126
1, 468208, Note_on_c, 0, 49, 45
1, 468254, Control_c, 0, 67, 8
1, 468310, Control_c, 0, 67, 12
1, 468347, Control_c, 0, 67, 19
1, 468383, Control_c, 0, 67, 25
1, 468419, Control_c, 0, 67, 29
1, 468476, Control_c, 0, 67, 33
1, 468514, Control_c, 0, 67, 37
1, 468695, Note_on_c, 0, 43, 38
1, 468698, Note_on_c, 0, 58, 57
1, 468728, Poly_aftertouch_c, 0, 46, 24
1, 468788, Note_on_c, 0, 46, 0
1, 468788, Poly_aftertouch_c, 0, 46, 0
1, 468818, Note_on_c, 0, 61, 0
1, 468847, Control_c, 0, 64, 113
1, 468865, Control_c, 0, 64, 90
1, 468865, Control_c, 0, 67, 44
1, 468885, Control_c, 0, 64, 64
1, 468886, Control_c, 0, 67, 48
1, 468889, Note_on_c, 0, 49, 0
1, 468903, Control_c, 0, 64, 41
1, 468922, Control_c, 0, 64, 33
1, 468924, Control_c, 0, 67, 55
1, 468958, Control_c, 0, 67, 61
1, 468995, Control_c, 0, 67, 68
1, 469015, Control_c, 0, 64, 50
1, 469032, Control_c, 0, 64, 69
1, 469033, Control_c, 0, 67, 76
1, 469051, Control_c, 0, 64, 85
1, 469054, Control_c, 0, 67, 81
1, 469069, Control_c, 0, 64, 98
1, 469071, Control_c, 0, 67, 86
1, 469089, Control_c, 0, 64, 107
1, 469089, Control_c, 0, 67, 92
1, 469107, Control_c, 0, 64, 115
1, 469108, Control_c, 0, 67, 96
1, 469133, Control_c, 0, 64, 120
1, 469133, Control_c, 0, 67, 101
1, 469135, Note_on_c, 0, 46, 43
1, 469151, Control_c, 0, 64, 124
1, 469152, Control_c, 0, 67, 106
1, 469189, Control_c, 0, 67, 112
1, 469227, Control_c, 0, 67, 116
1, 469298, Note_on_c, 0, 43, 0
1, 469338, Control_c, 0, 67, 120
1, 469371, Note_on_c, 0, 44, 42
1, 469389, Note_on_c, 0, 58, 0
1, 469430, Control_c, 0, 67, 124
1, 469435, Note_on_c, 0, 60, 52
1, 469450, Control_c, 0, 64, 111
1, 469468, Control_c, 0, 64, 78
1, 469486, Control_c, 0, 64, 47
1, 469497, Note_on_c, 0, 46, 0
1, 469503, Control_c, 0, 64, 44
1, 469522, Control_c, 0, 64, 53
1, 469538, Note_on_c, 0, 60, 0
1, 469540, Control_c, 0, 64, 67
1, 469559, Control_c, 0, 64, 83
1, 469571, Note_on_c, 0, 61, 26
1, 469577, Control_c, 0, 64, 102
1, 469598, Control_c, 0, 64, 120
1, 469616, Control_c, 0, 64, 127
1, 469632, Note_on_c, 0, 61, 0
1, 469642, Note_on_c, 0, 60, 47
1, 469724, Note_on_c, 0, 61, 43
1, 469831, Note_on_c, 0, 61, 0
1, 469831, Note_on_c, 0, 61, 21
1, 469864, Note_on_c, 0, 48, 43
1, 469870, Note_on_c, 0, 61, 0
1, 469972, Note_on_c, 0, 60, 0
1, 469973, Poly_aftertouch_c, 0, 60, 0
1, 469993, Note_on_c, 0, 58, 50
1, 470041, Note_on_c, 0, 44, 0
1, 470097, Note_on_c, 0, 58, 0
1, 470099, Note_on_c, 0, 60, 42
1, 470311, Note_on_c, 0, 61, 52
1, 470317, Note_on_c, 0, 46, 41
1, 470367, Control_c, 0, 64, 123
1, 470385, Control_c, 0, 64, 115
1, 470406, Control_c, 0, 64, 102
1, 470410, Note_on_c, 0, 60, 0
1, 470422, Control_c, 0, 64, 82
1, 470435, Note_on_c, 0, 48, 0
1, 470439, Control_c, 0, 64, 61
1, 470458, Control_c, 0, 64, 47
1, 470477, Control_c, 0, 64, 41
1, 470494, Control_c, 0, 64, 33
1, 470514, Control_c, 0, 64, 23
1, 470532, Control_c, 0, 64, 10
1, 470550, Control_c, 0, 64, 0
1, 470681, Control_c, 0, 64, 23
1, 470699, Control_c, 0, 64, 37
1, 470718, Control_c, 0, 64, 54
1, 470738, Control_c, 0, 64, 74
1, 470739, Control_c, 0, 67, 117
1, 470756, Control_c, 0, 64, 85
1, 470757, Control_c, 0, 67, 113
1, 470774, Control_c, 0, 64, 94
1, 470775, Control_c, 0, 67, 109
1, 470792, Control_c, 0, 64, 101
1, 470793, Control_c, 0, 67, 104
1, 470799, Note_on_c, 0, 49, 29
1, 470809, Control_c, 0, 64, 111
1, 470810, Control_c, 0, 67, 97
1, 470830, Control_c, 0, 64, 117
1, 470830, Control_c, 0, 67, 85
1, 470847, Control_c, 0, 67, 67
1, 470866, Control_c, 0, 64, 124
1, 470867, Control_c, 0, 67, 45
1, 470884, Control_c, 0, 67, 21
1, 470919, Control_c, 0, 67, 0
1, 471179, Note_on_c, 0, 58, 53
1, 471181, Note_on_c, 0, 43, 35
1, 471255, Poly_aftertouch_c, 0, 46, 24
1, 471306, Note_on_c, 0, 46, 0
1, 471306, Poly_aftertouch_c, 0, 46, 0
1, 471318, Control_c, 0, 64, 101
1, 471338, Control_c, 0, 64, 72
1, 471356, Control_c, 0, 64, 46
1, 471375, Note_on_c, 0, 61, 0
1, 471375, Control_c, 0, 64, 42
1, 471393, Control_c, 0, 64, 46
1, 471413, Control_c, 0, 64, 57
1, 471430, Control_c, 0, 64, 71
1, 471450, Control_c, 0, 64, 84
1, 471468, Control_c, 0, 64, 100
1, 471485, Control_c, 0, 64, 114
1, 471504, Control_c, 0, 64, 123
1, 471522, Control_c, 0, 64, 127
1, 471600, Note_on_c, 0, 46, 45
1, 471778, Note_on_c, 0, 49, 0
1, 472003, Note_on_c, 0, 44, 40
1, 472043, Poly_aftertouch_c, 0, 43, 24
1, 472047, Note_on_c, 0, 60, 65
1, 472112, Note_on_c, 0, 43, 0
1, 472112, Poly_aftertouch_c, 0, 43, 0
1, 472161, Note_on_c, 0, 58, 0
1, 472200, Control_c, 0, 64, 121
1, 472219, Control_c, 0, 64, 99
1, 472235, Control_c, 0, 64, 73
1, 472238, Note_on_c, 0, 46, 0
1, 472254, Control_c, 0, 64, 46
1, 472275, Control_c, 0, 64, 31
1, 472366, Control_c, 0, 64, 48
1, 472385, Control_c, 0, 64, 67
1, 472404, Control_c, 0, 64, 83
1, 472423, Control_c, 0, 64, 97
1, 472440, Control_c, 0, 64, 108
1, 472460, Control_c, 0, 64, 117
1, 472476, Note_on_c, 0, 48, 45
1, 472479, Control_c, 0, 64, 123
1, 472496, Control_c, 0, 64, 127
1, 472674, Note_on_c, 0, 44, 0
1, 472825, Note_on_c, 0, 43, 43
1, 472850, Note_on_c, 0, 63, 70
1, 472932, Note_on_c, 0, 60, 0
1, 472950, Control_c, 0, 64, 96
1, 472969, Control_c, 0, 64, 66
1, 472986, Control_c, 0, 64, 42
1, 473042, Control_c, 0, 64, 55
1, 473060, Control_c, 0, 64, 70
1, 473080, Control_c, 0, 64, 85
1, 473098, Control_c, 0, 64, 104
1, 473117, Control_c, 0, 64, 119
1, 473136, Control_c, 0, 64, 127
1, 473155, Note_on_c, 0, 48, 0
1, 473228, Note_on_c, 0, 46, 56
1, 473432, Note_on_c, 0, 43, 0
1, 473587, Note_on_c, 0, 41, 44
1, 473650, Note_on_c, 0, 68, 73
1, 473710, Control_c, 0, 64, 103
1, 473729, Control_c, 0, 64, 71
1, 473749, Control_c, 0, 64, 37
1, 473766, Control_c, 0, 64, 21
1, 473781, Note_on_c, 0, 46, 0
1, 473819, Note_on_c, 0, 63, 0
1, 473830, Control_c, 0, 64, 29
1, 473848, Control_c, 0, 64, 47
1, 473868, Control_c, 0, 64, 69
1, 473886, Control_c, 0, 64, 90
1, 473904, Control_c, 0, 64, 111
1, 473923, Control_c, 0, 64, 125
1, 474013, Note_on_c, 0, 44, 57
1, 474173, Note_on_c, 0, 41, 0
1, 474387, Note_on_c, 0, 40, 46
1, 474510, Note_on_c, 0, 70, 60
1, 474536, Control_c, 0, 64, 121
1, 474552, Control_c, 0, 64, 98
1, 474571, Control_c, 0, 64, 70
1, 474589, Control_c, 0, 64, 42
1, 474608, Control_c, 0, 64, 26
1, 474627, Control_c, 0, 64, 22
1, 474638, Note_on_c, 0, 44, 0
1, 474645, Note_on_c, 0, 68, 0
1, 474702, Control_c, 0, 64, 29
1, 474720, Control_c, 0, 64, 47
1, 474747, Control_c, 0, 64, 67
1, 474765, Control_c, 0, 64, 83
1, 474785, Control_c, 0, 64, 96
1, 474803, Control_c, 0, 64, 106
1, 474822, Control_c, 0, 64, 114
1, 474842, Control_c, 0, 64, 121
1, 474843, Control_c, 0, 67, 9
1, 474859, Control_c, 0, 64, 126
1, 474860, Control_c, 0, 67, 14
1, 474877, Control_c, 0, 67, 24
1, 474896, Control_c, 0, 67, 35
1, 474915, Control_c, 0, 67, 45
1, 474931, Control_c, 0, 67, 51
1, 474951, Control_c, 0, 67, 55
1, 474969, Control_c, 0, 67, 60
1, 474988, Control_c, 0, 67, 65
1, 475006, Control_c, 0, 67, 71
1, 475026, Control_c, 0, 67, 75
1, 475061, Control_c, 0, 67, 81
1, 475080, Control_c, 0, 67, 85
1, 475100, Control_c, 0, 67, 89
1, 475117, Control_c, 0, 67, 94
1, 475136, Control_c, 0, 67, 98
1, 475148, Note_on_c, 0, 48, 15
1, 475154, Control_c, 0, 67, 102
1, 475166, Note_on_c, 0, 40, 0
1, 475169, Note_on_c, 0, 48, 0
1, 475193, Control_c, 0, 67, 106
1, 475320, Control_c, 0, 67, 111
1, 475358, Control_c, 0, 67, 115
1, 475392, Note_on_c, 0, 67, 32
1, 475396, Control_c, 0, 67, 119
1, 475431, Control_c, 0, 67, 124
1, 475451, Note_on_c, 0, 39, 39
1, 475569, Poly_aftertouch_c, 0, 50, 0
1, 475700, Note_on_c, 0, 75, 64
1, 475702, Control_c, 0, 64, 114
1, 475719, Control_c, 0, 64, 96
1, 475739, Control_c, 0, 64, 73
1, 475758, Control_c, 0, 64, 46
1, 475775, Control_c, 0, 64, 23
1, 475796, Control_c, 0, 64, 18
1, 475813, Control_c, 0, 64, 11
1, 475832, Note_on_c, 0, 70, 0
1, 475832, Control_c, 0, 64, 0
1, 475924, Control_c, 0, 64, 26
1, 475942, Control_c, 0, 64, 51
1, 475962, Control_c, 0, 64, 74
1, 475978, Control_c, 0, 64, 88
1, 475996, Control_c, 0, 64, 101
1, 476016, Control_c, 0, 64, 113
1, 476034, Control_c, 0, 64, 122
1, 476053, Control_c, 0, 64, 127
1, 476198, Note_on_c, 0, 51, 30
1, 476213, Note_on_c, 0, 39, 0
1, 476275, Note_on_c, 0, 67, 0
1, 476294, Control_c, 0, 67, 120
1, 476350, Control_c, 0, 67, 115
1, 476386, Control_c, 0, 67, 110
1, 476423, Control_c, 0, 67, 105
1, 476442, Control_c, 0, 67, 101
1, 476460, Control_c, 0, 67, 93
1, 476478, Control_c, 0, 67, 81
1, 476498, Control_c, 0, 67, 67
1, 476516, Control_c, 0, 67, 52
1, 476535, Control_c, 0, 67, 39
1, 476551, Note_on_c, 0, 55, 41
1, 476551, Control_c, 0, 67, 27
1, 476571, Control_c, 0, 67, 17
1, 476606, Note_on_c, 0, 51, 0
1, 476617, Control_c, 0, 67, 0
1, 476924, Note_on_c, 0, 58, 48
1, 476951, Note_on_c, 0, 55, 0
1, 477011, Note_on_c, 0, 75, 0
1, 477308, Note_on_c, 0, 63, 59
1, 477616, Note_on_c, 0, 58, 0
1, 477694, Note_on_c, 0, 67, 52
1, 477863, Note_on_c, 0, 63, 0
1, 478155, Note_on_c, 0, 63, 36
1, 478288, Note_on_c, 0, 75, 70
1, 478399, Note_on_c, 0, 67, 0
1, 478462, Control_c, 0, 64, 107
1, 478490, Control_c, 0, 64, 78
1, 478492, Control_c, 0, 67, 8
1, 478508, Control_c, 0, 64, 48
1, 478526, Control_c, 0, 64, 28
1, 478527, Control_c, 0, 67, 13
1, 478546, Control_c, 0, 64, 23
1, 478547, Control_c, 0, 67, 17
1, 478564, Control_c, 0, 67, 22
1, 478582, Control_c, 0, 64, 19
1, 478583, Control_c, 0, 67, 27
1, 478602, Control_c, 0, 67, 32
1, 478620, Control_c, 0, 67, 38
1, 478640, Control_c, 0, 64, 32
1, 478640, Control_c, 0, 67, 47
1, 478657, Control_c, 0, 64, 46
1, 478659, Control_c, 0, 67, 59
1, 478674, Control_c, 0, 64, 63
1, 478676, Control_c, 0, 67, 70
1, 478693, Control_c, 0, 64, 78
1, 478695, Control_c, 0, 67, 77
1, 478713, Control_c, 0, 64, 91
1, 478714, Control_c, 0, 67, 85
1, 478731, Control_c, 0, 64, 102
1, 478732, Control_c, 0, 67, 92
1, 478749, Control_c, 0, 64, 114
1, 478750, Control_c, 0, 67, 101
1, 478767, Control_c, 0, 64, 123
1, 478768, Control_c, 0, 67, 109
1, 478776, Note_on_c, 0, 66, 34
1, 478786, Control_c, 0, 64, 127
1, 478786, Control_c, 0, 67, 113
1, 478822, Control_c, 0, 67, 118
1, 478841, Control_c, 0, 67, 122
1, 478878, Control_c, 0, 67, 127
1, 478952, Note_on_c, 0, 63, 0
1, 479173, Note_on_c, 0, 59, 43
1, 479286, Control_c, 0, 64, 112
1, 479305, Control_c, 0, 64, 80
1, 479325, Control_c, 0, 64, 45
1, 479342, Control_c, 0, 64, 21
1, 479397, Note_on_c, 0, 66, 0
1, 479425, Control_c, 0, 64, 39
1, 479444, Control_c, 0, 64, 56
1, 479462, Control_c, 0, 64, 76
1, 479481, Control_c, 0, 64, 92
1, 479500, Control_c, 0, 64, 108
1, 479517, Control_c, 0, 64, 121
1, 479519, Control_c, 0, 67, 119
1, 479538, Control_c, 0, 64, 127
1, 479538, Control_c, 0, 67, 114
1, 479554, Control_c, 0, 67, 107
1, 479561, Note_on_c, 0, 63, 45
1, 479575, Control_c, 0, 67, 94
1, 479591, Control_c, 0, 67, 74
1, 479611, Control_c, 0, 67, 49
1, 479629, Control_c, 0, 67, 22
1, 479649, Control_c, 0, 67, 0
1, 479665, Note_on_c, 0, 59, 0
1, 479897, Note_on_c, 0, 56, 40
1, 479970, Note_on_c, 0, 71, 62
1, 480019, Note_on_c, 0, 63, 0
1, 480056, Control_c, 0, 64, 108
1, 480075, Control_c, 0, 64, 78
1, 480094, Control_c, 0, 64, 55
1, 480111, Control_c, 0, 64, 53
1, 480130, Control_c, 0, 64, 58
1, 480147, Control_c, 0, 64, 69
1, 480168, Control_c, 0, 64, 79
1, 480185, Control_c, 0, 64, 92
1, 480198, Note_on_c, 0, 75, 0
1, 480204, Control_c, 0, 64, 109
1, 480224, Control_c, 0, 64, 126
1, 480350, Note_on_c, 0, 56, 0
1, 480355, Note_on_c, 0, 59, 49
1, 480760, Note_on_c, 0, 68, 62
1, 480785, Note_on_c, 0, 52, 36
1, 480898, Control_c, 0, 64, 102
1, 480917, Control_c, 0, 64, 71
1, 480936, Control_c, 0, 64, 47
1, 480945, Note_on_c, 0, 71, 0
1, 480953, Control_c, 0, 64, 45
1, 480973, Control_c, 0, 64, 47
1, 480993, Control_c, 0, 64, 56
1, 481010, Control_c, 0, 64, 66
1, 481029, Control_c, 0, 64, 76
1, 481049, Control_c, 0, 64, 90
1, 481065, Control_c, 0, 64, 109
1, 481083, Control_c, 0, 64, 124
1, 481142, Note_on_c, 0, 56, 52
1, 481191, Note_on_c, 0, 59, 0
1, 481328, Note_on_c, 0, 52, 0
1, 481510, Note_on_c, 0, 49, 45
1, 481521, Note_on_c, 0, 64, 68
1, 481595, Control_c, 0, 64, 105
1, 481612, Control_c, 0, 64, 74
1, 481630, Control_c, 0, 64, 49
1, 481652, Note_on_c, 0, 68, 0
1, 481667, Control_c, 0, 64, 52
1, 481674, Note_on_c, 0, 56, 0
1, 481686, Control_c, 0, 64, 62
1, 481706, Control_c, 0, 64, 72
1, 481724, Control_c, 0, 64, 85
1, 481741, Control_c, 0, 64, 102
1, 481761, Control_c, 0, 64, 119
1, 481779, Control_c, 0, 64, 127
1, 481893, Note_on_c, 0, 52, 54
1, 481949, Note_on_c, 0, 49, 0
1, 482406, Note_on_c, 0, 61, 59
1, 482413, Note_on_c, 0, 46, 39
1, 482537, Note_on_c, 0, 64, 0
1, 482584, Control_c, 0, 64, 108
1, 482603, Control_c, 0, 64, 78
1, 482622, Control_c, 0, 64, 46
1, 482640, Control_c, 0, 64, 20
1, 482680, Note_on_c, 0, 52, 0
1, 482716, Control_c, 0, 64, 36
1, 482717, Control_c, 0, 67, 8
1, 482732, Control_c, 0, 64, 52
1, 482750, Control_c, 0, 64, 73
1, 482770, Control_c, 0, 64, 88
1, 482788, Control_c, 0, 64, 102
1, 482808, Control_c, 0, 64, 112
1, 482825, Control_c, 0, 64, 122
1, 482828, Note_on_c, 0, 49, 49
1, 482844, Control_c, 0, 64, 127
1, 482862, Control_c, 0, 67, 12
1, 482940, Note_on_c, 0, 46, 0
1, 482955, Control_c, 0, 67, 17
1, 482973, Control_c, 0, 67, 21
1, 482993, Control_c, 0, 67, 30
1, 483012, Control_c, 0, 67, 39
1, 483028, Control_c, 0, 67, 46
1, 483048, Control_c, 0, 67, 50
1, 483079, Note_on_c, 0, 47, 50
1, 483086, Control_c, 0, 67, 57
1, 483102, Control_c, 0, 67, 61
1, 483121, Control_c, 0, 67, 67
1, 483136, Note_on_c, 0, 61, 0
1, 483140, Control_c, 0, 67, 72
1, 483168, Note_on_c, 0, 49, 0
1, 483169, Control_c, 0, 67, 77
1, 483176, Note_on_c, 0, 63, 55
1, 483205, Control_c, 0, 64, 92
1, 483207, Control_c, 0, 67, 84
1, 483224, Control_c, 0, 64, 59
1, 483244, Control_c, 0, 64, 51
1, 483245, Control_c, 0, 67, 90
1, 483262, Control_c, 0, 64, 59
1, 483266, Note_on_c, 0, 63, 0
1, 483281, Control_c, 0, 64, 69
1, 483282, Control_c, 0, 67, 94
1, 483290, Note_on_c, 0, 64, 52
1, 483296, Control_c, 0, 64, 81
1, 483317, Control_c, 0, 64, 100
1, 483334, Control_c, 0, 64, 120
1, 483352, Control_c, 0, 64, 127
1, 483361, Note_on_c, 0, 64, 0
1, 483378, Note_on_c, 0, 63, 61
1, 483418, Note_on_c, 0, 63, 0
1, 483427, Control_c, 0, 67, 98
1, 483451, Note_on_c, 0, 64, 52
1, 483502, Note_on_c, 0, 64, 0
1, 483524, Note_on_c, 0, 63, 59
1, 483535, Note_on_c, 0, 51, 38
1, 483558, Note_on_c, 0, 63, 0
1, 483572, Note_on_c, 0, 64, 60
1, 483575, Control_c, 0, 67, 102
1, 483612, Control_c, 0, 67, 107
1, 483619, Note_on_c, 0, 64, 0
1, 483647, Note_on_c, 0, 63, 62
1, 483705, Control_c, 0, 67, 112
1, 483713, Note_on_c, 0, 63, 0
1, 483735, Note_on_c, 0, 61, 70
1, 483741, Control_c, 0, 67, 118
1, 483780, Control_c, 0, 67, 123
1, 483802, Note_on_c, 0, 61, 0
1, 483817, Note_on_c, 0, 63, 64
1, 483837, Control_c, 0, 67, 127
1, 483871, Control_c, 0, 64, 123
1, 483891, Control_c, 0, 64, 118
1, 483908, Control_c, 0, 64, 114
1, 483935, Note_on_c, 0, 47, 0
1, 483946, Control_c, 0, 64, 106
1, 483965, Control_c, 0, 64, 100
1, 483983, Control_c, 0, 64, 93
1, 483998, Note_on_c, 0, 49, 38
1, 484003, Control_c, 0, 64, 88
1, 484022, Control_c, 0, 64, 85
1, 484037, Control_c, 0, 64, 82
1, 484051, Note_on_c, 0, 64, 55
1, 484056, Control_c, 0, 64, 77
1, 484076, Control_c, 0, 64, 70
1, 484103, Control_c, 0, 64, 64
1, 484106, Note_on_c, 0, 63, 0
1, 484123, Control_c, 0, 64, 57
1, 484138, Note_on_c, 0, 51, 0
1, 484141, Control_c, 0, 64, 52
1, 484160, Control_c, 0, 64, 45
1, 484178, Control_c, 0, 64, 34
1, 484197, Control_c, 0, 64, 18
1, 484217, Control_c, 0, 64, 0
1, 484251, Control_c, 0, 67, 122
1, 484270, Control_c, 0, 67, 117
1, 484289, Control_c, 0, 67, 111
1, 484308, Control_c, 0, 64, 15
1, 484310, Control_c, 0, 67, 105
1, 484327, Control_c, 0, 64, 35
1, 484328, Control_c, 0, 67, 94
1, 484345, Control_c, 0, 64, 52
1, 484346, Control_c, 0, 67, 73
1, 484363, Control_c, 0, 64, 74
1, 484365, Control_c, 0, 67, 41
1, 484383, Control_c, 0, 64, 87
1, 484402, Control_c, 0, 64, 98
1, 484402, Control_c, 0, 67, 0
1, 484417, Control_c, 0, 64, 104
1, 484436, Control_c, 0, 64, 111
1, 484455, Control_c, 0, 64, 118
1, 484475, Control_c, 0, 64, 123
1, 484511, Control_c, 0, 64, 127
1, 484548, Note_on_c, 0, 52, 36
1, 484892, Note_on_c, 0, 46, 38
1, 484945, Note_on_c, 0, 61, 61
1, 485058, Control_c, 0, 64, 116
1, 485076, Control_c, 0, 64, 94
1, 485093, Note_on_c, 0, 49, 0
1, 485095, Control_c, 0, 64, 67
1, 485113, Control_c, 0, 64, 43
1, 485133, Control_c, 0, 64, 38
1, 485136, Note_on_c, 0, 52, 0
1, 485168, Control_c, 0, 64, 43
1, 485186, Control_c, 0, 64, 55
1, 485206, Control_c, 0, 64, 68
1, 485211, Note_on_c, 0, 64, 0
1, 485224, Control_c, 0, 64, 81
1, 485244, Control_c, 0, 64, 95
1, 485262, Control_c, 0, 64, 107
1, 485280, Control_c, 0, 64, 116
1, 485299, Control_c, 0, 64, 121
1, 485312, Note_on_c, 0, 49, 45
1, 485337, Control_c, 0, 64, 127
1, 485577, Note_on_c, 0, 46, 0
1, 485780, Note_on_c, 0, 47, 44
1, 485800, Note_on_c, 0, 63, 66
1, 485928, Control_c, 0, 64, 117
1, 485947, Control_c, 0, 64, 98
1, 485956, Note_on_c, 0, 61, 0
1, 485974, Control_c, 0, 64, 71
1, 485994, Control_c, 0, 64, 40
1, 485998, Note_on_c, 0, 49, 0
1, 486012, Control_c, 0, 64, 14
1, 486032, Control_c, 0, 64, 10
1, 486086, Control_c, 0, 64, 14
1, 486104, Control_c, 0, 64, 32
1, 486122, Control_c, 0, 64, 49
1, 486142, Control_c, 0, 64, 70
1, 486159, Control_c, 0, 64, 84
1, 486179, Control_c, 0, 64, 95
1, 486198, Control_c, 0, 64, 102
1, 486215, Control_c, 0, 64, 109
1, 486235, Control_c, 0, 64, 115
1, 486253, Control_c, 0, 64, 120
1, 486267, Note_on_c, 0, 51, 39
1, 486271, Control_c, 0, 64, 124
1, 486611, Note_on_c, 0, 46, 42
1, 486695, Note_on_c, 0, 67, 52
1, 486741, Note_on_c, 0, 47, 0
1, 486786, Note_on_c, 0, 63, 0
1, 486790, Control_c, 0, 64, 109
1, 486809, Control_c, 0, 64, 82
1, 486829, Control_c, 0, 64, 52
1, 486844, Control_c, 0, 64, 27
1, 486864, Control_c, 0, 64, 23
1, 486929, Control_c, 0, 64, 27
1, 486947, Control_c, 0, 64, 43
1, 486966, Control_c, 0, 64, 61
1, 486985, Control_c, 0, 64, 81
1, 487004, Control_c, 0, 64, 95
1, 487023, Control_c, 0, 64, 106
1, 487039, Control_c, 0, 64, 115
1, 487049, Note_on_c, 0, 51, 0
1, 487057, Control_c, 0, 64, 122
1, 487077, Note_on_c, 0, 49, 49
1, 487078, Control_c, 0, 64, 127
1, 487112, Note_on_c, 0, 46, 0
1, 487156, Poly_aftertouch_c, 0, 51, 0
1, 487435, Note_on_c, 0, 44, 42
1, 487530, Note_on_c, 0, 68, 54
1, 487540, Control_c, 0, 64, 122
1, 487560, Control_c, 0, 64, 92
1, 487578, Control_c, 0, 64, 53
1, 487592, Note_on_c, 0, 67, 0
1, 487594, Control_c, 0, 64, 0
1, 487600, Note_on_c, 0, 49, 0
1, 487689, Control_c, 0, 64, 20
1, 487708, Control_c, 0, 64, 48
1, 487726, Control_c, 0, 64, 76
1, 487745, Control_c, 0, 64, 94
1, 487764, Control_c, 0, 64, 109
1, 487780, Control_c, 0, 64, 115
1, 487798, Control_c, 0, 64, 119
1, 487818, Control_c, 0, 64, 124
1, 487913, Note_on_c, 0, 68, 0
1, 487928, Note_on_c, 0, 70, 67
1, 487941, Note_on_c, 0, 47, 44
1, 488060, Note_on_c, 0, 44, 0
1, 488195, Note_on_c, 0, 70, 0
1, 488280, Note_on_c, 0, 40, 46
1, 488310, Note_on_c, 0, 71, 75
1, 488364, Control_c, 0, 64, 102
1, 488383, Control_c, 0, 64, 66
1, 488401, Control_c, 0, 64, 28
1, 488420, Control_c, 0, 64, 19
1, 488457, Control_c, 0, 64, 33
1, 488476, Control_c, 0, 64, 50
1, 488485, Note_on_c, 0, 47, 0
1, 488495, Control_c, 0, 64, 69
1, 488514, Control_c, 0, 64, 86
1, 488530, Control_c, 0, 64, 104
1, 488550, Control_c, 0, 64, 118
1, 488568, Control_c, 0, 64, 125
1, 488600, Note_on_c, 0, 71, 0
1, 488698, Note_on_c, 0, 44, 53
1, 488704, Note_on_c, 0, 73, 74
1, 488897, Note_on_c, 0, 40, 0
1, 489081, Note_on_c, 0, 39, 47
1, 489089, Note_on_c, 0, 68, 43
1, 489275, Note_on_c, 0, 44, 0
1, 489402, Note_on_c, 0, 75, 67
1, 489485, Control_c, 0, 64, 105
1, 489501, Note_on_c, 0, 73, 0
1, 489505, Control_c, 0, 64, 76
1, 489522, Control_c, 0, 64, 39
1, 489541, Control_c, 0, 64, 0
1, 489652, Control_c, 0, 64, 35
1, 489672, Control_c, 0, 64, 55
1, 489689, Control_c, 0, 64, 76
1, 489718, Control_c, 0, 64, 90
1, 489736, Control_c, 0, 64, 104
1, 489754, Control_c, 0, 64, 112
1, 489773, Control_c, 0, 64, 118
1, 489792, Control_c, 0, 64, 122
1, 489811, Control_c, 0, 64, 126
1, 489834, Note_on_c, 0, 48, 31
1, 489876, Note_on_c, 0, 39, 0
1, 490219, Note_on_c, 0, 51, 45
1, 490222, Note_on_c, 0, 48, 0
1, 490559, Note_on_c, 0, 60, 60
1, 490625, Note_on_c, 0, 51, 0
1, 491036, Note_on_c, 0, 63, 56
1, 491196, Note_on_c, 0, 60, 0
1, 491437, Note_on_c, 0, 63, 0
1, 491457, Note_on_c, 0, 60, 51
1, 491761, Note_on_c, 0, 51, 38
1, 491832, Note_on_c, 0, 60, 0
1, 491847, Note_on_c, 0, 72, 74
1, 491998, Note_on_c, 0, 68, 0
1, 492069, Note_on_c, 0, 75, 0
1, 492193, Note_on_c, 0, 51, 0
1, 492210, Note_on_c, 0, 48, 58
1, 492581, Note_on_c, 0, 39, 54
1, 492724, Note_on_c, 0, 69, 69
1, 492758, Note_on_c, 0, 48, 0
1, 492931, Note_on_c, 0, 75, 76
1, 493080, Control_c, 0, 64, 121
1, 493096, Note_on_c, 0, 72, 0
1, 493098, Control_c, 0, 64, 98
1, 493117, Control_c, 0, 64, 70
1, 493135, Control_c, 0, 64, 45
1, 493154, Control_c, 0, 64, 38
1, 493192, Control_c, 0, 64, 42
1, 493193, Note_on_c, 0, 48, 52
1, 493209, Control_c, 0, 64, 54
1, 493227, Control_c, 0, 64, 70
1, 493247, Control_c, 0, 64, 87
1, 493265, Control_c, 0, 64, 106
1, 493272, Note_on_c, 0, 39, 0
1, 493283, Control_c, 0, 64, 121
1, 493303, Control_c, 0, 64, 127
1, 493590, Note_on_c, 0, 51, 57
1, 493621, Note_on_c, 0, 48, 0
1, 493946, Note_on_c, 0, 60, 63
1, 494011, Note_on_c, 0, 51, 0
1, 494239, Control_c, 0, 67, 8
1, 494330, Control_c, 0, 67, 12
1, 494415, Control_c, 0, 67, 17
1, 494446, Note_on_c, 0, 63, 48
1, 494450, Control_c, 0, 67, 21
1, 494489, Control_c, 0, 67, 34
1, 494508, Control_c, 0, 67, 47
1, 494524, Control_c, 0, 67, 56
1, 494543, Control_c, 0, 67, 62
1, 494562, Control_c, 0, 64, 116
1, 494564, Control_c, 0, 67, 66
1, 494581, Control_c, 0, 64, 91
1, 494582, Control_c, 0, 67, 71
1, 494599, Control_c, 0, 64, 61
1, 494602, Note_on_c, 0, 60, 0
1, 494602, Control_c, 0, 67, 77
1, 494618, Control_c, 0, 64, 33
1, 494619, Control_c, 0, 67, 84
1, 494636, Control_c, 0, 64, 23
1, 494637, Control_c, 0, 67, 92
1, 494654, Control_c, 0, 67, 100
1, 494675, Control_c, 0, 67, 107
1, 494693, Control_c, 0, 64, 31
1, 494695, Control_c, 0, 67, 111
1, 494710, Control_c, 0, 64, 46
1, 494727, Control_c, 0, 64, 65
1, 494747, Control_c, 0, 64, 82
1, 494748, Control_c, 0, 67, 117
1, 494766, Control_c, 0, 64, 96
1, 494768, Control_c, 0, 67, 121
1, 494784, Control_c, 0, 64, 106
1, 494786, Control_c, 0, 67, 125
1, 494803, Control_c, 0, 64, 115
1, 494822, Control_c, 0, 64, 122
1, 494841, Control_c, 0, 64, 126
1, 494872, Note_on_c, 0, 61, 43
1, 494890, Note_on_c, 0, 63, 0
1, 494988, Note_on_c, 0, 61, 0
1, 494993, Note_on_c, 0, 69, 0
1, 495287, Note_on_c, 0, 51, 33
1, 495331, Note_on_c, 0, 70, 48
1, 495359, Note_on_c, 0, 67, 28
1, 495516, Control_c, 0, 64, 103
1, 495535, Control_c, 0, 64, 75
1, 495553, Control_c, 0, 64, 46
1, 495572, Note_on_c, 0, 75, 0
1, 495572, Control_c, 0, 64, 30
1, 495646, Control_c, 0, 64, 47
1, 495663, Control_c, 0, 64, 62
1, 495682, Control_c, 0, 64, 81
1, 495701, Control_c, 0, 64, 98
1, 495719, Control_c, 0, 64, 116
1, 495738, Control_c, 0, 64, 126
1, 495741, Note_on_c, 0, 49, 35
1, 495941, Note_on_c, 0, 51, 0
1, 496206, Note_on_c, 0, 44, 32
1, 496362, Note_on_c, 0, 72, 49
1, 496365, Note_on_c, 0, 49, 0
1, 496395, Note_on_c, 0, 68, 38
1, 496431, Note_on_c, 0, 67, 0
1, 496464, Note_on_c, 0, 70, 0
1, 496468, Control_c, 0, 64, 104
1, 496489, Control_c, 0, 64, 74
1, 496509, Control_c, 0, 64, 42
1, 496545, Control_c, 0, 64, 0
1, 496618, Control_c, 0, 64, 12
1, 496636, Control_c, 0, 64, 37
1, 496656, Control_c, 0, 64, 55
1, 496673, Control_c, 0, 64, 74
1, 496694, Control_c, 0, 64, 87
1, 496711, Control_c, 0, 64, 99
1, 496731, Control_c, 0, 64, 110
1, 496749, Control_c, 0, 64, 120
1, 496766, Control_c, 0, 64, 126
1, 496834, Note_on_c, 0, 51, 29
1, 496835, Note_on_c, 0, 44, 0
1, 497220, Note_on_c, 0, 56, 27
1, 497301, Note_on_c, 0, 51, 0
1, 497571, Note_on_c, 0, 68, 0
1, 497579, Note_on_c, 0, 56, 0
1, 497587, Note_on_c, 0, 60, 40
1, 498005, Note_on_c, 0, 63, 37
1, 498068, Note_on_c, 0, 60, 0
1, 498371, Poly_aftertouch_c, 0, 72, 20
1, 498382, Note_on_c, 0, 72, 0
1, 498382, Poly_aftertouch_c, 0, 72, 0
1, 498471, Note_on_c, 0, 68, 31
1, 498896, Poly_aftertouch_c, 0, 63, 24
1, 498957, Note_on_c, 0, 60, 30
1, 499021, Note_on_c, 0, 75, 48
1, 499043, Note_on_c, 0, 63, 0
1, 499043, Poly_aftertouch_c, 0, 63, 0
1, 499202, Control_c, 0, 64, 99
1, 499221, Control_c, 0, 64, 71
1, 499238, Note_on_c, 0, 68, 0
1, 499239, Control_c, 0, 64, 55
1, 499259, Control_c, 0, 64, 57
1, 499277, Control_c, 0, 64, 65
1, 499295, Control_c, 0, 64, 72
1, 499316, Control_c, 0, 64, 83
1, 499331, Control_c, 0, 64, 101
1, 499349, Control_c, 0, 64, 121
1, 499368, Control_c, 0, 64, 127
1, 499514, Note_on_c, 0, 63, 33
1, 499666, Note_on_c, 0, 60, 0
1, 499948, Note_on_c, 0, 56, 32
1, 499949, Note_on_c, 0, 72, 55
1, 500092, Note_on_c, 0, 63, 0
1, 500101, Note_on_c, 0, 75, 0
1, 500351, Note_on_c, 0, 56, 0
1, 500387, Note_on_c, 0, 60, 46
1, 500637, Control_c, 0, 67, 120
1, 500675, Control_c, 0, 67, 114
1, 500712, Control_c, 0, 67, 103
1, 500732, Control_c, 0, 67, 93
1, 500750, Control_c, 0, 67, 80
1, 500768, Control_c, 0, 67, 67
1, 500772, Note_on_c, 0, 68, 60
1, 500787, Control_c, 0, 67, 54
1, 500792, Note_on_c, 0, 53, 38
1, 500806, Control_c, 0, 67, 42
1, 500823, Control_c, 0, 67, 31
1, 500841, Control_c, 0, 67, 20
1, 500860, Control_c, 0, 67, 9
1, 500898, Control_c, 0, 67, 0
1, 500982, Note_on_c, 0, 72, 0
1, 501004, Note_on_c, 0, 60, 0
1, 501186, Note_on_c, 0, 56, 50
1, 501292, Note_on_c, 0, 53, 0
1, 501537, Note_on_c, 0, 49, 40
1, 501555, Note_on_c, 0, 65, 64
1, 501667, Control_c, 0, 64, 117
1, 501685, Control_c, 0, 64, 87
1, 501704, Control_c, 0, 64, 58
1, 501723, Control_c, 0, 64, 50
1, 501726, Note_on_c, 0, 56, 0
1, 501733, Note_on_c, 0, 68, 0
1, 501739, Control_c, 0, 64, 52
1, 501759, Control_c, 0, 64, 61
1, 501777, Control_c, 0, 64, 72
1, 501795, Control_c, 0, 64, 85
1, 501816, Control_c, 0, 64, 103
1, 501833, Control_c, 0, 64, 120
1, 501851, Control_c, 0, 64, 127
1, 501947, Note_on_c, 0, 49, 0
1, 501952, Note_on_c, 0, 53, 49
1, 502324, Note_on_c, 0, 61, 57
1, 502351, Note_on_c, 0, 46, 41
1, 502455, Control_c, 0, 64, 109
1, 502458, Note_on_c, 0, 65, 0
1, 502474, Control_c, 0, 64, 77
1, 502492, Control_c, 0, 64, 49
1, 502502, Note_on_c, 0, 53, 0
1, 502508, Control_c, 0, 64, 45
1, 502527, Control_c, 0, 64, 49
1, 502545, Control_c, 0, 64, 60
1, 502566, Control_c, 0, 64, 72
1, 502583, Control_c, 0, 64, 86
1, 502602, Control_c, 0, 64, 103
1, 502621, Control_c, 0, 64, 119
1, 502639, Control_c, 0, 64, 127
1, 502713, Control_c, 0, 67, 8
1, 502746, Note_on_c, 0, 49, 45
1, 502963, Note_on_c, 0, 46, 0
1, 503274, Note_on_c, 0, 43, 32
1, 503298, Note_on_c, 0, 58, 57
1, 503408, Control_c, 0, 67, 12
1, 503414, Note_on_c, 0, 49, 0
1, 503427, Control_c, 0, 67, 17
1, 503444, Control_c, 0, 67, 25
1, 503462, Control_c, 0, 67, 30
1, 503480, Note_on_c, 0, 61, 0
1, 503480, Control_c, 0, 64, 113
1, 503482, Control_c, 0, 67, 35
1, 503501, Control_c, 0, 64, 87
1, 503502, Control_c, 0, 67, 40
1, 503519, Control_c, 0, 64, 57
1, 503521, Control_c, 0, 67, 46
1, 503539, Control_c, 0, 64, 36
1, 503540, Control_c, 0, 67, 52
1, 503557, Control_c, 0, 67, 58
1, 503575, Control_c, 0, 67, 63
1, 503594, Control_c, 0, 64, 43
1, 503595, Control_c, 0, 67, 69
1, 503613, Control_c, 0, 64, 56
1, 503614, Control_c, 0, 67, 73
1, 503631, Control_c, 0, 64, 70
1, 503632, Control_c, 0, 67, 79
1, 503649, Control_c, 0, 64, 85
1, 503651, Control_c, 0, 67, 84
1, 503667, Control_c, 0, 64, 101
1, 503668, Control_c, 0, 67, 90
1, 503686, Control_c, 0, 64, 113
1, 503687, Control_c, 0, 67, 96
1, 503705, Control_c, 0, 64, 122
1, 503705, Control_c, 0, 67, 101
1, 503720, Note_on_c, 0, 46, 45
1, 503723, Control_c, 0, 64, 127
1, 503725, Control_c, 0, 67, 106
1, 503769, Control_c, 0, 67, 112
1, 503807, Control_c, 0, 67, 117
1, 503843, Control_c, 0, 67, 124
1, 503867, Note_on_c, 0, 43, 0
1, 503982, Note_on_c, 0, 44, 43
1, 504035, Note_on_c, 0, 58, 0
1, 504063, Note_on_c, 0, 46, 0
1, 504072, Note_on_c, 0, 60, 56
1, 504085, Control_c, 0, 64, 104
1, 504102, Control_c, 0, 64, 71
1, 504121, Control_c, 0, 64, 54
1, 504140, Control_c, 0, 64, 59
1, 504150, Note_on_c, 0, 60, 0
1, 504158, Control_c, 0, 64, 69
1, 504176, Control_c, 0, 64, 79
1, 504185, Note_on_c, 0, 61, 39
1, 504193, Control_c, 0, 64, 96
1, 504213, Control_c, 0, 64, 116
1, 504233, Control_c, 0, 64, 127
1, 504239, Note_on_c, 0, 61, 0
1, 504276, Note_on_c, 0, 60, 49
1, 504313, Note_on_c, 0, 60, 0
1, 504340, Note_on_c, 0, 61, 53
1, 504369, Note_on_c, 0, 61, 0
1, 504426, Note_on_c, 0, 60, 41
1, 504454, Note_on_c, 0, 61, 66
1, 504476, Note_on_c, 0, 48, 36
1, 504500, Note_on_c, 0, 61, 0
1, 504522, Note_on_c, 0, 60, 0
1, 504522, Note_on_c, 0, 60, 51
1, 504606, Note_on_c, 0, 60, 0
1, 504619, Note_on_c, 0, 58, 62
1, 504628, Note_on_c, 0, 44, 0
1, 504712, Note_on_c, 0, 58, 0
1, 504744, Note_on_c, 0, 60, 61
1, 504871, Control_c, 0, 64, 123
1, 504909, Control_c, 0, 64, 117
1, 504927, Control_c, 0, 64, 111
1, 504936, Note_on_c, 0, 46, 33
1, 504943, Control_c, 0, 64, 102
1, 504964, Control_c, 0, 64, 89
1, 504982, Control_c, 0, 64, 75
1, 505002, Control_c, 0, 64, 67
1, 505018, Note_on_c, 0, 61, 51
1, 505020, Control_c, 0, 64, 65
1, 505038, Control_c, 0, 64, 62
1, 505046, Note_on_c, 0, 48, 0
1, 505056, Control_c, 0, 64, 57
1, 505076, Control_c, 0, 64, 49
1, 505084, Note_on_c, 0, 60, 0
1, 505094, Control_c, 0, 64, 37
1, 505113, Control_c, 0, 64, 24
1, 505130, Control_c, 0, 64, 15
1, 505149, Control_c, 0, 64, 10
1, 505186, Control_c, 0, 64, 0
1, 505280, Control_c, 0, 64, 15
1, 505298, Control_c, 0, 64, 33
1, 505316, Control_c, 0, 64, 50
1, 505335, Control_c, 0, 64, 68
1, 505353, Control_c, 0, 64, 77
1, 505371, Control_c, 0, 64, 85
1, 505391, Control_c, 0, 64, 93
1, 505408, Control_c, 0, 64, 101
1, 505427, Control_c, 0, 64, 109
1, 505448, Control_c, 0, 64, 117
1, 505464, Control_c, 0, 64, 122
1, 505483, Control_c, 0, 64, 126
1, 505484, Control_c, 0, 67, 119
1, 505495, Note_on_c, 0, 49, 29
1, 505520, Control_c, 0, 67, 115
1, 505557, Control_c, 0, 67, 110
1, 505575, Control_c, 0, 67, 105
1, 505594, Control_c, 0, 67, 99
1, 505623, Control_c, 0, 67, 91
1, 505640, Control_c, 0, 67, 81
1, 505660, Control_c, 0, 67, 70
1, 505678, Control_c, 0, 67, 58
1, 505696, Control_c, 0, 67, 46
1, 505713, Control_c, 0, 67, 35
1, 505733, Control_c, 0, 67, 25
1, 505751, Control_c, 0, 67, 16
1, 505770, Control_c, 0, 67, 9
1, 505885, Note_on_c, 0, 58, 49
1, 505886, Note_on_c, 0, 43, 30
1, 506065, Control_c, 0, 64, 106
1, 506068, Note_on_c, 0, 46, 0
1, 506085, Control_c, 0, 64, 82
1, 506103, Control_c, 0, 64, 57
1, 506117, Note_on_c, 0, 61, 0
1, 506120, Control_c, 0, 64, 49
1, 506141, Control_c, 0, 67, 0
1, 506159, Control_c, 0, 64, 57
1, 506179, Control_c, 0, 64, 65
1, 506196, Control_c, 0, 64, 76
1, 506216, Control_c, 0, 64, 89
1, 506234, Control_c, 0, 64, 105
1, 506251, Control_c, 0, 64, 119
1, 506271, Control_c, 0, 64, 127
1, 506293, Note_on_c, 0, 46, 48
1, 506466, Note_on_c, 0, 49, 0
1, 506736, Note_on_c, 0, 44, 42
1, 506761, Note_on_c, 0, 60, 64
1, 506817, Poly_aftertouch_c, 0, 43, 24
1, 506875, Note_on_c, 0, 43, 0
1, 506875, Poly_aftertouch_c, 0, 43, 0
1, 506924, Note_on_c, 0, 58, 0
1, 506947, Control_c, 0, 64, 110
1, 506958, Note_on_c, 0, 46, 0
1, 506965, Control_c, 0, 64, 90
1, 506985, Control_c, 0, 64, 65
1, 507001, Control_c, 0, 64, 42
1, 507020, Control_c, 0, 64, 31
1, 507095, Control_c, 0, 64, 36
1, 507114, Control_c, 0, 64, 49
1, 507132, Control_c, 0, 64, 67
1, 507151, Control_c, 0, 64, 82
1, 507170, Control_c, 0, 64, 94
1, 507175, Note_on_c, 0, 48, 52
1, 507188, Control_c, 0, 64, 104
1, 507205, Control_c, 0, 64, 113
1, 507224, Control_c, 0, 64, 121
1, 507244, Control_c, 0, 64, 126
1, 507420, Note_on_c, 0, 44, 0
1, 507543, Note_on_c, 0, 63, 68
1, 507554, Note_on_c, 0, 43, 47
1, 507634, Note_on_c, 0, 60, 0
1, 507660, Control_c, 0, 64, 117
1, 507679, Control_c, 0, 64, 95
1, 507697, Control_c, 0, 64, 68
1, 507715, Control_c, 0, 64, 40
1, 507734, Control_c, 0, 64, 26
1, 507808, Control_c, 0, 64, 39
1, 507826, Control_c, 0, 64, 52
1, 507835, Note_on_c, 0, 48, 0
1, 507845, Control_c, 0, 64, 71
1, 507864, Control_c, 0, 64, 85
1, 507882, Control_c, 0, 64, 97
1, 507901, Control_c, 0, 64, 106
1, 507918, Note_on_c, 0, 46, 64
1, 507920, Control_c, 0, 64, 116
1, 507937, Control_c, 0, 64, 123
1, 507956, Control_c, 0, 64, 127
1, 508036, Note_on_c, 0, 43, 0
1, 508262, Note_on_c, 0, 41, 50
1, 508358, Note_on_c, 0, 68, 72
1, 508419, Control_c, 0, 64, 120
1, 508441, Note_on_c, 0, 46, 0
1, 508447, Control_c, 0, 64, 102
1, 508466, Control_c, 0, 64, 76
1, 508485, Control_c, 0, 64, 44
1, 508502, Control_c, 0, 64, 8
1, 508520, Control_c, 0, 64, 0
1, 508571, Note_on_c, 0, 63, 0
1, 508576, Control_c, 0, 64, 13
1, 508595, Control_c, 0, 64, 33
1, 508614, Control_c, 0, 64, 51
1, 508633, Control_c, 0, 64, 71
1, 508651, Control_c, 0, 64, 83
1, 508670, Control_c, 0, 64, 92
1, 508687, Control_c, 0, 64, 100
1, 508706, Control_c, 0, 64, 109
1, 508724, Note_on_c, 0, 44, 61
1, 508724, Control_c, 0, 64, 117
1, 508743, Control_c, 0, 64, 123
1, 508762, Control_c, 0, 64, 127
1, 508918, Note_on_c, 0, 41, 0
1, 509148, Note_on_c, 0, 40, 55
1, 509238, Note_on_c, 0, 70, 60
1, 509353, Note_on_c, 0, 68, 0
1, 509354, Control_c, 0, 64, 106
1, 509379, Note_on_c, 0, 44, 0
1, 509383, Control_c, 0, 64, 77
1, 509385, Control_c, 0, 67, 9
1, 509402, Control_c, 0, 64, 46
1, 509403, Control_c, 0, 67, 15
1, 509421, Control_c, 0, 64, 22
1, 509422, Control_c, 0, 67, 22
1, 509437, Control_c, 0, 67, 26
1, 509457, Control_c, 0, 67, 31
1, 509475, Control_c, 0, 64, 28
1, 509476, Control_c, 0, 67, 36
1, 509494, Control_c, 0, 64, 42
1, 509495, Control_c, 0, 67, 42
1, 509513, Control_c, 0, 64, 59
1, 509514, Control_c, 0, 67, 49
1, 509531, Control_c, 0, 64, 77
1, 509533, Control_c, 0, 67, 56
1, 509551, Control_c, 0, 64, 89
1, 509553, Control_c, 0, 67, 65
1, 509568, Control_c, 0, 64, 100
1, 509569, Control_c, 0, 67, 73
1, 509587, Control_c, 0, 64, 109
1, 509588, Control_c, 0, 67, 81
1, 509606, Control_c, 0, 64, 118
1, 509608, Control_c, 0, 67, 88
1, 509622, Control_c, 0, 64, 125
1, 509623, Control_c, 0, 67, 96
1, 509641, Control_c, 0, 67, 104
1, 509661, Control_c, 0, 67, 111
1, 509678, Control_c, 0, 67, 115
1, 509704, Note_on_c, 0, 50, 42
1, 509716, Control_c, 0, 67, 121
1, 509753, Control_c, 0, 67, 127
1, 509811, Note_on_c, 0, 40, 0
1, 510116, Note_on_c, 0, 39, 38
1, 510178, Note_on_c, 0, 67, 29
1, 510263, Note_on_c, 0, 50, 0
1, 510433, Note_on_c, 0, 75, 60
1, 510523, Control_c, 0, 64, 117
1, 510541, Control_c, 0, 64, 98
1, 510558, Control_c, 0, 64, 72
1, 510565, Note_on_c, 0, 70, 0
1, 510577, Control_c, 0, 64, 43
1, 510596, Control_c, 0, 64, 23
1, 510670, Control_c, 0, 64, 31
1, 510689, Control_c, 0, 64, 47
1, 510708, Control_c, 0, 64, 67
1, 510727, Control_c, 0, 64, 84
1, 510743, Control_c, 0, 64, 99
1, 510762, Control_c, 0, 64, 109
1, 510781, Control_c, 0, 64, 119
1, 510800, Control_c, 0, 64, 126
1, 510904, Note_on_c, 0, 51, 32
1, 510941, Note_on_c, 0, 39, 0
1, 511109, Note_on_c, 0, 67, 0
1, 511268, Note_on_c, 0, 51, 0
1, 511282, Note_on_c, 0, 55, 38
1, 511637, Note_on_c, 0, 75, 0
1, 511667, Note_on_c, 0, 55, 0
1, 511667, Note_on_c, 0, 58, 41
1, 511679, Control_c, 0, 67, 123
1, 511717, Control_c, 0, 67, 118
1, 511754, Control_c, 0, 67, 112
1, 511773, Control_c, 0, 67, 107
1, 511793, Control_c, 0, 67, 100
1, 511810, Control_c, 0, 67, 90
1, 511828, Control_c, 0, 67, 78
1, 511849, Control_c, 0, 67, 64
1, 511864, Control_c, 0, 67, 50
1, 511883, Control_c, 0, 67, 37
1, 511901, Control_c, 0, 67, 25
1, 511920, Control_c, 0, 67, 14
1, 511958, Control_c, 0, 67, 0
1, 512068, Note_on_c, 0, 63, 43
1, 512189, Note_on_c, 0, 58, 0
1, 512472, Note_on_c, 0, 67, 40
1, 512632, Note_on_c, 0, 63, 0
1, 512955, Note_on_c, 0, 63, 33
1, 513058, Note_on_c, 0, 75, 64
1, 513199, Control_c, 0, 67, 8
1, 513205, Note_on_c, 0, 67, 0
1, 513273, Control_c, 0, 67, 12
1, 513329, Control_c, 0, 67, 18
1, 513348, Control_c, 0, 67, 25
1, 513366, Control_c, 0, 64, 102
1, 513368, Control_c, 0, 67, 34
1, 513385, Control_c, 0, 64, 75
1, 513388, Control_c, 0, 67, 40
1, 513403, Control_c, 0, 64, 49
1, 513404, Control_c, 0, 67, 44
1, 513421, Control_c, 0, 64, 37
1, 513422, Control_c, 0, 67, 48
1, 513439, Control_c, 0, 67, 52
1, 513459, Control_c, 0, 67, 56
1, 513478, Control_c, 0, 64, 41
1, 513480, Control_c, 0, 67, 61
1, 513497, Control_c, 0, 64, 50
1, 513498, Control_c, 0, 67, 65
1, 513515, Control_c, 0, 64, 61
1, 513533, Control_c, 0, 64, 76
1, 513550, Control_c, 0, 64, 89
1, 513552, Control_c, 0, 67, 69
1, 513570, Control_c, 0, 64, 104
1, 513577, Note_on_c, 0, 66, 35
1, 513588, Control_c, 0, 64, 116
1, 513607, Control_c, 0, 64, 125
1, 513715, Note_on_c, 0, 63, 0
1, 513717, Control_c, 0, 67, 73
1, 513755, Control_c, 0, 67, 79
1, 513773, Control_c, 0, 67, 84
1, 513791, Control_c, 0, 67, 88
1, 513828, Control_c, 0, 67, 95
1, 513866, Control_c, 0, 67, 102
1, 513904, Control_c, 0, 67, 108
1, 513958, Control_c, 0, 67, 112
1, 513985, Note_on_c, 0, 59, 38
1, 513995, Control_c, 0, 67, 117
1, 514033, Control_c, 0, 67, 123
1, 514079, Control_c, 0, 67, 127
1, 514172, Control_c, 0, 64, 109
1, 514191, Control_c, 0, 64, 81
1, 514210, Control_c, 0, 64, 52
1, 514228, Control_c, 0, 64, 32
1, 514300, Control_c, 0, 64, 42
1, 514320, Control_c, 0, 64, 56
1, 514325, Note_on_c, 0, 66, 0
1, 514339, Control_c, 0, 64, 71
1, 514356, Control_c, 0, 64, 86
1, 514376, Control_c, 0, 64, 99
1, 514394, Control_c, 0, 64, 108
1, 514413, Control_c, 0, 64, 116
1, 514430, Note_on_c, 0, 63, 40
1, 514430, Control_c, 0, 64, 123
1, 514450, Control_c, 0, 64, 127
1, 514574, Note_on_c, 0, 59, 0
1, 514808, Note_on_c, 0, 56, 32
1, 514861, Note_on_c, 0, 71, 50
1, 514970, Control_c, 0, 64, 103
1, 514997, Control_c, 0, 64, 73
1, 515008, Note_on_c, 0, 63, 0
1, 515015, Control_c, 0, 64, 46
1, 515032, Note_on_c, 0, 75, 0
1, 515034, Control_c, 0, 64, 41
1, 515070, Control_c, 0, 64, 50
1, 515088, Control_c, 0, 64, 62
1, 515107, Control_c, 0, 64, 72
1, 515126, Control_c, 0, 64, 85
1, 515144, Control_c, 0, 64, 100
1, 515163, Control_c, 0, 64, 113
1, 515182, Control_c, 0, 64, 120
1, 515201, Control_c, 0, 64, 124
1, 515287, Note_on_c, 0, 59, 40
1, 515305, Note_on_c, 0, 56, 0
1, 515440, Control_c, 0, 67, 123
1, 515460, Control_c, 0, 67, 119
1, 515495, Control_c, 0, 67, 112
1, 515533, Control_c, 0, 67, 104
1, 515553, Control_c, 0, 67, 97
1, 515571, Control_c, 0, 67, 88
1, 515590, Control_c, 0, 67, 75
1, 515606, Control_c, 0, 67, 60
1, 515626, Control_c, 0, 67, 45
1, 515644, Control_c, 0, 67, 31
1, 515662, Control_c, 0, 67, 19
1, 515682, Control_c, 0, 67, 9
1, 515686, Note_on_c, 0, 68, 61
1, 515689, Note_on_c, 0, 52, 39
1, 515719, Control_c, 0, 67, 0
1, 515848, Control_c, 0, 64, 120
1, 515866, Control_c, 0, 64, 100
1, 515881, Note_on_c, 0, 71, 0
1, 515885, Control_c, 0, 64, 93
1, 515933, Control_c, 0, 64, 103
1, 515950, Control_c, 0, 64, 109
1, 515970, Control_c, 0, 64, 119
1, 515987, Control_c, 0, 64, 127
1, 516067, Note_on_c, 0, 56, 54
1, 516095, Note_on_c, 0, 59, 0
1, 516203, Note_on_c, 0, 52, 0
1, 516442, Note_on_c, 0, 49, 44
1, 516457, Note_on_c, 0, 64, 63
1, 516506, Control_c, 0, 64, 121
1, 516526, Control_c, 0, 64, 94
1, 516543, Control_c, 0, 64, 67
1, 516551, Note_on_c, 0, 68, 0
1, 516561, Control_c, 0, 64, 57
1, 516581, Control_c, 0, 64, 62
1, 516598, Control_c, 0, 64, 72
1, 516617, Control_c, 0, 64, 83
1, 516636, Control_c, 0, 64, 99
1, 516655, Control_c, 0, 64, 115
1, 516657, Note_on_c, 0, 56, 0
1, 516673, Control_c, 0, 64, 127
1, 516842, Note_on_c, 0, 52, 53
1, 516877, Note_on_c, 0, 49, 0
1, 517162, Control_c, 0, 67, 10
1, 517182, Control_c, 0, 67, 15
1, 517201, Control_c, 0, 67, 20
1, 517220, Control_c, 0, 67, 24
1, 517238, Control_c, 0, 67, 28
1, 517257, Control_c, 0, 67, 33
1, 517293, Control_c, 0, 67, 39
1, 517330, Control_c, 0, 67, 43
1, 517342, Note_on_c, 0, 61, 59
1, 517374, Note_on_c, 0, 46, 36
1, 517386, Control_c, 0, 67, 48
1, 517442, Control_c, 0, 67, 55
1, 517477, Note_on_c, 0, 64, 0
1, 517477, Control_c, 0, 67, 61
1, 517498, Control_c, 0, 64, 118
1, 517499, Control_c, 0, 67, 65
1, 517516, Control_c, 0, 64, 97
1, 517518, Control_c, 0, 67, 69
1, 517534, Control_c, 0, 64, 72
1, 517537, Control_c, 0, 67, 73
1, 517553, Control_c, 0, 64, 48
1, 517554, Control_c, 0, 67, 78
1, 517572, Control_c, 0, 64, 37
1, 517573, Control_c, 0, 67, 84
1, 517590, Control_c, 0, 67, 89
1, 517597, Note_on_c, 0, 52, 0
1, 517610, Control_c, 0, 67, 94
1, 517629, Control_c, 0, 64, 41
1, 517630, Control_c, 0, 67, 99
1, 517646, Control_c, 0, 64, 51
1, 517647, Control_c, 0, 67, 103
1, 517663, Control_c, 0, 64, 63
1, 517682, Control_c, 0, 64, 79
1, 517684, Control_c, 0, 67, 110
1, 517701, Control_c, 0, 64, 93
1, 517719, Control_c, 0, 64, 106
1, 517720, Control_c, 0, 67, 115
1, 517738, Control_c, 0, 64, 115
1, 517757, Control_c, 0, 64, 122
1, 517758, Control_c, 0, 67, 121
1, 517775, Note_on_c, 0, 49, 44
1, 517777, Control_c, 0, 64, 127
1, 517803, Control_c, 0, 67, 125
1, 517909, Note_on_c, 0, 46, 0
1, 518022, Note_on_c, 0, 47, 42
1, 518088, Note_on_c, 0, 61, 0
1, 518098, Control_c, 0, 64, 99
1, 518107, Note_on_c, 0, 49, 0
1, 518113, Note_on_c, 0, 63, 48
1, 518117, Control_c, 0, 64, 71
1, 518138, Control_c, 0, 64, 64
1, 518156, Control_c, 0, 64, 69
1, 518174, Control_c, 0, 64, 77
1, 518193, Control_c, 0, 64, 88
1, 518201, Note_on_c, 0, 63, 0
1, 518210, Control_c, 0, 64, 105
1, 518224, Note_on_c, 0, 64, 55
1, 518228, Control_c, 0, 64, 122
1, 518247, Control_c, 0, 64, 127
1, 518299, Note_on_c, 0, 64, 0
1, 518332, Note_on_c, 0, 63, 54
1, 518372, Note_on_c, 0, 63, 0
1, 518385, Note_on_c, 0, 64, 51
1, 518442, Note_on_c, 0, 64, 0
1, 518470, Note_on_c, 0, 63, 60
1, 518475, Note_on_c, 0, 51, 36
1, 518508, Note_on_c, 0, 63, 0
1, 518524, Note_on_c, 0, 64, 45
1, 518580, Note_on_c, 0, 64, 0
1, 518587, Note_on_c, 0, 63, 58
1, 518626, Note_on_c, 0, 63, 0
1, 518681, Note_on_c, 0, 61, 63
1, 518749, Note_on_c, 0, 61, 0
1, 518765, Note_on_c, 0, 63, 58
1, 518941, Note_on_c, 0, 49, 38
1, 518962, Control_c, 0, 64, 118
1, 518979, Control_c, 0, 64, 106
1, 518997, Control_c, 0, 64, 91
1, 519015, Note_on_c, 0, 64, 49
1, 519017, Control_c, 0, 64, 74
1, 519033, Note_on_c, 0, 47, 0
1, 519034, Control_c, 0, 64, 60
1, 519052, Note_on_c, 0, 63, 0
1, 519052, Control_c, 0, 64, 53
1, 519056, Note_on_c, 0, 51, 0
1, 519072, Control_c, 0, 64, 48
1, 519092, Control_c, 0, 64, 41
1, 519109, Control_c, 0, 64, 28
1, 519129, Control_c, 0, 64, 14
1, 519164, Control_c, 0, 64, 0
1, 519295, Control_c, 0, 64, 21
1, 519313, Control_c, 0, 64, 39
1, 519333, Control_c, 0, 64, 55
1, 519349, Control_c, 0, 64, 71
1, 519368, Control_c, 0, 64, 80
1, 519386, Control_c, 0, 64, 89
1, 519405, Control_c, 0, 64, 98
1, 519424, Control_c, 0, 64, 106
1, 519442, Control_c, 0, 64, 114
1, 519456, Note_on_c, 0, 52, 37
1, 519459, Control_c, 0, 64, 120
1, 519480, Control_c, 0, 64, 126
1, 519729, Control_c, 0, 67, 120
1, 519766, Control_c, 0, 67, 112
1, 519785, Control_c, 0, 67, 104
1, 519803, Control_c, 0, 67, 95
1, 519823, Control_c, 0, 67, 82
1, 519841, Control_c, 0, 67, 67
1, 519841, Note_on_c, 0, 46, 39
1, 519860, Control_c, 0, 67, 50
1, 519879, Control_c, 0, 67, 34
1, 519880, Note_on_c, 0, 61, 59
1, 519897, Control_c, 0, 67, 20
1, 519915, Control_c, 0, 67, 8
1, 519932, Control_c, 0, 67, 0
1, 519972, Control_c, 0, 64, 117
1, 519980, Note_on_c, 0, 49, 0
1, 519989, Control_c, 0, 64, 94
1, 520008, Control_c, 0, 64, 67
1, 520026, Control_c, 0, 64, 44
1, 520045, Control_c, 0, 64, 39
1, 520083, Control_c, 0, 64, 42
1, 520100, Control_c, 0, 64, 52
1, 520107, Note_on_c, 0, 64, 0
1, 520118, Control_c, 0, 64, 64
1, 520136, Control_c, 0, 64, 78
1, 520156, Control_c, 0, 64, 91
1, 520175, Control_c, 0, 64, 104
1, 520177, Note_on_c, 0, 52, 0
1, 520193, Control_c, 0, 64, 115
1, 520212, Control_c, 0, 64, 123
1, 520228, Control_c, 0, 64, 127
1, 520248, Note_on_c, 0, 49, 44
1, 520382, Note_on_c, 0, 46, 0
1, 520664, Note_on_c, 0, 47, 38
1, 520750, Note_on_c, 0, 63, 61
1, 520823, Note_on_c, 0, 49, 0
1, 520889, Control_c, 0, 64, 107
1, 520898, Note_on_c, 0, 61, 0
1, 520905, Control_c, 0, 64, 81
1, 520925, Control_c, 0, 64, 53
1, 520944, Control_c, 0, 64, 27
1, 520963, Control_c, 0, 64, 17
1, 521036, Control_c, 0, 67, 9
1, 521053, Control_c, 0, 64, 34
1, 521073, Control_c, 0, 64, 47
1, 521074, Control_c, 0, 67, 15
1, 521091, Control_c, 0, 64, 66
1, 521092, Control_c, 0, 67, 20
1, 521111, Control_c, 0, 64, 78
1, 521112, Control_c, 0, 67, 28
1, 521129, Control_c, 0, 64, 87
1, 521132, Control_c, 0, 67, 40
1, 521147, Control_c, 0, 64, 96
1, 521148, Control_c, 0, 67, 49
1, 521164, Control_c, 0, 64, 106
1, 521165, Control_c, 0, 67, 55
1, 521183, Control_c, 0, 64, 117
1, 521184, Control_c, 0, 67, 63
1, 521190, Note_on_c, 0, 51, 31
1, 521203, Control_c, 0, 64, 125
1, 521205, Control_c, 0, 67, 72
1, 521220, Control_c, 0, 67, 80
1, 521239, Control_c, 0, 67, 86
1, 521258, Control_c, 0, 67, 92
1, 521276, Control_c, 0, 67, 96
1, 521314, Control_c, 0, 67, 101
1, 521350, Control_c, 0, 67, 106
1, 521387, Control_c, 0, 67, 111
1, 521454, Note_on_c, 0, 47, 0
1, 521569, Note_on_c, 0, 46, 38
1, 521621, Note_on_c, 0, 67, 59
1, 521725, Note_on_c, 0, 63, 0
1, 521750, Control_c, 0, 64, 115
1, 521769, Control_c, 0, 64, 88
1, 521786, Control_c, 0, 64, 58
1, 521804, Control_c, 0, 64, 30
1, 521824, Control_c, 0, 64, 19
1, 521861, Control_c, 0, 67, 107
1, 521899, Control_c, 0, 64, 29
1, 521900, Control_c, 0, 67, 100
1, 521915, Control_c, 0, 64, 44
1, 521916, Control_c, 0, 67, 96
1, 521933, Control_c, 0, 64, 64
1, 521934, Control_c, 0, 67, 90
1, 521953, Control_c, 0, 64, 79
1, 521954, Control_c, 0, 67, 78
1, 521971, Control_c, 0, 64, 90
1, 521974, Control_c, 0, 67, 60
1, 521989, Control_c, 0, 64, 100
1, 521990, Control_c, 0, 67, 37
1, 521992, Note_on_c, 0, 49, 43
1, 521995, Note_on_c, 0, 46, 0
1, 522009, Control_c, 0, 64, 111
1, 522010, Control_c, 0, 67, 14
1, 522027, Control_c, 0, 64, 121
1, 522030, Control_c, 0, 67, 0
1, 522046, Control_c, 0, 64, 127
1, 522075, Poly_aftertouch_c, 0, 51, 24
1, 522119, Note_on_c, 0, 51, 0
1, 522119, Poly_aftertouch_c, 0, 51, 0
1, 522368, Note_on_c, 0, 44, 42
1, 522458, Note_on_c, 0, 68, 45
1, 522488, Note_on_c, 0, 49, 0
1, 522536, Control_c, 0, 64, 102
1, 522537, Note_on_c, 0, 67, 0
1, 522555, Control_c, 0, 64, 71
1, 522574, Control_c, 0, 64, 36
1, 522591, Control_c, 0, 64, 0
1, 522648, Control_c, 0, 64, 10
1, 522664, Control_c, 0, 64, 30
1, 522684, Control_c, 0, 64, 49
1, 522702, Control_c, 0, 64, 70
1, 522721, Control_c, 0, 64, 84
1, 522739, Control_c, 0, 64, 95
1, 522759, Control_c, 0, 64, 103
1, 522778, Control_c, 0, 64, 112
1, 522796, Control_c, 0, 64, 121
1, 522814, Control_c, 0, 64, 126
1, 522892, Note_on_c, 0, 47, 40
1, 522903, Note_on_c, 0, 70, 62
1, 522918, Note_on_c, 0, 68, 0
1, 522919, Poly_aftertouch_c, 0, 68, 0
1, 523044, Note_on_c, 0, 44, 0
1, 523185, Note_on_c, 0, 70, 0
1, 523275, Note_on_c, 0, 40, 45
1, 523316, Note_on_c, 0, 71, 64
1, 523371, Control_c, 0, 64, 107
1, 523389, Control_c, 0, 64, 76
1, 523415, Control_c, 0, 64, 43
1, 523434, Control_c, 0, 64, 27
1, 523471, Control_c, 0, 64, 35
1, 523490, Control_c, 0, 64, 49
1, 523502, Note_on_c, 0, 47, 0
1, 523509, Control_c, 0, 64, 69
1, 523527, Control_c, 0, 64, 84
1, 523547, Control_c, 0, 64, 99
1, 523565, Control_c, 0, 64, 110
1, 523583, Control_c, 0, 64, 118
1, 523600, Control_c, 0, 64, 123
1, 523619, Control_c, 0, 64, 127
1, 523676, Note_on_c, 0, 71, 0
1, 523713, Note_on_c, 0, 44, 45
1, 523740, Note_on_c, 0, 73, 70
1, 523922, Note_on_c, 0, 40, 0
1, 524147, Note_on_c, 0, 39, 40
1, 524215, Note_on_c, 0, 68, 41
1, 524371, Note_on_c, 0, 44, 0
1, 524521, Note_on_c, 0, 75, 53
1, 524576, Control_c, 0, 64, 112
1, 524592, Control_c, 0, 64, 89
1, 524600, Note_on_c, 0, 73, 0
1, 524611, Control_c, 0, 64, 60
1, 524630, Control_c, 0, 64, 27
1, 524649, Control_c, 0, 64, 0
1, 524759, Control_c, 0, 64, 34
1, 524778, Control_c, 0, 64, 51
1, 524796, Control_c, 0, 64, 73
1, 524815, Control_c, 0, 64, 88
1, 524834, Control_c, 0, 64, 102
1, 524852, Control_c, 0, 64, 112
1, 524871, Control_c, 0, 64, 122
1, 524889, Control_c, 0, 64, 127
1, 524947, Note_on_c, 0, 48, 41
1, 525031, Note_on_c, 0, 39, 0
1, 525363, Note_on_c, 0, 48, 0
1, 525376, Note_on_c, 0, 51, 43
1, 525719, Note_on_c, 0, 60, 57
1, 525791, Note_on_c, 0, 51, 0
1, 526196, Note_on_c, 0, 63, 52
1, 526334, Note_on_c, 0, 60, 0
1, 526644, Note_on_c, 0, 60, 43
1, 526653, Note_on_c, 0, 63, 0
1, 526942, Note_on_c, 0, 51, 38
1, 526987, Note_on_c, 0, 60, 0
1, 527035, Note_on_c, 0, 72, 71
1, 527245, Note_on_c, 0, 68, 0
1, 527288, Note_on_c, 0, 75, 0
1, 527403, Note_on_c, 0, 48, 61
1, 527404, Note_on_c, 0, 51, 0
1, 527787, Note_on_c, 0, 39, 48
1, 527894, Note_on_c, 0, 69, 49
1, 527896, Note_on_c, 0, 48, 0
1, 528163, Note_on_c, 0, 75, 74
1, 528368, Note_on_c, 0, 72, 0
1, 528392, Control_c, 0, 64, 102
1, 528410, Control_c, 0, 64, 71
1, 528428, Control_c, 0, 64, 42
1, 528447, Control_c, 0, 64, 30
1, 528483, Control_c, 0, 64, 34
1, 528503, Control_c, 0, 64, 50
1, 528504, Note_on_c, 0, 48, 40
1, 528521, Control_c, 0, 64, 70
1, 528539, Control_c, 0, 64, 91
1, 528557, Control_c, 0, 64, 113
1, 528575, Control_c, 0, 64, 127
1, 528581, Note_on_c, 0, 39, 0
1, 528909, Note_on_c, 0, 51, 46
1, 528949, Note_on_c, 0, 48, 0
1, 529322, Note_on_c, 0, 60, 53
1, 529381, Note_on_c, 0, 51, 0
1, 529384, Control_c, 0, 67, 9
1, 529418, Control_c, 0, 67, 14
1, 529436, Control_c, 0, 67, 18
1, 529455, Control_c, 0, 67, 23
1, 529474, Control_c, 0, 67, 28
1, 529493, Control_c, 0, 67, 37
1, 529511, Control_c, 0, 67, 48
1, 529530, Control_c, 0, 67, 57
1, 529550, Control_c, 0, 67, 63
1, 529567, Control_c, 0, 67, 68
1, 529585, Control_c, 0, 67, 74
1, 529603, Control_c, 0, 67, 81
1, 529623, Control_c, 0, 67, 86
1, 529640, Control_c, 0, 67, 91
1, 529678, Control_c, 0, 67, 98
1, 529696, Control_c, 0, 67, 102
1, 529715, Control_c, 0, 67, 111
1, 529735, Control_c, 0, 67, 118
1, 529753, Control_c, 0, 67, 122
1, 529788, Control_c, 0, 67, 127
1, 529830, Note_on_c, 0, 63, 47
1, 529967, Control_c, 0, 64, 100
1, 529978, Note_on_c, 0, 60, 0
1, 529984, Control_c, 0, 64, 67
1, 530003, Control_c, 0, 64, 45
1, 530040, Control_c, 0, 64, 56
1, 530058, Control_c, 0, 64, 70
1, 530077, Control_c, 0, 64, 88
1, 530096, Control_c, 0, 64, 109
1, 530114, Control_c, 0, 64, 127
1, 530281, Note_on_c, 0, 61, 34
1, 530284, Note_on_c, 0, 63, 0
1, 530391, Note_on_c, 0, 61, 0
1, 530393, Note_on_c, 0, 69, 0
1, 530714, Note_on_c, 0, 70, 47
1, 530723, Note_on_c, 0, 51, 31
1, 530742, Note_on_c, 0, 67, 30
1, 530856, Control_c, 0, 64, 112
1, 530874, Control_c, 0, 64, 84
1, 530900, Control_c, 0, 64, 62
1, 530938, Control_c, 0, 64, 71
1, 530956, Control_c, 0, 64, 80
1, 530976, Control_c, 0, 64, 96
1, 530985, Note_on_c, 0, 75, 0
1, 530994, Control_c, 0, 64, 115
1, 531013, Control_c, 0, 64, 127
1, 531149, Note_on_c, 0, 49, 34
1, 531296, Note_on_c, 0, 51, 0
1, 531693, Note_on_c, 0, 44, 30
1, 531783, Note_on_c, 0, 72, 47
1, 531811, Note_on_c, 0, 68, 31
1, 531821, Note_on_c, 0, 49, 0
1, 531836, Control_c, 0, 64, 117
1, 531845, Note_on_c, 0, 67, 0
1, 531853, Control_c, 0, 64, 88
1, 531866, Note_on_c, 0, 70, 0
1, 531872, Control_c, 0, 64, 53
1, 531892, Control_c, 0, 64, 0
1, 532021, Control_c, 0, 64, 26
1, 532039, Control_c, 0, 64, 54
1, 532060, Control_c, 0, 64, 80
1, 532077, Control_c, 0, 64, 98
1, 532096, Control_c, 0, 64, 118
1, 532115, Control_c, 0, 64, 127
1, 532258, Note_on_c, 0, 51, 32
1, 532349, Note_on_c, 0, 44, 0
1, 532403, Note_on_c, 0, 72, 0
1, 532467, Note_on_c, 0, 68, 0
1, 532668, Note_on_c, 0, 56, 34
1, 532707, Note_on_c, 0, 51, 0
1, 533032, Note_on_c, 0, 56, 0
1, 533072, Note_on_c, 0, 60, 39
1, 533506, Note_on_c, 0, 60, 0
1, 533508, Note_on_c, 0, 63, 30
1, 533819, Control_c, 0, 67, 122
1, 533857, Control_c, 0, 67, 117
1, 533875, Control_c, 0, 67, 113
1, 533892, Control_c, 0, 67, 108
1, 533912, Control_c, 0, 67, 102
1, 533929, Control_c, 0, 67, 95
1, 533949, Control_c, 0, 67, 86
1, 533967, Control_c, 0, 67, 76
1, 533986, Control_c, 0, 67, 65
1, 534004, Control_c, 0, 67, 54
1, 534021, Control_c, 0, 67, 43
1, 534036, Note_on_c, 0, 68, 30
1, 534042, Control_c, 0, 67, 33
1, 534060, Control_c, 0, 67, 24
1, 534078, Control_c, 0, 67, 17
1, 534096, Control_c, 0, 67, 11
1, 534100, Note_on_c, 0, 63, 0
1, 534473, Note_on_c, 0, 75, 42
1, 534811, Control_c, 0, 67, 16
1, 534828, Control_c, 0, 67, 21
1, 534847, Control_c, 0, 67, 28
1, 534865, Control_c, 0, 67, 37
1, 534884, Control_c, 0, 67, 43
1, 534904, Control_c, 0, 67, 48
1, 534921, Control_c, 0, 67, 52
1, 534932, Note_on_c, 0, 68, 0
1, 534954, Note_on_c, 0, 72, 29
1, 534958, Control_c, 0, 67, 56
1, 535603, Note_on_c, 0, 80, 58
1, 535691, Control_c, 0, 64, 108
1, 535708, Control_c, 0, 64, 77
1, 535729, Control_c, 0, 64, 56
1, 535747, Control_c, 0, 67, 61
1, 535764, Control_c, 0, 64, 65
1, 535782, Control_c, 0, 64, 76
1, 535783, Control_c, 0, 67, 69
1, 535792, Note_on_c, 0, 75, 0
1, 535800, Control_c, 0, 64, 90
1, 535804, Control_c, 0, 67, 75
1, 535820, Control_c, 0, 64, 107
1, 535822, Control_c, 0, 67, 80
1, 535838, Control_c, 0, 64, 122
1, 535839, Control_c, 0, 67, 85
1, 535857, Control_c, 0, 64, 127
1, 535858, Control_c, 0, 67, 89
1, 535876, Control_c, 0, 67, 94
1, 535894, Control_c, 0, 67, 99
1, 535918, Note_on_c, 0, 72, 0
1, 535931, Control_c, 0, 67, 103
1, 536108, Note_on_c, 0, 75, 23
1, 536211, Poly_aftertouch_c, 0, 72, 0
1, 536298, Note_on_c, 0, 75, 0
1, 536494, Note_on_c, 0, 75, 31
1, 536517, Note_on_c, 0, 72, 27
1, 536700, Note_on_c, 0, 75, 0
1, 536702, Note_on_c, 0, 72, 0
1, 536727, Note_on_c, 0, 80, 0
1, 536870, Note_on_c, 0, 80, 60
1, 536888, Note_on_c, 0, 72, 33
1, 536959, Control_c, 0, 67, 99
1, 536996, Control_c, 0, 67, 95
1, 537000, Poly_aftertouch_c, 0, 75, 0
1, 537034, Control_c, 0, 67, 86
1, 537053, Control_c, 0, 67, 79
1, 537069, Control_c, 0, 67, 70
1, 537085, Note_on_c, 0, 72, 0
1, 537086, Control_c, 0, 67, 60
1, 537109, Control_c, 0, 67, 49
1, 537126, Control_c, 0, 67, 38
1, 537144, Control_c, 0, 67, 26
1, 537163, Control_c, 0, 67, 15
1, 537218, Control_c, 0, 67, 0
1, 537289, Note_on_c, 0, 78, 57
1, 537323, Note_on_c, 0, 72, 19
1, 537336, Note_on_c, 0, 70, 21
1, 537483, Note_on_c, 0, 80, 0
1, 537502, Note_on_c, 0, 72, 0
1, 537512, Note_on_c, 0, 70, 0
1, 537696, Note_on_c, 0, 70, 36
1, 537707, Note_on_c, 0, 75, 30
1, 537716, Note_on_c, 0, 72, 20
1, 537880, Note_on_c, 0, 72, 0
1, 537882, Note_on_c, 0, 70, 0
1, 537910, Note_on_c, 0, 75, 0
1, 538080, Note_on_c, 0, 72, 27
1, 538082, Note_on_c, 0, 75, 16
1, 538090, Note_on_c, 0, 70, 33
1, 538280, Note_on_c, 0, 72, 0
1, 538286, Note_on_c, 0, 70, 0
1, 538313, Note_on_c, 0, 75, 0
1, 538323, Note_on_c, 0, 78, 0
1, 538463, Note_on_c, 0, 78, 66
1, 538498, Note_on_c, 0, 70, 28
1, 538501, Note_on_c, 0, 72, 23
1, 538588, Poly_aftertouch_c, 0, 75, 0
1, 538631, Note_on_c, 0, 72, 0
1, 538670, Note_on_c, 0, 70, 0
1, 538939, Note_on_c, 0, 77, 60
1, 538959, Control_c, 0, 67, 8
1, 538963, Note_on_c, 0, 69, 32
1, 538967, Note_on_c, 0, 72, 11
1, 538987, Note_on_c, 0, 78, 0
1, 539016, Control_c, 0, 64, 109
1, 539017, Control_c, 0, 67, 13
1, 539035, Control_c, 0, 64, 81
1, 539054, Control_c, 0, 64, 51
1, 539056, Control_c, 0, 67, 17
1, 539072, Control_c, 0, 64, 31
1, 539073, Control_c, 0, 67, 23
1, 539090, Control_c, 0, 67, 32
1, 539109, Control_c, 0, 67, 42
1, 539127, Control_c, 0, 64, 46
1, 539129, Control_c, 0, 67, 48
1, 539144, Control_c, 0, 64, 67
1, 539145, Control_c, 0, 67, 52
1, 539164, Control_c, 0, 64, 87
1, 539183, Control_c, 0, 64, 107
1, 539184, Control_c, 0, 67, 56
1, 539201, Control_c, 0, 64, 122
1, 539208, Note_on_c, 0, 72, 0
1, 539219, Control_c, 0, 64, 127
1, 539221, Note_on_c, 0, 69, 0
1, 539237, Control_c, 0, 67, 61
1, 539377, Note_on_c, 0, 75, 36
1, 539378, Note_on_c, 0, 72, 24
1, 539388, Note_on_c, 0, 69, 26
1, 539532, Note_on_c, 0, 75, 0
1, 539558, Note_on_c, 0, 72, 0
1, 539572, Note_on_c, 0, 69, 0
1, 539761, Note_on_c, 0, 75, 39
1, 539773, Note_on_c, 0, 72, 31
1, 539779, Note_on_c, 0, 69, 32
1, 539914, Note_on_c, 0, 75, 0
1, 539958, Note_on_c, 0, 72, 0
1, 539988, Note_on_c, 0, 69, 0
1, 540134, Note_on_c, 0, 75, 39
1, 540169, Note_on_c, 0, 72, 31
1, 540173, Note_on_c, 0, 69, 36
1, 540282, Note_on_c, 0, 69, 0
1, 540317, Note_on_c, 0, 72, 0
1, 540343, Note_on_c, 0, 75, 0
1, 540569, Note_on_c, 0, 75, 31
1, 540584, Note_on_c, 0, 70, 37
1, 540601, Note_on_c, 0, 67, 27
1, 540609, Control_c, 0, 64, 120
1, 540626, Control_c, 0, 64, 94
1, 540646, Control_c, 0, 64, 66
1, 540665, Control_c, 0, 64, 45
1, 540701, Control_c, 0, 64, 47
1, 540722, Control_c, 0, 64, 58
1, 540738, Control_c, 0, 64, 73
1, 540757, Control_c, 0, 64, 90
1, 540777, Control_c, 0, 64, 111
1, 540779, Control_c, 0, 67, 56
1, 540795, Control_c, 0, 64, 127
1, 540808, Note_on_c, 0, 67, 0
1, 540814, Note_on_c, 0, 75, 0
1, 540818, Note_on_c, 0, 70, 0
1, 540829, Control_c, 0, 67, 48
1, 540849, Control_c, 0, 67, 44
1, 540867, Control_c, 0, 67, 38
1, 540886, Control_c, 0, 67, 31
1, 540905, Control_c, 0, 67, 20
1, 540924, Control_c, 0, 67, 9
1, 540942, Control_c, 0, 67, 0
1, 540960, Note_on_c, 0, 75, 31
1, 540980, Note_on_c, 0, 70, 42
1, 540997, Note_on_c, 0, 67, 30
1, 541093, Note_on_c, 0, 77, 0
1, 541145, Note_on_c, 0, 75, 0
1, 541148, Note_on_c, 0, 67, 0
1, 541177, Note_on_c, 0, 70, 0
1, 541352, Note_on_c, 0, 77, 67
1, 541369, Note_on_c, 0, 70, 48
1, 541396, Note_on_c, 0, 67, 35
1, 541572, Note_on_c, 0, 67, 0
1, 541584, Note_on_c, 0, 70, 0
1, 541728, Note_on_c, 0, 75, 45
1, 541758, Note_on_c, 0, 67, 42
1, 541775, Note_on_c, 0, 70, 44
1, 541868, Note_on_c, 0, 67, 0
1, 541879, Note_on_c, 0, 77, 0
1, 541959, Note_on_c, 0, 70, 0
1, 542208, Note_on_c, 0, 77, 68
1, 542227, Note_on_c, 0, 69, 41
1, 542232, Note_on_c, 0, 65, 34
1, 542233, Poly_aftertouch_c, 0, 75, 24
1, 542275, Note_on_c, 0, 75, 0
1, 542275, Poly_aftertouch_c, 0, 75, 0
1, 542276, Control_c, 0, 64, 98
1, 542296, Control_c, 0, 64, 65
1, 542314, Control_c, 0, 64, 35
1, 542332, Control_c, 0, 64, 29
1, 542370, Control_c, 0, 64, 41
1, 542387, Control_c, 0, 64, 60
1, 542406, Control_c, 0, 64, 83
1, 542425, Control_c, 0, 64, 104
1, 542443, Control_c, 0, 64, 124
1, 542473, Note_on_c, 0, 65, 0
1, 542491, Note_on_c, 0, 69, 0
1, 542573, Note_on_c, 0, 77, 0
1, 542620, Note_on_c, 0, 69, 42
1, 542623, Note_on_c, 0, 65, 36
1, 542638, Note_on_c, 0, 75, 39
1, 542813, Note_on_c, 0, 65, 0
1, 542838, Note_on_c, 0, 69, 0
1, 543069, Note_on_c, 0, 69, 24
1, 543075, Note_on_c, 0, 87, 63
1, 543079, Note_on_c, 0, 65, 27
1, 543173, Note_on_c, 0, 75, 0
1, 543257, Note_on_c, 0, 65, 0
1, 543260, Note_on_c, 0, 69, 0
1, 543473, Note_on_c, 0, 87, 0
1, 543517, Note_on_c, 0, 75, 33
1, 543523, Note_on_c, 0, 69, 38
1, 543531, Note_on_c, 0, 65, 25
1, 543673, Note_on_c, 0, 69, 0
1, 543683, Note_on_c, 0, 65, 0
1, 543890, Note_on_c, 0, 86, 73
1, 543919, Note_on_c, 0, 65, 20
1, 543920, Note_on_c, 0, 69, 33
1, 543934, Poly_aftertouch_c, 0, 75, 24
1, 543982, Note_on_c, 0, 75, 0
1, 543982, Poly_aftertouch_c, 0, 75, 0
1, 544052, Note_on_c, 0, 69, 0
1, 544081, Note_on_c, 0, 86, 0
1, 544085, Note_on_c, 0, 65, 0
1, 544300, Note_on_c, 0, 75, 43
1, 544307, Note_on_c, 0, 69, 49
1, 544309, Note_on_c, 0, 65, 34
1, 544442, Note_on_c, 0, 69, 0
1, 544449, Note_on_c, 0, 65, 0
1, 544453, Note_on_c, 0, 75, 0
1, 544695, Note_on_c, 0, 84, 72
1, 544723, Note_on_c, 0, 65, 22
1, 544726, Note_on_c, 0, 69, 35
1, 544832, Note_on_c, 0, 84, 0
1, 544859, Note_on_c, 0, 69, 0
1, 544899, Note_on_c, 0, 65, 0
1, 545094, Note_on_c, 0, 69, 46
1, 545099, Note_on_c, 0, 75, 45
1, 545105, Note_on_c, 0, 65, 27
1, 545186, Note_on_c, 0, 65, 0
1, 545253, Note_on_c, 0, 69, 0
1, 545271, Note_on_c, 0, 75, 0
1, 545529, Note_on_c, 0, 82, 61
1, 545567, Note_on_c, 0, 67, 26
1, 545572, Note_on_c, 0, 70, 31
1, 545619, Control_c, 0, 64, 103
1, 545636, Control_c, 0, 64, 76
1, 545655, Control_c, 0, 64, 52
1, 545673, Control_c, 0, 64, 47
1, 545691, Control_c, 0, 64, 52
1, 545708, Control_c, 0, 64, 65
1, 545729, Control_c, 0, 64, 82
1, 545747, Control_c, 0, 64, 103
1, 545766, Control_c, 0, 64, 125
1, 545792, Note_on_c, 0, 67, 0
1, 545812, Note_on_c, 0, 70, 0
1, 545960, Control_c, 0, 67, 8
1, 545987, Note_on_c, 0, 70, 39
1, 545989, Note_on_c, 0, 75, 37
1, 546004, Note_on_c, 0, 67, 25
1, 546034, Control_c, 0, 67, 14
1, 546053, Control_c, 0, 67, 19
1, 546070, Control_c, 0, 67, 26
1, 546088, Control_c, 0, 67, 33
1, 546106, Note_on_c, 0, 67, 0
1, 546106, Control_c, 0, 67, 37
1, 546119, Note_on_c, 0, 75, 0
1, 546140, Note_on_c, 0, 70, 0
1, 546163, Control_c, 0, 67, 42
1, 546312, Control_c, 0, 67, 46
1, 546350, Control_c, 0, 67, 51
1, 546363, Note_on_c, 0, 79, 55
1, 546368, Control_c, 0, 67, 57
1, 546379, Note_on_c, 0, 70, 23
1, 546406, Control_c, 0, 67, 62
1, 546409, Note_on_c, 0, 67, 18
1, 546468, Note_on_c, 0, 82, 0
1, 546516, Control_c, 0, 67, 67
1, 546538, Note_on_c, 0, 67, 0
1, 546554, Control_c, 0, 67, 74
1, 546568, Note_on_c, 0, 70, 0
1, 546591, Control_c, 0, 67, 79
1, 546626, Control_c, 0, 67, 84
1, 546663, Control_c, 0, 67, 91
1, 546684, Control_c, 0, 67, 95
1, 546720, Control_c, 0, 67, 102
1, 546736, Control_c, 0, 67, 106
1, 546761, Note_on_c, 0, 70, 31
1, 546773, Control_c, 0, 67, 112
1, 546783, Note_on_c, 0, 75, 21
1, 546791, Note_on_c, 0, 67, 32
1, 546839, Control_c, 0, 67, 116
1, 546876, Note_on_c, 0, 67, 0
1, 546878, Control_c, 0, 67, 122
1, 546929, Note_on_c, 0, 75, 0
1, 546933, Control_c, 0, 67, 126
1, 546949, Note_on_c, 0, 70, 0
1, 547306, Note_on_c, 0, 77, 51
1, 547307, Note_on_c, 0, 70, 23
1, 547346, Note_on_c, 0, 75, 18
1, 547377, Control_c, 0, 64, 104
1, 547395, Control_c, 0, 64, 76
1, 547414, Control_c, 0, 64, 51
1, 547433, Control_c, 0, 64, 42
1, 547451, Note_on_c, 0, 79, 0
1, 547471, Control_c, 0, 64, 45
1, 547490, Control_c, 0, 64, 56
1, 547508, Control_c, 0, 64, 70
1, 547526, Control_c, 0, 64, 89
1, 547545, Control_c, 0, 64, 110
1, 547562, Control_c, 0, 64, 125
1, 547564, Note_on_c, 0, 75, 0
1, 547592, Note_on_c, 0, 70, 0
1, 547780, Note_on_c, 0, 75, 36
1, 547799, Note_on_c, 0, 70, 25
1, 547942, Note_on_c, 0, 75, 0
1, 548005, Note_on_c, 0, 70, 0
1, 548150, Note_on_c, 0, 79, 42
1, 548168, Note_on_c, 0, 74, 34
1, 548175, Note_on_c, 0, 70, 32
1, 548219, Note_on_c, 0, 77, 0
1, 548355, Note_on_c, 0, 74, 0
1, 548372, Note_on_c, 0, 70, 0
1, 548544, Note_on_c, 0, 70, 33
1, 548545, Note_on_c, 0, 79, 0
1, 548557, Note_on_c, 0, 80, 54
1, 548586, Note_on_c, 0, 74, 40
1, 548599, Note_on_c, 0, 80, 0
1, 548701, Note_on_c, 0, 74, 0
1, 548753, Note_on_c, 0, 82, 55
1, 549166, Note_on_c, 0, 75, 40
1, 549179, Note_on_c, 0, 87, 68
1, 549217, Note_on_c, 0, 79, 28
1, 549247, Control_c, 0, 64, 115
1, 549267, Control_c, 0, 64, 89
1, 549285, Control_c, 0, 64, 57
1, 549286, Note_on_c, 0, 70, 0
1, 549301, Note_on_c, 0, 82, 0
1, 549304, Control_c, 0, 64, 20
1, 549323, Control_c, 0, 64, 12
1, 549415, Control_c, 0, 64, 25
1, 549433, Control_c, 0, 64, 49
1, 549444, Note_on_c, 0, 79, 0
1, 549452, Control_c, 0, 64, 74
1, 549470, Control_c, 0, 64, 92
1, 549489, Control_c, 0, 64, 109
1, 549510, Control_c, 0, 64, 119
1, 549526, Control_c, 0, 64, 127
1, 549623, Note_on_c, 0, 82, 39
1, 549633, Note_on_c, 0, 79, 26
1, 549814, Note_on_c, 0, 82, 0
1, 549841, Note_on_c, 0, 79, 0
1, 549849, Note_on_c, 0, 75, 0
1, 549999, Note_on_c, 0, 82, 42
1, 550007, Note_on_c, 0, 79, 30
1, 550154, Note_on_c, 0, 87, 0
1, 550233, Note_on_c, 0, 79, 0
1, 550233, Note_on_c, 0, 82, 0
1, 550369, Note_on_c, 0, 87, 63
1, 550377, Note_on_c, 0, 79, 35
1, 550379, Note_on_c, 0, 82, 33
1, 550499, Control_c, 0, 67, 120
1, 550518, Note_on_c, 0, 82, 0
1, 550536, Control_c, 0, 67, 114
1, 550572, Note_on_c, 0, 79, 0
1, 550581, Control_c, 0, 67, 109
1, 550601, Control_c, 0, 67, 105
1, 550619, Control_c, 0, 67, 97
1, 550638, Control_c, 0, 67, 85
1, 550656, Control_c, 0, 67, 68
1, 550676, Control_c, 0, 67, 49
1, 550695, Control_c, 0, 67, 30
1, 550712, Control_c, 0, 67, 13
1, 550732, Control_c, 0, 67, 0
1, 550820, Note_on_c, 0, 85, 68
1, 550841, Note_on_c, 0, 79, 30
1, 550871, Note_on_c, 0, 82, 29
1, 550959, Note_on_c, 0, 87, 0
1, 551013, Note_on_c, 0, 82, 0
1, 551041, Note_on_c, 0, 79, 0
1, 551238, Note_on_c, 0, 82, 28
1, 551251, Note_on_c, 0, 79, 33
1, 551417, Note_on_c, 0, 82, 0
1, 551421, Note_on_c, 0, 79, 0
1, 551617, Note_on_c, 0, 82, 34
1, 551630, Note_on_c, 0, 79, 36
1, 551837, Note_on_c, 0, 82, 0
1, 551848, Note_on_c, 0, 85, 0
1, 551860, Note_on_c, 0, 79, 0
1, 551984, Note_on_c, 0, 85, 69
1, 552005, Note_on_c, 0, 79, 35
1, 552005, Note_on_c, 0, 82, 43
1, 552209, Note_on_c, 0, 82, 0
1, 552213, Note_on_c, 0, 79, 0
1, 552526, Note_on_c, 0, 64, 62
1, 552546, Note_on_c, 0, 84, 61
1, 552576, Note_on_c, 0, 79, 33
1, 552657, Note_on_c, 0, 85, 0
1, 552695, Control_c, 0, 64, 112
1, 552713, Control_c, 0, 64, 86
1, 552732, Control_c, 0, 64, 61
1, 552750, Control_c, 0, 64, 56
1, 552770, Control_c, 0, 64, 61
1, 552778, Poly_aftertouch_c, 0, 82, 0
1, 552788, Control_c, 0, 64, 71
1, 552805, Control_c, 0, 64, 85
1, 552824, Control_c, 0, 64, 104
1, 552828, Note_on_c, 0, 79, 0
1, 552843, Control_c, 0, 64, 124
1, 552960, Note_on_c, 0, 82, 41
1, 552971, Note_on_c, 0, 79, 36
1, 553189, Note_on_c, 0, 82, 0
1, 553213, Note_on_c, 0, 79, 0
1, 553364, Note_on_c, 0, 82, 39
1, 553385, Note_on_c, 0, 79, 41
1, 553563, Note_on_c, 0, 82, 0
1, 553572, Note_on_c, 0, 64, 0
1, 553580, Note_on_c, 0, 79, 0
1, 553715, Note_on_c, 0, 64, 58
1, 553724, Note_on_c, 0, 82, 45
1, 553744, Note_on_c, 0, 79, 32
1, 553842, Note_on_c, 0, 82, 0
1, 553907, Note_on_c, 0, 79, 0
1, 554196, Note_on_c, 0, 82, 38
1, 554207, Note_on_c, 0, 62, 60
1, 554222, Note_on_c, 0, 77, 28
1, 554343, Control_c, 0, 64, 104
1, 554362, Control_c, 0, 64, 74
1, 554377, Note_on_c, 0, 64, 0
1, 554379, Control_c, 0, 64, 44
1, 554399, Control_c, 0, 64, 29
1, 554454, Note_on_c, 0, 82, 0
1, 554454, Control_c, 0, 64, 44
1, 554474, Control_c, 0, 64, 65
1, 554481, Note_on_c, 0, 77, 0
1, 554492, Control_c, 0, 64, 86
1, 554511, Control_c, 0, 64, 107
1, 554528, Control_c, 0, 64, 125
1, 554611, Note_on_c, 0, 82, 57
1, 554623, Note_on_c, 0, 77, 51
1, 554707, Note_on_c, 0, 84, 0
1, 554758, Note_on_c, 0, 82, 0
1, 554842, Note_on_c, 0, 77, 0
1, 555016, Note_on_c, 0, 84, 74
1, 555081, Note_on_c, 0, 82, 10
1, 555109, Note_on_c, 0, 77, 16
1, 555177, Note_on_c, 0, 82, 0
1, 555258, Note_on_c, 0, 77, 0
1, 555279, Note_on_c, 0, 62, 0
1, 555414, Note_on_c, 0, 62, 64
1, 555431, Note_on_c, 0, 77, 30
1, 555437, Note_on_c, 0, 82, 33
1, 555569, Note_on_c, 0, 84, 0
1, 555585, Note_on_c, 0, 77, 0
1, 555594, Note_on_c, 0, 82, 0
1, 555908, Note_on_c, 0, 60, 55
1, 555935, Note_on_c, 0, 84, 73
1, 555971, Note_on_c, 0, 82, 32
1, 555984, Note_on_c, 0, 76, 38
1, 556012, Note_on_c, 0, 82, 0
1, 556020, Control_c, 0, 64, 101
1, 556038, Control_c, 0, 64, 69
1, 556044, Note_on_c, 0, 62, 0
1, 556057, Control_c, 0, 64, 31
1, 556076, Control_c, 0, 64, 0
1, 556130, Control_c, 0, 64, 18
1, 556136, Note_on_c, 0, 76, 0
1, 556150, Control_c, 0, 64, 44
1, 556177, Control_c, 0, 64, 74
1, 556196, Control_c, 0, 64, 95
1, 556214, Control_c, 0, 64, 118
1, 556233, Control_c, 0, 64, 127
1, 556284, Note_on_c, 0, 82, 67
1, 556298, Note_on_c, 0, 84, 0
1, 556340, Note_on_c, 0, 60, 0
1, 556342, Note_on_c, 0, 82, 0
1, 556387, Note_on_c, 0, 76, 20
1, 556465, Note_on_c, 0, 76, 0
1, 556466, Note_on_c, 0, 82, 61
1, 556686, Note_on_c, 0, 60, 32
1, 556882, Note_on_c, 0, 94, 78
1, 556944, Note_on_c, 0, 82, 0
1, 557022, Note_on_c, 0, 94, 0
1, 557269, Note_on_c, 0, 82, 60
1, 557302, Note_on_c, 0, 82, 0
1, 557362, Note_on_c, 0, 77, 60
1, 557447, Note_on_c, 0, 82, 62
1, 557459, Note_on_c, 0, 77, 0
1, 557590, Note_on_c, 0, 62, 46
1, 557677, Note_on_c, 0, 93, 80
1, 557719, Note_on_c, 0, 60, 0
1, 557722, Note_on_c, 0, 82, 0
1, 557724, Control_c, 0, 64, 103
1, 557744, Control_c, 0, 64, 72
1, 557761, Control_c, 0, 64, 50
1, 557797, Control_c, 0, 64, 59
1, 557817, Control_c, 0, 64, 71
1, 557835, Control_c, 0, 64, 87
1, 557853, Control_c, 0, 64, 111
1, 557873, Control_c, 0, 64, 127
1, 557874, Note_on_c, 0, 93, 0
1, 558024, Note_on_c, 0, 82, 46
1, 558048, Note_on_c, 0, 77, 17
1, 558077, Note_on_c, 0, 82, 0
1, 558104, Note_on_c, 0, 77, 0
1, 558144, Note_on_c, 0, 79, 62
1, 558221, Note_on_c, 0, 82, 53
1, 558306, Note_on_c, 0, 79, 0
1, 558369, Note_on_c, 0, 64, 42
1, 558484, Note_on_c, 0, 91, 77
1, 558512, Control_c, 0, 64, 101
1, 558530, Control_c, 0, 64, 72
1, 558533, Control_c, 0, 67, 8
1, 558537, Note_on_c, 0, 62, 0
1, 558546, Note_on_c, 0, 82, 0
1, 558549, Control_c, 0, 64, 47
1, 558567, Control_c, 0, 64, 43
1, 558605, Control_c, 0, 64, 49
1, 558606, Control_c, 0, 67, 12
1, 558622, Control_c, 0, 64, 63
1, 558642, Control_c, 0, 64, 78
1, 558643, Control_c, 0, 67, 17
1, 558660, Control_c, 0, 64, 98
1, 558679, Control_c, 0, 64, 126
1, 558680, Control_c, 0, 67, 24
1, 558697, Control_c, 0, 67, 32
1, 558716, Control_c, 0, 67, 42
1, 558734, Control_c, 0, 67, 50
1, 558752, Control_c, 0, 67, 55
1, 558790, Control_c, 0, 67, 60
1, 558827, Control_c, 0, 67, 65
1, 558845, Control_c, 0, 67, 70
1, 558863, Control_c, 0, 67, 78
1, 558864, Note_on_c, 0, 64, 0
1, 558866, Note_on_c, 0, 82, 45
1, 558883, Control_c, 0, 67, 87
1, 558896, Note_on_c, 0, 79, 55
1, 558902, Control_c, 0, 67, 96
1, 558917, Control_c, 0, 67, 103
1, 558937, Control_c, 0, 67, 109
1, 558952, Note_on_c, 0, 91, 0
1, 558955, Control_c, 0, 67, 113
1, 559002, Control_c, 0, 67, 117
1, 559040, Control_c, 0, 67, 124
1, 559071, Note_on_c, 0, 82, 0
1, 559074, Note_on_c, 0, 79, 0
1, 559425, Note_on_c, 0, 89, 64
1, 559440, Note_on_c, 0, 65, 33
1, 559558, Control_c, 0, 64, 116
1, 559576, Control_c, 0, 64, 88
1, 559587, Poly_aftertouch_c, 0, 82, 0
1, 559595, Control_c, 0, 64, 56
1, 559615, Control_c, 0, 64, 27
1, 559632, Control_c, 0, 64, 23
1, 559660, Poly_aftertouch_c, 0, 77, 0
1, 559690, Control_c, 0, 64, 39
1, 559707, Control_c, 0, 64, 53
1, 559725, Control_c, 0, 64, 71
1, 559743, Control_c, 0, 64, 88
1, 559763, Control_c, 0, 64, 105
1, 559782, Control_c, 0, 64, 117
1, 559799, Control_c, 0, 64, 124
1, 559936, Note_on_c, 0, 77, 29
1, 559952, Note_on_c, 0, 82, 11
1, 560117, Note_on_c, 0, 82, 0
1, 560173, Note_on_c, 0, 77, 0
1, 560363, Note_on_c, 0, 86, 52
1, 560375, Note_on_c, 0, 70, 27
1, 560583, Note_on_c, 0, 65, 0
1, 560785, Note_on_c, 0, 82, 32
1, 560804, Note_on_c, 0, 77, 27
1, 560848, Note_on_c, 0, 89, 0
1, 560965, Note_on_c, 0, 82, 0
1, 560982, Note_on_c, 0, 77, 0
1, 561369, Note_on_c, 0, 75, 40
1, 561370, Note_on_c, 0, 84, 48
1, 561399, Note_on_c, 0, 65, 22
1, 561505, Poly_aftertouch_c, 0, 77, 0
1, 561524, Note_on_c, 0, 86, 0
1, 561602, Note_on_c, 0, 70, 0
1, 561848, Note_on_c, 0, 82, 36
1, 561875, Note_on_c, 0, 77, 23
1, 562003, Note_on_c, 0, 82, 0
1, 562010, Note_on_c, 0, 65, 0
1, 562059, Note_on_c, 0, 77, 0
1, 562235, Note_on_c, 0, 86, 47
1, 562242, Note_on_c, 0, 81, 26
1, 562278, Note_on_c, 0, 77, 10
1, 562423, Note_on_c, 0, 77, 0
1, 562427, Note_on_c, 0, 81, 0
1, 562512, Note_on_c, 0, 74, 41
1, 562673, Note_on_c, 0, 77, 12
1, 562676, Note_on_c, 0, 87, 53
1, 562689, Note_on_c, 0, 81, 30
1, 562755, Note_on_c, 0, 77, 0
1, 562762, Poly_aftertouch_c, 0, 84, 24
1, 562762, Note_on_c, 0, 72, 57
1, 562800, Note_on_c, 0, 84, 0
1, 562800, Poly_aftertouch_c, 0, 84, 0
1, 562801, Poly_aftertouch_c, 0, 84, 0
1, 562824, Note_on_c, 0, 86, 0
1, 562867, Note_on_c, 0, 75, 0
1, 562880, Note_on_c, 0, 74, 0
1, 562883, Note_on_c, 0, 81, 0
1, 563211, Note_on_c, 0, 86, 49
1, 563217, Note_on_c, 0, 77, 55
1, 563217, Note_on_c, 0, 65, 30
1, 563324, Note_on_c, 0, 87, 0
1, 563357, Control_c, 0, 64, 117
1, 563375, Control_c, 0, 64, 90
1, 563391, Note_on_c, 0, 72, 0
1, 563394, Control_c, 0, 64, 64
1, 563411, Control_c, 0, 64, 56
1, 563448, Control_c, 0, 64, 64
1, 563466, Control_c, 0, 64, 72
1, 563486, Control_c, 0, 64, 83
1, 563506, Control_c, 0, 64, 100
1, 563508, Control_c, 0, 67, 118
1, 563522, Control_c, 0, 64, 120
1, 563542, Control_c, 0, 64, 127
1, 563543, Control_c, 0, 67, 109
1, 563561, Control_c, 0, 67, 98
1, 563580, Control_c, 0, 67, 83
1, 563596, Control_c, 0, 67, 65
1, 563615, Control_c, 0, 67, 48
1, 563634, Control_c, 0, 67, 32
1, 563660, Control_c, 0, 67, 16
1, 563668, Note_on_c, 0, 82, 37
1, 563699, Control_c, 0, 67, 0
1, 563822, Note_on_c, 0, 82, 0
1, 563977, Note_on_c, 0, 77, 0
1, 564068, Note_on_c, 0, 82, 66
1, 564092, Note_on_c, 0, 74, 41
1, 564415, Note_on_c, 0, 65, 0
1, 564471, Note_on_c, 0, 77, 46
1, 564492, Note_on_c, 0, 82, 0
1, 564681, Note_on_c, 0, 77, 0
1, 564973, Note_on_c, 0, 65, 37
1, 564981, Note_on_c, 0, 87, 69
1, 565012, Note_on_c, 0, 72, 50
1, 565116, Control_c, 0, 64, 108
1, 565129, Note_on_c, 0, 86, 0
1, 565134, Control_c, 0, 64, 75
1, 565154, Control_c, 0, 64, 46
1, 565172, Control_c, 0, 64, 41
1, 565186, Poly_aftertouch_c, 0, 82, 0
1, 565209, Control_c, 0, 64, 48
1, 565218, Note_on_c, 0, 74, 0
1, 565227, Control_c, 0, 64, 62
1, 565247, Control_c, 0, 64, 76
1, 565254, Poly_aftertouch_c, 0, 77, 0
1, 565265, Control_c, 0, 64, 93
1, 565282, Control_c, 0, 64, 115
1, 565301, Control_c, 0, 64, 127
1, 565454, Note_on_c, 0, 82, 43
1, 565458, Note_on_c, 0, 77, 44
1, 565605, Note_on_c, 0, 82, 0
1, 565826, Note_on_c, 0, 81, 55
1, 565833, Note_on_c, 0, 77, 0
1, 565833, Note_on_c, 0, 77, 14
1, 565846, Note_on_c, 0, 74, 42
1, 566047, Note_on_c, 0, 86, 69
1, 566126, Note_on_c, 0, 65, 0
1, 566147, Note_on_c, 0, 87, 0
1, 566211, Note_on_c, 0, 75, 59
1, 566271, Note_on_c, 0, 72, 0
1, 566315, Note_on_c, 0, 84, 77
1, 566376, Note_on_c, 0, 81, 0
1, 566403, Note_on_c, 0, 74, 0
1, 566432, Note_on_c, 0, 86, 0
1, 566481, Note_on_c, 0, 77, 0
1, 566730, Note_on_c, 0, 73, 54
1, 566731, Note_on_c, 0, 89, 77
1, 566738, Note_on_c, 0, 65, 42
1, 566836, Note_on_c, 0, 84, 0
1, 566838, Control_c, 0, 64, 116
1, 566857, Control_c, 0, 64, 88
1, 566878, Control_c, 0, 64, 54
1, 566895, Control_c, 0, 64, 13
1, 566905, Note_on_c, 0, 75, 0
1, 566932, Control_c, 0, 64, 0
1, 566987, Control_c, 0, 64, 10
1, 567005, Control_c, 0, 64, 32
1, 567024, Control_c, 0, 64, 57
1, 567043, Control_c, 0, 64, 82
1, 567061, Control_c, 0, 64, 100
1, 567080, Control_c, 0, 64, 114
1, 567099, Control_c, 0, 64, 120
1, 567118, Control_c, 0, 64, 126
1, 567155, Note_on_c, 0, 82, 48
1, 567169, Note_on_c, 0, 77, 49
1, 567345, Note_on_c, 0, 77, 0
1, 567540, Note_on_c, 0, 70, 66
1, 567544, Note_on_c, 0, 85, 68
1, 567595, Note_on_c, 0, 82, 0
1, 567743, Note_on_c, 0, 73, 0
1, 567756, Note_on_c, 0, 65, 0
1, 567817, Note_on_c, 0, 89, 0
1, 567927, Note_on_c, 0, 82, 58
1, 567937, Note_on_c, 0, 77, 61
1, 568175, Note_on_c, 0, 77, 0
1, 568206, Note_on_c, 0, 82, 0
1, 568479, Note_on_c, 0, 65, 50
1, 568482, Note_on_c, 0, 75, 68
1, 568515, Note_on_c, 0, 84, 62
1, 568525, Note_on_c, 0, 77, 37
1, 568561, Note_on_c, 0, 82, 28
1, 568612, Note_on_c, 0, 70, 0
1, 568672, Control_c, 0, 64, 117
1, 568688, Note_on_c, 0, 85, 0
1, 568691, Control_c, 0, 64, 91
1, 568710, Control_c, 0, 64, 60
1, 568728, Control_c, 0, 64, 32
1, 568748, Control_c, 0, 64, 27
1, 568773, Note_on_c, 0, 82, 0
1, 568803, Note_on_c, 0, 77, 0
1, 568822, Control_c, 0, 64, 36
1, 568840, Control_c, 0, 64, 52
1, 568858, Control_c, 0, 64, 71
1, 568877, Control_c, 0, 64, 86
1, 568896, Control_c, 0, 64, 101
1, 568914, Control_c, 0, 64, 116
1, 568934, Control_c, 0, 64, 127
1, 568943, Note_on_c, 0, 82, 55
1, 568948, Note_on_c, 0, 77, 49
1, 569106, Note_on_c, 0, 82, 0
1, 569152, Note_on_c, 0, 77, 0
1, 569301, Note_on_c, 0, 85, 69
1, 569325, Note_on_c, 0, 77, 46
1, 569332, Note_on_c, 0, 81, 50
1, 569383, Note_on_c, 0, 84, 0
1, 569545, Note_on_c, 0, 81, 0
1, 569557, Note_on_c, 0, 73, 58
1, 569576, Note_on_c, 0, 77, 0
1, 569690, Note_on_c, 0, 65, 0
1, 569702, Note_on_c, 0, 87, 72
1, 569712, Note_on_c, 0, 77, 51
1, 569716, Note_on_c, 0, 81, 57
1, 569767, Note_on_c, 0, 85, 0
1, 569845, Note_on_c, 0, 72, 65
1, 569900, Note_on_c, 0, 73, 0
1, 569929, Note_on_c, 0, 75, 0
1, 569975, Note_on_c, 0, 81, 0
1, 570038, Note_on_c, 0, 77, 0
1, 570298, Note_on_c, 0, 85, 76
1, 570320, Note_on_c, 0, 73, 51
1, 570323, Note_on_c, 0, 65, 45
1, 570324, Note_on_c, 0, 80, 50
1, 570330, Note_on_c, 0, 77, 43
1, 570395, Note_on_c, 0, 87, 0
1, 570444, Note_on_c, 0, 72, 0
1, 570470, Control_c, 0, 64, 122
1, 570490, Control_c, 0, 64, 100
1, 570508, Control_c, 0, 64, 71
1, 570526, Control_c, 0, 64, 40
1, 570543, Control_c, 0, 64, 12
1, 570618, Control_c, 0, 64, 24
1, 570629, Note_on_c, 0, 80, 0
1, 570636, Control_c, 0, 64, 46
1, 570649, Note_on_c, 0, 77, 0
1, 570656, Control_c, 0, 64, 69
1, 570675, Control_c, 0, 64, 86
1, 570693, Control_c, 0, 64, 102
1, 570711, Control_c, 0, 64, 113
1, 570731, Control_c, 0, 64, 121
1, 570747, Control_c, 0, 64, 126
1, 570834, Note_on_c, 0, 77, 37
1, 570837, Note_on_c, 0, 80, 39
1, 570938, Note_on_c, 0, 77, 0
1, 571022, Note_on_c, 0, 73, 0
1, 571218, Note_on_c, 0, 68, 43
1, 571247, Note_on_c, 0, 84, 66
1, 571270, Note_on_c, 0, 73, 39
1, 571315, Note_on_c, 0, 80, 0
1, 571335, Note_on_c, 0, 85, 0
1, 571510, Note_on_c, 0, 73, 0
1, 571565, Note_on_c, 0, 65, 0
1, 571624, Note_on_c, 0, 82, 74
1, 571624, Note_on_c, 0, 73, 56
1, 571726, Note_on_c, 0, 84, 0
1, 571844, Note_on_c, 0, 73, 0
1, 572150, Note_on_c, 0, 79, 66
1, 572165, Note_on_c, 0, 63, 39
1, 572184, Note_on_c, 0, 73, 46
1, 572192, Note_on_c, 0, 70, 39
1, 572330, Note_on_c, 0, 82, 0
1, 572361, Control_c, 0, 64, 120
1, 572379, Control_c, 0, 64, 99
1, 572397, Control_c, 0, 64, 72
1, 572400, Note_on_c, 0, 68, 0
1, 572415, Control_c, 0, 64, 45
1, 572434, Control_c, 0, 64, 30
1, 572462, Note_on_c, 0, 73, 0
1, 572509, Control_c, 0, 64, 39
1, 572527, Control_c, 0, 64, 55
1, 572546, Control_c, 0, 64, 74
1, 572564, Control_c, 0, 64, 89
1, 572582, Control_c, 0, 64, 103
1, 572601, Control_c, 0, 64, 113
1, 572619, Control_c, 0, 64, 122
1, 572626, Note_on_c, 0, 73, 45
1, 572638, Control_c, 0, 64, 127
1, 572767, Note_on_c, 0, 73, 0
1, 572942, Note_on_c, 0, 80, 68
1, 572942, Note_on_c, 0, 73, 37
1, 573164, Note_on_c, 0, 73, 0
1, 573241, Note_on_c, 0, 68, 42
1, 573317, Note_on_c, 0, 82, 75
1, 573383, Note_on_c, 0, 79, 0
1, 573399, Note_on_c, 0, 80, 0
1, 573447, Note_on_c, 0, 63, 0
1, 573486, Note_on_c, 0, 67, 51
1, 573496, Poly_aftertouch_c, 0, 73, 0
1, 573564, Note_on_c, 0, 68, 0
1, 573599, Note_on_c, 0, 70, 0
1, 573877, Note_on_c, 0, 85, 74
1, 573894, Note_on_c, 0, 64, 37
1, 573897, Note_on_c, 0, 68, 37
1, 573954, Note_on_c, 0, 67, 0
1, 573978, Poly_aftertouch_c, 0, 73, 0
1, 574016, Note_on_c, 0, 82, 0
1, 574120, Control_c, 0, 64, 100
1, 574138, Control_c, 0, 64, 70
1, 574157, Control_c, 0, 64, 43
1, 574176, Control_c, 0, 64, 30
1, 574251, Control_c, 0, 64, 45
1, 574268, Control_c, 0, 64, 62
1, 574286, Control_c, 0, 64, 81
1, 574305, Control_c, 0, 64, 99
1, 574323, Control_c, 0, 64, 115
1, 574342, Control_c, 0, 64, 126
1, 574349, Note_on_c, 0, 73, 39
1, 574366, Note_on_c, 0, 68, 0
1, 574520, Note_on_c, 0, 73, 0
1, 574706, Note_on_c, 0, 80, 68
1, 574755, Note_on_c, 0, 68, 30
1, 574760, Note_on_c, 0, 73, 11
1, 574847, Note_on_c, 0, 73, 0
1, 574937, Note_on_c, 0, 85, 0
1, 575090, Note_on_c, 0, 64, 0
1, 575158, Note_on_c, 0, 73, 34
1, 575295, Note_on_c, 0, 73, 0
1, 575566, Note_on_c, 0, 79, 68
1, 575603, Note_on_c, 0, 63, 39
1, 575610, Note_on_c, 0, 70, 36
1, 575614, Note_on_c, 0, 73, 28
1, 575788, Note_on_c, 0, 80, 0
1, 575796, Control_c, 0, 64, 118
1, 575825, Control_c, 0, 64, 91
1, 575841, Note_on_c, 0, 68, 0
1, 575842, Control_c, 0, 64, 63
1, 575846, Note_on_c, 0, 73, 0
1, 575861, Control_c, 0, 64, 43
1, 575937, Control_c, 0, 64, 51
1, 575953, Control_c, 0, 64, 64
1, 575972, Control_c, 0, 64, 81
1, 575984, Note_on_c, 0, 73, 49
1, 575990, Control_c, 0, 64, 101
1, 576010, Control_c, 0, 64, 122
1, 576028, Control_c, 0, 64, 127
1, 576134, Note_on_c, 0, 73, 0
1, 576348, Note_on_c, 0, 80, 65
1, 576376, Note_on_c, 0, 73, 38
1, 576553, Note_on_c, 0, 73, 0
1, 576628, Note_on_c, 0, 68, 45
1, 576713, Note_on_c, 0, 82, 69
1, 576743, Note_on_c, 0, 73, 33
1, 576774, Note_on_c, 0, 63, 0
1, 576813, Note_on_c, 0, 79, 0
1, 576830, Note_on_c, 0, 80, 0
1, 576897, Note_on_c, 0, 67, 52
1, 576940, Note_on_c, 0, 73, 0
1, 576955, Note_on_c, 0, 68, 0
1, 577003, Control_c, 0, 67, 8
1, 577057, Control_c, 0, 67, 12
1, 577064, Note_on_c, 0, 70, 0
1, 577093, Control_c, 0, 67, 21
1, 577111, Control_c, 0, 67, 31
1, 577130, Control_c, 0, 67, 39
1, 577149, Control_c, 0, 67, 43
1, 577270, Note_on_c, 0, 64, 30
1, 577287, Note_on_c, 0, 68, 35
1, 577300, Note_on_c, 0, 85, 72
1, 577398, Note_on_c, 0, 67, 0
1, 577424, Note_on_c, 0, 82, 0
1, 577463, Control_c, 0, 64, 112
1, 577484, Control_c, 0, 64, 83
1, 577501, Control_c, 0, 64, 54
1, 577503, Poly_aftertouch_c, 0, 73, 0
1, 577519, Control_c, 0, 64, 37
1, 577576, Control_c, 0, 64, 43
1, 577594, Control_c, 0, 64, 56
1, 577614, Control_c, 0, 64, 71
1, 577615, Control_c, 0, 67, 48
1, 577631, Control_c, 0, 64, 89
1, 577649, Control_c, 0, 64, 110
1, 577668, Control_c, 0, 64, 126
1, 577715, Control_c, 0, 67, 52
1, 577763, Note_on_c, 0, 73, 45
1, 577767, Control_c, 0, 67, 57
1, 577806, Control_c, 0, 67, 61
1, 577843, Control_c, 0, 67, 66
1, 577852, Note_on_c, 0, 68, 0
1, 577881, Control_c, 0, 67, 74
1, 577900, Control_c, 0, 67, 82
1, 577919, Control_c, 0, 67, 88
1, 577938, Control_c, 0, 67, 92
1, 577948, Note_on_c, 0, 73, 0
1, 577991, Control_c, 0, 67, 96
1, 578030, Control_c, 0, 67, 102
1, 578047, Control_c, 0, 67, 108
1, 578103, Control_c, 0, 67, 112
1, 578140, Control_c, 0, 67, 119
1, 578153, Note_on_c, 0, 80, 56
1, 578173, Note_on_c, 0, 73, 22
1, 578176, Control_c, 0, 67, 124
1, 578191, Note_on_c, 0, 68, 24
1, 578354, Note_on_c, 0, 73, 0
1, 578395, Note_on_c, 0, 85, 0
1, 578525, Note_on_c, 0, 64, 0
1, 578584, Note_on_c, 0, 73, 40
1, 578807, Note_on_c, 0, 73, 0
1, 579114, Note_on_c, 0, 63, 26
1, 579122, Note_on_c, 0, 79, 50
1, 579130, Note_on_c, 0, 73, 24
1, 579132, Note_on_c, 0, 70, 30
1, 579273, Note_on_c, 0, 80, 0
1, 579280, Control_c, 0, 64, 122
1, 579300, Control_c, 0, 64, 100
1, 579314, Note_on_c, 0, 68, 0
1, 579317, Control_c, 0, 64, 73
1, 579334, Control_c, 0, 64, 47
1, 579354, Control_c, 0, 64, 35
1, 579428, Control_c, 0, 64, 44
1, 579446, Control_c, 0, 64, 59
1, 579448, Note_on_c, 0, 73, 0
1, 579463, Control_c, 0, 64, 78
1, 579483, Control_c, 0, 64, 96
1, 579502, Control_c, 0, 64, 115
1, 579520, Control_c, 0, 64, 126
1, 579609, Note_on_c, 0, 73, 42
1, 579756, Note_on_c, 0, 73, 0
1, 580005, Note_on_c, 0, 80, 45
1, 580013, Note_on_c, 0, 73, 32
1, 580240, Note_on_c, 0, 73, 0
1, 580323, Note_on_c, 0, 68, 35
1, 580391, Note_on_c, 0, 63, 0
1, 580421, Note_on_c, 0, 82, 53
1, 580432, Note_on_c, 0, 73, 23
1, 580473, Poly_aftertouch_c, 0, 79, 24
1, 580511, Note_on_c, 0, 80, 0
1, 580523, Note_on_c, 0, 79, 0
1, 580523, Poly_aftertouch_c, 0, 79, 0
1, 580530, Note_on_c, 0, 70, 0
1, 580634, Note_on_c, 0, 67, 30
1, 580667, Note_on_c, 0, 68, 0
1, 580702, Note_on_c, 0, 73, 0
1, 581116, Note_on_c, 0, 85, 56
1, 581143, Note_on_c, 0, 68, 30
1, 581149, Note_on_c, 0, 64, 32
1, 581220, Note_on_c, 0, 67, 0
1, 581244, Control_c, 0, 64, 111
1, 581247, Note_on_c, 0, 82, 0
1, 581262, Control_c, 0, 64, 83
1, 581280, Control_c, 0, 64, 53
1, 581301, Control_c, 0, 64, 31
1, 581318, Poly_aftertouch_c, 0, 73, 0
1, 581335, Control_c, 0, 64, 27
1, 581372, Control_c, 0, 64, 22
1, 581437, Control_c, 0, 64, 34
1, 581457, Control_c, 0, 64, 52
1, 581475, Control_c, 0, 64, 74
1, 581495, Control_c, 0, 64, 91
1, 581511, Control_c, 0, 64, 109
1, 581529, Control_c, 0, 64, 122
1, 581548, Control_c, 0, 64, 127
1, 581670, Note_on_c, 0, 73, 23
1, 581763, Note_on_c, 0, 68, 0
1, 581878, Note_on_c, 0, 73, 0
1, 582140, Note_on_c, 0, 80, 36
1, 582169, Note_on_c, 0, 68, 19
1, 582175, Note_on_c, 0, 73, 25
1, 582347, Note_on_c, 0, 73, 0
1, 582538, Note_on_c, 0, 64, 0
1, 582602, Note_on_c, 0, 85, 0
1, 582694, Note_on_c, 0, 73, 23
1, 582914, Note_on_c, 0, 73, 0
1, 583531, Note_on_c, 0, 79, 35
1, 583540, Note_on_c, 0, 70, 20
1, 583552, Note_on_c, 0, 63, 29
1, 583554, Note_on_c, 0, 73, 21
1, 583665, Note_on_c, 0, 80, 0
1, 583709, Note_on_c, 0, 68, 0
1, 583772, Control_c, 0, 64, 121
1, 583790, Control_c, 0, 64, 101
1, 583809, Control_c, 0, 64, 76
1, 583827, Control_c, 0, 64, 54
1, 583848, Control_c, 0, 64, 44
1, 583938, Control_c, 0, 64, 48
1, 583956, Control_c, 0, 64, 57
1, 583976, Control_c, 0, 64, 71
1, 583994, Control_c, 0, 64, 84
1, 584012, Control_c, 0, 64, 97
1, 584032, Control_c, 0, 64, 109
1, 584050, Control_c, 0, 64, 123
1, 584070, Control_c, 0, 64, 127
1, 584176, Note_on_c, 0, 63, 0
1, 584570, Note_on_c, 0, 73, 0
1, 584607, Note_on_c, 0, 70, 0
1, 585104, Note_on_c, 0, 87, 69
1, 585152, Note_on_c, 0, 75, 21
1, 585242, Note_on_c, 0, 79, 0
1, 585612, Note_on_c, 0, 79, 30
1, 585736, Note_on_c, 0, 75, 0
1, 586246, Note_on_c, 0, 27, 29
1, 586253, Note_on_c, 0, 84, 67
1, 586268, Note_on_c, 0, 39, 31
1, 586274, Note_on_c, 0, 80, 42
1, 586411, Control_c, 0, 64, 121
1, 586430, Control_c, 0, 64, 93
1, 586443, Note_on_c, 0, 87, 0
1, 586447, Control_c, 0, 64, 63
1, 586468, Control_c, 0, 64, 41
1, 586498, Poly_aftertouch_c, 0, 79, 22
1, 586513, Note_on_c, 0, 79, 0
1, 586513, Poly_aftertouch_c, 0, 79, 0
1, 586524, Control_c, 0, 64, 47
1, 586542, Control_c, 0, 64, 58
1, 586561, Control_c, 0, 64, 72
1, 586578, Control_c, 0, 64, 89
1, 586597, Control_c, 0, 64, 110
1, 586617, Control_c, 0, 64, 127
1, 586853, Note_on_c, 0, 76, 29
1, 586905, Note_on_c, 0, 80, 0
1, 587246, Note_on_c, 0, 84, 0
1, 587253, Note_on_c, 0, 80, 59
1, 587280, Note_on_c, 0, 77, 36
1, 587347, Note_on_c, 0, 76, 0
1, 587581, Poly_aftertouch_c, 0, 77, 24
1, 587639, Note_on_c, 0, 77, 0
1, 587639, Poly_aftertouch_c, 0, 77, 0
1, 587655, Note_on_c, 0, 72, 39
1, 587714, Note_on_c, 0, 80, 0
1, 588046, Note_on_c, 0, 77, 61
1, 588101, Note_on_c, 0, 73, 28
1, 588105, Note_on_c, 0, 72, 0
1, 588244, Note_on_c, 0, 73, 0
1, 588244, Note_on_c, 0, 73, 10
1, 588433, Note_on_c, 0, 69, 42
1, 588485, Note_on_c, 0, 73, 0
1, 588836, Note_on_c, 0, 73, 62
1, 588868, Note_on_c, 0, 70, 20
1, 588930, Note_on_c, 0, 69, 0
1, 588935, Note_on_c, 0, 77, 0
1, 589237, Note_on_c, 0, 65, 48
1, 589312, Note_on_c, 0, 70, 0
1, 589724, Note_on_c, 0, 70, 52
1, 589737, Note_on_c, 0, 67, 33
1, 589779, Note_on_c, 0, 65, 0
1, 589834, Note_on_c, 0, 73, 0
1, 589895, Control_c, 0, 64, 109
1, 589916, Control_c, 0, 64, 85
1, 589933, Control_c, 0, 64, 61
1, 589949, Control_c, 0, 64, 47
1, 590024, Control_c, 0, 64, 53
1, 590044, Control_c, 0, 64, 62
1, 590062, Control_c, 0, 64, 75
1, 590083, Control_c, 0, 64, 90
1, 590100, Control_c, 0, 64, 107
1, 590116, Control_c, 0, 64, 121
1, 590135, Control_c, 0, 64, 127
1, 590169, Note_on_c, 0, 63, 41
1, 590176, Note_on_c, 0, 67, 0
1, 590303, Note_on_c, 0, 70, 0
1, 590450, Note_on_c, 0, 63, 0
1, 590479, Note_on_c, 0, 72, 47
1, 590489, Note_on_c, 0, 69, 45
1, 590615, Note_on_c, 0, 72, 0
1, 590656, Note_on_c, 0, 73, 43
1, 590724, Note_on_c, 0, 73, 0
1, 590768, Note_on_c, 0, 72, 29
1, 590825, Note_on_c, 0, 72, 0
1, 590833, Note_on_c, 0, 73, 60
1, 590885, Poly_aftertouch_c, 0, 69, 20
1, 590887, Note_on_c, 0, 63, 20
1, 590892, Note_on_c, 0, 69, 0
1, 590892, Poly_aftertouch_c, 0, 69, 0
1, 590909, Note_on_c, 0, 73, 0
1, 590932, Note_on_c, 0, 72, 51
1, 590958, Note_on_c, 0, 73, 54
1, 590963, Note_on_c, 0, 72, 0
1, 591021, Note_on_c, 0, 73, 0
1, 591053, Note_on_c, 0, 72, 49
1, 591090, Note_on_c, 0, 72, 0
1, 591108, Note_on_c, 0, 70, 57
1, 591197, Note_on_c, 0, 72, 63
1, 591208, Note_on_c, 0, 70, 0
1, 591472, Note_on_c, 0, 73, 42
1, 591507, Note_on_c, 0, 70, 48
1, 591529, Note_on_c, 0, 72, 0
1, 591568, Note_on_c, 0, 63, 0
1, 591627, Control_c, 0, 64, 117
1, 591646, Control_c, 0, 64, 94
1, 591664, Control_c, 0, 64, 68
1, 591684, Control_c, 0, 64, 46
1, 591702, Control_c, 0, 64, 37
1, 591749, Control_c, 0, 64, 33
1, 591804, Control_c, 0, 64, 37
1, 591821, Control_c, 0, 64, 48
1, 591840, Control_c, 0, 64, 58
1, 591859, Control_c, 0, 64, 72
1, 591878, Control_c, 0, 64, 86
1, 591896, Control_c, 0, 64, 103
1, 591914, Control_c, 0, 64, 117
1, 591934, Control_c, 0, 64, 127
1, 591997, Note_on_c, 0, 63, 41
1, 592104, Note_on_c, 0, 70, 0
1, 592285, Control_c, 0, 67, 118
1, 592323, Control_c, 0, 67, 109
1, 592341, Control_c, 0, 67, 102
1, 592359, Control_c, 0, 67, 95
1, 592377, Control_c, 0, 67, 86
1, 592396, Control_c, 0, 67, 75
1, 592414, Control_c, 0, 67, 64
1, 592426, Note_on_c, 0, 70, 54
1, 592433, Control_c, 0, 67, 51
1, 592447, Note_on_c, 0, 67, 44
1, 592450, Control_c, 0, 67, 39
1, 592471, Control_c, 0, 67, 27
1, 592489, Control_c, 0, 67, 17
1, 592508, Control_c, 0, 67, 9
1, 592543, Control_c, 0, 67, 0
1, 592578, Note_on_c, 0, 63, 0
1, 592787, Note_on_c, 0, 73, 0
1, 592873, Note_on_c, 0, 63, 37
1, 592891, Note_on_c, 0, 67, 0
1, 593349, Note_on_c, 0, 72, 66
1, 593359, Note_on_c, 0, 68, 47
1, 593512, Note_on_c, 0, 70, 0
1, 593777, Note_on_c, 0, 63, 0
1, 593826, Note_on_c, 0, 70, 45
1, 594235, Note_on_c, 0, 75, 75
1, 594260, Note_on_c, 0, 67, 46
1, 594304, Note_on_c, 0, 68, 0
1, 594343, Note_on_c, 0, 70, 0
1, 594367, Note_on_c, 0, 72, 0
1, 594433, Control_c, 0, 64, 104
1, 594453, Control_c, 0, 64, 79
1, 594471, Control_c, 0, 64, 59
1, 594489, Control_c, 0, 64, 54
1, 594527, Control_c, 0, 64, 61
1, 594556, Control_c, 0, 64, 70
1, 594573, Control_c, 0, 64, 84
1, 594592, Control_c, 0, 64, 105
1, 594609, Control_c, 0, 64, 127
1, 594671, Note_on_c, 0, 70, 50
1, 594739, Note_on_c, 0, 75, 0
1, 594788, Note_on_c, 0, 67, 0
1, 595096, Note_on_c, 0, 80, 79
1, 595123, Note_on_c, 0, 65, 41
1, 595171, Note_on_c, 0, 70, 0
1, 595258, Control_c, 0, 64, 108
1, 595277, Control_c, 0, 64, 83
1, 595297, Control_c, 0, 64, 64
1, 595315, Control_c, 0, 64, 63
1, 595333, Control_c, 0, 64, 68
1, 595350, Control_c, 0, 64, 77
1, 595369, Control_c, 0, 64, 90
1, 595389, Control_c, 0, 64, 110
1, 595406, Control_c, 0, 64, 127
1, 595521, Note_on_c, 0, 73, 52
1, 595541, Note_on_c, 0, 65, 0
1, 595650, Note_on_c, 0, 80, 0
1, 595768, Control_c, 0, 67, 9
1, 595805, Control_c, 0, 67, 21
1, 595825, Control_c, 0, 67, 29
1, 595842, Control_c, 0, 67, 35
1, 595861, Control_c, 0, 67, 40
1, 595879, Control_c, 0, 67, 44
1, 595899, Control_c, 0, 67, 49
1, 595915, Control_c, 0, 67, 54
1, 595934, Control_c, 0, 67, 60
1, 595953, Control_c, 0, 67, 65
1, 595972, Control_c, 0, 67, 70
1, 595989, Control_c, 0, 67, 74
1, 596008, Control_c, 0, 67, 78
1, 596022, Note_on_c, 0, 82, 60
1, 596027, Control_c, 0, 67, 82
1, 596031, Note_on_c, 0, 74, 52
1, 596046, Control_c, 0, 67, 86
1, 596065, Control_c, 0, 64, 112
1, 596066, Control_c, 0, 67, 92
1, 596068, Note_on_c, 0, 73, 0
1, 596084, Control_c, 0, 64, 84
1, 596085, Control_c, 0, 67, 97
1, 596101, Control_c, 0, 64, 62
1, 596104, Control_c, 0, 67, 102
1, 596120, Control_c, 0, 64, 61
1, 596121, Control_c, 0, 67, 107
1, 596138, Control_c, 0, 64, 67
1, 596139, Control_c, 0, 67, 111
1, 596157, Control_c, 0, 64, 76
1, 596175, Control_c, 0, 64, 90
1, 596178, Control_c, 0, 67, 116
1, 596194, Control_c, 0, 64, 113
1, 596213, Control_c, 0, 64, 127
1, 596214, Control_c, 0, 67, 120
1, 596223, Note_on_c, 0, 82, 0
1, 596230, Control_c, 0, 67, 125
1, 596506, Note_on_c, 0, 64, 50
1, 596621, Note_on_c, 0, 64, 0
1, 596645, Note_on_c, 0, 74, 0
1, 596760, Control_c, 0, 64, 115
1, 596778, Control_c, 0, 64, 76
1, 596796, Control_c, 0, 64, 33
1, 596806, Note_on_c, 0, 63, 48
1, 596816, Control_c, 0, 64, 15
1, 596852, Control_c, 0, 64, 26
1, 596869, Control_c, 0, 64, 49
1, 596889, Control_c, 0, 64, 71
1, 596906, Note_on_c, 0, 63, 0
1, 596907, Control_c, 0, 64, 96
1, 596915, Note_on_c, 0, 75, 45
1, 596925, Control_c, 0, 64, 127
1, 597280, Note_on_c, 0, 75, 0
1, 597464, Note_on_c, 0, 87, 66
1, 597645, Note_on_c, 0, 87, 0
1, 597980, Note_on_c, 0, 67, 39
1, 598270, Control_c, 0, 67, 119
1, 598315, Control_c, 0, 67, 113
1, 598334, Control_c, 0, 67, 107
1, 598353, Control_c, 0, 67, 101
1, 598370, Control_c, 0, 67, 91
1, 598389, Control_c, 0, 67, 78
1, 598403, Note_on_c, 0, 70, 40
1, 598407, Control_c, 0, 67, 63
1, 598426, Control_c, 0, 67, 49
1, 598446, Control_c, 0, 67, 36
1, 598463, Control_c, 0, 67, 26
1, 598481, Control_c, 0, 67, 17
1, 598499, Control_c, 0, 67, 10
1, 598521, Note_on_c, 0, 67, 0
1, 598786, Note_on_c, 0, 75, 46
1, 598913, Note_on_c, 0, 70, 0
1, 598926, Control_c, 0, 67, 15
1, 598944, Control_c, 0, 67, 21
1, 598963, Control_c, 0, 67, 31
1, 598983, Control_c, 0, 67, 43
1, 599001, Control_c, 0, 67, 53
1, 599005, Note_on_c, 0, 27, 0
1, 599020, Control_c, 0, 67, 61
1, 599038, Control_c, 0, 67, 69
1, 599057, Control_c, 0, 67, 76
1, 599075, Control_c, 0, 67, 83
1, 599092, Control_c, 0, 67, 90
1, 599111, Control_c, 0, 67, 96
1, 599130, Control_c, 0, 67, 101
1, 599148, Note_on_c, 0, 75, 0
1, 599148, Control_c, 0, 67, 105
1, 599186, Control_c, 0, 67, 111
1, 599209, Note_on_c, 0, 79, 53
1, 599269, Control_c, 0, 67, 117
1, 599306, Control_c, 0, 67, 122
1, 599362, Control_c, 0, 67, 127
1, 599416, Note_on_c, 0, 39, 0
1, 599664, Note_on_c, 0, 82, 52
1, 599717, Note_on_c, 0, 79, 0
1, 600362, Note_on_c, 0, 87, 70
1, 600383, Note_on_c, 0, 47, 32
1, 600396, Note_on_c, 0, 75, 28
1, 600402, Note_on_c, 0, 35, 33
1, 600434, Note_on_c, 0, 82, 0
1, 600537, Control_c, 0, 64, 98
1, 600556, Control_c, 0, 64, 66
1, 600575, Control_c, 0, 64, 34
1, 600593, Control_c, 0, 64, 20
1, 600630, Control_c, 0, 64, 16
1, 600686, Control_c, 0, 64, 26
1, 600706, Control_c, 0, 64, 44
1, 600722, Control_c, 0, 64, 60
1, 600742, Control_c, 0, 64, 79
1, 600760, Control_c, 0, 64, 97
1, 600778, Control_c, 0, 64, 116
1, 600798, Control_c, 0, 64, 127
1, 600955, Note_on_c, 0, 78, 38
1, 601050, Note_on_c, 0, 78, 0
1, 601050, Note_on_c, 0, 78, 6
1, 601122, Note_on_c, 0, 75, 0
1, 601376, Note_on_c, 0, 75, 40
1, 601465, Note_on_c, 0, 78, 0
1, 601759, Note_on_c, 0, 79, 42
1, 602204, Note_on_c, 0, 83, 66
1, 602230, Note_on_c, 0, 75, 0
1, 602231, Note_on_c, 0, 80, 47
1, 602337, Note_on_c, 0, 87, 0
1, 602391, Note_on_c, 0, 79, 0
1, 602520, Control_c, 0, 67, 122
1, 602557, Control_c, 0, 67, 117
1, 602594, Control_c, 0, 67, 111
1, 602612, Control_c, 0, 67, 106
1, 602631, Control_c, 0, 67, 99
1, 602650, Control_c, 0, 67, 90
1, 602663, Note_on_c, 0, 80, 0
1, 602669, Control_c, 0, 67, 77
1, 602686, Control_c, 0, 67, 63
1, 602697, Note_on_c, 0, 75, 37
1, 602705, Control_c, 0, 67, 49
1, 602724, Control_c, 0, 67, 35
1, 602744, Control_c, 0, 67, 23
1, 602761, Control_c, 0, 67, 12
1, 602816, Control_c, 0, 67, 0
1, 603097, Note_on_c, 0, 80, 63
1, 603133, Note_on_c, 0, 76, 44
1, 603188, Note_on_c, 0, 75, 0
1, 603221, Note_on_c, 0, 83, 0
1, 603453, Poly_aftertouch_c, 0, 82, 0
1, 603509, Note_on_c, 0, 72, 44
1, 603536, Note_on_c, 0, 76, 0
1, 603560, Note_on_c, 0, 80, 0
1, 603904, Note_on_c, 0, 76, 63
1, 603958, Note_on_c, 0, 73, 38
1, 603972, Note_on_c, 0, 72, 0
1, 604331, Note_on_c, 0, 68, 48
1, 604335, Note_on_c, 0, 73, 0
1, 604872, Note_on_c, 0, 73, 59
1, 604910, Note_on_c, 0, 70, 41
1, 604981, Note_on_c, 0, 68, 0
1, 605051, Control_c, 0, 64, 116
1, 605070, Control_c, 0, 64, 91
1, 605086, Control_c, 0, 64, 64
1, 605106, Control_c, 0, 64, 43
1, 605123, Control_c, 0, 64, 39
1, 605124, Note_on_c, 0, 76, 0
1, 605160, Control_c, 0, 64, 44
1, 605179, Control_c, 0, 64, 55
1, 605198, Control_c, 0, 64, 69
1, 605215, Control_c, 0, 64, 84
1, 605234, Control_c, 0, 64, 102
1, 605252, Control_c, 0, 64, 116
1, 605272, Control_c, 0, 64, 127
1, 605290, Control_c, 0, 67, 11
1, 605308, Control_c, 0, 67, 17
1, 605327, Control_c, 0, 67, 24
1, 605343, Note_on_c, 0, 64, 41
1, 605345, Control_c, 0, 67, 29
1, 605365, Control_c, 0, 67, 35
1, 605383, Control_c, 0, 67, 40
1, 605401, Control_c, 0, 67, 46
1, 605419, Control_c, 0, 67, 54
1, 605438, Control_c, 0, 67, 61
1, 605459, Control_c, 0, 67, 67
1, 605461, Note_on_c, 0, 70, 0
1, 605475, Control_c, 0, 67, 72
1, 605493, Control_c, 0, 67, 76
1, 605512, Control_c, 0, 67, 80
1, 605531, Control_c, 0, 67, 85
1, 605550, Control_c, 0, 67, 90
1, 605569, Control_c, 0, 67, 96
1, 605585, Control_c, 0, 67, 101
1, 605599, Note_on_c, 0, 64, 0
1, 605602, Control_c, 0, 67, 106
1, 605616, Note_on_c, 0, 75, 53
1, 605620, Note_on_c, 0, 73, 0
1, 605622, Control_c, 0, 67, 110
1, 605658, Control_c, 0, 67, 116
1, 605661, Note_on_c, 0, 71, 34
1, 605700, Control_c, 0, 64, 94
1, 605701, Control_c, 0, 67, 122
1, 605717, Control_c, 0, 64, 75
1, 605735, Control_c, 0, 64, 77
1, 605736, Control_c, 0, 67, 126
1, 605754, Note_on_c, 0, 75, 0
1, 605754, Control_c, 0, 64, 88
1, 605781, Control_c, 0, 64, 102
1, 605783, Note_on_c, 0, 76, 52
1, 605799, Control_c, 0, 64, 121
1, 605818, Control_c, 0, 64, 127
1, 605845, Note_on_c, 0, 76, 0
1, 605887, Note_on_c, 0, 75, 54
1, 605940, Note_on_c, 0, 75, 0
1, 605950, Poly_aftertouch_c, 0, 71, 24
1, 605961, Note_on_c, 0, 76, 60
1, 606029, Note_on_c, 0, 76, 0
1, 606042, Note_on_c, 0, 75, 49
1, 606062, Note_on_c, 0, 63, 42
1, 606080, Note_on_c, 0, 75, 0
1, 606085, Note_on_c, 0, 76, 55
1, 606158, Note_on_c, 0, 71, 0
1, 606158, Poly_aftertouch_c, 0, 71, 0
1, 606159, Poly_aftertouch_c, 0, 71, 0
1, 606159, Note_on_c, 0, 75, 74
1, 606164, Note_on_c, 0, 76, 0
1, 606212, Note_on_c, 0, 75, 0
1, 606212, Note_on_c, 0, 73, 60
1, 606299, Note_on_c, 0, 73, 0
1, 606300, Note_on_c, 0, 75, 74
1, 606505, Note_on_c, 0, 76, 60
1, 606534, Note_on_c, 0, 63, 0
1, 606549, Note_on_c, 0, 75, 0
1, 606557, Note_on_c, 0, 73, 36
1, 606652, Control_c, 0, 64, 117
1, 606672, Note_on_c, 0, 73, 0
1, 606672, Note_on_c, 0, 73, 7
1, 606672, Control_c, 0, 64, 91
1, 606690, Control_c, 0, 64, 60
1, 606716, Control_c, 0, 64, 31
1, 606735, Control_c, 0, 64, 19
1, 606754, Control_c, 0, 64, 13
1, 606829, Control_c, 0, 64, 29
1, 606830, Control_c, 0, 67, 122
1, 606847, Control_c, 0, 64, 44
1, 606866, Control_c, 0, 64, 62
1, 606868, Control_c, 0, 67, 115
1, 606885, Control_c, 0, 64, 78
1, 606885, Control_c, 0, 67, 111
1, 606903, Control_c, 0, 64, 90
1, 606905, Control_c, 0, 67, 107
1, 606923, Control_c, 0, 64, 100
1, 606924, Control_c, 0, 67, 102
1, 606942, Control_c, 0, 64, 109
1, 606944, Control_c, 0, 67, 94
1, 606953, Note_on_c, 0, 61, 47
1, 606957, Control_c, 0, 64, 119
1, 606958, Control_c, 0, 67, 81
1, 606978, Control_c, 0, 64, 125
1, 606979, Control_c, 0, 67, 65
1, 606995, Control_c, 0, 67, 49
1, 607013, Control_c, 0, 67, 33
1, 607032, Control_c, 0, 67, 20
1, 607050, Control_c, 0, 67, 9
1, 607086, Control_c, 0, 67, 0
1, 607098, Note_on_c, 0, 73, 0
1, 607332, Note_on_c, 0, 73, 63
1, 607359, Note_on_c, 0, 61, 0
1, 607375, Note_on_c, 0, 70, 50
1, 607741, Note_on_c, 0, 64, 54
1, 607797, Note_on_c, 0, 70, 0
1, 608263, Note_on_c, 0, 75, 67
1, 608293, Note_on_c, 0, 71, 47
1, 608412, Control_c, 0, 64, 121
1, 608430, Control_c, 0, 64, 95
1, 608437, Note_on_c, 0, 76, 0
1, 608448, Control_c, 0, 64, 66
1, 608456, Note_on_c, 0, 64, 0
1, 608466, Control_c, 0, 64, 45
1, 608494, Note_on_c, 0, 73, 0
1, 608523, Control_c, 0, 64, 57
1, 608542, Control_c, 0, 64, 68
1, 608561, Control_c, 0, 64, 83
1, 608588, Control_c, 0, 64, 104
1, 608607, Control_c, 0, 64, 126
1, 608699, Control_c, 0, 67, 9
1, 608717, Control_c, 0, 67, 14
1, 608737, Control_c, 0, 67, 19
1, 608755, Control_c, 0, 67, 25
1, 608767, Note_on_c, 0, 63, 51
1, 608772, Note_on_c, 0, 71, 0
1, 608774, Control_c, 0, 67, 29
1, 608806, Note_on_c, 0, 47, 0
1, 608898, Note_on_c, 0, 63, 0
1, 608957, Control_c, 0, 67, 25
1, 609107, Control_c, 0, 67, 21
1, 609116, Note_on_c, 0, 34, 52
1, 609124, Note_on_c, 0, 46, 54
1, 609164, Control_c, 0, 67, 17
1, 609186, Note_on_c, 0, 79, 75
1, 609197, Control_c, 0, 67, 11
1, 609208, Note_on_c, 0, 73, 50
1, 609231, Note_on_c, 0, 75, 0
1, 609255, Control_c, 0, 67, 0
1, 609312, Control_c, 0, 64, 98
1, 609328, Control_c, 0, 64, 68
1, 609340, Note_on_c, 0, 35, 0
1, 609345, Control_c, 0, 64, 51
1, 609385, Control_c, 0, 64, 61
1, 609402, Control_c, 0, 64, 71
1, 609422, Control_c, 0, 64, 85
1, 609441, Control_c, 0, 64, 107
1, 609459, Control_c, 0, 64, 127
1, 609614, Note_on_c, 0, 76, 53
1, 609650, Note_on_c, 0, 73, 0
1, 609717, Note_on_c, 0, 76, 0
1, 609723, Note_on_c, 0, 46, 0
1, 610008, Note_on_c, 0, 44, 49
1, 610034, Note_on_c, 0, 32, 44
1, 610088, Note_on_c, 0, 80, 72
1, 610115, Note_on_c, 0, 71, 33
1, 610175, Note_on_c, 0, 34, 0
1, 610176, Note_on_c, 0, 79, 0
1, 610191, Control_c, 0, 64, 120
1, 610209, Control_c, 0, 64, 98
1, 610230, Control_c, 0, 64, 72
1, 610247, Control_c, 0, 64, 53
1, 610264, Control_c, 0, 64, 49
1, 610301, Control_c, 0, 64, 59
1, 610320, Control_c, 0, 64, 70
1, 610338, Control_c, 0, 64, 85
1, 610357, Control_c, 0, 64, 105
1, 610376, Control_c, 0, 64, 125
1, 610542, Note_on_c, 0, 82, 80
1, 610588, Note_on_c, 0, 75, 41
1, 610626, Note_on_c, 0, 80, 0
1, 610632, Note_on_c, 0, 44, 0
1, 610809, Poly_aftertouch_c, 0, 71, 20
1, 610823, Note_on_c, 0, 75, 0
1, 610839, Note_on_c, 0, 71, 0
1, 610839, Poly_aftertouch_c, 0, 71, 0
1, 610950, Note_on_c, 0, 83, 81
1, 610952, Note_on_c, 0, 28, 56
1, 610952, Note_on_c, 0, 40, 60
1, 610990, Note_on_c, 0, 80, 50
1, 611016, Control_c, 0, 64, 94
1, 611034, Control_c, 0, 64, 62
1, 611053, Control_c, 0, 64, 45
1, 611061, Note_on_c, 0, 32, 0
1, 611089, Control_c, 0, 64, 56
1, 611107, Control_c, 0, 64, 71
1, 611127, Control_c, 0, 64, 91
1, 611147, Control_c, 0, 64, 116
1, 611149, Note_on_c, 0, 82, 0
1, 611163, Control_c, 0, 64, 127
1, 611216, Note_on_c, 0, 83, 0
1, 611245, Note_on_c, 0, 80, 0
1, 611372, Note_on_c, 0, 85, 85
1, 611388, Note_on_c, 0, 80, 69
1, 611395, Note_on_c, 0, 71, 53
1, 611501, Note_on_c, 0, 71, 0
1, 611540, Note_on_c, 0, 80, 0
1, 611689, Note_on_c, 0, 85, 0
1, 611700, Note_on_c, 0, 72, 45
1, 611726, Note_on_c, 0, 80, 57
1, 611830, Note_on_c, 0, 84, 53
1, 611851, Note_on_c, 0, 27, 60
1, 611910, Note_on_c, 0, 40, 0
1, 611964, Note_on_c, 0, 28, 0
1, 612142, Note_on_c, 0, 87, 84
1, 612210, Control_c, 0, 64, 113
1, 612228, Control_c, 0, 64, 81
1, 612247, Control_c, 0, 64, 42
1, 612267, Control_c, 0, 64, 0
1, 612404, Control_c, 0, 64, 22
1, 612424, Control_c, 0, 64, 48
1, 612443, Control_c, 0, 64, 74
1, 612460, Control_c, 0, 64, 93
1, 612479, Control_c, 0, 64, 113
1, 612498, Control_c, 0, 64, 126
1, 612648, Note_on_c, 0, 27, 0
1, 612656, Note_on_c, 0, 39, 54
1, 612809, Note_on_c, 0, 39, 0
1, 613069, Note_on_c, 0, 51, 52
1, 613457, Note_on_c, 0, 56, 67
1, 613538, Note_on_c, 0, 51, 0
1, 613843, Note_on_c, 0, 87, 0
1, 613973, Note_on_c, 0, 72, 0
1, 613981, Poly_aftertouch_c, 0, 74, 0
1, 614004, Note_on_c, 0, 63, 55
1, 614008, Note_on_c, 0, 84, 0
1, 614103, Note_on_c, 0, 56, 0
1, 614254, Note_on_c, 0, 80, 0
1, 614446, Note_on_c, 0, 60, 68
1, 614466, Note_on_c, 0, 63, 0
1, 614553, Note_on_c, 0, 60, 0
1, 614795, Note_on_c, 0, 51, 53
1, 614855, Note_on_c, 0, 84, 82
1, 614873, Note_on_c, 0, 80, 59
1, 614893, Note_on_c, 0, 72, 52
1, 615226, Note_on_c, 0, 39, 72
1, 615276, Note_on_c, 0, 51, 0
1, 615401, Note_on_c, 0, 80, 0
1, 615420, Note_on_c, 0, 72, 0
1, 615590, Note_on_c, 0, 39, 0
1, 615632, Note_on_c, 0, 84, 0
1, 615670, Note_on_c, 0, 27, 70
1, 615775, Note_on_c, 0, 72, 60
1, 615828, Note_on_c, 0, 81, 64
1, 615879, Note_on_c, 0, 84, 67
1, 615954, Note_on_c, 0, 87, 85
1, 615988, Poly_aftertouch_c, 0, 83, 0
1, 616109, Control_c, 0, 64, 118
1, 616128, Control_c, 0, 64, 81
1, 616147, Control_c, 0, 64, 45
1, 616165, Control_c, 0, 64, 19
1, 616221, Control_c, 0, 64, 36
1, 616240, Control_c, 0, 64, 59
1, 616258, Control_c, 0, 64, 84
1, 616275, Control_c, 0, 64, 108
1, 616294, Control_c, 0, 64, 127
1, 616309, Note_on_c, 0, 39, 67
1, 616362, Note_on_c, 0, 27, 0
1, 616474, Note_on_c, 0, 39, 0
1, 616707, Note_on_c, 0, 51, 64
1, 617090, Note_on_c, 0, 57, 66
1, 617120, Control_c, 0, 67, 8
1, 617193, Control_c, 0, 67, 14
1, 617218, Note_on_c, 0, 51, 0
1, 617230, Control_c, 0, 67, 19
1, 617267, Control_c, 0, 67, 25
1, 617286, Control_c, 0, 67, 34
1, 617305, Control_c, 0, 67, 45
1, 617306, Note_on_c, 0, 87, 0
1, 617324, Control_c, 0, 67, 52
1, 617647, Note_on_c, 0, 63, 56
1, 617732, Control_c, 0, 64, 122
1, 617749, Control_c, 0, 64, 90
1, 617751, Control_c, 0, 67, 56
1, 617766, Control_c, 0, 64, 60
1, 617786, Control_c, 0, 64, 52
1, 617805, Control_c, 0, 64, 56
1, 617806, Control_c, 0, 67, 60
1, 617810, Note_on_c, 0, 57, 0
1, 617823, Control_c, 0, 64, 65
1, 617842, Control_c, 0, 64, 77
1, 617851, Note_on_c, 0, 81, 0
1, 617861, Control_c, 0, 64, 96
1, 617863, Control_c, 0, 67, 65
1, 617880, Control_c, 0, 64, 121
1, 617898, Control_c, 0, 64, 127
1, 617917, Control_c, 0, 67, 71
1, 617963, Control_c, 0, 67, 75
1, 618000, Control_c, 0, 67, 81
1, 618017, Control_c, 0, 67, 85
1, 618056, Control_c, 0, 67, 92
1, 618074, Control_c, 0, 67, 98
1, 618092, Control_c, 0, 67, 108
1, 618111, Control_c, 0, 67, 116
1, 618123, Note_on_c, 0, 72, 0
1, 618139, Note_on_c, 0, 61, 53
1, 618156, Note_on_c, 0, 63, 0
1, 618165, Control_c, 0, 67, 121
1, 618203, Control_c, 0, 67, 127
1, 618256, Note_on_c, 0, 61, 0
1, 618581, Note_on_c, 0, 51, 34
1, 618669, Note_on_c, 0, 79, 28
1, 618679, Note_on_c, 0, 70, 41
1, 618679, Note_on_c, 0, 82, 61
1, 618853, Control_c, 0, 64, 116
1, 618861, Note_on_c, 0, 84, 0
1, 618879, Control_c, 0, 64, 90
1, 618899, Control_c, 0, 64, 62
1, 618917, Control_c, 0, 64, 41
1, 618936, Control_c, 0, 64, 34
1, 618992, Control_c, 0, 64, 40
1, 619011, Control_c, 0, 64, 52
1, 619029, Control_c, 0, 64, 69
1, 619049, Control_c, 0, 64, 84
1, 619065, Control_c, 0, 64, 99
1, 619083, Control_c, 0, 64, 110
1, 619102, Control_c, 0, 64, 121
1, 619102, Note_on_c, 0, 39, 39
1, 619121, Control_c, 0, 64, 127
1, 619187, Note_on_c, 0, 51, 0
1, 619256, Note_on_c, 0, 79, 0
1, 619583, Note_on_c, 0, 70, 0
1, 619613, Note_on_c, 0, 32, 38
1, 619783, Note_on_c, 0, 68, 55
1, 619828, Note_on_c, 0, 39, 0
1, 619872, Control_c, 0, 64, 108
1, 619889, Control_c, 0, 64, 76
1, 619910, Control_c, 0, 64, 46
1, 619927, Control_c, 0, 64, 32
1, 619935, Note_on_c, 0, 82, 0
1, 619952, Note_on_c, 0, 75, 44
1, 619965, Control_c, 0, 64, 39
1, 619983, Control_c, 0, 64, 55
1, 620001, Control_c, 0, 64, 75
1, 620019, Control_c, 0, 64, 94
1, 620038, Control_c, 0, 64, 117
1, 620056, Control_c, 0, 64, 127
1, 620093, Note_on_c, 0, 68, 0
1, 620095, Note_on_c, 0, 80, 44
1, 620222, Note_on_c, 0, 39, 40
1, 620397, Note_on_c, 0, 84, 66
1, 620457, Note_on_c, 0, 32, 0
1, 620663, Note_on_c, 0, 44, 40
1, 620714, Note_on_c, 0, 84, 0
1, 620899, Note_on_c, 0, 39, 0
1, 620961, Note_on_c, 0, 80, 0
1, 620982, Note_on_c, 0, 75, 0
1, 621054, Note_on_c, 0, 44, 0
1, 621073, Note_on_c, 0, 48, 41
1, 621452, Note_on_c, 0, 51, 44
1, 621463, Note_on_c, 0, 48, 0
1, 621897, Note_on_c, 0, 56, 41
1, 622154, Note_on_c, 0, 51, 0
1, 622292, Note_on_c, 0, 60, 37
1, 622425, Note_on_c, 0, 56, 0
1, 622428, Note_on_c, 0, 75, 66
1, 622494, Note_on_c, 0, 60, 0
1, 623351, Note_on_c, 0, 32, 33
1, 623406, Note_on_c, 0, 75, 0
1, 623442, Note_on_c, 0, 68, 51
1, 623585, Note_on_c, 0, 75, 49
1, 623614, Note_on_c, 0, 68, 0
1, 623734, Note_on_c, 0, 80, 49
1, 623859, Note_on_c, 0, 39, 37
1, 623976, Note_on_c, 0, 32, 0
1, 624034, Note_on_c, 0, 84, 60
1, 624284, Note_on_c, 0, 84, 0
1, 624348, Note_on_c, 0, 44, 35
1, 624467, Note_on_c, 0, 39, 0
1, 624493, Note_on_c, 0, 75, 0
1, 624509, Note_on_c, 0, 80, 0
1, 624738, Note_on_c, 0, 44, 0
1, 624755, Note_on_c, 0, 48, 36
1, 625151, Note_on_c, 0, 48, 0
1, 625169, Note_on_c, 0, 51, 34
1, 625646, Note_on_c, 0, 56, 34
1, 625783, Note_on_c, 0, 51, 0
1, 626059, Note_on_c, 0, 60, 33
1, 626155, Note_on_c, 0, 75, 49
1, 626227, Note_on_c, 0, 56, 0
1, 626267, Note_on_c, 0, 60, 0
1, 627100, Note_on_c, 0, 32, 24
1, 627146, Note_on_c, 0, 63, 26
1, 627322, Note_on_c, 0, 72, 28
1, 627342, Note_on_c, 0, 63, 0
1, 627584, Note_on_c, 0, 75, 0
1, 627585, Note_on_c, 0, 39, 30
1, 627686, Note_on_c, 0, 32, 0
1, 627903, Note_on_c, 0, 80, 56
1, 628182, Note_on_c, 0, 44, 31
1, 628280, Note_on_c, 0, 72, 0
1, 628280, Note_on_c, 0, 80, 0
1, 628315, Note_on_c, 0, 39, 0
1, 628601, Note_on_c, 0, 44, 0
1, 628834, Poly_aftertouch_c, 0, 50, 0
1, 629118, Note_on_c, 0, 51, 23
1, 629632, Note_on_c, 0, 68, 34
1, 629636, Note_on_c, 0, 56, 24
1, 629737, Note_on_c, 0, 51, 0
1, 629822, Note_on_c, 0, 68, 0
1, 630183, Note_on_c, 0, 68, 38
1, 630195, Note_on_c, 0, 67, 29
1, 630200, Note_on_c, 0, 60, 32
1, 630329, Note_on_c, 0, 56, 0
1, 630388, Note_on_c, 0, 68, 0
1, 630403, Note_on_c, 0, 60, 0
1, 630405, Note_on_c, 0, 67, 0
1, 630830, Note_on_c, 0, 68, 37
1, 630851, Note_on_c, 0, 66, 41
1, 630944, Note_on_c, 0, 66, 0
1, 631103, Note_on_c, 0, 68, 0
1, 631851, Note_on_c, 0, 37, 27
1, 631865, Note_on_c, 0, 73, 45
1, 631877, Note_on_c, 0, 65, 29
1, 631997, Control_c, 0, 64, 96
1, 632016, Control_c, 0, 64, 64
1, 632034, Control_c, 0, 64, 35
1, 632091, Control_c, 0, 64, 51
1, 632109, Control_c, 0, 64, 74
1, 632128, Control_c, 0, 64, 99
1, 632146, Control_c, 0, 64, 127
1, 632238, Note_on_c, 0, 37, 0
1, 632362, Note_on_c, 0, 65, 0
1, 632623, Note_on_c, 0, 78, 42
1, 632646, Note_on_c, 0, 70, 34
1, 632809, Note_on_c, 0, 73, 0
1, 632939, Note_on_c, 0, 78, 0
1, 633026, Note_on_c, 0, 70, 0
1, 633177, Note_on_c, 0, 58, 31
1, 633188, Note_on_c, 0, 66, 30
1, 633570, Note_on_c, 0, 66, 0
1, 633679, Note_on_c, 0, 65, 35
1, 633684, Note_on_c, 0, 58, 0
1, 633698, Note_on_c, 0, 56, 24
1, 633801, Note_on_c, 0, 65, 0
1, 633891, Note_on_c, 0, 56, 0
1, 634232, Note_on_c, 0, 37, 31
1, 634254, Note_on_c, 0, 77, 51
1, 634288, Note_on_c, 0, 68, 39
1, 634349, Control_c, 0, 64, 98
1, 634366, Control_c, 0, 64, 67
1, 634386, Control_c, 0, 64, 58
1, 634405, Control_c, 0, 64, 65
1, 634424, Control_c, 0, 64, 76
1, 634442, Control_c, 0, 64, 95
1, 634461, Control_c, 0, 64, 123
1, 634480, Control_c, 0, 64, 127
1, 634543, Note_on_c, 0, 37, 0
1, 634871, Note_on_c, 0, 75, 52
1, 634914, Note_on_c, 0, 66, 33
1, 635042, Note_on_c, 0, 68, 0
1, 635055, Note_on_c, 0, 77, 0
1, 635235, Note_on_c, 0, 66, 0
1, 635287, Note_on_c, 0, 75, 0
1, 635353, Note_on_c, 0, 63, 40
1, 635364, Note_on_c, 0, 54, 34
1, 635583, Note_on_c, 0, 54, 0
1, 635813, Note_on_c, 0, 63, 0
1, 635849, Note_on_c, 0, 65, 46
1, 635858, Note_on_c, 0, 56, 34
1, 635914, Note_on_c, 0, 65, 0
1, 635968, Note_on_c, 0, 56, 0
1, 636356, Note_on_c, 0, 37, 40
1, 636440, Note_on_c, 0, 77, 61
1, 636465, Note_on_c, 0, 68, 34
1, 636536, Control_c, 0, 64, 120
1, 636554, Control_c, 0, 64, 87
1, 636574, Control_c, 0, 64, 54
1, 636592, Control_c, 0, 64, 44
1, 636611, Control_c, 0, 64, 47
1, 636630, Control_c, 0, 64, 60
1, 636648, Control_c, 0, 64, 77
1, 636675, Control_c, 0, 64, 100
1, 636692, Control_c, 0, 64, 127
1, 636810, Note_on_c, 0, 37, 0
1, 637057, Note_on_c, 0, 73, 56
1, 637084, Note_on_c, 0, 65, 30
1, 637121, Poly_aftertouch_c, 0, 77, 22
1, 637152, Note_on_c, 0, 77, 0
1, 637152, Poly_aftertouch_c, 0, 77, 0
1, 637182, Note_on_c, 0, 68, 0
1, 637427, Note_on_c, 0, 65, 0
1, 637501, Note_on_c, 0, 73, 0
1, 637503, Note_on_c, 0, 61, 42
1, 637517, Note_on_c, 0, 53, 35
1, 637740, Note_on_c, 0, 53, 0
1, 637918, Note_on_c, 0, 61, 0
1, 637991, Note_on_c, 0, 63, 38
1, 637998, Note_on_c, 0, 54, 35
1, 638088, Note_on_c, 0, 63, 0
1, 638153, Note_on_c, 0, 54, 0
1, 638511, Note_on_c, 0, 37, 34
1, 638584, Note_on_c, 0, 75, 43
1, 638614, Note_on_c, 0, 66, 36
1, 638639, Control_c, 0, 64, 96
1, 638656, Control_c, 0, 64, 66
1, 638676, Control_c, 0, 64, 46
1, 638712, Control_c, 0, 64, 51
1, 638732, Control_c, 0, 64, 62
1, 638750, Control_c, 0, 64, 76
1, 638768, Control_c, 0, 64, 95
1, 638788, Control_c, 0, 64, 119
1, 638805, Control_c, 0, 64, 127
1, 638824, Note_on_c, 0, 75, 0
1, 638940, Note_on_c, 0, 37, 0
1, 639124, Note_on_c, 0, 68, 39
1, 639148, Note_on_c, 0, 60, 33
1, 639163, Note_on_c, 0, 66, 0
1, 639426, Note_on_c, 0, 60, 0
1, 639552, Note_on_c, 0, 68, 0
1, 639840, Note_on_c, 0, 49, 36
1, 639853, Note_on_c, 0, 56, 45
1, 640000, Control_c, 0, 64, 123
1, 640019, Control_c, 0, 64, 110
1, 640037, Control_c, 0, 64, 92
1, 640057, Control_c, 0, 64, 70
1, 640074, Control_c, 0, 64, 52
1, 640093, Control_c, 0, 64, 45
1, 640166, Control_c, 0, 64, 49
1, 640185, Control_c, 0, 64, 59
1, 640203, Control_c, 0, 64, 71
1, 640223, Control_c, 0, 64, 86
1, 640242, Control_c, 0, 64, 104
1, 640260, Control_c, 0, 64, 117
1, 640278, Control_c, 0, 64, 127
1, 640464, Note_on_c, 0, 49, 0
1, 640479, Note_on_c, 0, 56, 0
1, 641285, Note_on_c, 0, 37, 42
1, 641322, Note_on_c, 0, 73, 62
1, 641324, Control_c, 0, 64, 122
1, 641353, Control_c, 0, 64, 92
1, 641354, Control_c, 0, 67, 118
1, 641372, Control_c, 0, 64, 65
1, 641372, Note_on_c, 0, 65, 40
1, 641373, Control_c, 0, 67, 113
1, 641390, Control_c, 0, 64, 59
1, 641391, Control_c, 0, 67, 104
1, 641409, Control_c, 0, 64, 65
1, 641410, Control_c, 0, 67, 88
1, 641428, Control_c, 0, 64, 73
1, 641429, Control_c, 0, 67, 64
1, 641446, Control_c, 0, 64, 88
1, 641448, Control_c, 0, 67, 32
1, 641465, Control_c, 0, 64, 113
1, 641482, Control_c, 0, 64, 127
1, 641483, Control_c, 0, 67, 0
1, 641598, Note_on_c, 0, 65, 0
1, 641610, Note_on_c, 0, 37, 0
1, 641980, Note_on_c, 0, 80, 71
1, 642013, Note_on_c, 0, 71, 22
1, 642124, Note_on_c, 0, 73, 0
1, 642454, Control_c, 0, 67, 8
1, 642463, Note_on_c, 0, 59, 37
1, 642465, Note_on_c, 0, 80, 0
1, 642469, Note_on_c, 0, 68, 33
1, 642478, Note_on_c, 0, 71, 0
1, 642492, Control_c, 0, 67, 13
1, 642510, Control_c, 0, 67, 22
1, 642529, Control_c, 0, 67, 31
1, 642549, Control_c, 0, 67, 40
1, 642567, Control_c, 0, 67, 46
1, 642585, Control_c, 0, 67, 52
1, 642603, Control_c, 0, 67, 58
1, 642621, Control_c, 0, 67, 65
1, 642640, Control_c, 0, 67, 72
1, 642659, Control_c, 0, 67, 78
1, 642677, Control_c, 0, 67, 84
1, 642696, Control_c, 0, 67, 89
1, 642714, Control_c, 0, 67, 95
1, 642733, Control_c, 0, 67, 100
1, 642751, Control_c, 0, 67, 105
1, 642788, Control_c, 0, 67, 111
1, 642790, Note_on_c, 0, 68, 0
1, 642825, Control_c, 0, 67, 117
1, 642862, Control_c, 0, 67, 121
1, 642937, Control_c, 0, 67, 125
1, 642965, Note_on_c, 0, 66, 39
1, 642996, Note_on_c, 0, 58, 34
1, 643002, Note_on_c, 0, 59, 0
1, 643058, Note_on_c, 0, 66, 0
1, 643138, Note_on_c, 0, 58, 0
1, 643565, Note_on_c, 0, 37, 42
1, 643601, Note_on_c, 0, 78, 53
1, 643644, Note_on_c, 0, 70, 40
1, 643708, Control_c, 0, 64, 122
1, 643724, Control_c, 0, 64, 93
1, 643742, Control_c, 0, 64, 62
1, 643760, Control_c, 0, 64, 47
1, 643798, Control_c, 0, 64, 55
1, 643817, Control_c, 0, 64, 67
1, 643835, Control_c, 0, 64, 84
1, 643855, Control_c, 0, 64, 108
1, 643872, Control_c, 0, 64, 127
1, 644001, Note_on_c, 0, 37, 0
1, 644203, Note_on_c, 0, 75, 42
1, 644208, Note_on_c, 0, 66, 28
1, 644299, Note_on_c, 0, 70, 0
1, 644357, Note_on_c, 0, 78, 0
1, 644672, Note_on_c, 0, 66, 0
1, 644675, Note_on_c, 0, 63, 43
1, 644685, Note_on_c, 0, 54, 32
1, 644849, Note_on_c, 0, 75, 0
1, 644984, Note_on_c, 0, 54, 0
1, 645100, Note_on_c, 0, 63, 0
1, 645139, Note_on_c, 0, 65, 45
1, 645147, Note_on_c, 0, 56, 39
1, 645222, Note_on_c, 0, 65, 0
1, 645280, Note_on_c, 0, 56, 0
1, 645604, Note_on_c, 0, 37, 43
1, 645687, Note_on_c, 0, 77, 55
1, 645708, Note_on_c, 0, 68, 35
1, 645762, Control_c, 0, 64, 100
1, 645780, Control_c, 0, 64, 69
1, 645798, Control_c, 0, 64, 36
1, 645818, Control_c, 0, 64, 25
1, 645911, Control_c, 0, 64, 46
1, 645929, Control_c, 0, 64, 67
1, 645949, Control_c, 0, 64, 88
1, 645965, Control_c, 0, 64, 109
1, 645984, Control_c, 0, 64, 126
1, 646094, Note_on_c, 0, 37, 0
1, 646256, Note_on_c, 0, 65, 31
1, 646258, Note_on_c, 0, 73, 42
1, 646269, Poly_aftertouch_c, 0, 77, 24
1, 646353, Note_on_c, 0, 77, 0
1, 646353, Poly_aftertouch_c, 0, 77, 0
1, 646367, Note_on_c, 0, 68, 0
1, 646708, Note_on_c, 0, 61, 38
1, 646709, Note_on_c, 0, 65, 0
1, 646751, Note_on_c, 0, 53, 31
1, 646779, Note_on_c, 0, 73, 0
1, 646963, Note_on_c, 0, 53, 0
1, 647143, Note_on_c, 0, 61, 0
1, 647214, Note_on_c, 0, 54, 29
1, 647221, Note_on_c, 0, 63, 23
1, 647345, Note_on_c, 0, 63, 0
1, 647416, Note_on_c, 0, 54, 0
1, 647765, Note_on_c, 0, 37, 26
1, 647839, Note_on_c, 0, 72, 44
1, 647841, Note_on_c, 0, 63, 41
1, 647939, Control_c, 0, 64, 111
1, 647957, Control_c, 0, 64, 81
1, 647977, Control_c, 0, 64, 53
1, 647996, Control_c, 0, 64, 39
1, 648032, Control_c, 0, 64, 42
1, 648049, Control_c, 0, 64, 56
1, 648069, Control_c, 0, 64, 73
1, 648088, Control_c, 0, 64, 91
1, 648106, Control_c, 0, 64, 110
1, 648124, Control_c, 0, 64, 124
1, 648380, Note_on_c, 0, 63, 0
1, 648392, Note_on_c, 0, 65, 40
1, 648401, Control_c, 0, 64, 115
1, 648402, Note_on_c, 0, 73, 43
1, 648421, Control_c, 0, 64, 85
1, 648438, Control_c, 0, 64, 50
1, 648457, Control_c, 0, 64, 10
1, 648477, Control_c, 0, 64, 0
1, 648507, Note_on_c, 0, 72, 0
1, 648551, Control_c, 0, 64, 16
1, 648570, Control_c, 0, 64, 46
1, 648586, Control_c, 0, 64, 77
1, 648606, Control_c, 0, 64, 106
1, 648611, Note_on_c, 0, 37, 0
1, 648624, Control_c, 0, 64, 127
1, 648926, Note_on_c, 0, 49, 39
1, 649025, Note_on_c, 0, 53, 44
1, 649069, Note_on_c, 0, 56, 40
1, 649140, Note_on_c, 0, 61, 41
1, 649149, Note_on_c, 0, 65, 0
1, 649268, Note_on_c, 0, 49, 0
1, 649291, Note_on_c, 0, 73, 0
1, 649300, Control_c, 0, 67, 119
1, 649336, Control_c, 0, 67, 114
1, 649356, Control_c, 0, 67, 110
1, 649368, Note_on_c, 0, 56, 0
1, 649373, Control_c, 0, 67, 103
1, 649393, Control_c, 0, 67, 95
1, 649401, Note_on_c, 0, 53, 0
1, 649412, Control_c, 0, 67, 83
1, 649430, Control_c, 0, 67, 69
1, 649449, Control_c, 0, 67, 55
1, 649461, Note_on_c, 0, 61, 0
1, 649467, Control_c, 0, 67, 43
1, 649488, Control_c, 0, 67, 31
1, 649504, Control_c, 0, 67, 22
1, 649522, Control_c, 0, 67, 14
1, 649540, Control_c, 0, 67, 8
1, 650157, Note_on_c, 0, 65, 35
1, 650262, Note_on_c, 0, 73, 37
1, 650405, Note_on_c, 0, 65, 0
1, 650412, Note_on_c, 0, 37, 29
1, 650571, Control_c, 0, 67, 0
1, 650645, Note_on_c, 0, 37, 0
1, 650818, Note_on_c, 0, 80, 68
1, 651266, Control_c, 0, 67, 9
1, 651283, Control_c, 0, 67, 13
1, 651302, Control_c, 0, 67, 24
1, 651321, Control_c, 0, 67, 38
1, 651339, Control_c, 0, 67, 53
1, 651358, Control_c, 0, 67, 66
1, 651373, Note_on_c, 0, 78, 41
1, 651375, Control_c, 0, 67, 78
1, 651392, Control_c, 0, 67, 90
1, 651402, Note_on_c, 0, 70, 27
1, 651411, Control_c, 0, 67, 101
1, 651431, Control_c, 0, 67, 110
1, 651448, Control_c, 0, 67, 114
1, 651506, Control_c, 0, 67, 119
1, 651542, Control_c, 0, 67, 125
1, 651707, Note_on_c, 0, 73, 0
1, 651840, Note_on_c, 0, 66, 34
1, 651862, Note_on_c, 0, 58, 35
1, 651945, Note_on_c, 0, 80, 0
1, 651998, Note_on_c, 0, 70, 0
1, 652058, Note_on_c, 0, 78, 0
1, 652223, Note_on_c, 0, 66, 0
1, 652317, Note_on_c, 0, 65, 38
1, 652322, Note_on_c, 0, 56, 40
1, 652336, Note_on_c, 0, 58, 0
1, 652403, Note_on_c, 0, 65, 0
1, 652484, Note_on_c, 0, 56, 0
1, 652633, Note_on_c, 0, 68, 35
1, 652682, Note_on_c, 0, 77, 46
1, 652773, Note_on_c, 0, 37, 60
1, 652878, Control_c, 0, 67, 120
1, 652897, Note_on_c, 0, 80, 72
1, 652912, Control_c, 0, 67, 112
1, 652931, Control_c, 0, 67, 106
1, 652950, Control_c, 0, 67, 96
1, 652969, Control_c, 0, 64, 118
1, 652970, Control_c, 0, 67, 83
1, 652987, Control_c, 0, 64, 86
1, 652988, Control_c, 0, 67, 67
1, 653007, Control_c, 0, 64, 58
1, 653010, Control_c, 0, 67, 49
1, 653025, Control_c, 0, 64, 53
1, 653026, Control_c, 0, 67, 33
1, 653044, Control_c, 0, 64, 58
1, 653045, Control_c, 0, 67, 17
1, 653062, Control_c, 0, 64, 68
1, 653080, Control_c, 0, 64, 82
1, 653081, Control_c, 0, 67, 0
1, 653096, Poly_aftertouch_c, 0, 37, 24
1, 653098, Control_c, 0, 64, 102
1, 653117, Control_c, 0, 64, 126
1, 653122, Note_on_c, 0, 68, 0
1, 653191, Note_on_c, 0, 37, 0
1, 653191, Poly_aftertouch_c, 0, 37, 0
1, 653355, Note_on_c, 0, 75, 43
1, 653401, Note_on_c, 0, 66, 41
1, 653783, Note_on_c, 0, 63, 54
1, 653792, Note_on_c, 0, 54, 49
1, 653922, Note_on_c, 0, 66, 0
1, 654046, Note_on_c, 0, 77, 0
1, 654111, Note_on_c, 0, 54, 0
1, 654198, Poly_aftertouch_c, 0, 80, 24
1, 654200, Note_on_c, 0, 63, 0
1, 654202, Note_on_c, 0, 65, 55
1, 654205, Note_on_c, 0, 56, 48
1, 654256, Note_on_c, 0, 65, 0
1, 654262, Note_on_c, 0, 80, 0
1, 654262, Poly_aftertouch_c, 0, 80, 0
1, 654334, Note_on_c, 0, 56, 0
1, 654447, Note_on_c, 0, 68, 47
1, 654574, Note_on_c, 0, 77, 60
1, 654606, Note_on_c, 0, 37, 58
1, 654750, Note_on_c, 0, 80, 74
1, 654766, Control_c, 0, 64, 109
1, 654784, Control_c, 0, 64, 76
1, 654794, Note_on_c, 0, 75, 0
1, 654802, Control_c, 0, 64, 48
1, 654822, Control_c, 0, 64, 46
1, 654840, Control_c, 0, 64, 48
1, 654859, Control_c, 0, 64, 58
1, 654878, Control_c, 0, 64, 69
1, 654896, Control_c, 0, 64, 84
1, 654914, Control_c, 0, 64, 105
1, 654933, Control_c, 0, 64, 124
1, 654942, Note_on_c, 0, 68, 0
1, 654995, Note_on_c, 0, 80, 0
1, 655073, Note_on_c, 0, 37, 0
1, 655268, Note_on_c, 0, 73, 51
1, 655292, Note_on_c, 0, 65, 45
1, 655656, Note_on_c, 0, 61, 50
1, 655671, Note_on_c, 0, 53, 42
1, 655753, Poly_aftertouch_c, 0, 76, 0
1, 655806, Note_on_c, 0, 65, 0
1, 655858, Note_on_c, 0, 73, 0
1, 655942, Note_on_c, 0, 77, 0
1, 655954, Note_on_c, 0, 53, 0
1, 656049, Note_on_c, 0, 61, 0
1, 656090, Control_c, 0, 67, 10
1, 656093, Note_on_c, 0, 63, 51
1, 656099, Note_on_c, 0, 54, 43
1, 656109, Control_c, 0, 67, 16
1, 656127, Control_c, 0, 67, 25
1, 656147, Control_c, 0, 67, 35
1, 656159, Note_on_c, 0, 63, 0
1, 656163, Control_c, 0, 67, 44
1, 656183, Control_c, 0, 67, 53
1, 656201, Control_c, 0, 67, 61
1, 656219, Control_c, 0, 67, 69
1, 656229, Note_on_c, 0, 54, 0
1, 656237, Control_c, 0, 67, 75
1, 656249, Note_on_c, 0, 66, 47
1, 656257, Control_c, 0, 67, 81
1, 656275, Control_c, 0, 67, 87
1, 656294, Control_c, 0, 67, 91
1, 656321, Control_c, 0, 67, 95
1, 656340, Control_c, 0, 67, 99
1, 656348, Note_on_c, 0, 75, 44
1, 656360, Control_c, 0, 67, 103
1, 656377, Control_c, 0, 67, 107
1, 656396, Control_c, 0, 67, 111
1, 656433, Control_c, 0, 67, 116
1, 656469, Control_c, 0, 67, 124
1, 656521, Note_on_c, 0, 37, 37
1, 656564, Control_c, 0, 64, 119
1, 656581, Control_c, 0, 64, 89
1, 656599, Control_c, 0, 64, 62
1, 656617, Control_c, 0, 64, 54
1, 656630, Note_on_c, 0, 80, 59
1, 656637, Control_c, 0, 64, 56
1, 656655, Control_c, 0, 64, 66
1, 656673, Control_c, 0, 64, 78
1, 656693, Control_c, 0, 64, 98
1, 656711, Control_c, 0, 64, 120
1, 656729, Control_c, 0, 64, 127
1, 656761, Note_on_c, 0, 80, 0
1, 656770, Note_on_c, 0, 75, 0
1, 656852, Note_on_c, 0, 66, 0
1, 656925, Note_on_c, 0, 37, 0
1, 657174, Note_on_c, 0, 60, 38
1, 657190, Note_on_c, 0, 68, 30
1, 657428, Note_on_c, 0, 60, 0
1, 657498, Note_on_c, 0, 68, 0
1, 657804, Note_on_c, 0, 49, 34
1, 657825, Note_on_c, 0, 56, 35
1, 657942, Control_c, 0, 64, 115
1, 657961, Control_c, 0, 64, 90
1, 657980, Control_c, 0, 64, 64
1, 657999, Control_c, 0, 64, 45
1, 658017, Control_c, 0, 64, 42
1, 658056, Control_c, 0, 64, 45
1, 658072, Control_c, 0, 64, 55
1, 658090, Control_c, 0, 64, 68
1, 658109, Control_c, 0, 64, 83
1, 658128, Control_c, 0, 64, 101
1, 658147, Control_c, 0, 64, 116
1, 658165, Control_c, 0, 64, 126
1, 658344, Note_on_c, 0, 56, 0
1, 658360, Note_on_c, 0, 49, 0
1, 658749, Note_on_c, 0, 37, 40
1, 658768, Control_c, 0, 64, 94
1, 658787, Control_c, 0, 64, 59
1, 658805, Control_c, 0, 64, 52
1, 658805, Control_c, 0, 67, 119
1, 658822, Control_c, 0, 64, 57
1, 658834, Note_on_c, 0, 73, 52
1, 658842, Control_c, 0, 64, 65
1, 658847, Note_on_c, 0, 65, 48
1, 658859, Control_c, 0, 64, 81
1, 658879, Control_c, 0, 64, 109
1, 658881, Control_c, 0, 67, 114
1, 658895, Note_on_c, 0, 65, 0
1, 658896, Control_c, 0, 64, 127
1, 658916, Control_c, 0, 67, 110
1, 658934, Control_c, 0, 67, 105
1, 658935, Note_on_c, 0, 73, 0
1, 658953, Control_c, 0, 67, 100
1, 658971, Control_c, 0, 67, 94
1, 658991, Control_c, 0, 67, 86
1, 659007, Control_c, 0, 67, 78
1, 659025, Control_c, 0, 67, 70
1, 659044, Control_c, 0, 67, 64
1, 659064, Control_c, 0, 67, 58
1, 659072, Note_on_c, 0, 37, 0
1, 659083, Control_c, 0, 67, 54
1, 659129, Control_c, 0, 67, 49
1, 659165, Note_on_c, 0, 71, 45
1, 659185, Control_c, 0, 67, 45
1, 659222, Note_on_c, 0, 80, 52
1, 659258, Control_c, 0, 67, 39
1, 659296, Control_c, 0, 67, 34
1, 659333, Control_c, 0, 67, 29
1, 659371, Control_c, 0, 67, 24
1, 659425, Control_c, 0, 67, 20
1, 659469, Note_on_c, 0, 85, 72
1, 659499, Control_c, 0, 67, 16
1, 659609, Note_on_c, 0, 71, 0
1, 659701, Note_on_c, 0, 85, 0
1, 659795, Control_c, 0, 67, 20
1, 659826, Note_on_c, 0, 80, 0
1, 659851, Note_on_c, 0, 59, 38
1, 659851, Control_c, 0, 67, 24
1, 659852, Note_on_c, 0, 68, 41
1, 659870, Control_c, 0, 67, 28
1, 659888, Control_c, 0, 67, 41
1, 659907, Control_c, 0, 67, 57
1, 659926, Control_c, 0, 67, 71
1, 659943, Control_c, 0, 67, 82
1, 659960, Control_c, 0, 67, 91
1, 659980, Control_c, 0, 67, 100
1, 659998, Control_c, 0, 67, 109
1, 660018, Control_c, 0, 67, 116
1, 660064, Control_c, 0, 67, 122
1, 660102, Control_c, 0, 67, 127
1, 660151, Note_on_c, 0, 68, 0
1, 660312, Note_on_c, 0, 66, 45
1, 660324, Note_on_c, 0, 58, 41
1, 660328, Note_on_c, 0, 59, 0
1, 660412, Note_on_c, 0, 66, 0
1, 660455, Note_on_c, 0, 58, 0
1, 660747, Note_on_c, 0, 37, 52
1, 660787, Control_c, 0, 64, 108
1, 660796, Note_on_c, 0, 78, 59
1, 660804, Control_c, 0, 64, 74
1, 660820, Note_on_c, 0, 70, 40
1, 660823, Control_c, 0, 64, 56
1, 660861, Control_c, 0, 64, 65
1, 660879, Control_c, 0, 64, 77
1, 660897, Control_c, 0, 64, 99
1, 660915, Control_c, 0, 64, 127
1, 660953, Note_on_c, 0, 70, 0
1, 660978, Note_on_c, 0, 66, 49
1, 661042, Note_on_c, 0, 37, 0
1, 661044, Note_on_c, 0, 66, 0
1, 661045, Note_on_c, 0, 78, 0
1, 661067, Note_on_c, 0, 75, 51
1, 661438, Note_on_c, 0, 85, 69
1, 661525, Note_on_c, 0, 75, 0
1, 661668, Note_on_c, 0, 85, 0
1, 661744, Note_on_c, 0, 63, 42
1, 661764, Note_on_c, 0, 54, 34
1, 662161, Note_on_c, 0, 54, 0
1, 662175, Note_on_c, 0, 63, 0
1, 662220, Note_on_c, 0, 65, 51
1, 662234, Note_on_c, 0, 56, 37
1, 662284, Note_on_c, 0, 65, 0
1, 662367, Note_on_c, 0, 56, 0
1, 662676, Note_on_c, 0, 37, 41
1, 662792, Note_on_c, 0, 77, 58
1, 662811, Note_on_c, 0, 68, 39
1, 662843, Control_c, 0, 64, 108
1, 662871, Control_c, 0, 64, 72
1, 662889, Control_c, 0, 64, 39
1, 662909, Control_c, 0, 64, 34
1, 662944, Control_c, 0, 64, 50
1, 662962, Control_c, 0, 64, 69
1, 662983, Control_c, 0, 64, 91
1, 663001, Control_c, 0, 64, 117
1, 663018, Control_c, 0, 64, 127
1, 663023, Note_on_c, 0, 68, 0
1, 663063, Note_on_c, 0, 77, 0
1, 663087, Note_on_c, 0, 65, 22
1, 663133, Note_on_c, 0, 73, 29
1, 663134, Note_on_c, 0, 65, 0
1, 663164, Note_on_c, 0, 37, 0
1, 663356, Note_on_c, 0, 73, 0
1, 663480, Note_on_c, 0, 85, 60
1, 663682, Note_on_c, 0, 85, 0
1, 663770, Note_on_c, 0, 61, 41
1, 663790, Note_on_c, 0, 53, 35
1, 664044, Note_on_c, 0, 53, 0
1, 664165, Note_on_c, 0, 61, 0
1, 664214, Note_on_c, 0, 63, 42
1, 664231, Note_on_c, 0, 54, 33
1, 664397, Note_on_c, 0, 54, 0
1, 664452, Note_on_c, 0, 72, 36
1, 664453, Note_on_c, 0, 63, 0
1, 664718, Note_on_c, 0, 37, 29
1, 664912, Note_on_c, 0, 80, 52
1, 665019, Control_c, 0, 64, 123
1, 665038, Control_c, 0, 64, 97
1, 665056, Control_c, 0, 64, 66
1, 665075, Control_c, 0, 64, 41
1, 665094, Control_c, 0, 64, 34
1, 665168, Control_c, 0, 64, 49
1, 665186, Control_c, 0, 64, 65
1, 665204, Control_c, 0, 64, 82
1, 665224, Control_c, 0, 64, 99
1, 665241, Control_c, 0, 64, 114
1, 665261, Control_c, 0, 64, 124
1, 665368, Note_on_c, 0, 72, 0
1, 665371, Control_c, 0, 64, 109
1, 665390, Control_c, 0, 64, 76
1, 665409, Control_c, 0, 64, 42
1, 665410, Note_on_c, 0, 73, 34
1, 665428, Control_c, 0, 64, 37
1, 665430, Note_on_c, 0, 65, 31
1, 665445, Control_c, 0, 64, 40
1, 665465, Control_c, 0, 64, 53
1, 665483, Control_c, 0, 64, 69
1, 665503, Control_c, 0, 64, 88
1, 665520, Control_c, 0, 64, 110
1, 665540, Control_c, 0, 64, 127
1, 665547, Note_on_c, 0, 37, 0
1, 665902, Note_on_c, 0, 49, 18
1, 665925, Note_on_c, 0, 53, 33
1, 665993, Note_on_c, 0, 56, 25
1, 666061, Note_on_c, 0, 61, 31
1, 666154, Poly_aftertouch_c, 0, 49, 24
1, 666157, Note_on_c, 0, 80, 0
1, 666214, Note_on_c, 0, 49, 0
1, 666214, Poly_aftertouch_c, 0, 49, 0
1, 666290, Note_on_c, 0, 65, 0
1, 666337, Note_on_c, 0, 56, 0
1, 666343, Note_on_c, 0, 61, 0
1, 666366, Note_on_c, 0, 53, 0
1, 666394, Note_on_c, 0, 73, 0
1, 667516, Note_on_c, 0, 34, 31
1, 667575, Note_on_c, 0, 70, 47
1, 667594, Note_on_c, 0, 61, 28
1, 667659, Control_c, 0, 64, 123
1, 667679, Control_c, 0, 64, 99
1, 667697, Control_c, 0, 64, 71
1, 667716, Control_c, 0, 64, 51
1, 667754, Control_c, 0, 64, 54
1, 667771, Control_c, 0, 64, 64
1, 667790, Control_c, 0, 64, 76
1, 667808, Control_c, 0, 64, 94
1, 667826, Control_c, 0, 64, 118
1, 667845, Control_c, 0, 64, 127
1, 667902, Note_on_c, 0, 34, 0
1, 667919, Control_c, 0, 67, 122
1, 667957, Control_c, 0, 67, 118
1, 668011, Control_c, 0, 67, 112
1, 668048, Control_c, 0, 67, 104
1, 668068, Control_c, 0, 67, 100
1, 668086, Control_c, 0, 67, 94
1, 668106, Control_c, 0, 67, 86
1, 668123, Control_c, 0, 67, 77
1, 668142, Control_c, 0, 67, 66
1, 668159, Note_on_c, 0, 73, 46
1, 668160, Control_c, 0, 67, 56
1, 668178, Control_c, 0, 67, 47
1, 668196, Control_c, 0, 67, 38
1, 668205, Note_on_c, 0, 65, 38
1, 668216, Control_c, 0, 67, 31
1, 668234, Control_c, 0, 67, 26
1, 668252, Control_c, 0, 67, 22
1, 668277, Note_on_c, 0, 61, 0
1, 668289, Control_c, 0, 67, 16
1, 668328, Control_c, 0, 67, 11
1, 668556, Note_on_c, 0, 65, 0
1, 668633, Note_on_c, 0, 61, 42
1, 668644, Poly_aftertouch_c, 0, 70, 20
1, 668646, Note_on_c, 0, 73, 0
1, 668646, Note_on_c, 0, 70, 0
1, 668646, Poly_aftertouch_c, 0, 70, 0
1, 668648, Note_on_c, 0, 53, 33
1, 668953, Note_on_c, 0, 53, 0
1, 669003, Control_c, 0, 67, 0
1, 669060, Note_on_c, 0, 61, 0
1, 669062, Note_on_c, 0, 63, 42
1, 669075, Note_on_c, 0, 58, 41
1, 669170, Note_on_c, 0, 58, 0
1, 669187, Note_on_c, 0, 63, 0
1, 669630, Note_on_c, 0, 77, 62
1, 669642, Note_on_c, 0, 41, 42
1, 669655, Note_on_c, 0, 68, 36
1, 669773, Control_c, 0, 64, 107
1, 669791, Control_c, 0, 64, 78
1, 669810, Control_c, 0, 64, 51
1, 669828, Control_c, 0, 64, 45
1, 669863, Control_c, 0, 64, 47
1, 669883, Control_c, 0, 64, 57
1, 669901, Control_c, 0, 64, 68
1, 669920, Control_c, 0, 64, 83
1, 669938, Control_c, 0, 64, 106
1, 669957, Control_c, 0, 64, 127
1, 670056, Note_on_c, 0, 41, 0
1, 670175, Note_on_c, 0, 72, 48
1, 670177, Note_on_c, 0, 65, 34
1, 670300, Note_on_c, 0, 68, 0
1, 670365, Note_on_c, 0, 77, 0
1, 670418, Note_on_c, 0, 65, 0
1, 670554, Note_on_c, 0, 72, 0
1, 670583, Note_on_c, 0, 56, 48
1, 670597, Note_on_c, 0, 65, 38
1, 671018, Note_on_c, 0, 60, 50
1, 671020, Note_on_c, 0, 65, 0
1, 671041, Note_on_c, 0, 53, 43
1, 671089, Note_on_c, 0, 56, 0
1, 671150, Note_on_c, 0, 60, 0
1, 671159, Note_on_c, 0, 53, 0
1, 671512, Note_on_c, 0, 42, 48
1, 671535, Note_on_c, 0, 70, 62
1, 671541, Note_on_c, 0, 61, 43
1, 671681, Control_c, 0, 64, 114
1, 671700, Control_c, 0, 64, 81
1, 671719, Control_c, 0, 64, 48
1, 671735, Control_c, 0, 64, 30
1, 671792, Control_c, 0, 64, 37
1, 671810, Control_c, 0, 64, 52
1, 671828, Control_c, 0, 64, 72
1, 671848, Control_c, 0, 64, 92
1, 671865, Control_c, 0, 64, 113
1, 671885, Control_c, 0, 64, 126
1, 672014, Note_on_c, 0, 42, 0
1, 672020, Note_on_c, 0, 73, 60
1, 672052, Note_on_c, 0, 66, 42
1, 672149, Note_on_c, 0, 61, 0
1, 672233, Note_on_c, 0, 70, 0
1, 672473, Note_on_c, 0, 66, 0
1, 672476, Note_on_c, 0, 61, 43
1, 672503, Note_on_c, 0, 73, 0
1, 672516, Note_on_c, 0, 54, 30
1, 672885, Note_on_c, 0, 54, 0
1, 672943, Note_on_c, 0, 63, 45
1, 672958, Note_on_c, 0, 61, 0
1, 672966, Note_on_c, 0, 58, 31
1, 673019, Note_on_c, 0, 63, 0
1, 673061, Note_on_c, 0, 58, 0
1, 673515, Control_c, 0, 67, 11
1, 673533, Control_c, 0, 67, 19
1, 673551, Control_c, 0, 67, 28
1, 673571, Control_c, 0, 67, 35
1, 673589, Control_c, 0, 67, 41
1, 673606, Control_c, 0, 67, 46
1, 673617, Note_on_c, 0, 77, 47
1, 673624, Control_c, 0, 67, 52
1, 673634, Note_on_c, 0, 37, 32
1, 673642, Control_c, 0, 67, 57
1, 673648, Note_on_c, 0, 68, 39
1, 673662, Control_c, 0, 67, 62
1, 673681, Control_c, 0, 67, 67
1, 673699, Control_c, 0, 67, 71
1, 673737, Control_c, 0, 67, 78
1, 673756, Control_c, 0, 64, 112
1, 673757, Control_c, 0, 67, 83
1, 673775, Control_c, 0, 64, 88
1, 673776, Control_c, 0, 67, 89
1, 673791, Control_c, 0, 64, 60
1, 673794, Control_c, 0, 67, 95
1, 673810, Control_c, 0, 64, 37
1, 673811, Control_c, 0, 67, 100
1, 673867, Control_c, 0, 64, 42
1, 673886, Control_c, 0, 64, 57
1, 673904, Control_c, 0, 64, 75
1, 673923, Control_c, 0, 64, 94
1, 673942, Control_c, 0, 64, 117
1, 673959, Control_c, 0, 64, 127
1, 674031, Note_on_c, 0, 37, 0
1, 674176, Note_on_c, 0, 73, 37
1, 674206, Note_on_c, 0, 65, 27
1, 674220, Note_on_c, 0, 77, 0
1, 674316, Note_on_c, 0, 68, 0
1, 674357, Control_c, 0, 67, 96
1, 674431, Control_c, 0, 67, 92
1, 674452, Note_on_c, 0, 65, 0
1, 674488, Control_c, 0, 67, 86
1, 674506, Control_c, 0, 67, 81
1, 674526, Control_c, 0, 67, 75
1, 674542, Control_c, 0, 67, 70
1, 674561, Control_c, 0, 67, 63
1, 674579, Control_c, 0, 67, 57
1, 674599, Control_c, 0, 67, 52
1, 674616, Control_c, 0, 67, 47
1, 674618, Note_on_c, 0, 73, 0
1, 674636, Control_c, 0, 67, 42
1, 674638, Note_on_c, 0, 56, 34
1, 674650, Note_on_c, 0, 65, 26
1, 674653, Control_c, 0, 67, 38
1, 674691, Control_c, 0, 67, 32
1, 674727, Control_c, 0, 67, 26
1, 674764, Control_c, 0, 67, 20
1, 674801, Control_c, 0, 67, 15
1, 674839, Control_c, 0, 67, 11
1, 674968, Control_c, 0, 67, 0
1, 674975, Note_on_c, 0, 65, 0
1, 675085, Note_on_c, 0, 61, 42
1, 675106, Note_on_c, 0, 53, 32
1, 675141, Note_on_c, 0, 56, 0
1, 675179, Note_on_c, 0, 61, 0
1, 675208, Note_on_c, 0, 53, 0
1, 675541, Note_on_c, 0, 37, 46
1, 675567, Note_on_c, 0, 73, 63
1, 675593, Note_on_c, 0, 64, 44
1, 675646, Control_c, 0, 64, 104
1, 675663, Control_c, 0, 64, 69
1, 675681, Control_c, 0, 64, 28
1, 675700, Control_c, 0, 64, 13
1, 675756, Control_c, 0, 64, 22
1, 675775, Control_c, 0, 64, 40
1, 675794, Control_c, 0, 64, 63
1, 675813, Control_c, 0, 64, 85
1, 675830, Control_c, 0, 64, 104
1, 675848, Control_c, 0, 64, 117
1, 675866, Control_c, 0, 64, 124
1, 675916, Note_on_c, 0, 37, 0
1, 676082, Note_on_c, 0, 76, 65
1, 676099, Note_on_c, 0, 68, 44
1, 676201, Note_on_c, 0, 64, 0
1, 676322, Note_on_c, 0, 73, 0
1, 676471, Note_on_c, 0, 64, 45
1, 676478, Note_on_c, 0, 56, 43
1, 676509, Note_on_c, 0, 68, 0
1, 676523, Note_on_c, 0, 76, 0
1, 676730, Note_on_c, 0, 56, 0
1, 676891, Note_on_c, 0, 64, 0
1, 676896, Note_on_c, 0, 68, 44
1, 676919, Note_on_c, 0, 61, 51
1, 676957, Note_on_c, 0, 68, 0
1, 677016, Note_on_c, 0, 61, 0
1, 677569, Note_on_c, 0, 83, 61
1, 677594, Note_on_c, 0, 47, 38
1, 677601, Note_on_c, 0, 75, 31
1, 677610, Note_on_c, 0, 35, 33
1, 677665, Control_c, 0, 64, 95
1, 677684, Control_c, 0, 64, 62
1, 677703, Control_c, 0, 64, 30
1, 677719, Control_c, 0, 64, 16
1, 677738, Control_c, 0, 64, 10
1, 677793, Control_c, 0, 64, 18
1, 677804, Note_on_c, 0, 35, 0
1, 677813, Control_c, 0, 64, 40
1, 677832, Control_c, 0, 64, 60
1, 677860, Control_c, 0, 64, 80
1, 677878, Control_c, 0, 64, 96
1, 677896, Control_c, 0, 64, 112
1, 677914, Control_c, 0, 64, 124
1, 677981, Note_on_c, 0, 47, 0
1, 678165, Note_on_c, 0, 78, 47
1, 678176, Note_on_c, 0, 71, 38
1, 678256, Note_on_c, 0, 75, 0
1, 678392, Note_on_c, 0, 71, 0
1, 678397, Note_on_c, 0, 83, 0
1, 678547, Note_on_c, 0, 71, 47
1, 678561, Note_on_c, 0, 63, 52
1, 678630, Note_on_c, 0, 78, 0
1, 678893, Note_on_c, 0, 71, 0
1, 678967, Note_on_c, 0, 66, 53
1, 678998, Note_on_c, 0, 63, 0
1, 679000, Note_on_c, 0, 59, 48
1, 679046, Note_on_c, 0, 66, 0
1, 679064, Note_on_c, 0, 59, 0
1, 679451, Note_on_c, 0, 71, 64
1, 679470, Note_on_c, 0, 64, 45
1, 679477, Note_on_c, 0, 40, 44
1, 679478, Note_on_c, 0, 52, 45
1, 679609, Control_c, 0, 64, 100
1, 679628, Control_c, 0, 64, 67
1, 679646, Control_c, 0, 64, 40
1, 679665, Control_c, 0, 64, 36
1, 679702, Control_c, 0, 64, 47
1, 679732, Control_c, 0, 64, 61
1, 679748, Control_c, 0, 64, 78
1, 679763, Note_on_c, 0, 40, 0
1, 679767, Control_c, 0, 64, 96
1, 679785, Control_c, 0, 64, 118
1, 679803, Control_c, 0, 64, 127
1, 679861, Note_on_c, 0, 52, 0
1, 679956, Note_on_c, 0, 76, 62
1, 679973, Note_on_c, 0, 68, 51
1, 680096, Note_on_c, 0, 64, 0
1, 680109, Note_on_c, 0, 71, 0
1, 680332, Note_on_c, 0, 68, 0
1, 680345, Note_on_c, 0, 64, 59
1, 680348, Note_on_c, 0, 56, 51
1, 680429, Note_on_c, 0, 76, 0
1, 680598, Note_on_c, 0, 56, 0
1, 680747, Note_on_c, 0, 68, 64
1, 680767, Note_on_c, 0, 59, 60
1, 680777, Note_on_c, 0, 64, 0
1, 680817, Note_on_c, 0, 68, 0
1, 680868, Note_on_c, 0, 59, 0
1, 681240, Note_on_c, 0, 83, 78
1, 681255, Note_on_c, 0, 47, 53
1, 681258, Note_on_c, 0, 35, 54
1, 681266, Note_on_c, 0, 75, 45
1, 681352, Control_c, 0, 64, 119
1, 681370, Control_c, 0, 64, 86
1, 681389, Control_c, 0, 64, 55
1, 681405, Control_c, 0, 64, 37
1, 681443, Control_c, 0, 64, 45
1, 681460, Note_on_c, 0, 35, 0
1, 681460, Control_c, 0, 64, 61
1, 681480, Control_c, 0, 64, 81
1, 681499, Control_c, 0, 64, 103
1, 681517, Control_c, 0, 64, 127
1, 681597, Note_on_c, 0, 47, 0
1, 681761, Note_on_c, 0, 78, 62
1, 681782, Note_on_c, 0, 71, 42
1, 681840, Note_on_c, 0, 75, 0
1, 681997, Note_on_c, 0, 71, 0
1, 682022, Note_on_c, 0, 83, 0
1, 682151, Note_on_c, 0, 63, 57
1, 682157, Note_on_c, 0, 71, 64
1, 682224, Note_on_c, 0, 78, 0
1, 682499, Note_on_c, 0, 71, 0
1, 682586, Note_on_c, 0, 66, 58
1, 682608, Note_on_c, 0, 59, 49
1, 682618, Note_on_c, 0, 63, 0
1, 682662, Note_on_c, 0, 66, 0
1, 682673, Note_on_c, 0, 59, 0
1, 683065, Note_on_c, 0, 52, 59
1, 683065, Note_on_c, 0, 40, 57
1, 683078, Note_on_c, 0, 71, 71
1, 683082, Note_on_c, 0, 64, 59
1, 683203, Control_c, 0, 64, 102
1, 683223, Control_c, 0, 64, 70
1, 683242, Control_c, 0, 64, 45
1, 683260, Control_c, 0, 64, 43
1, 683276, Control_c, 0, 64, 49
1, 683295, Control_c, 0, 64, 65
1, 683315, Control_c, 0, 64, 84
1, 683332, Control_c, 0, 64, 107
1, 683340, Note_on_c, 0, 40, 0
1, 683351, Control_c, 0, 64, 127
1, 683502, Note_on_c, 0, 52, 0
1, 683579, Note_on_c, 0, 76, 73
1, 683595, Note_on_c, 0, 68, 55
1, 683686, Note_on_c, 0, 71, 0
1, 683705, Note_on_c, 0, 74, 19
1, 683726, Note_on_c, 0, 74, 0
1, 683729, Note_on_c, 0, 64, 0
1, 683933, Note_on_c, 0, 68, 0
1, 683934, Note_on_c, 0, 76, 0
1, 683979, Note_on_c, 0, 64, 61
1, 683982, Note_on_c, 0, 56, 57
1, 684190, Note_on_c, 0, 56, 0
1, 684414, Note_on_c, 0, 59, 62
1, 684417, Note_on_c, 0, 68, 61
1, 684418, Note_on_c, 0, 64, 0
1, 684464, Note_on_c, 0, 68, 0
1, 684530, Note_on_c, 0, 59, 0
1, 684966, Note_on_c, 0, 83, 82
1, 684974, Note_on_c, 0, 35, 54
1, 684978, Note_on_c, 0, 47, 55
1, 685002, Note_on_c, 0, 75, 55
1, 685038, Control_c, 0, 64, 113
1, 685056, Control_c, 0, 64, 74
1, 685075, Control_c, 0, 64, 17
1, 685093, Control_c, 0, 64, 0
1, 685167, Control_c, 0, 64, 41
1, 685185, Control_c, 0, 64, 71
1, 685204, Control_c, 0, 64, 93
1, 685205, Note_on_c, 0, 35, 0
1, 685223, Control_c, 0, 64, 116
1, 685242, Control_c, 0, 64, 127
1, 685321, Note_on_c, 0, 47, 0
1, 685577, Note_on_c, 0, 78, 63
1, 685597, Note_on_c, 0, 71, 44
1, 685703, Note_on_c, 0, 75, 0
1, 685891, Note_on_c, 0, 71, 0
1, 685963, Note_on_c, 0, 83, 0
1, 686008, Note_on_c, 0, 71, 51
1, 686008, Note_on_c, 0, 63, 58
1, 686107, Note_on_c, 0, 78, 0
1, 686386, Note_on_c, 0, 71, 0
1, 686421, Note_on_c, 0, 66, 60
1, 686425, Note_on_c, 0, 59, 58
1, 686461, Note_on_c, 0, 63, 0
1, 686490, Note_on_c, 0, 66, 0
1, 686503, Note_on_c, 0, 59, 0
1, 686902, Note_on_c, 0, 81, 81
1, 686908, Note_on_c, 0, 47, 53
1, 686909, Note_on_c, 0, 35, 47
1, 686919, Note_on_c, 0, 75, 61
1, 687043, Note_on_c, 0, 35, 0
1, 687085, Note_on_c, 0, 47, 0
1, 687434, Note_on_c, 0, 78, 63
1, 687453, Note_on_c, 0, 69, 56
1, 687545, Note_on_c, 0, 75, 0
1, 687677, Note_on_c, 0, 69, 0
1, 687811, Note_on_c, 0, 69, 68
1, 687812, Note_on_c, 0, 63, 63
1, 687880, Note_on_c, 0, 81, 0
1, 688163, Note_on_c, 0, 69, 0
1, 688192, Note_on_c, 0, 66, 66
1, 688200, Note_on_c, 0, 59, 72
1, 688208, Note_on_c, 0, 78, 0
1, 688221, Note_on_c, 0, 63, 0
1, 688230, Note_on_c, 0, 66, 0
1, 688256, Note_on_c, 0, 59, 0
1, 688611, Note_on_c, 0, 36, 63
1, 688619, Note_on_c, 0, 48, 70
1, 688635, Note_on_c, 0, 81, 85
1, 688664, Note_on_c, 0, 75, 64
1, 688723, Control_c, 0, 64, 118
1, 688743, Control_c, 0, 64, 85
1, 688761, Control_c, 0, 64, 51
1, 688781, Control_c, 0, 64, 29
1, 688817, Control_c, 0, 64, 39
1, 688833, Note_on_c, 0, 36, 0
1, 688835, Control_c, 0, 64, 59
1, 688855, Control_c, 0, 64, 82
1, 688874, Control_c, 0, 64, 102
1, 688889, Control_c, 0, 64, 123
1, 688908, Control_c, 0, 64, 127
1, 688922, Note_on_c, 0, 48, 0
1, 689152, Note_on_c, 0, 78, 81
1, 689159, Note_on_c, 0, 69, 69
1, 689209, Note_on_c, 0, 75, 0
1, 689390, Note_on_c, 0, 69, 0
1, 689479, Note_on_c, 0, 81, 0
1, 689505, Note_on_c, 0, 69, 70
1, 689512, Note_on_c, 0, 63, 65
1, 689799, Note_on_c, 0, 69, 0
1, 689880, Note_on_c, 0, 66, 70
1, 689886, Note_on_c, 0, 60, 69
1, 689910, Note_on_c, 0, 63, 0
1, 689921, Note_on_c, 0, 66, 0
1, 689922, Note_on_c, 0, 78, 0
1, 689952, Note_on_c, 0, 60, 0
1, 690301, Note_on_c, 0, 36, 71
1, 690302, Note_on_c, 0, 48, 76
1, 690334, Note_on_c, 0, 80, 87
1, 690344, Note_on_c, 0, 75, 74
1, 690410, Control_c, 0, 64, 94
1, 690429, Control_c, 0, 64, 55
1, 690448, Control_c, 0, 64, 22
1, 690484, Control_c, 0, 64, 38
1, 690503, Control_c, 0, 64, 63
1, 690508, Note_on_c, 0, 36, 0
1, 690523, Control_c, 0, 64, 90
1, 690541, Control_c, 0, 64, 118
1, 690559, Control_c, 0, 64, 127
1, 690612, Note_on_c, 0, 48, 0
1, 690834, Note_on_c, 0, 78, 83
1, 690835, Note_on_c, 0, 68, 78
1, 690898, Note_on_c, 0, 75, 0
1, 690913, Note_on_c, 0, 80, 0
1, 691137, Note_on_c, 0, 68, 0
1, 691228, Note_on_c, 0, 63, 73
1, 691231, Note_on_c, 0, 68, 76
1, 691530, Note_on_c, 0, 68, 0
1, 691616, Note_on_c, 0, 56, 65
1, 691619, Note_on_c, 0, 66, 79
1, 691667, Note_on_c, 0, 63, 0
1, 691703, Note_on_c, 0, 66, 0
1, 691771, Note_on_c, 0, 72, 80
1, 691784, Note_on_c, 0, 56, 0
1, 691931, Note_on_c, 0, 75, 91
1, 691975, Note_on_c, 0, 78, 0
1, 692283, Note_on_c, 0, 44, 88
1, 692285, Note_on_c, 0, 32, 80
1, 692374, Control_c, 0, 64, 119
1, 692393, Control_c, 0, 64, 78
1, 692411, Control_c, 0, 64, 30
1, 692412, Note_on_c, 0, 82, 91
1, 692430, Control_c, 0, 64, 0
1, 692466, Control_c, 0, 64, 32
1, 692484, Control_c, 0, 64, 69
1, 692488, Note_on_c, 0, 32, 0
1, 692503, Control_c, 0, 64, 100
1, 692522, Control_c, 0, 64, 127
1, 692547, Note_on_c, 0, 44, 0
1, 692729, Note_on_c, 0, 75, 0
1, 693012, Note_on_c, 0, 80, 87
1, 693087, Note_on_c, 0, 82, 0
1, 693199, Note_on_c, 0, 72, 0
1, 693419, Note_on_c, 0, 56, 66
1, 693427, Note_on_c, 0, 70, 68
1, 693427, Note_on_c, 0, 78, 83
1, 693443, Note_on_c, 0, 73, 65
1, 693511, Note_on_c, 0, 80, 0
1, 693665, Note_on_c, 0, 70, 0
1, 693687, Note_on_c, 0, 73, 0
1, 693817, Note_on_c, 0, 77, 90
1, 693826, Note_on_c, 0, 68, 72
1, 693837, Note_on_c, 0, 72, 70
1, 693856, Note_on_c, 0, 78, 0
1, 693878, Note_on_c, 0, 56, 0
1, 694179, Note_on_c, 0, 72, 0
1, 694251, Note_on_c, 0, 56, 48
1, 694286, Note_on_c, 0, 65, 60
1, 694354, Note_on_c, 0, 74, 89
1, 694364, Note_on_c, 0, 72, 70
1, 694402, Note_on_c, 0, 68, 0
1, 694471, Note_on_c, 0, 77, 0
1, 694503, Control_c, 0, 64, 115
1, 694523, Control_c, 0, 64, 82
1, 694541, Control_c, 0, 64, 47
1, 694560, Control_c, 0, 64, 26
1, 694615, Control_c, 0, 64, 31
1, 694636, Control_c, 0, 64, 46
1, 694652, Control_c, 0, 64, 62
1, 694672, Control_c, 0, 64, 80
1, 694698, Control_c, 0, 64, 97
1, 694717, Control_c, 0, 64, 114
1, 694736, Control_c, 0, 64, 126
1, 694856, Note_on_c, 0, 75, 89
1, 694868, Note_on_c, 0, 66, 64
1, 694914, Note_on_c, 0, 74, 0
1, 694940, Note_on_c, 0, 65, 0
1, 695457, Note_on_c, 0, 65, 59
1, 695565, Note_on_c, 0, 74, 86
1, 695566, Note_on_c, 0, 66, 0
1, 695607, Note_on_c, 0, 75, 0
1, 695745, Note_on_c, 0, 75, 87
1, 695748, Note_on_c, 0, 65, 0
1, 695763, Note_on_c, 0, 66, 68
1, 695764, Control_c, 0, 64, 121
1, 695783, Control_c, 0, 64, 114
1, 695786, Note_on_c, 0, 74, 0
1, 695803, Control_c, 0, 64, 106
1, 695819, Control_c, 0, 64, 97
1, 695837, Control_c, 0, 64, 88
1, 695856, Control_c, 0, 64, 79
1, 695875, Control_c, 0, 64, 73
1, 695882, Note_on_c, 0, 77, 86
1, 695888, Note_on_c, 0, 68, 73
1, 695893, Note_on_c, 0, 66, 0
1, 695893, Control_c, 0, 64, 70
1, 695912, Note_on_c, 0, 75, 0
1, 695912, Control_c, 0, 64, 68
1, 695931, Control_c, 0, 64, 65
1, 695951, Control_c, 0, 64, 63
1, 695968, Control_c, 0, 64, 62
1, 695987, Control_c, 0, 64, 61
1, 696024, Control_c, 0, 64, 60
1, 696044, Note_on_c, 0, 75, 71
1, 696071, Note_on_c, 0, 66, 43
1, 696079, Control_c, 0, 64, 58
1, 696112, Note_on_c, 0, 77, 0
1, 696142, Note_on_c, 0, 68, 0
1, 696173, Control_c, 0, 64, 56
1, 696210, Control_c, 0, 64, 52
1, 696227, Control_c, 0, 64, 48
1, 696246, Control_c, 0, 64, 45
1, 696265, Control_c, 0, 64, 41
1, 696302, Control_c, 0, 64, 37
1, 696358, Control_c, 0, 64, 33
1, 696412, Control_c, 0, 64, 29
1, 696719, Control_c, 0, 64, 34
1, 696755, Control_c, 0, 64, 39
1, 696772, Control_c, 0, 64, 42
1, 696792, Control_c, 0, 64, 47
1, 696810, Control_c, 0, 64, 53
1, 696830, Control_c, 0, 64, 65
1, 696847, Control_c, 0, 64, 72
1, 696867, Control_c, 0, 64, 77
1, 696886, Control_c, 0, 64, 84
1, 696904, Control_c, 0, 64, 94
1, 696923, Control_c, 0, 64, 106
1, 696941, Control_c, 0, 64, 116
1, 696959, Control_c, 0, 64, 123
1, 696978, Control_c, 0, 64, 127
1, 697062, Note_on_c, 0, 56, 0
1, 697912, Note_on_c, 0, 72, 0
1, 698291, Note_on_c, 0, 73, 77
1, 698443, Note_on_c, 0, 75, 0
1, 698723, Note_on_c, 0, 73, 0
1, 698830, Note_on_c, 0, 37, 54
1, 698874, Note_on_c, 0, 66, 0
1, 698953, Note_on_c, 0, 73, 86
1, 698980, Note_on_c, 0, 65, 60
1, 699053, Control_c, 0, 64, 112
1, 699072, Control_c, 0, 64, 76
1, 699090, Control_c, 0, 64, 43
1, 699109, Control_c, 0, 64, 36
1, 699147, Control_c, 0, 64, 52
1, 699165, Control_c, 0, 64, 69
1, 699182, Control_c, 0, 64, 88
1, 699200, Control_c, 0, 64, 110
1, 699219, Control_c, 0, 64, 127
1, 699308, Note_on_c, 0, 49, 65
1, 699346, Note_on_c, 0, 37, 0
1, 699409, Note_on_c, 0, 78, 88
1, 699428, Note_on_c, 0, 70, 69
1, 699462, Note_on_c, 0, 65, 0
1, 699482, Note_on_c, 0, 73, 0
1, 699567, Note_on_c, 0, 51, 71
1, 699622, Note_on_c, 0, 49, 0
1, 699703, Note_on_c, 0, 78, 0
1, 699741, Note_on_c, 0, 70, 0
1, 699898, Note_on_c, 0, 49, 61
1, 700015, Note_on_c, 0, 78, 91
1, 700037, Note_on_c, 0, 70, 67
1, 700092, Note_on_c, 0, 51, 0
1, 700119, Control_c, 0, 64, 95
1, 700136, Control_c, 0, 64, 58
1, 700154, Control_c, 0, 64, 0
1, 700267, Control_c, 0, 64, 38
1, 700285, Control_c, 0, 64, 61
1, 700311, Control_c, 0, 64, 85
1, 700317, Note_on_c, 0, 61, 61
1, 700330, Control_c, 0, 64, 106
1, 700349, Control_c, 0, 64, 124
1, 700416, Note_on_c, 0, 49, 0
1, 700560, Note_on_c, 0, 49, 67
1, 700668, Note_on_c, 0, 61, 0
1, 700829, Note_on_c, 0, 51, 69
1, 700891, Note_on_c, 0, 49, 0
1, 700909, Note_on_c, 0, 70, 0
1, 701135, Note_on_c, 0, 49, 72
1, 701208, Note_on_c, 0, 51, 0
1, 701226, Note_on_c, 0, 77, 81
1, 701246, Note_on_c, 0, 68, 63
1, 701306, Note_on_c, 0, 78, 0
1, 701308, Note_on_c, 0, 49, 0
1, 701401, Note_on_c, 0, 49, 73
1, 701521, Note_on_c, 0, 77, 0
1, 701565, Note_on_c, 0, 68, 0
1, 701671, Note_on_c, 0, 37, 61
1, 701775, Note_on_c, 0, 77, 80
1, 701801, Note_on_c, 0, 70, 58
1, 701803, Note_on_c, 0, 68, 60
1, 701878, Control_c, 0, 64, 105
1, 701887, Note_on_c, 0, 49, 0
1, 701897, Control_c, 0, 64, 72
1, 701915, Control_c, 0, 64, 42
1, 701933, Control_c, 0, 64, 31
1, 701990, Control_c, 0, 64, 42
1, 702007, Control_c, 0, 64, 56
1, 702026, Control_c, 0, 64, 72
1, 702039, Note_on_c, 0, 68, 0
1, 702043, Control_c, 0, 64, 88
1, 702063, Control_c, 0, 64, 104
1, 702082, Control_c, 0, 64, 115
1, 702100, Control_c, 0, 64, 123
1, 702115, Note_on_c, 0, 49, 51
1, 702116, Control_c, 0, 64, 127
1, 702135, Note_on_c, 0, 37, 0
1, 702255, Note_on_c, 0, 75, 67
1, 702270, Note_on_c, 0, 66, 55
1, 702305, Note_on_c, 0, 70, 0
1, 702381, Note_on_c, 0, 77, 0
1, 702400, Note_on_c, 0, 51, 61
1, 702441, Note_on_c, 0, 49, 0
1, 702534, Note_on_c, 0, 75, 0
1, 702562, Note_on_c, 0, 66, 0
1, 702696, Note_on_c, 0, 49, 51
1, 702727, Note_on_c, 0, 75, 62
1, 702746, Note_on_c, 0, 66, 52
1, 702755, Note_on_c, 0, 70, 49
1, 702833, Control_c, 0, 64, 102
1, 702848, Note_on_c, 0, 51, 0
1, 702851, Control_c, 0, 64, 69
1, 702870, Control_c, 0, 64, 38
1, 702890, Control_c, 0, 64, 29
1, 702925, Control_c, 0, 64, 36
1, 702943, Control_c, 0, 64, 51
1, 702962, Control_c, 0, 64, 69
1, 702979, Control_c, 0, 64, 85
1, 702984, Note_on_c, 0, 61, 56
1, 702999, Control_c, 0, 64, 102
1, 703017, Control_c, 0, 64, 117
1, 703036, Control_c, 0, 64, 127
1, 703097, Note_on_c, 0, 49, 0
1, 703236, Note_on_c, 0, 49, 71
1, 703314, Note_on_c, 0, 61, 0
1, 703368, Note_on_c, 0, 75, 0
1, 703464, Note_on_c, 0, 51, 72
1, 703531, Note_on_c, 0, 66, 0
1, 703542, Note_on_c, 0, 49, 0
1, 703598, Note_on_c, 0, 70, 0
1, 703759, Note_on_c, 0, 49, 61
1, 703840, Note_on_c, 0, 75, 86
1, 703848, Note_on_c, 0, 66, 70
1, 703857, Note_on_c, 0, 51, 0
1, 703857, Note_on_c, 0, 70, 58
1, 703896, Note_on_c, 0, 70, 0
1, 703911, Note_on_c, 0, 49, 0
1, 703993, Note_on_c, 0, 49, 70
1, 704087, Note_on_c, 0, 75, 0
1, 704127, Note_on_c, 0, 66, 0
1, 704201, Note_on_c, 0, 37, 74
1, 704243, Note_on_c, 0, 75, 85
1, 704258, Note_on_c, 0, 66, 74
1, 704295, Control_c, 0, 64, 100
1, 704313, Note_on_c, 0, 49, 0
1, 704313, Control_c, 0, 64, 57
1, 704333, Control_c, 0, 64, 17
1, 704362, Poly_aftertouch_c, 0, 72, 0
1, 704370, Control_c, 0, 64, 32
1, 704390, Control_c, 0, 64, 55
1, 704408, Control_c, 0, 64, 83
1, 704424, Control_c, 0, 64, 113
1, 704443, Control_c, 0, 64, 127
1, 704474, Note_on_c, 0, 49, 67
1, 704482, Note_on_c, 0, 66, 0
1, 704509, Note_on_c, 0, 37, 0
1, 704546, Note_on_c, 0, 82, 91
1, 704624, Note_on_c, 0, 82, 0
1, 704670, Note_on_c, 0, 51, 73
1, 704673, Note_on_c, 0, 49, 0
1, 704705, Note_on_c, 0, 66, 74
1, 704724, Note_on_c, 0, 75, 0
1, 704783, Note_on_c, 0, 78, 12
1, 704794, Note_on_c, 0, 72, 73
1, 704808, Note_on_c, 0, 66, 0
1, 704855, Note_on_c, 0, 78, 0
1, 704866, Note_on_c, 0, 75, 66
1, 704946, Note_on_c, 0, 49, 64
1, 705100, Note_on_c, 0, 82, 90
1, 705147, Note_on_c, 0, 51, 0
1, 705269, Control_c, 0, 64, 111
1, 705287, Control_c, 0, 64, 77
1, 705307, Control_c, 0, 64, 48
1, 705326, Control_c, 0, 64, 45
1, 705339, Note_on_c, 0, 61, 65
1, 705343, Control_c, 0, 64, 50
1, 705359, Control_c, 0, 64, 64
1, 705379, Control_c, 0, 64, 82
1, 705399, Control_c, 0, 64, 109
1, 705416, Control_c, 0, 64, 127
1, 705445, Note_on_c, 0, 49, 0
1, 705576, Note_on_c, 0, 49, 73
1, 705700, Note_on_c, 0, 82, 0
1, 705731, Note_on_c, 0, 61, 0
1, 705792, Note_on_c, 0, 51, 69
1, 705853, Note_on_c, 0, 49, 0
1, 705980, Note_on_c, 0, 72, 0
1, 706048, Note_on_c, 0, 49, 64
1, 706084, Note_on_c, 0, 65, 50
1, 706146, Note_on_c, 0, 73, 66
1, 706147, Note_on_c, 0, 51, 0
1, 706165, Note_on_c, 0, 80, 86
1, 706206, Note_on_c, 0, 78, 34
1, 706234, Note_on_c, 0, 49, 0
1, 706236, Note_on_c, 0, 65, 0
1, 706249, Note_on_c, 0, 78, 0
1, 706253, Note_on_c, 0, 75, 0
1, 706308, Note_on_c, 0, 73, 0
1, 706324, Note_on_c, 0, 49, 72
1, 706402, Note_on_c, 0, 65, 64
1, 706468, Note_on_c, 0, 80, 0
1, 706470, Note_on_c, 0, 70, 60
1, 706498, Note_on_c, 0, 73, 57
1, 706613, Note_on_c, 0, 37, 72
1, 706645, Note_on_c, 0, 40, 17
1, 706718, Note_on_c, 0, 40, 0
1, 706746, Note_on_c, 0, 80, 87
1, 706761, Note_on_c, 0, 49, 0
1, 706798, Control_c, 0, 64, 105
1, 706818, Control_c, 0, 64, 69
1, 706834, Control_c, 0, 64, 37
1, 706898, Control_c, 0, 64, 49
1, 706918, Control_c, 0, 64, 69
1, 706936, Control_c, 0, 64, 93
1, 706954, Control_c, 0, 64, 124
1, 707042, Note_on_c, 0, 49, 58
1, 707058, Note_on_c, 0, 37, 0
1, 707170, Note_on_c, 0, 78, 76
1, 707225, Note_on_c, 0, 65, 0
1, 707229, Note_on_c, 0, 80, 0
1, 707294, Note_on_c, 0, 51, 62
1, 707299, Note_on_c, 0, 78, 0
1, 707311, Note_on_c, 0, 49, 0
1, 707318, Note_on_c, 0, 70, 0
1, 707399, Note_on_c, 0, 73, 0
1, 707429, Note_on_c, 0, 63, 55
1, 707492, Note_on_c, 0, 70, 53
1, 707544, Note_on_c, 0, 73, 64
1, 707595, Note_on_c, 0, 49, 46
1, 707651, Note_on_c, 0, 78, 72
1, 707852, Control_c, 0, 64, 81
1, 707872, Control_c, 0, 64, 37
1, 707891, Control_c, 0, 64, 0
1, 707916, Note_on_c, 0, 61, 56
1, 707947, Control_c, 0, 64, 36
1, 707965, Control_c, 0, 64, 67
1, 707967, Note_on_c, 0, 51, 0
1, 707983, Control_c, 0, 64, 95
1, 708001, Control_c, 0, 64, 121
1, 708019, Control_c, 0, 64, 127
1, 708027, Note_on_c, 0, 49, 0
1, 708150, Note_on_c, 0, 49, 63
1, 708264, Note_on_c, 0, 61, 0
1, 708401, Note_on_c, 0, 51, 64
1, 708467, Note_on_c, 0, 49, 0
1, 708496, Note_on_c, 0, 78, 0
1, 708709, Note_on_c, 0, 49, 64
1, 708779, Note_on_c, 0, 51, 0
1, 708817, Note_on_c, 0, 78, 87
1, 708838, Note_on_c, 0, 49, 0
1, 708924, Note_on_c, 0, 63, 0
1, 708942, Note_on_c, 0, 49, 70
1, 708980, Note_on_c, 0, 70, 0
1, 708995, Note_on_c, 0, 73, 0
1, 709082, Note_on_c, 0, 63, 61
1, 709127, Note_on_c, 0, 70, 64
1, 709132, Note_on_c, 0, 78, 0
1, 709138, Note_on_c, 0, 73, 69
1, 709159, Note_on_c, 0, 37, 75
1, 709233, Control_c, 0, 64, 109
1, 709239, Note_on_c, 0, 78, 86
1, 709252, Control_c, 0, 64, 71
1, 709257, Note_on_c, 0, 49, 0
1, 709271, Control_c, 0, 64, 48
1, 709278, Note_on_c, 0, 63, 0
1, 709288, Note_on_c, 0, 73, 0
1, 709306, Control_c, 0, 64, 59
1, 709326, Control_c, 0, 64, 71
1, 709339, Note_on_c, 0, 70, 0
1, 709344, Control_c, 0, 64, 90
1, 709363, Control_c, 0, 64, 113
1, 709380, Control_c, 0, 64, 127
1, 709455, Note_on_c, 0, 49, 73
1, 709502, Note_on_c, 0, 37, 0
1, 709561, Note_on_c, 0, 80, 83
1, 709593, Note_on_c, 0, 78, 0
1, 709748, Note_on_c, 0, 82, 86
1, 709757, Note_on_c, 0, 51, 68
1, 709778, Note_on_c, 0, 80, 0
1, 709807, Note_on_c, 0, 82, 0
1, 709821, Note_on_c, 0, 49, 0
1, 709965, Note_on_c, 0, 63, 55
1, 709986, Note_on_c, 0, 49, 63
1, 710052, Note_on_c, 0, 68, 72
1, 710188, Note_on_c, 0, 72, 81
1, 710200, Note_on_c, 0, 51, 0
1, 710299, Control_c, 0, 64, 99
1, 710317, Control_c, 0, 64, 66
1, 710335, Control_c, 0, 64, 41
1, 710355, Control_c, 0, 64, 36
1, 710392, Control_c, 0, 64, 47
1, 710409, Control_c, 0, 64, 63
1, 710428, Control_c, 0, 64, 80
1, 710446, Control_c, 0, 64, 101
1, 710456, Note_on_c, 0, 61, 65
1, 710464, Control_c, 0, 64, 127
1, 710559, Note_on_c, 0, 49, 0
1, 710701, Note_on_c, 0, 49, 66
1, 710793, Note_on_c, 0, 61, 0
1, 710817, Note_on_c, 0, 63, 0
1, 710926, Note_on_c, 0, 51, 70
1, 710991, Note_on_c, 0, 49, 0
1, 711158, Note_on_c, 0, 49, 67
1, 711216, Note_on_c, 0, 68, 0
1, 711220, Note_on_c, 0, 51, 0
1, 711255, Note_on_c, 0, 80, 91
1, 711283, Note_on_c, 0, 49, 0
1, 711293, Note_on_c, 0, 76, 27
1, 711300, Note_on_c, 0, 72, 0
1, 711307, Note_on_c, 0, 80, 0
1, 711367, Note_on_c, 0, 49, 75
1, 711407, Note_on_c, 0, 76, 0
1, 711447, Note_on_c, 0, 63, 74
1, 711500, Note_on_c, 0, 70, 65
1, 711512, Note_on_c, 0, 73, 68
1, 711619, Note_on_c, 0, 37, 81
1, 711653, Note_on_c, 0, 78, 83
1, 711675, Note_on_c, 0, 76, 20
1, 711689, Control_c, 0, 64, 87
1, 711704, Poly_aftertouch_c, 0, 75, 0
1, 711709, Control_c, 0, 64, 42
1, 711717, Note_on_c, 0, 76, 0
1, 711726, Control_c, 0, 64, 34
1, 711728, Note_on_c, 0, 73, 0
1, 711743, Control_c, 0, 64, 43
1, 711758, Note_on_c, 0, 63, 0
1, 711761, Note_on_c, 0, 70, 0
1, 711761, Control_c, 0, 64, 61
1, 711781, Control_c, 0, 64, 83
1, 711791, Note_on_c, 0, 49, 0
1, 711798, Control_c, 0, 64, 115
1, 711818, Control_c, 0, 64, 127
1, 711908, Note_on_c, 0, 49, 73
1, 711932, Note_on_c, 0, 80, 81
1, 711958, Note_on_c, 0, 37, 0
1, 711965, Note_on_c, 0, 78, 0
1, 712110, Note_on_c, 0, 82, 89
1, 712127, Note_on_c, 0, 51, 71
1, 712143, Note_on_c, 0, 80, 0
1, 712160, Note_on_c, 0, 82, 0
1, 712191, Note_on_c, 0, 49, 0
1, 712230, Poly_aftertouch_c, 0, 80, 0
1, 712297, Note_on_c, 0, 63, 66
1, 712370, Note_on_c, 0, 68, 78
1, 712412, Note_on_c, 0, 49, 68
1, 712452, Note_on_c, 0, 72, 88
1, 712587, Control_c, 0, 64, 89
1, 712599, Note_on_c, 0, 51, 0
1, 712604, Control_c, 0, 64, 54
1, 712623, Control_c, 0, 64, 41
1, 712640, Control_c, 0, 64, 43
1, 712660, Control_c, 0, 64, 55
1, 712678, Control_c, 0, 64, 71
1, 712698, Control_c, 0, 64, 93
1, 712706, Note_on_c, 0, 61, 80
1, 712716, Control_c, 0, 64, 127
1, 712836, Note_on_c, 0, 49, 0
1, 712908, Note_on_c, 0, 63, 0
1, 712939, Note_on_c, 0, 49, 78
1, 713005, Note_on_c, 0, 61, 0
1, 713171, Note_on_c, 0, 51, 77
1, 713247, Note_on_c, 0, 49, 0
1, 713323, Note_on_c, 0, 68, 0
1, 713432, Note_on_c, 0, 49, 78
1, 713519, Note_on_c, 0, 51, 0
1, 713545, Note_on_c, 0, 80, 86
1, 713582, Note_on_c, 0, 72, 0
1, 713584, Note_on_c, 0, 49, 0
1, 713596, Note_on_c, 0, 76, 46
1, 713624, Note_on_c, 0, 80, 0
1, 713682, Note_on_c, 0, 49, 87
1, 713699, Note_on_c, 0, 76, 0
1, 713806, Note_on_c, 0, 63, 72
1, 713850, Note_on_c, 0, 70, 67
1, 713880, Note_on_c, 0, 73, 59
1, 714031, Note_on_c, 0, 37, 88
1, 714095, Control_c, 0, 64, 81
1, 714114, Control_c, 0, 64, 23
1, 714120, Note_on_c, 0, 78, 84
1, 714132, Control_c, 0, 64, 0
1, 714170, Control_c, 0, 64, 43
1, 714182, Note_on_c, 0, 73, 0
1, 714188, Control_c, 0, 64, 76
1, 714207, Control_c, 0, 64, 118
1, 714226, Control_c, 0, 64, 127
1, 714251, Note_on_c, 0, 70, 0
1, 714269, Note_on_c, 0, 63, 0
1, 714276, Note_on_c, 0, 49, 0
1, 714419, Note_on_c, 0, 49, 62
1, 714481, Note_on_c, 0, 80, 81
1, 714491, Note_on_c, 0, 37, 0
1, 714505, Note_on_c, 0, 78, 0
1, 714701, Note_on_c, 0, 82, 80
1, 714701, Note_on_c, 0, 51, 66
1, 714729, Note_on_c, 0, 80, 0
1, 714761, Note_on_c, 0, 82, 0
1, 714782, Note_on_c, 0, 49, 0
1, 714965, Note_on_c, 0, 49, 48
1, 714977, Note_on_c, 0, 63, 42
1, 715059, Note_on_c, 0, 68, 51
1, 715261, Note_on_c, 0, 72, 70
1, 715325, Note_on_c, 0, 51, 0
1, 715394, Control_c, 0, 64, 106
1, 715410, Control_c, 0, 64, 75
1, 715430, Control_c, 0, 64, 65
1, 715448, Control_c, 0, 64, 72
1, 715466, Control_c, 0, 64, 83
1, 715487, Control_c, 0, 64, 100
1, 715504, Control_c, 0, 64, 125
1, 715579, Note_on_c, 0, 61, 47
1, 715700, Note_on_c, 0, 49, 0
1, 715706, Control_c, 0, 67, 8
1, 715726, Control_c, 0, 67, 15
1, 715747, Control_c, 0, 67, 25
1, 715764, Control_c, 0, 67, 35
1, 715782, Control_c, 0, 67, 43
1, 715799, Control_c, 0, 67, 50
1, 715819, Control_c, 0, 67, 56
1, 715837, Control_c, 0, 67, 61
1, 715851, Note_on_c, 0, 49, 46
1, 715856, Control_c, 0, 67, 67
1, 715869, Note_on_c, 0, 61, 0
1, 715874, Control_c, 0, 67, 72
1, 715893, Control_c, 0, 67, 76
1, 715931, Control_c, 0, 67, 82
1, 716121, Note_on_c, 0, 51, 52
1, 716122, Note_on_c, 0, 49, 0
1, 716469, Note_on_c, 0, 49, 40
1, 716574, Note_on_c, 0, 51, 0
1, 716607, Note_on_c, 0, 75, 75
1, 716630, Note_on_c, 0, 49, 0
1, 716665, Note_on_c, 0, 68, 0
1, 716689, Note_on_c, 0, 72, 0
1, 716803, Note_on_c, 0, 49, 49
1, 716863, Note_on_c, 0, 63, 0
1, 717043, Note_on_c, 0, 75, 0
1, 717050, Note_on_c, 0, 60, 38
1, 717123, Note_on_c, 0, 66, 42
1, 717175, Note_on_c, 0, 37, 37
1, 717202, Note_on_c, 0, 68, 47
1, 717340, Note_on_c, 0, 75, 65
1, 717372, Note_on_c, 0, 49, 0
1, 717413, Control_c, 0, 64, 108
1, 717432, Control_c, 0, 64, 74
1, 717451, Control_c, 0, 64, 54
1, 717486, Control_c, 0, 64, 62
1, 717504, Control_c, 0, 64, 72
1, 717505, Note_on_c, 0, 68, 0
1, 717524, Control_c, 0, 64, 88
1, 717541, Control_c, 0, 64, 111
1, 717560, Control_c, 0, 64, 127
1, 717598, Note_on_c, 0, 60, 0
1, 717599, Note_on_c, 0, 66, 0
1, 717671, Note_on_c, 0, 37, 0
1, 717687, Note_on_c, 0, 49, 38
1, 717689, Control_c, 0, 67, 86
1, 717903, Note_on_c, 0, 51, 46
1, 717921, Note_on_c, 0, 49, 0
1, 717923, Note_on_c, 0, 61, 51
1, 717960, Note_on_c, 0, 75, 0
1, 717978, Note_on_c, 0, 61, 0
1, 718024, Note_on_c, 0, 68, 35
1, 718065, Note_on_c, 0, 73, 48
1, 718176, Note_on_c, 0, 49, 25
1, 718231, Note_on_c, 0, 77, 68
1, 718281, Note_on_c, 0, 51, 0
1, 718293, Control_c, 0, 64, 95
1, 718311, Control_c, 0, 64, 69
1, 718329, Control_c, 0, 64, 64
1, 718348, Control_c, 0, 64, 69
1, 718368, Control_c, 0, 64, 77
1, 718386, Control_c, 0, 64, 90
1, 718403, Control_c, 0, 64, 111
1, 718421, Control_c, 0, 64, 127
1, 718499, Note_on_c, 0, 73, 0
1, 718530, Note_on_c, 0, 61, 38
1, 718578, Note_on_c, 0, 49, 0
1, 718621, Note_on_c, 0, 77, 0
1, 718692, Note_on_c, 0, 68, 0
1, 718708, Note_on_c, 0, 61, 0
1, 718754, Note_on_c, 0, 49, 32
1, 718829, Control_c, 0, 67, 90
1, 718851, Note_on_c, 0, 63, 31
1, 718866, Control_c, 0, 67, 97
1, 718907, Note_on_c, 0, 68, 35
1, 718943, Note_on_c, 0, 72, 40
1, 718995, Control_c, 0, 67, 101
1, 719089, Note_on_c, 0, 78, 61
1, 719111, Note_on_c, 0, 51, 33
1, 719136, Control_c, 0, 64, 109
1, 719138, Note_on_c, 0, 49, 0
1, 719153, Control_c, 0, 64, 80
1, 719171, Control_c, 0, 64, 65
1, 719192, Control_c, 0, 64, 68
1, 719192, Control_c, 0, 67, 106
1, 719209, Control_c, 0, 64, 76
1, 719227, Control_c, 0, 64, 88
1, 719247, Control_c, 0, 64, 108
1, 719266, Control_c, 0, 64, 127
1, 719283, Note_on_c, 0, 72, 0
1, 719322, Control_c, 0, 67, 110
1, 719357, Control_c, 0, 67, 114
1, 719412, Control_c, 0, 67, 120
1, 719428, Note_on_c, 0, 68, 0
1, 719429, Note_on_c, 0, 49, 38
1, 719439, Note_on_c, 0, 78, 0
1, 719447, Note_on_c, 0, 51, 0
1, 719450, Control_c, 0, 67, 124
1, 719499, Note_on_c, 0, 63, 0
1, 719523, Note_on_c, 0, 49, 0
1, 719687, Note_on_c, 0, 49, 31
1, 719730, Note_on_c, 0, 61, 44
1, 719784, Note_on_c, 0, 61, 0
1, 719821, Note_on_c, 0, 68, 35
1, 719879, Note_on_c, 0, 73, 43
1, 720052, Note_on_c, 0, 37, 30
1, 720112, Note_on_c, 0, 49, 0
1, 720211, Note_on_c, 0, 77, 63
1, 720292, Control_c, 0, 64, 103
1, 720312, Control_c, 0, 64, 69
1, 720330, Control_c, 0, 64, 33
1, 720349, Control_c, 0, 64, 17
1, 720423, Control_c, 0, 64, 22
1, 720442, Control_c, 0, 64, 41
1, 720459, Control_c, 0, 64, 66
1, 720478, Control_c, 0, 64, 88
1, 720497, Control_c, 0, 64, 108
1, 720516, Control_c, 0, 64, 122
1, 720534, Control_c, 0, 64, 127
1, 720554, Note_on_c, 0, 37, 0
1, 720576, Note_on_c, 0, 49, 36
1, 720876, Note_on_c, 0, 51, 36
1, 720878, Note_on_c, 0, 49, 0
1, 721181, Note_on_c, 0, 49, 36
1, 721231, Note_on_c, 0, 51, 0
1, 721247, Control_c, 0, 64, 103
1, 721265, Control_c, 0, 64, 75
1, 721284, Control_c, 0, 64, 50
1, 721302, Control_c, 0, 64, 41
1, 721359, Control_c, 0, 64, 46
1, 721377, Control_c, 0, 64, 57
1, 721395, Control_c, 0, 64, 72
1, 721413, Control_c, 0, 64, 88
1, 721432, Control_c, 0, 64, 106
1, 721452, Control_c, 0, 64, 120
1, 721469, Control_c, 0, 64, 127
1, 721498, Note_on_c, 0, 61, 37
1, 721558, Note_on_c, 0, 49, 0
1, 721798, Note_on_c, 0, 49, 30
1, 721817, Note_on_c, 0, 61, 0
1, 722143, Note_on_c, 0, 51, 32
1, 722153, Note_on_c, 0, 49, 0
1, 722163, Control_c, 0, 64, 122
1, 722182, Control_c, 0, 64, 96
1, 722202, Control_c, 0, 64, 67
1, 722220, Control_c, 0, 64, 47
1, 722259, Control_c, 0, 64, 58
1, 722276, Control_c, 0, 64, 72
1, 722294, Control_c, 0, 64, 90
1, 722313, Control_c, 0, 64, 111
1, 722332, Control_c, 0, 64, 127
1, 722480, Control_c, 0, 64, 118
1, 722481, Note_on_c, 0, 49, 32
1, 722498, Control_c, 0, 64, 90
1, 722516, Control_c, 0, 64, 63
1, 722528, Poly_aftertouch_c, 0, 77, 24
1, 722530, Note_on_c, 0, 51, 0
1, 722536, Control_c, 0, 64, 55
1, 722553, Control_c, 0, 64, 61
1, 722571, Control_c, 0, 64, 74
1, 722590, Control_c, 0, 64, 89
1, 722601, Note_on_c, 0, 77, 0
1, 722601, Poly_aftertouch_c, 0, 77, 0
1, 722608, Control_c, 0, 64, 113
1, 722628, Control_c, 0, 64, 127
1, 722713, Note_on_c, 0, 49, 0
1, 722812, Note_on_c, 0, 73, 0
1, 722896, Note_on_c, 0, 68, 0
1, 722901, Note_on_c, 0, 49, 36
1, 723222, Note_on_c, 0, 49, 0
1, 723638, Note_on_c, 0, 34, 26
1, 723638, Note_on_c, 0, 70, 47
1, 723660, Note_on_c, 0, 61, 30
1, 723760, Control_c, 0, 64, 122
1, 723778, Control_c, 0, 64, 95
1, 723798, Control_c, 0, 64, 66
1, 723815, Control_c, 0, 64, 46
1, 723851, Control_c, 0, 64, 51
1, 723871, Control_c, 0, 64, 64
1, 723888, Control_c, 0, 64, 81
1, 723908, Control_c, 0, 64, 103
1, 723927, Control_c, 0, 64, 127
1, 723987, Note_on_c, 0, 34, 0
1, 724303, Note_on_c, 0, 73, 38
1, 724328, Note_on_c, 0, 65, 31
1, 724364, Note_on_c, 0, 61, 0
1, 724569, Note_on_c, 0, 70, 0
1, 724687, Note_on_c, 0, 65, 0
1, 724699, Note_on_c, 0, 73, 0
1, 724838, Note_on_c, 0, 61, 38
1, 724844, Note_on_c, 0, 53, 32
1, 725175, Note_on_c, 0, 53, 0
1, 725326, Note_on_c, 0, 58, 26
1, 725333, Note_on_c, 0, 61, 0
1, 725358, Note_on_c, 0, 63, 26
1, 725442, Note_on_c, 0, 58, 0
1, 725470, Note_on_c, 0, 63, 0
1, 725959, Note_on_c, 0, 77, 61
1, 725972, Note_on_c, 0, 41, 41
1, 725982, Note_on_c, 0, 68, 43
1, 726112, Control_c, 0, 64, 116
1, 726130, Control_c, 0, 64, 83
1, 726150, Control_c, 0, 64, 52
1, 726169, Control_c, 0, 64, 47
1, 726187, Control_c, 0, 64, 50
1, 726205, Control_c, 0, 64, 59
1, 726224, Control_c, 0, 64, 71
1, 726244, Control_c, 0, 64, 89
1, 726261, Control_c, 0, 64, 115
1, 726261, Control_c, 0, 67, 116
1, 726279, Control_c, 0, 64, 127
1, 726281, Control_c, 0, 67, 109
1, 726298, Control_c, 0, 67, 98
1, 726317, Control_c, 0, 67, 81
1, 726335, Control_c, 0, 67, 61
1, 726355, Control_c, 0, 67, 40
1, 726360, Note_on_c, 0, 41, 0
1, 726373, Control_c, 0, 67, 20
1, 726410, Control_c, 0, 67, 0
1, 726563, Note_on_c, 0, 72, 48
1, 726599, Note_on_c, 0, 65, 40
1, 726701, Note_on_c, 0, 68, 0
1, 726801, Note_on_c, 0, 77, 0
1, 726831, Note_on_c, 0, 65, 0
1, 726955, Note_on_c, 0, 72, 0
1, 726978, Note_on_c, 0, 56, 40
1, 726980, Note_on_c, 0, 65, 41
1, 727402, Note_on_c, 0, 60, 45
1, 727405, Note_on_c, 0, 65, 0
1, 727427, Note_on_c, 0, 53, 36
1, 727439, Note_on_c, 0, 56, 0
1, 727549, Note_on_c, 0, 60, 0
1, 727574, Note_on_c, 0, 53, 0
1, 727926, Note_on_c, 0, 70, 60
1, 727932, Note_on_c, 0, 61, 46
1, 727954, Note_on_c, 0, 42, 44
1, 728078, Control_c, 0, 64, 105
1, 728096, Control_c, 0, 64, 72
1, 728115, Control_c, 0, 64, 47
1, 728134, Control_c, 0, 64, 45
1, 728150, Control_c, 0, 64, 48
1, 728170, Control_c, 0, 64, 60
1, 728187, Control_c, 0, 64, 75
1, 728207, Control_c, 0, 64, 97
1, 728226, Control_c, 0, 64, 126
1, 728392, Note_on_c, 0, 42, 0
1, 728444, Note_on_c, 0, 73, 59
1, 728475, Note_on_c, 0, 66, 40
1, 728588, Note_on_c, 0, 61, 0
1, 728696, Note_on_c, 0, 70, 0
1, 728789, Control_c, 0, 67, 13
1, 728809, Control_c, 0, 67, 24
1, 728828, Control_c, 0, 67, 35
1, 728829, Note_on_c, 0, 73, 0
1, 728846, Control_c, 0, 67, 43
1, 728865, Control_c, 0, 67, 50
1, 728884, Note_on_c, 0, 61, 45
1, 728885, Control_c, 0, 67, 59
1, 728890, Note_on_c, 0, 66, 0
1, 728890, Note_on_c, 0, 54, 40
1, 728902, Control_c, 0, 67, 69
1, 728919, Control_c, 0, 67, 79
1, 728939, Control_c, 0, 67, 88
1, 728957, Control_c, 0, 67, 94
1, 728976, Control_c, 0, 67, 99
1, 728996, Control_c, 0, 67, 104
1, 729013, Control_c, 0, 67, 108
1, 729033, Control_c, 0, 67, 112
1, 729069, Control_c, 0, 67, 118
1, 729105, Control_c, 0, 67, 124
1, 729245, Note_on_c, 0, 54, 0
1, 729269, Note_on_c, 0, 61, 0
1, 729332, Note_on_c, 0, 63, 44
1, 729342, Note_on_c, 0, 58, 37
1, 729405, Note_on_c, 0, 63, 0
1, 729419, Note_on_c, 0, 58, 0
1, 729931, Note_on_c, 0, 77, 53
1, 729934, Note_on_c, 0, 37, 34
1, 729963, Note_on_c, 0, 68, 38
1, 730022, Control_c, 0, 64, 122
1, 730040, Control_c, 0, 64, 94
1, 730059, Control_c, 0, 64, 65
1, 730077, Control_c, 0, 64, 42
1, 730133, Control_c, 0, 64, 54
1, 730153, Control_c, 0, 64, 71
1, 730172, Control_c, 0, 64, 92
1, 730190, Control_c, 0, 64, 120
1, 730206, Control_c, 0, 64, 127
1, 730313, Note_on_c, 0, 37, 0
1, 730468, Note_on_c, 0, 73, 44
1, 730489, Note_on_c, 0, 65, 39
1, 730531, Note_on_c, 0, 77, 0
1, 730583, Note_on_c, 0, 68, 0
1, 730697, Note_on_c, 0, 65, 0
1, 730810, Note_on_c, 0, 73, 0
1, 730938, Note_on_c, 0, 65, 42
1, 730946, Note_on_c, 0, 56, 32
1, 731368, Note_on_c, 0, 65, 0
1, 731473, Note_on_c, 0, 53, 30
1, 731481, Note_on_c, 0, 61, 30
1, 731504, Note_on_c, 0, 56, 0
1, 731598, Note_on_c, 0, 61, 0
1, 731667, Note_on_c, 0, 53, 0
1, 732179, Note_on_c, 0, 73, 57
1, 732187, Note_on_c, 0, 37, 37
1, 732214, Note_on_c, 0, 64, 33
1, 732273, Control_c, 0, 64, 95
1, 732292, Control_c, 0, 64, 59
1, 732310, Control_c, 0, 64, 22
1, 732403, Control_c, 0, 64, 40
1, 732424, Control_c, 0, 64, 66
1, 732442, Control_c, 0, 64, 88
1, 732458, Control_c, 0, 64, 110
1, 732476, Control_c, 0, 64, 126
1, 732589, Control_c, 0, 67, 119
1, 732594, Note_on_c, 0, 37, 0
1, 732626, Control_c, 0, 67, 111
1, 732643, Control_c, 0, 67, 103
1, 732662, Control_c, 0, 67, 91
1, 732680, Control_c, 0, 67, 77
1, 732699, Control_c, 0, 67, 62
1, 732718, Control_c, 0, 67, 47
1, 732735, Control_c, 0, 67, 34
1, 732742, Note_on_c, 0, 76, 60
1, 732755, Control_c, 0, 67, 23
1, 732774, Note_on_c, 0, 68, 42
1, 732774, Control_c, 0, 67, 15
1, 732794, Control_c, 0, 67, 9
1, 732823, Note_on_c, 0, 64, 0
1, 732920, Note_on_c, 0, 73, 0
1, 732959, Control_c, 0, 67, 0
1, 733195, Note_on_c, 0, 76, 0
1, 733203, Note_on_c, 0, 64, 46
1, 733209, Note_on_c, 0, 56, 37
1, 733221, Note_on_c, 0, 68, 0
1, 733378, Control_c, 0, 67, 8
1, 733411, Control_c, 0, 67, 20
1, 733415, Note_on_c, 0, 56, 0
1, 733431, Control_c, 0, 67, 31
1, 733450, Control_c, 0, 67, 43
1, 733468, Control_c, 0, 67, 54
1, 733487, Control_c, 0, 67, 64
1, 733506, Control_c, 0, 67, 74
1, 733525, Control_c, 0, 67, 85
1, 733542, Control_c, 0, 67, 95
1, 733562, Control_c, 0, 67, 106
1, 733578, Control_c, 0, 67, 114
1, 733598, Control_c, 0, 67, 119
1, 733615, Control_c, 0, 67, 124
1, 733629, Note_on_c, 0, 64, 0
1, 733638, Note_on_c, 0, 68, 45
1, 733653, Note_on_c, 0, 61, 42
1, 733734, Note_on_c, 0, 68, 0
1, 733779, Note_on_c, 0, 61, 0
1, 734316, Note_on_c, 0, 83, 65
1, 734344, Note_on_c, 0, 75, 43
1, 734355, Note_on_c, 0, 47, 31
1, 734363, Note_on_c, 0, 35, 31
1, 734423, Control_c, 0, 64, 117
1, 734442, Control_c, 0, 64, 92
1, 734461, Control_c, 0, 64, 64
1, 734479, Control_c, 0, 64, 39
1, 734497, Control_c, 0, 64, 34
1, 734551, Control_c, 0, 64, 40
1, 734564, Note_on_c, 0, 35, 0
1, 734570, Control_c, 0, 64, 55
1, 734590, Control_c, 0, 64, 73
1, 734607, Control_c, 0, 64, 92
1, 734628, Control_c, 0, 64, 116
1, 734646, Control_c, 0, 64, 127
1, 734737, Note_on_c, 0, 47, 0
1, 734915, Note_on_c, 0, 78, 48
1, 734927, Note_on_c, 0, 71, 33
1, 735004, Note_on_c, 0, 75, 0
1, 735173, Control_c, 0, 67, 118
1, 735176, Note_on_c, 0, 71, 0
1, 735184, Note_on_c, 0, 83, 0
1, 735210, Control_c, 0, 67, 113
1, 735230, Control_c, 0, 67, 108
1, 735248, Control_c, 0, 67, 101
1, 735266, Control_c, 0, 67, 91
1, 735283, Control_c, 0, 67, 78
1, 735302, Control_c, 0, 67, 62
1, 735320, Control_c, 0, 67, 45
1, 735324, Note_on_c, 0, 63, 47
1, 735334, Note_on_c, 0, 78, 0
1, 735336, Note_on_c, 0, 71, 45
1, 735339, Control_c, 0, 67, 28
1, 735358, Control_c, 0, 67, 13
1, 735396, Control_c, 0, 67, 0
1, 735646, Note_on_c, 0, 71, 0
1, 735750, Note_on_c, 0, 66, 43
1, 735755, Note_on_c, 0, 63, 0
1, 735763, Note_on_c, 0, 59, 53
1, 735806, Note_on_c, 0, 66, 0
1, 735827, Note_on_c, 0, 59, 0
1, 736229, Note_on_c, 0, 71, 65
1, 736245, Note_on_c, 0, 64, 52
1, 736255, Note_on_c, 0, 52, 48
1, 736257, Note_on_c, 0, 40, 43
1, 736369, Control_c, 0, 64, 113
1, 736385, Control_c, 0, 64, 81
1, 736405, Control_c, 0, 64, 51
1, 736423, Control_c, 0, 64, 42
1, 736460, Control_c, 0, 64, 53
1, 736479, Control_c, 0, 64, 68
1, 736488, Note_on_c, 0, 40, 0
1, 736496, Control_c, 0, 64, 87
1, 736515, Control_c, 0, 64, 111
1, 736534, Control_c, 0, 64, 127
1, 736657, Note_on_c, 0, 52, 0
1, 736762, Note_on_c, 0, 76, 63
1, 736786, Note_on_c, 0, 68, 44
1, 736849, Note_on_c, 0, 64, 0
1, 737006, Note_on_c, 0, 71, 0
1, 737144, Note_on_c, 0, 76, 0
1, 737146, Note_on_c, 0, 68, 0
1, 737186, Note_on_c, 0, 64, 51
1, 737195, Note_on_c, 0, 56, 44
1, 737440, Note_on_c, 0, 56, 0
1, 737609, Note_on_c, 0, 64, 0
1, 737628, Note_on_c, 0, 68, 51
1, 737632, Note_on_c, 0, 59, 49
1, 737675, Note_on_c, 0, 68, 0
1, 737730, Note_on_c, 0, 59, 0
1, 738236, Note_on_c, 0, 83, 79
1, 738249, Note_on_c, 0, 47, 46
1, 738254, Note_on_c, 0, 35, 42
1, 738259, Note_on_c, 0, 75, 53
1, 738370, Control_c, 0, 64, 105
1, 738386, Control_c, 0, 64, 71
1, 738405, Control_c, 0, 64, 35
1, 738425, Control_c, 0, 64, 16
1, 738449, Note_on_c, 0, 35, 0
1, 738498, Control_c, 0, 64, 39
1, 738517, Control_c, 0, 64, 62
1, 738536, Control_c, 0, 64, 86
1, 738555, Control_c, 0, 64, 107
1, 738572, Control_c, 0, 64, 127
1, 738585, Note_on_c, 0, 47, 0
1, 738800, Note_on_c, 0, 78, 60
1, 738813, Note_on_c, 0, 71, 43
1, 738889, Note_on_c, 0, 75, 0
1, 739017, Note_on_c, 0, 83, 0
1, 739057, Note_on_c, 0, 71, 0
1, 739211, Note_on_c, 0, 63, 52
1, 739221, Note_on_c, 0, 71, 55
1, 739236, Note_on_c, 0, 78, 0
1, 739525, Note_on_c, 0, 71, 0
1, 739635, Note_on_c, 0, 66, 56
1, 739649, Note_on_c, 0, 59, 59
1, 739654, Note_on_c, 0, 63, 0
1, 739689, Note_on_c, 0, 66, 0
1, 739711, Note_on_c, 0, 59, 0
1, 740105, Note_on_c, 0, 40, 53
1, 740108, Note_on_c, 0, 52, 53
1, 740113, Note_on_c, 0, 71, 71
1, 740122, Note_on_c, 0, 64, 55
1, 740223, Control_c, 0, 64, 121
1, 740240, Control_c, 0, 64, 90
1, 740257, Control_c, 0, 64, 58
1, 740276, Control_c, 0, 64, 35
1, 740331, Control_c, 0, 64, 51
1, 740344, Note_on_c, 0, 40, 0
1, 740350, Control_c, 0, 64, 73
1, 740370, Control_c, 0, 64, 96
1, 740387, Control_c, 0, 64, 123
1, 740407, Control_c, 0, 64, 127
1, 740508, Note_on_c, 0, 52, 0
1, 740639, Note_on_c, 0, 76, 72
1, 740666, Note_on_c, 0, 68, 51
1, 740757, Note_on_c, 0, 71, 0
1, 740783, Note_on_c, 0, 64, 0
1, 741035, Note_on_c, 0, 56, 50
1, 741036, Note_on_c, 0, 64, 56
1, 741054, Note_on_c, 0, 76, 0
1, 741108, Note_on_c, 0, 68, 0
1, 741230, Note_on_c, 0, 56, 0
1, 741467, Note_on_c, 0, 64, 0
1, 741482, Note_on_c, 0, 68, 61
1, 741483, Note_on_c, 0, 59, 58
1, 741523, Note_on_c, 0, 68, 0
1, 741576, Note_on_c, 0, 59, 0
1, 742053, Note_on_c, 0, 35, 60
1, 742057, Note_on_c, 0, 47, 57
1, 742103, Note_on_c, 0, 83, 68
1, 742149, Note_on_c, 0, 75, 31
1, 742222, Control_c, 0, 64, 96
1, 742241, Control_c, 0, 64, 64
1, 742259, Control_c, 0, 64, 41
1, 742297, Control_c, 0, 64, 45
1, 742314, Control_c, 0, 64, 58
1, 742332, Control_c, 0, 64, 77
1, 742350, Control_c, 0, 64, 101
1, 742351, Note_on_c, 0, 35, 0
1, 742370, Control_c, 0, 64, 127
1, 742490, Note_on_c, 0, 47, 0
1, 742686, Note_on_c, 0, 78, 61
1, 742709, Note_on_c, 0, 71, 42
1, 742790, Note_on_c, 0, 75, 0
1, 742991, Note_on_c, 0, 83, 0
1, 743015, Note_on_c, 0, 71, 0
1, 743076, Note_on_c, 0, 71, 40
1, 743086, Note_on_c, 0, 63, 57
1, 743341, Note_on_c, 0, 78, 0
1, 743379, Note_on_c, 0, 71, 0
1, 743512, Note_on_c, 0, 66, 52
1, 743518, Note_on_c, 0, 59, 60
1, 743519, Note_on_c, 0, 63, 0
1, 743557, Note_on_c, 0, 66, 0
1, 743583, Note_on_c, 0, 59, 0
1, 744018, Note_on_c, 0, 35, 59
1, 744021, Note_on_c, 0, 47, 61
1, 744035, Note_on_c, 0, 81, 79
1, 744059, Note_on_c, 0, 75, 54
1, 744148, Note_on_c, 0, 35, 0
1, 744236, Note_on_c, 0, 47, 0
1, 744589, Note_on_c, 0, 78, 67
1, 744593, Note_on_c, 0, 69, 56
1, 744753, Note_on_c, 0, 75, 0
1, 744874, Note_on_c, 0, 69, 0
1, 744965, Note_on_c, 0, 81, 0
1, 744966, Note_on_c, 0, 69, 60
1, 744973, Note_on_c, 0, 63, 63
1, 745080, Note_on_c, 0, 78, 0
1, 745314, Note_on_c, 0, 69, 0
1, 745376, Note_on_c, 0, 66, 64
1, 745387, Note_on_c, 0, 59, 63
1, 745409, Note_on_c, 0, 63, 0
1, 745421, Note_on_c, 0, 66, 0
1, 745433, Note_on_c, 0, 59, 0
1, 745847, Note_on_c, 0, 36, 65
1, 745856, Note_on_c, 0, 48, 69
1, 745879, Note_on_c, 0, 81, 82
1, 745894, Note_on_c, 0, 75, 65
1, 745985, Control_c, 0, 64, 115
1, 746001, Control_c, 0, 64, 79
1, 746020, Control_c, 0, 64, 48
1, 746039, Control_c, 0, 64, 41
1, 746057, Control_c, 0, 64, 44
1, 746074, Control_c, 0, 64, 59
1, 746078, Note_on_c, 0, 36, 0
1, 746093, Control_c, 0, 64, 81
1, 746113, Control_c, 0, 64, 108
1, 746131, Control_c, 0, 64, 127
1, 746186, Note_on_c, 0, 48, 0
1, 746394, Note_on_c, 0, 78, 80
1, 746398, Note_on_c, 0, 69, 65
1, 746514, Note_on_c, 0, 75, 0
1, 746646, Note_on_c, 0, 69, 0
1, 746753, Note_on_c, 0, 81, 0
1, 746790, Note_on_c, 0, 69, 75
1, 746796, Note_on_c, 0, 63, 67
1, 747006, Note_on_c, 0, 78, 0
1, 747135, Note_on_c, 0, 69, 0
1, 747191, Note_on_c, 0, 66, 71
1, 747199, Note_on_c, 0, 60, 68
1, 747236, Note_on_c, 0, 63, 0
1, 747258, Note_on_c, 0, 66, 0
1, 747281, Note_on_c, 0, 60, 0
1, 747653, Note_on_c, 0, 36, 74
1, 747653, Note_on_c, 0, 48, 78
1, 747678, Note_on_c, 0, 80, 87
1, 747691, Note_on_c, 0, 75, 73
1, 747780, Control_c, 0, 64, 119
1, 747798, Control_c, 0, 64, 83
1, 747817, Control_c, 0, 64, 47
1, 747836, Control_c, 0, 64, 35
1, 747872, Control_c, 0, 64, 56
1, 747884, Note_on_c, 0, 36, 0
1, 747892, Control_c, 0, 64, 81
1, 747911, Control_c, 0, 64, 109
1, 747927, Control_c, 0, 64, 127
1, 748006, Note_on_c, 0, 48, 0
1, 748187, Note_on_c, 0, 78, 83
1, 748198, Note_on_c, 0, 68, 82
1, 748240, Note_on_c, 0, 80, 0
1, 748253, Note_on_c, 0, 75, 0
1, 748461, Note_on_c, 0, 68, 0
1, 748558, Note_on_c, 0, 63, 73
1, 748560, Note_on_c, 0, 68, 81
1, 748841, Note_on_c, 0, 68, 0
1, 748866, Note_on_c, 0, 78, 0
1, 748996, Note_on_c, 0, 56, 78
1, 748999, Note_on_c, 0, 66, 81
1, 749035, Note_on_c, 0, 63, 0
1, 749079, Note_on_c, 0, 66, 0
1, 749119, Note_on_c, 0, 56, 0
1, 749156, Note_on_c, 0, 72, 87
1, 749294, Note_on_c, 0, 75, 91
1, 749608, Note_on_c, 0, 32, 83
1, 749609, Note_on_c, 0, 44, 89
1, 749688, Note_on_c, 0, 82, 93
1, 749707, Control_c, 0, 64, 85
1, 749726, Control_c, 0, 64, 0
1, 749799, Control_c, 0, 64, 50
1, 749816, Note_on_c, 0, 32, 0
1, 749818, Control_c, 0, 64, 85
1, 749835, Control_c, 0, 64, 117
1, 749855, Control_c, 0, 64, 127
1, 749896, Note_on_c, 0, 44, 0
1, 750027, Note_on_c, 0, 75, 0
1, 750285, Note_on_c, 0, 80, 89
1, 750360, Note_on_c, 0, 82, 0
1, 750460, Note_on_c, 0, 72, 0
1, 750688, Note_on_c, 0, 78, 88
1, 750689, Note_on_c, 0, 70, 73
1, 750699, Note_on_c, 0, 56, 70
1, 750721, Note_on_c, 0, 73, 64
1, 750772, Note_on_c, 0, 80, 0
1, 750961, Note_on_c, 0, 70, 0
1, 750965, Note_on_c, 0, 73, 0
1, 751087, Note_on_c, 0, 77, 94
1, 751102, Note_on_c, 0, 68, 72
1, 751104, Note_on_c, 0, 72, 74
1, 751119, Note_on_c, 0, 78, 0
1, 751159, Note_on_c, 0, 56, 0
1, 751462, Note_on_c, 0, 72, 0
1, 751504, Note_on_c, 0, 56, 51
1, 751538, Note_on_c, 0, 65, 56
1, 751627, Note_on_c, 0, 74, 91
1, 751656, Note_on_c, 0, 72, 51
1, 751700, Note_on_c, 0, 68, 0
1, 751740, Note_on_c, 0, 77, 0
1, 751864, Control_c, 0, 64, 99
1, 751883, Control_c, 0, 64, 69
1, 751902, Control_c, 0, 64, 43
1, 751921, Control_c, 0, 64, 34
1, 751976, Control_c, 0, 64, 45
1, 751996, Control_c, 0, 64, 58
1, 752013, Control_c, 0, 64, 75
1, 752033, Control_c, 0, 64, 91
1, 752049, Control_c, 0, 64, 110
1, 752069, Control_c, 0, 64, 124
1, 752175, Note_on_c, 0, 75, 82
1, 752192, Note_on_c, 0, 66, 56
1, 752231, Note_on_c, 0, 74, 0
1, 752253, Note_on_c, 0, 65, 0
1, 752692, Note_on_c, 0, 65, 63
1, 752737, Note_on_c, 0, 66, 0
1, 752795, Note_on_c, 0, 74, 85
1, 752829, Note_on_c, 0, 75, 0
1, 752956, Note_on_c, 0, 75, 87
1, 752964, Note_on_c, 0, 66, 76
1, 752967, Note_on_c, 0, 65, 0
1, 753000, Note_on_c, 0, 74, 0
1, 753083, Note_on_c, 0, 68, 82
1, 753084, Note_on_c, 0, 77, 90
1, 753112, Note_on_c, 0, 75, 0
1, 753119, Note_on_c, 0, 66, 0
1, 753153, Control_c, 0, 64, 113
1, 753170, Control_c, 0, 64, 102
1, 753189, Control_c, 0, 64, 89
1, 753208, Control_c, 0, 64, 76
1, 753227, Control_c, 0, 64, 70
1, 753232, Note_on_c, 0, 75, 82
1, 753263, Note_on_c, 0, 66, 65
1, 753263, Control_c, 0, 64, 68
1, 753283, Control_c, 0, 64, 67
1, 753298, Note_on_c, 0, 77, 0
1, 753301, Control_c, 0, 64, 63
1, 753320, Control_c, 0, 64, 58
1, 753339, Control_c, 0, 64, 54
1, 753356, Control_c, 0, 64, 52
1, 753374, Control_c, 0, 64, 50
1, 753385, Note_on_c, 0, 68, 0
1, 753393, Control_c, 0, 64, 47
1, 753412, Control_c, 0, 64, 44
1, 753430, Control_c, 0, 64, 39
1, 753449, Control_c, 0, 64, 33
1, 753468, Control_c, 0, 64, 29
1, 753505, Control_c, 0, 64, 22
1, 753560, Control_c, 0, 64, 17
1, 753922, Control_c, 0, 64, 22
1, 753939, Control_c, 0, 64, 27
1, 753958, Control_c, 0, 64, 32
1, 753976, Control_c, 0, 64, 36
1, 753996, Control_c, 0, 64, 41
1, 754014, Control_c, 0, 64, 54
1, 754033, Control_c, 0, 64, 69
1, 754052, Control_c, 0, 64, 76
1, 754070, Control_c, 0, 64, 83
1, 754089, Control_c, 0, 64, 93
1, 754105, Control_c, 0, 64, 105
1, 754125, Control_c, 0, 64, 117
1, 754143, Control_c, 0, 64, 125
1, 754401, Note_on_c, 0, 56, 0
1, 755269, Note_on_c, 0, 72, 0
1, 755627, Note_on_c, 0, 73, 80
1, 755964, Note_on_c, 0, 73, 0
1, 756168, Note_on_c, 0, 37, 52
1, 756173, Note_on_c, 0, 66, 0
1, 756263, Note_on_c, 0, 73, 85
1, 756288, Note_on_c, 0, 65, 56
1, 756385, Control_c, 0, 64, 100
1, 756403, Control_c, 0, 64, 66
1, 756406, Note_on_c, 0, 75, 0
1, 756422, Control_c, 0, 64, 44
1, 756459, Control_c, 0, 64, 56
1, 756487, Control_c, 0, 64, 69
1, 756507, Control_c, 0, 64, 87
1, 756525, Control_c, 0, 64, 112
1, 756542, Control_c, 0, 64, 127
1, 756607, Note_on_c, 0, 49, 61
1, 756661, Note_on_c, 0, 37, 0
1, 756715, Note_on_c, 0, 78, 84
1, 756730, Note_on_c, 0, 70, 62
1, 756761, Note_on_c, 0, 65, 0
1, 756767, Note_on_c, 0, 76, 39
1, 756818, Note_on_c, 0, 73, 0
1, 756821, Note_on_c, 0, 76, 0
1, 756852, Note_on_c, 0, 51, 69
1, 756911, Note_on_c, 0, 49, 0
1, 757011, Note_on_c, 0, 78, 0
1, 757045, Note_on_c, 0, 70, 0
1, 757172, Note_on_c, 0, 49, 65
1, 757278, Note_on_c, 0, 51, 0
1, 757286, Note_on_c, 0, 78, 86
1, 757313, Note_on_c, 0, 70, 55
1, 757424, Control_c, 0, 64, 121
1, 757442, Control_c, 0, 64, 88
1, 757461, Control_c, 0, 64, 50
1, 757478, Control_c, 0, 64, 13
1, 757496, Control_c, 0, 64, 9
1, 757533, Control_c, 0, 64, 13
1, 757553, Control_c, 0, 64, 37
1, 757570, Control_c, 0, 64, 60
1, 757589, Note_on_c, 0, 61, 59
1, 757591, Control_c, 0, 64, 86
1, 757607, Control_c, 0, 64, 110
1, 757627, Control_c, 0, 64, 127
1, 757669, Note_on_c, 0, 49, 0
1, 757811, Note_on_c, 0, 49, 65
1, 757905, Note_on_c, 0, 61, 0
1, 758054, Note_on_c, 0, 51, 68
1, 758098, Note_on_c, 0, 70, 0
1, 758110, Note_on_c, 0, 49, 0
1, 758348, Note_on_c, 0, 49, 72
1, 758413, Note_on_c, 0, 51, 0
1, 758433, Note_on_c, 0, 77, 81
1, 758446, Note_on_c, 0, 68, 65
1, 758498, Note_on_c, 0, 49, 0
1, 758522, Note_on_c, 0, 78, 0
1, 758579, Note_on_c, 0, 49, 70
1, 758681, Note_on_c, 0, 77, 0
1, 758694, Note_on_c, 0, 68, 0
1, 758940, Note_on_c, 0, 37, 51
1, 758999, Note_on_c, 0, 77, 83
1, 759015, Note_on_c, 0, 70, 62
1, 759022, Note_on_c, 0, 68, 61
1, 759081, Control_c, 0, 64, 111
1, 759099, Control_c, 0, 64, 74
1, 759117, Control_c, 0, 64, 37
1, 759133, Note_on_c, 0, 49, 0
1, 759134, Control_c, 0, 64, 26
1, 759173, Control_c, 0, 64, 35
1, 759192, Control_c, 0, 64, 52
1, 759210, Control_c, 0, 64, 71
1, 759230, Control_c, 0, 64, 91
1, 759248, Control_c, 0, 64, 116
1, 759266, Control_c, 0, 64, 127
1, 759338, Note_on_c, 0, 37, 0
1, 759364, Note_on_c, 0, 68, 0
1, 759420, Note_on_c, 0, 49, 43
1, 759529, Note_on_c, 0, 75, 63
1, 759543, Note_on_c, 0, 67, 51
1, 759595, Note_on_c, 0, 70, 0
1, 759674, Note_on_c, 0, 49, 0
1, 759678, Note_on_c, 0, 51, 48
1, 759716, Note_on_c, 0, 67, 0
1, 759734, Note_on_c, 0, 77, 0
1, 759736, Note_on_c, 0, 75, 0
1, 759979, Note_on_c, 0, 49, 44
1, 759983, Note_on_c, 0, 75, 63
1, 759996, Note_on_c, 0, 70, 42
1, 759998, Note_on_c, 0, 67, 50
1, 760090, Control_c, 0, 64, 112
1, 760097, Note_on_c, 0, 51, 0
1, 760109, Control_c, 0, 64, 79
1, 760128, Control_c, 0, 64, 50
1, 760146, Control_c, 0, 64, 47
1, 760164, Control_c, 0, 64, 51
1, 760184, Control_c, 0, 64, 60
1, 760202, Control_c, 0, 64, 71
1, 760229, Control_c, 0, 64, 86
1, 760246, Control_c, 0, 64, 106
1, 760264, Note_on_c, 0, 61, 54
1, 760266, Control_c, 0, 64, 127
1, 760314, Note_on_c, 0, 49, 0
1, 760479, Note_on_c, 0, 49, 50
1, 760579, Note_on_c, 0, 61, 0
1, 760596, Note_on_c, 0, 67, 0
1, 760664, Note_on_c, 0, 75, 0
1, 760751, Note_on_c, 0, 51, 58
1, 760802, Note_on_c, 0, 49, 0
1, 760897, Note_on_c, 0, 70, 0
1, 761050, Note_on_c, 0, 49, 65
1, 761107, Note_on_c, 0, 51, 0
1, 761113, Note_on_c, 0, 75, 85
1, 761128, Note_on_c, 0, 67, 67
1, 761137, Note_on_c, 0, 70, 64
1, 761178, Note_on_c, 0, 49, 0
1, 761204, Note_on_c, 0, 67, 0
1, 761212, Note_on_c, 0, 70, 0
1, 761265, Note_on_c, 0, 49, 76
1, 761333, Note_on_c, 0, 75, 0
1, 761467, Note_on_c, 0, 37, 76
1, 761497, Control_c, 0, 64, 111
1, 761499, Note_on_c, 0, 75, 84
1, 761517, Control_c, 0, 64, 69
1, 761520, Note_on_c, 0, 66, 66
1, 761535, Control_c, 0, 64, 36
1, 761541, Note_on_c, 0, 72, 43
1, 761558, Poly_aftertouch_c, 0, 40, 0
1, 761573, Control_c, 0, 64, 45
1, 761591, Control_c, 0, 64, 62
1, 761604, Note_on_c, 0, 49, 0
1, 761611, Control_c, 0, 64, 84
1, 761628, Control_c, 0, 64, 112
1, 761647, Control_c, 0, 64, 127
1, 761658, Note_on_c, 0, 66, 0
1, 761726, Note_on_c, 0, 49, 75
1, 761733, Note_on_c, 0, 72, 0
1, 761749, Note_on_c, 0, 37, 0
1, 761790, Note_on_c, 0, 82, 94
1, 761863, Note_on_c, 0, 82, 0
1, 761907, Note_on_c, 0, 51, 73
1, 761939, Note_on_c, 0, 66, 69
1, 761945, Note_on_c, 0, 49, 0
1, 761946, Note_on_c, 0, 75, 0
1, 762015, Note_on_c, 0, 72, 72
1, 762030, Note_on_c, 0, 66, 0
1, 762101, Note_on_c, 0, 75, 68
1, 762136, Poly_aftertouch_c, 0, 78, 0
1, 762204, Note_on_c, 0, 49, 67
1, 762327, Note_on_c, 0, 82, 89
1, 762485, Note_on_c, 0, 51, 0
1, 762526, Control_c, 0, 64, 96
1, 762546, Control_c, 0, 64, 59
1, 762561, Note_on_c, 0, 61, 71
1, 762565, Control_c, 0, 64, 37
1, 762601, Control_c, 0, 64, 46
1, 762619, Control_c, 0, 64, 62
1, 762638, Control_c, 0, 64, 83
1, 762653, Note_on_c, 0, 49, 0
1, 762655, Control_c, 0, 64, 112
1, 762673, Control_c, 0, 64, 127
1, 762773, Note_on_c, 0, 49, 69
1, 762893, Note_on_c, 0, 82, 0
1, 762940, Note_on_c, 0, 61, 0
1, 762977, Note_on_c, 0, 51, 75
1, 762996, Note_on_c, 0, 60, 14
1, 763028, Note_on_c, 0, 60, 0
1, 763056, Note_on_c, 0, 49, 0
1, 763105, Note_on_c, 0, 72, 0
1, 763203, Note_on_c, 0, 49, 67
1, 763233, Note_on_c, 0, 65, 72
1, 763268, Note_on_c, 0, 73, 71
1, 763301, Note_on_c, 0, 51, 0
1, 763323, Note_on_c, 0, 80, 88
1, 763331, Note_on_c, 0, 65, 0
1, 763367, Note_on_c, 0, 75, 0
1, 763371, Note_on_c, 0, 49, 0
1, 763404, Note_on_c, 0, 73, 0
1, 763440, Note_on_c, 0, 49, 69
1, 763493, Note_on_c, 0, 65, 66
1, 763548, Note_on_c, 0, 80, 0
1, 763569, Note_on_c, 0, 70, 73
1, 763577, Poly_aftertouch_c, 0, 78, 0
1, 763600, Note_on_c, 0, 73, 64
1, 763738, Note_on_c, 0, 37, 78
1, 763854, Note_on_c, 0, 80, 89
1, 763870, Control_c, 0, 64, 109
1, 763888, Control_c, 0, 64, 64
1, 763896, Note_on_c, 0, 49, 0
1, 763907, Control_c, 0, 64, 0
1, 763973, Control_c, 0, 64, 23
1, 763992, Control_c, 0, 64, 53
1, 764010, Control_c, 0, 64, 87
1, 764027, Control_c, 0, 64, 124
1, 764141, Note_on_c, 0, 80, 0
1, 764159, Note_on_c, 0, 49, 57
1, 764178, Note_on_c, 0, 37, 0
1, 764245, Note_on_c, 0, 79, 81
1, 764272, Note_on_c, 0, 65, 0
1, 764288, Note_on_c, 0, 70, 0
1, 764340, Note_on_c, 0, 79, 0
1, 764375, Note_on_c, 0, 51, 66
1, 764384, Note_on_c, 0, 73, 0
1, 764412, Note_on_c, 0, 49, 0
1, 764445, Note_on_c, 0, 63, 64
1, 764501, Note_on_c, 0, 63, 0
1, 764514, Note_on_c, 0, 70, 49
1, 764556, Note_on_c, 0, 73, 50
1, 764631, Note_on_c, 0, 49, 54
1, 764654, Note_on_c, 0, 79, 73
1, 764767, Control_c, 0, 64, 115
1, 764787, Control_c, 0, 64, 77
1, 764806, Control_c, 0, 64, 51
1, 764823, Control_c, 0, 64, 54
1, 764843, Control_c, 0, 64, 63
1, 764861, Control_c, 0, 64, 74
1, 764880, Control_c, 0, 64, 91
1, 764886, Note_on_c, 0, 61, 69
1, 764908, Control_c, 0, 64, 120
1, 764925, Control_c, 0, 64, 127
1, 764976, Note_on_c, 0, 51, 0
1, 764993, Note_on_c, 0, 49, 0
1, 765123, Note_on_c, 0, 49, 67
1, 765247, Note_on_c, 0, 61, 0
1, 765390, Note_on_c, 0, 51, 69
1, 765457, Note_on_c, 0, 49, 0
1, 765520, Note_on_c, 0, 79, 0
1, 765657, Note_on_c, 0, 49, 76
1, 765737, Note_on_c, 0, 79, 88
1, 765759, Note_on_c, 0, 51, 0
1, 765780, Note_on_c, 0, 49, 0
1, 765881, Note_on_c, 0, 49, 84
1, 765894, Note_on_c, 0, 79, 0
1, 765918, Note_on_c, 0, 70, 0
1, 765991, Note_on_c, 0, 73, 0
1, 765992, Poly_aftertouch_c, 0, 73, 0
1, 766024, Note_on_c, 0, 63, 68
1, 766065, Note_on_c, 0, 70, 60
1, 766114, Note_on_c, 0, 73, 60
1, 766150, Note_on_c, 0, 63, 0
1, 766231, Note_on_c, 0, 39, 82
1, 766251, Note_on_c, 0, 49, 0
1, 766350, Note_on_c, 0, 79, 86
1, 766376, Note_on_c, 0, 73, 0
1, 766400, Control_c, 0, 64, 91
1, 766412, Note_on_c, 0, 70, 0
1, 766417, Control_c, 0, 64, 51
1, 766436, Control_c, 0, 64, 34
1, 766473, Control_c, 0, 64, 50
1, 766491, Control_c, 0, 64, 72
1, 766510, Control_c, 0, 64, 99
1, 766529, Control_c, 0, 64, 127
1, 766622, Note_on_c, 0, 51, 68
1, 766673, Poly_aftertouch_c, 0, 42, 0
1, 766695, Note_on_c, 0, 80, 84
1, 766726, Note_on_c, 0, 39, 0
1, 766727, Note_on_c, 0, 79, 0
1, 766891, Note_on_c, 0, 82, 90
1, 766900, Note_on_c, 0, 53, 78
1, 766924, Note_on_c, 0, 80, 0
1, 766947, Note_on_c, 0, 82, 0
1, 767072, Note_on_c, 0, 51, 0
1, 767090, Note_on_c, 0, 63, 67
1, 767178, Note_on_c, 0, 68, 66
1, 767198, Note_on_c, 0, 44, 77
1, 767385, Note_on_c, 0, 72, 82
1, 767391, Note_on_c, 0, 53, 0
1, 767485, Control_c, 0, 64, 98
1, 767501, Control_c, 0, 64, 62
1, 767519, Control_c, 0, 64, 25
1, 767538, Control_c, 0, 64, 10
1, 767612, Control_c, 0, 64, 32
1, 767631, Control_c, 0, 64, 56
1, 767642, Note_on_c, 0, 51, 55
1, 767649, Control_c, 0, 64, 82
1, 767669, Control_c, 0, 64, 103
1, 767687, Control_c, 0, 64, 126
1, 767871, Note_on_c, 0, 53, 58
1, 767945, Note_on_c, 0, 51, 0
1, 767958, Note_on_c, 0, 63, 0
1, 768094, Note_on_c, 0, 51, 65
1, 768189, Note_on_c, 0, 53, 0
1, 768312, Note_on_c, 0, 68, 0
1, 768322, Note_on_c, 0, 53, 76
1, 768347, Note_on_c, 0, 51, 0
1, 768413, Note_on_c, 0, 80, 89
1, 768434, Note_on_c, 0, 72, 0
1, 768452, Note_on_c, 0, 44, 0
1, 768475, Note_on_c, 0, 80, 0
1, 768486, Note_on_c, 0, 51, 80
1, 768548, Note_on_c, 0, 53, 0
1, 768611, Note_on_c, 0, 63, 64
1, 768666, Note_on_c, 0, 70, 66
1, 768682, Note_on_c, 0, 63, 0
1, 768701, Note_on_c, 0, 73, 63
1, 768743, Note_on_c, 0, 39, 77
1, 768779, Note_on_c, 0, 79, 82
1, 768798, Control_c, 0, 64, 89
1, 768815, Note_on_c, 0, 51, 0
1, 768816, Control_c, 0, 64, 47
1, 768819, Note_on_c, 0, 76, 9
1, 768822, Note_on_c, 0, 73, 0
1, 768833, Control_c, 0, 64, 0
1, 768848, Note_on_c, 0, 70, 0
1, 768860, Note_on_c, 0, 76, 0
1, 768871, Control_c, 0, 64, 26
1, 768890, Control_c, 0, 64, 61
1, 768908, Control_c, 0, 64, 94
1, 768927, Control_c, 0, 64, 127
1, 768984, Note_on_c, 0, 51, 68
1, 769041, Note_on_c, 0, 80, 85
1, 769073, Note_on_c, 0, 79, 0
1, 769098, Note_on_c, 0, 39, 0
1, 769211, Note_on_c, 0, 82, 89
1, 769221, Note_on_c, 0, 53, 75
1, 769242, Note_on_c, 0, 80, 0
1, 769261, Note_on_c, 0, 82, 0
1, 769385, Note_on_c, 0, 63, 76
1, 769432, Note_on_c, 0, 44, 64
1, 769483, Note_on_c, 0, 68, 70
1, 769543, Poly_aftertouch_c, 0, 75, 0
1, 769550, Note_on_c, 0, 53, 0
1, 769623, Note_on_c, 0, 72, 83
1, 769660, Note_on_c, 0, 51, 0
1, 769696, Control_c, 0, 64, 110
1, 769716, Control_c, 0, 64, 73
1, 769735, Control_c, 0, 64, 35
1, 769752, Control_c, 0, 64, 0
1, 769826, Control_c, 0, 64, 31
1, 769844, Control_c, 0, 64, 55
1, 769864, Control_c, 0, 64, 82
1, 769867, Note_on_c, 0, 51, 64
1, 769883, Control_c, 0, 64, 106
1, 769900, Control_c, 0, 64, 127
1, 770076, Note_on_c, 0, 53, 66
1, 770149, Note_on_c, 0, 51, 0
1, 770186, Note_on_c, 0, 63, 0
1, 770335, Note_on_c, 0, 51, 59
1, 770465, Note_on_c, 0, 53, 0
1, 770520, Note_on_c, 0, 68, 0
1, 770612, Note_on_c, 0, 53, 59
1, 770679, Note_on_c, 0, 51, 0
1, 770712, Note_on_c, 0, 80, 76
1, 770780, Note_on_c, 0, 72, 0
1, 770803, Note_on_c, 0, 80, 0
1, 770846, Note_on_c, 0, 44, 0
1, 770866, Note_on_c, 0, 51, 60
1, 770872, Control_c, 0, 67, 10
1, 770886, Poly_aftertouch_c, 0, 76, 0
1, 770916, Note_on_c, 0, 53, 0
1, 771034, Note_on_c, 0, 63, 42
1, 771044, Note_on_c, 0, 70, 42
1, 771073, Note_on_c, 0, 73, 44
1, 771229, Note_on_c, 0, 39, 52
1, 771280, Control_c, 0, 67, 15
1, 771298, Control_c, 0, 67, 19
1, 771317, Control_c, 0, 67, 23
1, 771348, Note_on_c, 0, 63, 0
1, 771353, Note_on_c, 0, 78, 65
1, 771355, Control_c, 0, 67, 29
1, 771392, Control_c, 0, 64, 101
1, 771393, Control_c, 0, 67, 34
1, 771407, Note_on_c, 0, 73, 0
1, 771410, Control_c, 0, 64, 68
1, 771423, Note_on_c, 0, 51, 0
1, 771427, Control_c, 0, 64, 48
1, 771450, Note_on_c, 0, 70, 0
1, 771474, Control_c, 0, 64, 59
1, 771493, Control_c, 0, 64, 72
1, 771513, Control_c, 0, 64, 91
1, 771530, Control_c, 0, 64, 118
1, 771550, Control_c, 0, 64, 127
1, 771686, Note_on_c, 0, 51, 37
1, 771752, Note_on_c, 0, 39, 0
1, 771778, Note_on_c, 0, 80, 61
1, 771826, Note_on_c, 0, 78, 0
1, 771901, Control_c, 0, 67, 38
1, 771957, Control_c, 0, 67, 42
1, 771975, Control_c, 0, 67, 46
1, 771994, Control_c, 0, 67, 51
1, 772021, Note_on_c, 0, 53, 46
1, 772029, Control_c, 0, 67, 56
1, 772040, Note_on_c, 0, 82, 64
1, 772066, Note_on_c, 0, 80, 0
1, 772108, Note_on_c, 0, 82, 0
1, 772235, Control_c, 0, 67, 60
1, 772332, Note_on_c, 0, 44, 49
1, 772364, Control_c, 0, 67, 64
1, 772392, Control_c, 0, 67, 69
1, 772409, Control_c, 0, 67, 73
1, 772419, Note_on_c, 0, 51, 0
1, 772420, Note_on_c, 0, 63, 29
1, 772428, Control_c, 0, 67, 77
1, 772474, Note_on_c, 0, 68, 54
1, 772485, Control_c, 0, 67, 83
1, 772500, Note_on_c, 0, 53, 0
1, 772522, Control_c, 0, 67, 88
1, 772560, Control_c, 0, 67, 94
1, 772595, Control_c, 0, 67, 99
1, 772651, Control_c, 0, 67, 104
1, 772662, Note_on_c, 0, 72, 62
1, 772689, Control_c, 0, 67, 110
1, 772726, Control_c, 0, 67, 115
1, 772763, Control_c, 0, 67, 120
1, 772779, Control_c, 0, 67, 124
1, 772817, Control_c, 0, 64, 110
1, 772837, Control_c, 0, 64, 86
1, 772854, Control_c, 0, 64, 60
1, 772875, Control_c, 0, 64, 41
1, 772893, Control_c, 0, 64, 35
1, 772964, Control_c, 0, 64, 47
1, 772977, Note_on_c, 0, 51, 32
1, 772984, Control_c, 0, 64, 65
1, 773002, Control_c, 0, 64, 83
1, 773022, Control_c, 0, 64, 100
1, 773041, Control_c, 0, 64, 114
1, 773059, Control_c, 0, 64, 124
1, 773219, Note_on_c, 0, 53, 37
1, 773321, Note_on_c, 0, 51, 0
1, 773455, Note_on_c, 0, 68, 0
1, 773479, Note_on_c, 0, 51, 33
1, 773568, Note_on_c, 0, 53, 0
1, 773756, Note_on_c, 0, 53, 32
1, 773832, Note_on_c, 0, 51, 0
1, 773881, Note_on_c, 0, 75, 69
1, 773982, Note_on_c, 0, 72, 0
1, 774008, Note_on_c, 0, 44, 0
1, 774022, Note_on_c, 0, 53, 0
1, 774057, Note_on_c, 0, 51, 38
1, 774093, Note_on_c, 0, 63, 0
1, 774127, Note_on_c, 0, 51, 0
1, 774221, Note_on_c, 0, 75, 0
1, 774308, Note_on_c, 0, 60, 37
1, 774360, Note_on_c, 0, 66, 45
1, 774364, Note_on_c, 0, 37, 47
1, 774435, Note_on_c, 0, 68, 45
1, 774583, Note_on_c, 0, 75, 74
1, 774597, Control_c, 0, 64, 113
1, 774616, Control_c, 0, 64, 81
1, 774633, Control_c, 0, 64, 57
1, 774670, Control_c, 0, 64, 61
1, 774689, Control_c, 0, 64, 70
1, 774708, Control_c, 0, 64, 82
1, 774726, Control_c, 0, 64, 103
1, 774744, Control_c, 0, 64, 126
1, 774777, Note_on_c, 0, 68, 0
1, 774791, Note_on_c, 0, 60, 0
1, 774835, Note_on_c, 0, 66, 0
1, 774871, Note_on_c, 0, 37, 0
1, 774881, Note_on_c, 0, 49, 42
1, 775122, Note_on_c, 0, 51, 45
1, 775139, Note_on_c, 0, 61, 49
1, 775151, Note_on_c, 0, 49, 0
1, 775152, Note_on_c, 0, 75, 0
1, 775183, Note_on_c, 0, 61, 0
1, 775235, Note_on_c, 0, 68, 46
1, 775274, Note_on_c, 0, 73, 52
1, 775397, Note_on_c, 0, 77, 80
1, 775416, Note_on_c, 0, 49, 47
1, 775440, Control_c, 0, 64, 100
1, 775458, Control_c, 0, 64, 76
1, 775476, Control_c, 0, 64, 73
1, 775479, Note_on_c, 0, 51, 0
1, 775496, Control_c, 0, 64, 80
1, 775514, Control_c, 0, 64, 92
1, 775533, Control_c, 0, 64, 113
1, 775552, Control_c, 0, 64, 127
1, 775700, Note_on_c, 0, 73, 0
1, 775708, Note_on_c, 0, 61, 51
1, 775715, Note_on_c, 0, 49, 0
1, 775804, Note_on_c, 0, 77, 0
1, 775810, Note_on_c, 0, 68, 0
1, 775845, Note_on_c, 0, 61, 0
1, 775917, Note_on_c, 0, 49, 44
1, 775935, Note_on_c, 0, 63, 44
1, 775976, Note_on_c, 0, 68, 42
1, 776037, Note_on_c, 0, 72, 47
1, 776255, Note_on_c, 0, 51, 40
1, 776257, Note_on_c, 0, 78, 69
1, 776263, Control_c, 0, 64, 105
1, 776286, Control_c, 0, 64, 74
1, 776290, Note_on_c, 0, 49, 0
1, 776303, Control_c, 0, 64, 51
1, 776338, Control_c, 0, 64, 56
1, 776356, Control_c, 0, 64, 67
1, 776375, Control_c, 0, 64, 79
1, 776381, Note_on_c, 0, 72, 0
1, 776393, Control_c, 0, 64, 97
1, 776412, Control_c, 0, 64, 120
1, 776431, Control_c, 0, 64, 127
1, 776516, Note_on_c, 0, 63, 0
1, 776545, Note_on_c, 0, 78, 0
1, 776548, Note_on_c, 0, 49, 36
1, 776571, Note_on_c, 0, 68, 0
1, 776587, Note_on_c, 0, 51, 0
1, 776639, Note_on_c, 0, 49, 0
1, 776799, Note_on_c, 0, 49, 32
1, 776806, Note_on_c, 0, 61, 46
1, 776863, Note_on_c, 0, 61, 0
1, 776903, Note_on_c, 0, 68, 31
1, 776937, Note_on_c, 0, 73, 46
1, 777149, Note_on_c, 0, 37, 35
1, 777240, Note_on_c, 0, 49, 0
1, 777269, Note_on_c, 0, 77, 70
1, 777386, Control_c, 0, 64, 96
1, 777404, Control_c, 0, 64, 60
1, 777423, Control_c, 0, 64, 23
1, 777439, Control_c, 0, 64, 15
1, 777515, Control_c, 0, 64, 33
1, 777532, Control_c, 0, 64, 56
1, 777543, Note_on_c, 0, 49, 34
1, 777547, Note_on_c, 0, 37, 0
1, 777551, Control_c, 0, 64, 82
1, 777572, Control_c, 0, 64, 105
1, 777590, Control_c, 0, 64, 127
1, 777794, Note_on_c, 0, 51, 35
1, 777810, Note_on_c, 0, 49, 0
1, 778042, Control_c, 0, 64, 109
1, 778054, Note_on_c, 0, 49, 38
1, 778059, Control_c, 0, 64, 74
1, 778080, Control_c, 0, 64, 41
1, 778098, Control_c, 0, 64, 33
1, 778106, Note_on_c, 0, 51, 0
1, 778135, Control_c, 0, 64, 41
1, 778154, Control_c, 0, 64, 55
1, 778174, Control_c, 0, 64, 68
1, 778191, Control_c, 0, 64, 84
1, 778209, Control_c, 0, 64, 104
1, 778228, Control_c, 0, 64, 124
1, 778332, Note_on_c, 0, 61, 35
1, 778337, Note_on_c, 0, 49, 0
1, 778579, Note_on_c, 0, 49, 37
1, 778589, Note_on_c, 0, 61, 0
1, 778594, Note_on_c, 0, 77, 0
1, 778803, Note_on_c, 0, 49, 0
1, 778846, Note_on_c, 0, 51, 38
1, 779132, Note_on_c, 0, 49, 35
1, 779145, Note_on_c, 0, 51, 0
1, 779150, Note_on_c, 0, 68, 0
1, 779255, Note_on_c, 0, 49, 0
1, 779399, Note_on_c, 0, 49, 30
1, 779430, Note_on_c, 0, 73, 0
1, 779492, Note_on_c, 0, 60, 39
1, 779538, Note_on_c, 0, 66, 39
1, 779640, Note_on_c, 0, 68, 33
1, 779777, Note_on_c, 0, 37, 41
1, 779916, Note_on_c, 0, 49, 0
1, 779937, Note_on_c, 0, 75, 58
1, 779950, Control_c, 0, 64, 120
1, 779970, Control_c, 0, 64, 92
1, 779988, Control_c, 0, 64, 69
1, 780004, Control_c, 0, 64, 64
1, 780023, Control_c, 0, 64, 68
1, 780042, Control_c, 0, 64, 74
1, 780062, Control_c, 0, 64, 83
1, 780079, Control_c, 0, 64, 101
1, 780099, Control_c, 0, 64, 122
1, 780105, Note_on_c, 0, 60, 0
1, 780118, Control_c, 0, 64, 127
1, 780136, Note_on_c, 0, 66, 0
1, 780137, Note_on_c, 0, 68, 0
1, 780190, Note_on_c, 0, 37, 0
1, 780229, Note_on_c, 0, 49, 33
1, 780473, Note_on_c, 0, 51, 31
1, 780496, Note_on_c, 0, 75, 0
1, 780500, Note_on_c, 0, 49, 0
1, 780561, Note_on_c, 0, 61, 34
1, 780593, Note_on_c, 0, 68, 34
1, 780621, Note_on_c, 0, 73, 43
1, 780811, Control_c, 0, 64, 122
1, 780823, Note_on_c, 0, 49, 30
1, 780828, Note_on_c, 0, 76, 60
1, 780830, Control_c, 0, 64, 93
1, 780851, Control_c, 0, 64, 66
1, 780867, Control_c, 0, 64, 56
1, 780875, Note_on_c, 0, 51, 0
1, 780890, Note_on_c, 0, 61, 0
1, 780905, Control_c, 0, 64, 65
1, 780924, Control_c, 0, 64, 74
1, 780943, Control_c, 0, 64, 87
1, 780961, Control_c, 0, 64, 107
1, 780980, Control_c, 0, 64, 127
1, 781052, Note_on_c, 0, 73, 0
1, 781127, Note_on_c, 0, 61, 36
1, 781136, Note_on_c, 0, 49, 0
1, 781222, Note_on_c, 0, 68, 0
1, 781329, Note_on_c, 0, 49, 31
1, 781330, Note_on_c, 0, 76, 0
1, 781336, Note_on_c, 0, 61, 0
1, 781403, Note_on_c, 0, 63, 34
1, 781481, Note_on_c, 0, 68, 39
1, 781496, Note_on_c, 0, 72, 36
1, 781634, Note_on_c, 0, 78, 55
1, 781668, Note_on_c, 0, 51, 33
1, 781671, Note_on_c, 0, 49, 0
1, 781703, Control_c, 0, 64, 107
1, 781720, Control_c, 0, 64, 78
1, 781747, Control_c, 0, 64, 61
1, 781785, Control_c, 0, 64, 68
1, 781803, Control_c, 0, 64, 78
1, 781824, Control_c, 0, 64, 93
1, 781841, Control_c, 0, 64, 115
1, 781859, Control_c, 0, 64, 127
1, 781950, Note_on_c, 0, 49, 40
1, 781956, Note_on_c, 0, 78, 0
1, 781972, Note_on_c, 0, 51, 0
1, 782038, Note_on_c, 0, 49, 0
1, 782114, Note_on_c, 0, 72, 0
1, 782129, Note_on_c, 0, 63, 0
1, 782135, Note_on_c, 0, 68, 0
1, 782212, Note_on_c, 0, 49, 20
1, 782322, Note_on_c, 0, 61, 35
1, 782363, Note_on_c, 0, 68, 7
1, 782402, Note_on_c, 0, 73, 39
1, 782483, Note_on_c, 0, 37, 40
1, 782656, Note_on_c, 0, 49, 0
1, 782661, Note_on_c, 0, 76, 58
1, 782721, Control_c, 0, 64, 98
1, 782739, Control_c, 0, 64, 68
1, 782757, Control_c, 0, 64, 53
1, 782797, Control_c, 0, 64, 63
1, 782813, Control_c, 0, 64, 74
1, 782833, Control_c, 0, 64, 93
1, 782852, Control_c, 0, 64, 119
1, 782868, Control_c, 0, 64, 127
1, 782915, Note_on_c, 0, 37, 0
1, 782931, Note_on_c, 0, 49, 38
1, 783186, Note_on_c, 0, 51, 32
1, 783196, Note_on_c, 0, 49, 0
1, 783462, Note_on_c, 0, 49, 34
1, 783466, Note_on_c, 0, 61, 0
1, 783480, Control_c, 0, 64, 106
1, 783499, Control_c, 0, 64, 76
1, 783513, Note_on_c, 0, 51, 0
1, 783516, Control_c, 0, 64, 50
1, 783536, Control_c, 0, 64, 43
1, 783573, Control_c, 0, 64, 51
1, 783592, Control_c, 0, 64, 63
1, 783618, Control_c, 0, 64, 80
1, 783637, Control_c, 0, 64, 102
1, 783656, Control_c, 0, 64, 127
1, 783739, Note_on_c, 0, 61, 39
1, 783763, Note_on_c, 0, 49, 0
1, 783996, Note_on_c, 0, 49, 25
1, 784050, Note_on_c, 0, 61, 0
1, 784262, Note_on_c, 0, 51, 35
1, 784284, Note_on_c, 0, 49, 0
1, 784293, Note_on_c, 0, 68, 0
1, 784450, Note_on_c, 0, 73, 0
1, 784564, Note_on_c, 0, 49, 34
1, 784575, Note_on_c, 0, 51, 0
1, 784664, Note_on_c, 0, 49, 0
1, 784838, Note_on_c, 0, 49, 29
1, 785160, Note_on_c, 0, 37, 39
1, 785228, Note_on_c, 0, 64, 55
1, 785316, Control_c, 0, 64, 118
1, 785325, Note_on_c, 0, 68, 44
1, 785332, Control_c, 0, 64, 90
1, 785340, Note_on_c, 0, 49, 0
1, 785352, Control_c, 0, 64, 65
1, 785370, Control_c, 0, 64, 62
1, 785388, Control_c, 0, 64, 67
1, 785407, Control_c, 0, 64, 75
1, 785423, Note_on_c, 0, 70, 36
1, 785427, Control_c, 0, 64, 88
1, 785445, Control_c, 0, 64, 110
1, 785463, Control_c, 0, 64, 127
1, 785488, Note_on_c, 0, 76, 0
1, 785520, Note_on_c, 0, 73, 48
1, 785611, Note_on_c, 0, 37, 0
1, 785645, Note_on_c, 0, 49, 27
1, 785739, Note_on_c, 0, 70, 0
1, 785826, Note_on_c, 0, 64, 0
1, 785875, Note_on_c, 0, 51, 40
1, 785905, Note_on_c, 0, 68, 0
1, 785922, Note_on_c, 0, 49, 0
1, 786093, Note_on_c, 0, 49, 38
1, 786147, Note_on_c, 0, 63, 63
1, 786223, Note_on_c, 0, 51, 0
1, 786230, Control_c, 0, 64, 108
1, 786249, Control_c, 0, 64, 80
1, 786251, Note_on_c, 0, 68, 42
1, 786267, Control_c, 0, 64, 67
1, 786288, Control_c, 0, 64, 70
1, 786298, Note_on_c, 0, 72, 54
1, 786306, Control_c, 0, 64, 78
1, 786323, Control_c, 0, 64, 90
1, 786342, Control_c, 0, 64, 111
1, 786362, Control_c, 0, 64, 127
1, 786365, Note_on_c, 0, 73, 0
1, 786430, Note_on_c, 0, 75, 52
1, 786475, Note_on_c, 0, 72, 0
1, 786535, Note_on_c, 0, 61, 39
1, 786552, Note_on_c, 0, 49, 0
1, 786709, Note_on_c, 0, 63, 0
1, 786723, Note_on_c, 0, 49, 47
1, 786774, Note_on_c, 0, 61, 0
1, 786806, Note_on_c, 0, 68, 0
1, 787013, Note_on_c, 0, 51, 40
1, 787026, Note_on_c, 0, 61, 64
1, 787041, Note_on_c, 0, 49, 0
1, 787096, Note_on_c, 0, 68, 48
1, 787112, Control_c, 0, 64, 101
1, 787130, Control_c, 0, 64, 72
1, 787142, Note_on_c, 0, 73, 45
1, 787148, Control_c, 0, 64, 54
1, 787176, Note_on_c, 0, 75, 0
1, 787184, Control_c, 0, 64, 58
1, 787204, Control_c, 0, 64, 68
1, 787222, Control_c, 0, 64, 80
1, 787242, Control_c, 0, 64, 100
1, 787258, Control_c, 0, 64, 126
1, 787273, Note_on_c, 0, 76, 54
1, 787377, Note_on_c, 0, 49, 40
1, 787483, Note_on_c, 0, 51, 0
1, 787595, Note_on_c, 0, 73, 0
1, 787624, Note_on_c, 0, 61, 0
1, 787672, Note_on_c, 0, 49, 0
1, 787688, Note_on_c, 0, 51, 33
1, 788041, Note_on_c, 0, 68, 0
1, 788101, Note_on_c, 0, 39, 36
1, 788212, Note_on_c, 0, 51, 0
1, 788261, Note_on_c, 0, 70, 41
1, 788262, Note_on_c, 0, 63, 60
1, 788371, Control_c, 0, 64, 93
1, 788389, Control_c, 0, 64, 65
1, 788408, Control_c, 0, 64, 57
1, 788426, Control_c, 0, 64, 60
1, 788443, Control_c, 0, 64, 68
1, 788463, Control_c, 0, 64, 80
1, 788481, Control_c, 0, 64, 101
1, 788500, Control_c, 0, 64, 127
1, 788505, Note_on_c, 0, 76, 0
1, 788648, Note_on_c, 0, 51, 28
1, 788678, Note_on_c, 0, 39, 0
1, 788939, Note_on_c, 0, 52, 41
1, 789031, Note_on_c, 0, 51, 0
1, 789294, Note_on_c, 0, 51, 50
1, 789306, Control_c, 0, 64, 115
1, 789312, Note_on_c, 0, 52, 0
1, 789326, Control_c, 0, 64, 81
1, 789344, Control_c, 0, 64, 49
1, 789363, Control_c, 0, 64, 41
1, 789401, Control_c, 0, 64, 47
1, 789417, Control_c, 0, 64, 60
1, 789435, Control_c, 0, 64, 75
1, 789455, Control_c, 0, 64, 97
1, 789458, Note_on_c, 0, 63, 0
1, 789473, Control_c, 0, 64, 126
1, 789615, Note_on_c, 0, 63, 42
1, 789726, Note_on_c, 0, 51, 0
1, 789898, Note_on_c, 0, 51, 33
1, 789957, Note_on_c, 0, 63, 0
1, 790221, Note_on_c, 0, 63, 28
1, 790236, Note_on_c, 0, 51, 0
1, 790534, Note_on_c, 0, 51, 25
1, 790541, Note_on_c, 0, 63, 0
1, 790859, Note_on_c, 0, 63, 32
1, 790980, Note_on_c, 0, 51, 0
1, 791271, Note_on_c, 0, 51, 16
1, 791344, Note_on_c, 0, 67, 40
1, 791456, Control_c, 0, 64, 98
1, 791463, Poly_aftertouch_c, 0, 68, 0
1, 791475, Control_c, 0, 64, 71
1, 791492, Control_c, 0, 64, 65
1, 791511, Control_c, 0, 64, 69
1, 791529, Control_c, 0, 64, 75
1, 791537, Note_on_c, 0, 63, 0
1, 791549, Control_c, 0, 64, 85
1, 791567, Control_c, 0, 64, 102
1, 791586, Control_c, 0, 64, 122
1, 791605, Control_c, 0, 64, 127
1, 791748, Note_on_c, 0, 63, 22
1, 791859, Note_on_c, 0, 51, 0
1, 792074, Note_on_c, 0, 51, 26
1, 792138, Note_on_c, 0, 51, 0
1, 792530, Note_on_c, 0, 62, 40
1, 792626, Note_on_c, 0, 63, 0
1, 792951, Note_on_c, 0, 63, 28
1, 792988, Note_on_c, 0, 62, 0
1, 793311, Note_on_c, 0, 51, 29
1, 793781, Note_on_c, 0, 61, 33
1, 793863, Control_c, 0, 64, 103
1, 793882, Control_c, 0, 64, 77
1, 793899, Control_c, 0, 64, 64
1, 793928, Control_c, 0, 64, 66
1, 793946, Control_c, 0, 64, 73
1, 793966, Control_c, 0, 64, 83
1, 793984, Control_c, 0, 64, 102
1, 793997, Note_on_c, 0, 63, 0
1, 794002, Control_c, 0, 64, 126
1, 794035, Note_on_c, 0, 51, 0
1, 794203, Note_on_c, 0, 63, 24
1, 794453, Note_on_c, 0, 61, 0
1, 794539, Note_on_c, 0, 51, 28
1, 795049, Note_on_c, 0, 75, 48
1, 795073, Note_on_c, 0, 60, 31
1, 795132, Note_on_c, 0, 67, 0
1, 795159, Control_c, 0, 64, 117
1, 795179, Control_c, 0, 64, 92
1, 795199, Control_c, 0, 64, 66
1, 795215, Control_c, 0, 64, 57
1, 795222, Note_on_c, 0, 63, 0
1, 795253, Control_c, 0, 64, 59
1, 795272, Control_c, 0, 64, 67
1, 795290, Note_on_c, 0, 51, 0
1, 795290, Control_c, 0, 64, 76
1, 795310, Control_c, 0, 64, 90
1, 795314, Note_on_c, 0, 70, 0
1, 795328, Control_c, 0, 64, 111
1, 795346, Control_c, 0, 64, 127
1, 795473, Note_on_c, 0, 63, 31
1, 795613, Note_on_c, 0, 60, 0
1, 795765, Note_on_c, 0, 51, 35
1, 796174, Note_on_c, 0, 56, 29
1, 796200, Note_on_c, 0, 72, 54
1, 796376, Note_on_c, 0, 75, 0
1, 796381, Note_on_c, 0, 63, 0
1, 796432, Note_on_c, 0, 51, 0
1, 796562, Note_on_c, 0, 63, 34
1, 796709, Note_on_c, 0, 56, 0
1, 796735, Control_c, 0, 67, 118
1, 796754, Control_c, 0, 67, 112
1, 796772, Control_c, 0, 67, 102
1, 796793, Control_c, 0, 67, 89
1, 796809, Control_c, 0, 67, 70
1, 796829, Control_c, 0, 67, 48
1, 796846, Control_c, 0, 67, 25
1, 796851, Note_on_c, 0, 51, 14
1, 796882, Control_c, 0, 67, 0
1, 797158, Note_on_c, 0, 53, 42
1, 797164, Note_on_c, 0, 68, 54
1, 797291, Note_on_c, 0, 63, 0
1, 797297, Note_on_c, 0, 51, 0
1, 797462, Note_on_c, 0, 63, 35
1, 797567, Note_on_c, 0, 53, 0
1, 797584, Note_on_c, 0, 72, 0
1, 797712, Note_on_c, 0, 51, 47
1, 797832, Note_on_c, 0, 63, 0
1, 798012, Note_on_c, 0, 49, 39
1, 798031, Note_on_c, 0, 51, 0
1, 798074, Note_on_c, 0, 65, 53
1, 798152, Control_c, 0, 64, 102
1, 798171, Control_c, 0, 64, 72
1, 798190, Control_c, 0, 64, 57
1, 798227, Control_c, 0, 64, 65
1, 798228, Note_on_c, 0, 68, 0
1, 798245, Control_c, 0, 64, 75
1, 798265, Control_c, 0, 64, 93
1, 798283, Control_c, 0, 64, 124
1, 798336, Note_on_c, 0, 63, 48
1, 798510, Note_on_c, 0, 63, 0
1, 798578, Note_on_c, 0, 49, 0
1, 798604, Note_on_c, 0, 51, 50
1, 798868, Note_on_c, 0, 46, 46
1, 798873, Note_on_c, 0, 51, 0
1, 798913, Note_on_c, 0, 61, 65
1, 798920, Control_c, 0, 64, 117
1, 798940, Control_c, 0, 64, 84
1, 798959, Control_c, 0, 64, 57
1, 798977, Control_c, 0, 64, 55
1, 798996, Control_c, 0, 64, 58
1, 799015, Control_c, 0, 64, 68
1, 799021, Note_on_c, 0, 65, 0
1, 799033, Control_c, 0, 64, 83
1, 799051, Control_c, 0, 64, 108
1, 799068, Note_on_c, 0, 46, 0
1, 799071, Control_c, 0, 64, 127
1, 799202, Note_on_c, 0, 63, 58
1, 799409, Note_on_c, 0, 63, 0
1, 799469, Note_on_c, 0, 51, 48
1, 799717, Note_on_c, 0, 51, 0
1, 799792, Note_on_c, 0, 43, 43
1, 799875, Control_c, 0, 67, 8
1, 799893, Control_c, 0, 64, 101
1, 799894, Note_on_c, 0, 58, 65
1, 799912, Control_c, 0, 64, 67
1, 799932, Control_c, 0, 64, 46
1, 799966, Note_on_c, 0, 61, 0
1, 799968, Control_c, 0, 64, 52
1, 799968, Control_c, 0, 67, 12
1, 799987, Control_c, 0, 64, 65
1, 800006, Control_c, 0, 64, 82
1, 800021, Note_on_c, 0, 43, 0
1, 800023, Control_c, 0, 64, 107
1, 800041, Control_c, 0, 64, 127
1, 800248, Note_on_c, 0, 63, 55
1, 800320, Control_c, 0, 67, 17
1, 800344, Note_on_c, 0, 63, 0
1, 800392, Control_c, 0, 67, 21
1, 800495, Control_c, 0, 67, 26
1, 800531, Note_on_c, 0, 51, 45
1, 800553, Control_c, 0, 67, 30
1, 800607, Control_c, 0, 67, 34
1, 800625, Control_c, 0, 67, 40
1, 800644, Control_c, 0, 67, 45
1, 800663, Control_c, 0, 67, 50
1, 800719, Control_c, 0, 67, 55
1, 800736, Note_on_c, 0, 51, 0
1, 800743, Note_on_c, 0, 44, 56
1, 800756, Control_c, 0, 67, 61
1, 800774, Control_c, 0, 64, 109
1, 800776, Control_c, 0, 67, 68
1, 800789, Note_on_c, 0, 58, 0
1, 800793, Control_c, 0, 64, 74
1, 800795, Control_c, 0, 67, 75
1, 800812, Control_c, 0, 64, 45
1, 800813, Control_c, 0, 67, 81
1, 800828, Note_on_c, 0, 60, 55
1, 800830, Control_c, 0, 64, 43
1, 800831, Control_c, 0, 67, 86
1, 800849, Control_c, 0, 64, 46
1, 800867, Control_c, 0, 64, 59
1, 800869, Control_c, 0, 67, 91
1, 800885, Control_c, 0, 64, 75
1, 800904, Control_c, 0, 64, 97
1, 800906, Control_c, 0, 67, 95
1, 800923, Control_c, 0, 64, 126
1, 800945, Note_on_c, 0, 60, 0
1, 800970, Note_on_c, 0, 61, 51
1, 800972, Note_on_c, 0, 44, 0
1, 801029, Note_on_c, 0, 61, 0
1, 801078, Note_on_c, 0, 60, 51
1, 801108, Control_c, 0, 67, 99
1, 801128, Note_on_c, 0, 60, 0
1, 801138, Note_on_c, 0, 61, 59
1, 801142, Control_c, 0, 67, 104
1, 801175, Note_on_c, 0, 61, 0
1, 801180, Control_c, 0, 67, 110
1, 801201, Note_on_c, 0, 63, 58
1, 801213, Note_on_c, 0, 60, 54
1, 801262, Note_on_c, 0, 63, 0
1, 801269, Note_on_c, 0, 60, 0
1, 801271, Note_on_c, 0, 61, 64
1, 801274, Control_c, 0, 67, 115
1, 801309, Note_on_c, 0, 61, 0
1, 801311, Control_c, 0, 67, 119
1, 801335, Note_on_c, 0, 60, 54
1, 801383, Note_on_c, 0, 61, 68
1, 801385, Control_c, 0, 67, 123
1, 801428, Note_on_c, 0, 61, 0
1, 801488, Control_c, 0, 67, 127
1, 801496, Note_on_c, 0, 60, 0
1, 801507, Note_on_c, 0, 51, 40
1, 801522, Note_on_c, 0, 58, 56
1, 801615, Note_on_c, 0, 60, 63
1, 801642, Note_on_c, 0, 58, 0
1, 801786, Note_on_c, 0, 46, 46
1, 801839, Control_c, 0, 64, 116
1, 801843, Note_on_c, 0, 51, 0
1, 801845, Note_on_c, 0, 61, 57
1, 801853, Note_on_c, 0, 60, 0
1, 801857, Control_c, 0, 64, 79
1, 801877, Control_c, 0, 64, 37
1, 801894, Control_c, 0, 64, 0
1, 801988, Control_c, 0, 64, 32
1, 802000, Note_on_c, 0, 46, 0
1, 802006, Control_c, 0, 64, 57
1, 802027, Control_c, 0, 64, 83
1, 802044, Control_c, 0, 64, 105
1, 802062, Control_c, 0, 64, 126
1, 802180, Note_on_c, 0, 63, 36
1, 802350, Control_c, 0, 67, 121
1, 802386, Control_c, 0, 67, 113
1, 802405, Control_c, 0, 67, 106
1, 802419, Note_on_c, 0, 51, 42
1, 802423, Control_c, 0, 67, 97
1, 802440, Note_on_c, 0, 63, 0
1, 802442, Control_c, 0, 67, 85
1, 802459, Control_c, 0, 67, 71
1, 802477, Control_c, 0, 67, 57
1, 802497, Control_c, 0, 67, 44
1, 802515, Control_c, 0, 67, 32
1, 802534, Control_c, 0, 67, 21
1, 802553, Control_c, 0, 67, 11
1, 802589, Control_c, 0, 67, 0
1, 802745, Note_on_c, 0, 55, 53
1, 802790, Note_on_c, 0, 58, 49
1, 802849, Control_c, 0, 64, 96
1, 802868, Control_c, 0, 64, 64
1, 802885, Control_c, 0, 64, 37
1, 802893, Note_on_c, 0, 61, 0
1, 802961, Control_c, 0, 64, 52
1, 802980, Control_c, 0, 64, 65
1, 802998, Control_c, 0, 64, 80
1, 803014, Note_on_c, 0, 51, 0
1, 803015, Control_c, 0, 64, 99
1, 803033, Control_c, 0, 64, 118
1, 803053, Control_c, 0, 64, 127
1, 803103, Note_on_c, 0, 63, 26
1, 803395, Note_on_c, 0, 51, 35
1, 803429, Note_on_c, 0, 55, 0
1, 803536, Note_on_c, 0, 63, 0
1, 803769, Note_on_c, 0, 56, 43
1, 803770, Note_on_c, 0, 60, 56
1, 803896, Control_c, 0, 64, 106
1, 803916, Control_c, 0, 64, 75
1, 803921, Note_on_c, 0, 58, 0
1, 803934, Control_c, 0, 64, 44
1, 803951, Control_c, 0, 64, 34
1, 803975, Note_on_c, 0, 51, 0
1, 804006, Control_c, 0, 64, 41
1, 804025, Control_c, 0, 64, 55
1, 804045, Control_c, 0, 64, 69
1, 804063, Control_c, 0, 64, 84
1, 804081, Control_c, 0, 64, 101
1, 804102, Control_c, 0, 64, 116
1, 804114, Note_on_c, 0, 63, 39
1, 804121, Control_c, 0, 64, 127
1, 804378, Note_on_c, 0, 51, 50
1, 804393, Note_on_c, 0, 56, 0
1, 804494, Note_on_c, 0, 63, 0
1, 804666, Note_on_c, 0, 55, 61
1, 804670, Note_on_c, 0, 63, 66
1, 804737, Note_on_c, 0, 60, 0
1, 804882, Note_on_c, 0, 51, 0
1, 804884, Note_on_c, 0, 63, 0
1, 804933, Note_on_c, 0, 63, 39
1, 805196, Note_on_c, 0, 51, 57
1, 805475, Note_on_c, 0, 53, 59
1, 805510, Note_on_c, 0, 68, 70
1, 805619, Control_c, 0, 64, 98
1, 805639, Control_c, 0, 64, 64
1, 805642, Note_on_c, 0, 63, 0
1, 805657, Control_c, 0, 64, 34
1, 805712, Control_c, 0, 64, 40
1, 805718, Note_on_c, 0, 51, 0
1, 805730, Control_c, 0, 64, 56
1, 805748, Control_c, 0, 64, 72
1, 805768, Control_c, 0, 64, 92
1, 805777, Note_on_c, 0, 63, 52
1, 805787, Control_c, 0, 64, 120
1, 805804, Control_c, 0, 64, 127
1, 806051, Note_on_c, 0, 51, 59
1, 806125, Note_on_c, 0, 53, 0
1, 806424, Note_on_c, 0, 52, 61
1, 806490, Note_on_c, 0, 70, 54
1, 806574, Control_c, 0, 64, 104
1, 806592, Control_c, 0, 64, 77
1, 806607, Note_on_c, 0, 68, 0
1, 806609, Control_c, 0, 64, 47
1, 806621, Note_on_c, 0, 63, 0
1, 806626, Note_on_c, 0, 51, 0
1, 806627, Control_c, 0, 64, 26
1, 806647, Control_c, 0, 64, 17
1, 806685, Control_c, 0, 64, 0
1, 806686, Control_c, 0, 67, 9
1, 806722, Control_c, 0, 64, 17
1, 806724, Control_c, 0, 67, 16
1, 806741, Control_c, 0, 64, 38
1, 806742, Control_c, 0, 67, 24
1, 806759, Control_c, 0, 64, 55
1, 806759, Control_c, 0, 67, 30
1, 806777, Control_c, 0, 64, 73
1, 806779, Control_c, 0, 67, 36
1, 806797, Control_c, 0, 64, 88
1, 806799, Control_c, 0, 67, 41
1, 806800, Note_on_c, 0, 63, 33
1, 806815, Control_c, 0, 64, 104
1, 806816, Control_c, 0, 67, 46
1, 806834, Control_c, 0, 64, 116
1, 806835, Control_c, 0, 67, 52
1, 806852, Control_c, 0, 64, 124
1, 806853, Control_c, 0, 67, 56
1, 806871, Control_c, 0, 67, 61
1, 806889, Control_c, 0, 67, 65
1, 806945, Control_c, 0, 67, 69
1, 807028, Control_c, 0, 67, 73
1, 807055, Poly_aftertouch_c, 0, 55, 24
1, 807065, Control_c, 0, 67, 81
1, 807084, Control_c, 0, 67, 86
1, 807103, Control_c, 0, 67, 90
1, 807113, Note_on_c, 0, 51, 46
1, 807140, Control_c, 0, 67, 97
1, 807176, Control_c, 0, 67, 102
1, 807194, Control_c, 0, 67, 107
1, 807225, Note_on_c, 0, 63, 0
1, 807230, Control_c, 0, 67, 112
1, 807238, Note_on_c, 0, 52, 0
1, 807242, Note_on_c, 0, 67, 35
1, 807308, Control_c, 0, 67, 117
1, 807315, Poly_aftertouch_c, 0, 55, 32
1, 807529, Note_on_c, 0, 63, 32
1, 807583, Control_c, 0, 67, 121
1, 807604, Note_on_c, 0, 75, 68
1, 807640, Control_c, 0, 64, 105
1, 807645, Poly_aftertouch_c, 0, 55, 24
1, 807658, Control_c, 0, 64, 78
1, 807677, Control_c, 0, 64, 53
1, 807696, Control_c, 0, 64, 41
1, 807696, Control_c, 0, 67, 125
1, 807733, Control_c, 0, 64, 44
1, 807734, Note_on_c, 0, 51, 0
1, 807751, Control_c, 0, 64, 56
1, 807769, Note_on_c, 0, 70, 0
1, 807769, Control_c, 0, 64, 68
1, 807789, Control_c, 0, 64, 81
1, 807807, Control_c, 0, 64, 99
1, 807825, Control_c, 0, 64, 118
1, 807844, Control_c, 0, 64, 127
1, 807845, Control_c, 0, 67, 121
1, 807888, Poly_aftertouch_c, 0, 55, 22
1, 807898, Note_on_c, 0, 51, 45
1, 808019, Note_on_c, 0, 63, 0
1, 808158, Poly_aftertouch_c, 0, 55, 24
1, 808211, Note_on_c, 0, 63, 32
1, 808335, Note_on_c, 0, 51, 0
1, 808417, Poly_aftertouch_c, 0, 55, 20
1, 808424, Note_on_c, 0, 55, 0
1, 808424, Poly_aftertouch_c, 0, 55, 0
1, 808616, Note_on_c, 0, 66, 60
1, 808623, Note_on_c, 0, 51, 25
1, 808780, Control_c, 0, 67, 125
1, 808797, Note_on_c, 0, 63, 0
1, 808817, Note_on_c, 0, 67, 0
1, 808817, Control_c, 0, 64, 115
1, 808835, Control_c, 0, 64, 88
1, 808853, Control_c, 0, 64, 58
1, 808872, Control_c, 0, 64, 37
1, 808956, Control_c, 0, 64, 43
1, 808962, Note_on_c, 0, 63, 37
1, 808975, Control_c, 0, 64, 57
1, 808992, Control_c, 0, 64, 71
1, 809012, Control_c, 0, 64, 85
1, 809029, Control_c, 0, 64, 103
1, 809047, Control_c, 0, 64, 119
1, 809066, Control_c, 0, 64, 127
1, 809115, Note_on_c, 0, 51, 0
1, 809255, Note_on_c, 0, 51, 38
1, 809311, Note_on_c, 0, 63, 0
1, 809569, Note_on_c, 0, 63, 34
1, 809604, Note_on_c, 0, 51, 0
1, 809863, Note_on_c, 0, 63, 0
1, 809883, Note_on_c, 0, 51, 22
1, 810161, Note_on_c, 0, 75, 0
1, 810202, Note_on_c, 0, 66, 0
1, 810288, Note_on_c, 0, 63, 25
1, 810403, Note_on_c, 0, 63, 0
1, 810762, Note_on_c, 0, 47, 35
1, 810776, Note_on_c, 0, 51, 0
1, 810861, Note_on_c, 0, 75, 50
1, 810885, Note_on_c, 0, 66, 39
1, 810981, Note_on_c, 0, 47, 0
1, 811195, Note_on_c, 0, 63, 25
1, 811390, Note_on_c, 0, 63, 0
1, 811465, Note_on_c, 0, 51, 38
1, 811751, Note_on_c, 0, 47, 34
1, 811811, Note_on_c, 0, 51, 0
1, 811838, Note_on_c, 0, 67, 52
1, 811893, Note_on_c, 0, 66, 0
1, 811938, Note_on_c, 0, 47, 0
1, 812113, Note_on_c, 0, 63, 38
1, 812192, Note_on_c, 0, 63, 0
1, 812347, Note_on_c, 0, 51, 37
1, 812583, Note_on_c, 0, 47, 39
1, 812648, Note_on_c, 0, 51, 0
1, 812677, Note_on_c, 0, 71, 53
1, 812709, Note_on_c, 0, 47, 0
1, 812799, Note_on_c, 0, 75, 0
1, 812935, Note_on_c, 0, 63, 34
1, 813042, Note_on_c, 0, 63, 0
1, 813178, Note_on_c, 0, 51, 41
1, 813401, Note_on_c, 0, 47, 43
1, 813459, Note_on_c, 0, 51, 0
1, 813491, Note_on_c, 0, 68, 63
1, 813511, Control_c, 0, 64, 105
1, 813531, Control_c, 0, 64, 78
1, 813543, Note_on_c, 0, 67, 0
1, 813549, Control_c, 0, 64, 62
1, 813578, Control_c, 0, 64, 66
1, 813597, Control_c, 0, 64, 75
1, 813608, Note_on_c, 0, 47, 0
1, 813614, Control_c, 0, 64, 87
1, 813617, Control_c, 0, 67, 121
1, 813633, Control_c, 0, 64, 107
1, 813653, Control_c, 0, 64, 127
1, 813654, Control_c, 0, 67, 114
1, 813670, Note_on_c, 0, 71, 0
1, 813671, Control_c, 0, 67, 110
1, 813690, Control_c, 0, 67, 102
1, 813708, Control_c, 0, 67, 92
1, 813725, Control_c, 0, 67, 79
1, 813744, Control_c, 0, 67, 64
1, 813765, Control_c, 0, 67, 49
1, 813774, Note_on_c, 0, 64, 50
1, 813780, Control_c, 0, 67, 35
1, 813801, Control_c, 0, 67, 22
1, 813818, Control_c, 0, 67, 10
1, 813858, Control_c, 0, 67, 0
1, 813904, Note_on_c, 0, 64, 0
1, 814065, Note_on_c, 0, 52, 31
1, 814289, Note_on_c, 0, 47, 37
1, 814325, Note_on_c, 0, 64, 60
1, 814351, Note_on_c, 0, 52, 0
1, 814432, Control_c, 0, 64, 109
1, 814446, Note_on_c, 0, 68, 0
1, 814447, Control_c, 0, 64, 85
1, 814467, Control_c, 0, 64, 72
1, 814486, Control_c, 0, 64, 74
1, 814513, Control_c, 0, 64, 82
1, 814533, Control_c, 0, 64, 93
1, 814550, Control_c, 0, 64, 108
1, 814570, Control_c, 0, 64, 126
1, 814587, Note_on_c, 0, 61, 51
1, 814846, Note_on_c, 0, 52, 45
1, 814880, Note_on_c, 0, 61, 0
1, 814924, Note_on_c, 0, 47, 0
1, 814957, Control_c, 0, 67, 8
1, 815013, Control_c, 0, 67, 14
1, 815051, Control_c, 0, 67, 24
1, 815069, Control_c, 0, 67, 32
1, 815088, Control_c, 0, 67, 39
1, 815108, Control_c, 0, 67, 44
1, 815125, Control_c, 0, 67, 49
1, 815144, Control_c, 0, 67, 54
1, 815163, Control_c, 0, 67, 59
1, 815181, Control_c, 0, 67, 64
1, 815199, Control_c, 0, 67, 68
1, 815217, Control_c, 0, 67, 72
1, 815236, Control_c, 0, 67, 76
1, 815253, Control_c, 0, 67, 80
1, 815255, Note_on_c, 0, 61, 56
1, 815268, Note_on_c, 0, 47, 29
1, 815273, Control_c, 0, 67, 85
1, 815292, Control_c, 0, 67, 89
1, 815310, Control_c, 0, 67, 93
1, 815329, Control_c, 0, 67, 97
1, 815348, Control_c, 0, 67, 101
1, 815367, Control_c, 0, 67, 106
1, 815384, Control_c, 0, 67, 111
1, 815391, Note_on_c, 0, 64, 0
1, 815402, Control_c, 0, 67, 115
1, 815420, Control_c, 0, 64, 105
1, 815449, Control_c, 0, 64, 80
1, 815450, Control_c, 0, 67, 122
1, 815459, Note_on_c, 0, 52, 0
1, 815468, Control_c, 0, 64, 57
1, 815487, Control_c, 0, 64, 47
1, 815488, Control_c, 0, 67, 126
1, 815543, Control_c, 0, 64, 54
1, 815560, Control_c, 0, 64, 63
1, 815578, Control_c, 0, 64, 76
1, 815597, Control_c, 0, 64, 92
1, 815597, Note_on_c, 0, 58, 27
1, 815616, Control_c, 0, 64, 110
1, 815634, Control_c, 0, 64, 122
1, 815652, Control_c, 0, 64, 127
1, 815824, Note_on_c, 0, 47, 0
1, 815847, Note_on_c, 0, 49, 45
1, 815964, Note_on_c, 0, 58, 0
1, 816042, Note_on_c, 0, 47, 27
1, 816077, Control_c, 0, 64, 121
1, 816079, Note_on_c, 0, 61, 0
1, 816084, Note_on_c, 0, 63, 53
1, 816090, Note_on_c, 0, 49, 0
1, 816096, Control_c, 0, 64, 92
1, 816116, Control_c, 0, 64, 63
1, 816133, Control_c, 0, 64, 50
1, 816153, Control_c, 0, 64, 53
1, 816172, Control_c, 0, 64, 64
1, 816179, Note_on_c, 0, 63, 0
1, 816190, Control_c, 0, 64, 76
1, 816208, Control_c, 0, 64, 95
1, 816217, Note_on_c, 0, 64, 40
1, 816226, Control_c, 0, 64, 121
1, 816245, Control_c, 0, 64, 127
1, 816289, Note_on_c, 0, 64, 0
1, 816304, Note_on_c, 0, 59, 39
1, 816310, Note_on_c, 0, 63, 51
1, 816356, Note_on_c, 0, 63, 0
1, 816390, Note_on_c, 0, 64, 53
1, 816439, Note_on_c, 0, 64, 0
1, 816466, Note_on_c, 0, 63, 64
1, 816498, Note_on_c, 0, 63, 0
1, 816560, Note_on_c, 0, 47, 0
1, 816560, Note_on_c, 0, 51, 40
1, 816560, Note_on_c, 0, 63, 65
1, 816605, Note_on_c, 0, 63, 0
1, 816627, Poly_aftertouch_c, 0, 64, 0
1, 816646, Note_on_c, 0, 61, 65
1, 816686, Note_on_c, 0, 59, 0
1, 816714, Note_on_c, 0, 61, 0
1, 816735, Note_on_c, 0, 63, 66
1, 816825, Note_on_c, 0, 47, 37
1, 816947, Note_on_c, 0, 64, 59
1, 816949, Note_on_c, 0, 51, 0
1, 816965, Control_c, 0, 64, 109
1, 816982, Note_on_c, 0, 63, 0
1, 816982, Control_c, 0, 64, 81
1, 817002, Control_c, 0, 64, 49
1, 817022, Control_c, 0, 64, 16
1, 817039, Control_c, 0, 64, 10
1, 817133, Control_c, 0, 64, 16
1, 817153, Control_c, 0, 64, 42
1, 817170, Control_c, 0, 64, 69
1, 817190, Control_c, 0, 64, 90
1, 817207, Control_c, 0, 64, 109
1, 817218, Note_on_c, 0, 61, 40
1, 817226, Control_c, 0, 64, 121
1, 817227, Control_c, 0, 67, 118
1, 817243, Control_c, 0, 64, 127
1, 817262, Control_c, 0, 67, 112
1, 817281, Control_c, 0, 67, 105
1, 817309, Control_c, 0, 67, 96
1, 817328, Control_c, 0, 67, 82
1, 817347, Control_c, 0, 67, 67
1, 817364, Control_c, 0, 67, 51
1, 817382, Control_c, 0, 67, 36
1, 817402, Control_c, 0, 67, 23
1, 817419, Control_c, 0, 67, 13
1, 817476, Control_c, 0, 67, 0
1, 817498, Note_on_c, 0, 52, 40
1, 817530, Note_on_c, 0, 47, 0
1, 817543, Note_on_c, 0, 61, 0
1, 817735, Note_on_c, 0, 47, 34
1, 817778, Note_on_c, 0, 61, 65
1, 817884, Control_c, 0, 64, 103
1, 817903, Control_c, 0, 64, 79
1, 817921, Control_c, 0, 64, 66
1, 817937, Control_c, 0, 64, 67
1, 817957, Control_c, 0, 64, 74
1, 817975, Control_c, 0, 64, 82
1, 817994, Control_c, 0, 64, 96
1, 818011, Note_on_c, 0, 58, 46
1, 818012, Control_c, 0, 64, 113
1, 818031, Control_c, 0, 64, 127
1, 818034, Note_on_c, 0, 64, 0
1, 818282, Note_on_c, 0, 47, 0
1, 818292, Note_on_c, 0, 49, 48
1, 818529, Note_on_c, 0, 52, 0
1, 818561, Note_on_c, 0, 47, 36
1, 818687, Note_on_c, 0, 58, 0
1, 818689, Note_on_c, 0, 63, 68
1, 818748, Note_on_c, 0, 49, 0
1, 818811, Note_on_c, 0, 61, 0
1, 818819, Control_c, 0, 64, 105
1, 818837, Control_c, 0, 64, 79
1, 818857, Control_c, 0, 64, 52
1, 818873, Control_c, 0, 64, 33
1, 818893, Control_c, 0, 64, 28
1, 818968, Control_c, 0, 64, 33
1, 818985, Control_c, 0, 64, 48
1, 819003, Control_c, 0, 64, 66
1, 819006, Note_on_c, 0, 59, 42
1, 819023, Control_c, 0, 64, 81
1, 819042, Control_c, 0, 64, 94
1, 819059, Control_c, 0, 64, 106
1, 819077, Control_c, 0, 64, 118
1, 819097, Control_c, 0, 64, 127
1, 819298, Note_on_c, 0, 47, 0
1, 819300, Note_on_c, 0, 51, 47
1, 819544, Note_on_c, 0, 46, 40
1, 819610, Note_on_c, 0, 67, 58
1, 819626, Note_on_c, 0, 59, 0
1, 819696, Note_on_c, 0, 63, 0
1, 819717, Control_c, 0, 64, 109
1, 819725, Note_on_c, 0, 51, 0
1, 819736, Control_c, 0, 64, 85
1, 819756, Control_c, 0, 64, 59
1, 819773, Control_c, 0, 64, 39
1, 819792, Control_c, 0, 64, 30
1, 819884, Control_c, 0, 64, 47
1, 819903, Control_c, 0, 64, 67
1, 819919, Control_c, 0, 64, 82
1, 819925, Note_on_c, 0, 61, 40
1, 819940, Control_c, 0, 64, 96
1, 819959, Control_c, 0, 64, 107
1, 819977, Control_c, 0, 64, 118
1, 819994, Control_c, 0, 64, 126
1, 820182, Note_on_c, 0, 46, 0
1, 820199, Note_on_c, 0, 52, 40
1, 820205, Note_on_c, 0, 61, 0
1, 820477, Note_on_c, 0, 44, 47
1, 820541, Note_on_c, 0, 68, 61
1, 820596, Control_c, 0, 64, 103
1, 820617, Control_c, 0, 64, 72
1, 820623, Note_on_c, 0, 52, 0
1, 820634, Control_c, 0, 64, 41
1, 820646, Note_on_c, 0, 67, 0
1, 820652, Control_c, 0, 64, 27
1, 820708, Control_c, 0, 64, 43
1, 820727, Control_c, 0, 64, 59
1, 820744, Control_c, 0, 64, 78
1, 820764, Control_c, 0, 64, 95
1, 820782, Control_c, 0, 64, 113
1, 820800, Control_c, 0, 64, 125
1, 820864, Note_on_c, 0, 44, 0
1, 820896, Note_on_c, 0, 59, 49
1, 820917, Note_on_c, 0, 68, 0
1, 820999, Note_on_c, 0, 70, 71
1, 821116, Note_on_c, 0, 59, 0
1, 821139, Note_on_c, 0, 51, 57
1, 821225, Note_on_c, 0, 51, 0
1, 821294, Note_on_c, 0, 70, 0
1, 821385, Note_on_c, 0, 40, 55
1, 821402, Note_on_c, 0, 71, 73
1, 821459, Control_c, 0, 64, 94
1, 821475, Poly_aftertouch_c, 0, 38, 0
1, 821477, Control_c, 0, 64, 56
1, 821495, Control_c, 0, 64, 29
1, 821532, Control_c, 0, 64, 37
1, 821551, Control_c, 0, 64, 56
1, 821571, Control_c, 0, 64, 79
1, 821588, Control_c, 0, 64, 107
1, 821591, Note_on_c, 0, 40, 0
1, 821607, Control_c, 0, 64, 127
1, 821696, Note_on_c, 0, 71, 0
1, 821699, Note_on_c, 0, 56, 66
1, 821819, Note_on_c, 0, 73, 74
1, 821951, Note_on_c, 0, 56, 0
1, 821971, Note_on_c, 0, 52, 51
1, 822045, Note_on_c, 0, 52, 0
1, 822193, Note_on_c, 0, 68, 37
1, 822289, Note_on_c, 0, 39, 57
1, 822545, Note_on_c, 0, 75, 72
1, 822561, Control_c, 0, 64, 109
1, 822580, Control_c, 0, 64, 79
1, 822599, Note_on_c, 0, 73, 0
1, 822599, Control_c, 0, 64, 42
1, 822615, Control_c, 0, 64, 0
1, 822710, Control_c, 0, 64, 16
1, 822728, Control_c, 0, 64, 49
1, 822747, Control_c, 0, 64, 80
1, 822767, Control_c, 0, 64, 103
1, 822784, Control_c, 0, 64, 124
1, 822855, Note_on_c, 0, 39, 0
1, 822858, Note_on_c, 0, 51, 45
1, 822969, Note_on_c, 0, 51, 0
1, 823157, Note_on_c, 0, 60, 29
1, 823450, Note_on_c, 0, 63, 42
1, 823559, Note_on_c, 0, 60, 0
1, 823715, Note_on_c, 0, 60, 45
1, 823970, Note_on_c, 0, 51, 52
1, 823993, Note_on_c, 0, 63, 0
1, 824247, Note_on_c, 0, 63, 55
1, 824343, Note_on_c, 0, 60, 0
1, 824496, Note_on_c, 0, 60, 60
1, 824597, Note_on_c, 0, 51, 0
1, 824630, Note_on_c, 0, 63, 0
1, 824748, Note_on_c, 0, 51, 56
1, 824872, Note_on_c, 0, 60, 0
1, 825056, Note_on_c, 0, 63, 57
1, 825136, Note_on_c, 0, 72, 80
1, 825325, Note_on_c, 0, 51, 0
1, 825385, Note_on_c, 0, 60, 65
1, 825447, Note_on_c, 0, 63, 0
1, 825487, Note_on_c, 0, 75, 0
1, 825510, Note_on_c, 0, 68, 0
1, 825651, Note_on_c, 0, 60, 0
1, 825656, Note_on_c, 0, 51, 71
1, 825759, Note_on_c, 0, 51, 0
1, 826000, Note_on_c, 0, 39, 63
1, 826126, Note_on_c, 0, 69, 56
1, 826326, Note_on_c, 0, 75, 77
1, 826452, Note_on_c, 0, 72, 0
1, 826452, Control_c, 0, 64, 106
1, 826471, Control_c, 0, 64, 72
1, 826489, Control_c, 0, 64, 45
1, 826508, Control_c, 0, 64, 41
1, 826527, Control_c, 0, 64, 45
1, 826543, Control_c, 0, 64, 57
1, 826561, Control_c, 0, 64, 74
1, 826581, Control_c, 0, 64, 93
1, 826599, Control_c, 0, 64, 117
1, 826603, Note_on_c, 0, 51, 51
1, 826617, Control_c, 0, 64, 127
1, 826633, Note_on_c, 0, 39, 0
1, 826728, Note_on_c, 0, 51, 0
1, 826913, Note_on_c, 0, 60, 39
1, 827205, Note_on_c, 0, 63, 43
1, 827324, Note_on_c, 0, 60, 0
1, 827492, Note_on_c, 0, 60, 40
1, 827655, Note_on_c, 0, 63, 0
1, 827757, Note_on_c, 0, 51, 46
1, 827885, Note_on_c, 0, 60, 0
1, 827990, Control_c, 0, 67, 8
1, 828092, Note_on_c, 0, 63, 34
1, 828137, Control_c, 0, 67, 14
1, 828155, Control_c, 0, 67, 21
1, 828175, Control_c, 0, 67, 27
1, 828193, Control_c, 0, 67, 32
1, 828230, Control_c, 0, 67, 38
1, 828267, Control_c, 0, 67, 46
1, 828285, Control_c, 0, 67, 51
1, 828294, Note_on_c, 0, 51, 0
1, 828305, Control_c, 0, 67, 56
1, 828323, Control_c, 0, 67, 62
1, 828343, Control_c, 0, 67, 69
1, 828360, Control_c, 0, 67, 75
1, 828377, Control_c, 0, 67, 82
1, 828385, Note_on_c, 0, 60, 41
1, 828398, Control_c, 0, 67, 89
1, 828415, Control_c, 0, 67, 96
1, 828433, Control_c, 0, 67, 102
1, 828452, Control_c, 0, 67, 108
1, 828488, Note_on_c, 0, 63, 0
1, 828488, Control_c, 0, 67, 112
1, 828592, Control_c, 0, 67, 117
1, 828628, Note_on_c, 0, 69, 0
1, 828678, Note_on_c, 0, 51, 30
1, 828702, Control_c, 0, 67, 121
1, 828760, Note_on_c, 0, 60, 0
1, 828850, Control_c, 0, 67, 125
1, 829031, Note_on_c, 0, 63, 31
1, 829073, Note_on_c, 0, 70, 45
1, 829103, Note_on_c, 0, 67, 31
1, 829164, Control_c, 0, 64, 110
1, 829184, Control_c, 0, 64, 84
1, 829203, Control_c, 0, 64, 59
1, 829221, Control_c, 0, 64, 50
1, 829260, Control_c, 0, 64, 56
1, 829277, Control_c, 0, 64, 64
1, 829296, Control_c, 0, 64, 76
1, 829315, Control_c, 0, 64, 91
1, 829333, Control_c, 0, 64, 109
1, 829351, Control_c, 0, 64, 122
1, 829363, Note_on_c, 0, 51, 0
1, 829367, Control_c, 0, 64, 127
1, 829403, Note_on_c, 0, 61, 39
1, 829419, Note_on_c, 0, 75, 0
1, 829542, Note_on_c, 0, 63, 0
1, 829754, Note_on_c, 0, 61, 0
1, 829756, Note_on_c, 0, 51, 30
1, 829867, Note_on_c, 0, 51, 0
1, 830323, Note_on_c, 0, 32, 29
1, 830427, Note_on_c, 0, 72, 51
1, 830435, Note_on_c, 0, 68, 43
1, 830499, Control_c, 0, 64, 112
1, 830518, Note_on_c, 0, 67, 0
1, 830518, Control_c, 0, 64, 85
1, 830534, Note_on_c, 0, 70, 0
1, 830536, Control_c, 0, 64, 57
1, 830555, Control_c, 0, 64, 39
1, 830574, Control_c, 0, 64, 34
1, 830631, Control_c, 0, 64, 44
1, 830649, Control_c, 0, 64, 61
1, 830666, Control_c, 0, 64, 82
1, 830684, Control_c, 0, 64, 101
1, 830703, Control_c, 0, 64, 120
1, 830722, Control_c, 0, 64, 127
1, 830835, Note_on_c, 0, 39, 32
1, 830885, Note_on_c, 0, 32, 0
1, 831146, Note_on_c, 0, 44, 38
1, 831216, Note_on_c, 0, 39, 0
1, 831266, Note_on_c, 0, 72, 0
1, 831285, Note_on_c, 0, 68, 0
1, 831429, Note_on_c, 0, 44, 0
1, 831443, Note_on_c, 0, 48, 38
1, 831683, Note_on_c, 0, 48, 0
1, 831753, Note_on_c, 0, 51, 32
1, 832090, Note_on_c, 0, 56, 32
1, 832107, Note_on_c, 0, 51, 0
1, 832434, Note_on_c, 0, 56, 0
1, 832482, Note_on_c, 0, 60, 33
1, 832903, Note_on_c, 0, 60, 0
1, 832956, Note_on_c, 0, 63, 27
1, 833324, Control_c, 0, 67, 121
1, 833361, Control_c, 0, 67, 117
1, 833399, Control_c, 0, 67, 113
1, 833430, Note_on_c, 0, 68, 22
1, 833436, Control_c, 0, 67, 103
1, 833456, Control_c, 0, 67, 96
1, 833472, Control_c, 0, 67, 85
1, 833491, Control_c, 0, 67, 73
1, 833509, Control_c, 0, 67, 61
1, 833525, Note_on_c, 0, 75, 44
1, 833528, Control_c, 0, 67, 50
1, 833538, Note_on_c, 0, 63, 0
1, 833546, Control_c, 0, 67, 42
1, 833565, Control_c, 0, 67, 37
1, 833586, Control_c, 0, 67, 33
1, 833622, Control_c, 0, 67, 26
1, 833658, Control_c, 0, 67, 20
1, 833899, Control_c, 0, 67, 24
1, 833936, Control_c, 0, 67, 30
1, 833956, Control_c, 0, 67, 37
1, 833973, Control_c, 0, 67, 46
1, 833992, Control_c, 0, 67, 56
1, 833993, Note_on_c, 0, 72, 27
1, 834012, Control_c, 0, 67, 64
1, 834028, Control_c, 0, 67, 70
1, 834065, Control_c, 0, 67, 77
1, 834072, Note_on_c, 0, 68, 0
1, 834085, Control_c, 0, 67, 82
1, 834103, Control_c, 0, 67, 86
1, 834122, Control_c, 0, 67, 90
1, 834187, Control_c, 0, 67, 94
1, 834728, Note_on_c, 0, 80, 53
1, 834742, Control_c, 0, 67, 101
1, 834762, Control_c, 0, 67, 107
1, 834797, Control_c, 0, 67, 112
1, 834835, Control_c, 0, 64, 113
1, 834837, Control_c, 0, 67, 116
1, 834852, Control_c, 0, 64, 86
1, 834872, Control_c, 0, 64, 60
1, 834875, Control_c, 0, 67, 121
1, 834891, Control_c, 0, 64, 51
1, 834909, Control_c, 0, 64, 53
1, 834928, Control_c, 0, 64, 62
1, 834930, Control_c, 0, 67, 126
1, 834947, Control_c, 0, 64, 75
1, 834961, Note_on_c, 0, 75, 0
1, 834964, Control_c, 0, 64, 91
1, 834982, Control_c, 0, 64, 110
1, 835002, Control_c, 0, 64, 125
1, 835077, Note_on_c, 0, 72, 0
1, 835273, Note_on_c, 0, 75, 25
1, 835290, Note_on_c, 0, 72, 23
1, 835469, Note_on_c, 0, 72, 0
1, 835478, Note_on_c, 0, 75, 0
1, 835707, Note_on_c, 0, 75, 28
1, 835725, Note_on_c, 0, 72, 28
1, 835904, Note_on_c, 0, 80, 0
1, 835904, Note_on_c, 0, 75, 0
1, 835906, Note_on_c, 0, 72, 0
1, 836094, Note_on_c, 0, 80, 51
1, 836123, Note_on_c, 0, 72, 30
1, 836271, Poly_aftertouch_c, 0, 75, 0
1, 836310, Note_on_c, 0, 72, 0
1, 836536, Note_on_c, 0, 78, 61
1, 836563, Note_on_c, 0, 72, 24
1, 836577, Note_on_c, 0, 70, 33
1, 836684, Poly_aftertouch_c, 0, 75, 0
1, 836724, Note_on_c, 0, 80, 0
1, 836744, Note_on_c, 0, 72, 0
1, 836748, Note_on_c, 0, 70, 0
1, 836975, Note_on_c, 0, 72, 38
1, 836978, Note_on_c, 0, 75, 36
1, 836981, Note_on_c, 0, 70, 29
1, 837149, Note_on_c, 0, 70, 0
1, 837154, Note_on_c, 0, 72, 0
1, 837169, Note_on_c, 0, 75, 0
1, 837387, Note_on_c, 0, 75, 37
1, 837404, Note_on_c, 0, 72, 29
1, 837411, Note_on_c, 0, 70, 31
1, 837617, Note_on_c, 0, 72, 0
1, 837627, Note_on_c, 0, 70, 0
1, 837660, Note_on_c, 0, 78, 0
1, 837679, Note_on_c, 0, 75, 0
1, 837789, Note_on_c, 0, 78, 58
1, 837818, Note_on_c, 0, 70, 36
1, 837831, Note_on_c, 0, 72, 23
1, 837852, Note_on_c, 0, 75, 13
1, 837935, Note_on_c, 0, 75, 0
1, 837970, Note_on_c, 0, 72, 0
1, 838009, Note_on_c, 0, 70, 0
1, 838339, Note_on_c, 0, 77, 58
1, 838365, Note_on_c, 0, 72, 23
1, 838368, Note_on_c, 0, 69, 31
1, 838429, Control_c, 0, 64, 112
1, 838449, Control_c, 0, 64, 87
1, 838464, Note_on_c, 0, 78, 0
1, 838464, Control_c, 0, 64, 64
1, 838484, Control_c, 0, 64, 54
1, 838521, Control_c, 0, 64, 63
1, 838539, Control_c, 0, 64, 75
1, 838559, Control_c, 0, 64, 94
1, 838577, Control_c, 0, 64, 120
1, 838595, Control_c, 0, 64, 127
1, 838650, Note_on_c, 0, 72, 0
1, 838784, Note_on_c, 0, 72, 19
1, 838790, Note_on_c, 0, 75, 27
1, 838811, Note_on_c, 0, 69, 0
1, 838811, Note_on_c, 0, 69, 10
1, 838954, Note_on_c, 0, 75, 0
1, 838966, Note_on_c, 0, 72, 0
1, 838978, Note_on_c, 0, 69, 0
1, 839186, Note_on_c, 0, 75, 33
1, 839194, Note_on_c, 0, 72, 20
1, 839207, Note_on_c, 0, 69, 25
1, 839349, Note_on_c, 0, 69, 0
1, 839355, Note_on_c, 0, 72, 0
1, 839364, Note_on_c, 0, 75, 0
1, 839566, Note_on_c, 0, 72, 31
1, 839574, Note_on_c, 0, 69, 29
1, 839579, Note_on_c, 0, 75, 37
1, 839695, Note_on_c, 0, 69, 0
1, 839726, Note_on_c, 0, 75, 0
1, 839735, Note_on_c, 0, 72, 0
1, 839994, Note_on_c, 0, 75, 34
1, 840017, Note_on_c, 0, 67, 34
1, 840020, Note_on_c, 0, 70, 38
1, 840042, Control_c, 0, 64, 121
1, 840059, Control_c, 0, 64, 95
1, 840078, Control_c, 0, 64, 69
1, 840097, Control_c, 0, 64, 57
1, 840134, Control_c, 0, 64, 67
1, 840150, Control_c, 0, 64, 77
1, 840170, Control_c, 0, 64, 96
1, 840188, Control_c, 0, 64, 120
1, 840206, Control_c, 0, 64, 127
1, 840211, Note_on_c, 0, 67, 0
1, 840235, Note_on_c, 0, 70, 0
1, 840263, Note_on_c, 0, 75, 0
1, 840393, Note_on_c, 0, 70, 46
1, 840400, Note_on_c, 0, 75, 39
1, 840401, Note_on_c, 0, 67, 41
1, 840474, Note_on_c, 0, 77, 0
1, 840530, Note_on_c, 0, 70, 0
1, 840536, Note_on_c, 0, 67, 0
1, 840613, Note_on_c, 0, 75, 0
1, 840734, Control_c, 0, 67, 119
1, 840773, Control_c, 0, 67, 115
1, 840798, Note_on_c, 0, 77, 70
1, 840809, Control_c, 0, 67, 111
1, 840828, Note_on_c, 0, 70, 33
1, 840846, Control_c, 0, 67, 104
1, 840854, Note_on_c, 0, 67, 29
1, 840865, Control_c, 0, 67, 96
1, 840884, Control_c, 0, 67, 82
1, 840901, Control_c, 0, 67, 62
1, 840920, Control_c, 0, 67, 40
1, 840939, Control_c, 0, 67, 20
1, 840976, Control_c, 0, 67, 0
1, 840992, Note_on_c, 0, 67, 0
1, 841010, Note_on_c, 0, 70, 0
1, 841207, Note_on_c, 0, 75, 45
1, 841212, Note_on_c, 0, 67, 33
1, 841220, Note_on_c, 0, 70, 42
1, 841251, Note_on_c, 0, 77, 0
1, 841303, Note_on_c, 0, 67, 0
1, 841321, Note_on_c, 0, 70, 0
1, 841333, Note_on_c, 0, 75, 0
1, 841570, Control_c, 0, 67, 10
1, 841587, Control_c, 0, 67, 16
1, 841624, Control_c, 0, 67, 20
1, 841669, Note_on_c, 0, 77, 64
1, 841695, Note_on_c, 0, 69, 37
1, 841698, Note_on_c, 0, 65, 35
1, 841764, Control_c, 0, 64, 113
1, 841783, Control_c, 0, 64, 80
1, 841801, Control_c, 0, 64, 48
1, 841819, Control_c, 0, 64, 35
1, 841874, Control_c, 0, 64, 53
1, 841893, Control_c, 0, 64, 70
1, 841912, Control_c, 0, 64, 91
1, 841917, Note_on_c, 0, 65, 0
1, 841923, Note_on_c, 0, 69, 0
1, 841930, Control_c, 0, 64, 120
1, 841948, Control_c, 0, 64, 127
1, 842004, Control_c, 0, 67, 16
1, 842026, Note_on_c, 0, 77, 0
1, 842079, Note_on_c, 0, 65, 38
1, 842080, Note_on_c, 0, 75, 39
1, 842092, Note_on_c, 0, 69, 43
1, 842184, Note_on_c, 0, 69, 0
1, 842238, Note_on_c, 0, 65, 0
1, 842355, Poly_aftertouch_c, 0, 75, 24
1, 842423, Note_on_c, 0, 75, 0
1, 842423, Poly_aftertouch_c, 0, 75, 0
1, 842560, Note_on_c, 0, 87, 65
1, 842592, Note_on_c, 0, 65, 21
1, 842596, Note_on_c, 0, 69, 37
1, 842627, Poly_aftertouch_c, 0, 75, 0
1, 842705, Note_on_c, 0, 87, 0
1, 842745, Note_on_c, 0, 69, 0
1, 842759, Note_on_c, 0, 65, 0
1, 843014, Note_on_c, 0, 69, 35
1, 843016, Note_on_c, 0, 65, 26
1, 843026, Note_on_c, 0, 75, 30
1, 843125, Control_c, 0, 67, 20
1, 843216, Note_on_c, 0, 69, 0
1, 843225, Note_on_c, 0, 65, 0
1, 843254, Control_c, 0, 67, 24
1, 843444, Note_on_c, 0, 86, 68
1, 843460, Control_c, 0, 67, 28
1, 843493, Note_on_c, 0, 69, 33
1, 843509, Note_on_c, 0, 65, 18
1, 843525, Note_on_c, 0, 75, 0
1, 843639, Note_on_c, 0, 86, 0
1, 843681, Note_on_c, 0, 65, 0
1, 843684, Note_on_c, 0, 69, 0
1, 843852, Note_on_c, 0, 69, 39
1, 843864, Note_on_c, 0, 65, 33
1, 843882, Note_on_c, 0, 75, 33
1, 844072, Note_on_c, 0, 65, 0
1, 844099, Note_on_c, 0, 75, 0
1, 844112, Note_on_c, 0, 69, 0
1, 844246, Note_on_c, 0, 84, 73
1, 844278, Note_on_c, 0, 69, 35
1, 844291, Note_on_c, 0, 65, 35
1, 844428, Note_on_c, 0, 65, 0
1, 844434, Note_on_c, 0, 69, 0
1, 844676, Note_on_c, 0, 69, 42
1, 844678, Note_on_c, 0, 65, 33
1, 844703, Note_on_c, 0, 75, 38
1, 844755, Control_c, 0, 67, 34
1, 844759, Note_on_c, 0, 69, 0
1, 844762, Note_on_c, 0, 65, 0
1, 844774, Control_c, 0, 67, 42
1, 844794, Control_c, 0, 67, 49
1, 844853, Note_on_c, 0, 84, 0
1, 844866, Control_c, 0, 67, 53
1, 844869, Note_on_c, 0, 75, 0
1, 845114, Note_on_c, 0, 82, 69
1, 845134, Note_on_c, 0, 70, 40
1, 845142, Note_on_c, 0, 67, 41
1, 845219, Control_c, 0, 64, 119
1, 845236, Control_c, 0, 64, 89
1, 845256, Control_c, 0, 64, 59
1, 845275, Control_c, 0, 64, 49
1, 845312, Control_c, 0, 64, 56
1, 845330, Control_c, 0, 64, 65
1, 845350, Control_c, 0, 64, 78
1, 845351, Control_c, 0, 67, 57
1, 845367, Control_c, 0, 64, 98
1, 845394, Control_c, 0, 64, 120
1, 845412, Control_c, 0, 64, 127
1, 845419, Note_on_c, 0, 70, 0
1, 845430, Note_on_c, 0, 67, 0
1, 845430, Control_c, 0, 67, 63
1, 845451, Control_c, 0, 67, 67
1, 845468, Control_c, 0, 67, 71
1, 845487, Control_c, 0, 67, 76
1, 845524, Control_c, 0, 67, 80
1, 845547, Note_on_c, 0, 75, 45
1, 845558, Note_on_c, 0, 70, 38
1, 845567, Note_on_c, 0, 67, 25
1, 845673, Control_c, 0, 67, 85
1, 845728, Note_on_c, 0, 67, 0
1, 845744, Note_on_c, 0, 70, 0
1, 845746, Control_c, 0, 67, 89
1, 845767, Note_on_c, 0, 75, 0
1, 845783, Control_c, 0, 67, 93
1, 845857, Control_c, 0, 67, 97
1, 845950, Control_c, 0, 67, 102
1, 845957, Note_on_c, 0, 79, 59
1, 845985, Note_on_c, 0, 70, 31
1, 846007, Note_on_c, 0, 67, 20
1, 846083, Note_on_c, 0, 82, 0
1, 846099, Control_c, 0, 67, 106
1, 846154, Control_c, 0, 67, 110
1, 846155, Note_on_c, 0, 67, 0
1, 846181, Note_on_c, 0, 70, 0
1, 846229, Control_c, 0, 67, 114
1, 846303, Control_c, 0, 67, 118
1, 846369, Control_c, 0, 67, 123
1, 846397, Note_on_c, 0, 70, 31
1, 846404, Control_c, 0, 67, 127
1, 846405, Note_on_c, 0, 67, 31
1, 846423, Note_on_c, 0, 75, 31
1, 846542, Note_on_c, 0, 67, 0
1, 846587, Note_on_c, 0, 75, 0
1, 846605, Note_on_c, 0, 70, 0
1, 846909, Note_on_c, 0, 77, 44
1, 846913, Note_on_c, 0, 70, 28
1, 846953, Note_on_c, 0, 75, 27
1, 846997, Control_c, 0, 64, 101
1, 847016, Control_c, 0, 64, 74
1, 847034, Control_c, 0, 64, 51
1, 847053, Control_c, 0, 64, 46
1, 847094, Note_on_c, 0, 79, 0
1, 847107, Control_c, 0, 64, 56
1, 847126, Control_c, 0, 64, 67
1, 847145, Control_c, 0, 64, 83
1, 847147, Note_on_c, 0, 75, 0
1, 847164, Control_c, 0, 64, 103
1, 847182, Control_c, 0, 64, 121
1, 847200, Control_c, 0, 64, 127
1, 847236, Note_on_c, 0, 70, 0
1, 847380, Note_on_c, 0, 75, 39
1, 847414, Note_on_c, 0, 70, 29
1, 847587, Note_on_c, 0, 75, 0
1, 847611, Note_on_c, 0, 70, 0
1, 847798, Note_on_c, 0, 79, 45
1, 847817, Note_on_c, 0, 70, 26
1, 847823, Note_on_c, 0, 74, 34
1, 847918, Note_on_c, 0, 77, 0
1, 848035, Note_on_c, 0, 70, 0
1, 848052, Note_on_c, 0, 74, 0
1, 848197, Note_on_c, 0, 79, 0
1, 848212, Note_on_c, 0, 80, 62
1, 848213, Note_on_c, 0, 70, 30
1, 848222, Note_on_c, 0, 74, 44
1, 848252, Note_on_c, 0, 80, 0
1, 848345, Note_on_c, 0, 74, 0
1, 848410, Note_on_c, 0, 82, 51
1, 848843, Note_on_c, 0, 75, 43
1, 848855, Note_on_c, 0, 87, 67
1, 848876, Note_on_c, 0, 79, 31
1, 848975, Note_on_c, 0, 82, 0
1, 848980, Control_c, 0, 64, 100
1, 848989, Note_on_c, 0, 70, 0
1, 848997, Control_c, 0, 64, 72
1, 849017, Control_c, 0, 64, 47
1, 849035, Control_c, 0, 64, 40
1, 849108, Note_on_c, 0, 79, 0
1, 849111, Control_c, 0, 64, 52
1, 849137, Control_c, 0, 64, 65
1, 849154, Control_c, 0, 64, 77
1, 849174, Control_c, 0, 64, 93
1, 849192, Control_c, 0, 64, 112
1, 849212, Control_c, 0, 64, 127
1, 849313, Note_on_c, 0, 82, 34
1, 849335, Note_on_c, 0, 79, 29
1, 849556, Note_on_c, 0, 79, 0
1, 849569, Note_on_c, 0, 82, 0
1, 849722, Note_on_c, 0, 82, 38
1, 849742, Note_on_c, 0, 79, 32
1, 849809, Note_on_c, 0, 75, 0
1, 849952, Note_on_c, 0, 87, 0
1, 849981, Note_on_c, 0, 82, 0
1, 849985, Note_on_c, 0, 79, 0
1, 850109, Note_on_c, 0, 87, 60
1, 850131, Note_on_c, 0, 79, 38
1, 850136, Note_on_c, 0, 82, 40
1, 850294, Control_c, 0, 67, 122
1, 850331, Control_c, 0, 67, 116
1, 850341, Note_on_c, 0, 82, 0
1, 850357, Note_on_c, 0, 79, 0
1, 850368, Control_c, 0, 67, 111
1, 850388, Control_c, 0, 67, 106
1, 850407, Control_c, 0, 67, 99
1, 850426, Control_c, 0, 67, 90
1, 850441, Control_c, 0, 67, 79
1, 850461, Control_c, 0, 67, 66
1, 850481, Control_c, 0, 67, 53
1, 850498, Control_c, 0, 67, 40
1, 850517, Control_c, 0, 67, 29
1, 850535, Control_c, 0, 67, 18
1, 850548, Note_on_c, 0, 85, 65
1, 850554, Control_c, 0, 67, 9
1, 850591, Control_c, 0, 67, 0
1, 850592, Note_on_c, 0, 79, 26
1, 850596, Note_on_c, 0, 82, 38
1, 850766, Note_on_c, 0, 87, 0
1, 850766, Note_on_c, 0, 82, 0
1, 850792, Note_on_c, 0, 79, 0
1, 850938, Note_on_c, 0, 82, 38
1, 850949, Note_on_c, 0, 79, 34
1, 851161, Note_on_c, 0, 79, 0
1, 851169, Note_on_c, 0, 82, 0
1, 851333, Note_on_c, 0, 82, 40
1, 851342, Note_on_c, 0, 79, 39
1, 851565, Note_on_c, 0, 85, 0
1, 851571, Note_on_c, 0, 82, 0
1, 851606, Note_on_c, 0, 79, 0
1, 851699, Note_on_c, 0, 85, 69
1, 851726, Note_on_c, 0, 82, 51
1, 851748, Note_on_c, 0, 79, 35
1, 851957, Note_on_c, 0, 82, 0
1, 851971, Note_on_c, 0, 79, 0
1, 852277, Note_on_c, 0, 64, 59
1, 852296, Note_on_c, 0, 84, 57
1, 852337, Note_on_c, 0, 79, 24
1, 852435, Note_on_c, 0, 85, 0
1, 852482, Control_c, 0, 64, 121
1, 852499, Control_c, 0, 64, 98
1, 852518, Control_c, 0, 64, 71
1, 852537, Poly_aftertouch_c, 0, 82, 0
1, 852537, Control_c, 0, 64, 56
1, 852574, Control_c, 0, 64, 61
1, 852591, Control_c, 0, 64, 69
1, 852599, Note_on_c, 0, 79, 0
1, 852611, Control_c, 0, 64, 83
1, 852630, Control_c, 0, 64, 103
1, 852649, Control_c, 0, 64, 125
1, 852739, Note_on_c, 0, 82, 39
1, 852744, Note_on_c, 0, 79, 34
1, 853000, Note_on_c, 0, 82, 0
1, 853012, Note_on_c, 0, 79, 0
1, 853154, Note_on_c, 0, 79, 38
1, 853163, Note_on_c, 0, 82, 38
1, 853362, Note_on_c, 0, 82, 0
1, 853370, Note_on_c, 0, 64, 0
1, 853388, Note_on_c, 0, 79, 0
1, 853505, Note_on_c, 0, 64, 60
1, 853518, Note_on_c, 0, 79, 44
1, 853519, Note_on_c, 0, 82, 44
1, 853673, Note_on_c, 0, 79, 0
1, 853675, Note_on_c, 0, 82, 0
1, 853970, Note_on_c, 0, 62, 66
1, 853976, Note_on_c, 0, 82, 45
1, 853982, Note_on_c, 0, 77, 38
1, 854038, Control_c, 0, 64, 119
1, 854056, Control_c, 0, 64, 86
1, 854074, Control_c, 0, 64, 50
1, 854093, Control_c, 0, 64, 19
1, 854112, Control_c, 0, 64, 14
1, 854113, Note_on_c, 0, 64, 0
1, 854185, Control_c, 0, 64, 28
1, 854205, Control_c, 0, 64, 51
1, 854222, Control_c, 0, 64, 77
1, 854241, Control_c, 0, 64, 99
1, 854242, Note_on_c, 0, 82, 0
1, 854258, Control_c, 0, 64, 121
1, 854271, Note_on_c, 0, 77, 0
1, 854278, Control_c, 0, 64, 127
1, 854391, Note_on_c, 0, 82, 55
1, 854392, Note_on_c, 0, 77, 55
1, 854555, Note_on_c, 0, 84, 0
1, 854627, Note_on_c, 0, 77, 0
1, 854637, Note_on_c, 0, 82, 0
1, 854791, Note_on_c, 0, 84, 74
1, 854842, Note_on_c, 0, 82, 31
1, 854843, Note_on_c, 0, 77, 36
1, 854974, Note_on_c, 0, 82, 0
1, 855000, Note_on_c, 0, 77, 0
1, 855064, Note_on_c, 0, 62, 0
1, 855171, Note_on_c, 0, 62, 74
1, 855179, Note_on_c, 0, 82, 54
1, 855182, Note_on_c, 0, 77, 46
1, 855314, Note_on_c, 0, 84, 0
1, 855340, Note_on_c, 0, 77, 0
1, 855376, Note_on_c, 0, 82, 0
1, 855718, Note_on_c, 0, 60, 71
1, 855745, Note_on_c, 0, 84, 63
1, 855787, Note_on_c, 0, 76, 39
1, 855816, Control_c, 0, 64, 113
1, 855836, Control_c, 0, 64, 81
1, 855839, Note_on_c, 0, 62, 0
1, 855853, Control_c, 0, 64, 42
1, 855871, Control_c, 0, 64, 0
1, 855964, Control_c, 0, 64, 14
1, 855978, Note_on_c, 0, 76, 0
1, 855983, Control_c, 0, 64, 45
1, 856001, Control_c, 0, 64, 72
1, 856021, Control_c, 0, 64, 97
1, 856039, Control_c, 0, 64, 127
1, 856072, Note_on_c, 0, 84, 0
1, 856072, Note_on_c, 0, 82, 71
1, 856132, Note_on_c, 0, 82, 0
1, 856144, Note_on_c, 0, 60, 0
1, 856156, Note_on_c, 0, 76, 52
1, 856233, Note_on_c, 0, 82, 70
1, 856235, Note_on_c, 0, 76, 0
1, 856473, Note_on_c, 0, 60, 40
1, 856595, Note_on_c, 0, 94, 80
1, 856639, Note_on_c, 0, 82, 0
1, 856744, Note_on_c, 0, 94, 0
1, 856911, Poly_aftertouch_c, 0, 86, 0
1, 856964, Note_on_c, 0, 76, 38
1, 857000, Note_on_c, 0, 76, 0
1, 857059, Note_on_c, 0, 77, 55
1, 857137, Note_on_c, 0, 82, 63
1, 857147, Note_on_c, 0, 77, 0
1, 857332, Note_on_c, 0, 62, 52
1, 857371, Note_on_c, 0, 93, 78
1, 857413, Note_on_c, 0, 82, 0
1, 857417, Control_c, 0, 64, 101
1, 857436, Control_c, 0, 64, 68
1, 857438, Note_on_c, 0, 60, 0
1, 857456, Control_c, 0, 64, 53
1, 857476, Control_c, 0, 64, 55
1, 857493, Control_c, 0, 64, 63
1, 857512, Control_c, 0, 64, 74
1, 857533, Control_c, 0, 64, 91
1, 857557, Control_c, 0, 64, 116
1, 857564, Note_on_c, 0, 93, 0
1, 857575, Control_c, 0, 64, 127
1, 857714, Note_on_c, 0, 82, 53
1, 857739, Note_on_c, 0, 82, 0
1, 857789, Poly_aftertouch_c, 0, 77, 0
1, 857800, Note_on_c, 0, 79, 62
1, 857895, Note_on_c, 0, 82, 49
1, 857974, Note_on_c, 0, 79, 0
1, 857982, Control_c, 0, 67, 8
1, 858099, Note_on_c, 0, 64, 41
1, 858131, Control_c, 0, 67, 12
1, 858165, Note_on_c, 0, 91, 70
1, 858207, Control_c, 0, 64, 115
1, 858207, Control_c, 0, 67, 16
1, 858224, Control_c, 0, 64, 87
1, 858243, Control_c, 0, 64, 60
1, 858251, Note_on_c, 0, 82, 0
1, 858258, Note_on_c, 0, 62, 0
1, 858261, Control_c, 0, 64, 47
1, 858280, Control_c, 0, 67, 21
1, 858297, Control_c, 0, 64, 55
1, 858316, Control_c, 0, 64, 66
1, 858335, Control_c, 0, 64, 80
1, 858336, Control_c, 0, 67, 25
1, 858354, Control_c, 0, 64, 101
1, 858373, Control_c, 0, 64, 127
1, 858391, Control_c, 0, 67, 29
1, 858447, Control_c, 0, 67, 34
1, 858492, Control_c, 0, 67, 39
1, 858529, Control_c, 0, 67, 44
1, 858548, Control_c, 0, 67, 52
1, 858566, Control_c, 0, 67, 61
1, 858574, Note_on_c, 0, 82, 27
1, 858580, Note_on_c, 0, 79, 29
1, 858584, Control_c, 0, 67, 69
1, 858603, Control_c, 0, 67, 75
1, 858616, Note_on_c, 0, 64, 0
1, 858621, Control_c, 0, 67, 79
1, 858660, Control_c, 0, 67, 84
1, 858685, Note_on_c, 0, 91, 0
1, 858714, Control_c, 0, 67, 89
1, 858789, Note_on_c, 0, 79, 0
1, 858789, Control_c, 0, 67, 93
1, 858800, Note_on_c, 0, 82, 0
1, 858827, Control_c, 0, 67, 97
1, 858899, Control_c, 0, 67, 101
1, 859099, Note_on_c, 0, 89, 63
1, 859137, Note_on_c, 0, 65, 20
1, 859271, Control_c, 0, 64, 106
1, 859274, Poly_aftertouch_c, 0, 82, 0
1, 859289, Control_c, 0, 64, 76
1, 859308, Control_c, 0, 64, 49
1, 859318, Poly_aftertouch_c, 0, 77, 0
1, 859326, Control_c, 0, 64, 37
1, 859383, Control_c, 0, 64, 44
1, 859402, Control_c, 0, 64, 56
1, 859428, Control_c, 0, 64, 70
1, 859447, Control_c, 0, 64, 85
1, 859465, Control_c, 0, 64, 102
1, 859483, Control_c, 0, 64, 117
1, 859484, Control_c, 0, 67, 105
1, 859502, Control_c, 0, 64, 127
1, 859579, Control_c, 0, 67, 109
1, 859594, Note_on_c, 0, 77, 35
1, 859603, Note_on_c, 0, 82, 6
1, 859631, Control_c, 0, 67, 113
1, 859707, Control_c, 0, 67, 117
1, 859744, Control_c, 0, 67, 122
1, 859836, Control_c, 0, 67, 127
1, 859964, Poly_aftertouch_c, 0, 82, 24
1, 859990, Note_on_c, 0, 86, 52
1, 860006, Note_on_c, 0, 70, 29
1, 860011, Note_on_c, 0, 82, 0
1, 860011, Poly_aftertouch_c, 0, 82, 0
1, 860055, Note_on_c, 0, 77, 0
1, 860194, Note_on_c, 0, 65, 0
1, 860396, Note_on_c, 0, 82, 33
1, 860411, Note_on_c, 0, 77, 30
1, 860518, Note_on_c, 0, 89, 0
1, 860597, Note_on_c, 0, 77, 0
1, 860608, Note_on_c, 0, 82, 0
1, 860962, Note_on_c, 0, 84, 52
1, 860967, Note_on_c, 0, 75, 43
1, 860999, Note_on_c, 0, 65, 24
1, 861096, Note_on_c, 0, 86, 0
1, 861234, Note_on_c, 0, 70, 0
1, 861432, Note_on_c, 0, 82, 42
1, 861455, Note_on_c, 0, 77, 26
1, 861570, Note_on_c, 0, 65, 0
1, 861586, Note_on_c, 0, 82, 0
1, 861655, Note_on_c, 0, 77, 0
1, 861812, Note_on_c, 0, 86, 53
1, 861818, Note_on_c, 0, 81, 32
1, 861822, Note_on_c, 0, 77, 25
1, 861999, Note_on_c, 0, 81, 0
1, 862004, Note_on_c, 0, 84, 0
1, 862006, Note_on_c, 0, 77, 0
1, 862108, Note_on_c, 0, 74, 43
1, 862255, Note_on_c, 0, 87, 55
1, 862271, Note_on_c, 0, 77, 23
1, 862287, Note_on_c, 0, 81, 27
1, 862361, Note_on_c, 0, 75, 0
1, 862372, Note_on_c, 0, 86, 0
1, 862372, Note_on_c, 0, 72, 59
1, 862376, Note_on_c, 0, 77, 0
1, 862473, Note_on_c, 0, 74, 0
1, 862490, Note_on_c, 0, 81, 0
1, 862858, Note_on_c, 0, 77, 59
1, 862863, Note_on_c, 0, 86, 47
1, 862879, Note_on_c, 0, 65, 26
1, 862975, Note_on_c, 0, 87, 0
1, 863011, Note_on_c, 0, 72, 0
1, 863032, Control_c, 0, 64, 99
1, 863050, Control_c, 0, 64, 71
1, 863069, Control_c, 0, 64, 51
1, 863106, Control_c, 0, 64, 55
1, 863124, Control_c, 0, 64, 64
1, 863144, Control_c, 0, 64, 76
1, 863171, Control_c, 0, 64, 93
1, 863189, Control_c, 0, 64, 117
1, 863208, Control_c, 0, 64, 127
1, 863225, Control_c, 0, 67, 122
1, 863264, Control_c, 0, 67, 115
1, 863282, Control_c, 0, 67, 109
1, 863301, Control_c, 0, 67, 100
1, 863319, Note_on_c, 0, 82, 43
1, 863320, Control_c, 0, 67, 87
1, 863339, Control_c, 0, 67, 72
1, 863355, Control_c, 0, 67, 55
1, 863374, Control_c, 0, 67, 39
1, 863392, Control_c, 0, 67, 25
1, 863412, Control_c, 0, 67, 14
1, 863449, Control_c, 0, 67, 0
1, 863489, Note_on_c, 0, 82, 0
1, 863628, Note_on_c, 0, 77, 0
1, 863718, Note_on_c, 0, 82, 65
1, 863767, Note_on_c, 0, 74, 30
1, 864046, Note_on_c, 0, 65, 0
1, 864170, Note_on_c, 0, 77, 41
1, 864204, Note_on_c, 0, 82, 0
1, 864383, Note_on_c, 0, 77, 0
1, 864719, Note_on_c, 0, 87, 71
1, 864741, Note_on_c, 0, 72, 43
1, 864744, Note_on_c, 0, 65, 33
1, 864822, Note_on_c, 0, 86, 0
1, 864865, Control_c, 0, 64, 123
1, 864884, Control_c, 0, 64, 101
1, 864905, Control_c, 0, 64, 77
1, 864921, Control_c, 0, 64, 62
1, 864924, Note_on_c, 0, 74, 0
1, 864959, Control_c, 0, 64, 69
1, 864976, Poly_aftertouch_c, 0, 77, 0
1, 864978, Control_c, 0, 64, 76
1, 864996, Control_c, 0, 64, 88
1, 865015, Control_c, 0, 64, 104
1, 865042, Control_c, 0, 64, 119
1, 865060, Control_c, 0, 64, 127
1, 865219, Note_on_c, 0, 82, 45
1, 865226, Note_on_c, 0, 77, 41
1, 865342, Note_on_c, 0, 82, 0
1, 865578, Note_on_c, 0, 77, 0
1, 865578, Note_on_c, 0, 77, 6
1, 865580, Note_on_c, 0, 81, 51
1, 865593, Note_on_c, 0, 74, 42
1, 865829, Note_on_c, 0, 86, 73
1, 865892, Note_on_c, 0, 87, 0
1, 865907, Note_on_c, 0, 65, 0
1, 865994, Note_on_c, 0, 75, 58
1, 866060, Note_on_c, 0, 72, 0
1, 866111, Note_on_c, 0, 84, 75
1, 866145, Note_on_c, 0, 81, 0
1, 866159, Note_on_c, 0, 74, 0
1, 866201, Note_on_c, 0, 77, 0
1, 866209, Note_on_c, 0, 86, 0
1, 866535, Note_on_c, 0, 89, 71
1, 866541, Note_on_c, 0, 73, 50
1, 866562, Note_on_c, 0, 65, 34
1, 866603, Note_on_c, 0, 82, 18
1, 866619, Note_on_c, 0, 84, 0
1, 866626, Note_on_c, 0, 77, 26
1, 866682, Control_c, 0, 64, 99
1, 866701, Control_c, 0, 64, 67
1, 866704, Note_on_c, 0, 75, 0
1, 866719, Control_c, 0, 64, 35
1, 866731, Note_on_c, 0, 82, 0
1, 866734, Control_c, 0, 64, 25
1, 866759, Note_on_c, 0, 77, 0
1, 866811, Control_c, 0, 64, 32
1, 866830, Control_c, 0, 64, 49
1, 866849, Control_c, 0, 64, 64
1, 866867, Control_c, 0, 64, 78
1, 866886, Control_c, 0, 64, 92
1, 866912, Control_c, 0, 64, 108
1, 866931, Control_c, 0, 64, 119
1, 866951, Control_c, 0, 64, 127
1, 866985, Note_on_c, 0, 82, 47
1, 867011, Note_on_c, 0, 77, 37
1, 867210, Note_on_c, 0, 77, 0
1, 867375, Note_on_c, 0, 70, 64
1, 867381, Note_on_c, 0, 85, 65
1, 867413, Poly_aftertouch_c, 0, 82, 24
1, 867455, Note_on_c, 0, 82, 0
1, 867455, Poly_aftertouch_c, 0, 82, 0
1, 867456, Poly_aftertouch_c, 0, 82, 0
1, 867589, Note_on_c, 0, 73, 0
1, 867617, Note_on_c, 0, 65, 0
1, 867670, Note_on_c, 0, 89, 0
1, 867781, Note_on_c, 0, 82, 54
1, 867786, Note_on_c, 0, 77, 58
1, 868015, Note_on_c, 0, 77, 0
1, 868027, Note_on_c, 0, 82, 0
1, 868360, Note_on_c, 0, 75, 68
1, 868372, Note_on_c, 0, 84, 61
1, 868375, Note_on_c, 0, 65, 50
1, 868375, Note_on_c, 0, 77, 41
1, 868410, Note_on_c, 0, 82, 41
1, 868479, Control_c, 0, 64, 108
1, 868497, Control_c, 0, 64, 79
1, 868516, Control_c, 0, 64, 45
1, 868523, Note_on_c, 0, 85, 0
1, 868525, Note_on_c, 0, 70, 0
1, 868589, Control_c, 0, 64, 0
1, 868627, Control_c, 0, 64, 11
1, 868645, Control_c, 0, 64, 34
1, 868664, Control_c, 0, 64, 58
1, 868683, Control_c, 0, 64, 82
1, 868690, Note_on_c, 0, 82, 0
1, 868696, Note_on_c, 0, 77, 0
1, 868703, Control_c, 0, 64, 99
1, 868721, Control_c, 0, 64, 114
1, 868738, Control_c, 0, 64, 126
1, 868824, Note_on_c, 0, 82, 48
1, 868839, Note_on_c, 0, 77, 48
1, 869027, Note_on_c, 0, 82, 0
1, 869043, Note_on_c, 0, 77, 0
1, 869177, Note_on_c, 0, 85, 67
1, 869213, Note_on_c, 0, 77, 36
1, 869224, Note_on_c, 0, 81, 42
1, 869273, Note_on_c, 0, 84, 0
1, 869416, Note_on_c, 0, 81, 0
1, 869429, Note_on_c, 0, 77, 0
1, 869456, Note_on_c, 0, 73, 61
1, 869598, Note_on_c, 0, 87, 67
1, 869600, Note_on_c, 0, 81, 56
1, 869601, Note_on_c, 0, 77, 47
1, 869665, Note_on_c, 0, 65, 0
1, 869666, Note_on_c, 0, 85, 0
1, 869727, Note_on_c, 0, 72, 69
1, 869809, Note_on_c, 0, 73, 0
1, 869849, Note_on_c, 0, 75, 0
1, 869868, Note_on_c, 0, 81, 0
1, 869908, Note_on_c, 0, 77, 0
1, 870196, Note_on_c, 0, 85, 58
1, 870212, Note_on_c, 0, 80, 43
1, 870220, Note_on_c, 0, 65, 42
1, 870222, Note_on_c, 0, 77, 37
1, 870225, Note_on_c, 0, 73, 60
1, 870328, Note_on_c, 0, 87, 0
1, 870348, Note_on_c, 0, 72, 0
1, 870350, Control_c, 0, 64, 108
1, 870369, Control_c, 0, 64, 81
1, 870388, Control_c, 0, 64, 51
1, 870407, Control_c, 0, 64, 26
1, 870424, Control_c, 0, 64, 21
1, 870479, Control_c, 0, 64, 30
1, 870497, Control_c, 0, 64, 48
1, 870514, Note_on_c, 0, 80, 0
1, 870515, Control_c, 0, 64, 69
1, 870535, Control_c, 0, 64, 85
1, 870539, Note_on_c, 0, 77, 0
1, 870554, Control_c, 0, 64, 100
1, 870573, Control_c, 0, 64, 112
1, 870591, Control_c, 0, 64, 125
1, 870680, Note_on_c, 0, 80, 54
1, 870692, Note_on_c, 0, 77, 61
1, 870780, Note_on_c, 0, 77, 0
1, 870921, Note_on_c, 0, 73, 0
1, 871079, Note_on_c, 0, 84, 71
1, 871089, Note_on_c, 0, 68, 52
1, 871090, Note_on_c, 0, 73, 41
1, 871145, Note_on_c, 0, 80, 0
1, 871158, Note_on_c, 0, 85, 0
1, 871329, Note_on_c, 0, 73, 0
1, 871411, Note_on_c, 0, 65, 0
1, 871479, Note_on_c, 0, 82, 75
1, 871499, Note_on_c, 0, 73, 54
1, 871599, Note_on_c, 0, 84, 0
1, 871674, Note_on_c, 0, 73, 0
1, 872027, Note_on_c, 0, 79, 68
1, 872042, Note_on_c, 0, 63, 39
1, 872045, Note_on_c, 0, 73, 34
1, 872066, Note_on_c, 0, 70, 41
1, 872203, Note_on_c, 0, 82, 0
1, 872240, Control_c, 0, 64, 107
1, 872260, Control_c, 0, 64, 79
1, 872275, Control_c, 0, 64, 47
1, 872294, Control_c, 0, 64, 20
1, 872304, Note_on_c, 0, 68, 0
1, 872312, Control_c, 0, 64, 13
1, 872317, Note_on_c, 0, 73, 0
1, 872369, Control_c, 0, 64, 20
1, 872387, Control_c, 0, 64, 42
1, 872407, Control_c, 0, 64, 68
1, 872424, Control_c, 0, 64, 91
1, 872443, Control_c, 0, 64, 115
1, 872463, Control_c, 0, 64, 127
1, 872464, Note_on_c, 0, 73, 46
1, 872595, Note_on_c, 0, 73, 0
1, 872806, Note_on_c, 0, 80, 65
1, 872837, Note_on_c, 0, 73, 32
1, 873051, Note_on_c, 0, 73, 0
1, 873095, Note_on_c, 0, 68, 44
1, 873193, Note_on_c, 0, 82, 73
1, 873215, Note_on_c, 0, 73, 41
1, 873268, Note_on_c, 0, 80, 0
1, 873268, Note_on_c, 0, 79, 0
1, 873302, Note_on_c, 0, 63, 0
1, 873345, Note_on_c, 0, 67, 55
1, 873375, Note_on_c, 0, 73, 0
1, 873417, Note_on_c, 0, 68, 0
1, 873544, Note_on_c, 0, 70, 0
1, 873795, Note_on_c, 0, 85, 73
1, 873812, Note_on_c, 0, 68, 36
1, 873834, Note_on_c, 0, 64, 38
1, 873903, Note_on_c, 0, 67, 0
1, 873904, Note_on_c, 0, 82, 0
1, 873963, Control_c, 0, 64, 113
1, 873983, Control_c, 0, 64, 82
1, 874001, Control_c, 0, 64, 50
1, 874018, Control_c, 0, 64, 20
1, 874036, Control_c, 0, 64, 11
1, 874111, Control_c, 0, 64, 20
1, 874132, Control_c, 0, 64, 41
1, 874147, Control_c, 0, 64, 65
1, 874165, Control_c, 0, 64, 83
1, 874184, Control_c, 0, 64, 96
1, 874202, Control_c, 0, 64, 108
1, 874221, Control_c, 0, 64, 120
1, 874239, Control_c, 0, 64, 127
1, 874270, Note_on_c, 0, 73, 27
1, 874351, Note_on_c, 0, 68, 0
1, 874377, Note_on_c, 0, 73, 0
1, 874638, Note_on_c, 0, 80, 60
1, 874673, Note_on_c, 0, 68, 32
1, 874681, Note_on_c, 0, 73, 26
1, 874821, Note_on_c, 0, 73, 0
1, 875025, Note_on_c, 0, 64, 0
1, 875065, Note_on_c, 0, 73, 38
1, 875066, Control_c, 0, 67, 9
1, 875091, Note_on_c, 0, 85, 0
1, 875154, Note_on_c, 0, 73, 0
1, 875194, Control_c, 0, 67, 13
1, 875576, Note_on_c, 0, 79, 57
1, 875597, Note_on_c, 0, 73, 31
1, 875615, Note_on_c, 0, 70, 31
1, 875621, Note_on_c, 0, 63, 29
1, 875732, Note_on_c, 0, 80, 0
1, 875759, Control_c, 0, 64, 110
1, 875779, Control_c, 0, 64, 77
1, 875797, Control_c, 0, 64, 46
1, 875812, Note_on_c, 0, 68, 0
1, 875815, Control_c, 0, 64, 27
1, 875871, Control_c, 0, 64, 38
1, 875889, Control_c, 0, 64, 57
1, 875893, Note_on_c, 0, 73, 0
1, 875907, Control_c, 0, 64, 77
1, 875927, Control_c, 0, 64, 94
1, 875945, Control_c, 0, 64, 112
1, 875963, Control_c, 0, 64, 126
1, 876047, Note_on_c, 0, 73, 34
1, 876165, Note_on_c, 0, 73, 0
1, 876398, Note_on_c, 0, 80, 57
1, 876434, Note_on_c, 0, 73, 35
1, 876656, Note_on_c, 0, 73, 0
1, 876715, Note_on_c, 0, 68, 36
1, 876797, Note_on_c, 0, 82, 64
1, 876905, Note_on_c, 0, 80, 0
1, 876907, Note_on_c, 0, 63, 0
1, 876910, Note_on_c, 0, 79, 0
1, 876962, Note_on_c, 0, 67, 46
1, 877014, Poly_aftertouch_c, 0, 73, 0
1, 877049, Note_on_c, 0, 68, 0
1, 877085, Note_on_c, 0, 70, 0
1, 877195, Control_c, 0, 67, 17
1, 877424, Note_on_c, 0, 85, 64
1, 877445, Note_on_c, 0, 68, 30
1, 877446, Note_on_c, 0, 64, 33
1, 877528, Note_on_c, 0, 67, 0
1, 877542, Note_on_c, 0, 82, 0
1, 877574, Control_c, 0, 64, 100
1, 877594, Control_c, 0, 64, 70
1, 877612, Control_c, 0, 64, 40
1, 877631, Control_c, 0, 64, 25
1, 877632, Control_c, 0, 67, 21
1, 877703, Control_c, 0, 64, 38
1, 877722, Control_c, 0, 64, 57
1, 877742, Control_c, 0, 64, 78
1, 877760, Control_c, 0, 64, 94
1, 877778, Control_c, 0, 64, 110
1, 877797, Control_c, 0, 64, 120
1, 877817, Control_c, 0, 64, 127
1, 877883, Note_on_c, 0, 73, 36
1, 877919, Note_on_c, 0, 68, 0
1, 877993, Note_on_c, 0, 73, 0
1, 878074, Control_c, 0, 67, 28
1, 878093, Control_c, 0, 67, 35
1, 878112, Control_c, 0, 67, 41
1, 878130, Control_c, 0, 67, 46
1, 878177, Control_c, 0, 67, 53
1, 878196, Control_c, 0, 67, 57
1, 878214, Control_c, 0, 67, 63
1, 878234, Control_c, 0, 67, 69
1, 878252, Control_c, 0, 67, 75
1, 878268, Control_c, 0, 67, 81
1, 878287, Control_c, 0, 67, 89
1, 878289, Note_on_c, 0, 80, 50
1, 878306, Control_c, 0, 67, 96
1, 878313, Note_on_c, 0, 73, 26
1, 878324, Control_c, 0, 67, 103
1, 878341, Note_on_c, 0, 68, 27
1, 878346, Control_c, 0, 67, 111
1, 878363, Control_c, 0, 67, 115
1, 878400, Control_c, 0, 67, 122
1, 878436, Note_on_c, 0, 85, 0
1, 878436, Control_c, 0, 67, 127
1, 878547, Note_on_c, 0, 73, 0
1, 878594, Note_on_c, 0, 64, 0
1, 878745, Note_on_c, 0, 73, 31
1, 878959, Note_on_c, 0, 73, 0
1, 879330, Note_on_c, 0, 79, 45
1, 879351, Note_on_c, 0, 63, 24
1, 879355, Note_on_c, 0, 70, 26
1, 879364, Note_on_c, 0, 73, 10
1, 879399, Poly_aftertouch_c, 0, 82, 0
1, 879433, Note_on_c, 0, 80, 0
1, 879503, Control_c, 0, 64, 107
1, 879520, Control_c, 0, 64, 79
1, 879531, Note_on_c, 0, 68, 0
1, 879539, Control_c, 0, 64, 50
1, 879559, Control_c, 0, 64, 31
1, 879623, Note_on_c, 0, 73, 0
1, 879630, Control_c, 0, 64, 44
1, 879650, Control_c, 0, 64, 59
1, 879668, Control_c, 0, 64, 77
1, 879688, Control_c, 0, 64, 92
1, 879706, Control_c, 0, 64, 108
1, 879724, Control_c, 0, 64, 121
1, 879743, Control_c, 0, 64, 127
1, 879794, Note_on_c, 0, 73, 25
1, 879972, Note_on_c, 0, 73, 0
1, 880213, Note_on_c, 0, 80, 41
1, 880221, Note_on_c, 0, 73, 31
1, 880446, Note_on_c, 0, 73, 0
1, 880583, Note_on_c, 0, 68, 31
1, 880653, Note_on_c, 0, 82, 54
1, 880663, Note_on_c, 0, 73, 27
1, 880701, Note_on_c, 0, 63, 0
1, 880758, Note_on_c, 0, 79, 0
1, 880773, Note_on_c, 0, 80, 0
1, 880861, Note_on_c, 0, 67, 39
1, 880925, Note_on_c, 0, 68, 0
1, 880949, Note_on_c, 0, 73, 0
1, 881071, Note_on_c, 0, 70, 0
1, 881408, Note_on_c, 0, 85, 54
1, 881414, Note_on_c, 0, 64, 21
1, 881428, Note_on_c, 0, 68, 29
1, 881490, Note_on_c, 0, 67, 0
1, 881515, Note_on_c, 0, 82, 0
1, 881539, Control_c, 0, 64, 113
1, 881559, Control_c, 0, 64, 89
1, 881578, Control_c, 0, 64, 62
1, 881595, Control_c, 0, 64, 41
1, 881615, Control_c, 0, 64, 35
1, 881618, Poly_aftertouch_c, 0, 73, 0
1, 881687, Control_c, 0, 64, 47
1, 881707, Control_c, 0, 64, 60
1, 881724, Control_c, 0, 64, 76
1, 881746, Control_c, 0, 64, 90
1, 881763, Control_c, 0, 64, 107
1, 881781, Control_c, 0, 64, 121
1, 881799, Control_c, 0, 64, 127
1, 881912, Note_on_c, 0, 73, 27
1, 882040, Note_on_c, 0, 68, 0
1, 882119, Note_on_c, 0, 73, 0
1, 882346, Note_on_c, 0, 80, 44
1, 882393, Note_on_c, 0, 68, 29
1, 882410, Note_on_c, 0, 73, 14
1, 882600, Note_on_c, 0, 73, 0
1, 882630, Note_on_c, 0, 85, 0
1, 882743, Note_on_c, 0, 64, 0
1, 882914, Note_on_c, 0, 73, 26
1, 883153, Note_on_c, 0, 73, 0
1, 883869, Note_on_c, 0, 79, 29
1, 883880, Note_on_c, 0, 73, 21
1, 883901, Note_on_c, 0, 63, 20
1, 883907, Note_on_c, 0, 70, 21
1, 884085, Note_on_c, 0, 68, 0
1, 884085, Control_c, 0, 64, 122
1, 884093, Note_on_c, 0, 80, 0
1, 884105, Control_c, 0, 64, 98
1, 884124, Control_c, 0, 64, 68
1, 884142, Control_c, 0, 64, 36
1, 884161, Control_c, 0, 64, 12
1, 884180, Control_c, 0, 64, 8
1, 884198, Control_c, 0, 64, 0
1, 884291, Control_c, 0, 64, 26
1, 884309, Control_c, 0, 64, 43
1, 884327, Control_c, 0, 64, 57
1, 884346, Control_c, 0, 64, 75
1, 884365, Control_c, 0, 64, 90
1, 884383, Control_c, 0, 64, 107
1, 884402, Control_c, 0, 64, 123
1, 884420, Control_c, 0, 64, 127
1, 884742, Poly_aftertouch_c, 0, 63, 20
1, 884768, Note_on_c, 0, 63, 0
1, 884768, Poly_aftertouch_c, 0, 63, 0
1, 884891, Note_on_c, 0, 73, 0
1, 885177, Note_on_c, 0, 70, 0
1, 885484, Note_on_c, 0, 87, 58
1, 885721, Note_on_c, 0, 79, 0
1, 885960, Note_on_c, 0, 75, 24
1, 886124, Note_on_c, 0, 87, 0
1, 886311, Note_on_c, 0, 79, 39
1, 886807, Note_on_c, 0, 84, 64
1, 886807, Note_on_c, 0, 80, 54
1, 886816, Note_on_c, 0, 27, 33
1, 886820, Note_on_c, 0, 75, 0
1, 886826, Note_on_c, 0, 39, 42
1, 886858, Note_on_c, 0, 79, 0
1, 887171, Note_on_c, 0, 84, 0
1, 887238, Note_on_c, 0, 72, 35
1, 887486, Note_on_c, 0, 80, 0
1, 887537, Note_on_c, 0, 76, 39
1, 887600, Note_on_c, 0, 72, 0
1, 887864, Note_on_c, 0, 80, 64
1, 887883, Note_on_c, 0, 77, 48
1, 887942, Note_on_c, 0, 76, 0
1, 888083, Note_on_c, 0, 80, 0
1, 888163, Note_on_c, 0, 77, 0
1, 888168, Note_on_c, 0, 68, 33
1, 888451, Note_on_c, 0, 72, 50
1, 888635, Note_on_c, 0, 68, 0
1, 888736, Note_on_c, 0, 77, 70
1, 888739, Note_on_c, 0, 73, 50
1, 888774, Note_on_c, 0, 72, 0
1, 888978, Note_on_c, 0, 77, 0
1, 889001, Note_on_c, 0, 65, 51
1, 889139, Note_on_c, 0, 73, 0
1, 889265, Note_on_c, 0, 69, 56
1, 889359, Note_on_c, 0, 65, 0
1, 889561, Note_on_c, 0, 73, 68
1, 889578, Note_on_c, 0, 70, 57
1, 889629, Note_on_c, 0, 69, 0
1, 889844, Note_on_c, 0, 61, 49
1, 889851, Note_on_c, 0, 70, 0
1, 890114, Note_on_c, 0, 65, 47
1, 890435, Note_on_c, 0, 70, 61
1, 890463, Note_on_c, 0, 67, 39
1, 890510, Note_on_c, 0, 61, 0
1, 890520, Note_on_c, 0, 65, 0
1, 890547, Note_on_c, 0, 73, 0
1, 890563, Control_c, 0, 64, 117
1, 890582, Control_c, 0, 64, 84
1, 890600, Control_c, 0, 64, 44
1, 890618, Control_c, 0, 64, 0
1, 890692, Control_c, 0, 64, 8
1, 890710, Control_c, 0, 64, 37
1, 890730, Control_c, 0, 64, 63
1, 890746, Note_on_c, 0, 61, 43
1, 890748, Control_c, 0, 64, 86
1, 890766, Control_c, 0, 64, 108
1, 890784, Control_c, 0, 64, 127
1, 890816, Note_on_c, 0, 67, 0
1, 891042, Note_on_c, 0, 64, 47
1, 891192, Note_on_c, 0, 61, 0
1, 891351, Note_on_c, 0, 72, 61
1, 891358, Note_on_c, 0, 68, 48
1, 891404, Note_on_c, 0, 64, 0
1, 891442, Control_c, 0, 64, 112
1, 891452, Note_on_c, 0, 70, 0
1, 891460, Control_c, 0, 64, 83
1, 891480, Control_c, 0, 64, 55
1, 891498, Control_c, 0, 64, 36
1, 891571, Control_c, 0, 64, 47
1, 891590, Control_c, 0, 64, 62
1, 891609, Control_c, 0, 64, 78
1, 891626, Control_c, 0, 64, 94
1, 891640, Note_on_c, 0, 60, 40
1, 891646, Control_c, 0, 64, 110
1, 891664, Control_c, 0, 64, 123
1, 891684, Control_c, 0, 64, 127
1, 891711, Note_on_c, 0, 68, 0
1, 891932, Note_on_c, 0, 63, 39
1, 892021, Note_on_c, 0, 72, 0
1, 892146, Note_on_c, 0, 60, 0
1, 892306, Note_on_c, 0, 73, 52
1, 892336, Note_on_c, 0, 67, 43
1, 892408, Note_on_c, 0, 63, 0
1, 892434, Control_c, 0, 64, 122
1, 892453, Control_c, 0, 64, 100
1, 892472, Control_c, 0, 64, 73
1, 892489, Control_c, 0, 64, 50
1, 892507, Control_c, 0, 64, 44
1, 892545, Control_c, 0, 64, 47
1, 892562, Control_c, 0, 64, 57
1, 892581, Control_c, 0, 64, 68
1, 892600, Control_c, 0, 64, 80
1, 892620, Control_c, 0, 64, 94
1, 892637, Control_c, 0, 64, 108
1, 892639, Note_on_c, 0, 58, 33
1, 892656, Control_c, 0, 64, 119
1, 892675, Control_c, 0, 64, 126
1, 892676, Note_on_c, 0, 67, 0
1, 892928, Note_on_c, 0, 63, 40
1, 893008, Note_on_c, 0, 58, 0
1, 893202, Control_c, 0, 67, 123
1, 893210, Note_on_c, 0, 70, 59
1, 893228, Note_on_c, 0, 67, 37
1, 893239, Control_c, 0, 67, 118
1, 893268, Note_on_c, 0, 63, 0
1, 893275, Control_c, 0, 67, 114
1, 893294, Control_c, 0, 67, 110
1, 893297, Note_on_c, 0, 73, 0
1, 893312, Control_c, 0, 67, 104
1, 893332, Control_c, 0, 67, 96
1, 893351, Control_c, 0, 67, 86
1, 893368, Control_c, 0, 67, 72
1, 893388, Control_c, 0, 67, 58
1, 893407, Control_c, 0, 67, 43
1, 893425, Control_c, 0, 67, 28
1, 893441, Control_c, 0, 67, 16
1, 893461, Control_c, 0, 67, 8
1, 893525, Note_on_c, 0, 61, 34
1, 893574, Note_on_c, 0, 67, 0
1, 893799, Note_on_c, 0, 63, 41
1, 893956, Note_on_c, 0, 61, 0
1, 894121, Note_on_c, 0, 72, 66
1, 894123, Note_on_c, 0, 68, 54
1, 894157, Note_on_c, 0, 63, 0
1, 894195, Note_on_c, 0, 70, 0
1, 894302, Control_c, 0, 64, 106
1, 894321, Control_c, 0, 64, 75
1, 894340, Control_c, 0, 64, 45
1, 894360, Control_c, 0, 64, 38
1, 894395, Control_c, 0, 64, 45
1, 894404, Note_on_c, 0, 60, 50
1, 894415, Control_c, 0, 64, 57
1, 894434, Control_c, 0, 64, 72
1, 894454, Control_c, 0, 64, 89
1, 894471, Control_c, 0, 64, 108
1, 894489, Control_c, 0, 64, 122
1, 894507, Control_c, 0, 64, 127
1, 894652, Note_on_c, 0, 60, 0
1, 894672, Note_on_c, 0, 63, 59
1, 894712, Note_on_c, 0, 68, 0
1, 894746, Note_on_c, 0, 63, 0
1, 894957, Note_on_c, 0, 75, 74
1, 894975, Note_on_c, 0, 72, 0
1, 895003, Note_on_c, 0, 67, 35
1, 895129, Control_c, 0, 64, 100
1, 895147, Control_c, 0, 64, 72
1, 895165, Control_c, 0, 64, 56
1, 895203, Control_c, 0, 64, 65
1, 895221, Control_c, 0, 64, 74
1, 895228, Note_on_c, 0, 70, 60
1, 895240, Control_c, 0, 64, 88
1, 895259, Control_c, 0, 64, 106
1, 895281, Control_c, 0, 64, 124
1, 895282, Note_on_c, 0, 67, 0
1, 895469, Note_on_c, 0, 67, 60
1, 895499, Note_on_c, 0, 70, 0
1, 895756, Note_on_c, 0, 80, 74
1, 895757, Note_on_c, 0, 67, 0
1, 895787, Note_on_c, 0, 72, 53
1, 895820, Note_on_c, 0, 75, 0
1, 895869, Control_c, 0, 64, 95
1, 895888, Control_c, 0, 64, 65
1, 895907, Control_c, 0, 64, 37
1, 895934, Control_c, 0, 64, 31
1, 895972, Control_c, 0, 64, 40
1, 895991, Control_c, 0, 64, 56
1, 896010, Control_c, 0, 64, 74
1, 896028, Control_c, 0, 64, 93
1, 896039, Note_on_c, 0, 72, 0
1, 896045, Control_c, 0, 64, 112
1, 896047, Note_on_c, 0, 65, 61
1, 896063, Control_c, 0, 64, 125
1, 896300, Note_on_c, 0, 73, 68
1, 896332, Note_on_c, 0, 65, 0
1, 896357, Note_on_c, 0, 80, 0
1, 896637, Note_on_c, 0, 82, 68
1, 896642, Note_on_c, 0, 74, 57
1, 896657, Control_c, 0, 64, 101
1, 896667, Note_on_c, 0, 73, 0
1, 896675, Control_c, 0, 64, 66
1, 896695, Control_c, 0, 64, 46
1, 896707, Poly_aftertouch_c, 0, 77, 0
1, 896732, Control_c, 0, 64, 57
1, 896733, Control_c, 0, 67, 12
1, 896751, Control_c, 0, 64, 70
1, 896769, Control_c, 0, 64, 88
1, 896788, Control_c, 0, 64, 113
1, 896804, Control_c, 0, 64, 127
1, 896806, Note_on_c, 0, 82, 0
1, 897000, Note_on_c, 0, 64, 46
1, 897065, Note_on_c, 0, 74, 0
1, 897216, Note_on_c, 0, 64, 0
1, 897249, Note_on_c, 0, 74, 59
1, 897370, Control_c, 0, 64, 96
1, 897380, Note_on_c, 0, 74, 0
1, 897388, Control_c, 0, 64, 56
1, 897403, Note_on_c, 0, 63, 55
1, 897406, Control_c, 0, 64, 0
1, 897499, Control_c, 0, 64, 10
1, 897507, Note_on_c, 0, 63, 0
1, 897518, Control_c, 0, 64, 45
1, 897536, Control_c, 0, 64, 78
1, 897543, Note_on_c, 0, 75, 59
1, 897555, Control_c, 0, 64, 106
1, 897574, Control_c, 0, 64, 127
1, 897894, Note_on_c, 0, 75, 0
1, 898019, Note_on_c, 0, 87, 65
1, 898084, Control_c, 0, 67, 16
1, 898139, Control_c, 0, 67, 20
1, 898149, Note_on_c, 0, 87, 0
1, 898177, Control_c, 0, 67, 25
1, 898194, Control_c, 0, 67, 32
1, 898214, Control_c, 0, 67, 41
1, 898232, Control_c, 0, 67, 48
1, 898250, Control_c, 0, 67, 53
1, 898267, Control_c, 0, 67, 57
1, 898287, Control_c, 0, 67, 63
1, 898306, Control_c, 0, 67, 69
1, 898324, Control_c, 0, 67, 76
1, 898343, Control_c, 0, 67, 82
1, 898361, Control_c, 0, 67, 89
1, 898377, Note_on_c, 0, 67, 46
1, 898379, Control_c, 0, 67, 95
1, 898398, Control_c, 0, 67, 102
1, 898416, Control_c, 0, 67, 108
1, 898434, Control_c, 0, 67, 113
1, 898455, Control_c, 0, 67, 117
1, 898491, Control_c, 0, 67, 125
1, 898667, Note_on_c, 0, 70, 44
1, 898711, Note_on_c, 0, 67, 0
1, 898953, Note_on_c, 0, 75, 54
1, 899004, Note_on_c, 0, 70, 0
1, 899139, Note_on_c, 0, 75, 0
1, 899224, Note_on_c, 0, 79, 54
1, 899467, Note_on_c, 0, 79, 0
1, 899492, Note_on_c, 0, 82, 50
1, 899510, Note_on_c, 0, 27, 0
1, 899784, Note_on_c, 0, 75, 44
1, 899857, Note_on_c, 0, 82, 0
1, 899884, Note_on_c, 0, 39, 0
1, 900079, Note_on_c, 0, 79, 46
1, 900141, Note_on_c, 0, 75, 0
1, 900360, Note_on_c, 0, 75, 43
1, 900415, Note_on_c, 0, 79, 0
1, 900830, Note_on_c, 0, 87, 72
1, 900854, Note_on_c, 0, 78, 46
1, 900867, Note_on_c, 0, 35, 33
1, 900874, Note_on_c, 0, 47, 27
1, 900934, Note_on_c, 0, 75, 0
1, 900946, Poly_aftertouch_c, 0, 83, 0
1, 901020, Control_c, 0, 64, 113
1, 901040, Control_c, 0, 64, 87
1, 901056, Control_c, 0, 64, 58
1, 901074, Control_c, 0, 64, 35
1, 901095, Control_c, 0, 64, 31
1, 901188, Control_c, 0, 64, 47
1, 901205, Control_c, 0, 64, 63
1, 901225, Control_c, 0, 64, 79
1, 901241, Control_c, 0, 64, 93
1, 901260, Control_c, 0, 64, 108
1, 901268, Note_on_c, 0, 75, 34
1, 901278, Control_c, 0, 64, 122
1, 901297, Control_c, 0, 64, 127
1, 901321, Note_on_c, 0, 78, 0
1, 901595, Note_on_c, 0, 78, 41
1, 901667, Note_on_c, 0, 75, 0
1, 901848, Note_on_c, 0, 78, 0
1, 901882, Note_on_c, 0, 75, 36
1, 902106, Note_on_c, 0, 87, 0
1, 902160, Note_on_c, 0, 79, 37
1, 902203, Note_on_c, 0, 75, 0
1, 902428, Note_on_c, 0, 75, 45
1, 902648, Note_on_c, 0, 79, 0
1, 902726, Note_on_c, 0, 83, 65
1, 902758, Note_on_c, 0, 80, 50
1, 902783, Note_on_c, 0, 75, 0
1, 903004, Note_on_c, 0, 80, 0
1, 903070, Note_on_c, 0, 71, 35
1, 903298, Note_on_c, 0, 75, 45
1, 903430, Note_on_c, 0, 71, 0
1, 903573, Note_on_c, 0, 75, 0
1, 903604, Control_c, 0, 67, 119
1, 903611, Note_on_c, 0, 80, 65
1, 903633, Note_on_c, 0, 76, 44
1, 903661, Control_c, 0, 67, 115
1, 903702, Note_on_c, 0, 83, 0
1, 903714, Control_c, 0, 67, 110
1, 903734, Control_c, 0, 67, 105
1, 903751, Control_c, 0, 67, 101
1, 903771, Control_c, 0, 67, 94
1, 903790, Control_c, 0, 67, 86
1, 903808, Control_c, 0, 67, 78
1, 903827, Control_c, 0, 67, 69
1, 903846, Control_c, 0, 67, 61
1, 903860, Note_on_c, 0, 80, 0
1, 903862, Control_c, 0, 67, 54
1, 903881, Control_c, 0, 67, 47
1, 903900, Control_c, 0, 67, 41
1, 903909, Note_on_c, 0, 68, 36
1, 903919, Control_c, 0, 67, 37
1, 903956, Control_c, 0, 67, 31
1, 904013, Control_c, 0, 67, 26
1, 904075, Note_on_c, 0, 76, 0
1, 904160, Note_on_c, 0, 72, 49
1, 904429, Note_on_c, 0, 76, 69
1, 904451, Note_on_c, 0, 73, 51
1, 904501, Note_on_c, 0, 68, 0
1, 904521, Note_on_c, 0, 72, 0
1, 904700, Note_on_c, 0, 64, 49
1, 904752, Note_on_c, 0, 73, 0
1, 904963, Note_on_c, 0, 68, 45
1, 905227, Note_on_c, 0, 73, 65
1, 905256, Note_on_c, 0, 70, 47
1, 905322, Note_on_c, 0, 64, 0
1, 905331, Note_on_c, 0, 68, 0
1, 905419, Note_on_c, 0, 76, 0
1, 905496, Note_on_c, 0, 64, 56
1, 905605, Note_on_c, 0, 70, 0
1, 905777, Note_on_c, 0, 67, 48
1, 905830, Note_on_c, 0, 64, 0
1, 906042, Note_on_c, 0, 75, 70
1, 906077, Note_on_c, 0, 71, 37
1, 906180, Control_c, 0, 64, 98
1, 906195, Note_on_c, 0, 67, 0
1, 906197, Control_c, 0, 64, 69
1, 906226, Control_c, 0, 64, 51
1, 906265, Control_c, 0, 64, 56
1, 906277, Note_on_c, 0, 73, 0
1, 906282, Control_c, 0, 64, 64
1, 906299, Control_c, 0, 64, 74
1, 906312, Note_on_c, 0, 63, 46
1, 906318, Control_c, 0, 64, 91
1, 906338, Control_c, 0, 64, 112
1, 906346, Note_on_c, 0, 71, 0
1, 906355, Control_c, 0, 64, 127
1, 906591, Note_on_c, 0, 68, 42
1, 906674, Note_on_c, 0, 75, 0
1, 906707, Control_c, 0, 67, 30
1, 906962, Note_on_c, 0, 76, 57
1, 906980, Note_on_c, 0, 63, 0
1, 906996, Note_on_c, 0, 73, 43
1, 907061, Note_on_c, 0, 68, 0
1, 907096, Control_c, 0, 64, 118
1, 907115, Control_c, 0, 64, 90
1, 907133, Control_c, 0, 64, 62
1, 907162, Control_c, 0, 64, 42
1, 907234, Control_c, 0, 64, 52
1, 907253, Control_c, 0, 64, 62
1, 907267, Note_on_c, 0, 61, 34
1, 907271, Control_c, 0, 64, 75
1, 907290, Control_c, 0, 64, 91
1, 907310, Control_c, 0, 64, 109
1, 907328, Control_c, 0, 64, 122
1, 907347, Control_c, 0, 64, 127
1, 907355, Note_on_c, 0, 73, 0
1, 907548, Note_on_c, 0, 67, 39
1, 907646, Note_on_c, 0, 61, 0
1, 907847, Note_on_c, 0, 67, 0
1, 907853, Note_on_c, 0, 73, 56
1, 907866, Note_on_c, 0, 70, 43
1, 907963, Poly_aftertouch_c, 0, 74, 0
1, 908079, Note_on_c, 0, 76, 0
1, 908130, Note_on_c, 0, 64, 46
1, 908278, Note_on_c, 0, 70, 0
1, 908393, Control_c, 0, 67, 26
1, 908412, Note_on_c, 0, 67, 40
1, 908449, Control_c, 0, 67, 16
1, 908486, Control_c, 0, 67, 0
1, 908776, Note_on_c, 0, 64, 0
1, 908802, Note_on_c, 0, 75, 67
1, 908829, Note_on_c, 0, 71, 52
1, 908861, Note_on_c, 0, 67, 0
1, 908906, Note_on_c, 0, 73, 0
1, 908967, Control_c, 0, 64, 101
1, 908986, Control_c, 0, 64, 71
1, 909005, Control_c, 0, 64, 49
1, 909052, Control_c, 0, 64, 51
1, 909071, Control_c, 0, 64, 61
1, 909089, Control_c, 0, 64, 74
1, 909106, Control_c, 0, 64, 95
1, 909125, Control_c, 0, 64, 123
1, 909138, Note_on_c, 0, 63, 47
1, 909144, Control_c, 0, 64, 127
1, 909146, Note_on_c, 0, 71, 0
1, 909175, Note_on_c, 0, 47, 0
1, 909359, Note_on_c, 0, 63, 0
1, 909388, Note_on_c, 0, 66, 58
1, 909437, Note_on_c, 0, 66, 0
1, 909532, Note_on_c, 0, 75, 0
1, 909651, Note_on_c, 0, 34, 49
1, 909663, Note_on_c, 0, 46, 48
1, 909751, Note_on_c, 0, 79, 75
1, 909782, Note_on_c, 0, 73, 46
1, 909863, Note_on_c, 0, 35, 0
1, 909872, Note_on_c, 0, 73, 0
1, 909872, Note_on_c, 0, 73, 6
1, 909904, Control_c, 0, 64, 99
1, 909922, Control_c, 0, 64, 73
1, 909940, Control_c, 0, 64, 57
1, 909987, Control_c, 0, 64, 66
1, 910006, Control_c, 0, 64, 75
1, 910024, Control_c, 0, 64, 91
1, 910042, Control_c, 0, 64, 116
1, 910060, Control_c, 0, 64, 127
1, 910082, Note_on_c, 0, 76, 48
1, 910118, Note_on_c, 0, 73, 0
1, 910323, Note_on_c, 0, 79, 0
1, 910327, Note_on_c, 0, 46, 0
1, 910355, Note_on_c, 0, 73, 50
1, 910403, Note_on_c, 0, 73, 0
1, 910587, Note_on_c, 0, 32, 47
1, 910591, Note_on_c, 0, 44, 47
1, 910681, Note_on_c, 0, 80, 73
1, 910722, Note_on_c, 0, 71, 36
1, 910734, Note_on_c, 0, 34, 0
1, 910773, Note_on_c, 0, 76, 0
1, 910801, Control_c, 0, 64, 106
1, 910820, Control_c, 0, 64, 78
1, 910839, Control_c, 0, 64, 57
1, 910875, Control_c, 0, 64, 59
1, 910904, Control_c, 0, 64, 67
1, 910922, Control_c, 0, 64, 77
1, 910942, Control_c, 0, 64, 95
1, 910960, Control_c, 0, 64, 117
1, 910977, Control_c, 0, 64, 127
1, 911070, Note_on_c, 0, 75, 57
1, 911116, Note_on_c, 0, 71, 0
1, 911170, Note_on_c, 0, 82, 80
1, 911219, Note_on_c, 0, 75, 0
1, 911234, Note_on_c, 0, 80, 0
1, 911241, Note_on_c, 0, 44, 0
1, 911292, Note_on_c, 0, 71, 51
1, 911542, Note_on_c, 0, 28, 56
1, 911560, Note_on_c, 0, 40, 52
1, 911607, Note_on_c, 0, 83, 81
1, 911626, Control_c, 0, 64, 100
1, 911646, Control_c, 0, 64, 71
1, 911653, Note_on_c, 0, 80, 52
1, 911662, Note_on_c, 0, 71, 0
1, 911662, Control_c, 0, 64, 58
1, 911682, Control_c, 0, 64, 60
1, 911691, Note_on_c, 0, 32, 0
1, 911701, Note_on_c, 0, 82, 0
1, 911702, Control_c, 0, 64, 67
1, 911719, Control_c, 0, 64, 77
1, 911736, Control_c, 0, 64, 94
1, 911756, Control_c, 0, 64, 121
1, 911774, Control_c, 0, 64, 127
1, 911881, Note_on_c, 0, 83, 0
1, 911925, Note_on_c, 0, 71, 62
1, 912065, Note_on_c, 0, 85, 86
1, 912085, Note_on_c, 0, 80, 0
1, 912181, Note_on_c, 0, 71, 0
1, 912220, Note_on_c, 0, 40, 0
1, 912250, Note_on_c, 0, 80, 61
1, 912511, Note_on_c, 0, 27, 64
1, 912535, Note_on_c, 0, 85, 0
1, 912554, Note_on_c, 0, 80, 0
1, 912577, Note_on_c, 0, 39, 61
1, 912622, Note_on_c, 0, 72, 56
1, 912632, Note_on_c, 0, 28, 0
1, 912694, Note_on_c, 0, 80, 68
1, 912780, Note_on_c, 0, 84, 71
1, 912832, Control_c, 0, 64, 110
1, 912849, Control_c, 0, 64, 74
1, 912867, Control_c, 0, 64, 29
1, 912885, Control_c, 0, 64, 0
1, 912907, Note_on_c, 0, 87, 87
1, 912975, Note_on_c, 0, 27, 0
1, 912979, Control_c, 0, 64, 22
1, 912998, Control_c, 0, 64, 58
1, 913017, Control_c, 0, 64, 92
1, 913035, Control_c, 0, 64, 123
1, 913039, Note_on_c, 0, 39, 0
1, 913053, Control_c, 0, 64, 127
1, 913315, Note_on_c, 0, 51, 48
1, 913535, Note_on_c, 0, 72, 0
1, 913579, Note_on_c, 0, 60, 53
1, 913587, Poly_aftertouch_c, 0, 74, 0
1, 913932, Note_on_c, 0, 63, 43
1, 913937, Note_on_c, 0, 87, 0
1, 914006, Note_on_c, 0, 51, 0
1, 914040, Note_on_c, 0, 60, 0
1, 914097, Note_on_c, 0, 84, 0
1, 914222, Note_on_c, 0, 60, 45
1, 914357, Note_on_c, 0, 80, 0
1, 914476, Note_on_c, 0, 51, 49
1, 914547, Note_on_c, 0, 63, 0
1, 914769, Note_on_c, 0, 63, 42
1, 914777, Note_on_c, 0, 60, 0
1, 915039, Note_on_c, 0, 51, 0
1, 915059, Note_on_c, 0, 60, 53
1, 915154, Note_on_c, 0, 63, 0
1, 915282, Note_on_c, 0, 51, 58
1, 915316, Note_on_c, 0, 60, 0
1, 915348, Poly_aftertouch_c, 0, 55, 0
1, 915466, Note_on_c, 0, 51, 0
1, 915635, Note_on_c, 0, 51, 59
1, 915655, Note_on_c, 0, 84, 80
1, 915658, Note_on_c, 0, 80, 53
1, 915682, Note_on_c, 0, 72, 39
1, 915944, Note_on_c, 0, 48, 60
1, 916053, Note_on_c, 0, 72, 0
1, 916056, Note_on_c, 0, 80, 0
1, 916153, Note_on_c, 0, 51, 0
1, 916218, Note_on_c, 0, 39, 64
1, 916266, Note_on_c, 0, 48, 0
1, 916339, Note_on_c, 0, 72, 49
1, 916344, Note_on_c, 0, 84, 0
1, 916357, Note_on_c, 0, 39, 0
1, 916391, Note_on_c, 0, 81, 52
1, 916470, Note_on_c, 0, 84, 71
1, 916598, Note_on_c, 0, 27, 71
1, 916703, Control_c, 0, 64, 105
1, 916722, Control_c, 0, 64, 70
1, 916741, Control_c, 0, 64, 51
1, 916744, Note_on_c, 0, 87, 83
1, 916759, Control_c, 0, 64, 55
1, 916776, Control_c, 0, 64, 68
1, 916796, Control_c, 0, 64, 89
1, 916813, Control_c, 0, 64, 118
1, 916825, Note_on_c, 0, 27, 0
1, 916830, Control_c, 0, 64, 127
1, 917123, Note_on_c, 0, 51, 49
1, 917381, Note_on_c, 0, 60, 52
1, 917670, Note_on_c, 0, 87, 0
1, 917692, Note_on_c, 0, 63, 53
1, 917800, Note_on_c, 0, 60, 0
1, 917828, Poly_aftertouch_c, 0, 51, 22
1, 917848, Note_on_c, 0, 51, 0
1, 917848, Poly_aftertouch_c, 0, 51, 0
1, 917879, Poly_aftertouch_c, 0, 74, 0
1, 917885, Note_on_c, 0, 72, 0
1, 917998, Note_on_c, 0, 60, 36
1, 918009, Control_c, 0, 67, 8
1, 918045, Control_c, 0, 67, 16
1, 918063, Control_c, 0, 67, 23
1, 918082, Control_c, 0, 67, 31
1, 918100, Control_c, 0, 67, 39
1, 918120, Control_c, 0, 67, 47
1, 918138, Control_c, 0, 67, 54
1, 918156, Control_c, 0, 67, 60
1, 918177, Control_c, 0, 67, 65
1, 918212, Control_c, 0, 67, 70
1, 918216, Note_on_c, 0, 63, 0
1, 918259, Note_on_c, 0, 51, 41
1, 918498, Note_on_c, 0, 60, 0
1, 918563, Note_on_c, 0, 63, 42
1, 918591, Control_c, 0, 67, 66
1, 918741, Note_on_c, 0, 81, 0
1, 918821, Note_on_c, 0, 51, 0
1, 918873, Note_on_c, 0, 60, 35
1, 918954, Note_on_c, 0, 63, 0
1, 919156, Note_on_c, 0, 60, 0
1, 919163, Note_on_c, 0, 51, 39
1, 919240, Control_c, 0, 67, 70
1, 919345, Note_on_c, 0, 51, 0
1, 919569, Note_on_c, 0, 51, 28
1, 919646, Note_on_c, 0, 79, 33
1, 919653, Note_on_c, 0, 82, 53
1, 919666, Note_on_c, 0, 70, 40
1, 919787, Control_c, 0, 64, 106
1, 919805, Control_c, 0, 64, 80
1, 919824, Control_c, 0, 64, 57
1, 919825, Control_c, 0, 67, 75
1, 919842, Control_c, 0, 64, 53
1, 919870, Note_on_c, 0, 84, 0
1, 919880, Control_c, 0, 64, 61
1, 919897, Control_c, 0, 64, 69
1, 919898, Control_c, 0, 67, 79
1, 919917, Control_c, 0, 64, 83
1, 919936, Control_c, 0, 64, 102
1, 919947, Note_on_c, 0, 49, 40
1, 919953, Control_c, 0, 64, 122
1, 919972, Control_c, 0, 64, 127
1, 920028, Control_c, 0, 67, 83
1, 920084, Control_c, 0, 67, 89
1, 920122, Control_c, 0, 67, 93
1, 920175, Control_c, 0, 67, 99
1, 920196, Note_on_c, 0, 51, 0
1, 920232, Control_c, 0, 67, 103
1, 920279, Note_on_c, 0, 79, 0
1, 920293, Note_on_c, 0, 39, 44
1, 920316, Control_c, 0, 67, 108
1, 920374, Note_on_c, 0, 49, 0
1, 920445, Control_c, 0, 67, 112
1, 920456, Note_on_c, 0, 70, 0
1, 920537, Control_c, 0, 67, 116
1, 920574, Control_c, 0, 67, 121
1, 920593, Control_c, 0, 67, 126
1, 920664, Note_on_c, 0, 44, 37
1, 920685, Control_c, 0, 64, 114
1, 920703, Control_c, 0, 64, 82
1, 920717, Note_on_c, 0, 82, 0
1, 920722, Control_c, 0, 64, 57
1, 920741, Control_c, 0, 64, 54
1, 920756, Note_on_c, 0, 68, 30
1, 920759, Control_c, 0, 64, 59
1, 920779, Control_c, 0, 64, 68
1, 920796, Note_on_c, 0, 68, 0
1, 920797, Control_c, 0, 64, 83
1, 920804, Note_on_c, 0, 75, 44
1, 920818, Control_c, 0, 64, 104
1, 920833, Control_c, 0, 64, 126
1, 920863, Note_on_c, 0, 80, 56
1, 920925, Note_on_c, 0, 39, 0
1, 921020, Note_on_c, 0, 84, 70
1, 921117, Note_on_c, 0, 43, 35
1, 921241, Note_on_c, 0, 44, 0
1, 921411, Note_on_c, 0, 44, 34
1, 921498, Note_on_c, 0, 43, 0
1, 921563, Note_on_c, 0, 44, 0
1, 921695, Control_c, 0, 64, 105
1, 921698, Note_on_c, 0, 43, 45
1, 921714, Control_c, 0, 64, 75
1, 921733, Control_c, 0, 64, 50
1, 921752, Control_c, 0, 64, 44
1, 921789, Control_c, 0, 64, 47
1, 921808, Control_c, 0, 64, 57
1, 921824, Control_c, 0, 64, 68
1, 921843, Control_c, 0, 64, 85
1, 921861, Control_c, 0, 64, 106
1, 921881, Control_c, 0, 64, 123
1, 921899, Control_c, 0, 64, 127
1, 921988, Note_on_c, 0, 44, 42
1, 922065, Note_on_c, 0, 43, 0
1, 922075, Note_on_c, 0, 44, 0
1, 922262, Note_on_c, 0, 43, 48
1, 922317, Control_c, 0, 64, 116
1, 922335, Control_c, 0, 64, 88
1, 922354, Control_c, 0, 64, 59
1, 922372, Control_c, 0, 64, 43
1, 922427, Control_c, 0, 64, 53
1, 922445, Control_c, 0, 64, 66
1, 922465, Control_c, 0, 64, 82
1, 922483, Control_c, 0, 64, 100
1, 922502, Control_c, 0, 64, 116
1, 922519, Control_c, 0, 64, 124
1, 922560, Note_on_c, 0, 44, 41
1, 922611, Note_on_c, 0, 43, 0
1, 922698, Note_on_c, 0, 44, 0
1, 922764, Note_on_c, 0, 84, 0
1, 922797, Control_c, 0, 64, 105
1, 922816, Control_c, 0, 64, 75
1, 922828, Note_on_c, 0, 43, 45
1, 922834, Control_c, 0, 64, 65
1, 922853, Control_c, 0, 64, 71
1, 922872, Control_c, 0, 64, 81
1, 922890, Control_c, 0, 64, 98
1, 922908, Control_c, 0, 64, 122
1, 922912, Note_on_c, 0, 80, 0
1, 922926, Control_c, 0, 64, 127
1, 922963, Note_on_c, 0, 75, 0
1, 923058, Control_c, 0, 67, 121
1, 923084, Control_c, 0, 67, 117
1, 923103, Control_c, 0, 67, 113
1, 923118, Note_on_c, 0, 44, 47
1, 923122, Control_c, 0, 67, 105
1, 923140, Control_c, 0, 67, 94
1, 923158, Control_c, 0, 67, 75
1, 923177, Control_c, 0, 67, 50
1, 923196, Control_c, 0, 67, 21
1, 923204, Note_on_c, 0, 43, 0
1, 923215, Control_c, 0, 67, 0
1, 923327, Note_on_c, 0, 44, 0
1, 923395, Note_on_c, 0, 43, 42
1, 923438, Note_on_c, 0, 75, 68
1, 923465, Note_on_c, 0, 72, 50
1, 923530, Control_c, 0, 64, 110
1, 923548, Control_c, 0, 64, 86
1, 923567, Control_c, 0, 64, 76
1, 923585, Control_c, 0, 64, 81
1, 923604, Control_c, 0, 64, 90
1, 923623, Control_c, 0, 64, 104
1, 923640, Control_c, 0, 64, 121
1, 923658, Control_c, 0, 64, 127
1, 923714, Note_on_c, 0, 44, 44
1, 923777, Note_on_c, 0, 72, 0
1, 923789, Note_on_c, 0, 43, 0
1, 923925, Note_on_c, 0, 43, 48
1, 923958, Note_on_c, 0, 44, 0
1, 923995, Note_on_c, 0, 64, 39
1, 924082, Note_on_c, 0, 75, 0
1, 924085, Note_on_c, 0, 68, 51
1, 924113, Note_on_c, 0, 73, 52
1, 924139, Note_on_c, 0, 64, 0
1, 924285, Note_on_c, 0, 44, 36
1, 924352, Note_on_c, 0, 80, 77
1, 924435, Note_on_c, 0, 43, 0
1, 924642, Note_on_c, 0, 43, 44
1, 924688, Note_on_c, 0, 44, 0
1, 924909, Control_c, 0, 64, 108
1, 924912, Note_on_c, 0, 44, 44
1, 924928, Control_c, 0, 64, 84
1, 924956, Control_c, 0, 64, 76
1, 924973, Control_c, 0, 64, 83
1, 924982, Note_on_c, 0, 43, 0
1, 924993, Control_c, 0, 64, 94
1, 925013, Control_c, 0, 64, 111
1, 925029, Control_c, 0, 64, 127
1, 925049, Note_on_c, 0, 44, 0
1, 925174, Note_on_c, 0, 43, 46
1, 925215, Control_c, 0, 64, 112
1, 925234, Control_c, 0, 64, 81
1, 925252, Control_c, 0, 64, 53
1, 925271, Control_c, 0, 64, 41
1, 925326, Control_c, 0, 64, 53
1, 925344, Control_c, 0, 64, 66
1, 925363, Control_c, 0, 64, 83
1, 925383, Control_c, 0, 64, 104
1, 925400, Control_c, 0, 64, 123
1, 925419, Control_c, 0, 64, 127
1, 925465, Note_on_c, 0, 44, 42
1, 925568, Note_on_c, 0, 43, 0
1, 925569, Note_on_c, 0, 44, 0
1, 925714, Control_c, 0, 64, 106
1, 925721, Note_on_c, 0, 43, 45
1, 925733, Control_c, 0, 64, 75
1, 925752, Control_c, 0, 64, 57
1, 925790, Control_c, 0, 64, 66
1, 925808, Control_c, 0, 64, 75
1, 925827, Control_c, 0, 64, 91
1, 925846, Control_c, 0, 64, 113
1, 925863, Control_c, 0, 64, 127
1, 925906, Note_on_c, 0, 80, 0
1, 926032, Note_on_c, 0, 44, 35
1, 926059, Note_on_c, 0, 43, 0
1, 926075, Note_on_c, 0, 73, 0
1, 926131, Note_on_c, 0, 68, 0
1, 926221, Note_on_c, 0, 44, 0
1, 926303, Note_on_c, 0, 43, 39
1, 926571, Note_on_c, 0, 44, 41
1, 926655, Note_on_c, 0, 43, 0
1, 926878, Note_on_c, 0, 43, 38
1, 926901, Note_on_c, 0, 70, 61
1, 926908, Note_on_c, 0, 61, 47
1, 926911, Note_on_c, 0, 67, 42
1, 926941, Note_on_c, 0, 64, 40
1, 926957, Control_c, 0, 64, 107
1, 926975, Control_c, 0, 64, 87
1, 926984, Note_on_c, 0, 44, 0
1, 926995, Control_c, 0, 64, 83
1, 927011, Control_c, 0, 64, 88
1, 927031, Control_c, 0, 64, 95
1, 927048, Control_c, 0, 64, 105
1, 927067, Control_c, 0, 64, 119
1, 927086, Control_c, 0, 64, 127
1, 927178, Note_on_c, 0, 67, 0
1, 927217, Note_on_c, 0, 44, 41
1, 927249, Note_on_c, 0, 64, 0
1, 927282, Note_on_c, 0, 43, 0
1, 927422, Note_on_c, 0, 61, 0
1, 927451, Note_on_c, 0, 43, 33
1, 927514, Control_c, 0, 67, 8
1, 927524, Note_on_c, 0, 70, 0
1, 927542, Note_on_c, 0, 44, 0
1, 927560, Note_on_c, 0, 60, 41
1, 927603, Note_on_c, 0, 63, 51
1, 927669, Note_on_c, 0, 68, 44
1, 927679, Control_c, 0, 67, 12
1, 927818, Control_c, 0, 67, 16
1, 927842, Note_on_c, 0, 44, 33
1, 927964, Note_on_c, 0, 75, 55
1, 927965, Control_c, 0, 67, 21
1, 927996, Note_on_c, 0, 43, 0
1, 928002, Control_c, 0, 64, 114
1, 928022, Control_c, 0, 64, 86
1, 928025, Control_c, 0, 67, 25
1, 928041, Control_c, 0, 64, 60
1, 928060, Control_c, 0, 64, 55
1, 928061, Control_c, 0, 67, 29
1, 928078, Control_c, 0, 64, 57
1, 928098, Control_c, 0, 64, 63
1, 928099, Control_c, 0, 67, 34
1, 928115, Control_c, 0, 64, 72
1, 928134, Control_c, 0, 64, 85
1, 928154, Control_c, 0, 64, 106
1, 928154, Control_c, 0, 67, 38
1, 928172, Control_c, 0, 64, 126
1, 928280, Note_on_c, 0, 43, 35
1, 928301, Control_c, 0, 67, 43
1, 928337, Note_on_c, 0, 44, 0
1, 928449, Control_c, 0, 67, 47
1, 928538, Note_on_c, 0, 44, 32
1, 928540, Control_c, 0, 67, 52
1, 928596, Control_c, 0, 67, 57
1, 928623, Note_on_c, 0, 43, 0
1, 928633, Control_c, 0, 67, 61
1, 928715, Control_c, 0, 67, 65
1, 928735, Note_on_c, 0, 44, 0
1, 928841, Note_on_c, 0, 43, 41
1, 928866, Control_c, 0, 67, 69
1, 928883, Control_c, 0, 64, 105
1, 928901, Control_c, 0, 64, 75
1, 928921, Control_c, 0, 64, 57
1, 928923, Control_c, 0, 67, 73
1, 928958, Control_c, 0, 64, 63
1, 928959, Control_c, 0, 67, 77
1, 928977, Control_c, 0, 64, 72
1, 928994, Control_c, 0, 64, 85
1, 928996, Control_c, 0, 67, 81
1, 929013, Control_c, 0, 64, 104
1, 929033, Control_c, 0, 64, 120
1, 929051, Control_c, 0, 64, 127
1, 929051, Control_c, 0, 67, 86
1, 929119, Note_on_c, 0, 44, 38
1, 929123, Control_c, 0, 67, 91
1, 929180, Control_c, 0, 67, 95
1, 929196, Note_on_c, 0, 43, 0
1, 929227, Note_on_c, 0, 44, 0
1, 929328, Control_c, 0, 67, 100
1, 929380, Note_on_c, 0, 43, 36
1, 929383, Control_c, 0, 64, 123
1, 929384, Control_c, 0, 67, 106
1, 929403, Control_c, 0, 64, 95
1, 929404, Control_c, 0, 67, 110
1, 929421, Control_c, 0, 64, 67
1, 929438, Control_c, 0, 64, 60
1, 929440, Control_c, 0, 67, 115
1, 929457, Control_c, 0, 64, 64
1, 929476, Control_c, 0, 64, 70
1, 929495, Control_c, 0, 64, 79
1, 929496, Control_c, 0, 67, 120
1, 929515, Control_c, 0, 64, 96
1, 929532, Control_c, 0, 64, 116
1, 929551, Control_c, 0, 64, 127
1, 929626, Note_on_c, 0, 75, 0
1, 929669, Note_on_c, 0, 44, 35
1, 929748, Note_on_c, 0, 43, 0
1, 929786, Note_on_c, 0, 60, 0
1, 929875, Note_on_c, 0, 68, 0
1, 929885, Note_on_c, 0, 44, 0
1, 929917, Note_on_c, 0, 63, 0
1, 929943, Note_on_c, 0, 43, 35
1, 930204, Note_on_c, 0, 44, 38
1, 930265, Note_on_c, 0, 43, 0
1, 930519, Note_on_c, 0, 44, 0
1, 930522, Note_on_c, 0, 43, 26
1, 930537, Note_on_c, 0, 63, 54
1, 930578, Note_on_c, 0, 60, 41
1, 930644, Control_c, 0, 67, 124
1, 930848, Note_on_c, 0, 44, 32
1, 930886, Note_on_c, 0, 43, 0
1, 931022, Note_on_c, 0, 60, 0
1, 931054, Note_on_c, 0, 44, 0
1, 931061, Note_on_c, 0, 43, 34
1, 931163, Note_on_c, 0, 52, 42
1, 931237, Note_on_c, 0, 63, 0
1, 931251, Note_on_c, 0, 56, 44
1, 931299, Note_on_c, 0, 52, 0
1, 931310, Note_on_c, 0, 61, 42
1, 931441, Note_on_c, 0, 44, 30
1, 931555, Note_on_c, 0, 68, 55
1, 931575, Note_on_c, 0, 43, 0
1, 931673, Control_c, 0, 64, 104
1, 931689, Control_c, 0, 64, 79
1, 931709, Control_c, 0, 64, 61
1, 931764, Control_c, 0, 64, 67
1, 931784, Control_c, 0, 64, 73
1, 931801, Control_c, 0, 64, 84
1, 931820, Control_c, 0, 64, 101
1, 931824, Note_on_c, 0, 43, 34
1, 931839, Control_c, 0, 64, 120
1, 931858, Control_c, 0, 64, 127
1, 931863, Note_on_c, 0, 44, 0
1, 932093, Note_on_c, 0, 44, 30
1, 932162, Note_on_c, 0, 43, 0
1, 932232, Note_on_c, 0, 44, 0
1, 932357, Control_c, 0, 64, 103
1, 932367, Note_on_c, 0, 43, 35
1, 932376, Control_c, 0, 64, 77
1, 932394, Control_c, 0, 64, 57
1, 932414, Control_c, 0, 64, 52
1, 932459, Control_c, 0, 64, 58
1, 932477, Control_c, 0, 64, 65
1, 932496, Control_c, 0, 64, 73
1, 932516, Control_c, 0, 64, 88
1, 932534, Control_c, 0, 64, 108
1, 932552, Control_c, 0, 64, 123
1, 932570, Control_c, 0, 64, 127
1, 932637, Note_on_c, 0, 44, 35
1, 932722, Note_on_c, 0, 43, 0
1, 932805, Note_on_c, 0, 44, 0
1, 932930, Note_on_c, 0, 43, 36
1, 932979, Control_c, 0, 64, 116
1, 932995, Control_c, 0, 64, 89
1, 933015, Control_c, 0, 64, 65
1, 933032, Control_c, 0, 64, 57
1, 933052, Control_c, 0, 64, 60
1, 933070, Control_c, 0, 64, 67
1, 933089, Control_c, 0, 64, 75
1, 933107, Control_c, 0, 64, 88
1, 933127, Control_c, 0, 64, 107
1, 933146, Control_c, 0, 64, 124
1, 933206, Note_on_c, 0, 44, 36
1, 933271, Note_on_c, 0, 68, 0
1, 933303, Note_on_c, 0, 43, 0
1, 933430, Note_on_c, 0, 61, 0
1, 933446, Note_on_c, 0, 44, 0
1, 933478, Note_on_c, 0, 56, 0
1, 933514, Note_on_c, 0, 43, 39
1, 933806, Note_on_c, 0, 44, 32
1, 933899, Note_on_c, 0, 43, 0
1, 934064, Note_on_c, 0, 44, 0
1, 934132, Note_on_c, 0, 58, 44
1, 934133, Note_on_c, 0, 43, 19
1, 934139, Note_on_c, 0, 52, 34
1, 934141, Note_on_c, 0, 55, 34
1, 934141, Note_on_c, 0, 49, 33
1, 934266, Control_c, 0, 64, 105
1, 934286, Control_c, 0, 64, 78
1, 934310, Control_c, 0, 64, 59
1, 934330, Control_c, 0, 64, 57
1, 934348, Control_c, 0, 64, 59
1, 934367, Control_c, 0, 64, 65
1, 934386, Control_c, 0, 64, 73
1, 934404, Control_c, 0, 64, 86
1, 934424, Control_c, 0, 64, 106
1, 934442, Control_c, 0, 64, 125
1, 934492, Note_on_c, 0, 44, 29
1, 934595, Note_on_c, 0, 43, 0
1, 934671, Note_on_c, 0, 55, 0
1, 934697, Note_on_c, 0, 52, 0
1, 934830, Note_on_c, 0, 43, 31
1, 934889, Note_on_c, 0, 49, 0
1, 934913, Note_on_c, 0, 44, 0
1, 935028, Note_on_c, 0, 58, 0
1, 935159, Note_on_c, 0, 44, 31
1, 935240, Note_on_c, 0, 48, 28
1, 935256, Note_on_c, 0, 54, 38
1, 935321, Note_on_c, 0, 43, 0
1, 935345, Note_on_c, 0, 56, 34
1, 935604, Note_on_c, 0, 63, 46
1, 935609, Note_on_c, 0, 43, 23
1, 935711, Control_c, 0, 64, 121
1, 935748, Control_c, 0, 64, 113
1, 935759, Note_on_c, 0, 44, 0
1, 935766, Control_c, 0, 64, 107
1, 935785, Control_c, 0, 64, 101
1, 935802, Control_c, 0, 64, 94
1, 935823, Control_c, 0, 64, 88
1, 935839, Control_c, 0, 64, 82
1, 935859, Control_c, 0, 64, 78
1, 935877, Control_c, 0, 64, 75
1, 935896, Control_c, 0, 64, 73
1, 935914, Control_c, 0, 64, 71
1, 935952, Control_c, 0, 64, 68
1, 935965, Note_on_c, 0, 44, 29
1, 935969, Control_c, 0, 64, 67
1, 935987, Control_c, 0, 64, 66
1, 936025, Control_c, 0, 64, 65
1, 936030, Note_on_c, 0, 43, 0
1, 936082, Control_c, 0, 64, 63
1, 936119, Control_c, 0, 64, 61
1, 936156, Control_c, 0, 64, 60
1, 936186, Note_on_c, 0, 44, 0
1, 936257, Control_c, 0, 64, 58
1, 936676, Note_on_c, 0, 43, 46
1, 936980, Control_c, 0, 64, 56
1, 937060, Note_on_c, 0, 44, 38
1, 937092, Note_on_c, 0, 43, 0
1, 937261, Note_on_c, 0, 44, 0
1, 937859, Control_c, 0, 64, 54
1, 937860, Note_on_c, 0, 43, 33
1, 938288, Note_on_c, 0, 44, 27
1, 938293, Note_on_c, 0, 43, 0
1, 938532, Note_on_c, 0, 44, 0
1, 938609, Control_c, 0, 64, 52
1, 939348, Note_on_c, 0, 43, 26
1, 940030, Note_on_c, 0, 44, 23
1, 940128, Control_c, 0, 64, 50
1, 940142, Note_on_c, 0, 43, 0
1, 940351, Control_c, 0, 64, 53
1, 940371, Control_c, 0, 64, 56
1, 940389, Control_c, 0, 64, 59
1, 940407, Control_c, 0, 64, 63
1, 940426, Control_c, 0, 64, 66
1, 940444, Control_c, 0, 64, 69
1, 940463, Control_c, 0, 64, 76
1, 940480, Control_c, 0, 64, 84
1, 940499, Control_c, 0, 64, 92
1, 940518, Control_c, 0, 64, 98
1, 940536, Control_c, 0, 64, 104
1, 940555, Control_c, 0, 64, 110
1, 940574, Control_c, 0, 64, 117
1, 940592, Control_c, 0, 64, 126
1, 940961, Note_on_c, 0, 48, 0
1, 941007, Note_on_c, 0, 44, 0
1, 941016, Note_on_c, 0, 63, 0
1, 941272, Note_on_c, 0, 56, 0
1, 941371, Note_on_c, 0, 54, 0
1, 942079, Note_on_c, 0, 44, 27
1, 942492, Note_on_c, 0, 44, 0
1, 942942, Note_on_c, 0, 44, 27
1, 943336, Note_on_c, 0, 44, 0
1, 943789, Note_on_c, 0, 56, 28
1, 943800, Note_on_c, 0, 68, 33
1, 943821, Note_on_c, 0, 44, 23
1, 944004, Note_on_c, 0, 56, 0
1, 944067, Note_on_c, 0, 44, 0
1, 944152, Note_on_c, 0, 68, 0
1, 944655, Note_on_c, 0, 73, 37
1, 944671, Note_on_c, 0, 61, 26
1, 944676, Note_on_c, 0, 68, 31
1, 944680, Note_on_c, 0, 44, 22
1, 944686, Note_on_c, 0, 53, 28
1, 944949, Note_on_c, 0, 61, 0
1, 944978, Note_on_c, 0, 68, 0
1, 944981, Note_on_c, 0, 53, 0
1, 944992, Note_on_c, 0, 44, 0
1, 945115, Note_on_c, 0, 73, 0
1, 945445, Note_on_c, 0, 75, 53
1, 945454, Note_on_c, 0, 73, 42
1, 945461, Note_on_c, 0, 63, 39
1, 945462, Note_on_c, 0, 54, 36
1, 945475, Note_on_c, 0, 44, 34
1, 945680, Note_on_c, 0, 63, 0
1, 945759, Note_on_c, 0, 73, 0
1, 945782, Note_on_c, 0, 54, 0
1, 945792, Note_on_c, 0, 44, 0
1, 946070, Note_on_c, 0, 75, 0
1, 946441, Note_on_c, 0, 78, 62
1, 946470, Note_on_c, 0, 73, 44
1, 946483, Note_on_c, 0, 58, 37
1, 946483, Note_on_c, 0, 66, 37
1, 946507, Note_on_c, 0, 44, 35
1, 946642, Control_c, 0, 64, 117
1, 946659, Control_c, 0, 64, 89
1, 946678, Control_c, 0, 64, 63
1, 946696, Control_c, 0, 64, 52
1, 946734, Control_c, 0, 64, 59
1, 946753, Control_c, 0, 64, 70
1, 946771, Control_c, 0, 64, 88
1, 946790, Control_c, 0, 64, 115
1, 946808, Control_c, 0, 64, 127
1, 947076, Note_on_c, 0, 44, 0
1, 947251, Note_on_c, 0, 44, 28
1, 947380, Note_on_c, 0, 58, 0
1, 947669, Note_on_c, 0, 44, 0
1, 947981, Note_on_c, 0, 73, 0
1, 948033, Note_on_c, 0, 44, 35
1, 948450, Note_on_c, 0, 44, 0
1, 948534, Note_on_c, 0, 66, 0
1, 948763, Note_on_c, 0, 78, 0
1, 948813, Note_on_c, 0, 77, 50
1, 948828, Note_on_c, 0, 44, 36
1, 948834, Note_on_c, 0, 56, 34
1, 948840, Note_on_c, 0, 73, 37
1, 948841, Note_on_c, 0, 65, 21
1, 949022, Note_on_c, 0, 73, 0
1, 949110, Note_on_c, 0, 44, 0
1, 949201, Note_on_c, 0, 77, 0
1, 949281, Note_on_c, 0, 65, 0
1, 949644, Note_on_c, 0, 75, 52
1, 949653, Note_on_c, 0, 54, 40
1, 949656, Note_on_c, 0, 63, 38
1, 949657, Note_on_c, 0, 44, 40
1, 949678, Note_on_c, 0, 73, 39
1, 949851, Note_on_c, 0, 73, 0
1, 949853, Note_on_c, 0, 56, 0
1, 949958, Note_on_c, 0, 63, 0
1, 950074, Note_on_c, 0, 44, 0
1, 950399, Note_on_c, 0, 75, 0
1, 950418, Note_on_c, 0, 77, 54
1, 950433, Note_on_c, 0, 44, 38
1, 950445, Note_on_c, 0, 56, 34
1, 950454, Note_on_c, 0, 73, 36
1, 950462, Note_on_c, 0, 65, 40
1, 950496, Control_c, 0, 64, 115
1, 950513, Control_c, 0, 64, 86
1, 950514, Note_on_c, 0, 54, 0
1, 950530, Control_c, 0, 64, 64
1, 950550, Control_c, 0, 64, 63
1, 950567, Control_c, 0, 64, 69
1, 950586, Control_c, 0, 64, 79
1, 950606, Control_c, 0, 64, 100
1, 950624, Control_c, 0, 64, 127
1, 950761, Note_on_c, 0, 77, 0
1, 950828, Note_on_c, 0, 65, 0
1, 950841, Note_on_c, 0, 73, 0
1, 950888, Note_on_c, 0, 44, 0
1, 951376, Note_on_c, 0, 44, 33
1, 951383, Note_on_c, 0, 73, 49
1, 951392, Note_on_c, 0, 53, 31
1, 951402, Note_on_c, 0, 61, 31
1, 951542, Control_c, 0, 64, 96
1, 951560, Control_c, 0, 64, 67
1, 951577, Control_c, 0, 64, 47
1, 951597, Control_c, 0, 64, 45
1, 951608, Note_on_c, 0, 56, 0
1, 951652, Control_c, 0, 64, 57
1, 951670, Control_c, 0, 64, 69
1, 951690, Control_c, 0, 64, 86
1, 951707, Control_c, 0, 64, 112
1, 951726, Control_c, 0, 64, 127
1, 951816, Note_on_c, 0, 44, 0
1, 952169, Note_on_c, 0, 44, 35
1, 952237, Control_c, 0, 67, 119
1, 952272, Control_c, 0, 67, 112
1, 952291, Control_c, 0, 67, 105
1, 952309, Control_c, 0, 67, 97
1, 952329, Control_c, 0, 67, 87
1, 952348, Control_c, 0, 67, 75
1, 952366, Control_c, 0, 67, 62
1, 952386, Control_c, 0, 67, 49
1, 952401, Control_c, 0, 67, 36
1, 952421, Control_c, 0, 67, 25
1, 952438, Control_c, 0, 67, 16
1, 952458, Control_c, 0, 67, 10
1, 952505, Note_on_c, 0, 44, 0
1, 952607, Control_c, 0, 67, 0
1, 952627, Note_on_c, 0, 73, 0
1, 952740, Note_on_c, 0, 61, 0
1, 952904, Note_on_c, 0, 44, 34
1, 953095, Note_on_c, 0, 53, 0
1, 953387, Note_on_c, 0, 44, 0
1, 953672, Note_on_c, 0, 44, 32
1, 953680, Note_on_c, 0, 68, 42
1, 953693, Note_on_c, 0, 56, 29
1, 953880, Note_on_c, 0, 56, 0
1, 954008, Note_on_c, 0, 68, 0
1, 954066, Note_on_c, 0, 44, 0
1, 954406, Note_on_c, 0, 73, 64
1, 954434, Note_on_c, 0, 61, 42
1, 954441, Note_on_c, 0, 53, 34
1, 954455, Note_on_c, 0, 44, 28
1, 954462, Note_on_c, 0, 68, 31
1, 954596, Note_on_c, 0, 61, 0
1, 954717, Note_on_c, 0, 73, 0
1, 954739, Note_on_c, 0, 44, 0
1, 954964, Note_on_c, 0, 68, 0
1, 955099, Note_on_c, 0, 77, 75
1, 955115, Note_on_c, 0, 56, 48
1, 955124, Note_on_c, 0, 73, 48
1, 955136, Note_on_c, 0, 65, 33
1, 955149, Note_on_c, 0, 44, 34
1, 955244, Note_on_c, 0, 73, 0
1, 955275, Note_on_c, 0, 65, 0
1, 955375, Note_on_c, 0, 44, 0
1, 955448, Note_on_c, 0, 56, 0
1, 955465, Note_on_c, 0, 77, 0
1, 955500, Note_on_c, 0, 44, 43
1, 955532, Note_on_c, 0, 68, 33
1, 955615, Note_on_c, 0, 72, 47
1, 955630, Note_on_c, 0, 44, 0
1, 955680, Poly_aftertouch_c, 0, 53, 24
1, 955951, Poly_aftertouch_c, 0, 53, 22
1, 955995, Note_on_c, 0, 60, 43
1, 956057, Note_on_c, 0, 53, 0
1, 956057, Poly_aftertouch_c, 0, 53, 0
1, 956231, Note_on_c, 0, 80, 69
1, 956533, Control_c, 0, 67, 8
1, 956571, Control_c, 0, 67, 13
1, 956589, Control_c, 0, 67, 17
1, 956608, Control_c, 0, 67, 27
1, 956615, Note_on_c, 0, 60, 0
1, 956627, Control_c, 0, 67, 41
1, 956646, Control_c, 0, 67, 54
1, 956664, Control_c, 0, 67, 64
1, 956682, Control_c, 0, 67, 73
1, 956701, Control_c, 0, 67, 83
1, 956718, Control_c, 0, 67, 93
1, 956737, Control_c, 0, 67, 102
1, 956755, Control_c, 0, 67, 110
1, 956783, Control_c, 0, 67, 115
1, 956822, Control_c, 0, 67, 120
1, 956839, Control_c, 0, 67, 125
1, 956944, Note_on_c, 0, 44, 35
1, 957007, Control_c, 0, 64, 104
1, 957027, Control_c, 0, 64, 78
1, 957044, Control_c, 0, 64, 63
1, 957079, Control_c, 0, 64, 69
1, 957099, Control_c, 0, 64, 79
1, 957117, Control_c, 0, 64, 98
1, 957137, Control_c, 0, 64, 123
1, 957154, Control_c, 0, 64, 127
1, 957369, Note_on_c, 0, 44, 0
1, 957706, Note_on_c, 0, 44, 35
1, 957761, Note_on_c, 0, 72, 0
1, 957860, Note_on_c, 0, 68, 0
1, 958031, Note_on_c, 0, 44, 0
1, 958409, Note_on_c, 0, 73, 38
1, 958411, Note_on_c, 0, 66, 37
1, 958416, Note_on_c, 0, 78, 49
1, 958434, Note_on_c, 0, 58, 27
1, 958443, Note_on_c, 0, 44, 28
1, 958554, Note_on_c, 0, 80, 0
1, 958732, Note_on_c, 0, 44, 0
1, 958746, Note_on_c, 0, 73, 0
1, 958799, Note_on_c, 0, 58, 0
1, 958824, Note_on_c, 0, 66, 0
1, 959155, Note_on_c, 0, 75, 60
1, 959193, Note_on_c, 0, 54, 35
1, 959195, Note_on_c, 0, 44, 34
1, 959202, Note_on_c, 0, 63, 35
1, 959214, Note_on_c, 0, 73, 25
1, 959268, Control_c, 0, 64, 106
1, 959278, Note_on_c, 0, 78, 0
1, 959284, Control_c, 0, 64, 79
1, 959304, Control_c, 0, 64, 63
1, 959340, Control_c, 0, 64, 69
1, 959359, Control_c, 0, 64, 76
1, 959377, Control_c, 0, 64, 90
1, 959397, Control_c, 0, 64, 111
1, 959408, Note_on_c, 0, 73, 0
1, 959413, Control_c, 0, 64, 127
1, 959501, Note_on_c, 0, 44, 0
1, 959519, Note_on_c, 0, 63, 0
1, 959867, Note_on_c, 0, 77, 63
1, 959894, Note_on_c, 0, 73, 43
1, 959896, Note_on_c, 0, 56, 40
1, 959900, Note_on_c, 0, 44, 32
1, 959910, Note_on_c, 0, 65, 34
1, 959976, Note_on_c, 0, 54, 0
1, 959980, Control_c, 0, 64, 101
1, 959998, Control_c, 0, 64, 72
1, 960003, Note_on_c, 0, 75, 0
1, 960016, Control_c, 0, 64, 51
1, 960036, Control_c, 0, 64, 49
1, 960072, Control_c, 0, 64, 53
1, 960091, Control_c, 0, 64, 61
1, 960109, Control_c, 0, 64, 72
1, 960130, Control_c, 0, 64, 87
1, 960131, Note_on_c, 0, 73, 0
1, 960146, Control_c, 0, 64, 110
1, 960165, Control_c, 0, 64, 127
1, 960172, Note_on_c, 0, 44, 0
1, 960190, Note_on_c, 0, 77, 0
1, 960244, Note_on_c, 0, 65, 0
1, 960887, Note_on_c, 0, 73, 50
1, 960892, Note_on_c, 0, 68, 36
1, 960914, Note_on_c, 0, 44, 25
1, 960915, Note_on_c, 0, 53, 26
1, 960917, Note_on_c, 0, 61, 33
1, 961064, Control_c, 0, 64, 116
1, 961081, Control_c, 0, 64, 91
1, 961101, Control_c, 0, 64, 65
1, 961120, Control_c, 0, 64, 49
1, 961139, Control_c, 0, 64, 47
1, 961193, Control_c, 0, 64, 56
1, 961212, Control_c, 0, 64, 66
1, 961230, Control_c, 0, 64, 79
1, 961250, Control_c, 0, 64, 100
1, 961268, Control_c, 0, 64, 127
1, 961361, Control_c, 0, 67, 119
1, 961374, Note_on_c, 0, 44, 0
1, 961397, Control_c, 0, 67, 115
1, 961434, Control_c, 0, 67, 108
1, 961461, Control_c, 0, 67, 103
1, 961481, Control_c, 0, 67, 98
1, 961499, Control_c, 0, 67, 91
1, 961519, Control_c, 0, 67, 83
1, 961536, Control_c, 0, 67, 74
1, 961556, Control_c, 0, 67, 66
1, 961571, Control_c, 0, 67, 58
1, 961587, Note_on_c, 0, 44, 21
1, 961591, Control_c, 0, 67, 50
1, 961610, Control_c, 0, 67, 43
1, 961628, Control_c, 0, 67, 36
1, 961647, Control_c, 0, 67, 29
1, 961666, Control_c, 0, 67, 23
1, 961684, Control_c, 0, 67, 16
1, 961703, Control_c, 0, 67, 9
1, 961731, Note_on_c, 0, 56, 0
1, 961740, Control_c, 0, 67, 0
1, 961957, Note_on_c, 0, 44, 0
1, 962074, Note_on_c, 0, 61, 0
1, 962228, Note_on_c, 0, 44, 34
1, 962350, Note_on_c, 0, 68, 0
1, 962523, Note_on_c, 0, 73, 0
1, 962602, Note_on_c, 0, 44, 0
1, 962867, Note_on_c, 0, 44, 38
1, 963144, Note_on_c, 0, 44, 0
1, 963602, Note_on_c, 0, 77, 54
1, 963608, Note_on_c, 0, 49, 30
1, 963626, Note_on_c, 0, 44, 34
1, 963630, Note_on_c, 0, 73, 34
1, 963646, Note_on_c, 0, 65, 26
1, 963932, Note_on_c, 0, 53, 0
1, 963943, Note_on_c, 0, 44, 0
1, 963991, Note_on_c, 0, 65, 0
1, 964188, Note_on_c, 0, 73, 0
1, 964259, Note_on_c, 0, 44, 47
1, 964503, Note_on_c, 0, 44, 0
1, 965105, Note_on_c, 0, 82, 67
1, 965120, Note_on_c, 0, 73, 42
1, 965121, Note_on_c, 0, 54, 35
1, 965132, Note_on_c, 0, 44, 35
1, 965142, Note_on_c, 0, 70, 41
1, 965298, Control_c, 0, 64, 120
1, 965314, Control_c, 0, 64, 92
1, 965334, Control_c, 0, 64, 66
1, 965340, Poly_aftertouch_c, 0, 79, 0
1, 965352, Control_c, 0, 64, 55
1, 965390, Control_c, 0, 64, 59
1, 965408, Control_c, 0, 64, 68
1, 965425, Note_on_c, 0, 77, 0
1, 965425, Control_c, 0, 64, 80
1, 965445, Control_c, 0, 64, 100
1, 965452, Note_on_c, 0, 49, 0
1, 965465, Control_c, 0, 64, 126
1, 965538, Control_c, 0, 67, 8
1, 965594, Control_c, 0, 67, 14
1, 965618, Note_on_c, 0, 44, 0
1, 965630, Control_c, 0, 67, 21
1, 965669, Control_c, 0, 67, 28
1, 965685, Control_c, 0, 67, 33
1, 965704, Control_c, 0, 67, 37
1, 965723, Control_c, 0, 67, 43
1, 965741, Control_c, 0, 67, 48
1, 965760, Control_c, 0, 67, 54
1, 965778, Control_c, 0, 67, 60
1, 965798, Control_c, 0, 67, 65
1, 965816, Control_c, 0, 67, 70
1, 965830, Note_on_c, 0, 44, 40
1, 965835, Control_c, 0, 67, 74
1, 965853, Control_c, 0, 67, 84
1, 965870, Control_c, 0, 67, 94
1, 965889, Control_c, 0, 67, 101
1, 965919, Note_on_c, 0, 73, 0
1, 965946, Control_c, 0, 67, 106
1, 965983, Control_c, 0, 67, 110
1, 966039, Control_c, 0, 67, 115
1, 966071, Note_on_c, 0, 70, 0
1, 966084, Note_on_c, 0, 44, 0
1, 966112, Control_c, 0, 67, 119
1, 966515, Note_on_c, 0, 80, 51
1, 966523, Note_on_c, 0, 68, 35
1, 966524, Note_on_c, 0, 44, 36
1, 966535, Note_on_c, 0, 53, 37
1, 966537, Note_on_c, 0, 73, 31
1, 966656, Note_on_c, 0, 54, 0
1, 966658, Control_c, 0, 67, 123
1, 966696, Control_c, 0, 64, 110
1, 966714, Control_c, 0, 64, 82
1, 966716, Note_on_c, 0, 82, 0
1, 966733, Control_c, 0, 64, 59
1, 966752, Control_c, 0, 64, 55
1, 966789, Control_c, 0, 64, 59
1, 966807, Control_c, 0, 64, 67
1, 966825, Control_c, 0, 64, 77
1, 966843, Note_on_c, 0, 44, 0
1, 966844, Control_c, 0, 64, 95
1, 966862, Control_c, 0, 64, 120
1, 966880, Control_c, 0, 64, 127
1, 967170, Note_on_c, 0, 80, 0
1, 967173, Note_on_c, 0, 44, 39
1, 967328, Note_on_c, 0, 73, 0
1, 967429, Note_on_c, 0, 44, 0
1, 967444, Note_on_c, 0, 68, 0
1, 967649, Control_c, 0, 67, 127
1, 967846, Note_on_c, 0, 77, 51
1, 967880, Note_on_c, 0, 55, 41
1, 967888, Note_on_c, 0, 65, 37
1, 967889, Note_on_c, 0, 73, 38
1, 967898, Note_on_c, 0, 44, 28
1, 968108, Note_on_c, 0, 53, 0
1, 968227, Note_on_c, 0, 44, 0
1, 968577, Note_on_c, 0, 44, 45
1, 968673, Note_on_c, 0, 73, 0
1, 968708, Note_on_c, 0, 65, 0
1, 968970, Note_on_c, 0, 55, 0
1, 968991, Note_on_c, 0, 44, 0
1, 969519, Note_on_c, 0, 75, 52
1, 969520, Note_on_c, 0, 72, 39
1, 969529, Note_on_c, 0, 63, 39
1, 969535, Note_on_c, 0, 44, 38
1, 969541, Note_on_c, 0, 56, 35
1, 969706, Control_c, 0, 64, 113
1, 969710, Note_on_c, 0, 77, 0
1, 969724, Control_c, 0, 64, 84
1, 969744, Control_c, 0, 64, 56
1, 969764, Control_c, 0, 64, 46
1, 969817, Control_c, 0, 64, 57
1, 969835, Control_c, 0, 64, 67
1, 969855, Control_c, 0, 64, 83
1, 969883, Control_c, 0, 64, 106
1, 969900, Control_c, 0, 64, 127
1, 970002, Note_on_c, 0, 44, 0
1, 970270, Note_on_c, 0, 44, 39
1, 970279, Note_on_c, 0, 56, 0
1, 970311, Note_on_c, 0, 75, 0
1, 970376, Note_on_c, 0, 72, 0
1, 970724, Note_on_c, 0, 44, 0
1, 970790, Control_c, 0, 67, 123
1, 970875, Control_c, 0, 67, 118
1, 970910, Control_c, 0, 67, 113
1, 970931, Control_c, 0, 67, 109
1, 970946, Control_c, 0, 67, 102
1, 970953, Note_on_c, 0, 63, 0
1, 970966, Control_c, 0, 67, 94
1, 970984, Control_c, 0, 67, 82
1, 971001, Note_on_c, 0, 44, 42
1, 971004, Control_c, 0, 67, 69
1, 971022, Control_c, 0, 67, 56
1, 971040, Control_c, 0, 67, 44
1, 971059, Control_c, 0, 67, 34
1, 971078, Control_c, 0, 67, 25
1, 971097, Control_c, 0, 67, 18
1, 971115, Control_c, 0, 67, 12
1, 971207, Control_c, 0, 67, 0
1, 971369, Note_on_c, 0, 44, 0
1, 971682, Note_on_c, 0, 56, 56
1, 971695, Note_on_c, 0, 44, 39
1, 972086, Note_on_c, 0, 44, 0
1, 972398, Note_on_c, 0, 61, 66
1, 972422, Note_on_c, 0, 44, 32
1, 972426, Note_on_c, 0, 53, 40
1, 972504, Note_on_c, 0, 56, 0
1, 972802, Note_on_c, 0, 44, 0
1, 972818, Note_on_c, 0, 53, 0
1, 972933, Note_on_c, 0, 61, 0
1, 973073, Note_on_c, 0, 63, 73
1, 973075, Note_on_c, 0, 61, 64
1, 973090, Note_on_c, 0, 44, 40
1, 973116, Note_on_c, 0, 54, 36
1, 973354, Note_on_c, 0, 61, 0
1, 973410, Note_on_c, 0, 54, 0
1, 973450, Note_on_c, 0, 44, 0
1, 973563, Note_on_c, 0, 63, 0
1, 974099, Note_on_c, 0, 66, 74
1, 974119, Note_on_c, 0, 61, 53
1, 974124, Note_on_c, 0, 58, 57
1, 974140, Note_on_c, 0, 37, 34
1, 974147, Note_on_c, 0, 44, 34
1, 974347, Control_c, 0, 64, 109
1, 974366, Control_c, 0, 64, 85
1, 974385, Control_c, 0, 64, 60
1, 974404, Control_c, 0, 64, 45
1, 974419, Control_c, 0, 64, 40
1, 974513, Control_c, 0, 64, 55
1, 974533, Control_c, 0, 64, 73
1, 974560, Control_c, 0, 64, 96
1, 974580, Control_c, 0, 64, 126
1, 974753, Note_on_c, 0, 44, 0
1, 974912, Note_on_c, 0, 44, 39
1, 975374, Note_on_c, 0, 44, 0
1, 975604, Note_on_c, 0, 44, 40
1, 975845, Note_on_c, 0, 61, 0
1, 975944, Note_on_c, 0, 58, 0
1, 976059, Note_on_c, 0, 44, 0
1, 976236, Note_on_c, 0, 44, 36
1, 976254, Note_on_c, 0, 65, 55
1, 976261, Note_on_c, 0, 56, 38
1, 976277, Note_on_c, 0, 61, 39
1, 976450, Note_on_c, 0, 66, 0
1, 976632, Note_on_c, 0, 56, 0
1, 976637, Note_on_c, 0, 61, 0
1, 976652, Note_on_c, 0, 44, 0
1, 976938, Note_on_c, 0, 63, 55
1, 976954, Note_on_c, 0, 61, 34
1, 976963, Note_on_c, 0, 54, 36
1, 976975, Note_on_c, 0, 44, 27
1, 977098, Control_c, 0, 64, 106
1, 977099, Control_c, 0, 67, 8
1, 977116, Control_c, 0, 64, 77
1, 977132, Note_on_c, 0, 65, 0
1, 977135, Control_c, 0, 64, 56
1, 977154, Control_c, 0, 64, 54
1, 977172, Control_c, 0, 64, 56
1, 977193, Control_c, 0, 64, 62
1, 977210, Control_c, 0, 64, 71
1, 977227, Control_c, 0, 64, 86
1, 977246, Control_c, 0, 64, 108
1, 977264, Control_c, 0, 64, 127
1, 977302, Note_on_c, 0, 61, 0
1, 977378, Note_on_c, 0, 54, 0
1, 977384, Note_on_c, 0, 44, 0
1, 977534, Control_c, 0, 67, 12
1, 977591, Control_c, 0, 67, 17
1, 977612, Note_on_c, 0, 65, 47
1, 977625, Control_c, 0, 67, 21
1, 977649, Note_on_c, 0, 61, 35
1, 977652, Note_on_c, 0, 56, 31
1, 977660, Note_on_c, 0, 44, 30
1, 977663, Control_c, 0, 67, 28
1, 977681, Control_c, 0, 67, 33
1, 977700, Control_c, 0, 64, 118
1, 977701, Control_c, 0, 67, 39
1, 977719, Control_c, 0, 64, 89
1, 977721, Control_c, 0, 67, 44
1, 977729, Note_on_c, 0, 63, 0
1, 977738, Control_c, 0, 64, 60
1, 977741, Control_c, 0, 67, 49
1, 977756, Control_c, 0, 64, 46
1, 977758, Control_c, 0, 67, 54
1, 977775, Control_c, 0, 67, 59
1, 977792, Control_c, 0, 64, 50
1, 977795, Control_c, 0, 67, 64
1, 977811, Control_c, 0, 64, 61
1, 977812, Control_c, 0, 67, 68
1, 977830, Control_c, 0, 64, 73
1, 977831, Control_c, 0, 67, 72
1, 977848, Control_c, 0, 64, 91
1, 977867, Control_c, 0, 64, 114
1, 977869, Control_c, 0, 67, 79
1, 977885, Control_c, 0, 64, 127
1, 977923, Control_c, 0, 67, 84
1, 977978, Control_c, 0, 67, 88
1, 977984, Note_on_c, 0, 61, 0
1, 978002, Note_on_c, 0, 56, 0
1, 978015, Control_c, 0, 67, 93
1, 978051, Control_c, 0, 67, 99
1, 978089, Control_c, 0, 67, 107
1, 978098, Note_on_c, 0, 37, 0
1, 978107, Control_c, 0, 67, 113
1, 978126, Control_c, 0, 67, 117
1, 978133, Note_on_c, 0, 44, 0
1, 978181, Control_c, 0, 67, 122
1, 978256, Control_c, 0, 67, 127
1, 978478, Note_on_c, 0, 37, 40
1, 978486, Note_on_c, 0, 61, 47
1, 978487, Note_on_c, 0, 44, 37
1, 978505, Note_on_c, 0, 53, 31
1, 978711, Control_c, 0, 64, 118
1, 978727, Control_c, 0, 64, 94
1, 978747, Control_c, 0, 64, 68
1, 978765, Control_c, 0, 64, 50
1, 978783, Control_c, 0, 64, 48
1, 978839, Control_c, 0, 64, 52
1, 978841, Note_on_c, 0, 65, 0
1, 978858, Control_c, 0, 64, 60
1, 978877, Control_c, 0, 64, 70
1, 978896, Control_c, 0, 64, 85
1, 978899, Control_c, 0, 67, 120
1, 978912, Control_c, 0, 64, 105
1, 978931, Control_c, 0, 64, 124
1, 978932, Control_c, 0, 67, 114
1, 978954, Note_on_c, 0, 44, 0
1, 978968, Control_c, 0, 67, 108
1, 979006, Control_c, 0, 67, 99
1, 979025, Control_c, 0, 67, 91
1, 979043, Control_c, 0, 67, 78
1, 979062, Control_c, 0, 67, 62
1, 979081, Control_c, 0, 67, 45
1, 979098, Control_c, 0, 67, 32
1, 979115, Control_c, 0, 67, 21
1, 979135, Control_c, 0, 67, 13
1, 979188, Note_on_c, 0, 44, 32
1, 979193, Control_c, 0, 67, 0
1, 979601, Note_on_c, 0, 44, 0
1, 979859, Note_on_c, 0, 44, 47
1, 980202, Poly_aftertouch_c, 0, 53, 24
1, 980294, Note_on_c, 0, 53, 0
1, 980294, Poly_aftertouch_c, 0, 53, 0
1, 980328, Note_on_c, 0, 44, 0
1, 980457, Note_on_c, 0, 56, 64
1, 980475, Note_on_c, 0, 44, 40
1, 980479, Note_on_c, 0, 53, 47
1, 980680, Note_on_c, 0, 61, 0
1, 980779, Note_on_c, 0, 56, 0
1, 980895, Note_on_c, 0, 44, 0
1, 981064, Note_on_c, 0, 61, 71
1, 981081, Note_on_c, 0, 44, 40
1, 981091, Note_on_c, 0, 56, 58
1, 981218, Note_on_c, 0, 53, 0
1, 981423, Note_on_c, 0, 61, 0
1, 981468, Note_on_c, 0, 44, 0
1, 981575, Note_on_c, 0, 56, 0
1, 981652, Note_on_c, 0, 65, 77
1, 981663, Note_on_c, 0, 61, 62
1, 981679, Note_on_c, 0, 44, 48
1, 981843, Note_on_c, 0, 61, 0
1, 981941, Note_on_c, 0, 65, 0
1, 982009, Note_on_c, 0, 44, 0
1, 982497, Note_on_c, 0, 44, 56
1, 982500, Note_on_c, 0, 38, 53
1, 982540, Note_on_c, 0, 68, 75
1, 982547, Note_on_c, 0, 59, 54
1, 982565, Note_on_c, 0, 65, 60
1, 982726, Note_on_c, 0, 37, 0
1, 982823, Control_c, 0, 64, 104
1, 982842, Control_c, 0, 64, 72
1, 982858, Control_c, 0, 64, 43
1, 982878, Control_c, 0, 64, 26
1, 982897, Control_c, 0, 64, 20
1, 982980, Control_c, 0, 64, 32
1, 982984, Note_on_c, 0, 44, 0
1, 983000, Control_c, 0, 64, 50
1, 983018, Control_c, 0, 64, 65
1, 983037, Control_c, 0, 64, 81
1, 983053, Control_c, 0, 64, 98
1, 983072, Control_c, 0, 64, 115
1, 983092, Control_c, 0, 64, 127
1, 983218, Note_on_c, 0, 44, 50
1, 983580, Note_on_c, 0, 44, 0
1, 983692, Note_on_c, 0, 68, 0
1, 983792, Note_on_c, 0, 44, 54
1, 983975, Note_on_c, 0, 65, 0
1, 984183, Note_on_c, 0, 44, 0
1, 984392, Note_on_c, 0, 66, 62
1, 984397, Note_on_c, 0, 44, 48
1, 984425, Note_on_c, 0, 58, 44
1, 984501, Note_on_c, 0, 59, 0
1, 984859, Note_on_c, 0, 44, 0
1, 985111, Note_on_c, 0, 39, 66
1, 985149, Note_on_c, 0, 44, 32
1, 985187, Note_on_c, 0, 63, 57
1, 985191, Note_on_c, 0, 54, 31
1, 985274, Note_on_c, 0, 66, 0
1, 985303, Note_on_c, 0, 58, 0
1, 985351, Control_c, 0, 64, 122
1, 985370, Control_c, 0, 64, 96
1, 985388, Note_on_c, 0, 38, 0
1, 985388, Control_c, 0, 64, 69
1, 985407, Control_c, 0, 64, 45
1, 985427, Control_c, 0, 64, 34
1, 985499, Control_c, 0, 64, 48
1, 985518, Control_c, 0, 64, 63
1, 985536, Control_c, 0, 64, 79
1, 985545, Note_on_c, 0, 44, 0
1, 985555, Control_c, 0, 64, 98
1, 985574, Control_c, 0, 64, 117
1, 985575, Note_on_c, 0, 54, 0
1, 985593, Control_c, 0, 64, 127
1, 985736, Note_on_c, 0, 44, 48
1, 985737, Note_on_c, 0, 65, 61
1, 985749, Note_on_c, 0, 60, 50
1, 985752, Note_on_c, 0, 54, 42
1, 985888, Note_on_c, 0, 63, 0
1, 986005, Note_on_c, 0, 44, 0
1, 986069, Note_on_c, 0, 54, 0
1, 986514, Note_on_c, 0, 41, 65
1, 986529, Note_on_c, 0, 44, 46
1, 986551, Note_on_c, 0, 61, 51
1, 986573, Note_on_c, 0, 53, 30
1, 986683, Note_on_c, 0, 60, 0
1, 986722, Control_c, 0, 64, 123
1, 986740, Note_on_c, 0, 39, 0
1, 986741, Control_c, 0, 64, 100
1, 986755, Note_on_c, 0, 65, 0
1, 986761, Control_c, 0, 64, 74
1, 986778, Control_c, 0, 64, 50
1, 986796, Control_c, 0, 64, 33
1, 986814, Control_c, 0, 64, 20
1, 986833, Control_c, 0, 64, 10
1, 986870, Control_c, 0, 64, 0
1, 986909, Control_c, 0, 64, 14
1, 986917, Note_on_c, 0, 44, 0
1, 986925, Control_c, 0, 64, 32
1, 986946, Control_c, 0, 64, 44
1, 986964, Control_c, 0, 64, 57
1, 986981, Control_c, 0, 64, 76
1, 987001, Control_c, 0, 64, 94
1, 987018, Control_c, 0, 64, 114
1, 987038, Control_c, 0, 64, 127
1, 987148, Note_on_c, 0, 44, 43
1, 987365, Note_on_c, 0, 44, 0
1, 987758, Note_on_c, 0, 37, 66
1, 987791, Note_on_c, 0, 44, 34
1, 987901, Control_c, 0, 64, 114
1, 987917, Control_c, 0, 64, 89
1, 987936, Control_c, 0, 64, 64
1, 987954, Control_c, 0, 64, 45
1, 987973, Control_c, 0, 64, 36
1, 988050, Control_c, 0, 64, 46
1, 988066, Control_c, 0, 64, 61
1, 988075, Note_on_c, 0, 41, 0
1, 988086, Control_c, 0, 64, 75
1, 988102, Control_c, 0, 64, 88
1, 988121, Control_c, 0, 64, 104
1, 988139, Control_c, 0, 64, 119
1, 988158, Control_c, 0, 64, 127
1, 988163, Note_on_c, 0, 44, 0
1, 988354, Note_on_c, 0, 44, 38
1, 988571, Note_on_c, 0, 61, 0
1, 988611, Note_on_c, 0, 53, 0
1, 988710, Note_on_c, 0, 44, 0
1, 988853, Control_c, 0, 67, 8
1, 988983, Control_c, 0, 67, 13
1, 988986, Note_on_c, 0, 34, 59
1, 988992, Note_on_c, 0, 61, 57
1, 989000, Note_on_c, 0, 44, 26
1, 989020, Control_c, 0, 67, 17
1, 989032, Note_on_c, 0, 53, 25
1, 989057, Control_c, 0, 67, 22
1, 989093, Control_c, 0, 67, 27
1, 989112, Control_c, 0, 67, 31
1, 989131, Control_c, 0, 67, 35
1, 989150, Control_c, 0, 64, 106
1, 989151, Control_c, 0, 67, 39
1, 989169, Control_c, 0, 64, 76
1, 989172, Control_c, 0, 67, 43
1, 989188, Control_c, 0, 64, 48
1, 989189, Control_c, 0, 67, 47
1, 989205, Control_c, 0, 64, 34
1, 989206, Control_c, 0, 67, 52
1, 989219, Note_on_c, 0, 37, 0
1, 989241, Control_c, 0, 67, 59
1, 989261, Control_c, 0, 67, 64
1, 989298, Control_c, 0, 64, 50
1, 989300, Control_c, 0, 67, 70
1, 989317, Control_c, 0, 64, 65
1, 989336, Control_c, 0, 64, 78
1, 989337, Control_c, 0, 67, 77
1, 989354, Control_c, 0, 64, 92
1, 989373, Control_c, 0, 64, 109
1, 989374, Control_c, 0, 67, 81
1, 989391, Control_c, 0, 64, 125
1, 989423, Note_on_c, 0, 44, 0
1, 989425, Control_c, 0, 67, 86
1, 989483, Control_c, 0, 67, 92
1, 989529, Control_c, 0, 67, 98
1, 989567, Control_c, 0, 67, 102
1, 989601, Control_c, 0, 67, 108
1, 989604, Note_on_c, 0, 53, 0
1, 989609, Note_on_c, 0, 44, 41
1, 989640, Control_c, 0, 67, 114
1, 989677, Control_c, 0, 67, 119
1, 989715, Control_c, 0, 67, 123
1, 989753, Control_c, 0, 67, 127
1, 989950, Note_on_c, 0, 44, 0
1, 989973, Note_on_c, 0, 61, 0
1, 990480, Note_on_c, 0, 44, 39
1, 990507, Note_on_c, 0, 63, 58
1, 990521, Note_on_c, 0, 32, 50
1, 990523, Note_on_c, 0, 54, 35
1, 990523, Note_on_c, 0, 61, 44
1, 990651, Control_c, 0, 64, 113
1, 990669, Control_c, 0, 64, 87
1, 990689, Control_c, 0, 64, 58
1, 990697, Note_on_c, 0, 34, 0
1, 990707, Control_c, 0, 64, 34
1, 990724, Control_c, 0, 64, 27
1, 990743, Control_c, 0, 64, 22
1, 990761, Control_c, 0, 64, 13
1, 990799, Control_c, 0, 64, 0
1, 990854, Control_c, 0, 64, 11
1, 990873, Control_c, 0, 64, 27
1, 990883, Note_on_c, 0, 44, 0
1, 990891, Control_c, 0, 64, 43
1, 990909, Control_c, 0, 64, 60
1, 990927, Control_c, 0, 64, 81
1, 990946, Control_c, 0, 64, 99
1, 990965, Control_c, 0, 64, 121
1, 990983, Control_c, 0, 64, 127
1, 991163, Note_on_c, 0, 44, 38
1, 991235, Note_on_c, 0, 61, 0
1, 991457, Note_on_c, 0, 44, 0
1, 991721, Note_on_c, 0, 44, 32
1, 991760, Note_on_c, 0, 60, 41
1, 991828, Control_c, 0, 64, 110
1, 991844, Control_c, 0, 64, 84
1, 991864, Control_c, 0, 64, 58
1, 991882, Control_c, 0, 64, 40
1, 991900, Control_c, 0, 64, 36
1, 991920, Control_c, 0, 64, 32
1, 991994, Control_c, 0, 64, 41
1, 992013, Control_c, 0, 64, 55
1, 992029, Control_c, 0, 64, 67
1, 992048, Control_c, 0, 64, 79
1, 992067, Control_c, 0, 64, 93
1, 992086, Control_c, 0, 64, 107
1, 992090, Note_on_c, 0, 44, 0
1, 992105, Control_c, 0, 64, 121
1, 992123, Control_c, 0, 64, 127
1, 992314, Note_on_c, 0, 44, 38
1, 992423, Note_on_c, 0, 60, 0
1, 992452, Note_on_c, 0, 54, 0
1, 992593, Note_on_c, 0, 44, 0
1, 993006, Note_on_c, 0, 65, 45
1, 993026, Note_on_c, 0, 60, 40
1, 993032, Note_on_c, 0, 44, 30
1, 993039, Note_on_c, 0, 54, 28
1, 993169, Control_c, 0, 64, 110
1, 993187, Control_c, 0, 64, 82
1, 993207, Control_c, 0, 64, 55
1, 993218, Note_on_c, 0, 63, 0
1, 993226, Control_c, 0, 64, 40
1, 993239, Poly_aftertouch_c, 0, 36, 0
1, 993329, Control_c, 0, 64, 50
1, 993345, Control_c, 0, 64, 63
1, 993364, Control_c, 0, 64, 75
1, 993383, Control_c, 0, 64, 89
1, 993401, Control_c, 0, 64, 106
1, 993420, Control_c, 0, 64, 122
1, 993438, Control_c, 0, 64, 127
1, 993501, Note_on_c, 0, 44, 0
1, 993693, Note_on_c, 0, 44, 18
1, 993882, Note_on_c, 0, 54, 0
1, 994024, Note_on_c, 0, 44, 0
1, 994083, Note_on_c, 0, 60, 0
1, 994581, Note_on_c, 0, 61, 42
1, 994592, Note_on_c, 0, 53, 31
1, 994598, Note_on_c, 0, 44, 32
1, 994601, Note_on_c, 0, 37, 34
1, 994745, Control_c, 0, 64, 116
1, 994763, Control_c, 0, 64, 89
1, 994782, Control_c, 0, 64, 58
1, 994801, Control_c, 0, 64, 32
1, 994820, Control_c, 0, 64, 22
1, 994836, Control_c, 0, 64, 14
1, 994841, Note_on_c, 0, 65, 0
1, 994847, Note_on_c, 0, 32, 0
1, 994855, Control_c, 0, 64, 8
1, 994930, Control_c, 0, 64, 24
1, 994949, Control_c, 0, 64, 39
1, 994962, Note_on_c, 0, 44, 0
1, 994967, Control_c, 0, 64, 51
1, 994986, Control_c, 0, 64, 65
1, 995004, Control_c, 0, 64, 80
1, 995022, Control_c, 0, 64, 95
1, 995040, Control_c, 0, 64, 111
1, 995059, Control_c, 0, 64, 126
1, 995262, Note_on_c, 0, 44, 29
1, 995434, Note_on_c, 0, 53, 0
1, 995588, Note_on_c, 0, 61, 0
1, 995622, Note_on_c, 0, 44, 0
1, 995734, Control_c, 0, 67, 121
1, 995772, Control_c, 0, 67, 115
1, 995791, Control_c, 0, 67, 110
1, 995809, Control_c, 0, 67, 102
1, 995828, Control_c, 0, 67, 91
1, 995838, Note_on_c, 0, 44, 28
1, 995846, Control_c, 0, 67, 75
1, 995865, Control_c, 0, 67, 56
1, 995885, Control_c, 0, 67, 35
1, 995901, Control_c, 0, 67, 16
1, 995938, Control_c, 0, 67, 0
1, 996199, Note_on_c, 0, 44, 0
1, 996466, Note_on_c, 0, 68, 39
1, 996474, Note_on_c, 0, 56, 35
1, 996480, Note_on_c, 0, 44, 27
1, 996615, Note_on_c, 0, 56, 0
1, 996711, Note_on_c, 0, 68, 0
1, 996771, Note_on_c, 0, 44, 0
1, 997122, Note_on_c, 0, 72, 53
1, 997140, Note_on_c, 0, 39, 32
1, 997143, Note_on_c, 0, 44, 24
1, 997146, Note_on_c, 0, 60, 39
1, 997150, Note_on_c, 0, 68, 42
1, 997395, Note_on_c, 0, 37, 0
1, 997453, Note_on_c, 0, 60, 0
1, 997508, Note_on_c, 0, 68, 0
1, 997517, Note_on_c, 0, 44, 0
1, 997697, Note_on_c, 0, 44, 29
1, 997698, Note_on_c, 0, 73, 61
1, 997700, Note_on_c, 0, 68, 33
1, 997708, Note_on_c, 0, 61, 42
1, 997722, Note_on_c, 0, 37, 37
1, 997789, Note_on_c, 0, 72, 0
1, 997922, Note_on_c, 0, 39, 0
1, 997936, Note_on_c, 0, 68, 0
1, 997977, Note_on_c, 0, 61, 0
1, 997988, Note_on_c, 0, 44, 0
1, 998484, Note_on_c, 0, 75, 60
1, 998492, Note_on_c, 0, 36, 35
1, 998502, Note_on_c, 0, 44, 27
1, 998514, Note_on_c, 0, 63, 34
1, 998524, Note_on_c, 0, 68, 40
1, 998636, Note_on_c, 0, 73, 0
1, 998668, Note_on_c, 0, 37, 0
1, 998691, Control_c, 0, 64, 110
1, 998708, Control_c, 0, 64, 83
1, 998726, Control_c, 0, 64, 56
1, 998745, Control_c, 0, 64, 39
1, 998764, Control_c, 0, 64, 33
1, 998838, Control_c, 0, 64, 39
1, 998858, Control_c, 0, 64, 57
1, 998876, Control_c, 0, 64, 72
1, 998903, Control_c, 0, 64, 88
1, 998921, Control_c, 0, 64, 107
1, 998940, Control_c, 0, 64, 125
1, 998978, Note_on_c, 0, 44, 0
1, 999144, Note_on_c, 0, 44, 30
1, 999412, Note_on_c, 0, 44, 0
1, 999728, Note_on_c, 0, 44, 35
1, 999912, Note_on_c, 0, 75, 0
1, 999914, Note_on_c, 0, 63, 0
1, 999923, Note_on_c, 0, 68, 0
1, 1000142, Note_on_c, 0, 44, 0
1, 1000276, Note_on_c, 0, 75, 61
1, 1000317, Note_on_c, 0, 44, 31
1, 1000328, Note_on_c, 0, 63, 33
1, 1000336, Note_on_c, 0, 68, 9
1, 1000439, Note_on_c, 0, 68, 0
1, 1000553, Note_on_c, 0, 63, 0
1, 1000614, Note_on_c, 0, 75, 0
1, 1000622, Note_on_c, 0, 44, 0
1, 1000949, Note_on_c, 0, 77, 67
1, 1000970, Note_on_c, 0, 74, 52
1, 1000971, Note_on_c, 0, 44, 31
1, 1000976, Note_on_c, 0, 65, 37
1, 1000984, Note_on_c, 0, 68, 48
1, 1000993, Note_on_c, 0, 35, 29
1, 1001090, Control_c, 0, 64, 101
1, 1001109, Control_c, 0, 64, 68
1, 1001126, Control_c, 0, 64, 40
1, 1001146, Control_c, 0, 64, 36
1, 1001185, Note_on_c, 0, 36, 0
1, 1001200, Control_c, 0, 64, 54
1, 1001219, Control_c, 0, 64, 70
1, 1001238, Control_c, 0, 64, 89
1, 1001256, Control_c, 0, 64, 120
1, 1001274, Control_c, 0, 64, 127
1, 1001362, Note_on_c, 0, 44, 0
1, 1001378, Note_on_c, 0, 68, 0
1, 1001387, Note_on_c, 0, 77, 0
1, 1001427, Note_on_c, 0, 65, 0
1, 1001432, Note_on_c, 0, 74, 0
1, 1001549, Note_on_c, 0, 77, 66
1, 1001565, Note_on_c, 0, 74, 61
1, 1001570, Note_on_c, 0, 65, 45
1, 1001585, Note_on_c, 0, 44, 28
1, 1001589, Note_on_c, 0, 68, 39
1, 1001681, Note_on_c, 0, 74, 0
1, 1001749, Note_on_c, 0, 68, 0
1, 1001802, Control_c, 0, 67, 9
1, 1001859, Control_c, 0, 67, 14
1, 1001872, Note_on_c, 0, 65, 0
1, 1001897, Control_c, 0, 67, 21
1, 1001918, Note_on_c, 0, 44, 0
1, 1001933, Control_c, 0, 67, 27
1, 1001969, Control_c, 0, 67, 31
1, 1002006, Control_c, 0, 67, 36
1, 1002045, Control_c, 0, 67, 41
1, 1002082, Control_c, 0, 67, 46
1, 1002119, Control_c, 0, 67, 50
1, 1002156, Control_c, 0, 67, 54
1, 1002192, Control_c, 0, 67, 59
1, 1002229, Control_c, 0, 67, 65
1, 1002265, Control_c, 0, 67, 71
1, 1002284, Control_c, 0, 67, 75
1, 1002322, Control_c, 0, 67, 81
1, 1002350, Note_on_c, 0, 78, 61
1, 1002351, Note_on_c, 0, 34, 36
1, 1002358, Control_c, 0, 67, 86
1, 1002358, Note_on_c, 0, 46, 29
1, 1002361, Note_on_c, 0, 66, 44
1, 1002367, Note_on_c, 0, 73, 35
1, 1002397, Control_c, 0, 67, 90
1, 1002434, Control_c, 0, 67, 96
1, 1002452, Control_c, 0, 67, 101
1, 1002469, Note_on_c, 0, 77, 0
1, 1002470, Control_c, 0, 67, 109
1, 1002488, Note_on_c, 0, 35, 0
1, 1002488, Control_c, 0, 67, 114
1, 1002526, Control_c, 0, 64, 106
1, 1002528, Control_c, 0, 67, 120
1, 1002544, Control_c, 0, 64, 78
1, 1002547, Control_c, 0, 67, 125
1, 1002563, Control_c, 0, 64, 49
1, 1002581, Control_c, 0, 64, 33
1, 1002600, Control_c, 0, 64, 28
1, 1002618, Control_c, 0, 64, 20
1, 1002701, Control_c, 0, 64, 38
1, 1002720, Control_c, 0, 64, 52
1, 1002738, Control_c, 0, 64, 65
1, 1002758, Control_c, 0, 64, 81
1, 1002776, Control_c, 0, 64, 99
1, 1002796, Control_c, 0, 64, 120
1, 1002813, Control_c, 0, 64, 127
1, 1002838, Note_on_c, 0, 46, 0
1, 1003015, Note_on_c, 0, 46, 35
1, 1003272, Note_on_c, 0, 78, 0
1, 1003289, Note_on_c, 0, 46, 0
1, 1003381, Note_on_c, 0, 73, 0
1, 1003535, Note_on_c, 0, 66, 0
1, 1003632, Note_on_c, 0, 46, 40
1, 1003986, Note_on_c, 0, 46, 0
1, 1004235, Note_on_c, 0, 66, 50
1, 1004259, Note_on_c, 0, 54, 37
1, 1004278, Note_on_c, 0, 46, 28
1, 1004517, Control_c, 0, 67, 121
1, 1004521, Note_on_c, 0, 54, 0
1, 1004554, Control_c, 0, 67, 117
1, 1004582, Note_on_c, 0, 46, 0
1, 1004590, Control_c, 0, 67, 110
1, 1004609, Control_c, 0, 67, 104
1, 1004629, Control_c, 0, 67, 95
1, 1004647, Control_c, 0, 67, 84
1, 1004666, Control_c, 0, 67, 70
1, 1004684, Control_c, 0, 67, 55
1, 1004701, Control_c, 0, 67, 40
1, 1004720, Control_c, 0, 67, 25
1, 1004739, Control_c, 0, 67, 13
1, 1004776, Control_c, 0, 67, 0
1, 1004866, Note_on_c, 0, 58, 46
1, 1004867, Note_on_c, 0, 70, 60
1, 1004905, Note_on_c, 0, 46, 23
1, 1004965, Note_on_c, 0, 66, 0
1, 1005198, Poly_aftertouch_c, 0, 46, 20
1, 1005202, Note_on_c, 0, 46, 0
1, 1005202, Poly_aftertouch_c, 0, 46, 0
1, 1005203, Note_on_c, 0, 70, 0
1, 1005237, Note_on_c, 0, 58, 0
1, 1005467, Note_on_c, 0, 71, 65
1, 1005472, Note_on_c, 0, 59, 53
1, 1005506, Note_on_c, 0, 46, 28
1, 1005619, Note_on_c, 0, 34, 0
1, 1005624, Note_on_c, 0, 59, 0
1, 1005637, Note_on_c, 0, 71, 0
1, 1005817, Note_on_c, 0, 46, 0
1, 1006199, Note_on_c, 0, 73, 64
1, 1006219, Note_on_c, 0, 46, 36
1, 1006222, Note_on_c, 0, 61, 45
1, 1006229, Note_on_c, 0, 66, 43
1, 1006236, Note_on_c, 0, 34, 33
1, 1006390, Control_c, 0, 64, 104
1, 1006408, Control_c, 0, 64, 70
1, 1006428, Control_c, 0, 64, 35
1, 1006444, Control_c, 0, 64, 20
1, 1006518, Control_c, 0, 64, 29
1, 1006538, Control_c, 0, 64, 52
1, 1006555, Control_c, 0, 64, 75
1, 1006575, Control_c, 0, 64, 99
1, 1006594, Control_c, 0, 64, 127
1, 1006676, Note_on_c, 0, 46, 0
1, 1006821, Note_on_c, 0, 46, 46
1, 1007205, Note_on_c, 0, 46, 0
1, 1007438, Note_on_c, 0, 46, 42
1, 1007600, Poly_aftertouch_c, 0, 73, 24
1, 1007639, Note_on_c, 0, 66, 0
1, 1007639, Poly_aftertouch_c, 0, 61, 22
1, 1007717, Note_on_c, 0, 73, 0
1, 1007717, Poly_aftertouch_c, 0, 73, 0
1, 1007719, Note_on_c, 0, 61, 0
1, 1007719, Poly_aftertouch_c, 0, 61, 0
1, 1007792, Note_on_c, 0, 46, 0
1, 1008003, Note_on_c, 0, 73, 59
1, 1008035, Note_on_c, 0, 61, 40
1, 1008035, Note_on_c, 0, 66, 43
1, 1008058, Note_on_c, 0, 46, 34
1, 1008222, Note_on_c, 0, 34, 0
1, 1008230, Note_on_c, 0, 66, 0
1, 1008230, Note_on_c, 0, 66, 8
1, 1008278, Note_on_c, 0, 61, 0
1, 1008356, Note_on_c, 0, 66, 0
1, 1008359, Note_on_c, 0, 73, 0
1, 1008395, Note_on_c, 0, 46, 0
1, 1008670, Note_on_c, 0, 75, 60
1, 1008684, Note_on_c, 0, 63, 45
1, 1008689, Note_on_c, 0, 73, 50
1, 1008700, Note_on_c, 0, 46, 42
1, 1008705, Note_on_c, 0, 66, 37
1, 1008719, Note_on_c, 0, 34, 28
1, 1008798, Control_c, 0, 64, 110
1, 1008814, Control_c, 0, 64, 92
1, 1008851, Control_c, 0, 64, 99
1, 1008871, Control_c, 0, 64, 108
1, 1008889, Control_c, 0, 64, 122
1, 1008908, Control_c, 0, 64, 127
1, 1008986, Poly_aftertouch_c, 0, 66, 24
1, 1009032, Note_on_c, 0, 46, 0
1, 1009037, Control_c, 0, 67, 8
1, 1009039, Note_on_c, 0, 66, 0
1, 1009039, Poly_aftertouch_c, 0, 66, 0
1, 1009040, Poly_aftertouch_c, 0, 66, 0
1, 1009105, Note_on_c, 0, 63, 0
1, 1009111, Note_on_c, 0, 73, 0
1, 1009115, Note_on_c, 0, 75, 0
1, 1009130, Control_c, 0, 67, 12
1, 1009231, Control_c, 0, 67, 16
1, 1009284, Note_on_c, 0, 75, 65
1, 1009294, Note_on_c, 0, 73, 56
1, 1009307, Control_c, 0, 67, 21
1, 1009315, Note_on_c, 0, 63, 45
1, 1009326, Note_on_c, 0, 66, 36
1, 1009327, Note_on_c, 0, 46, 44
1, 1009379, Control_c, 0, 67, 25
1, 1009388, Note_on_c, 0, 66, 0
1, 1009434, Control_c, 0, 67, 30
1, 1009486, Note_on_c, 0, 34, 0
1, 1009510, Control_c, 0, 67, 34
1, 1009519, Note_on_c, 0, 73, 0
1, 1009565, Control_c, 0, 67, 39
1, 1009566, Note_on_c, 0, 63, 0
1, 1009613, Note_on_c, 0, 75, 0
1, 1009621, Control_c, 0, 67, 44
1, 1009677, Control_c, 0, 67, 48
1, 1009751, Control_c, 0, 67, 52
1, 1009864, Note_on_c, 0, 46, 0
1, 1010133, Note_on_c, 0, 77, 67
1, 1010151, Note_on_c, 0, 65, 38
1, 1010156, Note_on_c, 0, 72, 45
1, 1010196, Note_on_c, 0, 45, 32
1, 1010209, Note_on_c, 0, 33, 21
1, 1010314, Control_c, 0, 64, 123
1, 1010334, Control_c, 0, 64, 96
1, 1010353, Control_c, 0, 64, 61
1, 1010371, Control_c, 0, 64, 12
1, 1010391, Control_c, 0, 64, 0
1, 1010465, Control_c, 0, 64, 31
1, 1010484, Control_c, 0, 64, 57
1, 1010499, Control_c, 0, 64, 83
1, 1010519, Control_c, 0, 64, 105
1, 1010522, Control_c, 0, 67, 48
1, 1010538, Control_c, 0, 64, 127
1, 1010574, Control_c, 0, 67, 44
1, 1010612, Control_c, 0, 67, 37
1, 1010624, Note_on_c, 0, 45, 0
1, 1010649, Control_c, 0, 67, 29
1, 1010669, Control_c, 0, 67, 25
1, 1010685, Control_c, 0, 67, 20
1, 1010704, Control_c, 0, 67, 16
1, 1010742, Control_c, 0, 67, 10
1, 1010783, Note_on_c, 0, 45, 44
1, 1011257, Note_on_c, 0, 45, 0
1, 1011314, Note_on_c, 0, 72, 0
1, 1011426, Note_on_c, 0, 45, 36
1, 1011785, Note_on_c, 0, 45, 0
1, 1011999, Note_on_c, 0, 65, 0
1, 1012014, Note_on_c, 0, 45, 31
1, 1012049, Note_on_c, 0, 72, 42
1, 1012182, Note_on_c, 0, 77, 0
1, 1012304, Note_on_c, 0, 45, 0
1, 1012608, Note_on_c, 0, 45, 28
1, 1012629, Note_on_c, 0, 77, 58
1, 1012650, Note_on_c, 0, 69, 32
1, 1012758, Note_on_c, 0, 72, 0
1, 1012959, Note_on_c, 0, 45, 0
1, 1012975, Note_on_c, 0, 69, 0
1, 1013189, Note_on_c, 0, 79, 64
1, 1013207, Note_on_c, 0, 45, 34
1, 1013211, Note_on_c, 0, 72, 44
1, 1013247, Note_on_c, 0, 77, 0
1, 1013357, Note_on_c, 0, 72, 0
1, 1013422, Note_on_c, 0, 45, 0
1, 1013494, Note_on_c, 0, 33, 0
1, 1013573, Note_on_c, 0, 79, 0
1, 1013786, Note_on_c, 0, 45, 37
1, 1013819, Note_on_c, 0, 33, 34
1, 1013894, Note_on_c, 0, 81, 74
1, 1013920, Note_on_c, 0, 77, 54
1, 1014190, Note_on_c, 0, 45, 0
1, 1014244, Note_on_c, 0, 77, 0
1, 1014288, Note_on_c, 0, 81, 0
1, 1014516, Note_on_c, 0, 45, 47
1, 1014876, Note_on_c, 0, 45, 0
1, 1015084, Note_on_c, 0, 45, 51
1, 1015507, Note_on_c, 0, 45, 0
1, 1015680, Note_on_c, 0, 45, 45
1, 1015698, Note_on_c, 0, 69, 58
1, 1015715, Note_on_c, 0, 65, 42
1, 1016043, Note_on_c, 0, 69, 0
1, 1016133, Note_on_c, 0, 45, 0
1, 1016198, Note_on_c, 0, 65, 0
1, 1016241, Note_on_c, 0, 72, 73
1, 1016243, Note_on_c, 0, 69, 67
1, 1016268, Note_on_c, 0, 45, 54
1, 1016501, Note_on_c, 0, 72, 0
1, 1016567, Note_on_c, 0, 69, 0
1, 1016643, Note_on_c, 0, 45, 0
1, 1016767, Note_on_c, 0, 77, 84
1, 1016769, Note_on_c, 0, 72, 71
1, 1016783, Note_on_c, 0, 45, 61
1, 1016831, Note_on_c, 0, 72, 0
1, 1016869, Note_on_c, 0, 74, 12
1, 1016892, Note_on_c, 0, 74, 0
1, 1016977, Note_on_c, 0, 77, 0
1, 1017004, Note_on_c, 0, 33, 0
1, 1017109, Note_on_c, 0, 45, 0
1, 1017199, Note_on_c, 0, 72, 45
1, 1017237, Note_on_c, 0, 77, 58
1, 1017312, Note_on_c, 0, 32, 66
1, 1017322, Note_on_c, 0, 44, 77
1, 1017490, Note_on_c, 0, 84, 85
1, 1017588, Control_c, 0, 64, 98
1, 1017615, Control_c, 0, 64, 59
1, 1017633, Control_c, 0, 64, 0
1, 1017708, Control_c, 0, 64, 30
1, 1017726, Control_c, 0, 64, 53
1, 1017745, Control_c, 0, 64, 81
1, 1017765, Control_c, 0, 64, 110
1, 1017783, Control_c, 0, 64, 127
1, 1017955, Note_on_c, 0, 44, 0
1, 1018087, Note_on_c, 0, 44, 72
1, 1018148, Note_on_c, 0, 84, 0
1, 1018218, Note_on_c, 0, 72, 0
1, 1018383, Note_on_c, 0, 77, 0
1, 1018522, Note_on_c, 0, 44, 0
1, 1018708, Note_on_c, 0, 44, 75
1, 1019170, Note_on_c, 0, 44, 0
1, 1019299, Note_on_c, 0, 68, 80
1, 1019304, Note_on_c, 0, 65, 73
1, 1019307, Note_on_c, 0, 44, 64
1, 1019668, Note_on_c, 0, 68, 0
1, 1019669, Note_on_c, 0, 44, 0
1, 1019810, Note_on_c, 0, 65, 0
1, 1019878, Note_on_c, 0, 68, 81
1, 1019884, Note_on_c, 0, 72, 82
1, 1019896, Note_on_c, 0, 44, 64
1, 1020142, Note_on_c, 0, 72, 0
1, 1020217, Note_on_c, 0, 68, 0
1, 1020309, Note_on_c, 0, 72, 80
1, 1020314, Note_on_c, 0, 77, 86
1, 1020318, Note_on_c, 0, 44, 0
1, 1020404, Note_on_c, 0, 72, 0
1, 1020425, Poly_aftertouch_c, 0, 74, 0
1, 1020452, Note_on_c, 0, 77, 0
1, 1020521, Note_on_c, 0, 44, 81
1, 1020692, Note_on_c, 0, 80, 94
1, 1020695, Note_on_c, 0, 77, 92
1, 1020698, Poly_aftertouch_c, 0, 38, 0
1, 1020803, Note_on_c, 0, 32, 0
1, 1020824, Note_on_c, 0, 77, 0
1, 1020875, Note_on_c, 0, 44, 0
1, 1020931, Note_on_c, 0, 80, 0
1, 1021196, Note_on_c, 0, 42, 84
1, 1021200, Note_on_c, 0, 30, 77
1, 1021241, Note_on_c, 0, 87, 93
1, 1021243, Note_on_c, 0, 75, 93
1, 1021244, Note_on_c, 0, 80, 89
1, 1021249, Note_on_c, 0, 84, 87
1, 1021358, Control_c, 0, 64, 109
1, 1021377, Control_c, 0, 64, 66
1, 1021394, Control_c, 0, 64, 0
1, 1021395, Control_c, 0, 67, 0
1, 1021488, Control_c, 0, 64, 24
1, 1021507, Control_c, 0, 64, 53
1, 1021527, Control_c, 0, 64, 84
1, 1021542, Control_c, 0, 64, 112
1, 1021561, Control_c, 0, 64, 127
1, 1021731, Note_on_c, 0, 42, 0
1, 1021862, Note_on_c, 0, 42, 89
1, 1022257, Note_on_c, 0, 87, 0
1, 1022325, Note_on_c, 0, 84, 0
1, 1022355, Note_on_c, 0, 75, 0
1, 1022365, Note_on_c, 0, 42, 0
1, 1022466, Note_on_c, 0, 80, 0
1, 1022487, Note_on_c, 0, 42, 91
1, 1022954, Note_on_c, 0, 30, 0
1, 1022984, Note_on_c, 0, 42, 0
1, 1023138, Note_on_c, 0, 42, 82
1, 1023146, Note_on_c, 0, 80, 86
1, 1023148, Note_on_c, 0, 75, 81
1, 1023148, Note_on_c, 0, 68, 86
1, 1023150, Note_on_c, 0, 72, 81
1, 1023153, Note_on_c, 0, 30, 73
1, 1023308, Poly_aftertouch_c, 0, 33, 0
1, 1023352, Poly_aftertouch_c, 0, 35, 0
1, 1023547, Note_on_c, 0, 75, 0
1, 1023549, Note_on_c, 0, 68, 0
1, 1023550, Note_on_c, 0, 80, 0
1, 1023560, Note_on_c, 0, 72, 0
1, 1023645, Note_on_c, 0, 30, 0
1, 1023654, Note_on_c, 0, 42, 0
1, 1023801, Note_on_c, 0, 42, 89
1, 1023803, Note_on_c, 0, 80, 92
1, 1023803, Note_on_c, 0, 68, 96
1, 1023804, Note_on_c, 0, 30, 85
1, 1023806, Note_on_c, 0, 72, 89
1, 1023807, Note_on_c, 0, 75, 88
1, 1023900, Poly_aftertouch_c, 0, 36, 0
1, 1023948, Note_on_c, 0, 68, 0
1, 1023949, Note_on_c, 0, 75, 0
1, 1023958, Note_on_c, 0, 72, 0
1, 1023998, Note_on_c, 0, 80, 0
1, 1024141, Note_on_c, 0, 30, 0
1, 1024188, Note_on_c, 0, 42, 0
1, 1024267, Note_on_c, 0, 41, 99
1, 1024269, Note_on_c, 0, 85, 89
1, 1024271, Note_on_c, 0, 29, 89
1, 1024272, Note_on_c, 0, 73, 97
1, 1024281, Note_on_c, 0, 80, 88
1, 1024283, Note_on_c, 0, 36, 42
1, 1024335, Note_on_c, 0, 36, 0
1, 1024336, Note_on_c, 0, 84, 21
1, 1024361, Poly_aftertouch_c, 0, 33, 0
1, 1024392, Note_on_c, 0, 84, 0
1, 1024405, Note_on_c, 0, 80, 0
1, 1024488, Note_on_c, 0, 29, 0
1, 1024533, Note_on_c, 0, 73, 0
1, 1024535, Note_on_c, 0, 41, 0
1, 1024536, Note_on_c, 0, 85, 0
1, 1024705, Note_on_c, 0, 75, 102
1, 1024707, Note_on_c, 0, 87, 97
1, 1024708, Note_on_c, 0, 80, 97
1, 1024709, Note_on_c, 0, 39, 101
1, 1024711, Note_on_c, 0, 27, 99
1, 1024711, Note_on_c, 0, 84, 86
1, 1024817, Note_on_c, 0, 75, 0
1, 1024829, Note_on_c, 0, 39, 0
1, 1024862, Note_on_c, 0, 27, 0
1, 1024883, Note_on_c, 0, 87, 0
1, 1024883, Note_on_c, 0, 80, 0
1, 1024891, Note_on_c, 0, 84, 0
1, 1025299, Note_on_c, 0, 37, 105
1, 1025301, Note_on_c, 0, 25, 103
1, 1025308, Note_on_c, 0, 78, 103
1, 1025309, Note_on_c, 0, 82, 97
1, 1025311, Note_on_c, 0, 90, 101
1, 1025314, Note_on_c, 0, 85, 92
1, 1025378, Control_c, 0, 64, 83
1, 1025398, Control_c, 0, 64, 0
1, 1025467, Note_on_c, 0, 25, 0
1, 1025489, Control_c, 0, 64, 20
1, 1025496, Note_on_c, 0, 37, 0
1, 1025507, Control_c, 0, 64, 73
1, 1025525, Control_c, 0, 64, 115
1, 1025545, Control_c, 0, 64, 127
1, 1025786, Note_on_c, 0, 49, 84
1, 1025792, Note_on_c, 0, 61, 93
1, 1025840, Note_on_c, 0, 48, 39
1, 1025887, Note_on_c, 0, 48, 0
1, 1025989, Note_on_c, 0, 49, 0
1, 1025996, Note_on_c, 0, 61, 0
1, 1026121, Note_on_c, 0, 61, 99
1, 1026123, Note_on_c, 0, 49, 85
1, 1026251, Note_on_c, 0, 49, 0
1, 1026314, Note_on_c, 0, 61, 0
1, 1026445, Note_on_c, 0, 61, 100
1, 1026455, Note_on_c, 0, 49, 86
1, 1026491, Note_on_c, 0, 82, 0
1, 1026496, Note_on_c, 0, 85, 0
1, 1026565, Note_on_c, 0, 90, 0
1, 1026616, Note_on_c, 0, 78, 0
1, 1026631, Note_on_c, 0, 49, 0
1, 1026661, Note_on_c, 0, 61, 0
1, 1026766, Note_on_c, 0, 61, 81
1, 1026773, Note_on_c, 0, 49, 73
1, 1026865, Note_on_c, 0, 77, 97
1, 1026865, Note_on_c, 0, 89, 89
1, 1026874, Note_on_c, 0, 80, 85
1, 1026877, Note_on_c, 0, 85, 80
1, 1026912, Note_on_c, 0, 49, 0
1, 1026924, Note_on_c, 0, 61, 0
1, 1027027, Note_on_c, 0, 61, 90
1, 1027040, Note_on_c, 0, 49, 79
1, 1027050, Note_on_c, 0, 89, 0
1, 1027084, Note_on_c, 0, 85, 0
1, 1027088, Note_on_c, 0, 77, 0
1, 1027135, Note_on_c, 0, 80, 0
1, 1027253, Note_on_c, 0, 49, 0
1, 1027257, Note_on_c, 0, 61, 0
1, 1027370, Note_on_c, 0, 61, 85
1, 1027381, Note_on_c, 0, 75, 93
1, 1027381, Note_on_c, 0, 87, 90
1, 1027385, Note_on_c, 0, 78, 86
1, 1027387, Note_on_c, 0, 49, 73
1, 1027393, Note_on_c, 0, 85, 80
1, 1027570, Note_on_c, 0, 61, 0
1, 1027579, Note_on_c, 0, 49, 0
1, 1027580, Note_on_c, 0, 78, 0
1, 1027655, Note_on_c, 0, 87, 0
1, 1027673, Note_on_c, 0, 85, 0
1, 1027683, Note_on_c, 0, 75, 0
1, 1027708, Note_on_c, 0, 61, 74
1, 1027715, Note_on_c, 0, 49, 65
1, 1027891, Note_on_c, 0, 89, 92
1, 1027902, Note_on_c, 0, 77, 93
1, 1027904, Note_on_c, 0, 85, 80
1, 1027905, Note_on_c, 0, 80, 82
1, 1027916, Note_on_c, 0, 49, 0
1, 1027918, Note_on_c, 0, 61, 0
1, 1028039, Note_on_c, 0, 61, 90
1, 1028049, Note_on_c, 0, 49, 76
1, 1028060, Note_on_c, 0, 80, 0
1, 1028074, Note_on_c, 0, 89, 0
1, 1028138, Note_on_c, 0, 77, 0
1, 1028234, Note_on_c, 0, 85, 0
1, 1028259, Note_on_c, 0, 61, 0
1, 1028267, Note_on_c, 0, 49, 0
1, 1028462, Note_on_c, 0, 61, 75
1, 1028466, Note_on_c, 0, 49, 59
1, 1028471, Note_on_c, 0, 54, 68
1, 1028582, Note_on_c, 0, 73, 85
1, 1028583, Note_on_c, 0, 85, 85
1, 1028587, Note_on_c, 0, 82, 71
1, 1028685, Control_c, 0, 64, 95
1, 1028703, Control_c, 0, 64, 57
1, 1028722, Control_c, 0, 64, 31
1, 1028779, Control_c, 0, 64, 42
1, 1028797, Control_c, 0, 64, 62
1, 1028813, Note_on_c, 0, 49, 0
1, 1028814, Control_c, 0, 64, 86
1, 1028826, Note_on_c, 0, 61, 0
1, 1028840, Control_c, 0, 64, 118
1, 1028859, Control_c, 0, 64, 127
1, 1028965, Note_on_c, 0, 61, 78
1, 1028981, Note_on_c, 0, 49, 61
1, 1029135, Note_on_c, 0, 61, 0
1, 1029170, Note_on_c, 0, 49, 0
1, 1029263, Note_on_c, 0, 61, 72
1, 1029291, Note_on_c, 0, 49, 67
1, 1029433, Note_on_c, 0, 61, 0
1, 1029454, Note_on_c, 0, 49, 0
1, 1029571, Note_on_c, 0, 61, 78
1, 1029592, Note_on_c, 0, 49, 66
1, 1029720, Note_on_c, 0, 61, 0
1, 1029758, Note_on_c, 0, 49, 0
1, 1029862, Note_on_c, 0, 49, 57
1, 1029863, Note_on_c, 0, 61, 72
1, 1029943, Note_on_c, 0, 54, 0
1, 1029961, Note_on_c, 0, 80, 82
1, 1029975, Note_on_c, 0, 53, 69
1, 1030012, Note_on_c, 0, 61, 0
1, 1030038, Note_on_c, 0, 49, 0
1, 1030109, Note_on_c, 0, 61, 77
1, 1030146, Note_on_c, 0, 49, 59
1, 1030295, Note_on_c, 0, 49, 0
1, 1030302, Note_on_c, 0, 61, 0
1, 1030373, Poly_aftertouch_c, 0, 82, 22
1, 1030417, Note_on_c, 0, 82, 0
1, 1030417, Poly_aftertouch_c, 0, 82, 0
1, 1030427, Note_on_c, 0, 61, 83
1, 1030429, Note_on_c, 0, 51, 73
1, 1030429, Note_on_c, 0, 78, 87
1, 1030432, Note_on_c, 0, 49, 73
1, 1030475, Note_on_c, 0, 53, 0
1, 1030553, Note_on_c, 0, 80, 0
1, 1030560, Note_on_c, 0, 85, 0
1, 1030568, Note_on_c, 0, 73, 0
1, 1030597, Note_on_c, 0, 61, 0
1, 1030734, Note_on_c, 0, 61, 92
1, 1030814, Note_on_c, 0, 78, 0
1, 1030829, Note_on_c, 0, 73, 101
1, 1030833, Note_on_c, 0, 85, 91
1, 1030834, Note_on_c, 0, 80, 86
1, 1030860, Note_on_c, 0, 78, 28
1, 1030898, Note_on_c, 0, 61, 0
1, 1030901, Note_on_c, 0, 53, 72
1, 1030903, Note_on_c, 0, 78, 0
1, 1030960, Note_on_c, 0, 73, 0
1, 1031008, Note_on_c, 0, 61, 95
1, 1031028, Note_on_c, 0, 85, 0
1, 1031031, Note_on_c, 0, 80, 0
1, 1031067, Note_on_c, 0, 61, 0
1, 1031081, Poly_aftertouch_c, 0, 55, 0
1, 1031109, Note_on_c, 0, 53, 0
1, 1031113, Note_on_c, 0, 51, 0
1, 1031120, Note_on_c, 0, 49, 0
1, 1031465, Note_on_c, 0, 37, 87
1, 1031467, Note_on_c, 0, 49, 94
1, 1031516, Poly_aftertouch_c, 0, 40, 0
1, 1031542, Note_on_c, 0, 92, 95
1, 1031543, Note_on_c, 0, 80, 101
1, 1031546, Note_on_c, 0, 83, 89
1, 1031549, Note_on_c, 0, 89, 84
1, 1031566, Control_c, 0, 64, 104
1, 1031584, Control_c, 0, 64, 48
1, 1031601, Control_c, 0, 64, 0
1, 1031649, Control_c, 0, 64, 10
1, 1031668, Poly_aftertouch_c, 0, 86, 0
1, 1031668, Control_c, 0, 64, 61
1, 1031677, Poly_aftertouch_c, 0, 81, 0
1, 1031685, Control_c, 0, 64, 107
1, 1031687, Note_on_c, 0, 37, 0
1, 1031705, Control_c, 0, 64, 127
1, 1031721, Note_on_c, 0, 49, 0
1, 1031782, Poly_aftertouch_c, 0, 86, 0
1, 1031894, Note_on_c, 0, 49, 69
1, 1031896, Note_on_c, 0, 61, 80
1, 1032025, Note_on_c, 0, 92, 0
1, 1032068, Note_on_c, 0, 49, 0
1, 1032076, Note_on_c, 0, 61, 0
1, 1032168, Note_on_c, 0, 89, 0
1, 1032177, Note_on_c, 0, 61, 75
1, 1032187, Note_on_c, 0, 49, 73
1, 1032251, Poly_aftertouch_c, 0, 86, 0
1, 1032358, Note_on_c, 0, 61, 0
1, 1032365, Note_on_c, 0, 49, 0
1, 1032463, Note_on_c, 0, 61, 78
1, 1032465, Note_on_c, 0, 49, 72
1, 1032495, Poly_aftertouch_c, 0, 83, 24
1, 1032532, Note_on_c, 0, 83, 0
1, 1032532, Poly_aftertouch_c, 0, 83, 0
1, 1032652, Note_on_c, 0, 49, 0
1, 1032663, Note_on_c, 0, 61, 0
1, 1032769, Note_on_c, 0, 80, 0
1, 1032771, Note_on_c, 0, 49, 68
1, 1032775, Note_on_c, 0, 61, 77
1, 1032898, Note_on_c, 0, 90, 83
1, 1032900, Note_on_c, 0, 78, 91
1, 1032911, Note_on_c, 0, 85, 71
1, 1032915, Note_on_c, 0, 82, 71
1, 1032931, Note_on_c, 0, 49, 0
1, 1032945, Note_on_c, 0, 61, 0
1, 1032954, Note_on_c, 0, 82, 0
1, 1033041, Note_on_c, 0, 61, 74
1, 1033047, Note_on_c, 0, 90, 0
1, 1033051, Note_on_c, 0, 49, 68
1, 1033054, Note_on_c, 0, 85, 0
1, 1033170, Note_on_c, 0, 78, 0
1, 1033260, Note_on_c, 0, 49, 0
1, 1033276, Note_on_c, 0, 61, 0
1, 1033374, Note_on_c, 0, 78, 75
1, 1033378, Note_on_c, 0, 61, 80
1, 1033381, Note_on_c, 0, 75, 93
1, 1033383, Note_on_c, 0, 87, 82
1, 1033388, Note_on_c, 0, 49, 70
1, 1033389, Note_on_c, 0, 85, 80
1, 1033479, Note_on_c, 0, 78, 0
1, 1033555, Note_on_c, 0, 49, 0
1, 1033585, Note_on_c, 0, 61, 0
1, 1033600, Note_on_c, 0, 75, 0
1, 1033643, Note_on_c, 0, 85, 0
1, 1033675, Note_on_c, 0, 87, 0
1, 1033712, Note_on_c, 0, 61, 86
1, 1033715, Note_on_c, 0, 49, 79
1, 1033850, Note_on_c, 0, 89, 90
1, 1033853, Note_on_c, 0, 77, 97
1, 1033858, Note_on_c, 0, 80, 87
1, 1033860, Note_on_c, 0, 85, 80
1, 1033900, Note_on_c, 0, 61, 0
1, 1033914, Note_on_c, 0, 49, 0
1, 1033989, Note_on_c, 0, 89, 0
1, 1034006, Note_on_c, 0, 49, 85
1, 1034007, Note_on_c, 0, 61, 95
1, 1034030, Note_on_c, 0, 77, 0
1, 1034065, Note_on_c, 0, 85, 0
1, 1034083, Note_on_c, 0, 80, 0
1, 1034188, Note_on_c, 0, 61, 0
1, 1034360, Note_on_c, 0, 49, 0
1, 1034360, Note_on_c, 0, 49, 33
1, 1034397, Note_on_c, 0, 59, 92
1, 1034401, Note_on_c, 0, 47, 84
1, 1034461, Note_on_c, 0, 73, 88
1, 1034469, Note_on_c, 0, 85, 83
1, 1034474, Note_on_c, 0, 80, 76
1, 1034482, Note_on_c, 0, 77, 72
1, 1034551, Control_c, 0, 64, 79
1, 1034567, Control_c, 0, 64, 28
1, 1034584, Control_c, 0, 64, 0
1, 1034622, Note_on_c, 0, 49, 0
1, 1034640, Control_c, 0, 64, 26
1, 1034660, Control_c, 0, 64, 53
1, 1034677, Control_c, 0, 64, 84
1, 1034697, Control_c, 0, 64, 118
1, 1034716, Control_c, 0, 64, 127
1, 1034727, Note_on_c, 0, 49, 81
1, 1034896, Note_on_c, 0, 49, 0
1, 1035027, Note_on_c, 0, 49, 79
1, 1035221, Note_on_c, 0, 49, 0
1, 1035333, Note_on_c, 0, 49, 79
1, 1035490, Note_on_c, 0, 49, 0
1, 1035625, Note_on_c, 0, 49, 76
1, 1035633, Note_on_c, 0, 47, 0
1, 1035674, Note_on_c, 0, 59, 0
1, 1035736, Note_on_c, 0, 49, 0
1, 1035757, Note_on_c, 0, 58, 94
1, 1035763, Note_on_c, 0, 46, 87
1, 1035930, Note_on_c, 0, 49, 75
1, 1036037, Note_on_c, 0, 58, 0
1, 1036082, Note_on_c, 0, 46, 0
1, 1036161, Note_on_c, 0, 49, 0
1, 1036255, Note_on_c, 0, 49, 75
1, 1036255, Note_on_c, 0, 54, 86
1, 1036260, Note_on_c, 0, 42, 84
1, 1036327, Control_c, 0, 64, 108
1, 1036347, Control_c, 0, 64, 58
1, 1036365, Control_c, 0, 64, 0
1, 1036402, Control_c, 0, 64, 32
1, 1036420, Control_c, 0, 64, 60
1, 1036440, Control_c, 0, 64, 93
1, 1036444, Note_on_c, 0, 49, 0
1, 1036452, Note_on_c, 0, 73, 0
1, 1036457, Note_on_c, 0, 80, 0
1, 1036457, Control_c, 0, 64, 127
1, 1036468, Note_on_c, 0, 85, 0
1, 1036472, Note_on_c, 0, 77, 0
1, 1036530, Note_on_c, 0, 42, 0
1, 1036565, Note_on_c, 0, 49, 75
1, 1036588, Note_on_c, 0, 54, 0
1, 1036588, Note_on_c, 0, 47, 39
1, 1036636, Note_on_c, 0, 47, 0
1, 1036657, Note_on_c, 0, 44, 80
1, 1036664, Note_on_c, 0, 56, 95
1, 1036669, Note_on_c, 0, 73, 97
1, 1036670, Note_on_c, 0, 85, 93
1, 1036678, Note_on_c, 0, 80, 82
1, 1036679, Note_on_c, 0, 77, 88
1, 1036695, Note_on_c, 0, 49, 0
1, 1036696, Control_c, 0, 64, 119
1, 1036718, Control_c, 0, 64, 68
1, 1036736, Control_c, 0, 64, 0
1, 1036792, Control_c, 0, 64, 49
1, 1036810, Control_c, 0, 64, 89
1, 1036825, Note_on_c, 0, 49, 79
1, 1036826, Control_c, 0, 64, 127
1, 1036837, Note_on_c, 0, 73, 0
1, 1036882, Note_on_c, 0, 77, 0
1, 1036924, Note_on_c, 0, 80, 0
1, 1036934, Note_on_c, 0, 85, 0
1, 1036990, Note_on_c, 0, 44, 0
1, 1037009, Note_on_c, 0, 56, 0
1, 1037207, Note_on_c, 0, 49, 0
1, 1037207, Note_on_c, 0, 49, 42
1, 1037231, Note_on_c, 0, 41, 70
1, 1037236, Note_on_c, 0, 53, 81
1, 1037324, Poly_aftertouch_c, 0, 45, 0
1, 1037348, Note_on_c, 0, 83, 101
1, 1037350, Note_on_c, 0, 95, 93
1, 1037351, Note_on_c, 0, 85, 89
1, 1037358, Note_on_c, 0, 92, 84
1, 1037393, Control_c, 0, 64, 104
1, 1037411, Control_c, 0, 64, 56
1, 1037429, Control_c, 0, 64, 0
1, 1037485, Control_c, 0, 64, 27
1, 1037505, Control_c, 0, 64, 55
1, 1037523, Control_c, 0, 64, 85
1, 1037541, Control_c, 0, 64, 122
1, 1037561, Control_c, 0, 64, 127
1, 1037576, Note_on_c, 0, 49, 0
1, 1037578, Note_on_c, 0, 41, 0
1, 1037610, Note_on_c, 0, 53, 0
1, 1037686, Note_on_c, 0, 53, 86
1, 1037691, Note_on_c, 0, 49, 88
1, 1037697, Note_on_c, 0, 41, 82
1, 1037821, Note_on_c, 0, 53, 0
1, 1037840, Note_on_c, 0, 95, 0
1, 1037841, Note_on_c, 0, 49, 0
1, 1037905, Note_on_c, 0, 49, 75
1, 1037908, Note_on_c, 0, 41, 0
1, 1037908, Note_on_c, 0, 41, 54
1, 1037911, Note_on_c, 0, 83, 0
1, 1037914, Note_on_c, 0, 53, 82
1, 1037968, Note_on_c, 0, 41, 0
1, 1037985, Note_on_c, 0, 92, 0
1, 1037999, Note_on_c, 0, 53, 0
1, 1038002, Note_on_c, 0, 85, 0
1, 1038015, Note_on_c, 0, 49, 0
1, 1038091, Note_on_c, 0, 40, 83
1, 1038118, Control_c, 0, 64, 118
1, 1038133, Control_c, 0, 64, 68
1, 1038148, Note_on_c, 0, 50, 61
1, 1038150, Control_c, 0, 64, 0
1, 1038153, Poly_aftertouch_c, 0, 47, 0
1, 1038207, Note_on_c, 0, 52, 95
1, 1038253, Poly_aftertouch_c, 0, 49, 0
1, 1038256, Note_on_c, 0, 40, 0
1, 1038256, Control_c, 0, 64, 28
1, 1038275, Control_c, 0, 64, 72
1, 1038283, Note_on_c, 0, 82, 102
1, 1038284, Note_on_c, 0, 94, 95
1, 1038287, Note_on_c, 0, 92, 91
1, 1038291, Note_on_c, 0, 86, 90
1, 1038295, Control_c, 0, 64, 125
1, 1038302, Note_on_c, 0, 50, 0
1, 1038327, Note_on_c, 0, 52, 0
1, 1038356, Note_on_c, 0, 94, 0
1, 1038371, Note_on_c, 0, 82, 0
1, 1038399, Note_on_c, 0, 92, 0
1, 1038421, Note_on_c, 0, 86, 0
1, 1038437, Poly_aftertouch_c, 0, 89, 0
1, 1038549, Note_on_c, 0, 64, 81
1, 1038562, Note_on_c, 0, 52, 74
1, 1038714, Note_on_c, 0, 52, 0
1, 1038715, Note_on_c, 0, 64, 0
1, 1038834, Note_on_c, 0, 64, 84
1, 1038847, Note_on_c, 0, 52, 77
1, 1039037, Note_on_c, 0, 52, 0
1, 1039054, Note_on_c, 0, 64, 0
1, 1039156, Note_on_c, 0, 64, 71
1, 1039165, Note_on_c, 0, 74, 91
1, 1039165, Note_on_c, 0, 86, 86
1, 1039169, Note_on_c, 0, 52, 67
1, 1039170, Note_on_c, 0, 82, 74
1, 1039182, Note_on_c, 0, 80, 67
1, 1039313, Note_on_c, 0, 64, 0
1, 1039338, Note_on_c, 0, 52, 0
1, 1039460, Note_on_c, 0, 64, 77
1, 1039472, Note_on_c, 0, 52, 69
1, 1039615, Note_on_c, 0, 52, 0
1, 1039618, Note_on_c, 0, 64, 0
1, 1039691, Note_on_c, 0, 86, 0
1, 1039750, Note_on_c, 0, 64, 83
1, 1039759, Note_on_c, 0, 52, 74
1, 1039773, Note_on_c, 0, 80, 0
1, 1039776, Note_on_c, 0, 74, 0
1, 1039861, Note_on_c, 0, 52, 0
1, 1039881, Note_on_c, 0, 64, 0
1, 1040121, Note_on_c, 0, 63, 71
1, 1040121, Note_on_c, 0, 51, 58
1, 1040137, Note_on_c, 0, 56, 69
1, 1040166, Note_on_c, 0, 75, 84
1, 1040169, Note_on_c, 0, 87, 84
1, 1040173, Note_on_c, 0, 55, 22
1, 1040179, Note_on_c, 0, 80, 74
1, 1040236, Control_c, 0, 64, 99
1, 1040256, Control_c, 0, 64, 59
1, 1040273, Note_on_c, 0, 55, 0
1, 1040273, Control_c, 0, 64, 16
1, 1040289, Note_on_c, 0, 82, 0
1, 1040291, Control_c, 0, 64, 10
1, 1040339, Note_on_c, 0, 63, 0
1, 1040349, Control_c, 0, 64, 37
1, 1040354, Note_on_c, 0, 51, 0
1, 1040367, Control_c, 0, 64, 63
1, 1040385, Control_c, 0, 64, 86
1, 1040403, Control_c, 0, 64, 112
1, 1040423, Control_c, 0, 64, 127
1, 1040462, Note_on_c, 0, 51, 62
1, 1040462, Note_on_c, 0, 63, 71
1, 1040620, Note_on_c, 0, 63, 0
1, 1040642, Note_on_c, 0, 51, 0
1, 1040733, Note_on_c, 0, 51, 64
1, 1040743, Note_on_c, 0, 63, 78
1, 1040891, Note_on_c, 0, 63, 0
1, 1041017, Note_on_c, 0, 53, 71
1, 1041022, Note_on_c, 0, 63, 81
1, 1041023, Control_c, 0, 64, 119
1, 1041032, Note_on_c, 0, 77, 80
1, 1041043, Control_c, 0, 64, 78
1, 1041061, Control_c, 0, 64, 32
1, 1041081, Control_c, 0, 64, 0
1, 1041118, Control_c, 0, 64, 17
1, 1041130, Note_on_c, 0, 80, 0
1, 1041133, Control_c, 0, 64, 41
1, 1041154, Control_c, 0, 64, 63
1, 1041168, Note_on_c, 0, 87, 0
1, 1041171, Control_c, 0, 64, 90
1, 1041181, Note_on_c, 0, 63, 0
1, 1041190, Control_c, 0, 64, 123
1, 1041210, Control_c, 0, 64, 127
1, 1041242, Note_on_c, 0, 51, 0
1, 1041280, Note_on_c, 0, 75, 0
1, 1041319, Note_on_c, 0, 51, 62
1, 1041321, Note_on_c, 0, 63, 76
1, 1041393, Note_on_c, 0, 77, 0
1, 1041467, Note_on_c, 0, 63, 0
1, 1041471, Note_on_c, 0, 51, 0
1, 1041594, Note_on_c, 0, 63, 85
1, 1041610, Note_on_c, 0, 51, 67
1, 1041759, Note_on_c, 0, 63, 0
1, 1041783, Note_on_c, 0, 51, 0
1, 1041894, Note_on_c, 0, 63, 87
1, 1041895, Note_on_c, 0, 55, 75
1, 1041907, Note_on_c, 0, 51, 75
1, 1041913, Note_on_c, 0, 75, 101
1, 1041914, Note_on_c, 0, 87, 92
1, 1041921, Note_on_c, 0, 82, 84
1, 1041926, Note_on_c, 0, 79, 83
1, 1041952, Note_on_c, 0, 56, 0
1, 1041958, Control_c, 0, 64, 104
1, 1041978, Control_c, 0, 64, 65
1, 1041985, Note_on_c, 0, 53, 0
1, 1041997, Control_c, 0, 64, 23
1, 1042016, Control_c, 0, 64, 15
1, 1042053, Control_c, 0, 64, 24
1, 1042070, Control_c, 0, 64, 47
1, 1042089, Control_c, 0, 64, 71
1, 1042108, Control_c, 0, 64, 97
1, 1042109, Note_on_c, 0, 63, 0
1, 1042116, Note_on_c, 0, 55, 0
1, 1042118, Note_on_c, 0, 51, 0
1, 1042126, Control_c, 0, 64, 127
1, 1042196, Note_on_c, 0, 63, 84
1, 1042209, Note_on_c, 0, 55, 67
1, 1042219, Note_on_c, 0, 51, 69
1, 1042268, Note_on_c, 0, 75, 0
1, 1042280, Note_on_c, 0, 87, 0
1, 1042330, Note_on_c, 0, 79, 0
1, 1042339, Note_on_c, 0, 51, 0
1, 1042347, Note_on_c, 0, 63, 0
1, 1042364, Note_on_c, 0, 55, 0
1, 1042378, Note_on_c, 0, 82, 0
1, 1042457, Note_on_c, 0, 63, 94
1, 1042466, Note_on_c, 0, 55, 63
1, 1042473, Note_on_c, 0, 51, 72
1, 1042510, Note_on_c, 0, 63, 0
1, 1042520, Note_on_c, 0, 55, 0
1, 1042545, Note_on_c, 0, 51, 0
1, 1042776, Note_on_c, 0, 51, 86
1, 1042776, Note_on_c, 0, 48, 78
1, 1042777, Note_on_c, 0, 39, 83
1, 1042784, Note_on_c, 0, 81, 103
1, 1042787, Note_on_c, 0, 93, 97
1, 1042793, Note_on_c, 0, 84, 92
1, 1042795, Note_on_c, 0, 90, 87
1, 1042849, Control_c, 0, 64, 78
1, 1042867, Control_c, 0, 64, 0
1, 1042951, Control_c, 0, 64, 28
1, 1042970, Control_c, 0, 64, 67
1, 1042982, Note_on_c, 0, 51, 0
1, 1042982, Note_on_c, 0, 39, 0
1, 1042988, Control_c, 0, 64, 105
1, 1043006, Control_c, 0, 64, 127
1, 1043071, Note_on_c, 0, 48, 0
1, 1043071, Note_on_c, 0, 48, 59
1, 1043086, Note_on_c, 0, 51, 84
1, 1043093, Note_on_c, 0, 39, 79
1, 1043137, Note_on_c, 0, 93, 0
1, 1043185, Note_on_c, 0, 39, 0
1, 1043192, Note_on_c, 0, 51, 0
1, 1043198, Note_on_c, 0, 81, 0
1, 1043235, Note_on_c, 0, 48, 0
1, 1043239, Note_on_c, 0, 90, 0
1, 1043298, Note_on_c, 0, 39, 70
1, 1043301, Note_on_c, 0, 84, 0
1, 1043301, Poly_aftertouch_c, 0, 83, 0
1, 1043302, Note_on_c, 0, 51, 81
1, 1043321, Note_on_c, 0, 48, 53
1, 1043322, Note_on_c, 0, 42, 27
1, 1043339, Note_on_c, 0, 39, 0
1, 1043375, Note_on_c, 0, 42, 0
1, 1043378, Note_on_c, 0, 51, 0
1, 1043438, Note_on_c, 0, 38, 80
1, 1043451, Control_c, 0, 64, 108
1, 1043469, Control_c, 0, 64, 65
1, 1043489, Control_c, 0, 64, 0
1, 1043538, Note_on_c, 0, 50, 94
1, 1043562, Control_c, 0, 64, 35
1, 1043580, Control_c, 0, 64, 67
1, 1043592, Note_on_c, 0, 38, 0
1, 1043598, Control_c, 0, 64, 102
1, 1043606, Note_on_c, 0, 80, 105
1, 1043608, Note_on_c, 0, 92, 93
1, 1043613, Note_on_c, 0, 90, 91
1, 1043617, Note_on_c, 0, 84, 91
1, 1043617, Control_c, 0, 64, 127
1, 1043621, Note_on_c, 0, 48, 0
1, 1043644, Note_on_c, 0, 50, 0
1, 1043657, Poly_aftertouch_c, 0, 45, 0
1, 1043682, Note_on_c, 0, 92, 0
1, 1043687, Note_on_c, 0, 80, 0
1, 1043704, Note_on_c, 0, 90, 0
1, 1043712, Note_on_c, 0, 84, 0
1, 1043873, Note_on_c, 0, 62, 80
1, 1043879, Note_on_c, 0, 50, 68
1, 1043997, Note_on_c, 0, 62, 0
1, 1044033, Note_on_c, 0, 50, 0
1, 1044161, Note_on_c, 0, 62, 78
1, 1044169, Note_on_c, 0, 50, 70
1, 1044324, Note_on_c, 0, 62, 0
1, 1044351, Note_on_c, 0, 50, 0
1, 1044469, Note_on_c, 0, 72, 91
1, 1044472, Note_on_c, 0, 62, 68
1, 1044473, Note_on_c, 0, 84, 88
1, 1044476, Note_on_c, 0, 80, 73
1, 1044483, Note_on_c, 0, 78, 69
1, 1044495, Note_on_c, 0, 50, 62
1, 1044627, Note_on_c, 0, 50, 0
1, 1044634, Note_on_c, 0, 62, 0
1, 1044769, Note_on_c, 0, 62, 83
1, 1044781, Note_on_c, 0, 50, 69
1, 1044900, Note_on_c, 0, 84, 0
1, 1044912, Note_on_c, 0, 50, 0
1, 1044918, Note_on_c, 0, 62, 0
1, 1044960, Note_on_c, 0, 72, 0
1, 1045049, Note_on_c, 0, 62, 81
1, 1045054, Note_on_c, 0, 50, 73
1, 1045055, Note_on_c, 0, 78, 0
1, 1045134, Note_on_c, 0, 50, 0
1, 1045138, Note_on_c, 0, 62, 0
1, 1045441, Note_on_c, 0, 61, 71
1, 1045448, Note_on_c, 0, 54, 64
1, 1045451, Note_on_c, 0, 49, 59
1, 1045468, Note_on_c, 0, 73, 88
1, 1045469, Note_on_c, 0, 85, 84
1, 1045476, Note_on_c, 0, 78, 75
1, 1045583, Control_c, 0, 64, 112
1, 1045600, Control_c, 0, 64, 70
1, 1045613, Note_on_c, 0, 80, 0
1, 1045617, Control_c, 0, 64, 25
1, 1045637, Control_c, 0, 64, 0
1, 1045673, Control_c, 0, 64, 10
1, 1045677, Note_on_c, 0, 61, 0
1, 1045691, Note_on_c, 0, 49, 0
1, 1045702, Control_c, 0, 64, 36
1, 1045720, Control_c, 0, 64, 62
1, 1045740, Control_c, 0, 64, 92
1, 1045758, Control_c, 0, 64, 127
1, 1045805, Note_on_c, 0, 49, 63
1, 1045807, Note_on_c, 0, 61, 73
1, 1045946, Note_on_c, 0, 61, 0
1, 1045962, Note_on_c, 0, 49, 0
1, 1046069, Note_on_c, 0, 49, 63
1, 1046078, Note_on_c, 0, 61, 74
1, 1046215, Note_on_c, 0, 61, 0
1, 1046246, Note_on_c, 0, 49, 0
1, 1046341, Note_on_c, 0, 75, 71
1, 1046341, Note_on_c, 0, 49, 52
1, 1046345, Note_on_c, 0, 51, 64
1, 1046351, Note_on_c, 0, 61, 79
1, 1046476, Note_on_c, 0, 73, 0
1, 1046490, Note_on_c, 0, 78, 0
1, 1046498, Note_on_c, 0, 85, 0
1, 1046502, Note_on_c, 0, 61, 0
1, 1046509, Note_on_c, 0, 75, 0
1, 1046651, Note_on_c, 0, 61, 74
1, 1046717, Note_on_c, 0, 54, 0
1, 1046763, Note_on_c, 0, 61, 0
1, 1046768, Note_on_c, 0, 85, 86
1, 1046770, Note_on_c, 0, 53, 68
1, 1046771, Note_on_c, 0, 73, 89
1, 1046778, Note_on_c, 0, 77, 80
1, 1046783, Note_on_c, 0, 80, 74
1, 1046833, Note_on_c, 0, 49, 0
1, 1046863, Note_on_c, 0, 61, 81
1, 1046882, Note_on_c, 0, 51, 0
1, 1046888, Note_on_c, 0, 61, 0
1, 1046893, Note_on_c, 0, 53, 0
1, 1046912, Note_on_c, 0, 73, 0
1, 1046918, Note_on_c, 0, 80, 0
1, 1046920, Note_on_c, 0, 77, 0
1, 1046976, Note_on_c, 0, 85, 0
1, 1047118, Control_c, 0, 64, 97
1, 1047127, Note_on_c, 0, 40, 31
1, 1047135, Note_on_c, 0, 48, 83
1, 1047138, Control_c, 0, 64, 46
1, 1047148, Note_on_c, 0, 36, 79
1, 1047152, Note_on_c, 0, 87, 87
1, 1047156, Note_on_c, 0, 75, 88
1, 1047156, Control_c, 0, 64, 0
1, 1047163, Note_on_c, 0, 80, 72
1, 1047167, Note_on_c, 0, 78, 75
1, 1047175, Control_c, 0, 64, 24
1, 1047182, Note_on_c, 0, 40, 0
1, 1047194, Control_c, 0, 64, 47
1, 1047202, Note_on_c, 0, 36, 0
1, 1047212, Control_c, 0, 64, 80
1, 1047227, Poly_aftertouch_c, 0, 43, 0
1, 1047231, Control_c, 0, 64, 127
1, 1047234, Note_on_c, 0, 48, 0
1, 1047238, Note_on_c, 0, 80, 0
1, 1047255, Note_on_c, 0, 78, 0
1, 1047320, Note_on_c, 0, 75, 0
1, 1047330, Note_on_c, 0, 87, 0
1, 1047453, Note_on_c, 0, 61, 81
1, 1047459, Note_on_c, 0, 49, 75
1, 1047518, Note_on_c, 0, 61, 0
1, 1047547, Note_on_c, 0, 49, 0
1, 1047558, Note_on_c, 0, 89, 90
1, 1047562, Note_on_c, 0, 77, 94
1, 1047569, Note_on_c, 0, 80, 82
1, 1047570, Note_on_c, 0, 85, 80
1, 1047670, Note_on_c, 0, 80, 0
1, 1047683, Note_on_c, 0, 77, 0
1, 1047691, Note_on_c, 0, 85, 0
1, 1047708, Note_on_c, 0, 47, 86
1, 1047715, Note_on_c, 0, 35, 84
1, 1047743, Note_on_c, 0, 47, 0
1, 1047764, Note_on_c, 0, 89, 0
1, 1047766, Note_on_c, 0, 35, 0
1, 1048065, Note_on_c, 0, 34, 79
1, 1048071, Note_on_c, 0, 46, 86
1, 1048147, Control_c, 0, 64, 88
1, 1048160, Note_on_c, 0, 78, 91
1, 1048163, Note_on_c, 0, 90, 88
1, 1048166, Control_c, 0, 64, 20
1, 1048167, Note_on_c, 0, 85, 83
1, 1048185, Control_c, 0, 64, 0
1, 1048258, Control_c, 0, 64, 49
1, 1048277, Control_c, 0, 64, 89
1, 1048278, Note_on_c, 0, 34, 0
1, 1048296, Control_c, 0, 64, 127
1, 1048305, Note_on_c, 0, 46, 0
1, 1048463, Note_on_c, 0, 61, 87
1, 1048469, Note_on_c, 0, 49, 73
1, 1048503, Note_on_c, 0, 78, 0
1, 1048510, Note_on_c, 0, 90, 0
1, 1048540, Note_on_c, 0, 61, 0
1, 1048555, Note_on_c, 0, 49, 0
1, 1048577, Note_on_c, 0, 85, 0
1, 1048754, Note_on_c, 0, 61, 86
1, 1048764, Note_on_c, 0, 49, 76
1, 1048879, Note_on_c, 0, 61, 0
1, 1048894, Note_on_c, 0, 49, 0
1, 1049037, Note_on_c, 0, 61, 90
1, 1049039, Note_on_c, 0, 49, 83
1, 1049166, Note_on_c, 0, 61, 0
1, 1049178, Note_on_c, 0, 49, 0
1, 1049320, Note_on_c, 0, 49, 91
1, 1049323, Note_on_c, 0, 61, 90
1, 1049380, Note_on_c, 0, 61, 0
1, 1049431, Note_on_c, 0, 85, 90
1, 1049432, Note_on_c, 0, 73, 92
1, 1049436, Note_on_c, 0, 78, 88
1, 1049443, Note_on_c, 0, 49, 0
1, 1049500, Note_on_c, 0, 73, 0
1, 1049537, Note_on_c, 0, 78, 0
1, 1049563, Note_on_c, 0, 85, 0
1, 1049590, Note_on_c, 0, 34, 90
1, 1049591, Note_on_c, 0, 46, 84
1, 1049849, Note_on_c, 0, 46, 0
1, 1049851, Control_c, 0, 64, 113
1, 1049870, Control_c, 0, 64, 60
1, 1049870, Note_on_c, 0, 77, 95
1, 1049870, Note_on_c, 0, 89, 90
1, 1049870, Note_on_c, 0, 47, 83
1, 1049871, Note_on_c, 0, 35, 83
1, 1049871, Note_on_c, 0, 80, 90
1, 1049874, Note_on_c, 0, 85, 81
1, 1049875, Note_on_c, 0, 34, 0
1, 1049900, Control_c, 0, 64, 0
1, 1049927, Control_c, 0, 64, 20
1, 1049944, Control_c, 0, 64, 51
1, 1049947, Note_on_c, 0, 35, 0
1, 1049962, Control_c, 0, 64, 90
1, 1049973, Note_on_c, 0, 47, 0
1, 1049980, Control_c, 0, 64, 127
1, 1049982, Note_on_c, 0, 85, 0
1, 1050002, Note_on_c, 0, 80, 0
1, 1050005, Note_on_c, 0, 77, 0
1, 1050073, Note_on_c, 0, 89, 0
1, 1050176, Note_on_c, 0, 61, 97
1, 1050178, Note_on_c, 0, 49, 91
1, 1050233, Note_on_c, 0, 61, 0
1, 1050285, Note_on_c, 0, 78, 99
1, 1050286, Note_on_c, 0, 90, 93
1, 1050290, Note_on_c, 0, 85, 89
1, 1050295, Note_on_c, 0, 49, 0
1, 1050430, Note_on_c, 0, 78, 0
1, 1050452, Note_on_c, 0, 46, 95
1, 1050458, Note_on_c, 0, 34, 94
1, 1050485, Note_on_c, 0, 90, 0
1, 1050488, Note_on_c, 0, 46, 0
1, 1050494, Note_on_c, 0, 34, 0
1, 1050516, Note_on_c, 0, 85, 0
1, 1050837, Note_on_c, 0, 41, 99
1, 1050845, Note_on_c, 0, 29, 92
1, 1050846, Note_on_c, 0, 92, 98
1, 1050846, Note_on_c, 0, 80, 98
1, 1050849, Note_on_c, 0, 85, 96
1, 1050897, Control_c, 0, 64, 110
1, 1050899, Note_on_c, 0, 88, 26
1, 1050917, Control_c, 0, 64, 51
1, 1050935, Note_on_c, 0, 88, 0
1, 1050935, Control_c, 0, 64, 0
1, 1050944, Poly_aftertouch_c, 0, 36, 0
1, 1050945, Poly_aftertouch_c, 0, 36, 0
1, 1050967, Note_on_c, 0, 29, 0
1, 1050992, Control_c, 0, 64, 15
1, 1050997, Note_on_c, 0, 41, 0
1, 1051011, Control_c, 0, 64, 60
1, 1051029, Control_c, 0, 64, 99
1, 1051048, Control_c, 0, 64, 127
1, 1051178, Note_on_c, 0, 49, 78
1, 1051178, Note_on_c, 0, 61, 91
1, 1051270, Note_on_c, 0, 92, 0
1, 1051327, Note_on_c, 0, 61, 0
1, 1051330, Note_on_c, 0, 80, 0
1, 1051338, Note_on_c, 0, 49, 0
1, 1051413, Note_on_c, 0, 85, 0
1, 1051450, Note_on_c, 0, 61, 91
1, 1051456, Note_on_c, 0, 49, 83
1, 1051593, Note_on_c, 0, 49, 0
1, 1051595, Note_on_c, 0, 61, 0
1, 1051762, Note_on_c, 0, 61, 92
1, 1051766, Note_on_c, 0, 49, 82
1, 1051911, Note_on_c, 0, 61, 0
1, 1051911, Note_on_c, 0, 49, 0
1, 1052064, Note_on_c, 0, 61, 89
1, 1052064, Note_on_c, 0, 49, 88
1, 1052116, Note_on_c, 0, 61, 0
1, 1052167, Note_on_c, 0, 73, 97
1, 1052168, Note_on_c, 0, 85, 92
1, 1052169, Note_on_c, 0, 80, 89
1, 1052171, Note_on_c, 0, 49, 0
1, 1052289, Note_on_c, 0, 73, 0
1, 1052335, Note_on_c, 0, 80, 0
1, 1052348, Note_on_c, 0, 41, 95
1, 1052351, Note_on_c, 0, 85, 0
1, 1052360, Note_on_c, 0, 29, 86
1, 1052390, Note_on_c, 0, 29, 0
1, 1052399, Note_on_c, 0, 41, 0
1, 1052517, Poly_aftertouch_c, 0, 31, 0
1, 1052706, Note_on_c, 0, 75, 97
1, 1052708, Note_on_c, 0, 78, 90
1, 1052708, Note_on_c, 0, 42, 93
1, 1052709, Note_on_c, 0, 30, 92
1, 1052711, Note_on_c, 0, 82, 81
1, 1052713, Control_c, 0, 64, 94
1, 1052713, Note_on_c, 0, 87, 88
1, 1052713, Note_on_c, 0, 85, 82
1, 1052739, Control_c, 0, 64, 21
1, 1052751, Control_c, 0, 64, 0
1, 1052807, Control_c, 0, 64, 34
1, 1052823, Note_on_c, 0, 30, 0
1, 1052825, Control_c, 0, 64, 77
1, 1052844, Control_c, 0, 64, 127
1, 1052857, Note_on_c, 0, 42, 0
1, 1052893, Note_on_c, 0, 75, 0
1, 1052909, Note_on_c, 0, 82, 0
1, 1052932, Note_on_c, 0, 78, 0
1, 1052971, Note_on_c, 0, 87, 0
1, 1052973, Note_on_c, 0, 85, 0
1, 1053103, Note_on_c, 0, 49, 89
1, 1053105, Note_on_c, 0, 61, 94
1, 1053118, Note_on_c, 0, 90, 102
1, 1053119, Note_on_c, 0, 78, 105
1, 1053159, Note_on_c, 0, 61, 0
1, 1053176, Note_on_c, 0, 78, 0
1, 1053195, Note_on_c, 0, 90, 0
1, 1053202, Note_on_c, 0, 49, 0
1, 1053270, Poly_aftertouch_c, 0, 77, 0
1, 1053509, Note_on_c, 0, 82, 102
1, 1053509, Note_on_c, 0, 94, 96
1, 1053516, Note_on_c, 0, 85, 90
1, 1053520, Note_on_c, 0, 87, 81
1, 1053523, Note_on_c, 0, 39, 103
1, 1053525, Note_on_c, 0, 90, 84
1, 1053530, Note_on_c, 0, 27, 103
1, 1053593, Note_on_c, 0, 39, 0
1, 1053608, Note_on_c, 0, 82, 0
1, 1053618, Note_on_c, 0, 27, 0
1, 1053642, Note_on_c, 0, 85, 0
1, 1053666, Note_on_c, 0, 87, 0
1, 1053673, Note_on_c, 0, 94, 0
1, 1053676, Note_on_c, 0, 90, 0
1, 1054077, Note_on_c, 0, 87, 94
1, 1054078, Note_on_c, 0, 85, 101
1, 1054079, Note_on_c, 0, 25, 101
1, 1054082, Note_on_c, 0, 37, 102
1, 1054082, Note_on_c, 0, 97, 101
1, 1054095, Note_on_c, 0, 90, 90
1, 1054096, Note_on_c, 0, 94, 92
1, 1054133, Note_on_c, 0, 24, 52
1, 1054141, Control_c, 0, 64, 121
1, 1054160, Control_c, 0, 64, 70
1, 1054179, Note_on_c, 0, 24, 0
1, 1054179, Control_c, 0, 64, 0
1, 1054226, Note_on_c, 0, 25, 0
1, 1054234, Control_c, 0, 64, 51
1, 1054235, Note_on_c, 0, 37, 0
1, 1054252, Control_c, 0, 64, 101
1, 1054271, Control_c, 0, 64, 127
1, 1054469, Note_on_c, 0, 97, 0
1, 1054524, Note_on_c, 0, 63, 86
1, 1054526, Note_on_c, 0, 51, 70
1, 1054527, Note_on_c, 0, 90, 0
1, 1054527, Note_on_c, 0, 85, 0
1, 1054533, Note_on_c, 0, 94, 0
1, 1054541, Note_on_c, 0, 59, 61
1, 1054548, Note_on_c, 0, 87, 0
1, 1054591, Note_on_c, 0, 64, 21
1, 1054623, Note_on_c, 0, 50, 7
1, 1054648, Note_on_c, 0, 64, 0
1, 1054653, Note_on_c, 0, 51, 0
1, 1054655, Note_on_c, 0, 59, 0
1, 1054661, Note_on_c, 0, 63, 0
1, 1054678, Poly_aftertouch_c, 0, 55, 0
1, 1054690, Poly_aftertouch_c, 0, 52, 0
1, 1054705, Note_on_c, 0, 50, 0
1, 1054734, Note_on_c, 0, 82, 101
1, 1054739, Note_on_c, 0, 94, 89
1, 1054743, Note_on_c, 0, 90, 78
1, 1054745, Note_on_c, 0, 87, 88
1, 1054765, Note_on_c, 0, 63, 91
1, 1054770, Note_on_c, 0, 58, 77
1, 1054784, Note_on_c, 0, 49, 70
1, 1054784, Note_on_c, 0, 51, 64
1, 1054797, Note_on_c, 0, 54, 51
1, 1054853, Note_on_c, 0, 94, 0
1, 1054869, Note_on_c, 0, 54, 0
1, 1054874, Note_on_c, 0, 90, 0
1, 1054877, Note_on_c, 0, 87, 0
1, 1054911, Note_on_c, 0, 58, 0
1, 1054916, Note_on_c, 0, 63, 0
1, 1054916, Note_on_c, 0, 51, 0
1, 1054928, Note_on_c, 0, 82, 0
1, 1054939, Note_on_c, 0, 49, 0
1, 1054990, Note_on_c, 0, 63, 90
1, 1054998, Note_on_c, 0, 58, 81
1, 1055003, Note_on_c, 0, 54, 75
1, 1055006, Note_on_c, 0, 49, 56
1, 1055011, Note_on_c, 0, 51, 69
1, 1055159, Note_on_c, 0, 63, 0
1, 1055165, Note_on_c, 0, 58, 0
1, 1055169, Note_on_c, 0, 54, 0
1, 1055174, Note_on_c, 0, 51, 0
1, 1055186, Note_on_c, 0, 49, 0
1, 1055227, Note_on_c, 0, 78, 102
1, 1055231, Note_on_c, 0, 82, 75
1, 1055233, Note_on_c, 0, 90, 90
1, 1055238, Note_on_c, 0, 85, 84
1, 1055239, Note_on_c, 0, 87, 85
1, 1055258, Note_on_c, 0, 63, 85
1, 1055265, Note_on_c, 0, 58, 77
1, 1055271, Note_on_c, 0, 49, 53
1, 1055278, Note_on_c, 0, 51, 62
1, 1055279, Note_on_c, 0, 54, 67
1, 1055340, Note_on_c, 0, 63, 0
1, 1055355, Note_on_c, 0, 58, 0
1, 1055360, Note_on_c, 0, 54, 0
1, 1055372, Note_on_c, 0, 49, 0
1, 1055375, Note_on_c, 0, 51, 0
1, 1055448, Note_on_c, 0, 63, 96
1, 1055457, Note_on_c, 0, 58, 82
1, 1055461, Note_on_c, 0, 54, 72
1, 1055464, Note_on_c, 0, 49, 63
1, 1055467, Note_on_c, 0, 51, 65
1, 1055565, Note_on_c, 0, 63, 0
1, 1055569, Note_on_c, 0, 54, 0
1, 1055570, Note_on_c, 0, 58, 0
1, 1055586, Note_on_c, 0, 51, 0
1, 1055590, Note_on_c, 0, 49, 0
1, 1055669, Note_on_c, 0, 63, 98
1, 1055677, Note_on_c, 0, 58, 85
1, 1055686, Note_on_c, 0, 54, 77
1, 1055686, Note_on_c, 0, 51, 69
1, 1055688, Note_on_c, 0, 49, 70
1, 1055697, Note_on_c, 0, 82, 0
1, 1055722, Note_on_c, 0, 90, 0
1, 1055725, Note_on_c, 0, 85, 0
1, 1055757, Note_on_c, 0, 87, 0
1, 1055774, Note_on_c, 0, 63, 0
1, 1055782, Note_on_c, 0, 49, 0
1, 1055787, Note_on_c, 0, 58, 0
1, 1055790, Note_on_c, 0, 78, 0
1, 1055792, Note_on_c, 0, 54, 0
1, 1055810, Note_on_c, 0, 51, 0
1, 1055867, Note_on_c, 0, 63, 98
1, 1055873, Note_on_c, 0, 58, 85
1, 1055877, Note_on_c, 0, 51, 60
1, 1055881, Note_on_c, 0, 54, 75
1, 1055885, Note_on_c, 0, 49, 75
1, 1056037, Note_on_c, 0, 63, 0
1, 1056045, Note_on_c, 0, 54, 0
1, 1056047, Note_on_c, 0, 58, 0
1, 1056056, Note_on_c, 0, 49, 0
1, 1056061, Note_on_c, 0, 51, 0
1, 1056101, Note_on_c, 0, 75, 103
1, 1056107, Note_on_c, 0, 78, 91
1, 1056109, Note_on_c, 0, 85, 86
1, 1056110, Note_on_c, 0, 87, 88
1, 1056111, Note_on_c, 0, 82, 82
1, 1056142, Note_on_c, 0, 63, 93
1, 1056152, Note_on_c, 0, 58, 78
1, 1056164, Note_on_c, 0, 51, 62
1, 1056169, Note_on_c, 0, 49, 65
1, 1056170, Note_on_c, 0, 54, 68
1, 1056247, Note_on_c, 0, 63, 0
1, 1056248, Note_on_c, 0, 49, 0
1, 1056269, Note_on_c, 0, 54, 0
1, 1056272, Note_on_c, 0, 58, 0
1, 1056278, Note_on_c, 0, 51, 0
1, 1056349, Note_on_c, 0, 63, 94
1, 1056351, Note_on_c, 0, 58, 77
1, 1056361, Note_on_c, 0, 51, 65
1, 1056362, Note_on_c, 0, 54, 72
1, 1056366, Note_on_c, 0, 49, 77
1, 1056496, Note_on_c, 0, 63, 0
1, 1056508, Note_on_c, 0, 54, 0
1, 1056508, Note_on_c, 0, 49, 0
1, 1056508, Note_on_c, 0, 58, 0
1, 1056512, Note_on_c, 0, 51, 0
1, 1056605, Note_on_c, 0, 63, 100
1, 1056611, Note_on_c, 0, 58, 91
1, 1056621, Note_on_c, 0, 54, 80
1, 1056627, Note_on_c, 0, 49, 73
1, 1056628, Note_on_c, 0, 51, 72
1, 1056692, Note_on_c, 0, 87, 0
1, 1056744, Note_on_c, 0, 63, 0
1, 1056748, Note_on_c, 0, 49, 0
1, 1056751, Note_on_c, 0, 54, 0
1, 1056751, Note_on_c, 0, 58, 0
1, 1056769, Note_on_c, 0, 51, 0
1, 1056790, Note_on_c, 0, 82, 0
1, 1056802, Note_on_c, 0, 85, 0
1, 1056803, Note_on_c, 0, 78, 0
1, 1056840, Note_on_c, 0, 63, 102
1, 1056843, Note_on_c, 0, 58, 92
1, 1056847, Note_on_c, 0, 54, 84
1, 1056849, Note_on_c, 0, 75, 0
1, 1056852, Note_on_c, 0, 51, 70
1, 1056858, Note_on_c, 0, 49, 80
1, 1057046, Note_on_c, 0, 63, 0
1, 1057054, Note_on_c, 0, 49, 0
1, 1057074, Note_on_c, 0, 54, 0
1, 1057076, Note_on_c, 0, 51, 0
1, 1057096, Note_on_c, 0, 58, 0
1, 1057165, Note_on_c, 0, 63, 104
1, 1057166, Note_on_c, 0, 58, 89
1, 1057170, Note_on_c, 0, 54, 82
1, 1057177, Note_on_c, 0, 51, 78
1, 1057178, Note_on_c, 0, 73, 105
1, 1057182, Note_on_c, 0, 75, 98
1, 1057184, Note_on_c, 0, 78, 89
1, 1057185, Note_on_c, 0, 85, 97
1, 1057186, Note_on_c, 0, 49, 75
1, 1057186, Note_on_c, 0, 82, 90
1, 1057215, Note_on_c, 0, 63, 0
1, 1057220, Note_on_c, 0, 49, 0
1, 1057243, Note_on_c, 0, 58, 0
1, 1057252, Note_on_c, 0, 54, 0
1, 1057254, Note_on_c, 0, 51, 0
1, 1057483, Note_on_c, 0, 85, 0
1, 1057634, Note_on_c, 0, 49, 99
1, 1057639, Note_on_c, 0, 37, 89
1, 1057697, Note_on_c, 0, 73, 0
1, 1057702, Note_on_c, 0, 82, 0
1, 1057761, Note_on_c, 0, 78, 0
1, 1057802, Note_on_c, 0, 75, 0
1, 1057832, Note_on_c, 0, 70, 101
1, 1057835, Note_on_c, 0, 78, 65
1, 1057837, Note_on_c, 0, 75, 66
1, 1057837, Note_on_c, 0, 82, 85
1, 1057914, Note_on_c, 0, 37, 0
1, 1057914, Note_on_c, 0, 49, 0
1, 1057974, Note_on_c, 0, 82, 0
1, 1057998, Note_on_c, 0, 49, 87
1, 1058008, Note_on_c, 0, 37, 76
1, 1058011, Note_on_c, 0, 42, 79
1, 1058055, Note_on_c, 0, 78, 0
1, 1058060, Note_on_c, 0, 75, 0
1, 1058301, Note_on_c, 0, 70, 0
1, 1058321, Note_on_c, 0, 49, 0
1, 1058323, Note_on_c, 0, 42, 0
1, 1058357, Note_on_c, 0, 37, 0
1, 1058438, Note_on_c, 0, 37, 54
1, 1058447, Note_on_c, 0, 49, 69
1, 1058453, Note_on_c, 0, 42, 70
1, 1058509, Note_on_c, 0, 66, 95
1, 1058516, Note_on_c, 0, 78, 85
1, 1058523, Note_on_c, 0, 70, 64
1, 1058529, Note_on_c, 0, 75, 78
1, 1058531, Note_on_c, 0, 73, 72
1, 1058646, Note_on_c, 0, 49, 0
1, 1058660, Note_on_c, 0, 42, 0
1, 1058703, Note_on_c, 0, 37, 0
1, 1058909, Note_on_c, 0, 49, 68
1, 1058915, Note_on_c, 0, 42, 69
1, 1058915, Note_on_c, 0, 37, 62
1, 1059004, Note_on_c, 0, 78, 0
1, 1059029, Note_on_c, 0, 70, 0
1, 1059122, Note_on_c, 0, 73, 0
1, 1059130, Note_on_c, 0, 37, 0
1, 1059140, Note_on_c, 0, 42, 0
1, 1059152, Note_on_c, 0, 49, 0
1, 1059172, Note_on_c, 0, 75, 0
1, 1059284, Note_on_c, 0, 42, 69
1, 1059284, Note_on_c, 0, 37, 68
1, 1059288, Note_on_c, 0, 49, 70
1, 1059335, Note_on_c, 0, 66, 0
1, 1059584, Note_on_c, 0, 37, 0
1, 1059592, Note_on_c, 0, 42, 0
1, 1059595, Note_on_c, 0, 49, 0
1, 1059710, Note_on_c, 0, 75, 87
1, 1059740, Note_on_c, 0, 73, 71
1, 1059742, Note_on_c, 0, 63, 65
1, 1059756, Note_on_c, 0, 49, 58
1, 1059757, Note_on_c, 0, 66, 53
1, 1059761, Note_on_c, 0, 42, 56
1, 1059762, Note_on_c, 0, 37, 59
1, 1059767, Note_on_c, 0, 70, 51
1, 1059879, Note_on_c, 0, 42, 0
1, 1059910, Note_on_c, 0, 49, 0
1, 1059962, Note_on_c, 0, 37, 0
1, 1060139, Note_on_c, 0, 37, 45
1, 1060149, Note_on_c, 0, 49, 48
1, 1060152, Note_on_c, 0, 42, 51
1, 1060341, Note_on_c, 0, 49, 0
1, 1060344, Note_on_c, 0, 37, 0
1, 1060348, Note_on_c, 0, 42, 0
1, 1060356, Note_on_c, 0, 75, 0
1, 1060562, Note_on_c, 0, 37, 42
1, 1060573, Note_on_c, 0, 49, 37
1, 1060577, Note_on_c, 0, 42, 46
1, 1060733, Note_on_c, 0, 63, 0
1, 1060751, Note_on_c, 0, 73, 0
1, 1060829, Note_on_c, 0, 49, 0
1, 1060831, Note_on_c, 0, 42, 0
1, 1060859, Note_on_c, 0, 37, 0
1, 1060873, Note_on_c, 0, 70, 0
1, 1061121, Note_on_c, 0, 42, 32
1, 1061127, Note_on_c, 0, 49, 32
1, 1061129, Note_on_c, 0, 37, 19
1, 1061265, Note_on_c, 0, 73, 80
1, 1061274, Note_on_c, 0, 61, 60
1, 1061280, Note_on_c, 0, 70, 70
1, 1061316, Note_on_c, 0, 66, 0
1, 1061432, Control_c, 0, 64, 106
1, 1061450, Control_c, 0, 64, 78
1, 1061467, Control_c, 0, 64, 60
1, 1061487, Control_c, 0, 64, 57
1, 1061541, Control_c, 0, 64, 65
1, 1061560, Control_c, 0, 64, 74
1, 1061579, Control_c, 0, 64, 91
1, 1061607, Control_c, 0, 64, 118
1, 1061626, Control_c, 0, 64, 127
1, 1061644, Note_on_c, 0, 37, 0
1, 1061668, Note_on_c, 0, 49, 0
1, 1061802, Note_on_c, 0, 49, 42
1, 1061802, Note_on_c, 0, 37, 44
1, 1062019, Note_on_c, 0, 37, 0
1, 1062032, Note_on_c, 0, 49, 0
1, 1062206, Note_on_c, 0, 49, 48
1, 1062208, Note_on_c, 0, 37, 40
1, 1062460, Note_on_c, 0, 49, 0
1, 1062499, Note_on_c, 0, 37, 0
1, 1062663, Note_on_c, 0, 68, 73
1, 1062669, Note_on_c, 0, 49, 45
1, 1062679, Note_on_c, 0, 41, 54
1, 1062697, Note_on_c, 0, 37, 37
1, 1062777, Note_on_c, 0, 70, 0
1, 1062801, Control_c, 0, 64, 118
1, 1062819, Control_c, 0, 64, 92
1, 1062824, Note_on_c, 0, 42, 0
1, 1062839, Control_c, 0, 64, 66
1, 1062857, Control_c, 0, 64, 50
1, 1062914, Note_on_c, 0, 37, 0
1, 1062914, Control_c, 0, 64, 57
1, 1062931, Control_c, 0, 64, 69
1, 1062952, Control_c, 0, 64, 86
1, 1062966, Note_on_c, 0, 49, 0
1, 1062967, Control_c, 0, 64, 108
1, 1062986, Control_c, 0, 64, 127
1, 1063106, Note_on_c, 0, 37, 44
1, 1063117, Note_on_c, 0, 49, 54
1, 1063402, Note_on_c, 0, 37, 0
1, 1063407, Note_on_c, 0, 49, 0
1, 1063543, Note_on_c, 0, 49, 52
1, 1063557, Note_on_c, 0, 37, 57
1, 1063841, Note_on_c, 0, 49, 0
1, 1063867, Note_on_c, 0, 37, 0
1, 1064024, Note_on_c, 0, 66, 69
1, 1064025, Note_on_c, 0, 49, 48
1, 1064030, Note_on_c, 0, 39, 53
1, 1064047, Note_on_c, 0, 37, 39
1, 1064145, Control_c, 0, 64, 121
1, 1064163, Control_c, 0, 64, 92
1, 1064177, Note_on_c, 0, 41, 0
1, 1064178, Note_on_c, 0, 68, 0
1, 1064181, Control_c, 0, 64, 61
1, 1064201, Control_c, 0, 64, 42
1, 1064257, Control_c, 0, 64, 55
1, 1064275, Control_c, 0, 64, 71
1, 1064289, Note_on_c, 0, 37, 0
1, 1064291, Control_c, 0, 64, 92
1, 1064311, Control_c, 0, 64, 118
1, 1064329, Control_c, 0, 64, 127
1, 1064370, Note_on_c, 0, 49, 0
1, 1064508, Note_on_c, 0, 37, 46
1, 1064513, Note_on_c, 0, 49, 44
1, 1064784, Control_c, 0, 67, 8
1, 1064795, Note_on_c, 0, 37, 0
1, 1064841, Control_c, 0, 67, 12
1, 1064847, Note_on_c, 0, 49, 0
1, 1065030, Note_on_c, 0, 49, 44
1, 1065075, Note_on_c, 0, 37, 43
1, 1065292, Note_on_c, 0, 37, 0
1, 1065423, Control_c, 0, 67, 17
1, 1065497, Control_c, 0, 67, 21
1, 1065500, Note_on_c, 0, 66, 0
1, 1065782, Note_on_c, 0, 66, 67
1, 1065796, Note_on_c, 0, 46, 42
1, 1065833, Note_on_c, 0, 37, 35
1, 1065978, Control_c, 0, 64, 104
1, 1065998, Control_c, 0, 64, 77
1, 1066016, Control_c, 0, 64, 55
1, 1066034, Control_c, 0, 64, 50
1, 1066053, Control_c, 0, 67, 26
1, 1066073, Control_c, 0, 64, 55
1, 1066090, Control_c, 0, 64, 62
1, 1066098, Note_on_c, 0, 39, 0
1, 1066109, Control_c, 0, 64, 74
1, 1066110, Control_c, 0, 67, 31
1, 1066129, Control_c, 0, 64, 91
1, 1066147, Control_c, 0, 64, 114
1, 1066147, Control_c, 0, 67, 36
1, 1066164, Control_c, 0, 64, 127
1, 1066183, Control_c, 0, 67, 43
1, 1066202, Control_c, 0, 67, 47
1, 1066220, Control_c, 0, 67, 51
1, 1066239, Control_c, 0, 67, 56
1, 1066258, Control_c, 0, 67, 60
1, 1066286, Control_c, 0, 67, 65
1, 1066305, Control_c, 0, 67, 69
1, 1066323, Control_c, 0, 67, 74
1, 1066342, Control_c, 0, 67, 78
1, 1066358, Control_c, 0, 67, 82
1, 1066396, Control_c, 0, 67, 87
1, 1066400, Note_on_c, 0, 49, 0
1, 1066400, Note_on_c, 0, 37, 0
1, 1066401, Poly_aftertouch_c, 0, 49, 0
1, 1066600, Note_on_c, 0, 49, 36
1, 1066603, Note_on_c, 0, 37, 32
1, 1066933, Control_c, 0, 67, 93
1, 1066971, Control_c, 0, 67, 97
1, 1067026, Control_c, 0, 67, 101
1, 1067039, Note_on_c, 0, 37, 0
1, 1067055, Note_on_c, 0, 49, 0
1, 1067099, Control_c, 0, 67, 106
1, 1067174, Control_c, 0, 67, 110
1, 1067369, Control_c, 0, 67, 114
1, 1067426, Note_on_c, 0, 65, 46
1, 1067440, Note_on_c, 0, 37, 25
1, 1067446, Note_on_c, 0, 49, 21
1, 1067450, Note_on_c, 0, 44, 45
1, 1067508, Note_on_c, 0, 66, 0
1, 1067536, Control_c, 0, 64, 119
1, 1067556, Control_c, 0, 64, 93
1, 1067557, Control_c, 0, 67, 118
1, 1067574, Control_c, 0, 64, 67
1, 1067589, Note_on_c, 0, 46, 0
1, 1067592, Control_c, 0, 64, 51
1, 1067649, Control_c, 0, 64, 58
1, 1067665, Control_c, 0, 64, 67
1, 1067684, Control_c, 0, 64, 80
1, 1067703, Control_c, 0, 64, 97
1, 1067721, Control_c, 0, 64, 115
1, 1067740, Control_c, 0, 64, 127
1, 1067905, Control_c, 0, 67, 122
1, 1067927, Note_on_c, 0, 37, 0
1, 1068003, Note_on_c, 0, 49, 0
1, 1068210, Note_on_c, 0, 49, 35
1, 1068231, Note_on_c, 0, 37, 37
1, 1068546, Control_c, 0, 67, 126
1, 1068708, Note_on_c, 0, 49, 0
1, 1068776, Note_on_c, 0, 37, 0
1, 1068956, Note_on_c, 0, 49, 13
1, 1068960, Note_on_c, 0, 42, 48
1, 1068965, Note_on_c, 0, 63, 56
1, 1068983, Note_on_c, 0, 37, 34
1, 1069130, Control_c, 0, 64, 110
1, 1069149, Control_c, 0, 64, 85
1, 1069165, Control_c, 0, 64, 62
1, 1069185, Control_c, 0, 64, 53
1, 1069189, Note_on_c, 0, 44, 0
1, 1069200, Note_on_c, 0, 65, 0
1, 1069222, Control_c, 0, 64, 57
1, 1069242, Control_c, 0, 64, 63
1, 1069259, Control_c, 0, 64, 72
1, 1069278, Control_c, 0, 64, 86
1, 1069296, Control_c, 0, 64, 104
1, 1069316, Control_c, 0, 64, 120
1, 1069334, Control_c, 0, 64, 127
1, 1069407, Note_on_c, 0, 37, 0
1, 1069568, Note_on_c, 0, 49, 0
1, 1069758, Note_on_c, 0, 49, 33
1, 1069778, Note_on_c, 0, 37, 33
1, 1070063, Note_on_c, 0, 37, 0
1, 1070201, Note_on_c, 0, 49, 0
1, 1070900, Note_on_c, 0, 65, 52
1, 1070920, Note_on_c, 0, 44, 38
1, 1070950, Note_on_c, 0, 49, 30
1, 1070963, Note_on_c, 0, 37, 30
1, 1071026, Note_on_c, 0, 63, 0
1, 1071037, Control_c, 0, 64, 118
1, 1071056, Control_c, 0, 64, 93
1, 1071075, Control_c, 0, 64, 65
1, 1071092, Control_c, 0, 64, 42
1, 1071112, Note_on_c, 0, 42, 0
1, 1071112, Control_c, 0, 64, 36
1, 1071167, Control_c, 0, 64, 43
1, 1071187, Control_c, 0, 64, 56
1, 1071205, Control_c, 0, 64, 72
1, 1071223, Control_c, 0, 64, 89
1, 1071241, Control_c, 0, 64, 108
1, 1071259, Control_c, 0, 64, 120
1, 1071279, Control_c, 0, 64, 127
1, 1071296, Control_c, 0, 67, 121
1, 1071316, Control_c, 0, 67, 117
1, 1071354, Control_c, 0, 67, 110
1, 1071371, Control_c, 0, 67, 104
1, 1071391, Control_c, 0, 67, 96
1, 1071407, Control_c, 0, 67, 85
1, 1071427, Control_c, 0, 67, 71
1, 1071444, Control_c, 0, 67, 57
1, 1071464, Control_c, 0, 67, 42
1, 1071482, Control_c, 0, 67, 27
1, 1071501, Control_c, 0, 67, 14
1, 1071503, Note_on_c, 0, 37, 0
1, 1071539, Control_c, 0, 67, 0
1, 1071564, Note_on_c, 0, 49, 0
1, 1071792, Note_on_c, 0, 49, 40
1, 1071817, Note_on_c, 0, 37, 40
1, 1071840, Note_on_c, 0, 73, 0
1, 1072177, Note_on_c, 0, 61, 0
1, 1072249, Note_on_c, 0, 44, 0
1, 1072338, Note_on_c, 0, 65, 0
1, 1072469, Note_on_c, 0, 37, 0
1, 1072542, Note_on_c, 0, 49, 0
1, 1073183, Note_on_c, 0, 49, 50
1, 1073192, Note_on_c, 0, 37, 46
1, 1073808, Poly_aftertouch_c, 0, 37, 22
1, 1073841, Note_on_c, 0, 37, 0
1, 1073841, Poly_aftertouch_c, 0, 37, 0
1, 1073856, Note_on_c, 0, 49, 0
1, 1074757, Note_on_c, 0, 49, 47
1, 1074774, Note_on_c, 0, 37, 39
1, 1075339, Note_on_c, 0, 37, 0
1, 1075346, Note_on_c, 0, 49, 0
1, 1075645, Note_on_c, 0, 49, 62
1, 1075666, Note_on_c, 0, 37, 48
1, 1075956, Control_c, 0, 67, 9
1, 1075993, Control_c, 0, 67, 16
1, 1076013, Control_c, 0, 67, 20
1, 1076031, Control_c, 0, 67, 24
1, 1076050, Control_c, 0, 67, 29
1, 1076070, Control_c, 0, 67, 34
1, 1076085, Control_c, 0, 67, 40
1, 1076104, Control_c, 0, 67, 46
1, 1076123, Control_c, 0, 67, 51
1, 1076141, Control_c, 0, 67, 55
1, 1076160, Control_c, 0, 67, 60
1, 1076180, Control_c, 0, 67, 66
1, 1076197, Control_c, 0, 67, 70
1, 1076216, Control_c, 0, 67, 74
1, 1076235, Control_c, 0, 67, 79
1, 1076254, Control_c, 0, 67, 84
1, 1076270, Control_c, 0, 67, 89
1, 1076289, Control_c, 0, 67, 95
1, 1076308, Control_c, 0, 67, 100
1, 1076327, Control_c, 0, 67, 104
1, 1076364, Control_c, 0, 67, 111
1, 1076400, Control_c, 0, 67, 115
1, 1076456, Control_c, 0, 67, 120
1, 1076531, Control_c, 0, 67, 124
1, 1076882, Note_on_c, 0, 49, 0
1, 1077082, Note_on_c, 0, 48, 34
1, 1077113, Note_on_c, 0, 36, 38
1, 1077299, Control_c, 0, 67, 120
1, 1077353, Control_c, 0, 67, 114
1, 1077392, Control_c, 0, 67, 109
1, 1077430, Control_c, 0, 67, 103
1, 1077447, Control_c, 0, 67, 99
1, 1077467, Control_c, 0, 67, 93
1, 1077485, Control_c, 0, 67, 84
1, 1077503, Control_c, 0, 67, 72
1, 1077530, Control_c, 0, 67, 60
1, 1077552, Control_c, 0, 67, 47
1, 1077568, Control_c, 0, 67, 35
1, 1077585, Control_c, 0, 67, 25
1, 1077605, Control_c, 0, 67, 16
1, 1077623, Control_c, 0, 67, 9
1, 1077660, Note_on_c, 0, 37, 0
1, 1078099, Note_on_c, 0, 48, 0
1, 1078451, Note_on_c, 0, 61, 69
1, 1078477, Note_on_c, 0, 37, 35
1, 1078479, Note_on_c, 0, 47, 26
1, 1078481, Note_on_c, 0, 49, 40
1, 1078542, Note_on_c, 0, 35, 44
1, 1078668, Note_on_c, 0, 36, 0
1, 1078769, Note_on_c, 0, 37, 0
1, 1079045, Note_on_c, 0, 49, 0
1, 1079105, Note_on_c, 0, 47, 0
1, 1079311, Note_on_c, 0, 61, 0
1, 1079999, Note_on_c, 0, 66, 65
1, 1080015, Note_on_c, 0, 61, 49
1, 1080019, Note_on_c, 0, 54, 38
1, 1080030, Note_on_c, 0, 34, 33
1, 1080046, Note_on_c, 0, 37, 32
1, 1080048, Note_on_c, 0, 46, 33
1, 1080218, Control_c, 0, 64, 123
1, 1080235, Control_c, 0, 64, 100
1, 1080255, Control_c, 0, 64, 74
1, 1080270, Note_on_c, 0, 35, 0
1, 1080273, Control_c, 0, 64, 53
1, 1080291, Control_c, 0, 64, 45
1, 1080357, Control_c, 0, 67, 13
1, 1080377, Control_c, 0, 64, 51
1, 1080393, Control_c, 0, 64, 64
1, 1080411, Control_c, 0, 64, 80
1, 1080431, Control_c, 0, 64, 100
1, 1080449, Control_c, 0, 64, 122
1, 1080450, Control_c, 0, 67, 18
1, 1080467, Control_c, 0, 64, 127
1, 1080505, Control_c, 0, 67, 26
1, 1080524, Control_c, 0, 67, 35
1, 1080542, Control_c, 0, 67, 43
1, 1080561, Control_c, 0, 67, 48
1, 1080578, Control_c, 0, 67, 52
1, 1080597, Control_c, 0, 67, 56
1, 1080615, Control_c, 0, 67, 62
1, 1080634, Control_c, 0, 67, 68
1, 1080654, Control_c, 0, 67, 74
1, 1080671, Control_c, 0, 67, 80
1, 1080690, Control_c, 0, 67, 86
1, 1080707, Control_c, 0, 67, 93
1, 1080726, Control_c, 0, 67, 99
1, 1080744, Control_c, 0, 67, 106
1, 1080763, Control_c, 0, 67, 112
1, 1080801, Control_c, 0, 67, 118
1, 1080838, Control_c, 0, 67, 124
1, 1080847, Note_on_c, 0, 37, 0
1, 1080994, Note_on_c, 0, 46, 0
1, 1081290, Note_on_c, 0, 45, 27
1, 1081291, Note_on_c, 0, 33, 41
1, 1081303, Note_on_c, 0, 37, 38
1, 1081422, Note_on_c, 0, 34, 0
1, 1081422, Control_c, 0, 64, 123
1, 1081442, Control_c, 0, 64, 98
1, 1081458, Control_c, 0, 64, 70
1, 1081477, Control_c, 0, 64, 48
1, 1081495, Control_c, 0, 64, 45
1, 1081533, Control_c, 0, 64, 47
1, 1081550, Control_c, 0, 64, 58
1, 1081570, Control_c, 0, 64, 69
1, 1081589, Control_c, 0, 64, 85
1, 1081607, Control_c, 0, 64, 108
1, 1081626, Control_c, 0, 64, 127
1, 1081902, Control_c, 0, 67, 118
1, 1081941, Control_c, 0, 67, 112
1, 1081950, Note_on_c, 0, 61, 0
1, 1081982, Note_on_c, 0, 37, 0
1, 1081996, Control_c, 0, 67, 105
1, 1082004, Note_on_c, 0, 45, 0
1, 1082013, Control_c, 0, 67, 100
1, 1082031, Control_c, 0, 67, 94
1, 1082050, Control_c, 0, 67, 86
1, 1082069, Control_c, 0, 67, 75
1, 1082088, Control_c, 0, 67, 64
1, 1082107, Control_c, 0, 67, 52
1, 1082126, Control_c, 0, 67, 40
1, 1082145, Control_c, 0, 67, 30
1, 1082163, Control_c, 0, 67, 21
1, 1082183, Control_c, 0, 67, 14
1, 1082229, Control_c, 0, 67, 9
1, 1082303, Note_on_c, 0, 54, 0
1, 1082563, Note_on_c, 0, 61, 37
1, 1082568, Note_on_c, 0, 65, 46
1, 1082580, Note_on_c, 0, 53, 36
1, 1082595, Note_on_c, 0, 32, 38
1, 1082598, Note_on_c, 0, 37, 26
1, 1082608, Note_on_c, 0, 44, 38
1, 1082729, Control_c, 0, 64, 106
1, 1082736, Note_on_c, 0, 66, 0
1, 1082748, Control_c, 0, 64, 76
1, 1082763, Control_c, 0, 64, 50
1, 1082782, Control_c, 0, 64, 45
1, 1082792, Note_on_c, 0, 33, 0
1, 1082820, Control_c, 0, 64, 50
1, 1082838, Control_c, 0, 64, 61
1, 1082857, Control_c, 0, 64, 73
1, 1082876, Control_c, 0, 64, 90
1, 1082895, Control_c, 0, 64, 112
1, 1082913, Control_c, 0, 64, 127
1, 1083136, Note_on_c, 0, 61, 0
1, 1083219, Note_on_c, 0, 37, 0
1, 1083329, Note_on_c, 0, 53, 0
1, 1083523, Note_on_c, 0, 44, 0
1, 1083570, Control_c, 0, 67, 13
1, 1083873, Note_on_c, 0, 58, 42
1, 1083876, Note_on_c, 0, 51, 41
1, 1083878, Note_on_c, 0, 63, 57
1, 1083888, Note_on_c, 0, 37, 37
1, 1083902, Note_on_c, 0, 43, 38
1, 1083916, Note_on_c, 0, 31, 41
1, 1084034, Control_c, 0, 64, 107
1, 1084055, Control_c, 0, 64, 77
1, 1084066, Control_c, 0, 67, 17
1, 1084073, Note_on_c, 0, 32, 0
1, 1084081, Control_c, 0, 64, 53
1, 1084082, Note_on_c, 0, 65, 0
1, 1084097, Control_c, 0, 64, 50
1, 1084117, Control_c, 0, 64, 52
1, 1084135, Control_c, 0, 64, 59
1, 1084154, Control_c, 0, 64, 69
1, 1084172, Control_c, 0, 64, 83
1, 1084173, Control_c, 0, 67, 22
1, 1084192, Control_c, 0, 64, 103
1, 1084210, Control_c, 0, 64, 124
1, 1084228, Control_c, 0, 67, 26
1, 1084248, Control_c, 0, 67, 30
1, 1084266, Control_c, 0, 67, 36
1, 1084285, Control_c, 0, 67, 41
1, 1084303, Control_c, 0, 67, 45
1, 1084339, Control_c, 0, 67, 50
1, 1084358, Control_c, 0, 67, 54
1, 1084377, Control_c, 0, 67, 59
1, 1084396, Control_c, 0, 67, 63
1, 1084414, Control_c, 0, 67, 68
1, 1084432, Control_c, 0, 67, 72
1, 1084450, Control_c, 0, 67, 76
1, 1084468, Control_c, 0, 67, 81
1, 1084488, Control_c, 0, 67, 85
1, 1084525, Control_c, 0, 67, 92
1, 1084543, Control_c, 0, 67, 96
1, 1084562, Control_c, 0, 67, 100
1, 1084580, Control_c, 0, 67, 104
1, 1084593, Note_on_c, 0, 58, 0
1, 1084608, Note_on_c, 0, 43, 0
1, 1084618, Control_c, 0, 67, 110
1, 1084655, Control_c, 0, 67, 115
1, 1084709, Control_c, 0, 67, 121
1, 1084747, Control_c, 0, 67, 126
1, 1085042, Note_on_c, 0, 57, 41
1, 1085045, Note_on_c, 0, 42, 47
1, 1085081, Note_on_c, 0, 30, 46
1, 1085109, Control_c, 0, 64, 100
1, 1085127, Control_c, 0, 64, 72
1, 1085146, Control_c, 0, 64, 65
1, 1085164, Control_c, 0, 64, 69
1, 1085183, Control_c, 0, 64, 76
1, 1085203, Control_c, 0, 64, 89
1, 1085220, Control_c, 0, 64, 109
1, 1085238, Control_c, 0, 64, 127
1, 1085395, Poly_aftertouch_c, 0, 31, 22
1, 1085412, Note_on_c, 0, 37, 0
1, 1085627, Note_on_c, 0, 57, 0
1, 1085656, Poly_aftertouch_c, 0, 31, 32
1, 1085681, Note_on_c, 0, 30, 0
1, 1085769, Note_on_c, 0, 51, 0
1, 1085879, Note_on_c, 0, 42, 0
1, 1086249, Poly_aftertouch_c, 0, 31, 24
1, 1086360, Note_on_c, 0, 65, 53
1, 1086386, Note_on_c, 0, 29, 36
1, 1086394, Note_on_c, 0, 57, 26
1, 1086395, Note_on_c, 0, 51, 35
1, 1086402, Note_on_c, 0, 41, 28
1, 1086407, Note_on_c, 0, 60, 47
1, 1086411, Note_on_c, 0, 36, 33
1, 1086536, Poly_aftertouch_c, 0, 31, 22
1, 1086542, Control_c, 0, 64, 109
1, 1086549, Note_on_c, 0, 63, 0
1, 1086562, Control_c, 0, 64, 78
1, 1086582, Control_c, 0, 64, 51
1, 1086592, Note_on_c, 0, 31, 0
1, 1086592, Poly_aftertouch_c, 0, 31, 0
1, 1086593, Poly_aftertouch_c, 0, 31, 0
1, 1086598, Control_c, 0, 64, 47
1, 1086618, Control_c, 0, 64, 49
1, 1086638, Control_c, 0, 64, 59
1, 1086655, Control_c, 0, 64, 71
1, 1086675, Control_c, 0, 64, 88
1, 1086691, Control_c, 0, 64, 113
1, 1086710, Control_c, 0, 64, 127
1, 1086952, Note_on_c, 0, 65, 0
1, 1087082, Note_on_c, 0, 36, 0
1, 1087125, Note_on_c, 0, 60, 0
1, 1087201, Note_on_c, 0, 57, 0
1, 1087207, Note_on_c, 0, 29, 0
1, 1087252, Poly_aftertouch_c, 0, 41, 22
1, 1087303, Note_on_c, 0, 41, 0
1, 1087303, Poly_aftertouch_c, 0, 41, 0
1, 1087538, Note_on_c, 0, 51, 0
1, 1087938, Note_on_c, 0, 61, 55
1, 1087940, Note_on_c, 0, 40, 40
1, 1087949, Note_on_c, 0, 49, 36
1, 1087953, Note_on_c, 0, 56, 42
1, 1087954, Note_on_c, 0, 58, 45
1, 1087955, Note_on_c, 0, 28, 35
1, 1087958, Note_on_c, 0, 34, 37
1, 1088139, Control_c, 0, 64, 96
1, 1088156, Control_c, 0, 64, 66
1, 1088175, Control_c, 0, 64, 48
1, 1088211, Control_c, 0, 64, 52
1, 1088229, Control_c, 0, 64, 62
1, 1088248, Control_c, 0, 64, 73
1, 1088267, Control_c, 0, 64, 90
1, 1088285, Control_c, 0, 64, 116
1, 1088305, Control_c, 0, 64, 127
1, 1088636, Note_on_c, 0, 34, 0
1, 1088773, Note_on_c, 0, 49, 0
1, 1088868, Note_on_c, 0, 28, 0
1, 1088950, Poly_aftertouch_c, 0, 40, 24
1, 1089074, Note_on_c, 0, 40, 0
1, 1089074, Poly_aftertouch_c, 0, 40, 0
1, 1089091, Note_on_c, 0, 56, 0
1, 1089165, Note_on_c, 0, 58, 0
1, 1089198, Note_on_c, 0, 61, 0
1, 1089739, Note_on_c, 0, 61, 47
1, 1089743, Note_on_c, 0, 63, 54
1, 1089761, Note_on_c, 0, 58, 41
1, 1089762, Note_on_c, 0, 27, 24
1, 1089763, Note_on_c, 0, 39, 33
1, 1089772, Note_on_c, 0, 34, 31
1, 1089781, Note_on_c, 0, 51, 37
1, 1089799, Note_on_c, 0, 55, 19
1, 1089934, Control_c, 0, 64, 108
1, 1089953, Control_c, 0, 64, 80
1, 1089972, Control_c, 0, 64, 55
1, 1089992, Control_c, 0, 64, 44
1, 1090081, Control_c, 0, 64, 50
1, 1090101, Control_c, 0, 64, 61
1, 1090119, Control_c, 0, 64, 73
1, 1090138, Control_c, 0, 64, 88
1, 1090156, Control_c, 0, 64, 108
1, 1090176, Control_c, 0, 64, 127
1, 1090417, Control_c, 0, 67, 120
1, 1090453, Control_c, 0, 67, 115
1, 1090489, Control_c, 0, 67, 110
1, 1090509, Control_c, 0, 67, 105
1, 1090527, Control_c, 0, 67, 98
1, 1090546, Control_c, 0, 67, 89
1, 1090565, Control_c, 0, 67, 78
1, 1090571, Note_on_c, 0, 27, 0
1, 1090583, Control_c, 0, 67, 67
1, 1090602, Control_c, 0, 67, 55
1, 1090628, Control_c, 0, 67, 45
1, 1090647, Control_c, 0, 67, 37
1, 1090665, Control_c, 0, 67, 30
1, 1090685, Control_c, 0, 67, 25
1, 1090704, Control_c, 0, 67, 21
1, 1090722, Control_c, 0, 67, 17
1, 1090740, Control_c, 0, 67, 12
1, 1090832, Control_c, 0, 67, 0
1, 1090867, Poly_aftertouch_c, 0, 34, 24
1, 1090984, Note_on_c, 0, 34, 0
1, 1090984, Poly_aftertouch_c, 0, 34, 0
1, 1091130, Poly_aftertouch_c, 0, 39, 20
1, 1091133, Note_on_c, 0, 39, 0
1, 1091133, Poly_aftertouch_c, 0, 39, 0
1, 1091223, Note_on_c, 0, 61, 0
1, 1091438, Note_on_c, 0, 58, 0
1, 1091499, Poly_aftertouch_c, 0, 55, 24
1, 1091553, Note_on_c, 0, 55, 0
1, 1091553, Poly_aftertouch_c, 0, 55, 0
1, 1092649, Control_c, 0, 67, 8
1, 1092741, Control_c, 0, 67, 13
1, 1092796, Control_c, 0, 67, 17
1, 1092869, Control_c, 0, 67, 22
1, 1092927, Control_c, 0, 67, 27
1, 1092998, Note_on_c, 0, 60, 58
1, 1093015, Note_on_c, 0, 54, 40
1, 1093017, Note_on_c, 0, 44, 34
1, 1093029, Note_on_c, 0, 32, 28
1, 1093055, Control_c, 0, 67, 31
1, 1093242, Control_c, 0, 64, 121
1, 1093259, Control_c, 0, 64, 114
1, 1093278, Control_c, 0, 64, 104
1, 1093296, Control_c, 0, 64, 95
1, 1093315, Control_c, 0, 64, 88
1, 1093334, Control_c, 0, 64, 83
1, 1093353, Control_c, 0, 64, 78
1, 1093355, Control_c, 0, 67, 35
1, 1093371, Control_c, 0, 64, 73
1, 1093392, Control_c, 0, 64, 68
1, 1093409, Control_c, 0, 64, 63
1, 1093435, Control_c, 0, 64, 62
1, 1093436, Control_c, 0, 67, 40
1, 1093454, Control_c, 0, 64, 61
1, 1093491, Control_c, 0, 64, 57
1, 1093492, Control_c, 0, 67, 45
1, 1093510, Control_c, 0, 64, 55
1, 1093547, Control_c, 0, 64, 53
1, 1093548, Control_c, 0, 67, 51
1, 1093603, Control_c, 0, 67, 56
1, 1093658, Control_c, 0, 64, 55
1, 1093658, Control_c, 0, 67, 60
1, 1093676, Control_c, 0, 64, 57
1, 1093695, Control_c, 0, 64, 60
1, 1093714, Control_c, 0, 64, 62
1, 1093732, Control_c, 0, 64, 66
1, 1093751, Control_c, 0, 64, 72
1, 1093770, Control_c, 0, 64, 81
1, 1093790, Control_c, 0, 64, 92
1, 1093792, Control_c, 0, 67, 64
1, 1093805, Control_c, 0, 64, 102
1, 1093825, Control_c, 0, 64, 110
1, 1093843, Control_c, 0, 64, 117
1, 1093862, Control_c, 0, 64, 125
1, 1093955, Control_c, 0, 67, 68
1, 1094028, Control_c, 0, 67, 72
1, 1094065, Control_c, 0, 67, 76
1, 1094084, Control_c, 0, 67, 81
1, 1094103, Control_c, 0, 67, 87
1, 1094121, Control_c, 0, 67, 91
1, 1094159, Control_c, 0, 67, 98
1, 1094175, Control_c, 0, 67, 103
1, 1094194, Control_c, 0, 67, 110
1, 1094214, Control_c, 0, 67, 116
1, 1094250, Control_c, 0, 67, 124
1, 1094456, Note_on_c, 0, 63, 0
1, 1094739, Note_on_c, 0, 51, 0
1, 1094755, Note_on_c, 0, 44, 0
1, 1095991, Note_on_c, 0, 61, 38
1, 1096014, Note_on_c, 0, 49, 21
1, 1096450, Note_on_c, 0, 61, 0
1, 1096523, Note_on_c, 0, 49, 0
1, 1097140, Note_on_c, 0, 61, 38
1, 1097152, Note_on_c, 0, 37, 31
1, 1097169, Note_on_c, 0, 25, 36
1, 1097173, Note_on_c, 0, 49, 17
1, 1097827, Note_on_c, 0, 32, 0
1, 1098481, Note_on_c, 0, 25, 0
1, 1098989, Note_on_c, 0, 54, 0
1, 1099394, Note_on_c, 0, 60, 0
1, 1100286, Note_on_c, 0, 58, 49
1, 1100315, Note_on_c, 0, 54, 35
1, 1100315, Note_on_c, 0, 42, 27
1, 1100327, Note_on_c, 0, 30, 24
1, 1100490, Note_on_c, 0, 49, 0
1, 1100617, Note_on_c, 0, 37, 0
1, 1100652, Control_c, 0, 64, 115
1, 1100671, Control_c, 0, 64, 105
1, 1100690, Control_c, 0, 64, 98
1, 1100708, Control_c, 0, 64, 90
1, 1100725, Control_c, 0, 64, 80
1, 1100745, Control_c, 0, 64, 70
1, 1100763, Control_c, 0, 64, 62
1, 1100781, Control_c, 0, 64, 57
1, 1100800, Control_c, 0, 64, 54
1, 1100818, Control_c, 0, 64, 50
1, 1100838, Control_c, 0, 64, 47
1, 1100976, Control_c, 0, 64, 49
1, 1100995, Control_c, 0, 64, 56
1, 1101014, Control_c, 0, 64, 60
1, 1101032, Control_c, 0, 64, 66
1, 1101051, Control_c, 0, 64, 73
1, 1101069, Control_c, 0, 64, 83
1, 1101089, Control_c, 0, 64, 96
1, 1101104, Control_c, 0, 64, 109
1, 1101124, Control_c, 0, 64, 120
1, 1101143, Control_c, 0, 64, 127
1, 1101424, Note_on_c, 0, 30, 0
1, 1102742, Note_on_c, 0, 54, 0
1, 1103321, Note_on_c, 0, 58, 0
1, 1103345, Note_on_c, 0, 42, 0
1, 1103884, Note_on_c, 0, 56, 33
1, 1103886, Note_on_c, 0, 37, 18
1, 1103894, Note_on_c, 0, 53, 31
1, 1103911, Note_on_c, 0, 44, 32
1, 1103916, Note_on_c, 0, 49, 20
1, 1104172, Control_c, 0, 64, 116
1, 1104190, Control_c, 0, 64, 104
1, 1104210, Control_c, 0, 64, 90
1, 1104226, Control_c, 0, 64, 80
1, 1104246, Control_c, 0, 64, 75
1, 1104263, Control_c, 0, 64, 71
1, 1104283, Control_c, 0, 64, 66
1, 1104301, Control_c, 0, 64, 61
1, 1104320, Control_c, 0, 64, 57
1, 1104338, Control_c, 0, 64, 54
1, 1104357, Control_c, 0, 64, 52
1, 1104395, Control_c, 0, 64, 50
1, 1104561, Control_c, 0, 64, 52
1, 1104598, Control_c, 0, 64, 55
1, 1104617, Control_c, 0, 64, 57
1, 1104681, Control_c, 0, 64, 59
1, 1104718, Control_c, 0, 64, 60
1, 1104774, Control_c, 0, 64, 61
1, 1104793, Control_c, 0, 64, 62
1, 1104831, Control_c, 0, 64, 63
1, 1104866, Control_c, 0, 64, 64
1, 1104903, Control_c, 0, 64, 66
1, 1104922, Control_c, 0, 64, 67
1, 1104960, Control_c, 0, 64, 69
1, 1104997, Control_c, 0, 64, 72
1, 1105017, Control_c, 0, 64, 74
1, 1105033, Control_c, 0, 64, 77
1, 1105052, Control_c, 0, 64, 80
1, 1105070, Control_c, 0, 64, 83
1, 1105090, Control_c, 0, 64, 85
1, 1105109, Control_c, 0, 64, 88
1, 1105145, Control_c, 0, 64, 94
1, 1105164, Control_c, 0, 64, 98
1, 1105200, Control_c, 0, 64, 105
1, 1105218, Control_c, 0, 64, 109
1, 1105236, Control_c, 0, 64, 113
1, 1105256, Control_c, 0, 64, 119
1, 1105274, Control_c, 0, 64, 127
1, 1105768, Note_on_c, 0, 61, 0
1, 1105836, Poly_aftertouch_c, 0, 53, 24
1, 1105910, Note_on_c, 0, 53, 0
1, 1105910, Poly_aftertouch_c, 0, 53, 0
1, 1106027, Note_on_c, 0, 49, 0
1, 1106041, Poly_aftertouch_c, 0, 37, 20
1, 1106054, Note_on_c, 0, 37, 0
1, 1106054, Poly_aftertouch_c, 0, 37, 0
1, 1106134, Poly_aftertouch_c, 0, 56, 24
1, 1106235, Poly_aftertouch_c, 0, 44, 24
1, 1106265, Note_on_c, 0, 56, 0
1, 1106265, Poly_aftertouch_c, 0, 56, 0
1, 1106663, Poly_aftertouch_c, 0, 44, 22
1, 1106715, Note_on_c, 0, 44, 0
1, 1106715, Poly_aftertouch_c, 0, 44, 0
1, 1107637, Control_c, 0, 67, 118
1, 1107692, Control_c, 0, 67, 113
1, 1107728, Control_c, 0, 67, 108
1, 1107748, Control_c, 0, 67, 104
1, 1107766, Control_c, 0, 67, 100
1, 1107786, Control_c, 0, 67, 94
1, 1107804, Control_c, 0, 67, 86
1, 1107822, Control_c, 0, 67, 77
1, 1107840, Control_c, 0, 67, 67
1, 1107858, Control_c, 0, 67, 58
1, 1107877, Control_c, 0, 67, 50
1, 1107895, Control_c, 0, 67, 42
1, 1107915, Control_c, 0, 67, 36
1, 1107933, Control_c, 0, 67, 30
1, 1107952, Control_c, 0, 67, 26
1, 1107991, Control_c, 0, 67, 21
1, 1108412, Note_on_c, 0, 77, 57
1, 1108446, Note_on_c, 0, 61, 30
1, 1108460, Control_c, 0, 67, 25
1, 1109060, Note_on_c, 0, 68, 34
1, 1109558, Note_on_c, 0, 68, 0
1, 1109689, Note_on_c, 0, 73, 59
1, 1109723, Note_on_c, 0, 56, 31
1, 1109861, Note_on_c, 0, 77, 0
1, 1109975, Note_on_c, 0, 61, 0
1, 1110355, Note_on_c, 0, 65, 39
1, 1110770, Note_on_c, 0, 65, 0
1, 1110850, Note_on_c, 0, 53, 15
1, 1110909, Note_on_c, 0, 68, 46
1, 1110931, Note_on_c, 0, 56, 0
1, 1111091, Note_on_c, 0, 73, 0
1, 1111496, Note_on_c, 0, 61, 38
1, 1111518, Note_on_c, 0, 53, 0
1, 1112040, Note_on_c, 0, 49, 30
1, 1112093, Note_on_c, 0, 65, 39
1, 1112173, Note_on_c, 0, 61, 0
1, 1112232, Note_on_c, 0, 68, 0
1, 1112641, Note_on_c, 0, 56, 19
1, 1112688, Note_on_c, 0, 49, 0
1, 1112722, Control_c, 0, 67, 21
1, 1112822, Note_on_c, 0, 65, 0
1, 1113156, Note_on_c, 0, 56, 0
1, 1113367, Note_on_c, 0, 80, 77
1, 1113410, Note_on_c, 0, 41, 33
1, 1113548, Control_c, 0, 67, 13
1, 1113582, Control_c, 0, 67, 0
1, 1113922, Note_on_c, 0, 49, 46
1, 1114107, Note_on_c, 0, 41, 0
1, 1114434, Note_on_c, 0, 44, 48
1, 1114514, Note_on_c, 0, 77, 74
1, 1114689, Note_on_c, 0, 49, 0
1, 1114700, Note_on_c, 0, 80, 0
1, 1115000, Note_on_c, 0, 53, 58
1, 1115456, Note_on_c, 0, 49, 59
1, 1115512, Poly_aftertouch_c, 0, 44, 24
1, 1115524, Note_on_c, 0, 73, 80
1, 1115543, Note_on_c, 0, 44, 0
1, 1115543, Poly_aftertouch_c, 0, 44, 0
1, 1115565, Poly_aftertouch_c, 0, 47, 0
1, 1115651, Note_on_c, 0, 53, 0
1, 1115816, Note_on_c, 0, 77, 0
1, 1116023, Note_on_c, 0, 56, 70
1, 1116144, Note_on_c, 0, 49, 0
1, 1116529, Note_on_c, 0, 53, 66
1, 1116637, Note_on_c, 0, 68, 83
1, 1116754, Note_on_c, 0, 56, 0
1, 1116769, Note_on_c, 0, 73, 0
1, 1117232, Note_on_c, 0, 61, 80
1, 1117318, Note_on_c, 0, 61, 0
1, 1117399, Note_on_c, 0, 53, 0
1, 1117738, Note_on_c, 0, 68, 0
1, 1117815, Control_c, 0, 64, 112
1, 1117818, Note_on_c, 0, 30, 72
1, 1117835, Control_c, 0, 64, 66
1, 1117854, Control_c, 0, 64, 12
1, 1117866, Note_on_c, 0, 34, 72
1, 1117908, Control_c, 0, 64, 39
1, 1117927, Control_c, 0, 64, 69
1, 1117935, Note_on_c, 0, 37, 74
1, 1117948, Control_c, 0, 64, 102
1, 1117965, Control_c, 0, 64, 127
1, 1117966, Note_on_c, 0, 30, 0
1, 1117987, Note_on_c, 0, 42, 80
1, 1118034, Note_on_c, 0, 34, 0
1, 1118067, Note_on_c, 0, 70, 72
1, 1118106, Note_on_c, 0, 37, 0
1, 1118124, Note_on_c, 0, 78, 80
1, 1118143, Note_on_c, 0, 42, 0
1, 1118152, Note_on_c, 0, 82, 72
1, 1118206, Note_on_c, 0, 70, 0
1, 1118234, Note_on_c, 0, 85, 95
1, 1118292, Note_on_c, 0, 78, 0
1, 1118365, Note_on_c, 0, 82, 0
1, 1118403, Note_on_c, 0, 85, 0
1, 1119594, Note_on_c, 0, 34, 70
1, 1119633, Note_on_c, 0, 37, 72
1, 1119702, Note_on_c, 0, 42, 77
1, 1119706, Note_on_c, 0, 34, 0
1, 1119756, Note_on_c, 0, 49, 78
1, 1119776, Note_on_c, 0, 37, 0
1, 1119832, Note_on_c, 0, 66, 69
1, 1119850, Note_on_c, 0, 42, 0
1, 1119904, Note_on_c, 0, 73, 72
1, 1119912, Note_on_c, 0, 49, 0
1, 1119949, Note_on_c, 0, 78, 76
1, 1119961, Note_on_c, 0, 66, 0
1, 1120016, Note_on_c, 0, 76, 48
1, 1120032, Note_on_c, 0, 82, 90
1, 1120063, Note_on_c, 0, 76, 0
1, 1120254, Poly_aftertouch_c, 0, 76, 0
1, 1120274, Note_on_c, 0, 73, 0
1, 1120284, Note_on_c, 0, 82, 0
1, 1120322, Note_on_c, 0, 78, 0
1, 1121389, Note_on_c, 0, 37, 66
1, 1121449, Note_on_c, 0, 42, 71
1, 1121488, Note_on_c, 0, 37, 0
1, 1121521, Note_on_c, 0, 46, 73
1, 1121574, Note_on_c, 0, 42, 0
1, 1121587, Note_on_c, 0, 54, 81
1, 1121625, Note_on_c, 0, 61, 61
1, 1121639, Note_on_c, 0, 46, 0
1, 1121672, Note_on_c, 0, 54, 0
1, 1121685, Note_on_c, 0, 70, 59
1, 1121699, Note_on_c, 0, 61, 0
1, 1121722, Note_on_c, 0, 73, 69
1, 1121819, Note_on_c, 0, 78, 87
1, 1121892, Note_on_c, 0, 70, 0
1, 1121956, Note_on_c, 0, 73, 0
1, 1122003, Note_on_c, 0, 78, 0
1, 1123233, Note_on_c, 0, 42, 62
1, 1123302, Note_on_c, 0, 46, 64
1, 1123329, Note_on_c, 0, 42, 0
1, 1123353, Note_on_c, 0, 49, 65
1, 1123409, Note_on_c, 0, 46, 0
1, 1123420, Note_on_c, 0, 58, 72
1, 1123453, Note_on_c, 0, 49, 0
1, 1123473, Note_on_c, 0, 61, 62
1, 1123492, Note_on_c, 0, 58, 0
1, 1123571, Note_on_c, 0, 70, 70
1, 1123616, Note_on_c, 0, 61, 0
1, 1123663, Note_on_c, 0, 73, 85
1, 1123693, Note_on_c, 0, 70, 0
1, 1123748, Note_on_c, 0, 73, 0
1, 1125179, Control_c, 0, 64, 118
1, 1125199, Control_c, 0, 64, 78
1, 1125218, Control_c, 0, 64, 60
1, 1125223, Note_on_c, 0, 42, 79
1, 1125236, Control_c, 0, 64, 64
1, 1125263, Control_c, 0, 64, 71
1, 1125283, Control_c, 0, 64, 86
1, 1125301, Control_c, 0, 64, 116
1, 1125315, Note_on_c, 0, 45, 71
1, 1125321, Control_c, 0, 64, 127
1, 1125393, Note_on_c, 0, 49, 76
1, 1125410, Note_on_c, 0, 42, 0
1, 1125445, Note_on_c, 0, 45, 0
1, 1125460, Note_on_c, 0, 57, 80
1, 1125517, Note_on_c, 0, 61, 78
1, 1125527, Note_on_c, 0, 49, 0
1, 1125582, Note_on_c, 0, 57, 0
1, 1125584, Note_on_c, 0, 66, 79
1, 1125643, Note_on_c, 0, 69, 71
1, 1125674, Note_on_c, 0, 73, 77
1, 1125702, Note_on_c, 0, 61, 0
1, 1125759, Note_on_c, 0, 75, 93
1, 1126127, Note_on_c, 0, 75, 0
1, 1126218, Note_on_c, 0, 69, 0
1, 1126257, Note_on_c, 0, 66, 0
1, 1126261, Note_on_c, 0, 73, 0
1, 1127440, Note_on_c, 0, 37, 84
1, 1127469, Control_c, 0, 64, 85
1, 1127487, Control_c, 0, 64, 53
1, 1127525, Control_c, 0, 64, 60
1, 1127543, Control_c, 0, 64, 77
1, 1127560, Control_c, 0, 64, 108
1, 1127562, Note_on_c, 0, 41, 63
1, 1127580, Control_c, 0, 64, 127
1, 1127634, Note_on_c, 0, 37, 0
1, 1127641, Note_on_c, 0, 44, 75
1, 1127690, Note_on_c, 0, 41, 0
1, 1127717, Note_on_c, 0, 49, 79
1, 1127766, Note_on_c, 0, 44, 0
1, 1127783, Note_on_c, 0, 61, 65
1, 1127792, Note_on_c, 0, 56, 81
1, 1127840, Note_on_c, 0, 61, 0
1, 1127842, Note_on_c, 0, 68, 75
1, 1127857, Note_on_c, 0, 49, 0
1, 1127906, Note_on_c, 0, 56, 0
1, 1127914, Note_on_c, 0, 73, 70
1, 1128039, Note_on_c, 0, 77, 83
1, 1128106, Note_on_c, 0, 68, 0
1, 1128334, Note_on_c, 0, 77, 0
1, 1128435, Note_on_c, 0, 73, 0
1, 1130988, Note_on_c, 0, 37, 59
1, 1131031, Note_on_c, 0, 41, 66
1, 1131069, Note_on_c, 0, 37, 0
1, 1131087, Note_on_c, 0, 44, 65
1, 1131109, Note_on_c, 0, 41, 0
1, 1131156, Note_on_c, 0, 49, 70
1, 1131187, Note_on_c, 0, 44, 0
1, 1131201, Note_on_c, 0, 61, 61
1, 1131225, Note_on_c, 0, 56, 81
1, 1131245, Note_on_c, 0, 49, 0
1, 1131261, Note_on_c, 0, 61, 0
1, 1131270, Note_on_c, 0, 68, 73
1, 1131284, Note_on_c, 0, 56, 0
1, 1131348, Note_on_c, 0, 73, 70
1, 1131444, Note_on_c, 0, 68, 0
1, 1131444, Note_on_c, 0, 77, 92
1, 1131486, Note_on_c, 0, 73, 0
1, 1131523, Note_on_c, 0, 77, 0
1, 1133041, Note_on_c, 0, 37, 57
1, 1133079, Note_on_c, 0, 41, 63
1, 1133108, Note_on_c, 0, 37, 0
1, 1133132, Note_on_c, 0, 44, 64
1, 1133151, Note_on_c, 0, 41, 0
1, 1133216, Note_on_c, 0, 49, 64
1, 1133229, Note_on_c, 0, 44, 0
1, 1133229, Note_on_c, 0, 61, 63
1, 1133283, Note_on_c, 0, 56, 71
1, 1133292, Note_on_c, 0, 61, 0
1, 1133298, Note_on_c, 0, 68, 69
1, 1133306, Note_on_c, 0, 49, 0
1, 1133357, Note_on_c, 0, 56, 0
1, 1133371, Note_on_c, 0, 73, 65
1, 1133491, Note_on_c, 0, 68, 0
1, 1133519, Note_on_c, 0, 77, 87
1, 1133564, Note_on_c, 0, 73, 0
1, 1133600, Note_on_c, 0, 77, 0
1, 1135635, Note_on_c, 0, 37, 44
1, 1135727, Note_on_c, 0, 41, 50
1, 1135760, Note_on_c, 0, 61, 52
1, 1135801, Note_on_c, 0, 37, 0
1, 1135823, Note_on_c, 0, 61, 0
1, 1135853, Note_on_c, 0, 44, 57
1, 1135870, Note_on_c, 0, 68, 50
1, 1135926, Note_on_c, 0, 41, 0
1, 1135956, Note_on_c, 0, 73, 53
1, 1135991, Note_on_c, 0, 49, 58
1, 1136198, Note_on_c, 0, 56, 43
1, 1136469, Note_on_c, 0, 77, 61
1, 1146432, Poly_aftertouch_c, 0, 77, 24
1, 1146677, Note_on_c, 0, 56, 0
1, 1146687, Poly_aftertouch_c, 0, 77, 22
1, 1146809, Note_on_c, 0, 77, 0
1, 1146809, Poly_aftertouch_c, 0, 77, 0
1, 1146879, Note_on_c, 0, 73, 0
1, 1146939, Note_on_c, 0, 44, 0
1, 1146957, Note_on_c, 0, 68, 0
1, 1147061, Note_on_c, 0, 49, 0
1, 1147245, Control_c, 0, 64, 123
1, 1147282, Control_c, 0, 64, 118
1, 1147338, Control_c, 0, 64, 113
1, 1147395, Control_c, 0, 64, 108
1, 1147430, Control_c, 0, 64, 103
1, 1147467, Control_c, 0, 64, 99
1, 1147505, Control_c, 0, 64, 93
1, 1147542, Control_c, 0, 64, 89
1, 1147596, Control_c, 0, 64, 87
1, 1147634, Control_c, 0, 64, 85
1, 1147671, Control_c, 0, 64, 83
1, 1147690, Control_c, 0, 64, 81
1, 1147738, Control_c, 0, 64, 79
1, 1147774, Control_c, 0, 64, 76
1, 1147810, Control_c, 0, 64, 74
1, 1147829, Control_c, 0, 64, 72
1, 1147867, Control_c, 0, 64, 69
1, 1147886, Control_c, 0, 64, 68
1, 1147903, Control_c, 0, 64, 67
1, 1147922, Control_c, 0, 64, 66
1, 1147960, Control_c, 0, 64, 65
1, 1147995, Control_c, 0, 64, 64
1, 1148015, Control_c, 0, 64, 63
1, 1148070, Control_c, 0, 64, 62
1, 1148107, Control_c, 0, 64, 61
1, 1148144, Control_c, 0, 64, 60
1, 1148236, Control_c, 0, 64, 58
1, 1151573, Control_c, 0, 64, 62
1, 1151589, Control_c, 0, 64, 65
1, 1151608, Control_c, 0, 64, 69
1, 1151627, Control_c, 0, 64, 76
1, 1151647, Control_c, 0, 64, 87
1, 1151664, Control_c, 0, 64, 104
1, 1151683, Control_c, 0, 64, 120
1, 1151702, Control_c, 0, 64, 127
1, 1151975, Note_on_c, 0, 52, 55
1, 1152005, Note_on_c, 0, 55, 66
1, 1152060, Note_on_c, 0, 58, 67
1, 1152076, Note_on_c, 0, 52, 0
1, 1152097, Note_on_c, 0, 61, 78
1, 1152130, Note_on_c, 0, 64, 78
1, 1152137, Note_on_c, 0, 55, 0
1, 1152155, Note_on_c, 0, 58, 0
1, 1152172, Note_on_c, 0, 67, 70
1, 1152179, Note_on_c, 0, 61, 0
1, 1152179, Note_on_c, 0, 64, 0
1, 1152210, Note_on_c, 0, 67, 0
1, 1152219, Note_on_c, 0, 70, 76
1, 1152265, Note_on_c, 0, 70, 0
1, 1152268, Note_on_c, 0, 73, 78
1, 1152294, Note_on_c, 0, 73, 0
1, 1152341, Note_on_c, 0, 76, 82
1, 1152429, Note_on_c, 0, 76, 0
1, 1152431, Note_on_c, 0, 79, 81
1, 1152462, Note_on_c, 0, 73, 53
1, 1152472, Note_on_c, 0, 73, 0
1, 1152476, Note_on_c, 0, 82, 81
1, 1152518, Note_on_c, 0, 79, 0
1, 1152535, Note_on_c, 0, 85, 102
1, 1152535, Note_on_c, 0, 40, 103
1, 1152540, Note_on_c, 0, 28, 93
1, 1152564, Note_on_c, 0, 82, 0
1, 1152576, Note_on_c, 0, 28, 0
1, 1152588, Note_on_c, 0, 85, 0
1, 1152593, Note_on_c, 0, 40, 0
1, 1152849, Note_on_c, 0, 52, 44
1, 1152891, Note_on_c, 0, 58, 81
1, 1152892, Note_on_c, 0, 61, 80
1, 1152933, Note_on_c, 0, 52, 0
1, 1152971, Note_on_c, 0, 72, 93
1, 1152972, Note_on_c, 0, 84, 97
1, 1153009, Note_on_c, 0, 84, 0
1, 1153012, Note_on_c, 0, 72, 0
1, 1153023, Poly_aftertouch_c, 0, 55, 0
1, 1153023, Note_on_c, 0, 67, 84
1, 1153051, Note_on_c, 0, 67, 0
1, 1153057, Note_on_c, 0, 61, 0
1, 1153062, Note_on_c, 0, 58, 0
1, 1153070, Note_on_c, 0, 82, 94
1, 1153074, Note_on_c, 0, 70, 101
1, 1153199, Note_on_c, 0, 35, 60
1, 1153210, Control_c, 0, 64, 85
1, 1153230, Control_c, 0, 64, 36
1, 1153240, Note_on_c, 0, 32, 18
1, 1153248, Control_c, 0, 64, 0
1, 1153251, Note_on_c, 0, 82, 0
1, 1153259, Note_on_c, 0, 70, 0
1, 1153265, Note_on_c, 0, 35, 0
1, 1153283, Note_on_c, 0, 29, 86
1, 1153285, Control_c, 0, 64, 50
1, 1153288, Note_on_c, 0, 41, 95
1, 1153304, Control_c, 0, 64, 93
1, 1153308, Note_on_c, 0, 32, 0
1, 1153317, Note_on_c, 0, 29, 0
1, 1153331, Control_c, 0, 64, 127
1, 1153338, Note_on_c, 0, 41, 0
1, 1153388, Note_on_c, 0, 68, 88
1, 1153388, Note_on_c, 0, 80, 96
1, 1153422, Note_on_c, 0, 68, 0
1, 1153442, Note_on_c, 0, 80, 0
1, 1153475, Note_on_c, 0, 61, 94
1, 1153479, Control_c, 0, 64, 122
1, 1153480, Note_on_c, 0, 67, 97
1, 1153482, Note_on_c, 0, 56, 74
1, 1153485, Note_on_c, 0, 79, 90
1, 1153491, Note_on_c, 0, 53, 52
1, 1153497, Control_c, 0, 64, 75
1, 1153506, Note_on_c, 0, 61, 0
1, 1153513, Note_on_c, 0, 56, 0
1, 1153514, Control_c, 0, 64, 24
1, 1153517, Note_on_c, 0, 67, 0
1, 1153522, Note_on_c, 0, 79, 0
1, 1153524, Note_on_c, 0, 53, 0
1, 1153533, Control_c, 0, 64, 0
1, 1153549, Note_on_c, 0, 81, 22
1, 1153550, Note_on_c, 0, 81, 0
1, 1153720, Note_on_c, 0, 61, 88
1, 1153720, Control_c, 0, 64, 26
1, 1153728, Note_on_c, 0, 77, 99
1, 1153728, Note_on_c, 0, 65, 99
1, 1153739, Control_c, 0, 64, 55
1, 1153758, Note_on_c, 0, 61, 0
1, 1153758, Control_c, 0, 64, 86
1, 1153775, Control_c, 0, 64, 121
1, 1153781, Note_on_c, 0, 65, 0
1, 1153795, Control_c, 0, 64, 127
1, 1153796, Note_on_c, 0, 77, 0
1, 1153918, Note_on_c, 0, 39, 29
1, 1153923, Note_on_c, 0, 34, 30
1, 1153958, Note_on_c, 0, 64, 97
1, 1153962, Note_on_c, 0, 76, 92
1, 1153964, Note_on_c, 0, 70, 88
1, 1153964, Note_on_c, 0, 73, 80
1, 1153967, Note_on_c, 0, 43, 97
1, 1153967, Note_on_c, 0, 31, 82
1, 1153971, Note_on_c, 0, 39, 0
1, 1153987, Note_on_c, 0, 70, 0
1, 1153989, Note_on_c, 0, 73, 0
1, 1153997, Note_on_c, 0, 64, 0
1, 1153999, Note_on_c, 0, 34, 0
1, 1153999, Control_c, 0, 64, 86
1, 1154001, Note_on_c, 0, 31, 0
1, 1154008, Note_on_c, 0, 43, 0
1, 1154008, Note_on_c, 0, 33, 46
1, 1154013, Note_on_c, 0, 76, 0
1, 1154017, Control_c, 0, 64, 35
1, 1154035, Control_c, 0, 64, 0
1, 1154052, Note_on_c, 0, 33, 0
1, 1154193, Note_on_c, 0, 55, 84
1, 1154198, Note_on_c, 0, 61, 84
1, 1154200, Note_on_c, 0, 77, 101
1, 1154202, Note_on_c, 0, 65, 97
1, 1154207, Note_on_c, 0, 58, 71
1, 1154224, Note_on_c, 0, 61, 0
1, 1154226, Note_on_c, 0, 55, 0
1, 1154231, Note_on_c, 0, 65, 0
1, 1154235, Note_on_c, 0, 58, 0
1, 1154237, Note_on_c, 0, 77, 0
1, 1154461, Note_on_c, 0, 64, 88
1, 1154462, Note_on_c, 0, 79, 102
1, 1154463, Note_on_c, 0, 67, 103
1, 1154467, Note_on_c, 0, 58, 86
1, 1154486, Note_on_c, 0, 64, 0
1, 1154493, Note_on_c, 0, 58, 0
1, 1154498, Note_on_c, 0, 67, 0
1, 1154499, Note_on_c, 0, 79, 0
1, 1154755, Note_on_c, 0, 32, 79
1, 1154758, Note_on_c, 0, 44, 95
1, 1154765, Control_c, 0, 64, 39
1, 1154773, Note_on_c, 0, 72, 94
1, 1154775, Note_on_c, 0, 60, 99
1, 1154779, Note_on_c, 0, 65, 94
1, 1154784, Control_c, 0, 64, 78
1, 1154795, Note_on_c, 0, 32, 0
1, 1154804, Control_c, 0, 64, 120
1, 1154814, Note_on_c, 0, 44, 0
1, 1154821, Control_c, 0, 64, 127
1, 1154832, Note_on_c, 0, 60, 0
1, 1154851, Note_on_c, 0, 72, 0
1, 1154854, Poly_aftertouch_c, 0, 64, 0
1, 1154870, Note_on_c, 0, 65, 0
1, 1154929, Poly_aftertouch_c, 0, 64, 0
1, 1154994, Note_on_c, 0, 53, 72
1, 1154997, Note_on_c, 0, 56, 66
1, 1155050, Note_on_c, 0, 56, 0
1, 1155058, Note_on_c, 0, 53, 0
1, 1155187, Note_on_c, 0, 56, 80
1, 1155205, Note_on_c, 0, 60, 74
1, 1155222, Note_on_c, 0, 56, 0
1, 1155231, Note_on_c, 0, 60, 0
1, 1155275, Control_c, 0, 67, 13
1, 1155293, Note_on_c, 0, 72, 68
1, 1155294, Control_c, 0, 67, 25
1, 1155314, Control_c, 0, 64, 102
1, 1155315, Control_c, 0, 67, 39
1, 1155333, Control_c, 0, 64, 69
1, 1155335, Control_c, 0, 67, 52
1, 1155351, Poly_aftertouch_c, 0, 56, 0
1, 1155351, Note_on_c, 0, 74, 61
1, 1155352, Control_c, 0, 64, 36
1, 1155353, Control_c, 0, 67, 62
1, 1155370, Control_c, 0, 64, 23
1, 1155372, Control_c, 0, 67, 72
1, 1155378, Note_on_c, 0, 72, 0
1, 1155388, Control_c, 0, 67, 82
1, 1155399, Note_on_c, 0, 76, 68
1, 1155407, Control_c, 0, 67, 90
1, 1155425, Note_on_c, 0, 74, 0
1, 1155425, Control_c, 0, 67, 98
1, 1155445, Control_c, 0, 67, 102
1, 1155459, Note_on_c, 0, 33, 75
1, 1155465, Note_on_c, 0, 77, 83
1, 1155468, Note_on_c, 0, 45, 61
1, 1155471, Note_on_c, 0, 65, 81
1, 1155480, Control_c, 0, 64, 19
1, 1155487, Note_on_c, 0, 76, 0
1, 1155492, Note_on_c, 0, 33, 0
1, 1155507, Note_on_c, 0, 65, 0
1, 1155508, Note_on_c, 0, 77, 0
1, 1155513, Note_on_c, 0, 45, 0
1, 1155591, Control_c, 0, 67, 106
1, 1155741, Note_on_c, 0, 60, 60
1, 1155783, Note_on_c, 0, 53, 35
1, 1155813, Control_c, 0, 67, 102
1, 1155819, Note_on_c, 0, 76, 86
1, 1155823, Note_on_c, 0, 64, 77
1, 1155826, Note_on_c, 0, 53, 0
1, 1155829, Note_on_c, 0, 60, 0
1, 1155851, Control_c, 0, 67, 93
1, 1155855, Note_on_c, 0, 64, 0
1, 1155869, Control_c, 0, 67, 85
1, 1155888, Control_c, 0, 67, 69
1, 1155906, Control_c, 0, 67, 47
1, 1155914, Note_on_c, 0, 63, 70
1, 1155915, Note_on_c, 0, 76, 0
1, 1155921, Note_on_c, 0, 77, 81
1, 1155922, Note_on_c, 0, 60, 41
1, 1155924, Control_c, 0, 67, 21
1, 1155924, Note_on_c, 0, 53, 58
1, 1155924, Note_on_c, 0, 65, 80
1, 1155944, Control_c, 0, 67, 0
1, 1155947, Note_on_c, 0, 63, 0
1, 1155956, Note_on_c, 0, 53, 0
1, 1155961, Note_on_c, 0, 60, 0
1, 1155961, Control_c, 0, 64, 15
1, 1156000, Control_c, 0, 64, 8
1, 1156035, Control_c, 0, 64, 0
1, 1156052, Note_on_c, 0, 65, 0
1, 1156055, Control_c, 0, 64, 15
1, 1156073, Control_c, 0, 64, 42
1, 1156093, Control_c, 0, 64, 65
1, 1156103, Note_on_c, 0, 77, 0
1, 1156108, Control_c, 0, 64, 88
1, 1156116, Note_on_c, 0, 46, 82
1, 1156125, Note_on_c, 0, 34, 73
1, 1156137, Control_c, 0, 64, 117
1, 1156157, Control_c, 0, 64, 127
1, 1156161, Note_on_c, 0, 46, 0
1, 1156171, Note_on_c, 0, 34, 0
1, 1156223, Note_on_c, 0, 80, 84
1, 1156230, Note_on_c, 0, 68, 66
1, 1156247, Note_on_c, 0, 80, 0
1, 1156262, Note_on_c, 0, 68, 0
1, 1156287, Control_c, 0, 64, 102
1, 1156305, Control_c, 0, 64, 68
1, 1156320, Note_on_c, 0, 53, 75
1, 1156321, Control_c, 0, 64, 34
1, 1156323, Note_on_c, 0, 65, 89
1, 1156323, Note_on_c, 0, 77, 88
1, 1156324, Note_on_c, 0, 61, 80
1, 1156330, Note_on_c, 0, 58, 64
1, 1156343, Control_c, 0, 64, 19
1, 1156355, Note_on_c, 0, 65, 0
1, 1156355, Note_on_c, 0, 61, 0
1, 1156356, Note_on_c, 0, 77, 0
1, 1156359, Note_on_c, 0, 53, 0
1, 1156359, Note_on_c, 0, 58, 0
1, 1156378, Control_c, 0, 64, 13
1, 1156585, Note_on_c, 0, 58, 70
1, 1156588, Note_on_c, 0, 78, 81
1, 1156591, Note_on_c, 0, 66, 76
1, 1156593, Note_on_c, 0, 61, 56
1, 1156608, Note_on_c, 0, 58, 0
1, 1156620, Note_on_c, 0, 61, 0
1, 1156623, Note_on_c, 0, 66, 0
1, 1156633, Note_on_c, 0, 78, 0
1, 1156711, Control_c, 0, 64, 9
1, 1156765, Note_on_c, 0, 42, 42
1, 1156767, Control_c, 0, 64, 19
1, 1156786, Control_c, 0, 64, 37
1, 1156794, Note_on_c, 0, 48, 87
1, 1156804, Note_on_c, 0, 36, 73
1, 1156805, Note_on_c, 0, 42, 0
1, 1156805, Control_c, 0, 64, 56
1, 1156824, Control_c, 0, 64, 79
1, 1156837, Note_on_c, 0, 38, 50
1, 1156841, Note_on_c, 0, 36, 0
1, 1156841, Control_c, 0, 64, 107
1, 1156843, Note_on_c, 0, 48, 0
1, 1156860, Control_c, 0, 64, 127
1, 1156873, Note_on_c, 0, 82, 86
1, 1156873, Note_on_c, 0, 70, 87
1, 1156878, Note_on_c, 0, 38, 0
1, 1156898, Note_on_c, 0, 70, 0
1, 1156900, Note_on_c, 0, 82, 0
1, 1156965, Note_on_c, 0, 80, 78
1, 1156971, Note_on_c, 0, 68, 97
1, 1156977, Note_on_c, 0, 63, 83
1, 1156982, Note_on_c, 0, 60, 73
1, 1156990, Control_c, 0, 64, 95
1, 1157001, Note_on_c, 0, 63, 0
1, 1157003, Note_on_c, 0, 60, 0
1, 1157004, Note_on_c, 0, 68, 0
1, 1157008, Control_c, 0, 64, 60
1, 1157022, Note_on_c, 0, 80, 0
1, 1157027, Control_c, 0, 64, 30
1, 1157045, Control_c, 0, 64, 25
1, 1157202, Note_on_c, 0, 63, 73
1, 1157202, Note_on_c, 0, 60, 63
1, 1157206, Note_on_c, 0, 69, 103
1, 1157207, Note_on_c, 0, 81, 102
1, 1157213, Note_on_c, 0, 65, 55
1, 1157228, Note_on_c, 0, 63, 0
1, 1157234, Note_on_c, 0, 60, 0
1, 1157239, Note_on_c, 0, 69, 0
1, 1157242, Note_on_c, 0, 65, 0
1, 1157250, Note_on_c, 0, 81, 0
1, 1157276, Note_on_c, 0, 80, 8
1, 1157277, Note_on_c, 0, 80, 0
1, 1157478, Note_on_c, 0, 49, 89
1, 1157481, Note_on_c, 0, 37, 84
1, 1157483, Note_on_c, 0, 84, 103
1, 1157483, Note_on_c, 0, 72, 106
1, 1157521, Note_on_c, 0, 37, 0
1, 1157522, Note_on_c, 0, 72, 0
1, 1157527, Note_on_c, 0, 84, 0
1, 1157529, Note_on_c, 0, 49, 0
1, 1157611, Control_c, 0, 64, 14
1, 1157629, Control_c, 0, 64, 0
1, 1157759, Control_c, 0, 64, 30
1, 1157767, Note_on_c, 0, 82, 95
1, 1157767, Note_on_c, 0, 70, 97
1, 1157778, Control_c, 0, 64, 66
1, 1157778, Note_on_c, 0, 58, 75
1, 1157779, Note_on_c, 0, 61, 72
1, 1157782, Note_on_c, 0, 53, 72
1, 1157797, Control_c, 0, 64, 103
1, 1157814, Control_c, 0, 64, 127
1, 1157862, Note_on_c, 0, 53, 0
1, 1157885, Note_on_c, 0, 82, 0
1, 1157906, Note_on_c, 0, 58, 0
1, 1157911, Note_on_c, 0, 70, 0
1, 1157911, Poly_aftertouch_c, 0, 56, 0
1, 1157955, Note_on_c, 0, 61, 0
1, 1157955, Note_on_c, 0, 61, 58
1, 1157956, Note_on_c, 0, 58, 65
1, 1157958, Note_on_c, 0, 65, 86
1, 1157976, Note_on_c, 0, 71, 82
1, 1157988, Note_on_c, 0, 65, 0
1, 1157992, Note_on_c, 0, 61, 0
1, 1157998, Note_on_c, 0, 58, 0
1, 1158023, Note_on_c, 0, 74, 73
1, 1158038, Note_on_c, 0, 71, 0
1, 1158081, Note_on_c, 0, 77, 69
1, 1158105, Note_on_c, 0, 80, 83
1, 1158106, Note_on_c, 0, 74, 0
1, 1158112, Note_on_c, 0, 77, 0
1, 1158127, Note_on_c, 0, 65, 22
1, 1158137, Note_on_c, 0, 80, 0
1, 1158142, Note_on_c, 0, 65, 0
1, 1158193, Note_on_c, 0, 83, 77
1, 1158243, Note_on_c, 0, 83, 0
1, 1158258, Note_on_c, 0, 86, 79
1, 1158285, Note_on_c, 0, 84, 10
1, 1158317, Note_on_c, 0, 89, 67
1, 1158332, Note_on_c, 0, 84, 0
1, 1158337, Note_on_c, 0, 86, 0
1, 1158347, Note_on_c, 0, 92, 94
1, 1158353, Note_on_c, 0, 50, 98
1, 1158353, Note_on_c, 0, 38, 86
1, 1158366, Note_on_c, 0, 95, 101
1, 1158368, Note_on_c, 0, 93, 87
1, 1158383, Note_on_c, 0, 89, 0
1, 1158385, Note_on_c, 0, 38, 0
1, 1158399, Note_on_c, 0, 93, 0
1, 1158401, Note_on_c, 0, 50, 0
1, 1158409, Note_on_c, 0, 92, 0
1, 1158417, Control_c, 0, 64, 108
1, 1158421, Note_on_c, 0, 95, 0
1, 1158436, Control_c, 0, 64, 66
1, 1158454, Control_c, 0, 64, 26
1, 1158459, Note_on_c, 0, 40, 12
1, 1158473, Control_c, 0, 64, 18
1, 1158480, Note_on_c, 0, 40, 0
1, 1158532, Poly_aftertouch_c, 0, 38, 0
1, 1158659, Note_on_c, 0, 56, 72
1, 1158664, Note_on_c, 0, 62, 73
1, 1158675, Note_on_c, 0, 59, 56
1, 1158714, Note_on_c, 0, 59, 0
1, 1158729, Note_on_c, 0, 56, 0
1, 1158729, Note_on_c, 0, 62, 0
1, 1158766, Note_on_c, 0, 94, 87
1, 1158768, Note_on_c, 0, 82, 86
1, 1158783, Note_on_c, 0, 92, 66
1, 1158788, Note_on_c, 0, 94, 0
1, 1158792, Note_on_c, 0, 82, 0
1, 1158807, Note_on_c, 0, 92, 0
1, 1158840, Note_on_c, 0, 65, 71
1, 1158843, Note_on_c, 0, 59, 51
1, 1158862, Note_on_c, 0, 92, 96
1, 1158864, Note_on_c, 0, 62, 48
1, 1158866, Note_on_c, 0, 56, 64
1, 1158867, Note_on_c, 0, 65, 0
1, 1158871, Note_on_c, 0, 80, 59
1, 1158890, Note_on_c, 0, 59, 0
1, 1158899, Control_c, 0, 64, 12
1, 1158900, Note_on_c, 0, 62, 0
1, 1158910, Note_on_c, 0, 56, 0
1, 1158916, Control_c, 0, 64, 8
1, 1159001, Control_c, 0, 64, 23
1, 1159012, Poly_aftertouch_c, 0, 79, 0
1, 1159018, Control_c, 0, 64, 46
1, 1159037, Control_c, 0, 64, 74
1, 1159051, Note_on_c, 0, 80, 0
1, 1159055, Control_c, 0, 64, 103
1, 1159058, Note_on_c, 0, 92, 0
1, 1159074, Control_c, 0, 64, 127
1, 1159079, Note_on_c, 0, 51, 93
1, 1159091, Note_on_c, 0, 39, 75
1, 1159107, Note_on_c, 0, 51, 0
1, 1159118, Note_on_c, 0, 39, 0
1, 1159172, Note_on_c, 0, 90, 91
1, 1159173, Note_on_c, 0, 78, 81
1, 1159204, Note_on_c, 0, 78, 0
1, 1159220, Note_on_c, 0, 90, 0
1, 1159259, Control_c, 0, 64, 92
1, 1159265, Note_on_c, 0, 77, 98
1, 1159269, Note_on_c, 0, 89, 95
1, 1159269, Note_on_c, 0, 54, 80
1, 1159273, Note_on_c, 0, 63, 83
1, 1159277, Control_c, 0, 64, 55
1, 1159297, Control_c, 0, 64, 21
1, 1159299, Note_on_c, 0, 63, 0
1, 1159308, Note_on_c, 0, 77, 0
1, 1159313, Note_on_c, 0, 54, 0
1, 1159314, Note_on_c, 0, 89, 0
1, 1159316, Control_c, 0, 64, 13
1, 1159333, Control_c, 0, 64, 9
1, 1159352, Control_c, 0, 64, 0
1, 1159507, Note_on_c, 0, 63, 73
1, 1159508, Note_on_c, 0, 66, 77
1, 1159509, Note_on_c, 0, 58, 78
1, 1159514, Note_on_c, 0, 87, 93
1, 1159516, Note_on_c, 0, 75, 96
1, 1159517, Control_c, 0, 64, 41
1, 1159535, Note_on_c, 0, 66, 0
1, 1159537, Note_on_c, 0, 58, 0
1, 1159537, Control_c, 0, 64, 67
1, 1159540, Note_on_c, 0, 63, 0
1, 1159556, Control_c, 0, 64, 92
1, 1159571, Note_on_c, 0, 75, 0
1, 1159571, Note_on_c, 0, 87, 0
1, 1159574, Control_c, 0, 64, 121
1, 1159593, Control_c, 0, 64, 127
1, 1159697, Poly_aftertouch_c, 0, 66, 0
1, 1159748, Note_on_c, 0, 74, 93
1, 1159750, Note_on_c, 0, 86, 89
1, 1159750, Note_on_c, 0, 80, 88
1, 1159751, Note_on_c, 0, 83, 81
1, 1159752, Note_on_c, 0, 41, 77
1, 1159757, Note_on_c, 0, 53, 84
1, 1159759, Control_c, 0, 64, 105
1, 1159779, Control_c, 0, 64, 65
1, 1159781, Note_on_c, 0, 83, 0
1, 1159781, Poly_aftertouch_c, 0, 47, 0
1, 1159783, Note_on_c, 0, 41, 0
1, 1159784, Note_on_c, 0, 74, 0
1, 1159790, Note_on_c, 0, 53, 0
1, 1159791, Note_on_c, 0, 80, 0
1, 1159796, Control_c, 0, 64, 22
1, 1159799, Note_on_c, 0, 86, 0
1, 1159815, Control_c, 0, 64, 10
1, 1160010, Note_on_c, 0, 56, 73
1, 1160014, Note_on_c, 0, 75, 97
1, 1160015, Note_on_c, 0, 87, 96
1, 1160024, Note_on_c, 0, 62, 75
1, 1160041, Note_on_c, 0, 59, 51
1, 1160050, Note_on_c, 0, 87, 0
1, 1160051, Note_on_c, 0, 86, 61
1, 1160056, Note_on_c, 0, 75, 0
1, 1160057, Note_on_c, 0, 56, 0
1, 1160072, Note_on_c, 0, 59, 0
1, 1160074, Note_on_c, 0, 86, 0
1, 1160080, Note_on_c, 0, 62, 0
1, 1160264, Note_on_c, 0, 68, 80
1, 1160267, Note_on_c, 0, 59, 63
1, 1160269, Note_on_c, 0, 89, 102
1, 1160272, Note_on_c, 0, 77, 105
1, 1160272, Note_on_c, 0, 62, 73
1, 1160291, Note_on_c, 0, 68, 0
1, 1160303, Note_on_c, 0, 89, 0
1, 1160305, Note_on_c, 0, 77, 0
1, 1160306, Note_on_c, 0, 62, 0
1, 1160324, Note_on_c, 0, 59, 0
1, 1160566, Control_c, 0, 64, 33
1, 1160577, Note_on_c, 0, 82, 96
1, 1160583, Note_on_c, 0, 42, 81
1, 1160583, Note_on_c, 0, 70, 97
1, 1160583, Note_on_c, 0, 75, 95
1, 1160584, Control_c, 0, 64, 64
1, 1160591, Note_on_c, 0, 54, 94
1, 1160598, Poly_aftertouch_c, 0, 46, 0
1, 1160602, Control_c, 0, 64, 99
1, 1160622, Note_on_c, 0, 42, 0
1, 1160622, Control_c, 0, 64, 127
1, 1160640, Note_on_c, 0, 70, 0
1, 1160644, Note_on_c, 0, 54, 0
1, 1160671, Note_on_c, 0, 82, 0
1, 1160681, Note_on_c, 0, 75, 0
1, 1160822, Note_on_c, 0, 54, 71
1, 1160836, Note_on_c, 0, 63, 76
1, 1160901, Note_on_c, 0, 54, 0
1, 1160914, Note_on_c, 0, 63, 0
1, 1161037, Control_c, 0, 67, 8
1, 1161039, Note_on_c, 0, 66, 64
1, 1161048, Note_on_c, 0, 63, 60
1, 1161050, Note_on_c, 0, 58, 58
1, 1161056, Control_c, 0, 67, 14
1, 1161067, Note_on_c, 0, 66, 0
1, 1161074, Control_c, 0, 67, 26
1, 1161080, Note_on_c, 0, 58, 0
1, 1161084, Note_on_c, 0, 63, 0
1, 1161093, Control_c, 0, 67, 39
1, 1161111, Control_c, 0, 67, 51
1, 1161132, Control_c, 0, 67, 61
1, 1161148, Note_on_c, 0, 81, 65
1, 1161150, Control_c, 0, 67, 69
1, 1161168, Control_c, 0, 67, 77
1, 1161187, Control_c, 0, 67, 86
1, 1161199, Note_on_c, 0, 82, 69
1, 1161204, Control_c, 0, 67, 94
1, 1161223, Control_c, 0, 67, 102
1, 1161242, Control_c, 0, 67, 108
1, 1161243, Note_on_c, 0, 81, 0
1, 1161260, Control_c, 0, 64, 123
1, 1161261, Control_c, 0, 67, 112
1, 1161267, Note_on_c, 0, 84, 64
1, 1161279, Control_c, 0, 64, 96
1, 1161298, Control_c, 0, 64, 65
1, 1161300, Control_c, 0, 67, 121
1, 1161309, Note_on_c, 0, 82, 0
1, 1161315, Control_c, 0, 64, 36
1, 1161316, Control_c, 0, 67, 125
1, 1161337, Control_c, 0, 64, 27
1, 1161342, Note_on_c, 0, 43, 60
1, 1161342, Note_on_c, 0, 85, 90
1, 1161343, Note_on_c, 0, 73, 71
1, 1161344, Note_on_c, 0, 55, 57
1, 1161362, Note_on_c, 0, 84, 0
1, 1161371, Note_on_c, 0, 73, 0
1, 1161371, Control_c, 0, 64, 22
1, 1161374, Note_on_c, 0, 43, 0
1, 1161387, Note_on_c, 0, 85, 0
1, 1161394, Note_on_c, 0, 55, 0
1, 1161408, Control_c, 0, 64, 16
1, 1161641, Note_on_c, 0, 55, 46
1, 1161652, Note_on_c, 0, 61, 54
1, 1161664, Note_on_c, 0, 58, 23
1, 1161694, Note_on_c, 0, 55, 0
1, 1161704, Note_on_c, 0, 58, 0
1, 1161705, Note_on_c, 0, 61, 0
1, 1161733, Note_on_c, 0, 81, 80
1, 1161739, Note_on_c, 0, 69, 71
1, 1161775, Note_on_c, 0, 81, 0
1, 1161779, Note_on_c, 0, 69, 0
1, 1161806, Control_c, 0, 64, 12
1, 1161843, Control_c, 0, 64, 0
1, 1161854, Note_on_c, 0, 58, 54
1, 1161859, Note_on_c, 0, 64, 52
1, 1161861, Note_on_c, 0, 82, 77
1, 1161884, Note_on_c, 0, 70, 61
1, 1161888, Note_on_c, 0, 58, 0
1, 1161893, Note_on_c, 0, 64, 0
1, 1161956, Control_c, 0, 64, 22
1, 1161976, Control_c, 0, 64, 42
1, 1161994, Control_c, 0, 64, 65
1, 1162001, Note_on_c, 0, 70, 0
1, 1162011, Control_c, 0, 64, 86
1, 1162031, Control_c, 0, 64, 107
1, 1162048, Control_c, 0, 64, 124
1, 1162055, Note_on_c, 0, 82, 0
1, 1162096, Note_on_c, 0, 44, 53
1, 1162101, Note_on_c, 0, 56, 64
1, 1162133, Note_on_c, 0, 44, 0
1, 1162143, Note_on_c, 0, 56, 0
1, 1162159, Control_c, 0, 64, 117
1, 1162176, Control_c, 0, 64, 91
1, 1162180, Note_on_c, 0, 85, 87
1, 1162196, Control_c, 0, 64, 64
1, 1162201, Note_on_c, 0, 73, 65
1, 1162206, Note_on_c, 0, 85, 0
1, 1162214, Control_c, 0, 64, 40
1, 1162222, Note_on_c, 0, 73, 0
1, 1162234, Control_c, 0, 64, 30
1, 1162272, Control_c, 0, 64, 26
1, 1162308, Control_c, 0, 64, 22
1, 1162317, Note_on_c, 0, 79, 88
1, 1162320, Note_on_c, 0, 61, 60
1, 1162329, Note_on_c, 0, 67, 70
1, 1162343, Control_c, 0, 64, 17
1, 1162346, Note_on_c, 0, 79, 0
1, 1162349, Note_on_c, 0, 53, 25
1, 1162352, Note_on_c, 0, 67, 0
1, 1162383, Note_on_c, 0, 61, 0
1, 1162401, Note_on_c, 0, 53, 0
1, 1162563, Note_on_c, 0, 56, 61
1, 1162575, Note_on_c, 0, 65, 50
1, 1162598, Note_on_c, 0, 80, 80
1, 1162601, Note_on_c, 0, 56, 0
1, 1162605, Note_on_c, 0, 65, 0
1, 1162612, Note_on_c, 0, 68, 55
1, 1162634, Note_on_c, 0, 80, 0
1, 1162638, Note_on_c, 0, 68, 0
1, 1162762, Control_c, 0, 64, 27
1, 1162779, Control_c, 0, 64, 46
1, 1162798, Control_c, 0, 64, 69
1, 1162817, Control_c, 0, 64, 91
1, 1162819, Note_on_c, 0, 45, 51
1, 1162820, Note_on_c, 0, 57, 52
1, 1162836, Control_c, 0, 64, 116
1, 1162852, Note_on_c, 0, 57, 0
1, 1162853, Control_c, 0, 64, 127
1, 1162856, Note_on_c, 0, 45, 0
1, 1162892, Note_on_c, 0, 89, 80
1, 1162910, Note_on_c, 0, 77, 72
1, 1162919, Note_on_c, 0, 89, 0
1, 1162938, Note_on_c, 0, 77, 0
1, 1162946, Poly_aftertouch_c, 0, 43, 0
1, 1163003, Control_c, 0, 64, 107
1, 1163021, Control_c, 0, 64, 74
1, 1163033, Note_on_c, 0, 60, 56
1, 1163040, Note_on_c, 0, 53, 49
1, 1163040, Control_c, 0, 64, 44
1, 1163045, Note_on_c, 0, 77, 50
1, 1163051, Note_on_c, 0, 76, 70
1, 1163052, Note_on_c, 0, 63, 37
1, 1163054, Note_on_c, 0, 64, 59
1, 1163057, Control_c, 0, 64, 33
1, 1163072, Note_on_c, 0, 77, 0
1, 1163074, Note_on_c, 0, 53, 0
1, 1163074, Note_on_c, 0, 60, 0
1, 1163080, Note_on_c, 0, 76, 0
1, 1163082, Note_on_c, 0, 64, 0
1, 1163091, Note_on_c, 0, 63, 0
1, 1163100, Poly_aftertouch_c, 0, 54, 0
1, 1163217, Note_on_c, 0, 63, 44
1, 1163222, Note_on_c, 0, 60, 33
1, 1163248, Note_on_c, 0, 77, 78
1, 1163252, Note_on_c, 0, 63, 0
1, 1163272, Note_on_c, 0, 60, 0
1, 1163272, Note_on_c, 0, 65, 51
1, 1163285, Note_on_c, 0, 77, 0
1, 1163302, Note_on_c, 0, 65, 0
1, 1163406, Note_on_c, 0, 46, 53
1, 1163410, Control_c, 0, 64, 37
1, 1163429, Control_c, 0, 64, 47
1, 1163445, Control_c, 0, 64, 61
1, 1163465, Control_c, 0, 64, 72
1, 1163482, Control_c, 0, 64, 82
1, 1163485, Note_on_c, 0, 53, 44
1, 1163490, Note_on_c, 0, 82, 30
1, 1163503, Control_c, 0, 64, 98
1, 1163520, Control_c, 0, 64, 121
1, 1163539, Control_c, 0, 64, 127
1, 1163551, Note_on_c, 0, 46, 0
1, 1163553, Note_on_c, 0, 94, 81
1, 1163572, Note_on_c, 0, 61, 48
1, 1163615, Control_c, 0, 67, 121
1, 1163640, Control_c, 0, 67, 116
1, 1163658, Control_c, 0, 67, 111
1, 1163665, Note_on_c, 0, 61, 0
1, 1163671, Note_on_c, 0, 89, 78
1, 1163677, Control_c, 0, 67, 100
1, 1163678, Note_on_c, 0, 82, 0
1, 1163690, Note_on_c, 0, 94, 0
1, 1163696, Control_c, 0, 67, 83
1, 1163705, Note_on_c, 0, 53, 0
1, 1163713, Control_c, 0, 67, 59
1, 1163734, Control_c, 0, 67, 33
1, 1163753, Control_c, 0, 67, 11
1, 1163770, Control_c, 0, 67, 0
1, 1163772, Note_on_c, 0, 85, 81
1, 1163800, Note_on_c, 0, 89, 0
1, 1163851, Note_on_c, 0, 85, 0
1, 1163883, Note_on_c, 0, 82, 78
1, 1163910, Note_on_c, 0, 82, 0
1, 1164014, Note_on_c, 0, 70, 79
1, 1164071, Note_on_c, 0, 70, 0
1, 1164296, Note_on_c, 0, 40, 100
1, 1164301, Poly_aftertouch_c, 0, 78, 0
1, 1164302, Note_on_c, 0, 28, 92
1, 1164307, Note_on_c, 0, 82, 92
1, 1164313, Note_on_c, 0, 70, 95
1, 1164313, Note_on_c, 0, 73, 89
1, 1164321, Note_on_c, 0, 79, 80
1, 1164359, Note_on_c, 0, 28, 0
1, 1164371, Note_on_c, 0, 82, 0
1, 1164373, Note_on_c, 0, 70, 0
1, 1164374, Note_on_c, 0, 73, 0
1, 1164377, Note_on_c, 0, 40, 0
1, 1164380, Control_c, 0, 64, 123
1, 1164395, Note_on_c, 0, 79, 0
1, 1164399, Control_c, 0, 64, 83
1, 1164415, Poly_aftertouch_c, 0, 78, 0
1, 1164420, Control_c, 0, 64, 47
1, 1164438, Control_c, 0, 64, 31
1, 1164674, Note_on_c, 0, 41, 96
1, 1164681, Note_on_c, 0, 29, 87
1, 1164706, Note_on_c, 0, 41, 0
1, 1164719, Note_on_c, 0, 29, 0
1, 1164744, Control_c, 0, 64, 24
1, 1164762, Control_c, 0, 64, 19
1, 1164778, Note_on_c, 0, 43, 102
1, 1164779, Control_c, 0, 64, 10
1, 1164789, Note_on_c, 0, 31, 86
1, 1164796, Note_on_c, 0, 29, 80
1, 1164797, Control_c, 0, 64, 0
1, 1164852, Note_on_c, 0, 29, 0
1, 1164893, Control_c, 0, 64, 29
1, 1164911, Control_c, 0, 64, 51
1, 1164931, Control_c, 0, 64, 76
1, 1164946, Control_c, 0, 64, 104
1, 1164956, Note_on_c, 0, 31, 0
1, 1164964, Control_c, 0, 64, 127
1, 1164972, Note_on_c, 0, 43, 0
1, 1165001, Note_on_c, 0, 80, 88
1, 1165002, Note_on_c, 0, 68, 92
1, 1165010, Note_on_c, 0, 72, 86
1, 1165011, Note_on_c, 0, 77, 81
1, 1165078, Control_c, 0, 64, 117
1, 1165095, Note_on_c, 0, 44, 95
1, 1165097, Note_on_c, 0, 32, 87
1, 1165097, Control_c, 0, 64, 85
1, 1165116, Control_c, 0, 64, 55
1, 1165127, Note_on_c, 0, 44, 0
1, 1165130, Control_c, 0, 64, 35
1, 1165133, Note_on_c, 0, 32, 0
1, 1165169, Control_c, 0, 64, 31
1, 1165220, Note_on_c, 0, 46, 99
1, 1165221, Note_on_c, 0, 72, 0
1, 1165222, Note_on_c, 0, 34, 95
1, 1165224, Note_on_c, 0, 68, 0
1, 1165230, Note_on_c, 0, 80, 0
1, 1165244, Note_on_c, 0, 77, 0
1, 1165251, Note_on_c, 0, 34, 0
1, 1165260, Note_on_c, 0, 46, 0
1, 1165360, Poly_aftertouch_c, 0, 35, 0
1, 1165380, Poly_aftertouch_c, 0, 34, 0
1, 1165480, Note_on_c, 0, 48, 102
1, 1165495, Note_on_c, 0, 36, 92
1, 1165528, Note_on_c, 0, 37, 47
1, 1165531, Note_on_c, 0, 36, 0
1, 1165532, Note_on_c, 0, 48, 0
1, 1165572, Note_on_c, 0, 37, 0
1, 1165741, Note_on_c, 0, 77, 86
1, 1165745, Note_on_c, 0, 65, 88
1, 1165748, Note_on_c, 0, 70, 82
1, 1165750, Note_on_c, 0, 73, 81
1, 1165750, Note_on_c, 0, 49, 100
1, 1165754, Note_on_c, 0, 37, 92
1, 1165790, Note_on_c, 0, 37, 0
1, 1165793, Note_on_c, 0, 49, 0
1, 1165809, Control_c, 0, 64, 27
1, 1165957, Control_c, 0, 64, 23
1, 1165975, Control_c, 0, 64, 19
1, 1165989, Note_on_c, 0, 77, 0
1, 1165995, Control_c, 0, 64, 8
1, 1166001, Note_on_c, 0, 48, 100
1, 1166009, Note_on_c, 0, 65, 0
1, 1166009, Note_on_c, 0, 36, 91
1, 1166013, Control_c, 0, 64, 0
1, 1166040, Note_on_c, 0, 48, 0
1, 1166042, Note_on_c, 0, 36, 0
1, 1166052, Note_on_c, 0, 70, 0
1, 1166053, Note_on_c, 0, 73, 0
1, 1166069, Note_on_c, 0, 37, 11
1, 1166100, Note_on_c, 0, 37, 0
1, 1166267, Note_on_c, 0, 46, 97
1, 1166273, Note_on_c, 0, 34, 93
1, 1166296, Note_on_c, 0, 47, 68
1, 1166297, Note_on_c, 0, 34, 0
1, 1166303, Note_on_c, 0, 46, 0
1, 1166328, Note_on_c, 0, 47, 0
1, 1166480, Poly_aftertouch_c, 0, 34, 0
1, 1166609, Note_on_c, 0, 72, 93
1, 1166609, Note_on_c, 0, 60, 95
1, 1166615, Note_on_c, 0, 53, 110
1, 1166615, Control_c, 0, 64, 35
1, 1166616, Note_on_c, 0, 41, 89
1, 1166621, Note_on_c, 0, 68, 87
1, 1166622, Note_on_c, 0, 65, 88
1, 1166637, Control_c, 0, 64, 69
1, 1166651, Note_on_c, 0, 41, 0
1, 1166653, Control_c, 0, 64, 108
1, 1166671, Control_c, 0, 64, 127
1, 1166676, Note_on_c, 0, 53, 0
1, 1166701, Note_on_c, 0, 60, 0
1, 1166714, Note_on_c, 0, 72, 0
1, 1166768, Poly_aftertouch_c, 0, 48, 0
1, 1166773, Note_on_c, 0, 65, 0
1, 1166796, Note_on_c, 0, 68, 0
1, 1167152, Control_c, 0, 67, 10
1, 1167171, Control_c, 0, 67, 16
1, 1167188, Control_c, 0, 67, 21
1, 1167207, Control_c, 0, 67, 26
1, 1167225, Control_c, 0, 67, 33
1, 1167245, Control_c, 0, 67, 40
1, 1167263, Control_c, 0, 67, 49
1, 1167282, Control_c, 0, 67, 57
1, 1167301, Control_c, 0, 67, 67
1, 1167319, Control_c, 0, 64, 104
1, 1167321, Control_c, 0, 67, 75
1, 1167339, Control_c, 0, 64, 77
1, 1167340, Control_c, 0, 67, 84
1, 1167357, Control_c, 0, 64, 52
1, 1167358, Control_c, 0, 67, 92
1, 1167383, Control_c, 0, 64, 35
1, 1167384, Control_c, 0, 67, 101
1, 1167401, Control_c, 0, 67, 109
1, 1167420, Control_c, 0, 67, 115
1, 1167439, Control_c, 0, 64, 29
1, 1167453, Note_on_c, 0, 71, 80
1, 1167457, Control_c, 0, 67, 120
1, 1167476, Control_c, 0, 64, 23
1, 1167495, Control_c, 0, 67, 126
1, 1167544, Note_on_c, 0, 42, 62
1, 1167594, Note_on_c, 0, 42, 0
1, 1167653, Note_on_c, 0, 40, 68
1, 1167677, Note_on_c, 0, 61, 50
1, 1167681, Control_c, 0, 64, 19
1, 1167682, Control_c, 0, 67, 121
1, 1167689, Note_on_c, 0, 40, 0
1, 1167699, Control_c, 0, 67, 117
1, 1167718, Control_c, 0, 67, 113
1, 1167736, Control_c, 0, 67, 109
1, 1167753, Control_c, 0, 67, 105
1, 1167772, Control_c, 0, 67, 99
1, 1167791, Control_c, 0, 67, 88
1, 1167809, Control_c, 0, 67, 71
1, 1167828, Control_c, 0, 67, 54
1, 1167846, Control_c, 0, 67, 39
1, 1167866, Control_c, 0, 67, 26
1, 1167885, Control_c, 0, 67, 16
1, 1167903, Control_c, 0, 67, 8
1, 1167940, Control_c, 0, 67, 0
1, 1167949, Note_on_c, 0, 41, 46
1, 1167965, Note_on_c, 0, 68, 52
1, 1168068, Note_on_c, 0, 41, 0
1, 1168079, Note_on_c, 0, 61, 0
1, 1168204, Note_on_c, 0, 69, 71
1, 1168211, Note_on_c, 0, 68, 0
1, 1168314, Note_on_c, 0, 44, 57
1, 1168334, Note_on_c, 0, 71, 0
1, 1168354, Note_on_c, 0, 44, 0
1, 1168435, Note_on_c, 0, 41, 51
1, 1168454, Note_on_c, 0, 61, 49
1, 1168470, Note_on_c, 0, 41, 0
1, 1168658, Note_on_c, 0, 61, 0
1, 1168675, Note_on_c, 0, 42, 56
1, 1168708, Note_on_c, 0, 70, 72
1, 1168712, Note_on_c, 0, 66, 37
1, 1168736, Note_on_c, 0, 42, 0
1, 1168773, Note_on_c, 0, 69, 0
1, 1168778, Note_on_c, 0, 66, 0
1, 1168949, Control_c, 0, 67, 8
1, 1168987, Note_on_c, 0, 73, 58
1, 1169042, Control_c, 0, 67, 13
1, 1169059, Control_c, 0, 67, 17
1, 1169062, Note_on_c, 0, 70, 0
1, 1169079, Control_c, 0, 67, 21
1, 1169095, Note_on_c, 0, 46, 52
1, 1169134, Control_c, 0, 67, 25
1, 1169148, Note_on_c, 0, 46, 0
1, 1169210, Note_on_c, 0, 44, 57
1, 1169252, Note_on_c, 0, 44, 0
1, 1169265, Note_on_c, 0, 63, 19
1, 1169367, Control_c, 0, 67, 30
1, 1169385, Control_c, 0, 67, 34
1, 1169403, Control_c, 0, 67, 39
1, 1169428, Note_on_c, 0, 63, 0
1, 1169439, Control_c, 0, 67, 44
1, 1169462, Note_on_c, 0, 45, 50
1, 1169501, Note_on_c, 0, 72, 63
1, 1169508, Note_on_c, 0, 45, 0
1, 1169516, Note_on_c, 0, 65, 32
1, 1169521, Note_on_c, 0, 73, 0
1, 1169673, Note_on_c, 0, 65, 0
1, 1169774, Note_on_c, 0, 75, 60
1, 1169841, Note_on_c, 0, 72, 0
1, 1169863, Note_on_c, 0, 48, 47
1, 1169913, Note_on_c, 0, 48, 0
1, 1169969, Note_on_c, 0, 45, 43
1, 1169979, Control_c, 0, 67, 40
1, 1170009, Note_on_c, 0, 45, 0
1, 1170032, Control_c, 0, 67, 32
1, 1170052, Note_on_c, 0, 65, 17
1, 1170052, Control_c, 0, 67, 24
1, 1170070, Control_c, 0, 67, 12
1, 1170089, Control_c, 0, 67, 0
1, 1170196, Note_on_c, 0, 65, 0
1, 1170208, Control_c, 0, 64, 30
1, 1170226, Control_c, 0, 64, 41
1, 1170246, Control_c, 0, 64, 54
1, 1170265, Control_c, 0, 64, 68
1, 1170283, Control_c, 0, 64, 76
1, 1170300, Control_c, 0, 64, 85
1, 1170309, Note_on_c, 0, 46, 50
1, 1170313, Note_on_c, 0, 70, 40
1, 1170316, Note_on_c, 0, 74, 56
1, 1170320, Control_c, 0, 64, 97
1, 1170334, Note_on_c, 0, 75, 0
1, 1170338, Control_c, 0, 64, 110
1, 1170357, Note_on_c, 0, 46, 0
1, 1170358, Control_c, 0, 64, 118
1, 1170375, Control_c, 0, 64, 124
1, 1170376, Note_on_c, 0, 70, 0
1, 1170378, Note_on_c, 0, 74, 0
1, 1170616, Note_on_c, 0, 80, 93
1, 1170618, Note_on_c, 0, 38, 111
1, 1170618, Note_on_c, 0, 68, 101
1, 1170620, Note_on_c, 0, 26, 92
1, 1170621, Note_on_c, 0, 77, 89
1, 1170621, Note_on_c, 0, 71, 92
1, 1170649, Note_on_c, 0, 27, 72
1, 1170668, Note_on_c, 0, 80, 0
1, 1170672, Control_c, 0, 64, 119
1, 1170675, Note_on_c, 0, 68, 0
1, 1170676, Note_on_c, 0, 38, 0
1, 1170678, Note_on_c, 0, 26, 0
1, 1170685, Note_on_c, 0, 27, 0
1, 1170689, Control_c, 0, 64, 80
1, 1170701, Note_on_c, 0, 71, 0
1, 1170702, Note_on_c, 0, 77, 0
1, 1170709, Control_c, 0, 64, 38
1, 1170728, Control_c, 0, 64, 9
1, 1170971, Note_on_c, 0, 39, 96
1, 1170973, Note_on_c, 0, 27, 98
1, 1170999, Note_on_c, 0, 39, 0
1, 1171003, Note_on_c, 0, 27, 0
1, 1171014, Note_on_c, 0, 40, 48
1, 1171042, Control_c, 0, 64, 0
1, 1171065, Note_on_c, 0, 40, 0
1, 1171073, Note_on_c, 0, 41, 92
1, 1171083, Note_on_c, 0, 29, 93
1, 1171098, Note_on_c, 0, 39, 10
1, 1171099, Note_on_c, 0, 39, 0
1, 1171174, Poly_aftertouch_c, 0, 30, 0
1, 1171181, Poly_aftertouch_c, 0, 27, 0
1, 1171218, Control_c, 0, 64, 36
1, 1171237, Control_c, 0, 64, 68
1, 1171256, Control_c, 0, 64, 110
1, 1171259, Note_on_c, 0, 29, 0
1, 1171265, Note_on_c, 0, 41, 0
1, 1171274, Control_c, 0, 64, 127
1, 1171296, Note_on_c, 0, 78, 87
1, 1171296, Note_on_c, 0, 66, 91
1, 1171299, Note_on_c, 0, 70, 84
1, 1171300, Note_on_c, 0, 75, 82
1, 1171387, Control_c, 0, 64, 110
1, 1171390, Note_on_c, 0, 30, 92
1, 1171391, Note_on_c, 0, 42, 90
1, 1171405, Control_c, 0, 64, 67
1, 1171421, Note_on_c, 0, 30, 0
1, 1171421, Note_on_c, 0, 42, 0
1, 1171422, Control_c, 0, 64, 0
1, 1171429, Note_on_c, 0, 78, 0
1, 1171436, Note_on_c, 0, 66, 0
1, 1171465, Note_on_c, 0, 70, 0
1, 1171469, Note_on_c, 0, 75, 0
1, 1171492, Note_on_c, 0, 44, 105
1, 1171499, Note_on_c, 0, 32, 98
1, 1171546, Note_on_c, 0, 44, 0
1, 1171549, Note_on_c, 0, 32, 0
1, 1171772, Note_on_c, 0, 46, 103
1, 1171778, Note_on_c, 0, 34, 100
1, 1171810, Note_on_c, 0, 34, 0
1, 1171812, Note_on_c, 0, 46, 0
1, 1172031, Note_on_c, 0, 47, 102
1, 1172033, Note_on_c, 0, 63, 91
1, 1172034, Note_on_c, 0, 75, 84
1, 1172047, Note_on_c, 0, 68, 84
1, 1172050, Note_on_c, 0, 35, 89
1, 1172051, Note_on_c, 0, 71, 80
1, 1172072, Note_on_c, 0, 47, 0
1, 1172085, Note_on_c, 0, 35, 0
1, 1172280, Note_on_c, 0, 46, 98
1, 1172284, Note_on_c, 0, 34, 97
1, 1172285, Note_on_c, 0, 63, 0
1, 1172291, Note_on_c, 0, 75, 0
1, 1172305, Note_on_c, 0, 68, 0
1, 1172307, Note_on_c, 0, 46, 0
1, 1172310, Note_on_c, 0, 71, 0
1, 1172320, Note_on_c, 0, 34, 0
1, 1172563, Note_on_c, 0, 44, 101
1, 1172570, Note_on_c, 0, 32, 92
1, 1172592, Note_on_c, 0, 44, 0
1, 1172605, Note_on_c, 0, 32, 0
1, 1172745, Poly_aftertouch_c, 0, 32, 0
1, 1172926, Note_on_c, 0, 70, 91
1, 1172927, Note_on_c, 0, 58, 93
1, 1172932, Note_on_c, 0, 63, 90
1, 1172934, Note_on_c, 0, 66, 85
1, 1172935, Note_on_c, 0, 51, 100
1, 1172938, Note_on_c, 0, 39, 93
1, 1172955, Control_c, 0, 64, 10
1, 1172970, Control_c, 0, 64, 47
1, 1172972, Note_on_c, 0, 39, 0
1, 1172985, Note_on_c, 0, 40, 68
1, 1172993, Note_on_c, 0, 51, 0
1, 1172995, Control_c, 0, 64, 87
1, 1173015, Note_on_c, 0, 40, 0
1, 1173015, Control_c, 0, 64, 127
1, 1173136, Poly_aftertouch_c, 0, 39, 0
1, 1173256, Note_on_c, 0, 66, 0
1, 1173262, Note_on_c, 0, 63, 0
1, 1173306, Note_on_c, 0, 58, 0
1, 1173337, Note_on_c, 0, 70, 0
1, 1173479, Control_c, 0, 67, 8
1, 1173516, Control_c, 0, 67, 13
1, 1173535, Control_c, 0, 67, 18
1, 1173552, Control_c, 0, 67, 25
1, 1173571, Control_c, 0, 67, 30
1, 1173590, Control_c, 0, 67, 34
1, 1173627, Control_c, 0, 67, 41
1, 1173645, Control_c, 0, 67, 46
1, 1173665, Control_c, 0, 64, 116
1, 1173667, Control_c, 0, 67, 50
1, 1173683, Control_c, 0, 64, 91
1, 1173702, Control_c, 0, 64, 65
1, 1173719, Control_c, 0, 64, 44
1, 1173721, Control_c, 0, 67, 54
1, 1173723, Note_on_c, 0, 73, 78
1, 1173737, Control_c, 0, 64, 36
1, 1173792, Control_c, 0, 64, 30
1, 1173800, Note_on_c, 0, 42, 69
1, 1173831, Control_c, 0, 64, 25
1, 1173847, Note_on_c, 0, 42, 0
1, 1173906, Control_c, 0, 64, 21
1, 1173913, Note_on_c, 0, 39, 60
1, 1173953, Note_on_c, 0, 39, 0
1, 1173956, Note_on_c, 0, 61, 53
1, 1174007, Control_c, 0, 64, 17
1, 1174028, Note_on_c, 0, 61, 0
1, 1174191, Note_on_c, 0, 40, 51
1, 1174206, Note_on_c, 0, 66, 45
1, 1174209, Note_on_c, 0, 70, 51
1, 1174230, Note_on_c, 0, 40, 0
1, 1174267, Control_c, 0, 67, 59
1, 1174302, Control_c, 0, 67, 67
1, 1174320, Control_c, 0, 67, 73
1, 1174321, Note_on_c, 0, 66, 0
1, 1174359, Control_c, 0, 64, 13
1, 1174360, Control_c, 0, 67, 77
1, 1174476, Note_on_c, 0, 78, 71
1, 1174541, Note_on_c, 0, 70, 0
1, 1174558, Note_on_c, 0, 40, 57
1, 1174574, Note_on_c, 0, 73, 0
1, 1174593, Note_on_c, 0, 40, 0
1, 1174674, Note_on_c, 0, 38, 58
1, 1174709, Note_on_c, 0, 38, 0
1, 1174729, Control_c, 0, 64, 9
1, 1174730, Note_on_c, 0, 66, 46
1, 1174767, Note_on_c, 0, 66, 0
1, 1174924, Control_c, 0, 64, 0
1, 1174989, Note_on_c, 0, 75, 47
1, 1174993, Note_on_c, 0, 39, 44
1, 1175017, Control_c, 0, 67, 82
1, 1175034, Control_c, 0, 67, 87
1, 1175037, Note_on_c, 0, 71, 26
1, 1175041, Note_on_c, 0, 39, 0
1, 1175052, Control_c, 0, 67, 92
1, 1175072, Control_c, 0, 67, 97
1, 1175092, Control_c, 0, 64, 21
1, 1175109, Control_c, 0, 64, 32
1, 1175110, Control_c, 0, 67, 103
1, 1175128, Control_c, 0, 64, 41
1, 1175129, Control_c, 0, 67, 108
1, 1175135, Note_on_c, 0, 71, 0
1, 1175135, Note_on_c, 0, 75, 0
1, 1175147, Control_c, 0, 64, 51
1, 1175149, Control_c, 0, 67, 112
1, 1175165, Control_c, 0, 64, 65
1, 1175165, Control_c, 0, 67, 116
1, 1175184, Control_c, 0, 64, 68
1, 1175203, Control_c, 0, 67, 123
1, 1175221, Control_c, 0, 64, 70
1, 1175222, Control_c, 0, 67, 127
1, 1175238, Control_c, 0, 64, 72
1, 1175266, Note_on_c, 0, 73, 59
1, 1175324, Note_on_c, 0, 78, 0
1, 1175331, Control_c, 0, 64, 70
1, 1175349, Control_c, 0, 64, 67
1, 1175355, Note_on_c, 0, 42, 53
1, 1175369, Control_c, 0, 64, 64
1, 1175387, Control_c, 0, 64, 60
1, 1175393, Note_on_c, 0, 42, 0
1, 1175407, Control_c, 0, 64, 57
1, 1175423, Control_c, 0, 64, 53
1, 1175442, Control_c, 0, 64, 48
1, 1175458, Note_on_c, 0, 39, 51
1, 1175459, Control_c, 0, 64, 41
1, 1175479, Control_c, 0, 64, 36
1, 1175494, Note_on_c, 0, 39, 0
1, 1175544, Note_on_c, 0, 61, 36
1, 1175573, Control_c, 0, 64, 32
1, 1175604, Note_on_c, 0, 61, 0
1, 1175721, Control_c, 0, 64, 28
1, 1175756, Note_on_c, 0, 40, 46
1, 1175781, Note_on_c, 0, 66, 47
1, 1175816, Note_on_c, 0, 70, 43
1, 1175819, Note_on_c, 0, 40, 0
1, 1175904, Note_on_c, 0, 66, 0
1, 1176086, Note_on_c, 0, 78, 59
1, 1176107, Note_on_c, 0, 70, 0
1, 1176174, Control_c, 0, 64, 24
1, 1176179, Note_on_c, 0, 73, 0
1, 1176196, Note_on_c, 0, 40, 40
1, 1176241, Note_on_c, 0, 40, 0
1, 1176267, Control_c, 0, 64, 20
1, 1176320, Note_on_c, 0, 38, 51
1, 1176323, Control_c, 0, 64, 15
1, 1176349, Note_on_c, 0, 66, 40
1, 1176354, Note_on_c, 0, 38, 0
1, 1176378, Control_c, 0, 64, 8
1, 1176396, Control_c, 0, 64, 0
1, 1176401, Note_on_c, 0, 66, 0
1, 1176600, Control_c, 0, 64, 32
1, 1176619, Control_c, 0, 64, 56
1, 1176638, Control_c, 0, 64, 75
1, 1176656, Control_c, 0, 64, 83
1, 1176663, Note_on_c, 0, 75, 45
1, 1176675, Control_c, 0, 64, 92
1, 1176693, Control_c, 0, 64, 102
1, 1176700, Note_on_c, 0, 71, 41
1, 1176707, Note_on_c, 0, 39, 37
1, 1176712, Control_c, 0, 64, 112
1, 1176738, Control_c, 0, 64, 119
1, 1176754, Note_on_c, 0, 78, 0
1, 1176775, Control_c, 0, 64, 126
1, 1176781, Note_on_c, 0, 75, 0
1, 1176795, Note_on_c, 0, 71, 0
1, 1176975, Note_on_c, 0, 39, 0
1, 1177033, Note_on_c, 0, 61, 70
1, 1177146, Note_on_c, 0, 42, 55
1, 1177148, Control_c, 0, 64, 117
1, 1177166, Control_c, 0, 64, 101
1, 1177180, Note_on_c, 0, 42, 0
1, 1177183, Control_c, 0, 64, 82
1, 1177203, Control_c, 0, 64, 64
1, 1177222, Control_c, 0, 64, 54
1, 1177238, Control_c, 0, 64, 52
1, 1177252, Note_on_c, 0, 39, 55
1, 1177255, Control_c, 0, 67, 120
1, 1177267, Note_on_c, 0, 54, 53
1, 1177274, Control_c, 0, 64, 49
1, 1177276, Control_c, 0, 67, 113
1, 1177286, Note_on_c, 0, 39, 0
1, 1177293, Control_c, 0, 64, 47
1, 1177294, Control_c, 0, 67, 102
1, 1177314, Control_c, 0, 64, 44
1, 1177315, Control_c, 0, 67, 87
1, 1177331, Control_c, 0, 67, 71
1, 1177351, Control_c, 0, 67, 54
1, 1177371, Control_c, 0, 67, 39
1, 1177388, Control_c, 0, 67, 26
1, 1177406, Control_c, 0, 67, 18
1, 1177425, Control_c, 0, 67, 14
1, 1177463, Control_c, 0, 67, 10
1, 1177511, Note_on_c, 0, 54, 0
1, 1177533, Note_on_c, 0, 58, 37
1, 1177540, Note_on_c, 0, 40, 39
1, 1177617, Note_on_c, 0, 40, 0
1, 1177823, Note_on_c, 0, 66, 59
1, 1177919, Note_on_c, 0, 58, 0
1, 1177919, Note_on_c, 0, 40, 49
1, 1177953, Control_c, 0, 67, 16
1, 1177958, Note_on_c, 0, 40, 0
1, 1177965, Note_on_c, 0, 61, 0
1, 1177970, Control_c, 0, 67, 21
1, 1177990, Control_c, 0, 67, 27
1, 1178009, Control_c, 0, 67, 34
1, 1178026, Note_on_c, 0, 38, 63
1, 1178028, Control_c, 0, 67, 47
1, 1178046, Control_c, 0, 67, 67
1, 1178056, Note_on_c, 0, 54, 41
1, 1178058, Note_on_c, 0, 38, 0
1, 1178063, Control_c, 0, 67, 86
1, 1178082, Control_c, 0, 67, 100
1, 1178100, Control_c, 0, 67, 107
1, 1178119, Control_c, 0, 67, 111
1, 1178138, Control_c, 0, 67, 117
1, 1178157, Control_c, 0, 67, 122
1, 1178174, Control_c, 0, 67, 127
1, 1178297, Note_on_c, 0, 39, 48
1, 1178324, Note_on_c, 0, 58, 42
1, 1178344, Note_on_c, 0, 60, 38
1, 1178385, Note_on_c, 0, 39, 0
1, 1178401, Note_on_c, 0, 66, 0
1, 1178437, Note_on_c, 0, 54, 0
1, 1178580, Note_on_c, 0, 65, 59
1, 1178638, Note_on_c, 0, 58, 0
1, 1178649, Note_on_c, 0, 42, 40
1, 1178651, Note_on_c, 0, 60, 0
1, 1178694, Note_on_c, 0, 42, 0
1, 1178706, Poly_aftertouch_c, 0, 62, 0
1, 1178786, Note_on_c, 0, 40, 52
1, 1178821, Note_on_c, 0, 51, 47
1, 1178832, Control_c, 0, 64, 41
1, 1178847, Note_on_c, 0, 40, 0
1, 1178871, Control_c, 0, 64, 35
1, 1178889, Control_c, 0, 64, 28
1, 1178907, Control_c, 0, 64, 17
1, 1178917, Note_on_c, 0, 51, 0
1, 1178944, Control_c, 0, 64, 0
1, 1179037, Control_c, 0, 64, 10
1, 1179049, Note_on_c, 0, 41, 30
1, 1179055, Control_c, 0, 64, 34
1, 1179068, Note_on_c, 0, 60, 39
1, 1179073, Control_c, 0, 64, 55
1, 1179093, Control_c, 0, 64, 79
1, 1179096, Note_on_c, 0, 41, 0
1, 1179109, Note_on_c, 0, 60, 0
1, 1179110, Note_on_c, 0, 65, 0
1, 1179111, Control_c, 0, 64, 94
1, 1179130, Control_c, 0, 64, 111
1, 1179144, Poly_aftertouch_c, 0, 57, 0
1, 1179149, Control_c, 0, 64, 122
1, 1179165, Control_c, 0, 64, 127
1, 1179325, Note_on_c, 0, 34, 41
1, 1179364, Note_on_c, 0, 46, 37
1, 1179418, Note_on_c, 0, 94, 59
1, 1179463, Control_c, 0, 64, 112
1, 1179482, Control_c, 0, 64, 80
1, 1179500, Control_c, 0, 64, 53
1, 1179520, Control_c, 0, 64, 51
1, 1179541, Note_on_c, 0, 94, 0
1, 1179544, Control_c, 0, 64, 61
1, 1179557, Note_on_c, 0, 89, 59
1, 1179564, Control_c, 0, 64, 73
1, 1179583, Control_c, 0, 64, 87
1, 1179603, Control_c, 0, 64, 109
1, 1179620, Control_c, 0, 64, 127
1, 1179644, Note_on_c, 0, 89, 0
1, 1179663, Note_on_c, 0, 85, 59
1, 1179699, Note_on_c, 0, 46, 0
1, 1179707, Note_on_c, 0, 85, 0
1, 1179764, Note_on_c, 0, 82, 59
1, 1179793, Note_on_c, 0, 82, 0
1, 1179816, Note_on_c, 0, 34, 0
1, 1179931, Note_on_c, 0, 70, 52
1, 1180007, Note_on_c, 0, 70, 0
1, 1180085, Control_c, 0, 67, 121
1, 1180120, Control_c, 0, 67, 114
1, 1180140, Control_c, 0, 67, 109
1, 1180157, Control_c, 0, 67, 101
1, 1180176, Control_c, 0, 67, 88
1, 1180196, Control_c, 0, 67, 71
1, 1180214, Control_c, 0, 67, 53
1, 1180225, Note_on_c, 0, 46, 51
1, 1180231, Control_c, 0, 67, 33
1, 1180242, Note_on_c, 0, 34, 50
1, 1180250, Control_c, 0, 67, 16
1, 1180286, Control_c, 0, 67, 0
1, 1180525, Note_on_c, 0, 46, 0
1, 1180525, Note_on_c, 0, 34, 0
1, 1180737, Note_on_c, 0, 47, 53
1, 1180743, Note_on_c, 0, 35, 47
1, 1180889, Control_c, 0, 64, 113
1, 1180907, Control_c, 0, 64, 87
1, 1180927, Control_c, 0, 64, 57
1, 1180945, Control_c, 0, 64, 31
1, 1180963, Control_c, 0, 64, 23
1, 1180986, Note_on_c, 0, 92, 72
1, 1181037, Control_c, 0, 64, 36
1, 1181057, Control_c, 0, 64, 55
1, 1181074, Control_c, 0, 64, 75
1, 1181089, Note_on_c, 0, 87, 66
1, 1181092, Control_c, 0, 64, 93
1, 1181112, Control_c, 0, 64, 112
1, 1181131, Control_c, 0, 64, 125
1, 1181139, Note_on_c, 0, 92, 0
1, 1181210, Note_on_c, 0, 83, 63
1, 1181225, Note_on_c, 0, 87, 0
1, 1181284, Note_on_c, 0, 83, 0
1, 1181314, Note_on_c, 0, 80, 78
1, 1181372, Note_on_c, 0, 80, 0
1, 1181428, Note_on_c, 0, 47, 0
1, 1181464, Note_on_c, 0, 35, 0
1, 1181483, Note_on_c, 0, 68, 73
1, 1181521, Note_on_c, 0, 68, 0
1, 1181747, Note_on_c, 0, 47, 64
1, 1181750, Note_on_c, 0, 35, 64
1, 1181999, Note_on_c, 0, 47, 0
1, 1182195, Note_on_c, 0, 36, 62
1, 1182210, Note_on_c, 0, 48, 78
1, 1182242, Note_on_c, 0, 35, 0
1, 1182458, Note_on_c, 0, 90, 78
1, 1182463, Control_c, 0, 64, 100
1, 1182484, Control_c, 0, 64, 58
1, 1182502, Control_c, 0, 64, 0
1, 1182575, Note_on_c, 0, 87, 73
1, 1182595, Note_on_c, 0, 90, 0
1, 1182612, Control_c, 0, 64, 45
1, 1182631, Control_c, 0, 64, 79
1, 1182650, Control_c, 0, 64, 105
1, 1182667, Control_c, 0, 64, 127
1, 1182674, Note_on_c, 0, 80, 75
1, 1182688, Note_on_c, 0, 87, 0
1, 1182756, Note_on_c, 0, 80, 0
1, 1182775, Note_on_c, 0, 78, 80
1, 1182828, Note_on_c, 0, 78, 0
1, 1182942, Note_on_c, 0, 66, 58
1, 1182950, Note_on_c, 0, 48, 0
1, 1182976, Note_on_c, 0, 66, 0
1, 1183049, Note_on_c, 0, 36, 0
1, 1183263, Note_on_c, 0, 36, 46
1, 1183267, Note_on_c, 0, 48, 51
1, 1183470, Note_on_c, 0, 48, 0
1, 1183774, Note_on_c, 0, 49, 50
1, 1183794, Note_on_c, 0, 37, 51
1, 1183865, Note_on_c, 0, 36, 0
1, 1183900, Control_c, 0, 67, 8
1, 1183937, Control_c, 0, 67, 14
1, 1183955, Control_c, 0, 64, 119
1, 1183957, Control_c, 0, 67, 25
1, 1183976, Control_c, 0, 64, 90
1, 1183977, Control_c, 0, 67, 42
1, 1183994, Control_c, 0, 64, 57
1, 1183996, Control_c, 0, 67, 57
1, 1184013, Control_c, 0, 64, 26
1, 1184013, Control_c, 0, 67, 67
1, 1184028, Control_c, 0, 64, 20
1, 1184030, Control_c, 0, 67, 77
1, 1184047, Control_c, 0, 67, 87
1, 1184066, Control_c, 0, 67, 98
1, 1184082, Note_on_c, 0, 89, 64
1, 1184084, Control_c, 0, 64, 30
1, 1184086, Control_c, 0, 67, 107
1, 1184103, Control_c, 0, 64, 51
1, 1184106, Control_c, 0, 67, 112
1, 1184123, Control_c, 0, 64, 75
1, 1184141, Control_c, 0, 64, 98
1, 1184160, Control_c, 0, 64, 123
1, 1184162, Control_c, 0, 67, 116
1, 1184167, Note_on_c, 0, 37, 0
1, 1184178, Note_on_c, 0, 89, 0
1, 1184178, Control_c, 0, 64, 127
1, 1184200, Note_on_c, 0, 85, 63
1, 1184297, Note_on_c, 0, 49, 0
1, 1184310, Note_on_c, 0, 85, 0
1, 1184324, Note_on_c, 0, 80, 59
1, 1184394, Note_on_c, 0, 80, 0
1, 1184464, Note_on_c, 0, 77, 51
1, 1184502, Note_on_c, 0, 77, 0
1, 1184537, Note_on_c, 0, 53, 52
1, 1184539, Control_c, 0, 67, 111
1, 1184545, Note_on_c, 0, 41, 51
1, 1184560, Note_on_c, 0, 73, 61
1, 1184583, Note_on_c, 0, 73, 0
1, 1184590, Note_on_c, 0, 53, 0
1, 1184613, Control_c, 0, 67, 106
1, 1184687, Control_c, 0, 67, 101
1, 1184700, Note_on_c, 0, 41, 0
1, 1184725, Control_c, 0, 67, 94
1, 1184744, Control_c, 0, 67, 86
1, 1184763, Control_c, 0, 67, 78
1, 1184778, Control_c, 0, 67, 68
1, 1184798, Control_c, 0, 67, 57
1, 1184817, Control_c, 0, 67, 43
1, 1184820, Note_on_c, 0, 87, 72
1, 1184825, Note_on_c, 0, 56, 50
1, 1184833, Note_on_c, 0, 44, 54
1, 1184834, Control_c, 0, 67, 28
1, 1184854, Control_c, 0, 64, 114
1, 1184856, Control_c, 0, 67, 12
1, 1184874, Control_c, 0, 64, 77
1, 1184876, Control_c, 0, 67, 0
1, 1184891, Control_c, 0, 64, 42
1, 1184910, Control_c, 0, 64, 32
1, 1184949, Control_c, 0, 64, 39
1, 1184956, Note_on_c, 0, 84, 59
1, 1184964, Control_c, 0, 64, 59
1, 1184977, Note_on_c, 0, 87, 0
1, 1184983, Control_c, 0, 64, 79
1, 1185002, Control_c, 0, 64, 103
1, 1185020, Control_c, 0, 64, 127
1, 1185062, Note_on_c, 0, 80, 64
1, 1185065, Note_on_c, 0, 84, 0
1, 1185089, Note_on_c, 0, 44, 0
1, 1185109, Note_on_c, 0, 56, 0
1, 1185135, Note_on_c, 0, 80, 0
1, 1185187, Note_on_c, 0, 75, 60
1, 1185223, Note_on_c, 0, 75, 0
1, 1185302, Note_on_c, 0, 72, 60
1, 1185306, Note_on_c, 0, 60, 59
1, 1185315, Note_on_c, 0, 48, 49
1, 1185326, Note_on_c, 0, 72, 0
1, 1185335, Note_on_c, 0, 60, 0
1, 1185355, Note_on_c, 0, 48, 0
1, 1185589, Note_on_c, 0, 90, 80
1, 1185603, Note_on_c, 0, 39, 51
1, 1185604, Note_on_c, 0, 51, 50
1, 1185642, Control_c, 0, 64, 115
1, 1185660, Control_c, 0, 64, 78
1, 1185680, Control_c, 0, 64, 41
1, 1185698, Control_c, 0, 64, 28
1, 1185713, Note_on_c, 0, 87, 73
1, 1185734, Control_c, 0, 64, 33
1, 1185752, Control_c, 0, 64, 52
1, 1185755, Note_on_c, 0, 90, 0
1, 1185771, Control_c, 0, 64, 71
1, 1185789, Control_c, 0, 64, 91
1, 1185809, Control_c, 0, 64, 122
1, 1185827, Control_c, 0, 64, 127
1, 1185832, Note_on_c, 0, 82, 65
1, 1185860, Note_on_c, 0, 87, 0
1, 1185885, Note_on_c, 0, 51, 0
1, 1185911, Note_on_c, 0, 39, 0
1, 1185914, Note_on_c, 0, 82, 0
1, 1185939, Note_on_c, 0, 78, 68
1, 1186040, Note_on_c, 0, 78, 0
1, 1186050, Note_on_c, 0, 75, 71
1, 1186063, Note_on_c, 0, 42, 60
1, 1186073, Note_on_c, 0, 54, 59
1, 1186093, Note_on_c, 0, 75, 0
1, 1186132, Note_on_c, 0, 42, 0
1, 1186140, Note_on_c, 0, 54, 0
1, 1186315, Note_on_c, 0, 44, 58
1, 1186316, Control_c, 0, 64, 113
1, 1186320, Note_on_c, 0, 87, 69
1, 1186323, Note_on_c, 0, 56, 52
1, 1186336, Control_c, 0, 64, 74
1, 1186354, Control_c, 0, 64, 31
1, 1186392, Control_c, 0, 64, 0
1, 1186448, Control_c, 0, 64, 26
1, 1186467, Control_c, 0, 64, 54
1, 1186477, Note_on_c, 0, 83, 61
1, 1186485, Control_c, 0, 64, 78
1, 1186486, Note_on_c, 0, 87, 0
1, 1186502, Control_c, 0, 64, 101
1, 1186521, Control_c, 0, 64, 127
1, 1186546, Note_on_c, 0, 44, 0
1, 1186583, Note_on_c, 0, 83, 0
1, 1186591, Note_on_c, 0, 56, 0
1, 1186595, Note_on_c, 0, 80, 58
1, 1186640, Note_on_c, 0, 80, 0
1, 1186691, Note_on_c, 0, 75, 65
1, 1186723, Note_on_c, 0, 75, 0
1, 1186792, Note_on_c, 0, 59, 51
1, 1186795, Note_on_c, 0, 47, 37
1, 1186838, Note_on_c, 0, 47, 0
1, 1186839, Note_on_c, 0, 59, 0
1, 1186839, Note_on_c, 0, 71, 24
1, 1186892, Note_on_c, 0, 71, 0
1, 1187087, Note_on_c, 0, 40, 59
1, 1187098, Note_on_c, 0, 52, 63
1, 1187104, Control_c, 0, 64, 104
1, 1187122, Note_on_c, 0, 92, 81
1, 1187124, Control_c, 0, 64, 60
1, 1187142, Control_c, 0, 64, 0
1, 1187216, Control_c, 0, 64, 17
1, 1187233, Control_c, 0, 64, 44
1, 1187240, Note_on_c, 0, 88, 71
1, 1187252, Control_c, 0, 64, 73
1, 1187272, Control_c, 0, 64, 100
1, 1187277, Note_on_c, 0, 40, 0
1, 1187290, Control_c, 0, 64, 127
1, 1187294, Note_on_c, 0, 92, 0
1, 1187349, Note_on_c, 0, 83, 75
1, 1187355, Note_on_c, 0, 52, 0
1, 1187392, Note_on_c, 0, 88, 0
1, 1187457, Note_on_c, 0, 83, 0
1, 1187462, Note_on_c, 0, 80, 80
1, 1187515, Note_on_c, 0, 80, 0
1, 1187553, Note_on_c, 0, 44, 58
1, 1187560, Note_on_c, 0, 56, 70
1, 1187575, Note_on_c, 0, 76, 77
1, 1187602, Note_on_c, 0, 76, 0
1, 1187625, Note_on_c, 0, 44, 0
1, 1187658, Note_on_c, 0, 56, 0
1, 1187826, Control_c, 0, 64, 120
1, 1187827, Note_on_c, 0, 47, 70
1, 1187836, Note_on_c, 0, 59, 66
1, 1187845, Control_c, 0, 64, 78
1, 1187848, Note_on_c, 0, 90, 82
1, 1187864, Control_c, 0, 64, 29
1, 1187883, Control_c, 0, 64, 0
1, 1187940, Control_c, 0, 64, 12
1, 1187964, Control_c, 0, 64, 43
1, 1187966, Note_on_c, 0, 87, 67
1, 1187984, Control_c, 0, 64, 68
1, 1188005, Control_c, 0, 64, 93
1, 1188016, Note_on_c, 0, 90, 0
1, 1188021, Control_c, 0, 64, 123
1, 1188040, Control_c, 0, 64, 127
1, 1188062, Note_on_c, 0, 83, 70
1, 1188076, Note_on_c, 0, 47, 0
1, 1188093, Note_on_c, 0, 87, 0
1, 1188108, Note_on_c, 0, 59, 0
1, 1188142, Note_on_c, 0, 83, 0
1, 1188155, Note_on_c, 0, 78, 80
1, 1188276, Note_on_c, 0, 63, 81
1, 1188279, Note_on_c, 0, 75, 75
1, 1188284, Note_on_c, 0, 51, 71
1, 1188320, Note_on_c, 0, 75, 0
1, 1188327, Note_on_c, 0, 63, 0
1, 1188336, Note_on_c, 0, 78, 0
1, 1188354, Note_on_c, 0, 51, 0
1, 1188531, Note_on_c, 0, 42, 70
1, 1188539, Control_c, 0, 64, 103
1, 1188550, Note_on_c, 0, 54, 56
1, 1188559, Control_c, 0, 64, 62
1, 1188577, Note_on_c, 0, 93, 85
1, 1188578, Control_c, 0, 64, 0
1, 1188650, Control_c, 0, 64, 35
1, 1188669, Control_c, 0, 64, 61
1, 1188689, Control_c, 0, 64, 89
1, 1188698, Note_on_c, 0, 90, 73
1, 1188699, Note_on_c, 0, 93, 0
1, 1188708, Control_c, 0, 64, 117
1, 1188725, Control_c, 0, 64, 127
1, 1188776, Note_on_c, 0, 90, 0
1, 1188799, Note_on_c, 0, 54, 0
1, 1188803, Note_on_c, 0, 85, 70
1, 1188851, Note_on_c, 0, 42, 0
1, 1188856, Note_on_c, 0, 85, 0
1, 1188875, Control_c, 0, 67, 8
1, 1188920, Note_on_c, 0, 81, 62
1, 1188939, Control_c, 0, 67, 12
1, 1188956, Control_c, 0, 67, 17
1, 1188976, Control_c, 0, 67, 24
1, 1188996, Control_c, 0, 67, 30
1, 1189012, Note_on_c, 0, 45, 68
1, 1189015, Note_on_c, 0, 81, 0
1, 1189015, Control_c, 0, 67, 36
1, 1189017, Note_on_c, 0, 57, 59
1, 1189017, Note_on_c, 0, 78, 75
1, 1189031, Control_c, 0, 67, 40
1, 1189050, Control_c, 0, 67, 45
1, 1189058, Note_on_c, 0, 78, 0
1, 1189069, Control_c, 0, 67, 51
1, 1189086, Note_on_c, 0, 57, 0
1, 1189088, Control_c, 0, 67, 59
1, 1189091, Note_on_c, 0, 45, 0
1, 1189106, Control_c, 0, 67, 66
1, 1189125, Control_c, 0, 67, 71
1, 1189145, Control_c, 0, 67, 77
1, 1189162, Control_c, 0, 67, 83
1, 1189181, Control_c, 0, 67, 90
1, 1189200, Control_c, 0, 67, 96
1, 1189216, Control_c, 0, 67, 102
1, 1189235, Control_c, 0, 64, 104
1, 1189236, Control_c, 0, 67, 108
1, 1189255, Control_c, 0, 64, 67
1, 1189258, Control_c, 0, 67, 113
1, 1189274, Control_c, 0, 64, 8
1, 1189275, Control_c, 0, 67, 117
1, 1189284, Note_on_c, 0, 59, 48
1, 1189286, Note_on_c, 0, 47, 52
1, 1189292, Control_c, 0, 64, 0
1, 1189293, Control_c, 0, 67, 121
1, 1189296, Note_on_c, 0, 90, 72
1, 1189310, Control_c, 0, 67, 125
1, 1189366, Control_c, 0, 64, 24
1, 1189385, Control_c, 0, 64, 46
1, 1189402, Control_c, 0, 64, 69
1, 1189404, Note_on_c, 0, 86, 62
1, 1189421, Control_c, 0, 64, 88
1, 1189427, Note_on_c, 0, 90, 0
1, 1189439, Control_c, 0, 64, 108
1, 1189458, Control_c, 0, 64, 126
1, 1189501, Note_on_c, 0, 47, 0
1, 1189512, Note_on_c, 0, 83, 64
1, 1189527, Note_on_c, 0, 86, 0
1, 1189542, Note_on_c, 0, 59, 0
1, 1189580, Note_on_c, 0, 83, 0
1, 1189625, Note_on_c, 0, 78, 68
1, 1189655, Note_on_c, 0, 78, 0
1, 1189721, Note_on_c, 0, 62, 55
1, 1189731, Note_on_c, 0, 50, 38
1, 1189732, Note_on_c, 0, 74, 65
1, 1189755, Note_on_c, 0, 62, 0
1, 1189764, Note_on_c, 0, 74, 0
1, 1189772, Note_on_c, 0, 50, 0
1, 1190024, Control_c, 0, 64, 86
1, 1190024, Note_on_c, 0, 55, 48
1, 1190036, Note_on_c, 0, 43, 38
1, 1190041, Control_c, 0, 64, 41
1, 1190043, Control_c, 0, 67, 119
1, 1190045, Note_on_c, 0, 95, 67
1, 1190062, Control_c, 0, 64, 0
1, 1190079, Control_c, 0, 67, 112
1, 1190097, Control_c, 0, 67, 108
1, 1190117, Control_c, 0, 67, 102
1, 1190136, Control_c, 0, 64, 19
1, 1190137, Control_c, 0, 67, 91
1, 1190144, Note_on_c, 0, 95, 0
1, 1190153, Control_c, 0, 64, 42
1, 1190154, Control_c, 0, 67, 72
1, 1190170, Control_c, 0, 64, 62
1, 1190171, Control_c, 0, 67, 50
1, 1190183, Note_on_c, 0, 89, 51
1, 1190190, Control_c, 0, 64, 78
1, 1190191, Control_c, 0, 67, 27
1, 1190210, Control_c, 0, 64, 91
1, 1190214, Control_c, 0, 67, 9
1, 1190227, Control_c, 0, 64, 105
1, 1190227, Control_c, 0, 67, 0
1, 1190245, Control_c, 0, 64, 119
1, 1190262, Note_on_c, 0, 89, 0
1, 1190263, Control_c, 0, 64, 127
1, 1190279, Note_on_c, 0, 55, 0
1, 1190284, Note_on_c, 0, 86, 53
1, 1190300, Note_on_c, 0, 43, 0
1, 1190333, Note_on_c, 0, 86, 0
1, 1190393, Note_on_c, 0, 83, 48
1, 1190424, Note_on_c, 0, 83, 0
1, 1190489, Note_on_c, 0, 77, 58
1, 1190498, Note_on_c, 0, 59, 61
1, 1190502, Note_on_c, 0, 47, 60
1, 1190511, Note_on_c, 0, 77, 0
1, 1190540, Note_on_c, 0, 59, 0
1, 1190571, Note_on_c, 0, 47, 0
1, 1190579, Control_c, 0, 64, 123
1, 1190597, Control_c, 0, 64, 83
1, 1190617, Control_c, 0, 64, 38
1, 1190635, Control_c, 0, 64, 0
1, 1190769, Note_on_c, 0, 43, 62
1, 1190773, Note_on_c, 0, 96, 82
1, 1190778, Note_on_c, 0, 55, 63
1, 1190811, Control_c, 0, 64, 24
1, 1190830, Control_c, 0, 64, 43
1, 1190848, Control_c, 0, 64, 63
1, 1190867, Control_c, 0, 64, 81
1, 1190885, Control_c, 0, 64, 98
1, 1190890, Note_on_c, 0, 91, 76
1, 1190903, Control_c, 0, 64, 117
1, 1190907, Note_on_c, 0, 96, 0
1, 1190921, Control_c, 0, 64, 127
1, 1190984, Note_on_c, 0, 43, 0
1, 1191004, Note_on_c, 0, 88, 80
1, 1191013, Note_on_c, 0, 55, 0
1, 1191014, Note_on_c, 0, 91, 0
1, 1191075, Note_on_c, 0, 88, 0
1, 1191117, Note_on_c, 0, 84, 77
1, 1191165, Note_on_c, 0, 84, 0
1, 1191223, Note_on_c, 0, 60, 79
1, 1191228, Note_on_c, 0, 76, 74
1, 1191233, Note_on_c, 0, 48, 68
1, 1191255, Note_on_c, 0, 60, 0
1, 1191256, Note_on_c, 0, 76, 0
1, 1191318, Poly_aftertouch_c, 0, 51, 0
1, 1191449, Note_on_c, 0, 43, 79
1, 1191457, Note_on_c, 0, 48, 0
1, 1191457, Control_c, 0, 64, 84
1, 1191477, Control_c, 0, 64, 26
1, 1191491, Note_on_c, 0, 55, 86
1, 1191496, Control_c, 0, 64, 0
1, 1191500, Note_on_c, 0, 97, 96
1, 1191556, Poly_aftertouch_c, 0, 87, 0
1, 1191589, Control_c, 0, 64, 40
1, 1191604, Note_on_c, 0, 94, 86
1, 1191608, Control_c, 0, 64, 70
1, 1191626, Control_c, 0, 64, 95
1, 1191643, Note_on_c, 0, 43, 0
1, 1191643, Control_c, 0, 64, 122
1, 1191659, Note_on_c, 0, 97, 0
1, 1191662, Control_c, 0, 64, 127
1, 1191708, Note_on_c, 0, 87, 83
1, 1191745, Note_on_c, 0, 55, 0
1, 1191751, Note_on_c, 0, 94, 0
1, 1191759, Poly_aftertouch_c, 0, 92, 0
1, 1191805, Note_on_c, 0, 87, 0
1, 1191814, Note_on_c, 0, 85, 87
1, 1191859, Note_on_c, 0, 85, 0
1, 1191935, Note_on_c, 0, 49, 72
1, 1191939, Note_on_c, 0, 75, 81
1, 1191940, Note_on_c, 0, 61, 87
1, 1191987, Note_on_c, 0, 75, 0
1, 1191993, Note_on_c, 0, 61, 0
1, 1191997, Note_on_c, 0, 49, 0
1, 1192171, Note_on_c, 0, 43, 84
1, 1192174, Control_c, 0, 64, 115
1, 1192177, Note_on_c, 0, 55, 98
1, 1192191, Control_c, 0, 64, 65
1, 1192198, Note_on_c, 0, 98, 94
1, 1192209, Control_c, 0, 64, 0
1, 1192283, Control_c, 0, 64, 39
1, 1192286, Note_on_c, 0, 43, 0
1, 1192302, Note_on_c, 0, 95, 89
1, 1192302, Control_c, 0, 64, 76
1, 1192317, Note_on_c, 0, 55, 0
1, 1192320, Control_c, 0, 64, 108
1, 1192336, Note_on_c, 0, 98, 0
1, 1192339, Control_c, 0, 64, 127
1, 1192407, Note_on_c, 0, 89, 85
1, 1192442, Note_on_c, 0, 95, 0
1, 1192483, Note_on_c, 0, 89, 0
1, 1192507, Note_on_c, 0, 86, 86
1, 1192557, Note_on_c, 0, 86, 0
1, 1192617, Note_on_c, 0, 62, 90
1, 1192622, Note_on_c, 0, 50, 78
1, 1192627, Note_on_c, 0, 74, 77
1, 1192659, Note_on_c, 0, 62, 0
1, 1192661, Note_on_c, 0, 50, 0
1, 1192670, Note_on_c, 0, 74, 0
1, 1192803, Poly_aftertouch_c, 0, 50, 0
1, 1192822, Note_on_c, 0, 51, 34
1, 1192831, Control_c, 0, 64, 87
1, 1192848, Control_c, 0, 64, 8
1, 1192854, Poly_aftertouch_c, 0, 46, 0
1, 1192863, Note_on_c, 0, 51, 0
1, 1192866, Control_c, 0, 64, 0
1, 1192875, Note_on_c, 0, 43, 89
1, 1192875, Note_on_c, 0, 55, 104
1, 1192900, Note_on_c, 0, 101, 79
1, 1192911, Note_on_c, 0, 43, 0
1, 1192922, Note_on_c, 0, 55, 0
1, 1192923, Control_c, 0, 64, 39
1, 1192942, Control_c, 0, 64, 83
1, 1192960, Control_c, 0, 64, 125
1, 1193020, Note_on_c, 0, 95, 74
1, 1193054, Note_on_c, 0, 101, 0
1, 1193124, Note_on_c, 0, 92, 80
1, 1193170, Note_on_c, 0, 95, 0
1, 1193198, Poly_aftertouch_c, 0, 58, 0
1, 1193215, Note_on_c, 0, 92, 0
1, 1193228, Note_on_c, 0, 89, 80
1, 1193263, Note_on_c, 0, 89, 0
1, 1193341, Note_on_c, 0, 83, 70
1, 1193345, Note_on_c, 0, 56, 86
1, 1193346, Note_on_c, 0, 68, 99
1, 1193373, Note_on_c, 0, 83, 0
1, 1193491, Poly_aftertouch_c, 0, 62, 0
1, 1193621, Note_on_c, 0, 100, 72
1, 1193674, Control_c, 0, 64, 110
1, 1193694, Control_c, 0, 64, 70
1, 1193710, Control_c, 0, 64, 26
1, 1193725, Note_on_c, 0, 96, 76
1, 1193727, Control_c, 0, 64, 0
1, 1193734, Note_on_c, 0, 100, 0
1, 1193783, Control_c, 0, 64, 18
1, 1193804, Control_c, 0, 64, 44
1, 1193821, Control_c, 0, 64, 67
1, 1193835, Note_on_c, 0, 96, 0
1, 1193835, Note_on_c, 0, 91, 73
1, 1193840, Control_c, 0, 64, 88
1, 1193859, Control_c, 0, 64, 113
1, 1193877, Control_c, 0, 64, 127
1, 1193905, Note_on_c, 0, 68, 0
1, 1193910, Note_on_c, 0, 91, 0
1, 1193948, Note_on_c, 0, 88, 74
1, 1194028, Note_on_c, 0, 67, 76
1, 1194037, Note_on_c, 0, 88, 0
1, 1194038, Note_on_c, 0, 84, 77
1, 1194040, Note_on_c, 0, 55, 57
1, 1194056, Note_on_c, 0, 67, 0
1, 1194056, Note_on_c, 0, 56, 0
1, 1194069, Note_on_c, 0, 84, 0
1, 1194073, Note_on_c, 0, 55, 0
1, 1194265, Control_c, 0, 64, 88
1, 1194283, Control_c, 0, 64, 0
1, 1194289, Note_on_c, 0, 55, 88
1, 1194291, Note_on_c, 0, 99, 85
1, 1194293, Note_on_c, 0, 43, 78
1, 1194331, Note_on_c, 0, 43, 0
1, 1194338, Note_on_c, 0, 55, 0
1, 1194396, Note_on_c, 0, 96, 80
1, 1194450, Note_on_c, 0, 99, 0
1, 1194469, Control_c, 0, 64, 12
1, 1194488, Control_c, 0, 64, 49
1, 1194502, Note_on_c, 0, 90, 80
1, 1194514, Control_c, 0, 64, 92
1, 1194534, Control_c, 0, 64, 127
1, 1194572, Note_on_c, 0, 96, 0
1, 1194604, Note_on_c, 0, 87, 87
1, 1194616, Note_on_c, 0, 90, 0
1, 1194652, Note_on_c, 0, 87, 0
1, 1194723, Note_on_c, 0, 66, 94
1, 1194724, Note_on_c, 0, 54, 89
1, 1194738, Note_on_c, 0, 81, 69
1, 1194772, Note_on_c, 0, 81, 0
1, 1194980, Note_on_c, 0, 98, 84
1, 1194999, Control_c, 0, 64, 115
1, 1195015, Control_c, 0, 64, 68
1, 1195034, Control_c, 0, 64, 17
1, 1195054, Control_c, 0, 64, 8
1, 1195071, Control_c, 0, 64, 29
1, 1195090, Control_c, 0, 64, 52
1, 1195092, Note_on_c, 0, 95, 69
1, 1195109, Control_c, 0, 64, 76
1, 1195127, Note_on_c, 0, 98, 0
1, 1195128, Control_c, 0, 64, 98
1, 1195140, Note_on_c, 0, 94, 14
1, 1195145, Control_c, 0, 64, 127
1, 1195184, Poly_aftertouch_c, 0, 96, 0
1, 1195184, Note_on_c, 0, 92, 78
1, 1195201, Note_on_c, 0, 94, 0
1, 1195204, Note_on_c, 0, 95, 0
1, 1195268, Note_on_c, 0, 92, 0
1, 1195284, Note_on_c, 0, 66, 0
1, 1195292, Note_on_c, 0, 86, 76
1, 1195353, Note_on_c, 0, 86, 0
1, 1195383, Note_on_c, 0, 65, 83
1, 1195383, Note_on_c, 0, 83, 82
1, 1195385, Note_on_c, 0, 53, 69
1, 1195421, Note_on_c, 0, 65, 0
1, 1195421, Note_on_c, 0, 83, 0
1, 1195421, Poly_aftertouch_c, 0, 86, 0
1, 1195425, Note_on_c, 0, 53, 0
1, 1195431, Note_on_c, 0, 54, 0
1, 1195652, Note_on_c, 0, 55, 89
1, 1195654, Note_on_c, 0, 43, 82
1, 1195672, Note_on_c, 0, 96, 81
1, 1195683, Note_on_c, 0, 55, 0
1, 1195688, Note_on_c, 0, 43, 0
1, 1195692, Control_c, 0, 64, 111
1, 1195711, Control_c, 0, 64, 74
1, 1195730, Control_c, 0, 64, 36
1, 1195749, Control_c, 0, 64, 11
1, 1195765, Control_c, 0, 64, 0
1, 1195783, Note_on_c, 0, 96, 0
1, 1195786, Note_on_c, 0, 91, 73
1, 1195895, Note_on_c, 0, 88, 80
1, 1195903, Note_on_c, 0, 91, 0
1, 1195916, Control_c, 0, 64, 32
1, 1195933, Control_c, 0, 64, 53
1, 1195951, Control_c, 0, 64, 75
1, 1195969, Control_c, 0, 64, 96
1, 1195974, Note_on_c, 0, 88, 0
1, 1195989, Control_c, 0, 64, 126
1, 1195994, Note_on_c, 0, 84, 83
1, 1196108, Note_on_c, 0, 84, 0
1, 1196111, Note_on_c, 0, 64, 95
1, 1196115, Note_on_c, 0, 52, 85
1, 1196120, Note_on_c, 0, 79, 74
1, 1196141, Note_on_c, 0, 59, 45
1, 1196152, Note_on_c, 0, 79, 0
1, 1196180, Note_on_c, 0, 59, 0
1, 1196390, Note_on_c, 0, 93, 78
1, 1196424, Control_c, 0, 64, 84
1, 1196444, Control_c, 0, 64, 41
1, 1196462, Control_c, 0, 64, 21
1, 1196480, Control_c, 0, 64, 25
1, 1196481, Control_c, 0, 67, 8
1, 1196497, Note_on_c, 0, 90, 76
1, 1196499, Control_c, 0, 64, 45
1, 1196502, Note_on_c, 0, 93, 0
1, 1196517, Control_c, 0, 64, 63
1, 1196534, Control_c, 0, 64, 82
1, 1196535, Control_c, 0, 67, 13
1, 1196546, Note_on_c, 0, 64, 0
1, 1196553, Control_c, 0, 64, 102
1, 1196574, Control_c, 0, 64, 125
1, 1196592, Control_c, 0, 67, 21
1, 1196595, Note_on_c, 0, 84, 75
1, 1196599, Note_on_c, 0, 90, 0
1, 1196609, Control_c, 0, 67, 29
1, 1196629, Control_c, 0, 67, 38
1, 1196647, Control_c, 0, 67, 44
1, 1196663, Note_on_c, 0, 84, 0
1, 1196702, Note_on_c, 0, 81, 68
1, 1196799, Note_on_c, 0, 63, 72
1, 1196800, Note_on_c, 0, 51, 75
1, 1196802, Note_on_c, 0, 81, 0
1, 1196806, Note_on_c, 0, 78, 75
1, 1196807, Note_on_c, 0, 52, 0
1, 1196832, Note_on_c, 0, 63, 0
1, 1196840, Note_on_c, 0, 78, 0
1, 1196856, Note_on_c, 0, 51, 0
1, 1197059, Note_on_c, 0, 90, 75
1, 1197069, Note_on_c, 0, 43, 58
1, 1197073, Control_c, 0, 64, 101
1, 1197078, Note_on_c, 0, 55, 43
1, 1197091, Control_c, 0, 64, 71
1, 1197103, Note_on_c, 0, 43, 0
1, 1197108, Control_c, 0, 64, 46
1, 1197117, Note_on_c, 0, 55, 0
1, 1197128, Control_c, 0, 64, 35
1, 1197156, Note_on_c, 0, 87, 62
1, 1197165, Control_c, 0, 64, 31
1, 1197167, Note_on_c, 0, 90, 0
1, 1197258, Note_on_c, 0, 81, 53
1, 1197266, Note_on_c, 0, 87, 0
1, 1197335, Note_on_c, 0, 81, 0
1, 1197382, Note_on_c, 0, 78, 60
1, 1197478, Note_on_c, 0, 78, 0
1, 1197504, Note_on_c, 0, 75, 60
1, 1197519, Note_on_c, 0, 60, 66
1, 1197525, Control_c, 0, 64, 44
1, 1197526, Note_on_c, 0, 48, 57
1, 1197541, Note_on_c, 0, 75, 0
1, 1197545, Control_c, 0, 64, 56
1, 1197564, Control_c, 0, 64, 72
1, 1197583, Control_c, 0, 64, 83
1, 1197601, Control_c, 0, 64, 95
1, 1197619, Control_c, 0, 64, 107
1, 1197637, Control_c, 0, 64, 118
1, 1197655, Control_c, 0, 64, 124
1, 1197692, Control_c, 0, 67, 48
1, 1197767, Note_on_c, 0, 87, 67
1, 1197787, Control_c, 0, 67, 52
1, 1197822, Control_c, 0, 67, 56
1, 1197834, Note_on_c, 0, 60, 0
1, 1197840, Control_c, 0, 67, 60
1, 1197860, Note_on_c, 0, 87, 0
1, 1197860, Control_c, 0, 67, 66
1, 1197882, Note_on_c, 0, 84, 45
1, 1197916, Control_c, 0, 67, 70
1, 1197994, Note_on_c, 0, 78, 47
1, 1197996, Note_on_c, 0, 84, 0
1, 1198025, Note_on_c, 0, 78, 0
1, 1198063, Note_on_c, 0, 75, 66
1, 1198095, Note_on_c, 0, 75, 0
1, 1198174, Note_on_c, 0, 72, 66
1, 1198196, Note_on_c, 0, 57, 47
1, 1198202, Note_on_c, 0, 45, 53
1, 1198214, Note_on_c, 0, 72, 0
1, 1198258, Note_on_c, 0, 48, 0
1, 1198299, Note_on_c, 0, 57, 0
1, 1198388, Control_c, 0, 64, 93
1, 1198408, Control_c, 0, 64, 63
1, 1198411, Control_c, 0, 67, 75
1, 1198425, Control_c, 0, 64, 38
1, 1198426, Control_c, 0, 67, 80
1, 1198429, Note_on_c, 0, 45, 0
1, 1198442, Note_on_c, 0, 43, 60
1, 1198444, Control_c, 0, 64, 32
1, 1198445, Control_c, 0, 67, 87
1, 1198448, Note_on_c, 0, 55, 62
1, 1198461, Note_on_c, 0, 83, 72
1, 1198462, Control_c, 0, 67, 94
1, 1198481, Control_c, 0, 67, 102
1, 1198492, Note_on_c, 0, 55, 0
1, 1198499, Control_c, 0, 67, 108
1, 1198508, Note_on_c, 0, 43, 0
1, 1198518, Control_c, 0, 67, 113
1, 1198546, Note_on_c, 0, 83, 0
1, 1198555, Control_c, 0, 67, 118
1, 1198557, Note_on_c, 0, 79, 64
1, 1198591, Control_c, 0, 67, 124
1, 1198622, Note_on_c, 0, 79, 0
1, 1198658, Note_on_c, 0, 74, 51
1, 1198689, Note_on_c, 0, 74, 0
1, 1198762, Note_on_c, 0, 71, 52
1, 1198788, Note_on_c, 0, 71, 0
1, 1198859, Note_on_c, 0, 67, 67
1, 1198891, Note_on_c, 0, 67, 0
1, 1199109, Note_on_c, 0, 43, 53
1, 1199146, Note_on_c, 0, 43, 0
1, 1199341, Control_c, 0, 64, 28
1, 1199462, Note_on_c, 0, 44, 45
1, 1199501, Note_on_c, 0, 44, 0
1, 1199544, Note_on_c, 0, 43, 72
1, 1199578, Note_on_c, 0, 43, 0
1, 1199801, Note_on_c, 0, 71, 57
1, 1199862, Note_on_c, 0, 71, 0
1, 1199895, Note_on_c, 0, 67, 49
1, 1199936, Note_on_c, 0, 67, 0
1, 1199985, Note_on_c, 0, 62, 52
1, 1200026, Note_on_c, 0, 62, 0
1, 1200077, Note_on_c, 0, 59, 60
1, 1200136, Note_on_c, 0, 59, 0
1, 1200205, Note_on_c, 0, 55, 58
1, 1200236, Note_on_c, 0, 55, 0
1, 1200447, Note_on_c, 0, 43, 66
1, 1200486, Note_on_c, 0, 43, 0
1, 1200821, Note_on_c, 0, 44, 48
1, 1200860, Note_on_c, 0, 44, 0
1, 1200907, Note_on_c, 0, 43, 68
1, 1200947, Note_on_c, 0, 43, 0
1, 1201490, Note_on_c, 0, 56, 61
1, 1201493, Note_on_c, 0, 44, 53
1, 1201519, Note_on_c, 0, 56, 0
1, 1201529, Note_on_c, 0, 44, 0
1, 1201529, Control_c, 0, 67, 120
1, 1201548, Control_c, 0, 67, 114
1, 1201565, Control_c, 0, 67, 103
1, 1201582, Control_c, 0, 67, 86
1, 1201583, Note_on_c, 0, 55, 69
1, 1201597, Note_on_c, 0, 43, 48
1, 1201601, Control_c, 0, 67, 61
1, 1201619, Note_on_c, 0, 55, 0
1, 1201622, Control_c, 0, 67, 30
1, 1201637, Note_on_c, 0, 43, 0
1, 1201639, Control_c, 0, 67, 0
1, 1201973, Control_c, 0, 67, 9
1, 1202001, Control_c, 0, 67, 16
1, 1202019, Control_c, 0, 67, 27
1, 1202037, Control_c, 0, 67, 40
1, 1202057, Control_c, 0, 67, 53
1, 1202075, Control_c, 0, 67, 64
1, 1202094, Control_c, 0, 67, 72
1, 1202113, Control_c, 0, 67, 79
1, 1202130, Control_c, 0, 67, 86
1, 1202148, Control_c, 0, 67, 93
1, 1202167, Control_c, 0, 67, 101
1, 1202186, Control_c, 0, 67, 106
1, 1202197, Note_on_c, 0, 56, 47
1, 1202206, Control_c, 0, 67, 110
1, 1202215, Note_on_c, 0, 44, 18
1, 1202225, Note_on_c, 0, 56, 0
1, 1202242, Control_c, 0, 67, 115
1, 1202271, Note_on_c, 0, 44, 0
1, 1202298, Control_c, 0, 67, 121
1, 1202308, Note_on_c, 0, 43, 50
1, 1202315, Note_on_c, 0, 55, 48
1, 1202344, Note_on_c, 0, 43, 0
1, 1202352, Note_on_c, 0, 55, 0
1, 1202352, Control_c, 0, 67, 126
1, 1203070, Note_on_c, 0, 44, 47
1, 1203073, Note_on_c, 0, 56, 48
1, 1203103, Note_on_c, 0, 56, 0
1, 1203131, Note_on_c, 0, 44, 0
1, 1203250, Control_c, 0, 67, 121
1, 1203270, Control_c, 0, 67, 117
1, 1203275, Note_on_c, 0, 43, 47
1, 1203287, Note_on_c, 0, 55, 54
1, 1203288, Control_c, 0, 67, 112
1, 1203307, Control_c, 0, 67, 104
1, 1203318, Note_on_c, 0, 43, 0
1, 1203323, Note_on_c, 0, 55, 0
1, 1203325, Control_c, 0, 67, 91
1, 1203345, Control_c, 0, 67, 70
1, 1203362, Control_c, 0, 67, 44
1, 1203381, Control_c, 0, 67, 17
1, 1203400, Control_c, 0, 67, 0
1, 1203609, Note_on_c, 0, 44, 58
1, 1203643, Note_on_c, 0, 44, 0
1, 1203765, Note_on_c, 0, 56, 58
1, 1203772, Note_on_c, 0, 68, 49
1, 1203801, Note_on_c, 0, 56, 0
1, 1203801, Note_on_c, 0, 68, 0
1, 1203889, Note_on_c, 0, 43, 81
1, 1203930, Note_on_c, 0, 43, 0
1, 1204006, Note_on_c, 0, 55, 70
1, 1204017, Note_on_c, 0, 67, 61
1, 1204037, Note_on_c, 0, 55, 0
1, 1204040, Note_on_c, 0, 67, 0
1, 1204094, Note_on_c, 0, 41, 99
1, 1204127, Note_on_c, 0, 41, 0
1, 1204161, Note_on_c, 0, 65, 74
1, 1204172, Note_on_c, 0, 53, 43
1, 1204173, Note_on_c, 0, 53, 0
1, 1204191, Note_on_c, 0, 65, 0
1, 1204336, Control_c, 0, 64, 32
1, 1204365, Note_on_c, 0, 40, 81
1, 1204371, Control_c, 0, 64, 37
1, 1204385, Note_on_c, 0, 80, 19
1, 1204388, Control_c, 0, 64, 49
1, 1204401, Note_on_c, 0, 52, 105
1, 1204407, Control_c, 0, 64, 71
1, 1204427, Control_c, 0, 64, 95
1, 1204429, Note_on_c, 0, 73, 99
1, 1204430, Note_on_c, 0, 47, 58
1, 1204430, Note_on_c, 0, 82, 92
1, 1204434, Note_on_c, 0, 79, 82
1, 1204437, Note_on_c, 0, 85, 91
1, 1204453, Note_on_c, 0, 40, 0
1, 1204453, Control_c, 0, 64, 127
1, 1204462, Note_on_c, 0, 47, 0
1, 1204465, Note_on_c, 0, 52, 0
1, 1204480, Note_on_c, 0, 80, 0
1, 1204493, Note_on_c, 0, 73, 0
1, 1204496, Note_on_c, 0, 85, 0
1, 1204498, Note_on_c, 0, 79, 0
1, 1204508, Note_on_c, 0, 82, 0
1, 1204731, Note_on_c, 0, 52, 76
1, 1204736, Note_on_c, 0, 58, 71
1, 1204752, Note_on_c, 0, 61, 70
1, 1204799, Note_on_c, 0, 52, 0
1, 1204834, Note_on_c, 0, 84, 97
1, 1204835, Note_on_c, 0, 72, 98
1, 1204875, Note_on_c, 0, 72, 0
1, 1204876, Note_on_c, 0, 84, 0
1, 1204910, Note_on_c, 0, 67, 87
1, 1204934, Note_on_c, 0, 67, 0
1, 1204937, Note_on_c, 0, 61, 0
1, 1204939, Note_on_c, 0, 70, 102
1, 1204941, Note_on_c, 0, 82, 95
1, 1204961, Note_on_c, 0, 58, 0
1, 1204964, Note_on_c, 0, 83, 55
1, 1204990, Note_on_c, 0, 83, 0
1, 1205087, Control_c, 0, 64, 102
1, 1205104, Control_c, 0, 64, 48
1, 1205122, Note_on_c, 0, 82, 0
1, 1205122, Control_c, 0, 64, 0
1, 1205128, Note_on_c, 0, 70, 0
1, 1205148, Note_on_c, 0, 41, 82
1, 1205151, Note_on_c, 0, 53, 96
1, 1205159, Control_c, 0, 64, 50
1, 1205177, Control_c, 0, 64, 92
1, 1205185, Note_on_c, 0, 41, 0
1, 1205197, Control_c, 0, 64, 118
1, 1205204, Note_on_c, 0, 53, 0
1, 1205215, Control_c, 0, 64, 127
1, 1205248, Note_on_c, 0, 80, 91
1, 1205251, Note_on_c, 0, 68, 82
1, 1205278, Note_on_c, 0, 68, 0
1, 1205295, Note_on_c, 0, 80, 0
1, 1205327, Control_c, 0, 64, 96
1, 1205343, Note_on_c, 0, 60, 99
1, 1205346, Control_c, 0, 64, 55
1, 1205349, Note_on_c, 0, 53, 82
1, 1205357, Note_on_c, 0, 79, 95
1, 1205357, Note_on_c, 0, 67, 95
1, 1205360, Note_on_c, 0, 56, 71
1, 1205364, Control_c, 0, 64, 0
1, 1205366, Note_on_c, 0, 60, 0
1, 1205376, Note_on_c, 0, 53, 0
1, 1205380, Note_on_c, 0, 56, 0
1, 1205391, Note_on_c, 0, 67, 0
1, 1205399, Note_on_c, 0, 79, 0
1, 1205599, Note_on_c, 0, 60, 91
1, 1205606, Note_on_c, 0, 77, 98
1, 1205610, Note_on_c, 0, 65, 96
1, 1205644, Note_on_c, 0, 77, 0
1, 1205655, Note_on_c, 0, 65, 0
1, 1205673, Note_on_c, 0, 60, 0
1, 1205709, Note_on_c, 0, 49, 87
1, 1205759, Note_on_c, 0, 52, 32
1, 1205761, Control_c, 0, 64, 24
1, 1205780, Control_c, 0, 64, 52
1, 1205799, Control_c, 0, 64, 91
1, 1205819, Control_c, 0, 64, 127
1, 1205821, Note_on_c, 0, 52, 0
1, 1205833, Note_on_c, 0, 61, 104
1, 1205854, Note_on_c, 0, 64, 101
1, 1205855, Note_on_c, 0, 67, 95
1, 1205858, Note_on_c, 0, 76, 93
1, 1205859, Note_on_c, 0, 73, 88
1, 1205877, Note_on_c, 0, 61, 0
1, 1205878, Note_on_c, 0, 49, 0
1, 1205893, Note_on_c, 0, 64, 0
1, 1205902, Note_on_c, 0, 67, 0
1, 1205912, Note_on_c, 0, 73, 0
1, 1205919, Note_on_c, 0, 76, 0
1, 1205927, Control_c, 0, 64, 116
1, 1205948, Control_c, 0, 64, 79
1, 1205948, Note_on_c, 0, 66, 20
1, 1205949, Note_on_c, 0, 66, 0
1, 1205965, Control_c, 0, 64, 45
1, 1205985, Control_c, 0, 64, 33
1, 1206098, Note_on_c, 0, 65, 97
1, 1206098, Note_on_c, 0, 77, 99
1, 1206127, Note_on_c, 0, 65, 0
1, 1206136, Note_on_c, 0, 77, 0
1, 1206186, Note_on_c, 0, 60, 99
1, 1206204, Note_on_c, 0, 48, 75
1, 1206208, Control_c, 0, 64, 27
1, 1206221, Note_on_c, 0, 60, 0
1, 1206224, Control_c, 0, 64, 21
1, 1206227, Note_on_c, 0, 48, 0
1, 1206243, Control_c, 0, 64, 13
1, 1206299, Control_c, 0, 64, 17
1, 1206303, Note_on_c, 0, 58, 102
1, 1206308, Note_on_c, 0, 67, 101
1, 1206311, Note_on_c, 0, 46, 95
1, 1206313, Note_on_c, 0, 79, 96
1, 1206318, Control_c, 0, 64, 46
1, 1206333, Note_on_c, 0, 79, 0
1, 1206337, Control_c, 0, 64, 74
1, 1206349, Note_on_c, 0, 67, 0
1, 1206354, Control_c, 0, 64, 102
1, 1206374, Control_c, 0, 64, 127
1, 1206379, Note_on_c, 0, 59, 10
1, 1206456, Note_on_c, 0, 59, 0
1, 1206521, Note_on_c, 0, 58, 0
1, 1206528, Note_on_c, 0, 46, 0
1, 1206581, Note_on_c, 0, 60, 97
1, 1206583, Note_on_c, 0, 72, 92
1, 1206590, Note_on_c, 0, 65, 89
1, 1206632, Control_c, 0, 64, 93
1, 1206650, Control_c, 0, 64, 63
1, 1206669, Control_c, 0, 64, 39
1, 1206697, Control_c, 0, 64, 33
1, 1206714, Note_on_c, 0, 56, 93
1, 1206724, Note_on_c, 0, 44, 89
1, 1206753, Note_on_c, 0, 44, 0
1, 1206761, Note_on_c, 0, 56, 0
1, 1206824, Note_on_c, 0, 55, 103
1, 1206837, Note_on_c, 0, 43, 89
1, 1206865, Note_on_c, 0, 45, 53
1, 1206871, Note_on_c, 0, 55, 0
1, 1206872, Note_on_c, 0, 43, 0
1, 1206892, Note_on_c, 0, 65, 0
1, 1206909, Note_on_c, 0, 45, 0
1, 1207053, Note_on_c, 0, 60, 0
1, 1207088, Note_on_c, 0, 72, 0
1, 1207116, Note_on_c, 0, 53, 106
1, 1207127, Note_on_c, 0, 41, 95
1, 1207150, Note_on_c, 0, 41, 0
1, 1207151, Note_on_c, 0, 53, 0
1, 1207206, Note_on_c, 0, 72, 81
1, 1207289, Control_c, 0, 64, 28
1, 1207289, Note_on_c, 0, 74, 77
1, 1207307, Note_on_c, 0, 72, 0
1, 1207327, Control_c, 0, 64, 23
1, 1207339, Note_on_c, 0, 76, 71
1, 1207377, Note_on_c, 0, 74, 0
1, 1207383, Control_c, 0, 64, 51
1, 1207401, Control_c, 0, 64, 95
1, 1207412, Note_on_c, 0, 65, 99
1, 1207413, Note_on_c, 0, 51, 108
1, 1207415, Note_on_c, 0, 77, 98
1, 1207421, Control_c, 0, 64, 127
1, 1207423, Note_on_c, 0, 39, 96
1, 1207449, Note_on_c, 0, 39, 0
1, 1207452, Note_on_c, 0, 65, 0
1, 1207454, Note_on_c, 0, 51, 0
1, 1207459, Note_on_c, 0, 77, 0
1, 1207461, Note_on_c, 0, 76, 0
1, 1207496, Control_c, 0, 64, 119
1, 1207513, Control_c, 0, 64, 90
1, 1207532, Control_c, 0, 64, 61
1, 1207543, Poly_aftertouch_c, 0, 52, 0
1, 1207546, Note_on_c, 0, 39, 11
1, 1207550, Control_c, 0, 64, 41
1, 1207575, Note_on_c, 0, 39, 0
1, 1207710, Note_on_c, 0, 51, 67
1, 1207727, Note_on_c, 0, 57, 68
1, 1207799, Note_on_c, 0, 51, 0
1, 1207800, Note_on_c, 0, 57, 0
1, 1207818, Note_on_c, 0, 76, 80
1, 1207831, Note_on_c, 0, 64, 58
1, 1207837, Poly_aftertouch_c, 0, 53, 0
1, 1207849, Note_on_c, 0, 76, 0
1, 1207857, Note_on_c, 0, 64, 0
1, 1207910, Note_on_c, 0, 60, 70
1, 1207921, Note_on_c, 0, 65, 81
1, 1207926, Note_on_c, 0, 77, 76
1, 1207927, Control_c, 0, 64, 37
1, 1207928, Note_on_c, 0, 57, 46
1, 1207935, Note_on_c, 0, 53, 61
1, 1207939, Poly_aftertouch_c, 0, 76, 0
1, 1207942, Note_on_c, 0, 60, 0
1, 1207963, Note_on_c, 0, 57, 0
1, 1207967, Control_c, 0, 64, 27
1, 1207982, Note_on_c, 0, 53, 0
1, 1207984, Control_c, 0, 64, 16
1, 1208003, Control_c, 0, 64, 0
1, 1208059, Control_c, 0, 64, 10
1, 1208079, Control_c, 0, 64, 39
1, 1208085, Note_on_c, 0, 65, 0
1, 1208097, Control_c, 0, 64, 63
1, 1208114, Control_c, 0, 64, 88
1, 1208132, Control_c, 0, 64, 118
1, 1208145, Note_on_c, 0, 49, 86
1, 1208147, Note_on_c, 0, 77, 0
1, 1208151, Control_c, 0, 64, 127
1, 1208158, Note_on_c, 0, 37, 68
1, 1208177, Note_on_c, 0, 49, 0
1, 1208187, Note_on_c, 0, 37, 0
1, 1208247, Note_on_c, 0, 80, 82
1, 1208252, Note_on_c, 0, 68, 72
1, 1208275, Note_on_c, 0, 80, 0
1, 1208280, Note_on_c, 0, 68, 0
1, 1208282, Control_c, 0, 64, 113
1, 1208299, Control_c, 0, 64, 84
1, 1208318, Control_c, 0, 64, 56
1, 1208336, Control_c, 0, 64, 38
1, 1208347, Note_on_c, 0, 61, 88
1, 1208356, Note_on_c, 0, 53, 65
1, 1208359, Note_on_c, 0, 58, 70
1, 1208360, Note_on_c, 0, 65, 83
1, 1208362, Note_on_c, 0, 77, 88
1, 1208379, Note_on_c, 0, 61, 0
1, 1208381, Note_on_c, 0, 77, 0
1, 1208385, Note_on_c, 0, 53, 0
1, 1208388, Note_on_c, 0, 65, 0
1, 1208390, Note_on_c, 0, 58, 0
1, 1208410, Control_c, 0, 64, 34
1, 1208502, Poly_aftertouch_c, 0, 65, 0
1, 1208587, Control_c, 0, 64, 30
1, 1208601, Note_on_c, 0, 61, 77
1, 1208604, Note_on_c, 0, 58, 77
1, 1208604, Note_on_c, 0, 78, 87
1, 1208606, Note_on_c, 0, 66, 77
1, 1208634, Note_on_c, 0, 61, 0
1, 1208634, Note_on_c, 0, 58, 0
1, 1208639, Note_on_c, 0, 66, 0
1, 1208670, Note_on_c, 0, 78, 0
1, 1208698, Control_c, 0, 64, 25
1, 1208734, Control_c, 0, 64, 20
1, 1208791, Control_c, 0, 64, 39
1, 1208802, Note_on_c, 0, 48, 93
1, 1208803, Note_on_c, 0, 36, 89
1, 1208810, Control_c, 0, 64, 62
1, 1208827, Note_on_c, 0, 48, 0
1, 1208829, Control_c, 0, 64, 88
1, 1208833, Note_on_c, 0, 36, 0
1, 1208848, Control_c, 0, 64, 120
1, 1208864, Control_c, 0, 64, 127
1, 1208896, Note_on_c, 0, 70, 83
1, 1208898, Note_on_c, 0, 82, 91
1, 1208921, Note_on_c, 0, 70, 0
1, 1208938, Note_on_c, 0, 82, 0
1, 1208990, Note_on_c, 0, 63, 82
1, 1208990, Note_on_c, 0, 68, 99
1, 1208991, Note_on_c, 0, 80, 96
1, 1208996, Control_c, 0, 64, 114
1, 1209010, Note_on_c, 0, 60, 45
1, 1209013, Note_on_c, 0, 63, 0
1, 1209013, Control_c, 0, 64, 80
1, 1209025, Poly_aftertouch_c, 0, 36, 0
1, 1209029, Note_on_c, 0, 68, 0
1, 1209032, Control_c, 0, 64, 50
1, 1209049, Note_on_c, 0, 60, 0
1, 1209050, Control_c, 0, 64, 36
1, 1209051, Note_on_c, 0, 80, 0
1, 1209221, Note_on_c, 0, 63, 73
1, 1209227, Note_on_c, 0, 81, 102
1, 1209229, Note_on_c, 0, 60, 58
1, 1209229, Note_on_c, 0, 69, 96
1, 1209235, Control_c, 0, 67, 8
1, 1209238, Note_on_c, 0, 65, 53
1, 1209247, Note_on_c, 0, 63, 0
1, 1209256, Note_on_c, 0, 69, 0
1, 1209262, Note_on_c, 0, 60, 0
1, 1209269, Note_on_c, 0, 65, 0
1, 1209271, Note_on_c, 0, 81, 0
1, 1209346, Control_c, 0, 67, 0
1, 1209523, Note_on_c, 0, 46, 95
1, 1209525, Note_on_c, 0, 34, 78
1, 1209533, Note_on_c, 0, 84, 105
1, 1209534, Note_on_c, 0, 72, 102
1, 1209558, Note_on_c, 0, 34, 0
1, 1209563, Note_on_c, 0, 46, 0
1, 1209565, Note_on_c, 0, 47, 57
1, 1209566, Note_on_c, 0, 47, 0
1, 1209567, Note_on_c, 0, 72, 0
1, 1209572, Note_on_c, 0, 84, 0
1, 1209600, Poly_aftertouch_c, 0, 37, 0
1, 1209615, Control_c, 0, 64, 31
1, 1209651, Control_c, 0, 64, 26
1, 1209765, Control_c, 0, 64, 44
1, 1209783, Control_c, 0, 64, 62
1, 1209801, Control_c, 0, 64, 79
1, 1209812, Note_on_c, 0, 82, 92
1, 1209817, Control_c, 0, 64, 101
1, 1209818, Note_on_c, 0, 53, 72
1, 1209818, Note_on_c, 0, 70, 89
1, 1209818, Note_on_c, 0, 61, 75
1, 1209820, Note_on_c, 0, 58, 68
1, 1209841, Control_c, 0, 64, 127
1, 1209887, Note_on_c, 0, 53, 0
1, 1209917, Note_on_c, 0, 61, 0
1, 1209922, Note_on_c, 0, 82, 0
1, 1209929, Note_on_c, 0, 58, 0
1, 1209966, Note_on_c, 0, 70, 0
1, 1210000, Note_on_c, 0, 58, 67
1, 1210001, Note_on_c, 0, 65, 81
1, 1210017, Note_on_c, 0, 71, 75
1, 1210027, Note_on_c, 0, 61, 41
1, 1210035, Note_on_c, 0, 65, 0
1, 1210061, Note_on_c, 0, 58, 0
1, 1210061, Note_on_c, 0, 74, 77
1, 1210063, Note_on_c, 0, 71, 0
1, 1210066, Note_on_c, 0, 61, 0
1, 1210126, Note_on_c, 0, 77, 59
1, 1210134, Note_on_c, 0, 74, 0
1, 1210134, Note_on_c, 0, 80, 86
1, 1210149, Note_on_c, 0, 77, 0
1, 1210183, Note_on_c, 0, 80, 0
1, 1210221, Note_on_c, 0, 83, 82
1, 1210278, Note_on_c, 0, 83, 0
1, 1210290, Note_on_c, 0, 86, 82
1, 1210355, Note_on_c, 0, 89, 76
1, 1210392, Note_on_c, 0, 86, 0
1, 1210392, Note_on_c, 0, 92, 85
1, 1210404, Note_on_c, 0, 50, 82
1, 1210407, Note_on_c, 0, 38, 78
1, 1210426, Note_on_c, 0, 95, 97
1, 1210436, Note_on_c, 0, 89, 0
1, 1210440, Control_c, 0, 64, 121
1, 1210441, Note_on_c, 0, 93, 63
1, 1210458, Control_c, 0, 64, 87
1, 1210460, Note_on_c, 0, 50, 0
1, 1210467, Note_on_c, 0, 38, 0
1, 1210468, Note_on_c, 0, 92, 0
1, 1210476, Note_on_c, 0, 93, 0
1, 1210477, Control_c, 0, 64, 52
1, 1210490, Note_on_c, 0, 95, 0
1, 1210496, Control_c, 0, 64, 26
1, 1210534, Control_c, 0, 64, 22
1, 1210686, Note_on_c, 0, 39, 73
1, 1210688, Note_on_c, 0, 51, 71
1, 1210734, Note_on_c, 0, 51, 0
1, 1210749, Note_on_c, 0, 39, 0
1, 1210799, Note_on_c, 0, 94, 84
1, 1210803, Note_on_c, 0, 82, 79
1, 1210824, Note_on_c, 0, 94, 0
1, 1210830, Note_on_c, 0, 82, 0
1, 1210870, Note_on_c, 0, 53, 81
1, 1210875, Note_on_c, 0, 41, 74
1, 1210883, Note_on_c, 0, 92, 93
1, 1210886, Note_on_c, 0, 80, 90
1, 1210903, Note_on_c, 0, 53, 0
1, 1210920, Note_on_c, 0, 41, 0
1, 1210939, Control_c, 0, 64, 26
1, 1210957, Control_c, 0, 64, 41
1, 1210977, Control_c, 0, 64, 59
1, 1210996, Control_c, 0, 64, 79
1, 1211014, Control_c, 0, 64, 101
1, 1211034, Control_c, 0, 64, 127
1, 1211073, Note_on_c, 0, 80, 0
1, 1211076, Note_on_c, 0, 92, 0
1, 1211100, Note_on_c, 0, 58, 97
1, 1211105, Note_on_c, 0, 46, 90
1, 1211147, Note_on_c, 0, 58, 0
1, 1211151, Note_on_c, 0, 46, 0
1, 1211181, Control_c, 0, 64, 119
1, 1211199, Control_c, 0, 64, 93
1, 1211214, Note_on_c, 0, 78, 85
1, 1211214, Note_on_c, 0, 90, 91
1, 1211218, Control_c, 0, 64, 69
1, 1211236, Control_c, 0, 64, 51
1, 1211250, Note_on_c, 0, 78, 0
1, 1211253, Control_c, 0, 64, 45
1, 1211268, Note_on_c, 0, 90, 0
1, 1211272, Control_c, 0, 64, 43
1, 1211291, Control_c, 0, 64, 41
1, 1211320, Note_on_c, 0, 56, 91
1, 1211327, Note_on_c, 0, 77, 92
1, 1211328, Note_on_c, 0, 44, 86
1, 1211331, Control_c, 0, 64, 34
1, 1211332, Note_on_c, 0, 89, 97
1, 1211364, Note_on_c, 0, 56, 0
1, 1211373, Note_on_c, 0, 44, 0
1, 1211375, Control_c, 0, 64, 30
1, 1211383, Note_on_c, 0, 89, 0
1, 1211383, Note_on_c, 0, 77, 0
1, 1211413, Control_c, 0, 64, 24
1, 1211430, Control_c, 0, 64, 14
1, 1211448, Control_c, 0, 64, 0
1, 1211520, Note_on_c, 0, 87, 95
1, 1211522, Control_c, 0, 64, 27
1, 1211525, Note_on_c, 0, 75, 87
1, 1211525, Note_on_c, 0, 54, 91
1, 1211527, Note_on_c, 0, 42, 86
1, 1211541, Control_c, 0, 64, 62
1, 1211561, Control_c, 0, 64, 99
1, 1211565, Note_on_c, 0, 75, 0
1, 1211573, Note_on_c, 0, 87, 0
1, 1211580, Control_c, 0, 64, 127
1, 1211581, Note_on_c, 0, 54, 0
1, 1211586, Note_on_c, 0, 42, 0
1, 1211634, Note_on_c, 0, 80, 69
1, 1211638, Note_on_c, 0, 73, 75
1, 1211651, Note_on_c, 0, 80, 0
1, 1211663, Note_on_c, 0, 79, 66
1, 1211667, Note_on_c, 0, 73, 0
1, 1211713, Note_on_c, 0, 82, 78
1, 1211742, Note_on_c, 0, 79, 0
1, 1211746, Note_on_c, 0, 85, 86
1, 1211757, Note_on_c, 0, 78, 29
1, 1211758, Note_on_c, 0, 78, 0
1, 1211771, Note_on_c, 0, 82, 0
1, 1211777, Note_on_c, 0, 85, 0
1, 1211844, Note_on_c, 0, 85, 81
1, 1211871, Note_on_c, 0, 91, 83
1, 1211891, Note_on_c, 0, 85, 0
1, 1211911, Note_on_c, 0, 94, 80
1, 1211932, Note_on_c, 0, 52, 91
1, 1211934, Note_on_c, 0, 40, 81
1, 1211936, Note_on_c, 0, 97, 103
1, 1211947, Note_on_c, 0, 91, 0
1, 1211971, Note_on_c, 0, 94, 0
1, 1211985, Note_on_c, 0, 97, 0
1, 1211986, Control_c, 0, 64, 112
1, 1211991, Note_on_c, 0, 41, 28
1, 1211993, Note_on_c, 0, 40, 0
1, 1212005, Note_on_c, 0, 52, 0
1, 1212006, Control_c, 0, 64, 79
1, 1212025, Control_c, 0, 64, 46
1, 1212035, Note_on_c, 0, 41, 0
1, 1212042, Control_c, 0, 64, 32
1, 1212189, Note_on_c, 0, 41, 74
1, 1212189, Note_on_c, 0, 53, 82
1, 1212265, Note_on_c, 0, 53, 0
1, 1212269, Note_on_c, 0, 96, 102
1, 1212273, Note_on_c, 0, 84, 95
1, 1212298, Note_on_c, 0, 41, 0
1, 1212312, Control_c, 0, 64, 25
1, 1212320, Note_on_c, 0, 84, 0
1, 1212323, Note_on_c, 0, 96, 0
1, 1212329, Control_c, 0, 64, 19
1, 1212348, Control_c, 0, 64, 8
1, 1212366, Control_c, 0, 64, 0
1, 1212390, Note_on_c, 0, 55, 94
1, 1212396, Note_on_c, 0, 43, 88
1, 1212410, Note_on_c, 0, 82, 97
1, 1212411, Note_on_c, 0, 94, 78
1, 1212418, Note_on_c, 0, 93, 86
1, 1212420, Note_on_c, 0, 92, 78
1, 1212433, Note_on_c, 0, 80, 67
1, 1212439, Control_c, 0, 64, 38
1, 1212455, Note_on_c, 0, 55, 0
1, 1212459, Control_c, 0, 64, 68
1, 1212470, Note_on_c, 0, 43, 0
1, 1212475, Control_c, 0, 64, 102
1, 1212484, Note_on_c, 0, 94, 0
1, 1212496, Control_c, 0, 64, 127
1, 1212518, Note_on_c, 0, 93, 0
1, 1212548, Note_on_c, 0, 92, 0
1, 1212548, Note_on_c, 0, 82, 0
1, 1212566, Poly_aftertouch_c, 0, 81, 0
1, 1212568, Note_on_c, 0, 80, 0
1, 1212619, Note_on_c, 0, 60, 102
1, 1212630, Note_on_c, 0, 48, 85
1, 1212664, Note_on_c, 0, 48, 0
1, 1212664, Note_on_c, 0, 50, 49
1, 1212668, Note_on_c, 0, 60, 0
1, 1212702, Note_on_c, 0, 50, 0
1, 1212730, Note_on_c, 0, 80, 81
1, 1212733, Note_on_c, 0, 92, 92
1, 1212778, Note_on_c, 0, 80, 0
1, 1212790, Note_on_c, 0, 92, 0
1, 1212843, Note_on_c, 0, 58, 99
1, 1212847, Control_c, 0, 64, 89
1, 1212848, Note_on_c, 0, 79, 93
1, 1212850, Note_on_c, 0, 46, 97
1, 1212854, Note_on_c, 0, 91, 85
1, 1212859, Note_on_c, 0, 93, 83
1, 1212866, Control_c, 0, 64, 48
1, 1212879, Note_on_c, 0, 79, 0
1, 1212881, Note_on_c, 0, 46, 0
1, 1212882, Note_on_c, 0, 93, 0
1, 1212884, Control_c, 0, 64, 0
1, 1212885, Note_on_c, 0, 58, 0
1, 1212886, Note_on_c, 0, 91, 0
1, 1213073, Note_on_c, 0, 56, 99
1, 1213077, Note_on_c, 0, 89, 98
1, 1213079, Note_on_c, 0, 44, 87
1, 1213084, Note_on_c, 0, 77, 82
1, 1213097, Note_on_c, 0, 76, 67
1, 1213105, Note_on_c, 0, 77, 0
1, 1213117, Note_on_c, 0, 76, 0
1, 1213119, Note_on_c, 0, 44, 0
1, 1213136, Note_on_c, 0, 89, 0
1, 1213180, Note_on_c, 0, 56, 0
1, 1213199, Note_on_c, 0, 78, 80
1, 1213220, Note_on_c, 0, 84, 54
1, 1213280, Note_on_c, 0, 78, 0
1, 1213293, Note_on_c, 0, 87, 76
1, 1213326, Note_on_c, 0, 45, 64
1, 1213327, Note_on_c, 0, 84, 0
1, 1213331, Note_on_c, 0, 90, 81
1, 1213351, Note_on_c, 0, 87, 0
1, 1213357, Note_on_c, 0, 90, 0
1, 1213358, Note_on_c, 0, 48, 65
1, 1213397, Note_on_c, 0, 51, 68
1, 1213442, Note_on_c, 0, 90, 79
1, 1213448, Note_on_c, 0, 54, 80
1, 1213469, Control_c, 0, 64, 23
1, 1213471, Note_on_c, 0, 45, 0
1, 1213484, Note_on_c, 0, 96, 71
1, 1213487, Control_c, 0, 64, 59
1, 1213504, Note_on_c, 0, 99, 81
1, 1213505, Control_c, 0, 64, 98
1, 1213506, Note_on_c, 0, 90, 0
1, 1213512, Note_on_c, 0, 48, 0
1, 1213524, Control_c, 0, 64, 127
1, 1213526, Note_on_c, 0, 60, 106
1, 1213537, Note_on_c, 0, 102, 101
1, 1213547, Note_on_c, 0, 96, 0
1, 1213556, Note_on_c, 0, 51, 0
1, 1213560, Note_on_c, 0, 54, 0
1, 1213570, Note_on_c, 0, 99, 0
1, 1213571, Note_on_c, 0, 60, 0
1, 1213587, Note_on_c, 0, 102, 0
1, 1213855, Note_on_c, 0, 75, 92
1, 1213870, Note_on_c, 0, 87, 83
1, 1213870, Note_on_c, 0, 99, 89
1, 1213894, Note_on_c, 0, 87, 0
1, 1213901, Note_on_c, 0, 99, 0
1, 1213903, Note_on_c, 0, 75, 0
1, 1213966, Note_on_c, 0, 84, 91
1, 1213967, Note_on_c, 0, 72, 90
1, 1213967, Note_on_c, 0, 96, 95
1, 1214015, Note_on_c, 0, 84, 0
1, 1214023, Note_on_c, 0, 72, 0
1, 1214024, Note_on_c, 0, 96, 0
1, 1214199, Note_on_c, 0, 69, 82
1, 1214237, Note_on_c, 0, 69, 0
1, 1214316, Note_on_c, 0, 93, 68
1, 1214323, Note_on_c, 0, 81, 66
1, 1214340, Note_on_c, 0, 93, 0
1, 1214345, Note_on_c, 0, 81, 0
1, 1214421, Note_on_c, 0, 66, 84
1, 1214467, Note_on_c, 0, 66, 0
1, 1214544, Note_on_c, 0, 90, 66
1, 1214547, Note_on_c, 0, 78, 72
1, 1214577, Note_on_c, 0, 90, 0
1, 1214580, Note_on_c, 0, 78, 0
1, 1214655, Note_on_c, 0, 63, 87
1, 1214712, Note_on_c, 0, 63, 0
1, 1214766, Note_on_c, 0, 87, 76
1, 1214767, Note_on_c, 0, 75, 75
1, 1214800, Note_on_c, 0, 87, 0
1, 1214802, Note_on_c, 0, 75, 0
1, 1214876, Note_on_c, 0, 60, 93
1, 1214969, Note_on_c, 0, 60, 0
1, 1214983, Note_on_c, 0, 84, 75
1, 1214984, Note_on_c, 0, 72, 80
1, 1215016, Note_on_c, 0, 84, 0
1, 1215018, Note_on_c, 0, 72, 0
1, 1215092, Note_on_c, 0, 57, 96
1, 1215184, Note_on_c, 0, 57, 0
1, 1215199, Note_on_c, 0, 81, 81
1, 1215201, Note_on_c, 0, 69, 82
1, 1215242, Note_on_c, 0, 81, 0
1, 1215252, Note_on_c, 0, 69, 0
1, 1215311, Note_on_c, 0, 54, 97
1, 1215399, Note_on_c, 0, 54, 0
1, 1215402, Note_on_c, 0, 66, 91
1, 1215402, Note_on_c, 0, 78, 87
1, 1215451, Note_on_c, 0, 78, 0
1, 1215455, Note_on_c, 0, 66, 0
1, 1215518, Note_on_c, 0, 51, 97
1, 1215603, Note_on_c, 0, 63, 86
1, 1215604, Note_on_c, 0, 51, 0
1, 1215607, Note_on_c, 0, 75, 82
1, 1215634, Note_on_c, 0, 75, 0
1, 1215645, Note_on_c, 0, 63, 0
1, 1215713, Note_on_c, 0, 48, 94
1, 1215750, Note_on_c, 0, 47, 47
1, 1215751, Note_on_c, 0, 47, 0
1, 1215794, Note_on_c, 0, 48, 0
1, 1215794, Poly_aftertouch_c, 0, 47, 0
1, 1215812, Note_on_c, 0, 60, 92
1, 1215818, Note_on_c, 0, 72, 82
1, 1215853, Note_on_c, 0, 72, 0
1, 1215863, Note_on_c, 0, 60, 0
1, 1215875, Note_on_c, 0, 71, 26
1, 1215876, Note_on_c, 0, 71, 0
1, 1215917, Note_on_c, 0, 45, 95
1, 1215919, Note_on_c, 0, 43, 93
1, 1215925, Poly_aftertouch_c, 0, 71, 0
1, 1215999, Note_on_c, 0, 57, 90
1, 1216003, Note_on_c, 0, 69, 86
1, 1216011, Note_on_c, 0, 45, 0
1, 1216013, Note_on_c, 0, 43, 0
1, 1216048, Note_on_c, 0, 69, 0
1, 1216068, Note_on_c, 0, 57, 0
1, 1216121, Note_on_c, 0, 42, 102
1, 1216176, Note_on_c, 0, 42, 0
1, 1216180, Control_c, 0, 64, 119
1, 1216202, Control_c, 0, 64, 90
1, 1216219, Control_c, 0, 64, 64
1, 1216225, Note_on_c, 0, 54, 78
1, 1216225, Note_on_c, 0, 66, 79
1, 1216238, Control_c, 0, 64, 52
1, 1216269, Note_on_c, 0, 54, 0
1, 1216274, Control_c, 0, 64, 50
1, 1216286, Note_on_c, 0, 66, 0
1, 1216325, Note_on_c, 0, 41, 105
1, 1216328, Control_c, 0, 64, 48
1, 1216376, Note_on_c, 0, 41, 0
1, 1216407, Note_on_c, 0, 53, 84
1, 1216410, Note_on_c, 0, 65, 85
1, 1216443, Note_on_c, 0, 53, 0
1, 1216452, Note_on_c, 0, 65, 0
1, 1216523, Note_on_c, 0, 39, 95
1, 1216558, Note_on_c, 0, 39, 0
1, 1216596, Note_on_c, 0, 51, 69
1, 1216601, Note_on_c, 0, 63, 69
1, 1216630, Note_on_c, 0, 51, 0
1, 1216681, Control_c, 0, 64, 46
1, 1216700, Control_c, 0, 64, 41
1, 1216703, Note_on_c, 0, 63, 0
1, 1216719, Control_c, 0, 64, 34
1, 1216739, Control_c, 0, 64, 28
1, 1216782, Note_on_c, 0, 62, 99
1, 1216792, Note_on_c, 0, 50, 106
1, 1216793, Control_c, 0, 64, 52
1, 1216798, Note_on_c, 0, 38, 86
1, 1216813, Control_c, 0, 64, 83
1, 1216832, Control_c, 0, 64, 120
1, 1216847, Control_c, 0, 64, 127
1, 1216850, Note_on_c, 0, 41, 26
1, 1216856, Note_on_c, 0, 62, 0
1, 1216858, Note_on_c, 0, 38, 0
1, 1216868, Note_on_c, 0, 50, 0
1, 1216901, Note_on_c, 0, 41, 0
1, 1216916, Poly_aftertouch_c, 0, 45, 0
1, 1217158, Note_on_c, 0, 50, 67
1, 1217191, Note_on_c, 0, 53, 62
1, 1217218, Note_on_c, 0, 70, 65
1, 1217229, Note_on_c, 0, 58, 77
1, 1217233, Note_on_c, 0, 50, 0
1, 1217254, Note_on_c, 0, 77, 75
1, 1217271, Note_on_c, 0, 82, 97
1, 1217271, Note_on_c, 0, 65, 101
1, 1217273, Note_on_c, 0, 53, 0
1, 1217286, Note_on_c, 0, 70, 0
1, 1217295, Note_on_c, 0, 65, 0
1, 1217300, Note_on_c, 0, 77, 0
1, 1217305, Note_on_c, 0, 56, 37
1, 1217306, Note_on_c, 0, 56, 0
1, 1217312, Note_on_c, 0, 82, 0
1, 1217315, Note_on_c, 0, 58, 0
1, 1217320, Control_c, 0, 64, 122
1, 1217340, Control_c, 0, 64, 85
1, 1217359, Control_c, 0, 64, 52
1, 1217369, Poly_aftertouch_c, 0, 55, 0
1, 1217378, Control_c, 0, 64, 35
1, 1217415, Control_c, 0, 64, 30
1, 1217493, Note_on_c, 0, 42, 37
1, 1217525, Control_c, 0, 64, 45
1, 1217540, Note_on_c, 0, 42, 0
1, 1217546, Control_c, 0, 64, 71
1, 1217553, Note_on_c, 0, 61, 105
1, 1217559, Note_on_c, 0, 49, 108
1, 1217563, Note_on_c, 0, 37, 85
1, 1217564, Control_c, 0, 64, 101
1, 1217582, Control_c, 0, 64, 127
1, 1217599, Note_on_c, 0, 61, 0
1, 1217601, Note_on_c, 0, 37, 0
1, 1217605, Note_on_c, 0, 49, 0
1, 1217870, Note_on_c, 0, 49, 67
1, 1217901, Note_on_c, 0, 53, 66
1, 1217964, Note_on_c, 0, 49, 0
1, 1217973, Note_on_c, 0, 70, 70
1, 1217975, Note_on_c, 0, 58, 72
1, 1217996, Note_on_c, 0, 53, 0
1, 1218007, Note_on_c, 0, 77, 72
1, 1218010, Note_on_c, 0, 65, 96
1, 1218020, Note_on_c, 0, 82, 93
1, 1218030, Note_on_c, 0, 70, 0
1, 1218036, Note_on_c, 0, 65, 0
1, 1218043, Note_on_c, 0, 56, 34
1, 1218044, Note_on_c, 0, 77, 0
1, 1218044, Note_on_c, 0, 56, 0
1, 1218056, Note_on_c, 0, 58, 0
1, 1218061, Note_on_c, 0, 82, 0
1, 1218091, Control_c, 0, 64, 89
1, 1218109, Control_c, 0, 64, 54
1, 1218128, Control_c, 0, 64, 31
1, 1218163, Control_c, 0, 64, 25
1, 1218220, Control_c, 0, 64, 20
1, 1218276, Control_c, 0, 64, 26
1, 1218290, Note_on_c, 0, 60, 110
1, 1218294, Note_on_c, 0, 48, 108
1, 1218295, Note_on_c, 0, 36, 87
1, 1218295, Control_c, 0, 64, 45
1, 1218313, Control_c, 0, 64, 68
1, 1218333, Control_c, 0, 64, 89
1, 1218346, Note_on_c, 0, 60, 0
1, 1218348, Note_on_c, 0, 36, 0
1, 1218349, Control_c, 0, 64, 115
1, 1218353, Note_on_c, 0, 43, 16
1, 1218358, Note_on_c, 0, 48, 0
1, 1218368, Control_c, 0, 64, 127
1, 1218417, Note_on_c, 0, 43, 0
1, 1218441, Poly_aftertouch_c, 0, 40, 0
1, 1218614, Note_on_c, 0, 48, 69
1, 1218650, Note_on_c, 0, 53, 60
1, 1218678, Note_on_c, 0, 68, 70
1, 1218679, Note_on_c, 0, 48, 0
1, 1218698, Note_on_c, 0, 56, 71
1, 1218708, Note_on_c, 0, 72, 63
1, 1218725, Note_on_c, 0, 53, 0
1, 1218729, Note_on_c, 0, 77, 86
1, 1218739, Note_on_c, 0, 65, 91
1, 1218752, Note_on_c, 0, 68, 0
1, 1218755, Note_on_c, 0, 80, 93
1, 1218767, Note_on_c, 0, 65, 0
1, 1218774, Note_on_c, 0, 72, 0
1, 1218780, Note_on_c, 0, 56, 0
1, 1218791, Note_on_c, 0, 77, 0
1, 1218797, Note_on_c, 0, 80, 0
1, 1218860, Control_c, 0, 64, 90
1, 1218880, Control_c, 0, 64, 52
1, 1218897, Control_c, 0, 64, 0
1, 1219026, Control_c, 0, 64, 34
1, 1219028, Note_on_c, 0, 58, 102
1, 1219040, Note_on_c, 0, 46, 103
1, 1219040, Note_on_c, 0, 34, 91
1, 1219044, Control_c, 0, 64, 73
1, 1219064, Control_c, 0, 64, 113
1, 1219078, Note_on_c, 0, 34, 0
1, 1219082, Control_c, 0, 64, 127
1, 1219091, Note_on_c, 0, 58, 0
1, 1219091, Note_on_c, 0, 46, 0
1, 1219377, Note_on_c, 0, 52, 67
1, 1219387, Note_on_c, 0, 55, 64
1, 1219427, Note_on_c, 0, 67, 73
1, 1219439, Poly_aftertouch_c, 0, 51, 0
1, 1219450, Note_on_c, 0, 72, 66
1, 1219453, Note_on_c, 0, 60, 82
1, 1219458, Note_on_c, 0, 64, 93
1, 1219469, Note_on_c, 0, 76, 86
1, 1219476, Note_on_c, 0, 52, 0
1, 1219485, Note_on_c, 0, 67, 0
1, 1219487, Note_on_c, 0, 64, 0
1, 1219493, Note_on_c, 0, 79, 94
1, 1219503, Note_on_c, 0, 60, 0
1, 1219505, Note_on_c, 0, 55, 0
1, 1219512, Note_on_c, 0, 72, 0
1, 1219519, Note_on_c, 0, 76, 0
1, 1219540, Note_on_c, 0, 79, 0
1, 1219564, Control_c, 0, 64, 86
1, 1219582, Control_c, 0, 64, 43
1, 1219600, Control_c, 0, 64, 0
1, 1219757, Note_on_c, 0, 42, 96
1, 1219761, Note_on_c, 0, 30, 84
1, 1219766, Note_on_c, 0, 56, 105
1, 1219767, Control_c, 0, 64, 42
1, 1219796, Control_c, 0, 64, 74
1, 1219809, Note_on_c, 0, 30, 0
1, 1219810, Note_on_c, 0, 42, 0
1, 1219816, Control_c, 0, 64, 97
1, 1219829, Note_on_c, 0, 56, 0
1, 1219831, Control_c, 0, 64, 122
1, 1219850, Control_c, 0, 64, 127
1, 1220036, Note_on_c, 0, 61, 35
1, 1220120, Note_on_c, 0, 53, 63
1, 1220145, Note_on_c, 0, 56, 70
1, 1220167, Note_on_c, 0, 72, 74
1, 1220183, Note_on_c, 0, 77, 66
1, 1220188, Note_on_c, 0, 60, 69
1, 1220205, Note_on_c, 0, 65, 90
1, 1220207, Note_on_c, 0, 80, 79
1, 1220223, Note_on_c, 0, 72, 0
1, 1220232, Note_on_c, 0, 65, 0
1, 1220234, Note_on_c, 0, 84, 99
1, 1220247, Note_on_c, 0, 53, 0
1, 1220250, Note_on_c, 0, 60, 0
1, 1220252, Note_on_c, 0, 61, 0
1, 1220253, Note_on_c, 0, 77, 0
1, 1220261, Note_on_c, 0, 80, 0
1, 1220263, Note_on_c, 0, 56, 0
1, 1220283, Note_on_c, 0, 84, 0
1, 1220296, Control_c, 0, 64, 123
1, 1220313, Control_c, 0, 64, 83
1, 1220333, Control_c, 0, 64, 36
1, 1220352, Control_c, 0, 64, 0
1, 1220480, Control_c, 0, 64, 49
1, 1220498, Note_on_c, 0, 58, 99
1, 1220499, Note_on_c, 0, 46, 90
1, 1220499, Control_c, 0, 64, 85
1, 1220511, Note_on_c, 0, 32, 73
1, 1220514, Note_on_c, 0, 44, 74
1, 1220517, Control_c, 0, 64, 118
1, 1220518, Note_on_c, 0, 34, 69
1, 1220535, Note_on_c, 0, 46, 0
1, 1220536, Control_c, 0, 64, 127
1, 1220542, Note_on_c, 0, 32, 0
1, 1220545, Note_on_c, 0, 44, 0
1, 1220545, Note_on_c, 0, 58, 0
1, 1220554, Note_on_c, 0, 34, 0
1, 1220812, Note_on_c, 0, 46, 75
1, 1220850, Note_on_c, 0, 49, 73
1, 1220877, Note_on_c, 0, 70, 72
1, 1220912, Note_on_c, 0, 46, 0
1, 1220916, Note_on_c, 0, 54, 74
1, 1220923, Note_on_c, 0, 73, 78
1, 1220935, Note_on_c, 0, 78, 80
1, 1220935, Note_on_c, 0, 61, 89
1, 1220954, Note_on_c, 0, 70, 0
1, 1220959, Note_on_c, 0, 82, 91
1, 1220964, Note_on_c, 0, 61, 0
1, 1220967, Note_on_c, 0, 49, 0
1, 1220970, Note_on_c, 0, 73, 0
1, 1220978, Note_on_c, 0, 54, 0
1, 1220987, Note_on_c, 0, 78, 0
1, 1221001, Note_on_c, 0, 82, 0
1, 1221028, Control_c, 0, 64, 104
1, 1221046, Control_c, 0, 64, 59
1, 1221064, Control_c, 0, 64, 0
1, 1221237, Note_on_c, 0, 60, 106
1, 1221243, Note_on_c, 0, 48, 107
1, 1221243, Note_on_c, 0, 36, 84
1, 1221276, Note_on_c, 0, 43, 49
1, 1221288, Control_c, 0, 64, 21
1, 1221306, Control_c, 0, 64, 40
1, 1221313, Note_on_c, 0, 36, 0
1, 1221316, Note_on_c, 0, 43, 0
1, 1221323, Control_c, 0, 64, 64
1, 1221327, Note_on_c, 0, 60, 0
1, 1221330, Note_on_c, 0, 48, 0
1, 1221342, Control_c, 0, 64, 86
1, 1221361, Control_c, 0, 64, 116
1, 1221366, Poly_aftertouch_c, 0, 40, 0
1, 1221373, Poly_aftertouch_c, 0, 38, 0
1, 1221379, Control_c, 0, 64, 127
1, 1221590, Note_on_c, 0, 48, 57
1, 1221638, Note_on_c, 0, 53, 54
1, 1221644, Note_on_c, 0, 48, 0
1, 1221677, Note_on_c, 0, 68, 72
1, 1221700, Note_on_c, 0, 56, 65
1, 1221717, Note_on_c, 0, 53, 0
1, 1221720, Note_on_c, 0, 72, 62
1, 1221729, Note_on_c, 0, 77, 80
1, 1221737, Note_on_c, 0, 68, 0
1, 1221757, Note_on_c, 0, 65, 77
1, 1221759, Note_on_c, 0, 80, 95
1, 1221768, Note_on_c, 0, 72, 0
1, 1221784, Note_on_c, 0, 56, 0
1, 1221789, Note_on_c, 0, 65, 0
1, 1221789, Note_on_c, 0, 77, 0
1, 1221805, Note_on_c, 0, 80, 0
1, 1221925, Control_c, 0, 64, 121
1, 1221943, Control_c, 0, 64, 78
1, 1221963, Control_c, 0, 64, 23
1, 1221981, Control_c, 0, 64, 0
1, 1222031, Note_on_c, 0, 48, 96
1, 1222031, Note_on_c, 0, 60, 92
1, 1222036, Note_on_c, 0, 59, 97
1, 1222036, Note_on_c, 0, 36, 85
1, 1222055, Control_c, 0, 64, 34
1, 1222075, Control_c, 0, 64, 73
1, 1222076, Note_on_c, 0, 36, 0
1, 1222089, Note_on_c, 0, 59, 0
1, 1222090, Control_c, 0, 64, 114
1, 1222102, Note_on_c, 0, 48, 0
1, 1222109, Control_c, 0, 64, 127
1, 1222171, Note_on_c, 0, 60, 0
1, 1222406, Note_on_c, 0, 52, 60
1, 1222426, Note_on_c, 0, 55, 68
1, 1222490, Note_on_c, 0, 60, 80
1, 1222498, Note_on_c, 0, 64, 97
1, 1222509, Note_on_c, 0, 52, 0
1, 1222532, Note_on_c, 0, 67, 108
1, 1222534, Note_on_c, 0, 79, 98
1, 1222534, Note_on_c, 0, 70, 99
1, 1222535, Note_on_c, 0, 76, 92
1, 1222535, Control_c, 0, 64, 104
1, 1222537, Note_on_c, 0, 55, 0
1, 1222542, Note_on_c, 0, 64, 0
1, 1222553, Note_on_c, 0, 60, 0
1, 1222556, Control_c, 0, 64, 70
1, 1222560, Note_on_c, 0, 70, 0
1, 1222561, Note_on_c, 0, 76, 0
1, 1222563, Note_on_c, 0, 67, 0
1, 1222576, Control_c, 0, 64, 38
1, 1222578, Note_on_c, 0, 79, 0
1, 1222602, Control_c, 0, 64, 23
1, 1222769, Control_c, 0, 64, 19
1, 1222786, Note_on_c, 0, 41, 67
1, 1222807, Control_c, 0, 64, 26
1, 1222824, Note_on_c, 0, 48, 77
1, 1222824, Control_c, 0, 64, 56
1, 1222840, Control_c, 0, 64, 93
1, 1222843, Note_on_c, 0, 65, 98
1, 1222844, Note_on_c, 0, 41, 0
1, 1222844, Note_on_c, 0, 68, 91
1, 1222845, Note_on_c, 0, 77, 89
1, 1222850, Note_on_c, 0, 56, 99
1, 1222852, Note_on_c, 0, 72, 84
1, 1222859, Control_c, 0, 64, 127
1, 1222892, Note_on_c, 0, 65, 0
1, 1222899, Note_on_c, 0, 56, 0
1, 1222900, Note_on_c, 0, 57, 36
1, 1222901, Note_on_c, 0, 48, 0
1, 1222901, Note_on_c, 0, 57, 0
1, 1222904, Note_on_c, 0, 77, 0
1, 1222904, Note_on_c, 0, 68, 0
1, 1222909, Note_on_c, 0, 72, 0
1, 1222944, Poly_aftertouch_c, 0, 57, 0
1, 1223010, Control_c, 0, 64, 108
1, 1223027, Control_c, 0, 64, 71
1, 1223047, Control_c, 0, 64, 38
1, 1223064, Control_c, 0, 64, 25
1, 1223325, Note_on_c, 0, 65, 102
1, 1223325, Note_on_c, 0, 53, 97
1, 1223327, Note_on_c, 0, 73, 95
1, 1223327, Note_on_c, 0, 70, 91
1, 1223328, Note_on_c, 0, 46, 88
1, 1223329, Note_on_c, 0, 77, 95
1, 1223352, Note_on_c, 0, 65, 0
1, 1223352, Note_on_c, 0, 70, 0
1, 1223353, Note_on_c, 0, 73, 0
1, 1223356, Note_on_c, 0, 53, 0
1, 1223365, Note_on_c, 0, 46, 0
1, 1223366, Note_on_c, 0, 77, 0
1, 1223472, Control_c, 0, 64, 21
1, 1223557, Control_c, 0, 64, 40
1, 1223575, Control_c, 0, 64, 73
1, 1223591, Control_c, 0, 64, 116
1, 1223593, Note_on_c, 0, 65, 99
1, 1223596, Note_on_c, 0, 53, 108
1, 1223597, Note_on_c, 0, 77, 89
1, 1223598, Note_on_c, 0, 41, 87
1, 1223598, Note_on_c, 0, 68, 92
1, 1223600, Note_on_c, 0, 72, 86
1, 1223620, Control_c, 0, 64, 127
1, 1223635, Note_on_c, 0, 41, 0
1, 1223636, Note_on_c, 0, 53, 0
1, 1223644, Note_on_c, 0, 77, 0
1, 1223653, Note_on_c, 0, 65, 0
1, 1223662, Note_on_c, 0, 72, 0
1, 1223668, Note_on_c, 0, 68, 0
1, 1223710, Poly_aftertouch_c, 0, 48, 0
1, 1223741, Control_c, 0, 64, 108
1, 1223762, Control_c, 0, 64, 72
1, 1223778, Control_c, 0, 64, 38
1, 1223795, Control_c, 0, 64, 25
1, 1224053, Note_on_c, 0, 53, 101
1, 1224056, Note_on_c, 0, 65, 95
1, 1224057, Note_on_c, 0, 58, 88
1, 1224057, Note_on_c, 0, 61, 88
1, 1224057, Note_on_c, 0, 41, 97
1, 1224058, Note_on_c, 0, 34, 86
1, 1224084, Note_on_c, 0, 58, 0
1, 1224086, Note_on_c, 0, 61, 0
1, 1224093, Note_on_c, 0, 41, 0
1, 1224095, Note_on_c, 0, 53, 0
1, 1224099, Note_on_c, 0, 34, 0
1, 1224107, Note_on_c, 0, 65, 0
1, 1224242, Control_c, 0, 64, 21
1, 1224278, Control_c, 0, 64, 27
1, 1224299, Control_c, 0, 64, 55
1, 1224316, Control_c, 0, 64, 90
1, 1224327, Note_on_c, 0, 53, 96
1, 1224328, Note_on_c, 0, 65, 89
1, 1224330, Note_on_c, 0, 41, 111
1, 1224331, Note_on_c, 0, 56, 91
1, 1224332, Note_on_c, 0, 29, 89
1, 1224332, Control_c, 0, 64, 127
1, 1224335, Note_on_c, 0, 60, 85
1, 1224378, Note_on_c, 0, 29, 0
1, 1224384, Note_on_c, 0, 41, 0
1, 1224396, Note_on_c, 0, 53, 0
1, 1224403, Note_on_c, 0, 65, 0
1, 1224423, Note_on_c, 0, 60, 0
1, 1224424, Note_on_c, 0, 56, 0
1, 1224446, Control_c, 0, 64, 104
1, 1224474, Control_c, 0, 64, 63
1, 1224494, Control_c, 0, 64, 0
1, 1225084, Control_c, 0, 64, 35
1, 1225088, Note_on_c, 0, 65, 89
1, 1225088, Note_on_c, 0, 53, 96
1, 1225089, Note_on_c, 0, 56, 94
1, 1225090, Note_on_c, 0, 41, 110
1, 1225093, Note_on_c, 0, 29, 86
1, 1225098, Note_on_c, 0, 60, 85
1, 1225102, Control_c, 0, 64, 68
1, 1225122, Control_c, 0, 64, 105
1, 1225139, Control_c, 0, 64, 127
1, 1225154, Note_on_c, 0, 29, 0
1, 1225155, Note_on_c, 0, 41, 0
1, 1225161, Note_on_c, 0, 53, 0
1, 1225163, Note_on_c, 0, 65, 0
1, 1225180, Note_on_c, 0, 56, 0
1, 1225182, Note_on_c, 0, 60, 0
1, 1225214, Poly_aftertouch_c, 0, 36, 0
1, 1225409, Control_c, 0, 64, 119
1, 1225428, Control_c, 0, 64, 101
1, 1225446, Control_c, 0, 64, 86
1, 1225463, Control_c, 0, 64, 74
1, 1225482, Control_c, 0, 64, 67
1, 1225501, Control_c, 0, 64, 63
1, 1225519, Control_c, 0, 64, 60
1, 1225539, Control_c, 0, 64, 56
1, 1225556, Control_c, 0, 64, 52
1, 1225576, Control_c, 0, 64, 47
1, 1225594, Control_c, 0, 64, 44
1, 1225632, Control_c, 0, 64, 41
1, 1225686, Control_c, 0, 64, 37
1, 1225817, Control_c, 0, 64, 33
1, 1226187, Control_c, 0, 67, 8
1, 1226297, Control_c, 0, 67, 13
1, 1226363, Control_c, 0, 67, 18
1, 1226418, Control_c, 0, 67, 23
1, 1226475, Control_c, 0, 64, 38
1, 1226492, Control_c, 0, 64, 41
1, 1226512, Control_c, 0, 64, 43
1, 1226529, Control_c, 0, 64, 46
1, 1226548, Control_c, 0, 64, 50
1, 1226567, Control_c, 0, 64, 56
1, 1226586, Control_c, 0, 64, 61
1, 1226602, Control_c, 0, 64, 65
1, 1226621, Control_c, 0, 64, 69
1, 1226641, Control_c, 0, 64, 76
1, 1226659, Control_c, 0, 64, 84
1, 1226678, Control_c, 0, 64, 93
1, 1226696, Control_c, 0, 64, 103
1, 1226716, Control_c, 0, 64, 111
1, 1226733, Control_c, 0, 64, 118
1, 1226753, Control_c, 0, 64, 124
1, 1226863, Control_c, 0, 67, 19
1, 1227085, Control_c, 0, 67, 15
1, 1227215, Control_c, 0, 67, 11
1, 1227316, Control_c, 0, 67, 0
1, 1227317, Note_on_c, 0, 65, 57
1, 1227332, Note_on_c, 0, 53, 28
1, 1227332, Note_on_c, 0, 61, 43
1, 1227345, Note_on_c, 0, 56, 39
1, 1227353, Note_on_c, 0, 37, 27
1, 1227354, Note_on_c, 0, 49, 28
1, 1227581, Note_on_c, 0, 61, 0
1, 1227597, Note_on_c, 0, 56, 0
1, 1227679, Note_on_c, 0, 37, 0
1, 1227693, Note_on_c, 0, 53, 0
1, 1227761, Note_on_c, 0, 49, 0
1, 1228263, Note_on_c, 0, 68, 73
1, 1228265, Note_on_c, 0, 63, 53
1, 1228270, Note_on_c, 0, 56, 51
1, 1228312, Note_on_c, 0, 48, 33
1, 1228315, Note_on_c, 0, 36, 36
1, 1228388, Note_on_c, 0, 65, 0
1, 1228532, Control_c, 0, 64, 105
1, 1228548, Control_c, 0, 64, 81
1, 1228568, Control_c, 0, 64, 57
1, 1228587, Control_c, 0, 64, 42
1, 1228605, Control_c, 0, 64, 37
1, 1228624, Control_c, 0, 64, 32
1, 1228642, Control_c, 0, 64, 28
1, 1228752, Control_c, 0, 64, 38
1, 1228772, Control_c, 0, 64, 46
1, 1228791, Control_c, 0, 64, 56
1, 1228810, Control_c, 0, 64, 68
1, 1228828, Control_c, 0, 64, 78
1, 1228845, Control_c, 0, 64, 89
1, 1228864, Control_c, 0, 64, 101
1, 1228882, Control_c, 0, 64, 113
1, 1228901, Control_c, 0, 64, 124
1, 1229185, Note_on_c, 0, 48, 0
1, 1229230, Note_on_c, 0, 56, 0
1, 1229303, Note_on_c, 0, 63, 0
1, 1229693, Note_on_c, 0, 34, 38
1, 1229721, Note_on_c, 0, 46, 31
1, 1229722, Note_on_c, 0, 70, 63
1, 1229728, Note_on_c, 0, 66, 50
1, 1229739, Note_on_c, 0, 58, 34
1, 1229772, Note_on_c, 0, 68, 0
1, 1229857, Note_on_c, 0, 36, 0
1, 1229972, Note_on_c, 0, 58, 0
1, 1229977, Note_on_c, 0, 46, 0
1, 1230181, Note_on_c, 0, 72, 86
1, 1230192, Note_on_c, 0, 68, 69
1, 1230196, Note_on_c, 0, 60, 68
1, 1230204, Note_on_c, 0, 44, 47
1, 1230208, Note_on_c, 0, 66, 0
1, 1230210, Note_on_c, 0, 32, 53
1, 1230266, Note_on_c, 0, 70, 0
1, 1230277, Note_on_c, 0, 44, 0
1, 1230298, Note_on_c, 0, 60, 0
1, 1230313, Note_on_c, 0, 72, 0
1, 1230524, Note_on_c, 0, 73, 71
1, 1230530, Poly_aftertouch_c, 0, 34, 20
1, 1230533, Note_on_c, 0, 34, 0
1, 1230533, Poly_aftertouch_c, 0, 34, 0
1, 1230537, Note_on_c, 0, 42, 42
1, 1230561, Note_on_c, 0, 30, 46
1, 1230567, Note_on_c, 0, 61, 53
1, 1230572, Note_on_c, 0, 70, 50
1, 1230606, Control_c, 0, 64, 118
1, 1230612, Note_on_c, 0, 68, 0
1, 1230618, Note_on_c, 0, 32, 0
1, 1230624, Control_c, 0, 64, 83
1, 1230644, Control_c, 0, 64, 41
1, 1230662, Control_c, 0, 64, 0
1, 1230772, Control_c, 0, 64, 18
1, 1230791, Control_c, 0, 64, 43
1, 1230802, Note_on_c, 0, 70, 0
1, 1230809, Control_c, 0, 64, 66
1, 1230810, Control_c, 0, 67, 8
1, 1230828, Control_c, 0, 64, 89
1, 1230847, Control_c, 0, 64, 114
1, 1230852, Note_on_c, 0, 61, 0
1, 1230865, Control_c, 0, 64, 127
1, 1230901, Control_c, 0, 67, 12
1, 1230920, Control_c, 0, 67, 16
1, 1230959, Control_c, 0, 67, 21
1, 1231079, Note_on_c, 0, 73, 0
1, 1231083, Note_on_c, 0, 70, 65
1, 1231092, Note_on_c, 0, 58, 58
1, 1231117, Note_on_c, 0, 66, 57
1, 1231186, Note_on_c, 0, 66, 0
1, 1231197, Note_on_c, 0, 58, 0
1, 1231248, Note_on_c, 0, 70, 0
1, 1231390, Note_on_c, 0, 66, 57
1, 1231395, Note_on_c, 0, 54, 55
1, 1231411, Note_on_c, 0, 63, 55
1, 1231413, Control_c, 0, 64, 123
1, 1231431, Control_c, 0, 64, 87
1, 1231450, Control_c, 0, 64, 50
1, 1231466, Control_c, 0, 64, 34
1, 1231505, Control_c, 0, 64, 53
1, 1231522, Control_c, 0, 64, 72
1, 1231524, Control_c, 0, 67, 27
1, 1231541, Control_c, 0, 64, 93
1, 1231561, Control_c, 0, 64, 123
1, 1231562, Control_c, 0, 67, 33
1, 1231578, Control_c, 0, 64, 127
1, 1231591, Note_on_c, 0, 63, 0
1, 1231596, Control_c, 0, 67, 41
1, 1231617, Control_c, 0, 67, 50
1, 1231634, Control_c, 0, 67, 57
1, 1231652, Control_c, 0, 67, 62
1, 1231670, Control_c, 0, 67, 66
1, 1231707, Note_on_c, 0, 30, 0
1, 1231707, Control_c, 0, 67, 73
1, 1231727, Control_c, 0, 67, 77
1, 1231739, Note_on_c, 0, 42, 0
1, 1231744, Control_c, 0, 67, 82
1, 1231750, Note_on_c, 0, 54, 0
1, 1231764, Control_c, 0, 67, 87
1, 1231781, Control_c, 0, 67, 92
1, 1231801, Control_c, 0, 67, 98
1, 1231819, Control_c, 0, 67, 103
1, 1231837, Control_c, 0, 67, 109
1, 1231874, Control_c, 0, 67, 115
1, 1231893, Control_c, 0, 64, 122
1, 1231911, Control_c, 0, 64, 88
1, 1231912, Control_c, 0, 67, 123
1, 1231916, Note_on_c, 0, 65, 67
1, 1231916, Note_on_c, 0, 61, 59
1, 1231925, Note_on_c, 0, 53, 52
1, 1231930, Control_c, 0, 64, 56
1, 1231932, Note_on_c, 0, 31, 42
1, 1231932, Note_on_c, 0, 43, 41
1, 1231933, Control_c, 0, 67, 127
1, 1231959, Control_c, 0, 64, 51
1, 1231977, Control_c, 0, 64, 60
1, 1231994, Note_on_c, 0, 66, 0
1, 1231997, Control_c, 0, 64, 71
1, 1232016, Control_c, 0, 64, 88
1, 1232031, Control_c, 0, 64, 112
1, 1232032, Note_on_c, 0, 43, 0
1, 1232040, Note_on_c, 0, 61, 0
1, 1232050, Control_c, 0, 64, 127
1, 1232080, Note_on_c, 0, 53, 0
1, 1232090, Note_on_c, 0, 65, 0
1, 1232275, Note_on_c, 0, 65, 53
1, 1232286, Note_on_c, 0, 53, 38
1, 1232306, Note_on_c, 0, 61, 50
1, 1232312, Note_on_c, 0, 44, 32
1, 1232332, Note_on_c, 0, 32, 36
1, 1232402, Control_c, 0, 64, 118
1, 1232421, Control_c, 0, 64, 97
1, 1232427, Note_on_c, 0, 31, 0
1, 1232438, Control_c, 0, 64, 71
1, 1232458, Control_c, 0, 64, 44
1, 1232477, Control_c, 0, 64, 23
1, 1232496, Control_c, 0, 64, 18
1, 1232514, Control_c, 0, 64, 8
1, 1232532, Control_c, 0, 64, 0
1, 1232643, Control_c, 0, 64, 22
1, 1232662, Control_c, 0, 64, 39
1, 1232680, Control_c, 0, 64, 58
1, 1232700, Control_c, 0, 64, 79
1, 1232718, Control_c, 0, 64, 93
1, 1232737, Control_c, 0, 64, 107
1, 1232750, Note_on_c, 0, 61, 0
1, 1232754, Control_c, 0, 64, 117
1, 1232759, Note_on_c, 0, 53, 0
1, 1232772, Control_c, 0, 64, 125
1, 1233244, Note_on_c, 0, 63, 49
1, 1233256, Note_on_c, 0, 51, 33
1, 1233256, Note_on_c, 0, 60, 25
1, 1233338, Control_c, 0, 64, 111
1, 1233356, Control_c, 0, 64, 86
1, 1233375, Control_c, 0, 64, 58
1, 1233393, Control_c, 0, 64, 29
1, 1233407, Note_on_c, 0, 65, 0
1, 1233411, Control_c, 0, 64, 20
1, 1233431, Control_c, 0, 64, 12
1, 1233449, Control_c, 0, 64, 0
1, 1233523, Control_c, 0, 64, 28
1, 1233541, Control_c, 0, 64, 47
1, 1233560, Control_c, 0, 64, 67
1, 1233578, Control_c, 0, 64, 84
1, 1233597, Control_c, 0, 64, 101
1, 1233616, Control_c, 0, 64, 118
1, 1233635, Control_c, 0, 64, 127
1, 1233666, Note_on_c, 0, 32, 0
1, 1233696, Note_on_c, 0, 60, 0
1, 1233789, Note_on_c, 0, 51, 0
1, 1233802, Note_on_c, 0, 44, 0
1, 1233955, Note_on_c, 0, 63, 0
1, 1234185, Note_on_c, 0, 65, 62
1, 1234196, Note_on_c, 0, 53, 44
1, 1234204, Note_on_c, 0, 61, 54
1, 1234204, Note_on_c, 0, 49, 37
1, 1234210, Note_on_c, 0, 56, 44
1, 1234231, Note_on_c, 0, 37, 37
1, 1234273, Control_c, 0, 64, 116
1, 1234274, Control_c, 0, 67, 121
1, 1234291, Control_c, 0, 64, 86
1, 1234310, Control_c, 0, 64, 53
1, 1234314, Control_c, 0, 67, 116
1, 1234329, Control_c, 0, 64, 31
1, 1234329, Control_c, 0, 67, 111
1, 1234347, Control_c, 0, 67, 103
1, 1234367, Control_c, 0, 67, 88
1, 1234386, Control_c, 0, 64, 38
1, 1234387, Control_c, 0, 67, 65
1, 1234405, Control_c, 0, 64, 53
1, 1234407, Control_c, 0, 67, 38
1, 1234423, Control_c, 0, 64, 68
1, 1234424, Control_c, 0, 67, 12
1, 1234441, Control_c, 0, 64, 84
1, 1234442, Control_c, 0, 67, 0
1, 1234458, Control_c, 0, 64, 107
1, 1234477, Control_c, 0, 64, 127
1, 1234499, Note_on_c, 0, 61, 0
1, 1234506, Note_on_c, 0, 56, 0
1, 1234599, Note_on_c, 0, 53, 0
1, 1234998, Note_on_c, 0, 49, 0
1, 1235186, Note_on_c, 0, 68, 75
1, 1235192, Note_on_c, 0, 63, 57
1, 1235195, Note_on_c, 0, 56, 53
1, 1235221, Note_on_c, 0, 36, 42
1, 1235226, Note_on_c, 0, 48, 34
1, 1235276, Note_on_c, 0, 65, 0
1, 1235390, Note_on_c, 0, 37, 0
1, 1235450, Control_c, 0, 64, 105
1, 1235469, Control_c, 0, 64, 78
1, 1235487, Control_c, 0, 64, 51
1, 1235507, Control_c, 0, 64, 32
1, 1235524, Control_c, 0, 64, 26
1, 1235543, Control_c, 0, 64, 19
1, 1235579, Control_c, 0, 64, 0
1, 1235636, Control_c, 0, 64, 15
1, 1235654, Control_c, 0, 64, 34
1, 1235673, Control_c, 0, 64, 49
1, 1235699, Control_c, 0, 64, 68
1, 1235718, Control_c, 0, 64, 85
1, 1235738, Control_c, 0, 64, 104
1, 1235755, Control_c, 0, 64, 124
1, 1235918, Note_on_c, 0, 56, 0
1, 1236053, Note_on_c, 0, 63, 0
1, 1236087, Note_on_c, 0, 48, 0
1, 1236245, Note_on_c, 0, 68, 0
1, 1236564, Note_on_c, 0, 73, 74
1, 1236578, Note_on_c, 0, 46, 41
1, 1236588, Note_on_c, 0, 34, 42
1, 1236590, Note_on_c, 0, 61, 58
1, 1236594, Note_on_c, 0, 70, 51
1, 1236656, Control_c, 0, 64, 106
1, 1236674, Control_c, 0, 64, 85
1, 1236680, Note_on_c, 0, 36, 0
1, 1236693, Control_c, 0, 64, 83
1, 1236708, Control_c, 0, 64, 92
1, 1236728, Control_c, 0, 64, 105
1, 1236747, Control_c, 0, 64, 124
1, 1236785, Note_on_c, 0, 46, 0
1, 1236834, Note_on_c, 0, 70, 0
1, 1236840, Note_on_c, 0, 61, 0
1, 1237046, Note_on_c, 0, 75, 83
1, 1237064, Note_on_c, 0, 72, 63
1, 1237069, Note_on_c, 0, 63, 70
1, 1237073, Note_on_c, 0, 30, 54
1, 1237094, Note_on_c, 0, 42, 40
1, 1237129, Note_on_c, 0, 34, 0
1, 1237139, Note_on_c, 0, 73, 0
1, 1237146, Note_on_c, 0, 63, 0
1, 1237218, Note_on_c, 0, 75, 0
1, 1237302, Note_on_c, 0, 42, 0
1, 1237302, Control_c, 0, 67, 8
1, 1237451, Note_on_c, 0, 77, 80
1, 1237454, Note_on_c, 0, 29, 49
1, 1237462, Note_on_c, 0, 73, 60
1, 1237467, Note_on_c, 0, 65, 54
1, 1237474, Note_on_c, 0, 41, 42
1, 1237479, Note_on_c, 0, 68, 48
1, 1237541, Note_on_c, 0, 30, 0
1, 1237571, Control_c, 0, 64, 108
1, 1237572, Note_on_c, 0, 72, 0
1, 1237590, Control_c, 0, 64, 71
1, 1237592, Control_c, 0, 67, 12
1, 1237607, Control_c, 0, 64, 35
1, 1237626, Control_c, 0, 64, 17
1, 1237644, Control_c, 0, 67, 16
1, 1237682, Control_c, 0, 64, 28
1, 1237702, Control_c, 0, 64, 51
1, 1237719, Control_c, 0, 64, 75
1, 1237720, Control_c, 0, 67, 20
1, 1237738, Control_c, 0, 64, 100
1, 1237750, Note_on_c, 0, 77, 0
1, 1237755, Note_on_c, 0, 73, 0
1, 1237755, Control_c, 0, 64, 127
1, 1237781, Note_on_c, 0, 65, 0
1, 1237793, Control_c, 0, 67, 25
1, 1237849, Control_c, 0, 67, 30
1, 1237868, Control_c, 0, 67, 37
1, 1237887, Control_c, 0, 67, 42
1, 1237916, Note_on_c, 0, 41, 0
1, 1237943, Control_c, 0, 67, 46
1, 1238016, Control_c, 0, 67, 52
1, 1238034, Control_c, 0, 67, 56
1, 1238041, Note_on_c, 0, 73, 73
1, 1238053, Control_c, 0, 67, 60
1, 1238072, Note_on_c, 0, 61, 52
1, 1238076, Note_on_c, 0, 68, 0
1, 1238111, Control_c, 0, 67, 64
1, 1238154, Note_on_c, 0, 61, 0
1, 1238185, Control_c, 0, 67, 68
1, 1238220, Control_c, 0, 67, 73
1, 1238239, Control_c, 0, 67, 77
1, 1238276, Control_c, 0, 67, 85
1, 1238312, Control_c, 0, 67, 92
1, 1238330, Control_c, 0, 67, 97
1, 1238347, Control_c, 0, 67, 103
1, 1238354, Note_on_c, 0, 66, 52
1, 1238361, Note_on_c, 0, 42, 43
1, 1238366, Control_c, 0, 67, 111
1, 1238368, Note_on_c, 0, 70, 65
1, 1238383, Note_on_c, 0, 58, 47
1, 1238383, Note_on_c, 0, 30, 36
1, 1238386, Control_c, 0, 67, 117
1, 1238408, Note_on_c, 0, 73, 0
1, 1238424, Control_c, 0, 67, 123
1, 1238443, Control_c, 0, 64, 96
1, 1238446, Control_c, 0, 67, 127
1, 1238462, Control_c, 0, 64, 63
1, 1238481, Control_c, 0, 64, 30
1, 1238507, Control_c, 0, 64, 20
1, 1238508, Note_on_c, 0, 29, 0
1, 1238563, Control_c, 0, 64, 36
1, 1238581, Control_c, 0, 64, 55
1, 1238600, Control_c, 0, 64, 77
1, 1238619, Control_c, 0, 64, 97
1, 1238634, Note_on_c, 0, 66, 0
1, 1238636, Control_c, 0, 64, 121
1, 1238656, Control_c, 0, 64, 127
1, 1238709, Note_on_c, 0, 58, 0
1, 1238765, Note_on_c, 0, 70, 0
1, 1238917, Note_on_c, 0, 66, 66
1, 1238918, Note_on_c, 0, 54, 57
1, 1238922, Note_on_c, 0, 63, 52
1, 1238976, Note_on_c, 0, 42, 0
1, 1239034, Note_on_c, 0, 63, 0
1, 1239135, Note_on_c, 0, 54, 0
1, 1239296, Note_on_c, 0, 65, 55
1, 1239305, Note_on_c, 0, 43, 36
1, 1239310, Note_on_c, 0, 61, 51
1, 1239311, Note_on_c, 0, 53, 38
1, 1239317, Note_on_c, 0, 31, 41
1, 1239375, Note_on_c, 0, 66, 0
1, 1239399, Control_c, 0, 64, 121
1, 1239410, Note_on_c, 0, 30, 0
1, 1239415, Control_c, 0, 64, 96
1, 1239443, Control_c, 0, 64, 67
1, 1239461, Control_c, 0, 64, 36
1, 1239479, Control_c, 0, 64, 17
1, 1239499, Control_c, 0, 64, 9
1, 1239516, Control_c, 0, 64, 0
1, 1239592, Control_c, 0, 64, 14
1, 1239610, Control_c, 0, 64, 37
1, 1239628, Control_c, 0, 64, 52
1, 1239647, Control_c, 0, 64, 71
1, 1239665, Control_c, 0, 64, 87
1, 1239684, Control_c, 0, 64, 103
1, 1239702, Control_c, 0, 64, 116
1, 1239721, Control_c, 0, 64, 124
1, 1239777, Note_on_c, 0, 53, 0
1, 1239781, Note_on_c, 0, 61, 0
1, 1239789, Note_on_c, 0, 43, 0
1, 1240247, Note_on_c, 0, 44, 33
1, 1240247, Note_on_c, 0, 63, 42
1, 1240269, Note_on_c, 0, 51, 34
1, 1240273, Note_on_c, 0, 60, 35
1, 1240305, Note_on_c, 0, 32, 32
1, 1240312, Control_c, 0, 64, 101
1, 1240333, Control_c, 0, 64, 73
1, 1240351, Control_c, 0, 64, 43
1, 1240359, Note_on_c, 0, 31, 0
1, 1240379, Control_c, 0, 64, 25
1, 1240380, Note_on_c, 0, 65, 0
1, 1240472, Control_c, 0, 64, 35
1, 1240490, Control_c, 0, 64, 53
1, 1240510, Control_c, 0, 64, 69
1, 1240527, Control_c, 0, 64, 82
1, 1240547, Control_c, 0, 64, 98
1, 1240565, Control_c, 0, 64, 112
1, 1240582, Control_c, 0, 64, 124
1, 1240688, Note_on_c, 0, 44, 0
1, 1240743, Note_on_c, 0, 32, 0
1, 1240758, Note_on_c, 0, 51, 0
1, 1240783, Note_on_c, 0, 60, 0
1, 1240872, Note_on_c, 0, 63, 0
1, 1241156, Control_c, 0, 64, 120
1, 1241176, Control_c, 0, 64, 95
1, 1241189, Note_on_c, 0, 27, 51
1, 1241193, Control_c, 0, 64, 68
1, 1241197, Note_on_c, 0, 63, 45
1, 1241202, Note_on_c, 0, 39, 32
1, 1241210, Note_on_c, 0, 54, 37
1, 1241212, Control_c, 0, 64, 46
1, 1241215, Note_on_c, 0, 58, 35
1, 1241231, Control_c, 0, 64, 41
1, 1241233, Note_on_c, 0, 27, 0
1, 1241248, Note_on_c, 0, 39, 0
1, 1241332, Control_c, 0, 64, 37
1, 1241465, Note_on_c, 0, 39, 44
1, 1241469, Note_on_c, 0, 27, 49
1, 1241503, Note_on_c, 0, 39, 0
1, 1241514, Note_on_c, 0, 27, 0
1, 1241717, Note_on_c, 0, 39, 52
1, 1241724, Note_on_c, 0, 27, 49
1, 1241758, Note_on_c, 0, 39, 0
1, 1241767, Note_on_c, 0, 27, 0
1, 1241814, Note_on_c, 0, 58, 0
1, 1241880, Note_on_c, 0, 63, 0
1, 1242000, Control_c, 0, 64, 40
1, 1242020, Control_c, 0, 64, 45
1, 1242037, Control_c, 0, 64, 49
1, 1242057, Control_c, 0, 64, 55
1, 1242061, Note_on_c, 0, 27, 39
1, 1242068, Note_on_c, 0, 66, 57
1, 1242070, Note_on_c, 0, 39, 28
1, 1242073, Control_c, 0, 64, 61
1, 1242073, Note_on_c, 0, 63, 37
1, 1242079, Note_on_c, 0, 58, 25
1, 1242091, Control_c, 0, 64, 68
1, 1242111, Control_c, 0, 64, 75
1, 1242129, Control_c, 0, 64, 84
1, 1242148, Control_c, 0, 64, 96
1, 1242167, Control_c, 0, 64, 109
1, 1242185, Control_c, 0, 64, 120
1, 1242205, Control_c, 0, 64, 127
1, 1242207, Control_c, 0, 67, 122
1, 1242222, Control_c, 0, 67, 117
1, 1242241, Control_c, 0, 67, 113
1, 1242267, Control_c, 0, 67, 105
1, 1242286, Control_c, 0, 67, 92
1, 1242305, Control_c, 0, 67, 73
1, 1242319, Note_on_c, 0, 39, 0
1, 1242323, Control_c, 0, 67, 51
1, 1242328, Note_on_c, 0, 54, 0
1, 1242342, Control_c, 0, 67, 29
1, 1242361, Control_c, 0, 67, 11
1, 1242380, Control_c, 0, 67, 0
1, 1242388, Note_on_c, 0, 27, 0
1, 1242833, Note_on_c, 0, 39, 32
1, 1242835, Note_on_c, 0, 27, 37
1, 1242898, Note_on_c, 0, 39, 0
1, 1242947, Note_on_c, 0, 63, 0
1, 1242954, Note_on_c, 0, 27, 0
1, 1243004, Note_on_c, 0, 58, 0
1, 1243101, Note_on_c, 0, 39, 30
1, 1243101, Note_on_c, 0, 27, 49
1, 1243150, Note_on_c, 0, 39, 0
1, 1243173, Note_on_c, 0, 27, 0
1, 1243332, Note_on_c, 0, 65, 60
1, 1243337, Note_on_c, 0, 39, 31
1, 1243347, Note_on_c, 0, 59, 44
1, 1243348, Note_on_c, 0, 27, 44
1, 1243348, Note_on_c, 0, 62, 51
1, 1243355, Note_on_c, 0, 56, 49
1, 1243394, Note_on_c, 0, 66, 0
1, 1243408, Note_on_c, 0, 39, 0
1, 1243427, Note_on_c, 0, 62, 0
1, 1243433, Note_on_c, 0, 27, 0
1, 1243465, Note_on_c, 0, 65, 0
1, 1243481, Note_on_c, 0, 59, 0
1, 1243663, Note_on_c, 0, 65, 45
1, 1243663, Note_on_c, 0, 27, 44
1, 1243667, Note_on_c, 0, 39, 42
1, 1243669, Note_on_c, 0, 59, 48
1, 1243671, Note_on_c, 0, 68, 63
1, 1243685, Control_c, 0, 64, 93
1, 1243694, Note_on_c, 0, 62, 50
1, 1243704, Control_c, 0, 64, 55
1, 1243723, Control_c, 0, 64, 13
1, 1243797, Control_c, 0, 64, 30
1, 1243815, Control_c, 0, 64, 53
1, 1243818, Note_on_c, 0, 62, 0
1, 1243826, Note_on_c, 0, 65, 0
1, 1243832, Control_c, 0, 64, 78
1, 1243845, Note_on_c, 0, 56, 0
1, 1243851, Control_c, 0, 64, 104
1, 1243858, Note_on_c, 0, 59, 0
1, 1243871, Control_c, 0, 64, 127
1, 1244166, Note_on_c, 0, 39, 0
1, 1244182, Note_on_c, 0, 66, 61
1, 1244182, Note_on_c, 0, 58, 52
1, 1244201, Note_on_c, 0, 27, 0
1, 1244203, Note_on_c, 0, 63, 51
1, 1244220, Note_on_c, 0, 68, 0
1, 1244261, Note_on_c, 0, 58, 0
1, 1244283, Note_on_c, 0, 63, 0
1, 1244288, Note_on_c, 0, 66, 0
1, 1244473, Note_on_c, 0, 71, 77
1, 1244477, Note_on_c, 0, 27, 51
1, 1244484, Note_on_c, 0, 39, 52
1, 1244491, Note_on_c, 0, 68, 65
1, 1244497, Note_on_c, 0, 62, 49
1, 1244500, Note_on_c, 0, 65, 53
1, 1244511, Control_c, 0, 64, 112
1, 1244530, Control_c, 0, 64, 76
1, 1244548, Control_c, 0, 64, 40
1, 1244566, Control_c, 0, 64, 25
1, 1244602, Note_on_c, 0, 39, 0
1, 1244620, Note_on_c, 0, 27, 0
1, 1244621, Control_c, 0, 64, 40
1, 1244641, Control_c, 0, 64, 59
1, 1244659, Control_c, 0, 64, 78
1, 1244678, Control_c, 0, 64, 101
1, 1244695, Control_c, 0, 64, 127
1, 1244707, Note_on_c, 0, 39, 63
1, 1244716, Note_on_c, 0, 27, 54
1, 1244815, Note_on_c, 0, 39, 0
1, 1244822, Note_on_c, 0, 27, 0
1, 1244919, Note_on_c, 0, 62, 0
1, 1244934, Note_on_c, 0, 70, 79
1, 1244938, Note_on_c, 0, 71, 0
1, 1244940, Note_on_c, 0, 39, 54
1, 1244946, Note_on_c, 0, 27, 65
1, 1244958, Note_on_c, 0, 65, 0
1, 1244969, Note_on_c, 0, 68, 0
1, 1245002, Note_on_c, 0, 70, 0
1, 1245046, Note_on_c, 0, 39, 0
1, 1245085, Note_on_c, 0, 27, 0
1, 1245273, Note_on_c, 0, 77, 83
1, 1245279, Note_on_c, 0, 27, 54
1, 1245281, Note_on_c, 0, 74, 63
1, 1245289, Note_on_c, 0, 39, 46
1, 1245304, Note_on_c, 0, 68, 50
1, 1245320, Note_on_c, 0, 71, 43
1, 1245393, Control_c, 0, 64, 108
1, 1245410, Control_c, 0, 64, 70
1, 1245429, Control_c, 0, 64, 36
1, 1245446, Control_c, 0, 64, 32
1, 1245483, Control_c, 0, 64, 47
1, 1245502, Control_c, 0, 64, 65
1, 1245512, Note_on_c, 0, 71, 0
1, 1245520, Control_c, 0, 64, 84
1, 1245539, Control_c, 0, 64, 115
1, 1245558, Control_c, 0, 64, 127
1, 1245575, Note_on_c, 0, 74, 0
1, 1245630, Note_on_c, 0, 68, 0
1, 1245681, Note_on_c, 0, 39, 0
1, 1245724, Note_on_c, 0, 27, 0
1, 1245808, Note_on_c, 0, 75, 80
1, 1245809, Note_on_c, 0, 66, 64
1, 1245835, Note_on_c, 0, 70, 36
1, 1245842, Note_on_c, 0, 77, 0
1, 1245875, Note_on_c, 0, 70, 0
1, 1245891, Note_on_c, 0, 66, 0
1, 1245892, Note_on_c, 0, 75, 0
1, 1246219, Note_on_c, 0, 39, 50
1, 1246220, Note_on_c, 0, 27, 49
1, 1246249, Note_on_c, 0, 73, 78
1, 1246258, Note_on_c, 0, 61, 56
1, 1246269, Note_on_c, 0, 70, 56
1, 1246292, Note_on_c, 0, 67, 45
1, 1246331, Poly_aftertouch_c, 0, 29, 0
1, 1246346, Control_c, 0, 64, 119
1, 1246365, Control_c, 0, 64, 85
1, 1246381, Control_c, 0, 64, 50
1, 1246401, Control_c, 0, 64, 22
1, 1246419, Control_c, 0, 64, 14
1, 1246437, Control_c, 0, 64, 10
1, 1246493, Control_c, 0, 64, 36
1, 1246512, Control_c, 0, 64, 58
1, 1246531, Control_c, 0, 64, 82
1, 1246550, Control_c, 0, 64, 108
1, 1246567, Control_c, 0, 64, 127
1, 1246727, Note_on_c, 0, 70, 0
1, 1246817, Note_on_c, 0, 39, 0
1, 1246837, Note_on_c, 0, 27, 0
1, 1247119, Note_on_c, 0, 40, 63
1, 1247122, Note_on_c, 0, 28, 62
1, 1247146, Note_on_c, 0, 72, 62
1, 1247207, Control_c, 0, 64, 97
1, 1247225, Control_c, 0, 64, 60
1, 1247241, Note_on_c, 0, 73, 0
1, 1247243, Control_c, 0, 64, 23
1, 1247263, Control_c, 0, 64, 15
1, 1247300, Control_c, 0, 64, 21
1, 1247317, Control_c, 0, 64, 43
1, 1247336, Control_c, 0, 64, 65
1, 1247355, Control_c, 0, 64, 85
1, 1247373, Control_c, 0, 64, 111
1, 1247392, Control_c, 0, 64, 127
1, 1247424, Note_on_c, 0, 73, 66
1, 1247476, Note_on_c, 0, 72, 0
1, 1247654, Note_on_c, 0, 72, 70
1, 1247704, Note_on_c, 0, 67, 0
1, 1247707, Note_on_c, 0, 40, 0
1, 1247724, Note_on_c, 0, 61, 0
1, 1247752, Note_on_c, 0, 73, 0
1, 1247990, Note_on_c, 0, 41, 50
1, 1248000, Note_on_c, 0, 29, 41
1, 1248007, Note_on_c, 0, 61, 75
1, 1248025, Note_on_c, 0, 71, 63
1, 1248031, Control_c, 0, 67, 8
1, 1248055, Note_on_c, 0, 28, 0
1, 1248064, Note_on_c, 0, 68, 26
1, 1248076, Note_on_c, 0, 72, 0
1, 1248161, Control_c, 0, 64, 118
1, 1248179, Control_c, 0, 64, 86
1, 1248199, Control_c, 0, 64, 49
1, 1248236, Control_c, 0, 64, 0
1, 1248272, Control_c, 0, 64, 9
1, 1248290, Control_c, 0, 64, 34
1, 1248309, Control_c, 0, 64, 55
1, 1248327, Control_c, 0, 64, 77
1, 1248347, Control_c, 0, 64, 99
1, 1248365, Control_c, 0, 64, 124
1, 1248423, Note_on_c, 0, 68, 0
1, 1248591, Note_on_c, 0, 41, 0
1, 1248855, Control_c, 0, 67, 12
1, 1248878, Note_on_c, 0, 70, 58
1, 1248886, Note_on_c, 0, 66, 46
1, 1248900, Note_on_c, 0, 42, 31
1, 1248904, Note_on_c, 0, 30, 36
1, 1248952, Note_on_c, 0, 71, 0
1, 1248967, Control_c, 0, 64, 91
1, 1248968, Control_c, 0, 67, 16
1, 1248986, Control_c, 0, 64, 57
1, 1249004, Control_c, 0, 64, 21
1, 1249022, Control_c, 0, 64, 12
1, 1249055, Note_on_c, 0, 29, 0
1, 1249078, Control_c, 0, 64, 33
1, 1249096, Control_c, 0, 64, 54
1, 1249116, Control_c, 0, 64, 75
1, 1249134, Control_c, 0, 64, 96
1, 1249153, Control_c, 0, 64, 120
1, 1249172, Control_c, 0, 64, 127
1, 1249186, Note_on_c, 0, 71, 52
1, 1249236, Note_on_c, 0, 70, 0
1, 1249408, Note_on_c, 0, 70, 65
1, 1249418, Note_on_c, 0, 66, 0
1, 1249445, Note_on_c, 0, 71, 0
1, 1249467, Note_on_c, 0, 42, 0
1, 1249491, Note_on_c, 0, 61, 0
1, 1249745, Note_on_c, 0, 69, 56
1, 1249754, Note_on_c, 0, 43, 34
1, 1249757, Note_on_c, 0, 31, 35
1, 1249770, Control_c, 0, 67, 20
1, 1249773, Note_on_c, 0, 61, 50
1, 1249802, Note_on_c, 0, 64, 45
1, 1249846, Control_c, 0, 64, 115
1, 1249866, Control_c, 0, 64, 83
1, 1249871, Note_on_c, 0, 30, 0
1, 1249881, Note_on_c, 0, 70, 0
1, 1249884, Control_c, 0, 64, 49
1, 1249903, Control_c, 0, 64, 22
1, 1249922, Control_c, 0, 64, 17
1, 1249976, Control_c, 0, 64, 28
1, 1249995, Control_c, 0, 64, 49
1, 1250013, Control_c, 0, 64, 68
1, 1250033, Control_c, 0, 64, 86
1, 1250036, Control_c, 0, 67, 25
1, 1250051, Control_c, 0, 64, 105
1, 1250069, Control_c, 0, 64, 121
1, 1250089, Control_c, 0, 64, 127
1, 1250090, Control_c, 0, 67, 29
1, 1250209, Note_on_c, 0, 64, 0
1, 1250215, Note_on_c, 0, 43, 0
1, 1250273, Note_on_c, 0, 61, 0
1, 1250458, Control_c, 0, 67, 33
1, 1250588, Control_c, 0, 67, 37
1, 1250622, Note_on_c, 0, 32, 45
1, 1250625, Control_c, 0, 64, 118
1, 1250625, Note_on_c, 0, 68, 52
1, 1250627, Note_on_c, 0, 44, 30
1, 1250638, Note_on_c, 0, 64, 33
1, 1250639, Note_on_c, 0, 61, 40
1, 1250643, Control_c, 0, 64, 85
1, 1250663, Control_c, 0, 64, 50
1, 1250666, Control_c, 0, 67, 43
1, 1250689, Control_c, 0, 64, 29
1, 1250700, Note_on_c, 0, 69, 0
1, 1250706, Control_c, 0, 67, 48
1, 1250741, Note_on_c, 0, 31, 0
1, 1250745, Control_c, 0, 64, 43
1, 1250746, Control_c, 0, 67, 52
1, 1250763, Control_c, 0, 64, 60
1, 1250783, Control_c, 0, 64, 76
1, 1250784, Control_c, 0, 67, 56
1, 1250802, Control_c, 0, 64, 93
1, 1250820, Control_c, 0, 64, 114
1, 1250821, Control_c, 0, 67, 62
1, 1250839, Control_c, 0, 64, 127
1, 1250840, Control_c, 0, 67, 68
1, 1250858, Control_c, 0, 67, 73
1, 1250874, Control_c, 0, 67, 77
1, 1250912, Control_c, 0, 67, 84
1, 1250923, Note_on_c, 0, 68, 0
1, 1250924, Note_on_c, 0, 69, 53
1, 1250950, Control_c, 0, 67, 90
1, 1250967, Control_c, 0, 67, 94
1, 1250987, Control_c, 0, 67, 98
1, 1251005, Control_c, 0, 67, 102
1, 1251025, Control_c, 0, 67, 107
1, 1251042, Control_c, 0, 67, 111
1, 1251078, Control_c, 0, 67, 116
1, 1251116, Control_c, 0, 67, 122
1, 1251148, Note_on_c, 0, 68, 60
1, 1251152, Control_c, 0, 67, 127
1, 1251231, Note_on_c, 0, 44, 0
1, 1251245, Note_on_c, 0, 64, 0
1, 1251255, Note_on_c, 0, 61, 0
1, 1251290, Note_on_c, 0, 69, 0
1, 1251484, Note_on_c, 0, 67, 52
1, 1251505, Note_on_c, 0, 33, 36
1, 1251516, Note_on_c, 0, 61, 40
1, 1251524, Note_on_c, 0, 45, 35
1, 1251525, Note_on_c, 0, 63, 42
1, 1251561, Control_c, 0, 64, 115
1, 1251565, Note_on_c, 0, 68, 0
1, 1251580, Control_c, 0, 64, 87
1, 1251599, Control_c, 0, 64, 54
1, 1251625, Control_c, 0, 64, 22
1, 1251643, Control_c, 0, 64, 13
1, 1251680, Control_c, 0, 64, 0
1, 1251696, Note_on_c, 0, 32, 0
1, 1251717, Control_c, 0, 64, 21
1, 1251737, Control_c, 0, 64, 45
1, 1251755, Control_c, 0, 64, 64
1, 1251774, Control_c, 0, 64, 80
1, 1251793, Control_c, 0, 64, 96
1, 1251810, Control_c, 0, 64, 115
1, 1251829, Control_c, 0, 64, 127
1, 1251889, Note_on_c, 0, 63, 0
1, 1251915, Note_on_c, 0, 45, 0
1, 1251953, Note_on_c, 0, 61, 0
1, 1252698, Note_on_c, 0, 68, 56
1, 1252700, Note_on_c, 0, 61, 42
1, 1252708, Note_on_c, 0, 32, 29
1, 1252734, Note_on_c, 0, 44, 16
1, 1252855, Poly_aftertouch_c, 0, 54, 0
1, 1252857, Note_on_c, 0, 67, 0
1, 1252869, Note_on_c, 0, 33, 0
1, 1252930, Control_c, 0, 64, 102
1, 1252950, Control_c, 0, 64, 71
1, 1252969, Control_c, 0, 64, 37
1, 1252986, Control_c, 0, 64, 14
1, 1253043, Control_c, 0, 64, 0
1, 1253134, Control_c, 0, 64, 23
1, 1253154, Control_c, 0, 64, 40
1, 1253172, Control_c, 0, 64, 54
1, 1253190, Control_c, 0, 64, 72
1, 1253209, Control_c, 0, 64, 86
1, 1253229, Control_c, 0, 64, 100
1, 1253248, Control_c, 0, 64, 116
1, 1253265, Control_c, 0, 64, 127
1, 1253585, Note_on_c, 0, 61, 0
1, 1254427, Note_on_c, 0, 63, 37
1, 1254448, Note_on_c, 0, 56, 29
1, 1254449, Note_on_c, 0, 60, 36
1, 1254543, Control_c, 0, 64, 122
1, 1254564, Control_c, 0, 64, 94
1, 1254580, Control_c, 0, 64, 64
1, 1254600, Control_c, 0, 64, 36
1, 1254617, Control_c, 0, 64, 27
1, 1254673, Control_c, 0, 64, 33
1, 1254691, Control_c, 0, 64, 48
1, 1254710, Control_c, 0, 64, 68
1, 1254714, Note_on_c, 0, 68, 0
1, 1254728, Control_c, 0, 64, 86
1, 1254748, Control_c, 0, 64, 105
1, 1254766, Control_c, 0, 64, 121
1, 1254784, Control_c, 0, 64, 127
1, 1254841, Note_on_c, 0, 32, 0
1, 1254937, Note_on_c, 0, 44, 0
1, 1254957, Note_on_c, 0, 60, 0
1, 1254963, Note_on_c, 0, 63, 0
1, 1254971, Note_on_c, 0, 56, 0
1, 1255119, Control_c, 0, 64, 111
1, 1255136, Control_c, 0, 64, 84
1, 1255157, Control_c, 0, 64, 57
1, 1255173, Control_c, 0, 64, 34
1, 1255191, Control_c, 0, 64, 26
1, 1255210, Control_c, 0, 64, 22
1, 1255284, Control_c, 0, 64, 31
1, 1255304, Control_c, 0, 64, 48
1, 1255322, Control_c, 0, 64, 67
1, 1255341, Control_c, 0, 64, 81
1, 1255367, Control_c, 0, 64, 93
1, 1255385, Control_c, 0, 64, 106
1, 1255404, Control_c, 0, 64, 118
1, 1255424, Control_c, 0, 64, 127
1, 1255675, Note_on_c, 0, 66, 48
1, 1255703, Note_on_c, 0, 54, 29
1, 1255703, Note_on_c, 0, 39, 29
1, 1255708, Note_on_c, 0, 51, 15
1, 1255712, Note_on_c, 0, 58, 31
1, 1255713, Note_on_c, 0, 63, 37
1, 1255960, Note_on_c, 0, 58, 0
1, 1255998, Control_c, 0, 67, 121
1, 1256028, Note_on_c, 0, 63, 0
1, 1256033, Control_c, 0, 67, 114
1, 1256054, Control_c, 0, 67, 107
1, 1256073, Control_c, 0, 67, 97
1, 1256077, Note_on_c, 0, 54, 0
1, 1256091, Control_c, 0, 67, 85
1, 1256108, Control_c, 0, 67, 70
1, 1256127, Control_c, 0, 67, 53
1, 1256145, Control_c, 0, 67, 39
1, 1256161, Note_on_c, 0, 51, 0
1, 1256165, Control_c, 0, 67, 28
1, 1256183, Control_c, 0, 67, 20
1, 1256194, Note_on_c, 0, 66, 0
1, 1256200, Control_c, 0, 67, 14
1, 1256221, Control_c, 0, 67, 9
1, 1256731, Note_on_c, 0, 70, 59
1, 1256737, Note_on_c, 0, 49, 32
1, 1256752, Note_on_c, 0, 58, 35
1, 1256753, Note_on_c, 0, 65, 40
1, 1256779, Note_on_c, 0, 37, 28
1, 1256916, Note_on_c, 0, 39, 0
1, 1256990, Control_c, 0, 64, 108
1, 1257008, Control_c, 0, 64, 76
1, 1257027, Control_c, 0, 64, 47
1, 1257043, Control_c, 0, 64, 33
1, 1257081, Control_c, 0, 64, 23
1, 1257156, Control_c, 0, 64, 47
1, 1257174, Control_c, 0, 64, 61
1, 1257193, Control_c, 0, 64, 73
1, 1257212, Control_c, 0, 64, 87
1, 1257238, Control_c, 0, 64, 106
1, 1257257, Control_c, 0, 64, 127
1, 1257388, Control_c, 0, 67, 0
1, 1257593, Note_on_c, 0, 58, 0
1, 1257636, Note_on_c, 0, 49, 0
1, 1257688, Note_on_c, 0, 65, 0
1, 1258238, Note_on_c, 0, 75, 64
1, 1258248, Control_c, 0, 64, 110
1, 1258250, Note_on_c, 0, 35, 43
1, 1258258, Note_on_c, 0, 47, 32
1, 1258266, Control_c, 0, 64, 77
1, 1258267, Note_on_c, 0, 63, 40
1, 1258285, Control_c, 0, 64, 54
1, 1258290, Note_on_c, 0, 68, 29
1, 1258297, Note_on_c, 0, 70, 0
1, 1258315, Note_on_c, 0, 37, 0
1, 1258324, Control_c, 0, 64, 60
1, 1258342, Control_c, 0, 64, 71
1, 1258359, Control_c, 0, 64, 85
1, 1258370, Note_on_c, 0, 68, 0
1, 1258378, Control_c, 0, 64, 111
1, 1258396, Control_c, 0, 64, 127
1, 1258480, Note_on_c, 0, 47, 0
1, 1258497, Note_on_c, 0, 75, 0
1, 1258510, Note_on_c, 0, 63, 0
1, 1258742, Note_on_c, 0, 77, 77
1, 1258752, Note_on_c, 0, 75, 66
1, 1258755, Note_on_c, 0, 65, 56
1, 1258758, Note_on_c, 0, 32, 51
1, 1258769, Note_on_c, 0, 44, 27
1, 1258772, Note_on_c, 0, 35, 0
1, 1258799, Note_on_c, 0, 71, 15
1, 1258827, Note_on_c, 0, 44, 0
1, 1258865, Note_on_c, 0, 71, 0
1, 1258888, Note_on_c, 0, 77, 0
1, 1258890, Note_on_c, 0, 65, 0
1, 1258921, Note_on_c, 0, 75, 0
1, 1259135, Note_on_c, 0, 78, 74
1, 1259161, Note_on_c, 0, 66, 47
1, 1259165, Note_on_c, 0, 75, 57
1, 1259172, Note_on_c, 0, 27, 44
1, 1259176, Note_on_c, 0, 39, 27
1, 1259207, Note_on_c, 0, 70, 21
1, 1259222, Control_c, 0, 64, 114
1, 1259240, Control_c, 0, 64, 77
1, 1259248, Note_on_c, 0, 32, 0
1, 1259259, Control_c, 0, 64, 43
1, 1259278, Control_c, 0, 64, 24
1, 1259332, Control_c, 0, 64, 38
1, 1259351, Control_c, 0, 64, 59
1, 1259370, Control_c, 0, 64, 84
1, 1259388, Control_c, 0, 64, 115
1, 1259393, Note_on_c, 0, 27, 0
1, 1259407, Control_c, 0, 64, 127
1, 1259439, Note_on_c, 0, 39, 0
1, 1259501, Note_on_c, 0, 78, 0
1, 1259503, Poly_aftertouch_c, 0, 70, 24
1, 1259508, Note_on_c, 0, 66, 0
1, 1259543, Note_on_c, 0, 70, 0
1, 1259543, Poly_aftertouch_c, 0, 70, 0
1, 1259544, Poly_aftertouch_c, 0, 70, 0
1, 1259652, Note_on_c, 0, 74, 57
1, 1259653, Note_on_c, 0, 41, 40
1, 1259653, Note_on_c, 0, 77, 67
1, 1259654, Note_on_c, 0, 29, 46
1, 1259662, Note_on_c, 0, 65, 58
1, 1259741, Note_on_c, 0, 41, 0
1, 1259743, Note_on_c, 0, 65, 0
1, 1259746, Note_on_c, 0, 74, 0
1, 1259753, Note_on_c, 0, 75, 0
1, 1259972, Note_on_c, 0, 75, 71
1, 1259977, Note_on_c, 0, 42, 48
1, 1259978, Note_on_c, 0, 30, 53
1, 1259981, Note_on_c, 0, 63, 64
1, 1259990, Note_on_c, 0, 70, 58
1, 1260049, Poly_aftertouch_c, 0, 76, 0
1, 1260062, Note_on_c, 0, 77, 0
1, 1260079, Note_on_c, 0, 29, 0
1, 1260082, Control_c, 0, 64, 100
1, 1260101, Control_c, 0, 64, 64
1, 1260120, Control_c, 0, 64, 31
1, 1260138, Control_c, 0, 64, 25
1, 1260176, Control_c, 0, 64, 32
1, 1260196, Control_c, 0, 64, 52
1, 1260205, Note_on_c, 0, 70, 0
1, 1260212, Control_c, 0, 64, 72
1, 1260230, Control_c, 0, 64, 96
1, 1260249, Control_c, 0, 64, 127
1, 1260272, Note_on_c, 0, 63, 0
1, 1260415, Note_on_c, 0, 42, 0
1, 1260492, Note_on_c, 0, 73, 74
1, 1260496, Note_on_c, 0, 43, 58
1, 1260503, Note_on_c, 0, 70, 63
1, 1260503, Note_on_c, 0, 61, 71
1, 1260512, Note_on_c, 0, 30, 0
1, 1260514, Note_on_c, 0, 31, 56
1, 1260519, Note_on_c, 0, 75, 0
1, 1260547, Note_on_c, 0, 70, 0
1, 1260569, Note_on_c, 0, 73, 0
1, 1260597, Note_on_c, 0, 43, 0
1, 1260676, Note_on_c, 0, 61, 0
1, 1260832, Note_on_c, 0, 44, 52
1, 1260844, Note_on_c, 0, 59, 58
1, 1260850, Note_on_c, 0, 71, 68
1, 1260851, Note_on_c, 0, 32, 45
1, 1260853, Note_on_c, 0, 68, 61
1, 1260854, Note_on_c, 0, 63, 53
1, 1260937, Note_on_c, 0, 31, 0
1, 1260980, Control_c, 0, 64, 110
1, 1261000, Control_c, 0, 64, 78
1, 1261018, Control_c, 0, 64, 45
1, 1261037, Control_c, 0, 64, 21
1, 1261056, Control_c, 0, 64, 15
1, 1261092, Control_c, 0, 64, 0
1, 1261149, Control_c, 0, 64, 12
1, 1261165, Control_c, 0, 64, 37
1, 1261185, Control_c, 0, 64, 53
1, 1261203, Control_c, 0, 64, 71
1, 1261222, Control_c, 0, 64, 89
1, 1261241, Control_c, 0, 64, 112
1, 1261259, Control_c, 0, 64, 127
1, 1261322, Note_on_c, 0, 63, 0
1, 1261355, Note_on_c, 0, 59, 0
1, 1261356, Note_on_c, 0, 68, 0
1, 1261396, Note_on_c, 0, 44, 0
1, 1261894, Note_on_c, 0, 75, 57
1, 1261921, Note_on_c, 0, 63, 36
1, 1261927, Note_on_c, 0, 42, 33
1, 1261930, Note_on_c, 0, 70, 48
1, 1261942, Note_on_c, 0, 30, 36
1, 1261980, Note_on_c, 0, 71, 0
1, 1262076, Note_on_c, 0, 32, 0
1, 1262120, Control_c, 0, 64, 116
1, 1262140, Control_c, 0, 64, 94
1, 1262159, Control_c, 0, 64, 69
1, 1262176, Control_c, 0, 64, 45
1, 1262195, Control_c, 0, 64, 29
1, 1262214, Control_c, 0, 64, 22
1, 1262232, Control_c, 0, 64, 8
1, 1262251, Control_c, 0, 64, 0
1, 1262342, Control_c, 0, 64, 8
1, 1262361, Control_c, 0, 64, 24
1, 1262379, Control_c, 0, 64, 41
1, 1262399, Control_c, 0, 64, 59
1, 1262417, Control_c, 0, 64, 79
1, 1262436, Control_c, 0, 64, 97
1, 1262455, Control_c, 0, 64, 117
1, 1262472, Control_c, 0, 64, 127
1, 1262685, Note_on_c, 0, 63, 0
1, 1262945, Note_on_c, 0, 70, 0
1, 1263038, Control_c, 0, 67, 8
1, 1263040, Note_on_c, 0, 42, 0
1, 1263075, Control_c, 0, 67, 13
1, 1263092, Control_c, 0, 67, 22
1, 1263112, Control_c, 0, 67, 31
1, 1263130, Control_c, 0, 67, 39
1, 1263150, Control_c, 0, 67, 44
1, 1263165, Control_c, 0, 67, 49
1, 1263184, Control_c, 0, 67, 54
1, 1263204, Control_c, 0, 67, 59
1, 1263241, Control_c, 0, 67, 64
1, 1263368, Note_on_c, 0, 80, 59
1, 1263382, Note_on_c, 0, 77, 48
1, 1263393, Note_on_c, 0, 68, 24
1, 1263398, Note_on_c, 0, 41, 31
1, 1263398, Note_on_c, 0, 29, 33
1, 1263409, Note_on_c, 0, 71, 36
1, 1263488, Note_on_c, 0, 77, 0
1, 1263502, Note_on_c, 0, 71, 0
1, 1263507, Note_on_c, 0, 75, 0
1, 1263598, Note_on_c, 0, 41, 0
1, 1263609, Note_on_c, 0, 30, 0
1, 1263668, Note_on_c, 0, 68, 0
1, 1263861, Note_on_c, 0, 82, 71
1, 1263873, Note_on_c, 0, 80, 0
1, 1263893, Note_on_c, 0, 70, 49
1, 1263899, Note_on_c, 0, 78, 51
1, 1263901, Note_on_c, 0, 27, 52
1, 1263908, Note_on_c, 0, 39, 40
1, 1263921, Note_on_c, 0, 29, 0
1, 1264019, Note_on_c, 0, 70, 0
1, 1264109, Note_on_c, 0, 39, 0
1, 1264256, Note_on_c, 0, 83, 71
1, 1264278, Note_on_c, 0, 71, 41
1, 1264281, Note_on_c, 0, 26, 39
1, 1264285, Note_on_c, 0, 80, 64
1, 1264291, Note_on_c, 0, 38, 39
1, 1264313, Note_on_c, 0, 78, 0
1, 1264319, Note_on_c, 0, 82, 0
1, 1264344, Control_c, 0, 64, 121
1, 1264359, Note_on_c, 0, 27, 0
1, 1264362, Control_c, 0, 64, 91
1, 1264364, Control_c, 0, 67, 70
1, 1264381, Control_c, 0, 64, 59
1, 1264400, Control_c, 0, 64, 32
1, 1264402, Control_c, 0, 67, 75
1, 1264437, Control_c, 0, 67, 80
1, 1264473, Control_c, 0, 64, 46
1, 1264476, Control_c, 0, 67, 89
1, 1264490, Note_on_c, 0, 38, 0
1, 1264491, Control_c, 0, 64, 64
1, 1264493, Control_c, 0, 67, 96
1, 1264511, Control_c, 0, 64, 83
1, 1264512, Control_c, 0, 67, 102
1, 1264529, Control_c, 0, 64, 105
1, 1264531, Control_c, 0, 67, 108
1, 1264544, Note_on_c, 0, 71, 0
1, 1264546, Control_c, 0, 64, 127
1, 1264547, Control_c, 0, 67, 113
1, 1264585, Control_c, 0, 67, 119
1, 1264623, Control_c, 0, 67, 125
1, 1264810, Note_on_c, 0, 27, 51
1, 1264812, Note_on_c, 0, 82, 70
1, 1264820, Note_on_c, 0, 78, 56
1, 1264825, Note_on_c, 0, 39, 37
1, 1264825, Note_on_c, 0, 70, 49
1, 1264843, Note_on_c, 0, 26, 0
1, 1264863, Note_on_c, 0, 80, 0
1, 1264918, Note_on_c, 0, 78, 0
1, 1264920, Note_on_c, 0, 39, 0
1, 1264934, Note_on_c, 0, 70, 0
1, 1264949, Note_on_c, 0, 27, 0
1, 1265062, Note_on_c, 0, 83, 0
1, 1265104, Note_on_c, 0, 80, 70
1, 1265106, Note_on_c, 0, 29, 49
1, 1265117, Note_on_c, 0, 41, 48
1, 1265123, Note_on_c, 0, 68, 54
1, 1265135, Note_on_c, 0, 77, 55
1, 1265157, Note_on_c, 0, 82, 0
1, 1265169, Control_c, 0, 64, 99
1, 1265189, Control_c, 0, 64, 66
1, 1265207, Control_c, 0, 64, 43
1, 1265244, Control_c, 0, 64, 49
1, 1265262, Control_c, 0, 64, 63
1, 1265280, Control_c, 0, 64, 78
1, 1265300, Control_c, 0, 64, 99
1, 1265317, Control_c, 0, 64, 127
1, 1265353, Note_on_c, 0, 77, 0
1, 1265388, Note_on_c, 0, 41, 0
1, 1265390, Note_on_c, 0, 68, 0
1, 1265583, Note_on_c, 0, 78, 75
1, 1265597, Note_on_c, 0, 75, 66
1, 1265598, Note_on_c, 0, 42, 48
1, 1265601, Note_on_c, 0, 66, 61
1, 1265606, Note_on_c, 0, 30, 51
1, 1265614, Note_on_c, 0, 80, 0
1, 1265671, Note_on_c, 0, 29, 0
1, 1265716, Note_on_c, 0, 75, 0
1, 1265747, Note_on_c, 0, 42, 0
1, 1265774, Note_on_c, 0, 66, 0
1, 1265920, Note_on_c, 0, 73, 60
1, 1265924, Note_on_c, 0, 77, 73
1, 1265930, Note_on_c, 0, 31, 48
1, 1265935, Note_on_c, 0, 43, 42
1, 1265938, Note_on_c, 0, 65, 57
1, 1265976, Control_c, 0, 64, 111
1, 1265986, Note_on_c, 0, 30, 0
1, 1265989, Note_on_c, 0, 78, 0
1, 1265993, Control_c, 0, 64, 81
1, 1266013, Control_c, 0, 64, 47
1, 1266030, Control_c, 0, 64, 10
1, 1266049, Control_c, 0, 64, 0
1, 1266123, Control_c, 0, 64, 31
1, 1266143, Control_c, 0, 64, 55
1, 1266161, Control_c, 0, 64, 78
1, 1266177, Note_on_c, 0, 73, 0
1, 1266178, Control_c, 0, 64, 96
1, 1266199, Control_c, 0, 64, 116
1, 1266208, Note_on_c, 0, 65, 0
1, 1266214, Control_c, 0, 64, 127
1, 1266221, Note_on_c, 0, 43, 0
1, 1266474, Note_on_c, 0, 44, 41
1, 1266487, Note_on_c, 0, 75, 62
1, 1266496, Note_on_c, 0, 72, 43
1, 1266499, Note_on_c, 0, 63, 51
1, 1266500, Note_on_c, 0, 32, 45
1, 1266511, Note_on_c, 0, 31, 0
1, 1266535, Note_on_c, 0, 77, 0
1, 1266721, Note_on_c, 0, 63, 0
1, 1266721, Note_on_c, 0, 44, 0
1, 1266955, Note_on_c, 0, 43, 28
1, 1266961, Note_on_c, 0, 31, 29
1, 1266978, Note_on_c, 0, 76, 59
1, 1266985, Note_on_c, 0, 64, 48
1, 1267007, Note_on_c, 0, 73, 52
1, 1267041, Control_c, 0, 64, 118
1, 1267059, Control_c, 0, 64, 108
1, 1267062, Note_on_c, 0, 32, 0
1, 1267065, Note_on_c, 0, 72, 0
1, 1267070, Note_on_c, 0, 75, 0
1, 1267078, Control_c, 0, 64, 97
1, 1267096, Control_c, 0, 64, 86
1, 1267115, Control_c, 0, 64, 74
1, 1267135, Control_c, 0, 64, 65
1, 1267151, Control_c, 0, 64, 57
1, 1267170, Control_c, 0, 64, 50
1, 1267187, Control_c, 0, 64, 43
1, 1267207, Control_c, 0, 64, 35
1, 1267225, Control_c, 0, 64, 28
1, 1267245, Control_c, 0, 64, 22
1, 1267262, Control_c, 0, 64, 17
1, 1267298, Control_c, 0, 64, 12
1, 1267411, Control_c, 0, 64, 19
1, 1267430, Control_c, 0, 64, 28
1, 1267449, Control_c, 0, 64, 37
1, 1267467, Control_c, 0, 64, 45
1, 1267486, Control_c, 0, 64, 54
1, 1267504, Control_c, 0, 64, 67
1, 1267531, Control_c, 0, 64, 74
1, 1267549, Control_c, 0, 64, 79
1, 1267568, Control_c, 0, 64, 87
1, 1267586, Control_c, 0, 64, 98
1, 1267606, Control_c, 0, 64, 109
1, 1267625, Control_c, 0, 64, 118
1, 1267643, Control_c, 0, 64, 124
1, 1267724, Note_on_c, 0, 64, 0
1, 1267727, Note_on_c, 0, 73, 0
1, 1267826, Note_on_c, 0, 43, 0
1, 1268198, Note_on_c, 0, 75, 54
1, 1268219, Note_on_c, 0, 44, 33
1, 1268222, Note_on_c, 0, 63, 36
1, 1268230, Note_on_c, 0, 72, 40
1, 1268233, Note_on_c, 0, 32, 34
1, 1268256, Note_on_c, 0, 76, 0
1, 1268317, Note_on_c, 0, 31, 0
1, 1268405, Note_on_c, 0, 63, 0
1, 1268450, Note_on_c, 0, 44, 0
1, 1268584, Note_on_c, 0, 76, 53
1, 1268585, Note_on_c, 0, 43, 41
1, 1268588, Note_on_c, 0, 31, 34
1, 1268606, Note_on_c, 0, 64, 40
1, 1268622, Note_on_c, 0, 72, 0
1, 1268634, Note_on_c, 0, 73, 38
1, 1268652, Note_on_c, 0, 32, 0
1, 1268671, Control_c, 0, 64, 120
1, 1268681, Note_on_c, 0, 75, 0
1, 1268688, Control_c, 0, 64, 95
1, 1268708, Control_c, 0, 64, 65
1, 1268726, Control_c, 0, 64, 34
1, 1268745, Control_c, 0, 64, 23
1, 1268799, Control_c, 0, 64, 30
1, 1268818, Control_c, 0, 64, 45
1, 1268837, Control_c, 0, 64, 62
1, 1268839, Note_on_c, 0, 73, 0
1, 1268855, Control_c, 0, 64, 78
1, 1268866, Note_on_c, 0, 64, 0
1, 1268874, Control_c, 0, 64, 91
1, 1268893, Control_c, 0, 64, 103
1, 1268912, Control_c, 0, 64, 113
1, 1268930, Control_c, 0, 64, 121
1, 1268949, Control_c, 0, 64, 126
1, 1269139, Note_on_c, 0, 43, 0
1, 1269194, Note_on_c, 0, 75, 55
1, 1269211, Note_on_c, 0, 63, 44
1, 1269216, Note_on_c, 0, 72, 41
1, 1269250, Note_on_c, 0, 76, 0
1, 1269441, Note_on_c, 0, 63, 0
1, 1269623, Note_on_c, 0, 42, 35
1, 1269644, Note_on_c, 0, 30, 31
1, 1269665, Note_on_c, 0, 76, 54
1, 1269670, Note_on_c, 0, 64, 40
1, 1269693, Note_on_c, 0, 73, 45
1, 1269731, Note_on_c, 0, 72, 0
1, 1269774, Control_c, 0, 64, 115
1, 1269790, Control_c, 0, 64, 105
1, 1269805, Note_on_c, 0, 75, 0
1, 1269810, Control_c, 0, 64, 94
1, 1269824, Note_on_c, 0, 31, 0
1, 1269827, Control_c, 0, 64, 81
1, 1269847, Control_c, 0, 64, 68
1, 1269866, Control_c, 0, 64, 60
1, 1269885, Control_c, 0, 64, 57
1, 1269920, Control_c, 0, 64, 55
1, 1269957, Control_c, 0, 64, 51
1, 1269995, Control_c, 0, 64, 48
1, 1270143, Control_c, 0, 64, 46
1, 1270199, Control_c, 0, 64, 44
1, 1270255, Control_c, 0, 64, 42
1, 1270290, Control_c, 0, 64, 40
1, 1270310, Control_c, 0, 64, 36
1, 1270337, Control_c, 0, 64, 27
1, 1270357, Control_c, 0, 64, 14
1, 1270394, Control_c, 0, 64, 0
1, 1270485, Control_c, 0, 64, 26
1, 1270504, Control_c, 0, 64, 47
1, 1270522, Control_c, 0, 64, 69
1, 1270541, Control_c, 0, 64, 83
1, 1270560, Control_c, 0, 64, 96
1, 1270579, Control_c, 0, 64, 109
1, 1270598, Control_c, 0, 64, 123
1, 1270616, Control_c, 0, 64, 127
1, 1270939, Note_on_c, 0, 42, 0
1, 1270969, Note_on_c, 0, 30, 0
1, 1271165, Note_on_c, 0, 31, 22
1, 1271194, Note_on_c, 0, 43, 29
1, 1271421, Control_c, 0, 64, 105
1, 1271439, Control_c, 0, 64, 79
1, 1271458, Control_c, 0, 64, 54
1, 1271477, Control_c, 0, 64, 36
1, 1271496, Control_c, 0, 64, 31
1, 1271605, Control_c, 0, 64, 41
1, 1271625, Control_c, 0, 64, 54
1, 1271643, Control_c, 0, 64, 68
1, 1271662, Control_c, 0, 64, 77
1, 1271681, Control_c, 0, 64, 88
1, 1271700, Control_c, 0, 64, 101
1, 1271718, Control_c, 0, 64, 116
1, 1271738, Control_c, 0, 64, 127
1, 1271889, Note_on_c, 0, 73, 0
1, 1272007, Note_on_c, 0, 64, 0
1, 1272015, Note_on_c, 0, 43, 0
1, 1272649, Note_on_c, 0, 75, 40
1, 1272673, Note_on_c, 0, 72, 30
1, 1272683, Note_on_c, 0, 63, 26
1, 1272694, Note_on_c, 0, 44, 24
1, 1272714, Note_on_c, 0, 32, 15
1, 1272820, Control_c, 0, 64, 116
1, 1272838, Note_on_c, 0, 76, 0
1, 1272838, Control_c, 0, 64, 92
1, 1272844, Note_on_c, 0, 31, 0
1, 1272858, Control_c, 0, 64, 66
1, 1272877, Control_c, 0, 64, 41
1, 1272893, Control_c, 0, 64, 32
1, 1272968, Control_c, 0, 64, 41
1, 1272987, Control_c, 0, 64, 57
1, 1273006, Control_c, 0, 64, 75
1, 1273024, Control_c, 0, 64, 89
1, 1273043, Control_c, 0, 64, 102
1, 1273063, Control_c, 0, 64, 114
1, 1273079, Control_c, 0, 64, 125
1, 1273092, Note_on_c, 0, 32, 0
1, 1273206, Note_on_c, 0, 72, 0
1, 1273241, Note_on_c, 0, 63, 0
1, 1273274, Note_on_c, 0, 44, 0
1, 1273371, Note_on_c, 0, 75, 0
1, 1273663, Control_c, 0, 64, 106
1, 1273681, Control_c, 0, 64, 84
1, 1273702, Control_c, 0, 64, 59
1, 1273719, Control_c, 0, 64, 40
1, 1273737, Control_c, 0, 64, 33
1, 1273774, Control_c, 0, 64, 29
1, 1273796, Note_on_c, 0, 77, 66
1, 1273817, Note_on_c, 0, 37, 31
1, 1273820, Note_on_c, 0, 49, 24
1, 1273833, Note_on_c, 0, 73, 45
1, 1273845, Note_on_c, 0, 65, 35
1, 1273846, Note_on_c, 0, 68, 24
1, 1273867, Control_c, 0, 64, 38
1, 1273885, Control_c, 0, 64, 51
1, 1273905, Control_c, 0, 64, 66
1, 1273922, Control_c, 0, 64, 81
1, 1273942, Control_c, 0, 64, 98
1, 1273960, Control_c, 0, 64, 115
1, 1273978, Control_c, 0, 64, 127
1, 1274117, Control_c, 0, 67, 120
1, 1274135, Control_c, 0, 67, 115
1, 1274141, Note_on_c, 0, 73, 0
1, 1274154, Control_c, 0, 67, 108
1, 1274163, Note_on_c, 0, 68, 0
1, 1274172, Control_c, 0, 67, 96
1, 1274179, Note_on_c, 0, 65, 0
1, 1274192, Control_c, 0, 67, 81
1, 1274209, Control_c, 0, 67, 62
1, 1274227, Control_c, 0, 67, 44
1, 1274246, Control_c, 0, 67, 28
1, 1274265, Control_c, 0, 67, 17
1, 1274283, Control_c, 0, 67, 10
1, 1274457, Note_on_c, 0, 49, 0
1, 1274820, Note_on_c, 0, 80, 64
1, 1274824, Note_on_c, 0, 75, 32
1, 1274838, Note_on_c, 0, 68, 34
1, 1274867, Note_on_c, 0, 48, 31
1, 1274869, Note_on_c, 0, 36, 29
1, 1274942, Note_on_c, 0, 77, 0
1, 1275023, Note_on_c, 0, 37, 0
1, 1275071, Control_c, 0, 64, 121
1, 1275089, Control_c, 0, 64, 97
1, 1275109, Control_c, 0, 64, 69
1, 1275128, Control_c, 0, 64, 45
1, 1275144, Control_c, 0, 64, 38
1, 1275182, Control_c, 0, 64, 33
1, 1275238, Control_c, 0, 64, 38
1, 1275258, Control_c, 0, 64, 53
1, 1275275, Control_c, 0, 64, 65
1, 1275294, Control_c, 0, 64, 76
1, 1275315, Control_c, 0, 64, 90
1, 1275330, Control_c, 0, 64, 106
1, 1275348, Control_c, 0, 64, 119
1, 1275351, Control_c, 0, 67, 15
1, 1275366, Control_c, 0, 64, 127
1, 1275386, Control_c, 0, 67, 26
1, 1275404, Control_c, 0, 67, 34
1, 1275423, Control_c, 0, 67, 42
1, 1275441, Control_c, 0, 67, 49
1, 1275461, Control_c, 0, 67, 55
1, 1275479, Control_c, 0, 67, 64
1, 1275497, Control_c, 0, 67, 74
1, 1275515, Control_c, 0, 67, 85
1, 1275533, Control_c, 0, 67, 97
1, 1275552, Control_c, 0, 67, 109
1, 1275571, Control_c, 0, 67, 119
1, 1275590, Control_c, 0, 67, 124
1, 1275612, Note_on_c, 0, 48, 0
1, 1275707, Note_on_c, 0, 68, 0
1, 1275830, Note_on_c, 0, 75, 0
1, 1276291, Note_on_c, 0, 34, 33
1, 1276298, Note_on_c, 0, 46, 26
1, 1276301, Control_c, 0, 64, 113
1, 1276302, Note_on_c, 0, 82, 55
1, 1276320, Control_c, 0, 64, 85
1, 1276327, Note_on_c, 0, 78, 37
1, 1276338, Note_on_c, 0, 70, 26
1, 1276339, Control_c, 0, 64, 60
1, 1276358, Control_c, 0, 64, 56
1, 1276372, Note_on_c, 0, 80, 0
1, 1276376, Control_c, 0, 64, 58
1, 1276385, Note_on_c, 0, 36, 0
1, 1276397, Control_c, 0, 64, 65
1, 1276415, Control_c, 0, 64, 75
1, 1276435, Control_c, 0, 64, 91
1, 1276450, Control_c, 0, 64, 117
1, 1276469, Control_c, 0, 64, 127
1, 1276547, Note_on_c, 0, 46, 0
1, 1276587, Note_on_c, 0, 70, 0
1, 1276786, Note_on_c, 0, 84, 78
1, 1276790, Note_on_c, 0, 78, 0
1, 1276801, Note_on_c, 0, 80, 56
1, 1276802, Note_on_c, 0, 32, 45
1, 1276814, Note_on_c, 0, 72, 51
1, 1276824, Note_on_c, 0, 44, 30
1, 1276860, Note_on_c, 0, 82, 0
1, 1276900, Note_on_c, 0, 72, 0
1, 1276915, Note_on_c, 0, 34, 0
1, 1276915, Note_on_c, 0, 44, 0
1, 1276923, Note_on_c, 0, 84, 0
1, 1277157, Note_on_c, 0, 42, 43
1, 1277165, Note_on_c, 0, 85, 68
1, 1277174, Note_on_c, 0, 30, 35
1, 1277183, Note_on_c, 0, 73, 48
1, 1277194, Note_on_c, 0, 82, 56
1, 1277229, Note_on_c, 0, 80, 0
1, 1277250, Note_on_c, 0, 32, 0
1, 1277257, Control_c, 0, 64, 113
1, 1277276, Control_c, 0, 64, 82
1, 1277294, Control_c, 0, 64, 47
1, 1277313, Control_c, 0, 64, 12
1, 1277369, Control_c, 0, 64, 8
1, 1277405, Control_c, 0, 64, 18
1, 1277424, Control_c, 0, 64, 42
1, 1277442, Control_c, 0, 64, 66
1, 1277461, Control_c, 0, 64, 87
1, 1277471, Note_on_c, 0, 82, 0
1, 1277480, Control_c, 0, 64, 108
1, 1277498, Control_c, 0, 64, 127
1, 1277523, Note_on_c, 0, 73, 0
1, 1277708, Note_on_c, 0, 82, 65
1, 1277721, Note_on_c, 0, 85, 0
1, 1277729, Note_on_c, 0, 70, 45
1, 1277738, Note_on_c, 0, 78, 48
1, 1277823, Note_on_c, 0, 78, 0
1, 1277838, Note_on_c, 0, 70, 0
1, 1277903, Note_on_c, 0, 82, 0
1, 1278034, Note_on_c, 0, 66, 51
1, 1278039, Note_on_c, 0, 78, 51
1, 1278051, Note_on_c, 0, 75, 43
1, 1278064, Control_c, 0, 64, 115
1, 1278082, Control_c, 0, 64, 84
1, 1278101, Control_c, 0, 64, 57
1, 1278120, Control_c, 0, 64, 55
1, 1278137, Control_c, 0, 64, 60
1, 1278155, Control_c, 0, 64, 68
1, 1278175, Control_c, 0, 64, 80
1, 1278192, Control_c, 0, 64, 101
1, 1278212, Control_c, 0, 64, 127
1, 1278261, Note_on_c, 0, 75, 0
1, 1278376, Note_on_c, 0, 30, 0
1, 1278402, Note_on_c, 0, 66, 0
1, 1278421, Note_on_c, 0, 42, 0
1, 1278563, Control_c, 0, 64, 117
1, 1278577, Note_on_c, 0, 77, 56
1, 1278580, Note_on_c, 0, 73, 51
1, 1278580, Control_c, 0, 64, 85
1, 1278583, Note_on_c, 0, 31, 40
1, 1278584, Note_on_c, 0, 43, 38
1, 1278598, Note_on_c, 0, 65, 36
1, 1278600, Control_c, 0, 64, 59
1, 1278638, Control_c, 0, 64, 67
1, 1278654, Note_on_c, 0, 78, 0
1, 1278655, Control_c, 0, 64, 77
1, 1278676, Control_c, 0, 64, 93
1, 1278693, Control_c, 0, 64, 118
1, 1278711, Control_c, 0, 64, 127
1, 1278713, Note_on_c, 0, 73, 0
1, 1278721, Note_on_c, 0, 43, 0
1, 1278741, Note_on_c, 0, 77, 0
1, 1278813, Note_on_c, 0, 65, 0
1, 1278952, Note_on_c, 0, 77, 49
1, 1278969, Note_on_c, 0, 65, 36
1, 1278973, Note_on_c, 0, 44, 43
1, 1278981, Note_on_c, 0, 73, 46
1, 1278986, Note_on_c, 0, 32, 32
1, 1279055, Control_c, 0, 64, 120
1, 1279072, Control_c, 0, 64, 98
1, 1279091, Control_c, 0, 64, 71
1, 1279104, Note_on_c, 0, 31, 0
1, 1279108, Control_c, 0, 64, 45
1, 1279129, Control_c, 0, 64, 28
1, 1279147, Control_c, 0, 64, 22
1, 1279166, Control_c, 0, 64, 11
1, 1279203, Control_c, 0, 64, 0
1, 1279314, Control_c, 0, 64, 12
1, 1279332, Control_c, 0, 64, 33
1, 1279351, Control_c, 0, 64, 51
1, 1279370, Control_c, 0, 64, 71
1, 1279389, Control_c, 0, 64, 87
1, 1279406, Control_c, 0, 64, 104
1, 1279426, Control_c, 0, 64, 120
1, 1279442, Control_c, 0, 64, 127
1, 1279469, Note_on_c, 0, 65, 0
1, 1279471, Note_on_c, 0, 73, 0
1, 1280002, Note_on_c, 0, 72, 31
1, 1280005, Note_on_c, 0, 75, 38
1, 1280026, Note_on_c, 0, 63, 36
1, 1280064, Control_c, 0, 64, 122
1, 1280083, Control_c, 0, 64, 96
1, 1280101, Control_c, 0, 64, 67
1, 1280120, Control_c, 0, 64, 39
1, 1280138, Control_c, 0, 64, 32
1, 1280184, Note_on_c, 0, 77, 0
1, 1280213, Control_c, 0, 64, 44
1, 1280231, Control_c, 0, 64, 62
1, 1280249, Control_c, 0, 64, 79
1, 1280268, Control_c, 0, 64, 96
1, 1280286, Control_c, 0, 64, 113
1, 1280306, Control_c, 0, 64, 127
1, 1280341, Note_on_c, 0, 32, 0
1, 1280385, Note_on_c, 0, 75, 0
1, 1280421, Note_on_c, 0, 72, 0
1, 1280442, Note_on_c, 0, 63, 0
1, 1280467, Note_on_c, 0, 44, 0
1, 1280628, Control_c, 0, 64, 110
1, 1280647, Control_c, 0, 64, 84
1, 1280666, Control_c, 0, 64, 56
1, 1280685, Control_c, 0, 64, 35
1, 1280703, Control_c, 0, 64, 31
1, 1280722, Control_c, 0, 64, 26
1, 1280742, Control_c, 0, 64, 22
1, 1280795, Control_c, 0, 64, 26
1, 1280816, Control_c, 0, 64, 40
1, 1280832, Control_c, 0, 64, 52
1, 1280851, Control_c, 0, 64, 67
1, 1280870, Control_c, 0, 64, 78
1, 1280889, Control_c, 0, 64, 89
1, 1280907, Control_c, 0, 64, 101
1, 1280927, Control_c, 0, 64, 112
1, 1280943, Control_c, 0, 64, 122
1, 1280962, Control_c, 0, 64, 127
1, 1281068, Note_on_c, 0, 76, 52
1, 1281082, Note_on_c, 0, 49, 32
1, 1281083, Note_on_c, 0, 37, 35
1, 1281091, Note_on_c, 0, 73, 38
1, 1281095, Note_on_c, 0, 64, 31
1, 1281119, Note_on_c, 0, 68, 26
1, 1281377, Note_on_c, 0, 73, 0
1, 1281414, Note_on_c, 0, 64, 0
1, 1281446, Note_on_c, 0, 49, 0
1, 1281458, Note_on_c, 0, 68, 0
1, 1281462, Control_c, 0, 67, 119
1, 1281482, Control_c, 0, 67, 113
1, 1281499, Control_c, 0, 67, 105
1, 1281518, Control_c, 0, 67, 95
1, 1281535, Control_c, 0, 67, 82
1, 1281564, Control_c, 0, 67, 69
1, 1281582, Control_c, 0, 67, 57
1, 1281602, Control_c, 0, 67, 45
1, 1281621, Control_c, 0, 67, 34
1, 1281639, Control_c, 0, 67, 25
1, 1281659, Control_c, 0, 67, 17
1, 1281677, Control_c, 0, 67, 10
1, 1282088, Note_on_c, 0, 80, 57
1, 1282107, Note_on_c, 0, 75, 40
1, 1282116, Note_on_c, 0, 68, 36
1, 1282132, Note_on_c, 0, 35, 34
1, 1282134, Note_on_c, 0, 47, 30
1, 1282173, Note_on_c, 0, 76, 0
1, 1282294, Note_on_c, 0, 37, 0
1, 1282362, Control_c, 0, 64, 119
1, 1282381, Control_c, 0, 64, 97
1, 1282399, Control_c, 0, 64, 70
1, 1282417, Control_c, 0, 64, 43
1, 1282435, Control_c, 0, 64, 29
1, 1282472, Control_c, 0, 64, 18
1, 1282500, Control_c, 0, 64, 10
1, 1282519, Control_c, 0, 64, 0
1, 1282630, Control_c, 0, 64, 16
1, 1282647, Control_c, 0, 64, 32
1, 1282667, Control_c, 0, 64, 41
1, 1282685, Control_c, 0, 64, 49
1, 1282704, Control_c, 0, 64, 62
1, 1282724, Control_c, 0, 64, 75
1, 1282742, Control_c, 0, 64, 88
1, 1282761, Control_c, 0, 64, 106
1, 1282778, Control_c, 0, 64, 124
1, 1282965, Control_c, 0, 67, 15
1, 1282982, Control_c, 0, 67, 19
1, 1282999, Control_c, 0, 67, 24
1, 1283010, Note_on_c, 0, 68, 0
1, 1283018, Control_c, 0, 67, 31
1, 1283037, Control_c, 0, 67, 42
1, 1283056, Control_c, 0, 67, 58
1, 1283074, Control_c, 0, 67, 75
1, 1283094, Control_c, 0, 67, 88
1, 1283112, Control_c, 0, 67, 101
1, 1283130, Control_c, 0, 67, 111
1, 1283150, Control_c, 0, 67, 117
1, 1283185, Control_c, 0, 67, 122
1, 1283189, Note_on_c, 0, 75, 0
1, 1283222, Control_c, 0, 67, 127
1, 1283251, Note_on_c, 0, 47, 0
1, 1283671, Note_on_c, 0, 85, 62
1, 1283679, Note_on_c, 0, 45, 39
1, 1283690, Note_on_c, 0, 33, 39
1, 1283698, Note_on_c, 0, 35, 0
1, 1283706, Note_on_c, 0, 73, 38
1, 1283713, Control_c, 0, 64, 91
1, 1283719, Note_on_c, 0, 76, 33
1, 1283734, Control_c, 0, 64, 65
1, 1283750, Control_c, 0, 64, 58
1, 1283769, Control_c, 0, 64, 62
1, 1283772, Note_on_c, 0, 80, 0
1, 1283789, Control_c, 0, 64, 69
1, 1283806, Control_c, 0, 64, 77
1, 1283825, Control_c, 0, 64, 94
1, 1283839, Note_on_c, 0, 76, 0
1, 1283843, Control_c, 0, 64, 117
1, 1283862, Control_c, 0, 64, 127
1, 1283896, Note_on_c, 0, 45, 0
1, 1283974, Note_on_c, 0, 73, 0
1, 1284146, Note_on_c, 0, 33, 0
1, 1284176, Note_on_c, 0, 85, 0
1, 1284178, Note_on_c, 0, 87, 75
1, 1284194, Note_on_c, 0, 30, 38
1, 1284202, Note_on_c, 0, 81, 44
1, 1284203, Note_on_c, 0, 42, 33
1, 1284220, Note_on_c, 0, 75, 35
1, 1284255, Note_on_c, 0, 81, 0
1, 1284300, Note_on_c, 0, 42, 0
1, 1284353, Note_on_c, 0, 75, 0
1, 1284446, Control_c, 0, 67, 119
1, 1284483, Control_c, 0, 67, 112
1, 1284501, Control_c, 0, 67, 107
1, 1284518, Control_c, 0, 67, 99
1, 1284535, Control_c, 0, 67, 89
1, 1284539, Note_on_c, 0, 88, 71
1, 1284545, Note_on_c, 0, 28, 37
1, 1284556, Control_c, 0, 67, 76
1, 1284570, Note_on_c, 0, 40, 38
1, 1284571, Note_on_c, 0, 76, 44
1, 1284572, Note_on_c, 0, 80, 47
1, 1284575, Control_c, 0, 67, 63
1, 1284593, Control_c, 0, 67, 51
1, 1284613, Control_c, 0, 64, 119
1, 1284614, Control_c, 0, 67, 37
1, 1284632, Control_c, 0, 64, 87
1, 1284632, Control_c, 0, 67, 25
1, 1284634, Note_on_c, 0, 87, 0
1, 1284647, Note_on_c, 0, 30, 0
1, 1284650, Control_c, 0, 64, 53
1, 1284653, Control_c, 0, 67, 13
1, 1284669, Control_c, 0, 64, 27
1, 1284686, Control_c, 0, 67, 0
1, 1284742, Control_c, 0, 64, 36
1, 1284760, Control_c, 0, 64, 53
1, 1284781, Control_c, 0, 64, 69
1, 1284798, Control_c, 0, 64, 83
1, 1284817, Control_c, 0, 64, 100
1, 1284823, Note_on_c, 0, 80, 0
1, 1284837, Control_c, 0, 64, 117
1, 1284854, Control_c, 0, 64, 127
1, 1284928, Note_on_c, 0, 40, 0
1, 1284932, Note_on_c, 0, 76, 0
1, 1285525, Note_on_c, 0, 90, 69
1, 1285553, Note_on_c, 0, 83, 47
1, 1285560, Note_on_c, 0, 78, 42
1, 1285573, Note_on_c, 0, 27, 38
1, 1285579, Note_on_c, 0, 39, 28
1, 1285643, Note_on_c, 0, 88, 0
1, 1285753, Control_c, 0, 64, 112
1, 1285771, Control_c, 0, 64, 84
1, 1285775, Note_on_c, 0, 28, 0
1, 1285790, Control_c, 0, 64, 57
1, 1285806, Control_c, 0, 64, 41
1, 1285900, Control_c, 0, 64, 51
1, 1285919, Control_c, 0, 64, 66
1, 1285937, Control_c, 0, 64, 81
1, 1285957, Control_c, 0, 64, 96
1, 1285960, Control_c, 0, 67, 8
1, 1285975, Control_c, 0, 64, 111
1, 1285992, Control_c, 0, 64, 125
1, 1286029, Control_c, 0, 67, 13
1, 1286085, Control_c, 0, 67, 18
1, 1286141, Control_c, 0, 67, 23
1, 1286160, Control_c, 0, 67, 28
1, 1286176, Control_c, 0, 67, 36
1, 1286196, Control_c, 0, 67, 42
1, 1286214, Control_c, 0, 67, 46
1, 1286233, Control_c, 0, 67, 50
1, 1286261, Control_c, 0, 67, 55
1, 1286279, Control_c, 0, 67, 61
1, 1286299, Control_c, 0, 67, 67
1, 1286317, Control_c, 0, 67, 73
1, 1286324, Note_on_c, 0, 83, 0
1, 1286335, Control_c, 0, 67, 79
1, 1286340, Note_on_c, 0, 39, 0
1, 1286355, Control_c, 0, 67, 86
1, 1286371, Control_c, 0, 67, 92
1, 1286387, Note_on_c, 0, 78, 0
1, 1286390, Control_c, 0, 67, 98
1, 1286408, Control_c, 0, 67, 105
1, 1286428, Control_c, 0, 67, 111
1, 1286447, Control_c, 0, 67, 115
1, 1286483, Control_c, 0, 67, 121
1, 1286521, Control_c, 0, 67, 127
1, 1287214, Note_on_c, 0, 92, 64
1, 1287233, Note_on_c, 0, 80, 43
1, 1287240, Note_on_c, 0, 83, 34
1, 1287243, Note_on_c, 0, 88, 52
1, 1287251, Note_on_c, 0, 37, 32
1, 1287275, Note_on_c, 0, 25, 27
1, 1287359, Note_on_c, 0, 90, 0
1, 1287421, Control_c, 0, 64, 116
1, 1287438, Control_c, 0, 64, 91
1, 1287452, Note_on_c, 0, 27, 0
1, 1287456, Control_c, 0, 64, 63
1, 1287476, Control_c, 0, 64, 41
1, 1287492, Control_c, 0, 64, 34
1, 1287512, Control_c, 0, 64, 28
1, 1287586, Control_c, 0, 64, 37
1, 1287605, Control_c, 0, 64, 53
1, 1287623, Control_c, 0, 64, 70
1, 1287643, Control_c, 0, 64, 85
1, 1287649, Note_on_c, 0, 83, 0
1, 1287662, Control_c, 0, 64, 102
1, 1287677, Control_c, 0, 64, 115
1, 1287697, Control_c, 0, 64, 126
1, 1287810, Note_on_c, 0, 88, 0
1, 1287886, Note_on_c, 0, 25, 0
1, 1288070, Poly_aftertouch_c, 0, 37, 24
1, 1288138, Note_on_c, 0, 37, 0
1, 1288138, Poly_aftertouch_c, 0, 37, 0
1, 1288188, Note_on_c, 0, 80, 0
1, 1288926, Note_on_c, 0, 94, 54
1, 1288929, Control_c, 0, 64, 100
1, 1288934, Note_on_c, 0, 42, 31
1, 1288935, Note_on_c, 0, 30, 30
1, 1288947, Note_on_c, 0, 82, 35
1, 1288948, Control_c, 0, 64, 71
1, 1288967, Note_on_c, 0, 88, 25
1, 1288967, Control_c, 0, 64, 50
1, 1289021, Control_c, 0, 64, 57
1, 1289040, Control_c, 0, 64, 65
1, 1289059, Note_on_c, 0, 92, 0
1, 1289066, Control_c, 0, 64, 75
1, 1289087, Control_c, 0, 64, 93
1, 1289107, Control_c, 0, 64, 118
1, 1289124, Control_c, 0, 64, 127
1, 1289131, Note_on_c, 0, 30, 0
1, 1289245, Note_on_c, 0, 42, 0
1, 1289292, Note_on_c, 0, 88, 0
1, 1289400, Note_on_c, 0, 82, 0
1, 1289623, Control_c, 0, 64, 123
1, 1289643, Control_c, 0, 64, 103
1, 1289656, Note_on_c, 0, 47, 62
1, 1289662, Control_c, 0, 64, 79
1, 1289664, Note_on_c, 0, 35, 52
1, 1289666, Note_on_c, 0, 95, 60
1, 1289669, Note_on_c, 0, 87, 42
1, 1289677, Note_on_c, 0, 83, 44
1, 1289680, Control_c, 0, 64, 58
1, 1289686, Note_on_c, 0, 47, 0
1, 1289698, Control_c, 0, 64, 47
1, 1289704, Note_on_c, 0, 35, 0
1, 1289718, Control_c, 0, 64, 44
1, 1289734, Control_c, 0, 64, 41
1, 1289739, Note_on_c, 0, 94, 0
1, 1289753, Control_c, 0, 64, 37
1, 1289809, Control_c, 0, 64, 33
1, 1289962, Note_on_c, 0, 37, 61
1, 1289975, Note_on_c, 0, 49, 45
1, 1290023, Note_on_c, 0, 49, 0
1, 1290028, Note_on_c, 0, 37, 0
1, 1290095, Control_c, 0, 64, 28
1, 1290103, Note_on_c, 0, 35, 57
1, 1290104, Note_on_c, 0, 47, 50
1, 1290114, Control_c, 0, 64, 23
1, 1290133, Control_c, 0, 64, 13
1, 1290170, Control_c, 0, 64, 0
1, 1290282, Control_c, 0, 64, 26
1, 1290299, Control_c, 0, 64, 47
1, 1290318, Control_c, 0, 64, 69
1, 1290338, Control_c, 0, 64, 85
1, 1290355, Control_c, 0, 64, 103
1, 1290374, Control_c, 0, 64, 124
1, 1290376, Note_on_c, 0, 35, 0
1, 1290376, Control_c, 0, 67, 118
1, 1290392, Control_c, 0, 67, 111
1, 1290412, Control_c, 0, 67, 98
1, 1290419, Note_on_c, 0, 47, 0
1, 1290428, Control_c, 0, 67, 77
1, 1290447, Control_c, 0, 67, 49
1, 1290462, Note_on_c, 0, 83, 0
1, 1290465, Control_c, 0, 67, 20
1, 1290466, Note_on_c, 0, 95, 0
1, 1290485, Control_c, 0, 67, 0
1, 1290515, Note_on_c, 0, 87, 0
1, 1290792, Note_on_c, 0, 59, 48
1, 1290841, Note_on_c, 0, 63, 54
1, 1290858, Note_on_c, 0, 66, 62
1, 1290868, Note_on_c, 0, 71, 63
1, 1290887, Note_on_c, 0, 59, 0
1, 1290902, Note_on_c, 0, 71, 0
1, 1290928, Note_on_c, 0, 83, 64
1, 1290931, Note_on_c, 0, 66, 0
1, 1290953, Note_on_c, 0, 63, 0
1, 1290962, Note_on_c, 0, 87, 71
1, 1291040, Note_on_c, 0, 95, 85
1, 1291106, Control_c, 0, 64, 119
1, 1291125, Control_c, 0, 64, 96
1, 1291143, Control_c, 0, 64, 72
1, 1291161, Control_c, 0, 64, 53
1, 1291179, Control_c, 0, 64, 45
1, 1291195, Note_on_c, 0, 34, 75
1, 1291195, Control_c, 0, 64, 43
1, 1291199, Note_on_c, 0, 46, 72
1, 1291231, Note_on_c, 0, 46, 0
1, 1291234, Control_c, 0, 64, 40
1, 1291239, Note_on_c, 0, 34, 0
1, 1291504, Note_on_c, 0, 47, 58
1, 1291527, Note_on_c, 0, 35, 38
1, 1291537, Note_on_c, 0, 47, 0
1, 1291577, Note_on_c, 0, 35, 0
1, 1291600, Poly_aftertouch_c, 0, 48, 0
1, 1291602, Note_on_c, 0, 46, 78
1, 1291611, Note_on_c, 0, 34, 67
1, 1291680, Control_c, 0, 64, 35
1, 1291718, Control_c, 0, 64, 30
1, 1291828, Control_c, 0, 64, 45
1, 1291847, Control_c, 0, 64, 62
1, 1291875, Note_on_c, 0, 34, 0
1, 1291875, Control_c, 0, 64, 83
1, 1291894, Control_c, 0, 64, 107
1, 1291912, Control_c, 0, 64, 127
1, 1291917, Note_on_c, 0, 46, 0
1, 1292056, Note_on_c, 0, 83, 0
1, 1292061, Note_on_c, 0, 95, 0
1, 1292111, Note_on_c, 0, 87, 0
1, 1292237, Note_on_c, 0, 59, 62
1, 1292281, Note_on_c, 0, 63, 60
1, 1292319, Note_on_c, 0, 71, 79
1, 1292322, Note_on_c, 0, 66, 69
1, 1292336, Note_on_c, 0, 59, 0
1, 1292355, Note_on_c, 0, 71, 0
1, 1292367, Note_on_c, 0, 83, 78
1, 1292378, Note_on_c, 0, 66, 0
1, 1292387, Note_on_c, 0, 63, 0
1, 1292403, Note_on_c, 0, 87, 87
1, 1292477, Note_on_c, 0, 95, 99
1, 1292499, Poly_aftertouch_c, 0, 90, 0
1, 1292552, Poly_aftertouch_c, 0, 91, 0
1, 1292651, Note_on_c, 0, 45, 95
1, 1292656, Note_on_c, 0, 33, 90
1, 1292670, Control_c, 0, 64, 102
1, 1292689, Control_c, 0, 64, 76
1, 1292694, Note_on_c, 0, 33, 0
1, 1292708, Control_c, 0, 64, 59
1, 1292711, Note_on_c, 0, 45, 0
1, 1292726, Control_c, 0, 64, 56
1, 1292959, Note_on_c, 0, 46, 84
1, 1292960, Note_on_c, 0, 34, 83
1, 1292990, Note_on_c, 0, 46, 0
1, 1292997, Note_on_c, 0, 34, 0
1, 1293050, Control_c, 0, 64, 53
1, 1293053, Note_on_c, 0, 45, 93
1, 1293065, Note_on_c, 0, 33, 85
1, 1293068, Control_c, 0, 64, 50
1, 1293088, Control_c, 0, 64, 41
1, 1293105, Control_c, 0, 64, 22
1, 1293143, Control_c, 0, 64, 0
1, 1293234, Control_c, 0, 64, 27
1, 1293254, Control_c, 0, 64, 59
1, 1293262, Note_on_c, 0, 33, 0
1, 1293273, Control_c, 0, 64, 89
1, 1293292, Control_c, 0, 64, 121
1, 1293310, Control_c, 0, 64, 127
1, 1293326, Note_on_c, 0, 45, 0
1, 1293490, Note_on_c, 0, 83, 0
1, 1293518, Note_on_c, 0, 87, 0
1, 1293586, Note_on_c, 0, 95, 0
1, 1293647, Note_on_c, 0, 60, 65
1, 1293684, Note_on_c, 0, 63, 61
1, 1293739, Note_on_c, 0, 66, 73
1, 1293757, Note_on_c, 0, 72, 82
1, 1293787, Note_on_c, 0, 60, 0
1, 1293791, Note_on_c, 0, 84, 83
1, 1293809, Note_on_c, 0, 72, 0
1, 1293829, Note_on_c, 0, 87, 86
1, 1293863, Note_on_c, 0, 66, 0
1, 1293891, Note_on_c, 0, 63, 0
1, 1293892, Note_on_c, 0, 90, 7
1, 1293911, Note_on_c, 0, 91, 13
1, 1293914, Note_on_c, 0, 96, 102
1, 1293938, Note_on_c, 0, 90, 0
1, 1293957, Note_on_c, 0, 91, 0
1, 1294135, Note_on_c, 0, 32, 102
1, 1294136, Note_on_c, 0, 44, 105
1, 1294170, Control_c, 0, 64, 111
1, 1294177, Note_on_c, 0, 44, 0
1, 1294187, Note_on_c, 0, 32, 0
1, 1294188, Control_c, 0, 64, 85
1, 1294208, Control_c, 0, 64, 64
1, 1294228, Control_c, 0, 64, 54
1, 1294245, Control_c, 0, 64, 51
1, 1294264, Control_c, 0, 64, 48
1, 1294302, Control_c, 0, 64, 46
1, 1294530, Note_on_c, 0, 46, 98
1, 1294535, Note_on_c, 0, 34, 96
1, 1294558, Note_on_c, 0, 46, 0
1, 1294572, Note_on_c, 0, 34, 0
1, 1294652, Note_on_c, 0, 44, 98
1, 1294658, Note_on_c, 0, 32, 97
1, 1294711, Poly_aftertouch_c, 0, 34, 0
1, 1294719, Control_c, 0, 64, 39
1, 1294736, Control_c, 0, 64, 26
1, 1294755, Control_c, 0, 64, 0
1, 1294921, Control_c, 0, 64, 38
1, 1294940, Control_c, 0, 64, 57
1, 1294959, Control_c, 0, 64, 83
1, 1294977, Control_c, 0, 64, 115
1, 1294984, Note_on_c, 0, 96, 0
1, 1294995, Control_c, 0, 64, 127
1, 1295040, Note_on_c, 0, 84, 0
1, 1295129, Note_on_c, 0, 87, 0
1, 1295161, Note_on_c, 0, 32, 0
1, 1295266, Note_on_c, 0, 44, 0
1, 1295630, Note_on_c, 0, 42, 90
1, 1295631, Note_on_c, 0, 30, 87
1, 1295633, Note_on_c, 0, 84, 93
1, 1295633, Note_on_c, 0, 72, 95
1, 1295633, Note_on_c, 0, 75, 91
1, 1295640, Note_on_c, 0, 80, 88
1, 1295760, Note_on_c, 0, 72, 0
1, 1295780, Note_on_c, 0, 75, 0
1, 1295792, Note_on_c, 0, 80, 0
1, 1295808, Note_on_c, 0, 42, 0
1, 1295966, Poly_aftertouch_c, 0, 36, 0
1, 1295976, Note_on_c, 0, 30, 0
1, 1296115, Note_on_c, 0, 41, 92
1, 1296115, Note_on_c, 0, 80, 79
1, 1296119, Note_on_c, 0, 29, 86
1, 1296122, Note_on_c, 0, 73, 99
1, 1296127, Note_on_c, 0, 85, 92
1, 1296179, Note_on_c, 0, 83, 29
1, 1296185, Note_on_c, 0, 84, 0
1, 1296190, Control_c, 0, 64, 114
1, 1296210, Control_c, 0, 64, 59
1, 1296214, Poly_aftertouch_c, 0, 36, 0
1, 1296223, Note_on_c, 0, 83, 0
1, 1296226, Control_c, 0, 64, 0
1, 1296320, Control_c, 0, 64, 37
1, 1296339, Control_c, 0, 64, 80
1, 1296358, Control_c, 0, 64, 127
1, 1296416, Note_on_c, 0, 85, 0
1, 1296463, Note_on_c, 0, 80, 0
1, 1296510, Note_on_c, 0, 73, 0
1, 1296716, Note_on_c, 0, 41, 0
1, 1296717, Note_on_c, 0, 80, 90
1, 1296725, Note_on_c, 0, 68, 89
1, 1296873, Note_on_c, 0, 68, 0
1, 1297022, Note_on_c, 0, 78, 86
1, 1297023, Note_on_c, 0, 42, 86
1, 1297029, Note_on_c, 0, 75, 81
1, 1297030, Note_on_c, 0, 66, 93
1, 1297032, Note_on_c, 0, 30, 80
1, 1297073, Note_on_c, 0, 80, 0
1, 1297089, Control_c, 0, 64, 122
1, 1297109, Control_c, 0, 64, 83
1, 1297121, Note_on_c, 0, 29, 0
1, 1297126, Control_c, 0, 64, 50
1, 1297147, Control_c, 0, 64, 47
1, 1297163, Control_c, 0, 64, 57
1, 1297182, Control_c, 0, 64, 70
1, 1297200, Control_c, 0, 64, 91
1, 1297218, Control_c, 0, 64, 127
1, 1297261, Note_on_c, 0, 75, 0
1, 1297432, Note_on_c, 0, 66, 0
1, 1297532, Note_on_c, 0, 77, 87
1, 1297534, Note_on_c, 0, 65, 94
1, 1297537, Note_on_c, 0, 73, 88
1, 1297584, Note_on_c, 0, 78, 0
1, 1297686, Note_on_c, 0, 42, 0
1, 1297694, Note_on_c, 0, 73, 0
1, 1297721, Note_on_c, 0, 77, 0
1, 1297723, Note_on_c, 0, 65, 0
1, 1297873, Note_on_c, 0, 77, 89
1, 1297875, Note_on_c, 0, 43, 79
1, 1297876, Note_on_c, 0, 31, 71
1, 1297880, Note_on_c, 0, 30, 0
1, 1297881, Note_on_c, 0, 73, 78
1, 1297883, Note_on_c, 0, 65, 89
1, 1297950, Control_c, 0, 64, 101
1, 1297971, Control_c, 0, 64, 59
1, 1297987, Control_c, 0, 64, 0
1, 1298135, Control_c, 0, 64, 26
1, 1298155, Control_c, 0, 64, 50
1, 1298173, Control_c, 0, 64, 79
1, 1298192, Control_c, 0, 64, 103
1, 1298210, Control_c, 0, 64, 127
1, 1298326, Note_on_c, 0, 43, 0
1, 1298345, Note_on_c, 0, 73, 0
1, 1298358, Note_on_c, 0, 65, 0
1, 1298663, Control_c, 0, 64, 107
1, 1298682, Control_c, 0, 64, 60
1, 1298686, Note_on_c, 0, 63, 80
1, 1298686, Note_on_c, 0, 75, 75
1, 1298691, Note_on_c, 0, 72, 66
1, 1298696, Note_on_c, 0, 32, 75
1, 1298698, Note_on_c, 0, 44, 80
1, 1298700, Control_c, 0, 64, 0
1, 1298702, Note_on_c, 0, 77, 0
1, 1298747, Note_on_c, 0, 31, 0
1, 1298757, Control_c, 0, 64, 8
1, 1298777, Control_c, 0, 64, 39
1, 1298789, Note_on_c, 0, 63, 0
1, 1298794, Control_c, 0, 64, 67
1, 1298814, Control_c, 0, 64, 94
1, 1298825, Note_on_c, 0, 72, 0
1, 1298831, Control_c, 0, 64, 124
1, 1298850, Note_on_c, 0, 75, 0
1, 1298952, Note_on_c, 0, 80, 99
1, 1298955, Note_on_c, 0, 68, 92
1, 1299006, Note_on_c, 0, 68, 0
1, 1299062, Note_on_c, 0, 80, 0
1, 1299187, Note_on_c, 0, 87, 108
1, 1299190, Note_on_c, 0, 75, 101
1, 1299213, Note_on_c, 0, 32, 0
1, 1299231, Note_on_c, 0, 75, 0
1, 1299242, Note_on_c, 0, 87, 0
1, 1299269, Note_on_c, 0, 44, 0
1, 1299522, Note_on_c, 0, 89, 95
1, 1299526, Note_on_c, 0, 41, 91
1, 1299526, Note_on_c, 0, 29, 84
1, 1299530, Note_on_c, 0, 80, 87
1, 1299530, Note_on_c, 0, 77, 93
1, 1299532, Note_on_c, 0, 85, 87
1, 1299582, Control_c, 0, 64, 97
1, 1299601, Control_c, 0, 64, 43
1, 1299603, Poly_aftertouch_c, 0, 36, 0
1, 1299617, Control_c, 0, 64, 0
1, 1299693, Control_c, 0, 64, 26
1, 1299711, Control_c, 0, 64, 67
1, 1299728, Note_on_c, 0, 89, 0
1, 1299729, Control_c, 0, 64, 109
1, 1299750, Control_c, 0, 64, 127
1, 1299837, Note_on_c, 0, 77, 0
1, 1299868, Note_on_c, 0, 85, 0
1, 1300031, Note_on_c, 0, 41, 0
1, 1300068, Note_on_c, 0, 85, 91
1, 1300068, Note_on_c, 0, 73, 87
1, 1300081, Note_on_c, 0, 80, 0
1, 1300135, Note_on_c, 0, 85, 0
1, 1300157, Note_on_c, 0, 73, 0
1, 1300356, Note_on_c, 0, 82, 84
1, 1300359, Note_on_c, 0, 42, 83
1, 1300360, Note_on_c, 0, 30, 80
1, 1300364, Note_on_c, 0, 70, 86
1, 1300370, Note_on_c, 0, 78, 80
1, 1300425, Control_c, 0, 64, 118
1, 1300442, Note_on_c, 0, 29, 0
1, 1300442, Control_c, 0, 64, 71
1, 1300461, Control_c, 0, 64, 25
1, 1300481, Control_c, 0, 64, 14
1, 1300499, Control_c, 0, 64, 25
1, 1300518, Control_c, 0, 64, 50
1, 1300534, Control_c, 0, 64, 79
1, 1300553, Control_c, 0, 64, 112
1, 1300572, Control_c, 0, 64, 127
1, 1300575, Note_on_c, 0, 82, 0
1, 1300606, Note_on_c, 0, 78, 0
1, 1300629, Note_on_c, 0, 70, 0
1, 1300851, Note_on_c, 0, 66, 91
1, 1300853, Note_on_c, 0, 78, 90
1, 1300858, Note_on_c, 0, 75, 86
1, 1300945, Note_on_c, 0, 75, 0
1, 1300986, Note_on_c, 0, 78, 0
1, 1301027, Note_on_c, 0, 66, 0
1, 1301087, Note_on_c, 0, 42, 0
1, 1301167, Note_on_c, 0, 77, 90
1, 1301170, Note_on_c, 0, 43, 79
1, 1301170, Note_on_c, 0, 65, 86
1, 1301172, Note_on_c, 0, 31, 76
1, 1301174, Note_on_c, 0, 73, 82
1, 1301189, Note_on_c, 0, 30, 0
1, 1301232, Control_c, 0, 64, 75
1, 1301249, Poly_aftertouch_c, 0, 36, 0
1, 1301249, Control_c, 0, 64, 0
1, 1301341, Control_c, 0, 64, 13
1, 1301360, Control_c, 0, 64, 46
1, 1301379, Control_c, 0, 64, 81
1, 1301398, Control_c, 0, 64, 112
1, 1301416, Control_c, 0, 64, 127
1, 1301534, Note_on_c, 0, 73, 0
1, 1301571, Note_on_c, 0, 65, 0
1, 1301587, Note_on_c, 0, 43, 0
1, 1301879, Control_c, 0, 64, 79
1, 1301896, Control_c, 0, 64, 43
1, 1301899, Note_on_c, 0, 63, 87
1, 1301902, Note_on_c, 0, 32, 81
1, 1301904, Note_on_c, 0, 44, 90
1, 1301907, Note_on_c, 0, 75, 81
1, 1301908, Note_on_c, 0, 72, 78
1, 1301914, Control_c, 0, 64, 46
1, 1301927, Note_on_c, 0, 77, 0
1, 1301934, Control_c, 0, 64, 62
1, 1301944, Note_on_c, 0, 31, 0
1, 1301952, Control_c, 0, 64, 84
1, 1301971, Control_c, 0, 64, 117
1, 1301979, Note_on_c, 0, 63, 0
1, 1301991, Control_c, 0, 64, 127
1, 1302014, Poly_aftertouch_c, 0, 36, 0
1, 1302020, Note_on_c, 0, 72, 0
1, 1302040, Note_on_c, 0, 75, 0
1, 1302112, Note_on_c, 0, 32, 0
1, 1302164, Note_on_c, 0, 80, 105
1, 1302171, Note_on_c, 0, 68, 95
1, 1302192, Note_on_c, 0, 68, 0
1, 1302231, Note_on_c, 0, 80, 0
1, 1302390, Note_on_c, 0, 44, 0
1, 1302395, Note_on_c, 0, 87, 112
1, 1302396, Note_on_c, 0, 75, 90
1, 1302424, Note_on_c, 0, 75, 0
1, 1302448, Note_on_c, 0, 87, 0
1, 1302507, Note_on_c, 0, 29, 87
1, 1302519, Control_c, 0, 64, 92
1, 1302537, Control_c, 0, 64, 56
1, 1302556, Control_c, 0, 64, 23
1, 1302574, Control_c, 0, 64, 8
1, 1302591, Control_c, 0, 64, 0
1, 1302592, Note_on_c, 0, 37, 75
1, 1302714, Note_on_c, 0, 41, 103
1, 1302722, Control_c, 0, 64, 32
1, 1302734, Note_on_c, 0, 80, 108
1, 1302736, Note_on_c, 0, 92, 101
1, 1302737, Note_on_c, 0, 85, 101
1, 1302741, Control_c, 0, 64, 61
1, 1302760, Control_c, 0, 64, 91
1, 1302768, Note_on_c, 0, 29, 0
1, 1302777, Control_c, 0, 64, 125
1, 1302782, Note_on_c, 0, 37, 0
1, 1302792, Note_on_c, 0, 41, 0
1, 1302793, Note_on_c, 0, 90, 23
1, 1302803, Note_on_c, 0, 80, 0
1, 1302812, Note_on_c, 0, 85, 0
1, 1302813, Note_on_c, 0, 92, 0
1, 1302843, Poly_aftertouch_c, 0, 35, 0
1, 1302844, Note_on_c, 0, 90, 0
1, 1303118, Note_on_c, 0, 77, 90
1, 1303119, Note_on_c, 0, 89, 98
1, 1303120, Note_on_c, 0, 65, 76
1, 1303139, Note_on_c, 0, 89, 0
1, 1303153, Note_on_c, 0, 65, 0
1, 1303153, Note_on_c, 0, 77, 0
1, 1303164, Note_on_c, 0, 88, 44
1, 1303202, Note_on_c, 0, 88, 0
1, 1303222, Note_on_c, 0, 73, 99
1, 1303226, Note_on_c, 0, 85, 97
1, 1303241, Note_on_c, 0, 61, 74
1, 1303268, Note_on_c, 0, 73, 0
1, 1303275, Note_on_c, 0, 85, 0
1, 1303326, Note_on_c, 0, 61, 0
1, 1303404, Poly_aftertouch_c, 0, 61, 0
1, 1303424, Note_on_c, 0, 56, 89
1, 1303464, Note_on_c, 0, 56, 0
1, 1303557, Note_on_c, 0, 80, 79
1, 1303562, Note_on_c, 0, 68, 73
1, 1303594, Note_on_c, 0, 68, 0
1, 1303603, Note_on_c, 0, 80, 0
1, 1303627, Note_on_c, 0, 53, 91
1, 1303678, Note_on_c, 0, 53, 0
1, 1303756, Note_on_c, 0, 65, 75
1, 1303763, Note_on_c, 0, 77, 61
1, 1303785, Note_on_c, 0, 77, 0
1, 1303789, Note_on_c, 0, 65, 0
1, 1303839, Note_on_c, 0, 49, 85
1, 1303896, Note_on_c, 0, 49, 0
1, 1303940, Note_on_c, 0, 61, 88
1, 1303947, Note_on_c, 0, 73, 74
1, 1303971, Note_on_c, 0, 73, 0
1, 1303977, Note_on_c, 0, 61, 0
1, 1304070, Note_on_c, 0, 44, 89
1, 1304141, Poly_aftertouch_c, 0, 73, 0
1, 1304175, Note_on_c, 0, 44, 0
1, 1304203, Note_on_c, 0, 56, 77
1, 1304205, Note_on_c, 0, 68, 70
1, 1304230, Note_on_c, 0, 68, 0
1, 1304233, Note_on_c, 0, 56, 0
1, 1304290, Note_on_c, 0, 41, 83
1, 1304349, Note_on_c, 0, 41, 0
1, 1304416, Note_on_c, 0, 64, 53
1, 1304423, Note_on_c, 0, 53, 46
1, 1304424, Note_on_c, 0, 65, 53
1, 1304437, Note_on_c, 0, 52, 29
1, 1304448, Note_on_c, 0, 64, 0
1, 1304454, Note_on_c, 0, 53, 0
1, 1304457, Note_on_c, 0, 65, 0
1, 1304489, Note_on_c, 0, 52, 0
1, 1304498, Note_on_c, 0, 44, 86
1, 1304599, Note_on_c, 0, 56, 77
1, 1304603, Note_on_c, 0, 68, 82
1, 1304622, Note_on_c, 0, 44, 0
1, 1304627, Note_on_c, 0, 56, 0
1, 1304628, Note_on_c, 0, 68, 0
1, 1304700, Note_on_c, 0, 49, 91
1, 1304781, Note_on_c, 0, 49, 0
1, 1304790, Poly_aftertouch_c, 0, 56, 0
1, 1304808, Note_on_c, 0, 73, 87
1, 1304810, Note_on_c, 0, 61, 78
1, 1304832, Note_on_c, 0, 73, 0
1, 1304836, Note_on_c, 0, 61, 0
1, 1304893, Note_on_c, 0, 53, 93
1, 1304941, Note_on_c, 0, 53, 0
1, 1304978, Poly_aftertouch_c, 0, 61, 0
1, 1305004, Note_on_c, 0, 65, 85
1, 1305005, Note_on_c, 0, 77, 87
1, 1305030, Note_on_c, 0, 77, 0
1, 1305036, Note_on_c, 0, 65, 0
1, 1305091, Note_on_c, 0, 56, 100
1, 1305116, Note_on_c, 0, 56, 0
1, 1305202, Note_on_c, 0, 70, 73
1, 1305215, Note_on_c, 0, 80, 53
1, 1305222, Note_on_c, 0, 70, 0
1, 1305249, Note_on_c, 0, 80, 0
1, 1305362, Note_on_c, 0, 68, 92
1, 1305371, Note_on_c, 0, 85, 98
1, 1305374, Note_on_c, 0, 73, 97
1, 1305376, Note_on_c, 0, 77, 86
1, 1305377, Note_on_c, 0, 61, 80
1, 1305397, Note_on_c, 0, 68, 0
1, 1305400, Note_on_c, 0, 69, 53
1, 1305401, Note_on_c, 0, 69, 0
1, 1305402, Note_on_c, 0, 61, 0
1, 1305724, Note_on_c, 0, 77, 0
1, 1305745, Note_on_c, 0, 73, 0
1, 1305789, Note_on_c, 0, 85, 0
1, 1306037, Note_on_c, 0, 60, 71
1, 1306038, Note_on_c, 0, 72, 75
1, 1306040, Note_on_c, 0, 68, 62
1, 1306049, Note_on_c, 0, 87, 85
1, 1306054, Note_on_c, 0, 75, 84
1, 1306055, Control_c, 0, 64, 85
1, 1306065, Note_on_c, 0, 80, 73
1, 1306066, Note_on_c, 0, 78, 71
1, 1306075, Control_c, 0, 64, 39
1, 1306093, Control_c, 0, 64, 0
1, 1306148, Control_c, 0, 64, 28
1, 1306167, Control_c, 0, 64, 50
1, 1306178, Note_on_c, 0, 60, 0
1, 1306185, Control_c, 0, 64, 77
1, 1306203, Note_on_c, 0, 72, 0
1, 1306204, Control_c, 0, 64, 105
1, 1306223, Control_c, 0, 64, 127
1, 1306291, Note_on_c, 0, 73, 89
1, 1306309, Note_on_c, 0, 61, 79
1, 1306350, Poly_aftertouch_c, 0, 65, 0
1, 1306381, Note_on_c, 0, 68, 0
1, 1306405, Note_on_c, 0, 80, 0
1, 1306426, Note_on_c, 0, 73, 0
1, 1306435, Note_on_c, 0, 61, 0
1, 1306441, Note_on_c, 0, 78, 0
1, 1306463, Note_on_c, 0, 75, 0
1, 1306512, Note_on_c, 0, 72, 99
1, 1306516, Note_on_c, 0, 60, 88
1, 1306530, Note_on_c, 0, 87, 0
1, 1306626, Note_on_c, 0, 60, 0
1, 1306642, Note_on_c, 0, 72, 0
1, 1306867, Note_on_c, 0, 71, 91
1, 1306869, Note_on_c, 0, 59, 82
1, 1306871, Note_on_c, 0, 68, 81
1, 1306872, Note_on_c, 0, 61, 75
1, 1306872, Note_on_c, 0, 89, 94
1, 1306875, Note_on_c, 0, 77, 94
1, 1306880, Note_on_c, 0, 80, 87
1, 1306886, Note_on_c, 0, 85, 79
1, 1306918, Control_c, 0, 64, 102
1, 1306936, Control_c, 0, 64, 59
1, 1306954, Control_c, 0, 64, 0
1, 1307067, Control_c, 0, 64, 17
1, 1307084, Control_c, 0, 64, 48
1, 1307103, Control_c, 0, 64, 77
1, 1307121, Control_c, 0, 64, 103
1, 1307141, Control_c, 0, 64, 127
1, 1307187, Note_on_c, 0, 59, 0
1, 1307191, Note_on_c, 0, 80, 0
1, 1307216, Note_on_c, 0, 61, 0
1, 1307242, Note_on_c, 0, 85, 0
1, 1307320, Note_on_c, 0, 71, 0
1, 1307330, Note_on_c, 0, 68, 0
1, 1307377, Note_on_c, 0, 77, 0
1, 1307476, Note_on_c, 0, 89, 0
1, 1307591, Note_on_c, 0, 58, 80
1, 1307596, Note_on_c, 0, 61, 74
1, 1307597, Note_on_c, 0, 70, 85
1, 1307600, Note_on_c, 0, 66, 77
1, 1307604, Control_c, 0, 64, 122
1, 1307612, Note_on_c, 0, 90, 93
1, 1307614, Note_on_c, 0, 78, 95
1, 1307623, Control_c, 0, 64, 81
1, 1307624, Note_on_c, 0, 85, 82
1, 1307633, Note_on_c, 0, 64, 31
1, 1307640, Control_c, 0, 64, 38
1, 1307658, Control_c, 0, 64, 22
1, 1307677, Control_c, 0, 64, 28
1, 1307696, Control_c, 0, 64, 47
1, 1307699, Note_on_c, 0, 64, 0
1, 1307715, Control_c, 0, 64, 69
1, 1307734, Control_c, 0, 64, 93
1, 1307752, Control_c, 0, 64, 127
1, 1307799, Note_on_c, 0, 70, 0
1, 1307807, Note_on_c, 0, 58, 0
1, 1307862, Note_on_c, 0, 59, 82
1, 1307865, Note_on_c, 0, 71, 93
1, 1307951, Note_on_c, 0, 59, 0
1, 1307964, Note_on_c, 0, 78, 0
1, 1307973, Note_on_c, 0, 71, 0
1, 1308003, Note_on_c, 0, 66, 0
1, 1308020, Note_on_c, 0, 61, 0
1, 1308020, Note_on_c, 0, 90, 0
1, 1308028, Note_on_c, 0, 85, 0
1, 1308076, Note_on_c, 0, 70, 98
1, 1308093, Note_on_c, 0, 58, 86
1, 1308153, Note_on_c, 0, 71, 7
1, 1308168, Note_on_c, 0, 58, 0
1, 1308228, Note_on_c, 0, 71, 0
1, 1308265, Note_on_c, 0, 70, 0
1, 1308378, Note_on_c, 0, 91, 96
1, 1308380, Note_on_c, 0, 79, 99
1, 1308381, Note_on_c, 0, 69, 96
1, 1308385, Note_on_c, 0, 57, 80
1, 1308385, Note_on_c, 0, 61, 82
1, 1308386, Note_on_c, 0, 63, 85
1, 1308386, Note_on_c, 0, 87, 89
1, 1308390, Note_on_c, 0, 85, 88
1, 1308427, Control_c, 0, 64, 122
1, 1308446, Control_c, 0, 64, 82
1, 1308465, Control_c, 0, 64, 37
1, 1308483, Control_c, 0, 64, 0
1, 1308559, Control_c, 0, 64, 18
1, 1308576, Control_c, 0, 64, 51
1, 1308594, Control_c, 0, 64, 81
1, 1308612, Control_c, 0, 64, 116
1, 1308631, Control_c, 0, 64, 127
1, 1308660, Note_on_c, 0, 57, 0
1, 1308740, Note_on_c, 0, 61, 0
1, 1308750, Note_on_c, 0, 91, 0
1, 1308756, Note_on_c, 0, 79, 0
1, 1308799, Note_on_c, 0, 69, 0
1, 1308823, Note_on_c, 0, 63, 0
1, 1308854, Note_on_c, 0, 87, 0
1, 1308867, Note_on_c, 0, 85, 0
1, 1309116, Note_on_c, 0, 56, 81
1, 1309118, Note_on_c, 0, 92, 92
1, 1309119, Note_on_c, 0, 68, 90
1, 1309121, Note_on_c, 0, 80, 98
1, 1309127, Note_on_c, 0, 87, 85
1, 1309127, Note_on_c, 0, 85, 87
1, 1309128, Note_on_c, 0, 61, 78
1, 1309131, Note_on_c, 0, 63, 76
1, 1309159, Control_c, 0, 64, 108
1, 1309179, Control_c, 0, 64, 66
1, 1309196, Control_c, 0, 64, 16
1, 1309215, Control_c, 0, 64, 0
1, 1309291, Control_c, 0, 64, 31
1, 1309305, Note_on_c, 0, 56, 0
1, 1309306, Note_on_c, 0, 68, 0
1, 1309309, Control_c, 0, 64, 60
1, 1309326, Control_c, 0, 64, 90
1, 1309345, Control_c, 0, 64, 127
1, 1309375, Note_on_c, 0, 57, 84
1, 1309378, Note_on_c, 0, 69, 97
1, 1309423, Note_on_c, 0, 61, 0
1, 1309427, Note_on_c, 0, 63, 0
1, 1309486, Note_on_c, 0, 57, 0
1, 1309503, Note_on_c, 0, 69, 0
1, 1309555, Note_on_c, 0, 80, 0
1, 1309604, Note_on_c, 0, 87, 0
1, 1309608, Note_on_c, 0, 68, 101
1, 1309621, Note_on_c, 0, 56, 81
1, 1309623, Note_on_c, 0, 85, 0
1, 1309675, Note_on_c, 0, 92, 0
1, 1309675, Poly_aftertouch_c, 0, 63, 0
1, 1309685, Poly_aftertouch_c, 0, 61, 0
1, 1309691, Note_on_c, 0, 56, 0
1, 1309722, Note_on_c, 0, 68, 0
1, 1309988, Note_on_c, 0, 55, 86
1, 1309992, Note_on_c, 0, 67, 102
1, 1309995, Note_on_c, 0, 61, 87
1, 1309995, Note_on_c, 0, 81, 106
1, 1309996, Note_on_c, 0, 93, 93
1, 1309998, Note_on_c, 0, 63, 91
1, 1309999, Note_on_c, 0, 85, 98
1, 1309999, Note_on_c, 0, 87, 93
1, 1310096, Control_c, 0, 64, 75
1, 1310112, Control_c, 0, 64, 0
1, 1310207, Control_c, 0, 64, 33
1, 1310225, Control_c, 0, 64, 69
1, 1310244, Control_c, 0, 64, 96
1, 1310258, Note_on_c, 0, 55, 0
1, 1310262, Control_c, 0, 64, 127
1, 1310282, Note_on_c, 0, 67, 0
1, 1310331, Note_on_c, 0, 93, 0
1, 1310363, Note_on_c, 0, 81, 0
1, 1310386, Note_on_c, 0, 61, 0
1, 1310404, Note_on_c, 0, 63, 0
1, 1310486, Note_on_c, 0, 85, 0
1, 1310487, Note_on_c, 0, 87, 0
1, 1310660, Control_c, 0, 64, 104
1, 1310679, Control_c, 0, 64, 67
1, 1310697, Control_c, 0, 64, 36
1, 1310716, Control_c, 0, 64, 26
1, 1310901, Control_c, 0, 64, 41
1, 1310920, Control_c, 0, 64, 69
1, 1310927, Note_on_c, 0, 94, 97
1, 1310928, Note_on_c, 0, 82, 104
1, 1310931, Note_on_c, 0, 66, 101
1, 1310932, Note_on_c, 0, 85, 93
1, 1310933, Note_on_c, 0, 54, 84
1, 1310934, Note_on_c, 0, 61, 87
1, 1310934, Note_on_c, 0, 63, 89
1, 1310936, Note_on_c, 0, 87, 94
1, 1310939, Control_c, 0, 64, 99
1, 1310968, Control_c, 0, 64, 127
1, 1310981, Note_on_c, 0, 54, 0
1, 1310984, Note_on_c, 0, 66, 0
1, 1311012, Note_on_c, 0, 63, 0
1, 1311015, Note_on_c, 0, 61, 0
1, 1311716, Note_on_c, 0, 44, 101
1, 1311720, Note_on_c, 0, 32, 90
1, 1311745, Control_c, 0, 67, 8
1, 1311780, Control_c, 0, 67, 12
1, 1311799, Control_c, 0, 64, 87
1, 1311819, Control_c, 0, 64, 40
1, 1311821, Control_c, 0, 67, 16
1, 1311837, Control_c, 0, 64, 0
1, 1311893, Control_c, 0, 64, 9
1, 1311911, Control_c, 0, 64, 43
1, 1311930, Control_c, 0, 64, 76
1, 1311938, Note_on_c, 0, 32, 0
1, 1311949, Control_c, 0, 64, 109
1, 1311966, Control_c, 0, 64, 127
1, 1311967, Control_c, 0, 67, 12
1, 1312060, Note_on_c, 0, 44, 0
1, 1312228, Note_on_c, 0, 94, 0
1, 1312349, Note_on_c, 0, 87, 0
1, 1312374, Note_on_c, 0, 82, 0
1, 1312389, Note_on_c, 0, 85, 0
1, 1312621, Note_on_c, 0, 51, 81
1, 1312632, Note_on_c, 0, 54, 71
1, 1312639, Note_on_c, 0, 56, 77
1, 1312641, Note_on_c, 0, 60, 89
1, 1312653, Note_on_c, 0, 66, 97
1, 1312655, Note_on_c, 0, 92, 97
1, 1312657, Note_on_c, 0, 80, 101
1, 1312661, Note_on_c, 0, 84, 93
1, 1312662, Note_on_c, 0, 87, 92
1, 1313313, Note_on_c, 0, 66, 0
1, 1313326, Note_on_c, 0, 51, 0
1, 1313334, Note_on_c, 0, 80, 0
1, 1313339, Note_on_c, 0, 92, 0
1, 1313346, Note_on_c, 0, 54, 0
1, 1313347, Note_on_c, 0, 60, 0
1, 1313349, Note_on_c, 0, 56, 0
1, 1313352, Note_on_c, 0, 84, 0
1, 1313361, Note_on_c, 0, 87, 0
1, 1313431, Control_c, 0, 64, 107
1, 1313450, Control_c, 0, 64, 72
1, 1313466, Control_c, 0, 64, 44
1, 1313486, Control_c, 0, 64, 36
1, 1313930, Control_c, 0, 64, 40
1, 1313948, Control_c, 0, 64, 44
1, 1313966, Control_c, 0, 64, 50
1, 1313986, Control_c, 0, 64, 57
1, 1314003, Control_c, 0, 64, 67
1, 1314021, Control_c, 0, 64, 77
1, 1314042, Control_c, 0, 64, 89
1, 1314060, Control_c, 0, 64, 104
1, 1314076, Note_on_c, 0, 44, 70
1, 1314077, Control_c, 0, 64, 120
1, 1314084, Note_on_c, 0, 56, 86
1, 1314097, Control_c, 0, 64, 127
1, 1314158, Note_on_c, 0, 48, 73
1, 1314160, Note_on_c, 0, 60, 77
1, 1314182, Note_on_c, 0, 56, 0
1, 1314198, Note_on_c, 0, 44, 0
1, 1314243, Note_on_c, 0, 51, 80
1, 1314257, Note_on_c, 0, 63, 87
1, 1314260, Note_on_c, 0, 60, 0
1, 1314275, Note_on_c, 0, 48, 0
1, 1314305, Note_on_c, 0, 63, 0
1, 1314326, Note_on_c, 0, 51, 0
1, 1314334, Note_on_c, 0, 56, 75
1, 1314362, Note_on_c, 0, 68, 89
1, 1314363, Note_on_c, 0, 56, 0
1, 1314452, Note_on_c, 0, 60, 59
1, 1314455, Note_on_c, 0, 72, 74
1, 1314461, Note_on_c, 0, 68, 0
1, 1314470, Note_on_c, 0, 71, 61
1, 1314495, Note_on_c, 0, 71, 0
1, 1314514, Note_on_c, 0, 63, 85
1, 1314531, Note_on_c, 0, 75, 85
1, 1314543, Note_on_c, 0, 60, 0
1, 1314549, Poly_aftertouch_c, 0, 61, 0
1, 1314552, Note_on_c, 0, 63, 0
1, 1314569, Control_c, 0, 67, 0
1, 1314587, Note_on_c, 0, 72, 0
1, 1314664, Note_on_c, 0, 68, 103
1, 1314665, Note_on_c, 0, 80, 92
1, 1314666, Note_on_c, 0, 73, 96
1, 1314666, Note_on_c, 0, 77, 89
1, 1314677, Note_on_c, 0, 49, 103
1, 1314688, Note_on_c, 0, 37, 86
1, 1314697, Note_on_c, 0, 75, 0
1, 1314701, Note_on_c, 0, 68, 0
1, 1314704, Note_on_c, 0, 49, 0
1, 1314708, Note_on_c, 0, 73, 0
1, 1314714, Note_on_c, 0, 37, 0
1, 1314715, Control_c, 0, 64, 104
1, 1314718, Note_on_c, 0, 80, 0
1, 1314719, Note_on_c, 0, 77, 0
1, 1314735, Control_c, 0, 64, 67
1, 1314754, Control_c, 0, 64, 43
1, 1314905, Note_on_c, 0, 53, 68
1, 1314923, Note_on_c, 0, 56, 67
1, 1314971, Note_on_c, 0, 53, 0
1, 1314977, Control_c, 0, 64, 40
1, 1314980, Note_on_c, 0, 56, 0
1, 1314995, Note_on_c, 0, 78, 87
1, 1314999, Note_on_c, 0, 66, 82
1, 1315014, Control_c, 0, 64, 35
1, 1315032, Note_on_c, 0, 66, 0
1, 1315040, Note_on_c, 0, 78, 0
1, 1315076, Note_on_c, 0, 61, 80
1, 1315078, Note_on_c, 0, 56, 64
1, 1315084, Note_on_c, 0, 77, 86
1, 1315084, Note_on_c, 0, 65, 90
1, 1315085, Control_c, 0, 64, 50
1, 1315105, Control_c, 0, 64, 69
1, 1315108, Note_on_c, 0, 61, 0
1, 1315110, Note_on_c, 0, 56, 0
1, 1315125, Control_c, 0, 64, 91
1, 1315143, Control_c, 0, 64, 126
1, 1315180, Note_on_c, 0, 77, 0
1, 1315182, Note_on_c, 0, 65, 0
1, 1315192, Poly_aftertouch_c, 0, 53, 0
1, 1315274, Note_on_c, 0, 41, 86
1, 1315323, Note_on_c, 0, 41, 0
1, 1315366, Note_on_c, 0, 73, 92
1, 1315368, Note_on_c, 0, 61, 84
1, 1315394, Control_c, 0, 64, 99
1, 1315395, Note_on_c, 0, 61, 0
1, 1315413, Control_c, 0, 64, 69
1, 1315419, Note_on_c, 0, 73, 0
1, 1315431, Control_c, 0, 64, 44
1, 1315448, Control_c, 0, 64, 33
1, 1315455, Note_on_c, 0, 49, 76
1, 1315457, Note_on_c, 0, 53, 80
1, 1315459, Note_on_c, 0, 60, 93
1, 1315459, Note_on_c, 0, 72, 88
1, 1315486, Note_on_c, 0, 60, 0
1, 1315486, Control_c, 0, 64, 29
1, 1315492, Note_on_c, 0, 49, 0
1, 1315494, Note_on_c, 0, 72, 0
1, 1315496, Note_on_c, 0, 53, 0
1, 1315541, Control_c, 0, 64, 25
1, 1315732, Note_on_c, 0, 61, 97
1, 1315733, Note_on_c, 0, 73, 99
1, 1315736, Note_on_c, 0, 49, 73
1, 1315737, Note_on_c, 0, 56, 75
1, 1315737, Note_on_c, 0, 53, 74
1, 1315761, Note_on_c, 0, 61, 0
1, 1315765, Note_on_c, 0, 73, 0
1, 1315767, Note_on_c, 0, 53, 0
1, 1315767, Note_on_c, 0, 49, 0
1, 1315768, Note_on_c, 0, 56, 0
1, 1316100, Note_on_c, 0, 44, 82
1, 1316101, Note_on_c, 0, 51, 93
1, 1316108, Note_on_c, 0, 68, 96
1, 1316110, Note_on_c, 0, 56, 97
1, 1316116, Note_on_c, 0, 60, 91
1, 1316116, Control_c, 0, 64, 30
1, 1316135, Control_c, 0, 64, 51
1, 1316153, Control_c, 0, 64, 78
1, 1316172, Control_c, 0, 64, 111
1, 1316175, Note_on_c, 0, 44, 0
1, 1316180, Note_on_c, 0, 51, 0
1, 1316201, Control_c, 0, 64, 127
1, 1316237, Note_on_c, 0, 68, 0
1, 1316242, Note_on_c, 0, 56, 0
1, 1316282, Note_on_c, 0, 60, 0
1, 1317033, Control_c, 0, 64, 119
1, 1317051, Control_c, 0, 64, 73
1, 1317071, Control_c, 0, 64, 19
1, 1317087, Note_on_c, 0, 56, 75
1, 1317088, Note_on_c, 0, 44, 67
1, 1317089, Control_c, 0, 64, 0
1, 1317133, Control_c, 0, 64, 31
1, 1317152, Control_c, 0, 64, 54
1, 1317168, Note_on_c, 0, 44, 0
1, 1317169, Note_on_c, 0, 56, 0
1, 1317172, Control_c, 0, 64, 82
1, 1317181, Note_on_c, 0, 47, 75
1, 1317186, Note_on_c, 0, 59, 86
1, 1317190, Control_c, 0, 64, 111
1, 1317208, Control_c, 0, 64, 127
1, 1317225, Note_on_c, 0, 47, 0
1, 1317253, Note_on_c, 0, 59, 0
1, 1317280, Note_on_c, 0, 63, 87
1, 1317301, Poly_aftertouch_c, 0, 48, 0
1, 1317342, Note_on_c, 0, 52, 37
1, 1317368, Note_on_c, 0, 63, 0
1, 1317368, Note_on_c, 0, 68, 85
1, 1317393, Note_on_c, 0, 52, 0
1, 1317429, Note_on_c, 0, 68, 0
1, 1317468, Note_on_c, 0, 59, 37
1, 1317473, Note_on_c, 0, 71, 84
1, 1317489, Poly_aftertouch_c, 0, 56, 0
1, 1317530, Note_on_c, 0, 59, 0
1, 1317534, Note_on_c, 0, 63, 81
1, 1317547, Note_on_c, 0, 75, 92
1, 1317555, Note_on_c, 0, 63, 0
1, 1317582, Note_on_c, 0, 71, 0
1, 1317596, Note_on_c, 0, 75, 0
1, 1317635, Control_c, 0, 64, 76
1, 1317655, Control_c, 0, 64, 74
1, 1317664, Note_on_c, 0, 82, 96
1, 1317670, Note_on_c, 0, 78, 88
1, 1317670, Note_on_c, 0, 70, 99
1, 1317674, Control_c, 0, 64, 103
1, 1317680, Note_on_c, 0, 51, 98
1, 1317684, Control_c, 0, 64, 127
1, 1317684, Note_on_c, 0, 39, 84
1, 1317690, Note_on_c, 0, 78, 0
1, 1317693, Note_on_c, 0, 70, 0
1, 1317703, Note_on_c, 0, 51, 0
1, 1317704, Note_on_c, 0, 82, 0
1, 1317714, Note_on_c, 0, 39, 0
1, 1317779, Control_c, 0, 64, 110
1, 1317796, Control_c, 0, 64, 69
1, 1317815, Control_c, 0, 64, 36
1, 1317833, Control_c, 0, 64, 31
1, 1317887, Note_on_c, 0, 58, 83
1, 1317894, Note_on_c, 0, 54, 72
1, 1317921, Note_on_c, 0, 58, 0
1, 1317930, Note_on_c, 0, 54, 0
1, 1317944, Control_c, 0, 64, 26
1, 1317962, Control_c, 0, 64, 22
1, 1317982, Note_on_c, 0, 68, 95
1, 1317983, Note_on_c, 0, 80, 91
1, 1318000, Control_c, 0, 64, 14
1, 1318007, Note_on_c, 0, 68, 0
1, 1318007, Note_on_c, 0, 80, 0
1, 1318037, Control_c, 0, 64, 0
1, 1318073, Note_on_c, 0, 63, 87
1, 1318076, Note_on_c, 0, 58, 75
1, 1318077, Note_on_c, 0, 78, 21
1, 1318083, Control_c, 0, 64, 37
1, 1318086, Note_on_c, 0, 54, 62
1, 1318089, Note_on_c, 0, 66, 98
1, 1318096, Note_on_c, 0, 63, 0
1, 1318102, Control_c, 0, 64, 66
1, 1318104, Note_on_c, 0, 58, 0
1, 1318115, Note_on_c, 0, 54, 0
1, 1318121, Control_c, 0, 64, 98
1, 1318138, Control_c, 0, 64, 127
1, 1318161, Note_on_c, 0, 78, 0
1, 1318194, Note_on_c, 0, 66, 0
1, 1318235, Poly_aftertouch_c, 0, 65, 0
1, 1318255, Note_on_c, 0, 42, 92
1, 1318309, Note_on_c, 0, 42, 0
1, 1318324, Control_c, 0, 64, 114
1, 1318337, Note_on_c, 0, 75, 92
1, 1318342, Note_on_c, 0, 63, 83
1, 1318342, Control_c, 0, 64, 82
1, 1318361, Control_c, 0, 64, 55
1, 1318368, Note_on_c, 0, 63, 0
1, 1318380, Control_c, 0, 64, 41
1, 1318396, Note_on_c, 0, 75, 0
1, 1318427, Note_on_c, 0, 74, 88
1, 1318433, Note_on_c, 0, 62, 88
1, 1318434, Note_on_c, 0, 54, 85
1, 1318441, Note_on_c, 0, 51, 72
1, 1318454, Control_c, 0, 64, 35
1, 1318459, Note_on_c, 0, 62, 0
1, 1318462, Note_on_c, 0, 54, 0
1, 1318474, Note_on_c, 0, 51, 0
1, 1318477, Note_on_c, 0, 74, 0
1, 1318509, Control_c, 0, 64, 31
1, 1318581, Poly_aftertouch_c, 0, 54, 0
1, 1318684, Note_on_c, 0, 75, 97
1, 1318685, Note_on_c, 0, 63, 97
1, 1318686, Note_on_c, 0, 58, 86
1, 1318709, Note_on_c, 0, 63, 0
1, 1318711, Note_on_c, 0, 58, 0
1, 1318712, Note_on_c, 0, 75, 0
1, 1318721, Poly_aftertouch_c, 0, 54, 0
1, 1318735, Note_on_c, 0, 51, 29
1, 1318736, Note_on_c, 0, 51, 0
1, 1319073, Note_on_c, 0, 58, 99
1, 1319073, Note_on_c, 0, 46, 86
1, 1319075, Note_on_c, 0, 70, 93
1, 1319079, Note_on_c, 0, 53, 92
1, 1319084, Note_on_c, 0, 62, 90
1, 1319219, Poly_aftertouch_c, 0, 52, 0
1, 1319240, Control_c, 0, 64, 20
1, 1319277, Control_c, 0, 64, 0
1, 1319334, Control_c, 0, 64, 26
1, 1319353, Control_c, 0, 64, 47
1, 1319370, Control_c, 0, 64, 71
1, 1319389, Control_c, 0, 64, 96
1, 1319407, Control_c, 0, 64, 127
1, 1319510, Note_on_c, 0, 46, 0
1, 1319571, Note_on_c, 0, 70, 0
1, 1319626, Note_on_c, 0, 53, 0
1, 1319638, Note_on_c, 0, 62, 0
1, 1319659, Note_on_c, 0, 58, 0
1, 1320103, Control_c, 0, 64, 110
1, 1320122, Control_c, 0, 64, 66
1, 1320128, Note_on_c, 0, 58, 83
1, 1320140, Control_c, 0, 64, 0
1, 1320140, Note_on_c, 0, 46, 59
1, 1320195, Control_c, 0, 64, 37
1, 1320213, Control_c, 0, 64, 68
1, 1320227, Note_on_c, 0, 61, 90
1, 1320232, Note_on_c, 0, 58, 0
1, 1320232, Control_c, 0, 64, 87
1, 1320244, Note_on_c, 0, 49, 73
1, 1320251, Control_c, 0, 64, 115
1, 1320262, Note_on_c, 0, 46, 0
1, 1320268, Control_c, 0, 64, 127
1, 1320276, Note_on_c, 0, 61, 0
1, 1320312, Note_on_c, 0, 49, 0
1, 1320326, Note_on_c, 0, 53, 69
1, 1320329, Note_on_c, 0, 65, 90
1, 1320361, Control_c, 0, 67, 8
1, 1320365, Note_on_c, 0, 53, 0
1, 1320399, Control_c, 0, 67, 13
1, 1320425, Note_on_c, 0, 70, 89
1, 1320431, Note_on_c, 0, 65, 0
1, 1320509, Note_on_c, 0, 73, 85
1, 1320516, Note_on_c, 0, 70, 0
1, 1320584, Control_c, 0, 67, 9
1, 1320595, Note_on_c, 0, 77, 85
1, 1320607, Note_on_c, 0, 73, 0
1, 1320644, Note_on_c, 0, 77, 0
1, 1320763, Note_on_c, 0, 28, 85
1, 1320769, Control_c, 0, 64, 82
1, 1320776, Note_on_c, 0, 40, 99
1, 1320787, Control_c, 0, 64, 0
1, 1320797, Note_on_c, 0, 79, 66
1, 1320797, Note_on_c, 0, 73, 98
1, 1320797, Note_on_c, 0, 35, 43
1, 1320798, Note_on_c, 0, 85, 98
1, 1320822, Note_on_c, 0, 28, 0
1, 1320835, Note_on_c, 0, 40, 0
1, 1320835, Note_on_c, 0, 35, 0
1, 1320843, Control_c, 0, 64, 47
1, 1320849, Note_on_c, 0, 73, 0
1, 1320861, Note_on_c, 0, 79, 0
1, 1320870, Control_c, 0, 64, 92
1, 1320871, Note_on_c, 0, 85, 0
1, 1320889, Control_c, 0, 64, 127
1, 1320944, Control_c, 0, 64, 96
1, 1320964, Control_c, 0, 64, 54
1, 1320983, Control_c, 0, 64, 0
1, 1321108, Note_on_c, 0, 52, 68
1, 1321114, Note_on_c, 0, 61, 83
1, 1321117, Note_on_c, 0, 58, 77
1, 1321186, Note_on_c, 0, 52, 0
1, 1321186, Control_c, 0, 64, 10
1, 1321192, Note_on_c, 0, 84, 91
1, 1321192, Note_on_c, 0, 72, 93
1, 1321205, Control_c, 0, 64, 43
1, 1321216, Note_on_c, 0, 58, 0
1, 1321217, Note_on_c, 0, 84, 0
1, 1321223, Control_c, 0, 64, 67
1, 1321226, Note_on_c, 0, 83, 56
1, 1321227, Note_on_c, 0, 83, 0
1, 1321228, Note_on_c, 0, 72, 0
1, 1321242, Control_c, 0, 64, 90
1, 1321260, Control_c, 0, 64, 127
1, 1321262, Note_on_c, 0, 67, 84
1, 1321289, Note_on_c, 0, 67, 0
1, 1321290, Note_on_c, 0, 70, 99
1, 1321291, Note_on_c, 0, 82, 93
1, 1321297, Note_on_c, 0, 61, 0
1, 1321390, Control_c, 0, 67, 0
1, 1321435, Note_on_c, 0, 34, 65
1, 1321464, Note_on_c, 0, 32, 41
1, 1321474, Note_on_c, 0, 70, 0
1, 1321479, Note_on_c, 0, 82, 0
1, 1321484, Note_on_c, 0, 34, 0
1, 1321508, Note_on_c, 0, 29, 84
1, 1321509, Note_on_c, 0, 41, 98
1, 1321551, Note_on_c, 0, 29, 0
1, 1321558, Note_on_c, 0, 41, 0
1, 1321598, Note_on_c, 0, 68, 82
1, 1321599, Note_on_c, 0, 80, 91
1, 1321604, Note_on_c, 0, 32, 0
1, 1321627, Note_on_c, 0, 68, 0
1, 1321645, Note_on_c, 0, 80, 0
1, 1321667, Control_c, 0, 64, 108
1, 1321687, Control_c, 0, 64, 73
1, 1321698, Note_on_c, 0, 61, 91
1, 1321698, Note_on_c, 0, 67, 95
1, 1321699, Note_on_c, 0, 53, 78
1, 1321701, Note_on_c, 0, 79, 91
1, 1321705, Control_c, 0, 64, 43
1, 1321719, Note_on_c, 0, 61, 0
1, 1321722, Control_c, 0, 64, 29
1, 1321727, Note_on_c, 0, 67, 0
1, 1321729, Note_on_c, 0, 53, 0
1, 1321732, Note_on_c, 0, 79, 0
1, 1321762, Control_c, 0, 64, 20
1, 1321779, Control_c, 0, 64, 12
1, 1321824, Control_c, 0, 64, 0
1, 1321919, Control_c, 0, 64, 36
1, 1321937, Control_c, 0, 64, 63
1, 1321945, Note_on_c, 0, 61, 87
1, 1321954, Control_c, 0, 64, 87
1, 1321957, Note_on_c, 0, 65, 101
1, 1321958, Note_on_c, 0, 77, 101
1, 1321961, Note_on_c, 0, 56, 64
1, 1321973, Note_on_c, 0, 61, 0
1, 1321975, Control_c, 0, 64, 124
1, 1321987, Note_on_c, 0, 56, 0
1, 1322005, Note_on_c, 0, 65, 0
1, 1322016, Note_on_c, 0, 77, 0
1, 1322130, Note_on_c, 0, 34, 52
1, 1322173, Note_on_c, 0, 34, 0
1, 1322186, Note_on_c, 0, 31, 78
1, 1322191, Note_on_c, 0, 43, 97
1, 1322193, Note_on_c, 0, 64, 99
1, 1322196, Note_on_c, 0, 73, 81
1, 1322199, Note_on_c, 0, 70, 87
1, 1322199, Note_on_c, 0, 76, 91
1, 1322215, Note_on_c, 0, 31, 0
1, 1322215, Control_c, 0, 64, 108
1, 1322223, Note_on_c, 0, 73, 0
1, 1322223, Note_on_c, 0, 70, 0
1, 1322230, Note_on_c, 0, 64, 0
1, 1322233, Control_c, 0, 64, 72
1, 1322237, Note_on_c, 0, 43, 0
1, 1322237, Poly_aftertouch_c, 0, 37, 0
1, 1322242, Note_on_c, 0, 76, 0
1, 1322253, Control_c, 0, 64, 38
1, 1322273, Control_c, 0, 64, 29
1, 1322332, Poly_aftertouch_c, 0, 33, 0
1, 1322437, Note_on_c, 0, 55, 83
1, 1322442, Note_on_c, 0, 61, 84
1, 1322445, Note_on_c, 0, 65, 97
1, 1322446, Note_on_c, 0, 77, 101
1, 1322454, Note_on_c, 0, 58, 65
1, 1322470, Note_on_c, 0, 61, 0
1, 1322472, Note_on_c, 0, 55, 0
1, 1322473, Note_on_c, 0, 65, 0
1, 1322479, Note_on_c, 0, 77, 0
1, 1322481, Note_on_c, 0, 58, 0
1, 1322698, Note_on_c, 0, 67, 105
1, 1322699, Note_on_c, 0, 79, 101
1, 1322700, Note_on_c, 0, 64, 81
1, 1322705, Note_on_c, 0, 58, 81
1, 1322726, Note_on_c, 0, 64, 0
1, 1322731, Note_on_c, 0, 58, 0
1, 1322749, Note_on_c, 0, 67, 0
1, 1322752, Note_on_c, 0, 79, 0
1, 1322927, Note_on_c, 0, 39, 40
1, 1323004, Control_c, 0, 64, 34
1, 1323012, Note_on_c, 0, 32, 80
1, 1323013, Note_on_c, 0, 44, 94
1, 1323021, Control_c, 0, 64, 53
1, 1323023, Note_on_c, 0, 72, 95
1, 1323024, Note_on_c, 0, 60, 102
1, 1323028, Note_on_c, 0, 65, 97
1, 1323041, Control_c, 0, 64, 76
1, 1323049, Note_on_c, 0, 32, 0
1, 1323059, Control_c, 0, 64, 99
1, 1323076, Note_on_c, 0, 44, 0
1, 1323078, Control_c, 0, 64, 127
1, 1323084, Note_on_c, 0, 60, 0
1, 1323084, Note_on_c, 0, 39, 0
1, 1323107, Note_on_c, 0, 72, 0
1, 1323124, Note_on_c, 0, 65, 0
1, 1323266, Note_on_c, 0, 53, 78
1, 1323268, Note_on_c, 0, 56, 77
1, 1323312, Note_on_c, 0, 56, 0
1, 1323316, Note_on_c, 0, 53, 0
1, 1323471, Note_on_c, 0, 60, 77
1, 1323474, Note_on_c, 0, 56, 73
1, 1323498, Note_on_c, 0, 60, 0
1, 1323498, Note_on_c, 0, 56, 0
1, 1323562, Note_on_c, 0, 72, 65
1, 1323611, Note_on_c, 0, 74, 60
1, 1323614, Control_c, 0, 64, 122
1, 1323634, Control_c, 0, 64, 98
1, 1323639, Note_on_c, 0, 72, 0
1, 1323653, Control_c, 0, 64, 71
1, 1323659, Poly_aftertouch_c, 0, 60, 0
1, 1323661, Note_on_c, 0, 76, 71
1, 1323671, Control_c, 0, 64, 50
1, 1323695, Note_on_c, 0, 74, 0
1, 1323696, Control_c, 0, 64, 44
1, 1323730, Note_on_c, 0, 33, 72
1, 1323735, Note_on_c, 0, 40, 11
1, 1323737, Note_on_c, 0, 65, 84
1, 1323737, Note_on_c, 0, 45, 72
1, 1323746, Note_on_c, 0, 77, 81
1, 1323752, Control_c, 0, 64, 41
1, 1323765, Note_on_c, 0, 33, 0
1, 1323773, Note_on_c, 0, 65, 0
1, 1323776, Note_on_c, 0, 76, 0
1, 1323778, Note_on_c, 0, 40, 0
1, 1323780, Note_on_c, 0, 77, 0
1, 1323782, Note_on_c, 0, 45, 0
1, 1323810, Control_c, 0, 64, 37
1, 1323992, Note_on_c, 0, 60, 61
1, 1324087, Note_on_c, 0, 60, 0
1, 1324087, Note_on_c, 0, 76, 81
1, 1324092, Note_on_c, 0, 64, 69
1, 1324101, Poly_aftertouch_c, 0, 53, 0
1, 1324117, Note_on_c, 0, 76, 0
1, 1324126, Control_c, 0, 67, 9
1, 1324131, Note_on_c, 0, 64, 0
1, 1324143, Control_c, 0, 67, 26
1, 1324161, Control_c, 0, 67, 53
1, 1324175, Note_on_c, 0, 63, 70
1, 1324177, Note_on_c, 0, 60, 58
1, 1324180, Control_c, 0, 67, 77
1, 1324191, Note_on_c, 0, 53, 54
1, 1324199, Control_c, 0, 67, 88
1, 1324203, Note_on_c, 0, 77, 74
1, 1324204, Note_on_c, 0, 63, 0
1, 1324204, Note_on_c, 0, 65, 72
1, 1324214, Note_on_c, 0, 60, 0
1, 1324216, Control_c, 0, 64, 30
1, 1324223, Note_on_c, 0, 53, 0
1, 1324236, Control_c, 0, 64, 24
1, 1324253, Control_c, 0, 64, 14
1, 1324254, Control_c, 0, 67, 84
1, 1324272, Control_c, 0, 67, 77
1, 1324292, Control_c, 0, 67, 63
1, 1324309, Control_c, 0, 67, 44
1, 1324328, Control_c, 0, 64, 19
1, 1324329, Note_on_c, 0, 65, 0
1, 1324329, Control_c, 0, 67, 25
1, 1324348, Control_c, 0, 64, 41
1, 1324366, Control_c, 0, 64, 64
1, 1324367, Control_c, 0, 67, 0
1, 1324384, Control_c, 0, 64, 91
1, 1324406, Control_c, 0, 64, 125
1, 1324408, Note_on_c, 0, 34, 76
1, 1324409, Note_on_c, 0, 77, 0
1, 1324409, Note_on_c, 0, 46, 81
1, 1324436, Note_on_c, 0, 34, 0
1, 1324442, Note_on_c, 0, 46, 0
1, 1324499, Note_on_c, 0, 80, 80
1, 1324508, Note_on_c, 0, 68, 67
1, 1324526, Note_on_c, 0, 80, 0
1, 1324536, Note_on_c, 0, 68, 0
1, 1324570, Control_c, 0, 64, 121
1, 1324588, Control_c, 0, 64, 91
1, 1324608, Control_c, 0, 64, 63
1, 1324621, Note_on_c, 0, 53, 67
1, 1324622, Note_on_c, 0, 61, 76
1, 1324629, Note_on_c, 0, 77, 79
1, 1324634, Control_c, 0, 64, 40
1, 1324635, Note_on_c, 0, 65, 75
1, 1324646, Note_on_c, 0, 58, 40
1, 1324652, Note_on_c, 0, 61, 0
1, 1324652, Control_c, 0, 64, 34
1, 1324655, Note_on_c, 0, 77, 0
1, 1324658, Note_on_c, 0, 53, 0
1, 1324663, Note_on_c, 0, 65, 0
1, 1324685, Note_on_c, 0, 58, 0
1, 1324688, Control_c, 0, 64, 26
1, 1324728, Control_c, 0, 64, 20
1, 1324783, Control_c, 0, 64, 15
1, 1324818, Control_c, 0, 64, 10
1, 1324863, Note_on_c, 0, 61, 66
1, 1324870, Note_on_c, 0, 78, 80
1, 1324875, Note_on_c, 0, 66, 64
1, 1324895, Note_on_c, 0, 61, 0
1, 1324903, Note_on_c, 0, 58, 8
1, 1324904, Note_on_c, 0, 58, 0
1, 1324908, Note_on_c, 0, 66, 0
1, 1324917, Note_on_c, 0, 78, 0
1, 1325061, Control_c, 0, 64, 23
1, 1325079, Control_c, 0, 64, 46
1, 1325081, Note_on_c, 0, 36, 70
1, 1325094, Note_on_c, 0, 48, 80
1, 1325097, Control_c, 0, 64, 71
1, 1325116, Control_c, 0, 64, 102
1, 1325135, Control_c, 0, 64, 127
1, 1325143, Note_on_c, 0, 36, 0
1, 1325145, Note_on_c, 0, 48, 0
1, 1325173, Note_on_c, 0, 82, 84
1, 1325177, Note_on_c, 0, 70, 81
1, 1325205, Note_on_c, 0, 70, 0
1, 1325218, Note_on_c, 0, 82, 0
1, 1325234, Poly_aftertouch_c, 0, 35, 0
1, 1325263, Note_on_c, 0, 63, 94
1, 1325267, Note_on_c, 0, 80, 92
1, 1325268, Note_on_c, 0, 68, 94
1, 1325270, Note_on_c, 0, 60, 77
1, 1325284, Control_c, 0, 64, 120
1, 1325292, Note_on_c, 0, 63, 0
1, 1325299, Note_on_c, 0, 68, 0
1, 1325301, Note_on_c, 0, 60, 0
1, 1325302, Control_c, 0, 64, 85
1, 1325313, Note_on_c, 0, 80, 0
1, 1325319, Control_c, 0, 64, 56
1, 1325339, Control_c, 0, 64, 43
1, 1325358, Control_c, 0, 64, 41
1, 1325430, Control_c, 0, 64, 37
1, 1325492, Note_on_c, 0, 63, 82
1, 1325502, Note_on_c, 0, 65, 70
1, 1325503, Note_on_c, 0, 60, 66
1, 1325505, Note_on_c, 0, 69, 98
1, 1325505, Note_on_c, 0, 81, 103
1, 1325520, Note_on_c, 0, 63, 0
1, 1325524, Note_on_c, 0, 65, 0
1, 1325533, Note_on_c, 0, 60, 0
1, 1325535, Note_on_c, 0, 69, 0
1, 1325561, Note_on_c, 0, 81, 0
1, 1325682, Control_c, 0, 64, 33
1, 1325795, Note_on_c, 0, 49, 98
1, 1325796, Note_on_c, 0, 84, 102
1, 1325797, Note_on_c, 0, 37, 82
1, 1325802, Note_on_c, 0, 72, 98
1, 1325826, Note_on_c, 0, 37, 0
1, 1325828, Note_on_c, 0, 72, 0
1, 1325836, Note_on_c, 0, 49, 0
1, 1325837, Note_on_c, 0, 84, 0
1, 1325940, Control_c, 0, 64, 27
1, 1325958, Control_c, 0, 64, 23
1, 1325977, Control_c, 0, 64, 19
1, 1326014, Control_c, 0, 64, 14
1, 1326070, Control_c, 0, 64, 19
1, 1326089, Control_c, 0, 64, 44
1, 1326101, Note_on_c, 0, 82, 89
1, 1326101, Note_on_c, 0, 53, 69
1, 1326105, Control_c, 0, 64, 70
1, 1326105, Note_on_c, 0, 70, 90
1, 1326106, Note_on_c, 0, 61, 77
1, 1326110, Note_on_c, 0, 58, 68
1, 1326125, Control_c, 0, 64, 90
1, 1326143, Control_c, 0, 64, 121
1, 1326163, Control_c, 0, 64, 127
1, 1326177, Note_on_c, 0, 53, 0
1, 1326208, Note_on_c, 0, 61, 0
1, 1326210, Note_on_c, 0, 58, 0
1, 1326240, Note_on_c, 0, 82, 0
1, 1326261, Note_on_c, 0, 70, 0
1, 1326286, Note_on_c, 0, 58, 68
1, 1326291, Note_on_c, 0, 65, 69
1, 1326305, Note_on_c, 0, 61, 40
1, 1326306, Note_on_c, 0, 71, 78
1, 1326318, Note_on_c, 0, 65, 0
1, 1326320, Note_on_c, 0, 58, 0
1, 1326333, Note_on_c, 0, 61, 0
1, 1326365, Note_on_c, 0, 71, 0
1, 1326366, Note_on_c, 0, 74, 77
1, 1326416, Note_on_c, 0, 77, 68
1, 1326432, Note_on_c, 0, 80, 89
1, 1326433, Note_on_c, 0, 74, 0
1, 1326447, Note_on_c, 0, 77, 0
1, 1326490, Note_on_c, 0, 80, 0
1, 1326543, Note_on_c, 0, 83, 80
1, 1326599, Note_on_c, 0, 83, 0
1, 1326613, Note_on_c, 0, 86, 82
1, 1326674, Note_on_c, 0, 89, 78
1, 1326680, Poly_aftertouch_c, 0, 84, 0
1, 1326704, Note_on_c, 0, 92, 90
1, 1326706, Note_on_c, 0, 38, 86
1, 1326709, Note_on_c, 0, 86, 0
1, 1326711, Note_on_c, 0, 50, 93
1, 1326735, Note_on_c, 0, 95, 97
1, 1326743, Note_on_c, 0, 89, 0
1, 1326747, Note_on_c, 0, 38, 0
1, 1326762, Note_on_c, 0, 50, 0
1, 1326772, Note_on_c, 0, 92, 0
1, 1326784, Control_c, 0, 64, 111
1, 1326802, Control_c, 0, 64, 75
1, 1326805, Note_on_c, 0, 95, 0
1, 1326821, Control_c, 0, 64, 41
1, 1326841, Control_c, 0, 64, 29
1, 1326999, Note_on_c, 0, 62, 76
1, 1327008, Note_on_c, 0, 56, 69
1, 1327012, Note_on_c, 0, 59, 71
1, 1327080, Note_on_c, 0, 56, 0
1, 1327084, Note_on_c, 0, 59, 0
1, 1327086, Note_on_c, 0, 62, 0
1, 1327099, Note_on_c, 0, 94, 88
1, 1327105, Note_on_c, 0, 82, 90
1, 1327128, Note_on_c, 0, 94, 0
1, 1327128, Note_on_c, 0, 82, 0
1, 1327191, Control_c, 0, 64, 23
1, 1327199, Note_on_c, 0, 65, 61
1, 1327201, Note_on_c, 0, 92, 94
1, 1327208, Note_on_c, 0, 62, 55
1, 1327209, Note_on_c, 0, 80, 89
1, 1327211, Control_c, 0, 64, 12
1, 1327221, Note_on_c, 0, 59, 57
1, 1327225, Note_on_c, 0, 65, 0
1, 1327229, Control_c, 0, 64, 0
1, 1327236, Note_on_c, 0, 56, 65
1, 1327238, Note_on_c, 0, 62, 0
1, 1327255, Note_on_c, 0, 59, 0
1, 1327291, Note_on_c, 0, 56, 0
1, 1327302, Control_c, 0, 64, 16
1, 1327320, Control_c, 0, 64, 48
1, 1327340, Control_c, 0, 64, 81
1, 1327357, Control_c, 0, 64, 120
1, 1327377, Control_c, 0, 64, 127
1, 1327390, Note_on_c, 0, 80, 0
1, 1327396, Note_on_c, 0, 92, 0
1, 1327428, Note_on_c, 0, 51, 98
1, 1327435, Note_on_c, 0, 39, 89
1, 1327471, Note_on_c, 0, 51, 0
1, 1327473, Note_on_c, 0, 39, 0
1, 1327521, Note_on_c, 0, 78, 84
1, 1327524, Note_on_c, 0, 90, 94
1, 1327555, Note_on_c, 0, 90, 0
1, 1327559, Note_on_c, 0, 78, 0
1, 1327590, Control_c, 0, 64, 122
1, 1327608, Control_c, 0, 64, 90
1, 1327626, Control_c, 0, 64, 58
1, 1327630, Note_on_c, 0, 89, 98
1, 1327631, Note_on_c, 0, 54, 84
1, 1327632, Note_on_c, 0, 77, 94
1, 1327632, Note_on_c, 0, 63, 90
1, 1327648, Control_c, 0, 64, 32
1, 1327654, Note_on_c, 0, 63, 0
1, 1327662, Control_c, 0, 64, 25
1, 1327664, Note_on_c, 0, 54, 0
1, 1327669, Note_on_c, 0, 89, 0
1, 1327671, Note_on_c, 0, 77, 0
1, 1327681, Control_c, 0, 64, 17
1, 1327718, Control_c, 0, 64, 0
1, 1327866, Note_on_c, 0, 66, 84
1, 1327869, Note_on_c, 0, 87, 96
1, 1327873, Note_on_c, 0, 75, 96
1, 1327883, Note_on_c, 0, 63, 50
1, 1327885, Control_c, 0, 64, 35
1, 1327892, Note_on_c, 0, 66, 0
1, 1327899, Note_on_c, 0, 59, 50
1, 1327904, Control_c, 0, 64, 64
1, 1327917, Note_on_c, 0, 61, 19
1, 1327918, Note_on_c, 0, 63, 0
1, 1327918, Note_on_c, 0, 61, 0
1, 1327923, Control_c, 0, 64, 88
1, 1327930, Note_on_c, 0, 75, 0
1, 1327935, Note_on_c, 0, 59, 0
1, 1327940, Note_on_c, 0, 87, 0
1, 1327942, Control_c, 0, 64, 118
1, 1327960, Control_c, 0, 64, 127
1, 1327979, Poly_aftertouch_c, 0, 61, 0
1, 1328099, Note_on_c, 0, 74, 98
1, 1328101, Note_on_c, 0, 41, 81
1, 1328102, Note_on_c, 0, 86, 89
1, 1328102, Note_on_c, 0, 53, 88
1, 1328103, Note_on_c, 0, 80, 90
1, 1328109, Note_on_c, 0, 83, 80
1, 1328127, Control_c, 0, 64, 108
1, 1328134, Note_on_c, 0, 41, 0
1, 1328135, Note_on_c, 0, 74, 0
1, 1328138, Note_on_c, 0, 83, 0
1, 1328146, Control_c, 0, 64, 72
1, 1328148, Note_on_c, 0, 80, 0
1, 1328151, Poly_aftertouch_c, 0, 47, 0
1, 1328152, Note_on_c, 0, 53, 0
1, 1328154, Note_on_c, 0, 86, 0
1, 1328164, Control_c, 0, 64, 37
1, 1328182, Control_c, 0, 64, 28
1, 1328359, Note_on_c, 0, 56, 74
1, 1328359, Note_on_c, 0, 75, 94
1, 1328359, Note_on_c, 0, 87, 100
1, 1328367, Note_on_c, 0, 62, 75
1, 1328380, Note_on_c, 0, 59, 63
1, 1328394, Note_on_c, 0, 75, 0
1, 1328401, Note_on_c, 0, 56, 0
1, 1328406, Note_on_c, 0, 88, 40
1, 1328407, Note_on_c, 0, 88, 0
1, 1328411, Note_on_c, 0, 87, 0
1, 1328413, Note_on_c, 0, 62, 0
1, 1328413, Note_on_c, 0, 59, 0
1, 1328607, Note_on_c, 0, 59, 67
1, 1328608, Note_on_c, 0, 68, 76
1, 1328612, Note_on_c, 0, 62, 73
1, 1328615, Note_on_c, 0, 89, 100
1, 1328621, Note_on_c, 0, 77, 94
1, 1328636, Note_on_c, 0, 68, 0
1, 1328644, Note_on_c, 0, 89, 0
1, 1328646, Note_on_c, 0, 62, 0
1, 1328647, Note_on_c, 0, 77, 0
1, 1328651, Note_on_c, 0, 59, 0
1, 1328896, Control_c, 0, 64, 34
1, 1328911, Note_on_c, 0, 42, 79
1, 1328913, Control_c, 0, 64, 56
1, 1328914, Note_on_c, 0, 82, 94
1, 1328914, Note_on_c, 0, 54, 81
1, 1328916, Note_on_c, 0, 70, 94
1, 1328916, Note_on_c, 0, 75, 96
1, 1328932, Control_c, 0, 64, 82
1, 1328947, Note_on_c, 0, 42, 0
1, 1328950, Control_c, 0, 64, 110
1, 1328969, Control_c, 0, 64, 127
1, 1328970, Note_on_c, 0, 70, 0
1, 1328972, Note_on_c, 0, 54, 0
1, 1328992, Note_on_c, 0, 75, 0
1, 1329009, Note_on_c, 0, 82, 0
1, 1329127, Note_on_c, 0, 54, 69
1, 1329138, Note_on_c, 0, 63, 76
1, 1329174, Note_on_c, 0, 63, 0
1, 1329204, Note_on_c, 0, 54, 0
1, 1329247, Control_c, 0, 67, 9
1, 1329285, Control_c, 0, 67, 18
1, 1329312, Control_c, 0, 67, 27
1, 1329329, Control_c, 0, 67, 37
1, 1329349, Control_c, 0, 67, 48
1, 1329355, Note_on_c, 0, 58, 68
1, 1329358, Note_on_c, 0, 66, 61
1, 1329367, Control_c, 0, 67, 62
1, 1329368, Note_on_c, 0, 63, 38
1, 1329382, Note_on_c, 0, 66, 0
1, 1329386, Control_c, 0, 64, 119
1, 1329387, Note_on_c, 0, 58, 0
1, 1329388, Control_c, 0, 67, 78
1, 1329406, Control_c, 0, 64, 91
1, 1329407, Control_c, 0, 67, 93
1, 1329411, Note_on_c, 0, 63, 0
1, 1329426, Control_c, 0, 64, 64
1, 1329426, Note_on_c, 0, 81, 73
1, 1329427, Control_c, 0, 67, 103
1, 1329442, Control_c, 0, 64, 42
1, 1329444, Control_c, 0, 67, 108
1, 1329460, Control_c, 0, 64, 37
1, 1329485, Note_on_c, 0, 82, 68
1, 1329515, Control_c, 0, 64, 33
1, 1329533, Control_c, 0, 67, 112
1, 1329535, Note_on_c, 0, 81, 0
1, 1329552, Control_c, 0, 64, 28
1, 1329555, Note_on_c, 0, 84, 77
1, 1329579, Note_on_c, 0, 82, 0
1, 1329619, Note_on_c, 0, 55, 79
1, 1329621, Note_on_c, 0, 43, 69
1, 1329624, Note_on_c, 0, 85, 95
1, 1329629, Note_on_c, 0, 73, 78
1, 1329659, Note_on_c, 0, 43, 0
1, 1329660, Note_on_c, 0, 73, 0
1, 1329661, Note_on_c, 0, 84, 0
1, 1329663, Note_on_c, 0, 55, 0
1, 1329666, Note_on_c, 0, 85, 0
1, 1329899, Note_on_c, 0, 55, 56
1, 1329925, Note_on_c, 0, 61, 61
1, 1329931, Note_on_c, 0, 58, 53
1, 1329970, Note_on_c, 0, 58, 0
1, 1329977, Note_on_c, 0, 61, 0
1, 1329981, Note_on_c, 0, 55, 0
1, 1330004, Note_on_c, 0, 81, 79
1, 1330011, Note_on_c, 0, 69, 68
1, 1330034, Note_on_c, 0, 81, 0
1, 1330036, Note_on_c, 0, 69, 0
1, 1330089, Control_c, 0, 64, 23
1, 1330106, Note_on_c, 0, 58, 57
1, 1330110, Note_on_c, 0, 64, 59
1, 1330111, Note_on_c, 0, 82, 80
1, 1330123, Note_on_c, 0, 70, 67
1, 1330127, Control_c, 0, 64, 15
1, 1330141, Note_on_c, 0, 58, 0
1, 1330146, Note_on_c, 0, 64, 0
1, 1330146, Control_c, 0, 64, 10
1, 1330184, Control_c, 0, 67, 118
1, 1330221, Control_c, 0, 67, 125
1, 1330275, Note_on_c, 0, 70, 0
1, 1330328, Note_on_c, 0, 82, 0
1, 1330355, Note_on_c, 0, 44, 60
1, 1330362, Note_on_c, 0, 56, 67
1, 1330391, Note_on_c, 0, 44, 0
1, 1330402, Note_on_c, 0, 56, 0
1, 1330449, Note_on_c, 0, 85, 77
1, 1330470, Note_on_c, 0, 73, 58
1, 1330479, Note_on_c, 0, 85, 0
1, 1330495, Note_on_c, 0, 73, 0
1, 1330583, Note_on_c, 0, 61, 57
1, 1330583, Note_on_c, 0, 79, 84
1, 1330588, Note_on_c, 0, 53, 45
1, 1330602, Note_on_c, 0, 67, 65
1, 1330610, Note_on_c, 0, 79, 0
1, 1330613, Note_on_c, 0, 61, 0
1, 1330624, Note_on_c, 0, 53, 0
1, 1330624, Note_on_c, 0, 67, 0
1, 1330641, Poly_aftertouch_c, 0, 55, 0
1, 1330654, Control_c, 0, 64, 0
1, 1330869, Note_on_c, 0, 56, 55
1, 1330870, Note_on_c, 0, 65, 58
1, 1330894, Note_on_c, 0, 80, 70
1, 1330898, Note_on_c, 0, 65, 0
1, 1330903, Note_on_c, 0, 56, 0
1, 1330907, Note_on_c, 0, 68, 44
1, 1330932, Note_on_c, 0, 80, 0
1, 1330940, Note_on_c, 0, 68, 0
1, 1331103, Note_on_c, 0, 45, 67
1, 1331106, Note_on_c, 0, 57, 68
1, 1331138, Note_on_c, 0, 45, 0
1, 1331156, Note_on_c, 0, 57, 0
1, 1331184, Note_on_c, 0, 89, 79
1, 1331206, Note_on_c, 0, 77, 64
1, 1331214, Note_on_c, 0, 89, 0
1, 1331225, Note_on_c, 0, 77, 0
1, 1331290, Note_on_c, 0, 60, 72
1, 1331318, Note_on_c, 0, 76, 87
1, 1331327, Note_on_c, 0, 63, 45
1, 1331331, Note_on_c, 0, 64, 74
1, 1331331, Note_on_c, 0, 53, 28
1, 1331356, Note_on_c, 0, 60, 0
1, 1331361, Note_on_c, 0, 64, 0
1, 1331362, Note_on_c, 0, 76, 0
1, 1331364, Note_on_c, 0, 63, 0
1, 1331384, Note_on_c, 0, 53, 0
1, 1331511, Note_on_c, 0, 60, 60
1, 1331518, Note_on_c, 0, 63, 37
1, 1331531, Note_on_c, 0, 77, 89
1, 1331540, Note_on_c, 0, 60, 0
1, 1331542, Note_on_c, 0, 65, 66
1, 1331554, Note_on_c, 0, 63, 0
1, 1331565, Note_on_c, 0, 65, 0
1, 1331568, Note_on_c, 0, 77, 0
1, 1331647, Control_c, 0, 67, 118
1, 1331663, Note_on_c, 0, 46, 65
1, 1331664, Control_c, 0, 67, 108
1, 1331684, Control_c, 0, 67, 91
1, 1331703, Control_c, 0, 67, 65
1, 1331722, Control_c, 0, 64, 21
1, 1331723, Control_c, 0, 67, 34
1, 1331735, Note_on_c, 0, 82, 68
1, 1331738, Control_c, 0, 64, 37
1, 1331744, Note_on_c, 0, 53, 50
1, 1331757, Control_c, 0, 64, 54
1, 1331759, Control_c, 0, 67, 0
1, 1331760, Note_on_c, 0, 46, 0
1, 1331776, Control_c, 0, 64, 74
1, 1331794, Control_c, 0, 64, 92
1, 1331803, Note_on_c, 0, 94, 87
1, 1331805, Note_on_c, 0, 61, 72
1, 1331811, Control_c, 0, 64, 119
1, 1331822, Note_on_c, 0, 82, 0
1, 1331831, Control_c, 0, 64, 127
1, 1331846, Note_on_c, 0, 61, 0
1, 1331850, Note_on_c, 0, 53, 0
1, 1331900, Note_on_c, 0, 92, 27
1, 1331911, Note_on_c, 0, 89, 80
1, 1331927, Note_on_c, 0, 94, 0
1, 1331964, Note_on_c, 0, 92, 0
1, 1332008, Note_on_c, 0, 85, 81
1, 1332034, Note_on_c, 0, 89, 0
1, 1332091, Note_on_c, 0, 85, 0
1, 1332117, Note_on_c, 0, 82, 83
1, 1332147, Note_on_c, 0, 82, 0
1, 1332237, Note_on_c, 0, 70, 84
1, 1332299, Note_on_c, 0, 70, 0
1, 1332502, Note_on_c, 0, 40, 103
1, 1332503, Note_on_c, 0, 82, 89
1, 1332504, Note_on_c, 0, 28, 91
1, 1332511, Note_on_c, 0, 73, 90
1, 1332511, Note_on_c, 0, 70, 94
1, 1332514, Note_on_c, 0, 79, 85
1, 1332562, Note_on_c, 0, 40, 0
1, 1332562, Note_on_c, 0, 28, 0
1, 1332564, Note_on_c, 0, 82, 0
1, 1332566, Note_on_c, 0, 70, 0
1, 1332566, Control_c, 0, 64, 104
1, 1332570, Note_on_c, 0, 73, 0
1, 1332578, Note_on_c, 0, 79, 0
1, 1332585, Control_c, 0, 64, 72
1, 1332601, Control_c, 0, 64, 47
1, 1332619, Control_c, 0, 64, 43
1, 1332648, Poly_aftertouch_c, 0, 35, 0
1, 1332657, Control_c, 0, 64, 41
1, 1332859, Note_on_c, 0, 41, 98
1, 1332869, Note_on_c, 0, 29, 82
1, 1332890, Note_on_c, 0, 41, 0
1, 1332897, Control_c, 0, 64, 36
1, 1332899, Note_on_c, 0, 29, 0
1, 1332902, Note_on_c, 0, 28, 40
1, 1332903, Note_on_c, 0, 28, 0
1, 1332934, Control_c, 0, 64, 31
1, 1332955, Poly_aftertouch_c, 0, 28, 0
1, 1332962, Note_on_c, 0, 43, 100
1, 1332967, Note_on_c, 0, 31, 93
1, 1333157, Note_on_c, 0, 43, 0
1, 1333160, Note_on_c, 0, 80, 86
1, 1333161, Note_on_c, 0, 31, 0
1, 1333161, Note_on_c, 0, 68, 91
1, 1333168, Note_on_c, 0, 77, 78
1, 1333170, Note_on_c, 0, 72, 84
1, 1333274, Note_on_c, 0, 44, 86
1, 1333276, Note_on_c, 0, 32, 91
1, 1333306, Note_on_c, 0, 44, 0
1, 1333308, Note_on_c, 0, 32, 0
1, 1333335, Note_on_c, 0, 45, 20
1, 1333336, Note_on_c, 0, 45, 0
1, 1333387, Note_on_c, 0, 46, 98
1, 1333390, Note_on_c, 0, 34, 90
1, 1333405, Poly_aftertouch_c, 0, 45, 0
1, 1333418, Note_on_c, 0, 80, 0
1, 1333425, Note_on_c, 0, 68, 0
1, 1333425, Note_on_c, 0, 72, 0
1, 1333427, Note_on_c, 0, 34, 0
1, 1333441, Note_on_c, 0, 77, 0
1, 1333445, Note_on_c, 0, 46, 0
1, 1333449, Poly_aftertouch_c, 0, 32, 0
1, 1333640, Note_on_c, 0, 48, 102
1, 1333646, Note_on_c, 0, 36, 92
1, 1333676, Note_on_c, 0, 37, 57
1, 1333677, Note_on_c, 0, 37, 0
1, 1333679, Note_on_c, 0, 48, 0
1, 1333680, Note_on_c, 0, 36, 0
1, 1333890, Note_on_c, 0, 77, 88
1, 1333891, Note_on_c, 0, 49, 98
1, 1333891, Note_on_c, 0, 65, 96
1, 1333893, Note_on_c, 0, 70, 90
1, 1333894, Note_on_c, 0, 37, 92
1, 1333896, Note_on_c, 0, 73, 86
1, 1333929, Note_on_c, 0, 37, 0
1, 1333930, Note_on_c, 0, 49, 0
1, 1333989, Control_c, 0, 64, 27
1, 1334150, Note_on_c, 0, 48, 101
1, 1334154, Note_on_c, 0, 36, 92
1, 1334181, Note_on_c, 0, 48, 0
1, 1334188, Note_on_c, 0, 36, 0
1, 1334188, Note_on_c, 0, 37, 44
1, 1334189, Note_on_c, 0, 37, 0
1, 1334237, Poly_aftertouch_c, 0, 37, 0
1, 1334255, Note_on_c, 0, 77, 0
1, 1334280, Note_on_c, 0, 70, 0
1, 1334281, Note_on_c, 0, 73, 0
1, 1334299, Note_on_c, 0, 65, 0
1, 1334412, Note_on_c, 0, 46, 97
1, 1334414, Note_on_c, 0, 34, 97
1, 1334435, Note_on_c, 0, 46, 0
1, 1334445, Note_on_c, 0, 34, 0
1, 1334749, Note_on_c, 0, 72, 90
1, 1334751, Note_on_c, 0, 60, 97
1, 1334755, Note_on_c, 0, 53, 105
1, 1334757, Note_on_c, 0, 65, 91
1, 1334758, Note_on_c, 0, 68, 88
1, 1334763, Note_on_c, 0, 41, 93
1, 1334807, Control_c, 0, 64, 23
1, 1334898, Control_c, 0, 64, 40
1, 1334925, Control_c, 0, 64, 58
1, 1334943, Control_c, 0, 64, 80
1, 1334962, Control_c, 0, 64, 99
1, 1334982, Control_c, 0, 64, 119
1, 1334999, Control_c, 0, 64, 127
1, 1335078, Note_on_c, 0, 53, 0
1, 1335085, Note_on_c, 0, 41, 0
1, 1335165, Control_c, 0, 67, 9
1, 1335181, Note_on_c, 0, 68, 0
1, 1335185, Control_c, 0, 67, 16
1, 1335203, Control_c, 0, 67, 23
1, 1335222, Control_c, 0, 67, 29
1, 1335232, Note_on_c, 0, 65, 0
1, 1335240, Control_c, 0, 67, 34
1, 1335278, Control_c, 0, 67, 40
1, 1335296, Control_c, 0, 67, 44
1, 1335314, Control_c, 0, 67, 50
1, 1335315, Note_on_c, 0, 60, 0
1, 1335334, Control_c, 0, 67, 55
1, 1335340, Note_on_c, 0, 72, 0
1, 1335351, Control_c, 0, 67, 61
1, 1335370, Control_c, 0, 67, 67
1, 1335388, Control_c, 0, 67, 72
1, 1335407, Control_c, 0, 67, 78
1, 1335425, Control_c, 0, 67, 85
1, 1335445, Control_c, 0, 67, 93
1, 1335463, Control_c, 0, 67, 101
1, 1335481, Control_c, 0, 67, 109
1, 1335500, Control_c, 0, 64, 122
1, 1335502, Control_c, 0, 67, 116
1, 1335518, Control_c, 0, 64, 99
1, 1335519, Control_c, 0, 67, 121
1, 1335537, Control_c, 0, 64, 73
1, 1335539, Control_c, 0, 67, 127
1, 1335555, Control_c, 0, 64, 50
1, 1335574, Control_c, 0, 64, 38
1, 1335612, Control_c, 0, 64, 34
1, 1335653, Note_on_c, 0, 71, 72
1, 1335685, Control_c, 0, 64, 30
1, 1335713, Note_on_c, 0, 42, 67
1, 1335760, Note_on_c, 0, 42, 0
1, 1335861, Note_on_c, 0, 40, 66
1, 1335888, Note_on_c, 0, 61, 49
1, 1335893, Note_on_c, 0, 40, 0
1, 1335958, Note_on_c, 0, 61, 0
1, 1336139, Note_on_c, 0, 41, 63
1, 1336164, Note_on_c, 0, 68, 56
1, 1336170, Note_on_c, 0, 41, 0
1, 1336377, Note_on_c, 0, 68, 0
1, 1336386, Note_on_c, 0, 69, 66
1, 1336495, Note_on_c, 0, 44, 51
1, 1336507, Note_on_c, 0, 71, 0
1, 1336560, Note_on_c, 0, 44, 0
1, 1336582, Control_c, 0, 67, 120
1, 1336602, Control_c, 0, 67, 114
1, 1336608, Note_on_c, 0, 41, 36
1, 1336621, Control_c, 0, 67, 107
1, 1336622, Note_on_c, 0, 61, 43
1, 1336638, Control_c, 0, 67, 98
1, 1336653, Note_on_c, 0, 41, 0
1, 1336656, Control_c, 0, 67, 87
1, 1336677, Control_c, 0, 67, 73
1, 1336695, Control_c, 0, 67, 55
1, 1336715, Control_c, 0, 67, 36
1, 1336732, Control_c, 0, 67, 19
1, 1336769, Control_c, 0, 67, 0
1, 1336808, Note_on_c, 0, 61, 0
1, 1336876, Note_on_c, 0, 42, 48
1, 1336881, Note_on_c, 0, 70, 71
1, 1336907, Note_on_c, 0, 66, 41
1, 1336914, Note_on_c, 0, 42, 0
1, 1336943, Note_on_c, 0, 69, 0
1, 1336955, Note_on_c, 0, 66, 0
1, 1337162, Note_on_c, 0, 73, 63
1, 1337228, Note_on_c, 0, 70, 0
1, 1337240, Note_on_c, 0, 46, 51
1, 1337279, Control_c, 0, 67, 14
1, 1337297, Control_c, 0, 67, 26
1, 1337309, Note_on_c, 0, 46, 0
1, 1337315, Control_c, 0, 67, 38
1, 1337335, Control_c, 0, 67, 47
1, 1337353, Control_c, 0, 67, 57
1, 1337354, Note_on_c, 0, 44, 53
1, 1337372, Control_c, 0, 67, 67
1, 1337389, Control_c, 0, 67, 75
1, 1337391, Note_on_c, 0, 44, 0
1, 1337407, Control_c, 0, 67, 83
1, 1337410, Note_on_c, 0, 63, 31
1, 1337426, Control_c, 0, 67, 90
1, 1337445, Control_c, 0, 67, 97
1, 1337464, Control_c, 0, 67, 102
1, 1337483, Control_c, 0, 67, 107
1, 1337501, Control_c, 0, 67, 111
1, 1337526, Note_on_c, 0, 63, 0
1, 1337537, Control_c, 0, 67, 117
1, 1337593, Control_c, 0, 67, 122
1, 1337637, Note_on_c, 0, 45, 52
1, 1337649, Control_c, 0, 67, 126
1, 1337652, Note_on_c, 0, 65, 38
1, 1337655, Note_on_c, 0, 72, 67
1, 1337681, Note_on_c, 0, 45, 0
1, 1337703, Note_on_c, 0, 73, 0
1, 1337744, Note_on_c, 0, 65, 0
1, 1337962, Note_on_c, 0, 75, 60
1, 1338002, Note_on_c, 0, 72, 0
1, 1338042, Note_on_c, 0, 48, 44
1, 1338103, Note_on_c, 0, 48, 0
1, 1338144, Note_on_c, 0, 45, 55
1, 1338177, Control_c, 0, 67, 119
1, 1338179, Note_on_c, 0, 45, 0
1, 1338196, Control_c, 0, 67, 115
1, 1338215, Control_c, 0, 67, 110
1, 1338233, Control_c, 0, 67, 106
1, 1338239, Note_on_c, 0, 65, 7
1, 1338252, Control_c, 0, 67, 99
1, 1338271, Control_c, 0, 67, 86
1, 1338288, Control_c, 0, 67, 66
1, 1338306, Control_c, 0, 67, 43
1, 1338325, Control_c, 0, 67, 20
1, 1338362, Control_c, 0, 67, 0
1, 1338398, Note_on_c, 0, 65, 0
1, 1338417, Control_c, 0, 64, 42
1, 1338435, Control_c, 0, 64, 53
1, 1338448, Note_on_c, 0, 46, 60
1, 1338452, Control_c, 0, 64, 68
1, 1338460, Note_on_c, 0, 74, 59
1, 1338464, Note_on_c, 0, 75, 0
1, 1338472, Control_c, 0, 64, 80
1, 1338472, Note_on_c, 0, 70, 50
1, 1338487, Note_on_c, 0, 46, 0
1, 1338491, Control_c, 0, 64, 94
1, 1338509, Control_c, 0, 64, 111
1, 1338520, Note_on_c, 0, 70, 0
1, 1338525, Note_on_c, 0, 74, 0
1, 1338529, Control_c, 0, 64, 127
1, 1338748, Note_on_c, 0, 38, 100
1, 1338751, Note_on_c, 0, 80, 93
1, 1338752, Note_on_c, 0, 26, 92
1, 1338754, Note_on_c, 0, 68, 101
1, 1338759, Note_on_c, 0, 71, 90
1, 1338760, Note_on_c, 0, 77, 86
1, 1338796, Note_on_c, 0, 27, 52
1, 1338800, Note_on_c, 0, 33, 36
1, 1338815, Note_on_c, 0, 26, 0
1, 1338817, Control_c, 0, 64, 106
1, 1338821, Note_on_c, 0, 80, 0
1, 1338825, Note_on_c, 0, 68, 0
1, 1338831, Note_on_c, 0, 38, 0
1, 1338836, Control_c, 0, 64, 68
1, 1338838, Note_on_c, 0, 27, 0
1, 1338842, Note_on_c, 0, 33, 0
1, 1338842, Note_on_c, 0, 77, 0
1, 1338852, Note_on_c, 0, 71, 0
1, 1338853, Control_c, 0, 64, 33
1, 1338873, Control_c, 0, 64, 28
1, 1339105, Note_on_c, 0, 27, 83
1, 1339108, Note_on_c, 0, 39, 80
1, 1339131, Note_on_c, 0, 39, 0
1, 1339133, Note_on_c, 0, 27, 0
1, 1339197, Note_on_c, 0, 41, 97
1, 1339202, Note_on_c, 0, 29, 88
1, 1339225, Control_c, 0, 64, 24
1, 1339263, Note_on_c, 0, 30, 24
1, 1339264, Note_on_c, 0, 30, 0
1, 1339298, Control_c, 0, 64, 32
1, 1339317, Control_c, 0, 64, 50
1, 1339336, Control_c, 0, 64, 73
1, 1339355, Control_c, 0, 64, 97
1, 1339373, Control_c, 0, 64, 127
1, 1339385, Note_on_c, 0, 41, 0
1, 1339399, Note_on_c, 0, 29, 0
1, 1339402, Note_on_c, 0, 78, 86
1, 1339402, Note_on_c, 0, 66, 86
1, 1339409, Note_on_c, 0, 70, 81
1, 1339409, Note_on_c, 0, 75, 80
1, 1339503, Control_c, 0, 64, 98
1, 1339511, Note_on_c, 0, 42, 91
1, 1339513, Note_on_c, 0, 30, 87
1, 1339521, Control_c, 0, 64, 68
1, 1339541, Control_c, 0, 64, 43
1, 1339542, Note_on_c, 0, 42, 0
1, 1339546, Note_on_c, 0, 30, 0
1, 1339559, Control_c, 0, 64, 33
1, 1339624, Note_on_c, 0, 44, 100
1, 1339628, Note_on_c, 0, 78, 0
1, 1339629, Note_on_c, 0, 32, 93
1, 1339631, Note_on_c, 0, 66, 0
1, 1339654, Note_on_c, 0, 70, 0
1, 1339660, Note_on_c, 0, 75, 0
1, 1339665, Note_on_c, 0, 32, 0
1, 1339668, Note_on_c, 0, 44, 0
1, 1339883, Note_on_c, 0, 46, 100
1, 1339889, Note_on_c, 0, 34, 95
1, 1339921, Note_on_c, 0, 46, 0
1, 1339923, Note_on_c, 0, 34, 0
1, 1340134, Note_on_c, 0, 75, 87
1, 1340137, Note_on_c, 0, 63, 91
1, 1340140, Note_on_c, 0, 47, 101
1, 1340140, Note_on_c, 0, 68, 86
1, 1340144, Note_on_c, 0, 71, 81
1, 1340146, Note_on_c, 0, 35, 93
1, 1340179, Note_on_c, 0, 47, 0
1, 1340179, Note_on_c, 0, 35, 0
1, 1340197, Control_c, 0, 64, 29
1, 1340377, Note_on_c, 0, 46, 96
1, 1340383, Note_on_c, 0, 34, 90
1, 1340402, Note_on_c, 0, 63, 0
1, 1340402, Note_on_c, 0, 75, 0
1, 1340422, Note_on_c, 0, 46, 0
1, 1340424, Note_on_c, 0, 71, 0
1, 1340424, Note_on_c, 0, 34, 0
1, 1340428, Note_on_c, 0, 68, 0
1, 1340687, Note_on_c, 0, 44, 95
1, 1340689, Note_on_c, 0, 32, 90
1, 1340723, Note_on_c, 0, 44, 0
1, 1340725, Note_on_c, 0, 32, 0
1, 1341060, Note_on_c, 0, 70, 90
1, 1341063, Note_on_c, 0, 58, 90
1, 1341066, Note_on_c, 0, 51, 101
1, 1341067, Note_on_c, 0, 63, 88
1, 1341067, Note_on_c, 0, 66, 84
1, 1341070, Note_on_c, 0, 39, 95
1, 1341133, Control_c, 0, 64, 34
1, 1341151, Control_c, 0, 64, 52
1, 1341170, Control_c, 0, 64, 74
1, 1341188, Control_c, 0, 64, 97
1, 1341207, Control_c, 0, 64, 126
1, 1341341, Note_on_c, 0, 51, 0
1, 1341357, Note_on_c, 0, 39, 0
1, 1341379, Note_on_c, 0, 58, 0
1, 1341499, Note_on_c, 0, 70, 0
1, 1341514, Note_on_c, 0, 63, 0
1, 1341519, Note_on_c, 0, 66, 0
1, 1341716, Control_c, 0, 67, 8
1, 1341754, Control_c, 0, 67, 14
1, 1341845, Control_c, 0, 67, 18
1, 1341938, Control_c, 0, 67, 24
1, 1342049, Control_c, 0, 64, 113
1, 1342068, Control_c, 0, 64, 94
1, 1342085, Note_on_c, 0, 73, 71
1, 1342086, Control_c, 0, 64, 72
1, 1342106, Control_c, 0, 64, 55
1, 1342124, Control_c, 0, 64, 46
1, 1342143, Control_c, 0, 64, 43
1, 1342162, Control_c, 0, 64, 41
1, 1342180, Note_on_c, 0, 42, 55
1, 1342199, Control_c, 0, 64, 35
1, 1342229, Note_on_c, 0, 42, 0
1, 1342272, Control_c, 0, 64, 31
1, 1342301, Note_on_c, 0, 39, 56
1, 1342317, Note_on_c, 0, 61, 44
1, 1342331, Note_on_c, 0, 39, 0
1, 1342447, Note_on_c, 0, 61, 0
1, 1342575, Control_c, 0, 67, 28
1, 1342578, Note_on_c, 0, 40, 58
1, 1342581, Note_on_c, 0, 66, 49
1, 1342591, Note_on_c, 0, 70, 42
1, 1342595, Control_c, 0, 67, 34
1, 1342614, Control_c, 0, 67, 43
1, 1342633, Control_c, 0, 67, 50
1, 1342647, Note_on_c, 0, 40, 0
1, 1342651, Control_c, 0, 67, 54
1, 1342689, Control_c, 0, 67, 58
1, 1342714, Note_on_c, 0, 66, 0
1, 1342726, Control_c, 0, 67, 64
1, 1342745, Control_c, 0, 67, 69
1, 1342764, Control_c, 0, 67, 73
1, 1342780, Control_c, 0, 67, 77
1, 1342819, Control_c, 0, 67, 82
1, 1342855, Control_c, 0, 67, 87
1, 1342858, Note_on_c, 0, 78, 68
1, 1342894, Control_c, 0, 67, 92
1, 1342911, Note_on_c, 0, 70, 0
1, 1342931, Control_c, 0, 67, 99
1, 1342934, Note_on_c, 0, 73, 0
1, 1342960, Note_on_c, 0, 40, 43
1, 1342967, Control_c, 0, 67, 103
1, 1343003, Control_c, 0, 67, 107
1, 1343027, Note_on_c, 0, 40, 0
1, 1343085, Note_on_c, 0, 38, 55
1, 1343115, Control_c, 0, 67, 111
1, 1343121, Note_on_c, 0, 66, 38
1, 1343124, Note_on_c, 0, 38, 0
1, 1343135, Control_c, 0, 64, 27
1, 1343160, Note_on_c, 0, 66, 0
1, 1343169, Control_c, 0, 67, 116
1, 1343207, Control_c, 0, 67, 121
1, 1343226, Control_c, 0, 67, 125
1, 1343370, Note_on_c, 0, 75, 47
1, 1343393, Note_on_c, 0, 39, 40
1, 1343401, Note_on_c, 0, 71, 42
1, 1343452, Note_on_c, 0, 39, 0
1, 1343478, Control_c, 0, 64, 39
1, 1343495, Control_c, 0, 64, 48
1, 1343515, Control_c, 0, 64, 63
1, 1343525, Note_on_c, 0, 75, 0
1, 1343530, Control_c, 0, 64, 76
1, 1343538, Note_on_c, 0, 71, 0
1, 1343551, Control_c, 0, 64, 86
1, 1343569, Control_c, 0, 64, 93
1, 1343587, Control_c, 0, 64, 101
1, 1343606, Control_c, 0, 64, 108
1, 1343625, Control_c, 0, 64, 115
1, 1343641, Note_on_c, 0, 73, 66
1, 1343660, Control_c, 0, 64, 120
1, 1343681, Note_on_c, 0, 78, 0
1, 1343744, Note_on_c, 0, 42, 57
1, 1343773, Control_c, 0, 64, 116
1, 1343787, Note_on_c, 0, 42, 0
1, 1343791, Control_c, 0, 64, 108
1, 1343810, Control_c, 0, 64, 97
1, 1343829, Control_c, 0, 64, 83
1, 1343847, Control_c, 0, 64, 66
1, 1343866, Control_c, 0, 64, 53
1, 1343867, Note_on_c, 0, 39, 51
1, 1343884, Control_c, 0, 64, 47
1, 1343886, Note_on_c, 0, 61, 52
1, 1343900, Note_on_c, 0, 39, 0
1, 1343920, Control_c, 0, 64, 45
1, 1343950, Note_on_c, 0, 61, 0
1, 1343957, Control_c, 0, 64, 43
1, 1344015, Control_c, 0, 64, 41
1, 1344151, Note_on_c, 0, 66, 47
1, 1344159, Note_on_c, 0, 40, 49
1, 1344171, Note_on_c, 0, 70, 46
1, 1344226, Note_on_c, 0, 40, 0
1, 1344255, Note_on_c, 0, 66, 0
1, 1344439, Note_on_c, 0, 78, 50
1, 1344507, Note_on_c, 0, 70, 0
1, 1344533, Note_on_c, 0, 73, 0
1, 1344601, Note_on_c, 0, 40, 21
1, 1344636, Control_c, 0, 64, 37
1, 1344656, Note_on_c, 0, 40, 0
1, 1344709, Control_c, 0, 64, 32
1, 1344724, Note_on_c, 0, 38, 43
1, 1344746, Control_c, 0, 64, 27
1, 1344753, Note_on_c, 0, 66, 42
1, 1344767, Note_on_c, 0, 38, 0
1, 1344782, Control_c, 0, 64, 22
1, 1344811, Note_on_c, 0, 66, 0
1, 1344820, Control_c, 0, 64, 15
1, 1344838, Control_c, 0, 64, 11
1, 1344875, Control_c, 0, 64, 0
1, 1345003, Control_c, 0, 64, 22
1, 1345024, Control_c, 0, 64, 33
1, 1345041, Control_c, 0, 64, 44
1, 1345060, Control_c, 0, 64, 62
1, 1345075, Note_on_c, 0, 75, 38
1, 1345078, Control_c, 0, 64, 75
1, 1345095, Note_on_c, 0, 71, 36
1, 1345096, Control_c, 0, 64, 81
1, 1345116, Control_c, 0, 64, 88
1, 1345118, Note_on_c, 0, 39, 30
1, 1345135, Control_c, 0, 64, 98
1, 1345138, Note_on_c, 0, 78, 0
1, 1345152, Control_c, 0, 64, 108
1, 1345162, Note_on_c, 0, 75, 0
1, 1345169, Control_c, 0, 64, 117
1, 1345177, Note_on_c, 0, 71, 0
1, 1345190, Control_c, 0, 64, 122
1, 1345217, Control_c, 0, 64, 126
1, 1345395, Note_on_c, 0, 39, 0
1, 1345452, Note_on_c, 0, 61, 65
1, 1345560, Note_on_c, 0, 42, 54
1, 1345606, Control_c, 0, 64, 115
1, 1345609, Note_on_c, 0, 42, 0
1, 1345625, Control_c, 0, 64, 98
1, 1345645, Control_c, 0, 64, 79
1, 1345662, Control_c, 0, 64, 61
1, 1345681, Control_c, 0, 64, 52
1, 1345686, Note_on_c, 0, 39, 64
1, 1345701, Control_c, 0, 64, 48
1, 1345711, Note_on_c, 0, 54, 43
1, 1345715, Note_on_c, 0, 39, 0
1, 1345737, Control_c, 0, 64, 45
1, 1345756, Control_c, 0, 64, 43
1, 1345937, Note_on_c, 0, 58, 35
1, 1345943, Note_on_c, 0, 40, 66
1, 1345952, Note_on_c, 0, 54, 0
1, 1345978, Note_on_c, 0, 40, 0
1, 1346216, Note_on_c, 0, 66, 52
1, 1346279, Note_on_c, 0, 61, 0
1, 1346290, Note_on_c, 0, 58, 0
1, 1346309, Note_on_c, 0, 40, 55
1, 1346364, Note_on_c, 0, 40, 0
1, 1346420, Note_on_c, 0, 38, 57
1, 1346458, Note_on_c, 0, 38, 0
1, 1346471, Note_on_c, 0, 54, 40
1, 1346672, Note_on_c, 0, 39, 59
1, 1346717, Note_on_c, 0, 39, 0
1, 1346729, Note_on_c, 0, 58, 37
1, 1346770, Note_on_c, 0, 60, 23
1, 1346840, Control_c, 0, 64, 46
1, 1346859, Control_c, 0, 64, 49
1, 1346877, Control_c, 0, 64, 53
1, 1346893, Control_c, 0, 64, 56
1, 1346896, Note_on_c, 0, 66, 0
1, 1346913, Control_c, 0, 64, 58
1, 1346931, Control_c, 0, 64, 60
1, 1346950, Control_c, 0, 64, 62
1, 1346951, Note_on_c, 0, 54, 0
1, 1346968, Control_c, 0, 64, 63
1, 1346971, Note_on_c, 0, 65, 52
1, 1346988, Control_c, 0, 64, 65
1, 1347032, Note_on_c, 0, 58, 0
1, 1347035, Poly_aftertouch_c, 0, 62, 0
1, 1347070, Note_on_c, 0, 42, 42
1, 1347086, Note_on_c, 0, 60, 0
1, 1347108, Control_c, 0, 64, 64
1, 1347127, Control_c, 0, 64, 62
1, 1347145, Control_c, 0, 64, 60
1, 1347163, Control_c, 0, 64, 58
1, 1347167, Note_on_c, 0, 42, 0
1, 1347182, Control_c, 0, 64, 56
1, 1347200, Control_c, 0, 64, 52
1, 1347209, Note_on_c, 0, 40, 58
1, 1347220, Control_c, 0, 64, 48
1, 1347238, Control_c, 0, 64, 41
1, 1347241, Note_on_c, 0, 51, 43
1, 1347248, Note_on_c, 0, 40, 0
1, 1347256, Control_c, 0, 64, 29
1, 1347274, Control_c, 0, 64, 16
1, 1347293, Control_c, 0, 64, 9
1, 1347311, Control_c, 0, 64, 0
1, 1347316, Note_on_c, 0, 51, 0
1, 1347443, Control_c, 0, 64, 31
1, 1347459, Control_c, 0, 64, 59
1, 1347465, Note_on_c, 0, 57, 33
1, 1347465, Note_on_c, 0, 41, 49
1, 1347477, Control_c, 0, 64, 83
1, 1347484, Note_on_c, 0, 60, 38
1, 1347496, Control_c, 0, 64, 102
1, 1347501, Note_on_c, 0, 41, 0
1, 1347511, Note_on_c, 0, 57, 0
1, 1347514, Note_on_c, 0, 65, 0
1, 1347514, Control_c, 0, 64, 124
1, 1347529, Note_on_c, 0, 60, 0
1, 1347787, Note_on_c, 0, 34, 34
1, 1347829, Note_on_c, 0, 94, 66
1, 1347904, Control_c, 0, 64, 111
1, 1347923, Control_c, 0, 64, 74
1, 1347941, Control_c, 0, 64, 40
1, 1347950, Note_on_c, 0, 94, 0
1, 1347957, Note_on_c, 0, 89, 64
1, 1347958, Control_c, 0, 64, 31
1, 1347997, Control_c, 0, 64, 40
1, 1348024, Control_c, 0, 64, 58
1, 1348043, Control_c, 0, 64, 79
1, 1348061, Control_c, 0, 64, 99
1, 1348069, Note_on_c, 0, 89, 0
1, 1348078, Note_on_c, 0, 85, 69
1, 1348080, Control_c, 0, 64, 125
1, 1348128, Note_on_c, 0, 85, 0
1, 1348165, Poly_aftertouch_c, 0, 46, 0
1, 1348179, Note_on_c, 0, 82, 64
1, 1348210, Note_on_c, 0, 82, 0
1, 1348313, Note_on_c, 0, 70, 68
1, 1348335, Note_on_c, 0, 34, 0
1, 1348372, Note_on_c, 0, 70, 0
1, 1348596, Note_on_c, 0, 46, 59
1, 1348621, Note_on_c, 0, 34, 43
1, 1348636, Control_c, 0, 64, 106
1, 1348655, Control_c, 0, 64, 97
1, 1348673, Control_c, 0, 64, 101
1, 1348693, Control_c, 0, 64, 108
1, 1348709, Control_c, 0, 64, 117
1, 1348728, Control_c, 0, 64, 127
1, 1348953, Note_on_c, 0, 46, 0
1, 1348969, Note_on_c, 0, 34, 0
1, 1349146, Note_on_c, 0, 47, 53
1, 1349154, Note_on_c, 0, 35, 42
1, 1349274, Control_c, 0, 64, 105
1, 1349293, Control_c, 0, 64, 78
1, 1349312, Control_c, 0, 64, 48
1, 1349330, Control_c, 0, 64, 24
1, 1349349, Control_c, 0, 64, 15
1, 1349367, Control_c, 0, 64, 10
1, 1349399, Note_on_c, 0, 92, 72
1, 1349443, Control_c, 0, 64, 29
1, 1349461, Control_c, 0, 64, 56
1, 1349477, Control_c, 0, 64, 82
1, 1349497, Control_c, 0, 64, 100
1, 1349507, Note_on_c, 0, 87, 62
1, 1349516, Control_c, 0, 64, 118
1, 1349521, Note_on_c, 0, 92, 0
1, 1349534, Control_c, 0, 64, 127
1, 1349615, Note_on_c, 0, 87, 0
1, 1349623, Note_on_c, 0, 83, 58
1, 1349680, Note_on_c, 0, 83, 0
1, 1349725, Note_on_c, 0, 80, 69
1, 1349756, Note_on_c, 0, 80, 0
1, 1349773, Note_on_c, 0, 47, 0
1, 1349858, Note_on_c, 0, 35, 0
1, 1349892, Note_on_c, 0, 68, 59
1, 1349919, Note_on_c, 0, 68, 0
1, 1350081, Control_c, 0, 67, 119
1, 1350099, Control_c, 0, 67, 114
1, 1350118, Control_c, 0, 67, 104
1, 1350133, Note_on_c, 0, 47, 62
1, 1350136, Control_c, 0, 67, 90
1, 1350151, Note_on_c, 0, 35, 53
1, 1350154, Control_c, 0, 67, 69
1, 1350174, Control_c, 0, 67, 44
1, 1350192, Control_c, 0, 67, 20
1, 1350211, Control_c, 0, 64, 107
1, 1350212, Control_c, 0, 67, 0
1, 1350230, Control_c, 0, 64, 78
1, 1350250, Control_c, 0, 64, 67
1, 1350266, Control_c, 0, 64, 72
1, 1350284, Control_c, 0, 64, 80
1, 1350304, Control_c, 0, 64, 94
1, 1350322, Control_c, 0, 64, 115
1, 1350340, Control_c, 0, 64, 127
1, 1350410, Note_on_c, 0, 47, 0
1, 1350635, Note_on_c, 0, 36, 56
1, 1350638, Note_on_c, 0, 48, 55
1, 1350663, Note_on_c, 0, 35, 0
1, 1350868, Control_c, 0, 64, 109
1, 1350888, Control_c, 0, 64, 81
1, 1350908, Control_c, 0, 64, 50
1, 1350918, Note_on_c, 0, 90, 69
1, 1350926, Control_c, 0, 64, 24
1, 1350942, Control_c, 0, 64, 18
1, 1351015, Control_c, 0, 64, 41
1, 1351021, Note_on_c, 0, 87, 68
1, 1351035, Control_c, 0, 64, 63
1, 1351037, Note_on_c, 0, 90, 0
1, 1351056, Control_c, 0, 64, 83
1, 1351056, Control_c, 0, 67, 12
1, 1351072, Control_c, 0, 64, 99
1, 1351074, Control_c, 0, 67, 21
1, 1351091, Control_c, 0, 64, 112
1, 1351092, Control_c, 0, 67, 30
1, 1351110, Control_c, 0, 64, 121
1, 1351112, Control_c, 0, 67, 37
1, 1351122, Note_on_c, 0, 80, 67
1, 1351129, Control_c, 0, 64, 127
1, 1351130, Control_c, 0, 67, 44
1, 1351137, Note_on_c, 0, 87, 0
1, 1351144, Control_c, 0, 67, 52
1, 1351164, Control_c, 0, 67, 63
1, 1351183, Control_c, 0, 67, 73
1, 1351202, Control_c, 0, 67, 82
1, 1351206, Note_on_c, 0, 80, 0
1, 1351220, Control_c, 0, 67, 89
1, 1351232, Note_on_c, 0, 78, 72
1, 1351238, Control_c, 0, 67, 96
1, 1351258, Control_c, 0, 67, 103
1, 1351268, Note_on_c, 0, 78, 0
1, 1351276, Control_c, 0, 67, 109
1, 1351301, Note_on_c, 0, 36, 0
1, 1351314, Control_c, 0, 67, 113
1, 1351378, Note_on_c, 0, 66, 69
1, 1351381, Note_on_c, 0, 48, 0
1, 1351406, Control_c, 0, 67, 117
1, 1351446, Note_on_c, 0, 66, 0
1, 1351516, Control_c, 0, 67, 121
1, 1351553, Control_c, 0, 67, 126
1, 1351764, Note_on_c, 0, 48, 78
1, 1351779, Note_on_c, 0, 36, 56
1, 1351823, Control_c, 0, 64, 120
1, 1351841, Control_c, 0, 64, 88
1, 1351861, Control_c, 0, 64, 56
1, 1351878, Control_c, 0, 64, 36
1, 1351934, Control_c, 0, 64, 40
1, 1351952, Control_c, 0, 64, 54
1, 1351971, Control_c, 0, 64, 69
1, 1351989, Control_c, 0, 64, 85
1, 1352009, Control_c, 0, 64, 105
1, 1352026, Control_c, 0, 64, 124
1, 1352091, Note_on_c, 0, 48, 0
1, 1352387, Note_on_c, 0, 49, 53
1, 1352395, Note_on_c, 0, 37, 52
1, 1352447, Note_on_c, 0, 36, 0
1, 1352470, Control_c, 0, 64, 110
1, 1352490, Control_c, 0, 64, 84
1, 1352507, Control_c, 0, 64, 53
1, 1352526, Control_c, 0, 64, 15
1, 1352563, Control_c, 0, 64, 0
1, 1352675, Control_c, 0, 64, 23
1, 1352676, Note_on_c, 0, 89, 58
1, 1352702, Control_c, 0, 64, 47
1, 1352722, Control_c, 0, 64, 72
1, 1352739, Control_c, 0, 64, 90
1, 1352758, Control_c, 0, 64, 110
1, 1352779, Control_c, 0, 64, 126
1, 1352781, Note_on_c, 0, 89, 0
1, 1352802, Note_on_c, 0, 37, 0
1, 1352815, Note_on_c, 0, 85, 61
1, 1352900, Note_on_c, 0, 49, 0
1, 1352908, Note_on_c, 0, 85, 0
1, 1352933, Note_on_c, 0, 80, 59
1, 1352987, Note_on_c, 0, 80, 0
1, 1353054, Note_on_c, 0, 77, 59
1, 1353098, Note_on_c, 0, 77, 0
1, 1353162, Note_on_c, 0, 73, 54
1, 1353169, Note_on_c, 0, 53, 49
1, 1353175, Note_on_c, 0, 41, 50
1, 1353190, Note_on_c, 0, 73, 0
1, 1353221, Note_on_c, 0, 53, 0
1, 1353360, Note_on_c, 0, 41, 0
1, 1353406, Control_c, 0, 64, 101
1, 1353420, Note_on_c, 0, 87, 69
1, 1353425, Control_c, 0, 64, 68
1, 1353442, Control_c, 0, 64, 32
1, 1353449, Note_on_c, 0, 56, 47
1, 1353455, Note_on_c, 0, 44, 44
1, 1353460, Control_c, 0, 64, 15
1, 1353537, Control_c, 0, 64, 19
1, 1353555, Control_c, 0, 64, 41
1, 1353557, Note_on_c, 0, 87, 0
1, 1353566, Note_on_c, 0, 84, 59
1, 1353571, Control_c, 0, 64, 62
1, 1353591, Control_c, 0, 64, 82
1, 1353609, Control_c, 0, 64, 99
1, 1353639, Control_c, 0, 64, 117
1, 1353649, Note_on_c, 0, 56, 0
1, 1353655, Control_c, 0, 64, 127
1, 1353665, Note_on_c, 0, 84, 0
1, 1353669, Note_on_c, 0, 44, 0
1, 1353683, Note_on_c, 0, 80, 59
1, 1353733, Note_on_c, 0, 80, 0
1, 1353787, Note_on_c, 0, 75, 62
1, 1353821, Note_on_c, 0, 75, 0
1, 1353894, Note_on_c, 0, 60, 62
1, 1353902, Note_on_c, 0, 48, 58
1, 1353904, Note_on_c, 0, 72, 61
1, 1353926, Note_on_c, 0, 60, 0
1, 1353926, Note_on_c, 0, 72, 0
1, 1353934, Note_on_c, 0, 48, 0
1, 1354169, Note_on_c, 0, 39, 55
1, 1354172, Note_on_c, 0, 90, 81
1, 1354174, Control_c, 0, 64, 100
1, 1354191, Note_on_c, 0, 51, 39
1, 1354192, Control_c, 0, 64, 66
1, 1354213, Control_c, 0, 64, 30
1, 1354230, Control_c, 0, 64, 19
1, 1354288, Note_on_c, 0, 87, 70
1, 1354305, Control_c, 0, 64, 32
1, 1354310, Note_on_c, 0, 90, 0
1, 1354323, Control_c, 0, 64, 51
1, 1354341, Control_c, 0, 64, 71
1, 1354361, Control_c, 0, 64, 89
1, 1354379, Control_c, 0, 64, 108
1, 1354388, Note_on_c, 0, 82, 64
1, 1354395, Note_on_c, 0, 87, 0
1, 1354396, Control_c, 0, 64, 126
1, 1354401, Note_on_c, 0, 39, 0
1, 1354451, Note_on_c, 0, 51, 0
1, 1354462, Note_on_c, 0, 82, 0
1, 1354498, Note_on_c, 0, 78, 62
1, 1354545, Control_c, 0, 67, 119
1, 1354550, Note_on_c, 0, 78, 0
1, 1354574, Control_c, 0, 67, 115
1, 1354592, Control_c, 0, 67, 106
1, 1354611, Control_c, 0, 67, 93
1, 1354625, Note_on_c, 0, 75, 67
1, 1354629, Control_c, 0, 67, 74
1, 1354636, Note_on_c, 0, 54, 65
1, 1354637, Note_on_c, 0, 42, 58
1, 1354648, Control_c, 0, 67, 53
1, 1354655, Note_on_c, 0, 75, 0
1, 1354667, Control_c, 0, 67, 32
1, 1354677, Note_on_c, 0, 42, 0
1, 1354685, Control_c, 0, 67, 15
1, 1354699, Note_on_c, 0, 54, 0
1, 1354722, Control_c, 0, 67, 0
1, 1354870, Control_c, 0, 64, 109
1, 1354872, Note_on_c, 0, 87, 70
1, 1354881, Note_on_c, 0, 44, 55
1, 1354887, Control_c, 0, 64, 73
1, 1354889, Note_on_c, 0, 56, 51
1, 1354906, Control_c, 0, 64, 33
1, 1354925, Control_c, 0, 64, 0
1, 1355000, Control_c, 0, 64, 30
1, 1355015, Note_on_c, 0, 83, 54
1, 1355016, Note_on_c, 0, 87, 0
1, 1355020, Control_c, 0, 64, 53
1, 1355039, Control_c, 0, 64, 74
1, 1355056, Control_c, 0, 64, 93
1, 1355073, Control_c, 0, 64, 116
1, 1355092, Control_c, 0, 64, 127
1, 1355114, Note_on_c, 0, 44, 0
1, 1355115, Note_on_c, 0, 83, 0
1, 1355118, Note_on_c, 0, 80, 69
1, 1355126, Note_on_c, 0, 56, 0
1, 1355188, Note_on_c, 0, 80, 0
1, 1355234, Note_on_c, 0, 75, 60
1, 1355264, Note_on_c, 0, 75, 0
1, 1355326, Note_on_c, 0, 47, 58
1, 1355336, Note_on_c, 0, 59, 48
1, 1355342, Note_on_c, 0, 71, 57
1, 1355365, Note_on_c, 0, 47, 0
1, 1355370, Note_on_c, 0, 71, 0
1, 1355372, Note_on_c, 0, 59, 0
1, 1355566, Control_c, 0, 64, 118
1, 1355584, Control_c, 0, 64, 87
1, 1355603, Control_c, 0, 64, 47
1, 1355622, Control_c, 0, 64, 0
1, 1355647, Note_on_c, 0, 92, 80
1, 1355648, Note_on_c, 0, 40, 58
1, 1355657, Note_on_c, 0, 52, 58
1, 1355768, Note_on_c, 0, 88, 70
1, 1355768, Control_c, 0, 64, 36
1, 1355788, Control_c, 0, 64, 59
1, 1355807, Control_c, 0, 64, 86
1, 1355808, Note_on_c, 0, 92, 0
1, 1355824, Note_on_c, 0, 40, 0
1, 1355824, Control_c, 0, 64, 111
1, 1355841, Control_c, 0, 64, 127
1, 1355879, Note_on_c, 0, 83, 70
1, 1355896, Note_on_c, 0, 52, 0
1, 1355909, Poly_aftertouch_c, 0, 86, 0
1, 1355912, Note_on_c, 0, 88, 0
1, 1355962, Note_on_c, 0, 83, 0
1, 1355996, Note_on_c, 0, 80, 69
1, 1356027, Note_on_c, 0, 80, 0
1, 1356098, Note_on_c, 0, 76, 69
1, 1356100, Note_on_c, 0, 44, 64
1, 1356105, Note_on_c, 0, 56, 71
1, 1356131, Note_on_c, 0, 76, 0
1, 1356154, Note_on_c, 0, 44, 0
1, 1356192, Note_on_c, 0, 56, 0
1, 1356361, Note_on_c, 0, 47, 68
1, 1356364, Note_on_c, 0, 59, 66
1, 1356366, Note_on_c, 0, 90, 79
1, 1356380, Control_c, 0, 64, 104
1, 1356397, Control_c, 0, 64, 62
1, 1356416, Control_c, 0, 64, 0
1, 1356489, Note_on_c, 0, 87, 70
1, 1356519, Control_c, 0, 64, 33
1, 1356534, Note_on_c, 0, 90, 0
1, 1356538, Control_c, 0, 64, 60
1, 1356556, Control_c, 0, 64, 87
1, 1356567, Note_on_c, 0, 47, 0
1, 1356573, Control_c, 0, 64, 113
1, 1356592, Control_c, 0, 64, 127
1, 1356600, Note_on_c, 0, 83, 72
1, 1356623, Note_on_c, 0, 87, 0
1, 1356634, Note_on_c, 0, 59, 0
1, 1356676, Note_on_c, 0, 83, 0
1, 1356706, Note_on_c, 0, 78, 80
1, 1356798, Note_on_c, 0, 78, 0
1, 1356798, Note_on_c, 0, 78, 43
1, 1356806, Note_on_c, 0, 51, 68
1, 1356807, Note_on_c, 0, 63, 68
1, 1356829, Note_on_c, 0, 78, 0
1, 1356833, Note_on_c, 0, 76, 52
1, 1356841, Note_on_c, 0, 63, 0
1, 1356862, Note_on_c, 0, 76, 0
1, 1356873, Note_on_c, 0, 51, 0
1, 1357038, Note_on_c, 0, 42, 63
1, 1357063, Note_on_c, 0, 54, 64
1, 1357093, Note_on_c, 0, 93, 85
1, 1357094, Control_c, 0, 64, 105
1, 1357113, Control_c, 0, 64, 63
1, 1357123, Poly_aftertouch_c, 0, 85, 0
1, 1357129, Control_c, 0, 64, 0
1, 1357209, Note_on_c, 0, 90, 78
1, 1357213, Note_on_c, 0, 93, 0
1, 1357223, Control_c, 0, 64, 37
1, 1357242, Control_c, 0, 64, 66
1, 1357260, Control_c, 0, 64, 94
1, 1357279, Control_c, 0, 64, 122
1, 1357298, Control_c, 0, 64, 127
1, 1357302, Note_on_c, 0, 54, 0
1, 1357304, Note_on_c, 0, 90, 0
1, 1357309, Note_on_c, 0, 85, 81
1, 1357322, Poly_aftertouch_c, 0, 92, 0
1, 1357340, Note_on_c, 0, 42, 0
1, 1357380, Note_on_c, 0, 85, 0
1, 1357396, Note_on_c, 0, 44, 15
1, 1357415, Note_on_c, 0, 81, 74
1, 1357460, Note_on_c, 0, 44, 0
1, 1357508, Note_on_c, 0, 45, 75
1, 1357513, Note_on_c, 0, 57, 67
1, 1357528, Note_on_c, 0, 81, 0
1, 1357545, Note_on_c, 0, 78, 39
1, 1357546, Note_on_c, 0, 78, 0
1, 1357559, Note_on_c, 0, 79, 46
1, 1357577, Note_on_c, 0, 57, 0
1, 1357594, Note_on_c, 0, 79, 0
1, 1357598, Note_on_c, 0, 45, 0
1, 1357732, Control_c, 0, 64, 106
1, 1357732, Control_c, 0, 67, 8
1, 1357751, Control_c, 0, 64, 65
1, 1357768, Note_on_c, 0, 47, 58
1, 1357769, Control_c, 0, 64, 0
1, 1357772, Note_on_c, 0, 59, 57
1, 1357781, Note_on_c, 0, 90, 76
1, 1357787, Control_c, 0, 67, 13
1, 1357807, Control_c, 0, 67, 23
1, 1357825, Control_c, 0, 67, 36
1, 1357844, Control_c, 0, 67, 48
1, 1357862, Control_c, 0, 67, 55
1, 1357880, Control_c, 0, 64, 29
1, 1357882, Control_c, 0, 67, 62
1, 1357898, Control_c, 0, 64, 62
1, 1357899, Control_c, 0, 67, 70
1, 1357901, Note_on_c, 0, 86, 63
1, 1357917, Control_c, 0, 64, 91
1, 1357920, Control_c, 0, 67, 77
1, 1357925, Note_on_c, 0, 90, 0
1, 1357937, Control_c, 0, 64, 115
1, 1357939, Control_c, 0, 67, 84
1, 1357954, Control_c, 0, 64, 127
1, 1357955, Control_c, 0, 67, 91
1, 1357973, Control_c, 0, 67, 97
1, 1357992, Control_c, 0, 67, 102
1, 1358000, Note_on_c, 0, 83, 70
1, 1358011, Control_c, 0, 67, 106
1, 1358024, Note_on_c, 0, 47, 0
1, 1358025, Note_on_c, 0, 86, 0
1, 1358048, Control_c, 0, 67, 111
1, 1358059, Note_on_c, 0, 59, 0
1, 1358075, Note_on_c, 0, 83, 0
1, 1358109, Note_on_c, 0, 78, 65
1, 1358144, Note_on_c, 0, 78, 0
1, 1358209, Note_on_c, 0, 62, 65
1, 1358213, Note_on_c, 0, 50, 62
1, 1358218, Note_on_c, 0, 74, 66
1, 1358242, Note_on_c, 0, 62, 0
1, 1358247, Note_on_c, 0, 74, 0
1, 1358248, Note_on_c, 0, 50, 0
1, 1358371, Control_c, 0, 67, 115
1, 1358483, Control_c, 0, 67, 122
1, 1358519, Control_c, 0, 67, 127
1, 1358527, Note_on_c, 0, 43, 44
1, 1358538, Control_c, 0, 64, 112
1, 1358556, Note_on_c, 0, 55, 46
1, 1358557, Control_c, 0, 64, 78
1, 1358574, Control_c, 0, 64, 37
1, 1358581, Note_on_c, 0, 95, 66
1, 1358595, Control_c, 0, 64, 0
1, 1358667, Control_c, 0, 64, 13
1, 1358680, Note_on_c, 0, 95, 0
1, 1358685, Control_c, 0, 64, 39
1, 1358705, Control_c, 0, 64, 64
1, 1358712, Note_on_c, 0, 89, 53
1, 1358723, Control_c, 0, 64, 84
1, 1358742, Control_c, 0, 64, 100
1, 1358761, Control_c, 0, 64, 114
1, 1358779, Control_c, 0, 64, 124
1, 1358783, Note_on_c, 0, 55, 0
1, 1358802, Note_on_c, 0, 89, 0
1, 1358825, Note_on_c, 0, 86, 54
1, 1358878, Note_on_c, 0, 86, 0
1, 1358912, Note_on_c, 0, 43, 0
1, 1358934, Note_on_c, 0, 83, 54
1, 1358964, Note_on_c, 0, 83, 0
1, 1358999, Control_c, 0, 67, 122
1, 1359005, Note_on_c, 0, 47, 52
1, 1359015, Note_on_c, 0, 59, 55
1, 1359031, Note_on_c, 0, 77, 58
1, 1359036, Control_c, 0, 67, 116
1, 1359056, Note_on_c, 0, 77, 0
1, 1359075, Control_c, 0, 67, 108
1, 1359092, Note_on_c, 0, 59, 0
1, 1359093, Control_c, 0, 67, 101
1, 1359113, Control_c, 0, 67, 88
1, 1359130, Control_c, 0, 67, 70
1, 1359150, Control_c, 0, 67, 47
1, 1359169, Control_c, 0, 67, 23
1, 1359203, Control_c, 0, 67, 0
1, 1359236, Note_on_c, 0, 43, 63
1, 1359271, Control_c, 0, 64, 113
1, 1359284, Note_on_c, 0, 55, 67
1, 1359290, Control_c, 0, 64, 77
1, 1359293, Note_on_c, 0, 47, 0
1, 1359303, Note_on_c, 0, 96, 85
1, 1359308, Control_c, 0, 64, 39
1, 1359325, Control_c, 0, 64, 22
1, 1359363, Control_c, 0, 64, 26
1, 1359380, Control_c, 0, 64, 44
1, 1359399, Control_c, 0, 64, 62
1, 1359410, Note_on_c, 0, 91, 73
1, 1359417, Control_c, 0, 64, 81
1, 1359422, Note_on_c, 0, 96, 0
1, 1359437, Control_c, 0, 64, 101
1, 1359456, Control_c, 0, 64, 126
1, 1359519, Note_on_c, 0, 55, 0
1, 1359521, Note_on_c, 0, 91, 0
1, 1359523, Note_on_c, 0, 88, 74
1, 1359545, Note_on_c, 0, 43, 0
1, 1359578, Note_on_c, 0, 88, 0
1, 1359622, Note_on_c, 0, 84, 71
1, 1359653, Note_on_c, 0, 84, 0
1, 1359733, Note_on_c, 0, 60, 66
1, 1359733, Note_on_c, 0, 48, 69
1, 1359743, Note_on_c, 0, 76, 62
1, 1359764, Note_on_c, 0, 76, 0
1, 1359786, Note_on_c, 0, 60, 0
1, 1359950, Note_on_c, 0, 43, 75
1, 1359974, Control_c, 0, 64, 83
1, 1359983, Note_on_c, 0, 48, 0
1, 1359984, Note_on_c, 0, 55, 80
1, 1359992, Control_c, 0, 64, 34
1, 1359995, Note_on_c, 0, 97, 94
1, 1360011, Control_c, 0, 64, 0
1, 1360047, Poly_aftertouch_c, 0, 87, 0
1, 1360085, Control_c, 0, 64, 32
1, 1360104, Control_c, 0, 64, 57
1, 1360106, Note_on_c, 0, 94, 84
1, 1360122, Control_c, 0, 64, 84
1, 1360139, Control_c, 0, 64, 109
1, 1360159, Control_c, 0, 64, 127
1, 1360171, Note_on_c, 0, 43, 0
1, 1360185, Note_on_c, 0, 97, 0
1, 1360212, Note_on_c, 0, 87, 85
1, 1360236, Note_on_c, 0, 55, 0
1, 1360249, Note_on_c, 0, 94, 0
1, 1360291, Note_on_c, 0, 87, 0
1, 1360327, Note_on_c, 0, 85, 69
1, 1360344, Note_on_c, 0, 85, 0
1, 1360420, Note_on_c, 0, 49, 65
1, 1360422, Note_on_c, 0, 75, 83
1, 1360428, Note_on_c, 0, 61, 81
1, 1360445, Note_on_c, 0, 75, 0
1, 1360478, Note_on_c, 0, 61, 0
1, 1360615, Note_on_c, 0, 49, 0
1, 1360636, Note_on_c, 0, 43, 80
1, 1360651, Control_c, 0, 64, 88
1, 1360662, Note_on_c, 0, 55, 89
1, 1360670, Control_c, 0, 64, 38
1, 1360672, Note_on_c, 0, 98, 97
1, 1360674, Poly_aftertouch_c, 0, 48, 0
1, 1360687, Control_c, 0, 64, 0
1, 1360742, Control_c, 0, 64, 37
1, 1360746, Note_on_c, 0, 43, 0
1, 1360761, Control_c, 0, 64, 65
1, 1360763, Poly_aftertouch_c, 0, 89, 0
1, 1360764, Poly_aftertouch_c, 0, 50, 0
1, 1360770, Note_on_c, 0, 95, 91
1, 1360773, Note_on_c, 0, 55, 0
1, 1360779, Control_c, 0, 64, 95
1, 1360798, Control_c, 0, 64, 127
1, 1360805, Note_on_c, 0, 98, 0
1, 1360884, Note_on_c, 0, 89, 81
1, 1360921, Note_on_c, 0, 95, 0
1, 1360961, Note_on_c, 0, 89, 0
1, 1360987, Note_on_c, 0, 86, 82
1, 1361027, Note_on_c, 0, 86, 0
1, 1361082, Note_on_c, 0, 62, 81
1, 1361087, Note_on_c, 0, 50, 73
1, 1361097, Note_on_c, 0, 74, 78
1, 1361120, Note_on_c, 0, 62, 0
1, 1361127, Note_on_c, 0, 50, 0
1, 1361137, Note_on_c, 0, 74, 0
1, 1361308, Control_c, 0, 64, 119
1, 1361326, Control_c, 0, 64, 71
1, 1361336, Poly_aftertouch_c, 0, 49, 0
1, 1361344, Control_c, 0, 64, 0
1, 1361350, Note_on_c, 0, 55, 102
1, 1361352, Note_on_c, 0, 43, 87
1, 1361385, Note_on_c, 0, 101, 80
1, 1361404, Note_on_c, 0, 103, 47
1, 1361405, Note_on_c, 0, 103, 0
1, 1361415, Note_on_c, 0, 43, 0
1, 1361419, Control_c, 0, 64, 32
1, 1361437, Control_c, 0, 64, 75
1, 1361441, Note_on_c, 0, 55, 0
1, 1361455, Control_c, 0, 64, 113
1, 1361473, Control_c, 0, 64, 127
1, 1361478, Note_on_c, 0, 95, 71
1, 1361522, Note_on_c, 0, 101, 0
1, 1361585, Note_on_c, 0, 92, 78
1, 1361616, Note_on_c, 0, 95, 0
1, 1361677, Note_on_c, 0, 92, 0
1, 1361695, Note_on_c, 0, 89, 76
1, 1361747, Note_on_c, 0, 89, 0
1, 1361821, Note_on_c, 0, 68, 92
1, 1361827, Note_on_c, 0, 56, 83
1, 1362082, Note_on_c, 0, 100, 83
1, 1362133, Control_c, 0, 64, 86
1, 1362152, Control_c, 0, 64, 42
1, 1362171, Control_c, 0, 64, 0
1, 1362178, Note_on_c, 0, 96, 77
1, 1362199, Note_on_c, 0, 100, 0
1, 1362262, Control_c, 0, 64, 37
1, 1362281, Control_c, 0, 64, 63
1, 1362292, Note_on_c, 0, 91, 73
1, 1362296, Note_on_c, 0, 96, 0
1, 1362300, Control_c, 0, 64, 88
1, 1362318, Control_c, 0, 64, 110
1, 1362337, Control_c, 0, 64, 127
1, 1362347, Note_on_c, 0, 68, 0
1, 1362360, Note_on_c, 0, 91, 0
1, 1362390, Note_on_c, 0, 88, 73
1, 1362493, Note_on_c, 0, 55, 66
1, 1362494, Note_on_c, 0, 88, 0
1, 1362496, Note_on_c, 0, 67, 60
1, 1362499, Note_on_c, 0, 84, 73
1, 1362519, Note_on_c, 0, 56, 0
1, 1362523, Note_on_c, 0, 67, 0
1, 1362525, Note_on_c, 0, 55, 0
1, 1362532, Note_on_c, 0, 84, 0
1, 1362708, Control_c, 0, 64, 117
1, 1362726, Control_c, 0, 64, 70
1, 1362742, Control_c, 0, 64, 0
1, 1362744, Note_on_c, 0, 43, 76
1, 1362750, Note_on_c, 0, 99, 83
1, 1362751, Note_on_c, 0, 55, 74
1, 1362790, Note_on_c, 0, 43, 0
1, 1362790, Note_on_c, 0, 55, 0
1, 1362818, Control_c, 0, 64, 21
1, 1362863, Note_on_c, 0, 96, 80
1, 1362892, Control_c, 0, 64, 13
1, 1362902, Note_on_c, 0, 99, 0
1, 1362912, Control_c, 0, 64, 0
1, 1362947, Control_c, 0, 64, 21
1, 1362965, Control_c, 0, 64, 48
1, 1362968, Note_on_c, 0, 90, 73
1, 1362993, Control_c, 0, 64, 78
1, 1363012, Control_c, 0, 64, 106
1, 1363019, Note_on_c, 0, 96, 0
1, 1363031, Control_c, 0, 64, 127
1, 1363066, Note_on_c, 0, 90, 0
1, 1363070, Note_on_c, 0, 87, 80
1, 1363122, Note_on_c, 0, 87, 0
1, 1363189, Note_on_c, 0, 54, 78
1, 1363193, Note_on_c, 0, 66, 85
1, 1363204, Note_on_c, 0, 81, 67
1, 1363234, Note_on_c, 0, 81, 0
1, 1363438, Note_on_c, 0, 98, 79
1, 1363493, Control_c, 0, 64, 91
1, 1363513, Control_c, 0, 64, 48
1, 1363531, Control_c, 0, 64, 0
1, 1363542, Note_on_c, 0, 95, 72
1, 1363548, Control_c, 0, 67, 8
1, 1363567, Control_c, 0, 67, 14
1, 1363574, Note_on_c, 0, 98, 0
1, 1363587, Control_c, 0, 64, 29
1, 1363588, Control_c, 0, 67, 22
1, 1363605, Control_c, 0, 64, 51
1, 1363606, Control_c, 0, 67, 30
1, 1363625, Control_c, 0, 64, 76
1, 1363626, Control_c, 0, 67, 38
1, 1363642, Note_on_c, 0, 92, 77
1, 1363644, Control_c, 0, 64, 97
1, 1363647, Control_c, 0, 67, 45
1, 1363648, Poly_aftertouch_c, 0, 96, 0
1, 1363653, Note_on_c, 0, 95, 0
1, 1363662, Control_c, 0, 64, 121
1, 1363663, Control_c, 0, 67, 51
1, 1363678, Control_c, 0, 64, 127
1, 1363680, Control_c, 0, 67, 57
1, 1363697, Control_c, 0, 67, 62
1, 1363716, Control_c, 0, 67, 67
1, 1363717, Note_on_c, 0, 92, 0
1, 1363735, Control_c, 0, 67, 72
1, 1363750, Note_on_c, 0, 86, 70
1, 1363754, Control_c, 0, 67, 78
1, 1363762, Note_on_c, 0, 66, 0
1, 1363772, Control_c, 0, 67, 82
1, 1363801, Note_on_c, 0, 86, 0
1, 1363810, Control_c, 0, 67, 88
1, 1363846, Control_c, 0, 67, 94
1, 1363853, Note_on_c, 0, 53, 56
1, 1363859, Note_on_c, 0, 65, 59
1, 1363863, Control_c, 0, 67, 98
1, 1363864, Note_on_c, 0, 54, 0
1, 1363881, Control_c, 0, 67, 102
1, 1363882, Note_on_c, 0, 83, 44
1, 1363887, Note_on_c, 0, 53, 0
1, 1363892, Note_on_c, 0, 65, 0
1, 1363914, Note_on_c, 0, 83, 0
1, 1363927, Control_c, 0, 67, 107
1, 1363974, Poly_aftertouch_c, 0, 81, 0
1, 1364022, Control_c, 0, 67, 111
1, 1364058, Control_c, 0, 67, 116
1, 1364077, Control_c, 0, 67, 121
1, 1364098, Control_c, 0, 64, 98
1, 1364099, Control_c, 0, 67, 126
1, 1364115, Control_c, 0, 64, 64
1, 1364128, Note_on_c, 0, 55, 74
1, 1364134, Control_c, 0, 64, 32
1, 1364134, Note_on_c, 0, 43, 63
1, 1364139, Note_on_c, 0, 96, 73
1, 1364152, Control_c, 0, 64, 19
1, 1364170, Control_c, 0, 64, 9
1, 1364174, Note_on_c, 0, 43, 0
1, 1364175, Note_on_c, 0, 55, 0
1, 1364189, Control_c, 0, 64, 0
1, 1364238, Note_on_c, 0, 96, 0
1, 1364249, Note_on_c, 0, 91, 62
1, 1364318, Control_c, 0, 64, 28
1, 1364337, Note_on_c, 0, 91, 0
1, 1364337, Control_c, 0, 64, 50
1, 1364350, Note_on_c, 0, 88, 66
1, 1364356, Control_c, 0, 64, 72
1, 1364374, Control_c, 0, 64, 87
1, 1364394, Control_c, 0, 64, 105
1, 1364400, Note_on_c, 0, 88, 0
1, 1364411, Control_c, 0, 64, 120
1, 1364428, Control_c, 0, 64, 127
1, 1364445, Note_on_c, 0, 84, 68
1, 1364506, Note_on_c, 0, 84, 0
1, 1364570, Note_on_c, 0, 79, 65
1, 1364583, Note_on_c, 0, 64, 73
1, 1364588, Note_on_c, 0, 52, 68
1, 1364602, Note_on_c, 0, 79, 0
1, 1364827, Note_on_c, 0, 93, 74
1, 1364865, Control_c, 0, 64, 100
1, 1364883, Control_c, 0, 64, 61
1, 1364903, Control_c, 0, 64, 18
1, 1364921, Control_c, 0, 64, 13
1, 1364938, Control_c, 0, 64, 20
1, 1364940, Note_on_c, 0, 93, 0
1, 1364941, Note_on_c, 0, 90, 69
1, 1364959, Control_c, 0, 64, 37
1, 1364977, Control_c, 0, 64, 57
1, 1364994, Control_c, 0, 64, 78
1, 1365013, Control_c, 0, 64, 93
1, 1365026, Note_on_c, 0, 64, 0
1, 1365030, Control_c, 0, 64, 109
1, 1365038, Note_on_c, 0, 90, 0
1, 1365045, Note_on_c, 0, 84, 67
1, 1365050, Control_c, 0, 64, 120
1, 1365069, Control_c, 0, 64, 126
1, 1365106, Note_on_c, 0, 84, 0
1, 1365148, Note_on_c, 0, 81, 64
1, 1365246, Note_on_c, 0, 52, 0
1, 1365249, Note_on_c, 0, 81, 0
1, 1365260, Note_on_c, 0, 78, 67
1, 1365261, Note_on_c, 0, 63, 62
1, 1365263, Note_on_c, 0, 51, 61
1, 1365293, Note_on_c, 0, 63, 0
1, 1365294, Note_on_c, 0, 78, 0
1, 1365303, Note_on_c, 0, 51, 0
1, 1365495, Control_c, 0, 64, 113
1, 1365514, Note_on_c, 0, 90, 69
1, 1365514, Control_c, 0, 64, 86
1, 1365534, Control_c, 0, 64, 57
1, 1365534, Note_on_c, 0, 55, 61
1, 1365538, Note_on_c, 0, 43, 52
1, 1365550, Control_c, 0, 64, 36
1, 1365569, Control_c, 0, 64, 32
1, 1365570, Note_on_c, 0, 55, 0
1, 1365576, Note_on_c, 0, 43, 0
1, 1365605, Control_c, 0, 64, 28
1, 1365605, Note_on_c, 0, 87, 62
1, 1365625, Note_on_c, 0, 90, 0
1, 1365643, Control_c, 0, 64, 24
1, 1365707, Note_on_c, 0, 81, 53
1, 1365723, Note_on_c, 0, 87, 0
1, 1365776, Note_on_c, 0, 81, 0
1, 1365825, Note_on_c, 0, 78, 62
1, 1365938, Note_on_c, 0, 78, 0
1, 1365962, Note_on_c, 0, 75, 53
1, 1365980, Note_on_c, 0, 60, 63
1, 1365988, Note_on_c, 0, 48, 55
1, 1366006, Note_on_c, 0, 75, 0
1, 1366152, Control_c, 0, 64, 19
1, 1366192, Note_on_c, 0, 87, 52
1, 1366246, Control_c, 0, 64, 29
1, 1366264, Control_c, 0, 64, 42
1, 1366283, Control_c, 0, 64, 57
1, 1366300, Note_on_c, 0, 84, 63
1, 1366300, Control_c, 0, 64, 72
1, 1366305, Note_on_c, 0, 87, 0
1, 1366315, Note_on_c, 0, 60, 0
1, 1366318, Control_c, 0, 64, 79
1, 1366337, Control_c, 0, 64, 88
1, 1366356, Control_c, 0, 64, 96
1, 1366374, Control_c, 0, 64, 105
1, 1366394, Control_c, 0, 64, 113
1, 1366400, Note_on_c, 0, 84, 0
1, 1366413, Control_c, 0, 64, 118
1, 1366415, Note_on_c, 0, 78, 55
1, 1366450, Control_c, 0, 64, 125
1, 1366464, Note_on_c, 0, 78, 0
1, 1366494, Note_on_c, 0, 75, 65
1, 1366541, Note_on_c, 0, 75, 0
1, 1366618, Note_on_c, 0, 72, 63
1, 1366625, Note_on_c, 0, 57, 54
1, 1366638, Note_on_c, 0, 45, 55
1, 1366659, Note_on_c, 0, 72, 0
1, 1366701, Note_on_c, 0, 48, 0
1, 1366720, Note_on_c, 0, 57, 0
1, 1366849, Control_c, 0, 64, 113
1, 1366866, Control_c, 0, 64, 91
1, 1366884, Control_c, 0, 64, 67
1, 1366902, Control_c, 0, 64, 47
1, 1366920, Note_on_c, 0, 45, 0
1, 1366921, Note_on_c, 0, 43, 56
1, 1366922, Control_c, 0, 64, 41
1, 1366923, Note_on_c, 0, 55, 60
1, 1366931, Note_on_c, 0, 83, 65
1, 1366983, Note_on_c, 0, 55, 0
1, 1366991, Note_on_c, 0, 43, 0
1, 1366996, Control_c, 0, 64, 37
1, 1367012, Note_on_c, 0, 83, 0
1, 1367033, Note_on_c, 0, 79, 62
1, 1367093, Note_on_c, 0, 79, 0
1, 1367111, Note_on_c, 0, 74, 63
1, 1367160, Note_on_c, 0, 74, 0
1, 1367201, Control_c, 0, 64, 33
1, 1367222, Note_on_c, 0, 71, 59
1, 1367271, Note_on_c, 0, 71, 0
1, 1367320, Note_on_c, 0, 67, 66
1, 1367353, Note_on_c, 0, 67, 0
1, 1367570, Note_on_c, 0, 43, 60
1, 1367603, Note_on_c, 0, 43, 0
1, 1367921, Note_on_c, 0, 44, 51
1, 1367974, Note_on_c, 0, 44, 0
1, 1368033, Note_on_c, 0, 43, 57
1, 1368067, Note_on_c, 0, 43, 0
1, 1368285, Note_on_c, 0, 71, 49
1, 1368342, Note_on_c, 0, 71, 0
1, 1368373, Note_on_c, 0, 67, 56
1, 1368426, Note_on_c, 0, 67, 0
1, 1368479, Note_on_c, 0, 62, 56
1, 1368529, Note_on_c, 0, 62, 0
1, 1368583, Note_on_c, 0, 59, 53
1, 1368633, Note_on_c, 0, 59, 0
1, 1368694, Note_on_c, 0, 55, 56
1, 1368726, Note_on_c, 0, 55, 0
1, 1368942, Note_on_c, 0, 43, 65
1, 1368979, Note_on_c, 0, 43, 0
1, 1369294, Note_on_c, 0, 44, 53
1, 1369331, Note_on_c, 0, 44, 0
1, 1369403, Note_on_c, 0, 43, 58
1, 1369438, Note_on_c, 0, 43, 0
1, 1369997, Note_on_c, 0, 44, 43
1, 1370003, Note_on_c, 0, 56, 54
1, 1370037, Note_on_c, 0, 44, 0
1, 1370037, Note_on_c, 0, 56, 0
1, 1370080, Control_c, 0, 67, 121
1, 1370099, Note_on_c, 0, 43, 60
1, 1370115, Note_on_c, 0, 55, 60
1, 1370117, Control_c, 0, 67, 113
1, 1370137, Control_c, 0, 67, 105
1, 1370138, Note_on_c, 0, 43, 0
1, 1370144, Note_on_c, 0, 55, 0
1, 1370153, Control_c, 0, 67, 93
1, 1370172, Control_c, 0, 67, 78
1, 1370190, Control_c, 0, 67, 62
1, 1370209, Control_c, 0, 67, 46
1, 1370228, Control_c, 0, 67, 32
1, 1370246, Control_c, 0, 67, 19
1, 1370265, Control_c, 0, 67, 8
1, 1370303, Control_c, 0, 67, 0
1, 1370572, Control_c, 0, 67, 9
1, 1370590, Control_c, 0, 67, 13
1, 1370608, Control_c, 0, 67, 19
1, 1370627, Control_c, 0, 67, 28
1, 1370645, Control_c, 0, 67, 41
1, 1370663, Control_c, 0, 64, 29
1, 1370664, Control_c, 0, 67, 55
1, 1370683, Control_c, 0, 67, 67
1, 1370701, Control_c, 0, 67, 78
1, 1370719, Control_c, 0, 67, 89
1, 1370737, Control_c, 0, 67, 99
1, 1370755, Control_c, 0, 67, 107
1, 1370773, Control_c, 0, 67, 113
1, 1370778, Note_on_c, 0, 44, 41
1, 1370779, Note_on_c, 0, 56, 39
1, 1370811, Control_c, 0, 67, 117
1, 1370813, Note_on_c, 0, 56, 0
1, 1370822, Note_on_c, 0, 44, 0
1, 1370848, Control_c, 0, 67, 122
1, 1370886, Control_c, 0, 67, 127
1, 1370909, Note_on_c, 0, 55, 50
1, 1370910, Note_on_c, 0, 43, 38
1, 1370947, Note_on_c, 0, 55, 0
1, 1370957, Note_on_c, 0, 43, 0
1, 1371367, Control_c, 0, 67, 122
1, 1371404, Control_c, 0, 67, 117
1, 1371453, Control_c, 0, 67, 112
1, 1371505, Control_c, 0, 67, 106
1, 1371524, Control_c, 0, 67, 100
1, 1371543, Control_c, 0, 67, 92
1, 1371562, Control_c, 0, 67, 80
1, 1371580, Control_c, 0, 67, 66
1, 1371600, Control_c, 0, 67, 50
1, 1371618, Control_c, 0, 67, 36
1, 1371637, Control_c, 0, 67, 23
1, 1371656, Control_c, 0, 67, 13
1, 1371794, Note_on_c, 0, 44, 35
1, 1371806, Note_on_c, 0, 56, 27
1, 1371837, Note_on_c, 0, 56, 0
1, 1371853, Note_on_c, 0, 44, 0
1, 1371932, Control_c, 0, 67, 0
1, 1372072, Note_on_c, 0, 43, 45
1, 1372080, Note_on_c, 0, 55, 42
1, 1372116, Note_on_c, 0, 43, 0
1, 1372119, Note_on_c, 0, 55, 0
1, 1372520, Note_on_c, 0, 44, 71
1, 1372555, Note_on_c, 0, 44, 0
1, 1372686, Note_on_c, 0, 68, 54
1, 1372687, Note_on_c, 0, 56, 55
1, 1372717, Note_on_c, 0, 68, 0
1, 1372723, Note_on_c, 0, 56, 0
1, 1372793, Note_on_c, 0, 43, 87
1, 1372850, Note_on_c, 0, 43, 0
1, 1372921, Note_on_c, 0, 55, 78
1, 1372930, Note_on_c, 0, 67, 68
1, 1372953, Note_on_c, 0, 67, 0
1, 1372957, Note_on_c, 0, 55, 0
1, 1373005, Note_on_c, 0, 41, 89
1, 1373046, Note_on_c, 0, 41, 0
1, 1373070, Note_on_c, 0, 65, 86
1, 1373080, Note_on_c, 0, 53, 52
1, 1373103, Note_on_c, 0, 65, 0
1, 1373116, Note_on_c, 0, 53, 0
1, 1373316, Note_on_c, 0, 40, 69
1, 1373321, Control_c, 0, 64, 48
1, 1373342, Control_c, 0, 64, 71
1, 1373343, Note_on_c, 0, 52, 106
1, 1373350, Note_on_c, 0, 82, 84
1, 1373352, Note_on_c, 0, 73, 100
1, 1373352, Note_on_c, 0, 79, 83
1, 1373354, Note_on_c, 0, 85, 98
1, 1373358, Control_c, 0, 64, 93
1, 1373377, Control_c, 0, 64, 124
1, 1373386, Note_on_c, 0, 40, 0
1, 1373395, Note_on_c, 0, 52, 0
1, 1373398, Note_on_c, 0, 44, 25
1, 1373410, Note_on_c, 0, 73, 0
1, 1373410, Note_on_c, 0, 85, 0
1, 1373419, Note_on_c, 0, 79, 0
1, 1373428, Note_on_c, 0, 82, 0
1, 1373454, Note_on_c, 0, 44, 0
1, 1373491, Poly_aftertouch_c, 0, 47, 0
1, 1373679, Note_on_c, 0, 52, 77
1, 1373682, Note_on_c, 0, 58, 77
1, 1373692, Note_on_c, 0, 61, 83
1, 1373757, Note_on_c, 0, 52, 0
1, 1373791, Note_on_c, 0, 84, 100
1, 1373793, Note_on_c, 0, 72, 98
1, 1373830, Note_on_c, 0, 84, 0
1, 1373834, Note_on_c, 0, 72, 0
1, 1373848, Note_on_c, 0, 67, 88
1, 1373874, Note_on_c, 0, 67, 0
1, 1373885, Note_on_c, 0, 61, 0
1, 1373892, Note_on_c, 0, 70, 99
1, 1373895, Note_on_c, 0, 58, 0
1, 1373896, Note_on_c, 0, 82, 94
1, 1373924, Note_on_c, 0, 83, 44
1, 1373957, Note_on_c, 0, 83, 0
1, 1374032, Note_on_c, 0, 49, 38
1, 1374045, Control_c, 0, 64, 76
1, 1374047, Note_on_c, 0, 46, 19
1, 1374063, Control_c, 0, 64, 0
1, 1374076, Note_on_c, 0, 49, 0
1, 1374078, Note_on_c, 0, 82, 0
1, 1374082, Note_on_c, 0, 70, 0
1, 1374087, Note_on_c, 0, 46, 0
1, 1374096, Note_on_c, 0, 53, 103
1, 1374099, Note_on_c, 0, 41, 89
1, 1374118, Control_c, 0, 64, 50
1, 1374136, Control_c, 0, 64, 99
1, 1374137, Note_on_c, 0, 41, 0
1, 1374151, Note_on_c, 0, 53, 0
1, 1374155, Control_c, 0, 64, 127
1, 1374194, Note_on_c, 0, 68, 82
1, 1374196, Note_on_c, 0, 80, 88
1, 1374242, Note_on_c, 0, 68, 0
1, 1374251, Poly_aftertouch_c, 0, 45, 0
1, 1374258, Note_on_c, 0, 80, 0
1, 1374294, Control_c, 0, 64, 111
1, 1374302, Note_on_c, 0, 53, 89
1, 1374303, Note_on_c, 0, 60, 99
1, 1374310, Note_on_c, 0, 56, 86
1, 1374310, Note_on_c, 0, 67, 98
1, 1374312, Control_c, 0, 64, 73
1, 1374315, Note_on_c, 0, 79, 97
1, 1374331, Control_c, 0, 64, 40
1, 1374332, Note_on_c, 0, 60, 0
1, 1374336, Note_on_c, 0, 56, 0
1, 1374340, Note_on_c, 0, 53, 0
1, 1374350, Note_on_c, 0, 79, 0
1, 1374350, Note_on_c, 0, 67, 0
1, 1374350, Control_c, 0, 64, 28
1, 1374369, Control_c, 0, 64, 24
1, 1374387, Control_c, 0, 64, 14
1, 1374405, Control_c, 0, 64, 9
1, 1374563, Note_on_c, 0, 60, 97
1, 1374573, Control_c, 0, 64, 29
1, 1374579, Note_on_c, 0, 65, 105
1, 1374579, Note_on_c, 0, 77, 101
1, 1374591, Control_c, 0, 64, 64
1, 1374610, Control_c, 0, 64, 97
1, 1374622, Note_on_c, 0, 77, 0
1, 1374627, Note_on_c, 0, 65, 0
1, 1374627, Control_c, 0, 64, 127
1, 1374633, Note_on_c, 0, 60, 0
1, 1374700, Note_on_c, 0, 49, 82
1, 1374733, Note_on_c, 0, 52, 52
1, 1374804, Note_on_c, 0, 61, 103
1, 1374823, Note_on_c, 0, 55, 29
1, 1374824, Note_on_c, 0, 64, 104
1, 1374824, Note_on_c, 0, 76, 96
1, 1374826, Note_on_c, 0, 67, 98
1, 1374834, Note_on_c, 0, 73, 91
1, 1374850, Control_c, 0, 67, 14
1, 1374870, Control_c, 0, 64, 90
1, 1374872, Note_on_c, 0, 52, 0
1, 1374872, Note_on_c, 0, 55, 0
1, 1374872, Note_on_c, 0, 61, 0
1, 1374872, Control_c, 0, 67, 24
1, 1374875, Note_on_c, 0, 64, 0
1, 1374877, Note_on_c, 0, 49, 0
1, 1374887, Control_c, 0, 64, 55
1, 1374889, Note_on_c, 0, 67, 0
1, 1374890, Control_c, 0, 67, 31
1, 1374897, Note_on_c, 0, 73, 0
1, 1374900, Note_on_c, 0, 76, 0
1, 1374906, Control_c, 0, 64, 36
1, 1374961, Control_c, 0, 67, 25
1, 1374981, Control_c, 0, 67, 21
1, 1374998, Control_c, 0, 67, 17
1, 1375086, Note_on_c, 0, 65, 99
1, 1375089, Note_on_c, 0, 77, 102
1, 1375089, Control_c, 0, 67, 12
1, 1375129, Note_on_c, 0, 77, 0
1, 1375133, Note_on_c, 0, 65, 0
1, 1375147, Control_c, 0, 64, 29
1, 1375175, Control_c, 0, 64, 23
1, 1375187, Note_on_c, 0, 60, 98
1, 1375195, Control_c, 0, 64, 19
1, 1375196, Control_c, 0, 67, 8
1, 1375202, Note_on_c, 0, 48, 81
1, 1375222, Note_on_c, 0, 60, 0
1, 1375233, Note_on_c, 0, 48, 0
1, 1375247, Control_c, 0, 64, 30
1, 1375267, Control_c, 0, 64, 55
1, 1375285, Control_c, 0, 64, 85
1, 1375301, Note_on_c, 0, 58, 96
1, 1375302, Note_on_c, 0, 67, 102
1, 1375305, Control_c, 0, 64, 125
1, 1375307, Note_on_c, 0, 79, 96
1, 1375309, Note_on_c, 0, 46, 95
1, 1375326, Note_on_c, 0, 79, 0
1, 1375342, Note_on_c, 0, 67, 0
1, 1375513, Note_on_c, 0, 58, 0
1, 1375537, Note_on_c, 0, 46, 0
1, 1375564, Control_c, 0, 67, 0
1, 1375568, Note_on_c, 0, 60, 98
1, 1375568, Note_on_c, 0, 72, 92
1, 1375574, Note_on_c, 0, 65, 91
1, 1375638, Control_c, 0, 64, 109
1, 1375656, Control_c, 0, 64, 78
1, 1375674, Control_c, 0, 64, 50
1, 1375680, Note_on_c, 0, 54, 82
1, 1375685, Note_on_c, 0, 44, 86
1, 1375685, Note_on_c, 0, 56, 75
1, 1375693, Control_c, 0, 64, 38
1, 1375713, Note_on_c, 0, 54, 0
1, 1375715, Note_on_c, 0, 44, 0
1, 1375715, Note_on_c, 0, 56, 0
1, 1375780, Note_on_c, 0, 43, 80
1, 1375786, Note_on_c, 0, 55, 51
1, 1375826, Note_on_c, 0, 43, 0
1, 1375829, Note_on_c, 0, 55, 0
1, 1375844, Poly_aftertouch_c, 0, 44, 0
1, 1375970, Note_on_c, 0, 65, 0
1, 1376019, Note_on_c, 0, 60, 0
1, 1376051, Note_on_c, 0, 53, 101
1, 1376054, Note_on_c, 0, 72, 0
1, 1376066, Note_on_c, 0, 41, 81
1, 1376074, Note_on_c, 0, 53, 0
1, 1376110, Note_on_c, 0, 41, 0
1, 1376171, Note_on_c, 0, 72, 75
1, 1376204, Control_c, 0, 64, 34
1, 1376234, Note_on_c, 0, 74, 81
1, 1376258, Note_on_c, 0, 72, 0
1, 1376296, Control_c, 0, 64, 46
1, 1376311, Note_on_c, 0, 76, 63
1, 1376314, Control_c, 0, 64, 84
1, 1376330, Note_on_c, 0, 74, 0
1, 1376335, Control_c, 0, 64, 127
1, 1376350, Note_on_c, 0, 77, 105
1, 1376350, Note_on_c, 0, 51, 104
1, 1376351, Note_on_c, 0, 65, 100
1, 1376354, Note_on_c, 0, 39, 89
1, 1376368, Note_on_c, 0, 79, 83
1, 1376373, Note_on_c, 0, 79, 0
1, 1376390, Note_on_c, 0, 39, 0
1, 1376393, Note_on_c, 0, 65, 0
1, 1376393, Note_on_c, 0, 51, 0
1, 1376407, Note_on_c, 0, 77, 0
1, 1376411, Note_on_c, 0, 76, 0
1, 1376444, Control_c, 0, 64, 122
1, 1376462, Control_c, 0, 64, 83
1, 1376469, Note_on_c, 0, 79, 21
1, 1376482, Control_c, 0, 64, 47
1, 1376499, Control_c, 0, 64, 25
1, 1376519, Note_on_c, 0, 79, 0
1, 1376635, Note_on_c, 0, 57, 75
1, 1376636, Note_on_c, 0, 51, 68
1, 1376658, Note_on_c, 0, 53, 44
1, 1376694, Note_on_c, 0, 53, 0
1, 1376701, Note_on_c, 0, 51, 0
1, 1376702, Note_on_c, 0, 57, 0
1, 1376729, Note_on_c, 0, 76, 90
1, 1376730, Note_on_c, 0, 64, 84
1, 1376760, Note_on_c, 0, 64, 0
1, 1376764, Note_on_c, 0, 76, 0
1, 1376818, Note_on_c, 0, 53, 60
1, 1376823, Note_on_c, 0, 60, 65
1, 1376832, Note_on_c, 0, 57, 56
1, 1376846, Note_on_c, 0, 77, 86
1, 1376850, Note_on_c, 0, 65, 82
1, 1376852, Note_on_c, 0, 60, 0
1, 1376862, Note_on_c, 0, 57, 0
1, 1376870, Control_c, 0, 64, 19
1, 1376889, Control_c, 0, 64, 14
1, 1376893, Note_on_c, 0, 53, 0
1, 1376905, Control_c, 0, 64, 9
1, 1376926, Control_c, 0, 64, 0
1, 1376998, Note_on_c, 0, 65, 0
1, 1376999, Control_c, 0, 64, 26
1, 1377018, Control_c, 0, 64, 51
1, 1377046, Control_c, 0, 64, 78
1, 1377065, Control_c, 0, 64, 109
1, 1377070, Note_on_c, 0, 77, 0
1, 1377079, Note_on_c, 0, 49, 86
1, 1377083, Control_c, 0, 64, 127
1, 1377087, Note_on_c, 0, 37, 78
1, 1377112, Note_on_c, 0, 49, 0
1, 1377116, Note_on_c, 0, 37, 0
1, 1377154, Note_on_c, 0, 80, 88
1, 1377159, Note_on_c, 0, 68, 75
1, 1377181, Note_on_c, 0, 80, 0
1, 1377183, Note_on_c, 0, 68, 0
1, 1377231, Control_c, 0, 64, 90
1, 1377250, Control_c, 0, 64, 55
1, 1377269, Control_c, 0, 64, 25
1, 1377275, Note_on_c, 0, 65, 88
1, 1377276, Note_on_c, 0, 77, 92
1, 1377276, Note_on_c, 0, 61, 77
1, 1377286, Control_c, 0, 64, 20
1, 1377288, Note_on_c, 0, 53, 56
1, 1377294, Note_on_c, 0, 52, 48
1, 1377300, Note_on_c, 0, 77, 0
1, 1377302, Note_on_c, 0, 58, 37
1, 1377303, Note_on_c, 0, 65, 0
1, 1377308, Note_on_c, 0, 61, 0
1, 1377311, Note_on_c, 0, 58, 0
1, 1377320, Note_on_c, 0, 53, 0
1, 1377323, Control_c, 0, 64, 13
1, 1377332, Note_on_c, 0, 52, 0
1, 1377539, Note_on_c, 0, 61, 74
1, 1377540, Note_on_c, 0, 58, 77
1, 1377554, Note_on_c, 0, 78, 81
1, 1377563, Note_on_c, 0, 66, 65
1, 1377569, Note_on_c, 0, 58, 0
1, 1377571, Note_on_c, 0, 61, 0
1, 1377588, Note_on_c, 0, 66, 0
1, 1377601, Note_on_c, 0, 78, 0
1, 1377712, Control_c, 0, 64, 25
1, 1377732, Control_c, 0, 64, 48
1, 1377748, Control_c, 0, 64, 74
1, 1377756, Note_on_c, 0, 36, 81
1, 1377761, Note_on_c, 0, 48, 87
1, 1377767, Control_c, 0, 64, 104
1, 1377787, Control_c, 0, 64, 127
1, 1377796, Note_on_c, 0, 36, 0
1, 1377815, Note_on_c, 0, 48, 0
1, 1377838, Note_on_c, 0, 70, 92
1, 1377839, Note_on_c, 0, 82, 92
1, 1377878, Note_on_c, 0, 70, 0
1, 1377886, Note_on_c, 0, 82, 0
1, 1377931, Note_on_c, 0, 63, 95
1, 1377934, Control_c, 0, 64, 117
1, 1377938, Note_on_c, 0, 60, 77
1, 1377942, Note_on_c, 0, 80, 87
1, 1377944, Note_on_c, 0, 68, 102
1, 1377954, Control_c, 0, 64, 81
1, 1377957, Note_on_c, 0, 63, 0
1, 1377980, Note_on_c, 0, 60, 0
1, 1377981, Control_c, 0, 64, 51
1, 1377989, Note_on_c, 0, 58, 21
1, 1377992, Note_on_c, 0, 78, 44
1, 1377995, Note_on_c, 0, 58, 0
1, 1377997, Note_on_c, 0, 68, 0
1, 1378000, Control_c, 0, 64, 39
1, 1378011, Note_on_c, 0, 80, 0
1, 1378025, Note_on_c, 0, 78, 0
1, 1378175, Note_on_c, 0, 63, 84
1, 1378184, Note_on_c, 0, 65, 72
1, 1378191, Note_on_c, 0, 60, 63
1, 1378193, Note_on_c, 0, 69, 101
1, 1378194, Note_on_c, 0, 81, 102
1, 1378202, Note_on_c, 0, 63, 0
1, 1378215, Note_on_c, 0, 65, 0
1, 1378222, Note_on_c, 0, 60, 0
1, 1378227, Note_on_c, 0, 69, 0
1, 1378234, Note_on_c, 0, 81, 0
1, 1378405, Note_on_c, 0, 39, 52
1, 1378451, Note_on_c, 0, 39, 0
1, 1378464, Control_c, 0, 64, 35
1, 1378474, Note_on_c, 0, 34, 83
1, 1378476, Note_on_c, 0, 46, 98
1, 1378484, Note_on_c, 0, 72, 105
1, 1378485, Note_on_c, 0, 84, 103
1, 1378504, Note_on_c, 0, 34, 0
1, 1378508, Note_on_c, 0, 46, 0
1, 1378517, Note_on_c, 0, 72, 0
1, 1378521, Note_on_c, 0, 84, 0
1, 1378629, Control_c, 0, 64, 31
1, 1378742, Control_c, 0, 64, 44
1, 1378760, Control_c, 0, 64, 65
1, 1378768, Note_on_c, 0, 53, 77
1, 1378770, Note_on_c, 0, 58, 75
1, 1378772, Note_on_c, 0, 61, 78
1, 1378775, Note_on_c, 0, 70, 97
1, 1378775, Note_on_c, 0, 82, 93
1, 1378776, Control_c, 0, 64, 87
1, 1378797, Control_c, 0, 64, 121
1, 1378815, Control_c, 0, 64, 127
1, 1378849, Note_on_c, 0, 53, 0
1, 1378874, Note_on_c, 0, 58, 0
1, 1378907, Note_on_c, 0, 82, 0
1, 1378929, Note_on_c, 0, 70, 0
1, 1378968, Note_on_c, 0, 58, 70
1, 1378968, Note_on_c, 0, 65, 83
1, 1378986, Note_on_c, 0, 71, 74
1, 1379000, Note_on_c, 0, 61, 0
1, 1379003, Note_on_c, 0, 65, 0
1, 1379017, Note_on_c, 0, 58, 0
1, 1379046, Note_on_c, 0, 74, 80
1, 1379047, Note_on_c, 0, 71, 0
1, 1379107, Note_on_c, 0, 77, 63
1, 1379116, Note_on_c, 0, 74, 0
1, 1379117, Note_on_c, 0, 80, 89
1, 1379137, Note_on_c, 0, 77, 0
1, 1379167, Note_on_c, 0, 80, 0
1, 1379195, Note_on_c, 0, 44, 25
1, 1379211, Note_on_c, 0, 83, 86
1, 1379249, Note_on_c, 0, 44, 0
1, 1379275, Note_on_c, 0, 83, 0
1, 1379282, Note_on_c, 0, 86, 86
1, 1379345, Note_on_c, 0, 89, 70
1, 1379383, Note_on_c, 0, 92, 90
1, 1379387, Note_on_c, 0, 86, 0
1, 1379404, Note_on_c, 0, 50, 97
1, 1379409, Note_on_c, 0, 38, 87
1, 1379415, Note_on_c, 0, 95, 107
1, 1379423, Note_on_c, 0, 89, 0
1, 1379441, Note_on_c, 0, 92, 0
1, 1379458, Note_on_c, 0, 38, 0
1, 1379461, Note_on_c, 0, 50, 0
1, 1379473, Control_c, 0, 64, 103
1, 1379480, Note_on_c, 0, 95, 0
1, 1379492, Control_c, 0, 64, 69
1, 1379510, Control_c, 0, 64, 30
1, 1379528, Control_c, 0, 64, 17
1, 1379699, Note_on_c, 0, 51, 71
1, 1379700, Note_on_c, 0, 39, 69
1, 1379763, Note_on_c, 0, 51, 0
1, 1379772, Note_on_c, 0, 39, 0
1, 1379801, Note_on_c, 0, 94, 92
1, 1379807, Note_on_c, 0, 82, 83
1, 1379827, Note_on_c, 0, 94, 0
1, 1379831, Note_on_c, 0, 82, 0
1, 1379899, Note_on_c, 0, 92, 93
1, 1379903, Note_on_c, 0, 80, 86
1, 1379909, Note_on_c, 0, 53, 61
1, 1379912, Note_on_c, 0, 41, 59
1, 1379918, Note_on_c, 0, 52, 54
1, 1379927, Note_on_c, 0, 40, 50
1, 1379940, Note_on_c, 0, 53, 0
1, 1379947, Note_on_c, 0, 41, 0
1, 1379956, Note_on_c, 0, 52, 0
1, 1379977, Note_on_c, 0, 40, 0
1, 1379984, Control_c, 0, 64, 39
1, 1380000, Control_c, 0, 64, 57
1, 1380019, Control_c, 0, 64, 74
1, 1380039, Control_c, 0, 64, 94
1, 1380042, Poly_aftertouch_c, 0, 93, 0
1, 1380058, Control_c, 0, 64, 127
1, 1380083, Note_on_c, 0, 80, 0
1, 1380088, Note_on_c, 0, 92, 0
1, 1380133, Note_on_c, 0, 58, 97
1, 1380140, Note_on_c, 0, 46, 90
1, 1380169, Note_on_c, 0, 58, 0
1, 1380175, Note_on_c, 0, 46, 0
1, 1380205, Control_c, 0, 64, 121
1, 1380217, Note_on_c, 0, 90, 92
1, 1380224, Control_c, 0, 64, 90
1, 1380226, Note_on_c, 0, 78, 75
1, 1380242, Control_c, 0, 64, 60
1, 1380254, Note_on_c, 0, 78, 0
1, 1380256, Note_on_c, 0, 90, 0
1, 1380259, Control_c, 0, 64, 38
1, 1380278, Control_c, 0, 64, 30
1, 1380296, Control_c, 0, 64, 21
1, 1380316, Control_c, 0, 64, 8
1, 1380335, Note_on_c, 0, 77, 91
1, 1380335, Control_c, 0, 64, 0
1, 1380339, Note_on_c, 0, 89, 98
1, 1380343, Note_on_c, 0, 56, 93
1, 1380349, Note_on_c, 0, 44, 89
1, 1380365, Note_on_c, 0, 56, 0
1, 1380372, Note_on_c, 0, 77, 0
1, 1380374, Note_on_c, 0, 89, 0
1, 1380381, Note_on_c, 0, 44, 0
1, 1380538, Note_on_c, 0, 87, 96
1, 1380542, Note_on_c, 0, 75, 88
1, 1380545, Note_on_c, 0, 54, 94
1, 1380547, Note_on_c, 0, 42, 88
1, 1380571, Note_on_c, 0, 75, 0
1, 1380575, Control_c, 0, 64, 40
1, 1380594, Control_c, 0, 64, 69
1, 1380603, Note_on_c, 0, 87, 0
1, 1380611, Control_c, 0, 64, 94
1, 1380614, Note_on_c, 0, 42, 0
1, 1380631, Control_c, 0, 64, 124
1, 1380650, Note_on_c, 0, 73, 85
1, 1380658, Note_on_c, 0, 54, 0
1, 1380658, Note_on_c, 0, 54, 40
1, 1380673, Note_on_c, 0, 79, 68
1, 1380686, Note_on_c, 0, 54, 0
1, 1380693, Note_on_c, 0, 73, 0
1, 1380731, Note_on_c, 0, 82, 77
1, 1380756, Note_on_c, 0, 85, 86
1, 1380759, Note_on_c, 0, 79, 0
1, 1380791, Note_on_c, 0, 82, 0
1, 1380793, Note_on_c, 0, 85, 0
1, 1380869, Note_on_c, 0, 85, 84
1, 1380875, Poly_aftertouch_c, 0, 44, 0
1, 1380906, Note_on_c, 0, 94, 73
1, 1380918, Note_on_c, 0, 91, 67
1, 1380922, Note_on_c, 0, 85, 0
1, 1380937, Note_on_c, 0, 92, 36
1, 1380944, Note_on_c, 0, 40, 87
1, 1380944, Note_on_c, 0, 52, 96
1, 1380946, Note_on_c, 0, 97, 102
1, 1380972, Note_on_c, 0, 91, 0
1, 1380980, Note_on_c, 0, 92, 0
1, 1380983, Note_on_c, 0, 94, 0
1, 1380998, Note_on_c, 0, 40, 0
1, 1381004, Note_on_c, 0, 97, 0
1, 1381010, Control_c, 0, 64, 102
1, 1381016, Note_on_c, 0, 52, 0
1, 1381029, Control_c, 0, 64, 59
1, 1381048, Control_c, 0, 64, 0
1, 1381226, Note_on_c, 0, 53, 93
1, 1381228, Note_on_c, 0, 41, 85
1, 1381295, Note_on_c, 0, 53, 0
1, 1381303, Note_on_c, 0, 41, 0
1, 1381309, Note_on_c, 0, 96, 87
1, 1381314, Note_on_c, 0, 95, 87
1, 1381315, Note_on_c, 0, 84, 78
1, 1381318, Note_on_c, 0, 83, 82
1, 1381335, Note_on_c, 0, 96, 0
1, 1381337, Note_on_c, 0, 95, 0
1, 1381342, Note_on_c, 0, 84, 0
1, 1381342, Note_on_c, 0, 83, 0
1, 1381410, Note_on_c, 0, 55, 98
1, 1381419, Note_on_c, 0, 43, 88
1, 1381425, Note_on_c, 0, 94, 99
1, 1381432, Note_on_c, 0, 82, 99
1, 1381435, Control_c, 0, 64, 48
1, 1381454, Control_c, 0, 64, 79
1, 1381459, Note_on_c, 0, 43, 0
1, 1381465, Note_on_c, 0, 55, 0
1, 1381472, Control_c, 0, 64, 111
1, 1381492, Control_c, 0, 64, 127
1, 1381597, Note_on_c, 0, 82, 0
1, 1381600, Note_on_c, 0, 94, 0
1, 1381628, Note_on_c, 0, 60, 101
1, 1381636, Note_on_c, 0, 48, 91
1, 1381674, Note_on_c, 0, 60, 0
1, 1381678, Note_on_c, 0, 48, 0
1, 1381696, Control_c, 0, 64, 109
1, 1381724, Control_c, 0, 64, 70
1, 1381743, Control_c, 0, 64, 26
1, 1381754, Note_on_c, 0, 92, 98
1, 1381755, Note_on_c, 0, 80, 92
1, 1381761, Control_c, 0, 64, 0
1, 1381797, Note_on_c, 0, 80, 0
1, 1381801, Note_on_c, 0, 92, 0
1, 1381863, Note_on_c, 0, 58, 102
1, 1381873, Note_on_c, 0, 79, 98
1, 1381874, Note_on_c, 0, 91, 104
1, 1381874, Note_on_c, 0, 46, 97
1, 1381895, Note_on_c, 0, 58, 0
1, 1381901, Note_on_c, 0, 46, 0
1, 1381915, Note_on_c, 0, 79, 0
1, 1381919, Note_on_c, 0, 91, 0
1, 1382078, Note_on_c, 0, 56, 99
1, 1382083, Note_on_c, 0, 44, 91
1, 1382084, Note_on_c, 0, 77, 105
1, 1382088, Note_on_c, 0, 89, 105
1, 1382117, Note_on_c, 0, 46, 50
1, 1382122, Note_on_c, 0, 44, 0
1, 1382128, Note_on_c, 0, 77, 0
1, 1382139, Note_on_c, 0, 89, 0
1, 1382151, Note_on_c, 0, 46, 0
1, 1382197, Note_on_c, 0, 56, 0
1, 1382209, Note_on_c, 0, 78, 87
1, 1382219, Note_on_c, 0, 84, 78
1, 1382272, Note_on_c, 0, 78, 0
1, 1382286, Note_on_c, 0, 87, 81
1, 1382317, Note_on_c, 0, 84, 0
1, 1382322, Note_on_c, 0, 90, 87
1, 1382325, Note_on_c, 0, 45, 70
1, 1382338, Note_on_c, 0, 87, 0
1, 1382350, Note_on_c, 0, 90, 0
1, 1382354, Note_on_c, 0, 48, 69
1, 1382385, Note_on_c, 0, 51, 70
1, 1382420, Note_on_c, 0, 90, 76
1, 1382427, Note_on_c, 0, 54, 80
1, 1382457, Note_on_c, 0, 96, 78
1, 1382469, Note_on_c, 0, 45, 0
1, 1382491, Note_on_c, 0, 99, 78
1, 1382495, Note_on_c, 0, 90, 0
1, 1382504, Note_on_c, 0, 48, 0
1, 1382515, Note_on_c, 0, 60, 108
1, 1382519, Control_c, 0, 64, 57
1, 1382523, Note_on_c, 0, 102, 104
1, 1382536, Note_on_c, 0, 96, 0
1, 1382537, Control_c, 0, 64, 103
1, 1382544, Note_on_c, 0, 51, 0
1, 1382550, Note_on_c, 0, 99, 0
1, 1382556, Note_on_c, 0, 54, 0
1, 1382556, Control_c, 0, 64, 127
1, 1382560, Note_on_c, 0, 60, 0
1, 1382565, Note_on_c, 0, 102, 0
1, 1382852, Note_on_c, 0, 75, 93
1, 1382868, Note_on_c, 0, 99, 88
1, 1382870, Note_on_c, 0, 87, 83
1, 1382891, Note_on_c, 0, 99, 0
1, 1382897, Note_on_c, 0, 87, 0
1, 1382897, Note_on_c, 0, 75, 0
1, 1382953, Note_on_c, 0, 72, 88
1, 1382954, Note_on_c, 0, 84, 93
1, 1382955, Note_on_c, 0, 96, 90
1, 1382997, Note_on_c, 0, 72, 0
1, 1382999, Note_on_c, 0, 84, 0
1, 1383004, Note_on_c, 0, 96, 0
1, 1383154, Note_on_c, 0, 69, 76
1, 1383185, Note_on_c, 0, 69, 0
1, 1383250, Note_on_c, 0, 81, 76
1, 1383251, Note_on_c, 0, 93, 74
1, 1383278, Note_on_c, 0, 81, 0
1, 1383279, Note_on_c, 0, 93, 0
1, 1383364, Note_on_c, 0, 66, 82
1, 1383390, Note_on_c, 0, 66, 0
1, 1383465, Note_on_c, 0, 78, 75
1, 1383468, Note_on_c, 0, 90, 66
1, 1383490, Note_on_c, 0, 90, 0
1, 1383494, Note_on_c, 0, 78, 0
1, 1383570, Note_on_c, 0, 63, 88
1, 1383628, Note_on_c, 0, 63, 0
1, 1383687, Note_on_c, 0, 75, 75
1, 1383687, Note_on_c, 0, 87, 71
1, 1383715, Note_on_c, 0, 75, 0
1, 1383717, Note_on_c, 0, 87, 0
1, 1383789, Note_on_c, 0, 60, 92
1, 1383856, Note_on_c, 0, 60, 0
1, 1383879, Note_on_c, 0, 72, 80
1, 1383883, Note_on_c, 0, 84, 78
1, 1383912, Note_on_c, 0, 72, 0
1, 1383913, Note_on_c, 0, 84, 0
1, 1383989, Note_on_c, 0, 57, 97
1, 1384043, Note_on_c, 0, 57, 0
1, 1384083, Note_on_c, 0, 81, 81
1, 1384084, Note_on_c, 0, 69, 81
1, 1384115, Note_on_c, 0, 81, 0
1, 1384120, Note_on_c, 0, 69, 0
1, 1384185, Note_on_c, 0, 54, 100
1, 1384244, Note_on_c, 0, 54, 0
1, 1384275, Note_on_c, 0, 78, 81
1, 1384279, Note_on_c, 0, 66, 86
1, 1384299, Note_on_c, 0, 78, 0
1, 1384314, Note_on_c, 0, 66, 0
1, 1384389, Note_on_c, 0, 51, 95
1, 1384460, Note_on_c, 0, 51, 0
1, 1384478, Note_on_c, 0, 63, 86
1, 1384478, Note_on_c, 0, 75, 86
1, 1384527, Note_on_c, 0, 63, 0
1, 1384535, Note_on_c, 0, 75, 0
1, 1384585, Note_on_c, 0, 48, 99
1, 1384673, Note_on_c, 0, 48, 0
1, 1384686, Note_on_c, 0, 60, 89
1, 1384688, Note_on_c, 0, 72, 87
1, 1384736, Note_on_c, 0, 72, 0
1, 1384739, Note_on_c, 0, 60, 0
1, 1384779, Note_on_c, 0, 45, 99
1, 1384871, Note_on_c, 0, 45, 0
1, 1384876, Note_on_c, 0, 57, 85
1, 1384878, Note_on_c, 0, 69, 79
1, 1384922, Note_on_c, 0, 69, 0
1, 1384940, Note_on_c, 0, 57, 0
1, 1384976, Note_on_c, 0, 42, 102
1, 1385012, Control_c, 0, 64, 116
1, 1385025, Note_on_c, 0, 42, 0
1, 1385030, Control_c, 0, 64, 84
1, 1385050, Control_c, 0, 64, 58
1, 1385070, Control_c, 0, 64, 48
1, 1385093, Note_on_c, 0, 54, 80
1, 1385093, Note_on_c, 0, 66, 82
1, 1385122, Note_on_c, 0, 54, 0
1, 1385134, Note_on_c, 0, 66, 0
1, 1385168, Note_on_c, 0, 41, 98
1, 1385217, Control_c, 0, 64, 46
1, 1385221, Note_on_c, 0, 41, 0
1, 1385303, Note_on_c, 0, 65, 80
1, 1385314, Note_on_c, 0, 53, 63
1, 1385338, Note_on_c, 0, 38, 88
1, 1385342, Note_on_c, 0, 53, 0
1, 1385368, Note_on_c, 0, 38, 0
1, 1385382, Note_on_c, 0, 65, 0
1, 1385484, Note_on_c, 0, 63, 57
1, 1385501, Note_on_c, 0, 51, 41
1, 1385518, Poly_aftertouch_c, 0, 38, 0
1, 1385539, Note_on_c, 0, 51, 0
1, 1385539, Control_c, 0, 64, 42
1, 1385558, Control_c, 0, 64, 36
1, 1385572, Note_on_c, 0, 63, 0
1, 1385576, Control_c, 0, 64, 26
1, 1385596, Control_c, 0, 64, 16
1, 1385620, Note_on_c, 0, 62, 99
1, 1385623, Note_on_c, 0, 50, 103
1, 1385628, Note_on_c, 0, 38, 89
1, 1385652, Control_c, 0, 64, 45
1, 1385671, Control_c, 0, 64, 79
1, 1385687, Note_on_c, 0, 38, 0
1, 1385689, Control_c, 0, 64, 111
1, 1385704, Note_on_c, 0, 62, 0
1, 1385705, Note_on_c, 0, 50, 0
1, 1385708, Control_c, 0, 64, 127
1, 1385716, Poly_aftertouch_c, 0, 43, 0
1, 1385752, Poly_aftertouch_c, 0, 45, 0
1, 1385766, Poly_aftertouch_c, 0, 41, 0
1, 1385965, Note_on_c, 0, 50, 65
1, 1385987, Note_on_c, 0, 53, 63
1, 1386025, Note_on_c, 0, 50, 0
1, 1386031, Note_on_c, 0, 58, 71
1, 1386051, Note_on_c, 0, 70, 70
1, 1386059, Note_on_c, 0, 53, 0
1, 1386061, Note_on_c, 0, 77, 82
1, 1386062, Note_on_c, 0, 65, 97
1, 1386074, Note_on_c, 0, 82, 94
1, 1386083, Note_on_c, 0, 70, 0
1, 1386085, Note_on_c, 0, 65, 0
1, 1386103, Note_on_c, 0, 77, 0
1, 1386105, Note_on_c, 0, 58, 0
1, 1386108, Note_on_c, 0, 82, 0
1, 1386132, Control_c, 0, 64, 110
1, 1386151, Control_c, 0, 64, 73
1, 1386170, Control_c, 0, 64, 40
1, 1386189, Control_c, 0, 64, 28
1, 1386228, Control_c, 0, 64, 21
1, 1386245, Control_c, 0, 64, 13
1, 1386262, Control_c, 0, 64, 8
1, 1386299, Control_c, 0, 64, 19
1, 1386318, Control_c, 0, 64, 47
1, 1386328, Note_on_c, 0, 61, 105
1, 1386332, Note_on_c, 0, 49, 105
1, 1386334, Note_on_c, 0, 37, 86
1, 1386335, Control_c, 0, 64, 81
1, 1386352, Poly_aftertouch_c, 0, 42, 0
1, 1386357, Control_c, 0, 64, 113
1, 1386374, Control_c, 0, 64, 127
1, 1386377, Note_on_c, 0, 37, 0
1, 1386380, Note_on_c, 0, 61, 0
1, 1386382, Note_on_c, 0, 49, 0
1, 1386392, Note_on_c, 0, 43, 27
1, 1386446, Note_on_c, 0, 43, 0
1, 1386451, Poly_aftertouch_c, 0, 40, 0
1, 1386652, Note_on_c, 0, 49, 70
1, 1386690, Note_on_c, 0, 53, 63
1, 1386730, Note_on_c, 0, 49, 0
1, 1386741, Note_on_c, 0, 70, 73
1, 1386747, Note_on_c, 0, 58, 70
1, 1386761, Note_on_c, 0, 77, 78
1, 1386764, Note_on_c, 0, 53, 0
1, 1386772, Note_on_c, 0, 65, 92
1, 1386777, Note_on_c, 0, 82, 92
1, 1386783, Note_on_c, 0, 70, 0
1, 1386799, Note_on_c, 0, 65, 0
1, 1386806, Note_on_c, 0, 77, 0
1, 1386817, Note_on_c, 0, 58, 0
1, 1386818, Note_on_c, 0, 56, 17
1, 1386819, Note_on_c, 0, 82, 0
1, 1386819, Note_on_c, 0, 56, 0
1, 1386828, Control_c, 0, 64, 104
1, 1386845, Control_c, 0, 64, 71
1, 1386865, Control_c, 0, 64, 43
1, 1386883, Control_c, 0, 64, 36
1, 1386958, Control_c, 0, 64, 32
1, 1387041, Note_on_c, 0, 36, 85
1, 1387041, Note_on_c, 0, 60, 108
1, 1387042, Note_on_c, 0, 48, 102
1, 1387049, Control_c, 0, 64, 49
1, 1387069, Control_c, 0, 64, 74
1, 1387074, Note_on_c, 0, 43, 45
1, 1387087, Control_c, 0, 64, 102
1, 1387095, Note_on_c, 0, 36, 0
1, 1387102, Note_on_c, 0, 38, 20
1, 1387104, Note_on_c, 0, 60, 0
1, 1387105, Control_c, 0, 64, 127
1, 1387108, Note_on_c, 0, 48, 0
1, 1387117, Note_on_c, 0, 43, 0
1, 1387143, Note_on_c, 0, 68, 22
1, 1387145, Poly_aftertouch_c, 0, 40, 0
1, 1387158, Note_on_c, 0, 68, 0
1, 1387166, Note_on_c, 0, 38, 0
1, 1387366, Note_on_c, 0, 48, 65
1, 1387405, Note_on_c, 0, 53, 56
1, 1387419, Note_on_c, 0, 68, 75
1, 1387436, Note_on_c, 0, 48, 0
1, 1387445, Note_on_c, 0, 72, 66
1, 1387452, Note_on_c, 0, 56, 71
1, 1387463, Note_on_c, 0, 77, 87
1, 1387464, Note_on_c, 0, 53, 0
1, 1387480, Note_on_c, 0, 68, 0
1, 1387482, Note_on_c, 0, 65, 93
1, 1387485, Note_on_c, 0, 80, 96
1, 1387501, Note_on_c, 0, 72, 0
1, 1387507, Note_on_c, 0, 65, 0
1, 1387518, Note_on_c, 0, 56, 0
1, 1387521, Note_on_c, 0, 77, 0
1, 1387530, Note_on_c, 0, 80, 0
1, 1387533, Note_on_c, 0, 50, 44
1, 1387542, Control_c, 0, 64, 122
1, 1387544, Note_on_c, 0, 50, 0
1, 1387561, Control_c, 0, 64, 89
1, 1387579, Control_c, 0, 64, 51
1, 1387595, Control_c, 0, 64, 0
1, 1387727, Control_c, 0, 64, 26
1, 1387745, Control_c, 0, 64, 64
1, 1387749, Note_on_c, 0, 58, 103
1, 1387753, Note_on_c, 0, 46, 99
1, 1387754, Note_on_c, 0, 34, 88
1, 1387761, Control_c, 0, 64, 102
1, 1387780, Control_c, 0, 64, 127
1, 1387783, Note_on_c, 0, 46, 0
1, 1387789, Note_on_c, 0, 34, 0
1, 1387799, Note_on_c, 0, 58, 0
1, 1387900, Poly_aftertouch_c, 0, 37, 0
1, 1387905, Poly_aftertouch_c, 0, 47, 0
1, 1388087, Note_on_c, 0, 52, 66
1, 1388088, Note_on_c, 0, 55, 63
1, 1388137, Note_on_c, 0, 67, 75
1, 1388150, Note_on_c, 0, 60, 80
1, 1388153, Note_on_c, 0, 72, 75
1, 1388158, Note_on_c, 0, 64, 94
1, 1388169, Note_on_c, 0, 52, 0
1, 1388169, Note_on_c, 0, 76, 80
1, 1388179, Note_on_c, 0, 67, 0
1, 1388183, Note_on_c, 0, 64, 0
1, 1388199, Note_on_c, 0, 55, 0
1, 1388201, Note_on_c, 0, 79, 95
1, 1388205, Note_on_c, 0, 60, 0
1, 1388206, Note_on_c, 0, 75, 61
1, 1388209, Note_on_c, 0, 72, 0
1, 1388218, Note_on_c, 0, 76, 0
1, 1388230, Note_on_c, 0, 75, 0
1, 1388233, Poly_aftertouch_c, 0, 57, 0
1, 1388246, Note_on_c, 0, 79, 0
1, 1388292, Control_c, 0, 64, 107
1, 1388311, Control_c, 0, 64, 63
1, 1388328, Control_c, 0, 64, 0
1, 1388477, Control_c, 0, 64, 37
1, 1388482, Note_on_c, 0, 32, 82
1, 1388482, Note_on_c, 0, 56, 103
1, 1388482, Note_on_c, 0, 44, 98
1, 1388497, Control_c, 0, 64, 70
1, 1388509, Note_on_c, 0, 58, 67
1, 1388512, Control_c, 0, 64, 94
1, 1388520, Note_on_c, 0, 56, 0
1, 1388520, Note_on_c, 0, 44, 0
1, 1388522, Note_on_c, 0, 32, 0
1, 1388531, Control_c, 0, 64, 124
1, 1388537, Note_on_c, 0, 58, 0
1, 1388587, Poly_aftertouch_c, 0, 39, 0
1, 1388797, Note_on_c, 0, 53, 57
1, 1388835, Note_on_c, 0, 56, 49
1, 1388882, Note_on_c, 0, 72, 77
1, 1388882, Note_on_c, 0, 60, 71
1, 1388892, Note_on_c, 0, 65, 91
1, 1388897, Note_on_c, 0, 53, 0
1, 1388907, Note_on_c, 0, 77, 58
1, 1388917, Note_on_c, 0, 80, 80
1, 1388924, Note_on_c, 0, 65, 0
1, 1388938, Note_on_c, 0, 72, 0
1, 1388940, Note_on_c, 0, 60, 0
1, 1388950, Note_on_c, 0, 84, 103
1, 1388955, Note_on_c, 0, 56, 0
1, 1388967, Note_on_c, 0, 77, 0
1, 1388974, Note_on_c, 0, 80, 0
1, 1388994, Note_on_c, 0, 84, 0
1, 1389033, Control_c, 0, 64, 118
1, 1389053, Control_c, 0, 64, 73
1, 1389068, Control_c, 0, 64, 0
1, 1389207, Note_on_c, 0, 46, 101
1, 1389209, Control_c, 0, 64, 24
1, 1389211, Note_on_c, 0, 34, 97
1, 1389216, Note_on_c, 0, 58, 103
1, 1389228, Control_c, 0, 64, 64
1, 1389240, Note_on_c, 0, 46, 0
1, 1389245, Note_on_c, 0, 34, 0
1, 1389246, Control_c, 0, 64, 98
1, 1389256, Note_on_c, 0, 44, 29
1, 1389257, Note_on_c, 0, 44, 0
1, 1389262, Control_c, 0, 64, 127
1, 1389263, Note_on_c, 0, 58, 0
1, 1389547, Note_on_c, 0, 46, 55
1, 1389579, Note_on_c, 0, 49, 64
1, 1389614, Note_on_c, 0, 70, 79
1, 1389650, Note_on_c, 0, 73, 81
1, 1389651, Note_on_c, 0, 78, 78
1, 1389654, Note_on_c, 0, 61, 88
1, 1389663, Note_on_c, 0, 46, 0
1, 1389675, Note_on_c, 0, 70, 0
1, 1389680, Note_on_c, 0, 61, 0
1, 1389681, Note_on_c, 0, 82, 90
1, 1389696, Note_on_c, 0, 73, 0
1, 1389696, Note_on_c, 0, 49, 0
1, 1389711, Note_on_c, 0, 78, 0
1, 1389720, Note_on_c, 0, 82, 0
1, 1389765, Control_c, 0, 64, 107
1, 1389770, Poly_aftertouch_c, 0, 54, 0
1, 1389779, Poly_aftertouch_c, 0, 53, 0
1, 1389784, Control_c, 0, 64, 68
1, 1389803, Control_c, 0, 64, 33
1, 1389819, Control_c, 0, 64, 24
1, 1389875, Control_c, 0, 64, 20
1, 1389913, Control_c, 0, 64, 12
1, 1389930, Control_c, 0, 64, 0
1, 1389971, Note_on_c, 0, 36, 85
1, 1389976, Note_on_c, 0, 48, 111
1, 1389989, Note_on_c, 0, 60, 108
1, 1390011, Note_on_c, 0, 43, 43
1, 1390039, Note_on_c, 0, 70, 12
1, 1390057, Note_on_c, 0, 43, 0
1, 1390079, Control_c, 0, 64, 23
1, 1390083, Poly_aftertouch_c, 0, 40, 0
1, 1390084, Note_on_c, 0, 36, 0
1, 1390090, Note_on_c, 0, 70, 0
1, 1390098, Control_c, 0, 64, 64
1, 1390106, Poly_aftertouch_c, 0, 38, 0
1, 1390117, Control_c, 0, 64, 105
1, 1390120, Note_on_c, 0, 48, 0
1, 1390144, Control_c, 0, 64, 127
1, 1390154, Note_on_c, 0, 60, 0
1, 1390174, Poly_aftertouch_c, 0, 66, 0
1, 1390179, Poly_aftertouch_c, 0, 68, 0
1, 1390384, Note_on_c, 0, 48, 58
1, 1390431, Note_on_c, 0, 53, 59
1, 1390437, Note_on_c, 0, 48, 0
1, 1390456, Note_on_c, 0, 68, 73
1, 1390470, Note_on_c, 0, 56, 61
1, 1390477, Note_on_c, 0, 53, 0
1, 1390483, Note_on_c, 0, 72, 71
1, 1390499, Note_on_c, 0, 77, 82
1, 1390518, Note_on_c, 0, 65, 77
1, 1390521, Note_on_c, 0, 68, 0
1, 1390521, Note_on_c, 0, 80, 91
1, 1390537, Note_on_c, 0, 72, 0
1, 1390539, Note_on_c, 0, 65, 0
1, 1390546, Poly_aftertouch_c, 0, 50, 0
1, 1390552, Note_on_c, 0, 56, 0
1, 1390560, Note_on_c, 0, 77, 0
1, 1390566, Note_on_c, 0, 80, 0
1, 1390615, Poly_aftertouch_c, 0, 58, 0
1, 1390773, Control_c, 0, 64, 104
1, 1390792, Control_c, 0, 64, 52
1, 1390794, Note_on_c, 0, 60, 101
1, 1390799, Note_on_c, 0, 48, 85
1, 1390801, Note_on_c, 0, 36, 76
1, 1390810, Control_c, 0, 64, 0
1, 1390866, Control_c, 0, 64, 28
1, 1390873, Note_on_c, 0, 36, 0
1, 1390887, Control_c, 0, 64, 66
1, 1390904, Control_c, 0, 64, 110
1, 1390923, Control_c, 0, 64, 127
1, 1390932, Note_on_c, 0, 48, 0
1, 1390968, Note_on_c, 0, 60, 0
1, 1391263, Note_on_c, 0, 52, 68
1, 1391272, Note_on_c, 0, 55, 68
1, 1391313, Note_on_c, 0, 60, 80
1, 1391320, Note_on_c, 0, 64, 97
1, 1391320, Poly_aftertouch_c, 0, 51, 0
1, 1391350, Note_on_c, 0, 79, 97
1, 1391351, Note_on_c, 0, 70, 102
1, 1391353, Note_on_c, 0, 67, 103
1, 1391362, Note_on_c, 0, 64, 0
1, 1391367, Note_on_c, 0, 76, 65
1, 1391370, Note_on_c, 0, 60, 0
1, 1391373, Note_on_c, 0, 67, 0
1, 1391373, Note_on_c, 0, 55, 0
1, 1391380, Note_on_c, 0, 70, 0
1, 1391382, Note_on_c, 0, 52, 0
1, 1391386, Note_on_c, 0, 77, 44
1, 1391387, Note_on_c, 0, 77, 0
1, 1391391, Note_on_c, 0, 76, 0
1, 1391399, Note_on_c, 0, 79, 0
1, 1391414, Control_c, 0, 64, 116
1, 1391433, Control_c, 0, 64, 81
1, 1391451, Control_c, 0, 64, 50
1, 1391470, Control_c, 0, 64, 34
1, 1391611, Note_on_c, 0, 41, 75
1, 1391634, Note_on_c, 0, 48, 80
1, 1391656, Control_c, 0, 64, 67
1, 1391663, Note_on_c, 0, 65, 99
1, 1391664, Note_on_c, 0, 68, 95
1, 1391664, Note_on_c, 0, 77, 90
1, 1391671, Note_on_c, 0, 56, 102
1, 1391673, Note_on_c, 0, 72, 85
1, 1391675, Control_c, 0, 64, 113
1, 1391676, Note_on_c, 0, 41, 0
1, 1391693, Control_c, 0, 64, 127
1, 1391710, Note_on_c, 0, 56, 0
1, 1391715, Note_on_c, 0, 65, 0
1, 1391716, Note_on_c, 0, 48, 0
1, 1391725, Note_on_c, 0, 77, 0
1, 1391727, Note_on_c, 0, 68, 0
1, 1391733, Note_on_c, 0, 72, 0
1, 1391822, Control_c, 0, 64, 123
1, 1391840, Control_c, 0, 64, 80
1, 1391861, Control_c, 0, 64, 37
1, 1391878, Control_c, 0, 64, 8
1, 1392142, Note_on_c, 0, 65, 99
1, 1392144, Note_on_c, 0, 77, 98
1, 1392145, Note_on_c, 0, 70, 92
1, 1392146, Note_on_c, 0, 73, 90
1, 1392148, Note_on_c, 0, 53, 95
1, 1392149, Note_on_c, 0, 46, 85
1, 1392170, Note_on_c, 0, 70, 0
1, 1392171, Note_on_c, 0, 73, 0
1, 1392175, Note_on_c, 0, 65, 0
1, 1392183, Note_on_c, 0, 53, 0
1, 1392187, Note_on_c, 0, 46, 0
1, 1392197, Note_on_c, 0, 77, 0
1, 1392350, Control_c, 0, 64, 34
1, 1392368, Control_c, 0, 64, 71
1, 1392384, Control_c, 0, 64, 115
1, 1392387, Note_on_c, 0, 41, 81
1, 1392388, Note_on_c, 0, 77, 88
1, 1392390, Note_on_c, 0, 53, 107
1, 1392391, Note_on_c, 0, 65, 96
1, 1392391, Note_on_c, 0, 72, 86
1, 1392392, Note_on_c, 0, 68, 95
1, 1392415, Control_c, 0, 64, 127
1, 1392427, Note_on_c, 0, 53, 0
1, 1392431, Note_on_c, 0, 41, 0
1, 1392437, Note_on_c, 0, 77, 0
1, 1392445, Note_on_c, 0, 65, 0
1, 1392453, Note_on_c, 0, 68, 0
1, 1392454, Note_on_c, 0, 72, 0
1, 1392554, Control_c, 0, 64, 102
1, 1392570, Control_c, 0, 64, 65
1, 1392590, Control_c, 0, 64, 32
1, 1392664, Control_c, 0, 64, 28
1, 1392824, Note_on_c, 0, 53, 98
1, 1392826, Note_on_c, 0, 65, 90
1, 1392827, Note_on_c, 0, 61, 89
1, 1392828, Note_on_c, 0, 58, 88
1, 1392830, Note_on_c, 0, 34, 86
1, 1392833, Note_on_c, 0, 41, 97
1, 1392862, Note_on_c, 0, 58, 0
1, 1392869, Note_on_c, 0, 41, 0
1, 1392871, Note_on_c, 0, 53, 0
1, 1392871, Note_on_c, 0, 61, 0
1, 1392873, Note_on_c, 0, 34, 0
1, 1392884, Note_on_c, 0, 65, 0
1, 1393063, Control_c, 0, 64, 44
1, 1393081, Control_c, 0, 64, 84
1, 1393085, Note_on_c, 0, 29, 85
1, 1393088, Note_on_c, 0, 41, 110
1, 1393090, Note_on_c, 0, 53, 102
1, 1393095, Note_on_c, 0, 56, 92
1, 1393095, Note_on_c, 0, 65, 91
1, 1393097, Note_on_c, 0, 60, 87
1, 1393099, Control_c, 0, 64, 127
1, 1393132, Note_on_c, 0, 29, 0
1, 1393148, Note_on_c, 0, 41, 0
1, 1393151, Note_on_c, 0, 53, 0
1, 1393167, Note_on_c, 0, 65, 0
1, 1393172, Note_on_c, 0, 56, 0
1, 1393177, Note_on_c, 0, 60, 0
1, 1393210, Control_c, 0, 64, 123
1, 1393230, Control_c, 0, 64, 82
1, 1393242, Poly_aftertouch_c, 0, 31, 0
1, 1393249, Control_c, 0, 64, 42
1, 1393266, Control_c, 0, 64, 17
1, 1393804, Control_c, 0, 64, 12
1, 1393821, Control_c, 0, 64, 0
1, 1393884, Note_on_c, 0, 29, 86
1, 1393885, Note_on_c, 0, 65, 86
1, 1393885, Control_c, 0, 64, 45
1, 1393888, Note_on_c, 0, 53, 101
1, 1393888, Note_on_c, 0, 56, 97
1, 1393889, Note_on_c, 0, 41, 115
1, 1393894, Note_on_c, 0, 60, 89
1, 1393911, Control_c, 0, 64, 83
1, 1393923, Control_c, 0, 64, 127
1, 1393936, Note_on_c, 0, 36, 44
1, 1393936, Note_on_c, 0, 31, 45
1, 1393949, Note_on_c, 0, 33, 32
1, 1393955, Note_on_c, 0, 65, 0
1, 1393962, Note_on_c, 0, 41, 0
1, 1393967, Note_on_c, 0, 53, 0
1, 1393980, Note_on_c, 0, 60, 0
1, 1393981, Note_on_c, 0, 29, 0
1, 1393982, Note_on_c, 0, 36, 0
1, 1393987, Note_on_c, 0, 31, 0
1, 1393990, Note_on_c, 0, 56, 0
1, 1394005, Note_on_c, 0, 33, 0
1, 1394046, Poly_aftertouch_c, 0, 62, 0
1, 1394259, Control_c, 0, 64, 113
1, 1394277, Control_c, 0, 64, 94
1, 1394296, Control_c, 0, 64, 77
1, 1394315, Control_c, 0, 64, 65
1, 1394331, Control_c, 0, 64, 58
1, 1394350, Control_c, 0, 64, 53
1, 1394369, Control_c, 0, 64, 47
1, 1394388, Control_c, 0, 64, 40
1, 1394406, Control_c, 0, 64, 34
1, 1394425, Control_c, 0, 64, 30
1, 1394461, Control_c, 0, 64, 22
1, 1394479, Control_c, 0, 64, 18
1, 1394516, Control_c, 0, 64, 13
1, 1394572, Control_c, 0, 64, 9
1, 1395025, Control_c, 0, 64, 0
1, 1397379, Control_c, 0, 64, 8
1, 1397417, Control_c, 0, 67, 10
1, 1397434, Control_c, 0, 67, 16
1, 1397453, Control_c, 0, 67, 21
1, 1397471, Control_c, 0, 64, 12
1, 1397509, Control_c, 0, 64, 17
1, 1397510, Control_c, 0, 67, 16
1, 1397528, Control_c, 0, 67, 11
1, 1397546, Control_c, 0, 67, 0
1, 1397565, Control_c, 0, 64, 22
1, 1399102, Control_c, 0, 64, 26
1, 1399499, Control_c, 0, 64, 30
1, 1399649, Control_c, 0, 64, 34
1, 1399778, Control_c, 0, 64, 38
1, 1403632, Control_c, 0, 64, 41
1, 1403669, Control_c, 0, 64, 43
1, 1403707, Control_c, 0, 64, 45
1, 1403743, Control_c, 0, 64, 48
1, 1403764, Control_c, 0, 64, 52
1, 1403780, Control_c, 0, 64, 57
1, 1403798, Control_c, 0, 64, 59
1, 1403817, Control_c, 0, 64, 60
1, 1403835, Control_c, 0, 64, 62
1, 1403853, Control_c, 0, 64, 63
1, 1403872, Control_c, 0, 64, 65
1, 1403892, Control_c, 0, 64, 67
1, 1403910, Control_c, 0, 64, 69
1, 1403929, Control_c, 0, 64, 71
1, 1403947, Control_c, 0, 64, 73
1, 1403966, Control_c, 0, 64, 76
1, 1403985, Control_c, 0, 64, 79
1, 1404002, Control_c, 0, 64, 82
1, 1404021, Control_c, 0, 64, 86
1, 1404058, Control_c, 0, 64, 93
1, 1404077, Control_c, 0, 64, 98
1, 1404115, Control_c, 0, 64, 105
1, 1404151, Control_c, 0, 64, 111
1, 1404196, Control_c, 0, 64, 116
1, 1404234, Control_c, 0, 64, 122
1, 1404271, Control_c, 0, 64, 127
1, 1404604, Control_c, 0, 67, 10
1, 1404623, Control_c, 0, 67, 18
1, 1404642, Control_c, 0, 67, 25
1, 1404660, Control_c, 0, 67, 30
1, 1404679, Control_c, 0, 67, 35
1, 1404698, Control_c, 0, 67, 41
1, 1404716, Control_c, 0, 67, 50
1, 1404734, Control_c, 0, 67, 61
1, 1404752, Control_c, 0, 67, 72
1, 1404771, Control_c, 0, 67, 83
1, 1404789, Control_c, 0, 67, 93
1, 1404808, Control_c, 0, 67, 103
1, 1404826, Control_c, 0, 67, 111
1, 1404847, Control_c, 0, 67, 117
1, 1404864, Control_c, 0, 67, 121
1, 1404901, Control_c, 0, 67, 127
1, 1406141, Note_on_c, 0, 77, 50
1, 1406165, Note_on_c, 0, 73, 41
1, 1406489, Poly_aftertouch_c, 0, 73, 22
1, 1406527, Note_on_c, 0, 73, 0
1, 1406527, Poly_aftertouch_c, 0, 73, 0
1, 1407332, Note_on_c, 0, 73, 49
1, 1407362, Note_on_c, 0, 70, 30
1, 1407634, Control_c, 0, 67, 123
1, 1407671, Control_c, 0, 67, 116
1, 1407691, Control_c, 0, 67, 112
1, 1407708, Control_c, 0, 67, 106
1, 1407728, Control_c, 0, 67, 95
1, 1407730, Note_on_c, 0, 77, 0
1, 1407744, Control_c, 0, 67, 79
1, 1407762, Control_c, 0, 67, 60
1, 1407782, Control_c, 0, 67, 38
1, 1407800, Control_c, 0, 67, 17
1, 1407818, Control_c, 0, 67, 0
1, 1407949, Note_on_c, 0, 70, 0
1, 1408393, Note_on_c, 0, 70, 46
1, 1408412, Note_on_c, 0, 65, 30
1, 1408681, Control_c, 0, 67, 9
1, 1408717, Control_c, 0, 67, 16
1, 1408726, Note_on_c, 0, 73, 0
1, 1408735, Control_c, 0, 67, 22
1, 1408754, Control_c, 0, 67, 27
1, 1408773, Control_c, 0, 67, 32
1, 1408811, Control_c, 0, 67, 38
1, 1408954, Note_on_c, 0, 70, 0
1, 1408987, Control_c, 0, 67, 42
1, 1409024, Control_c, 0, 67, 46
1, 1409042, Control_c, 0, 67, 51
1, 1409060, Control_c, 0, 67, 55
1, 1409097, Control_c, 0, 67, 59
1, 1409223, Note_on_c, 0, 65, 0
1, 1409500, Note_on_c, 0, 65, 53
1, 1409519, Note_on_c, 0, 61, 39
1, 1409690, Control_c, 0, 67, 65
1, 1409708, Control_c, 0, 67, 71
1, 1409728, Control_c, 0, 67, 76
1, 1409746, Control_c, 0, 67, 80
1, 1409783, Control_c, 0, 67, 86
1, 1409810, Control_c, 0, 67, 90
1, 1409829, Control_c, 0, 67, 95
1, 1409848, Control_c, 0, 67, 100
1, 1409865, Control_c, 0, 67, 105
1, 1409886, Control_c, 0, 67, 109
1, 1409923, Control_c, 0, 67, 115
1, 1409959, Control_c, 0, 67, 121
1, 1409995, Control_c, 0, 67, 126
1, 1410422, Note_on_c, 0, 65, 0
1, 1410459, Note_on_c, 0, 61, 0
1, 1410686, Note_on_c, 0, 61, 55
1, 1410709, Note_on_c, 0, 58, 39
1, 1410732, Note_on_c, 0, 65, 42
1, 1411247, Control_c, 0, 64, 117
1, 1411267, Control_c, 0, 64, 105
1, 1411279, Note_on_c, 0, 41, 62
1, 1411285, Control_c, 0, 64, 89
1, 1411302, Control_c, 0, 64, 72
1, 1411320, Control_c, 0, 64, 58
1, 1411326, Note_on_c, 0, 41, 0
1, 1411339, Control_c, 0, 64, 54
1, 1411395, Control_c, 0, 64, 52
1, 1411413, Control_c, 0, 64, 50
1, 1411422, Note_on_c, 0, 41, 47
1, 1411431, Control_c, 0, 64, 48
1, 1411457, Note_on_c, 0, 41, 0
1, 1411472, Note_on_c, 0, 65, 0
1, 1411472, Control_c, 0, 64, 46
1, 1411473, Note_on_c, 0, 61, 0
1, 1411515, Note_on_c, 0, 41, 65
1, 1411524, Control_c, 0, 64, 44
1, 1411534, Note_on_c, 0, 58, 0
1, 1411579, Note_on_c, 0, 41, 0
1, 1411579, Control_c, 0, 64, 42
1, 1411636, Control_c, 0, 64, 40
1, 1411703, Note_on_c, 0, 60, 66
1, 1411707, Note_on_c, 0, 34, 56
1, 1411708, Note_on_c, 0, 57, 55
1, 1411709, Note_on_c, 0, 46, 55
1, 1411725, Note_on_c, 0, 65, 53
1, 1411775, Control_c, 0, 64, 36
1, 1411782, Note_on_c, 0, 46, 0
1, 1411786, Note_on_c, 0, 34, 0
1, 1411924, Control_c, 0, 64, 32
1, 1412386, Control_c, 0, 64, 41
1, 1412405, Control_c, 0, 64, 47
1, 1412423, Control_c, 0, 64, 57
1, 1412440, Control_c, 0, 64, 69
1, 1412460, Control_c, 0, 64, 76
1, 1412478, Control_c, 0, 64, 84
1, 1412497, Control_c, 0, 64, 92
1, 1412515, Control_c, 0, 64, 101
1, 1412535, Control_c, 0, 64, 109
1, 1412553, Control_c, 0, 64, 117
1, 1412572, Control_c, 0, 64, 122
1, 1412590, Control_c, 0, 64, 127
1, 1412737, Note_on_c, 0, 65, 0
1, 1412783, Note_on_c, 0, 60, 0
1, 1413243, Note_on_c, 0, 41, 56
1, 1413244, Note_on_c, 0, 63, 49
1, 1413249, Note_on_c, 0, 60, 45
1, 1413261, Note_on_c, 0, 65, 41
1, 1413265, Control_c, 0, 64, 119
1, 1413284, Note_on_c, 0, 41, 0
1, 1413284, Control_c, 0, 64, 106
1, 1413303, Control_c, 0, 64, 90
1, 1413304, Note_on_c, 0, 57, 0
1, 1413322, Control_c, 0, 64, 72
1, 1413341, Control_c, 0, 64, 57
1, 1413347, Note_on_c, 0, 60, 0
1, 1413358, Control_c, 0, 64, 50
1, 1413372, Note_on_c, 0, 65, 0
1, 1413379, Note_on_c, 0, 41, 59
1, 1413416, Note_on_c, 0, 41, 0
1, 1413433, Control_c, 0, 64, 48
1, 1413470, Control_c, 0, 64, 46
1, 1413493, Note_on_c, 0, 41, 66
1, 1413526, Control_c, 0, 64, 43
1, 1413558, Note_on_c, 0, 41, 0
1, 1413590, Control_c, 0, 64, 41
1, 1413683, Control_c, 0, 64, 37
1, 1413700, Note_on_c, 0, 61, 42
1, 1413713, Note_on_c, 0, 65, 39
1, 1413716, Note_on_c, 0, 58, 41
1, 1413754, Note_on_c, 0, 46, 29
1, 1413775, Control_c, 0, 64, 32
1, 1413801, Note_on_c, 0, 46, 0
1, 1413822, Poly_aftertouch_c, 0, 34, 0
1, 1413826, Note_on_c, 0, 63, 0
1, 1413831, Control_c, 0, 64, 26
1, 1413869, Control_c, 0, 64, 18
1, 1413887, Control_c, 0, 64, 13
1, 1413907, Control_c, 0, 64, 9
1, 1413922, Control_c, 0, 64, 0
1, 1414128, Control_c, 0, 64, 12
1, 1414146, Control_c, 0, 64, 29
1, 1414164, Control_c, 0, 64, 41
1, 1414183, Control_c, 0, 64, 60
1, 1414201, Control_c, 0, 64, 79
1, 1414221, Control_c, 0, 64, 91
1, 1414239, Control_c, 0, 64, 103
1, 1414258, Control_c, 0, 64, 113
1, 1414269, Note_on_c, 0, 58, 0
1, 1414276, Control_c, 0, 64, 121
1, 1414293, Control_c, 0, 64, 126
1, 1414348, Note_on_c, 0, 61, 0
1, 1414364, Note_on_c, 0, 65, 0
1, 1415007, Control_c, 0, 67, 122
1, 1415013, Note_on_c, 0, 77, 52
1, 1415026, Note_on_c, 0, 73, 36
1, 1415082, Control_c, 0, 67, 117
1, 1415119, Control_c, 0, 67, 113
1, 1415137, Control_c, 0, 67, 107
1, 1415155, Control_c, 0, 64, 107
1, 1415156, Control_c, 0, 67, 101
1, 1415173, Control_c, 0, 64, 85
1, 1415174, Control_c, 0, 67, 93
1, 1415192, Control_c, 0, 64, 62
1, 1415195, Control_c, 0, 67, 82
1, 1415211, Control_c, 0, 64, 47
1, 1415212, Control_c, 0, 67, 70
1, 1415229, Control_c, 0, 67, 57
1, 1415247, Control_c, 0, 67, 42
1, 1415268, Control_c, 0, 64, 50
1, 1415269, Control_c, 0, 67, 26
1, 1415285, Control_c, 0, 64, 59
1, 1415287, Control_c, 0, 67, 10
1, 1415304, Control_c, 0, 64, 66
1, 1415305, Control_c, 0, 67, 0
1, 1415322, Control_c, 0, 64, 75
1, 1415341, Control_c, 0, 64, 88
1, 1415360, Control_c, 0, 64, 104
1, 1415378, Control_c, 0, 64, 116
1, 1415397, Control_c, 0, 64, 123
1, 1415422, Control_c, 0, 64, 127
1, 1415472, Note_on_c, 0, 73, 0
1, 1416023, Note_on_c, 0, 73, 55
1, 1416059, Note_on_c, 0, 70, 24
1, 1416434, Note_on_c, 0, 77, 0
1, 1416530, Poly_aftertouch_c, 0, 70, 24
1, 1416601, Note_on_c, 0, 70, 0
1, 1416601, Poly_aftertouch_c, 0, 70, 0
1, 1417035, Note_on_c, 0, 70, 57
1, 1417047, Note_on_c, 0, 65, 35
1, 1417266, Note_on_c, 0, 73, 0
1, 1417455, Note_on_c, 0, 70, 0
1, 1417808, Note_on_c, 0, 65, 0
1, 1418060, Note_on_c, 0, 65, 59
1, 1418087, Note_on_c, 0, 61, 44
1, 1418671, Note_on_c, 0, 61, 0
1, 1418675, Control_c, 0, 67, 8
1, 1418694, Control_c, 0, 67, 13
1, 1418713, Control_c, 0, 67, 23
1, 1418731, Control_c, 0, 67, 32
1, 1418748, Control_c, 0, 67, 37
1, 1418786, Control_c, 0, 67, 44
1, 1418804, Control_c, 0, 67, 50
1, 1418823, Control_c, 0, 67, 56
1, 1418842, Control_c, 0, 67, 63
1, 1418860, Control_c, 0, 67, 68
1, 1418879, Control_c, 0, 67, 73
1, 1418898, Control_c, 0, 67, 77
1, 1418935, Control_c, 0, 67, 85
1, 1418954, Control_c, 0, 67, 90
1, 1418971, Control_c, 0, 67, 95
1, 1418990, Control_c, 0, 67, 100
1, 1419009, Control_c, 0, 67, 104
1, 1419046, Control_c, 0, 67, 110
1, 1419083, Control_c, 0, 67, 114
1, 1419220, Note_on_c, 0, 63, 57
1, 1419226, Note_on_c, 0, 61, 45
1, 1419242, Note_on_c, 0, 58, 35
1, 1419351, Control_c, 0, 67, 118
1, 1419407, Control_c, 0, 67, 123
1, 1419463, Control_c, 0, 64, 115
1, 1419463, Control_c, 0, 67, 127
1, 1419481, Control_c, 0, 64, 105
1, 1419502, Control_c, 0, 64, 96
1, 1419518, Control_c, 0, 64, 87
1, 1419520, Note_on_c, 0, 65, 0
1, 1419537, Control_c, 0, 64, 77
1, 1419558, Control_c, 0, 64, 68
1, 1419575, Control_c, 0, 64, 60
1, 1419594, Control_c, 0, 64, 56
1, 1419612, Control_c, 0, 64, 53
1, 1419630, Control_c, 0, 64, 51
1, 1419649, Control_c, 0, 64, 48
1, 1419685, Control_c, 0, 64, 45
1, 1419722, Control_c, 0, 64, 43
1, 1419750, Note_on_c, 0, 39, 58
1, 1419788, Note_on_c, 0, 39, 0
1, 1419816, Control_c, 0, 64, 41
1, 1419876, Note_on_c, 0, 39, 67
1, 1419883, Note_on_c, 0, 61, 0
1, 1419892, Note_on_c, 0, 63, 0
1, 1419908, Note_on_c, 0, 39, 0
1, 1419927, Note_on_c, 0, 58, 0
1, 1419982, Note_on_c, 0, 39, 74
1, 1420067, Note_on_c, 0, 39, 0
1, 1420140, Control_c, 0, 64, 48
1, 1420146, Note_on_c, 0, 44, 56
1, 1420152, Note_on_c, 0, 32, 48
1, 1420156, Note_on_c, 0, 58, 64
1, 1420159, Control_c, 0, 64, 54
1, 1420168, Note_on_c, 0, 63, 60
1, 1420172, Note_on_c, 0, 55, 45
1, 1420177, Control_c, 0, 64, 57
1, 1420220, Note_on_c, 0, 32, 0
1, 1420226, Note_on_c, 0, 44, 0
1, 1420271, Control_c, 0, 64, 53
1, 1420287, Control_c, 0, 64, 50
1, 1420307, Control_c, 0, 64, 47
1, 1420324, Control_c, 0, 64, 43
1, 1420344, Control_c, 0, 64, 41
1, 1420399, Control_c, 0, 64, 36
1, 1420473, Control_c, 0, 64, 32
1, 1420808, Control_c, 0, 64, 37
1, 1420826, Control_c, 0, 64, 45
1, 1420844, Control_c, 0, 64, 52
1, 1420863, Control_c, 0, 64, 65
1, 1420881, Control_c, 0, 64, 75
1, 1420899, Control_c, 0, 64, 82
1, 1420920, Control_c, 0, 64, 89
1, 1420937, Control_c, 0, 64, 97
1, 1420955, Control_c, 0, 64, 104
1, 1420975, Control_c, 0, 64, 111
1, 1420993, Control_c, 0, 64, 117
1, 1421011, Control_c, 0, 64, 122
1, 1421057, Control_c, 0, 64, 127
1, 1421210, Note_on_c, 0, 58, 0
1, 1421218, Note_on_c, 0, 63, 0
1, 1421612, Control_c, 0, 64, 121
1, 1421630, Control_c, 0, 64, 116
1, 1421636, Note_on_c, 0, 63, 40
1, 1421649, Note_on_c, 0, 61, 53
1, 1421651, Control_c, 0, 64, 108
1, 1421652, Note_on_c, 0, 58, 33
1, 1421660, Note_on_c, 0, 39, 52
1, 1421668, Control_c, 0, 64, 99
1, 1421687, Control_c, 0, 64, 87
1, 1421696, Note_on_c, 0, 39, 0
1, 1421706, Control_c, 0, 64, 74
1, 1421726, Control_c, 0, 64, 66
1, 1421743, Control_c, 0, 64, 64
1, 1421752, Note_on_c, 0, 55, 0
1, 1421762, Note_on_c, 0, 58, 0
1, 1421779, Control_c, 0, 64, 63
1, 1421786, Note_on_c, 0, 39, 66
1, 1421798, Control_c, 0, 64, 62
1, 1421813, Note_on_c, 0, 63, 0
1, 1421815, Control_c, 0, 64, 60
1, 1421824, Note_on_c, 0, 39, 0
1, 1421912, Note_on_c, 0, 39, 56
1, 1421963, Note_on_c, 0, 39, 0
1, 1422123, Control_c, 0, 64, 58
1, 1422155, Note_on_c, 0, 44, 34
1, 1422160, Note_on_c, 0, 32, 38
1, 1422160, Note_on_c, 0, 63, 51
1, 1422163, Note_on_c, 0, 60, 46
1, 1422164, Note_on_c, 0, 56, 28
1, 1422178, Control_c, 0, 64, 55
1, 1422196, Control_c, 0, 64, 53
1, 1422215, Note_on_c, 0, 61, 0
1, 1422216, Control_c, 0, 64, 49
1, 1422233, Control_c, 0, 64, 46
1, 1422250, Note_on_c, 0, 32, 0
1, 1422253, Control_c, 0, 64, 43
1, 1422254, Note_on_c, 0, 44, 0
1, 1422271, Control_c, 0, 64, 38
1, 1422290, Control_c, 0, 64, 30
1, 1422309, Control_c, 0, 64, 22
1, 1422328, Control_c, 0, 64, 15
1, 1422344, Control_c, 0, 64, 10
1, 1422382, Control_c, 0, 64, 0
1, 1422513, Control_c, 0, 64, 8
1, 1422530, Control_c, 0, 64, 26
1, 1422549, Control_c, 0, 64, 40
1, 1422567, Control_c, 0, 64, 57
1, 1422568, Control_c, 0, 67, 122
1, 1422586, Control_c, 0, 64, 74
1, 1422588, Control_c, 0, 67, 117
1, 1422605, Control_c, 0, 64, 85
1, 1422608, Control_c, 0, 67, 113
1, 1422623, Control_c, 0, 64, 98
1, 1422624, Control_c, 0, 67, 105
1, 1422642, Control_c, 0, 64, 113
1, 1422643, Control_c, 0, 67, 94
1, 1422658, Control_c, 0, 64, 127
1, 1422660, Control_c, 0, 67, 80
1, 1422676, Control_c, 0, 67, 64
1, 1422696, Control_c, 0, 67, 46
1, 1422714, Control_c, 0, 67, 30
1, 1422734, Control_c, 0, 67, 19
1, 1422750, Note_on_c, 0, 60, 0
1, 1422750, Control_c, 0, 67, 10
1, 1422757, Note_on_c, 0, 56, 0
1, 1422800, Note_on_c, 0, 63, 0
1, 1422808, Control_c, 0, 67, 0
1, 1423123, Note_on_c, 0, 63, 65
1, 1423143, Note_on_c, 0, 59, 45
1, 1423593, Note_on_c, 0, 65, 71
1, 1423647, Note_on_c, 0, 63, 0
1, 1423704, Note_on_c, 0, 59, 0
1, 1424223, Note_on_c, 0, 51, 27
1, 1424223, Note_on_c, 0, 66, 60
1, 1424233, Note_on_c, 0, 63, 40
1, 1424241, Note_on_c, 0, 58, 24
1, 1424281, Note_on_c, 0, 65, 0
1, 1424418, Control_c, 0, 64, 116
1, 1424438, Control_c, 0, 64, 87
1, 1424456, Control_c, 0, 64, 55
1, 1424475, Control_c, 0, 64, 29
1, 1424493, Control_c, 0, 64, 25
1, 1424569, Control_c, 0, 64, 33
1, 1424586, Control_c, 0, 64, 53
1, 1424604, Control_c, 0, 64, 74
1, 1424623, Control_c, 0, 64, 92
1, 1424643, Control_c, 0, 64, 112
1, 1424661, Control_c, 0, 64, 127
1, 1424897, Note_on_c, 0, 63, 0
1, 1424908, Note_on_c, 0, 58, 0
1, 1425209, Note_on_c, 0, 70, 71
1, 1425224, Note_on_c, 0, 65, 57
1, 1425227, Note_on_c, 0, 49, 45
1, 1425261, Note_on_c, 0, 58, 32
1, 1425263, Note_on_c, 0, 66, 0
1, 1425337, Control_c, 0, 64, 108
1, 1425352, Note_on_c, 0, 51, 0
1, 1425354, Control_c, 0, 64, 77
1, 1425373, Control_c, 0, 64, 50
1, 1425393, Control_c, 0, 64, 42
1, 1425449, Control_c, 0, 64, 53
1, 1425467, Control_c, 0, 64, 65
1, 1425486, Control_c, 0, 64, 79
1, 1425505, Control_c, 0, 64, 99
1, 1425521, Control_c, 0, 64, 122
1, 1425540, Control_c, 0, 64, 127
1, 1425777, Note_on_c, 0, 65, 0
1, 1425821, Note_on_c, 0, 58, 0
1, 1426268, Note_on_c, 0, 75, 81
1, 1426285, Note_on_c, 0, 66, 59
1, 1426298, Note_on_c, 0, 58, 47
1, 1426301, Note_on_c, 0, 48, 52
1, 1426350, Note_on_c, 0, 70, 0
1, 1426389, Note_on_c, 0, 49, 0
1, 1426475, Control_c, 0, 64, 108
1, 1426495, Control_c, 0, 64, 77
1, 1426512, Control_c, 0, 64, 47
1, 1426532, Control_c, 0, 64, 35
1, 1426586, Control_c, 0, 64, 49
1, 1426606, Control_c, 0, 64, 69
1, 1426624, Control_c, 0, 64, 91
1, 1426652, Control_c, 0, 64, 120
1, 1426669, Control_c, 0, 64, 127
1, 1427020, Note_on_c, 0, 75, 0
1, 1427079, Note_on_c, 0, 66, 0
1, 1427225, Note_on_c, 0, 58, 0
1, 1427310, Note_on_c, 0, 77, 87
1, 1427321, Note_on_c, 0, 65, 72
1, 1427327, Note_on_c, 0, 75, 71
1, 1427335, Note_on_c, 0, 47, 51
1, 1427344, Note_on_c, 0, 57, 47
1, 1427455, Note_on_c, 0, 48, 0
1, 1427462, Poly_aftertouch_c, 0, 50, 0
1, 1427487, Control_c, 0, 64, 113
1, 1427504, Control_c, 0, 64, 84
1, 1427524, Control_c, 0, 64, 53
1, 1427543, Control_c, 0, 64, 30
1, 1427561, Control_c, 0, 64, 26
1, 1427588, Control_c, 0, 64, 17
1, 1427605, Control_c, 0, 64, 12
1, 1427662, Control_c, 0, 64, 30
1, 1427680, Control_c, 0, 64, 47
1, 1427699, Control_c, 0, 64, 65
1, 1427716, Control_c, 0, 64, 83
1, 1427736, Control_c, 0, 64, 102
1, 1427753, Control_c, 0, 64, 121
1, 1427773, Control_c, 0, 64, 127
1, 1427969, Note_on_c, 0, 57, 0
1, 1428044, Note_on_c, 0, 77, 0
1, 1428094, Note_on_c, 0, 65, 0
1, 1428266, Note_on_c, 0, 75, 0
1, 1428772, Note_on_c, 0, 77, 83
1, 1428783, Note_on_c, 0, 46, 38
1, 1428789, Note_on_c, 0, 74, 65
1, 1428795, Note_on_c, 0, 65, 57
1, 1428812, Note_on_c, 0, 58, 42
1, 1428858, Note_on_c, 0, 47, 0
1, 1428931, Control_c, 0, 64, 107
1, 1428950, Control_c, 0, 64, 76
1, 1428968, Control_c, 0, 64, 41
1, 1428986, Control_c, 0, 64, 17
1, 1429022, Control_c, 0, 64, 13
1, 1429097, Control_c, 0, 64, 36
1, 1429117, Control_c, 0, 64, 56
1, 1429118, Control_c, 0, 67, 8
1, 1429135, Control_c, 0, 64, 75
1, 1429154, Control_c, 0, 64, 90
1, 1429173, Control_c, 0, 64, 104
1, 1429174, Control_c, 0, 67, 12
1, 1429191, Control_c, 0, 64, 115
1, 1429207, Control_c, 0, 64, 122
1, 1429208, Control_c, 0, 67, 21
1, 1429209, Note_on_c, 0, 58, 0
1, 1429226, Control_c, 0, 67, 31
1, 1429228, Note_on_c, 0, 46, 0
1, 1429245, Control_c, 0, 64, 127
1, 1429247, Control_c, 0, 67, 39
1, 1429265, Control_c, 0, 67, 43
1, 1429301, Control_c, 0, 67, 51
1, 1429321, Control_c, 0, 67, 56
1, 1429338, Control_c, 0, 67, 61
1, 1429358, Control_c, 0, 67, 67
1, 1429376, Control_c, 0, 67, 73
1, 1429392, Control_c, 0, 67, 78
1, 1429412, Control_c, 0, 67, 85
1, 1429430, Control_c, 0, 67, 92
1, 1429459, Control_c, 0, 67, 102
1, 1429477, Control_c, 0, 67, 112
1, 1429496, Control_c, 0, 67, 119
1, 1429514, Control_c, 0, 67, 125
1, 1429744, Note_on_c, 0, 74, 0
1, 1429788, Note_on_c, 0, 65, 0
1, 1430162, Control_c, 0, 64, 115
1, 1430168, Note_on_c, 0, 34, 74
1, 1430169, Note_on_c, 0, 65, 42
1, 1430179, Control_c, 0, 64, 100
1, 1430184, Note_on_c, 0, 74, 64
1, 1430195, Note_on_c, 0, 70, 45
1, 1430198, Control_c, 0, 64, 84
1, 1430214, Note_on_c, 0, 34, 0
1, 1430218, Control_c, 0, 64, 69
1, 1430225, Note_on_c, 0, 77, 0
1, 1430237, Control_c, 0, 64, 61
1, 1430256, Control_c, 0, 64, 60
1, 1430296, Note_on_c, 0, 34, 68
1, 1430313, Control_c, 0, 64, 58
1, 1430339, Note_on_c, 0, 34, 0
1, 1430340, Note_on_c, 0, 70, 0
1, 1430346, Control_c, 0, 64, 55
1, 1430393, Note_on_c, 0, 65, 0
1, 1430393, Control_c, 0, 64, 52
1, 1430430, Note_on_c, 0, 34, 73
1, 1430450, Control_c, 0, 64, 50
1, 1430483, Note_on_c, 0, 34, 0
1, 1430560, Control_c, 0, 64, 48
1, 1430621, Note_on_c, 0, 46, 54
1, 1430637, Note_on_c, 0, 65, 36
1, 1430649, Note_on_c, 0, 70, 59
1, 1430661, Note_on_c, 0, 62, 44
1, 1430673, Control_c, 0, 64, 46
1, 1430707, Control_c, 0, 64, 42
1, 1430746, Control_c, 0, 64, 35
1, 1430749, Note_on_c, 0, 74, 0
1, 1430764, Control_c, 0, 64, 30
1, 1430783, Control_c, 0, 64, 25
1, 1430784, Control_c, 0, 67, 117
1, 1430802, Control_c, 0, 67, 113
1, 1430821, Control_c, 0, 64, 21
1, 1430821, Control_c, 0, 67, 109
1, 1430838, Control_c, 0, 67, 102
1, 1430858, Control_c, 0, 67, 88
1, 1430877, Control_c, 0, 64, 29
1, 1430878, Control_c, 0, 67, 70
1, 1430894, Control_c, 0, 64, 41
1, 1430895, Control_c, 0, 67, 50
1, 1430896, Note_on_c, 0, 46, 0
1, 1430912, Control_c, 0, 64, 53
1, 1430913, Control_c, 0, 67, 30
1, 1430931, Control_c, 0, 64, 67
1, 1430933, Control_c, 0, 67, 13
1, 1430949, Control_c, 0, 64, 80
1, 1430969, Control_c, 0, 64, 93
1, 1430971, Control_c, 0, 67, 0
1, 1430987, Control_c, 0, 64, 105
1, 1431006, Control_c, 0, 64, 117
1, 1431025, Control_c, 0, 64, 126
1, 1431168, Note_on_c, 0, 62, 0
1, 1431290, Note_on_c, 0, 65, 0
1, 1431308, Note_on_c, 0, 70, 0
1, 1431866, Control_c, 0, 64, 110
1, 1431870, Note_on_c, 0, 70, 54
1, 1431873, Note_on_c, 0, 58, 40
1, 1431886, Control_c, 0, 64, 83
1, 1431904, Control_c, 0, 64, 69
1, 1431923, Control_c, 0, 64, 71
1, 1431942, Control_c, 0, 64, 76
1, 1431960, Control_c, 0, 64, 85
1, 1431980, Control_c, 0, 64, 99
1, 1431997, Control_c, 0, 64, 117
1, 1432014, Control_c, 0, 64, 127
1, 1432069, Note_on_c, 0, 70, 0
1, 1432202, Note_on_c, 0, 72, 70
1, 1432202, Note_on_c, 0, 69, 52
1, 1432203, Note_on_c, 0, 57, 54
1, 1432212, Note_on_c, 0, 70, 66
1, 1432226, Note_on_c, 0, 58, 0
1, 1432315, Note_on_c, 0, 69, 0
1, 1432319, Note_on_c, 0, 57, 0
1, 1432375, Note_on_c, 0, 70, 0
1, 1432385, Note_on_c, 0, 72, 0
1, 1432458, Note_on_c, 0, 74, 84
1, 1432468, Note_on_c, 0, 70, 72
1, 1432474, Note_on_c, 0, 68, 66
1, 1432483, Note_on_c, 0, 56, 63
1, 1432529, Note_on_c, 0, 70, 0
1, 1432551, Note_on_c, 0, 74, 0
1, 1432553, Note_on_c, 0, 56, 0
1, 1432574, Note_on_c, 0, 68, 0
1, 1432768, Note_on_c, 0, 75, 86
1, 1432781, Note_on_c, 0, 70, 79
1, 1432785, Note_on_c, 0, 66, 72
1, 1432789, Note_on_c, 0, 54, 66
1, 1432876, Control_c, 0, 64, 99
1, 1432896, Control_c, 0, 64, 62
1, 1432914, Control_c, 0, 64, 15
1, 1432933, Control_c, 0, 64, 0
1, 1433005, Control_c, 0, 64, 12
1, 1433025, Control_c, 0, 64, 42
1, 1433043, Control_c, 0, 64, 63
1, 1433062, Control_c, 0, 64, 84
1, 1433081, Control_c, 0, 64, 106
1, 1433099, Control_c, 0, 64, 127
1, 1433319, Note_on_c, 0, 54, 0
1, 1433347, Note_on_c, 0, 66, 0
1, 1433380, Note_on_c, 0, 70, 0
1, 1433412, Note_on_c, 0, 75, 0
1, 1433684, Note_on_c, 0, 78, 92
1, 1433687, Note_on_c, 0, 75, 90
1, 1433688, Note_on_c, 0, 70, 88
1, 1433688, Note_on_c, 0, 63, 90
1, 1433689, Note_on_c, 0, 51, 81
1, 1433719, Control_c, 0, 64, 118
1, 1433737, Control_c, 0, 64, 78
1, 1433757, Control_c, 0, 64, 26
1, 1433775, Control_c, 0, 64, 0
1, 1433868, Control_c, 0, 64, 33
1, 1433886, Control_c, 0, 64, 65
1, 1433904, Control_c, 0, 64, 94
1, 1433923, Control_c, 0, 64, 126
1, 1434086, Note_on_c, 0, 70, 0
1, 1434099, Note_on_c, 0, 63, 0
1, 1434145, Note_on_c, 0, 75, 0
1, 1434151, Note_on_c, 0, 51, 0
1, 1434157, Note_on_c, 0, 78, 0
1, 1434600, Note_on_c, 0, 82, 96
1, 1434602, Note_on_c, 0, 61, 96
1, 1434603, Note_on_c, 0, 70, 95
1, 1434606, Note_on_c, 0, 49, 87
1, 1434608, Note_on_c, 0, 77, 88
1, 1434654, Control_c, 0, 64, 106
1, 1434673, Control_c, 0, 64, 66
1, 1434692, Control_c, 0, 64, 0
1, 1434786, Control_c, 0, 64, 36
1, 1434804, Control_c, 0, 64, 68
1, 1434822, Control_c, 0, 64, 102
1, 1434840, Control_c, 0, 64, 127
1, 1435030, Note_on_c, 0, 70, 0
1, 1435035, Note_on_c, 0, 49, 0
1, 1435039, Note_on_c, 0, 82, 0
1, 1435137, Note_on_c, 0, 77, 0
1, 1435254, Note_on_c, 0, 61, 0
1, 1435707, Note_on_c, 0, 84, 96
1, 1435708, Note_on_c, 0, 72, 99
1, 1435712, Note_on_c, 0, 76, 88
1, 1435712, Note_on_c, 0, 82, 87
1, 1435713, Note_on_c, 0, 60, 102
1, 1435715, Note_on_c, 0, 48, 90
1, 1435717, Note_on_c, 0, 79, 84
1, 1435776, Control_c, 0, 64, 89
1, 1435795, Control_c, 0, 64, 36
1, 1435812, Control_c, 0, 64, 0
1, 1435906, Control_c, 0, 64, 10
1, 1435926, Control_c, 0, 64, 44
1, 1435942, Control_c, 0, 64, 77
1, 1435961, Control_c, 0, 64, 104
1, 1435979, Control_c, 0, 64, 127
1, 1436034, Note_on_c, 0, 48, 0
1, 1436088, Note_on_c, 0, 60, 0
1, 1436120, Note_on_c, 0, 84, 0
1, 1436156, Note_on_c, 0, 72, 0
1, 1436294, Note_on_c, 0, 76, 0
1, 1436315, Note_on_c, 0, 82, 0
1, 1436324, Note_on_c, 0, 79, 0
1, 1437002, Note_on_c, 0, 89, 98
1, 1437004, Note_on_c, 0, 77, 103
1, 1437007, Note_on_c, 0, 80, 101
1, 1437007, Note_on_c, 0, 53, 101
1, 1437009, Note_on_c, 0, 41, 88
1, 1437011, Note_on_c, 0, 84, 90
1, 1437072, Control_c, 0, 64, 122
1, 1437092, Control_c, 0, 64, 78
1, 1437110, Control_c, 0, 64, 14
1, 1437118, Poly_aftertouch_c, 0, 86, 0
1, 1437126, Control_c, 0, 64, 0
1, 1437127, Control_c, 0, 67, 10
1, 1437146, Control_c, 0, 67, 16
1, 1437222, Control_c, 0, 64, 35
1, 1437241, Control_c, 0, 64, 65
1, 1437257, Control_c, 0, 64, 87
1, 1437276, Control_c, 0, 64, 108
1, 1437285, Note_on_c, 0, 41, 0
1, 1437294, Control_c, 0, 64, 127
1, 1437329, Note_on_c, 0, 53, 0
1, 1437388, Control_c, 0, 67, 12
1, 1437832, Control_c, 0, 67, 8
1, 1438047, Note_on_c, 0, 89, 0
1, 1438114, Note_on_c, 0, 84, 0
1, 1438150, Note_on_c, 0, 80, 0
1, 1438159, Note_on_c, 0, 77, 0
1, 1438346, Note_on_c, 0, 29, 84
1, 1438386, Note_on_c, 0, 29, 0
1, 1438457, Note_on_c, 0, 29, 89
1, 1438520, Note_on_c, 0, 29, 0
1, 1438556, Note_on_c, 0, 29, 73
1, 1438707, Note_on_c, 0, 77, 89
1, 1438711, Note_on_c, 0, 68, 89
1, 1438712, Note_on_c, 0, 65, 93
1, 1438712, Note_on_c, 0, 41, 96
1, 1438716, Note_on_c, 0, 72, 83
1, 1438755, Note_on_c, 0, 29, 0
1, 1438811, Note_on_c, 0, 41, 0
1, 1439205, Note_on_c, 0, 65, 0
1, 1439243, Note_on_c, 0, 77, 0
1, 1439327, Note_on_c, 0, 68, 0
1, 1439328, Note_on_c, 0, 72, 0
1, 1440029, Control_c, 0, 64, 123
1, 1440047, Control_c, 0, 64, 117
1, 1440065, Control_c, 0, 64, 108
1, 1440084, Control_c, 0, 64, 97
1, 1440102, Control_c, 0, 64, 84
1, 1440120, Control_c, 0, 64, 71
1, 1440139, Control_c, 0, 64, 63
1, 1440147, Note_on_c, 0, 77, 94
1, 1440158, Control_c, 0, 64, 60
1, 1440189, Note_on_c, 0, 77, 0
1, 1440195, Control_c, 0, 64, 57
1, 1440233, Control_c, 0, 64, 55
1, 1440246, Note_on_c, 0, 77, 91
1, 1440298, Note_on_c, 0, 77, 0
1, 1440350, Note_on_c, 0, 77, 90
1, 1440431, Note_on_c, 0, 77, 0
1, 1440453, Control_c, 0, 64, 53
1, 1440477, Note_on_c, 0, 85, 99
1, 1440480, Note_on_c, 0, 73, 102
1, 1440481, Note_on_c, 0, 71, 99
1, 1440482, Note_on_c, 0, 80, 92
1, 1440484, Note_on_c, 0, 68, 91
1, 1440486, Note_on_c, 0, 59, 80
1, 1440492, Note_on_c, 0, 65, 82
1, 1440517, Control_c, 0, 64, 50
1, 1440528, Control_c, 0, 64, 48
1, 1440547, Control_c, 0, 64, 46
1, 1440565, Control_c, 0, 64, 42
1, 1440604, Control_c, 0, 64, 36
1, 1440639, Control_c, 0, 64, 32
1, 1440686, Control_c, 0, 64, 28
1, 1440723, Control_c, 0, 64, 24
1, 1440760, Control_c, 0, 64, 17
1, 1440797, Control_c, 0, 64, 11
1, 1440945, Control_c, 0, 64, 27
1, 1440964, Control_c, 0, 64, 37
1, 1440983, Control_c, 0, 64, 51
1, 1441000, Control_c, 0, 64, 70
1, 1441018, Control_c, 0, 64, 83
1, 1441037, Control_c, 0, 64, 95
1, 1441058, Control_c, 0, 64, 105
1, 1441075, Control_c, 0, 64, 116
1, 1441093, Control_c, 0, 64, 124
1, 1441335, Note_on_c, 0, 59, 0
1, 1441475, Poly_aftertouch_c, 0, 71, 24
1, 1441571, Note_on_c, 0, 71, 0
1, 1441571, Poly_aftertouch_c, 0, 71, 0
1, 1441604, Poly_aftertouch_c, 0, 65, 24
1, 1441664, Note_on_c, 0, 65, 0
1, 1441664, Poly_aftertouch_c, 0, 65, 0
1, 1441671, Poly_aftertouch_c, 0, 68, 24
1, 1441687, Poly_aftertouch_c, 0, 77, 0
1, 1441731, Note_on_c, 0, 85, 0
1, 1441814, Note_on_c, 0, 68, 0
1, 1441814, Poly_aftertouch_c, 0, 68, 0
1, 1441867, Note_on_c, 0, 73, 0
1, 1441930, Poly_aftertouch_c, 0, 80, 22
1, 1441985, Note_on_c, 0, 80, 0
1, 1441985, Poly_aftertouch_c, 0, 80, 0
1, 1442038, Note_on_c, 0, 84, 96
1, 1442040, Note_on_c, 0, 72, 106
1, 1442041, Note_on_c, 0, 76, 100
1, 1442045, Note_on_c, 0, 70, 96
1, 1442046, Control_c, 0, 64, 96
1, 1442048, Note_on_c, 0, 60, 82
1, 1442049, Note_on_c, 0, 67, 88
1, 1442069, Control_c, 0, 64, 47
1, 1442084, Control_c, 0, 64, 0
1, 1442158, Control_c, 0, 64, 23
1, 1442177, Control_c, 0, 64, 47
1, 1442181, Note_on_c, 0, 60, 0
1, 1442196, Control_c, 0, 64, 72
1, 1442214, Control_c, 0, 64, 87
1, 1442223, Note_on_c, 0, 70, 0
1, 1442232, Control_c, 0, 64, 102
1, 1442252, Control_c, 0, 64, 114
1, 1442270, Control_c, 0, 64, 123
1, 1442289, Control_c, 0, 64, 127
1, 1442310, Note_on_c, 0, 67, 0
1, 1442854, Control_c, 0, 64, 109
1, 1442872, Control_c, 0, 64, 74
1, 1442889, Control_c, 0, 64, 29
1, 1442908, Control_c, 0, 64, 0
1, 1443002, Control_c, 0, 64, 25
1, 1443020, Control_c, 0, 64, 45
1, 1443039, Control_c, 0, 64, 66
1, 1443057, Control_c, 0, 64, 82
1, 1443075, Control_c, 0, 64, 96
1, 1443093, Control_c, 0, 64, 109
1, 1443113, Control_c, 0, 64, 119
1, 1443125, Note_on_c, 0, 84, 0
1, 1443131, Control_c, 0, 64, 127
1, 1443164, Note_on_c, 0, 76, 0
1, 1443169, Note_on_c, 0, 29, 87
1, 1443195, Note_on_c, 0, 72, 0
1, 1443212, Note_on_c, 0, 29, 0
1, 1443283, Note_on_c, 0, 29, 90
1, 1443345, Note_on_c, 0, 29, 0
1, 1443389, Note_on_c, 0, 29, 72
1, 1443531, Control_c, 0, 67, 0
1, 1443531, Note_on_c, 0, 80, 91
1, 1443531, Note_on_c, 0, 41, 107
1, 1443532, Note_on_c, 0, 68, 101
1, 1443537, Note_on_c, 0, 77, 88
1, 1443538, Note_on_c, 0, 72, 91
1, 1443574, Note_on_c, 0, 29, 0
1, 1443578, Note_on_c, 0, 41, 0
1, 1443656, Poly_aftertouch_c, 0, 31, 0
1, 1443771, Control_c, 0, 64, 121
1, 1443790, Control_c, 0, 64, 103
1, 1443807, Control_c, 0, 64, 82
1, 1443824, Control_c, 0, 64, 65
1, 1443844, Control_c, 0, 64, 56
1, 1443863, Control_c, 0, 64, 54
1, 1443882, Control_c, 0, 64, 51
1, 1443900, Control_c, 0, 64, 48
1, 1443919, Control_c, 0, 64, 45
1, 1443956, Control_c, 0, 64, 43
1, 1444086, Control_c, 0, 64, 41
1, 1444751, Note_on_c, 0, 29, 85
1, 1444789, Note_on_c, 0, 29, 0
1, 1444863, Note_on_c, 0, 29, 86
1, 1444906, Note_on_c, 0, 29, 0
1, 1444961, Note_on_c, 0, 29, 82
1, 1445103, Note_on_c, 0, 41, 98
1, 1445113, Control_c, 0, 64, 36
1, 1445131, Control_c, 0, 64, 31
1, 1445149, Control_c, 0, 64, 16
1, 1445169, Control_c, 0, 64, 0
1, 1445240, Note_on_c, 0, 29, 0
1, 1445263, Control_c, 0, 64, 35
1, 1445280, Note_on_c, 0, 41, 0
1, 1445281, Control_c, 0, 64, 61
1, 1445298, Control_c, 0, 64, 88
1, 1445318, Control_c, 0, 64, 112
1, 1445318, Control_c, 0, 67, 12
1, 1445335, Control_c, 0, 64, 127
1, 1445338, Control_c, 0, 67, 23
1, 1445364, Control_c, 0, 67, 37
1, 1445382, Control_c, 0, 67, 47
1, 1445456, Control_c, 0, 67, 41
1, 1445476, Control_c, 0, 67, 36
1, 1445491, Control_c, 0, 67, 29
1, 1445511, Control_c, 0, 67, 24
1, 1445529, Control_c, 0, 67, 20
1, 1445549, Control_c, 0, 67, 15
1, 1445586, Control_c, 0, 67, 0
1, 1445676, Note_on_c, 0, 68, 0
1, 1445705, Note_on_c, 0, 80, 0
1, 1445714, Note_on_c, 0, 77, 0
1, 1445734, Note_on_c, 0, 72, 0
1, 1445846, Control_c, 0, 64, 121
1, 1445863, Control_c, 0, 64, 93
1, 1445882, Control_c, 0, 64, 61
1, 1445901, Control_c, 0, 64, 34
1, 1445920, Control_c, 0, 64, 26
1, 1445994, Control_c, 0, 64, 22
1, 1446228, Note_on_c, 0, 77, 88
1, 1446236, Note_on_c, 0, 65, 81
1, 1446269, Note_on_c, 0, 65, 0
1, 1446273, Note_on_c, 0, 77, 0
1, 1446337, Note_on_c, 0, 65, 84
1, 1446345, Note_on_c, 0, 77, 91
1, 1446394, Note_on_c, 0, 77, 0
1, 1446396, Note_on_c, 0, 65, 0
1, 1446446, Note_on_c, 0, 77, 89
1, 1446465, Note_on_c, 0, 65, 45
1, 1446551, Note_on_c, 0, 65, 0
1, 1446551, Note_on_c, 0, 65, 35
1, 1446558, Note_on_c, 0, 61, 83
1, 1446559, Note_on_c, 0, 73, 104
1, 1446559, Note_on_c, 0, 85, 101
1, 1446560, Note_on_c, 0, 58, 75
1, 1446564, Note_on_c, 0, 66, 88
1, 1446595, Note_on_c, 0, 80, 53
1, 1446611, Note_on_c, 0, 65, 0
1, 1446623, Note_on_c, 0, 80, 0
1, 1446708, Control_c, 0, 64, 16
1, 1446744, Control_c, 0, 64, 10
1, 1446781, Control_c, 0, 64, 0
1, 1446968, Control_c, 0, 64, 24
1, 1446983, Control_c, 0, 64, 47
1, 1447003, Control_c, 0, 64, 74
1, 1447021, Control_c, 0, 64, 93
1, 1447040, Control_c, 0, 64, 115
1, 1447058, Control_c, 0, 64, 125
1, 1447256, Note_on_c, 0, 58, 0
1, 1447323, Note_on_c, 0, 85, 0
1, 1447467, Note_on_c, 0, 66, 0
1, 1447502, Note_on_c, 0, 73, 0
1, 1447505, Note_on_c, 0, 77, 0
1, 1447534, Note_on_c, 0, 61, 0
1, 1448083, Note_on_c, 0, 84, 97
1, 1448085, Note_on_c, 0, 72, 103
1, 1448090, Note_on_c, 0, 76, 96
1, 1448090, Note_on_c, 0, 67, 89
1, 1448091, Note_on_c, 0, 70, 97
1, 1448091, Note_on_c, 0, 60, 86
1, 1448163, Control_c, 0, 64, 83
1, 1448191, Control_c, 0, 64, 42
1, 1448209, Control_c, 0, 64, 0
1, 1448319, Control_c, 0, 64, 40
1, 1448339, Control_c, 0, 64, 68
1, 1448358, Control_c, 0, 64, 85
1, 1448375, Control_c, 0, 64, 100
1, 1448395, Control_c, 0, 64, 112
1, 1448413, Control_c, 0, 64, 127
1, 1448498, Note_on_c, 0, 70, 0
1, 1448570, Note_on_c, 0, 60, 0
1, 1448602, Note_on_c, 0, 67, 0
1, 1448987, Control_c, 0, 64, 110
1, 1449008, Control_c, 0, 64, 79
1, 1449025, Control_c, 0, 64, 43
1, 1449042, Control_c, 0, 64, 0
1, 1449163, Control_c, 0, 64, 15
1, 1449182, Control_c, 0, 64, 38
1, 1449201, Control_c, 0, 64, 60
1, 1449220, Control_c, 0, 64, 79
1, 1449236, Control_c, 0, 64, 94
1, 1449255, Control_c, 0, 64, 113
1, 1449265, Note_on_c, 0, 29, 83
1, 1449266, Note_on_c, 0, 76, 0
1, 1449273, Control_c, 0, 64, 127
1, 1449279, Note_on_c, 0, 72, 0
1, 1449298, Note_on_c, 0, 29, 0
1, 1449317, Note_on_c, 0, 84, 0
1, 1449371, Note_on_c, 0, 29, 88
1, 1449414, Note_on_c, 0, 29, 0
1, 1449473, Note_on_c, 0, 29, 81
1, 1449590, Note_on_c, 0, 41, 106
1, 1449601, Note_on_c, 0, 89, 97
1, 1449604, Note_on_c, 0, 81, 99
1, 1449604, Note_on_c, 0, 77, 101
1, 1449606, Note_on_c, 0, 84, 94
1, 1449619, Note_on_c, 0, 29, 0
1, 1449628, Note_on_c, 0, 31, 59
1, 1449636, Note_on_c, 0, 41, 0
1, 1449670, Note_on_c, 0, 31, 0
1, 1449718, Poly_aftertouch_c, 0, 86, 0
1, 1449849, Control_c, 0, 64, 115
1, 1449866, Control_c, 0, 64, 93
1, 1449886, Control_c, 0, 64, 70
1, 1449904, Control_c, 0, 64, 52
1, 1449922, Control_c, 0, 64, 43
1, 1449940, Control_c, 0, 64, 40
1, 1449979, Control_c, 0, 64, 32
1, 1450014, Control_c, 0, 64, 27
1, 1450869, Note_on_c, 0, 29, 73
1, 1450907, Note_on_c, 0, 29, 0
1, 1450945, Poly_aftertouch_c, 0, 28, 0
1, 1450987, Note_on_c, 0, 29, 84
1, 1451024, Note_on_c, 0, 29, 0
1, 1451078, Note_on_c, 0, 29, 80
1, 1451145, Control_c, 0, 64, 19
1, 1451155, Poly_aftertouch_c, 0, 28, 0
1, 1451164, Control_c, 0, 64, 0
1, 1451219, Note_on_c, 0, 41, 95
1, 1451255, Control_c, 0, 64, 27
1, 1451275, Control_c, 0, 64, 51
1, 1451277, Control_c, 0, 67, 8
1, 1451291, Note_on_c, 0, 29, 0
1, 1451293, Control_c, 0, 64, 82
1, 1451298, Note_on_c, 0, 41, 0
1, 1451312, Control_c, 0, 64, 110
1, 1451330, Control_c, 0, 64, 127
1, 1451478, Control_c, 0, 67, 13
1, 1451495, Note_on_c, 0, 89, 0
1, 1451496, Control_c, 0, 67, 18
1, 1451517, Control_c, 0, 67, 23
1, 1451535, Control_c, 0, 67, 33
1, 1451553, Control_c, 0, 67, 44
1, 1451574, Control_c, 0, 67, 53
1, 1451590, Control_c, 0, 67, 59
1, 1451592, Note_on_c, 0, 81, 0
1, 1451595, Note_on_c, 0, 84, 0
1, 1451607, Control_c, 0, 67, 64
1, 1451618, Note_on_c, 0, 77, 0
1, 1451625, Control_c, 0, 67, 70
1, 1451645, Control_c, 0, 67, 76
1, 1451663, Control_c, 0, 64, 115
1, 1451665, Control_c, 0, 67, 81
1, 1451682, Control_c, 0, 64, 103
1, 1451683, Control_c, 0, 67, 86
1, 1451701, Control_c, 0, 64, 90
1, 1451702, Control_c, 0, 67, 91
1, 1451721, Control_c, 0, 64, 77
1, 1451722, Control_c, 0, 67, 96
1, 1451739, Control_c, 0, 64, 69
1, 1451741, Control_c, 0, 67, 101
1, 1451757, Control_c, 0, 64, 65
1, 1451758, Control_c, 0, 67, 105
1, 1451776, Control_c, 0, 64, 61
1, 1451779, Control_c, 0, 67, 111
1, 1451793, Control_c, 0, 64, 56
1, 1451795, Control_c, 0, 67, 116
1, 1451812, Control_c, 0, 64, 48
1, 1451830, Control_c, 0, 64, 41
1, 1451831, Control_c, 0, 67, 123
1, 1451850, Control_c, 0, 64, 35
1, 1451851, Control_c, 0, 67, 127
1, 1451868, Control_c, 0, 64, 31
1, 1451905, Control_c, 0, 64, 26
1, 1452173, Control_c, 0, 64, 36
1, 1452191, Control_c, 0, 64, 42
1, 1452211, Control_c, 0, 64, 50
1, 1452229, Control_c, 0, 64, 63
1, 1452248, Control_c, 0, 64, 70
1, 1452266, Control_c, 0, 64, 72
1, 1452285, Control_c, 0, 64, 76
1, 1452304, Control_c, 0, 64, 84
1, 1452322, Control_c, 0, 64, 94
1, 1452341, Control_c, 0, 64, 102
1, 1452358, Control_c, 0, 64, 107
1, 1452377, Control_c, 0, 64, 112
1, 1452395, Control_c, 0, 64, 117
1, 1452400, Note_on_c, 0, 66, 53
1, 1452414, Control_c, 0, 64, 121
1, 1452415, Note_on_c, 0, 63, 43
1, 1452432, Control_c, 0, 64, 125
1, 1452886, Note_on_c, 0, 63, 0
1, 1453408, Note_on_c, 0, 63, 56
1, 1453445, Note_on_c, 0, 60, 45
1, 1453716, Note_on_c, 0, 66, 0
1, 1453916, Note_on_c, 0, 60, 0
1, 1454321, Note_on_c, 0, 60, 64
1, 1454329, Note_on_c, 0, 57, 45
1, 1454640, Note_on_c, 0, 63, 0
1, 1454760, Control_c, 0, 67, 123
1, 1454768, Note_on_c, 0, 60, 0
1, 1454794, Control_c, 0, 67, 118
1, 1454832, Control_c, 0, 67, 111
1, 1454850, Control_c, 0, 67, 105
1, 1454869, Control_c, 0, 67, 99
1, 1454887, Control_c, 0, 67, 90
1, 1454907, Control_c, 0, 67, 79
1, 1454925, Control_c, 0, 67, 67
1, 1454944, Control_c, 0, 67, 55
1, 1454963, Control_c, 0, 67, 42
1, 1454979, Control_c, 0, 67, 30
1, 1454998, Control_c, 0, 67, 19
1, 1455016, Control_c, 0, 67, 9
1, 1455023, Note_on_c, 0, 57, 0
1, 1455054, Control_c, 0, 67, 0
1, 1455256, Note_on_c, 0, 57, 63
1, 1455261, Note_on_c, 0, 54, 49
1, 1455647, Control_c, 0, 67, 10
1, 1455675, Control_c, 0, 67, 17
1, 1455694, Control_c, 0, 67, 25
1, 1455709, Note_on_c, 0, 54, 0
1, 1455712, Control_c, 0, 67, 35
1, 1455729, Control_c, 0, 67, 45
1, 1455749, Control_c, 0, 67, 55
1, 1455767, Control_c, 0, 67, 64
1, 1455786, Control_c, 0, 67, 73
1, 1455804, Control_c, 0, 67, 82
1, 1455823, Control_c, 0, 67, 90
1, 1455842, Control_c, 0, 67, 99
1, 1455861, Control_c, 0, 67, 106
1, 1455879, Control_c, 0, 67, 112
1, 1455898, Control_c, 0, 67, 117
1, 1455915, Control_c, 0, 67, 122
1, 1455934, Control_c, 0, 67, 127
1, 1456306, Note_on_c, 0, 54, 65
1, 1456311, Note_on_c, 0, 51, 48
1, 1456448, Note_on_c, 0, 57, 0
1, 1456507, Control_c, 0, 64, 117
1, 1456527, Control_c, 0, 64, 104
1, 1456546, Control_c, 0, 64, 88
1, 1456564, Control_c, 0, 64, 72
1, 1456583, Control_c, 0, 64, 61
1, 1456612, Control_c, 0, 64, 57
1, 1456649, Control_c, 0, 64, 53
1, 1456665, Control_c, 0, 64, 49
1, 1456684, Control_c, 0, 64, 47
1, 1456702, Control_c, 0, 64, 45
1, 1456743, Note_on_c, 0, 29, 59
1, 1456759, Control_c, 0, 64, 43
1, 1456782, Note_on_c, 0, 29, 0
1, 1456797, Control_c, 0, 64, 41
1, 1456841, Note_on_c, 0, 29, 67
1, 1456884, Note_on_c, 0, 54, 0
1, 1456887, Note_on_c, 0, 29, 0
1, 1456905, Note_on_c, 0, 51, 0
1, 1456905, Control_c, 0, 64, 48
1, 1456925, Control_c, 0, 64, 57
1, 1456944, Control_c, 0, 64, 68
1, 1456964, Control_c, 0, 64, 80
1, 1456965, Note_on_c, 0, 29, 74
1, 1456983, Control_c, 0, 64, 92
1, 1457001, Control_c, 0, 64, 106
1, 1457018, Control_c, 0, 64, 118
1, 1457020, Note_on_c, 0, 29, 0
1, 1457036, Control_c, 0, 64, 126
1, 1457177, Note_on_c, 0, 54, 72
1, 1457180, Note_on_c, 0, 41, 46
1, 1457190, Note_on_c, 0, 51, 60
1, 1457277, Control_c, 0, 64, 113
1, 1457296, Control_c, 0, 64, 94
1, 1457314, Control_c, 0, 64, 70
1, 1457333, Control_c, 0, 64, 47
1, 1457353, Control_c, 0, 64, 36
1, 1457443, Control_c, 0, 64, 49
1, 1457463, Control_c, 0, 64, 64
1, 1457481, Control_c, 0, 64, 77
1, 1457500, Control_c, 0, 64, 87
1, 1457520, Control_c, 0, 64, 95
1, 1457546, Control_c, 0, 64, 100
1, 1457557, Note_on_c, 0, 41, 0
1, 1457584, Control_c, 0, 64, 107
1, 1457842, Control_c, 0, 64, 102
1, 1457898, Control_c, 0, 64, 97
1, 1457936, Control_c, 0, 64, 91
1, 1457954, Control_c, 0, 64, 87
1, 1457971, Control_c, 0, 64, 81
1, 1457990, Control_c, 0, 64, 73
1, 1458009, Control_c, 0, 64, 65
1, 1458027, Control_c, 0, 64, 58
1, 1458047, Control_c, 0, 64, 53
1, 1458065, Control_c, 0, 64, 50
1, 1458083, Control_c, 0, 64, 47
1, 1458102, Control_c, 0, 64, 45
1, 1458121, Control_c, 0, 64, 43
1, 1458157, Control_c, 0, 64, 40
1, 1458342, Control_c, 0, 64, 36
1, 1458499, Note_on_c, 0, 65, 56
1, 1458522, Note_on_c, 0, 53, 50
1, 1458532, Note_on_c, 0, 49, 40
1, 1458533, Note_on_c, 0, 65, 0
1, 1458591, Note_on_c, 0, 51, 0
1, 1458606, Note_on_c, 0, 65, 62
1, 1458628, Note_on_c, 0, 65, 0
1, 1458661, Note_on_c, 0, 54, 0
1, 1458707, Note_on_c, 0, 65, 72
1, 1458751, Note_on_c, 0, 65, 0
1, 1458852, Control_c, 0, 64, 32
1, 1458864, Note_on_c, 0, 65, 55
1, 1458881, Note_on_c, 0, 51, 51
1, 1458895, Note_on_c, 0, 49, 0
1, 1458898, Note_on_c, 0, 48, 46
1, 1458926, Control_c, 0, 64, 28
1, 1458963, Control_c, 0, 64, 23
1, 1458991, Note_on_c, 0, 53, 0
1, 1458999, Control_c, 0, 64, 16
1, 1459037, Control_c, 0, 64, 8
1, 1459056, Control_c, 0, 64, 0
1, 1459149, Control_c, 0, 64, 25
1, 1459167, Control_c, 0, 64, 43
1, 1459177, Note_on_c, 0, 48, 0
1, 1459184, Control_c, 0, 64, 65
1, 1459205, Control_c, 0, 64, 82
1, 1459217, Note_on_c, 0, 51, 0
1, 1459224, Control_c, 0, 64, 94
1, 1459241, Control_c, 0, 64, 103
1, 1459262, Control_c, 0, 64, 113
1, 1459277, Control_c, 0, 64, 122
1, 1459296, Control_c, 0, 64, 127
1, 1459940, Note_on_c, 0, 75, 67
1, 1459961, Note_on_c, 0, 66, 42
1, 1460086, Control_c, 0, 64, 118
1, 1460102, Control_c, 0, 64, 92
1, 1460122, Control_c, 0, 64, 63
1, 1460140, Control_c, 0, 64, 37
1, 1460159, Control_c, 0, 64, 31
1, 1460213, Control_c, 0, 64, 36
1, 1460233, Control_c, 0, 64, 49
1, 1460250, Control_c, 0, 64, 66
1, 1460251, Control_c, 0, 67, 120
1, 1460270, Control_c, 0, 64, 81
1, 1460271, Control_c, 0, 67, 116
1, 1460289, Control_c, 0, 64, 94
1, 1460291, Control_c, 0, 67, 110
1, 1460307, Control_c, 0, 64, 106
1, 1460307, Control_c, 0, 67, 101
1, 1460325, Control_c, 0, 64, 117
1, 1460326, Control_c, 0, 67, 89
1, 1460354, Control_c, 0, 64, 127
1, 1460355, Control_c, 0, 67, 74
1, 1460372, Control_c, 0, 67, 57
1, 1460391, Control_c, 0, 67, 40
1, 1460409, Control_c, 0, 67, 25
1, 1460426, Control_c, 0, 67, 11
1, 1460445, Control_c, 0, 67, 0
1, 1460455, Note_on_c, 0, 66, 0
1, 1460877, Note_on_c, 0, 72, 66
1, 1460897, Note_on_c, 0, 63, 36
1, 1461002, Note_on_c, 0, 75, 0
1, 1461147, Note_on_c, 0, 65, 0
1, 1461246, Note_on_c, 0, 72, 0
1, 1461776, Note_on_c, 0, 69, 63
1, 1461783, Note_on_c, 0, 60, 39
1, 1461807, Control_c, 0, 67, 8
1, 1461864, Control_c, 0, 67, 13
1, 1461882, Control_c, 0, 67, 19
1, 1461900, Control_c, 0, 67, 25
1, 1461917, Control_c, 0, 67, 30
1, 1461935, Note_on_c, 0, 63, 0
1, 1461935, Control_c, 0, 67, 34
1, 1461974, Control_c, 0, 67, 40
1, 1462705, Control_c, 0, 67, 44
1, 1462731, Note_on_c, 0, 66, 62
1, 1462743, Control_c, 0, 67, 52
1, 1462754, Note_on_c, 0, 57, 41
1, 1462761, Control_c, 0, 67, 61
1, 1462781, Control_c, 0, 67, 67
1, 1462817, Control_c, 0, 67, 73
1, 1462835, Control_c, 0, 67, 77
1, 1462836, Note_on_c, 0, 69, 0
1, 1462853, Control_c, 0, 67, 82
1, 1462863, Poly_aftertouch_c, 0, 68, 0
1, 1462873, Control_c, 0, 67, 87
1, 1462891, Control_c, 0, 67, 94
1, 1462909, Control_c, 0, 67, 99
1, 1462927, Control_c, 0, 67, 105
1, 1462946, Control_c, 0, 67, 110
1, 1462965, Control_c, 0, 67, 115
1, 1462984, Control_c, 0, 67, 119
1, 1463002, Control_c, 0, 67, 124
1, 1463018, Note_on_c, 0, 60, 0
1, 1463623, Control_c, 0, 64, 123
1, 1463697, Control_c, 0, 64, 118
1, 1463726, Note_on_c, 0, 65, 64
1, 1463744, Note_on_c, 0, 61, 47
1, 1463753, Control_c, 0, 64, 113
1, 1463789, Control_c, 0, 64, 108
1, 1463827, Control_c, 0, 64, 103
1, 1463845, Control_c, 0, 64, 99
1, 1463864, Control_c, 0, 64, 93
1, 1463882, Control_c, 0, 64, 87
1, 1463901, Control_c, 0, 64, 81
1, 1463906, Note_on_c, 0, 57, 0
1, 1463920, Control_c, 0, 64, 78
1, 1463924, Note_on_c, 0, 66, 0
1, 1463938, Control_c, 0, 64, 76
1, 1463974, Control_c, 0, 64, 72
1, 1463993, Control_c, 0, 64, 70
1, 1464012, Control_c, 0, 64, 67
1, 1464031, Control_c, 0, 64, 65
1, 1464049, Control_c, 0, 64, 63
1, 1464067, Control_c, 0, 64, 62
1, 1464095, Control_c, 0, 64, 61
1, 1464114, Control_c, 0, 64, 60
1, 1464151, Control_c, 0, 64, 58
1, 1464175, Note_on_c, 0, 29, 52
1, 1464217, Note_on_c, 0, 29, 0
1, 1464243, Control_c, 0, 64, 56
1, 1464287, Note_on_c, 0, 29, 64
1, 1464318, Control_c, 0, 64, 54
1, 1464329, Note_on_c, 0, 29, 0
1, 1464403, Note_on_c, 0, 29, 72
1, 1464408, Control_c, 0, 64, 52
1, 1464456, Note_on_c, 0, 29, 0
1, 1464504, Control_c, 0, 64, 50
1, 1464558, Control_c, 0, 64, 47
1, 1464615, Control_c, 0, 64, 45
1, 1464633, Control_c, 0, 64, 43
1, 1464641, Note_on_c, 0, 41, 59
1, 1464653, Note_on_c, 0, 63, 65
1, 1464665, Note_on_c, 0, 60, 55
1, 1464689, Control_c, 0, 64, 36
1, 1464702, Note_on_c, 0, 61, 0
1, 1464724, Control_c, 0, 64, 29
1, 1464744, Control_c, 0, 64, 23
1, 1464762, Control_c, 0, 64, 17
1, 1464782, Control_c, 0, 64, 12
1, 1464799, Control_c, 0, 64, 8
1, 1464814, Note_on_c, 0, 65, 0
1, 1464816, Control_c, 0, 64, 0
1, 1464909, Control_c, 0, 64, 14
1, 1464928, Control_c, 0, 64, 34
1, 1464946, Control_c, 0, 64, 50
1, 1464966, Control_c, 0, 64, 73
1, 1464985, Control_c, 0, 64, 85
1, 1464987, Note_on_c, 0, 41, 0
1, 1465004, Control_c, 0, 64, 95
1, 1465031, Control_c, 0, 64, 101
1, 1465049, Control_c, 0, 64, 110
1, 1465069, Control_c, 0, 64, 117
1, 1465085, Control_c, 0, 64, 121
1, 1465142, Control_c, 0, 64, 125
1, 1465440, Control_c, 0, 64, 120
1, 1465456, Control_c, 0, 64, 116
1, 1465474, Control_c, 0, 64, 108
1, 1465494, Control_c, 0, 64, 96
1, 1465512, Control_c, 0, 64, 80
1, 1465531, Control_c, 0, 64, 62
1, 1465549, Control_c, 0, 64, 48
1, 1465568, Control_c, 0, 64, 43
1, 1465606, Control_c, 0, 64, 40
1, 1465660, Control_c, 0, 64, 36
1, 1465922, Note_on_c, 0, 65, 56
1, 1465967, Note_on_c, 0, 61, 55
1, 1465975, Note_on_c, 0, 58, 36
1, 1465980, Note_on_c, 0, 60, 0
1, 1465987, Note_on_c, 0, 65, 0
1, 1466091, Poly_aftertouch_c, 0, 65, 0
1, 1466202, Note_on_c, 0, 65, 53
1, 1466225, Control_c, 0, 64, 32
1, 1466245, Note_on_c, 0, 65, 0
1, 1466288, Note_on_c, 0, 63, 0
1, 1466375, Control_c, 0, 64, 28
1, 1466403, Note_on_c, 0, 57, 31
1, 1466406, Note_on_c, 0, 60, 44
1, 1466410, Note_on_c, 0, 65, 24
1, 1466430, Control_c, 0, 64, 23
1, 1466448, Control_c, 0, 64, 17
1, 1466466, Control_c, 0, 64, 10
1, 1466467, Note_on_c, 0, 58, 0
1, 1466485, Control_c, 0, 64, 0
1, 1466535, Note_on_c, 0, 61, 0
1, 1466671, Control_c, 0, 64, 24
1, 1466689, Control_c, 0, 64, 49
1, 1466708, Control_c, 0, 64, 72
1, 1466727, Control_c, 0, 64, 85
1, 1466745, Control_c, 0, 64, 97
1, 1466763, Control_c, 0, 64, 110
1, 1466781, Control_c, 0, 64, 123
1, 1466800, Control_c, 0, 64, 127
1, 1466821, Note_on_c, 0, 57, 0
1, 1466910, Note_on_c, 0, 60, 0
1, 1467487, Note_on_c, 0, 78, 60
1, 1467518, Note_on_c, 0, 69, 38
1, 1467915, Note_on_c, 0, 69, 0
1, 1468417, Note_on_c, 0, 75, 46
1, 1468440, Note_on_c, 0, 66, 33
1, 1468611, Note_on_c, 0, 78, 0
1, 1468633, Control_c, 0, 67, 120
1, 1468671, Control_c, 0, 67, 112
1, 1468689, Control_c, 0, 67, 102
1, 1468709, Control_c, 0, 67, 88
1, 1468727, Control_c, 0, 67, 71
1, 1468746, Control_c, 0, 67, 50
1, 1468756, Note_on_c, 0, 66, 0
1, 1468775, Control_c, 0, 67, 31
1, 1468792, Control_c, 0, 67, 13
1, 1468807, Note_on_c, 0, 75, 0
1, 1468810, Control_c, 0, 67, 0
1, 1469348, Note_on_c, 0, 81, 74
1, 1469365, Note_on_c, 0, 72, 51
1, 1469569, Control_c, 0, 67, 10
1, 1469589, Control_c, 0, 67, 14
1, 1469606, Control_c, 0, 67, 18
1, 1469616, Note_on_c, 0, 65, 0
1, 1469643, Control_c, 0, 67, 22
1, 1469755, Note_on_c, 0, 65, 59
1, 1469795, Note_on_c, 0, 65, 0
1, 1469868, Note_on_c, 0, 65, 71
1, 1469907, Note_on_c, 0, 65, 0
1, 1470018, Poly_aftertouch_c, 0, 65, 0
1, 1470151, Note_on_c, 0, 78, 65
1, 1470158, Note_on_c, 0, 65, 56
1, 1470181, Note_on_c, 0, 69, 46
1, 1470267, Note_on_c, 0, 72, 0
1, 1470282, Note_on_c, 0, 81, 0
1, 1470498, Note_on_c, 0, 69, 0
1, 1470679, Note_on_c, 0, 78, 0
1, 1471154, Note_on_c, 0, 87, 76
1, 1471192, Note_on_c, 0, 78, 44
1, 1471312, Control_c, 0, 64, 112
1, 1471330, Control_c, 0, 64, 81
1, 1471349, Control_c, 0, 64, 55
1, 1471367, Control_c, 0, 64, 47
1, 1471403, Control_c, 0, 64, 53
1, 1471422, Control_c, 0, 64, 62
1, 1471440, Control_c, 0, 64, 74
1, 1471459, Control_c, 0, 64, 90
1, 1471462, Control_c, 0, 67, 26
1, 1471477, Control_c, 0, 64, 110
1, 1471497, Control_c, 0, 64, 127
1, 1471689, Note_on_c, 0, 78, 0
1, 1471968, Control_c, 0, 67, 31
1, 1472080, Control_c, 0, 67, 36
1, 1472095, Note_on_c, 0, 75, 36
1, 1472098, Control_c, 0, 67, 40
1, 1472112, Note_on_c, 0, 84, 59
1, 1472117, Control_c, 0, 67, 46
1, 1472134, Control_c, 0, 67, 50
1, 1472232, Note_on_c, 0, 87, 0
1, 1472247, Control_c, 0, 67, 54
1, 1472284, Control_c, 0, 67, 59
1, 1472303, Control_c, 0, 67, 63
1, 1472338, Control_c, 0, 67, 69
1, 1472375, Control_c, 0, 67, 75
1, 1472394, Control_c, 0, 67, 79
1, 1472414, Control_c, 0, 67, 84
1, 1472431, Control_c, 0, 67, 90
1, 1472450, Control_c, 0, 67, 97
1, 1472469, Control_c, 0, 67, 103
1, 1472476, Note_on_c, 0, 84, 0
1, 1472489, Control_c, 0, 67, 110
1, 1472515, Control_c, 0, 67, 115
1, 1472553, Control_c, 0, 67, 120
1, 1472589, Control_c, 0, 67, 126
1, 1472983, Note_on_c, 0, 81, 59
1, 1473023, Note_on_c, 0, 72, 31
1, 1473151, Note_on_c, 0, 75, 0
1, 1473966, Note_on_c, 0, 78, 57
1, 1473997, Note_on_c, 0, 69, 42
1, 1474077, Note_on_c, 0, 72, 0
1, 1474147, Note_on_c, 0, 81, 0
1, 1474596, Note_on_c, 0, 65, 0
1, 1475020, Note_on_c, 0, 75, 47
1, 1475040, Note_on_c, 0, 72, 34
1, 1475131, Note_on_c, 0, 69, 0
1, 1475222, Note_on_c, 0, 78, 0
1, 1475434, Control_c, 0, 64, 119
1, 1475452, Control_c, 0, 64, 112
1, 1475472, Control_c, 0, 64, 102
1, 1475489, Control_c, 0, 64, 91
1, 1475507, Control_c, 0, 64, 78
1, 1475525, Control_c, 0, 64, 68
1, 1475525, Note_on_c, 0, 65, 50
1, 1475544, Control_c, 0, 64, 63
1, 1475562, Control_c, 0, 64, 61
1, 1475582, Control_c, 0, 64, 59
1, 1475590, Note_on_c, 0, 65, 0
1, 1475600, Control_c, 0, 64, 56
1, 1475619, Control_c, 0, 64, 53
1, 1475637, Control_c, 0, 64, 51
1, 1475656, Control_c, 0, 64, 49
1, 1475689, Note_on_c, 0, 65, 50
1, 1475693, Control_c, 0, 64, 47
1, 1475747, Control_c, 0, 64, 45
1, 1475750, Note_on_c, 0, 65, 0
1, 1475802, Note_on_c, 0, 72, 0
1, 1475872, Note_on_c, 0, 65, 50
1, 1475914, Control_c, 0, 64, 43
1, 1475948, Note_on_c, 0, 65, 0
1, 1476166, Note_on_c, 0, 73, 39
1, 1476175, Note_on_c, 0, 66, 31
1, 1476179, Note_on_c, 0, 70, 27
1, 1476383, Note_on_c, 0, 75, 0
1, 1476572, Control_c, 0, 64, 47
1, 1476592, Control_c, 0, 64, 52
1, 1476610, Control_c, 0, 64, 58
1, 1476628, Control_c, 0, 64, 67
1, 1476645, Control_c, 0, 64, 73
1, 1476666, Control_c, 0, 64, 81
1, 1476684, Control_c, 0, 64, 91
1, 1476702, Control_c, 0, 64, 103
1, 1476722, Control_c, 0, 64, 115
1, 1476739, Control_c, 0, 64, 125
1, 1477250, Note_on_c, 0, 54, 23
1, 1477252, Note_on_c, 0, 61, 31
1, 1477645, Note_on_c, 0, 73, 0
1, 1477668, Note_on_c, 0, 66, 0
1, 1478325, Note_on_c, 0, 80, 42
1, 1478335, Note_on_c, 0, 73, 30
1, 1478359, Note_on_c, 0, 64, 33
1, 1478363, Note_on_c, 0, 58, 25
1, 1478481, Note_on_c, 0, 54, 0
1, 1478521, Note_on_c, 0, 61, 0
1, 1478530, Note_on_c, 0, 70, 0
1, 1478719, Note_on_c, 0, 64, 0
1, 1479205, Note_on_c, 0, 76, 42
1, 1479217, Note_on_c, 0, 70, 27
1, 1479225, Note_on_c, 0, 61, 30
1, 1479232, Note_on_c, 0, 68, 25
1, 1479294, Note_on_c, 0, 73, 0
1, 1479425, Note_on_c, 0, 58, 0
1, 1479457, Note_on_c, 0, 80, 0
1, 1479578, Note_on_c, 0, 68, 0
1, 1479585, Note_on_c, 0, 70, 0
1, 1479962, Note_on_c, 0, 73, 38
1, 1479984, Note_on_c, 0, 66, 36
1, 1480004, Note_on_c, 0, 58, 29
1, 1480020, Note_on_c, 0, 64, 22
1, 1480238, Note_on_c, 0, 61, 0
1, 1480240, Note_on_c, 0, 66, 0
1, 1480284, Note_on_c, 0, 76, 0
1, 1480639, Note_on_c, 0, 76, 45
1, 1480658, Note_on_c, 0, 70, 35
1, 1480667, Note_on_c, 0, 61, 37
1, 1480689, Note_on_c, 0, 54, 26
1, 1480763, Note_on_c, 0, 73, 0
1, 1480848, Note_on_c, 0, 58, 0
1, 1480994, Note_on_c, 0, 64, 0
1, 1481346, Note_on_c, 0, 80, 55
1, 1481349, Note_on_c, 0, 58, 33
1, 1481355, Note_on_c, 0, 64, 35
1, 1481361, Note_on_c, 0, 73, 42
1, 1481419, Note_on_c, 0, 54, 0
1, 1481488, Note_on_c, 0, 70, 0
1, 1481495, Note_on_c, 0, 61, 0
1, 1481601, Note_on_c, 0, 76, 0
1, 1481686, Note_on_c, 0, 64, 0
1, 1482035, Note_on_c, 0, 76, 46
1, 1482039, Note_on_c, 0, 61, 39
1, 1482055, Note_on_c, 0, 68, 28
1, 1482076, Note_on_c, 0, 70, 31
1, 1482115, Note_on_c, 0, 73, 0
1, 1482200, Note_on_c, 0, 58, 0
1, 1482243, Note_on_c, 0, 80, 0
1, 1482318, Note_on_c, 0, 68, 0
1, 1482418, Note_on_c, 0, 70, 0
1, 1482680, Note_on_c, 0, 73, 39
1, 1482693, Note_on_c, 0, 58, 37
1, 1482698, Note_on_c, 0, 64, 28
1, 1482727, Note_on_c, 0, 66, 34
1, 1482871, Note_on_c, 0, 61, 0
1, 1482917, Note_on_c, 0, 76, 0
1, 1482926, Note_on_c, 0, 66, 0
1, 1483190, Note_on_c, 0, 76, 44
1, 1483208, Note_on_c, 0, 61, 40
1, 1483214, Note_on_c, 0, 70, 40
1, 1483222, Note_on_c, 0, 54, 27
1, 1483295, Note_on_c, 0, 73, 0
1, 1483325, Note_on_c, 0, 58, 0
1, 1483405, Note_on_c, 0, 64, 0
1, 1483636, Note_on_c, 0, 80, 44
1, 1483637, Note_on_c, 0, 58, 36
1, 1483637, Note_on_c, 0, 64, 39
1, 1483655, Note_on_c, 0, 54, 0
1, 1483657, Note_on_c, 0, 73, 35
1, 1483696, Note_on_c, 0, 61, 0
1, 1483717, Note_on_c, 0, 76, 0
1, 1483754, Note_on_c, 0, 70, 0
1, 1483791, Note_on_c, 0, 64, 0
1, 1484029, Note_on_c, 0, 68, 40
1, 1484031, Note_on_c, 0, 61, 42
1, 1484032, Note_on_c, 0, 73, 0
1, 1484041, Note_on_c, 0, 76, 44
1, 1484044, Note_on_c, 0, 70, 38
1, 1484121, Note_on_c, 0, 58, 0
1, 1484142, Note_on_c, 0, 80, 0
1, 1484171, Note_on_c, 0, 70, 0
1, 1484181, Note_on_c, 0, 68, 0
1, 1484360, Note_on_c, 0, 73, 46
1, 1484372, Note_on_c, 0, 66, 35
1, 1484382, Note_on_c, 0, 58, 42
1, 1484398, Note_on_c, 0, 76, 0
1, 1484402, Note_on_c, 0, 61, 0
1, 1484413, Note_on_c, 0, 64, 32
1, 1484430, Note_on_c, 0, 66, 0
1, 1484602, Note_on_c, 0, 73, 0
1, 1484616, Note_on_c, 0, 64, 0
1, 1484630, Note_on_c, 0, 54, 40
1, 1484636, Note_on_c, 0, 61, 39
1, 1484636, Note_on_c, 0, 76, 45
1, 1484637, Note_on_c, 0, 58, 0
1, 1484683, Note_on_c, 0, 70, 35
1, 1484863, Note_on_c, 0, 70, 0
1, 1484864, Note_on_c, 0, 54, 0
1, 1484879, Note_on_c, 0, 61, 0
1, 1484879, Note_on_c, 0, 76, 0
1, 1484884, Note_on_c, 0, 64, 45
1, 1484896, Note_on_c, 0, 80, 48
1, 1484909, Note_on_c, 0, 58, 40
1, 1484913, Note_on_c, 0, 73, 41
1, 1484949, Note_on_c, 0, 64, 0
1, 1485122, Note_on_c, 0, 73, 0
1, 1485147, Note_on_c, 0, 58, 0
1, 1485150, Note_on_c, 0, 70, 45
1, 1485154, Note_on_c, 0, 61, 43
1, 1485155, Note_on_c, 0, 80, 0
1, 1485158, Note_on_c, 0, 68, 41
1, 1485160, Note_on_c, 0, 76, 47
1, 1485205, Note_on_c, 0, 70, 0
1, 1485210, Note_on_c, 0, 68, 0
1, 1485377, Note_on_c, 0, 58, 41
1, 1485385, Note_on_c, 0, 66, 45
1, 1485386, Note_on_c, 0, 73, 54
1, 1485391, Note_on_c, 0, 61, 0
1, 1485407, Note_on_c, 0, 76, 0
1, 1485407, Note_on_c, 0, 64, 40
1, 1485435, Note_on_c, 0, 66, 0
1, 1485583, Note_on_c, 0, 64, 0
1, 1485585, Note_on_c, 0, 58, 0
1, 1485595, Note_on_c, 0, 73, 0
1, 1485617, Note_on_c, 0, 76, 52
1, 1485623, Note_on_c, 0, 54, 35
1, 1485648, Note_on_c, 0, 61, 38
1, 1485680, Note_on_c, 0, 70, 28
1, 1485783, Note_on_c, 0, 70, 0
1, 1485849, Note_on_c, 0, 76, 0
1, 1485855, Note_on_c, 0, 64, 37
1, 1485863, Note_on_c, 0, 61, 0
1, 1485868, Note_on_c, 0, 54, 0
1, 1485871, Note_on_c, 0, 80, 47
1, 1485881, Note_on_c, 0, 58, 39
1, 1485894, Note_on_c, 0, 73, 37
1, 1485899, Note_on_c, 0, 64, 0
1, 1486078, Note_on_c, 0, 73, 0
1, 1486120, Note_on_c, 0, 61, 36
1, 1486122, Note_on_c, 0, 76, 43
1, 1486137, Note_on_c, 0, 68, 30
1, 1486150, Note_on_c, 0, 80, 0
1, 1486152, Note_on_c, 0, 70, 11
1, 1486155, Note_on_c, 0, 58, 0
1, 1486170, Note_on_c, 0, 76, 0
1, 1486184, Note_on_c, 0, 68, 0
1, 1486221, Note_on_c, 0, 70, 0
1, 1486593, Note_on_c, 0, 73, 69
1, 1486636, Note_on_c, 0, 64, 30
1, 1486654, Note_on_c, 0, 58, 25
1, 1486803, Note_on_c, 0, 61, 0
1, 1487701, Note_on_c, 0, 76, 67
1, 1487734, Note_on_c, 0, 61, 35
1, 1487736, Note_on_c, 0, 70, 34
1, 1487739, Note_on_c, 0, 54, 27
1, 1487834, Note_on_c, 0, 70, 0
1, 1487834, Note_on_c, 0, 70, 6
1, 1487855, Poly_aftertouch_c, 0, 66, 0
1, 1487857, Note_on_c, 0, 73, 0
1, 1487875, Note_on_c, 0, 58, 0
1, 1487921, Note_on_c, 0, 64, 0
1, 1487949, Control_c, 0, 64, 115
1, 1487966, Control_c, 0, 64, 95
1, 1487987, Control_c, 0, 64, 74
1, 1488005, Control_c, 0, 64, 57
1, 1488022, Control_c, 0, 64, 51
1, 1488152, Control_c, 0, 64, 57
1, 1488170, Control_c, 0, 64, 60
1, 1488190, Control_c, 0, 64, 66
1, 1488208, Control_c, 0, 64, 74
1, 1488226, Control_c, 0, 64, 83
1, 1488244, Control_c, 0, 64, 94
1, 1488262, Control_c, 0, 64, 106
1, 1488282, Control_c, 0, 64, 116
1, 1488300, Control_c, 0, 64, 124
1, 1488595, Note_on_c, 0, 76, 0
1, 1488604, Poly_aftertouch_c, 0, 54, 24
1, 1488636, Note_on_c, 0, 70, 0
1, 1488726, Note_on_c, 0, 61, 0
1, 1488757, Note_on_c, 0, 54, 0
1, 1488757, Poly_aftertouch_c, 0, 54, 0
1, 1489924, Note_on_c, 0, 76, 30
1, 1489931, Note_on_c, 0, 54, 13
1, 1489932, Note_on_c, 0, 70, 29
1, 1489948, Note_on_c, 0, 61, 20
1, 1490282, Note_on_c, 0, 54, 0
1, 1490338, Note_on_c, 0, 76, 0
1, 1490364, Note_on_c, 0, 70, 0
1, 1490374, Poly_aftertouch_c, 0, 61, 22
1, 1490402, Note_on_c, 0, 61, 0
1, 1490402, Poly_aftertouch_c, 0, 61, 0
1, 1490848, Control_c, 0, 64, 119
1, 1490884, Control_c, 0, 64, 115
1, 1490921, Control_c, 0, 64, 111
1, 1490959, Control_c, 0, 64, 107
1, 1490996, Control_c, 0, 64, 102
1, 1491033, Control_c, 0, 64, 97
1, 1491068, Control_c, 0, 64, 90
1, 1491088, Control_c, 0, 64, 88
1, 1491106, Control_c, 0, 64, 86
1, 1491143, Control_c, 0, 64, 83
1, 1491163, Control_c, 0, 64, 81
1, 1491181, Control_c, 0, 64, 79
1, 1491200, Control_c, 0, 64, 77
1, 1491245, Control_c, 0, 64, 75
1, 1491283, Control_c, 0, 64, 73
1, 1491339, Control_c, 0, 64, 70
1, 1491376, Control_c, 0, 64, 68
1, 1491394, Control_c, 0, 64, 67
1, 1491414, Control_c, 0, 64, 66
1, 1491430, Control_c, 0, 64, 64
1, 1491449, Control_c, 0, 64, 63
1, 1491468, Control_c, 0, 64, 62
1, 1491487, Control_c, 0, 64, 60
1, 1491524, Control_c, 0, 64, 57
1, 1491580, Control_c, 0, 64, 55
1, 1492275, Control_c, 0, 64, 57
1, 1492293, Control_c, 0, 64, 59
1, 1492312, Control_c, 0, 64, 60
1, 1492330, Control_c, 0, 64, 62
1, 1492351, Control_c, 0, 64, 64
1, 1492365, Control_c, 0, 64, 67
1, 1492384, Control_c, 0, 64, 71
1, 1492404, Control_c, 0, 64, 76
1, 1492422, Control_c, 0, 64, 81
1, 1492441, Control_c, 0, 64, 86
1, 1492459, Control_c, 0, 64, 92
1, 1492479, Control_c, 0, 64, 98
1, 1492497, Control_c, 0, 64, 104
1, 1492516, Control_c, 0, 64, 109
1, 1492534, Control_c, 0, 64, 116
1, 1492551, Control_c, 0, 64, 123
1, 1492570, Control_c, 0, 64, 127
1, 1493248, Note_on_c, 0, 29, 22
1, 1493376, Note_on_c, 0, 29, 0
1, 1493406, Note_on_c, 0, 41, 34
1, 1493527, Note_on_c, 0, 41, 0
1, 1493590, Note_on_c, 0, 29, 24
1, 1493648, Note_on_c, 0, 29, 0
1, 1493683, Note_on_c, 0, 41, 29
1, 1493736, Note_on_c, 0, 41, 0
1, 1493792, Note_on_c, 0, 29, 27
1, 1493842, Note_on_c, 0, 41, 32
1, 1493902, Note_on_c, 0, 41, 0
1, 1494003, Note_on_c, 0, 29, 0
1, 1494003, Poly_aftertouch_c, 0, 29, 0
1, 1494080, Note_on_c, 0, 29, 29
1, 1494141, Note_on_c, 0, 29, 0
1, 1494230, Poly_aftertouch_c, 0, 41, 0
1, 1494258, Note_on_c, 0, 29, 38
1, 1494320, Note_on_c, 0, 29, 0
1, 1494342, Note_on_c, 0, 41, 36
1, 1494404, Note_on_c, 0, 41, 0
1, 1494425, Note_on_c, 0, 29, 30
1, 1494473, Note_on_c, 0, 29, 0
1, 1494512, Note_on_c, 0, 41, 36
1, 1494569, Note_on_c, 0, 41, 0
1, 1494588, Note_on_c, 0, 29, 37
1, 1494645, Note_on_c, 0, 29, 0
1, 1494654, Note_on_c, 0, 41, 38
1, 1494714, Note_on_c, 0, 41, 0
1, 1494726, Note_on_c, 0, 29, 36
1, 1494793, Note_on_c, 0, 29, 0
1, 1494795, Note_on_c, 0, 41, 43
1, 1494860, Note_on_c, 0, 41, 0
1, 1494874, Note_on_c, 0, 29, 39
1, 1494937, Note_on_c, 0, 29, 0
1, 1494958, Note_on_c, 0, 41, 32
1, 1495028, Note_on_c, 0, 41, 0
1, 1495037, Note_on_c, 0, 29, 30
1, 1495086, Note_on_c, 0, 29, 0
1, 1495130, Note_on_c, 0, 41, 27
1, 1495173, Note_on_c, 0, 41, 0
1, 1495227, Note_on_c, 0, 29, 25
1, 1495290, Note_on_c, 0, 29, 0
1, 1495291, Note_on_c, 0, 41, 44
1, 1495356, Note_on_c, 0, 41, 0
1, 1495473, Note_on_c, 0, 29, 40
1, 1495583, Note_on_c, 0, 77, 56
1, 1495588, Poly_aftertouch_c, 0, 41, 0
1, 1495604, Note_on_c, 0, 73, 45
1, 1495665, Note_on_c, 0, 29, 0
1, 1495666, Poly_aftertouch_c, 0, 29, 0
1, 1495787, Note_on_c, 0, 29, 33
1, 1495805, Poly_aftertouch_c, 0, 41, 0
1, 1495841, Note_on_c, 0, 29, 0
1, 1495878, Note_on_c, 0, 41, 38
1, 1495899, Note_on_c, 0, 73, 0
1, 1495942, Note_on_c, 0, 41, 0
1, 1495996, Note_on_c, 0, 29, 44
1, 1496036, Control_c, 0, 67, 122
1, 1496045, Note_on_c, 0, 29, 0
1, 1496064, Note_on_c, 0, 41, 52
1, 1496072, Control_c, 0, 67, 117
1, 1496092, Control_c, 0, 67, 112
1, 1496108, Control_c, 0, 67, 107
1, 1496123, Note_on_c, 0, 41, 0
1, 1496125, Control_c, 0, 67, 100
1, 1496145, Control_c, 0, 67, 93
1, 1496165, Control_c, 0, 67, 84
1, 1496179, Note_on_c, 0, 29, 30
1, 1496183, Control_c, 0, 67, 75
1, 1496201, Control_c, 0, 67, 67
1, 1496221, Control_c, 0, 67, 60
1, 1496232, Note_on_c, 0, 29, 0
1, 1496239, Control_c, 0, 67, 55
1, 1496256, Note_on_c, 0, 41, 41
1, 1496257, Control_c, 0, 67, 51
1, 1496293, Control_c, 0, 67, 46
1, 1496307, Note_on_c, 0, 41, 0
1, 1496325, Note_on_c, 0, 29, 30
1, 1496368, Control_c, 0, 67, 42
1, 1496377, Note_on_c, 0, 29, 0
1, 1496430, Note_on_c, 0, 41, 39
1, 1496476, Note_on_c, 0, 41, 0
1, 1496519, Note_on_c, 0, 29, 36
1, 1496570, Note_on_c, 0, 29, 0
1, 1496597, Note_on_c, 0, 73, 61
1, 1496603, Note_on_c, 0, 41, 48
1, 1496617, Note_on_c, 0, 70, 44
1, 1496658, Note_on_c, 0, 41, 0
1, 1496711, Note_on_c, 0, 29, 35
1, 1496762, Note_on_c, 0, 29, 0
1, 1496803, Note_on_c, 0, 41, 38
1, 1496804, Note_on_c, 0, 77, 0
1, 1496865, Note_on_c, 0, 41, 0
1, 1496927, Note_on_c, 0, 29, 26
1, 1496981, Note_on_c, 0, 29, 0
1, 1497008, Note_on_c, 0, 41, 38
1, 1497052, Note_on_c, 0, 41, 0
1, 1497075, Note_on_c, 0, 70, 0
1, 1497081, Note_on_c, 0, 29, 16
1, 1497138, Note_on_c, 0, 29, 0
1, 1497181, Note_on_c, 0, 41, 26
1, 1497226, Note_on_c, 0, 29, 37
1, 1497234, Note_on_c, 0, 41, 0
1, 1497282, Note_on_c, 0, 29, 0
1, 1497301, Note_on_c, 0, 41, 37
1, 1497371, Note_on_c, 0, 41, 0
1, 1497376, Note_on_c, 0, 29, 45
1, 1497446, Note_on_c, 0, 29, 0
1, 1497447, Note_on_c, 0, 41, 46
1, 1497531, Note_on_c, 0, 41, 0
1, 1497539, Note_on_c, 0, 29, 42
1, 1497586, Note_on_c, 0, 70, 62
1, 1497592, Note_on_c, 0, 65, 43
1, 1497597, Note_on_c, 0, 29, 0
1, 1497630, Note_on_c, 0, 41, 42
1, 1497693, Note_on_c, 0, 41, 0
1, 1497718, Note_on_c, 0, 73, 0
1, 1497720, Poly_aftertouch_c, 0, 29, 0
1, 1497786, Note_on_c, 0, 41, 42
1, 1497837, Note_on_c, 0, 41, 0
1, 1497866, Note_on_c, 0, 29, 46
1, 1497867, Note_on_c, 0, 70, 0
1, 1497906, Note_on_c, 0, 29, 0
1, 1497929, Note_on_c, 0, 41, 45
1, 1497985, Note_on_c, 0, 41, 0
1, 1498011, Note_on_c, 0, 29, 53
1, 1498051, Note_on_c, 0, 29, 0
1, 1498072, Note_on_c, 0, 41, 50
1, 1498137, Note_on_c, 0, 41, 0
1, 1498152, Note_on_c, 0, 29, 50
1, 1498158, Note_on_c, 0, 65, 0
1, 1498196, Note_on_c, 0, 29, 0
1, 1498260, Poly_aftertouch_c, 0, 41, 0
1, 1498297, Note_on_c, 0, 29, 52
1, 1498335, Note_on_c, 0, 29, 0
1, 1498362, Note_on_c, 0, 41, 49
1, 1498421, Note_on_c, 0, 41, 0
1, 1498435, Note_on_c, 0, 29, 58
1, 1498488, Note_on_c, 0, 29, 0
1, 1498504, Note_on_c, 0, 65, 61
1, 1498523, Note_on_c, 0, 61, 47
1, 1498542, Note_on_c, 0, 41, 44
1, 1498553, Control_c, 0, 67, 46
1, 1498596, Note_on_c, 0, 41, 0
1, 1498610, Note_on_c, 0, 29, 55
1, 1498657, Note_on_c, 0, 29, 0
1, 1498723, Note_on_c, 0, 41, 37
1, 1498771, Note_on_c, 0, 41, 0
1, 1498788, Note_on_c, 0, 29, 44
1, 1498804, Control_c, 0, 67, 51
1, 1498824, Note_on_c, 0, 29, 0
1, 1498896, Note_on_c, 0, 41, 27
1, 1498939, Note_on_c, 0, 41, 0
1, 1498947, Note_on_c, 0, 29, 36
1, 1498984, Note_on_c, 0, 29, 0
1, 1499076, Note_on_c, 0, 41, 19
1, 1499113, Note_on_c, 0, 29, 38
1, 1499122, Note_on_c, 0, 41, 0
1, 1499130, Note_on_c, 0, 65, 0
1, 1499163, Note_on_c, 0, 29, 0
1, 1499187, Note_on_c, 0, 61, 0
1, 1499211, Control_c, 0, 67, 55
1, 1499220, Note_on_c, 0, 41, 9
1, 1499229, Control_c, 0, 67, 59
1, 1499248, Control_c, 0, 67, 67
1, 1499267, Control_c, 0, 67, 73
1, 1499285, Control_c, 0, 67, 78
1, 1499289, Note_on_c, 0, 41, 0
1, 1499317, Note_on_c, 0, 29, 14
1, 1499321, Control_c, 0, 67, 86
1, 1499342, Control_c, 0, 67, 91
1, 1499360, Control_c, 0, 67, 96
1, 1499378, Control_c, 0, 67, 102
1, 1499398, Control_c, 0, 67, 107
1, 1499417, Control_c, 0, 67, 113
1, 1499435, Control_c, 0, 67, 117
1, 1499450, Poly_aftertouch_c, 0, 41, 0
1, 1499472, Control_c, 0, 67, 122
1, 1499497, Note_on_c, 0, 29, 0
1, 1499498, Poly_aftertouch_c, 0, 29, 0
1, 1499508, Control_c, 0, 67, 127
1, 1499515, Note_on_c, 0, 61, 61
1, 1499535, Note_on_c, 0, 58, 42
1, 1499543, Note_on_c, 0, 41, 28
1, 1499570, Note_on_c, 0, 65, 27
1, 1499595, Note_on_c, 0, 41, 0
1, 1499619, Note_on_c, 0, 29, 43
1, 1499678, Note_on_c, 0, 29, 0
1, 1499796, Note_on_c, 0, 29, 35
1, 1499812, Note_on_c, 0, 65, 0
1, 1499850, Note_on_c, 0, 29, 0
1, 1499885, Poly_aftertouch_c, 0, 41, 0
1, 1499943, Note_on_c, 0, 29, 32
1, 1500124, Poly_aftertouch_c, 0, 41, 0
1, 1500187, Note_on_c, 0, 29, 0
1, 1500188, Note_on_c, 0, 61, 0
1, 1500188, Poly_aftertouch_c, 0, 29, 0
1, 1500255, Note_on_c, 0, 58, 0
1, 1500546, Note_on_c, 0, 34, 40
1, 1500575, Note_on_c, 0, 46, 52
1, 1500612, Note_on_c, 0, 60, 50
1, 1500618, Control_c, 0, 64, 120
1, 1500629, Note_on_c, 0, 57, 37
1, 1500638, Control_c, 0, 64, 99
1, 1500647, Note_on_c, 0, 65, 35
1, 1500653, Note_on_c, 0, 34, 0
1, 1500658, Note_on_c, 0, 46, 0
1, 1500658, Control_c, 0, 64, 73
1, 1500675, Control_c, 0, 64, 51
1, 1500696, Control_c, 0, 64, 41
1, 1500751, Control_c, 0, 64, 36
1, 1500787, Control_c, 0, 64, 32
1, 1500934, Control_c, 0, 64, 28
1, 1501489, Control_c, 0, 64, 38
1, 1501508, Control_c, 0, 64, 52
1, 1501535, Control_c, 0, 64, 71
1, 1501555, Control_c, 0, 64, 85
1, 1501575, Control_c, 0, 64, 98
1, 1501593, Control_c, 0, 64, 108
1, 1501611, Control_c, 0, 64, 118
1, 1501632, Control_c, 0, 64, 126
1, 1501692, Note_on_c, 0, 65, 0
1, 1501745, Note_on_c, 0, 60, 0
1, 1501959, Note_on_c, 0, 29, 47
1, 1501991, Note_on_c, 0, 60, 47
1, 1501994, Note_on_c, 0, 63, 48
1, 1502006, Note_on_c, 0, 29, 0
1, 1502026, Note_on_c, 0, 65, 36
1, 1502033, Note_on_c, 0, 41, 58
1, 1502068, Note_on_c, 0, 41, 0
1, 1502069, Note_on_c, 0, 57, 0
1, 1502075, Control_c, 0, 64, 108
1, 1502091, Control_c, 0, 64, 89
1, 1502104, Note_on_c, 0, 29, 66
1, 1502106, Note_on_c, 0, 60, 0
1, 1502107, Note_on_c, 0, 65, 0
1, 1502110, Control_c, 0, 64, 69
1, 1502130, Control_c, 0, 64, 53
1, 1502144, Note_on_c, 0, 29, 0
1, 1502148, Control_c, 0, 64, 47
1, 1502159, Note_on_c, 0, 41, 67
1, 1502223, Control_c, 0, 64, 44
1, 1502230, Note_on_c, 0, 41, 0
1, 1502261, Control_c, 0, 64, 42
1, 1502266, Note_on_c, 0, 34, 58
1, 1502333, Control_c, 0, 64, 40
1, 1502356, Note_on_c, 0, 34, 0
1, 1502384, Note_on_c, 0, 46, 67
1, 1502390, Note_on_c, 0, 61, 48
1, 1502400, Note_on_c, 0, 65, 39
1, 1502418, Note_on_c, 0, 58, 32
1, 1502424, Note_on_c, 0, 46, 0
1, 1502478, Note_on_c, 0, 63, 0
1, 1502509, Control_c, 0, 64, 36
1, 1502565, Control_c, 0, 64, 30
1, 1502601, Control_c, 0, 64, 24
1, 1502639, Control_c, 0, 64, 19
1, 1502657, Control_c, 0, 64, 15
1, 1502694, Control_c, 0, 64, 9
1, 1502733, Control_c, 0, 64, 0
1, 1502861, Control_c, 0, 64, 17
1, 1502880, Control_c, 0, 64, 32
1, 1502900, Control_c, 0, 64, 45
1, 1502917, Control_c, 0, 64, 64
1, 1502937, Control_c, 0, 64, 79
1, 1502954, Control_c, 0, 64, 89
1, 1502973, Control_c, 0, 64, 98
1, 1502992, Control_c, 0, 64, 109
1, 1503011, Control_c, 0, 64, 120
1, 1503028, Control_c, 0, 64, 127
1, 1503036, Note_on_c, 0, 58, 0
1, 1503121, Note_on_c, 0, 61, 0
1, 1503148, Note_on_c, 0, 65, 0
1, 1503196, Control_c, 0, 67, 122
1, 1503232, Control_c, 0, 67, 117
1, 1503268, Control_c, 0, 67, 110
1, 1503288, Control_c, 0, 67, 102
1, 1503306, Control_c, 0, 67, 92
1, 1503325, Control_c, 0, 67, 77
1, 1503344, Control_c, 0, 67, 61
1, 1503363, Control_c, 0, 67, 45
1, 1503381, Control_c, 0, 67, 30
1, 1503408, Control_c, 0, 67, 18
1, 1503426, Control_c, 0, 67, 9
1, 1503762, Note_on_c, 0, 77, 56
1, 1503769, Note_on_c, 0, 73, 55
1, 1503982, Control_c, 0, 64, 108
1, 1504002, Control_c, 0, 64, 78
1, 1504020, Control_c, 0, 64, 49
1, 1504037, Control_c, 0, 64, 34
1, 1504131, Control_c, 0, 64, 43
1, 1504149, Control_c, 0, 64, 59
1, 1504167, Control_c, 0, 64, 74
1, 1504186, Control_c, 0, 64, 86
1, 1504205, Control_c, 0, 64, 100
1, 1504224, Control_c, 0, 64, 115
1, 1504225, Control_c, 0, 67, 0
1, 1504243, Control_c, 0, 64, 127
1, 1504311, Poly_aftertouch_c, 0, 73, 24
1, 1504384, Note_on_c, 0, 73, 0
1, 1504384, Poly_aftertouch_c, 0, 73, 0
1, 1504865, Note_on_c, 0, 73, 57
1, 1504889, Note_on_c, 0, 70, 44
1, 1505234, Note_on_c, 0, 77, 0
1, 1505537, Note_on_c, 0, 70, 0
1, 1505813, Note_on_c, 0, 70, 62
1, 1505828, Note_on_c, 0, 65, 36
1, 1506084, Note_on_c, 0, 73, 0
1, 1506221, Note_on_c, 0, 70, 0
1, 1506439, Note_on_c, 0, 65, 0
1, 1506821, Note_on_c, 0, 65, 67
1, 1506859, Note_on_c, 0, 61, 39
1, 1507419, Note_on_c, 0, 61, 0
1, 1507965, Note_on_c, 0, 61, 47
1, 1507966, Note_on_c, 0, 63, 62
1, 1507992, Note_on_c, 0, 58, 37
1, 1508104, Control_c, 0, 67, 8
1, 1508160, Control_c, 0, 67, 12
1, 1508198, Control_c, 0, 64, 116
1, 1508199, Control_c, 0, 67, 16
1, 1508215, Control_c, 0, 64, 99
1, 1508234, Control_c, 0, 64, 76
1, 1508235, Control_c, 0, 67, 21
1, 1508252, Control_c, 0, 64, 55
1, 1508256, Note_on_c, 0, 65, 0
1, 1508272, Control_c, 0, 64, 44
1, 1508273, Control_c, 0, 67, 26
1, 1508308, Control_c, 0, 64, 42
1, 1508309, Control_c, 0, 67, 31
1, 1508346, Control_c, 0, 67, 38
1, 1508365, Control_c, 0, 64, 52
1, 1508366, Control_c, 0, 67, 42
1, 1508383, Control_c, 0, 64, 63
1, 1508385, Control_c, 0, 67, 48
1, 1508400, Control_c, 0, 64, 74
1, 1508401, Control_c, 0, 67, 57
1, 1508420, Control_c, 0, 64, 86
1, 1508422, Control_c, 0, 67, 70
1, 1508430, Note_on_c, 0, 27, 53
1, 1508438, Control_c, 0, 64, 101
1, 1508438, Control_c, 0, 67, 78
1, 1508457, Control_c, 0, 64, 114
1, 1508458, Control_c, 0, 67, 85
1, 1508476, Control_c, 0, 64, 124
1, 1508477, Control_c, 0, 67, 90
1, 1508483, Note_on_c, 0, 27, 0
1, 1508492, Control_c, 0, 67, 96
1, 1508512, Control_c, 0, 67, 103
1, 1508515, Note_on_c, 0, 39, 57
1, 1508530, Control_c, 0, 67, 110
1, 1508536, Note_on_c, 0, 61, 0
1, 1508546, Note_on_c, 0, 63, 0
1, 1508550, Control_c, 0, 67, 115
1, 1508555, Note_on_c, 0, 39, 0
1, 1508585, Note_on_c, 0, 58, 0
1, 1508585, Note_on_c, 0, 27, 70
1, 1508603, Control_c, 0, 67, 121
1, 1508622, Control_c, 0, 67, 126
1, 1508650, Note_on_c, 0, 39, 63
1, 1508655, Note_on_c, 0, 27, 0
1, 1508687, Note_on_c, 0, 39, 0
1, 1508714, Note_on_c, 0, 32, 60
1, 1508804, Note_on_c, 0, 44, 66
1, 1508817, Note_on_c, 0, 32, 0
1, 1508833, Note_on_c, 0, 58, 62
1, 1508835, Note_on_c, 0, 63, 60
1, 1508836, Note_on_c, 0, 55, 49
1, 1508843, Control_c, 0, 64, 109
1, 1508861, Note_on_c, 0, 44, 0
1, 1508863, Control_c, 0, 64, 89
1, 1508883, Control_c, 0, 64, 68
1, 1508901, Control_c, 0, 64, 50
1, 1508921, Control_c, 0, 64, 44
1, 1508956, Control_c, 0, 64, 42
1, 1508994, Control_c, 0, 64, 40
1, 1509486, Control_c, 0, 64, 45
1, 1509504, Control_c, 0, 64, 47
1, 1509521, Control_c, 0, 64, 50
1, 1509539, Control_c, 0, 64, 54
1, 1509558, Control_c, 0, 64, 56
1, 1509577, Control_c, 0, 64, 59
1, 1509595, Control_c, 0, 64, 64
1, 1509614, Control_c, 0, 64, 68
1, 1509633, Control_c, 0, 64, 72
1, 1509652, Control_c, 0, 64, 75
1, 1509670, Control_c, 0, 64, 79
1, 1509689, Control_c, 0, 64, 86
1, 1509706, Control_c, 0, 64, 94
1, 1509725, Control_c, 0, 64, 101
1, 1509743, Control_c, 0, 64, 106
1, 1509762, Control_c, 0, 64, 111
1, 1509782, Control_c, 0, 64, 116
1, 1509799, Control_c, 0, 64, 122
1, 1509818, Control_c, 0, 64, 126
1, 1510005, Note_on_c, 0, 58, 0
1, 1510007, Note_on_c, 0, 63, 0
1, 1510347, Note_on_c, 0, 27, 50
1, 1510371, Note_on_c, 0, 63, 48
1, 1510382, Note_on_c, 0, 58, 32
1, 1510384, Note_on_c, 0, 61, 46
1, 1510394, Note_on_c, 0, 27, 0
1, 1510444, Note_on_c, 0, 39, 40
1, 1510482, Note_on_c, 0, 55, 0
1, 1510487, Note_on_c, 0, 39, 0
1, 1510491, Note_on_c, 0, 27, 71
1, 1510513, Control_c, 0, 64, 121
1, 1510528, Note_on_c, 0, 58, 0
1, 1510530, Control_c, 0, 64, 115
1, 1510549, Control_c, 0, 64, 108
1, 1510568, Note_on_c, 0, 27, 0
1, 1510568, Control_c, 0, 64, 101
1, 1510576, Note_on_c, 0, 39, 44
1, 1510588, Control_c, 0, 64, 94
1, 1510589, Note_on_c, 0, 63, 0
1, 1510606, Control_c, 0, 64, 86
1, 1510618, Note_on_c, 0, 39, 0
1, 1510624, Control_c, 0, 64, 76
1, 1510642, Control_c, 0, 64, 68
1, 1510655, Note_on_c, 0, 32, 36
1, 1510661, Control_c, 0, 64, 65
1, 1510698, Control_c, 0, 64, 64
1, 1510717, Control_c, 0, 64, 63
1, 1510727, Note_on_c, 0, 32, 0
1, 1510735, Control_c, 0, 64, 60
1, 1510754, Control_c, 0, 64, 58
1, 1510768, Note_on_c, 0, 44, 52
1, 1510773, Control_c, 0, 64, 56
1, 1510810, Control_c, 0, 64, 53
1, 1510827, Note_on_c, 0, 44, 0
1, 1510846, Control_c, 0, 64, 49
1, 1510853, Note_on_c, 0, 56, 35
1, 1510855, Note_on_c, 0, 60, 42
1, 1510861, Note_on_c, 0, 63, 47
1, 1510864, Control_c, 0, 64, 47
1, 1510896, Note_on_c, 0, 61, 0
1, 1510910, Control_c, 0, 64, 44
1, 1510948, Control_c, 0, 64, 42
1, 1510968, Control_c, 0, 64, 40
1, 1510985, Control_c, 0, 64, 36
1, 1511005, Control_c, 0, 64, 27
1, 1511021, Control_c, 0, 64, 19
1, 1511041, Control_c, 0, 64, 14
1, 1511078, Control_c, 0, 64, 8
1, 1511226, Control_c, 0, 64, 19
1, 1511244, Control_c, 0, 64, 32
1, 1511263, Control_c, 0, 64, 46
1, 1511281, Control_c, 0, 64, 63
1, 1511301, Control_c, 0, 64, 76
1, 1511319, Control_c, 0, 64, 85
1, 1511337, Control_c, 0, 64, 94
1, 1511357, Control_c, 0, 64, 105
1, 1511375, Control_c, 0, 64, 118
1, 1511376, Control_c, 0, 67, 122
1, 1511393, Control_c, 0, 64, 127
1, 1511393, Control_c, 0, 67, 117
1, 1511430, Control_c, 0, 67, 109
1, 1511448, Control_c, 0, 67, 100
1, 1511468, Control_c, 0, 67, 88
1, 1511485, Control_c, 0, 67, 71
1, 1511505, Control_c, 0, 67, 52
1, 1511524, Control_c, 0, 67, 36
1, 1511528, Note_on_c, 0, 60, 0
1, 1511541, Control_c, 0, 67, 24
1, 1511550, Note_on_c, 0, 56, 0
1, 1511560, Control_c, 0, 67, 17
1, 1511570, Poly_aftertouch_c, 0, 63, 20
1, 1511575, Control_c, 0, 67, 12
1, 1511580, Note_on_c, 0, 63, 0
1, 1511580, Poly_aftertouch_c, 0, 63, 0
1, 1511614, Control_c, 0, 67, 8
1, 1512101, Note_on_c, 0, 63, 40
1, 1512154, Note_on_c, 0, 56, 30
1, 1512311, Control_c, 0, 64, 116
1, 1512328, Control_c, 0, 64, 95
1, 1512346, Control_c, 0, 64, 71
1, 1512364, Control_c, 0, 64, 51
1, 1512384, Control_c, 0, 64, 46
1, 1512440, Control_c, 0, 64, 54
1, 1512460, Control_c, 0, 64, 63
1, 1512477, Control_c, 0, 64, 75
1, 1512496, Control_c, 0, 64, 88
1, 1512515, Control_c, 0, 64, 103
1, 1512516, Control_c, 0, 67, 0
1, 1512532, Control_c, 0, 64, 116
1, 1512549, Control_c, 0, 64, 125
1, 1512567, Note_on_c, 0, 65, 57
1, 1512762, Note_on_c, 0, 63, 0
1, 1513155, Note_on_c, 0, 66, 63
1, 1513173, Note_on_c, 0, 51, 35
1, 1513175, Note_on_c, 0, 63, 45
1, 1513178, Note_on_c, 0, 58, 35
1, 1513208, Poly_aftertouch_c, 0, 59, 0
1, 1513263, Note_on_c, 0, 65, 0
1, 1513338, Control_c, 0, 64, 121
1, 1513357, Control_c, 0, 64, 101
1, 1513376, Control_c, 0, 64, 77
1, 1513385, Note_on_c, 0, 56, 0
1, 1513394, Control_c, 0, 64, 55
1, 1513412, Control_c, 0, 64, 39
1, 1513433, Control_c, 0, 64, 34
1, 1513542, Control_c, 0, 64, 51
1, 1513561, Control_c, 0, 64, 68
1, 1513579, Control_c, 0, 64, 81
1, 1513599, Control_c, 0, 64, 95
1, 1513616, Control_c, 0, 64, 107
1, 1513633, Control_c, 0, 64, 118
1, 1513653, Control_c, 0, 64, 126
1, 1514008, Note_on_c, 0, 58, 0
1, 1514169, Note_on_c, 0, 58, 48
1, 1514172, Note_on_c, 0, 70, 74
1, 1514176, Note_on_c, 0, 49, 53
1, 1514219, Note_on_c, 0, 65, 42
1, 1514235, Note_on_c, 0, 63, 0
1, 1514263, Note_on_c, 0, 66, 0
1, 1514347, Control_c, 0, 64, 120
1, 1514367, Note_on_c, 0, 51, 0
1, 1514367, Control_c, 0, 64, 99
1, 1514384, Control_c, 0, 64, 73
1, 1514403, Control_c, 0, 64, 51
1, 1514421, Control_c, 0, 64, 42
1, 1514496, Control_c, 0, 64, 47
1, 1514516, Control_c, 0, 64, 59
1, 1514533, Control_c, 0, 64, 72
1, 1514552, Control_c, 0, 64, 85
1, 1514569, Control_c, 0, 64, 99
1, 1514588, Control_c, 0, 64, 113
1, 1514607, Control_c, 0, 64, 124
1, 1514821, Note_on_c, 0, 65, 0
1, 1515046, Note_on_c, 0, 58, 0
1, 1515153, Note_on_c, 0, 75, 78
1, 1515173, Note_on_c, 0, 58, 53
1, 1515190, Note_on_c, 0, 66, 53
1, 1515193, Note_on_c, 0, 48, 58
1, 1515214, Note_on_c, 0, 70, 0
1, 1515241, Poly_aftertouch_c, 0, 51, 0
1, 1515245, Note_on_c, 0, 49, 0
1, 1515339, Control_c, 0, 64, 116
1, 1515357, Control_c, 0, 64, 91
1, 1515376, Control_c, 0, 64, 63
1, 1515395, Control_c, 0, 64, 39
1, 1515413, Control_c, 0, 64, 32
1, 1515470, Control_c, 0, 64, 41
1, 1515488, Control_c, 0, 64, 60
1, 1515505, Control_c, 0, 64, 83
1, 1515523, Control_c, 0, 64, 104
1, 1515543, Control_c, 0, 64, 126
1, 1515921, Note_on_c, 0, 66, 0
1, 1515932, Note_on_c, 0, 75, 0
1, 1516019, Note_on_c, 0, 58, 0
1, 1516126, Note_on_c, 0, 77, 90
1, 1516143, Note_on_c, 0, 65, 79
1, 1516146, Note_on_c, 0, 75, 71
1, 1516148, Note_on_c, 0, 57, 64
1, 1516162, Note_on_c, 0, 47, 60
1, 1516255, Control_c, 0, 64, 101
1, 1516272, Note_on_c, 0, 48, 0
1, 1516273, Control_c, 0, 64, 63
1, 1516292, Control_c, 0, 64, 0
1, 1516405, Control_c, 0, 64, 10
1, 1516424, Control_c, 0, 64, 44
1, 1516440, Control_c, 0, 64, 72
1, 1516459, Control_c, 0, 64, 91
1, 1516478, Control_c, 0, 64, 111
1, 1516506, Control_c, 0, 64, 122
1, 1516525, Control_c, 0, 64, 127
1, 1516758, Note_on_c, 0, 77, 0
1, 1516837, Note_on_c, 0, 65, 0
1, 1516962, Note_on_c, 0, 75, 0
1, 1517092, Note_on_c, 0, 57, 0
1, 1517423, Note_on_c, 0, 77, 88
1, 1517447, Note_on_c, 0, 46, 65
1, 1517455, Note_on_c, 0, 58, 54
1, 1517461, Note_on_c, 0, 65, 70
1, 1517462, Note_on_c, 0, 74, 66
1, 1517520, Note_on_c, 0, 47, 0
1, 1517555, Control_c, 0, 64, 121
1, 1517571, Control_c, 0, 64, 96
1, 1517589, Control_c, 0, 64, 66
1, 1517608, Control_c, 0, 64, 34
1, 1517627, Control_c, 0, 64, 23
1, 1517701, Control_c, 0, 64, 37
1, 1517709, Note_on_c, 0, 46, 0
1, 1517721, Control_c, 0, 64, 60
1, 1517739, Control_c, 0, 64, 80
1, 1517751, Note_on_c, 0, 58, 0
1, 1517755, Control_c, 0, 64, 93
1, 1517775, Control_c, 0, 64, 105
1, 1517793, Control_c, 0, 64, 114
1, 1517813, Control_c, 0, 64, 122
1, 1517830, Control_c, 0, 64, 127
1, 1518201, Control_c, 0, 67, 11
1, 1518221, Control_c, 0, 67, 19
1, 1518238, Control_c, 0, 67, 26
1, 1518259, Control_c, 0, 67, 33
1, 1518276, Control_c, 0, 67, 39
1, 1518296, Note_on_c, 0, 74, 0
1, 1518296, Control_c, 0, 67, 45
1, 1518311, Control_c, 0, 67, 51
1, 1518329, Note_on_c, 0, 65, 0
1, 1518329, Control_c, 0, 67, 55
1, 1518349, Control_c, 0, 67, 60
1, 1518396, Control_c, 0, 67, 66
1, 1518707, Note_on_c, 0, 34, 63
1, 1518710, Control_c, 0, 64, 123
1, 1518723, Note_on_c, 0, 65, 52
1, 1518725, Note_on_c, 0, 74, 64
1, 1518728, Control_c, 0, 64, 109
1, 1518731, Note_on_c, 0, 70, 58
1, 1518745, Note_on_c, 0, 34, 0
1, 1518748, Control_c, 0, 64, 93
1, 1518756, Note_on_c, 0, 77, 0
1, 1518766, Control_c, 0, 64, 75
1, 1518785, Control_c, 0, 64, 62
1, 1518803, Control_c, 0, 64, 56
1, 1518832, Note_on_c, 0, 34, 67
1, 1518860, Control_c, 0, 64, 54
1, 1518867, Note_on_c, 0, 34, 0
1, 1518891, Note_on_c, 0, 70, 0
1, 1518896, Note_on_c, 0, 65, 0
1, 1518913, Control_c, 0, 64, 51
1, 1518934, Note_on_c, 0, 34, 85
1, 1519006, Note_on_c, 0, 34, 0
1, 1519100, Note_on_c, 0, 46, 79
1, 1519107, Note_on_c, 0, 65, 62
1, 1519117, Note_on_c, 0, 62, 55
1, 1519123, Note_on_c, 0, 70, 68
1, 1519137, Control_c, 0, 64, 49
1, 1519138, Control_c, 0, 67, 62
1, 1519156, Control_c, 0, 64, 47
1, 1519173, Control_c, 0, 64, 43
1, 1519194, Control_c, 0, 64, 37
1, 1519195, Control_c, 0, 67, 57
1, 1519212, Control_c, 0, 64, 31
1, 1519213, Control_c, 0, 67, 52
1, 1519220, Note_on_c, 0, 74, 0
1, 1519231, Control_c, 0, 64, 26
1, 1519232, Control_c, 0, 67, 45
1, 1519247, Control_c, 0, 67, 38
1, 1519266, Control_c, 0, 67, 26
1, 1519274, Note_on_c, 0, 46, 0
1, 1519285, Control_c, 0, 67, 9
1, 1519313, Control_c, 0, 64, 37
1, 1519315, Control_c, 0, 67, 0
1, 1519332, Control_c, 0, 64, 58
1, 1519349, Control_c, 0, 64, 82
1, 1519369, Control_c, 0, 64, 101
1, 1519388, Control_c, 0, 64, 120
1, 1519407, Control_c, 0, 64, 127
1, 1519533, Note_on_c, 0, 62, 0
1, 1519619, Note_on_c, 0, 65, 0
1, 1519646, Note_on_c, 0, 70, 0
1, 1520093, Note_on_c, 0, 58, 56
1, 1520105, Note_on_c, 0, 70, 90
1, 1520285, Note_on_c, 0, 70, 0
1, 1520369, Note_on_c, 0, 58, 0
1, 1520398, Note_on_c, 0, 72, 90
1, 1520401, Note_on_c, 0, 70, 88
1, 1520417, Note_on_c, 0, 57, 68
1, 1520419, Note_on_c, 0, 69, 78
1, 1520503, Note_on_c, 0, 57, 0
1, 1520518, Note_on_c, 0, 69, 0
1, 1520527, Note_on_c, 0, 70, 0
1, 1520569, Note_on_c, 0, 72, 0
1, 1520635, Note_on_c, 0, 74, 97
1, 1520642, Note_on_c, 0, 68, 89
1, 1520642, Note_on_c, 0, 70, 87
1, 1520650, Note_on_c, 0, 56, 80
1, 1520697, Note_on_c, 0, 70, 0
1, 1520724, Note_on_c, 0, 68, 0
1, 1520739, Note_on_c, 0, 56, 0
1, 1520739, Note_on_c, 0, 74, 0
1, 1520940, Note_on_c, 0, 70, 80
1, 1520940, Note_on_c, 0, 75, 95
1, 1520955, Note_on_c, 0, 66, 93
1, 1520958, Note_on_c, 0, 54, 81
1, 1521028, Control_c, 0, 64, 112
1, 1521046, Control_c, 0, 64, 71
1, 1521064, Control_c, 0, 64, 0
1, 1521185, Control_c, 0, 64, 30
1, 1521200, Control_c, 0, 64, 64
1, 1521218, Control_c, 0, 64, 91
1, 1521237, Control_c, 0, 64, 119
1, 1521256, Control_c, 0, 64, 127
1, 1521299, Note_on_c, 0, 54, 0
1, 1521364, Note_on_c, 0, 66, 0
1, 1521492, Note_on_c, 0, 75, 0
1, 1521496, Note_on_c, 0, 70, 0
1, 1521925, Note_on_c, 0, 78, 98
1, 1521928, Note_on_c, 0, 75, 95
1, 1521929, Note_on_c, 0, 70, 96
1, 1521931, Note_on_c, 0, 63, 102
1, 1521932, Note_on_c, 0, 51, 86
1, 1521960, Control_c, 0, 64, 111
1, 1521977, Control_c, 0, 64, 69
1, 1521996, Control_c, 0, 64, 0
1, 1522089, Control_c, 0, 64, 40
1, 1522116, Control_c, 0, 64, 73
1, 1522136, Control_c, 0, 64, 100
1, 1522154, Control_c, 0, 64, 127
1, 1522199, Note_on_c, 0, 51, 0
1, 1522304, Note_on_c, 0, 63, 0
1, 1522328, Note_on_c, 0, 70, 0
1, 1522386, Note_on_c, 0, 75, 0
1, 1522388, Note_on_c, 0, 78, 0
1, 1522943, Note_on_c, 0, 82, 98
1, 1522948, Note_on_c, 0, 70, 99
1, 1522949, Note_on_c, 0, 61, 106
1, 1522952, Note_on_c, 0, 77, 95
1, 1522954, Note_on_c, 0, 49, 93
1, 1522971, Control_c, 0, 64, 113
1, 1522987, Control_c, 0, 64, 66
1, 1523005, Control_c, 0, 64, 0
1, 1523090, Control_c, 0, 64, 19
1, 1523108, Control_c, 0, 64, 57
1, 1523118, Poly_aftertouch_c, 0, 79, 0
1, 1523125, Control_c, 0, 64, 89
1, 1523145, Control_c, 0, 64, 115
1, 1523165, Control_c, 0, 64, 127
1, 1523221, Note_on_c, 0, 49, 0
1, 1523422, Note_on_c, 0, 61, 0
1, 1523445, Note_on_c, 0, 70, 0
1, 1523467, Note_on_c, 0, 82, 0
1, 1523485, Note_on_c, 0, 77, 0
1, 1524100, Note_on_c, 0, 60, 105
1, 1524101, Note_on_c, 0, 87, 98
1, 1524102, Note_on_c, 0, 48, 89
1, 1524103, Note_on_c, 0, 75, 98
1, 1524211, Control_c, 0, 64, 83
1, 1524216, Poly_aftertouch_c, 0, 79, 0
1, 1524230, Control_c, 0, 64, 36
1, 1524248, Control_c, 0, 64, 0
1, 1524303, Control_c, 0, 64, 8
1, 1524320, Control_c, 0, 64, 44
1, 1524341, Control_c, 0, 64, 77
1, 1524358, Control_c, 0, 64, 102
1, 1524376, Control_c, 0, 64, 127
1, 1524598, Note_on_c, 0, 48, 0
1, 1524816, Note_on_c, 0, 75, 0
1, 1524866, Note_on_c, 0, 60, 0
1, 1524892, Note_on_c, 0, 87, 0
1, 1525353, Note_on_c, 0, 58, 102
1, 1525357, Note_on_c, 0, 77, 101
1, 1525357, Note_on_c, 0, 89, 97
1, 1525358, Note_on_c, 0, 46, 89
1, 1525361, Note_on_c, 0, 82, 95
1, 1525363, Note_on_c, 0, 86, 90
1, 1525422, Control_c, 0, 64, 122
1, 1525442, Control_c, 0, 64, 85
1, 1525459, Poly_aftertouch_c, 0, 59, 0
1, 1525461, Control_c, 0, 64, 39
1, 1525469, Poly_aftertouch_c, 0, 50, 0
1, 1525479, Control_c, 0, 64, 0
1, 1525591, Control_c, 0, 64, 41
1, 1525607, Control_c, 0, 64, 74
1, 1525627, Control_c, 0, 64, 98
1, 1525645, Control_c, 0, 64, 127
1, 1526099, Note_on_c, 0, 58, 0
1, 1526313, Note_on_c, 0, 46, 0
1, 1526322, Note_on_c, 0, 82, 0
1, 1526509, Note_on_c, 0, 89, 0
1, 1526574, Note_on_c, 0, 86, 0
1, 1526686, Note_on_c, 0, 77, 0
1, 1526863, Note_on_c, 0, 34, 88
1, 1526895, Note_on_c, 0, 86, 81
1, 1526900, Note_on_c, 0, 46, 54
1, 1526902, Note_on_c, 0, 74, 81
1, 1526906, Note_on_c, 0, 34, 0
1, 1526910, Note_on_c, 0, 77, 77
1, 1526910, Note_on_c, 0, 82, 74
1, 1526950, Note_on_c, 0, 86, 0
1, 1526975, Note_on_c, 0, 82, 0
1, 1526979, Note_on_c, 0, 77, 0
1, 1526981, Note_on_c, 0, 74, 0
1, 1526994, Note_on_c, 0, 34, 91
1, 1527042, Note_on_c, 0, 46, 0
1, 1527215, Note_on_c, 0, 46, 92
1, 1527224, Note_on_c, 0, 82, 89
1, 1527232, Note_on_c, 0, 70, 90
1, 1527238, Note_on_c, 0, 74, 83
1, 1527244, Note_on_c, 0, 77, 75
1, 1527261, Note_on_c, 0, 34, 0
1, 1527320, Note_on_c, 0, 46, 0
1, 1527652, Note_on_c, 0, 82, 0
1, 1527654, Note_on_c, 0, 70, 0
1, 1527695, Note_on_c, 0, 77, 0
1, 1527714, Note_on_c, 0, 74, 0
1, 1528415, Control_c, 0, 64, 117
1, 1528433, Control_c, 0, 64, 86
1, 1528453, Control_c, 0, 64, 47
1, 1528471, Control_c, 0, 64, 0
1, 1528562, Control_c, 0, 64, 12
1, 1528582, Control_c, 0, 64, 46
1, 1528593, Note_on_c, 0, 82, 95
1, 1528601, Control_c, 0, 64, 78
1, 1528602, Note_on_c, 0, 70, 81
1, 1528618, Control_c, 0, 64, 104
1, 1528633, Note_on_c, 0, 70, 0
1, 1528637, Control_c, 0, 64, 127
1, 1528644, Note_on_c, 0, 82, 0
1, 1528715, Note_on_c, 0, 82, 97
1, 1528720, Note_on_c, 0, 70, 90
1, 1528765, Note_on_c, 0, 70, 0
1, 1528768, Note_on_c, 0, 82, 0
1, 1528823, Note_on_c, 0, 82, 97
1, 1528827, Note_on_c, 0, 70, 81
1, 1528879, Note_on_c, 0, 70, 0
1, 1528895, Note_on_c, 0, 82, 0
1, 1528908, Note_on_c, 0, 84, 8
1, 1528949, Note_on_c, 0, 90, 97
1, 1528950, Note_on_c, 0, 78, 102
1, 1528952, Note_on_c, 0, 82, 84
1, 1528954, Note_on_c, 0, 72, 99
1, 1528958, Note_on_c, 0, 70, 72
1, 1528959, Note_on_c, 0, 63, 90
1, 1528982, Note_on_c, 0, 71, 80
1, 1529022, Poly_aftertouch_c, 0, 87, 0
1, 1529037, Control_c, 0, 64, 95
1, 1529042, Poly_aftertouch_c, 0, 87, 0
1, 1529056, Control_c, 0, 64, 59
1, 1529067, Note_on_c, 0, 71, 0
1, 1529072, Control_c, 0, 64, 21
1, 1529092, Control_c, 0, 64, 13
1, 1529519, Control_c, 0, 64, 0
1, 1529673, Control_c, 0, 64, 15
1, 1529693, Control_c, 0, 64, 31
1, 1529712, Control_c, 0, 64, 48
1, 1529730, Control_c, 0, 64, 73
1, 1529749, Control_c, 0, 64, 92
1, 1529767, Control_c, 0, 64, 116
1, 1529787, Control_c, 0, 64, 127
1, 1529941, Note_on_c, 0, 90, 0
1, 1529948, Note_on_c, 0, 63, 0
1, 1529961, Note_on_c, 0, 72, 0
1, 1529972, Note_on_c, 0, 82, 0
1, 1530045, Note_on_c, 0, 70, 0
1, 1530050, Note_on_c, 0, 84, 0
1, 1530099, Note_on_c, 0, 78, 0
1, 1530441, Note_on_c, 0, 77, 109
1, 1530442, Note_on_c, 0, 75, 101
1, 1530443, Note_on_c, 0, 65, 87
1, 1530445, Note_on_c, 0, 89, 100
1, 1530447, Note_on_c, 0, 72, 93
1, 1530448, Note_on_c, 0, 81, 96
1, 1530449, Note_on_c, 0, 84, 89
1, 1530508, Control_c, 0, 64, 105
1, 1530528, Control_c, 0, 64, 59
1, 1530557, Control_c, 0, 64, 0
1, 1530559, Poly_aftertouch_c, 0, 86, 0
1, 1530564, Poly_aftertouch_c, 0, 86, 0
1, 1530648, Control_c, 0, 64, 8
1, 1530665, Control_c, 0, 64, 56
1, 1530685, Control_c, 0, 64, 87
1, 1530703, Control_c, 0, 64, 113
1, 1530722, Control_c, 0, 64, 127
1, 1530730, Note_on_c, 0, 65, 0
1, 1530737, Note_on_c, 0, 75, 0
1, 1530840, Note_on_c, 0, 72, 0
1, 1530999, Note_on_c, 0, 89, 0
1, 1531235, Note_on_c, 0, 81, 0
1, 1531601, Control_c, 0, 64, 117
1, 1531621, Control_c, 0, 64, 83
1, 1531621, Note_on_c, 0, 41, 88
1, 1531639, Control_c, 0, 64, 64
1, 1531658, Control_c, 0, 64, 70
1, 1531663, Note_on_c, 0, 41, 0
1, 1531677, Control_c, 0, 64, 83
1, 1531693, Note_on_c, 0, 77, 0
1, 1531694, Control_c, 0, 64, 104
1, 1531714, Control_c, 0, 64, 127
1, 1531727, Note_on_c, 0, 41, 80
1, 1531770, Note_on_c, 0, 84, 0
1, 1531776, Note_on_c, 0, 41, 0
1, 1531827, Note_on_c, 0, 41, 75
1, 1531921, Note_on_c, 0, 46, 105
1, 1531930, Note_on_c, 0, 34, 86
1, 1531942, Note_on_c, 0, 86, 96
1, 1531945, Note_on_c, 0, 74, 102
1, 1531946, Note_on_c, 0, 77, 97
1, 1531947, Note_on_c, 0, 82, 92
1, 1531972, Note_on_c, 0, 41, 0
1, 1531972, Note_on_c, 0, 46, 0
1, 1531975, Note_on_c, 0, 34, 0
1, 1532157, Control_c, 0, 64, 104
1, 1532175, Control_c, 0, 64, 70
1, 1532195, Control_c, 0, 64, 37
1, 1532214, Control_c, 0, 64, 30
1, 1533109, Note_on_c, 0, 41, 81
1, 1533149, Note_on_c, 0, 41, 0
1, 1533216, Note_on_c, 0, 41, 76
1, 1533241, Note_on_c, 0, 41, 0
1, 1533294, Note_on_c, 0, 41, 89
1, 1533358, Note_on_c, 0, 41, 0
1, 1533414, Note_on_c, 0, 34, 92
1, 1533415, Note_on_c, 0, 46, 103
1, 1533435, Control_c, 0, 64, 0
1, 1533465, Note_on_c, 0, 46, 0
1, 1533470, Note_on_c, 0, 34, 0
1, 1533474, Note_on_c, 0, 47, 26
1, 1533475, Note_on_c, 0, 47, 0
1, 1533491, Control_c, 0, 64, 31
1, 1533511, Control_c, 0, 64, 65
1, 1533529, Control_c, 0, 64, 94
1, 1533547, Control_c, 0, 64, 120
1, 1533568, Control_c, 0, 64, 127
1, 1533735, Control_c, 0, 64, 110
1, 1533751, Control_c, 0, 64, 88
1, 1533771, Control_c, 0, 64, 64
1, 1533788, Control_c, 0, 64, 47
1, 1533789, Control_c, 0, 67, 16
1, 1533806, Control_c, 0, 67, 29
1, 1533825, Control_c, 0, 67, 39
1, 1533843, Control_c, 0, 64, 45
1, 1533862, Control_c, 0, 67, 43
1, 1533881, Control_c, 0, 64, 43
1, 1533918, Control_c, 0, 67, 38
1, 1533938, Control_c, 0, 64, 41
1, 1533955, Control_c, 0, 67, 33
1, 1533991, Control_c, 0, 67, 27
1, 1534011, Control_c, 0, 67, 20
1, 1534029, Control_c, 0, 67, 9
1, 1534048, Control_c, 0, 64, 47
1, 1534050, Control_c, 0, 67, 0
1, 1534066, Control_c, 0, 64, 59
1, 1534085, Control_c, 0, 64, 75
1, 1534103, Control_c, 0, 64, 94
1, 1534122, Control_c, 0, 64, 120
1, 1534140, Control_c, 0, 64, 127
1, 1534151, Note_on_c, 0, 74, 0
1, 1534164, Note_on_c, 0, 86, 0
1, 1534183, Note_on_c, 0, 77, 0
1, 1534215, Control_c, 0, 64, 121
1, 1534216, Note_on_c, 0, 82, 0
1, 1534233, Control_c, 0, 64, 96
1, 1534251, Control_c, 0, 64, 68
1, 1534270, Control_c, 0, 64, 46
1, 1534298, Control_c, 0, 64, 38
1, 1534603, Note_on_c, 0, 70, 74
1, 1534605, Note_on_c, 0, 82, 79
1, 1534630, Note_on_c, 0, 82, 0
1, 1534632, Note_on_c, 0, 70, 0
1, 1534693, Note_on_c, 0, 82, 94
1, 1534701, Note_on_c, 0, 70, 78
1, 1534731, Note_on_c, 0, 70, 0
1, 1534735, Note_on_c, 0, 82, 0
1, 1534793, Note_on_c, 0, 70, 83
1, 1534795, Note_on_c, 0, 82, 92
1, 1534835, Note_on_c, 0, 70, 0
1, 1534847, Note_on_c, 0, 82, 0
1, 1534895, Note_on_c, 0, 82, 89
1, 1534901, Note_on_c, 0, 71, 97
1, 1534901, Note_on_c, 0, 90, 99
1, 1534902, Note_on_c, 0, 78, 105
1, 1534904, Note_on_c, 0, 63, 88
1, 1534905, Note_on_c, 0, 70, 81
1, 1535094, Control_c, 0, 64, 33
1, 1535130, Control_c, 0, 64, 27
1, 1535150, Control_c, 0, 64, 23
1, 1535168, Control_c, 0, 64, 18
1, 1535187, Control_c, 0, 64, 13
1, 1535205, Control_c, 0, 64, 9
1, 1535233, Control_c, 0, 64, 0
1, 1535364, Control_c, 0, 64, 15
1, 1535381, Control_c, 0, 64, 28
1, 1535401, Control_c, 0, 64, 41
1, 1535418, Control_c, 0, 64, 60
1, 1535438, Control_c, 0, 64, 76
1, 1535456, Control_c, 0, 64, 86
1, 1535473, Control_c, 0, 64, 96
1, 1535492, Control_c, 0, 64, 108
1, 1535510, Control_c, 0, 64, 122
1, 1535530, Control_c, 0, 64, 127
1, 1535711, Note_on_c, 0, 90, 0
1, 1535783, Note_on_c, 0, 63, 0
1, 1535826, Note_on_c, 0, 71, 0
1, 1535908, Note_on_c, 0, 82, 0
1, 1535917, Note_on_c, 0, 78, 0
1, 1536036, Poly_aftertouch_c, 0, 70, 24
1, 1536091, Note_on_c, 0, 70, 0
1, 1536091, Poly_aftertouch_c, 0, 70, 0
1, 1536447, Note_on_c, 0, 72, 98
1, 1536447, Note_on_c, 0, 89, 101
1, 1536450, Note_on_c, 0, 77, 105
1, 1536451, Note_on_c, 0, 65, 90
1, 1536452, Note_on_c, 0, 81, 100
1, 1536454, Note_on_c, 0, 69, 92
1, 1536503, Control_c, 0, 64, 110
1, 1536520, Control_c, 0, 64, 68
1, 1536540, Control_c, 0, 64, 15
1, 1536559, Control_c, 0, 64, 0
1, 1536650, Control_c, 0, 64, 19
1, 1536670, Control_c, 0, 64, 57
1, 1536688, Control_c, 0, 64, 86
1, 1536705, Control_c, 0, 64, 108
1, 1536725, Control_c, 0, 64, 123
1, 1536743, Control_c, 0, 64, 127
1, 1536798, Note_on_c, 0, 72, 0
1, 1536800, Note_on_c, 0, 65, 0
1, 1536892, Note_on_c, 0, 69, 0
1, 1537401, Control_c, 0, 64, 122
1, 1537419, Control_c, 0, 64, 103
1, 1537438, Control_c, 0, 64, 80
1, 1537456, Control_c, 0, 64, 56
1, 1537476, Control_c, 0, 64, 39
1, 1537495, Control_c, 0, 64, 33
1, 1537579, Note_on_c, 0, 81, 0
1, 1537597, Note_on_c, 0, 41, 81
1, 1537603, Note_on_c, 0, 77, 0
1, 1537632, Note_on_c, 0, 41, 0
1, 1537641, Control_c, 0, 64, 53
1, 1537645, Note_on_c, 0, 89, 0
1, 1537661, Control_c, 0, 64, 72
1, 1537679, Control_c, 0, 64, 91
1, 1537696, Note_on_c, 0, 41, 83
1, 1537698, Control_c, 0, 64, 119
1, 1537714, Control_c, 0, 64, 127
1, 1537730, Note_on_c, 0, 41, 0
1, 1537775, Note_on_c, 0, 40, 13
1, 1537800, Note_on_c, 0, 41, 89
1, 1537803, Note_on_c, 0, 40, 0
1, 1537878, Note_on_c, 0, 94, 99
1, 1537881, Note_on_c, 0, 34, 92
1, 1537881, Note_on_c, 0, 46, 105
1, 1537883, Note_on_c, 0, 82, 101
1, 1537884, Note_on_c, 0, 86, 93
1, 1537888, Note_on_c, 0, 89, 89
1, 1537911, Note_on_c, 0, 41, 0
1, 1537921, Note_on_c, 0, 34, 0
1, 1537929, Note_on_c, 0, 46, 0
1, 1537990, Poly_aftertouch_c, 0, 40, 0
1, 1538094, Control_c, 0, 64, 112
1, 1538113, Control_c, 0, 64, 87
1, 1538133, Control_c, 0, 64, 62
1, 1538151, Control_c, 0, 64, 47
1, 1538225, Control_c, 0, 64, 44
1, 1538262, Control_c, 0, 64, 42
1, 1539100, Note_on_c, 0, 41, 77
1, 1539134, Note_on_c, 0, 41, 0
1, 1539190, Note_on_c, 0, 41, 88
1, 1539235, Note_on_c, 0, 41, 0
1, 1539291, Note_on_c, 0, 41, 85
1, 1539347, Control_c, 0, 64, 28
1, 1539366, Control_c, 0, 64, 0
1, 1539384, Note_on_c, 0, 46, 102
1, 1539385, Note_on_c, 0, 34, 93
1, 1539412, Note_on_c, 0, 41, 0
1, 1539430, Note_on_c, 0, 46, 0
1, 1539438, Control_c, 0, 64, 46
1, 1539445, Note_on_c, 0, 34, 0
1, 1539457, Control_c, 0, 64, 85
1, 1539475, Control_c, 0, 64, 118
1, 1539495, Control_c, 0, 64, 127
1, 1539624, Control_c, 0, 64, 113
1, 1539642, Control_c, 0, 64, 88
1, 1539662, Control_c, 0, 64, 63
1, 1539679, Control_c, 0, 64, 44
1, 1539699, Control_c, 0, 64, 42
1, 1539736, Control_c, 0, 64, 38
1, 1539754, Control_c, 0, 64, 29
1, 1539773, Control_c, 0, 64, 16
1, 1539809, Control_c, 0, 64, 0
1, 1540135, Control_c, 0, 64, 22
1, 1540151, Control_c, 0, 64, 41
1, 1540171, Control_c, 0, 64, 60
1, 1540188, Control_c, 0, 64, 82
1, 1540208, Control_c, 0, 64, 113
1, 1540215, Note_on_c, 0, 94, 0
1, 1540226, Control_c, 0, 64, 127
1, 1540279, Note_on_c, 0, 89, 0
1, 1540295, Note_on_c, 0, 86, 0
1, 1540301, Note_on_c, 0, 82, 0
1, 1540579, Note_on_c, 0, 41, 77
1, 1540612, Note_on_c, 0, 41, 0
1, 1540677, Note_on_c, 0, 41, 81
1, 1540719, Note_on_c, 0, 41, 0
1, 1540777, Note_on_c, 0, 41, 74
1, 1540909, Note_on_c, 0, 46, 100
1, 1540917, Note_on_c, 0, 34, 88
1, 1540925, Note_on_c, 0, 59, 92
1, 1540931, Note_on_c, 0, 47, 105
1, 1540937, Note_on_c, 0, 41, 0
1, 1540964, Note_on_c, 0, 34, 0
1, 1540967, Note_on_c, 0, 46, 0
1, 1541310, Control_c, 0, 64, 113
1, 1541328, Control_c, 0, 64, 95
1, 1541346, Control_c, 0, 64, 77
1, 1541366, Control_c, 0, 64, 63
1, 1541384, Control_c, 0, 64, 58
1, 1541441, Control_c, 0, 64, 55
1, 1541457, Control_c, 0, 64, 52
1, 1541477, Control_c, 0, 64, 49
1, 1541494, Control_c, 0, 64, 47
1, 1541588, Control_c, 0, 64, 45
1, 1541972, Note_on_c, 0, 41, 71
1, 1542002, Note_on_c, 0, 41, 0
1, 1542064, Note_on_c, 0, 41, 81
1, 1542097, Note_on_c, 0, 41, 0
1, 1542159, Note_on_c, 0, 41, 90
1, 1542192, Control_c, 0, 64, 43
1, 1542258, Note_on_c, 0, 46, 89
1, 1542263, Note_on_c, 0, 34, 81
1, 1542272, Note_on_c, 0, 41, 0
1, 1542319, Control_c, 0, 64, 49
1, 1542336, Note_on_c, 0, 34, 0
1, 1542338, Control_c, 0, 64, 55
1, 1542357, Control_c, 0, 64, 60
1, 1542370, Note_on_c, 0, 46, 0
1, 1542375, Control_c, 0, 64, 66
1, 1542393, Control_c, 0, 64, 73
1, 1542411, Control_c, 0, 64, 78
1, 1542430, Control_c, 0, 64, 83
1, 1542450, Control_c, 0, 64, 86
1, 1542756, Control_c, 0, 64, 83
1, 1542773, Control_c, 0, 64, 79
1, 1542791, Control_c, 0, 64, 73
1, 1542810, Control_c, 0, 64, 66
1, 1542829, Control_c, 0, 64, 57
1, 1542848, Control_c, 0, 64, 50
1, 1542867, Control_c, 0, 64, 42
1, 1542886, Control_c, 0, 64, 32
1, 1542904, Control_c, 0, 64, 23
1, 1542922, Control_c, 0, 64, 15
1, 1542941, Control_c, 0, 64, 9
1, 1542995, Control_c, 0, 64, 21
1, 1543014, Control_c, 0, 64, 40
1, 1543033, Control_c, 0, 64, 58
1, 1543051, Control_c, 0, 64, 79
1, 1543070, Control_c, 0, 64, 97
1, 1543089, Control_c, 0, 64, 120
1, 1543107, Control_c, 0, 64, 127
1, 1543158, Note_on_c, 0, 47, 0
1, 1543218, Note_on_c, 0, 59, 0
1, 1543228, Note_on_c, 0, 41, 61
1, 1543260, Note_on_c, 0, 41, 0
1, 1543313, Note_on_c, 0, 41, 72
1, 1543344, Note_on_c, 0, 41, 0
1, 1543406, Note_on_c, 0, 41, 90
1, 1543491, Note_on_c, 0, 63, 93
1, 1543491, Note_on_c, 0, 51, 97
1, 1543499, Note_on_c, 0, 59, 86
1, 1543505, Note_on_c, 0, 46, 87
1, 1543511, Note_on_c, 0, 41, 0
1, 1543520, Note_on_c, 0, 34, 67
1, 1543556, Note_on_c, 0, 34, 0
1, 1543568, Note_on_c, 0, 46, 0
1, 1543764, Control_c, 0, 64, 122
1, 1543784, Control_c, 0, 64, 107
1, 1543801, Control_c, 0, 64, 89
1, 1543821, Control_c, 0, 64, 71
1, 1543839, Control_c, 0, 64, 58
1, 1543857, Control_c, 0, 64, 54
1, 1543876, Control_c, 0, 64, 49
1, 1543893, Control_c, 0, 64, 42
1, 1543912, Control_c, 0, 64, 35
1, 1543930, Control_c, 0, 64, 29
1, 1543949, Control_c, 0, 64, 23
1, 1543968, Control_c, 0, 64, 19
1, 1543988, Control_c, 0, 64, 15
1, 1544024, Control_c, 0, 64, 11
1, 1544097, Control_c, 0, 64, 16
1, 1544117, Control_c, 0, 64, 34
1, 1544135, Control_c, 0, 64, 49
1, 1544154, Control_c, 0, 64, 67
1, 1544172, Control_c, 0, 64, 81
1, 1544192, Control_c, 0, 64, 94
1, 1544209, Control_c, 0, 64, 106
1, 1544229, Control_c, 0, 64, 121
1, 1544247, Control_c, 0, 64, 127
1, 1544295, Note_on_c, 0, 41, 64
1, 1544325, Note_on_c, 0, 41, 0
1, 1544326, Note_on_c, 0, 51, 0
1, 1544333, Note_on_c, 0, 59, 0
1, 1544352, Note_on_c, 0, 63, 0
1, 1544385, Note_on_c, 0, 41, 77
1, 1544417, Note_on_c, 0, 41, 0
1, 1544477, Note_on_c, 0, 41, 88
1, 1544573, Note_on_c, 0, 46, 96
1, 1544574, Note_on_c, 0, 65, 96
1, 1544574, Note_on_c, 0, 34, 89
1, 1544575, Note_on_c, 0, 53, 99
1, 1544581, Note_on_c, 0, 63, 89
1, 1544582, Note_on_c, 0, 59, 88
1, 1544603, Note_on_c, 0, 41, 0
1, 1544638, Note_on_c, 0, 46, 0
1, 1544638, Note_on_c, 0, 34, 0
1, 1544848, Control_c, 0, 64, 108
1, 1544868, Control_c, 0, 64, 88
1, 1544885, Control_c, 0, 64, 68
1, 1544904, Control_c, 0, 64, 53
1, 1544923, Control_c, 0, 64, 48
1, 1544941, Control_c, 0, 64, 44
1, 1544960, Control_c, 0, 64, 35
1, 1544979, Control_c, 0, 64, 25
1, 1544998, Control_c, 0, 64, 17
1, 1545014, Control_c, 0, 64, 12
1, 1545052, Control_c, 0, 64, 0
1, 1545127, Control_c, 0, 64, 31
1, 1545144, Control_c, 0, 64, 53
1, 1545164, Control_c, 0, 64, 78
1, 1545183, Control_c, 0, 64, 100
1, 1545199, Control_c, 0, 64, 127
1, 1545261, Note_on_c, 0, 53, 0
1, 1545289, Note_on_c, 0, 65, 0
1, 1545309, Note_on_c, 0, 59, 0
1, 1545343, Note_on_c, 0, 41, 66
1, 1545355, Note_on_c, 0, 63, 0
1, 1545378, Note_on_c, 0, 41, 0
1, 1545452, Note_on_c, 0, 41, 73
1, 1545488, Note_on_c, 0, 41, 0
1, 1545557, Note_on_c, 0, 41, 81
1, 1545626, Note_on_c, 0, 68, 97
1, 1545631, Note_on_c, 0, 59, 93
1, 1545634, Note_on_c, 0, 46, 93
1, 1545637, Note_on_c, 0, 65, 89
1, 1545640, Note_on_c, 0, 63, 84
1, 1545645, Note_on_c, 0, 34, 81
1, 1545666, Note_on_c, 0, 41, 0
1, 1545696, Note_on_c, 0, 34, 0
1, 1545697, Note_on_c, 0, 46, 0
1, 1545914, Control_c, 0, 64, 116
1, 1545934, Control_c, 0, 64, 92
1, 1545949, Control_c, 0, 64, 68
1, 1545969, Control_c, 0, 64, 50
1, 1545987, Control_c, 0, 64, 46
1, 1546007, Control_c, 0, 64, 44
1, 1546024, Control_c, 0, 64, 40
1, 1546044, Control_c, 0, 64, 34
1, 1546062, Control_c, 0, 64, 28
1, 1546080, Control_c, 0, 64, 23
1, 1546099, Control_c, 0, 64, 19
1, 1546118, Control_c, 0, 64, 15
1, 1546172, Control_c, 0, 64, 0
1, 1546247, Control_c, 0, 64, 8
1, 1546266, Control_c, 0, 64, 32
1, 1546285, Control_c, 0, 64, 50
1, 1546303, Control_c, 0, 64, 73
1, 1546320, Control_c, 0, 64, 92
1, 1546340, Control_c, 0, 64, 116
1, 1546357, Control_c, 0, 64, 127
1, 1546360, Note_on_c, 0, 41, 70
1, 1546384, Note_on_c, 0, 59, 0
1, 1546394, Note_on_c, 0, 41, 0
1, 1546416, Note_on_c, 0, 68, 0
1, 1546427, Note_on_c, 0, 65, 0
1, 1546429, Note_on_c, 0, 63, 0
1, 1546461, Note_on_c, 0, 41, 76
1, 1546493, Note_on_c, 0, 41, 0
1, 1546548, Note_on_c, 0, 41, 94
1, 1546641, Note_on_c, 0, 67, 97
1, 1546642, Note_on_c, 0, 63, 92
1, 1546642, Note_on_c, 0, 46, 95
1, 1546642, Note_on_c, 0, 58, 94
1, 1546648, Note_on_c, 0, 41, 0
1, 1546648, Note_on_c, 0, 34, 85
1, 1546694, Note_on_c, 0, 34, 0
1, 1546708, Note_on_c, 0, 46, 0
1, 1546831, Control_c, 0, 64, 117
1, 1546850, Control_c, 0, 64, 102
1, 1546869, Control_c, 0, 64, 88
1, 1546885, Control_c, 0, 64, 79
1, 1546904, Control_c, 0, 64, 75
1, 1546923, Control_c, 0, 64, 72
1, 1546942, Control_c, 0, 64, 68
1, 1546961, Control_c, 0, 64, 62
1, 1546980, Control_c, 0, 64, 55
1, 1546998, Control_c, 0, 64, 50
1, 1547016, Control_c, 0, 64, 45
1, 1547035, Control_c, 0, 64, 40
1, 1547053, Control_c, 0, 64, 35
1, 1547071, Control_c, 0, 64, 29
1, 1547089, Control_c, 0, 64, 23
1, 1547108, Control_c, 0, 64, 16
1, 1547126, Control_c, 0, 64, 12
1, 1547146, Control_c, 0, 64, 8
1, 1547239, Control_c, 0, 64, 26
1, 1547256, Control_c, 0, 64, 46
1, 1547275, Control_c, 0, 64, 65
1, 1547294, Control_c, 0, 64, 85
1, 1547311, Control_c, 0, 64, 105
1, 1547331, Control_c, 0, 64, 127
1, 1547469, Note_on_c, 0, 67, 0
1, 1547476, Note_on_c, 0, 63, 0
1, 1547476, Note_on_c, 0, 41, 76
1, 1547514, Note_on_c, 0, 41, 0
1, 1547537, Note_on_c, 0, 58, 0
1, 1547580, Note_on_c, 0, 41, 81
1, 1547614, Note_on_c, 0, 41, 0
1, 1547695, Note_on_c, 0, 41, 81
1, 1547838, Note_on_c, 0, 57, 97
1, 1547839, Note_on_c, 0, 46, 96
1, 1547842, Note_on_c, 0, 66, 91
1, 1547843, Note_on_c, 0, 63, 86
1, 1547845, Note_on_c, 0, 60, 90
1, 1547845, Note_on_c, 0, 34, 86
1, 1547875, Note_on_c, 0, 41, 0
1, 1547901, Note_on_c, 0, 46, 0
1, 1547908, Note_on_c, 0, 34, 0
1, 1548267, Control_c, 0, 64, 119
1, 1548268, Control_c, 0, 67, 8
1, 1548285, Control_c, 0, 64, 108
1, 1548304, Control_c, 0, 64, 98
1, 1548332, Control_c, 0, 64, 88
1, 1548350, Control_c, 0, 64, 82
1, 1548370, Control_c, 0, 64, 80
1, 1548371, Control_c, 0, 67, 12
1, 1548405, Control_c, 0, 64, 77
1, 1548442, Control_c, 0, 64, 74
1, 1548479, Control_c, 0, 64, 71
1, 1548517, Control_c, 0, 67, 16
1, 1548537, Control_c, 0, 64, 69
1, 1548554, Control_c, 0, 64, 68
1, 1548572, Control_c, 0, 64, 66
1, 1548590, Control_c, 0, 64, 63
1, 1548609, Control_c, 0, 64, 60
1, 1548629, Control_c, 0, 64, 57
1, 1548631, Control_c, 0, 67, 20
1, 1548646, Control_c, 0, 64, 54
1, 1548665, Control_c, 0, 64, 50
1, 1548683, Control_c, 0, 64, 47
1, 1548702, Control_c, 0, 64, 44
1, 1548703, Control_c, 0, 67, 24
1, 1548722, Control_c, 0, 64, 41
1, 1548756, Control_c, 0, 64, 36
1, 1548775, Control_c, 0, 64, 32
1, 1548813, Control_c, 0, 64, 27
1, 1548907, Control_c, 0, 64, 33
1, 1548925, Control_c, 0, 64, 45
1, 1548942, Control_c, 0, 64, 55
1, 1548961, Control_c, 0, 64, 68
1, 1548979, Control_c, 0, 64, 79
1, 1548993, Note_on_c, 0, 41, 57
1, 1548997, Control_c, 0, 64, 92
1, 1549017, Control_c, 0, 64, 107
1, 1549028, Note_on_c, 0, 41, 0
1, 1549034, Note_on_c, 0, 57, 0
1, 1549035, Control_c, 0, 64, 120
1, 1549039, Note_on_c, 0, 60, 0
1, 1549053, Control_c, 0, 64, 127
1, 1549071, Note_on_c, 0, 63, 0
1, 1549091, Note_on_c, 0, 41, 70
1, 1549122, Note_on_c, 0, 41, 0
1, 1549189, Note_on_c, 0, 41, 79
1, 1549312, Note_on_c, 0, 41, 0
1, 1549327, Note_on_c, 0, 46, 68
1, 1549336, Note_on_c, 0, 34, 59
1, 1549361, Note_on_c, 0, 65, 75
1, 1549365, Note_on_c, 0, 61, 62
1, 1549369, Note_on_c, 0, 58, 57
1, 1549393, Note_on_c, 0, 34, 0
1, 1549398, Note_on_c, 0, 46, 0
1, 1549482, Note_on_c, 0, 66, 0
1, 1549526, Control_c, 0, 64, 118
1, 1549545, Control_c, 0, 64, 109
1, 1549563, Control_c, 0, 64, 100
1, 1549582, Control_c, 0, 64, 90
1, 1549602, Control_c, 0, 64, 77
1, 1549619, Control_c, 0, 64, 65
1, 1549637, Control_c, 0, 64, 57
1, 1549657, Control_c, 0, 64, 52
1, 1549675, Control_c, 0, 64, 49
1, 1549692, Control_c, 0, 64, 47
1, 1549711, Control_c, 0, 64, 44
1, 1549730, Control_c, 0, 64, 42
1, 1549806, Control_c, 0, 64, 37
1, 1550082, Control_c, 0, 67, 28
1, 1550137, Control_c, 0, 67, 32
1, 1550222, Control_c, 0, 64, 43
1, 1550240, Control_c, 0, 64, 48
1, 1550258, Control_c, 0, 64, 54
1, 1550276, Control_c, 0, 64, 62
1, 1550295, Control_c, 0, 64, 71
1, 1550313, Control_c, 0, 64, 77
1, 1550333, Control_c, 0, 64, 86
1, 1550351, Control_c, 0, 64, 96
1, 1550369, Control_c, 0, 64, 107
1, 1550389, Control_c, 0, 64, 117
1, 1550390, Control_c, 0, 67, 38
1, 1550409, Control_c, 0, 64, 124
1, 1550409, Control_c, 0, 67, 43
1, 1550425, Control_c, 0, 67, 50
1, 1550442, Control_c, 0, 67, 55
1, 1550480, Control_c, 0, 67, 63
1, 1550517, Control_c, 0, 67, 69
1, 1550555, Control_c, 0, 67, 74
1, 1550592, Control_c, 0, 67, 79
1, 1550628, Control_c, 0, 67, 84
1, 1550666, Control_c, 0, 67, 89
1, 1550683, Note_on_c, 0, 41, 48
1, 1550697, Note_on_c, 0, 58, 0
1, 1550701, Control_c, 0, 67, 94
1, 1550724, Note_on_c, 0, 41, 0
1, 1550740, Control_c, 0, 67, 98
1, 1550741, Note_on_c, 0, 61, 0
1, 1550789, Note_on_c, 0, 41, 66
1, 1550828, Note_on_c, 0, 41, 0
1, 1550832, Control_c, 0, 67, 102
1, 1550931, Note_on_c, 0, 41, 55
1, 1550981, Control_c, 0, 67, 106
1, 1550990, Note_on_c, 0, 41, 0
1, 1551016, Control_c, 0, 67, 110
1, 1551073, Control_c, 0, 67, 114
1, 1551137, Control_c, 0, 67, 120
1, 1551180, Note_on_c, 0, 46, 53
1, 1551191, Note_on_c, 0, 54, 46
1, 1551194, Note_on_c, 0, 63, 67
1, 1551195, Control_c, 0, 67, 126
1, 1551199, Note_on_c, 0, 59, 50
1, 1551205, Note_on_c, 0, 34, 48
1, 1551271, Note_on_c, 0, 34, 0
1, 1551275, Note_on_c, 0, 46, 0
1, 1551321, Note_on_c, 0, 65, 0
1, 1551360, Control_c, 0, 64, 112
1, 1551378, Control_c, 0, 64, 101
1, 1551397, Control_c, 0, 64, 88
1, 1551416, Control_c, 0, 64, 74
1, 1551435, Control_c, 0, 64, 61
1, 1551453, Control_c, 0, 64, 54
1, 1551472, Control_c, 0, 64, 50
1, 1551491, Control_c, 0, 64, 47
1, 1551507, Control_c, 0, 64, 43
1, 1551526, Control_c, 0, 64, 40
1, 1551582, Control_c, 0, 64, 36
1, 1552111, Control_c, 0, 64, 32
1, 1552719, Note_on_c, 0, 41, 56
1, 1552754, Note_on_c, 0, 41, 0
1, 1552818, Note_on_c, 0, 41, 67
1, 1552851, Note_on_c, 0, 41, 0
1, 1552926, Note_on_c, 0, 41, 74
1, 1552983, Note_on_c, 0, 41, 0
1, 1553008, Control_c, 0, 64, 27
1, 1553079, Note_on_c, 0, 46, 59
1, 1553082, Control_c, 0, 64, 22
1, 1553096, Note_on_c, 0, 34, 44
1, 1553222, Note_on_c, 0, 34, 0
1, 1553257, Note_on_c, 0, 46, 0
1, 1553749, Control_c, 0, 64, 27
1, 1553768, Control_c, 0, 64, 32
1, 1553787, Control_c, 0, 64, 36
1, 1553805, Control_c, 0, 64, 40
1, 1553824, Control_c, 0, 64, 43
1, 1553843, Control_c, 0, 64, 47
1, 1553860, Control_c, 0, 64, 54
1, 1553880, Control_c, 0, 64, 60
1, 1553899, Control_c, 0, 64, 61
1, 1553999, Control_c, 0, 64, 60
1, 1554036, Control_c, 0, 64, 58
1, 1554093, Control_c, 0, 64, 56
1, 1554130, Control_c, 0, 64, 53
1, 1554142, Note_on_c, 0, 54, 0
1, 1554162, Note_on_c, 0, 59, 0
1, 1554167, Control_c, 0, 64, 50
1, 1554177, Note_on_c, 0, 63, 0
1, 1554203, Control_c, 0, 64, 48
1, 1554241, Control_c, 0, 64, 46
1, 1554279, Control_c, 0, 64, 43
1, 1554314, Control_c, 0, 64, 41
1, 1554752, Note_on_c, 0, 41, 45
1, 1554796, Note_on_c, 0, 41, 0
1, 1554815, Control_c, 0, 64, 37
1, 1554916, Note_on_c, 0, 41, 50
1, 1554959, Note_on_c, 0, 41, 0
1, 1555073, Note_on_c, 0, 41, 51
1, 1555147, Note_on_c, 0, 41, 0
1, 1555301, Note_on_c, 0, 34, 30
1, 1555311, Note_on_c, 0, 51, 33
1, 1555313, Note_on_c, 0, 46, 28
1, 1555315, Note_on_c, 0, 57, 43
1, 1555328, Note_on_c, 0, 54, 37
1, 1555510, Control_c, 0, 64, 41
1, 1555523, Note_on_c, 0, 34, 0
1, 1555528, Control_c, 0, 64, 48
1, 1555539, Note_on_c, 0, 46, 0
1, 1555546, Control_c, 0, 64, 55
1, 1555566, Control_c, 0, 64, 64
1, 1555585, Control_c, 0, 64, 69
1, 1555603, Control_c, 0, 64, 71
1, 1555622, Control_c, 0, 64, 74
1, 1555642, Control_c, 0, 64, 77
1, 1555659, Control_c, 0, 64, 81
1, 1555677, Control_c, 0, 64, 84
1, 1555815, Control_c, 0, 64, 82
1, 1555852, Control_c, 0, 64, 79
1, 1555890, Control_c, 0, 64, 76
1, 1555909, Control_c, 0, 64, 74
1, 1555945, Control_c, 0, 64, 71
1, 1555982, Control_c, 0, 64, 67
1, 1556000, Control_c, 0, 64, 65
1, 1556019, Control_c, 0, 64, 63
1, 1556038, Control_c, 0, 64, 60
1, 1556055, Control_c, 0, 64, 58
1, 1556075, Control_c, 0, 64, 56
1, 1556186, Control_c, 0, 64, 60
1, 1556204, Control_c, 0, 64, 63
1, 1556222, Control_c, 0, 64, 66
1, 1556242, Control_c, 0, 64, 69
1, 1556259, Control_c, 0, 64, 72
1, 1556279, Control_c, 0, 64, 76
1, 1556297, Control_c, 0, 64, 81
1, 1556317, Control_c, 0, 64, 85
1, 1556354, Control_c, 0, 64, 91
1, 1556407, Control_c, 0, 64, 97
1, 1556483, Control_c, 0, 64, 101
1, 1556633, Note_on_c, 0, 51, 0
1, 1556733, Note_on_c, 0, 57, 0
1, 1556841, Note_on_c, 0, 54, 0
1, 1556991, Control_c, 0, 64, 96
1, 1557048, Control_c, 0, 64, 91
1, 1557085, Control_c, 0, 64, 87
1, 1557093, Note_on_c, 0, 41, 36
1, 1557104, Control_c, 0, 64, 84
1, 1557122, Control_c, 0, 64, 81
1, 1557139, Control_c, 0, 64, 76
1, 1557149, Note_on_c, 0, 41, 0
1, 1557158, Control_c, 0, 64, 72
1, 1557179, Control_c, 0, 64, 69
1, 1557195, Control_c, 0, 64, 67
1, 1557215, Control_c, 0, 64, 66
1, 1557233, Control_c, 0, 64, 64
1, 1557253, Control_c, 0, 64, 62
1, 1557264, Note_on_c, 0, 41, 33
1, 1557269, Control_c, 0, 64, 59
1, 1557306, Control_c, 0, 64, 57
1, 1557308, Note_on_c, 0, 41, 0
1, 1557343, Control_c, 0, 64, 54
1, 1557381, Control_c, 0, 64, 51
1, 1557414, Note_on_c, 0, 41, 38
1, 1557417, Control_c, 0, 64, 49
1, 1557475, Control_c, 0, 64, 46
1, 1557493, Note_on_c, 0, 41, 0
1, 1557529, Control_c, 0, 64, 44
1, 1557603, Control_c, 0, 64, 42
1, 1557686, Control_c, 0, 64, 40
1, 1558336, Control_c, 0, 64, 42
1, 1558353, Control_c, 0, 64, 44
1, 1558373, Control_c, 0, 64, 46
1, 1558391, Control_c, 0, 64, 48
1, 1558409, Control_c, 0, 64, 51
1, 1558430, Control_c, 0, 64, 54
1, 1558447, Control_c, 0, 64, 57
1, 1558467, Control_c, 0, 64, 63
1, 1558484, Control_c, 0, 64, 67
1, 1558502, Control_c, 0, 64, 70
1, 1558520, Control_c, 0, 64, 73
1, 1558540, Control_c, 0, 64, 76
1, 1558557, Control_c, 0, 64, 82
1, 1558577, Control_c, 0, 64, 89
1, 1558596, Control_c, 0, 64, 94
1, 1558624, Control_c, 0, 64, 99
1, 1558643, Control_c, 0, 64, 104
1, 1558660, Control_c, 0, 64, 110
1, 1558680, Control_c, 0, 64, 117
1, 1558696, Control_c, 0, 64, 123
1, 1558716, Control_c, 0, 64, 127
1, 1559889, Note_on_c, 0, 89, 57
1, 1559913, Note_on_c, 0, 85, 38
1, 1560239, Poly_aftertouch_c, 0, 85, 24
1, 1560283, Note_on_c, 0, 85, 0
1, 1560283, Poly_aftertouch_c, 0, 85, 0
1, 1560973, Note_on_c, 0, 85, 56
1, 1560990, Note_on_c, 0, 82, 36
1, 1561162, Control_c, 0, 67, 119
1, 1561198, Control_c, 0, 67, 109
1, 1561217, Control_c, 0, 67, 100
1, 1561233, Control_c, 0, 67, 87
1, 1561252, Control_c, 0, 67, 73
1, 1561270, Control_c, 0, 67, 57
1, 1561290, Control_c, 0, 67, 42
1, 1561308, Control_c, 0, 67, 28
1, 1561327, Control_c, 0, 67, 15
1, 1561357, Note_on_c, 0, 82, 0
1, 1561363, Control_c, 0, 67, 0
1, 1561463, Note_on_c, 0, 89, 0
1, 1561964, Note_on_c, 0, 82, 46
1, 1561971, Note_on_c, 0, 77, 30
1, 1562260, Note_on_c, 0, 85, 0
1, 1562403, Note_on_c, 0, 82, 0
1, 1562705, Note_on_c, 0, 77, 0
1, 1562928, Note_on_c, 0, 77, 48
1, 1562937, Note_on_c, 0, 73, 33
1, 1563031, Control_c, 0, 67, 8
1, 1563088, Control_c, 0, 67, 17
1, 1563107, Control_c, 0, 67, 25
1, 1563125, Control_c, 0, 67, 34
1, 1563145, Control_c, 0, 67, 41
1, 1563162, Control_c, 0, 67, 48
1, 1563179, Control_c, 0, 67, 55
1, 1563200, Control_c, 0, 67, 65
1, 1563217, Control_c, 0, 67, 75
1, 1563236, Control_c, 0, 67, 84
1, 1563254, Control_c, 0, 67, 93
1, 1563274, Control_c, 0, 67, 100
1, 1563301, Control_c, 0, 67, 107
1, 1563320, Control_c, 0, 67, 112
1, 1563358, Control_c, 0, 67, 119
1, 1563374, Control_c, 0, 67, 124
1, 1563457, Note_on_c, 0, 73, 0
1, 1563884, Note_on_c, 0, 73, 41
1, 1563886, Note_on_c, 0, 70, 44
1, 1564098, Note_on_c, 0, 77, 0
1, 1564240, Note_on_c, 0, 73, 0
1, 1564458, Note_on_c, 0, 70, 0
1, 1565002, Note_on_c, 0, 66, 49
1, 1565018, Note_on_c, 0, 70, 47
1, 1565208, Control_c, 0, 64, 117
1, 1565227, Control_c, 0, 64, 91
1, 1565246, Control_c, 0, 64, 65
1, 1565265, Control_c, 0, 64, 48
1, 1565320, Control_c, 0, 64, 50
1, 1565339, Control_c, 0, 64, 59
1, 1565356, Control_c, 0, 64, 67
1, 1565374, Control_c, 0, 64, 78
1, 1565393, Control_c, 0, 64, 93
1, 1565413, Control_c, 0, 64, 109
1, 1565430, Control_c, 0, 64, 120
1, 1565449, Control_c, 0, 64, 126
1, 1565633, Note_on_c, 0, 70, 0
1, 1565684, Note_on_c, 0, 66, 0
1, 1565858, Control_c, 0, 64, 119
1, 1565876, Control_c, 0, 64, 110
1, 1565896, Control_c, 0, 64, 98
1, 1565912, Control_c, 0, 64, 83
1, 1565930, Control_c, 0, 64, 69
1, 1565951, Control_c, 0, 64, 62
1, 1565968, Control_c, 0, 64, 61
1, 1565985, Control_c, 0, 64, 59
1, 1566005, Control_c, 0, 64, 54
1, 1566023, Control_c, 0, 64, 45
1, 1566043, Control_c, 0, 64, 36
1, 1566061, Control_c, 0, 64, 30
1, 1566080, Control_c, 0, 64, 26
1, 1566144, Control_c, 0, 64, 21
1, 1566552, Control_c, 0, 64, 26
1, 1566589, Control_c, 0, 64, 32
1, 1566645, Control_c, 0, 64, 37
1, 1566681, Control_c, 0, 64, 42
1, 1566699, Control_c, 0, 64, 46
1, 1566718, Control_c, 0, 64, 53
1, 1566737, Control_c, 0, 64, 62
1, 1566756, Control_c, 0, 64, 67
1, 1566774, Control_c, 0, 64, 69
1, 1566793, Control_c, 0, 64, 71
1, 1566812, Control_c, 0, 64, 76
1, 1566829, Control_c, 0, 64, 84
1, 1566834, Note_on_c, 0, 64, 44
1, 1566848, Control_c, 0, 64, 94
1, 1566850, Note_on_c, 0, 70, 38
1, 1566866, Control_c, 0, 64, 101
1, 1566885, Control_c, 0, 64, 106
1, 1566904, Control_c, 0, 64, 112
1, 1566922, Control_c, 0, 64, 119
1, 1566940, Control_c, 0, 64, 125
1, 1567340, Note_on_c, 0, 64, 0
1, 1567391, Note_on_c, 0, 70, 0
1, 1567768, Control_c, 0, 64, 121
1, 1567784, Control_c, 0, 64, 116
1, 1567802, Control_c, 0, 64, 110
1, 1567820, Control_c, 0, 64, 103
1, 1567840, Control_c, 0, 64, 93
1, 1567857, Control_c, 0, 64, 81
1, 1567878, Control_c, 0, 64, 70
1, 1567895, Control_c, 0, 64, 62
1, 1567914, Control_c, 0, 64, 58
1, 1567951, Control_c, 0, 64, 54
1, 1567970, Control_c, 0, 64, 50
1, 1567996, Control_c, 0, 64, 47
1, 1568181, Control_c, 0, 64, 52
1, 1568200, Control_c, 0, 64, 57
1, 1568220, Control_c, 0, 64, 60
1, 1568237, Control_c, 0, 64, 66
1, 1568257, Control_c, 0, 64, 72
1, 1568275, Control_c, 0, 64, 78
1, 1568295, Control_c, 0, 64, 86
1, 1568312, Control_c, 0, 64, 94
1, 1568331, Control_c, 0, 64, 101
1, 1568350, Control_c, 0, 64, 106
1, 1568367, Control_c, 0, 64, 113
1, 1568385, Control_c, 0, 64, 121
1, 1568404, Control_c, 0, 64, 127
1, 1569443, Note_on_c, 0, 65, 43
1, 1569656, Control_c, 0, 64, 120
1, 1569673, Control_c, 0, 64, 106
1, 1569691, Control_c, 0, 64, 87
1, 1569711, Control_c, 0, 64, 67
1, 1569729, Control_c, 0, 64, 52
1, 1569748, Control_c, 0, 64, 49
1, 1569842, Control_c, 0, 64, 53
1, 1569867, Control_c, 0, 64, 59
1, 1569886, Control_c, 0, 64, 66
1, 1569904, Control_c, 0, 64, 72
1, 1569923, Control_c, 0, 64, 80
1, 1569942, Control_c, 0, 64, 90
1, 1569961, Control_c, 0, 64, 100
1, 1569979, Control_c, 0, 64, 108
1, 1569998, Control_c, 0, 64, 115
1, 1570018, Control_c, 0, 64, 122
1, 1570036, Control_c, 0, 64, 127
1, 1571828, Note_on_c, 0, 65, 0
1, 1572951, Note_on_c, 0, 58, 37
1, 1573008, Control_c, 0, 64, 119
1, 1573028, Control_c, 0, 64, 104
1, 1573044, Control_c, 0, 64, 85
1, 1573063, Control_c, 0, 64, 65
1, 1573082, Control_c, 0, 64, 50
1, 1573101, Control_c, 0, 64, 47
1, 1573212, Control_c, 0, 64, 54
1, 1573230, Control_c, 0, 64, 61
1, 1573248, Control_c, 0, 64, 69
1, 1573268, Control_c, 0, 64, 78
1, 1573286, Control_c, 0, 64, 88
1, 1573304, Control_c, 0, 64, 100
1, 1573324, Control_c, 0, 64, 110
1, 1573342, Control_c, 0, 64, 118
1, 1573361, Control_c, 0, 64, 126
1, 1574029, Note_on_c, 0, 53, 41
1, 1574230, Note_on_c, 0, 58, 0
1, 1574315, Control_c, 0, 64, 120
1, 1574332, Control_c, 0, 64, 100
1, 1574351, Control_c, 0, 64, 79
1, 1574369, Control_c, 0, 64, 64
1, 1574388, Control_c, 0, 64, 60
1, 1574426, Control_c, 0, 64, 64
1, 1574444, Control_c, 0, 64, 68
1, 1574463, Control_c, 0, 64, 73
1, 1574482, Control_c, 0, 64, 82
1, 1574501, Control_c, 0, 64, 96
1, 1574519, Control_c, 0, 64, 113
1, 1574545, Control_c, 0, 64, 125
1, 1574584, Control_c, 0, 67, 120
1, 1574601, Control_c, 0, 67, 114
1, 1574620, Control_c, 0, 67, 104
1, 1574640, Control_c, 0, 67, 90
1, 1574657, Control_c, 0, 67, 71
1, 1574677, Control_c, 0, 67, 51
1, 1574695, Control_c, 0, 67, 29
1, 1574714, Control_c, 0, 67, 9
1, 1574731, Control_c, 0, 67, 0
1, 1574958, Note_on_c, 0, 49, 44
1, 1575232, Control_c, 0, 64, 107
1, 1575250, Control_c, 0, 64, 90
1, 1575270, Control_c, 0, 64, 79
1, 1575287, Control_c, 0, 64, 81
1, 1575305, Control_c, 0, 64, 88
1, 1575324, Control_c, 0, 64, 96
1, 1575343, Control_c, 0, 64, 104
1, 1575361, Control_c, 0, 64, 112
1, 1575379, Note_on_c, 0, 53, 0
1, 1575379, Control_c, 0, 64, 121
1, 1575398, Control_c, 0, 64, 127
1, 1575917, Note_on_c, 0, 46, 52
1, 1576093, Control_c, 0, 64, 109
1, 1576112, Control_c, 0, 64, 88
1, 1576131, Control_c, 0, 64, 66
1, 1576148, Control_c, 0, 64, 53
1, 1576172, Note_on_c, 0, 49, 0
1, 1576203, Control_c, 0, 64, 56
1, 1576223, Control_c, 0, 64, 61
1, 1576240, Control_c, 0, 64, 67
1, 1576260, Control_c, 0, 64, 73
1, 1576278, Control_c, 0, 64, 85
1, 1576297, Control_c, 0, 64, 100
1, 1576315, Control_c, 0, 64, 113
1, 1576334, Control_c, 0, 64, 120
1, 1576353, Control_c, 0, 64, 126
1, 1576937, Control_c, 0, 67, 8
1, 1576966, Note_on_c, 0, 42, 51
1, 1577085, Control_c, 0, 67, 12
1, 1577141, Control_c, 0, 67, 16
1, 1577176, Control_c, 0, 64, 121
1, 1577177, Control_c, 0, 67, 22
1, 1577195, Control_c, 0, 64, 106
1, 1577215, Control_c, 0, 64, 87
1, 1577217, Control_c, 0, 67, 32
1, 1577232, Control_c, 0, 64, 67
1, 1577234, Control_c, 0, 67, 42
1, 1577251, Control_c, 0, 64, 52
1, 1577252, Control_c, 0, 67, 53
1, 1577261, Note_on_c, 0, 46, 0
1, 1577271, Control_c, 0, 64, 48
1, 1577272, Control_c, 0, 67, 61
1, 1577290, Control_c, 0, 67, 67
1, 1577307, Control_c, 0, 67, 72
1, 1577326, Control_c, 0, 67, 78
1, 1577351, Control_c, 0, 67, 85
1, 1577371, Control_c, 0, 64, 53
1, 1577373, Control_c, 0, 67, 92
1, 1577390, Control_c, 0, 64, 61
1, 1577392, Control_c, 0, 67, 100
1, 1577408, Control_c, 0, 64, 67
1, 1577409, Control_c, 0, 67, 105
1, 1577427, Control_c, 0, 64, 74
1, 1577429, Control_c, 0, 67, 110
1, 1577445, Control_c, 0, 64, 84
1, 1577465, Control_c, 0, 64, 97
1, 1577466, Control_c, 0, 67, 114
1, 1577484, Control_c, 0, 64, 108
1, 1577503, Control_c, 0, 64, 115
1, 1577504, Control_c, 0, 67, 121
1, 1577521, Control_c, 0, 64, 121
1, 1577522, Control_c, 0, 67, 126
1, 1577538, Control_c, 0, 64, 127
1, 1578134, Note_on_c, 0, 41, 38
1, 1578306, Control_c, 0, 64, 108
1, 1578326, Control_c, 0, 64, 87
1, 1578338, Note_on_c, 0, 42, 0
1, 1578343, Control_c, 0, 64, 64
1, 1578363, Control_c, 0, 64, 47
1, 1578381, Control_c, 0, 64, 42
1, 1578474, Control_c, 0, 64, 48
1, 1578491, Control_c, 0, 64, 60
1, 1578510, Control_c, 0, 64, 72
1, 1578529, Control_c, 0, 64, 82
1, 1578548, Control_c, 0, 64, 92
1, 1578566, Control_c, 0, 64, 101
1, 1578586, Control_c, 0, 64, 108
1, 1578623, Control_c, 0, 64, 113
1, 1578659, Control_c, 0, 64, 118
1, 1578718, Note_on_c, 0, 41, 0
1, 1578843, Control_c, 0, 64, 113
1, 1578861, Control_c, 0, 64, 108
1, 1578881, Control_c, 0, 64, 98
1, 1578900, Control_c, 0, 64, 85
1, 1578918, Control_c, 0, 64, 69
1, 1578937, Control_c, 0, 64, 57
1, 1578954, Control_c, 0, 64, 51
1, 1578972, Control_c, 0, 64, 49
1, 1578990, Control_c, 0, 64, 43
1, 1579011, Control_c, 0, 64, 34
1, 1579028, Control_c, 0, 64, 27
1, 1579047, Control_c, 0, 64, 23
1, 1579085, Control_c, 0, 64, 18
1, 1579161, Control_c, 0, 64, 14
1, 1579577, Control_c, 0, 64, 18
1, 1579594, Control_c, 0, 64, 23
1, 1579612, Control_c, 0, 64, 28
1, 1579650, Control_c, 0, 64, 34
1, 1579688, Control_c, 0, 64, 41
1, 1579705, Control_c, 0, 64, 47
1, 1579725, Control_c, 0, 64, 57
1, 1579744, Control_c, 0, 64, 68
1, 1579762, Control_c, 0, 64, 71
1, 1579779, Control_c, 0, 64, 73
1, 1579798, Control_c, 0, 64, 77
1, 1579817, Control_c, 0, 64, 85
1, 1579835, Control_c, 0, 64, 92
1, 1579854, Control_c, 0, 64, 98
1, 1579872, Control_c, 0, 64, 103
1, 1579893, Control_c, 0, 64, 108
1, 1579909, Control_c, 0, 64, 113
1, 1579928, Control_c, 0, 64, 118
1, 1579938, Note_on_c, 0, 41, 41
1, 1579964, Control_c, 0, 64, 126
1, 1580281, Note_on_c, 0, 41, 0
1, 1580789, Control_c, 0, 64, 121
1, 1580808, Control_c, 0, 64, 116
1, 1580828, Control_c, 0, 64, 107
1, 1580845, Control_c, 0, 64, 95
1, 1580865, Control_c, 0, 64, 79
1, 1580883, Control_c, 0, 64, 62
1, 1580901, Control_c, 0, 64, 53
1, 1580918, Control_c, 0, 64, 50
1, 1580956, Control_c, 0, 64, 47
1, 1580975, Control_c, 0, 64, 45
1, 1580993, Control_c, 0, 64, 43
1, 1581049, Control_c, 0, 64, 41
1, 1582174, Note_on_c, 0, 34, 35
1, 1583060, Control_c, 0, 64, 44
1, 1583097, Control_c, 0, 64, 47
1, 1583134, Control_c, 0, 64, 51
1, 1583151, Control_c, 0, 64, 55
1, 1583170, Control_c, 0, 64, 57
1, 1583188, Control_c, 0, 64, 61
1, 1583208, Control_c, 0, 64, 66
1, 1583226, Control_c, 0, 64, 70
1, 1583245, Control_c, 0, 64, 72
1, 1583263, Control_c, 0, 64, 75
1, 1583283, Control_c, 0, 64, 79
1, 1583301, Control_c, 0, 64, 85
1, 1583319, Control_c, 0, 64, 91
1, 1583336, Control_c, 0, 64, 96
1, 1583374, Control_c, 0, 64, 104
1, 1583392, Control_c, 0, 64, 108
1, 1583411, Control_c, 0, 64, 114
1, 1583430, Control_c, 0, 64, 118
1, 1583448, Control_c, 0, 64, 122
1, 1583486, Control_c, 0, 64, 127
1, 1584111, Note_on_c, 0, 34, 0
1, 1584837, Control_c, 0, 64, 121
1, 1584855, Control_c, 0, 64, 113
1, 1584875, Control_c, 0, 64, 101
1, 1584893, Control_c, 0, 64, 84
1, 1584911, Control_c, 0, 64, 66
1, 1584932, Control_c, 0, 64, 53
1, 1584949, Control_c, 0, 64, 48
1, 1585022, Control_c, 0, 64, 46
1, 1585097, Control_c, 0, 64, 44
1, 1585297, Note_on_c, 0, 41, 46
1, 1585300, Note_on_c, 0, 53, 48
1, 1585334, Note_on_c, 0, 41, 0
1, 1585338, Note_on_c, 0, 53, 0
1, 1585422, Note_on_c, 0, 53, 60
1, 1585442, Note_on_c, 0, 41, 31
1, 1585468, Control_c, 0, 64, 42
1, 1585472, Note_on_c, 0, 53, 0
1, 1585544, Note_on_c, 0, 41, 0
1, 1585544, Note_on_c, 0, 41, 20
1, 1585587, Poly_aftertouch_c, 0, 53, 0
1, 1585596, Note_on_c, 0, 41, 0
1, 1585723, Note_on_c, 0, 54, 39
1, 1585728, Note_on_c, 0, 51, 29
1, 1585728, Note_on_c, 0, 58, 50
1, 1585732, Note_on_c, 0, 39, 37
1, 1585739, Note_on_c, 0, 46, 39
1, 1585773, Control_c, 0, 64, 40
1, 1586533, Control_c, 0, 64, 42
1, 1586551, Control_c, 0, 64, 46
1, 1586569, Control_c, 0, 64, 50
1, 1586590, Control_c, 0, 64, 56
1, 1586606, Control_c, 0, 64, 62
1, 1586626, Control_c, 0, 64, 68
1, 1586642, Control_c, 0, 64, 72
1, 1586662, Control_c, 0, 64, 75
1, 1586680, Control_c, 0, 64, 81
1, 1586708, Control_c, 0, 64, 87
1, 1586727, Control_c, 0, 64, 94
1, 1586745, Control_c, 0, 64, 99
1, 1586765, Control_c, 0, 64, 103
1, 1586782, Control_c, 0, 64, 108
1, 1586802, Control_c, 0, 64, 114
1, 1586821, Control_c, 0, 64, 119
1, 1586856, Control_c, 0, 64, 125
1, 1587118, Note_on_c, 0, 46, 0
1, 1587142, Note_on_c, 0, 39, 0
1, 1587171, Note_on_c, 0, 51, 0
1, 1587212, Note_on_c, 0, 58, 0
1, 1587229, Note_on_c, 0, 54, 0
1, 1587357, Control_c, 0, 64, 111
1, 1587376, Control_c, 0, 64, 96
1, 1587394, Control_c, 0, 64, 76
1, 1587411, Control_c, 0, 64, 59
1, 1587431, Control_c, 0, 64, 49
1, 1587449, Control_c, 0, 64, 47
1, 1587523, Control_c, 0, 64, 45
1, 1587700, Control_c, 0, 64, 43
1, 1588274, Control_c, 0, 64, 41
1, 1588391, Note_on_c, 0, 41, 42
1, 1588393, Note_on_c, 0, 53, 45
1, 1588426, Note_on_c, 0, 53, 0
1, 1588432, Note_on_c, 0, 41, 0
1, 1588514, Note_on_c, 0, 53, 56
1, 1588524, Note_on_c, 0, 41, 28
1, 1588545, Note_on_c, 0, 53, 0
1, 1588637, Note_on_c, 0, 53, 61
1, 1588643, Note_on_c, 0, 41, 0
1, 1588643, Note_on_c, 0, 41, 30
1, 1588689, Note_on_c, 0, 41, 0
1, 1588711, Note_on_c, 0, 53, 0
1, 1588827, Note_on_c, 0, 39, 42
1, 1588831, Note_on_c, 0, 54, 46
1, 1588832, Note_on_c, 0, 58, 50
1, 1588840, Note_on_c, 0, 51, 32
1, 1588844, Note_on_c, 0, 46, 31
1, 1589812, Control_c, 0, 64, 44
1, 1589830, Control_c, 0, 64, 47
1, 1589848, Control_c, 0, 64, 51
1, 1589868, Control_c, 0, 64, 55
1, 1589886, Control_c, 0, 64, 58
1, 1589904, Control_c, 0, 64, 61
1, 1589923, Control_c, 0, 64, 66
1, 1589941, Control_c, 0, 64, 71
1, 1589960, Control_c, 0, 64, 74
1, 1589979, Control_c, 0, 64, 78
1, 1589998, Control_c, 0, 64, 84
1, 1590014, Control_c, 0, 64, 90
1, 1590032, Control_c, 0, 64, 94
1, 1590071, Control_c, 0, 64, 101
1, 1590089, Control_c, 0, 64, 106
1, 1590107, Control_c, 0, 64, 111
1, 1590127, Control_c, 0, 64, 115
1, 1590164, Control_c, 0, 64, 119
1, 1590512, Note_on_c, 0, 58, 0
1, 1590519, Note_on_c, 0, 46, 0
1, 1590536, Poly_aftertouch_c, 0, 54, 22
1, 1590542, Note_on_c, 0, 51, 0
1, 1590560, Note_on_c, 0, 39, 0
1, 1590571, Note_on_c, 0, 54, 0
1, 1590571, Poly_aftertouch_c, 0, 54, 0
1, 1590673, Control_c, 0, 64, 115
1, 1590710, Control_c, 0, 64, 109
1, 1590730, Control_c, 0, 64, 105
1, 1590747, Control_c, 0, 64, 99
1, 1590765, Control_c, 0, 64, 91
1, 1590783, Control_c, 0, 64, 81
1, 1590803, Control_c, 0, 64, 70
1, 1590821, Control_c, 0, 64, 61
1, 1590839, Control_c, 0, 64, 57
1, 1590859, Control_c, 0, 64, 54
1, 1590877, Control_c, 0, 64, 51
1, 1590896, Control_c, 0, 64, 49
1, 1590934, Control_c, 0, 64, 46
1, 1591006, Control_c, 0, 64, 44
1, 1591154, Control_c, 0, 64, 42
1, 1591608, Control_c, 0, 64, 40
1, 1591987, Note_on_c, 0, 53, 39
1, 1591989, Note_on_c, 0, 41, 37
1, 1592052, Note_on_c, 0, 41, 0
1, 1592053, Note_on_c, 0, 53, 0
1, 1592190, Note_on_c, 0, 41, 50
1, 1592197, Note_on_c, 0, 53, 46
1, 1592243, Note_on_c, 0, 53, 0
1, 1592249, Note_on_c, 0, 41, 0
1, 1592412, Note_on_c, 0, 53, 39
1, 1592445, Note_on_c, 0, 41, 45
1, 1592691, Control_c, 0, 64, 36
1, 1592919, Note_on_c, 0, 46, 35
1, 1592936, Note_on_c, 0, 34, 38
1, 1592948, Note_on_c, 0, 49, 32
1, 1592954, Note_on_c, 0, 58, 43
1, 1595045, Control_c, 0, 64, 41
1, 1595063, Control_c, 0, 64, 43
1, 1595082, Control_c, 0, 64, 45
1, 1595101, Control_c, 0, 64, 47
1, 1595129, Control_c, 0, 64, 49
1, 1595147, Control_c, 0, 64, 51
1, 1595166, Control_c, 0, 64, 54
1, 1595184, Control_c, 0, 64, 57
1, 1595204, Control_c, 0, 64, 62
1, 1595221, Control_c, 0, 64, 64
1, 1595241, Control_c, 0, 64, 65
1, 1595257, Control_c, 0, 64, 67
1, 1595277, Control_c, 0, 64, 68
1, 1595314, Control_c, 0, 64, 70
1, 1595351, Control_c, 0, 64, 73
1, 1595388, Control_c, 0, 64, 76
1, 1595408, Control_c, 0, 64, 79
1, 1595425, Control_c, 0, 64, 81
1, 1595443, Control_c, 0, 64, 83
1, 1595461, Control_c, 0, 64, 85
1, 1595518, Control_c, 0, 64, 90
1, 1595575, Control_c, 0, 64, 95
1, 1595630, Control_c, 0, 64, 99
1, 1595684, Control_c, 0, 64, 105
1, 1595740, Control_c, 0, 64, 109
1, 1595851, Control_c, 0, 64, 113
1, 1596119, Control_c, 0, 64, 117
1, 1596954, Note_on_c, 0, 49, 0
1, 1596997, Note_on_c, 0, 34, 0
1, 1597034, Note_on_c, 0, 46, 0
1, 1597069, Poly_aftertouch_c, 0, 53, 24
1, 1597167, Note_on_c, 0, 58, 0
1, 1597233, Note_on_c, 0, 53, 0
1, 1597233, Poly_aftertouch_c, 0, 53, 0
1, 1597367, Poly_aftertouch_c, 0, 41, 20
1, 1597380, Note_on_c, 0, 41, 0
1, 1597380, Poly_aftertouch_c, 0, 41, 0
1, 1597779, Control_c, 0, 64, 113
1, 1598010, Control_c, 0, 64, 109
1, 1598120, Control_c, 0, 64, 104
1, 1598176, Control_c, 0, 64, 100
1, 1598214, Control_c, 0, 64, 96
1, 1598249, Control_c, 0, 64, 90
1, 1598269, Control_c, 0, 64, 87
1, 1598288, Control_c, 0, 64, 83
1, 1598306, Control_c, 0, 64, 78
1, 1598324, Control_c, 0, 64, 74
1, 1598343, Control_c, 0, 64, 71
1, 1598380, Control_c, 0, 64, 69
1, 1598399, Control_c, 0, 64, 67
1, 1598417, Control_c, 0, 64, 65
1, 1598435, Control_c, 0, 64, 62
1, 1598453, Control_c, 0, 64, 59
1, 1598490, Control_c, 0, 64, 56
1, 1598529, Control_c, 0, 64, 54
1, 1598566, Control_c, 0, 64, 51
1, 1598603, Control_c, 0, 64, 49
1, 1599759, Control_c, 0, 64, 47
1, 1600325, Control_c, 0, 64, 44
1, 1600399, Control_c, 0, 64, 42
1, 1600592, Note_on_c, 0, 48, 54
1, 1600626, Note_on_c, 0, 48, 0
1, 1600864, Note_on_c, 0, 60, 56
1, 1600874, Note_on_c, 0, 41, 48
1, 1600875, Note_on_c, 0, 56, 46
1, 1600877, Note_on_c, 0, 53, 48
1, 1600905, Note_on_c, 0, 56, 0
1, 1600911, Note_on_c, 0, 53, 0
1, 1600913, Note_on_c, 0, 41, 0
1, 1600915, Note_on_c, 0, 60, 0
1, 1601289, Note_on_c, 0, 56, 58
1, 1601290, Note_on_c, 0, 60, 64
1, 1601296, Note_on_c, 0, 53, 45
1, 1601299, Note_on_c, 0, 41, 52
1, 1601314, Note_on_c, 0, 56, 0
1, 1601334, Note_on_c, 0, 41, 0
1, 1601335, Note_on_c, 0, 53, 0
1, 1601335, Note_on_c, 0, 60, 0
1, 1601507, Note_on_c, 0, 61, 78
1, 1601512, Note_on_c, 0, 53, 60
1, 1601514, Note_on_c, 0, 34, 74
1, 1601519, Note_on_c, 0, 58, 65
1, 1601543, Note_on_c, 0, 53, 0
1, 1601545, Note_on_c, 0, 34, 0
1, 1601546, Note_on_c, 0, 58, 0
1, 1601551, Note_on_c, 0, 61, 0
1, 1601917, Note_on_c, 0, 61, 77
1, 1601920, Note_on_c, 0, 34, 55
1, 1601929, Note_on_c, 0, 53, 59
1, 1601933, Note_on_c, 0, 58, 61
1, 1601960, Note_on_c, 0, 34, 0
1, 1601960, Note_on_c, 0, 53, 0
1, 1601967, Note_on_c, 0, 58, 0
1, 1601983, Note_on_c, 0, 61, 0
1, 1602179, Note_on_c, 0, 41, 69
1, 1602186, Note_on_c, 0, 56, 77
1, 1602194, Note_on_c, 0, 53, 61
1, 1602216, Note_on_c, 0, 41, 0
1, 1602226, Note_on_c, 0, 56, 0
1, 1602229, Note_on_c, 0, 53, 0
1, 1602458, Note_on_c, 0, 41, 61
1, 1602459, Note_on_c, 0, 58, 74
1, 1602489, Note_on_c, 0, 41, 0
1, 1602500, Note_on_c, 0, 58, 0
1, 1602521, Poly_aftertouch_c, 0, 55, 0
1, 1602552, Note_on_c, 0, 60, 78
1, 1602558, Note_on_c, 0, 56, 71
1, 1602565, Note_on_c, 0, 41, 66
1, 1602586, Control_c, 0, 64, 40
1, 1602587, Note_on_c, 0, 43, 28
1, 1602590, Note_on_c, 0, 56, 0
1, 1602598, Note_on_c, 0, 41, 0
1, 1602617, Note_on_c, 0, 60, 0
1, 1602631, Control_c, 0, 64, 29
1, 1602650, Control_c, 0, 64, 21
1, 1602652, Note_on_c, 0, 43, 0
1, 1602669, Control_c, 0, 64, 14
1, 1602687, Control_c, 0, 64, 8
1, 1602707, Control_c, 0, 64, 0
1, 1603281, Control_c, 0, 64, 10
1, 1603316, Control_c, 0, 64, 17
1, 1603336, Control_c, 0, 64, 22
1, 1603353, Control_c, 0, 64, 26
1, 1603373, Control_c, 0, 64, 30
1, 1603392, Control_c, 0, 64, 35
1, 1603411, Control_c, 0, 64, 43
1, 1603429, Control_c, 0, 64, 56
1, 1603448, Control_c, 0, 64, 67
1, 1603467, Control_c, 0, 64, 71
1, 1603484, Control_c, 0, 64, 74
1, 1603484, Control_c, 0, 67, 122
1, 1603502, Control_c, 0, 64, 81
1, 1603520, Control_c, 0, 64, 91
1, 1603523, Control_c, 0, 67, 116
1, 1603549, Control_c, 0, 64, 101
1, 1603551, Control_c, 0, 67, 111
1, 1603568, Control_c, 0, 64, 108
1, 1603569, Control_c, 0, 67, 102
1, 1603586, Control_c, 0, 64, 113
1, 1603587, Control_c, 0, 67, 92
1, 1603604, Control_c, 0, 67, 80
1, 1603625, Control_c, 0, 64, 120
1, 1603626, Control_c, 0, 67, 67
1, 1603643, Control_c, 0, 67, 54
1, 1603660, Control_c, 0, 64, 127
1, 1603661, Control_c, 0, 67, 40
1, 1603677, Control_c, 0, 67, 27
1, 1603696, Control_c, 0, 67, 16
1, 1603733, Control_c, 0, 67, 0
1, 1603757, Note_on_c, 0, 85, 61
1, 1603781, Note_on_c, 0, 82, 43
1, 1603789, Note_on_c, 0, 58, 26
1, 1603804, Note_on_c, 0, 73, 31
1, 1603811, Note_on_c, 0, 65, 21
1, 1604044, Note_on_c, 0, 65, 0
1, 1604076, Poly_aftertouch_c, 0, 82, 24
1, 1604103, Note_on_c, 0, 73, 0
1, 1604149, Note_on_c, 0, 85, 0
1, 1604154, Note_on_c, 0, 82, 0
1, 1604154, Poly_aftertouch_c, 0, 82, 0
1, 1604364, Control_c, 0, 64, 110
1, 1604384, Control_c, 0, 64, 86
1, 1604402, Control_c, 0, 64, 77
1, 1604419, Control_c, 0, 64, 83
1, 1604427, Note_on_c, 0, 85, 79
1, 1604433, Note_on_c, 0, 54, 52
1, 1604435, Note_on_c, 0, 66, 43
1, 1604437, Control_c, 0, 64, 92
1, 1604453, Note_on_c, 0, 82, 53
1, 1604456, Control_c, 0, 64, 107
1, 1604462, Note_on_c, 0, 73, 56
1, 1604484, Control_c, 0, 64, 127
1, 1604487, Note_on_c, 0, 58, 0
1, 1604492, Note_on_c, 0, 54, 0
1, 1604537, Note_on_c, 0, 82, 0
1, 1604589, Note_on_c, 0, 66, 0
1, 1604647, Note_on_c, 0, 73, 0
1, 1604692, Note_on_c, 0, 85, 0
1, 1604763, Control_c, 0, 67, 9
1, 1604781, Control_c, 0, 67, 16
1, 1604799, Control_c, 0, 64, 122
1, 1604800, Control_c, 0, 67, 28
1, 1604817, Control_c, 0, 64, 102
1, 1604818, Control_c, 0, 67, 40
1, 1604836, Control_c, 0, 64, 78
1, 1604839, Control_c, 0, 67, 51
1, 1604844, Note_on_c, 0, 84, 73
1, 1604845, Note_on_c, 0, 67, 61
1, 1604847, Note_on_c, 0, 60, 59
1, 1604855, Control_c, 0, 64, 58
1, 1604856, Control_c, 0, 67, 61
1, 1604866, Note_on_c, 0, 76, 44
1, 1604873, Control_c, 0, 64, 50
1, 1604873, Control_c, 0, 67, 72
1, 1604879, Note_on_c, 0, 84, 0
1, 1604883, Note_on_c, 0, 60, 0
1, 1604886, Note_on_c, 0, 67, 0
1, 1604891, Control_c, 0, 67, 83
1, 1604901, Note_on_c, 0, 76, 0
1, 1604911, Control_c, 0, 67, 93
1, 1604931, Control_c, 0, 67, 101
1, 1604948, Control_c, 0, 67, 106
1, 1604984, Control_c, 0, 67, 113
1, 1605021, Control_c, 0, 67, 117
1, 1605051, Note_on_c, 0, 60, 53
1, 1605051, Note_on_c, 0, 67, 65
1, 1605052, Note_on_c, 0, 82, 78
1, 1605058, Control_c, 0, 67, 123
1, 1605078, Control_c, 0, 67, 127
1, 1605086, Note_on_c, 0, 60, 0
1, 1605086, Note_on_c, 0, 67, 0
1, 1605097, Note_on_c, 0, 76, 15
1, 1605098, Note_on_c, 0, 82, 0
1, 1605134, Control_c, 0, 64, 48
1, 1605156, Note_on_c, 0, 76, 0
1, 1605312, Note_on_c, 0, 80, 73
1, 1605320, Note_on_c, 0, 65, 56
1, 1605322, Note_on_c, 0, 68, 53
1, 1605325, Note_on_c, 0, 77, 56
1, 1605345, Note_on_c, 0, 80, 0
1, 1605352, Note_on_c, 0, 65, 0
1, 1605353, Note_on_c, 0, 77, 0
1, 1605355, Note_on_c, 0, 68, 0
1, 1605626, Note_on_c, 0, 82, 67
1, 1605642, Note_on_c, 0, 68, 43
1, 1605672, Note_on_c, 0, 68, 0
1, 1605679, Note_on_c, 0, 82, 0
1, 1605682, Poly_aftertouch_c, 0, 65, 0
1, 1605721, Note_on_c, 0, 84, 78
1, 1605729, Note_on_c, 0, 80, 64
1, 1605732, Note_on_c, 0, 68, 64
1, 1605752, Note_on_c, 0, 80, 0
1, 1605763, Note_on_c, 0, 68, 0
1, 1605772, Note_on_c, 0, 84, 0
1, 1605772, Poly_aftertouch_c, 0, 65, 0
1, 1605828, Control_c, 0, 64, 46
1, 1605902, Control_c, 0, 64, 44
1, 1606031, Control_c, 0, 64, 42
1, 1606290, Control_c, 0, 64, 46
1, 1606328, Control_c, 0, 64, 49
1, 1606355, Control_c, 0, 64, 52
1, 1606375, Control_c, 0, 64, 55
1, 1606393, Control_c, 0, 64, 58
1, 1606412, Control_c, 0, 64, 63
1, 1606430, Control_c, 0, 64, 68
1, 1606449, Control_c, 0, 64, 71
1, 1606469, Control_c, 0, 64, 74
1, 1606484, Control_c, 0, 64, 78
1, 1606504, Control_c, 0, 64, 83
1, 1606522, Control_c, 0, 64, 88
1, 1606540, Control_c, 0, 64, 92
1, 1606559, Control_c, 0, 64, 96
1, 1606597, Control_c, 0, 64, 103
1, 1606615, Control_c, 0, 64, 108
1, 1606634, Control_c, 0, 64, 112
1, 1606648, Note_on_c, 0, 56, 57
1, 1606652, Control_c, 0, 64, 117
1, 1606688, Control_c, 0, 64, 124
1, 1606996, Note_on_c, 0, 41, 32
1, 1607006, Note_on_c, 0, 53, 28
1, 1607011, Note_on_c, 0, 51, 37
1, 1607039, Control_c, 0, 67, 123
1, 1607059, Control_c, 0, 67, 119
1, 1607077, Control_c, 0, 67, 115
1, 1607096, Control_c, 0, 67, 107
1, 1607115, Control_c, 0, 67, 95
1, 1607134, Control_c, 0, 67, 78
1, 1607154, Control_c, 0, 67, 58
1, 1607171, Control_c, 0, 67, 37
1, 1607190, Control_c, 0, 67, 17
1, 1607208, Control_c, 0, 67, 0
1, 1607372, Note_on_c, 0, 41, 0
1, 1607454, Note_on_c, 0, 58, 68
1, 1607481, Note_on_c, 0, 50, 36
1, 1607503, Note_on_c, 0, 56, 0
1, 1607597, Note_on_c, 0, 51, 0
1, 1607754, Note_on_c, 0, 43, 39
1, 1607772, Note_on_c, 0, 60, 71
1, 1607790, Note_on_c, 0, 51, 37
1, 1607810, Note_on_c, 0, 48, 44
1, 1607871, Note_on_c, 0, 58, 0
1, 1607893, Note_on_c, 0, 53, 0
1, 1607939, Control_c, 0, 64, 98
1, 1607959, Control_c, 0, 64, 68
1, 1607975, Control_c, 0, 64, 39
1, 1607995, Control_c, 0, 64, 33
1, 1608030, Note_on_c, 0, 50, 0
1, 1608050, Control_c, 0, 64, 40
1, 1608070, Control_c, 0, 64, 54
1, 1608088, Control_c, 0, 64, 69
1, 1608105, Control_c, 0, 64, 84
1, 1608123, Control_c, 0, 64, 100
1, 1608143, Control_c, 0, 64, 112
1, 1608161, Control_c, 0, 64, 121
1, 1608180, Control_c, 0, 64, 127
1, 1608299, Note_on_c, 0, 50, 41
1, 1608315, Note_on_c, 0, 43, 0
1, 1608320, Note_on_c, 0, 53, 45
1, 1608329, Note_on_c, 0, 51, 0
1, 1608469, Note_on_c, 0, 60, 0
1, 1608609, Note_on_c, 0, 60, 63
1, 1608617, Note_on_c, 0, 51, 41
1, 1608632, Note_on_c, 0, 41, 30
1, 1608642, Note_on_c, 0, 56, 38
1, 1608690, Control_c, 0, 67, 8
1, 1608709, Control_c, 0, 64, 116
1, 1608727, Control_c, 0, 64, 92
1, 1608728, Control_c, 0, 67, 15
1, 1608745, Control_c, 0, 64, 66
1, 1608746, Note_on_c, 0, 53, 0
1, 1608748, Control_c, 0, 67, 21
1, 1608764, Control_c, 0, 64, 45
1, 1608764, Control_c, 0, 67, 28
1, 1608782, Control_c, 0, 64, 41
1, 1608782, Control_c, 0, 67, 33
1, 1608793, Note_on_c, 0, 48, 0
1, 1608793, Note_on_c, 0, 50, 0
1, 1608802, Control_c, 0, 67, 38
1, 1608820, Control_c, 0, 67, 42
1, 1608838, Control_c, 0, 64, 49
1, 1608839, Control_c, 0, 67, 47
1, 1608858, Control_c, 0, 64, 61
1, 1608860, Control_c, 0, 67, 53
1, 1608876, Control_c, 0, 64, 72
1, 1608877, Control_c, 0, 67, 59
1, 1608895, Control_c, 0, 64, 84
1, 1608897, Control_c, 0, 67, 67
1, 1608911, Control_c, 0, 64, 99
1, 1608913, Control_c, 0, 67, 74
1, 1608931, Control_c, 0, 64, 109
1, 1608932, Control_c, 0, 67, 81
1, 1608949, Control_c, 0, 64, 117
1, 1608950, Control_c, 0, 67, 88
1, 1608968, Control_c, 0, 64, 123
1, 1608968, Control_c, 0, 67, 96
1, 1608986, Control_c, 0, 64, 127
1, 1608987, Control_c, 0, 67, 105
1, 1609007, Control_c, 0, 67, 115
1, 1609024, Control_c, 0, 67, 121
1, 1609059, Control_c, 0, 67, 127
1, 1609237, Note_on_c, 0, 51, 0
1, 1609258, Note_on_c, 0, 62, 58
1, 1609259, Note_on_c, 0, 50, 36
1, 1609328, Note_on_c, 0, 60, 0
1, 1609341, Note_on_c, 0, 41, 0
1, 1609387, Note_on_c, 0, 56, 0
1, 1609518, Note_on_c, 0, 50, 0
1, 1609821, Note_on_c, 0, 64, 52
1, 1609842, Note_on_c, 0, 60, 40
1, 1609849, Note_on_c, 0, 55, 30
1, 1609849, Note_on_c, 0, 36, 31
1, 1609854, Note_on_c, 0, 43, 22
1, 1609860, Note_on_c, 0, 48, 35
1, 1609955, Note_on_c, 0, 62, 0
1, 1609960, Control_c, 0, 64, 112
1, 1609977, Control_c, 0, 64, 99
1, 1609996, Control_c, 0, 64, 79
1, 1610013, Control_c, 0, 64, 57
1, 1610033, Control_c, 0, 64, 42
1, 1610051, Control_c, 0, 64, 37
1, 1610098, Control_c, 0, 64, 26
1, 1610117, Control_c, 0, 64, 19
1, 1610136, Control_c, 0, 64, 14
1, 1610208, Control_c, 0, 64, 19
1, 1610227, Control_c, 0, 64, 36
1, 1610245, Control_c, 0, 64, 58
1, 1610265, Control_c, 0, 64, 83
1, 1610284, Control_c, 0, 64, 103
1, 1610302, Control_c, 0, 64, 121
1, 1610320, Control_c, 0, 64, 127
1, 1610376, Note_on_c, 0, 55, 0
1, 1610431, Note_on_c, 0, 48, 0
1, 1610432, Note_on_c, 0, 60, 0
1, 1610478, Note_on_c, 0, 64, 0
1, 1610484, Note_on_c, 0, 36, 0
1, 1610501, Note_on_c, 0, 43, 0
1, 1610745, Control_c, 0, 64, 119
1, 1610764, Control_c, 0, 64, 107
1, 1610782, Control_c, 0, 64, 94
1, 1610802, Control_c, 0, 64, 78
1, 1610821, Control_c, 0, 64, 63
1, 1610839, Control_c, 0, 64, 53
1, 1610858, Control_c, 0, 64, 46
1, 1610876, Control_c, 0, 64, 41
1, 1610912, Control_c, 0, 64, 34
1, 1610950, Control_c, 0, 64, 30
1, 1611125, Control_c, 0, 64, 39
1, 1611144, Control_c, 0, 64, 46
1, 1611162, Control_c, 0, 64, 52
1, 1611181, Control_c, 0, 64, 63
1, 1611200, Control_c, 0, 64, 72
1, 1611219, Control_c, 0, 64, 77
1, 1611237, Control_c, 0, 64, 83
1, 1611256, Control_c, 0, 64, 90
1, 1611275, Control_c, 0, 64, 99
1, 1611292, Control_c, 0, 64, 105
1, 1611310, Control_c, 0, 64, 110
1, 1611329, Control_c, 0, 64, 116
1, 1611347, Control_c, 0, 64, 120
1, 1611385, Control_c, 0, 64, 127
1, 1611436, Note_on_c, 0, 92, 60
1, 1611454, Note_on_c, 0, 89, 51
1, 1611465, Note_on_c, 0, 86, 44
1, 1611467, Note_on_c, 0, 24, 20
1, 1611467, Note_on_c, 0, 80, 34
1, 1611478, Note_on_c, 0, 83, 32
1, 1611500, Note_on_c, 0, 36, 12
1, 1611532, Note_on_c, 0, 83, 0
1, 1611539, Note_on_c, 0, 86, 0
1, 1611574, Note_on_c, 0, 36, 0
1, 1611609, Note_on_c, 0, 80, 0
1, 1611638, Note_on_c, 0, 24, 0
1, 1611650, Note_on_c, 0, 89, 0
1, 1611669, Note_on_c, 0, 92, 0
1, 1611849, Control_c, 0, 64, 123
1, 1611866, Control_c, 0, 64, 106
1, 1611880, Note_on_c, 0, 91, 68
1, 1611885, Control_c, 0, 64, 87
1, 1611906, Note_on_c, 0, 24, 45
1, 1611906, Control_c, 0, 64, 67
1, 1611910, Note_on_c, 0, 79, 35
1, 1611910, Note_on_c, 0, 36, 36
1, 1611918, Note_on_c, 0, 86, 35
1, 1611924, Control_c, 0, 64, 54
1, 1611929, Note_on_c, 0, 91, 0
1, 1611942, Control_c, 0, 64, 51
1, 1611957, Note_on_c, 0, 79, 0
1, 1611968, Note_on_c, 0, 24, 0
1, 1611968, Poly_aftertouch_c, 0, 83, 0
1, 1611970, Note_on_c, 0, 36, 0
1, 1611972, Note_on_c, 0, 86, 0
1, 1611979, Poly_aftertouch_c, 0, 83, 0
1, 1611989, Control_c, 0, 64, 48
1, 1612026, Control_c, 0, 64, 46
1, 1612062, Control_c, 0, 64, 44
1, 1612104, Note_on_c, 0, 36, 50
1, 1612111, Note_on_c, 0, 89, 74
1, 1612114, Note_on_c, 0, 24, 49
1, 1612125, Note_on_c, 0, 83, 43
1, 1612136, Control_c, 0, 64, 42
1, 1612140, Note_on_c, 0, 86, 14
1, 1612156, Note_on_c, 0, 36, 0
1, 1612160, Note_on_c, 0, 83, 0
1, 1612167, Note_on_c, 0, 24, 0
1, 1612179, Note_on_c, 0, 86, 0
1, 1612199, Note_on_c, 0, 89, 0
1, 1612395, Note_on_c, 0, 36, 54
1, 1612396, Note_on_c, 0, 88, 73
1, 1612403, Note_on_c, 0, 84, 59
1, 1612405, Note_on_c, 0, 24, 48
1, 1612415, Note_on_c, 0, 76, 43
1, 1612436, Note_on_c, 0, 36, 0
1, 1612444, Note_on_c, 0, 84, 0
1, 1612453, Note_on_c, 0, 24, 0
1, 1612455, Note_on_c, 0, 76, 0
1, 1612531, Note_on_c, 0, 88, 0
1, 1612721, Note_on_c, 0, 24, 64
1, 1612723, Note_on_c, 0, 36, 56
1, 1612723, Note_on_c, 0, 77, 55
1, 1612730, Note_on_c, 0, 86, 45
1, 1612737, Note_on_c, 0, 89, 43
1, 1612745, Note_on_c, 0, 77, 0
1, 1612757, Note_on_c, 0, 36, 0
1, 1612763, Note_on_c, 0, 86, 0
1, 1612764, Note_on_c, 0, 24, 0
1, 1612774, Note_on_c, 0, 89, 0
1, 1612814, Note_on_c, 0, 24, 64
1, 1612815, Note_on_c, 0, 91, 87
1, 1612817, Note_on_c, 0, 36, 73
1, 1612827, Note_on_c, 0, 88, 62
1, 1612827, Note_on_c, 0, 79, 65
1, 1612854, Note_on_c, 0, 24, 0
1, 1612855, Note_on_c, 0, 79, 0
1, 1612859, Note_on_c, 0, 36, 0
1, 1612860, Note_on_c, 0, 88, 0
1, 1612877, Control_c, 0, 64, 40
1, 1612880, Note_on_c, 0, 91, 0
1, 1613405, Control_c, 0, 64, 43
1, 1613424, Control_c, 0, 64, 46
1, 1613444, Control_c, 0, 64, 49
1, 1613460, Control_c, 0, 64, 52
1, 1613480, Control_c, 0, 64, 56
1, 1613498, Control_c, 0, 64, 60
1, 1613517, Control_c, 0, 64, 66
1, 1613533, Control_c, 0, 64, 72
1, 1613553, Control_c, 0, 64, 78
1, 1613572, Control_c, 0, 64, 86
1, 1613590, Control_c, 0, 64, 94
1, 1613609, Control_c, 0, 64, 103
1, 1613628, Control_c, 0, 64, 112
1, 1613647, Control_c, 0, 64, 120
1, 1613660, Note_on_c, 0, 76, 73
1, 1613664, Control_c, 0, 64, 126
1, 1613702, Control_c, 0, 67, 120
1, 1613738, Control_c, 0, 67, 113
1, 1613757, Control_c, 0, 67, 106
1, 1613775, Control_c, 0, 67, 95
1, 1613795, Control_c, 0, 67, 79
1, 1613812, Control_c, 0, 67, 59
1, 1613832, Control_c, 0, 67, 38
1, 1613860, Control_c, 0, 67, 18
1, 1613897, Control_c, 0, 67, 0
1, 1613977, Note_on_c, 0, 70, 42
1, 1613987, Note_on_c, 0, 67, 42
1, 1614017, Note_on_c, 0, 60, 39
1, 1614445, Note_on_c, 0, 78, 79
1, 1614464, Note_on_c, 0, 66, 59
1, 1614475, Note_on_c, 0, 60, 0
1, 1614617, Note_on_c, 0, 70, 0
1, 1614623, Note_on_c, 0, 76, 0
1, 1614732, Note_on_c, 0, 59, 59
1, 1614740, Note_on_c, 0, 79, 86
1, 1614745, Note_on_c, 0, 64, 67
1, 1614767, Note_on_c, 0, 71, 67
1, 1614814, Note_on_c, 0, 78, 0
1, 1614850, Control_c, 0, 64, 98
1, 1614851, Note_on_c, 0, 67, 0
1, 1614869, Control_c, 0, 64, 64
1, 1614887, Control_c, 0, 64, 21
1, 1614906, Control_c, 0, 64, 0
1, 1614935, Note_on_c, 0, 66, 0
1, 1615000, Control_c, 0, 64, 12
1, 1615018, Control_c, 0, 64, 41
1, 1615036, Control_c, 0, 64, 68
1, 1615053, Control_c, 0, 64, 90
1, 1615073, Control_c, 0, 64, 110
1, 1615092, Control_c, 0, 64, 124
1, 1615253, Note_on_c, 0, 71, 0
1, 1615260, Note_on_c, 0, 66, 76
1, 1615281, Note_on_c, 0, 59, 0
1, 1615528, Note_on_c, 0, 58, 69
1, 1615531, Note_on_c, 0, 76, 86
1, 1615532, Note_on_c, 0, 67, 83
1, 1615546, Note_on_c, 0, 72, 65
1, 1615554, Note_on_c, 0, 64, 0
1, 1615625, Note_on_c, 0, 79, 0
1, 1615685, Control_c, 0, 64, 112
1, 1615703, Control_c, 0, 64, 85
1, 1615733, Control_c, 0, 64, 55
1, 1615740, Note_on_c, 0, 66, 0
1, 1615750, Control_c, 0, 64, 25
1, 1615785, Control_c, 0, 64, 19
1, 1615860, Control_c, 0, 64, 33
1, 1615879, Control_c, 0, 64, 51
1, 1615898, Control_c, 0, 64, 71
1, 1615917, Control_c, 0, 64, 85
1, 1615935, Control_c, 0, 64, 99
1, 1615955, Control_c, 0, 64, 112
1, 1615971, Control_c, 0, 64, 123
1, 1615989, Control_c, 0, 64, 127
1, 1616047, Control_c, 0, 67, 9
1, 1616083, Control_c, 0, 67, 17
1, 1616091, Note_on_c, 0, 65, 80
1, 1616100, Note_on_c, 0, 77, 87
1, 1616102, Control_c, 0, 67, 21
1, 1616139, Control_c, 0, 67, 25
1, 1616148, Note_on_c, 0, 76, 0
1, 1616250, Control_c, 0, 67, 21
1, 1616345, Note_on_c, 0, 67, 0
1, 1616378, Control_c, 0, 67, 17
1, 1616397, Control_c, 0, 64, 95
1, 1616399, Note_on_c, 0, 64, 77
1, 1616402, Note_on_c, 0, 79, 92
1, 1616417, Control_c, 0, 64, 44
1, 1616435, Control_c, 0, 64, 0
1, 1616440, Note_on_c, 0, 77, 0
1, 1616453, Control_c, 0, 67, 13
1, 1616459, Note_on_c, 0, 72, 0
1, 1616490, Control_c, 0, 64, 39
1, 1616502, Note_on_c, 0, 58, 0
1, 1616510, Control_c, 0, 64, 76
1, 1616523, Note_on_c, 0, 65, 0
1, 1616526, Control_c, 0, 64, 117
1, 1616544, Control_c, 0, 64, 127
1, 1616591, Note_on_c, 0, 64, 0
1, 1616641, Note_on_c, 0, 79, 0
1, 1616834, Control_c, 0, 64, 95
1, 1616853, Control_c, 0, 64, 60
1, 1616870, Control_c, 0, 64, 24
1, 1616890, Control_c, 0, 64, 14
1, 1616906, Control_c, 0, 64, 8
1, 1616910, Note_on_c, 0, 72, 95
1, 1616924, Control_c, 0, 64, 0
1, 1616988, Note_on_c, 0, 56, 69
1, 1617027, Note_on_c, 0, 60, 66
1, 1617036, Control_c, 0, 64, 14
1, 1617056, Control_c, 0, 64, 32
1, 1617074, Control_c, 0, 64, 50
1, 1617091, Control_c, 0, 64, 77
1, 1617098, Note_on_c, 0, 65, 66
1, 1617110, Control_c, 0, 64, 110
1, 1617129, Control_c, 0, 64, 127
1, 1617130, Control_c, 0, 67, 9
1, 1617137, Note_on_c, 0, 68, 87
1, 1617152, Note_on_c, 0, 84, 96
1, 1617153, Note_on_c, 0, 77, 95
1, 1617154, Note_on_c, 0, 56, 0
1, 1617166, Note_on_c, 0, 72, 0
1, 1617178, Note_on_c, 0, 68, 0
1, 1617181, Note_on_c, 0, 60, 0
1, 1617194, Note_on_c, 0, 77, 0
1, 1617202, Note_on_c, 0, 65, 0
1, 1617211, Note_on_c, 0, 84, 0
1, 1617260, Control_c, 0, 64, 100
1, 1617277, Control_c, 0, 64, 68
1, 1617296, Control_c, 0, 64, 47
1, 1617314, Control_c, 0, 64, 43
1, 1617468, Note_on_c, 0, 82, 87
1, 1617473, Note_on_c, 0, 79, 83
1, 1617498, Note_on_c, 0, 79, 0
1, 1617521, Note_on_c, 0, 82, 0
1, 1617543, Note_on_c, 0, 61, 95
1, 1617549, Note_on_c, 0, 49, 84
1, 1617549, Note_on_c, 0, 77, 87
1, 1617554, Note_on_c, 0, 80, 91
1, 1617603, Note_on_c, 0, 77, 0
1, 1617616, Note_on_c, 0, 80, 0
1, 1617768, Note_on_c, 0, 77, 96
1, 1617778, Note_on_c, 0, 68, 89
1, 1617808, Note_on_c, 0, 77, 0
1, 1617808, Note_on_c, 0, 68, 0
1, 1617878, Note_on_c, 0, 49, 0
1, 1617885, Note_on_c, 0, 61, 0
1, 1617976, Note_on_c, 0, 68, 95
1, 1617979, Note_on_c, 0, 60, 101
1, 1617980, Note_on_c, 0, 65, 87
1, 1617983, Note_on_c, 0, 48, 85
1, 1618012, Note_on_c, 0, 65, 0
1, 1618022, Note_on_c, 0, 48, 0
1, 1618023, Note_on_c, 0, 68, 0
1, 1618025, Note_on_c, 0, 60, 0
1, 1618173, Note_on_c, 0, 65, 95
1, 1618178, Note_on_c, 0, 56, 91
1, 1618180, Note_on_c, 0, 60, 88
1, 1618213, Note_on_c, 0, 60, 0
1, 1618223, Note_on_c, 0, 65, 0
1, 1618227, Note_on_c, 0, 44, 27
1, 1618283, Note_on_c, 0, 44, 0
1, 1618287, Control_c, 0, 64, 41
1, 1618305, Poly_aftertouch_c, 0, 46, 0
1, 1618308, Control_c, 0, 64, 36
1, 1618315, Note_on_c, 0, 56, 0
1, 1618323, Control_c, 0, 64, 26
1, 1618343, Control_c, 0, 64, 0
1, 1618382, Note_on_c, 0, 43, 70
1, 1618406, Note_on_c, 0, 51, 83
1, 1618420, Note_on_c, 0, 55, 96
1, 1618426, Note_on_c, 0, 60, 105
1, 1618426, Note_on_c, 0, 63, 103
1, 1618428, Note_on_c, 0, 72, 104
1, 1618434, Control_c, 0, 64, 26
1, 1618454, Control_c, 0, 64, 62
1, 1618455, Control_c, 0, 67, 0
1, 1618457, Note_on_c, 0, 43, 0
1, 1618458, Note_on_c, 0, 60, 0
1, 1618471, Note_on_c, 0, 63, 0
1, 1618471, Control_c, 0, 64, 94
1, 1618475, Note_on_c, 0, 55, 0
1, 1618480, Note_on_c, 0, 51, 0
1, 1618487, Note_on_c, 0, 72, 0
1, 1618489, Control_c, 0, 64, 119
1, 1618510, Control_c, 0, 64, 127
1, 1618730, Note_on_c, 0, 65, 66
1, 1618738, Note_on_c, 0, 68, 76
1, 1618771, Note_on_c, 0, 65, 0
1, 1618773, Note_on_c, 0, 68, 0
1, 1618845, Note_on_c, 0, 67, 91
1, 1618846, Note_on_c, 0, 85, 97
1, 1618847, Note_on_c, 0, 63, 87
1, 1618847, Note_on_c, 0, 75, 99
1, 1618848, Note_on_c, 0, 73, 102
1, 1618894, Note_on_c, 0, 67, 0
1, 1618899, Note_on_c, 0, 63, 0
1, 1618901, Note_on_c, 0, 79, 24
1, 1618908, Control_c, 0, 64, 107
1, 1618927, Control_c, 0, 64, 75
1, 1618946, Control_c, 0, 64, 47
1, 1618951, Note_on_c, 0, 79, 0
1, 1618962, Control_c, 0, 64, 40
1, 1619030, Note_on_c, 0, 63, 88
1, 1619032, Note_on_c, 0, 55, 84
1, 1619060, Note_on_c, 0, 63, 0
1, 1619072, Note_on_c, 0, 55, 0
1, 1619118, Note_on_c, 0, 75, 0
1, 1619145, Note_on_c, 0, 85, 0
1, 1619149, Note_on_c, 0, 73, 0
1, 1619225, Note_on_c, 0, 55, 91
1, 1619237, Note_on_c, 0, 75, 97
1, 1619242, Note_on_c, 0, 84, 87
1, 1619246, Note_on_c, 0, 72, 83
1, 1619252, Note_on_c, 0, 55, 0
1, 1619264, Note_on_c, 0, 84, 0
1, 1619270, Note_on_c, 0, 72, 0
1, 1619273, Note_on_c, 0, 75, 0
1, 1619274, Note_on_c, 0, 50, 30
1, 1619275, Note_on_c, 0, 50, 0
1, 1619439, Note_on_c, 0, 67, 105
1, 1619439, Note_on_c, 0, 79, 98
1, 1619445, Note_on_c, 0, 75, 90
1, 1619466, Note_on_c, 0, 51, 34
1, 1619473, Note_on_c, 0, 75, 0
1, 1619475, Note_on_c, 0, 79, 0
1, 1619477, Note_on_c, 0, 67, 0
1, 1619519, Note_on_c, 0, 51, 0
1, 1619565, Control_c, 0, 64, 34
1, 1619584, Control_c, 0, 64, 29
1, 1619602, Control_c, 0, 64, 22
1, 1619622, Control_c, 0, 64, 15
1, 1619647, Note_on_c, 0, 43, 80
1, 1619659, Control_c, 0, 64, 20
1, 1619677, Control_c, 0, 64, 50
1, 1619694, Note_on_c, 0, 55, 98
1, 1619695, Control_c, 0, 64, 87
1, 1619712, Control_c, 0, 64, 122
1, 1619715, Note_on_c, 0, 62, 101
1, 1619718, Note_on_c, 0, 60, 98
1, 1619722, Note_on_c, 0, 43, 0
1, 1619731, Control_c, 0, 64, 127
1, 1619741, Note_on_c, 0, 55, 0
1, 1619789, Control_c, 0, 64, 120
1, 1619806, Control_c, 0, 64, 90
1, 1619826, Control_c, 0, 64, 57
1, 1619844, Control_c, 0, 64, 30
1, 1619863, Control_c, 0, 64, 25
1, 1620140, Control_c, 0, 64, 29
1, 1620151, Note_on_c, 0, 68, 99
1, 1620155, Note_on_c, 0, 56, 78
1, 1620158, Control_c, 0, 64, 47
1, 1620178, Control_c, 0, 64, 70
1, 1620187, Note_on_c, 0, 56, 0
1, 1620195, Control_c, 0, 64, 88
1, 1620215, Control_c, 0, 64, 108
1, 1620233, Control_c, 0, 64, 124
1, 1620241, Note_on_c, 0, 68, 0
1, 1620669, Note_on_c, 0, 62, 0
1, 1621075, Control_c, 0, 64, 120
1, 1621093, Control_c, 0, 64, 104
1, 1621099, Note_on_c, 0, 43, 51
1, 1621106, Note_on_c, 0, 55, 60
1, 1621108, Note_on_c, 0, 59, 52
1, 1621113, Control_c, 0, 64, 85
1, 1621113, Note_on_c, 0, 62, 62
1, 1621132, Control_c, 0, 64, 65
1, 1621150, Control_c, 0, 64, 50
1, 1621169, Control_c, 0, 64, 45
1, 1621179, Note_on_c, 0, 43, 0
1, 1621187, Control_c, 0, 64, 43
1, 1621195, Note_on_c, 0, 55, 0
1, 1621196, Note_on_c, 0, 60, 0
1, 1621203, Control_c, 0, 64, 41
1, 1621242, Control_c, 0, 64, 37
1, 1621492, Control_c, 0, 64, 41
1, 1621511, Control_c, 0, 64, 45
1, 1621530, Control_c, 0, 64, 49
1, 1621549, Control_c, 0, 64, 54
1, 1621567, Control_c, 0, 64, 60
1, 1621585, Control_c, 0, 64, 70
1, 1621603, Control_c, 0, 64, 77
1, 1621622, Control_c, 0, 64, 87
1, 1621640, Control_c, 0, 64, 97
1, 1621659, Control_c, 0, 64, 107
1, 1621677, Control_c, 0, 64, 116
1, 1621684, Note_on_c, 0, 68, 66
1, 1621696, Control_c, 0, 64, 125
1, 1621713, Note_on_c, 0, 56, 43
1, 1621759, Note_on_c, 0, 56, 0
1, 1621799, Note_on_c, 0, 68, 0
1, 1621853, Note_on_c, 0, 59, 0
1, 1621895, Note_on_c, 0, 62, 0
1, 1622369, Note_on_c, 0, 67, 99
1, 1622372, Note_on_c, 0, 43, 87
1, 1622600, Note_on_c, 0, 72, 93
1, 1622602, Note_on_c, 0, 36, 87
1, 1622602, Note_on_c, 0, 48, 107
1, 1622604, Note_on_c, 0, 64, 96
1, 1622606, Note_on_c, 0, 60, 96
1, 1622621, Note_on_c, 0, 67, 0
1, 1622626, Note_on_c, 0, 60, 0
1, 1622628, Note_on_c, 0, 36, 0
1, 1622631, Control_c, 0, 64, 86
1, 1622638, Note_on_c, 0, 43, 0
1, 1622643, Note_on_c, 0, 48, 0
1, 1622645, Note_on_c, 0, 64, 0
1, 1622651, Control_c, 0, 64, 46
1, 1622652, Note_on_c, 0, 72, 0
1, 1622670, Control_c, 0, 64, 22
1, 1623038, Note_on_c, 0, 73, 90
1, 1623040, Note_on_c, 0, 61, 97
1, 1623041, Note_on_c, 0, 70, 89
1, 1623043, Note_on_c, 0, 58, 94
1, 1623058, Control_c, 0, 64, 33
1, 1623075, Control_c, 0, 64, 56
1, 1623095, Control_c, 0, 64, 84
1, 1623112, Control_c, 0, 64, 112
1, 1623132, Control_c, 0, 64, 127
1, 1623236, Note_on_c, 0, 70, 0
1, 1623252, Note_on_c, 0, 73, 0
1, 1623353, Note_on_c, 0, 61, 0
1, 1623400, Note_on_c, 0, 58, 0
1, 1623447, Note_on_c, 0, 72, 82
1, 1623451, Note_on_c, 0, 60, 85
1, 1623451, Note_on_c, 0, 68, 87
1, 1623454, Control_c, 0, 64, 110
1, 1623454, Note_on_c, 0, 56, 80
1, 1623475, Control_c, 0, 64, 78
1, 1623484, Note_on_c, 0, 68, 0
1, 1623487, Note_on_c, 0, 72, 0
1, 1623489, Note_on_c, 0, 60, 0
1, 1623491, Control_c, 0, 64, 50
1, 1623496, Note_on_c, 0, 56, 0
1, 1623511, Control_c, 0, 64, 40
1, 1623649, Note_on_c, 0, 70, 89
1, 1623651, Note_on_c, 0, 67, 90
1, 1623658, Note_on_c, 0, 58, 88
1, 1623661, Note_on_c, 0, 55, 82
1, 1623680, Note_on_c, 0, 67, 0
1, 1623697, Note_on_c, 0, 55, 0
1, 1623705, Note_on_c, 0, 58, 0
1, 1623706, Note_on_c, 0, 70, 0
1, 1623910, Note_on_c, 0, 68, 97
1, 1623913, Note_on_c, 0, 65, 86
1, 1623914, Note_on_c, 0, 56, 96
1, 1623918, Note_on_c, 0, 53, 88
1, 1623948, Note_on_c, 0, 53, 0
1, 1623954, Note_on_c, 0, 65, 0
1, 1623963, Note_on_c, 0, 68, 0
1, 1623967, Note_on_c, 0, 56, 0
1, 1624218, Note_on_c, 0, 70, 86
1, 1624222, Note_on_c, 0, 55, 75
1, 1624222, Note_on_c, 0, 58, 78
1, 1624225, Note_on_c, 0, 67, 76
1, 1624250, Note_on_c, 0, 58, 0
1, 1624254, Note_on_c, 0, 55, 0
1, 1624255, Note_on_c, 0, 67, 0
1, 1624273, Note_on_c, 0, 70, 0
1, 1624281, Control_c, 0, 64, 32
1, 1624298, Control_c, 0, 64, 25
1, 1624300, Note_on_c, 0, 60, 102
1, 1624305, Note_on_c, 0, 72, 89
1, 1624308, Note_on_c, 0, 68, 88
1, 1624310, Note_on_c, 0, 56, 87
1, 1624318, Control_c, 0, 64, 15
1, 1624337, Control_c, 0, 64, 10
1, 1624344, Note_on_c, 0, 55, 28
1, 1624345, Note_on_c, 0, 55, 0
1, 1624374, Control_c, 0, 64, 21
1, 1624390, Note_on_c, 0, 60, 0
1, 1624392, Control_c, 0, 64, 49
1, 1624410, Control_c, 0, 64, 81
1, 1624413, Note_on_c, 0, 56, 0
1, 1624428, Control_c, 0, 64, 115
1, 1624448, Control_c, 0, 64, 127
1, 1624486, Note_on_c, 0, 72, 0
1, 1624527, Note_on_c, 0, 68, 0
1, 1624541, Control_c, 0, 64, 109
1, 1624559, Control_c, 0, 64, 76
1, 1624576, Control_c, 0, 64, 45
1, 1624596, Control_c, 0, 64, 31
1, 1624744, Control_c, 0, 64, 26
1, 1624931, Control_c, 0, 64, 32
1, 1624946, Control_c, 0, 64, 46
1, 1624966, Control_c, 0, 64, 58
1, 1624976, Note_on_c, 0, 48, 86
1, 1624984, Control_c, 0, 64, 71
1, 1625002, Control_c, 0, 64, 82
1, 1625022, Control_c, 0, 64, 96
1, 1625041, Control_c, 0, 64, 112
1, 1625058, Control_c, 0, 64, 126
1, 1625200, Note_on_c, 0, 44, 90
1, 1625202, Note_on_c, 0, 48, 0
1, 1625204, Note_on_c, 0, 60, 92
1, 1625207, Note_on_c, 0, 56, 79
1, 1625211, Note_on_c, 0, 32, 76
1, 1625212, Note_on_c, 0, 51, 70
1, 1625215, Control_c, 0, 64, 111
1, 1625232, Note_on_c, 0, 44, 0
1, 1625234, Control_c, 0, 64, 75
1, 1625239, Note_on_c, 0, 56, 0
1, 1625245, Note_on_c, 0, 32, 0
1, 1625246, Note_on_c, 0, 51, 0
1, 1625247, Note_on_c, 0, 60, 0
1, 1625252, Control_c, 0, 64, 32
1, 1625273, Control_c, 0, 64, 0
1, 1625661, Control_c, 0, 64, 19
1, 1625678, Note_on_c, 0, 61, 96
1, 1625681, Control_c, 0, 64, 44
1, 1625682, Note_on_c, 0, 37, 95
1, 1625684, Note_on_c, 0, 25, 86
1, 1625687, Note_on_c, 0, 53, 87
1, 1625687, Note_on_c, 0, 56, 86
1, 1625700, Control_c, 0, 64, 68
1, 1625715, Control_c, 0, 64, 92
1, 1625721, Note_on_c, 0, 25, 0
1, 1625735, Control_c, 0, 64, 126
1, 1625736, Note_on_c, 0, 37, 0
1, 1625763, Note_on_c, 0, 53, 0
1, 1625829, Note_on_c, 0, 61, 0
1, 1625860, Note_on_c, 0, 56, 0
1, 1626114, Control_c, 0, 64, 113
1, 1626119, Note_on_c, 0, 60, 89
1, 1626132, Note_on_c, 0, 39, 87
1, 1626135, Control_c, 0, 64, 81
1, 1626135, Note_on_c, 0, 49, 80
1, 1626136, Note_on_c, 0, 27, 81
1, 1626136, Note_on_c, 0, 55, 78
1, 1626152, Control_c, 0, 64, 48
1, 1626166, Note_on_c, 0, 49, 0
1, 1626168, Note_on_c, 0, 39, 0
1, 1626171, Control_c, 0, 64, 26
1, 1626175, Note_on_c, 0, 60, 0
1, 1626176, Note_on_c, 0, 27, 0
1, 1626177, Note_on_c, 0, 55, 0
1, 1626328, Note_on_c, 0, 58, 89
1, 1626334, Note_on_c, 0, 27, 80
1, 1626334, Note_on_c, 0, 49, 69
1, 1626335, Note_on_c, 0, 55, 82
1, 1626338, Note_on_c, 0, 39, 85
1, 1626364, Note_on_c, 0, 27, 0
1, 1626367, Note_on_c, 0, 49, 0
1, 1626370, Note_on_c, 0, 55, 0
1, 1626382, Note_on_c, 0, 39, 0
1, 1626401, Note_on_c, 0, 58, 0
1, 1626578, Note_on_c, 0, 44, 93
1, 1626579, Note_on_c, 0, 56, 92
1, 1626581, Note_on_c, 0, 48, 86
1, 1626599, Note_on_c, 0, 32, 54
1, 1626607, Note_on_c, 0, 44, 0
1, 1626616, Note_on_c, 0, 48, 0
1, 1626636, Note_on_c, 0, 32, 0
1, 1626641, Note_on_c, 0, 56, 0
1, 1626876, Note_on_c, 0, 58, 72
1, 1626882, Note_on_c, 0, 51, 68
1, 1626894, Note_on_c, 0, 32, 74
1, 1626912, Note_on_c, 0, 58, 0
1, 1626915, Note_on_c, 0, 51, 0
1, 1626957, Control_c, 0, 64, 22
1, 1626964, Note_on_c, 0, 44, 97
1, 1626969, Note_on_c, 0, 56, 85
1, 1626969, Note_on_c, 0, 60, 93
1, 1626991, Note_on_c, 0, 32, 0
1, 1626994, Control_c, 0, 64, 14
1, 1627031, Control_c, 0, 64, 0
1, 1627060, Note_on_c, 0, 44, 0
1, 1627068, Control_c, 0, 64, 20
1, 1627087, Control_c, 0, 64, 50
1, 1627106, Control_c, 0, 64, 84
1, 1627125, Control_c, 0, 64, 120
1, 1627133, Note_on_c, 0, 60, 0
1, 1627143, Control_c, 0, 64, 127
1, 1627161, Note_on_c, 0, 56, 0
1, 1627235, Control_c, 0, 64, 120
1, 1627254, Control_c, 0, 64, 89
1, 1627272, Control_c, 0, 64, 57
1, 1627292, Control_c, 0, 64, 32
1, 1627293, Control_c, 0, 67, 9
1, 1627311, Control_c, 0, 64, 28
1, 1627312, Control_c, 0, 67, 13
1, 1627329, Control_c, 0, 67, 18
1, 1627348, Control_c, 0, 67, 25
1, 1627367, Control_c, 0, 67, 31
1, 1627382, Control_c, 0, 67, 36
1, 1627402, Control_c, 0, 67, 40
1, 1627420, Control_c, 0, 67, 44
1, 1627440, Control_c, 0, 67, 49
1, 1627457, Control_c, 0, 67, 53
1, 1627477, Control_c, 0, 67, 57
1, 1627495, Control_c, 0, 67, 64
1, 1627514, Control_c, 0, 67, 75
1, 1627532, Control_c, 0, 67, 88
1, 1627552, Control_c, 0, 67, 100
1, 1627569, Control_c, 0, 64, 46
1, 1627570, Control_c, 0, 67, 110
1, 1627587, Control_c, 0, 64, 60
1, 1627588, Control_c, 0, 67, 117
1, 1627606, Control_c, 0, 64, 72
1, 1627607, Control_c, 0, 67, 121
1, 1627625, Control_c, 0, 64, 83
1, 1627626, Control_c, 0, 67, 127
1, 1627643, Control_c, 0, 64, 96
1, 1627654, Note_on_c, 0, 56, 54
1, 1627660, Control_c, 0, 64, 109
1, 1627681, Control_c, 0, 64, 118
1, 1627699, Control_c, 0, 64, 123
1, 1627730, Note_on_c, 0, 56, 0
1, 1627736, Control_c, 0, 64, 127
1, 1627865, Control_c, 0, 64, 119
1, 1627893, Control_c, 0, 64, 104
1, 1627913, Control_c, 0, 64, 82
1, 1627917, Note_on_c, 0, 63, 65
1, 1627920, Note_on_c, 0, 66, 63
1, 1627930, Note_on_c, 0, 56, 49
1, 1627931, Control_c, 0, 64, 58
1, 1627938, Note_on_c, 0, 44, 47
1, 1627948, Control_c, 0, 64, 37
1, 1627952, Note_on_c, 0, 63, 0
1, 1627957, Note_on_c, 0, 66, 0
1, 1627966, Control_c, 0, 64, 27
1, 1627986, Control_c, 0, 64, 23
1, 1628004, Control_c, 0, 64, 18
1, 1628024, Control_c, 0, 64, 10
1, 1628041, Control_c, 0, 64, 0
1, 1628152, Control_c, 0, 64, 22
1, 1628171, Control_c, 0, 64, 38
1, 1628189, Control_c, 0, 64, 55
1, 1628209, Control_c, 0, 64, 74
1, 1628227, Control_c, 0, 64, 83
1, 1628245, Control_c, 0, 64, 91
1, 1628263, Control_c, 0, 64, 98
1, 1628283, Control_c, 0, 64, 109
1, 1628302, Control_c, 0, 64, 119
1, 1628318, Control_c, 0, 64, 124
1, 1628368, Note_on_c, 0, 68, 68
1, 1628374, Note_on_c, 0, 65, 56
1, 1628471, Note_on_c, 0, 56, 0
1, 1628482, Note_on_c, 0, 44, 0
1, 1628510, Note_on_c, 0, 68, 0
1, 1628596, Note_on_c, 0, 57, 60
1, 1628597, Note_on_c, 0, 45, 58
1, 1628616, Control_c, 0, 64, 103
1, 1628635, Control_c, 0, 64, 81
1, 1628654, Control_c, 0, 64, 58
1, 1628673, Control_c, 0, 64, 47
1, 1628768, Note_on_c, 0, 65, 0
1, 1628782, Control_c, 0, 67, 123
1, 1628784, Note_on_c, 0, 66, 70
1, 1628798, Note_on_c, 0, 63, 60
1, 1628829, Control_c, 0, 67, 117
1, 1628835, Note_on_c, 0, 66, 0
1, 1628843, Note_on_c, 0, 63, 0
1, 1628849, Control_c, 0, 67, 112
1, 1628867, Control_c, 0, 67, 104
1, 1628884, Control_c, 0, 67, 91
1, 1628902, Control_c, 0, 67, 73
1, 1628921, Control_c, 0, 67, 50
1, 1628940, Control_c, 0, 67, 27
1, 1628977, Control_c, 0, 67, 0
1, 1628996, Note_on_c, 0, 57, 0
1, 1628999, Note_on_c, 0, 63, 78
1, 1629017, Note_on_c, 0, 60, 59
1, 1629040, Note_on_c, 0, 63, 0
1, 1629045, Note_on_c, 0, 60, 0
1, 1629200, Control_c, 0, 64, 45
1, 1629262, Note_on_c, 0, 62, 76
1, 1629263, Note_on_c, 0, 58, 59
1, 1629271, Note_on_c, 0, 46, 61
1, 1629294, Note_on_c, 0, 62, 0
1, 1629360, Note_on_c, 0, 45, 0
1, 1629385, Control_c, 0, 64, 43
1, 1629564, Note_on_c, 0, 63, 61
1, 1629583, Note_on_c, 0, 60, 37
1, 1629601, Note_on_c, 0, 63, 0
1, 1629627, Note_on_c, 0, 60, 0
1, 1629644, Control_c, 0, 64, 41
1, 1629663, Note_on_c, 0, 65, 66
1, 1629664, Note_on_c, 0, 62, 63
1, 1629695, Note_on_c, 0, 62, 0
1, 1629713, Note_on_c, 0, 65, 0
1, 1629764, Control_c, 0, 64, 35
1, 1629774, Note_on_c, 0, 58, 0
1, 1629801, Control_c, 0, 64, 28
1, 1629819, Control_c, 0, 64, 22
1, 1629838, Control_c, 0, 64, 13
1, 1629856, Control_c, 0, 64, 0
1, 1629926, Note_on_c, 0, 59, 72
1, 1629936, Note_on_c, 0, 47, 63
1, 1629978, Note_on_c, 0, 46, 0
1, 1630023, Control_c, 0, 64, 23
1, 1630043, Control_c, 0, 64, 40
1, 1630060, Control_c, 0, 64, 57
1, 1630080, Control_c, 0, 64, 76
1, 1630099, Control_c, 0, 64, 90
1, 1630116, Control_c, 0, 64, 109
1, 1630134, Control_c, 0, 64, 125
1, 1630336, Note_on_c, 0, 56, 88
1, 1630357, Note_on_c, 0, 47, 0
1, 1630410, Note_on_c, 0, 59, 0
1, 1630412, Note_on_c, 0, 56, 0
1, 1630579, Control_c, 0, 64, 113
1, 1630579, Note_on_c, 0, 68, 90
1, 1630581, Note_on_c, 0, 65, 76
1, 1630584, Note_on_c, 0, 48, 80
1, 1630587, Note_on_c, 0, 60, 86
1, 1630598, Control_c, 0, 64, 83
1, 1630610, Note_on_c, 0, 65, 0
1, 1630616, Control_c, 0, 64, 51
1, 1630631, Note_on_c, 0, 68, 0
1, 1630634, Control_c, 0, 64, 31
1, 1630717, Control_c, 0, 64, 26
1, 1630811, Control_c, 0, 64, 22
1, 1630921, Control_c, 0, 64, 17
1, 1630995, Control_c, 0, 64, 33
1, 1631005, Note_on_c, 0, 70, 93
1, 1631010, Note_on_c, 0, 67, 80
1, 1631013, Control_c, 0, 64, 48
1, 1631034, Control_c, 0, 64, 64
1, 1631052, Note_on_c, 0, 48, 0
1, 1631052, Control_c, 0, 64, 78
1, 1631071, Control_c, 0, 64, 92
1, 1631090, Control_c, 0, 64, 108
1, 1631097, Note_on_c, 0, 60, 0
1, 1631109, Control_c, 0, 64, 121
1, 1631125, Control_c, 0, 64, 127
1, 1631216, Note_on_c, 0, 49, 76
1, 1631220, Note_on_c, 0, 61, 84
1, 1631223, Note_on_c, 0, 70, 0
1, 1631348, Control_c, 0, 64, 104
1, 1631350, Note_on_c, 0, 67, 0
1, 1631367, Control_c, 0, 64, 78
1, 1631385, Control_c, 0, 64, 53
1, 1631404, Control_c, 0, 64, 42
1, 1631417, Note_on_c, 0, 69, 86
1, 1631423, Note_on_c, 0, 66, 73
1, 1631446, Note_on_c, 0, 66, 0
1, 1631454, Note_on_c, 0, 69, 0
1, 1631477, Control_c, 0, 64, 37
1, 1631631, Note_on_c, 0, 67, 92
1, 1631642, Note_on_c, 0, 64, 77
1, 1631672, Note_on_c, 0, 67, 0
1, 1631672, Note_on_c, 0, 64, 0
1, 1631806, Note_on_c, 0, 61, 0
1, 1631836, Note_on_c, 0, 49, 0
1, 1631907, Note_on_c, 0, 66, 96
1, 1631914, Control_c, 0, 64, 33
1, 1631916, Note_on_c, 0, 62, 90
1, 1631927, Note_on_c, 0, 50, 77
1, 1631954, Note_on_c, 0, 66, 0
1, 1632220, Note_on_c, 0, 67, 90
1, 1632230, Note_on_c, 0, 64, 68
1, 1632246, Note_on_c, 0, 67, 0
1, 1632251, Note_on_c, 0, 64, 0
1, 1632308, Note_on_c, 0, 69, 93
1, 1632318, Note_on_c, 0, 66, 85
1, 1632332, Note_on_c, 0, 62, 0
1, 1632376, Note_on_c, 0, 66, 0
1, 1632414, Note_on_c, 0, 69, 0
1, 1632469, Control_c, 0, 64, 26
1, 1632487, Control_c, 0, 64, 21
1, 1632506, Control_c, 0, 64, 14
1, 1632543, Control_c, 0, 64, 0
1, 1632546, Note_on_c, 0, 51, 78
1, 1632551, Note_on_c, 0, 63, 96
1, 1632588, Note_on_c, 0, 50, 0
1, 1632756, Control_c, 0, 64, 34
1, 1632774, Control_c, 0, 64, 62
1, 1632793, Control_c, 0, 64, 86
1, 1632813, Control_c, 0, 64, 104
1, 1632830, Control_c, 0, 64, 120
1, 1632850, Control_c, 0, 64, 127
1, 1632935, Note_on_c, 0, 60, 97
1, 1633065, Note_on_c, 0, 60, 0
1, 1633080, Note_on_c, 0, 63, 0
1, 1633126, Note_on_c, 0, 51, 0
1, 1633187, Note_on_c, 0, 72, 96
1, 1633199, Note_on_c, 0, 69, 85
1, 1633201, Control_c, 0, 64, 116
1, 1633202, Note_on_c, 0, 64, 92
1, 1633208, Note_on_c, 0, 52, 79
1, 1633220, Control_c, 0, 64, 81
1, 1633223, Note_on_c, 0, 69, 0
1, 1633232, Note_on_c, 0, 72, 0
1, 1633237, Control_c, 0, 64, 47
1, 1633257, Control_c, 0, 64, 29
1, 1633294, Control_c, 0, 64, 23
1, 1633311, Control_c, 0, 64, 19
1, 1633480, Note_on_c, 0, 74, 93
1, 1633483, Note_on_c, 0, 71, 81
1, 1633517, Note_on_c, 0, 74, 0
1, 1633519, Note_on_c, 0, 71, 0
1, 1633552, Note_on_c, 0, 64, 0
1, 1633557, Note_on_c, 0, 52, 0
1, 1633572, Note_on_c, 0, 76, 97
1, 1633582, Note_on_c, 0, 72, 91
1, 1633594, Note_on_c, 0, 74, 47
1, 1633628, Note_on_c, 0, 74, 0
1, 1633644, Note_on_c, 0, 72, 0
1, 1633701, Note_on_c, 0, 76, 0
1, 1633729, Control_c, 0, 64, 0
1, 1633818, Note_on_c, 0, 63, 97
1, 1633819, Note_on_c, 0, 57, 93
1, 1633824, Note_on_c, 0, 51, 82
1, 1633840, Control_c, 0, 67, 8
1, 1633860, Control_c, 0, 67, 19
1, 1633878, Control_c, 0, 64, 16
1, 1633879, Control_c, 0, 67, 37
1, 1633897, Control_c, 0, 64, 47
1, 1633898, Control_c, 0, 67, 53
1, 1633917, Control_c, 0, 64, 73
1, 1633918, Control_c, 0, 67, 62
1, 1633933, Control_c, 0, 64, 91
1, 1633951, Control_c, 0, 64, 110
1, 1633970, Control_c, 0, 64, 120
1, 1633989, Control_c, 0, 64, 126
1, 1633990, Control_c, 0, 67, 56
1, 1634007, Control_c, 0, 67, 50
1, 1634026, Control_c, 0, 67, 40
1, 1634044, Control_c, 0, 67, 26
1, 1634063, Control_c, 0, 67, 9
1, 1634081, Control_c, 0, 67, 0
1, 1634104, Note_on_c, 0, 76, 101
1, 1634186, Note_on_c, 0, 77, 101
1, 1634187, Note_on_c, 0, 72, 93
1, 1634195, Note_on_c, 0, 69, 96
1, 1634229, Note_on_c, 0, 51, 0
1, 1634230, Note_on_c, 0, 76, 0
1, 1634244, Note_on_c, 0, 57, 0
1, 1634288, Note_on_c, 0, 63, 0
1, 1634442, Note_on_c, 0, 62, 104
1, 1634444, Note_on_c, 0, 58, 98
1, 1634449, Note_on_c, 0, 53, 84
1, 1634451, Note_on_c, 0, 50, 85
1, 1634462, Control_c, 0, 64, 107
1, 1634465, Note_on_c, 0, 69, 0
1, 1634478, Note_on_c, 0, 77, 0
1, 1634480, Control_c, 0, 64, 66
1, 1634485, Note_on_c, 0, 72, 0
1, 1634497, Control_c, 0, 64, 0
1, 1634628, Control_c, 0, 64, 32
1, 1634647, Control_c, 0, 64, 56
1, 1634665, Control_c, 0, 64, 81
1, 1634683, Control_c, 0, 64, 101
1, 1634701, Control_c, 0, 64, 120
1, 1634721, Control_c, 0, 64, 125
1, 1634728, Note_on_c, 0, 76, 83
1, 1634732, Note_on_c, 0, 77, 88
1, 1634753, Note_on_c, 0, 77, 0
1, 1634808, Note_on_c, 0, 67, 100
1, 1634811, Note_on_c, 0, 70, 94
1, 1634815, Note_on_c, 0, 79, 82
1, 1634825, Note_on_c, 0, 77, 87
1, 1634850, Note_on_c, 0, 50, 0
1, 1634852, Note_on_c, 0, 53, 0
1, 1634871, Note_on_c, 0, 69, 48
1, 1634878, Note_on_c, 0, 62, 0
1, 1634883, Note_on_c, 0, 58, 0
1, 1634960, Note_on_c, 0, 69, 0
1, 1635016, Note_on_c, 0, 76, 0
1, 1635020, Note_on_c, 0, 70, 0
1, 1635055, Note_on_c, 0, 61, 102
1, 1635057, Note_on_c, 0, 59, 94
1, 1635067, Note_on_c, 0, 53, 80
1, 1635068, Note_on_c, 0, 49, 81
1, 1635084, Note_on_c, 0, 77, 0
1, 1635128, Control_c, 0, 64, 104
1, 1635136, Note_on_c, 0, 67, 0
1, 1635147, Control_c, 0, 64, 66
1, 1635152, Note_on_c, 0, 79, 0
1, 1635165, Control_c, 0, 64, 15
1, 1635183, Control_c, 0, 64, 0
1, 1635294, Control_c, 0, 64, 28
1, 1635313, Control_c, 0, 64, 51
1, 1635328, Note_on_c, 0, 79, 101
1, 1635331, Control_c, 0, 64, 80
1, 1635350, Control_c, 0, 64, 105
1, 1635377, Control_c, 0, 64, 127
1, 1635379, Note_on_c, 0, 79, 0
1, 1635426, Note_on_c, 0, 53, 0
1, 1635430, Note_on_c, 0, 59, 0
1, 1635437, Note_on_c, 0, 78, 97
1, 1635443, Note_on_c, 0, 80, 93
1, 1635447, Note_on_c, 0, 68, 89
1, 1635457, Note_on_c, 0, 71, 72
1, 1635458, Note_on_c, 0, 72, 70
1, 1635461, Note_on_c, 0, 49, 0
1, 1635489, Note_on_c, 0, 72, 0
1, 1635492, Note_on_c, 0, 71, 0
1, 1635498, Note_on_c, 0, 77, 68
1, 1635504, Note_on_c, 0, 68, 0
1, 1635510, Note_on_c, 0, 61, 0
1, 1635524, Note_on_c, 0, 77, 0
1, 1635529, Note_on_c, 0, 78, 0
1, 1635560, Note_on_c, 0, 80, 0
1, 1635583, Control_c, 0, 64, 88
1, 1635601, Control_c, 0, 64, 46
1, 1635619, Control_c, 0, 64, 0
1, 1635634, Note_on_c, 0, 48, 80
1, 1635659, Note_on_c, 0, 53, 72
1, 1635706, Note_on_c, 0, 56, 85
1, 1635731, Note_on_c, 0, 60, 101
1, 1635749, Control_c, 0, 64, 8
1, 1635759, Note_on_c, 0, 84, 98
1, 1635761, Note_on_c, 0, 72, 102
1, 1635763, Note_on_c, 0, 80, 94
1, 1635764, Note_on_c, 0, 77, 96
1, 1635768, Control_c, 0, 64, 47
1, 1635770, Control_c, 0, 67, 9
1, 1635785, Control_c, 0, 64, 84
1, 1635804, Control_c, 0, 64, 116
1, 1635807, Note_on_c, 0, 60, 0
1, 1635823, Control_c, 0, 64, 127
1, 1635824, Note_on_c, 0, 48, 0
1, 1635852, Note_on_c, 0, 56, 0
1, 1635855, Note_on_c, 0, 53, 0
1, 1635878, Note_on_c, 0, 72, 0
1, 1635878, Control_c, 0, 67, 0
1, 1635920, Note_on_c, 0, 84, 0
1, 1635940, Note_on_c, 0, 77, 0
1, 1636002, Note_on_c, 0, 80, 0
1, 1636172, Poly_aftertouch_c, 0, 39, 0
1, 1636172, Note_on_c, 0, 36, 92
1, 1636229, Note_on_c, 0, 84, 101
1, 1636359, Note_on_c, 0, 92, 93
1, 1636371, Note_on_c, 0, 84, 0
1, 1636479, Note_on_c, 0, 48, 108
1, 1636487, Note_on_c, 0, 91, 86
1, 1636536, Control_c, 0, 64, 72
1, 1636546, Note_on_c, 0, 92, 0
1, 1636552, Control_c, 0, 64, 0
1, 1636562, Note_on_c, 0, 91, 0
1, 1636612, Note_on_c, 0, 82, 84
1, 1636615, Poly_aftertouch_c, 0, 90, 0
1, 1636630, Control_c, 0, 64, 71
1, 1636639, Poly_aftertouch_c, 0, 90, 0
1, 1636647, Control_c, 0, 64, 109
1, 1636666, Control_c, 0, 64, 127
1, 1636688, Note_on_c, 0, 80, 87
1, 1636708, Note_on_c, 0, 82, 0
1, 1636784, Note_on_c, 0, 89, 87
1, 1636835, Note_on_c, 0, 80, 0
1, 1636856, Note_on_c, 0, 36, 0
1, 1636882, Note_on_c, 0, 87, 86
1, 1636920, Note_on_c, 0, 89, 0
1, 1636972, Note_on_c, 0, 87, 0
1, 1636979, Note_on_c, 0, 79, 80
1, 1637050, Note_on_c, 0, 48, 0
1, 1637067, Note_on_c, 0, 77, 82
1, 1637085, Note_on_c, 0, 79, 0
1, 1637160, Note_on_c, 0, 85, 83
1, 1637176, Note_on_c, 0, 77, 0
1, 1637283, Note_on_c, 0, 84, 80
1, 1637309, Note_on_c, 0, 85, 0
1, 1637341, Note_on_c, 0, 84, 0
1, 1637371, Note_on_c, 0, 75, 85
1, 1637417, Control_c, 0, 64, 95
1, 1637429, Note_on_c, 0, 52, 77
1, 1637434, Control_c, 0, 64, 53
1, 1637436, Note_on_c, 0, 55, 73
1, 1637453, Control_c, 0, 64, 28
1, 1637472, Control_c, 0, 64, 33
1, 1637472, Note_on_c, 0, 73, 84
1, 1637489, Control_c, 0, 64, 56
1, 1637501, Note_on_c, 0, 75, 0
1, 1637507, Control_c, 0, 64, 81
1, 1637527, Control_c, 0, 64, 113
1, 1637546, Control_c, 0, 64, 127
1, 1637559, Note_on_c, 0, 82, 84
1, 1637615, Note_on_c, 0, 73, 0
1, 1637621, Note_on_c, 0, 53, 75
1, 1637628, Note_on_c, 0, 56, 81
1, 1637638, Control_c, 0, 64, 113
1, 1637654, Control_c, 0, 64, 105
1, 1637657, Note_on_c, 0, 80, 87
1, 1637658, Note_on_c, 0, 55, 0
1, 1637674, Control_c, 0, 64, 123
1, 1637693, Control_c, 0, 64, 127
1, 1637711, Note_on_c, 0, 82, 0
1, 1637744, Note_on_c, 0, 52, 0
1, 1637751, Note_on_c, 0, 72, 85
1, 1637761, Note_on_c, 0, 80, 0
1, 1637800, Note_on_c, 0, 55, 81
1, 1637813, Note_on_c, 0, 53, 0
1, 1637815, Note_on_c, 0, 58, 80
1, 1637818, Note_on_c, 0, 56, 0
1, 1637821, Control_c, 0, 64, 99
1, 1637841, Control_c, 0, 64, 62
1, 1637853, Note_on_c, 0, 70, 81
1, 1637860, Control_c, 0, 64, 36
1, 1637864, Note_on_c, 0, 72, 0
1, 1637869, Note_on_c, 0, 55, 0
1, 1637912, Note_on_c, 0, 79, 69
1, 1637963, Note_on_c, 0, 70, 0
1, 1637994, Note_on_c, 0, 56, 71
1, 1637998, Note_on_c, 0, 60, 79
1, 1638003, Note_on_c, 0, 77, 78
1, 1638029, Note_on_c, 0, 58, 0
1, 1638048, Note_on_c, 0, 79, 0
1, 1638095, Note_on_c, 0, 68, 83
1, 1638102, Control_c, 0, 64, 28
1, 1638118, Note_on_c, 0, 68, 0
1, 1638118, Control_c, 0, 64, 9
1, 1638130, Note_on_c, 0, 77, 0
1, 1638138, Control_c, 0, 64, 0
1, 1638193, Note_on_c, 0, 61, 94
1, 1638193, Note_on_c, 0, 76, 95
1, 1638197, Note_on_c, 0, 58, 86
1, 1638204, Note_on_c, 0, 67, 95
1, 1638234, Note_on_c, 0, 60, 0
1, 1638237, Note_on_c, 0, 56, 0
1, 1638246, Note_on_c, 0, 61, 0
1, 1638259, Control_c, 0, 64, 41
1, 1638267, Note_on_c, 0, 58, 0
1, 1638276, Control_c, 0, 64, 71
1, 1638296, Control_c, 0, 64, 106
1, 1638314, Control_c, 0, 64, 127
1, 1638331, Note_on_c, 0, 67, 0
1, 1638335, Note_on_c, 0, 76, 0
1, 1638519, Control_c, 0, 64, 113
1, 1638537, Control_c, 0, 64, 59
1, 1638554, Control_c, 0, 64, 0
1, 1638557, Note_on_c, 0, 29, 90
1, 1638606, Note_on_c, 0, 66, 90
1, 1638610, Control_c, 0, 64, 22
1, 1638628, Control_c, 0, 64, 52
1, 1638648, Control_c, 0, 64, 90
1, 1638666, Control_c, 0, 64, 127
1, 1638703, Note_on_c, 0, 75, 88
1, 1638748, Note_on_c, 0, 66, 0
1, 1638776, Control_c, 0, 64, 101
1, 1638785, Note_on_c, 0, 41, 102
1, 1638795, Control_c, 0, 64, 43
1, 1638800, Poly_aftertouch_c, 0, 69, 0
1, 1638802, Note_on_c, 0, 73, 85
1, 1638814, Control_c, 0, 64, 0
1, 1638850, Note_on_c, 0, 75, 0
1, 1638871, Control_c, 0, 64, 33
1, 1638884, Note_on_c, 0, 65, 72
1, 1638890, Control_c, 0, 64, 65
1, 1638895, Note_on_c, 0, 73, 0
1, 1638908, Control_c, 0, 64, 94
1, 1638925, Control_c, 0, 64, 122
1, 1638943, Control_c, 0, 64, 127
1, 1638983, Note_on_c, 0, 63, 85
1, 1639021, Note_on_c, 0, 65, 0
1, 1639070, Note_on_c, 0, 72, 85
1, 1639135, Note_on_c, 0, 63, 0
1, 1639186, Note_on_c, 0, 70, 84
1, 1639213, Note_on_c, 0, 72, 0
1, 1639274, Note_on_c, 0, 70, 0
1, 1639286, Note_on_c, 0, 61, 87
1, 1639384, Note_on_c, 0, 60, 78
1, 1639417, Control_c, 0, 64, 95
1, 1639436, Control_c, 0, 64, 55
1, 1639454, Control_c, 0, 64, 52
1, 1639474, Control_c, 0, 64, 65
1, 1639480, Note_on_c, 0, 68, 85
1, 1639491, Control_c, 0, 64, 78
1, 1639503, Note_on_c, 0, 61, 0
1, 1639508, Control_c, 0, 64, 104
1, 1639514, Note_on_c, 0, 60, 0
1, 1639527, Control_c, 0, 64, 127
1, 1639572, Note_on_c, 0, 66, 83
1, 1639616, Note_on_c, 0, 68, 0
1, 1639622, Note_on_c, 0, 41, 0
1, 1639670, Note_on_c, 0, 58, 82
1, 1639674, Note_on_c, 0, 66, 0
1, 1639697, Note_on_c, 0, 29, 0
1, 1639757, Note_on_c, 0, 58, 0
1, 1639765, Note_on_c, 0, 56, 75
1, 1639798, Note_on_c, 0, 29, 65
1, 1639802, Note_on_c, 0, 41, 64
1, 1639852, Note_on_c, 0, 65, 80
1, 1639857, Note_on_c, 0, 41, 0
1, 1639877, Note_on_c, 0, 29, 0
1, 1639885, Note_on_c, 0, 56, 0
1, 1639960, Note_on_c, 0, 63, 86
1, 1639973, Control_c, 0, 64, 104
1, 1639973, Note_on_c, 0, 29, 74
1, 1639975, Note_on_c, 0, 41, 80
1, 1639988, Note_on_c, 0, 65, 0
1, 1639991, Control_c, 0, 64, 72
1, 1640010, Control_c, 0, 64, 68
1, 1640028, Control_c, 0, 64, 80
1, 1640054, Note_on_c, 0, 29, 0
1, 1640055, Control_c, 0, 64, 100
1, 1640057, Note_on_c, 0, 63, 0
1, 1640073, Control_c, 0, 64, 127
1, 1640075, Note_on_c, 0, 41, 0
1, 1640076, Note_on_c, 0, 54, 86
1, 1640116, Poly_aftertouch_c, 0, 36, 0
1, 1640171, Note_on_c, 0, 43, 89
1, 1640171, Note_on_c, 0, 31, 81
1, 1640181, Note_on_c, 0, 53, 76
1, 1640239, Note_on_c, 0, 31, 0
1, 1640240, Note_on_c, 0, 43, 0
1, 1640284, Note_on_c, 0, 61, 81
1, 1640305, Poly_aftertouch_c, 0, 33, 0
1, 1640331, Note_on_c, 0, 54, 0
1, 1640333, Control_c, 0, 64, 122
1, 1640338, Note_on_c, 0, 53, 0
1, 1640351, Note_on_c, 0, 45, 88
1, 1640352, Control_c, 0, 64, 97
1, 1640361, Note_on_c, 0, 60, 72
1, 1640370, Control_c, 0, 64, 68
1, 1640390, Control_c, 0, 64, 41
1, 1640409, Poly_aftertouch_c, 0, 33, 0
1, 1640409, Control_c, 0, 64, 30
1, 1640426, Note_on_c, 0, 45, 0
1, 1640427, Control_c, 0, 64, 19
1, 1640432, Note_on_c, 0, 61, 0
1, 1640456, Note_on_c, 0, 51, 83
1, 1640464, Control_c, 0, 64, 0
1, 1640525, Note_on_c, 0, 60, 0
1, 1640559, Note_on_c, 0, 46, 97
1, 1640559, Note_on_c, 0, 61, 89
1, 1640560, Note_on_c, 0, 53, 82
1, 1640564, Note_on_c, 0, 34, 82
1, 1640589, Note_on_c, 0, 51, 0
1, 1640639, Poly_aftertouch_c, 0, 38, 0
1, 1640667, Control_c, 0, 64, 27
1, 1640686, Control_c, 0, 64, 63
1, 1640705, Control_c, 0, 64, 92
1, 1640711, Note_on_c, 0, 53, 0
1, 1640722, Control_c, 0, 64, 127
1, 1640763, Note_on_c, 0, 61, 0
1, 1640766, Note_on_c, 0, 46, 0
1, 1640778, Note_on_c, 0, 34, 0
1, 1640919, Note_on_c, 0, 30, 86
1, 1640947, Control_c, 0, 64, 91
1, 1640964, Control_c, 0, 64, 68
1, 1640992, Control_c, 0, 64, 75
1, 1641012, Control_c, 0, 64, 89
1, 1641020, Note_on_c, 0, 73, 100
1, 1641029, Control_c, 0, 64, 110
1, 1641048, Control_c, 0, 64, 127
1, 1641140, Note_on_c, 0, 82, 91
1, 1641217, Note_on_c, 0, 83, 11
1, 1641291, Note_on_c, 0, 42, 103
1, 1641292, Note_on_c, 0, 80, 85
1, 1641293, Note_on_c, 0, 83, 0
1, 1641324, Note_on_c, 0, 73, 0
1, 1641363, Control_c, 0, 64, 92
1, 1641381, Note_on_c, 0, 82, 0
1, 1641381, Control_c, 0, 64, 48
1, 1641399, Control_c, 0, 64, 0
1, 1641421, Note_on_c, 0, 72, 78
1, 1641428, Note_on_c, 0, 80, 0
1, 1641492, Control_c, 0, 64, 26
1, 1641510, Control_c, 0, 64, 57
1, 1641529, Control_c, 0, 64, 91
1, 1641530, Note_on_c, 0, 70, 81
1, 1641545, Note_on_c, 0, 72, 0
1, 1641545, Control_c, 0, 64, 125
1, 1641634, Note_on_c, 0, 78, 78
1, 1641673, Note_on_c, 0, 70, 0
1, 1641708, Note_on_c, 0, 77, 72
1, 1641779, Note_on_c, 0, 78, 0
1, 1641791, Note_on_c, 0, 77, 0
1, 1641793, Poly_aftertouch_c, 0, 79, 0
1, 1641817, Note_on_c, 0, 68, 86
1, 1641913, Note_on_c, 0, 66, 83
1, 1641975, Note_on_c, 0, 68, 0
1, 1642015, Note_on_c, 0, 75, 85
1, 1642080, Note_on_c, 0, 66, 0
1, 1642121, Note_on_c, 0, 73, 85
1, 1642178, Note_on_c, 0, 75, 0
1, 1642205, Note_on_c, 0, 65, 80
1, 1642223, Note_on_c, 0, 42, 0
1, 1642230, Note_on_c, 0, 73, 0
1, 1642244, Note_on_c, 0, 30, 0
1, 1642297, Control_c, 0, 64, 114
1, 1642310, Note_on_c, 0, 63, 85
1, 1642314, Control_c, 0, 64, 92
1, 1642340, Note_on_c, 0, 30, 70
1, 1642343, Note_on_c, 0, 42, 74
1, 1642353, Poly_aftertouch_c, 0, 35, 0
1, 1642353, Control_c, 0, 64, 100
1, 1642357, Note_on_c, 0, 65, 0
1, 1642372, Control_c, 0, 64, 112
1, 1642389, Control_c, 0, 64, 127
1, 1642402, Note_on_c, 0, 72, 83
1, 1642421, Note_on_c, 0, 30, 0
1, 1642439, Note_on_c, 0, 42, 0
1, 1642523, Note_on_c, 0, 63, 0
1, 1642527, Note_on_c, 0, 70, 83
1, 1642529, Note_on_c, 0, 30, 67
1, 1642536, Note_on_c, 0, 42, 67
1, 1642556, Control_c, 0, 64, 104
1, 1642566, Note_on_c, 0, 72, 0
1, 1642575, Control_c, 0, 64, 60
1, 1642593, Control_c, 0, 64, 9
1, 1642628, Note_on_c, 0, 70, 0
1, 1642631, Control_c, 0, 64, 29
1, 1642635, Note_on_c, 0, 42, 0
1, 1642637, Note_on_c, 0, 61, 80
1, 1642642, Note_on_c, 0, 30, 0
1, 1642650, Control_c, 0, 64, 56
1, 1642666, Control_c, 0, 64, 89
1, 1642686, Control_c, 0, 64, 121
1, 1642704, Control_c, 0, 64, 127
1, 1642726, Note_on_c, 0, 44, 81
1, 1642727, Note_on_c, 0, 32, 67
1, 1642730, Note_on_c, 0, 60, 73
1, 1642741, Control_c, 0, 64, 109
1, 1642761, Control_c, 0, 64, 70
1, 1642779, Control_c, 0, 64, 40
1, 1642798, Control_c, 0, 64, 51
1, 1642800, Note_on_c, 0, 32, 0
1, 1642812, Note_on_c, 0, 44, 0
1, 1642817, Control_c, 0, 64, 72
1, 1642826, Note_on_c, 0, 61, 0
1, 1642835, Note_on_c, 0, 68, 86
1, 1642835, Control_c, 0, 64, 93
1, 1642861, Control_c, 0, 64, 123
1, 1642879, Control_c, 0, 64, 127
1, 1642933, Note_on_c, 0, 46, 79
1, 1642937, Note_on_c, 0, 34, 67
1, 1642939, Note_on_c, 0, 66, 81
1, 1642965, Note_on_c, 0, 60, 0
1, 1643003, Note_on_c, 0, 68, 0
1, 1643029, Note_on_c, 0, 58, 81
1, 1643073, Note_on_c, 0, 66, 0
1, 1643101, Note_on_c, 0, 46, 0
1, 1643156, Note_on_c, 0, 58, 0
1, 1643200, Note_on_c, 0, 35, 68
1, 1643205, Note_on_c, 0, 47, 69
1, 1643238, Note_on_c, 0, 34, 0
1, 1643262, Note_on_c, 0, 65, 84
1, 1643289, Control_c, 0, 64, 98
1, 1643308, Control_c, 0, 64, 62
1, 1643325, Control_c, 0, 64, 14
1, 1643344, Control_c, 0, 64, 0
1, 1643372, Note_on_c, 0, 56, 70
1, 1643418, Control_c, 0, 64, 18
1, 1643436, Control_c, 0, 64, 44
1, 1643455, Control_c, 0, 64, 68
1, 1643467, Note_on_c, 0, 56, 0
1, 1643470, Note_on_c, 0, 55, 72
1, 1643474, Control_c, 0, 64, 87
1, 1643493, Control_c, 0, 64, 104
1, 1643511, Control_c, 0, 64, 117
1, 1643529, Control_c, 0, 64, 123
1, 1643540, Note_on_c, 0, 65, 0
1, 1643548, Control_c, 0, 64, 127
1, 1643580, Note_on_c, 0, 64, 81
1, 1643621, Note_on_c, 0, 55, 0
1, 1643685, Note_on_c, 0, 65, 85
1, 1643693, Note_on_c, 0, 47, 0
1, 1643722, Note_on_c, 0, 64, 0
1, 1643800, Note_on_c, 0, 56, 74
1, 1643901, Note_on_c, 0, 56, 0
1, 1643907, Note_on_c, 0, 55, 75
1, 1643909, Control_c, 0, 64, 118
1, 1643913, Note_on_c, 0, 48, 59
1, 1643922, Note_on_c, 0, 36, 55
1, 1643928, Control_c, 0, 64, 93
1, 1643947, Control_c, 0, 64, 62
1, 1643955, Note_on_c, 0, 35, 0
1, 1643964, Control_c, 0, 64, 25
1, 1643982, Control_c, 0, 64, 13
1, 1644001, Control_c, 0, 64, 9
1, 1644023, Note_on_c, 0, 64, 78
1, 1644038, Note_on_c, 0, 65, 0
1, 1644057, Control_c, 0, 64, 13
1, 1644076, Control_c, 0, 64, 33
1, 1644095, Control_c, 0, 64, 51
1, 1644114, Control_c, 0, 64, 68
1, 1644123, Note_on_c, 0, 55, 0
1, 1644144, Note_on_c, 0, 65, 74
1, 1644150, Control_c, 0, 64, 61
1, 1644168, Control_c, 0, 64, 50
1, 1644185, Note_on_c, 0, 64, 0
1, 1644186, Control_c, 0, 64, 40
1, 1644205, Control_c, 0, 64, 27
1, 1644243, Control_c, 0, 64, 33
1, 1644257, Note_on_c, 0, 56, 65
1, 1644261, Control_c, 0, 64, 51
1, 1644280, Control_c, 0, 64, 71
1, 1644299, Control_c, 0, 64, 88
1, 1644318, Control_c, 0, 64, 106
1, 1644336, Control_c, 0, 64, 119
1, 1644352, Control_c, 0, 64, 125
1, 1644369, Note_on_c, 0, 55, 72
1, 1644371, Note_on_c, 0, 56, 0
1, 1644412, Note_on_c, 0, 48, 0
1, 1644496, Note_on_c, 0, 64, 81
1, 1644536, Note_on_c, 0, 65, 0
1, 1644638, Note_on_c, 0, 55, 0
1, 1644650, Control_c, 0, 67, 8
1, 1644657, Note_on_c, 0, 35, 38
1, 1644665, Note_on_c, 0, 47, 46
1, 1644743, Note_on_c, 0, 65, 68
1, 1644788, Control_c, 0, 67, 12
1, 1644807, Note_on_c, 0, 64, 0
1, 1644823, Note_on_c, 0, 36, 0
1, 1644825, Control_c, 0, 64, 110
1, 1644845, Control_c, 0, 64, 83
1, 1644847, Control_c, 0, 67, 16
1, 1644864, Control_c, 0, 64, 51
1, 1644867, Control_c, 0, 67, 20
1, 1644883, Control_c, 0, 64, 22
1, 1644884, Control_c, 0, 67, 25
1, 1644902, Control_c, 0, 67, 30
1, 1644917, Control_c, 0, 67, 35
1, 1644926, Note_on_c, 0, 56, 48
1, 1644937, Control_c, 0, 67, 39
1, 1644955, Control_c, 0, 67, 43
1, 1644975, Control_c, 0, 64, 37
1, 1644976, Control_c, 0, 67, 47
1, 1644992, Control_c, 0, 64, 54
1, 1645012, Control_c, 0, 64, 72
1, 1645014, Control_c, 0, 67, 54
1, 1645025, Note_on_c, 0, 47, 0
1, 1645030, Control_c, 0, 64, 85
1, 1645039, Note_on_c, 0, 56, 0
1, 1645048, Control_c, 0, 64, 98
1, 1645049, Control_c, 0, 67, 61
1, 1645067, Control_c, 0, 64, 107
1, 1645087, Note_on_c, 0, 55, 48
1, 1645087, Control_c, 0, 64, 115
1, 1645088, Control_c, 0, 67, 66
1, 1645105, Control_c, 0, 64, 121
1, 1645122, Control_c, 0, 64, 125
1, 1645123, Control_c, 0, 67, 72
1, 1645160, Control_c, 0, 67, 79
1, 1645196, Control_c, 0, 67, 86
1, 1645215, Control_c, 0, 67, 91
1, 1645233, Control_c, 0, 67, 97
1, 1645241, Note_on_c, 0, 64, 60
1, 1645242, Note_on_c, 0, 65, 0
1, 1645253, Control_c, 0, 67, 102
1, 1645271, Control_c, 0, 67, 106
1, 1645310, Control_c, 0, 67, 111
1, 1645347, Control_c, 0, 67, 115
1, 1645375, Note_on_c, 0, 55, 0
1, 1645381, Control_c, 0, 67, 120
1, 1645419, Control_c, 0, 67, 126
1, 1645430, Note_on_c, 0, 65, 60
1, 1645445, Note_on_c, 0, 36, 42
1, 1645447, Note_on_c, 0, 64, 0
1, 1645459, Note_on_c, 0, 48, 39
1, 1645548, Control_c, 0, 64, 106
1, 1645568, Control_c, 0, 64, 79
1, 1645574, Note_on_c, 0, 35, 0
1, 1645577, Note_on_c, 0, 56, 48
1, 1645588, Control_c, 0, 64, 47
1, 1645604, Control_c, 0, 64, 12
1, 1645622, Control_c, 0, 64, 0
1, 1645688, Control_c, 0, 64, 24
1, 1645707, Control_c, 0, 64, 47
1, 1645713, Note_on_c, 0, 56, 0
1, 1645726, Control_c, 0, 64, 72
1, 1645744, Control_c, 0, 64, 92
1, 1645755, Note_on_c, 0, 55, 50
1, 1645763, Control_c, 0, 64, 113
1, 1645780, Control_c, 0, 64, 126
1, 1645853, Note_on_c, 0, 55, 0
1, 1645918, Note_on_c, 0, 65, 0
1, 1645926, Note_on_c, 0, 64, 59
1, 1646058, Control_c, 0, 64, 101
1, 1646077, Control_c, 0, 64, 67
1, 1646091, Note_on_c, 0, 48, 0
1, 1646093, Control_c, 0, 64, 19
1, 1646114, Control_c, 0, 64, 0
1, 1646114, Note_on_c, 0, 41, 61
1, 1646118, Note_on_c, 0, 65, 72
1, 1646120, Note_on_c, 0, 64, 0
1, 1646122, Note_on_c, 0, 36, 0
1, 1646134, Note_on_c, 0, 53, 50
1, 1646146, Note_on_c, 0, 65, 0
1, 1646147, Note_on_c, 0, 41, 0
1, 1646172, Note_on_c, 0, 53, 0
1, 1646537, Note_on_c, 0, 54, 72
1, 1646540, Control_c, 0, 64, 22
1, 1646544, Note_on_c, 0, 42, 68
1, 1646559, Control_c, 0, 64, 35
1, 1646578, Control_c, 0, 64, 49
1, 1646604, Control_c, 0, 64, 68
1, 1646623, Control_c, 0, 64, 81
1, 1646641, Control_c, 0, 64, 93
1, 1646660, Control_c, 0, 64, 105
1, 1646678, Control_c, 0, 64, 116
1, 1646698, Control_c, 0, 64, 122
1, 1646716, Control_c, 0, 64, 127
1, 1646788, Note_on_c, 0, 65, 54
1, 1646790, Note_on_c, 0, 53, 52
1, 1646821, Note_on_c, 0, 53, 0
1, 1646826, Note_on_c, 0, 65, 0
1, 1646841, Note_on_c, 0, 54, 0
1, 1646848, Note_on_c, 0, 42, 0
1, 1646958, Control_c, 0, 64, 113
1, 1646974, Control_c, 0, 64, 93
1, 1646993, Control_c, 0, 64, 68
1, 1646994, Note_on_c, 0, 53, 66
1, 1647003, Note_on_c, 0, 41, 58
1, 1647009, Control_c, 0, 64, 44
1, 1647030, Note_on_c, 0, 53, 0
1, 1647030, Control_c, 0, 64, 29
1, 1647038, Note_on_c, 0, 41, 0
1, 1647068, Control_c, 0, 64, 25
1, 1647216, Note_on_c, 0, 51, 70
1, 1647228, Note_on_c, 0, 39, 61
1, 1647248, Note_on_c, 0, 51, 0
1, 1647260, Note_on_c, 0, 39, 0
1, 1647492, Note_on_c, 0, 65, 64
1, 1647493, Note_on_c, 0, 50, 77
1, 1647493, Note_on_c, 0, 53, 58
1, 1647505, Note_on_c, 0, 38, 67
1, 1647522, Note_on_c, 0, 50, 0
1, 1647522, Note_on_c, 0, 53, 0
1, 1647525, Note_on_c, 0, 65, 0
1, 1647542, Note_on_c, 0, 38, 0
1, 1647826, Note_on_c, 0, 48, 53
1, 1647833, Note_on_c, 0, 36, 50
1, 1647860, Note_on_c, 0, 48, 0
1, 1647877, Note_on_c, 0, 36, 0
1, 1647917, Note_on_c, 0, 46, 70
1, 1647930, Note_on_c, 0, 34, 64
1, 1647955, Note_on_c, 0, 46, 0
1, 1647963, Note_on_c, 0, 34, 0
1, 1648183, Note_on_c, 0, 53, 55
1, 1648184, Note_on_c, 0, 65, 61
1, 1648211, Note_on_c, 0, 65, 0
1, 1648215, Note_on_c, 0, 53, 0
1, 1648841, Note_on_c, 0, 36, 57
1, 1648842, Note_on_c, 0, 65, 51
1, 1648843, Note_on_c, 0, 48, 58
1, 1648843, Note_on_c, 0, 53, 45
1, 1648873, Note_on_c, 0, 65, 0
1, 1648875, Note_on_c, 0, 48, 0
1, 1648879, Note_on_c, 0, 36, 0
1, 1648883, Note_on_c, 0, 53, 0
1, 1649301, Note_on_c, 0, 49, 63
1, 1649308, Control_c, 0, 64, 35
1, 1649312, Note_on_c, 0, 37, 54
1, 1649328, Control_c, 0, 64, 47
1, 1649347, Control_c, 0, 64, 65
1, 1649367, Control_c, 0, 64, 76
1, 1649384, Control_c, 0, 64, 83
1, 1649411, Control_c, 0, 64, 89
1, 1649429, Control_c, 0, 64, 96
1, 1649449, Control_c, 0, 64, 102
1, 1649466, Control_c, 0, 64, 107
1, 1649534, Note_on_c, 0, 53, 54
1, 1649538, Note_on_c, 0, 65, 58
1, 1649568, Note_on_c, 0, 53, 0
1, 1649571, Note_on_c, 0, 65, 0
1, 1649613, Note_on_c, 0, 49, 0
1, 1649652, Control_c, 0, 64, 100
1, 1649670, Control_c, 0, 64, 93
1, 1649676, Note_on_c, 0, 37, 0
1, 1649689, Control_c, 0, 64, 84
1, 1649708, Control_c, 0, 64, 71
1, 1649727, Control_c, 0, 64, 56
1, 1649746, Control_c, 0, 64, 43
1, 1649753, Note_on_c, 0, 48, 64
1, 1649763, Control_c, 0, 64, 35
1, 1649764, Note_on_c, 0, 36, 49
1, 1649787, Note_on_c, 0, 48, 0
1, 1649800, Control_c, 0, 64, 30
1, 1649804, Note_on_c, 0, 36, 0
1, 1649856, Control_c, 0, 64, 26
1, 1649974, Note_on_c, 0, 46, 69
1, 1649983, Note_on_c, 0, 34, 58
1, 1650007, Note_on_c, 0, 46, 0
1, 1650018, Note_on_c, 0, 34, 0
1, 1650270, Note_on_c, 0, 65, 70
1, 1650270, Note_on_c, 0, 53, 63
1, 1650271, Note_on_c, 0, 45, 75
1, 1650283, Note_on_c, 0, 33, 65
1, 1650299, Note_on_c, 0, 65, 0
1, 1650301, Note_on_c, 0, 45, 0
1, 1650305, Note_on_c, 0, 53, 0
1, 1650314, Note_on_c, 0, 33, 0
1, 1650626, Note_on_c, 0, 43, 45
1, 1650634, Note_on_c, 0, 31, 48
1, 1650667, Note_on_c, 0, 43, 0
1, 1650679, Note_on_c, 0, 31, 0
1, 1650712, Note_on_c, 0, 41, 71
1, 1650731, Note_on_c, 0, 29, 48
1, 1650745, Note_on_c, 0, 41, 0
1, 1650779, Note_on_c, 0, 29, 0
1, 1650984, Note_on_c, 0, 53, 56
1, 1650986, Note_on_c, 0, 65, 60
1, 1651015, Note_on_c, 0, 53, 0
1, 1651015, Note_on_c, 0, 65, 0
1, 1651622, Note_on_c, 0, 53, 66
1, 1651623, Note_on_c, 0, 65, 65
1, 1651624, Note_on_c, 0, 45, 76
1, 1651634, Note_on_c, 0, 33, 64
1, 1651650, Note_on_c, 0, 65, 0
1, 1651655, Note_on_c, 0, 53, 0
1, 1651655, Note_on_c, 0, 45, 0
1, 1651670, Note_on_c, 0, 33, 0
1, 1651927, Note_on_c, 0, 43, 55
1, 1651945, Note_on_c, 0, 31, 45
1, 1651965, Note_on_c, 0, 43, 0
1, 1651994, Note_on_c, 0, 31, 0
1, 1652021, Note_on_c, 0, 41, 71
1, 1652028, Note_on_c, 0, 29, 62
1, 1652059, Note_on_c, 0, 41, 0
1, 1652070, Note_on_c, 0, 29, 0
1, 1652287, Note_on_c, 0, 53, 65
1, 1652312, Note_on_c, 0, 53, 0
1, 1653019, Note_on_c, 0, 53, 52
1, 1653030, Note_on_c, 0, 41, 44
1, 1653039, Note_on_c, 0, 29, 38
1, 1653051, Note_on_c, 0, 53, 0
1, 1653076, Note_on_c, 0, 41, 0
1, 1653084, Note_on_c, 0, 29, 0
1, 1653931, Note_on_c, 0, 53, 27
1, 1653983, Note_on_c, 0, 53, 0
1, 1654480, Control_c, 0, 64, 30
1, 1654517, Control_c, 0, 64, 36
1, 1654555, Control_c, 0, 64, 43
1, 1654573, Control_c, 0, 64, 51
1, 1654592, Control_c, 0, 64, 62
1, 1654611, Control_c, 0, 64, 66
1, 1654629, Control_c, 0, 64, 67
1, 1654649, Control_c, 0, 64, 71
1, 1654649, Control_c, 0, 67, 121
1, 1654666, Control_c, 0, 64, 76
1, 1654686, Control_c, 0, 64, 83
1, 1654687, Control_c, 0, 67, 116
1, 1654703, Control_c, 0, 64, 91
1, 1654705, Control_c, 0, 67, 110
1, 1654722, Control_c, 0, 64, 100
1, 1654723, Control_c, 0, 67, 102
1, 1654741, Control_c, 0, 64, 106
1, 1654743, Control_c, 0, 67, 90
1, 1654760, Control_c, 0, 64, 111
1, 1654761, Control_c, 0, 67, 77
1, 1654778, Control_c, 0, 64, 115
1, 1654779, Control_c, 0, 67, 62
1, 1654797, Control_c, 0, 64, 120
1, 1654799, Control_c, 0, 67, 47
1, 1654814, Control_c, 0, 64, 124
1, 1654816, Control_c, 0, 67, 31
1, 1654827, Note_on_c, 0, 41, 27
1, 1654833, Control_c, 0, 67, 17
1, 1654870, Control_c, 0, 67, 0
1, 1654907, Note_on_c, 0, 65, 24
1, 1654957, Note_on_c, 0, 41, 0
1, 1654960, Note_on_c, 0, 69, 35
1, 1655018, Note_on_c, 0, 72, 52
1, 1655207, Note_on_c, 0, 77, 77
1, 1655434, Control_c, 0, 67, 10
1, 1655434, Note_on_c, 0, 57, 42
1, 1655472, Control_c, 0, 67, 19
1, 1655491, Control_c, 0, 67, 27
1, 1655510, Control_c, 0, 67, 39
1, 1655529, Control_c, 0, 67, 50
1, 1655533, Note_on_c, 0, 57, 0
1, 1655548, Control_c, 0, 67, 58
1, 1655550, Note_on_c, 0, 60, 43
1, 1655565, Control_c, 0, 67, 65
1, 1655577, Note_on_c, 0, 69, 0
1, 1655585, Control_c, 0, 67, 72
1, 1655600, Control_c, 0, 67, 80
1, 1655615, Note_on_c, 0, 60, 0
1, 1655618, Control_c, 0, 67, 89
1, 1655636, Control_c, 0, 67, 97
1, 1655636, Note_on_c, 0, 57, 33
1, 1655656, Control_c, 0, 67, 104
1, 1655674, Control_c, 0, 67, 110
1, 1655694, Control_c, 0, 67, 114
1, 1655704, Note_on_c, 0, 57, 0
1, 1655731, Control_c, 0, 67, 120
1, 1655755, Note_on_c, 0, 60, 32
1, 1655769, Control_c, 0, 67, 125
1, 1655816, Note_on_c, 0, 60, 0
1, 1655830, Note_on_c, 0, 57, 47
1, 1655956, Note_on_c, 0, 57, 0
1, 1655971, Note_on_c, 0, 60, 40
1, 1656008, Note_on_c, 0, 69, 64
1, 1656089, Note_on_c, 0, 57, 34
1, 1656090, Note_on_c, 0, 60, 0
1, 1656143, Note_on_c, 0, 57, 0
1, 1656172, Note_on_c, 0, 60, 40
1, 1656211, Note_on_c, 0, 77, 0
1, 1656232, Note_on_c, 0, 60, 0
1, 1656243, Note_on_c, 0, 65, 0
1, 1656266, Note_on_c, 0, 57, 30
1, 1656337, Note_on_c, 0, 57, 0
1, 1656367, Note_on_c, 0, 60, 53
1, 1656415, Note_on_c, 0, 60, 0
1, 1656449, Note_on_c, 0, 57, 40
1, 1656618, Note_on_c, 0, 57, 0
1, 1656639, Note_on_c, 0, 45, 21
1, 1656739, Control_c, 0, 64, 92
1, 1656758, Control_c, 0, 64, 54
1, 1656776, Control_c, 0, 64, 14
1, 1656828, Note_on_c, 0, 76, 64
1, 1656832, Control_c, 0, 64, 22
1, 1656841, Note_on_c, 0, 64, 34
1, 1656851, Control_c, 0, 64, 38
1, 1656870, Control_c, 0, 64, 55
1, 1656890, Control_c, 0, 64, 76
1, 1656906, Note_on_c, 0, 45, 0
1, 1656916, Control_c, 0, 64, 95
1, 1656934, Control_c, 0, 64, 117
1, 1656952, Control_c, 0, 64, 127
1, 1656988, Note_on_c, 0, 57, 50
1, 1657102, Note_on_c, 0, 60, 45
1, 1657118, Control_c, 0, 67, 121
1, 1657155, Control_c, 0, 67, 116
1, 1657187, Note_on_c, 0, 57, 0
1, 1657187, Note_on_c, 0, 57, 31
1, 1657193, Control_c, 0, 67, 111
1, 1657207, Note_on_c, 0, 60, 0
1, 1657230, Control_c, 0, 67, 105
1, 1657250, Control_c, 0, 67, 97
1, 1657268, Control_c, 0, 67, 85
1, 1657271, Note_on_c, 0, 60, 47
1, 1657285, Control_c, 0, 67, 70
1, 1657304, Control_c, 0, 67, 53
1, 1657323, Control_c, 0, 67, 37
1, 1657341, Control_c, 0, 67, 21
1, 1657352, Note_on_c, 0, 60, 0
1, 1657360, Note_on_c, 0, 57, 0
1, 1657360, Note_on_c, 0, 57, 31
1, 1657379, Control_c, 0, 67, 0
1, 1657423, Note_on_c, 0, 57, 0
1, 1657443, Note_on_c, 0, 60, 47
1, 1657463, Note_on_c, 0, 69, 0
1, 1657499, Note_on_c, 0, 57, 49
1, 1657512, Note_on_c, 0, 72, 0
1, 1657516, Note_on_c, 0, 60, 0
1, 1657546, Note_on_c, 0, 76, 0
1, 1657579, Note_on_c, 0, 60, 39
1, 1657618, Note_on_c, 0, 64, 0
1, 1657642, Note_on_c, 0, 60, 0
1, 1657703, Note_on_c, 0, 60, 62
1, 1657710, Note_on_c, 0, 57, 0
1, 1657711, Poly_aftertouch_c, 0, 57, 0
1, 1657775, Note_on_c, 0, 60, 0
1, 1657801, Note_on_c, 0, 62, 55
1, 1657807, Poly_aftertouch_c, 0, 57, 0
1, 1657858, Note_on_c, 0, 65, 64
1, 1657917, Note_on_c, 0, 69, 64
1, 1657971, Note_on_c, 0, 38, 74
1, 1658019, Control_c, 0, 64, 91
1, 1658036, Control_c, 0, 64, 36
1, 1658055, Control_c, 0, 64, 0
1, 1658098, Note_on_c, 0, 74, 85
1, 1658129, Control_c, 0, 64, 38
1, 1658134, Note_on_c, 0, 38, 0
1, 1658149, Control_c, 0, 64, 75
1, 1658167, Control_c, 0, 64, 104
1, 1658185, Control_c, 0, 64, 127
1, 1658208, Note_on_c, 0, 65, 0
1, 1658227, Note_on_c, 0, 50, 57
1, 1658305, Note_on_c, 0, 50, 0
1, 1658326, Note_on_c, 0, 53, 52
1, 1658390, Note_on_c, 0, 53, 0
1, 1658401, Note_on_c, 0, 50, 55
1, 1658483, Note_on_c, 0, 50, 0
1, 1658516, Note_on_c, 0, 53, 54
1, 1658588, Note_on_c, 0, 53, 0
1, 1658602, Note_on_c, 0, 50, 48
1, 1658703, Note_on_c, 0, 50, 0
1, 1658730, Note_on_c, 0, 65, 70
1, 1658737, Note_on_c, 0, 53, 52
1, 1658779, Note_on_c, 0, 74, 0
1, 1658826, Note_on_c, 0, 53, 0
1, 1658840, Note_on_c, 0, 50, 42
1, 1658934, Note_on_c, 0, 53, 50
1, 1658945, Note_on_c, 0, 50, 0
1, 1658954, Control_c, 0, 67, 8
1, 1658970, Control_c, 0, 67, 13
1, 1658991, Control_c, 0, 67, 21
1, 1658999, Note_on_c, 0, 53, 0
1, 1659007, Control_c, 0, 67, 28
1, 1659018, Note_on_c, 0, 62, 0
1, 1659027, Control_c, 0, 67, 34
1, 1659033, Note_on_c, 0, 50, 16
1, 1659046, Control_c, 0, 67, 39
1, 1659064, Control_c, 0, 67, 45
1, 1659072, Note_on_c, 0, 50, 0
1, 1659081, Control_c, 0, 67, 52
1, 1659086, Note_on_c, 0, 53, 51
1, 1659101, Control_c, 0, 67, 59
1, 1659119, Control_c, 0, 67, 68
1, 1659138, Control_c, 0, 67, 75
1, 1659143, Note_on_c, 0, 53, 0
1, 1659156, Note_on_c, 0, 50, 57
1, 1659156, Control_c, 0, 67, 82
1, 1659175, Control_c, 0, 67, 88
1, 1659195, Control_c, 0, 67, 95
1, 1659213, Control_c, 0, 67, 104
1, 1659232, Control_c, 0, 67, 113
1, 1659250, Control_c, 0, 67, 119
1, 1659268, Control_c, 0, 67, 125
1, 1659326, Note_on_c, 0, 41, 50
1, 1659342, Note_on_c, 0, 50, 0
1, 1659453, Control_c, 0, 64, 92
1, 1659473, Control_c, 0, 64, 45
1, 1659492, Control_c, 0, 64, 0
1, 1659527, Note_on_c, 0, 72, 71
1, 1659533, Note_on_c, 0, 60, 44
1, 1659571, Note_on_c, 0, 41, 0
1, 1659584, Control_c, 0, 64, 23
1, 1659602, Control_c, 0, 64, 53
1, 1659620, Control_c, 0, 64, 83
1, 1659640, Control_c, 0, 64, 107
1, 1659658, Control_c, 0, 64, 127
1, 1659694, Note_on_c, 0, 53, 45
1, 1659764, Note_on_c, 0, 53, 0
1, 1659785, Note_on_c, 0, 57, 57
1, 1659797, Control_c, 0, 67, 120
1, 1659834, Control_c, 0, 67, 113
1, 1659850, Note_on_c, 0, 57, 0
1, 1659852, Control_c, 0, 67, 107
1, 1659870, Control_c, 0, 67, 97
1, 1659873, Note_on_c, 0, 53, 45
1, 1659890, Control_c, 0, 67, 81
1, 1659906, Control_c, 0, 67, 63
1, 1659926, Control_c, 0, 67, 45
1, 1659944, Control_c, 0, 67, 29
1, 1659958, Note_on_c, 0, 57, 52
1, 1659962, Control_c, 0, 67, 14
1, 1659971, Note_on_c, 0, 53, 0
1, 1660000, Control_c, 0, 67, 0
1, 1660025, Note_on_c, 0, 57, 0
1, 1660037, Note_on_c, 0, 53, 45
1, 1660120, Note_on_c, 0, 53, 0
1, 1660123, Note_on_c, 0, 57, 52
1, 1660190, Note_on_c, 0, 57, 0
1, 1660197, Note_on_c, 0, 53, 47
1, 1660252, Note_on_c, 0, 60, 0
1, 1660273, Note_on_c, 0, 53, 0
1, 1660300, Note_on_c, 0, 57, 33
1, 1660316, Note_on_c, 0, 65, 0
1, 1660345, Note_on_c, 0, 57, 0
1, 1660373, Note_on_c, 0, 53, 22
1, 1660378, Note_on_c, 0, 69, 0
1, 1660394, Note_on_c, 0, 53, 0
1, 1660420, Note_on_c, 0, 57, 56
1, 1660507, Note_on_c, 0, 53, 63
1, 1660510, Note_on_c, 0, 57, 0
1, 1660632, Control_c, 0, 64, 109
1, 1660645, Note_on_c, 0, 53, 0
1, 1660647, Note_on_c, 0, 43, 55
1, 1660657, Control_c, 0, 64, 69
1, 1660676, Control_c, 0, 64, 23
1, 1660695, Control_c, 0, 64, 10
1, 1660732, Control_c, 0, 64, 29
1, 1660732, Note_on_c, 0, 70, 73
1, 1660742, Note_on_c, 0, 43, 0
1, 1660745, Note_on_c, 0, 62, 45
1, 1660751, Control_c, 0, 64, 49
1, 1660754, Note_on_c, 0, 65, 35
1, 1660768, Control_c, 0, 64, 73
1, 1660787, Control_c, 0, 64, 97
1, 1660805, Control_c, 0, 64, 127
1, 1660816, Note_on_c, 0, 55, 65
1, 1660906, Note_on_c, 0, 55, 0
1, 1660930, Note_on_c, 0, 58, 68
1, 1660960, Note_on_c, 0, 62, 0
1, 1660964, Note_on_c, 0, 58, 0
1, 1660970, Note_on_c, 0, 72, 0
1, 1660975, Note_on_c, 0, 55, 58
1, 1661035, Note_on_c, 0, 55, 0
1, 1661040, Note_on_c, 0, 70, 0
1, 1661047, Note_on_c, 0, 65, 0
1, 1661056, Note_on_c, 0, 58, 71
1, 1661120, Note_on_c, 0, 58, 0
1, 1661136, Note_on_c, 0, 55, 68
1, 1661241, Note_on_c, 0, 45, 70
1, 1661245, Note_on_c, 0, 55, 0
1, 1661267, Control_c, 0, 64, 89
1, 1661268, Note_on_c, 0, 70, 84
1, 1661282, Note_on_c, 0, 62, 67
1, 1661282, Note_on_c, 0, 65, 65
1, 1661286, Control_c, 0, 64, 42
1, 1661307, Control_c, 0, 64, 28
1, 1661316, Note_on_c, 0, 45, 0
1, 1661325, Control_c, 0, 64, 39
1, 1661344, Control_c, 0, 64, 59
1, 1661364, Control_c, 0, 64, 87
1, 1661370, Note_on_c, 0, 62, 0
1, 1661383, Control_c, 0, 64, 119
1, 1661383, Note_on_c, 0, 57, 74
1, 1661392, Note_on_c, 0, 65, 0
1, 1661398, Control_c, 0, 64, 127
1, 1661445, Note_on_c, 0, 57, 0
1, 1661464, Note_on_c, 0, 60, 69
1, 1661529, Note_on_c, 0, 57, 65
1, 1661537, Note_on_c, 0, 60, 0
1, 1661610, Note_on_c, 0, 57, 0
1, 1661632, Note_on_c, 0, 60, 71
1, 1661652, Note_on_c, 0, 69, 85
1, 1661679, Note_on_c, 0, 57, 57
1, 1661703, Note_on_c, 0, 60, 0
1, 1661760, Note_on_c, 0, 57, 0
1, 1661774, Note_on_c, 0, 69, 0
1, 1661813, Note_on_c, 0, 46, 65
1, 1661885, Note_on_c, 0, 69, 80
1, 1661890, Control_c, 0, 64, 115
1, 1661906, Note_on_c, 0, 65, 66
1, 1661909, Control_c, 0, 64, 70
1, 1661927, Control_c, 0, 64, 0
1, 1661947, Note_on_c, 0, 46, 0
1, 1661966, Note_on_c, 0, 70, 0
1, 1661975, Note_on_c, 0, 58, 70
1, 1662020, Control_c, 0, 64, 34
1, 1662038, Control_c, 0, 64, 66
1, 1662053, Note_on_c, 0, 58, 0
1, 1662056, Control_c, 0, 64, 99
1, 1662066, Note_on_c, 0, 62, 62
1, 1662074, Control_c, 0, 64, 127
1, 1662136, Note_on_c, 0, 65, 0
1, 1662136, Note_on_c, 0, 58, 65
1, 1662143, Note_on_c, 0, 62, 0
1, 1662225, Note_on_c, 0, 58, 0
1, 1662243, Note_on_c, 0, 69, 0
1, 1662243, Note_on_c, 0, 67, 81
1, 1662258, Note_on_c, 0, 62, 67
1, 1662272, Note_on_c, 0, 67, 0
1, 1662338, Note_on_c, 0, 67, 84
1, 1662370, Note_on_c, 0, 62, 0
1, 1662375, Note_on_c, 0, 58, 61
1, 1662471, Note_on_c, 0, 58, 0
1, 1662503, Note_on_c, 0, 62, 56
1, 1662621, Note_on_c, 0, 79, 82
1, 1662657, Note_on_c, 0, 62, 0
1, 1662661, Note_on_c, 0, 58, 63
1, 1662734, Note_on_c, 0, 58, 0
1, 1662767, Note_on_c, 0, 62, 58
1, 1662837, Note_on_c, 0, 58, 63
1, 1662838, Note_on_c, 0, 62, 0
1, 1662886, Note_on_c, 0, 58, 0
1, 1662930, Note_on_c, 0, 62, 64
1, 1663002, Note_on_c, 0, 77, 83
1, 1663015, Note_on_c, 0, 58, 60
1, 1663053, Note_on_c, 0, 62, 0
1, 1663075, Note_on_c, 0, 79, 0
1, 1663093, Note_on_c, 0, 67, 0
1, 1663146, Note_on_c, 0, 58, 0
1, 1663151, Note_on_c, 0, 77, 0
1, 1663174, Note_on_c, 0, 47, 63
1, 1663216, Control_c, 0, 64, 118
1, 1663229, Note_on_c, 0, 77, 81
1, 1663235, Control_c, 0, 64, 74
1, 1663252, Control_c, 0, 64, 26
1, 1663253, Note_on_c, 0, 67, 60
1, 1663255, Note_on_c, 0, 74, 60
1, 1663270, Control_c, 0, 64, 17
1, 1663277, Note_on_c, 0, 47, 0
1, 1663287, Control_c, 0, 64, 25
1, 1663307, Control_c, 0, 64, 44
1, 1663316, Note_on_c, 0, 59, 68
1, 1663326, Control_c, 0, 64, 70
1, 1663345, Control_c, 0, 64, 96
1, 1663362, Control_c, 0, 64, 127
1, 1663394, Note_on_c, 0, 59, 0
1, 1663416, Note_on_c, 0, 62, 67
1, 1663490, Note_on_c, 0, 62, 0
1, 1663491, Note_on_c, 0, 59, 61
1, 1663536, Note_on_c, 0, 67, 0
1, 1663538, Note_on_c, 0, 59, 0
1, 1663567, Note_on_c, 0, 62, 73
1, 1663637, Note_on_c, 0, 62, 0
1, 1663646, Note_on_c, 0, 59, 78
1, 1663667, Control_c, 0, 64, 123
1, 1663687, Control_c, 0, 64, 74
1, 1663706, Control_c, 0, 64, 0
1, 1663717, Note_on_c, 0, 59, 0
1, 1663717, Note_on_c, 0, 48, 75
1, 1663760, Control_c, 0, 64, 27
1, 1663761, Note_on_c, 0, 72, 87
1, 1663778, Control_c, 0, 64, 58
1, 1663788, Note_on_c, 0, 48, 0
1, 1663797, Control_c, 0, 64, 96
1, 1663800, Note_on_c, 0, 74, 0
1, 1663816, Control_c, 0, 64, 127
1, 1663855, Note_on_c, 0, 60, 79
1, 1663929, Note_on_c, 0, 72, 0
1, 1663942, Note_on_c, 0, 60, 0
1, 1663960, Note_on_c, 0, 65, 65
1, 1664019, Note_on_c, 0, 65, 0
1, 1664038, Note_on_c, 0, 60, 54
1, 1664052, Note_on_c, 0, 72, 84
1, 1664075, Note_on_c, 0, 72, 0
1, 1664086, Note_on_c, 0, 60, 0
1, 1664104, Note_on_c, 0, 65, 69
1, 1664159, Note_on_c, 0, 72, 84
1, 1664168, Note_on_c, 0, 65, 0
1, 1664183, Note_on_c, 0, 60, 72
1, 1664207, Note_on_c, 0, 72, 0
1, 1664227, Poly_aftertouch_c, 0, 64, 0
1, 1664236, Note_on_c, 0, 74, 85
1, 1664252, Note_on_c, 0, 50, 75
1, 1664254, Note_on_c, 0, 60, 0
1, 1664269, Note_on_c, 0, 72, 74
1, 1664279, Control_c, 0, 64, 79
1, 1664298, Control_c, 0, 64, 0
1, 1664317, Note_on_c, 0, 50, 0
1, 1664338, Note_on_c, 0, 74, 0
1, 1664378, Note_on_c, 0, 62, 72
1, 1664418, Control_c, 0, 64, 42
1, 1664437, Control_c, 0, 64, 84
1, 1664456, Control_c, 0, 64, 123
1, 1664470, Note_on_c, 0, 62, 0
1, 1664474, Control_c, 0, 64, 127
1, 1664485, Note_on_c, 0, 65, 69
1, 1664573, Note_on_c, 0, 77, 0
1, 1664575, Note_on_c, 0, 62, 80
1, 1664581, Note_on_c, 0, 65, 0
1, 1664605, Note_on_c, 0, 72, 0
1, 1664607, Note_on_c, 0, 71, 85
1, 1664636, Note_on_c, 0, 71, 0
1, 1664685, Note_on_c, 0, 62, 0
1, 1664688, Note_on_c, 0, 71, 83
1, 1664690, Note_on_c, 0, 65, 69
1, 1664824, Note_on_c, 0, 62, 66
1, 1664871, Note_on_c, 0, 65, 0
1, 1664894, Note_on_c, 0, 71, 0
1, 1664933, Note_on_c, 0, 86, 93
1, 1664965, Note_on_c, 0, 62, 0
1, 1664976, Note_on_c, 0, 65, 45
1, 1665077, Note_on_c, 0, 65, 0
1, 1665084, Note_on_c, 0, 62, 64
1, 1665153, Note_on_c, 0, 62, 0
1, 1665172, Note_on_c, 0, 65, 64
1, 1665257, Note_on_c, 0, 65, 0
1, 1665274, Note_on_c, 0, 62, 23
1, 1665300, Note_on_c, 0, 65, 50
1, 1665365, Note_on_c, 0, 84, 86
1, 1665378, Note_on_c, 0, 62, 0
1, 1665378, Note_on_c, 0, 62, 48
1, 1665431, Note_on_c, 0, 86, 0
1, 1665449, Note_on_c, 0, 65, 0
1, 1665518, Note_on_c, 0, 84, 0
1, 1665617, Note_on_c, 0, 52, 52
1, 1665681, Note_on_c, 0, 62, 0
1, 1665723, Note_on_c, 0, 84, 85
1, 1665741, Note_on_c, 0, 79, 64
1, 1665742, Control_c, 0, 64, 111
1, 1665749, Note_on_c, 0, 70, 68
1, 1665763, Control_c, 0, 64, 75
1, 1665781, Control_c, 0, 64, 44
1, 1665815, Note_on_c, 0, 52, 0
1, 1665817, Control_c, 0, 64, 57
1, 1665833, Control_c, 0, 64, 78
1, 1665841, Note_on_c, 0, 64, 64
1, 1665854, Control_c, 0, 64, 104
1, 1665872, Control_c, 0, 64, 127
1, 1665949, Note_on_c, 0, 64, 0
1, 1665962, Note_on_c, 0, 67, 58
1, 1665978, Note_on_c, 0, 79, 0
1, 1666019, Note_on_c, 0, 67, 0
1, 1666019, Note_on_c, 0, 64, 59
1, 1666097, Note_on_c, 0, 64, 0
1, 1666102, Note_on_c, 0, 67, 66
1, 1666169, Note_on_c, 0, 67, 0
1, 1666174, Note_on_c, 0, 64, 63
1, 1666264, Note_on_c, 0, 64, 0
1, 1666268, Note_on_c, 0, 53, 63
1, 1666270, Control_c, 0, 64, 101
1, 1666289, Control_c, 0, 64, 53
1, 1666309, Control_c, 0, 64, 0
1, 1666314, Note_on_c, 0, 77, 82
1, 1666364, Control_c, 0, 64, 38
1, 1666384, Control_c, 0, 64, 70
1, 1666390, Note_on_c, 0, 84, 0
1, 1666400, Control_c, 0, 64, 99
1, 1666409, Note_on_c, 0, 62, 74
1, 1666418, Control_c, 0, 64, 127
1, 1666501, Note_on_c, 0, 62, 0
1, 1666511, Note_on_c, 0, 65, 70
1, 1666517, Note_on_c, 0, 77, 0
1, 1666584, Note_on_c, 0, 65, 0
1, 1666599, Note_on_c, 0, 62, 51
1, 1666650, Note_on_c, 0, 77, 87
1, 1666669, Note_on_c, 0, 65, 61
1, 1666680, Note_on_c, 0, 53, 0
1, 1666722, Note_on_c, 0, 62, 0
1, 1666722, Note_on_c, 0, 62, 47
1, 1666742, Note_on_c, 0, 70, 0
1, 1666747, Note_on_c, 0, 65, 0
1, 1666817, Note_on_c, 0, 77, 0
1, 1666850, Note_on_c, 0, 55, 58
1, 1666859, Note_on_c, 0, 62, 0
1, 1666885, Note_on_c, 0, 77, 77
1, 1666901, Note_on_c, 0, 70, 65
1, 1666939, Note_on_c, 0, 60, 64
1, 1666939, Control_c, 0, 64, 98
1, 1666958, Control_c, 0, 64, 51
1, 1666976, Control_c, 0, 64, 0
1, 1667043, Note_on_c, 0, 60, 0
1, 1667048, Control_c, 0, 64, 31
1, 1667049, Note_on_c, 0, 64, 59
1, 1667068, Control_c, 0, 64, 60
1, 1667087, Control_c, 0, 64, 88
1, 1667105, Control_c, 0, 64, 111
1, 1667122, Note_on_c, 0, 60, 50
1, 1667123, Control_c, 0, 64, 127
1, 1667127, Note_on_c, 0, 64, 0
1, 1667235, Note_on_c, 0, 60, 0
1, 1667262, Note_on_c, 0, 64, 59
1, 1667276, Note_on_c, 0, 76, 82
1, 1667305, Note_on_c, 0, 60, 59
1, 1667318, Note_on_c, 0, 55, 0
1, 1667321, Note_on_c, 0, 77, 0
1, 1667370, Note_on_c, 0, 64, 0
1, 1667397, Note_on_c, 0, 60, 0
1, 1667458, Note_on_c, 0, 53, 53
1, 1667484, Control_c, 0, 64, 92
1, 1667504, Control_c, 0, 64, 46
1, 1667521, Control_c, 0, 64, 0
1, 1667543, Note_on_c, 0, 79, 80
1, 1667584, Note_on_c, 0, 76, 0
1, 1667597, Control_c, 0, 64, 36
1, 1667613, Note_on_c, 0, 58, 55
1, 1667616, Control_c, 0, 64, 67
1, 1667633, Control_c, 0, 64, 94
1, 1667652, Control_c, 0, 64, 120
1, 1667670, Control_c, 0, 64, 127
1, 1667689, Note_on_c, 0, 79, 0
1, 1667693, Note_on_c, 0, 58, 0
1, 1667732, Note_on_c, 0, 62, 55
1, 1667790, Note_on_c, 0, 70, 0
1, 1667818, Note_on_c, 0, 62, 0
1, 1667837, Note_on_c, 0, 58, 24
1, 1667943, Note_on_c, 0, 74, 77
1, 1667950, Note_on_c, 0, 53, 0
1, 1667954, Note_on_c, 0, 58, 0
1, 1667954, Note_on_c, 0, 58, 33
1, 1667964, Note_on_c, 0, 70, 52
1, 1667994, Note_on_c, 0, 67, 45
1, 1668015, Poly_aftertouch_c, 0, 62, 0
1, 1668027, Note_on_c, 0, 58, 0
1, 1668095, Control_c, 0, 64, 115
1, 1668114, Control_c, 0, 64, 74
1, 1668140, Control_c, 0, 64, 16
1, 1668142, Note_on_c, 0, 52, 45
1, 1668160, Control_c, 0, 64, 0
1, 1668188, Note_on_c, 0, 58, 53
1, 1668198, Control_c, 0, 64, 14
1, 1668217, Control_c, 0, 64, 40
1, 1668235, Control_c, 0, 64, 66
1, 1668242, Note_on_c, 0, 58, 0
1, 1668255, Control_c, 0, 64, 87
1, 1668272, Control_c, 0, 64, 107
1, 1668282, Note_on_c, 0, 60, 61
1, 1668290, Control_c, 0, 64, 120
1, 1668308, Control_c, 0, 64, 126
1, 1668328, Control_c, 0, 67, 8
1, 1668347, Note_on_c, 0, 58, 65
1, 1668348, Note_on_c, 0, 60, 0
1, 1668422, Note_on_c, 0, 58, 0
1, 1668459, Note_on_c, 0, 60, 51
1, 1668475, Control_c, 0, 67, 12
1, 1668512, Control_c, 0, 67, 18
1, 1668520, Note_on_c, 0, 60, 0
1, 1668521, Note_on_c, 0, 72, 73
1, 1668532, Note_on_c, 0, 58, 47
1, 1668573, Note_on_c, 0, 52, 0
1, 1668587, Control_c, 0, 67, 22
1, 1668621, Note_on_c, 0, 67, 0
1, 1668694, Note_on_c, 0, 70, 0
1, 1668721, Note_on_c, 0, 50, 42
1, 1668737, Control_c, 0, 67, 27
1, 1668741, Note_on_c, 0, 58, 0
1, 1668773, Control_c, 0, 67, 34
1, 1668811, Control_c, 0, 67, 39
1, 1668827, Control_c, 0, 64, 121
1, 1668847, Control_c, 0, 64, 98
1, 1668848, Control_c, 0, 67, 46
1, 1668864, Control_c, 0, 64, 66
1, 1668866, Control_c, 0, 67, 51
1, 1668867, Note_on_c, 0, 77, 69
1, 1668884, Control_c, 0, 64, 22
1, 1668885, Control_c, 0, 67, 55
1, 1668898, Note_on_c, 0, 65, 41
1, 1668902, Control_c, 0, 64, 0
1, 1668903, Control_c, 0, 67, 60
1, 1668920, Control_c, 0, 67, 65
1, 1668923, Note_on_c, 0, 72, 0
1, 1668930, Note_on_c, 0, 74, 0
1, 1668958, Control_c, 0, 67, 72
1, 1668977, Control_c, 0, 67, 77
1, 1668994, Note_on_c, 0, 58, 49
1, 1668996, Control_c, 0, 64, 38
1, 1668997, Control_c, 0, 67, 84
1, 1669013, Control_c, 0, 64, 65
1, 1669014, Control_c, 0, 67, 92
1, 1669032, Control_c, 0, 64, 86
1, 1669035, Control_c, 0, 67, 101
1, 1669049, Control_c, 0, 64, 102
1, 1669052, Control_c, 0, 67, 109
1, 1669055, Note_on_c, 0, 58, 0
1, 1669077, Control_c, 0, 64, 112
1, 1669079, Control_c, 0, 67, 115
1, 1669096, Control_c, 0, 64, 118
1, 1669106, Note_on_c, 0, 62, 47
1, 1669115, Control_c, 0, 67, 123
1, 1669134, Control_c, 0, 64, 124
1, 1669135, Control_c, 0, 67, 127
1, 1669166, Note_on_c, 0, 62, 0
1, 1669194, Note_on_c, 0, 58, 49
1, 1669237, Note_on_c, 0, 58, 0
1, 1669300, Note_on_c, 0, 62, 45
1, 1669330, Poly_aftertouch_c, 0, 50, 24
1, 1669354, Note_on_c, 0, 62, 0
1, 1669362, Note_on_c, 0, 50, 0
1, 1669362, Poly_aftertouch_c, 0, 50, 0
1, 1669370, Note_on_c, 0, 58, 43
1, 1669403, Note_on_c, 0, 70, 66
1, 1669416, Note_on_c, 0, 77, 0
1, 1669529, Note_on_c, 0, 58, 0
1, 1669559, Control_c, 0, 64, 120
1, 1669567, Note_on_c, 0, 48, 44
1, 1669577, Control_c, 0, 64, 93
1, 1669597, Control_c, 0, 64, 57
1, 1669615, Control_c, 0, 64, 29
1, 1669650, Control_c, 0, 64, 42
1, 1669656, Note_on_c, 0, 57, 47
1, 1669671, Control_c, 0, 64, 59
1, 1669690, Control_c, 0, 64, 78
1, 1669708, Control_c, 0, 64, 95
1, 1669715, Note_on_c, 0, 57, 0
1, 1669726, Control_c, 0, 64, 115
1, 1669744, Control_c, 0, 64, 127
1, 1669748, Note_on_c, 0, 60, 52
1, 1669797, Note_on_c, 0, 60, 0
1, 1669827, Note_on_c, 0, 57, 47
1, 1669881, Note_on_c, 0, 57, 0
1, 1669906, Poly_aftertouch_c, 0, 48, 20
1, 1669920, Note_on_c, 0, 60, 47
1, 1669970, Note_on_c, 0, 60, 0
1, 1669982, Note_on_c, 0, 69, 71
1, 1670006, Note_on_c, 0, 48, 0
1, 1670006, Poly_aftertouch_c, 0, 48, 0
1, 1670014, Note_on_c, 0, 57, 54
1, 1670077, Note_on_c, 0, 65, 0
1, 1670146, Note_on_c, 0, 57, 0
1, 1670181, Note_on_c, 0, 48, 42
1, 1670332, Note_on_c, 0, 74, 65
1, 1670340, Poly_aftertouch_c, 0, 70, 24
1, 1670351, Note_on_c, 0, 65, 37
1, 1670363, Note_on_c, 0, 55, 45
1, 1670367, Note_on_c, 0, 67, 40
1, 1670403, Control_c, 0, 64, 102
1, 1670408, Note_on_c, 0, 70, 0
1, 1670408, Poly_aftertouch_c, 0, 70, 0
1, 1670421, Control_c, 0, 64, 73
1, 1670427, Note_on_c, 0, 69, 0
1, 1670440, Control_c, 0, 64, 39
1, 1670459, Control_c, 0, 64, 0
1, 1670483, Note_on_c, 0, 55, 0
1, 1670522, Note_on_c, 0, 59, 37
1, 1670532, Control_c, 0, 64, 16
1, 1670552, Control_c, 0, 64, 40
1, 1670569, Control_c, 0, 64, 65
1, 1670575, Note_on_c, 0, 59, 0
1, 1670588, Control_c, 0, 64, 85
1, 1670593, Note_on_c, 0, 55, 43
1, 1670606, Control_c, 0, 64, 102
1, 1670626, Control_c, 0, 64, 115
1, 1670643, Control_c, 0, 64, 121
1, 1670658, Note_on_c, 0, 55, 0
1, 1670662, Control_c, 0, 64, 125
1, 1670694, Note_on_c, 0, 59, 46
1, 1670697, Note_on_c, 0, 67, 0
1, 1670758, Note_on_c, 0, 59, 0
1, 1670792, Note_on_c, 0, 55, 45
1, 1670822, Note_on_c, 0, 48, 0
1, 1670874, Note_on_c, 0, 55, 0
1, 1670963, Note_on_c, 0, 48, 44
1, 1671023, Control_c, 0, 64, 118
1, 1671042, Control_c, 0, 64, 89
1, 1671061, Control_c, 0, 64, 52
1, 1671077, Control_c, 0, 64, 13
1, 1671085, Note_on_c, 0, 55, 21
1, 1671134, Control_c, 0, 64, 34
1, 1671153, Control_c, 0, 64, 52
1, 1671171, Control_c, 0, 64, 73
1, 1671191, Control_c, 0, 64, 91
1, 1671210, Control_c, 0, 64, 111
1, 1671214, Note_on_c, 0, 58, 33
1, 1671227, Control_c, 0, 64, 123
1, 1671239, Note_on_c, 0, 55, 0
1, 1671247, Control_c, 0, 64, 127
1, 1671295, Note_on_c, 0, 58, 0
1, 1671302, Note_on_c, 0, 55, 29
1, 1671457, Note_on_c, 0, 67, 43
1, 1671471, Note_on_c, 0, 58, 29
1, 1671501, Note_on_c, 0, 55, 0
1, 1671508, Note_on_c, 0, 65, 0
1, 1671552, Note_on_c, 0, 58, 0
1, 1671563, Note_on_c, 0, 55, 31
1, 1671732, Note_on_c, 0, 58, 35
1, 1671752, Note_on_c, 0, 55, 0
1, 1671758, Note_on_c, 0, 72, 53
1, 1671764, Note_on_c, 0, 64, 35
1, 1671802, Control_c, 0, 64, 94
1, 1671819, Control_c, 0, 64, 59
1, 1671832, Note_on_c, 0, 58, 0
1, 1671837, Control_c, 0, 64, 43
1, 1671855, Control_c, 0, 64, 47
1, 1671866, Note_on_c, 0, 55, 43
1, 1671883, Control_c, 0, 64, 57
1, 1671899, Note_on_c, 0, 67, 0
1, 1671902, Note_on_c, 0, 74, 0
1, 1671902, Control_c, 0, 64, 71
1, 1671922, Control_c, 0, 64, 91
1, 1671941, Control_c, 0, 64, 118
1, 1671953, Note_on_c, 0, 55, 0
1, 1671958, Control_c, 0, 64, 127
1, 1671997, Note_on_c, 0, 58, 49
1, 1672048, Note_on_c, 0, 58, 0
1, 1672060, Note_on_c, 0, 64, 0
1, 1672068, Control_c, 0, 67, 121
1, 1672086, Note_on_c, 0, 55, 45
1, 1672107, Control_c, 0, 67, 117
1, 1672118, Note_on_c, 0, 72, 0
1, 1672133, Note_on_c, 0, 55, 0
1, 1672146, Control_c, 0, 67, 112
1, 1672163, Control_c, 0, 67, 107
1, 1672180, Control_c, 0, 67, 99
1, 1672182, Note_on_c, 0, 58, 51
1, 1672199, Control_c, 0, 67, 86
1, 1672217, Control_c, 0, 67, 70
1, 1672219, Note_on_c, 0, 48, 0
1, 1672232, Note_on_c, 0, 58, 0
1, 1672235, Control_c, 0, 67, 51
1, 1672254, Control_c, 0, 67, 31
1, 1672260, Note_on_c, 0, 65, 39
1, 1672274, Control_c, 0, 67, 12
1, 1672292, Control_c, 0, 67, 0
1, 1672331, Note_on_c, 0, 69, 42
1, 1672415, Note_on_c, 0, 72, 54
1, 1672513, Note_on_c, 0, 41, 63
1, 1672553, Control_c, 0, 64, 87
1, 1672570, Control_c, 0, 64, 41
1, 1672587, Control_c, 0, 64, 0
1, 1672625, Control_c, 0, 64, 22
1, 1672645, Control_c, 0, 64, 46
1, 1672662, Control_c, 0, 64, 69
1, 1672682, Control_c, 0, 64, 92
1, 1672700, Control_c, 0, 64, 117
1, 1672719, Control_c, 0, 64, 127
1, 1672757, Note_on_c, 0, 41, 0
1, 1672763, Note_on_c, 0, 77, 84
1, 1672963, Note_on_c, 0, 57, 54
1, 1673012, Note_on_c, 0, 57, 0
1, 1673021, Note_on_c, 0, 69, 0
1, 1673075, Note_on_c, 0, 60, 33
1, 1673099, Control_c, 0, 67, 10
1, 1673117, Control_c, 0, 67, 17
1, 1673126, Note_on_c, 0, 60, 0
1, 1673133, Control_c, 0, 67, 30
1, 1673142, Note_on_c, 0, 57, 43
1, 1673153, Control_c, 0, 67, 48
1, 1673172, Control_c, 0, 67, 66
1, 1673190, Control_c, 0, 67, 81
1, 1673210, Control_c, 0, 67, 92
1, 1673211, Note_on_c, 0, 57, 0
1, 1673228, Control_c, 0, 67, 102
1, 1673247, Control_c, 0, 67, 110
1, 1673265, Control_c, 0, 67, 115
1, 1673274, Note_on_c, 0, 60, 22
1, 1673304, Control_c, 0, 67, 124
1, 1673354, Note_on_c, 0, 60, 0
1, 1673395, Note_on_c, 0, 57, 35
1, 1673482, Note_on_c, 0, 69, 64
1, 1673507, Note_on_c, 0, 57, 0
1, 1673537, Note_on_c, 0, 60, 45
1, 1673582, Note_on_c, 0, 77, 0
1, 1673620, Note_on_c, 0, 60, 0
1, 1673636, Note_on_c, 0, 57, 35
1, 1673720, Note_on_c, 0, 65, 0
1, 1673738, Note_on_c, 0, 57, 0
1, 1673753, Note_on_c, 0, 60, 47
1, 1673829, Note_on_c, 0, 60, 0
1, 1674048, Poly_aftertouch_c, 0, 57, 0
1, 1674062, Note_on_c, 0, 45, 36
1, 1674164, Control_c, 0, 64, 114
1, 1674182, Control_c, 0, 64, 78
1, 1674200, Control_c, 0, 64, 37
1, 1674220, Control_c, 0, 64, 0
1, 1674258, Note_on_c, 0, 76, 65
1, 1674272, Note_on_c, 0, 64, 40
1, 1674293, Control_c, 0, 64, 29
1, 1674311, Control_c, 0, 64, 50
1, 1674330, Control_c, 0, 64, 73
1, 1674349, Control_c, 0, 64, 91
1, 1674368, Control_c, 0, 64, 111
1, 1674386, Control_c, 0, 64, 125
1, 1674387, Note_on_c, 0, 45, 0
1, 1674424, Control_c, 0, 67, 120
1, 1674439, Note_on_c, 0, 57, 48
1, 1674459, Control_c, 0, 67, 116
1, 1674497, Control_c, 0, 67, 110
1, 1674515, Control_c, 0, 67, 105
1, 1674516, Note_on_c, 0, 57, 0
1, 1674535, Control_c, 0, 67, 98
1, 1674552, Control_c, 0, 67, 88
1, 1674565, Note_on_c, 0, 60, 40
1, 1674571, Control_c, 0, 67, 76
1, 1674591, Control_c, 0, 67, 64
1, 1674607, Control_c, 0, 67, 52
1, 1674613, Note_on_c, 0, 57, 39
1, 1674615, Note_on_c, 0, 60, 0
1, 1674625, Control_c, 0, 67, 39
1, 1674645, Control_c, 0, 67, 27
1, 1674663, Control_c, 0, 67, 15
1, 1674701, Note_on_c, 0, 57, 0
1, 1674709, Control_c, 0, 67, 0
1, 1674732, Note_on_c, 0, 60, 54
1, 1674784, Note_on_c, 0, 60, 0
1, 1674811, Note_on_c, 0, 57, 49
1, 1674853, Note_on_c, 0, 57, 0
1, 1674866, Note_on_c, 0, 64, 0
1, 1674892, Note_on_c, 0, 60, 66
1, 1674901, Note_on_c, 0, 76, 0
1, 1674925, Note_on_c, 0, 69, 0
1, 1674934, Note_on_c, 0, 60, 0
1, 1674945, Note_on_c, 0, 72, 0
1, 1674960, Note_on_c, 0, 57, 48
1, 1674991, Note_on_c, 0, 57, 0
1, 1675026, Note_on_c, 0, 60, 71
1, 1675060, Note_on_c, 0, 60, 0
1, 1675075, Note_on_c, 0, 57, 66
1, 1675104, Note_on_c, 0, 73, 35
1, 1675140, Note_on_c, 0, 60, 74
1, 1675145, Note_on_c, 0, 73, 0
1, 1675176, Note_on_c, 0, 67, 61
1, 1675199, Note_on_c, 0, 60, 0
1, 1675226, Note_on_c, 0, 57, 0
1, 1675238, Note_on_c, 0, 70, 68
1, 1675303, Control_c, 0, 64, 79
1, 1675311, Note_on_c, 0, 74, 61
1, 1675322, Control_c, 0, 64, 0
1, 1675351, Note_on_c, 0, 43, 72
1, 1675396, Control_c, 0, 64, 35
1, 1675413, Control_c, 0, 64, 75
1, 1675423, Note_on_c, 0, 43, 0
1, 1675431, Control_c, 0, 64, 110
1, 1675452, Control_c, 0, 64, 127
1, 1675452, Note_on_c, 0, 79, 94
1, 1675511, Note_on_c, 0, 70, 0
1, 1675556, Note_on_c, 0, 58, 56
1, 1675587, Note_on_c, 0, 58, 0
1, 1675661, Note_on_c, 0, 62, 48
1, 1675711, Note_on_c, 0, 62, 0
1, 1675728, Note_on_c, 0, 58, 53
1, 1675797, Note_on_c, 0, 58, 0
1, 1675873, Note_on_c, 0, 62, 22
1, 1675930, Note_on_c, 0, 58, 47
1, 1675942, Note_on_c, 0, 62, 0
1, 1676040, Note_on_c, 0, 58, 0
1, 1676049, Note_on_c, 0, 70, 82
1, 1676059, Note_on_c, 0, 62, 66
1, 1676101, Note_on_c, 0, 79, 0
1, 1676136, Note_on_c, 0, 58, 58
1, 1676162, Note_on_c, 0, 62, 0
1, 1676202, Note_on_c, 0, 58, 0
1, 1676221, Note_on_c, 0, 62, 44
1, 1676226, Note_on_c, 0, 67, 0
1, 1676270, Note_on_c, 0, 58, 40
1, 1676274, Note_on_c, 0, 62, 0
1, 1676373, Note_on_c, 0, 62, 55
1, 1676377, Note_on_c, 0, 58, 0
1, 1676377, Note_on_c, 0, 58, 39
1, 1676454, Note_on_c, 0, 62, 0
1, 1676621, Note_on_c, 0, 46, 70
1, 1676732, Note_on_c, 0, 58, 0
1, 1676747, Control_c, 0, 64, 121
1, 1676767, Control_c, 0, 64, 73
1, 1676784, Control_c, 0, 64, 0
1, 1676818, Note_on_c, 0, 77, 90
1, 1676831, Note_on_c, 0, 65, 72
1, 1676860, Control_c, 0, 64, 13
1, 1676876, Control_c, 0, 64, 42
1, 1676896, Control_c, 0, 64, 72
1, 1676914, Control_c, 0, 64, 94
1, 1676933, Control_c, 0, 64, 115
1, 1676950, Note_on_c, 0, 46, 0
1, 1676951, Control_c, 0, 64, 122
1, 1676970, Control_c, 0, 64, 126
1, 1676982, Note_on_c, 0, 58, 65
1, 1677042, Note_on_c, 0, 58, 0
1, 1677066, Note_on_c, 0, 62, 55
1, 1677141, Note_on_c, 0, 62, 0
1, 1677143, Note_on_c, 0, 58, 70
1, 1677178, Note_on_c, 0, 65, 0
1, 1677197, Note_on_c, 0, 58, 0
1, 1677236, Note_on_c, 0, 77, 0
1, 1677239, Note_on_c, 0, 62, 61
1, 1677310, Note_on_c, 0, 62, 0
1, 1677311, Note_on_c, 0, 58, 75
1, 1677358, Note_on_c, 0, 58, 0
1, 1677369, Note_on_c, 0, 74, 0
1, 1677379, Note_on_c, 0, 70, 0
1, 1677403, Note_on_c, 0, 62, 69
1, 1677472, Note_on_c, 0, 58, 77
1, 1677474, Note_on_c, 0, 62, 0
1, 1677529, Note_on_c, 0, 58, 0
1, 1677592, Note_on_c, 0, 62, 62
1, 1677622, Note_on_c, 0, 58, 70
1, 1677634, Note_on_c, 0, 62, 0
1, 1677669, Note_on_c, 0, 58, 0
1, 1677709, Note_on_c, 0, 62, 75
1, 1677717, Note_on_c, 0, 70, 95
1, 1677775, Note_on_c, 0, 58, 72
1, 1677782, Note_on_c, 0, 62, 0
1, 1677919, Note_on_c, 0, 51, 78
1, 1677921, Note_on_c, 0, 58, 0
1, 1677962, Control_c, 0, 64, 120
1, 1677981, Control_c, 0, 64, 71
1, 1677997, Control_c, 0, 64, 0
1, 1678038, Note_on_c, 0, 79, 84
1, 1678043, Note_on_c, 0, 82, 82
1, 1678054, Control_c, 0, 64, 11
1, 1678072, Control_c, 0, 64, 45
1, 1678092, Control_c, 0, 64, 79
1, 1678100, Note_on_c, 0, 51, 0
1, 1678110, Control_c, 0, 64, 113
1, 1678129, Control_c, 0, 64, 127
1, 1678148, Note_on_c, 0, 63, 76
1, 1678187, Note_on_c, 0, 63, 0
1, 1678231, Note_on_c, 0, 67, 69
1, 1678306, Note_on_c, 0, 67, 0
1, 1678312, Note_on_c, 0, 63, 64
1, 1678319, Note_on_c, 0, 79, 0
1, 1678340, Note_on_c, 0, 63, 0
1, 1678378, Note_on_c, 0, 67, 65
1, 1678430, Note_on_c, 0, 67, 0
1, 1678440, Note_on_c, 0, 63, 52
1, 1678475, Note_on_c, 0, 63, 0
1, 1678508, Note_on_c, 0, 62, 18
1, 1678509, Control_c, 0, 64, 104
1, 1678528, Control_c, 0, 64, 45
1, 1678542, Note_on_c, 0, 62, 0
1, 1678545, Control_c, 0, 64, 0
1, 1678553, Note_on_c, 0, 50, 74
1, 1678573, Note_on_c, 0, 79, 83
1, 1678599, Control_c, 0, 64, 40
1, 1678603, Note_on_c, 0, 50, 0
1, 1678619, Control_c, 0, 64, 78
1, 1678621, Note_on_c, 0, 82, 0
1, 1678638, Control_c, 0, 64, 111
1, 1678655, Control_c, 0, 64, 127
1, 1678656, Note_on_c, 0, 62, 80
1, 1678727, Note_on_c, 0, 62, 0
1, 1678742, Note_on_c, 0, 70, 0
1, 1678760, Note_on_c, 0, 67, 69
1, 1678814, Note_on_c, 0, 62, 64
1, 1678830, Note_on_c, 0, 67, 0
1, 1678904, Note_on_c, 0, 62, 0
1, 1678911, Note_on_c, 0, 67, 69
1, 1678929, Note_on_c, 0, 77, 92
1, 1678951, Note_on_c, 0, 62, 50
1, 1678956, Note_on_c, 0, 79, 0
1, 1678957, Note_on_c, 0, 83, 82
1, 1678962, Note_on_c, 0, 67, 0
1, 1678968, Note_on_c, 0, 71, 65
1, 1679000, Note_on_c, 0, 62, 0
1, 1679083, Note_on_c, 0, 77, 0
1, 1679130, Note_on_c, 0, 48, 58
1, 1679137, Control_c, 0, 64, 103
1, 1679156, Control_c, 0, 64, 49
1, 1679174, Control_c, 0, 64, 0
1, 1679183, Note_on_c, 0, 77, 87
1, 1679187, Note_on_c, 0, 50, 20
1, 1679224, Note_on_c, 0, 48, 0
1, 1679230, Control_c, 0, 64, 21
1, 1679239, Note_on_c, 0, 50, 0
1, 1679249, Control_c, 0, 64, 53
1, 1679268, Control_c, 0, 64, 88
1, 1679287, Control_c, 0, 64, 120
1, 1679303, Control_c, 0, 64, 127
1, 1679330, Note_on_c, 0, 60, 44
1, 1679379, Note_on_c, 0, 60, 0
1, 1679404, Poly_aftertouch_c, 0, 62, 0
1, 1679416, Note_on_c, 0, 67, 58
1, 1679462, Note_on_c, 0, 67, 0
1, 1679487, Note_on_c, 0, 60, 61
1, 1679534, Note_on_c, 0, 60, 0
1, 1679573, Note_on_c, 0, 76, 80
1, 1679590, Note_on_c, 0, 67, 61
1, 1679596, Note_on_c, 0, 77, 0
1, 1679612, Note_on_c, 0, 71, 0
1, 1679651, Note_on_c, 0, 83, 0
1, 1679673, Note_on_c, 0, 67, 0
1, 1679680, Note_on_c, 0, 60, 64
1, 1679760, Note_on_c, 0, 60, 0
1, 1679784, Note_on_c, 0, 67, 57
1, 1679813, Control_c, 0, 64, 109
1, 1679816, Note_on_c, 0, 79, 78
1, 1679822, Note_on_c, 0, 84, 76
1, 1679834, Control_c, 0, 64, 59
1, 1679834, Note_on_c, 0, 72, 60
1, 1679852, Control_c, 0, 64, 0
1, 1679870, Note_on_c, 0, 67, 0
1, 1679883, Note_on_c, 0, 76, 0
1, 1679884, Note_on_c, 0, 60, 49
1, 1679908, Control_c, 0, 64, 41
1, 1679925, Control_c, 0, 64, 73
1, 1679943, Note_on_c, 0, 60, 0
1, 1679944, Control_c, 0, 64, 100
1, 1679961, Control_c, 0, 64, 127
1, 1679971, Note_on_c, 0, 67, 42
1, 1680012, Note_on_c, 0, 67, 0
1, 1680024, Note_on_c, 0, 84, 0
1, 1680037, Note_on_c, 0, 60, 50
1, 1680052, Note_on_c, 0, 72, 0
1, 1680089, Note_on_c, 0, 79, 0
1, 1680092, Poly_aftertouch_c, 0, 81, 0
1, 1680101, Note_on_c, 0, 60, 0
1, 1680109, Note_on_c, 0, 67, 71
1, 1680158, Note_on_c, 0, 67, 0
1, 1680188, Note_on_c, 0, 60, 63
1, 1680326, Note_on_c, 0, 60, 0
1, 1680347, Note_on_c, 0, 48, 54
1, 1680381, Control_c, 0, 64, 91
1, 1680392, Note_on_c, 0, 76, 66
1, 1680396, Note_on_c, 0, 79, 63
1, 1680399, Control_c, 0, 64, 44
1, 1680409, Note_on_c, 0, 67, 51
1, 1680417, Control_c, 0, 64, 19
1, 1680425, Note_on_c, 0, 48, 0
1, 1680433, Control_c, 0, 64, 28
1, 1680453, Control_c, 0, 64, 44
1, 1680472, Control_c, 0, 64, 67
1, 1680487, Note_on_c, 0, 60, 60
1, 1680491, Control_c, 0, 64, 92
1, 1680509, Control_c, 0, 64, 120
1, 1680528, Control_c, 0, 64, 127
1, 1680557, Note_on_c, 0, 60, 0
1, 1680601, Note_on_c, 0, 64, 43
1, 1680640, Note_on_c, 0, 64, 0
1, 1680659, Note_on_c, 0, 60, 47
1, 1680702, Note_on_c, 0, 60, 0
1, 1680729, Note_on_c, 0, 64, 63
1, 1680734, Note_on_c, 0, 76, 0
1, 1680768, Note_on_c, 0, 64, 0
1, 1680768, Control_c, 0, 67, 9
1, 1680788, Note_on_c, 0, 60, 67
1, 1680804, Control_c, 0, 67, 16
1, 1680821, Note_on_c, 0, 60, 0
1, 1680843, Control_c, 0, 64, 122
1, 1680845, Control_c, 0, 67, 22
1, 1680860, Control_c, 0, 64, 80
1, 1680879, Control_c, 0, 64, 40
1, 1680883, Control_c, 0, 67, 26
1, 1680917, Control_c, 0, 64, 48
1, 1680918, Control_c, 0, 67, 33
1, 1680926, Note_on_c, 0, 46, 49
1, 1680933, Note_on_c, 0, 76, 65
1, 1680936, Control_c, 0, 64, 65
1, 1680954, Control_c, 0, 64, 88
1, 1680956, Control_c, 0, 67, 38
1, 1680963, Note_on_c, 0, 46, 0
1, 1680973, Control_c, 0, 64, 119
1, 1680990, Control_c, 0, 64, 127
1, 1681033, Note_on_c, 0, 58, 64
1, 1681056, Note_on_c, 0, 79, 0
1, 1681064, Note_on_c, 0, 67, 0
1, 1681066, Note_on_c, 0, 58, 0
1, 1681104, Note_on_c, 0, 64, 62
1, 1681121, Control_c, 0, 67, 42
1, 1681176, Note_on_c, 0, 58, 53
1, 1681185, Note_on_c, 0, 64, 0
1, 1681276, Note_on_c, 0, 64, 45
1, 1681308, Note_on_c, 0, 74, 70
1, 1681320, Note_on_c, 0, 80, 71
1, 1681333, Note_on_c, 0, 58, 0
1, 1681333, Note_on_c, 0, 58, 38
1, 1681336, Note_on_c, 0, 64, 0
1, 1681343, Note_on_c, 0, 76, 0
1, 1681347, Note_on_c, 0, 68, 42
1, 1681440, Note_on_c, 0, 74, 0
1, 1681452, Note_on_c, 0, 58, 0
1, 1681533, Note_on_c, 0, 45, 56
1, 1681537, Control_c, 0, 64, 107
1, 1681554, Control_c, 0, 64, 67
1, 1681573, Control_c, 0, 64, 28
1, 1681591, Control_c, 0, 64, 23
1, 1681597, Note_on_c, 0, 74, 59
1, 1681619, Note_on_c, 0, 45, 0
1, 1681630, Control_c, 0, 64, 42
1, 1681631, Control_c, 0, 67, 46
1, 1681649, Control_c, 0, 64, 62
1, 1681650, Control_c, 0, 67, 50
1, 1681667, Control_c, 0, 64, 84
1, 1681669, Control_c, 0, 67, 55
1, 1681685, Control_c, 0, 64, 112
1, 1681705, Control_c, 0, 64, 127
1, 1681706, Control_c, 0, 67, 61
1, 1681707, Note_on_c, 0, 57, 41
1, 1681725, Control_c, 0, 67, 69
1, 1681740, Control_c, 0, 67, 83
1, 1681748, Note_on_c, 0, 57, 0
1, 1681758, Control_c, 0, 67, 95
1, 1681778, Control_c, 0, 67, 102
1, 1681793, Note_on_c, 0, 64, 51
1, 1681796, Control_c, 0, 67, 106
1, 1681848, Note_on_c, 0, 64, 0
1, 1681851, Control_c, 0, 67, 111
1, 1681858, Note_on_c, 0, 57, 60
1, 1681890, Control_c, 0, 67, 117
1, 1681926, Control_c, 0, 67, 122
1, 1681932, Note_on_c, 0, 57, 0
1, 1681962, Control_c, 0, 67, 127
1, 1681973, Note_on_c, 0, 64, 46
1, 1681980, Note_on_c, 0, 74, 0
1, 1681989, Note_on_c, 0, 73, 68
1, 1682051, Note_on_c, 0, 64, 0
1, 1682054, Note_on_c, 0, 80, 0
1, 1682076, Note_on_c, 0, 68, 0
1, 1682085, Note_on_c, 0, 57, 39
1, 1682223, Note_on_c, 0, 57, 0
1, 1682224, Note_on_c, 0, 64, 41
1, 1682250, Note_on_c, 0, 76, 63
1, 1682250, Control_c, 0, 64, 115
1, 1682268, Control_c, 0, 64, 73
1, 1682270, Note_on_c, 0, 81, 56
1, 1682271, Note_on_c, 0, 69, 46
1, 1682272, Note_on_c, 0, 73, 0
1, 1682288, Control_c, 0, 64, 30
1, 1682304, Note_on_c, 0, 64, 0
1, 1682304, Control_c, 0, 64, 20
1, 1682322, Note_on_c, 0, 57, 35
1, 1682343, Control_c, 0, 64, 37
1, 1682361, Control_c, 0, 64, 56
1, 1682381, Control_c, 0, 64, 78
1, 1682387, Note_on_c, 0, 57, 0
1, 1682399, Control_c, 0, 64, 101
1, 1682414, Note_on_c, 0, 81, 0
1, 1682415, Control_c, 0, 64, 127
1, 1682447, Note_on_c, 0, 64, 45
1, 1682463, Note_on_c, 0, 69, 0
1, 1682501, Note_on_c, 0, 64, 0
1, 1682513, Note_on_c, 0, 76, 0
1, 1682616, Note_on_c, 0, 64, 54
1, 1682646, Note_on_c, 0, 64, 0
1, 1682662, Note_on_c, 0, 57, 19
1, 1682766, Note_on_c, 0, 57, 0
1, 1682836, Note_on_c, 0, 45, 47
1, 1682916, Control_c, 0, 64, 118
1, 1682921, Note_on_c, 0, 73, 70
1, 1682935, Note_on_c, 0, 64, 42
1, 1682935, Control_c, 0, 64, 78
1, 1682955, Control_c, 0, 64, 40
1, 1682972, Control_c, 0, 64, 31
1, 1683011, Control_c, 0, 64, 48
1, 1683023, Note_on_c, 0, 45, 0
1, 1683028, Control_c, 0, 64, 64
1, 1683045, Control_c, 0, 64, 82
1, 1683047, Note_on_c, 0, 52, 35
1, 1683065, Control_c, 0, 64, 102
1, 1683084, Control_c, 0, 64, 122
1, 1683108, Note_on_c, 0, 52, 0
1, 1683111, Control_c, 0, 64, 127
1, 1683120, Note_on_c, 0, 57, 52
1, 1683168, Note_on_c, 0, 57, 0
1, 1683203, Note_on_c, 0, 52, 42
1, 1683247, Note_on_c, 0, 52, 0
1, 1683287, Note_on_c, 0, 57, 52
1, 1683329, Note_on_c, 0, 57, 0
1, 1683360, Note_on_c, 0, 52, 52
1, 1683420, Note_on_c, 0, 52, 0
1, 1683449, Note_on_c, 0, 45, 54
1, 1683464, Control_c, 0, 64, 95
1, 1683482, Control_c, 0, 64, 57
1, 1683483, Note_on_c, 0, 63, 49
1, 1683500, Control_c, 0, 64, 34
1, 1683538, Control_c, 0, 64, 48
1, 1683557, Control_c, 0, 64, 64
1, 1683574, Note_on_c, 0, 64, 0
1, 1683575, Control_c, 0, 64, 82
1, 1683595, Control_c, 0, 64, 102
1, 1683612, Control_c, 0, 64, 125
1, 1683620, Note_on_c, 0, 52, 7
1, 1683684, Note_on_c, 0, 57, 55
1, 1683706, Note_on_c, 0, 52, 0
1, 1683720, Note_on_c, 0, 57, 0
1, 1683731, Note_on_c, 0, 45, 0
1, 1683838, Poly_aftertouch_c, 0, 53, 0
1, 1683842, Note_on_c, 0, 57, 49
1, 1683910, Note_on_c, 0, 57, 0
1, 1684085, Note_on_c, 0, 46, 47
1, 1684104, Poly_aftertouch_c, 0, 53, 0
1, 1684108, Note_on_c, 0, 63, 0
1, 1684141, Control_c, 0, 64, 88
1, 1684147, Note_on_c, 0, 62, 50
1, 1684160, Control_c, 0, 64, 53
1, 1684176, Control_c, 0, 64, 33
1, 1684213, Control_c, 0, 64, 39
1, 1684215, Control_c, 0, 67, 122
1, 1684232, Control_c, 0, 64, 55
1, 1684235, Control_c, 0, 67, 118
1, 1684252, Control_c, 0, 64, 71
1, 1684253, Control_c, 0, 67, 113
1, 1684267, Note_on_c, 0, 53, 45
1, 1684270, Control_c, 0, 64, 92
1, 1684272, Control_c, 0, 67, 105
1, 1684290, Control_c, 0, 64, 122
1, 1684291, Control_c, 0, 67, 92
1, 1684307, Control_c, 0, 64, 127
1, 1684308, Control_c, 0, 67, 71
1, 1684326, Control_c, 0, 67, 48
1, 1684345, Control_c, 0, 67, 26
1, 1684361, Control_c, 0, 67, 8
1, 1684365, Note_on_c, 0, 53, 0
1, 1684377, Note_on_c, 0, 58, 39
1, 1684378, Control_c, 0, 67, 0
1, 1684476, Note_on_c, 0, 58, 0
1, 1684490, Note_on_c, 0, 53, 47
1, 1684541, Note_on_c, 0, 74, 76
1, 1684579, Note_on_c, 0, 73, 0
1, 1684609, Note_on_c, 0, 53, 0
1, 1684641, Note_on_c, 0, 58, 46
1, 1684722, Note_on_c, 0, 58, 0
1, 1684733, Note_on_c, 0, 53, 52
1, 1684827, Note_on_c, 0, 53, 0
1, 1684832, Note_on_c, 0, 76, 87
1, 1684857, Note_on_c, 0, 58, 58
1, 1684880, Note_on_c, 0, 74, 0
1, 1684945, Note_on_c, 0, 58, 0
1, 1684968, Note_on_c, 0, 53, 58
1, 1684995, Note_on_c, 0, 62, 0
1, 1685047, Note_on_c, 0, 53, 0
1, 1685090, Note_on_c, 0, 58, 38
1, 1685127, Note_on_c, 0, 58, 0
1, 1685129, Note_on_c, 0, 53, 54
1, 1685202, Note_on_c, 0, 46, 0
1, 1685237, Note_on_c, 0, 58, 49
1, 1685257, Note_on_c, 0, 77, 91
1, 1685292, Note_on_c, 0, 76, 0
1, 1685353, Note_on_c, 0, 53, 0
1, 1685421, Note_on_c, 0, 46, 48
1, 1685475, Note_on_c, 0, 58, 0
1, 1685529, Note_on_c, 0, 67, 82
1, 1685556, Note_on_c, 0, 65, 64
1, 1685576, Control_c, 0, 64, 100
1, 1685595, Control_c, 0, 64, 61
1, 1685611, Note_on_c, 0, 77, 0
1, 1685613, Control_c, 0, 64, 16
1, 1685646, Note_on_c, 0, 55, 53
1, 1685687, Control_c, 0, 64, 37
1, 1685705, Control_c, 0, 64, 57
1, 1685724, Control_c, 0, 64, 81
1, 1685730, Note_on_c, 0, 55, 0
1, 1685742, Control_c, 0, 64, 103
1, 1685753, Note_on_c, 0, 58, 58
1, 1685761, Control_c, 0, 64, 125
1, 1685835, Note_on_c, 0, 58, 0
1, 1685863, Note_on_c, 0, 55, 54
1, 1685932, Note_on_c, 0, 70, 73
1, 1685947, Note_on_c, 0, 55, 0
1, 1685978, Note_on_c, 0, 67, 0
1, 1685987, Note_on_c, 0, 58, 49
1, 1686054, Note_on_c, 0, 58, 0
1, 1686092, Note_on_c, 0, 55, 53
1, 1686163, Note_on_c, 0, 55, 0
1, 1686182, Note_on_c, 0, 72, 75
1, 1686224, Note_on_c, 0, 70, 0
1, 1686263, Poly_aftertouch_c, 0, 58, 0
1, 1686290, Note_on_c, 0, 55, 45
1, 1686351, Note_on_c, 0, 46, 0
1, 1686378, Note_on_c, 0, 58, 45
1, 1686536, Note_on_c, 0, 65, 0
1, 1686562, Note_on_c, 0, 74, 77
1, 1686563, Note_on_c, 0, 58, 0
1, 1686598, Note_on_c, 0, 72, 0
1, 1686753, Note_on_c, 0, 48, 43
1, 1686827, Note_on_c, 0, 64, 69
1, 1686941, Note_on_c, 0, 74, 0
1, 1686947, Control_c, 0, 64, 120
1, 1686961, Poly_aftertouch_c, 0, 52, 0
1, 1686967, Control_c, 0, 64, 110
1, 1686983, Control_c, 0, 64, 99
1, 1687002, Control_c, 0, 64, 89
1, 1687021, Control_c, 0, 64, 81
1, 1687039, Control_c, 0, 64, 79
1, 1687095, Control_c, 0, 64, 77
1, 1687169, Control_c, 0, 64, 75
1, 1687260, Note_on_c, 0, 65, 72
1, 1687284, Note_on_c, 0, 55, 0
1, 1687309, Note_on_c, 0, 57, 52
1, 1687312, Note_on_c, 0, 64, 0
1, 1687319, Note_on_c, 0, 59, 26
1, 1687354, Control_c, 0, 64, 73
1, 1687362, Note_on_c, 0, 59, 0
1, 1687410, Control_c, 0, 67, 8
1, 1687465, Control_c, 0, 64, 71
1, 1687466, Control_c, 0, 67, 12
1, 1687520, Control_c, 0, 64, 69
1, 1687538, Control_c, 0, 64, 68
1, 1687558, Control_c, 0, 64, 67
1, 1687576, Control_c, 0, 64, 65
1, 1687593, Note_on_c, 0, 69, 64
1, 1687595, Control_c, 0, 64, 63
1, 1687614, Control_c, 0, 64, 62
1, 1687617, Note_on_c, 0, 60, 52
1, 1687632, Control_c, 0, 64, 59
1, 1687634, Control_c, 0, 67, 16
1, 1687650, Control_c, 0, 64, 57
1, 1687667, Control_c, 0, 64, 55
1, 1687688, Control_c, 0, 64, 52
1, 1687689, Control_c, 0, 67, 21
1, 1687706, Control_c, 0, 64, 50
1, 1687712, Note_on_c, 0, 57, 0
1, 1687724, Control_c, 0, 64, 47
1, 1687725, Control_c, 0, 67, 25
1, 1687762, Control_c, 0, 64, 44
1, 1687789, Control_c, 0, 64, 41
1, 1687827, Control_c, 0, 64, 36
1, 1687834, Note_on_c, 0, 65, 0
1, 1687937, Control_c, 0, 64, 32
1, 1688103, Control_c, 0, 64, 37
1, 1688104, Control_c, 0, 67, 29
1, 1688123, Control_c, 0, 64, 45
1, 1688124, Control_c, 0, 67, 34
1, 1688142, Control_c, 0, 64, 52
1, 1688144, Control_c, 0, 67, 40
1, 1688161, Control_c, 0, 64, 63
1, 1688162, Control_c, 0, 67, 45
1, 1688178, Control_c, 0, 64, 73
1, 1688179, Control_c, 0, 67, 49
1, 1688198, Control_c, 0, 64, 80
1, 1688217, Control_c, 0, 64, 89
1, 1688219, Control_c, 0, 67, 54
1, 1688233, Control_c, 0, 64, 99
1, 1688251, Control_c, 0, 64, 108
1, 1688270, Control_c, 0, 64, 116
1, 1688271, Control_c, 0, 67, 59
1, 1688289, Control_c, 0, 64, 121
1, 1688308, Control_c, 0, 64, 125
1, 1688309, Control_c, 0, 67, 64
1, 1688326, Control_c, 0, 67, 68
1, 1688345, Control_c, 0, 67, 72
1, 1688365, Control_c, 0, 67, 76
1, 1688382, Control_c, 0, 67, 81
1, 1688402, Control_c, 0, 67, 86
1, 1688418, Control_c, 0, 67, 91
1, 1688438, Control_c, 0, 67, 97
1, 1688455, Control_c, 0, 67, 102
1, 1688493, Control_c, 0, 67, 109
1, 1688549, Control_c, 0, 67, 114
1, 1688586, Control_c, 0, 67, 118
1, 1688587, Note_on_c, 0, 58, 38
1, 1688600, Note_on_c, 0, 67, 49
1, 1688623, Control_c, 0, 67, 122
1, 1688754, Note_on_c, 0, 69, 0
1, 1688888, Note_on_c, 0, 64, 46
1, 1688906, Note_on_c, 0, 55, 29
1, 1688951, Note_on_c, 0, 58, 0
1, 1688983, Control_c, 0, 64, 110
1, 1689002, Control_c, 0, 64, 86
1, 1689010, Note_on_c, 0, 67, 0
1, 1689021, Control_c, 0, 64, 60
1, 1689040, Control_c, 0, 64, 42
1, 1689058, Control_c, 0, 64, 40
1, 1689101, Note_on_c, 0, 60, 0
1, 1689113, Control_c, 0, 64, 42
1, 1689133, Control_c, 0, 64, 53
1, 1689134, Control_c, 0, 67, 127
1, 1689153, Control_c, 0, 64, 66
1, 1689169, Control_c, 0, 64, 79
1, 1689187, Control_c, 0, 64, 93
1, 1689205, Control_c, 0, 64, 106
1, 1689225, Control_c, 0, 64, 114
1, 1689243, Control_c, 0, 64, 120
1, 1689262, Control_c, 0, 64, 126
1, 1689360, Note_on_c, 0, 65, 53
1, 1689371, Note_on_c, 0, 56, 39
1, 1689429, Note_on_c, 0, 55, 0
1, 1689478, Note_on_c, 0, 48, 0
1, 1689485, Note_on_c, 0, 64, 0
1, 1689758, Note_on_c, 0, 60, 39
1, 1689768, Note_on_c, 0, 68, 50
1, 1689793, Note_on_c, 0, 48, 25
1, 1689884, Control_c, 0, 64, 118
1, 1689902, Control_c, 0, 64, 109
1, 1689918, Control_c, 0, 64, 98
1, 1689938, Control_c, 0, 64, 83
1, 1689956, Control_c, 0, 64, 68
1, 1689961, Note_on_c, 0, 65, 0
1, 1689964, Note_on_c, 0, 56, 0
1, 1689975, Control_c, 0, 64, 57
1, 1689994, Control_c, 0, 64, 51
1, 1690012, Control_c, 0, 64, 46
1, 1690032, Control_c, 0, 64, 39
1, 1690049, Control_c, 0, 64, 34
1, 1690069, Control_c, 0, 64, 30
1, 1690141, Control_c, 0, 67, 121
1, 1690179, Control_c, 0, 67, 114
1, 1690198, Control_c, 0, 67, 109
1, 1690216, Control_c, 0, 64, 36
1, 1690217, Control_c, 0, 67, 103
1, 1690235, Control_c, 0, 64, 43
1, 1690236, Control_c, 0, 67, 95
1, 1690254, Control_c, 0, 64, 47
1, 1690255, Control_c, 0, 67, 83
1, 1690272, Control_c, 0, 64, 53
1, 1690273, Control_c, 0, 67, 68
1, 1690290, Control_c, 0, 64, 61
1, 1690290, Control_c, 0, 67, 51
1, 1690308, Control_c, 0, 64, 71
1, 1690309, Control_c, 0, 67, 33
1, 1690327, Control_c, 0, 64, 78
1, 1690328, Control_c, 0, 67, 17
1, 1690345, Control_c, 0, 64, 89
1, 1690364, Control_c, 0, 64, 103
1, 1690366, Control_c, 0, 67, 0
1, 1690383, Control_c, 0, 64, 116
1, 1690401, Control_c, 0, 64, 125
1, 1690606, Note_on_c, 0, 48, 0
1, 1691015, Note_on_c, 0, 58, 31
1, 1691021, Note_on_c, 0, 67, 37
1, 1691102, Note_on_c, 0, 68, 0
1, 1691143, Note_on_c, 0, 67, 0
1, 1691189, Note_on_c, 0, 58, 0
1, 1691318, Poly_aftertouch_c, 0, 60, 24
1, 1691398, Note_on_c, 0, 58, 23
1, 1691438, Note_on_c, 0, 51, 28
1, 1691484, Note_on_c, 0, 75, 75
1, 1691505, Note_on_c, 0, 67, 53
1, 1691536, Note_on_c, 0, 60, 0
1, 1691536, Poly_aftertouch_c, 0, 60, 0
1, 1691588, Control_c, 0, 64, 121
1, 1691604, Control_c, 0, 64, 99
1, 1691624, Control_c, 0, 64, 70
1, 1691643, Control_c, 0, 64, 42
1, 1691660, Control_c, 0, 64, 32
1, 1691736, Control_c, 0, 64, 38
1, 1691754, Control_c, 0, 64, 52
1, 1691774, Control_c, 0, 64, 68
1, 1691789, Control_c, 0, 64, 83
1, 1691809, Control_c, 0, 64, 97
1, 1691828, Control_c, 0, 64, 108
1, 1691846, Control_c, 0, 64, 116
1, 1691865, Control_c, 0, 64, 122
1, 1691883, Control_c, 0, 64, 127
1, 1691938, Note_on_c, 0, 68, 78
1, 1691950, Note_on_c, 0, 60, 50
1, 1692003, Note_on_c, 0, 58, 0
1, 1692016, Note_on_c, 0, 67, 0
1, 1692262, Note_on_c, 0, 63, 50
1, 1692264, Note_on_c, 0, 72, 72
1, 1692345, Control_c, 0, 64, 122
1, 1692364, Control_c, 0, 64, 116
1, 1692383, Control_c, 0, 64, 108
1, 1692402, Control_c, 0, 64, 94
1, 1692413, Note_on_c, 0, 68, 0
1, 1692419, Control_c, 0, 64, 75
1, 1692439, Control_c, 0, 64, 53
1, 1692458, Control_c, 0, 64, 36
1, 1692460, Note_on_c, 0, 60, 0
1, 1692486, Control_c, 0, 64, 29
1, 1692505, Control_c, 0, 64, 22
1, 1692523, Control_c, 0, 64, 11
1, 1692540, Control_c, 0, 64, 0
1, 1692652, Control_c, 0, 64, 30
1, 1692671, Control_c, 0, 64, 54
1, 1692690, Control_c, 0, 64, 77
1, 1692709, Control_c, 0, 64, 92
1, 1692725, Control_c, 0, 64, 108
1, 1692745, Control_c, 0, 64, 120
1, 1692762, Control_c, 0, 64, 127
1, 1693134, Note_on_c, 0, 70, 70
1, 1693150, Note_on_c, 0, 61, 51
1, 1693292, Note_on_c, 0, 75, 0
1, 1693311, Note_on_c, 0, 63, 0
1, 1693464, Note_on_c, 0, 67, 71
1, 1693470, Note_on_c, 0, 58, 57
1, 1693473, Note_on_c, 0, 75, 62
1, 1693562, Note_on_c, 0, 72, 0
1, 1693727, Note_on_c, 0, 70, 0
1, 1693731, Note_on_c, 0, 61, 0
1, 1693943, Note_on_c, 0, 51, 0
1, 1693974, Note_on_c, 0, 60, 54
1, 1693974, Note_on_c, 0, 68, 81
1, 1694105, Note_on_c, 0, 67, 0
1, 1694198, Note_on_c, 0, 58, 0
1, 1694504, Note_on_c, 0, 73, 78
1, 1694523, Note_on_c, 0, 51, 41
1, 1694523, Control_c, 0, 67, 8
1, 1694544, Note_on_c, 0, 65, 44
1, 1694615, Control_c, 0, 64, 119
1, 1694635, Control_c, 0, 64, 108
1, 1694636, Control_c, 0, 67, 12
1, 1694653, Control_c, 0, 64, 94
1, 1694672, Control_c, 0, 64, 77
1, 1694691, Control_c, 0, 64, 62
1, 1694692, Control_c, 0, 67, 17
1, 1694711, Control_c, 0, 64, 53
1, 1694728, Control_c, 0, 64, 48
1, 1694729, Control_c, 0, 67, 24
1, 1694747, Control_c, 0, 64, 44
1, 1694748, Control_c, 0, 67, 28
1, 1694765, Control_c, 0, 64, 37
1, 1694783, Control_c, 0, 64, 31
1, 1694784, Control_c, 0, 67, 32
1, 1694786, Note_on_c, 0, 60, 0
1, 1694819, Control_c, 0, 64, 27
1, 1694875, Control_c, 0, 67, 36
1, 1694951, Control_c, 0, 64, 37
1, 1694967, Control_c, 0, 64, 44
1, 1694986, Control_c, 0, 64, 54
1, 1695005, Control_c, 0, 64, 64
1, 1695006, Control_c, 0, 67, 41
1, 1695023, Control_c, 0, 64, 72
1, 1695042, Control_c, 0, 64, 77
1, 1695061, Control_c, 0, 64, 84
1, 1695064, Control_c, 0, 67, 46
1, 1695080, Control_c, 0, 64, 95
1, 1695080, Control_c, 0, 67, 52
1, 1695099, Control_c, 0, 64, 105
1, 1695100, Control_c, 0, 67, 58
1, 1695117, Control_c, 0, 64, 113
1, 1695118, Control_c, 0, 67, 63
1, 1695137, Control_c, 0, 64, 121
1, 1695138, Control_c, 0, 67, 67
1, 1695153, Control_c, 0, 64, 127
1, 1695171, Control_c, 0, 67, 74
1, 1695190, Control_c, 0, 67, 79
1, 1695210, Control_c, 0, 67, 84
1, 1695227, Control_c, 0, 67, 89
1, 1695247, Control_c, 0, 67, 94
1, 1695265, Control_c, 0, 67, 99
1, 1695292, Control_c, 0, 67, 105
1, 1695313, Control_c, 0, 67, 111
1, 1695329, Control_c, 0, 67, 116
1, 1695347, Control_c, 0, 67, 120
1, 1695365, Control_c, 0, 67, 126
1, 1695416, Note_on_c, 0, 68, 0
1, 1695435, Note_on_c, 0, 65, 0
1, 1696122, Note_on_c, 0, 67, 30
1, 1696122, Note_on_c, 0, 72, 55
1, 1696132, Note_on_c, 0, 63, 32
1, 1696201, Control_c, 0, 64, 108
1, 1696229, Control_c, 0, 64, 81
1, 1696230, Note_on_c, 0, 73, 0
1, 1696248, Control_c, 0, 64, 53
1, 1696266, Control_c, 0, 64, 31
1, 1696282, Control_c, 0, 64, 22
1, 1696376, Control_c, 0, 64, 38
1, 1696396, Control_c, 0, 64, 57
1, 1696413, Control_c, 0, 64, 74
1, 1696433, Control_c, 0, 64, 86
1, 1696452, Control_c, 0, 64, 98
1, 1696468, Control_c, 0, 64, 108
1, 1696487, Control_c, 0, 64, 117
1, 1696505, Control_c, 0, 64, 123
1, 1696525, Control_c, 0, 64, 127
1, 1696534, Note_on_c, 0, 67, 0
1, 1697110, Note_on_c, 0, 70, 43
1, 1697121, Note_on_c, 0, 65, 24
1, 1697124, Note_on_c, 0, 61, 30
1, 1697211, Note_on_c, 0, 72, 0
1, 1697217, Control_c, 0, 64, 117
1, 1697237, Control_c, 0, 64, 96
1, 1697257, Control_c, 0, 64, 69
1, 1697274, Control_c, 0, 64, 40
1, 1697283, Note_on_c, 0, 63, 0
1, 1697293, Control_c, 0, 64, 19
1, 1697368, Control_c, 0, 64, 29
1, 1697387, Control_c, 0, 64, 47
1, 1697404, Control_c, 0, 64, 67
1, 1697422, Control_c, 0, 64, 80
1, 1697442, Control_c, 0, 64, 92
1, 1697460, Control_c, 0, 64, 102
1, 1697478, Control_c, 0, 64, 111
1, 1697497, Control_c, 0, 64, 119
1, 1697516, Control_c, 0, 64, 124
1, 1697661, Note_on_c, 0, 51, 0
1, 1697691, Note_on_c, 0, 70, 0
1, 1697910, Note_on_c, 0, 61, 0
1, 1697915, Note_on_c, 0, 65, 0
1, 1697987, Note_on_c, 0, 75, 0
1, 1698146, Note_on_c, 0, 48, 35
1, 1698165, Note_on_c, 0, 55, 45
1, 1698172, Control_c, 0, 64, 115
1, 1698191, Control_c, 0, 64, 88
1, 1698210, Control_c, 0, 64, 60
1, 1698216, Note_on_c, 0, 60, 36
1, 1698230, Control_c, 0, 64, 48
1, 1698260, Note_on_c, 0, 64, 35
1, 1698267, Control_c, 0, 64, 59
1, 1698283, Control_c, 0, 64, 68
1, 1698294, Note_on_c, 0, 70, 46
1, 1698303, Control_c, 0, 64, 80
1, 1698312, Note_on_c, 0, 60, 0
1, 1698314, Note_on_c, 0, 55, 0
1, 1698321, Control_c, 0, 64, 96
1, 1698324, Note_on_c, 0, 48, 0
1, 1698332, Note_on_c, 0, 76, 63
1, 1698338, Control_c, 0, 64, 115
1, 1698345, Note_on_c, 0, 64, 0
1, 1698358, Control_c, 0, 64, 127
1, 1698369, Note_on_c, 0, 70, 0
1, 1698373, Note_on_c, 0, 76, 0
1, 1698951, Control_c, 0, 64, 122
1, 1698970, Control_c, 0, 64, 96
1, 1698988, Control_c, 0, 64, 67
1, 1699008, Control_c, 0, 64, 41
1, 1699035, Control_c, 0, 64, 31
1, 1699259, Control_c, 0, 67, 116
1, 1699276, Control_c, 0, 67, 105
1, 1699293, Control_c, 0, 67, 89
1, 1699312, Control_c, 0, 67, 69
1, 1699333, Control_c, 0, 67, 48
1, 1699350, Control_c, 0, 67, 28
1, 1699368, Control_c, 0, 67, 12
1, 1699406, Control_c, 0, 67, 0
1, 1699496, Note_on_c, 0, 83, 57
1, 1699536, Control_c, 0, 64, 40
1, 1699554, Control_c, 0, 64, 46
1, 1699559, Note_on_c, 0, 83, 0
1, 1699572, Control_c, 0, 64, 52
1, 1699585, Note_on_c, 0, 84, 72
1, 1699592, Control_c, 0, 64, 62
1, 1699610, Control_c, 0, 64, 73
1, 1699628, Control_c, 0, 64, 84
1, 1699647, Control_c, 0, 64, 98
1, 1699664, Control_c, 0, 64, 115
1, 1699672, Note_on_c, 0, 84, 0
1, 1699674, Note_on_c, 0, 85, 89
1, 1699683, Control_c, 0, 64, 127
1, 1699751, Note_on_c, 0, 84, 78
1, 1699830, Note_on_c, 0, 85, 0
1, 1699841, Note_on_c, 0, 82, 81
1, 1699860, Note_on_c, 0, 84, 0
1, 1699919, Note_on_c, 0, 82, 0
1, 1699935, Note_on_c, 0, 79, 70
1, 1699979, Note_on_c, 0, 79, 0
1, 1700024, Control_c, 0, 67, 9
1, 1700025, Note_on_c, 0, 76, 72
1, 1700044, Control_c, 0, 67, 14
1, 1700062, Control_c, 0, 67, 23
1, 1700068, Note_on_c, 0, 76, 0
1, 1700081, Control_c, 0, 67, 34
1, 1700099, Control_c, 0, 67, 46
1, 1700118, Control_c, 0, 64, 110
1, 1700118, Note_on_c, 0, 73, 66
1, 1700119, Control_c, 0, 67, 58
1, 1700138, Control_c, 0, 64, 85
1, 1700139, Control_c, 0, 67, 68
1, 1700156, Control_c, 0, 64, 59
1, 1700159, Control_c, 0, 67, 78
1, 1700172, Note_on_c, 0, 73, 0
1, 1700173, Control_c, 0, 64, 38
1, 1700174, Control_c, 0, 67, 89
1, 1700194, Control_c, 0, 64, 30
1, 1700196, Control_c, 0, 67, 101
1, 1700198, Note_on_c, 0, 36, 56
1, 1700205, Note_on_c, 0, 48, 45
1, 1700209, Note_on_c, 0, 72, 71
1, 1700211, Control_c, 0, 67, 114
1, 1700228, Control_c, 0, 67, 121
1, 1700235, Note_on_c, 0, 36, 0
1, 1700240, Note_on_c, 0, 72, 0
1, 1700243, Note_on_c, 0, 48, 0
1, 1700247, Control_c, 0, 64, 26
1, 1700248, Control_c, 0, 67, 126
1, 1700587, Note_on_c, 0, 48, 41
1, 1700589, Note_on_c, 0, 36, 41
1, 1700632, Note_on_c, 0, 48, 0
1, 1700636, Note_on_c, 0, 36, 0
1, 1700809, Note_on_c, 0, 37, 56
1, 1700813, Note_on_c, 0, 49, 49
1, 1700841, Note_on_c, 0, 37, 0
1, 1700847, Note_on_c, 0, 49, 0
1, 1702073, Note_on_c, 0, 71, 54
1, 1702082, Control_c, 0, 64, 36
1, 1702100, Control_c, 0, 64, 43
1, 1702119, Control_c, 0, 64, 54
1, 1702128, Note_on_c, 0, 71, 0
1, 1702138, Control_c, 0, 64, 71
1, 1702144, Note_on_c, 0, 72, 73
1, 1702158, Control_c, 0, 64, 84
1, 1702175, Control_c, 0, 64, 102
1, 1702176, Control_c, 0, 67, 115
1, 1702194, Control_c, 0, 64, 121
1, 1702195, Control_c, 0, 67, 103
1, 1702213, Control_c, 0, 64, 127
1, 1702215, Control_c, 0, 67, 79
1, 1702229, Note_on_c, 0, 72, 0
1, 1702231, Control_c, 0, 67, 40
1, 1702231, Note_on_c, 0, 73, 87
1, 1702251, Control_c, 0, 67, 0
1, 1702313, Note_on_c, 0, 72, 82
1, 1702322, Note_on_c, 0, 73, 0
1, 1702402, Note_on_c, 0, 70, 78
1, 1702427, Note_on_c, 0, 72, 0
1, 1702480, Note_on_c, 0, 70, 0
1, 1702491, Note_on_c, 0, 67, 73
1, 1702522, Note_on_c, 0, 67, 0
1, 1702527, Control_c, 0, 67, 13
1, 1702545, Control_c, 0, 67, 23
1, 1702565, Control_c, 0, 67, 38
1, 1702571, Note_on_c, 0, 64, 76
1, 1702583, Control_c, 0, 67, 57
1, 1702602, Control_c, 0, 64, 116
1, 1702603, Control_c, 0, 67, 76
1, 1702621, Control_c, 0, 64, 90
1, 1702622, Control_c, 0, 67, 93
1, 1702635, Note_on_c, 0, 64, 0
1, 1702637, Control_c, 0, 64, 64
1, 1702639, Control_c, 0, 67, 106
1, 1702656, Control_c, 0, 64, 42
1, 1702658, Control_c, 0, 67, 118
1, 1702670, Note_on_c, 0, 61, 63
1, 1702675, Control_c, 0, 64, 35
1, 1702677, Control_c, 0, 67, 125
1, 1702717, Note_on_c, 0, 61, 0
1, 1702744, Note_on_c, 0, 48, 62
1, 1702749, Note_on_c, 0, 36, 58
1, 1702766, Note_on_c, 0, 60, 73
1, 1702777, Control_c, 0, 64, 31
1, 1702793, Note_on_c, 0, 48, 0
1, 1702797, Note_on_c, 0, 36, 0
1, 1702798, Note_on_c, 0, 60, 0
1, 1703138, Note_on_c, 0, 36, 49
1, 1703139, Note_on_c, 0, 48, 48
1, 1703175, Note_on_c, 0, 48, 0
1, 1703177, Note_on_c, 0, 36, 0
1, 1703358, Note_on_c, 0, 49, 57
1, 1703364, Note_on_c, 0, 37, 50
1, 1703387, Note_on_c, 0, 49, 0
1, 1703400, Note_on_c, 0, 37, 0
1, 1703752, Note_on_c, 0, 49, 46
1, 1703755, Note_on_c, 0, 37, 48
1, 1703784, Note_on_c, 0, 49, 0
1, 1703795, Note_on_c, 0, 37, 0
1, 1703960, Note_on_c, 0, 60, 62
1, 1703975, Note_on_c, 0, 56, 38
1, 1703984, Note_on_c, 0, 44, 40
1, 1704000, Note_on_c, 0, 51, 18
1, 1704000, Note_on_c, 0, 32, 27
1, 1704002, Note_on_c, 0, 60, 0
1, 1704014, Note_on_c, 0, 56, 0
1, 1704028, Note_on_c, 0, 44, 0
1, 1704052, Note_on_c, 0, 32, 0
1, 1704060, Note_on_c, 0, 51, 0
1, 1704311, Note_on_c, 0, 44, 60
1, 1704315, Note_on_c, 0, 32, 55
1, 1704316, Note_on_c, 0, 60, 58
1, 1704319, Note_on_c, 0, 51, 52
1, 1704321, Note_on_c, 0, 56, 44
1, 1704348, Note_on_c, 0, 44, 0
1, 1704351, Note_on_c, 0, 60, 0
1, 1704352, Note_on_c, 0, 51, 0
1, 1704355, Note_on_c, 0, 56, 0
1, 1704357, Note_on_c, 0, 32, 0
1, 1704523, Note_on_c, 0, 49, 67
1, 1704524, Note_on_c, 0, 61, 76
1, 1704534, Note_on_c, 0, 56, 59
1, 1704538, Note_on_c, 0, 53, 60
1, 1704540, Note_on_c, 0, 37, 49
1, 1704561, Note_on_c, 0, 49, 0
1, 1704562, Note_on_c, 0, 61, 0
1, 1704566, Note_on_c, 0, 53, 0
1, 1704566, Note_on_c, 0, 56, 0
1, 1704575, Note_on_c, 0, 37, 0
1, 1704890, Note_on_c, 0, 61, 70
1, 1704895, Note_on_c, 0, 37, 58
1, 1704896, Note_on_c, 0, 53, 51
1, 1704900, Note_on_c, 0, 56, 49
1, 1704905, Note_on_c, 0, 49, 51
1, 1704919, Note_on_c, 0, 61, 0
1, 1704932, Note_on_c, 0, 56, 0
1, 1704932, Note_on_c, 0, 53, 0
1, 1704937, Note_on_c, 0, 37, 0
1, 1704942, Note_on_c, 0, 49, 0
1, 1705097, Note_on_c, 0, 48, 68
1, 1705102, Note_on_c, 0, 36, 57
1, 1705137, Note_on_c, 0, 48, 0
1, 1705139, Note_on_c, 0, 36, 0
1, 1705433, Note_on_c, 0, 36, 58
1, 1705438, Note_on_c, 0, 48, 57
1, 1705471, Note_on_c, 0, 36, 0
1, 1705472, Note_on_c, 0, 48, 0
1, 1705669, Note_on_c, 0, 49, 55
1, 1705677, Note_on_c, 0, 37, 49
1, 1705700, Note_on_c, 0, 49, 0
1, 1705716, Note_on_c, 0, 37, 0
1, 1706017, Note_on_c, 0, 49, 51
1, 1706029, Note_on_c, 0, 37, 49
1, 1706056, Note_on_c, 0, 49, 0
1, 1706067, Note_on_c, 0, 37, 0
1, 1706239, Note_on_c, 0, 60, 60
1, 1706245, Note_on_c, 0, 56, 51
1, 1706256, Note_on_c, 0, 51, 33
1, 1706257, Note_on_c, 0, 44, 40
1, 1706266, Note_on_c, 0, 32, 37
1, 1706272, Note_on_c, 0, 56, 0
1, 1706277, Note_on_c, 0, 60, 0
1, 1706301, Note_on_c, 0, 44, 0
1, 1706305, Note_on_c, 0, 51, 0
1, 1706312, Note_on_c, 0, 32, 0
1, 1706612, Note_on_c, 0, 44, 50
1, 1706612, Note_on_c, 0, 60, 62
1, 1706616, Note_on_c, 0, 32, 43
1, 1706619, Note_on_c, 0, 56, 50
1, 1706641, Note_on_c, 0, 51, 25
1, 1706648, Note_on_c, 0, 44, 0
1, 1706648, Note_on_c, 0, 56, 0
1, 1706651, Note_on_c, 0, 60, 0
1, 1706657, Note_on_c, 0, 32, 0
1, 1706698, Note_on_c, 0, 51, 0
1, 1706868, Note_on_c, 0, 61, 71
1, 1706868, Note_on_c, 0, 56, 48
1, 1706868, Note_on_c, 0, 53, 57
1, 1706871, Note_on_c, 0, 37, 60
1, 1706880, Note_on_c, 0, 49, 56
1, 1706897, Note_on_c, 0, 56, 0
1, 1706898, Note_on_c, 0, 53, 0
1, 1706899, Note_on_c, 0, 61, 0
1, 1706933, Note_on_c, 0, 37, 0
1, 1707256, Note_on_c, 0, 85, 69
1, 1707291, Note_on_c, 0, 85, 0
1, 1707453, Note_on_c, 0, 73, 60
1, 1707478, Note_on_c, 0, 78, 68
1, 1707494, Note_on_c, 0, 73, 0
1, 1707500, Note_on_c, 0, 82, 65
1, 1707511, Note_on_c, 0, 78, 0
1, 1707527, Note_on_c, 0, 37, 43
1, 1707530, Note_on_c, 0, 82, 0
1, 1707534, Note_on_c, 0, 87, 67
1, 1707548, Control_c, 0, 67, 120
1, 1707567, Control_c, 0, 67, 114
1, 1707570, Note_on_c, 0, 37, 0
1, 1707576, Note_on_c, 0, 87, 0
1, 1707584, Control_c, 0, 67, 104
1, 1707603, Control_c, 0, 67, 89
1, 1707622, Control_c, 0, 67, 69
1, 1707641, Control_c, 0, 67, 46
1, 1707661, Control_c, 0, 67, 25
1, 1707678, Control_c, 0, 67, 8
1, 1707695, Control_c, 0, 67, 0
1, 1707830, Note_on_c, 0, 73, 46
1, 1707851, Note_on_c, 0, 78, 52
1, 1707858, Note_on_c, 0, 82, 53
1, 1707861, Note_on_c, 0, 73, 0
1, 1707877, Note_on_c, 0, 78, 0
1, 1707881, Note_on_c, 0, 87, 76
1, 1707887, Note_on_c, 0, 82, 0
1, 1707918, Note_on_c, 0, 87, 0
1, 1707936, Control_c, 0, 64, 27
1, 1708057, Note_on_c, 0, 75, 65
1, 1708070, Note_on_c, 0, 37, 62
1, 1708080, Note_on_c, 0, 82, 60
1, 1708083, Note_on_c, 0, 85, 57
1, 1708088, Note_on_c, 0, 75, 0
1, 1708102, Note_on_c, 0, 82, 0
1, 1708108, Note_on_c, 0, 85, 0
1, 1708110, Note_on_c, 0, 90, 77
1, 1708112, Note_on_c, 0, 37, 0
1, 1708142, Note_on_c, 0, 90, 0
1, 1708424, Note_on_c, 0, 75, 46
1, 1708434, Note_on_c, 0, 82, 50
1, 1708452, Note_on_c, 0, 75, 0
1, 1708452, Note_on_c, 0, 85, 54
1, 1708468, Note_on_c, 0, 90, 80
1, 1708473, Note_on_c, 0, 82, 0
1, 1708479, Note_on_c, 0, 85, 0
1, 1708537, Note_on_c, 0, 90, 0
1, 1708697, Note_on_c, 0, 37, 58
1, 1708704, Note_on_c, 0, 85, 73
1, 1708715, Note_on_c, 0, 77, 61
1, 1708737, Note_on_c, 0, 37, 0
1, 1708738, Note_on_c, 0, 77, 0
1, 1708739, Note_on_c, 0, 85, 0
1, 1708974, Note_on_c, 0, 87, 65
1, 1709021, Note_on_c, 0, 87, 0
1, 1709061, Note_on_c, 0, 89, 77
1, 1709070, Note_on_c, 0, 85, 65
1, 1709091, Note_on_c, 0, 85, 0
1, 1709092, Note_on_c, 0, 89, 0
1, 1709224, Control_c, 0, 64, 23
1, 1709269, Note_on_c, 0, 37, 57
1, 1709298, Control_c, 0, 64, 34
1, 1709325, Control_c, 0, 64, 46
1, 1709328, Note_on_c, 0, 37, 0
1, 1709344, Control_c, 0, 64, 65
1, 1709363, Control_c, 0, 64, 81
1, 1709382, Control_c, 0, 64, 95
1, 1709399, Control_c, 0, 64, 109
1, 1709419, Control_c, 0, 64, 120
1, 1709437, Control_c, 0, 64, 126
1, 1709639, Note_on_c, 0, 85, 84
1, 1709686, Note_on_c, 0, 85, 0
1, 1709715, Note_on_c, 0, 49, 0
1, 1709777, Note_on_c, 0, 37, 62
1, 1709793, Note_on_c, 0, 73, 66
1, 1709827, Note_on_c, 0, 78, 67
1, 1709835, Note_on_c, 0, 73, 0
1, 1709845, Control_c, 0, 64, 121
1, 1709850, Note_on_c, 0, 82, 75
1, 1709859, Note_on_c, 0, 49, 59
1, 1709865, Note_on_c, 0, 78, 0
1, 1709865, Control_c, 0, 64, 90
1, 1709866, Note_on_c, 0, 37, 0
1, 1709870, Note_on_c, 0, 87, 88
1, 1709874, Note_on_c, 0, 82, 0
1, 1709880, Control_c, 0, 64, 55
1, 1709899, Control_c, 0, 64, 27
1, 1709925, Note_on_c, 0, 87, 0
1, 1710158, Note_on_c, 0, 73, 58
1, 1710159, Control_c, 0, 67, 8
1, 1710199, Control_c, 0, 67, 15
1, 1710201, Note_on_c, 0, 73, 0
1, 1710213, Note_on_c, 0, 78, 42
1, 1710217, Control_c, 0, 67, 20
1, 1710217, Note_on_c, 0, 82, 59
1, 1710234, Control_c, 0, 67, 25
1, 1710252, Note_on_c, 0, 87, 65
1, 1710253, Note_on_c, 0, 78, 0
1, 1710260, Note_on_c, 0, 82, 0
1, 1710279, Control_c, 0, 67, 30
1, 1710290, Note_on_c, 0, 87, 0
1, 1710417, Note_on_c, 0, 75, 55
1, 1710430, Note_on_c, 0, 37, 56
1, 1710430, Note_on_c, 0, 78, 51
1, 1710456, Note_on_c, 0, 82, 70
1, 1710465, Note_on_c, 0, 78, 0
1, 1710472, Note_on_c, 0, 75, 0
1, 1710487, Note_on_c, 0, 82, 0
1, 1710491, Note_on_c, 0, 37, 0
1, 1710792, Note_on_c, 0, 75, 49
1, 1710825, Note_on_c, 0, 82, 70
1, 1710830, Note_on_c, 0, 78, 45
1, 1710848, Note_on_c, 0, 75, 0
1, 1710861, Note_on_c, 0, 78, 0
1, 1710871, Note_on_c, 0, 82, 0
1, 1711065, Note_on_c, 0, 85, 80
1, 1711067, Note_on_c, 0, 37, 60
1, 1711085, Note_on_c, 0, 77, 58
1, 1711107, Note_on_c, 0, 77, 0
1, 1711120, Note_on_c, 0, 37, 0
1, 1711126, Note_on_c, 0, 85, 0
1, 1711345, Note_on_c, 0, 75, 66
1, 1711349, Note_on_c, 0, 80, 64
1, 1711371, Note_on_c, 0, 75, 0
1, 1711382, Note_on_c, 0, 80, 0
1, 1711459, Note_on_c, 0, 77, 61
1, 1711467, Note_on_c, 0, 73, 63
1, 1711483, Note_on_c, 0, 77, 0
1, 1711491, Note_on_c, 0, 73, 0
1, 1711512, Poly_aftertouch_c, 0, 76, 0
1, 1711533, Poly_aftertouch_c, 0, 76, 0
1, 1711550, Control_c, 0, 64, 23
1, 1711552, Control_c, 0, 67, 34
1, 1711586, Control_c, 0, 67, 38
1, 1711623, Control_c, 0, 67, 42
1, 1711662, Control_c, 0, 64, 19
1, 1711663, Control_c, 0, 67, 46
1, 1711674, Note_on_c, 0, 37, 58
1, 1711697, Control_c, 0, 67, 51
1, 1711736, Control_c, 0, 64, 31
1, 1711744, Note_on_c, 0, 37, 0
1, 1711752, Control_c, 0, 64, 42
1, 1711770, Control_c, 0, 64, 54
1, 1711789, Control_c, 0, 64, 69
1, 1711808, Control_c, 0, 64, 78
1, 1711827, Control_c, 0, 64, 89
1, 1711845, Control_c, 0, 64, 101
1, 1711864, Control_c, 0, 64, 113
1, 1711883, Control_c, 0, 64, 121
1, 1711901, Control_c, 0, 64, 126
1, 1712025, Note_on_c, 0, 80, 64
1, 1712028, Note_on_c, 0, 73, 59
1, 1712053, Note_on_c, 0, 73, 0
1, 1712062, Note_on_c, 0, 80, 0
1, 1712094, Note_on_c, 0, 49, 0
1, 1712106, Control_c, 0, 67, 58
1, 1712133, Control_c, 0, 67, 63
1, 1712145, Poly_aftertouch_c, 0, 77, 0
1, 1712152, Control_c, 0, 67, 72
1, 1712172, Control_c, 0, 67, 82
1, 1712188, Control_c, 0, 67, 91
1, 1712199, Note_on_c, 0, 37, 55
1, 1712206, Control_c, 0, 67, 101
1, 1712226, Control_c, 0, 67, 113
1, 1712244, Control_c, 0, 64, 107
1, 1712245, Control_c, 0, 67, 123
1, 1712264, Control_c, 0, 64, 76
1, 1712266, Control_c, 0, 67, 127
1, 1712272, Note_on_c, 0, 74, 78
1, 1712273, Note_on_c, 0, 77, 77
1, 1712277, Note_on_c, 0, 49, 64
1, 1712281, Note_on_c, 0, 80, 68
1, 1712281, Control_c, 0, 64, 44
1, 1712293, Note_on_c, 0, 37, 0
1, 1712296, Note_on_c, 0, 77, 0
1, 1712299, Control_c, 0, 64, 28
1, 1712302, Note_on_c, 0, 74, 0
1, 1712310, Note_on_c, 0, 80, 0
1, 1712631, Note_on_c, 0, 74, 59
1, 1712640, Note_on_c, 0, 80, 53
1, 1712654, Note_on_c, 0, 77, 33
1, 1712659, Note_on_c, 0, 74, 0
1, 1712668, Note_on_c, 0, 80, 0
1, 1712690, Note_on_c, 0, 77, 0
1, 1712849, Note_on_c, 0, 80, 62
1, 1712858, Note_on_c, 0, 37, 54
1, 1712867, Note_on_c, 0, 77, 47
1, 1712871, Note_on_c, 0, 71, 49
1, 1712890, Note_on_c, 0, 80, 0
1, 1712895, Note_on_c, 0, 77, 0
1, 1712902, Note_on_c, 0, 71, 0
1, 1712903, Note_on_c, 0, 37, 0
1, 1713203, Note_on_c, 0, 80, 69
1, 1713230, Note_on_c, 0, 77, 38
1, 1713243, Note_on_c, 0, 71, 22
1, 1713249, Note_on_c, 0, 80, 0
1, 1713264, Note_on_c, 0, 77, 0
1, 1713294, Note_on_c, 0, 71, 0
1, 1713434, Note_on_c, 0, 37, 55
1, 1713438, Note_on_c, 0, 78, 71
1, 1713444, Note_on_c, 0, 69, 56
1, 1713471, Note_on_c, 0, 78, 0
1, 1713471, Note_on_c, 0, 69, 0
1, 1713478, Note_on_c, 0, 37, 0
1, 1713695, Note_on_c, 0, 80, 68
1, 1713704, Note_on_c, 0, 71, 51
1, 1713726, Note_on_c, 0, 80, 0
1, 1713734, Note_on_c, 0, 71, 0
1, 1713779, Note_on_c, 0, 81, 73
1, 1713786, Note_on_c, 0, 73, 68
1, 1713806, Note_on_c, 0, 73, 0
1, 1713810, Note_on_c, 0, 81, 0
1, 1713884, Control_c, 0, 64, 23
1, 1713958, Control_c, 0, 64, 19
1, 1713965, Note_on_c, 0, 37, 55
1, 1714036, Note_on_c, 0, 37, 0
1, 1714115, Control_c, 0, 64, 37
1, 1714134, Control_c, 0, 64, 53
1, 1714152, Control_c, 0, 64, 70
1, 1714171, Control_c, 0, 64, 80
1, 1714189, Control_c, 0, 64, 89
1, 1714207, Control_c, 0, 64, 99
1, 1714225, Control_c, 0, 64, 112
1, 1714244, Control_c, 0, 64, 123
1, 1714263, Control_c, 0, 64, 127
1, 1714331, Note_on_c, 0, 78, 54
1, 1714336, Note_on_c, 0, 73, 64
1, 1714341, Note_on_c, 0, 81, 46
1, 1714356, Note_on_c, 0, 78, 0
1, 1714374, Note_on_c, 0, 73, 0
1, 1714378, Note_on_c, 0, 49, 0
1, 1714379, Note_on_c, 0, 81, 0
1, 1714489, Note_on_c, 0, 37, 53
1, 1714523, Control_c, 0, 64, 113
1, 1714536, Note_on_c, 0, 76, 81
1, 1714541, Control_c, 0, 64, 90
1, 1714543, Note_on_c, 0, 81, 63
1, 1714544, Note_on_c, 0, 79, 66
1, 1714544, Note_on_c, 0, 49, 68
1, 1714560, Control_c, 0, 64, 65
1, 1714562, Note_on_c, 0, 76, 0
1, 1714566, Note_on_c, 0, 37, 0
1, 1714572, Note_on_c, 0, 81, 0
1, 1714575, Note_on_c, 0, 79, 0
1, 1714578, Control_c, 0, 64, 40
1, 1714596, Control_c, 0, 64, 31
1, 1714929, Note_on_c, 0, 76, 60
1, 1714931, Note_on_c, 0, 79, 57
1, 1714933, Note_on_c, 0, 81, 49
1, 1714953, Note_on_c, 0, 76, 0
1, 1714961, Note_on_c, 0, 79, 0
1, 1714963, Note_on_c, 0, 81, 0
1, 1715071, Control_c, 0, 64, 27
1, 1715129, Note_on_c, 0, 37, 52
1, 1715145, Note_on_c, 0, 79, 50
1, 1715145, Note_on_c, 0, 81, 48
1, 1715146, Note_on_c, 0, 69, 52
1, 1715177, Note_on_c, 0, 79, 0
1, 1715177, Note_on_c, 0, 69, 0
1, 1715179, Note_on_c, 0, 37, 0
1, 1715180, Note_on_c, 0, 81, 0
1, 1715502, Note_on_c, 0, 69, 55
1, 1715516, Note_on_c, 0, 79, 44
1, 1715516, Note_on_c, 0, 81, 47
1, 1715530, Note_on_c, 0, 69, 0
1, 1715549, Note_on_c, 0, 81, 0
1, 1715552, Note_on_c, 0, 79, 0
1, 1715707, Note_on_c, 0, 79, 55
1, 1715707, Note_on_c, 0, 76, 69
1, 1715712, Note_on_c, 0, 81, 53
1, 1715719, Note_on_c, 0, 37, 50
1, 1715738, Note_on_c, 0, 76, 0
1, 1715743, Note_on_c, 0, 81, 0
1, 1715743, Note_on_c, 0, 79, 0
1, 1715764, Note_on_c, 0, 37, 0
1, 1716069, Note_on_c, 0, 76, 57
1, 1716071, Note_on_c, 0, 79, 58
1, 1716083, Note_on_c, 0, 81, 43
1, 1716096, Note_on_c, 0, 76, 0
1, 1716104, Note_on_c, 0, 79, 0
1, 1716115, Note_on_c, 0, 81, 0
1, 1716270, Note_on_c, 0, 37, 52
1, 1716273, Note_on_c, 0, 81, 53
1, 1716281, Note_on_c, 0, 79, 53
1, 1716285, Note_on_c, 0, 69, 54
1, 1716310, Note_on_c, 0, 69, 0
1, 1716315, Note_on_c, 0, 79, 0
1, 1716315, Note_on_c, 0, 81, 0
1, 1716325, Note_on_c, 0, 37, 0
1, 1716542, Control_c, 0, 64, 35
1, 1716561, Control_c, 0, 64, 45
1, 1716579, Control_c, 0, 64, 55
1, 1716599, Control_c, 0, 64, 68
1, 1716614, Control_c, 0, 64, 76
1, 1716615, Note_on_c, 0, 69, 62
1, 1716622, Note_on_c, 0, 79, 59
1, 1716627, Note_on_c, 0, 81, 57
1, 1716633, Control_c, 0, 64, 85
1, 1716641, Note_on_c, 0, 69, 0
1, 1716652, Control_c, 0, 64, 93
1, 1716653, Note_on_c, 0, 79, 0
1, 1716657, Note_on_c, 0, 81, 0
1, 1716671, Control_c, 0, 64, 101
1, 1716674, Note_on_c, 0, 49, 0
1, 1716690, Control_c, 0, 64, 107
1, 1716709, Control_c, 0, 64, 111
1, 1716766, Control_c, 0, 64, 101
1, 1716783, Control_c, 0, 64, 87
1, 1716792, Note_on_c, 0, 37, 56
1, 1716810, Control_c, 0, 64, 67
1, 1716828, Control_c, 0, 64, 47
1, 1716831, Note_on_c, 0, 75, 86
1, 1716832, Note_on_c, 0, 49, 73
1, 1716835, Note_on_c, 0, 81, 71
1, 1716836, Note_on_c, 0, 79, 72
1, 1716850, Control_c, 0, 64, 36
1, 1716858, Note_on_c, 0, 37, 0
1, 1716860, Note_on_c, 0, 75, 0
1, 1716871, Note_on_c, 0, 81, 0
1, 1716871, Note_on_c, 0, 79, 0
1, 1716903, Control_c, 0, 64, 31
1, 1717193, Note_on_c, 0, 75, 65
1, 1717196, Note_on_c, 0, 79, 59
1, 1717202, Note_on_c, 0, 81, 56
1, 1717222, Note_on_c, 0, 75, 0
1, 1717236, Note_on_c, 0, 79, 0
1, 1717240, Note_on_c, 0, 81, 0
1, 1717400, Note_on_c, 0, 79, 68
1, 1717401, Note_on_c, 0, 37, 54
1, 1717407, Note_on_c, 0, 69, 65
1, 1717412, Note_on_c, 0, 81, 59
1, 1717429, Note_on_c, 0, 69, 0
1, 1717434, Note_on_c, 0, 79, 0
1, 1717441, Note_on_c, 0, 81, 0
1, 1717457, Note_on_c, 0, 37, 0
1, 1717747, Control_c, 0, 64, 27
1, 1717766, Note_on_c, 0, 79, 62
1, 1717772, Note_on_c, 0, 69, 45
1, 1717778, Note_on_c, 0, 81, 48
1, 1717806, Note_on_c, 0, 69, 0
1, 1717810, Note_on_c, 0, 81, 0
1, 1717812, Note_on_c, 0, 79, 0
1, 1717995, Note_on_c, 0, 81, 49
1, 1717998, Note_on_c, 0, 37, 54
1, 1718000, Note_on_c, 0, 79, 61
1, 1718004, Note_on_c, 0, 75, 56
1, 1718032, Note_on_c, 0, 75, 0
1, 1718035, Note_on_c, 0, 81, 0
1, 1718037, Note_on_c, 0, 79, 0
1, 1718048, Note_on_c, 0, 37, 0
1, 1718355, Note_on_c, 0, 75, 54
1, 1718363, Note_on_c, 0, 79, 52
1, 1718363, Note_on_c, 0, 81, 49
1, 1718379, Note_on_c, 0, 75, 0
1, 1718392, Note_on_c, 0, 81, 0
1, 1718394, Note_on_c, 0, 79, 0
1, 1718563, Note_on_c, 0, 79, 61
1, 1718565, Note_on_c, 0, 37, 52
1, 1718568, Note_on_c, 0, 69, 62
1, 1718572, Note_on_c, 0, 81, 52
1, 1718590, Note_on_c, 0, 69, 0
1, 1718600, Note_on_c, 0, 81, 0
1, 1718604, Note_on_c, 0, 79, 0
1, 1718618, Note_on_c, 0, 37, 0
1, 1718926, Note_on_c, 0, 79, 60
1, 1718933, Note_on_c, 0, 69, 50
1, 1718934, Note_on_c, 0, 81, 58
1, 1718965, Note_on_c, 0, 79, 0
1, 1718965, Note_on_c, 0, 69, 0
1, 1718978, Note_on_c, 0, 81, 0
1, 1718979, Control_c, 0, 64, 23
1, 1718980, Note_on_c, 0, 49, 0
1, 1719080, Note_on_c, 0, 37, 40
1, 1719138, Note_on_c, 0, 49, 53
1, 1719138, Note_on_c, 0, 78, 66
1, 1719147, Note_on_c, 0, 75, 56
1, 1719150, Note_on_c, 0, 81, 63
1, 1719170, Note_on_c, 0, 37, 0
1, 1719171, Note_on_c, 0, 75, 0
1, 1719178, Note_on_c, 0, 78, 0
1, 1719184, Note_on_c, 0, 81, 0
1, 1719313, Control_c, 0, 64, 19
1, 1719497, Control_c, 0, 64, 15
1, 1719511, Note_on_c, 0, 78, 53
1, 1719513, Note_on_c, 0, 81, 57
1, 1719523, Note_on_c, 0, 75, 38
1, 1719556, Note_on_c, 0, 81, 0
1, 1719559, Note_on_c, 0, 75, 0
1, 1719559, Note_on_c, 0, 78, 0
1, 1719720, Note_on_c, 0, 37, 51
1, 1719735, Note_on_c, 0, 81, 63
1, 1719737, Note_on_c, 0, 78, 61
1, 1719738, Note_on_c, 0, 69, 56
1, 1719767, Note_on_c, 0, 69, 0
1, 1719774, Note_on_c, 0, 37, 0
1, 1719775, Note_on_c, 0, 78, 0
1, 1719783, Note_on_c, 0, 81, 0
1, 1719783, Control_c, 0, 64, 11
1, 1719857, Control_c, 0, 64, 0
1, 1720079, Note_on_c, 0, 81, 64
1, 1720084, Note_on_c, 0, 78, 60
1, 1720089, Note_on_c, 0, 69, 51
1, 1720126, Note_on_c, 0, 69, 0
1, 1720133, Note_on_c, 0, 78, 0
1, 1720150, Note_on_c, 0, 81, 0
1, 1720297, Note_on_c, 0, 37, 54
1, 1720301, Note_on_c, 0, 78, 59
1, 1720304, Note_on_c, 0, 75, 66
1, 1720309, Note_on_c, 0, 80, 64
1, 1720337, Note_on_c, 0, 78, 0
1, 1720337, Note_on_c, 0, 75, 0
1, 1720345, Note_on_c, 0, 37, 0
1, 1720346, Note_on_c, 0, 80, 0
1, 1720657, Note_on_c, 0, 75, 47
1, 1720660, Note_on_c, 0, 80, 59
1, 1720668, Note_on_c, 0, 78, 45
1, 1720697, Note_on_c, 0, 75, 0
1, 1720714, Note_on_c, 0, 78, 0
1, 1720730, Note_on_c, 0, 80, 0
1, 1720875, Note_on_c, 0, 78, 51
1, 1720884, Note_on_c, 0, 80, 54
1, 1720893, Note_on_c, 0, 37, 47
1, 1720893, Note_on_c, 0, 68, 37
1, 1720925, Note_on_c, 0, 80, 0
1, 1720932, Note_on_c, 0, 78, 0
1, 1720938, Note_on_c, 0, 68, 0
1, 1721015, Control_c, 0, 64, 20
1, 1721035, Control_c, 0, 64, 37
1, 1721053, Control_c, 0, 64, 57
1, 1721072, Control_c, 0, 64, 75
1, 1721092, Control_c, 0, 64, 85
1, 1721102, Note_on_c, 0, 37, 0
1, 1721109, Control_c, 0, 64, 96
1, 1721127, Control_c, 0, 64, 107
1, 1721147, Control_c, 0, 64, 118
1, 1721164, Control_c, 0, 64, 125
1, 1721168, Note_on_c, 0, 49, 0
1, 1721209, Note_on_c, 0, 78, 55
1, 1721211, Note_on_c, 0, 68, 48
1, 1721215, Note_on_c, 0, 80, 52
1, 1721248, Note_on_c, 0, 68, 0
1, 1721255, Note_on_c, 0, 78, 0
1, 1721287, Note_on_c, 0, 80, 0
1, 1721449, Note_on_c, 0, 75, 40
1, 1721449, Note_on_c, 0, 71, 56
1, 1721455, Note_on_c, 0, 80, 39
1, 1721461, Note_on_c, 0, 77, 41
1, 1721494, Note_on_c, 0, 71, 0
1, 1721514, Note_on_c, 0, 75, 0
1, 1721520, Note_on_c, 0, 77, 0
1, 1721544, Note_on_c, 0, 80, 0
1, 1721791, Note_on_c, 0, 75, 40
1, 1721806, Note_on_c, 0, 80, 41
1, 1721811, Note_on_c, 0, 77, 37
1, 1721856, Note_on_c, 0, 75, 0
1, 1721869, Note_on_c, 0, 77, 0
1, 1721899, Note_on_c, 0, 80, 0
1, 1722010, Note_on_c, 0, 80, 44
1, 1722018, Note_on_c, 0, 68, 56
1, 1722029, Note_on_c, 0, 37, 46
1, 1722030, Note_on_c, 0, 77, 44
1, 1722078, Note_on_c, 0, 77, 0
1, 1722092, Note_on_c, 0, 68, 0
1, 1722100, Control_c, 0, 67, 122
1, 1722107, Note_on_c, 0, 80, 0
1, 1722137, Control_c, 0, 67, 115
1, 1722155, Control_c, 0, 67, 107
1, 1722175, Control_c, 0, 67, 95
1, 1722193, Control_c, 0, 67, 78
1, 1722212, Control_c, 0, 67, 57
1, 1722228, Control_c, 0, 67, 35
1, 1722241, Note_on_c, 0, 37, 0
1, 1722245, Control_c, 0, 67, 14
1, 1722267, Control_c, 0, 67, 0
1, 1722371, Note_on_c, 0, 80, 60
1, 1722372, Note_on_c, 0, 68, 59
1, 1722376, Note_on_c, 0, 77, 54
1, 1722443, Note_on_c, 0, 68, 0
1, 1722481, Note_on_c, 0, 77, 0
1, 1722483, Note_on_c, 0, 80, 0
1, 1722594, Note_on_c, 0, 37, 47
1, 1722601, Note_on_c, 0, 74, 65
1, 1722609, Note_on_c, 0, 80, 51
1, 1722618, Note_on_c, 0, 77, 45
1, 1722683, Note_on_c, 0, 77, 0
1, 1722689, Note_on_c, 0, 37, 0
1, 1722690, Note_on_c, 0, 74, 0
1, 1722694, Note_on_c, 0, 80, 0
1, 1722974, Note_on_c, 0, 80, 44
1, 1722977, Note_on_c, 0, 74, 44
1, 1722987, Note_on_c, 0, 77, 38
1, 1723032, Note_on_c, 0, 74, 0
1, 1723039, Note_on_c, 0, 77, 0
1, 1723092, Note_on_c, 0, 80, 0
1, 1723170, Note_on_c, 0, 37, 39
1, 1723180, Note_on_c, 0, 80, 44
1, 1723187, Note_on_c, 0, 77, 46
1, 1723191, Note_on_c, 0, 68, 45
1, 1723261, Note_on_c, 0, 37, 0
1, 1723262, Note_on_c, 0, 77, 0
1, 1723298, Note_on_c, 0, 68, 0
1, 1723348, Note_on_c, 0, 80, 0
1, 1723516, Note_on_c, 0, 80, 60
1, 1723533, Note_on_c, 0, 77, 52
1, 1723541, Note_on_c, 0, 68, 46
1, 1723563, Note_on_c, 0, 77, 0
1, 1723565, Note_on_c, 0, 80, 0
1, 1723606, Note_on_c, 0, 68, 0
1, 1723740, Note_on_c, 0, 70, 66
1, 1723743, Note_on_c, 0, 78, 52
1, 1723749, Note_on_c, 0, 77, 51
1, 1723752, Note_on_c, 0, 73, 55
1, 1723818, Note_on_c, 0, 70, 0
1, 1723839, Note_on_c, 0, 73, 0
1, 1723855, Note_on_c, 0, 77, 0
1, 1723891, Note_on_c, 0, 78, 0
1, 1724089, Note_on_c, 0, 73, 50
1, 1724095, Note_on_c, 0, 77, 53
1, 1724097, Note_on_c, 0, 78, 38
1, 1724152, Note_on_c, 0, 73, 0
1, 1724154, Note_on_c, 0, 77, 0
1, 1724163, Note_on_c, 0, 78, 0
1, 1724272, Note_on_c, 0, 37, 60
1, 1724305, Note_on_c, 0, 77, 67
1, 1724308, Note_on_c, 0, 78, 58
1, 1724310, Note_on_c, 0, 66, 51
1, 1724357, Note_on_c, 0, 78, 0
1, 1724361, Note_on_c, 0, 37, 0
1, 1724364, Note_on_c, 0, 66, 0
1, 1724380, Note_on_c, 0, 77, 0
1, 1724640, Note_on_c, 0, 77, 66
1, 1724641, Note_on_c, 0, 66, 59
1, 1724652, Note_on_c, 0, 78, 54
1, 1724691, Note_on_c, 0, 66, 0
1, 1724696, Note_on_c, 0, 78, 0
1, 1724710, Note_on_c, 0, 77, 0
1, 1724834, Note_on_c, 0, 37, 57
1, 1724848, Note_on_c, 0, 78, 62
1, 1724853, Note_on_c, 0, 73, 66
1, 1724855, Note_on_c, 0, 75, 66
1, 1724886, Note_on_c, 0, 37, 0
1, 1724895, Note_on_c, 0, 73, 0
1, 1724901, Note_on_c, 0, 78, 0
1, 1724903, Note_on_c, 0, 75, 0
1, 1724906, Control_c, 0, 67, 8
1, 1724962, Control_c, 0, 67, 12
1, 1724981, Control_c, 0, 67, 17
1, 1725000, Control_c, 0, 67, 23
1, 1725018, Control_c, 0, 67, 29
1, 1725035, Control_c, 0, 67, 34
1, 1725053, Control_c, 0, 67, 39
1, 1725073, Control_c, 0, 67, 43
1, 1725091, Control_c, 0, 67, 49
1, 1725110, Control_c, 0, 67, 55
1, 1725129, Control_c, 0, 67, 61
1, 1725148, Control_c, 0, 67, 67
1, 1725166, Control_c, 0, 67, 73
1, 1725184, Control_c, 0, 67, 77
1, 1725192, Note_on_c, 0, 75, 51
1, 1725201, Note_on_c, 0, 73, 49
1, 1725203, Note_on_c, 0, 78, 41
1, 1725203, Control_c, 0, 67, 82
1, 1725230, Control_c, 0, 67, 87
1, 1725249, Control_c, 0, 67, 93
1, 1725267, Control_c, 0, 67, 98
1, 1725270, Note_on_c, 0, 75, 0
1, 1725275, Note_on_c, 0, 73, 0
1, 1725281, Note_on_c, 0, 78, 0
1, 1725286, Control_c, 0, 67, 103
1, 1725305, Control_c, 0, 67, 107
1, 1725342, Control_c, 0, 67, 111
1, 1725415, Control_c, 0, 67, 116
1, 1725421, Note_on_c, 0, 37, 49
1, 1725427, Note_on_c, 0, 75, 52
1, 1725428, Note_on_c, 0, 66, 50
1, 1725434, Note_on_c, 0, 78, 50
1, 1725453, Control_c, 0, 67, 121
1, 1725473, Note_on_c, 0, 37, 0
1, 1725490, Control_c, 0, 67, 125
1, 1725522, Note_on_c, 0, 75, 0
1, 1725530, Note_on_c, 0, 66, 0
1, 1725533, Note_on_c, 0, 78, 0
1, 1725771, Note_on_c, 0, 66, 51
1, 1725783, Note_on_c, 0, 78, 49
1, 1725783, Note_on_c, 0, 75, 48
1, 1725837, Note_on_c, 0, 66, 0
1, 1725846, Note_on_c, 0, 75, 0
1, 1725861, Note_on_c, 0, 78, 0
1, 1725937, Control_c, 0, 64, 98
1, 1725955, Control_c, 0, 64, 69
1, 1725972, Control_c, 0, 64, 58
1, 1725990, Control_c, 0, 64, 62
1, 1725997, Note_on_c, 0, 69, 65
1, 1726008, Control_c, 0, 64, 71
1, 1726012, Note_on_c, 0, 78, 51
1, 1726016, Note_on_c, 0, 75, 44
1, 1726027, Control_c, 0, 64, 82
1, 1726039, Note_on_c, 0, 73, 38
1, 1726045, Control_c, 0, 64, 101
1, 1726066, Control_c, 0, 64, 124
1, 1726077, Note_on_c, 0, 75, 0
1, 1726085, Note_on_c, 0, 73, 0
1, 1726100, Note_on_c, 0, 69, 0
1, 1726106, Note_on_c, 0, 78, 0
1, 1726361, Note_on_c, 0, 73, 46
1, 1726363, Note_on_c, 0, 75, 42
1, 1726364, Note_on_c, 0, 78, 40
1, 1726415, Note_on_c, 0, 75, 0
1, 1726432, Note_on_c, 0, 78, 0
1, 1726432, Note_on_c, 0, 73, 0
1, 1726573, Note_on_c, 0, 75, 38
1, 1726578, Note_on_c, 0, 66, 42
1, 1726582, Note_on_c, 0, 78, 47
1, 1726587, Note_on_c, 0, 37, 32
1, 1726626, Note_on_c, 0, 75, 0
1, 1726634, Note_on_c, 0, 78, 0
1, 1726638, Note_on_c, 0, 37, 0
1, 1726640, Note_on_c, 0, 66, 0
1, 1726944, Note_on_c, 0, 75, 49
1, 1726946, Note_on_c, 0, 78, 50
1, 1726947, Note_on_c, 0, 66, 37
1, 1726999, Note_on_c, 0, 75, 0
1, 1727007, Note_on_c, 0, 66, 0
1, 1727007, Note_on_c, 0, 78, 0
1, 1727149, Note_on_c, 0, 37, 47
1, 1727151, Note_on_c, 0, 78, 54
1, 1727154, Note_on_c, 0, 75, 47
1, 1727171, Note_on_c, 0, 72, 46
1, 1727189, Note_on_c, 0, 37, 0
1, 1727192, Note_on_c, 0, 75, 0
1, 1727198, Note_on_c, 0, 78, 0
1, 1727203, Note_on_c, 0, 72, 0
1, 1727493, Note_on_c, 0, 78, 52
1, 1727498, Note_on_c, 0, 72, 51
1, 1727511, Note_on_c, 0, 75, 44
1, 1727542, Note_on_c, 0, 72, 0
1, 1727546, Note_on_c, 0, 75, 0
1, 1727548, Note_on_c, 0, 78, 0
1, 1727702, Note_on_c, 0, 75, 54
1, 1727708, Note_on_c, 0, 37, 41
1, 1727714, Note_on_c, 0, 78, 56
1, 1727748, Note_on_c, 0, 66, 18
1, 1727753, Note_on_c, 0, 75, 0
1, 1727754, Note_on_c, 0, 37, 0
1, 1727760, Note_on_c, 0, 78, 0
1, 1727809, Note_on_c, 0, 66, 0
1, 1728062, Note_on_c, 0, 78, 66
1, 1728071, Note_on_c, 0, 75, 56
1, 1728084, Note_on_c, 0, 66, 46
1, 1728101, Note_on_c, 0, 75, 0
1, 1728118, Note_on_c, 0, 66, 0
1, 1728127, Note_on_c, 0, 78, 0
1, 1728186, Note_on_c, 0, 37, 47
1, 1728274, Note_on_c, 0, 49, 61
1, 1728277, Control_c, 0, 64, 99
1, 1728279, Note_on_c, 0, 77, 69
1, 1728281, Note_on_c, 0, 37, 0
1, 1728294, Note_on_c, 0, 73, 55
1, 1728295, Control_c, 0, 64, 69
1, 1728316, Control_c, 0, 64, 40
1, 1728324, Note_on_c, 0, 73, 0
1, 1728333, Note_on_c, 0, 77, 0
1, 1728335, Control_c, 0, 64, 26
1, 1728370, Control_c, 0, 64, 22
1, 1728634, Note_on_c, 0, 77, 66
1, 1728667, Note_on_c, 0, 73, 17
1, 1728687, Note_on_c, 0, 77, 0
1, 1728703, Note_on_c, 0, 73, 0
1, 1728833, Note_on_c, 0, 68, 65
1, 1728839, Note_on_c, 0, 65, 51
1, 1728865, Note_on_c, 0, 68, 0
1, 1728872, Note_on_c, 0, 65, 0
1, 1729185, Note_on_c, 0, 68, 69
1, 1729196, Note_on_c, 0, 65, 49
1, 1729217, Note_on_c, 0, 68, 0
1, 1729228, Note_on_c, 0, 65, 0
1, 1729382, Note_on_c, 0, 77, 77
1, 1729392, Note_on_c, 0, 73, 62
1, 1729393, Note_on_c, 0, 37, 55
1, 1729413, Note_on_c, 0, 73, 0
1, 1729424, Note_on_c, 0, 77, 0
1, 1729445, Note_on_c, 0, 37, 0
1, 1729747, Note_on_c, 0, 77, 58
1, 1729757, Note_on_c, 0, 73, 43
1, 1729785, Note_on_c, 0, 77, 0
1, 1729792, Note_on_c, 0, 73, 0
1, 1729949, Note_on_c, 0, 65, 52
1, 1729951, Note_on_c, 0, 68, 64
1, 1729986, Note_on_c, 0, 68, 0
1, 1729988, Note_on_c, 0, 65, 0
1, 1730309, Note_on_c, 0, 68, 63
1, 1730312, Note_on_c, 0, 65, 56
1, 1730344, Note_on_c, 0, 68, 0
1, 1730344, Note_on_c, 0, 65, 0
1, 1730515, Note_on_c, 0, 77, 71
1, 1730517, Note_on_c, 0, 73, 67
1, 1730529, Note_on_c, 0, 37, 56
1, 1730541, Note_on_c, 0, 73, 0
1, 1730545, Note_on_c, 0, 77, 0
1, 1730584, Note_on_c, 0, 37, 0
1, 1731101, Note_on_c, 0, 68, 56
1, 1731107, Note_on_c, 0, 65, 44
1, 1731130, Note_on_c, 0, 68, 0
1, 1731143, Note_on_c, 0, 65, 0
1, 1731669, Note_on_c, 0, 37, 54
1, 1731708, Note_on_c, 0, 37, 0
1, 1732247, Note_on_c, 0, 65, 53
1, 1732247, Note_on_c, 0, 68, 57
1, 1732272, Note_on_c, 0, 68, 0
1, 1732279, Note_on_c, 0, 65, 0
1, 1732495, Note_on_c, 0, 49, 0
1, 1732806, Note_on_c, 0, 48, 49
1, 1732808, Note_on_c, 0, 36, 50
1, 1732845, Note_on_c, 0, 48, 0
1, 1732851, Note_on_c, 0, 36, 0
1, 1733189, Note_on_c, 0, 36, 58
1, 1733197, Note_on_c, 0, 48, 49
1, 1733223, Note_on_c, 0, 36, 0
1, 1733235, Note_on_c, 0, 48, 0
1, 1733407, Note_on_c, 0, 49, 65
1, 1733409, Note_on_c, 0, 37, 64
1, 1733434, Note_on_c, 0, 49, 0
1, 1733445, Note_on_c, 0, 37, 0
1, 1733790, Note_on_c, 0, 49, 63
1, 1733791, Note_on_c, 0, 37, 66
1, 1733823, Note_on_c, 0, 49, 0
1, 1733825, Note_on_c, 0, 37, 0
1, 1734018, Note_on_c, 0, 44, 72
1, 1734018, Note_on_c, 0, 32, 70
1, 1734050, Note_on_c, 0, 32, 0
1, 1734054, Note_on_c, 0, 44, 0
1, 1734291, Note_on_c, 0, 34, 58
1, 1734292, Note_on_c, 0, 46, 57
1, 1734326, Note_on_c, 0, 46, 0
1, 1734328, Note_on_c, 0, 34, 0
1, 1734369, Note_on_c, 0, 36, 71
1, 1734379, Note_on_c, 0, 48, 66
1, 1734416, Note_on_c, 0, 48, 0
1, 1734425, Note_on_c, 0, 36, 0
1, 1735083, Note_on_c, 0, 48, 35
1, 1735128, Note_on_c, 0, 48, 0
1, 1735326, Note_on_c, 0, 60, 66
1, 1735327, Note_on_c, 0, 51, 59
1, 1735330, Note_on_c, 0, 44, 49
1, 1735334, Note_on_c, 0, 32, 51
1, 1735337, Note_on_c, 0, 56, 51
1, 1735358, Note_on_c, 0, 51, 0
1, 1735364, Note_on_c, 0, 60, 0
1, 1735366, Note_on_c, 0, 56, 0
1, 1735368, Note_on_c, 0, 44, 0
1, 1735370, Note_on_c, 0, 32, 0
1, 1735419, Control_c, 0, 67, 119
1, 1735457, Control_c, 0, 67, 111
1, 1735476, Control_c, 0, 67, 104
1, 1735494, Control_c, 0, 67, 94
1, 1735514, Control_c, 0, 67, 81
1, 1735539, Control_c, 0, 67, 64
1, 1735560, Control_c, 0, 67, 44
1, 1735577, Control_c, 0, 67, 24
1, 1735614, Control_c, 0, 67, 0
1, 1735694, Note_on_c, 0, 60, 73
1, 1735704, Note_on_c, 0, 44, 57
1, 1735704, Note_on_c, 0, 51, 55
1, 1735704, Note_on_c, 0, 32, 55
1, 1735707, Note_on_c, 0, 56, 50
1, 1735736, Note_on_c, 0, 60, 0
1, 1735736, Note_on_c, 0, 44, 0
1, 1735738, Note_on_c, 0, 56, 0
1, 1735738, Note_on_c, 0, 51, 0
1, 1735740, Note_on_c, 0, 32, 0
1, 1735909, Note_on_c, 0, 49, 75
1, 1735913, Note_on_c, 0, 56, 69
1, 1735915, Note_on_c, 0, 53, 72
1, 1735918, Note_on_c, 0, 37, 59
1, 1735919, Note_on_c, 0, 61, 71
1, 1735941, Note_on_c, 0, 49, 0
1, 1735943, Note_on_c, 0, 56, 0
1, 1735950, Note_on_c, 0, 53, 0
1, 1735952, Note_on_c, 0, 37, 0
1, 1735953, Note_on_c, 0, 61, 0
1, 1736208, Control_c, 0, 67, 8
1, 1736245, Control_c, 0, 67, 16
1, 1736281, Control_c, 0, 67, 23
1, 1736291, Note_on_c, 0, 61, 66
1, 1736292, Note_on_c, 0, 37, 63
1, 1736297, Note_on_c, 0, 49, 58
1, 1736298, Note_on_c, 0, 53, 49
1, 1736301, Control_c, 0, 67, 30
1, 1736305, Note_on_c, 0, 56, 42
1, 1736320, Control_c, 0, 67, 39
1, 1736328, Note_on_c, 0, 49, 0
1, 1736333, Note_on_c, 0, 61, 0
1, 1736335, Note_on_c, 0, 53, 0
1, 1736335, Note_on_c, 0, 37, 0
1, 1736338, Control_c, 0, 67, 48
1, 1736342, Note_on_c, 0, 56, 0
1, 1736357, Control_c, 0, 67, 58
1, 1736375, Control_c, 0, 67, 71
1, 1736394, Control_c, 0, 67, 87
1, 1736412, Control_c, 0, 67, 99
1, 1736431, Control_c, 0, 67, 107
1, 1736450, Control_c, 0, 67, 114
1, 1736476, Control_c, 0, 67, 119
1, 1736494, Control_c, 0, 67, 125
1, 1736516, Note_on_c, 0, 48, 55
1, 1736518, Note_on_c, 0, 36, 56
1, 1736550, Note_on_c, 0, 48, 0
1, 1736554, Note_on_c, 0, 36, 0
1, 1736891, Note_on_c, 0, 36, 52
1, 1736892, Note_on_c, 0, 48, 54
1, 1736926, Note_on_c, 0, 48, 0
1, 1736930, Note_on_c, 0, 36, 0
1, 1737102, Note_on_c, 0, 49, 75
1, 1737117, Note_on_c, 0, 37, 58
1, 1737138, Note_on_c, 0, 49, 0
1, 1737149, Note_on_c, 0, 37, 0
1, 1737496, Note_on_c, 0, 49, 48
1, 1737498, Note_on_c, 0, 37, 45
1, 1737533, Note_on_c, 0, 49, 0
1, 1737539, Note_on_c, 0, 37, 0
1, 1737757, Note_on_c, 0, 41, 64
1, 1737764, Note_on_c, 0, 29, 57
1, 1737764, Note_on_c, 0, 56, 60
1, 1737772, Note_on_c, 0, 60, 55
1, 1737785, Note_on_c, 0, 53, 31
1, 1737786, Note_on_c, 0, 53, 0
1, 1737789, Note_on_c, 0, 41, 0
1, 1737792, Note_on_c, 0, 56, 0
1, 1737804, Note_on_c, 0, 60, 0
1, 1737804, Note_on_c, 0, 29, 0
1, 1738131, Note_on_c, 0, 60, 71
1, 1738132, Note_on_c, 0, 56, 58
1, 1738134, Control_c, 0, 67, 118
1, 1738135, Note_on_c, 0, 41, 57
1, 1738136, Note_on_c, 0, 53, 47
1, 1738138, Note_on_c, 0, 29, 53
1, 1738156, Control_c, 0, 67, 112
1, 1738160, Note_on_c, 0, 60, 0
1, 1738160, Note_on_c, 0, 56, 0
1, 1738160, Note_on_c, 0, 53, 0
1, 1738160, Note_on_c, 0, 41, 0
1, 1738160, Control_c, 0, 67, 102
1, 1738165, Note_on_c, 0, 29, 0
1, 1738173, Control_c, 0, 67, 87
1, 1738192, Control_c, 0, 67, 69
1, 1738211, Control_c, 0, 67, 50
1, 1738231, Control_c, 0, 67, 35
1, 1738249, Control_c, 0, 67, 25
1, 1738267, Control_c, 0, 67, 19
1, 1738336, Note_on_c, 0, 61, 76
1, 1738340, Note_on_c, 0, 53, 61
1, 1738341, Note_on_c, 0, 58, 64
1, 1738343, Note_on_c, 0, 46, 74
1, 1738346, Note_on_c, 0, 34, 68
1, 1738367, Note_on_c, 0, 58, 0
1, 1738369, Note_on_c, 0, 53, 0
1, 1738376, Note_on_c, 0, 61, 0
1, 1738378, Note_on_c, 0, 34, 0
1, 1738381, Note_on_c, 0, 46, 0
1, 1738682, Note_on_c, 0, 61, 80
1, 1738686, Note_on_c, 0, 34, 67
1, 1738688, Note_on_c, 0, 58, 70
1, 1738689, Note_on_c, 0, 53, 62
1, 1738695, Note_on_c, 0, 46, 59
1, 1738720, Note_on_c, 0, 58, 0
1, 1738720, Note_on_c, 0, 53, 0
1, 1738727, Note_on_c, 0, 34, 0
1, 1738730, Note_on_c, 0, 46, 0
1, 1738736, Note_on_c, 0, 61, 0
1, 1738905, Control_c, 0, 67, 24
1, 1738917, Note_on_c, 0, 41, 77
1, 1738919, Note_on_c, 0, 56, 77
1, 1738922, Note_on_c, 0, 53, 69
1, 1738922, Note_on_c, 0, 29, 70
1, 1738923, Control_c, 0, 67, 28
1, 1738943, Control_c, 0, 67, 35
1, 1738951, Note_on_c, 0, 56, 0
1, 1738953, Note_on_c, 0, 41, 0
1, 1738958, Note_on_c, 0, 53, 0
1, 1738960, Note_on_c, 0, 29, 0
1, 1738962, Control_c, 0, 67, 43
1, 1738980, Control_c, 0, 67, 50
1, 1738996, Control_c, 0, 67, 57
1, 1739017, Control_c, 0, 67, 64
1, 1739035, Control_c, 0, 67, 72
1, 1739053, Control_c, 0, 67, 83
1, 1739072, Control_c, 0, 67, 94
1, 1739090, Control_c, 0, 67, 101
1, 1739177, Note_on_c, 0, 58, 68
1, 1739184, Control_c, 0, 67, 106
1, 1739190, Note_on_c, 0, 29, 67
1, 1739202, Control_c, 0, 67, 111
1, 1739209, Note_on_c, 0, 58, 0
1, 1739240, Control_c, 0, 67, 115
1, 1739259, Note_on_c, 0, 41, 77
1, 1739266, Note_on_c, 0, 29, 0
1, 1739271, Note_on_c, 0, 56, 78
1, 1739277, Note_on_c, 0, 60, 80
1, 1739296, Note_on_c, 0, 41, 0
1, 1739299, Note_on_c, 0, 56, 0
1, 1739302, Control_c, 0, 67, 122
1, 1739316, Note_on_c, 0, 60, 0
1, 1739323, Control_c, 0, 67, 127
1, 1739841, Control_c, 0, 64, 28
1, 1739878, Control_c, 0, 64, 32
1, 1739894, Note_on_c, 0, 60, 61
1, 1739916, Control_c, 0, 64, 39
1, 1739935, Control_c, 0, 64, 43
1, 1739953, Control_c, 0, 64, 52
1, 1739973, Control_c, 0, 64, 61
1, 1739990, Control_c, 0, 64, 64
1, 1740008, Control_c, 0, 64, 67
1, 1740026, Control_c, 0, 64, 71
1, 1740045, Control_c, 0, 64, 78
1, 1740065, Control_c, 0, 64, 88
1, 1740082, Control_c, 0, 64, 96
1, 1740101, Control_c, 0, 64, 104
1, 1740120, Control_c, 0, 64, 110
1, 1740138, Control_c, 0, 64, 116
1, 1740157, Control_c, 0, 64, 122
1, 1740172, Note_on_c, 0, 41, 42
1, 1740175, Control_c, 0, 64, 127
1, 1740203, Note_on_c, 0, 51, 38
1, 1740238, Note_on_c, 0, 56, 27
1, 1740295, Control_c, 0, 67, 121
1, 1740333, Control_c, 0, 67, 115
1, 1740352, Control_c, 0, 67, 110
1, 1740370, Control_c, 0, 67, 103
1, 1740387, Control_c, 0, 67, 96
1, 1740405, Control_c, 0, 67, 88
1, 1740425, Control_c, 0, 67, 80
1, 1740443, Control_c, 0, 67, 72
1, 1740462, Control_c, 0, 67, 64
1, 1740480, Control_c, 0, 67, 56
1, 1740498, Control_c, 0, 67, 48
1, 1740516, Control_c, 0, 67, 42
1, 1740531, Note_on_c, 0, 41, 0
1, 1740534, Control_c, 0, 67, 38
1, 1740554, Control_c, 0, 67, 33
1, 1740573, Control_c, 0, 67, 29
1, 1740604, Note_on_c, 0, 50, 33
1, 1740609, Control_c, 0, 67, 23
1, 1740625, Note_on_c, 0, 62, 55
1, 1740647, Control_c, 0, 67, 18
1, 1740721, Note_on_c, 0, 56, 0
1, 1740900, Note_on_c, 0, 43, 41
1, 1740936, Note_on_c, 0, 48, 42
1, 1740951, Note_on_c, 0, 60, 0
1, 1740967, Note_on_c, 0, 63, 61
1, 1740987, Note_on_c, 0, 55, 39
1, 1741042, Note_on_c, 0, 51, 0
1, 1741049, Note_on_c, 0, 62, 0
1, 1741055, Control_c, 0, 64, 122
1, 1741073, Control_c, 0, 64, 95
1, 1741093, Control_c, 0, 64, 63
1, 1741112, Control_c, 0, 64, 40
1, 1741137, Note_on_c, 0, 50, 0
1, 1741157, Control_c, 0, 64, 42
1, 1741174, Control_c, 0, 64, 52
1, 1741194, Control_c, 0, 64, 63
1, 1741212, Control_c, 0, 64, 73
1, 1741232, Control_c, 0, 64, 86
1, 1741250, Control_c, 0, 64, 103
1, 1741270, Control_c, 0, 64, 118
1, 1741288, Control_c, 0, 64, 126
1, 1741342, Control_c, 0, 67, 22
1, 1741375, Note_on_c, 0, 43, 0
1, 1741411, Note_on_c, 0, 50, 38
1, 1741452, Control_c, 0, 67, 27
1, 1741489, Control_c, 0, 67, 31
1, 1741503, Note_on_c, 0, 55, 0
1, 1741526, Control_c, 0, 67, 35
1, 1741564, Control_c, 0, 67, 42
1, 1741583, Control_c, 0, 67, 50
1, 1741601, Control_c, 0, 67, 58
1, 1741621, Control_c, 0, 67, 66
1, 1741639, Control_c, 0, 67, 70
1, 1741676, Control_c, 0, 67, 77
1, 1741710, Note_on_c, 0, 44, 29
1, 1741712, Control_c, 0, 67, 82
1, 1741732, Note_on_c, 0, 60, 57
1, 1741735, Note_on_c, 0, 51, 29
1, 1741749, Control_c, 0, 67, 87
1, 1741765, Note_on_c, 0, 53, 21
1, 1741787, Control_c, 0, 67, 93
1, 1741807, Control_c, 0, 67, 97
1, 1741824, Control_c, 0, 67, 103
1, 1741844, Control_c, 0, 64, 118
1, 1741846, Control_c, 0, 67, 110
1, 1741861, Control_c, 0, 64, 88
1, 1741862, Control_c, 0, 67, 114
1, 1741879, Control_c, 0, 64, 57
1, 1741897, Note_on_c, 0, 50, 0
1, 1741897, Note_on_c, 0, 48, 0
1, 1741898, Control_c, 0, 64, 37
1, 1741916, Note_on_c, 0, 63, 0
1, 1741916, Control_c, 0, 67, 120
1, 1741934, Control_c, 0, 67, 124
1, 1741953, Control_c, 0, 64, 44
1, 1741972, Control_c, 0, 64, 56
1, 1741992, Control_c, 0, 64, 67
1, 1742009, Control_c, 0, 64, 78
1, 1742029, Control_c, 0, 64, 91
1, 1742047, Control_c, 0, 64, 103
1, 1742075, Control_c, 0, 64, 111
1, 1742092, Control_c, 0, 64, 117
1, 1742111, Control_c, 0, 64, 122
1, 1742129, Control_c, 0, 64, 126
1, 1742251, Note_on_c, 0, 53, 0
1, 1742294, Note_on_c, 0, 44, 0
1, 1742342, Note_on_c, 0, 62, 60
1, 1742343, Note_on_c, 0, 51, 0
1, 1742371, Note_on_c, 0, 50, 32
1, 1742388, Note_on_c, 0, 60, 0
1, 1742570, Note_on_c, 0, 50, 0
1, 1742853, Note_on_c, 0, 64, 45
1, 1742873, Note_on_c, 0, 55, 19
1, 1742882, Note_on_c, 0, 60, 42
1, 1742885, Note_on_c, 0, 43, 31
1, 1742898, Note_on_c, 0, 36, 28
1, 1742900, Note_on_c, 0, 48, 25
1, 1742931, Note_on_c, 0, 62, 0
1, 1742983, Control_c, 0, 64, 118
1, 1743009, Control_c, 0, 64, 93
1, 1743028, Control_c, 0, 64, 62
1, 1743046, Control_c, 0, 64, 24
1, 1743067, Control_c, 0, 64, 9
1, 1743119, Control_c, 0, 64, 0
1, 1743156, Control_c, 0, 64, 10
1, 1743176, Control_c, 0, 64, 32
1, 1743193, Control_c, 0, 64, 51
1, 1743213, Control_c, 0, 64, 72
1, 1743232, Control_c, 0, 64, 87
1, 1743251, Control_c, 0, 64, 102
1, 1743269, Control_c, 0, 64, 115
1, 1743288, Control_c, 0, 64, 125
1, 1743408, Note_on_c, 0, 55, 0
1, 1743426, Note_on_c, 0, 48, 0
1, 1743432, Note_on_c, 0, 36, 0
1, 1743487, Note_on_c, 0, 60, 0
1, 1743491, Note_on_c, 0, 43, 0
1, 1743569, Note_on_c, 0, 64, 0
1, 1743733, Control_c, 0, 64, 104
1, 1743750, Control_c, 0, 64, 76
1, 1743770, Control_c, 0, 64, 51
1, 1743787, Control_c, 0, 64, 41
1, 1743843, Control_c, 0, 64, 37
1, 1744056, Control_c, 0, 64, 41
1, 1744074, Control_c, 0, 64, 45
1, 1744092, Control_c, 0, 64, 49
1, 1744112, Control_c, 0, 64, 53
1, 1744129, Control_c, 0, 64, 56
1, 1744149, Control_c, 0, 64, 60
1, 1744168, Control_c, 0, 64, 67
1, 1744186, Control_c, 0, 64, 73
1, 1744204, Control_c, 0, 64, 79
1, 1744223, Control_c, 0, 64, 86
1, 1744242, Control_c, 0, 64, 94
1, 1744259, Control_c, 0, 64, 102
1, 1744277, Control_c, 0, 64, 109
1, 1744296, Control_c, 0, 64, 116
1, 1744316, Control_c, 0, 64, 122
1, 1744333, Control_c, 0, 64, 126
1, 1744365, Note_on_c, 0, 92, 63
1, 1744376, Note_on_c, 0, 89, 53
1, 1744386, Note_on_c, 0, 24, 40
1, 1744387, Note_on_c, 0, 86, 48
1, 1744392, Note_on_c, 0, 36, 44
1, 1744400, Note_on_c, 0, 80, 44
1, 1744407, Note_on_c, 0, 83, 27
1, 1744438, Note_on_c, 0, 36, 0
1, 1744440, Note_on_c, 0, 86, 0
1, 1744447, Note_on_c, 0, 80, 0
1, 1744454, Note_on_c, 0, 83, 0
1, 1744463, Note_on_c, 0, 24, 0
1, 1744470, Note_on_c, 0, 89, 0
1, 1744494, Note_on_c, 0, 92, 0
1, 1744743, Control_c, 0, 64, 118
1, 1744760, Control_c, 0, 64, 96
1, 1744766, Note_on_c, 0, 91, 69
1, 1744773, Note_on_c, 0, 36, 55
1, 1744779, Control_c, 0, 64, 72
1, 1744782, Note_on_c, 0, 79, 51
1, 1744783, Note_on_c, 0, 24, 42
1, 1744785, Note_on_c, 0, 83, 47
1, 1744790, Note_on_c, 0, 86, 45
1, 1744797, Control_c, 0, 64, 56
1, 1744802, Note_on_c, 0, 91, 0
1, 1744808, Note_on_c, 0, 36, 0
1, 1744816, Control_c, 0, 64, 53
1, 1744817, Note_on_c, 0, 83, 0
1, 1744822, Note_on_c, 0, 86, 0
1, 1744824, Note_on_c, 0, 79, 0
1, 1744831, Note_on_c, 0, 24, 0
1, 1744973, Note_on_c, 0, 89, 80
1, 1744977, Note_on_c, 0, 36, 47
1, 1744988, Note_on_c, 0, 77, 51
1, 1744989, Note_on_c, 0, 86, 21
1, 1744991, Note_on_c, 0, 83, 40
1, 1744997, Note_on_c, 0, 24, 32
1, 1745017, Note_on_c, 0, 77, 0
1, 1745028, Note_on_c, 0, 83, 0
1, 1745029, Note_on_c, 0, 36, 0
1, 1745031, Note_on_c, 0, 86, 0
1, 1745041, Note_on_c, 0, 24, 0
1, 1745063, Note_on_c, 0, 89, 0
1, 1745237, Note_on_c, 0, 36, 60
1, 1745241, Note_on_c, 0, 88, 75
1, 1745246, Note_on_c, 0, 24, 53
1, 1745250, Note_on_c, 0, 84, 60
1, 1745255, Note_on_c, 0, 76, 52
1, 1745274, Note_on_c, 0, 84, 0
1, 1745278, Note_on_c, 0, 36, 0
1, 1745281, Note_on_c, 0, 76, 0
1, 1745295, Note_on_c, 0, 24, 0
1, 1745306, Note_on_c, 0, 88, 0
1, 1745527, Note_on_c, 0, 86, 72
1, 1745534, Note_on_c, 0, 77, 63
1, 1745546, Note_on_c, 0, 36, 56
1, 1745548, Note_on_c, 0, 24, 55
1, 1745556, Note_on_c, 0, 77, 0
1, 1745568, Note_on_c, 0, 86, 0
1, 1745583, Note_on_c, 0, 36, 0
1, 1745593, Note_on_c, 0, 24, 0
1, 1745614, Note_on_c, 0, 91, 92
1, 1745628, Note_on_c, 0, 88, 25
1, 1745631, Note_on_c, 0, 79, 72
1, 1745632, Note_on_c, 0, 24, 60
1, 1745634, Note_on_c, 0, 36, 68
1, 1745661, Note_on_c, 0, 79, 0
1, 1745667, Note_on_c, 0, 88, 0
1, 1745667, Note_on_c, 0, 91, 0
1, 1745668, Note_on_c, 0, 36, 0
1, 1745677, Note_on_c, 0, 24, 0
1, 1745677, Control_c, 0, 64, 51
1, 1745944, Control_c, 0, 64, 53
1, 1746000, Control_c, 0, 64, 55
1, 1746039, Control_c, 0, 64, 57
1, 1746076, Control_c, 0, 64, 59
1, 1746094, Control_c, 0, 64, 60
1, 1746114, Control_c, 0, 64, 61
1, 1746130, Control_c, 0, 64, 62
1, 1746167, Control_c, 0, 64, 63
1, 1746187, Control_c, 0, 64, 64
1, 1746242, Control_c, 0, 64, 65
1, 1746261, Control_c, 0, 64, 66
1, 1746266, Note_on_c, 0, 76, 63
1, 1746279, Control_c, 0, 64, 67
1, 1746280, Control_c, 0, 67, 118
1, 1746316, Control_c, 0, 64, 69
1, 1746317, Control_c, 0, 67, 110
1, 1746335, Control_c, 0, 64, 71
1, 1746336, Control_c, 0, 67, 104
1, 1746353, Control_c, 0, 64, 74
1, 1746354, Control_c, 0, 67, 95
1, 1746372, Control_c, 0, 64, 79
1, 1746373, Control_c, 0, 67, 83
1, 1746390, Control_c, 0, 64, 87
1, 1746393, Control_c, 0, 67, 69
1, 1746410, Control_c, 0, 64, 95
1, 1746410, Control_c, 0, 67, 55
1, 1746428, Control_c, 0, 64, 102
1, 1746429, Control_c, 0, 67, 42
1, 1746446, Control_c, 0, 64, 108
1, 1746448, Control_c, 0, 67, 29
1, 1746465, Control_c, 0, 64, 115
1, 1746466, Control_c, 0, 67, 17
1, 1746483, Control_c, 0, 64, 122
1, 1746503, Control_c, 0, 64, 126
1, 1746505, Control_c, 0, 67, 0
1, 1746548, Note_on_c, 0, 70, 41
1, 1746569, Note_on_c, 0, 67, 39
1, 1746586, Note_on_c, 0, 60, 44
1, 1746989, Note_on_c, 0, 66, 55
1, 1747001, Note_on_c, 0, 78, 74
1, 1747025, Note_on_c, 0, 60, 0
1, 1747097, Note_on_c, 0, 76, 0
1, 1747193, Note_on_c, 0, 70, 0
1, 1747262, Note_on_c, 0, 59, 47
1, 1747280, Note_on_c, 0, 64, 60
1, 1747296, Note_on_c, 0, 79, 81
1, 1747334, Note_on_c, 0, 71, 60
1, 1747360, Note_on_c, 0, 78, 0
1, 1747382, Control_c, 0, 64, 111
1, 1747402, Control_c, 0, 64, 77
1, 1747419, Control_c, 0, 64, 36
1, 1747428, Note_on_c, 0, 66, 0
1, 1747434, Control_c, 0, 64, 0
1, 1747461, Note_on_c, 0, 67, 0
1, 1747511, Control_c, 0, 64, 27
1, 1747530, Control_c, 0, 64, 51
1, 1747548, Control_c, 0, 64, 77
1, 1747567, Control_c, 0, 64, 97
1, 1747585, Control_c, 0, 64, 120
1, 1747605, Control_c, 0, 64, 127
1, 1747762, Note_on_c, 0, 66, 66
1, 1747770, Note_on_c, 0, 71, 0
1, 1747791, Note_on_c, 0, 59, 0
1, 1747998, Note_on_c, 0, 58, 63
1, 1748003, Note_on_c, 0, 67, 71
1, 1748009, Note_on_c, 0, 76, 81
1, 1748018, Note_on_c, 0, 72, 70
1, 1748056, Note_on_c, 0, 64, 0
1, 1748095, Control_c, 0, 64, 101
1, 1748114, Control_c, 0, 64, 65
1, 1748121, Note_on_c, 0, 79, 0
1, 1748132, Control_c, 0, 64, 13
1, 1748151, Control_c, 0, 64, 0
1, 1748209, Note_on_c, 0, 66, 0
1, 1748242, Control_c, 0, 64, 15
1, 1748261, Control_c, 0, 64, 43
1, 1748281, Control_c, 0, 64, 66
1, 1748298, Control_c, 0, 64, 84
1, 1748318, Control_c, 0, 64, 102
1, 1748336, Control_c, 0, 64, 117
1, 1748355, Control_c, 0, 64, 125
1, 1748523, Note_on_c, 0, 77, 85
1, 1748535, Note_on_c, 0, 65, 72
1, 1748582, Note_on_c, 0, 76, 0
1, 1748773, Note_on_c, 0, 67, 0
1, 1748883, Control_c, 0, 64, 103
1, 1748894, Note_on_c, 0, 79, 88
1, 1748896, Note_on_c, 0, 64, 79
1, 1748902, Control_c, 0, 64, 64
1, 1748920, Control_c, 0, 64, 0
1, 1748928, Note_on_c, 0, 77, 0
1, 1749012, Control_c, 0, 64, 37
1, 1749030, Control_c, 0, 64, 69
1, 1749049, Control_c, 0, 64, 99
1, 1749051, Note_on_c, 0, 65, 0
1, 1749068, Control_c, 0, 64, 127
1, 1749070, Note_on_c, 0, 58, 0
1, 1749210, Note_on_c, 0, 72, 0
1, 1749280, Note_on_c, 0, 64, 0
1, 1749393, Note_on_c, 0, 79, 0
1, 1749400, Note_on_c, 0, 72, 97
1, 1749532, Note_on_c, 0, 56, 64
1, 1749598, Note_on_c, 0, 60, 62
1, 1749644, Note_on_c, 0, 72, 0
1, 1749648, Note_on_c, 0, 65, 83
1, 1749658, Note_on_c, 0, 68, 96
1, 1749668, Note_on_c, 0, 84, 98
1, 1749669, Note_on_c, 0, 77, 94
1, 1749684, Note_on_c, 0, 56, 0
1, 1749687, Control_c, 0, 64, 118
1, 1749699, Note_on_c, 0, 60, 0
1, 1749700, Note_on_c, 0, 68, 0
1, 1749704, Note_on_c, 0, 77, 0
1, 1749705, Control_c, 0, 64, 83
1, 1749708, Note_on_c, 0, 65, 0
1, 1749720, Note_on_c, 0, 84, 0
1, 1749727, Control_c, 0, 64, 47
1, 1749743, Control_c, 0, 64, 29
1, 1749978, Note_on_c, 0, 82, 85
1, 1749978, Note_on_c, 0, 79, 86
1, 1750008, Note_on_c, 0, 79, 0
1, 1750023, Note_on_c, 0, 82, 0
1, 1750062, Note_on_c, 0, 77, 90
1, 1750065, Note_on_c, 0, 80, 91
1, 1750077, Note_on_c, 0, 61, 88
1, 1750084, Note_on_c, 0, 49, 81
1, 1750102, Note_on_c, 0, 77, 0
1, 1750113, Note_on_c, 0, 80, 0
1, 1750269, Note_on_c, 0, 77, 96
1, 1750276, Note_on_c, 0, 68, 92
1, 1750301, Note_on_c, 0, 68, 0
1, 1750306, Note_on_c, 0, 77, 0
1, 1750376, Note_on_c, 0, 49, 0
1, 1750388, Note_on_c, 0, 61, 0
1, 1750468, Note_on_c, 0, 65, 86
1, 1750471, Note_on_c, 0, 60, 101
1, 1750484, Note_on_c, 0, 68, 69
1, 1750485, Note_on_c, 0, 68, 0
1, 1750492, Note_on_c, 0, 48, 81
1, 1750495, Note_on_c, 0, 67, 63
1, 1750505, Note_on_c, 0, 69, 59
1, 1750506, Note_on_c, 0, 69, 0
1, 1750510, Note_on_c, 0, 65, 0
1, 1750523, Note_on_c, 0, 67, 0
1, 1750527, Note_on_c, 0, 48, 0
1, 1750532, Note_on_c, 0, 60, 0
1, 1750664, Note_on_c, 0, 65, 95
1, 1750675, Note_on_c, 0, 56, 88
1, 1750679, Note_on_c, 0, 60, 74
1, 1750710, Note_on_c, 0, 65, 0
1, 1750710, Note_on_c, 0, 60, 0
1, 1750780, Poly_aftertouch_c, 0, 44, 0
1, 1750792, Control_c, 0, 64, 24
1, 1750798, Note_on_c, 0, 56, 0
1, 1750808, Control_c, 0, 64, 19
1, 1750827, Control_c, 0, 64, 10
1, 1750845, Control_c, 0, 64, 0
1, 1750854, Note_on_c, 0, 43, 75
1, 1750905, Note_on_c, 0, 51, 86
1, 1750920, Control_c, 0, 64, 10
1, 1750921, Note_on_c, 0, 55, 99
1, 1750923, Note_on_c, 0, 72, 100
1, 1750924, Note_on_c, 0, 63, 98
1, 1750925, Note_on_c, 0, 60, 98
1, 1750940, Control_c, 0, 64, 37
1, 1750948, Note_on_c, 0, 60, 0
1, 1750953, Note_on_c, 0, 43, 0
1, 1750958, Note_on_c, 0, 63, 0
1, 1750959, Control_c, 0, 64, 67
1, 1750973, Note_on_c, 0, 55, 0
1, 1750976, Note_on_c, 0, 51, 0
1, 1750976, Control_c, 0, 64, 89
1, 1750986, Note_on_c, 0, 72, 0
1, 1750993, Control_c, 0, 64, 108
1, 1751010, Control_c, 0, 64, 119
1, 1751030, Control_c, 0, 64, 127
1, 1751075, Poly_aftertouch_c, 0, 62, 0
1, 1751215, Note_on_c, 0, 68, 78
1, 1751220, Note_on_c, 0, 65, 63
1, 1751243, Note_on_c, 0, 68, 0
1, 1751245, Note_on_c, 0, 65, 0
1, 1751305, Note_on_c, 0, 85, 97
1, 1751305, Note_on_c, 0, 75, 93
1, 1751307, Note_on_c, 0, 73, 97
1, 1751329, Note_on_c, 0, 63, 91
1, 1751331, Note_on_c, 0, 67, 93
1, 1751365, Control_c, 0, 64, 95
1, 1751371, Note_on_c, 0, 67, 0
1, 1751374, Note_on_c, 0, 63, 0
1, 1751374, Note_on_c, 0, 79, 8
1, 1751382, Control_c, 0, 64, 62
1, 1751401, Control_c, 0, 64, 35
1, 1751428, Control_c, 0, 64, 31
1, 1751466, Control_c, 0, 64, 27
1, 1751468, Note_on_c, 0, 79, 0
1, 1751515, Note_on_c, 0, 55, 83
1, 1751546, Note_on_c, 0, 55, 0
1, 1751549, Note_on_c, 0, 63, 28
1, 1751550, Note_on_c, 0, 63, 0
1, 1751553, Note_on_c, 0, 64, 34
1, 1751577, Note_on_c, 0, 75, 0
1, 1751588, Poly_aftertouch_c, 0, 57, 0
1, 1751602, Note_on_c, 0, 64, 0
1, 1751616, Note_on_c, 0, 85, 0
1, 1751624, Note_on_c, 0, 73, 0
1, 1751705, Note_on_c, 0, 55, 90
1, 1751711, Note_on_c, 0, 51, 83
1, 1751717, Note_on_c, 0, 84, 86
1, 1751719, Note_on_c, 0, 75, 88
1, 1751720, Note_on_c, 0, 72, 86
1, 1751732, Note_on_c, 0, 55, 0
1, 1751741, Note_on_c, 0, 51, 0
1, 1751742, Note_on_c, 0, 84, 0
1, 1751744, Note_on_c, 0, 72, 0
1, 1751746, Note_on_c, 0, 75, 0
1, 1751881, Note_on_c, 0, 51, 66
1, 1751895, Note_on_c, 0, 67, 100
1, 1751895, Note_on_c, 0, 79, 92
1, 1751901, Note_on_c, 0, 75, 87
1, 1751914, Note_on_c, 0, 79, 0
1, 1751918, Note_on_c, 0, 51, 0
1, 1751919, Note_on_c, 0, 75, 0
1, 1751928, Note_on_c, 0, 67, 0
1, 1752004, Control_c, 0, 64, 23
1, 1752023, Control_c, 0, 64, 17
1, 1752060, Control_c, 0, 64, 0
1, 1752114, Note_on_c, 0, 43, 78
1, 1752114, Control_c, 0, 64, 37
1, 1752134, Control_c, 0, 64, 75
1, 1752148, Note_on_c, 0, 55, 101
1, 1752149, Note_on_c, 0, 62, 99
1, 1752153, Control_c, 0, 64, 110
1, 1752154, Note_on_c, 0, 60, 93
1, 1752170, Control_c, 0, 64, 127
1, 1752175, Note_on_c, 0, 43, 0
1, 1752192, Note_on_c, 0, 55, 0
1, 1752207, Control_c, 0, 64, 117
1, 1752227, Control_c, 0, 64, 95
1, 1752247, Control_c, 0, 64, 65
1, 1752264, Control_c, 0, 64, 32
1, 1752282, Control_c, 0, 64, 16
1, 1752412, Note_on_c, 0, 58, 36
1, 1752452, Note_on_c, 0, 58, 0
1, 1752587, Control_c, 0, 64, 22
1, 1752608, Control_c, 0, 64, 40
1, 1752611, Note_on_c, 0, 56, 80
1, 1752611, Note_on_c, 0, 68, 102
1, 1752625, Control_c, 0, 64, 59
1, 1752639, Note_on_c, 0, 56, 0
1, 1752644, Control_c, 0, 64, 80
1, 1752664, Control_c, 0, 64, 98
1, 1752679, Note_on_c, 0, 68, 0
1, 1752679, Control_c, 0, 64, 119
1, 1752699, Control_c, 0, 64, 127
1, 1752863, Note_on_c, 0, 62, 0
1, 1753464, Note_on_c, 0, 43, 62
1, 1753475, Note_on_c, 0, 55, 67
1, 1753484, Control_c, 0, 64, 102
1, 1753487, Note_on_c, 0, 59, 67
1, 1753488, Note_on_c, 0, 62, 70
1, 1753505, Control_c, 0, 64, 75
1, 1753523, Control_c, 0, 64, 51
1, 1753542, Note_on_c, 0, 43, 0
1, 1753542, Control_c, 0, 64, 37
1, 1753558, Note_on_c, 0, 60, 0
1, 1753561, Control_c, 0, 64, 33
1, 1753564, Note_on_c, 0, 55, 0
1, 1753600, Control_c, 0, 64, 28
1, 1753746, Control_c, 0, 64, 35
1, 1753765, Control_c, 0, 64, 47
1, 1753783, Control_c, 0, 64, 57
1, 1753800, Control_c, 0, 64, 67
1, 1753820, Control_c, 0, 64, 76
1, 1753838, Control_c, 0, 64, 89
1, 1753856, Control_c, 0, 64, 103
1, 1753875, Control_c, 0, 64, 117
1, 1753894, Control_c, 0, 64, 126
1, 1754071, Note_on_c, 0, 68, 68
1, 1754083, Note_on_c, 0, 56, 51
1, 1754136, Note_on_c, 0, 56, 0
1, 1754217, Note_on_c, 0, 68, 0
1, 1754308, Note_on_c, 0, 59, 0
1, 1754346, Note_on_c, 0, 62, 0
1, 1754750, Note_on_c, 0, 67, 93
1, 1754761, Note_on_c, 0, 43, 75
1, 1754977, Control_c, 0, 64, 91
1, 1754981, Note_on_c, 0, 72, 91
1, 1754981, Note_on_c, 0, 48, 105
1, 1754983, Note_on_c, 0, 36, 84
1, 1754987, Note_on_c, 0, 64, 88
1, 1754988, Note_on_c, 0, 60, 87
1, 1754991, Note_on_c, 0, 67, 0
1, 1754996, Control_c, 0, 64, 53
1, 1755011, Note_on_c, 0, 36, 0
1, 1755013, Control_c, 0, 64, 14
1, 1755016, Note_on_c, 0, 43, 0
1, 1755016, Note_on_c, 0, 60, 0
1, 1755021, Note_on_c, 0, 48, 0
1, 1755029, Note_on_c, 0, 64, 0
1, 1755032, Note_on_c, 0, 72, 0
1, 1755053, Control_c, 0, 64, 10
1, 1755077, Note_on_c, 0, 63, 15
1, 1755078, Note_on_c, 0, 63, 0
1, 1755284, Control_c, 0, 64, 14
1, 1755414, Note_on_c, 0, 73, 91
1, 1755416, Note_on_c, 0, 61, 93
1, 1755418, Note_on_c, 0, 58, 91
1, 1755419, Note_on_c, 0, 70, 90
1, 1755432, Control_c, 0, 64, 28
1, 1755450, Control_c, 0, 64, 48
1, 1755469, Control_c, 0, 64, 76
1, 1755486, Control_c, 0, 64, 100
1, 1755504, Control_c, 0, 64, 127
1, 1755518, Poly_aftertouch_c, 0, 57, 0
1, 1755580, Note_on_c, 0, 70, 0
1, 1755622, Note_on_c, 0, 73, 0
1, 1755687, Note_on_c, 0, 61, 0
1, 1755767, Note_on_c, 0, 58, 0
1, 1755801, Control_c, 0, 64, 110
1, 1755803, Note_on_c, 0, 72, 87
1, 1755809, Note_on_c, 0, 68, 89
1, 1755810, Note_on_c, 0, 60, 87
1, 1755816, Note_on_c, 0, 56, 80
1, 1755821, Control_c, 0, 64, 79
1, 1755840, Control_c, 0, 64, 50
1, 1755845, Note_on_c, 0, 68, 0
1, 1755849, Note_on_c, 0, 60, 0
1, 1755856, Note_on_c, 0, 72, 0
1, 1755857, Control_c, 0, 64, 35
1, 1755858, Note_on_c, 0, 56, 0
1, 1755995, Note_on_c, 0, 67, 94
1, 1755996, Note_on_c, 0, 70, 92
1, 1755998, Note_on_c, 0, 58, 89
1, 1756004, Note_on_c, 0, 55, 82
1, 1756029, Note_on_c, 0, 67, 0
1, 1756038, Note_on_c, 0, 55, 0
1, 1756045, Note_on_c, 0, 58, 0
1, 1756049, Note_on_c, 0, 70, 0
1, 1756259, Note_on_c, 0, 56, 91
1, 1756259, Note_on_c, 0, 68, 98
1, 1756261, Note_on_c, 0, 65, 87
1, 1756263, Note_on_c, 0, 53, 87
1, 1756298, Note_on_c, 0, 53, 0
1, 1756311, Note_on_c, 0, 65, 0
1, 1756324, Note_on_c, 0, 68, 0
1, 1756326, Note_on_c, 0, 56, 0
1, 1756533, Control_c, 0, 64, 31
1, 1756539, Note_on_c, 0, 70, 84
1, 1756545, Note_on_c, 0, 67, 74
1, 1756549, Note_on_c, 0, 58, 78
1, 1756553, Note_on_c, 0, 55, 72
1, 1756572, Control_c, 0, 64, 24
1, 1756578, Note_on_c, 0, 58, 0
1, 1756581, Note_on_c, 0, 55, 0
1, 1756581, Note_on_c, 0, 67, 0
1, 1756589, Control_c, 0, 64, 18
1, 1756602, Note_on_c, 0, 70, 0
1, 1756606, Control_c, 0, 64, 8
1, 1756618, Note_on_c, 0, 60, 101
1, 1756618, Note_on_c, 0, 72, 90
1, 1756623, Note_on_c, 0, 68, 87
1, 1756624, Control_c, 0, 64, 0
1, 1756630, Note_on_c, 0, 56, 85
1, 1756663, Control_c, 0, 64, 8
1, 1756681, Control_c, 0, 64, 41
1, 1756697, Note_on_c, 0, 60, 0
1, 1756700, Control_c, 0, 64, 67
1, 1756718, Note_on_c, 0, 56, 0
1, 1756718, Control_c, 0, 64, 93
1, 1756737, Control_c, 0, 64, 127
1, 1756797, Note_on_c, 0, 68, 0
1, 1756797, Note_on_c, 0, 72, 0
1, 1756885, Control_c, 0, 64, 98
1, 1756905, Control_c, 0, 64, 70
1, 1756924, Control_c, 0, 64, 48
1, 1756941, Control_c, 0, 64, 40
1, 1757061, Control_c, 0, 64, 35
1, 1757136, Control_c, 0, 64, 31
1, 1757305, Control_c, 0, 64, 43
1, 1757308, Note_on_c, 0, 48, 85
1, 1757322, Control_c, 0, 64, 53
1, 1757340, Control_c, 0, 64, 64
1, 1757358, Control_c, 0, 64, 72
1, 1757376, Control_c, 0, 64, 79
1, 1757395, Control_c, 0, 64, 89
1, 1757414, Control_c, 0, 64, 97
1, 1757432, Control_c, 0, 64, 103
1, 1757508, Control_c, 0, 64, 84
1, 1757522, Note_on_c, 0, 44, 88
1, 1757525, Note_on_c, 0, 60, 88
1, 1757525, Control_c, 0, 64, 55
1, 1757525, Note_on_c, 0, 56, 77
1, 1757529, Note_on_c, 0, 51, 69
1, 1757531, Note_on_c, 0, 32, 74
1, 1757532, Note_on_c, 0, 48, 0
1, 1757547, Control_c, 0, 64, 0
1, 1757552, Note_on_c, 0, 44, 0
1, 1757556, Note_on_c, 0, 56, 0
1, 1757558, Note_on_c, 0, 51, 0
1, 1757567, Note_on_c, 0, 32, 0
1, 1757572, Note_on_c, 0, 60, 0
1, 1757982, Note_on_c, 0, 61, 96
1, 1757984, Note_on_c, 0, 37, 99
1, 1757989, Note_on_c, 0, 25, 84
1, 1757993, Note_on_c, 0, 53, 88
1, 1757997, Note_on_c, 0, 56, 87
1, 1757997, Control_c, 0, 64, 40
1, 1758016, Control_c, 0, 64, 69
1, 1758025, Note_on_c, 0, 25, 0
1, 1758033, Control_c, 0, 64, 94
1, 1758041, Note_on_c, 0, 37, 0
1, 1758052, Control_c, 0, 64, 123
1, 1758061, Note_on_c, 0, 53, 0
1, 1758071, Control_c, 0, 64, 127
1, 1758131, Poly_aftertouch_c, 0, 31, 0
1, 1758143, Note_on_c, 0, 61, 0
1, 1758160, Note_on_c, 0, 56, 0
1, 1758405, Control_c, 0, 64, 121
1, 1758414, Note_on_c, 0, 60, 87
1, 1758424, Control_c, 0, 64, 90
1, 1758429, Note_on_c, 0, 49, 78
1, 1758435, Note_on_c, 0, 27, 67
1, 1758437, Note_on_c, 0, 55, 62
1, 1758437, Note_on_c, 0, 39, 69
1, 1758443, Control_c, 0, 64, 57
1, 1758461, Control_c, 0, 64, 31
1, 1758462, Note_on_c, 0, 49, 0
1, 1758464, Note_on_c, 0, 39, 0
1, 1758473, Note_on_c, 0, 27, 0
1, 1758476, Note_on_c, 0, 55, 0
1, 1758477, Note_on_c, 0, 60, 0
1, 1758515, Poly_aftertouch_c, 0, 37, 0
1, 1758609, Note_on_c, 0, 58, 85
1, 1758611, Note_on_c, 0, 55, 69
1, 1758611, Note_on_c, 0, 49, 67
1, 1758615, Note_on_c, 0, 39, 79
1, 1758622, Note_on_c, 0, 27, 57
1, 1758651, Note_on_c, 0, 49, 0
1, 1758651, Note_on_c, 0, 27, 0
1, 1758656, Note_on_c, 0, 39, 0
1, 1758658, Note_on_c, 0, 55, 0
1, 1758698, Note_on_c, 0, 58, 0
1, 1758757, Control_c, 0, 64, 27
1, 1758856, Note_on_c, 0, 56, 90
1, 1758863, Note_on_c, 0, 48, 80
1, 1758868, Note_on_c, 0, 44, 97
1, 1758888, Note_on_c, 0, 32, 63
1, 1758910, Note_on_c, 0, 48, 0
1, 1758914, Note_on_c, 0, 44, 0
1, 1758934, Note_on_c, 0, 56, 0
1, 1758936, Note_on_c, 0, 32, 0
1, 1759156, Control_c, 0, 64, 22
1, 1759165, Note_on_c, 0, 58, 74
1, 1759178, Note_on_c, 0, 51, 67
1, 1759186, Note_on_c, 0, 32, 66
1, 1759193, Control_c, 0, 64, 16
1, 1759205, Note_on_c, 0, 58, 0
1, 1759211, Note_on_c, 0, 51, 0
1, 1759213, Control_c, 0, 64, 11
1, 1759223, Note_on_c, 0, 44, 105
1, 1759230, Control_c, 0, 64, 0
1, 1759232, Note_on_c, 0, 60, 86
1, 1759235, Note_on_c, 0, 56, 80
1, 1759257, Note_on_c, 0, 32, 0
1, 1759284, Note_on_c, 0, 44, 0
1, 1759322, Control_c, 0, 64, 25
1, 1759341, Control_c, 0, 64, 53
1, 1759358, Note_on_c, 0, 60, 0
1, 1759359, Control_c, 0, 64, 82
1, 1759378, Control_c, 0, 64, 109
1, 1759398, Note_on_c, 0, 56, 0
1, 1759398, Control_c, 0, 64, 127
1, 1759470, Control_c, 0, 67, 11
1, 1759488, Control_c, 0, 67, 16
1, 1759508, Control_c, 0, 64, 105
1, 1759509, Control_c, 0, 67, 26
1, 1759526, Control_c, 0, 64, 75
1, 1759528, Control_c, 0, 67, 39
1, 1759544, Control_c, 0, 64, 46
1, 1759546, Control_c, 0, 67, 50
1, 1759564, Control_c, 0, 64, 25
1, 1759565, Control_c, 0, 67, 59
1, 1759583, Control_c, 0, 67, 68
1, 1759600, Control_c, 0, 67, 76
1, 1759618, Control_c, 0, 64, 20
1, 1759619, Control_c, 0, 67, 85
1, 1759636, Control_c, 0, 67, 93
1, 1759655, Control_c, 0, 64, 16
1, 1759657, Control_c, 0, 67, 101
1, 1759675, Control_c, 0, 67, 108
1, 1759692, Control_c, 0, 67, 114
1, 1759712, Control_c, 0, 67, 119
1, 1759730, Control_c, 0, 64, 9
1, 1759731, Control_c, 0, 67, 123
1, 1759748, Control_c, 0, 64, 0
1, 1759767, Control_c, 0, 67, 127
1, 1759868, Control_c, 0, 64, 26
1, 1759886, Control_c, 0, 64, 42
1, 1759906, Control_c, 0, 64, 56
1, 1759924, Control_c, 0, 64, 70
1, 1759943, Control_c, 0, 64, 76
1, 1759962, Control_c, 0, 64, 83
1, 1759965, Note_on_c, 0, 56, 55
1, 1759980, Control_c, 0, 64, 88
1, 1759997, Control_c, 0, 64, 93
1, 1760041, Note_on_c, 0, 56, 0
1, 1760128, Control_c, 0, 64, 88
1, 1760149, Control_c, 0, 64, 79
1, 1760164, Control_c, 0, 64, 66
1, 1760183, Control_c, 0, 64, 48
1, 1760203, Control_c, 0, 64, 31
1, 1760210, Note_on_c, 0, 63, 63
1, 1760219, Note_on_c, 0, 66, 56
1, 1760222, Control_c, 0, 64, 19
1, 1760228, Note_on_c, 0, 56, 51
1, 1760241, Control_c, 0, 64, 12
1, 1760244, Note_on_c, 0, 44, 47
1, 1760245, Note_on_c, 0, 63, 0
1, 1760253, Note_on_c, 0, 66, 0
1, 1760257, Control_c, 0, 64, 0
1, 1760649, Note_on_c, 0, 68, 72
1, 1760662, Note_on_c, 0, 65, 58
1, 1760684, Control_c, 0, 64, 21
1, 1760703, Control_c, 0, 64, 39
1, 1760720, Control_c, 0, 64, 57
1, 1760738, Control_c, 0, 64, 73
1, 1760751, Note_on_c, 0, 56, 0
1, 1760757, Control_c, 0, 64, 82
1, 1760762, Note_on_c, 0, 44, 0
1, 1760786, Control_c, 0, 64, 90
1, 1760792, Note_on_c, 0, 68, 0
1, 1760803, Control_c, 0, 64, 98
1, 1760823, Control_c, 0, 64, 103
1, 1760881, Control_c, 0, 64, 90
1, 1760884, Note_on_c, 0, 45, 54
1, 1760886, Note_on_c, 0, 57, 54
1, 1760898, Control_c, 0, 64, 73
1, 1760915, Control_c, 0, 64, 51
1, 1760934, Control_c, 0, 64, 31
1, 1760952, Control_c, 0, 64, 24
1, 1760991, Control_c, 0, 64, 17
1, 1761047, Control_c, 0, 64, 12
1, 1761051, Note_on_c, 0, 65, 0
1, 1761073, Note_on_c, 0, 66, 65
1, 1761090, Note_on_c, 0, 63, 40
1, 1761104, Note_on_c, 0, 66, 0
1, 1761129, Note_on_c, 0, 63, 0
1, 1761155, Control_c, 0, 64, 8
1, 1761196, Note_on_c, 0, 57, 0
1, 1761280, Note_on_c, 0, 63, 72
1, 1761298, Note_on_c, 0, 60, 56
1, 1761303, Control_c, 0, 64, 0
1, 1761313, Note_on_c, 0, 63, 0
1, 1761329, Note_on_c, 0, 60, 0
1, 1761527, Note_on_c, 0, 58, 57
1, 1761531, Note_on_c, 0, 62, 77
1, 1761545, Note_on_c, 0, 46, 54
1, 1761561, Note_on_c, 0, 62, 0
1, 1761581, Note_on_c, 0, 45, 0
1, 1761839, Note_on_c, 0, 63, 66
1, 1761869, Note_on_c, 0, 63, 0
1, 1761883, Note_on_c, 0, 60, 12
1, 1761884, Note_on_c, 0, 60, 0
1, 1761943, Note_on_c, 0, 62, 65
1, 1761946, Note_on_c, 0, 65, 64
1, 1761980, Note_on_c, 0, 62, 0
1, 1762000, Note_on_c, 0, 65, 0
1, 1762036, Note_on_c, 0, 58, 0
1, 1762182, Note_on_c, 0, 59, 64
1, 1762191, Note_on_c, 0, 47, 59
1, 1762203, Control_c, 0, 67, 121
1, 1762217, Note_on_c, 0, 46, 0
1, 1762219, Control_c, 0, 67, 115
1, 1762238, Control_c, 0, 64, 33
1, 1762240, Control_c, 0, 67, 107
1, 1762258, Control_c, 0, 64, 53
1, 1762260, Control_c, 0, 67, 90
1, 1762277, Control_c, 0, 64, 73
1, 1762278, Control_c, 0, 67, 63
1, 1762296, Control_c, 0, 64, 89
1, 1762298, Control_c, 0, 67, 31
1, 1762314, Control_c, 0, 64, 107
1, 1762315, Control_c, 0, 67, 0
1, 1762332, Control_c, 0, 64, 122
1, 1762351, Control_c, 0, 64, 127
1, 1762585, Note_on_c, 0, 47, 0
1, 1762594, Note_on_c, 0, 56, 82
1, 1762653, Note_on_c, 0, 59, 0
1, 1762775, Note_on_c, 0, 56, 0
1, 1762837, Note_on_c, 0, 48, 73
1, 1762842, Note_on_c, 0, 68, 85
1, 1762844, Note_on_c, 0, 60, 78
1, 1762849, Note_on_c, 0, 65, 67
1, 1762878, Control_c, 0, 64, 115
1, 1762881, Note_on_c, 0, 65, 0
1, 1762898, Control_c, 0, 64, 88
1, 1762906, Note_on_c, 0, 68, 0
1, 1762916, Control_c, 0, 64, 58
1, 1762935, Control_c, 0, 64, 29
1, 1762954, Control_c, 0, 64, 22
1, 1763009, Control_c, 0, 64, 16
1, 1763120, Control_c, 0, 64, 20
1, 1763140, Control_c, 0, 64, 35
1, 1763156, Control_c, 0, 64, 46
1, 1763175, Control_c, 0, 64, 58
1, 1763193, Control_c, 0, 64, 71
1, 1763214, Control_c, 0, 64, 80
1, 1763230, Control_c, 0, 64, 90
1, 1763249, Control_c, 0, 64, 100
1, 1763269, Control_c, 0, 64, 111
1, 1763278, Note_on_c, 0, 70, 87
1, 1763287, Control_c, 0, 64, 119
1, 1763293, Note_on_c, 0, 67, 74
1, 1763306, Control_c, 0, 64, 124
1, 1763357, Note_on_c, 0, 60, 0
1, 1763470, Note_on_c, 0, 70, 0
1, 1763501, Note_on_c, 0, 61, 81
1, 1763502, Note_on_c, 0, 49, 77
1, 1763572, Note_on_c, 0, 48, 0
1, 1763630, Control_c, 0, 64, 119
1, 1763649, Control_c, 0, 64, 99
1, 1763658, Note_on_c, 0, 67, 0
1, 1763666, Control_c, 0, 64, 75
1, 1763686, Control_c, 0, 64, 52
1, 1763698, Note_on_c, 0, 69, 80
1, 1763701, Note_on_c, 0, 66, 74
1, 1763705, Control_c, 0, 64, 39
1, 1763727, Note_on_c, 0, 66, 0
1, 1763736, Note_on_c, 0, 69, 0
1, 1763796, Control_c, 0, 64, 34
1, 1763891, Note_on_c, 0, 67, 90
1, 1763897, Note_on_c, 0, 64, 77
1, 1763930, Note_on_c, 0, 64, 0
1, 1763935, Note_on_c, 0, 67, 0
1, 1764074, Note_on_c, 0, 61, 0
1, 1764111, Control_c, 0, 67, 8
1, 1764128, Control_c, 0, 67, 15
1, 1764148, Control_c, 0, 67, 24
1, 1764166, Control_c, 0, 67, 31
1, 1764170, Note_on_c, 0, 62, 82
1, 1764172, Note_on_c, 0, 66, 90
1, 1764175, Note_on_c, 0, 50, 74
1, 1764185, Note_on_c, 0, 49, 0
1, 1764185, Control_c, 0, 67, 36
1, 1764239, Note_on_c, 0, 66, 0
1, 1764296, Control_c, 0, 67, 30
1, 1764314, Control_c, 0, 67, 25
1, 1764333, Control_c, 0, 67, 18
1, 1764352, Control_c, 0, 67, 9
1, 1764370, Control_c, 0, 67, 0
1, 1764457, Note_on_c, 0, 67, 85
1, 1764472, Note_on_c, 0, 64, 55
1, 1764489, Note_on_c, 0, 67, 0
1, 1764502, Note_on_c, 0, 64, 0
1, 1764560, Note_on_c, 0, 69, 90
1, 1764565, Control_c, 0, 64, 30
1, 1764569, Note_on_c, 0, 66, 82
1, 1764586, Note_on_c, 0, 62, 0
1, 1764621, Control_c, 0, 64, 25
1, 1764657, Control_c, 0, 64, 17
1, 1764676, Control_c, 0, 64, 11
1, 1764690, Note_on_c, 0, 66, 0
1, 1764693, Control_c, 0, 64, 0
1, 1764731, Note_on_c, 0, 69, 0
1, 1764801, Note_on_c, 0, 51, 81
1, 1764805, Note_on_c, 0, 63, 97
1, 1764842, Note_on_c, 0, 50, 0
1, 1764861, Control_c, 0, 64, 18
1, 1764879, Control_c, 0, 64, 42
1, 1764898, Control_c, 0, 64, 65
1, 1764916, Control_c, 0, 64, 77
1, 1764936, Control_c, 0, 64, 84
1, 1764955, Control_c, 0, 64, 91
1, 1764972, Control_c, 0, 64, 102
1, 1764992, Control_c, 0, 64, 113
1, 1765010, Control_c, 0, 64, 119
1, 1765046, Control_c, 0, 64, 124
1, 1765217, Note_on_c, 0, 60, 97
1, 1765296, Note_on_c, 0, 63, 0
1, 1765360, Note_on_c, 0, 51, 0
1, 1765367, Note_on_c, 0, 60, 0
1, 1765472, Note_on_c, 0, 52, 76
1, 1765496, Note_on_c, 0, 72, 93
1, 1765502, Note_on_c, 0, 64, 97
1, 1765510, Note_on_c, 0, 69, 81
1, 1765534, Note_on_c, 0, 69, 0
1, 1765538, Control_c, 0, 64, 118
1, 1765553, Note_on_c, 0, 72, 0
1, 1765555, Control_c, 0, 64, 97
1, 1765575, Control_c, 0, 64, 73
1, 1765593, Control_c, 0, 64, 51
1, 1765612, Control_c, 0, 64, 40
1, 1765704, Control_c, 0, 64, 36
1, 1765795, Note_on_c, 0, 74, 97
1, 1765803, Note_on_c, 0, 71, 78
1, 1765832, Note_on_c, 0, 71, 0
1, 1765834, Note_on_c, 0, 74, 0
1, 1765850, Note_on_c, 0, 52, 0
1, 1765857, Note_on_c, 0, 64, 0
1, 1765879, Note_on_c, 0, 76, 95
1, 1765890, Note_on_c, 0, 72, 89
1, 1765909, Poly_aftertouch_c, 0, 74, 0
1, 1765962, Note_on_c, 0, 72, 0
1, 1765962, Control_c, 0, 64, 32
1, 1765982, Control_c, 0, 64, 26
1, 1766000, Control_c, 0, 64, 15
1, 1766019, Control_c, 0, 64, 0
1, 1766072, Note_on_c, 0, 76, 0
1, 1766107, Note_on_c, 0, 57, 92
1, 1766108, Note_on_c, 0, 63, 97
1, 1766110, Note_on_c, 0, 51, 81
1, 1766167, Control_c, 0, 64, 23
1, 1766186, Control_c, 0, 64, 49
1, 1766204, Control_c, 0, 64, 75
1, 1766223, Control_c, 0, 64, 90
1, 1766242, Control_c, 0, 64, 105
1, 1766260, Control_c, 0, 64, 115
1, 1766277, Control_c, 0, 64, 124
1, 1766408, Note_on_c, 0, 76, 100
1, 1766498, Note_on_c, 0, 77, 100
1, 1766503, Note_on_c, 0, 72, 95
1, 1766510, Note_on_c, 0, 69, 95
1, 1766540, Note_on_c, 0, 76, 0
1, 1766556, Note_on_c, 0, 57, 0
1, 1766563, Note_on_c, 0, 51, 0
1, 1766569, Note_on_c, 0, 63, 0
1, 1766732, Control_c, 0, 64, 113
1, 1766745, Note_on_c, 0, 62, 102
1, 1766746, Note_on_c, 0, 58, 98
1, 1766748, Note_on_c, 0, 53, 83
1, 1766751, Control_c, 0, 64, 74
1, 1766751, Note_on_c, 0, 50, 85
1, 1766759, Note_on_c, 0, 72, 0
1, 1766768, Control_c, 0, 64, 26
1, 1766781, Note_on_c, 0, 69, 0
1, 1766787, Control_c, 0, 64, 0
1, 1766804, Note_on_c, 0, 77, 0
1, 1766917, Control_c, 0, 64, 31
1, 1766936, Control_c, 0, 64, 57
1, 1766955, Control_c, 0, 64, 79
1, 1766973, Control_c, 0, 64, 94
1, 1766992, Control_c, 0, 64, 108
1, 1767010, Control_c, 0, 64, 117
1, 1767028, Control_c, 0, 64, 123
1, 1767040, Note_on_c, 0, 77, 97
1, 1767045, Control_c, 0, 64, 127
1, 1767131, Note_on_c, 0, 67, 98
1, 1767133, Note_on_c, 0, 79, 95
1, 1767136, Note_on_c, 0, 70, 93
1, 1767150, Note_on_c, 0, 50, 0
1, 1767151, Note_on_c, 0, 53, 0
1, 1767176, Note_on_c, 0, 62, 0
1, 1767179, Note_on_c, 0, 58, 0
1, 1767371, Control_c, 0, 64, 104
1, 1767378, Note_on_c, 0, 59, 92
1, 1767379, Note_on_c, 0, 61, 101
1, 1767387, Note_on_c, 0, 53, 78
1, 1767389, Control_c, 0, 64, 46
1, 1767397, Note_on_c, 0, 49, 75
1, 1767407, Control_c, 0, 64, 0
1, 1767417, Note_on_c, 0, 70, 0
1, 1767450, Note_on_c, 0, 67, 0
1, 1767464, Note_on_c, 0, 77, 0
1, 1767467, Note_on_c, 0, 79, 0
1, 1767501, Control_c, 0, 64, 26
1, 1767519, Control_c, 0, 64, 57
1, 1767540, Control_c, 0, 64, 81
1, 1767557, Control_c, 0, 64, 94
1, 1767575, Control_c, 0, 64, 106
1, 1767594, Control_c, 0, 64, 112
1, 1767611, Control_c, 0, 64, 120
1, 1767631, Control_c, 0, 64, 127
1, 1767661, Note_on_c, 0, 79, 85
1, 1767686, Note_on_c, 0, 79, 0
1, 1767726, Note_on_c, 0, 53, 0
1, 1767733, Note_on_c, 0, 59, 0
1, 1767755, Note_on_c, 0, 49, 0
1, 1767764, Note_on_c, 0, 80, 94
1, 1767770, Note_on_c, 0, 71, 80
1, 1767785, Note_on_c, 0, 68, 72
1, 1767786, Note_on_c, 0, 78, 50
1, 1767802, Note_on_c, 0, 77, 68
1, 1767814, Note_on_c, 0, 78, 0
1, 1767822, Note_on_c, 0, 61, 0
1, 1767870, Note_on_c, 0, 68, 0
1, 1767881, Note_on_c, 0, 71, 0
1, 1767891, Note_on_c, 0, 77, 0
1, 1767909, Control_c, 0, 64, 117
1, 1767927, Control_c, 0, 64, 76
1, 1767930, Note_on_c, 0, 80, 0
1, 1767938, Note_on_c, 0, 48, 81
1, 1767945, Control_c, 0, 64, 24
1, 1767963, Control_c, 0, 64, 0
1, 1767966, Note_on_c, 0, 53, 71
1, 1768025, Note_on_c, 0, 56, 80
1, 1768069, Note_on_c, 0, 60, 98
1, 1768094, Control_c, 0, 64, 35
1, 1768114, Control_c, 0, 64, 61
1, 1768117, Note_on_c, 0, 84, 95
1, 1768119, Note_on_c, 0, 80, 93
1, 1768120, Note_on_c, 0, 77, 82
1, 1768122, Note_on_c, 0, 72, 98
1, 1768135, Control_c, 0, 64, 87
1, 1768146, Poly_aftertouch_c, 0, 50, 0
1, 1768147, Control_c, 0, 64, 109
1, 1768158, Note_on_c, 0, 82, 49
1, 1768166, Control_c, 0, 64, 123
1, 1768178, Note_on_c, 0, 60, 0
1, 1768188, Note_on_c, 0, 82, 0
1, 1768204, Control_c, 0, 64, 127
1, 1768209, Note_on_c, 0, 48, 0
1, 1768228, Note_on_c, 0, 53, 0
1, 1768233, Note_on_c, 0, 56, 0
1, 1768271, Note_on_c, 0, 72, 0
1, 1768278, Poly_aftertouch_c, 0, 50, 0
1, 1768286, Note_on_c, 0, 84, 0
1, 1768342, Note_on_c, 0, 77, 0
1, 1768403, Note_on_c, 0, 80, 0
1, 1768564, Note_on_c, 0, 36, 89
1, 1768617, Note_on_c, 0, 84, 100
1, 1768741, Note_on_c, 0, 92, 94
1, 1768761, Note_on_c, 0, 84, 0
1, 1768897, Note_on_c, 0, 48, 108
1, 1768904, Note_on_c, 0, 91, 92
1, 1768918, Control_c, 0, 64, 95
1, 1768935, Control_c, 0, 64, 15
1, 1768955, Control_c, 0, 64, 0
1, 1768962, Note_on_c, 0, 92, 0
1, 1769010, Control_c, 0, 64, 37
1, 1769027, Note_on_c, 0, 91, 0
1, 1769029, Control_c, 0, 64, 81
1, 1769037, Note_on_c, 0, 90, 9
1, 1769048, Control_c, 0, 64, 124
1, 1769050, Note_on_c, 0, 82, 80
1, 1769107, Note_on_c, 0, 90, 0
1, 1769161, Note_on_c, 0, 80, 86
1, 1769185, Note_on_c, 0, 82, 0
1, 1769244, Note_on_c, 0, 36, 0
1, 1769271, Note_on_c, 0, 89, 90
1, 1769315, Note_on_c, 0, 80, 0
1, 1769374, Note_on_c, 0, 87, 89
1, 1769408, Note_on_c, 0, 89, 0
1, 1769448, Note_on_c, 0, 48, 0
1, 1769462, Note_on_c, 0, 87, 0
1, 1769466, Note_on_c, 0, 79, 78
1, 1769553, Note_on_c, 0, 77, 83
1, 1769567, Note_on_c, 0, 79, 0
1, 1769642, Note_on_c, 0, 85, 89
1, 1769651, Note_on_c, 0, 77, 0
1, 1769781, Note_on_c, 0, 84, 85
1, 1769796, Note_on_c, 0, 85, 0
1, 1769851, Note_on_c, 0, 84, 0
1, 1769870, Note_on_c, 0, 75, 74
1, 1769898, Note_on_c, 0, 55, 47
1, 1769898, Note_on_c, 0, 52, 46
1, 1769951, Note_on_c, 0, 73, 86
1, 1769989, Note_on_c, 0, 75, 0
1, 1770038, Control_c, 0, 64, 96
1, 1770043, Note_on_c, 0, 82, 87
1, 1770058, Control_c, 0, 64, 47
1, 1770075, Control_c, 0, 64, 23
1, 1770082, Note_on_c, 0, 73, 0
1, 1770094, Control_c, 0, 64, 36
1, 1770099, Note_on_c, 0, 56, 80
1, 1770113, Note_on_c, 0, 55, 0
1, 1770113, Control_c, 0, 64, 62
1, 1770113, Note_on_c, 0, 53, 74
1, 1770141, Note_on_c, 0, 52, 0
1, 1770141, Control_c, 0, 64, 93
1, 1770158, Note_on_c, 0, 80, 89
1, 1770158, Control_c, 0, 64, 127
1, 1770217, Note_on_c, 0, 82, 0
1, 1770248, Note_on_c, 0, 72, 84
1, 1770262, Note_on_c, 0, 80, 0
1, 1770305, Note_on_c, 0, 55, 73
1, 1770310, Note_on_c, 0, 58, 75
1, 1770322, Note_on_c, 0, 53, 0
1, 1770332, Note_on_c, 0, 56, 0
1, 1770357, Note_on_c, 0, 70, 81
1, 1770362, Note_on_c, 0, 72, 0
1, 1770377, Note_on_c, 0, 55, 0
1, 1770385, Note_on_c, 0, 70, 0
1, 1770399, Note_on_c, 0, 71, 60
1, 1770423, Note_on_c, 0, 81, 71
1, 1770426, Note_on_c, 0, 71, 0
1, 1770437, Control_c, 0, 64, 111
1, 1770444, Note_on_c, 0, 79, 69
1, 1770455, Control_c, 0, 64, 84
1, 1770474, Control_c, 0, 64, 59
1, 1770493, Control_c, 0, 64, 45
1, 1770501, Note_on_c, 0, 56, 69
1, 1770506, Note_on_c, 0, 60, 74
1, 1770512, Control_c, 0, 64, 41
1, 1770515, Note_on_c, 0, 77, 80
1, 1770531, Note_on_c, 0, 58, 0
1, 1770566, Note_on_c, 0, 81, 0
1, 1770569, Control_c, 0, 64, 31
1, 1770585, Control_c, 0, 64, 21
1, 1770600, Note_on_c, 0, 79, 0
1, 1770602, Control_c, 0, 64, 12
1, 1770622, Control_c, 0, 64, 0
1, 1770624, Note_on_c, 0, 68, 85
1, 1770650, Note_on_c, 0, 68, 0
1, 1770666, Note_on_c, 0, 77, 0
1, 1770702, Note_on_c, 0, 61, 92
1, 1770702, Note_on_c, 0, 76, 72
1, 1770711, Note_on_c, 0, 58, 84
1, 1770717, Note_on_c, 0, 77, 71
1, 1770721, Note_on_c, 0, 67, 89
1, 1770745, Note_on_c, 0, 60, 0
1, 1770747, Note_on_c, 0, 56, 0
1, 1770756, Note_on_c, 0, 61, 0
1, 1770770, Control_c, 0, 64, 34
1, 1770776, Note_on_c, 0, 58, 0
1, 1770789, Control_c, 0, 64, 59
1, 1770807, Control_c, 0, 64, 87
1, 1770822, Note_on_c, 0, 67, 0
1, 1770825, Control_c, 0, 64, 115
1, 1770844, Control_c, 0, 64, 127
1, 1770849, Note_on_c, 0, 76, 0
1, 1770866, Note_on_c, 0, 77, 0
1, 1771029, Control_c, 0, 64, 121
1, 1771049, Control_c, 0, 64, 73
1, 1771077, Control_c, 0, 64, 0
1, 1771083, Note_on_c, 0, 29, 87
1, 1771095, Poly_aftertouch_c, 0, 70, 0
1, 1771116, Note_on_c, 0, 66, 88
1, 1771133, Control_c, 0, 64, 30
1, 1771149, Control_c, 0, 64, 60
1, 1771169, Control_c, 0, 64, 94
1, 1771186, Control_c, 0, 64, 127
1, 1771228, Note_on_c, 0, 75, 88
1, 1771295, Note_on_c, 0, 66, 0
1, 1771325, Note_on_c, 0, 41, 98
1, 1771341, Note_on_c, 0, 73, 90
1, 1771370, Poly_aftertouch_c, 0, 69, 0
1, 1771373, Control_c, 0, 64, 115
1, 1771375, Note_on_c, 0, 75, 0
1, 1771391, Control_c, 0, 64, 55
1, 1771411, Control_c, 0, 64, 0
1, 1771445, Note_on_c, 0, 65, 79
1, 1771448, Note_on_c, 0, 73, 0
1, 1771465, Control_c, 0, 64, 17
1, 1771485, Control_c, 0, 64, 72
1, 1771503, Control_c, 0, 64, 106
1, 1771520, Control_c, 0, 64, 127
1, 1771539, Note_on_c, 0, 63, 89
1, 1771571, Note_on_c, 0, 65, 0
1, 1771628, Note_on_c, 0, 72, 81
1, 1771681, Note_on_c, 0, 63, 0
1, 1771732, Note_on_c, 0, 70, 83
1, 1771748, Note_on_c, 0, 72, 0
1, 1771804, Note_on_c, 0, 70, 0
1, 1771819, Note_on_c, 0, 61, 86
1, 1771917, Note_on_c, 0, 60, 74
1, 1771937, Note_on_c, 0, 61, 0
1, 1772026, Note_on_c, 0, 68, 78
1, 1772086, Note_on_c, 0, 60, 0
1, 1772116, Note_on_c, 0, 66, 82
1, 1772127, Note_on_c, 0, 41, 0
1, 1772155, Note_on_c, 0, 68, 0
1, 1772206, Note_on_c, 0, 29, 0
1, 1772216, Note_on_c, 0, 58, 81
1, 1772223, Note_on_c, 0, 66, 0
1, 1772315, Note_on_c, 0, 58, 0
1, 1772317, Note_on_c, 0, 56, 82
1, 1772340, Note_on_c, 0, 29, 67
1, 1772342, Note_on_c, 0, 41, 66
1, 1772344, Control_c, 0, 64, 106
1, 1772383, Control_c, 0, 64, 114
1, 1772399, Control_c, 0, 64, 127
1, 1772403, Note_on_c, 0, 65, 77
1, 1772428, Note_on_c, 0, 41, 0
1, 1772451, Note_on_c, 0, 29, 0
1, 1772501, Note_on_c, 0, 56, 0
1, 1772514, Note_on_c, 0, 63, 81
1, 1772524, Note_on_c, 0, 29, 60
1, 1772528, Note_on_c, 0, 65, 0
1, 1772545, Note_on_c, 0, 41, 79
1, 1772549, Control_c, 0, 64, 110
1, 1772568, Control_c, 0, 64, 91
1, 1772587, Control_c, 0, 64, 96
1, 1772592, Note_on_c, 0, 63, 0
1, 1772601, Note_on_c, 0, 29, 0
1, 1772604, Control_c, 0, 64, 114
1, 1772612, Note_on_c, 0, 54, 75
1, 1772618, Note_on_c, 0, 41, 0
1, 1772622, Control_c, 0, 64, 127
1, 1772715, Note_on_c, 0, 43, 86
1, 1772721, Note_on_c, 0, 31, 80
1, 1772725, Note_on_c, 0, 53, 75
1, 1772784, Note_on_c, 0, 31, 0
1, 1772800, Note_on_c, 0, 43, 0
1, 1772803, Note_on_c, 0, 61, 75
1, 1772857, Note_on_c, 0, 54, 0
1, 1772861, Note_on_c, 0, 53, 0
1, 1772870, Note_on_c, 0, 60, 71
1, 1772901, Note_on_c, 0, 33, 80
1, 1772910, Note_on_c, 0, 45, 83
1, 1772939, Note_on_c, 0, 61, 0
1, 1772992, Note_on_c, 0, 33, 0
1, 1773007, Note_on_c, 0, 51, 84
1, 1773010, Note_on_c, 0, 45, 0
1, 1773051, Note_on_c, 0, 60, 0
1, 1773076, Control_c, 0, 64, 104
1, 1773096, Control_c, 0, 64, 57
1, 1773115, Control_c, 0, 64, 0
1, 1773118, Note_on_c, 0, 53, 86
1, 1773119, Note_on_c, 0, 61, 86
1, 1773127, Note_on_c, 0, 46, 91
1, 1773139, Note_on_c, 0, 34, 70
1, 1773147, Note_on_c, 0, 51, 0
1, 1773243, Control_c, 0, 64, 38
1, 1773262, Control_c, 0, 64, 76
1, 1773266, Note_on_c, 0, 53, 0
1, 1773281, Control_c, 0, 64, 109
1, 1773291, Note_on_c, 0, 34, 0
1, 1773298, Control_c, 0, 64, 127
1, 1773301, Note_on_c, 0, 46, 0
1, 1773332, Note_on_c, 0, 61, 0
1, 1773428, Control_c, 0, 64, 123
1, 1773449, Control_c, 0, 64, 78
1, 1773466, Control_c, 0, 64, 0
1, 1773475, Note_on_c, 0, 30, 87
1, 1773540, Note_on_c, 0, 73, 98
1, 1773560, Control_c, 0, 64, 38
1, 1773576, Control_c, 0, 64, 74
1, 1773596, Control_c, 0, 64, 111
1, 1773614, Control_c, 0, 64, 127
1, 1773680, Note_on_c, 0, 82, 86
1, 1773821, Note_on_c, 0, 42, 97
1, 1773831, Note_on_c, 0, 80, 87
1, 1773836, Control_c, 0, 64, 107
1, 1773837, Note_on_c, 0, 73, 0
1, 1773857, Control_c, 0, 64, 57
1, 1773874, Control_c, 0, 64, 0
1, 1773904, Note_on_c, 0, 82, 0
1, 1773941, Poly_aftertouch_c, 0, 35, 0
1, 1773945, Note_on_c, 0, 72, 85
1, 1773949, Poly_aftertouch_c, 0, 36, 0
1, 1773954, Note_on_c, 0, 80, 0
1, 1773993, Control_c, 0, 64, 37
1, 1774013, Control_c, 0, 64, 68
1, 1774032, Control_c, 0, 64, 92
1, 1774046, Note_on_c, 0, 70, 86
1, 1774050, Control_c, 0, 64, 114
1, 1774068, Control_c, 0, 64, 127
1, 1774071, Note_on_c, 0, 72, 0
1, 1774145, Note_on_c, 0, 78, 82
1, 1774182, Note_on_c, 0, 70, 0
1, 1774227, Note_on_c, 0, 77, 75
1, 1774285, Note_on_c, 0, 78, 0
1, 1774313, Note_on_c, 0, 77, 0
1, 1774339, Note_on_c, 0, 68, 81
1, 1774411, Note_on_c, 0, 66, 81
1, 1774441, Note_on_c, 0, 68, 0
1, 1774504, Note_on_c, 0, 75, 87
1, 1774533, Note_on_c, 0, 42, 0
1, 1774566, Note_on_c, 0, 30, 0
1, 1774576, Note_on_c, 0, 66, 0
1, 1774582, Poly_aftertouch_c, 0, 36, 0
1, 1774606, Note_on_c, 0, 73, 85
1, 1774662, Note_on_c, 0, 75, 0
1, 1774698, Note_on_c, 0, 65, 77
1, 1774703, Note_on_c, 0, 73, 0
1, 1774750, Note_on_c, 0, 30, 58
1, 1774775, Note_on_c, 0, 42, 59
1, 1774807, Note_on_c, 0, 63, 57
1, 1774828, Note_on_c, 0, 62, 80
1, 1774879, Note_on_c, 0, 65, 0
1, 1774881, Note_on_c, 0, 42, 0
1, 1774885, Note_on_c, 0, 30, 0
1, 1774894, Note_on_c, 0, 72, 80
1, 1774899, Note_on_c, 0, 62, 0
1, 1774911, Poly_aftertouch_c, 0, 37, 0
1, 1774923, Note_on_c, 0, 63, 0
1, 1775008, Note_on_c, 0, 30, 62
1, 1775014, Note_on_c, 0, 42, 63
1, 1775023, Note_on_c, 0, 70, 82
1, 1775042, Control_c, 0, 64, 105
1, 1775060, Note_on_c, 0, 72, 0
1, 1775061, Control_c, 0, 64, 58
1, 1775076, Control_c, 0, 64, 0
1, 1775115, Control_c, 0, 64, 9
1, 1775130, Note_on_c, 0, 70, 0
1, 1775131, Note_on_c, 0, 61, 82
1, 1775133, Control_c, 0, 64, 38
1, 1775140, Note_on_c, 0, 42, 0
1, 1775152, Control_c, 0, 64, 63
1, 1775172, Control_c, 0, 64, 89
1, 1775190, Control_c, 0, 64, 115
1, 1775198, Note_on_c, 0, 30, 0
1, 1775208, Control_c, 0, 64, 127
1, 1775238, Note_on_c, 0, 60, 75
1, 1775242, Note_on_c, 0, 32, 65
1, 1775246, Note_on_c, 0, 44, 77
1, 1775326, Note_on_c, 0, 44, 0
1, 1775329, Note_on_c, 0, 32, 0
1, 1775333, Note_on_c, 0, 68, 85
1, 1775388, Note_on_c, 0, 61, 0
1, 1775406, Note_on_c, 0, 60, 0
1, 1775423, Note_on_c, 0, 66, 80
1, 1775458, Note_on_c, 0, 46, 79
1, 1775467, Note_on_c, 0, 34, 71
1, 1775487, Note_on_c, 0, 68, 0
1, 1775506, Note_on_c, 0, 58, 80
1, 1775544, Note_on_c, 0, 66, 0
1, 1775570, Poly_aftertouch_c, 0, 37, 0
1, 1775624, Note_on_c, 0, 58, 0
1, 1775626, Note_on_c, 0, 46, 0
1, 1775706, Note_on_c, 0, 47, 70
1, 1775711, Note_on_c, 0, 35, 68
1, 1775765, Note_on_c, 0, 34, 0
1, 1775801, Note_on_c, 0, 65, 81
1, 1775828, Control_c, 0, 64, 104
1, 1775847, Control_c, 0, 64, 69
1, 1775866, Control_c, 0, 64, 23
1, 1775884, Control_c, 0, 64, 0
1, 1775925, Note_on_c, 0, 56, 74
1, 1775978, Control_c, 0, 64, 15
1, 1775996, Control_c, 0, 64, 40
1, 1776013, Control_c, 0, 64, 59
1, 1776024, Note_on_c, 0, 56, 0
1, 1776029, Note_on_c, 0, 55, 78
1, 1776030, Control_c, 0, 64, 77
1, 1776050, Control_c, 0, 64, 90
1, 1776070, Control_c, 0, 64, 102
1, 1776087, Control_c, 0, 64, 112
1, 1776107, Control_c, 0, 64, 119
1, 1776126, Control_c, 0, 64, 124
1, 1776134, Note_on_c, 0, 64, 84
1, 1776142, Note_on_c, 0, 65, 0
1, 1776165, Note_on_c, 0, 55, 0
1, 1776203, Note_on_c, 0, 47, 0
1, 1776248, Note_on_c, 0, 65, 85
1, 1776281, Note_on_c, 0, 64, 0
1, 1776385, Note_on_c, 0, 56, 70
1, 1776456, Note_on_c, 0, 36, 50
1, 1776458, Control_c, 0, 64, 108
1, 1776471, Note_on_c, 0, 48, 57
1, 1776478, Control_c, 0, 64, 77
1, 1776491, Note_on_c, 0, 56, 0
1, 1776494, Note_on_c, 0, 35, 0
1, 1776495, Control_c, 0, 64, 38
1, 1776515, Control_c, 0, 64, 0
1, 1776517, Note_on_c, 0, 55, 59
1, 1776595, Note_on_c, 0, 65, 0
1, 1776603, Note_on_c, 0, 64, 72
1, 1776626, Control_c, 0, 64, 22
1, 1776643, Control_c, 0, 64, 40
1, 1776663, Control_c, 0, 64, 57
1, 1776676, Note_on_c, 0, 55, 0
1, 1776680, Control_c, 0, 64, 72
1, 1776709, Control_c, 0, 64, 80
1, 1776728, Control_c, 0, 64, 86
1, 1776732, Note_on_c, 0, 65, 75
1, 1776752, Note_on_c, 0, 64, 0
1, 1776763, Control_c, 0, 64, 74
1, 1776782, Control_c, 0, 64, 57
1, 1776801, Control_c, 0, 64, 31
1, 1776820, Control_c, 0, 64, 0
1, 1776821, Control_c, 0, 67, 9
1, 1776849, Note_on_c, 0, 56, 59
1, 1776856, Control_c, 0, 67, 15
1, 1776875, Control_c, 0, 64, 28
1, 1776894, Control_c, 0, 64, 48
1, 1776897, Control_c, 0, 67, 20
1, 1776914, Control_c, 0, 64, 71
1, 1776932, Control_c, 0, 64, 87
1, 1776943, Note_on_c, 0, 56, 0
1, 1776947, Control_c, 0, 64, 103
1, 1776962, Note_on_c, 0, 55, 61
1, 1776966, Control_c, 0, 64, 112
1, 1776986, Control_c, 0, 64, 119
1, 1776993, Note_on_c, 0, 48, 0
1, 1777005, Control_c, 0, 64, 123
1, 1777006, Control_c, 0, 67, 25
1, 1777024, Control_c, 0, 64, 127
1, 1777042, Control_c, 0, 67, 30
1, 1777085, Note_on_c, 0, 64, 72
1, 1777087, Note_on_c, 0, 65, 0
1, 1777185, Note_on_c, 0, 55, 0
1, 1777190, Control_c, 0, 67, 35
1, 1777209, Note_on_c, 0, 47, 42
1, 1777211, Note_on_c, 0, 35, 41
1, 1777300, Note_on_c, 0, 65, 67
1, 1777319, Control_c, 0, 64, 112
1, 1777320, Control_c, 0, 67, 39
1, 1777339, Control_c, 0, 64, 88
1, 1777340, Note_on_c, 0, 64, 0
1, 1777357, Control_c, 0, 64, 56
1, 1777359, Control_c, 0, 67, 46
1, 1777361, Note_on_c, 0, 36, 0
1, 1777374, Control_c, 0, 64, 0
1, 1777394, Control_c, 0, 67, 52
1, 1777432, Control_c, 0, 67, 57
1, 1777439, Note_on_c, 0, 56, 54
1, 1777469, Control_c, 0, 64, 19
1, 1777490, Control_c, 0, 64, 41
1, 1777491, Control_c, 0, 67, 63
1, 1777504, Control_c, 0, 64, 59
1, 1777505, Control_c, 0, 67, 67
1, 1777523, Control_c, 0, 64, 75
1, 1777524, Control_c, 0, 67, 72
1, 1777541, Note_on_c, 0, 56, 0
1, 1777542, Control_c, 0, 64, 84
1, 1777562, Control_c, 0, 64, 92
1, 1777562, Control_c, 0, 67, 78
1, 1777579, Control_c, 0, 64, 101
1, 1777598, Note_on_c, 0, 55, 52
1, 1777598, Control_c, 0, 64, 109
1, 1777600, Control_c, 0, 67, 83
1, 1777617, Control_c, 0, 64, 115
1, 1777628, Control_c, 0, 67, 87
1, 1777645, Control_c, 0, 67, 92
1, 1777664, Note_on_c, 0, 47, 0
1, 1777664, Control_c, 0, 64, 121
1, 1777664, Control_c, 0, 67, 98
1, 1777681, Control_c, 0, 67, 102
1, 1777700, Control_c, 0, 64, 125
1, 1777702, Control_c, 0, 67, 107
1, 1777736, Control_c, 0, 67, 113
1, 1777770, Note_on_c, 0, 64, 62
1, 1777774, Note_on_c, 0, 65, 0
1, 1777774, Control_c, 0, 67, 119
1, 1777810, Control_c, 0, 67, 123
1, 1777849, Control_c, 0, 67, 127
1, 1777871, Note_on_c, 0, 55, 0
1, 1777961, Note_on_c, 0, 36, 43
1, 1777968, Note_on_c, 0, 48, 39
1, 1777973, Note_on_c, 0, 65, 57
1, 1778008, Note_on_c, 0, 64, 0
1, 1778053, Control_c, 0, 64, 120
1, 1778071, Control_c, 0, 64, 108
1, 1778084, Note_on_c, 0, 35, 0
1, 1778088, Control_c, 0, 64, 89
1, 1778106, Control_c, 0, 64, 63
1, 1778113, Note_on_c, 0, 56, 50
1, 1778127, Control_c, 0, 64, 34
1, 1778144, Control_c, 0, 64, 14
1, 1778181, Control_c, 0, 64, 10
1, 1778240, Note_on_c, 0, 56, 0
1, 1778274, Control_c, 0, 64, 19
1, 1778291, Note_on_c, 0, 55, 47
1, 1778292, Control_c, 0, 64, 34
1, 1778310, Control_c, 0, 64, 47
1, 1778330, Control_c, 0, 64, 68
1, 1778348, Control_c, 0, 64, 83
1, 1778366, Control_c, 0, 64, 94
1, 1778387, Control_c, 0, 64, 103
1, 1778404, Control_c, 0, 64, 111
1, 1778423, Control_c, 0, 64, 115
1, 1778450, Note_on_c, 0, 55, 0
1, 1778454, Note_on_c, 0, 65, 0
1, 1778457, Note_on_c, 0, 64, 56
1, 1778514, Control_c, 0, 64, 106
1, 1778533, Control_c, 0, 64, 93
1, 1778552, Control_c, 0, 64, 75
1, 1778581, Control_c, 0, 64, 53
1, 1778599, Control_c, 0, 64, 33
1, 1778618, Control_c, 0, 64, 26
1, 1778655, Note_on_c, 0, 41, 67
1, 1778662, Note_on_c, 0, 48, 0
1, 1778667, Note_on_c, 0, 36, 0
1, 1778671, Note_on_c, 0, 64, 0
1, 1778673, Note_on_c, 0, 65, 66
1, 1778673, Control_c, 0, 64, 20
1, 1778687, Note_on_c, 0, 41, 0
1, 1778687, Note_on_c, 0, 53, 46
1, 1778702, Note_on_c, 0, 65, 0
1, 1778709, Control_c, 0, 64, 14
1, 1778728, Note_on_c, 0, 53, 0
1, 1778820, Control_c, 0, 64, 10
1, 1779108, Note_on_c, 0, 54, 60
1, 1779110, Note_on_c, 0, 42, 61
1, 1779117, Control_c, 0, 64, 26
1, 1779136, Control_c, 0, 64, 41
1, 1779155, Control_c, 0, 64, 52
1, 1779173, Control_c, 0, 64, 66
1, 1779190, Control_c, 0, 64, 72
1, 1779209, Control_c, 0, 64, 75
1, 1779229, Control_c, 0, 64, 78
1, 1779247, Control_c, 0, 64, 81
1, 1779302, Control_c, 0, 64, 78
1, 1779317, Note_on_c, 0, 53, 53
1, 1779317, Note_on_c, 0, 65, 53
1, 1779321, Control_c, 0, 64, 74
1, 1779340, Control_c, 0, 64, 68
1, 1779347, Note_on_c, 0, 53, 0
1, 1779348, Note_on_c, 0, 65, 0
1, 1779359, Control_c, 0, 64, 60
1, 1779375, Control_c, 0, 64, 54
1, 1779393, Note_on_c, 0, 54, 0
1, 1779393, Control_c, 0, 64, 47
1, 1779413, Control_c, 0, 64, 38
1, 1779432, Control_c, 0, 64, 31
1, 1779450, Control_c, 0, 64, 27
1, 1779467, Note_on_c, 0, 42, 0
1, 1779516, Control_c, 0, 64, 21
1, 1779530, Note_on_c, 0, 53, 67
1, 1779542, Note_on_c, 0, 41, 58
1, 1779552, Control_c, 0, 64, 17
1, 1779562, Note_on_c, 0, 53, 0
1, 1779573, Note_on_c, 0, 41, 0
1, 1779644, Control_c, 0, 64, 13
1, 1779747, Note_on_c, 0, 51, 69
1, 1779754, Note_on_c, 0, 39, 65
1, 1779778, Note_on_c, 0, 51, 0
1, 1779788, Note_on_c, 0, 39, 0
1, 1780016, Note_on_c, 0, 65, 73
1, 1780018, Note_on_c, 0, 53, 68
1, 1780018, Note_on_c, 0, 50, 76
1, 1780028, Note_on_c, 0, 38, 67
1, 1780048, Note_on_c, 0, 65, 0
1, 1780049, Note_on_c, 0, 53, 0
1, 1780049, Note_on_c, 0, 50, 0
1, 1780060, Note_on_c, 0, 38, 0
1, 1780125, Control_c, 0, 64, 9
1, 1780312, Note_on_c, 0, 48, 66
1, 1780349, Note_on_c, 0, 48, 0
1, 1780419, Note_on_c, 0, 46, 75
1, 1780445, Poly_aftertouch_c, 0, 36, 0
1, 1780456, Note_on_c, 0, 34, 48
1, 1780465, Note_on_c, 0, 46, 0
1, 1780500, Note_on_c, 0, 34, 0
1, 1780671, Note_on_c, 0, 65, 68
1, 1780677, Note_on_c, 0, 53, 58
1, 1780702, Note_on_c, 0, 65, 0
1, 1780706, Note_on_c, 0, 53, 0
1, 1781302, Note_on_c, 0, 65, 62
1, 1781313, Note_on_c, 0, 53, 45
1, 1781313, Note_on_c, 0, 48, 57
1, 1781320, Note_on_c, 0, 36, 47
1, 1781338, Note_on_c, 0, 65, 0
1, 1781347, Note_on_c, 0, 48, 0
1, 1781350, Note_on_c, 0, 53, 0
1, 1781375, Note_on_c, 0, 36, 0
1, 1781721, Control_c, 0, 64, 13
1, 1781739, Control_c, 0, 64, 23
1, 1781757, Control_c, 0, 64, 34
1, 1781760, Note_on_c, 0, 49, 72
1, 1781774, Note_on_c, 0, 37, 61
1, 1781775, Control_c, 0, 64, 48
1, 1781795, Control_c, 0, 64, 68
1, 1781812, Control_c, 0, 64, 79
1, 1781831, Control_c, 0, 64, 87
1, 1781849, Control_c, 0, 64, 95
1, 1781868, Control_c, 0, 64, 103
1, 1781888, Control_c, 0, 64, 108
1, 1781924, Control_c, 0, 64, 113
1, 1781985, Note_on_c, 0, 65, 57
1, 1781989, Note_on_c, 0, 53, 46
1, 1782024, Note_on_c, 0, 53, 0
1, 1782033, Note_on_c, 0, 65, 0
1, 1782033, Control_c, 0, 64, 108
1, 1782053, Control_c, 0, 64, 102
1, 1782062, Note_on_c, 0, 49, 0
1, 1782070, Control_c, 0, 64, 93
1, 1782090, Control_c, 0, 64, 82
1, 1782110, Control_c, 0, 64, 67
1, 1782127, Control_c, 0, 64, 55
1, 1782142, Note_on_c, 0, 37, 0
1, 1782146, Control_c, 0, 64, 47
1, 1782166, Control_c, 0, 64, 41
1, 1782198, Note_on_c, 0, 48, 69
1, 1782201, Control_c, 0, 64, 36
1, 1782219, Note_on_c, 0, 36, 45
1, 1782232, Note_on_c, 0, 48, 0
1, 1782257, Control_c, 0, 64, 31
1, 1782263, Note_on_c, 0, 36, 0
1, 1782434, Note_on_c, 0, 46, 65
1, 1782460, Note_on_c, 0, 34, 39
1, 1782467, Note_on_c, 0, 46, 0
1, 1782510, Note_on_c, 0, 34, 0
1, 1782600, Control_c, 0, 64, 27
1, 1782717, Note_on_c, 0, 45, 70
1, 1782726, Note_on_c, 0, 65, 54
1, 1782732, Note_on_c, 0, 33, 57
1, 1782738, Note_on_c, 0, 53, 37
1, 1782751, Note_on_c, 0, 45, 0
1, 1782755, Note_on_c, 0, 65, 0
1, 1782766, Note_on_c, 0, 33, 0
1, 1782780, Note_on_c, 0, 53, 0
1, 1783049, Note_on_c, 0, 43, 61
1, 1783067, Note_on_c, 0, 31, 51
1, 1783084, Note_on_c, 0, 43, 0
1, 1783110, Note_on_c, 0, 31, 0
1, 1783160, Note_on_c, 0, 41, 66
1, 1783191, Note_on_c, 0, 29, 36
1, 1783192, Note_on_c, 0, 41, 0
1, 1783255, Note_on_c, 0, 29, 0
1, 1783439, Note_on_c, 0, 65, 56
1, 1783441, Note_on_c, 0, 53, 48
1, 1783468, Note_on_c, 0, 65, 0
1, 1783477, Note_on_c, 0, 53, 0
1, 1784112, Note_on_c, 0, 65, 57
1, 1784114, Note_on_c, 0, 45, 63
1, 1784118, Note_on_c, 0, 53, 48
1, 1784124, Note_on_c, 0, 33, 55
1, 1784142, Note_on_c, 0, 65, 0
1, 1784151, Note_on_c, 0, 45, 0
1, 1784154, Note_on_c, 0, 53, 0
1, 1784159, Note_on_c, 0, 33, 0
1, 1784426, Note_on_c, 0, 43, 55
1, 1784450, Note_on_c, 0, 31, 36
1, 1784460, Note_on_c, 0, 43, 0
1, 1784503, Note_on_c, 0, 31, 0
1, 1784533, Note_on_c, 0, 41, 68
1, 1784548, Note_on_c, 0, 29, 53
1, 1784566, Note_on_c, 0, 41, 0
1, 1784591, Note_on_c, 0, 29, 0
1, 1784823, Note_on_c, 0, 53, 66
1, 1784858, Note_on_c, 0, 53, 0
1, 1784898, Control_c, 0, 64, 23
1, 1784953, Control_c, 0, 64, 15
1, 1785007, Control_c, 0, 64, 0
1, 1785333, Control_c, 0, 64, 14
1, 1785352, Control_c, 0, 64, 20
1, 1785369, Control_c, 0, 64, 26
1, 1785388, Control_c, 0, 64, 31
1, 1785406, Control_c, 0, 64, 37
1, 1785424, Control_c, 0, 64, 46
1, 1785444, Control_c, 0, 64, 58
1, 1785462, Control_c, 0, 64, 65
1, 1785481, Control_c, 0, 64, 67
1, 1785500, Control_c, 0, 64, 70
1, 1785519, Control_c, 0, 64, 75
1, 1785537, Control_c, 0, 64, 82
1, 1785555, Control_c, 0, 64, 89
1, 1785573, Control_c, 0, 64, 95
1, 1785591, Control_c, 0, 64, 100
1, 1785610, Control_c, 0, 64, 105
1, 1785629, Control_c, 0, 64, 110
1, 1785648, Control_c, 0, 64, 115
1, 1785685, Control_c, 0, 64, 122
1, 1785720, Note_on_c, 0, 41, 31
1, 1785722, Control_c, 0, 64, 127
1, 1785745, Note_on_c, 0, 29, 23
1, 1786097, Note_on_c, 0, 41, 0
1, 1786630, Note_on_c, 0, 39, 25
1, 1786649, Note_on_c, 0, 27, 25
1, 1786763, Note_on_c, 0, 29, 0
1, 1786768, Control_c, 0, 64, 107
1, 1786787, Control_c, 0, 64, 77
1, 1786806, Control_c, 0, 64, 50
1, 1786825, Control_c, 0, 64, 44
1, 1786844, Control_c, 0, 64, 46
1, 1786860, Control_c, 0, 64, 55
1, 1786880, Control_c, 0, 64, 64
1, 1786897, Control_c, 0, 64, 73
1, 1786917, Control_c, 0, 64, 85
1, 1786936, Control_c, 0, 64, 102
1, 1786953, Control_c, 0, 64, 117
1, 1786973, Control_c, 0, 64, 125
1, 1787319, Note_on_c, 0, 39, 0
1, 1787938, Note_on_c, 0, 37, 28
1, 1787938, Note_on_c, 0, 65, 39
1, 1787951, Note_on_c, 0, 56, 23
1, 1787958, Note_on_c, 0, 61, 28
1, 1787964, Note_on_c, 0, 25, 23
1, 1788083, Control_c, 0, 64, 101
1, 1788103, Control_c, 0, 64, 71
1, 1788106, Note_on_c, 0, 27, 0
1, 1788121, Control_c, 0, 64, 49
1, 1788159, Control_c, 0, 64, 53
1, 1788176, Control_c, 0, 64, 60
1, 1788194, Control_c, 0, 64, 68
1, 1788214, Control_c, 0, 64, 79
1, 1788232, Control_c, 0, 64, 95
1, 1788251, Control_c, 0, 64, 113
1, 1788269, Control_c, 0, 64, 127
1, 1788308, Note_on_c, 0, 61, 0
1, 1788398, Control_c, 0, 67, 122
1, 1788435, Control_c, 0, 67, 118
1, 1788472, Control_c, 0, 67, 111
1, 1788492, Control_c, 0, 67, 106
1, 1788498, Note_on_c, 0, 56, 0
1, 1788510, Control_c, 0, 67, 99
1, 1788530, Control_c, 0, 67, 91
1, 1788545, Control_c, 0, 67, 82
1, 1788565, Control_c, 0, 67, 73
1, 1788583, Control_c, 0, 67, 64
1, 1788602, Control_c, 0, 67, 56
1, 1788620, Control_c, 0, 67, 50
1, 1788639, Control_c, 0, 67, 44
1, 1788659, Control_c, 0, 67, 38
1, 1788677, Control_c, 0, 67, 32
1, 1788696, Control_c, 0, 67, 27
1, 1788714, Control_c, 0, 67, 22
1, 1788732, Control_c, 0, 67, 16
1, 1788750, Control_c, 0, 67, 12
1, 1788769, Control_c, 0, 67, 8
1, 1788786, Note_on_c, 0, 63, 42
1, 1788809, Note_on_c, 0, 60, 38
1, 1788810, Note_on_c, 0, 54, 34
1, 1788825, Control_c, 0, 67, 0
1, 1789019, Note_on_c, 0, 65, 0
1, 1789116, Note_on_c, 0, 25, 0
1, 1789146, Note_on_c, 0, 37, 0
1, 1789214, Note_on_c, 0, 60, 0
1, 1789387, Note_on_c, 0, 54, 0
1, 1789463, Control_c, 0, 67, 11
1, 1789483, Control_c, 0, 67, 20
1, 1789500, Control_c, 0, 67, 35
1, 1789519, Control_c, 0, 67, 56
1, 1789540, Control_c, 0, 67, 77
1, 1789556, Control_c, 0, 67, 97
1, 1789576, Control_c, 0, 67, 114
1, 1789594, Control_c, 0, 67, 125
1, 1789628, Note_on_c, 0, 56, 27
1, 1789633, Note_on_c, 0, 61, 46
1, 1789641, Note_on_c, 0, 37, 29
1, 1789646, Note_on_c, 0, 25, 22
1, 1789648, Note_on_c, 0, 53, 30
1, 1789759, Control_c, 0, 64, 97
1, 1789767, Note_on_c, 0, 63, 0
1, 1789779, Control_c, 0, 64, 64
1, 1789807, Control_c, 0, 64, 39
1, 1789844, Control_c, 0, 64, 41
1, 1789861, Control_c, 0, 64, 54
1, 1789881, Control_c, 0, 64, 67
1, 1789899, Control_c, 0, 64, 84
1, 1789918, Control_c, 0, 64, 105
1, 1789935, Control_c, 0, 64, 127
1, 1790004, Note_on_c, 0, 56, 0
1, 1790065, Note_on_c, 0, 53, 0
1, 1790421, Note_on_c, 0, 56, 37
1, 1790435, Note_on_c, 0, 49, 31
1, 1790436, Note_on_c, 0, 53, 23
1, 1790451, Poly_aftertouch_c, 0, 25, 20
1, 1790454, Note_on_c, 0, 25, 0
1, 1790454, Poly_aftertouch_c, 0, 25, 0
1, 1790569, Note_on_c, 0, 37, 0
1, 1790602, Note_on_c, 0, 49, 0
1, 1790695, Note_on_c, 0, 56, 0
1, 1790695, Note_on_c, 0, 53, 0
1, 1790803, Note_on_c, 0, 61, 0
1, 1791315, Note_on_c, 0, 68, 51
1, 1791339, Note_on_c, 0, 56, 34
1, 1791351, Note_on_c, 0, 65, 39
1, 1791353, Note_on_c, 0, 37, 29
1, 1791369, Note_on_c, 0, 25, 21
1, 1791658, Note_on_c, 0, 56, 0
1, 1791716, Note_on_c, 0, 65, 0
1, 1792072, Note_on_c, 0, 66, 51
1, 1792083, Control_c, 0, 67, 121
1, 1792086, Note_on_c, 0, 63, 33
1, 1792088, Note_on_c, 0, 60, 41
1, 1792141, Control_c, 0, 67, 117
1, 1792178, Control_c, 0, 67, 108
1, 1792196, Control_c, 0, 67, 102
1, 1792216, Control_c, 0, 67, 94
1, 1792227, Note_on_c, 0, 68, 0
1, 1792232, Control_c, 0, 67, 85
1, 1792251, Control_c, 0, 67, 76
1, 1792270, Control_c, 0, 67, 66
1, 1792289, Control_c, 0, 67, 55
1, 1792307, Control_c, 0, 67, 45
1, 1792325, Control_c, 0, 67, 37
1, 1792345, Control_c, 0, 67, 28
1, 1792362, Control_c, 0, 67, 19
1, 1792375, Note_on_c, 0, 37, 0
1, 1792382, Note_on_c, 0, 63, 0
1, 1792382, Control_c, 0, 67, 9
1, 1792417, Control_c, 0, 67, 0
1, 1792453, Note_on_c, 0, 25, 0
1, 1792640, Note_on_c, 0, 66, 0
1, 1792870, Note_on_c, 0, 65, 58
1, 1792872, Note_on_c, 0, 37, 39
1, 1792875, Note_on_c, 0, 25, 32
1, 1792888, Note_on_c, 0, 61, 46
1, 1793076, Control_c, 0, 64, 101
1, 1793095, Control_c, 0, 64, 72
1, 1793114, Control_c, 0, 64, 54
1, 1793115, Note_on_c, 0, 60, 0
1, 1793152, Control_c, 0, 64, 60
1, 1793168, Control_c, 0, 64, 68
1, 1793187, Control_c, 0, 64, 77
1, 1793205, Control_c, 0, 64, 91
1, 1793224, Control_c, 0, 64, 110
1, 1793243, Control_c, 0, 64, 127
1, 1793328, Note_on_c, 0, 61, 0
1, 1793705, Note_on_c, 0, 61, 55
1, 1793707, Note_on_c, 0, 56, 40
1, 1793719, Note_on_c, 0, 53, 34
1, 1793927, Note_on_c, 0, 65, 0
1, 1793976, Note_on_c, 0, 53, 0
1, 1794059, Note_on_c, 0, 56, 0
1, 1794125, Note_on_c, 0, 61, 0
1, 1794552, Note_on_c, 0, 70, 62
1, 1794587, Note_on_c, 0, 66, 45
1, 1794589, Note_on_c, 0, 30, 38
1, 1794591, Note_on_c, 0, 58, 34
1, 1794601, Note_on_c, 0, 61, 32
1, 1794708, Control_c, 0, 64, 117
1, 1794725, Control_c, 0, 64, 90
1, 1794744, Control_c, 0, 64, 65
1, 1794762, Control_c, 0, 64, 56
1, 1794800, Control_c, 0, 64, 65
1, 1794819, Control_c, 0, 64, 71
1, 1794837, Control_c, 0, 64, 81
1, 1794854, Control_c, 0, 64, 98
1, 1794873, Control_c, 0, 64, 118
1, 1794891, Control_c, 0, 64, 127
1, 1794966, Note_on_c, 0, 61, 0
1, 1794971, Note_on_c, 0, 66, 0
1, 1795033, Note_on_c, 0, 58, 0
1, 1795053, Note_on_c, 0, 25, 0
1, 1795100, Note_on_c, 0, 37, 0
1, 1795294, Note_on_c, 0, 68, 64
1, 1795295, Note_on_c, 0, 37, 51
1, 1795297, Note_on_c, 0, 61, 50
1, 1795302, Note_on_c, 0, 25, 50
1, 1795309, Note_on_c, 0, 65, 45
1, 1795458, Control_c, 0, 64, 102
1, 1795476, Control_c, 0, 64, 73
1, 1795493, Control_c, 0, 64, 49
1, 1795515, Control_c, 0, 64, 44
1, 1795517, Note_on_c, 0, 70, 0
1, 1795523, Note_on_c, 0, 30, 0
1, 1795550, Control_c, 0, 64, 53
1, 1795568, Control_c, 0, 64, 62
1, 1795587, Note_on_c, 0, 65, 0
1, 1795587, Control_c, 0, 64, 74
1, 1795605, Control_c, 0, 64, 90
1, 1795623, Control_c, 0, 64, 112
1, 1795642, Control_c, 0, 64, 127
1, 1795772, Note_on_c, 0, 61, 0
1, 1795832, Note_on_c, 0, 37, 0
1, 1796018, Note_on_c, 0, 66, 68
1, 1796026, Note_on_c, 0, 63, 51
1, 1796031, Note_on_c, 0, 39, 58
1, 1796033, Note_on_c, 0, 58, 55
1, 1796034, Note_on_c, 0, 27, 58
1, 1796083, Note_on_c, 0, 68, 0
1, 1796226, Note_on_c, 0, 25, 0
1, 1796262, Note_on_c, 0, 63, 0
1, 1796410, Note_on_c, 0, 58, 0
1, 1796559, Note_on_c, 0, 39, 0
1, 1796600, Note_on_c, 0, 27, 0
1, 1796726, Note_on_c, 0, 65, 80
1, 1796728, Note_on_c, 0, 41, 74
1, 1796737, Note_on_c, 0, 29, 71
1, 1796750, Note_on_c, 0, 60, 61
1, 1796751, Note_on_c, 0, 56, 57
1, 1796784, Note_on_c, 0, 66, 0
1, 1796803, Poly_aftertouch_c, 0, 32, 0
1, 1796985, Note_on_c, 0, 60, 0
1, 1797125, Note_on_c, 0, 56, 0
1, 1797258, Note_on_c, 0, 41, 0
1, 1797491, Note_on_c, 0, 61, 80
1, 1797499, Note_on_c, 0, 42, 72
1, 1797509, Note_on_c, 0, 58, 66
1, 1797510, Note_on_c, 0, 30, 68
1, 1797512, Note_on_c, 0, 54, 64
1, 1797550, Control_c, 0, 64, 112
1, 1797569, Control_c, 0, 64, 78
1, 1797576, Note_on_c, 0, 65, 0
1, 1797588, Control_c, 0, 64, 50
1, 1797606, Control_c, 0, 64, 46
1, 1797642, Note_on_c, 0, 29, 0
1, 1797643, Control_c, 0, 64, 53
1, 1797661, Control_c, 0, 64, 67
1, 1797680, Control_c, 0, 64, 83
1, 1797699, Control_c, 0, 64, 109
1, 1797717, Control_c, 0, 64, 127
1, 1797844, Note_on_c, 0, 54, 0
1, 1798095, Note_on_c, 0, 42, 0
1, 1798197, Note_on_c, 0, 43, 82
1, 1798198, Control_c, 0, 64, 106
1, 1798204, Note_on_c, 0, 31, 70
1, 1798226, Control_c, 0, 64, 68
1, 1798244, Control_c, 0, 64, 43
1, 1798246, Note_on_c, 0, 51, 62
1, 1798248, Note_on_c, 0, 30, 0
1, 1798282, Control_c, 0, 64, 49
1, 1798300, Control_c, 0, 64, 64
1, 1798320, Control_c, 0, 64, 82
1, 1798339, Control_c, 0, 64, 109
1, 1798357, Control_c, 0, 64, 127
1, 1798443, Note_on_c, 0, 63, 78
1, 1798452, Note_on_c, 0, 58, 0
1, 1798461, Note_on_c, 0, 51, 0
1, 1798511, Note_on_c, 0, 61, 0
1, 1798636, Note_on_c, 0, 65, 81
1, 1798671, Note_on_c, 0, 43, 0
1, 1798674, Note_on_c, 0, 63, 0
1, 1798907, Note_on_c, 0, 44, 81
1, 1798907, Note_on_c, 0, 63, 82
1, 1798911, Note_on_c, 0, 32, 76
1, 1798922, Note_on_c, 0, 60, 66
1, 1798929, Note_on_c, 0, 56, 61
1, 1798931, Control_c, 0, 64, 109
1, 1798950, Control_c, 0, 64, 72
1, 1798969, Note_on_c, 0, 65, 0
1, 1798969, Control_c, 0, 64, 21
1, 1798973, Note_on_c, 0, 31, 0
1, 1798987, Control_c, 0, 64, 0
1, 1799079, Control_c, 0, 64, 39
1, 1799098, Control_c, 0, 64, 68
1, 1799119, Control_c, 0, 64, 97
1, 1799135, Control_c, 0, 64, 127
1, 1799256, Note_on_c, 0, 63, 0
1, 1799258, Note_on_c, 0, 60, 0
1, 1799281, Note_on_c, 0, 32, 0
1, 1799295, Note_on_c, 0, 44, 0
1, 1799320, Note_on_c, 0, 56, 0
1, 1799658, Note_on_c, 0, 56, 81
1, 1799675, Note_on_c, 0, 51, 62
1, 1799677, Note_on_c, 0, 48, 62
1, 1799811, Control_c, 0, 64, 112
1, 1799830, Control_c, 0, 64, 68
1, 1799848, Note_on_c, 0, 25, 76
1, 1799848, Control_c, 0, 64, 0
1, 1799877, Note_on_c, 0, 48, 0
1, 1799938, Note_on_c, 0, 51, 0
1, 1799959, Control_c, 0, 64, 33
1, 1799977, Control_c, 0, 64, 64
1, 1799997, Control_c, 0, 64, 94
1, 1800007, Note_on_c, 0, 56, 0
1, 1800009, Note_on_c, 0, 37, 85
1, 1800015, Control_c, 0, 64, 127
1, 1800030, Note_on_c, 0, 25, 0
1, 1800096, Note_on_c, 0, 37, 0
1, 1800390, Note_on_c, 0, 77, 85
1, 1800395, Note_on_c, 0, 65, 73
1, 1800409, Note_on_c, 0, 56, 57
1, 1800413, Note_on_c, 0, 61, 58
1, 1800415, Note_on_c, 0, 68, 66
1, 1800425, Note_on_c, 0, 73, 61
1, 1800541, Note_on_c, 0, 65, 0
1, 1800561, Note_on_c, 0, 56, 0
1, 1800582, Note_on_c, 0, 61, 0
1, 1800649, Note_on_c, 0, 73, 0
1, 1800754, Note_on_c, 0, 68, 0
1, 1800839, Note_on_c, 0, 77, 0
1, 1801080, Note_on_c, 0, 75, 83
1, 1801089, Note_on_c, 0, 63, 71
1, 1801098, Note_on_c, 0, 68, 57
1, 1801103, Note_on_c, 0, 72, 61
1, 1801103, Note_on_c, 0, 66, 63
1, 1801104, Note_on_c, 0, 60, 64
1, 1801114, Note_on_c, 0, 54, 58
1, 1801115, Note_on_c, 0, 56, 57
1, 1801236, Note_on_c, 0, 72, 0
1, 1801258, Note_on_c, 0, 63, 0
1, 1801284, Note_on_c, 0, 60, 0
1, 1801289, Note_on_c, 0, 56, 0
1, 1801332, Note_on_c, 0, 75, 0
1, 1801336, Note_on_c, 0, 68, 0
1, 1801340, Note_on_c, 0, 54, 0
1, 1801399, Note_on_c, 0, 66, 0
1, 1801720, Control_c, 0, 64, 118
1, 1801729, Note_on_c, 0, 73, 81
1, 1801734, Note_on_c, 0, 61, 71
1, 1801739, Control_c, 0, 64, 83
1, 1801741, Note_on_c, 0, 53, 61
1, 1801745, Note_on_c, 0, 56, 59
1, 1801752, Note_on_c, 0, 68, 63
1, 1801755, Note_on_c, 0, 65, 61
1, 1801758, Control_c, 0, 64, 74
1, 1801775, Control_c, 0, 64, 85
1, 1801793, Control_c, 0, 64, 103
1, 1801810, Control_c, 0, 64, 127
1, 1801812, Control_c, 0, 67, 13
1, 1801829, Control_c, 0, 67, 27
1, 1801849, Control_c, 0, 67, 42
1, 1801867, Control_c, 0, 67, 51
1, 1801884, Note_on_c, 0, 68, 0
1, 1801937, Note_on_c, 0, 65, 0
1, 1801942, Control_c, 0, 67, 47
1, 1801967, Note_on_c, 0, 56, 0
1, 1801971, Note_on_c, 0, 73, 0
1, 1801982, Note_on_c, 0, 53, 0
1, 1801986, Control_c, 0, 67, 39
1, 1802006, Control_c, 0, 67, 31
1, 1802024, Control_c, 0, 67, 23
1, 1802044, Control_c, 0, 67, 15
1, 1802081, Control_c, 0, 67, 0
1, 1802101, Note_on_c, 0, 61, 0
1, 1802311, Note_on_c, 0, 49, 62
1, 1802318, Note_on_c, 0, 56, 58
1, 1802334, Note_on_c, 0, 53, 33
1, 1802350, Note_on_c, 0, 56, 0
1, 1802377, Note_on_c, 0, 53, 0
1, 1802379, Note_on_c, 0, 49, 0
1, 1802407, Note_on_c, 0, 68, 85
1, 1802427, Note_on_c, 0, 61, 68
1, 1802428, Note_on_c, 0, 65, 69
1, 1802561, Control_c, 0, 64, 101
1, 1802580, Control_c, 0, 64, 51
1, 1802599, Control_c, 0, 64, 0
1, 1802615, Note_on_c, 0, 25, 65
1, 1802671, Note_on_c, 0, 61, 0
1, 1802673, Control_c, 0, 64, 18
1, 1802679, Note_on_c, 0, 65, 0
1, 1802693, Control_c, 0, 64, 56
1, 1802710, Control_c, 0, 64, 99
1, 1802719, Note_on_c, 0, 37, 82
1, 1802728, Control_c, 0, 64, 127
1, 1802736, Note_on_c, 0, 25, 0
1, 1802739, Note_on_c, 0, 68, 0
1, 1802774, Note_on_c, 0, 37, 0
1, 1803026, Note_on_c, 0, 80, 91
1, 1803035, Note_on_c, 0, 61, 60
1, 1803037, Note_on_c, 0, 65, 68
1, 1803039, Note_on_c, 0, 56, 64
1, 1803046, Note_on_c, 0, 68, 74
1, 1803052, Note_on_c, 0, 73, 69
1, 1803156, Note_on_c, 0, 65, 0
1, 1803185, Note_on_c, 0, 56, 0
1, 1803189, Note_on_c, 0, 61, 0
1, 1803281, Note_on_c, 0, 73, 0
1, 1803486, Note_on_c, 0, 80, 0
1, 1803571, Note_on_c, 0, 68, 0
1, 1803671, Note_on_c, 0, 78, 85
1, 1803673, Note_on_c, 0, 68, 68
1, 1803674, Note_on_c, 0, 63, 75
1, 1803690, Note_on_c, 0, 66, 70
1, 1803690, Note_on_c, 0, 60, 67
1, 1803692, Note_on_c, 0, 72, 63
1, 1803693, Note_on_c, 0, 75, 64
1, 1803693, Note_on_c, 0, 56, 62
1, 1803703, Note_on_c, 0, 54, 59
1, 1803757, Note_on_c, 0, 66, 0
1, 1803757, Note_on_c, 0, 66, 39
1, 1803836, Note_on_c, 0, 66, 0
1, 1803836, Note_on_c, 0, 66, 33
1, 1803902, Note_on_c, 0, 72, 0
1, 1803912, Note_on_c, 0, 75, 0
1, 1803916, Note_on_c, 0, 63, 0
1, 1803941, Note_on_c, 0, 56, 0
1, 1803941, Note_on_c, 0, 60, 0
1, 1803971, Note_on_c, 0, 78, 0
1, 1803995, Note_on_c, 0, 68, 0
1, 1804011, Note_on_c, 0, 54, 0
1, 1804034, Note_on_c, 0, 66, 0
1, 1804319, Note_on_c, 0, 77, 86
1, 1804329, Note_on_c, 0, 73, 74
1, 1804330, Note_on_c, 0, 61, 74
1, 1804330, Note_on_c, 0, 65, 74
1, 1804334, Note_on_c, 0, 68, 67
1, 1804336, Note_on_c, 0, 53, 66
1, 1804337, Note_on_c, 0, 56, 66
1, 1804359, Control_c, 0, 64, 106
1, 1804378, Control_c, 0, 64, 68
1, 1804396, Control_c, 0, 64, 51
1, 1804413, Control_c, 0, 64, 57
1, 1804433, Control_c, 0, 64, 68
1, 1804451, Control_c, 0, 64, 87
1, 1804470, Control_c, 0, 64, 127
1, 1804559, Note_on_c, 0, 77, 0
1, 1804601, Note_on_c, 0, 65, 0
1, 1804602, Note_on_c, 0, 73, 0
1, 1804629, Note_on_c, 0, 68, 0
1, 1804636, Note_on_c, 0, 56, 0
1, 1804663, Note_on_c, 0, 53, 0
1, 1804673, Note_on_c, 0, 61, 0
1, 1804965, Note_on_c, 0, 53, 66
1, 1804969, Note_on_c, 0, 49, 70
1, 1804970, Note_on_c, 0, 56, 71
1, 1804975, Note_on_c, 0, 73, 86
1, 1804979, Note_on_c, 0, 61, 85
1, 1804985, Note_on_c, 0, 68, 79
1, 1804988, Note_on_c, 0, 65, 76
1, 1805076, Note_on_c, 0, 56, 0
1, 1805090, Note_on_c, 0, 53, 0
1, 1805140, Note_on_c, 0, 61, 0
1, 1805145, Note_on_c, 0, 49, 0
1, 1805212, Note_on_c, 0, 65, 0
1, 1805249, Note_on_c, 0, 68, 0
1, 1805304, Note_on_c, 0, 73, 0
1, 1805691, Note_on_c, 0, 30, 64
1, 1805711, Note_on_c, 0, 42, 71
1, 1805712, Note_on_c, 0, 82, 86
1, 1805717, Note_on_c, 0, 78, 76
1, 1805721, Note_on_c, 0, 70, 75
1, 1805726, Note_on_c, 0, 73, 68
1, 1805767, Control_c, 0, 64, 110
1, 1805786, Control_c, 0, 64, 65
1, 1805803, Control_c, 0, 64, 0
1, 1805861, Control_c, 0, 64, 40
1, 1805879, Control_c, 0, 64, 70
1, 1805896, Control_c, 0, 64, 102
1, 1805914, Control_c, 0, 64, 127
1, 1806065, Note_on_c, 0, 78, 0
1, 1806077, Note_on_c, 0, 42, 0
1, 1806086, Note_on_c, 0, 82, 0
1, 1806190, Note_on_c, 0, 70, 0
1, 1806198, Note_on_c, 0, 73, 0
1, 1806408, Note_on_c, 0, 25, 76
1, 1806411, Note_on_c, 0, 80, 89
1, 1806414, Note_on_c, 0, 37, 75
1, 1806415, Note_on_c, 0, 68, 88
1, 1806421, Note_on_c, 0, 73, 74
1, 1806424, Note_on_c, 0, 77, 77
1, 1806463, Note_on_c, 0, 30, 0
1, 1806593, Note_on_c, 0, 80, 0
1, 1806634, Note_on_c, 0, 25, 0
1, 1806658, Note_on_c, 0, 77, 0
1, 1806707, Note_on_c, 0, 73, 0
1, 1806762, Note_on_c, 0, 37, 0
1, 1806798, Note_on_c, 0, 68, 0
1, 1807070, Note_on_c, 0, 39, 85
1, 1807071, Note_on_c, 0, 27, 80
1, 1807071, Note_on_c, 0, 78, 89
1, 1807072, Control_c, 0, 64, 93
1, 1807076, Note_on_c, 0, 66, 88
1, 1807079, Note_on_c, 0, 75, 77
1, 1807085, Note_on_c, 0, 70, 79
1, 1807091, Control_c, 0, 64, 27
1, 1807109, Control_c, 0, 64, 0
1, 1807148, Control_c, 0, 64, 9
1, 1807166, Control_c, 0, 64, 49
1, 1807186, Control_c, 0, 64, 88
1, 1807202, Control_c, 0, 64, 127
1, 1807283, Note_on_c, 0, 27, 0
1, 1807335, Note_on_c, 0, 78, 0
1, 1807339, Note_on_c, 0, 70, 0
1, 1807397, Note_on_c, 0, 75, 0
1, 1807429, Note_on_c, 0, 39, 0
1, 1807478, Note_on_c, 0, 66, 0
1, 1807713, Control_c, 0, 64, 120
1, 1807731, Control_c, 0, 64, 67
1, 1807731, Note_on_c, 0, 41, 92
1, 1807731, Note_on_c, 0, 77, 90
1, 1807734, Note_on_c, 0, 29, 82
1, 1807735, Note_on_c, 0, 65, 95
1, 1807739, Note_on_c, 0, 68, 85
1, 1807748, Note_on_c, 0, 72, 76
1, 1807749, Control_c, 0, 64, 0
1, 1807805, Control_c, 0, 64, 29
1, 1807823, Control_c, 0, 64, 63
1, 1807843, Control_c, 0, 64, 101
1, 1807860, Control_c, 0, 64, 127
1, 1807881, Poly_aftertouch_c, 0, 74, 0
1, 1807891, Note_on_c, 0, 29, 0
1, 1807923, Note_on_c, 0, 77, 0
1, 1807981, Note_on_c, 0, 65, 0
1, 1808007, Note_on_c, 0, 72, 0
1, 1808032, Note_on_c, 0, 41, 0
1, 1808036, Note_on_c, 0, 68, 0
1, 1808440, Note_on_c, 0, 34, 79
1, 1808445, Note_on_c, 0, 46, 86
1, 1808464, Note_on_c, 0, 73, 88
1, 1808464, Note_on_c, 0, 61, 97
1, 1808472, Control_c, 0, 64, 105
1, 1808472, Note_on_c, 0, 68, 81
1, 1808476, Note_on_c, 0, 65, 82
1, 1808492, Control_c, 0, 64, 58
1, 1808517, Control_c, 0, 64, 0
1, 1808574, Control_c, 0, 64, 9
1, 1808592, Control_c, 0, 64, 46
1, 1808611, Control_c, 0, 64, 73
1, 1808629, Control_c, 0, 64, 106
1, 1808648, Control_c, 0, 64, 127
1, 1808682, Note_on_c, 0, 46, 0
1, 1808717, Note_on_c, 0, 65, 0
1, 1808746, Note_on_c, 0, 68, 0
1, 1808863, Note_on_c, 0, 34, 0
1, 1809057, Control_c, 0, 64, 103
1, 1809074, Control_c, 0, 64, 53
1, 1809092, Control_c, 0, 64, 0
1, 1809094, Note_on_c, 0, 39, 89
1, 1809098, Note_on_c, 0, 27, 82
1, 1809108, Note_on_c, 0, 67, 71
1, 1809108, Note_on_c, 0, 70, 76
1, 1809147, Note_on_c, 0, 73, 0
1, 1809147, Control_c, 0, 64, 36
1, 1809167, Control_c, 0, 64, 63
1, 1809186, Control_c, 0, 64, 94
1, 1809201, Note_on_c, 0, 61, 0
1, 1809203, Control_c, 0, 64, 127
1, 1809280, Note_on_c, 0, 27, 0
1, 1809285, Note_on_c, 0, 70, 0
1, 1809328, Note_on_c, 0, 75, 91
1, 1809336, Note_on_c, 0, 63, 86
1, 1809365, Note_on_c, 0, 67, 0
1, 1809413, Note_on_c, 0, 39, 0
1, 1809414, Note_on_c, 0, 63, 0
1, 1809540, Note_on_c, 0, 77, 90
1, 1809544, Note_on_c, 0, 65, 96
1, 1809573, Note_on_c, 0, 75, 0
1, 1809601, Note_on_c, 0, 65, 0
1, 1809629, Note_on_c, 0, 77, 0
1, 1809835, Note_on_c, 0, 44, 97
1, 1809838, Note_on_c, 0, 32, 86
1, 1809841, Note_on_c, 0, 75, 93
1, 1809844, Note_on_c, 0, 63, 96
1, 1809847, Note_on_c, 0, 68, 89
1, 1809854, Note_on_c, 0, 72, 79
1, 1809880, Control_c, 0, 64, 85
1, 1809898, Control_c, 0, 64, 0
1, 1809973, Control_c, 0, 64, 22
1, 1809992, Control_c, 0, 64, 67
1, 1810009, Note_on_c, 0, 32, 0
1, 1810009, Control_c, 0, 64, 122
1, 1810028, Control_c, 0, 64, 127
1, 1810047, Note_on_c, 0, 75, 0
1, 1810072, Note_on_c, 0, 72, 0
1, 1810078, Note_on_c, 0, 44, 0
1, 1810085, Note_on_c, 0, 68, 0
1, 1810101, Note_on_c, 0, 63, 0
1, 1810466, Note_on_c, 0, 56, 89
1, 1810475, Note_on_c, 0, 48, 77
1, 1810478, Note_on_c, 0, 51, 77
1, 1810483, Note_on_c, 0, 68, 92
1, 1810487, Note_on_c, 0, 60, 91
1, 1810493, Note_on_c, 0, 63, 84
1, 1810513, Note_on_c, 0, 56, 0
1, 1810537, Note_on_c, 0, 51, 0
1, 1810543, Note_on_c, 0, 48, 0
1, 1810746, Note_on_c, 0, 60, 0
1, 1810759, Control_c, 0, 64, 102
1, 1810759, Note_on_c, 0, 39, 48
1, 1810778, Control_c, 0, 64, 45
1, 1810790, Note_on_c, 0, 32, 86
1, 1810797, Control_c, 0, 64, 0
1, 1810814, Note_on_c, 0, 63, 0
1, 1810849, Note_on_c, 0, 68, 0
1, 1810850, Control_c, 0, 64, 37
1, 1810871, Note_on_c, 0, 44, 93
1, 1810872, Control_c, 0, 64, 71
1, 1810890, Control_c, 0, 64, 109
1, 1810892, Note_on_c, 0, 32, 0
1, 1810897, Note_on_c, 0, 39, 0
1, 1810908, Control_c, 0, 64, 127
1, 1810911, Poly_aftertouch_c, 0, 39, 0
1, 1810927, Note_on_c, 0, 44, 0
1, 1810951, Poly_aftertouch_c, 0, 31, 0
1, 1811134, Note_on_c, 0, 60, 98
1, 1811134, Note_on_c, 0, 72, 98
1, 1811135, Note_on_c, 0, 51, 84
1, 1811137, Note_on_c, 0, 63, 97
1, 1811140, Note_on_c, 0, 56, 84
1, 1811140, Note_on_c, 0, 68, 95
1, 1811178, Note_on_c, 0, 60, 0
1, 1811183, Note_on_c, 0, 63, 0
1, 1811185, Note_on_c, 0, 51, 0
1, 1811187, Note_on_c, 0, 56, 0
1, 1811203, Note_on_c, 0, 68, 0
1, 1811206, Note_on_c, 0, 72, 0
1, 1811624, Note_on_c, 0, 65, 93
1, 1811624, Note_on_c, 0, 73, 92
1, 1811627, Note_on_c, 0, 53, 77
1, 1811627, Note_on_c, 0, 61, 92
1, 1811628, Note_on_c, 0, 68, 87
1, 1811628, Note_on_c, 0, 56, 83
1, 1811682, Note_on_c, 0, 53, 0
1, 1811684, Note_on_c, 0, 65, 0
1, 1811692, Note_on_c, 0, 61, 0
1, 1811703, Note_on_c, 0, 56, 0
1, 1811708, Note_on_c, 0, 68, 0
1, 1811733, Note_on_c, 0, 73, 0
1, 1811761, Note_on_c, 0, 75, 96
1, 1811765, Note_on_c, 0, 68, 80
1, 1811770, Control_c, 0, 64, 100
1, 1811770, Note_on_c, 0, 66, 91
1, 1811777, Note_on_c, 0, 63, 94
1, 1811780, Note_on_c, 0, 54, 83
1, 1811787, Note_on_c, 0, 56, 74
1, 1811787, Control_c, 0, 64, 69
1, 1811808, Control_c, 0, 64, 75
1, 1811826, Control_c, 0, 64, 95
1, 1811844, Control_c, 0, 64, 125
1, 1811924, Note_on_c, 0, 56, 0
1, 1811945, Note_on_c, 0, 63, 0
1, 1811945, Note_on_c, 0, 75, 0
1, 1811946, Note_on_c, 0, 54, 0
1, 1811954, Note_on_c, 0, 68, 0
1, 1811974, Note_on_c, 0, 66, 0
1, 1812066, Note_on_c, 0, 56, 80
1, 1812069, Note_on_c, 0, 68, 73
1, 1812069, Note_on_c, 0, 61, 97
1, 1812070, Note_on_c, 0, 73, 93
1, 1812070, Note_on_c, 0, 65, 94
1, 1812073, Note_on_c, 0, 53, 81
1, 1812106, Note_on_c, 0, 53, 0
1, 1812120, Note_on_c, 0, 65, 0
1, 1812123, Note_on_c, 0, 61, 0
1, 1812125, Note_on_c, 0, 56, 0
1, 1812147, Note_on_c, 0, 68, 0
1, 1812178, Note_on_c, 0, 73, 0
1, 1812381, Note_on_c, 0, 78, 95
1, 1812382, Note_on_c, 0, 66, 99
1, 1812383, Note_on_c, 0, 58, 80
1, 1812384, Note_on_c, 0, 60, 89
1, 1812384, Note_on_c, 0, 70, 91
1, 1812386, Note_on_c, 0, 72, 89
1, 1812391, Control_c, 0, 64, 105
1, 1812409, Control_c, 0, 64, 45
1, 1812428, Control_c, 0, 64, 0
1, 1812463, Control_c, 0, 64, 40
1, 1812482, Control_c, 0, 64, 81
1, 1812501, Control_c, 0, 64, 125
1, 1812531, Note_on_c, 0, 78, 0
1, 1812570, Note_on_c, 0, 70, 0
1, 1812615, Note_on_c, 0, 66, 0
1, 1812629, Note_on_c, 0, 60, 0
1, 1812632, Note_on_c, 0, 72, 0
1, 1812685, Note_on_c, 0, 72, 74
1, 1812687, Note_on_c, 0, 65, 101
1, 1812689, Note_on_c, 0, 77, 90
1, 1812695, Note_on_c, 0, 68, 97
1, 1812696, Note_on_c, 0, 60, 62
1, 1812699, Note_on_c, 0, 58, 0
1, 1812699, Note_on_c, 0, 58, 36
1, 1812700, Note_on_c, 0, 56, 81
1, 1812748, Note_on_c, 0, 65, 0
1, 1812748, Note_on_c, 0, 58, 0
1, 1812755, Note_on_c, 0, 60, 0
1, 1812771, Note_on_c, 0, 72, 0
1, 1812772, Note_on_c, 0, 77, 0
1, 1812779, Note_on_c, 0, 56, 0
1, 1812792, Note_on_c, 0, 68, 0
1, 1812831, Poly_aftertouch_c, 0, 61, 0
1, 1812927, Control_c, 0, 64, 70
1, 1812945, Control_c, 0, 64, 43
1, 1812957, Note_on_c, 0, 63, 98
1, 1812963, Control_c, 0, 64, 58
1, 1812963, Note_on_c, 0, 66, 95
1, 1812964, Note_on_c, 0, 75, 89
1, 1812967, Note_on_c, 0, 54, 83
1, 1812983, Control_c, 0, 64, 78
1, 1812989, Note_on_c, 0, 56, 61
1, 1813002, Control_c, 0, 64, 108
1, 1813019, Control_c, 0, 64, 127
1, 1813060, Note_on_c, 0, 63, 0
1, 1813073, Note_on_c, 0, 56, 0
1, 1813077, Poly_aftertouch_c, 0, 64, 0
1, 1813094, Note_on_c, 0, 54, 0
1, 1813097, Note_on_c, 0, 66, 0
1, 1813112, Poly_aftertouch_c, 0, 67, 0
1, 1813114, Note_on_c, 0, 75, 0
1, 1813180, Poly_aftertouch_c, 0, 71, 0
1, 1813199, Note_on_c, 0, 60, 95
1, 1813209, Note_on_c, 0, 51, 92
1, 1813213, Note_on_c, 0, 63, 93
1, 1813218, Note_on_c, 0, 72, 91
1, 1813224, Note_on_c, 0, 60, 0
1, 1813241, Note_on_c, 0, 51, 0
1, 1813259, Note_on_c, 0, 63, 0
1, 1813296, Note_on_c, 0, 72, 0
1, 1813308, Control_c, 0, 64, 83
1, 1813326, Control_c, 0, 64, 0
1, 1813390, Note_on_c, 0, 37, 102
1, 1813396, Note_on_c, 0, 25, 103
1, 1813399, Control_c, 0, 64, 19
1, 1813417, Note_on_c, 0, 37, 0
1, 1813417, Control_c, 0, 64, 65
1, 1813426, Note_on_c, 0, 25, 0
1, 1813437, Control_c, 0, 64, 119
1, 1813454, Control_c, 0, 64, 127
1, 1813604, Poly_aftertouch_c, 0, 25, 0
1, 1813679, Note_on_c, 0, 73, 97
1, 1813679, Note_on_c, 0, 53, 85
1, 1813682, Note_on_c, 0, 68, 94
1, 1813683, Note_on_c, 0, 65, 97
1, 1813685, Note_on_c, 0, 61, 95
1, 1813686, Note_on_c, 0, 56, 86
1, 1813732, Note_on_c, 0, 65, 0
1, 1813735, Note_on_c, 0, 61, 0
1, 1813737, Note_on_c, 0, 53, 0
1, 1813744, Note_on_c, 0, 56, 0
1, 1813753, Note_on_c, 0, 68, 0
1, 1813789, Note_on_c, 0, 73, 0
1, 1813822, Poly_aftertouch_c, 0, 55, 0
1, 1814091, Note_on_c, 0, 75, 89
1, 1814093, Note_on_c, 0, 54, 80
1, 1814095, Note_on_c, 0, 63, 84
1, 1814096, Note_on_c, 0, 61, 80
1, 1814097, Note_on_c, 0, 66, 89
1, 1814102, Note_on_c, 0, 73, 81
1, 1814153, Note_on_c, 0, 66, 0
1, 1814158, Note_on_c, 0, 63, 0
1, 1814168, Note_on_c, 0, 54, 0
1, 1814171, Note_on_c, 0, 61, 0
1, 1814223, Note_on_c, 0, 77, 98
1, 1814225, Note_on_c, 0, 68, 99
1, 1814228, Note_on_c, 0, 61, 69
1, 1814233, Note_on_c, 0, 75, 0
1, 1814234, Note_on_c, 0, 58, 80
1, 1814242, Note_on_c, 0, 65, 87
1, 1814306, Note_on_c, 0, 65, 0
1, 1814311, Note_on_c, 0, 68, 0
1, 1814328, Note_on_c, 0, 61, 0
1, 1814351, Note_on_c, 0, 77, 0
1, 1814428, Note_on_c, 0, 58, 0
1, 1814479, Note_on_c, 0, 73, 0
1, 1814479, Note_on_c, 0, 73, 6
1, 1814484, Note_on_c, 0, 78, 94
1, 1814484, Note_on_c, 0, 70, 95
1, 1814486, Note_on_c, 0, 61, 80
1, 1814489, Note_on_c, 0, 66, 86
1, 1814496, Note_on_c, 0, 59, 69
1, 1814548, Note_on_c, 0, 59, 0
1, 1814552, Note_on_c, 0, 73, 0
1, 1814570, Note_on_c, 0, 61, 0
1, 1814577, Note_on_c, 0, 66, 0
1, 1814578, Note_on_c, 0, 70, 0
1, 1814623, Note_on_c, 0, 78, 0
1, 1814658, Note_on_c, 0, 59, 75
1, 1814712, Note_on_c, 0, 61, 67
1, 1814808, Note_on_c, 0, 70, 92
1, 1814813, Note_on_c, 0, 82, 96
1, 1814817, Control_c, 0, 64, 91
1, 1814818, Note_on_c, 0, 73, 90
1, 1814820, Note_on_c, 0, 71, 93
1, 1814837, Control_c, 0, 64, 32
1, 1814856, Control_c, 0, 64, 0
1, 1814873, Control_c, 0, 64, 29
1, 1814891, Control_c, 0, 64, 56
1, 1814909, Control_c, 0, 64, 88
1, 1814929, Control_c, 0, 64, 127
1, 1814950, Note_on_c, 0, 70, 0
1, 1815017, Note_on_c, 0, 71, 0
1, 1815036, Note_on_c, 0, 82, 0
1, 1815069, Note_on_c, 0, 61, 0
1, 1815074, Note_on_c, 0, 73, 0
1, 1815119, Note_on_c, 0, 59, 0
1, 1815119, Note_on_c, 0, 59, 57
1, 1815119, Note_on_c, 0, 80, 93
1, 1815120, Note_on_c, 0, 73, 80
1, 1815121, Note_on_c, 0, 61, 75
1, 1815122, Note_on_c, 0, 68, 97
1, 1815124, Note_on_c, 0, 71, 99
1, 1815174, Note_on_c, 0, 71, 0
1, 1815187, Note_on_c, 0, 68, 0
1, 1815193, Note_on_c, 0, 80, 0
1, 1815208, Note_on_c, 0, 73, 0
1, 1815222, Note_on_c, 0, 61, 0
1, 1815286, Note_on_c, 0, 59, 0
1, 1815446, Note_on_c, 0, 65, 95
1, 1815450, Note_on_c, 0, 77, 89
1, 1815453, Note_on_c, 0, 68, 92
1, 1815455, Note_on_c, 0, 56, 73
1, 1815456, Note_on_c, 0, 59, 71
1, 1815457, Note_on_c, 0, 71, 83
1, 1815460, Note_on_c, 0, 73, 80
1, 1815461, Note_on_c, 0, 61, 78
1, 1815502, Note_on_c, 0, 57, 25
1, 1815513, Note_on_c, 0, 65, 0
1, 1815535, Note_on_c, 0, 56, 0
1, 1815540, Note_on_c, 0, 59, 0
1, 1815557, Note_on_c, 0, 57, 0
1, 1815561, Note_on_c, 0, 61, 0
1, 1815570, Note_on_c, 0, 77, 0
1, 1815573, Note_on_c, 0, 68, 0
1, 1815582, Note_on_c, 0, 71, 0
1, 1815589, Note_on_c, 0, 73, 0
1, 1815847, Note_on_c, 0, 61, 99
1, 1815847, Note_on_c, 0, 65, 98
1, 1815850, Note_on_c, 0, 73, 97
1, 1815850, Note_on_c, 0, 53, 82
1, 1815851, Note_on_c, 0, 68, 95
1, 1815854, Note_on_c, 0, 56, 86
1, 1815855, Note_on_c, 0, 59, 91
1, 1815857, Note_on_c, 0, 71, 82
1, 1815901, Note_on_c, 0, 61, 0
1, 1815914, Note_on_c, 0, 65, 0
1, 1815931, Note_on_c, 0, 53, 0
1, 1815940, Note_on_c, 0, 59, 0
1, 1815945, Note_on_c, 0, 68, 0
1, 1815953, Note_on_c, 0, 71, 0
1, 1815983, Note_on_c, 0, 73, 0
1, 1815989, Note_on_c, 0, 56, 0
1, 1816405, Note_on_c, 0, 85, 96
1, 1816406, Note_on_c, 0, 73, 103
1, 1816410, Note_on_c, 0, 78, 98
1, 1816410, Note_on_c, 0, 30, 97
1, 1816413, Note_on_c, 0, 42, 105
1, 1816414, Note_on_c, 0, 82, 91
1, 1816504, Control_c, 0, 64, 64
1, 1816523, Control_c, 0, 64, 0
1, 1816523, Poly_aftertouch_c, 0, 32, 0
1, 1816596, Control_c, 0, 64, 22
1, 1816613, Control_c, 0, 64, 67
1, 1816633, Control_c, 0, 64, 96
1, 1816652, Control_c, 0, 64, 127
1, 1816717, Note_on_c, 0, 85, 0
1, 1816734, Note_on_c, 0, 30, 0
1, 1816794, Note_on_c, 0, 42, 0
1, 1816802, Note_on_c, 0, 82, 0
1, 1816830, Note_on_c, 0, 78, 0
1, 1817026, Note_on_c, 0, 73, 0
1, 1817197, Note_on_c, 0, 82, 93
1, 1817201, Note_on_c, 0, 73, 93
1, 1817202, Note_on_c, 0, 70, 104
1, 1817205, Note_on_c, 0, 46, 103
1, 1817205, Note_on_c, 0, 77, 86
1, 1817211, Note_on_c, 0, 34, 101
1, 1817235, Note_on_c, 0, 47, 66
1, 1817251, Note_on_c, 0, 34, 0
1, 1817263, Note_on_c, 0, 47, 0
1, 1817269, Note_on_c, 0, 46, 0
1, 1817287, Note_on_c, 0, 82, 0
1, 1817306, Note_on_c, 0, 70, 0
1, 1817344, Note_on_c, 0, 77, 0
1, 1817361, Poly_aftertouch_c, 0, 48, 0
1, 1817367, Note_on_c, 0, 73, 0
1, 1817390, Poly_aftertouch_c, 0, 35, 0
1, 1817892, Note_on_c, 0, 78, 94
1, 1817894, Note_on_c, 0, 70, 96
1, 1817894, Note_on_c, 0, 66, 98
1, 1817897, Note_on_c, 0, 75, 89
1, 1817900, Note_on_c, 0, 51, 102
1, 1817905, Note_on_c, 0, 39, 88
1, 1817947, Control_c, 0, 64, 119
1, 1817967, Control_c, 0, 64, 64
1, 1817986, Control_c, 0, 64, 0
1, 1818078, Control_c, 0, 64, 22
1, 1818096, Control_c, 0, 64, 66
1, 1818116, Control_c, 0, 64, 97
1, 1818133, Control_c, 0, 64, 127
1, 1818190, Note_on_c, 0, 39, 0
1, 1818270, Note_on_c, 0, 70, 0
1, 1818275, Note_on_c, 0, 78, 0
1, 1818346, Note_on_c, 0, 51, 0
1, 1818373, Note_on_c, 0, 66, 0
1, 1818395, Note_on_c, 0, 75, 0
1, 1818560, Control_c, 0, 64, 94
1, 1818574, Note_on_c, 0, 77, 92
1, 1818576, Note_on_c, 0, 65, 105
1, 1818579, Control_c, 0, 64, 50
1, 1818580, Note_on_c, 0, 68, 97
1, 1818580, Note_on_c, 0, 53, 106
1, 1818580, Note_on_c, 0, 41, 81
1, 1818585, Note_on_c, 0, 72, 86
1, 1818603, Control_c, 0, 64, 44
1, 1818616, Control_c, 0, 64, 61
1, 1818633, Control_c, 0, 64, 82
1, 1818639, Note_on_c, 0, 53, 0
1, 1818645, Note_on_c, 0, 41, 0
1, 1818652, Control_c, 0, 64, 111
1, 1818671, Control_c, 0, 64, 127
1, 1818884, Control_c, 0, 64, 104
1, 1818903, Control_c, 0, 64, 40
1, 1818909, Note_on_c, 0, 32, 91
1, 1818922, Control_c, 0, 64, 0
1, 1818978, Control_c, 0, 64, 9
1, 1818995, Control_c, 0, 64, 56
1, 1819013, Control_c, 0, 64, 104
1, 1819022, Note_on_c, 0, 65, 0
1, 1819023, Note_on_c, 0, 44, 99
1, 1819030, Note_on_c, 0, 72, 0
1, 1819032, Control_c, 0, 64, 127
1, 1819039, Note_on_c, 0, 40, 47
1, 1819047, Note_on_c, 0, 77, 0
1, 1819053, Note_on_c, 0, 32, 0
1, 1819068, Poly_aftertouch_c, 0, 31, 0
1, 1819072, Note_on_c, 0, 68, 0
1, 1819081, Note_on_c, 0, 40, 0
1, 1819089, Note_on_c, 0, 44, 0
1, 1819097, Poly_aftertouch_c, 0, 39, 0
1, 1819313, Note_on_c, 0, 63, 104
1, 1819314, Note_on_c, 0, 61, 102
1, 1819314, Note_on_c, 0, 51, 89
1, 1819315, Note_on_c, 0, 56, 92
1, 1819318, Note_on_c, 0, 75, 93
1, 1819318, Note_on_c, 0, 68, 96
1, 1819320, Note_on_c, 0, 73, 85
1, 1819369, Note_on_c, 0, 51, 0
1, 1819370, Note_on_c, 0, 61, 0
1, 1819383, Note_on_c, 0, 56, 0
1, 1819414, Note_on_c, 0, 53, 22
1, 1819434, Note_on_c, 0, 53, 0
1, 1820283, Control_c, 0, 64, 87
1, 1820302, Control_c, 0, 64, 40
1, 1820318, Control_c, 0, 64, 0
1, 1820357, Control_c, 0, 64, 24
1, 1820375, Control_c, 0, 64, 56
1, 1820389, Note_on_c, 0, 32, 81
1, 1820393, Control_c, 0, 64, 89
1, 1820412, Control_c, 0, 64, 127
1, 1820457, Note_on_c, 0, 73, 0
1, 1820459, Note_on_c, 0, 38, 41
1, 1820467, Note_on_c, 0, 44, 90
1, 1820471, Note_on_c, 0, 31, 19
1, 1820490, Note_on_c, 0, 68, 0
1, 1820493, Note_on_c, 0, 75, 0
1, 1820503, Note_on_c, 0, 32, 0
1, 1820506, Note_on_c, 0, 38, 0
1, 1820517, Note_on_c, 0, 63, 0
1, 1820534, Note_on_c, 0, 31, 0
1, 1820535, Note_on_c, 0, 44, 0
1, 1820638, Note_on_c, 0, 75, 96
1, 1820639, Note_on_c, 0, 63, 104
1, 1820647, Note_on_c, 0, 72, 81
1, 1820650, Note_on_c, 0, 60, 102
1, 1820655, Note_on_c, 0, 67, 84
1, 1820658, Note_on_c, 0, 54, 80
1, 1820700, Note_on_c, 0, 55, 47
1, 1820708, Note_on_c, 0, 51, 29
1, 1820725, Note_on_c, 0, 56, 14
1, 1820764, Note_on_c, 0, 55, 0
1, 1820779, Note_on_c, 0, 67, 0
1, 1820783, Note_on_c, 0, 51, 0
1, 1820783, Note_on_c, 0, 51, 17
1, 1820793, Poly_aftertouch_c, 0, 59, 0
1, 1820808, Note_on_c, 0, 50, 41
1, 1820821, Note_on_c, 0, 50, 0
1, 1820959, Note_on_c, 0, 56, 0
1, 1821058, Note_on_c, 0, 56, 80
1, 1821122, Note_on_c, 0, 68, 69
1, 1821191, Note_on_c, 0, 75, 0
1, 1821229, Note_on_c, 0, 63, 0
1, 1821466, Note_on_c, 0, 65, 102
1, 1821469, Note_on_c, 0, 77, 92
1, 1821517, Note_on_c, 0, 60, 0
1, 1821590, Poly_aftertouch_c, 0, 74, 0
1, 1821595, Note_on_c, 0, 56, 0
1, 1821627, Note_on_c, 0, 54, 0
1, 1821643, Note_on_c, 0, 51, 0
1, 1821804, Control_c, 0, 64, 119
1, 1821819, Control_c, 0, 64, 68
1, 1821838, Control_c, 0, 64, 19
1, 1821857, Control_c, 0, 64, 26
1, 1821876, Control_c, 0, 64, 54
1, 1821894, Control_c, 0, 64, 84
1, 1821895, Note_on_c, 0, 25, 90
1, 1821913, Control_c, 0, 64, 127
1, 1821938, Note_on_c, 0, 77, 0
1, 1821942, Note_on_c, 0, 24, 45
1, 1821944, Note_on_c, 0, 37, 84
1, 1821980, Note_on_c, 0, 68, 0
1, 1821983, Note_on_c, 0, 65, 0
1, 1821996, Note_on_c, 0, 25, 0
1, 1821998, Note_on_c, 0, 24, 0
1, 1821999, Note_on_c, 0, 72, 0
1, 1822026, Note_on_c, 0, 37, 0
1, 1822308, Note_on_c, 0, 61, 100
1, 1822310, Note_on_c, 0, 73, 93
1, 1822317, Note_on_c, 0, 65, 86
1, 1822317, Note_on_c, 0, 53, 105
1, 1822318, Note_on_c, 0, 68, 86
1, 1822319, Note_on_c, 0, 41, 85
1, 1822370, Note_on_c, 0, 53, 0
1, 1822379, Note_on_c, 0, 41, 0
1, 1823073, Note_on_c, 0, 51, 95
1, 1823075, Note_on_c, 0, 39, 90
1, 1823132, Note_on_c, 0, 73, 0
1, 1823194, Note_on_c, 0, 68, 0
1, 1823208, Note_on_c, 0, 61, 0
1, 1823215, Note_on_c, 0, 65, 0
1, 1823406, Note_on_c, 0, 51, 0
1, 1823711, Note_on_c, 0, 49, 94
1, 1823715, Note_on_c, 0, 65, 86
1, 1823718, Note_on_c, 0, 56, 82
1, 1823719, Note_on_c, 0, 37, 84
1, 1823731, Note_on_c, 0, 61, 78
1, 1823784, Note_on_c, 0, 39, 0
1, 1823801, Control_c, 0, 64, 114
1, 1823821, Control_c, 0, 64, 65
1, 1823838, Control_c, 0, 64, 0
1, 1823933, Control_c, 0, 64, 18
1, 1823951, Control_c, 0, 64, 47
1, 1823970, Control_c, 0, 64, 77
1, 1823988, Control_c, 0, 64, 108
1, 1824004, Note_on_c, 0, 49, 0
1, 1824008, Control_c, 0, 64, 127
1, 1824045, Note_on_c, 0, 61, 0
1, 1824204, Note_on_c, 0, 56, 0
1, 1824375, Note_on_c, 0, 44, 96
1, 1824376, Note_on_c, 0, 32, 84
1, 1824377, Note_on_c, 0, 63, 82
1, 1824378, Note_on_c, 0, 54, 80
1, 1824383, Note_on_c, 0, 60, 75
1, 1824396, Note_on_c, 0, 37, 0
1, 1824431, Note_on_c, 0, 65, 0
1, 1824450, Note_on_c, 0, 32, 0
1, 1824573, Note_on_c, 0, 44, 0
1, 1824637, Note_on_c, 0, 60, 0
1, 1824725, Note_on_c, 0, 54, 0
1, 1825092, Note_on_c, 0, 44, 83
1, 1825093, Note_on_c, 0, 56, 91
1, 1825113, Note_on_c, 0, 61, 70
1, 1825131, Note_on_c, 0, 53, 52
1, 1825200, Control_c, 0, 64, 106
1, 1825206, Note_on_c, 0, 63, 0
1, 1825220, Control_c, 0, 64, 63
1, 1825239, Control_c, 0, 64, 0
1, 1825329, Control_c, 0, 64, 35
1, 1825348, Control_c, 0, 64, 60
1, 1825377, Control_c, 0, 64, 85
1, 1825395, Control_c, 0, 64, 110
1, 1825414, Control_c, 0, 64, 127
1, 1825461, Note_on_c, 0, 56, 0
1, 1825731, Note_on_c, 0, 42, 82
1, 1825732, Note_on_c, 0, 54, 88
1, 1825765, Note_on_c, 0, 56, 60
1, 1825772, Note_on_c, 0, 53, 0
1, 1825794, Note_on_c, 0, 44, 0
1, 1825901, Note_on_c, 0, 56, 0
1, 1825915, Note_on_c, 0, 61, 0
1, 1826351, Note_on_c, 0, 54, 0
1, 1826365, Note_on_c, 0, 42, 0
1, 1826422, Note_on_c, 0, 68, 90
1, 1826437, Note_on_c, 0, 61, 72
1, 1826441, Note_on_c, 0, 56, 74
1, 1826445, Note_on_c, 0, 53, 71
1, 1826447, Note_on_c, 0, 41, 69
1, 1826498, Control_c, 0, 64, 102
1, 1826516, Control_c, 0, 64, 58
1, 1826535, Control_c, 0, 64, 0
1, 1826627, Control_c, 0, 64, 9
1, 1826646, Control_c, 0, 64, 43
1, 1826664, Control_c, 0, 64, 68
1, 1826684, Control_c, 0, 64, 92
1, 1826702, Control_c, 0, 64, 122
1, 1826720, Control_c, 0, 64, 127
1, 1826746, Note_on_c, 0, 53, 0
1, 1826830, Note_on_c, 0, 61, 0
1, 1826846, Note_on_c, 0, 56, 0
1, 1827061, Note_on_c, 0, 49, 88
1, 1827064, Note_on_c, 0, 37, 85
1, 1827068, Note_on_c, 0, 66, 80
1, 1827077, Note_on_c, 0, 58, 70
1, 1827078, Note_on_c, 0, 61, 70
1, 1827083, Note_on_c, 0, 41, 0
1, 1827157, Note_on_c, 0, 68, 0
1, 1827183, Note_on_c, 0, 37, 0
1, 1827200, Note_on_c, 0, 49, 0
1, 1827294, Note_on_c, 0, 58, 0
1, 1827294, Note_on_c, 0, 66, 0
1, 1827321, Note_on_c, 0, 61, 0
1, 1827810, Note_on_c, 0, 58, 90
1, 1827816, Note_on_c, 0, 46, 82
1, 1827818, Note_on_c, 0, 65, 73
1, 1827824, Note_on_c, 0, 53, 65
1, 1827846, Note_on_c, 0, 61, 53
1, 1827933, Control_c, 0, 64, 98
1, 1827952, Control_c, 0, 64, 57
1, 1827970, Control_c, 0, 64, 0
1, 1828045, Control_c, 0, 64, 27
1, 1828063, Control_c, 0, 64, 53
1, 1828066, Note_on_c, 0, 61, 0
1, 1828084, Control_c, 0, 64, 77
1, 1828102, Control_c, 0, 64, 102
1, 1828118, Control_c, 0, 64, 127
1, 1828235, Note_on_c, 0, 58, 0
1, 1828447, Note_on_c, 0, 56, 88
1, 1828450, Note_on_c, 0, 44, 81
1, 1828455, Note_on_c, 0, 53, 0
1, 1828457, Note_on_c, 0, 61, 69
1, 1828461, Note_on_c, 0, 58, 60
1, 1828526, Note_on_c, 0, 65, 0
1, 1828538, Note_on_c, 0, 46, 0
1, 1828595, Note_on_c, 0, 58, 0
1, 1828676, Note_on_c, 0, 61, 0
1, 1828879, Note_on_c, 0, 56, 0
1, 1829130, Note_on_c, 0, 70, 92
1, 1829146, Note_on_c, 0, 54, 64
1, 1829154, Note_on_c, 0, 58, 62
1, 1829156, Note_on_c, 0, 61, 68
1, 1829163, Note_on_c, 0, 42, 62
1, 1829212, Control_c, 0, 64, 97
1, 1829231, Note_on_c, 0, 44, 0
1, 1829231, Control_c, 0, 64, 57
1, 1829248, Control_c, 0, 64, 14
1, 1829266, Control_c, 0, 64, 0
1, 1829279, Poly_aftertouch_c, 0, 68, 0
1, 1829323, Control_c, 0, 64, 28
1, 1829342, Control_c, 0, 64, 54
1, 1829361, Control_c, 0, 64, 78
1, 1829379, Control_c, 0, 64, 105
1, 1829397, Control_c, 0, 64, 127
1, 1829510, Note_on_c, 0, 58, 0
1, 1829530, Note_on_c, 0, 54, 0
1, 1829532, Note_on_c, 0, 42, 0
1, 1829584, Note_on_c, 0, 61, 0
1, 1829759, Note_on_c, 0, 68, 83
1, 1829760, Note_on_c, 0, 61, 60
1, 1829770, Note_on_c, 0, 41, 72
1, 1829771, Note_on_c, 0, 53, 76
1, 1829771, Note_on_c, 0, 56, 66
1, 1829788, Control_c, 0, 64, 90
1, 1829804, Control_c, 0, 64, 47
1, 1829822, Control_c, 0, 64, 0
1, 1829835, Note_on_c, 0, 70, 0
1, 1829879, Control_c, 0, 64, 10
1, 1829897, Control_c, 0, 64, 42
1, 1829917, Control_c, 0, 64, 68
1, 1829934, Control_c, 0, 64, 96
1, 1829953, Control_c, 0, 64, 127
1, 1830054, Note_on_c, 0, 53, 0
1, 1830054, Note_on_c, 0, 56, 0
1, 1830153, Note_on_c, 0, 61, 0
1, 1830416, Note_on_c, 0, 37, 68
1, 1830417, Note_on_c, 0, 49, 62
1, 1830421, Note_on_c, 0, 66, 81
1, 1830438, Note_on_c, 0, 58, 62
1, 1830442, Note_on_c, 0, 61, 61
1, 1830477, Note_on_c, 0, 41, 0
1, 1830483, Control_c, 0, 64, 101
1, 1830485, Note_on_c, 0, 68, 0
1, 1830500, Control_c, 0, 64, 58
1, 1830519, Control_c, 0, 64, 0
1, 1830592, Control_c, 0, 64, 22
1, 1830611, Control_c, 0, 64, 52
1, 1830629, Control_c, 0, 64, 78
1, 1830648, Control_c, 0, 64, 106
1, 1830658, Note_on_c, 0, 61, 0
1, 1830666, Control_c, 0, 64, 127
1, 1830706, Note_on_c, 0, 58, 0
1, 1830895, Note_on_c, 0, 49, 0
1, 1830986, Note_on_c, 0, 37, 0
1, 1831021, Note_on_c, 0, 65, 79
1, 1831041, Note_on_c, 0, 61, 56
1, 1831042, Note_on_c, 0, 56, 54
1, 1831074, Note_on_c, 0, 66, 0
1, 1831149, Note_on_c, 0, 61, 0
1, 1831216, Note_on_c, 0, 39, 70
1, 1831216, Note_on_c, 0, 51, 75
1, 1831299, Note_on_c, 0, 51, 0
1, 1831301, Note_on_c, 0, 39, 0
1, 1831305, Note_on_c, 0, 56, 0
1, 1831390, Note_on_c, 0, 53, 88
1, 1831405, Note_on_c, 0, 41, 73
1, 1831473, Note_on_c, 0, 53, 0
1, 1831479, Note_on_c, 0, 41, 0
1, 1831692, Note_on_c, 0, 51, 84
1, 1831696, Note_on_c, 0, 39, 80
1, 1831742, Note_on_c, 0, 61, 87
1, 1831750, Note_on_c, 0, 58, 80
1, 1831754, Note_on_c, 0, 56, 69
1, 1831769, Control_c, 0, 64, 119
1, 1831788, Control_c, 0, 64, 77
1, 1831798, Note_on_c, 0, 65, 0
1, 1831807, Control_c, 0, 64, 25
1, 1831824, Control_c, 0, 64, 0
1, 1831925, Control_c, 0, 64, 41
1, 1831945, Control_c, 0, 64, 69
1, 1831963, Control_c, 0, 64, 95
1, 1831982, Control_c, 0, 64, 127
1, 1832010, Note_on_c, 0, 51, 0
1, 1832067, Note_on_c, 0, 56, 0
1, 1832164, Note_on_c, 0, 39, 0
1, 1832404, Note_on_c, 0, 27, 85
1, 1832411, Note_on_c, 0, 39, 83
1, 1832444, Control_c, 0, 64, 77
1, 1832455, Note_on_c, 0, 55, 93
1, 1832463, Control_c, 0, 64, 0
1, 1832518, Note_on_c, 0, 58, 0
1, 1832518, Control_c, 0, 64, 30
1, 1832538, Control_c, 0, 64, 59
1, 1832552, Note_on_c, 0, 27, 0
1, 1832555, Control_c, 0, 64, 93
1, 1832576, Control_c, 0, 64, 127
1, 1832651, Note_on_c, 0, 39, 0
1, 1832695, Note_on_c, 0, 63, 78
1, 1832736, Note_on_c, 0, 61, 0
1, 1832859, Note_on_c, 0, 65, 81
1, 1832910, Note_on_c, 0, 55, 0
1, 1832917, Note_on_c, 0, 63, 0
1, 1833027, Control_c, 0, 64, 114
1, 1833032, Note_on_c, 0, 44, 99
1, 1833036, Note_on_c, 0, 32, 86
1, 1833040, Note_on_c, 0, 63, 89
1, 1833045, Note_on_c, 0, 56, 91
1, 1833047, Control_c, 0, 64, 59
1, 1833054, Note_on_c, 0, 60, 75
1, 1833064, Control_c, 0, 64, 0
1, 1833079, Note_on_c, 0, 65, 0
1, 1833140, Control_c, 0, 64, 36
1, 1833158, Control_c, 0, 64, 67
1, 1833176, Control_c, 0, 64, 101
1, 1833190, Note_on_c, 0, 32, 0
1, 1833195, Control_c, 0, 64, 127
1, 1833199, Note_on_c, 0, 60, 0
1, 1833201, Note_on_c, 0, 44, 0
1, 1833430, Note_on_c, 0, 56, 0
1, 1833467, Note_on_c, 0, 34, 86
1, 1833473, Note_on_c, 0, 46, 82
1, 1833505, Note_on_c, 0, 46, 0
1, 1833511, Note_on_c, 0, 34, 0
1, 1833558, Note_on_c, 0, 63, 0
1, 1833567, Note_on_c, 0, 56, 87
1, 1833576, Note_on_c, 0, 51, 88
1, 1833590, Note_on_c, 0, 48, 99
1, 1833597, Note_on_c, 0, 36, 87
1, 1833602, Control_c, 0, 64, 105
1, 1833621, Control_c, 0, 64, 70
1, 1833627, Note_on_c, 0, 48, 0
1, 1833634, Note_on_c, 0, 36, 0
1, 1833640, Control_c, 0, 64, 34
1, 1833659, Control_c, 0, 64, 14
1, 1833697, Control_c, 0, 64, 0
1, 1833722, Note_on_c, 0, 38, 47
1, 1833730, Note_on_c, 0, 38, 0
1, 1833910, Control_c, 0, 64, 32
1, 1833914, Note_on_c, 0, 44, 105
1, 1833922, Note_on_c, 0, 51, 0
1, 1833925, Note_on_c, 0, 32, 90
1, 1833926, Control_c, 0, 64, 66
1, 1833941, Note_on_c, 0, 44, 0
1, 1833944, Control_c, 0, 64, 102
1, 1833951, Note_on_c, 0, 56, 0
1, 1833953, Note_on_c, 0, 32, 0
1, 1833963, Control_c, 0, 64, 127
1, 1834106, Note_on_c, 0, 32, 15
1, 1834130, Note_on_c, 0, 32, 0
1, 1834297, Note_on_c, 0, 68, 92
1, 1834299, Note_on_c, 0, 72, 92
1, 1834299, Note_on_c, 0, 63, 93
1, 1834306, Note_on_c, 0, 56, 105
1, 1834307, Note_on_c, 0, 44, 89
1, 1834373, Control_c, 0, 64, 80
1, 1834390, Control_c, 0, 64, 13
1, 1834409, Control_c, 0, 64, 0
1, 1834421, Poly_aftertouch_c, 0, 50, 0
1, 1834501, Control_c, 0, 64, 29
1, 1834519, Control_c, 0, 64, 65
1, 1834540, Control_c, 0, 64, 104
1, 1834556, Control_c, 0, 64, 127
1, 1834610, Note_on_c, 0, 68, 0
1, 1834656, Note_on_c, 0, 63, 0
1, 1834686, Note_on_c, 0, 72, 0
1, 1834754, Note_on_c, 0, 73, 87
1, 1834763, Note_on_c, 0, 64, 85
1, 1834764, Note_on_c, 0, 68, 87
1, 1834794, Note_on_c, 0, 64, 0
1, 1834836, Note_on_c, 0, 68, 0
1, 1834886, Note_on_c, 0, 75, 96
1, 1834897, Note_on_c, 0, 73, 0
1, 1834903, Note_on_c, 0, 68, 59
1, 1834909, Note_on_c, 0, 66, 74
1, 1834936, Note_on_c, 0, 68, 0
1, 1834952, Note_on_c, 0, 74, 66
1, 1835014, Note_on_c, 0, 74, 0
1, 1835015, Note_on_c, 0, 75, 0
1, 1835066, Note_on_c, 0, 66, 0
1, 1835088, Poly_aftertouch_c, 0, 73, 0
1, 1835122, Note_on_c, 0, 56, 0
1, 1835195, Note_on_c, 0, 73, 94
1, 1835201, Note_on_c, 0, 64, 86
1, 1835203, Note_on_c, 0, 44, 0
1, 1835214, Note_on_c, 0, 68, 73
1, 1835250, Note_on_c, 0, 68, 0
1, 1835254, Note_on_c, 0, 64, 0
1, 1835328, Note_on_c, 0, 73, 0
1, 1835459, Note_on_c, 0, 32, 61
1, 1835513, Note_on_c, 0, 44, 81
1, 1835533, Note_on_c, 0, 78, 94
1, 1835544, Note_on_c, 0, 69, 81
1, 1835564, Note_on_c, 0, 72, 64
1, 1835587, Control_c, 0, 64, 115
1, 1835603, Control_c, 0, 64, 61
1, 1835622, Control_c, 0, 64, 0
1, 1835682, Note_on_c, 0, 72, 0
1, 1835685, Control_c, 0, 64, 23
1, 1835700, Note_on_c, 0, 69, 0
1, 1835706, Control_c, 0, 64, 51
1, 1835725, Control_c, 0, 64, 80
1, 1835743, Control_c, 0, 64, 109
1, 1835761, Control_c, 0, 64, 127
1, 1835825, Note_on_c, 0, 78, 0
1, 1835849, Note_on_c, 0, 76, 93
1, 1835863, Note_on_c, 0, 68, 85
1, 1835865, Note_on_c, 0, 72, 73
1, 1835900, Note_on_c, 0, 32, 0
1, 1835901, Note_on_c, 0, 44, 0
1, 1835943, Note_on_c, 0, 72, 0
1, 1835966, Note_on_c, 0, 76, 0
1, 1835993, Note_on_c, 0, 44, 86
1, 1835996, Note_on_c, 0, 32, 70
1, 1836000, Note_on_c, 0, 68, 0
1, 1836001, Poly_aftertouch_c, 0, 74, 0
1, 1836082, Note_on_c, 0, 32, 0
1, 1836107, Note_on_c, 0, 44, 0
1, 1836200, Note_on_c, 0, 75, 93
1, 1836205, Note_on_c, 0, 32, 73
1, 1836214, Note_on_c, 0, 44, 71
1, 1836220, Note_on_c, 0, 68, 68
1, 1836223, Note_on_c, 0, 66, 71
1, 1836354, Note_on_c, 0, 68, 0
1, 1836362, Note_on_c, 0, 66, 0
1, 1836370, Note_on_c, 0, 32, 0
1, 1836388, Note_on_c, 0, 44, 0
1, 1836446, Note_on_c, 0, 75, 0
1, 1836459, Note_on_c, 0, 45, 81
1, 1836470, Note_on_c, 0, 33, 67
1, 1836551, Note_on_c, 0, 45, 0
1, 1836562, Note_on_c, 0, 72, 86
1, 1836575, Note_on_c, 0, 63, 71
1, 1836577, Note_on_c, 0, 68, 60
1, 1836624, Note_on_c, 0, 68, 0
1, 1836684, Note_on_c, 0, 32, 74
1, 1836687, Note_on_c, 0, 33, 0
1, 1836688, Note_on_c, 0, 63, 0
1, 1836702, Note_on_c, 0, 44, 72
1, 1836736, Note_on_c, 0, 72, 0
1, 1836915, Note_on_c, 0, 44, 0
1, 1837014, Note_on_c, 0, 31, 62
1, 1837043, Note_on_c, 0, 43, 67
1, 1837081, Note_on_c, 0, 32, 0
1, 1837103, Control_c, 0, 64, 88
1, 1837109, Note_on_c, 0, 73, 79
1, 1837122, Control_c, 0, 64, 36
1, 1837131, Note_on_c, 0, 64, 60
1, 1837140, Note_on_c, 0, 69, 52
1, 1837141, Control_c, 0, 64, 0
1, 1837234, Control_c, 0, 64, 32
1, 1837254, Control_c, 0, 64, 64
1, 1837265, Note_on_c, 0, 69, 0
1, 1837273, Control_c, 0, 64, 97
1, 1837289, Control_c, 0, 64, 127
1, 1837328, Note_on_c, 0, 64, 0
1, 1837337, Note_on_c, 0, 31, 0
1, 1837370, Note_on_c, 0, 73, 0
1, 1837466, Note_on_c, 0, 43, 0
1, 1837570, Note_on_c, 0, 75, 74
1, 1837597, Note_on_c, 0, 69, 53
1, 1837598, Note_on_c, 0, 72, 49
1, 1837630, Note_on_c, 0, 72, 0
1, 1837642, Note_on_c, 0, 69, 0
1, 1837718, Note_on_c, 0, 76, 81
1, 1837725, Note_on_c, 0, 75, 0
1, 1837729, Note_on_c, 0, 57, 61
1, 1837744, Note_on_c, 0, 69, 53
1, 1837765, Note_on_c, 0, 73, 31
1, 1837777, Note_on_c, 0, 69, 0
1, 1837811, Note_on_c, 0, 73, 0
1, 1837848, Note_on_c, 0, 76, 0
1, 1837937, Note_on_c, 0, 59, 60
1, 1837985, Note_on_c, 0, 57, 0
1, 1838010, Note_on_c, 0, 78, 87
1, 1838014, Note_on_c, 0, 73, 59
1, 1838046, Note_on_c, 0, 69, 46
1, 1838052, Note_on_c, 0, 73, 0
1, 1838084, Note_on_c, 0, 59, 0
1, 1838098, Note_on_c, 0, 69, 0
1, 1838109, Note_on_c, 0, 57, 62
1, 1838165, Note_on_c, 0, 57, 0
1, 1838372, Note_on_c, 0, 57, 42
1, 1838472, Note_on_c, 0, 81, 80
1, 1838494, Control_c, 0, 64, 94
1, 1838512, Control_c, 0, 64, 55
1, 1838527, Note_on_c, 0, 69, 27
1, 1838529, Note_on_c, 0, 78, 0
1, 1838531, Note_on_c, 0, 73, 33
1, 1838532, Control_c, 0, 64, 33
1, 1838568, Control_c, 0, 64, 48
1, 1838588, Control_c, 0, 64, 67
1, 1838604, Control_c, 0, 64, 86
1, 1838622, Control_c, 0, 64, 115
1, 1838625, Note_on_c, 0, 57, 0
1, 1838641, Control_c, 0, 64, 127
1, 1838741, Note_on_c, 0, 73, 0
1, 1838742, Poly_aftertouch_c, 0, 73, 0
1, 1838760, Note_on_c, 0, 69, 0
1, 1838856, Note_on_c, 0, 79, 73
1, 1838878, Note_on_c, 0, 73, 39
1, 1838891, Note_on_c, 0, 69, 49
1, 1838920, Note_on_c, 0, 81, 0
1, 1838997, Note_on_c, 0, 43, 58
1, 1839004, Note_on_c, 0, 31, 55
1, 1839027, Note_on_c, 0, 69, 0
1, 1839032, Note_on_c, 0, 73, 0
1, 1839068, Control_c, 0, 67, 9
1, 1839080, Note_on_c, 0, 43, 0
1, 1839086, Note_on_c, 0, 31, 0
1, 1839086, Control_c, 0, 67, 14
1, 1839105, Control_c, 0, 67, 23
1, 1839124, Control_c, 0, 67, 33
1, 1839144, Control_c, 0, 67, 41
1, 1839160, Control_c, 0, 67, 46
1, 1839178, Control_c, 0, 67, 51
1, 1839197, Control_c, 0, 67, 55
1, 1839216, Control_c, 0, 67, 61
1, 1839222, Note_on_c, 0, 76, 64
1, 1839235, Control_c, 0, 67, 68
1, 1839236, Note_on_c, 0, 31, 49
1, 1839237, Note_on_c, 0, 69, 47
1, 1839242, Note_on_c, 0, 43, 43
1, 1839252, Control_c, 0, 67, 75
1, 1839260, Note_on_c, 0, 73, 29
1, 1839271, Control_c, 0, 67, 81
1, 1839282, Note_on_c, 0, 79, 0
1, 1839290, Control_c, 0, 67, 85
1, 1839304, Note_on_c, 0, 43, 0
1, 1839309, Note_on_c, 0, 73, 0
1, 1839315, Note_on_c, 0, 76, 0
1, 1839327, Control_c, 0, 67, 92
1, 1839332, Note_on_c, 0, 69, 0
1, 1839345, Control_c, 0, 67, 96
1, 1839363, Control_c, 0, 67, 100
1, 1839382, Control_c, 0, 67, 104
1, 1839429, Control_c, 0, 67, 109
1, 1839430, Note_on_c, 0, 31, 0
1, 1839467, Control_c, 0, 67, 114
1, 1839503, Control_c, 0, 67, 120
1, 1839511, Note_on_c, 0, 45, 44
1, 1839527, Note_on_c, 0, 33, 44
1, 1839539, Control_c, 0, 67, 127
1, 1839607, Note_on_c, 0, 45, 0
1, 1839653, Note_on_c, 0, 73, 59
1, 1839656, Note_on_c, 0, 64, 50
1, 1839672, Note_on_c, 0, 69, 46
1, 1839746, Note_on_c, 0, 33, 0
1, 1839756, Note_on_c, 0, 31, 48
1, 1839758, Note_on_c, 0, 43, 49
1, 1839780, Note_on_c, 0, 64, 0
1, 1839816, Note_on_c, 0, 69, 0
1, 1839871, Note_on_c, 0, 73, 0
1, 1839904, Note_on_c, 0, 43, 0
1, 1840158, Note_on_c, 0, 30, 52
1, 1840173, Note_on_c, 0, 42, 47
1, 1840209, Note_on_c, 0, 31, 0
1, 1840227, Control_c, 0, 64, 116
1, 1840245, Control_c, 0, 64, 88
1, 1840264, Control_c, 0, 64, 59
1, 1840280, Control_c, 0, 64, 32
1, 1840300, Control_c, 0, 64, 22
1, 1840318, Control_c, 0, 64, 17
1, 1840346, Control_c, 0, 64, 12
1, 1840384, Control_c, 0, 64, 8
1, 1840459, Control_c, 0, 64, 15
1, 1840475, Control_c, 0, 64, 34
1, 1840494, Control_c, 0, 64, 55
1, 1840513, Control_c, 0, 64, 77
1, 1840532, Control_c, 0, 64, 93
1, 1840550, Control_c, 0, 64, 112
1, 1840554, Note_on_c, 0, 30, 0
1, 1840568, Control_c, 0, 64, 127
1, 1840603, Note_on_c, 0, 82, 71
1, 1840622, Note_on_c, 0, 76, 47
1, 1840644, Note_on_c, 0, 73, 41
1, 1840722, Note_on_c, 0, 76, 0
1, 1840740, Note_on_c, 0, 42, 0
1, 1840760, Note_on_c, 0, 73, 0
1, 1840788, Note_on_c, 0, 82, 0
1, 1840897, Note_on_c, 0, 42, 49
1, 1841082, Note_on_c, 0, 44, 45
1, 1841126, Note_on_c, 0, 42, 0
1, 1841233, Note_on_c, 0, 76, 57
1, 1841247, Note_on_c, 0, 70, 41
1, 1841257, Note_on_c, 0, 73, 36
1, 1841289, Note_on_c, 0, 44, 0
1, 1841294, Note_on_c, 0, 42, 57
1, 1841343, Note_on_c, 0, 42, 0
1, 1841473, Note_on_c, 0, 42, 51
1, 1841504, Control_c, 0, 64, 100
1, 1841523, Control_c, 0, 64, 59
1, 1841542, Control_c, 0, 64, 41
1, 1841547, Poly_aftertouch_c, 0, 73, 22
1, 1841557, Note_on_c, 0, 73, 0
1, 1841557, Poly_aftertouch_c, 0, 73, 0
1, 1841558, Poly_aftertouch_c, 0, 73, 0
1, 1841560, Control_c, 0, 64, 47
1, 1841567, Note_on_c, 0, 76, 0
1, 1841578, Control_c, 0, 64, 62
1, 1841596, Control_c, 0, 64, 76
1, 1841616, Control_c, 0, 64, 98
1, 1841634, Control_c, 0, 64, 127
1, 1841645, Note_on_c, 0, 70, 0
1, 1841844, Note_on_c, 0, 73, 65
1, 1841857, Note_on_c, 0, 70, 54
1, 1841868, Note_on_c, 0, 64, 46
1, 1841895, Note_on_c, 0, 42, 0
1, 1841964, Note_on_c, 0, 70, 0
1, 1841983, Note_on_c, 0, 73, 0
1, 1842000, Note_on_c, 0, 64, 0
1, 1842073, Note_on_c, 0, 42, 48
1, 1842305, Note_on_c, 0, 44, 52
1, 1842351, Note_on_c, 0, 42, 0
1, 1842414, Note_on_c, 0, 70, 65
1, 1842419, Note_on_c, 0, 61, 56
1, 1842450, Note_on_c, 0, 64, 36
1, 1842465, Note_on_c, 0, 61, 0
1, 1842468, Note_on_c, 0, 42, 63
1, 1842480, Note_on_c, 0, 44, 0
1, 1842507, Note_on_c, 0, 64, 0
1, 1842531, Note_on_c, 0, 42, 0
1, 1842550, Note_on_c, 0, 70, 0
1, 1842663, Note_on_c, 0, 42, 68
1, 1842717, Control_c, 0, 64, 85
1, 1842736, Control_c, 0, 64, 41
1, 1842755, Control_c, 0, 64, 17
1, 1842791, Control_c, 0, 64, 29
1, 1842812, Control_c, 0, 64, 50
1, 1842829, Control_c, 0, 64, 73
1, 1842849, Control_c, 0, 64, 95
1, 1842867, Control_c, 0, 64, 122
1, 1842885, Control_c, 0, 64, 127
1, 1842978, Note_on_c, 0, 88, 81
1, 1842994, Note_on_c, 0, 82, 66
1, 1843006, Note_on_c, 0, 85, 58
1, 1843033, Note_on_c, 0, 82, 0
1, 1843053, Note_on_c, 0, 85, 0
1, 1843056, Note_on_c, 0, 42, 0
1, 1843087, Note_on_c, 0, 88, 0
1, 1843258, Note_on_c, 0, 42, 54
1, 1843448, Note_on_c, 0, 44, 53
1, 1843469, Note_on_c, 0, 42, 0
1, 1843566, Note_on_c, 0, 85, 66
1, 1843580, Note_on_c, 0, 82, 50
1, 1843593, Note_on_c, 0, 76, 42
1, 1843615, Note_on_c, 0, 44, 0
1, 1843619, Note_on_c, 0, 42, 60
1, 1843668, Note_on_c, 0, 42, 0
1, 1843675, Note_on_c, 0, 82, 0
1, 1843683, Note_on_c, 0, 76, 0
1, 1843699, Note_on_c, 0, 85, 0
1, 1843795, Note_on_c, 0, 42, 52
1, 1843857, Control_c, 0, 64, 109
1, 1843875, Control_c, 0, 64, 73
1, 1843894, Control_c, 0, 64, 41
1, 1843931, Control_c, 0, 64, 45
1, 1843950, Control_c, 0, 64, 59
1, 1843969, Control_c, 0, 64, 75
1, 1843989, Control_c, 0, 64, 93
1, 1844006, Control_c, 0, 64, 116
1, 1844024, Control_c, 0, 64, 127
1, 1844122, Note_on_c, 0, 82, 70
1, 1844141, Note_on_c, 0, 76, 51
1, 1844153, Note_on_c, 0, 42, 0
1, 1844160, Note_on_c, 0, 73, 30
1, 1844209, Note_on_c, 0, 76, 0
1, 1844239, Note_on_c, 0, 73, 0
1, 1844246, Note_on_c, 0, 82, 0
1, 1844353, Note_on_c, 0, 42, 51
1, 1844538, Note_on_c, 0, 44, 53
1, 1844545, Note_on_c, 0, 42, 0
1, 1844642, Note_on_c, 0, 76, 64
1, 1844663, Note_on_c, 0, 73, 46
1, 1844667, Note_on_c, 0, 70, 37
1, 1844702, Note_on_c, 0, 42, 59
1, 1844708, Note_on_c, 0, 44, 0
1, 1844718, Note_on_c, 0, 70, 0
1, 1844731, Note_on_c, 0, 73, 0
1, 1844752, Note_on_c, 0, 76, 0
1, 1844893, Note_on_c, 0, 43, 59
1, 1844905, Control_c, 0, 64, 99
1, 1844913, Note_on_c, 0, 42, 0
1, 1844923, Control_c, 0, 64, 61
1, 1844942, Control_c, 0, 64, 0
1, 1845080, Control_c, 0, 64, 35
1, 1845100, Control_c, 0, 64, 62
1, 1845117, Control_c, 0, 64, 82
1, 1845137, Control_c, 0, 64, 98
1, 1845154, Control_c, 0, 64, 116
1, 1845172, Control_c, 0, 64, 127
1, 1845209, Note_on_c, 0, 75, 74
1, 1845240, Note_on_c, 0, 73, 51
1, 1845245, Note_on_c, 0, 70, 34
1, 1845254, Note_on_c, 0, 43, 0
1, 1845316, Note_on_c, 0, 73, 0
1, 1845320, Note_on_c, 0, 70, 0
1, 1845347, Note_on_c, 0, 75, 0
1, 1845473, Note_on_c, 0, 43, 41
1, 1845652, Note_on_c, 0, 44, 48
1, 1845660, Note_on_c, 0, 43, 0
1, 1845794, Note_on_c, 0, 75, 55
1, 1845817, Note_on_c, 0, 70, 35
1, 1845818, Note_on_c, 0, 73, 43
1, 1845862, Note_on_c, 0, 43, 42
1, 1845874, Note_on_c, 0, 73, 0
1, 1845880, Note_on_c, 0, 70, 0
1, 1845887, Note_on_c, 0, 75, 0
1, 1845930, Note_on_c, 0, 44, 0
1, 1846053, Control_c, 0, 64, 105
1, 1846063, Note_on_c, 0, 44, 63
1, 1846072, Control_c, 0, 64, 73
1, 1846089, Control_c, 0, 64, 41
1, 1846102, Note_on_c, 0, 43, 0
1, 1846107, Control_c, 0, 64, 14
1, 1846126, Control_c, 0, 64, 10
1, 1846220, Control_c, 0, 64, 31
1, 1846239, Control_c, 0, 64, 52
1, 1846256, Control_c, 0, 64, 73
1, 1846274, Control_c, 0, 64, 86
1, 1846293, Control_c, 0, 64, 101
1, 1846312, Control_c, 0, 64, 117
1, 1846330, Control_c, 0, 64, 127
1, 1846359, Note_on_c, 0, 75, 68
1, 1846377, Note_on_c, 0, 73, 54
1, 1846398, Note_on_c, 0, 68, 20
1, 1846399, Note_on_c, 0, 44, 0
1, 1846457, Note_on_c, 0, 68, 0
1, 1846476, Note_on_c, 0, 73, 0
1, 1846493, Note_on_c, 0, 75, 0
1, 1846605, Note_on_c, 0, 44, 48
1, 1846779, Note_on_c, 0, 46, 50
1, 1846833, Note_on_c, 0, 44, 0
1, 1846912, Note_on_c, 0, 75, 55
1, 1846930, Note_on_c, 0, 68, 34
1, 1846937, Note_on_c, 0, 73, 37
1, 1846973, Note_on_c, 0, 44, 49
1, 1847000, Note_on_c, 0, 73, 0
1, 1847002, Note_on_c, 0, 75, 0
1, 1847002, Note_on_c, 0, 68, 0
1, 1847013, Note_on_c, 0, 46, 0
1, 1847182, Note_on_c, 0, 45, 53
1, 1847190, Control_c, 0, 64, 107
1, 1847197, Note_on_c, 0, 44, 0
1, 1847210, Control_c, 0, 64, 75
1, 1847229, Control_c, 0, 64, 39
1, 1847247, Control_c, 0, 64, 0
1, 1847357, Control_c, 0, 64, 31
1, 1847376, Control_c, 0, 64, 54
1, 1847395, Control_c, 0, 64, 75
1, 1847413, Control_c, 0, 64, 88
1, 1847433, Control_c, 0, 64, 103
1, 1847451, Control_c, 0, 64, 117
1, 1847470, Control_c, 0, 64, 127
1, 1847484, Note_on_c, 0, 75, 59
1, 1847499, Note_on_c, 0, 73, 46
1, 1847508, Note_on_c, 0, 67, 28
1, 1847540, Note_on_c, 0, 45, 0
1, 1847562, Note_on_c, 0, 73, 0
1, 1847574, Note_on_c, 0, 67, 0
1, 1847610, Note_on_c, 0, 75, 0
1, 1847734, Note_on_c, 0, 45, 40
1, 1847954, Note_on_c, 0, 46, 42
1, 1847965, Note_on_c, 0, 45, 0
1, 1848083, Note_on_c, 0, 75, 45
1, 1848098, Note_on_c, 0, 67, 18
1, 1848111, Note_on_c, 0, 73, 21
1, 1848167, Note_on_c, 0, 45, 37
1, 1848178, Note_on_c, 0, 67, 0
1, 1848183, Note_on_c, 0, 73, 0
1, 1848205, Note_on_c, 0, 46, 0
1, 1848206, Note_on_c, 0, 75, 0
1, 1848362, Note_on_c, 0, 44, 49
1, 1848396, Note_on_c, 0, 45, 0
1, 1848479, Control_c, 0, 64, 115
1, 1848497, Control_c, 0, 64, 85
1, 1848515, Control_c, 0, 64, 53
1, 1848535, Control_c, 0, 64, 27
1, 1848609, Control_c, 0, 64, 40
1, 1848628, Control_c, 0, 64, 58
1, 1848644, Control_c, 0, 64, 78
1, 1848664, Control_c, 0, 64, 92
1, 1848684, Control_c, 0, 64, 108
1, 1848700, Control_c, 0, 64, 121
1, 1848713, Note_on_c, 0, 75, 51
1, 1848718, Control_c, 0, 64, 127
1, 1848743, Note_on_c, 0, 66, 29
1, 1848769, Note_on_c, 0, 72, 27
1, 1848848, Note_on_c, 0, 44, 0
1, 1849012, Note_on_c, 0, 44, 39
1, 1849033, Note_on_c, 0, 66, 0
1, 1849041, Note_on_c, 0, 75, 0
1, 1849050, Note_on_c, 0, 72, 0
1, 1849284, Note_on_c, 0, 44, 0
1, 1849284, Note_on_c, 0, 46, 32
1, 1849399, Note_on_c, 0, 66, 27
1, 1849404, Note_on_c, 0, 75, 41
1, 1849448, Note_on_c, 0, 72, 22
1, 1849515, Note_on_c, 0, 72, 0
1, 1849544, Note_on_c, 0, 46, 0
1, 1849552, Note_on_c, 0, 44, 37
1, 1849712, Note_on_c, 0, 66, 0
1, 1849905, Note_on_c, 0, 37, 36
1, 1849924, Note_on_c, 0, 44, 0
1, 1850091, Control_c, 0, 64, 115
1, 1850112, Control_c, 0, 64, 85
1, 1850119, Note_on_c, 0, 77, 66
1, 1850130, Control_c, 0, 64, 51
1, 1850146, Control_c, 0, 64, 20
1, 1850149, Note_on_c, 0, 65, 33
1, 1850150, Note_on_c, 0, 73, 49
1, 1850201, Note_on_c, 0, 75, 0
1, 1850202, Control_c, 0, 64, 33
1, 1850220, Control_c, 0, 64, 54
1, 1850239, Control_c, 0, 64, 77
1, 1850258, Control_c, 0, 64, 96
1, 1850277, Control_c, 0, 64, 118
1, 1850280, Note_on_c, 0, 37, 0
1, 1850295, Control_c, 0, 64, 127
1, 1850568, Note_on_c, 0, 63, 37
1, 1850637, Note_on_c, 0, 65, 0
1, 1850920, Note_on_c, 0, 61, 34
1, 1850966, Note_on_c, 0, 63, 0
1, 1851200, Note_on_c, 0, 56, 25
1, 1851235, Note_on_c, 0, 73, 0
1, 1851236, Note_on_c, 0, 75, 49
1, 1851328, Note_on_c, 0, 61, 0
1, 1851331, Note_on_c, 0, 77, 0
1, 1851539, Note_on_c, 0, 65, 35
1, 1851588, Note_on_c, 0, 73, 49
1, 1851658, Note_on_c, 0, 75, 0
1, 1851867, Note_on_c, 0, 73, 0
1, 1851883, Note_on_c, 0, 56, 0
1, 1851886, Note_on_c, 0, 68, 29
1, 1851913, Note_on_c, 0, 63, 35
1, 1851930, Note_on_c, 0, 68, 0
1, 1852016, Note_on_c, 0, 65, 0
1, 1852189, Note_on_c, 0, 61, 41
1, 1852194, Note_on_c, 0, 53, 52
1, 1852461, Poly_aftertouch_c, 0, 63, 24
1, 1852484, Note_on_c, 0, 56, 40
1, 1852491, Note_on_c, 0, 51, 61
1, 1852548, Note_on_c, 0, 63, 0
1, 1852548, Poly_aftertouch_c, 0, 63, 0
1, 1852577, Note_on_c, 0, 53, 0
1, 1852789, Note_on_c, 0, 61, 0
1, 1852791, Note_on_c, 0, 65, 41
1, 1852798, Note_on_c, 0, 49, 57
1, 1852820, Note_on_c, 0, 51, 0
1, 1852842, Control_c, 0, 64, 90
1, 1852862, Control_c, 0, 64, 52
1, 1852879, Control_c, 0, 64, 22
1, 1852918, Control_c, 0, 64, 29
1, 1852936, Control_c, 0, 64, 49
1, 1852952, Control_c, 0, 64, 70
1, 1852971, Control_c, 0, 64, 92
1, 1852990, Control_c, 0, 64, 120
1, 1853008, Control_c, 0, 64, 127
1, 1853065, Note_on_c, 0, 44, 64
1, 1853072, Note_on_c, 0, 49, 0
1, 1853102, Note_on_c, 0, 44, 0
1, 1853117, Note_on_c, 0, 63, 46
1, 1853140, Note_on_c, 0, 56, 0
1, 1853323, Note_on_c, 0, 61, 49
1, 1853345, Note_on_c, 0, 65, 0
1, 1853372, Note_on_c, 0, 77, 62
1, 1853590, Note_on_c, 0, 63, 0
1, 1853632, Note_on_c, 0, 75, 70
1, 1853648, Note_on_c, 0, 56, 41
1, 1853694, Note_on_c, 0, 77, 0
1, 1853758, Note_on_c, 0, 61, 0
1, 1853920, Note_on_c, 0, 65, 43
1, 1853923, Note_on_c, 0, 73, 61
1, 1853992, Note_on_c, 0, 75, 0
1, 1854119, Note_on_c, 0, 56, 0
1, 1854184, Note_on_c, 0, 73, 0
1, 1854185, Note_on_c, 0, 68, 66
1, 1854215, Note_on_c, 0, 68, 0
1, 1854216, Note_on_c, 0, 63, 45
1, 1854291, Note_on_c, 0, 65, 0
1, 1854442, Note_on_c, 0, 61, 51
1, 1854475, Note_on_c, 0, 49, 46
1, 1854545, Note_on_c, 0, 48, 9
1, 1854624, Note_on_c, 0, 48, 0
1, 1854639, Note_on_c, 0, 63, 0
1, 1854726, Note_on_c, 0, 49, 0
1, 1854730, Note_on_c, 0, 48, 78
1, 1854734, Note_on_c, 0, 56, 48
1, 1854850, Note_on_c, 0, 61, 0
1, 1854987, Note_on_c, 0, 48, 0
1, 1855011, Note_on_c, 0, 47, 59
1, 1855023, Note_on_c, 0, 68, 51
1, 1855027, Control_c, 0, 64, 118
1, 1855046, Note_on_c, 0, 56, 0
1, 1855046, Control_c, 0, 64, 77
1, 1855065, Control_c, 0, 64, 22
1, 1855085, Control_c, 0, 64, 0
1, 1855120, Control_c, 0, 64, 14
1, 1855141, Control_c, 0, 64, 39
1, 1855158, Control_c, 0, 64, 58
1, 1855178, Control_c, 0, 64, 80
1, 1855193, Control_c, 0, 64, 97
1, 1855212, Control_c, 0, 64, 114
1, 1855231, Control_c, 0, 64, 125
1, 1855285, Note_on_c, 0, 37, 61
1, 1855293, Note_on_c, 0, 47, 0
1, 1855303, Note_on_c, 0, 66, 53
1, 1855327, Note_on_c, 0, 37, 0
1, 1855430, Note_on_c, 0, 68, 0
1, 1855583, Note_on_c, 0, 65, 50
1, 1855591, Note_on_c, 0, 80, 73
1, 1855746, Note_on_c, 0, 66, 0
1, 1855848, Note_on_c, 0, 78, 76
1, 1855854, Note_on_c, 0, 61, 51
1, 1855923, Note_on_c, 0, 80, 0
1, 1856121, Note_on_c, 0, 68, 52
1, 1856138, Note_on_c, 0, 77, 70
1, 1856151, Poly_aftertouch_c, 0, 65, 22
1, 1856192, Note_on_c, 0, 78, 0
1, 1856220, Note_on_c, 0, 65, 0
1, 1856220, Poly_aftertouch_c, 0, 65, 0
1, 1856387, Note_on_c, 0, 61, 0
1, 1856390, Note_on_c, 0, 77, 0
1, 1856395, Note_on_c, 0, 73, 71
1, 1856424, Note_on_c, 0, 73, 0
1, 1856440, Note_on_c, 0, 66, 46
1, 1856626, Note_on_c, 0, 68, 0
1, 1856646, Note_on_c, 0, 65, 49
1, 1856649, Note_on_c, 0, 49, 72
1, 1856773, Note_on_c, 0, 66, 0
1, 1856892, Note_on_c, 0, 61, 49
1, 1856900, Note_on_c, 0, 48, 77
1, 1856952, Note_on_c, 0, 49, 0
1, 1856973, Note_on_c, 0, 65, 0
1, 1857178, Note_on_c, 0, 68, 58
1, 1857196, Note_on_c, 0, 48, 0
1, 1857204, Control_c, 0, 64, 96
1, 1857205, Note_on_c, 0, 47, 65
1, 1857221, Note_on_c, 0, 61, 0
1, 1857224, Control_c, 0, 64, 52
1, 1857243, Control_c, 0, 64, 0
1, 1857316, Control_c, 0, 64, 27
1, 1857334, Control_c, 0, 64, 49
1, 1857354, Control_c, 0, 64, 73
1, 1857371, Control_c, 0, 64, 91
1, 1857392, Control_c, 0, 64, 111
1, 1857409, Control_c, 0, 64, 126
1, 1857445, Note_on_c, 0, 37, 69
1, 1857457, Note_on_c, 0, 47, 0
1, 1857475, Note_on_c, 0, 66, 49
1, 1857481, Note_on_c, 0, 37, 0
1, 1857620, Note_on_c, 0, 68, 0
1, 1857740, Note_on_c, 0, 65, 46
1, 1857748, Note_on_c, 0, 80, 71
1, 1857794, Note_on_c, 0, 66, 0
1, 1857997, Note_on_c, 0, 61, 51
1, 1858003, Note_on_c, 0, 78, 65
1, 1858057, Note_on_c, 0, 80, 0
1, 1858274, Note_on_c, 0, 68, 58
1, 1858290, Note_on_c, 0, 77, 51
1, 1858302, Note_on_c, 0, 78, 0
1, 1858411, Note_on_c, 0, 61, 0
1, 1858458, Note_on_c, 0, 65, 0
1, 1858502, Note_on_c, 0, 77, 0
1, 1858535, Note_on_c, 0, 73, 57
1, 1858565, Note_on_c, 0, 73, 0
1, 1858569, Note_on_c, 0, 66, 49
1, 1858612, Note_on_c, 0, 68, 0
1, 1858795, Note_on_c, 0, 65, 51
1, 1858796, Note_on_c, 0, 56, 62
1, 1858918, Note_on_c, 0, 66, 0
1, 1858980, Note_on_c, 0, 65, 0
1, 1859037, Note_on_c, 0, 61, 58
1, 1859064, Note_on_c, 0, 54, 65
1, 1859080, Note_on_c, 0, 61, 0
1, 1859126, Note_on_c, 0, 56, 0
1, 1859421, Note_on_c, 0, 44, 62
1, 1859461, Note_on_c, 0, 53, 36
1, 1859492, Note_on_c, 0, 54, 0
1, 1859652, Control_c, 0, 64, 121
1, 1859669, Control_c, 0, 64, 116
1, 1859687, Control_c, 0, 64, 108
1, 1859705, Control_c, 0, 64, 98
1, 1859725, Control_c, 0, 64, 89
1, 1859742, Control_c, 0, 64, 84
1, 1859780, Control_c, 0, 64, 82
1, 1859798, Note_on_c, 0, 53, 0
1, 1859799, Control_c, 0, 64, 79
1, 1859799, Note_on_c, 0, 49, 48
1, 1859818, Control_c, 0, 64, 76
1, 1859836, Control_c, 0, 64, 73
1, 1859856, Control_c, 0, 64, 71
1, 1859910, Control_c, 0, 64, 68
1, 1859928, Control_c, 0, 64, 66
1, 1859947, Control_c, 0, 64, 63
1, 1859965, Control_c, 0, 64, 61
1, 1859985, Control_c, 0, 64, 60
1, 1860012, Note_on_c, 0, 42, 61
1, 1860031, Control_c, 0, 64, 58
1, 1860067, Control_c, 0, 64, 56
1, 1860105, Control_c, 0, 64, 53
1, 1860130, Note_on_c, 0, 49, 0
1, 1860142, Control_c, 0, 64, 50
1, 1860197, Control_c, 0, 64, 48
1, 1860279, Note_on_c, 0, 44, 0
1, 1860289, Control_c, 0, 64, 46
1, 1860345, Control_c, 0, 64, 44
1, 1860493, Control_c, 0, 64, 42
1, 1860653, Note_on_c, 0, 41, 53
1, 1860697, Control_c, 0, 64, 40
1, 1860735, Note_on_c, 0, 42, 0
1, 1861265, Note_on_c, 0, 37, 53
1, 1861366, Note_on_c, 0, 41, 0
1, 1861671, Note_on_c, 0, 59, 51
1, 1861703, Note_on_c, 0, 59, 0
1, 1861906, Note_on_c, 0, 60, 65
1, 1861909, Note_on_c, 0, 53, 58
1, 1861922, Note_on_c, 0, 44, 44
1, 1861928, Note_on_c, 0, 32, 45
1, 1861938, Note_on_c, 0, 53, 0
1, 1861941, Note_on_c, 0, 60, 0
1, 1862009, Note_on_c, 0, 37, 0
1, 1862296, Note_on_c, 0, 60, 55
1, 1862302, Note_on_c, 0, 53, 42
1, 1862325, Note_on_c, 0, 60, 0
1, 1862345, Note_on_c, 0, 53, 0
1, 1862461, Note_on_c, 0, 44, 0
1, 1862525, Note_on_c, 0, 61, 66
1, 1862533, Note_on_c, 0, 31, 60
1, 1862540, Note_on_c, 0, 58, 47
1, 1862543, Note_on_c, 0, 43, 53
1, 1862547, Note_on_c, 0, 53, 37
1, 1862548, Note_on_c, 0, 53, 0
1, 1862563, Note_on_c, 0, 61, 0
1, 1862569, Note_on_c, 0, 32, 0
1, 1862577, Note_on_c, 0, 58, 0
1, 1862917, Note_on_c, 0, 61, 71
1, 1862927, Note_on_c, 0, 58, 58
1, 1862930, Note_on_c, 0, 53, 51
1, 1862953, Note_on_c, 0, 58, 0
1, 1862958, Note_on_c, 0, 61, 0
1, 1862964, Note_on_c, 0, 53, 0
1, 1863023, Note_on_c, 0, 43, 0
1, 1863157, Note_on_c, 0, 56, 78
1, 1863170, Note_on_c, 0, 29, 69
1, 1863173, Note_on_c, 0, 53, 57
1, 1863175, Note_on_c, 0, 41, 69
1, 1863179, Note_on_c, 0, 31, 0
1, 1863185, Note_on_c, 0, 56, 0
1, 1863203, Note_on_c, 0, 53, 0
1, 1863429, Note_on_c, 0, 58, 66
1, 1863472, Note_on_c, 0, 58, 0
1, 1863496, Note_on_c, 0, 56, 66
1, 1863510, Note_on_c, 0, 60, 72
1, 1863514, Note_on_c, 0, 41, 0
1, 1863524, Note_on_c, 0, 56, 0
1, 1863542, Note_on_c, 0, 60, 0
1, 1863615, Control_c, 0, 64, 35
1, 1863652, Control_c, 0, 64, 30
1, 1863672, Control_c, 0, 64, 25
1, 1863690, Control_c, 0, 64, 13
1, 1863708, Control_c, 0, 64, 0
1, 1863793, Note_on_c, 0, 24, 63
1, 1863808, Note_on_c, 0, 36, 45
1, 1863855, Note_on_c, 0, 29, 0
1, 1863903, Control_c, 0, 64, 28
1, 1863921, Control_c, 0, 64, 46
1, 1863940, Control_c, 0, 64, 69
1, 1863959, Control_c, 0, 64, 87
1, 1863978, Control_c, 0, 64, 104
1, 1863979, Control_c, 0, 67, 123
1, 1863995, Control_c, 0, 64, 119
1, 1863996, Control_c, 0, 67, 118
1, 1864013, Control_c, 0, 64, 127
1, 1864014, Control_c, 0, 67, 112
1, 1864031, Control_c, 0, 67, 101
1, 1864052, Control_c, 0, 67, 84
1, 1864069, Control_c, 0, 67, 63
1, 1864088, Control_c, 0, 67, 39
1, 1864107, Control_c, 0, 67, 17
1, 1864110, Note_on_c, 0, 36, 0
1, 1864125, Control_c, 0, 67, 0
1, 1864134, Note_on_c, 0, 24, 0
1, 1864196, Note_on_c, 0, 60, 72
1, 1864448, Note_on_c, 0, 32, 63
1, 1864463, Note_on_c, 0, 44, 61
1, 1864479, Note_on_c, 0, 54, 41
1, 1864550, Control_c, 0, 64, 100
1, 1864569, Control_c, 0, 64, 70
1, 1864588, Control_c, 0, 64, 56
1, 1864606, Control_c, 0, 64, 60
1, 1864626, Control_c, 0, 64, 69
1, 1864643, Control_c, 0, 64, 78
1, 1864663, Control_c, 0, 64, 90
1, 1864691, Control_c, 0, 64, 106
1, 1864709, Control_c, 0, 64, 121
1, 1864728, Control_c, 0, 64, 127
1, 1864874, Note_on_c, 0, 62, 73
1, 1864957, Note_on_c, 0, 60, 0
1, 1864994, Note_on_c, 0, 44, 0
1, 1864995, Note_on_c, 0, 54, 0
1, 1865118, Note_on_c, 0, 31, 55
1, 1865135, Note_on_c, 0, 43, 49
1, 1865174, Note_on_c, 0, 63, 60
1, 1865176, Note_on_c, 0, 55, 46
1, 1865217, Note_on_c, 0, 32, 0
1, 1865227, Control_c, 0, 64, 123
1, 1865238, Note_on_c, 0, 62, 0
1, 1865246, Control_c, 0, 64, 103
1, 1865266, Control_c, 0, 64, 78
1, 1865283, Control_c, 0, 64, 53
1, 1865300, Control_c, 0, 64, 33
1, 1865319, Control_c, 0, 64, 29
1, 1865394, Control_c, 0, 64, 47
1, 1865413, Control_c, 0, 64, 62
1, 1865431, Control_c, 0, 64, 77
1, 1865451, Control_c, 0, 64, 88
1, 1865468, Control_c, 0, 64, 99
1, 1865486, Control_c, 0, 64, 108
1, 1865504, Control_c, 0, 64, 117
1, 1865505, Control_c, 0, 67, 8
1, 1865523, Control_c, 0, 64, 125
1, 1865541, Control_c, 0, 67, 15
1, 1865561, Control_c, 0, 67, 25
1, 1865568, Note_on_c, 0, 43, 0
1, 1865579, Control_c, 0, 67, 35
1, 1865597, Control_c, 0, 67, 42
1, 1865626, Control_c, 0, 67, 48
1, 1865644, Control_c, 0, 67, 55
1, 1865664, Control_c, 0, 67, 63
1, 1865679, Control_c, 0, 67, 71
1, 1865698, Control_c, 0, 67, 78
1, 1865711, Note_on_c, 0, 62, 50
1, 1865717, Control_c, 0, 67, 85
1, 1865737, Control_c, 0, 67, 91
1, 1865755, Control_c, 0, 67, 97
1, 1865763, Note_on_c, 0, 55, 0
1, 1865774, Control_c, 0, 67, 103
1, 1865792, Control_c, 0, 67, 108
1, 1865811, Control_c, 0, 67, 112
1, 1865849, Control_c, 0, 67, 116
1, 1865883, Control_c, 0, 67, 121
1, 1865921, Control_c, 0, 67, 126
1, 1866050, Note_on_c, 0, 60, 44
1, 1866050, Note_on_c, 0, 30, 43
1, 1866062, Note_on_c, 0, 42, 37
1, 1866064, Note_on_c, 0, 56, 37
1, 1866122, Poly_aftertouch_c, 0, 63, 22
1, 1866126, Control_c, 0, 64, 116
1, 1866145, Control_c, 0, 64, 101
1, 1866153, Note_on_c, 0, 63, 0
1, 1866153, Poly_aftertouch_c, 0, 63, 0
1, 1866162, Control_c, 0, 64, 81
1, 1866181, Note_on_c, 0, 62, 0
1, 1866181, Control_c, 0, 64, 58
1, 1866201, Control_c, 0, 64, 37
1, 1866216, Note_on_c, 0, 31, 0
1, 1866220, Control_c, 0, 64, 26
1, 1866310, Control_c, 0, 64, 46
1, 1866330, Control_c, 0, 64, 65
1, 1866348, Control_c, 0, 64, 81
1, 1866367, Control_c, 0, 64, 93
1, 1866385, Control_c, 0, 64, 106
1, 1866405, Control_c, 0, 64, 116
1, 1866421, Control_c, 0, 64, 125
1, 1866518, Note_on_c, 0, 42, 0
1, 1866784, Note_on_c, 0, 62, 43
1, 1866875, Note_on_c, 0, 60, 0
1, 1866907, Note_on_c, 0, 56, 0
1, 1867413, Note_on_c, 0, 36, 30
1, 1867427, Note_on_c, 0, 55, 18
1, 1867429, Note_on_c, 0, 24, 33
1, 1867435, Note_on_c, 0, 64, 41
1, 1867444, Note_on_c, 0, 60, 34
1, 1867534, Control_c, 0, 64, 109
1, 1867551, Control_c, 0, 64, 88
1, 1867568, Note_on_c, 0, 62, 0
1, 1867570, Control_c, 0, 64, 63
1, 1867589, Control_c, 0, 64, 38
1, 1867609, Control_c, 0, 64, 25
1, 1867621, Note_on_c, 0, 30, 0
1, 1867625, Control_c, 0, 64, 21
1, 1867645, Control_c, 0, 64, 13
1, 1867682, Control_c, 0, 64, 0
1, 1867755, Control_c, 0, 64, 19
1, 1867774, Control_c, 0, 64, 46
1, 1867792, Control_c, 0, 64, 71
1, 1867812, Control_c, 0, 64, 86
1, 1867830, Control_c, 0, 64, 101
1, 1867849, Control_c, 0, 64, 114
1, 1867867, Control_c, 0, 64, 127
1, 1867902, Note_on_c, 0, 24, 0
1, 1868097, Note_on_c, 0, 36, 0
1, 1868256, Note_on_c, 0, 55, 0
1, 1868507, Poly_aftertouch_c, 0, 60, 24
1, 1868563, Note_on_c, 0, 60, 0
1, 1868563, Poly_aftertouch_c, 0, 60, 0
1, 1868744, Note_on_c, 0, 64, 0
1, 1869220, Note_on_c, 0, 67, 34
1, 1869254, Note_on_c, 0, 58, 27
1, 1869321, Control_c, 0, 64, 122
1, 1869340, Control_c, 0, 64, 96
1, 1869367, Control_c, 0, 64, 69
1, 1869385, Control_c, 0, 64, 51
1, 1869423, Control_c, 0, 64, 56
1, 1869440, Control_c, 0, 64, 64
1, 1869460, Control_c, 0, 64, 75
1, 1869479, Control_c, 0, 64, 90
1, 1869497, Control_c, 0, 64, 110
1, 1869516, Control_c, 0, 64, 127
1, 1869619, Note_on_c, 0, 65, 32
1, 1869893, Note_on_c, 0, 67, 0
1, 1869912, Note_on_c, 0, 79, 47
1, 1869920, Note_on_c, 0, 64, 32
1, 1870150, Note_on_c, 0, 58, 0
1, 1870186, Note_on_c, 0, 77, 61
1, 1870210, Note_on_c, 0, 60, 37
1, 1870361, Note_on_c, 0, 79, 0
1, 1870469, Note_on_c, 0, 58, 32
1, 1870470, Note_on_c, 0, 65, 0
1, 1870510, Note_on_c, 0, 76, 55
1, 1870517, Note_on_c, 0, 67, 29
1, 1870573, Note_on_c, 0, 64, 0
1, 1870605, Note_on_c, 0, 77, 0
1, 1870618, Note_on_c, 0, 60, 0
1, 1870767, Note_on_c, 0, 76, 0
1, 1870781, Note_on_c, 0, 72, 42
1, 1870793, Note_on_c, 0, 67, 0
1, 1870811, Note_on_c, 0, 65, 36
1, 1870816, Note_on_c, 0, 72, 0
1, 1870855, Note_on_c, 0, 58, 0
1, 1871038, Note_on_c, 0, 55, 55
1, 1871047, Note_on_c, 0, 64, 42
1, 1871115, Note_on_c, 0, 65, 0
1, 1871259, Note_on_c, 0, 64, 0
1, 1871286, Note_on_c, 0, 60, 55
1, 1871297, Note_on_c, 0, 53, 64
1, 1871329, Note_on_c, 0, 60, 0
1, 1871368, Note_on_c, 0, 55, 0
1, 1871565, Note_on_c, 0, 61, 43
1, 1871566, Note_on_c, 0, 52, 55
1, 1871583, Note_on_c, 0, 70, 47
1, 1871631, Note_on_c, 0, 53, 0
1, 1871646, Control_c, 0, 64, 117
1, 1871664, Control_c, 0, 64, 78
1, 1871683, Control_c, 0, 64, 43
1, 1871703, Control_c, 0, 64, 31
1, 1871739, Control_c, 0, 64, 41
1, 1871760, Control_c, 0, 64, 61
1, 1871777, Control_c, 0, 64, 83
1, 1871793, Control_c, 0, 64, 105
1, 1871810, Note_on_c, 0, 52, 0
1, 1871812, Control_c, 0, 64, 127
1, 1871821, Note_on_c, 0, 48, 56
1, 1871850, Note_on_c, 0, 68, 45
1, 1871854, Note_on_c, 0, 48, 0
1, 1871891, Note_on_c, 0, 70, 0
1, 1872072, Note_on_c, 0, 67, 49
1, 1872093, Note_on_c, 0, 82, 68
1, 1872100, Note_on_c, 0, 68, 0
1, 1872129, Control_c, 0, 67, 122
1, 1872172, Control_c, 0, 67, 117
1, 1872210, Control_c, 0, 67, 107
1, 1872230, Control_c, 0, 67, 97
1, 1872247, Control_c, 0, 67, 81
1, 1872267, Control_c, 0, 67, 61
1, 1872285, Control_c, 0, 67, 40
1, 1872304, Control_c, 0, 67, 20
1, 1872321, Note_on_c, 0, 61, 0
1, 1872341, Control_c, 0, 67, 0
1, 1872348, Note_on_c, 0, 80, 78
1, 1872356, Note_on_c, 0, 64, 51
1, 1872440, Note_on_c, 0, 82, 0
1, 1872582, Control_c, 0, 67, 11
1, 1872599, Control_c, 0, 67, 16
1, 1872618, Control_c, 0, 67, 21
1, 1872624, Note_on_c, 0, 70, 47
1, 1872636, Note_on_c, 0, 79, 68
1, 1872640, Note_on_c, 0, 61, 42
1, 1872655, Control_c, 0, 67, 26
1, 1872661, Poly_aftertouch_c, 0, 67, 24
1, 1872706, Note_on_c, 0, 67, 0
1, 1872706, Poly_aftertouch_c, 0, 67, 0
1, 1872707, Poly_aftertouch_c, 0, 67, 0
1, 1872711, Note_on_c, 0, 80, 0
1, 1872713, Note_on_c, 0, 64, 0
1, 1872823, Control_c, 0, 67, 22
1, 1872874, Note_on_c, 0, 79, 0
1, 1872875, Note_on_c, 0, 76, 64
1, 1872892, Note_on_c, 0, 68, 47
1, 1872908, Note_on_c, 0, 76, 0
1, 1873032, Note_on_c, 0, 70, 0
1, 1873139, Note_on_c, 0, 58, 71
1, 1873145, Note_on_c, 0, 67, 49
1, 1873154, Note_on_c, 0, 68, 0
1, 1873261, Note_on_c, 0, 61, 0
1, 1873365, Note_on_c, 0, 64, 55
1, 1873372, Note_on_c, 0, 56, 79
1, 1873376, Note_on_c, 0, 67, 0
1, 1873417, Note_on_c, 0, 64, 0
1, 1873449, Note_on_c, 0, 58, 0
1, 1873641, Note_on_c, 0, 64, 70
1, 1873664, Control_c, 0, 64, 118
1, 1873683, Control_c, 0, 64, 78
1, 1873684, Note_on_c, 0, 73, 55
1, 1873702, Control_c, 0, 64, 33
1, 1873716, Note_on_c, 0, 55, 52
1, 1873721, Control_c, 0, 64, 0
1, 1873760, Note_on_c, 0, 56, 0
1, 1873813, Control_c, 0, 64, 34
1, 1873834, Control_c, 0, 64, 59
1, 1873850, Control_c, 0, 64, 82
1, 1873869, Control_c, 0, 64, 102
1, 1873886, Control_c, 0, 64, 125
1, 1873889, Note_on_c, 0, 72, 59
1, 1873908, Note_on_c, 0, 55, 0
1, 1873910, Note_on_c, 0, 52, 69
1, 1873943, Control_c, 0, 67, 18
1, 1873953, Note_on_c, 0, 52, 0
1, 1873961, Note_on_c, 0, 73, 0
1, 1874138, Note_on_c, 0, 70, 63
1, 1874179, Note_on_c, 0, 85, 74
1, 1874310, Poly_aftertouch_c, 0, 86, 0
1, 1874396, Control_c, 0, 67, 22
1, 1874398, Note_on_c, 0, 84, 73
1, 1874406, Note_on_c, 0, 67, 63
1, 1874454, Note_on_c, 0, 85, 0
1, 1874472, Note_on_c, 0, 64, 0
1, 1874508, Control_c, 0, 67, 32
1, 1874527, Control_c, 0, 67, 41
1, 1874536, Note_on_c, 0, 72, 0
1, 1874545, Control_c, 0, 67, 49
1, 1874565, Control_c, 0, 67, 55
1, 1874584, Control_c, 0, 67, 61
1, 1874600, Control_c, 0, 67, 67
1, 1874619, Control_c, 0, 67, 71
1, 1874637, Control_c, 0, 67, 76
1, 1874657, Control_c, 0, 67, 82
1, 1874669, Note_on_c, 0, 64, 53
1, 1874673, Control_c, 0, 67, 89
1, 1874688, Note_on_c, 0, 82, 66
1, 1874692, Control_c, 0, 67, 96
1, 1874700, Note_on_c, 0, 73, 43
1, 1874712, Control_c, 0, 67, 103
1, 1874732, Control_c, 0, 67, 110
1, 1874749, Control_c, 0, 67, 116
1, 1874762, Note_on_c, 0, 84, 0
1, 1874775, Note_on_c, 0, 70, 0
1, 1874785, Control_c, 0, 67, 124
1, 1874800, Note_on_c, 0, 67, 0
1, 1874917, Note_on_c, 0, 82, 0
1, 1874920, Note_on_c, 0, 79, 62
1, 1874946, Note_on_c, 0, 72, 50
1, 1874954, Note_on_c, 0, 79, 0
1, 1875048, Note_on_c, 0, 73, 0
1, 1875171, Note_on_c, 0, 61, 69
1, 1875192, Note_on_c, 0, 70, 54
1, 1875368, Note_on_c, 0, 64, 0
1, 1875397, Note_on_c, 0, 60, 71
1, 1875414, Note_on_c, 0, 67, 55
1, 1875454, Note_on_c, 0, 61, 0
1, 1875487, Note_on_c, 0, 72, 0
1, 1875647, Note_on_c, 0, 63, 53
1, 1875696, Note_on_c, 0, 58, 58
1, 1875702, Note_on_c, 0, 73, 45
1, 1875704, Control_c, 0, 64, 87
1, 1875723, Control_c, 0, 64, 48
1, 1875732, Note_on_c, 0, 70, 0
1, 1875734, Note_on_c, 0, 60, 0
1, 1875741, Control_c, 0, 64, 0
1, 1875744, Note_on_c, 0, 67, 0
1, 1875788, Note_on_c, 0, 73, 0
1, 1875788, Note_on_c, 0, 73, 8
1, 1875833, Control_c, 0, 64, 41
1, 1875853, Control_c, 0, 64, 71
1, 1875872, Control_c, 0, 64, 96
1, 1875889, Control_c, 0, 64, 124
1, 1875944, Note_on_c, 0, 58, 0
1, 1875954, Note_on_c, 0, 55, 45
1, 1875966, Note_on_c, 0, 72, 49
1, 1875995, Note_on_c, 0, 55, 0
1, 1876040, Note_on_c, 0, 73, 0
1, 1876203, Note_on_c, 0, 85, 56
1, 1876208, Note_on_c, 0, 70, 53
1, 1876447, Note_on_c, 0, 72, 0
1, 1876447, Poly_aftertouch_c, 0, 85, 24
1, 1876449, Note_on_c, 0, 84, 61
1, 1876450, Note_on_c, 0, 67, 51
1, 1876456, Note_on_c, 0, 63, 0
1, 1876470, Note_on_c, 0, 85, 0
1, 1876470, Poly_aftertouch_c, 0, 85, 0
1, 1876688, Note_on_c, 0, 63, 54
1, 1876712, Note_on_c, 0, 82, 55
1, 1876730, Note_on_c, 0, 73, 45
1, 1876758, Note_on_c, 0, 70, 0
1, 1876776, Note_on_c, 0, 84, 0
1, 1876791, Note_on_c, 0, 67, 0
1, 1876940, Note_on_c, 0, 82, 0
1, 1876961, Note_on_c, 0, 73, 0
1, 1876969, Note_on_c, 0, 79, 42
1, 1877003, Note_on_c, 0, 72, 39
1, 1877010, Note_on_c, 0, 79, 0
1, 1877222, Note_on_c, 0, 61, 61
1, 1877228, Note_on_c, 0, 70, 47
1, 1877236, Note_on_c, 0, 63, 0
1, 1877245, Note_on_c, 0, 72, 0
1, 1877340, Note_on_c, 0, 70, 0
1, 1877455, Note_on_c, 0, 67, 49
1, 1877478, Note_on_c, 0, 60, 67
1, 1877489, Note_on_c, 0, 67, 0
1, 1877556, Note_on_c, 0, 61, 0
1, 1877837, Note_on_c, 0, 49, 56
1, 1877866, Note_on_c, 0, 58, 58
1, 1877937, Control_c, 0, 64, 110
1, 1877946, Note_on_c, 0, 60, 0
1, 1877955, Control_c, 0, 64, 91
1, 1877972, Control_c, 0, 64, 71
1, 1877993, Control_c, 0, 64, 57
1, 1878009, Control_c, 0, 64, 51
1, 1878066, Control_c, 0, 64, 49
1, 1878103, Control_c, 0, 64, 46
1, 1878251, Control_c, 0, 64, 44
1, 1878262, Note_on_c, 0, 55, 47
1, 1878311, Note_on_c, 0, 58, 0
1, 1878404, Note_on_c, 0, 48, 68
1, 1878430, Note_on_c, 0, 55, 0
1, 1878541, Note_on_c, 0, 49, 0
1, 1879024, Note_on_c, 0, 46, 54
1, 1879148, Note_on_c, 0, 48, 0
1, 1879167, Control_c, 0, 64, 42
1, 1879206, Control_c, 0, 64, 40
1, 1879261, Control_c, 0, 64, 35
1, 1879315, Control_c, 0, 64, 30
1, 1879391, Control_c, 0, 64, 26
1, 1879694, Note_on_c, 0, 43, 46
1, 1879775, Note_on_c, 0, 46, 0
1, 1880109, Note_on_c, 0, 51, 47
1, 1880155, Note_on_c, 0, 51, 0
1, 1880315, Note_on_c, 0, 43, 0
1, 1880340, Note_on_c, 0, 63, 62
1, 1880341, Note_on_c, 0, 36, 49
1, 1880344, Note_on_c, 0, 56, 64
1, 1880356, Note_on_c, 0, 48, 45
1, 1880372, Note_on_c, 0, 56, 0
1, 1880377, Note_on_c, 0, 63, 0
1, 1880689, Note_on_c, 0, 48, 0
1, 1880728, Note_on_c, 0, 63, 67
1, 1880733, Note_on_c, 0, 56, 63
1, 1880768, Note_on_c, 0, 56, 0
1, 1880769, Note_on_c, 0, 63, 0
1, 1880969, Note_on_c, 0, 65, 72
1, 1880971, Note_on_c, 0, 34, 57
1, 1880973, Note_on_c, 0, 46, 56
1, 1880983, Note_on_c, 0, 56, 63
1, 1880988, Note_on_c, 0, 61, 52
1, 1881006, Note_on_c, 0, 56, 0
1, 1881011, Note_on_c, 0, 36, 0
1, 1881019, Note_on_c, 0, 65, 0
1, 1881019, Note_on_c, 0, 61, 0
1, 1881262, Control_c, 0, 67, 119
1, 1881299, Control_c, 0, 67, 109
1, 1881317, Control_c, 0, 67, 99
1, 1881336, Control_c, 0, 67, 84
1, 1881353, Control_c, 0, 67, 66
1, 1881357, Note_on_c, 0, 61, 61
1, 1881357, Note_on_c, 0, 65, 60
1, 1881362, Note_on_c, 0, 56, 56
1, 1881372, Control_c, 0, 67, 45
1, 1881389, Note_on_c, 0, 56, 0
1, 1881390, Control_c, 0, 67, 26
1, 1881392, Note_on_c, 0, 61, 0
1, 1881397, Note_on_c, 0, 65, 0
1, 1881410, Control_c, 0, 67, 9
1, 1881429, Control_c, 0, 67, 0
1, 1881445, Note_on_c, 0, 46, 0
1, 1881617, Note_on_c, 0, 56, 65
1, 1881622, Note_on_c, 0, 60, 71
1, 1881630, Note_on_c, 0, 32, 56
1, 1881631, Note_on_c, 0, 44, 61
1, 1881634, Note_on_c, 0, 34, 0
1, 1881665, Note_on_c, 0, 60, 0
1, 1881670, Note_on_c, 0, 56, 0
1, 1881885, Note_on_c, 0, 61, 59
1, 1881887, Note_on_c, 0, 44, 0
1, 1881925, Note_on_c, 0, 58, 9
1, 1881954, Note_on_c, 0, 58, 0
1, 1881971, Note_on_c, 0, 63, 71
1, 1881979, Note_on_c, 0, 60, 54
1, 1881987, Note_on_c, 0, 61, 0
1, 1882013, Note_on_c, 0, 60, 0
1, 1882023, Note_on_c, 0, 63, 0
1, 1882178, Control_c, 0, 64, 22
1, 1882197, Control_c, 0, 64, 15
1, 1882206, Note_on_c, 0, 39, 52
1, 1882219, Note_on_c, 0, 27, 49
1, 1882234, Control_c, 0, 64, 0
1, 1882254, Note_on_c, 0, 32, 0
1, 1882326, Control_c, 0, 64, 16
1, 1882345, Control_c, 0, 64, 33
1, 1882364, Control_c, 0, 64, 47
1, 1882382, Control_c, 0, 64, 67
1, 1882401, Control_c, 0, 64, 81
1, 1882420, Control_c, 0, 64, 92
1, 1882439, Control_c, 0, 64, 104
1, 1882466, Control_c, 0, 64, 117
1, 1882483, Control_c, 0, 64, 126
1, 1882538, Note_on_c, 0, 27, 0
1, 1882622, Note_on_c, 0, 39, 0
1, 1882630, Note_on_c, 0, 63, 66
1, 1882956, Note_on_c, 0, 47, 49
1, 1882969, Note_on_c, 0, 57, 43
1, 1882970, Note_on_c, 0, 35, 43
1, 1883061, Control_c, 0, 64, 108
1, 1883079, Control_c, 0, 64, 75
1, 1883096, Control_c, 0, 64, 46
1, 1883114, Control_c, 0, 64, 41
1, 1883133, Control_c, 0, 64, 47
1, 1883152, Control_c, 0, 64, 59
1, 1883170, Control_c, 0, 64, 70
1, 1883189, Control_c, 0, 64, 84
1, 1883205, Control_c, 0, 64, 104
1, 1883225, Control_c, 0, 64, 125
1, 1883374, Note_on_c, 0, 47, 0
1, 1883420, Note_on_c, 0, 65, 65
1, 1883487, Note_on_c, 0, 57, 0
1, 1883490, Note_on_c, 0, 63, 0
1, 1883730, Note_on_c, 0, 46, 39
1, 1883732, Note_on_c, 0, 34, 44
1, 1883762, Note_on_c, 0, 58, 51
1, 1883764, Note_on_c, 0, 66, 58
1, 1883818, Note_on_c, 0, 65, 0
1, 1883883, Control_c, 0, 64, 96
1, 1883902, Control_c, 0, 64, 61
1, 1883906, Note_on_c, 0, 35, 0
1, 1883921, Control_c, 0, 64, 35
1, 1883976, Control_c, 0, 64, 51
1, 1883993, Control_c, 0, 64, 68
1, 1884012, Control_c, 0, 64, 83
1, 1884031, Control_c, 0, 64, 104
1, 1884048, Control_c, 0, 64, 127
1, 1884238, Note_on_c, 0, 46, 0
1, 1884313, Note_on_c, 0, 65, 54
1, 1884428, Note_on_c, 0, 58, 0
1, 1884661, Note_on_c, 0, 63, 55
1, 1884666, Note_on_c, 0, 32, 32
1, 1884672, Note_on_c, 0, 44, 29
1, 1884673, Note_on_c, 0, 59, 44
1, 1884709, Poly_aftertouch_c, 0, 66, 24
1, 1884744, Control_c, 0, 64, 104
1, 1884749, Note_on_c, 0, 66, 0
1, 1884749, Poly_aftertouch_c, 0, 66, 0
1, 1884750, Note_on_c, 0, 34, 0
1, 1884763, Control_c, 0, 64, 73
1, 1884775, Note_on_c, 0, 65, 0
1, 1884781, Control_c, 0, 64, 46
1, 1884799, Control_c, 0, 64, 43
1, 1884838, Control_c, 0, 64, 51
1, 1884856, Control_c, 0, 64, 63
1, 1884875, Control_c, 0, 64, 73
1, 1884892, Control_c, 0, 64, 88
1, 1884910, Control_c, 0, 64, 110
1, 1884929, Control_c, 0, 64, 127
1, 1885239, Note_on_c, 0, 32, 0
1, 1885271, Note_on_c, 0, 44, 0
1, 1885343, Note_on_c, 0, 65, 54
1, 1885458, Note_on_c, 0, 59, 0
1, 1885494, Note_on_c, 0, 63, 0
1, 1886054, Note_on_c, 0, 33, 36
1, 1886075, Note_on_c, 0, 45, 31
1, 1886086, Note_on_c, 0, 60, 38
1, 1886100, Note_on_c, 0, 66, 57
1, 1886160, Note_on_c, 0, 65, 0
1, 1886284, Control_c, 0, 64, 121
1, 1886300, Control_c, 0, 64, 94
1, 1886320, Control_c, 0, 64, 64
1, 1886338, Control_c, 0, 64, 38
1, 1886357, Control_c, 0, 64, 31
1, 1886393, Control_c, 0, 64, 27
1, 1886448, Control_c, 0, 64, 37
1, 1886467, Control_c, 0, 64, 53
1, 1886486, Control_c, 0, 64, 66
1, 1886505, Control_c, 0, 64, 79
1, 1886523, Control_c, 0, 64, 96
1, 1886543, Control_c, 0, 64, 118
1, 1886561, Control_c, 0, 64, 127
1, 1886976, Note_on_c, 0, 45, 0
1, 1887070, Note_on_c, 0, 33, 0
1, 1887189, Note_on_c, 0, 60, 0
1, 1887872, Note_on_c, 0, 43, 103
1, 1887875, Note_on_c, 0, 31, 84
1, 1887890, Note_on_c, 0, 60, 99
1, 1887901, Note_on_c, 0, 31, 0
1, 1887922, Note_on_c, 0, 43, 0
1, 1887945, Note_on_c, 0, 66, 0
1, 1888092, Poly_aftertouch_c, 0, 31, 0
1, 1888153, Note_on_c, 0, 72, 90
1, 1888155, Note_on_c, 0, 51, 106
1, 1888155, Note_on_c, 0, 63, 93
1, 1888158, Note_on_c, 0, 39, 84
1, 1888174, Note_on_c, 0, 60, 0
1, 1888191, Note_on_c, 0, 72, 0
1, 1888197, Note_on_c, 0, 63, 0
1, 1888210, Control_c, 0, 64, 122
1, 1888220, Note_on_c, 0, 51, 0
1, 1888227, Control_c, 0, 64, 90
1, 1888230, Note_on_c, 0, 39, 0
1, 1888247, Control_c, 0, 64, 62
1, 1888263, Control_c, 0, 64, 51
1, 1888367, Poly_aftertouch_c, 0, 43, 0
1, 1888405, Note_on_c, 0, 50, 98
1, 1888409, Note_on_c, 0, 38, 85
1, 1888467, Note_on_c, 0, 50, 0
1, 1888476, Note_on_c, 0, 38, 0
1, 1888483, Note_on_c, 0, 60, 80
1, 1888503, Note_on_c, 0, 67, 75
1, 1888596, Note_on_c, 0, 55, 86
1, 1888607, Note_on_c, 0, 67, 0
1, 1888610, Note_on_c, 0, 63, 75
1, 1888617, Note_on_c, 0, 48, 102
1, 1888624, Note_on_c, 0, 60, 0
1, 1888626, Note_on_c, 0, 36, 93
1, 1888640, Note_on_c, 0, 63, 0
1, 1888655, Note_on_c, 0, 55, 0
1, 1888659, Note_on_c, 0, 36, 0
1, 1888662, Note_on_c, 0, 48, 0
1, 1888860, Note_on_c, 0, 43, 104
1, 1888863, Note_on_c, 0, 51, 85
1, 1888866, Note_on_c, 0, 60, 82
1, 1888869, Note_on_c, 0, 31, 96
1, 1888900, Note_on_c, 0, 31, 0
1, 1888904, Note_on_c, 0, 43, 0
1, 1888929, Note_on_c, 0, 51, 0
1, 1888945, Note_on_c, 0, 60, 0
1, 1889071, Poly_aftertouch_c, 0, 31, 0
1, 1889116, Note_on_c, 0, 55, 86
1, 1889123, Note_on_c, 0, 48, 80
1, 1889123, Note_on_c, 0, 39, 101
1, 1889126, Note_on_c, 0, 27, 97
1, 1889159, Note_on_c, 0, 48, 0
1, 1889159, Note_on_c, 0, 39, 0
1, 1889166, Note_on_c, 0, 55, 0
1, 1889167, Note_on_c, 0, 27, 0
1, 1889412, Note_on_c, 0, 48, 81
1, 1889414, Note_on_c, 0, 51, 87
1, 1889415, Note_on_c, 0, 41, 105
1, 1889424, Note_on_c, 0, 29, 93
1, 1889456, Note_on_c, 0, 48, 0
1, 1889459, Note_on_c, 0, 29, 0
1, 1889462, Note_on_c, 0, 41, 0
1, 1889472, Note_on_c, 0, 51, 0
1, 1889798, Note_on_c, 0, 43, 105
1, 1889803, Note_on_c, 0, 50, 95
1, 1889808, Note_on_c, 0, 31, 90
1, 1889809, Note_on_c, 0, 48, 93
1, 1890099, Control_c, 0, 64, 58
1, 1890118, Control_c, 0, 64, 66
1, 1890135, Control_c, 0, 64, 75
1, 1890154, Control_c, 0, 64, 86
1, 1890173, Control_c, 0, 64, 101
1, 1890190, Control_c, 0, 64, 116
1, 1890209, Control_c, 0, 64, 127
1, 1890789, Note_on_c, 0, 47, 96
1, 1890836, Note_on_c, 0, 48, 0
1, 1890904, Control_c, 0, 64, 107
1, 1890923, Control_c, 0, 64, 76
1, 1890941, Control_c, 0, 64, 42
1, 1890960, Control_c, 0, 64, 18
1, 1890980, Control_c, 0, 64, 12
1, 1891016, Control_c, 0, 64, 0
1, 1891070, Control_c, 0, 64, 25
1, 1891089, Control_c, 0, 64, 44
1, 1891108, Control_c, 0, 64, 61
1, 1891126, Control_c, 0, 64, 76
1, 1891146, Control_c, 0, 64, 89
1, 1891164, Control_c, 0, 64, 103
1, 1891184, Control_c, 0, 64, 117
1, 1891201, Control_c, 0, 64, 127
1, 1891535, Note_on_c, 0, 43, 0
1, 1891960, Note_on_c, 0, 36, 87
1, 1891961, Note_on_c, 0, 48, 93
1, 1891961, Note_on_c, 0, 43, 95
1, 1891963, Note_on_c, 0, 52, 93
1, 1892000, Note_on_c, 0, 47, 0
1, 1892024, Control_c, 0, 64, 106
1, 1892025, Note_on_c, 0, 31, 0
1, 1892028, Note_on_c, 0, 50, 0
1, 1892043, Control_c, 0, 64, 68
1, 1892062, Control_c, 0, 64, 21
1, 1892063, Control_c, 0, 67, 8
1, 1892081, Control_c, 0, 64, 0
1, 1892083, Control_c, 0, 67, 16
1, 1892099, Control_c, 0, 67, 27
1, 1892118, Control_c, 0, 67, 39
1, 1892136, Control_c, 0, 67, 48
1, 1892156, Control_c, 0, 67, 52
1, 1892284, Control_c, 0, 67, 47
1, 1892322, Control_c, 0, 67, 40
1, 1892340, Control_c, 0, 67, 30
1, 1892359, Control_c, 0, 67, 14
1, 1892376, Control_c, 0, 67, 0
1, 1892414, Control_c, 0, 64, 8
1, 1892432, Control_c, 0, 64, 20
1, 1892451, Control_c, 0, 64, 25
1, 1892489, Control_c, 0, 64, 32
1, 1892507, Control_c, 0, 64, 37
1, 1892527, Control_c, 0, 64, 43
1, 1892545, Control_c, 0, 64, 55
1, 1892562, Control_c, 0, 64, 66
1, 1892580, Control_c, 0, 64, 70
1, 1892600, Control_c, 0, 64, 73
1, 1892618, Control_c, 0, 64, 80
1, 1892636, Control_c, 0, 64, 91
1, 1892655, Control_c, 0, 64, 103
1, 1892674, Control_c, 0, 64, 113
1, 1892692, Control_c, 0, 64, 119
1, 1892711, Control_c, 0, 64, 123
1, 1892729, Control_c, 0, 64, 127
1, 1893490, Note_on_c, 0, 43, 0
1, 1893496, Note_on_c, 0, 48, 0
1, 1893497, Note_on_c, 0, 52, 0
1, 1893522, Note_on_c, 0, 36, 0
1, 1893591, Control_c, 0, 64, 107
1, 1893610, Control_c, 0, 64, 78
1, 1893628, Control_c, 0, 64, 51
1, 1893646, Control_c, 0, 64, 35
1, 1893684, Control_c, 0, 64, 30
1, 1893748, Control_c, 0, 64, 25
1, 1893841, Control_c, 0, 64, 20
1, 1893933, Control_c, 0, 64, 16
1, 1894008, Control_c, 0, 64, 20
1, 1894026, Control_c, 0, 64, 39
1, 1894026, Note_on_c, 0, 48, 67
1, 1894042, Note_on_c, 0, 60, 81
1, 1894046, Control_c, 0, 64, 57
1, 1894058, Note_on_c, 0, 50, 71
1, 1894064, Control_c, 0, 64, 76
1, 1894081, Control_c, 0, 64, 91
1, 1894098, Control_c, 0, 64, 108
1, 1894098, Note_on_c, 0, 62, 81
1, 1894115, Note_on_c, 0, 60, 0
1, 1894118, Control_c, 0, 64, 124
1, 1894124, Note_on_c, 0, 48, 0
1, 1894135, Note_on_c, 0, 52, 80
1, 1894163, Note_on_c, 0, 64, 75
1, 1894164, Note_on_c, 0, 62, 0
1, 1894172, Note_on_c, 0, 53, 77
1, 1894175, Note_on_c, 0, 50, 0
1, 1894204, Note_on_c, 0, 64, 0
1, 1894204, Note_on_c, 0, 52, 0
1, 1894234, Note_on_c, 0, 55, 73
1, 1894235, Note_on_c, 0, 65, 82
1, 1894236, Note_on_c, 0, 53, 0
1, 1894294, Note_on_c, 0, 55, 0
1, 1894315, Note_on_c, 0, 67, 84
1, 1894318, Note_on_c, 0, 57, 78
1, 1894319, Note_on_c, 0, 65, 0
1, 1894341, Note_on_c, 0, 71, 80
1, 1894367, Note_on_c, 0, 57, 0
1, 1894372, Note_on_c, 0, 59, 42
1, 1894386, Note_on_c, 0, 67, 0
1, 1894407, Note_on_c, 0, 72, 103
1, 1894415, Note_on_c, 0, 60, 102
1, 1894417, Note_on_c, 0, 59, 0
1, 1894420, Note_on_c, 0, 71, 0
1, 1894440, Note_on_c, 0, 72, 0
1, 1894442, Note_on_c, 0, 60, 0
1, 1894447, Note_on_c, 0, 58, 43
1, 1894448, Note_on_c, 0, 58, 0
1, 1894449, Control_c, 0, 64, 108
1, 1894471, Control_c, 0, 64, 71
1, 1894490, Poly_aftertouch_c, 0, 58, 0
1, 1894490, Control_c, 0, 64, 38
1, 1894508, Control_c, 0, 64, 31
1, 1894879, Note_on_c, 0, 73, 90
1, 1894879, Note_on_c, 0, 58, 92
1, 1894879, Note_on_c, 0, 61, 95
1, 1894885, Note_on_c, 0, 70, 88
1, 1894925, Control_c, 0, 64, 25
1, 1894944, Control_c, 0, 64, 0
1, 1895017, Control_c, 0, 64, 41
1, 1895035, Control_c, 0, 64, 78
1, 1895055, Control_c, 0, 64, 112
1, 1895073, Control_c, 0, 64, 127
1, 1895098, Note_on_c, 0, 70, 0
1, 1895151, Note_on_c, 0, 73, 0
1, 1895180, Note_on_c, 0, 61, 0
1, 1895242, Note_on_c, 0, 58, 0
1, 1895290, Note_on_c, 0, 60, 95
1, 1895292, Note_on_c, 0, 72, 84
1, 1895295, Control_c, 0, 64, 114
1, 1895296, Note_on_c, 0, 68, 83
1, 1895298, Note_on_c, 0, 56, 82
1, 1895315, Control_c, 0, 64, 79
1, 1895331, Note_on_c, 0, 60, 0
1, 1895332, Control_c, 0, 64, 47
1, 1895334, Note_on_c, 0, 56, 0
1, 1895334, Note_on_c, 0, 68, 0
1, 1895339, Note_on_c, 0, 72, 0
1, 1895352, Control_c, 0, 64, 30
1, 1895492, Note_on_c, 0, 70, 93
1, 1895492, Note_on_c, 0, 67, 89
1, 1895502, Note_on_c, 0, 58, 83
1, 1895502, Note_on_c, 0, 55, 86
1, 1895523, Note_on_c, 0, 67, 0
1, 1895527, Note_on_c, 0, 58, 0
1, 1895539, Note_on_c, 0, 55, 0
1, 1895540, Note_on_c, 0, 70, 0
1, 1895573, Note_on_c, 0, 57, 20
1, 1895574, Note_on_c, 0, 57, 0
1, 1895754, Note_on_c, 0, 53, 87
1, 1895759, Note_on_c, 0, 56, 91
1, 1895763, Note_on_c, 0, 68, 98
1, 1895767, Note_on_c, 0, 65, 87
1, 1895793, Note_on_c, 0, 53, 0
1, 1895807, Note_on_c, 0, 56, 0
1, 1895808, Note_on_c, 0, 65, 0
1, 1895817, Note_on_c, 0, 68, 0
1, 1896066, Note_on_c, 0, 70, 85
1, 1896070, Note_on_c, 0, 58, 80
1, 1896072, Note_on_c, 0, 67, 73
1, 1896081, Note_on_c, 0, 55, 62
1, 1896100, Note_on_c, 0, 67, 0
1, 1896107, Note_on_c, 0, 58, 0
1, 1896111, Note_on_c, 0, 55, 0
1, 1896117, Note_on_c, 0, 70, 0
1, 1896143, Note_on_c, 0, 60, 101
1, 1896154, Note_on_c, 0, 68, 88
1, 1896158, Note_on_c, 0, 56, 85
1, 1896159, Note_on_c, 0, 72, 83
1, 1896214, Control_c, 0, 64, 47
1, 1896232, Control_c, 0, 64, 65
1, 1896249, Note_on_c, 0, 60, 0
1, 1896251, Control_c, 0, 64, 89
1, 1896268, Note_on_c, 0, 56, 0
1, 1896269, Control_c, 0, 64, 127
1, 1896330, Note_on_c, 0, 72, 0
1, 1896345, Note_on_c, 0, 68, 0
1, 1896399, Control_c, 0, 64, 112
1, 1896417, Control_c, 0, 64, 78
1, 1896436, Control_c, 0, 64, 48
1, 1896455, Control_c, 0, 64, 30
1, 1896519, Control_c, 0, 64, 26
1, 1896939, Note_on_c, 0, 48, 88
1, 1897136, Note_on_c, 0, 51, 80
1, 1897137, Note_on_c, 0, 56, 80
1, 1897138, Note_on_c, 0, 60, 90
1, 1897140, Note_on_c, 0, 44, 97
1, 1897146, Note_on_c, 0, 32, 81
1, 1897152, Note_on_c, 0, 48, 0
1, 1897169, Note_on_c, 0, 58, 54
1, 1897171, Note_on_c, 0, 51, 0
1, 1897171, Note_on_c, 0, 44, 0
1, 1897173, Note_on_c, 0, 32, 0
1, 1897181, Note_on_c, 0, 56, 0
1, 1897192, Note_on_c, 0, 60, 0
1, 1897200, Note_on_c, 0, 58, 0
1, 1897639, Control_c, 0, 64, 37
1, 1897651, Note_on_c, 0, 61, 96
1, 1897658, Note_on_c, 0, 37, 99
1, 1897658, Control_c, 0, 64, 56
1, 1897659, Note_on_c, 0, 25, 86
1, 1897664, Note_on_c, 0, 56, 87
1, 1897666, Note_on_c, 0, 53, 85
1, 1897678, Control_c, 0, 64, 79
1, 1897695, Control_c, 0, 64, 106
1, 1897708, Note_on_c, 0, 25, 0
1, 1897714, Control_c, 0, 64, 127
1, 1897718, Note_on_c, 0, 37, 0
1, 1897775, Note_on_c, 0, 53, 0
1, 1897814, Poly_aftertouch_c, 0, 31, 0
1, 1897847, Note_on_c, 0, 61, 0
1, 1897869, Note_on_c, 0, 56, 0
1, 1898103, Control_c, 0, 64, 106
1, 1898113, Note_on_c, 0, 60, 82
1, 1898117, Note_on_c, 0, 49, 83
1, 1898122, Control_c, 0, 64, 77
1, 1898122, Note_on_c, 0, 39, 90
1, 1898122, Note_on_c, 0, 55, 76
1, 1898126, Note_on_c, 0, 27, 73
1, 1898129, Note_on_c, 0, 59, 67
1, 1898143, Control_c, 0, 64, 53
1, 1898150, Note_on_c, 0, 49, 0
1, 1898155, Note_on_c, 0, 59, 0
1, 1898158, Control_c, 0, 64, 43
1, 1898165, Note_on_c, 0, 39, 0
1, 1898168, Note_on_c, 0, 55, 0
1, 1898170, Note_on_c, 0, 60, 0
1, 1898177, Note_on_c, 0, 27, 0
1, 1898269, Control_c, 0, 64, 41
1, 1898317, Note_on_c, 0, 58, 91
1, 1898323, Note_on_c, 0, 49, 81
1, 1898325, Note_on_c, 0, 39, 92
1, 1898326, Note_on_c, 0, 55, 79
1, 1898328, Note_on_c, 0, 27, 76
1, 1898356, Note_on_c, 0, 49, 0
1, 1898356, Note_on_c, 0, 27, 0
1, 1898363, Note_on_c, 0, 55, 0
1, 1898387, Note_on_c, 0, 39, 0
1, 1898408, Note_on_c, 0, 58, 0
1, 1898574, Note_on_c, 0, 44, 97
1, 1898576, Note_on_c, 0, 56, 89
1, 1898584, Note_on_c, 0, 32, 76
1, 1898585, Note_on_c, 0, 48, 83
1, 1898615, Note_on_c, 0, 32, 0
1, 1898620, Note_on_c, 0, 48, 0
1, 1898620, Note_on_c, 0, 44, 0
1, 1898662, Note_on_c, 0, 56, 0
1, 1898892, Note_on_c, 0, 58, 80
1, 1898904, Note_on_c, 0, 51, 70
1, 1898912, Note_on_c, 0, 32, 71
1, 1898936, Note_on_c, 0, 51, 0
1, 1898963, Note_on_c, 0, 58, 0
1, 1898975, Note_on_c, 0, 56, 82
1, 1898975, Note_on_c, 0, 60, 90
1, 1898980, Note_on_c, 0, 44, 89
1, 1898982, Control_c, 0, 64, 34
1, 1898995, Note_on_c, 0, 32, 0
1, 1899001, Control_c, 0, 64, 28
1, 1899020, Control_c, 0, 64, 23
1, 1899077, Control_c, 0, 64, 29
1, 1899085, Note_on_c, 0, 44, 0
1, 1899095, Control_c, 0, 64, 47
1, 1899113, Control_c, 0, 64, 67
1, 1899130, Control_c, 0, 64, 88
1, 1899149, Control_c, 0, 64, 116
1, 1899156, Note_on_c, 0, 60, 0
1, 1899168, Control_c, 0, 64, 127
1, 1899197, Note_on_c, 0, 56, 0
1, 1899280, Control_c, 0, 64, 104
1, 1899300, Control_c, 0, 64, 79
1, 1899309, Control_c, 0, 67, 9
1, 1899325, Control_c, 0, 64, 59
1, 1899344, Control_c, 0, 64, 50
1, 1899346, Control_c, 0, 67, 17
1, 1899362, Control_c, 0, 67, 21
1, 1899381, Control_c, 0, 67, 26
1, 1899401, Control_c, 0, 67, 32
1, 1899419, Control_c, 0, 67, 40
1, 1899438, Control_c, 0, 64, 48
1, 1899439, Control_c, 0, 67, 46
1, 1899456, Control_c, 0, 67, 51
1, 1899475, Control_c, 0, 67, 55
1, 1899510, Control_c, 0, 67, 61
1, 1899548, Control_c, 0, 67, 69
1, 1899566, Control_c, 0, 67, 74
1, 1899585, Control_c, 0, 64, 46
1, 1899587, Control_c, 0, 67, 82
1, 1899605, Control_c, 0, 67, 93
1, 1899623, Control_c, 0, 67, 106
1, 1899642, Control_c, 0, 67, 117
1, 1899660, Control_c, 0, 67, 123
1, 1899678, Control_c, 0, 67, 127
1, 1899680, Note_on_c, 0, 56, 58
1, 1899888, Note_on_c, 0, 66, 69
1, 1899889, Note_on_c, 0, 56, 0
1, 1899894, Note_on_c, 0, 58, 61
1, 1899901, Note_on_c, 0, 61, 51
1, 1899903, Note_on_c, 0, 42, 60
1, 1899909, Note_on_c, 0, 30, 55
1, 1899920, Note_on_c, 0, 58, 0
1, 1899931, Note_on_c, 0, 66, 0
1, 1899936, Note_on_c, 0, 61, 0
1, 1900104, Control_c, 0, 64, 44
1, 1900280, Control_c, 0, 64, 49
1, 1900298, Control_c, 0, 64, 57
1, 1900317, Control_c, 0, 64, 65
1, 1900326, Note_on_c, 0, 70, 75
1, 1900334, Note_on_c, 0, 66, 62
1, 1900336, Control_c, 0, 64, 75
1, 1900340, Note_on_c, 0, 58, 63
1, 1900353, Note_on_c, 0, 42, 0
1, 1900354, Control_c, 0, 64, 90
1, 1900373, Control_c, 0, 64, 109
1, 1900392, Control_c, 0, 64, 127
1, 1900500, Note_on_c, 0, 66, 0
1, 1900501, Control_c, 0, 67, 122
1, 1900520, Control_c, 0, 67, 116
1, 1900522, Note_on_c, 0, 70, 0
1, 1900535, Note_on_c, 0, 32, 65
1, 1900536, Note_on_c, 0, 44, 69
1, 1900538, Note_on_c, 0, 58, 0
1, 1900540, Control_c, 0, 67, 110
1, 1900550, Note_on_c, 0, 30, 0
1, 1900556, Control_c, 0, 67, 100
1, 1900575, Control_c, 0, 67, 83
1, 1900594, Control_c, 0, 64, 116
1, 1900595, Control_c, 0, 67, 58
1, 1900613, Control_c, 0, 64, 92
1, 1900614, Control_c, 0, 67, 32
1, 1900632, Control_c, 0, 64, 69
1, 1900649, Control_c, 0, 64, 54
1, 1900651, Control_c, 0, 67, 0
1, 1900668, Control_c, 0, 64, 51
1, 1900730, Note_on_c, 0, 68, 73
1, 1900739, Note_on_c, 0, 56, 61
1, 1900740, Note_on_c, 0, 65, 60
1, 1900741, Control_c, 0, 64, 49
1, 1900766, Note_on_c, 0, 68, 0
1, 1900775, Note_on_c, 0, 56, 0
1, 1900776, Note_on_c, 0, 65, 0
1, 1900883, Note_on_c, 0, 44, 0
1, 1900928, Note_on_c, 0, 66, 81
1, 1900935, Note_on_c, 0, 54, 74
1, 1900943, Note_on_c, 0, 63, 66
1, 1900972, Note_on_c, 0, 54, 0
1, 1900977, Note_on_c, 0, 63, 0
1, 1900998, Note_on_c, 0, 66, 0
1, 1901185, Note_on_c, 0, 34, 69
1, 1901191, Note_on_c, 0, 65, 84
1, 1901194, Note_on_c, 0, 61, 80
1, 1901196, Note_on_c, 0, 46, 76
1, 1901202, Note_on_c, 0, 32, 0
1, 1901205, Note_on_c, 0, 53, 72
1, 1901232, Note_on_c, 0, 61, 0
1, 1901238, Note_on_c, 0, 53, 0
1, 1901262, Note_on_c, 0, 65, 0
1, 1901461, Note_on_c, 0, 63, 70
1, 1901486, Note_on_c, 0, 51, 41
1, 1901491, Note_on_c, 0, 60, 37
1, 1901532, Note_on_c, 0, 51, 0
1, 1901541, Note_on_c, 0, 60, 0
1, 1901546, Note_on_c, 0, 61, 76
1, 1901553, Note_on_c, 0, 49, 73
1, 1901554, Note_on_c, 0, 58, 75
1, 1901561, Note_on_c, 0, 63, 0
1, 1901590, Note_on_c, 0, 49, 0
1, 1901598, Note_on_c, 0, 58, 0
1, 1901621, Note_on_c, 0, 61, 0
1, 1901638, Note_on_c, 0, 34, 0
1, 1901661, Note_on_c, 0, 46, 0
1, 1901698, Control_c, 0, 64, 45
1, 1901715, Control_c, 0, 64, 41
1, 1901735, Control_c, 0, 64, 34
1, 1901751, Control_c, 0, 64, 26
1, 1901771, Control_c, 0, 64, 20
1, 1901794, Note_on_c, 0, 48, 81
1, 1901800, Note_on_c, 0, 36, 76
1, 1901864, Control_c, 0, 64, 25
1, 1901884, Control_c, 0, 64, 42
1, 1901901, Control_c, 0, 64, 57
1, 1901920, Control_c, 0, 64, 73
1, 1901939, Control_c, 0, 64, 91
1, 1901956, Control_c, 0, 64, 117
1, 1901975, Control_c, 0, 64, 127
1, 1902160, Note_on_c, 0, 63, 86
1, 1902167, Note_on_c, 0, 56, 77
1, 1902168, Note_on_c, 0, 48, 0
1, 1902175, Note_on_c, 0, 51, 75
1, 1902219, Note_on_c, 0, 56, 0
1, 1902229, Note_on_c, 0, 51, 0
1, 1902277, Note_on_c, 0, 63, 0
1, 1902393, Control_c, 0, 64, 108
1, 1902393, Note_on_c, 0, 61, 87
1, 1902395, Note_on_c, 0, 65, 82
1, 1902396, Note_on_c, 0, 37, 82
1, 1902396, Note_on_c, 0, 53, 81
1, 1902407, Note_on_c, 0, 49, 90
1, 1902411, Control_c, 0, 64, 71
1, 1902424, Note_on_c, 0, 61, 0
1, 1902426, Note_on_c, 0, 36, 0
1, 1902426, Note_on_c, 0, 53, 0
1, 1902426, Control_c, 0, 64, 36
1, 1902446, Control_c, 0, 64, 24
1, 1902452, Note_on_c, 0, 65, 0
1, 1902485, Control_c, 0, 64, 16
1, 1902503, Control_c, 0, 64, 8
1, 1902520, Control_c, 0, 64, 0
1, 1902668, Control_c, 0, 64, 17
1, 1902688, Control_c, 0, 64, 32
1, 1902706, Control_c, 0, 64, 45
1, 1902725, Control_c, 0, 64, 60
1, 1902743, Control_c, 0, 64, 80
1, 1902758, Note_on_c, 0, 77, 88
1, 1902762, Note_on_c, 0, 73, 83
1, 1902763, Control_c, 0, 64, 100
1, 1902768, Note_on_c, 0, 65, 91
1, 1902782, Control_c, 0, 64, 125
1, 1902804, Note_on_c, 0, 37, 0
1, 1902806, Note_on_c, 0, 49, 0
1, 1902839, Note_on_c, 0, 75, 14
1, 1902870, Note_on_c, 0, 77, 0
1, 1902892, Note_on_c, 0, 65, 0
1, 1902897, Note_on_c, 0, 75, 0
1, 1902918, Note_on_c, 0, 73, 0
1, 1902969, Note_on_c, 0, 39, 85
1, 1902969, Note_on_c, 0, 51, 90
1, 1903068, Control_c, 0, 64, 103
1, 1903087, Control_c, 0, 64, 81
1, 1903104, Control_c, 0, 64, 62
1, 1903125, Control_c, 0, 64, 52
1, 1903142, Control_c, 0, 64, 49
1, 1903156, Note_on_c, 0, 63, 83
1, 1903161, Control_c, 0, 64, 47
1, 1903161, Note_on_c, 0, 75, 82
1, 1903161, Note_on_c, 0, 72, 78
1, 1903179, Control_c, 0, 64, 44
1, 1903197, Note_on_c, 0, 75, 0
1, 1903200, Control_c, 0, 64, 41
1, 1903202, Note_on_c, 0, 72, 0
1, 1903202, Note_on_c, 0, 63, 0
1, 1903340, Note_on_c, 0, 61, 89
1, 1903343, Note_on_c, 0, 73, 82
1, 1903346, Note_on_c, 0, 70, 80
1, 1903370, Note_on_c, 0, 61, 0
1, 1903370, Note_on_c, 0, 70, 0
1, 1903377, Note_on_c, 0, 73, 0
1, 1903426, Note_on_c, 0, 39, 0
1, 1903432, Note_on_c, 0, 51, 0
1, 1903560, Note_on_c, 0, 72, 87
1, 1903564, Note_on_c, 0, 60, 90
1, 1903566, Note_on_c, 0, 68, 85
1, 1903580, Note_on_c, 0, 41, 82
1, 1903581, Note_on_c, 0, 53, 87
1, 1903613, Note_on_c, 0, 60, 0
1, 1903617, Note_on_c, 0, 72, 0
1, 1903622, Note_on_c, 0, 68, 0
1, 1903812, Note_on_c, 0, 67, 81
1, 1903814, Note_on_c, 0, 58, 75
1, 1903815, Note_on_c, 0, 70, 66
1, 1903837, Note_on_c, 0, 58, 0
1, 1903849, Note_on_c, 0, 67, 0
1, 1903852, Note_on_c, 0, 70, 0
1, 1903897, Note_on_c, 0, 68, 78
1, 1903900, Note_on_c, 0, 56, 89
1, 1903905, Note_on_c, 0, 65, 81
1, 1903917, Note_on_c, 0, 41, 0
1, 1903943, Note_on_c, 0, 58, 21
1, 1903944, Note_on_c, 0, 58, 0
1, 1903967, Note_on_c, 0, 56, 0
1, 1903971, Note_on_c, 0, 53, 0
1, 1903975, Control_c, 0, 64, 37
1, 1904003, Poly_aftertouch_c, 0, 70, 0
1, 1904007, Note_on_c, 0, 68, 0
1, 1904018, Note_on_c, 0, 65, 0
1, 1904020, Control_c, 0, 64, 30
1, 1904040, Control_c, 0, 64, 21
1, 1904059, Control_c, 0, 64, 0
1, 1904128, Note_on_c, 0, 55, 97
1, 1904129, Note_on_c, 0, 43, 85
1, 1904188, Control_c, 0, 67, 8
1, 1904206, Control_c, 0, 64, 25
1, 1904207, Control_c, 0, 67, 16
1, 1904227, Control_c, 0, 64, 44
1, 1904228, Control_c, 0, 67, 26
1, 1904245, Control_c, 0, 64, 66
1, 1904245, Control_c, 0, 67, 31
1, 1904263, Control_c, 0, 64, 87
1, 1904282, Control_c, 0, 64, 112
1, 1904299, Control_c, 0, 64, 127
1, 1904318, Control_c, 0, 67, 25
1, 1904336, Control_c, 0, 67, 21
1, 1904354, Control_c, 0, 67, 15
1, 1904375, Control_c, 0, 67, 8
1, 1904392, Control_c, 0, 67, 0
1, 1904480, Note_on_c, 0, 70, 93
1, 1904482, Note_on_c, 0, 58, 90
1, 1904484, Note_on_c, 0, 63, 89
1, 1904506, Note_on_c, 0, 43, 0
1, 1904570, Note_on_c, 0, 55, 0
1, 1904591, Note_on_c, 0, 58, 0
1, 1904626, Note_on_c, 0, 63, 0
1, 1904657, Note_on_c, 0, 70, 0
1, 1904700, Note_on_c, 0, 44, 80
1, 1904706, Note_on_c, 0, 60, 88
1, 1904707, Note_on_c, 0, 68, 90
1, 1904707, Note_on_c, 0, 72, 85
1, 1904712, Note_on_c, 0, 56, 101
1, 1904732, Note_on_c, 0, 60, 0
1, 1904744, Control_c, 0, 64, 116
1, 1904757, Note_on_c, 0, 68, 0
1, 1904762, Control_c, 0, 64, 83
1, 1904770, Note_on_c, 0, 72, 0
1, 1904782, Control_c, 0, 64, 50
1, 1904800, Control_c, 0, 64, 22
1, 1904816, Poly_aftertouch_c, 0, 70, 0
1, 1904818, Control_c, 0, 64, 12
1, 1904837, Control_c, 0, 64, 0
1, 1904994, Control_c, 0, 64, 22
1, 1905014, Control_c, 0, 64, 45
1, 1905032, Control_c, 0, 64, 69
1, 1905051, Control_c, 0, 64, 91
1, 1905070, Control_c, 0, 64, 113
1, 1905084, Note_on_c, 0, 84, 93
1, 1905087, Note_on_c, 0, 80, 87
1, 1905087, Note_on_c, 0, 72, 96
1, 1905088, Control_c, 0, 64, 127
1, 1905184, Note_on_c, 0, 44, 0
1, 1905193, Note_on_c, 0, 56, 0
1, 1905207, Note_on_c, 0, 84, 0
1, 1905238, Note_on_c, 0, 72, 0
1, 1905243, Note_on_c, 0, 80, 0
1, 1905279, Note_on_c, 0, 57, 99
1, 1905285, Note_on_c, 0, 45, 86
1, 1905405, Poly_aftertouch_c, 0, 46, 0
1, 1905445, Note_on_c, 0, 80, 93
1, 1905447, Note_on_c, 0, 68, 91
1, 1905453, Note_on_c, 0, 77, 81
1, 1905476, Control_c, 0, 64, 104
1, 1905493, Note_on_c, 0, 80, 0
1, 1905494, Control_c, 0, 64, 76
1, 1905500, Note_on_c, 0, 68, 0
1, 1905502, Note_on_c, 0, 77, 0
1, 1905513, Control_c, 0, 64, 48
1, 1905532, Control_c, 0, 64, 32
1, 1905570, Control_c, 0, 64, 28
1, 1905605, Control_c, 0, 64, 20
1, 1905623, Control_c, 0, 64, 15
1, 1905635, Note_on_c, 0, 78, 93
1, 1905641, Control_c, 0, 64, 11
1, 1905641, Note_on_c, 0, 66, 94
1, 1905641, Note_on_c, 0, 75, 92
1, 1905676, Note_on_c, 0, 75, 0
1, 1905680, Note_on_c, 0, 66, 0
1, 1905680, Control_c, 0, 64, 0
1, 1905692, Note_on_c, 0, 78, 0
1, 1905698, Note_on_c, 0, 57, 0
1, 1905859, Note_on_c, 0, 46, 89
1, 1905860, Note_on_c, 0, 58, 98
1, 1905871, Note_on_c, 0, 77, 98
1, 1905871, Note_on_c, 0, 65, 102
1, 1905875, Note_on_c, 0, 73, 97
1, 1905889, Note_on_c, 0, 45, 0
1, 1905913, Control_c, 0, 64, 8
1, 1905930, Control_c, 0, 64, 47
1, 1905949, Control_c, 0, 64, 80
1, 1905950, Note_on_c, 0, 65, 0
1, 1905969, Control_c, 0, 64, 106
1, 1905983, Note_on_c, 0, 77, 0
1, 1905985, Control_c, 0, 64, 127
1, 1906034, Note_on_c, 0, 73, 0
1, 1906336, Note_on_c, 0, 89, 105
1, 1906337, Note_on_c, 0, 77, 108
1, 1906340, Note_on_c, 0, 85, 103
1, 1906427, Note_on_c, 0, 46, 0
1, 1906461, Note_on_c, 0, 58, 0
1, 1906577, Control_c, 0, 64, 115
1, 1906585, Note_on_c, 0, 59, 106
1, 1906590, Note_on_c, 0, 47, 89
1, 1906596, Control_c, 0, 64, 71
1, 1906615, Control_c, 0, 64, 16
1, 1906618, Note_on_c, 0, 89, 0
1, 1906634, Control_c, 0, 64, 0
1, 1906690, Control_c, 0, 64, 37
1, 1906708, Control_c, 0, 64, 67
1, 1906726, Control_c, 0, 64, 92
1, 1906745, Control_c, 0, 64, 115
1, 1906750, Note_on_c, 0, 77, 0
1, 1906762, Control_c, 0, 64, 127
1, 1906766, Note_on_c, 0, 85, 0
1, 1906985, Note_on_c, 0, 47, 0
1, 1907053, Note_on_c, 0, 73, 101
1, 1907053, Note_on_c, 0, 85, 97
1, 1907055, Note_on_c, 0, 80, 93
1, 1907058, Note_on_c, 0, 77, 86
1, 1907101, Note_on_c, 0, 59, 0
1, 1907161, Note_on_c, 0, 73, 0
1, 1907162, Note_on_c, 0, 48, 86
1, 1907186, Note_on_c, 0, 77, 0
1, 1907190, Note_on_c, 0, 53, 80
1, 1907198, Note_on_c, 0, 85, 0
1, 1907205, Note_on_c, 0, 80, 0
1, 1907236, Control_c, 0, 64, 122
1, 1907255, Control_c, 0, 64, 91
1, 1907264, Note_on_c, 0, 56, 82
1, 1907273, Control_c, 0, 64, 57
1, 1907290, Control_c, 0, 64, 11
1, 1907309, Control_c, 0, 64, 0
1, 1907328, Control_c, 0, 67, 10
1, 1907367, Note_on_c, 0, 60, 101
1, 1907385, Control_c, 0, 64, 12
1, 1907403, Control_c, 0, 64, 51
1, 1907407, Note_on_c, 0, 72, 108
1, 1907407, Note_on_c, 0, 84, 97
1, 1907410, Note_on_c, 0, 80, 94
1, 1907411, Note_on_c, 0, 77, 98
1, 1907425, Control_c, 0, 64, 88
1, 1907441, Control_c, 0, 64, 122
1, 1907442, Control_c, 0, 67, 0
1, 1907447, Note_on_c, 0, 48, 0
1, 1907460, Note_on_c, 0, 60, 0
1, 1907460, Control_c, 0, 64, 127
1, 1907488, Note_on_c, 0, 53, 0
1, 1907494, Note_on_c, 0, 56, 0
1, 1907506, Note_on_c, 0, 72, 0
1, 1907520, Note_on_c, 0, 84, 0
1, 1907558, Note_on_c, 0, 77, 0
1, 1907600, Note_on_c, 0, 80, 0
1, 1907822, Note_on_c, 0, 36, 92
1, 1907877, Note_on_c, 0, 84, 108
1, 1907994, Note_on_c, 0, 96, 88
1, 1907995, Note_on_c, 0, 92, 94
1, 1908006, Note_on_c, 0, 98, 74
1, 1908028, Note_on_c, 0, 98, 0
1, 1908044, Note_on_c, 0, 84, 0
1, 1908115, Control_c, 0, 64, 73
1, 1908116, Note_on_c, 0, 94, 84
1, 1908122, Note_on_c, 0, 48, 111
1, 1908134, Control_c, 0, 64, 0
1, 1908138, Note_on_c, 0, 91, 84
1, 1908177, Note_on_c, 0, 96, 0
1, 1908191, Control_c, 0, 64, 33
1, 1908195, Note_on_c, 0, 92, 0
1, 1908209, Control_c, 0, 64, 71
1, 1908228, Control_c, 0, 64, 108
1, 1908238, Note_on_c, 0, 94, 0
1, 1908241, Note_on_c, 0, 82, 87
1, 1908245, Control_c, 0, 64, 127
1, 1908265, Note_on_c, 0, 91, 0
1, 1908272, Note_on_c, 0, 82, 0
1, 1908341, Note_on_c, 0, 80, 97
1, 1908383, Note_on_c, 0, 90, 52
1, 1908457, Note_on_c, 0, 92, 82
1, 1908495, Note_on_c, 0, 91, 72
1, 1908528, Note_on_c, 0, 87, 82
1, 1908530, Note_on_c, 0, 80, 0
1, 1908598, Note_on_c, 0, 92, 0
1, 1908598, Note_on_c, 0, 91, 0
1, 1908625, Note_on_c, 0, 79, 83
1, 1908640, Note_on_c, 0, 87, 0
1, 1908671, Note_on_c, 0, 90, 0
1, 1908677, Note_on_c, 0, 79, 0
1, 1908729, Note_on_c, 0, 36, 0
1, 1908745, Note_on_c, 0, 77, 92
1, 1908787, Note_on_c, 0, 48, 0
1, 1908804, Note_on_c, 0, 89, 59
1, 1908819, Note_on_c, 0, 85, 68
1, 1908857, Note_on_c, 0, 77, 0
1, 1908908, Note_on_c, 0, 87, 69
1, 1908938, Note_on_c, 0, 84, 77
1, 1908945, Note_on_c, 0, 89, 0
1, 1909013, Note_on_c, 0, 85, 0
1, 1909018, Note_on_c, 0, 75, 84
1, 1909025, Note_on_c, 0, 87, 0
1, 1909044, Note_on_c, 0, 84, 0
1, 1909053, Note_on_c, 0, 75, 0
1, 1909123, Note_on_c, 0, 55, 83
1, 1909129, Note_on_c, 0, 52, 79
1, 1909131, Note_on_c, 0, 73, 93
1, 1909232, Note_on_c, 0, 85, 80
1, 1909240, Note_on_c, 0, 73, 0
1, 1909276, Note_on_c, 0, 81, 30
1, 1909279, Note_on_c, 0, 84, 71
1, 1909301, Note_on_c, 0, 52, 0
1, 1909303, Note_on_c, 0, 53, 78
1, 1909319, Note_on_c, 0, 56, 87
1, 1909325, Note_on_c, 0, 81, 0
1, 1909335, Note_on_c, 0, 55, 0
1, 1909337, Note_on_c, 0, 80, 80
1, 1909363, Poly_aftertouch_c, 0, 82, 0
1, 1909368, Note_on_c, 0, 85, 0
1, 1909408, Note_on_c, 0, 72, 80
1, 1909410, Note_on_c, 0, 84, 0
1, 1909417, Note_on_c, 0, 80, 0
1, 1909443, Note_on_c, 0, 72, 0
1, 1909473, Note_on_c, 0, 53, 0
1, 1909483, Note_on_c, 0, 55, 82
1, 1909500, Note_on_c, 0, 58, 81
1, 1909509, Note_on_c, 0, 56, 0
1, 1909519, Note_on_c, 0, 82, 50
1, 1909526, Note_on_c, 0, 70, 88
1, 1909547, Note_on_c, 0, 82, 0
1, 1909549, Note_on_c, 0, 55, 0
1, 1909556, Note_on_c, 0, 79, 57
1, 1909617, Poly_aftertouch_c, 0, 54, 0
1, 1909643, Note_on_c, 0, 82, 77
1, 1909649, Note_on_c, 0, 70, 0
1, 1909671, Note_on_c, 0, 80, 72
1, 1909684, Note_on_c, 0, 56, 71
1, 1909689, Note_on_c, 0, 77, 77
1, 1909691, Note_on_c, 0, 60, 79
1, 1909723, Note_on_c, 0, 58, 0
1, 1909730, Note_on_c, 0, 79, 0
1, 1909740, Note_on_c, 0, 82, 0
1, 1909772, Note_on_c, 0, 68, 78
1, 1909794, Note_on_c, 0, 77, 0
1, 1909802, Control_c, 0, 64, 88
1, 1909815, Note_on_c, 0, 80, 0
1, 1909820, Control_c, 0, 64, 0
1, 1909821, Note_on_c, 0, 68, 0
1, 1909870, Note_on_c, 0, 58, 85
1, 1909873, Note_on_c, 0, 61, 96
1, 1909876, Note_on_c, 0, 67, 87
1, 1909879, Note_on_c, 0, 79, 80
1, 1909884, Note_on_c, 0, 76, 74
1, 1909885, Note_on_c, 0, 77, 80
1, 1909891, Note_on_c, 0, 81, 75
1, 1909906, Note_on_c, 0, 56, 0
1, 1909908, Note_on_c, 0, 60, 0
1, 1909908, Note_on_c, 0, 81, 0
1, 1909910, Control_c, 0, 64, 48
1, 1909924, Note_on_c, 0, 61, 0
1, 1909930, Control_c, 0, 64, 87
1, 1909937, Note_on_c, 0, 58, 0
1, 1909949, Control_c, 0, 64, 127
1, 1909956, Note_on_c, 0, 77, 0
1, 1909968, Note_on_c, 0, 67, 0
1, 1909975, Note_on_c, 0, 79, 0
1, 1910025, Note_on_c, 0, 76, 0
1, 1910041, Poly_aftertouch_c, 0, 81, 0
1, 1910154, Control_c, 0, 64, 91
1, 1910172, Control_c, 0, 64, 29
1, 1910189, Control_c, 0, 64, 0
1, 1910197, Note_on_c, 0, 33, 81
1, 1910200, Note_on_c, 0, 45, 87
1, 1910224, Note_on_c, 0, 66, 83
1, 1910228, Control_c, 0, 64, 37
1, 1910247, Control_c, 0, 64, 75
1, 1910263, Note_on_c, 0, 33, 0
1, 1910265, Control_c, 0, 64, 114
1, 1910268, Note_on_c, 0, 45, 0
1, 1910280, Note_on_c, 0, 78, 67
1, 1910283, Control_c, 0, 64, 127
1, 1910305, Note_on_c, 0, 75, 68
1, 1910307, Note_on_c, 0, 66, 0
1, 1910357, Control_c, 0, 64, 121
1, 1910373, Note_on_c, 0, 77, 70
1, 1910375, Control_c, 0, 64, 116
1, 1910391, Note_on_c, 0, 46, 93
1, 1910394, Control_c, 0, 64, 127
1, 1910394, Note_on_c, 0, 34, 83
1, 1910415, Note_on_c, 0, 73, 76
1, 1910434, Poly_aftertouch_c, 0, 38, 0
1, 1910442, Note_on_c, 0, 34, 0
1, 1910452, Note_on_c, 0, 75, 0
1, 1910452, Note_on_c, 0, 78, 0
1, 1910466, Note_on_c, 0, 46, 0
1, 1910473, Note_on_c, 0, 77, 0
1, 1910487, Note_on_c, 0, 65, 77
1, 1910502, Note_on_c, 0, 73, 0
1, 1910505, Control_c, 0, 64, 110
1, 1910521, Note_on_c, 0, 65, 0
1, 1910523, Control_c, 0, 64, 58
1, 1910552, Control_c, 0, 64, 35
1, 1910571, Control_c, 0, 64, 50
1, 1910582, Note_on_c, 0, 36, 81
1, 1910591, Control_c, 0, 64, 76
1, 1910593, Note_on_c, 0, 48, 92
1, 1910608, Control_c, 0, 64, 111
1, 1910614, Note_on_c, 0, 63, 87
1, 1910627, Control_c, 0, 64, 127
1, 1910628, Note_on_c, 0, 36, 0
1, 1910641, Note_on_c, 0, 72, 51
1, 1910651, Note_on_c, 0, 48, 0
1, 1910708, Note_on_c, 0, 75, 81
1, 1910726, Poly_aftertouch_c, 0, 43, 0
1, 1910728, Note_on_c, 0, 63, 0
1, 1910732, Note_on_c, 0, 73, 73
1, 1910742, Note_on_c, 0, 70, 80
1, 1910767, Note_on_c, 0, 49, 94
1, 1910781, Note_on_c, 0, 37, 78
1, 1910794, Note_on_c, 0, 72, 0
1, 1910813, Note_on_c, 0, 75, 0
1, 1910813, Poly_aftertouch_c, 0, 44, 0
1, 1910832, Note_on_c, 0, 61, 88
1, 1910836, Note_on_c, 0, 37, 0
1, 1910861, Note_on_c, 0, 49, 0
1, 1910874, Note_on_c, 0, 70, 0
1, 1910882, Poly_aftertouch_c, 0, 43, 0
1, 1910890, Note_on_c, 0, 61, 0
1, 1910903, Note_on_c, 0, 73, 0
1, 1910942, Control_c, 0, 64, 106
1, 1910946, Note_on_c, 0, 39, 80
1, 1910947, Note_on_c, 0, 51, 102
1, 1910960, Control_c, 0, 64, 39
1, 1910965, Note_on_c, 0, 60, 90
1, 1910978, Control_c, 0, 64, 0
1, 1911014, Note_on_c, 0, 39, 0
1, 1911021, Note_on_c, 0, 72, 38
1, 1911033, Note_on_c, 0, 51, 0
1, 1911034, Control_c, 0, 64, 44
1, 1911043, Note_on_c, 0, 68, 66
1, 1911052, Control_c, 0, 64, 85
1, 1911070, Control_c, 0, 64, 121
1, 1911090, Note_on_c, 0, 60, 0
1, 1911090, Control_c, 0, 64, 127
1, 1911122, Note_on_c, 0, 70, 67
1, 1911140, Note_on_c, 0, 66, 77
1, 1911152, Note_on_c, 0, 72, 0
1, 1911195, Note_on_c, 0, 68, 0
1, 1911211, Note_on_c, 0, 70, 0
1, 1911223, Note_on_c, 0, 66, 0
1, 1911241, Note_on_c, 0, 58, 87
1, 1911295, Note_on_c, 0, 58, 0
1, 1911323, Note_on_c, 0, 72, 74
1, 1911376, Note_on_c, 0, 56, 75
1, 1911388, Note_on_c, 0, 68, 34
1, 1911416, Note_on_c, 0, 58, 40
1, 1911445, Note_on_c, 0, 58, 0
1, 1911453, Note_on_c, 0, 72, 0
1, 1911456, Note_on_c, 0, 65, 53
1, 1911492, Note_on_c, 0, 56, 0
1, 1911546, Note_on_c, 0, 63, 75
1, 1911556, Note_on_c, 0, 66, 54
1, 1911558, Note_on_c, 0, 75, 97
1, 1911581, Control_c, 0, 64, 93
1, 1911585, Note_on_c, 0, 68, 0
1, 1911586, Poly_aftertouch_c, 0, 68, 0
1, 1911601, Control_c, 0, 64, 47
1, 1911608, Note_on_c, 0, 65, 0
1, 1911617, Control_c, 0, 64, 52
1, 1911635, Control_c, 0, 64, 70
1, 1911646, Note_on_c, 0, 54, 77
1, 1911653, Note_on_c, 0, 63, 0
1, 1911655, Control_c, 0, 64, 90
1, 1911674, Control_c, 0, 64, 127
1, 1911715, Note_on_c, 0, 66, 0
1, 1911724, Note_on_c, 0, 54, 0
1, 1911732, Note_on_c, 0, 53, 74
1, 1911733, Note_on_c, 0, 77, 93
1, 1911738, Note_on_c, 0, 73, 83
1, 1911768, Note_on_c, 0, 61, 63
1, 1911774, Note_on_c, 0, 75, 0
1, 1911786, Note_on_c, 0, 65, 58
1, 1911821, Control_c, 0, 64, 116
1, 1911839, Control_c, 0, 64, 80
1, 1911840, Note_on_c, 0, 53, 0
1, 1911859, Control_c, 0, 64, 43
1, 1911877, Control_c, 0, 64, 19
1, 1911890, Note_on_c, 0, 63, 72
1, 1911902, Note_on_c, 0, 75, 81
1, 1911905, Note_on_c, 0, 78, 91
1, 1911912, Note_on_c, 0, 60, 73
1, 1911914, Control_c, 0, 64, 8
1, 1911923, Note_on_c, 0, 65, 0
1, 1911923, Note_on_c, 0, 61, 0
1, 1911933, Control_c, 0, 64, 0
1, 1911938, Note_on_c, 0, 77, 0
1, 1911947, Note_on_c, 0, 73, 0
1, 1911994, Note_on_c, 0, 57, 81
1, 1911997, Note_on_c, 0, 63, 0
1, 1911997, Note_on_c, 0, 60, 0
1, 1912096, Note_on_c, 0, 77, 95
1, 1912105, Note_on_c, 0, 61, 88
1, 1912106, Note_on_c, 0, 58, 88
1, 1912107, Note_on_c, 0, 73, 84
1, 1912118, Control_c, 0, 64, 27
1, 1912119, Note_on_c, 0, 57, 0
1, 1912122, Note_on_c, 0, 78, 0
1, 1912127, Note_on_c, 0, 75, 0
1, 1912137, Control_c, 0, 64, 76
1, 1912143, Note_on_c, 0, 58, 0
1, 1912144, Note_on_c, 0, 77, 0
1, 1912156, Control_c, 0, 64, 127
1, 1912162, Note_on_c, 0, 61, 0
1, 1912165, Note_on_c, 0, 73, 0
1, 1912470, Note_on_c, 0, 73, 76
1, 1912499, Note_on_c, 0, 42, 88
1, 1912501, Note_on_c, 0, 30, 90
1, 1912524, Note_on_c, 0, 75, 20
1, 1912526, Note_on_c, 0, 85, 80
1, 1912534, Note_on_c, 0, 42, 0
1, 1912554, Note_on_c, 0, 82, 64
1, 1912555, Note_on_c, 0, 30, 0
1, 1912564, Note_on_c, 0, 73, 0
1, 1912572, Note_on_c, 0, 75, 0
1, 1912633, Note_on_c, 0, 84, 78
1, 1912642, Note_on_c, 0, 85, 0
1, 1912652, Note_on_c, 0, 44, 97
1, 1912653, Note_on_c, 0, 32, 93
1, 1912671, Note_on_c, 0, 80, 73
1, 1912712, Note_on_c, 0, 72, 71
1, 1912715, Note_on_c, 0, 44, 0
1, 1912717, Note_on_c, 0, 32, 0
1, 1912733, Note_on_c, 0, 82, 0
1, 1912744, Note_on_c, 0, 72, 0
1, 1912771, Note_on_c, 0, 80, 0
1, 1912774, Note_on_c, 0, 84, 0
1, 1912825, Note_on_c, 0, 48, 99
1, 1912827, Note_on_c, 0, 36, 90
1, 1912830, Poly_aftertouch_c, 0, 34, 0
1, 1912860, Note_on_c, 0, 48, 0
1, 1912864, Note_on_c, 0, 71, 68
1, 1912867, Note_on_c, 0, 36, 0
1, 1912874, Note_on_c, 0, 37, 31
1, 1912888, Note_on_c, 0, 72, 49
1, 1912927, Note_on_c, 0, 72, 0
1, 1912929, Note_on_c, 0, 37, 0
1, 1912931, Note_on_c, 0, 78, 85
1, 1912932, Note_on_c, 0, 71, 0
1, 1912956, Note_on_c, 0, 82, 67
1, 1913000, Note_on_c, 0, 49, 93
1, 1913001, Note_on_c, 0, 37, 92
1, 1913045, Note_on_c, 0, 80, 69
1, 1913069, Note_on_c, 0, 68, 75
1, 1913076, Note_on_c, 0, 70, 60
1, 1913084, Note_on_c, 0, 76, 34
1, 1913107, Note_on_c, 0, 77, 24
1, 1913108, Note_on_c, 0, 37, 0
1, 1913113, Note_on_c, 0, 70, 0
1, 1913121, Note_on_c, 0, 82, 0
1, 1913123, Note_on_c, 0, 68, 0
1, 1913124, Note_on_c, 0, 49, 0
1, 1913127, Note_on_c, 0, 76, 0
1, 1913139, Note_on_c, 0, 78, 0
1, 1913154, Note_on_c, 0, 77, 0
1, 1913173, Note_on_c, 0, 80, 0
1, 1913214, Note_on_c, 0, 39, 89
1, 1913218, Note_on_c, 0, 51, 99
1, 1913237, Note_on_c, 0, 66, 91
1, 1913240, Control_c, 0, 64, 102
1, 1913248, Note_on_c, 0, 78, 47
1, 1913258, Control_c, 0, 64, 30
1, 1913277, Control_c, 0, 64, 0
1, 1913289, Note_on_c, 0, 38, 16
1, 1913358, Control_c, 0, 64, 37
1, 1913365, Note_on_c, 0, 38, 0
1, 1913378, Control_c, 0, 64, 80
1, 1913393, Note_on_c, 0, 39, 0
1, 1913395, Control_c, 0, 64, 120
1, 1913405, Note_on_c, 0, 75, 67
1, 1913407, Note_on_c, 0, 51, 0
1, 1913415, Control_c, 0, 64, 127
1, 1913442, Note_on_c, 0, 77, 68
1, 1913448, Note_on_c, 0, 66, 0
1, 1913509, Note_on_c, 0, 73, 71
1, 1913557, Note_on_c, 0, 65, 85
1, 1913565, Note_on_c, 0, 78, 0
1, 1913572, Note_on_c, 0, 75, 0
1, 1913576, Note_on_c, 0, 77, 0
1, 1913602, Note_on_c, 0, 73, 0
1, 1913621, Note_on_c, 0, 65, 0
1, 1913699, Note_on_c, 0, 63, 93
1, 1913705, Note_on_c, 0, 78, 62
1, 1913728, Note_on_c, 0, 78, 0
1, 1913802, Note_on_c, 0, 75, 62
1, 1913814, Note_on_c, 0, 72, 69
1, 1913904, Note_on_c, 0, 73, 54
1, 1913911, Note_on_c, 0, 63, 0
1, 1913928, Note_on_c, 0, 70, 81
1, 1913928, Note_on_c, 0, 82, 93
1, 1913963, Note_on_c, 0, 75, 0
1, 1913989, Control_c, 0, 64, 118
1, 1913993, Note_on_c, 0, 72, 0
1, 1914008, Control_c, 0, 64, 75
1, 1914028, Control_c, 0, 64, 14
1, 1914035, Note_on_c, 0, 61, 85
1, 1914044, Control_c, 0, 64, 0
1, 1914049, Note_on_c, 0, 70, 0
1, 1914102, Control_c, 0, 64, 37
1, 1914107, Note_on_c, 0, 73, 0
1, 1914113, Note_on_c, 0, 61, 0
1, 1914120, Control_c, 0, 64, 67
1, 1914137, Control_c, 0, 64, 99
1, 1914145, Note_on_c, 0, 84, 97
1, 1914148, Note_on_c, 0, 80, 85
1, 1914155, Note_on_c, 0, 60, 80
1, 1914156, Control_c, 0, 64, 127
1, 1914176, Note_on_c, 0, 82, 0
1, 1914252, Note_on_c, 0, 72, 72
1, 1914264, Note_on_c, 0, 68, 72
1, 1914315, Note_on_c, 0, 60, 0
1, 1914361, Note_on_c, 0, 82, 83
1, 1914367, Note_on_c, 0, 85, 99
1, 1914368, Note_on_c, 0, 70, 75
1, 1914374, Note_on_c, 0, 80, 0
1, 1914385, Note_on_c, 0, 66, 84
1, 1914398, Note_on_c, 0, 84, 0
1, 1914400, Note_on_c, 0, 72, 0
1, 1914426, Note_on_c, 0, 82, 0
1, 1914433, Note_on_c, 0, 68, 0
1, 1914458, Note_on_c, 0, 70, 0
1, 1914483, Note_on_c, 0, 66, 0
1, 1914496, Note_on_c, 0, 58, 86
1, 1914585, Note_on_c, 0, 58, 0
1, 1914605, Note_on_c, 0, 85, 0
1, 1914684, Note_on_c, 0, 86, 102
1, 1914686, Note_on_c, 0, 83, 96
1, 1914703, Note_on_c, 0, 56, 92
1, 1914740, Control_c, 0, 64, 121
1, 1914759, Control_c, 0, 64, 74
1, 1914777, Control_c, 0, 64, 0
1, 1914869, Control_c, 0, 64, 31
1, 1914888, Control_c, 0, 64, 62
1, 1914897, Note_on_c, 0, 65, 63
1, 1914905, Note_on_c, 0, 68, 65
1, 1914906, Control_c, 0, 64, 90
1, 1914924, Control_c, 0, 64, 117
1, 1914944, Control_c, 0, 64, 127
1, 1915009, Note_on_c, 0, 64, 77
1, 1915020, Note_on_c, 0, 84, 80
1, 1915025, Note_on_c, 0, 88, 99
1, 1915027, Note_on_c, 0, 67, 70
1, 1915044, Note_on_c, 0, 56, 0
1, 1915052, Note_on_c, 0, 86, 0
1, 1915061, Note_on_c, 0, 83, 0
1, 1915094, Note_on_c, 0, 64, 0
1, 1915105, Note_on_c, 0, 68, 0
1, 1915108, Note_on_c, 0, 65, 0
1, 1915118, Note_on_c, 0, 67, 0
1, 1915136, Note_on_c, 0, 55, 83
1, 1915138, Note_on_c, 0, 66, 53
1, 1915179, Note_on_c, 0, 84, 0
1, 1915204, Note_on_c, 0, 55, 0
1, 1915212, Note_on_c, 0, 88, 0
1, 1915277, Note_on_c, 0, 66, 0
1, 1915302, Note_on_c, 0, 86, 102
1, 1915307, Note_on_c, 0, 83, 93
1, 1915328, Note_on_c, 0, 56, 90
1, 1915360, Control_c, 0, 64, 81
1, 1915378, Control_c, 0, 64, 14
1, 1915397, Control_c, 0, 64, 0
1, 1915448, Note_on_c, 0, 65, 68
1, 1915452, Control_c, 0, 64, 39
1, 1915456, Note_on_c, 0, 68, 77
1, 1915472, Control_c, 0, 64, 74
1, 1915477, Note_on_c, 0, 56, 0
1, 1915492, Control_c, 0, 64, 110
1, 1915508, Control_c, 0, 64, 127
1, 1915539, Note_on_c, 0, 64, 70
1, 1915540, Note_on_c, 0, 88, 104
1, 1915551, Note_on_c, 0, 67, 45
1, 1915552, Note_on_c, 0, 84, 82
1, 1915577, Note_on_c, 0, 86, 0
1, 1915581, Note_on_c, 0, 68, 0
1, 1915584, Note_on_c, 0, 83, 0
1, 1915606, Note_on_c, 0, 64, 0
1, 1915622, Note_on_c, 0, 65, 0
1, 1915625, Note_on_c, 0, 55, 76
1, 1915640, Note_on_c, 0, 67, 0
1, 1915657, Note_on_c, 0, 66, 23
1, 1915685, Note_on_c, 0, 88, 0
1, 1915690, Note_on_c, 0, 84, 0
1, 1915699, Note_on_c, 0, 55, 0
1, 1915722, Note_on_c, 0, 66, 0
1, 1915759, Note_on_c, 0, 86, 98
1, 1915761, Note_on_c, 0, 83, 92
1, 1915766, Control_c, 0, 64, 117
1, 1915775, Note_on_c, 0, 56, 82
1, 1915786, Control_c, 0, 64, 63
1, 1915794, Poly_aftertouch_c, 0, 67, 0
1, 1915803, Note_on_c, 0, 58, 61
1, 1915805, Control_c, 0, 64, 0
1, 1915841, Note_on_c, 0, 58, 0
1, 1915843, Control_c, 0, 64, 32
1, 1915860, Control_c, 0, 64, 66
1, 1915880, Control_c, 0, 64, 108
1, 1915899, Control_c, 0, 64, 127
1, 1915901, Note_on_c, 0, 65, 58
1, 1915921, Note_on_c, 0, 56, 0
1, 1915923, Note_on_c, 0, 67, 64
1, 1915932, Note_on_c, 0, 64, 75
1, 1915933, Note_on_c, 0, 68, 68
1, 1915953, Note_on_c, 0, 83, 0
1, 1915962, Note_on_c, 0, 88, 89
1, 1915967, Note_on_c, 0, 84, 82
1, 1915987, Note_on_c, 0, 88, 0
1, 1915993, Note_on_c, 0, 86, 0
1, 1916004, Note_on_c, 0, 64, 0
1, 1916016, Note_on_c, 0, 65, 0
1, 1916020, Note_on_c, 0, 84, 0
1, 1916024, Note_on_c, 0, 67, 0
1, 1916031, Note_on_c, 0, 68, 0
1, 1916053, Note_on_c, 0, 55, 76
1, 1916091, Poly_aftertouch_c, 0, 66, 0
1, 1916212, Note_on_c, 0, 71, 85
1, 1916212, Note_on_c, 0, 74, 90
1, 1916222, Note_on_c, 0, 56, 75
1, 1916333, Control_c, 0, 64, 99
1, 1916351, Control_c, 0, 64, 52
1, 1916362, Note_on_c, 0, 65, 75
1, 1916370, Control_c, 0, 64, 0
1, 1916405, Note_on_c, 0, 56, 0
1, 1916428, Control_c, 0, 64, 26
1, 1916444, Control_c, 0, 64, 50
1, 1916464, Control_c, 0, 64, 77
1, 1916468, Note_on_c, 0, 55, 0
1, 1916470, Note_on_c, 0, 64, 67
1, 1916481, Control_c, 0, 64, 102
1, 1916499, Control_c, 0, 64, 127
1, 1916505, Note_on_c, 0, 76, 88
1, 1916505, Note_on_c, 0, 72, 80
1, 1916545, Note_on_c, 0, 65, 0
1, 1916555, Note_on_c, 0, 71, 0
1, 1916555, Note_on_c, 0, 74, 0
1, 1916586, Note_on_c, 0, 55, 84
1, 1916716, Note_on_c, 0, 56, 81
1, 1916731, Note_on_c, 0, 74, 90
1, 1916733, Note_on_c, 0, 64, 0
1, 1916736, Note_on_c, 0, 71, 79
1, 1916739, Control_c, 0, 64, 93
1, 1916760, Control_c, 0, 64, 51
1, 1916768, Note_on_c, 0, 76, 0
1, 1916770, Note_on_c, 0, 72, 0
1, 1916778, Control_c, 0, 64, 44
1, 1916796, Control_c, 0, 64, 58
1, 1916815, Control_c, 0, 64, 75
1, 1916834, Control_c, 0, 64, 99
1, 1916846, Note_on_c, 0, 65, 79
1, 1916850, Control_c, 0, 64, 127
1, 1916920, Note_on_c, 0, 56, 0
1, 1916933, Note_on_c, 0, 55, 0
1, 1916946, Note_on_c, 0, 71, 0
1, 1916960, Note_on_c, 0, 64, 80
1, 1916962, Note_on_c, 0, 76, 84
1, 1916969, Note_on_c, 0, 72, 84
1, 1916982, Note_on_c, 0, 74, 0
1, 1916986, Note_on_c, 0, 76, 0
1, 1917019, Note_on_c, 0, 72, 0
1, 1917064, Note_on_c, 0, 65, 0
1, 1917080, Note_on_c, 0, 55, 80
1, 1917303, Note_on_c, 0, 47, 90
1, 1917326, Note_on_c, 0, 56, 77
1, 1917396, Note_on_c, 0, 64, 0
1, 1917416, Control_c, 0, 64, 106
1, 1917435, Control_c, 0, 64, 66
1, 1917453, Control_c, 0, 64, 24
1, 1917471, Control_c, 0, 64, 19
1, 1917491, Control_c, 0, 64, 23
1, 1917505, Note_on_c, 0, 65, 77
1, 1917508, Control_c, 0, 64, 42
1, 1917527, Control_c, 0, 64, 61
1, 1917547, Control_c, 0, 64, 81
1, 1917555, Note_on_c, 0, 56, 0
1, 1917565, Control_c, 0, 64, 99
1, 1917583, Control_c, 0, 64, 120
1, 1917600, Control_c, 0, 64, 127
1, 1917621, Note_on_c, 0, 64, 82
1, 1917626, Note_on_c, 0, 48, 92
1, 1917633, Note_on_c, 0, 55, 0
1, 1917679, Note_on_c, 0, 65, 0
1, 1917694, Note_on_c, 0, 47, 0
1, 1917745, Note_on_c, 0, 55, 86
1, 1917862, Note_on_c, 0, 64, 0
1, 1917879, Note_on_c, 0, 56, 87
1, 1917885, Note_on_c, 0, 47, 89
1, 1917923, Note_on_c, 0, 55, 0
1, 1917944, Note_on_c, 0, 48, 0
1, 1918008, Note_on_c, 0, 65, 83
1, 1918072, Note_on_c, 0, 56, 0
1, 1918142, Note_on_c, 0, 64, 86
1, 1918142, Note_on_c, 0, 48, 88
1, 1918155, Note_on_c, 0, 47, 0
1, 1918198, Note_on_c, 0, 65, 0
1, 1918212, Note_on_c, 0, 48, 0
1, 1918269, Note_on_c, 0, 55, 87
1, 1918322, Note_on_c, 0, 35, 85
1, 1918499, Note_on_c, 0, 64, 0
1, 1918606, Note_on_c, 0, 49, 101
1, 1918651, Note_on_c, 0, 56, 72
1, 1918723, Control_c, 0, 64, 101
1, 1918730, Poly_aftertouch_c, 0, 38, 0
1, 1918742, Control_c, 0, 64, 65
1, 1918747, Poly_aftertouch_c, 0, 41, 0
1, 1918754, Note_on_c, 0, 55, 0
1, 1918759, Control_c, 0, 64, 18
1, 1918778, Control_c, 0, 64, 0
1, 1918834, Control_c, 0, 64, 13
1, 1918843, Note_on_c, 0, 65, 67
1, 1918853, Control_c, 0, 64, 41
1, 1918871, Control_c, 0, 64, 65
1, 1918890, Control_c, 0, 64, 86
1, 1918897, Note_on_c, 0, 56, 0
1, 1918907, Control_c, 0, 64, 105
1, 1918927, Control_c, 0, 64, 122
1, 1918944, Control_c, 0, 64, 127
1, 1918998, Note_on_c, 0, 64, 70
1, 1919002, Note_on_c, 0, 35, 0
1, 1919017, Poly_aftertouch_c, 0, 38, 0
1, 1919073, Note_on_c, 0, 65, 0
1, 1919156, Note_on_c, 0, 55, 68
1, 1919222, Note_on_c, 0, 49, 0
1, 1919296, Note_on_c, 0, 64, 0
1, 1919333, Note_on_c, 0, 56, 61
1, 1919466, Note_on_c, 0, 55, 0
1, 1919508, Note_on_c, 0, 56, 0
1, 1919514, Note_on_c, 0, 65, 59
1, 1919807, Control_c, 0, 64, 117
1, 1919825, Control_c, 0, 64, 85
1, 1919829, Note_on_c, 0, 36, 60
1, 1919837, Note_on_c, 0, 48, 76
1, 1919842, Control_c, 0, 64, 46
1, 1919861, Control_c, 0, 64, 0
1, 1919909, Note_on_c, 0, 64, 50
1, 1919911, Note_on_c, 0, 55, 32
1, 1919938, Note_on_c, 0, 65, 0
1, 1919982, Control_c, 0, 64, 28
1, 1919991, Note_on_c, 0, 36, 0
1, 1920002, Control_c, 0, 64, 58
1, 1920020, Control_c, 0, 64, 87
1, 1920037, Control_c, 0, 64, 112
1, 1920056, Control_c, 0, 64, 127
1, 1920061, Note_on_c, 0, 48, 0
1, 1920191, Note_on_c, 0, 62, 53
1, 1920278, Note_on_c, 0, 64, 0
1, 1920278, Control_c, 0, 67, 11
1, 1920297, Control_c, 0, 67, 18
1, 1920316, Control_c, 0, 67, 23
1, 1920334, Control_c, 0, 67, 27
1, 1920372, Control_c, 0, 67, 33
1, 1920408, Control_c, 0, 67, 40
1, 1920420, Note_on_c, 0, 55, 0
1, 1920426, Control_c, 0, 67, 45
1, 1920429, Note_on_c, 0, 76, 67
1, 1920462, Note_on_c, 0, 60, 44
1, 1920464, Control_c, 0, 67, 50
1, 1920531, Note_on_c, 0, 62, 0
1, 1920679, Note_on_c, 0, 74, 66
1, 1920689, Note_on_c, 0, 55, 53
1, 1920745, Note_on_c, 0, 76, 0
1, 1920765, Note_on_c, 0, 60, 0
1, 1920958, Note_on_c, 0, 72, 63
1, 1920960, Note_on_c, 0, 64, 52
1, 1921006, Note_on_c, 0, 74, 0
1, 1921167, Note_on_c, 0, 72, 0
1, 1921181, Note_on_c, 0, 67, 59
1, 1921219, Note_on_c, 0, 67, 0
1, 1921230, Note_on_c, 0, 62, 47
1, 1921338, Note_on_c, 0, 64, 0
1, 1921342, Note_on_c, 0, 55, 0
1, 1921362, Control_c, 0, 67, 46
1, 1921426, Note_on_c, 0, 60, 63
1, 1921427, Note_on_c, 0, 48, 74
1, 1921507, Note_on_c, 0, 62, 0
1, 1921646, Note_on_c, 0, 47, 80
1, 1921664, Note_on_c, 0, 60, 0
1, 1921666, Note_on_c, 0, 55, 70
1, 1921680, Note_on_c, 0, 48, 0
1, 1921906, Note_on_c, 0, 55, 0
1, 1921921, Note_on_c, 0, 46, 79
1, 1921936, Note_on_c, 0, 47, 0
1, 1921945, Control_c, 0, 64, 112
1, 1921965, Control_c, 0, 64, 71
1, 1921973, Note_on_c, 0, 67, 60
1, 1921984, Control_c, 0, 64, 15
1, 1921985, Control_c, 0, 67, 42
1, 1922002, Control_c, 0, 64, 0
1, 1922059, Control_c, 0, 67, 38
1, 1922076, Control_c, 0, 64, 31
1, 1922094, Control_c, 0, 64, 57
1, 1922095, Control_c, 0, 67, 31
1, 1922113, Control_c, 0, 64, 83
1, 1922114, Control_c, 0, 67, 23
1, 1922132, Control_c, 0, 64, 105
1, 1922134, Control_c, 0, 67, 11
1, 1922150, Control_c, 0, 64, 127
1, 1922151, Control_c, 0, 67, 0
1, 1922168, Note_on_c, 0, 34, 60
1, 1922177, Note_on_c, 0, 46, 0
1, 1922205, Note_on_c, 0, 65, 62
1, 1922207, Note_on_c, 0, 34, 0
1, 1922278, Note_on_c, 0, 67, 0
1, 1922417, Note_on_c, 0, 79, 72
1, 1922434, Note_on_c, 0, 64, 62
1, 1922531, Note_on_c, 0, 65, 0
1, 1922637, Note_on_c, 0, 77, 79
1, 1922649, Note_on_c, 0, 60, 71
1, 1922711, Note_on_c, 0, 64, 0
1, 1922714, Note_on_c, 0, 79, 0
1, 1922892, Note_on_c, 0, 76, 74
1, 1922898, Note_on_c, 0, 67, 72
1, 1922940, Note_on_c, 0, 77, 0
1, 1923091, Note_on_c, 0, 76, 0
1, 1923101, Note_on_c, 0, 72, 74
1, 1923128, Note_on_c, 0, 65, 68
1, 1923129, Note_on_c, 0, 72, 0
1, 1923183, Note_on_c, 0, 60, 0
1, 1923232, Note_on_c, 0, 67, 0
1, 1923322, Note_on_c, 0, 46, 76
1, 1923327, Note_on_c, 0, 64, 77
1, 1923383, Note_on_c, 0, 65, 0
1, 1923537, Note_on_c, 0, 60, 83
1, 1923537, Note_on_c, 0, 45, 75
1, 1923555, Note_on_c, 0, 64, 0
1, 1923560, Note_on_c, 0, 46, 0
1, 1923620, Note_on_c, 0, 60, 0
1, 1923772, Note_on_c, 0, 45, 0
1, 1923778, Note_on_c, 0, 43, 75
1, 1923799, Control_c, 0, 64, 93
1, 1923817, Control_c, 0, 64, 38
1, 1923831, Note_on_c, 0, 61, 89
1, 1923835, Control_c, 0, 64, 0
1, 1923852, Note_on_c, 0, 70, 74
1, 1923911, Control_c, 0, 64, 29
1, 1923930, Control_c, 0, 64, 60
1, 1923948, Control_c, 0, 64, 85
1, 1923964, Control_c, 0, 64, 109
1, 1923984, Control_c, 0, 64, 127
1, 1924007, Note_on_c, 0, 43, 0
1, 1924011, Note_on_c, 0, 31, 64
1, 1924052, Note_on_c, 0, 31, 0
1, 1924054, Note_on_c, 0, 69, 74
1, 1924293, Note_on_c, 0, 67, 65
1, 1924293, Note_on_c, 0, 82, 77
1, 1924297, Note_on_c, 0, 70, 0
1, 1924503, Note_on_c, 0, 81, 79
1, 1924513, Note_on_c, 0, 64, 80
1, 1924526, Note_on_c, 0, 61, 0
1, 1924543, Note_on_c, 0, 82, 0
1, 1924670, Note_on_c, 0, 69, 0
1, 1924743, Note_on_c, 0, 79, 56
1, 1924761, Note_on_c, 0, 61, 80
1, 1924763, Note_on_c, 0, 70, 70
1, 1924770, Note_on_c, 0, 81, 0
1, 1924816, Note_on_c, 0, 67, 0
1, 1924893, Note_on_c, 0, 79, 0
1, 1924935, Note_on_c, 0, 76, 60
1, 1924960, Note_on_c, 0, 76, 0
1, 1924983, Note_on_c, 0, 69, 66
1, 1925040, Note_on_c, 0, 64, 0
1, 1925209, Note_on_c, 0, 67, 73
1, 1925213, Note_on_c, 0, 45, 71
1, 1925218, Note_on_c, 0, 33, 64
1, 1925292, Note_on_c, 0, 45, 0
1, 1925295, Note_on_c, 0, 70, 0
1, 1925328, Note_on_c, 0, 33, 0
1, 1925398, Note_on_c, 0, 43, 80
1, 1925406, Note_on_c, 0, 64, 80
1, 1925419, Note_on_c, 0, 69, 0
1, 1925448, Note_on_c, 0, 37, 27
1, 1925449, Note_on_c, 0, 67, 0
1, 1925500, Note_on_c, 0, 37, 0
1, 1925520, Note_on_c, 0, 64, 0
1, 1925551, Note_on_c, 0, 61, 0
1, 1925552, Note_on_c, 0, 43, 0
1, 1925628, Note_on_c, 0, 29, 75
1, 1925688, Control_c, 0, 64, 116
1, 1925707, Control_c, 0, 64, 69
1, 1925725, Control_c, 0, 64, 0
1, 1925780, Note_on_c, 0, 41, 87
1, 1925817, Control_c, 0, 64, 35
1, 1925822, Note_on_c, 0, 29, 0
1, 1925836, Control_c, 0, 64, 67
1, 1925836, Note_on_c, 0, 73, 78
1, 1925855, Control_c, 0, 64, 98
1, 1925873, Control_c, 0, 64, 127
1, 1925887, Note_on_c, 0, 41, 0
1, 1926055, Note_on_c, 0, 69, 64
1, 1926224, Note_on_c, 0, 65, 62
1, 1926235, Note_on_c, 0, 85, 80
1, 1926322, Note_on_c, 0, 69, 0
1, 1926336, Note_on_c, 0, 73, 0
1, 1926425, Note_on_c, 0, 85, 0
1, 1926438, Note_on_c, 0, 86, 77
1, 1926451, Note_on_c, 0, 62, 72
1, 1926455, Note_on_c, 0, 65, 0
1, 1926478, Note_on_c, 0, 86, 0
1, 1926604, Poly_aftertouch_c, 0, 86, 0
1, 1926620, Note_on_c, 0, 74, 83
1, 1926656, Note_on_c, 0, 62, 0
1, 1926739, Note_on_c, 0, 40, 85
1, 1926749, Note_on_c, 0, 28, 77
1, 1926778, Note_on_c, 0, 69, 81
1, 1926813, Note_on_c, 0, 40, 0
1, 1926854, Note_on_c, 0, 74, 0
1, 1926914, Poly_aftertouch_c, 0, 32, 0
1, 1926956, Control_c, 0, 64, 103
1, 1926958, Note_on_c, 0, 26, 84
1, 1926976, Control_c, 0, 64, 50
1, 1926993, Control_c, 0, 64, 0
1, 1926994, Note_on_c, 0, 38, 90
1, 1926996, Note_on_c, 0, 28, 0
1, 1927059, Note_on_c, 0, 76, 86
1, 1927066, Note_on_c, 0, 26, 0
1, 1927069, Control_c, 0, 64, 14
1, 1927087, Poly_aftertouch_c, 0, 33, 0
1, 1927087, Control_c, 0, 64, 48
1, 1927092, Note_on_c, 0, 69, 0
1, 1927105, Control_c, 0, 64, 81
1, 1927114, Note_on_c, 0, 38, 0
1, 1927122, Control_c, 0, 64, 107
1, 1927142, Control_c, 0, 64, 127
1, 1927245, Note_on_c, 0, 73, 80
1, 1927301, Note_on_c, 0, 76, 0
1, 1927425, Note_on_c, 0, 69, 86
1, 1927438, Note_on_c, 0, 88, 93
1, 1927492, Note_on_c, 0, 73, 0
1, 1927503, Note_on_c, 0, 88, 0
1, 1927647, Note_on_c, 0, 89, 97
1, 1927660, Note_on_c, 0, 65, 85
1, 1927668, Note_on_c, 0, 69, 0
1, 1927669, Note_on_c, 0, 89, 0
1, 1927877, Note_on_c, 0, 77, 91
1, 1927920, Note_on_c, 0, 65, 0
1, 1928099, Note_on_c, 0, 26, 64
1, 1928110, Note_on_c, 0, 38, 70
1, 1928114, Note_on_c, 0, 32, 41
1, 1928116, Note_on_c, 0, 74, 83
1, 1928158, Note_on_c, 0, 32, 0
1, 1928165, Note_on_c, 0, 28, 19
1, 1928230, Note_on_c, 0, 28, 0
1, 1928279, Note_on_c, 0, 77, 0
1, 1928296, Note_on_c, 0, 38, 0
1, 1928422, Note_on_c, 0, 24, 74
1, 1928458, Note_on_c, 0, 36, 86
1, 1928490, Note_on_c, 0, 26, 0
1, 1928558, Note_on_c, 0, 79, 89
1, 1928570, Control_c, 0, 64, 122
1, 1928587, Control_c, 0, 64, 88
1, 1928591, Note_on_c, 0, 74, 0
1, 1928606, Control_c, 0, 64, 43
1, 1928625, Control_c, 0, 64, 0
1, 1928732, Note_on_c, 0, 24, 0
1, 1928755, Control_c, 0, 64, 12
1, 1928772, Control_c, 0, 64, 42
1, 1928790, Control_c, 0, 64, 69
1, 1928810, Control_c, 0, 64, 93
1, 1928828, Control_c, 0, 64, 121
1, 1928846, Control_c, 0, 64, 127
1, 1928853, Note_on_c, 0, 36, 0
1, 1928860, Note_on_c, 0, 76, 61
1, 1928918, Note_on_c, 0, 79, 0
1, 1929020, Note_on_c, 0, 72, 64
1, 1929060, Note_on_c, 0, 76, 0
1, 1929163, Note_on_c, 0, 72, 0
1, 1929179, Note_on_c, 0, 70, 66
1, 1929315, Note_on_c, 0, 81, 73
1, 1929323, Note_on_c, 0, 70, 0
1, 1929425, Note_on_c, 0, 60, 63
1, 1929433, Note_on_c, 0, 79, 72
1, 1929469, Note_on_c, 0, 81, 0
1, 1929601, Note_on_c, 0, 67, 68
1, 1929643, Note_on_c, 0, 82, 80
1, 1929659, Note_on_c, 0, 79, 0
1, 1929673, Note_on_c, 0, 60, 0
1, 1929764, Note_on_c, 0, 67, 0
1, 1929780, Note_on_c, 0, 82, 0
1, 1929782, Note_on_c, 0, 79, 77
1, 1929894, Note_on_c, 0, 76, 77
1, 1929896, Note_on_c, 0, 79, 0
1, 1929978, Note_on_c, 0, 76, 0
1, 1929990, Note_on_c, 0, 72, 81
1, 1930063, Note_on_c, 0, 72, 0
1, 1930092, Note_on_c, 0, 84, 87
1, 1930171, Note_on_c, 0, 64, 59
1, 1930184, Note_on_c, 0, 82, 80
1, 1930201, Note_on_c, 0, 84, 0
1, 1930318, Note_on_c, 0, 88, 93
1, 1930334, Note_on_c, 0, 82, 0
1, 1930340, Note_on_c, 0, 64, 0
1, 1930349, Note_on_c, 0, 72, 63
1, 1930360, Note_on_c, 0, 71, 58
1, 1930386, Note_on_c, 0, 72, 0
1, 1930386, Note_on_c, 0, 71, 0
1, 1930407, Note_on_c, 0, 88, 0
1, 1930439, Note_on_c, 0, 84, 95
1, 1930552, Note_on_c, 0, 91, 98
1, 1930558, Note_on_c, 0, 70, 72
1, 1930585, Note_on_c, 0, 84, 0
1, 1930717, Note_on_c, 0, 88, 97
1, 1930727, Note_on_c, 0, 79, 84
1, 1930742, Note_on_c, 0, 91, 0
1, 1930834, Note_on_c, 0, 70, 0
1, 1930860, Note_on_c, 0, 96, 94
1, 1930894, Note_on_c, 0, 79, 0
1, 1930903, Note_on_c, 0, 88, 0
1, 1930948, Note_on_c, 0, 72, 89
1, 1931010, Note_on_c, 0, 94, 91
1, 1931068, Note_on_c, 0, 96, 0
1, 1931209, Control_c, 0, 64, 89
1, 1931227, Control_c, 0, 64, 47
1, 1931245, Control_c, 0, 64, 20
1, 1931251, Note_on_c, 0, 82, 98
1, 1931253, Note_on_c, 0, 91, 85
1, 1931283, Control_c, 0, 64, 39
1, 1931302, Control_c, 0, 64, 63
1, 1931308, Note_on_c, 0, 94, 0
1, 1931321, Control_c, 0, 64, 89
1, 1931334, Note_on_c, 0, 72, 0
1, 1931339, Control_c, 0, 64, 120
1, 1931359, Control_c, 0, 64, 127
1, 1931413, Note_on_c, 0, 82, 0
1, 1931433, Note_on_c, 0, 88, 83
1, 1931454, Note_on_c, 0, 91, 0
1, 1931546, Note_on_c, 0, 88, 0
1, 1931557, Note_on_c, 0, 84, 83
1, 1931662, Note_on_c, 0, 84, 0
1, 1931672, Note_on_c, 0, 82, 83
1, 1931784, Note_on_c, 0, 79, 80
1, 1931803, Note_on_c, 0, 82, 0
1, 1931902, Note_on_c, 0, 76, 80
1, 1931918, Note_on_c, 0, 79, 0
1, 1931998, Note_on_c, 0, 76, 0
1, 1932027, Note_on_c, 0, 72, 80
1, 1932126, Note_on_c, 0, 72, 0
1, 1932150, Note_on_c, 0, 70, 74
1, 1932262, Note_on_c, 0, 67, 71
1, 1932290, Note_on_c, 0, 70, 0
1, 1932384, Control_c, 0, 67, 9
1, 1932393, Note_on_c, 0, 67, 0
1, 1932393, Note_on_c, 0, 64, 69
1, 1932441, Control_c, 0, 67, 14
1, 1932468, Note_on_c, 0, 64, 0
1, 1932478, Control_c, 0, 67, 22
1, 1932498, Control_c, 0, 67, 30
1, 1932511, Note_on_c, 0, 60, 74
1, 1932515, Control_c, 0, 67, 37
1, 1932533, Control_c, 0, 67, 42
1, 1932552, Control_c, 0, 67, 47
1, 1932571, Control_c, 0, 67, 51
1, 1932589, Note_on_c, 0, 60, 0
1, 1932589, Control_c, 0, 67, 56
1, 1932608, Control_c, 0, 67, 61
1, 1932618, Note_on_c, 0, 41, 63
1, 1932618, Note_on_c, 0, 58, 72
1, 1932627, Control_c, 0, 67, 66
1, 1932645, Control_c, 0, 67, 70
1, 1932663, Control_c, 0, 67, 75
1, 1932684, Control_c, 0, 67, 80
1, 1932688, Note_on_c, 0, 58, 0
1, 1932699, Control_c, 0, 67, 86
1, 1932705, Note_on_c, 0, 41, 0
1, 1932719, Control_c, 0, 67, 91
1, 1932736, Control_c, 0, 67, 96
1, 1932756, Control_c, 0, 67, 101
1, 1932774, Control_c, 0, 67, 105
1, 1932794, Control_c, 0, 67, 109
1, 1932831, Control_c, 0, 67, 113
1, 1932845, Note_on_c, 0, 57, 62
1, 1932884, Control_c, 0, 67, 118
1, 1932922, Control_c, 0, 64, 111
1, 1932940, Control_c, 0, 64, 74
1, 1932943, Control_c, 0, 67, 122
1, 1932959, Control_c, 0, 64, 40
1, 1932979, Control_c, 0, 64, 28
1, 1933026, Control_c, 0, 64, 32
1, 1933043, Control_c, 0, 64, 47
1, 1933052, Note_on_c, 0, 55, 56
1, 1933062, Control_c, 0, 64, 69
1, 1933080, Control_c, 0, 64, 87
1, 1933098, Control_c, 0, 64, 108
1, 1933101, Note_on_c, 0, 57, 0
1, 1933101, Control_c, 0, 67, 118
1, 1933117, Control_c, 0, 64, 125
1, 1933154, Control_c, 0, 67, 111
1, 1933165, Note_on_c, 0, 53, 65
1, 1933168, Note_on_c, 0, 55, 0
1, 1933191, Control_c, 0, 67, 107
1, 1933230, Control_c, 0, 67, 101
1, 1933247, Control_c, 0, 67, 96
1, 1933258, Note_on_c, 0, 53, 0
1, 1933262, Control_c, 0, 67, 87
1, 1933271, Note_on_c, 0, 48, 64
1, 1933283, Control_c, 0, 67, 75
1, 1933303, Control_c, 0, 67, 59
1, 1933320, Control_c, 0, 67, 40
1, 1933339, Control_c, 0, 67, 24
1, 1933349, Note_on_c, 0, 48, 0
1, 1933358, Control_c, 0, 67, 10
1, 1933378, Control_c, 0, 67, 0
1, 1933387, Note_on_c, 0, 60, 67
1, 1933470, Note_on_c, 0, 58, 70
1, 1933491, Note_on_c, 0, 60, 0
1, 1933576, Note_on_c, 0, 58, 0
1, 1933578, Note_on_c, 0, 57, 70
1, 1933581, Control_c, 0, 64, 95
1, 1933600, Control_c, 0, 64, 55
1, 1933618, Control_c, 0, 64, 30
1, 1933653, Control_c, 0, 64, 39
1, 1933657, Note_on_c, 0, 57, 0
1, 1933659, Note_on_c, 0, 53, 77
1, 1933672, Control_c, 0, 64, 60
1, 1933692, Control_c, 0, 64, 82
1, 1933710, Control_c, 0, 64, 107
1, 1933729, Control_c, 0, 64, 127
1, 1933760, Note_on_c, 0, 62, 73
1, 1933768, Note_on_c, 0, 53, 0
1, 1933859, Note_on_c, 0, 60, 69
1, 1933863, Note_on_c, 0, 62, 0
1, 1933964, Note_on_c, 0, 58, 77
1, 1933967, Note_on_c, 0, 60, 0
1, 1934030, Note_on_c, 0, 58, 0
1, 1934062, Note_on_c, 0, 57, 77
1, 1934155, Note_on_c, 0, 57, 0
1, 1934156, Note_on_c, 0, 53, 76
1, 1934200, Control_c, 0, 64, 101
1, 1934219, Control_c, 0, 64, 58
1, 1934252, Note_on_c, 0, 52, 70
1, 1934254, Note_on_c, 0, 53, 0
1, 1934256, Control_c, 0, 64, 0
1, 1934294, Control_c, 0, 64, 16
1, 1934314, Control_c, 0, 64, 44
1, 1934331, Control_c, 0, 64, 69
1, 1934344, Note_on_c, 0, 53, 62
1, 1934350, Control_c, 0, 64, 97
1, 1934353, Note_on_c, 0, 52, 0
1, 1934369, Control_c, 0, 64, 127
1, 1934446, Note_on_c, 0, 53, 0
1, 1934448, Note_on_c, 0, 55, 78
1, 1934535, Note_on_c, 0, 55, 0
1, 1934537, Note_on_c, 0, 57, 75
1, 1934554, Control_c, 0, 64, 116
1, 1934571, Control_c, 0, 64, 71
1, 1934590, Control_c, 0, 64, 37
1, 1934608, Control_c, 0, 64, 43
1, 1934615, Note_on_c, 0, 57, 0
1, 1934626, Control_c, 0, 64, 62
1, 1934630, Note_on_c, 0, 53, 66
1, 1934646, Control_c, 0, 64, 84
1, 1934666, Control_c, 0, 64, 117
1, 1934682, Control_c, 0, 64, 127
1, 1934711, Note_on_c, 0, 53, 0
1, 1934745, Note_on_c, 0, 52, 76
1, 1934755, Control_c, 0, 64, 120
1, 1934775, Control_c, 0, 64, 77
1, 1934793, Control_c, 0, 64, 29
1, 1934813, Control_c, 0, 64, 0
1, 1934830, Control_c, 0, 64, 26
1, 1934847, Note_on_c, 0, 52, 0
1, 1934848, Control_c, 0, 64, 54
1, 1934850, Note_on_c, 0, 48, 67
1, 1934879, Control_c, 0, 64, 82
1, 1934897, Control_c, 0, 64, 108
1, 1934914, Control_c, 0, 64, 127
1, 1934958, Note_on_c, 0, 48, 0
1, 1934959, Note_on_c, 0, 50, 69
1, 1935052, Note_on_c, 0, 50, 0
1, 1935052, Note_on_c, 0, 52, 67
1, 1935135, Note_on_c, 0, 52, 0
1, 1935158, Note_on_c, 0, 53, 73
1, 1935237, Note_on_c, 0, 53, 0
1, 1935260, Note_on_c, 0, 55, 63
1, 1935353, Note_on_c, 0, 55, 0
1, 1935365, Note_on_c, 0, 57, 66
1, 1935367, Note_on_c, 0, 69, 81
1, 1935377, Control_c, 0, 64, 118
1, 1935397, Control_c, 0, 64, 72
1, 1935414, Control_c, 0, 64, 0
1, 1935479, Note_on_c, 0, 57, 0
1, 1935487, Control_c, 0, 64, 15
1, 1935494, Note_on_c, 0, 55, 66
1, 1935507, Control_c, 0, 64, 47
1, 1935525, Control_c, 0, 64, 76
1, 1935544, Control_c, 0, 64, 98
1, 1935563, Control_c, 0, 64, 123
1, 1935569, Note_on_c, 0, 55, 0
1, 1935571, Note_on_c, 0, 53, 67
1, 1935581, Control_c, 0, 64, 127
1, 1935646, Note_on_c, 0, 53, 0
1, 1935660, Note_on_c, 0, 48, 68
1, 1935683, Note_on_c, 0, 67, 89
1, 1935721, Note_on_c, 0, 48, 0
1, 1935760, Note_on_c, 0, 69, 0
1, 1935784, Note_on_c, 0, 60, 72
1, 1935869, Note_on_c, 0, 60, 0
1, 1935883, Note_on_c, 0, 58, 61
1, 1935972, Note_on_c, 0, 58, 0
1, 1936006, Note_on_c, 0, 57, 57
1, 1936026, Note_on_c, 0, 65, 82
1, 1936055, Control_c, 0, 64, 103
1, 1936072, Control_c, 0, 64, 61
1, 1936076, Note_on_c, 0, 57, 0
1, 1936085, Note_on_c, 0, 67, 0
1, 1936089, Control_c, 0, 64, 0
1, 1936099, Note_on_c, 0, 53, 66
1, 1936146, Control_c, 0, 64, 9
1, 1936165, Control_c, 0, 64, 45
1, 1936175, Note_on_c, 0, 53, 0
1, 1936184, Control_c, 0, 64, 75
1, 1936198, Note_on_c, 0, 62, 68
1, 1936202, Control_c, 0, 64, 103
1, 1936221, Control_c, 0, 64, 127
1, 1936234, Note_on_c, 0, 62, 0
1, 1936341, Note_on_c, 0, 60, 46
1, 1936419, Note_on_c, 0, 65, 0
1, 1936450, Note_on_c, 0, 58, 57
1, 1936500, Note_on_c, 0, 58, 0
1, 1936567, Note_on_c, 0, 57, 68
1, 1936663, Note_on_c, 0, 57, 0
1, 1936684, Note_on_c, 0, 54, 60
1, 1936699, Note_on_c, 0, 72, 82
1, 1936700, Control_c, 0, 64, 110
1, 1936721, Control_c, 0, 64, 63
1, 1936740, Control_c, 0, 64, 0
1, 1936789, Note_on_c, 0, 54, 0
1, 1936805, Note_on_c, 0, 55, 64
1, 1936822, Control_c, 0, 64, 34
1, 1936837, Note_on_c, 0, 60, 0
1, 1936840, Control_c, 0, 64, 62
1, 1936860, Control_c, 0, 64, 94
1, 1936877, Note_on_c, 0, 55, 0
1, 1936878, Control_c, 0, 64, 127
1, 1936898, Note_on_c, 0, 57, 72
1, 1936991, Note_on_c, 0, 57, 0
1, 1937006, Note_on_c, 0, 55, 72
1, 1937020, Note_on_c, 0, 70, 89
1, 1937091, Note_on_c, 0, 55, 0
1, 1937095, Note_on_c, 0, 72, 0
1, 1937108, Note_on_c, 0, 52, 61
1, 1937169, Note_on_c, 0, 52, 0
1, 1937218, Note_on_c, 0, 60, 63
1, 1937328, Note_on_c, 0, 60, 0
1, 1937361, Note_on_c, 0, 69, 78
1, 1937366, Note_on_c, 0, 61, 62
1, 1937378, Control_c, 0, 64, 122
1, 1937396, Control_c, 0, 64, 78
1, 1937415, Control_c, 0, 64, 32
1, 1937433, Control_c, 0, 64, 0
1, 1937445, Note_on_c, 0, 61, 0
1, 1937453, Note_on_c, 0, 70, 0
1, 1937470, Control_c, 0, 64, 22
1, 1937475, Note_on_c, 0, 62, 64
1, 1937489, Control_c, 0, 64, 48
1, 1937510, Control_c, 0, 64, 72
1, 1937527, Control_c, 0, 64, 96
1, 1937546, Control_c, 0, 64, 127
1, 1937558, Note_on_c, 0, 62, 0
1, 1937589, Note_on_c, 0, 64, 72
1, 1937690, Note_on_c, 0, 64, 0
1, 1937696, Note_on_c, 0, 65, 79
1, 1937697, Note_on_c, 0, 62, 72
1, 1937750, Note_on_c, 0, 69, 0
1, 1937781, Note_on_c, 0, 62, 0
1, 1937781, Note_on_c, 0, 65, 0
1, 1937789, Note_on_c, 0, 57, 63
1, 1937855, Note_on_c, 0, 57, 0
1, 1937879, Note_on_c, 0, 64, 68
1, 1937980, Control_c, 0, 64, 115
1, 1938000, Control_c, 0, 64, 70
1, 1938009, Note_on_c, 0, 58, 48
1, 1938018, Control_c, 0, 64, 26
1, 1938033, Note_on_c, 0, 64, 0
1, 1938035, Note_on_c, 0, 74, 81
1, 1938052, Note_on_c, 0, 65, 63
1, 1938053, Control_c, 0, 64, 39
1, 1938073, Control_c, 0, 64, 61
1, 1938092, Control_c, 0, 64, 85
1, 1938111, Control_c, 0, 64, 115
1, 1938122, Note_on_c, 0, 58, 0
1, 1938129, Control_c, 0, 64, 127
1, 1938146, Note_on_c, 0, 65, 0
1, 1938164, Note_on_c, 0, 62, 69
1, 1938253, Note_on_c, 0, 62, 0
1, 1938259, Control_c, 0, 64, 121
1, 1938270, Note_on_c, 0, 64, 73
1, 1938277, Control_c, 0, 64, 83
1, 1938296, Control_c, 0, 64, 63
1, 1938313, Control_c, 0, 64, 74
1, 1938332, Control_c, 0, 64, 96
1, 1938341, Note_on_c, 0, 64, 0
1, 1938350, Note_on_c, 0, 72, 90
1, 1938351, Control_c, 0, 64, 127
1, 1938355, Note_on_c, 0, 57, 65
1, 1938370, Note_on_c, 0, 65, 75
1, 1938398, Note_on_c, 0, 74, 0
1, 1938432, Note_on_c, 0, 65, 0
1, 1938439, Note_on_c, 0, 60, 69
1, 1938447, Note_on_c, 0, 57, 0
1, 1938491, Poly_aftertouch_c, 0, 65, 0
1, 1938523, Note_on_c, 0, 60, 0
1, 1938549, Note_on_c, 0, 64, 73
1, 1938638, Control_c, 0, 64, 108
1, 1938658, Control_c, 0, 64, 66
1, 1938668, Note_on_c, 0, 55, 63
1, 1938676, Control_c, 0, 64, 53
1, 1938681, Note_on_c, 0, 64, 0
1, 1938681, Note_on_c, 0, 70, 87
1, 1938694, Control_c, 0, 64, 65
1, 1938708, Note_on_c, 0, 65, 59
1, 1938714, Control_c, 0, 64, 78
1, 1938732, Control_c, 0, 64, 100
1, 1938746, Note_on_c, 0, 72, 0
1, 1938749, Control_c, 0, 64, 127
1, 1938783, Note_on_c, 0, 58, 66
1, 1938790, Note_on_c, 0, 55, 0
1, 1938827, Note_on_c, 0, 65, 0
1, 1938880, Note_on_c, 0, 58, 0
1, 1938897, Control_c, 0, 64, 120
1, 1938900, Note_on_c, 0, 64, 68
1, 1938917, Control_c, 0, 64, 116
1, 1938936, Control_c, 0, 64, 127
1, 1938970, Note_on_c, 0, 69, 88
1, 1938978, Note_on_c, 0, 53, 60
1, 1938992, Note_on_c, 0, 65, 68
1, 1939017, Note_on_c, 0, 70, 0
1, 1939035, Note_on_c, 0, 64, 0
1, 1939054, Note_on_c, 0, 57, 65
1, 1939080, Note_on_c, 0, 53, 0
1, 1939143, Note_on_c, 0, 65, 0
1, 1939162, Note_on_c, 0, 57, 0
1, 1939175, Note_on_c, 0, 64, 68
1, 1939287, Control_c, 0, 64, 109
1, 1939300, Note_on_c, 0, 64, 0
1, 1939305, Control_c, 0, 64, 68
1, 1939317, Note_on_c, 0, 59, 52
1, 1939324, Control_c, 0, 64, 0
1, 1939343, Note_on_c, 0, 65, 81
1, 1939418, Control_c, 0, 64, 8
1, 1939426, Note_on_c, 0, 69, 0
1, 1939435, Control_c, 0, 64, 45
1, 1939441, Note_on_c, 0, 59, 0
1, 1939453, Control_c, 0, 64, 70
1, 1939454, Note_on_c, 0, 60, 67
1, 1939472, Control_c, 0, 64, 95
1, 1939492, Control_c, 0, 64, 125
1, 1939541, Note_on_c, 0, 60, 0
1, 1939571, Note_on_c, 0, 62, 63
1, 1939630, Note_on_c, 0, 62, 0
1, 1939645, Note_on_c, 0, 59, 61
1, 1939701, Note_on_c, 0, 59, 0
1, 1939754, Note_on_c, 0, 57, 75
1, 1939791, Note_on_c, 0, 67, 75
1, 1939814, Note_on_c, 0, 65, 0
1, 1939838, Note_on_c, 0, 57, 0
1, 1939856, Note_on_c, 0, 55, 73
1, 1939884, Note_on_c, 0, 69, 80
1, 1939891, Note_on_c, 0, 67, 0
1, 1939963, Note_on_c, 0, 55, 0
1, 1939964, Control_c, 0, 64, 120
1, 1939977, Note_on_c, 0, 52, 59
1, 1939983, Control_c, 0, 64, 80
1, 1939991, Note_on_c, 0, 67, 81
1, 1940000, Control_c, 0, 64, 30
1, 1940019, Control_c, 0, 64, 0
1, 1940042, Note_on_c, 0, 69, 0
1, 1940091, Note_on_c, 0, 52, 0
1, 1940093, Control_c, 0, 64, 31
1, 1940113, Control_c, 0, 64, 60
1, 1940116, Note_on_c, 0, 53, 56
1, 1940133, Control_c, 0, 64, 86
1, 1940150, Control_c, 0, 64, 110
1, 1940169, Control_c, 0, 64, 127
1, 1940180, Note_on_c, 0, 53, 0
1, 1940218, Note_on_c, 0, 55, 66
1, 1940312, Note_on_c, 0, 55, 0
1, 1940326, Note_on_c, 0, 53, 69
1, 1940338, Note_on_c, 0, 60, 79
1, 1940389, Note_on_c, 0, 53, 0
1, 1940453, Note_on_c, 0, 67, 0
1, 1940467, Note_on_c, 0, 52, 41
1, 1940520, Note_on_c, 0, 52, 0
1, 1940543, Note_on_c, 0, 50, 36
1, 1940657, Control_c, 0, 64, 112
1, 1940661, Note_on_c, 0, 46, 50
1, 1940677, Control_c, 0, 64, 67
1, 1940679, Note_on_c, 0, 64, 74
1, 1940682, Note_on_c, 0, 50, 0
1, 1940695, Control_c, 0, 64, 0
1, 1940709, Note_on_c, 0, 48, 61
1, 1940750, Control_c, 0, 64, 16
1, 1940753, Note_on_c, 0, 60, 0
1, 1940769, Control_c, 0, 64, 54
1, 1940778, Note_on_c, 0, 46, 0
1, 1940788, Control_c, 0, 64, 76
1, 1940807, Control_c, 0, 64, 93
1, 1940824, Control_c, 0, 64, 116
1, 1940825, Note_on_c, 0, 48, 0
1, 1940827, Note_on_c, 0, 50, 66
1, 1940844, Control_c, 0, 64, 127
1, 1940918, Note_on_c, 0, 52, 74
1, 1940943, Note_on_c, 0, 50, 0
1, 1941001, Note_on_c, 0, 53, 75
1, 1941004, Note_on_c, 0, 52, 0
1, 1941079, Note_on_c, 0, 55, 79
1, 1941081, Note_on_c, 0, 53, 0
1, 1941166, Note_on_c, 0, 55, 0
1, 1941167, Note_on_c, 0, 57, 78
1, 1941176, Note_on_c, 0, 65, 68
1, 1941231, Note_on_c, 0, 64, 0
1, 1941265, Note_on_c, 0, 58, 78
1, 1941280, Note_on_c, 0, 67, 87
1, 1941294, Note_on_c, 0, 57, 0
1, 1941306, Note_on_c, 0, 65, 0
1, 1941312, Note_on_c, 0, 60, 77
1, 1941362, Control_c, 0, 64, 88
1, 1941380, Control_c, 0, 64, 15
1, 1941381, Note_on_c, 0, 60, 0
1, 1941399, Control_c, 0, 64, 0
1, 1941411, Note_on_c, 0, 62, 72
1, 1941500, Control_c, 0, 64, 36
1, 1941510, Note_on_c, 0, 62, 0
1, 1941512, Note_on_c, 0, 64, 72
1, 1941519, Control_c, 0, 64, 72
1, 1941540, Control_c, 0, 64, 102
1, 1941556, Control_c, 0, 64, 127
1, 1941563, Note_on_c, 0, 57, 78
1, 1941579, Note_on_c, 0, 67, 0
1, 1941581, Note_on_c, 0, 58, 0
1, 1941591, Note_on_c, 0, 65, 97
1, 1941597, Note_on_c, 0, 64, 0
1, 1941611, Note_on_c, 0, 57, 0
1, 1941677, Note_on_c, 0, 65, 0
1, 1941695, Note_on_c, 0, 67, 85
1, 1941758, Note_on_c, 0, 67, 0
1, 1941763, Note_on_c, 0, 69, 75
1, 1941792, Note_on_c, 0, 69, 0
1, 1941847, Note_on_c, 0, 58, 47
1, 1941944, Note_on_c, 0, 69, 79
1, 1941952, Note_on_c, 0, 72, 61
1, 1941983, Control_c, 0, 64, 118
1, 1942002, Control_c, 0, 64, 75
1, 1942020, Note_on_c, 0, 72, 0
1, 1942021, Control_c, 0, 64, 41
1, 1942040, Control_c, 0, 64, 44
1, 1942056, Control_c, 0, 64, 63
1, 1942060, Note_on_c, 0, 74, 62
1, 1942075, Control_c, 0, 64, 82
1, 1942094, Control_c, 0, 64, 108
1, 1942113, Control_c, 0, 64, 127
1, 1942130, Note_on_c, 0, 74, 0
1, 1942142, Note_on_c, 0, 77, 67
1, 1942190, Note_on_c, 0, 77, 0
1, 1942243, Note_on_c, 0, 67, 89
1, 1942258, Note_on_c, 0, 76, 72
1, 1942353, Note_on_c, 0, 69, 0
1, 1942371, Note_on_c, 0, 84, 72
1, 1942379, Note_on_c, 0, 76, 0
1, 1942455, Control_c, 0, 64, 103
1, 1942466, Note_on_c, 0, 82, 68
1, 1942471, Note_on_c, 0, 84, 0
1, 1942474, Control_c, 0, 64, 66
1, 1942492, Control_c, 0, 64, 15
1, 1942511, Control_c, 0, 64, 0
1, 1942512, Control_c, 0, 67, 14
1, 1942530, Control_c, 0, 67, 30
1, 1942549, Control_c, 0, 67, 44
1, 1942567, Control_c, 0, 67, 51
1, 1942571, Note_on_c, 0, 64, 77
1, 1942573, Note_on_c, 0, 82, 0
1, 1942577, Note_on_c, 0, 79, 66
1, 1942585, Control_c, 0, 64, 16
1, 1942605, Control_c, 0, 64, 49
1, 1942622, Control_c, 0, 64, 77
1, 1942640, Control_c, 0, 64, 99
1, 1942659, Control_c, 0, 64, 125
1, 1942672, Note_on_c, 0, 79, 0
1, 1942677, Note_on_c, 0, 76, 73
1, 1942682, Note_on_c, 0, 58, 0
1, 1942700, Note_on_c, 0, 67, 0
1, 1942727, Note_on_c, 0, 76, 0
1, 1942734, Control_c, 0, 67, 46
1, 1942774, Note_on_c, 0, 72, 73
1, 1942789, Control_c, 0, 67, 42
1, 1942828, Note_on_c, 0, 64, 0
1, 1942844, Note_on_c, 0, 72, 0
1, 1942844, Control_c, 0, 67, 36
1, 1942853, Note_on_c, 0, 60, 65
1, 1942868, Note_on_c, 0, 70, 75
1, 1942900, Control_c, 0, 67, 31
1, 1942924, Note_on_c, 0, 60, 0
1, 1942954, Note_on_c, 0, 67, 74
1, 1942971, Note_on_c, 0, 70, 0
1, 1942973, Control_c, 0, 67, 27
1, 1943011, Control_c, 0, 67, 20
1, 1943029, Control_c, 0, 67, 16
1, 1943052, Note_on_c, 0, 64, 78
1, 1943066, Control_c, 0, 67, 10
1, 1943071, Note_on_c, 0, 67, 0
1, 1943123, Note_on_c, 0, 39, 47
1, 1943142, Control_c, 0, 64, 93
1, 1943161, Control_c, 0, 64, 68
1, 1943170, Note_on_c, 0, 39, 0
1, 1943175, Note_on_c, 0, 44, 18
1, 1943177, Control_c, 0, 64, 73
1, 1943188, Note_on_c, 0, 64, 0
1, 1943192, Note_on_c, 0, 65, 76
1, 1943192, Note_on_c, 0, 45, 67
1, 1943195, Control_c, 0, 64, 82
1, 1943217, Control_c, 0, 64, 100
1, 1943226, Note_on_c, 0, 67, 42
1, 1943227, Note_on_c, 0, 67, 0
1, 1943235, Control_c, 0, 64, 127
1, 1943242, Note_on_c, 0, 44, 0
1, 1943287, Note_on_c, 0, 46, 75
1, 1943294, Note_on_c, 0, 45, 0
1, 1943365, Note_on_c, 0, 46, 0
1, 1943378, Note_on_c, 0, 50, 49
1, 1943429, Note_on_c, 0, 47, 51
1, 1943471, Note_on_c, 0, 47, 0
1, 1943551, Note_on_c, 0, 50, 0
1, 1943615, Note_on_c, 0, 67, 80
1, 1943655, Note_on_c, 0, 65, 0
1, 1943704, Note_on_c, 0, 69, 87
1, 1943743, Note_on_c, 0, 67, 0
1, 1943948, Control_c, 0, 67, 0
1, 1943988, Note_on_c, 0, 70, 92
1, 1944010, Note_on_c, 0, 69, 0
1, 1944022, Note_on_c, 0, 70, 0
1, 1944042, Note_on_c, 0, 71, 60
1, 1944069, Note_on_c, 0, 71, 0
1, 1944104, Note_on_c, 0, 63, 75
1, 1944332, Note_on_c, 0, 74, 93
1, 1944355, Note_on_c, 0, 77, 69
1, 1944383, Control_c, 0, 64, 116
1, 1944401, Control_c, 0, 64, 74
1, 1944420, Control_c, 0, 64, 30
1, 1944437, Control_c, 0, 64, 0
1, 1944452, Note_on_c, 0, 77, 0
1, 1944454, Note_on_c, 0, 79, 68
1, 1944493, Control_c, 0, 64, 38
1, 1944510, Control_c, 0, 64, 67
1, 1944530, Control_c, 0, 64, 99
1, 1944538, Note_on_c, 0, 79, 0
1, 1944544, Note_on_c, 0, 82, 75
1, 1944549, Control_c, 0, 64, 127
1, 1944630, Note_on_c, 0, 82, 0
1, 1944640, Note_on_c, 0, 81, 83
1, 1944648, Note_on_c, 0, 72, 88
1, 1944743, Note_on_c, 0, 89, 80
1, 1944778, Note_on_c, 0, 81, 0
1, 1944783, Note_on_c, 0, 74, 0
1, 1944831, Note_on_c, 0, 87, 71
1, 1944862, Note_on_c, 0, 89, 0
1, 1944939, Note_on_c, 0, 84, 75
1, 1944961, Note_on_c, 0, 87, 0
1, 1944967, Note_on_c, 0, 69, 79
1, 1945052, Note_on_c, 0, 81, 80
1, 1945056, Note_on_c, 0, 84, 0
1, 1945080, Note_on_c, 0, 63, 0
1, 1945123, Note_on_c, 0, 81, 0
1, 1945127, Note_on_c, 0, 72, 0
1, 1945145, Note_on_c, 0, 77, 77
1, 1945226, Note_on_c, 0, 77, 0
1, 1945237, Note_on_c, 0, 65, 75
1, 1945242, Note_on_c, 0, 69, 0
1, 1945254, Note_on_c, 0, 75, 78
1, 1945275, Note_on_c, 0, 65, 0
1, 1945337, Note_on_c, 0, 72, 79
1, 1945360, Note_on_c, 0, 75, 0
1, 1945446, Note_on_c, 0, 69, 75
1, 1945525, Note_on_c, 0, 46, 62
1, 1945533, Note_on_c, 0, 72, 0
1, 1945539, Control_c, 0, 64, 94
1, 1945547, Note_on_c, 0, 77, 78
1, 1945559, Control_c, 0, 64, 44
1, 1945573, Note_on_c, 0, 65, 72
1, 1945577, Control_c, 0, 64, 0
1, 1945579, Note_on_c, 0, 74, 63
1, 1945594, Note_on_c, 0, 69, 0
1, 1945633, Control_c, 0, 64, 24
1, 1945651, Control_c, 0, 64, 58
1, 1945671, Control_c, 0, 64, 92
1, 1945687, Note_on_c, 0, 46, 0
1, 1945687, Control_c, 0, 64, 127
1, 1945709, Note_on_c, 0, 51, 67
1, 1945757, Note_on_c, 0, 48, 58
1, 1945799, Control_c, 0, 64, 106
1, 1945809, Note_on_c, 0, 51, 0
1, 1945816, Control_c, 0, 64, 86
1, 1945837, Control_c, 0, 64, 94
1, 1945854, Control_c, 0, 64, 121
1, 1945858, Note_on_c, 0, 50, 67
1, 1945873, Control_c, 0, 64, 127
1, 1945874, Note_on_c, 0, 48, 0
1, 1945914, Note_on_c, 0, 50, 0
1, 1945933, Note_on_c, 0, 74, 0
1, 1945959, Note_on_c, 0, 62, 73
1, 1945985, Note_on_c, 0, 65, 0
1, 1946049, Note_on_c, 0, 62, 0
1, 1946057, Note_on_c, 0, 58, 67
1, 1946174, Note_on_c, 0, 50, 68
1, 1946194, Note_on_c, 0, 74, 86
1, 1946200, Note_on_c, 0, 58, 0
1, 1946216, Control_c, 0, 64, 113
1, 1946221, Note_on_c, 0, 65, 54
1, 1946234, Control_c, 0, 64, 68
1, 1946252, Control_c, 0, 64, 0
1, 1946257, Note_on_c, 0, 69, 44
1, 1946274, Note_on_c, 0, 77, 0
1, 1946279, Note_on_c, 0, 50, 0
1, 1946292, Note_on_c, 0, 52, 66
1, 1946347, Control_c, 0, 64, 48
1, 1946364, Control_c, 0, 64, 81
1, 1946373, Note_on_c, 0, 69, 0
1, 1946383, Control_c, 0, 64, 107
1, 1946394, Note_on_c, 0, 52, 0
1, 1946396, Note_on_c, 0, 55, 67
1, 1946401, Control_c, 0, 64, 124
1, 1946420, Control_c, 0, 64, 117
1, 1946439, Control_c, 0, 64, 89
1, 1946440, Note_on_c, 0, 65, 0
1, 1946458, Control_c, 0, 64, 47
1, 1946477, Control_c, 0, 64, 0
1, 1946489, Note_on_c, 0, 55, 0
1, 1946498, Note_on_c, 0, 53, 68
1, 1946533, Control_c, 0, 64, 26
1, 1946549, Control_c, 0, 64, 56
1, 1946569, Control_c, 0, 64, 85
1, 1946580, Note_on_c, 0, 65, 61
1, 1946584, Note_on_c, 0, 53, 0
1, 1946588, Control_c, 0, 64, 112
1, 1946605, Control_c, 0, 64, 127
1, 1946619, Note_on_c, 0, 65, 0
1, 1946667, Note_on_c, 0, 62, 68
1, 1946756, Note_on_c, 0, 62, 0
1, 1946771, Control_c, 0, 64, 120
1, 1946777, Note_on_c, 0, 70, 75
1, 1946779, Note_on_c, 0, 55, 61
1, 1946787, Note_on_c, 0, 67, 51
1, 1946790, Control_c, 0, 64, 75
1, 1946809, Control_c, 0, 64, 0
1, 1946830, Note_on_c, 0, 67, 0
1, 1946860, Note_on_c, 0, 74, 0
1, 1946888, Note_on_c, 0, 55, 0
1, 1946901, Note_on_c, 0, 57, 54
1, 1946938, Control_c, 0, 64, 43
1, 1946945, Note_on_c, 0, 60, 64
1, 1946957, Control_c, 0, 64, 65
1, 1946973, Note_on_c, 0, 57, 0
1, 1946975, Control_c, 0, 64, 69
1, 1946995, Control_c, 0, 64, 63
1, 1947013, Control_c, 0, 64, 52
1, 1947032, Control_c, 0, 64, 41
1, 1947066, Note_on_c, 0, 60, 0
1, 1947067, Note_on_c, 0, 58, 64
1, 1947080, Control_c, 0, 64, 60
1, 1947097, Control_c, 0, 64, 76
1, 1947114, Control_c, 0, 64, 91
1, 1947134, Control_c, 0, 64, 113
1, 1947150, Control_c, 0, 64, 127
1, 1947153, Note_on_c, 0, 67, 58
1, 1947170, Note_on_c, 0, 58, 0
1, 1947185, Note_on_c, 0, 67, 0
1, 1947246, Note_on_c, 0, 64, 71
1, 1947289, Note_on_c, 0, 64, 0
1, 1947336, Control_c, 0, 64, 96
1, 1947356, Control_c, 0, 64, 53
1, 1947364, Note_on_c, 0, 65, 57
1, 1947375, Note_on_c, 0, 69, 67
1, 1947375, Control_c, 0, 64, 0
1, 1947416, Note_on_c, 0, 65, 0
1, 1947448, Note_on_c, 0, 70, 0
1, 1947452, Note_on_c, 0, 62, 65
1, 1947485, Control_c, 0, 64, 27
1, 1947504, Control_c, 0, 64, 50
1, 1947505, Note_on_c, 0, 62, 0
1, 1947522, Control_c, 0, 64, 76
1, 1947541, Control_c, 0, 64, 93
1, 1947560, Control_c, 0, 64, 112
1, 1947578, Control_c, 0, 64, 125
1, 1947597, Control_c, 0, 67, 8
1, 1947597, Note_on_c, 0, 55, 38
1, 1947639, Note_on_c, 0, 55, 0
1, 1947646, Note_on_c, 0, 69, 0
1, 1947673, Note_on_c, 0, 53, 63
1, 1947681, Poly_aftertouch_c, 0, 57, 0
1, 1947713, Note_on_c, 0, 53, 0
1, 1947755, Note_on_c, 0, 50, 65
1, 1947839, Note_on_c, 0, 45, 57
1, 1947868, Note_on_c, 0, 50, 0
1, 1947989, Note_on_c, 0, 46, 52
1, 1947993, Note_on_c, 0, 45, 0
1, 1948031, Control_c, 0, 64, 90
1, 1948049, Control_c, 0, 64, 49
1, 1948049, Note_on_c, 0, 67, 67
1, 1948069, Control_c, 0, 64, 0
1, 1948083, Note_on_c, 0, 65, 57
1, 1948163, Control_c, 0, 64, 20
1, 1948180, Control_c, 0, 64, 43
1, 1948199, Control_c, 0, 64, 66
1, 1948211, Note_on_c, 0, 62, 60
1, 1948213, Note_on_c, 0, 65, 0
1, 1948218, Control_c, 0, 64, 81
1, 1948236, Control_c, 0, 64, 93
1, 1948253, Control_c, 0, 64, 102
1, 1948259, Note_on_c, 0, 46, 0
1, 1948273, Control_c, 0, 64, 108
1, 1948291, Control_c, 0, 64, 116
1, 1948304, Note_on_c, 0, 58, 66
1, 1948310, Note_on_c, 0, 62, 0
1, 1948310, Control_c, 0, 64, 123
1, 1948330, Control_c, 0, 64, 127
1, 1948397, Note_on_c, 0, 55, 58
1, 1948489, Note_on_c, 0, 55, 0
1, 1948502, Note_on_c, 0, 53, 71
1, 1948533, Control_c, 0, 67, 0
1, 1948605, Note_on_c, 0, 53, 0
1, 1948610, Note_on_c, 0, 50, 67
1, 1948628, Note_on_c, 0, 58, 0
1, 1948672, Note_on_c, 0, 67, 0
1, 1948700, Note_on_c, 0, 46, 75
1, 1948724, Note_on_c, 0, 50, 0
1, 1948773, Note_on_c, 0, 46, 0
1, 1948844, Note_on_c, 0, 43, 59
1, 1948929, Control_c, 0, 64, 117
1, 1948949, Control_c, 0, 64, 77
1, 1948967, Control_c, 0, 64, 35
1, 1948982, Note_on_c, 0, 58, 59
1, 1948984, Control_c, 0, 64, 21
1, 1948998, Note_on_c, 0, 41, 69
1, 1949004, Note_on_c, 0, 43, 0
1, 1949004, Control_c, 0, 64, 30
1, 1949023, Control_c, 0, 64, 59
1, 1949025, Note_on_c, 0, 58, 0
1, 1949042, Control_c, 0, 64, 88
1, 1949053, Note_on_c, 0, 67, 58
1, 1949060, Control_c, 0, 64, 115
1, 1949078, Control_c, 0, 64, 127
1, 1949122, Note_on_c, 0, 41, 0
1, 1949131, Note_on_c, 0, 40, 74
1, 1949145, Note_on_c, 0, 72, 68
1, 1949149, Note_on_c, 0, 67, 0
1, 1949237, Note_on_c, 0, 40, 0
1, 1949238, Note_on_c, 0, 38, 68
1, 1949340, Note_on_c, 0, 36, 77
1, 1949349, Note_on_c, 0, 38, 0
1, 1949413, Poly_aftertouch_c, 0, 44, 0
1, 1949467, Control_c, 0, 64, 121
1, 1949473, Note_on_c, 0, 48, 105
1, 1949477, Note_on_c, 0, 36, 0
1, 1949484, Control_c, 0, 64, 85
1, 1949496, Note_on_c, 0, 73, 81
1, 1949504, Control_c, 0, 64, 48
1, 1949506, Note_on_c, 0, 48, 0
1, 1949509, Note_on_c, 0, 64, 76
1, 1949522, Control_c, 0, 64, 24
1, 1949526, Note_on_c, 0, 72, 0
1, 1949588, Note_on_c, 0, 64, 0
1, 1949645, Note_on_c, 0, 70, 68
1, 1949683, Note_on_c, 0, 73, 0
1, 1949702, Note_on_c, 0, 58, 18
1, 1949759, Note_on_c, 0, 58, 0
1, 1949759, Note_on_c, 0, 58, 40
1, 1949764, Control_c, 0, 64, 43
1, 1949771, Note_on_c, 0, 61, 93
1, 1949783, Control_c, 0, 64, 62
1, 1949790, Note_on_c, 0, 68, 78
1, 1949802, Control_c, 0, 64, 79
1, 1949814, Note_on_c, 0, 70, 0
1, 1949819, Control_c, 0, 64, 98
1, 1949839, Control_c, 0, 64, 123
1, 1949867, Control_c, 0, 64, 127
1, 1949947, Note_on_c, 0, 68, 0
1, 1949949, Note_on_c, 0, 67, 79
1, 1949964, Note_on_c, 0, 61, 0
1, 1949983, Note_on_c, 0, 58, 0
1, 1950070, Control_c, 0, 64, 119
1, 1950073, Note_on_c, 0, 60, 87
1, 1950079, Note_on_c, 0, 56, 82
1, 1950085, Note_on_c, 0, 68, 82
1, 1950088, Control_c, 0, 64, 96
1, 1950107, Control_c, 0, 64, 73
1, 1950110, Note_on_c, 0, 67, 0
1, 1950112, Note_on_c, 0, 60, 0
1, 1950125, Control_c, 0, 64, 57
1, 1950126, Note_on_c, 0, 56, 0
1, 1950144, Control_c, 0, 64, 52
1, 1950206, Note_on_c, 0, 70, 80
1, 1950218, Note_on_c, 0, 58, 87
1, 1950229, Note_on_c, 0, 55, 73
1, 1950232, Note_on_c, 0, 68, 0
1, 1950260, Note_on_c, 0, 55, 0
1, 1950269, Note_on_c, 0, 58, 0
1, 1950345, Note_on_c, 0, 53, 85
1, 1950350, Note_on_c, 0, 56, 80
1, 1950350, Note_on_c, 0, 72, 87
1, 1950365, Note_on_c, 0, 70, 0
1, 1950383, Note_on_c, 0, 56, 0
1, 1950385, Note_on_c, 0, 53, 0
1, 1950386, Control_c, 0, 64, 50
1, 1950517, Note_on_c, 0, 68, 73
1, 1950552, Note_on_c, 0, 72, 0
1, 1950557, Note_on_c, 0, 58, 68
1, 1950558, Note_on_c, 0, 55, 64
1, 1950636, Note_on_c, 0, 60, 98
1, 1950638, Note_on_c, 0, 55, 0
1, 1950639, Note_on_c, 0, 56, 81
1, 1950641, Note_on_c, 0, 58, 0
1, 1950643, Note_on_c, 0, 67, 78
1, 1950658, Note_on_c, 0, 68, 0
1, 1950666, Note_on_c, 0, 56, 0
1, 1950689, Note_on_c, 0, 60, 0
1, 1950777, Note_on_c, 0, 67, 0
1, 1950789, Note_on_c, 0, 65, 82
1, 1950926, Note_on_c, 0, 68, 80
1, 1950960, Note_on_c, 0, 65, 0
1, 1951042, Control_c, 0, 64, 47
1, 1951044, Note_on_c, 0, 72, 81
1, 1951057, Note_on_c, 0, 68, 0
1, 1951061, Control_c, 0, 64, 44
1, 1951079, Control_c, 0, 64, 41
1, 1951135, Control_c, 0, 64, 44
1, 1951154, Control_c, 0, 64, 57
1, 1951161, Note_on_c, 0, 36, 98
1, 1951171, Control_c, 0, 64, 76
1, 1951189, Control_c, 0, 64, 104
1, 1951192, Note_on_c, 0, 73, 88
1, 1951200, Note_on_c, 0, 36, 0
1, 1951207, Control_c, 0, 64, 127
1, 1951233, Note_on_c, 0, 72, 0
1, 1951332, Note_on_c, 0, 70, 72
1, 1951368, Note_on_c, 0, 73, 0
1, 1951458, Note_on_c, 0, 68, 82
1, 1951460, Note_on_c, 0, 61, 84
1, 1951468, Note_on_c, 0, 58, 80
1, 1951487, Note_on_c, 0, 70, 0
1, 1951561, Poly_aftertouch_c, 0, 57, 0
1, 1951586, Note_on_c, 0, 68, 0
1, 1951599, Note_on_c, 0, 67, 86
1, 1951639, Note_on_c, 0, 61, 0
1, 1951659, Note_on_c, 0, 58, 0
1, 1951735, Control_c, 0, 64, 104
1, 1951738, Note_on_c, 0, 60, 84
1, 1951752, Note_on_c, 0, 79, 81
1, 1951753, Note_on_c, 0, 56, 80
1, 1951754, Control_c, 0, 64, 79
1, 1951774, Control_c, 0, 64, 60
1, 1951780, Note_on_c, 0, 60, 0
1, 1951792, Note_on_c, 0, 56, 0
1, 1951792, Control_c, 0, 64, 54
1, 1951794, Note_on_c, 0, 67, 0
1, 1951830, Control_c, 0, 64, 51
1, 1951848, Control_c, 0, 64, 49
1, 1951880, Note_on_c, 0, 58, 81
1, 1951882, Note_on_c, 0, 55, 79
1, 1951907, Note_on_c, 0, 76, 80
1, 1951916, Note_on_c, 0, 55, 0
1, 1951918, Note_on_c, 0, 58, 0
1, 1951919, Note_on_c, 0, 79, 0
1, 1951977, Control_c, 0, 64, 47
1, 1952003, Note_on_c, 0, 53, 81
1, 1952011, Note_on_c, 0, 56, 77
1, 1952016, Note_on_c, 0, 55, 48
1, 1952035, Note_on_c, 0, 73, 86
1, 1952039, Note_on_c, 0, 53, 0
1, 1952039, Note_on_c, 0, 56, 0
1, 1952048, Note_on_c, 0, 76, 0
1, 1952054, Note_on_c, 0, 55, 0
1, 1952137, Note_on_c, 0, 73, 0
1, 1952160, Note_on_c, 0, 72, 81
1, 1952198, Note_on_c, 0, 58, 67
1, 1952201, Note_on_c, 0, 55, 49
1, 1952276, Note_on_c, 0, 60, 92
1, 1952281, Note_on_c, 0, 56, 82
1, 1952288, Note_on_c, 0, 55, 0
1, 1952290, Note_on_c, 0, 58, 0
1, 1952295, Note_on_c, 0, 84, 84
1, 1952310, Note_on_c, 0, 56, 0
1, 1952317, Note_on_c, 0, 60, 0
1, 1952441, Note_on_c, 0, 80, 86
1, 1952452, Note_on_c, 0, 72, 0
1, 1952474, Note_on_c, 0, 84, 0
1, 1952559, Note_on_c, 0, 77, 81
1, 1952596, Note_on_c, 0, 80, 0
1, 1952686, Note_on_c, 0, 72, 85
1, 1952691, Control_c, 0, 64, 43
1, 1952699, Note_on_c, 0, 77, 0
1, 1952709, Control_c, 0, 64, 41
1, 1952777, Note_on_c, 0, 41, 97
1, 1952784, Control_c, 0, 64, 45
1, 1952802, Control_c, 0, 64, 64
1, 1952816, Note_on_c, 0, 78, 89
1, 1952821, Control_c, 0, 64, 90
1, 1952824, Note_on_c, 0, 41, 0
1, 1952841, Control_c, 0, 64, 127
1, 1952844, Note_on_c, 0, 72, 0
1, 1952939, Note_on_c, 0, 75, 81
1, 1952977, Note_on_c, 0, 78, 0
1, 1953053, Note_on_c, 0, 66, 85
1, 1953059, Note_on_c, 0, 63, 75
1, 1953072, Note_on_c, 0, 73, 89
1, 1953096, Note_on_c, 0, 75, 0
1, 1953204, Note_on_c, 0, 72, 87
1, 1953208, Note_on_c, 0, 66, 0
1, 1953216, Note_on_c, 0, 73, 0
1, 1953220, Note_on_c, 0, 63, 0
1, 1953301, Control_c, 0, 64, 122
1, 1953304, Note_on_c, 0, 65, 88
1, 1953316, Note_on_c, 0, 61, 82
1, 1953321, Control_c, 0, 64, 94
1, 1953332, Note_on_c, 0, 73, 87
1, 1953338, Note_on_c, 0, 65, 0
1, 1953340, Control_c, 0, 64, 69
1, 1953352, Note_on_c, 0, 61, 0
1, 1953357, Control_c, 0, 64, 53
1, 1953360, Note_on_c, 0, 72, 0
1, 1953377, Control_c, 0, 64, 49
1, 1953431, Control_c, 0, 64, 47
1, 1953439, Note_on_c, 0, 63, 84
1, 1953450, Note_on_c, 0, 75, 86
1, 1953460, Note_on_c, 0, 60, 62
1, 1953476, Note_on_c, 0, 63, 0
1, 1953486, Note_on_c, 0, 73, 0
1, 1953489, Note_on_c, 0, 60, 0
1, 1953551, Note_on_c, 0, 61, 62
1, 1953562, Note_on_c, 0, 58, 80
1, 1953567, Note_on_c, 0, 60, 62
1, 1953576, Note_on_c, 0, 77, 88
1, 1953589, Note_on_c, 0, 75, 0
1, 1953604, Note_on_c, 0, 61, 0
1, 1953606, Note_on_c, 0, 58, 0
1, 1953609, Note_on_c, 0, 60, 0
1, 1953701, Control_c, 0, 64, 45
1, 1953712, Note_on_c, 0, 73, 82
1, 1953723, Note_on_c, 0, 77, 0
1, 1953724, Note_on_c, 0, 60, 72
1, 1953748, Note_on_c, 0, 63, 70
1, 1953815, Note_on_c, 0, 60, 0
1, 1953821, Note_on_c, 0, 72, 89
1, 1953823, Note_on_c, 0, 61, 81
1, 1953824, Note_on_c, 0, 73, 0
1, 1953826, Note_on_c, 0, 65, 91
1, 1953850, Note_on_c, 0, 63, 0
1, 1953860, Note_on_c, 0, 61, 0
1, 1953865, Note_on_c, 0, 65, 0
1, 1953906, Note_on_c, 0, 72, 0
1, 1953957, Note_on_c, 0, 70, 91
1, 1954077, Note_on_c, 0, 73, 90
1, 1954109, Note_on_c, 0, 70, 0
1, 1954163, Control_c, 0, 64, 42
1, 1954190, Note_on_c, 0, 77, 84
1, 1954199, Control_c, 0, 64, 34
1, 1954220, Control_c, 0, 64, 22
1, 1954229, Note_on_c, 0, 73, 0
1, 1954237, Control_c, 0, 64, 0
1, 1954298, Note_on_c, 0, 44, 93
1, 1954327, Note_on_c, 0, 82, 88
1, 1954331, Control_c, 0, 64, 18
1, 1954343, Note_on_c, 0, 77, 0
1, 1954348, Control_c, 0, 64, 50
1, 1954351, Note_on_c, 0, 44, 0
1, 1954367, Control_c, 0, 64, 81
1, 1954385, Control_c, 0, 64, 110
1, 1954404, Control_c, 0, 64, 127
1, 1954443, Note_on_c, 0, 78, 89
1, 1954474, Note_on_c, 0, 82, 0
1, 1954590, Note_on_c, 0, 77, 89
1, 1954591, Note_on_c, 0, 66, 91
1, 1954600, Note_on_c, 0, 70, 97
1, 1954601, Note_on_c, 0, 78, 0
1, 1954671, Note_on_c, 0, 67, 68
1, 1954737, Note_on_c, 0, 67, 0
1, 1954739, Note_on_c, 0, 75, 91
1, 1954745, Note_on_c, 0, 77, 0
1, 1954763, Note_on_c, 0, 66, 0
1, 1954772, Note_on_c, 0, 70, 0
1, 1954867, Note_on_c, 0, 68, 89
1, 1954875, Note_on_c, 0, 65, 79
1, 1954876, Note_on_c, 0, 87, 88
1, 1954914, Control_c, 0, 64, 122
1, 1954919, Note_on_c, 0, 65, 0
1, 1954920, Note_on_c, 0, 75, 0
1, 1954922, Note_on_c, 0, 68, 0
1, 1954933, Control_c, 0, 64, 99
1, 1954951, Control_c, 0, 64, 74
1, 1954970, Control_c, 0, 64, 55
1, 1954988, Control_c, 0, 64, 47
1, 1954995, Note_on_c, 0, 63, 81
1, 1954996, Note_on_c, 0, 66, 84
1, 1954999, Note_on_c, 0, 84, 80
1, 1955007, Control_c, 0, 64, 44
1, 1955025, Control_c, 0, 64, 42
1, 1955034, Note_on_c, 0, 87, 0
1, 1955041, Note_on_c, 0, 66, 0
1, 1955048, Note_on_c, 0, 63, 0
1, 1955065, Control_c, 0, 64, 37
1, 1955116, Note_on_c, 0, 65, 87
1, 1955129, Note_on_c, 0, 82, 86
1, 1955138, Note_on_c, 0, 61, 72
1, 1955145, Note_on_c, 0, 84, 0
1, 1955154, Control_c, 0, 64, 32
1, 1955175, Note_on_c, 0, 61, 0
1, 1955176, Note_on_c, 0, 65, 0
1, 1955192, Control_c, 0, 64, 28
1, 1955211, Control_c, 0, 64, 22
1, 1955229, Control_c, 0, 64, 15
1, 1955246, Note_on_c, 0, 80, 91
1, 1955255, Note_on_c, 0, 82, 0
1, 1955267, Control_c, 0, 64, 0
1, 1955292, Note_on_c, 0, 63, 81
1, 1955303, Note_on_c, 0, 66, 76
1, 1955321, Note_on_c, 0, 63, 0
1, 1955398, Note_on_c, 0, 92, 84
1, 1955402, Note_on_c, 0, 65, 78
1, 1955404, Note_on_c, 0, 66, 0
1, 1955411, Note_on_c, 0, 68, 88
1, 1955434, Control_c, 0, 64, 30
1, 1955452, Control_c, 0, 64, 60
1, 1955455, Note_on_c, 0, 80, 0
1, 1955481, Control_c, 0, 64, 89
1, 1955499, Control_c, 0, 64, 116
1, 1955518, Control_c, 0, 64, 127
1, 1955538, Note_on_c, 0, 89, 87
1, 1955554, Note_on_c, 0, 68, 0
1, 1955587, Note_on_c, 0, 92, 0
1, 1955594, Note_on_c, 0, 65, 0
1, 1955677, Note_on_c, 0, 85, 91
1, 1955705, Note_on_c, 0, 89, 0
1, 1955802, Note_on_c, 0, 85, 0
1, 1955817, Note_on_c, 0, 80, 97
1, 1955887, Note_on_c, 0, 80, 0
1, 1956012, Note_on_c, 0, 36, 82
1, 1956018, Note_on_c, 0, 48, 102
1, 1956035, Poly_aftertouch_c, 0, 78, 0
1, 1956036, Control_c, 0, 64, 75
1, 1956053, Control_c, 0, 64, 0
1, 1956060, Note_on_c, 0, 43, 24
1, 1956068, Note_on_c, 0, 84, 92
1, 1956127, Control_c, 0, 64, 19
1, 1956129, Note_on_c, 0, 43, 0
1, 1956141, Note_on_c, 0, 36, 0
1, 1956147, Control_c, 0, 64, 45
1, 1956166, Control_c, 0, 64, 78
1, 1956184, Control_c, 0, 64, 108
1, 1956202, Control_c, 0, 64, 127
1, 1956209, Note_on_c, 0, 48, 0
1, 1956241, Note_on_c, 0, 79, 93
1, 1956273, Note_on_c, 0, 84, 0
1, 1956395, Note_on_c, 0, 77, 95
1, 1956417, Note_on_c, 0, 79, 0
1, 1956546, Note_on_c, 0, 77, 0
1, 1956603, Note_on_c, 0, 67, 94
1, 1956604, Note_on_c, 0, 72, 104
1, 1956607, Note_on_c, 0, 60, 85
1, 1956610, Note_on_c, 0, 65, 87
1, 1956641, Note_on_c, 0, 77, 89
1, 1956647, Note_on_c, 0, 66, 32
1, 1956648, Note_on_c, 0, 66, 0
1, 1956769, Note_on_c, 0, 77, 0
1, 1956778, Note_on_c, 0, 89, 88
1, 1956896, Note_on_c, 0, 84, 82
1, 1956904, Note_on_c, 0, 89, 0
1, 1957016, Note_on_c, 0, 79, 86
1, 1957026, Note_on_c, 0, 84, 0
1, 1957080, Note_on_c, 0, 79, 0
1, 1957130, Note_on_c, 0, 79, 76
1, 1957183, Note_on_c, 0, 65, 0
1, 1957197, Note_on_c, 0, 67, 0
1, 1957231, Note_on_c, 0, 79, 0
1, 1957244, Note_on_c, 0, 91, 92
1, 1957276, Note_on_c, 0, 60, 0
1, 1957276, Note_on_c, 0, 72, 0
1, 1957352, Note_on_c, 0, 88, 86
1, 1957363, Note_on_c, 0, 67, 82
1, 1957364, Note_on_c, 0, 72, 85
1, 1957370, Note_on_c, 0, 64, 76
1, 1957381, Note_on_c, 0, 91, 0
1, 1957402, Note_on_c, 0, 60, 44
1, 1957433, Note_on_c, 0, 72, 0
1, 1957439, Note_on_c, 0, 60, 0
1, 1957439, Note_on_c, 0, 67, 0
1, 1957450, Note_on_c, 0, 88, 0
1, 1957453, Note_on_c, 0, 64, 0
1, 1957484, Note_on_c, 0, 84, 89
1, 1957545, Note_on_c, 0, 60, 69
1, 1957546, Note_on_c, 0, 72, 94
1, 1957554, Note_on_c, 0, 62, 73
1, 1957554, Note_on_c, 0, 65, 81
1, 1957586, Note_on_c, 0, 66, 40
1, 1957614, Note_on_c, 0, 66, 0
1, 1957627, Note_on_c, 0, 96, 95
1, 1957653, Note_on_c, 0, 65, 0
1, 1957657, Note_on_c, 0, 62, 0
1, 1957667, Note_on_c, 0, 72, 0
1, 1957682, Note_on_c, 0, 84, 0
1, 1957806, Note_on_c, 0, 64, 55
1, 1957817, Note_on_c, 0, 67, 86
1, 1957823, Note_on_c, 0, 94, 88
1, 1957824, Note_on_c, 0, 60, 0
1, 1957824, Note_on_c, 0, 60, 61
1, 1957827, Note_on_c, 0, 72, 93
1, 1957851, Control_c, 0, 64, 81
1, 1957865, Note_on_c, 0, 96, 0
1, 1957869, Control_c, 0, 64, 43
1, 1957888, Control_c, 0, 64, 45
1, 1957905, Control_c, 0, 64, 60
1, 1957925, Control_c, 0, 64, 76
1, 1957942, Control_c, 0, 64, 100
1, 1957947, Note_on_c, 0, 91, 87
1, 1957962, Control_c, 0, 64, 127
1, 1957973, Note_on_c, 0, 64, 0
1, 1957980, Note_on_c, 0, 94, 0
1, 1957988, Note_on_c, 0, 60, 0
1, 1958014, Note_on_c, 0, 67, 0
1, 1958055, Note_on_c, 0, 88, 89
1, 1958058, Note_on_c, 0, 91, 0
1, 1958071, Note_on_c, 0, 72, 0
1, 1958124, Note_on_c, 0, 88, 0
1, 1958147, Note_on_c, 0, 69, 90
1, 1958151, Note_on_c, 0, 65, 72
1, 1958155, Note_on_c, 0, 72, 90
1, 1958160, Note_on_c, 0, 86, 89
1, 1958161, Note_on_c, 0, 60, 68
1, 1958219, Note_on_c, 0, 65, 0
1, 1958227, Note_on_c, 0, 60, 0
1, 1958256, Note_on_c, 0, 69, 0
1, 1958266, Note_on_c, 0, 84, 90
1, 1958287, Note_on_c, 0, 86, 0
1, 1958318, Note_on_c, 0, 72, 0
1, 1958380, Note_on_c, 0, 83, 89
1, 1958386, Note_on_c, 0, 84, 0
1, 1958469, Note_on_c, 0, 60, 82
1, 1958478, Note_on_c, 0, 67, 81
1, 1958500, Note_on_c, 0, 72, 98
1, 1958501, Note_on_c, 0, 70, 96
1, 1958502, Note_on_c, 0, 82, 87
1, 1958520, Note_on_c, 0, 83, 0
1, 1958525, Control_c, 0, 64, 111
1, 1958546, Control_c, 0, 64, 56
1, 1958561, Poly_aftertouch_c, 0, 64, 0
1, 1958563, Control_c, 0, 64, 0
1, 1958613, Note_on_c, 0, 79, 83
1, 1958619, Control_c, 0, 64, 45
1, 1958638, Control_c, 0, 64, 78
1, 1958647, Note_on_c, 0, 72, 0
1, 1958656, Control_c, 0, 64, 117
1, 1958662, Note_on_c, 0, 82, 0
1, 1958675, Control_c, 0, 64, 127
1, 1958702, Note_on_c, 0, 70, 0
1, 1958704, Note_on_c, 0, 67, 0
1, 1958720, Note_on_c, 0, 60, 0
1, 1958724, Note_on_c, 0, 76, 85
1, 1958745, Note_on_c, 0, 79, 0
1, 1958787, Note_on_c, 0, 76, 0
1, 1958820, Note_on_c, 0, 72, 82
1, 1958876, Note_on_c, 0, 72, 0
1, 1958907, Note_on_c, 0, 70, 80
1, 1958982, Note_on_c, 0, 70, 0
1, 1959000, Note_on_c, 0, 67, 63
1, 1959025, Note_on_c, 0, 67, 0
1, 1959031, Note_on_c, 0, 69, 37
1, 1959071, Note_on_c, 0, 69, 0
1, 1959092, Note_on_c, 0, 60, 98
1, 1959094, Note_on_c, 0, 55, 89
1, 1959095, Note_on_c, 0, 48, 80
1, 1959099, Note_on_c, 0, 52, 80
1, 1959099, Control_c, 0, 64, 116
1, 1959119, Control_c, 0, 64, 96
1, 1959131, Note_on_c, 0, 82, 80
1, 1959137, Control_c, 0, 64, 101
1, 1959157, Control_c, 0, 64, 124
1, 1959206, Note_on_c, 0, 81, 60
1, 1959217, Note_on_c, 0, 82, 0
1, 1959231, Note_on_c, 0, 52, 0
1, 1959232, Note_on_c, 0, 79, 78
1, 1959240, Poly_aftertouch_c, 0, 50, 0
1, 1959260, Note_on_c, 0, 81, 0
1, 1959264, Note_on_c, 0, 48, 0
1, 1959268, Note_on_c, 0, 55, 0
1, 1959314, Note_on_c, 0, 60, 0
1, 1959334, Note_on_c, 0, 76, 81
1, 1959347, Note_on_c, 0, 79, 0
1, 1959370, Control_c, 0, 64, 110
1, 1959390, Control_c, 0, 64, 96
1, 1959403, Note_on_c, 0, 53, 72
1, 1959404, Note_on_c, 0, 57, 92
1, 1959405, Control_c, 0, 64, 107
1, 1959407, Note_on_c, 0, 76, 0
1, 1959412, Note_on_c, 0, 60, 98
1, 1959416, Note_on_c, 0, 48, 74
1, 1959417, Note_on_c, 0, 74, 80
1, 1959424, Control_c, 0, 64, 127
1, 1959482, Note_on_c, 0, 74, 0
1, 1959494, Note_on_c, 0, 53, 0
1, 1959500, Note_on_c, 0, 48, 0
1, 1959510, Note_on_c, 0, 72, 80
1, 1959518, Poly_aftertouch_c, 0, 51, 0
1, 1959526, Note_on_c, 0, 57, 0
1, 1959593, Note_on_c, 0, 72, 0
1, 1959611, Note_on_c, 0, 71, 80
1, 1959616, Note_on_c, 0, 60, 0
1, 1959643, Note_on_c, 0, 48, 75
1, 1959647, Control_c, 0, 64, 111
1, 1959666, Control_c, 0, 64, 65
1, 1959673, Note_on_c, 0, 55, 56
1, 1959685, Control_c, 0, 64, 0
1, 1959759, Note_on_c, 0, 70, 74
1, 1959770, Note_on_c, 0, 58, 90
1, 1959772, Note_on_c, 0, 71, 0
1, 1959789, Note_on_c, 0, 60, 97
1, 1959814, Control_c, 0, 64, 57
1, 1959833, Control_c, 0, 64, 101
1, 1959852, Control_c, 0, 64, 127
1, 1959867, Poly_aftertouch_c, 0, 52, 0
1, 1959885, Note_on_c, 0, 67, 76
1, 1959902, Note_on_c, 0, 60, 0
1, 1959927, Note_on_c, 0, 70, 0
1, 1959946, Note_on_c, 0, 55, 0
1, 1959954, Note_on_c, 0, 48, 0
1, 1959956, Note_on_c, 0, 58, 0
1, 1959986, Note_on_c, 0, 64, 80
1, 1959991, Note_on_c, 0, 67, 0
1, 1960045, Note_on_c, 0, 64, 0
1, 1960072, Note_on_c, 0, 60, 80
1, 1960134, Note_on_c, 0, 60, 0
1, 1960162, Note_on_c, 0, 58, 80
1, 1960229, Note_on_c, 0, 58, 0
1, 1960234, Note_on_c, 0, 36, 84
1, 1960241, Note_on_c, 0, 55, 75
1, 1960272, Note_on_c, 0, 55, 0
1, 1960303, Note_on_c, 0, 43, 75
1, 1960379, Note_on_c, 0, 36, 0
1, 1960458, Note_on_c, 0, 52, 103
1, 1960506, Note_on_c, 0, 96, 93
1, 1960514, Note_on_c, 0, 43, 0
1, 1960651, Note_on_c, 0, 94, 82
1, 1960679, Note_on_c, 0, 52, 0
1, 1960688, Note_on_c, 0, 96, 0
1, 1960712, Control_c, 0, 64, 111
1, 1960730, Control_c, 0, 64, 68
1, 1960735, Note_on_c, 0, 38, 79
1, 1960755, Note_on_c, 0, 91, 85
1, 1960769, Control_c, 0, 64, 87
1, 1960787, Control_c, 0, 64, 111
1, 1960789, Note_on_c, 0, 94, 0
1, 1960792, Note_on_c, 0, 48, 78
1, 1960805, Control_c, 0, 64, 127
1, 1960810, Note_on_c, 0, 38, 0
1, 1960821, Note_on_c, 0, 45, 47
1, 1960833, Note_on_c, 0, 53, 101
1, 1960860, Note_on_c, 0, 89, 90
1, 1960874, Note_on_c, 0, 91, 0
1, 1960879, Note_on_c, 0, 45, 0
1, 1960917, Control_c, 0, 64, 106
1, 1960933, Note_on_c, 0, 89, 0
1, 1960934, Control_c, 0, 64, 66
1, 1960954, Control_c, 0, 64, 15
1, 1960962, Note_on_c, 0, 88, 88
1, 1960973, Control_c, 0, 64, 0
1, 1961006, Note_on_c, 0, 48, 0
1, 1961016, Note_on_c, 0, 53, 0
1, 1961059, Note_on_c, 0, 40, 80
1, 1961065, Note_on_c, 0, 86, 89
1, 1961106, Note_on_c, 0, 88, 0
1, 1961149, Note_on_c, 0, 48, 71
1, 1961196, Note_on_c, 0, 40, 0
1, 1961203, Control_c, 0, 64, 10
1, 1961224, Control_c, 0, 64, 57
1, 1961242, Control_c, 0, 64, 96
1, 1961246, Note_on_c, 0, 55, 111
1, 1961260, Control_c, 0, 64, 127
1, 1961272, Note_on_c, 0, 84, 95
1, 1961284, Note_on_c, 0, 86, 0
1, 1961291, Note_on_c, 0, 48, 0
1, 1961301, Poly_aftertouch_c, 0, 45, 0
1, 1961322, Note_on_c, 0, 55, 0
1, 1961395, Note_on_c, 0, 82, 81
1, 1961406, Note_on_c, 0, 84, 0
1, 1961496, Note_on_c, 0, 79, 81
1, 1961522, Note_on_c, 0, 82, 0
1, 1961529, Poly_aftertouch_c, 0, 83, 0
1, 1961576, Note_on_c, 0, 76, 80
1, 1961597, Note_on_c, 0, 79, 0
1, 1961648, Note_on_c, 0, 76, 0
1, 1961659, Note_on_c, 0, 72, 81
1, 1961722, Note_on_c, 0, 72, 0
1, 1961750, Note_on_c, 0, 70, 81
1, 1961816, Note_on_c, 0, 70, 0
1, 1961821, Note_on_c, 0, 67, 73
1, 1961861, Note_on_c, 0, 69, 21
1, 1961899, Note_on_c, 0, 64, 80
1, 1961913, Note_on_c, 0, 67, 0
1, 1961917, Note_on_c, 0, 69, 0
1, 1961954, Note_on_c, 0, 64, 0
1, 1961984, Note_on_c, 0, 60, 80
1, 1962045, Note_on_c, 0, 60, 0
1, 1962068, Note_on_c, 0, 58, 80
1, 1962129, Note_on_c, 0, 55, 77
1, 1962190, Note_on_c, 0, 58, 0
1, 1962205, Note_on_c, 0, 52, 84
1, 1962227, Note_on_c, 0, 55, 0
1, 1962268, Note_on_c, 0, 52, 0
1, 1962278, Poly_aftertouch_c, 0, 57, 0
1, 1962285, Note_on_c, 0, 48, 80
1, 1962347, Note_on_c, 0, 48, 0
1, 1962360, Note_on_c, 0, 46, 82
1, 1962424, Note_on_c, 0, 43, 75
1, 1962475, Note_on_c, 0, 40, 84
1, 1962487, Note_on_c, 0, 46, 0
1, 1962527, Note_on_c, 0, 43, 0
1, 1962541, Note_on_c, 0, 36, 99
1, 1962546, Note_on_c, 0, 40, 0
1, 1962568, Note_on_c, 0, 35, 53
1, 1962587, Note_on_c, 0, 36, 0
1, 1962607, Note_on_c, 0, 35, 0
1, 1962733, Control_c, 0, 64, 107
1, 1962752, Control_c, 0, 64, 74
1, 1962768, Control_c, 0, 64, 40
1, 1962788, Control_c, 0, 64, 25
1, 1962901, Control_c, 0, 67, 8
1, 1963001, Control_c, 0, 67, 12
1, 1963039, Control_c, 0, 67, 16
1, 1963075, Control_c, 0, 67, 30
1, 1963094, Control_c, 0, 67, 49
1, 1963112, Control_c, 0, 67, 64
1, 1963131, Control_c, 0, 67, 74
1, 1963149, Control_c, 0, 67, 83
1, 1963167, Control_c, 0, 67, 94
1, 1963186, Control_c, 0, 67, 106
1, 1963204, Control_c, 0, 67, 117
1, 1963223, Control_c, 0, 67, 124
1, 1963408, Control_c, 0, 64, 31
1, 1963427, Control_c, 0, 64, 42
1, 1963447, Control_c, 0, 64, 55
1, 1963464, Control_c, 0, 64, 70
1, 1963477, Note_on_c, 0, 72, 56
1, 1963483, Control_c, 0, 64, 82
1, 1963504, Control_c, 0, 64, 97
1, 1963519, Control_c, 0, 64, 114
1, 1963537, Note_on_c, 0, 72, 0
1, 1963537, Control_c, 0, 64, 127
1, 1963578, Note_on_c, 0, 74, 71
1, 1963633, Note_on_c, 0, 74, 0
1, 1963670, Note_on_c, 0, 76, 57
1, 1963746, Note_on_c, 0, 76, 0
1, 1963752, Note_on_c, 0, 77, 63
1, 1963759, Note_on_c, 0, 41, 45
1, 1963814, Note_on_c, 0, 79, 62
1, 1963816, Control_c, 0, 64, 123
1, 1963819, Note_on_c, 0, 77, 0
1, 1963830, Note_on_c, 0, 41, 0
1, 1963830, Note_on_c, 0, 48, 61
1, 1963835, Control_c, 0, 64, 101
1, 1963854, Control_c, 0, 64, 76
1, 1963871, Control_c, 0, 64, 56
1, 1963873, Note_on_c, 0, 81, 71
1, 1963879, Note_on_c, 0, 57, 66
1, 1963899, Control_c, 0, 64, 49
1, 1963900, Note_on_c, 0, 79, 0
1, 1963908, Note_on_c, 0, 48, 0
1, 1963917, Note_on_c, 0, 57, 0
1, 1963956, Note_on_c, 0, 81, 0
1, 1963956, Control_c, 0, 64, 47
1, 1963984, Note_on_c, 0, 79, 64
1, 1964072, Note_on_c, 0, 79, 0
1, 1964084, Control_c, 0, 64, 45
1, 1964096, Note_on_c, 0, 77, 63
1, 1964122, Note_on_c, 0, 43, 66
1, 1964138, Note_on_c, 0, 77, 0
1, 1964148, Note_on_c, 0, 48, 48
1, 1964173, Note_on_c, 0, 43, 0
1, 1964194, Note_on_c, 0, 58, 74
1, 1964195, Note_on_c, 0, 72, 60
1, 1964216, Note_on_c, 0, 48, 0
1, 1964233, Note_on_c, 0, 58, 0
1, 1964259, Note_on_c, 0, 72, 0
1, 1964292, Note_on_c, 0, 84, 67
1, 1964326, Control_c, 0, 67, 120
1, 1964364, Control_c, 0, 67, 113
1, 1964373, Note_on_c, 0, 84, 0
1, 1964381, Control_c, 0, 67, 107
1, 1964383, Note_on_c, 0, 45, 47
1, 1964388, Note_on_c, 0, 82, 63
1, 1964399, Note_on_c, 0, 48, 42
1, 1964400, Control_c, 0, 67, 99
1, 1964419, Control_c, 0, 67, 87
1, 1964425, Note_on_c, 0, 45, 0
1, 1964437, Control_c, 0, 67, 72
1, 1964444, Note_on_c, 0, 48, 0
1, 1964445, Note_on_c, 0, 82, 0
1, 1964455, Control_c, 0, 67, 57
1, 1964455, Note_on_c, 0, 60, 75
1, 1964473, Control_c, 0, 67, 40
1, 1964478, Note_on_c, 0, 81, 77
1, 1964487, Note_on_c, 0, 60, 0
1, 1964490, Control_c, 0, 67, 24
1, 1964511, Control_c, 0, 67, 9
1, 1964530, Control_c, 0, 67, 0
1, 1964537, Note_on_c, 0, 81, 0
1, 1964540, Poly_aftertouch_c, 0, 49, 0
1, 1964576, Note_on_c, 0, 77, 75
1, 1964657, Note_on_c, 0, 77, 0
1, 1964670, Note_on_c, 0, 86, 73
1, 1964671, Note_on_c, 0, 46, 66
1, 1964715, Note_on_c, 0, 46, 0
1, 1964747, Note_on_c, 0, 49, 20
1, 1964748, Note_on_c, 0, 49, 0
1, 1964755, Note_on_c, 0, 86, 0
1, 1964757, Note_on_c, 0, 62, 69
1, 1964759, Note_on_c, 0, 82, 71
1, 1964780, Note_on_c, 0, 62, 0
1, 1964856, Note_on_c, 0, 81, 79
1, 1964858, Note_on_c, 0, 82, 0
1, 1964865, Poly_aftertouch_c, 0, 53, 0
1, 1964925, Note_on_c, 0, 81, 0
1, 1964945, Note_on_c, 0, 47, 59
1, 1964950, Note_on_c, 0, 79, 73
1, 1964979, Note_on_c, 0, 53, 60
1, 1964984, Note_on_c, 0, 47, 0
1, 1964999, Note_on_c, 0, 79, 0
1, 1965018, Note_on_c, 0, 62, 82
1, 1965036, Note_on_c, 0, 77, 71
1, 1965047, Note_on_c, 0, 62, 0
1, 1965054, Note_on_c, 0, 53, 0
1, 1965116, Note_on_c, 0, 77, 0
1, 1965130, Note_on_c, 0, 76, 76
1, 1965232, Note_on_c, 0, 76, 0
1, 1965232, Note_on_c, 0, 77, 76
1, 1965257, Note_on_c, 0, 43, 68
1, 1965270, Note_on_c, 0, 50, 63
1, 1965294, Note_on_c, 0, 43, 0
1, 1965312, Note_on_c, 0, 77, 0
1, 1965313, Note_on_c, 0, 59, 62
1, 1965317, Note_on_c, 0, 50, 0
1, 1965318, Note_on_c, 0, 79, 66
1, 1965370, Note_on_c, 0, 59, 0
1, 1965410, Note_on_c, 0, 81, 72
1, 1965428, Control_c, 0, 64, 42
1, 1965446, Control_c, 0, 64, 36
1, 1965466, Control_c, 0, 64, 28
1, 1965471, Note_on_c, 0, 79, 0
1, 1965483, Control_c, 0, 64, 15
1, 1965490, Note_on_c, 0, 77, 65
1, 1965502, Control_c, 0, 64, 0
1, 1965507, Note_on_c, 0, 81, 0
1, 1965536, Note_on_c, 0, 48, 47
1, 1965561, Note_on_c, 0, 52, 65
1, 1965566, Note_on_c, 0, 76, 72
1, 1965567, Note_on_c, 0, 77, 0
1, 1965572, Note_on_c, 0, 60, 78
1, 1965573, Control_c, 0, 64, 29
1, 1965595, Control_c, 0, 64, 50
1, 1965606, Note_on_c, 0, 48, 0
1, 1965612, Control_c, 0, 64, 72
1, 1965627, Note_on_c, 0, 60, 0
1, 1965630, Control_c, 0, 64, 89
1, 1965645, Note_on_c, 0, 52, 0
1, 1965652, Note_on_c, 0, 76, 0
1, 1965652, Control_c, 0, 64, 108
1, 1965660, Note_on_c, 0, 72, 75
1, 1965670, Control_c, 0, 64, 126
1, 1965705, Note_on_c, 0, 72, 0
1, 1965744, Note_on_c, 0, 74, 83
1, 1965828, Note_on_c, 0, 74, 0
1, 1965847, Note_on_c, 0, 76, 84
1, 1965914, Note_on_c, 0, 76, 0
1, 1965944, Note_on_c, 0, 77, 84
1, 1966009, Note_on_c, 0, 41, 67
1, 1966024, Note_on_c, 0, 77, 0
1, 1966039, Note_on_c, 0, 79, 78
1, 1966102, Note_on_c, 0, 48, 63
1, 1966104, Note_on_c, 0, 41, 0
1, 1966122, Note_on_c, 0, 81, 82
1, 1966129, Note_on_c, 0, 79, 0
1, 1966134, Note_on_c, 0, 45, 43
1, 1966137, Note_on_c, 0, 57, 78
1, 1966178, Note_on_c, 0, 57, 0
1, 1966183, Note_on_c, 0, 45, 0
1, 1966193, Note_on_c, 0, 48, 0
1, 1966230, Note_on_c, 0, 81, 0
1, 1966234, Note_on_c, 0, 79, 75
1, 1966297, Note_on_c, 0, 42, 63
1, 1966319, Note_on_c, 0, 79, 0
1, 1966319, Note_on_c, 0, 77, 78
1, 1966338, Note_on_c, 0, 48, 55
1, 1966344, Note_on_c, 0, 42, 0
1, 1966362, Control_c, 0, 64, 90
1, 1966381, Control_c, 0, 64, 58
1, 1966383, Note_on_c, 0, 57, 70
1, 1966388, Note_on_c, 0, 77, 0
1, 1966395, Note_on_c, 0, 84, 66
1, 1966401, Control_c, 0, 64, 39
1, 1966412, Note_on_c, 0, 48, 0
1, 1966421, Note_on_c, 0, 86, 43
1, 1966440, Note_on_c, 0, 86, 0
1, 1966446, Note_on_c, 0, 57, 0
1, 1966469, Note_on_c, 0, 82, 79
1, 1966484, Note_on_c, 0, 43, 72
1, 1966508, Note_on_c, 0, 84, 0
1, 1966536, Note_on_c, 0, 82, 0
1, 1966560, Note_on_c, 0, 46, 64
1, 1966565, Note_on_c, 0, 81, 68
1, 1966573, Note_on_c, 0, 83, 27
1, 1966574, Note_on_c, 0, 83, 0
1, 1966578, Note_on_c, 0, 45, 44
1, 1966585, Note_on_c, 0, 43, 0
1, 1966619, Note_on_c, 0, 45, 0
1, 1966631, Note_on_c, 0, 46, 0
1, 1966636, Note_on_c, 0, 58, 62
1, 1966639, Note_on_c, 0, 81, 0
1, 1966643, Note_on_c, 0, 79, 65
1, 1966680, Note_on_c, 0, 79, 0
1, 1966686, Note_on_c, 0, 76, 71
1, 1966706, Note_on_c, 0, 58, 0
1, 1966739, Note_on_c, 0, 76, 0
1, 1966754, Note_on_c, 0, 82, 74
1, 1966803, Note_on_c, 0, 82, 0
1, 1966822, Poly_aftertouch_c, 0, 51, 0
1, 1966823, Note_on_c, 0, 84, 73
1, 1966838, Note_on_c, 0, 47, 67
1, 1966863, Note_on_c, 0, 84, 0
1, 1966882, Note_on_c, 0, 47, 0
1, 1966885, Note_on_c, 0, 48, 43
1, 1966906, Note_on_c, 0, 86, 84
1, 1966911, Note_on_c, 0, 62, 69
1, 1966919, Note_on_c, 0, 53, 31
1, 1966922, Note_on_c, 0, 48, 0
1, 1966945, Note_on_c, 0, 62, 0
1, 1966973, Note_on_c, 0, 53, 0
1, 1967002, Note_on_c, 0, 88, 85
1, 1967022, Control_c, 0, 64, 29
1, 1967030, Note_on_c, 0, 86, 0
1, 1967041, Control_c, 0, 64, 19
1, 1967059, Control_c, 0, 64, 12
1, 1967061, Note_on_c, 0, 89, 85
1, 1967090, Note_on_c, 0, 88, 0
1, 1967094, Control_c, 0, 64, 19
1, 1967113, Control_c, 0, 64, 47
1, 1967114, Note_on_c, 0, 89, 0
1, 1967127, Note_on_c, 0, 48, 73
1, 1967132, Control_c, 0, 64, 78
1, 1967150, Control_c, 0, 64, 119
1, 1967153, Note_on_c, 0, 53, 63
1, 1967159, Note_on_c, 0, 57, 70
1, 1967164, Note_on_c, 0, 60, 90
1, 1967168, Control_c, 0, 64, 127
1, 1967173, Note_on_c, 0, 84, 91
1, 1967182, Note_on_c, 0, 77, 71
1, 1967194, Note_on_c, 0, 48, 0
1, 1967195, Note_on_c, 0, 60, 0
1, 1967203, Note_on_c, 0, 77, 0
1, 1967208, Note_on_c, 0, 57, 0
1, 1967258, Note_on_c, 0, 82, 83
1, 1967275, Poly_aftertouch_c, 0, 86, 0
1, 1967293, Note_on_c, 0, 84, 0
1, 1967343, Note_on_c, 0, 48, 68
1, 1967346, Note_on_c, 0, 82, 0
1, 1967351, Note_on_c, 0, 81, 81
1, 1967392, Control_c, 0, 64, 102
1, 1967393, Note_on_c, 0, 48, 0
1, 1967402, Note_on_c, 0, 53, 0
1, 1967403, Poly_aftertouch_c, 0, 53, 0
1, 1967410, Control_c, 0, 64, 68
1, 1967428, Note_on_c, 0, 64, 79
1, 1967430, Control_c, 0, 64, 37
1, 1967434, Note_on_c, 0, 81, 0
1, 1967443, Note_on_c, 0, 86, 86
1, 1967447, Control_c, 0, 64, 27
1, 1967463, Note_on_c, 0, 64, 0
1, 1967466, Control_c, 0, 64, 22
1, 1967485, Control_c, 0, 64, 16
1, 1967522, Control_c, 0, 64, 12
1, 1967530, Note_on_c, 0, 86, 0
1, 1967535, Note_on_c, 0, 84, 78
1, 1967624, Note_on_c, 0, 82, 72
1, 1967643, Note_on_c, 0, 84, 0
1, 1967665, Note_on_c, 0, 50, 55
1, 1967699, Note_on_c, 0, 50, 0
1, 1967715, Note_on_c, 0, 65, 77
1, 1967718, Note_on_c, 0, 86, 84
1, 1967731, Note_on_c, 0, 82, 0
1, 1967748, Note_on_c, 0, 65, 0
1, 1967819, Note_on_c, 0, 84, 76
1, 1967822, Note_on_c, 0, 86, 0
1, 1967907, Note_on_c, 0, 82, 67
1, 1967911, Note_on_c, 0, 52, 65
1, 1967928, Note_on_c, 0, 84, 0
1, 1967947, Note_on_c, 0, 52, 0
1, 1967971, Note_on_c, 0, 67, 74
1, 1967976, Note_on_c, 0, 86, 80
1, 1967998, Note_on_c, 0, 82, 0
1, 1968007, Note_on_c, 0, 67, 0
1, 1968040, Poly_aftertouch_c, 0, 60, 0
1, 1968062, Note_on_c, 0, 84, 71
1, 1968090, Note_on_c, 0, 86, 0
1, 1968136, Note_on_c, 0, 82, 75
1, 1968144, Note_on_c, 0, 53, 56
1, 1968156, Note_on_c, 0, 84, 0
1, 1968177, Note_on_c, 0, 53, 0
1, 1968179, Control_c, 0, 64, 45
1, 1968197, Control_c, 0, 64, 70
1, 1968207, Note_on_c, 0, 82, 0
1, 1968215, Control_c, 0, 64, 90
1, 1968221, Note_on_c, 0, 69, 80
1, 1968226, Note_on_c, 0, 81, 83
1, 1968233, Control_c, 0, 64, 111
1, 1968242, Note_on_c, 0, 69, 0
1, 1968253, Control_c, 0, 64, 127
1, 1968284, Note_on_c, 0, 81, 0
1, 1968302, Note_on_c, 0, 80, 82
1, 1968329, Poly_aftertouch_c, 0, 61, 0
1, 1968374, Note_on_c, 0, 80, 0
1, 1968384, Note_on_c, 0, 81, 87
1, 1968405, Poly_aftertouch_c, 0, 69, 0
1, 1968421, Note_on_c, 0, 45, 51
1, 1968425, Note_on_c, 0, 49, 19
1, 1968436, Note_on_c, 0, 46, 13
1, 1968461, Note_on_c, 0, 45, 0
1, 1968468, Note_on_c, 0, 49, 0
1, 1968473, Note_on_c, 0, 82, 90
1, 1968475, Control_c, 0, 64, 103
1, 1968480, Note_on_c, 0, 61, 80
1, 1968494, Note_on_c, 0, 81, 0
1, 1968494, Control_c, 0, 64, 68
1, 1968504, Note_on_c, 0, 46, 0
1, 1968513, Control_c, 0, 64, 37
1, 1968532, Control_c, 0, 64, 31
1, 1968537, Note_on_c, 0, 61, 0
1, 1968559, Note_on_c, 0, 81, 75
1, 1968583, Note_on_c, 0, 82, 0
1, 1968624, Note_on_c, 0, 49, 29
1, 1968649, Note_on_c, 0, 81, 0
1, 1968655, Note_on_c, 0, 79, 80
1, 1968686, Note_on_c, 0, 49, 0
1, 1968691, Note_on_c, 0, 47, 38
1, 1968730, Note_on_c, 0, 47, 0
1, 1968737, Note_on_c, 0, 48, 18
1, 1968753, Note_on_c, 0, 82, 78
1, 1968757, Note_on_c, 0, 79, 0
1, 1968757, Note_on_c, 0, 62, 64
1, 1968800, Note_on_c, 0, 48, 0
1, 1968808, Note_on_c, 0, 62, 0
1, 1968835, Note_on_c, 0, 81, 72
1, 1968841, Note_on_c, 0, 82, 0
1, 1968904, Note_on_c, 0, 79, 66
1, 1968910, Note_on_c, 0, 49, 59
1, 1968915, Note_on_c, 0, 81, 0
1, 1968959, Note_on_c, 0, 49, 0
1, 1968978, Note_on_c, 0, 82, 74
1, 1968983, Note_on_c, 0, 79, 0
1, 1968995, Note_on_c, 0, 64, 71
1, 1969030, Note_on_c, 0, 64, 0
1, 1969062, Note_on_c, 0, 81, 76
1, 1969067, Note_on_c, 0, 82, 0
1, 1969079, Control_c, 0, 64, 26
1, 1969098, Control_c, 0, 64, 21
1, 1969130, Note_on_c, 0, 79, 73
1, 1969132, Note_on_c, 0, 81, 0
1, 1969132, Control_c, 0, 64, 36
1, 1969138, Note_on_c, 0, 50, 68
1, 1969152, Control_c, 0, 64, 62
1, 1969170, Control_c, 0, 64, 76
1, 1969171, Note_on_c, 0, 50, 0
1, 1969187, Note_on_c, 0, 79, 0
1, 1969207, Control_c, 0, 64, 73
1, 1969215, Note_on_c, 0, 65, 83
1, 1969216, Note_on_c, 0, 77, 84
1, 1969226, Control_c, 0, 64, 65
1, 1969245, Control_c, 0, 64, 52
1, 1969254, Note_on_c, 0, 65, 0
1, 1969263, Control_c, 0, 64, 32
1, 1969284, Control_c, 0, 64, 0
1, 1969292, Note_on_c, 0, 77, 0
1, 1969306, Note_on_c, 0, 76, 80
1, 1969388, Note_on_c, 0, 77, 82
1, 1969393, Note_on_c, 0, 76, 0
1, 1969438, Note_on_c, 0, 41, 63
1, 1969482, Note_on_c, 0, 79, 87
1, 1969487, Control_c, 0, 64, 20
1, 1969488, Note_on_c, 0, 41, 0
1, 1969489, Note_on_c, 0, 57, 91
1, 1969506, Poly_aftertouch_c, 0, 46, 0
1, 1969506, Note_on_c, 0, 43, 47
1, 1969511, Note_on_c, 0, 77, 0
1, 1969512, Control_c, 0, 64, 52
1, 1969520, Note_on_c, 0, 57, 0
1, 1969532, Control_c, 0, 64, 77
1, 1969547, Note_on_c, 0, 43, 0
1, 1969550, Control_c, 0, 64, 94
1, 1969569, Control_c, 0, 64, 111
1, 1969587, Control_c, 0, 64, 123
1, 1969596, Note_on_c, 0, 77, 80
1, 1969605, Control_c, 0, 64, 127
1, 1969628, Note_on_c, 0, 79, 0
1, 1969689, Note_on_c, 0, 75, 80
1, 1969714, Note_on_c, 0, 77, 0
1, 1969765, Note_on_c, 0, 79, 80
1, 1969795, Note_on_c, 0, 75, 0
1, 1969847, Note_on_c, 0, 77, 77
1, 1969881, Note_on_c, 0, 79, 0
1, 1969889, Note_on_c, 0, 41, 61
1, 1969938, Note_on_c, 0, 75, 75
1, 1969953, Note_on_c, 0, 41, 0
1, 1969984, Note_on_c, 0, 77, 0
1, 1970002, Note_on_c, 0, 57, 60
1, 1970004, Note_on_c, 0, 79, 80
1, 1970031, Note_on_c, 0, 75, 0
1, 1970033, Note_on_c, 0, 57, 0
1, 1970088, Note_on_c, 0, 77, 70
1, 1970132, Note_on_c, 0, 79, 0
1, 1970153, Note_on_c, 0, 75, 87
1, 1970180, Note_on_c, 0, 77, 0
1, 1970218, Control_c, 0, 64, 113
1, 1970223, Note_on_c, 0, 75, 0
1, 1970238, Control_c, 0, 64, 59
1, 1970249, Note_on_c, 0, 69, 78
1, 1970253, Note_on_c, 0, 81, 90
1, 1970254, Control_c, 0, 64, 0
1, 1970328, Control_c, 0, 64, 36
1, 1970346, Control_c, 0, 64, 69
1, 1970349, Note_on_c, 0, 79, 80
1, 1970351, Note_on_c, 0, 67, 65
1, 1970366, Note_on_c, 0, 69, 0
1, 1970366, Control_c, 0, 64, 100
1, 1970380, Note_on_c, 0, 81, 0
1, 1970382, Control_c, 0, 64, 127
1, 1970462, Note_on_c, 0, 65, 75
1, 1970463, Note_on_c, 0, 77, 80
1, 1970479, Note_on_c, 0, 79, 0
1, 1970486, Note_on_c, 0, 67, 0
1, 1970538, Note_on_c, 0, 81, 77
1, 1970552, Note_on_c, 0, 77, 0
1, 1970556, Note_on_c, 0, 69, 70
1, 1970571, Note_on_c, 0, 65, 0
1, 1970615, Note_on_c, 0, 67, 69
1, 1970633, Note_on_c, 0, 79, 75
1, 1970638, Note_on_c, 0, 81, 0
1, 1970658, Note_on_c, 0, 69, 0
1, 1970665, Note_on_c, 0, 65, 81
1, 1970693, Note_on_c, 0, 77, 79
1, 1970707, Note_on_c, 0, 79, 0
1, 1970721, Note_on_c, 0, 65, 0
1, 1970724, Note_on_c, 0, 67, 0
1, 1970732, Note_on_c, 0, 77, 0
1, 1970764, Control_c, 0, 64, 108
1, 1970782, Control_c, 0, 64, 49
1, 1970785, Note_on_c, 0, 72, 87
1, 1970788, Note_on_c, 0, 84, 89
1, 1970802, Control_c, 0, 64, 0
1, 1970837, Control_c, 0, 64, 20
1, 1970855, Control_c, 0, 64, 55
1, 1970875, Control_c, 0, 64, 96
1, 1970886, Note_on_c, 0, 70, 79
1, 1970893, Control_c, 0, 64, 127
1, 1970901, Note_on_c, 0, 82, 86
1, 1970931, Note_on_c, 0, 84, 0
1, 1970935, Note_on_c, 0, 72, 0
1, 1970984, Note_on_c, 0, 69, 76
1, 1970985, Note_on_c, 0, 81, 79
1, 1970995, Note_on_c, 0, 82, 0
1, 1971003, Note_on_c, 0, 70, 0
1, 1971040, Note_on_c, 0, 84, 82
1, 1971066, Note_on_c, 0, 72, 71
1, 1971075, Note_on_c, 0, 81, 0
1, 1971090, Note_on_c, 0, 69, 0
1, 1971131, Note_on_c, 0, 82, 78
1, 1971144, Note_on_c, 0, 70, 81
1, 1971159, Note_on_c, 0, 84, 0
1, 1971171, Note_on_c, 0, 72, 0
1, 1971193, Note_on_c, 0, 80, 69
1, 1971231, Note_on_c, 0, 82, 0
1, 1971236, Note_on_c, 0, 69, 78
1, 1971239, Note_on_c, 0, 70, 0
1, 1971246, Note_on_c, 0, 81, 61
1, 1971294, Note_on_c, 0, 69, 0
1, 1971358, Control_c, 0, 64, 122
1, 1971360, Note_on_c, 0, 80, 0
1, 1971370, Note_on_c, 0, 75, 72
1, 1971383, Note_on_c, 0, 87, 86
1, 1971384, Control_c, 0, 64, 89
1, 1971402, Control_c, 0, 64, 47
1, 1971420, Control_c, 0, 64, 0
1, 1971426, Note_on_c, 0, 81, 0
1, 1971485, Note_on_c, 0, 75, 0
1, 1971516, Note_on_c, 0, 87, 0
1, 1971568, Control_c, 0, 64, 37
1, 1971582, Note_on_c, 0, 87, 84
1, 1971588, Control_c, 0, 64, 62
1, 1971591, Note_on_c, 0, 75, 85
1, 1971607, Control_c, 0, 64, 89
1, 1971625, Control_c, 0, 64, 114
1, 1971643, Control_c, 0, 64, 127
1, 1971814, Note_on_c, 0, 75, 0
1, 1971822, Note_on_c, 0, 87, 0
1, 1971901, Note_on_c, 0, 87, 98
1, 1971906, Note_on_c, 0, 75, 94
1, 1972207, Note_on_c, 0, 75, 0
1, 1972221, Note_on_c, 0, 87, 0
1, 1972317, Note_on_c, 0, 87, 103
1, 1972318, Note_on_c, 0, 75, 100
1, 1972688, Note_on_c, 0, 87, 0
1, 1972690, Note_on_c, 0, 75, 0
1, 1972785, Note_on_c, 0, 87, 100
1, 1972794, Note_on_c, 0, 75, 91
1, 1972946, Note_on_c, 0, 42, 74
1, 1972989, Note_on_c, 0, 75, 0
1, 1973009, Note_on_c, 0, 87, 0
1, 1973013, Note_on_c, 0, 47, 75
1, 1973046, Note_on_c, 0, 51, 75
1, 1973057, Note_on_c, 0, 42, 0
1, 1973095, Note_on_c, 0, 75, 102
1, 1973098, Note_on_c, 0, 87, 101
1, 1973099, Note_on_c, 0, 59, 96
1, 1973112, Note_on_c, 0, 47, 0
1, 1973139, Note_on_c, 0, 51, 0
1, 1973145, Note_on_c, 0, 59, 0
1, 1973214, Poly_aftertouch_c, 0, 83, 0
1, 1973349, Note_on_c, 0, 85, 83
1, 1973355, Note_on_c, 0, 75, 0
1, 1973407, Note_on_c, 0, 87, 0
1, 1973438, Note_on_c, 0, 83, 84
1, 1973468, Note_on_c, 0, 85, 0
1, 1973554, Note_on_c, 0, 78, 88
1, 1973592, Note_on_c, 0, 83, 0
1, 1973657, Note_on_c, 0, 90, 76
1, 1973708, Note_on_c, 0, 78, 0
1, 1973745, Note_on_c, 0, 88, 77
1, 1973821, Note_on_c, 0, 90, 0
1, 1973840, Note_on_c, 0, 87, 87
1, 1973869, Note_on_c, 0, 88, 0
1, 1973932, Note_on_c, 0, 83, 81
1, 1973966, Note_on_c, 0, 87, 0
1, 1974044, Note_on_c, 0, 95, 75
1, 1974051, Note_on_c, 0, 83, 0
1, 1974093, Note_on_c, 0, 93, 36
1, 1974139, Note_on_c, 0, 93, 0
1, 1974159, Note_on_c, 0, 42, 95
1, 1974162, Note_on_c, 0, 90, 85
1, 1974168, Note_on_c, 0, 30, 75
1, 1974176, Note_on_c, 0, 95, 0
1, 1974212, Note_on_c, 0, 30, 0
1, 1974226, Note_on_c, 0, 42, 0
1, 1974279, Note_on_c, 0, 88, 83
1, 1974289, Note_on_c, 0, 90, 0
1, 1974389, Note_on_c, 0, 87, 47
1, 1974390, Note_on_c, 0, 88, 0
1, 1974547, Note_on_c, 0, 66, 97
1, 1974550, Note_on_c, 0, 63, 94
1, 1974554, Note_on_c, 0, 54, 80
1, 1974555, Note_on_c, 0, 99, 86
1, 1974558, Note_on_c, 0, 59, 80
1, 1974601, Note_on_c, 0, 97, 42
1, 1974614, Note_on_c, 0, 87, 0
1, 1974691, Note_on_c, 0, 97, 0
1, 1974691, Note_on_c, 0, 97, 57
1, 1974746, Note_on_c, 0, 99, 0
1, 1974774, Note_on_c, 0, 95, 66
1, 1974838, Note_on_c, 0, 97, 0
1, 1974873, Note_on_c, 0, 87, 87
1, 1974971, Note_on_c, 0, 87, 0
1, 1974979, Note_on_c, 0, 102, 92
1, 1975058, Note_on_c, 0, 95, 0
1, 1975088, Note_on_c, 0, 99, 83
1, 1975130, Note_on_c, 0, 66, 0
1, 1975157, Note_on_c, 0, 63, 0
1, 1975177, Note_on_c, 0, 59, 0
1, 1975192, Note_on_c, 0, 54, 0
1, 1975206, Note_on_c, 0, 95, 77
1, 1975213, Note_on_c, 0, 102, 0
1, 1975279, Note_on_c, 0, 99, 0
1, 1975309, Note_on_c, 0, 90, 95
1, 1975412, Note_on_c, 0, 102, 97
1, 1975445, Note_on_c, 0, 95, 0
1, 1975467, Note_on_c, 0, 90, 0
1, 1975515, Control_c, 0, 64, 61
1, 1975532, Control_c, 0, 64, 0
1, 1975534, Note_on_c, 0, 40, 99
1, 1975540, Note_on_c, 0, 28, 89
1, 1975547, Note_on_c, 0, 99, 93
1, 1975589, Control_c, 0, 64, 24
1, 1975609, Control_c, 0, 64, 75
1, 1975610, Note_on_c, 0, 102, 0
1, 1975622, Note_on_c, 0, 28, 0
1, 1975627, Control_c, 0, 64, 127
1, 1975651, Poly_aftertouch_c, 0, 35, 0
1, 1975665, Note_on_c, 0, 95, 64
1, 1975670, Note_on_c, 0, 40, 0
1, 1975720, Note_on_c, 0, 99, 0
1, 1975782, Note_on_c, 0, 92, 95
1, 1975823, Note_on_c, 0, 95, 0
1, 1975973, Note_on_c, 0, 71, 103
1, 1975974, Note_on_c, 0, 104, 93
1, 1975978, Note_on_c, 0, 59, 91
1, 1976006, Note_on_c, 0, 92, 0
1, 1976036, Note_on_c, 0, 102, 21
1, 1976077, Note_on_c, 0, 102, 0
1, 1976132, Note_on_c, 0, 97, 80
1, 1976159, Note_on_c, 0, 104, 0
1, 1976190, Note_on_c, 0, 71, 0
1, 1976230, Note_on_c, 0, 97, 0
1, 1976238, Note_on_c, 0, 95, 78
1, 1976290, Note_on_c, 0, 95, 0
1, 1976338, Note_on_c, 0, 56, 91
1, 1976340, Note_on_c, 0, 68, 95
1, 1976355, Note_on_c, 0, 92, 81
1, 1976380, Note_on_c, 0, 59, 0
1, 1976397, Note_on_c, 0, 70, 16
1, 1976458, Note_on_c, 0, 85, 80
1, 1976462, Note_on_c, 0, 70, 0
1, 1976488, Note_on_c, 0, 92, 0
1, 1976498, Note_on_c, 0, 68, 0
1, 1976544, Note_on_c, 0, 84, 34
1, 1976545, Note_on_c, 0, 83, 81
1, 1976552, Note_on_c, 0, 56, 0
1, 1976554, Note_on_c, 0, 85, 0
1, 1976583, Note_on_c, 0, 84, 0
1, 1976645, Note_on_c, 0, 83, 0
1, 1976669, Note_on_c, 0, 66, 102
1, 1976669, Note_on_c, 0, 92, 93
1, 1976670, Note_on_c, 0, 54, 98
1, 1976780, Note_on_c, 0, 85, 76
1, 1976812, Note_on_c, 0, 92, 0
1, 1976868, Note_on_c, 0, 85, 0
1, 1976874, Note_on_c, 0, 83, 82
1, 1976894, Note_on_c, 0, 66, 0
1, 1976934, Note_on_c, 0, 83, 0
1, 1976979, Note_on_c, 0, 64, 100
1, 1976984, Note_on_c, 0, 80, 86
1, 1976999, Note_on_c, 0, 52, 87
1, 1977032, Note_on_c, 0, 54, 0
1, 1977095, Note_on_c, 0, 73, 84
1, 1977111, Note_on_c, 0, 64, 0
1, 1977123, Note_on_c, 0, 80, 0
1, 1977140, Note_on_c, 0, 52, 0
1, 1977187, Note_on_c, 0, 71, 82
1, 1977200, Note_on_c, 0, 73, 0
1, 1977277, Note_on_c, 0, 71, 0
1, 1977289, Note_on_c, 0, 59, 100
1, 1977296, Note_on_c, 0, 80, 90
1, 1977302, Note_on_c, 0, 47, 93
1, 1977405, Note_on_c, 0, 73, 77
1, 1977416, Note_on_c, 0, 80, 0
1, 1977422, Note_on_c, 0, 59, 0
1, 1977430, Note_on_c, 0, 47, 0
1, 1977490, Note_on_c, 0, 73, 0
1, 1977500, Note_on_c, 0, 71, 78
1, 1977548, Note_on_c, 0, 71, 0
1, 1977588, Note_on_c, 0, 56, 102
1, 1977596, Note_on_c, 0, 44, 95
1, 1977614, Note_on_c, 0, 68, 82
1, 1977711, Note_on_c, 0, 61, 80
1, 1977724, Note_on_c, 0, 68, 0
1, 1977799, Note_on_c, 0, 59, 80
1, 1977804, Note_on_c, 0, 44, 0
1, 1977810, Note_on_c, 0, 61, 0
1, 1977822, Note_on_c, 0, 56, 0
1, 1977951, Control_c, 0, 64, 106
1, 1977970, Control_c, 0, 64, 48
1, 1977971, Note_on_c, 0, 53, 106
1, 1977978, Note_on_c, 0, 68, 85
1, 1977981, Note_on_c, 0, 41, 89
1, 1977987, Control_c, 0, 64, 0
1, 1978015, Note_on_c, 0, 59, 0
1, 1978026, Control_c, 0, 64, 34
1, 1978045, Control_c, 0, 64, 66
1, 1978065, Control_c, 0, 64, 108
1, 1978082, Control_c, 0, 64, 127
1, 1978094, Note_on_c, 0, 53, 0
1, 1978117, Note_on_c, 0, 61, 71
1, 1978136, Note_on_c, 0, 41, 0
1, 1978157, Note_on_c, 0, 68, 0
1, 1978208, Note_on_c, 0, 61, 0
1, 1978223, Note_on_c, 0, 59, 80
1, 1978276, Note_on_c, 0, 59, 0
1, 1978313, Note_on_c, 0, 41, 100
1, 1978325, Note_on_c, 0, 29, 89
1, 1978331, Note_on_c, 0, 56, 83
1, 1978356, Note_on_c, 0, 41, 0
1, 1978356, Note_on_c, 0, 29, 0
1, 1978443, Note_on_c, 0, 49, 68
1, 1978451, Note_on_c, 0, 56, 0
1, 1978529, Poly_aftertouch_c, 0, 29, 0
1, 1978541, Note_on_c, 0, 49, 0
1, 1978550, Note_on_c, 0, 47, 70
1, 1978699, Note_on_c, 0, 42, 105
1, 1978701, Note_on_c, 0, 30, 98
1, 1978708, Note_on_c, 0, 54, 90
1, 1978711, Control_c, 0, 64, 67
1, 1978711, Note_on_c, 0, 51, 89
1, 1978721, Note_on_c, 0, 47, 0
1, 1978730, Control_c, 0, 64, 0
1, 1978767, Control_c, 0, 64, 30
1, 1978773, Note_on_c, 0, 30, 0
1, 1978777, Note_on_c, 0, 51, 0
1, 1978786, Control_c, 0, 64, 75
1, 1978796, Note_on_c, 0, 42, 0
1, 1978803, Note_on_c, 0, 54, 0
1, 1978804, Control_c, 0, 64, 121
1, 1978823, Control_c, 0, 64, 127
1, 1979067, Note_on_c, 0, 75, 91
1, 1979076, Note_on_c, 0, 63, 87
1, 1979078, Note_on_c, 0, 54, 71
1, 1979091, Note_on_c, 0, 59, 78
1, 1979128, Control_c, 0, 64, 115
1, 1979147, Control_c, 0, 64, 61
1, 1979166, Control_c, 0, 64, 12
1, 1979179, Note_on_c, 0, 71, 61
1, 1979185, Control_c, 0, 64, 33
1, 1979204, Control_c, 0, 64, 63
1, 1979222, Control_c, 0, 64, 92
1, 1979241, Control_c, 0, 64, 127
1, 1979256, Note_on_c, 0, 66, 55
1, 1979271, Note_on_c, 0, 75, 0
1, 1979295, Note_on_c, 0, 71, 0
1, 1979333, Note_on_c, 0, 66, 0
1, 1979357, Note_on_c, 0, 54, 0
1, 1979378, Note_on_c, 0, 78, 97
1, 1979523, Note_on_c, 0, 78, 0
1, 1979536, Note_on_c, 0, 74, 39
1, 1979565, Note_on_c, 0, 71, 65
1, 1979573, Note_on_c, 0, 74, 0
1, 1979604, Poly_aftertouch_c, 0, 75, 0
1, 1979608, Note_on_c, 0, 71, 0
1, 1979656, Note_on_c, 0, 59, 0
1, 1979656, Note_on_c, 0, 59, 35
1, 1979662, Note_on_c, 0, 54, 67
1, 1979691, Note_on_c, 0, 87, 97
1, 1979708, Note_on_c, 0, 66, 79
1, 1979746, Note_on_c, 0, 85, 33
1, 1979755, Note_on_c, 0, 80, 34
1, 1979784, Note_on_c, 0, 63, 0
1, 1979792, Note_on_c, 0, 54, 0
1, 1979795, Note_on_c, 0, 59, 0
1, 1979822, Note_on_c, 0, 87, 0
1, 1979873, Note_on_c, 0, 85, 0
1, 1979895, Note_on_c, 0, 66, 0
1, 1979899, Poly_aftertouch_c, 0, 86, 0
1, 1979943, Poly_aftertouch_c, 0, 81, 0
1, 1979945, Note_on_c, 0, 75, 64
1, 1979994, Note_on_c, 0, 80, 0
1, 1980051, Note_on_c, 0, 85, 99
1, 1980052, Note_on_c, 0, 54, 83
1, 1980059, Note_on_c, 0, 66, 87
1, 1980061, Note_on_c, 0, 61, 81
1, 1980065, Note_on_c, 0, 64, 81
1, 1980067, Note_on_c, 0, 58, 77
1, 1980083, Control_c, 0, 64, 89
1, 1980085, Note_on_c, 0, 75, 0
1, 1980102, Control_c, 0, 64, 13
1, 1980118, Control_c, 0, 64, 0
1, 1980174, Control_c, 0, 64, 37
1, 1980193, Control_c, 0, 64, 69
1, 1980197, Note_on_c, 0, 76, 65
1, 1980212, Control_c, 0, 64, 105
1, 1980230, Control_c, 0, 64, 127
1, 1980240, Note_on_c, 0, 85, 0
1, 1980256, Note_on_c, 0, 66, 0
1, 1980267, Note_on_c, 0, 58, 0
1, 1980268, Note_on_c, 0, 54, 0
1, 1980275, Note_on_c, 0, 61, 0
1, 1980282, Note_on_c, 0, 64, 0
1, 1980284, Note_on_c, 0, 73, 72
1, 1980300, Note_on_c, 0, 76, 0
1, 1980363, Note_on_c, 0, 66, 84
1, 1980363, Note_on_c, 0, 82, 90
1, 1980368, Note_on_c, 0, 61, 66
1, 1980373, Note_on_c, 0, 54, 63
1, 1980373, Note_on_c, 0, 64, 73
1, 1980380, Note_on_c, 0, 58, 65
1, 1980409, Note_on_c, 0, 73, 0
1, 1980433, Note_on_c, 0, 66, 0
1, 1980470, Note_on_c, 0, 54, 0
1, 1980472, Note_on_c, 0, 80, 13
1, 1980482, Note_on_c, 0, 73, 63
1, 1980483, Note_on_c, 0, 64, 0
1, 1980520, Note_on_c, 0, 82, 0
1, 1980538, Note_on_c, 0, 80, 0
1, 1980557, Note_on_c, 0, 61, 0
1, 1980566, Note_on_c, 0, 70, 79
1, 1980568, Note_on_c, 0, 58, 0
1, 1980592, Note_on_c, 0, 73, 0
1, 1980670, Note_on_c, 0, 78, 93
1, 1980704, Note_on_c, 0, 70, 0
1, 1980804, Note_on_c, 0, 70, 75
1, 1980864, Note_on_c, 0, 66, 71
1, 1980872, Note_on_c, 0, 78, 0
1, 1980949, Note_on_c, 0, 42, 94
1, 1980956, Note_on_c, 0, 30, 85
1, 1980973, Note_on_c, 0, 76, 92
1, 1980975, Note_on_c, 0, 70, 0
1, 1981000, Note_on_c, 0, 66, 0
1, 1981021, Note_on_c, 0, 42, 0
1, 1981026, Note_on_c, 0, 78, 43
1, 1981040, Note_on_c, 0, 30, 0
1, 1981057, Note_on_c, 0, 78, 0
1, 1981073, Note_on_c, 0, 70, 74
1, 1981125, Note_on_c, 0, 76, 0
1, 1981142, Note_on_c, 0, 66, 73
1, 1981204, Note_on_c, 0, 70, 0
1, 1981276, Note_on_c, 0, 42, 102
1, 1981278, Note_on_c, 0, 75, 98
1, 1981278, Note_on_c, 0, 30, 97
1, 1981278, Control_c, 0, 64, 87
1, 1981283, Note_on_c, 0, 66, 0
1, 1981298, Control_c, 0, 64, 17
1, 1981314, Control_c, 0, 64, 0
1, 1981347, Note_on_c, 0, 30, 0
1, 1981349, Control_c, 0, 64, 23
1, 1981364, Note_on_c, 0, 42, 0
1, 1981368, Control_c, 0, 64, 74
1, 1981388, Control_c, 0, 64, 116
1, 1981393, Note_on_c, 0, 71, 75
1, 1981408, Control_c, 0, 64, 127
1, 1981436, Note_on_c, 0, 75, 0
1, 1981476, Note_on_c, 0, 66, 77
1, 1981496, Note_on_c, 0, 71, 0
1, 1981551, Note_on_c, 0, 66, 0
1, 1981576, Note_on_c, 0, 54, 70
1, 1981594, Note_on_c, 0, 78, 90
1, 1981601, Note_on_c, 0, 66, 70
1, 1981638, Note_on_c, 0, 80, 41
1, 1981654, Note_on_c, 0, 79, 36
1, 1981682, Note_on_c, 0, 80, 0
1, 1981695, Note_on_c, 0, 75, 68
1, 1981701, Note_on_c, 0, 79, 0
1, 1981711, Note_on_c, 0, 78, 0
1, 1981776, Note_on_c, 0, 71, 72
1, 1981778, Note_on_c, 0, 75, 0
1, 1981843, Note_on_c, 0, 71, 0
1, 1981888, Note_on_c, 0, 83, 86
1, 1981914, Note_on_c, 0, 80, 64
1, 1981936, Note_on_c, 0, 80, 0
1, 1982003, Note_on_c, 0, 78, 80
1, 1982009, Note_on_c, 0, 66, 0
1, 1982022, Note_on_c, 0, 54, 0
1, 1982025, Note_on_c, 0, 81, 45
1, 1982048, Note_on_c, 0, 83, 0
1, 1982069, Note_on_c, 0, 75, 69
1, 1982164, Note_on_c, 0, 66, 84
1, 1982168, Note_on_c, 0, 63, 80
1, 1982173, Note_on_c, 0, 54, 62
1, 1982175, Note_on_c, 0, 78, 0
1, 1982176, Note_on_c, 0, 87, 101
1, 1982178, Note_on_c, 0, 59, 59
1, 1982201, Note_on_c, 0, 75, 0
1, 1982215, Note_on_c, 0, 59, 0
1, 1982215, Note_on_c, 0, 54, 0
1, 1982221, Note_on_c, 0, 81, 0
1, 1982222, Poly_aftertouch_c, 0, 81, 0
1, 1982242, Note_on_c, 0, 63, 0
1, 1982256, Note_on_c, 0, 66, 0
1, 1982293, Note_on_c, 0, 78, 80
1, 1982329, Note_on_c, 0, 87, 0
1, 1982373, Note_on_c, 0, 75, 74
1, 1982426, Note_on_c, 0, 78, 0
1, 1982470, Note_on_c, 0, 54, 67
1, 1982498, Note_on_c, 0, 58, 68
1, 1982514, Note_on_c, 0, 61, 77
1, 1982534, Note_on_c, 0, 64, 83
1, 1982535, Note_on_c, 0, 85, 98
1, 1982547, Note_on_c, 0, 66, 91
1, 1982566, Control_c, 0, 64, 120
1, 1982584, Control_c, 0, 64, 61
1, 1982587, Note_on_c, 0, 75, 0
1, 1982603, Control_c, 0, 64, 0
1, 1982666, Control_c, 0, 64, 35
1, 1982682, Note_on_c, 0, 76, 72
1, 1982686, Control_c, 0, 64, 77
1, 1982705, Control_c, 0, 64, 118
1, 1982723, Control_c, 0, 64, 127
1, 1982748, Note_on_c, 0, 85, 0
1, 1982768, Note_on_c, 0, 54, 0
1, 1982776, Note_on_c, 0, 66, 0
1, 1982779, Note_on_c, 0, 58, 0
1, 1982783, Note_on_c, 0, 64, 0
1, 1982785, Note_on_c, 0, 73, 77
1, 1982796, Note_on_c, 0, 61, 0
1, 1982800, Note_on_c, 0, 76, 0
1, 1982877, Note_on_c, 0, 82, 88
1, 1982877, Note_on_c, 0, 66, 73
1, 1982885, Note_on_c, 0, 61, 60
1, 1982891, Note_on_c, 0, 54, 65
1, 1982893, Note_on_c, 0, 64, 71
1, 1982902, Note_on_c, 0, 73, 0
1, 1982905, Note_on_c, 0, 58, 61
1, 1982968, Note_on_c, 0, 66, 0
1, 1982985, Note_on_c, 0, 73, 68
1, 1983002, Note_on_c, 0, 82, 0
1, 1983012, Note_on_c, 0, 64, 0
1, 1983064, Note_on_c, 0, 70, 76
1, 1983080, Note_on_c, 0, 61, 0
1, 1983092, Note_on_c, 0, 73, 0
1, 1983100, Note_on_c, 0, 58, 0
1, 1983148, Note_on_c, 0, 54, 0
1, 1983163, Note_on_c, 0, 78, 87
1, 1983178, Note_on_c, 0, 70, 0
1, 1983287, Note_on_c, 0, 70, 67
1, 1983324, Note_on_c, 0, 78, 0
1, 1983344, Note_on_c, 0, 66, 66
1, 1983433, Note_on_c, 0, 70, 0
1, 1983449, Note_on_c, 0, 30, 74
1, 1983453, Note_on_c, 0, 42, 77
1, 1983455, Note_on_c, 0, 76, 80
1, 1983471, Note_on_c, 0, 66, 0
1, 1983482, Note_on_c, 0, 30, 0
1, 1983484, Note_on_c, 0, 42, 0
1, 1983587, Note_on_c, 0, 70, 63
1, 1983623, Note_on_c, 0, 76, 0
1, 1983685, Note_on_c, 0, 66, 56
1, 1983700, Note_on_c, 0, 70, 0
1, 1983759, Note_on_c, 0, 51, 82
1, 1983763, Note_on_c, 0, 63, 86
1, 1983765, Note_on_c, 0, 75, 81
1, 1983768, Control_c, 0, 64, 88
1, 1983775, Note_on_c, 0, 66, 0
1, 1983789, Control_c, 0, 64, 46
1, 1983807, Control_c, 0, 64, 37
1, 1983824, Control_c, 0, 64, 50
1, 1983844, Control_c, 0, 64, 69
1, 1983861, Control_c, 0, 64, 91
1, 1983878, Control_c, 0, 64, 127
1, 1983880, Note_on_c, 0, 71, 66
1, 1983896, Note_on_c, 0, 75, 0
1, 1983947, Note_on_c, 0, 63, 0
1, 1983963, Note_on_c, 0, 66, 70
1, 1983969, Note_on_c, 0, 71, 0
1, 1984035, Note_on_c, 0, 66, 0
1, 1984063, Note_on_c, 0, 61, 97
1, 1984069, Note_on_c, 0, 49, 86
1, 1984077, Note_on_c, 0, 78, 84
1, 1984166, Note_on_c, 0, 75, 74
1, 1984169, Note_on_c, 0, 78, 0
1, 1984245, Note_on_c, 0, 75, 0
1, 1984250, Note_on_c, 0, 71, 71
1, 1984269, Note_on_c, 0, 61, 0
1, 1984336, Note_on_c, 0, 71, 0
1, 1984351, Note_on_c, 0, 49, 0
1, 1984374, Note_on_c, 0, 59, 102
1, 1984378, Poly_aftertouch_c, 0, 51, 24
1, 1984379, Note_on_c, 0, 83, 89
1, 1984379, Note_on_c, 0, 47, 84
1, 1984427, Note_on_c, 0, 51, 0
1, 1984427, Poly_aftertouch_c, 0, 51, 0
1, 1984432, Note_on_c, 0, 59, 0
1, 1984474, Note_on_c, 0, 47, 0
1, 1984490, Note_on_c, 0, 78, 81
1, 1984494, Poly_aftertouch_c, 0, 49, 0
1, 1984519, Note_on_c, 0, 81, 27
1, 1984520, Note_on_c, 0, 83, 0
1, 1984541, Note_on_c, 0, 75, 76
1, 1984569, Note_on_c, 0, 81, 0
1, 1984615, Note_on_c, 0, 78, 0
1, 1984639, Note_on_c, 0, 87, 95
1, 1984646, Note_on_c, 0, 42, 79
1, 1984647, Note_on_c, 0, 30, 81
1, 1984659, Note_on_c, 0, 75, 0
1, 1984694, Note_on_c, 0, 42, 0
1, 1984720, Note_on_c, 0, 30, 0
1, 1984731, Note_on_c, 0, 78, 84
1, 1984772, Note_on_c, 0, 43, 86
1, 1984772, Note_on_c, 0, 31, 82
1, 1984782, Note_on_c, 0, 87, 0
1, 1984782, Poly_aftertouch_c, 0, 81, 0
1, 1984811, Note_on_c, 0, 75, 78
1, 1984817, Note_on_c, 0, 31, 0
1, 1984825, Note_on_c, 0, 78, 0
1, 1984839, Note_on_c, 0, 43, 0
1, 1984863, Note_on_c, 0, 75, 0
1, 1984908, Control_c, 0, 64, 87
1, 1984928, Control_c, 0, 64, 28
1, 1984947, Control_c, 0, 64, 0
1, 1984963, Control_c, 0, 64, 28
1, 1984968, Note_on_c, 0, 51, 87
1, 1984974, Note_on_c, 0, 63, 98
1, 1984980, Control_c, 0, 64, 51
1, 1985002, Control_c, 0, 64, 81
1, 1985019, Control_c, 0, 64, 116
1, 1985037, Control_c, 0, 64, 127
1, 1985107, Poly_aftertouch_c, 0, 54, 0
1, 1985155, Note_on_c, 0, 63, 0
1, 1985209, Note_on_c, 0, 51, 0
1, 1985211, Note_on_c, 0, 75, 88
1, 1985238, Note_on_c, 0, 61, 99
1, 1985247, Note_on_c, 0, 49, 82
1, 1985299, Note_on_c, 0, 71, 82
1, 1985328, Note_on_c, 0, 75, 0
1, 1985391, Note_on_c, 0, 67, 63
1, 1985393, Poly_aftertouch_c, 0, 50, 0
1, 1985395, Note_on_c, 0, 65, 68
1, 1985403, Note_on_c, 0, 71, 0
1, 1985448, Note_on_c, 0, 61, 0
1, 1985454, Note_on_c, 0, 65, 0
1, 1985474, Control_c, 0, 64, 102
1, 1985491, Note_on_c, 0, 67, 0
1, 1985492, Control_c, 0, 64, 47
1, 1985511, Control_c, 0, 64, 31
1, 1985518, Note_on_c, 0, 79, 87
1, 1985525, Note_on_c, 0, 59, 102
1, 1985530, Control_c, 0, 64, 56
1, 1985536, Note_on_c, 0, 47, 81
1, 1985547, Control_c, 0, 64, 85
1, 1985566, Control_c, 0, 64, 126
1, 1985584, Note_on_c, 0, 49, 0
1, 1985595, Note_on_c, 0, 59, 0
1, 1985603, Note_on_c, 0, 75, 85
1, 1985634, Note_on_c, 0, 79, 0
1, 1985635, Note_on_c, 0, 47, 0
1, 1985650, Poly_aftertouch_c, 0, 53, 0
1, 1985683, Note_on_c, 0, 71, 81
1, 1985691, Note_on_c, 0, 75, 0
1, 1985728, Note_on_c, 0, 71, 0
1, 1985779, Note_on_c, 0, 43, 88
1, 1985784, Note_on_c, 0, 87, 97
1, 1985793, Note_on_c, 0, 31, 82
1, 1985831, Note_on_c, 0, 31, 0
1, 1985838, Note_on_c, 0, 43, 0
1, 1985863, Note_on_c, 0, 79, 75
1, 1985922, Note_on_c, 0, 87, 0
1, 1985927, Note_on_c, 0, 44, 96
1, 1985937, Note_on_c, 0, 32, 76
1, 1985955, Note_on_c, 0, 75, 82
1, 1985963, Note_on_c, 0, 32, 0
1, 1985971, Note_on_c, 0, 44, 0
1, 1985986, Note_on_c, 0, 79, 0
1, 1986010, Note_on_c, 0, 75, 0
1, 1986102, Note_on_c, 0, 63, 101
1, 1986102, Note_on_c, 0, 51, 86
1, 1986123, Control_c, 0, 64, 106
1, 1986140, Note_on_c, 0, 54, 43
1, 1986141, Control_c, 0, 64, 60
1, 1986160, Control_c, 0, 64, 22
1, 1986180, Note_on_c, 0, 54, 0
1, 1986197, Control_c, 0, 64, 41
1, 1986217, Control_c, 0, 64, 63
1, 1986235, Control_c, 0, 64, 85
1, 1986254, Control_c, 0, 64, 124
1, 1986285, Note_on_c, 0, 63, 0
1, 1986328, Note_on_c, 0, 75, 91
1, 1986372, Note_on_c, 0, 61, 94
1, 1986380, Note_on_c, 0, 49, 81
1, 1986437, Note_on_c, 0, 71, 72
1, 1986460, Note_on_c, 0, 75, 0
1, 1986471, Poly_aftertouch_c, 0, 53, 0
1, 1986516, Note_on_c, 0, 68, 81
1, 1986522, Poly_aftertouch_c, 0, 50, 0
1, 1986529, Note_on_c, 0, 71, 0
1, 1986558, Note_on_c, 0, 61, 0
1, 1986578, Control_c, 0, 64, 117
1, 1986596, Control_c, 0, 64, 59
1, 1986600, Note_on_c, 0, 68, 0
1, 1986615, Control_c, 0, 64, 0
1, 1986630, Note_on_c, 0, 80, 87
1, 1986642, Note_on_c, 0, 59, 101
1, 1986651, Control_c, 0, 64, 25
1, 1986652, Note_on_c, 0, 47, 83
1, 1986669, Control_c, 0, 64, 63
1, 1986670, Poly_aftertouch_c, 0, 51, 24
1, 1986678, Note_on_c, 0, 78, 31
1, 1986688, Control_c, 0, 64, 107
1, 1986699, Note_on_c, 0, 49, 0
1, 1986704, Control_c, 0, 64, 127
1, 1986706, Note_on_c, 0, 79, 36
1, 1986711, Note_on_c, 0, 51, 0
1, 1986711, Poly_aftertouch_c, 0, 51, 0
1, 1986718, Note_on_c, 0, 59, 0
1, 1986730, Note_on_c, 0, 75, 81
1, 1986751, Note_on_c, 0, 79, 0
1, 1986760, Note_on_c, 0, 80, 0
1, 1986766, Note_on_c, 0, 47, 0
1, 1986776, Note_on_c, 0, 71, 66
1, 1986783, Note_on_c, 0, 78, 0
1, 1986814, Note_on_c, 0, 75, 0
1, 1986839, Note_on_c, 0, 71, 0
1, 1986904, Note_on_c, 0, 87, 96
1, 1986923, Note_on_c, 0, 44, 83
1, 1986926, Note_on_c, 0, 32, 86
1, 1986986, Note_on_c, 0, 44, 0
1, 1987004, Note_on_c, 0, 32, 0
1, 1987010, Note_on_c, 0, 79, 70
1, 1987031, Note_on_c, 0, 87, 0
1, 1987051, Note_on_c, 0, 45, 85
1, 1987059, Note_on_c, 0, 33, 81
1, 1987079, Note_on_c, 0, 75, 85
1, 1987095, Note_on_c, 0, 79, 0
1, 1987096, Note_on_c, 0, 33, 0
1, 1987112, Note_on_c, 0, 45, 0
1, 1987140, Note_on_c, 0, 75, 0
1, 1987249, Note_on_c, 0, 51, 85
1, 1987254, Note_on_c, 0, 63, 96
1, 1987323, Note_on_c, 0, 54, 18
1, 1987386, Note_on_c, 0, 54, 0
1, 1987457, Note_on_c, 0, 63, 0
1, 1987511, Control_c, 0, 64, 112
1, 1987514, Note_on_c, 0, 75, 97
1, 1987532, Control_c, 0, 64, 55
1, 1987533, Note_on_c, 0, 61, 97
1, 1987537, Note_on_c, 0, 49, 84
1, 1987550, Control_c, 0, 64, 0
1, 1987605, Control_c, 0, 64, 37
1, 1987624, Control_c, 0, 64, 77
1, 1987641, Control_c, 0, 64, 126
1, 1987644, Note_on_c, 0, 72, 74
1, 1987682, Note_on_c, 0, 75, 0
1, 1987741, Note_on_c, 0, 69, 69
1, 1987759, Note_on_c, 0, 72, 0
1, 1987801, Note_on_c, 0, 61, 0
1, 1987808, Note_on_c, 0, 69, 0
1, 1987860, Note_on_c, 0, 81, 93
1, 1987865, Note_on_c, 0, 60, 103
1, 1987874, Note_on_c, 0, 48, 84
1, 1987913, Note_on_c, 0, 49, 0
1, 1987923, Note_on_c, 0, 60, 0
1, 1987946, Note_on_c, 0, 51, 0
1, 1987954, Note_on_c, 0, 48, 0
1, 1987975, Note_on_c, 0, 75, 84
1, 1988011, Note_on_c, 0, 81, 0
1, 1988068, Note_on_c, 0, 75, 0
1, 1988089, Note_on_c, 0, 72, 78
1, 1988152, Note_on_c, 0, 72, 0
1, 1988320, Note_on_c, 0, 45, 96
1, 1988320, Note_on_c, 0, 87, 98
1, 1988328, Note_on_c, 0, 33, 86
1, 1988413, Control_c, 0, 64, 115
1, 1988430, Control_c, 0, 64, 58
1, 1988448, Control_c, 0, 64, 0
1, 1988504, Control_c, 0, 64, 37
1, 1988522, Control_c, 0, 64, 83
1, 1988525, Note_on_c, 0, 84, 75
1, 1988541, Control_c, 0, 64, 125
1, 1988618, Note_on_c, 0, 33, 0
1, 1988674, Note_on_c, 0, 87, 0
1, 1988704, Note_on_c, 0, 75, 88
1, 1988707, Poly_aftertouch_c, 0, 85, 0
1, 1988731, Note_on_c, 0, 84, 0
1, 1988838, Note_on_c, 0, 45, 0
1, 1988865, Note_on_c, 0, 75, 0
1, 1988968, Note_on_c, 0, 34, 86
1, 1989084, Note_on_c, 0, 75, 106
1, 1989085, Note_on_c, 0, 87, 98
1, 1989086, Note_on_c, 0, 82, 92
1, 1989087, Note_on_c, 0, 77, 93
1, 1989134, Control_c, 0, 64, 73
1, 1989153, Control_c, 0, 64, 0
1, 1989217, Poly_aftertouch_c, 0, 84, 0
1, 1989274, Control_c, 0, 64, 54
1, 1989291, Control_c, 0, 64, 94
1, 1989310, Control_c, 0, 64, 127
1, 1989335, Note_on_c, 0, 41, 74
1, 1989396, Note_on_c, 0, 34, 0
1, 1989472, Poly_aftertouch_c, 0, 38, 0
1, 1989517, Note_on_c, 0, 46, 81
1, 1989554, Poly_aftertouch_c, 0, 42, 0
1, 1989576, Note_on_c, 0, 41, 0
1, 1989697, Note_on_c, 0, 50, 76
1, 1989702, Note_on_c, 0, 46, 0
1, 1989814, Note_on_c, 0, 50, 0
1, 1989835, Note_on_c, 0, 53, 83
1, 1989963, Note_on_c, 0, 58, 90
1, 1990000, Note_on_c, 0, 53, 0
1, 1990111, Note_on_c, 0, 62, 101
1, 1990128, Note_on_c, 0, 58, 0
1, 1990179, Note_on_c, 0, 62, 0
1, 1990298, Note_on_c, 0, 77, 0
1, 1990306, Note_on_c, 0, 82, 0
1, 1990341, Note_on_c, 0, 87, 0
1, 1990412, Note_on_c, 0, 75, 0
1, 1990539, Note_on_c, 0, 86, 93
1, 1990546, Note_on_c, 0, 74, 101
1, 1990547, Note_on_c, 0, 77, 95
1, 1990547, Note_on_c, 0, 82, 89
1, 1990719, Note_on_c, 0, 77, 0
1, 1990722, Note_on_c, 0, 82, 0
1, 1990722, Note_on_c, 0, 86, 0
1, 1990784, Note_on_c, 0, 74, 0
1, 1990941, Note_on_c, 0, 31, 90
1, 1991109, Note_on_c, 0, 84, 93
1, 1991114, Note_on_c, 0, 72, 101
1, 1991116, Note_on_c, 0, 74, 94
1, 1991123, Note_on_c, 0, 79, 84
1, 1991145, Control_c, 0, 64, 99
1, 1991164, Control_c, 0, 64, 35
1, 1991180, Control_c, 0, 64, 0
1, 1991218, Control_c, 0, 64, 11
1, 1991236, Control_c, 0, 64, 48
1, 1991256, Control_c, 0, 64, 89
1, 1991274, Control_c, 0, 64, 127
1, 1991278, Note_on_c, 0, 31, 0
1, 1991282, Note_on_c, 0, 43, 81
1, 1991388, Note_on_c, 0, 43, 0
1, 1991430, Note_on_c, 0, 46, 78
1, 1991560, Note_on_c, 0, 50, 80
1, 1991583, Note_on_c, 0, 46, 0
1, 1991684, Note_on_c, 0, 50, 0
1, 1991687, Note_on_c, 0, 55, 85
1, 1991791, Note_on_c, 0, 55, 0
1, 1991806, Note_on_c, 0, 58, 88
1, 1991874, Note_on_c, 0, 84, 0
1, 1991898, Note_on_c, 0, 72, 0
1, 1991906, Note_on_c, 0, 79, 0
1, 1991938, Note_on_c, 0, 74, 0
1, 1991938, Note_on_c, 0, 62, 95
1, 1991980, Note_on_c, 0, 58, 0
1, 1992168, Note_on_c, 0, 62, 0
1, 1992286, Note_on_c, 0, 70, 103
1, 1992288, Note_on_c, 0, 82, 93
1, 1992295, Note_on_c, 0, 79, 86
1, 1992295, Note_on_c, 0, 74, 90
1, 1992433, Note_on_c, 0, 82, 0
1, 1992449, Note_on_c, 0, 74, 0
1, 1992465, Note_on_c, 0, 79, 0
1, 1992532, Note_on_c, 0, 70, 0
1, 1992669, Note_on_c, 0, 29, 86
1, 1992753, Note_on_c, 0, 68, 105
1, 1992754, Note_on_c, 0, 80, 97
1, 1992761, Note_on_c, 0, 71, 92
1, 1992763, Note_on_c, 0, 74, 84
1, 1992765, Control_c, 0, 64, 87
1, 1992785, Control_c, 0, 64, 26
1, 1992802, Control_c, 0, 64, 0
1, 1992840, Control_c, 0, 64, 35
1, 1992858, Control_c, 0, 64, 82
1, 1992860, Poly_aftertouch_c, 0, 77, 0
1, 1992876, Control_c, 0, 64, 127
1, 1992885, Note_on_c, 0, 41, 80
1, 1992887, Note_on_c, 0, 29, 0
1, 1992985, Note_on_c, 0, 41, 0
1, 1993033, Note_on_c, 0, 47, 86
1, 1993162, Note_on_c, 0, 50, 87
1, 1993173, Note_on_c, 0, 47, 0
1, 1993212, Note_on_c, 0, 74, 0
1, 1993212, Note_on_c, 0, 71, 0
1, 1993212, Note_on_c, 0, 80, 0
1, 1993271, Note_on_c, 0, 53, 86
1, 1993281, Note_on_c, 0, 50, 0
1, 1993304, Note_on_c, 0, 68, 0
1, 1993365, Note_on_c, 0, 53, 0
1, 1993402, Note_on_c, 0, 59, 87
1, 1993480, Note_on_c, 0, 79, 91
1, 1993488, Note_on_c, 0, 67, 98
1, 1993492, Note_on_c, 0, 74, 80
1, 1993497, Note_on_c, 0, 71, 81
1, 1993523, Note_on_c, 0, 62, 91
1, 1993536, Note_on_c, 0, 59, 0
1, 1993600, Note_on_c, 0, 62, 0
1, 1993705, Note_on_c, 0, 79, 0
1, 1993726, Note_on_c, 0, 67, 0
1, 1993748, Note_on_c, 0, 74, 0
1, 1993752, Note_on_c, 0, 71, 0
1, 1993825, Note_on_c, 0, 77, 97
1, 1993830, Note_on_c, 0, 65, 98
1, 1993845, Note_on_c, 0, 71, 65
1, 1993853, Note_on_c, 0, 74, 61
1, 1993866, Note_on_c, 0, 67, 59
1, 1993867, Note_on_c, 0, 67, 0
1, 1993876, Note_on_c, 0, 74, 0
1, 1993881, Note_on_c, 0, 71, 0
1, 1993916, Note_on_c, 0, 65, 0
1, 1994004, Note_on_c, 0, 77, 0
1, 1994007, Note_on_c, 0, 75, 53
1, 1994011, Note_on_c, 0, 65, 62
1, 1994029, Poly_aftertouch_c, 0, 67, 0
1, 1994037, Note_on_c, 0, 75, 0
1, 1994059, Poly_aftertouch_c, 0, 76, 0
1, 1994100, Note_on_c, 0, 68, 69
1, 1994172, Note_on_c, 0, 74, 77
1, 1994222, Note_on_c, 0, 35, 90
1, 1994266, Control_c, 0, 64, 78
1, 1994268, Note_on_c, 0, 77, 98
1, 1994285, Control_c, 0, 64, 0
1, 1994358, Control_c, 0, 64, 48
1, 1994377, Control_c, 0, 64, 95
1, 1994395, Control_c, 0, 64, 127
1, 1994403, Note_on_c, 0, 38, 74
1, 1994521, Note_on_c, 0, 35, 0
1, 1994535, Note_on_c, 0, 44, 80
1, 1994565, Note_on_c, 0, 38, 0
1, 1994612, Note_on_c, 0, 77, 0
1, 1994646, Note_on_c, 0, 74, 0
1, 1994653, Note_on_c, 0, 68, 0
1, 1994654, Note_on_c, 0, 47, 78
1, 1994656, Note_on_c, 0, 44, 0
1, 1994742, Note_on_c, 0, 65, 0
1, 1994743, Note_on_c, 0, 47, 0
1, 1994773, Note_on_c, 0, 50, 81
1, 1994892, Note_on_c, 0, 56, 81
1, 1994907, Note_on_c, 0, 64, 55
1, 1994928, Note_on_c, 0, 65, 78
1, 1994934, Note_on_c, 0, 50, 0
1, 1995005, Note_on_c, 0, 68, 70
1, 1995030, Poly_aftertouch_c, 0, 62, 0
1, 1995051, Note_on_c, 0, 59, 80
1, 1995056, Note_on_c, 0, 76, 91
1, 1995060, Note_on_c, 0, 56, 0
1, 1995132, Note_on_c, 0, 59, 0
1, 1995263, Note_on_c, 0, 76, 0
1, 1995296, Note_on_c, 0, 65, 0
1, 1995302, Note_on_c, 0, 64, 0
1, 1995382, Note_on_c, 0, 68, 0
1, 1995430, Note_on_c, 0, 62, 68
1, 1995456, Note_on_c, 0, 65, 65
1, 1995529, Note_on_c, 0, 68, 74
1, 1995571, Note_on_c, 0, 74, 91
1, 1995905, Note_on_c, 0, 74, 0
1, 1995931, Note_on_c, 0, 36, 54
1, 1995985, Note_on_c, 0, 41, 60
1, 1996020, Note_on_c, 0, 68, 0
1, 1996040, Note_on_c, 0, 45, 64
1, 1996051, Note_on_c, 0, 62, 0
1, 1996165, Note_on_c, 0, 48, 73
1, 1996175, Control_c, 0, 67, 11
1, 1996212, Control_c, 0, 67, 16
1, 1996285, Control_c, 0, 64, 86
1, 1996294, Note_on_c, 0, 72, 83
1, 1996295, Note_on_c, 0, 60, 79
1, 1996296, Note_on_c, 0, 69, 78
1, 1996304, Control_c, 0, 64, 28
1, 1996307, Control_c, 0, 67, 12
1, 1996310, Note_on_c, 0, 65, 0
1, 1996323, Control_c, 0, 64, 0
1, 1996362, Note_on_c, 0, 36, 0
1, 1996379, Control_c, 0, 64, 16
1, 1996398, Control_c, 0, 64, 50
1, 1996414, Control_c, 0, 64, 86
1, 1996433, Control_c, 0, 64, 121
1, 1996451, Control_c, 0, 64, 127
1, 1996488, Note_on_c, 0, 41, 0
1, 1996508, Control_c, 0, 67, 8
1, 1996538, Note_on_c, 0, 45, 0
1, 1996548, Note_on_c, 0, 48, 0
1, 1996614, Note_on_c, 0, 67, 63
1, 1996664, Note_on_c, 0, 60, 0
1, 1996686, Note_on_c, 0, 72, 0
1, 1996769, Note_on_c, 0, 65, 66
1, 1996771, Note_on_c, 0, 69, 0
1, 1996800, Note_on_c, 0, 67, 0
1, 1996898, Note_on_c, 0, 65, 0
1, 1996906, Control_c, 0, 67, 0
1, 1996916, Note_on_c, 0, 60, 65
1, 1996916, Note_on_c, 0, 57, 60
1, 1997031, Note_on_c, 0, 60, 0
1, 1997031, Note_on_c, 0, 57, 0
1, 1997051, Note_on_c, 0, 55, 61
1, 1997059, Note_on_c, 0, 72, 66
1, 1997148, Note_on_c, 0, 55, 0
1, 1997155, Note_on_c, 0, 53, 66
1, 1997165, Note_on_c, 0, 72, 0
1, 1997168, Note_on_c, 0, 69, 70
1, 1997259, Note_on_c, 0, 48, 65
1, 1997269, Note_on_c, 0, 53, 0
1, 1997271, Note_on_c, 0, 69, 0
1, 1997275, Note_on_c, 0, 67, 76
1, 1997333, Note_on_c, 0, 48, 0
1, 1997335, Note_on_c, 0, 67, 0
1, 1997370, Note_on_c, 0, 65, 80
1, 1997380, Note_on_c, 0, 60, 73
1, 1997443, Note_on_c, 0, 65, 0
1, 1997457, Note_on_c, 0, 77, 84
1, 1997464, Note_on_c, 0, 57, 64
1, 1997478, Note_on_c, 0, 60, 0
1, 1997551, Note_on_c, 0, 57, 0
1, 1997554, Note_on_c, 0, 55, 73
1, 1997563, Note_on_c, 0, 72, 80
1, 1997564, Note_on_c, 0, 77, 0
1, 1997679, Note_on_c, 0, 72, 0
1, 1997680, Note_on_c, 0, 53, 61
1, 1997680, Note_on_c, 0, 69, 80
1, 1997717, Note_on_c, 0, 53, 0
1, 1997738, Note_on_c, 0, 65, 63
1, 1997742, Note_on_c, 0, 69, 0
1, 1997757, Note_on_c, 0, 81, 88
1, 1997778, Note_on_c, 0, 55, 0
1, 1997836, Note_on_c, 0, 60, 75
1, 1997842, Note_on_c, 0, 79, 83
1, 1997853, Note_on_c, 0, 65, 0
1, 1997902, Note_on_c, 0, 81, 0
1, 1997936, Note_on_c, 0, 57, 80
1, 1997936, Note_on_c, 0, 77, 85
1, 1997940, Note_on_c, 0, 60, 0
1, 1997969, Note_on_c, 0, 79, 0
1, 1997993, Note_on_c, 0, 57, 0
1, 1998025, Note_on_c, 0, 69, 76
1, 1998030, Note_on_c, 0, 72, 79
1, 1998047, Note_on_c, 0, 77, 0
1, 1998118, Note_on_c, 0, 72, 0
1, 1998122, Note_on_c, 0, 84, 94
1, 1998133, Note_on_c, 0, 67, 81
1, 1998163, Note_on_c, 0, 69, 0
1, 1998224, Note_on_c, 0, 81, 82
1, 1998241, Note_on_c, 0, 65, 83
1, 1998245, Note_on_c, 0, 83, 60
1, 1998261, Note_on_c, 0, 84, 0
1, 1998271, Note_on_c, 0, 83, 0
1, 1998273, Note_on_c, 0, 67, 0
1, 1998315, Note_on_c, 0, 60, 88
1, 1998320, Note_on_c, 0, 65, 0
1, 1998327, Note_on_c, 0, 79, 92
1, 1998351, Note_on_c, 0, 81, 0
1, 1998428, Poly_aftertouch_c, 0, 64, 0
1, 1998459, Note_on_c, 0, 72, 93
1, 1998461, Note_on_c, 0, 77, 94
1, 1998463, Note_on_c, 0, 79, 0
1, 1998487, Note_on_c, 0, 60, 0
1, 1998599, Note_on_c, 0, 89, 94
1, 1998609, Note_on_c, 0, 69, 80
1, 1998610, Note_on_c, 0, 77, 0
1, 1998617, Note_on_c, 0, 72, 0
1, 1998704, Note_on_c, 0, 84, 91
1, 1998710, Note_on_c, 0, 67, 81
1, 1998726, Note_on_c, 0, 69, 0
1, 1998739, Note_on_c, 0, 89, 0
1, 1998793, Note_on_c, 0, 67, 0
1, 1998835, Note_on_c, 0, 65, 81
1, 1998839, Note_on_c, 0, 81, 91
1, 1998847, Note_on_c, 0, 84, 0
1, 1998954, Note_on_c, 0, 65, 0
1, 1998959, Note_on_c, 0, 81, 0
1, 1998963, Note_on_c, 0, 60, 82
1, 1998965, Note_on_c, 0, 93, 96
1, 1999061, Note_on_c, 0, 57, 84
1, 1999076, Note_on_c, 0, 89, 93
1, 1999079, Note_on_c, 0, 60, 0
1, 1999112, Note_on_c, 0, 93, 0
1, 1999121, Note_on_c, 0, 57, 0
1, 1999220, Note_on_c, 0, 48, 81
1, 1999228, Note_on_c, 0, 53, 75
1, 1999255, Note_on_c, 0, 57, 84
1, 1999290, Note_on_c, 0, 60, 87
1, 1999316, Control_c, 0, 64, 92
1, 1999330, Note_on_c, 0, 96, 100
1, 1999332, Control_c, 0, 64, 20
1, 1999334, Note_on_c, 0, 84, 99
1, 1999352, Control_c, 0, 64, 0
1, 1999373, Note_on_c, 0, 89, 0
1, 1999425, Control_c, 0, 64, 46
1, 1999444, Control_c, 0, 64, 90
1, 1999471, Control_c, 0, 64, 127
1, 1999514, Note_on_c, 0, 93, 88
1, 1999520, Note_on_c, 0, 96, 0
1, 1999537, Note_on_c, 0, 84, 0
1, 1999609, Note_on_c, 0, 89, 84
1, 1999629, Note_on_c, 0, 93, 0
1, 1999681, Note_on_c, 0, 89, 0
1, 1999696, Note_on_c, 0, 84, 78
1, 1999726, Note_on_c, 0, 84, 0
1, 1999800, Note_on_c, 0, 81, 62
1, 1999802, Note_on_c, 0, 79, 68
1, 1999850, Note_on_c, 0, 77, 77
1, 1999857, Note_on_c, 0, 81, 0
1, 1999857, Note_on_c, 0, 79, 0
1, 1999937, Note_on_c, 0, 72, 79
1, 1999938, Note_on_c, 0, 77, 0
1, 1999994, Note_on_c, 0, 72, 0
1, 2000007, Note_on_c, 0, 77, 74
1, 2000069, Note_on_c, 0, 81, 83
1, 2000080, Note_on_c, 0, 77, 0
1, 2000098, Note_on_c, 0, 81, 0
1, 2000154, Note_on_c, 0, 84, 83
1, 2000172, Note_on_c, 0, 53, 0
1, 2000209, Note_on_c, 0, 48, 0
1, 2000219, Note_on_c, 0, 89, 82
1, 2000225, Note_on_c, 0, 84, 0
1, 2000260, Note_on_c, 0, 93, 88
1, 2000274, Note_on_c, 0, 57, 0
1, 2000292, Note_on_c, 0, 89, 0
1, 2000310, Note_on_c, 0, 96, 99
1, 2000325, Note_on_c, 0, 93, 0
1, 2000375, Note_on_c, 0, 96, 0
1, 2000424, Note_on_c, 0, 60, 0
1, 2000483, Control_c, 0, 64, 111
1, 2000501, Control_c, 0, 64, 75
1, 2000520, Control_c, 0, 64, 36
1, 2000536, Control_c, 0, 64, 0
1, 2000553, Note_on_c, 0, 48, 76
1, 2000558, Note_on_c, 0, 52, 70
1, 2000590, Note_on_c, 0, 55, 82
1, 2000611, Note_on_c, 0, 58, 89
1, 2000632, Note_on_c, 0, 60, 91
1, 2000647, Control_c, 0, 64, 35
1, 2000652, Note_on_c, 0, 100, 93
1, 2000660, Note_on_c, 0, 88, 95
1, 2000666, Control_c, 0, 64, 75
1, 2000687, Control_c, 0, 64, 125
1, 2000811, Note_on_c, 0, 96, 77
1, 2000842, Note_on_c, 0, 88, 0
1, 2000847, Note_on_c, 0, 100, 0
1, 2000915, Note_on_c, 0, 94, 82
1, 2000923, Note_on_c, 0, 96, 0
1, 2000982, Note_on_c, 0, 88, 80
1, 2000983, Note_on_c, 0, 94, 0
1, 2001016, Note_on_c, 0, 88, 0
1, 2001080, Note_on_c, 0, 84, 84
1, 2001161, Note_on_c, 0, 84, 0
1, 2001168, Note_on_c, 0, 82, 70
1, 2001216, Note_on_c, 0, 82, 0
1, 2001240, Note_on_c, 0, 76, 77
1, 2001304, Note_on_c, 0, 76, 0
1, 2001306, Note_on_c, 0, 82, 77
1, 2001370, Note_on_c, 0, 82, 0
1, 2001371, Note_on_c, 0, 84, 74
1, 2001401, Note_on_c, 0, 84, 0
1, 2001460, Note_on_c, 0, 88, 83
1, 2001538, Note_on_c, 0, 94, 83
1, 2001540, Note_on_c, 0, 88, 0
1, 2001572, Note_on_c, 0, 96, 82
1, 2001625, Note_on_c, 0, 94, 0
1, 2001637, Note_on_c, 0, 100, 108
1, 2001651, Note_on_c, 0, 96, 0
1, 2001673, Note_on_c, 0, 55, 0
1, 2001673, Note_on_c, 0, 60, 0
1, 2001687, Note_on_c, 0, 48, 0
1, 2001695, Note_on_c, 0, 52, 0
1, 2001696, Note_on_c, 0, 100, 0
1, 2001704, Note_on_c, 0, 58, 0
1, 2001842, Control_c, 0, 64, 107
1, 2001861, Control_c, 0, 64, 83
1, 2001880, Control_c, 0, 64, 62
1, 2001898, Control_c, 0, 64, 48
1, 2001917, Control_c, 0, 64, 42
1, 2001936, Control_c, 0, 64, 37
1, 2001955, Control_c, 0, 64, 28
1, 2001965, Note_on_c, 0, 41, 70
1, 2001973, Control_c, 0, 64, 17
1, 2001993, Control_c, 0, 64, 8
1, 2002029, Control_c, 0, 64, 19
1, 2002030, Note_on_c, 0, 48, 64
1, 2002047, Control_c, 0, 64, 48
1, 2002059, Note_on_c, 0, 101, 95
1, 2002061, Note_on_c, 0, 89, 102
1, 2002063, Note_on_c, 0, 41, 0
1, 2002066, Control_c, 0, 64, 81
1, 2002066, Note_on_c, 0, 53, 87
1, 2002067, Note_on_c, 0, 96, 93
1, 2002069, Note_on_c, 0, 93, 96
1, 2002088, Note_on_c, 0, 57, 101
1, 2002088, Control_c, 0, 64, 117
1, 2002103, Control_c, 0, 64, 127
1, 2002110, Note_on_c, 0, 101, 0
1, 2002112, Note_on_c, 0, 48, 0
1, 2002121, Note_on_c, 0, 89, 0
1, 2002122, Note_on_c, 0, 53, 0
1, 2002128, Note_on_c, 0, 57, 0
1, 2002142, Note_on_c, 0, 96, 0
1, 2002147, Note_on_c, 0, 93, 0
1, 2002185, Poly_aftertouch_c, 0, 43, 0
1, 2002190, Poly_aftertouch_c, 0, 45, 0
1, 2002569, Note_on_c, 0, 53, 80
1, 2002571, Note_on_c, 0, 57, 80
1, 2002571, Note_on_c, 0, 67, 99
1, 2002571, Note_on_c, 0, 63, 90
1, 2002578, Note_on_c, 0, 91, 111
1, 2002582, Note_on_c, 0, 81, 106
1, 2002582, Note_on_c, 0, 79, 108
1, 2002584, Note_on_c, 0, 87, 103
1, 2002617, Note_on_c, 0, 90, 42
1, 2002618, Note_on_c, 0, 90, 0
1, 2002620, Note_on_c, 0, 67, 0
1, 2002623, Note_on_c, 0, 81, 0
1, 2002627, Note_on_c, 0, 91, 0
1, 2002629, Note_on_c, 0, 87, 0
1, 2002631, Note_on_c, 0, 79, 0
1, 2002633, Note_on_c, 0, 53, 0
1, 2002647, Note_on_c, 0, 57, 0
1, 2002647, Note_on_c, 0, 63, 0
1, 2002709, Poly_aftertouch_c, 0, 59, 0
1, 2002947, Control_c, 0, 64, 110
1, 2002950, Note_on_c, 0, 63, 89
1, 2002955, Note_on_c, 0, 60, 81
1, 2002957, Note_on_c, 0, 75, 89
1, 2002958, Note_on_c, 0, 53, 74
1, 2002959, Note_on_c, 0, 87, 87
1, 2002964, Note_on_c, 0, 84, 80
1, 2002965, Control_c, 0, 64, 78
1, 2002982, Note_on_c, 0, 63, 0
1, 2002984, Control_c, 0, 64, 51
1, 2002987, Note_on_c, 0, 60, 0
1, 2002992, Note_on_c, 0, 53, 0
1, 2002995, Note_on_c, 0, 84, 0
1, 2003003, Control_c, 0, 64, 36
1, 2003006, Note_on_c, 0, 75, 0
1, 2003014, Note_on_c, 0, 87, 0
1, 2003058, Control_c, 0, 64, 32
1, 2003145, Note_on_c, 0, 62, 97
1, 2003151, Note_on_c, 0, 74, 99
1, 2003153, Note_on_c, 0, 82, 94
1, 2003154, Note_on_c, 0, 58, 83
1, 2003154, Note_on_c, 0, 86, 92
1, 2003163, Note_on_c, 0, 53, 59
1, 2003185, Note_on_c, 0, 74, 0
1, 2003192, Note_on_c, 0, 62, 0
1, 2003195, Note_on_c, 0, 82, 0
1, 2003197, Note_on_c, 0, 53, 0
1, 2003207, Note_on_c, 0, 86, 0
1, 2003208, Note_on_c, 0, 58, 0
1, 2003253, Control_c, 0, 64, 26
1, 2003272, Control_c, 0, 64, 22
1, 2003289, Control_c, 0, 64, 15
1, 2003309, Control_c, 0, 64, 10
1, 2003387, Note_on_c, 0, 60, 96
1, 2003389, Note_on_c, 0, 57, 87
1, 2003394, Note_on_c, 0, 84, 97
1, 2003395, Note_on_c, 0, 72, 102
1, 2003397, Note_on_c, 0, 81, 96
1, 2003401, Note_on_c, 0, 53, 80
1, 2003432, Note_on_c, 0, 72, 0
1, 2003432, Note_on_c, 0, 83, 44
1, 2003433, Note_on_c, 0, 83, 0
1, 2003438, Note_on_c, 0, 53, 0
1, 2003444, Note_on_c, 0, 81, 0
1, 2003446, Note_on_c, 0, 60, 0
1, 2003449, Note_on_c, 0, 57, 0
1, 2003471, Note_on_c, 0, 84, 0
1, 2003637, Note_on_c, 0, 86, 93
1, 2003638, Note_on_c, 0, 53, 83
1, 2003638, Note_on_c, 0, 62, 79
1, 2003645, Note_on_c, 0, 74, 74
1, 2003651, Note_on_c, 0, 60, 63
1, 2003662, Note_on_c, 0, 62, 0
1, 2003663, Note_on_c, 0, 86, 0
1, 2003665, Note_on_c, 0, 74, 0
1, 2003668, Note_on_c, 0, 53, 0
1, 2003679, Note_on_c, 0, 60, 0
1, 2003712, Note_on_c, 0, 75, 101
1, 2003714, Note_on_c, 0, 85, 91
1, 2003716, Note_on_c, 0, 87, 90
1, 2003721, Note_on_c, 0, 53, 89
1, 2003724, Note_on_c, 0, 63, 101
1, 2003735, Note_on_c, 0, 60, 77
1, 2003739, Note_on_c, 0, 84, 83
1, 2003741, Note_on_c, 0, 85, 0
1, 2003769, Note_on_c, 0, 58, 43
1, 2003780, Note_on_c, 0, 63, 0
1, 2003780, Note_on_c, 0, 58, 0
1, 2003785, Note_on_c, 0, 53, 0
1, 2003788, Note_on_c, 0, 75, 0
1, 2003790, Note_on_c, 0, 60, 0
1, 2003797, Note_on_c, 0, 84, 0
1, 2003811, Note_on_c, 0, 87, 0
1, 2003988, Note_on_c, 0, 56, 35
1, 2004021, Note_on_c, 0, 56, 0
1, 2004068, Control_c, 0, 64, 0
1, 2004104, Control_c, 0, 64, 24
1, 2004116, Note_on_c, 0, 57, 68
1, 2004118, Note_on_c, 0, 53, 75
1, 2004122, Control_c, 0, 64, 53
1, 2004127, Note_on_c, 0, 63, 89
1, 2004128, Note_on_c, 0, 67, 98
1, 2004143, Note_on_c, 0, 91, 105
1, 2004145, Note_on_c, 0, 79, 98
1, 2004145, Note_on_c, 0, 87, 102
1, 2004146, Note_on_c, 0, 81, 102
1, 2004150, Control_c, 0, 64, 81
1, 2004170, Control_c, 0, 64, 111
1, 2004174, Note_on_c, 0, 53, 0
1, 2004183, Note_on_c, 0, 67, 0
1, 2004183, Note_on_c, 0, 81, 0
1, 2004187, Note_on_c, 0, 91, 0
1, 2004188, Control_c, 0, 64, 127
1, 2004189, Note_on_c, 0, 79, 0
1, 2004190, Note_on_c, 0, 87, 0
1, 2004196, Note_on_c, 0, 63, 0
1, 2004196, Note_on_c, 0, 59, 16
1, 2004205, Note_on_c, 0, 57, 0
1, 2004263, Note_on_c, 0, 59, 0
1, 2004484, Control_c, 0, 64, 123
1, 2004484, Note_on_c, 0, 63, 93
1, 2004485, Note_on_c, 0, 60, 88
1, 2004487, Note_on_c, 0, 75, 93
1, 2004487, Note_on_c, 0, 87, 92
1, 2004490, Note_on_c, 0, 84, 84
1, 2004493, Note_on_c, 0, 53, 77
1, 2004511, Control_c, 0, 64, 96
1, 2004519, Note_on_c, 0, 53, 0
1, 2004520, Control_c, 0, 64, 69
1, 2004526, Note_on_c, 0, 60, 0
1, 2004529, Note_on_c, 0, 63, 0
1, 2004537, Note_on_c, 0, 84, 0
1, 2004540, Control_c, 0, 64, 47
1, 2004541, Note_on_c, 0, 75, 0
1, 2004545, Note_on_c, 0, 87, 0
1, 2004559, Control_c, 0, 64, 40
1, 2004597, Control_c, 0, 64, 35
1, 2004677, Note_on_c, 0, 62, 100
1, 2004680, Note_on_c, 0, 86, 96
1, 2004681, Note_on_c, 0, 82, 95
1, 2004682, Note_on_c, 0, 74, 98
1, 2004684, Note_on_c, 0, 58, 86
1, 2004690, Note_on_c, 0, 53, 77
1, 2004706, Control_c, 0, 64, 31
1, 2004710, Note_on_c, 0, 62, 0
1, 2004718, Note_on_c, 0, 74, 0
1, 2004722, Note_on_c, 0, 82, 0
1, 2004724, Note_on_c, 0, 53, 0
1, 2004724, Note_on_c, 0, 58, 0
1, 2004733, Note_on_c, 0, 86, 0
1, 2004911, Note_on_c, 0, 57, 90
1, 2004911, Note_on_c, 0, 60, 97
1, 2004913, Note_on_c, 0, 84, 96
1, 2004915, Note_on_c, 0, 72, 98
1, 2004917, Note_on_c, 0, 81, 95
1, 2004925, Note_on_c, 0, 53, 80
1, 2004962, Note_on_c, 0, 53, 0
1, 2004963, Note_on_c, 0, 72, 0
1, 2004967, Note_on_c, 0, 60, 0
1, 2004972, Note_on_c, 0, 81, 0
1, 2004978, Note_on_c, 0, 57, 0
1, 2004998, Note_on_c, 0, 84, 0
1, 2005160, Note_on_c, 0, 86, 96
1, 2005165, Note_on_c, 0, 74, 86
1, 2005172, Note_on_c, 0, 53, 78
1, 2005174, Note_on_c, 0, 62, 72
1, 2005179, Note_on_c, 0, 60, 67
1, 2005193, Note_on_c, 0, 82, 49
1, 2005194, Note_on_c, 0, 82, 0
1, 2005195, Note_on_c, 0, 74, 0
1, 2005195, Note_on_c, 0, 86, 0
1, 2005197, Note_on_c, 0, 53, 0
1, 2005201, Note_on_c, 0, 62, 0
1, 2005206, Note_on_c, 0, 60, 0
1, 2005239, Note_on_c, 0, 75, 103
1, 2005244, Note_on_c, 0, 87, 92
1, 2005251, Note_on_c, 0, 63, 96
1, 2005256, Note_on_c, 0, 60, 75
1, 2005258, Note_on_c, 0, 53, 78
1, 2005259, Note_on_c, 0, 86, 56
1, 2005264, Note_on_c, 0, 83, 73
1, 2005266, Note_on_c, 0, 84, 73
1, 2005285, Note_on_c, 0, 86, 0
1, 2005320, Note_on_c, 0, 75, 0
1, 2005329, Note_on_c, 0, 84, 0
1, 2005329, Poly_aftertouch_c, 0, 74, 0
1, 2005331, Note_on_c, 0, 83, 0
1, 2005336, Note_on_c, 0, 53, 0
1, 2005350, Note_on_c, 0, 63, 0
1, 2005360, Note_on_c, 0, 60, 0
1, 2005368, Note_on_c, 0, 87, 0
1, 2005401, Control_c, 0, 64, 24
1, 2005419, Control_c, 0, 64, 12
1, 2005438, Control_c, 0, 64, 0
1, 2005512, Note_on_c, 0, 53, 56
1, 2005583, Note_on_c, 0, 57, 46
1, 2005605, Control_c, 0, 64, 13
1, 2005623, Control_c, 0, 64, 33
1, 2005642, Control_c, 0, 64, 46
1, 2005660, Control_c, 0, 64, 59
1, 2005666, Note_on_c, 0, 63, 61
1, 2005681, Control_c, 0, 64, 72
1, 2005699, Control_c, 0, 64, 82
1, 2005715, Control_c, 0, 64, 95
1, 2005724, Note_on_c, 0, 67, 66
1, 2005733, Control_c, 0, 64, 111
1, 2005741, Note_on_c, 0, 91, 92
1, 2005750, Note_on_c, 0, 81, 88
1, 2005751, Note_on_c, 0, 79, 86
1, 2005752, Note_on_c, 0, 87, 83
1, 2005752, Control_c, 0, 64, 127
1, 2005756, Note_on_c, 0, 53, 0
1, 2005793, Note_on_c, 0, 57, 0
1, 2005879, Note_on_c, 0, 67, 0
1, 2005918, Note_on_c, 0, 63, 0
1, 2006037, Poly_aftertouch_c, 0, 59, 0
1, 2006043, Note_on_c, 0, 87, 0
1, 2006095, Note_on_c, 0, 81, 0
1, 2006099, Note_on_c, 0, 91, 0
1, 2006103, Note_on_c, 0, 79, 0
1, 2006151, Control_c, 0, 64, 120
1, 2006161, Note_on_c, 0, 51, 67
1, 2006168, Control_c, 0, 64, 82
1, 2006189, Control_c, 0, 64, 32
1, 2006208, Control_c, 0, 64, 0
1, 2006242, Note_on_c, 0, 51, 0
1, 2006248, Note_on_c, 0, 58, 72
1, 2006290, Note_on_c, 0, 63, 76
1, 2006299, Control_c, 0, 64, 34
1, 2006318, Control_c, 0, 64, 67
1, 2006325, Note_on_c, 0, 67, 84
1, 2006338, Control_c, 0, 64, 96
1, 2006338, Note_on_c, 0, 91, 91
1, 2006340, Note_on_c, 0, 79, 99
1, 2006341, Note_on_c, 0, 82, 97
1, 2006342, Note_on_c, 0, 87, 91
1, 2006355, Control_c, 0, 64, 122
1, 2006374, Control_c, 0, 64, 127
1, 2006390, Note_on_c, 0, 58, 0
1, 2006393, Note_on_c, 0, 63, 0
1, 2006427, Note_on_c, 0, 67, 0
1, 2006680, Note_on_c, 0, 50, 75
1, 2006687, Control_c, 0, 64, 100
1, 2006707, Control_c, 0, 64, 52
1, 2006710, Note_on_c, 0, 87, 0
1, 2006724, Control_c, 0, 64, 0
1, 2006729, Note_on_c, 0, 82, 0
1, 2006739, Note_on_c, 0, 55, 68
1, 2006743, Control_c, 0, 64, 15
1, 2006763, Control_c, 0, 64, 48
1, 2006778, Note_on_c, 0, 79, 0
1, 2006782, Control_c, 0, 64, 75
1, 2006785, Note_on_c, 0, 58, 80
1, 2006787, Note_on_c, 0, 50, 0
1, 2006801, Control_c, 0, 64, 105
1, 2006812, Note_on_c, 0, 91, 0
1, 2006818, Control_c, 0, 64, 127
1, 2006860, Note_on_c, 0, 65, 81
1, 2006861, Note_on_c, 0, 67, 86
1, 2006890, Note_on_c, 0, 82, 88
1, 2006893, Note_on_c, 0, 79, 97
1, 2006894, Note_on_c, 0, 91, 89
1, 2006894, Note_on_c, 0, 89, 86
1, 2006899, Poly_aftertouch_c, 0, 52, 0
1, 2006929, Note_on_c, 0, 67, 0
1, 2006953, Note_on_c, 0, 65, 0
1, 2006972, Note_on_c, 0, 58, 0
1, 2007029, Note_on_c, 0, 55, 0
1, 2007030, Poly_aftertouch_c, 0, 55, 0
1, 2007031, Control_c, 0, 64, 116
1, 2007050, Control_c, 0, 64, 66
1, 2007067, Control_c, 0, 64, 0
1, 2007106, Note_on_c, 0, 48, 71
1, 2007124, Control_c, 0, 64, 23
1, 2007134, Note_on_c, 0, 55, 59
1, 2007142, Control_c, 0, 64, 62
1, 2007154, Note_on_c, 0, 58, 77
1, 2007161, Control_c, 0, 64, 104
1, 2007177, Note_on_c, 0, 48, 0
1, 2007179, Control_c, 0, 64, 127
1, 2007209, Note_on_c, 0, 55, 0
1, 2007225, Note_on_c, 0, 89, 0
1, 2007238, Note_on_c, 0, 58, 0
1, 2007239, Note_on_c, 0, 64, 77
1, 2007244, Note_on_c, 0, 79, 0
1, 2007250, Note_on_c, 0, 82, 0
1, 2007265, Note_on_c, 0, 91, 0
1, 2007286, Poly_aftertouch_c, 0, 50, 0
1, 2007347, Note_on_c, 0, 64, 0
1, 2007349, Note_on_c, 0, 67, 85
1, 2007374, Note_on_c, 0, 67, 0
1, 2007461, Note_on_c, 0, 91, 93
1, 2007463, Note_on_c, 0, 82, 99
1, 2007463, Note_on_c, 0, 79, 102
1, 2007465, Note_on_c, 0, 88, 93
1, 2007669, Note_on_c, 0, 48, 100
1, 2007678, Control_c, 0, 64, 95
1, 2007680, Note_on_c, 0, 36, 87
1, 2007699, Control_c, 0, 64, 20
1, 2007705, Note_on_c, 0, 43, 45
1, 2007717, Control_c, 0, 64, 0
1, 2007753, Note_on_c, 0, 43, 0
1, 2007765, Note_on_c, 0, 36, 0
1, 2007771, Control_c, 0, 64, 22
1, 2007791, Control_c, 0, 64, 74
1, 2007809, Control_c, 0, 64, 122
1, 2007819, Note_on_c, 0, 79, 0
1, 2007827, Note_on_c, 0, 91, 0
1, 2007828, Control_c, 0, 64, 127
1, 2007875, Note_on_c, 0, 48, 0
1, 2007940, Note_on_c, 0, 88, 0
1, 2007994, Note_on_c, 0, 82, 0
1, 2008374, Note_on_c, 0, 80, 108
1, 2008376, Note_on_c, 0, 92, 98
1, 2008378, Note_on_c, 0, 82, 97
1, 2008380, Note_on_c, 0, 68, 97
1, 2008381, Note_on_c, 0, 88, 90
1, 2008383, Note_on_c, 0, 64, 93
1, 2008389, Note_on_c, 0, 60, 80
1, 2008392, Note_on_c, 0, 58, 71
1, 2008421, Note_on_c, 0, 86, 55
1, 2008427, Note_on_c, 0, 58, 0
1, 2008432, Note_on_c, 0, 68, 0
1, 2008439, Note_on_c, 0, 86, 0
1, 2008450, Note_on_c, 0, 60, 0
1, 2008450, Note_on_c, 0, 64, 0
1, 2008490, Poly_aftertouch_c, 0, 62, 0
1, 2009122, Note_on_c, 0, 41, 112
1, 2009123, Note_on_c, 0, 29, 88
1, 2009144, Control_c, 0, 64, 97
1, 2009152, Note_on_c, 0, 80, 0
1, 2009160, Note_on_c, 0, 92, 0
1, 2009164, Control_c, 0, 64, 22
1, 2009171, Note_on_c, 0, 88, 0
1, 2009178, Note_on_c, 0, 82, 0
1, 2009181, Control_c, 0, 64, 0
1, 2009231, Note_on_c, 0, 33, 15
1, 2009243, Poly_aftertouch_c, 0, 36, 0
1, 2009247, Note_on_c, 0, 33, 0
1, 2009272, Control_c, 0, 64, 32
1, 2009276, Note_on_c, 0, 29, 0
1, 2009291, Control_c, 0, 64, 68
1, 2009311, Control_c, 0, 64, 108
1, 2009328, Control_c, 0, 64, 127
1, 2009333, Poly_aftertouch_c, 0, 31, 0
1, 2009386, Note_on_c, 0, 41, 0
1, 2010011, Note_on_c, 0, 53, 69
1, 2010021, Note_on_c, 0, 57, 63
1, 2010066, Note_on_c, 0, 60, 77
1, 2010087, Note_on_c, 0, 53, 0
1, 2010090, Note_on_c, 0, 63, 87
1, 2010112, Note_on_c, 0, 93, 97
1, 2010113, Note_on_c, 0, 81, 103
1, 2010116, Note_on_c, 0, 69, 101
1, 2010117, Note_on_c, 0, 89, 92
1, 2010117, Note_on_c, 0, 87, 91
1, 2010117, Note_on_c, 0, 84, 97
1, 2010123, Note_on_c, 0, 57, 0
1, 2010145, Note_on_c, 0, 60, 0
1, 2010149, Note_on_c, 0, 69, 0
1, 2010151, Note_on_c, 0, 63, 0
1, 2010180, Poly_aftertouch_c, 0, 61, 0
1, 2010252, Poly_aftertouch_c, 0, 61, 0
1, 2010700, Control_c, 0, 64, 98
1, 2010717, Note_on_c, 0, 34, 93
1, 2010718, Control_c, 0, 64, 17
1, 2010735, Note_on_c, 0, 81, 0
1, 2010736, Control_c, 0, 64, 0
1, 2010783, Note_on_c, 0, 84, 0
1, 2010788, Note_on_c, 0, 93, 0
1, 2010790, Control_c, 0, 64, 19
1, 2010811, Control_c, 0, 64, 67
1, 2010813, Note_on_c, 0, 87, 0
1, 2010818, Note_on_c, 0, 89, 0
1, 2010826, Note_on_c, 0, 46, 96
1, 2010830, Control_c, 0, 64, 122
1, 2010849, Control_c, 0, 64, 127
1, 2010861, Note_on_c, 0, 34, 0
1, 2010882, Note_on_c, 0, 46, 0
1, 2011292, Note_on_c, 0, 101, 101
1, 2011293, Note_on_c, 0, 89, 109
1, 2011300, Note_on_c, 0, 94, 97
1, 2011301, Note_on_c, 0, 65, 83
1, 2011301, Note_on_c, 0, 74, 96
1, 2011302, Note_on_c, 0, 62, 85
1, 2011302, Note_on_c, 0, 98, 93
1, 2011303, Note_on_c, 0, 70, 88
1, 2011346, Note_on_c, 0, 74, 0
1, 2011353, Note_on_c, 0, 62, 0
1, 2011358, Note_on_c, 0, 70, 0
1, 2011360, Note_on_c, 0, 65, 0
1, 2011711, Note_on_c, 0, 94, 0
1, 2011723, Note_on_c, 0, 98, 0
1, 2011753, Note_on_c, 0, 101, 0
1, 2011858, Note_on_c, 0, 89, 0
1, 2011906, Note_on_c, 0, 38, 73
1, 2011963, Note_on_c, 0, 45, 71
1, 2012004, Note_on_c, 0, 38, 0
1, 2012043, Note_on_c, 0, 86, 104
1, 2012044, Control_c, 0, 64, 71
1, 2012044, Note_on_c, 0, 53, 95
1, 2012046, Note_on_c, 0, 98, 96
1, 2012051, Note_on_c, 0, 93, 91
1, 2012052, Note_on_c, 0, 89, 94
1, 2012066, Control_c, 0, 64, 0
1, 2012098, Control_c, 0, 64, 11
1, 2012119, Control_c, 0, 64, 56
1, 2012136, Control_c, 0, 64, 100
1, 2012154, Control_c, 0, 64, 127
1, 2012176, Note_on_c, 0, 98, 0
1, 2012240, Note_on_c, 0, 86, 0
1, 2012280, Note_on_c, 0, 93, 0
1, 2012305, Note_on_c, 0, 89, 0
1, 2012392, Note_on_c, 0, 53, 0
1, 2012403, Note_on_c, 0, 45, 0
1, 2012703, Note_on_c, 0, 82, 103
1, 2012705, Note_on_c, 0, 55, 99
1, 2012705, Note_on_c, 0, 94, 98
1, 2012706, Note_on_c, 0, 46, 81
1, 2012712, Note_on_c, 0, 43, 83
1, 2012714, Note_on_c, 0, 91, 89
1, 2012717, Note_on_c, 0, 86, 89
1, 2012719, Control_c, 0, 64, 105
1, 2012739, Control_c, 0, 64, 38
1, 2012758, Control_c, 0, 64, 0
1, 2012768, Note_on_c, 0, 45, 25
1, 2012769, Note_on_c, 0, 45, 0
1, 2012773, Note_on_c, 0, 89, 18
1, 2012795, Note_on_c, 0, 89, 0
1, 2012813, Control_c, 0, 64, 31
1, 2012828, Poly_aftertouch_c, 0, 45, 0
1, 2012830, Control_c, 0, 64, 69
1, 2012846, Note_on_c, 0, 43, 0
1, 2012849, Control_c, 0, 64, 107
1, 2012851, Note_on_c, 0, 46, 0
1, 2012868, Control_c, 0, 64, 127
1, 2012986, Note_on_c, 0, 86, 0
1, 2013006, Note_on_c, 0, 55, 0
1, 2013009, Note_on_c, 0, 94, 0
1, 2013031, Note_on_c, 0, 91, 0
1, 2013141, Note_on_c, 0, 82, 0
1, 2013142, Note_on_c, 0, 45, 80
1, 2013165, Control_c, 0, 64, 114
1, 2013185, Control_c, 0, 64, 61
1, 2013200, Control_c, 0, 64, 0
1, 2013203, Note_on_c, 0, 52, 68
1, 2013251, Note_on_c, 0, 45, 0
1, 2013276, Control_c, 0, 64, 31
1, 2013287, Note_on_c, 0, 60, 94
1, 2013294, Control_c, 0, 64, 65
1, 2013308, Note_on_c, 0, 50, 11
1, 2013311, Control_c, 0, 64, 99
1, 2013332, Control_c, 0, 64, 127
1, 2013335, Note_on_c, 0, 60, 0
1, 2013341, Note_on_c, 0, 81, 105
1, 2013342, Note_on_c, 0, 93, 92
1, 2013349, Note_on_c, 0, 84, 96
1, 2013354, Note_on_c, 0, 88, 89
1, 2013361, Note_on_c, 0, 52, 0
1, 2013378, Note_on_c, 0, 50, 0
1, 2013565, Control_c, 0, 64, 79
1, 2013581, Control_c, 0, 64, 0
1, 2013636, Note_on_c, 0, 34, 86
1, 2013656, Control_c, 0, 64, 41
1, 2013676, Control_c, 0, 64, 84
1, 2013693, Control_c, 0, 64, 127
1, 2013706, Note_on_c, 0, 46, 96
1, 2013719, Note_on_c, 0, 84, 0
1, 2013720, Note_on_c, 0, 93, 0
1, 2013729, Note_on_c, 0, 34, 0
1, 2013752, Note_on_c, 0, 81, 0
1, 2013755, Note_on_c, 0, 88, 0
1, 2013762, Note_on_c, 0, 46, 0
1, 2014033, Note_on_c, 0, 79, 106
1, 2014035, Note_on_c, 0, 91, 98
1, 2014036, Note_on_c, 0, 65, 102
1, 2014038, Note_on_c, 0, 55, 81
1, 2014038, Note_on_c, 0, 89, 95
1, 2014042, Note_on_c, 0, 58, 86
1, 2014042, Note_on_c, 0, 62, 93
1, 2014043, Note_on_c, 0, 86, 96
1, 2014074, Note_on_c, 0, 55, 0
1, 2014098, Note_on_c, 0, 65, 0
1, 2014116, Note_on_c, 0, 62, 0
1, 2014116, Note_on_c, 0, 58, 0
1, 2014795, Control_c, 0, 64, 111
1, 2014814, Control_c, 0, 64, 57
1, 2014832, Control_c, 0, 64, 0
1, 2014838, Note_on_c, 0, 86, 0
1, 2014886, Control_c, 0, 64, 36
1, 2014905, Control_c, 0, 64, 67
1, 2014925, Control_c, 0, 64, 101
1, 2014943, Control_c, 0, 64, 127
1, 2014946, Note_on_c, 0, 89, 0
1, 2014961, Note_on_c, 0, 36, 81
1, 2015046, Note_on_c, 0, 48, 88
1, 2015055, Note_on_c, 0, 36, 0
1, 2015057, Note_on_c, 0, 79, 0
1, 2015077, Note_on_c, 0, 91, 0
1, 2015081, Note_on_c, 0, 48, 0
1, 2015187, Note_on_c, 0, 91, 94
1, 2015192, Note_on_c, 0, 79, 99
1, 2015192, Note_on_c, 0, 82, 100
1, 2015195, Note_on_c, 0, 88, 93
1, 2015201, Note_on_c, 0, 55, 89
1, 2015208, Note_on_c, 0, 60, 83
1, 2015214, Note_on_c, 0, 64, 83
1, 2015215, Note_on_c, 0, 58, 74
1, 2015302, Poly_aftertouch_c, 0, 86, 0
1, 2015441, Note_on_c, 0, 91, 0
1, 2015502, Note_on_c, 0, 79, 0
1, 2015671, Note_on_c, 0, 82, 0
1, 2015675, Note_on_c, 0, 64, 0
1, 2015677, Note_on_c, 0, 55, 0
1, 2015688, Note_on_c, 0, 60, 0
1, 2015700, Note_on_c, 0, 58, 0
1, 2015904, Note_on_c, 0, 93, 95
1, 2015909, Note_on_c, 0, 81, 95
1, 2015953, Control_c, 0, 64, 73
1, 2015972, Control_c, 0, 64, 0
1, 2015991, Note_on_c, 0, 41, 76
1, 2016026, Control_c, 0, 64, 39
1, 2016045, Control_c, 0, 64, 79
1, 2016063, Control_c, 0, 64, 127
1, 2016081, Note_on_c, 0, 48, 81
1, 2016114, Note_on_c, 0, 93, 0
1, 2016115, Note_on_c, 0, 41, 0
1, 2016117, Note_on_c, 0, 88, 0
1, 2016170, Note_on_c, 0, 48, 0
1, 2016171, Note_on_c, 0, 81, 0
1, 2016181, Note_on_c, 0, 53, 75
1, 2016238, Note_on_c, 0, 53, 0
1, 2016288, Note_on_c, 0, 57, 82
1, 2016377, Note_on_c, 0, 60, 80
1, 2016416, Note_on_c, 0, 57, 0
1, 2016496, Note_on_c, 0, 65, 98
1, 2016507, Note_on_c, 0, 89, 92
1, 2016507, Note_on_c, 0, 77, 106
1, 2016515, Note_on_c, 0, 81, 96
1, 2016516, Note_on_c, 0, 84, 91
1, 2016523, Note_on_c, 0, 60, 0
1, 2016541, Note_on_c, 0, 65, 0
1, 2017342, Control_c, 0, 64, 115
1, 2017360, Control_c, 0, 64, 60
1, 2017378, Control_c, 0, 64, 0
1, 2017417, Control_c, 0, 64, 22
1, 2017435, Control_c, 0, 64, 52
1, 2017446, Note_on_c, 0, 81, 0
1, 2017453, Control_c, 0, 64, 83
1, 2017467, Note_on_c, 0, 84, 0
1, 2017472, Control_c, 0, 64, 120
1, 2017491, Control_c, 0, 64, 127
1, 2017528, Note_on_c, 0, 46, 79
1, 2017583, Note_on_c, 0, 53, 72
1, 2017620, Note_on_c, 0, 46, 0
1, 2017636, Note_on_c, 0, 77, 0
1, 2017639, Note_on_c, 0, 89, 0
1, 2017651, Note_on_c, 0, 58, 87
1, 2017685, Note_on_c, 0, 62, 104
1, 2017706, Note_on_c, 0, 77, 98
1, 2017707, Note_on_c, 0, 89, 87
1, 2017708, Note_on_c, 0, 53, 0
1, 2017710, Note_on_c, 0, 82, 93
1, 2017712, Note_on_c, 0, 86, 87
1, 2017727, Note_on_c, 0, 58, 0
1, 2017738, Note_on_c, 0, 62, 0
1, 2018538, Control_c, 0, 64, 117
1, 2018556, Control_c, 0, 64, 59
1, 2018563, Note_on_c, 0, 82, 0
1, 2018574, Control_c, 0, 64, 0
1, 2018600, Note_on_c, 0, 41, 80
1, 2018629, Control_c, 0, 64, 8
1, 2018647, Control_c, 0, 64, 52
1, 2018657, Note_on_c, 0, 48, 74
1, 2018666, Control_c, 0, 64, 94
1, 2018678, Note_on_c, 0, 86, 0
1, 2018685, Control_c, 0, 64, 127
1, 2018696, Note_on_c, 0, 41, 0
1, 2018699, Note_on_c, 0, 77, 0
1, 2018729, Note_on_c, 0, 53, 82
1, 2018775, Note_on_c, 0, 89, 0
1, 2018811, Note_on_c, 0, 48, 0
1, 2018820, Note_on_c, 0, 60, 98
1, 2018842, Note_on_c, 0, 77, 105
1, 2018846, Note_on_c, 0, 89, 88
1, 2018849, Note_on_c, 0, 84, 88
1, 2018850, Note_on_c, 0, 81, 92
1, 2018867, Note_on_c, 0, 53, 0
1, 2018878, Note_on_c, 0, 60, 0
1, 2018942, Poly_aftertouch_c, 0, 59, 0
1, 2019306, Note_on_c, 0, 89, 0
1, 2019381, Note_on_c, 0, 77, 0
1, 2019440, Note_on_c, 0, 81, 0
1, 2019469, Note_on_c, 0, 84, 0
1, 2019714, Control_c, 0, 64, 110
1, 2019722, Note_on_c, 0, 34, 92
1, 2019733, Control_c, 0, 64, 51
1, 2019750, Control_c, 0, 64, 0
1, 2019806, Control_c, 0, 64, 39
1, 2019825, Control_c, 0, 64, 75
1, 2019843, Control_c, 0, 64, 111
1, 2019862, Control_c, 0, 64, 127
1, 2019916, Note_on_c, 0, 41, 70
1, 2019932, Note_on_c, 0, 34, 0
1, 2020023, Note_on_c, 0, 46, 72
1, 2020125, Poly_aftertouch_c, 0, 75, 0
1, 2020135, Note_on_c, 0, 50, 91
1, 2020277, Poly_aftertouch_c, 0, 74, 0
1, 2020381, Note_on_c, 0, 65, 102
1, 2020383, Note_on_c, 0, 77, 94
1, 2020384, Note_on_c, 0, 74, 89
1, 2020388, Note_on_c, 0, 70, 93
1, 2020657, Note_on_c, 0, 50, 0
1, 2020704, Note_on_c, 0, 41, 0
1, 2020801, Note_on_c, 0, 46, 0
1, 2021600, Note_on_c, 0, 29, 97
1, 2021621, Control_c, 0, 64, 114
1, 2021640, Control_c, 0, 64, 60
1, 2021658, Control_c, 0, 64, 0
1, 2021752, Control_c, 0, 64, 20
1, 2021771, Control_c, 0, 64, 60
1, 2021789, Control_c, 0, 64, 98
1, 2021806, Control_c, 0, 64, 127
1, 2021954, Note_on_c, 0, 36, 90
1, 2022051, Note_on_c, 0, 29, 0
1, 2022105, Note_on_c, 0, 70, 0
1, 2022162, Note_on_c, 0, 41, 93
1, 2022212, Note_on_c, 0, 65, 0
1, 2022294, Note_on_c, 0, 77, 0
1, 2022308, Note_on_c, 0, 74, 0
1, 2022612, Note_on_c, 0, 48, 102
1, 2022623, Note_on_c, 0, 77, 92
1, 2022623, Note_on_c, 0, 65, 105
1, 2022631, Note_on_c, 0, 69, 96
1, 2022634, Note_on_c, 0, 72, 89
1, 2022727, Poly_aftertouch_c, 0, 74, 0
1, 2025407, Note_on_c, 0, 77, 0
1, 2025420, Note_on_c, 0, 48, 0
1, 2025421, Note_on_c, 0, 65, 0
1, 2025438, Note_on_c, 0, 69, 0
1, 2025443, Note_on_c, 0, 72, 0
1, 2025450, Note_on_c, 0, 41, 0
1, 2025450, Note_on_c, 0, 36, 0
1, 2025456, Control_c, 0, 64, 108
1, 2025476, Control_c, 0, 64, 61
1, 2025495, Control_c, 0, 64, 0
1, 2025600, End_track
0, 0, End_of_file
