0, 0, Header, 1, 3, 240
1, 0, Start_track
1, 0, Title_t, "untitled"
1, 0, Time_signature, 3, 2, 24, 8
1, 0, Key_signature, 0, "major"
1, 0, Tempo, 476190
1, 0, End_track
2, 0, Start_track
2, 0, Title_t, "Brahms"
2, 0, Program_c, 0, 0
2, 0, Control_c, 0, 7, 110
2, 0, Control_c, 0, 10, 79
2, 0, Note_on_c, 0, 63, 80
2, 0, Note_on_c, 0, 72, 80
2, 360, Note_on_c, 0, 72, 0
2, 360, Note_on_c, 0, 63, 0
2, 360, Note_on_c, 0, 60, 80
2, 360, Note_on_c, 0, 68, 80
2, 480, Note_on_c, 0, 68, 0
2, 480, Note_on_c, 0, 60, 0
2, 480, Note_on_c, 0, 60, 80
2, 480, Note_on_c, 0, 68, 80
2, 600, Note_on_c, 0, 68, 0
2, 600, Note_on_c, 0, 60, 0
2, 600, Note_on_c, 0, 63, 80
2, 600, Note_on_c, 0, 72, 80
2, 720, Note_on_c, 0, 72, 0
2, 720, Note_on_c, 0, 63, 0
2, 720, Note_on_c, 0, 63, 80
2, 720, Note_on_c, 0, 72, 80
2, 1080, Note_on_c, 0, 72, 0
2, 1080, Note_on_c, 0, 63, 0
2, 1080, Note_on_c, 0, 60, 80
2, 1080, Note_on_c, 0, 68, 80
2, 1200, Note_on_c, 0, 68, 0
2, 1200, Note_on_c, 0, 60, 0
2, 1200, Note_on_c, 0, 60, 80
2, 1200, Note_on_c, 0, 68, 80
2, 1320, Note_on_c, 0, 68, 0
2, 1320, Note_on_c, 0, 60, 0
2, 1320, Note_on_c, 0, 63, 80
2, 1320, Note_on_c, 0, 72, 80
2, 1440, Note_on_c, 0, 72, 0
2, 1440, Note_on_c, 0, 63, 0
2, 1440, Note_on_c, 0, 65, 80
2, 1440, Note_on_c, 0, 68, 80
2, 1440, Note_on_c, 0, 73, 80
2, 1620, Note_on_c, 0, 73, 0
2, 1620, Note_on_c, 0, 75, 80
2, 1650, Note_on_c, 0, 75, 0
2, 1650, Note_on_c, 0, 73, 80
2, 1680, Note_on_c, 0, 73, 0
2, 1680, Note_on_c, 0, 68, 0
2, 1680, Note_on_c, 0, 65, 0
2, 1680, Note_on_c, 0, 63, 80
2, 1680, Note_on_c, 0, 68, 80
2, 1680, Note_on_c, 0, 72, 80
2, 1920, Note_on_c, 0, 72, 0
2, 1920, Note_on_c, 0, 68, 0
2, 1920, Note_on_c, 0, 63, 0
2, 1920, Note_on_c, 0, 61, 80
2, 1920, Note_on_c, 0, 68, 80
2, 1920, Note_on_c, 0, 70, 80
2, 2160, Note_on_c, 0, 70, 0
2, 2160, Note_on_c, 0, 68, 0
2, 2160, Note_on_c, 0, 61, 0
2, 2160, Note_on_c, 0, 63, 80
2, 2160, Note_on_c, 0, 68, 80
2, 2160, Note_on_c, 0, 72, 80
2, 2520, Note_on_c, 0, 72, 0
2, 2520, Note_on_c, 0, 68, 0
2, 2520, Note_on_c, 0, 63, 0
2, 2520, Note_on_c, 0, 68, 80
2, 2640, Note_on_c, 0, 68, 0
2, 2640, Note_on_c, 0, 68, 80
2, 2760, Note_on_c, 0, 68, 0
2, 2760, Note_on_c, 0, 72, 80
2, 2760, Note_on_c, 0, 75, 80
2, 2880, Note_on_c, 0, 75, 0
2, 2880, Note_on_c, 0, 72, 0
2, 2880, Note_on_c, 0, 68, 80
2, 2880, Note_on_c, 0, 72, 80
2, 2880, Note_on_c, 0, 77, 80
2, 3240, Note_on_c, 0, 77, 0
2, 3240, Note_on_c, 0, 72, 0
2, 3240, Note_on_c, 0, 68, 0
2, 3240, Note_on_c, 0, 68, 80
2, 3240, Note_on_c, 0, 72, 80
2, 3360, Note_on_c, 0, 72, 0
2, 3360, Note_on_c, 0, 68, 0
2, 3360, Note_on_c, 0, 68, 80
2, 3360, Note_on_c, 0, 72, 80
2, 3480, Note_on_c, 0, 72, 0
2, 3480, Note_on_c, 0, 68, 0
2, 3480, Note_on_c, 0, 75, 80
2, 3600, Note_on_c, 0, 75, 0
2, 3600, Note_on_c, 0, 68, 80
2, 3600, Note_on_c, 0, 72, 80
2, 3600, Note_on_c, 0, 77, 80
2, 3960, Note_on_c, 0, 77, 0
2, 3960, Note_on_c, 0, 72, 0
2, 3960, Note_on_c, 0, 68, 0
2, 3960, Note_on_c, 0, 68, 80
2, 3960, Note_on_c, 0, 72, 80
2, 4080, Note_on_c, 0, 72, 0
2, 4080, Note_on_c, 0, 68, 0
2, 4080, Note_on_c, 0, 68, 80
2, 4080, Note_on_c, 0, 72, 80
2, 4200, Note_on_c, 0, 72, 0
2, 4200, Note_on_c, 0, 68, 0
2, 4200, Note_on_c, 0, 75, 80
2, 4320, Note_on_c, 0, 75, 0
2, 4320, Note_on_c, 0, 67, 80
2, 4320, Note_on_c, 0, 72, 80
2, 4320, Note_on_c, 0, 79, 80
2, 4440, Note_on_c, 0, 79, 0
2, 4440, Note_on_c, 0, 77, 80
2, 4560, Note_on_c, 0, 77, 0
2, 4560, Note_on_c, 0, 72, 0
2, 4560, Note_on_c, 0, 67, 0
2, 4560, Note_on_c, 0, 67, 80
2, 4560, Note_on_c, 0, 72, 80
2, 4560, Note_on_c, 0, 75, 80
2, 4800, Note_on_c, 0, 75, 0
2, 4800, Note_on_c, 0, 72, 0
2, 4800, Note_on_c, 0, 67, 0
2, 4800, Note_on_c, 0, 65, 80
2, 4800, Note_on_c, 0, 71, 80
2, 4800, Note_on_c, 0, 74, 80
2, 5040, Note_on_c, 0, 74, 0
2, 5040, Note_on_c, 0, 71, 0
2, 5040, Note_on_c, 0, 65, 0
2, 5040, Note_on_c, 0, 67, 80
2, 5040, Note_on_c, 0, 72, 80
2, 5040, Note_on_c, 0, 75, 80
2, 5400, Note_on_c, 0, 75, 0
2, 5400, Note_on_c, 0, 72, 0
2, 5400, Note_on_c, 0, 67, 0
2, 5400, Note_on_c, 0, 63, 80
2, 5400, Note_on_c, 0, 67, 80
2, 5520, Note_on_c, 0, 67, 0
2, 5520, Note_on_c, 0, 63, 0
2, 5520, Note_on_c, 0, 63, 80
2, 5520, Note_on_c, 0, 67, 80
2, 5640, Note_on_c, 0, 67, 0
2, 5640, Note_on_c, 0, 63, 0
2, 5640, Note_on_c, 0, 72, 80
2, 5760, Note_on_c, 0, 72, 0
2, 5760, Note_on_c, 0, 63, 80
2, 5760, Note_on_c, 0, 72, 80
2, 6120, Note_on_c, 0, 72, 0
2, 6120, Note_on_c, 0, 63, 0
2, 6120, Note_on_c, 0, 60, 80
2, 6120, Note_on_c, 0, 68, 80
2, 6240, Note_on_c, 0, 68, 0
2, 6240, Note_on_c, 0, 60, 0
2, 6240, Note_on_c, 0, 60, 80
2, 6240, Note_on_c, 0, 68, 80
2, 6360, Note_on_c, 0, 68, 0
2, 6360, Note_on_c, 0, 60, 0
2, 6360, Note_on_c, 0, 63, 80
2, 6360, Note_on_c, 0, 72, 80
2, 6480, Note_on_c, 0, 72, 0
2, 6480, Note_on_c, 0, 63, 0
2, 6480, Note_on_c, 0, 63, 80
2, 6480, Note_on_c, 0, 72, 80
2, 6840, Note_on_c, 0, 72, 0
2, 6840, Note_on_c, 0, 63, 0
2, 6840, Note_on_c, 0, 60, 80
2, 6840, Note_on_c, 0, 68, 80
2, 6960, Note_on_c, 0, 68, 0
2, 6960, Note_on_c, 0, 60, 0
2, 6960, Note_on_c, 0, 60, 80
2, 6960, Note_on_c, 0, 68, 80
2, 7080, Note_on_c, 0, 68, 0
2, 7080, Note_on_c, 0, 60, 0
2, 7080, Note_on_c, 0, 63, 80
2, 7080, Note_on_c, 0, 72, 80
2, 7200, Note_on_c, 0, 72, 0
2, 7200, Note_on_c, 0, 63, 0
2, 7200, Note_on_c, 0, 65, 80
2, 7200, Note_on_c, 0, 68, 80
2, 7200, Note_on_c, 0, 73, 80
2, 7380, Note_on_c, 0, 73, 0
2, 7380, Note_on_c, 0, 75, 80
2, 7410, Note_on_c, 0, 75, 0
2, 7410, Note_on_c, 0, 73, 80
2, 7440, Note_on_c, 0, 73, 0
2, 7440, Note_on_c, 0, 68, 0
2, 7440, Note_on_c, 0, 65, 0
2, 7440, Note_on_c, 0, 63, 80
2, 7440, Note_on_c, 0, 68, 80
2, 7440, Note_on_c, 0, 72, 80
2, 7680, Note_on_c, 0, 72, 0
2, 7680, Note_on_c, 0, 68, 0
2, 7680, Note_on_c, 0, 63, 0
2, 7680, Note_on_c, 0, 61, 80
2, 7680, Note_on_c, 0, 68, 80
2, 7680, Note_on_c, 0, 70, 80
2, 7920, Note_on_c, 0, 70, 0
2, 7920, Note_on_c, 0, 68, 0
2, 7920, Note_on_c, 0, 61, 0
2, 7920, Note_on_c, 0, 63, 80
2, 7920, Note_on_c, 0, 68, 80
2, 7920, Note_on_c, 0, 72, 80
2, 8280, Note_on_c, 0, 72, 0
2, 8280, Note_on_c, 0, 68, 0
2, 8280, Note_on_c, 0, 63, 0
2, 8280, Note_on_c, 0, 68, 80
2, 8400, Note_on_c, 0, 68, 0
2, 8400, Note_on_c, 0, 68, 80
2, 8520, Note_on_c, 0, 68, 0
2, 8520, Note_on_c, 0, 72, 80
2, 8520, Note_on_c, 0, 75, 80
2, 8640, Note_on_c, 0, 75, 0
2, 8640, Note_on_c, 0, 72, 0
2, 8640, Note_on_c, 0, 68, 80
2, 8640, Note_on_c, 0, 72, 80
2, 8640, Note_on_c, 0, 77, 80
2, 9000, Note_on_c, 0, 77, 0
2, 9000, Note_on_c, 0, 72, 0
2, 9000, Note_on_c, 0, 68, 0
2, 9000, Note_on_c, 0, 68, 80
2, 9000, Note_on_c, 0, 72, 80
2, 9120, Note_on_c, 0, 72, 0
2, 9120, Note_on_c, 0, 68, 0
2, 9120, Note_on_c, 0, 68, 80
2, 9120, Note_on_c, 0, 72, 80
2, 9240, Note_on_c, 0, 72, 0
2, 9240, Note_on_c, 0, 68, 0
2, 9240, Note_on_c, 0, 75, 80
2, 9360, Note_on_c, 0, 75, 0
2, 9360, Note_on_c, 0, 68, 80
2, 9360, Note_on_c, 0, 72, 80
2, 9360, Note_on_c, 0, 77, 80
2, 9720, Note_on_c, 0, 77, 0
2, 9720, Note_on_c, 0, 72, 0
2, 9720, Note_on_c, 0, 68, 0
2, 9720, Note_on_c, 0, 68, 80
2, 9720, Note_on_c, 0, 72, 80
2, 9840, Note_on_c, 0, 72, 0
2, 9840, Note_on_c, 0, 68, 0
2, 9840, Note_on_c, 0, 68, 80
2, 9840, Note_on_c, 0, 72, 80
2, 9960, Note_on_c, 0, 72, 0
2, 9960, Note_on_c, 0, 68, 0
2, 9960, Note_on_c, 0, 75, 80
2, 10080, Note_on_c, 0, 75, 0
2, 10080, Note_on_c, 0, 67, 80
2, 10080, Note_on_c, 0, 72, 80
2, 10080, Note_on_c, 0, 79, 80
2, 10200, Note_on_c, 0, 79, 0
2, 10200, Note_on_c, 0, 77, 80
2, 10320, Note_on_c, 0, 77, 0
2, 10320, Note_on_c, 0, 72, 0
2, 10320, Note_on_c, 0, 67, 0
2, 10320, Note_on_c, 0, 67, 80
2, 10320, Note_on_c, 0, 72, 80
2, 10320, Note_on_c, 0, 75, 80
2, 10560, Note_on_c, 0, 75, 0
2, 10560, Note_on_c, 0, 72, 0
2, 10560, Note_on_c, 0, 67, 0
2, 10560, Note_on_c, 0, 65, 80
2, 10560, Note_on_c, 0, 71, 80
2, 10560, Note_on_c, 0, 74, 80
2, 10800, Note_on_c, 0, 74, 0
2, 10800, Note_on_c, 0, 71, 0
2, 10800, Note_on_c, 0, 65, 0
2, 10800, Note_on_c, 0, 67, 80
2, 10800, Note_on_c, 0, 72, 80
2, 10800, Note_on_c, 0, 75, 80
2, 11160, Note_on_c, 0, 75, 0
2, 11160, Note_on_c, 0, 72, 0
2, 11160, Note_on_c, 0, 67, 0
2, 11160, Note_on_c, 0, 63, 80
2, 11160, Note_on_c, 0, 67, 80
2, 11160, Note_on_c, 0, 72, 80
2, 11280, Note_on_c, 0, 72, 0
2, 11280, Note_on_c, 0, 67, 0
2, 11280, Note_on_c, 0, 63, 0
2, 11280, Note_on_c, 0, 63, 80
2, 11280, Note_on_c, 0, 67, 80
2, 11280, Note_on_c, 0, 72, 80
2, 11400, Note_on_c, 0, 72, 0
2, 11400, Note_on_c, 0, 67, 0
2, 11400, Note_on_c, 0, 63, 0
2, 11400, Note_on_c, 0, 75, 80
2, 11520, Note_on_c, 0, 75, 0
2, 11520, Note_on_c, 0, 63, 80
2, 11520, Note_on_c, 0, 67, 80
2, 11520, Note_on_c, 0, 70, 80
2, 11520, Note_on_c, 0, 73, 80
2, 11520, Note_on_c, 0, 75, 80
2, 11880, Note_on_c, 0, 75, 0
2, 11880, Note_on_c, 0, 70, 0
2, 11880, Note_on_c, 0, 63, 0
2, 11880, Note_on_c, 0, 67, 0
2, 11880, Note_on_c, 0, 73, 0
2, 11880, Note_on_c, 0, 63, 80
2, 11880, Note_on_c, 0, 67, 80
2, 11880, Note_on_c, 0, 70, 80
2, 12000, Note_on_c, 0, 70, 0
2, 12000, Note_on_c, 0, 67, 0
2, 12000, Note_on_c, 0, 63, 0
2, 12000, Note_on_c, 0, 63, 80
2, 12000, Note_on_c, 0, 67, 80
2, 12000, Note_on_c, 0, 70, 80
2, 12120, Note_on_c, 0, 70, 0
2, 12120, Note_on_c, 0, 67, 0
2, 12120, Note_on_c, 0, 63, 0
2, 12120, Note_on_c, 0, 73, 80
2, 12120, Note_on_c, 0, 75, 80
2, 12240, Note_on_c, 0, 75, 0
2, 12240, Note_on_c, 0, 73, 0
2, 12240, Note_on_c, 0, 63, 80
2, 12240, Note_on_c, 0, 68, 80
2, 12240, Note_on_c, 0, 72, 80
2, 12240, Note_on_c, 0, 75, 80
2, 12600, Note_on_c, 0, 75, 0
2, 12600, Note_on_c, 0, 63, 0
2, 12600, Note_on_c, 0, 68, 0
2, 12600, Note_on_c, 0, 72, 0
2, 12600, Note_on_c, 0, 68, 80
2, 12600, Note_on_c, 0, 72, 80
2, 12720, Note_on_c, 0, 72, 0
2, 12720, Note_on_c, 0, 68, 0
2, 12720, Note_on_c, 0, 68, 80
2, 12720, Note_on_c, 0, 72, 80
2, 12840, Note_on_c, 0, 72, 0
2, 12840, Note_on_c, 0, 68, 0
2, 12840, Note_on_c, 0, 75, 80
2, 12960, Note_on_c, 0, 75, 0
2, 12960, Note_on_c, 0, 68, 80
2, 12960, Note_on_c, 0, 72, 80
2, 12960, Note_on_c, 0, 75, 80
2, 12960, Note_on_c, 0, 78, 80
2, 12960, Note_on_c, 0, 80, 80
2, 13320, Note_on_c, 0, 80, 0
2, 13320, Note_on_c, 0, 75, 0
2, 13320, Note_on_c, 0, 68, 0
2, 13320, Note_on_c, 0, 72, 0
2, 13320, Note_on_c, 0, 78, 0
2, 13320, Note_on_c, 0, 68, 80
2, 13320, Note_on_c, 0, 72, 80
2, 13320, Note_on_c, 0, 75, 80
2, 13440, Note_on_c, 0, 75, 0
2, 13440, Note_on_c, 0, 72, 0
2, 13440, Note_on_c, 0, 68, 0
2, 13440, Note_on_c, 0, 68, 80
2, 13440, Note_on_c, 0, 72, 80
2, 13440, Note_on_c, 0, 75, 80
2, 13560, Note_on_c, 0, 75, 0
2, 13560, Note_on_c, 0, 72, 0
2, 13560, Note_on_c, 0, 68, 0
2, 13560, Note_on_c, 0, 78, 80
2, 13560, Note_on_c, 0, 80, 80
2, 13680, Note_on_c, 0, 80, 0
2, 13680, Note_on_c, 0, 78, 0
2, 13680, Note_on_c, 0, 68, 80
2, 13680, Note_on_c, 0, 73, 80
2, 13680, Note_on_c, 0, 77, 80
2, 13680, Note_on_c, 0, 80, 80
2, 14040, Note_on_c, 0, 80, 0
2, 14040, Note_on_c, 0, 68, 0
2, 14040, Note_on_c, 0, 73, 0
2, 14040, Note_on_c, 0, 77, 0
2, 14040, Note_on_c, 0, 68, 80
2, 14040, Note_on_c, 0, 73, 80
2, 14040, Note_on_c, 0, 77, 80
2, 14160, Note_on_c, 0, 77, 0
2, 14160, Note_on_c, 0, 73, 0
2, 14160, Note_on_c, 0, 68, 0
2, 14160, Note_on_c, 0, 68, 80
2, 14160, Note_on_c, 0, 73, 80
2, 14160, Note_on_c, 0, 77, 80
2, 14280, Note_on_c, 0, 77, 0
2, 14280, Note_on_c, 0, 73, 0
2, 14280, Note_on_c, 0, 68, 0
2, 14280, Note_on_c, 0, 80, 80
2, 14400, Note_on_c, 0, 80, 0
2, 14400, Note_on_c, 0, 68, 80
2, 14400, Note_on_c, 0, 70, 80
2, 14400, Note_on_c, 0, 74, 80
2, 14400, Note_on_c, 0, 77, 80
2, 14400, Note_on_c, 0, 82, 80
2, 14760, Note_on_c, 0, 82, 0
2, 14760, Note_on_c, 0, 74, 0
2, 14760, Note_on_c, 0, 68, 0
2, 14760, Note_on_c, 0, 70, 0
2, 14760, Note_on_c, 0, 77, 0
2, 14760, Note_on_c, 0, 70, 80
2, 14760, Note_on_c, 0, 74, 80
2, 14760, Note_on_c, 0, 77, 80
2, 14880, Note_on_c, 0, 77, 0
2, 14880, Note_on_c, 0, 74, 0
2, 14880, Note_on_c, 0, 70, 0
2, 14880, Note_on_c, 0, 70, 80
2, 14880, Note_on_c, 0, 74, 80
2, 14880, Note_on_c, 0, 77, 80
2, 15000, Note_on_c, 0, 77, 0
2, 15000, Note_on_c, 0, 74, 0
2, 15000, Note_on_c, 0, 70, 0
2, 15000, Note_on_c, 0, 80, 80
2, 15120, Note_on_c, 0, 80, 0
2, 15120, Note_on_c, 0, 70, 80
2, 15120, Note_on_c, 0, 73, 80
2, 15120, Note_on_c, 0, 80, 80
2, 15240, Note_on_c, 0, 80, 0
2, 15240, Note_on_c, 0, 79, 80
2, 15360, Note_on_c, 0, 79, 0
2, 15360, Note_on_c, 0, 73, 0
2, 15360, Note_on_c, 0, 70, 0
2, 15360, Note_on_c, 0, 68, 80
2, 15360, Note_on_c, 0, 73, 80
2, 15360, Note_on_c, 0, 77, 80
2, 15600, Note_on_c, 0, 77, 0
2, 15600, Note_on_c, 0, 73, 0
2, 15600, Note_on_c, 0, 68, 0
2, 15600, Note_on_c, 0, 67, 80
2, 15600, Note_on_c, 0, 73, 80
2, 15600, Note_on_c, 0, 75, 80
2, 15840, Note_on_c, 0, 75, 0
2, 15840, Note_on_c, 0, 73, 0
2, 15840, Note_on_c, 0, 67, 0
2, 15840, Note_on_c, 0, 63, 80
2, 15840, Note_on_c, 0, 72, 80
2, 16200, Note_on_c, 0, 72, 0
2, 16200, Note_on_c, 0, 63, 0
2, 16200, Note_on_c, 0, 60, 80
2, 16200, Note_on_c, 0, 68, 80
2, 16320, Note_on_c, 0, 68, 0
2, 16320, Note_on_c, 0, 60, 0
2, 16320, Note_on_c, 0, 60, 80
2, 16320, Note_on_c, 0, 68, 80
2, 16440, Note_on_c, 0, 68, 0
2, 16440, Note_on_c, 0, 60, 0
2, 16440, Note_on_c, 0, 63, 80
2, 16440, Note_on_c, 0, 72, 80
2, 16560, Note_on_c, 0, 72, 0
2, 16560, Note_on_c, 0, 63, 0
2, 16560, Note_on_c, 0, 63, 80
2, 16560, Note_on_c, 0, 72, 80
2, 16920, Note_on_c, 0, 72, 0
2, 16920, Note_on_c, 0, 63, 0
2, 16920, Note_on_c, 0, 60, 80
2, 16920, Note_on_c, 0, 68, 80
2, 17040, Note_on_c, 0, 68, 0
2, 17040, Note_on_c, 0, 60, 0
2, 17040, Note_on_c, 0, 60, 80
2, 17040, Note_on_c, 0, 68, 80
2, 17160, Note_on_c, 0, 68, 0
2, 17160, Note_on_c, 0, 60, 0
2, 17160, Note_on_c, 0, 63, 80
2, 17160, Note_on_c, 0, 72, 80
2, 17280, Note_on_c, 0, 72, 0
2, 17280, Note_on_c, 0, 63, 0
2, 17280, Note_on_c, 0, 73, 80
2, 17280, Note_on_c, 0, 65, 80
2, 17280, Note_on_c, 0, 68, 80
2, 17460, Note_on_c, 0, 73, 0
2, 17460, Note_on_c, 0, 75, 48
2, 17490, Note_on_c, 0, 75, 0
2, 17490, Note_on_c, 0, 73, 107
2, 17520, Note_on_c, 0, 73, 0
2, 17520, Note_on_c, 0, 68, 0
2, 17520, Note_on_c, 0, 65, 0
2, 17520, Note_on_c, 0, 63, 80
2, 17520, Note_on_c, 0, 68, 80
2, 17520, Note_on_c, 0, 72, 80
2, 17760, Note_on_c, 0, 72, 0
2, 17760, Note_on_c, 0, 68, 0
2, 17760, Note_on_c, 0, 63, 0
2, 17760, Note_on_c, 0, 61, 80
2, 17760, Note_on_c, 0, 68, 80
2, 17760, Note_on_c, 0, 70, 80
2, 18000, Note_on_c, 0, 70, 0
2, 18000, Note_on_c, 0, 68, 0
2, 18000, Note_on_c, 0, 61, 0
2, 18000, Note_on_c, 0, 63, 80
2, 18000, Note_on_c, 0, 68, 80
2, 18000, Note_on_c, 0, 72, 80
2, 18360, Note_on_c, 0, 72, 0
2, 18360, Note_on_c, 0, 68, 0
2, 18360, Note_on_c, 0, 63, 0
2, 18360, Note_on_c, 0, 68, 80
2, 18480, Note_on_c, 0, 68, 0
2, 18480, Note_on_c, 0, 68, 80
2, 18600, Note_on_c, 0, 68, 0
2, 18600, Note_on_c, 0, 72, 80
2, 18600, Note_on_c, 0, 75, 80
2, 18720, Note_on_c, 0, 75, 0
2, 18720, Note_on_c, 0, 72, 0
2, 18720, Note_on_c, 0, 68, 80
2, 18720, Note_on_c, 0, 72, 80
2, 18720, Note_on_c, 0, 77, 80
2, 19080, Note_on_c, 0, 77, 0
2, 19080, Note_on_c, 0, 72, 0
2, 19080, Note_on_c, 0, 68, 0
2, 19080, Note_on_c, 0, 68, 80
2, 19080, Note_on_c, 0, 72, 80
2, 19200, Note_on_c, 0, 72, 0
2, 19200, Note_on_c, 0, 68, 0
2, 19200, Note_on_c, 0, 68, 80
2, 19200, Note_on_c, 0, 72, 80
2, 19320, Note_on_c, 0, 72, 0
2, 19320, Note_on_c, 0, 68, 0
2, 19320, Note_on_c, 0, 75, 80
2, 19440, Note_on_c, 0, 75, 0
2, 19440, Note_on_c, 0, 68, 80
2, 19440, Note_on_c, 0, 72, 80
2, 19440, Note_on_c, 0, 77, 80
2, 19800, Note_on_c, 0, 77, 0
2, 19800, Note_on_c, 0, 72, 0
2, 19800, Note_on_c, 0, 68, 0
2, 19800, Note_on_c, 0, 68, 80
2, 19800, Note_on_c, 0, 72, 80
2, 19920, Note_on_c, 0, 72, 0
2, 19920, Note_on_c, 0, 68, 0
2, 19920, Note_on_c, 0, 68, 80
2, 19920, Note_on_c, 0, 72, 80
2, 20040, Note_on_c, 0, 72, 0
2, 20040, Note_on_c, 0, 68, 0
2, 20040, Note_on_c, 0, 75, 80
2, 20160, Note_on_c, 0, 75, 0
2, 20160, Note_on_c, 0, 68, 80
2, 20160, Note_on_c, 0, 80, 80
2, 20280, Note_on_c, 0, 80, 0
2, 20280, Note_on_c, 0, 75, 80
2, 20400, Note_on_c, 0, 75, 0
2, 20400, Note_on_c, 0, 68, 0
2, 20400, Note_on_c, 0, 67, 80
2, 20400, Note_on_c, 0, 73, 80
2, 20640, Note_on_c, 0, 73, 0
2, 20640, Note_on_c, 0, 67, 0
2, 20640, Note_on_c, 0, 61, 80
2, 20640, Note_on_c, 0, 63, 80
2, 20640, Note_on_c, 0, 70, 80
2, 20880, Note_on_c, 0, 70, 0
2, 20880, Note_on_c, 0, 63, 0
2, 20880, Note_on_c, 0, 61, 0
2, 20880, Note_on_c, 0, 60, 80
2, 20880, Note_on_c, 0, 63, 80
2, 20880, Note_on_c, 0, 68, 80
2, 21120, Note_on_c, 0, 68, 0
2, 21120, Note_on_c, 0, 63, 0
2, 21120, Note_on_c, 0, 60, 0
2, 21240, Note_on_c, 0, 63, 80
2, 21240, Note_on_c, 0, 68, 80
2, 21240, Note_on_c, 0, 72, 80
2, 21360, Note_on_c, 0, 72, 0
2, 21360, Note_on_c, 0, 68, 0
2, 21360, Note_on_c, 0, 63, 0
2, 21360, Note_on_c, 0, 63, 80
2, 21360, Note_on_c, 0, 68, 80
2, 21360, Note_on_c, 0, 72, 80
2, 21480, Note_on_c, 0, 72, 0
2, 21480, Note_on_c, 0, 68, 0
2, 21480, Note_on_c, 0, 63, 0
2, 21480, Note_on_c, 0, 75, 80
2, 21600, Note_on_c, 0, 75, 0
2, 21600, Note_on_c, 0, 63, 80
2, 21600, Note_on_c, 0, 67, 80
2, 21600, Note_on_c, 0, 70, 80
2, 21600, Note_on_c, 0, 73, 80
2, 21600, Note_on_c, 0, 75, 80
2, 21960, Note_on_c, 0, 75, 0
2, 21960, Note_on_c, 0, 70, 0
2, 21960, Note_on_c, 0, 63, 0
2, 21960, Note_on_c, 0, 67, 0
2, 21960, Note_on_c, 0, 73, 0
2, 21960, Note_on_c, 0, 63, 80
2, 21960, Note_on_c, 0, 67, 80
2, 21960, Note_on_c, 0, 70, 80
2, 22080, Note_on_c, 0, 70, 0
2, 22080, Note_on_c, 0, 67, 0
2, 22080, Note_on_c, 0, 63, 0
2, 22080, Note_on_c, 0, 63, 80
2, 22080, Note_on_c, 0, 67, 80
2, 22080, Note_on_c, 0, 70, 80
2, 22200, Note_on_c, 0, 70, 0
2, 22200, Note_on_c, 0, 67, 0
2, 22200, Note_on_c, 0, 63, 0
2, 22200, Note_on_c, 0, 73, 80
2, 22200, Note_on_c, 0, 75, 80
2, 22320, Note_on_c, 0, 75, 0
2, 22320, Note_on_c, 0, 73, 0
2, 22320, Note_on_c, 0, 63, 80
2, 22320, Note_on_c, 0, 68, 80
2, 22320, Note_on_c, 0, 72, 80
2, 22320, Note_on_c, 0, 75, 80
2, 22680, Note_on_c, 0, 75, 0
2, 22680, Note_on_c, 0, 63, 0
2, 22680, Note_on_c, 0, 68, 0
2, 22680, Note_on_c, 0, 72, 0
2, 22680, Note_on_c, 0, 68, 80
2, 22680, Note_on_c, 0, 72, 80
2, 22800, Note_on_c, 0, 72, 0
2, 22800, Note_on_c, 0, 68, 0
2, 22800, Note_on_c, 0, 68, 80
2, 22800, Note_on_c, 0, 72, 80
2, 22920, Note_on_c, 0, 72, 0
2, 22920, Note_on_c, 0, 68, 0
2, 22920, Note_on_c, 0, 75, 80
2, 23040, Note_on_c, 0, 75, 0
2, 23040, Note_on_c, 0, 68, 80
2, 23040, Note_on_c, 0, 72, 80
2, 23040, Note_on_c, 0, 75, 80
2, 23040, Note_on_c, 0, 78, 80
2, 23040, Note_on_c, 0, 80, 80
2, 23400, Note_on_c, 0, 80, 0
2, 23400, Note_on_c, 0, 75, 0
2, 23400, Note_on_c, 0, 68, 0
2, 23400, Note_on_c, 0, 72, 0
2, 23400, Note_on_c, 0, 78, 0
2, 23400, Note_on_c, 0, 68, 80
2, 23400, Note_on_c, 0, 72, 80
2, 23400, Note_on_c, 0, 75, 80
2, 23520, Note_on_c, 0, 75, 0
2, 23520, Note_on_c, 0, 72, 0
2, 23520, Note_on_c, 0, 68, 0
2, 23520, Note_on_c, 0, 68, 80
2, 23520, Note_on_c, 0, 72, 80
2, 23520, Note_on_c, 0, 75, 80
2, 23640, Note_on_c, 0, 75, 0
2, 23640, Note_on_c, 0, 72, 0
2, 23640, Note_on_c, 0, 68, 0
2, 23640, Note_on_c, 0, 78, 80
2, 23640, Note_on_c, 0, 80, 80
2, 23760, Note_on_c, 0, 80, 0
2, 23760, Note_on_c, 0, 78, 0
2, 23760, Note_on_c, 0, 68, 80
2, 23760, Note_on_c, 0, 73, 80
2, 23760, Note_on_c, 0, 77, 80
2, 23760, Note_on_c, 0, 80, 80
2, 24120, Note_on_c, 0, 80, 0
2, 24120, Note_on_c, 0, 68, 0
2, 24120, Note_on_c, 0, 73, 0
2, 24120, Note_on_c, 0, 77, 0
2, 24120, Note_on_c, 0, 68, 80
2, 24120, Note_on_c, 0, 73, 80
2, 24120, Note_on_c, 0, 77, 80
2, 24240, Note_on_c, 0, 77, 0
2, 24240, Note_on_c, 0, 73, 0
2, 24240, Note_on_c, 0, 68, 0
2, 24240, Note_on_c, 0, 68, 80
2, 24240, Note_on_c, 0, 73, 80
2, 24240, Note_on_c, 0, 77, 80
2, 24360, Note_on_c, 0, 77, 0
2, 24360, Note_on_c, 0, 73, 0
2, 24360, Note_on_c, 0, 68, 0
2, 24360, Note_on_c, 0, 80, 80
2, 24480, Note_on_c, 0, 80, 0
2, 24480, Note_on_c, 0, 68, 80
2, 24480, Note_on_c, 0, 70, 80
2, 24480, Note_on_c, 0, 74, 80
2, 24480, Note_on_c, 0, 77, 80
2, 24480, Note_on_c, 0, 82, 80
2, 24840, Note_on_c, 0, 82, 0
2, 24840, Note_on_c, 0, 74, 0
2, 24840, Note_on_c, 0, 68, 0
2, 24840, Note_on_c, 0, 70, 0
2, 24840, Note_on_c, 0, 77, 0
2, 24840, Note_on_c, 0, 70, 80
2, 24840, Note_on_c, 0, 74, 80
2, 24840, Note_on_c, 0, 77, 80
2, 24960, Note_on_c, 0, 77, 0
2, 24960, Note_on_c, 0, 74, 0
2, 24960, Note_on_c, 0, 70, 0
2, 24960, Note_on_c, 0, 70, 80
2, 24960, Note_on_c, 0, 74, 80
2, 24960, Note_on_c, 0, 77, 80
2, 25080, Note_on_c, 0, 77, 0
2, 25080, Note_on_c, 0, 74, 0
2, 25080, Note_on_c, 0, 70, 0
2, 25080, Note_on_c, 0, 80, 80
2, 25200, Note_on_c, 0, 80, 0
2, 25200, Note_on_c, 0, 70, 80
2, 25200, Note_on_c, 0, 73, 80
2, 25200, Note_on_c, 0, 80, 80
2, 25320, Note_on_c, 0, 80, 0
2, 25320, Note_on_c, 0, 79, 80
2, 25440, Note_on_c, 0, 79, 0
2, 25440, Note_on_c, 0, 73, 0
2, 25440, Note_on_c, 0, 70, 0
2, 25440, Note_on_c, 0, 68, 80
2, 25440, Note_on_c, 0, 73, 80
2, 25440, Note_on_c, 0, 77, 80
2, 25680, Note_on_c, 0, 77, 0
2, 25680, Note_on_c, 0, 73, 0
2, 25680, Note_on_c, 0, 68, 0
2, 25680, Note_on_c, 0, 67, 80
2, 25680, Note_on_c, 0, 73, 80
2, 25680, Note_on_c, 0, 75, 80
2, 25920, Note_on_c, 0, 75, 0
2, 25920, Note_on_c, 0, 73, 0
2, 25920, Note_on_c, 0, 67, 0
2, 25920, Note_on_c, 0, 75, 80
2, 25920, Note_on_c, 0, 84, 80
2, 26160, Note_on_c, 0, 84, 0
2, 26160, Note_on_c, 0, 75, 0
2, 26239, Note_on_c, 0, 60, 80
2, 26239, Note_on_c, 0, 68, 80
2, 26319, Note_on_c, 0, 68, 0
2, 26319, Note_on_c, 0, 60, 0
2, 26319, Note_on_c, 0, 63, 80
2, 26319, Note_on_c, 0, 72, 80
2, 26399, Note_on_c, 0, 72, 0
2, 26399, Note_on_c, 0, 63, 0
2, 26400, Note_on_c, 0, 72, 80
2, 26400, Note_on_c, 0, 80, 80
2, 26479, Note_on_c, 0, 80, 0
2, 26479, Note_on_c, 0, 72, 0
2, 26479, Note_on_c, 0, 75, 80
2, 26479, Note_on_c, 0, 84, 80
2, 26559, Note_on_c, 0, 84, 0
2, 26559, Note_on_c, 0, 75, 0
2, 26559, Note_on_c, 0, 72, 80
2, 26559, Note_on_c, 0, 80, 80
2, 26639, Note_on_c, 0, 80, 0
2, 26639, Note_on_c, 0, 72, 0
2, 26640, Note_on_c, 0, 75, 80
2, 26640, Note_on_c, 0, 84, 80
2, 26880, Note_on_c, 0, 84, 0
2, 26880, Note_on_c, 0, 75, 0
2, 26959, Note_on_c, 0, 60, 80
2, 26959, Note_on_c, 0, 68, 80
2, 27039, Note_on_c, 0, 68, 0
2, 27039, Note_on_c, 0, 60, 0
2, 27039, Note_on_c, 0, 63, 80
2, 27039, Note_on_c, 0, 72, 80
2, 27119, Note_on_c, 0, 72, 0
2, 27119, Note_on_c, 0, 63, 0
2, 27120, Note_on_c, 0, 72, 80
2, 27120, Note_on_c, 0, 80, 80
2, 27199, Note_on_c, 0, 80, 0
2, 27199, Note_on_c, 0, 72, 0
2, 27199, Note_on_c, 0, 75, 80
2, 27199, Note_on_c, 0, 84, 80
2, 27279, Note_on_c, 0, 84, 0
2, 27279, Note_on_c, 0, 75, 0
2, 27279, Note_on_c, 0, 72, 80
2, 27279, Note_on_c, 0, 80, 80
2, 27359, Note_on_c, 0, 80, 0
2, 27359, Note_on_c, 0, 72, 0
2, 27360, Note_on_c, 0, 77, 80
2, 27360, Note_on_c, 0, 80, 80
2, 27360, Note_on_c, 0, 85, 80
2, 27540, Note_on_c, 0, 85, 0
2, 27540, Note_on_c, 0, 87, 80
2, 27570, Note_on_c, 0, 87, 0
2, 27570, Note_on_c, 0, 85, 80
2, 27600, Note_on_c, 0, 85, 0
2, 27600, Note_on_c, 0, 80, 0
2, 27600, Note_on_c, 0, 77, 0
2, 27600, Note_on_c, 0, 75, 80
2, 27600, Note_on_c, 0, 80, 80
2, 27600, Note_on_c, 0, 84, 80
2, 27840, Note_on_c, 0, 84, 0
2, 27840, Note_on_c, 0, 80, 0
2, 27840, Note_on_c, 0, 75, 0
2, 27840, Note_on_c, 0, 73, 80
2, 27840, Note_on_c, 0, 80, 80
2, 27840, Note_on_c, 0, 82, 80
2, 28080, Note_on_c, 0, 82, 0
2, 28080, Note_on_c, 0, 80, 0
2, 28080, Note_on_c, 0, 73, 0
2, 28080, Note_on_c, 0, 75, 80
2, 28080, Note_on_c, 0, 80, 80
2, 28080, Note_on_c, 0, 84, 80
2, 28320, Note_on_c, 0, 84, 0
2, 28320, Note_on_c, 0, 80, 0
2, 28320, Note_on_c, 0, 75, 0
2, 28399, Note_on_c, 0, 60, 80
2, 28399, Note_on_c, 0, 68, 80
2, 28479, Note_on_c, 0, 68, 0
2, 28479, Note_on_c, 0, 60, 0
2, 28479, Note_on_c, 0, 63, 80
2, 28479, Note_on_c, 0, 72, 80
2, 28559, Note_on_c, 0, 72, 0
2, 28559, Note_on_c, 0, 63, 0
2, 28560, Note_on_c, 0, 72, 80
2, 28560, Note_on_c, 0, 80, 80
2, 28639, Note_on_c, 0, 80, 0
2, 28639, Note_on_c, 0, 72, 0
2, 28639, Note_on_c, 0, 75, 80
2, 28639, Note_on_c, 0, 84, 80
2, 28719, Note_on_c, 0, 84, 0
2, 28719, Note_on_c, 0, 75, 0
2, 28719, Note_on_c, 0, 77, 80
2, 28719, Note_on_c, 0, 84, 80
2, 28800, Note_on_c, 0, 80, 80
2, 28800, Note_on_c, 0, 89, 80
2, 29040, Note_on_c, 0, 89, 0
2, 29040, Note_on_c, 0, 77, 0
2, 29040, Note_on_c, 0, 84, 0
2, 29040, Note_on_c, 0, 80, 0
2, 29119, Note_on_c, 0, 60, 80
2, 29119, Note_on_c, 0, 68, 80
2, 29199, Note_on_c, 0, 68, 0
2, 29199, Note_on_c, 0, 60, 0
2, 29199, Note_on_c, 0, 63, 80
2, 29199, Note_on_c, 0, 72, 80
2, 29279, Note_on_c, 0, 72, 0
2, 29279, Note_on_c, 0, 63, 0
2, 29280, Note_on_c, 0, 72, 80
2, 29280, Note_on_c, 0, 80, 80
2, 29359, Note_on_c, 0, 80, 0
2, 29359, Note_on_c, 0, 72, 0
2, 29359, Note_on_c, 0, 75, 80
2, 29359, Note_on_c, 0, 84, 80
2, 29439, Note_on_c, 0, 84, 0
2, 29439, Note_on_c, 0, 75, 0
2, 29439, Note_on_c, 0, 77, 80
2, 29439, Note_on_c, 0, 84, 80
2, 29520, Note_on_c, 0, 80, 80
2, 29520, Note_on_c, 0, 89, 80
2, 29760, Note_on_c, 0, 89, 0
2, 29760, Note_on_c, 0, 77, 0
2, 29760, Note_on_c, 0, 84, 0
2, 29760, Note_on_c, 0, 80, 0
2, 29839, Note_on_c, 0, 60, 80
2, 29839, Note_on_c, 0, 68, 80
2, 29919, Note_on_c, 0, 68, 0
2, 29919, Note_on_c, 0, 60, 0
2, 29919, Note_on_c, 0, 63, 80
2, 29919, Note_on_c, 0, 72, 80
2, 29999, Note_on_c, 0, 72, 0
2, 29999, Note_on_c, 0, 63, 0
2, 30000, Note_on_c, 0, 72, 80
2, 30000, Note_on_c, 0, 80, 80
2, 30079, Note_on_c, 0, 80, 0
2, 30079, Note_on_c, 0, 72, 0
2, 30079, Note_on_c, 0, 75, 80
2, 30079, Note_on_c, 0, 84, 80
2, 30159, Note_on_c, 0, 84, 0
2, 30159, Note_on_c, 0, 75, 0
2, 30159, Note_on_c, 0, 80, 80
2, 30159, Note_on_c, 0, 84, 80
2, 30240, Note_on_c, 0, 92, 80
2, 30360, Note_on_c, 0, 92, 0
2, 30360, Note_on_c, 0, 87, 80
2, 30480, Note_on_c, 0, 87, 0
2, 30480, Note_on_c, 0, 84, 0
2, 30480, Note_on_c, 0, 80, 0
2, 30480, Note_on_c, 0, 73, 80
2, 30480, Note_on_c, 0, 79, 80
2, 30480, Note_on_c, 0, 85, 80
2, 30720, Note_on_c, 0, 85, 0
2, 30720, Note_on_c, 0, 79, 0
2, 30720, Note_on_c, 0, 73, 0
2, 30720, Note_on_c, 0, 70, 80
2, 30720, Note_on_c, 0, 73, 80
2, 30720, Note_on_c, 0, 82, 80
2, 30960, Note_on_c, 0, 82, 0
2, 30960, Note_on_c, 0, 73, 0
2, 30960, Note_on_c, 0, 70, 0
2, 30960, Note_on_c, 0, 68, 80
2, 30960, Note_on_c, 0, 72, 80
2, 30960, Note_on_c, 0, 80, 80
2, 31200, Note_on_c, 0, 80, 0
2, 31200, Note_on_c, 0, 72, 0
2, 31200, Note_on_c, 0, 68, 0
2, 31200, End_track
3, 0, Start_track
3, 0, Title_t, "Waltz No-15"
3, 0, Program_c, 0, 0
3, 0, Control_c, 0, 7, 109
3, 0, Control_c, 0, 10, 47
3, 0, Control_c, 0, 64, 0
3, 0, Note_on_c, 0, 44, 65
3, 0, Control_c, 0, 64, 127
3, 240, Note_on_c, 0, 44, 0
3, 240, Note_on_c, 0, 51, 65
3, 240, Note_on_c, 0, 56, 65
3, 240, Note_on_c, 0, 60, 65
3, 356, Control_c, 0, 64, 0
3, 365, Control_c, 0, 64, 0
3, 480, Note_on_c, 0, 60, 0
3, 480, Note_on_c, 0, 56, 0
3, 480, Note_on_c, 0, 51, 0
3, 480, Note_on_c, 0, 48, 65
3, 480, Note_on_c, 0, 51, 65
3, 480, Note_on_c, 0, 56, 65
3, 720, Note_on_c, 0, 56, 0
3, 720, Note_on_c, 0, 51, 0
3, 720, Note_on_c, 0, 48, 0
3, 720, Note_on_c, 0, 32, 65
3, 731, Control_c, 0, 64, 0
3, 741, Control_c, 0, 64, 127
3, 960, Note_on_c, 0, 32, 0
3, 960, Note_on_c, 0, 51, 65
3, 960, Note_on_c, 0, 56, 65
3, 960, Note_on_c, 0, 60, 65
3, 1106, Control_c, 0, 64, 0
3, 1116, Control_c, 0, 64, 0
3, 1200, Note_on_c, 0, 60, 0
3, 1200, Note_on_c, 0, 56, 0
3, 1200, Note_on_c, 0, 51, 0
3, 1200, Note_on_c, 0, 48, 65
3, 1200, Note_on_c, 0, 51, 65
3, 1200, Note_on_c, 0, 56, 65
3, 1440, Note_on_c, 0, 56, 0
3, 1440, Note_on_c, 0, 51, 0
3, 1440, Note_on_c, 0, 48, 0
3, 1440, Note_on_c, 0, 44, 65
3, 1453, Control_c, 0, 64, 127
3, 1680, Note_on_c, 0, 44, 0
3, 1680, Note_on_c, 0, 49, 65
3, 1680, Note_on_c, 0, 53, 65
3, 1680, Note_on_c, 0, 61, 65
3, 1920, Note_on_c, 0, 61, 0
3, 1920, Note_on_c, 0, 53, 0
3, 1920, Note_on_c, 0, 49, 0
3, 1920, Note_on_c, 0, 53, 65
3, 1920, Note_on_c, 0, 56, 65
3, 1925, Control_c, 0, 64, 0
3, 2160, Note_on_c, 0, 56, 0
3, 2160, Note_on_c, 0, 53, 0
3, 2160, Note_on_c, 0, 32, 65
3, 2184, Control_c, 0, 64, 127
3, 2400, Note_on_c, 0, 32, 0
3, 2400, Note_on_c, 0, 51, 65
3, 2400, Note_on_c, 0, 56, 65
3, 2400, Note_on_c, 0, 60, 65
3, 2521, Control_c, 0, 64, 0
3, 2530, Control_c, 0, 64, 0
3, 2640, Note_on_c, 0, 60, 0
3, 2640, Note_on_c, 0, 56, 0
3, 2640, Note_on_c, 0, 51, 0
3, 2640, Note_on_c, 0, 48, 65
3, 2640, Note_on_c, 0, 51, 65
3, 2640, Note_on_c, 0, 56, 65
3, 2880, Note_on_c, 0, 56, 0
3, 2880, Note_on_c, 0, 51, 0
3, 2880, Note_on_c, 0, 48, 0
3, 2880, Note_on_c, 0, 41, 65
3, 2904, Control_c, 0, 64, 127
3, 3120, Note_on_c, 0, 41, 0
3, 3120, Note_on_c, 0, 53, 65
3, 3120, Note_on_c, 0, 56, 65
3, 3120, Note_on_c, 0, 60, 65
3, 3120, Note_on_c, 0, 65, 65
3, 3243, Control_c, 0, 64, 0
3, 3252, Control_c, 0, 64, 0
3, 3360, Note_on_c, 0, 65, 0
3, 3360, Note_on_c, 0, 53, 0
3, 3360, Note_on_c, 0, 56, 0
3, 3360, Note_on_c, 0, 60, 0
3, 3360, Note_on_c, 0, 44, 65
3, 3360, Note_on_c, 0, 51, 65
3, 3600, Note_on_c, 0, 51, 0
3, 3600, Note_on_c, 0, 44, 0
3, 3600, Note_on_c, 0, 41, 65
3, 3624, Control_c, 0, 64, 127
3, 3840, Note_on_c, 0, 41, 0
3, 3840, Note_on_c, 0, 53, 65
3, 3840, Note_on_c, 0, 56, 65
3, 3840, Note_on_c, 0, 60, 65
3, 3840, Note_on_c, 0, 65, 65
3, 3964, Control_c, 0, 64, 0
3, 4080, Note_on_c, 0, 65, 0
3, 4080, Note_on_c, 0, 53, 0
3, 4080, Note_on_c, 0, 56, 0
3, 4080, Note_on_c, 0, 60, 0
3, 4080, Note_on_c, 0, 44, 65
3, 4080, Note_on_c, 0, 51, 65
3, 4320, Note_on_c, 0, 51, 0
3, 4320, Note_on_c, 0, 44, 0
3, 4320, Note_on_c, 0, 39, 65
3, 4332, Control_c, 0, 64, 127
3, 4560, Note_on_c, 0, 39, 0
3, 4560, Note_on_c, 0, 51, 65
3, 4560, Note_on_c, 0, 55, 65
3, 4560, Note_on_c, 0, 60, 65
3, 4800, Note_on_c, 0, 60, 0
3, 4800, Note_on_c, 0, 55, 0
3, 4800, Note_on_c, 0, 51, 0
3, 4800, Note_on_c, 0, 43, 65
3, 4800, Note_on_c, 0, 53, 65
3, 4800, Note_on_c, 0, 59, 65
3, 4802, Control_c, 0, 64, 0
3, 4811, Control_c, 0, 64, 0
3, 5040, Note_on_c, 0, 59, 0
3, 5040, Note_on_c, 0, 53, 0
3, 5040, Note_on_c, 0, 43, 0
3, 5040, Note_on_c, 0, 36, 65
3, 5052, Control_c, 0, 64, 0
3, 5061, Control_c, 0, 64, 127
3, 5280, Note_on_c, 0, 36, 0
3, 5280, Note_on_c, 0, 51, 65
3, 5280, Note_on_c, 0, 55, 65
3, 5280, Note_on_c, 0, 60, 65
3, 5514, Control_c, 0, 64, 0
3, 5520, Note_on_c, 0, 60, 0
3, 5520, Note_on_c, 0, 55, 0
3, 5520, Note_on_c, 0, 51, 0
3, 5520, Note_on_c, 0, 48, 65
3, 5520, Note_on_c, 0, 51, 65
3, 5523, Control_c, 0, 64, 0
3, 5760, Note_on_c, 0, 51, 0
3, 5760, Note_on_c, 0, 48, 0
3, 5760, Note_on_c, 0, 44, 65
3, 5764, Control_c, 0, 64, 127
3, 6000, Note_on_c, 0, 44, 0
3, 6000, Note_on_c, 0, 51, 65
3, 6000, Note_on_c, 0, 56, 65
3, 6000, Note_on_c, 0, 60, 65
3, 6101, Control_c, 0, 64, 0
3, 6110, Control_c, 0, 64, 0
3, 6240, Note_on_c, 0, 60, 0
3, 6240, Note_on_c, 0, 56, 0
3, 6240, Note_on_c, 0, 51, 0
3, 6240, Note_on_c, 0, 48, 65
3, 6240, Note_on_c, 0, 51, 65
3, 6240, Note_on_c, 0, 56, 65
3, 6480, Note_on_c, 0, 56, 0
3, 6480, Note_on_c, 0, 51, 0
3, 6480, Note_on_c, 0, 48, 0
3, 6480, Note_on_c, 0, 32, 65
3, 6495, Control_c, 0, 64, 127
3, 6720, Note_on_c, 0, 32, 0
3, 6720, Note_on_c, 0, 51, 65
3, 6720, Note_on_c, 0, 56, 65
3, 6720, Note_on_c, 0, 60, 65
3, 6880, Control_c, 0, 64, 0
3, 6960, Note_on_c, 0, 60, 0
3, 6960, Note_on_c, 0, 56, 0
3, 6960, Note_on_c, 0, 51, 0
3, 6960, Note_on_c, 0, 48, 65
3, 6960, Note_on_c, 0, 51, 65
3, 6960, Note_on_c, 0, 56, 65
3, 7188, Control_c, 0, 64, 0
3, 7198, Control_c, 0, 64, 127
3, 7200, Note_on_c, 0, 56, 0
3, 7200, Note_on_c, 0, 51, 0
3, 7200, Note_on_c, 0, 48, 0
3, 7200, Note_on_c, 0, 44, 65
3, 7440, Note_on_c, 0, 44, 0
3, 7440, Note_on_c, 0, 49, 65
3, 7440, Note_on_c, 0, 53, 65
3, 7440, Note_on_c, 0, 61, 65
3, 7669, Control_c, 0, 64, 0
3, 7679, Control_c, 0, 64, 0
3, 7680, Note_on_c, 0, 61, 0
3, 7680, Note_on_c, 0, 53, 0
3, 7680, Note_on_c, 0, 49, 0
3, 7680, Note_on_c, 0, 53, 65
3, 7680, Note_on_c, 0, 56, 65
3, 7910, Control_c, 0, 64, 0
3, 7919, Control_c, 0, 64, 127
3, 7920, Note_on_c, 0, 56, 0
3, 7920, Note_on_c, 0, 53, 0
3, 7920, Note_on_c, 0, 32, 65
3, 8160, Note_on_c, 0, 32, 0
3, 8160, Note_on_c, 0, 51, 65
3, 8160, Note_on_c, 0, 56, 65
3, 8160, Note_on_c, 0, 60, 65
3, 8266, Control_c, 0, 64, 0
3, 8275, Control_c, 0, 64, 0
3, 8400, Note_on_c, 0, 60, 0
3, 8400, Note_on_c, 0, 56, 0
3, 8400, Note_on_c, 0, 51, 0
3, 8400, Note_on_c, 0, 48, 65
3, 8400, Note_on_c, 0, 51, 65
3, 8400, Note_on_c, 0, 56, 65
3, 8640, Note_on_c, 0, 56, 0
3, 8640, Note_on_c, 0, 51, 0
3, 8640, Note_on_c, 0, 48, 0
3, 8640, Note_on_c, 0, 41, 65
3, 8641, Control_c, 0, 64, 127
3, 8880, Note_on_c, 0, 41, 0
3, 8880, Note_on_c, 0, 53, 65
3, 8880, Note_on_c, 0, 56, 65
3, 8880, Note_on_c, 0, 60, 65
3, 8880, Note_on_c, 0, 65, 65
3, 8997, Control_c, 0, 64, 0
3, 9007, Control_c, 0, 64, 0
3, 9120, Note_on_c, 0, 65, 0
3, 9120, Note_on_c, 0, 53, 0
3, 9120, Note_on_c, 0, 56, 0
3, 9120, Note_on_c, 0, 60, 0
3, 9120, Note_on_c, 0, 44, 65
3, 9120, Note_on_c, 0, 51, 65
3, 9360, Note_on_c, 0, 51, 0
3, 9360, Note_on_c, 0, 44, 0
3, 9360, Note_on_c, 0, 41, 65
3, 9373, Control_c, 0, 64, 127
3, 9600, Note_on_c, 0, 41, 0
3, 9600, Note_on_c, 0, 53, 65
3, 9600, Note_on_c, 0, 56, 65
3, 9600, Note_on_c, 0, 60, 65
3, 9600, Note_on_c, 0, 65, 65
3, 9700, Control_c, 0, 64, 0
3, 9709, Control_c, 0, 64, 0
3, 9840, Note_on_c, 0, 65, 0
3, 9840, Note_on_c, 0, 53, 0
3, 9840, Note_on_c, 0, 56, 0
3, 9840, Note_on_c, 0, 60, 0
3, 9840, Note_on_c, 0, 44, 65
3, 9840, Note_on_c, 0, 51, 65
3, 10075, Control_c, 0, 64, 0
3, 10080, Note_on_c, 0, 51, 0
3, 10080, Note_on_c, 0, 44, 0
3, 10080, Note_on_c, 0, 39, 65
3, 10085, Control_c, 0, 64, 127
3, 10320, Note_on_c, 0, 39, 0
3, 10320, Note_on_c, 0, 51, 65
3, 10320, Note_on_c, 0, 55, 65
3, 10320, Note_on_c, 0, 60, 65
3, 10537, Control_c, 0, 64, 0
3, 10547, Control_c, 0, 64, 0
3, 10560, Note_on_c, 0, 60, 0
3, 10560, Note_on_c, 0, 55, 0
3, 10560, Note_on_c, 0, 51, 0
3, 10560, Note_on_c, 0, 43, 65
3, 10560, Note_on_c, 0, 53, 65
3, 10560, Note_on_c, 0, 59, 65
3, 10800, Note_on_c, 0, 59, 0
3, 10800, Note_on_c, 0, 53, 0
3, 10800, Note_on_c, 0, 43, 0
3, 10800, Note_on_c, 0, 36, 65
3, 10826, Control_c, 0, 64, 0
3, 10835, Control_c, 0, 64, 127
3, 11040, Note_on_c, 0, 36, 0
3, 11040, Note_on_c, 0, 51, 65
3, 11040, Note_on_c, 0, 55, 65
3, 11040, Note_on_c, 0, 60, 65
3, 11259, Control_c, 0, 64, 0
3, 11268, Control_c, 0, 64, 0
3, 11280, Note_on_c, 0, 60, 0
3, 11280, Note_on_c, 0, 55, 0
3, 11280, Note_on_c, 0, 51, 0
3, 11280, Note_on_c, 0, 48, 65
3, 11280, Note_on_c, 0, 51, 65
3, 11280, Note_on_c, 0, 55, 65
3, 11520, Note_on_c, 0, 55, 0
3, 11520, Note_on_c, 0, 51, 0
3, 11520, Note_on_c, 0, 48, 0
3, 11520, Note_on_c, 0, 39, 65
3, 11538, Control_c, 0, 64, 0
3, 11547, Control_c, 0, 64, 127
3, 11760, Note_on_c, 0, 39, 0
3, 11760, Note_on_c, 0, 51, 65
3, 11760, Note_on_c, 0, 55, 65
3, 11760, Note_on_c, 0, 61, 65
3, 12000, Note_on_c, 0, 61, 0
3, 12000, Note_on_c, 0, 55, 0
3, 12000, Note_on_c, 0, 51, 0
3, 12000, Note_on_c, 0, 51, 65
3, 12000, Note_on_c, 0, 55, 65
3, 12192, Control_c, 0, 64, 0
3, 12202, Control_c, 0, 64, 0
3, 12240, Note_on_c, 0, 55, 0
3, 12240, Note_on_c, 0, 51, 0
3, 12240, Note_on_c, 0, 44, 65
3, 12269, Control_c, 0, 64, 127
3, 12480, Note_on_c, 0, 44, 0
3, 12480, Note_on_c, 0, 51, 65
3, 12480, Note_on_c, 0, 56, 65
3, 12480, Note_on_c, 0, 60, 65
3, 12720, Note_on_c, 0, 60, 0
3, 12720, Note_on_c, 0, 56, 0
3, 12720, Note_on_c, 0, 51, 0
3, 12720, Note_on_c, 0, 51, 65
3, 12720, Note_on_c, 0, 56, 65
3, 12885, Control_c, 0, 64, 0
3, 12960, Note_on_c, 0, 56, 0
3, 12960, Note_on_c, 0, 51, 0
3, 12960, Note_on_c, 0, 32, 65
3, 12962, Control_c, 0, 64, 0
3, 12972, Control_c, 0, 64, 127
3, 13200, Note_on_c, 0, 32, 0
3, 13200, Note_on_c, 0, 56, 65
3, 13200, Note_on_c, 0, 60, 65
3, 13200, Note_on_c, 0, 66, 65
3, 13440, Note_on_c, 0, 66, 0
3, 13440, Note_on_c, 0, 60, 0
3, 13440, Note_on_c, 0, 56, 0
3, 13440, Note_on_c, 0, 56, 65
3, 13440, Note_on_c, 0, 60, 65
3, 13607, Control_c, 0, 64, 0
3, 13616, Control_c, 0, 64, 0
3, 13680, Note_on_c, 0, 60, 0
3, 13680, Note_on_c, 0, 56, 0
3, 13680, Note_on_c, 0, 37, 65
3, 13693, Control_c, 0, 64, 0
3, 13703, Control_c, 0, 64, 127
3, 13920, Note_on_c, 0, 37, 0
3, 13920, Note_on_c, 0, 56, 65
3, 13920, Note_on_c, 0, 61, 65
3, 13920, Note_on_c, 0, 65, 65
3, 14160, Note_on_c, 0, 65, 0
3, 14160, Note_on_c, 0, 61, 0
3, 14160, Note_on_c, 0, 56, 0
3, 14160, Note_on_c, 0, 56, 65
3, 14160, Note_on_c, 0, 61, 65
3, 14300, Control_c, 0, 64, 0
3, 14309, Control_c, 0, 64, 0
3, 14386, Control_c, 0, 64, 0
3, 14396, Control_c, 0, 64, 127
3, 14400, Note_on_c, 0, 61, 0
3, 14400, Note_on_c, 0, 56, 0
3, 14400, Note_on_c, 0, 34, 65
3, 14400, Note_on_c, 0, 46, 65
3, 14640, Note_on_c, 0, 46, 0
3, 14640, Note_on_c, 0, 34, 0
3, 14640, Note_on_c, 0, 56, 65
3, 14640, Note_on_c, 0, 58, 65
3, 14640, Note_on_c, 0, 62, 65
3, 14640, Note_on_c, 0, 65, 65
3, 14880, Note_on_c, 0, 65, 0
3, 14880, Note_on_c, 0, 56, 0
3, 14880, Note_on_c, 0, 58, 0
3, 14880, Note_on_c, 0, 62, 0
3, 14880, Note_on_c, 0, 53, 65
3, 14880, Note_on_c, 0, 58, 65
3, 14880, Note_on_c, 0, 62, 65
3, 15120, Note_on_c, 0, 62, 0
3, 15120, Note_on_c, 0, 58, 0
3, 15120, Note_on_c, 0, 53, 0
3, 15120, Note_on_c, 0, 39, 65
3, 15214, Control_c, 0, 64, 0
3, 15223, Control_c, 0, 64, 0
3, 15291, Control_c, 0, 64, 127
3, 15360, Note_on_c, 0, 39, 0
3, 15360, Note_on_c, 0, 51, 65
3, 15360, Note_on_c, 0, 58, 65
3, 15360, Note_on_c, 0, 61, 65
3, 15600, Note_on_c, 0, 61, 0
3, 15600, Note_on_c, 0, 58, 0
3, 15600, Note_on_c, 0, 51, 0
3, 15600, Note_on_c, 0, 51, 65
3, 15600, Note_on_c, 0, 58, 65
3, 15600, Note_on_c, 0, 63, 65
3, 15628, Control_c, 0, 64, 0
3, 15637, Control_c, 0, 64, 0
3, 15840, Note_on_c, 0, 63, 0
3, 15840, Note_on_c, 0, 58, 0
3, 15840, Note_on_c, 0, 51, 0
3, 15840, Note_on_c, 0, 44, 65
3, 15849, Control_c, 0, 64, 0
3, 15858, Control_c, 0, 64, 127
3, 16080, Note_on_c, 0, 44, 0
3, 16080, Note_on_c, 0, 51, 65
3, 16080, Note_on_c, 0, 56, 65
3, 16080, Note_on_c, 0, 60, 65
3, 16205, Control_c, 0, 64, 0
3, 16215, Control_c, 0, 64, 0
3, 16320, Note_on_c, 0, 60, 0
3, 16320, Note_on_c, 0, 56, 0
3, 16320, Note_on_c, 0, 51, 0
3, 16320, Note_on_c, 0, 48, 65
3, 16320, Note_on_c, 0, 51, 65
3, 16320, Note_on_c, 0, 56, 65
3, 16560, Note_on_c, 0, 56, 0
3, 16560, Note_on_c, 0, 51, 0
3, 16560, Note_on_c, 0, 48, 0
3, 16560, Note_on_c, 0, 32, 65
3, 16572, Control_c, 0, 64, 127
3, 16800, Note_on_c, 0, 32, 0
3, 16800, Note_on_c, 0, 51, 65
3, 16800, Note_on_c, 0, 56, 65
3, 16800, Note_on_c, 0, 60, 65
3, 16917, Control_c, 0, 64, 0
3, 16927, Control_c, 0, 64, 0
3, 17040, Note_on_c, 0, 60, 0
3, 17040, Note_on_c, 0, 56, 0
3, 17040, Note_on_c, 0, 51, 0
3, 17040, Note_on_c, 0, 48, 65
3, 17040, Note_on_c, 0, 51, 65
3, 17040, Note_on_c, 0, 56, 65
3, 17280, Note_on_c, 0, 56, 0
3, 17280, Note_on_c, 0, 51, 0
3, 17280, Note_on_c, 0, 48, 0
3, 17280, Note_on_c, 0, 44, 65
3, 17292, Control_c, 0, 64, 127
3, 17520, Note_on_c, 0, 44, 0
3, 17520, Note_on_c, 0, 49, 65
3, 17520, Note_on_c, 0, 53, 65
3, 17520, Note_on_c, 0, 61, 65
3, 17706, Control_c, 0, 64, 0
3, 17760, Note_on_c, 0, 61, 0
3, 17760, Note_on_c, 0, 53, 0
3, 17760, Note_on_c, 0, 49, 0
3, 17760, Note_on_c, 0, 53, 65
3, 17760, Note_on_c, 0, 56, 65
3, 17985, Control_c, 0, 64, 0
3, 18000, Note_on_c, 0, 56, 0
3, 18000, Note_on_c, 0, 53, 0
3, 18000, Note_on_c, 0, 32, 65
3, 18024, Control_c, 0, 64, 127
3, 18240, Note_on_c, 0, 32, 0
3, 18240, Note_on_c, 0, 51, 65
3, 18240, Note_on_c, 0, 56, 65
3, 18240, Note_on_c, 0, 60, 65
3, 18351, Control_c, 0, 64, 0
3, 18360, Control_c, 0, 64, 0
3, 18480, Note_on_c, 0, 60, 0
3, 18480, Note_on_c, 0, 56, 0
3, 18480, Note_on_c, 0, 51, 0
3, 18480, Note_on_c, 0, 48, 65
3, 18480, Note_on_c, 0, 51, 65
3, 18480, Note_on_c, 0, 56, 65
3, 18720, Note_on_c, 0, 56, 0
3, 18720, Note_on_c, 0, 51, 0
3, 18720, Note_on_c, 0, 48, 0
3, 18720, Note_on_c, 0, 41, 65
3, 18736, Control_c, 0, 64, 127
3, 18960, Note_on_c, 0, 41, 0
3, 18960, Note_on_c, 0, 53, 65
3, 18960, Note_on_c, 0, 56, 65
3, 18960, Note_on_c, 0, 60, 65
3, 18960, Note_on_c, 0, 65, 65
3, 19073, Control_c, 0, 64, 0
3, 19082, Control_c, 0, 64, 0
3, 19200, Note_on_c, 0, 65, 0
3, 19200, Note_on_c, 0, 53, 0
3, 19200, Note_on_c, 0, 56, 0
3, 19200, Note_on_c, 0, 60, 0
3, 19200, Note_on_c, 0, 44, 65
3, 19200, Note_on_c, 0, 51, 65
3, 19440, Note_on_c, 0, 51, 0
3, 19440, Note_on_c, 0, 44, 0
3, 19440, Note_on_c, 0, 41, 65
3, 19452, Control_c, 0, 64, 127
3, 19680, Note_on_c, 0, 41, 0
3, 19680, Note_on_c, 0, 53, 65
3, 19680, Note_on_c, 0, 56, 65
3, 19680, Note_on_c, 0, 60, 65
3, 19680, Note_on_c, 0, 65, 65
3, 19775, Control_c, 0, 64, 0
3, 19785, Control_c, 0, 64, 0
3, 19920, Note_on_c, 0, 65, 0
3, 19920, Note_on_c, 0, 53, 0
3, 19920, Note_on_c, 0, 56, 0
3, 19920, Note_on_c, 0, 60, 0
3, 19920, Note_on_c, 0, 44, 65
3, 19920, Note_on_c, 0, 51, 65
3, 20160, Note_on_c, 0, 51, 0
3, 20160, Note_on_c, 0, 44, 0
3, 20160, Note_on_c, 0, 36, 65
3, 20170, Control_c, 0, 64, 0
3, 20179, Control_c, 0, 64, 127
3, 20391, Control_c, 0, 64, 0
3, 20400, Note_on_c, 0, 36, 0
3, 20400, Control_c, 0, 64, 0
3, 20400, Note_on_c, 0, 39, 65
3, 20640, Note_on_c, 0, 39, 0
3, 20640, Note_on_c, 0, 51, 65
3, 20640, Note_on_c, 0, 55, 65
3, 20862, Control_c, 0, 64, 0
3, 20880, Note_on_c, 0, 55, 0
3, 20880, Note_on_c, 0, 51, 0
3, 20880, Note_on_c, 0, 44, 65
3, 20892, Control_c, 0, 64, 127
3, 21120, Note_on_c, 0, 44, 0
3, 21120, Note_on_c, 0, 51, 65
3, 21120, Note_on_c, 0, 56, 65
3, 21360, Note_on_c, 0, 56, 0
3, 21360, Note_on_c, 0, 51, 0
3, 21360, Note_on_c, 0, 51, 65
3, 21360, Note_on_c, 0, 56, 65
3, 21360, Note_on_c, 0, 60, 65
3, 21526, Control_c, 0, 64, 0
3, 21536, Control_c, 0, 64, 0
3, 21600, Note_on_c, 0, 60, 0
3, 21600, Note_on_c, 0, 56, 0
3, 21600, Note_on_c, 0, 51, 0
3, 21600, Note_on_c, 0, 39, 65
3, 21613, Control_c, 0, 64, 127
3, 21840, Note_on_c, 0, 39, 0
3, 21840, Note_on_c, 0, 51, 65
3, 21840, Note_on_c, 0, 55, 65
3, 21840, Note_on_c, 0, 61, 65
3, 22080, Note_on_c, 0, 61, 0
3, 22080, Note_on_c, 0, 55, 0
3, 22080, Note_on_c, 0, 51, 0
3, 22080, Note_on_c, 0, 51, 65
3, 22080, Note_on_c, 0, 55, 65
3, 22152, Control_c, 0, 64, 0
3, 22258, Control_c, 0, 64, 0
3, 22320, Note_on_c, 0, 55, 0
3, 22320, Note_on_c, 0, 51, 0
3, 22320, Note_on_c, 0, 44, 65
3, 22335, Control_c, 0, 64, 127
3, 22560, Note_on_c, 0, 44, 0
3, 22560, Note_on_c, 0, 51, 65
3, 22560, Note_on_c, 0, 56, 65
3, 22560, Note_on_c, 0, 60, 65
3, 22800, Note_on_c, 0, 60, 0
3, 22800, Note_on_c, 0, 56, 0
3, 22800, Note_on_c, 0, 51, 0
3, 22800, Note_on_c, 0, 51, 65
3, 22800, Note_on_c, 0, 56, 65
3, 22826, Control_c, 0, 64, 0
3, 22835, Control_c, 0, 64, 0
3, 23040, Note_on_c, 0, 56, 0
3, 23040, Note_on_c, 0, 51, 0
3, 23040, Note_on_c, 0, 32, 65
3, 23052, Control_c, 0, 64, 127
3, 23280, Note_on_c, 0, 32, 0
3, 23280, Note_on_c, 0, 56, 65
3, 23280, Note_on_c, 0, 60, 65
3, 23280, Note_on_c, 0, 66, 65
3, 23509, Control_c, 0, 64, 0
3, 23520, Note_on_c, 0, 66, 0
3, 23520, Note_on_c, 0, 60, 0
3, 23520, Note_on_c, 0, 56, 0
3, 23520, Note_on_c, 0, 56, 65
3, 23520, Note_on_c, 0, 60, 65
3, 23557, Control_c, 0, 64, 0
3, 23760, Note_on_c, 0, 60, 0
3, 23760, Note_on_c, 0, 56, 0
3, 23760, Note_on_c, 0, 37, 65
3, 23772, Control_c, 0, 64, 127
3, 24000, Note_on_c, 0, 37, 0
3, 24000, Note_on_c, 0, 56, 65
3, 24000, Note_on_c, 0, 61, 65
3, 24000, Note_on_c, 0, 65, 65
3, 24048, Pitch_bend_c, 0, 8030
3, 24050, Pitch_bend_c, 0, 8111
3, 24240, Note_on_c, 0, 65, 0
3, 24240, Note_on_c, 0, 61, 0
3, 24240, Note_on_c, 0, 56, 0
3, 24240, Note_on_c, 0, 56, 65
3, 24240, Note_on_c, 0, 61, 65
3, 24259, Control_c, 0, 64, 0
3, 24269, Control_c, 0, 64, 0
3, 24480, Note_on_c, 0, 61, 0
3, 24480, Note_on_c, 0, 56, 0
3, 24480, Note_on_c, 0, 34, 65
3, 24480, Note_on_c, 0, 46, 65
3, 24492, Control_c, 0, 64, 127
3, 24720, Note_on_c, 0, 46, 0
3, 24720, Note_on_c, 0, 34, 0
3, 24720, Note_on_c, 0, 56, 65
3, 24720, Note_on_c, 0, 58, 65
3, 24720, Note_on_c, 0, 62, 65
3, 24720, Note_on_c, 0, 65, 65
3, 24960, Note_on_c, 0, 65, 0
3, 24960, Note_on_c, 0, 56, 0
3, 24960, Note_on_c, 0, 58, 0
3, 24960, Note_on_c, 0, 62, 0
3, 24960, Note_on_c, 0, 53, 65
3, 24960, Note_on_c, 0, 58, 65
3, 24960, Note_on_c, 0, 62, 65
3, 25200, Note_on_c, 0, 62, 0
3, 25200, Note_on_c, 0, 58, 0
3, 25200, Note_on_c, 0, 53, 0
3, 25200, Note_on_c, 0, 39, 65
3, 25202, Control_c, 0, 64, 0
3, 25212, Control_c, 0, 64, 0
3, 25270, Control_c, 0, 64, 0
3, 25279, Control_c, 0, 64, 127
3, 25440, Note_on_c, 0, 39, 0
3, 25440, Note_on_c, 0, 51, 65
3, 25440, Note_on_c, 0, 58, 65
3, 25440, Note_on_c, 0, 61, 65
3, 25680, Note_on_c, 0, 61, 0
3, 25680, Note_on_c, 0, 58, 0
3, 25680, Note_on_c, 0, 51, 0
3, 25680, Note_on_c, 0, 51, 65
3, 25680, Note_on_c, 0, 58, 65
3, 25680, Note_on_c, 0, 63, 65
3, 25684, Control_c, 0, 64, 0
3, 25703, Control_c, 0, 64, 0
3, 25895, Control_c, 0, 64, 0
3, 25920, Note_on_c, 0, 63, 0
3, 25920, Note_on_c, 0, 58, 0
3, 25920, Note_on_c, 0, 51, 0
3, 25920, Note_on_c, 0, 32, 65
3, 25932, Control_c, 0, 64, 127
3, 26160, Note_on_c, 0, 32, 0
3, 26160, Note_on_c, 0, 51, 65
3, 26160, Note_on_c, 0, 56, 65
3, 26160, Note_on_c, 0, 60, 65
3, 26400, Note_on_c, 0, 60, 0
3, 26400, Note_on_c, 0, 56, 0
3, 26400, Note_on_c, 0, 51, 0
3, 26400, Note_on_c, 0, 48, 65
3, 26400, Note_on_c, 0, 51, 65
3, 26400, Note_on_c, 0, 56, 65
3, 26640, Note_on_c, 0, 56, 0
3, 26640, Note_on_c, 0, 51, 0
3, 26640, Note_on_c, 0, 48, 0
3, 26640, Note_on_c, 0, 32, 65
3, 26880, Note_on_c, 0, 32, 0
3, 26880, Note_on_c, 0, 51, 65
3, 26880, Note_on_c, 0, 56, 65
3, 26880, Note_on_c, 0, 60, 65
3, 27120, Note_on_c, 0, 60, 0
3, 27120, Note_on_c, 0, 56, 0
3, 27120, Note_on_c, 0, 51, 0
3, 27120, Note_on_c, 0, 48, 65
3, 27120, Note_on_c, 0, 51, 65
3, 27120, Note_on_c, 0, 56, 65
3, 27358, Control_c, 0, 64, 0
3, 27360, Note_on_c, 0, 56, 0
3, 27360, Note_on_c, 0, 51, 0
3, 27360, Note_on_c, 0, 48, 0
3, 27360, Note_on_c, 0, 37, 65
3, 27368, Control_c, 0, 64, 0
3, 27425, Control_c, 0, 64, 0
3, 27435, Control_c, 0, 64, 127
3, 27600, Note_on_c, 0, 37, 0
3, 27600, Note_on_c, 0, 49, 65
3, 27600, Note_on_c, 0, 56, 65
3, 27840, Note_on_c, 0, 56, 0
3, 27840, Note_on_c, 0, 49, 0
3, 27840, Note_on_c, 0, 53, 65
3, 27840, Note_on_c, 0, 56, 65
3, 28080, Note_on_c, 0, 56, 0
3, 28080, Note_on_c, 0, 53, 0
3, 28080, Note_on_c, 0, 32, 65
3, 28147, Control_c, 0, 64, 0
3, 28205, Control_c, 0, 64, 127
3, 28320, Note_on_c, 0, 32, 0
3, 28320, Note_on_c, 0, 51, 65
3, 28320, Note_on_c, 0, 56, 65
3, 28320, Note_on_c, 0, 60, 65
3, 28560, Note_on_c, 0, 60, 0
3, 28560, Note_on_c, 0, 56, 0
3, 28560, Note_on_c, 0, 51, 0
3, 28560, Note_on_c, 0, 48, 65
3, 28560, Note_on_c, 0, 51, 65
3, 28560, Note_on_c, 0, 56, 65
3, 28590, Control_c, 0, 64, 0
3, 28599, Control_c, 0, 64, 0
3, 28800, Note_on_c, 0, 56, 0
3, 28800, Note_on_c, 0, 51, 0
3, 28800, Note_on_c, 0, 48, 0
3, 28800, Note_on_c, 0, 41, 65
3, 28824, Control_c, 0, 64, 127
3, 29040, Note_on_c, 0, 41, 0
3, 29040, Note_on_c, 0, 53, 65
3, 29040, Note_on_c, 0, 56, 65
3, 29040, Note_on_c, 0, 60, 65
3, 29254, Control_c, 0, 64, 0
3, 29263, Control_c, 0, 64, 0
3, 29280, Note_on_c, 0, 60, 0
3, 29280, Note_on_c, 0, 56, 0
3, 29280, Note_on_c, 0, 53, 0
3, 29280, Note_on_c, 0, 44, 65
3, 29280, Note_on_c, 0, 51, 65
3, 29280, Note_on_c, 0, 56, 65
3, 29504, Control_c, 0, 64, 0
3, 29520, Note_on_c, 0, 56, 0
3, 29520, Note_on_c, 0, 51, 0
3, 29520, Note_on_c, 0, 44, 0
3, 29520, Note_on_c, 0, 41, 65
3, 29544, Control_c, 0, 64, 127
3, 29760, Note_on_c, 0, 41, 0
3, 29760, Note_on_c, 0, 53, 65
3, 29760, Note_on_c, 0, 56, 65
3, 29760, Note_on_c, 0, 60, 65
3, 29966, Control_c, 0, 64, 0
3, 29985, Control_c, 0, 64, 0
3, 30000, Note_on_c, 0, 60, 0
3, 30000, Note_on_c, 0, 56, 0
3, 30000, Note_on_c, 0, 53, 0
3, 30000, Note_on_c, 0, 44, 65
3, 30000, Note_on_c, 0, 51, 65
3, 30000, Note_on_c, 0, 56, 65
3, 30240, Note_on_c, 0, 56, 0
3, 30240, Note_on_c, 0, 51, 0
3, 30240, Note_on_c, 0, 44, 0
3, 30240, Note_on_c, 0, 36, 65
3, 30264, Control_c, 0, 64, 127
3, 30476, Control_c, 0, 64, 0
3, 30480, Note_on_c, 0, 36, 0
3, 30480, Note_on_c, 0, 39, 65
3, 30504, Control_c, 0, 64, 127
3, 30720, Note_on_c, 0, 39, 0
3, 30720, Note_on_c, 0, 51, 65
3, 30720, Note_on_c, 0, 55, 65
3, 30720, Note_on_c, 0, 61, 65
3, 30960, Note_on_c, 0, 61, 0
3, 30960, Note_on_c, 0, 55, 0
3, 30960, Note_on_c, 0, 51, 0
3, 30960, Note_on_c, 0, 32, 65
3, 31015, Control_c, 0, 64, 0
3, 31024, Control_c, 0, 64, 0
3, 31082, Control_c, 0, 64, 0
3, 31092, Control_c, 0, 64, 127
3, 31200, Note_on_c, 0, 32, 0
3, 31200, Note_on_c, 0, 51, 65
3, 31200, Note_on_c, 0, 56, 65
3, 31200, Note_on_c, 0, 60, 65
3, 31440, Note_on_c, 0, 60, 0
3, 31440, Note_on_c, 0, 56, 0
3, 31440, Note_on_c, 0, 51, 0
3, 31448, Control_c, 0, 64, 0
3, 31457, Control_c, 0, 64, 0
3, 31457, End_track
0, 0, End_of_file
