0, 0, Header, 1, 3, 240
1, 0, Start_track
1, 0, Title_t, "untitled"
1, 0, Time_signature, 3, 2, 24, 8
1, 0, Key_signature, 0, "major"
1, 0, Tempo, 454545
1, 0, End_track
2, 0, Start_track
2, 0, Title_t, "Btahms"
2, 0, Program_c, 0, 0
2, 0, Control_c, 0, 7, 110
2, 0, Control_c, 0, 10, 79
2, 480, Note_on_c, 0, 56, 79
2, 708, Note_on_c, 0, 56, 0
2, 720, Note_on_c, 0, 66, 79
2, 720, Note_on_c, 0, 68, 79
2, 948, Note_on_c, 0, 68, 0
2, 960, Note_on_c, 0, 69, 79
2, 1062, Note_on_c, 0, 66, 0
2, 1074, Note_on_c, 0, 69, 0
2, 1080, Note_on_c, 0, 68, 79
2, 1080, Note_on_c, 0, 64, 79
2, 1194, Note_on_c, 0, 64, 0
2, 1194, Note_on_c, 0, 68, 0
2, 1200, Note_on_c, 0, 63, 79
2, 1200, Note_on_c, 0, 69, 79
2, 1428, Note_on_c, 0, 69, 0
2, 1428, Note_on_c, 0, 63, 0
2, 1440, Note_on_c, 0, 64, 79
2, 1440, Note_on_c, 0, 68, 79
2, 1668, Note_on_c, 0, 64, 0
2, 1680, Note_on_c, 0, 56, 79
2, 1782, Note_on_c, 0, 68, 0
2, 1800, Note_on_c, 0, 66, 79
2, 1908, Note_on_c, 0, 56, 0
2, 1914, Note_on_c, 0, 66, 0
2, 1920, Note_on_c, 0, 64, 79
2, 1920, Note_on_c, 0, 61, 79
2, 2034, Note_on_c, 0, 64, 0
2, 2040, Note_on_c, 0, 66, 79
2, 2148, Note_on_c, 0, 61, 0
2, 2154, Note_on_c, 0, 66, 0
2, 2160, Note_on_c, 0, 66, 79
2, 2160, Note_on_c, 0, 68, 79
2, 2388, Note_on_c, 0, 68, 0
2, 2400, Note_on_c, 0, 69, 79
2, 2502, Note_on_c, 0, 66, 0
2, 2514, Note_on_c, 0, 69, 0
2, 2520, Note_on_c, 0, 68, 79
2, 2520, Note_on_c, 0, 64, 79
2, 2634, Note_on_c, 0, 64, 0
2, 2634, Note_on_c, 0, 68, 0
2, 2640, Note_on_c, 0, 63, 79
2, 2640, Note_on_c, 0, 69, 79
2, 2868, Note_on_c, 0, 69, 0
2, 2868, Note_on_c, 0, 63, 0
2, 2880, Note_on_c, 0, 64, 79
2, 2880, Note_on_c, 0, 68, 79
2, 3108, Note_on_c, 0, 64, 0
2, 3120, Note_on_c, 0, 56, 79
2, 3222, Note_on_c, 0, 68, 0
2, 3240, Note_on_c, 0, 66, 79
2, 3348, Note_on_c, 0, 56, 0
2, 3354, Note_on_c, 0, 66, 0
2, 3360, Note_on_c, 0, 64, 79
2, 3360, Note_on_c, 0, 61, 79
2, 3474, Note_on_c, 0, 64, 0
2, 3480, Note_on_c, 0, 66, 79
2, 3588, Note_on_c, 0, 61, 0
2, 3594, Note_on_c, 0, 66, 0
2, 3600, Note_on_c, 0, 68, 79
2, 3600, Note_on_c, 0, 64, 79
2, 3828, Note_on_c, 0, 64, 0
2, 3828, Note_on_c, 0, 68, 0
2, 3840, Note_on_c, 0, 56, 79
2, 3840, Note_on_c, 0, 69, 79
2, 3954, Note_on_c, 0, 69, 0
2, 3960, Note_on_c, 0, 68, 79
2, 4068, Note_on_c, 0, 56, 0
2, 4074, Note_on_c, 0, 68, 0
2, 4080, Note_on_c, 0, 64, 79
2, 4080, Note_on_c, 0, 69, 79
2, 4308, Note_on_c, 0, 69, 0
2, 4308, Note_on_c, 0, 64, 0
2, 4320, Note_on_c, 0, 71, 79
2, 4320, Note_on_c, 0, 68, 79
2, 4548, Note_on_c, 0, 68, 0
2, 4548, Note_on_c, 0, 71, 0
2, 4560, Note_on_c, 0, 59, 79
2, 4560, Note_on_c, 0, 73, 79
2, 4674, Note_on_c, 0, 73, 0
2, 4680, Note_on_c, 0, 71, 79
2, 4788, Note_on_c, 0, 59, 0
2, 4794, Note_on_c, 0, 71, 0
2, 4800, Note_on_c, 0, 68, 79
2, 4800, Note_on_c, 0, 73, 79
2, 5028, Note_on_c, 0, 73, 0
2, 5028, Note_on_c, 0, 68, 0
2, 5040, Note_on_c, 0, 71, 79
2, 5040, Note_on_c, 0, 75, 79
2, 5268, Note_on_c, 0, 75, 0
2, 5280, Note_on_c, 0, 73, 79
2, 5382, Note_on_c, 0, 71, 0
2, 5394, Note_on_c, 0, 73, 0
2, 5400, Note_on_c, 0, 75, 79
2, 5400, Note_on_c, 0, 66, 79
2, 5514, Note_on_c, 0, 66, 0
2, 5514, Note_on_c, 0, 75, 0
2, 5520, Note_on_c, 0, 69, 79
2, 5520, Note_on_c, 0, 73, 79
2, 5748, Note_on_c, 0, 73, 0
2, 5748, Note_on_c, 0, 69, 0
2, 5760, Note_on_c, 0, 68, 79
2, 5760, Note_on_c, 0, 71, 79
2, 5988, Note_on_c, 0, 68, 0
2, 6000, Note_on_c, 0, 66, 79
2, 6102, Note_on_c, 0, 71, 0
2, 6120, Note_on_c, 0, 69, 79
2, 6228, Note_on_c, 0, 66, 0
2, 6234, Note_on_c, 0, 69, 0
2, 6240, Note_on_c, 0, 64, 79
2, 6240, Note_on_c, 0, 68, 79
2, 6468, Note_on_c, 0, 68, 0
2, 6468, Note_on_c, 0, 64, 0
2, 6480, Note_on_c, 0, 78, 79
2, 6480, Note_on_c, 0, 66, 79
2, 6822, Note_on_c, 0, 66, 0
2, 6822, Note_on_c, 0, 78, 0
2, 6840, Note_on_c, 0, 76, 79
2, 6840, Note_on_c, 0, 64, 79
2, 6954, Note_on_c, 0, 64, 0
2, 6954, Note_on_c, 0, 76, 0
2, 6960, Note_on_c, 0, 63, 79
2, 6960, Note_on_c, 0, 75, 79
2, 7188, Note_on_c, 0, 75, 0
2, 7188, Note_on_c, 0, 63, 0
2, 7200, Note_on_c, 0, 76, 79
2, 7200, Note_on_c, 0, 64, 79
2, 7428, Note_on_c, 0, 64, 0
2, 7428, Note_on_c, 0, 76, 0
2, 7440, Note_on_c, 0, 68, 79
2, 7668, Note_on_c, 0, 68, 0
2, 7680, Note_on_c, 0, 73, 79
2, 7908, Note_on_c, 0, 73, 0
2, 7920, Note_on_c, 0, 78, 79
2, 7920, Note_on_c, 0, 66, 79
2, 8262, Note_on_c, 0, 66, 0
2, 8262, Note_on_c, 0, 78, 0
2, 8280, Note_on_c, 0, 76, 79
2, 8280, Note_on_c, 0, 64, 79
2, 8394, Note_on_c, 0, 64, 0
2, 8394, Note_on_c, 0, 76, 0
2, 8400, Note_on_c, 0, 63, 79
2, 8400, Note_on_c, 0, 75, 79
2, 8628, Note_on_c, 0, 75, 0
2, 8628, Note_on_c, 0, 63, 0
2, 8640, Note_on_c, 0, 76, 79
2, 8640, Note_on_c, 0, 64, 79
2, 8868, Note_on_c, 0, 64, 0
2, 8868, Note_on_c, 0, 76, 0
2, 8880, Note_on_c, 0, 68, 79
2, 9108, Note_on_c, 0, 68, 0
2, 9120, Note_on_c, 0, 61, 79
2, 9120, Note_on_c, 0, 73, 79
2, 9348, Note_on_c, 0, 73, 0
2, 9348, Note_on_c, 0, 61, 0
2, 9360, Note_on_c, 0, 76, 79
2, 9360, Note_on_c, 0, 64, 79
2, 9588, Note_on_c, 0, 64, 0
2, 9588, Note_on_c, 0, 76, 0
2, 9600, Note_on_c, 0, 68, 79
2, 9828, Note_on_c, 0, 68, 0
2, 9840, Note_on_c, 0, 64, 79
2, 9840, Note_on_c, 0, 76, 79
2, 10068, Note_on_c, 0, 76, 0
2, 10068, Note_on_c, 0, 64, 0
2, 10080, Note_on_c, 0, 80, 79
2, 10080, Note_on_c, 0, 68, 79
2, 10308, Note_on_c, 0, 68, 0
2, 10308, Note_on_c, 0, 80, 0
2, 10320, Note_on_c, 0, 71, 79
2, 10548, Note_on_c, 0, 71, 0
2, 10560, Note_on_c, 0, 68, 79
2, 10560, Note_on_c, 0, 80, 79
2, 10788, Note_on_c, 0, 80, 0
2, 10788, Note_on_c, 0, 68, 0
2, 10800, Note_on_c, 0, 83, 79
2, 10800, Note_on_c, 0, 71, 79
2, 11142, Note_on_c, 0, 71, 0
2, 11142, Note_on_c, 0, 83, 0
2, 11160, Note_on_c, 0, 78, 79
2, 11274, Note_on_c, 0, 78, 0
2, 11280, Note_on_c, 0, 69, 79
2, 11280, Note_on_c, 0, 81, 79
2, 11508, Note_on_c, 0, 81, 0
2, 11508, Note_on_c, 0, 69, 0
2, 11520, Note_on_c, 0, 80, 79
2, 11520, Note_on_c, 0, 68, 79
2, 11862, Note_on_c, 0, 68, 0
2, 11862, Note_on_c, 0, 80, 0
2, 11880, Note_on_c, 0, 78, 79
2, 11880, Note_on_c, 0, 66, 79
2, 11994, Note_on_c, 0, 66, 0
2, 11994, Note_on_c, 0, 78, 0
2, 12000, Note_on_c, 0, 76, 79
2, 12000, Note_on_c, 0, 64, 79
2, 12114, Note_on_c, 0, 64, 0
2, 12114, Note_on_c, 0, 76, 0
2, 12120, Note_on_c, 0, 83, 79
2, 12234, Note_on_c, 0, 83, 0
2, 12240, Note_on_c, 0, 87, 79
2, 12240, Note_on_c, 0, 75, 79
2, 12468, Note_on_c, 0, 75, 0
2, 12468, Note_on_c, 0, 87, 0
2, 12480, Note_on_c, 0, 85, 79
2, 12480, Note_on_c, 0, 73, 79
2, 12594, Note_on_c, 0, 73, 0
2, 12594, Note_on_c, 0, 85, 0
2, 12600, Note_on_c, 0, 87, 79
2, 12600, Note_on_c, 0, 75, 79
2, 12714, Note_on_c, 0, 75, 0
2, 12714, Note_on_c, 0, 87, 0
2, 12720, Note_on_c, 0, 73, 79
2, 12720, Note_on_c, 0, 85, 79
2, 12948, Note_on_c, 0, 85, 0
2, 12948, Note_on_c, 0, 73, 0
2, 12960, Note_on_c, 0, 83, 79
2, 12960, Note_on_c, 0, 71, 79
2, 13302, Note_on_c, 0, 71, 0
2, 13302, Note_on_c, 0, 83, 0
2, 13320, Note_on_c, 0, 81, 79
2, 13320, Note_on_c, 0, 69, 79
2, 13434, Note_on_c, 0, 69, 0
2, 13434, Note_on_c, 0, 81, 0
2, 13440, Note_on_c, 0, 80, 79
2, 13440, Note_on_c, 0, 68, 79
2, 13554, Note_on_c, 0, 68, 0
2, 13554, Note_on_c, 0, 80, 0
2, 13560, Note_on_c, 0, 71, 79
2, 13560, Note_on_c, 0, 83, 79
2, 13674, Note_on_c, 0, 83, 0
2, 13674, Note_on_c, 0, 71, 0
2, 13680, Note_on_c, 0, 87, 79
2, 13680, Note_on_c, 0, 75, 79
2, 13908, Note_on_c, 0, 75, 0
2, 13908, Note_on_c, 0, 87, 0
2, 13920, Note_on_c, 0, 85, 79
2, 13920, Note_on_c, 0, 73, 79
2, 14034, Note_on_c, 0, 73, 0
2, 14034, Note_on_c, 0, 85, 0
2, 14040, Note_on_c, 0, 87, 79
2, 14040, Note_on_c, 0, 75, 79
2, 14154, Note_on_c, 0, 75, 0
2, 14154, Note_on_c, 0, 87, 0
2, 14160, Note_on_c, 0, 73, 79
2, 14160, Note_on_c, 0, 85, 79
2, 14388, Note_on_c, 0, 85, 0
2, 14388, Note_on_c, 0, 73, 0
2, 14400, Note_on_c, 0, 83, 79
2, 14400, Note_on_c, 0, 71, 79
2, 14742, Note_on_c, 0, 71, 0
2, 14742, Note_on_c, 0, 83, 0
2, 14760, Note_on_c, 0, 81, 79
2, 14760, Note_on_c, 0, 69, 79
2, 14874, Note_on_c, 0, 69, 0
2, 14874, Note_on_c, 0, 81, 0
2, 14880, Note_on_c, 0, 80, 79
2, 14880, Note_on_c, 0, 68, 79
2, 14994, Note_on_c, 0, 68, 0
2, 14994, Note_on_c, 0, 80, 0
2, 15000, Note_on_c, 0, 71, 79
2, 15000, Note_on_c, 0, 83, 79
2, 15114, Note_on_c, 0, 83, 0
2, 15114, Note_on_c, 0, 71, 0
2, 15120, Note_on_c, 0, 85, 79
2, 15120, Note_on_c, 0, 73, 79
2, 15348, Note_on_c, 0, 73, 0
2, 15348, Note_on_c, 0, 85, 0
2, 15360, Note_on_c, 0, 83, 79
2, 15360, Note_on_c, 0, 71, 79
2, 15474, Note_on_c, 0, 71, 0
2, 15474, Note_on_c, 0, 83, 0
2, 15480, Note_on_c, 0, 85, 79
2, 15480, Note_on_c, 0, 73, 79
2, 15594, Note_on_c, 0, 73, 0
2, 15594, Note_on_c, 0, 85, 0
2, 15600, Note_on_c, 0, 71, 79
2, 15600, Note_on_c, 0, 83, 79
2, 15828, Note_on_c, 0, 83, 0
2, 15828, Note_on_c, 0, 71, 0
2, 15840, Note_on_c, 0, 81, 79
2, 15840, Note_on_c, 0, 69, 79
2, 16068, Note_on_c, 0, 69, 0
2, 16068, Note_on_c, 0, 81, 0
2, 16080, Note_on_c, 0, 80, 79
2, 16080, Note_on_c, 0, 68, 79
2, 16194, Note_on_c, 0, 68, 0
2, 16194, Note_on_c, 0, 80, 0
2, 16200, Note_on_c, 0, 81, 79
2, 16200, Note_on_c, 0, 69, 79
2, 16314, Note_on_c, 0, 69, 0
2, 16314, Note_on_c, 0, 81, 0
2, 16320, Note_on_c, 0, 68, 79
2, 16320, Note_on_c, 0, 80, 79
2, 16548, Note_on_c, 0, 80, 0
2, 16548, Note_on_c, 0, 68, 0
2, 16560, Note_on_c, 0, 80, 79
2, 16560, Note_on_c, 0, 68, 79
2, 16674, Note_on_c, 0, 68, 0
2, 16674, Note_on_c, 0, 80, 0
2, 16680, Note_on_c, 0, 78, 79
2, 16680, Note_on_c, 0, 66, 79
2, 16794, Note_on_c, 0, 66, 0
2, 16794, Note_on_c, 0, 78, 0
2, 16800, Note_on_c, 0, 76, 79
2, 16800, Note_on_c, 0, 64, 79
2, 17142, Note_on_c, 0, 64, 0
2, 17142, Note_on_c, 0, 76, 0
2, 17160, Note_on_c, 0, 63, 79
2, 17160, Note_on_c, 0, 75, 79
2, 17274, Note_on_c, 0, 75, 0
2, 17274, Note_on_c, 0, 63, 0
2, 17280, Note_on_c, 0, 75, 79
2, 17280, Note_on_c, 0, 63, 79
2, 17508, Note_on_c, 0, 63, 0
2, 17508, Note_on_c, 0, 75, 0
2, 17520, Note_on_c, 0, 73, 79
2, 17520, Note_on_c, 0, 61, 79
2, 17748, Note_on_c, 0, 61, 0
2, 17748, Note_on_c, 0, 73, 0
2, 17760, Note_on_c, 0, 76, 79
2, 17760, Note_on_c, 0, 88, 79
2, 17988, Note_on_c, 0, 88, 0
2, 17988, Note_on_c, 0, 76, 0
2, 18000, Note_on_c, 0, 87, 79
2, 18000, Note_on_c, 0, 75, 79
2, 18228, Note_on_c, 0, 75, 0
2, 18228, Note_on_c, 0, 87, 0
2, 18240, Note_on_c, 0, 85, 79
2, 18240, Note_on_c, 0, 73, 79
2, 18354, Note_on_c, 0, 73, 0
2, 18354, Note_on_c, 0, 85, 0
2, 18360, Note_on_c, 0, 87, 79
2, 18360, Note_on_c, 0, 75, 79
2, 18474, Note_on_c, 0, 75, 0
2, 18474, Note_on_c, 0, 87, 0
2, 18480, Note_on_c, 0, 73, 79
2, 18480, Note_on_c, 0, 85, 79
2, 18708, Note_on_c, 0, 85, 0
2, 18708, Note_on_c, 0, 73, 0
2, 18720, Note_on_c, 0, 83, 79
2, 18720, Note_on_c, 0, 71, 79
2, 19062, Note_on_c, 0, 71, 0
2, 19062, Note_on_c, 0, 83, 0
2, 19080, Note_on_c, 0, 81, 79
2, 19080, Note_on_c, 0, 69, 79
2, 19194, Note_on_c, 0, 69, 0
2, 19194, Note_on_c, 0, 81, 0
2, 19200, Note_on_c, 0, 80, 79
2, 19200, Note_on_c, 0, 68, 79
2, 19314, Note_on_c, 0, 68, 0
2, 19314, Note_on_c, 0, 80, 0
2, 19320, Note_on_c, 0, 71, 79
2, 19320, Note_on_c, 0, 83, 79
2, 19434, Note_on_c, 0, 83, 0
2, 19434, Note_on_c, 0, 71, 0
2, 19440, Note_on_c, 0, 87, 79
2, 19440, Note_on_c, 0, 75, 79
2, 19668, Note_on_c, 0, 75, 0
2, 19668, Note_on_c, 0, 87, 0
2, 19680, Note_on_c, 0, 85, 79
2, 19680, Note_on_c, 0, 73, 79
2, 19794, Note_on_c, 0, 73, 0
2, 19794, Note_on_c, 0, 85, 0
2, 19800, Note_on_c, 0, 87, 79
2, 19800, Note_on_c, 0, 75, 79
2, 19914, Note_on_c, 0, 75, 0
2, 19914, Note_on_c, 0, 87, 0
2, 19920, Note_on_c, 0, 73, 79
2, 19920, Note_on_c, 0, 85, 79
2, 20148, Note_on_c, 0, 85, 0
2, 20148, Note_on_c, 0, 73, 0
2, 20160, Note_on_c, 0, 83, 79
2, 20160, Note_on_c, 0, 71, 79
2, 20502, Note_on_c, 0, 71, 0
2, 20502, Note_on_c, 0, 83, 0
2, 20520, Note_on_c, 0, 81, 79
2, 20520, Note_on_c, 0, 69, 79
2, 20634, Note_on_c, 0, 69, 0
2, 20634, Note_on_c, 0, 81, 0
2, 20640, Note_on_c, 0, 80, 79
2, 20640, Note_on_c, 0, 68, 79
2, 20754, Note_on_c, 0, 68, 0
2, 20754, Note_on_c, 0, 80, 0
2, 20760, Note_on_c, 0, 71, 79
2, 20760, Note_on_c, 0, 83, 79
2, 20874, Note_on_c, 0, 83, 0
2, 20874, Note_on_c, 0, 71, 0
2, 20880, Note_on_c, 0, 85, 79
2, 20880, Note_on_c, 0, 73, 79
2, 21108, Note_on_c, 0, 73, 0
2, 21108, Note_on_c, 0, 85, 0
2, 21120, Note_on_c, 0, 83, 79
2, 21120, Note_on_c, 0, 71, 79
2, 21234, Note_on_c, 0, 71, 0
2, 21234, Note_on_c, 0, 83, 0
2, 21240, Note_on_c, 0, 85, 79
2, 21240, Note_on_c, 0, 73, 79
2, 21354, Note_on_c, 0, 73, 0
2, 21354, Note_on_c, 0, 85, 0
2, 21360, Note_on_c, 0, 71, 79
2, 21360, Note_on_c, 0, 83, 79
2, 21588, Note_on_c, 0, 83, 0
2, 21588, Note_on_c, 0, 71, 0
2, 21600, Note_on_c, 0, 81, 79
2, 21600, Note_on_c, 0, 69, 79
2, 21828, Note_on_c, 0, 69, 0
2, 21828, Note_on_c, 0, 81, 0
2, 21840, Note_on_c, 0, 80, 79
2, 21840, Note_on_c, 0, 68, 79
2, 21954, Note_on_c, 0, 68, 0
2, 21954, Note_on_c, 0, 80, 0
2, 21960, Note_on_c, 0, 81, 79
2, 21960, Note_on_c, 0, 69, 79
2, 22074, Note_on_c, 0, 69, 0
2, 22074, Note_on_c, 0, 81, 0
2, 22080, Note_on_c, 0, 68, 79
2, 22080, Note_on_c, 0, 80, 79
2, 22308, Note_on_c, 0, 80, 0
2, 22308, Note_on_c, 0, 68, 0
2, 22320, Note_on_c, 0, 80, 79
2, 22320, Note_on_c, 0, 68, 79
2, 22434, Note_on_c, 0, 68, 0
2, 22434, Note_on_c, 0, 80, 0
2, 22440, Note_on_c, 0, 78, 79
2, 22440, Note_on_c, 0, 66, 79
2, 22554, Note_on_c, 0, 66, 0
2, 22554, Note_on_c, 0, 78, 0
2, 22560, Note_on_c, 0, 76, 79
2, 22560, Note_on_c, 0, 64, 79
2, 22902, Note_on_c, 0, 64, 0
2, 22902, Note_on_c, 0, 76, 0
2, 22920, Note_on_c, 0, 63, 79
2, 22920, Note_on_c, 0, 75, 79
2, 23034, Note_on_c, 0, 75, 0
2, 23034, Note_on_c, 0, 63, 0
2, 23040, Note_on_c, 0, 75, 79
2, 23040, Note_on_c, 0, 63, 79
2, 23268, Note_on_c, 0, 63, 0
2, 23268, Note_on_c, 0, 75, 0
2, 23280, Note_on_c, 0, 73, 79
2, 23280, Note_on_c, 0, 61, 79
2, 23508, Note_on_c, 0, 61, 0
2, 23508, Note_on_c, 0, 73, 0
2, 23508, End_track
3, 0, Start_track
3, 0, Title_t, "Waltz No-16"
3, 0, Program_c, 0, 0
3, 0, Control_c, 0, 7, 110
3, 0, Control_c, 0, 10, 48
3, 720, Note_on_c, 0, 36, 69
3, 736, Control_c, 0, 64, 0
3, 746, Control_c, 0, 64, 127
3, 902, Note_on_c, 0, 36, 0
3, 960, Note_on_c, 0, 44, 69
3, 1080, Control_c, 0, 64, 0
3, 1090, Control_c, 0, 64, 0
3, 1142, Note_on_c, 0, 44, 0
3, 1200, Note_on_c, 0, 48, 69
3, 1382, Note_on_c, 0, 48, 0
3, 1440, Note_on_c, 0, 49, 69
3, 1453, Control_c, 0, 64, 0
3, 1462, Control_c, 0, 64, 127
3, 1622, Note_on_c, 0, 49, 0
3, 1680, Note_on_c, 0, 40, 69
3, 1788, Control_c, 0, 64, 0
3, 1862, Note_on_c, 0, 40, 0
3, 1920, Note_on_c, 0, 37, 69
3, 2102, Note_on_c, 0, 37, 0
3, 2160, Note_on_c, 0, 36, 69
3, 2172, Control_c, 0, 64, 127
3, 2342, Note_on_c, 0, 36, 0
3, 2400, Note_on_c, 0, 44, 69
3, 2523, Control_c, 0, 64, 0
3, 2582, Note_on_c, 0, 44, 0
3, 2640, Note_on_c, 0, 48, 69
3, 2822, Note_on_c, 0, 48, 0
3, 2880, Note_on_c, 0, 49, 69
3, 2904, Control_c, 0, 64, 127
3, 3062, Note_on_c, 0, 49, 0
3, 3120, Note_on_c, 0, 40, 69
3, 3230, Control_c, 0, 64, 0
3, 3302, Note_on_c, 0, 40, 0
3, 3360, Note_on_c, 0, 37, 69
3, 3542, Note_on_c, 0, 37, 0
3, 3600, Note_on_c, 0, 48, 69
3, 3624, Control_c, 0, 64, 127
3, 3782, Note_on_c, 0, 48, 0
3, 3840, Note_on_c, 0, 40, 69
3, 4022, Note_on_c, 0, 40, 0
3, 4080, Note_on_c, 0, 36, 69
3, 4086, Control_c, 0, 64, 0
3, 4095, Control_c, 0, 64, 0
3, 4262, Note_on_c, 0, 36, 0
3, 4318, Control_c, 0, 64, 0
3, 4320, Note_on_c, 0, 47, 69
3, 4344, Control_c, 0, 64, 127
3, 4502, Note_on_c, 0, 47, 0
3, 4560, Note_on_c, 0, 40, 69
3, 4742, Note_on_c, 0, 40, 0
3, 4800, Note_on_c, 0, 35, 69
3, 4811, Control_c, 0, 64, 0
3, 4982, Note_on_c, 0, 35, 0
3, 5040, Note_on_c, 0, 47, 69
3, 5064, Control_c, 0, 64, 127
3, 5222, Note_on_c, 0, 47, 0
3, 5280, Note_on_c, 0, 42, 69
3, 5462, Note_on_c, 0, 42, 0
3, 5509, Control_c, 0, 64, 0
3, 5518, Control_c, 0, 64, 0
3, 5520, Note_on_c, 0, 35, 69
3, 5702, Note_on_c, 0, 35, 0
3, 5760, Note_on_c, 0, 40, 69
3, 5784, Control_c, 0, 64, 127
3, 5942, Note_on_c, 0, 40, 0
3, 6000, Note_on_c, 0, 47, 69
3, 6182, Note_on_c, 0, 47, 0
3, 6192, Control_c, 0, 64, 0
3, 6235, Control_c, 0, 64, 0
3, 6240, Note_on_c, 0, 52, 69
3, 6410, Pitch_bend_c, 0, 8030
3, 6412, Pitch_bend_c, 0, 8111
3, 6422, Note_on_c, 0, 52, 0
3, 6480, Note_on_c, 0, 48, 69
3, 6480, Note_on_c, 0, 51, 69
3, 6480, Note_on_c, 0, 56, 69
3, 6486, Control_c, 0, 64, 0
3, 6516, Control_c, 0, 64, 127
3, 6662, Note_on_c, 0, 56, 0
3, 6662, Note_on_c, 0, 51, 0
3, 6662, Note_on_c, 0, 48, 0
3, 6720, Note_on_c, 0, 57, 69
3, 6811, Note_on_c, 0, 57, 0
3, 6840, Note_on_c, 0, 56, 69
3, 6924, Control_c, 0, 64, 0
3, 6931, Note_on_c, 0, 56, 0
3, 6960, Note_on_c, 0, 57, 69
3, 6960, Note_on_c, 0, 54, 69
3, 6960, Note_on_c, 0, 48, 69
3, 6970, Control_c, 0, 64, 0
3, 6979, Control_c, 0, 64, 0
3, 7142, Note_on_c, 0, 48, 0
3, 7142, Note_on_c, 0, 54, 0
3, 7142, Note_on_c, 0, 57, 0
3, 7200, Note_on_c, 0, 49, 69
3, 7200, Note_on_c, 0, 52, 69
3, 7200, Note_on_c, 0, 56, 69
3, 7236, Control_c, 0, 64, 127
3, 7382, Note_on_c, 0, 52, 0
3, 7382, Note_on_c, 0, 49, 0
3, 7473, Note_on_c, 0, 56, 0
3, 7560, Note_on_c, 0, 54, 69
3, 7651, Note_on_c, 0, 54, 0
3, 7680, Note_on_c, 0, 49, 69
3, 7680, Note_on_c, 0, 52, 69
3, 7686, Control_c, 0, 64, 0
3, 7771, Note_on_c, 0, 52, 0
3, 7800, Note_on_c, 0, 54, 69
3, 7862, Note_on_c, 0, 49, 0
3, 7891, Note_on_c, 0, 54, 0
3, 7920, Note_on_c, 0, 48, 69
3, 7920, Note_on_c, 0, 51, 69
3, 7920, Note_on_c, 0, 56, 69
3, 7946, Control_c, 0, 64, 127
3, 8102, Note_on_c, 0, 56, 0
3, 8102, Note_on_c, 0, 51, 0
3, 8102, Note_on_c, 0, 48, 0
3, 8160, Note_on_c, 0, 57, 69
3, 8251, Note_on_c, 0, 57, 0
3, 8280, Note_on_c, 0, 56, 69
3, 8371, Note_on_c, 0, 56, 0
3, 8400, Note_on_c, 0, 57, 69
3, 8400, Note_on_c, 0, 54, 69
3, 8400, Note_on_c, 0, 48, 69
3, 8402, Control_c, 0, 64, 0
3, 8411, Control_c, 0, 64, 0
3, 8582, Note_on_c, 0, 48, 0
3, 8582, Note_on_c, 0, 54, 0
3, 8582, Note_on_c, 0, 57, 0
3, 8640, Note_on_c, 0, 49, 69
3, 8640, Note_on_c, 0, 52, 69
3, 8640, Note_on_c, 0, 56, 69
3, 8681, Control_c, 0, 64, 127
3, 8822, Note_on_c, 0, 52, 0
3, 8822, Note_on_c, 0, 49, 0
3, 8913, Note_on_c, 0, 56, 0
3, 9000, Note_on_c, 0, 54, 69
3, 9091, Note_on_c, 0, 54, 0
3, 9119, Control_c, 0, 64, 0
3, 9120, Note_on_c, 0, 49, 69
3, 9120, Note_on_c, 0, 52, 69
3, 9211, Note_on_c, 0, 52, 0
3, 9240, Note_on_c, 0, 54, 69
3, 9302, Note_on_c, 0, 49, 0
3, 9331, Note_on_c, 0, 54, 0
3, 9360, Note_on_c, 0, 48, 69
3, 9360, Note_on_c, 0, 52, 69
3, 9360, Note_on_c, 0, 56, 69
3, 9370, Control_c, 0, 64, 0
3, 9379, Control_c, 0, 64, 127
3, 9542, Note_on_c, 0, 56, 0
3, 9542, Note_on_c, 0, 52, 0
3, 9542, Note_on_c, 0, 48, 0
3, 9593, Control_c, 0, 64, 0
3, 9600, Note_on_c, 0, 57, 69
3, 9691, Note_on_c, 0, 57, 0
3, 9720, Note_on_c, 0, 56, 69
3, 9811, Note_on_c, 0, 56, 0
3, 9840, Note_on_c, 0, 57, 69
3, 9840, Note_on_c, 0, 52, 69
3, 9840, Note_on_c, 0, 48, 69
3, 10022, Note_on_c, 0, 48, 0
3, 10022, Note_on_c, 0, 52, 0
3, 10022, Note_on_c, 0, 57, 0
3, 10080, Note_on_c, 0, 47, 69
3, 10080, Note_on_c, 0, 52, 69
3, 10080, Note_on_c, 0, 59, 69
3, 10086, Control_c, 0, 64, 127
3, 10262, Note_on_c, 0, 59, 0
3, 10262, Note_on_c, 0, 52, 0
3, 10262, Note_on_c, 0, 47, 0
3, 10300, Control_c, 0, 64, 0
3, 10309, Control_c, 0, 64, 0
3, 10320, Note_on_c, 0, 61, 69
3, 10411, Note_on_c, 0, 61, 0
3, 10440, Note_on_c, 0, 59, 69
3, 10531, Note_on_c, 0, 59, 0
3, 10560, Note_on_c, 0, 61, 69
3, 10560, Note_on_c, 0, 52, 69
3, 10560, Note_on_c, 0, 47, 69
3, 10742, Note_on_c, 0, 47, 0
3, 10742, Note_on_c, 0, 52, 0
3, 10742, Note_on_c, 0, 61, 0
3, 10800, Note_on_c, 0, 47, 69
3, 10800, Note_on_c, 0, 54, 69
3, 10800, Note_on_c, 0, 63, 69
3, 10824, Control_c, 0, 64, 127
3, 10982, Note_on_c, 0, 63, 0
3, 10982, Note_on_c, 0, 54, 0
3, 10982, Note_on_c, 0, 47, 0
3, 11040, Note_on_c, 0, 61, 69
3, 11131, Note_on_c, 0, 61, 0
3, 11160, Note_on_c, 0, 63, 69
3, 11251, Note_on_c, 0, 63, 0
3, 11280, Note_on_c, 0, 61, 69
3, 11280, Note_on_c, 0, 54, 69
3, 11280, Note_on_c, 0, 51, 69
3, 11280, Note_on_c, 0, 47, 69
3, 11462, Note_on_c, 0, 47, 0
3, 11462, Note_on_c, 0, 61, 0
3, 11462, Note_on_c, 0, 54, 0
3, 11462, Note_on_c, 0, 51, 0
3, 11472, Control_c, 0, 64, 0
3, 11482, Control_c, 0, 64, 0
3, 11499, Pitch_bend_c, 0, 8030
3, 11501, Pitch_bend_c, 0, 8111
3, 11520, Note_on_c, 0, 52, 69
3, 11520, Note_on_c, 0, 56, 69
3, 11520, Note_on_c, 0, 59, 69
3, 11547, Control_c, 0, 64, 0
3, 11556, Control_c, 0, 64, 127
3, 11702, Note_on_c, 0, 59, 0
3, 11702, Note_on_c, 0, 56, 0
3, 11702, Note_on_c, 0, 52, 0
3, 11760, Note_on_c, 0, 57, 69
3, 11942, Note_on_c, 0, 57, 0
3, 11993, Control_c, 0, 64, 0
3, 12000, Note_on_c, 0, 56, 69
3, 12000, Note_on_c, 0, 52, 69
3, 12003, Control_c, 0, 64, 0
3, 12182, Note_on_c, 0, 52, 0
3, 12182, Note_on_c, 0, 56, 0
3, 12240, Note_on_c, 0, 47, 69
3, 12240, Note_on_c, 0, 54, 69
3, 12240, Note_on_c, 0, 59, 69
3, 12245, Control_c, 0, 64, 0
3, 12254, Control_c, 0, 64, 127
3, 12422, Note_on_c, 0, 54, 0
3, 12422, Note_on_c, 0, 47, 0
3, 12513, Note_on_c, 0, 59, 0
3, 12600, Note_on_c, 0, 54, 69
3, 12691, Note_on_c, 0, 54, 0
3, 12720, Note_on_c, 0, 57, 69
3, 12720, Note_on_c, 0, 51, 69
3, 12720, Note_on_c, 0, 47, 69
3, 12728, Control_c, 0, 64, 0
3, 12793, Control_c, 0, 64, 0
3, 12803, Control_c, 0, 64, 127
3, 12902, Note_on_c, 0, 47, 0
3, 12902, Note_on_c, 0, 51, 0
3, 12902, Note_on_c, 0, 57, 0
3, 12960, Note_on_c, 0, 40, 69
3, 12960, Note_on_c, 0, 47, 69
3, 12960, Note_on_c, 0, 56, 69
3, 12960, Control_c, 0, 64, 0
3, 12970, Control_c, 0, 64, 0
3, 13035, Control_c, 0, 64, 127
3, 13142, Note_on_c, 0, 56, 0
3, 13142, Note_on_c, 0, 47, 0
3, 13142, Note_on_c, 0, 40, 0
3, 13200, Note_on_c, 0, 47, 69
3, 13200, Note_on_c, 0, 54, 69
3, 13382, Note_on_c, 0, 54, 0
3, 13382, Note_on_c, 0, 47, 0
3, 13435, Control_c, 0, 64, 0
3, 13440, Note_on_c, 0, 52, 69
3, 13444, Control_c, 0, 64, 0
3, 13560, Note_on_c, 0, 56, 69
3, 13622, Note_on_c, 0, 52, 0
3, 13651, Note_on_c, 0, 56, 0
3, 13677, Control_c, 0, 64, 0
3, 13680, Note_on_c, 0, 47, 69
3, 13680, Note_on_c, 0, 54, 69
3, 13680, Note_on_c, 0, 59, 69
3, 13704, Control_c, 0, 64, 127
3, 13862, Note_on_c, 0, 54, 0
3, 13862, Note_on_c, 0, 47, 0
3, 13953, Note_on_c, 0, 59, 0
3, 14040, Note_on_c, 0, 54, 69
3, 14131, Note_on_c, 0, 54, 0
3, 14160, Note_on_c, 0, 57, 69
3, 14160, Note_on_c, 0, 51, 69
3, 14160, Note_on_c, 0, 47, 69
3, 14160, Control_c, 0, 64, 0
3, 14235, Control_c, 0, 64, 127
3, 14342, Note_on_c, 0, 47, 0
3, 14342, Note_on_c, 0, 51, 0
3, 14342, Note_on_c, 0, 57, 0
3, 14393, Control_c, 0, 64, 0
3, 14400, Note_on_c, 0, 40, 69
3, 14400, Note_on_c, 0, 47, 69
3, 14400, Note_on_c, 0, 56, 69
3, 14468, Control_c, 0, 64, 0
3, 14477, Control_c, 0, 64, 127
3, 14582, Note_on_c, 0, 56, 0
3, 14582, Note_on_c, 0, 47, 0
3, 14582, Note_on_c, 0, 40, 0
3, 14640, Note_on_c, 0, 47, 69
3, 14640, Note_on_c, 0, 54, 69
3, 14822, Note_on_c, 0, 54, 0
3, 14822, Note_on_c, 0, 47, 0
3, 14877, Control_c, 0, 64, 0
3, 14880, Note_on_c, 0, 52, 69
3, 14886, Control_c, 0, 64, 0
3, 15000, Note_on_c, 0, 56, 69
3, 15062, Note_on_c, 0, 52, 0
3, 15091, Note_on_c, 0, 56, 0
3, 15120, Note_on_c, 0, 45, 69
3, 15120, Note_on_c, 0, 52, 69
3, 15120, Note_on_c, 0, 57, 69
3, 15144, Control_c, 0, 64, 127
3, 15302, Note_on_c, 0, 52, 0
3, 15302, Note_on_c, 0, 45, 0
3, 15393, Note_on_c, 0, 57, 0
3, 15480, Note_on_c, 0, 52, 69
3, 15571, Note_on_c, 0, 52, 0
3, 15575, Control_c, 0, 64, 0
3, 15584, Control_c, 0, 64, 0
3, 15600, Note_on_c, 0, 56, 69
3, 15600, Note_on_c, 0, 47, 69
3, 15600, Note_on_c, 0, 40, 69
3, 15782, Note_on_c, 0, 40, 0
3, 15782, Note_on_c, 0, 47, 0
3, 15782, Note_on_c, 0, 56, 0
3, 15835, Control_c, 0, 64, 0
3, 15840, Note_on_c, 0, 42, 69
3, 15840, Note_on_c, 0, 49, 69
3, 15840, Note_on_c, 0, 54, 69
3, 15864, Control_c, 0, 64, 127
3, 16022, Note_on_c, 0, 49, 0
3, 16022, Note_on_c, 0, 42, 0
3, 16113, Note_on_c, 0, 54, 0
3, 16200, Note_on_c, 0, 49, 69
3, 16291, Note_on_c, 0, 49, 0
3, 16310, Control_c, 0, 64, 0
3, 16319, Control_c, 0, 64, 0
3, 16320, Note_on_c, 0, 52, 69
3, 16320, Note_on_c, 0, 44, 69
3, 16320, Note_on_c, 0, 37, 69
3, 16502, Note_on_c, 0, 37, 0
3, 16502, Note_on_c, 0, 44, 0
3, 16502, Note_on_c, 0, 52, 0
3, 16560, Note_on_c, 0, 40, 69
3, 16560, Note_on_c, 0, 47, 69
3, 16584, Control_c, 0, 64, 127
3, 16742, Note_on_c, 0, 47, 0
3, 16742, Note_on_c, 0, 40, 0
3, 16794, Control_c, 0, 64, 0
3, 16800, Note_on_c, 0, 44, 69
3, 16800, Note_on_c, 0, 52, 69
3, 16800, Note_on_c, 0, 59, 69
3, 16803, Control_c, 0, 64, 0
3, 16868, Control_c, 0, 64, 127
3, 16982, Note_on_c, 0, 59, 0
3, 16982, Note_on_c, 0, 52, 0
3, 16982, Note_on_c, 0, 44, 0
3, 17017, Control_c, 0, 64, 0
3, 17026, Control_c, 0, 64, 0
3, 17040, Note_on_c, 0, 60, 69
3, 17040, Note_on_c, 0, 54, 69
3, 17040, Note_on_c, 0, 44, 69
3, 17222, Note_on_c, 0, 44, 0
3, 17222, Note_on_c, 0, 54, 0
3, 17222, Note_on_c, 0, 60, 0
3, 17280, Note_on_c, 0, 49, 69
3, 17280, Note_on_c, 0, 54, 69
3, 17280, Note_on_c, 0, 60, 69
3, 17296, Control_c, 0, 64, 127
3, 17462, Note_on_c, 0, 60, 0
3, 17462, Note_on_c, 0, 54, 0
3, 17520, Note_on_c, 0, 52, 69
3, 17520, Note_on_c, 0, 61, 69
3, 17528, Control_c, 0, 64, 0
3, 17538, Control_c, 0, 64, 0
3, 17644, Note_on_c, 0, 49, 0
3, 17702, Note_on_c, 0, 61, 0
3, 17702, Note_on_c, 0, 52, 0
3, 17760, Note_on_c, 0, 56, 69
3, 17942, Note_on_c, 0, 56, 0
3, 18000, Note_on_c, 0, 47, 69
3, 18000, Note_on_c, 0, 54, 69
3, 18000, Note_on_c, 0, 59, 69
3, 18003, Control_c, 0, 64, 0
3, 18012, Control_c, 0, 64, 127
3, 18182, Note_on_c, 0, 54, 0
3, 18182, Note_on_c, 0, 47, 0
3, 18273, Note_on_c, 0, 59, 0
3, 18360, Note_on_c, 0, 54, 69
3, 18451, Note_on_c, 0, 54, 0
3, 18480, Note_on_c, 0, 57, 69
3, 18480, Note_on_c, 0, 51, 69
3, 18480, Note_on_c, 0, 47, 69
3, 18487, Control_c, 0, 64, 0
3, 18561, Control_c, 0, 64, 127
3, 18662, Note_on_c, 0, 47, 0
3, 18662, Note_on_c, 0, 51, 0
3, 18662, Note_on_c, 0, 57, 0
3, 18691, Control_c, 0, 64, 0
3, 18701, Control_c, 0, 64, 0
3, 18720, Note_on_c, 0, 40, 69
3, 18720, Note_on_c, 0, 47, 69
3, 18720, Note_on_c, 0, 56, 69
3, 18766, Control_c, 0, 64, 0
3, 18775, Control_c, 0, 64, 127
3, 18902, Note_on_c, 0, 56, 0
3, 18902, Note_on_c, 0, 47, 0
3, 18902, Note_on_c, 0, 40, 0
3, 18941, Pitch_bend_c, 0, 8030
3, 18943, Pitch_bend_c, 0, 8111
3, 18960, Note_on_c, 0, 47, 69
3, 18960, Note_on_c, 0, 54, 69
3, 19142, Note_on_c, 0, 54, 0
3, 19142, Note_on_c, 0, 47, 0
3, 19200, Note_on_c, 0, 52, 69
3, 19203, Control_c, 0, 64, 0
3, 19320, Note_on_c, 0, 56, 69
3, 19382, Note_on_c, 0, 52, 0
3, 19411, Note_on_c, 0, 56, 0
3, 19440, Note_on_c, 0, 47, 69
3, 19440, Note_on_c, 0, 54, 69
3, 19440, Note_on_c, 0, 59, 69
3, 19519, Control_c, 0, 64, 127
3, 19622, Note_on_c, 0, 54, 0
3, 19622, Note_on_c, 0, 47, 0
3, 19713, Note_on_c, 0, 59, 0
3, 19800, Note_on_c, 0, 54, 69
3, 19891, Note_on_c, 0, 54, 0
3, 19919, Control_c, 0, 64, 0
3, 19920, Note_on_c, 0, 57, 69
3, 19920, Note_on_c, 0, 51, 69
3, 19920, Note_on_c, 0, 47, 69
3, 20003, Control_c, 0, 64, 127
3, 20102, Note_on_c, 0, 47, 0
3, 20102, Note_on_c, 0, 51, 0
3, 20102, Note_on_c, 0, 57, 0
3, 20143, Control_c, 0, 64, 0
3, 20152, Control_c, 0, 64, 0
3, 20160, Note_on_c, 0, 40, 69
3, 20160, Note_on_c, 0, 47, 69
3, 20160, Note_on_c, 0, 56, 69
3, 20208, Control_c, 0, 64, 127
3, 20342, Note_on_c, 0, 56, 0
3, 20342, Note_on_c, 0, 47, 0
3, 20342, Note_on_c, 0, 40, 0
3, 20400, Note_on_c, 0, 47, 69
3, 20400, Note_on_c, 0, 54, 69
3, 20582, Note_on_c, 0, 54, 0
3, 20582, Note_on_c, 0, 47, 0
3, 20626, Control_c, 0, 64, 0
3, 20636, Control_c, 0, 64, 0
3, 20640, Note_on_c, 0, 52, 69
3, 20760, Note_on_c, 0, 56, 69
3, 20822, Note_on_c, 0, 52, 0
3, 20851, Note_on_c, 0, 56, 0
3, 20880, Note_on_c, 0, 45, 69
3, 20880, Note_on_c, 0, 52, 69
3, 20880, Note_on_c, 0, 57, 69
3, 20904, Control_c, 0, 64, 127
3, 21062, Note_on_c, 0, 52, 0
3, 21062, Note_on_c, 0, 45, 0
3, 21153, Note_on_c, 0, 57, 0
3, 21240, Note_on_c, 0, 52, 69
3, 21331, Note_on_c, 0, 52, 0
3, 21360, Note_on_c, 0, 56, 69
3, 21360, Note_on_c, 0, 47, 69
3, 21360, Note_on_c, 0, 40, 69
3, 21361, Control_c, 0, 64, 0
3, 21371, Control_c, 0, 64, 0
3, 21542, Note_on_c, 0, 40, 0
3, 21542, Note_on_c, 0, 47, 0
3, 21542, Note_on_c, 0, 56, 0
3, 21600, Note_on_c, 0, 42, 69
3, 21600, Note_on_c, 0, 49, 69
3, 21600, Note_on_c, 0, 54, 69
3, 21624, Control_c, 0, 64, 127
3, 21782, Note_on_c, 0, 49, 0
3, 21782, Note_on_c, 0, 42, 0
3, 21873, Note_on_c, 0, 54, 0
3, 21960, Note_on_c, 0, 49, 69
3, 22051, Note_on_c, 0, 49, 0
3, 22068, Control_c, 0, 64, 0
3, 22078, Control_c, 0, 64, 0
3, 22080, Note_on_c, 0, 52, 69
3, 22080, Note_on_c, 0, 44, 69
3, 22080, Note_on_c, 0, 37, 69
3, 22262, Note_on_c, 0, 37, 0
3, 22262, Note_on_c, 0, 44, 0
3, 22262, Note_on_c, 0, 52, 0
3, 22320, Note_on_c, 0, 40, 69
3, 22320, Note_on_c, 0, 47, 69
3, 22332, Control_c, 0, 64, 127
3, 22502, Note_on_c, 0, 47, 0
3, 22502, Note_on_c, 0, 40, 0
3, 22534, Control_c, 0, 64, 0
3, 22560, Note_on_c, 0, 44, 69
3, 22560, Note_on_c, 0, 52, 69
3, 22560, Note_on_c, 0, 59, 69
3, 22608, Control_c, 0, 64, 127
3, 22742, Note_on_c, 0, 59, 0
3, 22742, Note_on_c, 0, 52, 0
3, 22742, Note_on_c, 0, 44, 0
3, 22800, Note_on_c, 0, 60, 69
3, 22800, Note_on_c, 0, 54, 69
3, 22800, Note_on_c, 0, 44, 69
3, 22822, Control_c, 0, 64, 0
3, 22831, Control_c, 0, 64, 0
3, 22982, Note_on_c, 0, 44, 0
3, 22982, Note_on_c, 0, 54, 0
3, 22982, Note_on_c, 0, 60, 0
3, 23040, Note_on_c, 0, 49, 69
3, 23040, Note_on_c, 0, 54, 69
3, 23040, Note_on_c, 0, 60, 69
3, 23064, Control_c, 0, 64, 0
3, 23073, Control_c, 0, 64, 127
3, 23222, Note_on_c, 0, 60, 0
3, 23222, Note_on_c, 0, 54, 0
3, 23280, Note_on_c, 0, 52, 69
3, 23280, Note_on_c, 0, 61, 69
3, 23296, Control_c, 0, 64, 0
3, 23404, Note_on_c, 0, 49, 0
3, 23462, Note_on_c, 0, 61, 0
3, 23462, Note_on_c, 0, 52, 0
3, 23462, End_track
0, 0, End_of_file
