0, 0, Header, 0, 1, 480
1, 0, Start_track
1, 0, Title_t, "16 Waltzes Op.39"
1, 0, Copyright_t, "                  "
1, 0, Tempo, 512820
1, 0, Time_signature, 4, 2, 24, 8
1, 2693, Control_c, 0, 64, 104
1, 2750, Control_c, 0, 64, 100
1, 2751, Note_on_c, 0, 83, 57
1, 2769, Note_on_c, 0, 71, 38
1, 2787, Control_c, 0, 64, 95
1, 2823, Control_c, 0, 64, 89
1, 2842, Control_c, 0, 64, 87
1, 2860, Control_c, 0, 64, 83
1, 2878, Control_c, 0, 64, 78
1, 2895, Control_c, 0, 64, 69
1, 2914, Control_c, 0, 64, 57
1, 2932, Control_c, 0, 64, 41
1, 2952, Control_c, 0, 64, 28
1, 3061, Control_c, 0, 64, 35
1, 3080, Control_c, 0, 64, 42
1, 3099, Control_c, 0, 64, 48
1, 3119, Control_c, 0, 64, 53
1, 3149, Control_c, 0, 64, 57
1, 3167, Control_c, 0, 64, 61
1, 3187, Control_c, 0, 64, 65
1, 3205, Control_c, 0, 64, 70
1, 3225, Control_c, 0, 64, 74
1, 3243, Control_c, 0, 64, 78
1, 3262, Control_c, 0, 64, 83
1, 3280, Control_c, 0, 64, 87
1, 3296, Control_c, 0, 64, 93
1, 3306, Note_off_c, 0, 71, 52
1, 3309, Poly_aftertouch_c, 0, 40, 127
1, 3315, Control_c, 0, 64, 98
1, 3321, Note_off_c, 0, 83, 61
1, 3335, Control_c, 0, 64, 102
1, 3371, Control_c, 0, 64, 108
1, 3388, Control_c, 0, 64, 112
1, 3402, Note_on_c, 0, 47, 44
1, 3408, Control_c, 0, 64, 116
1, 3445, Control_c, 0, 64, 121
1, 3484, Control_c, 0, 64, 126
1, 3519, Poly_aftertouch_c, 0, 40, 0
1, 3528, Note_off_c, 0, 47, 51
1, 3538, Note_on_c, 0, 80, 62
1, 3554, Note_on_c, 0, 76, 50
1, 3567, Note_on_c, 0, 68, 39
1, 3799, Note_off_c, 0, 68, 38
1, 3800, Note_on_c, 0, 56, 33
1, 3803, Note_on_c, 0, 59, 48
1, 3838, Note_off_c, 0, 56, 46
1, 3852, Note_off_c, 0, 59, 59
1, 3982, Note_on_c, 0, 56, 39
1, 3985, Note_on_c, 0, 59, 52
1, 4032, Note_off_c, 0, 56, 61
1, 4175, Note_off_c, 0, 59, 50
1, 4179, Note_on_c, 0, 83, 66
1, 4197, Note_on_c, 0, 71, 37
1, 4259, Note_off_c, 0, 71, 42
1, 4276, Note_off_c, 0, 76, 44
1, 4302, Note_off_c, 0, 83, 56
1, 4372, Note_off_c, 0, 80, 43
1, 4377, Note_on_c, 0, 64, 45
1, 4393, Note_on_c, 0, 56, 46
1, 4420, Note_off_c, 0, 64, 63
1, 4423, Note_on_c, 0, 83, 67
1, 4430, Note_on_c, 0, 76, 43
1, 4436, Note_on_c, 0, 71, 46
1, 4439, Note_off_c, 0, 56, 64
1, 4537, Note_off_c, 0, 83, 59
1, 4550, Note_off_c, 0, 76, 63
1, 4632, Note_off_c, 0, 71, 38
1, 4693, Note_on_c, 0, 42, 46
1, 4768, Control_c, 0, 64, 121
1, 4768, Note_on_c, 0, 47, 52
1, 4787, Control_c, 0, 64, 104
1, 4806, Control_c, 0, 64, 74
1, 4826, Control_c, 0, 64, 28
1, 4843, Control_c, 0, 64, 0
1, 4844, Note_on_c, 0, 81, 73
1, 4853, Note_on_c, 0, 75, 51
1, 4860, Note_on_c, 0, 69, 49
1, 4860, Control_c, 0, 64, 16
1, 4880, Note_off_c, 0, 42, 62
1, 4880, Control_c, 0, 64, 44
1, 4899, Control_c, 0, 64, 60
1, 4905, Note_off_c, 0, 47, 63
1, 4918, Control_c, 0, 64, 70
1, 4934, Control_c, 0, 64, 82
1, 4954, Control_c, 0, 64, 94
1, 4973, Control_c, 0, 64, 103
1, 5074, Note_on_c, 0, 59, 56
1, 5085, Note_on_c, 0, 57, 55
1, 5124, Note_off_c, 0, 69, 38
1, 5138, Note_off_c, 0, 57, 57
1, 5145, Note_off_c, 0, 59, 51
1, 5199, Note_off_c, 0, 81, 59
1, 5280, Note_on_c, 0, 59, 59
1, 5286, Note_on_c, 0, 57, 48
1, 5332, Note_off_c, 0, 57, 58
1, 5371, Note_off_c, 0, 59, 59
1, 5463, Note_on_c, 0, 83, 79
1, 5493, Note_on_c, 0, 71, 37
1, 5547, Note_off_c, 0, 75, 63
1, 5568, Note_off_c, 0, 71, 41
1, 5605, Note_off_c, 0, 83, 63
1, 5613, Control_c, 0, 67, 117
1, 5633, Control_c, 0, 67, 106
1, 5649, Control_c, 0, 67, 90
1, 5664, Note_on_c, 0, 57, 57
1, 5667, Note_on_c, 0, 63, 46
1, 5667, Control_c, 0, 67, 75
1, 5687, Control_c, 0, 67, 67
1, 5694, Note_on_c, 0, 83, 83
1, 5702, Note_off_c, 0, 63, 57
1, 5705, Note_off_c, 0, 57, 66
1, 5706, Control_c, 0, 67, 59
1, 5712, Note_on_c, 0, 71, 58
1, 5713, Note_on_c, 0, 75, 54
1, 5724, Control_c, 0, 67, 49
1, 5744, Control_c, 0, 67, 38
1, 5762, Control_c, 0, 67, 30
1, 5781, Control_c, 0, 67, 21
1, 5798, Control_c, 0, 67, 15
1, 5803, Note_off_c, 0, 71, 56
1, 5837, Control_c, 0, 67, 10
1, 5843, Note_off_c, 0, 75, 61
1, 5869, Note_off_c, 0, 83, 60
1, 5971, Note_on_c, 0, 40, 53
1, 5979, Control_c, 0, 64, 108
1, 6066, Note_on_c, 0, 47, 52
1, 6070, Control_c, 0, 64, 87
1, 6091, Control_c, 0, 64, 58
1, 6109, Control_c, 0, 64, 0
1, 6117, Note_on_c, 0, 80, 80
1, 6126, Control_c, 0, 67, 0
1, 6127, Note_on_c, 0, 76, 62
1, 6137, Note_on_c, 0, 68, 60
1, 6145, Control_c, 0, 64, 35
1, 6148, Note_off_c, 0, 40, 61
1, 6163, Control_c, 0, 64, 58
1, 6179, Note_off_c, 0, 47, 63
1, 6182, Control_c, 0, 64, 72
1, 6200, Control_c, 0, 64, 88
1, 6218, Control_c, 0, 64, 108
1, 6237, Control_c, 0, 64, 123
1, 6299, Note_off_c, 0, 68, 60
1, 6333, Note_on_c, 0, 59, 60
1, 6356, Note_on_c, 0, 56, 50
1, 6395, Note_off_c, 0, 56, 65
1, 6401, Note_off_c, 0, 59, 59
1, 6466, Note_off_c, 0, 80, 54
1, 6529, Note_on_c, 0, 56, 49
1, 6537, Note_on_c, 0, 59, 62
1, 6571, Note_off_c, 0, 56, 64
1, 6703, Note_on_c, 0, 83, 87
1, 6715, Note_on_c, 0, 56, 52
1, 6722, Note_off_c, 0, 59, 64
1, 6732, Note_on_c, 0, 71, 37
1, 6732, Control_c, 0, 64, 127
1, 6766, Note_off_c, 0, 76, 64
1, 6775, Note_off_c, 0, 71, 49
1, 6818, Note_off_c, 0, 83, 64
1, 6906, Note_off_c, 0, 56, 30
1, 6911, Note_on_c, 0, 68, 55
1, 6952, Note_off_c, 0, 68, 64
1, 6962, Note_on_c, 0, 88, 85
1, 6975, Note_on_c, 0, 83, 71
1, 6977, Note_on_c, 0, 76, 68
1, 7091, Note_off_c, 0, 76, 29
1, 7218, Note_off_c, 0, 88, 62
1, 7300, Note_on_c, 0, 35, 39
1, 7392, Control_c, 0, 64, 110
1, 7411, Control_c, 0, 64, 77
1, 7417, Note_on_c, 0, 47, 56
1, 7430, Control_c, 0, 64, 0
1, 7444, Note_on_c, 0, 87, 69
1, 7451, Note_on_c, 0, 81, 53
1, 7463, Note_on_c, 0, 75, 48
1, 7467, Note_off_c, 0, 35, 60
1, 7485, Control_c, 0, 64, 28
1, 7504, Control_c, 0, 64, 53
1, 7512, Note_off_c, 0, 83, 45
1, 7521, Control_c, 0, 64, 68
1, 7529, Note_off_c, 0, 47, 64
1, 7539, Control_c, 0, 64, 83
1, 7559, Control_c, 0, 64, 103
1, 7578, Control_c, 0, 64, 119
1, 7594, Control_c, 0, 64, 124
1, 7828, Note_on_c, 0, 66, 51
1, 7837, Note_off_c, 0, 75, 62
1, 7851, Note_on_c, 0, 57, 21
1, 7852, Note_off_c, 0, 87, 58
1, 7900, Note_off_c, 0, 57, 51
1, 7904, Note_off_c, 0, 66, 53
1, 7904, Note_off_c, 0, 81, 62
1, 8057, Note_on_c, 0, 57, 36
1, 8061, Note_on_c, 0, 66, 57
1, 8104, Note_off_c, 0, 57, 50
1, 8231, Note_on_c, 0, 85, 70
1, 8252, Note_on_c, 0, 73, 45
1, 8254, Note_off_c, 0, 66, 35
1, 8299, Note_off_c, 0, 73, 50
1, 8327, Note_off_c, 0, 85, 62
1, 8446, Note_on_c, 0, 59, 45
1, 8460, Note_on_c, 0, 63, 39
1, 8536, Note_off_c, 0, 63, 55
1, 8544, Note_on_c, 0, 81, 63
1, 8545, Note_off_c, 0, 59, 57
1, 8545, Note_on_c, 0, 69, 49
1, 8545, Note_on_c, 0, 78, 43
1, 8779, Note_off_c, 0, 69, 57
1, 8886, Note_off_c, 0, 78, 56
1, 8924, Note_on_c, 0, 40, 43
1, 9010, Note_on_c, 0, 47, 45
1, 9067, Note_off_c, 0, 81, 62
1, 9068, Control_c, 0, 64, 105
1, 9081, Note_on_c, 0, 80, 61
1, 9086, Control_c, 0, 64, 75
1, 9086, Note_on_c, 0, 76, 52
1, 9099, Note_on_c, 0, 68, 44
1, 9103, Control_c, 0, 64, 0
1, 9174, Note_off_c, 0, 40, 44
1, 9179, Control_c, 0, 64, 25
1, 9198, Control_c, 0, 64, 50
1, 9207, Note_off_c, 0, 47, 64
1, 9215, Control_c, 0, 64, 64
1, 9233, Control_c, 0, 64, 74
1, 9252, Control_c, 0, 64, 86
1, 9271, Control_c, 0, 64, 97
1, 9290, Control_c, 0, 64, 104
1, 9364, Control_c, 0, 64, 110
1, 9383, Note_off_c, 0, 68, 36
1, 9398, Control_c, 0, 64, 116
1, 9402, Note_on_c, 0, 59, 45
1, 9436, Control_c, 0, 64, 120
1, 9444, Note_on_c, 0, 56, 16
1, 9474, Note_off_c, 0, 59, 57
1, 9474, Control_c, 0, 64, 125
1, 9502, Note_off_c, 0, 56, 36
1, 9550, Control_c, 0, 67, 10
1, 9568, Control_c, 0, 67, 14
1, 9581, Note_off_c, 0, 76, 27
1, 9588, Control_c, 0, 67, 18
1, 9622, Note_on_c, 0, 59, 50
1, 9735, Poly_aftertouch_c, 0, 56, 0
1, 9793, Note_off_c, 0, 80, 0
1, 9809, Note_on_c, 0, 83, 68
1, 9821, Note_on_c, 0, 71, 52
1, 9846, Poly_aftertouch_c, 0, 80, 24
1, 9865, Note_off_c, 0, 59, 43
1, 9894, Poly_aftertouch_c, 0, 80, 0
1, 9907, Note_off_c, 0, 71, 49
1, 9932, Note_off_c, 0, 83, 59
1, 9988, Note_on_c, 0, 64, 43
1, 10004, Note_on_c, 0, 56, 48
1, 10031, Note_off_c, 0, 64, 64
1, 10042, Note_off_c, 0, 56, 66
1, 10046, Note_on_c, 0, 83, 75
1, 10052, Note_on_c, 0, 76, 61
1, 10060, Note_on_c, 0, 71, 56
1, 10108, Note_off_c, 0, 76, 64
1, 10120, Note_off_c, 0, 83, 62
1, 10122, Note_off_c, 0, 71, 55
1, 10271, Note_on_c, 0, 39, 51
1, 10362, Note_on_c, 0, 47, 55
1, 10374, Control_c, 0, 64, 110
1, 10390, Control_c, 0, 64, 78
1, 10410, Control_c, 0, 64, 47
1, 10422, Note_on_c, 0, 78, 76
1, 10429, Note_on_c, 0, 71, 58
1, 10429, Control_c, 0, 64, 43
1, 10440, Note_on_c, 0, 66, 53
1, 10446, Control_c, 0, 64, 55
1, 10457, Note_off_c, 0, 39, 60
1, 10465, Control_c, 0, 64, 69
1, 10468, Note_off_c, 0, 47, 62
1, 10486, Control_c, 0, 64, 85
1, 10489, Control_c, 0, 67, 14
1, 10503, Control_c, 0, 64, 112
1, 10522, Control_c, 0, 64, 127
1, 10554, Note_off_c, 0, 66, 57
1, 10594, Control_c, 0, 67, 10
1, 10610, Note_off_c, 0, 71, 61
1, 10653, Note_on_c, 0, 59, 59
1, 10675, Note_on_c, 0, 54, 47
1, 10677, Note_off_c, 0, 78, 60
1, 10708, Note_off_c, 0, 59, 58
1, 10727, Note_off_c, 0, 54, 63
1, 10843, Note_on_c, 0, 59, 66
1, 10869, Note_on_c, 0, 54, 31
1, 10916, Note_off_c, 0, 54, 46
1, 11044, Note_on_c, 0, 83, 81
1, 11060, Note_on_c, 0, 71, 55
1, 11084, Note_on_c, 0, 54, 37
1, 11099, Note_off_c, 0, 71, 50
1, 11136, Note_off_c, 0, 59, 33
1, 11164, Note_off_c, 0, 83, 63
1, 11212, Note_off_c, 0, 54, 0
1, 11218, Note_on_c, 0, 66, 54
1, 11233, Note_on_c, 0, 54, 52
1, 11254, Note_off_c, 0, 66, 65
1, 11264, Note_on_c, 0, 83, 89
1, 11285, Note_on_c, 0, 71, 47
1, 11304, Note_off_c, 0, 54, 56
1, 11314, Note_off_c, 0, 71, 59
1, 11349, Note_off_c, 0, 83, 66
1, 11522, Note_on_c, 0, 37, 46
1, 11636, Note_on_c, 0, 47, 54
1, 11653, Control_c, 0, 64, 119
1, 11660, Note_on_c, 0, 88, 82
1, 11672, Control_c, 0, 64, 82
1, 11673, Note_on_c, 0, 80, 63
1, 11681, Note_on_c, 0, 76, 54
1, 11689, Control_c, 0, 64, 32
1, 11709, Control_c, 0, 64, 0
1, 11720, Note_off_c, 0, 37, 61
1, 11728, Control_c, 0, 64, 21
1, 11744, Note_off_c, 0, 47, 63
1, 11748, Control_c, 0, 64, 53
1, 11766, Control_c, 0, 64, 72
1, 11784, Control_c, 0, 64, 93
1, 11801, Control_c, 0, 64, 120
1, 11820, Control_c, 0, 64, 127
1, 11875, Note_off_c, 0, 76, 58
1, 11927, Note_on_c, 0, 56, 44
1, 11929, Note_on_c, 0, 64, 51
1, 11963, Note_off_c, 0, 56, 52
1, 11986, Note_off_c, 0, 88, 62
1, 11992, Note_off_c, 0, 64, 59
1, 12099, Note_on_c, 0, 56, 46
1, 12118, Note_on_c, 0, 64, 49
1, 12137, Note_off_c, 0, 56, 65
1, 12152, Note_off_c, 0, 64, 57
1, 12292, Note_on_c, 0, 88, 83
1, 12301, Note_on_c, 0, 76, 68
1, 12333, Note_off_c, 0, 76, 67
1, 12336, Note_off_c, 0, 80, 65
1, 12340, Note_on_c, 0, 42, 57
1, 12384, Note_off_c, 0, 88, 64
1, 12429, Note_off_c, 0, 42, 60
1, 12463, Note_on_c, 0, 49, 49
1, 12552, Control_c, 0, 64, 122
1, 12558, Note_on_c, 0, 90, 75
1, 12571, Control_c, 0, 64, 91
1, 12576, Note_on_c, 0, 82, 58
1, 12581, Note_on_c, 0, 78, 49
1, 12589, Note_on_c, 0, 58, 50
1, 12590, Control_c, 0, 64, 65
1, 12608, Control_c, 0, 64, 61
1, 12623, Note_off_c, 0, 58, 56
1, 12626, Control_c, 0, 64, 69
1, 12646, Control_c, 0, 64, 84
1, 12649, Control_c, 0, 67, 14
1, 12657, Note_off_c, 0, 49, 59
1, 12664, Control_c, 0, 64, 110
1, 12684, Control_c, 0, 64, 127
1, 12684, Control_c, 0, 67, 18
1, 12691, Note_off_c, 0, 90, 64
1, 12707, Note_off_c, 0, 82, 64
1, 12717, Note_off_c, 0, 78, 61
1, 12863, Note_on_c, 0, 35, 49
1, 12960, Control_c, 0, 64, 96
1, 12977, Control_c, 0, 64, 54
1, 12994, Control_c, 0, 64, 0
1, 12999, Note_on_c, 0, 47, 42
1, 13013, Control_c, 0, 67, 22
1, 13018, Note_on_c, 0, 83, 68
1, 13032, Control_c, 0, 64, 14
1, 13032, Note_on_c, 0, 75, 54
1, 13035, Note_off_c, 0, 35, 59
1, 13035, Note_on_c, 0, 71, 53
1, 13050, Control_c, 0, 64, 49
1, 13069, Control_c, 0, 64, 66
1, 13090, Control_c, 0, 64, 80
1, 13093, Note_off_c, 0, 47, 62
1, 13107, Control_c, 0, 64, 98
1, 13126, Control_c, 0, 64, 117
1, 13145, Control_c, 0, 64, 127
1, 13318, Note_on_c, 0, 63, 46
1, 13329, Note_on_c, 0, 54, 38
1, 13391, Note_off_c, 0, 54, 56
1, 13442, Note_off_c, 0, 63, 46
1, 13604, Note_on_c, 0, 54, 26
1, 13607, Note_on_c, 0, 63, 37
1, 13656, Control_c, 0, 67, 26
1, 13693, Control_c, 0, 67, 31
1, 13701, Note_off_c, 0, 63, 56
1, 13703, Note_off_c, 0, 54, 38
1, 13728, Note_off_c, 0, 83, 38
1, 13730, Control_c, 0, 67, 35
1, 13765, Control_c, 0, 67, 41
1, 13802, Control_c, 0, 67, 46
1, 13858, Control_c, 0, 67, 50
1, 13893, Note_off_c, 0, 71, 40
1, 13921, Note_off_c, 0, 75, 37
1, 13932, Control_c, 0, 67, 55
1, 13985, Control_c, 0, 67, 59
1, 14304, Note_on_c, 0, 51, 31
1, 14332, Note_on_c, 0, 59, 19
1, 14423, Note_on_c, 0, 81, 58
1, 14424, Control_c, 0, 67, 54
1, 14443, Note_on_c, 0, 69, 38
1, 14446, Note_on_c, 0, 78, 38
1, 14454, Note_off_c, 0, 59, 57
1, 14459, Control_c, 0, 67, 42
1, 14481, Control_c, 0, 67, 31
1, 14497, Control_c, 0, 67, 17
1, 14514, Note_off_c, 0, 51, 46
1, 14763, Note_off_c, 0, 69, 41
1, 14812, Control_c, 0, 67, 8
1, 14851, Note_off_c, 0, 78, 41
1, 14874, Note_on_c, 0, 40, 33
1, 14939, Control_c, 0, 67, 13
1, 14979, Note_on_c, 0, 47, 35
1, 15051, Control_c, 0, 67, 17
1, 15064, Note_on_c, 0, 76, 39
1, 15067, Note_on_c, 0, 80, 59
1, 15084, Note_off_c, 0, 81, 51
1, 15089, Control_c, 0, 64, 116
1, 15101, Note_on_c, 0, 68, 39
1, 15106, Control_c, 0, 64, 85
1, 15126, Control_c, 0, 64, 32
1, 15142, Control_c, 0, 64, 0
1, 15199, Control_c, 0, 64, 24
1, 15219, Control_c, 0, 64, 55
1, 15236, Control_c, 0, 64, 70
1, 15241, Note_off_c, 0, 40, 48
1, 15255, Control_c, 0, 64, 86
1, 15274, Control_c, 0, 64, 106
1, 15276, Note_off_c, 0, 47, 54
1, 15293, Control_c, 0, 64, 122
1, 15325, Control_c, 0, 64, 127
1, 15475, Note_off_c, 0, 68, 41
1, 15528, Note_on_c, 0, 59, 40
1, 15584, Note_off_c, 0, 76, 40
1, 15604, Note_off_c, 0, 59, 57
1, 15628, Poly_aftertouch_c, 0, 56, 0
1, 15753, Note_on_c, 0, 59, 46
1, 15842, Poly_aftertouch_c, 0, 56, 0
1, 15921, Note_on_c, 0, 83, 65
1, 15936, Note_on_c, 0, 71, 47
1, 15962, Note_off_c, 0, 59, 47
1, 16009, Note_off_c, 0, 71, 39
1, 16045, Note_off_c, 0, 83, 56
1, 16086, Note_off_c, 0, 80, 41
1, 16123, Note_on_c, 0, 64, 40
1, 16137, Note_on_c, 0, 56, 47
1, 16157, Note_on_c, 0, 83, 68
1, 16165, Note_off_c, 0, 64, 64
1, 16169, Note_on_c, 0, 76, 45
1, 16170, Note_on_c, 0, 71, 48
1, 16177, Note_off_c, 0, 56, 65
1, 16291, Note_off_c, 0, 83, 59
1, 16307, Note_off_c, 0, 76, 64
1, 16313, Control_c, 0, 67, 13
1, 16372, Note_off_c, 0, 71, 58
1, 16432, Note_on_c, 0, 42, 43
1, 16500, Note_on_c, 0, 47, 48
1, 16536, Control_c, 0, 64, 104
1, 16555, Control_c, 0, 64, 65
1, 16564, Note_on_c, 0, 81, 72
1, 16565, Note_on_c, 0, 75, 64
1, 16572, Control_c, 0, 64, 0
1, 16584, Note_on_c, 0, 69, 47
1, 16608, Control_c, 0, 64, 23
1, 16628, Control_c, 0, 64, 55
1, 16632, Note_off_c, 0, 42, 58
1, 16639, Note_off_c, 0, 47, 62
1, 16644, Control_c, 0, 64, 72
1, 16665, Control_c, 0, 64, 91
1, 16684, Control_c, 0, 64, 115
1, 16702, Control_c, 0, 64, 127
1, 16769, Note_off_c, 0, 69, 47
1, 16803, Note_on_c, 0, 59, 53
1, 16808, Note_on_c, 0, 57, 54
1, 16857, Note_off_c, 0, 81, 61
1, 16866, Note_off_c, 0, 57, 58
1, 16883, Note_off_c, 0, 59, 61
1, 17012, Note_on_c, 0, 59, 67
1, 17027, Note_on_c, 0, 57, 48
1, 17094, Note_off_c, 0, 57, 56
1, 17164, Note_off_c, 0, 59, 52
1, 17190, Note_on_c, 0, 83, 78
1, 17212, Note_on_c, 0, 71, 50
1, 17268, Note_off_c, 0, 75, 61
1, 17305, Control_c, 0, 67, 9
1, 17320, Note_off_c, 0, 71, 35
1, 17324, Note_off_c, 0, 83, 62
1, 17400, Note_on_c, 0, 63, 60
1, 17401, Note_on_c, 0, 83, 82
1, 17404, Note_on_c, 0, 57, 58
1, 17410, Note_on_c, 0, 75, 65
1, 17437, Note_off_c, 0, 63, 65
1, 17437, Note_on_c, 0, 71, 56
1, 17451, Note_off_c, 0, 57, 62
1, 17519, Note_off_c, 0, 71, 60
1, 17538, Note_off_c, 0, 75, 56
1, 17585, Note_off_c, 0, 83, 60
1, 17694, Note_on_c, 0, 40, 55
1, 17783, Control_c, 0, 64, 104
1, 17784, Note_on_c, 0, 47, 57
1, 17802, Control_c, 0, 64, 65
1, 17818, Note_on_c, 0, 80, 82
1, 17819, Control_c, 0, 64, 0
1, 17819, Note_on_c, 0, 76, 68
1, 17837, Note_on_c, 0, 68, 62
1, 17858, Control_c, 0, 64, 13
1, 17876, Note_off_c, 0, 40, 61
1, 17876, Control_c, 0, 64, 50
1, 17892, Control_c, 0, 64, 69
1, 17896, Note_off_c, 0, 47, 64
1, 17913, Control_c, 0, 64, 87
1, 17931, Control_c, 0, 64, 111
1, 17949, Control_c, 0, 64, 127
1, 18021, Note_off_c, 0, 68, 46
1, 18038, Note_on_c, 0, 59, 63
1, 18059, Note_on_c, 0, 56, 57
1, 18099, Note_off_c, 0, 56, 65
1, 18144, Note_off_c, 0, 59, 54
1, 18231, Note_off_c, 0, 80, 50
1, 18254, Note_on_c, 0, 56, 54
1, 18261, Note_on_c, 0, 59, 74
1, 18310, Note_off_c, 0, 56, 62
1, 18444, Note_off_c, 0, 59, 51
1, 18454, Note_on_c, 0, 83, 87
1, 18464, Note_on_c, 0, 71, 59
1, 18475, Note_on_c, 0, 56, 57
1, 18493, Note_off_c, 0, 71, 62
1, 18528, Note_off_c, 0, 76, 54
1, 18562, Note_off_c, 0, 56, 62
1, 18568, Note_off_c, 0, 83, 64
1, 18645, Note_on_c, 0, 68, 56
1, 18693, Note_on_c, 0, 88, 83
1, 18695, Note_off_c, 0, 68, 64
1, 18706, Note_on_c, 0, 83, 62
1, 18715, Note_on_c, 0, 76, 45
1, 18865, Control_c, 0, 67, 13
1, 18886, Note_off_c, 0, 76, 48
1, 18954, Note_off_c, 0, 88, 65
1, 19022, Note_on_c, 0, 35, 44
1, 19155, Control_c, 0, 64, 122
1, 19157, Control_c, 0, 67, 17
1, 19175, Control_c, 0, 64, 83
1, 19177, Note_on_c, 0, 47, 41
1, 19183, Note_on_c, 0, 87, 70
1, 19186, Note_on_c, 0, 75, 60
1, 19187, Note_on_c, 0, 81, 54
1, 19193, Control_c, 0, 64, 0
1, 19195, Control_c, 0, 67, 21
1, 19209, Note_off_c, 0, 35, 53
1, 19224, Note_off_c, 0, 83, 57
1, 19268, Control_c, 0, 64, 46
1, 19284, Note_off_c, 0, 47, 62
1, 19286, Control_c, 0, 64, 67
1, 19286, Control_c, 0, 67, 17
1, 19304, Control_c, 0, 64, 85
1, 19324, Control_c, 0, 64, 110
1, 19324, Control_c, 0, 67, 13
1, 19341, Control_c, 0, 64, 127
1, 19554, Note_off_c, 0, 75, 58
1, 19557, Note_off_c, 0, 87, 56
1, 19565, Note_on_c, 0, 66, 51
1, 19586, Note_on_c, 0, 57, 34
1, 19626, Note_off_c, 0, 57, 53
1, 19644, Note_off_c, 0, 66, 57
1, 19659, Note_off_c, 0, 81, 59
1, 19777, Note_on_c, 0, 57, 39
1, 19795, Note_on_c, 0, 66, 53
1, 19869, Note_off_c, 0, 57, 38
1, 19972, Note_on_c, 0, 85, 69
1, 19998, Note_on_c, 0, 73, 54
1, 20074, Note_off_c, 0, 66, 53
1, 20077, Note_off_c, 0, 73, 59
1, 20087, Note_off_c, 0, 85, 61
1, 20211, Note_on_c, 0, 59, 45
1, 20222, Note_on_c, 0, 63, 41
1, 20292, Note_on_c, 0, 81, 66
1, 20303, Note_off_c, 0, 63, 55
1, 20308, Note_on_c, 0, 78, 41
1, 20311, Note_on_c, 0, 69, 47
1, 20318, Note_off_c, 0, 59, 59
1, 20509, Note_off_c, 0, 69, 59
1, 20609, Note_off_c, 0, 78, 46
1, 20682, Note_on_c, 0, 40, 39
1, 20749, Note_on_c, 0, 47, 37
1, 20811, Control_c, 0, 64, 113
1, 20830, Control_c, 0, 64, 78
1, 20832, Note_on_c, 0, 76, 47
1, 20839, Note_on_c, 0, 80, 57
1, 20844, Note_off_c, 0, 81, 59
1, 20849, Control_c, 0, 64, 0
1, 20857, Note_on_c, 0, 68, 41
1, 20936, Control_c, 0, 64, 45
1, 20944, Note_off_c, 0, 40, 51
1, 20954, Control_c, 0, 64, 66
1, 20974, Control_c, 0, 64, 80
1, 20986, Note_off_c, 0, 47, 56
1, 20992, Control_c, 0, 64, 100
1, 21008, Control_c, 0, 64, 118
1, 21028, Control_c, 0, 64, 127
1, 21139, Note_off_c, 0, 68, 42
1, 21168, Note_on_c, 0, 59, 47
1, 21197, Note_on_c, 0, 56, 38
1, 21241, Note_off_c, 0, 56, 56
1, 21272, Note_off_c, 0, 59, 58
1, 21380, Note_on_c, 0, 56, 44
1, 21382, Note_on_c, 0, 59, 36
1, 21428, Note_off_c, 0, 56, 61
1, 21441, Note_off_c, 0, 76, 23
1, 21561, Note_on_c, 0, 83, 67
1, 21570, Note_on_c, 0, 71, 48
1, 21633, Note_off_c, 0, 59, 39
1, 21636, Poly_aftertouch_c, 0, 76, 0
1, 21646, Note_off_c, 0, 71, 53
1, 21669, Note_off_c, 0, 80, 39
1, 21685, Note_off_c, 0, 83, 58
1, 21749, Note_on_c, 0, 64, 49
1, 21765, Note_on_c, 0, 56, 51
1, 21783, Note_on_c, 0, 83, 72
1, 21783, Note_on_c, 0, 76, 60
1, 21786, Note_off_c, 0, 64, 65
1, 21795, Note_on_c, 0, 71, 59
1, 21802, Note_off_c, 0, 56, 64
1, 21839, Note_off_c, 0, 76, 66
1, 21845, Note_off_c, 0, 71, 57
1, 21854, Note_off_c, 0, 83, 62
1, 22028, Note_on_c, 0, 39, 54
1, 22110, Control_c, 0, 64, 115
1, 22116, Note_on_c, 0, 47, 55
1, 22130, Control_c, 0, 64, 78
1, 22147, Control_c, 0, 64, 11
1, 22165, Note_on_c, 0, 78, 74
1, 22165, Control_c, 0, 64, 0
1, 22180, Note_on_c, 0, 71, 58
1, 22181, Note_on_c, 0, 66, 54
1, 22205, Control_c, 0, 64, 43
1, 22222, Note_off_c, 0, 39, 61
1, 22222, Control_c, 0, 64, 64
1, 22234, Note_off_c, 0, 47, 62
1, 22242, Control_c, 0, 64, 79
1, 22261, Control_c, 0, 64, 102
1, 22278, Control_c, 0, 64, 127
1, 22321, Note_off_c, 0, 66, 48
1, 22334, Control_c, 0, 67, 8
1, 22350, Note_off_c, 0, 71, 61
1, 22389, Note_on_c, 0, 59, 65
1, 22402, Note_off_c, 0, 78, 57
1, 22406, Note_on_c, 0, 54, 54
1, 22446, Note_off_c, 0, 59, 55
1, 22460, Note_off_c, 0, 54, 59
1, 22580, Note_on_c, 0, 59, 73
1, 22773, Note_on_c, 0, 83, 82
1, 22784, Note_on_c, 0, 71, 68
1, 22826, Note_on_c, 0, 54, 50
1, 22834, Note_off_c, 0, 71, 63
1, 22904, Note_off_c, 0, 83, 62
1, 22968, Note_on_c, 0, 66, 61
1, 23002, Note_off_c, 0, 66, 68
1, 23008, Note_on_c, 0, 83, 86
1, 23017, Note_on_c, 0, 71, 59
1, 23030, Note_off_c, 0, 59, 24
1, 23040, Note_off_c, 0, 71, 64
1, 23051, Note_off_c, 0, 54, 56
1, 23085, Note_off_c, 0, 83, 65
1, 23228, Note_on_c, 0, 37, 57
1, 23340, Note_on_c, 0, 47, 60
1, 23362, Control_c, 0, 64, 101
1, 23377, Note_on_c, 0, 88, 85
1, 23380, Control_c, 0, 64, 62
1, 23389, Note_on_c, 0, 80, 67
1, 23398, Control_c, 0, 64, 0
1, 23401, Note_on_c, 0, 76, 58
1, 23421, Note_off_c, 0, 37, 62
1, 23435, Control_c, 0, 64, 35
1, 23448, Note_off_c, 0, 47, 64
1, 23453, Control_c, 0, 64, 60
1, 23472, Control_c, 0, 64, 77
1, 23490, Control_c, 0, 64, 102
1, 23509, Control_c, 0, 64, 127
1, 23569, Note_off_c, 0, 76, 56
1, 23620, Note_on_c, 0, 64, 67
1, 23620, Note_on_c, 0, 56, 65
1, 23665, Note_off_c, 0, 56, 62
1, 23680, Note_off_c, 0, 64, 52
1, 23711, Note_off_c, 0, 88, 59
1, 23823, Note_on_c, 0, 56, 64
1, 23825, Note_on_c, 0, 64, 65
1, 23855, Note_off_c, 0, 56, 65
1, 23856, Note_off_c, 0, 64, 68
1, 24005, Note_on_c, 0, 88, 85
1, 24013, Note_on_c, 0, 76, 65
1, 24048, Note_off_c, 0, 80, 63
1, 24050, Note_off_c, 0, 76, 68
1, 24059, Note_on_c, 0, 42, 51
1, 24089, Note_off_c, 0, 88, 65
1, 24150, Note_off_c, 0, 42, 59
1, 24153, Control_c, 0, 67, 13
1, 24158, Note_on_c, 0, 49, 57
1, 24192, Control_c, 0, 67, 19
1, 24208, Control_c, 0, 67, 25
1, 24227, Control_c, 0, 67, 30
1, 24246, Control_c, 0, 64, 96
1, 24247, Control_c, 0, 67, 35
1, 24259, Note_on_c, 0, 90, 82
1, 24264, Control_c, 0, 64, 60
1, 24265, Note_on_c, 0, 58, 60
1, 24272, Note_on_c, 0, 82, 65
1, 24276, Note_on_c, 0, 78, 58
1, 24281, Control_c, 0, 64, 42
1, 24282, Control_c, 0, 67, 39
1, 24300, Control_c, 0, 64, 53
1, 24319, Note_off_c, 0, 58, 63
1, 24319, Control_c, 0, 64, 69
1, 24338, Control_c, 0, 64, 94
1, 24348, Note_off_c, 0, 49, 61
1, 24356, Control_c, 0, 64, 127
1, 24357, Control_c, 0, 67, 43
1, 24372, Note_off_c, 0, 90, 65
1, 24390, Note_off_c, 0, 82, 64
1, 24407, Note_off_c, 0, 78, 63
1, 24539, Note_on_c, 0, 35, 52
1, 24651, Control_c, 0, 64, 105
1, 24684, Control_c, 0, 64, 64
1, 24700, Note_on_c, 0, 47, 44
1, 24702, Control_c, 0, 64, 0
1, 24731, Note_on_c, 0, 83, 74
1, 24735, Note_on_c, 0, 75, 58
1, 24739, Note_off_c, 0, 35, 54
1, 24739, Control_c, 0, 64, 18
1, 24750, Note_on_c, 0, 71, 53
1, 24758, Control_c, 0, 64, 58
1, 24776, Control_c, 0, 64, 79
1, 24789, Note_off_c, 0, 47, 62
1, 24793, Control_c, 0, 64, 106
1, 24795, Control_c, 0, 67, 39
1, 24812, Control_c, 0, 64, 127
1, 24831, Control_c, 0, 67, 32
1, 24866, Control_c, 0, 67, 28
1, 25026, Note_on_c, 0, 54, 35
1, 25028, Note_on_c, 0, 63, 40
1, 25090, Note_off_c, 0, 54, 56
1, 25117, Note_off_c, 0, 63, 49
1, 25218, Note_off_c, 0, 71, 40
1, 25262, Note_on_c, 0, 54, 35
1, 25276, Note_on_c, 0, 63, 50
1, 25313, Note_off_c, 0, 83, 59
1, 25330, Note_off_c, 0, 63, 53
1, 25402, Note_off_c, 0, 54, 51
1, 25566, Control_c, 0, 67, 23
1, 25636, Control_c, 0, 67, 18
1, 25674, Control_c, 0, 67, 13
1, 25710, Control_c, 0, 67, 9
1, 25994, Note_on_c, 0, 59, 31
1, 25999, Note_on_c, 0, 51, 44
1, 26066, Note_on_c, 0, 83, 63
1, 26077, Note_on_c, 0, 71, 48
1, 26148, Note_off_c, 0, 75, 61
1, 26223, Note_off_c, 0, 59, 43
1, 26280, Note_off_c, 0, 51, 55
1, 26292, Note_off_c, 0, 71, 55
1, 26355, Note_off_c, 0, 83, 55
1, 26435, Note_on_c, 0, 47, 38
1, 26504, Note_on_c, 0, 83, 66
1, 26521, Note_on_c, 0, 75, 48
1, 26525, Note_on_c, 0, 78, 48
1, 26534, Note_on_c, 0, 71, 50
1, 26537, Control_c, 0, 64, 119
1, 26572, Control_c, 0, 64, 88
1, 26591, Control_c, 0, 64, 57
1, 26609, Control_c, 0, 64, 35
1, 26628, Control_c, 0, 64, 39
1, 26646, Control_c, 0, 64, 52
1, 26664, Control_c, 0, 64, 64
1, 26682, Control_c, 0, 64, 74
1, 26702, Control_c, 0, 64, 87
1, 26718, Control_c, 0, 64, 102
1, 26728, Note_on_c, 0, 54, 49
1, 26730, Note_on_c, 0, 51, 50
1, 26737, Control_c, 0, 64, 115
1, 26754, Control_c, 0, 64, 121
1, 26795, Note_off_c, 0, 51, 56
1, 26796, Note_off_c, 0, 54, 56
1, 26800, Note_off_c, 0, 71, 54
1, 26829, Control_c, 0, 64, 127
1, 26872, Note_off_c, 0, 83, 62
1, 26936, Note_on_c, 0, 51, 53
1, 26941, Note_on_c, 0, 54, 49
1, 27117, Note_on_c, 0, 84, 72
1, 27123, Note_on_c, 0, 72, 57
1, 27236, Note_off_c, 0, 72, 57
1, 27247, Note_off_c, 0, 75, 63
1, 27248, Note_off_c, 0, 84, 60
1, 27256, Note_off_c, 0, 78, 62
1, 27338, Note_on_c, 0, 45, 59
1, 27344, Note_on_c, 0, 84, 70
1, 27361, Note_on_c, 0, 72, 51
1, 27372, Note_on_c, 0, 75, 50
1, 27375, Note_on_c, 0, 78, 56
1, 27380, Control_c, 0, 64, 120
1, 27398, Control_c, 0, 64, 97
1, 27417, Control_c, 0, 64, 72
1, 27433, Note_off_c, 0, 47, 43
1, 27435, Control_c, 0, 64, 49
1, 27439, Note_off_c, 0, 51, 50
1, 27455, Control_c, 0, 64, 45
1, 27458, Note_off_c, 0, 54, 38
1, 27473, Control_c, 0, 64, 49
1, 27506, Control_c, 0, 64, 59
1, 27527, Control_c, 0, 64, 67
1, 27543, Control_c, 0, 64, 76
1, 27563, Control_c, 0, 64, 89
1, 27571, Note_off_c, 0, 84, 55
1, 27579, Control_c, 0, 64, 108
1, 27598, Control_c, 0, 64, 127
1, 27618, Note_off_c, 0, 72, 55
1, 27668, Note_off_c, 0, 75, 56
1, 27742, Note_off_c, 0, 78, 35
1, 27808, Note_on_c, 0, 47, 49
1, 27823, Note_on_c, 0, 83, 65
1, 27837, Note_on_c, 0, 75, 42
1, 27837, Note_on_c, 0, 71, 47
1, 27853, Note_on_c, 0, 78, 49
1, 27868, Note_off_c, 0, 45, 54
1, 27872, Control_c, 0, 64, 110
1, 27892, Control_c, 0, 64, 83
1, 27910, Control_c, 0, 64, 50
1, 27929, Control_c, 0, 64, 0
1, 27985, Control_c, 0, 64, 32
1, 28004, Control_c, 0, 64, 54
1, 28023, Control_c, 0, 64, 65
1, 28040, Control_c, 0, 64, 73
1, 28053, Note_on_c, 0, 54, 43
1, 28059, Note_on_c, 0, 51, 47
1, 28059, Control_c, 0, 64, 84
1, 28078, Control_c, 0, 64, 96
1, 28096, Control_c, 0, 64, 108
1, 28113, Control_c, 0, 64, 116
1, 28121, Note_off_c, 0, 51, 56
1, 28137, Note_off_c, 0, 54, 52
1, 28150, Control_c, 0, 64, 120
1, 28157, Note_off_c, 0, 83, 54
1, 28187, Control_c, 0, 64, 124
1, 28211, Note_off_c, 0, 71, 57
1, 28276, Note_on_c, 0, 51, 41
1, 28289, Note_on_c, 0, 54, 38
1, 28493, Note_on_c, 0, 81, 56
1, 28494, Note_on_c, 0, 69, 46
1, 28590, Note_off_c, 0, 69, 45
1, 28592, Note_off_c, 0, 78, 53
1, 28612, Note_off_c, 0, 81, 57
1, 28614, Note_off_c, 0, 75, 60
1, 28693, Note_off_c, 0, 47, 54
1, 28718, Control_c, 0, 64, 119
1, 28735, Control_c, 0, 64, 94
1, 28746, Note_on_c, 0, 48, 42
1, 28754, Control_c, 0, 64, 63
1, 28754, Note_on_c, 0, 75, 44
1, 28757, Note_on_c, 0, 81, 52
1, 28761, Note_on_c, 0, 69, 38
1, 28771, Control_c, 0, 64, 0
1, 28774, Note_on_c, 0, 78, 30
1, 28827, Control_c, 0, 64, 28
1, 28845, Control_c, 0, 64, 49
1, 28864, Control_c, 0, 64, 62
1, 28883, Control_c, 0, 64, 71
1, 28902, Control_c, 0, 64, 80
1, 28920, Control_c, 0, 64, 90
1, 28936, Note_off_c, 0, 81, 59
1, 28938, Control_c, 0, 64, 101
1, 28957, Control_c, 0, 64, 110
1, 28975, Control_c, 0, 64, 114
1, 28992, Note_off_c, 0, 78, 39
1, 28996, Note_off_c, 0, 48, 38
1, 29030, Control_c, 0, 64, 119
1, 29056, Note_off_c, 0, 69, 42
1, 29077, Note_off_c, 0, 75, 49
1, 29082, Note_off_c, 0, 54, 59
1, 29083, Control_c, 0, 64, 123
1, 29089, Note_off_c, 0, 51, 49
1, 29254, Note_on_c, 0, 48, 38
1, 29257, Note_on_c, 0, 79, 57
1, 29269, Note_on_c, 0, 67, 44
1, 29272, Note_on_c, 0, 76, 47
1, 29289, Control_c, 0, 64, 118
1, 29327, Control_c, 0, 64, 108
1, 29344, Control_c, 0, 64, 90
1, 29380, Control_c, 0, 64, 66
1, 29398, Control_c, 0, 64, 29
1, 29415, Control_c, 0, 64, 0
1, 29470, Control_c, 0, 64, 21
1, 29488, Control_c, 0, 64, 49
1, 29507, Control_c, 0, 64, 64
1, 29517, Note_on_c, 0, 55, 40
1, 29519, Note_on_c, 0, 52, 29
1, 29524, Control_c, 0, 64, 72
1, 29543, Control_c, 0, 64, 79
1, 29562, Control_c, 0, 64, 88
1, 29580, Control_c, 0, 64, 97
1, 29599, Control_c, 0, 64, 105
1, 29607, Note_off_c, 0, 55, 56
1, 29618, Control_c, 0, 64, 109
1, 29659, Note_off_c, 0, 79, 62
1, 29665, Note_off_c, 0, 52, 0
1, 29665, Note_off_c, 0, 67, 36
1, 29665, Control_c, 0, 64, 114
1, 29684, Note_on_c, 0, 52, 34
1, 29685, Note_on_c, 0, 55, 50
1, 29701, Control_c, 0, 64, 120
1, 29831, Note_off_c, 0, 52, 52
1, 29863, Note_off_c, 0, 55, 55
1, 29873, Note_on_c, 0, 81, 67
1, 29884, Note_on_c, 0, 69, 55
1, 29962, Note_off_c, 0, 69, 43
1, 29982, Note_off_c, 0, 81, 57
1, 29982, Note_off_c, 0, 76, 46
1, 30085, Note_on_c, 0, 51, 54
1, 30088, Control_c, 0, 64, 110
1, 30102, Note_on_c, 0, 81, 69
1, 30102, Note_on_c, 0, 54, 51
1, 30106, Control_c, 0, 64, 94
1, 30111, Note_on_c, 0, 69, 48
1, 30125, Note_on_c, 0, 78, 41
1, 30125, Control_c, 0, 64, 68
1, 30145, Control_c, 0, 64, 35
1, 30164, Control_c, 0, 64, 28
1, 30182, Control_c, 0, 64, 39
1, 30200, Control_c, 0, 64, 55
1, 30217, Control_c, 0, 64, 68
1, 30236, Control_c, 0, 64, 79
1, 30253, Note_off_c, 0, 81, 58
1, 30254, Control_c, 0, 64, 93
1, 30273, Control_c, 0, 64, 107
1, 30307, Control_c, 0, 64, 117
1, 30343, Note_off_c, 0, 48, 42
1, 30355, Note_off_c, 0, 51, 60
1, 30357, Note_off_c, 0, 78, 57
1, 30362, Control_c, 0, 64, 121
1, 30386, Note_off_c, 0, 69, 38
1, 30543, Note_on_c, 0, 79, 70
1, 30547, Note_on_c, 0, 48, 52
1, 30553, Note_off_c, 0, 54, 48
1, 30555, Note_on_c, 0, 76, 61
1, 30556, Note_on_c, 0, 67, 56
1, 30564, Control_c, 0, 64, 113
1, 30584, Control_c, 0, 64, 90
1, 30603, Control_c, 0, 64, 57
1, 30620, Control_c, 0, 64, 0
1, 30676, Control_c, 0, 64, 13
1, 30692, Control_c, 0, 64, 48
1, 30711, Control_c, 0, 64, 64
1, 30731, Control_c, 0, 64, 74
1, 30737, Note_on_c, 0, 55, 57
1, 30746, Note_on_c, 0, 52, 56
1, 30746, Control_c, 0, 64, 87
1, 30766, Control_c, 0, 64, 102
1, 30786, Control_c, 0, 64, 117
1, 30800, Note_off_c, 0, 79, 62
1, 30804, Control_c, 0, 64, 124
1, 30828, Note_off_c, 0, 52, 59
1, 30832, Note_off_c, 0, 76, 65
1, 30834, Note_off_c, 0, 67, 59
1, 30838, Note_off_c, 0, 55, 62
1, 30965, Note_on_c, 0, 55, 71
1, 30972, Note_on_c, 0, 52, 61
1, 31063, Note_off_c, 0, 52, 62
1, 31098, Note_off_c, 0, 48, 60
1, 31109, Note_off_c, 0, 55, 64
1, 31116, Control_c, 0, 67, 0
1, 31139, Note_on_c, 0, 78, 76
1, 31147, Note_on_c, 0, 66, 65
1, 31217, Note_off_c, 0, 66, 51
1, 31267, Note_off_c, 0, 78, 58
1, 31369, Note_on_c, 0, 63, 77
1, 31375, Note_on_c, 0, 78, 83
1, 31382, Note_on_c, 0, 66, 65
1, 31382, Note_on_c, 0, 75, 62
1, 31397, Note_on_c, 0, 54, 54
1, 31493, Note_off_c, 0, 54, 48
1, 31494, Note_off_c, 0, 63, 58
1, 31509, Note_off_c, 0, 75, 62
1, 31522, Note_off_c, 0, 78, 60
1, 31550, Note_off_c, 0, 66, 61
1, 31699, Note_on_c, 0, 48, 62
1, 31793, Note_on_c, 0, 76, 74
1, 31796, Control_c, 0, 64, 103
1, 31810, Note_on_c, 0, 70, 67
1, 31815, Control_c, 0, 64, 53
1, 31834, Control_c, 0, 64, 0
1, 31888, Control_c, 0, 64, 46
1, 31907, Control_c, 0, 64, 74
1, 31921, Note_off_c, 0, 48, 63
1, 31924, Control_c, 0, 64, 99
1, 31944, Control_c, 0, 64, 127
1, 32014, Note_on_c, 0, 55, 46
1, 32017, Note_on_c, 0, 64, 67
1, 32019, Note_on_c, 0, 58, 49
1, 32081, Note_off_c, 0, 58, 52
1, 32089, Note_off_c, 0, 64, 63
1, 32106, Note_off_c, 0, 55, 55
1, 32125, Note_off_c, 0, 76, 60
1, 32218, Note_on_c, 0, 64, 78
1, 32227, Note_on_c, 0, 55, 44
1, 32229, Note_on_c, 0, 58, 60
1, 32290, Note_off_c, 0, 58, 50
1, 32290, Note_off_c, 0, 55, 62
1, 32311, Note_off_c, 0, 64, 62
1, 32397, Note_on_c, 0, 78, 82
1, 32506, Note_off_c, 0, 78, 60
1, 32586, Note_on_c, 0, 63, 65
1, 32599, Note_on_c, 0, 54, 60
1, 32613, Note_on_c, 0, 78, 88
1, 32656, Note_off_c, 0, 63, 61
1, 32673, Note_off_c, 0, 54, 59
1, 32759, Note_off_c, 0, 78, 63
1, 32780, Note_on_c, 0, 48, 53
1, 32830, Note_on_c, 0, 55, 61
1, 32843, Note_off_c, 0, 70, 59
1, 32957, Note_on_c, 0, 58, 63
1, 33062, Note_on_c, 0, 67, 77
1, 33074, Note_on_c, 0, 76, 73
1, 33083, Note_on_c, 0, 70, 57
1, 33151, Control_c, 0, 64, 122
1, 33171, Control_c, 0, 64, 91
1, 33187, Control_c, 0, 64, 47
1, 33206, Control_c, 0, 64, 0
1, 33260, Control_c, 0, 64, 19
1, 33280, Control_c, 0, 64, 54
1, 33298, Control_c, 0, 64, 72
1, 33317, Control_c, 0, 64, 91
1, 33323, Note_off_c, 0, 48, 41
1, 33334, Control_c, 0, 64, 116
1, 33354, Control_c, 0, 64, 127
1, 33386, Note_off_c, 0, 55, 60
1, 33497, Note_off_c, 0, 70, 59
1, 33569, Note_off_c, 0, 58, 56
1, 33626, Note_on_c, 0, 66, 72
1, 33634, Note_on_c, 0, 54, 57
1, 33800, Note_off_c, 0, 66, 66
1, 33807, Note_off_c, 0, 54, 56
1, 33821, Note_on_c, 0, 70, 79
1, 33861, Note_off_c, 0, 67, 56
1, 33930, Note_off_c, 0, 70, 62
1, 34049, Control_c, 0, 64, 115
1, 34054, Note_on_c, 0, 64, 57
1, 34060, Note_on_c, 0, 52, 52
1, 34065, Note_on_c, 0, 70, 77
1, 34067, Control_c, 0, 64, 85
1, 34087, Control_c, 0, 64, 56
1, 34105, Control_c, 0, 64, 40
1, 34123, Control_c, 0, 64, 49
1, 34141, Control_c, 0, 64, 63
1, 34159, Control_c, 0, 64, 81
1, 34173, Note_off_c, 0, 64, 63
1, 34177, Control_c, 0, 64, 110
1, 34195, Control_c, 0, 64, 127
1, 34212, Note_off_c, 0, 52, 62
1, 34432, Note_off_c, 0, 76, 39
1, 34442, Note_on_c, 0, 47, 44
1, 34491, Control_c, 0, 64, 106
1, 34510, Control_c, 0, 64, 68
1, 34528, Control_c, 0, 64, 0
1, 34549, Note_off_c, 0, 70, 65
1, 34555, Note_on_c, 0, 71, 72
1, 34582, Control_c, 0, 64, 9
1, 34601, Control_c, 0, 64, 46
1, 34619, Control_c, 0, 64, 62
1, 34639, Control_c, 0, 64, 73
1, 34648, Note_off_c, 0, 47, 63
1, 34654, Control_c, 0, 64, 86
1, 34673, Control_c, 0, 64, 103
1, 34693, Control_c, 0, 64, 118
1, 34711, Control_c, 0, 64, 127
1, 34800, Note_on_c, 0, 63, 57
1, 34824, Note_on_c, 0, 54, 43
1, 34833, Note_on_c, 0, 51, 48
1, 34901, Note_off_c, 0, 51, 55
1, 34905, Note_off_c, 0, 54, 60
1, 34918, Note_off_c, 0, 63, 55
1, 35043, Note_on_c, 0, 63, 63
1, 35066, Note_on_c, 0, 54, 51
1, 35066, Note_on_c, 0, 51, 43
1, 35148, Note_off_c, 0, 63, 59
1, 35175, Note_off_c, 0, 51, 58
1, 35190, Note_off_c, 0, 54, 54
1, 35231, Note_on_c, 0, 83, 71
1, 35354, Note_off_c, 0, 83, 62
1, 35425, Control_c, 0, 67, 8
1, 35447, Note_on_c, 0, 52, 52
1, 35456, Note_on_c, 0, 61, 48
1, 35462, Control_c, 0, 64, 101
1, 35471, Note_on_c, 0, 49, 40
1, 35474, Note_on_c, 0, 83, 70
1, 35481, Control_c, 0, 64, 68
1, 35500, Control_c, 0, 64, 0
1, 35536, Control_c, 0, 64, 22
1, 35537, Control_c, 0, 67, 12
1, 35554, Control_c, 0, 64, 54
1, 35573, Control_c, 0, 64, 70
1, 35590, Control_c, 0, 64, 85
1, 35608, Control_c, 0, 64, 104
1, 35609, Control_c, 0, 67, 16
1, 35627, Control_c, 0, 64, 120
1, 35647, Control_c, 0, 64, 125
1, 35649, Note_off_c, 0, 61, 63
1, 35664, Control_c, 0, 67, 20
1, 35702, Control_c, 0, 67, 24
1, 35720, Control_c, 0, 67, 28
1, 35743, Note_off_c, 0, 71, 59
1, 35755, Control_c, 0, 67, 34
1, 35793, Note_off_c, 0, 49, 36
1, 35793, Control_c, 0, 67, 40
1, 35829, Control_c, 0, 67, 46
1, 35867, Control_c, 0, 67, 51
1, 35919, Control_c, 0, 67, 55
1, 35940, Note_on_c, 0, 47, 44
1, 35956, Control_c, 0, 67, 59
1, 35992, Control_c, 0, 67, 63
1, 36005, Note_on_c, 0, 71, 62
1, 36029, Control_c, 0, 67, 67
1, 36044, Note_off_c, 0, 52, 30
1, 36047, Control_c, 0, 64, 105
1, 36066, Control_c, 0, 64, 80
1, 36084, Control_c, 0, 64, 53
1, 36102, Control_c, 0, 64, 24
1, 36120, Control_c, 0, 67, 72
1, 36132, Note_off_c, 0, 83, 36
1, 36140, Control_c, 0, 64, 35
1, 36159, Control_c, 0, 64, 49
1, 36177, Control_c, 0, 64, 59
1, 36178, Control_c, 0, 67, 78
1, 36196, Control_c, 0, 64, 66
1, 36214, Control_c, 0, 64, 71
1, 36232, Control_c, 0, 64, 79
1, 36234, Control_c, 0, 67, 82
1, 36249, Control_c, 0, 64, 90
1, 36268, Control_c, 0, 64, 100
1, 36281, Note_on_c, 0, 51, 48
1, 36281, Note_on_c, 0, 59, 45
1, 36287, Control_c, 0, 64, 107
1, 36306, Control_c, 0, 67, 88
1, 36322, Control_c, 0, 64, 112
1, 36360, Control_c, 0, 67, 92
1, 36380, Control_c, 0, 64, 116
1, 36392, Note_off_c, 0, 51, 57
1, 36424, Note_off_c, 0, 59, 48
1, 36452, Control_c, 0, 67, 96
1, 36560, Note_on_c, 0, 59, 37
1, 36576, Note_on_c, 0, 51, 39
1, 36642, Note_off_c, 0, 51, 52
1, 36690, Control_c, 0, 64, 120
1, 36708, Note_off_c, 0, 59, 57
1, 36859, Note_on_c, 0, 83, 52
1, 36910, Control_c, 0, 67, 101
1, 37032, Note_off_c, 0, 83, 56
1, 37185, Control_c, 0, 64, 116
1, 37186, Note_on_c, 0, 49, 43
1, 37203, Note_on_c, 0, 57, 30
1, 37210, Note_on_c, 0, 83, 50
1, 37239, Control_c, 0, 64, 112
1, 37276, Control_c, 0, 64, 97
1, 37296, Control_c, 0, 64, 76
1, 37315, Control_c, 0, 64, 45
1, 37332, Control_c, 0, 64, 0
1, 37406, Control_c, 0, 64, 28
1, 37424, Control_c, 0, 64, 52
1, 37442, Control_c, 0, 64, 64
1, 37462, Control_c, 0, 64, 71
1, 37478, Control_c, 0, 64, 78
1, 37497, Control_c, 0, 64, 87
1, 37516, Control_c, 0, 64, 97
1, 37526, Note_off_c, 0, 57, 50
1, 37534, Control_c, 0, 64, 106
1, 37551, Control_c, 0, 64, 114
1, 37569, Control_c, 0, 64, 120
1, 37597, Note_off_c, 0, 83, 63
1, 37606, Control_c, 0, 64, 126
1, 37620, Note_off_c, 0, 47, 41
1, 37629, Note_off_c, 0, 49, 41
1, 37664, Note_off_c, 0, 71, 61
1, 37844, Control_c, 0, 67, 97
1, 37972, Note_on_c, 0, 40, 41
1, 38082, Note_on_c, 0, 47, 40
1, 38084, Control_c, 0, 64, 114
1, 38101, Control_c, 0, 64, 84
1, 38119, Control_c, 0, 64, 49
1, 38138, Control_c, 0, 64, 9
1, 38140, Note_on_c, 0, 71, 55
1, 38150, Note_on_c, 0, 68, 43
1, 38155, Control_c, 0, 64, 23
1, 38157, Control_c, 0, 67, 91
1, 38174, Control_c, 0, 64, 46
1, 38193, Control_c, 0, 64, 63
1, 38211, Control_c, 0, 64, 74
1, 38212, Control_c, 0, 67, 85
1, 38220, Note_off_c, 0, 40, 54
1, 38231, Control_c, 0, 64, 89
1, 38234, Control_c, 0, 67, 79
1, 38248, Control_c, 0, 64, 106
1, 38249, Control_c, 0, 67, 67
1, 38253, Note_off_c, 0, 47, 62
1, 38269, Control_c, 0, 64, 122
1, 38270, Control_c, 0, 67, 55
1, 38285, Control_c, 0, 64, 127
1, 38286, Control_c, 0, 67, 49
1, 38323, Control_c, 0, 67, 42
1, 38340, Control_c, 0, 67, 38
1, 38358, Control_c, 0, 67, 32
1, 38378, Control_c, 0, 67, 26
1, 38386, Note_off_c, 0, 68, 57
1, 38395, Note_off_c, 0, 71, 61
1, 38395, Control_c, 0, 67, 21
1, 38450, Control_c, 0, 67, 17
1, 38497, Note_on_c, 0, 56, 50
1, 38505, Note_on_c, 0, 59, 41
1, 38542, Control_c, 0, 67, 13
1, 38574, Note_off_c, 0, 56, 63
1, 38603, Note_off_c, 0, 59, 57
1, 38651, Control_c, 0, 67, 8
1, 38734, Note_on_c, 0, 59, 43
1, 38788, Note_on_c, 0, 56, 19
1, 38846, Note_off_c, 0, 56, 36
1, 38901, Note_off_c, 0, 59, 39
1, 38913, Note_on_c, 0, 83, 63
1, 38939, Note_on_c, 0, 71, 41
1, 39008, Note_off_c, 0, 71, 39
1, 39032, Note_off_c, 0, 83, 56
1, 39113, Note_on_c, 0, 64, 41
1, 39126, Note_on_c, 0, 56, 46
1, 39164, Note_off_c, 0, 64, 63
1, 39172, Note_on_c, 0, 83, 66
1, 39200, Note_on_c, 0, 71, 38
1, 39203, Note_off_c, 0, 56, 63
1, 39207, Note_on_c, 0, 76, 44
1, 39305, Note_off_c, 0, 83, 62
1, 39310, Note_off_c, 0, 76, 64
1, 39381, Note_off_c, 0, 71, 48
1, 39453, Note_on_c, 0, 42, 45
1, 39530, Note_on_c, 0, 47, 59
1, 39552, Control_c, 0, 64, 108
1, 39569, Control_c, 0, 64, 70
1, 39587, Control_c, 0, 64, 14
1, 39593, Note_on_c, 0, 81, 75
1, 39602, Note_on_c, 0, 75, 53
1, 39606, Control_c, 0, 64, 0
1, 39611, Note_on_c, 0, 69, 49
1, 39626, Control_c, 0, 64, 34
1, 39656, Control_c, 0, 64, 60
1, 39657, Note_off_c, 0, 42, 58
1, 39674, Note_off_c, 0, 47, 63
1, 39675, Control_c, 0, 64, 79
1, 39695, Control_c, 0, 64, 106
1, 39713, Control_c, 0, 64, 127
1, 39814, Note_on_c, 0, 59, 64
1, 39829, Note_on_c, 0, 57, 56
1, 39864, Note_off_c, 0, 69, 38
1, 39892, Note_off_c, 0, 57, 56
1, 39917, Note_off_c, 0, 59, 59
1, 39921, Note_off_c, 0, 81, 61
1, 40036, Note_on_c, 0, 59, 64
1, 40038, Note_on_c, 0, 57, 60
1, 40081, Note_off_c, 0, 57, 59
1, 40114, Note_off_c, 0, 59, 58
1, 40216, Note_on_c, 0, 83, 79
1, 40236, Note_on_c, 0, 71, 50
1, 40303, Note_off_c, 0, 75, 62
1, 40312, Note_off_c, 0, 71, 39
1, 40340, Note_off_c, 0, 83, 61
1, 40404, Note_on_c, 0, 57, 60
1, 40406, Note_on_c, 0, 63, 59
1, 40438, Note_on_c, 0, 83, 81
1, 40445, Note_on_c, 0, 75, 69
1, 40447, Note_off_c, 0, 63, 65
1, 40453, Note_off_c, 0, 57, 65
1, 40464, Note_on_c, 0, 71, 49
1, 40503, Note_off_c, 0, 71, 52
1, 40569, Note_off_c, 0, 75, 50
1, 40569, Note_off_c, 0, 83, 58
1, 40630, Control_c, 0, 67, 0
1, 40708, Note_on_c, 0, 40, 57
1, 40783, Note_on_c, 0, 47, 65
1, 40797, Control_c, 0, 64, 108
1, 40815, Control_c, 0, 64, 72
1, 40835, Control_c, 0, 64, 33
1, 40841, Note_on_c, 0, 80, 80
1, 40843, Note_on_c, 0, 76, 68
1, 40853, Control_c, 0, 64, 23
1, 40855, Note_on_c, 0, 68, 66
1, 40865, Note_off_c, 0, 40, 62
1, 40872, Control_c, 0, 64, 32
1, 40890, Control_c, 0, 64, 54
1, 40895, Note_off_c, 0, 47, 64
1, 40908, Control_c, 0, 64, 70
1, 40927, Control_c, 0, 64, 86
1, 40944, Control_c, 0, 64, 110
1, 40963, Control_c, 0, 64, 127
1, 40993, Note_off_c, 0, 68, 61
1, 41051, Note_on_c, 0, 59, 67
1, 41063, Note_on_c, 0, 56, 62
1, 41112, Note_off_c, 0, 56, 64
1, 41137, Note_off_c, 0, 59, 62
1, 41152, Note_off_c, 0, 80, 59
1, 41245, Note_on_c, 0, 59, 71
1, 41248, Note_on_c, 0, 56, 56
1, 41283, Note_off_c, 0, 56, 65
1, 41418, Note_on_c, 0, 83, 88
1, 41426, Note_off_c, 0, 59, 63
1, 41428, Note_on_c, 0, 56, 52
1, 41440, Note_on_c, 0, 71, 44
1, 41467, Note_off_c, 0, 76, 65
1, 41475, Note_off_c, 0, 71, 53
1, 41538, Note_off_c, 0, 83, 64
1, 41540, Note_off_c, 0, 56, 56
1, 41589, Note_on_c, 0, 68, 54
1, 41639, Note_off_c, 0, 68, 63
1, 41672, Note_on_c, 0, 88, 84
1, 41675, Note_on_c, 0, 83, 74
1, 41680, Note_on_c, 0, 76, 65
1, 41701, Note_off_c, 0, 76, 67
1, 41744, Note_off_c, 0, 83, 0
1, 41761, Note_on_c, 0, 83, 46
1, 41813, Note_on_c, 0, 76, 21
1, 41869, Note_off_c, 0, 76, 46
1, 41914, Note_off_c, 0, 88, 64
1, 41944, Note_on_c, 0, 35, 47
1, 42095, Note_on_c, 0, 47, 48
1, 42100, Control_c, 0, 64, 122
1, 42121, Control_c, 0, 64, 87
1, 42133, Note_on_c, 0, 87, 70
1, 42137, Note_on_c, 0, 81, 56
1, 42138, Note_on_c, 0, 75, 58
1, 42140, Note_off_c, 0, 83, 59
1, 42140, Control_c, 0, 64, 43
1, 42148, Note_off_c, 0, 35, 56
1, 42157, Control_c, 0, 64, 0
1, 42193, Control_c, 0, 64, 25
1, 42213, Control_c, 0, 64, 54
1, 42218, Note_off_c, 0, 47, 64
1, 42229, Control_c, 0, 64, 69
1, 42248, Control_c, 0, 64, 86
1, 42267, Control_c, 0, 64, 113
1, 42285, Control_c, 0, 64, 127
1, 42412, Note_off_c, 0, 75, 54
1, 42449, Note_off_c, 0, 87, 57
1, 42523, Note_on_c, 0, 66, 36
1, 42528, Note_off_c, 0, 81, 56
1, 42536, Note_on_c, 0, 57, 37
1, 42587, Note_off_c, 0, 66, 62
1, 42602, Note_off_c, 0, 57, 56
1, 42751, Note_on_c, 0, 57, 50
1, 42757, Note_on_c, 0, 66, 45
1, 42829, Note_off_c, 0, 57, 43
1, 42914, Note_on_c, 0, 85, 70
1, 42929, Note_on_c, 0, 73, 52
1, 42933, Note_off_c, 0, 66, 39
1, 43008, Note_off_c, 0, 73, 62
1, 43019, Note_off_c, 0, 85, 61
1, 43105, Note_on_c, 0, 59, 54
1, 43116, Note_on_c, 0, 63, 48
1, 43159, Note_off_c, 0, 63, 62
1, 43179, Note_off_c, 0, 59, 61
1, 43204, Note_on_c, 0, 81, 67
1, 43216, Note_on_c, 0, 69, 59
1, 43230, Note_on_c, 0, 78, 51
1, 43391, Note_off_c, 0, 69, 57
1, 43452, Note_off_c, 0, 78, 56
1, 43477, Note_on_c, 0, 40, 43
1, 43560, Note_on_c, 0, 47, 48
1, 43588, Control_c, 0, 64, 108
1, 43608, Control_c, 0, 64, 70
1, 43624, Control_c, 0, 64, 0
1, 43662, Note_off_c, 0, 81, 64
1, 43663, Note_on_c, 0, 76, 60
1, 43667, Note_on_c, 0, 80, 68
1, 43673, Note_off_c, 0, 40, 60
1, 43676, Note_on_c, 0, 68, 50
1, 43680, Control_c, 0, 64, 50
1, 43699, Control_c, 0, 64, 70
1, 43713, Note_off_c, 0, 47, 64
1, 43716, Control_c, 0, 64, 88
1, 43735, Control_c, 0, 64, 113
1, 43755, Control_c, 0, 64, 127
1, 43861, Note_off_c, 0, 68, 47
1, 43896, Note_on_c, 0, 59, 58
1, 43903, Note_on_c, 0, 56, 58
1, 43948, Note_off_c, 0, 56, 63
1, 43981, Note_off_c, 0, 59, 59
1, 44077, Note_off_c, 0, 80, 34
1, 44090, Note_on_c, 0, 56, 53
1, 44098, Note_on_c, 0, 59, 66
1, 44140, Note_off_c, 0, 56, 61
1, 44209, Poly_aftertouch_c, 0, 76, 24
1, 44260, Note_on_c, 0, 83, 80
1, 44272, Note_off_c, 0, 76, 0
1, 44273, Note_on_c, 0, 76, 13
1, 44275, Note_on_c, 0, 71, 65
1, 44348, Note_off_c, 0, 71, 47
1, 44354, Note_off_c, 0, 76, 50
1, 44360, Note_off_c, 0, 59, 56
1, 44392, Note_off_c, 0, 83, 61
1, 44464, Note_on_c, 0, 64, 54
1, 44479, Note_on_c, 0, 56, 60
1, 44499, Note_off_c, 0, 64, 64
1, 44503, Note_on_c, 0, 83, 80
1, 44509, Note_on_c, 0, 71, 70
1, 44511, Note_off_c, 0, 56, 68
1, 44513, Note_on_c, 0, 80, 66
1, 44674, Note_off_c, 0, 83, 56
1, 44683, Note_off_c, 0, 80, 36
1, 44702, Note_off_c, 0, 71, 33
1, 44711, Note_on_c, 0, 39, 59
1, 44800, Control_c, 0, 64, 87
1, 44812, Note_on_c, 0, 47, 62
1, 44818, Control_c, 0, 64, 45
1, 44838, Control_c, 0, 64, 18
1, 44856, Control_c, 0, 64, 44
1, 44875, Control_c, 0, 64, 69
1, 44878, Note_off_c, 0, 39, 61
1, 44891, Note_on_c, 0, 83, 85
1, 44892, Control_c, 0, 64, 99
1, 44894, Note_off_c, 0, 47, 63
1, 44903, Note_on_c, 0, 80, 72
1, 44906, Note_on_c, 0, 71, 73
1, 44911, Control_c, 0, 64, 127
1, 44953, Note_off_c, 0, 71, 53
1, 45033, Note_off_c, 0, 80, 56
1, 45035, Note_off_c, 0, 83, 63
1, 45077, Note_on_c, 0, 59, 64
1, 45087, Note_on_c, 0, 56, 58
1, 45136, Note_off_c, 0, 56, 60
1, 45159, Note_off_c, 0, 59, 61
1, 45304, Note_on_c, 0, 59, 72
1, 45325, Note_on_c, 0, 56, 44
1, 45355, Note_off_c, 0, 56, 60
1, 45498, Note_off_c, 0, 59, 64
1, 45506, Note_on_c, 0, 56, 43
1, 45516, Note_on_c, 0, 92, 87
1, 45530, Note_on_c, 0, 80, 71
1, 45592, Note_off_c, 0, 80, 44
1, 45614, Note_off_c, 0, 92, 60
1, 45691, Note_on_c, 0, 68, 60
1, 45739, Note_off_c, 0, 68, 65
1, 45772, Note_on_c, 0, 92, 87
1, 45781, Note_on_c, 0, 80, 74
1, 45782, Note_on_c, 0, 83, 72
1, 45796, Note_off_c, 0, 56, 59
1, 45843, Note_off_c, 0, 92, 68
1, 45851, Note_off_c, 0, 80, 62
1, 45855, Note_off_c, 0, 83, 62
1, 46180, Control_c, 0, 64, 109
1, 46212, Control_c, 0, 64, 68
1, 46216, Note_on_c, 0, 35, 52
1, 46220, Note_on_c, 0, 47, 39
1, 46229, Note_on_c, 0, 83, 80
1, 46232, Control_c, 0, 64, 11
1, 46243, Note_on_c, 0, 71, 64
1, 46250, Control_c, 0, 64, 29
1, 46267, Control_c, 0, 64, 55
1, 46278, Note_off_c, 0, 71, 66
1, 46281, Note_off_c, 0, 35, 58
1, 46286, Control_c, 0, 64, 80
1, 46305, Control_c, 0, 64, 125
1, 46338, Note_off_c, 0, 83, 63
1, 46371, Note_off_c, 0, 47, 52
1, 46465, Note_on_c, 0, 92, 79
1, 46468, Note_on_c, 0, 80, 71
1, 46630, Note_off_c, 0, 80, 34
1, 46672, Note_off_c, 0, 92, 60
1, 46745, Note_on_c, 0, 57, 38
1, 46747, Note_on_c, 0, 93, 72
1, 46747, Control_c, 0, 64, 99
1, 46747, Note_on_c, 0, 66, 49
1, 46756, Note_on_c, 0, 85, 53
1, 46765, Control_c, 0, 64, 63
1, 46769, Note_on_c, 0, 81, 56
1, 46769, Note_on_c, 0, 61, 39
1, 46784, Control_c, 0, 64, 25
1, 46802, Control_c, 0, 64, 29
1, 46820, Control_c, 0, 64, 47
1, 46835, Note_off_c, 0, 66, 63
1, 46837, Control_c, 0, 64, 65
1, 46857, Control_c, 0, 64, 81
1, 46875, Control_c, 0, 64, 106
1, 46881, Note_off_c, 0, 61, 61
1, 46882, Note_off_c, 0, 93, 64
1, 46893, Control_c, 0, 64, 127
1, 46893, Control_c, 0, 67, 8
1, 46908, Note_off_c, 0, 57, 55
1, 46910, Note_off_c, 0, 81, 64
1, 46945, Note_off_c, 0, 85, 57
1, 47219, Control_c, 0, 67, 13
1, 47268, Note_on_c, 0, 47, 47
1, 47274, Control_c, 0, 64, 107
1, 47276, Control_c, 0, 67, 18
1, 47277, Note_on_c, 0, 87, 68
1, 47277, Note_on_c, 0, 75, 55
1, 47281, Note_on_c, 0, 83, 55
1, 47286, Note_on_c, 0, 54, 43
1, 47287, Note_on_c, 0, 59, 41
1, 47293, Control_c, 0, 64, 85
1, 47294, Control_c, 0, 67, 22
1, 47313, Control_c, 0, 64, 79
1, 47315, Control_c, 0, 67, 27
1, 47331, Control_c, 0, 64, 85
1, 47342, Note_off_c, 0, 59, 49
1, 47349, Control_c, 0, 64, 98
1, 47351, Note_off_c, 0, 54, 49
1, 47351, Control_c, 0, 67, 31
1, 47367, Control_c, 0, 64, 118
1, 47382, Note_off_c, 0, 47, 61
1, 47385, Control_c, 0, 64, 127
1, 47404, Control_c, 0, 67, 37
1, 47481, Note_off_c, 0, 75, 40
1, 47487, Note_off_c, 0, 87, 54
1, 47487, Note_on_c, 0, 81, 69
1, 47544, Note_off_c, 0, 81, 58
1, 47607, Control_c, 0, 67, 41
1, 47644, Control_c, 0, 67, 46
1, 47651, Note_off_c, 0, 83, 35
1, 47658, Note_on_c, 0, 40, 47
1, 47663, Control_c, 0, 64, 93
1, 47681, Control_c, 0, 64, 57
1, 47684, Control_c, 0, 67, 53
1, 47699, Control_c, 0, 64, 0
1, 47718, Control_c, 0, 67, 59
1, 47737, Control_c, 0, 64, 28
1, 47740, Note_on_c, 0, 88, 62
1, 47749, Note_on_c, 0, 80, 42
1, 47754, Note_on_c, 0, 76, 47
1, 47755, Control_c, 0, 64, 57
1, 47756, Control_c, 0, 67, 65
1, 47772, Note_off_c, 0, 40, 61
1, 47775, Control_c, 0, 64, 71
1, 47793, Control_c, 0, 64, 86
1, 47812, Control_c, 0, 64, 104
1, 47828, Control_c, 0, 64, 123
1, 47847, Control_c, 0, 64, 127
1, 48009, Note_on_c, 0, 59, 49
1, 48014, Note_on_c, 0, 56, 42
1, 48100, Note_off_c, 0, 59, 54
1, 48108, Note_off_c, 0, 56, 41
1, 48179, Note_off_c, 0, 88, 55
1, 48289, Note_off_c, 0, 76, 29
1, 48305, Note_off_c, 0, 80, 43
1, 48308, Note_on_c, 0, 59, 15
1, 48312, Note_on_c, 0, 56, 6
1, 48383, Note_off_c, 0, 59, 45
1, 48392, Note_off_c, 0, 56, 46
1, 48927, Note_on_c, 0, 44, 69
1, 48940, Note_on_c, 0, 83, 56
1, 48947, Note_on_c, 0, 71, 43
1, 48987, Control_c, 0, 64, 109
1, 49020, Control_c, 0, 64, 96
1, 49038, Control_c, 0, 64, 89
1, 49075, Control_c, 0, 64, 93
1, 49095, Control_c, 0, 64, 99
1, 49113, Control_c, 0, 64, 108
1, 49132, Control_c, 0, 64, 114
1, 49168, Control_c, 0, 64, 118
1, 49210, Note_off_c, 0, 44, 63
1, 49232, Note_off_c, 0, 71, 37
1, 49275, Note_off_c, 0, 83, 34
1, 49372, Control_c, 0, 67, 61
1, 49392, Control_c, 0, 64, 114
1, 49403, Note_on_c, 0, 47, 69
1, 49422, Note_on_c, 0, 83, 60
1, 49425, Control_c, 0, 64, 109
1, 49444, Control_c, 0, 64, 97
1, 49448, Note_on_c, 0, 71, 50
1, 49449, Note_on_c, 0, 75, 47
1, 49457, Note_on_c, 0, 78, 39
1, 49463, Control_c, 0, 64, 72
1, 49480, Control_c, 0, 64, 25
1, 49498, Control_c, 0, 64, 0
1, 49536, Control_c, 0, 67, 56
1, 49555, Control_c, 0, 64, 13
1, 49574, Control_c, 0, 64, 44
1, 49575, Control_c, 0, 67, 50
1, 49592, Control_c, 0, 64, 59
1, 49610, Control_c, 0, 64, 67
1, 49627, Control_c, 0, 64, 74
1, 49645, Note_on_c, 0, 51, 53
1, 49646, Control_c, 0, 64, 82
1, 49659, Note_on_c, 0, 54, 47
1, 49666, Control_c, 0, 64, 92
1, 49684, Control_c, 0, 64, 102
1, 49702, Control_c, 0, 64, 109
1, 49727, Note_off_c, 0, 71, 37
1, 49727, Note_off_c, 0, 83, 58
1, 49733, Note_off_c, 0, 54, 59
1, 49733, Note_off_c, 0, 51, 56
1, 49737, Control_c, 0, 67, 46
1, 49756, Control_c, 0, 64, 113
1, 49873, Note_on_c, 0, 54, 51
1, 49874, Note_on_c, 0, 51, 64
1, 50036, Note_on_c, 0, 84, 69
1, 50042, Note_on_c, 0, 72, 59
1, 50151, Note_off_c, 0, 72, 53
1, 50161, Note_off_c, 0, 84, 58
1, 50174, Note_off_c, 0, 75, 53
1, 50177, Control_c, 0, 64, 109
1, 50184, Note_off_c, 0, 78, 48
1, 50193, Control_c, 0, 67, 40
1, 50231, Control_c, 0, 64, 103
1, 50250, Control_c, 0, 64, 96
1, 50260, Note_on_c, 0, 45, 72
1, 50269, Control_c, 0, 64, 83
1, 50277, Note_on_c, 0, 84, 62
1, 50287, Control_c, 0, 64, 62
1, 50301, Note_on_c, 0, 72, 38
1, 50306, Note_on_c, 0, 78, 34
1, 50307, Control_c, 0, 64, 0
1, 50315, Note_on_c, 0, 75, 38
1, 50324, Note_off_c, 0, 47, 63
1, 50381, Note_off_c, 0, 54, 38
1, 50383, Note_off_c, 0, 51, 56
1, 50398, Control_c, 0, 64, 11
1, 50416, Control_c, 0, 64, 43
1, 50417, Control_c, 0, 67, 36
1, 50433, Control_c, 0, 64, 59
1, 50452, Control_c, 0, 64, 67
1, 50453, Control_c, 0, 67, 31
1, 50470, Control_c, 0, 64, 73
1, 50484, Note_off_c, 0, 84, 56
1, 50488, Control_c, 0, 64, 78
1, 50508, Control_c, 0, 64, 82
1, 50527, Control_c, 0, 67, 27
1, 50535, Note_off_c, 0, 72, 62
1, 50581, Control_c, 0, 64, 85
1, 50588, Note_off_c, 0, 75, 50
1, 50602, Note_off_c, 0, 78, 48
1, 50619, Control_c, 0, 64, 87
1, 50712, Note_on_c, 0, 75, 55
1, 50715, Note_on_c, 0, 47, 60
1, 50724, Note_on_c, 0, 83, 55
1, 50731, Note_on_c, 0, 78, 51
1, 50738, Note_on_c, 0, 71, 50
1, 50747, Control_c, 0, 64, 84
1, 50764, Note_off_c, 0, 45, 60
1, 50767, Control_c, 0, 64, 80
1, 50785, Control_c, 0, 64, 72
1, 50802, Control_c, 0, 64, 59
1, 50821, Control_c, 0, 64, 37
1, 50840, Control_c, 0, 64, 0
1, 50845, Note_off_c, 0, 78, 0
1, 50846, Note_on_c, 0, 78, 7
1, 50962, Note_on_c, 0, 51, 54
1, 50975, Note_on_c, 0, 54, 46
1, 51062, Note_off_c, 0, 51, 58
1, 51067, Note_off_c, 0, 54, 51
1, 51113, Control_c, 0, 64, 35
1, 51129, Control_c, 0, 64, 53
1, 51147, Control_c, 0, 64, 63
1, 51166, Control_c, 0, 64, 70
1, 51186, Control_c, 0, 64, 76
1, 51186, Note_on_c, 0, 54, 26
1, 51203, Control_c, 0, 64, 83
1, 51204, Note_on_c, 0, 51, 51
1, 51206, Note_off_c, 0, 83, 48
1, 51223, Control_c, 0, 64, 92
1, 51242, Control_c, 0, 64, 103
1, 51255, Note_off_c, 0, 71, 58
1, 51259, Control_c, 0, 64, 113
1, 51277, Control_c, 0, 64, 117
1, 51427, Note_on_c, 0, 81, 53
1, 51431, Note_on_c, 0, 69, 43
1, 51504, Note_off_c, 0, 69, 53
1, 51532, Note_off_c, 0, 81, 55
1, 51540, Note_off_c, 0, 78, 44
1, 51570, Note_off_c, 0, 75, 40
1, 51627, Control_c, 0, 64, 110
1, 51634, Note_off_c, 0, 47, 56
1, 51645, Control_c, 0, 64, 103
1, 51662, Note_on_c, 0, 48, 54
1, 51663, Control_c, 0, 64, 88
1, 51683, Control_c, 0, 64, 65
1, 51690, Note_on_c, 0, 75, 25
1, 51694, Note_on_c, 0, 78, 25
1, 51701, Control_c, 0, 64, 19
1, 51705, Note_on_c, 0, 81, 36
1, 51711, Note_on_c, 0, 69, 17
1, 51719, Control_c, 0, 64, 0
1, 51774, Control_c, 0, 64, 22
1, 51792, Control_c, 0, 64, 47
1, 51826, Control_c, 0, 64, 62
1, 51843, Control_c, 0, 64, 72
1, 51863, Control_c, 0, 64, 81
1, 51880, Control_c, 0, 64, 91
1, 51900, Control_c, 0, 64, 99
1, 51905, Note_off_c, 0, 78, 42
1, 51912, Note_off_c, 0, 81, 40
1, 51917, Control_c, 0, 64, 104
1, 51930, Note_off_c, 0, 48, 60
1, 51991, Control_c, 0, 64, 108
1, 51999, Note_off_c, 0, 69, 42
1, 52015, Note_off_c, 0, 51, 37
1, 52018, Note_off_c, 0, 75, 42
1, 52027, Control_c, 0, 64, 113
1, 52030, Note_off_c, 0, 54, 38
1, 52120, Control_c, 0, 67, 23
1, 52187, Note_on_c, 0, 48, 47
1, 52194, Control_c, 0, 64, 107
1, 52210, Control_c, 0, 64, 100
1, 52220, Note_on_c, 0, 79, 49
1, 52228, Note_on_c, 0, 76, 39
1, 52229, Control_c, 0, 64, 88
1, 52232, Note_on_c, 0, 67, 39
1, 52248, Control_c, 0, 64, 71
1, 52269, Control_c, 0, 64, 45
1, 52285, Control_c, 0, 64, 0
1, 52428, Note_on_c, 0, 52, 46
1, 52432, Note_on_c, 0, 55, 40
1, 52507, Control_c, 0, 64, 30
1, 52508, Note_off_c, 0, 52, 52
1, 52523, Control_c, 0, 64, 53
1, 52539, Note_off_c, 0, 55, 43
1, 52541, Control_c, 0, 64, 65
1, 52561, Control_c, 0, 64, 72
1, 52562, Control_c, 0, 67, 19
1, 52580, Control_c, 0, 64, 79
1, 52597, Note_off_c, 0, 67, 42
1, 52598, Note_off_c, 0, 79, 53
1, 52598, Control_c, 0, 64, 88
1, 52618, Control_c, 0, 64, 97
1, 52621, Note_on_c, 0, 52, 49
1, 52622, Note_on_c, 0, 55, 44
1, 52636, Control_c, 0, 64, 107
1, 52654, Control_c, 0, 64, 114
1, 52670, Control_c, 0, 64, 118
1, 52705, Control_c, 0, 64, 124
1, 52782, Note_off_c, 0, 52, 57
1, 52806, Note_on_c, 0, 81, 62
1, 52823, Note_on_c, 0, 69, 46
1, 52838, Note_off_c, 0, 55, 36
1, 52898, Note_off_c, 0, 69, 43
1, 52931, Note_off_c, 0, 81, 54
1, 52934, Note_off_c, 0, 76, 45
1, 53030, Note_on_c, 0, 81, 61
1, 53035, Note_on_c, 0, 54, 51
1, 53044, Note_on_c, 0, 51, 50
1, 53051, Control_c, 0, 64, 101
1, 53051, Note_on_c, 0, 78, 51
1, 53054, Note_on_c, 0, 69, 42
1, 53070, Control_c, 0, 64, 77
1, 53088, Control_c, 0, 64, 54
1, 53108, Control_c, 0, 64, 45
1, 53125, Control_c, 0, 64, 52
1, 53143, Control_c, 0, 64, 62
1, 53162, Control_c, 0, 64, 73
1, 53180, Control_c, 0, 64, 88
1, 53187, Note_off_c, 0, 81, 58
1, 53199, Control_c, 0, 64, 108
1, 53214, Note_off_c, 0, 48, 40
1, 53214, Control_c, 0, 64, 127
1, 53291, Note_off_c, 0, 69, 41
1, 53292, Note_off_c, 0, 78, 57
1, 53297, Note_off_c, 0, 51, 58
1, 53433, Note_on_c, 0, 48, 62
1, 53444, Note_on_c, 0, 79, 66
1, 53446, Note_off_c, 0, 54, 54
1, 53452, Note_on_c, 0, 76, 58
1, 53457, Control_c, 0, 64, 110
1, 53461, Note_on_c, 0, 67, 51
1, 53475, Control_c, 0, 64, 70
1, 53494, Control_c, 0, 64, 0
1, 53495, Control_c, 0, 67, 15
1, 53587, Control_c, 0, 64, 14
1, 53603, Control_c, 0, 64, 54
1, 53623, Control_c, 0, 64, 72
1, 53641, Control_c, 0, 64, 82
1, 53653, Note_on_c, 0, 55, 64
1, 53659, Control_c, 0, 64, 89
1, 53661, Note_on_c, 0, 52, 56
1, 53662, Note_off_c, 0, 76, 65
1, 53691, Control_c, 0, 64, 95
1, 53706, Note_off_c, 0, 79, 62
1, 53710, Control_c, 0, 64, 102
1, 53712, Control_c, 0, 67, 10
1, 53731, Control_c, 0, 64, 111
1, 53733, Note_off_c, 0, 67, 59
1, 53742, Note_off_c, 0, 52, 56
1, 53749, Control_c, 0, 64, 117
1, 53767, Control_c, 0, 64, 121
1, 53769, Note_off_c, 0, 55, 59
1, 53805, Control_c, 0, 64, 127
1, 53875, Note_on_c, 0, 52, 61
1, 53878, Note_on_c, 0, 55, 71
1, 53989, Note_off_c, 0, 52, 61
1, 54005, Note_off_c, 0, 48, 59
1, 54013, Note_off_c, 0, 55, 63
1, 54050, Note_on_c, 0, 78, 74
1, 54054, Note_on_c, 0, 66, 65
1, 54151, Note_off_c, 0, 66, 60
1, 54170, Note_off_c, 0, 78, 59
1, 54245, Control_c, 0, 64, 120
1, 54263, Control_c, 0, 64, 106
1, 54277, Note_on_c, 0, 63, 72
1, 54278, Note_on_c, 0, 78, 80
1, 54282, Control_c, 0, 64, 94
1, 54286, Note_on_c, 0, 75, 64
1, 54286, Note_on_c, 0, 54, 63
1, 54291, Note_on_c, 0, 66, 62
1, 54339, Control_c, 0, 64, 107
1, 54358, Control_c, 0, 64, 121
1, 54376, Control_c, 0, 64, 127
1, 54410, Note_off_c, 0, 78, 59
1, 54414, Note_off_c, 0, 63, 59
1, 54470, Note_off_c, 0, 66, 62
1, 54486, Control_c, 0, 67, 0
1, 54492, Note_off_c, 0, 75, 29
1, 54497, Note_off_c, 0, 54, 22
1, 54648, Control_c, 0, 64, 103
1, 54653, Note_on_c, 0, 48, 75
1, 54668, Control_c, 0, 64, 58
1, 54683, Control_c, 0, 64, 0
1, 54687, Note_on_c, 0, 76, 80
1, 54699, Note_on_c, 0, 70, 69
1, 54759, Control_c, 0, 64, 55
1, 54779, Control_c, 0, 64, 74
1, 54782, Note_off_c, 0, 48, 61
1, 54795, Control_c, 0, 64, 95
1, 54814, Control_c, 0, 64, 127
1, 54887, Note_on_c, 0, 64, 73
1, 54909, Note_on_c, 0, 58, 49
1, 54918, Note_on_c, 0, 55, 38
1, 54953, Note_off_c, 0, 58, 60
1, 54967, Note_off_c, 0, 55, 61
1, 54968, Note_off_c, 0, 64, 62
1, 54986, Note_off_c, 0, 76, 62
1, 55086, Note_on_c, 0, 64, 80
1, 55086, Note_on_c, 0, 58, 59
1, 55092, Note_on_c, 0, 55, 60
1, 55151, Note_off_c, 0, 55, 63
1, 55176, Note_off_c, 0, 64, 60
1, 55190, Note_off_c, 0, 58, 52
1, 55266, Note_on_c, 0, 78, 83
1, 55394, Note_off_c, 0, 78, 57
1, 55443, Note_on_c, 0, 63, 68
1, 55478, Note_on_c, 0, 78, 83
1, 55480, Note_on_c, 0, 54, 51
1, 55517, Note_off_c, 0, 63, 62
1, 55526, Note_off_c, 0, 54, 63
1, 55534, Poly_aftertouch_c, 0, 57, 127
1, 55586, Poly_aftertouch_c, 0, 57, 0
1, 55619, Note_off_c, 0, 78, 62
1, 55653, Note_on_c, 0, 48, 65
1, 55666, Note_off_c, 0, 70, 54
1, 55723, Note_on_c, 0, 55, 61
1, 55803, Control_c, 0, 64, 123
1, 55829, Note_on_c, 0, 58, 64
1, 55840, Control_c, 0, 64, 115
1, 55876, Control_c, 0, 64, 108
1, 55895, Control_c, 0, 64, 103
1, 55914, Control_c, 0, 64, 98
1, 55927, Note_on_c, 0, 67, 80
1, 55933, Control_c, 0, 64, 93
1, 55942, Note_on_c, 0, 76, 70
1, 55952, Control_c, 0, 64, 88
1, 55958, Note_on_c, 0, 70, 44
1, 55970, Control_c, 0, 64, 84
1, 55988, Control_c, 0, 64, 81
1, 56007, Control_c, 0, 64, 78
1, 56025, Control_c, 0, 64, 73
1, 56043, Control_c, 0, 64, 60
1, 56061, Control_c, 0, 64, 0
1, 56170, Note_off_c, 0, 48, 48
1, 56170, Control_c, 0, 64, 29
1, 56190, Control_c, 0, 64, 55
1, 56209, Control_c, 0, 64, 69
1, 56227, Control_c, 0, 64, 83
1, 56247, Control_c, 0, 64, 100
1, 56252, Note_off_c, 0, 55, 61
1, 56263, Control_c, 0, 64, 113
1, 56281, Control_c, 0, 64, 120
1, 56305, Note_off_c, 0, 70, 38
1, 56394, Control_c, 0, 64, 125
1, 56452, Note_off_c, 0, 58, 36
1, 56504, Note_on_c, 0, 66, 71
1, 56517, Control_c, 0, 64, 118
1, 56525, Note_on_c, 0, 54, 55
1, 56536, Control_c, 0, 64, 109
1, 56555, Control_c, 0, 64, 100
1, 56573, Control_c, 0, 64, 96
1, 56609, Control_c, 0, 64, 102
1, 56628, Control_c, 0, 64, 108
1, 56646, Control_c, 0, 64, 113
1, 56655, Note_off_c, 0, 67, 57
1, 56713, Note_off_c, 0, 66, 66
1, 56714, Note_on_c, 0, 70, 74
1, 56719, Note_off_c, 0, 54, 54
1, 56822, Note_off_c, 0, 70, 62
1, 56906, Control_c, 0, 64, 103
1, 56922, Control_c, 0, 64, 87
1, 56926, Note_on_c, 0, 64, 57
1, 56935, Note_on_c, 0, 70, 70
1, 56938, Note_on_c, 0, 52, 47
1, 56941, Control_c, 0, 64, 64
1, 56961, Control_c, 0, 64, 28
1, 56978, Control_c, 0, 64, 18
1, 56995, Control_c, 0, 64, 35
1, 56996, Control_c, 0, 67, 8
1, 57015, Control_c, 0, 64, 57
1, 57033, Control_c, 0, 64, 69
1, 57051, Control_c, 0, 64, 79
1, 57052, Control_c, 0, 67, 13
1, 57069, Control_c, 0, 64, 93
1, 57071, Control_c, 0, 67, 17
1, 57077, Note_off_c, 0, 64, 62
1, 57089, Control_c, 0, 64, 107
1, 57106, Control_c, 0, 64, 118
1, 57107, Control_c, 0, 67, 22
1, 57139, Note_off_c, 0, 52, 47
1, 57358, Note_off_c, 0, 76, 35
1, 57364, Note_off_c, 0, 70, 56
1, 57376, Note_on_c, 0, 47, 48
1, 57382, Control_c, 0, 64, 108
1, 57402, Control_c, 0, 64, 91
1, 57420, Control_c, 0, 64, 65
1, 57452, Control_c, 0, 64, 0
1, 57482, Note_on_c, 0, 71, 64
1, 57525, Control_c, 0, 64, 23
1, 57544, Control_c, 0, 64, 50
1, 57563, Control_c, 0, 64, 63
1, 57577, Note_off_c, 0, 47, 63
1, 57580, Control_c, 0, 64, 70
1, 57600, Control_c, 0, 64, 77
1, 57618, Control_c, 0, 64, 85
1, 57637, Control_c, 0, 64, 93
1, 57655, Control_c, 0, 64, 99
1, 57691, Control_c, 0, 64, 104
1, 57728, Control_c, 0, 64, 109
1, 57756, Note_on_c, 0, 63, 61
1, 57763, Control_c, 0, 64, 116
1, 57773, Note_on_c, 0, 54, 43
1, 57789, Note_on_c, 0, 51, 40
1, 57846, Note_off_c, 0, 54, 54
1, 57851, Note_off_c, 0, 51, 51
1, 57857, Control_c, 0, 64, 120
1, 57878, Note_off_c, 0, 63, 54
1, 57998, Note_on_c, 0, 63, 63
1, 58003, Note_on_c, 0, 54, 46
1, 58015, Note_on_c, 0, 51, 39
1, 58102, Note_off_c, 0, 63, 58
1, 58115, Note_off_c, 0, 51, 55
1, 58130, Note_off_c, 0, 54, 48
1, 58171, Note_on_c, 0, 83, 66
1, 58292, Note_off_c, 0, 83, 60
1, 58355, Control_c, 0, 64, 114
1, 58388, Control_c, 0, 64, 107
1, 58406, Control_c, 0, 64, 90
1, 58416, Note_on_c, 0, 83, 75
1, 58425, Control_c, 0, 64, 67
1, 58425, Note_on_c, 0, 61, 49
1, 58426, Note_on_c, 0, 52, 47
1, 58432, Note_on_c, 0, 49, 41
1, 58442, Control_c, 0, 64, 40
1, 58478, Control_c, 0, 64, 44
1, 58498, Control_c, 0, 64, 54
1, 58515, Control_c, 0, 64, 62
1, 58534, Control_c, 0, 64, 67
1, 58553, Control_c, 0, 64, 72
1, 58572, Control_c, 0, 64, 77
1, 58590, Control_c, 0, 64, 83
1, 58601, Note_off_c, 0, 61, 63
1, 58607, Control_c, 0, 64, 87
1, 58645, Control_c, 0, 64, 94
1, 58690, Note_off_c, 0, 71, 52
1, 58699, Control_c, 0, 67, 18
1, 58718, Control_c, 0, 64, 98
1, 58748, Note_off_c, 0, 49, 30
1, 58830, Control_c, 0, 67, 14
1, 58865, Note_on_c, 0, 47, 40
1, 58884, Control_c, 0, 64, 94
1, 58920, Control_c, 0, 64, 84
1, 58924, Note_on_c, 0, 71, 66
1, 58939, Control_c, 0, 64, 70
1, 58947, Note_off_c, 0, 52, 41
1, 58957, Control_c, 0, 64, 47
1, 58976, Control_c, 0, 64, 0
1, 59032, Control_c, 0, 64, 11
1, 59050, Control_c, 0, 64, 32
1, 59068, Control_c, 0, 64, 49
1, 59075, Note_off_c, 0, 83, 52
1, 59086, Control_c, 0, 64, 59
1, 59105, Control_c, 0, 64, 63
1, 59124, Control_c, 0, 64, 66
1, 59141, Control_c, 0, 64, 68
1, 59160, Control_c, 0, 64, 72
1, 59177, Control_c, 0, 64, 76
1, 59191, Note_on_c, 0, 59, 37
1, 59193, Note_on_c, 0, 51, 39
1, 59196, Control_c, 0, 64, 83
1, 59216, Control_c, 0, 64, 89
1, 59234, Control_c, 0, 64, 94
1, 59253, Control_c, 0, 64, 98
1, 59270, Note_off_c, 0, 51, 48
1, 59290, Control_c, 0, 64, 105
1, 59314, Note_off_c, 0, 59, 51
1, 59484, Note_on_c, 0, 51, 43
1, 59491, Note_on_c, 0, 59, 46
1, 59525, Control_c, 0, 64, 109
1, 59615, Control_c, 0, 67, 18
1, 59641, Note_off_c, 0, 59, 51
1, 59642, Note_off_c, 0, 51, 37
1, 59738, Note_on_c, 0, 83, 59
1, 59818, Poly_aftertouch_c, 0, 77, 0
1, 59940, Note_off_c, 0, 83, 57
1, 60021, Control_c, 0, 64, 104
1, 60091, Note_on_c, 0, 57, 31
1, 60094, Note_on_c, 0, 49, 37
1, 60107, Note_on_c, 0, 83, 50
1, 60112, Control_c, 0, 64, 99
1, 60131, Control_c, 0, 64, 95
1, 60150, Control_c, 0, 64, 87
1, 60169, Control_c, 0, 64, 74
1, 60187, Control_c, 0, 64, 52
1, 60206, Control_c, 0, 64, 0
1, 60207, Control_c, 0, 67, 22
1, 60294, Control_c, 0, 64, 30
1, 60313, Control_c, 0, 64, 50
1, 60314, Control_c, 0, 67, 27
1, 60329, Control_c, 0, 64, 62
1, 60349, Control_c, 0, 64, 68
1, 60350, Control_c, 0, 67, 31
1, 60367, Control_c, 0, 64, 74
1, 60385, Note_off_c, 0, 57, 52
1, 60385, Control_c, 0, 64, 81
1, 60385, Control_c, 0, 67, 36
1, 60402, Control_c, 0, 64, 90
1, 60421, Control_c, 0, 64, 98
1, 60422, Control_c, 0, 67, 40
1, 60440, Control_c, 0, 64, 104
1, 60466, Note_off_c, 0, 83, 61
1, 60468, Note_off_c, 0, 49, 41
1, 60470, Note_off_c, 0, 47, 42
1, 60475, Control_c, 0, 64, 109
1, 60475, Control_c, 0, 67, 44
1, 60514, Control_c, 0, 64, 113
1, 60523, Note_off_c, 0, 71, 55
1, 60531, Control_c, 0, 67, 48
1, 60586, Control_c, 0, 67, 53
1, 60623, Control_c, 0, 64, 117
1, 60660, Control_c, 0, 67, 57
1, 60852, Note_on_c, 0, 40, 43
1, 60936, Control_c, 0, 64, 110
1, 60954, Control_c, 0, 64, 97
1, 60972, Note_on_c, 0, 47, 33
1, 60973, Control_c, 0, 64, 73
1, 60992, Control_c, 0, 64, 41
1, 61009, Control_c, 0, 64, 0
1, 61017, Note_on_c, 0, 71, 63
1, 61035, Note_on_c, 0, 68, 40
1, 61049, Control_c, 0, 64, 32
1, 61066, Control_c, 0, 64, 52
1, 61084, Note_off_c, 0, 40, 51
1, 61086, Control_c, 0, 64, 64
1, 61103, Control_c, 0, 64, 71
1, 61118, Note_off_c, 0, 47, 58
1, 61121, Control_c, 0, 64, 80
1, 61142, Control_c, 0, 64, 91
1, 61160, Control_c, 0, 64, 103
1, 61191, Control_c, 0, 64, 111
1, 61265, Control_c, 0, 64, 115
1, 61290, Note_off_c, 0, 68, 55
1, 61313, Note_off_c, 0, 71, 60
1, 61319, Control_c, 0, 64, 120
1, 61364, Note_on_c, 0, 59, 47
1, 61372, Note_on_c, 0, 56, 40
1, 61424, Note_off_c, 0, 56, 61
1, 61449, Note_off_c, 0, 59, 58
1, 61584, Note_on_c, 0, 56, 37
1, 61604, Note_on_c, 0, 59, 45
1, 61630, Note_off_c, 0, 56, 54
1, 61794, Note_on_c, 0, 83, 58
1, 61802, Note_off_c, 0, 59, 32
1, 61808, Note_on_c, 0, 71, 33
1, 61903, Note_off_c, 0, 71, 40
1, 61915, Note_off_c, 0, 83, 60
1, 62000, Note_on_c, 0, 64, 40
1, 62018, Note_on_c, 0, 56, 38
1, 62045, Note_on_c, 0, 83, 52
1, 62046, Note_off_c, 0, 64, 64
1, 62048, Note_on_c, 0, 71, 41
1, 62057, Control_c, 0, 64, 125
1, 62066, Note_off_c, 0, 56, 63
1, 62073, Note_on_c, 0, 76, 38
1, 62209, Note_off_c, 0, 83, 61
1, 62255, Control_c, 0, 67, 53
1, 62262, Note_off_c, 0, 76, 54
1, 62301, Note_off_c, 0, 71, 50
1, 62386, Control_c, 0, 67, 47
1, 62403, Control_c, 0, 67, 42
1, 62421, Control_c, 0, 67, 35
1, 62421, Note_on_c, 0, 42, 46
1, 62439, Control_c, 0, 64, 117
1, 62440, Control_c, 0, 67, 26
1, 62457, Control_c, 0, 64, 83
1, 62459, Control_c, 0, 67, 17
1, 62476, Control_c, 0, 64, 0
1, 62489, Note_on_c, 0, 47, 41
1, 62514, Control_c, 0, 67, 0
1, 62523, Note_on_c, 0, 81, 74
1, 62536, Note_on_c, 0, 75, 47
1, 62547, Note_on_c, 0, 69, 49
1, 62549, Control_c, 0, 64, 55
1, 62569, Control_c, 0, 64, 78
1, 62586, Control_c, 0, 64, 111
1, 62593, Note_off_c, 0, 42, 55
1, 62595, Note_off_c, 0, 47, 61
1, 62605, Control_c, 0, 64, 127
1, 62756, Note_on_c, 0, 59, 50
1, 62766, Note_on_c, 0, 57, 50
1, 62772, Note_off_c, 0, 69, 53
1, 62809, Note_off_c, 0, 57, 63
1, 62820, Note_off_c, 0, 59, 52
1, 62883, Note_off_c, 0, 81, 61
1, 62944, Note_on_c, 0, 59, 65
1, 62947, Note_on_c, 0, 57, 55
1, 62999, Note_off_c, 0, 57, 58
1, 63053, Note_off_c, 0, 59, 58
1, 63144, Note_on_c, 0, 83, 82
1, 63163, Note_on_c, 0, 71, 40
1, 63238, Note_off_c, 0, 71, 38
1, 63252, Note_off_c, 0, 75, 49
1, 63297, Note_off_c, 0, 83, 63
1, 63359, Note_on_c, 0, 63, 53
1, 63369, Note_on_c, 0, 57, 43
1, 63397, Note_on_c, 0, 83, 83
1, 63399, Note_off_c, 0, 63, 63
1, 63410, Note_on_c, 0, 75, 57
1, 63412, Note_off_c, 0, 57, 65
1, 63448, Note_on_c, 0, 71, 30
1, 63510, Note_off_c, 0, 71, 54
1, 63513, Note_off_c, 0, 75, 36
1, 63593, Note_off_c, 0, 83, 61
1, 63670, Note_on_c, 0, 40, 52
1, 63771, Note_on_c, 0, 47, 53
1, 63818, Control_c, 0, 64, 95
1, 63827, Note_on_c, 0, 80, 80
1, 63831, Note_on_c, 0, 76, 65
1, 63835, Control_c, 0, 64, 59
1, 63846, Note_on_c, 0, 68, 51
1, 63852, Control_c, 0, 64, 0
1, 63868, Note_off_c, 0, 40, 61
1, 63872, Control_c, 0, 64, 18
1, 63891, Control_c, 0, 64, 47
1, 63905, Note_off_c, 0, 47, 64
1, 63909, Control_c, 0, 64, 69
1, 63931, Control_c, 0, 64, 91
1, 63947, Control_c, 0, 64, 125
1, 64023, Note_off_c, 0, 68, 60
1, 64066, Note_on_c, 0, 59, 64
1, 64084, Note_on_c, 0, 56, 56
1, 64137, Note_off_c, 0, 56, 62
1, 64146, Note_off_c, 0, 59, 60
1, 64206, Note_off_c, 0, 80, 55
1, 64274, Note_on_c, 0, 59, 73
1, 64275, Note_on_c, 0, 56, 54
1, 64309, Note_off_c, 0, 56, 66
1, 64456, Note_on_c, 0, 83, 87
1, 64458, Note_off_c, 0, 59, 64
1, 64463, Note_on_c, 0, 56, 50
1, 64483, Note_on_c, 0, 71, 34
1, 64503, Note_off_c, 0, 76, 65
1, 64527, Note_off_c, 0, 71, 49
1, 64569, Note_off_c, 0, 56, 60
1, 64572, Note_off_c, 0, 83, 64
1, 64652, Note_on_c, 0, 68, 56
1, 64704, Note_on_c, 0, 88, 81
1, 64713, Note_on_c, 0, 83, 60
1, 64718, Note_off_c, 0, 68, 62
1, 64721, Note_on_c, 0, 76, 49
1, 64782, Note_off_c, 0, 83, 0
1, 64807, Note_off_c, 0, 76, 0
1, 64904, Poly_aftertouch_c, 0, 76, 0
1, 64962, Note_off_c, 0, 88, 64
1, 65083, Note_on_c, 0, 35, 41
1, 65192, Note_on_c, 0, 87, 74
1, 65207, Note_on_c, 0, 81, 59
1, 65210, Note_on_c, 0, 75, 58
1, 65211, Control_c, 0, 64, 109
1, 65217, Note_on_c, 0, 47, 46
1, 65231, Control_c, 0, 64, 72
1, 65239, Poly_aftertouch_c, 0, 83, 0
1, 65246, Control_c, 0, 64, 0
1, 65264, Note_off_c, 0, 35, 44
1, 65302, Control_c, 0, 64, 44
1, 65322, Control_c, 0, 64, 63
1, 65332, Note_off_c, 0, 47, 63
1, 65340, Control_c, 0, 64, 76
1, 65359, Control_c, 0, 64, 94
1, 65378, Control_c, 0, 64, 115
1, 65394, Control_c, 0, 64, 127
1, 65573, Note_off_c, 0, 75, 38
1, 65585, Note_off_c, 0, 87, 57
1, 65633, Note_on_c, 0, 66, 49
1, 65654, Note_on_c, 0, 57, 18
1, 65712, Note_off_c, 0, 66, 60
1, 65723, Note_off_c, 0, 57, 42
1, 65737, Note_off_c, 0, 81, 57
1, 65894, Note_on_c, 0, 66, 48
1, 65896, Note_on_c, 0, 57, 33
1, 65953, Note_off_c, 0, 57, 44
1, 66065, Note_off_c, 0, 66, 38
1, 66071, Note_on_c, 0, 85, 73
1, 66093, Note_on_c, 0, 73, 45
1, 66159, Note_off_c, 0, 73, 60
1, 66172, Note_off_c, 0, 85, 58
1, 66279, Note_on_c, 0, 59, 40
1, 66301, Note_on_c, 0, 63, 44
1, 66365, Note_off_c, 0, 63, 58
1, 66380, Note_on_c, 0, 81, 66
1, 66399, Note_on_c, 0, 78, 51
1, 66399, Note_on_c, 0, 69, 45
1, 66403, Note_off_c, 0, 59, 59
1, 66574, Note_off_c, 0, 69, 60
1, 66637, Note_off_c, 0, 78, 54
1, 66725, Note_on_c, 0, 40, 39
1, 66841, Note_on_c, 0, 47, 51
1, 66862, Control_c, 0, 64, 109
1, 66878, Control_c, 0, 64, 76
1, 66886, Note_off_c, 0, 81, 64
1, 66893, Note_on_c, 0, 76, 54
1, 66897, Note_on_c, 0, 80, 66
1, 66897, Control_c, 0, 64, 30
1, 66907, Note_on_c, 0, 68, 43
1, 66915, Control_c, 0, 64, 0
1, 66951, Note_off_c, 0, 40, 56
1, 66953, Control_c, 0, 64, 37
1, 66973, Control_c, 0, 64, 59
1, 66979, Note_off_c, 0, 47, 64
1, 66993, Control_c, 0, 64, 70
1, 67010, Control_c, 0, 64, 83
1, 67029, Control_c, 0, 64, 99
1, 67045, Control_c, 0, 64, 113
1, 67065, Control_c, 0, 64, 121
1, 67099, Note_off_c, 0, 68, 52
1, 67136, Note_on_c, 0, 59, 59
1, 67156, Note_on_c, 0, 56, 48
1, 67175, Control_c, 0, 64, 126
1, 67215, Note_off_c, 0, 56, 64
1, 67232, Note_off_c, 0, 59, 60
1, 67342, Note_on_c, 0, 59, 64
1, 67346, Note_on_c, 0, 56, 56
1, 67396, Note_off_c, 0, 56, 61
1, 67433, Poly_aftertouch_c, 0, 76, 24
1, 67483, Note_off_c, 0, 76, 0
1, 67492, Note_off_c, 0, 80, 19
1, 67514, Note_on_c, 0, 76, 26
1, 67518, Note_on_c, 0, 83, 77
1, 67530, Note_on_c, 0, 71, 58
1, 67624, Note_off_c, 0, 71, 56
1, 67632, Note_off_c, 0, 59, 57
1, 67639, Note_off_c, 0, 76, 52
1, 67646, Note_off_c, 0, 83, 59
1, 67709, Note_on_c, 0, 56, 60
1, 67711, Note_on_c, 0, 64, 49
1, 67756, Note_off_c, 0, 64, 60
1, 67759, Note_off_c, 0, 56, 67
1, 67760, Note_on_c, 0, 83, 82
1, 67771, Note_on_c, 0, 80, 62
1, 67775, Note_on_c, 0, 71, 64
1, 67882, Note_off_c, 0, 80, 53
1, 67937, Note_off_c, 0, 83, 53
1, 67952, Note_off_c, 0, 71, 35
1, 67968, Note_on_c, 0, 39, 61
1, 68036, Control_c, 0, 64, 98
1, 68054, Control_c, 0, 64, 60
1, 68065, Note_on_c, 0, 47, 63
1, 68065, Control_c, 0, 64, 22
1, 68083, Control_c, 0, 64, 38
1, 68102, Control_c, 0, 64, 59
1, 68118, Note_off_c, 0, 39, 61
1, 68119, Control_c, 0, 64, 79
1, 68133, Note_on_c, 0, 83, 83
1, 68138, Control_c, 0, 64, 112
1, 68139, Note_off_c, 0, 47, 62
1, 68146, Note_on_c, 0, 80, 67
1, 68150, Note_on_c, 0, 71, 65
1, 68157, Control_c, 0, 64, 127
1, 68194, Note_off_c, 0, 71, 55
1, 68298, Note_off_c, 0, 83, 62
1, 68314, Note_off_c, 0, 80, 57
1, 68319, Note_on_c, 0, 59, 63
1, 68326, Note_on_c, 0, 56, 62
1, 68375, Note_off_c, 0, 56, 62
1, 68396, Note_off_c, 0, 59, 59
1, 68532, Note_on_c, 0, 59, 74
1, 68549, Note_on_c, 0, 56, 51
1, 68586, Note_off_c, 0, 56, 65
1, 68754, Note_on_c, 0, 92, 87
1, 68763, Note_on_c, 0, 80, 69
1, 68790, Note_off_c, 0, 59, 64
1, 68801, Note_on_c, 0, 56, 59
1, 68830, Note_off_c, 0, 80, 48
1, 68856, Note_off_c, 0, 92, 62
1, 68968, Note_on_c, 0, 68, 55
1, 68969, Note_off_c, 0, 56, 0
1, 68991, Note_on_c, 0, 56, 11
1, 69010, Note_on_c, 0, 92, 88
1, 69019, Note_off_c, 0, 68, 66
1, 69020, Note_on_c, 0, 83, 74
1, 69025, Note_on_c, 0, 80, 69
1, 69050, Note_off_c, 0, 56, 62
1, 69089, Note_off_c, 0, 92, 66
1, 69093, Note_off_c, 0, 83, 62
1, 69098, Note_off_c, 0, 80, 64
1, 69461, Control_c, 0, 64, 94
1, 69480, Note_on_c, 0, 35, 57
1, 69480, Control_c, 0, 64, 57
1, 69487, Note_on_c, 0, 47, 48
1, 69495, Note_on_c, 0, 83, 84
1, 69499, Control_c, 0, 64, 33
1, 69503, Note_on_c, 0, 71, 64
1, 69515, Control_c, 0, 64, 42
1, 69534, Control_c, 0, 64, 60
1, 69542, Note_off_c, 0, 71, 64
1, 69553, Control_c, 0, 64, 79
1, 69554, Note_off_c, 0, 35, 60
1, 69571, Control_c, 0, 64, 111
1, 69605, Control_c, 0, 64, 127
1, 69623, Note_off_c, 0, 83, 63
1, 69638, Note_off_c, 0, 47, 63
1, 69750, Note_on_c, 0, 92, 82
1, 69754, Note_on_c, 0, 80, 69
1, 69912, Note_off_c, 0, 80, 49
1, 69982, Note_off_c, 0, 92, 63
1, 70028, Control_c, 0, 67, 8
1, 70037, Note_on_c, 0, 93, 75
1, 70043, Note_on_c, 0, 57, 40
1, 70046, Note_on_c, 0, 85, 59
1, 70049, Note_on_c, 0, 81, 50
1, 70055, Note_on_c, 0, 66, 40
1, 70064, Note_on_c, 0, 61, 37
1, 70065, Control_c, 0, 64, 88
1, 70084, Control_c, 0, 64, 45
1, 70102, Control_c, 0, 64, 0
1, 70102, Control_c, 0, 67, 12
1, 70141, Control_c, 0, 64, 9
1, 70156, Control_c, 0, 64, 49
1, 70164, Note_off_c, 0, 66, 62
1, 70175, Control_c, 0, 64, 69
1, 70176, Control_c, 0, 67, 17
1, 70194, Control_c, 0, 64, 85
1, 70213, Control_c, 0, 64, 108
1, 70214, Control_c, 0, 67, 22
1, 70219, Note_off_c, 0, 93, 63
1, 70222, Note_off_c, 0, 61, 56
1, 70232, Control_c, 0, 64, 127
1, 70242, Note_off_c, 0, 81, 63
1, 70244, Note_off_c, 0, 57, 53
1, 70248, Control_c, 0, 67, 26
1, 70279, Note_off_c, 0, 85, 63
1, 70304, Control_c, 0, 67, 31
1, 70395, Control_c, 0, 67, 36
1, 70450, Control_c, 0, 67, 40
1, 70524, Control_c, 0, 67, 45
1, 70577, Control_c, 0, 67, 49
1, 70650, Control_c, 0, 67, 54
1, 70687, Note_on_c, 0, 87, 66
1, 70687, Control_c, 0, 64, 111
1, 70688, Note_on_c, 0, 54, 40
1, 70689, Note_on_c, 0, 47, 42
1, 70697, Note_on_c, 0, 83, 52
1, 70700, Note_on_c, 0, 59, 36
1, 70706, Control_c, 0, 64, 82
1, 70708, Control_c, 0, 67, 58
1, 70716, Note_on_c, 0, 75, 43
1, 70725, Control_c, 0, 64, 62
1, 70762, Control_c, 0, 64, 70
1, 70781, Control_c, 0, 64, 86
1, 70783, Control_c, 0, 67, 62
1, 70786, Note_off_c, 0, 59, 59
1, 70792, Note_off_c, 0, 54, 60
1, 70800, Control_c, 0, 64, 107
1, 70819, Control_c, 0, 64, 127
1, 70819, Control_c, 0, 67, 66
1, 70845, Note_off_c, 0, 47, 48
1, 70921, Note_off_c, 0, 75, 57
1, 70931, Note_on_c, 0, 81, 58
1, 70932, Note_off_c, 0, 87, 57
1, 70987, Note_off_c, 0, 81, 53
1, 71114, Control_c, 0, 67, 70
1, 71163, Note_on_c, 0, 40, 41
1, 71186, Control_c, 0, 64, 111
1, 71187, Control_c, 0, 67, 76
1, 71197, Note_off_c, 0, 83, 28
1, 71205, Control_c, 0, 64, 84
1, 71221, Note_on_c, 0, 88, 54
1, 71223, Control_c, 0, 64, 52
1, 71229, Note_on_c, 0, 80, 37
1, 71242, Control_c, 0, 64, 0
1, 71254, Note_on_c, 0, 76, 38
1, 71260, Control_c, 0, 67, 81
1, 71280, Control_c, 0, 67, 85
1, 71316, Control_c, 0, 67, 90
1, 71333, Control_c, 0, 64, 29
1, 71354, Control_c, 0, 64, 57
1, 71371, Control_c, 0, 64, 70
1, 71390, Control_c, 0, 64, 80
1, 71393, Note_off_c, 0, 40, 55
1, 71409, Control_c, 0, 64, 91
1, 71428, Control_c, 0, 64, 106
1, 71447, Control_c, 0, 64, 122
1, 71464, Control_c, 0, 64, 127
1, 71988, Note_on_c, 0, 56, 33
1, 71994, Note_on_c, 0, 59, 31
1, 72086, Control_c, 0, 67, 94
1, 72226, Note_off_c, 0, 56, 21
1, 72285, Note_off_c, 0, 59, 41
1, 72344, Note_off_c, 0, 76, 45
1, 72371, Note_off_c, 0, 80, 39
1, 72436, Note_off_c, 0, 88, 37
1, 72561, Control_c, 0, 67, 98
1, 72744, Control_c, 0, 64, 123
1, 72798, Control_c, 0, 64, 118
1, 72853, Control_c, 0, 64, 114
1, 72910, Control_c, 0, 64, 110
1, 72947, Control_c, 0, 67, 102
1, 72965, Control_c, 0, 64, 106
1, 73038, Control_c, 0, 64, 101
1, 73074, Control_c, 0, 64, 97
1, 73112, Control_c, 0, 64, 91
1, 73149, Control_c, 0, 64, 85
1, 73169, Control_c, 0, 64, 80
1, 73185, Control_c, 0, 64, 76
1, 73204, Control_c, 0, 64, 71
1, 73223, Control_c, 0, 64, 68
1, 73242, Control_c, 0, 64, 65
1, 73260, Control_c, 0, 64, 64
1, 73278, Control_c, 0, 64, 63
1, 73298, Control_c, 0, 64, 62
1, 73299, Control_c, 0, 67, 106
1, 73334, Control_c, 0, 64, 61
1, 73405, Control_c, 0, 64, 58
1, 73458, Control_c, 0, 64, 56
1, 73550, Control_c, 0, 64, 53
1, 73588, Control_c, 0, 64, 50
1, 73643, Control_c, 0, 64, 48
1, 73660, Control_c, 0, 64, 45
1, 73679, Control_c, 0, 64, 42
1, 73716, Control_c, 0, 64, 37
1, 73751, Control_c, 0, 64, 33
1, 73771, Control_c, 0, 64, 22
1, 73788, Control_c, 0, 64, 8
1, 73808, Control_c, 0, 64, 0
1, 73883, Control_c, 0, 67, 102
1, 74103, Control_c, 0, 67, 98
1, 74249, Control_c, 0, 67, 93
1, 74522, Control_c, 0, 67, 89
1, 74724, Control_c, 0, 67, 85
1, 74780, Control_c, 0, 67, 81
1, 74834, Control_c, 0, 67, 75
1, 74853, Control_c, 0, 67, 70
1, 74872, Control_c, 0, 67, 63
1, 74880, End_track
0, 0, End_of_file
