0, 0, Header, 0, 1, 480
1, 0, Start_track
1, 0, Title_t, "16 Waltzes Op.39"
1, 0, Copyright_t, "                  "
1, 0, Tempo, 512820
1, 0, Time_signature, 4, 2, 24, 8
1, 1945, Control_c, 0, 67, 8
1, 1982, Control_c, 0, 67, 14
1, 2019, Control_c, 0, 67, 19
1, 2056, Control_c, 0, 67, 25
1, 2072, Control_c, 0, 67, 29
1, 2089, Note_on_c, 0, 37, 46
1, 2090, Control_c, 0, 67, 33
1, 2098, Note_on_c, 0, 92, 56
1, 2109, Control_c, 0, 67, 38
1, 2128, Control_c, 0, 67, 43
1, 2132, Note_off_c, 0, 37, 53
1, 2145, Note_off_c, 0, 92, 65
1, 2146, Control_c, 0, 67, 49
1, 2166, Control_c, 0, 67, 58
1, 2185, Control_c, 0, 67, 67
1, 2203, Control_c, 0, 67, 74
1, 2236, Control_c, 0, 67, 79
1, 2253, Control_c, 0, 67, 83
1, 2273, Control_c, 0, 67, 88
1, 2291, Control_c, 0, 67, 93
1, 2309, Control_c, 0, 67, 99
1, 2326, Control_c, 0, 67, 103
1, 2369, Note_on_c, 0, 77, 51
1, 2396, Note_off_c, 0, 77, 62
1, 2532, Note_on_c, 0, 68, 35
1, 2533, Note_on_c, 0, 80, 49
1, 2534, Note_on_c, 0, 61, 40
1, 2549, Note_on_c, 0, 56, 34
1, 2565, Note_off_c, 0, 80, 58
1, 2570, Note_off_c, 0, 61, 57
1, 2575, Note_off_c, 0, 68, 47
1, 2585, Note_off_c, 0, 56, 60
1, 2652, Note_on_c, 0, 89, 62
1, 2685, Note_off_c, 0, 89, 66
1, 2795, Note_on_c, 0, 41, 67
1, 2796, Note_on_c, 0, 85, 65
1, 2819, Note_off_c, 0, 85, 68
1, 2831, Note_off_c, 0, 41, 64
1, 2929, Note_on_c, 0, 68, 73
1, 2959, Note_off_c, 0, 68, 70
1, 3063, Note_on_c, 0, 73, 73
1, 3064, Note_on_c, 0, 61, 59
1, 3076, Note_on_c, 0, 65, 48
1, 3079, Note_on_c, 0, 56, 47
1, 3091, Note_off_c, 0, 73, 72
1, 3100, Note_off_c, 0, 61, 63
1, 3108, Note_off_c, 0, 65, 57
1, 3110, Note_off_c, 0, 56, 57
1, 3200, Note_on_c, 0, 80, 74
1, 3227, Note_off_c, 0, 80, 71
1, 3331, Note_on_c, 0, 42, 58
1, 3337, Note_on_c, 0, 82, 60
1, 3370, Note_off_c, 0, 82, 66
1, 3371, Note_off_c, 0, 42, 64
1, 3485, Note_on_c, 0, 66, 40
1, 3521, Note_off_c, 0, 66, 54
1, 3600, Note_on_c, 0, 70, 64
1, 3609, Note_on_c, 0, 58, 40
1, 3620, Note_on_c, 0, 54, 39
1, 3626, Note_on_c, 0, 63, 20
1, 3631, Note_off_c, 0, 70, 67
1, 3641, Note_off_c, 0, 58, 50
1, 3653, Note_off_c, 0, 54, 55
1, 3677, Note_off_c, 0, 63, 31
1, 3720, Note_on_c, 0, 78, 69
1, 3752, Note_off_c, 0, 78, 68
1, 3850, Note_on_c, 0, 44, 51
1, 3862, Note_on_c, 0, 75, 58
1, 3892, Note_off_c, 0, 44, 64
1, 3897, Note_off_c, 0, 75, 68
1, 3977, Note_on_c, 0, 72, 60
1, 3999, Note_off_c, 0, 72, 66
1, 4125, Note_on_c, 0, 80, 77
1, 4137, Note_on_c, 0, 66, 54
1, 4140, Note_on_c, 0, 56, 51
1, 4142, Note_on_c, 0, 68, 56
1, 4158, Note_off_c, 0, 80, 64
1, 4167, Note_off_c, 0, 66, 61
1, 4169, Note_off_c, 0, 68, 61
1, 4180, Note_off_c, 0, 56, 61
1, 4244, Note_on_c, 0, 70, 76
1, 4269, Note_off_c, 0, 70, 74
1, 4330, Control_c, 0, 67, 107
1, 4372, Note_on_c, 0, 78, 80
1, 4389, Note_on_c, 0, 63, 48
1, 4391, Note_on_c, 0, 72, 59
1, 4398, Note_off_c, 0, 78, 72
1, 4411, Note_on_c, 0, 56, 41
1, 4416, Note_off_c, 0, 72, 64
1, 4418, Note_off_c, 0, 63, 57
1, 4448, Note_off_c, 0, 56, 48
1, 4461, Control_c, 0, 67, 112
1, 4489, Note_on_c, 0, 75, 83
1, 4519, Note_off_c, 0, 75, 67
1, 4535, Control_c, 0, 67, 117
1, 4589, Control_c, 0, 67, 122
1, 4621, Note_on_c, 0, 77, 80
1, 4625, Control_c, 0, 67, 127
1, 4639, Note_on_c, 0, 49, 47
1, 4640, Note_on_c, 0, 73, 52
1, 4648, Note_off_c, 0, 77, 69
1, 4668, Note_off_c, 0, 73, 60
1, 4680, Note_off_c, 0, 49, 55
1, 4739, Note_on_c, 0, 75, 71
1, 4769, Note_off_c, 0, 75, 71
1, 4874, Note_on_c, 0, 83, 66
1, 4874, Note_on_c, 0, 77, 61
1, 4877, Note_on_c, 0, 56, 53
1, 4896, Note_off_c, 0, 77, 65
1, 4905, Note_off_c, 0, 83, 67
1, 4911, Note_on_c, 0, 65, 17
1, 4923, Note_off_c, 0, 56, 63
1, 4966, Note_off_c, 0, 65, 26
1, 4971, Poly_aftertouch_c, 0, 61, 0
1, 4991, Note_on_c, 0, 80, 62
1, 5013, Note_off_c, 0, 80, 67
1, 5142, Note_on_c, 0, 82, 64
1, 5163, Note_on_c, 0, 78, 31
1, 5163, Note_on_c, 0, 61, 28
1, 5164, Note_on_c, 0, 54, 53
1, 5176, Note_off_c, 0, 82, 70
1, 5197, Note_off_c, 0, 78, 34
1, 5199, Note_off_c, 0, 61, 53
1, 5211, Note_off_c, 0, 54, 63
1, 5285, Note_on_c, 0, 73, 47
1, 5316, Note_off_c, 0, 73, 57
1, 5465, Note_on_c, 0, 37, 48
1, 5470, Note_on_c, 0, 92, 78
1, 5500, Note_off_c, 0, 92, 70
1, 5505, Note_off_c, 0, 37, 54
1, 5593, Note_on_c, 0, 77, 66
1, 5631, Note_off_c, 0, 77, 67
1, 5720, Note_on_c, 0, 80, 75
1, 5728, Note_on_c, 0, 61, 55
1, 5745, Note_off_c, 0, 80, 73
1, 5756, Note_off_c, 0, 61, 59
1, 5824, Note_on_c, 0, 89, 77
1, 5851, Note_off_c, 0, 89, 69
1, 5948, Note_on_c, 0, 85, 77
1, 5954, Note_on_c, 0, 41, 62
1, 5963, Note_off_c, 0, 85, 72
1, 5999, Note_off_c, 0, 41, 60
1, 6085, Note_on_c, 0, 68, 72
1, 6118, Note_off_c, 0, 68, 71
1, 6205, Note_on_c, 0, 73, 81
1, 6220, Control_c, 0, 67, 119
1, 6220, Note_on_c, 0, 61, 51
1, 6227, Note_on_c, 0, 65, 44
1, 6231, Note_off_c, 0, 73, 68
1, 6231, Note_on_c, 0, 56, 40
1, 6238, Control_c, 0, 67, 113
1, 6248, Note_off_c, 0, 61, 58
1, 6256, Control_c, 0, 67, 108
1, 6260, Note_off_c, 0, 65, 52
1, 6262, Note_off_c, 0, 56, 50
1, 6320, Note_on_c, 0, 80, 81
1, 6332, Control_c, 0, 67, 104
1, 6348, Note_off_c, 0, 80, 64
1, 6405, Control_c, 0, 67, 100
1, 6440, Control_c, 0, 67, 95
1, 6444, Note_on_c, 0, 82, 72
1, 6449, Note_on_c, 0, 46, 61
1, 6472, Note_off_c, 0, 82, 73
1, 6478, Control_c, 0, 67, 91
1, 6487, Note_off_c, 0, 46, 65
1, 6496, Control_c, 0, 67, 87
1, 6516, Control_c, 0, 67, 80
1, 6532, Control_c, 0, 67, 71
1, 6552, Control_c, 0, 67, 62
1, 6570, Control_c, 0, 67, 57
1, 6579, Note_on_c, 0, 65, 62
1, 6602, Note_off_c, 0, 65, 65
1, 6690, Note_on_c, 0, 68, 76
1, 6708, Note_on_c, 0, 58, 52
1, 6712, Note_on_c, 0, 53, 54
1, 6716, Note_on_c, 0, 62, 43
1, 6718, Note_off_c, 0, 68, 73
1, 6739, Note_off_c, 0, 58, 60
1, 6754, Note_off_c, 0, 62, 56
1, 6754, Note_off_c, 0, 53, 63
1, 6812, Note_on_c, 0, 77, 72
1, 6843, Note_off_c, 0, 77, 67
1, 6943, Note_on_c, 0, 78, 70
1, 6967, Note_on_c, 0, 51, 60
1, 6974, Note_off_c, 0, 78, 66
1, 7003, Note_off_c, 0, 51, 63
1, 7044, Control_c, 0, 67, 61
1, 7061, Note_on_c, 0, 70, 53
1, 7086, Note_off_c, 0, 70, 61
1, 7137, Control_c, 0, 67, 65
1, 7168, Note_on_c, 0, 87, 82
1, 7194, Note_on_c, 0, 75, 62
1, 7197, Note_on_c, 0, 58, 53
1, 7198, Note_on_c, 0, 66, 57
1, 7211, Control_c, 0, 67, 71
1, 7219, Note_off_c, 0, 75, 65
1, 7220, Note_off_c, 0, 87, 65
1, 7230, Note_on_c, 0, 54, 33
1, 7240, Note_off_c, 0, 66, 67
1, 7271, Note_off_c, 0, 58, 50
1, 7274, Note_off_c, 0, 54, 54
1, 7298, Note_on_c, 0, 77, 72
1, 7328, Note_off_c, 0, 77, 67
1, 7402, Note_on_c, 0, 84, 85
1, 7406, Note_on_c, 0, 63, 63
1, 7408, Note_on_c, 0, 53, 62
1, 7427, Note_on_c, 0, 78, 54
1, 7432, Note_off_c, 0, 84, 67
1, 7437, Note_on_c, 0, 57, 45
1, 7442, Note_off_c, 0, 63, 65
1, 7454, Note_off_c, 0, 78, 61
1, 7459, Note_off_c, 0, 53, 65
1, 7467, Note_off_c, 0, 57, 51
1, 7529, Note_on_c, 0, 75, 70
1, 7562, Note_off_c, 0, 75, 67
1, 7582, Note_on_c, 0, 46, 59
1, 7607, Note_on_c, 0, 53, 51
1, 7621, Note_off_c, 0, 46, 66
1, 7646, Note_on_c, 0, 82, 87
1, 7662, Note_on_c, 0, 61, 68
1, 7684, Note_off_c, 0, 82, 58
1, 7691, Note_off_c, 0, 61, 63
1, 7693, Note_off_c, 0, 53, 64
1, 7760, Note_on_c, 0, 73, 72
1, 7782, Control_c, 0, 67, 75
1, 7790, Note_off_c, 0, 73, 72
1, 7819, Control_c, 0, 67, 79
1, 7907, Note_on_c, 0, 70, 61
1, 7908, Control_c, 0, 67, 87
1, 7928, Control_c, 0, 67, 91
1, 7936, Note_off_c, 0, 70, 66
1, 7943, Control_c, 0, 67, 96
1, 7982, Control_c, 0, 67, 100
1, 8007, Note_on_c, 0, 61, 55
1, 8019, Control_c, 0, 67, 104
1, 8035, Note_off_c, 0, 61, 62
1, 8037, Control_c, 0, 67, 108
1, 8094, Control_c, 0, 67, 113
1, 8142, Note_on_c, 0, 58, 46
1, 8148, Control_c, 0, 67, 117
1, 8192, Note_off_c, 0, 58, 59
1, 8239, Control_c, 0, 67, 121
1, 8269, Note_on_c, 0, 49, 43
1, 8308, Note_off_c, 0, 49, 52
1, 8422, Note_on_c, 0, 92, 71
1, 8442, Note_on_c, 0, 37, 59
1, 8454, Note_off_c, 0, 92, 70
1, 8475, Note_off_c, 0, 37, 58
1, 8591, Note_on_c, 0, 77, 64
1, 8623, Note_off_c, 0, 77, 67
1, 8700, Note_on_c, 0, 80, 74
1, 8700, Note_on_c, 0, 68, 65
1, 8712, Note_on_c, 0, 61, 54
1, 8724, Note_off_c, 0, 80, 71
1, 8732, Note_off_c, 0, 68, 68
1, 8741, Note_off_c, 0, 61, 60
1, 8811, Note_on_c, 0, 89, 80
1, 8844, Note_off_c, 0, 89, 65
1, 8933, Note_on_c, 0, 41, 72
1, 8939, Note_on_c, 0, 85, 74
1, 8961, Note_off_c, 0, 41, 66
1, 8964, Note_off_c, 0, 85, 72
1, 9050, Note_on_c, 0, 68, 80
1, 9080, Note_off_c, 0, 68, 68
1, 9180, Note_on_c, 0, 73, 83
1, 9189, Note_on_c, 0, 65, 51
1, 9191, Note_on_c, 0, 61, 51
1, 9196, Note_on_c, 0, 56, 49
1, 9207, Note_off_c, 0, 73, 65
1, 9219, Note_off_c, 0, 65, 59
1, 9221, Note_off_c, 0, 61, 60
1, 9228, Note_off_c, 0, 56, 58
1, 9288, Note_on_c, 0, 80, 84
1, 9327, Note_off_c, 0, 80, 57
1, 9344, Control_c, 0, 67, 125
1, 9417, Note_on_c, 0, 42, 61
1, 9421, Note_on_c, 0, 82, 72
1, 9449, Note_off_c, 0, 82, 73
1, 9449, Note_off_c, 0, 42, 59
1, 9545, Note_on_c, 0, 66, 60
1, 9570, Note_off_c, 0, 66, 65
1, 9658, Note_on_c, 0, 70, 72
1, 9677, Note_on_c, 0, 54, 49
1, 9685, Note_on_c, 0, 63, 30
1, 9687, Note_off_c, 0, 70, 74
1, 9711, Note_off_c, 0, 54, 60
1, 9743, Note_off_c, 0, 63, 33
1, 9775, Poly_aftertouch_c, 0, 58, 0
1, 9791, Note_on_c, 0, 78, 69
1, 9820, Note_off_c, 0, 78, 68
1, 9912, Note_on_c, 0, 44, 51
1, 9921, Note_on_c, 0, 75, 53
1, 9947, Note_off_c, 0, 44, 61
1, 9950, Note_off_c, 0, 75, 62
1, 10024, Note_on_c, 0, 72, 65
1, 10055, Note_off_c, 0, 72, 67
1, 10148, Note_on_c, 0, 80, 77
1, 10165, Note_on_c, 0, 68, 58
1, 10166, Note_on_c, 0, 56, 56
1, 10167, Note_on_c, 0, 66, 62
1, 10179, Note_off_c, 0, 80, 65
1, 10193, Note_off_c, 0, 68, 65
1, 10205, Note_off_c, 0, 66, 68
1, 10209, Note_off_c, 0, 56, 65
1, 10259, Note_on_c, 0, 70, 76
1, 10281, Note_off_c, 0, 70, 74
1, 10380, Note_on_c, 0, 78, 83
1, 10389, Note_on_c, 0, 72, 75
1, 10390, Note_on_c, 0, 63, 62
1, 10400, Note_on_c, 0, 56, 61
1, 10405, Note_off_c, 0, 78, 71
1, 10415, Note_off_c, 0, 72, 73
1, 10428, Note_off_c, 0, 63, 65
1, 10435, Note_off_c, 0, 56, 65
1, 10493, Note_on_c, 0, 75, 86
1, 10533, Note_off_c, 0, 75, 64
1, 10623, Note_on_c, 0, 49, 70
1, 10624, Note_on_c, 0, 77, 76
1, 10636, Note_on_c, 0, 73, 62
1, 10670, Note_off_c, 0, 77, 69
1, 10675, Note_off_c, 0, 73, 65
1, 10677, Note_off_c, 0, 49, 67
1, 10751, Note_on_c, 0, 75, 73
1, 10782, Note_off_c, 0, 75, 72
1, 10870, Note_on_c, 0, 83, 67
1, 10881, Note_on_c, 0, 56, 57
1, 10891, Note_on_c, 0, 77, 46
1, 10899, Note_on_c, 0, 61, 23
1, 10899, Note_off_c, 0, 61, 127
1, 10900, Note_off_c, 0, 83, 70
1, 10901, Note_on_c, 0, 65, 40
1, 10922, Note_off_c, 0, 56, 65
1, 10926, Note_off_c, 0, 77, 39
1, 10938, Note_off_c, 0, 65, 53
1, 10992, Note_on_c, 0, 80, 60
1, 11014, Note_off_c, 0, 80, 66
1, 11116, Note_on_c, 0, 82, 59
1, 11121, Note_on_c, 0, 78, 55
1, 11131, Note_on_c, 0, 54, 57
1, 11145, Note_off_c, 0, 78, 62
1, 11152, Note_off_c, 0, 82, 67
1, 11164, Poly_aftertouch_c, 0, 61, 0
1, 11170, Note_off_c, 0, 54, 64
1, 11238, Note_on_c, 0, 73, 57
1, 11262, Note_off_c, 0, 73, 65
1, 11409, Note_on_c, 0, 37, 48
1, 11424, Note_on_c, 0, 92, 71
1, 11452, Note_off_c, 0, 37, 51
1, 11453, Note_off_c, 0, 92, 70
1, 11548, Note_on_c, 0, 77, 51
1, 11577, Note_off_c, 0, 77, 59
1, 11680, Note_on_c, 0, 80, 69
1, 11681, Note_on_c, 0, 61, 61
1, 11683, Note_on_c, 0, 68, 52
1, 11706, Note_off_c, 0, 61, 62
1, 11707, Note_off_c, 0, 80, 70
1, 11713, Note_off_c, 0, 68, 58
1, 11783, Note_on_c, 0, 89, 74
1, 11810, Note_off_c, 0, 89, 70
1, 11905, Note_on_c, 0, 41, 70
1, 11905, Note_on_c, 0, 85, 71
1, 11923, Note_off_c, 0, 85, 69
1, 11935, Note_off_c, 0, 41, 66
1, 12020, Note_on_c, 0, 68, 73
1, 12051, Note_off_c, 0, 68, 72
1, 12144, Note_on_c, 0, 73, 79
1, 12147, Note_on_c, 0, 65, 62
1, 12151, Note_on_c, 0, 61, 54
1, 12154, Note_on_c, 0, 56, 57
1, 12167, Note_off_c, 0, 73, 74
1, 12173, Note_off_c, 0, 65, 65
1, 12179, Note_off_c, 0, 61, 62
1, 12194, Note_off_c, 0, 56, 67
1, 12247, Note_on_c, 0, 80, 88
1, 12284, Note_off_c, 0, 80, 55
1, 12368, Note_on_c, 0, 46, 68
1, 12370, Note_on_c, 0, 82, 82
1, 12395, Note_off_c, 0, 82, 70
1, 12405, Note_off_c, 0, 46, 67
1, 12493, Note_on_c, 0, 65, 75
1, 12520, Note_off_c, 0, 65, 70
1, 12630, Note_on_c, 0, 68, 75
1, 12636, Note_on_c, 0, 58, 51
1, 12643, Note_on_c, 0, 53, 58
1, 12649, Note_on_c, 0, 62, 46
1, 12663, Note_off_c, 0, 68, 71
1, 12669, Note_off_c, 0, 58, 61
1, 12683, Note_off_c, 0, 62, 57
1, 12683, Note_off_c, 0, 53, 65
1, 12736, Note_on_c, 0, 77, 76
1, 12765, Note_off_c, 0, 77, 70
1, 12860, Note_on_c, 0, 78, 66
1, 12877, Note_on_c, 0, 51, 59
1, 12883, Note_off_c, 0, 78, 68
1, 12912, Note_off_c, 0, 51, 62
1, 12991, Note_on_c, 0, 70, 49
1, 13018, Note_off_c, 0, 70, 60
1, 13095, Note_on_c, 0, 87, 78
1, 13113, Note_on_c, 0, 66, 69
1, 13120, Note_on_c, 0, 75, 52
1, 13127, Note_off_c, 0, 87, 67
1, 13149, Note_off_c, 0, 75, 60
1, 13154, Note_off_c, 0, 66, 61
1, 13173, Note_on_c, 0, 58, 29
1, 13195, Poly_aftertouch_c, 0, 54, 0
1, 13198, Note_on_c, 0, 77, 81
1, 13206, Note_off_c, 0, 58, 51
1, 13229, Note_off_c, 0, 77, 68
1, 13306, Note_on_c, 0, 84, 85
1, 13306, Note_on_c, 0, 53, 55
1, 13319, Note_on_c, 0, 63, 67
1, 13327, Note_on_c, 0, 57, 55
1, 13329, Note_on_c, 0, 78, 61
1, 13351, Note_off_c, 0, 78, 65
1, 13353, Note_off_c, 0, 63, 67
1, 13356, Note_off_c, 0, 84, 66
1, 13362, Note_off_c, 0, 53, 65
1, 13366, Note_off_c, 0, 57, 65
1, 13433, Note_on_c, 0, 75, 69
1, 13456, Note_off_c, 0, 75, 68
1, 13514, Note_on_c, 0, 46, 57
1, 13518, Note_on_c, 0, 53, 60
1, 13547, Note_off_c, 0, 46, 60
1, 13562, Note_on_c, 0, 82, 87
1, 13590, Note_on_c, 0, 58, 37
1, 13591, Note_off_c, 0, 58, 127
1, 13593, Note_on_c, 0, 61, 56
1, 13601, Note_off_c, 0, 82, 63
1, 13605, Note_off_c, 0, 53, 64
1, 13622, Note_off_c, 0, 61, 58
1, 13683, Note_on_c, 0, 73, 68
1, 13705, Note_off_c, 0, 73, 68
1, 13803, Note_on_c, 0, 70, 68
1, 13825, Note_off_c, 0, 70, 73
1, 13879, Note_on_c, 0, 61, 71
1, 13911, Note_off_c, 0, 61, 68
1, 14030, Note_on_c, 0, 58, 53
1, 14072, Note_off_c, 0, 58, 62
1, 14142, Note_on_c, 0, 49, 61
1, 14177, Note_off_c, 0, 49, 65
1, 14341, Note_on_c, 0, 53, 55
1, 14356, Note_on_c, 0, 34, 49
1, 14409, Note_off_c, 0, 34, 57
1, 14450, Control_c, 0, 67, 120
1, 14485, Control_c, 0, 67, 116
1, 14494, Note_off_c, 0, 53, 59
1, 14497, Note_on_c, 0, 50, 57
1, 14537, Note_off_c, 0, 50, 65
1, 14628, Note_on_c, 0, 50, 66
1, 14634, Note_on_c, 0, 65, 63
1, 14635, Note_on_c, 0, 62, 63
1, 14667, Note_off_c, 0, 62, 68
1, 14669, Note_off_c, 0, 65, 66
1, 14729, Note_on_c, 0, 53, 67
1, 14730, Note_off_c, 0, 50, 59
1, 14769, Note_off_c, 0, 53, 65
1, 14855, Note_on_c, 0, 34, 56
1, 14857, Note_on_c, 0, 53, 72
1, 14902, Note_off_c, 0, 34, 61
1, 14937, Note_off_c, 0, 53, 62
1, 14966, Note_on_c, 0, 50, 63
1, 15007, Note_off_c, 0, 50, 65
1, 15083, Note_on_c, 0, 39, 59
1, 15126, Note_off_c, 0, 39, 62
1, 15127, Note_on_c, 0, 54, 64
1, 15182, Note_off_c, 0, 54, 60
1, 15229, Note_on_c, 0, 51, 52
1, 15260, Note_off_c, 0, 51, 60
1, 15368, Note_on_c, 0, 63, 67
1, 15371, Note_on_c, 0, 51, 68
1, 15375, Note_on_c, 0, 66, 64
1, 15405, Note_off_c, 0, 63, 67
1, 15411, Note_off_c, 0, 66, 66
1, 15458, Note_off_c, 0, 51, 60
1, 15480, Note_on_c, 0, 54, 60
1, 15522, Note_off_c, 0, 54, 65
1, 15624, Note_on_c, 0, 39, 61
1, 15625, Note_on_c, 0, 54, 64
1, 15663, Note_off_c, 0, 39, 62
1, 15697, Note_off_c, 0, 54, 59
1, 15723, Note_on_c, 0, 51, 54
1, 15762, Note_off_c, 0, 51, 64
1, 15858, Note_on_c, 0, 37, 58
1, 15884, Note_on_c, 0, 54, 58
1, 15900, Note_off_c, 0, 37, 62
1, 15980, Note_on_c, 0, 52, 56
1, 15981, Note_off_c, 0, 54, 61
1, 16027, Note_off_c, 0, 52, 64
1, 16123, Note_on_c, 0, 64, 56
1, 16124, Note_on_c, 0, 66, 58
1, 16127, Note_on_c, 0, 52, 62
1, 16151, Note_off_c, 0, 66, 66
1, 16151, Note_off_c, 0, 64, 63
1, 16209, Note_on_c, 0, 54, 65
1, 16221, Note_off_c, 0, 52, 62
1, 16281, Note_off_c, 0, 54, 64
1, 16364, Note_on_c, 0, 37, 68
1, 16400, Note_on_c, 0, 54, 64
1, 16414, Note_off_c, 0, 37, 65
1, 16448, Note_off_c, 0, 54, 65
1, 16473, Note_on_c, 0, 52, 59
1, 16516, Note_off_c, 0, 52, 63
1, 16596, Note_on_c, 0, 35, 62
1, 16619, Note_on_c, 0, 54, 65
1, 16635, Note_off_c, 0, 35, 61
1, 16678, Note_off_c, 0, 54, 62
1, 16720, Note_on_c, 0, 51, 62
1, 16758, Note_off_c, 0, 51, 63
1, 16856, Note_on_c, 0, 63, 69
1, 16857, Note_on_c, 0, 51, 65
1, 16858, Note_on_c, 0, 66, 72
1, 16891, Note_off_c, 0, 66, 71
1, 16891, Note_off_c, 0, 63, 67
1, 16959, Note_off_c, 0, 51, 61
1, 16963, Note_on_c, 0, 54, 62
1, 17007, Note_off_c, 0, 54, 65
1, 17105, Note_on_c, 0, 35, 71
1, 17106, Note_on_c, 0, 54, 66
1, 17156, Note_off_c, 0, 35, 63
1, 17185, Note_off_c, 0, 54, 62
1, 17215, Note_on_c, 0, 51, 68
1, 17262, Note_off_c, 0, 51, 63
1, 17357, Note_on_c, 0, 35, 41
1, 17357, Note_on_c, 0, 61, 69
1, 17407, Note_off_c, 0, 35, 43
1, 17438, Note_on_c, 0, 57, 60
1, 17440, Note_off_c, 0, 61, 59
1, 17487, Note_off_c, 0, 57, 63
1, 17602, Note_on_c, 0, 66, 65
1, 17603, Note_on_c, 0, 63, 55
1, 17604, Note_on_c, 0, 56, 70
1, 17632, Note_off_c, 0, 63, 60
1, 17639, Note_off_c, 0, 66, 69
1, 17690, Note_on_c, 0, 59, 61
1, 17692, Note_off_c, 0, 56, 64
1, 17730, Note_off_c, 0, 59, 66
1, 17734, Control_c, 0, 67, 120
1, 17847, Note_on_c, 0, 57, 69
1, 17860, Note_on_c, 0, 35, 44
1, 17910, Note_off_c, 0, 35, 59
1, 17929, Note_off_c, 0, 57, 62
1, 17935, Note_on_c, 0, 54, 65
1, 17979, Note_off_c, 0, 54, 66
1, 18076, Note_on_c, 0, 40, 50
1, 18084, Note_on_c, 0, 57, 61
1, 18115, Note_off_c, 0, 40, 51
1, 18176, Note_off_c, 0, 57, 61
1, 18193, Note_on_c, 0, 54, 54
1, 18244, Note_off_c, 0, 54, 63
1, 18355, Note_on_c, 0, 52, 56
1, 18357, Note_on_c, 0, 64, 53
1, 18387, Note_off_c, 0, 64, 60
1, 18436, Note_on_c, 0, 56, 55
1, 18445, Note_off_c, 0, 52, 53
1, 18477, Note_off_c, 0, 56, 65
1, 18583, Note_on_c, 0, 56, 59
1, 18591, Note_on_c, 0, 40, 50
1, 18630, Note_off_c, 0, 40, 51
1, 18637, Note_off_c, 0, 56, 61
1, 18683, Note_on_c, 0, 52, 59
1, 18725, Note_off_c, 0, 52, 64
1, 18814, Note_on_c, 0, 61, 68
1, 18819, Note_on_c, 0, 35, 45
1, 18865, Note_off_c, 0, 35, 46
1, 18902, Note_on_c, 0, 57, 52
1, 18914, Note_off_c, 0, 61, 55
1, 18942, Note_off_c, 0, 57, 63
1, 19061, Note_on_c, 0, 56, 69
1, 19064, Note_on_c, 0, 63, 58
1, 19081, Note_on_c, 0, 66, 61
1, 19107, Note_off_c, 0, 63, 61
1, 19110, Note_off_c, 0, 66, 66
1, 19147, Note_on_c, 0, 59, 60
1, 19165, Note_off_c, 0, 56, 62
1, 19199, Note_off_c, 0, 59, 66
1, 19295, Note_on_c, 0, 35, 71
1, 19299, Note_on_c, 0, 57, 70
1, 19348, Note_off_c, 0, 35, 63
1, 19377, Note_on_c, 0, 54, 66
1, 19385, Note_off_c, 0, 57, 62
1, 19426, Note_off_c, 0, 54, 64
1, 19523, Note_on_c, 0, 40, 68
1, 19527, Note_on_c, 0, 57, 73
1, 19558, Note_off_c, 0, 40, 62
1, 19604, Note_off_c, 0, 57, 63
1, 19606, Note_on_c, 0, 54, 65
1, 19657, Note_off_c, 0, 54, 65
1, 19749, Note_on_c, 0, 64, 74
1, 19758, Note_on_c, 0, 52, 67
1, 19776, Note_off_c, 0, 64, 70
1, 19810, Note_off_c, 0, 52, 66
1, 19813, Note_on_c, 0, 56, 70
1, 19847, Note_off_c, 0, 56, 68
1, 19992, Note_on_c, 0, 64, 68
1, 19997, Note_on_c, 0, 40, 47
1, 20055, Note_off_c, 0, 40, 47
1, 20060, Note_off_c, 0, 64, 62
1, 20060, Note_on_c, 0, 68, 66
1, 20136, Note_off_c, 0, 68, 62
1, 20212, Note_on_c, 0, 35, 54
1, 20215, Note_on_c, 0, 73, 70
1, 20249, Note_off_c, 0, 35, 58
1, 20295, Note_off_c, 0, 73, 61
1, 20302, Note_on_c, 0, 69, 55
1, 20350, Note_off_c, 0, 69, 66
1, 20453, Note_on_c, 0, 59, 67
1, 20459, Note_on_c, 0, 63, 61
1, 20470, Note_on_c, 0, 68, 68
1, 20485, Note_off_c, 0, 59, 68
1, 20495, Note_off_c, 0, 63, 65
1, 20524, Note_on_c, 0, 71, 67
1, 20552, Note_off_c, 0, 68, 61
1, 20583, Note_off_c, 0, 71, 61
1, 20666, Control_c, 0, 67, 116
1, 20667, Note_on_c, 0, 35, 63
1, 20686, Note_on_c, 0, 69, 71
1, 20719, Note_off_c, 0, 35, 56
1, 20754, Note_on_c, 0, 66, 68
1, 20760, Note_off_c, 0, 69, 63
1, 20788, Note_off_c, 0, 66, 69
1, 20908, Note_on_c, 0, 69, 69
1, 20911, Note_on_c, 0, 40, 34
1, 20957, Control_c, 0, 67, 112
1, 20975, Note_off_c, 0, 40, 42
1, 20988, Note_off_c, 0, 69, 61
1, 20994, Note_on_c, 0, 66, 63
1, 21032, Note_off_c, 0, 66, 66
1, 21134, Note_on_c, 0, 59, 62
1, 21140, Note_on_c, 0, 64, 65
1, 21172, Note_off_c, 0, 59, 65
1, 21202, Note_off_c, 0, 64, 63
1, 21206, Note_on_c, 0, 68, 62
1, 21252, Note_off_c, 0, 68, 64
1, 21343, Note_on_c, 0, 52, 59
1, 21357, Note_on_c, 0, 71, 69
1, 21380, Note_off_c, 0, 52, 66
1, 21421, Note_off_c, 0, 71, 60
1, 21442, Note_on_c, 0, 76, 69
1, 21474, Note_off_c, 0, 76, 69
1, 21585, Control_c, 0, 64, 13
1, 21586, Note_on_c, 0, 47, 57
1, 21598, Note_on_c, 0, 80, 74
1, 21604, Control_c, 0, 64, 18
1, 21621, Control_c, 0, 64, 23
1, 21626, Note_off_c, 0, 80, 63
1, 21640, Control_c, 0, 64, 32
1, 21656, Control_c, 0, 64, 40
1, 21677, Control_c, 0, 64, 43
1, 21690, Note_on_c, 0, 83, 56
1, 21714, Note_off_c, 0, 83, 63
1, 21786, Note_off_c, 0, 47, 38
1, 21820, Note_on_c, 0, 40, 57
1, 21852, Note_on_c, 0, 88, 60
1, 21873, Note_off_c, 0, 40, 55
1, 21894, Control_c, 0, 64, 41
1, 21895, Control_c, 0, 67, 108
1, 21925, Note_off_c, 0, 88, 52
1, 21932, Note_on_c, 0, 92, 74
1, 21949, Control_c, 0, 67, 97
1, 21969, Control_c, 0, 64, 35
1, 21970, Control_c, 0, 67, 83
1, 21986, Control_c, 0, 67, 64
1, 21994, Note_off_c, 0, 92, 64
1, 22005, Control_c, 0, 67, 42
1, 22023, Control_c, 0, 64, 31
1, 22024, Control_c, 0, 67, 25
1, 22042, Control_c, 0, 67, 13
1, 22071, Note_on_c, 0, 88, 73
1, 22095, Control_c, 0, 67, 0
1, 22170, Note_on_c, 0, 92, 77
1, 22172, Note_off_c, 0, 88, 61
1, 22201, Note_off_c, 0, 92, 70
1, 22301, Note_on_c, 0, 88, 85
1, 22387, Note_on_c, 0, 92, 91
1, 22406, Note_off_c, 0, 88, 63
1, 22440, Note_off_c, 0, 92, 66
1, 22521, Note_on_c, 0, 88, 94
1, 22608, Note_on_c, 0, 92, 97
1, 22627, Note_off_c, 0, 88, 64
1, 22671, Note_off_c, 0, 92, 67
1, 22737, Note_on_c, 0, 88, 93
1, 22744, Poly_aftertouch_c, 0, 93, 0
1, 22837, Note_on_c, 0, 92, 94
1, 22851, Note_off_c, 0, 88, 63
1, 22890, Note_off_c, 0, 92, 67
1, 22966, Note_on_c, 0, 89, 81
1, 22985, Note_on_c, 0, 37, 73
1, 22992, Note_on_c, 0, 92, 88
1, 22995, Note_off_c, 0, 89, 68
1, 22995, Control_c, 0, 64, 25
1, 23013, Control_c, 0, 67, 10
1, 23015, Note_off_c, 0, 92, 76
1, 23020, Note_off_c, 0, 37, 64
1, 23035, Control_c, 0, 64, 0
1, 23036, Control_c, 0, 67, 19
1, 23051, Control_c, 0, 67, 30
1, 23069, Control_c, 0, 67, 38
1, 23088, Control_c, 0, 67, 46
1, 23107, Control_c, 0, 67, 53
1, 23126, Control_c, 0, 67, 58
1, 23206, Note_on_c, 0, 77, 76
1, 23215, Control_c, 0, 67, 63
1, 23237, Note_off_c, 0, 77, 70
1, 23253, Control_c, 0, 67, 69
1, 23291, Control_c, 0, 67, 73
1, 23327, Control_c, 0, 67, 78
1, 23334, Note_on_c, 0, 68, 56
1, 23335, Note_on_c, 0, 61, 49
1, 23343, Note_on_c, 0, 80, 72
1, 23352, Note_on_c, 0, 56, 51
1, 23364, Note_off_c, 0, 68, 61
1, 23364, Control_c, 0, 67, 85
1, 23366, Note_off_c, 0, 61, 59
1, 23371, Note_off_c, 0, 80, 71
1, 23381, Note_off_c, 0, 56, 59
1, 23381, Control_c, 0, 67, 89
1, 23420, Control_c, 0, 67, 93
1, 23442, Note_on_c, 0, 89, 82
1, 23478, Note_off_c, 0, 89, 64
1, 23493, Control_c, 0, 67, 97
1, 23564, Note_on_c, 0, 41, 61
1, 23567, Note_on_c, 0, 85, 79
1, 23583, Control_c, 0, 67, 102
1, 23594, Note_off_c, 0, 85, 73
1, 23596, Note_off_c, 0, 41, 57
1, 23675, Control_c, 0, 67, 106
1, 23696, Note_on_c, 0, 68, 64
1, 23724, Note_off_c, 0, 68, 65
1, 23824, Note_on_c, 0, 73, 81
1, 23833, Note_on_c, 0, 61, 55
1, 23842, Note_on_c, 0, 56, 53
1, 23845, Note_on_c, 0, 65, 44
1, 23846, Note_off_c, 0, 73, 74
1, 23860, Note_off_c, 0, 61, 62
1, 23872, Note_off_c, 0, 56, 63
1, 23880, Note_off_c, 0, 65, 54
1, 23935, Note_on_c, 0, 80, 80
1, 23974, Note_off_c, 0, 80, 59
1, 24050, Note_on_c, 0, 82, 78
1, 24058, Note_on_c, 0, 42, 60
1, 24091, Note_off_c, 0, 42, 60
1, 24092, Note_off_c, 0, 82, 61
1, 24192, Note_on_c, 0, 66, 61
1, 24227, Note_off_c, 0, 66, 67
1, 24320, Note_on_c, 0, 70, 62
1, 24320, Note_on_c, 0, 58, 30
1, 24322, Note_on_c, 0, 54, 42
1, 24331, Note_on_c, 0, 63, 14
1, 24341, Note_off_c, 0, 70, 65
1, 24358, Note_off_c, 0, 54, 54
1, 24363, Note_off_c, 0, 58, 44
1, 24375, Control_c, 0, 67, 111
1, 24387, Note_off_c, 0, 63, 28
1, 24413, Note_on_c, 0, 78, 58
1, 24440, Note_off_c, 0, 78, 64
1, 24539, Note_on_c, 0, 44, 56
1, 24542, Note_on_c, 0, 75, 60
1, 24578, Note_off_c, 0, 75, 67
1, 24584, Note_off_c, 0, 44, 65
1, 24669, Note_on_c, 0, 72, 40
1, 24717, Note_off_c, 0, 72, 54
1, 24798, Note_on_c, 0, 80, 71
1, 24810, Control_c, 0, 67, 116
1, 24812, Note_on_c, 0, 68, 53
1, 24820, Note_on_c, 0, 66, 45
1, 24821, Note_on_c, 0, 56, 48
1, 24826, Note_off_c, 0, 80, 69
1, 24843, Note_off_c, 0, 68, 59
1, 24854, Note_off_c, 0, 66, 59
1, 24865, Note_off_c, 0, 56, 59
1, 24911, Note_on_c, 0, 70, 61
1, 24934, Note_off_c, 0, 70, 66
1, 25022, Note_on_c, 0, 63, 58
1, 25026, Note_on_c, 0, 78, 76
1, 25029, Note_on_c, 0, 56, 56
1, 25036, Note_on_c, 0, 72, 67
1, 25049, Note_off_c, 0, 78, 72
1, 25062, Note_off_c, 0, 63, 64
1, 25069, Note_off_c, 0, 72, 68
1, 25072, Note_off_c, 0, 56, 63
1, 25137, Note_on_c, 0, 75, 81
1, 25164, Note_off_c, 0, 75, 66
1, 25253, Control_c, 0, 67, 121
1, 25259, Note_on_c, 0, 77, 82
1, 25270, Note_on_c, 0, 49, 61
1, 25281, Note_on_c, 0, 73, 58
1, 25297, Note_off_c, 0, 77, 59
1, 25306, Note_off_c, 0, 73, 63
1, 25309, Note_off_c, 0, 49, 63
1, 25373, Note_on_c, 0, 75, 76
1, 25396, Note_off_c, 0, 75, 73
1, 25489, Note_on_c, 0, 83, 74
1, 25494, Note_on_c, 0, 77, 69
1, 25495, Note_on_c, 0, 56, 65
1, 25511, Note_on_c, 0, 61, 45
1, 25517, Note_off_c, 0, 77, 68
1, 25519, Note_on_c, 0, 65, 39
1, 25524, Note_off_c, 0, 83, 60
1, 25537, Note_off_c, 0, 56, 66
1, 25543, Note_off_c, 0, 61, 57
1, 25555, Note_off_c, 0, 65, 50
1, 25566, Control_c, 0, 67, 125
1, 25600, Note_on_c, 0, 80, 69
1, 25643, Note_off_c, 0, 80, 70
1, 25731, Note_on_c, 0, 82, 61
1, 25759, Note_on_c, 0, 54, 59
1, 25764, Note_on_c, 0, 78, 44
1, 25772, Note_off_c, 0, 82, 61
1, 25776, Note_on_c, 0, 66, 21
1, 25779, Note_off_c, 0, 66, 127
1, 25790, Poly_aftertouch_c, 0, 61, 0
1, 25793, Note_off_c, 0, 78, 52
1, 25795, Note_off_c, 0, 54, 66
1, 25849, Note_on_c, 0, 73, 65
1, 25880, Note_off_c, 0, 73, 69
1, 26023, Note_on_c, 0, 37, 45
1, 26027, Note_on_c, 0, 90, 70
1, 26056, Note_off_c, 0, 90, 70
1, 26067, Note_off_c, 0, 37, 50
1, 26149, Note_on_c, 0, 77, 52
1, 26174, Note_off_c, 0, 77, 60
1, 26257, Note_on_c, 0, 80, 66
1, 26265, Note_on_c, 0, 61, 54
1, 26266, Note_on_c, 0, 68, 54
1, 26278, Note_off_c, 0, 80, 67
1, 26292, Note_off_c, 0, 61, 59
1, 26295, Note_off_c, 0, 68, 58
1, 26344, Note_on_c, 0, 85, 81
1, 26374, Note_off_c, 0, 85, 64
1, 26476, Note_on_c, 0, 88, 76
1, 26501, Note_on_c, 0, 49, 51
1, 26504, Note_off_c, 0, 88, 71
1, 26537, Note_off_c, 0, 49, 57
1, 26614, Note_on_c, 0, 73, 53
1, 26644, Note_off_c, 0, 73, 58
1, 26721, Note_on_c, 0, 76, 72
1, 26735, Note_on_c, 0, 64, 39
1, 26736, Note_on_c, 0, 61, 48
1, 26747, Note_on_c, 0, 56, 57
1, 26751, Note_off_c, 0, 76, 68
1, 26767, Note_off_c, 0, 61, 58
1, 26773, Note_off_c, 0, 64, 51
1, 26784, Note_off_c, 0, 56, 66
1, 26827, Note_on_c, 0, 85, 71
1, 26870, Note_off_c, 0, 85, 57
1, 26947, Note_on_c, 0, 81, 80
1, 26954, Note_on_c, 0, 42, 66
1, 26970, Note_off_c, 0, 81, 75
1, 26989, Note_off_c, 0, 42, 66
1, 27066, Note_on_c, 0, 69, 64
1, 27100, Note_off_c, 0, 69, 67
1, 27185, Note_on_c, 0, 73, 61
1, 27186, Note_on_c, 0, 61, 55
1, 27192, Note_on_c, 0, 54, 64
1, 27193, Note_on_c, 0, 57, 56
1, 27208, Note_off_c, 0, 73, 66
1, 27224, Note_off_c, 0, 61, 64
1, 27229, Note_off_c, 0, 57, 66
1, 27231, Note_off_c, 0, 54, 67
1, 27286, Note_on_c, 0, 78, 50
1, 27314, Note_off_c, 0, 78, 58
1, 27407, Note_on_c, 0, 47, 64
1, 27409, Note_on_c, 0, 75, 61
1, 27431, Note_off_c, 0, 75, 65
1, 27441, Note_off_c, 0, 47, 64
1, 27541, Note_on_c, 0, 73, 45
1, 27573, Note_off_c, 0, 73, 36
1, 27640, Note_on_c, 0, 81, 82
1, 27661, Note_on_c, 0, 63, 64
1, 27661, Note_on_c, 0, 59, 61
1, 27666, Note_on_c, 0, 71, 48
1, 27667, Note_off_c, 0, 81, 67
1, 27671, Note_on_c, 0, 54, 51
1, 27695, Note_off_c, 0, 71, 58
1, 27699, Note_off_c, 0, 63, 60
1, 27704, Note_off_c, 0, 59, 65
1, 27744, Note_off_c, 0, 54, 51
1, 27745, Note_on_c, 0, 75, 66
1, 27776, Note_off_c, 0, 75, 69
1, 27876, Note_on_c, 0, 80, 74
1, 27877, Note_on_c, 0, 64, 56
1, 27878, Note_on_c, 0, 76, 61
1, 27879, Note_on_c, 0, 56, 67
1, 27903, Note_off_c, 0, 64, 63
1, 27909, Note_off_c, 0, 56, 68
1, 27916, Note_off_c, 0, 76, 67
1, 27918, Note_off_c, 0, 80, 53
1, 27979, Note_on_c, 0, 71, 63
1, 28016, Note_off_c, 0, 71, 67
1, 28097, Note_on_c, 0, 72, 80
1, 28121, Note_on_c, 0, 46, 50
1, 28144, Note_off_c, 0, 72, 63
1, 28164, Note_off_c, 0, 46, 34
1, 28211, Note_on_c, 0, 70, 76
1, 28238, Note_off_c, 0, 70, 74
1, 28332, Note_on_c, 0, 60, 61
1, 28334, Note_on_c, 0, 78, 76
1, 28335, Note_on_c, 0, 56, 55
1, 28337, Note_on_c, 0, 68, 68
1, 28346, Note_on_c, 0, 63, 48
1, 28363, Note_off_c, 0, 60, 66
1, 28368, Note_off_c, 0, 68, 71
1, 28370, Note_off_c, 0, 56, 65
1, 28375, Note_off_c, 0, 63, 57
1, 28397, Note_off_c, 0, 78, 61
1, 28401, Note_on_c, 0, 72, 60
1, 28438, Note_off_c, 0, 72, 68
1, 28561, Note_on_c, 0, 77, 80
1, 28566, Note_on_c, 0, 61, 64
1, 28578, Note_on_c, 0, 49, 63
1, 28584, Note_on_c, 0, 73, 49
1, 28599, Note_off_c, 0, 77, 60
1, 28604, Note_off_c, 0, 61, 66
1, 28611, Note_off_c, 0, 73, 58
1, 28614, Note_off_c, 0, 49, 64
1, 28671, Note_on_c, 0, 68, 78
1, 28698, Note_off_c, 0, 68, 72
1, 28787, Note_on_c, 0, 44, 76
1, 28799, Note_on_c, 0, 70, 76
1, 28824, Note_off_c, 0, 44, 68
1, 28831, Note_off_c, 0, 70, 63
1, 28897, Note_on_c, 0, 68, 69
1, 28926, Note_off_c, 0, 68, 69
1, 29003, Note_on_c, 0, 75, 82
1, 29008, Note_on_c, 0, 63, 76
1, 29008, Note_on_c, 0, 54, 76
1, 29019, Note_on_c, 0, 66, 65
1, 29057, Note_off_c, 0, 63, 54
1, 29098, Note_off_c, 0, 75, 62
1, 29104, Note_off_c, 0, 54, 50
1, 29117, Note_on_c, 0, 70, 53
1, 29129, Note_off_c, 0, 66, 51
1, 29148, Note_off_c, 0, 70, 57
1, 29160, Note_on_c, 0, 68, 38
1, 29211, Note_on_c, 0, 72, 71
1, 29216, Note_on_c, 0, 56, 77
1, 29225, Note_off_c, 0, 68, 45
1, 29247, Note_off_c, 0, 56, 70
1, 29293, Note_off_c, 0, 72, 63
1, 29296, Control_c, 0, 64, 8
1, 29313, Control_c, 0, 64, 12
1, 29330, Note_on_c, 0, 65, 66
1, 29351, Control_c, 0, 64, 16
1, 29369, Control_c, 0, 67, 115
1, 29375, Note_on_c, 0, 68, 56
1, 29388, Note_off_c, 0, 65, 59
1, 29401, Control_c, 0, 67, 101
1, 29419, Control_c, 0, 67, 73
1, 29438, Control_c, 0, 67, 31
1, 29443, Note_on_c, 0, 73, 74
1, 29456, Note_off_c, 0, 68, 62
1, 29456, Control_c, 0, 67, 0
1, 29460, Note_on_c, 0, 37, 64
1, 29472, Note_off_c, 0, 73, 68
1, 29475, Note_on_c, 0, 49, 62
1, 29498, Note_off_c, 0, 37, 63
1, 29514, Note_off_c, 0, 49, 63
1, 29569, Note_on_c, 0, 73, 73
1, 29587, Control_c, 0, 64, 12
1, 29621, Control_c, 0, 64, 0
1, 29628, Note_off_c, 0, 73, 58
1, 29675, Note_on_c, 0, 77, 73
1, 29689, Note_on_c, 0, 56, 58
1, 29697, Note_on_c, 0, 65, 56
1, 29705, Note_on_c, 0, 61, 51
1, 29735, Note_off_c, 0, 65, 63
1, 29737, Note_off_c, 0, 61, 60
1, 29737, Note_off_c, 0, 56, 65
1, 29744, Note_off_c, 0, 77, 62
1, 29756, Note_on_c, 0, 85, 77
1, 29832, Note_off_c, 0, 85, 45
1, 29884, Note_on_c, 0, 82, 71
1, 29895, Note_on_c, 0, 78, 69
1, 29899, Note_on_c, 0, 61, 59
1, 29913, Note_on_c, 0, 66, 46
1, 29915, Note_on_c, 0, 54, 61
1, 29930, Note_on_c, 0, 58, 27
1, 29935, Note_off_c, 0, 61, 65
1, 29949, Note_off_c, 0, 66, 37
1, 29956, Note_off_c, 0, 54, 65
1, 29971, Note_off_c, 0, 58, 46
1, 29983, Note_on_c, 0, 73, 64
1, 29986, Note_off_c, 0, 82, 66
1, 29987, Note_off_c, 0, 78, 60
1, 30016, Note_off_c, 0, 73, 69
1, 30118, Note_on_c, 0, 49, 89
1, 30118, Note_on_c, 0, 73, 84
1, 30123, Note_on_c, 0, 37, 75
1, 30124, Note_on_c, 0, 68, 72
1, 30131, Note_on_c, 0, 65, 60
1, 30151, Note_off_c, 0, 49, 69
1, 30155, Note_off_c, 0, 37, 65
1, 30156, Note_off_c, 0, 68, 73
1, 30161, Note_off_c, 0, 65, 63
1, 30179, Note_off_c, 0, 73, 63
1, 30255, Note_on_c, 0, 73, 72
1, 30298, Note_off_c, 0, 73, 55
1, 30363, Note_on_c, 0, 77, 76
1, 30368, Note_on_c, 0, 56, 70
1, 30372, Note_on_c, 0, 65, 74
1, 30378, Note_on_c, 0, 61, 69
1, 30404, Note_off_c, 0, 65, 71
1, 30415, Note_off_c, 0, 61, 65
1, 30417, Note_off_c, 0, 56, 63
1, 30440, Note_off_c, 0, 77, 65
1, 30464, Note_on_c, 0, 85, 74
1, 30571, Note_on_c, 0, 82, 80
1, 30591, Note_on_c, 0, 66, 72
1, 30593, Note_on_c, 0, 78, 73
1, 30597, Note_on_c, 0, 61, 65
1, 30600, Note_off_c, 0, 85, 58
1, 30601, Note_on_c, 0, 54, 68
1, 30606, Note_on_c, 0, 58, 56
1, 30624, Note_off_c, 0, 66, 71
1, 30631, Note_off_c, 0, 61, 66
1, 30636, Note_off_c, 0, 54, 66
1, 30645, Note_off_c, 0, 58, 64
1, 30675, Note_on_c, 0, 73, 64
1, 30677, Note_off_c, 0, 78, 63
1, 30677, Note_off_c, 0, 82, 65
1, 30710, Note_off_c, 0, 73, 69
1, 30800, Note_on_c, 0, 49, 97
1, 30800, Note_on_c, 0, 37, 86
1, 30802, Note_on_c, 0, 73, 91
1, 30805, Note_on_c, 0, 65, 82
1, 30814, Note_on_c, 0, 68, 70
1, 30830, Note_off_c, 0, 49, 69
1, 30833, Note_off_c, 0, 65, 69
1, 30835, Note_off_c, 0, 37, 66
1, 30845, Note_off_c, 0, 68, 69
1, 30854, Note_off_c, 0, 73, 63
1, 30936, Note_on_c, 0, 73, 80
1, 30995, Note_off_c, 0, 73, 55
1, 31023, Note_on_c, 0, 56, 84
1, 31026, Note_on_c, 0, 77, 82
1, 31034, Note_on_c, 0, 65, 79
1, 31040, Note_on_c, 0, 61, 68
1, 31069, Note_off_c, 0, 65, 66
1, 31075, Note_off_c, 0, 61, 65
1, 31087, Note_off_c, 0, 56, 60
1, 31105, Note_off_c, 0, 77, 62
1, 31132, Note_on_c, 0, 85, 81
1, 31179, Control_c, 0, 64, 12
1, 31198, Control_c, 0, 64, 26
1, 31216, Control_c, 0, 64, 38
1, 31232, Note_on_c, 0, 82, 80
1, 31235, Control_c, 0, 64, 46
1, 31241, Note_on_c, 0, 78, 80
1, 31267, Control_c, 0, 64, 50
1, 31268, Note_on_c, 0, 66, 78
1, 31268, Note_on_c, 0, 61, 71
1, 31283, Note_off_c, 0, 85, 63
1, 31285, Control_c, 0, 64, 53
1, 31286, Note_on_c, 0, 54, 68
1, 31289, Note_on_c, 0, 58, 54
1, 31294, Note_off_c, 0, 66, 74
1, 31300, Note_off_c, 0, 61, 67
1, 31320, Note_off_c, 0, 54, 67
1, 31325, Control_c, 0, 64, 57
1, 31329, Note_off_c, 0, 58, 63
1, 31338, Note_off_c, 0, 78, 60
1, 31341, Control_c, 0, 64, 60
1, 31351, Note_off_c, 0, 82, 66
1, 31358, Note_on_c, 0, 73, 50
1, 31360, Control_c, 0, 64, 62
1, 31379, Control_c, 0, 64, 66
1, 31390, Note_off_c, 0, 73, 58
1, 31398, Control_c, 0, 64, 69
1, 31415, Control_c, 0, 64, 72
1, 31434, Control_c, 0, 64, 75
1, 31453, Control_c, 0, 64, 79
1, 31461, Note_on_c, 0, 73, 97
1, 31471, Note_on_c, 0, 65, 89
1, 31476, Note_on_c, 0, 49, 94
1, 31476, Note_on_c, 0, 37, 85
1, 31490, Control_c, 0, 64, 71
1, 31493, Note_off_c, 0, 65, 72
1, 31493, Note_off_c, 0, 73, 65
1, 31500, Note_off_c, 0, 49, 71
1, 31502, Note_off_c, 0, 37, 67
1, 31508, Control_c, 0, 64, 44
1, 31525, Control_c, 0, 64, 0
1, 31585, Note_on_c, 0, 73, 88
1, 31631, Note_off_c, 0, 73, 62
1, 31696, Note_on_c, 0, 77, 91
1, 31767, Note_off_c, 0, 77, 63
1, 31793, Note_on_c, 0, 73, 79
1, 31819, Note_off_c, 0, 73, 73
1, 31911, Note_on_c, 0, 65, 83
1, 31993, Note_off_c, 0, 65, 58
1, 32016, Note_on_c, 0, 61, 82
1, 32082, Note_off_c, 0, 61, 60
1, 32129, Note_on_c, 0, 77, 99
1, 32237, Note_off_c, 0, 77, 57
1, 32258, Note_on_c, 0, 73, 80
1, 32281, Note_off_c, 0, 73, 72
1, 32314, Control_c, 0, 67, 10
1, 32334, Control_c, 0, 67, 25
1, 32352, Control_c, 0, 67, 46
1, 32369, Control_c, 0, 67, 72
1, 32369, Note_on_c, 0, 65, 66
1, 32389, Control_c, 0, 67, 92
1, 32406, Control_c, 0, 67, 107
1, 32424, Control_c, 0, 67, 121
1, 32442, Control_c, 0, 67, 127
1, 32473, Note_off_c, 0, 65, 62
1, 32474, Note_on_c, 0, 61, 71
1, 32507, Note_off_c, 0, 61, 69
1, 32554, Control_c, 0, 64, 25
1, 32572, Control_c, 0, 64, 40
1, 32589, Control_c, 0, 64, 49
1, 32609, Control_c, 0, 64, 53
1, 32610, Note_on_c, 0, 53, 70
1, 32662, Control_c, 0, 64, 55
1, 32718, Control_c, 0, 64, 57
1, 32740, Note_off_c, 0, 53, 59
1, 32749, Note_on_c, 0, 49, 50
1, 32804, Note_off_c, 0, 49, 63
1, 32905, Note_on_c, 0, 34, 48
1, 32955, Note_off_c, 0, 34, 63
1, 32976, Control_c, 0, 64, 55
1, 32982, Note_on_c, 0, 53, 50
1, 33096, Note_off_c, 0, 53, 57
1, 33107, Note_on_c, 0, 50, 51
1, 33158, Note_off_c, 0, 50, 61
1, 33174, Control_c, 0, 64, 52
1, 33230, Control_c, 0, 64, 50
1, 33267, Control_c, 0, 64, 48
1, 33272, Note_on_c, 0, 62, 49
1, 33277, Note_on_c, 0, 50, 46
1, 33277, Note_on_c, 0, 65, 39
1, 33301, Note_off_c, 0, 62, 59
1, 33303, Control_c, 0, 64, 44
1, 33319, Note_off_c, 0, 65, 36
1, 33342, Control_c, 0, 64, 39
1, 33349, Note_off_c, 0, 50, 53
1, 33358, Control_c, 0, 64, 32
1, 33362, Note_on_c, 0, 53, 58
1, 33377, Control_c, 0, 64, 23
1, 33395, Control_c, 0, 64, 16
1, 33400, Note_off_c, 0, 53, 66
1, 33413, Control_c, 0, 64, 8
1, 33432, Control_c, 0, 64, 0
1, 33492, Note_on_c, 0, 53, 61
1, 33494, Note_on_c, 0, 34, 56
1, 33534, Note_off_c, 0, 34, 62
1, 33551, Note_off_c, 0, 53, 62
1, 33592, Note_on_c, 0, 50, 50
1, 33633, Note_off_c, 0, 50, 64
1, 33714, Note_on_c, 0, 39, 57
1, 33732, Note_on_c, 0, 54, 58
1, 33751, Note_off_c, 0, 39, 57
1, 33812, Note_off_c, 0, 54, 57
1, 33831, Note_on_c, 0, 51, 50
1, 33869, Note_off_c, 0, 51, 62
1, 33973, Note_on_c, 0, 63, 70
1, 33976, Note_on_c, 0, 51, 60
1, 33985, Note_on_c, 0, 66, 54
1, 34006, Note_off_c, 0, 63, 67
1, 34015, Note_off_c, 0, 66, 62
1, 34075, Note_on_c, 0, 54, 61
1, 34077, Note_off_c, 0, 51, 59
1, 34121, Note_off_c, 0, 54, 63
1, 34234, Note_on_c, 0, 39, 63
1, 34246, Note_on_c, 0, 54, 59
1, 34273, Note_off_c, 0, 39, 63
1, 34303, Note_off_c, 0, 54, 62
1, 34325, Note_on_c, 0, 51, 53
1, 34370, Note_off_c, 0, 51, 64
1, 34475, Note_on_c, 0, 37, 63
1, 34488, Note_on_c, 0, 54, 63
1, 34515, Note_off_c, 0, 37, 63
1, 34578, Note_on_c, 0, 52, 63
1, 34579, Note_off_c, 0, 54, 48
1, 34618, Note_off_c, 0, 52, 63
1, 34729, Note_on_c, 0, 52, 60
1, 34737, Note_on_c, 0, 64, 65
1, 34742, Note_on_c, 0, 66, 64
1, 34773, Note_off_c, 0, 64, 68
1, 34775, Note_off_c, 0, 66, 70
1, 34820, Note_on_c, 0, 54, 64
1, 34832, Note_off_c, 0, 52, 61
1, 34874, Note_off_c, 0, 54, 63
1, 34980, Note_on_c, 0, 37, 56
1, 35015, Note_on_c, 0, 54, 60
1, 35032, Note_off_c, 0, 37, 58
1, 35062, Note_off_c, 0, 54, 60
1, 35078, Note_on_c, 0, 52, 58
1, 35117, Note_off_c, 0, 52, 66
1, 35225, Note_on_c, 0, 35, 55
1, 35235, Note_on_c, 0, 54, 56
1, 35260, Note_off_c, 0, 35, 57
1, 35284, Note_off_c, 0, 54, 64
1, 35326, Note_on_c, 0, 51, 56
1, 35368, Note_off_c, 0, 51, 64
1, 35481, Note_on_c, 0, 51, 59
1, 35483, Note_on_c, 0, 63, 71
1, 35496, Note_on_c, 0, 66, 58
1, 35518, Note_off_c, 0, 63, 69
1, 35523, Note_off_c, 0, 66, 65
1, 35576, Note_on_c, 0, 54, 62
1, 35577, Note_off_c, 0, 51, 59
1, 35625, Note_off_c, 0, 54, 65
1, 35743, Note_on_c, 0, 35, 69
1, 35744, Note_on_c, 0, 54, 61
1, 35785, Note_off_c, 0, 35, 60
1, 35808, Note_off_c, 0, 54, 59
1, 35822, Note_on_c, 0, 51, 67
1, 35867, Note_off_c, 0, 51, 62
1, 35973, Note_on_c, 0, 35, 64
1, 35986, Note_on_c, 0, 61, 69
1, 36009, Note_off_c, 0, 35, 62
1, 36053, Note_off_c, 0, 61, 61
1, 36058, Note_on_c, 0, 57, 59
1, 36113, Note_off_c, 0, 57, 65
1, 36239, Note_on_c, 0, 63, 62
1, 36240, Note_on_c, 0, 66, 62
1, 36242, Note_on_c, 0, 56, 69
1, 36262, Note_off_c, 0, 63, 64
1, 36263, Note_off_c, 0, 66, 66
1, 36294, Note_off_c, 0, 56, 62
1, 36318, Note_on_c, 0, 59, 53
1, 36361, Note_off_c, 0, 59, 65
1, 36457, Note_on_c, 0, 57, 61
1, 36485, Note_on_c, 0, 35, 71
1, 36529, Note_off_c, 0, 35, 60
1, 36549, Note_off_c, 0, 57, 62
1, 36553, Note_on_c, 0, 54, 59
1, 36606, Note_off_c, 0, 54, 64
1, 36722, Note_on_c, 0, 57, 57
1, 36730, Note_on_c, 0, 40, 48
1, 36772, Note_off_c, 0, 40, 48
1, 36783, Note_off_c, 0, 57, 60
1, 36798, Note_on_c, 0, 54, 52
1, 36861, Note_off_c, 0, 54, 61
1, 36993, Note_on_c, 0, 64, 60
1, 36994, Note_on_c, 0, 52, 53
1, 37027, Note_off_c, 0, 64, 66
1, 37060, Note_off_c, 0, 52, 52
1, 37062, Note_on_c, 0, 56, 52
1, 37112, Note_off_c, 0, 56, 62
1, 37218, Note_on_c, 0, 56, 57
1, 37253, Note_on_c, 0, 40, 41
1, 37268, Note_off_c, 0, 56, 62
1, 37310, Note_off_c, 0, 40, 47
1, 37316, Note_on_c, 0, 52, 58
1, 37363, Note_off_c, 0, 52, 62
1, 37457, Note_on_c, 0, 61, 69
1, 37464, Note_on_c, 0, 35, 52
1, 37503, Note_off_c, 0, 35, 52
1, 37528, Note_on_c, 0, 57, 53
1, 37548, Note_off_c, 0, 61, 56
1, 37573, Note_off_c, 0, 57, 63
1, 37696, Note_on_c, 0, 56, 60
1, 37719, Note_on_c, 0, 66, 67
1, 37725, Note_on_c, 0, 63, 53
1, 37751, Note_off_c, 0, 66, 68
1, 37756, Note_off_c, 0, 63, 40
1, 37763, Note_on_c, 0, 59, 60
1, 37820, Note_off_c, 0, 56, 60
1, 37859, Note_off_c, 0, 59, 63
1, 37952, Note_on_c, 0, 57, 60
1, 37964, Note_on_c, 0, 35, 58
1, 38005, Note_off_c, 0, 35, 60
1, 38021, Note_on_c, 0, 54, 66
1, 38028, Note_off_c, 0, 57, 64
1, 38065, Note_off_c, 0, 54, 63
1, 38183, Note_on_c, 0, 57, 68
1, 38194, Note_on_c, 0, 40, 51
1, 38234, Note_off_c, 0, 40, 50
1, 38255, Note_on_c, 0, 54, 54
1, 38261, Note_off_c, 0, 57, 63
1, 38295, Note_off_c, 0, 54, 64
1, 38407, Note_on_c, 0, 64, 69
1, 38417, Note_on_c, 0, 52, 64
1, 38441, Note_off_c, 0, 64, 68
1, 38464, Note_off_c, 0, 52, 65
1, 38469, Note_on_c, 0, 56, 65
1, 38504, Note_off_c, 0, 56, 68
1, 38654, Note_on_c, 0, 64, 64
1, 38656, Note_on_c, 0, 40, 56
1, 38697, Note_off_c, 0, 40, 59
1, 38707, Note_on_c, 0, 68, 63
1, 38711, Note_off_c, 0, 64, 65
1, 38785, Note_off_c, 0, 68, 60
1, 38882, Note_on_c, 0, 73, 69
1, 38903, Note_on_c, 0, 35, 32
1, 38950, Note_on_c, 0, 69, 63
1, 38956, Note_off_c, 0, 73, 57
1, 38967, Note_off_c, 0, 35, 31
1, 38988, Note_off_c, 0, 69, 64
1, 39121, Note_on_c, 0, 68, 72
1, 39122, Note_on_c, 0, 59, 62
1, 39125, Note_on_c, 0, 63, 59
1, 39154, Note_off_c, 0, 59, 65
1, 39161, Note_off_c, 0, 63, 67
1, 39192, Note_on_c, 0, 71, 65
1, 39208, Note_off_c, 0, 68, 61
1, 39245, Note_off_c, 0, 71, 60
1, 39347, Note_on_c, 0, 35, 57
1, 39357, Note_on_c, 0, 69, 68
1, 39396, Note_off_c, 0, 35, 59
1, 39433, Note_on_c, 0, 66, 68
1, 39443, Note_off_c, 0, 69, 65
1, 39479, Note_off_c, 0, 66, 60
1, 39587, Note_on_c, 0, 40, 51
1, 39594, Note_on_c, 0, 69, 68
1, 39629, Note_off_c, 0, 40, 51
1, 39649, Control_c, 0, 64, 26
1, 39657, Note_on_c, 0, 66, 64
1, 39670, Control_c, 0, 64, 41
1, 39690, Note_off_c, 0, 69, 58
1, 39701, Control_c, 0, 64, 49
1, 39719, Note_off_c, 0, 66, 61
1, 39719, Control_c, 0, 64, 54
1, 39737, Control_c, 0, 64, 57
1, 39775, Control_c, 0, 64, 59
1, 39792, Control_c, 0, 64, 55
1, 39811, Control_c, 0, 64, 46
1, 39820, Note_on_c, 0, 64, 64
1, 39827, Note_on_c, 0, 59, 63
1, 39829, Control_c, 0, 64, 32
1, 39849, Control_c, 0, 64, 15
1, 39876, Note_off_c, 0, 64, 64
1, 39891, Note_on_c, 0, 68, 61
1, 39895, Note_off_c, 0, 59, 49
1, 39903, Control_c, 0, 64, 35
1, 39922, Control_c, 0, 64, 49
1, 39926, Note_off_c, 0, 68, 66
1, 39940, Control_c, 0, 64, 56
1, 39959, Control_c, 0, 64, 59
1, 39995, Control_c, 0, 64, 55
1, 40012, Control_c, 0, 64, 43
1, 40032, Control_c, 0, 64, 16
1, 40046, Note_on_c, 0, 71, 62
1, 40047, Note_on_c, 0, 52, 64
1, 40050, Control_c, 0, 64, 0
1, 40083, Note_off_c, 0, 52, 65
1, 40107, Note_off_c, 0, 71, 60
1, 40108, Control_c, 0, 64, 25
1, 40115, Note_on_c, 0, 76, 67
1, 40125, Control_c, 0, 64, 38
1, 40143, Control_c, 0, 64, 47
1, 40147, Note_off_c, 0, 76, 68
1, 40161, Control_c, 0, 64, 49
1, 40179, Control_c, 0, 64, 46
1, 40198, Control_c, 0, 64, 39
1, 40216, Control_c, 0, 64, 28
1, 40233, Control_c, 0, 64, 18
1, 40261, Note_on_c, 0, 47, 60
1, 40276, Note_on_c, 0, 80, 64
1, 40313, Note_off_c, 0, 80, 51
1, 40351, Note_on_c, 0, 83, 70
1, 40380, Note_off_c, 0, 83, 68
1, 40419, Control_c, 0, 64, 12
1, 40473, Note_off_c, 0, 47, 50
1, 40526, Note_on_c, 0, 40, 59
1, 40537, Note_on_c, 0, 88, 61
1, 40592, Note_off_c, 0, 88, 52
1, 40607, Note_on_c, 0, 92, 64
1, 40624, Note_off_c, 0, 40, 54
1, 40661, Note_off_c, 0, 92, 67
1, 40673, Control_c, 0, 67, 116
1, 40692, Control_c, 0, 67, 102
1, 40705, Control_c, 0, 67, 82
1, 40725, Control_c, 0, 67, 56
1, 40742, Control_c, 0, 67, 29
1, 40772, Note_on_c, 0, 88, 73
1, 40780, Control_c, 0, 67, 0
1, 40856, Note_off_c, 0, 88, 63
1, 40858, Note_on_c, 0, 92, 77
1, 40891, Control_c, 0, 64, 18
1, 40896, Note_off_c, 0, 92, 67
1, 40945, Control_c, 0, 64, 23
1, 40982, Control_c, 0, 64, 27
1, 40994, Note_on_c, 0, 88, 83
1, 41020, Control_c, 0, 64, 31
1, 41076, Control_c, 0, 64, 22
1, 41086, Note_on_c, 0, 92, 91
1, 41092, Control_c, 0, 64, 15
1, 41105, Note_off_c, 0, 88, 64
1, 41111, Control_c, 0, 64, 9
1, 41141, Note_off_c, 0, 92, 68
1, 41164, Control_c, 0, 64, 14
1, 41184, Control_c, 0, 64, 18
1, 41222, Note_on_c, 0, 88, 92
1, 41313, Note_on_c, 0, 92, 99
1, 41331, Note_off_c, 0, 88, 65
1, 41370, Note_off_c, 0, 92, 68
1, 41370, Control_c, 0, 64, 22
1, 41438, Note_on_c, 0, 88, 96
1, 41462, Control_c, 0, 64, 15
1, 41513, Note_on_c, 0, 92, 98
1, 41537, Note_off_c, 0, 88, 65
1, 41537, Control_c, 0, 64, 23
1, 41586, Note_off_c, 0, 92, 67
1, 41625, Control_c, 0, 64, 17
1, 41661, Control_c, 0, 64, 0
1, 41675, Note_on_c, 0, 89, 92
1, 41679, Control_c, 0, 64, 15
1, 41698, Control_c, 0, 64, 30
1, 41699, Note_on_c, 0, 37, 73
1, 41704, Note_on_c, 0, 92, 92
1, 41716, Note_off_c, 0, 89, 70
1, 41718, Control_c, 0, 64, 36
1, 41728, Note_off_c, 0, 92, 72
1, 41734, Note_off_c, 0, 37, 63
1, 41754, Control_c, 0, 64, 29
1, 41756, Control_c, 0, 67, 8
1, 41774, Control_c, 0, 64, 25
1, 41775, Control_c, 0, 67, 15
1, 41790, Control_c, 0, 67, 24
1, 41809, Control_c, 0, 67, 32
1, 41827, Control_c, 0, 64, 20
1, 41828, Control_c, 0, 67, 37
1, 41847, Control_c, 0, 64, 16
1, 41849, Control_c, 0, 67, 41
1, 41863, Control_c, 0, 64, 12
1, 41864, Control_c, 0, 67, 45
1, 41881, Control_c, 0, 67, 49
1, 41918, Control_c, 0, 67, 55
1, 41920, Note_on_c, 0, 77, 79
1, 41954, Note_off_c, 0, 77, 65
1, 41957, Control_c, 0, 67, 67
1, 41975, Control_c, 0, 64, 0
1, 41976, Control_c, 0, 67, 79
1, 41993, Control_c, 0, 67, 90
1, 42012, Control_c, 0, 67, 97
1, 42027, Control_c, 0, 67, 101
1, 42032, Note_on_c, 0, 68, 52
1, 42046, Note_on_c, 0, 80, 77
1, 42049, Note_on_c, 0, 61, 25
1, 42054, Note_on_c, 0, 56, 56
1, 42064, Note_off_c, 0, 68, 59
1, 42065, Control_c, 0, 67, 106
1, 42072, Note_off_c, 0, 80, 71
1, 42081, Note_off_c, 0, 61, 49
1, 42085, Note_off_c, 0, 56, 63
1, 42085, Control_c, 0, 67, 111
1, 42102, Control_c, 0, 67, 118
1, 42145, Note_on_c, 0, 89, 80
1, 42203, Note_off_c, 0, 89, 63
1, 42233, Control_c, 0, 67, 122
1, 42257, Note_on_c, 0, 41, 74
1, 42260, Note_on_c, 0, 85, 77
1, 42288, Note_off_c, 0, 85, 70
1, 42300, Note_off_c, 0, 41, 66
1, 42399, Note_on_c, 0, 68, 66
1, 42436, Note_off_c, 0, 68, 64
1, 42436, Control_c, 0, 67, 127
1, 42528, Note_on_c, 0, 61, 64
1, 42529, Note_on_c, 0, 73, 79
1, 42539, Note_on_c, 0, 56, 58
1, 42546, Note_on_c, 0, 65, 43
1, 42553, Note_off_c, 0, 73, 72
1, 42567, Note_off_c, 0, 61, 65
1, 42577, Note_off_c, 0, 56, 67
1, 42580, Note_off_c, 0, 65, 54
1, 42625, Note_on_c, 0, 80, 73
1, 42656, Note_off_c, 0, 80, 65
1, 42742, Note_on_c, 0, 82, 80
1, 42744, Note_on_c, 0, 42, 56
1, 42766, Note_off_c, 0, 82, 75
1, 42780, Note_off_c, 0, 42, 59
1, 42882, Note_on_c, 0, 66, 57
1, 42910, Note_off_c, 0, 66, 65
1, 42990, Note_on_c, 0, 70, 64
1, 43001, Note_on_c, 0, 54, 45
1, 43011, Note_on_c, 0, 58, 23
1, 43012, Note_off_c, 0, 70, 68
1, 43036, Note_off_c, 0, 54, 56
1, 43057, Poly_aftertouch_c, 0, 63, 0
1, 43061, Note_off_c, 0, 58, 40
1, 43102, Note_on_c, 0, 78, 61
1, 43130, Note_off_c, 0, 78, 65
1, 43221, Note_on_c, 0, 44, 58
1, 43224, Note_on_c, 0, 75, 64
1, 43256, Note_off_c, 0, 75, 67
1, 43260, Note_off_c, 0, 44, 65
1, 43338, Note_on_c, 0, 72, 55
1, 43366, Note_off_c, 0, 72, 62
1, 43468, Note_on_c, 0, 80, 77
1, 43478, Note_on_c, 0, 68, 64
1, 43484, Note_on_c, 0, 56, 64
1, 43492, Note_on_c, 0, 66, 56
1, 43497, Note_off_c, 0, 80, 65
1, 43509, Note_off_c, 0, 68, 65
1, 43519, Note_off_c, 0, 66, 61
1, 43527, Note_off_c, 0, 56, 62
1, 43575, Note_on_c, 0, 70, 77
1, 43599, Note_off_c, 0, 70, 75
1, 43705, Note_on_c, 0, 78, 80
1, 43710, Note_on_c, 0, 63, 51
1, 43719, Note_on_c, 0, 56, 55
1, 43724, Note_on_c, 0, 72, 59
1, 43730, Note_off_c, 0, 78, 73
1, 43738, Note_off_c, 0, 63, 58
1, 43750, Note_off_c, 0, 72, 64
1, 43756, Note_off_c, 0, 56, 66
1, 43811, Note_on_c, 0, 75, 82
1, 43848, Note_off_c, 0, 75, 64
1, 43939, Note_on_c, 0, 77, 79
1, 43953, Note_on_c, 0, 73, 58
1, 43954, Note_on_c, 0, 49, 48
1, 43971, Note_off_c, 0, 77, 68
1, 43977, Note_off_c, 0, 73, 64
1, 43992, Note_off_c, 0, 49, 55
1, 44053, Note_on_c, 0, 75, 78
1, 44079, Note_off_c, 0, 75, 72
1, 44168, Note_on_c, 0, 83, 72
1, 44168, Note_on_c, 0, 56, 62
1, 44174, Note_on_c, 0, 77, 63
1, 44197, Note_off_c, 0, 77, 66
1, 44197, Note_off_c, 0, 83, 67
1, 44199, Note_on_c, 0, 61, 24
1, 44202, Note_on_c, 0, 65, 22
1, 44211, Note_off_c, 0, 56, 65
1, 44240, Note_off_c, 0, 61, 42
1, 44254, Note_off_c, 0, 65, 29
1, 44297, Note_on_c, 0, 80, 67
1, 44327, Note_off_c, 0, 80, 66
1, 44425, Note_on_c, 0, 54, 61
1, 44426, Note_on_c, 0, 82, 72
1, 44457, Note_off_c, 0, 82, 67
1, 44466, Note_off_c, 0, 54, 65
1, 44491, Poly_aftertouch_c, 0, 61, 0
1, 44543, Note_on_c, 0, 73, 47
1, 44573, Note_off_c, 0, 73, 57
1, 44706, Note_on_c, 0, 37, 54
1, 44709, Note_on_c, 0, 92, 73
1, 44738, Note_off_c, 0, 92, 70
1, 44742, Note_off_c, 0, 37, 56
1, 44823, Note_on_c, 0, 77, 54
1, 44850, Note_off_c, 0, 77, 61
1, 44935, Note_on_c, 0, 80, 67
1, 44952, Note_on_c, 0, 68, 49
1, 44957, Note_off_c, 0, 80, 70
1, 44961, Note_on_c, 0, 61, 38
1, 44982, Note_off_c, 0, 68, 58
1, 44999, Note_off_c, 0, 61, 48
1, 45033, Note_on_c, 0, 85, 76
1, 45058, Note_off_c, 0, 85, 72
1, 45152, Note_on_c, 0, 88, 77
1, 45176, Note_on_c, 0, 49, 49
1, 45178, Note_off_c, 0, 88, 64
1, 45215, Note_off_c, 0, 49, 54
1, 45277, Note_on_c, 0, 73, 65
1, 45316, Note_off_c, 0, 73, 66
1, 45405, Note_on_c, 0, 61, 43
1, 45416, Note_on_c, 0, 64, 46
1, 45421, Note_on_c, 0, 76, 44
1, 45426, Note_on_c, 0, 56, 51
1, 45445, Note_off_c, 0, 61, 64
1, 45450, Note_off_c, 0, 64, 55
1, 45458, Note_off_c, 0, 76, 59
1, 45463, Note_off_c, 0, 56, 65
1, 45517, Note_on_c, 0, 85, 67
1, 45554, Note_off_c, 0, 85, 62
1, 45624, Note_on_c, 0, 42, 64
1, 45629, Note_on_c, 0, 81, 65
1, 45657, Note_off_c, 0, 81, 70
1, 45658, Note_off_c, 0, 42, 65
1, 45722, Note_on_c, 0, 69, 64
1, 45755, Note_off_c, 0, 69, 68
1, 45847, Note_on_c, 0, 54, 59
1, 45848, Note_on_c, 0, 73, 63
1, 45854, Note_on_c, 0, 57, 52
1, 45873, Note_on_c, 0, 61, 40
1, 45883, Note_off_c, 0, 73, 67
1, 45891, Note_off_c, 0, 57, 64
1, 45894, Note_off_c, 0, 54, 62
1, 45905, Note_on_c, 0, 78, 43
1, 45910, Note_off_c, 0, 61, 50
1, 45939, Note_off_c, 0, 78, 52
1, 46018, Note_on_c, 0, 75, 67
1, 46068, Note_on_c, 0, 45, 52
1, 46101, Note_off_c, 0, 45, 55
1, 46125, Note_off_c, 0, 75, 64
1, 46132, Note_on_c, 0, 73, 60
1, 46157, Note_off_c, 0, 73, 66
1, 46280, Note_on_c, 0, 59, 68
1, 46285, Note_on_c, 0, 81, 80
1, 46291, Note_on_c, 0, 71, 52
1, 46291, Note_on_c, 0, 63, 60
1, 46301, Note_on_c, 0, 54, 49
1, 46317, Note_off_c, 0, 71, 62
1, 46319, Note_off_c, 0, 59, 65
1, 46333, Note_off_c, 0, 63, 63
1, 46336, Note_off_c, 0, 81, 59
1, 46346, Note_on_c, 0, 75, 50
1, 46373, Note_off_c, 0, 75, 64
1, 46383, Note_off_c, 0, 54, 49
1, 46486, Note_on_c, 0, 80, 69
1, 46495, Note_on_c, 0, 76, 62
1, 46497, Note_on_c, 0, 56, 72
1, 46499, Note_on_c, 0, 64, 56
1, 46527, Note_off_c, 0, 64, 63
1, 46530, Note_off_c, 0, 56, 69
1, 46549, Note_off_c, 0, 76, 65
1, 46558, Note_off_c, 0, 80, 57
1, 46572, Note_on_c, 0, 71, 67
1, 46603, Note_off_c, 0, 71, 69
1, 46716, Note_on_c, 0, 72, 75
1, 46717, Note_on_c, 0, 44, 64
1, 46755, Note_off_c, 0, 44, 64
1, 46797, Note_off_c, 0, 72, 60
1, 46821, Note_on_c, 0, 70, 66
1, 46853, Note_off_c, 0, 70, 71
1, 46952, Note_on_c, 0, 60, 56
1, 46953, Note_on_c, 0, 56, 61
1, 46954, Note_on_c, 0, 78, 73
1, 46960, Note_on_c, 0, 68, 65
1, 46963, Note_on_c, 0, 63, 46
1, 46982, Note_off_c, 0, 60, 65
1, 46993, Note_off_c, 0, 56, 67
1, 46997, Note_off_c, 0, 63, 54
1, 47000, Note_off_c, 0, 68, 60
1, 47022, Note_on_c, 0, 72, 68
1, 47029, Note_off_c, 0, 78, 51
1, 47073, Note_off_c, 0, 72, 66
1, 47189, Note_on_c, 0, 77, 78
1, 47191, Note_on_c, 0, 49, 75
1, 47193, Note_on_c, 0, 61, 67
1, 47222, Note_on_c, 0, 73, 42
1, 47227, Note_off_c, 0, 61, 68
1, 47227, Note_off_c, 0, 49, 68
1, 47256, Note_off_c, 0, 77, 52
1, 47260, Note_off_c, 0, 73, 55
1, 47295, Note_on_c, 0, 68, 76
1, 47323, Note_off_c, 0, 68, 71
1, 47418, Note_on_c, 0, 42, 59
1, 47429, Note_on_c, 0, 70, 72
1, 47452, Note_off_c, 0, 42, 59
1, 47503, Note_on_c, 0, 68, 69
1, 47517, Note_off_c, 0, 70, 62
1, 47546, Note_off_c, 0, 68, 65
1, 47619, Note_on_c, 0, 75, 78
1, 47633, Note_on_c, 0, 66, 56
1, 47638, Note_on_c, 0, 54, 73
1, 47638, Note_on_c, 0, 63, 71
1, 47679, Note_off_c, 0, 63, 59
1, 47686, Control_c, 0, 67, 120
1, 47704, Control_c, 0, 67, 101
1, 47709, Note_off_c, 0, 66, 48
1, 47711, Note_on_c, 0, 70, 59
1, 47723, Control_c, 0, 67, 73
1, 47726, Note_off_c, 0, 75, 61
1, 47742, Control_c, 0, 67, 37
1, 47750, Note_off_c, 0, 54, 57
1, 47772, Note_on_c, 0, 72, 64
1, 47779, Control_c, 0, 67, 0
1, 47785, Note_on_c, 0, 68, 37
1, 47817, Note_off_c, 0, 70, 65
1, 47828, Note_off_c, 0, 68, 48
1, 47836, Note_on_c, 0, 56, 77
1, 47855, Control_c, 0, 64, 9
1, 47856, Note_off_c, 0, 72, 63
1, 47867, Note_off_c, 0, 56, 69
1, 47909, Note_on_c, 0, 65, 62
1, 47929, Note_on_c, 0, 68, 66
1, 47950, Note_off_c, 0, 65, 64
1, 48007, Note_off_c, 0, 68, 63
1, 48021, Note_on_c, 0, 73, 53
1, 48060, Note_off_c, 0, 73, 66
1, 48062, Note_on_c, 0, 37, 70
1, 48072, Note_on_c, 0, 49, 67
1, 48119, Note_off_c, 0, 37, 63
1, 48132, Note_off_c, 0, 49, 63
1, 48146, Control_c, 0, 64, 14
1, 48181, Control_c, 0, 64, 18
1, 48194, Note_on_c, 0, 73, 64
1, 48275, Control_c, 0, 64, 23
1, 48293, Control_c, 0, 64, 31
1, 48301, Note_off_c, 0, 73, 41
1, 48310, Note_on_c, 0, 77, 78
1, 48312, Control_c, 0, 64, 39
1, 48319, Note_on_c, 0, 56, 69
1, 48326, Note_on_c, 0, 65, 67
1, 48330, Control_c, 0, 64, 44
1, 48337, Note_on_c, 0, 61, 57
1, 48349, Control_c, 0, 64, 47
1, 48355, Note_off_c, 0, 56, 67
1, 48358, Note_off_c, 0, 65, 67
1, 48366, Note_off_c, 0, 61, 63
1, 48385, Note_off_c, 0, 77, 63
1, 48385, Note_on_c, 0, 85, 82
1, 48385, Control_c, 0, 64, 50
1, 48496, Control_c, 0, 64, 47
1, 48508, Note_on_c, 0, 66, 73
1, 48512, Note_on_c, 0, 61, 61
1, 48514, Note_on_c, 0, 78, 78
1, 48515, Control_c, 0, 64, 44
1, 48516, Note_on_c, 0, 82, 59
1, 48525, Note_off_c, 0, 85, 64
1, 48528, Note_on_c, 0, 54, 69
1, 48529, Note_on_c, 0, 58, 51
1, 48535, Control_c, 0, 64, 38
1, 48536, Note_off_c, 0, 66, 71
1, 48544, Note_off_c, 0, 61, 65
1, 48549, Control_c, 0, 64, 22
1, 48556, Note_off_c, 0, 58, 59
1, 48559, Note_off_c, 0, 54, 68
1, 48568, Control_c, 0, 64, 0
1, 48575, Note_on_c, 0, 83, 11
1, 48586, Note_off_c, 0, 83, 41
1, 48614, Note_off_c, 0, 78, 57
1, 48616, Note_on_c, 0, 73, 62
1, 48622, Note_off_c, 0, 82, 46
1, 48639, Note_off_c, 0, 73, 65
1, 48729, Note_on_c, 0, 49, 91
1, 48730, Note_on_c, 0, 37, 79
1, 48732, Note_on_c, 0, 73, 86
1, 48738, Note_on_c, 0, 65, 82
1, 48744, Note_on_c, 0, 68, 78
1, 48758, Note_off_c, 0, 49, 69
1, 48759, Note_off_c, 0, 37, 66
1, 48764, Note_off_c, 0, 65, 73
1, 48771, Note_off_c, 0, 68, 72
1, 48798, Note_off_c, 0, 73, 65
1, 48860, Note_on_c, 0, 73, 82
1, 48923, Note_off_c, 0, 73, 56
1, 48957, Note_on_c, 0, 77, 80
1, 48969, Note_on_c, 0, 56, 69
1, 48971, Note_on_c, 0, 61, 71
1, 48973, Note_on_c, 0, 65, 71
1, 49004, Note_off_c, 0, 65, 67
1, 49004, Note_off_c, 0, 61, 67
1, 49035, Note_off_c, 0, 56, 61
1, 49052, Note_off_c, 0, 77, 64
1, 49076, Note_on_c, 0, 85, 80
1, 49194, Note_on_c, 0, 82, 78
1, 49196, Note_on_c, 0, 78, 80
1, 49209, Note_on_c, 0, 66, 73
1, 49215, Note_off_c, 0, 85, 60
1, 49216, Note_on_c, 0, 54, 73
1, 49220, Note_on_c, 0, 61, 61
1, 49226, Note_on_c, 0, 58, 55
1, 49238, Note_off_c, 0, 66, 71
1, 49254, Note_off_c, 0, 61, 64
1, 49256, Note_off_c, 0, 54, 65
1, 49260, Note_off_c, 0, 58, 64
1, 49286, Note_off_c, 0, 78, 58
1, 49286, Note_on_c, 0, 73, 64
1, 49295, Note_off_c, 0, 82, 65
1, 49319, Note_off_c, 0, 73, 69
1, 49417, Note_on_c, 0, 37, 88
1, 49418, Note_on_c, 0, 73, 83
1, 49420, Note_on_c, 0, 49, 95
1, 49420, Note_on_c, 0, 68, 82
1, 49423, Note_on_c, 0, 65, 76
1, 49439, Note_off_c, 0, 73, 68
1, 49446, Note_off_c, 0, 65, 68
1, 49452, Note_off_c, 0, 49, 69
1, 49454, Note_off_c, 0, 68, 66
1, 49456, Note_off_c, 0, 37, 68
1, 49457, Note_on_c, 0, 72, 55
1, 49485, Note_off_c, 0, 72, 61
1, 49531, Note_on_c, 0, 73, 79
1, 49638, Note_on_c, 0, 77, 80
1, 49646, Note_on_c, 0, 56, 81
1, 49654, Note_on_c, 0, 65, 79
1, 49658, Note_off_c, 0, 73, 48
1, 49663, Note_on_c, 0, 61, 68
1, 49690, Note_off_c, 0, 61, 61
1, 49690, Note_off_c, 0, 65, 63
1, 49706, Note_off_c, 0, 56, 60
1, 49710, Control_c, 0, 64, 18
1, 49726, Control_c, 0, 64, 30
1, 49735, Poly_aftertouch_c, 0, 64, 0
1, 49739, Note_off_c, 0, 77, 63
1, 49743, Note_on_c, 0, 85, 82
1, 49745, Control_c, 0, 64, 41
1, 49763, Control_c, 0, 64, 48
1, 49783, Control_c, 0, 64, 54
1, 49799, Control_c, 0, 64, 59
1, 49818, Control_c, 0, 64, 62
1, 49837, Control_c, 0, 64, 65
1, 49849, Note_on_c, 0, 82, 84
1, 49855, Control_c, 0, 64, 69
1, 49857, Note_on_c, 0, 78, 84
1, 49865, Note_on_c, 0, 61, 74
1, 49871, Control_c, 0, 64, 74
1, 49873, Note_on_c, 0, 66, 79
1, 49883, Note_off_c, 0, 85, 62
1, 49884, Note_on_c, 0, 54, 76
1, 49885, Note_on_c, 0, 58, 58
1, 49890, Control_c, 0, 64, 83
1, 49899, Note_off_c, 0, 66, 72
1, 49901, Note_off_c, 0, 61, 65
1, 49909, Control_c, 0, 64, 91
1, 49925, Note_off_c, 0, 54, 67
1, 49928, Control_c, 0, 64, 97
1, 49929, Note_off_c, 0, 58, 64
1, 49944, Note_on_c, 0, 73, 76
1, 49973, Note_off_c, 0, 78, 58
1, 49973, Note_off_c, 0, 82, 65
1, 49988, Note_off_c, 0, 73, 69
1, 50001, Control_c, 0, 64, 101
1, 50088, Note_on_c, 0, 73, 97
1, 50088, Note_on_c, 0, 65, 93
1, 50090, Control_c, 0, 64, 91
1, 50095, Note_on_c, 0, 49, 87
1, 50099, Note_on_c, 0, 37, 73
1, 50109, Note_off_c, 0, 73, 71
1, 50109, Control_c, 0, 64, 64
1, 50112, Note_off_c, 0, 65, 73
1, 50124, Note_off_c, 0, 49, 70
1, 50127, Control_c, 0, 64, 0
1, 50132, Note_off_c, 0, 37, 60
1, 50203, Note_on_c, 0, 73, 91
1, 50250, Note_off_c, 0, 73, 66
1, 50317, Note_on_c, 0, 77, 85
1, 50405, Note_off_c, 0, 77, 61
1, 50414, Note_on_c, 0, 73, 66
1, 50446, Note_off_c, 0, 73, 65
1, 50530, Note_on_c, 0, 65, 82
1, 50597, Note_off_c, 0, 65, 64
1, 50635, Note_on_c, 0, 61, 88
1, 50697, Note_off_c, 0, 61, 63
1, 50730, Note_on_c, 0, 77, 98
1, 50830, Note_off_c, 0, 77, 59
1, 50837, Note_on_c, 0, 73, 78
1, 50864, Note_off_c, 0, 73, 72
1, 50967, Note_on_c, 0, 65, 71
1, 51056, Note_off_c, 0, 65, 64
1, 51063, Note_on_c, 0, 61, 75
1, 51091, Note_off_c, 0, 61, 70
1, 51193, Note_on_c, 0, 53, 77
1, 51220, Note_on_c, 0, 55, 39
1, 51272, Note_off_c, 0, 55, 34
1, 51293, Note_on_c, 0, 49, 71
1, 51333, Note_off_c, 0, 53, 0
1, 51382, Note_on_c, 0, 37, 91
1, 51383, Note_off_c, 0, 49, 59
1, 51383, Note_on_c, 0, 25, 93
1, 51406, Note_on_c, 0, 30, 58
1, 51415, Control_c, 0, 64, 98
1, 51433, Control_c, 0, 64, 127
1, 51458, Note_off_c, 0, 30, 58
1, 51518, Poly_aftertouch_c, 0, 27, 127
1, 51521, Poly_aftertouch_c, 0, 53, 0
1, 51522, Note_off_c, 0, 25, 62
1, 51522, Note_off_c, 0, 37, 61
1, 51539, Poly_aftertouch_c, 0, 27, 0
1, 51565, Control_c, 0, 64, 84
1, 51582, Control_c, 0, 64, 0
1, 53760, End_track
0, 0, End_of_file
