0, 0, Header, 0, 1, 480
1, 0, Start_track
1, 0, Title_t, "16 Waltzes Op.39"
1, 0, Copyright_t, "                  "
1, 0, Tempo, 512820
1, 0, Time_signature, 4, 2, 24, 8
1, 1125, Note_on_c, 0, 42, 57
1, 1131, Note_on_c, 0, 66, 72
1, 1149, Control_c, 0, 64, 52
1, 1168, Control_c, 0, 64, 83
1, 1188, Control_c, 0, 64, 108
1, 1205, Control_c, 0, 64, 127
1, 1210, Note_off_c, 0, 66, 65
1, 1211, Note_on_c, 0, 68, 75
1, 1240, Note_off_c, 0, 42, 62
1, 1247, Note_on_c, 0, 44, 64
1, 1296, Note_on_c, 0, 70, 84
1, 1306, Note_on_c, 0, 46, 72
1, 1334, Note_off_c, 0, 68, 60
1, 1338, Note_off_c, 0, 44, 63
1, 1356, Note_off_c, 0, 70, 65
1, 1370, Note_off_c, 0, 46, 64
1, 1423, Note_on_c, 0, 71, 89
1, 1425, Control_c, 0, 64, 114
1, 1425, Note_on_c, 0, 59, 89
1, 1440, Note_on_c, 0, 66, 87
1, 1444, Note_on_c, 0, 63, 84
1, 1444, Note_on_c, 0, 47, 84
1, 1448, Note_on_c, 0, 35, 82
1, 1465, Control_c, 0, 64, 77
1, 1478, Control_c, 0, 64, 0
1, 1608, Note_off_c, 0, 35, 60
1, 1624, Control_c, 0, 64, 60
1, 1632, Note_off_c, 0, 59, 59
1, 1643, Control_c, 0, 64, 98
1, 1661, Control_c, 0, 64, 127
1, 1667, Note_off_c, 0, 47, 62
1, 1685, Note_off_c, 0, 63, 57
1, 1703, Note_off_c, 0, 66, 61
1, 1710, Note_off_c, 0, 71, 60
1, 2077, Note_on_c, 0, 78, 90
1, 2079, Note_on_c, 0, 83, 88
1, 2080, Note_on_c, 0, 47, 91
1, 2082, Note_on_c, 0, 71, 88
1, 2082, Note_on_c, 0, 59, 84
1, 2083, Note_on_c, 0, 75, 89
1, 2106, Note_off_c, 0, 59, 76
1, 2117, Note_off_c, 0, 71, 61
1, 2127, Note_off_c, 0, 83, 60
1, 2128, Note_off_c, 0, 47, 68
1, 2136, Note_off_c, 0, 75, 65
1, 2148, Note_off_c, 0, 78, 60
1, 2249, Note_on_c, 0, 75, 71
1, 2255, Note_on_c, 0, 78, 74
1, 2285, Note_off_c, 0, 75, 67
1, 2314, Note_off_c, 0, 78, 62
1, 2343, Control_c, 0, 64, 99
1, 2360, Control_c, 0, 64, 62
1, 2394, Control_c, 0, 64, 0
1, 2433, Poly_aftertouch_c, 0, 32, 0
1, 2448, Note_on_c, 0, 28, 88
1, 2450, Note_on_c, 0, 40, 91
1, 2462, Note_on_c, 0, 71, 90
1, 2463, Note_on_c, 0, 76, 80
1, 2464, Note_on_c, 0, 80, 89
1, 2465, Note_on_c, 0, 68, 94
1, 2496, Note_on_c, 0, 75, 48
1, 2527, Note_on_c, 0, 78, 17
1, 2528, Note_off_c, 0, 78, 127
1, 2574, Note_off_c, 0, 28, 62
1, 2616, Control_c, 0, 64, 69
1, 2623, Note_off_c, 0, 40, 62
1, 2625, Note_off_c, 0, 75, 27
1, 2636, Control_c, 0, 64, 100
1, 2653, Control_c, 0, 64, 127
1, 2668, Note_off_c, 0, 68, 59
1, 2695, Note_off_c, 0, 71, 55
1, 2722, Note_off_c, 0, 80, 59
1, 2723, Note_off_c, 0, 76, 61
1, 3140, Note_on_c, 0, 80, 96
1, 3142, Note_on_c, 0, 92, 97
1, 3142, Note_on_c, 0, 64, 82
1, 3146, Note_on_c, 0, 52, 85
1, 3149, Note_on_c, 0, 56, 77
1, 3150, Note_on_c, 0, 59, 69
1, 3171, Note_off_c, 0, 64, 73
1, 3171, Control_c, 0, 64, 86
1, 3179, Note_off_c, 0, 56, 70
1, 3184, Note_off_c, 0, 59, 69
1, 3184, Note_off_c, 0, 80, 64
1, 3187, Note_off_c, 0, 52, 67
1, 3190, Control_c, 0, 64, 0
1, 3191, Note_off_c, 0, 92, 66
1, 3371, Note_on_c, 0, 85, 49
1, 3377, Poly_aftertouch_c, 0, 90, 0
1, 3407, Note_on_c, 0, 87, 64
1, 3453, Note_on_c, 0, 78, 93
1, 3460, Note_on_c, 0, 27, 80
1, 3465, Note_on_c, 0, 88, 56
1, 3466, Note_on_c, 0, 39, 84
1, 3469, Note_off_c, 0, 85, 46
1, 3480, Control_c, 0, 64, 59
1, 3486, Note_off_c, 0, 87, 67
1, 3488, Note_off_c, 0, 27, 66
1, 3497, Poly_aftertouch_c, 0, 90, 127
1, 3497, Control_c, 0, 64, 81
1, 3498, Note_off_c, 0, 88, 68
1, 3499, Note_off_c, 0, 39, 67
1, 3508, Note_off_c, 0, 78, 61
1, 3512, Poly_aftertouch_c, 0, 90, 0
1, 3513, Control_c, 0, 64, 85
1, 3534, Control_c, 0, 64, 82
1, 3553, Control_c, 0, 64, 78
1, 3554, Poly_aftertouch_c, 0, 89, 0
1, 3572, Control_c, 0, 64, 68
1, 3589, Control_c, 0, 64, 44
1, 3609, Note_on_c, 0, 88, 67
1, 3609, Control_c, 0, 64, 0
1, 3618, Note_on_c, 0, 76, 56
1, 3634, Note_off_c, 0, 88, 65
1, 3647, Note_off_c, 0, 76, 63
1, 3736, Note_on_c, 0, 87, 83
1, 3737, Note_on_c, 0, 75, 82
1, 3740, Note_on_c, 0, 59, 65
1, 3743, Note_on_c, 0, 54, 66
1, 3745, Note_on_c, 0, 51, 70
1, 3762, Note_off_c, 0, 75, 74
1, 3765, Note_off_c, 0, 87, 68
1, 3775, Note_off_c, 0, 59, 66
1, 3776, Note_off_c, 0, 51, 67
1, 3782, Note_off_c, 0, 54, 66
1, 3782, Note_on_c, 0, 82, 14
1, 3783, Note_off_c, 0, 82, 127
1, 3877, Note_on_c, 0, 78, 88
1, 3879, Note_on_c, 0, 90, 85
1, 3891, Note_on_c, 0, 42, 74
1, 3902, Note_off_c, 0, 78, 72
1, 3907, Note_off_c, 0, 90, 69
1, 3933, Note_on_c, 0, 46, 55
1, 3943, Note_off_c, 0, 42, 66
1, 3988, Note_off_c, 0, 46, 67
1, 3995, Poly_aftertouch_c, 0, 44, 127
1, 4021, Note_on_c, 0, 73, 95
1, 4024, Note_on_c, 0, 58, 77
1, 4025, Note_on_c, 0, 85, 88
1, 4035, Poly_aftertouch_c, 0, 44, 0
1, 4040, Note_off_c, 0, 73, 74
1, 4045, Note_off_c, 0, 85, 75
1, 4077, Note_off_c, 0, 58, 61
1, 4161, Note_on_c, 0, 76, 85
1, 4161, Note_on_c, 0, 88, 87
1, 4184, Note_off_c, 0, 88, 75
1, 4186, Note_off_c, 0, 76, 72
1, 4270, Poly_aftertouch_c, 0, 49, 0
1, 4302, Note_on_c, 0, 47, 70
1, 4312, Note_on_c, 0, 59, 73
1, 4320, Note_on_c, 0, 83, 88
1, 4320, Note_on_c, 0, 71, 89
1, 4326, Note_on_c, 0, 54, 63
1, 4334, Note_off_c, 0, 47, 64
1, 4343, Note_off_c, 0, 71, 74
1, 4344, Note_off_c, 0, 83, 74
1, 4346, Note_off_c, 0, 59, 72
1, 4350, Poly_aftertouch_c, 0, 76, 0
1, 4356, Note_on_c, 0, 51, 35
1, 4364, Note_off_c, 0, 54, 65
1, 4399, Note_off_c, 0, 51, 33
1, 4451, Note_on_c, 0, 87, 88
1, 4456, Note_on_c, 0, 75, 89
1, 4478, Note_off_c, 0, 75, 75
1, 4498, Note_off_c, 0, 87, 66
1, 4606, Control_c, 0, 64, 36
1, 4606, Note_on_c, 0, 54, 78
1, 4607, Note_on_c, 0, 66, 75
1, 4610, Note_on_c, 0, 85, 91
1, 4612, Note_on_c, 0, 73, 88
1, 4613, Note_on_c, 0, 82, 78
1, 4615, Note_on_c, 0, 78, 78
1, 4619, Note_on_c, 0, 61, 63
1, 4621, Note_on_c, 0, 58, 70
1, 4625, Control_c, 0, 64, 82
1, 4649, Note_off_c, 0, 73, 75
1, 4652, Note_off_c, 0, 82, 73
1, 4652, Note_off_c, 0, 66, 72
1, 4653, Note_off_c, 0, 85, 63
1, 4655, Note_off_c, 0, 78, 71
1, 4657, Control_c, 0, 64, 110
1, 4666, Note_off_c, 0, 54, 62
1, 4668, Note_off_c, 0, 61, 66
1, 4672, Note_off_c, 0, 58, 66
1, 4675, Control_c, 0, 64, 127
1, 4893, Note_on_c, 0, 68, 19
1, 4898, Note_on_c, 0, 66, 80
1, 4919, Note_off_c, 0, 68, 29
1, 4991, Note_off_c, 0, 66, 59
1, 5028, Poly_aftertouch_c, 0, 68, 127
1, 5047, Note_on_c, 0, 70, 60
1, 5078, Poly_aftertouch_c, 0, 68, 0
1, 5085, Note_off_c, 0, 70, 55
1, 5105, Control_c, 0, 64, 106
1, 5122, Control_c, 0, 64, 76
1, 5140, Control_c, 0, 64, 9
1, 5159, Control_c, 0, 64, 0
1, 5179, Note_on_c, 0, 59, 95
1, 5179, Note_on_c, 0, 71, 90
1, 5180, Note_on_c, 0, 44, 93
1, 5200, Note_on_c, 0, 32, 86
1, 5200, Note_on_c, 0, 63, 82
1, 5207, Note_on_c, 0, 68, 81
1, 5359, Control_c, 0, 64, 62
1, 5363, Note_off_c, 0, 32, 64
1, 5377, Control_c, 0, 64, 83
1, 5385, Note_off_c, 0, 59, 58
1, 5394, Control_c, 0, 64, 102
1, 5403, Note_off_c, 0, 44, 62
1, 5412, Control_c, 0, 64, 116
1, 5414, Note_off_c, 0, 63, 58
1, 5433, Control_c, 0, 64, 126
1, 5449, Note_off_c, 0, 71, 63
1, 5456, Note_off_c, 0, 68, 58
1, 5803, Note_on_c, 0, 83, 93
1, 5805, Note_on_c, 0, 71, 93
1, 5807, Note_on_c, 0, 75, 90
1, 5809, Note_on_c, 0, 80, 84
1, 5809, Note_on_c, 0, 56, 85
1, 5811, Note_on_c, 0, 44, 89
1, 5835, Note_on_c, 0, 78, 58
1, 5843, Note_off_c, 0, 56, 72
1, 5853, Note_off_c, 0, 83, 65
1, 5855, Note_off_c, 0, 78, 60
1, 5857, Note_off_c, 0, 75, 66
1, 5857, Note_off_c, 0, 71, 58
1, 5859, Note_off_c, 0, 44, 64
1, 5865, Note_off_c, 0, 80, 62
1, 5891, Control_c, 0, 64, 111
1, 5909, Control_c, 0, 64, 86
1, 5928, Control_c, 0, 64, 42
1, 5945, Control_c, 0, 64, 0
1, 5949, Note_on_c, 0, 74, 90
1, 5967, Note_on_c, 0, 77, 78
1, 5986, Note_on_c, 0, 75, 50
1, 5997, Note_off_c, 0, 74, 66
1, 6021, Note_off_c, 0, 75, 54
1, 6021, Note_off_c, 0, 77, 64
1, 6146, Note_on_c, 0, 78, 91
1, 6150, Note_on_c, 0, 66, 91
1, 6157, Note_on_c, 0, 27, 92
1, 6157, Note_on_c, 0, 39, 93
1, 6158, Note_on_c, 0, 70, 83
1, 6174, Note_on_c, 0, 75, 51
1, 6256, Control_c, 0, 64, 49
1, 6276, Control_c, 0, 64, 79
1, 6284, Note_off_c, 0, 27, 63
1, 6294, Control_c, 0, 64, 99
1, 6310, Control_c, 0, 64, 118
1, 6319, Note_off_c, 0, 39, 63
1, 6329, Control_c, 0, 64, 127
1, 6360, Note_off_c, 0, 66, 63
1, 6408, Note_off_c, 0, 75, 32
1, 6409, Note_off_c, 0, 70, 60
1, 6435, Note_off_c, 0, 78, 60
1, 6890, Note_on_c, 0, 63, 88
1, 6896, Note_on_c, 0, 90, 101
1, 6897, Note_on_c, 0, 58, 78
1, 6897, Note_on_c, 0, 54, 82
1, 6898, Note_on_c, 0, 78, 97
1, 6901, Note_on_c, 0, 51, 84
1, 6920, Note_off_c, 0, 63, 74
1, 6928, Note_off_c, 0, 54, 71
1, 6929, Note_off_c, 0, 58, 68
1, 6935, Note_off_c, 0, 51, 65
1, 6935, Note_off_c, 0, 78, 65
1, 6937, Control_c, 0, 64, 106
1, 6940, Note_off_c, 0, 90, 66
1, 6956, Control_c, 0, 64, 63
1, 6967, Poly_aftertouch_c, 0, 87, 0
1, 6974, Control_c, 0, 64, 0
1, 7226, Note_on_c, 0, 89, 55
1, 7246, Note_on_c, 0, 90, 59
1, 7281, Note_on_c, 0, 25, 81
1, 7286, Note_on_c, 0, 37, 91
1, 7286, Note_on_c, 0, 94, 98
1, 7290, Note_on_c, 0, 92, 80
1, 7292, Note_on_c, 0, 82, 97
1, 7310, Note_off_c, 0, 25, 66
1, 7320, Control_c, 0, 64, 86
1, 7323, Note_off_c, 0, 37, 70
1, 7329, Note_off_c, 0, 90, 63
1, 7331, Note_off_c, 0, 89, 64
1, 7338, Control_c, 0, 64, 127
1, 7346, Note_off_c, 0, 92, 63
1, 7380, Note_off_c, 0, 82, 64
1, 7383, Note_off_c, 0, 94, 65
1, 7462, Note_on_c, 0, 92, 96
1, 7465, Note_on_c, 0, 80, 92
1, 7491, Note_off_c, 0, 80, 64
1, 7514, Note_off_c, 0, 92, 64
1, 7561, Control_c, 0, 64, 110
1, 7580, Control_c, 0, 64, 83
1, 7601, Control_c, 0, 64, 51
1, 7606, Note_on_c, 0, 78, 90
1, 7608, Note_on_c, 0, 66, 69
1, 7609, Note_on_c, 0, 54, 68
1, 7609, Note_on_c, 0, 90, 88
1, 7614, Note_on_c, 0, 61, 56
1, 7620, Control_c, 0, 64, 0
1, 7623, Note_on_c, 0, 58, 54
1, 7627, Note_off_c, 0, 78, 64
1, 7629, Note_off_c, 0, 66, 69
1, 7632, Note_off_c, 0, 90, 75
1, 7646, Note_off_c, 0, 54, 67
1, 7651, Note_off_c, 0, 61, 64
1, 7653, Note_off_c, 0, 58, 62
1, 7722, Note_on_c, 0, 94, 91
1, 7728, Note_on_c, 0, 82, 81
1, 7747, Note_off_c, 0, 94, 72
1, 7754, Note_off_c, 0, 82, 73
1, 7855, Note_on_c, 0, 59, 75
1, 7857, Note_on_c, 0, 77, 87
1, 7865, Note_on_c, 0, 49, 73
1, 7869, Note_on_c, 0, 89, 67
1, 7882, Note_off_c, 0, 77, 64
1, 7882, Note_on_c, 0, 87, 49
1, 7883, Note_off_c, 0, 87, 127
1, 7884, Note_off_c, 0, 59, 71
1, 7894, Note_off_c, 0, 89, 66
1, 7902, Note_off_c, 0, 49, 67
1, 7968, Note_on_c, 0, 92, 77
1, 7985, Note_on_c, 0, 90, 50
1, 8030, Note_off_c, 0, 92, 61
1, 8032, Note_off_c, 0, 90, 58
1, 8033, Note_on_c, 0, 42, 74
1, 8074, Control_c, 0, 64, 49
1, 8078, Note_on_c, 0, 49, 73
1, 8079, Note_off_c, 0, 42, 66
1, 8090, Note_on_c, 0, 90, 84
1, 8091, Note_on_c, 0, 78, 81
1, 8092, Control_c, 0, 64, 101
1, 8099, Poly_aftertouch_c, 0, 80, 0
1, 8111, Control_c, 0, 64, 127
1, 8116, Note_off_c, 0, 90, 72
1, 8120, Note_off_c, 0, 78, 65
1, 8153, Note_on_c, 0, 58, 80
1, 8163, Note_off_c, 0, 49, 63
1, 8167, Note_on_c, 0, 78, 76
1, 8174, Note_on_c, 0, 90, 82
1, 8181, Note_off_c, 0, 58, 68
1, 8218, Note_off_c, 0, 78, 62
1, 8220, Control_c, 0, 64, 116
1, 8240, Control_c, 0, 64, 79
1, 8243, Note_off_c, 0, 90, 64
1, 8259, Control_c, 0, 64, 0
1, 8310, Note_on_c, 0, 89, 78
1, 8314, Note_on_c, 0, 77, 74
1, 8332, Note_off_c, 0, 89, 70
1, 8342, Note_off_c, 0, 77, 68
1, 8350, Note_on_c, 0, 58, 8
1, 8370, Note_off_c, 0, 58, 28
1, 8451, Note_on_c, 0, 66, 76
1, 8455, Note_on_c, 0, 90, 88
1, 8459, Note_on_c, 0, 78, 86
1, 8459, Note_on_c, 0, 54, 75
1, 8462, Note_on_c, 0, 61, 63
1, 8476, Note_off_c, 0, 90, 64
1, 8478, Control_c, 0, 64, 81
1, 8479, Note_off_c, 0, 66, 74
1, 8482, Note_off_c, 0, 78, 73
1, 8492, Note_off_c, 0, 61, 64
1, 8496, Control_c, 0, 64, 121
1, 8503, Note_off_c, 0, 54, 67
1, 8515, Control_c, 0, 64, 127
1, 8545, Poly_aftertouch_c, 0, 58, 127
1, 8573, Poly_aftertouch_c, 0, 58, 0
1, 8791, Poly_aftertouch_c, 0, 72, 127
1, 8801, Note_on_c, 0, 66, 69
1, 8804, Note_on_c, 0, 42, 62
1, 8813, Poly_aftertouch_c, 0, 72, 0
1, 8870, Note_on_c, 0, 68, 76
1, 8872, Note_on_c, 0, 44, 73
1, 8890, Note_off_c, 0, 42, 64
1, 8917, Note_on_c, 0, 46, 74
1, 8921, Note_on_c, 0, 70, 76
1, 8922, Note_off_c, 0, 66, 62
1, 8969, Note_off_c, 0, 70, 64
1, 8972, Note_off_c, 0, 68, 62
1, 8983, Note_off_c, 0, 44, 62
1, 8993, Note_off_c, 0, 46, 64
1, 9030, Control_c, 0, 64, 121
1, 9041, Note_on_c, 0, 59, 95
1, 9044, Note_on_c, 0, 66, 91
1, 9045, Note_on_c, 0, 71, 90
1, 9048, Note_on_c, 0, 35, 88
1, 9049, Control_c, 0, 64, 82
1, 9050, Note_on_c, 0, 47, 91
1, 9052, Note_on_c, 0, 63, 82
1, 9070, Control_c, 0, 64, 0
1, 9239, Note_off_c, 0, 35, 61
1, 9251, Control_c, 0, 64, 59
1, 9253, Note_off_c, 0, 59, 58
1, 9271, Control_c, 0, 64, 107
1, 9289, Control_c, 0, 64, 127
1, 9292, Note_off_c, 0, 47, 64
1, 9301, Note_off_c, 0, 63, 56
1, 9334, Note_off_c, 0, 71, 61
1, 9334, Note_off_c, 0, 66, 63
1, 9645, Note_on_c, 0, 59, 88
1, 9648, Note_on_c, 0, 71, 95
1, 9648, Note_on_c, 0, 47, 93
1, 9651, Note_on_c, 0, 78, 91
1, 9651, Note_on_c, 0, 75, 92
1, 9652, Note_on_c, 0, 83, 89
1, 9677, Note_off_c, 0, 59, 64
1, 9691, Note_off_c, 0, 83, 60
1, 9693, Note_off_c, 0, 47, 65
1, 9699, Note_off_c, 0, 71, 60
1, 9714, Note_off_c, 0, 75, 64
1, 9728, Note_off_c, 0, 78, 59
1, 9803, Note_on_c, 0, 78, 74
1, 9815, Note_on_c, 0, 75, 77
1, 9842, Note_off_c, 0, 75, 72
1, 9844, Note_on_c, 0, 79, 49
1, 9884, Note_off_c, 0, 78, 61
1, 9887, Note_off_c, 0, 79, 58
1, 10009, Note_on_c, 0, 40, 100
1, 10009, Note_on_c, 0, 76, 82
1, 10010, Note_on_c, 0, 68, 93
1, 10011, Note_on_c, 0, 80, 87
1, 10011, Note_on_c, 0, 28, 96
1, 10011, Note_on_c, 0, 71, 88
1, 10020, Control_c, 0, 64, 87
1, 10031, Note_on_c, 0, 75, 73
1, 10037, Control_c, 0, 64, 0
1, 10045, Note_on_c, 0, 78, 50
1, 10046, Note_off_c, 0, 78, 127
1, 10054, Note_off_c, 0, 75, 63
1, 10057, Note_on_c, 0, 67, 43
1, 10097, Note_off_c, 0, 67, 39
1, 10138, Poly_aftertouch_c, 0, 30, 0
1, 10215, Note_off_c, 0, 28, 63
1, 10220, Poly_aftertouch_c, 0, 74, 0
1, 10244, Control_c, 0, 64, 64
1, 10256, Note_off_c, 0, 40, 62
1, 10261, Control_c, 0, 64, 127
1, 10295, Note_off_c, 0, 68, 59
1, 10323, Note_off_c, 0, 71, 56
1, 10356, Note_off_c, 0, 76, 61
1, 10370, Note_off_c, 0, 80, 55
1, 10717, Note_on_c, 0, 80, 100
1, 10718, Note_on_c, 0, 64, 89
1, 10720, Note_on_c, 0, 92, 98
1, 10722, Note_on_c, 0, 52, 86
1, 10723, Note_on_c, 0, 56, 85
1, 10724, Note_on_c, 0, 59, 80
1, 10745, Note_off_c, 0, 64, 76
1, 10751, Note_off_c, 0, 59, 74
1, 10758, Control_c, 0, 64, 115
1, 10762, Note_off_c, 0, 56, 66
1, 10765, Note_off_c, 0, 80, 65
1, 10772, Note_off_c, 0, 52, 65
1, 10774, Note_off_c, 0, 92, 66
1, 10777, Control_c, 0, 64, 84
1, 10796, Control_c, 0, 64, 40
1, 10830, Control_c, 0, 64, 0
1, 10972, Note_on_c, 0, 85, 58
1, 10985, Note_on_c, 0, 87, 73
1, 11022, Note_on_c, 0, 88, 66
1, 11030, Note_off_c, 0, 85, 52
1, 11043, Note_on_c, 0, 90, 92
1, 11046, Note_on_c, 0, 78, 96
1, 11058, Note_on_c, 0, 27, 85
1, 11067, Note_on_c, 0, 39, 89
1, 11069, Control_c, 0, 64, 70
1, 11088, Control_c, 0, 64, 93
1, 11089, Note_off_c, 0, 27, 70
1, 11089, Note_off_c, 0, 87, 65
1, 11095, Note_off_c, 0, 88, 65
1, 11101, Note_off_c, 0, 39, 69
1, 11106, Control_c, 0, 64, 108
1, 11115, Note_off_c, 0, 78, 63
1, 11123, Note_off_c, 0, 90, 66
1, 11131, Poly_aftertouch_c, 0, 85, 0
1, 11181, Control_c, 0, 64, 99
1, 11200, Control_c, 0, 64, 83
1, 11217, Control_c, 0, 64, 57
1, 11218, Note_on_c, 0, 77, 70
1, 11224, Note_on_c, 0, 89, 66
1, 11227, Note_on_c, 0, 88, 61
1, 11235, Control_c, 0, 64, 0
1, 11241, Note_off_c, 0, 77, 67
1, 11251, Note_off_c, 0, 89, 65
1, 11253, Note_off_c, 0, 88, 64
1, 11344, Note_on_c, 0, 54, 63
1, 11347, Note_on_c, 0, 75, 92
1, 11348, Note_on_c, 0, 87, 88
1, 11363, Note_on_c, 0, 51, 49
1, 11364, Note_off_c, 0, 51, 127
1, 11367, Note_on_c, 0, 59, 49
1, 11367, Note_off_c, 0, 59, 127
1, 11369, Note_off_c, 0, 75, 73
1, 11378, Note_off_c, 0, 87, 64
1, 11388, Note_off_c, 0, 54, 65
1, 11405, Poly_aftertouch_c, 0, 59, 0
1, 11439, Control_c, 0, 64, 14
1, 11455, Control_c, 0, 64, 22
1, 11485, Note_on_c, 0, 90, 82
1, 11486, Note_on_c, 0, 78, 86
1, 11490, Note_on_c, 0, 42, 81
1, 11507, Note_off_c, 0, 78, 74
1, 11508, Note_off_c, 0, 90, 75
1, 11556, Note_off_c, 0, 42, 64
1, 11615, Note_on_c, 0, 58, 84
1, 11615, Note_on_c, 0, 73, 92
1, 11615, Note_on_c, 0, 85, 89
1, 11643, Note_off_c, 0, 73, 65
1, 11644, Note_off_c, 0, 58, 72
1, 11648, Note_off_c, 0, 85, 61
1, 11660, Control_c, 0, 64, 18
1, 11663, Poly_aftertouch_c, 0, 46, 0
1, 11685, Poly_aftertouch_c, 0, 49, 0
1, 11695, Control_c, 0, 64, 0
1, 11713, Poly_aftertouch_c, 0, 59, 0
1, 11760, Note_on_c, 0, 88, 90
1, 11762, Note_on_c, 0, 76, 86
1, 11783, Note_off_c, 0, 88, 72
1, 11789, Note_off_c, 0, 76, 71
1, 11792, Poly_aftertouch_c, 0, 51, 127
1, 11820, Poly_aftertouch_c, 0, 51, 0
1, 11894, Note_on_c, 0, 59, 75
1, 11901, Note_on_c, 0, 83, 91
1, 11901, Note_on_c, 0, 71, 88
1, 11901, Note_on_c, 0, 54, 51
1, 11905, Note_on_c, 0, 47, 62
1, 11922, Note_off_c, 0, 71, 74
1, 11924, Note_off_c, 0, 83, 68
1, 11936, Note_off_c, 0, 47, 61
1, 11938, Note_off_c, 0, 59, 63
1, 11944, Note_off_c, 0, 54, 64
1, 12032, Note_on_c, 0, 87, 83
1, 12034, Note_on_c, 0, 75, 86
1, 12058, Note_off_c, 0, 75, 70
1, 12061, Note_off_c, 0, 87, 66
1, 12094, Poly_aftertouch_c, 0, 85, 0
1, 12112, Poly_aftertouch_c, 0, 85, 0
1, 12180, Note_on_c, 0, 66, 75
1, 12182, Note_on_c, 0, 73, 91
1, 12186, Note_on_c, 0, 61, 55
1, 12186, Note_on_c, 0, 54, 58
1, 12191, Control_c, 0, 64, 68
1, 12191, Note_on_c, 0, 78, 73
1, 12192, Note_on_c, 0, 58, 66
1, 12201, Note_off_c, 0, 73, 75
1, 12202, Note_on_c, 0, 82, 52
1, 12207, Note_off_c, 0, 66, 73
1, 12207, Control_c, 0, 64, 89
1, 12209, Poly_aftertouch_c, 0, 85, 0
1, 12217, Note_off_c, 0, 78, 66
1, 12222, Note_off_c, 0, 61, 65
1, 12224, Note_off_c, 0, 58, 66
1, 12227, Control_c, 0, 64, 113
1, 12229, Note_off_c, 0, 54, 67
1, 12231, Note_off_c, 0, 82, 60
1, 12244, Control_c, 0, 64, 126
1, 12476, Note_on_c, 0, 66, 80
1, 12547, Note_on_c, 0, 68, 79
1, 12555, Note_off_c, 0, 66, 59
1, 12577, Control_c, 0, 64, 116
1, 12596, Control_c, 0, 64, 97
1, 12606, Note_on_c, 0, 70, 81
1, 12613, Control_c, 0, 64, 72
1, 12631, Control_c, 0, 64, 24
1, 12641, Note_off_c, 0, 68, 63
1, 12648, Control_c, 0, 64, 0
1, 12670, Note_off_c, 0, 70, 65
1, 12763, Note_on_c, 0, 59, 91
1, 12763, Note_on_c, 0, 71, 89
1, 12768, Note_on_c, 0, 44, 94
1, 12769, Note_on_c, 0, 63, 85
1, 12771, Note_on_c, 0, 68, 83
1, 12771, Note_on_c, 0, 32, 85
1, 12921, Control_c, 0, 64, 56
1, 12928, Note_off_c, 0, 32, 63
1, 12940, Control_c, 0, 64, 78
1, 12959, Control_c, 0, 64, 94
1, 12969, Note_off_c, 0, 59, 58
1, 12977, Note_off_c, 0, 44, 64
1, 12977, Control_c, 0, 64, 110
1, 12996, Control_c, 0, 64, 123
1, 13009, Note_off_c, 0, 63, 56
1, 13014, Control_c, 0, 64, 127
1, 13049, Note_off_c, 0, 71, 60
1, 13051, Note_off_c, 0, 68, 57
1, 13417, Note_on_c, 0, 83, 93
1, 13418, Note_on_c, 0, 71, 98
1, 13418, Note_on_c, 0, 75, 95
1, 13423, Note_on_c, 0, 80, 82
1, 13425, Note_on_c, 0, 56, 95
1, 13430, Note_on_c, 0, 44, 90
1, 13432, Note_on_c, 0, 78, 69
1, 13450, Note_off_c, 0, 56, 70
1, 13453, Note_off_c, 0, 71, 59
1, 13458, Note_off_c, 0, 80, 57
1, 13464, Note_off_c, 0, 78, 67
1, 13465, Note_off_c, 0, 83, 65
1, 13467, Note_off_c, 0, 75, 66
1, 13471, Note_off_c, 0, 44, 63
1, 13566, Control_c, 0, 64, 90
1, 13578, Note_on_c, 0, 74, 71
1, 13584, Control_c, 0, 64, 26
1, 13587, Note_on_c, 0, 76, 69
1, 13589, Note_on_c, 0, 77, 67
1, 13592, Note_on_c, 0, 72, 64
1, 13606, Control_c, 0, 64, 0
1, 13628, Note_off_c, 0, 74, 69
1, 13633, Note_off_c, 0, 72, 67
1, 13645, Note_off_c, 0, 76, 67
1, 13647, Note_off_c, 0, 77, 65
1, 13805, Note_on_c, 0, 39, 96
1, 13808, Note_on_c, 0, 66, 93
1, 13809, Note_on_c, 0, 78, 87
1, 13809, Note_on_c, 0, 27, 77
1, 13811, Note_on_c, 0, 70, 90
1, 13828, Note_on_c, 0, 75, 73
1, 13899, Poly_aftertouch_c, 0, 32, 0
1, 13922, Note_off_c, 0, 27, 64
1, 13931, Poly_aftertouch_c, 0, 69, 0
1, 13931, Control_c, 0, 64, 83
1, 13945, Note_off_c, 0, 39, 62
1, 13948, Control_c, 0, 64, 127
1, 14017, Note_off_c, 0, 66, 63
1, 14091, Note_off_c, 0, 70, 60
1, 14093, Note_off_c, 0, 75, 59
1, 14104, Note_off_c, 0, 78, 58
1, 14529, Note_on_c, 0, 63, 93
1, 14536, Note_on_c, 0, 58, 82
1, 14539, Note_on_c, 0, 54, 81
1, 14554, Note_on_c, 0, 51, 85
1, 14560, Note_on_c, 0, 78, 99
1, 14561, Note_on_c, 0, 90, 99
1, 14569, Note_off_c, 0, 63, 70
1, 14580, Note_off_c, 0, 58, 71
1, 14590, Note_off_c, 0, 54, 65
1, 14598, Note_off_c, 0, 78, 64
1, 14606, Note_off_c, 0, 90, 68
1, 14612, Note_off_c, 0, 51, 63
1, 14626, Control_c, 0, 64, 103
1, 14645, Control_c, 0, 64, 67
1, 14665, Control_c, 0, 64, 0
1, 14821, Note_on_c, 0, 89, 51
1, 14875, Note_on_c, 0, 90, 61
1, 14893, Note_on_c, 0, 94, 96
1, 14898, Note_on_c, 0, 82, 98
1, 14899, Note_on_c, 0, 37, 95
1, 14900, Note_on_c, 0, 92, 84
1, 14904, Note_on_c, 0, 25, 83
1, 14922, Control_c, 0, 64, 84
1, 14932, Note_off_c, 0, 25, 65
1, 14935, Note_off_c, 0, 90, 67
1, 14939, Note_off_c, 0, 37, 66
1, 14941, Note_off_c, 0, 89, 65
1, 14941, Control_c, 0, 64, 127
1, 14974, Note_off_c, 0, 92, 62
1, 14980, Note_off_c, 0, 82, 66
1, 14990, Note_off_c, 0, 94, 65
1, 15027, Poly_aftertouch_c, 0, 30, 0
1, 15069, Note_on_c, 0, 92, 95
1, 15072, Note_on_c, 0, 80, 89
1, 15096, Note_off_c, 0, 80, 70
1, 15112, Note_off_c, 0, 92, 55
1, 15125, Poly_aftertouch_c, 0, 90, 0
1, 15178, Control_c, 0, 64, 120
1, 15195, Control_c, 0, 64, 102
1, 15198, Note_on_c, 0, 90, 69
1, 15201, Note_on_c, 0, 66, 75
1, 15203, Note_on_c, 0, 54, 73
1, 15206, Note_on_c, 0, 58, 65
1, 15210, Note_on_c, 0, 78, 87
1, 15211, Note_on_c, 0, 61, 60
1, 15213, Control_c, 0, 64, 71
1, 15232, Note_off_c, 0, 78, 73
1, 15235, Note_on_c, 0, 85, 57
1, 15236, Note_off_c, 0, 85, 127
1, 15236, Note_off_c, 0, 66, 70
1, 15239, Control_c, 0, 64, 0
1, 15242, Note_off_c, 0, 90, 67
1, 15245, Note_off_c, 0, 61, 63
1, 15248, Note_off_c, 0, 58, 65
1, 15250, Note_off_c, 0, 54, 68
1, 15324, Note_on_c, 0, 82, 83
1, 15334, Note_on_c, 0, 94, 81
1, 15347, Note_off_c, 0, 82, 76
1, 15355, Note_on_c, 0, 78, 7
1, 15355, Note_off_c, 0, 78, 127
1, 15362, Note_off_c, 0, 94, 74
1, 15447, Note_on_c, 0, 59, 82
1, 15449, Note_on_c, 0, 49, 75
1, 15456, Note_on_c, 0, 77, 80
1, 15467, Note_on_c, 0, 91, 61
1, 15468, Note_on_c, 0, 89, 61
1, 15474, Control_c, 0, 64, 52
1, 15475, Note_off_c, 0, 59, 79
1, 15483, Note_off_c, 0, 77, 71
1, 15498, Note_off_c, 0, 49, 66
1, 15505, Control_c, 0, 64, 71
1, 15509, Note_off_c, 0, 91, 61
1, 15512, Note_off_c, 0, 89, 62
1, 15520, Note_on_c, 0, 79, 11
1, 15520, Note_off_c, 0, 79, 127
1, 15523, Control_c, 0, 64, 82
1, 15542, Control_c, 0, 64, 94
1, 15562, Control_c, 0, 64, 106
1, 15568, Poly_aftertouch_c, 0, 51, 0
1, 15579, Control_c, 0, 64, 115
1, 15586, Note_on_c, 0, 92, 75
1, 15588, Poly_aftertouch_c, 0, 56, 0
1, 15589, Poly_aftertouch_c, 0, 87, 0
1, 15591, Note_on_c, 0, 90, 59
1, 15597, Poly_aftertouch_c, 0, 79, 0
1, 15597, Control_c, 0, 64, 121
1, 15610, Note_on_c, 0, 42, 79
1, 15615, Note_off_c, 0, 90, 66
1, 15616, Control_c, 0, 64, 126
1, 15619, Note_off_c, 0, 92, 71
1, 15624, Note_on_c, 0, 80, 39
1, 15624, Note_off_c, 0, 80, 127
1, 15676, Note_on_c, 0, 49, 72
1, 15685, Note_on_c, 0, 90, 92
1, 15692, Note_off_c, 0, 42, 63
1, 15692, Poly_aftertouch_c, 0, 87, 0
1, 15694, Note_on_c, 0, 78, 78
1, 15697, Note_on_c, 0, 92, 65
1, 15710, Note_on_c, 0, 80, 56
1, 15711, Note_off_c, 0, 90, 71
1, 15719, Note_off_c, 0, 78, 66
1, 15723, Note_off_c, 0, 92, 67
1, 15726, Control_c, 0, 64, 110
1, 15732, Note_off_c, 0, 80, 42
1, 15743, Control_c, 0, 64, 87
1, 15745, Note_on_c, 0, 58, 85
1, 15752, Note_off_c, 0, 49, 63
1, 15763, Control_c, 0, 64, 52
1, 15774, Note_on_c, 0, 90, 89
1, 15776, Note_off_c, 0, 58, 71
1, 15780, Control_c, 0, 64, 0
1, 15782, Note_on_c, 0, 80, 72
1, 15805, Note_on_c, 0, 92, 55
1, 15807, Note_off_c, 0, 80, 68
1, 15811, Note_on_c, 0, 79, 56
1, 15835, Note_off_c, 0, 92, 62
1, 15837, Note_off_c, 0, 79, 61
1, 15845, Note_off_c, 0, 90, 65
1, 15911, Note_on_c, 0, 89, 76
1, 15915, Note_on_c, 0, 77, 73
1, 15931, Note_on_c, 0, 79, 54
1, 15937, Note_off_c, 0, 89, 72
1, 15947, Note_off_c, 0, 77, 69
1, 15959, Note_off_c, 0, 79, 61
1, 16047, Note_on_c, 0, 90, 89
1, 16048, Note_on_c, 0, 66, 74
1, 16052, Note_on_c, 0, 78, 90
1, 16055, Note_on_c, 0, 54, 80
1, 16058, Control_c, 0, 64, 54
1, 16079, Control_c, 0, 64, 81
1, 16081, Note_off_c, 0, 66, 70
1, 16082, Note_off_c, 0, 78, 66
1, 16088, Note_on_c, 0, 61, 27
1, 16092, Note_off_c, 0, 90, 66
1, 16097, Note_off_c, 0, 54, 66
1, 16098, Control_c, 0, 64, 103
1, 16101, Note_on_c, 0, 87, 18
1, 16113, Control_c, 0, 64, 123
1, 16131, Control_c, 0, 64, 127
1, 16134, Note_off_c, 0, 61, 29
1, 16158, Note_off_c, 0, 87, 41
1, 16179, Poly_aftertouch_c, 0, 58, 0
1, 16434, Note_on_c, 0, 37, 69
1, 16444, Note_on_c, 0, 61, 80
1, 16518, Note_off_c, 0, 61, 60
1, 16523, Note_on_c, 0, 63, 72
1, 16544, Note_on_c, 0, 39, 74
1, 16585, Note_on_c, 0, 65, 79
1, 16588, Note_on_c, 0, 41, 61
1, 16609, Note_off_c, 0, 37, 60
1, 16628, Note_off_c, 0, 41, 65
1, 16632, Note_off_c, 0, 39, 60
1, 16637, Note_off_c, 0, 63, 59
1, 16662, Note_off_c, 0, 65, 65
1, 16662, Control_c, 0, 64, 110
1, 16678, Control_c, 0, 64, 75
1, 16697, Control_c, 0, 64, 0
1, 16699, Note_on_c, 0, 54, 93
1, 16702, Note_on_c, 0, 66, 90
1, 16706, Note_on_c, 0, 42, 88
1, 16707, Note_on_c, 0, 30, 78
1, 16854, Note_off_c, 0, 30, 55
1, 16865, Control_c, 0, 64, 12
1, 16882, Control_c, 0, 64, 63
1, 16884, Note_off_c, 0, 54, 63
1, 16900, Control_c, 0, 64, 79
1, 16918, Control_c, 0, 64, 96
1, 16933, Note_off_c, 0, 42, 63
1, 16936, Control_c, 0, 64, 108
1, 16956, Control_c, 0, 64, 114
1, 16983, Note_off_c, 0, 66, 60
1, 17270, Control_c, 0, 64, 119
1, 17305, Control_c, 0, 64, 127
1, 17317, Note_on_c, 0, 54, 87
1, 17320, Note_on_c, 0, 42, 88
1, 17323, Note_on_c, 0, 66, 90
1, 17326, Note_on_c, 0, 78, 90
1, 17340, Note_off_c, 0, 54, 73
1, 17387, Note_off_c, 0, 42, 63
1, 17392, Note_off_c, 0, 66, 62
1, 17395, Note_on_c, 0, 73, 36
1, 17398, Note_off_c, 0, 78, 59
1, 17455, Note_off_c, 0, 73, 0
1, 17456, Note_on_c, 0, 73, 55
1, 17499, Note_on_c, 0, 76, 76
1, 17511, Note_on_c, 0, 74, 68
1, 17537, Note_off_c, 0, 73, 59
1, 17567, Note_on_c, 0, 78, 25
1, 17591, Note_off_c, 0, 76, 65
1, 17598, Note_off_c, 0, 74, 63
1, 17612, Note_off_c, 0, 78, 43
1, 17613, Note_on_c, 0, 30, 13
1, 17644, Note_on_c, 0, 74, 86
1, 17648, Note_on_c, 0, 66, 102
1, 17649, Note_on_c, 0, 38, 96
1, 17652, Control_c, 0, 64, 120
1, 17652, Note_on_c, 0, 78, 91
1, 17655, Note_on_c, 0, 26, 94
1, 17669, Note_off_c, 0, 30, 59
1, 17674, Control_c, 0, 64, 101
1, 17690, Control_c, 0, 64, 64
1, 17709, Control_c, 0, 64, 0
1, 17808, Note_off_c, 0, 26, 62
1, 17837, Control_c, 0, 64, 62
1, 17855, Control_c, 0, 64, 116
1, 17860, Note_off_c, 0, 38, 63
1, 17874, Control_c, 0, 64, 127
1, 17958, Note_off_c, 0, 66, 57
1, 17988, Note_off_c, 0, 78, 57
1, 17988, Note_off_c, 0, 74, 62
1, 18318, Note_on_c, 0, 50, 51
1, 18356, Note_on_c, 0, 57, 54
1, 18400, Note_on_c, 0, 62, 86
1, 18431, Note_on_c, 0, 78, 88
1, 18432, Note_on_c, 0, 90, 90
1, 18440, Note_off_c, 0, 62, 64
1, 18445, Note_off_c, 0, 57, 65
1, 18475, Note_off_c, 0, 50, 56
1, 18478, Note_off_c, 0, 78, 59
1, 18483, Note_off_c, 0, 90, 64
1, 18631, Note_on_c, 0, 89, 30
1, 18637, Note_on_c, 0, 88, 45
1, 18646, Note_on_c, 0, 90, 63
1, 18674, Note_off_c, 0, 88, 57
1, 18676, Note_off_c, 0, 89, 58
1, 18701, Note_on_c, 0, 91, 64
1, 18714, Note_on_c, 0, 93, 91
1, 18718, Note_on_c, 0, 33, 75
1, 18718, Note_on_c, 0, 81, 88
1, 18718, Note_on_c, 0, 45, 84
1, 18744, Note_off_c, 0, 90, 68
1, 18753, Note_off_c, 0, 91, 68
1, 18753, Control_c, 0, 64, 110
1, 18756, Note_off_c, 0, 33, 61
1, 18757, Note_off_c, 0, 45, 66
1, 18769, Note_off_c, 0, 93, 65
1, 18771, Note_off_c, 0, 81, 63
1, 18771, Control_c, 0, 64, 75
1, 18792, Control_c, 0, 64, 11
1, 18809, Control_c, 0, 64, 0
1, 18868, Note_on_c, 0, 91, 81
1, 18871, Note_on_c, 0, 79, 78
1, 18893, Note_off_c, 0, 91, 74
1, 18902, Note_off_c, 0, 79, 68
1, 19002, Note_on_c, 0, 78, 80
1, 19004, Note_on_c, 0, 90, 81
1, 19010, Note_on_c, 0, 66, 72
1, 19019, Note_on_c, 0, 69, 53
1, 19028, Note_off_c, 0, 78, 72
1, 19029, Note_off_c, 0, 90, 73
1, 19034, Note_on_c, 0, 57, 42
1, 19043, Note_off_c, 0, 66, 69
1, 19049, Note_off_c, 0, 69, 60
1, 19067, Note_off_c, 0, 57, 53
1, 19079, Note_on_c, 0, 85, 20
1, 19079, Note_off_c, 0, 85, 127
1, 19129, Note_on_c, 0, 93, 89
1, 19131, Note_on_c, 0, 81, 84
1, 19153, Note_off_c, 0, 93, 74
1, 19157, Note_off_c, 0, 81, 68
1, 19284, Note_on_c, 0, 76, 88
1, 19284, Note_on_c, 0, 88, 88
1, 19294, Note_on_c, 0, 67, 58
1, 19297, Note_on_c, 0, 64, 51
1, 19300, Note_on_c, 0, 57, 54
1, 19308, Note_off_c, 0, 76, 64
1, 19309, Note_off_c, 0, 88, 72
1, 19323, Note_off_c, 0, 67, 62
1, 19327, Note_off_c, 0, 64, 58
1, 19339, Note_off_c, 0, 57, 65
1, 19412, Note_on_c, 0, 91, 83
1, 19415, Note_on_c, 0, 79, 79
1, 19438, Note_off_c, 0, 91, 74
1, 19445, Note_off_c, 0, 79, 69
1, 19555, Note_on_c, 0, 66, 59
1, 19556, Note_on_c, 0, 74, 81
1, 19559, Note_on_c, 0, 86, 80
1, 19559, Note_on_c, 0, 62, 41
1, 19560, Note_on_c, 0, 57, 54
1, 19581, Note_off_c, 0, 74, 72
1, 19584, Note_off_c, 0, 86, 73
1, 19592, Note_off_c, 0, 66, 67
1, 19611, Note_off_c, 0, 57, 57
1, 19614, Note_off_c, 0, 62, 60
1, 19685, Note_on_c, 0, 90, 74
1, 19689, Note_on_c, 0, 78, 70
1, 19708, Note_off_c, 0, 90, 71
1, 19721, Note_off_c, 0, 78, 67
1, 19840, Control_c, 0, 64, 62
1, 19847, Note_on_c, 0, 88, 75
1, 19847, Note_on_c, 0, 61, 41
1, 19851, Note_on_c, 0, 57, 37
1, 19858, Note_on_c, 0, 76, 62
1, 19858, Control_c, 0, 64, 75
1, 19862, Note_on_c, 0, 85, 47
1, 19876, Note_off_c, 0, 88, 72
1, 19877, Control_c, 0, 64, 86
1, 19883, Note_off_c, 0, 76, 65
1, 19885, Note_off_c, 0, 57, 49
1, 19885, Note_off_c, 0, 61, 45
1, 19895, Control_c, 0, 64, 99
1, 19899, Note_off_c, 0, 85, 36
1, 19914, Poly_aftertouch_c, 0, 64, 0
1, 19916, Control_c, 0, 64, 116
1, 19933, Control_c, 0, 64, 127
1, 20224, Note_on_c, 0, 40, 56
1, 20234, Note_on_c, 0, 64, 81
1, 20311, Note_on_c, 0, 66, 82
1, 20317, Note_off_c, 0, 64, 63
1, 20320, Note_off_c, 0, 40, 59
1, 20321, Note_on_c, 0, 42, 71
1, 20374, Note_on_c, 0, 68, 86
1, 20377, Note_on_c, 0, 44, 74
1, 20397, Note_off_c, 0, 66, 67
1, 20408, Note_off_c, 0, 42, 63
1, 20422, Note_off_c, 0, 44, 65
1, 20442, Note_off_c, 0, 68, 63
1, 20463, Control_c, 0, 64, 115
1, 20480, Note_on_c, 0, 69, 97
1, 20480, Control_c, 0, 64, 71
1, 20482, Note_on_c, 0, 45, 93
1, 20482, Note_on_c, 0, 57, 98
1, 20486, Note_on_c, 0, 33, 85
1, 20499, Control_c, 0, 64, 0
1, 20664, Control_c, 0, 64, 43
1, 20668, Note_off_c, 0, 33, 62
1, 20683, Control_c, 0, 64, 86
1, 20697, Note_off_c, 0, 57, 63
1, 20700, Control_c, 0, 64, 127
1, 20730, Note_off_c, 0, 45, 62
1, 20750, Note_off_c, 0, 69, 65
1, 21068, Note_on_c, 0, 45, 93
1, 21069, Note_on_c, 0, 57, 90
1, 21071, Note_on_c, 0, 81, 98
1, 21074, Note_on_c, 0, 69, 91
1, 21101, Note_off_c, 0, 57, 66
1, 21119, Note_off_c, 0, 69, 63
1, 21131, Note_off_c, 0, 45, 66
1, 21137, Note_off_c, 0, 81, 66
1, 21210, Note_on_c, 0, 77, 78
1, 21231, Note_on_c, 0, 80, 83
1, 21251, Note_off_c, 0, 77, 63
1, 21287, Note_off_c, 0, 80, 65
1, 21368, Note_on_c, 0, 70, 97
1, 21369, Note_on_c, 0, 82, 90
1, 21370, Note_on_c, 0, 78, 83
1, 21372, Note_on_c, 0, 73, 89
1, 21377, Note_on_c, 0, 30, 87
1, 21380, Note_on_c, 0, 42, 97
1, 21416, Control_c, 0, 64, 108
1, 21427, Note_on_c, 0, 34, 29
1, 21433, Control_c, 0, 64, 61
1, 21452, Control_c, 0, 64, 0
1, 21487, Note_off_c, 0, 34, 39
1, 21490, Poly_aftertouch_c, 0, 41, 0
1, 21563, Control_c, 0, 64, 26
1, 21575, Note_off_c, 0, 30, 64
1, 21581, Control_c, 0, 64, 90
1, 21600, Control_c, 0, 64, 127
1, 21610, Note_off_c, 0, 42, 65
1, 21641, Note_off_c, 0, 70, 62
1, 21679, Note_off_c, 0, 73, 59
1, 21688, Note_off_c, 0, 78, 55
1, 21710, Note_off_c, 0, 82, 64
1, 21980, Note_on_c, 0, 54, 66
1, 22036, Note_on_c, 0, 58, 60
1, 22059, Note_on_c, 0, 61, 77
1, 22072, Note_on_c, 0, 66, 98
1, 22087, Note_on_c, 0, 82, 98
1, 22090, Note_on_c, 0, 94, 103
1, 22115, Note_off_c, 0, 66, 68
1, 22123, Note_off_c, 0, 58, 64
1, 22124, Note_off_c, 0, 61, 64
1, 22134, Note_off_c, 0, 54, 64
1, 22137, Note_off_c, 0, 82, 65
1, 22149, Note_off_c, 0, 94, 63
1, 22333, Note_on_c, 0, 90, 72
1, 22388, Note_on_c, 0, 92, 73
1, 22388, Control_c, 0, 64, 91
1, 22405, Control_c, 0, 64, 0
1, 22413, Note_on_c, 0, 94, 58
1, 22427, Note_off_c, 0, 90, 65
1, 22441, Note_on_c, 0, 95, 89
1, 22446, Note_on_c, 0, 27, 88
1, 22448, Note_on_c, 0, 39, 94
1, 22451, Note_on_c, 0, 83, 101
1, 22477, Note_off_c, 0, 27, 71
1, 22487, Note_off_c, 0, 39, 67
1, 22489, Note_off_c, 0, 92, 68
1, 22498, Control_c, 0, 64, 83
1, 22500, Note_off_c, 0, 94, 65
1, 22516, Control_c, 0, 64, 127
1, 22519, Note_off_c, 0, 95, 65
1, 22525, Note_off_c, 0, 83, 58
1, 22657, Note_on_c, 0, 51, 26
1, 22668, Poly_aftertouch_c, 0, 27, 0
1, 22691, Note_on_c, 0, 90, 94
1, 22692, Note_on_c, 0, 78, 95
1, 22705, Note_off_c, 0, 51, 45
1, 22742, Note_off_c, 0, 78, 61
1, 22746, Note_off_c, 0, 90, 67
1, 22802, Note_on_c, 0, 51, 79
1, 22810, Note_on_c, 0, 54, 75
1, 22811, Control_c, 0, 64, 108
1, 22814, Note_on_c, 0, 59, 66
1, 22829, Control_c, 0, 64, 82
1, 22832, Note_off_c, 0, 51, 68
1, 22840, Note_on_c, 0, 76, 92
1, 22841, Note_on_c, 0, 88, 91
1, 22847, Note_off_c, 0, 59, 66
1, 22847, Note_off_c, 0, 54, 68
1, 22847, Control_c, 0, 64, 38
1, 22865, Note_off_c, 0, 76, 73
1, 22866, Note_off_c, 0, 88, 72
1, 22866, Control_c, 0, 64, 0
1, 22946, Note_on_c, 0, 40, 82
1, 22967, Note_on_c, 0, 87, 88
1, 22968, Note_on_c, 0, 75, 88
1, 22977, Note_off_c, 0, 40, 64
1, 23004, Note_off_c, 0, 75, 74
1, 23015, Note_off_c, 0, 87, 58
1, 23049, Note_on_c, 0, 49, 72
1, 23064, Note_on_c, 0, 80, 25
1, 23065, Note_off_c, 0, 80, 127
1, 23108, Note_on_c, 0, 85, 90
1, 23112, Note_on_c, 0, 73, 92
1, 23114, Note_on_c, 0, 56, 63
1, 23123, Note_on_c, 0, 58, 67
1, 23124, Note_off_c, 0, 49, 57
1, 23133, Note_off_c, 0, 73, 71
1, 23145, Note_off_c, 0, 85, 60
1, 23152, Note_off_c, 0, 56, 67
1, 23156, Note_off_c, 0, 58, 63
1, 23229, Note_on_c, 0, 42, 80
1, 23233, Note_on_c, 0, 68, 91
1, 23235, Note_on_c, 0, 80, 82
1, 23258, Note_off_c, 0, 68, 72
1, 23266, Note_off_c, 0, 80, 64
1, 23274, Note_off_c, 0, 42, 66
1, 23274, Note_on_c, 0, 51, 53
1, 23307, Note_on_c, 0, 52, 69
1, 23310, Note_off_c, 0, 51, 56
1, 23361, Note_on_c, 0, 83, 93
1, 23363, Note_on_c, 0, 58, 70
1, 23363, Note_on_c, 0, 71, 88
1, 23369, Note_on_c, 0, 61, 80
1, 23376, Note_off_c, 0, 52, 60
1, 23386, Note_off_c, 0, 58, 65
1, 23387, Note_off_c, 0, 71, 69
1, 23393, Note_off_c, 0, 83, 64
1, 23401, Note_off_c, 0, 61, 67
1, 23480, Note_on_c, 0, 82, 86
1, 23491, Note_on_c, 0, 70, 79
1, 23520, Note_off_c, 0, 70, 70
1, 23551, Note_off_c, 0, 82, 64
1, 23580, Poly_aftertouch_c, 0, 49, 0
1, 23611, Note_on_c, 0, 59, 74
1, 23619, Control_c, 0, 64, 59
1, 23619, Note_on_c, 0, 47, 68
1, 23624, Note_on_c, 0, 54, 60
1, 23625, Note_on_c, 0, 83, 86
1, 23628, Note_on_c, 0, 71, 82
1, 23630, Note_on_c, 0, 75, 78
1, 23637, Note_on_c, 0, 78, 67
1, 23637, Control_c, 0, 64, 104
1, 23639, Note_on_c, 0, 51, 58
1, 23657, Note_off_c, 0, 59, 68
1, 23660, Note_off_c, 0, 83, 67
1, 23665, Control_c, 0, 64, 127
1, 23666, Note_off_c, 0, 71, 70
1, 23667, Note_off_c, 0, 75, 70
1, 23669, Note_off_c, 0, 54, 67
1, 23675, Note_off_c, 0, 78, 66
1, 23681, Note_off_c, 0, 51, 64
1, 23683, Note_off_c, 0, 47, 64
1, 24002, Note_on_c, 0, 61, 67
1, 24008, Note_on_c, 0, 37, 69
1, 24064, Note_on_c, 0, 39, 75
1, 24065, Note_on_c, 0, 63, 77
1, 24087, Note_off_c, 0, 61, 58
1, 24110, Note_on_c, 0, 41, 77
1, 24123, Note_on_c, 0, 65, 73
1, 24130, Control_c, 0, 64, 121
1, 24149, Control_c, 0, 64, 103
1, 24151, Note_off_c, 0, 37, 37
1, 24158, Note_off_c, 0, 41, 65
1, 24164, Note_off_c, 0, 39, 60
1, 24167, Control_c, 0, 64, 68
1, 24176, Note_off_c, 0, 63, 62
1, 24185, Control_c, 0, 64, 0
1, 24195, Note_off_c, 0, 65, 63
1, 24212, Poly_aftertouch_c, 0, 64, 0
1, 24238, Note_on_c, 0, 54, 95
1, 24239, Note_on_c, 0, 66, 92
1, 24242, Note_on_c, 0, 42, 95
1, 24251, Note_on_c, 0, 30, 81
1, 24340, Note_off_c, 0, 30, 62
1, 24354, Control_c, 0, 64, 28
1, 24355, Note_off_c, 0, 42, 64
1, 24372, Control_c, 0, 64, 106
1, 24391, Control_c, 0, 64, 127
1, 24393, Note_off_c, 0, 54, 60
1, 24471, Note_off_c, 0, 66, 63
1, 24891, Note_on_c, 0, 54, 98
1, 24893, Note_on_c, 0, 66, 97
1, 24895, Note_on_c, 0, 42, 96
1, 24896, Note_on_c, 0, 78, 96
1, 24929, Note_off_c, 0, 54, 61
1, 24943, Note_off_c, 0, 42, 62
1, 24943, Note_off_c, 0, 66, 65
1, 24994, Note_off_c, 0, 78, 52
1, 25008, Poly_aftertouch_c, 0, 73, 127
1, 25061, Note_on_c, 0, 74, 75
1, 25072, Note_on_c, 0, 76, 74
1, 25166, Poly_aftertouch_c, 0, 73, 0
1, 25199, Note_off_c, 0, 76, 63
1, 25213, Note_off_c, 0, 74, 63
1, 25275, Note_on_c, 0, 38, 107
1, 25277, Note_on_c, 0, 26, 96
1, 25280, Note_on_c, 0, 66, 108
1, 25281, Note_on_c, 0, 74, 96
1, 25281, Note_on_c, 0, 78, 101
1, 25329, Note_on_c, 0, 27, 36
1, 25361, Control_c, 0, 64, 122
1, 25380, Control_c, 0, 64, 76
1, 25388, Note_off_c, 0, 27, 49
1, 25399, Control_c, 0, 64, 0
1, 25496, Note_off_c, 0, 26, 62
1, 25509, Control_c, 0, 64, 25
1, 25527, Control_c, 0, 64, 127
1, 25537, Note_off_c, 0, 38, 64
1, 25632, Note_off_c, 0, 66, 60
1, 25665, Note_off_c, 0, 74, 54
1, 25705, Note_off_c, 0, 78, 58
1, 25825, Note_on_c, 0, 50, 72
1, 25867, Note_on_c, 0, 57, 61
1, 25915, Note_on_c, 0, 62, 97
1, 25934, Note_on_c, 0, 78, 97
1, 25936, Note_on_c, 0, 90, 100
1, 25957, Note_off_c, 0, 62, 70
1, 25963, Note_off_c, 0, 57, 63
1, 25975, Note_off_c, 0, 50, 65
1, 25989, Note_off_c, 0, 78, 65
1, 25998, Note_off_c, 0, 90, 64
1, 26066, Note_on_c, 0, 87, 34
1, 26127, Note_on_c, 0, 88, 48
1, 26148, Note_off_c, 0, 87, 48
1, 26164, Note_on_c, 0, 90, 71
1, 26196, Note_off_c, 0, 88, 64
1, 26206, Control_c, 0, 64, 107
1, 26224, Note_on_c, 0, 93, 93
1, 26225, Control_c, 0, 64, 52
1, 26229, Note_on_c, 0, 33, 87
1, 26231, Note_on_c, 0, 45, 97
1, 26233, Note_on_c, 0, 81, 102
1, 26238, Poly_aftertouch_c, 0, 37, 0
1, 26239, Note_on_c, 0, 91, 74
1, 26244, Control_c, 0, 64, 0
1, 26262, Note_off_c, 0, 33, 66
1, 26268, Note_off_c, 0, 91, 73
1, 26276, Note_off_c, 0, 90, 67
1, 26283, Note_off_c, 0, 45, 66
1, 26286, Note_on_c, 0, 35, 41
1, 26286, Note_off_c, 0, 35, 127
1, 26293, Note_off_c, 0, 93, 66
1, 26299, Control_c, 0, 64, 53
1, 26303, Note_off_c, 0, 81, 65
1, 26317, Control_c, 0, 64, 74
1, 26337, Control_c, 0, 64, 96
1, 26351, Poly_aftertouch_c, 0, 35, 0
1, 26354, Control_c, 0, 64, 106
1, 26371, Control_c, 0, 64, 100
1, 26392, Control_c, 0, 64, 84
1, 26400, Note_on_c, 0, 91, 87
1, 26404, Note_on_c, 0, 79, 82
1, 26410, Control_c, 0, 64, 60
1, 26419, Poly_aftertouch_c, 0, 33, 127
1, 26425, Note_off_c, 0, 91, 71
1, 26429, Control_c, 0, 64, 0
1, 26432, Note_off_c, 0, 79, 70
1, 26450, Poly_aftertouch_c, 0, 33, 0
1, 26487, Note_on_c, 0, 85, 24
1, 26487, Note_off_c, 0, 85, 127
1, 26532, Note_on_c, 0, 78, 89
1, 26534, Note_on_c, 0, 66, 84
1, 26534, Note_on_c, 0, 69, 81
1, 26537, Note_on_c, 0, 57, 66
1, 26544, Note_on_c, 0, 91, 75
1, 26547, Note_on_c, 0, 90, 65
1, 26553, Note_off_c, 0, 78, 77
1, 26565, Note_off_c, 0, 69, 70
1, 26570, Note_off_c, 0, 66, 63
1, 26571, Note_off_c, 0, 90, 66
1, 26571, Note_off_c, 0, 91, 73
1, 26572, Note_off_c, 0, 57, 55
1, 26577, Poly_aftertouch_c, 0, 79, 0
1, 26655, Note_on_c, 0, 93, 97
1, 26659, Note_on_c, 0, 81, 93
1, 26685, Note_off_c, 0, 81, 66
1, 26686, Note_off_c, 0, 93, 63
1, 26811, Note_on_c, 0, 67, 76
1, 26811, Note_on_c, 0, 88, 91
1, 26813, Note_on_c, 0, 64, 73
1, 26816, Note_on_c, 0, 76, 81
1, 26818, Note_on_c, 0, 57, 70
1, 26821, Note_on_c, 0, 74, 80
1, 26836, Note_off_c, 0, 88, 75
1, 26841, Note_off_c, 0, 74, 70
1, 26841, Note_off_c, 0, 67, 71
1, 26845, Note_off_c, 0, 64, 69
1, 26848, Note_off_c, 0, 76, 69
1, 26854, Note_off_c, 0, 57, 69
1, 26937, Note_on_c, 0, 91, 91
1, 26939, Note_on_c, 0, 79, 87
1, 26963, Note_off_c, 0, 91, 67
1, 26965, Note_off_c, 0, 79, 70
1, 26977, Poly_aftertouch_c, 0, 74, 0
1, 26980, Poly_aftertouch_c, 0, 76, 0
1, 27069, Note_on_c, 0, 86, 88
1, 27070, Note_on_c, 0, 66, 78
1, 27071, Note_on_c, 0, 62, 60
1, 27072, Note_on_c, 0, 74, 92
1, 27077, Note_on_c, 0, 57, 68
1, 27094, Note_off_c, 0, 74, 73
1, 27098, Note_off_c, 0, 86, 69
1, 27121, Note_off_c, 0, 57, 61
1, 27126, Note_off_c, 0, 62, 64
1, 27129, Note_off_c, 0, 66, 65
1, 27190, Note_on_c, 0, 90, 87
1, 27195, Note_on_c, 0, 78, 86
1, 27218, Note_off_c, 0, 78, 71
1, 27229, Note_off_c, 0, 90, 57
1, 27335, Note_on_c, 0, 88, 93
1, 27338, Note_on_c, 0, 76, 94
1, 27340, Note_on_c, 0, 57, 77
1, 27341, Note_on_c, 0, 85, 81
1, 27346, Note_on_c, 0, 61, 56
1, 27348, Control_c, 0, 64, 73
1, 27348, Note_on_c, 0, 64, 60
1, 27367, Note_off_c, 0, 88, 71
1, 27369, Note_off_c, 0, 76, 79
1, 27375, Note_off_c, 0, 85, 73
1, 27375, Control_c, 0, 64, 110
1, 27380, Note_off_c, 0, 57, 68
1, 27385, Note_off_c, 0, 64, 64
1, 27390, Note_off_c, 0, 61, 64
1, 27394, Control_c, 0, 64, 127
1, 27513, Poly_aftertouch_c, 0, 76, 0
1, 27708, Note_on_c, 0, 40, 69
1, 27710, Note_on_c, 0, 64, 73
1, 27712, Note_on_c, 0, 62, 73
1, 27783, Note_on_c, 0, 65, 82
1, 27787, Note_off_c, 0, 62, 55
1, 27789, Note_off_c, 0, 40, 61
1, 27791, Note_on_c, 0, 42, 79
1, 27804, Note_off_c, 0, 64, 62
1, 27835, Note_on_c, 0, 68, 83
1, 27847, Note_on_c, 0, 44, 80
1, 27855, Note_off_c, 0, 65, 63
1, 27885, Note_off_c, 0, 42, 64
1, 27892, Note_off_c, 0, 68, 65
1, 27902, Note_off_c, 0, 44, 64
1, 27941, Note_on_c, 0, 57, 100
1, 27943, Note_on_c, 0, 69, 98
1, 27949, Note_on_c, 0, 45, 93
1, 27953, Note_on_c, 0, 33, 88
1, 27953, Control_c, 0, 64, 101
1, 27972, Control_c, 0, 64, 44
1, 27990, Control_c, 0, 64, 0
1, 28046, Poly_aftertouch_c, 0, 66, 0
1, 28138, Control_c, 0, 64, 44
1, 28146, Note_off_c, 0, 33, 62
1, 28157, Control_c, 0, 64, 104
1, 28164, Note_off_c, 0, 57, 59
1, 28176, Control_c, 0, 64, 127
1, 28197, Note_off_c, 0, 45, 62
1, 28216, Note_off_c, 0, 69, 64
1, 28553, Note_on_c, 0, 81, 98
1, 28556, Note_on_c, 0, 69, 96
1, 28557, Note_on_c, 0, 45, 91
1, 28558, Note_on_c, 0, 57, 89
1, 28602, Note_off_c, 0, 57, 69
1, 28610, Note_off_c, 0, 69, 61
1, 28614, Note_off_c, 0, 45, 68
1, 28615, Note_off_c, 0, 81, 68
1, 28703, Note_on_c, 0, 77, 82
1, 28724, Note_on_c, 0, 80, 79
1, 28757, Note_off_c, 0, 77, 59
1, 28800, Note_off_c, 0, 80, 62
1, 28885, Note_on_c, 0, 82, 94
1, 28885, Note_on_c, 0, 70, 97
1, 28888, Note_on_c, 0, 73, 91
1, 28893, Note_on_c, 0, 42, 102
1, 28906, Note_on_c, 0, 30, 82
1, 28906, Note_on_c, 0, 78, 60
1, 28922, Note_on_c, 0, 79, 53
1, 28929, Note_on_c, 0, 32, 50
1, 28944, Control_c, 0, 64, 95
1, 28963, Control_c, 0, 64, 47
1, 28973, Note_off_c, 0, 32, 54
1, 28982, Control_c, 0, 64, 0
1, 28989, Note_off_c, 0, 79, 58
1, 29137, Note_off_c, 0, 30, 62
1, 29145, Control_c, 0, 64, 66
1, 29166, Control_c, 0, 64, 98
1, 29170, Note_off_c, 0, 42, 65
1, 29183, Control_c, 0, 64, 127
1, 29226, Note_off_c, 0, 70, 61
1, 29254, Note_off_c, 0, 73, 61
1, 29262, Poly_aftertouch_c, 0, 78, 20
1, 29273, Note_off_c, 0, 78, 19
1, 29287, Note_off_c, 0, 82, 62
1, 29538, Note_on_c, 0, 54, 55
1, 29609, Note_on_c, 0, 58, 65
1, 29665, Note_on_c, 0, 61, 67
1, 29672, Note_off_c, 0, 54, 63
1, 29694, Note_on_c, 0, 66, 98
1, 29709, Note_on_c, 0, 82, 102
1, 29713, Note_on_c, 0, 94, 103
1, 29734, Note_off_c, 0, 66, 69
1, 29749, Note_off_c, 0, 82, 69
1, 29751, Note_off_c, 0, 61, 63
1, 29751, Note_off_c, 0, 58, 63
1, 29761, Note_off_c, 0, 94, 65
1, 30004, Control_c, 0, 64, 107
1, 30022, Control_c, 0, 64, 75
1, 30032, Note_on_c, 0, 90, 74
1, 30040, Control_c, 0, 64, 0
1, 30056, Note_on_c, 0, 92, 77
1, 30102, Note_off_c, 0, 90, 64
1, 30117, Note_on_c, 0, 94, 54
1, 30118, Note_on_c, 0, 95, 92
1, 30120, Note_on_c, 0, 27, 85
1, 30124, Note_on_c, 0, 83, 102
1, 30127, Note_on_c, 0, 39, 91
1, 30150, Note_off_c, 0, 27, 70
1, 30163, Note_off_c, 0, 39, 70
1, 30164, Note_off_c, 0, 92, 68
1, 30171, Note_off_c, 0, 94, 65
1, 30171, Control_c, 0, 64, 65
1, 30183, Note_off_c, 0, 95, 66
1, 30189, Control_c, 0, 64, 116
1, 30199, Note_off_c, 0, 83, 65
1, 30207, Control_c, 0, 64, 127
1, 30326, Poly_aftertouch_c, 0, 27, 0
1, 30400, Note_on_c, 0, 90, 91
1, 30405, Note_on_c, 0, 78, 89
1, 30462, Note_off_c, 0, 78, 60
1, 30463, Note_on_c, 0, 80, 21
1, 30464, Note_off_c, 0, 80, 127
1, 30472, Note_off_c, 0, 90, 65
1, 30544, Note_on_c, 0, 51, 69
1, 30545, Note_on_c, 0, 59, 58
1, 30548, Note_on_c, 0, 54, 68
1, 30579, Note_on_c, 0, 88, 93
1, 30580, Note_off_c, 0, 59, 67
1, 30581, Note_on_c, 0, 76, 92
1, 30583, Note_off_c, 0, 51, 66
1, 30586, Note_off_c, 0, 54, 67
1, 30610, Note_off_c, 0, 76, 70
1, 30610, Note_off_c, 0, 88, 68
1, 30686, Note_on_c, 0, 40, 86
1, 30710, Note_on_c, 0, 87, 90
1, 30710, Note_on_c, 0, 75, 96
1, 30743, Note_off_c, 0, 75, 64
1, 30747, Note_off_c, 0, 40, 62
1, 30754, Note_off_c, 0, 87, 56
1, 30786, Note_on_c, 0, 49, 68
1, 30791, Control_c, 0, 64, 115
1, 30811, Control_c, 0, 64, 84
1, 30830, Control_c, 0, 64, 19
1, 30848, Control_c, 0, 64, 0
1, 30851, Note_on_c, 0, 56, 79
1, 30853, Note_on_c, 0, 73, 75
1, 30864, Note_on_c, 0, 84, 57
1, 30869, Note_off_c, 0, 49, 56
1, 30873, Note_off_c, 0, 73, 70
1, 30883, Note_off_c, 0, 56, 71
1, 30894, Note_off_c, 0, 84, 40
1, 30972, Note_on_c, 0, 42, 79
1, 30983, Note_on_c, 0, 68, 86
1, 30983, Note_on_c, 0, 80, 77
1, 30984, Poly_aftertouch_c, 0, 71, 0
1, 30997, Note_on_c, 0, 51, 59
1, 31015, Note_off_c, 0, 68, 64
1, 31018, Note_off_c, 0, 80, 63
1, 31024, Note_off_c, 0, 42, 66
1, 31077, Note_off_c, 0, 51, 64
1, 31122, Note_on_c, 0, 71, 90
1, 31129, Note_on_c, 0, 83, 88
1, 31131, Note_on_c, 0, 61, 82
1, 31151, Note_off_c, 0, 83, 71
1, 31157, Note_off_c, 0, 71, 67
1, 31178, Note_off_c, 0, 61, 62
1, 31206, Poly_aftertouch_c, 0, 52, 127
1, 31217, Poly_aftertouch_c, 0, 81, 0
1, 31221, Poly_aftertouch_c, 0, 52, 0
1, 31266, Note_on_c, 0, 82, 82
1, 31269, Note_on_c, 0, 70, 86
1, 31301, Note_off_c, 0, 70, 64
1, 31318, Note_off_c, 0, 82, 60
1, 31355, Poly_aftertouch_c, 0, 80, 0
1, 31519, Note_on_c, 0, 83, 90
1, 31519, Note_on_c, 0, 78, 84
1, 31519, Note_on_c, 0, 59, 84
1, 31520, Note_on_c, 0, 71, 87
1, 31521, Note_on_c, 0, 75, 83
1, 31524, Note_on_c, 0, 54, 75
1, 31532, Note_on_c, 0, 51, 75
1, 31533, Note_on_c, 0, 47, 66
1, 32002, Note_off_c, 0, 83, 61
1, 32057, Note_off_c, 0, 78, 58
1, 32059, Note_off_c, 0, 71, 61
1, 32065, Note_off_c, 0, 47, 61
1, 32066, Note_off_c, 0, 75, 59
1, 32072, Note_off_c, 0, 59, 65
1, 32093, Note_off_c, 0, 54, 63
1, 32109, Note_off_c, 0, 51, 62
1, 32192, End_track
0, 0, End_of_file
