0, 0, Header, 0, 1, 480
1, 0, Start_track
1, 0, Title_t, "16 Waltzes Op.39"
1, 0, Copyright_t, "                  "
1, 0, Tempo, 512820
1, 0, Time_signature, 4, 2, 24, 8
1, 15, Control_c, 0, 67, 60
1, 34, Control_c, 0, 64, 32
1, 88, Control_c, 0, 64, 36
1, 126, Control_c, 0, 64, 41
1, 127, Control_c, 0, 67, 56
1, 144, Control_c, 0, 64, 44
1, 162, Control_c, 0, 64, 47
1, 200, Control_c, 0, 64, 50
1, 216, Control_c, 0, 64, 52
1, 235, Control_c, 0, 64, 54
1, 273, Control_c, 0, 64, 56
1, 327, Control_c, 0, 64, 58
1, 366, Control_c, 0, 64, 60
1, 402, Control_c, 0, 64, 61
1, 422, Control_c, 0, 64, 62
1, 438, Control_c, 0, 64, 64
1, 455, Control_c, 0, 64, 65
1, 494, Control_c, 0, 64, 66
1, 526, Control_c, 0, 64, 67
1, 582, Control_c, 0, 64, 69
1, 637, Control_c, 0, 64, 71
1, 691, Control_c, 0, 64, 73
1, 747, Control_c, 0, 64, 75
1, 802, Control_c, 0, 67, 51
1, 820, Control_c, 0, 64, 77
1, 858, Control_c, 0, 64, 80
1, 930, Control_c, 0, 67, 47
1, 950, Control_c, 0, 64, 83
1, 987, Control_c, 0, 64, 86
1, 1023, Control_c, 0, 64, 88
1, 1170, Control_c, 0, 64, 93
1, 1207, Control_c, 0, 67, 43
1, 1243, Control_c, 0, 64, 97
1, 1336, Control_c, 0, 64, 102
1, 1428, Control_c, 0, 64, 106
1, 1572, Control_c, 0, 64, 110
1, 1682, Control_c, 0, 67, 39
1, 1885, Control_c, 0, 64, 114
1, 1957, Control_c, 0, 64, 118
1, 2014, Control_c, 0, 64, 123
1, 2087, Control_c, 0, 64, 127
1, 2417, Note_on_c, 0, 56, 48
1, 3072, Note_off_c, 0, 56, 28
1, 3230, Note_on_c, 0, 36, 33
1, 3249, Note_on_c, 0, 66, 56
1, 3260, Note_on_c, 0, 68, 48
1, 3279, Control_c, 0, 64, 112
1, 3299, Control_c, 0, 64, 100
1, 3317, Control_c, 0, 64, 90
1, 3349, Control_c, 0, 64, 84
1, 3368, Control_c, 0, 64, 80
1, 3370, Control_c, 0, 67, 43
1, 3386, Control_c, 0, 64, 75
1, 3404, Control_c, 0, 64, 70
1, 3423, Control_c, 0, 64, 65
1, 3441, Control_c, 0, 64, 60
1, 3450, Note_off_c, 0, 36, 42
1, 3479, Control_c, 0, 64, 58
1, 3496, Control_c, 0, 67, 48
1, 3514, Control_c, 0, 64, 55
1, 3534, Control_c, 0, 64, 52
1, 3536, Control_c, 0, 67, 53
1, 3553, Control_c, 0, 64, 49
1, 3590, Control_c, 0, 67, 57
1, 3628, Control_c, 0, 64, 45
1, 3643, Control_c, 0, 64, 43
1, 3824, Note_on_c, 0, 44, 41
1, 3835, Note_on_c, 0, 69, 53
1, 3851, Note_off_c, 0, 68, 37
1, 3994, Note_off_c, 0, 44, 49
1, 4012, Control_c, 0, 64, 45
1, 4064, Note_off_c, 0, 69, 59
1, 4074, Note_on_c, 0, 64, 55
1, 4084, Note_on_c, 0, 68, 58
1, 4137, Note_off_c, 0, 66, 63
1, 4233, Control_c, 0, 64, 43
1, 4252, Control_c, 0, 64, 40
1, 4302, Control_c, 0, 64, 36
1, 4344, Note_off_c, 0, 68, 58
1, 4358, Note_on_c, 0, 63, 58
1, 4358, Note_on_c, 0, 48, 42
1, 4368, Note_on_c, 0, 69, 51
1, 4396, Note_off_c, 0, 64, 59
1, 4414, Control_c, 0, 64, 40
1, 4432, Control_c, 0, 64, 42
1, 4469, Control_c, 0, 64, 44
1, 4505, Control_c, 0, 64, 46
1, 4522, Control_c, 0, 67, 53
1, 4533, Note_off_c, 0, 48, 60
1, 4616, Control_c, 0, 64, 44
1, 4744, Control_c, 0, 64, 42
1, 4856, Control_c, 0, 64, 38
1, 4877, Note_on_c, 0, 49, 39
1, 4882, Note_on_c, 0, 64, 44
1, 4903, Note_on_c, 0, 68, 47
1, 4909, Control_c, 0, 64, 33
1, 4928, Note_off_c, 0, 63, 59
1, 4936, Note_off_c, 0, 69, 57
1, 5081, Note_off_c, 0, 49, 39
1, 5095, Control_c, 0, 64, 38
1, 5167, Control_c, 0, 64, 34
1, 5274, Control_c, 0, 64, 43
1, 5294, Control_c, 0, 64, 50
1, 5311, Control_c, 0, 64, 57
1, 5331, Control_c, 0, 64, 60
1, 5349, Control_c, 0, 64, 62
1, 5367, Control_c, 0, 64, 64
1, 5404, Control_c, 0, 64, 65
1, 5440, Control_c, 0, 64, 67
1, 5464, Note_on_c, 0, 40, 33
1, 5473, Note_on_c, 0, 56, 49
1, 5475, Control_c, 0, 64, 70
1, 5571, Control_c, 0, 64, 72
1, 5572, Control_c, 0, 67, 49
1, 5605, Control_c, 0, 64, 74
1, 5642, Control_c, 0, 64, 78
1, 5661, Control_c, 0, 64, 80
1, 5678, Control_c, 0, 64, 85
1, 5708, Note_off_c, 0, 40, 39
1, 5714, Control_c, 0, 64, 90
1, 5715, Note_on_c, 0, 66, 62
1, 5719, Note_off_c, 0, 56, 63
1, 5760, Note_off_c, 0, 68, 54
1, 5795, Note_off_c, 0, 64, 51
1, 5863, Control_c, 0, 64, 84
1, 5882, Control_c, 0, 64, 74
1, 5898, Control_c, 0, 64, 61
1, 5918, Control_c, 0, 64, 50
1, 5954, Control_c, 0, 64, 55
1, 5964, Note_on_c, 0, 37, 37
1, 5968, Note_on_c, 0, 61, 63
1, 5969, Note_on_c, 0, 64, 58
1, 5973, Control_c, 0, 64, 60
1, 5992, Control_c, 0, 64, 65
1, 6011, Control_c, 0, 64, 70
1, 6014, Note_off_c, 0, 66, 57
1, 6030, Control_c, 0, 64, 76
1, 6048, Control_c, 0, 64, 82
1, 6066, Control_c, 0, 64, 86
1, 6094, Note_off_c, 0, 37, 37
1, 6190, Control_c, 0, 64, 83
1, 6197, Note_on_c, 0, 66, 65
1, 6209, Control_c, 0, 64, 80
1, 6216, Note_off_c, 0, 64, 62
1, 6228, Control_c, 0, 64, 76
1, 6246, Control_c, 0, 64, 71
1, 6300, Control_c, 0, 64, 74
1, 6338, Control_c, 0, 64, 76
1, 6366, Note_off_c, 0, 66, 62
1, 6435, Note_on_c, 0, 36, 36
1, 6486, Control_c, 0, 64, 74
1, 6497, Note_on_c, 0, 68, 54
1, 6497, Note_on_c, 0, 66, 61
1, 6524, Control_c, 0, 64, 72
1, 6540, Control_c, 0, 64, 70
1, 6557, Note_off_c, 0, 61, 52
1, 6558, Control_c, 0, 64, 66
1, 6578, Control_c, 0, 64, 62
1, 6596, Control_c, 0, 64, 59
1, 6613, Control_c, 0, 64, 56
1, 6631, Control_c, 0, 64, 54
1, 6640, Note_off_c, 0, 36, 53
1, 6650, Control_c, 0, 64, 51
1, 6670, Control_c, 0, 64, 48
1, 6687, Control_c, 0, 64, 44
1, 6707, Control_c, 0, 64, 41
1, 6725, Control_c, 0, 64, 36
1, 6744, Control_c, 0, 64, 29
1, 6760, Control_c, 0, 64, 22
1, 6780, Control_c, 0, 64, 18
1, 6833, Control_c, 0, 64, 0
1, 7013, Note_off_c, 0, 68, 37
1, 7016, Note_on_c, 0, 44, 38
1, 7034, Note_on_c, 0, 69, 47
1, 7173, Note_off_c, 0, 44, 54
1, 7199, Control_c, 0, 67, 45
1, 7260, Note_off_c, 0, 69, 56
1, 7274, Note_on_c, 0, 64, 55
1, 7281, Note_on_c, 0, 68, 56
1, 7340, Note_off_c, 0, 66, 60
1, 7421, Control_c, 0, 67, 41
1, 7503, Note_off_c, 0, 68, 55
1, 7534, Note_on_c, 0, 48, 33
1, 7537, Note_on_c, 0, 69, 50
1, 7543, Note_off_c, 0, 64, 58
1, 7548, Note_on_c, 0, 63, 53
1, 7719, Note_off_c, 0, 48, 54
1, 8081, Note_on_c, 0, 64, 39
1, 8089, Note_on_c, 0, 49, 29
1, 8106, Note_on_c, 0, 68, 39
1, 8113, Note_off_c, 0, 63, 56
1, 8134, Note_off_c, 0, 69, 37
1, 8258, Note_off_c, 0, 49, 37
1, 8356, Control_c, 0, 64, 24
1, 8374, Control_c, 0, 64, 37
1, 8393, Control_c, 0, 64, 47
1, 8410, Control_c, 0, 64, 53
1, 8428, Control_c, 0, 64, 56
1, 8446, Control_c, 0, 64, 58
1, 8483, Control_c, 0, 64, 60
1, 8520, Control_c, 0, 64, 62
1, 8539, Control_c, 0, 64, 63
1, 8649, Control_c, 0, 64, 62
1, 8667, Control_c, 0, 64, 60
1, 8673, Note_on_c, 0, 40, 30
1, 8688, Control_c, 0, 64, 54
1, 8688, Control_c, 0, 67, 37
1, 8696, Note_on_c, 0, 56, 48
1, 8704, Control_c, 0, 64, 42
1, 8723, Control_c, 0, 64, 29
1, 8724, Control_c, 0, 67, 33
1, 8797, Control_c, 0, 64, 41
1, 8799, Control_c, 0, 67, 28
1, 8815, Control_c, 0, 64, 50
1, 8834, Control_c, 0, 64, 57
1, 8852, Control_c, 0, 64, 60
1, 8870, Control_c, 0, 64, 62
1, 8871, Control_c, 0, 67, 20
1, 8889, Control_c, 0, 64, 63
1, 8890, Control_c, 0, 67, 12
1, 8956, Note_on_c, 0, 66, 60
1, 8960, Note_off_c, 0, 56, 64
1, 8963, Note_off_c, 0, 40, 41
1, 8964, Note_off_c, 0, 68, 55
1, 8995, Control_c, 0, 64, 62
1, 9033, Note_off_c, 0, 64, 55
1, 9142, Control_c, 0, 64, 59
1, 9144, Control_c, 0, 67, 0
1, 9161, Control_c, 0, 64, 47
1, 9180, Control_c, 0, 64, 22
1, 9191, Note_on_c, 0, 37, 44
1, 9194, Control_c, 0, 64, 0
1, 9205, Note_on_c, 0, 64, 54
1, 9214, Note_on_c, 0, 61, 62
1, 9253, Note_off_c, 0, 66, 59
1, 9253, Control_c, 0, 64, 15
1, 9273, Control_c, 0, 64, 34
1, 9290, Control_c, 0, 64, 49
1, 9309, Control_c, 0, 64, 59
1, 9311, Note_off_c, 0, 37, 51
1, 9328, Control_c, 0, 64, 63
1, 9346, Control_c, 0, 64, 64
1, 9382, Control_c, 0, 64, 65
1, 9430, Note_off_c, 0, 64, 64
1, 9432, Note_on_c, 0, 66, 61
1, 9455, Control_c, 0, 64, 66
1, 9492, Control_c, 0, 64, 67
1, 9622, Control_c, 0, 64, 66
1, 9640, Control_c, 0, 64, 65
1, 9657, Control_c, 0, 64, 59
1, 9676, Control_c, 0, 64, 46
1, 9686, Note_off_c, 0, 61, 62
1, 9693, Note_on_c, 0, 64, 64
1, 9694, Control_c, 0, 64, 26
1, 9701, Note_off_c, 0, 66, 53
1, 9705, Note_on_c, 0, 48, 41
1, 9711, Control_c, 0, 64, 11
1, 9726, Note_on_c, 0, 68, 51
1, 9769, Control_c, 0, 64, 16
1, 9788, Control_c, 0, 64, 30
1, 9804, Control_c, 0, 64, 44
1, 9824, Control_c, 0, 64, 55
1, 9833, Note_off_c, 0, 48, 53
1, 9841, Control_c, 0, 64, 60
1, 9861, Control_c, 0, 64, 62
1, 9912, Control_c, 0, 64, 61
1, 9930, Control_c, 0, 64, 53
1, 9949, Control_c, 0, 64, 32
1, 9967, Control_c, 0, 64, 0
1, 10023, Control_c, 0, 64, 14
1, 10042, Control_c, 0, 64, 39
1, 10059, Control_c, 0, 64, 55
1, 10077, Control_c, 0, 64, 64
1, 10096, Control_c, 0, 64, 69
1, 10115, Control_c, 0, 64, 72
1, 10133, Control_c, 0, 64, 74
1, 10189, Note_on_c, 0, 56, 51
1, 10244, Control_c, 0, 64, 69
1, 10255, Note_on_c, 0, 69, 61
1, 10261, Note_off_c, 0, 64, 36
1, 10263, Control_c, 0, 64, 60
1, 10265, Note_on_c, 0, 40, 34
1, 10279, Control_c, 0, 64, 48
1, 10280, Note_off_c, 0, 68, 38
1, 10298, Control_c, 0, 64, 41
1, 10336, Control_c, 0, 64, 47
1, 10354, Control_c, 0, 64, 55
1, 10370, Control_c, 0, 64, 62
1, 10390, Control_c, 0, 64, 67
1, 10408, Control_c, 0, 64, 69
1, 10445, Control_c, 0, 64, 71
1, 10467, Note_off_c, 0, 40, 36
1, 10484, Note_on_c, 0, 68, 73
1, 10490, Note_off_c, 0, 69, 60
1, 10518, Control_c, 0, 64, 69
1, 10537, Control_c, 0, 64, 68
1, 10557, Control_c, 0, 64, 67
1, 10575, Control_c, 0, 64, 64
1, 10591, Control_c, 0, 64, 60
1, 10612, Control_c, 0, 64, 58
1, 10629, Control_c, 0, 64, 55
1, 10647, Note_off_c, 0, 56, 54
1, 10648, Control_c, 0, 64, 52
1, 10666, Control_c, 0, 64, 45
1, 10685, Control_c, 0, 64, 27
1, 10705, Control_c, 0, 64, 0
1, 10729, Note_on_c, 0, 36, 36
1, 10729, Note_on_c, 0, 64, 72
1, 10737, Note_on_c, 0, 69, 73
1, 10753, Note_off_c, 0, 68, 54
1, 10867, Note_off_c, 0, 36, 48
1, 10904, Control_c, 0, 64, 25
1, 10923, Control_c, 0, 64, 39
1, 10941, Control_c, 0, 64, 49
1, 10959, Control_c, 0, 64, 55
1, 11125, Control_c, 0, 64, 53
1, 11145, Control_c, 0, 64, 50
1, 11162, Control_c, 0, 64, 44
1, 11180, Control_c, 0, 64, 30
1, 11200, Control_c, 0, 64, 0
1, 11229, Note_on_c, 0, 68, 66
1, 11231, Note_off_c, 0, 69, 57
1, 11234, Note_on_c, 0, 47, 36
1, 11238, Note_on_c, 0, 71, 62
1, 11269, Note_off_c, 0, 64, 58
1, 11346, Control_c, 0, 64, 18
1, 11364, Control_c, 0, 64, 44
1, 11382, Control_c, 0, 64, 60
1, 11401, Control_c, 0, 64, 69
1, 11420, Control_c, 0, 64, 75
1, 11440, Control_c, 0, 64, 79
1, 11455, Control_c, 0, 64, 81
1, 11484, Note_off_c, 0, 71, 60
1, 11493, Control_c, 0, 64, 84
1, 11511, Control_c, 0, 64, 86
1, 11528, Control_c, 0, 64, 88
1, 11539, Note_off_c, 0, 68, 62
1, 11584, Control_c, 0, 64, 92
1, 11627, Note_on_c, 0, 59, 58
1, 11659, Control_c, 0, 64, 97
1, 11662, Note_off_c, 0, 59, 57
1, 11720, Note_on_c, 0, 40, 40
1, 11739, Note_on_c, 0, 73, 64
1, 11770, Note_off_c, 0, 47, 37
1, 11914, Control_c, 0, 64, 92
1, 11949, Control_c, 0, 64, 87
1, 11955, Note_off_c, 0, 40, 33
1, 11969, Control_c, 0, 64, 83
1, 11987, Control_c, 0, 64, 77
1, 11995, Note_on_c, 0, 71, 78
1, 12004, Note_off_c, 0, 73, 61
1, 12004, Control_c, 0, 64, 69
1, 12023, Control_c, 0, 64, 62
1, 12042, Control_c, 0, 64, 59
1, 12078, Control_c, 0, 64, 57
1, 12096, Control_c, 0, 64, 55
1, 12171, Control_c, 0, 64, 53
1, 12208, Control_c, 0, 64, 49
1, 12214, Note_on_c, 0, 35, 41
1, 12243, Control_c, 0, 64, 47
1, 12246, Note_on_c, 0, 68, 76
1, 12263, Note_on_c, 0, 73, 65
1, 12275, Note_off_c, 0, 71, 54
1, 12282, Control_c, 0, 64, 43
1, 12300, Control_c, 0, 64, 38
1, 12319, Control_c, 0, 64, 25
1, 12337, Control_c, 0, 64, 0
1, 12412, Note_off_c, 0, 35, 38
1, 12650, Control_c, 0, 64, 18
1, 12669, Control_c, 0, 64, 28
1, 12700, Control_c, 0, 64, 38
1, 12720, Control_c, 0, 64, 44
1, 12738, Control_c, 0, 64, 47
1, 12822, Note_on_c, 0, 47, 30
1, 12822, Note_on_c, 0, 71, 62
1, 12826, Note_on_c, 0, 75, 57
1, 12841, Note_off_c, 0, 73, 60
1, 12849, Control_c, 0, 64, 44
1, 12867, Control_c, 0, 64, 42
1, 12904, Control_c, 0, 64, 34
1, 12924, Control_c, 0, 64, 27
1, 12940, Control_c, 0, 64, 20
1, 12944, Note_off_c, 0, 68, 56
1, 12959, Control_c, 0, 64, 15
1, 13053, Note_off_c, 0, 47, 38
1, 13162, Control_c, 0, 64, 9
1, 13179, Control_c, 0, 64, 0
1, 13296, Note_off_c, 0, 75, 36
1, 13348, Note_on_c, 0, 42, 43
1, 13383, Note_on_c, 0, 73, 54
1, 13513, Control_c, 0, 67, 8
1, 13528, Note_off_c, 0, 71, 36
1, 13548, Control_c, 0, 64, 8
1, 13554, Note_off_c, 0, 42, 46
1, 13567, Control_c, 0, 64, 24
1, 13586, Control_c, 0, 64, 39
1, 13587, Control_c, 0, 67, 12
1, 13602, Control_c, 0, 64, 54
1, 13607, Note_on_c, 0, 66, 55
1, 13635, Control_c, 0, 64, 62
1, 13636, Note_on_c, 0, 75, 53
1, 13636, Control_c, 0, 67, 19
1, 13651, Note_off_c, 0, 73, 55
1, 13655, Control_c, 0, 64, 64
1, 13673, Control_c, 0, 67, 25
1, 13730, Control_c, 0, 67, 30
1, 13766, Control_c, 0, 64, 63
1, 13803, Control_c, 0, 64, 60
1, 13804, Control_c, 0, 67, 35
1, 13821, Control_c, 0, 64, 56
1, 13839, Control_c, 0, 64, 43
1, 13858, Control_c, 0, 64, 0
1, 13875, Note_off_c, 0, 75, 63
1, 13875, Control_c, 0, 67, 40
1, 13894, Note_on_c, 0, 35, 36
1, 13898, Note_on_c, 0, 73, 50
1, 13911, Control_c, 0, 67, 45
1, 13914, Note_on_c, 0, 69, 49
1, 13935, Note_off_c, 0, 66, 38
1, 13948, Control_c, 0, 67, 50
1, 13985, Control_c, 0, 64, 21
1, 13987, Control_c, 0, 67, 55
1, 14004, Control_c, 0, 64, 42
1, 14024, Control_c, 0, 64, 60
1, 14025, Control_c, 0, 67, 59
1, 14041, Control_c, 0, 64, 73
1, 14060, Control_c, 0, 64, 84
1, 14078, Control_c, 0, 64, 94
1, 14083, Note_off_c, 0, 35, 33
1, 14096, Control_c, 0, 64, 99
1, 14183, Note_off_c, 0, 69, 54
1, 14380, Note_off_c, 0, 73, 54
1, 14391, Control_c, 0, 64, 93
1, 14410, Control_c, 0, 64, 83
1, 14423, Note_on_c, 0, 68, 45
1, 14426, Note_on_c, 0, 40, 32
1, 14428, Note_on_c, 0, 71, 48
1, 14430, Control_c, 0, 64, 66
1, 14447, Control_c, 0, 64, 37
1, 14465, Control_c, 0, 64, 0
1, 14520, Control_c, 0, 64, 15
1, 14539, Control_c, 0, 64, 25
1, 14570, Control_c, 0, 64, 37
1, 14590, Control_c, 0, 64, 47
1, 14609, Control_c, 0, 64, 52
1, 14651, Note_off_c, 0, 40, 43
1, 14681, Control_c, 0, 64, 49
1, 14699, Control_c, 0, 64, 41
1, 14718, Control_c, 0, 64, 26
1, 14737, Control_c, 0, 64, 8
1, 14756, Control_c, 0, 64, 0
1, 14810, Control_c, 0, 64, 14
1, 14828, Control_c, 0, 64, 25
1, 14847, Control_c, 0, 64, 35
1, 14866, Control_c, 0, 64, 43
1, 14883, Control_c, 0, 64, 46
1, 14920, Control_c, 0, 64, 43
1, 14939, Control_c, 0, 64, 34
1, 14959, Control_c, 0, 64, 14
1, 14965, Note_on_c, 0, 47, 39
1, 14975, Control_c, 0, 64, 0
1, 14978, Note_on_c, 0, 66, 51
1, 15032, Control_c, 0, 64, 8
1, 15050, Control_c, 0, 64, 22
1, 15068, Control_c, 0, 64, 32
1, 15071, Note_off_c, 0, 68, 34
1, 15086, Control_c, 0, 64, 43
1, 15106, Control_c, 0, 64, 49
1, 15122, Control_c, 0, 64, 54
1, 15141, Control_c, 0, 64, 57
1, 15165, Note_off_c, 0, 47, 36
1, 15179, Control_c, 0, 64, 59
1, 15196, Control_c, 0, 64, 60
1, 15210, Note_on_c, 0, 69, 49
1, 15215, Control_c, 0, 67, 63
1, 15240, Note_off_c, 0, 71, 43
1, 15327, Control_c, 0, 67, 67
1, 15380, Control_c, 0, 64, 53
1, 15399, Control_c, 0, 64, 41
1, 15401, Control_c, 0, 67, 71
1, 15415, Note_off_c, 0, 69, 54
1, 15416, Control_c, 0, 64, 12
1, 15437, Control_c, 0, 64, 0
1, 15476, Note_on_c, 0, 52, 36
1, 15504, Control_c, 0, 64, 12
1, 15508, Note_on_c, 0, 68, 43
1, 15518, Note_on_c, 0, 64, 35
1, 15519, Note_off_c, 0, 66, 57
1, 15523, Control_c, 0, 64, 30
1, 15543, Control_c, 0, 64, 47
1, 15561, Control_c, 0, 64, 59
1, 15580, Control_c, 0, 64, 66
1, 15599, Control_c, 0, 64, 71
1, 15618, Control_c, 0, 64, 76
1, 15636, Control_c, 0, 64, 80
1, 15655, Control_c, 0, 64, 85
1, 15672, Control_c, 0, 64, 90
1, 15691, Control_c, 0, 64, 94
1, 15729, Note_off_c, 0, 52, 44
1, 15782, Control_c, 0, 64, 98
1, 15832, Note_off_c, 0, 64, 41
1, 15858, Note_off_c, 0, 68, 59
1, 15889, Note_on_c, 0, 48, 32
1, 15971, Note_on_c, 0, 51, 37
1, 16072, Note_on_c, 0, 56, 51
1, 16094, Control_c, 0, 64, 93
1, 16108, Note_on_c, 0, 78, 61
1, 16128, Note_on_c, 0, 66, 44
1, 16132, Control_c, 0, 64, 87
1, 16150, Control_c, 0, 64, 83
1, 16170, Control_c, 0, 64, 79
1, 16188, Control_c, 0, 64, 74
1, 16205, Control_c, 0, 64, 67
1, 16211, Note_off_c, 0, 48, 39
1, 16223, Control_c, 0, 64, 55
1, 16242, Control_c, 0, 64, 35
1, 16262, Control_c, 0, 64, 0
1, 16263, Control_c, 0, 67, 67
1, 16381, Note_off_c, 0, 51, 41
1, 16461, Control_c, 0, 64, 23
1, 16478, Control_c, 0, 64, 44
1, 16497, Control_c, 0, 64, 60
1, 16515, Control_c, 0, 64, 69
1, 16533, Control_c, 0, 64, 76
1, 16553, Control_c, 0, 64, 82
1, 16571, Control_c, 0, 64, 87
1, 16588, Note_off_c, 0, 78, 59
1, 16589, Control_c, 0, 64, 93
1, 16607, Control_c, 0, 64, 98
1, 16618, Note_on_c, 0, 57, 65
1, 16626, Note_off_c, 0, 56, 58
1, 16626, Control_c, 0, 64, 102
1, 16631, Note_off_c, 0, 66, 62
1, 16663, Control_c, 0, 64, 108
1, 16850, Note_on_c, 0, 56, 66
1, 16857, Note_on_c, 0, 76, 73
1, 16860, Note_off_c, 0, 57, 59
1, 16876, Note_on_c, 0, 64, 51
1, 16904, Note_off_c, 0, 64, 61
1, 16926, Note_off_c, 0, 56, 64
1, 16953, Note_off_c, 0, 76, 47
1, 16993, Note_on_c, 0, 48, 50
1, 17062, Note_on_c, 0, 54, 62
1, 17104, Control_c, 0, 64, 101
1, 17123, Control_c, 0, 64, 85
1, 17129, Note_on_c, 0, 75, 65
1, 17140, Control_c, 0, 64, 58
1, 17141, Note_on_c, 0, 63, 50
1, 17146, Note_on_c, 0, 57, 60
1, 17147, Note_off_c, 0, 54, 62
1, 17158, Control_c, 0, 64, 0
1, 17172, Note_off_c, 0, 48, 0
1, 17173, Note_on_c, 0, 48, 14
1, 17217, Note_off_c, 0, 48, 41
1, 17269, Control_c, 0, 64, 35
1, 17287, Control_c, 0, 64, 54
1, 17306, Control_c, 0, 64, 66
1, 17325, Control_c, 0, 64, 75
1, 17344, Control_c, 0, 64, 83
1, 17362, Control_c, 0, 64, 88
1, 17413, Note_off_c, 0, 57, 63
1, 17426, Note_off_c, 0, 63, 48
1, 17432, Control_c, 0, 64, 92
1, 17453, Note_on_c, 0, 49, 47
1, 17527, Note_on_c, 0, 52, 44
1, 17551, Note_off_c, 0, 75, 28
1, 17614, Control_c, 0, 64, 88
1, 17646, Note_off_c, 0, 49, 34
1, 17651, Control_c, 0, 64, 84
1, 17671, Control_c, 0, 64, 82
1, 17687, Note_on_c, 0, 56, 43
1, 17689, Note_on_c, 0, 76, 58
1, 17690, Control_c, 0, 64, 78
1, 17706, Note_on_c, 0, 64, 38
1, 17708, Control_c, 0, 64, 76
1, 17726, Control_c, 0, 64, 72
1, 17745, Control_c, 0, 64, 68
1, 17760, Note_off_c, 0, 52, 45
1, 17766, Control_c, 0, 64, 62
1, 17783, Control_c, 0, 64, 58
1, 17801, Control_c, 0, 64, 53
1, 17820, Control_c, 0, 64, 49
1, 17840, Control_c, 0, 64, 44
1, 17856, Control_c, 0, 64, 37
1, 17874, Control_c, 0, 64, 27
1, 17893, Control_c, 0, 64, 15
1, 17929, Control_c, 0, 64, 0
1, 18265, Note_on_c, 0, 68, 53
1, 18459, Control_c, 0, 64, 13
1, 18479, Control_c, 0, 64, 26
1, 18480, Control_c, 0, 67, 63
1, 18497, Control_c, 0, 64, 37
1, 18516, Control_c, 0, 64, 44
1, 18525, Note_on_c, 0, 54, 62
1, 18535, Control_c, 0, 64, 50
1, 18551, Control_c, 0, 64, 56
1, 18569, Control_c, 0, 64, 59
1, 18589, Control_c, 0, 64, 60
1, 18608, Control_c, 0, 64, 61
1, 18642, Control_c, 0, 64, 62
1, 18647, Note_off_c, 0, 56, 41
1, 18686, Poly_aftertouch_c, 0, 76, 24
1, 18719, Control_c, 0, 64, 57
1, 18720, Note_off_c, 0, 76, 45
1, 18736, Control_c, 0, 64, 49
1, 18754, Control_c, 0, 64, 36
1, 18760, Poly_aftertouch_c, 0, 64, 24
1, 18772, Control_c, 0, 64, 25
1, 18774, Note_off_c, 0, 54, 63
1, 18779, Note_on_c, 0, 49, 51
1, 18783, Note_on_c, 0, 73, 68
1, 18784, Note_on_c, 0, 52, 58
1, 18805, Note_off_c, 0, 64, 41
1, 18811, Control_c, 0, 64, 33
1, 18824, Note_off_c, 0, 68, 52
1, 18829, Control_c, 0, 64, 47
1, 18848, Control_c, 0, 64, 60
1, 18866, Control_c, 0, 64, 69
1, 18883, Control_c, 0, 64, 77
1, 18903, Control_c, 0, 64, 86
1, 18921, Control_c, 0, 64, 93
1, 18940, Control_c, 0, 64, 98
1, 18949, Note_off_c, 0, 49, 50
1, 19023, Note_on_c, 0, 54, 65
1, 19027, Note_off_c, 0, 52, 62
1, 19163, Note_on_c, 0, 48, 56
1, 19191, Note_off_c, 0, 54, 62
1, 19214, Note_on_c, 0, 51, 65
1, 19217, Control_c, 0, 64, 92
1, 19235, Control_c, 0, 64, 87
1, 19267, Control_c, 0, 64, 81
1, 19279, Note_off_c, 0, 73, 53
1, 19285, Control_c, 0, 64, 73
1, 19305, Control_c, 0, 64, 64
1, 19325, Control_c, 0, 64, 52
1, 19327, Control_c, 0, 67, 59
1, 19340, Control_c, 0, 64, 44
1, 19346, Note_on_c, 0, 56, 62
1, 19349, Note_on_c, 0, 78, 64
1, 19351, Note_off_c, 0, 48, 53
1, 19359, Control_c, 0, 64, 41
1, 19364, Note_on_c, 0, 66, 44
1, 19396, Control_c, 0, 64, 28
1, 19415, Control_c, 0, 64, 0
1, 19438, Note_off_c, 0, 51, 60
1, 19525, Control_c, 0, 67, 55
1, 19655, Control_c, 0, 64, 23
1, 19672, Control_c, 0, 64, 40
1, 19692, Control_c, 0, 64, 50
1, 19693, Control_c, 0, 67, 51
1, 19711, Control_c, 0, 64, 55
1, 19728, Control_c, 0, 64, 59
1, 19746, Control_c, 0, 64, 62
1, 19764, Control_c, 0, 64, 65
1, 19784, Control_c, 0, 64, 69
1, 19785, Control_c, 0, 67, 46
1, 19786, Note_off_c, 0, 78, 54
1, 19801, Control_c, 0, 64, 73
1, 19818, Control_c, 0, 64, 79
1, 19839, Control_c, 0, 64, 86
1, 19856, Control_c, 0, 64, 91
1, 19873, Note_on_c, 0, 57, 68
1, 19893, Control_c, 0, 64, 97
1, 19899, Note_off_c, 0, 66, 35
1, 19918, Note_off_c, 0, 56, 63
1, 19932, Control_c, 0, 64, 101
1, 20021, Control_c, 0, 67, 42
1, 20096, Note_on_c, 0, 56, 71
1, 20104, Note_on_c, 0, 76, 70
1, 20120, Note_on_c, 0, 64, 51
1, 20126, Note_off_c, 0, 57, 59
1, 20151, Note_off_c, 0, 64, 60
1, 20201, Note_off_c, 0, 56, 63
1, 20220, Note_on_c, 0, 48, 63
1, 20222, Note_off_c, 0, 76, 62
1, 20294, Control_c, 0, 64, 97
1, 20324, Note_on_c, 0, 54, 67
1, 20331, Control_c, 0, 64, 93
1, 20355, Note_off_c, 0, 48, 57
1, 20369, Control_c, 0, 64, 86
1, 20386, Note_on_c, 0, 75, 65
1, 20388, Control_c, 0, 64, 78
1, 20398, Note_on_c, 0, 63, 47
1, 20402, Note_on_c, 0, 57, 62
1, 20406, Control_c, 0, 64, 61
1, 20420, Note_off_c, 0, 54, 63
1, 20422, Control_c, 0, 64, 0
1, 20514, Control_c, 0, 67, 46
1, 20533, Control_c, 0, 64, 9
1, 20551, Control_c, 0, 64, 39
1, 20570, Control_c, 0, 64, 53
1, 20589, Control_c, 0, 64, 61
1, 20607, Control_c, 0, 64, 65
1, 20626, Control_c, 0, 64, 67
1, 20645, Control_c, 0, 64, 70
1, 20654, Note_off_c, 0, 63, 38
1, 20663, Control_c, 0, 64, 73
1, 20672, Note_off_c, 0, 57, 61
1, 20700, Control_c, 0, 64, 75
1, 20709, Note_on_c, 0, 49, 45
1, 20753, Note_off_c, 0, 75, 27
1, 20768, Note_on_c, 0, 52, 38
1, 20883, Control_c, 0, 64, 72
1, 20895, Note_off_c, 0, 49, 36
1, 20913, Note_on_c, 0, 56, 48
1, 20920, Control_c, 0, 64, 70
1, 20941, Note_on_c, 0, 76, 44
1, 20944, Note_on_c, 0, 64, 38
1, 20957, Control_c, 0, 64, 68
1, 20974, Control_c, 0, 64, 66
1, 20993, Note_off_c, 0, 52, 44
1, 20993, Control_c, 0, 64, 64
1, 21012, Control_c, 0, 64, 61
1, 21031, Control_c, 0, 64, 59
1, 21049, Control_c, 0, 64, 55
1, 21068, Control_c, 0, 64, 52
1, 21088, Control_c, 0, 64, 48
1, 21105, Control_c, 0, 64, 42
1, 21136, Control_c, 0, 64, 33
1, 21156, Control_c, 0, 64, 16
1, 21175, Control_c, 0, 64, 0
1, 21550, Note_on_c, 0, 68, 48
1, 21689, Control_c, 0, 64, 18
1, 21707, Control_c, 0, 64, 32
1, 21726, Control_c, 0, 64, 42
1, 21745, Control_c, 0, 64, 48
1, 21763, Control_c, 0, 64, 52
1, 21782, Control_c, 0, 64, 55
1, 21792, Note_on_c, 0, 54, 54
1, 21801, Control_c, 0, 64, 57
1, 21818, Control_c, 0, 64, 59
1, 21836, Control_c, 0, 64, 61
1, 21856, Control_c, 0, 64, 64
1, 21874, Control_c, 0, 64, 66
1, 21894, Control_c, 0, 64, 69
1, 21909, Control_c, 0, 64, 71
1, 21935, Note_off_c, 0, 56, 35
1, 21968, Poly_aftertouch_c, 0, 76, 24
1, 21984, Control_c, 0, 64, 67
1, 22001, Note_off_c, 0, 76, 42
1, 22002, Control_c, 0, 64, 57
1, 22022, Control_c, 0, 64, 45
1, 22030, Note_off_c, 0, 54, 61
1, 22040, Control_c, 0, 64, 42
1, 22044, Note_off_c, 0, 64, 39
1, 22066, Note_on_c, 0, 73, 60
1, 22068, Note_on_c, 0, 52, 52
1, 22072, Control_c, 0, 64, 44
1, 22078, Note_on_c, 0, 49, 38
1, 22090, Control_c, 0, 64, 51
1, 22109, Control_c, 0, 64, 59
1, 22128, Control_c, 0, 64, 65
1, 22145, Control_c, 0, 64, 70
1, 22163, Control_c, 0, 64, 73
1, 22182, Control_c, 0, 64, 76
1, 22202, Control_c, 0, 64, 79
1, 22219, Control_c, 0, 64, 82
1, 22226, Note_off_c, 0, 49, 50
1, 22257, Control_c, 0, 64, 84
1, 22286, Note_on_c, 0, 54, 58
1, 22293, Note_off_c, 0, 52, 53
1, 22315, Note_off_c, 0, 68, 19
1, 22421, Control_c, 0, 64, 82
1, 22442, Note_off_c, 0, 54, 60
1, 22449, Note_on_c, 0, 48, 50
1, 22459, Control_c, 0, 64, 80
1, 22486, Note_on_c, 0, 52, 46
1, 22496, Control_c, 0, 64, 78
1, 22532, Control_c, 0, 64, 74
1, 22551, Control_c, 0, 64, 72
1, 22585, Note_off_c, 0, 73, 21
1, 22586, Control_c, 0, 64, 68
1, 22606, Control_c, 0, 64, 66
1, 22613, Note_on_c, 0, 76, 54
1, 22620, Note_on_c, 0, 56, 57
1, 22624, Control_c, 0, 64, 64
1, 22629, Note_on_c, 0, 64, 40
1, 22642, Control_c, 0, 64, 61
1, 22661, Control_c, 0, 64, 58
1, 22675, Note_off_c, 0, 52, 58
1, 22679, Control_c, 0, 64, 55
1, 22699, Control_c, 0, 64, 51
1, 22714, Note_off_c, 0, 48, 28
1, 22715, Control_c, 0, 64, 45
1, 22736, Control_c, 0, 64, 32
1, 22755, Control_c, 0, 64, 0
1, 22863, Control_c, 0, 67, 42
1, 22957, Control_c, 0, 64, 27
1, 22975, Control_c, 0, 64, 41
1, 23007, Control_c, 0, 64, 49
1, 23009, Control_c, 0, 67, 37
1, 23026, Control_c, 0, 64, 53
1, 23027, Control_c, 0, 67, 33
1, 23064, Control_c, 0, 64, 56
1, 23064, Control_c, 0, 67, 25
1, 23080, Control_c, 0, 67, 21
1, 23099, Control_c, 0, 64, 59
1, 23100, Control_c, 0, 67, 16
1, 23118, Control_c, 0, 64, 61
1, 23119, Control_c, 0, 67, 10
1, 23136, Control_c, 0, 64, 64
1, 23154, Control_c, 0, 64, 68
1, 23167, Note_on_c, 0, 68, 60
1, 23170, Note_on_c, 0, 57, 65
1, 23173, Control_c, 0, 64, 72
1, 23174, Control_c, 0, 67, 0
1, 23192, Control_c, 0, 64, 76
1, 23196, Note_off_c, 0, 64, 41
1, 23198, Note_off_c, 0, 56, 59
1, 23210, Control_c, 0, 64, 81
1, 23229, Control_c, 0, 64, 86
1, 23254, Note_off_c, 0, 76, 37
1, 23263, Control_c, 0, 64, 93
1, 23302, Control_c, 0, 64, 99
1, 23398, Note_on_c, 0, 56, 72
1, 23420, Note_off_c, 0, 57, 52
1, 23567, Note_off_c, 0, 56, 61
1, 23570, Note_on_c, 0, 48, 57
1, 23573, Note_on_c, 0, 52, 65
1, 23633, Control_c, 0, 64, 85
1, 23652, Control_c, 0, 64, 63
1, 23670, Control_c, 0, 64, 0
1, 23672, Note_on_c, 0, 57, 69
1, 23674, Note_on_c, 0, 76, 68
1, 23687, Note_on_c, 0, 64, 49
1, 23704, Note_off_c, 0, 68, 52
1, 23738, Note_off_c, 0, 52, 63
1, 23743, Control_c, 0, 64, 15
1, 23745, Note_off_c, 0, 48, 38
1, 23763, Control_c, 0, 64, 49
1, 23766, Note_off_c, 0, 64, 54
1, 23779, Control_c, 0, 64, 65
1, 23798, Control_c, 0, 64, 75
1, 23816, Control_c, 0, 64, 86
1, 23825, Note_off_c, 0, 76, 66
1, 23836, Control_c, 0, 64, 95
1, 23854, Control_c, 0, 64, 103
1, 23892, Control_c, 0, 64, 107
1, 23895, Note_off_c, 0, 57, 47
1, 24011, Note_on_c, 0, 47, 60
1, 24055, Note_on_c, 0, 52, 55
1, 24146, Control_c, 0, 64, 103
1, 24156, Note_on_c, 0, 59, 71
1, 24166, Note_on_c, 0, 80, 67
1, 24180, Control_c, 0, 64, 98
1, 24182, Note_on_c, 0, 68, 50
1, 24200, Control_c, 0, 64, 94
1, 24219, Control_c, 0, 64, 90
1, 24229, Note_off_c, 0, 47, 33
1, 24230, Note_off_c, 0, 52, 61
1, 24237, Control_c, 0, 64, 83
1, 24254, Control_c, 0, 64, 73
1, 24272, Control_c, 0, 64, 58
1, 24292, Control_c, 0, 64, 12
1, 24309, Control_c, 0, 64, 0
1, 24421, Control_c, 0, 64, 29
1, 24439, Control_c, 0, 64, 53
1, 24458, Control_c, 0, 64, 64
1, 24474, Control_c, 0, 64, 69
1, 24493, Control_c, 0, 64, 74
1, 24512, Control_c, 0, 64, 80
1, 24530, Control_c, 0, 64, 87
1, 24550, Control_c, 0, 64, 94
1, 24568, Control_c, 0, 64, 98
1, 24625, Control_c, 0, 64, 103
1, 24646, Note_on_c, 0, 61, 69
1, 24660, Control_c, 0, 64, 110
1, 24673, Note_on_c, 0, 71, 66
1, 24678, Note_off_c, 0, 68, 57
1, 24688, Note_off_c, 0, 59, 59
1, 24698, Note_off_c, 0, 80, 24
1, 24789, Control_c, 0, 64, 114
1, 24842, Note_off_c, 0, 61, 62
1, 24907, Note_on_c, 0, 59, 74
1, 24918, Note_off_c, 0, 71, 58
1, 24983, Note_off_c, 0, 59, 61
1, 25055, Note_on_c, 0, 47, 63
1, 25101, Note_on_c, 0, 52, 60
1, 25105, Note_off_c, 0, 47, 56
1, 25172, Control_c, 0, 64, 108
1, 25189, Control_c, 0, 64, 93
1, 25196, Note_on_c, 0, 61, 70
1, 25203, Note_on_c, 0, 80, 71
1, 25208, Control_c, 0, 64, 68
1, 25219, Note_on_c, 0, 68, 52
1, 25226, Control_c, 0, 64, 18
1, 25244, Control_c, 0, 64, 0
1, 25266, Note_off_c, 0, 52, 41
1, 25282, Control_c, 0, 64, 32
1, 25302, Control_c, 0, 64, 57
1, 25319, Control_c, 0, 64, 71
1, 25337, Control_c, 0, 64, 86
1, 25353, Note_off_c, 0, 61, 62
1, 25354, Control_c, 0, 64, 104
1, 25374, Control_c, 0, 64, 118
1, 25396, Note_off_c, 0, 68, 56
1, 25407, Note_off_c, 0, 80, 62
1, 25410, Control_c, 0, 67, 13
1, 25428, Control_c, 0, 67, 21
1, 25447, Control_c, 0, 67, 30
1, 25465, Control_c, 0, 67, 39
1, 25484, Control_c, 0, 67, 47
1, 25502, Control_c, 0, 67, 51
1, 25506, Note_on_c, 0, 47, 47
1, 25559, Control_c, 0, 67, 57
1, 25573, Note_off_c, 0, 47, 63
1, 25594, Control_c, 0, 67, 64
1, 25628, Note_on_c, 0, 54, 51
1, 25632, Control_c, 0, 67, 69
1, 25687, Control_c, 0, 67, 76
1, 25705, Control_c, 0, 64, 114
1, 25706, Control_c, 0, 67, 81
1, 25735, Note_off_c, 0, 54, 57
1, 25740, Control_c, 0, 64, 109
1, 25741, Control_c, 0, 67, 86
1, 25759, Control_c, 0, 64, 104
1, 25778, Control_c, 0, 64, 99
1, 25779, Note_on_c, 0, 63, 59
1, 25784, Note_on_c, 0, 83, 58
1, 25811, Control_c, 0, 64, 94
1, 25813, Control_c, 0, 67, 90
1, 25819, Note_on_c, 0, 71, 41
1, 25825, Control_c, 0, 64, 87
1, 25844, Control_c, 0, 64, 79
1, 25846, Control_c, 0, 67, 94
1, 25863, Control_c, 0, 64, 69
1, 25880, Control_c, 0, 64, 55
1, 25898, Control_c, 0, 64, 34
1, 25917, Control_c, 0, 64, 0
1, 25918, Control_c, 0, 67, 99
1, 25972, Control_c, 0, 67, 103
1, 26084, Control_c, 0, 64, 32
1, 26102, Control_c, 0, 64, 50
1, 26118, Control_c, 0, 64, 60
1, 26139, Control_c, 0, 64, 65
1, 26156, Control_c, 0, 64, 68
1, 26175, Control_c, 0, 64, 73
1, 26193, Control_c, 0, 64, 80
1, 26213, Control_c, 0, 64, 88
1, 26231, Control_c, 0, 64, 96
1, 26249, Control_c, 0, 64, 101
1, 26285, Control_c, 0, 64, 107
1, 26339, Control_c, 0, 64, 111
1, 26404, Note_off_c, 0, 83, 23
1, 26408, Note_on_c, 0, 61, 53
1, 26442, Note_off_c, 0, 63, 37
1, 26578, Note_off_c, 0, 61, 61
1, 26642, Note_on_c, 0, 63, 55
1, 26656, Note_on_c, 0, 78, 63
1, 26684, Note_off_c, 0, 63, 63
1, 26700, Note_off_c, 0, 71, 40
1, 26828, Note_on_c, 0, 47, 43
1, 26874, Note_off_c, 0, 47, 53
1, 26889, Control_c, 0, 64, 97
1, 26899, Note_on_c, 0, 54, 43
1, 26903, Note_on_c, 0, 51, 34
1, 26906, Control_c, 0, 64, 76
1, 26927, Control_c, 0, 64, 49
1, 26943, Note_on_c, 0, 81, 62
1, 26945, Control_c, 0, 64, 9
1, 26963, Note_on_c, 0, 69, 43
1, 26969, Note_off_c, 0, 51, 44
1, 26969, Note_on_c, 0, 61, 58
1, 26977, Note_off_c, 0, 54, 60
1, 26980, Control_c, 0, 64, 28
1, 27001, Control_c, 0, 64, 48
1, 27019, Control_c, 0, 64, 63
1, 27038, Control_c, 0, 64, 72
1, 27054, Control_c, 0, 64, 78
1, 27067, Note_off_c, 0, 78, 31
1, 27073, Control_c, 0, 64, 85
1, 27093, Control_c, 0, 64, 91
1, 27096, Note_off_c, 0, 61, 60
1, 27130, Control_c, 0, 64, 95
1, 27161, Note_off_c, 0, 81, 60
1, 27183, Note_off_c, 0, 69, 60
1, 27262, Note_on_c, 0, 52, 44
1, 27363, Note_on_c, 0, 56, 42
1, 27440, Note_on_c, 0, 59, 52
1, 27482, Note_off_c, 0, 52, 32
1, 27498, Control_c, 0, 64, 91
1, 27527, Note_on_c, 0, 80, 52
1, 27533, Control_c, 0, 64, 86
1, 27534, Note_on_c, 0, 68, 43
1, 27552, Control_c, 0, 64, 81
1, 27557, Note_off_c, 0, 56, 37
1, 27570, Control_c, 0, 64, 71
1, 27588, Control_c, 0, 64, 53
1, 27606, Control_c, 0, 64, 0
1, 27733, Control_c, 0, 64, 16
1, 27750, Control_c, 0, 64, 48
1, 27769, Control_c, 0, 64, 62
1, 27787, Control_c, 0, 64, 68
1, 27807, Control_c, 0, 64, 72
1, 27825, Control_c, 0, 64, 75
1, 27842, Control_c, 0, 64, 81
1, 27861, Control_c, 0, 64, 88
1, 27879, Control_c, 0, 64, 95
1, 27899, Control_c, 0, 64, 99
1, 27917, Note_off_c, 0, 68, 40
1, 27954, Control_c, 0, 64, 103
1, 27956, Note_off_c, 0, 80, 31
1, 28034, Note_on_c, 0, 57, 48
1, 28037, Note_off_c, 0, 59, 50
1, 28237, Note_on_c, 0, 78, 64
1, 28255, Note_on_c, 0, 66, 47
1, 28299, Note_off_c, 0, 66, 51
1, 28324, Note_off_c, 0, 78, 54
1, 28449, Control_c, 0, 64, 97
1, 28464, Note_off_c, 0, 57, 53
1, 28468, Control_c, 0, 64, 82
1, 28488, Control_c, 0, 64, 67
1, 28502, Note_on_c, 0, 52, 43
1, 28506, Control_c, 0, 64, 66
1, 28513, Note_on_c, 0, 56, 44
1, 28524, Control_c, 0, 64, 71
1, 28529, Note_on_c, 0, 76, 58
1, 28543, Control_c, 0, 64, 80
1, 28547, Note_on_c, 0, 64, 26
1, 28562, Control_c, 0, 64, 92
1, 28581, Control_c, 0, 64, 102
1, 28584, Note_off_c, 0, 76, 66
1, 28611, Note_off_c, 0, 64, 53
1, 28611, Control_c, 0, 64, 107
1, 28631, Note_off_c, 0, 56, 59
1, 28664, Note_off_c, 0, 52, 52
1, 28774, Note_on_c, 0, 83, 65
1, 28906, Note_on_c, 0, 47, 43
1, 28977, Note_on_c, 0, 54, 50
1, 29056, Control_c, 0, 64, 102
1, 29089, Control_c, 0, 64, 95
1, 29089, Note_on_c, 0, 59, 45
1, 29107, Control_c, 0, 64, 90
1, 29109, Note_on_c, 0, 87, 62
1, 29124, Note_on_c, 0, 75, 46
1, 29128, Control_c, 0, 64, 84
1, 29134, Note_off_c, 0, 54, 38
1, 29146, Control_c, 0, 64, 76
1, 29155, Note_off_c, 0, 83, 45
1, 29163, Control_c, 0, 64, 66
1, 29172, Note_off_c, 0, 47, 40
1, 29182, Control_c, 0, 64, 55
1, 29202, Control_c, 0, 64, 41
1, 29219, Control_c, 0, 64, 18
1, 29236, Control_c, 0, 64, 0
1, 29367, Control_c, 0, 64, 18
1, 29384, Control_c, 0, 64, 42
1, 29404, Control_c, 0, 64, 56
1, 29421, Control_c, 0, 64, 63
1, 29440, Control_c, 0, 64, 68
1, 29457, Control_c, 0, 64, 73
1, 29476, Control_c, 0, 64, 80
1, 29494, Control_c, 0, 64, 88
1, 29514, Control_c, 0, 64, 96
1, 29519, Note_off_c, 0, 75, 39
1, 29547, Control_c, 0, 64, 101
1, 29603, Control_c, 0, 64, 105
1, 29635, Note_off_c, 0, 87, 40
1, 29695, Control_c, 0, 64, 109
1, 29701, Note_on_c, 0, 85, 59
1, 29719, Note_on_c, 0, 73, 33
1, 29759, Note_off_c, 0, 73, 53
1, 29927, Note_off_c, 0, 59, 42
1, 29945, Note_off_c, 0, 85, 58
1, 29948, Note_on_c, 0, 87, 61
1, 29949, Note_on_c, 0, 54, 51
1, 29951, Note_on_c, 0, 75, 51
1, 30031, Note_off_c, 0, 75, 56
1, 30035, Note_off_c, 0, 54, 54
1, 30044, Note_on_c, 0, 47, 52
1, 30119, Control_c, 0, 64, 100
1, 30123, Note_on_c, 0, 51, 47
1, 30138, Control_c, 0, 64, 80
1, 30156, Control_c, 0, 64, 50
1, 30169, Note_off_c, 0, 87, 60
1, 30171, Control_c, 0, 64, 0
1, 30211, Control_c, 0, 64, 22
1, 30211, Note_on_c, 0, 57, 62
1, 30225, Note_on_c, 0, 85, 70
1, 30227, Note_off_c, 0, 51, 59
1, 30229, Control_c, 0, 64, 49
1, 30247, Control_c, 0, 64, 65
1, 30253, Note_off_c, 0, 47, 44
1, 30255, Note_on_c, 0, 73, 40
1, 30268, Control_c, 0, 64, 75
1, 30285, Control_c, 0, 64, 87
1, 30295, Note_off_c, 0, 57, 64
1, 30304, Control_c, 0, 64, 99
1, 30321, Control_c, 0, 64, 106
1, 30327, Note_off_c, 0, 85, 60
1, 30386, Note_off_c, 0, 73, 60
1, 30522, Note_on_c, 0, 40, 53
1, 30565, Note_off_c, 0, 40, 61
1, 30629, Note_on_c, 0, 47, 38
1, 30678, Note_off_c, 0, 47, 50
1, 30723, Control_c, 0, 64, 102
1, 30755, Note_on_c, 0, 83, 59
1, 30756, Note_on_c, 0, 56, 40
1, 30760, Control_c, 0, 64, 92
1, 30764, Note_on_c, 0, 71, 51
1, 30779, Control_c, 0, 64, 82
1, 30796, Control_c, 0, 64, 67
1, 30814, Control_c, 0, 64, 44
1, 30833, Control_c, 0, 64, 0
1, 30980, Control_c, 0, 64, 35
1, 31000, Control_c, 0, 64, 51
1, 31018, Control_c, 0, 64, 60
1, 31035, Control_c, 0, 64, 64
1, 31054, Control_c, 0, 64, 66
1, 31073, Control_c, 0, 64, 68
1, 31091, Control_c, 0, 64, 71
1, 31108, Control_c, 0, 64, 76
1, 31127, Control_c, 0, 64, 82
1, 31147, Control_c, 0, 64, 89
1, 31150, Note_off_c, 0, 83, 47
1, 31164, Control_c, 0, 64, 93
1, 31202, Control_c, 0, 64, 98
1, 31220, Note_off_c, 0, 71, 52
1, 31233, Note_on_c, 0, 47, 37
1, 31275, Control_c, 0, 64, 102
1, 31317, Note_on_c, 0, 54, 58
1, 31352, Note_off_c, 0, 47, 37
1, 31366, Note_off_c, 0, 56, 37
1, 31405, Control_c, 0, 67, 99
1, 31511, Control_c, 0, 67, 93
1, 31556, Note_on_c, 0, 81, 68
1, 31559, Note_on_c, 0, 69, 55
1, 31566, Control_c, 0, 67, 87
1, 31598, Note_off_c, 0, 69, 64
1, 31602, Control_c, 0, 67, 82
1, 31620, Control_c, 0, 67, 78
1, 31640, Control_c, 0, 67, 73
1, 31655, Poly_aftertouch_c, 0, 76, 127
1, 31657, Control_c, 0, 67, 68
1, 31676, Control_c, 0, 67, 61
1, 31696, Control_c, 0, 67, 53
1, 31707, Poly_aftertouch_c, 0, 76, 0
1, 31713, Control_c, 0, 67, 44
1, 31732, Control_c, 0, 67, 38
1, 31761, Note_off_c, 0, 81, 51
1, 31800, Note_on_c, 0, 52, 61
1, 31803, Note_on_c, 0, 80, 66
1, 31803, Control_c, 0, 64, 89
1, 31814, Note_on_c, 0, 68, 47
1, 31815, Note_off_c, 0, 54, 51
1, 31821, Control_c, 0, 64, 68
1, 31841, Control_c, 0, 64, 49
1, 31860, Control_c, 0, 64, 54
1, 31863, Note_off_c, 0, 68, 49
1, 31878, Control_c, 0, 64, 62
1, 31896, Control_c, 0, 64, 72
1, 31916, Control_c, 0, 64, 86
1, 31935, Control_c, 0, 64, 102
1, 31953, Control_c, 0, 64, 114
1, 31998, Note_off_c, 0, 52, 62
1, 32025, Note_on_c, 0, 56, 60
1, 32034, Note_off_c, 0, 80, 39
1, 32034, Note_on_c, 0, 83, 76
1, 32056, Note_on_c, 0, 71, 41
1, 32083, Note_off_c, 0, 56, 57
1, 32095, Note_off_c, 0, 71, 52
1, 32124, Note_off_c, 0, 83, 62
1, 32171, Note_on_c, 0, 47, 48
1, 32253, Note_on_c, 0, 54, 56
1, 32317, Note_off_c, 0, 54, 52
1, 32321, Control_c, 0, 64, 110
1, 32336, Note_on_c, 0, 59, 55
1, 32341, Control_c, 0, 64, 105
1, 32358, Note_on_c, 0, 87, 75
1, 32365, Note_on_c, 0, 75, 56
1, 32374, Control_c, 0, 64, 96
1, 32393, Control_c, 0, 64, 86
1, 32412, Control_c, 0, 64, 73
1, 32415, Note_off_c, 0, 47, 35
1, 32431, Control_c, 0, 64, 59
1, 32447, Control_c, 0, 64, 37
1, 32465, Control_c, 0, 64, 0
1, 32576, Control_c, 0, 64, 24
1, 32595, Control_c, 0, 64, 51
1, 32613, Control_c, 0, 64, 66
1, 32632, Control_c, 0, 64, 73
1, 32651, Control_c, 0, 64, 80
1, 32668, Control_c, 0, 64, 87
1, 32686, Control_c, 0, 64, 95
1, 32706, Control_c, 0, 64, 103
1, 32723, Control_c, 0, 64, 108
1, 32730, Note_off_c, 0, 75, 44
1, 32814, Note_off_c, 0, 87, 60
1, 32814, Control_c, 0, 64, 113
1, 32816, Control_c, 0, 67, 42
1, 32898, Note_on_c, 0, 85, 73
1, 32931, Note_on_c, 0, 73, 30
1, 32973, Note_off_c, 0, 73, 49
1, 33089, Note_off_c, 0, 59, 34
1, 33136, Note_on_c, 0, 87, 70
1, 33137, Note_on_c, 0, 54, 54
1, 33142, Note_on_c, 0, 75, 58
1, 33145, Note_off_c, 0, 85, 60
1, 33206, Note_off_c, 0, 75, 59
1, 33219, Control_c, 0, 67, 46
1, 33241, Note_off_c, 0, 54, 62
1, 33271, Note_on_c, 0, 47, 52
1, 33275, Control_c, 0, 67, 51
1, 33327, Control_c, 0, 67, 57
1, 33332, Note_off_c, 0, 87, 60
1, 33345, Control_c, 0, 67, 62
1, 33352, Note_on_c, 0, 51, 44
1, 33365, Control_c, 0, 64, 106
1, 33366, Control_c, 0, 67, 66
1, 33382, Control_c, 0, 64, 84
1, 33383, Control_c, 0, 67, 72
1, 33400, Control_c, 0, 64, 54
1, 33402, Control_c, 0, 67, 77
1, 33418, Control_c, 0, 64, 0
1, 33420, Control_c, 0, 67, 82
1, 33423, Note_on_c, 0, 85, 69
1, 33434, Note_on_c, 0, 57, 60
1, 33438, Control_c, 0, 64, 19
1, 33439, Control_c, 0, 67, 86
1, 33441, Note_off_c, 0, 47, 51
1, 33442, Note_on_c, 0, 73, 54
1, 33449, Note_off_c, 0, 51, 63
1, 33454, Control_c, 0, 64, 44
1, 33456, Control_c, 0, 67, 90
1, 33475, Control_c, 0, 64, 62
1, 33492, Control_c, 0, 64, 75
1, 33493, Control_c, 0, 67, 96
1, 33497, Note_off_c, 0, 57, 64
1, 33505, Control_c, 0, 64, 91
1, 33523, Control_c, 0, 64, 106
1, 33524, Note_off_c, 0, 85, 62
1, 33524, Control_c, 0, 67, 101
1, 33542, Control_c, 0, 64, 113
1, 33599, Note_off_c, 0, 73, 62
1, 33694, Note_on_c, 0, 40, 48
1, 33744, Note_off_c, 0, 40, 55
1, 33803, Note_on_c, 0, 47, 53
1, 33861, Note_off_c, 0, 47, 60
1, 33908, Control_c, 0, 64, 107
1, 33918, Note_on_c, 0, 56, 50
1, 33928, Control_c, 0, 64, 101
1, 33936, Note_on_c, 0, 83, 66
1, 33947, Control_c, 0, 64, 88
1, 33949, Note_on_c, 0, 71, 55
1, 33965, Control_c, 0, 64, 72
1, 33984, Control_c, 0, 64, 52
1, 34021, Control_c, 0, 64, 0
1, 34147, Control_c, 0, 64, 38
1, 34167, Control_c, 0, 64, 54
1, 34184, Control_c, 0, 64, 62
1, 34204, Control_c, 0, 64, 66
1, 34237, Control_c, 0, 64, 69
1, 34256, Control_c, 0, 64, 72
1, 34274, Control_c, 0, 64, 76
1, 34294, Control_c, 0, 64, 82
1, 34311, Control_c, 0, 64, 87
1, 34348, Control_c, 0, 64, 92
1, 34349, Note_off_c, 0, 83, 55
1, 34402, Control_c, 0, 64, 97
1, 34417, Note_on_c, 0, 47, 51
1, 34426, Note_off_c, 0, 71, 51
1, 34459, Control_c, 0, 64, 101
1, 34519, Note_on_c, 0, 54, 60
1, 34530, Note_off_c, 0, 56, 36
1, 34667, Note_off_c, 0, 47, 37
1, 34746, Note_on_c, 0, 81, 73
1, 34751, Note_on_c, 0, 69, 61
1, 34793, Note_off_c, 0, 69, 63
1, 34852, Poly_aftertouch_c, 0, 76, 127
1, 34881, Control_c, 0, 64, 105
1, 34898, Note_off_c, 0, 81, 57
1, 34920, Poly_aftertouch_c, 0, 76, 0
1, 34956, Control_c, 0, 64, 101
1, 34974, Control_c, 0, 64, 87
1, 34992, Control_c, 0, 64, 66
1, 34993, Note_on_c, 0, 52, 62
1, 34995, Note_off_c, 0, 54, 60
1, 34999, Note_on_c, 0, 80, 64
1, 35006, Note_on_c, 0, 68, 50
1, 35009, Control_c, 0, 64, 46
1, 35029, Control_c, 0, 64, 48
1, 35046, Control_c, 0, 64, 56
1, 35059, Note_off_c, 0, 68, 52
1, 35066, Control_c, 0, 64, 65
1, 35083, Control_c, 0, 64, 74
1, 35103, Control_c, 0, 64, 84
1, 35120, Control_c, 0, 64, 95
1, 35139, Control_c, 0, 64, 102
1, 35235, Note_off_c, 0, 52, 63
1, 35263, Note_on_c, 0, 56, 66
1, 35265, Control_c, 0, 64, 106
1, 35265, Note_on_c, 0, 83, 73
1, 35266, Note_off_c, 0, 80, 33
1, 35278, Note_on_c, 0, 71, 57
1, 35312, Note_off_c, 0, 71, 57
1, 35348, Note_off_c, 0, 56, 61
1, 35349, Poly_aftertouch_c, 0, 76, 127
1, 35354, Note_off_c, 0, 83, 61
1, 35362, Poly_aftertouch_c, 0, 76, 0
1, 35407, Note_on_c, 0, 45, 59
1, 35490, Note_on_c, 0, 52, 56
1, 35547, Note_off_c, 0, 45, 52
1, 35566, Note_on_c, 0, 85, 70
1, 35575, Note_on_c, 0, 57, 68
1, 35576, Control_c, 0, 64, 98
1, 35577, Note_on_c, 0, 73, 57
1, 35596, Control_c, 0, 64, 84
1, 35597, Control_c, 0, 67, 105
1, 35614, Control_c, 0, 64, 60
1, 35632, Control_c, 0, 64, 0
1, 35638, Note_off_c, 0, 52, 62
1, 35762, Control_c, 0, 64, 28
1, 35778, Control_c, 0, 64, 58
1, 35797, Control_c, 0, 64, 76
1, 35818, Control_c, 0, 64, 96
1, 35821, Note_off_c, 0, 85, 62
1, 35835, Control_c, 0, 64, 116
1, 35853, Control_c, 0, 64, 127
1, 35866, Note_off_c, 0, 73, 61
1, 35879, Note_off_c, 0, 57, 61
1, 36128, Note_on_c, 0, 83, 72
1, 36141, Note_on_c, 0, 71, 52
1, 36173, Note_off_c, 0, 71, 53
1, 36213, Note_off_c, 0, 83, 62
1, 36369, Note_on_c, 0, 52, 58
1, 36374, Note_on_c, 0, 85, 73
1, 36386, Note_on_c, 0, 73, 55
1, 36480, Note_on_c, 0, 40, 58
1, 36485, Note_off_c, 0, 85, 61
1, 36490, Note_off_c, 0, 73, 61
1, 36490, Note_off_c, 0, 52, 62
1, 36523, Note_off_c, 0, 40, 60
1, 36546, Note_on_c, 0, 47, 57
1, 36642, Control_c, 0, 64, 123
1, 36660, Control_c, 0, 64, 114
1, 36664, Note_off_c, 0, 47, 51
1, 36671, Note_on_c, 0, 56, 65
1, 36677, Note_on_c, 0, 83, 71
1, 36679, Control_c, 0, 64, 92
1, 36698, Note_on_c, 0, 71, 48
1, 36698, Control_c, 0, 64, 62
1, 36715, Control_c, 0, 64, 0
1, 36771, Control_c, 0, 64, 13
1, 36791, Control_c, 0, 64, 45
1, 36808, Control_c, 0, 64, 63
1, 36828, Control_c, 0, 64, 76
1, 36848, Control_c, 0, 64, 92
1, 36862, Note_off_c, 0, 56, 59
1, 36865, Control_c, 0, 64, 107
1, 36882, Control_c, 0, 64, 114
1, 36889, Note_off_c, 0, 83, 56
1, 36973, Note_off_c, 0, 71, 58
1, 37014, Note_on_c, 0, 42, 48
1, 37115, Note_on_c, 0, 49, 52
1, 37166, Note_off_c, 0, 42, 50
1, 37190, Control_c, 0, 64, 109
1, 37201, Note_on_c, 0, 54, 60
1, 37226, Control_c, 0, 64, 103
1, 37228, Note_on_c, 0, 81, 65
1, 37241, Note_on_c, 0, 69, 52
1, 37246, Control_c, 0, 64, 95
1, 37264, Note_off_c, 0, 49, 55
1, 37264, Control_c, 0, 64, 83
1, 37284, Control_c, 0, 64, 63
1, 37302, Control_c, 0, 64, 0
1, 37412, Control_c, 0, 64, 28
1, 37430, Control_c, 0, 64, 50
1, 37447, Control_c, 0, 64, 63
1, 37467, Control_c, 0, 64, 72
1, 37486, Control_c, 0, 64, 80
1, 37504, Control_c, 0, 64, 89
1, 37523, Control_c, 0, 64, 97
1, 37541, Control_c, 0, 64, 103
1, 37550, Note_off_c, 0, 54, 61
1, 37564, Note_off_c, 0, 69, 57
1, 37649, Poly_aftertouch_c, 0, 76, 0
1, 37651, Control_c, 0, 64, 107
1, 37705, Note_off_c, 0, 81, 51
1, 37811, Note_on_c, 0, 80, 65
1, 37829, Note_on_c, 0, 68, 53
1, 37956, Note_off_c, 0, 68, 49
1, 38100, Note_on_c, 0, 81, 61
1, 38102, Note_off_c, 0, 80, 38
1, 38103, Note_on_c, 0, 49, 51
1, 38110, Note_on_c, 0, 69, 49
1, 38164, Note_off_c, 0, 69, 55
1, 38209, Note_on_c, 0, 37, 62
1, 38268, Note_off_c, 0, 37, 61
1, 38273, Note_off_c, 0, 49, 37
1, 38297, Note_on_c, 0, 44, 45
1, 38298, Note_off_c, 0, 81, 58
1, 38380, Note_off_c, 0, 44, 55
1, 38421, Control_c, 0, 64, 101
1, 38432, Note_on_c, 0, 52, 49
1, 38437, Note_on_c, 0, 80, 54
1, 38440, Control_c, 0, 64, 94
1, 38444, Note_on_c, 0, 68, 45
1, 38460, Control_c, 0, 64, 78
1, 38478, Control_c, 0, 64, 51
1, 38497, Control_c, 0, 64, 0
1, 38586, Control_c, 0, 64, 30
1, 38606, Control_c, 0, 64, 51
1, 38624, Control_c, 0, 64, 62
1, 38643, Control_c, 0, 64, 70
1, 38661, Control_c, 0, 64, 76
1, 38681, Control_c, 0, 64, 83
1, 38699, Control_c, 0, 64, 90
1, 38718, Control_c, 0, 64, 97
1, 38746, Note_off_c, 0, 80, 38
1, 38751, Control_c, 0, 64, 102
1, 38761, Note_off_c, 0, 68, 42
1, 39137, Control_c, 0, 64, 91
1, 39157, Control_c, 0, 64, 72
1, 39174, Control_c, 0, 64, 53
1, 39192, Note_on_c, 0, 40, 34
1, 39192, Control_c, 0, 64, 48
1, 39202, Note_on_c, 0, 80, 65
1, 39202, Note_on_c, 0, 47, 44
1, 39211, Control_c, 0, 64, 55
1, 39212, Note_on_c, 0, 68, 49
1, 39228, Control_c, 0, 64, 65
1, 39246, Control_c, 0, 64, 74
1, 39265, Control_c, 0, 64, 85
1, 39280, Note_off_c, 0, 40, 56
1, 39282, Control_c, 0, 64, 96
1, 39298, Note_off_c, 0, 47, 61
1, 39299, Control_c, 0, 64, 104
1, 39319, Control_c, 0, 64, 108
1, 39341, Note_off_c, 0, 52, 61
1, 39371, Note_off_c, 0, 80, 56
1, 39374, Note_off_c, 0, 68, 54
1, 39431, Control_c, 0, 64, 112
1, 39485, Control_c, 0, 64, 116
1, 39493, Note_on_c, 0, 78, 74
1, 39512, Note_on_c, 0, 66, 55
1, 39556, Note_on_c, 0, 44, 49
1, 39585, Note_off_c, 0, 78, 61
1, 39599, Note_off_c, 0, 66, 60
1, 39648, Note_off_c, 0, 44, 60
1, 39667, Note_on_c, 0, 52, 52
1, 39778, Control_c, 0, 64, 108
1, 39783, Note_on_c, 0, 59, 61
1, 39787, Note_on_c, 0, 76, 78
1, 39797, Control_c, 0, 64, 86
1, 39804, Note_on_c, 0, 64, 61
1, 39815, Control_c, 0, 64, 56
1, 39850, Control_c, 0, 64, 0
1, 39887, Control_c, 0, 64, 26
1, 39905, Control_c, 0, 64, 52
1, 39924, Control_c, 0, 64, 66
1, 39928, Note_off_c, 0, 59, 63
1, 39941, Control_c, 0, 64, 74
1, 39959, Control_c, 0, 64, 83
1, 39979, Control_c, 0, 64, 90
1, 39995, Control_c, 0, 64, 94
1, 40044, Note_off_c, 0, 52, 34
1, 40089, Control_c, 0, 64, 98
1, 40117, Note_on_c, 0, 44, 47
1, 40178, Note_off_c, 0, 44, 61
1, 40199, Control_c, 0, 64, 103
1, 40253, Note_on_c, 0, 54, 49
1, 40326, Control_c, 0, 64, 88
1, 40343, Note_on_c, 0, 60, 64
1, 40345, Control_c, 0, 64, 70
1, 40364, Control_c, 0, 64, 52
1, 40383, Control_c, 0, 64, 48
1, 40401, Control_c, 0, 64, 53
1, 40406, Note_off_c, 0, 64, 63
1, 40420, Control_c, 0, 64, 60
1, 40440, Control_c, 0, 64, 67
1, 40456, Control_c, 0, 64, 75
1, 40473, Control_c, 0, 64, 83
1, 40493, Control_c, 0, 64, 91
1, 40511, Control_c, 0, 64, 96
1, 40535, Note_off_c, 0, 76, 61
1, 40548, Control_c, 0, 64, 101
1, 40600, Note_on_c, 0, 75, 76
1, 40606, Note_off_c, 0, 54, 52
1, 40629, Note_off_c, 0, 60, 57
1, 40639, Note_on_c, 0, 63, 33
1, 40694, Control_c, 0, 67, 109
1, 40756, Note_off_c, 0, 75, 58
1, 40785, Note_off_c, 0, 63, 28
1, 40913, Control_c, 0, 64, 90
1, 40929, Note_on_c, 0, 54, 39
1, 40929, Control_c, 0, 64, 72
1, 40939, Note_on_c, 0, 49, 35
1, 40943, Note_on_c, 0, 75, 63
1, 40945, Note_on_c, 0, 60, 42
1, 40948, Control_c, 0, 64, 45
1, 40956, Note_on_c, 0, 63, 42
1, 40968, Control_c, 0, 64, 0
1, 40986, Control_c, 0, 67, 114
1, 41024, Control_c, 0, 67, 121
1, 41042, Control_c, 0, 64, 24
1, 41061, Control_c, 0, 64, 47
1, 41061, Control_c, 0, 67, 127
1, 41079, Control_c, 0, 64, 60
1, 41097, Control_c, 0, 64, 66
1, 41115, Control_c, 0, 64, 70
1, 41124, Note_off_c, 0, 60, 63
1, 41134, Control_c, 0, 64, 74
1, 41153, Control_c, 0, 64, 80
1, 41172, Control_c, 0, 64, 86
1, 41185, Control_c, 0, 64, 91
1, 41208, Note_off_c, 0, 54, 36
1, 41315, Control_c, 0, 64, 95
1, 41537, Control_c, 0, 64, 90
1, 41573, Control_c, 0, 64, 86
1, 41591, Control_c, 0, 64, 81
1, 41606, Note_off_c, 0, 75, 60
1, 41609, Control_c, 0, 64, 73
1, 41615, Note_on_c, 0, 73, 48
1, 41623, Note_on_c, 0, 52, 31
1, 41626, Control_c, 0, 64, 62
1, 41641, Note_on_c, 0, 61, 23
1, 41646, Control_c, 0, 64, 47
1, 41664, Control_c, 0, 64, 17
1, 41682, Control_c, 0, 64, 0
1, 41917, Control_c, 0, 64, 34
1, 41937, Control_c, 0, 64, 53
1, 41956, Control_c, 0, 64, 62
1, 41962, Note_off_c, 0, 63, 49
1, 41974, Control_c, 0, 64, 67
1, 41992, Control_c, 0, 64, 70
1, 42012, Control_c, 0, 64, 72
1, 42030, Control_c, 0, 64, 77
1, 42047, Control_c, 0, 64, 83
1, 42066, Control_c, 0, 64, 91
1, 42084, Control_c, 0, 64, 98
1, 42094, Note_off_c, 0, 73, 40
1, 42101, Control_c, 0, 64, 103
1, 42158, Control_c, 0, 64, 107
1, 42211, Control_c, 0, 64, 111
1, 42253, Note_off_c, 0, 61, 39
1, 42425, Note_off_c, 0, 52, 37
1, 42690, Control_c, 0, 64, 107
1, 42715, Note_on_c, 0, 88, 45
1, 42722, Note_on_c, 0, 56, 34
1, 42725, Control_c, 0, 64, 103
1, 42736, Note_on_c, 0, 76, 28
1, 42762, Control_c, 0, 64, 94
1, 42764, Poly_aftertouch_c, 0, 49, 24
1, 42779, Control_c, 0, 64, 87
1, 42799, Control_c, 0, 64, 76
1, 42815, Control_c, 0, 64, 60
1, 42823, Note_off_c, 0, 49, 36
1, 42834, Control_c, 0, 64, 34
1, 42852, Control_c, 0, 64, 0
1, 42982, Control_c, 0, 64, 16
1, 43001, Control_c, 0, 64, 40
1, 43019, Control_c, 0, 64, 56
1, 43037, Control_c, 0, 64, 66
1, 43056, Control_c, 0, 64, 72
1, 43062, Note_off_c, 0, 56, 40
1, 43073, Control_c, 0, 64, 79
1, 43094, Control_c, 0, 64, 89
1, 43111, Control_c, 0, 64, 99
1, 43130, Control_c, 0, 64, 106
1, 43167, Control_c, 0, 64, 110
1, 43221, Control_c, 0, 64, 116
1, 43276, Control_c, 0, 64, 120
1, 43307, Note_on_c, 0, 47, 32
1, 43380, Note_off_c, 0, 76, 0
1, 43391, Note_on_c, 0, 54, 28
1, 43426, Note_off_c, 0, 88, 33
1, 43496, Control_c, 0, 64, 116
1, 43504, Note_on_c, 0, 59, 23
1, 43512, Note_on_c, 0, 87, 47
1, 43534, Control_c, 0, 64, 111
1, 43542, Note_on_c, 0, 75, 37
1, 43552, Control_c, 0, 64, 107
1, 43584, Control_c, 0, 64, 101
1, 43595, Poly_aftertouch_c, 0, 47, 24
1, 43602, Control_c, 0, 64, 91
1, 43622, Control_c, 0, 64, 76
1, 43641, Note_off_c, 0, 54, 42
1, 43641, Control_c, 0, 64, 52
1, 43658, Control_c, 0, 64, 0
1, 43673, Note_off_c, 0, 47, 21
1, 43750, Control_c, 0, 64, 20
1, 43770, Control_c, 0, 64, 41
1, 43788, Control_c, 0, 64, 55
1, 43806, Control_c, 0, 64, 62
1, 43825, Control_c, 0, 64, 65
1, 43844, Control_c, 0, 64, 69
1, 43862, Control_c, 0, 64, 73
1, 43881, Control_c, 0, 64, 80
1, 43899, Control_c, 0, 64, 89
1, 43907, Note_off_c, 0, 75, 53
1, 43917, Control_c, 0, 64, 98
1, 43935, Control_c, 0, 64, 104
1, 43954, Control_c, 0, 64, 109
1, 43990, Control_c, 0, 64, 116
1, 44027, Control_c, 0, 64, 122
1, 44065, Control_c, 0, 64, 127
1, 44087, Note_off_c, 0, 87, 47
1, 44130, Note_on_c, 0, 85, 50
1, 44155, Note_on_c, 0, 73, 35
1, 44192, Note_off_c, 0, 73, 53
1, 44386, Note_off_c, 0, 85, 62
1, 44393, Note_on_c, 0, 87, 54
1, 44411, Note_off_c, 0, 59, 43
1, 44411, Note_on_c, 0, 75, 32
1, 44429, Note_on_c, 0, 54, 43
1, 44477, Note_off_c, 0, 75, 47
1, 44534, Note_off_c, 0, 54, 55
1, 44552, Note_on_c, 0, 47, 42
1, 44581, Note_off_c, 0, 87, 60
1, 44614, Control_c, 0, 64, 119
1, 44633, Control_c, 0, 64, 104
1, 44647, Note_off_c, 0, 47, 49
1, 44651, Control_c, 0, 64, 78
1, 44667, Note_on_c, 0, 51, 34
1, 44669, Control_c, 0, 64, 51
1, 44684, Note_on_c, 0, 85, 52
1, 44686, Control_c, 0, 64, 32
1, 44692, Note_on_c, 0, 73, 50
1, 44705, Control_c, 0, 64, 41
1, 44714, Note_on_c, 0, 57, 45
1, 44724, Control_c, 0, 64, 58
1, 44744, Control_c, 0, 64, 69
1, 44757, Note_off_c, 0, 51, 55
1, 44761, Control_c, 0, 64, 80
1, 44781, Note_off_c, 0, 57, 45
1, 44781, Control_c, 0, 64, 90
1, 44796, Note_off_c, 0, 85, 62
1, 44799, Control_c, 0, 64, 99
1, 44818, Control_c, 0, 64, 105
1, 44854, Control_c, 0, 64, 110
1, 44865, Note_off_c, 0, 73, 59
1, 44891, Control_c, 0, 64, 114
1, 45020, Note_on_c, 0, 40, 30
1, 45085, Note_off_c, 0, 40, 46
1, 45151, Note_on_c, 0, 47, 36
1, 45205, Note_off_c, 0, 47, 59
1, 45255, Note_on_c, 0, 56, 52
1, 45272, Note_on_c, 0, 83, 48
1, 45277, Note_on_c, 0, 71, 44
1, 45277, Control_c, 0, 64, 107
1, 45296, Control_c, 0, 64, 95
1, 45316, Control_c, 0, 64, 73
1, 45335, Control_c, 0, 64, 43
1, 45353, Control_c, 0, 64, 0
1, 45371, Note_off_c, 0, 56, 0
1, 45388, Control_c, 0, 64, 33
1, 45408, Control_c, 0, 64, 52
1, 45426, Control_c, 0, 64, 62
1, 45444, Control_c, 0, 64, 67
1, 45476, Control_c, 0, 64, 72
1, 45495, Control_c, 0, 64, 76
1, 45513, Control_c, 0, 64, 80
1, 45532, Control_c, 0, 64, 85
1, 45552, Control_c, 0, 64, 90
1, 45566, Poly_aftertouch_c, 0, 56, 20
1, 45569, Control_c, 0, 64, 96
1, 45574, Poly_aftertouch_c, 0, 56, 0
1, 45588, Control_c, 0, 64, 101
1, 45610, Note_off_c, 0, 83, 61
1, 45624, Control_c, 0, 64, 105
1, 45680, Control_c, 0, 64, 110
1, 45715, Note_off_c, 0, 71, 45
1, 45729, Note_on_c, 0, 47, 49
1, 45834, Note_on_c, 0, 54, 49
1, 45963, Note_off_c, 0, 47, 38
1, 46049, Note_on_c, 0, 81, 60
1, 46055, Note_on_c, 0, 69, 37
1, 46109, Note_off_c, 0, 69, 48
1, 46250, Control_c, 0, 64, 105
1, 46270, Control_c, 0, 64, 90
1, 46274, Note_off_c, 0, 81, 61
1, 46280, Note_off_c, 0, 54, 61
1, 46289, Control_c, 0, 64, 68
1, 46299, Note_on_c, 0, 80, 61
1, 46305, Control_c, 0, 64, 45
1, 46311, Note_on_c, 0, 52, 44
1, 46322, Note_on_c, 0, 68, 22
1, 46322, Control_c, 0, 64, 39
1, 46342, Control_c, 0, 64, 41
1, 46362, Control_c, 0, 64, 48
1, 46372, Note_off_c, 0, 68, 44
1, 46378, Control_c, 0, 64, 56
1, 46411, Control_c, 0, 64, 64
1, 46430, Control_c, 0, 64, 71
1, 46449, Control_c, 0, 64, 79
1, 46467, Control_c, 0, 64, 87
1, 46486, Control_c, 0, 64, 93
1, 46523, Control_c, 0, 64, 98
1, 46540, Note_off_c, 0, 80, 46
1, 46555, Note_off_c, 0, 52, 37
1, 46555, Note_on_c, 0, 83, 65
1, 46558, Note_on_c, 0, 56, 48
1, 46561, Control_c, 0, 64, 102
1, 46581, Note_on_c, 0, 71, 29
1, 46598, Control_c, 0, 64, 108
1, 46609, Note_off_c, 0, 56, 62
1, 46625, Note_off_c, 0, 71, 48
1, 46639, Note_off_c, 0, 83, 62
1, 46714, Note_on_c, 0, 47, 41
1, 46782, Control_c, 0, 64, 103
1, 46812, Note_off_c, 0, 47, 46
1, 46812, Note_on_c, 0, 54, 47
1, 46819, Control_c, 0, 64, 98
1, 46838, Control_c, 0, 64, 94
1, 46856, Control_c, 0, 64, 89
1, 46873, Control_c, 0, 64, 83
1, 46874, Note_on_c, 0, 87, 54
1, 46885, Note_off_c, 0, 54, 48
1, 46885, Note_on_c, 0, 75, 42
1, 46891, Control_c, 0, 64, 74
1, 46900, Note_on_c, 0, 59, 46
1, 46912, Control_c, 0, 64, 66
1, 46929, Control_c, 0, 64, 57
1, 46945, Control_c, 0, 64, 46
1, 46964, Control_c, 0, 64, 33
1, 46982, Control_c, 0, 64, 0
1, 47238, Control_c, 0, 64, 39
1, 47256, Control_c, 0, 64, 56
1, 47276, Control_c, 0, 64, 65
1, 47294, Control_c, 0, 64, 70
1, 47302, Note_off_c, 0, 75, 44
1, 47313, Control_c, 0, 64, 75
1, 47345, Control_c, 0, 64, 81
1, 47364, Control_c, 0, 64, 90
1, 47383, Control_c, 0, 64, 100
1, 47400, Control_c, 0, 64, 110
1, 47420, Control_c, 0, 64, 114
1, 47426, Note_off_c, 0, 87, 57
1, 47485, Note_on_c, 0, 85, 61
1, 47505, Note_on_c, 0, 73, 36
1, 47510, Control_c, 0, 64, 118
1, 47547, Note_off_c, 0, 73, 54
1, 47737, Note_off_c, 0, 85, 62
1, 47739, Note_off_c, 0, 59, 40
1, 47745, Note_on_c, 0, 54, 56
1, 47747, Note_on_c, 0, 87, 60
1, 47754, Note_on_c, 0, 75, 46
1, 47812, Note_off_c, 0, 75, 52
1, 47865, Note_off_c, 0, 54, 59
1, 47869, Note_on_c, 0, 47, 53
1, 47936, Note_off_c, 0, 87, 59
1, 47954, Control_c, 0, 64, 103
1, 47956, Note_on_c, 0, 51, 44
1, 47974, Control_c, 0, 64, 76
1, 47992, Control_c, 0, 64, 35
1, 48000, Note_off_c, 0, 47, 38
1, 48011, Control_c, 0, 64, 0
1, 48021, Note_on_c, 0, 85, 61
1, 48035, Note_on_c, 0, 57, 50
1, 48042, Note_on_c, 0, 73, 48
1, 48045, Control_c, 0, 64, 46
1, 48063, Control_c, 0, 64, 65
1, 48084, Control_c, 0, 64, 77
1, 48102, Control_c, 0, 64, 89
1, 48119, Control_c, 0, 64, 100
1, 48120, Note_off_c, 0, 73, 61
1, 48120, Note_off_c, 0, 57, 63
1, 48120, Note_off_c, 0, 85, 62
1, 48120, Note_off_c, 0, 51, 59
1, 48140, Control_c, 0, 64, 106
1, 48343, Note_on_c, 0, 40, 49
1, 48462, Note_on_c, 0, 47, 43
1, 48480, Note_off_c, 0, 40, 60
1, 48522, Control_c, 0, 64, 100
1, 48539, Control_c, 0, 64, 95
1, 48559, Control_c, 0, 64, 87
1, 48570, Note_on_c, 0, 56, 45
1, 48576, Control_c, 0, 64, 77
1, 48582, Note_on_c, 0, 83, 52
1, 48594, Note_on_c, 0, 71, 42
1, 48596, Control_c, 0, 64, 64
1, 48600, Note_off_c, 0, 47, 59
1, 48614, Control_c, 0, 64, 46
1, 48633, Control_c, 0, 64, 29
1, 48652, Control_c, 0, 64, 19
1, 48669, Control_c, 0, 64, 0
1, 48720, Note_off_c, 0, 71, 41
1, 48720, Note_off_c, 0, 83, 56
1, 48720, Note_off_c, 0, 56, 50
1, 48889, Control_c, 0, 64, 15
1, 48908, Control_c, 0, 64, 38
1, 48927, Control_c, 0, 64, 51
1, 48946, Control_c, 0, 64, 58
1, 48962, Control_c, 0, 64, 60
1, 49000, Control_c, 0, 64, 63
1, 49018, Control_c, 0, 64, 66
1, 49034, Note_on_c, 0, 47, 29
1, 49037, Control_c, 0, 64, 69
1, 49056, Control_c, 0, 64, 72
1, 49074, Control_c, 0, 64, 75
1, 49093, Control_c, 0, 64, 78
1, 49111, Control_c, 0, 64, 83
1, 49126, Note_off_c, 0, 47, 27
1, 49128, Control_c, 0, 64, 90
1, 49142, Note_on_c, 0, 54, 42
1, 49146, Control_c, 0, 64, 96
1, 49167, Control_c, 0, 64, 100
1, 49258, Note_off_c, 0, 54, 61
1, 49291, Control_c, 0, 64, 104
1, 49384, Note_on_c, 0, 81, 49
1, 49387, Note_on_c, 0, 69, 38
1, 49493, Note_off_c, 0, 69, 60
1, 49496, Note_off_c, 0, 81, 54
1, 49604, Control_c, 0, 64, 97
1, 49622, Control_c, 0, 64, 80
1, 49639, Note_on_c, 0, 52, 58
1, 49641, Control_c, 0, 64, 54
1, 49646, Note_on_c, 0, 80, 58
1, 49659, Control_c, 0, 64, 0
1, 49661, Note_on_c, 0, 68, 29
1, 49694, Control_c, 0, 64, 38
1, 49714, Control_c, 0, 64, 58
1, 49732, Control_c, 0, 64, 68
1, 49752, Control_c, 0, 64, 74
1, 49770, Control_c, 0, 64, 80
1, 49789, Control_c, 0, 64, 84
1, 49800, Note_off_c, 0, 68, 50
1, 49800, Note_off_c, 0, 80, 39
1, 49800, Note_off_c, 0, 52, 62
1, 49808, Control_c, 0, 64, 88
1, 49824, Control_c, 0, 64, 93
1, 49843, Control_c, 0, 64, 99
1, 49861, Control_c, 0, 64, 103
1, 49897, Control_c, 0, 64, 108
1, 49906, Note_on_c, 0, 56, 60
1, 49908, Note_on_c, 0, 83, 67
1, 49920, Note_on_c, 0, 71, 45
1, 49989, Control_c, 0, 64, 112
1, 50039, Note_on_c, 0, 45, 54
1, 50040, Note_off_c, 0, 71, 56
1, 50040, Note_off_c, 0, 83, 61
1, 50040, Note_off_c, 0, 56, 53
1, 50139, Note_on_c, 0, 52, 54
1, 50151, Control_c, 0, 64, 106
1, 50160, Note_off_c, 0, 45, 48
1, 50171, Control_c, 0, 64, 101
1, 50189, Control_c, 0, 64, 93
1, 50207, Control_c, 0, 64, 80
1, 50226, Control_c, 0, 64, 64
1, 50245, Control_c, 0, 64, 41
1, 50247, Note_on_c, 0, 57, 60
1, 50248, Note_on_c, 0, 85, 63
1, 50264, Control_c, 0, 64, 0
1, 50264, Note_on_c, 0, 73, 39
1, 50280, Note_off_c, 0, 52, 61
1, 50340, Note_on_c, 0, 73, 1
1, 50400, Note_off_c, 0, 73, 57
1, 50400, Note_off_c, 0, 85, 62
1, 50400, Note_off_c, 0, 57, 62
1, 50460, Note_off_c, 0, 73, 0
1, 50466, Control_c, 0, 64, 39
1, 50484, Control_c, 0, 64, 58
1, 50503, Control_c, 0, 64, 68
1, 50522, Control_c, 0, 64, 76
1, 50538, Control_c, 0, 64, 83
1, 50558, Control_c, 0, 64, 89
1, 50576, Control_c, 0, 64, 96
1, 50594, Control_c, 0, 64, 103
1, 50629, Control_c, 0, 64, 108
1, 50687, Control_c, 0, 64, 112
1, 50820, Note_on_c, 0, 83, 51
1, 50832, Note_on_c, 0, 71, 30
1, 50928, Note_off_c, 0, 71, 57
1, 50940, Note_off_c, 0, 83, 62
1, 51087, Note_on_c, 0, 52, 66
1, 51089, Note_on_c, 0, 85, 71
1, 51101, Note_on_c, 0, 73, 55
1, 51124, Control_c, 0, 64, 116
1, 51238, Note_on_c, 0, 40, 58
1, 51240, Note_off_c, 0, 73, 52
1, 51240, Note_off_c, 0, 85, 61
1, 51240, Note_off_c, 0, 52, 55
1, 51321, Note_on_c, 0, 47, 49
1, 51360, Note_off_c, 0, 40, 61
1, 51404, Control_c, 0, 64, 112
1, 51438, Note_on_c, 0, 56, 57
1, 51438, Control_c, 0, 64, 107
1, 51455, Note_on_c, 0, 83, 63
1, 51458, Control_c, 0, 64, 99
1, 51474, Control_c, 0, 64, 82
1, 51480, Note_off_c, 0, 47, 38
1, 51480, Note_on_c, 0, 71, 41
1, 51495, Control_c, 0, 64, 55
1, 51513, Control_c, 0, 64, 0
1, 51600, Note_off_c, 0, 71, 38
1, 51600, Note_off_c, 0, 83, 56
1, 51600, Note_off_c, 0, 56, 59
1, 51605, Control_c, 0, 64, 9
1, 51623, Control_c, 0, 64, 46
1, 51642, Control_c, 0, 64, 62
1, 51660, Control_c, 0, 64, 71
1, 51680, Control_c, 0, 64, 78
1, 51696, Control_c, 0, 64, 85
1, 51714, Control_c, 0, 64, 91
1, 51733, Control_c, 0, 64, 97
1, 51752, Control_c, 0, 64, 101
1, 51846, Note_on_c, 0, 42, 36
1, 51864, Control_c, 0, 64, 105
1, 51926, Note_on_c, 0, 49, 45
1, 51960, Note_off_c, 0, 42, 41
1, 52054, Note_on_c, 0, 54, 48
1, 52060, Control_c, 0, 64, 101
1, 52080, Note_off_c, 0, 49, 37
1, 52087, Note_on_c, 0, 81, 58
1, 52089, Note_on_c, 0, 69, 52
1, 52097, Control_c, 0, 64, 93
1, 52115, Control_c, 0, 64, 83
1, 52136, Control_c, 0, 64, 67
1, 52154, Control_c, 0, 64, 34
1, 52172, Control_c, 0, 64, 0
1, 52200, Note_off_c, 0, 69, 61
1, 52200, Note_off_c, 0, 81, 41
1, 52200, Note_off_c, 0, 54, 56
1, 52282, Control_c, 0, 64, 11
1, 52299, Control_c, 0, 64, 41
1, 52319, Control_c, 0, 64, 57
1, 52337, Control_c, 0, 64, 64
1, 52356, Control_c, 0, 64, 69
1, 52374, Control_c, 0, 64, 73
1, 52394, Control_c, 0, 64, 78
1, 52410, Control_c, 0, 64, 86
1, 52428, Control_c, 0, 64, 95
1, 52447, Control_c, 0, 64, 102
1, 52466, Control_c, 0, 64, 108
1, 52501, Control_c, 0, 64, 113
1, 52539, Control_c, 0, 64, 120
1, 52576, Control_c, 0, 64, 126
1, 52768, Note_on_c, 0, 80, 53
1, 52789, Note_on_c, 0, 68, 40
1, 52834, Control_c, 0, 67, 122
1, 52869, Control_c, 0, 67, 117
1, 52907, Control_c, 0, 67, 110
1, 52920, Note_off_c, 0, 68, 31
1, 52920, Note_off_c, 0, 80, 52
1, 52925, Control_c, 0, 67, 105
1, 52957, Control_c, 0, 67, 100
1, 52978, Control_c, 0, 67, 95
1, 52996, Control_c, 0, 67, 89
1, 52998, Poly_aftertouch_c, 0, 76, 0
1, 53014, Control_c, 0, 67, 84
1, 53052, Control_c, 0, 67, 79
1, 53105, Note_on_c, 0, 49, 40
1, 53133, Note_on_c, 0, 81, 51
1, 53145, Note_on_c, 0, 69, 38
1, 53215, Note_off_c, 0, 49, 58
1, 53280, Note_off_c, 0, 69, 53
1, 53280, Note_off_c, 0, 81, 39
1, 53295, Note_on_c, 0, 37, 50
1, 53400, Note_off_c, 0, 37, 54
1, 53423, Note_on_c, 0, 44, 46
1, 53520, Note_off_c, 0, 44, 60
1, 53548, Control_c, 0, 64, 122
1, 53603, Control_c, 0, 64, 117
1, 53613, Note_on_c, 0, 80, 46
1, 53615, Note_on_c, 0, 52, 37
1, 53628, Note_on_c, 0, 68, 34
1, 53640, Control_c, 0, 64, 108
1, 53657, Control_c, 0, 64, 101
1, 53676, Control_c, 0, 64, 92
1, 53695, Control_c, 0, 64, 84
1, 53714, Control_c, 0, 64, 76
1, 53732, Control_c, 0, 64, 69
1, 53750, Control_c, 0, 64, 64
1, 53760, Note_off_c, 0, 68, 35
1, 53760, Note_off_c, 0, 52, 47
1, 53760, Note_off_c, 0, 80, 31
1, 53769, Control_c, 0, 64, 59
1, 53788, Control_c, 0, 64, 56
1, 53804, Control_c, 0, 64, 53
1, 53823, Control_c, 0, 64, 49
1, 53842, Control_c, 0, 64, 44
1, 53861, Control_c, 0, 64, 37
1, 53892, Control_c, 0, 64, 28
1, 53911, Control_c, 0, 64, 18
1, 53949, Control_c, 0, 64, 0
1, 54169, Control_c, 0, 64, 23
1, 54188, Control_c, 0, 64, 37
1, 54207, Control_c, 0, 64, 48
1, 54226, Control_c, 0, 64, 57
1, 54244, Control_c, 0, 64, 61
1, 54263, Control_c, 0, 64, 63
1, 54280, Control_c, 0, 64, 66
1, 54298, Control_c, 0, 64, 68
1, 54317, Control_c, 0, 64, 71
1, 54335, Control_c, 0, 64, 75
1, 54353, Control_c, 0, 64, 80
1, 54372, Control_c, 0, 64, 85
1, 54390, Control_c, 0, 64, 91
1, 54409, Control_c, 0, 64, 97
1, 54427, Control_c, 0, 64, 102
1, 54465, Control_c, 0, 64, 108
1, 54479, Poly_aftertouch_c, 0, 68, 24
1, 54501, Control_c, 0, 64, 116
1, 54520, Control_c, 0, 64, 122
1, 54537, Control_c, 0, 64, 127
1, 54648, Control_c, 0, 67, 71
1, 54667, Control_c, 0, 67, 67
1, 54930, Note_on_c, 0, 40, 32
1, 54939, Control_c, 0, 64, 121
1, 54944, Note_on_c, 0, 47, 43
1, 54955, Note_on_c, 0, 80, 54
1, 54958, Control_c, 0, 64, 106
1, 54970, Note_on_c, 0, 68, 43
1, 54977, Control_c, 0, 64, 81
1, 54995, Control_c, 0, 64, 55
1, 54998, Control_c, 0, 67, 62
1, 55013, Control_c, 0, 64, 35
1, 55032, Control_c, 0, 64, 40
1, 55032, Control_c, 0, 67, 56
1, 55050, Control_c, 0, 64, 55
1, 55052, Control_c, 0, 67, 52
1, 55068, Control_c, 0, 64, 67
1, 55069, Control_c, 0, 67, 48
1, 55080, Note_off_c, 0, 68, 56
1, 55080, Note_off_c, 0, 80, 56
1, 55080, Note_off_c, 0, 47, 62
1, 55080, Note_off_c, 0, 40, 51
1, 55086, Control_c, 0, 64, 77
1, 55087, Control_c, 0, 67, 43
1, 55105, Control_c, 0, 64, 91
1, 55107, Control_c, 0, 67, 39
1, 55121, Control_c, 0, 64, 104
1, 55123, Control_c, 0, 67, 34
1, 55142, Control_c, 0, 64, 115
1, 55144, Control_c, 0, 67, 29
1, 55163, Control_c, 0, 64, 119
1, 55163, Control_c, 0, 67, 24
1, 55179, Control_c, 0, 67, 17
1, 55198, Control_c, 0, 67, 12
1, 55252, Control_c, 0, 64, 124
1, 55371, Note_on_c, 0, 78, 50
1, 55389, Note_on_c, 0, 66, 36
1, 55456, Note_on_c, 0, 44, 46
1, 55491, Note_off_c, 0, 66, 63
1, 55509, Note_off_c, 0, 78, 60
1, 55552, Note_on_c, 0, 52, 44
1, 55560, Note_off_c, 0, 44, 60
1, 55680, Note_off_c, 0, 52, 44
1, 55681, Note_on_c, 0, 59, 52
1, 55703, Note_on_c, 0, 76, 67
1, 55710, Control_c, 0, 64, 119
1, 55716, Note_on_c, 0, 64, 55
1, 55731, Control_c, 0, 64, 96
1, 55763, Control_c, 0, 64, 70
1, 55781, Control_c, 0, 64, 50
1, 55800, Note_off_c, 0, 64, 60
1, 55800, Note_off_c, 0, 76, 58
1, 55800, Note_off_c, 0, 59, 65
1, 55818, Control_c, 0, 64, 58
1, 55837, Control_c, 0, 64, 67
1, 55856, Control_c, 0, 64, 75
1, 55875, Control_c, 0, 64, 85
1, 55894, Control_c, 0, 64, 93
1, 55911, Control_c, 0, 64, 100
1, 55985, Control_c, 0, 64, 104
1, 56083, Note_on_c, 0, 44, 34
1, 56114, Control_c, 0, 64, 108
1, 56160, Note_off_c, 0, 44, 59
1, 56238, Note_on_c, 0, 54, 41
1, 56400, Note_off_c, 0, 54, 41
1, 56429, Note_on_c, 0, 60, 51
1, 56448, Control_c, 0, 64, 95
1, 56464, Control_c, 0, 64, 73
1, 56482, Control_c, 0, 64, 35
1, 56501, Control_c, 0, 64, 0
1, 56520, Note_off_c, 0, 60, 39
1, 56557, Control_c, 0, 64, 41
1, 56559, Control_c, 0, 67, 16
1, 56575, Control_c, 0, 64, 60
1, 56595, Control_c, 0, 64, 70
1, 56611, Control_c, 0, 64, 80
1, 56611, Control_c, 0, 67, 20
1, 56629, Control_c, 0, 64, 93
1, 56650, Control_c, 0, 64, 106
1, 56667, Control_c, 0, 64, 114
1, 56720, Control_c, 0, 67, 24
1, 56772, Control_c, 0, 64, 118
1, 56790, Control_c, 0, 67, 28
1, 56829, Control_c, 0, 67, 33
1, 56830, Note_on_c, 0, 75, 41
1, 56850, Note_on_c, 0, 63, 45
1, 56865, Control_c, 0, 67, 38
1, 56903, Control_c, 0, 67, 43
1, 56930, Note_off_c, 0, 75, 53
1, 56938, Control_c, 0, 67, 49
1, 56976, Control_c, 0, 67, 53
1, 57000, Note_off_c, 0, 63, 33
1, 57011, Control_c, 0, 67, 57
1, 57049, Control_c, 0, 67, 61
1, 57086, Control_c, 0, 67, 66
1, 57105, Control_c, 0, 67, 71
1, 57123, Control_c, 0, 67, 77
1, 57142, Control_c, 0, 67, 81
1, 57179, Control_c, 0, 67, 86
1, 57215, Control_c, 0, 67, 92
1, 57291, Control_c, 0, 67, 96
1, 57328, Note_on_c, 0, 54, 32
1, 57332, Note_on_c, 0, 60, 35
1, 57342, Note_on_c, 0, 49, 34
1, 57343, Control_c, 0, 67, 101
1, 57346, Note_on_c, 0, 75, 58
1, 57366, Note_on_c, 0, 63, 39
1, 57381, Control_c, 0, 64, 112
1, 57399, Control_c, 0, 64, 107
1, 57400, Control_c, 0, 67, 106
1, 57417, Control_c, 0, 64, 98
1, 57436, Control_c, 0, 64, 85
1, 57438, Control_c, 0, 67, 113
1, 57455, Control_c, 0, 64, 71
1, 57474, Control_c, 0, 64, 54
1, 57475, Control_c, 0, 67, 118
1, 57480, Note_off_c, 0, 63, 34
1, 57480, Note_off_c, 0, 75, 40
1, 57480, Note_off_c, 0, 49, 36
1, 57480, Note_off_c, 0, 60, 58
1, 57480, Note_off_c, 0, 54, 27
1, 57491, Control_c, 0, 64, 34
1, 57511, Control_c, 0, 64, 16
1, 57512, Control_c, 0, 67, 124
1, 57530, Control_c, 0, 64, 0
1, 57653, Control_c, 0, 64, 28
1, 57672, Control_c, 0, 64, 46
1, 57691, Control_c, 0, 64, 58
1, 57708, Control_c, 0, 64, 65
1, 57726, Control_c, 0, 64, 70
1, 57744, Control_c, 0, 64, 73
1, 57764, Control_c, 0, 64, 78
1, 57781, Control_c, 0, 64, 83
1, 57800, Control_c, 0, 64, 88
1, 57820, Control_c, 0, 64, 94
1, 57838, Control_c, 0, 64, 99
1, 57857, Control_c, 0, 64, 104
1, 57893, Control_c, 0, 64, 110
1, 57946, Control_c, 0, 64, 115
1, 57984, Control_c, 0, 64, 120
1, 58020, Control_c, 0, 64, 125
1, 58501, Note_on_c, 0, 73, 23
1, 58517, Note_on_c, 0, 61, 26
1, 58517, Control_c, 0, 64, 119
1, 58522, Note_on_c, 0, 52, 28
1, 58537, Control_c, 0, 64, 115
1, 58570, Control_c, 0, 64, 110
1, 58587, Control_c, 0, 64, 103
1, 58607, Control_c, 0, 64, 94
1, 58619, Note_off_c, 0, 73, 21
1, 58625, Control_c, 0, 64, 84
1, 58644, Control_c, 0, 64, 73
1, 58661, Control_c, 0, 64, 62
1, 58679, Control_c, 0, 64, 52
1, 58680, Note_off_c, 0, 52, 34
1, 58680, Note_off_c, 0, 61, 30
1, 58699, Control_c, 0, 64, 50
1, 58736, Control_c, 0, 64, 47
1, 58754, Control_c, 0, 64, 42
1, 58775, Control_c, 0, 64, 33
1, 58791, Control_c, 0, 64, 23
1, 58809, Control_c, 0, 64, 17
1, 58845, Control_c, 0, 64, 0
1, 59615, Control_c, 0, 64, 8
1, 59635, Control_c, 0, 64, 12
1, 59653, Control_c, 0, 64, 16
1, 59670, Control_c, 0, 64, 21
1, 59688, Control_c, 0, 64, 26
1, 59709, Control_c, 0, 64, 34
1, 59726, Control_c, 0, 64, 41
1, 59743, Control_c, 0, 64, 47
1, 59762, Control_c, 0, 64, 50
1, 59781, Control_c, 0, 64, 52
1, 59816, Control_c, 0, 64, 54
1, 59854, Control_c, 0, 64, 56
1, 60038, Control_c, 0, 64, 54
1, 60111, Control_c, 0, 64, 52
1, 60222, Control_c, 0, 64, 50
1, 60276, Control_c, 0, 64, 48
1, 60332, Control_c, 0, 64, 45
1, 60351, Poly_aftertouch_c, 0, 73, 24
1, 60370, Control_c, 0, 64, 43
1, 60439, Control_c, 0, 64, 40
1, 60532, Control_c, 0, 64, 34
1, 60569, Control_c, 0, 64, 29
1, 60624, Control_c, 0, 64, 24
1, 60643, Control_c, 0, 64, 18
1, 60648, Poly_aftertouch_c, 0, 61, 24
1, 60650, Poly_aftertouch_c, 0, 52, 24
1, 60716, Control_c, 0, 64, 11
1, 60718, Poly_aftertouch_c, 0, 49, 24
1, 60735, Control_c, 0, 64, 0
1, 61440, End_track
0, 0, End_of_file
