0, 0, Header, 1, 7, 192
1, 0, Start_track
1, 0, Title_t, "66153A"
1, 0, Copyright_t, "May NOT be used for commercial purposes."
1, 0, Text_t, "Roll expression/accent tracks, where present, converted to MIDI velocties.\012"
1, 0, Time_signature, 4, 2, 24, 8
1, 0, Key_signature, 0, "major"
1, 0, Tempo, 500000
1, 0, Marker_t, "Standard MIDI:LPI 115:Tempo  110: 08-23-2003"
1, 0, End_track
2, 0, Start_track
2, 0, Title_t, "Brahms Waltes Op 39 No 1  2  14  16  13"
2, 167, Note_on_c, 0, 66, 69
2, 168, Note_on_c, 0, 78, 68
2, 210, Note_on_c, 0, 78, 0
2, 210, Note_on_c, 0, 66, 0
2, 228, Note_on_c, 0, 71, 66
2, 228, Note_on_c, 0, 83, 70
2, 248, Note_on_c, 0, 71, 0
2, 250, Note_on_c, 0, 83, 0
2, 288, Note_on_c, 0, 73, 70
2, 288, Note_on_c, 0, 85, 69
2, 315, Note_on_c, 0, 85, 0
2, 315, Note_on_c, 0, 73, 0
2, 352, Control_c, 0, 64, 127
2, 358, Note_on_c, 0, 23, 82
2, 358, Note_on_c, 0, 35, 82
2, 360, Note_on_c, 0, 75, 78
2, 360, Note_on_c, 0, 87, 83
2, 510, Control_c, 0, 64, 0
2, 512, Note_on_c, 0, 35, 0
2, 512, Note_on_c, 0, 23, 0
2, 564, Note_on_c, 0, 54, 66
2, 564, Note_on_c, 0, 59, 61
2, 564, Note_on_c, 0, 63, 63
2, 564, Note_on_c, 0, 66, 71
2, 566, Note_on_c, 0, 78, 65
2, 581, Note_on_c, 0, 75, 0
2, 581, Note_on_c, 0, 87, 0
2, 618, Note_on_c, 0, 54, 0
2, 618, Note_on_c, 0, 63, 0
2, 618, Note_on_c, 0, 59, 0
2, 618, Note_on_c, 0, 78, 0
2, 618, Note_on_c, 0, 66, 0
2, 767, Note_on_c, 0, 35, 68
2, 768, Note_on_c, 0, 47, 68
2, 768, Note_on_c, 0, 75, 72
2, 768, Note_on_c, 0, 87, 75
2, 873, Note_on_c, 0, 47, 0
2, 873, Note_on_c, 0, 35, 0
2, 910, Note_on_c, 0, 75, 0
2, 910, Note_on_c, 0, 87, 0
2, 920, Note_on_c, 0, 35, 76
2, 922, Note_on_c, 0, 47, 79
2, 922, Note_on_c, 0, 73, 75
2, 924, Note_on_c, 0, 76, 82
2, 924, Note_on_c, 0, 80, 80
2, 924, Note_on_c, 0, 85, 75
2, 933, Control_c, 0, 64, 127
2, 1001, Note_on_c, 0, 80, 0
2, 1042, Control_c, 0, 64, 0
2, 1062, Note_on_c, 0, 47, 0
2, 1062, Note_on_c, 0, 35, 0
2, 1067, Note_on_c, 0, 52, 59
2, 1067, Note_on_c, 0, 56, 55
2, 1067, Note_on_c, 0, 64, 53
2, 1069, Note_on_c, 0, 76, 0
2, 1069, Note_on_c, 0, 73, 0
2, 1071, Note_on_c, 0, 85, 0
2, 1076, Note_on_c, 0, 61, 60
2, 1076, Note_on_c, 0, 68, 72
2, 1076, Note_on_c, 0, 80, 68
2, 1100, Note_on_c, 0, 68, 0
2, 1100, Note_on_c, 0, 61, 0
2, 1100, Note_on_c, 0, 52, 0
2, 1100, Note_on_c, 0, 56, 0
2, 1100, Note_on_c, 0, 64, 0
2, 1121, Note_on_c, 0, 80, 0
2, 1236, Note_on_c, 0, 35, 68
2, 1238, Note_on_c, 0, 47, 65
2, 1238, Note_on_c, 0, 73, 68
2, 1238, Note_on_c, 0, 85, 64
2, 1258, Note_on_c, 0, 73, 0
2, 1258, Note_on_c, 0, 35, 0
2, 1258, Note_on_c, 0, 47, 0
2, 1260, Note_on_c, 0, 85, 0
2, 1323, Note_on_c, 0, 35, 62
2, 1396, Control_c, 0, 64, 127
2, 1396, Note_on_c, 0, 71, 67
2, 1398, Note_on_c, 0, 78, 71
2, 1398, Note_on_c, 0, 83, 68
2, 1407, Note_on_c, 0, 47, 67
2, 1499, Note_on_c, 0, 83, 0
2, 1499, Note_on_c, 0, 78, 0
2, 1499, Note_on_c, 0, 71, 0
2, 1504, Note_on_c, 0, 70, 62
2, 1504, Note_on_c, 0, 82, 59
2, 1530, Control_c, 0, 64, 0
2, 1557, Note_on_c, 0, 35, 0
2, 1569, Note_on_c, 0, 47, 0
2, 1569, Note_on_c, 0, 70, 0
2, 1571, Note_on_c, 0, 82, 0
2, 1574, Note_on_c, 0, 54, 53
2, 1576, Note_on_c, 0, 61, 57
2, 1576, Note_on_c, 0, 64, 60
2, 1576, Note_on_c, 0, 68, 62
2, 1576, Note_on_c, 0, 80, 64
2, 1596, Note_on_c, 0, 61, 0
2, 1602, Note_on_c, 0, 54, 0
2, 1604, Note_on_c, 0, 64, 0
2, 1628, Note_on_c, 0, 68, 0
2, 1630, Note_on_c, 0, 80, 0
2, 1634, Note_on_c, 0, 66, 61
2, 1636, Note_on_c, 0, 78, 59
2, 1688, Note_on_c, 0, 66, 0
2, 1690, Note_on_c, 0, 78, 0
2, 1693, Note_on_c, 0, 68, 65
2, 1695, Note_on_c, 0, 80, 68
2, 1700, Note_on_c, 0, 35, 61
2, 1702, Note_on_c, 0, 47, 62
2, 1704, Control_c, 0, 64, 127
2, 1735, Note_on_c, 0, 35, 0
2, 1748, Note_on_c, 0, 68, 0
2, 1750, Note_on_c, 0, 80, 0
2, 1754, Note_on_c, 0, 70, 70
2, 1754, Note_on_c, 0, 82, 69
2, 1767, Control_c, 0, 64, 0
2, 1775, Note_on_c, 0, 47, 0
2, 1777, Note_on_c, 0, 35, 66
2, 1823, Note_on_c, 0, 82, 0
2, 1823, Note_on_c, 0, 70, 0
2, 1827, Note_on_c, 0, 47, 69
2, 1827, Note_on_c, 0, 73, 72
2, 1829, Note_on_c, 0, 85, 78
2, 1884, Control_c, 0, 64, 127
2, 1951, Note_on_c, 0, 73, 0
2, 1962, Note_on_c, 0, 35, 0
2, 1962, Control_c, 0, 64, 0
2, 1969, Note_on_c, 0, 47, 0
2, 1971, Note_on_c, 0, 85, 0
2, 1974, Note_on_c, 0, 54, 47
2, 1974, Note_on_c, 0, 59, 48
2, 1974, Note_on_c, 0, 63, 47
2, 1974, Note_on_c, 0, 71, 65
2, 1974, Note_on_c, 0, 83, 67
2, 2001, Note_on_c, 0, 63, 0
2, 2007, Note_on_c, 0, 54, 0
2, 2009, Note_on_c, 0, 59, 0
2, 2027, Note_on_c, 0, 71, 0
2, 2029, Note_on_c, 0, 83, 0
2, 2079, Note_on_c, 0, 39, 53
2, 2112, Control_c, 0, 64, 127
2, 2164, Note_on_c, 0, 51, 66
2, 2164, Note_on_c, 0, 70, 67
2, 2166, Note_on_c, 0, 75, 71
2, 2166, Note_on_c, 0, 78, 69
2, 2166, Note_on_c, 0, 82, 68
2, 2197, Control_c, 0, 64, 0
2, 2326, Note_on_c, 0, 70, 0
2, 2326, Note_on_c, 0, 39, 0
2, 2326, Note_on_c, 0, 51, 0
2, 2328, Note_on_c, 0, 75, 0
2, 2328, Note_on_c, 0, 78, 0
2, 2328, Note_on_c, 0, 82, 0
2, 2330, Note_on_c, 0, 32, 69
2, 2332, Note_on_c, 0, 44, 69
2, 2332, Note_on_c, 0, 68, 75
2, 2334, Note_on_c, 0, 80, 73
2, 2363, Control_c, 0, 64, 127
2, 2480, Note_on_c, 0, 32, 0
2, 2480, Control_c, 0, 64, 0
2, 2482, Note_on_c, 0, 44, 0
2, 2482, Note_on_c, 0, 68, 0
2, 2482, Note_on_c, 0, 80, 0
2, 2487, Note_on_c, 0, 51, 66
2, 2487, Note_on_c, 0, 56, 59
2, 2489, Note_on_c, 0, 59, 62
2, 2489, Note_on_c, 0, 71, 61
2, 2489, Note_on_c, 0, 75, 65
2, 2515, Note_on_c, 0, 71, 0
2, 2522, Note_on_c, 0, 75, 0
2, 2527, Note_on_c, 0, 51, 0
2, 2527, Note_on_c, 0, 56, 0
2, 2527, Note_on_c, 0, 59, 0
2, 2638, Note_on_c, 0, 32, 68
2, 2638, Note_on_c, 0, 44, 70
2, 2640, Note_on_c, 0, 68, 74
2, 2640, Note_on_c, 0, 80, 70
2, 2671, Note_on_c, 0, 68, 0
2, 2673, Note_on_c, 0, 80, 0
2, 2689, Note_on_c, 0, 44, 0
2, 2689, Note_on_c, 0, 32, 0
2, 2732, Note_on_c, 0, 34, 64
2, 2789, Control_c, 0, 64, 127
2, 2789, Note_on_c, 0, 66, 78
2, 2791, Note_on_c, 0, 78, 76
2, 2796, Note_on_c, 0, 46, 81
2, 2796, Note_on_c, 0, 75, 79
2, 2864, Note_on_c, 0, 34, 0
2, 2903, Note_on_c, 0, 46, 0
2, 2927, Control_c, 0, 64, 0
2, 2940, Note_on_c, 0, 66, 0
2, 2940, Note_on_c, 0, 78, 0
2, 2940, Note_on_c, 0, 75, 0
2, 2945, Note_on_c, 0, 51, 64
2, 2945, Note_on_c, 0, 54, 62
2, 2945, Note_on_c, 0, 58, 66
2, 2945, Note_on_c, 0, 70, 65
2, 2997, Note_on_c, 0, 70, 0
2, 2997, Note_on_c, 0, 51, 0
2, 2997, Note_on_c, 0, 54, 0
2, 2997, Note_on_c, 0, 58, 0
2, 3089, Note_on_c, 0, 34, 68
2, 3089, Note_on_c, 0, 46, 66
2, 3089, Note_on_c, 0, 66, 72
2, 3091, Note_on_c, 0, 78, 66
2, 3109, Note_on_c, 0, 34, 0
2, 3111, Note_on_c, 0, 46, 0
2, 3111, Note_on_c, 0, 66, 0
2, 3117, Note_on_c, 0, 78, 0
2, 3169, Note_on_c, 0, 32, 57
2, 3237, Control_c, 0, 64, 127
2, 3261, Note_on_c, 0, 44, 62
2, 3261, Note_on_c, 0, 65, 65
2, 3261, Note_on_c, 0, 77, 65
2, 3357, Note_on_c, 0, 77, 0
2, 3357, Note_on_c, 0, 65, 0
2, 3361, Note_on_c, 0, 63, 61
2, 3363, Note_on_c, 0, 75, 56
2, 3415, Note_on_c, 0, 32, 0
2, 3420, Note_on_c, 0, 44, 0
2, 3420, Note_on_c, 0, 63, 0
2, 3422, Note_on_c, 0, 75, 0
2, 3427, Note_on_c, 0, 50, 58
2, 3427, Note_on_c, 0, 53, 59
2, 3427, Note_on_c, 0, 58, 61
2, 3427, Note_on_c, 0, 62, 59
2, 3429, Note_on_c, 0, 74, 58
2, 3452, Control_c, 0, 64, 0
2, 3479, Note_on_c, 0, 74, 0
2, 3479, Note_on_c, 0, 62, 0
2, 3484, Note_on_c, 0, 63, 59
2, 3484, Note_on_c, 0, 75, 64
2, 3536, Note_on_c, 0, 63, 0
2, 3536, Note_on_c, 0, 58, 0
2, 3536, Note_on_c, 0, 50, 0
2, 3538, Note_on_c, 0, 53, 0
2, 3540, Note_on_c, 0, 75, 0
2, 3542, Note_on_c, 0, 32, 55
2, 3542, Note_on_c, 0, 44, 58
2, 3542, Note_on_c, 0, 65, 61
2, 3544, Note_on_c, 0, 77, 64
2, 3564, Note_on_c, 0, 32, 0
2, 3566, Note_on_c, 0, 44, 0
2, 3592, Note_on_c, 0, 65, 0
2, 3592, Note_on_c, 0, 77, 0
2, 3598, Note_on_c, 0, 66, 65
2, 3598, Note_on_c, 0, 78, 65
2, 3616, Note_on_c, 0, 30, 58
2, 3657, Note_on_c, 0, 78, 0
2, 3660, Control_c, 0, 64, 127
2, 3660, Note_on_c, 0, 42, 55
2, 3662, Note_on_c, 0, 65, 72
2, 3662, Note_on_c, 0, 77, 67
2, 3675, Note_on_c, 0, 66, 0
2, 3712, Note_on_c, 0, 65, 0
2, 3712, Note_on_c, 0, 77, 0
2, 3717, Note_on_c, 0, 63, 60
2, 3719, Note_on_c, 0, 75, 63
2, 3743, Control_c, 0, 64, 0
2, 3756, Note_on_c, 0, 30, 0
2, 3762, Note_on_c, 0, 42, 0
2, 3762, Note_on_c, 0, 63, 0
2, 3764, Note_on_c, 0, 75, 0
2, 3768, Note_on_c, 0, 51, 60
2, 3768, Note_on_c, 0, 54, 65
2, 3768, Note_on_c, 0, 58, 64
2, 3768, Note_on_c, 0, 62, 64
2, 3770, Note_on_c, 0, 74, 61
2, 3822, Note_on_c, 0, 62, 0
2, 3822, Note_on_c, 0, 54, 0
2, 3824, Note_on_c, 0, 74, 0
2, 3829, Note_on_c, 0, 63, 64
2, 3831, Note_on_c, 0, 75, 68
2, 3855, Note_on_c, 0, 58, 0
2, 3855, Note_on_c, 0, 51, 0
2, 3881, Note_on_c, 0, 77, 72
2, 3883, Note_on_c, 0, 75, 0
2, 3888, Note_on_c, 0, 65, 67
2, 3889, Note_on_c, 0, 63, 0
2, 3894, Note_on_c, 0, 27, 64
2, 3894, Note_on_c, 0, 39, 63
2, 3914, Note_on_c, 0, 39, 0
2, 3914, Note_on_c, 0, 27, 0
2, 3941, Note_on_c, 0, 65, 0
2, 3941, Note_on_c, 0, 66, 71
2, 3941, Note_on_c, 0, 78, 73
2, 3943, Note_on_c, 0, 77, 0
2, 3959, Note_on_c, 0, 23, 64
2, 3983, Note_on_c, 0, 66, 0
2, 4009, Note_on_c, 0, 78, 0
2, 4048, Note_on_c, 0, 35, 74
2, 4056, Note_on_c, 0, 75, 85
2, 4056, Note_on_c, 0, 87, 82
2, 4066, Control_c, 0, 64, 127
2, 4108, Note_on_c, 0, 87, 0
2, 4108, Note_on_c, 0, 75, 0
2, 4117, Note_on_c, 0, 23, 0
2, 4125, Note_on_c, 0, 35, 0
2, 4200, Control_c, 0, 64, 0
2, 4248, Note_on_c, 0, 54, 60
2, 4248, Note_on_c, 0, 63, 57
2, 4249, Note_on_c, 0, 59, 56
2, 4249, Note_on_c, 0, 66, 72
2, 4249, Note_on_c, 0, 78, 66
2, 4270, Note_on_c, 0, 66, 0
2, 4277, Note_on_c, 0, 78, 0
2, 4280, Note_on_c, 0, 54, 0
2, 4282, Note_on_c, 0, 59, 0
2, 4282, Note_on_c, 0, 63, 0
2, 4420, Note_on_c, 0, 35, 71
2, 4420, Note_on_c, 0, 47, 74
2, 4420, Note_on_c, 0, 87, 71
2, 4422, Note_on_c, 0, 75, 74
2, 4440, Note_on_c, 0, 35, 0
2, 4442, Note_on_c, 0, 47, 0
2, 4442, Note_on_c, 0, 75, 0
2, 4450, Note_on_c, 0, 87, 0
2, 4510, Note_on_c, 0, 35, 67
2, 4565, Control_c, 0, 64, 127
2, 4571, Note_on_c, 0, 47, 78
2, 4573, Note_on_c, 0, 73, 76
2, 4573, Note_on_c, 0, 76, 74
2, 4573, Note_on_c, 0, 80, 74
2, 4573, Note_on_c, 0, 85, 75
2, 4658, Note_on_c, 0, 35, 0
2, 4660, Note_on_c, 0, 80, 0
2, 4660, Note_on_c, 0, 47, 0
2, 4687, Control_c, 0, 64, 0
2, 4721, Note_on_c, 0, 76, 0
2, 4721, Note_on_c, 0, 85, 0
2, 4721, Note_on_c, 0, 73, 0
2, 4726, Note_on_c, 0, 52, 66
2, 4726, Note_on_c, 0, 56, 65
2, 4728, Note_on_c, 0, 61, 64
2, 4728, Note_on_c, 0, 64, 66
2, 4728, Note_on_c, 0, 68, 72
2, 4728, Note_on_c, 0, 80, 68
2, 4752, Note_on_c, 0, 56, 0
2, 4753, Note_on_c, 0, 64, 0
2, 4759, Note_on_c, 0, 52, 0
2, 4759, Note_on_c, 0, 61, 0
2, 4765, Note_on_c, 0, 68, 0
2, 4767, Note_on_c, 0, 80, 0
2, 4841, Control_c, 0, 64, 127
2, 4880, Note_on_c, 0, 35, 60
2, 4880, Note_on_c, 0, 47, 60
2, 4880, Note_on_c, 0, 73, 69
2, 4880, Note_on_c, 0, 85, 68
2, 4896, Control_c, 0, 64, 0
2, 4898, Note_on_c, 0, 47, 0
2, 4898, Note_on_c, 0, 35, 0
2, 4900, Note_on_c, 0, 73, 0
2, 4908, Note_on_c, 0, 85, 0
2, 4963, Note_on_c, 0, 35, 62
2, 5041, Note_on_c, 0, 47, 66
2, 5043, Note_on_c, 0, 71, 72
2, 5043, Note_on_c, 0, 78, 67
2, 5043, Note_on_c, 0, 83, 67
2, 5049, Control_c, 0, 64, 127
2, 5133, Note_on_c, 0, 83, 0
2, 5133, Note_on_c, 0, 71, 0
2, 5133, Note_on_c, 0, 78, 0
2, 5137, Note_on_c, 0, 70, 54
2, 5139, Note_on_c, 0, 82, 60
2, 5160, Note_on_c, 0, 70, 0
2, 5161, Note_on_c, 0, 82, 0
2, 5177, Control_c, 0, 64, 0
2, 5184, Note_on_c, 0, 35, 0
2, 5213, Note_on_c, 0, 47, 0
2, 5218, Note_on_c, 0, 54, 57
2, 5226, Note_on_c, 0, 61, 60
2, 5226, Note_on_c, 0, 64, 57
2, 5226, Note_on_c, 0, 68, 61
2, 5226, Note_on_c, 0, 80, 65
2, 5238, Note_on_c, 0, 54, 0
2, 5246, Note_on_c, 0, 68, 0
2, 5246, Note_on_c, 0, 61, 0
2, 5246, Note_on_c, 0, 64, 0
2, 5246, Note_on_c, 0, 80, 0
2, 5291, Note_on_c, 0, 66, 64
2, 5291, Note_on_c, 0, 78, 65
2, 5311, Note_on_c, 0, 66, 0
2, 5313, Note_on_c, 0, 78, 0
2, 5355, Note_on_c, 0, 35, 56
2, 5355, Note_on_c, 0, 47, 59
2, 5355, Note_on_c, 0, 68, 64
2, 5355, Note_on_c, 0, 80, 62
2, 5371, Note_on_c, 0, 35, 0
2, 5376, Note_on_c, 0, 80, 0
2, 5376, Note_on_c, 0, 68, 0
2, 5389, Note_on_c, 0, 47, 0
2, 5407, Note_on_c, 0, 70, 61
2, 5407, Note_on_c, 0, 82, 65
2, 5413, Note_on_c, 0, 35, 54
2, 5426, Note_on_c, 0, 82, 0
2, 5426, Note_on_c, 0, 70, 0
2, 5472, Note_on_c, 0, 47, 73
2, 5472, Note_on_c, 0, 73, 79
2, 5472, Note_on_c, 0, 85, 72
2, 5511, Control_c, 0, 64, 127
2, 5584, Note_on_c, 0, 35, 0
2, 5584, Control_c, 0, 64, 0
2, 5610, Note_on_c, 0, 47, 0
2, 5610, Note_on_c, 0, 73, 0
2, 5610, Note_on_c, 0, 85, 0
2, 5613, Note_on_c, 0, 54, 51
2, 5615, Note_on_c, 0, 59, 48
2, 5615, Note_on_c, 0, 63, 53
2, 5615, Note_on_c, 0, 71, 59
2, 5615, Note_on_c, 0, 83, 62
2, 5640, Note_on_c, 0, 71, 0
2, 5653, Note_on_c, 0, 63, 0
2, 5653, Note_on_c, 0, 54, 0
2, 5655, Note_on_c, 0, 59, 0
2, 5655, Note_on_c, 0, 83, 0
2, 5790, Control_c, 0, 64, 127
2, 5798, Note_on_c, 0, 39, 74
2, 5798, Note_on_c, 0, 51, 76
2, 5800, Note_on_c, 0, 70, 67
2, 5800, Note_on_c, 0, 75, 66
2, 5800, Note_on_c, 0, 78, 73
2, 5800, Note_on_c, 0, 82, 66
2, 5874, Control_c, 0, 64, 0
2, 5973, Note_on_c, 0, 78, 0
2, 5973, Note_on_c, 0, 70, 0
2, 5973, Note_on_c, 0, 39, 0
2, 5973, Note_on_c, 0, 51, 0
2, 5975, Note_on_c, 0, 75, 0
2, 5975, Note_on_c, 0, 82, 0
2, 5977, Note_on_c, 0, 32, 74
2, 5979, Note_on_c, 0, 44, 77
2, 5979, Note_on_c, 0, 68, 77
2, 5979, Note_on_c, 0, 80, 74
2, 6035, Control_c, 0, 64, 127
2, 6096, Note_on_c, 0, 44, 0
2, 6096, Note_on_c, 0, 32, 0
2, 6098, Control_c, 0, 64, 0
2, 6115, Note_on_c, 0, 68, 0
2, 6115, Note_on_c, 0, 80, 0
2, 6120, Note_on_c, 0, 51, 63
2, 6120, Note_on_c, 0, 56, 59
2, 6120, Note_on_c, 0, 59, 60
2, 6120, Note_on_c, 0, 71, 70
2, 6120, Note_on_c, 0, 75, 69
2, 6144, Note_on_c, 0, 59, 0
2, 6144, Note_on_c, 0, 56, 0
2, 6146, Note_on_c, 0, 71, 0
2, 6152, Note_on_c, 0, 51, 0
2, 6166, Note_on_c, 0, 75, 0
2, 6273, Note_on_c, 0, 32, 67
2, 6273, Note_on_c, 0, 44, 71
2, 6273, Note_on_c, 0, 68, 72
2, 6273, Note_on_c, 0, 80, 71
2, 6294, Note_on_c, 0, 68, 0
2, 6302, Note_on_c, 0, 80, 0
2, 6336, Note_on_c, 0, 44, 0
2, 6336, Note_on_c, 0, 32, 0
2, 6355, Note_on_c, 0, 34, 63
2, 6407, Control_c, 0, 64, 127
2, 6425, Note_on_c, 0, 46, 73
2, 6425, Note_on_c, 0, 66, 79
2, 6427, Note_on_c, 0, 75, 78
2, 6427, Note_on_c, 0, 78, 76
2, 6487, Note_on_c, 0, 34, 0
2, 6518, Control_c, 0, 64, 0
2, 6544, Note_on_c, 0, 46, 0
2, 6552, Note_on_c, 0, 75, 0
2, 6552, Note_on_c, 0, 66, 0
2, 6552, Note_on_c, 0, 78, 0
2, 6562, Note_on_c, 0, 54, 65
2, 6562, Note_on_c, 0, 58, 65
2, 6564, Note_on_c, 0, 51, 61
2, 6564, Note_on_c, 0, 70, 68
2, 6590, Note_on_c, 0, 51, 0
2, 6590, Note_on_c, 0, 54, 0
2, 6596, Note_on_c, 0, 58, 0
2, 6598, Note_on_c, 0, 70, 0
2, 6705, Note_on_c, 0, 34, 60
2, 6705, Note_on_c, 0, 66, 67
2, 6705, Note_on_c, 0, 78, 69
2, 6707, Note_on_c, 0, 46, 61
2, 6727, Note_on_c, 0, 66, 0
2, 6733, Note_on_c, 0, 78, 0
2, 6859, Note_on_c, 0, 34, 0
2, 6859, Note_on_c, 0, 46, 0
2, 6864, Note_on_c, 0, 32, 70
2, 6865, Note_on_c, 0, 44, 67
2, 6865, Note_on_c, 0, 65, 79
2, 6865, Note_on_c, 0, 77, 79
2, 6910, Control_c, 0, 64, 127
2, 6960, Note_on_c, 0, 77, 0
2, 6960, Note_on_c, 0, 65, 0
2, 6964, Note_on_c, 0, 63, 58
2, 6966, Note_on_c, 0, 75, 67
2, 7018, Note_on_c, 0, 63, 0
2, 7018, Note_on_c, 0, 32, 0
2, 7018, Note_on_c, 0, 44, 0
2, 7020, Note_on_c, 0, 75, 0
2, 7023, Note_on_c, 0, 50, 62
2, 7023, Note_on_c, 0, 58, 64
2, 7025, Note_on_c, 0, 53, 67
2, 7025, Note_on_c, 0, 62, 62
2, 7027, Note_on_c, 0, 74, 62
2, 7057, Control_c, 0, 64, 0
2, 7084, Note_on_c, 0, 62, 0
2, 7084, Note_on_c, 0, 53, 0
2, 7084, Note_on_c, 0, 50, 0
2, 7084, Note_on_c, 0, 58, 0
2, 7086, Note_on_c, 0, 74, 0
2, 7091, Note_on_c, 0, 63, 68
2, 7093, Note_on_c, 0, 75, 64
2, 7149, Note_on_c, 0, 44, 66
2, 7156, Note_on_c, 0, 32, 66
2, 7158, Note_on_c, 0, 63, 0
2, 7158, Note_on_c, 0, 77, 66
2, 7163, Note_on_c, 0, 65, 68
2, 7172, Note_on_c, 0, 75, 0
2, 7216, Note_on_c, 0, 65, 0
2, 7218, Note_on_c, 0, 77, 0
2, 7223, Note_on_c, 0, 66, 67
2, 7223, Note_on_c, 0, 78, 66
2, 7228, Note_on_c, 0, 32, 0
2, 7230, Note_on_c, 0, 44, 0
2, 7233, Note_on_c, 0, 30, 67
2, 7256, Note_on_c, 0, 66, 0
2, 7256, Note_on_c, 0, 78, 0
2, 7295, Note_on_c, 0, 65, 69
2, 7295, Note_on_c, 0, 77, 72
2, 7296, Note_on_c, 0, 30, 0
2, 7301, Note_on_c, 0, 42, 69
2, 7318, Note_on_c, 0, 77, 0
2, 7318, Note_on_c, 0, 65, 0
2, 7328, Note_on_c, 0, 42, 0
2, 7368, Note_on_c, 0, 63, 68
2, 7369, Note_on_c, 0, 75, 67
2, 7393, Note_on_c, 0, 75, 0
2, 7393, Note_on_c, 0, 63, 0
2, 7433, Note_on_c, 0, 58, 56
2, 7433, Note_on_c, 0, 62, 58
2, 7433, Note_on_c, 0, 74, 66
2, 7436, Note_on_c, 0, 54, 60
2, 7438, Note_on_c, 0, 51, 54
2, 7453, Note_on_c, 0, 74, 0
2, 7495, Note_on_c, 0, 54, 0
2, 7495, Note_on_c, 0, 51, 0
2, 7495, Note_on_c, 0, 62, 0
2, 7501, Note_on_c, 0, 63, 58
2, 7501, Note_on_c, 0, 75, 56
2, 7503, Note_on_c, 0, 58, 0
2, 7521, Note_on_c, 0, 63, 0
2, 7523, Note_on_c, 0, 75, 0
2, 7567, Note_on_c, 0, 27, 57
2, 7567, Note_on_c, 0, 77, 51
2, 7573, Note_on_c, 0, 39, 57
2, 7575, Note_on_c, 0, 65, 47
2, 7601, Note_on_c, 0, 77, 0
2, 7607, Note_on_c, 0, 65, 0
2, 7637, Note_on_c, 0, 66, 47
2, 7637, Note_on_c, 0, 78, 48
2, 7657, Note_on_c, 0, 66, 0
2, 7671, Note_on_c, 0, 78, 0
2, 7689, Note_on_c, 0, 39, 0
2, 7689, Note_on_c, 0, 27, 0
2, 7707, Note_on_c, 0, 66, 65
2, 7778, Control_c, 0, 64, 127
2, 7780, Note_on_c, 0, 76, 50
2, 7786, Note_on_c, 0, 42, 47
2, 7788, Control_c, 0, 67, 127
2, 7862, Control_c, 0, 64, 0
2, 7888, Note_on_c, 0, 42, 0
2, 7888, Note_on_c, 0, 76, 0
2, 7894, Note_on_c, 0, 75, 51
2, 7927, Note_on_c, 0, 75, 0
2, 7976, Note_on_c, 0, 73, 49
2, 7982, Note_on_c, 0, 54, 48
2, 7982, Note_on_c, 0, 58, 47
2, 8002, Note_on_c, 0, 58, 0
2, 8002, Note_on_c, 0, 54, 0
2, 8004, Note_on_c, 0, 73, 0
2, 8056, Note_on_c, 0, 75, 49
2, 8082, Note_on_c, 0, 75, 0
2, 8126, Note_on_c, 0, 44, 49
2, 8126, Note_on_c, 0, 76, 54
2, 8152, Note_on_c, 0, 76, 0
2, 8152, Note_on_c, 0, 44, 0
2, 8184, Note_on_c, 0, 78, 53
2, 8197, Note_on_c, 0, 66, 0
2, 8228, Control_c, 0, 64, 127
2, 8236, Note_on_c, 0, 78, 0
2, 8245, Note_on_c, 0, 54, 65
2, 8245, Note_on_c, 0, 59, 62
2, 8245, Note_on_c, 0, 66, 60
2, 8247, Note_on_c, 0, 76, 63
2, 8283, Control_c, 0, 64, 0
2, 8302, Note_on_c, 0, 54, 0
2, 8304, Note_on_c, 0, 59, 0
2, 8305, Note_on_c, 0, 76, 0
2, 8310, Note_on_c, 0, 75, 53
2, 8360, Note_on_c, 0, 75, 0
2, 8363, Note_on_c, 0, 46, 54
2, 8365, Note_on_c, 0, 73, 53
2, 8385, Note_on_c, 0, 46, 0
2, 8405, Note_on_c, 0, 73, 0
2, 8418, Note_on_c, 0, 75, 55
2, 8420, Control_c, 0, 67, 0
2, 8458, Note_on_c, 0, 75, 0
2, 8467, Note_on_c, 0, 54, 53
2, 8467, Note_on_c, 0, 61, 47
2, 8469, Note_on_c, 0, 76, 53
2, 8500, Note_on_c, 0, 61, 0
2, 8500, Note_on_c, 0, 54, 0
2, 8514, Note_on_c, 0, 76, 0
2, 8520, Note_on_c, 0, 78, 57
2, 8569, Note_on_c, 0, 78, 0
2, 8574, Control_c, 0, 64, 127
2, 8574, Note_on_c, 0, 47, 62
2, 8576, Note_on_c, 0, 76, 61
2, 8620, Note_on_c, 0, 76, 0
2, 8626, Note_on_c, 0, 75, 62
2, 8631, Control_c, 0, 64, 0
2, 8672, Note_on_c, 0, 75, 0
2, 8672, Note_on_c, 0, 47, 0
2, 8677, Note_on_c, 0, 56, 57
2, 8677, Note_on_c, 0, 64, 58
2, 8679, Note_on_c, 0, 73, 65
2, 8705, Note_on_c, 0, 64, 0
2, 8705, Note_on_c, 0, 56, 0
2, 8726, Note_on_c, 0, 73, 0
2, 8732, Note_on_c, 0, 75, 65
2, 8771, Note_on_c, 0, 75, 0
2, 8776, Note_on_c, 0, 76, 62
2, 8781, Note_on_c, 0, 46, 61
2, 8802, Note_on_c, 0, 46, 0
2, 8815, Note_on_c, 0, 76, 0
2, 8828, Note_on_c, 0, 80, 68
2, 8843, Note_on_c, 0, 80, 0
2, 8874, Note_on_c, 0, 66, 0
2, 8887, Note_on_c, 0, 80, 50
2, 8926, Note_on_c, 0, 54, 44
2, 8926, Note_on_c, 0, 64, 50
2, 8939, Note_on_c, 0, 73, 63
2, 8939, Note_on_c, 0, 85, 63
2, 8941, Note_on_c, 0, 80, 0
2, 8997, Control_c, 0, 64, 127
2, 9112, Control_c, 0, 67, 127
2, 9120, Note_on_c, 0, 54, 0
2, 9120, Note_on_c, 0, 64, 0
2, 9125, Note_on_c, 0, 42, 47
2, 9282, Note_on_c, 0, 42, 0
2, 9282, Note_on_c, 0, 73, 0
2, 9282, Note_on_c, 0, 85, 0
2, 9285, Note_on_c, 0, 54, 48
2, 9287, Control_c, 0, 64, 0
2, 9287, Note_on_c, 0, 58, 42
2, 9287, Note_on_c, 0, 61, 43
2, 9287, Note_on_c, 0, 78, 63
2, 9396, Note_on_c, 0, 61, 0
2, 9396, Note_on_c, 0, 54, 0
2, 9396, Note_on_c, 0, 58, 0
2, 9402, Note_on_c, 0, 71, 64
2, 9465, Note_on_c, 0, 47, 48
2, 9473, Note_on_c, 0, 78, 0
2, 9479, Note_on_c, 0, 81, 58
2, 9483, Control_c, 0, 64, 127
2, 9504, Note_on_c, 0, 47, 0
2, 9547, Control_c, 0, 64, 0
2, 9568, Note_on_c, 0, 81, 0
2, 9574, Note_on_c, 0, 80, 56
2, 9625, Note_on_c, 0, 80, 0
2, 9630, Note_on_c, 0, 63, 50
2, 9632, Note_on_c, 0, 59, 54
2, 9632, Note_on_c, 0, 78, 65
2, 9650, Note_on_c, 0, 59, 0
2, 9650, Note_on_c, 0, 63, 0
2, 9692, Note_on_c, 0, 78, 0
2, 9697, Note_on_c, 0, 80, 64
2, 9747, Note_on_c, 0, 80, 0
2, 9752, Note_on_c, 0, 49, 53
2, 9752, Note_on_c, 0, 81, 67
2, 9770, Control_c, 0, 64, 127
2, 9797, Note_on_c, 0, 81, 0
2, 9802, Note_on_c, 0, 83, 59
2, 9816, Control_c, 0, 64, 0
2, 9849, Note_on_c, 0, 83, 0
2, 9855, Note_on_c, 0, 49, 0
2, 9861, Note_on_c, 0, 59, 61
2, 9861, Note_on_c, 0, 64, 62
2, 9861, Note_on_c, 0, 81, 64
2, 9887, Note_on_c, 0, 64, 0
2, 9887, Note_on_c, 0, 59, 0
2, 9913, Note_on_c, 0, 81, 0
2, 9918, Note_on_c, 0, 80, 60
2, 9939, Control_c, 0, 67, 0
2, 9963, Note_on_c, 0, 80, 0
2, 9968, Note_on_c, 0, 51, 47
2, 9968, Note_on_c, 0, 78, 66
2, 9994, Control_c, 0, 64, 127
2, 10023, Note_on_c, 0, 78, 0
2, 10026, Note_on_c, 0, 80, 63
2, 10038, Control_c, 0, 64, 0
2, 10073, Note_on_c, 0, 51, 0
2, 10073, Note_on_c, 0, 81, 65
2, 10075, Note_on_c, 0, 80, 0
2, 10080, Note_on_c, 0, 59, 53
2, 10080, Note_on_c, 0, 66, 60
2, 10106, Note_on_c, 0, 66, 0
2, 10106, Note_on_c, 0, 59, 0
2, 10120, Note_on_c, 0, 81, 0
2, 10125, Note_on_c, 0, 83, 62
2, 10184, Note_on_c, 0, 81, 69
2, 10189, Note_on_c, 0, 52, 59
2, 10201, Control_c, 0, 64, 127
2, 10204, Note_on_c, 0, 83, 0
2, 10231, Note_on_c, 0, 80, 60
2, 10234, Note_on_c, 0, 81, 0
2, 10276, Note_on_c, 0, 52, 0
2, 10281, Note_on_c, 0, 61, 58
2, 10281, Note_on_c, 0, 69, 66
2, 10283, Note_on_c, 0, 78, 65
2, 10285, Note_on_c, 0, 80, 0
2, 10290, Control_c, 0, 64, 0
2, 10302, Note_on_c, 0, 69, 0
2, 10302, Note_on_c, 0, 61, 0
2, 10328, Note_on_c, 0, 80, 67
2, 10336, Note_on_c, 0, 78, 0
2, 10370, Note_on_c, 0, 51, 58
2, 10372, Note_on_c, 0, 81, 64
2, 10385, Note_on_c, 0, 80, 0
2, 10416, Note_on_c, 0, 85, 65
2, 10429, Note_on_c, 0, 85, 0
2, 10431, Note_on_c, 0, 81, 0
2, 10458, Note_on_c, 0, 85, 56
2, 10470, Note_on_c, 0, 51, 0
2, 10470, Note_on_c, 0, 71, 0
2, 10494, Note_on_c, 0, 59, 71
2, 10494, Note_on_c, 0, 66, 81
2, 10494, Note_on_c, 0, 78, 82
2, 10494, Note_on_c, 0, 90, 81
2, 10497, Note_on_c, 0, 85, 0
2, 10500, Note_on_c, 0, 69, 71
2, 10552, Control_c, 0, 64, 127
2, 10649, Note_on_c, 0, 59, 0
2, 10649, Note_on_c, 0, 66, 0
2, 10654, Note_on_c, 0, 47, 47
2, 10690, Note_on_c, 0, 69, 0
2, 10794, Control_c, 0, 64, 0
2, 10802, Note_on_c, 0, 78, 0
2, 10802, Note_on_c, 0, 90, 0
2, 10802, Note_on_c, 0, 47, 0
2, 10807, Note_on_c, 0, 63, 60
2, 10809, Note_on_c, 0, 59, 62
2, 10809, Note_on_c, 0, 66, 71
2, 10809, Note_on_c, 0, 71, 75
2, 10809, Note_on_c, 0, 81, 76
2, 10809, Note_on_c, 0, 83, 74
2, 10947, Note_on_c, 0, 71, 0
2, 10947, Note_on_c, 0, 66, 0
2, 10947, Note_on_c, 0, 63, 0
2, 10947, Note_on_c, 0, 59, 0
2, 10949, Note_on_c, 0, 83, 0
2, 10949, Note_on_c, 0, 81, 0
2, 10954, Note_on_c, 0, 40, 60
2, 10998, Note_on_c, 0, 52, 75
2, 11000, Note_on_c, 0, 80, 77
2, 11000, Note_on_c, 0, 83, 78
2, 11000, Note_on_c, 0, 92, 78
2, 11026, Control_c, 0, 64, 127
2, 11073, Note_on_c, 0, 83, 0
2, 11128, Note_on_c, 0, 52, 0
2, 11128, Note_on_c, 0, 40, 0
2, 11149, Note_on_c, 0, 80, 0
2, 11149, Note_on_c, 0, 92, 0
2, 11154, Note_on_c, 0, 56, 62
2, 11154, Note_on_c, 0, 59, 61
2, 11154, Note_on_c, 0, 64, 60
2, 11154, Note_on_c, 0, 71, 71
2, 11154, Note_on_c, 0, 83, 69
2, 11172, Control_c, 0, 64, 0
2, 11193, Note_on_c, 0, 83, 0
2, 11193, Note_on_c, 0, 64, 0
2, 11193, Note_on_c, 0, 56, 0
2, 11193, Note_on_c, 0, 59, 0
2, 11193, Note_on_c, 0, 71, 0
2, 11328, Note_on_c, 0, 40, 63
2, 11328, Note_on_c, 0, 52, 65
2, 11328, Note_on_c, 0, 80, 76
2, 11328, Note_on_c, 0, 92, 71
2, 11352, Note_on_c, 0, 92, 0
2, 11352, Note_on_c, 0, 80, 0
2, 11352, Note_on_c, 0, 52, 0
2, 11356, Note_on_c, 0, 40, 0
2, 11424, Note_on_c, 0, 45, 64
2, 11476, Control_c, 0, 64, 127
2, 11489, Note_on_c, 0, 57, 74
2, 11491, Note_on_c, 0, 78, 82
2, 11491, Note_on_c, 0, 85, 83
2, 11491, Note_on_c, 0, 90, 80
2, 11558, Note_on_c, 0, 85, 0
2, 11563, Note_on_c, 0, 57, 0
2, 11599, Control_c, 0, 64, 0
2, 11612, Note_on_c, 0, 45, 0
2, 11624, Note_on_c, 0, 57, 59
2, 11626, Note_on_c, 0, 61, 59
2, 11626, Note_on_c, 0, 66, 66
2, 11628, Note_on_c, 0, 78, 0
2, 11628, Note_on_c, 0, 90, 0
2, 11631, Note_on_c, 0, 73, 69
2, 11631, Note_on_c, 0, 85, 67
2, 11658, Note_on_c, 0, 85, 0
2, 11664, Note_on_c, 0, 61, 0
2, 11664, Note_on_c, 0, 57, 0
2, 11665, Note_on_c, 0, 66, 0
2, 11665, Note_on_c, 0, 73, 0
2, 11784, Note_on_c, 0, 45, 61
2, 11784, Note_on_c, 0, 57, 60
2, 11785, Note_on_c, 0, 78, 70
2, 11785, Note_on_c, 0, 90, 72
2, 11806, Note_on_c, 0, 57, 0
2, 11806, Note_on_c, 0, 45, 0
2, 11808, Note_on_c, 0, 78, 0
2, 11808, Note_on_c, 0, 90, 0
2, 11870, Note_on_c, 0, 47, 63
2, 11935, Note_on_c, 0, 59, 69
2, 11937, Note_on_c, 0, 76, 69
2, 11937, Note_on_c, 0, 81, 70
2, 11937, Note_on_c, 0, 88, 71
2, 11948, Control_c, 0, 64, 127
2, 12031, Note_on_c, 0, 88, 0
2, 12031, Note_on_c, 0, 76, 0
2, 12031, Note_on_c, 0, 81, 0
2, 12036, Note_on_c, 0, 87, 56
2, 12038, Note_on_c, 0, 75, 59
2, 12093, Control_c, 0, 64, 0
2, 12095, Note_on_c, 0, 75, 0
2, 12095, Note_on_c, 0, 87, 0
2, 12095, Note_on_c, 0, 59, 0
2, 12099, Note_on_c, 0, 57, 61
2, 12099, Note_on_c, 0, 63, 56
2, 12099, Note_on_c, 0, 66, 66
2, 12099, Note_on_c, 0, 73, 68
2, 12101, Note_on_c, 0, 47, 0
2, 12101, Note_on_c, 0, 85, 68
2, 12150, Note_on_c, 0, 73, 0
2, 12152, Note_on_c, 0, 85, 0
2, 12157, Note_on_c, 0, 71, 66
2, 12157, Note_on_c, 0, 83, 67
2, 12213, Note_on_c, 0, 57, 0
2, 12213, Note_on_c, 0, 63, 0
2, 12215, Note_on_c, 0, 66, 0
2, 12215, Note_on_c, 0, 71, 0
2, 12215, Note_on_c, 0, 83, 0
2, 12219, Note_on_c, 0, 47, 65
2, 12219, Note_on_c, 0, 59, 63
2, 12219, Note_on_c, 0, 73, 67
2, 12219, Note_on_c, 0, 85, 63
2, 12238, Note_on_c, 0, 59, 0
2, 12238, Note_on_c, 0, 47, 0
2, 12262, Note_on_c, 0, 75, 65
2, 12262, Note_on_c, 0, 87, 70
2, 12264, Note_on_c, 0, 73, 0
2, 12264, Note_on_c, 0, 85, 0
2, 12287, Note_on_c, 0, 40, 67
2, 12302, Note_on_c, 0, 75, 0
2, 12302, Note_on_c, 0, 87, 0
2, 12323, Note_on_c, 0, 52, 86
2, 12323, Note_on_c, 0, 90, 83
2, 12325, Note_on_c, 0, 78, 88
2, 12369, Control_c, 0, 64, 127
2, 12451, Control_c, 0, 64, 0
2, 12458, Note_on_c, 0, 78, 0
2, 12458, Note_on_c, 0, 90, 0
2, 12464, Note_on_c, 0, 40, 0
2, 12470, Note_on_c, 0, 64, 55
2, 12470, Note_on_c, 0, 76, 60
2, 12470, Note_on_c, 0, 80, 63
2, 12470, Note_on_c, 0, 88, 64
2, 12472, Note_on_c, 0, 52, 0
2, 12477, Note_on_c, 0, 56, 57
2, 12479, Note_on_c, 0, 59, 57
2, 12499, Note_on_c, 0, 80, 0
2, 12499, Note_on_c, 0, 76, 0
2, 12504, Note_on_c, 0, 64, 0
2, 12511, Note_on_c, 0, 88, 0
2, 12511, Note_on_c, 0, 59, 0
2, 12511, Note_on_c, 0, 56, 0
2, 12642, Note_on_c, 0, 44, 64
2, 12642, Note_on_c, 0, 56, 62
2, 12642, Note_on_c, 0, 75, 68
2, 12642, Note_on_c, 0, 80, 66
2, 12642, Note_on_c, 0, 84, 72
2, 12642, Note_on_c, 0, 87, 66
2, 12669, Note_on_c, 0, 87, 0
2, 12669, Note_on_c, 0, 84, 0
2, 12676, Note_on_c, 0, 80, 0
2, 12682, Note_on_c, 0, 75, 0
2, 12695, Note_on_c, 0, 56, 0
2, 12696, Note_on_c, 0, 44, 0
2, 12815, Note_on_c, 0, 37, 68
2, 12815, Note_on_c, 0, 49, 65
2, 12815, Note_on_c, 0, 73, 74
2, 12815, Note_on_c, 0, 85, 75
2, 12878, Control_c, 0, 64, 127
2, 12931, Note_on_c, 0, 73, 0
2, 12933, Note_on_c, 0, 85, 0
2, 12956, Control_c, 0, 64, 0
2, 12958, Note_on_c, 0, 49, 0
2, 12958, Note_on_c, 0, 37, 0
2, 12963, Note_on_c, 0, 52, 61
2, 12963, Note_on_c, 0, 56, 66
2, 12963, Note_on_c, 0, 61, 63
2, 12963, Note_on_c, 0, 76, 61
2, 12963, Note_on_c, 0, 80, 62
2, 12984, Note_on_c, 0, 61, 0
2, 12984, Note_on_c, 0, 52, 0
2, 12984, Note_on_c, 0, 56, 0
2, 12991, Note_on_c, 0, 76, 0
2, 13007, Note_on_c, 0, 80, 0
2, 13132, Note_on_c, 0, 37, 67
2, 13132, Note_on_c, 0, 49, 66
2, 13132, Note_on_c, 0, 73, 69
2, 13134, Note_on_c, 0, 85, 67
2, 13160, Note_on_c, 0, 85, 0
2, 13160, Note_on_c, 0, 73, 0
2, 13278, Note_on_c, 0, 49, 0
2, 13278, Note_on_c, 0, 37, 0
2, 13278, Note_on_c, 0, 71, 76
2, 13278, Note_on_c, 0, 83, 73
2, 13284, Note_on_c, 0, 39, 69
2, 13284, Note_on_c, 0, 51, 72
2, 13326, Control_c, 0, 64, 127
2, 13370, Note_on_c, 0, 51, 0
2, 13402, Note_on_c, 0, 71, 0
2, 13404, Note_on_c, 0, 83, 0
2, 13407, Control_c, 0, 64, 0
2, 13409, Note_on_c, 0, 39, 0
2, 13409, Note_on_c, 0, 75, 59
2, 13409, Note_on_c, 0, 78, 60
2, 13415, Note_on_c, 0, 51, 60
2, 13415, Note_on_c, 0, 54, 65
2, 13416, Note_on_c, 0, 59, 61
2, 13430, Note_on_c, 0, 75, 0
2, 13446, Note_on_c, 0, 54, 0
2, 13446, Note_on_c, 0, 59, 0
2, 13446, Note_on_c, 0, 51, 0
2, 13455, Note_on_c, 0, 78, 0
2, 13555, Note_on_c, 0, 39, 69
2, 13557, Note_on_c, 0, 51, 70
2, 13557, Note_on_c, 0, 71, 79
2, 13557, Note_on_c, 0, 83, 75
2, 13602, Note_on_c, 0, 51, 0
2, 13602, Note_on_c, 0, 39, 0
2, 13604, Note_on_c, 0, 71, 0
2, 13604, Note_on_c, 0, 83, 0
2, 13634, Note_on_c, 0, 42, 64
2, 13694, Control_c, 0, 64, 127
2, 13715, Note_on_c, 0, 70, 75
2, 13715, Note_on_c, 0, 76, 73
2, 13715, Note_on_c, 0, 82, 79
2, 13731, Note_on_c, 0, 54, 67
2, 13745, Note_on_c, 0, 42, 0
2, 13769, Note_on_c, 0, 54, 0
2, 13814, Note_on_c, 0, 70, 0
2, 13814, Note_on_c, 0, 82, 0
2, 13820, Note_on_c, 0, 68, 60
2, 13820, Note_on_c, 0, 80, 62
2, 13846, Note_on_c, 0, 68, 0
2, 13848, Note_on_c, 0, 80, 0
2, 13876, Note_on_c, 0, 54, 61
2, 13882, Control_c, 0, 64, 0
2, 13882, Note_on_c, 0, 58, 56
2, 13884, Note_on_c, 0, 61, 55
2, 13884, Note_on_c, 0, 64, 61
2, 13886, Note_on_c, 0, 76, 0
2, 13891, Note_on_c, 0, 68, 69
2, 13893, Note_on_c, 0, 80, 68
2, 13903, Note_on_c, 0, 54, 0
2, 13909, Note_on_c, 0, 64, 0
2, 13909, Note_on_c, 0, 61, 0
2, 13909, Note_on_c, 0, 58, 0
2, 13944, Note_on_c, 0, 80, 0
2, 13944, Note_on_c, 0, 68, 0
2, 13946, Note_on_c, 0, 66, 60
2, 13948, Note_on_c, 0, 78, 66
2, 13995, Note_on_c, 0, 42, 66
2, 13995, Note_on_c, 0, 54, 62
2, 13998, Note_on_c, 0, 66, 0
2, 14003, Note_on_c, 0, 64, 64
2, 14006, Note_on_c, 0, 78, 0
2, 14011, Note_on_c, 0, 76, 64
2, 14016, Note_on_c, 0, 54, 0
2, 14022, Note_on_c, 0, 42, 0
2, 14066, Note_on_c, 0, 64, 0
2, 14068, Note_on_c, 0, 76, 0
2, 14073, Note_on_c, 0, 61, 66
2, 14073, Note_on_c, 0, 73, 67
2, 14091, Note_on_c, 0, 35, 61
2, 14149, Note_on_c, 0, 61, 0
2, 14151, Note_on_c, 0, 73, 0
2, 14156, Note_on_c, 0, 47, 60
2, 14156, Note_on_c, 0, 59, 64
2, 14156, Note_on_c, 0, 63, 67
2, 14156, Note_on_c, 0, 66, 61
2, 14156, Note_on_c, 0, 71, 62
2, 14184, Control_c, 0, 64, 127
2, 14279, Control_c, 0, 64, 0
2, 14280, Note_on_c, 0, 47, 0
2, 14280, Note_on_c, 0, 35, 0
2, 14312, Note_on_c, 0, 66, 0
2, 14312, Note_on_c, 0, 63, 0
2, 14312, Note_on_c, 0, 71, 0
2, 14312, Note_on_c, 0, 59, 0
2, 14318, Note_on_c, 0, 51, 48
2, 14318, Note_on_c, 0, 54, 47
2, 14352, Note_on_c, 0, 54, 0
2, 14352, Note_on_c, 0, 51, 0
2, 14386, Control_c, 0, 67, 127
2, 14522, Note_on_c, 0, 66, 60
2, 14524, Note_on_c, 0, 78, 64
2, 14550, Note_on_c, 0, 66, 0
2, 14566, Control_c, 0, 67, 0
2, 14592, Control_c, 0, 67, 127
2, 14637, Note_on_c, 0, 66, 72
2, 14700, Note_on_c, 0, 42, 50
2, 14732, Note_on_c, 0, 76, 53
2, 14770, Control_c, 0, 64, 127
2, 14772, Note_on_c, 0, 78, 0
2, 14843, Note_on_c, 0, 76, 0
2, 14849, Note_on_c, 0, 75, 48
2, 14922, Control_c, 0, 64, 0
2, 14925, Note_on_c, 0, 75, 0
2, 14929, Note_on_c, 0, 42, 0
2, 14929, Note_on_c, 0, 73, 51
2, 14935, Note_on_c, 0, 54, 48
2, 14935, Note_on_c, 0, 58, 45
2, 14967, Note_on_c, 0, 58, 0
2, 14967, Note_on_c, 0, 54, 0
2, 15000, Note_on_c, 0, 73, 0
2, 15006, Note_on_c, 0, 75, 53
2, 15072, Note_on_c, 0, 75, 0
2, 15074, Note_on_c, 0, 44, 50
2, 15076, Note_on_c, 0, 76, 53
2, 15126, Note_on_c, 0, 66, 0
2, 15134, Note_on_c, 0, 76, 0
2, 15139, Note_on_c, 0, 78, 56
2, 15163, Control_c, 0, 64, 127
2, 15194, Note_on_c, 0, 44, 0
2, 15196, Note_on_c, 0, 78, 0
2, 15201, Note_on_c, 0, 54, 60
2, 15203, Note_on_c, 0, 59, 62
2, 15203, Note_on_c, 0, 66, 60
2, 15203, Note_on_c, 0, 76, 66
2, 15240, Note_on_c, 0, 54, 0
2, 15241, Note_on_c, 0, 59, 0
2, 15244, Control_c, 0, 64, 0
2, 15261, Note_on_c, 0, 76, 0
2, 15266, Note_on_c, 0, 75, 58
2, 15316, Note_on_c, 0, 46, 49
2, 15318, Note_on_c, 0, 75, 0
2, 15323, Note_on_c, 0, 73, 59
2, 15344, Note_on_c, 0, 46, 0
2, 15371, Note_on_c, 0, 73, 0
2, 15377, Note_on_c, 0, 75, 56
2, 15385, Control_c, 0, 67, 0
2, 15428, Note_on_c, 0, 75, 0
2, 15431, Note_on_c, 0, 54, 54
2, 15433, Note_on_c, 0, 61, 51
2, 15433, Note_on_c, 0, 76, 60
2, 15459, Note_on_c, 0, 54, 0
2, 15461, Note_on_c, 0, 61, 0
2, 15475, Note_on_c, 0, 76, 0
2, 15487, Note_on_c, 0, 78, 58
2, 15537, Note_on_c, 0, 47, 60
2, 15540, Note_on_c, 0, 78, 0
2, 15545, Note_on_c, 0, 76, 65
2, 15566, Note_on_c, 0, 47, 0
2, 15605, Note_on_c, 0, 76, 0
2, 15611, Note_on_c, 0, 75, 66
2, 15656, Note_on_c, 0, 75, 0
2, 15659, Note_on_c, 0, 56, 54
2, 15659, Note_on_c, 0, 64, 51
2, 15659, Note_on_c, 0, 73, 65
2, 15665, Control_c, 0, 64, 127
2, 15699, Note_on_c, 0, 73, 0
2, 15704, Note_on_c, 0, 75, 55
2, 15749, Note_on_c, 0, 64, 0
2, 15749, Note_on_c, 0, 56, 0
2, 15751, Note_on_c, 0, 75, 0
2, 15756, Note_on_c, 0, 46, 54
2, 15758, Note_on_c, 0, 76, 57
2, 15774, Control_c, 0, 64, 0
2, 15801, Note_on_c, 0, 46, 0
2, 15801, Note_on_c, 0, 66, 0
2, 15803, Note_on_c, 0, 76, 0
2, 15808, Note_on_c, 0, 80, 57
2, 15823, Note_on_c, 0, 80, 0
2, 15852, Note_on_c, 0, 80, 49
2, 15890, Note_on_c, 0, 64, 41
2, 15890, Note_on_c, 0, 73, 72
2, 15890, Note_on_c, 0, 85, 69
2, 15893, Note_on_c, 0, 54, 47
2, 15898, Note_on_c, 0, 80, 0
2, 15992, Control_c, 0, 64, 127
2, 16001, Control_c, 0, 67, 127
2, 16060, Note_on_c, 0, 64, 0
2, 16060, Note_on_c, 0, 54, 0
2, 16063, Note_on_c, 0, 42, 41
2, 16188, Control_c, 0, 64, 0
2, 16208, Note_on_c, 0, 58, 47
2, 16210, Note_on_c, 0, 42, 0
2, 16212, Note_on_c, 0, 85, 0
2, 16212, Note_on_c, 0, 73, 0
2, 16215, Note_on_c, 0, 54, 48
2, 16215, Note_on_c, 0, 61, 48
2, 16218, Note_on_c, 0, 78, 55
2, 16285, Control_c, 0, 67, 0
2, 16311, Control_c, 0, 67, 127
2, 16334, Note_on_c, 0, 71, 63
2, 16368, Note_on_c, 0, 61, 0
2, 16368, Note_on_c, 0, 58, 0
2, 16368, Note_on_c, 0, 54, 0
2, 16372, Note_on_c, 0, 47, 55
2, 16393, Note_on_c, 0, 78, 0
2, 16401, Note_on_c, 0, 81, 52
2, 16414, Control_c, 0, 64, 127
2, 16435, Note_on_c, 0, 47, 0
2, 16482, Note_on_c, 0, 81, 0
2, 16488, Note_on_c, 0, 80, 49
2, 16498, Control_c, 0, 64, 0
2, 16548, Note_on_c, 0, 80, 0
2, 16554, Note_on_c, 0, 59, 52
2, 16554, Note_on_c, 0, 63, 51
2, 16554, Note_on_c, 0, 78, 61
2, 16581, Note_on_c, 0, 63, 0
2, 16581, Note_on_c, 0, 59, 0
2, 16614, Note_on_c, 0, 78, 0
2, 16619, Note_on_c, 0, 80, 61
2, 16675, Note_on_c, 0, 80, 0
2, 16680, Note_on_c, 0, 49, 53
2, 16681, Note_on_c, 0, 81, 57
2, 16727, Note_on_c, 0, 71, 0
2, 16728, Control_c, 0, 67, 0
2, 16734, Note_on_c, 0, 81, 0
2, 16739, Note_on_c, 0, 49, 0
2, 16739, Note_on_c, 0, 83, 54
2, 16792, Note_on_c, 0, 83, 0
2, 16797, Note_on_c, 0, 71, 59
2, 16797, Note_on_c, 0, 81, 60
2, 16800, Note_on_c, 0, 59, 55
2, 16800, Note_on_c, 0, 64, 56
2, 16849, Note_on_c, 0, 64, 0
2, 16849, Note_on_c, 0, 59, 0
2, 16852, Note_on_c, 0, 81, 0
2, 16857, Note_on_c, 0, 80, 60
2, 16896, Note_on_c, 0, 80, 0
2, 16902, Note_on_c, 0, 78, 53
2, 16905, Note_on_c, 0, 51, 53
2, 16920, Control_c, 0, 64, 127
2, 16959, Note_on_c, 0, 78, 0
2, 16964, Note_on_c, 0, 80, 54
2, 17005, Note_on_c, 0, 80, 0
2, 17010, Note_on_c, 0, 51, 0
2, 17010, Note_on_c, 0, 81, 59
2, 17015, Note_on_c, 0, 59, 54
2, 17015, Note_on_c, 0, 66, 54
2, 17020, Control_c, 0, 64, 0
2, 17052, Note_on_c, 0, 66, 0
2, 17052, Note_on_c, 0, 59, 0
2, 17054, Note_on_c, 0, 81, 0
2, 17060, Note_on_c, 0, 83, 53
2, 17105, Note_on_c, 0, 83, 0
2, 17110, Note_on_c, 0, 81, 68
2, 17122, Note_on_c, 0, 52, 55
2, 17161, Note_on_c, 0, 52, 0
2, 17163, Note_on_c, 0, 81, 0
2, 17169, Note_on_c, 0, 80, 56
2, 17213, Note_on_c, 0, 80, 0
2, 17218, Note_on_c, 0, 61, 49
2, 17218, Note_on_c, 0, 69, 56
2, 17218, Note_on_c, 0, 78, 58
2, 17224, Control_c, 0, 64, 127
2, 17263, Note_on_c, 0, 78, 0
2, 17263, Note_on_c, 0, 80, 60
2, 17300, Note_on_c, 0, 61, 0
2, 17302, Note_on_c, 0, 80, 0
2, 17302, Note_on_c, 0, 69, 0
2, 17306, Note_on_c, 0, 81, 62
2, 17312, Note_on_c, 0, 51, 54
2, 17353, Note_on_c, 0, 85, 64
2, 17355, Note_on_c, 0, 81, 0
2, 17369, Note_on_c, 0, 85, 0
2, 17396, Control_c, 0, 64, 0
2, 17399, Note_on_c, 0, 85, 59
2, 17404, Note_on_c, 0, 51, 0
2, 17406, Note_on_c, 0, 71, 0
2, 17426, Note_on_c, 0, 85, 0
2, 17429, Note_on_c, 0, 59, 68
2, 17431, Note_on_c, 0, 66, 78
2, 17431, Note_on_c, 0, 69, 80
2, 17431, Note_on_c, 0, 78, 76
2, 17431, Note_on_c, 0, 90, 74
2, 17570, Control_c, 0, 64, 127
2, 17587, Note_on_c, 0, 66, 0
2, 17587, Note_on_c, 0, 59, 0
2, 17592, Note_on_c, 0, 47, 58
2, 17725, Note_on_c, 0, 47, 0
2, 17727, Note_on_c, 0, 90, 0
2, 17727, Note_on_c, 0, 69, 0
2, 17727, Note_on_c, 0, 78, 0
2, 17730, Control_c, 0, 64, 0
2, 17732, Note_on_c, 0, 59, 67
2, 17732, Note_on_c, 0, 63, 71
2, 17732, Note_on_c, 0, 66, 72
2, 17732, Note_on_c, 0, 71, 74
2, 17732, Note_on_c, 0, 81, 71
2, 17732, Note_on_c, 0, 83, 76
2, 17844, Note_on_c, 0, 83, 0
2, 17880, Note_on_c, 0, 71, 0
2, 17880, Note_on_c, 0, 81, 0
2, 17886, Note_on_c, 0, 59, 0
2, 17886, Note_on_c, 0, 66, 0
2, 17886, Note_on_c, 0, 63, 0
2, 17886, Note_on_c, 0, 80, 85
2, 17886, Note_on_c, 0, 83, 78
2, 17886, Note_on_c, 0, 92, 84
2, 17891, Note_on_c, 0, 40, 78
2, 17891, Note_on_c, 0, 52, 85
2, 17930, Control_c, 0, 64, 127
2, 17973, Note_on_c, 0, 83, 0
2, 18047, Note_on_c, 0, 40, 0
2, 18047, Note_on_c, 0, 52, 0
2, 18048, Note_on_c, 0, 92, 0
2, 18048, Note_on_c, 0, 80, 0
2, 18051, Note_on_c, 0, 56, 66
2, 18051, Note_on_c, 0, 64, 64
2, 18053, Note_on_c, 0, 59, 66
2, 18053, Note_on_c, 0, 71, 66
2, 18053, Note_on_c, 0, 83, 66
2, 18079, Control_c, 0, 64, 0
2, 18105, Note_on_c, 0, 56, 0
2, 18107, Note_on_c, 0, 71, 0
2, 18107, Note_on_c, 0, 64, 0
2, 18107, Note_on_c, 0, 59, 0
2, 18107, Note_on_c, 0, 83, 0
2, 18227, Note_on_c, 0, 40, 70
2, 18233, Note_on_c, 0, 52, 71
2, 18233, Note_on_c, 0, 80, 71
2, 18233, Note_on_c, 0, 92, 77
2, 18254, Note_on_c, 0, 92, 0
2, 18254, Note_on_c, 0, 80, 0
2, 18312, Note_on_c, 0, 52, 0
2, 18312, Note_on_c, 0, 40, 0
2, 18317, Note_on_c, 0, 45, 60
2, 18390, Note_on_c, 0, 78, 81
2, 18390, Note_on_c, 0, 85, 80
2, 18390, Note_on_c, 0, 90, 84
2, 18396, Note_on_c, 0, 57, 72
2, 18422, Control_c, 0, 64, 127
2, 18461, Note_on_c, 0, 85, 0
2, 18474, Note_on_c, 0, 45, 0
2, 18480, Note_on_c, 0, 57, 0
2, 18540, Note_on_c, 0, 90, 0
2, 18540, Note_on_c, 0, 78, 0
2, 18543, Note_on_c, 0, 57, 53
2, 18545, Note_on_c, 0, 61, 60
2, 18545, Note_on_c, 0, 66, 70
2, 18545, Note_on_c, 0, 73, 68
2, 18547, Note_on_c, 0, 85, 68
2, 18573, Note_on_c, 0, 85, 0
2, 18577, Note_on_c, 0, 73, 0
2, 18582, Control_c, 0, 64, 0
2, 18598, Note_on_c, 0, 57, 0
2, 18598, Note_on_c, 0, 61, 0
2, 18598, Note_on_c, 0, 66, 0
2, 18708, Note_on_c, 0, 45, 68
2, 18708, Note_on_c, 0, 57, 66
2, 18710, Note_on_c, 0, 78, 66
2, 18710, Note_on_c, 0, 90, 65
2, 18730, Note_on_c, 0, 90, 0
2, 18730, Note_on_c, 0, 78, 0
2, 18761, Note_on_c, 0, 45, 0
2, 18781, Note_on_c, 0, 47, 68
2, 18849, Note_on_c, 0, 59, 78
2, 18851, Note_on_c, 0, 76, 76
2, 18851, Note_on_c, 0, 81, 74
2, 18851, Note_on_c, 0, 88, 77
2, 18864, Note_on_c, 0, 57, 0
2, 18892, Control_c, 0, 64, 127
2, 18937, Note_on_c, 0, 81, 0
2, 18937, Note_on_c, 0, 76, 0
2, 18937, Note_on_c, 0, 88, 0
2, 18942, Note_on_c, 0, 75, 66
2, 18942, Note_on_c, 0, 87, 64
2, 18989, Note_on_c, 0, 47, 0
2, 19002, Note_on_c, 0, 59, 0
2, 19007, Note_on_c, 0, 57, 56
2, 19007, Note_on_c, 0, 63, 56
2, 19007, Note_on_c, 0, 66, 61
2, 19009, Note_on_c, 0, 75, 0
2, 19009, Note_on_c, 0, 87, 0
2, 19012, Note_on_c, 0, 73, 60
2, 19014, Note_on_c, 0, 85, 67
2, 19067, Note_on_c, 0, 73, 0
2, 19069, Note_on_c, 0, 85, 0
2, 19072, Note_on_c, 0, 71, 67
2, 19072, Note_on_c, 0, 83, 63
2, 19084, Control_c, 0, 64, 0
2, 19124, Note_on_c, 0, 66, 0
2, 19124, Note_on_c, 0, 63, 0
2, 19124, Note_on_c, 0, 57, 0
2, 19126, Note_on_c, 0, 71, 0
2, 19126, Note_on_c, 0, 83, 0
2, 19130, Note_on_c, 0, 47, 65
2, 19130, Note_on_c, 0, 59, 61
2, 19130, Note_on_c, 0, 73, 67
2, 19130, Note_on_c, 0, 85, 73
2, 19179, Note_on_c, 0, 85, 0
2, 19182, Note_on_c, 0, 87, 67
2, 19184, Note_on_c, 0, 73, 0
2, 19189, Note_on_c, 0, 75, 74
2, 19204, Note_on_c, 0, 47, 0
2, 19204, Note_on_c, 0, 59, 0
2, 19207, Note_on_c, 0, 40, 65
2, 19247, Note_on_c, 0, 52, 74
2, 19248, Note_on_c, 0, 87, 0
2, 19248, Note_on_c, 0, 75, 0
2, 19254, Note_on_c, 0, 78, 78
2, 19254, Note_on_c, 0, 90, 74
2, 19299, Control_c, 0, 64, 127
2, 19378, Note_on_c, 0, 90, 0
2, 19378, Note_on_c, 0, 78, 0
2, 19407, Note_on_c, 0, 64, 56
2, 19407, Note_on_c, 0, 76, 64
2, 19407, Note_on_c, 0, 80, 59
2, 19407, Note_on_c, 0, 88, 59
2, 19409, Note_on_c, 0, 40, 0
2, 19409, Note_on_c, 0, 52, 0
2, 19412, Note_on_c, 0, 56, 60
2, 19414, Control_c, 0, 64, 0
2, 19414, Note_on_c, 0, 59, 56
2, 19435, Note_on_c, 0, 80, 0
2, 19440, Note_on_c, 0, 64, 0
2, 19440, Note_on_c, 0, 56, 0
2, 19440, Note_on_c, 0, 59, 0
2, 19441, Note_on_c, 0, 76, 0
2, 19441, Note_on_c, 0, 88, 0
2, 19531, Note_on_c, 0, 44, 65
2, 19586, Note_on_c, 0, 56, 72
2, 19588, Note_on_c, 0, 75, 69
2, 19588, Note_on_c, 0, 80, 70
2, 19588, Note_on_c, 0, 84, 67
2, 19588, Note_on_c, 0, 87, 73
2, 19625, Control_c, 0, 64, 127
2, 19708, Control_c, 0, 64, 0
2, 19742, Note_on_c, 0, 84, 0
2, 19742, Note_on_c, 0, 75, 0
2, 19742, Note_on_c, 0, 44, 0
2, 19742, Note_on_c, 0, 56, 0
2, 19744, Note_on_c, 0, 80, 0
2, 19744, Note_on_c, 0, 87, 0
2, 19749, Note_on_c, 0, 73, 82
2, 19749, Note_on_c, 0, 85, 82
2, 19753, Note_on_c, 0, 37, 72
2, 19753, Note_on_c, 0, 49, 71
2, 19832, Control_c, 0, 64, 127
2, 19892, Note_on_c, 0, 49, 0
2, 19892, Note_on_c, 0, 37, 0
2, 19894, Note_on_c, 0, 85, 0
2, 19894, Note_on_c, 0, 73, 0
2, 19898, Note_on_c, 0, 52, 64
2, 19898, Note_on_c, 0, 61, 66
2, 19900, Note_on_c, 0, 76, 67
2, 19900, Note_on_c, 0, 80, 67
2, 19905, Note_on_c, 0, 56, 65
2, 19920, Note_on_c, 0, 76, 0
2, 19937, Control_c, 0, 64, 0
2, 19939, Note_on_c, 0, 80, 0
2, 19939, Note_on_c, 0, 52, 0
2, 19939, Note_on_c, 0, 61, 0
2, 19944, Note_on_c, 0, 56, 0
2, 20064, Note_on_c, 0, 37, 67
2, 20066, Note_on_c, 0, 49, 71
2, 20066, Note_on_c, 0, 73, 70
2, 20066, Note_on_c, 0, 85, 68
2, 20088, Note_on_c, 0, 73, 0
2, 20095, Note_on_c, 0, 85, 0
2, 20132, Note_on_c, 0, 37, 0
2, 20158, Note_on_c, 0, 39, 61
2, 20173, Note_on_c, 0, 49, 0
2, 20225, Control_c, 0, 64, 127
2, 20225, Note_on_c, 0, 51, 71
2, 20225, Note_on_c, 0, 71, 83
2, 20225, Note_on_c, 0, 83, 77
2, 20256, Note_on_c, 0, 39, 0
2, 20302, Note_on_c, 0, 51, 0
2, 20367, Note_on_c, 0, 71, 0
2, 20367, Note_on_c, 0, 83, 0
2, 20372, Note_on_c, 0, 51, 63
2, 20372, Note_on_c, 0, 54, 62
2, 20372, Note_on_c, 0, 59, 66
2, 20374, Note_on_c, 0, 75, 68
2, 20374, Note_on_c, 0, 78, 71
2, 20392, Control_c, 0, 64, 0
2, 20394, Note_on_c, 0, 75, 0
2, 20404, Note_on_c, 0, 54, 0
2, 20406, Note_on_c, 0, 51, 0
2, 20406, Note_on_c, 0, 59, 0
2, 20414, Note_on_c, 0, 78, 0
2, 20529, Note_on_c, 0, 39, 64
2, 20529, Note_on_c, 0, 51, 68
2, 20529, Note_on_c, 0, 71, 68
2, 20529, Note_on_c, 0, 83, 72
2, 20563, Note_on_c, 0, 83, 0
2, 20563, Note_on_c, 0, 71, 0
2, 20601, Note_on_c, 0, 39, 0
2, 20622, Note_on_c, 0, 42, 67
2, 20625, Note_on_c, 0, 51, 0
2, 20674, Control_c, 0, 64, 127
2, 20687, Note_on_c, 0, 70, 78
2, 20687, Note_on_c, 0, 82, 82
2, 20691, Note_on_c, 0, 54, 79
2, 20693, Note_on_c, 0, 76, 83
2, 20792, Note_on_c, 0, 76, 0
2, 20792, Note_on_c, 0, 70, 0
2, 20794, Note_on_c, 0, 82, 0
2, 20799, Note_on_c, 0, 68, 64
2, 20799, Note_on_c, 0, 80, 60
2, 20823, Note_on_c, 0, 54, 0
2, 20835, Note_on_c, 0, 68, 0
2, 20837, Note_on_c, 0, 80, 0
2, 20842, Note_on_c, 0, 42, 0
2, 20873, Note_on_c, 0, 54, 65
2, 20873, Note_on_c, 0, 58, 65
2, 20875, Note_on_c, 0, 61, 67
2, 20875, Note_on_c, 0, 64, 68
2, 20875, Note_on_c, 0, 68, 68
2, 20880, Control_c, 0, 64, 0
2, 20882, Note_on_c, 0, 80, 68
2, 20932, Note_on_c, 0, 58, 0
2, 20932, Note_on_c, 0, 54, 0
2, 20934, Note_on_c, 0, 68, 0
2, 20934, Note_on_c, 0, 64, 0
2, 20934, Note_on_c, 0, 61, 0
2, 20936, Note_on_c, 0, 80, 0
2, 20941, Note_on_c, 0, 66, 71
2, 20941, Note_on_c, 0, 78, 69
2, 20994, Note_on_c, 0, 42, 66
2, 20994, Note_on_c, 0, 54, 65
2, 20996, Note_on_c, 0, 78, 0
2, 20996, Note_on_c, 0, 66, 0
2, 21001, Note_on_c, 0, 64, 65
2, 21001, Note_on_c, 0, 76, 71
2, 21059, Note_on_c, 0, 64, 0
2, 21061, Note_on_c, 0, 76, 0
2, 21066, Note_on_c, 0, 61, 65
2, 21066, Note_on_c, 0, 73, 71
2, 21099, Note_on_c, 0, 61, 0
2, 21099, Note_on_c, 0, 42, 0
2, 21101, Note_on_c, 0, 73, 0
2, 21103, Note_on_c, 0, 35, 72
2, 21105, Note_on_c, 0, 54, 0
2, 21176, Control_c, 0, 64, 127
2, 21178, Note_on_c, 0, 59, 78
2, 21178, Note_on_c, 0, 63, 81
2, 21178, Note_on_c, 0, 66, 83
2, 21178, Note_on_c, 0, 71, 87
2, 21184, Note_on_c, 0, 47, 78
2, 21432, Note_on_c, 0, 51, 65
2, 21432, Note_on_c, 0, 54, 72
2, 21470, Control_c, 0, 64, 0
2, 21541, Note_on_c, 0, 47, 0
2, 21541, Note_on_c, 0, 35, 0
2, 21553, Note_on_c, 0, 71, 0
2, 21553, Note_on_c, 0, 59, 0
2, 21553, Note_on_c, 0, 66, 0
2, 21553, Note_on_c, 0, 63, 0
2, 21559, Note_on_c, 0, 51, 0
2, 21559, Note_on_c, 0, 54, 0
2, 21726, Control_c, 0, 67, 127
2, 22330, Control_c, 0, 64, 127
2, 22395, Note_on_c, 0, 83, 59
2, 22400, Note_on_c, 0, 71, 59
2, 22584, Note_on_c, 0, 40, 44
2, 22649, Control_c, 0, 64, 0
2, 22712, Note_on_c, 0, 80, 54
2, 22718, Note_on_c, 0, 76, 54
2, 22720, Note_on_c, 0, 71, 0
2, 22725, Note_on_c, 0, 68, 48
2, 22729, Note_on_c, 0, 47, 47
2, 22731, Note_on_c, 0, 83, 0
2, 22807, Control_c, 0, 64, 127
2, 22914, Note_on_c, 0, 56, 46
2, 22916, Note_on_c, 0, 59, 43
2, 22979, Note_on_c, 0, 56, 0
2, 22981, Note_on_c, 0, 59, 0
2, 23030, Note_on_c, 0, 56, 43
2, 23032, Note_on_c, 0, 59, 44
2, 23121, Note_on_c, 0, 71, 48
2, 23121, Note_on_c, 0, 83, 41
2, 23208, Note_on_c, 0, 83, 0
2, 23212, Note_on_c, 0, 71, 0
2, 23214, Note_on_c, 0, 76, 0
2, 23225, Note_on_c, 0, 56, 0
2, 23249, Note_on_c, 0, 83, 53
2, 23255, Note_on_c, 0, 71, 44
2, 23255, Note_on_c, 0, 76, 47
2, 23260, Note_on_c, 0, 64, 42
2, 23266, Note_on_c, 0, 56, 48
2, 23286, Control_c, 0, 64, 0
2, 23399, Note_on_c, 0, 42, 49
2, 23406, Note_on_c, 0, 47, 0
2, 23435, Note_on_c, 0, 40, 0
2, 23443, Note_on_c, 0, 64, 0
2, 23443, Note_on_c, 0, 56, 0
2, 23445, Note_on_c, 0, 76, 0
2, 23445, Note_on_c, 0, 59, 0
2, 23449, Note_on_c, 0, 47, 45
2, 23471, Note_on_c, 0, 83, 0
2, 23473, Note_on_c, 0, 69, 63
2, 23473, Note_on_c, 0, 81, 67
2, 23481, Note_on_c, 0, 68, 0
2, 23481, Note_on_c, 0, 71, 0
2, 23481, Note_on_c, 0, 75, 47
2, 23483, Note_on_c, 0, 80, 0
2, 23559, Control_c, 0, 64, 127
2, 23590, Note_on_c, 0, 57, 42
2, 23590, Note_on_c, 0, 59, 46
2, 23623, Note_on_c, 0, 59, 0
2, 23623, Note_on_c, 0, 57, 0
2, 23676, Note_on_c, 0, 57, 45
2, 23676, Note_on_c, 0, 59, 44
2, 23760, Note_on_c, 0, 69, 0
2, 23761, Note_on_c, 0, 75, 0
2, 23778, Note_on_c, 0, 71, 48
2, 23778, Note_on_c, 0, 83, 52
2, 23837, Note_on_c, 0, 83, 0
2, 23837, Note_on_c, 0, 71, 0
2, 23856, Note_on_c, 0, 57, 0
2, 23895, Note_on_c, 0, 81, 0
2, 23901, Note_on_c, 0, 57, 46
2, 23901, Note_on_c, 0, 63, 41
2, 23901, Note_on_c, 0, 71, 50
2, 23901, Note_on_c, 0, 83, 47
2, 23913, Note_on_c, 0, 75, 46
2, 23939, Control_c, 0, 64, 0
2, 23941, Control_c, 0, 67, 0
2, 24048, Note_on_c, 0, 40, 47
2, 24055, Note_on_c, 0, 68, 44
2, 24069, Note_on_c, 0, 63, 0
2, 24069, Note_on_c, 0, 57, 0
2, 24071, Note_on_c, 0, 75, 0
2, 24071, Note_on_c, 0, 42, 0
2, 24071, Note_on_c, 0, 71, 0
2, 24071, Note_on_c, 0, 59, 0
2, 24071, Note_on_c, 0, 47, 0
2, 24071, Note_on_c, 0, 83, 0
2, 24095, Note_on_c, 0, 76, 45
2, 24133, Note_on_c, 0, 80, 64
2, 24135, Note_on_c, 0, 47, 52
2, 24155, Control_c, 0, 64, 127
2, 24168, Control_c, 0, 67, 127
2, 24250, Note_on_c, 0, 56, 42
2, 24250, Note_on_c, 0, 59, 46
2, 24297, Note_on_c, 0, 56, 0
2, 24303, Note_on_c, 0, 59, 0
2, 24353, Note_on_c, 0, 56, 48
2, 24355, Note_on_c, 0, 59, 42
2, 24358, Control_c, 0, 67, 0
2, 24436, Note_on_c, 0, 71, 61
2, 24436, Note_on_c, 0, 83, 64
2, 24514, Note_on_c, 0, 68, 0
2, 24516, Note_on_c, 0, 83, 0
2, 24516, Note_on_c, 0, 76, 0
2, 24521, Note_on_c, 0, 56, 0
2, 24560, Note_on_c, 0, 68, 67
2, 24560, Note_on_c, 0, 88, 61
2, 24565, Note_on_c, 0, 56, 49
2, 24567, Note_on_c, 0, 76, 42
2, 24567, Note_on_c, 0, 83, 48
2, 24645, Control_c, 0, 67, 127
2, 24681, Control_c, 0, 64, 0
2, 24694, Note_on_c, 0, 35, 46
2, 24709, Note_on_c, 0, 47, 0
2, 24771, Note_on_c, 0, 56, 0
2, 24771, Note_on_c, 0, 40, 0
2, 24771, Note_on_c, 0, 71, 0
2, 24771, Note_on_c, 0, 80, 0
2, 24771, Note_on_c, 0, 68, 0
2, 24771, Note_on_c, 0, 59, 0
2, 24777, Note_on_c, 0, 87, 59
2, 24783, Note_on_c, 0, 47, 49
2, 24783, Note_on_c, 0, 75, 46
2, 24783, Note_on_c, 0, 81, 41
2, 24796, Note_on_c, 0, 83, 0
2, 24798, Note_on_c, 0, 76, 0
2, 24798, Note_on_c, 0, 88, 0
2, 24889, Control_c, 0, 64, 127
2, 24952, Note_on_c, 0, 57, 42
2, 24952, Note_on_c, 0, 66, 47
2, 24991, Note_on_c, 0, 57, 0
2, 24999, Note_on_c, 0, 66, 0
2, 25052, Note_on_c, 0, 57, 44
2, 25059, Note_on_c, 0, 66, 46
2, 25129, Note_on_c, 0, 75, 0
2, 25129, Note_on_c, 0, 87, 0
2, 25131, Note_on_c, 0, 81, 0
2, 25148, Note_on_c, 0, 73, 48
2, 25150, Note_on_c, 0, 85, 50
2, 25253, Note_on_c, 0, 85, 0
2, 25253, Note_on_c, 0, 66, 0
2, 25253, Note_on_c, 0, 57, 0
2, 25253, Note_on_c, 0, 73, 0
2, 25256, Note_on_c, 0, 63, 44
2, 25258, Note_on_c, 0, 59, 44
2, 25258, Note_on_c, 0, 69, 51
2, 25258, Note_on_c, 0, 78, 52
2, 25258, Note_on_c, 0, 81, 54
2, 25360, Control_c, 0, 64, 0
2, 25399, Note_on_c, 0, 47, 0
2, 25399, Note_on_c, 0, 35, 0
2, 25404, Note_on_c, 0, 40, 41
2, 25436, Note_on_c, 0, 59, 0
2, 25456, Note_on_c, 0, 63, 0
2, 25462, Note_on_c, 0, 69, 0
2, 25462, Note_on_c, 0, 78, 0
2, 25464, Note_on_c, 0, 81, 0
2, 25466, Note_on_c, 0, 47, 51
2, 25466, Note_on_c, 0, 68, 59
2, 25466, Note_on_c, 0, 76, 55
2, 25466, Note_on_c, 0, 80, 60
2, 25537, Control_c, 0, 64, 127
2, 25586, Note_on_c, 0, 56, 47
2, 25588, Note_on_c, 0, 59, 43
2, 25644, Note_on_c, 0, 56, 0
2, 25646, Note_on_c, 0, 59, 0
2, 25684, Control_c, 0, 67, 0
2, 25703, Note_on_c, 0, 56, 42
2, 25703, Note_on_c, 0, 59, 48
2, 25786, Note_on_c, 0, 71, 44
2, 25788, Note_on_c, 0, 83, 48
2, 25858, Note_on_c, 0, 56, 0
2, 25866, Note_on_c, 0, 83, 0
2, 25866, Note_on_c, 0, 71, 0
2, 25866, Note_on_c, 0, 76, 0
2, 25904, Note_on_c, 0, 56, 42
2, 25904, Note_on_c, 0, 64, 44
2, 25910, Note_on_c, 0, 71, 52
2, 25910, Note_on_c, 0, 83, 49
2, 25918, Note_on_c, 0, 76, 48
2, 25983, Control_c, 0, 64, 0
2, 26021, Note_on_c, 0, 68, 0
2, 26029, Note_on_c, 0, 40, 0
2, 26035, Note_on_c, 0, 39, 41
2, 26065, Note_on_c, 0, 71, 0
2, 26094, Note_on_c, 0, 47, 0
2, 26105, Note_on_c, 0, 56, 0
2, 26105, Note_on_c, 0, 64, 0
2, 26107, Note_on_c, 0, 83, 0
2, 26107, Note_on_c, 0, 76, 0
2, 26107, Note_on_c, 0, 59, 0
2, 26107, Note_on_c, 0, 80, 0
2, 26112, Note_on_c, 0, 66, 66
2, 26112, Note_on_c, 0, 78, 66
2, 26117, Note_on_c, 0, 71, 45
2, 26137, Note_on_c, 0, 47, 47
2, 26226, Control_c, 0, 64, 127
2, 26256, Note_on_c, 0, 54, 45
2, 26258, Note_on_c, 0, 59, 46
2, 26289, Note_on_c, 0, 54, 0
2, 26291, Note_on_c, 0, 59, 0
2, 26352, Note_on_c, 0, 54, 42
2, 26353, Note_on_c, 0, 59, 46
2, 26393, Note_on_c, 0, 71, 0
2, 26445, Note_on_c, 0, 71, 57
2, 26445, Note_on_c, 0, 83, 59
2, 26489, Note_on_c, 0, 54, 0
2, 26491, Note_on_c, 0, 83, 0
2, 26491, Note_on_c, 0, 71, 0
2, 26496, Note_on_c, 0, 66, 0
2, 26533, Note_on_c, 0, 54, 42
2, 26533, Note_on_c, 0, 66, 46
2, 26553, Note_on_c, 0, 71, 64
2, 26553, Note_on_c, 0, 83, 65
2, 26635, Control_c, 0, 64, 0
2, 26674, Note_on_c, 0, 37, 48
2, 26741, Note_on_c, 0, 47, 0
2, 26772, Note_on_c, 0, 83, 0
2, 26772, Note_on_c, 0, 54, 0
2, 26772, Note_on_c, 0, 66, 0
2, 26772, Note_on_c, 0, 59, 0
2, 26772, Note_on_c, 0, 78, 0
2, 26772, Note_on_c, 0, 71, 0
2, 26777, Note_on_c, 0, 88, 61
2, 26779, Note_on_c, 0, 39, 0
2, 26779, Note_on_c, 0, 76, 63
2, 26779, Note_on_c, 0, 80, 60
2, 26784, Note_on_c, 0, 47, 53
2, 26825, Control_c, 0, 67, 127
2, 26837, Control_c, 0, 64, 127
2, 26913, Note_on_c, 0, 56, 42
2, 26913, Note_on_c, 0, 64, 43
2, 26966, Note_on_c, 0, 64, 0
2, 26966, Note_on_c, 0, 56, 0
2, 27021, Note_on_c, 0, 56, 43
2, 27021, Note_on_c, 0, 64, 45
2, 27023, Note_on_c, 0, 88, 0
2, 27023, Note_on_c, 0, 76, 0
2, 27030, Control_c, 0, 67, 0
2, 27111, Note_on_c, 0, 76, 64
2, 27111, Note_on_c, 0, 88, 59
2, 27138, Note_on_c, 0, 42, 43
2, 27193, Control_c, 0, 67, 127
2, 27201, Control_c, 0, 64, 0
2, 27243, Note_on_c, 0, 56, 0
2, 27243, Note_on_c, 0, 47, 0
2, 27243, Note_on_c, 0, 37, 0
2, 27243, Note_on_c, 0, 80, 0
2, 27243, Note_on_c, 0, 64, 0
2, 27248, Note_on_c, 0, 85, 55
2, 27248, Note_on_c, 0, 90, 60
2, 27254, Note_on_c, 0, 78, 58
2, 27254, Note_on_c, 0, 82, 60
2, 27260, Note_on_c, 0, 49, 44
2, 27260, Note_on_c, 0, 58, 43
2, 27268, Note_on_c, 0, 88, 0
2, 27281, Note_on_c, 0, 76, 0
2, 27381, Control_c, 0, 64, 127
2, 27422, Note_on_c, 0, 35, 41
2, 27475, Note_on_c, 0, 78, 0
2, 27491, Control_c, 0, 64, 0
2, 27504, Note_on_c, 0, 82, 0
2, 27509, Note_on_c, 0, 58, 0
2, 27509, Note_on_c, 0, 49, 0
2, 27509, Note_on_c, 0, 42, 0
2, 27509, Note_on_c, 0, 83, 55
2, 27515, Note_on_c, 0, 71, 43
2, 27515, Note_on_c, 0, 75, 44
2, 27515, Note_on_c, 0, 78, 48
2, 27520, Note_on_c, 0, 47, 52
2, 27523, Note_on_c, 0, 85, 0
2, 27530, Note_on_c, 0, 90, 0
2, 27669, Control_c, 0, 64, 127
2, 27674, Note_on_c, 0, 54, 43
2, 27674, Note_on_c, 0, 63, 47
2, 27740, Note_on_c, 0, 54, 0
2, 27742, Note_on_c, 0, 63, 0
2, 27802, Note_on_c, 0, 54, 45
2, 27804, Note_on_c, 0, 63, 41
2, 27904, Note_on_c, 0, 47, 0
2, 27924, Control_c, 0, 64, 0
2, 27944, Note_on_c, 0, 35, 0
2, 27949, Note_on_c, 0, 47, 45
2, 27975, Note_on_c, 0, 51, 42
2, 28008, Note_on_c, 0, 63, 0
2, 28008, Note_on_c, 0, 54, 0
2, 28010, Note_on_c, 0, 78, 0
2, 28015, Note_on_c, 0, 59, 48
2, 28041, Note_on_c, 0, 69, 60
2, 28047, Note_on_c, 0, 78, 48
2, 28053, Note_on_c, 0, 81, 47
2, 28066, Note_on_c, 0, 71, 0
2, 28066, Note_on_c, 0, 75, 0
2, 28072, Note_on_c, 0, 83, 0
2, 28099, Control_c, 0, 64, 127
2, 28232, Note_on_c, 0, 40, 44
2, 28253, Note_on_c, 0, 47, 0
2, 28258, Control_c, 0, 64, 0
2, 28340, Note_on_c, 0, 68, 65
2, 28345, Note_on_c, 0, 47, 53
2, 28347, Note_on_c, 0, 80, 46
2, 28353, Note_on_c, 0, 76, 44
2, 28366, Note_on_c, 0, 51, 0
2, 28368, Note_on_c, 0, 78, 0
2, 28368, Note_on_c, 0, 81, 0
2, 28373, Note_on_c, 0, 69, 0
2, 28373, Note_on_c, 0, 59, 0
2, 28463, Control_c, 0, 64, 127
2, 28525, Note_on_c, 0, 56, 45
2, 28525, Note_on_c, 0, 59, 43
2, 28570, Note_on_c, 0, 59, 0
2, 28570, Note_on_c, 0, 56, 0
2, 28638, Note_on_c, 0, 56, 43
2, 28638, Note_on_c, 0, 59, 42
2, 28746, Note_on_c, 0, 71, 44
2, 28748, Note_on_c, 0, 83, 44
2, 28805, Note_on_c, 0, 71, 0
2, 28832, Note_on_c, 0, 83, 0
2, 28845, Note_on_c, 0, 76, 0
2, 28855, Note_on_c, 0, 56, 0
2, 28875, Note_on_c, 0, 71, 60
2, 28889, Note_on_c, 0, 83, 43
2, 28896, Note_on_c, 0, 76, 43
2, 28901, Note_on_c, 0, 56, 42
2, 28901, Note_on_c, 0, 64, 46
2, 29066, Control_c, 0, 64, 0
2, 29112, Note_on_c, 0, 47, 0
2, 29145, Note_on_c, 0, 68, 0
2, 29150, Note_on_c, 0, 69, 56
2, 29152, Note_on_c, 0, 40, 0
2, 29157, Note_on_c, 0, 56, 0
2, 29157, Note_on_c, 0, 64, 0
2, 29157, Note_on_c, 0, 42, 43
2, 29157, Note_on_c, 0, 47, 42
2, 29159, Note_on_c, 0, 59, 0
2, 29163, Note_on_c, 0, 75, 44
2, 29163, Note_on_c, 0, 81, 43
2, 29165, Note_on_c, 0, 80, 0
2, 29165, Note_on_c, 0, 76, 0
2, 29165, Note_on_c, 0, 83, 0
2, 29165, Note_on_c, 0, 71, 0
2, 29241, Control_c, 0, 64, 127
2, 29286, Note_on_c, 0, 57, 44
2, 29286, Note_on_c, 0, 59, 43
2, 29342, Note_on_c, 0, 59, 0
2, 29342, Note_on_c, 0, 57, 0
2, 29398, Note_on_c, 0, 57, 48
2, 29400, Note_on_c, 0, 59, 42
2, 29485, Note_on_c, 0, 83, 41
2, 29487, Note_on_c, 0, 69, 0
2, 29493, Note_on_c, 0, 71, 41
2, 29543, Note_on_c, 0, 71, 0
2, 29543, Note_on_c, 0, 81, 0
2, 29563, Note_on_c, 0, 57, 0
2, 29583, Note_on_c, 0, 83, 0
2, 29596, Note_on_c, 0, 75, 0
2, 29607, Note_on_c, 0, 57, 41
2, 29607, Note_on_c, 0, 63, 42
2, 29640, Note_on_c, 0, 71, 57
2, 29653, Note_on_c, 0, 75, 48
2, 29653, Note_on_c, 0, 83, 47
2, 29723, Control_c, 0, 64, 0
2, 29761, Control_c, 0, 67, 0
2, 29777, Note_on_c, 0, 40, 42
2, 29826, Note_on_c, 0, 47, 0
2, 29846, Note_on_c, 0, 42, 0
2, 29880, Note_on_c, 0, 63, 0
2, 29880, Note_on_c, 0, 59, 0
2, 29880, Note_on_c, 0, 68, 57
2, 29884, Note_on_c, 0, 47, 50
2, 29886, Note_on_c, 0, 57, 0
2, 29897, Note_on_c, 0, 76, 47
2, 29897, Note_on_c, 0, 80, 48
2, 29899, Note_on_c, 0, 71, 0
2, 29901, Note_on_c, 0, 75, 0
2, 29906, Note_on_c, 0, 83, 0
2, 29949, Control_c, 0, 64, 127
2, 30022, Note_on_c, 0, 56, 48
2, 30024, Note_on_c, 0, 59, 48
2, 30069, Note_on_c, 0, 59, 0
2, 30069, Note_on_c, 0, 56, 0
2, 30139, Note_on_c, 0, 56, 45
2, 30139, Note_on_c, 0, 59, 47
2, 30219, Note_on_c, 0, 83, 58
2, 30227, Note_on_c, 0, 71, 57
2, 30247, Note_on_c, 0, 76, 0
2, 30297, Note_on_c, 0, 56, 0
2, 30324, Note_on_c, 0, 68, 0
2, 30329, Note_on_c, 0, 83, 0
2, 30353, Note_on_c, 0, 76, 60
2, 30365, Note_on_c, 0, 56, 47
2, 30365, Note_on_c, 0, 68, 49
2, 30365, Note_on_c, 0, 83, 44
2, 30365, Note_on_c, 0, 88, 45
2, 30488, Note_on_c, 0, 35, 48
2, 30494, Control_c, 0, 64, 0
2, 30496, Note_on_c, 0, 47, 0
2, 30585, Note_on_c, 0, 59, 0
2, 30585, Note_on_c, 0, 40, 0
2, 30591, Note_on_c, 0, 75, 57
2, 30596, Note_on_c, 0, 47, 42
2, 30596, Note_on_c, 0, 87, 45
2, 30603, Note_on_c, 0, 83, 0
2, 30603, Note_on_c, 0, 80, 0
2, 30603, Note_on_c, 0, 88, 0
2, 30603, Note_on_c, 0, 76, 0
2, 30603, Note_on_c, 0, 81, 45
2, 30617, Note_on_c, 0, 68, 0
2, 30617, Note_on_c, 0, 71, 0
2, 30617, Note_on_c, 0, 56, 0
2, 30630, Control_c, 0, 67, 127
2, 30669, Control_c, 0, 64, 127
2, 30768, Note_on_c, 0, 57, 46
2, 30768, Note_on_c, 0, 66, 47
2, 30827, Note_on_c, 0, 66, 0
2, 30827, Note_on_c, 0, 57, 0
2, 30885, Note_on_c, 0, 57, 41
2, 30887, Note_on_c, 0, 66, 47
2, 30965, Note_on_c, 0, 75, 0
2, 30965, Note_on_c, 0, 87, 0
2, 30965, Note_on_c, 0, 81, 0
2, 30989, Note_on_c, 0, 73, 50
2, 30989, Note_on_c, 0, 85, 54
2, 31065, Note_on_c, 0, 57, 0
2, 31067, Note_on_c, 0, 66, 0
2, 31091, Note_on_c, 0, 59, 41
2, 31091, Note_on_c, 0, 63, 43
2, 31100, Note_on_c, 0, 73, 0
2, 31100, Note_on_c, 0, 85, 0
2, 31104, Note_on_c, 0, 78, 54
2, 31104, Note_on_c, 0, 81, 48
2, 31109, Note_on_c, 0, 69, 48
2, 31240, Note_on_c, 0, 40, 45
2, 31252, Control_c, 0, 64, 0
2, 31292, Note_on_c, 0, 47, 0
2, 31322, Note_on_c, 0, 59, 0
2, 31322, Note_on_c, 0, 35, 0
2, 31322, Note_on_c, 0, 63, 0
2, 31327, Note_on_c, 0, 68, 59
2, 31332, Note_on_c, 0, 47, 52
2, 31348, Note_on_c, 0, 78, 0
2, 31348, Note_on_c, 0, 69, 0
2, 31348, Note_on_c, 0, 81, 0
2, 31348, Note_on_c, 0, 76, 42
2, 31348, Note_on_c, 0, 80, 42
2, 31427, Control_c, 0, 64, 127
2, 31453, Note_on_c, 0, 56, 44
2, 31453, Note_on_c, 0, 59, 46
2, 31492, Note_on_c, 0, 56, 0
2, 31494, Note_on_c, 0, 59, 0
2, 31562, Note_on_c, 0, 56, 43
2, 31562, Note_on_c, 0, 59, 46
2, 31658, Note_on_c, 0, 71, 54
2, 31658, Note_on_c, 0, 83, 50
2, 31684, Note_on_c, 0, 56, 0
2, 31690, Note_on_c, 0, 71, 0
2, 31724, Note_on_c, 0, 83, 0
2, 31731, Note_on_c, 0, 76, 0
2, 31762, Note_on_c, 0, 56, 46
2, 31762, Note_on_c, 0, 64, 42
2, 31768, Note_on_c, 0, 71, 65
2, 31788, Note_on_c, 0, 76, 44
2, 31788, Note_on_c, 0, 83, 41
2, 31835, Control_c, 0, 67, 0
2, 31884, Note_on_c, 0, 47, 0
2, 31896, Control_c, 0, 64, 0
2, 31896, Note_on_c, 0, 39, 47
2, 31918, Note_on_c, 0, 71, 0
2, 31928, Note_on_c, 0, 47, 48
2, 31936, Note_on_c, 0, 66, 64
2, 31957, Note_on_c, 0, 68, 0
2, 31957, Note_on_c, 0, 40, 0
2, 31957, Note_on_c, 0, 64, 0
2, 31957, Note_on_c, 0, 59, 0
2, 31957, Note_on_c, 0, 56, 0
2, 31975, Note_on_c, 0, 71, 47
2, 32010, Note_on_c, 0, 78, 48
2, 32017, Note_on_c, 0, 80, 0
2, 32017, Note_on_c, 0, 76, 0
2, 32017, Note_on_c, 0, 83, 0
2, 32104, Control_c, 0, 64, 127
2, 32125, Note_on_c, 0, 54, 42
2, 32125, Note_on_c, 0, 59, 41
2, 32177, Note_on_c, 0, 54, 0
2, 32179, Note_on_c, 0, 59, 0
2, 32231, Note_on_c, 0, 71, 0
2, 32241, Note_on_c, 0, 54, 45
2, 32241, Note_on_c, 0, 59, 41
2, 32348, Note_on_c, 0, 71, 57
2, 32348, Note_on_c, 0, 83, 54
2, 32392, Note_on_c, 0, 71, 0
2, 32404, Note_on_c, 0, 66, 0
2, 32412, Note_on_c, 0, 83, 0
2, 32418, Note_on_c, 0, 54, 0
2, 32457, Note_on_c, 0, 71, 61
2, 32463, Note_on_c, 0, 66, 67
2, 32463, Note_on_c, 0, 83, 62
2, 32468, Note_on_c, 0, 54, 46
2, 32544, Control_c, 0, 64, 0
2, 32575, Note_on_c, 0, 37, 49
2, 32642, Note_on_c, 0, 47, 0
2, 32676, Note_on_c, 0, 76, 65
2, 32682, Note_on_c, 0, 54, 0
2, 32682, Note_on_c, 0, 59, 0
2, 32682, Note_on_c, 0, 39, 0
2, 32684, Note_on_c, 0, 78, 0
2, 32684, Note_on_c, 0, 66, 0
2, 32687, Note_on_c, 0, 47, 53
2, 32694, Note_on_c, 0, 88, 42
2, 32700, Note_on_c, 0, 80, 44
2, 32708, Note_on_c, 0, 71, 0
2, 32710, Note_on_c, 0, 83, 0
2, 32761, Control_c, 0, 67, 127
2, 32808, Control_c, 0, 64, 127
2, 32834, Note_on_c, 0, 56, 54
2, 32834, Note_on_c, 0, 64, 53
2, 32907, Note_on_c, 0, 56, 0
2, 32909, Note_on_c, 0, 64, 0
2, 32967, Note_on_c, 0, 88, 0
2, 32969, Note_on_c, 0, 56, 49
2, 32971, Note_on_c, 0, 64, 49
2, 32974, Note_on_c, 0, 76, 0
2, 33000, Control_c, 0, 67, 0
2, 33051, Note_on_c, 0, 76, 66
2, 33051, Note_on_c, 0, 88, 66
2, 33094, Note_on_c, 0, 42, 46
2, 33107, Note_on_c, 0, 37, 0
2, 33130, Control_c, 0, 67, 127
2, 33144, Control_c, 0, 64, 0
2, 33183, Note_on_c, 0, 47, 0
2, 33185, Note_on_c, 0, 80, 0
2, 33200, Note_on_c, 0, 49, 47
2, 33208, Note_on_c, 0, 78, 55
2, 33213, Note_on_c, 0, 58, 49
2, 33215, Note_on_c, 0, 82, 48
2, 33220, Note_on_c, 0, 56, 0
2, 33220, Note_on_c, 0, 64, 0
2, 33220, Note_on_c, 0, 85, 41
2, 33220, Note_on_c, 0, 90, 43
2, 33223, Note_on_c, 0, 76, 0
2, 33229, Note_on_c, 0, 88, 0
2, 33312, Control_c, 0, 64, 127
2, 33405, Note_on_c, 0, 35, 46
2, 33454, Note_on_c, 0, 78, 0
2, 33456, Control_c, 0, 64, 0
2, 33472, Note_on_c, 0, 42, 0
2, 33484, Note_on_c, 0, 71, 48
2, 33490, Note_on_c, 0, 47, 52
2, 33492, Note_on_c, 0, 75, 46
2, 33492, Note_on_c, 0, 78, 42
2, 33492, Note_on_c, 0, 83, 46
2, 33507, Note_on_c, 0, 82, 0
2, 33507, Note_on_c, 0, 90, 0
2, 33507, Note_on_c, 0, 85, 0
2, 33510, Note_on_c, 0, 58, 0
2, 33512, Note_on_c, 0, 49, 0
2, 33637, Note_on_c, 0, 63, 46
2, 33645, Note_on_c, 0, 54, 46
2, 33669, Control_c, 0, 64, 127
2, 33716, Note_on_c, 0, 54, 0
2, 33716, Note_on_c, 0, 63, 0
2, 33784, Note_on_c, 0, 54, 43
2, 33784, Note_on_c, 0, 63, 47
2, 33873, Control_c, 0, 64, 0
2, 33965, Note_on_c, 0, 71, 0
2, 33965, Note_on_c, 0, 83, 0
2, 33994, Note_on_c, 0, 35, 0
2, 33996, Note_on_c, 0, 47, 0
2, 34001, Note_on_c, 0, 51, 45
2, 34014, Note_on_c, 0, 59, 44
2, 34020, Note_on_c, 0, 54, 0
2, 34028, Note_on_c, 0, 63, 0
2, 34032, Note_on_c, 0, 71, 48
2, 34034, Note_on_c, 0, 83, 53
2, 34048, Note_on_c, 0, 78, 0
2, 34048, Note_on_c, 0, 75, 0
2, 34084, Control_c, 0, 64, 127
2, 34239, Note_on_c, 0, 47, 53
2, 34260, Note_on_c, 0, 83, 0
2, 34273, Note_on_c, 0, 71, 0
2, 34331, Note_on_c, 0, 59, 0
2, 34331, Note_on_c, 0, 51, 0
2, 34336, Control_c, 0, 64, 0
2, 34338, Note_on_c, 0, 71, 56
2, 34340, Note_on_c, 0, 75, 59
2, 34340, Note_on_c, 0, 78, 59
2, 34340, Note_on_c, 0, 83, 57
2, 34491, Note_on_c, 0, 51, 43
2, 34491, Note_on_c, 0, 54, 41
2, 34530, Control_c, 0, 64, 127
2, 34550, Note_on_c, 0, 54, 0
2, 34552, Note_on_c, 0, 51, 0
2, 34607, Note_on_c, 0, 54, 43
2, 34608, Note_on_c, 0, 51, 46
2, 34700, Note_on_c, 0, 71, 0
2, 34700, Note_on_c, 0, 83, 0
2, 34704, Note_on_c, 0, 84, 46
2, 34706, Note_on_c, 0, 72, 41
2, 34782, Note_on_c, 0, 72, 0
2, 34782, Note_on_c, 0, 75, 0
2, 34782, Note_on_c, 0, 78, 0
2, 34782, Note_on_c, 0, 84, 0
2, 34795, Note_on_c, 0, 51, 0
2, 34795, Note_on_c, 0, 54, 0
2, 34819, Control_c, 0, 64, 0
2, 34822, Note_on_c, 0, 47, 0
2, 34824, Note_on_c, 0, 45, 48
2, 34826, Note_on_c, 0, 84, 54
2, 34828, Note_on_c, 0, 72, 52
2, 34828, Note_on_c, 0, 75, 51
2, 34828, Note_on_c, 0, 78, 53
2, 34831, Note_on_c, 0, 54, 42
2, 34833, Note_on_c, 0, 51, 45
2, 35003, Note_on_c, 0, 47, 62
2, 35032, Note_on_c, 0, 78, 0
2, 35032, Note_on_c, 0, 75, 0
2, 35063, Note_on_c, 0, 84, 0
2, 35067, Note_on_c, 0, 54, 0
2, 35067, Note_on_c, 0, 45, 0
2, 35067, Note_on_c, 0, 51, 0
2, 35067, Note_on_c, 0, 83, 55
2, 35069, Note_on_c, 0, 72, 0
2, 35074, Note_on_c, 0, 71, 58
2, 35076, Note_on_c, 0, 75, 58
2, 35076, Note_on_c, 0, 78, 59
2, 35155, Control_c, 0, 64, 127
2, 35186, Note_on_c, 0, 51, 44
2, 35186, Note_on_c, 0, 54, 41
2, 35231, Note_on_c, 0, 54, 0
2, 35232, Note_on_c, 0, 51, 0
2, 35303, Note_on_c, 0, 51, 45
2, 35303, Note_on_c, 0, 54, 45
2, 35357, Note_on_c, 0, 83, 0
2, 35362, Note_on_c, 0, 81, 51
2, 35364, Note_on_c, 0, 71, 0
2, 35369, Note_on_c, 0, 69, 49
2, 35436, Note_on_c, 0, 78, 0
2, 35436, Note_on_c, 0, 75, 0
2, 35436, Note_on_c, 0, 81, 0
2, 35441, Note_on_c, 0, 54, 0
2, 35441, Note_on_c, 0, 51, 0
2, 35443, Note_on_c, 0, 69, 0
2, 35446, Control_c, 0, 64, 0
2, 35482, Note_on_c, 0, 47, 0
2, 35482, Note_on_c, 0, 69, 49
2, 35482, Note_on_c, 0, 75, 52
2, 35482, Note_on_c, 0, 78, 53
2, 35482, Note_on_c, 0, 81, 51
2, 35488, Note_on_c, 0, 48, 66
2, 35493, Note_on_c, 0, 51, 48
2, 35493, Note_on_c, 0, 54, 45
2, 35561, Note_on_c, 0, 48, 0
2, 35652, Note_on_c, 0, 48, 63
2, 35699, Note_on_c, 0, 51, 0
2, 35699, Note_on_c, 0, 54, 0
2, 35705, Note_on_c, 0, 67, 65
2, 35705, Note_on_c, 0, 76, 61
2, 35705, Note_on_c, 0, 79, 63
2, 35718, Note_on_c, 0, 75, 0
2, 35718, Note_on_c, 0, 69, 0
2, 35720, Note_on_c, 0, 81, 0
2, 35725, Note_on_c, 0, 78, 0
2, 35801, Control_c, 0, 64, 127
2, 35808, Note_on_c, 0, 52, 47
2, 35808, Note_on_c, 0, 55, 44
2, 35860, Note_on_c, 0, 55, 0
2, 35860, Note_on_c, 0, 52, 0
2, 35918, Note_on_c, 0, 52, 41
2, 35918, Note_on_c, 0, 55, 43
2, 35949, Control_c, 0, 67, 0
2, 35996, Note_on_c, 0, 67, 0
2, 35998, Note_on_c, 0, 76, 0
2, 35998, Note_on_c, 0, 79, 0
2, 36002, Note_on_c, 0, 48, 0
2, 36002, Note_on_c, 0, 69, 58
2, 36002, Note_on_c, 0, 81, 58
2, 36045, Note_on_c, 0, 48, 42
2, 36053, Note_on_c, 0, 69, 0
2, 36055, Note_on_c, 0, 81, 0
2, 36060, Note_on_c, 0, 52, 0
2, 36065, Note_on_c, 0, 51, 48
2, 36083, Control_c, 0, 64, 0
2, 36085, Note_on_c, 0, 55, 0
2, 36090, Note_on_c, 0, 54, 49
2, 36097, Note_on_c, 0, 69, 61
2, 36099, Note_on_c, 0, 78, 65
2, 36099, Note_on_c, 0, 81, 65
2, 36155, Note_on_c, 0, 48, 0
2, 36234, Note_on_c, 0, 48, 62
2, 36286, Note_on_c, 0, 51, 0
2, 36286, Note_on_c, 0, 54, 0
2, 36293, Note_on_c, 0, 67, 64
2, 36293, Note_on_c, 0, 76, 59
2, 36293, Note_on_c, 0, 79, 65
2, 36307, Note_on_c, 0, 69, 0
2, 36309, Note_on_c, 0, 78, 0
2, 36309, Note_on_c, 0, 81, 0
2, 36363, Control_c, 0, 64, 127
2, 36408, Note_on_c, 0, 52, 47
2, 36408, Note_on_c, 0, 55, 49
2, 36429, Note_on_c, 0, 55, 0
2, 36456, Note_on_c, 0, 52, 0
2, 36504, Note_on_c, 0, 52, 48
2, 36504, Note_on_c, 0, 55, 49
2, 36578, Note_on_c, 0, 76, 0
2, 36578, Note_on_c, 0, 79, 0
2, 36583, Note_on_c, 0, 67, 0
2, 36583, Note_on_c, 0, 78, 49
2, 36589, Note_on_c, 0, 66, 48
2, 36641, Note_on_c, 0, 66, 0
2, 36641, Note_on_c, 0, 78, 0
2, 36646, Note_on_c, 0, 54, 58
2, 36658, Control_c, 0, 64, 0
2, 36679, Note_on_c, 0, 52, 0
2, 36679, Note_on_c, 0, 55, 0
2, 36685, Note_on_c, 0, 63, 48
2, 36685, Note_on_c, 0, 66, 64
2, 36685, Note_on_c, 0, 75, 65
2, 36685, Note_on_c, 0, 78, 60
2, 36747, Note_on_c, 0, 48, 0
2, 36823, Note_on_c, 0, 48, 69
2, 36901, Note_on_c, 0, 70, 59
2, 36937, Note_on_c, 0, 66, 0
2, 36937, Note_on_c, 0, 54, 0
2, 36937, Note_on_c, 0, 63, 0
2, 36939, Note_on_c, 0, 75, 0
2, 36939, Note_on_c, 0, 78, 0
2, 36944, Note_on_c, 0, 76, 58
2, 36996, Control_c, 0, 64, 127
2, 37020, Note_on_c, 0, 55, 45
2, 37020, Note_on_c, 0, 58, 41
2, 37020, Note_on_c, 0, 64, 41
2, 37056, Note_on_c, 0, 58, 0
2, 37058, Note_on_c, 0, 55, 0
2, 37058, Note_on_c, 0, 64, 0
2, 37107, Note_on_c, 0, 55, 46
2, 37107, Note_on_c, 0, 58, 46
2, 37107, Note_on_c, 0, 64, 48
2, 37178, Note_on_c, 0, 76, 0
2, 37189, Note_on_c, 0, 78, 54
2, 37228, Note_on_c, 0, 58, 0
2, 37239, Control_c, 0, 64, 0
2, 37241, Note_on_c, 0, 55, 0
2, 37247, Note_on_c, 0, 54, 46
2, 37262, Note_on_c, 0, 78, 0
2, 37267, Note_on_c, 0, 64, 0
2, 37272, Note_on_c, 0, 58, 42
2, 37335, Note_on_c, 0, 63, 47
2, 37341, Note_on_c, 0, 78, 66
2, 37368, Note_on_c, 0, 48, 0
2, 37407, Note_on_c, 0, 58, 0
2, 37409, Note_on_c, 0, 63, 0
2, 37414, Note_on_c, 0, 48, 45
2, 37461, Note_on_c, 0, 55, 47
2, 37474, Note_on_c, 0, 54, 0
2, 37482, Note_on_c, 0, 70, 0
2, 37502, Note_on_c, 0, 58, 42
2, 37529, Note_on_c, 0, 78, 0
2, 37534, Note_on_c, 0, 70, 64
2, 37536, Note_on_c, 0, 76, 63
2, 37585, Control_c, 0, 64, 127
2, 37599, Note_on_c, 0, 67, 71
2, 37832, Control_c, 0, 64, 0
2, 37864, Note_on_c, 0, 67, 0
2, 37864, Note_on_c, 0, 55, 0
2, 37864, Note_on_c, 0, 48, 0
2, 37864, Note_on_c, 0, 70, 0
2, 37869, Note_on_c, 0, 54, 59
2, 37871, Note_on_c, 0, 66, 65
2, 37942, Control_c, 0, 67, 127
2, 37992, Control_c, 0, 64, 127
2, 37992, Note_on_c, 0, 70, 57
2, 38025, Note_on_c, 0, 70, 0
2, 38083, Note_on_c, 0, 76, 0
2, 38088, Note_on_c, 0, 70, 55
2, 38089, Note_on_c, 0, 66, 0
2, 38094, Note_on_c, 0, 52, 64
2, 38094, Note_on_c, 0, 64, 62
2, 38112, Control_c, 0, 64, 0
2, 38118, Note_on_c, 0, 58, 0
2, 38118, Note_on_c, 0, 54, 0
2, 38270, Note_on_c, 0, 64, 0
2, 38276, Note_on_c, 0, 47, 50
2, 38296, Note_on_c, 0, 52, 0
2, 38367, Note_on_c, 0, 71, 66
2, 38394, Note_on_c, 0, 70, 0
2, 38406, Control_c, 0, 64, 127
2, 38516, Note_on_c, 0, 51, 44
2, 38520, Note_on_c, 0, 54, 42
2, 38520, Note_on_c, 0, 63, 42
2, 38584, Note_on_c, 0, 63, 0
2, 38584, Note_on_c, 0, 54, 0
2, 38652, Note_on_c, 0, 54, 41
2, 38652, Note_on_c, 0, 63, 44
2, 38740, Note_on_c, 0, 83, 58
2, 38808, Note_on_c, 0, 83, 0
2, 38825, Control_c, 0, 64, 0
2, 38864, Note_on_c, 0, 47, 0
2, 38864, Note_on_c, 0, 51, 0
2, 38869, Note_on_c, 0, 49, 46
2, 38871, Note_on_c, 0, 83, 52
2, 38877, Note_on_c, 0, 52, 48
2, 38877, Note_on_c, 0, 61, 45
2, 38882, Note_on_c, 0, 63, 0
2, 38882, Note_on_c, 0, 54, 0
2, 38932, Control_c, 0, 64, 127
2, 39024, Note_on_c, 0, 71, 0
2, 39054, Control_c, 0, 64, 0
2, 39074, Note_on_c, 0, 47, 53
2, 39106, Note_on_c, 0, 83, 0
2, 39106, Note_on_c, 0, 52, 0
2, 39106, Note_on_c, 0, 49, 0
2, 39106, Note_on_c, 0, 61, 0
2, 39111, Note_on_c, 0, 71, 49
2, 39197, Control_c, 0, 64, 127
2, 39247, Note_on_c, 0, 51, 43
2, 39249, Note_on_c, 0, 59, 41
2, 39328, Note_on_c, 0, 59, 0
2, 39328, Note_on_c, 0, 51, 0
2, 39406, Note_on_c, 0, 51, 48
2, 39406, Note_on_c, 0, 59, 46
2, 39516, Note_on_c, 0, 83, 46
2, 39616, Note_on_c, 0, 83, 0
2, 39648, Control_c, 0, 64, 0
2, 39672, Note_on_c, 0, 83, 43
2, 39673, Note_on_c, 0, 47, 0
2, 39678, Note_on_c, 0, 49, 47
2, 39678, Note_on_c, 0, 57, 48
2, 39705, Note_on_c, 0, 59, 0
2, 39705, Note_on_c, 0, 51, 0
2, 39781, Control_c, 0, 64, 127
2, 39890, Note_on_c, 0, 40, 46
2, 39909, Control_c, 0, 64, 0
2, 39961, Note_on_c, 0, 49, 0
2, 39961, Note_on_c, 0, 57, 0
2, 39963, Note_on_c, 0, 83, 0
2, 39976, Note_on_c, 0, 71, 0
2, 40007, Note_on_c, 0, 71, 54
2, 40014, Note_on_c, 0, 47, 48
2, 40014, Note_on_c, 0, 68, 54
2, 40104, Control_c, 0, 64, 127
2, 40190, Note_on_c, 0, 56, 47
2, 40190, Note_on_c, 0, 59, 48
2, 40258, Note_on_c, 0, 56, 0
2, 40260, Note_on_c, 0, 59, 0
2, 40316, Note_on_c, 0, 56, 41
2, 40318, Note_on_c, 0, 59, 44
2, 40414, Note_on_c, 0, 71, 0
2, 40458, Note_on_c, 0, 71, 49
2, 40458, Note_on_c, 0, 83, 47
2, 40536, Note_on_c, 0, 83, 0
2, 40536, Note_on_c, 0, 71, 0
2, 40546, Note_on_c, 0, 56, 0
2, 40578, Note_on_c, 0, 83, 47
2, 40584, Note_on_c, 0, 71, 41
2, 40588, Note_on_c, 0, 56, 44
2, 40588, Note_on_c, 0, 64, 48
2, 40760, Control_c, 0, 64, 0
2, 40799, Note_on_c, 0, 47, 0
2, 40835, Note_on_c, 0, 64, 0
2, 40835, Note_on_c, 0, 56, 0
2, 40837, Note_on_c, 0, 68, 0
2, 40837, Note_on_c, 0, 59, 0
2, 40837, Note_on_c, 0, 83, 0
2, 40837, Note_on_c, 0, 71, 0
2, 40837, Note_on_c, 0, 40, 0
2, 40842, Note_on_c, 0, 42, 48
2, 40844, Note_on_c, 0, 47, 43
2, 40844, Note_on_c, 0, 81, 58
2, 40849, Note_on_c, 0, 69, 47
2, 40849, Note_on_c, 0, 75, 46
2, 40907, Control_c, 0, 64, 127
2, 40996, Note_on_c, 0, 57, 42
2, 40996, Note_on_c, 0, 59, 44
2, 41041, Note_on_c, 0, 59, 0
2, 41041, Note_on_c, 0, 57, 0
2, 41112, Note_on_c, 0, 57, 47
2, 41113, Note_on_c, 0, 59, 48
2, 41217, Note_on_c, 0, 81, 0
2, 41217, Note_on_c, 0, 69, 0
2, 41241, Note_on_c, 0, 71, 50
2, 41241, Note_on_c, 0, 83, 53
2, 41311, Note_on_c, 0, 83, 0
2, 41311, Note_on_c, 0, 75, 0
2, 41311, Note_on_c, 0, 57, 0
2, 41311, Note_on_c, 0, 71, 0
2, 41352, Note_on_c, 0, 42, 0
2, 41352, Note_on_c, 0, 47, 0
2, 41355, Note_on_c, 0, 57, 48
2, 41355, Note_on_c, 0, 63, 46
2, 41355, Note_on_c, 0, 71, 50
2, 41355, Note_on_c, 0, 75, 47
2, 41355, Note_on_c, 0, 83, 53
2, 41363, Control_c, 0, 64, 0
2, 41517, Note_on_c, 0, 40, 41
2, 41595, Note_on_c, 0, 71, 0
2, 41595, Note_on_c, 0, 63, 0
2, 41595, Note_on_c, 0, 59, 0
2, 41595, Note_on_c, 0, 57, 0
2, 41597, Note_on_c, 0, 83, 0
2, 41597, Note_on_c, 0, 75, 0
2, 41600, Note_on_c, 0, 80, 59
2, 41608, Note_on_c, 0, 68, 44
2, 41608, Note_on_c, 0, 76, 46
2, 41634, Note_on_c, 0, 47, 53
2, 41640, Control_c, 0, 64, 127
2, 41754, Note_on_c, 0, 56, 45
2, 41754, Note_on_c, 0, 59, 42
2, 41801, Note_on_c, 0, 59, 0
2, 41801, Note_on_c, 0, 56, 0
2, 41872, Note_on_c, 0, 56, 48
2, 41872, Note_on_c, 0, 59, 45
2, 41968, Note_on_c, 0, 71, 63
2, 41968, Note_on_c, 0, 83, 65
2, 42002, Note_on_c, 0, 76, 0
2, 42045, Note_on_c, 0, 83, 0
2, 42045, Note_on_c, 0, 68, 0
2, 42045, Note_on_c, 0, 56, 0
2, 42089, Note_on_c, 0, 56, 42
2, 42091, Note_on_c, 0, 76, 54
2, 42091, Note_on_c, 0, 83, 57
2, 42091, Note_on_c, 0, 88, 60
2, 42096, Note_on_c, 0, 68, 46
2, 42117, Note_on_c, 0, 71, 0
2, 42143, Control_c, 0, 64, 0
2, 42257, Note_on_c, 0, 35, 44
2, 42302, Note_on_c, 0, 40, 0
2, 42320, Note_on_c, 0, 47, 0
2, 42338, Note_on_c, 0, 80, 0
2, 42355, Note_on_c, 0, 75, 59
2, 42355, Note_on_c, 0, 87, 58
2, 42360, Note_on_c, 0, 47, 52
2, 42362, Note_on_c, 0, 68, 0
2, 42362, Note_on_c, 0, 59, 0
2, 42362, Note_on_c, 0, 56, 0
2, 42362, Note_on_c, 0, 81, 47
2, 42370, Note_on_c, 0, 88, 0
2, 42376, Note_on_c, 0, 83, 0
2, 42376, Note_on_c, 0, 76, 0
2, 42407, Control_c, 0, 64, 127
2, 42532, Note_on_c, 0, 57, 48
2, 42532, Note_on_c, 0, 66, 48
2, 42602, Note_on_c, 0, 57, 0
2, 42604, Note_on_c, 0, 66, 0
2, 42648, Note_on_c, 0, 57, 44
2, 42648, Note_on_c, 0, 66, 41
2, 42730, Note_on_c, 0, 87, 0
2, 42730, Note_on_c, 0, 81, 0
2, 42730, Note_on_c, 0, 75, 0
2, 42739, Note_on_c, 0, 73, 52
2, 42741, Note_on_c, 0, 85, 52
2, 42765, Control_c, 0, 64, 0
2, 42850, Note_on_c, 0, 59, 46
2, 42850, Note_on_c, 0, 63, 45
2, 42858, Note_on_c, 0, 57, 0
2, 42864, Note_on_c, 0, 69, 49
2, 42864, Note_on_c, 0, 78, 53
2, 42864, Note_on_c, 0, 81, 51
2, 42869, Note_on_c, 0, 66, 0
2, 42875, Note_on_c, 0, 73, 0
2, 42877, Note_on_c, 0, 85, 0
2, 42932, Control_c, 0, 64, 127
2, 42947, Control_c, 0, 67, 0
2, 43002, Note_on_c, 0, 40, 44
2, 43008, Control_c, 0, 64, 0
2, 43015, Note_on_c, 0, 47, 0
2, 43055, Note_on_c, 0, 35, 0
2, 43059, Note_on_c, 0, 47, 55
2, 43104, Note_on_c, 0, 68, 60
2, 43104, Note_on_c, 0, 76, 66
2, 43104, Note_on_c, 0, 80, 66
2, 43106, Note_on_c, 0, 59, 0
2, 43132, Note_on_c, 0, 69, 0
2, 43132, Note_on_c, 0, 63, 0
2, 43138, Note_on_c, 0, 81, 0
2, 43138, Note_on_c, 0, 78, 0
2, 43196, Control_c, 0, 64, 127
2, 43209, Note_on_c, 0, 56, 41
2, 43209, Note_on_c, 0, 59, 45
2, 43279, Note_on_c, 0, 59, 0
2, 43279, Note_on_c, 0, 56, 0
2, 43329, Note_on_c, 0, 56, 46
2, 43329, Note_on_c, 0, 59, 46
2, 43436, Note_on_c, 0, 71, 54
2, 43436, Note_on_c, 0, 83, 53
2, 43499, Note_on_c, 0, 56, 0
2, 43505, Note_on_c, 0, 71, 0
2, 43507, Note_on_c, 0, 83, 0
2, 43507, Note_on_c, 0, 80, 0
2, 43545, Note_on_c, 0, 56, 44
2, 43550, Note_on_c, 0, 64, 43
2, 43552, Note_on_c, 0, 71, 62
2, 43552, Note_on_c, 0, 80, 67
2, 43552, Note_on_c, 0, 83, 66
2, 43687, Note_on_c, 0, 40, 0
2, 43692, Note_on_c, 0, 39, 53
2, 43698, Control_c, 0, 64, 0
2, 43719, Note_on_c, 0, 83, 0
2, 43739, Note_on_c, 0, 47, 0
2, 43745, Note_on_c, 0, 71, 0
2, 43747, Note_on_c, 0, 80, 0
2, 43778, Note_on_c, 0, 64, 0
2, 43778, Note_on_c, 0, 56, 0
2, 43780, Note_on_c, 0, 68, 0
2, 43780, Note_on_c, 0, 59, 0
2, 43786, Note_on_c, 0, 47, 72
2, 43789, Note_on_c, 0, 76, 0
2, 43792, Note_on_c, 0, 71, 70
2, 43794, Note_on_c, 0, 80, 69
2, 43794, Note_on_c, 0, 83, 71
2, 43880, Control_c, 0, 64, 127
2, 43938, Note_on_c, 0, 56, 61
2, 43940, Note_on_c, 0, 59, 59
2, 44010, Note_on_c, 0, 56, 0
2, 44012, Note_on_c, 0, 59, 0
2, 44064, Note_on_c, 0, 56, 59
2, 44064, Note_on_c, 0, 59, 58
2, 44065, Note_on_c, 0, 80, 0
2, 44164, Note_on_c, 0, 80, 67
2, 44164, Note_on_c, 0, 92, 68
2, 44220, Note_on_c, 0, 56, 0
2, 44262, Note_on_c, 0, 56, 51
2, 44262, Note_on_c, 0, 68, 42
2, 44264, Note_on_c, 0, 83, 0
2, 44266, Note_on_c, 0, 92, 0
2, 44266, Note_on_c, 0, 80, 0
2, 44307, Note_on_c, 0, 83, 67
2, 44309, Note_on_c, 0, 80, 65
2, 44309, Note_on_c, 0, 92, 70
2, 44452, Note_on_c, 0, 83, 0
2, 44457, Control_c, 0, 64, 0
2, 44459, Note_on_c, 0, 71, 0
2, 44464, Note_on_c, 0, 35, 50
2, 44517, Note_on_c, 0, 39, 0
2, 44519, Note_on_c, 0, 47, 0
2, 44555, Note_on_c, 0, 47, 67
2, 44557, Note_on_c, 0, 56, 0
2, 44557, Note_on_c, 0, 68, 0
2, 44557, Note_on_c, 0, 59, 0
2, 44557, Note_on_c, 0, 71, 65
2, 44557, Note_on_c, 0, 83, 69
2, 44570, Note_on_c, 0, 92, 0
2, 44570, Note_on_c, 0, 80, 0
2, 44607, Control_c, 0, 64, 127
2, 44692, Control_c, 0, 67, 127
2, 44718, Note_on_c, 0, 80, 58
2, 44718, Note_on_c, 0, 92, 54
2, 44812, Control_c, 0, 64, 0
2, 44864, Note_on_c, 0, 47, 0
2, 44864, Note_on_c, 0, 35, 0
2, 44864, Note_on_c, 0, 93, 54
2, 44866, Note_on_c, 0, 71, 0
2, 44866, Note_on_c, 0, 83, 0
2, 44869, Note_on_c, 0, 57, 47
2, 44869, Note_on_c, 0, 61, 47
2, 44877, Note_on_c, 0, 66, 48
2, 44877, Note_on_c, 0, 81, 41
2, 44877, Note_on_c, 0, 85, 48
2, 44892, Note_on_c, 0, 92, 0
2, 44904, Note_on_c, 0, 80, 0
2, 44991, Control_c, 0, 64, 127
2, 45120, Control_c, 0, 64, 0
2, 45156, Note_on_c, 0, 83, 54
2, 45156, Note_on_c, 0, 87, 56
2, 45158, Note_on_c, 0, 57, 0
2, 45158, Note_on_c, 0, 61, 0
2, 45160, Note_on_c, 0, 66, 0
2, 45163, Note_on_c, 0, 47, 44
2, 45163, Note_on_c, 0, 54, 42
2, 45163, Note_on_c, 0, 59, 41
2, 45165, Note_on_c, 0, 75, 60
2, 45186, Note_on_c, 0, 85, 0
2, 45191, Note_on_c, 0, 81, 0
2, 45191, Note_on_c, 0, 93, 0
2, 45280, Control_c, 0, 64, 127
2, 45313, Note_on_c, 0, 81, 42
2, 45376, Note_on_c, 0, 40, 47
2, 45384, Control_c, 0, 64, 0
2, 45397, Note_on_c, 0, 47, 0
2, 45435, Note_on_c, 0, 59, 0
2, 45435, Note_on_c, 0, 75, 0
2, 45435, Note_on_c, 0, 54, 0
2, 45440, Note_on_c, 0, 47, 53
2, 45475, Note_on_c, 0, 76, 49
2, 45475, Note_on_c, 0, 80, 52
2, 45475, Note_on_c, 0, 88, 48
2, 45508, Note_on_c, 0, 83, 0
2, 45508, Note_on_c, 0, 81, 0
2, 45508, Note_on_c, 0, 87, 0
2, 45547, Control_c, 0, 64, 127
2, 45644, Note_on_c, 0, 56, 48
2, 45651, Note_on_c, 0, 59, 47
2, 45717, Note_on_c, 0, 56, 0
2, 45724, Note_on_c, 0, 59, 0
2, 45800, Note_on_c, 0, 56, 48
2, 45802, Note_on_c, 0, 59, 42
2, 45938, Control_c, 0, 64, 0
2, 46011, Note_on_c, 0, 44, 59
2, 46097, Note_on_c, 0, 59, 0
2, 46097, Note_on_c, 0, 56, 0
2, 46097, Note_on_c, 0, 47, 0
2, 46097, Note_on_c, 0, 40, 0
2, 46099, Note_on_c, 0, 76, 0
2, 46099, Note_on_c, 0, 88, 0
2, 46099, Note_on_c, 0, 80, 0
2, 46104, Note_on_c, 0, 71, 54
2, 46104, Note_on_c, 0, 83, 54
2, 46152, Control_c, 0, 64, 127
2, 46324, Note_on_c, 0, 47, 66
2, 46361, Control_c, 0, 64, 0
2, 46371, Note_on_c, 0, 83, 0
2, 46377, Note_on_c, 0, 71, 0
2, 46388, Note_on_c, 0, 44, 0
2, 46415, Note_on_c, 0, 83, 61
2, 46419, Note_on_c, 0, 71, 55
2, 46421, Note_on_c, 0, 78, 60
2, 46426, Note_on_c, 0, 75, 54
2, 46552, Control_c, 0, 64, 127
2, 46583, Note_on_c, 0, 51, 43
2, 46583, Note_on_c, 0, 54, 44
2, 46666, Note_on_c, 0, 54, 0
2, 46668, Note_on_c, 0, 51, 0
2, 46715, Note_on_c, 0, 51, 48
2, 46715, Note_on_c, 0, 54, 48
2, 46814, Note_on_c, 0, 71, 0
2, 46816, Note_on_c, 0, 83, 0
2, 46819, Note_on_c, 0, 72, 52
2, 46819, Note_on_c, 0, 84, 47
2, 46864, Control_c, 0, 64, 0
2, 46900, Note_on_c, 0, 84, 0
2, 46900, Note_on_c, 0, 75, 0
2, 46900, Note_on_c, 0, 78, 0
2, 46900, Note_on_c, 0, 72, 0
2, 46924, Note_on_c, 0, 54, 0
2, 46924, Note_on_c, 0, 51, 0
2, 46937, Note_on_c, 0, 45, 44
2, 46945, Note_on_c, 0, 47, 0
2, 46945, Note_on_c, 0, 72, 58
2, 46945, Note_on_c, 0, 75, 58
2, 46945, Note_on_c, 0, 78, 56
2, 46945, Note_on_c, 0, 84, 56
2, 46948, Note_on_c, 0, 54, 43
2, 46950, Note_on_c, 0, 51, 47
2, 47014, Control_c, 0, 64, 127
2, 47014, Control_c, 0, 67, 0
2, 47128, Control_c, 0, 64, 0
2, 47128, Note_on_c, 0, 47, 66
2, 47144, Note_on_c, 0, 78, 0
2, 47144, Note_on_c, 0, 75, 0
2, 47181, Note_on_c, 0, 54, 0
2, 47183, Note_on_c, 0, 45, 0
2, 47183, Note_on_c, 0, 51, 0
2, 47184, Note_on_c, 0, 72, 0
2, 47184, Note_on_c, 0, 84, 0
2, 47189, Note_on_c, 0, 71, 55
2, 47189, Note_on_c, 0, 75, 60
2, 47189, Note_on_c, 0, 78, 57
2, 47189, Note_on_c, 0, 83, 55
2, 47275, Control_c, 0, 64, 127
2, 47305, Note_on_c, 0, 54, 46
2, 47307, Note_on_c, 0, 51, 47
2, 47367, Note_on_c, 0, 51, 0
2, 47367, Note_on_c, 0, 54, 0
2, 47417, Note_on_c, 0, 51, 48
2, 47417, Note_on_c, 0, 54, 41
2, 47527, Note_on_c, 0, 71, 0
2, 47529, Note_on_c, 0, 83, 0
2, 47534, Note_on_c, 0, 69, 54
2, 47534, Note_on_c, 0, 81, 49
2, 47576, Note_on_c, 0, 69, 0
2, 47578, Note_on_c, 0, 81, 0
2, 47581, Note_on_c, 0, 54, 0
2, 47583, Note_on_c, 0, 51, 0
2, 47598, Note_on_c, 0, 78, 0
2, 47598, Note_on_c, 0, 75, 0
2, 47615, Control_c, 0, 64, 0
2, 47623, Note_on_c, 0, 47, 0
2, 47628, Note_on_c, 0, 48, 44
2, 47641, Note_on_c, 0, 51, 44
2, 47641, Note_on_c, 0, 54, 45
2, 47641, Note_on_c, 0, 69, 54
2, 47643, Note_on_c, 0, 75, 48
2, 47643, Note_on_c, 0, 78, 47
2, 47645, Note_on_c, 0, 81, 48
2, 47773, Note_on_c, 0, 48, 0
2, 47836, Note_on_c, 0, 48, 60
2, 47870, Note_on_c, 0, 51, 0
2, 47870, Note_on_c, 0, 54, 0
2, 47876, Note_on_c, 0, 67, 61
2, 47878, Note_on_c, 0, 76, 64
2, 47878, Note_on_c, 0, 79, 60
2, 47898, Note_on_c, 0, 81, 0
2, 47898, Note_on_c, 0, 69, 0
2, 47898, Note_on_c, 0, 75, 0
2, 47898, Note_on_c, 0, 78, 0
2, 47919, Control_c, 0, 64, 127
2, 47992, Note_on_c, 0, 52, 44
2, 47994, Note_on_c, 0, 55, 42
2, 48046, Note_on_c, 0, 55, 0
2, 48046, Note_on_c, 0, 52, 0
2, 48087, Note_on_c, 0, 52, 44
2, 48087, Note_on_c, 0, 55, 41
2, 48178, Note_on_c, 0, 67, 0
2, 48180, Note_on_c, 0, 79, 0
2, 48185, Note_on_c, 0, 69, 58
2, 48185, Note_on_c, 0, 81, 55
2, 48255, Note_on_c, 0, 69, 0
2, 48255, Note_on_c, 0, 52, 0
2, 48257, Note_on_c, 0, 81, 0
2, 48259, Control_c, 0, 64, 0
2, 48261, Note_on_c, 0, 51, 46
2, 48263, Note_on_c, 0, 55, 0
2, 48279, Note_on_c, 0, 54, 45
2, 48297, Note_on_c, 0, 76, 0
2, 48303, Note_on_c, 0, 69, 63
2, 48303, Note_on_c, 0, 78, 64
2, 48303, Note_on_c, 0, 81, 62
2, 48373, Note_on_c, 0, 48, 0
2, 48470, Note_on_c, 0, 48, 65
2, 48497, Note_on_c, 0, 51, 0
2, 48497, Note_on_c, 0, 78, 0
2, 48497, Note_on_c, 0, 69, 0
2, 48497, Note_on_c, 0, 54, 0
2, 48497, Note_on_c, 0, 81, 0
2, 48503, Note_on_c, 0, 67, 66
2, 48503, Note_on_c, 0, 76, 65
2, 48503, Note_on_c, 0, 79, 64
2, 48566, Control_c, 0, 64, 127
2, 48608, Note_on_c, 0, 55, 45
2, 48616, Note_on_c, 0, 52, 44
2, 48654, Note_on_c, 0, 52, 0
2, 48654, Note_on_c, 0, 55, 0
2, 48717, Note_on_c, 0, 52, 43
2, 48717, Note_on_c, 0, 55, 43
2, 48798, Note_on_c, 0, 67, 0
2, 48800, Note_on_c, 0, 79, 0
2, 48803, Note_on_c, 0, 66, 63
2, 48805, Note_on_c, 0, 78, 66
2, 48854, Note_on_c, 0, 55, 0
2, 48857, Note_on_c, 0, 54, 46
2, 48870, Control_c, 0, 64, 0
2, 48875, Note_on_c, 0, 78, 0
2, 48878, Note_on_c, 0, 52, 0
2, 48880, Note_on_c, 0, 66, 0
2, 48885, Note_on_c, 0, 63, 43
2, 48918, Note_on_c, 0, 78, 62
2, 48920, Note_on_c, 0, 76, 0
2, 48923, Note_on_c, 0, 66, 66
2, 48925, Note_on_c, 0, 75, 63
2, 48957, Note_on_c, 0, 48, 0
2, 49032, Note_on_c, 0, 48, 67
2, 49116, Note_on_c, 0, 63, 0
2, 49116, Note_on_c, 0, 54, 0
2, 49118, Note_on_c, 0, 66, 0
2, 49120, Note_on_c, 0, 78, 0
2, 49120, Note_on_c, 0, 75, 0
2, 49123, Note_on_c, 0, 70, 68
2, 49131, Note_on_c, 0, 76, 45
2, 49162, Control_c, 0, 64, 127
2, 49236, Note_on_c, 0, 64, 53
2, 49242, Note_on_c, 0, 55, 49
2, 49242, Note_on_c, 0, 58, 53
2, 49294, Note_on_c, 0, 58, 0
2, 49294, Note_on_c, 0, 64, 0
2, 49294, Note_on_c, 0, 55, 0
2, 49339, Note_on_c, 0, 55, 54
2, 49339, Note_on_c, 0, 58, 48
2, 49339, Note_on_c, 0, 64, 54
2, 49431, Note_on_c, 0, 76, 0
2, 49436, Note_on_c, 0, 78, 52
2, 49462, Note_on_c, 0, 58, 0
2, 49462, Control_c, 0, 64, 0
2, 49482, Note_on_c, 0, 55, 0
2, 49487, Note_on_c, 0, 54, 48
2, 49507, Note_on_c, 0, 58, 44
2, 49534, Note_on_c, 0, 64, 0
2, 49538, Note_on_c, 0, 63, 44
2, 49573, Note_on_c, 0, 78, 0
2, 49608, Control_c, 0, 64, 127
2, 49616, Note_on_c, 0, 78, 60
2, 49640, Note_on_c, 0, 48, 0
2, 49680, Note_on_c, 0, 58, 0
2, 49680, Note_on_c, 0, 63, 0
2, 49685, Note_on_c, 0, 48, 46
2, 49705, Control_c, 0, 64, 0
2, 49744, Note_on_c, 0, 55, 51
2, 49746, Note_on_c, 0, 70, 0
2, 49758, Note_on_c, 0, 54, 0
2, 49784, Note_on_c, 0, 70, 57
2, 49789, Note_on_c, 0, 58, 47
2, 49798, Note_on_c, 0, 78, 0
2, 49810, Note_on_c, 0, 76, 44
2, 49866, Note_on_c, 0, 67, 66
2, 49892, Control_c, 0, 64, 127
2, 50113, Control_c, 0, 64, 0
2, 50134, Note_on_c, 0, 58, 0
2, 50175, Note_on_c, 0, 70, 0
2, 50175, Note_on_c, 0, 48, 0
2, 50178, Note_on_c, 0, 54, 43
2, 50181, Note_on_c, 0, 66, 49
2, 50191, Note_on_c, 0, 58, 45
2, 50193, Note_on_c, 0, 55, 0
2, 50199, Note_on_c, 0, 67, 0
2, 50237, Control_c, 0, 67, 127
2, 50282, Control_c, 0, 64, 127
2, 50313, Note_on_c, 0, 70, 63
2, 50392, Note_on_c, 0, 70, 0
2, 50431, Note_on_c, 0, 76, 0
2, 50437, Note_on_c, 0, 70, 53
2, 50445, Control_c, 0, 64, 0
2, 50475, Note_on_c, 0, 64, 62
2, 50491, Note_on_c, 0, 58, 0
2, 50507, Note_on_c, 0, 52, 66
2, 50509, Note_on_c, 0, 66, 0
2, 50527, Note_on_c, 0, 54, 0
2, 50606, Control_c, 0, 64, 127
2, 50666, Note_on_c, 0, 47, 46
2, 50729, Control_c, 0, 64, 0
2, 50742, Note_on_c, 0, 70, 0
2, 50742, Note_on_c, 0, 52, 0
2, 50742, Note_on_c, 0, 64, 0
2, 50747, Note_on_c, 0, 71, 66
2, 50883, Note_on_c, 0, 63, 42
2, 50891, Note_on_c, 0, 54, 46
2, 50893, Note_on_c, 0, 51, 47
2, 50899, Control_c, 0, 64, 127
2, 50987, Note_on_c, 0, 51, 0
2, 50987, Note_on_c, 0, 54, 0
2, 50993, Note_on_c, 0, 63, 0
2, 51031, Note_on_c, 0, 51, 44
2, 51031, Note_on_c, 0, 54, 45
2, 51031, Note_on_c, 0, 63, 42
2, 51152, Note_on_c, 0, 83, 54
2, 51225, Control_c, 0, 64, 0
2, 51259, Note_on_c, 0, 83, 0
2, 51266, Note_on_c, 0, 47, 0
2, 51303, Note_on_c, 0, 83, 54
2, 51311, Note_on_c, 0, 61, 48
2, 51316, Note_on_c, 0, 49, 41
2, 51316, Note_on_c, 0, 52, 43
2, 51336, Note_on_c, 0, 63, 0
2, 51344, Note_on_c, 0, 54, 0
2, 51344, Note_on_c, 0, 51, 0
2, 51496, Note_on_c, 0, 71, 0
2, 51522, Note_on_c, 0, 47, 44
2, 51592, Note_on_c, 0, 83, 0
2, 51592, Note_on_c, 0, 61, 0
2, 51592, Note_on_c, 0, 52, 0
2, 51592, Note_on_c, 0, 49, 0
2, 51597, Note_on_c, 0, 71, 59
2, 51618, Control_c, 0, 64, 127
2, 51736, Note_on_c, 0, 51, 44
2, 51736, Note_on_c, 0, 59, 41
2, 51824, Note_on_c, 0, 59, 0
2, 51824, Note_on_c, 0, 51, 0
2, 51894, Note_on_c, 0, 51, 44
2, 51894, Note_on_c, 0, 59, 48
2, 52027, Note_on_c, 0, 83, 44
2, 52162, Control_c, 0, 64, 0
2, 52168, Note_on_c, 0, 83, 0
2, 52225, Note_on_c, 0, 83, 48
2, 52249, Note_on_c, 0, 57, 44
2, 52251, Note_on_c, 0, 49, 47
2, 52253, Note_on_c, 0, 47, 0
2, 52285, Note_on_c, 0, 59, 0
2, 52285, Note_on_c, 0, 51, 0
2, 52390, Control_c, 0, 64, 127
2, 52487, Note_on_c, 0, 40, 43
2, 52560, Control_c, 0, 64, 0
2, 52584, Note_on_c, 0, 71, 0
2, 52621, Note_on_c, 0, 83, 0
2, 52623, Note_on_c, 0, 49, 0
2, 52623, Note_on_c, 0, 57, 0
2, 52628, Note_on_c, 0, 47, 53
2, 52628, Note_on_c, 0, 68, 55
2, 52628, Note_on_c, 0, 71, 59
2, 52731, Control_c, 0, 64, 127
2, 52839, Note_on_c, 0, 56, 41
2, 52839, Note_on_c, 0, 59, 42
2, 52898, Note_on_c, 0, 59, 0
2, 52898, Note_on_c, 0, 56, 0
2, 52984, Note_on_c, 0, 56, 48
2, 52984, Note_on_c, 0, 59, 46
2, 53055, Note_on_c, 0, 71, 0
2, 53125, Note_on_c, 0, 71, 42
2, 53125, Note_on_c, 0, 83, 42
2, 53232, Note_on_c, 0, 83, 0
2, 53262, Note_on_c, 0, 56, 0
2, 53264, Note_on_c, 0, 71, 0
2, 53308, Note_on_c, 0, 56, 42
2, 53308, Note_on_c, 0, 64, 48
2, 53308, Note_on_c, 0, 71, 49
2, 53308, Note_on_c, 0, 76, 50
2, 53308, Note_on_c, 0, 83, 51
2, 53394, Control_c, 0, 64, 0
2, 53556, Note_on_c, 0, 42, 44
2, 53565, Note_on_c, 0, 47, 0
2, 53599, Note_on_c, 0, 56, 0
2, 53599, Note_on_c, 0, 64, 0
2, 53601, Note_on_c, 0, 40, 0
2, 53601, Note_on_c, 0, 59, 0
2, 53606, Note_on_c, 0, 47, 54
2, 53606, Note_on_c, 0, 69, 65
2, 53606, Note_on_c, 0, 75, 59
2, 53606, Note_on_c, 0, 81, 60
2, 53633, Note_on_c, 0, 76, 0
2, 53633, Note_on_c, 0, 68, 0
2, 53633, Note_on_c, 0, 83, 0
2, 53633, Note_on_c, 0, 71, 0
2, 53657, Control_c, 0, 64, 127
2, 53763, Note_on_c, 0, 57, 43
2, 53763, Note_on_c, 0, 59, 45
2, 53821, Note_on_c, 0, 59, 0
2, 53821, Note_on_c, 0, 57, 0
2, 53883, Note_on_c, 0, 57, 43
2, 53885, Note_on_c, 0, 59, 48
2, 53969, Note_on_c, 0, 69, 0
2, 53971, Note_on_c, 0, 75, 0
2, 53971, Note_on_c, 0, 81, 0
2, 53994, Note_on_c, 0, 71, 58
2, 53994, Note_on_c, 0, 83, 53
2, 54094, Note_on_c, 0, 83, 0
2, 54094, Note_on_c, 0, 71, 0
2, 54099, Note_on_c, 0, 57, 0
2, 54138, Note_on_c, 0, 71, 54
2, 54140, Note_on_c, 0, 75, 54
2, 54140, Note_on_c, 0, 83, 58
2, 54144, Note_on_c, 0, 57, 47
2, 54144, Note_on_c, 0, 63, 48
2, 54192, Control_c, 0, 64, 0
2, 54317, Note_on_c, 0, 40, 41
2, 54356, Note_on_c, 0, 63, 0
2, 54356, Note_on_c, 0, 57, 0
2, 54356, Note_on_c, 0, 47, 0
2, 54356, Note_on_c, 0, 42, 0
2, 54356, Note_on_c, 0, 59, 0
2, 54389, Note_on_c, 0, 47, 53
2, 54389, Note_on_c, 0, 68, 66
2, 54403, Note_on_c, 0, 76, 41
2, 54403, Note_on_c, 0, 80, 46
2, 54416, Note_on_c, 0, 75, 0
2, 54416, Note_on_c, 0, 71, 0
2, 54416, Note_on_c, 0, 83, 0
2, 54460, Control_c, 0, 64, 127
2, 54539, Note_on_c, 0, 56, 43
2, 54539, Note_on_c, 0, 59, 43
2, 54584, Note_on_c, 0, 56, 0
2, 54589, Note_on_c, 0, 59, 0
2, 54647, Control_c, 0, 67, 0
2, 54649, Note_on_c, 0, 56, 43
2, 54651, Note_on_c, 0, 59, 41
2, 54730, Note_on_c, 0, 71, 65
2, 54739, Note_on_c, 0, 76, 0
2, 54742, Note_on_c, 0, 83, 43
2, 54755, Note_on_c, 0, 68, 0
2, 54811, Note_on_c, 0, 56, 0
2, 54818, Note_on_c, 0, 83, 0
2, 54864, Note_on_c, 0, 76, 53
2, 54868, Note_on_c, 0, 56, 43
2, 54870, Note_on_c, 0, 68, 43
2, 54876, Note_on_c, 0, 83, 47
2, 54876, Note_on_c, 0, 88, 48
2, 55011, Note_on_c, 0, 35, 44
2, 55024, Control_c, 0, 64, 0
2, 55044, Note_on_c, 0, 47, 0
2, 55085, Note_on_c, 0, 40, 0
2, 55091, Note_on_c, 0, 75, 55
2, 55099, Note_on_c, 0, 81, 44
2, 55099, Note_on_c, 0, 87, 48
2, 55111, Note_on_c, 0, 68, 0
2, 55111, Note_on_c, 0, 59, 0
2, 55111, Note_on_c, 0, 56, 0
2, 55113, Note_on_c, 0, 80, 0
2, 55113, Note_on_c, 0, 71, 0
2, 55113, Note_on_c, 0, 83, 0
2, 55113, Note_on_c, 0, 88, 0
2, 55113, Note_on_c, 0, 76, 0
2, 55118, Note_on_c, 0, 47, 55
2, 55120, Control_c, 0, 67, 127
2, 55222, Control_c, 0, 64, 127
2, 55290, Note_on_c, 0, 57, 53
2, 55290, Note_on_c, 0, 66, 44
2, 55343, Note_on_c, 0, 66, 0
2, 55343, Note_on_c, 0, 57, 0
2, 55413, Note_on_c, 0, 57, 48
2, 55413, Note_on_c, 0, 66, 54
2, 55517, Note_on_c, 0, 73, 54
2, 55517, Note_on_c, 0, 85, 47
2, 55525, Note_on_c, 0, 81, 0
2, 55531, Note_on_c, 0, 75, 0
2, 55531, Note_on_c, 0, 87, 0
2, 55555, Control_c, 0, 64, 0
2, 55575, Note_on_c, 0, 57, 0
2, 55591, Note_on_c, 0, 66, 0
2, 55611, Note_on_c, 0, 59, 52
2, 55613, Note_on_c, 0, 47, 0
2, 55613, Note_on_c, 0, 35, 0
2, 55630, Note_on_c, 0, 63, 50
2, 55643, Note_on_c, 0, 78, 54
2, 55643, Note_on_c, 0, 81, 60
2, 55649, Note_on_c, 0, 69, 60
2, 55651, Note_on_c, 0, 85, 0
2, 55651, Note_on_c, 0, 73, 0
2, 55706, Control_c, 0, 64, 127
2, 55767, Control_c, 0, 64, 0
2, 55794, Note_on_c, 0, 40, 43
2, 55853, Note_on_c, 0, 63, 0
2, 55855, Note_on_c, 0, 59, 0
2, 55872, Note_on_c, 0, 47, 54
2, 55879, Note_on_c, 0, 68, 48
2, 55879, Note_on_c, 0, 76, 46
2, 55879, Note_on_c, 0, 80, 46
2, 55899, Note_on_c, 0, 69, 0
2, 55901, Note_on_c, 0, 81, 0
2, 55901, Note_on_c, 0, 78, 0
2, 55951, Control_c, 0, 64, 127
2, 56021, Note_on_c, 0, 56, 43
2, 56021, Note_on_c, 0, 59, 48
2, 56087, Note_on_c, 0, 56, 0
2, 56100, Note_on_c, 0, 59, 0
2, 56144, Note_on_c, 0, 56, 46
2, 56152, Note_on_c, 0, 59, 42
2, 56269, Note_on_c, 0, 68, 0
2, 56271, Note_on_c, 0, 80, 0
2, 56271, Note_on_c, 0, 76, 0
2, 56274, Note_on_c, 0, 71, 49
2, 56276, Note_on_c, 0, 83, 48
2, 56377, Note_on_c, 0, 71, 0
2, 56379, Note_on_c, 0, 83, 0
2, 56384, Note_on_c, 0, 56, 0
2, 56418, Note_on_c, 0, 59, 0
2, 56423, Note_on_c, 0, 71, 61
2, 56423, Note_on_c, 0, 80, 58
2, 56423, Note_on_c, 0, 83, 60
2, 56427, Note_on_c, 0, 56, 47
2, 56427, Note_on_c, 0, 64, 43
2, 56490, Control_c, 0, 67, 0
2, 56605, Note_on_c, 0, 83, 0
2, 56641, Note_on_c, 0, 80, 0
2, 56641, Note_on_c, 0, 71, 0
2, 56641, Note_on_c, 0, 47, 0
2, 56658, Control_c, 0, 64, 0
2, 56678, Note_on_c, 0, 40, 0
2, 56678, Note_on_c, 0, 83, 61
2, 56681, Note_on_c, 0, 39, 48
2, 56686, Note_on_c, 0, 47, 48
2, 56686, Note_on_c, 0, 71, 43
2, 56686, Note_on_c, 0, 80, 47
2, 56710, Note_on_c, 0, 64, 0
2, 56710, Note_on_c, 0, 56, 0
2, 56834, Note_on_c, 0, 56, 41
2, 56837, Note_on_c, 0, 59, 42
2, 56842, Control_c, 0, 64, 127
2, 56923, Note_on_c, 0, 59, 0
2, 56923, Note_on_c, 0, 56, 0
2, 56986, Note_on_c, 0, 56, 45
2, 56986, Note_on_c, 0, 59, 45
2, 57028, Note_on_c, 0, 80, 0
2, 57120, Note_on_c, 0, 80, 53
2, 57120, Note_on_c, 0, 92, 55
2, 57216, Note_on_c, 0, 80, 0
2, 57216, Note_on_c, 0, 83, 0
2, 57218, Note_on_c, 0, 92, 0
2, 57221, Note_on_c, 0, 56, 0
2, 57263, Note_on_c, 0, 80, 57
2, 57263, Note_on_c, 0, 83, 53
2, 57263, Note_on_c, 0, 92, 53
2, 57265, Note_on_c, 0, 56, 44
2, 57267, Note_on_c, 0, 68, 48
2, 57437, Note_on_c, 0, 71, 0
2, 57445, Note_on_c, 0, 83, 0
2, 57472, Control_c, 0, 64, 0
2, 57511, Note_on_c, 0, 47, 0
2, 57522, Note_on_c, 0, 56, 0
2, 57524, Note_on_c, 0, 59, 0
2, 57524, Note_on_c, 0, 68, 0
2, 57529, Note_on_c, 0, 71, 61
2, 57531, Note_on_c, 0, 83, 67
2, 57552, Note_on_c, 0, 92, 0
2, 57552, Note_on_c, 0, 80, 0
2, 57553, Note_on_c, 0, 35, 42
2, 57555, Note_on_c, 0, 47, 43
2, 57564, Note_on_c, 0, 39, 0
2, 57646, Control_c, 0, 64, 127
2, 57713, Note_on_c, 0, 80, 60
2, 57713, Note_on_c, 0, 92, 54
2, 57772, Control_c, 0, 67, 127
2, 57796, Note_on_c, 0, 71, 0
2, 57796, Note_on_c, 0, 83, 0
2, 57856, Control_c, 0, 64, 0
2, 57892, Note_on_c, 0, 93, 53
2, 57897, Note_on_c, 0, 35, 0
2, 57899, Note_on_c, 0, 47, 0
2, 57899, Note_on_c, 0, 81, 55
2, 57904, Note_on_c, 0, 57, 42
2, 57904, Note_on_c, 0, 61, 48
2, 57906, Note_on_c, 0, 66, 56
2, 57908, Note_on_c, 0, 80, 0
2, 57908, Note_on_c, 0, 92, 0
2, 57913, Note_on_c, 0, 85, 60
2, 58020, Control_c, 0, 64, 127
2, 58190, Control_c, 0, 64, 0
2, 58229, Note_on_c, 0, 75, 49
2, 58229, Note_on_c, 0, 83, 54
2, 58229, Note_on_c, 0, 87, 52
2, 58234, Note_on_c, 0, 47, 44
2, 58236, Note_on_c, 0, 61, 0
2, 58236, Note_on_c, 0, 57, 0
2, 58236, Note_on_c, 0, 66, 0
2, 58241, Note_on_c, 0, 54, 46
2, 58243, Note_on_c, 0, 59, 47
2, 58245, Note_on_c, 0, 93, 0
2, 58245, Note_on_c, 0, 81, 0
2, 58245, Note_on_c, 0, 85, 0
2, 58330, Control_c, 0, 64, 127
2, 58429, Note_on_c, 0, 81, 53
2, 58549, Control_c, 0, 64, 0
2, 58587, Note_on_c, 0, 47, 0
2, 58622, Note_on_c, 0, 54, 0
2, 58624, Note_on_c, 0, 59, 0
2, 58624, Note_on_c, 0, 88, 47
2, 58626, Note_on_c, 0, 83, 0
2, 58628, Note_on_c, 0, 40, 48
2, 58630, Note_on_c, 0, 47, 42
2, 58632, Note_on_c, 0, 76, 47
2, 58632, Note_on_c, 0, 80, 50
2, 58652, Note_on_c, 0, 87, 0
2, 58659, Note_on_c, 0, 81, 0
2, 58664, Note_on_c, 0, 75, 0
2, 58725, Control_c, 0, 64, 127
2, 59163, Note_on_c, 0, 52, 46
2, 59163, Note_on_c, 0, 56, 42
2, 59163, Note_on_c, 0, 59, 41
2, 59947, Note_on_c, 0, 40, 0
2, 59959, Note_on_c, 0, 59, 0
2, 59959, Note_on_c, 0, 52, 0
2, 59959, Note_on_c, 0, 47, 0
2, 59959, Note_on_c, 0, 56, 0
2, 59962, Note_on_c, 0, 80, 0
2, 59968, Note_on_c, 0, 76, 0
2, 59976, Note_on_c, 0, 88, 0
2, 59977, Control_c, 0, 64, 0
2, 60288, Note_on_c, 0, 70, 48
2, 60288, Note_on_c, 0, 73, 48
2, 60308, Note_on_c, 0, 73, 0
2, 60308, Note_on_c, 0, 70, 0
2, 60311, Note_on_c, 0, 44, 53
2, 60313, Note_on_c, 0, 68, 70
2, 60313, Note_on_c, 0, 71, 70
2, 60332, Note_on_c, 0, 68, 0
2, 60337, Note_on_c, 0, 44, 0
2, 60339, Note_on_c, 0, 71, 0
2, 60464, Note_on_c, 0, 51, 47
2, 60466, Note_on_c, 0, 67, 59
2, 60466, Note_on_c, 0, 70, 53
2, 60482, Note_on_c, 0, 67, 0
2, 60488, Note_on_c, 0, 51, 0
2, 60490, Note_on_c, 0, 70, 0
2, 60561, Control_c, 0, 64, 127
2, 60600, Note_on_c, 0, 68, 66
2, 60600, Note_on_c, 0, 71, 66
2, 60606, Note_on_c, 0, 63, 47
2, 60713, Note_on_c, 0, 71, 0
2, 60713, Note_on_c, 0, 68, 0
2, 60715, Control_c, 0, 64, 0
2, 60731, Note_on_c, 0, 63, 0
2, 60739, Note_on_c, 0, 73, 47
2, 60757, Note_on_c, 0, 44, 47
2, 60757, Note_on_c, 0, 68, 59
2, 60759, Note_on_c, 0, 71, 64
2, 60771, Note_on_c, 0, 73, 0
2, 60777, Note_on_c, 0, 68, 0
2, 60779, Note_on_c, 0, 71, 0
2, 60784, Note_on_c, 0, 44, 0
2, 60843, Note_on_c, 0, 63, 46
2, 60843, Note_on_c, 0, 67, 60
2, 60843, Note_on_c, 0, 70, 56
2, 60848, Note_on_c, 0, 51, 48
2, 60864, Note_on_c, 0, 67, 0
2, 60864, Note_on_c, 0, 63, 0
2, 60869, Note_on_c, 0, 51, 0
2, 60871, Note_on_c, 0, 70, 0
2, 60921, Note_on_c, 0, 44, 53
2, 60923, Note_on_c, 0, 68, 56
2, 60923, Note_on_c, 0, 71, 53
2, 60941, Note_on_c, 0, 44, 0
2, 60944, Note_on_c, 0, 68, 0
2, 60950, Note_on_c, 0, 71, 0
2, 60994, Note_on_c, 0, 51, 43
2, 60994, Note_on_c, 0, 70, 55
2, 60994, Note_on_c, 0, 73, 55
2, 61015, Note_on_c, 0, 70, 0
2, 61015, Note_on_c, 0, 51, 0
2, 61021, Note_on_c, 0, 73, 0
2, 61074, Note_on_c, 0, 75, 72
2, 61080, Note_on_c, 0, 63, 45
2, 61081, Note_on_c, 0, 71, 71
2, 61100, Note_on_c, 0, 63, 0
2, 61144, Note_on_c, 0, 51, 46
2, 61167, Note_on_c, 0, 51, 0
2, 61183, Control_c, 0, 64, 127
2, 61214, Note_on_c, 0, 39, 46
2, 61272, Control_c, 0, 64, 0
2, 61273, Note_on_c, 0, 71, 0
2, 61273, Note_on_c, 0, 75, 0
2, 61278, Note_on_c, 0, 63, 48
2, 61280, Note_on_c, 0, 39, 0
2, 61280, Note_on_c, 0, 67, 49
2, 61280, Note_on_c, 0, 70, 54
2, 61285, Note_on_c, 0, 51, 41
2, 61300, Note_on_c, 0, 70, 0
2, 61300, Note_on_c, 0, 63, 0
2, 61300, Note_on_c, 0, 67, 0
2, 61306, Note_on_c, 0, 51, 0
2, 61337, Note_on_c, 0, 73, 52
2, 61357, Note_on_c, 0, 44, 52
2, 61357, Note_on_c, 0, 68, 63
2, 61357, Note_on_c, 0, 71, 64
2, 61365, Note_on_c, 0, 73, 0
2, 61377, Note_on_c, 0, 44, 0
2, 61377, Note_on_c, 0, 68, 0
2, 61385, Note_on_c, 0, 71, 0
2, 61426, Note_on_c, 0, 51, 46
2, 61426, Note_on_c, 0, 67, 56
2, 61428, Note_on_c, 0, 70, 54
2, 61446, Note_on_c, 0, 51, 0
2, 61448, Note_on_c, 0, 67, 0
2, 61454, Note_on_c, 0, 70, 0
2, 61514, Note_on_c, 0, 63, 42
2, 61516, Note_on_c, 0, 68, 65
2, 61516, Note_on_c, 0, 71, 67
2, 61521, Control_c, 0, 64, 127
2, 61576, Control_c, 0, 67, 0
2, 61579, Note_on_c, 0, 51, 45
2, 61599, Note_on_c, 0, 51, 0
2, 61601, Note_on_c, 0, 71, 0
2, 61601, Note_on_c, 0, 68, 0
2, 61616, Control_c, 0, 64, 0
2, 61625, Note_on_c, 0, 63, 0
2, 61632, Note_on_c, 0, 73, 49
2, 61643, Note_on_c, 0, 44, 42
2, 61645, Note_on_c, 0, 68, 66
2, 61645, Note_on_c, 0, 71, 61
2, 61658, Note_on_c, 0, 73, 0
2, 61663, Note_on_c, 0, 44, 0
2, 61665, Note_on_c, 0, 68, 0
2, 61665, Note_on_c, 0, 71, 0
2, 61714, Note_on_c, 0, 51, 54
2, 61714, Note_on_c, 0, 63, 51
2, 61714, Note_on_c, 0, 67, 58
2, 61714, Note_on_c, 0, 70, 60
2, 61734, Note_on_c, 0, 67, 0
2, 61734, Note_on_c, 0, 51, 0
2, 61734, Note_on_c, 0, 63, 0
2, 61742, Note_on_c, 0, 70, 0
2, 61786, Note_on_c, 0, 37, 53
2, 61788, Note_on_c, 0, 68, 62
2, 61788, Note_on_c, 0, 71, 62
2, 61808, Note_on_c, 0, 68, 0
2, 61814, Note_on_c, 0, 37, 0
2, 61816, Note_on_c, 0, 71, 0
2, 61852, Note_on_c, 0, 49, 51
2, 61854, Note_on_c, 0, 70, 60
2, 61854, Note_on_c, 0, 73, 61
2, 61874, Note_on_c, 0, 70, 0
2, 61874, Note_on_c, 0, 49, 0
2, 61882, Note_on_c, 0, 73, 0
2, 61919, Note_on_c, 0, 61, 52
2, 61919, Note_on_c, 0, 71, 63
2, 61920, Note_on_c, 0, 75, 66
2, 61941, Note_on_c, 0, 71, 0
2, 61941, Note_on_c, 0, 61, 0
2, 61948, Note_on_c, 0, 75, 0
2, 61977, Note_on_c, 0, 49, 51
2, 61979, Note_on_c, 0, 68, 62
2, 61979, Note_on_c, 0, 77, 62
2, 61997, Note_on_c, 0, 49, 0
2, 61999, Note_on_c, 0, 68, 0
2, 62005, Note_on_c, 0, 77, 0
2, 62054, Note_on_c, 0, 42, 62
2, 62054, Note_on_c, 0, 70, 71
2, 62056, Note_on_c, 0, 78, 66
2, 62080, Control_c, 0, 64, 127
2, 62130, Control_c, 0, 67, 127
2, 62154, Note_on_c, 0, 42, 0
2, 62157, Note_on_c, 0, 49, 54
2, 62165, Note_on_c, 0, 61, 47
2, 62173, Note_on_c, 0, 78, 0
2, 62179, Note_on_c, 0, 49, 0
2, 62191, Note_on_c, 0, 70, 0
2, 62191, Note_on_c, 0, 61, 0
2, 62196, Control_c, 0, 64, 0
2, 62198, Note_on_c, 0, 80, 48
2, 62213, Note_on_c, 0, 42, 50
2, 62215, Note_on_c, 0, 69, 61
2, 62215, Note_on_c, 0, 73, 60
2, 62215, Note_on_c, 0, 78, 63
2, 62229, Note_on_c, 0, 80, 0
2, 62234, Note_on_c, 0, 73, 0
2, 62234, Note_on_c, 0, 69, 0
2, 62243, Note_on_c, 0, 78, 0
2, 62248, Note_on_c, 0, 42, 0
2, 62328, Note_on_c, 0, 49, 48
2, 62330, Note_on_c, 0, 68, 54
2, 62330, Note_on_c, 0, 73, 60
2, 62330, Note_on_c, 0, 77, 57
2, 62351, Note_on_c, 0, 73, 0
2, 62351, Note_on_c, 0, 49, 0
2, 62351, Note_on_c, 0, 68, 0
2, 62358, Note_on_c, 0, 77, 0
2, 62442, Note_on_c, 0, 73, 66
2, 62442, Note_on_c, 0, 78, 72
2, 62448, Note_on_c, 0, 61, 45
2, 62448, Note_on_c, 0, 69, 65
2, 62460, Control_c, 0, 64, 127
2, 62466, Note_on_c, 0, 61, 0
2, 62508, Note_on_c, 0, 49, 47
2, 62534, Note_on_c, 0, 49, 0
2, 62546, Note_on_c, 0, 69, 0
2, 62548, Note_on_c, 0, 78, 0
2, 62548, Note_on_c, 0, 73, 0
2, 62553, Control_c, 0, 64, 0
2, 62574, Note_on_c, 0, 80, 54
2, 62591, Note_on_c, 0, 42, 41
2, 62592, Note_on_c, 0, 69, 63
2, 62592, Note_on_c, 0, 73, 62
2, 62592, Note_on_c, 0, 78, 61
2, 62600, Note_on_c, 0, 80, 0
2, 62613, Note_on_c, 0, 73, 0
2, 62613, Note_on_c, 0, 42, 0
2, 62613, Note_on_c, 0, 69, 0
2, 62613, Note_on_c, 0, 78, 0
2, 62663, Note_on_c, 0, 49, 49
2, 62663, Note_on_c, 0, 61, 50
2, 62663, Note_on_c, 0, 68, 63
2, 62663, Note_on_c, 0, 73, 63
2, 62663, Note_on_c, 0, 77, 63
2, 62678, Control_c, 0, 67, 0
2, 62683, Note_on_c, 0, 61, 0
2, 62683, Note_on_c, 0, 49, 0
2, 62685, Note_on_c, 0, 73, 0
2, 62685, Note_on_c, 0, 68, 0
2, 62690, Note_on_c, 0, 77, 0
2, 62739, Note_on_c, 0, 42, 54
2, 62741, Note_on_c, 0, 69, 60
2, 62743, Note_on_c, 0, 78, 59
2, 62761, Note_on_c, 0, 69, 0
2, 62761, Note_on_c, 0, 42, 0
2, 62769, Note_on_c, 0, 78, 0
2, 62806, Note_on_c, 0, 49, 51
2, 62808, Note_on_c, 0, 71, 55
2, 62808, Note_on_c, 0, 80, 57
2, 62829, Note_on_c, 0, 71, 0
2, 62829, Note_on_c, 0, 49, 0
2, 62836, Note_on_c, 0, 80, 0
2, 62886, Note_on_c, 0, 61, 55
2, 62886, Note_on_c, 0, 73, 72
2, 62886, Note_on_c, 0, 81, 66
2, 62907, Note_on_c, 0, 61, 0
2, 62912, Control_c, 0, 64, 127
2, 62951, Note_on_c, 0, 49, 58
2, 62977, Note_on_c, 0, 49, 0
2, 63012, Note_on_c, 0, 37, 57
2, 63051, Control_c, 0, 64, 0
2, 63072, Note_on_c, 0, 37, 0
2, 63072, Note_on_c, 0, 81, 0
2, 63072, Note_on_c, 0, 73, 0
2, 63076, Note_on_c, 0, 49, 54
2, 63076, Note_on_c, 0, 61, 54
2, 63076, Note_on_c, 0, 68, 47
2, 63076, Note_on_c, 0, 77, 50
2, 63097, Note_on_c, 0, 68, 0
2, 63097, Note_on_c, 0, 49, 0
2, 63097, Note_on_c, 0, 61, 0
2, 63103, Note_on_c, 0, 77, 0
2, 63135, Note_on_c, 0, 80, 50
2, 63147, Note_on_c, 0, 42, 54
2, 63147, Note_on_c, 0, 69, 62
2, 63147, Note_on_c, 0, 73, 62
2, 63147, Note_on_c, 0, 78, 59
2, 63155, Note_on_c, 0, 80, 0
2, 63168, Note_on_c, 0, 73, 0
2, 63168, Note_on_c, 0, 42, 0
2, 63168, Note_on_c, 0, 69, 0
2, 63173, Note_on_c, 0, 78, 0
2, 63217, Note_on_c, 0, 49, 48
2, 63217, Note_on_c, 0, 68, 60
2, 63217, Note_on_c, 0, 73, 59
2, 63217, Note_on_c, 0, 77, 58
2, 63238, Note_on_c, 0, 73, 0
2, 63238, Note_on_c, 0, 49, 0
2, 63238, Note_on_c, 0, 68, 0
2, 63243, Note_on_c, 0, 77, 0
2, 63293, Note_on_c, 0, 61, 48
2, 63293, Note_on_c, 0, 69, 70
2, 63293, Note_on_c, 0, 73, 72
2, 63293, Note_on_c, 0, 78, 65
2, 63327, Control_c, 0, 64, 127
2, 63356, Note_on_c, 0, 49, 47
2, 63376, Note_on_c, 0, 49, 0
2, 63384, Note_on_c, 0, 69, 0
2, 63384, Note_on_c, 0, 78, 0
2, 63413, Control_c, 0, 64, 0
2, 63421, Note_on_c, 0, 73, 0
2, 63421, Note_on_c, 0, 61, 0
2, 63426, Note_on_c, 0, 38, 51
2, 63428, Note_on_c, 0, 69, 53
2, 63428, Note_on_c, 0, 74, 56
2, 63428, Note_on_c, 0, 78, 59
2, 63446, Note_on_c, 0, 38, 0
2, 63448, Note_on_c, 0, 69, 0
2, 63448, Note_on_c, 0, 74, 0
2, 63448, Note_on_c, 0, 78, 0
2, 63492, Note_on_c, 0, 50, 54
2, 63492, Note_on_c, 0, 62, 52
2, 63492, Note_on_c, 0, 69, 66
2, 63492, Note_on_c, 0, 74, 64
2, 63492, Note_on_c, 0, 78, 60
2, 63512, Note_on_c, 0, 78, 0
2, 63512, Note_on_c, 0, 69, 0
2, 63512, Note_on_c, 0, 50, 0
2, 63512, Note_on_c, 0, 62, 0
2, 63512, Note_on_c, 0, 74, 0
2, 63556, Note_on_c, 0, 71, 64
2, 63562, Note_on_c, 0, 43, 56
2, 63564, Note_on_c, 0, 74, 67
2, 63564, Note_on_c, 0, 79, 65
2, 63585, Note_on_c, 0, 74, 0
2, 63585, Note_on_c, 0, 71, 0
2, 63591, Note_on_c, 0, 43, 0
2, 63591, Note_on_c, 0, 79, 0
2, 63630, Note_on_c, 0, 72, 62
2, 63630, Note_on_c, 0, 74, 65
2, 63630, Note_on_c, 0, 81, 65
2, 63638, Note_on_c, 0, 50, 57
2, 63653, Note_on_c, 0, 74, 0
2, 63653, Note_on_c, 0, 72, 0
2, 63658, Note_on_c, 0, 50, 0
2, 63660, Note_on_c, 0, 81, 0
2, 63709, Note_on_c, 0, 74, 84
2, 63709, Note_on_c, 0, 83, 84
2, 63717, Note_on_c, 0, 62, 63
2, 63737, Note_on_c, 0, 62, 0
2, 63753, Control_c, 0, 64, 127
2, 63780, Note_on_c, 0, 50, 54
2, 63800, Note_on_c, 0, 50, 0
2, 63845, Note_on_c, 0, 38, 53
2, 63845, Note_on_c, 0, 50, 56
2, 63871, Note_on_c, 0, 50, 0
2, 63902, Control_c, 0, 64, 0
2, 63910, Note_on_c, 0, 38, 0
2, 63912, Note_on_c, 0, 74, 0
2, 63913, Note_on_c, 0, 83, 0
2, 63916, Note_on_c, 0, 50, 54
2, 63916, Note_on_c, 0, 62, 53
2, 63918, Note_on_c, 0, 69, 65
2, 63918, Note_on_c, 0, 78, 61
2, 63936, Note_on_c, 0, 62, 0
2, 63936, Note_on_c, 0, 50, 0
2, 63938, Note_on_c, 0, 69, 0
2, 63938, Note_on_c, 0, 78, 0
2, 64002, Note_on_c, 0, 43, 63
2, 64002, Note_on_c, 0, 71, 78
2, 64002, Note_on_c, 0, 79, 73
2, 64022, Note_on_c, 0, 43, 0
2, 64045, Control_c, 0, 64, 127
2, 64069, Note_on_c, 0, 50, 62
2, 64129, Note_on_c, 0, 79, 0
2, 64138, Note_on_c, 0, 62, 64
2, 64146, Note_on_c, 0, 50, 0
2, 64153, Note_on_c, 0, 71, 0
2, 64182, Control_c, 0, 64, 0
2, 64188, Note_on_c, 0, 50, 51
2, 64196, Note_on_c, 0, 71, 65
2, 64196, Note_on_c, 0, 79, 59
2, 64258, Note_on_c, 0, 71, 0
2, 64258, Note_on_c, 0, 62, 0
2, 64258, Note_on_c, 0, 50, 0
2, 64263, Note_on_c, 0, 45, 58
2, 64269, Note_on_c, 0, 78, 68
2, 64271, Note_on_c, 0, 72, 71
2, 64283, Note_on_c, 0, 45, 0
2, 64304, Note_on_c, 0, 79, 0
2, 64307, Control_c, 0, 64, 127
2, 64345, Note_on_c, 0, 48, 56
2, 64347, Note_on_c, 0, 60, 57
2, 64397, Control_c, 0, 64, 0
2, 64413, Note_on_c, 0, 60, 0
2, 64415, Note_on_c, 0, 72, 0
2, 64415, Note_on_c, 0, 78, 0
2, 64417, Note_on_c, 0, 48, 0
2, 64417, Note_on_c, 0, 69, 65
2, 64417, Note_on_c, 0, 75, 59
2, 64423, Note_on_c, 0, 47, 56
2, 64488, Note_on_c, 0, 54, 50
2, 64512, Control_c, 0, 64, 127
2, 64557, Note_on_c, 0, 59, 50
2, 64564, Note_on_c, 0, 69, 0
2, 64566, Note_on_c, 0, 75, 0
2, 64595, Note_on_c, 0, 54, 0
2, 64636, Note_on_c, 0, 75, 49
2, 64641, Note_on_c, 0, 54, 50
2, 64643, Note_on_c, 0, 69, 48
2, 64698, Control_c, 0, 64, 0
2, 64713, Note_on_c, 0, 69, 0
2, 64713, Note_on_c, 0, 75, 0
2, 64719, Note_on_c, 0, 54, 0
2, 64719, Note_on_c, 0, 47, 0
2, 64721, Note_on_c, 0, 59, 0
2, 64721, Note_on_c, 0, 66, 66
2, 64721, Note_on_c, 0, 71, 65
2, 64726, Note_on_c, 0, 51, 51
2, 64754, Control_c, 0, 67, 127
2, 64771, Note_on_c, 0, 71, 0
2, 64795, Note_on_c, 0, 59, 47
2, 64815, Note_on_c, 0, 71, 41
2, 64868, Note_on_c, 0, 76, 45
2, 64880, Note_on_c, 0, 59, 0
2, 64880, Note_on_c, 0, 66, 0
2, 64880, Note_on_c, 0, 51, 0
2, 64885, Note_on_c, 0, 40, 48
2, 64926, Note_on_c, 0, 80, 65
2, 64968, Control_c, 0, 64, 127
2, 65024, Note_on_c, 0, 47, 46
2, 65144, Note_on_c, 0, 59, 42
2, 65193, Note_on_c, 0, 80, 0
2, 65193, Note_on_c, 0, 71, 0
2, 65193, Note_on_c, 0, 76, 0
2, 65204, Note_on_c, 0, 47, 0
2, 65234, Note_on_c, 0, 80, 54
2, 65247, Note_on_c, 0, 47, 47
2, 65247, Note_on_c, 0, 71, 41
2, 65249, Note_on_c, 0, 76, 42
2, 65283, Control_c, 0, 64, 0
2, 65341, Note_on_c, 0, 40, 0
2, 65343, Note_on_c, 0, 71, 0
2, 65343, Note_on_c, 0, 59, 0
2, 65345, Note_on_c, 0, 80, 0
2, 65345, Note_on_c, 0, 76, 0
2, 65351, Note_on_c, 0, 78, 62
2, 65355, Note_on_c, 0, 45, 52
2, 65361, Note_on_c, 0, 69, 44
2, 65361, Note_on_c, 0, 72, 42
2, 65369, Note_on_c, 0, 47, 0
2, 65419, Control_c, 0, 64, 127
2, 65458, Note_on_c, 0, 57, 53
2, 65507, Note_on_c, 0, 69, 0
2, 65536, Control_c, 0, 64, 0
2, 65544, Note_on_c, 0, 57, 0
2, 65544, Note_on_c, 0, 45, 0
2, 65546, Note_on_c, 0, 78, 0
2, 65546, Note_on_c, 0, 72, 0
2, 65549, Note_on_c, 0, 47, 54
2, 65552, Note_on_c, 0, 75, 57
2, 65557, Note_on_c, 0, 69, 45
2, 65649, Note_on_c, 0, 54, 41
2, 65714, Control_c, 0, 64, 127
2, 65774, Note_on_c, 0, 59, 48
2, 65816, Note_on_c, 0, 54, 0
2, 65818, Note_on_c, 0, 69, 0
2, 65818, Note_on_c, 0, 75, 0
2, 65881, Note_on_c, 0, 54, 43
2, 65881, Note_on_c, 0, 69, 51
2, 65883, Note_on_c, 0, 75, 49
2, 65975, Control_c, 0, 64, 0
2, 65999, Note_on_c, 0, 71, 47
2, 66000, Note_on_c, 0, 54, 0
2, 66000, Note_on_c, 0, 59, 0
2, 66000, Note_on_c, 0, 47, 0
2, 66013, Note_on_c, 0, 52, 43
2, 66015, Note_on_c, 0, 69, 0
2, 66015, Note_on_c, 0, 68, 46
2, 66017, Note_on_c, 0, 75, 0
2, 66116, Control_c, 0, 64, 127
2, 66204, Note_on_c, 0, 56, 41
2, 66204, Note_on_c, 0, 59, 44
2, 66293, Note_on_c, 0, 71, 0
2, 66293, Note_on_c, 0, 68, 0
2, 66296, Control_c, 0, 64, 0
2, 66317, Note_on_c, 0, 70, 55
2, 66317, Note_on_c, 0, 73, 50
2, 66336, Note_on_c, 0, 56, 0
2, 66336, Note_on_c, 0, 68, 62
2, 66336, Note_on_c, 0, 71, 67
2, 66337, Note_on_c, 0, 59, 0
2, 66337, Note_on_c, 0, 52, 0
2, 66342, Note_on_c, 0, 44, 48
2, 66350, Note_on_c, 0, 73, 0
2, 66350, Note_on_c, 0, 70, 0
2, 66362, Note_on_c, 0, 68, 0
2, 66368, Note_on_c, 0, 71, 0
2, 66382, Note_on_c, 0, 44, 0
2, 66503, Note_on_c, 0, 51, 46
2, 66503, Note_on_c, 0, 67, 48
2, 66504, Note_on_c, 0, 70, 54
2, 66525, Note_on_c, 0, 67, 0
2, 66525, Note_on_c, 0, 51, 0
2, 66527, Note_on_c, 0, 70, 0
2, 66648, Note_on_c, 0, 63, 45
2, 66648, Note_on_c, 0, 68, 70
2, 66648, Note_on_c, 0, 71, 66
2, 66668, Control_c, 0, 64, 127
2, 66738, Note_on_c, 0, 51, 48
2, 66769, Note_on_c, 0, 51, 0
2, 66769, Note_on_c, 0, 71, 0
2, 66769, Note_on_c, 0, 68, 0
2, 66788, Note_on_c, 0, 63, 0
2, 66791, Control_c, 0, 64, 0
2, 66793, Note_on_c, 0, 73, 47
2, 66810, Note_on_c, 0, 44, 42
2, 66812, Note_on_c, 0, 68, 54
2, 66812, Note_on_c, 0, 71, 57
2, 66825, Note_on_c, 0, 73, 0
2, 66831, Note_on_c, 0, 44, 0
2, 66831, Note_on_c, 0, 68, 0
2, 66831, Note_on_c, 0, 71, 0
2, 66887, Note_on_c, 0, 51, 45
2, 66887, Note_on_c, 0, 63, 41
2, 66887, Note_on_c, 0, 67, 54
2, 66887, Note_on_c, 0, 70, 53
2, 66907, Note_on_c, 0, 67, 0
2, 66907, Note_on_c, 0, 51, 0
2, 66907, Note_on_c, 0, 63, 0
2, 66912, Note_on_c, 0, 70, 0
2, 66964, Note_on_c, 0, 44, 51
2, 66964, Note_on_c, 0, 68, 53
2, 66964, Note_on_c, 0, 71, 58
2, 66984, Note_on_c, 0, 68, 0
2, 66984, Note_on_c, 0, 44, 0
2, 66990, Note_on_c, 0, 71, 0
2, 67042, Note_on_c, 0, 70, 53
2, 67042, Note_on_c, 0, 73, 57
2, 67047, Note_on_c, 0, 51, 43
2, 67062, Note_on_c, 0, 70, 0
2, 67067, Note_on_c, 0, 51, 0
2, 67067, Note_on_c, 0, 73, 0
2, 67137, Note_on_c, 0, 63, 52
2, 67137, Note_on_c, 0, 71, 72
2, 67139, Note_on_c, 0, 75, 66
2, 67159, Note_on_c, 0, 63, 0
2, 67176, Control_c, 0, 64, 127
2, 67207, Note_on_c, 0, 51, 43
2, 67288, Note_on_c, 0, 51, 0
2, 67288, Note_on_c, 0, 71, 0
2, 67290, Note_on_c, 0, 75, 0
2, 67292, Note_on_c, 0, 39, 47
2, 67313, Note_on_c, 0, 39, 0
2, 67331, Control_c, 0, 64, 0
2, 67360, Note_on_c, 0, 51, 54
2, 67360, Note_on_c, 0, 63, 50
2, 67360, Note_on_c, 0, 67, 49
2, 67360, Note_on_c, 0, 70, 53
2, 67380, Note_on_c, 0, 67, 0
2, 67380, Note_on_c, 0, 51, 0
2, 67380, Note_on_c, 0, 63, 0
2, 67382, Note_on_c, 0, 70, 0
2, 67423, Note_on_c, 0, 73, 50
2, 67441, Note_on_c, 0, 44, 50
2, 67443, Note_on_c, 0, 68, 62
2, 67443, Note_on_c, 0, 71, 61
2, 67451, Note_on_c, 0, 73, 0
2, 67464, Note_on_c, 0, 44, 0
2, 67464, Note_on_c, 0, 68, 0
2, 67471, Note_on_c, 0, 71, 0
2, 67513, Note_on_c, 0, 51, 50
2, 67516, Note_on_c, 0, 67, 60
2, 67516, Note_on_c, 0, 70, 58
2, 67536, Note_on_c, 0, 51, 0
2, 67538, Note_on_c, 0, 67, 0
2, 67546, Note_on_c, 0, 70, 0
2, 67601, Note_on_c, 0, 63, 49
2, 67603, Note_on_c, 0, 68, 65
2, 67603, Note_on_c, 0, 71, 71
2, 67608, Control_c, 0, 64, 127
2, 67660, Note_on_c, 0, 71, 0
2, 67660, Note_on_c, 0, 68, 0
2, 67660, Note_on_c, 0, 63, 0
2, 67665, Note_on_c, 0, 51, 52
2, 67685, Note_on_c, 0, 51, 0
2, 67709, Control_c, 0, 64, 0
2, 67711, Note_on_c, 0, 73, 50
2, 67724, Note_on_c, 0, 68, 59
2, 67724, Note_on_c, 0, 71, 64
2, 67729, Note_on_c, 0, 44, 58
2, 67735, Note_on_c, 0, 73, 0
2, 67743, Note_on_c, 0, 68, 0
2, 67748, Note_on_c, 0, 71, 0
2, 67748, Note_on_c, 0, 44, 0
2, 67792, Note_on_c, 0, 51, 56
2, 67792, Note_on_c, 0, 63, 60
2, 67792, Note_on_c, 0, 67, 57
2, 67794, Note_on_c, 0, 70, 55
2, 67810, Note_on_c, 0, 67, 0
2, 67810, Note_on_c, 0, 51, 0
2, 67810, Note_on_c, 0, 63, 0
2, 67812, Note_on_c, 0, 70, 0
2, 67825, Control_c, 0, 67, 0
2, 67841, Note_on_c, 0, 37, 57
2, 67856, Note_on_c, 0, 68, 57
2, 67856, Note_on_c, 0, 71, 53
2, 67864, Note_on_c, 0, 37, 0
2, 67876, Note_on_c, 0, 71, 0
2, 67876, Note_on_c, 0, 68, 0
2, 67920, Note_on_c, 0, 49, 60
2, 67920, Note_on_c, 0, 70, 59
2, 67920, Note_on_c, 0, 73, 61
2, 67942, Note_on_c, 0, 70, 0
2, 67942, Note_on_c, 0, 49, 0
2, 67949, Note_on_c, 0, 73, 0
2, 67991, Note_on_c, 0, 61, 64
2, 67991, Note_on_c, 0, 71, 66
2, 67991, Note_on_c, 0, 75, 65
2, 68011, Note_on_c, 0, 71, 0
2, 68011, Note_on_c, 0, 61, 0
2, 68018, Note_on_c, 0, 75, 0
2, 68055, Note_on_c, 0, 49, 60
2, 68055, Note_on_c, 0, 68, 64
2, 68055, Note_on_c, 0, 77, 67
2, 68075, Note_on_c, 0, 68, 0
2, 68075, Note_on_c, 0, 49, 0
2, 68083, Note_on_c, 0, 77, 0
2, 68130, Control_c, 0, 64, 127
2, 68130, Note_on_c, 0, 42, 68
2, 68132, Note_on_c, 0, 70, 73
2, 68132, Note_on_c, 0, 78, 69
2, 68224, Note_on_c, 0, 49, 46
2, 68224, Note_on_c, 0, 61, 45
2, 68237, Note_on_c, 0, 70, 0
2, 68243, Note_on_c, 0, 78, 0
2, 68248, Note_on_c, 0, 42, 0
2, 68248, Note_on_c, 0, 49, 0
2, 68248, Note_on_c, 0, 61, 0
2, 68258, Control_c, 0, 64, 0
2, 68275, Note_on_c, 0, 80, 51
2, 68285, Note_on_c, 0, 69, 62
2, 68285, Note_on_c, 0, 73, 62
2, 68285, Note_on_c, 0, 78, 64
2, 68290, Note_on_c, 0, 42, 51
2, 68293, Note_on_c, 0, 80, 0
2, 68306, Note_on_c, 0, 69, 0
2, 68306, Note_on_c, 0, 73, 0
2, 68311, Note_on_c, 0, 42, 0
2, 68313, Note_on_c, 0, 78, 0
2, 68391, Note_on_c, 0, 49, 51
2, 68393, Note_on_c, 0, 68, 57
2, 68393, Note_on_c, 0, 73, 57
2, 68393, Note_on_c, 0, 77, 55
2, 68411, Note_on_c, 0, 49, 0
2, 68413, Note_on_c, 0, 68, 0
2, 68413, Note_on_c, 0, 73, 0
2, 68413, Note_on_c, 0, 77, 0
2, 68499, Note_on_c, 0, 78, 69
2, 68505, Note_on_c, 0, 61, 54
2, 68505, Note_on_c, 0, 69, 69
2, 68505, Note_on_c, 0, 73, 68
2, 68516, Control_c, 0, 64, 127
2, 68523, Note_on_c, 0, 61, 0
2, 68568, Note_on_c, 0, 73, 0
2, 68568, Note_on_c, 0, 69, 0
2, 68569, Note_on_c, 0, 78, 0
2, 68572, Note_on_c, 0, 49, 50
2, 68593, Note_on_c, 0, 49, 0
2, 68598, Control_c, 0, 64, 0
2, 68625, Note_on_c, 0, 80, 54
2, 68638, Note_on_c, 0, 42, 55
2, 68640, Note_on_c, 0, 69, 66
2, 68640, Note_on_c, 0, 73, 62
2, 68640, Note_on_c, 0, 78, 63
2, 68647, Note_on_c, 0, 80, 0
2, 68658, Note_on_c, 0, 73, 0
2, 68658, Note_on_c, 0, 42, 0
2, 68658, Note_on_c, 0, 69, 0
2, 68665, Note_on_c, 0, 78, 0
2, 68711, Note_on_c, 0, 49, 53
2, 68712, Note_on_c, 0, 61, 48
2, 68712, Note_on_c, 0, 68, 58
2, 68712, Note_on_c, 0, 73, 55
2, 68712, Note_on_c, 0, 77, 56
2, 68731, Note_on_c, 0, 61, 0
2, 68731, Note_on_c, 0, 49, 0
2, 68733, Note_on_c, 0, 73, 0
2, 68733, Note_on_c, 0, 68, 0
2, 68733, Note_on_c, 0, 77, 0
2, 68782, Note_on_c, 0, 42, 47
2, 68782, Note_on_c, 0, 69, 62
2, 68782, Note_on_c, 0, 73, 62
2, 68784, Note_on_c, 0, 78, 60
2, 68802, Note_on_c, 0, 73, 0
2, 68802, Note_on_c, 0, 42, 0
2, 68802, Note_on_c, 0, 69, 0
2, 68808, Note_on_c, 0, 78, 0
2, 68850, Note_on_c, 0, 49, 47
2, 68852, Note_on_c, 0, 71, 59
2, 68857, Note_on_c, 0, 80, 66
2, 68870, Note_on_c, 0, 71, 0
2, 68870, Note_on_c, 0, 49, 0
2, 68879, Note_on_c, 0, 80, 0
2, 68926, Note_on_c, 0, 61, 58
2, 68926, Note_on_c, 0, 73, 78
2, 68926, Note_on_c, 0, 81, 76
2, 68952, Note_on_c, 0, 61, 0
2, 68982, Control_c, 0, 64, 127
2, 68987, Note_on_c, 0, 49, 53
2, 69014, Note_on_c, 0, 49, 0
2, 69069, Note_on_c, 0, 73, 0
2, 69071, Note_on_c, 0, 81, 0
2, 69072, Note_on_c, 0, 37, 47
2, 69094, Note_on_c, 0, 37, 0
2, 69120, Control_c, 0, 64, 0
2, 69135, Note_on_c, 0, 68, 54
2, 69135, Note_on_c, 0, 77, 60
2, 69141, Note_on_c, 0, 49, 44
2, 69143, Note_on_c, 0, 61, 47
2, 69155, Note_on_c, 0, 77, 0
2, 69155, Note_on_c, 0, 68, 0
2, 69168, Note_on_c, 0, 49, 0
2, 69168, Note_on_c, 0, 61, 0
2, 69192, Note_on_c, 0, 80, 54
2, 69213, Note_on_c, 0, 42, 50
2, 69215, Note_on_c, 0, 73, 62
2, 69216, Note_on_c, 0, 69, 63
2, 69216, Note_on_c, 0, 78, 64
2, 69230, Note_on_c, 0, 80, 0
2, 69235, Note_on_c, 0, 42, 0
2, 69237, Note_on_c, 0, 69, 0
2, 69237, Note_on_c, 0, 73, 0
2, 69244, Note_on_c, 0, 78, 0
2, 69287, Note_on_c, 0, 49, 53
2, 69287, Note_on_c, 0, 68, 59
2, 69287, Note_on_c, 0, 73, 60
2, 69287, Note_on_c, 0, 77, 57
2, 69307, Note_on_c, 0, 49, 0
2, 69309, Note_on_c, 0, 68, 0
2, 69309, Note_on_c, 0, 73, 0
2, 69309, Note_on_c, 0, 77, 0
2, 69368, Note_on_c, 0, 61, 48
2, 69368, Note_on_c, 0, 69, 68
2, 69368, Note_on_c, 0, 73, 67
2, 69368, Note_on_c, 0, 78, 71
2, 69382, Control_c, 0, 64, 127
2, 69433, Note_on_c, 0, 49, 47
2, 69455, Note_on_c, 0, 78, 0
2, 69455, Note_on_c, 0, 69, 0
2, 69463, Control_c, 0, 64, 0
2, 69484, Note_on_c, 0, 61, 0
2, 69484, Note_on_c, 0, 49, 0
2, 69490, Note_on_c, 0, 38, 53
2, 69492, Note_on_c, 0, 73, 0
2, 69497, Note_on_c, 0, 69, 53
2, 69497, Note_on_c, 0, 74, 59
2, 69499, Note_on_c, 0, 78, 60
2, 69511, Note_on_c, 0, 38, 0
2, 69517, Note_on_c, 0, 69, 0
2, 69519, Note_on_c, 0, 74, 0
2, 69519, Note_on_c, 0, 78, 0
2, 69569, Note_on_c, 0, 50, 43
2, 69569, Note_on_c, 0, 62, 47
2, 69569, Note_on_c, 0, 69, 66
2, 69569, Note_on_c, 0, 74, 65
2, 69569, Note_on_c, 0, 78, 66
2, 69590, Note_on_c, 0, 78, 0
2, 69590, Note_on_c, 0, 69, 0
2, 69590, Note_on_c, 0, 50, 0
2, 69590, Note_on_c, 0, 62, 0
2, 69590, Note_on_c, 0, 74, 0
2, 69634, Note_on_c, 0, 43, 56
2, 69634, Note_on_c, 0, 71, 61
2, 69634, Note_on_c, 0, 74, 62
2, 69634, Note_on_c, 0, 79, 60
2, 69654, Note_on_c, 0, 79, 0
2, 69654, Note_on_c, 0, 43, 0
2, 69654, Note_on_c, 0, 71, 0
2, 69654, Note_on_c, 0, 74, 0
2, 69696, Note_on_c, 0, 50, 60
2, 69698, Note_on_c, 0, 74, 68
2, 69698, Note_on_c, 0, 81, 68
2, 69700, Note_on_c, 0, 72, 65
2, 69719, Note_on_c, 0, 72, 0
2, 69719, Note_on_c, 0, 50, 0
2, 69719, Note_on_c, 0, 74, 0
2, 69726, Note_on_c, 0, 81, 0
2, 69768, Note_on_c, 0, 62, 65
2, 69768, Note_on_c, 0, 74, 79
2, 69768, Note_on_c, 0, 83, 80
2, 69792, Control_c, 0, 64, 127
2, 69829, Note_on_c, 0, 50, 61
2, 69868, Note_on_c, 0, 50, 0
2, 69897, Note_on_c, 0, 38, 59
2, 69923, Note_on_c, 0, 38, 0
2, 69923, Control_c, 0, 64, 0
2, 69929, Note_on_c, 0, 62, 0
2, 69960, Note_on_c, 0, 83, 0
2, 69960, Note_on_c, 0, 74, 0
2, 69966, Note_on_c, 0, 69, 63
2, 69966, Note_on_c, 0, 78, 63
2, 69971, Note_on_c, 0, 50, 50
2, 69971, Note_on_c, 0, 62, 49
2, 69986, Note_on_c, 0, 69, 0
2, 69991, Note_on_c, 0, 62, 0
2, 69991, Note_on_c, 0, 50, 0
2, 69993, Note_on_c, 0, 78, 0
2, 70056, Note_on_c, 0, 43, 66
2, 70056, Note_on_c, 0, 71, 68
2, 70058, Note_on_c, 0, 79, 68
2, 70084, Note_on_c, 0, 43, 0
2, 70107, Control_c, 0, 64, 127
2, 70128, Note_on_c, 0, 50, 59
2, 70161, Note_on_c, 0, 50, 0
2, 70200, Note_on_c, 0, 62, 60
2, 70206, Control_c, 0, 64, 0
2, 70208, Note_on_c, 0, 79, 0
2, 70235, Note_on_c, 0, 71, 0
2, 70267, Note_on_c, 0, 62, 0
2, 70272, Note_on_c, 0, 50, 60
2, 70279, Note_on_c, 0, 71, 66
2, 70279, Note_on_c, 0, 79, 66
2, 70293, Note_on_c, 0, 50, 0
2, 70345, Note_on_c, 0, 79, 0
2, 70351, Note_on_c, 0, 78, 67
2, 70359, Note_on_c, 0, 71, 0
2, 70364, Note_on_c, 0, 45, 54
2, 70366, Note_on_c, 0, 72, 45
2, 70371, Control_c, 0, 64, 127
2, 70385, Note_on_c, 0, 45, 0
2, 70419, Control_c, 0, 64, 0
2, 70427, Note_on_c, 0, 48, 53
2, 70427, Note_on_c, 0, 60, 47
2, 70448, Note_on_c, 0, 60, 0
2, 70448, Note_on_c, 0, 48, 0
2, 70498, Note_on_c, 0, 47, 61
2, 70500, Note_on_c, 0, 75, 64
2, 70506, Note_on_c, 0, 69, 48
2, 70513, Note_on_c, 0, 72, 0
2, 70513, Note_on_c, 0, 78, 0
2, 70550, Control_c, 0, 64, 127
2, 70566, Note_on_c, 0, 54, 51
2, 70634, Note_on_c, 0, 59, 54
2, 70642, Note_on_c, 0, 75, 0
2, 70668, Note_on_c, 0, 54, 0
2, 70674, Note_on_c, 0, 69, 0
2, 70692, Control_c, 0, 64, 0
2, 70710, Note_on_c, 0, 54, 48
2, 70718, Note_on_c, 0, 69, 59
2, 70718, Note_on_c, 0, 75, 57
2, 70778, Note_on_c, 0, 54, 0
2, 70781, Note_on_c, 0, 69, 0
2, 70781, Note_on_c, 0, 59, 0
2, 70781, Note_on_c, 0, 47, 0
2, 70781, Note_on_c, 0, 75, 0
2, 70786, Note_on_c, 0, 51, 53
2, 70786, Note_on_c, 0, 71, 63
2, 70792, Note_on_c, 0, 66, 46
2, 70823, Control_c, 0, 64, 127
2, 70830, Note_on_c, 0, 71, 0
2, 70830, Control_c, 0, 67, 127
2, 70856, Note_on_c, 0, 66, 0
2, 70861, Note_on_c, 0, 59, 45
2, 70885, Note_on_c, 0, 71, 46
2, 70909, Control_c, 0, 64, 0
2, 70921, Note_on_c, 0, 76, 44
2, 70942, Note_on_c, 0, 59, 0
2, 70942, Note_on_c, 0, 51, 0
2, 70947, Note_on_c, 0, 40, 53
2, 70999, Note_on_c, 0, 80, 59
2, 71043, Control_c, 0, 64, 127
2, 71114, Note_on_c, 0, 47, 43
2, 71219, Note_on_c, 0, 59, 46
2, 71242, Note_on_c, 0, 80, 0
2, 71248, Note_on_c, 0, 76, 0
2, 71256, Note_on_c, 0, 71, 0
2, 71269, Note_on_c, 0, 47, 0
2, 71287, Note_on_c, 0, 80, 54
2, 71300, Note_on_c, 0, 71, 48
2, 71302, Note_on_c, 0, 76, 43
2, 71314, Note_on_c, 0, 47, 43
2, 71364, Control_c, 0, 64, 0
2, 71411, Note_on_c, 0, 78, 61
2, 71424, Note_on_c, 0, 45, 52
2, 71424, Note_on_c, 0, 69, 45
2, 71424, Note_on_c, 0, 72, 47
2, 71437, Note_on_c, 0, 47, 0
2, 71437, Note_on_c, 0, 59, 0
2, 71437, Note_on_c, 0, 40, 0
2, 71437, Note_on_c, 0, 71, 0
2, 71439, Note_on_c, 0, 76, 0
2, 71457, Note_on_c, 0, 80, 0
2, 71502, Control_c, 0, 64, 127
2, 71515, Note_on_c, 0, 57, 41
2, 71535, Note_on_c, 0, 69, 0
2, 71567, Control_c, 0, 64, 0
2, 71579, Note_on_c, 0, 75, 61
2, 71585, Note_on_c, 0, 69, 44
2, 71587, Note_on_c, 0, 45, 0
2, 71592, Note_on_c, 0, 47, 50
2, 71594, Note_on_c, 0, 72, 0
2, 71594, Note_on_c, 0, 78, 0
2, 71676, Note_on_c, 0, 57, 0
2, 71681, Note_on_c, 0, 54, 44
2, 71728, Control_c, 0, 64, 127
2, 71795, Note_on_c, 0, 59, 46
2, 71803, Note_on_c, 0, 75, 0
2, 71833, Note_on_c, 0, 54, 0
2, 71835, Note_on_c, 0, 69, 0
2, 71890, Note_on_c, 0, 54, 44
2, 71892, Note_on_c, 0, 75, 54
2, 71897, Note_on_c, 0, 69, 48
2, 71999, Control_c, 0, 64, 0
2, 72025, Note_on_c, 0, 69, 0
2, 72025, Note_on_c, 0, 59, 0
2, 72025, Note_on_c, 0, 54, 0
2, 72025, Note_on_c, 0, 47, 0
2, 72030, Note_on_c, 0, 52, 44
2, 72030, Note_on_c, 0, 71, 49
2, 72038, Note_on_c, 0, 68, 46
2, 72047, Note_on_c, 0, 75, 0
2, 72136, Control_c, 0, 64, 127
2, 72228, Note_on_c, 0, 56, 45
2, 72228, Note_on_c, 0, 59, 47
2, 72298, Control_c, 0, 64, 0
2, 72300, Note_on_c, 0, 71, 0
2, 72305, Note_on_c, 0, 73, 47
2, 72338, Note_on_c, 0, 73, 0
2, 72338, Note_on_c, 0, 59, 0
2, 72338, Note_on_c, 0, 68, 0
2, 72338, Note_on_c, 0, 52, 0
2, 72338, Note_on_c, 0, 56, 0
2, 72343, Note_on_c, 0, 67, 66
2, 72343, Note_on_c, 0, 71, 64
2, 72349, Note_on_c, 0, 40, 47
2, 72376, Note_on_c, 0, 71, 0
2, 72376, Note_on_c, 0, 67, 0
2, 72512, Note_on_c, 0, 52, 46
2, 72514, Note_on_c, 0, 70, 48
2, 72519, Note_on_c, 0, 66, 42
2, 72540, Control_c, 0, 64, 127
2, 72634, Control_c, 0, 64, 0
2, 72649, Note_on_c, 0, 70, 0
2, 72655, Note_on_c, 0, 66, 0
2, 72655, Note_on_c, 0, 40, 0
2, 72655, Note_on_c, 0, 67, 61
2, 72655, Note_on_c, 0, 71, 65
2, 72660, Note_on_c, 0, 64, 46
2, 72691, Note_on_c, 0, 52, 0
2, 72751, Note_on_c, 0, 52, 47
2, 72771, Control_c, 0, 64, 127
2, 72800, Note_on_c, 0, 64, 0
2, 72832, Note_on_c, 0, 67, 0
2, 72842, Note_on_c, 0, 64, 44
2, 72856, Note_on_c, 0, 52, 0
2, 72888, Note_on_c, 0, 64, 0
2, 72932, Note_on_c, 0, 52, 45
2, 72932, Note_on_c, 0, 64, 47
2, 72932, Note_on_c, 0, 67, 54
2, 72958, Note_on_c, 0, 67, 0
2, 72968, Control_c, 0, 64, 0
2, 72971, Note_on_c, 0, 64, 0
2, 72971, Note_on_c, 0, 71, 0
2, 72977, Note_on_c, 0, 78, 47
2, 72997, Note_on_c, 0, 78, 0
2, 73003, Note_on_c, 0, 52, 0
2, 73003, Note_on_c, 0, 76, 70
2, 73008, Note_on_c, 0, 40, 51
2, 73009, Note_on_c, 0, 67, 46
2, 73030, Note_on_c, 0, 67, 0
2, 73032, Note_on_c, 0, 76, 0
2, 73121, Note_on_c, 0, 52, 51
2, 73124, Note_on_c, 0, 75, 56
2, 73128, Note_on_c, 0, 66, 46
2, 73228, Note_on_c, 0, 66, 0
2, 73228, Note_on_c, 0, 40, 0
2, 73228, Note_on_c, 0, 52, 0
2, 73228, Note_on_c, 0, 75, 0
2, 73231, Note_on_c, 0, 64, 47
2, 73233, Note_on_c, 0, 76, 65
2, 73239, Note_on_c, 0, 67, 43
2, 73259, Control_c, 0, 64, 127
2, 73311, Note_on_c, 0, 52, 47
2, 73344, Note_on_c, 0, 64, 0
2, 73375, Control_c, 0, 64, 0
2, 73377, Control_c, 0, 67, 0
2, 73388, Note_on_c, 0, 64, 45
2, 73396, Note_on_c, 0, 67, 0
2, 73402, Note_on_c, 0, 52, 0
2, 73436, Note_on_c, 0, 76, 0
2, 73436, Note_on_c, 0, 64, 0
2, 73446, Note_on_c, 0, 52, 43
2, 73446, Note_on_c, 0, 67, 56
2, 73446, Note_on_c, 0, 71, 57
2, 73493, Note_on_c, 0, 67, 0
2, 73517, Note_on_c, 0, 74, 47
2, 73533, Note_on_c, 0, 71, 0
2, 73536, Note_on_c, 0, 67, 65
2, 73537, Note_on_c, 0, 72, 64
2, 73542, Note_on_c, 0, 36, 54
2, 73551, Note_on_c, 0, 74, 0
2, 73559, Note_on_c, 0, 72, 0
2, 73559, Note_on_c, 0, 67, 0
2, 73582, Note_on_c, 0, 52, 0
2, 73624, Note_on_c, 0, 52, 48
2, 73630, Note_on_c, 0, 67, 54
2, 73630, Note_on_c, 0, 71, 57
2, 73700, Note_on_c, 0, 67, 0
2, 73738, Note_on_c, 0, 72, 64
2, 73740, Note_on_c, 0, 71, 0
2, 73745, Note_on_c, 0, 64, 42
2, 73745, Note_on_c, 0, 67, 44
2, 73772, Note_on_c, 0, 52, 0
2, 73780, Control_c, 0, 64, 127
2, 73814, Note_on_c, 0, 52, 47
2, 73850, Note_on_c, 0, 64, 0
2, 73852, Note_on_c, 0, 67, 0
2, 73895, Note_on_c, 0, 64, 42
2, 73915, Note_on_c, 0, 52, 0
2, 73954, Note_on_c, 0, 72, 0
2, 73959, Note_on_c, 0, 52, 41
2, 73959, Note_on_c, 0, 67, 49
2, 73972, Control_c, 0, 64, 0
2, 73992, Note_on_c, 0, 36, 0
2, 74013, Note_on_c, 0, 81, 54
2, 74034, Note_on_c, 0, 64, 0
2, 74034, Note_on_c, 0, 67, 0
2, 74034, Note_on_c, 0, 52, 0
2, 74034, Note_on_c, 0, 76, 62
2, 74034, Note_on_c, 0, 79, 63
2, 74037, Note_on_c, 0, 36, 50
2, 74047, Note_on_c, 0, 81, 0
2, 74053, Note_on_c, 0, 76, 0
2, 74053, Note_on_c, 0, 79, 0
2, 74123, Note_on_c, 0, 52, 52
2, 74125, Note_on_c, 0, 75, 54
2, 74125, Note_on_c, 0, 78, 57
2, 74210, Note_on_c, 0, 78, 0
2, 74210, Note_on_c, 0, 75, 0
2, 74216, Note_on_c, 0, 76, 62
2, 74216, Note_on_c, 0, 79, 60
2, 74221, Note_on_c, 0, 64, 54
2, 74242, Note_on_c, 0, 52, 0
2, 74284, Control_c, 0, 64, 127
2, 74284, Note_on_c, 0, 52, 53
2, 74331, Note_on_c, 0, 64, 0
2, 74373, Note_on_c, 0, 64, 48
2, 74388, Note_on_c, 0, 52, 0
2, 74396, Note_on_c, 0, 76, 0
2, 74429, Note_on_c, 0, 52, 48
2, 74432, Note_on_c, 0, 79, 0
2, 74438, Note_on_c, 0, 72, 61
2, 74438, Note_on_c, 0, 76, 62
2, 74448, Control_c, 0, 64, 0
2, 74512, Note_on_c, 0, 36, 0
2, 74512, Note_on_c, 0, 52, 0
2, 74512, Note_on_c, 0, 64, 0
2, 74517, Note_on_c, 0, 43, 60
2, 74520, Note_on_c, 0, 77, 66
2, 74532, Note_on_c, 0, 74, 46
2, 74540, Note_on_c, 0, 72, 0
2, 74540, Note_on_c, 0, 76, 0
2, 74613, Control_c, 0, 64, 127
2, 74613, Note_on_c, 0, 55, 56
2, 74698, Note_on_c, 0, 62, 52
2, 74698, Note_on_c, 0, 65, 59
2, 74718, Note_on_c, 0, 55, 0
2, 74758, Note_on_c, 0, 77, 0
2, 74758, Note_on_c, 0, 74, 0
2, 74758, Note_on_c, 0, 81, 66
2, 74760, Note_on_c, 0, 55, 50
2, 74762, Note_on_c, 0, 71, 60
2, 74812, Note_on_c, 0, 43, 0
2, 74855, Note_on_c, 0, 60, 56
2, 74855, Note_on_c, 0, 64, 60
2, 74856, Note_on_c, 0, 65, 0
2, 74856, Note_on_c, 0, 62, 0
2, 74856, Note_on_c, 0, 71, 0
2, 74856, Note_on_c, 0, 72, 60
2, 74856, Note_on_c, 0, 76, 64
2, 74858, Note_on_c, 0, 81, 0
2, 74889, Note_on_c, 0, 55, 0
2, 74907, Control_c, 0, 64, 0
2, 74941, Note_on_c, 0, 69, 59
2, 74941, Note_on_c, 0, 79, 60
2, 74944, Note_on_c, 0, 72, 0
2, 74944, Note_on_c, 0, 76, 0
2, 74947, Note_on_c, 0, 55, 54
2, 75021, Note_on_c, 0, 60, 0
2, 75021, Note_on_c, 0, 64, 0
2, 75028, Note_on_c, 0, 43, 59
2, 75028, Note_on_c, 0, 71, 66
2, 75028, Note_on_c, 0, 74, 72
2, 75041, Note_on_c, 0, 55, 0
2, 75048, Note_on_c, 0, 69, 0
2, 75048, Note_on_c, 0, 79, 0
2, 75067, Control_c, 0, 64, 127
2, 75106, Note_on_c, 0, 55, 57
2, 75177, Note_on_c, 0, 55, 0
2, 75183, Note_on_c, 0, 62, 64
2, 75185, Note_on_c, 0, 59, 59
2, 75238, Note_on_c, 0, 71, 0
2, 75242, Note_on_c, 0, 55, 48
2, 75242, Note_on_c, 0, 67, 59
2, 75244, Note_on_c, 0, 77, 59
2, 75258, Note_on_c, 0, 62, 0
2, 75258, Note_on_c, 0, 59, 0
2, 75258, Note_on_c, 0, 43, 0
2, 75276, Note_on_c, 0, 74, 0
2, 75308, Note_on_c, 0, 55, 0
2, 75315, Control_c, 0, 64, 0
2, 75317, Note_on_c, 0, 77, 0
2, 75320, Note_on_c, 0, 58, 59
2, 75322, Note_on_c, 0, 61, 56
2, 75322, Note_on_c, 0, 70, 62
2, 75322, Note_on_c, 0, 73, 65
2, 75349, Note_on_c, 0, 67, 0
2, 75361, Control_c, 0, 67, 127
2, 75387, Note_on_c, 0, 70, 0
2, 75387, Note_on_c, 0, 73, 0
2, 75392, Note_on_c, 0, 55, 54
2, 75394, Note_on_c, 0, 67, 60
2, 75394, Note_on_c, 0, 76, 61
2, 75468, Note_on_c, 0, 58, 0
2, 75470, Note_on_c, 0, 67, 0
2, 75470, Note_on_c, 0, 61, 0
2, 75473, Note_on_c, 0, 43, 65
2, 75475, Note_on_c, 0, 74, 64
2, 75475, Note_on_c, 0, 77, 64
2, 75495, Note_on_c, 0, 55, 0
2, 75497, Note_on_c, 0, 76, 0
2, 75536, Control_c, 0, 64, 127
2, 75538, Note_on_c, 0, 55, 54
2, 75622, Note_on_c, 0, 62, 47
2, 75622, Note_on_c, 0, 65, 51
2, 75653, Note_on_c, 0, 55, 0
2, 75695, Note_on_c, 0, 74, 0
2, 75695, Note_on_c, 0, 77, 0
2, 75697, Note_on_c, 0, 55, 48
2, 75699, Note_on_c, 0, 71, 52
2, 75701, Note_on_c, 0, 81, 49
2, 75790, Note_on_c, 0, 55, 0
2, 75790, Note_on_c, 0, 62, 0
2, 75792, Note_on_c, 0, 71, 0
2, 75792, Note_on_c, 0, 65, 0
2, 75792, Note_on_c, 0, 81, 0
2, 75794, Control_c, 0, 64, 0
2, 75794, Note_on_c, 0, 60, 41
2, 75796, Note_on_c, 0, 64, 46
2, 75796, Note_on_c, 0, 72, 59
2, 75796, Note_on_c, 0, 76, 57
2, 75883, Note_on_c, 0, 76, 0
2, 75883, Note_on_c, 0, 72, 0
2, 75886, Note_on_c, 0, 55, 41
2, 75886, Note_on_c, 0, 69, 48
2, 75888, Note_on_c, 0, 79, 48
2, 75901, Note_on_c, 0, 43, 0
2, 75957, Note_on_c, 0, 60, 0
2, 75959, Note_on_c, 0, 64, 0
2, 75964, Note_on_c, 0, 43, 50
2, 75970, Note_on_c, 0, 71, 61
2, 75970, Note_on_c, 0, 74, 61
2, 75984, Note_on_c, 0, 55, 0
2, 75989, Note_on_c, 0, 69, 0
2, 75991, Note_on_c, 0, 79, 0
2, 76043, Note_on_c, 0, 55, 48
2, 76049, Control_c, 0, 64, 127
2, 76125, Note_on_c, 0, 62, 48
2, 76127, Note_on_c, 0, 59, 45
2, 76158, Note_on_c, 0, 55, 0
2, 76200, Note_on_c, 0, 74, 0
2, 76202, Note_on_c, 0, 55, 46
2, 76205, Note_on_c, 0, 71, 0
2, 76205, Note_on_c, 0, 77, 50
2, 76210, Note_on_c, 0, 67, 48
2, 76291, Control_c, 0, 64, 0
2, 76293, Note_on_c, 0, 62, 0
2, 76293, Note_on_c, 0, 55, 0
2, 76293, Note_on_c, 0, 43, 0
2, 76293, Note_on_c, 0, 59, 0
2, 76295, Note_on_c, 0, 67, 0
2, 76295, Note_on_c, 0, 77, 0
2, 76299, Note_on_c, 0, 58, 47
2, 76299, Note_on_c, 0, 61, 47
2, 76299, Note_on_c, 0, 70, 48
2, 76301, Note_on_c, 0, 73, 48
2, 76371, Note_on_c, 0, 73, 0
2, 76371, Note_on_c, 0, 70, 0
2, 76374, Note_on_c, 0, 55, 44
2, 76376, Note_on_c, 0, 67, 48
2, 76376, Note_on_c, 0, 76, 49
2, 76425, Note_on_c, 0, 61, 0
2, 76425, Note_on_c, 0, 58, 0
2, 76464, Note_on_c, 0, 55, 0
2, 76465, Note_on_c, 0, 67, 0
2, 76465, Note_on_c, 0, 76, 0
2, 76468, Note_on_c, 0, 58, 50
2, 76470, Note_on_c, 0, 61, 52
2, 76470, Note_on_c, 0, 70, 59
2, 76470, Note_on_c, 0, 75, 66
2, 76493, Control_c, 0, 64, 127
2, 76545, Note_on_c, 0, 55, 52
2, 76600, Note_on_c, 0, 42, 53
2, 76626, Control_c, 0, 67, 0
2, 76634, Note_on_c, 0, 70, 0
2, 76668, Control_c, 0, 64, 0
2, 76670, Note_on_c, 0, 55, 0
2, 76675, Note_on_c, 0, 75, 0
2, 76677, Note_on_c, 0, 54, 59
2, 76679, Note_on_c, 0, 64, 60
2, 76679, Note_on_c, 0, 70, 63
2, 76679, Note_on_c, 0, 73, 61
2, 76680, Note_on_c, 0, 76, 63
2, 76728, Note_on_c, 0, 58, 0
2, 76728, Note_on_c, 0, 61, 0
2, 76728, Note_on_c, 0, 42, 0
2, 76754, Note_on_c, 0, 70, 0
2, 76754, Note_on_c, 0, 73, 0
2, 76757, Note_on_c, 0, 43, 72
2, 76759, Note_on_c, 0, 63, 65
2, 76759, Note_on_c, 0, 75, 67
2, 76767, Note_on_c, 0, 54, 0
2, 76775, Note_on_c, 0, 76, 0
2, 76775, Note_on_c, 0, 64, 0
2, 76827, Control_c, 0, 64, 127
2, 76829, Note_on_c, 0, 55, 60
2, 76900, Note_on_c, 0, 37, 65
2, 76949, Control_c, 0, 64, 0
2, 76963, Note_on_c, 0, 37, 0
2, 76965, Note_on_c, 0, 43, 0
2, 76965, Note_on_c, 0, 55, 0
2, 76965, Note_on_c, 0, 63, 0
2, 76967, Note_on_c, 0, 75, 0
2, 76969, Note_on_c, 0, 49, 71
2, 76969, Note_on_c, 0, 71, 66
2, 76974, Note_on_c, 0, 80, 69
2, 76974, Note_on_c, 0, 83, 72
2, 76992, Note_on_c, 0, 49, 0
2, 77053, Note_on_c, 0, 71, 0
2, 77053, Note_on_c, 0, 80, 0
2, 77053, Note_on_c, 0, 83, 0
2, 77055, Note_on_c, 0, 39, 60
2, 77057, Note_on_c, 0, 70, 76
2, 77059, Note_on_c, 0, 79, 78
2, 77059, Note_on_c, 0, 82, 74
2, 77086, Control_c, 0, 64, 127
2, 77127, Note_on_c, 0, 51, 71
2, 77189, Note_on_c, 0, 51, 0
2, 77189, Note_on_c, 0, 39, 0
2, 77191, Note_on_c, 0, 70, 0
2, 77193, Note_on_c, 0, 79, 0
2, 77193, Note_on_c, 0, 82, 0
2, 77193, Note_on_c, 0, 25, 81
2, 77246, Control_c, 0, 64, 0
2, 77258, Note_on_c, 0, 25, 0
2, 77261, Note_on_c, 0, 80, 70
2, 77261, Note_on_c, 0, 88, 73
2, 77261, Note_on_c, 0, 92, 75
2, 77264, Note_on_c, 0, 37, 73
2, 77293, Note_on_c, 0, 37, 0
2, 77295, Note_on_c, 0, 80, 0
2, 77297, Note_on_c, 0, 92, 0
2, 77297, Note_on_c, 0, 88, 0
2, 77385, Note_on_c, 0, 79, 81
2, 77387, Note_on_c, 0, 87, 88
2, 77387, Note_on_c, 0, 91, 84
2, 77389, Note_on_c, 0, 27, 81
2, 77389, Note_on_c, 0, 39, 83
2, 77413, Control_c, 0, 64, 127
2, 77496, Note_on_c, 0, 39, 0
2, 77496, Note_on_c, 0, 27, 0
2, 77507, Note_on_c, 0, 51, 64
2, 77533, Control_c, 0, 64, 0
2, 77541, Note_on_c, 0, 58, 66
2, 77554, Note_on_c, 0, 61, 68
2, 77556, Note_on_c, 0, 51, 0
2, 77558, Note_on_c, 0, 87, 0
2, 77564, Note_on_c, 0, 79, 0
2, 77566, Note_on_c, 0, 91, 0
2, 77570, Note_on_c, 0, 58, 0
2, 77570, Note_on_c, 0, 67, 56
2, 77570, Note_on_c, 0, 88, 59
2, 77583, Note_on_c, 0, 61, 0
2, 77591, Note_on_c, 0, 67, 0
2, 77603, Note_on_c, 0, 87, 62
2, 77605, Note_on_c, 0, 88, 0
2, 77632, Note_on_c, 0, 85, 60
2, 77634, Note_on_c, 0, 87, 0
2, 77657, Note_on_c, 0, 83, 57
2, 77659, Note_on_c, 0, 85, 0
2, 77690, Note_on_c, 0, 82, 60
2, 77692, Note_on_c, 0, 83, 0
2, 77716, Note_on_c, 0, 80, 59
2, 77718, Note_on_c, 0, 82, 0
2, 77741, Note_on_c, 0, 79, 56
2, 77744, Note_on_c, 0, 80, 0
2, 77776, Note_on_c, 0, 76, 54
2, 77778, Note_on_c, 0, 79, 0
2, 77802, Note_on_c, 0, 75, 57
2, 77804, Note_on_c, 0, 76, 0
2, 77827, Note_on_c, 0, 73, 60
2, 77830, Note_on_c, 0, 75, 0
2, 77854, Note_on_c, 0, 73, 0
2, 77854, Note_on_c, 0, 71, 59
2, 77885, Note_on_c, 0, 71, 0
2, 77891, Note_on_c, 0, 70, 54
2, 77904, Note_on_c, 0, 39, 77
2, 77917, Note_on_c, 0, 68, 58
2, 77919, Note_on_c, 0, 70, 0
2, 77929, Note_on_c, 0, 39, 0
2, 77956, Note_on_c, 0, 64, 59
2, 77958, Note_on_c, 0, 68, 0
2, 77982, Note_on_c, 0, 67, 54
2, 77984, Note_on_c, 0, 64, 0
2, 78000, Control_c, 0, 64, 127
2, 78010, Note_on_c, 0, 67, 0
2, 78015, Note_on_c, 0, 68, 54
2, 78042, Note_on_c, 0, 68, 0
2, 78048, Note_on_c, 0, 70, 55
2, 78072, Note_on_c, 0, 51, 71
2, 78072, Note_on_c, 0, 55, 70
2, 78073, Note_on_c, 0, 70, 0
2, 78073, Note_on_c, 0, 71, 55
2, 78078, Note_on_c, 0, 58, 67
2, 78080, Note_on_c, 0, 61, 66
2, 78098, Note_on_c, 0, 71, 0
2, 78103, Note_on_c, 0, 73, 66
2, 78130, Note_on_c, 0, 73, 0
2, 78136, Note_on_c, 0, 75, 65
2, 78162, Note_on_c, 0, 75, 0
2, 78167, Note_on_c, 0, 76, 63
2, 78200, Note_on_c, 0, 76, 0
2, 78206, Note_on_c, 0, 79, 65
2, 78232, Note_on_c, 0, 79, 0
2, 78238, Note_on_c, 0, 80, 64
2, 78262, Note_on_c, 0, 80, 0
2, 78262, Control_c, 0, 64, 0
2, 78269, Note_on_c, 0, 82, 64
2, 78296, Note_on_c, 0, 82, 0
2, 78298, Note_on_c, 0, 58, 0
2, 78300, Note_on_c, 0, 51, 0
2, 78300, Note_on_c, 0, 55, 0
2, 78300, Note_on_c, 0, 61, 0
2, 78302, Note_on_c, 0, 85, 43
2, 78304, Note_on_c, 0, 32, 66
2, 78328, Note_on_c, 0, 85, 0
2, 78349, Note_on_c, 0, 32, 0
2, 78352, Note_on_c, 0, 71, 78
2, 78352, Note_on_c, 0, 80, 77
2, 78352, Note_on_c, 0, 83, 77
2, 78355, Note_on_c, 0, 44, 72
2, 78371, Note_on_c, 0, 71, 0
2, 78373, Note_on_c, 0, 80, 0
2, 78373, Note_on_c, 0, 83, 0
2, 78388, Note_on_c, 0, 44, 0
2, 78480, Note_on_c, 0, 51, 62
2, 78481, Note_on_c, 0, 70, 63
2, 78481, Note_on_c, 0, 79, 61
2, 78483, Note_on_c, 0, 82, 66
2, 78500, Note_on_c, 0, 51, 0
2, 78503, Note_on_c, 0, 70, 0
2, 78504, Note_on_c, 0, 79, 0
2, 78504, Note_on_c, 0, 82, 0
2, 78612, Note_on_c, 0, 71, 76
2, 78612, Note_on_c, 0, 80, 77
2, 78612, Note_on_c, 0, 83, 75
2, 78618, Note_on_c, 0, 63, 63
2, 78626, Control_c, 0, 64, 127
2, 78684, Note_on_c, 0, 51, 77
2, 78708, Note_on_c, 0, 83, 0
2, 78708, Note_on_c, 0, 71, 0
2, 78708, Note_on_c, 0, 80, 0
2, 78724, Control_c, 0, 64, 0
2, 78732, Note_on_c, 0, 85, 48
2, 78741, Note_on_c, 0, 63, 0
2, 78741, Note_on_c, 0, 51, 0
2, 78745, Note_on_c, 0, 44, 76
2, 78747, Note_on_c, 0, 71, 65
2, 78750, Note_on_c, 0, 80, 66
2, 78750, Note_on_c, 0, 83, 68
2, 78764, Note_on_c, 0, 85, 0
2, 78767, Note_on_c, 0, 44, 0
2, 78768, Note_on_c, 0, 71, 0
2, 78770, Note_on_c, 0, 80, 0
2, 78770, Note_on_c, 0, 83, 0
2, 78834, Note_on_c, 0, 51, 61
2, 78834, Note_on_c, 0, 63, 56
2, 78836, Note_on_c, 0, 70, 67
2, 78836, Note_on_c, 0, 79, 64
2, 78836, Note_on_c, 0, 82, 65
2, 78854, Note_on_c, 0, 63, 0
2, 78854, Note_on_c, 0, 51, 0
2, 78856, Note_on_c, 0, 70, 0
2, 78858, Note_on_c, 0, 79, 0
2, 78858, Note_on_c, 0, 82, 0
2, 78903, Note_on_c, 0, 44, 71
2, 78906, Note_on_c, 0, 71, 61
2, 78908, Note_on_c, 0, 80, 60
2, 78908, Note_on_c, 0, 83, 63
2, 78924, Note_on_c, 0, 44, 0
2, 78926, Note_on_c, 0, 71, 0
2, 78926, Note_on_c, 0, 80, 0
2, 78926, Note_on_c, 0, 83, 0
2, 78975, Note_on_c, 0, 51, 63
2, 78978, Note_on_c, 0, 73, 63
2, 78978, Note_on_c, 0, 82, 64
2, 78978, Note_on_c, 0, 85, 65
2, 78996, Note_on_c, 0, 51, 0
2, 78998, Note_on_c, 0, 73, 0
2, 79000, Note_on_c, 0, 82, 0
2, 79000, Note_on_c, 0, 85, 0
2, 79060, Note_on_c, 0, 63, 64
2, 79063, Note_on_c, 0, 75, 78
2, 79063, Note_on_c, 0, 83, 71
2, 79063, Note_on_c, 0, 87, 74
2, 79090, Control_c, 0, 64, 127
2, 79122, Note_on_c, 0, 51, 63
2, 79196, Note_on_c, 0, 39, 61
2, 79230, Note_on_c, 0, 51, 0
2, 79230, Note_on_c, 0, 63, 0
2, 79247, Control_c, 0, 64, 0
2, 79267, Note_on_c, 0, 87, 0
2, 79267, Note_on_c, 0, 75, 0
2, 79267, Note_on_c, 0, 83, 0
2, 79270, Note_on_c, 0, 70, 70
2, 79272, Note_on_c, 0, 79, 68
2, 79272, Note_on_c, 0, 82, 66
2, 79274, Note_on_c, 0, 51, 60
2, 79282, Note_on_c, 0, 63, 65
2, 79320, Note_on_c, 0, 63, 0
2, 79320, Note_on_c, 0, 39, 0
2, 79320, Note_on_c, 0, 51, 0
2, 79322, Note_on_c, 0, 70, 0
2, 79324, Note_on_c, 0, 79, 0
2, 79324, Note_on_c, 0, 82, 0
2, 79329, Note_on_c, 0, 85, 53
2, 79347, Note_on_c, 0, 44, 71
2, 79349, Note_on_c, 0, 71, 67
2, 79349, Note_on_c, 0, 80, 69
2, 79349, Note_on_c, 0, 83, 72
2, 79365, Note_on_c, 0, 85, 0
2, 79368, Note_on_c, 0, 44, 0
2, 79370, Note_on_c, 0, 80, 0
2, 79370, Note_on_c, 0, 71, 0
2, 79370, Note_on_c, 0, 83, 0
2, 79434, Note_on_c, 0, 51, 66
2, 79436, Note_on_c, 0, 70, 62
2, 79436, Note_on_c, 0, 79, 64
2, 79436, Note_on_c, 0, 82, 62
2, 79456, Note_on_c, 0, 70, 0
2, 79456, Note_on_c, 0, 51, 0
2, 79458, Note_on_c, 0, 79, 0
2, 79458, Note_on_c, 0, 82, 0
2, 79520, Note_on_c, 0, 63, 63
2, 79520, Note_on_c, 0, 71, 76
2, 79523, Note_on_c, 0, 80, 73
2, 79523, Note_on_c, 0, 83, 75
2, 79529, Control_c, 0, 64, 127
2, 79591, Note_on_c, 0, 51, 60
2, 79618, Note_on_c, 0, 71, 0
2, 79620, Note_on_c, 0, 83, 0
2, 79620, Note_on_c, 0, 80, 0
2, 79644, Control_c, 0, 64, 0
2, 79649, Note_on_c, 0, 85, 53
2, 79655, Note_on_c, 0, 63, 0
2, 79655, Note_on_c, 0, 51, 0
2, 79659, Note_on_c, 0, 44, 69
2, 79659, Note_on_c, 0, 71, 68
2, 79661, Note_on_c, 0, 80, 72
2, 79661, Note_on_c, 0, 83, 65
2, 79677, Note_on_c, 0, 85, 0
2, 79680, Note_on_c, 0, 44, 0
2, 79682, Note_on_c, 0, 80, 0
2, 79682, Note_on_c, 0, 71, 0
2, 79682, Note_on_c, 0, 83, 0
2, 79725, Note_on_c, 0, 51, 64
2, 79725, Note_on_c, 0, 63, 60
2, 79725, Note_on_c, 0, 70, 60
2, 79727, Note_on_c, 0, 79, 65
2, 79727, Note_on_c, 0, 82, 60
2, 79745, Note_on_c, 0, 70, 0
2, 79745, Note_on_c, 0, 51, 0
2, 79745, Note_on_c, 0, 63, 0
2, 79747, Note_on_c, 0, 79, 0
2, 79747, Note_on_c, 0, 82, 0
2, 79791, Note_on_c, 0, 71, 66
2, 79793, Note_on_c, 0, 80, 60
2, 79793, Note_on_c, 0, 83, 67
2, 79796, Note_on_c, 0, 37, 60
2, 79811, Note_on_c, 0, 71, 0
2, 79813, Note_on_c, 0, 80, 0
2, 79813, Note_on_c, 0, 83, 0
2, 79821, Note_on_c, 0, 37, 0
2, 79854, Note_on_c, 0, 49, 71
2, 79857, Note_on_c, 0, 85, 67
2, 79862, Note_on_c, 0, 73, 67
2, 79864, Note_on_c, 0, 82, 60
2, 79872, Note_on_c, 0, 49, 0
2, 79877, Note_on_c, 0, 85, 0
2, 79882, Note_on_c, 0, 73, 0
2, 79884, Note_on_c, 0, 82, 0
2, 79916, Note_on_c, 0, 83, 70
2, 79916, Note_on_c, 0, 87, 71
2, 79926, Note_on_c, 0, 61, 74
2, 79928, Note_on_c, 0, 75, 68
2, 79942, Note_on_c, 0, 83, 0
2, 79946, Note_on_c, 0, 61, 0
2, 79948, Note_on_c, 0, 75, 0
2, 79950, Note_on_c, 0, 87, 0
2, 79984, Note_on_c, 0, 49, 70
2, 79987, Note_on_c, 0, 77, 70
2, 79989, Note_on_c, 0, 80, 68
2, 79989, Note_on_c, 0, 89, 70
2, 80004, Note_on_c, 0, 49, 0
2, 80015, Note_on_c, 0, 77, 0
2, 80015, Note_on_c, 0, 80, 0
2, 80015, Note_on_c, 0, 89, 0
2, 80062, Note_on_c, 0, 42, 76
2, 80070, Note_on_c, 0, 78, 82
2, 80070, Note_on_c, 0, 82, 80
2, 80070, Note_on_c, 0, 90, 78
2, 80091, Control_c, 0, 64, 127
2, 80136, Control_c, 0, 67, 127
2, 80160, Note_on_c, 0, 49, 71
2, 80161, Note_on_c, 0, 61, 71
2, 80200, Note_on_c, 0, 42, 0
2, 80203, Note_on_c, 0, 78, 0
2, 80203, Control_c, 0, 64, 0
2, 80237, Note_on_c, 0, 49, 0
2, 80239, Note_on_c, 0, 61, 0
2, 80241, Note_on_c, 0, 90, 0
2, 80241, Note_on_c, 0, 82, 0
2, 80249, Note_on_c, 0, 42, 45
2, 80252, Note_on_c, 0, 69, 50
2, 80252, Note_on_c, 0, 73, 49
2, 80254, Note_on_c, 0, 78, 50
2, 80272, Note_on_c, 0, 42, 0
2, 80274, Note_on_c, 0, 69, 0
2, 80274, Note_on_c, 0, 73, 0
2, 80276, Note_on_c, 0, 78, 0
2, 80368, Note_on_c, 0, 49, 47
2, 80371, Note_on_c, 0, 68, 42
2, 80371, Note_on_c, 0, 73, 45
2, 80373, Note_on_c, 0, 77, 48
2, 80391, Note_on_c, 0, 68, 0
2, 80391, Note_on_c, 0, 49, 0
2, 80393, Note_on_c, 0, 73, 0
2, 80393, Note_on_c, 0, 77, 0
2, 80493, Note_on_c, 0, 61, 50
2, 80493, Note_on_c, 0, 69, 58
2, 80493, Note_on_c, 0, 73, 59
2, 80495, Note_on_c, 0, 78, 56
2, 80508, Control_c, 0, 64, 127
2, 80511, Note_on_c, 0, 61, 0
2, 80555, Note_on_c, 0, 69, 0
2, 80558, Note_on_c, 0, 49, 44
2, 80561, Note_on_c, 0, 73, 0
2, 80574, Note_on_c, 0, 78, 0
2, 80598, Note_on_c, 0, 69, 48
2, 80600, Note_on_c, 0, 80, 52
2, 80608, Control_c, 0, 64, 0
2, 80610, Note_on_c, 0, 73, 57
2, 80617, Note_on_c, 0, 78, 53
2, 80622, Note_on_c, 0, 49, 0
2, 80625, Note_on_c, 0, 69, 0
2, 80630, Note_on_c, 0, 42, 47
2, 80633, Note_on_c, 0, 80, 0
2, 80638, Note_on_c, 0, 73, 0
2, 80645, Note_on_c, 0, 78, 0
2, 80650, Note_on_c, 0, 42, 0
2, 80708, Note_on_c, 0, 77, 58
2, 80712, Note_on_c, 0, 49, 43
2, 80712, Note_on_c, 0, 61, 48
2, 80714, Note_on_c, 0, 68, 56
2, 80714, Note_on_c, 0, 73, 56
2, 80728, Note_on_c, 0, 77, 0
2, 80731, Note_on_c, 0, 49, 0
2, 80733, Note_on_c, 0, 68, 0
2, 80733, Note_on_c, 0, 61, 0
2, 80733, Note_on_c, 0, 73, 0
2, 80774, Note_on_c, 0, 42, 47
2, 80776, Note_on_c, 0, 69, 65
2, 80778, Note_on_c, 0, 73, 59
2, 80778, Note_on_c, 0, 78, 63
2, 80794, Note_on_c, 0, 42, 0
2, 80796, Note_on_c, 0, 69, 0
2, 80798, Note_on_c, 0, 73, 0
2, 80798, Note_on_c, 0, 78, 0
2, 80843, Note_on_c, 0, 49, 48
2, 80846, Note_on_c, 0, 71, 64
2, 80848, Note_on_c, 0, 80, 60
2, 80864, Note_on_c, 0, 49, 0
2, 80866, Note_on_c, 0, 71, 0
2, 80868, Note_on_c, 0, 80, 0
2, 80868, Control_c, 0, 64, 127
2, 80928, Note_on_c, 0, 81, 67
2, 80933, Note_on_c, 0, 61, 58
2, 80935, Note_on_c, 0, 73, 67
2, 80999, Note_on_c, 0, 49, 51
2, 81044, Control_c, 0, 67, 0
2, 81068, Note_on_c, 0, 37, 48
2, 81086, Note_on_c, 0, 73, 0
2, 81091, Note_on_c, 0, 49, 0
2, 81091, Note_on_c, 0, 61, 0
2, 81107, Control_c, 0, 64, 0
2, 81120, Note_on_c, 0, 81, 0
2, 81124, Note_on_c, 0, 77, 59
2, 81130, Note_on_c, 0, 37, 0
2, 81130, Note_on_c, 0, 68, 60
2, 81130, Note_on_c, 0, 73, 58
2, 81135, Note_on_c, 0, 49, 56
2, 81137, Note_on_c, 0, 61, 60
2, 81147, Note_on_c, 0, 77, 0
2, 81152, Note_on_c, 0, 68, 0
2, 81152, Note_on_c, 0, 73, 0
2, 81155, Note_on_c, 0, 49, 0
2, 81157, Note_on_c, 0, 61, 0
2, 81196, Note_on_c, 0, 80, 53
2, 81205, Note_on_c, 0, 42, 55
2, 81207, Note_on_c, 0, 69, 51
2, 81207, Note_on_c, 0, 73, 51
2, 81210, Note_on_c, 0, 78, 51
2, 81223, Note_on_c, 0, 80, 0
2, 81228, Note_on_c, 0, 42, 0
2, 81230, Note_on_c, 0, 73, 0
2, 81230, Note_on_c, 0, 69, 0
2, 81232, Note_on_c, 0, 78, 0
2, 81281, Note_on_c, 0, 49, 49
2, 81287, Note_on_c, 0, 68, 55
2, 81287, Note_on_c, 0, 73, 54
2, 81287, Note_on_c, 0, 77, 59
2, 81299, Note_on_c, 0, 49, 0
2, 81307, Note_on_c, 0, 68, 0
2, 81307, Note_on_c, 0, 73, 0
2, 81309, Note_on_c, 0, 77, 0
2, 81369, Note_on_c, 0, 61, 48
2, 81372, Note_on_c, 0, 69, 68
2, 81372, Note_on_c, 0, 73, 71
2, 81374, Note_on_c, 0, 78, 65
2, 81387, Control_c, 0, 64, 127
2, 81434, Note_on_c, 0, 49, 51
2, 81461, Note_on_c, 0, 73, 0
2, 81490, Control_c, 0, 64, 0
2, 81498, Note_on_c, 0, 49, 0
2, 81498, Note_on_c, 0, 61, 0
2, 81500, Note_on_c, 0, 69, 0
2, 81500, Note_on_c, 0, 78, 0
2, 81503, Note_on_c, 0, 39, 53
2, 81504, Note_on_c, 0, 70, 66
2, 81504, Note_on_c, 0, 73, 59
2, 81504, Note_on_c, 0, 79, 60
2, 81525, Note_on_c, 0, 73, 0
2, 81525, Note_on_c, 0, 39, 0
2, 81525, Note_on_c, 0, 70, 0
2, 81527, Note_on_c, 0, 79, 0
2, 81576, Note_on_c, 0, 51, 54
2, 81576, Note_on_c, 0, 63, 56
2, 81577, Note_on_c, 0, 70, 64
2, 81577, Note_on_c, 0, 73, 66
2, 81577, Note_on_c, 0, 79, 66
2, 81596, Note_on_c, 0, 63, 0
2, 81596, Note_on_c, 0, 51, 0
2, 81598, Note_on_c, 0, 73, 0
2, 81598, Note_on_c, 0, 70, 0
2, 81600, Note_on_c, 0, 79, 0
2, 81642, Note_on_c, 0, 44, 61
2, 81649, Note_on_c, 0, 71, 69
2, 81649, Note_on_c, 0, 80, 71
2, 81662, Note_on_c, 0, 44, 0
2, 81670, Note_on_c, 0, 71, 0
2, 81672, Note_on_c, 0, 80, 0
2, 81717, Note_on_c, 0, 73, 69
2, 81717, Note_on_c, 0, 82, 72
2, 81721, Note_on_c, 0, 51, 64
2, 81737, Note_on_c, 0, 82, 0
2, 81737, Note_on_c, 0, 73, 0
2, 81743, Note_on_c, 0, 51, 0
2, 81792, Note_on_c, 0, 63, 69
2, 81792, Note_on_c, 0, 75, 81
2, 81794, Note_on_c, 0, 83, 79
2, 81828, Control_c, 0, 64, 127
2, 81851, Note_on_c, 0, 51, 61
2, 81933, Note_on_c, 0, 39, 64
2, 81953, Note_on_c, 0, 51, 0
2, 81955, Note_on_c, 0, 63, 0
2, 81991, Control_c, 0, 64, 0
2, 81993, Note_on_c, 0, 39, 0
2, 81996, Note_on_c, 0, 83, 0
2, 81996, Note_on_c, 0, 75, 0
2, 81998, Note_on_c, 0, 51, 64
2, 82000, Note_on_c, 0, 63, 64
2, 82000, Note_on_c, 0, 73, 65
2, 82002, Note_on_c, 0, 70, 71
2, 82002, Note_on_c, 0, 79, 70
2, 82020, Note_on_c, 0, 51, 0
2, 82022, Note_on_c, 0, 70, 0
2, 82022, Note_on_c, 0, 63, 0
2, 82022, Note_on_c, 0, 73, 0
2, 82022, Note_on_c, 0, 79, 0
2, 82071, Note_on_c, 0, 44, 75
2, 82077, Note_on_c, 0, 32, 72
2, 82079, Note_on_c, 0, 71, 73
2, 82079, Note_on_c, 0, 75, 73
2, 82079, Note_on_c, 0, 80, 79
2, 82079, Note_on_c, 0, 83, 79
2, 82159, Note_on_c, 0, 51, 61
2, 82165, Control_c, 0, 64, 127
2, 82223, Note_on_c, 0, 63, 60
2, 82256, Note_on_c, 0, 51, 0
2, 82262, Note_on_c, 0, 71, 0
2, 82264, Note_on_c, 0, 80, 0
2, 82264, Note_on_c, 0, 75, 0
2, 82264, Note_on_c, 0, 83, 0
2, 82290, Control_c, 0, 64, 0
2, 82292, Note_on_c, 0, 32, 0
2, 82294, Note_on_c, 0, 44, 0
2, 82296, Note_on_c, 0, 51, 60
2, 82298, Note_on_c, 0, 63, 0
2, 82304, Note_on_c, 0, 71, 70
2, 82304, Note_on_c, 0, 75, 71
2, 82304, Note_on_c, 0, 83, 72
2, 82307, Note_on_c, 0, 80, 67
2, 82318, Note_on_c, 0, 51, 0
2, 82325, Note_on_c, 0, 83, 0
2, 82325, Note_on_c, 0, 71, 0
2, 82325, Note_on_c, 0, 75, 0
2, 82325, Note_on_c, 0, 80, 0
2, 82374, Note_on_c, 0, 34, 72
2, 82376, Note_on_c, 0, 46, 79
2, 82376, Note_on_c, 0, 70, 72
2, 82378, Note_on_c, 0, 75, 68
2, 82378, Note_on_c, 0, 78, 66
2, 82378, Note_on_c, 0, 82, 73
2, 82439, Control_c, 0, 64, 127
2, 82457, Note_on_c, 0, 51, 61
2, 82459, Note_on_c, 0, 63, 66
2, 82518, Control_c, 0, 64, 0
2, 82527, Note_on_c, 0, 63, 0
2, 82527, Note_on_c, 0, 51, 0
2, 82527, Note_on_c, 0, 34, 0
2, 82527, Note_on_c, 0, 46, 0
2, 82529, Note_on_c, 0, 70, 0
2, 82531, Note_on_c, 0, 75, 0
2, 82531, Note_on_c, 0, 82, 0
2, 82531, Note_on_c, 0, 78, 0
2, 82534, Note_on_c, 0, 68, 73
2, 82534, Note_on_c, 0, 71, 73
2, 82534, Note_on_c, 0, 76, 77
2, 82536, Note_on_c, 0, 80, 73
2, 82538, Note_on_c, 0, 35, 71
2, 82538, Note_on_c, 0, 47, 71
2, 82624, Note_on_c, 0, 52, 56
2, 82653, Control_c, 0, 64, 127
2, 82681, Note_on_c, 0, 64, 55
2, 82707, Note_on_c, 0, 52, 0
2, 82709, Note_on_c, 0, 76, 0
2, 82709, Note_on_c, 0, 71, 0
2, 82709, Note_on_c, 0, 68, 0
2, 82709, Note_on_c, 0, 80, 0
2, 82753, Note_on_c, 0, 52, 66
2, 82755, Note_on_c, 0, 68, 65
2, 82755, Note_on_c, 0, 71, 64
2, 82755, Note_on_c, 0, 76, 59
2, 82755, Note_on_c, 0, 80, 64
2, 82802, Control_c, 0, 64, 0
2, 82823, Note_on_c, 0, 35, 0
2, 82824, Note_on_c, 0, 52, 0
2, 82824, Note_on_c, 0, 64, 0
2, 82824, Note_on_c, 0, 47, 0
2, 82835, Note_on_c, 0, 37, 64
2, 82837, Note_on_c, 0, 49, 60
2, 82839, Note_on_c, 0, 66, 67
2, 82839, Note_on_c, 0, 70, 72
2, 82839, Note_on_c, 0, 73, 69
2, 82839, Note_on_c, 0, 78, 72
2, 82845, Note_on_c, 0, 68, 0
2, 82845, Note_on_c, 0, 71, 0
2, 82848, Note_on_c, 0, 76, 0
2, 82848, Note_on_c, 0, 80, 0
2, 82915, Control_c, 0, 64, 127
2, 82922, Note_on_c, 0, 61, 56
2, 82953, Control_c, 0, 64, 0
2, 82973, Note_on_c, 0, 37, 0
2, 82981, Note_on_c, 0, 39, 53
2, 82983, Note_on_c, 0, 49, 0
2, 82983, Note_on_c, 0, 66, 0
2, 82983, Note_on_c, 0, 73, 0
2, 82983, Note_on_c, 0, 70, 0
2, 82983, Note_on_c, 0, 61, 0
2, 82985, Note_on_c, 0, 78, 0
2, 82988, Note_on_c, 0, 63, 53
2, 82988, Note_on_c, 0, 68, 66
2, 82988, Note_on_c, 0, 71, 66
2, 82990, Note_on_c, 0, 75, 59
2, 83078, Note_on_c, 0, 51, 48
2, 83096, Control_c, 0, 64, 127
2, 83160, Note_on_c, 0, 59, 54
2, 83223, Note_on_c, 0, 63, 0
2, 83226, Note_on_c, 0, 75, 0
2, 83226, Note_on_c, 0, 71, 0
2, 83226, Note_on_c, 0, 68, 0
2, 83229, Control_c, 0, 64, 0
2, 83229, Note_on_c, 0, 56, 52
2, 83231, Note_on_c, 0, 64, 53
2, 83231, Note_on_c, 0, 73, 58
2, 83275, Note_on_c, 0, 39, 0
2, 83313, Note_on_c, 0, 64, 0
2, 83313, Note_on_c, 0, 56, 0
2, 83313, Note_on_c, 0, 51, 0
2, 83313, Note_on_c, 0, 59, 0
2, 83315, Note_on_c, 0, 73, 0
2, 83318, Note_on_c, 0, 39, 51
2, 83318, Note_on_c, 0, 63, 49
2, 83318, Note_on_c, 0, 71, 65
2, 83397, Note_on_c, 0, 71, 0
2, 83397, Note_on_c, 0, 63, 0
2, 83402, Note_on_c, 0, 51, 45
2, 83402, Note_on_c, 0, 55, 46
2, 83402, Note_on_c, 0, 61, 43
2, 83402, Note_on_c, 0, 70, 56
2, 83434, Note_on_c, 0, 61, 0
2, 83436, Note_on_c, 0, 70, 0
2, 83449, Control_c, 0, 67, 127
2, 83473, Note_on_c, 0, 39, 0
2, 83473, Note_on_c, 0, 51, 0
2, 83473, Note_on_c, 0, 55, 0
2, 83478, Note_on_c, 0, 32, 45
2, 83478, Note_on_c, 0, 44, 43
2, 83480, Note_on_c, 0, 61, 46
2, 83480, Note_on_c, 0, 70, 60
2, 83540, Control_c, 0, 64, 127
2, 83578, Note_on_c, 0, 51, 41
2, 83666, Note_on_c, 0, 55, 47
2, 83703, Note_on_c, 0, 51, 0
2, 83706, Control_c, 0, 64, 0
2, 83742, Note_on_c, 0, 55, 0
2, 83748, Note_on_c, 0, 51, 42
2, 83750, Note_on_c, 0, 61, 0
2, 83750, Note_on_c, 0, 70, 0
2, 83755, Note_on_c, 0, 59, 41
2, 83755, Note_on_c, 0, 68, 47
2, 83807, Note_on_c, 0, 32, 0
2, 83807, Note_on_c, 0, 51, 0
2, 83807, Note_on_c, 0, 44, 0
2, 83809, Note_on_c, 0, 59, 0
2, 83809, Note_on_c, 0, 68, 0
2, 83854, Note_on_c, 0, 44, 46
2, 83854, Note_on_c, 0, 51, 45
2, 83854, Note_on_c, 0, 56, 47
2, 83854, Note_on_c, 0, 59, 46
2, 83854, Note_on_c, 0, 68, 51
2, 83927, Control_c, 0, 64, 127
2, 83984, Note_on_c, 0, 68, 0
2, 83984, Note_on_c, 0, 51, 0
2, 83984, Note_on_c, 0, 59, 0
2, 83990, Note_on_c, 0, 56, 0
2, 83990, Note_on_c, 0, 44, 0
2, 84029, Control_c, 0, 64, 0
2, 84113, Note_on_c, 0, 73, 47
2, 84131, Note_on_c, 0, 67, 50
2, 84131, Note_on_c, 0, 71, 51
2, 84137, Note_on_c, 0, 40, 43
2, 84144, Note_on_c, 0, 73, 0
2, 84189, Note_on_c, 0, 67, 0
2, 84191, Note_on_c, 0, 71, 0
2, 84326, Note_on_c, 0, 52, 47
2, 84328, Note_on_c, 0, 66, 54
2, 84328, Note_on_c, 0, 70, 59
2, 84351, Control_c, 0, 64, 127
2, 84442, Control_c, 0, 64, 0
2, 84471, Note_on_c, 0, 70, 0
2, 84471, Note_on_c, 0, 66, 0
2, 84477, Note_on_c, 0, 64, 44
2, 84477, Note_on_c, 0, 67, 51
2, 84477, Note_on_c, 0, 71, 51
2, 84536, Note_on_c, 0, 52, 0
2, 84578, Note_on_c, 0, 52, 46
2, 84605, Control_c, 0, 64, 127
2, 84631, Note_on_c, 0, 64, 0
2, 84645, Note_on_c, 0, 67, 0
2, 84676, Note_on_c, 0, 64, 44
2, 84678, Control_c, 0, 67, 0
2, 84691, Note_on_c, 0, 64, 0
2, 84691, Note_on_c, 0, 52, 0
2, 84701, Control_c, 0, 64, 0
2, 84724, Note_on_c, 0, 71, 0
2, 84743, Note_on_c, 0, 64, 44
2, 84743, Note_on_c, 0, 67, 53
2, 84748, Note_on_c, 0, 52, 49
2, 84800, Note_on_c, 0, 67, 0
2, 84808, Note_on_c, 0, 40, 0
2, 84818, Note_on_c, 0, 78, 54
2, 84839, Note_on_c, 0, 76, 61
2, 84844, Note_on_c, 0, 64, 0
2, 84844, Note_on_c, 0, 67, 62
2, 84846, Note_on_c, 0, 52, 0
2, 84851, Note_on_c, 0, 40, 49
2, 84883, Control_c, 0, 64, 127
2, 84890, Note_on_c, 0, 78, 0
2, 84964, Control_c, 0, 64, 0
2, 84987, Note_on_c, 0, 76, 0
2, 84992, Note_on_c, 0, 67, 0
2, 84992, Note_on_c, 0, 75, 52
2, 84998, Note_on_c, 0, 52, 48
2, 84998, Note_on_c, 0, 66, 49
2, 85024, Note_on_c, 0, 75, 0
2, 85030, Note_on_c, 0, 66, 0
2, 85122, Note_on_c, 0, 76, 60
2, 85128, Note_on_c, 0, 64, 48
2, 85128, Note_on_c, 0, 67, 41
2, 85166, Note_on_c, 0, 52, 0
2, 85184, Control_c, 0, 64, 127
2, 85210, Note_on_c, 0, 52, 48
2, 85248, Note_on_c, 0, 64, 0
2, 85287, Note_on_c, 0, 67, 0
2, 85292, Note_on_c, 0, 64, 46
2, 85307, Note_on_c, 0, 52, 0
2, 85345, Note_on_c, 0, 76, 0
2, 85362, Note_on_c, 0, 52, 42
2, 85362, Note_on_c, 0, 67, 50
2, 85362, Note_on_c, 0, 71, 49
2, 85374, Control_c, 0, 64, 0
2, 85388, Note_on_c, 0, 67, 0
2, 85419, Note_on_c, 0, 74, 51
2, 85425, Note_on_c, 0, 52, 0
2, 85425, Note_on_c, 0, 64, 0
2, 85427, Note_on_c, 0, 40, 0
2, 85427, Note_on_c, 0, 71, 0
2, 85433, Note_on_c, 0, 67, 53
2, 85433, Note_on_c, 0, 72, 47
2, 85439, Note_on_c, 0, 36, 47
2, 85446, Note_on_c, 0, 74, 0
2, 85460, Note_on_c, 0, 67, 0
2, 85462, Note_on_c, 0, 72, 0
2, 85533, Note_on_c, 0, 52, 53
2, 85533, Note_on_c, 0, 67, 56
2, 85533, Note_on_c, 0, 71, 55
2, 85553, Note_on_c, 0, 71, 0
2, 85553, Note_on_c, 0, 67, 0
2, 85638, Note_on_c, 0, 64, 47
2, 85640, Note_on_c, 0, 67, 65
2, 85640, Note_on_c, 0, 72, 66
2, 85672, Note_on_c, 0, 52, 0
2, 85685, Control_c, 0, 64, 127
2, 85716, Note_on_c, 0, 52, 48
2, 85768, Note_on_c, 0, 67, 0
2, 85768, Note_on_c, 0, 64, 0
2, 85812, Note_on_c, 0, 64, 48
2, 85814, Note_on_c, 0, 52, 0
2, 85846, Note_on_c, 0, 36, 0
2, 85858, Note_on_c, 0, 72, 0
2, 85872, Control_c, 0, 64, 0
2, 85877, Note_on_c, 0, 67, 52
2, 85882, Note_on_c, 0, 52, 42
2, 85927, Note_on_c, 0, 81, 61
2, 85933, Note_on_c, 0, 64, 0
2, 85935, Note_on_c, 0, 67, 0
2, 85935, Note_on_c, 0, 52, 0
2, 85940, Note_on_c, 0, 76, 61
2, 85940, Note_on_c, 0, 79, 61
2, 85947, Note_on_c, 0, 36, 56
2, 85956, Note_on_c, 0, 81, 0
2, 85961, Note_on_c, 0, 76, 0
2, 85961, Note_on_c, 0, 79, 0
2, 86029, Note_on_c, 0, 52, 47
2, 86029, Note_on_c, 0, 75, 58
2, 86029, Note_on_c, 0, 78, 54
2, 86134, Note_on_c, 0, 78, 0
2, 86134, Note_on_c, 0, 75, 0
2, 86136, Note_on_c, 0, 79, 66
2, 86138, Note_on_c, 0, 76, 65
2, 86141, Note_on_c, 0, 64, 48
2, 86164, Note_on_c, 0, 52, 0
2, 86196, Control_c, 0, 64, 127
2, 86207, Note_on_c, 0, 52, 50
2, 86240, Note_on_c, 0, 64, 0
2, 86284, Note_on_c, 0, 64, 43
2, 86311, Note_on_c, 0, 76, 0
2, 86311, Note_on_c, 0, 52, 0
2, 86350, Note_on_c, 0, 79, 0
2, 86354, Control_c, 0, 64, 0
2, 86354, Note_on_c, 0, 52, 48
2, 86354, Note_on_c, 0, 72, 54
2, 86354, Note_on_c, 0, 76, 52
2, 86438, Note_on_c, 0, 64, 0
2, 86440, Note_on_c, 0, 36, 0
2, 86440, Note_on_c, 0, 52, 0
2, 86443, Note_on_c, 0, 43, 58
2, 86476, Note_on_c, 0, 74, 62
2, 86476, Note_on_c, 0, 77, 59
2, 86492, Note_on_c, 0, 72, 0
2, 86492, Note_on_c, 0, 76, 0
2, 86560, Note_on_c, 0, 55, 41
2, 86570, Control_c, 0, 64, 127
2, 86643, Note_on_c, 0, 62, 47
2, 86643, Note_on_c, 0, 65, 50
2, 86675, Note_on_c, 0, 55, 0
2, 86719, Note_on_c, 0, 55, 49
2, 86719, Note_on_c, 0, 71, 65
2, 86719, Note_on_c, 0, 81, 61
2, 86819, Note_on_c, 0, 62, 0
2, 86821, Note_on_c, 0, 77, 0
2, 86821, Note_on_c, 0, 65, 0
2, 86821, Note_on_c, 0, 74, 0
2, 86821, Note_on_c, 0, 71, 0
2, 86826, Note_on_c, 0, 60, 53
2, 86826, Note_on_c, 0, 64, 48
2, 86828, Note_on_c, 0, 72, 66
2, 86828, Note_on_c, 0, 76, 64
2, 86864, Note_on_c, 0, 55, 0
2, 86903, Note_on_c, 0, 55, 50
2, 86903, Note_on_c, 0, 69, 62
2, 86903, Note_on_c, 0, 79, 61
2, 86904, Note_on_c, 0, 81, 0
2, 86933, Control_c, 0, 64, 0
2, 86947, Note_on_c, 0, 43, 0
2, 86978, Note_on_c, 0, 60, 0
2, 86978, Note_on_c, 0, 55, 0
2, 86978, Note_on_c, 0, 72, 0
2, 86978, Note_on_c, 0, 64, 0
2, 86978, Note_on_c, 0, 69, 0
2, 86978, Note_on_c, 0, 76, 0
2, 86978, Note_on_c, 0, 79, 0
2, 86983, Note_on_c, 0, 71, 60
2, 86983, Note_on_c, 0, 74, 64
2, 86989, Note_on_c, 0, 43, 60
2, 87074, Note_on_c, 0, 55, 56
2, 87093, Control_c, 0, 64, 127
2, 87156, Note_on_c, 0, 59, 53
2, 87156, Note_on_c, 0, 62, 58
2, 87194, Note_on_c, 0, 55, 0
2, 87233, Note_on_c, 0, 74, 0
2, 87233, Note_on_c, 0, 71, 0
2, 87238, Note_on_c, 0, 55, 64
2, 87238, Note_on_c, 0, 67, 64
2, 87238, Note_on_c, 0, 77, 59
2, 87341, Note_on_c, 0, 70, 56
2, 87341, Note_on_c, 0, 73, 59
2, 87346, Note_on_c, 0, 67, 0
2, 87346, Note_on_c, 0, 62, 0
2, 87346, Note_on_c, 0, 58, 59
2, 87346, Note_on_c, 0, 61, 65
2, 87348, Note_on_c, 0, 59, 0
2, 87348, Note_on_c, 0, 77, 0
2, 87369, Note_on_c, 0, 55, 0
2, 87416, Note_on_c, 0, 55, 60
2, 87418, Note_on_c, 0, 67, 60
2, 87418, Note_on_c, 0, 76, 59
2, 87436, Control_c, 0, 64, 0
2, 87463, Note_on_c, 0, 43, 0
2, 87487, Control_c, 0, 67, 127
2, 87496, Note_on_c, 0, 70, 0
2, 87496, Note_on_c, 0, 73, 0
2, 87501, Note_on_c, 0, 58, 0
2, 87501, Note_on_c, 0, 61, 0
2, 87501, Note_on_c, 0, 74, 63
2, 87501, Note_on_c, 0, 77, 59
2, 87508, Note_on_c, 0, 43, 53
2, 87516, Note_on_c, 0, 67, 0
2, 87516, Note_on_c, 0, 76, 0
2, 87524, Note_on_c, 0, 55, 0
2, 87581, Note_on_c, 0, 55, 59
2, 87633, Control_c, 0, 64, 127
2, 87659, Note_on_c, 0, 62, 53
2, 87659, Note_on_c, 0, 65, 63
2, 87704, Note_on_c, 0, 55, 0
2, 87745, Note_on_c, 0, 43, 0
2, 87745, Note_on_c, 0, 74, 0
2, 87745, Note_on_c, 0, 77, 0
2, 87745, Note_on_c, 0, 65, 0
2, 87745, Note_on_c, 0, 62, 0
2, 87747, Control_c, 0, 67, 0
2, 87749, Note_on_c, 0, 55, 49
2, 87751, Note_on_c, 0, 71, 58
2, 87751, Note_on_c, 0, 81, 57
2, 87774, Control_c, 0, 67, 127
2, 87830, Note_on_c, 0, 60, 41
2, 87830, Note_on_c, 0, 64, 41
2, 87830, Note_on_c, 0, 76, 58
2, 87836, Note_on_c, 0, 71, 0
2, 87836, Note_on_c, 0, 72, 60
2, 87838, Note_on_c, 0, 81, 0
2, 87861, Control_c, 0, 64, 0
2, 87868, Note_on_c, 0, 55, 0
2, 87908, Note_on_c, 0, 64, 0
2, 87908, Note_on_c, 0, 60, 0
2, 87911, Note_on_c, 0, 55, 46
2, 87912, Note_on_c, 0, 69, 54
2, 87914, Note_on_c, 0, 79, 48
2, 87928, Note_on_c, 0, 72, 0
2, 87928, Note_on_c, 0, 76, 0
2, 87996, Note_on_c, 0, 74, 60
2, 87998, Note_on_c, 0, 69, 0
2, 88004, Note_on_c, 0, 43, 53
2, 88004, Note_on_c, 0, 71, 64
2, 88011, Note_on_c, 0, 55, 0
2, 88013, Note_on_c, 0, 79, 0
2, 88076, Control_c, 0, 64, 127
2, 88096, Note_on_c, 0, 55, 44
2, 88182, Note_on_c, 0, 62, 41
2, 88184, Note_on_c, 0, 59, 47
2, 88208, Note_on_c, 0, 55, 0
2, 88247, Note_on_c, 0, 43, 0
2, 88247, Note_on_c, 0, 71, 0
2, 88247, Note_on_c, 0, 74, 0
2, 88247, Note_on_c, 0, 77, 53
2, 88251, Note_on_c, 0, 67, 51
2, 88257, Note_on_c, 0, 55, 44
2, 88327, Control_c, 0, 64, 0
2, 88335, Note_on_c, 0, 67, 0
2, 88335, Note_on_c, 0, 77, 0
2, 88335, Note_on_c, 0, 62, 0
2, 88335, Note_on_c, 0, 59, 0
2, 88340, Note_on_c, 0, 58, 45
2, 88340, Note_on_c, 0, 61, 43
2, 88340, Note_on_c, 0, 70, 49
2, 88340, Note_on_c, 0, 73, 48
2, 88373, Note_on_c, 0, 55, 0
2, 88417, Note_on_c, 0, 55, 45
2, 88417, Note_on_c, 0, 67, 52
2, 88419, Note_on_c, 0, 76, 54
2, 88448, Note_on_c, 0, 58, 0
2, 88450, Note_on_c, 0, 70, 0
2, 88450, Note_on_c, 0, 61, 0
2, 88489, Note_on_c, 0, 73, 0
2, 88494, Note_on_c, 0, 58, 59
2, 88494, Note_on_c, 0, 61, 57
2, 88494, Note_on_c, 0, 70, 61
2, 88494, Note_on_c, 0, 75, 60
2, 88507, Note_on_c, 0, 67, 0
2, 88509, Note_on_c, 0, 76, 0
2, 88533, Note_on_c, 0, 55, 0
2, 88582, Note_on_c, 0, 55, 54
2, 88587, Control_c, 0, 64, 127
2, 88603, Note_on_c, 0, 61, 0
2, 88603, Note_on_c, 0, 58, 0
2, 88639, Note_on_c, 0, 42, 59
2, 88652, Control_c, 0, 67, 0
2, 88675, Note_on_c, 0, 70, 0
2, 88711, Note_on_c, 0, 55, 0
2, 88713, Note_on_c, 0, 75, 0
2, 88716, Note_on_c, 0, 54, 66
2, 88718, Note_on_c, 0, 64, 60
2, 88718, Note_on_c, 0, 70, 69
2, 88718, Note_on_c, 0, 73, 67
2, 88718, Note_on_c, 0, 76, 71
2, 88727, Control_c, 0, 64, 0
2, 88792, Note_on_c, 0, 54, 0
2, 88792, Note_on_c, 0, 42, 0
2, 88797, Note_on_c, 0, 43, 82
2, 88799, Note_on_c, 0, 64, 0
2, 88800, Note_on_c, 0, 76, 0
2, 88805, Note_on_c, 0, 63, 78
2, 88807, Note_on_c, 0, 75, 73
2, 88883, Control_c, 0, 64, 127
2, 88889, Note_on_c, 0, 55, 63
2, 88960, Note_on_c, 0, 55, 0
2, 88960, Note_on_c, 0, 73, 0
2, 88960, Note_on_c, 0, 70, 0
2, 88960, Note_on_c, 0, 43, 0
2, 88960, Note_on_c, 0, 75, 0
2, 88960, Note_on_c, 0, 63, 0
2, 88963, Note_on_c, 0, 37, 72
2, 89015, Note_on_c, 0, 37, 0
2, 89035, Control_c, 0, 64, 0
2, 89035, Note_on_c, 0, 71, 75
2, 89037, Note_on_c, 0, 80, 78
2, 89037, Note_on_c, 0, 83, 73
2, 89041, Note_on_c, 0, 49, 67
2, 89107, Note_on_c, 0, 49, 0
2, 89112, Note_on_c, 0, 39, 79
2, 89113, Note_on_c, 0, 71, 0
2, 89115, Note_on_c, 0, 80, 0
2, 89115, Note_on_c, 0, 83, 0
2, 89118, Note_on_c, 0, 70, 80
2, 89118, Note_on_c, 0, 79, 82
2, 89121, Note_on_c, 0, 82, 83
2, 89162, Control_c, 0, 64, 127
2, 89207, Note_on_c, 0, 51, 71
2, 89270, Note_on_c, 0, 24, 73
2, 89304, Control_c, 0, 64, 0
2, 89318, Note_on_c, 0, 24, 0
2, 89318, Note_on_c, 0, 39, 0
2, 89320, Note_on_c, 0, 82, 0
2, 89320, Note_on_c, 0, 70, 0
2, 89320, Note_on_c, 0, 79, 0
2, 89320, Note_on_c, 0, 51, 0
2, 89328, Note_on_c, 0, 80, 78
2, 89328, Note_on_c, 0, 88, 80
2, 89328, Note_on_c, 0, 92, 79
2, 89330, Note_on_c, 0, 37, 76
2, 89373, Note_on_c, 0, 80, 0
2, 89375, Note_on_c, 0, 88, 0
2, 89375, Note_on_c, 0, 92, 0
2, 89377, Note_on_c, 0, 37, 0
2, 89463, Note_on_c, 0, 27, 82
2, 89463, Note_on_c, 0, 39, 82
2, 89465, Note_on_c, 0, 79, 83
2, 89465, Note_on_c, 0, 87, 86
2, 89467, Note_on_c, 0, 91, 81
2, 89516, Control_c, 0, 64, 127
2, 89573, Note_on_c, 0, 51, 69
2, 89613, Note_on_c, 0, 27, 0
2, 89616, Note_on_c, 0, 39, 0
2, 89616, Note_on_c, 0, 51, 0
2, 89620, Note_on_c, 0, 58, 69
2, 89633, Control_c, 0, 64, 0
2, 89640, Note_on_c, 0, 61, 86
2, 89643, Note_on_c, 0, 87, 0
2, 89643, Note_on_c, 0, 79, 0
2, 89643, Note_on_c, 0, 91, 0
2, 89648, Note_on_c, 0, 67, 61
2, 89650, Note_on_c, 0, 88, 61
2, 89668, Note_on_c, 0, 58, 0
2, 89670, Note_on_c, 0, 61, 0
2, 89670, Note_on_c, 0, 67, 0
2, 89672, Note_on_c, 0, 88, 0
2, 89675, Note_on_c, 0, 87, 56
2, 89698, Note_on_c, 0, 87, 0
2, 89704, Note_on_c, 0, 85, 62
2, 89725, Note_on_c, 0, 85, 0
2, 89730, Note_on_c, 0, 83, 59
2, 89750, Note_on_c, 0, 83, 0
2, 89758, Note_on_c, 0, 82, 59
2, 89779, Note_on_c, 0, 82, 0
2, 89784, Note_on_c, 0, 80, 55
2, 89805, Note_on_c, 0, 80, 0
2, 89809, Note_on_c, 0, 79, 54
2, 89831, Note_on_c, 0, 79, 0
2, 89836, Note_on_c, 0, 76, 55
2, 89862, Note_on_c, 0, 76, 0
2, 89870, Note_on_c, 0, 75, 54
2, 89896, Note_on_c, 0, 75, 0
2, 89902, Note_on_c, 0, 73, 59
2, 89922, Note_on_c, 0, 73, 0
2, 89927, Note_on_c, 0, 71, 53
2, 89950, Note_on_c, 0, 71, 0
2, 89954, Note_on_c, 0, 70, 53
2, 89978, Note_on_c, 0, 68, 59
2, 89980, Note_on_c, 0, 70, 0
2, 89993, Note_on_c, 0, 39, 59
2, 90006, Note_on_c, 0, 68, 0
2, 90006, Note_on_c, 0, 67, 57
2, 90020, Note_on_c, 0, 67, 0
2, 90030, Note_on_c, 0, 64, 70
2, 90050, Note_on_c, 0, 64, 0
2, 90050, Note_on_c, 0, 67, 53
2, 90071, Note_on_c, 0, 67, 0
2, 90071, Note_on_c, 0, 68, 55
2, 90087, Control_c, 0, 64, 127
2, 90090, Note_on_c, 0, 68, 0
2, 90096, Note_on_c, 0, 70, 58
2, 90114, Note_on_c, 0, 70, 0
2, 90120, Note_on_c, 0, 51, 71
2, 90120, Note_on_c, 0, 71, 57
2, 90141, Note_on_c, 0, 71, 0
2, 90144, Note_on_c, 0, 58, 66
2, 90144, Note_on_c, 0, 73, 58
2, 90168, Note_on_c, 0, 61, 67
2, 90169, Note_on_c, 0, 73, 0
2, 90175, Note_on_c, 0, 75, 41
2, 90186, Note_on_c, 0, 67, 41
2, 90193, Note_on_c, 0, 75, 0
2, 90201, Note_on_c, 0, 76, 54
2, 90219, Note_on_c, 0, 76, 0
2, 90224, Note_on_c, 0, 79, 54
2, 90242, Note_on_c, 0, 79, 0
2, 90248, Note_on_c, 0, 80, 61
2, 90268, Note_on_c, 0, 80, 0
2, 90273, Note_on_c, 0, 82, 66
2, 90293, Note_on_c, 0, 82, 0
2, 90298, Note_on_c, 0, 83, 60
2, 90319, Note_on_c, 0, 83, 0
2, 90324, Note_on_c, 0, 85, 60
2, 90344, Note_on_c, 0, 85, 0
2, 90350, Note_on_c, 0, 87, 66
2, 90370, Note_on_c, 0, 87, 0
2, 90375, Note_on_c, 0, 88, 64
2, 90396, Note_on_c, 0, 88, 0
2, 90401, Note_on_c, 0, 91, 63
2, 90422, Note_on_c, 0, 91, 0
2, 90422, Note_on_c, 0, 92, 63
2, 90442, Note_on_c, 0, 92, 0
2, 90447, Note_on_c, 0, 94, 68
2, 90449, Control_c, 0, 64, 0
2, 90467, Note_on_c, 0, 94, 0
2, 90473, Note_on_c, 0, 97, 61
2, 90496, Note_on_c, 0, 51, 0
2, 90496, Note_on_c, 0, 39, 0
2, 90496, Note_on_c, 0, 58, 0
2, 90498, Note_on_c, 0, 61, 0
2, 90498, Note_on_c, 0, 67, 0
2, 90501, Note_on_c, 0, 44, 79
2, 90504, Note_on_c, 0, 83, 80
2, 90505, Note_on_c, 0, 92, 80
2, 90505, Note_on_c, 0, 95, 79
2, 90507, Note_on_c, 0, 32, 85
2, 90509, Note_on_c, 0, 97, 0
2, 90525, Note_on_c, 0, 44, 0
2, 90527, Note_on_c, 0, 83, 0
2, 90528, Note_on_c, 0, 92, 0
2, 90528, Note_on_c, 0, 95, 0
2, 90530, Note_on_c, 0, 32, 0
2, 90645, Note_on_c, 0, 51, 63
2, 90648, Note_on_c, 0, 82, 65
2, 90648, Note_on_c, 0, 91, 67
2, 90648, Note_on_c, 0, 94, 68
2, 90669, Note_on_c, 0, 82, 0
2, 90672, Note_on_c, 0, 94, 0
2, 90672, Note_on_c, 0, 91, 0
2, 90770, Note_on_c, 0, 83, 87
2, 90772, Note_on_c, 0, 92, 84
2, 90772, Note_on_c, 0, 95, 81
2, 90775, Note_on_c, 0, 63, 68
2, 90796, Note_on_c, 0, 51, 0
2, 90817, Control_c, 0, 64, 127
2, 90839, Note_on_c, 0, 51, 65
2, 90865, Note_on_c, 0, 83, 0
2, 90867, Note_on_c, 0, 95, 0
2, 90867, Note_on_c, 0, 92, 0
2, 90891, Note_on_c, 0, 97, 54
2, 90907, Note_on_c, 0, 44, 68
2, 90910, Note_on_c, 0, 83, 73
2, 90910, Note_on_c, 0, 92, 70
2, 90910, Note_on_c, 0, 95, 68
2, 90923, Note_on_c, 0, 97, 0
2, 90925, Control_c, 0, 64, 0
2, 90951, Note_on_c, 0, 51, 0
2, 90953, Note_on_c, 0, 63, 0
2, 90959, Note_on_c, 0, 44, 0
2, 90960, Note_on_c, 0, 83, 0
2, 90962, Note_on_c, 0, 95, 0
2, 90962, Note_on_c, 0, 92, 0
2, 90994, Note_on_c, 0, 51, 73
2, 90996, Note_on_c, 0, 63, 74
2, 90998, Note_on_c, 0, 82, 68
2, 90998, Note_on_c, 0, 91, 64
2, 90998, Note_on_c, 0, 94, 68
2, 91014, Note_on_c, 0, 63, 0
2, 91014, Note_on_c, 0, 51, 0
2, 91017, Note_on_c, 0, 91, 0
2, 91017, Note_on_c, 0, 82, 0
2, 91017, Note_on_c, 0, 94, 0
2, 91062, Note_on_c, 0, 44, 74
2, 91065, Note_on_c, 0, 83, 72
2, 91065, Note_on_c, 0, 92, 69
2, 91065, Note_on_c, 0, 95, 73
2, 91083, Note_on_c, 0, 44, 0
2, 91085, Note_on_c, 0, 83, 0
2, 91085, Note_on_c, 0, 92, 0
2, 91085, Note_on_c, 0, 95, 0
2, 91135, Note_on_c, 0, 85, 72
2, 91135, Note_on_c, 0, 94, 74
2, 91135, Note_on_c, 0, 97, 68
2, 91138, Note_on_c, 0, 51, 71
2, 91156, Note_on_c, 0, 97, 0
2, 91156, Note_on_c, 0, 85, 0
2, 91156, Note_on_c, 0, 94, 0
2, 91159, Note_on_c, 0, 51, 0
2, 91215, Note_on_c, 0, 63, 81
2, 91217, Note_on_c, 0, 87, 85
2, 91217, Note_on_c, 0, 95, 82
2, 91219, Note_on_c, 0, 99, 85
2, 91239, Control_c, 0, 64, 127
2, 91283, Note_on_c, 0, 51, 66
2, 91350, Note_on_c, 0, 39, 67
2, 91373, Note_on_c, 0, 51, 0
2, 91373, Note_on_c, 0, 63, 0
2, 91408, Control_c, 0, 64, 0
2, 91414, Note_on_c, 0, 87, 0
2, 91414, Note_on_c, 0, 95, 0
2, 91416, Note_on_c, 0, 99, 0
2, 91416, Note_on_c, 0, 51, 60
2, 91416, Note_on_c, 0, 63, 60
2, 91420, Note_on_c, 0, 82, 71
2, 91420, Note_on_c, 0, 91, 70
2, 91420, Note_on_c, 0, 94, 66
2, 91440, Note_on_c, 0, 94, 0
2, 91440, Note_on_c, 0, 82, 0
2, 91440, Note_on_c, 0, 91, 0
2, 91480, Note_on_c, 0, 97, 47
2, 91485, Note_on_c, 0, 39, 0
2, 91485, Note_on_c, 0, 51, 0
2, 91485, Note_on_c, 0, 63, 0
2, 91489, Note_on_c, 0, 44, 72
2, 91498, Note_on_c, 0, 83, 65
2, 91500, Note_on_c, 0, 92, 66
2, 91500, Note_on_c, 0, 95, 66
2, 91512, Note_on_c, 0, 44, 0
2, 91515, Note_on_c, 0, 97, 0
2, 91520, Note_on_c, 0, 92, 0
2, 91520, Note_on_c, 0, 83, 0
2, 91520, Note_on_c, 0, 95, 0
2, 91575, Note_on_c, 0, 51, 65
2, 91578, Note_on_c, 0, 82, 61
2, 91578, Note_on_c, 0, 91, 59
2, 91578, Note_on_c, 0, 94, 62
2, 91596, Note_on_c, 0, 51, 0
2, 91598, Note_on_c, 0, 82, 0
2, 91600, Note_on_c, 0, 91, 0
2, 91600, Note_on_c, 0, 94, 0
2, 91662, Note_on_c, 0, 63, 67
2, 91664, Note_on_c, 0, 83, 75
2, 91664, Note_on_c, 0, 95, 74
2, 91666, Note_on_c, 0, 92, 75
2, 91707, Control_c, 0, 64, 127
2, 91728, Note_on_c, 0, 51, 71
2, 91757, Note_on_c, 0, 92, 0
2, 91757, Note_on_c, 0, 95, 0
2, 91757, Note_on_c, 0, 83, 0
2, 91783, Note_on_c, 0, 97, 48
2, 91799, Note_on_c, 0, 51, 0
2, 91799, Note_on_c, 0, 83, 72
2, 91801, Note_on_c, 0, 63, 0
2, 91801, Note_on_c, 0, 92, 66
2, 91801, Note_on_c, 0, 95, 65
2, 91804, Note_on_c, 0, 44, 72
2, 91815, Note_on_c, 0, 97, 0
2, 91815, Control_c, 0, 64, 0
2, 91820, Note_on_c, 0, 83, 0
2, 91822, Note_on_c, 0, 95, 0
2, 91822, Note_on_c, 0, 92, 0
2, 91824, Note_on_c, 0, 44, 0
2, 91867, Note_on_c, 0, 51, 71
2, 91867, Note_on_c, 0, 63, 66
2, 91875, Note_on_c, 0, 82, 65
2, 91875, Note_on_c, 0, 91, 62
2, 91877, Note_on_c, 0, 94, 64
2, 91888, Note_on_c, 0, 63, 0
2, 91888, Note_on_c, 0, 51, 0
2, 91896, Note_on_c, 0, 82, 0
2, 91897, Note_on_c, 0, 91, 0
2, 91897, Note_on_c, 0, 94, 0
2, 91942, Note_on_c, 0, 37, 71
2, 91946, Note_on_c, 0, 83, 65
2, 91946, Note_on_c, 0, 92, 65
2, 91946, Note_on_c, 0, 95, 69
2, 91968, Note_on_c, 0, 95, 0
2, 91968, Note_on_c, 0, 92, 0
2, 91968, Note_on_c, 0, 83, 0
2, 92007, Note_on_c, 0, 37, 0
2, 92013, Note_on_c, 0, 49, 68
2, 92017, Note_on_c, 0, 85, 68
2, 92017, Note_on_c, 0, 94, 67
2, 92017, Note_on_c, 0, 97, 72
2, 92033, Note_on_c, 0, 49, 0
2, 92036, Note_on_c, 0, 85, 0
2, 92036, Note_on_c, 0, 94, 0
2, 92036, Note_on_c, 0, 97, 0
2, 92078, Note_on_c, 0, 87, 73
2, 92078, Note_on_c, 0, 95, 70
2, 92081, Note_on_c, 0, 99, 74
2, 92086, Note_on_c, 0, 61, 70
2, 92099, Note_on_c, 0, 95, 0
2, 92099, Note_on_c, 0, 87, 0
2, 92101, Note_on_c, 0, 99, 0
2, 92103, Note_on_c, 0, 61, 0
2, 92142, Note_on_c, 0, 89, 69
2, 92142, Note_on_c, 0, 92, 69
2, 92142, Note_on_c, 0, 101, 72
2, 92145, Note_on_c, 0, 49, 74
2, 92161, Note_on_c, 0, 89, 0
2, 92163, Note_on_c, 0, 92, 0
2, 92163, Note_on_c, 0, 101, 0
2, 92165, Note_on_c, 0, 49, 0
2, 92221, Note_on_c, 0, 90, 82
2, 92221, Note_on_c, 0, 94, 80
2, 92223, Note_on_c, 0, 102, 82
2, 92229, Note_on_c, 0, 42, 80
2, 92247, Control_c, 0, 64, 127
2, 92292, Control_c, 0, 67, 127
2, 92312, Note_on_c, 0, 49, 62
2, 92314, Note_on_c, 0, 61, 59
2, 92322, Note_on_c, 0, 42, 0
2, 92356, Control_c, 0, 64, 0
2, 92364, Note_on_c, 0, 49, 0
2, 92366, Note_on_c, 0, 61, 0
2, 92368, Note_on_c, 0, 90, 0
2, 92368, Note_on_c, 0, 94, 0
2, 92370, Note_on_c, 0, 102, 0
2, 92393, Note_on_c, 0, 69, 48
2, 92393, Note_on_c, 0, 73, 48
2, 92393, Note_on_c, 0, 78, 47
2, 92401, Note_on_c, 0, 42, 41
2, 92414, Note_on_c, 0, 78, 0
2, 92414, Note_on_c, 0, 69, 0
2, 92414, Note_on_c, 0, 73, 0
2, 92423, Note_on_c, 0, 42, 0
2, 92515, Note_on_c, 0, 49, 47
2, 92522, Note_on_c, 0, 68, 48
2, 92522, Note_on_c, 0, 73, 54
2, 92522, Note_on_c, 0, 77, 54
2, 92536, Note_on_c, 0, 49, 0
2, 92542, Note_on_c, 0, 68, 0
2, 92544, Note_on_c, 0, 73, 0
2, 92544, Note_on_c, 0, 77, 0
2, 92636, Note_on_c, 0, 61, 50
2, 92636, Note_on_c, 0, 69, 54
2, 92636, Note_on_c, 0, 73, 56
2, 92639, Note_on_c, 0, 78, 53
2, 92652, Control_c, 0, 64, 127
2, 92657, Note_on_c, 0, 61, 0
2, 92701, Note_on_c, 0, 69, 0
2, 92704, Note_on_c, 0, 49, 46
2, 92719, Note_on_c, 0, 73, 0
2, 92736, Note_on_c, 0, 49, 0
2, 92738, Note_on_c, 0, 78, 0
2, 92743, Note_on_c, 0, 69, 50
2, 92757, Control_c, 0, 64, 0
2, 92761, Note_on_c, 0, 73, 47
2, 92761, Note_on_c, 0, 80, 52
2, 92782, Note_on_c, 0, 78, 60
2, 92790, Note_on_c, 0, 42, 46
2, 92795, Note_on_c, 0, 80, 0
2, 92795, Note_on_c, 0, 69, 0
2, 92795, Note_on_c, 0, 73, 0
2, 92801, Note_on_c, 0, 78, 0
2, 92811, Note_on_c, 0, 42, 0
2, 92874, Note_on_c, 0, 49, 42
2, 92874, Note_on_c, 0, 61, 43
2, 92876, Note_on_c, 0, 68, 60
2, 92876, Note_on_c, 0, 73, 56
2, 92876, Note_on_c, 0, 77, 55
2, 92894, Note_on_c, 0, 61, 0
2, 92894, Note_on_c, 0, 49, 0
2, 92896, Note_on_c, 0, 73, 0
2, 92896, Note_on_c, 0, 68, 0
2, 92898, Note_on_c, 0, 77, 0
2, 92953, Note_on_c, 0, 73, 56
2, 92953, Note_on_c, 0, 78, 57
2, 92956, Note_on_c, 0, 42, 45
2, 92958, Note_on_c, 0, 69, 57
2, 92974, Note_on_c, 0, 73, 0
2, 92976, Note_on_c, 0, 78, 0
2, 92977, Note_on_c, 0, 42, 0
2, 92980, Note_on_c, 0, 69, 0
2, 93029, Note_on_c, 0, 49, 42
2, 93032, Note_on_c, 0, 71, 55
2, 93032, Note_on_c, 0, 80, 57
2, 93050, Note_on_c, 0, 49, 0
2, 93053, Note_on_c, 0, 80, 0
2, 93053, Note_on_c, 0, 71, 0
2, 93123, Note_on_c, 0, 81, 61
2, 93128, Note_on_c, 0, 61, 46
2, 93128, Note_on_c, 0, 73, 59
2, 93169, Control_c, 0, 64, 127
2, 93195, Note_on_c, 0, 49, 45
2, 93198, Note_on_c, 0, 61, 0
2, 93266, Note_on_c, 0, 73, 0
2, 93274, Control_c, 0, 64, 0
2, 93274, Note_on_c, 0, 37, 44
2, 93303, Note_on_c, 0, 49, 0
2, 93305, Note_on_c, 0, 81, 0
2, 93308, Note_on_c, 0, 68, 53
2, 93310, Note_on_c, 0, 77, 51
2, 93331, Note_on_c, 0, 77, 0
2, 93331, Note_on_c, 0, 68, 0
2, 93338, Note_on_c, 0, 37, 0
2, 93344, Note_on_c, 0, 49, 50
2, 93344, Note_on_c, 0, 61, 52
2, 93365, Note_on_c, 0, 49, 0
2, 93367, Note_on_c, 0, 61, 0
2, 93381, Note_on_c, 0, 80, 52
2, 93396, Note_on_c, 0, 42, 48
2, 93398, Note_on_c, 0, 69, 59
2, 93398, Note_on_c, 0, 73, 65
2, 93400, Note_on_c, 0, 78, 59
2, 93402, Note_on_c, 0, 80, 0
2, 93417, Note_on_c, 0, 42, 0
2, 93420, Note_on_c, 0, 73, 0
2, 93420, Note_on_c, 0, 69, 0
2, 93420, Note_on_c, 0, 78, 0
2, 93480, Note_on_c, 0, 49, 51
2, 93482, Note_on_c, 0, 68, 57
2, 93482, Note_on_c, 0, 73, 58
2, 93482, Note_on_c, 0, 77, 58
2, 93495, Control_c, 0, 67, 0
2, 93503, Note_on_c, 0, 49, 0
2, 93504, Note_on_c, 0, 68, 0
2, 93504, Note_on_c, 0, 73, 0
2, 93504, Note_on_c, 0, 77, 0
2, 93570, Control_c, 0, 64, 127
2, 93570, Note_on_c, 0, 78, 63
2, 93575, Note_on_c, 0, 61, 54
2, 93575, Note_on_c, 0, 69, 64
2, 93575, Note_on_c, 0, 73, 65
2, 93593, Note_on_c, 0, 61, 0
2, 93653, Note_on_c, 0, 49, 47
2, 93662, Note_on_c, 0, 73, 0
2, 93711, Note_on_c, 0, 49, 0
2, 93713, Note_on_c, 0, 69, 0
2, 93715, Note_on_c, 0, 78, 0
2, 93717, Note_on_c, 0, 39, 44
2, 93719, Note_on_c, 0, 70, 65
2, 93719, Note_on_c, 0, 73, 60
2, 93720, Note_on_c, 0, 79, 61
2, 93736, Control_c, 0, 64, 0
2, 93738, Note_on_c, 0, 39, 0
2, 93743, Note_on_c, 0, 70, 0
2, 93743, Note_on_c, 0, 73, 0
2, 93743, Note_on_c, 0, 79, 0
2, 93792, Note_on_c, 0, 51, 41
2, 93793, Note_on_c, 0, 63, 48
2, 93793, Note_on_c, 0, 70, 58
2, 93793, Note_on_c, 0, 73, 58
2, 93795, Note_on_c, 0, 79, 55
2, 93814, Note_on_c, 0, 70, 0
2, 93814, Note_on_c, 0, 51, 0
2, 93814, Note_on_c, 0, 63, 0
2, 93816, Note_on_c, 0, 73, 0
2, 93816, Note_on_c, 0, 79, 0
2, 93873, Note_on_c, 0, 71, 65
2, 93875, Note_on_c, 0, 80, 60
2, 93878, Note_on_c, 0, 44, 49
2, 93896, Note_on_c, 0, 71, 0
2, 93898, Note_on_c, 0, 80, 0
2, 93901, Note_on_c, 0, 44, 0
2, 93950, Note_on_c, 0, 73, 63
2, 93952, Note_on_c, 0, 82, 60
2, 93955, Note_on_c, 0, 51, 49
2, 93971, Note_on_c, 0, 82, 0
2, 93971, Note_on_c, 0, 73, 0
2, 93974, Note_on_c, 0, 51, 0
2, 94033, Note_on_c, 0, 63, 52
2, 94036, Note_on_c, 0, 75, 68
2, 94036, Note_on_c, 0, 83, 70
2, 94094, Control_c, 0, 64, 127
2, 94097, Note_on_c, 0, 51, 55
2, 94165, Note_on_c, 0, 39, 55
2, 94192, Note_on_c, 0, 51, 0
2, 94192, Note_on_c, 0, 63, 0
2, 94231, Note_on_c, 0, 75, 0
2, 94233, Note_on_c, 0, 83, 0
2, 94235, Note_on_c, 0, 51, 56
2, 94235, Note_on_c, 0, 63, 55
2, 94237, Note_on_c, 0, 70, 67
2, 94237, Note_on_c, 0, 73, 61
2, 94237, Note_on_c, 0, 79, 65
2, 94271, Control_c, 0, 64, 0
2, 94292, Note_on_c, 0, 51, 0
2, 94292, Note_on_c, 0, 39, 0
2, 94294, Note_on_c, 0, 73, 0
2, 94294, Note_on_c, 0, 70, 0
2, 94294, Note_on_c, 0, 63, 0
2, 94296, Note_on_c, 0, 79, 0
2, 94316, Note_on_c, 0, 32, 72
2, 94318, Note_on_c, 0, 44, 67
2, 94320, Note_on_c, 0, 71, 80
2, 94320, Note_on_c, 0, 75, 76
2, 94320, Note_on_c, 0, 80, 74
2, 94320, Note_on_c, 0, 83, 73
2, 94406, Note_on_c, 0, 51, 55
2, 94409, Control_c, 0, 64, 127
2, 94482, Note_on_c, 0, 63, 59
2, 94509, Note_on_c, 0, 51, 0
2, 94511, Note_on_c, 0, 71, 0
2, 94511, Note_on_c, 0, 75, 0
2, 94512, Note_on_c, 0, 80, 0
2, 94512, Note_on_c, 0, 83, 0
2, 94552, Note_on_c, 0, 51, 57
2, 94555, Note_on_c, 0, 71, 69
2, 94555, Note_on_c, 0, 75, 70
2, 94555, Note_on_c, 0, 80, 69
2, 94555, Note_on_c, 0, 83, 72
2, 94576, Control_c, 0, 64, 0
2, 94599, Note_on_c, 0, 75, 0
2, 94626, Note_on_c, 0, 32, 0
2, 94628, Note_on_c, 0, 51, 0
2, 94628, Note_on_c, 0, 44, 0
2, 94630, Note_on_c, 0, 71, 0
2, 94630, Note_on_c, 0, 63, 0
2, 94632, Note_on_c, 0, 80, 0
2, 94632, Note_on_c, 0, 83, 0
2, 94632, Note_on_c, 0, 34, 69
2, 94633, Note_on_c, 0, 46, 68
2, 94635, Note_on_c, 0, 70, 82
2, 94638, Note_on_c, 0, 75, 83
2, 94638, Note_on_c, 0, 78, 86
2, 94638, Note_on_c, 0, 82, 86
2, 94690, Control_c, 0, 64, 127
2, 94719, Note_on_c, 0, 51, 66
2, 94719, Note_on_c, 0, 63, 67
2, 94763, Control_c, 0, 64, 0
2, 94797, Note_on_c, 0, 34, 0
2, 94801, Note_on_c, 0, 63, 0
2, 94801, Note_on_c, 0, 46, 0
2, 94801, Note_on_c, 0, 51, 0
2, 94803, Note_on_c, 0, 78, 0
2, 94803, Note_on_c, 0, 75, 0
2, 94803, Note_on_c, 0, 70, 0
2, 94803, Note_on_c, 0, 82, 0
2, 94805, Note_on_c, 0, 35, 73
2, 94805, Note_on_c, 0, 47, 76
2, 94807, Note_on_c, 0, 68, 80
2, 94807, Note_on_c, 0, 71, 80
2, 94810, Note_on_c, 0, 76, 78
2, 94810, Note_on_c, 0, 80, 81
2, 94907, Control_c, 0, 64, 127
2, 94910, Note_on_c, 0, 52, 64
2, 94977, Note_on_c, 0, 68, 0
2, 94979, Note_on_c, 0, 80, 0
2, 94981, Note_on_c, 0, 64, 66
2, 95015, Note_on_c, 0, 52, 0
2, 95017, Note_on_c, 0, 76, 0
2, 95041, Control_c, 0, 64, 0
2, 95057, Note_on_c, 0, 52, 53
2, 95060, Note_on_c, 0, 68, 70
2, 95060, Note_on_c, 0, 76, 69
2, 95060, Note_on_c, 0, 80, 66
2, 95127, Note_on_c, 0, 35, 0
2, 95129, Note_on_c, 0, 52, 0
2, 95129, Note_on_c, 0, 47, 0
2, 95129, Note_on_c, 0, 71, 0
2, 95129, Note_on_c, 0, 64, 0
2, 95129, Note_on_c, 0, 68, 0
2, 95131, Note_on_c, 0, 80, 0
2, 95131, Note_on_c, 0, 76, 0
2, 95146, Note_on_c, 0, 37, 72
2, 95146, Note_on_c, 0, 49, 65
2, 95148, Note_on_c, 0, 66, 77
2, 95148, Note_on_c, 0, 70, 73
2, 95148, Note_on_c, 0, 73, 72
2, 95150, Note_on_c, 0, 78, 71
2, 95200, Control_c, 0, 64, 127
2, 95233, Note_on_c, 0, 61, 61
2, 95280, Control_c, 0, 64, 0
2, 95307, Note_on_c, 0, 37, 0
2, 95309, Note_on_c, 0, 66, 0
2, 95309, Note_on_c, 0, 49, 0
2, 95309, Note_on_c, 0, 61, 0
2, 95311, Note_on_c, 0, 70, 0
2, 95311, Note_on_c, 0, 73, 0
2, 95311, Note_on_c, 0, 78, 0
2, 95313, Note_on_c, 0, 39, 62
2, 95313, Note_on_c, 0, 51, 65
2, 95313, Note_on_c, 0, 63, 61
2, 95315, Note_on_c, 0, 68, 69
2, 95315, Note_on_c, 0, 71, 65
2, 95323, Note_on_c, 0, 75, 71
2, 95335, Note_on_c, 0, 51, 0
2, 95414, Note_on_c, 0, 51, 47
2, 95419, Control_c, 0, 64, 127
2, 95505, Note_on_c, 0, 59, 47
2, 95568, Control_c, 0, 64, 0
2, 95578, Note_on_c, 0, 63, 0
2, 95580, Note_on_c, 0, 71, 0
2, 95580, Note_on_c, 0, 68, 0
2, 95580, Note_on_c, 0, 75, 0
2, 95585, Note_on_c, 0, 64, 48
2, 95585, Note_on_c, 0, 73, 60
2, 95590, Note_on_c, 0, 56, 41
2, 95605, Note_on_c, 0, 64, 0
2, 95613, Note_on_c, 0, 73, 0
2, 95657, Note_on_c, 0, 39, 0
2, 95701, Note_on_c, 0, 39, 48
2, 95703, Note_on_c, 0, 56, 0
2, 95705, Note_on_c, 0, 59, 0
2, 95705, Note_on_c, 0, 51, 0
2, 95710, Note_on_c, 0, 63, 49
2, 95712, Note_on_c, 0, 71, 64
2, 95731, Note_on_c, 0, 63, 0
2, 95733, Note_on_c, 0, 71, 0
2, 95816, Note_on_c, 0, 51, 43
2, 95816, Note_on_c, 0, 55, 46
2, 95818, Note_on_c, 0, 70, 60
2, 95824, Note_on_c, 0, 61, 48
2, 95851, Note_on_c, 0, 70, 0
2, 95861, Control_c, 0, 67, 127
2, 95872, Note_on_c, 0, 61, 0
2, 95910, Note_on_c, 0, 55, 0
2, 95910, Note_on_c, 0, 39, 0
2, 95912, Note_on_c, 0, 51, 0
2, 95915, Note_on_c, 0, 32, 51
2, 95915, Note_on_c, 0, 44, 53
2, 95917, Note_on_c, 0, 61, 54
2, 95917, Note_on_c, 0, 70, 62
2, 96003, Control_c, 0, 64, 127
2, 96048, Note_on_c, 0, 32, 0
2, 96051, Note_on_c, 0, 44, 0
2, 96056, Note_on_c, 0, 51, 46
2, 96190, Note_on_c, 0, 51, 0
2, 96195, Note_on_c, 0, 55, 44
2, 96306, Control_c, 0, 64, 0
2, 96347, Note_on_c, 0, 55, 0
2, 96350, Note_on_c, 0, 70, 0
2, 96355, Note_on_c, 0, 68, 59
2, 96357, Note_on_c, 0, 61, 0
2, 96361, Note_on_c, 0, 51, 42
2, 96361, Note_on_c, 0, 59, 47
2, 96457, Control_c, 0, 64, 127
2, 96503, Note_on_c, 0, 68, 0
2, 96528, Note_on_c, 0, 59, 0
2, 96534, Note_on_c, 0, 51, 0
2, 96573, Note_on_c, 0, 59, 48
2, 96575, Note_on_c, 0, 68, 47
2, 96577, Control_c, 0, 64, 0
2, 96577, Note_on_c, 0, 44, 48
2, 96577, Note_on_c, 0, 51, 48
2, 96577, Note_on_c, 0, 56, 48
2, 96720, Control_c, 0, 64, 127
2, 97033, Note_on_c, 0, 56, 0
2, 97033, Note_on_c, 0, 44, 0
2, 97033, Note_on_c, 0, 51, 0
2, 97033, Note_on_c, 0, 59, 0
2, 97035, Note_on_c, 0, 68, 0
2, 97037, Control_c, 0, 64, 0
2, 98003, Note_on_c, 0, 56, 63
2, 98290, Note_on_c, 0, 36, 48
2, 98392, Note_on_c, 0, 68, 60
2, 98402, Control_c, 0, 64, 127
2, 98404, Note_on_c, 0, 66, 49
2, 98638, Note_on_c, 0, 69, 58
2, 98643, Note_on_c, 0, 44, 44
2, 98690, Note_on_c, 0, 66, 0
2, 98690, Note_on_c, 0, 68, 0
2, 98735, Note_on_c, 0, 69, 0
2, 98740, Note_on_c, 0, 64, 52
2, 98740, Note_on_c, 0, 68, 60
2, 98813, Control_c, 0, 64, 0
2, 98829, Note_on_c, 0, 68, 0
2, 98829, Note_on_c, 0, 64, 0
2, 98833, Note_on_c, 0, 63, 48
2, 98836, Note_on_c, 0, 69, 54
2, 98841, Note_on_c, 0, 48, 46
2, 98977, Note_on_c, 0, 56, 0
2, 98979, Note_on_c, 0, 44, 0
2, 98996, Note_on_c, 0, 49, 45
2, 99029, Note_on_c, 0, 68, 62
2, 99031, Note_on_c, 0, 63, 0
2, 99031, Note_on_c, 0, 48, 0
2, 99037, Note_on_c, 0, 64, 58
2, 99045, Note_on_c, 0, 69, 0
2, 99049, Note_on_c, 0, 36, 0
2, 99096, Control_c, 0, 64, 127
2, 99221, Note_on_c, 0, 40, 46
2, 99221, Note_on_c, 0, 56, 48
2, 99295, Note_on_c, 0, 64, 0
2, 99297, Note_on_c, 0, 68, 0
2, 99300, Note_on_c, 0, 66, 51
2, 99356, Note_on_c, 0, 66, 0
2, 99368, Note_on_c, 0, 61, 49
2, 99371, Note_on_c, 0, 37, 43
2, 99373, Note_on_c, 0, 64, 45
2, 99394, Control_c, 0, 67, 0
2, 99399, Control_c, 0, 64, 0
2, 99441, Note_on_c, 0, 66, 50
2, 99468, Note_on_c, 0, 66, 0
2, 99518, Note_on_c, 0, 36, 50
2, 99518, Note_on_c, 0, 66, 56
2, 99538, Note_on_c, 0, 37, 0
2, 99551, Note_on_c, 0, 56, 0
2, 99551, Note_on_c, 0, 64, 0
2, 99551, Note_on_c, 0, 49, 0
2, 99552, Note_on_c, 0, 61, 0
2, 99552, Note_on_c, 0, 40, 0
2, 99558, Note_on_c, 0, 68, 61
2, 99603, Control_c, 0, 64, 127
2, 99711, Note_on_c, 0, 69, 54
2, 99713, Note_on_c, 0, 68, 0
2, 99713, Note_on_c, 0, 66, 0
2, 99719, Note_on_c, 0, 44, 51
2, 99782, Note_on_c, 0, 64, 51
2, 99784, Note_on_c, 0, 69, 0
2, 99784, Control_c, 0, 64, 0
2, 99784, Note_on_c, 0, 68, 57
2, 99864, Note_on_c, 0, 63, 59
2, 99866, Note_on_c, 0, 64, 0
2, 99866, Note_on_c, 0, 69, 53
2, 99868, Note_on_c, 0, 68, 0
2, 99873, Note_on_c, 0, 48, 45
2, 100016, Note_on_c, 0, 63, 0
2, 100022, Note_on_c, 0, 64, 42
2, 100022, Note_on_c, 0, 68, 65
2, 100034, Note_on_c, 0, 49, 47
2, 100037, Note_on_c, 0, 69, 0
2, 100042, Note_on_c, 0, 48, 0
2, 100042, Note_on_c, 0, 36, 0
2, 100042, Note_on_c, 0, 44, 0
2, 100074, Control_c, 0, 64, 127
2, 100131, Note_on_c, 0, 49, 0
2, 100174, Note_on_c, 0, 40, 42
2, 100174, Note_on_c, 0, 56, 48
2, 100239, Note_on_c, 0, 64, 0
2, 100241, Note_on_c, 0, 68, 0
2, 100244, Note_on_c, 0, 66, 50
2, 100251, Control_c, 0, 64, 0
2, 100303, Note_on_c, 0, 40, 0
2, 100320, Note_on_c, 0, 61, 48
2, 100320, Note_on_c, 0, 64, 43
2, 100328, Note_on_c, 0, 66, 0
2, 100334, Note_on_c, 0, 37, 47
2, 100358, Note_on_c, 0, 56, 0
2, 100405, Note_on_c, 0, 66, 53
2, 100413, Note_on_c, 0, 64, 0
2, 100490, Note_on_c, 0, 61, 0
2, 100496, Note_on_c, 0, 64, 42
2, 100496, Note_on_c, 0, 68, 56
2, 100509, Note_on_c, 0, 48, 44
2, 100511, Note_on_c, 0, 37, 0
2, 100511, Note_on_c, 0, 66, 0
2, 100549, Control_c, 0, 64, 127
2, 100625, Note_on_c, 0, 56, 48
2, 100638, Note_on_c, 0, 40, 47
2, 100638, Note_on_c, 0, 69, 53
2, 100646, Note_on_c, 0, 68, 0
2, 100708, Note_on_c, 0, 64, 0
2, 100710, Note_on_c, 0, 69, 0
2, 100715, Note_on_c, 0, 68, 51
2, 100717, Control_c, 0, 64, 0
2, 100788, Note_on_c, 0, 48, 0
2, 100788, Note_on_c, 0, 40, 0
2, 100788, Note_on_c, 0, 56, 0
2, 100793, Note_on_c, 0, 36, 41
2, 100793, Note_on_c, 0, 64, 46
2, 100795, Note_on_c, 0, 69, 57
2, 100808, Note_on_c, 0, 68, 0
2, 100942, Note_on_c, 0, 47, 51
2, 100952, Note_on_c, 0, 68, 62
2, 100960, Note_on_c, 0, 71, 46
2, 100966, Note_on_c, 0, 36, 0
2, 100978, Note_on_c, 0, 64, 0
2, 100980, Note_on_c, 0, 69, 0
2, 101004, Control_c, 0, 64, 127
2, 101111, Note_on_c, 0, 40, 41
2, 101111, Note_on_c, 0, 59, 48
2, 101116, Note_on_c, 0, 73, 50
2, 101143, Note_on_c, 0, 71, 0
2, 101193, Control_c, 0, 64, 0
2, 101198, Note_on_c, 0, 71, 49
2, 101211, Note_on_c, 0, 68, 0
2, 101211, Note_on_c, 0, 73, 0
2, 101282, Note_on_c, 0, 35, 45
2, 101287, Note_on_c, 0, 68, 61
2, 101293, Note_on_c, 0, 73, 44
2, 101313, Note_on_c, 0, 71, 0
2, 101365, Note_on_c, 0, 47, 0
2, 101446, Note_on_c, 0, 47, 57
2, 101479, Note_on_c, 0, 59, 0
2, 101481, Note_on_c, 0, 40, 0
2, 101486, Note_on_c, 0, 71, 63
2, 101498, Note_on_c, 0, 75, 48
2, 101507, Note_on_c, 0, 73, 0
2, 101507, Note_on_c, 0, 68, 0
2, 101551, Control_c, 0, 64, 127
2, 101690, Note_on_c, 0, 42, 48
2, 101695, Note_on_c, 0, 73, 48
2, 101732, Note_on_c, 0, 75, 0
2, 101808, Note_on_c, 0, 66, 59
2, 101813, Note_on_c, 0, 73, 0
2, 101813, Note_on_c, 0, 75, 41
2, 101826, Note_on_c, 0, 35, 0
2, 101826, Control_c, 0, 64, 0
2, 101846, Note_on_c, 0, 71, 0
2, 101902, Note_on_c, 0, 35, 48
2, 101917, Note_on_c, 0, 42, 0
2, 101917, Note_on_c, 0, 75, 0
2, 101929, Note_on_c, 0, 69, 45
2, 101935, Note_on_c, 0, 73, 48
2, 101949, Note_on_c, 0, 66, 0
2, 101969, Control_c, 0, 67, 127
2, 102097, Note_on_c, 0, 47, 0
2, 102103, Note_on_c, 0, 40, 49
2, 102116, Note_on_c, 0, 68, 66
2, 102128, Note_on_c, 0, 71, 44
2, 102131, Note_on_c, 0, 35, 0
2, 102149, Note_on_c, 0, 73, 0
2, 102149, Note_on_c, 0, 69, 0
2, 102176, Control_c, 0, 64, 127
2, 102309, Note_on_c, 0, 47, 43
2, 102322, Note_on_c, 0, 68, 0
2, 102328, Note_on_c, 0, 66, 43
2, 102352, Control_c, 0, 64, 0
2, 102417, Note_on_c, 0, 66, 0
2, 102422, Note_on_c, 0, 69, 59
2, 102442, Note_on_c, 0, 71, 0
2, 102502, Note_on_c, 0, 40, 0
2, 102530, Note_on_c, 0, 52, 41
2, 102551, Note_on_c, 0, 68, 51
2, 102556, Note_on_c, 0, 64, 44
2, 102577, Note_on_c, 0, 69, 0
2, 102624, Note_on_c, 0, 47, 0
2, 102670, Note_on_c, 0, 52, 0
2, 102670, Note_on_c, 0, 48, 46
2, 102709, Note_on_c, 0, 51, 64
2, 102741, Note_on_c, 0, 78, 50
2, 102745, Note_on_c, 0, 66, 48
2, 102780, Note_on_c, 0, 68, 0
2, 102780, Note_on_c, 0, 64, 0
2, 102783, Note_on_c, 0, 56, 61
2, 102842, Control_c, 0, 64, 127
2, 102967, Note_on_c, 0, 56, 0
2, 102973, Note_on_c, 0, 57, 57
2, 103067, Control_c, 0, 64, 0
2, 103080, Note_on_c, 0, 78, 0
2, 103080, Note_on_c, 0, 66, 0
2, 103085, Note_on_c, 0, 64, 53
2, 103087, Note_on_c, 0, 76, 44
2, 103092, Note_on_c, 0, 56, 57
2, 103137, Note_on_c, 0, 57, 0
2, 103181, Note_on_c, 0, 48, 0
2, 103213, Note_on_c, 0, 75, 51
2, 103218, Note_on_c, 0, 57, 48
2, 103220, Note_on_c, 0, 51, 0
2, 103220, Note_on_c, 0, 56, 0
2, 103225, Note_on_c, 0, 76, 0
2, 103230, Note_on_c, 0, 63, 42
2, 103235, Note_on_c, 0, 54, 45
2, 103237, Note_on_c, 0, 48, 48
2, 103245, Note_on_c, 0, 64, 0
2, 103287, Control_c, 0, 64, 127
2, 103402, Control_c, 0, 64, 0
2, 103423, Note_on_c, 0, 76, 53
2, 103434, Note_on_c, 0, 64, 43
2, 103436, Note_on_c, 0, 63, 0
2, 103449, Note_on_c, 0, 75, 0
2, 103462, Note_on_c, 0, 54, 0
2, 103466, Note_on_c, 0, 56, 42
2, 103488, Note_on_c, 0, 52, 45
2, 103489, Note_on_c, 0, 57, 0
2, 103498, Note_on_c, 0, 49, 47
2, 103513, Note_on_c, 0, 48, 0
2, 103609, Control_c, 0, 64, 127
2, 103651, Note_on_c, 0, 68, 48
2, 103719, Note_on_c, 0, 56, 0
2, 103724, Note_on_c, 0, 54, 56
2, 103762, Note_on_c, 0, 52, 0
2, 103782, Note_on_c, 0, 49, 0
2, 103787, Control_c, 0, 64, 0
2, 103800, Note_on_c, 0, 64, 0
2, 103800, Note_on_c, 0, 76, 0
2, 103800, Note_on_c, 0, 54, 0
2, 103800, Note_on_c, 0, 68, 0
2, 103805, Note_on_c, 0, 52, 42
2, 103805, Note_on_c, 0, 73, 53
2, 103813, Note_on_c, 0, 49, 48
2, 103889, Note_on_c, 0, 54, 50
2, 103918, Control_c, 0, 67, 0
2, 103993, Note_on_c, 0, 66, 51
2, 103993, Note_on_c, 0, 78, 48
2, 104004, Note_on_c, 0, 49, 0
2, 104004, Note_on_c, 0, 52, 0
2, 104010, Note_on_c, 0, 56, 41
2, 104012, Note_on_c, 0, 73, 0
2, 104022, Note_on_c, 0, 48, 47
2, 104022, Note_on_c, 0, 51, 47
2, 104053, Note_on_c, 0, 54, 0
2, 104097, Control_c, 0, 64, 127
2, 104153, Note_on_c, 0, 56, 0
2, 104160, Note_on_c, 0, 57, 53
2, 104238, Note_on_c, 0, 66, 0
2, 104240, Note_on_c, 0, 78, 0
2, 104243, Control_c, 0, 64, 0
2, 104243, Note_on_c, 0, 64, 53
2, 104245, Note_on_c, 0, 57, 0
2, 104245, Note_on_c, 0, 76, 42
2, 104251, Note_on_c, 0, 56, 58
2, 104324, Note_on_c, 0, 48, 0
2, 104357, Note_on_c, 0, 75, 45
2, 104363, Note_on_c, 0, 51, 0
2, 104363, Note_on_c, 0, 57, 46
2, 104376, Note_on_c, 0, 48, 47
2, 104376, Note_on_c, 0, 54, 48
2, 104376, Note_on_c, 0, 63, 41
2, 104381, Note_on_c, 0, 56, 0
2, 104384, Note_on_c, 0, 76, 0
2, 104395, Note_on_c, 0, 64, 0
2, 104422, Control_c, 0, 64, 127
2, 104485, Control_c, 0, 64, 0
2, 104571, Note_on_c, 0, 76, 49
2, 104576, Note_on_c, 0, 64, 61
2, 104589, Note_on_c, 0, 54, 0
2, 104591, Note_on_c, 0, 75, 0
2, 104591, Note_on_c, 0, 57, 0
2, 104591, Note_on_c, 0, 48, 0
2, 104595, Note_on_c, 0, 56, 42
2, 104598, Note_on_c, 0, 63, 0
2, 104609, Note_on_c, 0, 49, 45
2, 104611, Note_on_c, 0, 52, 47
2, 104668, Control_c, 0, 64, 127
2, 104772, Note_on_c, 0, 68, 48
2, 104819, Note_on_c, 0, 56, 0
2, 104825, Note_on_c, 0, 54, 59
2, 104837, Control_c, 0, 64, 0
2, 104871, Note_on_c, 0, 52, 0
2, 104871, Note_on_c, 0, 49, 0
2, 104909, Note_on_c, 0, 64, 0
2, 104911, Note_on_c, 0, 76, 0
2, 104922, Note_on_c, 0, 52, 44
2, 104922, Note_on_c, 0, 61, 41
2, 104922, Note_on_c, 0, 73, 47
2, 104927, Note_on_c, 0, 49, 43
2, 104934, Note_on_c, 0, 54, 0
2, 104990, Note_on_c, 0, 54, 58
2, 105094, Note_on_c, 0, 52, 0
2, 105099, Note_on_c, 0, 68, 0
2, 105104, Note_on_c, 0, 56, 45
2, 105106, Note_on_c, 0, 76, 56
2, 105117, Note_on_c, 0, 48, 49
2, 105117, Note_on_c, 0, 52, 50
2, 105119, Note_on_c, 0, 64, 45
2, 105124, Note_on_c, 0, 49, 0
2, 105129, Note_on_c, 0, 54, 0
2, 105131, Note_on_c, 0, 61, 0
2, 105131, Note_on_c, 0, 73, 0
2, 105193, Control_c, 0, 64, 127
2, 105280, Note_on_c, 0, 56, 0
2, 105286, Note_on_c, 0, 57, 59
2, 105299, Note_on_c, 0, 68, 48
2, 105370, Note_on_c, 0, 57, 0
2, 105375, Note_on_c, 0, 56, 56
2, 105388, Note_on_c, 0, 64, 0
2, 105390, Note_on_c, 0, 76, 0
2, 105429, Note_on_c, 0, 52, 0
2, 105429, Note_on_c, 0, 48, 0
2, 105439, Control_c, 0, 64, 0
2, 105455, Note_on_c, 0, 56, 0
2, 105456, Note_on_c, 0, 68, 0
2, 105461, Note_on_c, 0, 57, 43
2, 105467, Note_on_c, 0, 64, 42
2, 105470, Note_on_c, 0, 76, 57
2, 105475, Note_on_c, 0, 48, 42
2, 105475, Note_on_c, 0, 52, 47
2, 105509, Note_on_c, 0, 52, 0
2, 105548, Note_on_c, 0, 48, 0
2, 105553, Note_on_c, 0, 47, 48
2, 105585, Note_on_c, 0, 52, 51
2, 105619, Note_on_c, 0, 76, 0
2, 105627, Note_on_c, 0, 68, 62
2, 105629, Note_on_c, 0, 80, 64
2, 105634, Note_on_c, 0, 64, 0
2, 105647, Note_on_c, 0, 59, 66
2, 105668, Note_on_c, 0, 57, 0
2, 105738, Control_c, 0, 64, 127
2, 105816, Note_on_c, 0, 59, 0
2, 105818, Note_on_c, 0, 68, 0
2, 105818, Note_on_c, 0, 80, 0
2, 105821, Note_on_c, 0, 61, 62
2, 105821, Note_on_c, 0, 71, 60
2, 105884, Control_c, 0, 64, 0
2, 105900, Note_on_c, 0, 61, 0
2, 105905, Note_on_c, 0, 59, 64
2, 105957, Note_on_c, 0, 52, 0
2, 105957, Note_on_c, 0, 47, 0
2, 105996, Note_on_c, 0, 71, 0
2, 106001, Note_on_c, 0, 61, 41
2, 106001, Note_on_c, 0, 68, 65
2, 106001, Note_on_c, 0, 80, 63
2, 106007, Note_on_c, 0, 47, 47
2, 106007, Note_on_c, 0, 52, 47
2, 106027, Note_on_c, 0, 47, 0
2, 106027, Note_on_c, 0, 59, 0
2, 106077, Note_on_c, 0, 47, 50
2, 106119, Note_on_c, 0, 54, 51
2, 106127, Note_on_c, 0, 52, 0
2, 106179, Note_on_c, 0, 71, 60
2, 106179, Note_on_c, 0, 83, 64
2, 106184, Note_on_c, 0, 63, 77
2, 106198, Note_on_c, 0, 68, 0
2, 106200, Note_on_c, 0, 80, 0
2, 106224, Note_on_c, 0, 61, 0
2, 106301, Control_c, 0, 64, 127
2, 106401, Note_on_c, 0, 61, 70
2, 106436, Note_on_c, 0, 63, 0
2, 106501, Note_on_c, 0, 71, 0
2, 106503, Note_on_c, 0, 83, 0
2, 106506, Note_on_c, 0, 63, 71
2, 106508, Note_on_c, 0, 78, 64
2, 106513, Note_on_c, 0, 47, 0
2, 106532, Note_on_c, 0, 61, 0
2, 106544, Control_c, 0, 64, 0
2, 106571, Note_on_c, 0, 47, 51
2, 106577, Note_on_c, 0, 54, 0
2, 106590, Note_on_c, 0, 51, 52
2, 106616, Note_on_c, 0, 54, 51
2, 106640, Note_on_c, 0, 81, 65
2, 106643, Note_on_c, 0, 61, 65
2, 106645, Note_on_c, 0, 69, 61
2, 106665, Note_on_c, 0, 63, 0
2, 106667, Note_on_c, 0, 78, 0
2, 106745, Control_c, 0, 67, 127
2, 106761, Note_on_c, 0, 51, 0
2, 106779, Note_on_c, 0, 47, 0
2, 106782, Note_on_c, 0, 52, 47
2, 106811, Note_on_c, 0, 54, 0
2, 106816, Note_on_c, 0, 56, 42
2, 106852, Note_on_c, 0, 80, 60
2, 106857, Note_on_c, 0, 68, 55
2, 106862, Note_on_c, 0, 59, 65
2, 106877, Note_on_c, 0, 81, 0
2, 106882, Note_on_c, 0, 61, 0
2, 106884, Note_on_c, 0, 69, 0
2, 106944, Control_c, 0, 64, 127
2, 107092, Note_on_c, 0, 56, 0
2, 107097, Note_on_c, 0, 57, 56
2, 107136, Control_c, 0, 64, 0
2, 107155, Note_on_c, 0, 80, 0
2, 107160, Note_on_c, 0, 68, 0
2, 107160, Note_on_c, 0, 78, 53
2, 107167, Note_on_c, 0, 66, 48
2, 107172, Note_on_c, 0, 52, 0
2, 107214, Note_on_c, 0, 52, 42
2, 107266, Note_on_c, 0, 59, 0
2, 107274, Note_on_c, 0, 56, 48
2, 107286, Note_on_c, 0, 64, 46
2, 107286, Note_on_c, 0, 76, 53
2, 107299, Note_on_c, 0, 57, 0
2, 107302, Note_on_c, 0, 78, 0
2, 107314, Note_on_c, 0, 66, 0
2, 107345, Control_c, 0, 67, 0
2, 107360, Control_c, 0, 64, 127
2, 107407, Note_on_c, 0, 83, 59
2, 107468, Note_on_c, 0, 47, 41
2, 107481, Note_on_c, 0, 52, 0
2, 107507, Note_on_c, 0, 54, 41
2, 107512, Control_c, 0, 64, 0
2, 107539, Note_on_c, 0, 56, 0
2, 107541, Note_on_c, 0, 64, 0
2, 107541, Note_on_c, 0, 87, 62
2, 107543, Note_on_c, 0, 76, 0
2, 107547, Note_on_c, 0, 75, 59
2, 107574, Note_on_c, 0, 83, 0
2, 107577, Note_on_c, 0, 59, 57
2, 107684, Control_c, 0, 64, 127
2, 107783, Note_on_c, 0, 75, 0
2, 107784, Note_on_c, 0, 87, 0
2, 107787, Note_on_c, 0, 73, 60
2, 107790, Note_on_c, 0, 85, 59
2, 107824, Note_on_c, 0, 54, 0
2, 107868, Note_on_c, 0, 54, 43
2, 107870, Note_on_c, 0, 47, 0
2, 107890, Note_on_c, 0, 73, 0
2, 107892, Note_on_c, 0, 85, 0
2, 107895, Note_on_c, 0, 75, 56
2, 107895, Note_on_c, 0, 87, 54
2, 107897, Control_c, 0, 64, 0
2, 107912, Note_on_c, 0, 47, 44
2, 107949, Note_on_c, 0, 51, 45
2, 108004, Note_on_c, 0, 59, 0
2, 108004, Note_on_c, 0, 54, 0
2, 108009, Note_on_c, 0, 57, 51
2, 108018, Note_on_c, 0, 73, 63
2, 108018, Note_on_c, 0, 85, 64
2, 108045, Note_on_c, 0, 87, 0
2, 108045, Note_on_c, 0, 75, 0
2, 108136, Note_on_c, 0, 40, 41
2, 108146, Note_on_c, 0, 47, 0
2, 108191, Note_on_c, 0, 47, 47
2, 108245, Note_on_c, 0, 51, 0
2, 108251, Note_on_c, 0, 71, 63
2, 108253, Note_on_c, 0, 83, 64
2, 108279, Note_on_c, 0, 73, 0
2, 108281, Note_on_c, 0, 85, 0
2, 108288, Note_on_c, 0, 56, 47
2, 108304, Note_on_c, 0, 57, 0
2, 108335, Control_c, 0, 64, 127
2, 108434, Note_on_c, 0, 47, 0
2, 108476, Note_on_c, 0, 56, 0
2, 108481, Note_on_c, 0, 47, 43
2, 108481, Note_on_c, 0, 54, 43
2, 108486, Note_on_c, 0, 40, 0
2, 108528, Control_c, 0, 64, 0
2, 108560, Note_on_c, 0, 71, 0
2, 108562, Note_on_c, 0, 83, 0
2, 108565, Note_on_c, 0, 69, 61
2, 108565, Note_on_c, 0, 81, 60
2, 108635, Note_on_c, 0, 54, 0
2, 108637, Note_on_c, 0, 47, 0
2, 108640, Note_on_c, 0, 52, 42
2, 108648, Note_on_c, 0, 69, 0
2, 108650, Note_on_c, 0, 81, 0
2, 108655, Note_on_c, 0, 68, 61
2, 108657, Note_on_c, 0, 80, 56
2, 108724, Note_on_c, 0, 56, 49
2, 108740, Note_on_c, 0, 71, 59
2, 108742, Note_on_c, 0, 83, 54
2, 108752, Note_on_c, 0, 68, 0
2, 108754, Note_on_c, 0, 80, 0
2, 108786, Note_on_c, 0, 47, 45
2, 108830, Note_on_c, 0, 54, 48
2, 108832, Note_on_c, 0, 56, 0
2, 108832, Note_on_c, 0, 52, 0
2, 108840, Note_on_c, 0, 75, 60
2, 108840, Note_on_c, 0, 87, 63
2, 108864, Note_on_c, 0, 71, 0
2, 108866, Note_on_c, 0, 83, 0
2, 108875, Note_on_c, 0, 59, 57
2, 108904, Control_c, 0, 64, 127
2, 109024, Note_on_c, 0, 75, 0
2, 109027, Note_on_c, 0, 87, 0
2, 109030, Note_on_c, 0, 73, 61
2, 109032, Note_on_c, 0, 85, 63
2, 109060, Note_on_c, 0, 54, 0
2, 109086, Note_on_c, 0, 47, 0
2, 109103, Note_on_c, 0, 54, 48
2, 109105, Note_on_c, 0, 73, 0
2, 109107, Note_on_c, 0, 85, 0
2, 109113, Note_on_c, 0, 75, 59
2, 109113, Note_on_c, 0, 87, 60
2, 109133, Control_c, 0, 64, 0
2, 109147, Note_on_c, 0, 47, 41
2, 109168, Note_on_c, 0, 54, 0
2, 109170, Note_on_c, 0, 59, 0
2, 109175, Note_on_c, 0, 51, 44
2, 109209, Note_on_c, 0, 75, 0
2, 109212, Note_on_c, 0, 87, 0
2, 109214, Note_on_c, 0, 57, 47
2, 109217, Note_on_c, 0, 73, 54
2, 109217, Note_on_c, 0, 85, 57
2, 109296, Note_on_c, 0, 40, 45
2, 109300, Note_on_c, 0, 47, 0
2, 109342, Note_on_c, 0, 47, 45
2, 109407, Note_on_c, 0, 71, 60
2, 109409, Note_on_c, 0, 83, 63
2, 109415, Note_on_c, 0, 51, 0
2, 109415, Note_on_c, 0, 57, 0
2, 109419, Note_on_c, 0, 56, 48
2, 109422, Note_on_c, 0, 73, 0
2, 109424, Note_on_c, 0, 85, 0
2, 109448, Control_c, 0, 64, 127
2, 109555, Note_on_c, 0, 47, 0
2, 109589, Note_on_c, 0, 40, 0
2, 109592, Note_on_c, 0, 56, 0
2, 109595, Note_on_c, 0, 47, 48
2, 109595, Note_on_c, 0, 54, 45
2, 109618, Control_c, 0, 64, 0
2, 109679, Note_on_c, 0, 71, 0
2, 109680, Note_on_c, 0, 83, 0
2, 109683, Note_on_c, 0, 69, 58
2, 109685, Note_on_c, 0, 81, 56
2, 109737, Note_on_c, 0, 47, 0
2, 109737, Note_on_c, 0, 54, 0
2, 109742, Note_on_c, 0, 52, 47
2, 109771, Note_on_c, 0, 69, 0
2, 109773, Note_on_c, 0, 81, 0
2, 109777, Note_on_c, 0, 68, 57
2, 109779, Note_on_c, 0, 80, 57
2, 109811, Control_c, 0, 64, 127
2, 109814, Note_on_c, 0, 56, 56
2, 109859, Note_on_c, 0, 71, 59
2, 109859, Note_on_c, 0, 83, 59
2, 109870, Note_on_c, 0, 52, 0
2, 109872, Note_on_c, 0, 68, 0
2, 109905, Note_on_c, 0, 80, 0
2, 109907, Note_on_c, 0, 45, 49
2, 109912, Control_c, 0, 64, 0
2, 109935, Note_on_c, 0, 52, 48
2, 109982, Note_on_c, 0, 56, 0
2, 109988, Note_on_c, 0, 73, 61
2, 109990, Note_on_c, 0, 85, 64
2, 110008, Note_on_c, 0, 83, 0
2, 110008, Note_on_c, 0, 71, 0
2, 110011, Note_on_c, 0, 57, 58
2, 110096, Control_c, 0, 64, 127
2, 110143, Note_on_c, 0, 52, 0
2, 110207, Note_on_c, 0, 73, 0
2, 110208, Note_on_c, 0, 85, 0
2, 110211, Note_on_c, 0, 71, 55
2, 110211, Note_on_c, 0, 83, 54
2, 110227, Control_c, 0, 64, 0
2, 110287, Note_on_c, 0, 45, 0
2, 110289, Note_on_c, 0, 57, 0
2, 110292, Note_on_c, 0, 52, 48
2, 110315, Note_on_c, 0, 73, 54
2, 110317, Note_on_c, 0, 85, 53
2, 110337, Note_on_c, 0, 83, 0
2, 110342, Note_on_c, 0, 71, 0
2, 110345, Note_on_c, 0, 40, 44
2, 110384, Note_on_c, 0, 47, 44
2, 110440, Note_on_c, 0, 71, 59
2, 110440, Note_on_c, 0, 83, 65
2, 110452, Note_on_c, 0, 52, 0
2, 110454, Note_on_c, 0, 73, 0
2, 110456, Note_on_c, 0, 85, 0
2, 110458, Note_on_c, 0, 56, 51
2, 110490, Control_c, 0, 64, 127
2, 110584, Note_on_c, 0, 40, 0
2, 110587, Note_on_c, 0, 42, 46
2, 110600, Control_c, 0, 64, 0
2, 110624, Note_on_c, 0, 49, 45
2, 110633, Note_on_c, 0, 47, 0
2, 110651, Note_on_c, 0, 69, 53
2, 110654, Note_on_c, 0, 81, 56
2, 110675, Note_on_c, 0, 54, 50
2, 110678, Note_on_c, 0, 71, 0
2, 110680, Note_on_c, 0, 83, 0
2, 110690, Note_on_c, 0, 56, 0
2, 110772, Control_c, 0, 67, 127
2, 110785, Control_c, 0, 64, 127
2, 110856, Note_on_c, 0, 49, 0
2, 110882, Note_on_c, 0, 81, 0
2, 110882, Note_on_c, 0, 69, 0
2, 110887, Note_on_c, 0, 68, 56
2, 110889, Note_on_c, 0, 80, 53
2, 110945, Control_c, 0, 64, 0
2, 110966, Note_on_c, 0, 49, 46
2, 110993, Note_on_c, 0, 68, 0
2, 110995, Note_on_c, 0, 80, 0
2, 110998, Note_on_c, 0, 69, 54
2, 111000, Note_on_c, 0, 81, 54
2, 111027, Note_on_c, 0, 37, 43
2, 111053, Note_on_c, 0, 42, 0
2, 111053, Note_on_c, 0, 49, 0
2, 111053, Note_on_c, 0, 54, 0
2, 111059, Note_on_c, 0, 44, 46
2, 111111, Note_on_c, 0, 52, 47
2, 111114, Note_on_c, 0, 68, 57
2, 111114, Note_on_c, 0, 80, 53
2, 111126, Note_on_c, 0, 69, 0
2, 111128, Note_on_c, 0, 81, 0
2, 111162, Control_c, 0, 64, 127
2, 111222, Note_on_c, 0, 37, 0
2, 111242, Note_on_c, 0, 40, 45
2, 111264, Note_on_c, 0, 68, 0
2, 111269, Note_on_c, 0, 44, 0
2, 111272, Control_c, 0, 64, 0
2, 111278, Note_on_c, 0, 80, 0
2, 111302, Note_on_c, 0, 52, 0
2, 111307, Note_on_c, 0, 47, 41
2, 111320, Note_on_c, 0, 68, 55
2, 111322, Note_on_c, 0, 80, 59
2, 111443, Note_on_c, 0, 68, 0
2, 111446, Note_on_c, 0, 80, 0
2, 111449, Note_on_c, 0, 66, 55
2, 111449, Note_on_c, 0, 78, 57
2, 111465, Note_on_c, 0, 44, 46
2, 111517, Note_on_c, 0, 52, 45
2, 111562, Note_on_c, 0, 40, 0
2, 111564, Note_on_c, 0, 47, 0
2, 111564, Note_on_c, 0, 76, 53
2, 111567, Note_on_c, 0, 59, 53
2, 111576, Note_on_c, 0, 64, 42
2, 111577, Note_on_c, 0, 78, 0
2, 111583, Note_on_c, 0, 66, 0
2, 111592, Control_c, 0, 64, 127
2, 111612, Note_on_c, 0, 44, 0
2, 111685, Note_on_c, 0, 44, 48
2, 111698, Note_on_c, 0, 52, 0
2, 111701, Control_c, 0, 64, 0
2, 111736, Note_on_c, 0, 54, 42
2, 111769, Note_on_c, 0, 59, 0
2, 111774, Note_on_c, 0, 60, 50
2, 111882, Note_on_c, 0, 64, 0
2, 111885, Note_on_c, 0, 76, 0
2, 111889, Note_on_c, 0, 63, 43
2, 111891, Note_on_c, 0, 75, 41
2, 111907, Control_c, 0, 64, 127
2, 111998, Note_on_c, 0, 63, 0
2, 112000, Note_on_c, 0, 75, 0
2, 112018, Note_on_c, 0, 60, 0
2, 112018, Note_on_c, 0, 54, 0
2, 112034, Control_c, 0, 64, 0
2, 112037, Note_on_c, 0, 44, 0
2, 112043, Note_on_c, 0, 63, 45
2, 112045, Note_on_c, 0, 75, 49
2, 112063, Note_on_c, 0, 49, 48
2, 112063, Note_on_c, 0, 54, 46
2, 112063, Note_on_c, 0, 60, 46
2, 112150, Control_c, 0, 64, 127
2, 112288, Control_c, 0, 64, 0
2, 112303, Note_on_c, 0, 52, 48
2, 112311, Note_on_c, 0, 60, 0
2, 112311, Note_on_c, 0, 63, 0
2, 112317, Note_on_c, 0, 61, 47
2, 112332, Note_on_c, 0, 75, 0
2, 112335, Note_on_c, 0, 54, 0
2, 112335, Note_on_c, 0, 73, 53
2, 112435, Control_c, 0, 64, 127
2, 112534, Note_on_c, 0, 61, 0
2, 112536, Control_c, 0, 64, 0
2, 112537, Note_on_c, 0, 56, 66
2, 112619, Note_on_c, 0, 73, 0
2, 112619, Note_on_c, 0, 88, 49
2, 112625, Note_on_c, 0, 76, 52
2, 112682, Note_on_c, 0, 49, 0
2, 112682, Note_on_c, 0, 52, 0
2, 112690, Note_on_c, 0, 47, 41
2, 112706, Control_c, 0, 64, 127
2, 112753, Note_on_c, 0, 54, 47
2, 112832, Note_on_c, 0, 56, 0
2, 112850, Note_on_c, 0, 75, 51
2, 112850, Note_on_c, 0, 87, 55
2, 112856, Control_c, 0, 64, 0
2, 112879, Note_on_c, 0, 88, 0
2, 112879, Note_on_c, 0, 76, 0
2, 112892, Note_on_c, 0, 59, 72
2, 112992, Control_c, 0, 64, 127
2, 113095, Note_on_c, 0, 54, 0
2, 113148, Note_on_c, 0, 75, 0
2, 113148, Note_on_c, 0, 87, 0
2, 113153, Note_on_c, 0, 73, 47
2, 113155, Note_on_c, 0, 85, 44
2, 113233, Control_c, 0, 64, 0
2, 113246, Note_on_c, 0, 54, 62
2, 113255, Note_on_c, 0, 47, 0
2, 113275, Note_on_c, 0, 85, 0
2, 113275, Note_on_c, 0, 73, 0
2, 113280, Note_on_c, 0, 75, 43
2, 113280, Note_on_c, 0, 87, 44
2, 113316, Note_on_c, 0, 47, 41
2, 113325, Note_on_c, 0, 59, 0
2, 113349, Note_on_c, 0, 51, 48
2, 113401, Note_on_c, 0, 73, 53
2, 113403, Note_on_c, 0, 85, 53
2, 113408, Note_on_c, 0, 57, 61
2, 113417, Note_on_c, 0, 87, 0
2, 113417, Note_on_c, 0, 75, 0
2, 113422, Note_on_c, 0, 54, 0
2, 113472, Control_c, 0, 64, 127
2, 113519, Note_on_c, 0, 47, 0
2, 113527, Note_on_c, 0, 40, 43
2, 113585, Control_c, 0, 64, 0
2, 113592, Note_on_c, 0, 47, 44
2, 113626, Note_on_c, 0, 51, 0
2, 113626, Note_on_c, 0, 57, 0
2, 113631, Note_on_c, 0, 71, 50
2, 113631, Note_on_c, 0, 83, 50
2, 113646, Note_on_c, 0, 85, 0
2, 113651, Note_on_c, 0, 73, 0
2, 113656, Note_on_c, 0, 56, 71
2, 113766, Control_c, 0, 64, 127
2, 113862, Note_on_c, 0, 47, 0
2, 113880, Note_on_c, 0, 40, 0
2, 113880, Note_on_c, 0, 56, 0
2, 113885, Note_on_c, 0, 54, 59
2, 113905, Control_c, 0, 64, 0
2, 113905, Note_on_c, 0, 47, 44
2, 113989, Note_on_c, 0, 71, 0
2, 113989, Note_on_c, 0, 83, 0
2, 113995, Note_on_c, 0, 69, 49
2, 113995, Note_on_c, 0, 81, 45
2, 114063, Note_on_c, 0, 54, 0
2, 114069, Note_on_c, 0, 52, 59
2, 114095, Note_on_c, 0, 81, 0
2, 114095, Note_on_c, 0, 69, 0
2, 114100, Note_on_c, 0, 68, 43
2, 114102, Note_on_c, 0, 80, 47
2, 114157, Control_c, 0, 64, 127
2, 114166, Note_on_c, 0, 47, 0
2, 114184, Note_on_c, 0, 80, 0
2, 114184, Note_on_c, 0, 68, 0
2, 114190, Note_on_c, 0, 56, 63
2, 114190, Note_on_c, 0, 71, 42
2, 114190, Note_on_c, 0, 83, 41
2, 114239, Note_on_c, 0, 47, 44
2, 114246, Control_c, 0, 64, 0
2, 114283, Note_on_c, 0, 54, 48
2, 114303, Note_on_c, 0, 52, 0
2, 114309, Note_on_c, 0, 75, 50
2, 114309, Note_on_c, 0, 87, 49
2, 114327, Note_on_c, 0, 83, 0
2, 114333, Note_on_c, 0, 71, 0
2, 114338, Note_on_c, 0, 59, 68
2, 114351, Note_on_c, 0, 56, 0
2, 114434, Control_c, 0, 64, 127
2, 114460, Note_on_c, 0, 54, 0
2, 114528, Note_on_c, 0, 75, 0
2, 114528, Note_on_c, 0, 87, 0
2, 114532, Note_on_c, 0, 73, 46
2, 114532, Note_on_c, 0, 85, 48
2, 114592, Control_c, 0, 64, 0
2, 114597, Note_on_c, 0, 54, 47
2, 114624, Note_on_c, 0, 47, 0
2, 114637, Note_on_c, 0, 73, 0
2, 114639, Note_on_c, 0, 85, 0
2, 114644, Note_on_c, 0, 75, 43
2, 114644, Note_on_c, 0, 87, 45
2, 114670, Note_on_c, 0, 47, 43
2, 114690, Note_on_c, 0, 59, 0
2, 114695, Note_on_c, 0, 51, 43
2, 114726, Note_on_c, 0, 57, 67
2, 114740, Note_on_c, 0, 54, 0
2, 114753, Note_on_c, 0, 73, 44
2, 114753, Note_on_c, 0, 85, 44
2, 114767, Note_on_c, 0, 87, 0
2, 114768, Note_on_c, 0, 75, 0
2, 114807, Control_c, 0, 64, 127
2, 114839, Note_on_c, 0, 47, 0
2, 114877, Note_on_c, 0, 40, 46
2, 114916, Note_on_c, 0, 47, 59
2, 114929, Control_c, 0, 64, 0
2, 114956, Note_on_c, 0, 51, 0
2, 114960, Note_on_c, 0, 71, 49
2, 114960, Note_on_c, 0, 83, 52
2, 114976, Note_on_c, 0, 73, 0
2, 114976, Note_on_c, 0, 85, 0
2, 114988, Note_on_c, 0, 56, 72
2, 115014, Note_on_c, 0, 57, 0
2, 115084, Control_c, 0, 64, 127
2, 115157, Note_on_c, 0, 47, 0
2, 115184, Note_on_c, 0, 40, 0
2, 115187, Note_on_c, 0, 54, 53
2, 115200, Note_on_c, 0, 47, 45
2, 115206, Note_on_c, 0, 56, 0
2, 115270, Control_c, 0, 64, 0
2, 115283, Note_on_c, 0, 69, 45
2, 115283, Note_on_c, 0, 81, 46
2, 115296, Note_on_c, 0, 71, 0
2, 115302, Note_on_c, 0, 83, 0
2, 115346, Note_on_c, 0, 54, 0
2, 115348, Note_on_c, 0, 47, 0
2, 115351, Note_on_c, 0, 52, 58
2, 115378, Note_on_c, 0, 81, 0
2, 115378, Note_on_c, 0, 69, 0
2, 115383, Note_on_c, 0, 68, 48
2, 115383, Note_on_c, 0, 80, 49
2, 115459, Note_on_c, 0, 56, 65
2, 115480, Note_on_c, 0, 71, 47
2, 115480, Note_on_c, 0, 83, 44
2, 115486, Note_on_c, 0, 52, 0
2, 115493, Note_on_c, 0, 68, 0
2, 115493, Note_on_c, 0, 80, 0
2, 115530, Note_on_c, 0, 45, 46
2, 115556, Note_on_c, 0, 52, 43
2, 115608, Note_on_c, 0, 73, 53
2, 115608, Note_on_c, 0, 85, 52
2, 115621, Note_on_c, 0, 83, 0
2, 115621, Note_on_c, 0, 71, 0
2, 115633, Note_on_c, 0, 57, 77
2, 115639, Note_on_c, 0, 56, 0
2, 115653, Control_c, 0, 64, 127
2, 115794, Note_on_c, 0, 52, 0
2, 115838, Note_on_c, 0, 73, 0
2, 115838, Note_on_c, 0, 85, 0
2, 115843, Note_on_c, 0, 83, 42
2, 115845, Note_on_c, 0, 71, 48
2, 115876, Control_c, 0, 64, 0
2, 115916, Note_on_c, 0, 57, 0
2, 115918, Note_on_c, 0, 45, 0
2, 115922, Note_on_c, 0, 52, 69
2, 115964, Note_on_c, 0, 83, 0
2, 115964, Note_on_c, 0, 71, 0
2, 115968, Note_on_c, 0, 73, 42
2, 115968, Note_on_c, 0, 85, 47
2, 116014, Note_on_c, 0, 40, 45
2, 116044, Note_on_c, 0, 47, 41
2, 116096, Note_on_c, 0, 52, 0
2, 116099, Note_on_c, 0, 56, 65
2, 116099, Note_on_c, 0, 83, 50
2, 116101, Note_on_c, 0, 71, 54
2, 116113, Note_on_c, 0, 73, 0
2, 116115, Note_on_c, 0, 85, 0
2, 116152, Control_c, 0, 64, 127
2, 116269, Note_on_c, 0, 42, 41
2, 116305, Note_on_c, 0, 49, 44
2, 116314, Control_c, 0, 64, 0
2, 116345, Note_on_c, 0, 81, 54
2, 116348, Note_on_c, 0, 47, 0
2, 116348, Note_on_c, 0, 40, 0
2, 116351, Note_on_c, 0, 54, 72
2, 116351, Note_on_c, 0, 69, 48
2, 116359, Note_on_c, 0, 83, 0
2, 116365, Note_on_c, 0, 71, 0
2, 116371, Note_on_c, 0, 56, 0
2, 116460, Control_c, 0, 64, 127
2, 116562, Note_on_c, 0, 49, 0
2, 116593, Note_on_c, 0, 81, 0
2, 116593, Note_on_c, 0, 69, 0
2, 116599, Note_on_c, 0, 68, 44
2, 116599, Note_on_c, 0, 80, 47
2, 116660, Control_c, 0, 64, 0
2, 116693, Note_on_c, 0, 49, 67
2, 116738, Note_on_c, 0, 68, 0
2, 116740, Note_on_c, 0, 80, 0
2, 116746, Note_on_c, 0, 69, 43
2, 116746, Note_on_c, 0, 81, 44
2, 116780, Note_on_c, 0, 37, 46
2, 116810, Note_on_c, 0, 54, 0
2, 116812, Note_on_c, 0, 42, 0
2, 116838, Note_on_c, 0, 44, 43
2, 116883, Note_on_c, 0, 52, 66
2, 116883, Note_on_c, 0, 68, 53
2, 116883, Note_on_c, 0, 80, 54
2, 116897, Note_on_c, 0, 81, 0
2, 116897, Note_on_c, 0, 69, 0
2, 116897, Note_on_c, 0, 49, 0
2, 116921, Control_c, 0, 64, 127
2, 117062, Note_on_c, 0, 80, 0
2, 117068, Note_on_c, 0, 68, 0
2, 117088, Control_c, 0, 64, 0
2, 117106, Note_on_c, 0, 80, 50
2, 117109, Note_on_c, 0, 37, 0
2, 117109, Note_on_c, 0, 44, 0
2, 117114, Note_on_c, 0, 40, 47
2, 117114, Note_on_c, 0, 68, 49
2, 117134, Note_on_c, 0, 47, 60
2, 117157, Note_on_c, 0, 52, 0
2, 117249, Note_on_c, 0, 78, 49
2, 117251, Note_on_c, 0, 66, 54
2, 117264, Note_on_c, 0, 68, 0
2, 117264, Note_on_c, 0, 80, 0
2, 117295, Control_c, 0, 64, 127
2, 117340, Note_on_c, 0, 44, 42
2, 117372, Note_on_c, 0, 52, 42
2, 117410, Control_c, 0, 64, 0
2, 117412, Note_on_c, 0, 47, 0
2, 117412, Note_on_c, 0, 40, 0
2, 117417, Note_on_c, 0, 64, 48
2, 117417, Note_on_c, 0, 76, 47
2, 117432, Note_on_c, 0, 78, 0
2, 117432, Note_on_c, 0, 66, 0
2, 117448, Note_on_c, 0, 59, 65
2, 117547, Note_on_c, 0, 44, 0
2, 117568, Control_c, 0, 64, 127
2, 117617, Note_on_c, 0, 44, 46
2, 117690, Note_on_c, 0, 52, 0
2, 117700, Note_on_c, 0, 54, 48
2, 117726, Control_c, 0, 64, 0
2, 117779, Note_on_c, 0, 64, 0
2, 117781, Note_on_c, 0, 59, 0
2, 117786, Note_on_c, 0, 60, 55
2, 117906, Control_c, 0, 64, 127
2, 118031, Note_on_c, 0, 76, 0
2, 118033, Note_on_c, 0, 63, 47
2, 118036, Note_on_c, 0, 75, 43
2, 118156, Note_on_c, 0, 75, 0
2, 118156, Note_on_c, 0, 63, 0
2, 118161, Note_on_c, 0, 60, 0
2, 118161, Control_c, 0, 64, 0
2, 118185, Note_on_c, 0, 54, 0
2, 118193, Note_on_c, 0, 49, 43
2, 118199, Note_on_c, 0, 63, 47
2, 118199, Note_on_c, 0, 75, 49
2, 118200, Note_on_c, 0, 44, 0
2, 118217, Note_on_c, 0, 54, 44
2, 118243, Note_on_c, 0, 60, 57
2, 118342, Control_c, 0, 64, 127
2, 118777, Control_c, 0, 64, 0
2, 118801, Note_on_c, 0, 60, 0
2, 118803, Note_on_c, 0, 54, 0
2, 118808, Note_on_c, 0, 61, 41
2, 118808, Note_on_c, 0, 73, 48
2, 118821, Note_on_c, 0, 52, 41
2, 118823, Note_on_c, 0, 63, 0
2, 118824, Note_on_c, 0, 75, 0
2, 118971, Control_c, 0, 64, 127
2, 119481, Control_c, 0, 64, 0
2, 119565, Control_c, 0, 67, 0
2, 119607, Note_on_c, 0, 49, 0
2, 119615, Note_on_c, 0, 61, 0
2, 119615, Note_on_c, 0, 73, 0
2, 119615, Note_on_c, 0, 52, 0
2, 119906, Note_on_c, 0, 42, 65
2, 119909, Note_on_c, 0, 66, 67
2, 119933, Note_on_c, 0, 44, 72
2, 119935, Note_on_c, 0, 68, 72
2, 119959, Note_on_c, 0, 66, 0
2, 119959, Note_on_c, 0, 42, 0
2, 119964, Note_on_c, 0, 46, 69
2, 119966, Note_on_c, 0, 70, 68
2, 119986, Note_on_c, 0, 44, 0
2, 119986, Note_on_c, 0, 68, 0
2, 120002, Note_on_c, 0, 46, 0
2, 120004, Note_on_c, 0, 70, 0
2, 120007, Note_on_c, 0, 35, 83
2, 120007, Note_on_c, 0, 47, 84
2, 120009, Note_on_c, 0, 59, 78
2, 120009, Note_on_c, 0, 63, 81
2, 120009, Note_on_c, 0, 66, 81
2, 120011, Note_on_c, 0, 71, 82
2, 120032, Control_c, 0, 64, 127
2, 120345, Note_on_c, 0, 71, 0
2, 120376, Note_on_c, 0, 47, 0
2, 120376, Note_on_c, 0, 59, 0
2, 120391, Control_c, 0, 64, 0
2, 120414, Note_on_c, 0, 35, 0
2, 120414, Note_on_c, 0, 63, 0
2, 120416, Note_on_c, 0, 66, 0
2, 120419, Note_on_c, 0, 47, 80
2, 120419, Note_on_c, 0, 54, 80
2, 120421, Note_on_c, 0, 59, 78
2, 120421, Note_on_c, 0, 71, 77
2, 120421, Note_on_c, 0, 75, 82
2, 120421, Note_on_c, 0, 83, 79
2, 120439, Note_on_c, 0, 59, 0
2, 120439, Note_on_c, 0, 47, 0
2, 120439, Note_on_c, 0, 54, 0
2, 120441, Note_on_c, 0, 71, 0
2, 120441, Note_on_c, 0, 75, 0
2, 120443, Note_on_c, 0, 83, 0
2, 120597, Note_on_c, 0, 75, 43
2, 120612, Note_on_c, 0, 76, 42
2, 120620, Note_on_c, 0, 75, 0
2, 120632, Note_on_c, 0, 78, 44
2, 120634, Note_on_c, 0, 76, 0
2, 120658, Note_on_c, 0, 78, 0
2, 120658, Note_on_c, 0, 28, 78
2, 120660, Note_on_c, 0, 35, 75
2, 120660, Note_on_c, 0, 40, 79
2, 120662, Note_on_c, 0, 68, 82
2, 120665, Note_on_c, 0, 71, 79
2, 120665, Note_on_c, 0, 76, 82
2, 120665, Note_on_c, 0, 80, 80
2, 120715, Control_c, 0, 64, 127
2, 120926, Note_on_c, 0, 80, 0
2, 120971, Control_c, 0, 64, 0
2, 120991, Note_on_c, 0, 28, 0
2, 120993, Note_on_c, 0, 35, 0
2, 120993, Note_on_c, 0, 40, 0
2, 120995, Note_on_c, 0, 68, 0
2, 120995, Note_on_c, 0, 71, 0
2, 120995, Note_on_c, 0, 76, 0
2, 121000, Note_on_c, 0, 52, 83
2, 121000, Note_on_c, 0, 59, 78
2, 121000, Note_on_c, 0, 64, 80
2, 121003, Note_on_c, 0, 80, 83
2, 121003, Note_on_c, 0, 92, 79
2, 121027, Note_on_c, 0, 64, 0
2, 121027, Note_on_c, 0, 52, 0
2, 121027, Note_on_c, 0, 59, 0
2, 121030, Note_on_c, 0, 80, 0
2, 121030, Note_on_c, 0, 92, 0
2, 121089, Note_on_c, 0, 27, 59
2, 121144, Note_on_c, 0, 85, 52
2, 121156, Note_on_c, 0, 87, 54
2, 121170, Note_on_c, 0, 88, 54
2, 121172, Note_on_c, 0, 85, 0
2, 121179, Note_on_c, 0, 27, 0
2, 121185, Note_on_c, 0, 87, 0
2, 121185, Note_on_c, 0, 39, 74
2, 121188, Note_on_c, 0, 78, 78
2, 121188, Note_on_c, 0, 90, 79
2, 121201, Note_on_c, 0, 88, 0
2, 121206, Note_on_c, 0, 39, 0
2, 121208, Note_on_c, 0, 78, 0
2, 121210, Note_on_c, 0, 90, 0
2, 121271, Note_on_c, 0, 76, 61
2, 121271, Note_on_c, 0, 88, 60
2, 121296, Note_on_c, 0, 76, 0
2, 121298, Note_on_c, 0, 88, 0
2, 121341, Note_on_c, 0, 51, 63
2, 121341, Note_on_c, 0, 54, 60
2, 121341, Note_on_c, 0, 59, 59
2, 121343, Note_on_c, 0, 75, 66
2, 121343, Note_on_c, 0, 87, 69
2, 121361, Note_on_c, 0, 54, 0
2, 121361, Note_on_c, 0, 51, 0
2, 121363, Note_on_c, 0, 59, 0
2, 121366, Note_on_c, 0, 75, 0
2, 121366, Note_on_c, 0, 87, 0
2, 121417, Note_on_c, 0, 78, 71
2, 121417, Note_on_c, 0, 90, 72
2, 121433, Note_on_c, 0, 42, 59
2, 121438, Note_on_c, 0, 78, 0
2, 121440, Note_on_c, 0, 90, 0
2, 121461, Note_on_c, 0, 42, 0
2, 121469, Note_on_c, 0, 49, 56
2, 121485, Note_on_c, 0, 58, 76
2, 121487, Note_on_c, 0, 73, 65
2, 121488, Note_on_c, 0, 85, 69
2, 121499, Note_on_c, 0, 49, 0
2, 121507, Note_on_c, 0, 73, 0
2, 121509, Note_on_c, 0, 85, 0
2, 121511, Note_on_c, 0, 58, 0
2, 121555, Note_on_c, 0, 76, 69
2, 121555, Note_on_c, 0, 88, 66
2, 121575, Note_on_c, 0, 88, 0
2, 121575, Note_on_c, 0, 76, 0
2, 121624, Note_on_c, 0, 54, 63
2, 121626, Note_on_c, 0, 47, 67
2, 121626, Note_on_c, 0, 51, 66
2, 121628, Note_on_c, 0, 59, 67
2, 121628, Note_on_c, 0, 71, 69
2, 121630, Note_on_c, 0, 83, 69
2, 121646, Note_on_c, 0, 59, 0
2, 121646, Note_on_c, 0, 51, 0
2, 121646, Note_on_c, 0, 54, 0
2, 121646, Note_on_c, 0, 47, 0
2, 121648, Note_on_c, 0, 71, 0
2, 121650, Note_on_c, 0, 83, 0
2, 121705, Note_on_c, 0, 75, 72
2, 121705, Note_on_c, 0, 87, 71
2, 121727, Note_on_c, 0, 87, 0
2, 121727, Note_on_c, 0, 75, 0
2, 121802, Control_c, 0, 64, 127
2, 121816, Note_on_c, 0, 54, 76
2, 121818, Note_on_c, 0, 58, 77
2, 121818, Note_on_c, 0, 61, 71
2, 121818, Note_on_c, 0, 66, 77
2, 121818, Note_on_c, 0, 73, 84
2, 121820, Note_on_c, 0, 78, 82
2, 121822, Note_on_c, 0, 82, 82
2, 121822, Note_on_c, 0, 85, 83
2, 121848, Note_on_c, 0, 61, 0
2, 121848, Note_on_c, 0, 54, 0
2, 121848, Note_on_c, 0, 58, 0
2, 121850, Note_on_c, 0, 66, 0
2, 121864, Note_on_c, 0, 73, 0
2, 121864, Note_on_c, 0, 85, 0
2, 121864, Note_on_c, 0, 82, 0
2, 121864, Note_on_c, 0, 78, 0
2, 121869, Control_c, 0, 64, 0
2, 122064, Note_on_c, 0, 66, 61
2, 122098, Note_on_c, 0, 66, 0
2, 122098, Note_on_c, 0, 68, 63
2, 122125, Note_on_c, 0, 68, 0
2, 122128, Note_on_c, 0, 70, 64
2, 122170, Note_on_c, 0, 63, 75
2, 122172, Note_on_c, 0, 59, 73
2, 122172, Note_on_c, 0, 68, 79
2, 122172, Note_on_c, 0, 71, 84
2, 122174, Note_on_c, 0, 70, 0
2, 122174, Note_on_c, 0, 32, 72
2, 122174, Note_on_c, 0, 39, 75
2, 122177, Note_on_c, 0, 44, 73
2, 122215, Control_c, 0, 64, 127
2, 122471, Note_on_c, 0, 71, 0
2, 122513, Note_on_c, 0, 44, 0
2, 122515, Control_c, 0, 64, 0
2, 122546, Note_on_c, 0, 63, 0
2, 122546, Note_on_c, 0, 59, 0
2, 122548, Note_on_c, 0, 68, 0
2, 122550, Note_on_c, 0, 32, 0
2, 122552, Note_on_c, 0, 39, 0
2, 122554, Note_on_c, 0, 71, 74
2, 122554, Note_on_c, 0, 75, 74
2, 122556, Note_on_c, 0, 80, 77
2, 122556, Note_on_c, 0, 83, 71
2, 122558, Note_on_c, 0, 44, 81
2, 122558, Note_on_c, 0, 51, 81
2, 122558, Note_on_c, 0, 56, 78
2, 122581, Note_on_c, 0, 75, 0
2, 122583, Note_on_c, 0, 80, 0
2, 122585, Note_on_c, 0, 51, 0
2, 122585, Note_on_c, 0, 56, 0
2, 122587, Note_on_c, 0, 71, 0
2, 122590, Note_on_c, 0, 83, 0
2, 122592, Note_on_c, 0, 44, 0
2, 122731, Note_on_c, 0, 74, 44
2, 122743, Note_on_c, 0, 75, 45
2, 122757, Note_on_c, 0, 74, 0
2, 122760, Note_on_c, 0, 75, 0
2, 122768, Note_on_c, 0, 77, 48
2, 122788, Note_on_c, 0, 77, 0
2, 122788, Note_on_c, 0, 27, 77
2, 122788, Note_on_c, 0, 34, 72
2, 122790, Note_on_c, 0, 39, 73
2, 122795, Note_on_c, 0, 66, 79
2, 122795, Note_on_c, 0, 70, 77
2, 122795, Note_on_c, 0, 75, 80
2, 122797, Note_on_c, 0, 78, 79
2, 122836, Control_c, 0, 64, 127
2, 123032, Note_on_c, 0, 78, 0
2, 123052, Control_c, 0, 64, 0
2, 123076, Note_on_c, 0, 66, 0
2, 123076, Note_on_c, 0, 70, 0
2, 123078, Note_on_c, 0, 34, 0
2, 123078, Note_on_c, 0, 27, 0
2, 123078, Note_on_c, 0, 75, 0
2, 123080, Note_on_c, 0, 39, 0
2, 123085, Note_on_c, 0, 78, 79
2, 123085, Note_on_c, 0, 90, 77
2, 123087, Note_on_c, 0, 54, 80
2, 123089, Note_on_c, 0, 51, 78
2, 123089, Note_on_c, 0, 58, 79
2, 123089, Note_on_c, 0, 63, 81
2, 123116, Note_on_c, 0, 78, 0
2, 123118, Note_on_c, 0, 90, 0
2, 123125, Note_on_c, 0, 58, 0
2, 123125, Note_on_c, 0, 54, 0
2, 123127, Note_on_c, 0, 51, 0
2, 123127, Note_on_c, 0, 63, 0
2, 123161, Note_on_c, 0, 25, 72
2, 123206, Note_on_c, 0, 89, 60
2, 123219, Note_on_c, 0, 90, 60
2, 123233, Note_on_c, 0, 89, 0
2, 123233, Note_on_c, 0, 92, 54
2, 123240, Note_on_c, 0, 25, 0
2, 123245, Note_on_c, 0, 37, 80
2, 123245, Note_on_c, 0, 82, 77
2, 123245, Note_on_c, 0, 94, 83
2, 123247, Note_on_c, 0, 90, 0
2, 123260, Note_on_c, 0, 92, 0
2, 123267, Note_on_c, 0, 37, 0
2, 123272, Note_on_c, 0, 82, 0
2, 123274, Note_on_c, 0, 94, 0
2, 123356, Note_on_c, 0, 80, 75
2, 123356, Note_on_c, 0, 92, 77
2, 123382, Note_on_c, 0, 80, 0
2, 123384, Note_on_c, 0, 92, 0
2, 123437, Note_on_c, 0, 54, 62
2, 123440, Note_on_c, 0, 58, 65
2, 123440, Note_on_c, 0, 61, 64
2, 123440, Note_on_c, 0, 66, 72
2, 123443, Note_on_c, 0, 78, 78
2, 123443, Note_on_c, 0, 90, 78
2, 123461, Note_on_c, 0, 78, 0
2, 123464, Note_on_c, 0, 90, 0
2, 123466, Note_on_c, 0, 54, 0
2, 123466, Note_on_c, 0, 58, 0
2, 123468, Note_on_c, 0, 61, 0
2, 123468, Note_on_c, 0, 66, 0
2, 123523, Note_on_c, 0, 82, 65
2, 123523, Note_on_c, 0, 94, 72
2, 123544, Note_on_c, 0, 82, 0
2, 123546, Note_on_c, 0, 94, 0
2, 123590, Note_on_c, 0, 49, 66
2, 123593, Note_on_c, 0, 56, 62
2, 123593, Note_on_c, 0, 59, 61
2, 123596, Note_on_c, 0, 77, 70
2, 123596, Note_on_c, 0, 89, 66
2, 123611, Note_on_c, 0, 56, 0
2, 123611, Note_on_c, 0, 49, 0
2, 123613, Note_on_c, 0, 59, 0
2, 123615, Note_on_c, 0, 77, 0
2, 123617, Note_on_c, 0, 89, 0
2, 123640, Control_c, 0, 64, 127
2, 123663, Note_on_c, 0, 92, 72
2, 123668, Note_on_c, 0, 80, 47
2, 123675, Note_on_c, 0, 42, 61
2, 123683, Note_on_c, 0, 92, 0
2, 123688, Note_on_c, 0, 80, 0
2, 123714, Note_on_c, 0, 90, 58
2, 123717, Note_on_c, 0, 42, 0
2, 123721, Note_on_c, 0, 49, 53
2, 123729, Note_on_c, 0, 90, 0
2, 123738, Note_on_c, 0, 92, 53
2, 123756, Control_c, 0, 64, 0
2, 123756, Note_on_c, 0, 78, 74
2, 123759, Note_on_c, 0, 90, 76
2, 123761, Note_on_c, 0, 92, 0
2, 123768, Note_on_c, 0, 49, 0
2, 123773, Note_on_c, 0, 58, 77
2, 123779, Note_on_c, 0, 78, 0
2, 123781, Note_on_c, 0, 90, 0
2, 123794, Note_on_c, 0, 58, 0
2, 123880, Note_on_c, 0, 77, 67
2, 123880, Note_on_c, 0, 89, 68
2, 123898, Note_on_c, 0, 77, 0
2, 123900, Note_on_c, 0, 89, 0
2, 123994, Control_c, 0, 64, 127
2, 124010, Note_on_c, 0, 54, 79
2, 124010, Note_on_c, 0, 58, 74
2, 124012, Note_on_c, 0, 61, 74
2, 124012, Note_on_c, 0, 66, 79
2, 124014, Note_on_c, 0, 78, 84
2, 124014, Note_on_c, 0, 82, 78
2, 124016, Note_on_c, 0, 85, 84
2, 124016, Note_on_c, 0, 90, 80
2, 124048, Note_on_c, 0, 54, 0
2, 124050, Note_on_c, 0, 66, 0
2, 124050, Note_on_c, 0, 58, 0
2, 124050, Note_on_c, 0, 61, 0
2, 124053, Note_on_c, 0, 78, 0
2, 124053, Note_on_c, 0, 90, 0
2, 124053, Note_on_c, 0, 82, 0
2, 124053, Note_on_c, 0, 85, 0
2, 124056, Control_c, 0, 64, 0
2, 124411, Note_on_c, 0, 42, 74
2, 124414, Note_on_c, 0, 66, 73
2, 124440, Note_on_c, 0, 44, 75
2, 124442, Note_on_c, 0, 68, 75
2, 124463, Note_on_c, 0, 42, 0
2, 124464, Note_on_c, 0, 66, 0
2, 124481, Note_on_c, 0, 46, 74
2, 124484, Note_on_c, 0, 70, 75
2, 124494, Note_on_c, 0, 44, 0
2, 124496, Note_on_c, 0, 68, 0
2, 124527, Note_on_c, 0, 46, 0
2, 124530, Note_on_c, 0, 70, 0
2, 124530, Note_on_c, 0, 35, 90
2, 124530, Note_on_c, 0, 47, 89
2, 124533, Note_on_c, 0, 59, 87
2, 124533, Note_on_c, 0, 63, 88
2, 124533, Note_on_c, 0, 66, 92
2, 124533, Note_on_c, 0, 71, 90
2, 124577, Control_c, 0, 64, 127
2, 124864, Note_on_c, 0, 59, 0
2, 124864, Note_on_c, 0, 47, 0
2, 124866, Note_on_c, 0, 71, 0
2, 124925, Control_c, 0, 64, 0
2, 124941, Note_on_c, 0, 35, 0
2, 124944, Note_on_c, 0, 66, 0
2, 124944, Note_on_c, 0, 63, 0
2, 124948, Note_on_c, 0, 47, 72
2, 124948, Note_on_c, 0, 54, 72
2, 124950, Note_on_c, 0, 59, 78
2, 124950, Note_on_c, 0, 71, 77
2, 124952, Note_on_c, 0, 75, 78
2, 124952, Note_on_c, 0, 83, 84
2, 124975, Note_on_c, 0, 59, 0
2, 124975, Note_on_c, 0, 47, 0
2, 124975, Note_on_c, 0, 54, 0
2, 124977, Note_on_c, 0, 71, 0
2, 124977, Note_on_c, 0, 75, 0
2, 124991, Note_on_c, 0, 83, 0
2, 125135, Note_on_c, 0, 75, 49
2, 125145, Note_on_c, 0, 76, 50
2, 125166, Note_on_c, 0, 76, 0
2, 125171, Note_on_c, 0, 78, 45
2, 125179, Note_on_c, 0, 75, 0
2, 125192, Note_on_c, 0, 28, 80
2, 125194, Note_on_c, 0, 35, 85
2, 125194, Note_on_c, 0, 40, 81
2, 125196, Note_on_c, 0, 68, 82
2, 125196, Note_on_c, 0, 71, 83
2, 125198, Note_on_c, 0, 78, 0
2, 125198, Note_on_c, 0, 76, 83
2, 125198, Note_on_c, 0, 80, 85
2, 125266, Control_c, 0, 64, 127
2, 125457, Note_on_c, 0, 80, 0
2, 125502, Control_c, 0, 64, 0
2, 125528, Note_on_c, 0, 28, 0
2, 125531, Note_on_c, 0, 40, 0
2, 125531, Note_on_c, 0, 35, 0
2, 125534, Note_on_c, 0, 71, 0
2, 125534, Note_on_c, 0, 68, 0
2, 125534, Note_on_c, 0, 76, 0
2, 125537, Note_on_c, 0, 52, 83
2, 125537, Note_on_c, 0, 59, 81
2, 125537, Note_on_c, 0, 64, 81
2, 125542, Note_on_c, 0, 80, 81
2, 125542, Note_on_c, 0, 92, 78
2, 125565, Note_on_c, 0, 52, 0
2, 125567, Note_on_c, 0, 59, 0
2, 125567, Note_on_c, 0, 64, 0
2, 125569, Note_on_c, 0, 80, 0
2, 125575, Note_on_c, 0, 92, 0
2, 125642, Note_on_c, 0, 27, 65
2, 125705, Note_on_c, 0, 85, 43
2, 125718, Note_on_c, 0, 87, 42
2, 125731, Note_on_c, 0, 88, 49
2, 125733, Note_on_c, 0, 85, 0
2, 125736, Note_on_c, 0, 27, 0
2, 125741, Note_on_c, 0, 39, 69
2, 125746, Note_on_c, 0, 87, 0
2, 125749, Note_on_c, 0, 78, 85
2, 125752, Note_on_c, 0, 90, 85
2, 125760, Note_on_c, 0, 88, 0
2, 125768, Note_on_c, 0, 39, 0
2, 125776, Note_on_c, 0, 78, 0
2, 125779, Note_on_c, 0, 90, 0
2, 125846, Note_on_c, 0, 76, 67
2, 125846, Note_on_c, 0, 88, 68
2, 125866, Note_on_c, 0, 76, 0
2, 125868, Note_on_c, 0, 88, 0
2, 125915, Note_on_c, 0, 51, 57
2, 125915, Note_on_c, 0, 54, 56
2, 125917, Note_on_c, 0, 59, 61
2, 125919, Note_on_c, 0, 75, 67
2, 125919, Note_on_c, 0, 87, 62
2, 125935, Note_on_c, 0, 54, 0
2, 125937, Note_on_c, 0, 51, 0
2, 125937, Note_on_c, 0, 59, 0
2, 125939, Note_on_c, 0, 75, 0
2, 125939, Note_on_c, 0, 87, 0
2, 125988, Note_on_c, 0, 78, 66
2, 125991, Note_on_c, 0, 90, 64
2, 125993, Note_on_c, 0, 42, 61
2, 126009, Note_on_c, 0, 78, 0
2, 126011, Note_on_c, 0, 90, 0
2, 126019, Note_on_c, 0, 42, 0
2, 126024, Note_on_c, 0, 49, 66
2, 126044, Note_on_c, 0, 49, 0
2, 126049, Note_on_c, 0, 58, 70
2, 126057, Note_on_c, 0, 73, 69
2, 126059, Note_on_c, 0, 85, 70
2, 126074, Note_on_c, 0, 58, 0
2, 126076, Note_on_c, 0, 73, 0
2, 126078, Note_on_c, 0, 85, 0
2, 126127, Note_on_c, 0, 76, 71
2, 126127, Note_on_c, 0, 88, 72
2, 126150, Note_on_c, 0, 88, 0
2, 126150, Note_on_c, 0, 76, 0
2, 126197, Note_on_c, 0, 47, 62
2, 126199, Note_on_c, 0, 71, 68
2, 126199, Note_on_c, 0, 83, 69
2, 126205, Note_on_c, 0, 51, 60
2, 126205, Note_on_c, 0, 54, 61
2, 126205, Note_on_c, 0, 59, 61
2, 126218, Note_on_c, 0, 47, 0
2, 126220, Note_on_c, 0, 71, 0
2, 126223, Note_on_c, 0, 54, 0
2, 126225, Note_on_c, 0, 51, 0
2, 126225, Note_on_c, 0, 59, 0
2, 126227, Note_on_c, 0, 83, 0
2, 126279, Note_on_c, 0, 75, 70
2, 126281, Note_on_c, 0, 87, 67
2, 126301, Note_on_c, 0, 87, 0
2, 126301, Note_on_c, 0, 75, 0
2, 126322, Control_c, 0, 64, 127
2, 126400, Note_on_c, 0, 54, 72
2, 126400, Note_on_c, 0, 58, 73
2, 126400, Note_on_c, 0, 61, 77
2, 126402, Note_on_c, 0, 66, 82
2, 126402, Note_on_c, 0, 73, 81
2, 126402, Note_on_c, 0, 78, 85
2, 126402, Note_on_c, 0, 82, 83
2, 126402, Note_on_c, 0, 85, 85
2, 126433, Note_on_c, 0, 82, 0
2, 126433, Note_on_c, 0, 78, 0
2, 126433, Note_on_c, 0, 73, 0
2, 126435, Control_c, 0, 64, 0
2, 126444, Note_on_c, 0, 58, 0
2, 126444, Note_on_c, 0, 54, 0
2, 126446, Note_on_c, 0, 66, 0
2, 126446, Note_on_c, 0, 61, 0
2, 126448, Note_on_c, 0, 85, 0
2, 126696, Note_on_c, 0, 66, 62
2, 126727, Note_on_c, 0, 68, 67
2, 126729, Note_on_c, 0, 66, 0
2, 126755, Note_on_c, 0, 68, 0
2, 126766, Note_on_c, 0, 70, 60
2, 126804, Note_on_c, 0, 70, 0
2, 126806, Note_on_c, 0, 32, 78
2, 126808, Note_on_c, 0, 39, 71
2, 126811, Note_on_c, 0, 44, 76
2, 126811, Note_on_c, 0, 59, 77
2, 126811, Note_on_c, 0, 63, 78
2, 126811, Note_on_c, 0, 68, 78
2, 126811, Note_on_c, 0, 71, 81
2, 126863, Control_c, 0, 64, 127
2, 127105, Note_on_c, 0, 71, 0
2, 127144, Note_on_c, 0, 44, 0
2, 127162, Control_c, 0, 64, 0
2, 127182, Note_on_c, 0, 32, 0
2, 127184, Note_on_c, 0, 59, 0
2, 127184, Note_on_c, 0, 39, 0
2, 127184, Note_on_c, 0, 68, 0
2, 127184, Note_on_c, 0, 63, 0
2, 127189, Note_on_c, 0, 44, 79
2, 127189, Note_on_c, 0, 51, 80
2, 127189, Note_on_c, 0, 56, 78
2, 127192, Note_on_c, 0, 71, 73
2, 127192, Note_on_c, 0, 75, 74
2, 127192, Note_on_c, 0, 80, 72
2, 127192, Note_on_c, 0, 83, 76
2, 127262, Note_on_c, 0, 71, 0
2, 127262, Note_on_c, 0, 56, 0
2, 127262, Note_on_c, 0, 44, 0
2, 127262, Note_on_c, 0, 51, 0
2, 127264, Note_on_c, 0, 83, 0
2, 127264, Note_on_c, 0, 75, 0
2, 127264, Note_on_c, 0, 80, 0
2, 127390, Note_on_c, 0, 74, 50
2, 127405, Note_on_c, 0, 75, 50
2, 127411, Note_on_c, 0, 74, 0
2, 127416, Note_on_c, 0, 75, 0
2, 127429, Note_on_c, 0, 77, 86
2, 127452, Note_on_c, 0, 27, 91
2, 127452, Note_on_c, 0, 34, 85
2, 127452, Note_on_c, 0, 39, 87
2, 127454, Note_on_c, 0, 66, 90
2, 127454, Note_on_c, 0, 70, 86
2, 127454, Note_on_c, 0, 75, 84
2, 127454, Note_on_c, 0, 78, 88
2, 127462, Note_on_c, 0, 77, 0
2, 127517, Control_c, 0, 64, 127
2, 127716, Note_on_c, 0, 78, 0
2, 127786, Control_c, 0, 64, 0
2, 127795, Note_on_c, 0, 66, 0
2, 127795, Note_on_c, 0, 27, 0
2, 127795, Note_on_c, 0, 34, 0
2, 127797, Note_on_c, 0, 39, 0
2, 127797, Note_on_c, 0, 75, 0
2, 127797, Note_on_c, 0, 70, 0
2, 127802, Note_on_c, 0, 51, 83
2, 127802, Note_on_c, 0, 54, 81
2, 127802, Note_on_c, 0, 58, 81
2, 127802, Note_on_c, 0, 63, 77
2, 127802, Note_on_c, 0, 78, 80
2, 127802, Note_on_c, 0, 90, 78
2, 127854, Note_on_c, 0, 63, 0
2, 127854, Note_on_c, 0, 58, 0
2, 127854, Note_on_c, 0, 54, 0
2, 127857, Note_on_c, 0, 51, 0
2, 127857, Note_on_c, 0, 78, 0
2, 127857, Note_on_c, 0, 90, 0
2, 127896, Note_on_c, 0, 25, 60
2, 127920, Note_on_c, 0, 89, 47
2, 127935, Note_on_c, 0, 90, 53
2, 127948, Note_on_c, 0, 89, 0
2, 127953, Note_on_c, 0, 92, 47
2, 127967, Note_on_c, 0, 90, 0
2, 127967, Note_on_c, 0, 25, 0
2, 127971, Note_on_c, 0, 37, 72
2, 127973, Note_on_c, 0, 82, 81
2, 127973, Note_on_c, 0, 94, 82
2, 127986, Note_on_c, 0, 92, 0
2, 127992, Note_on_c, 0, 37, 0
2, 127992, Note_on_c, 0, 82, 0
2, 127992, Note_on_c, 0, 94, 0
2, 128077, Note_on_c, 0, 80, 73
2, 128077, Note_on_c, 0, 92, 71
2, 128098, Note_on_c, 0, 92, 0
2, 128098, Note_on_c, 0, 80, 0
2, 128145, Note_on_c, 0, 54, 55
2, 128145, Note_on_c, 0, 58, 57
2, 128145, Note_on_c, 0, 61, 55
2, 128145, Note_on_c, 0, 66, 71
2, 128145, Note_on_c, 0, 78, 67
2, 128145, Note_on_c, 0, 90, 73
2, 128166, Note_on_c, 0, 78, 0
2, 128168, Note_on_c, 0, 90, 0
2, 128171, Note_on_c, 0, 54, 0
2, 128171, Note_on_c, 0, 61, 0
2, 128171, Note_on_c, 0, 58, 0
2, 128173, Note_on_c, 0, 66, 0
2, 128217, Note_on_c, 0, 82, 62
2, 128217, Note_on_c, 0, 94, 65
2, 128240, Note_on_c, 0, 94, 0
2, 128240, Note_on_c, 0, 82, 0
2, 128290, Note_on_c, 0, 49, 57
2, 128290, Note_on_c, 0, 56, 60
2, 128290, Note_on_c, 0, 59, 61
2, 128290, Note_on_c, 0, 77, 69
2, 128290, Note_on_c, 0, 89, 71
2, 128308, Note_on_c, 0, 56, 0
2, 128310, Note_on_c, 0, 77, 0
2, 128310, Note_on_c, 0, 49, 0
2, 128310, Note_on_c, 0, 59, 0
2, 128310, Note_on_c, 0, 89, 0
2, 128368, Note_on_c, 0, 42, 53
2, 128368, Note_on_c, 0, 80, 69
2, 128368, Note_on_c, 0, 92, 69
2, 128383, Control_c, 0, 64, 127
2, 128414, Note_on_c, 0, 92, 0
2, 128420, Note_on_c, 0, 42, 0
2, 128423, Note_on_c, 0, 49, 56
2, 128424, Note_on_c, 0, 80, 0
2, 128430, Note_on_c, 0, 90, 56
2, 128446, Note_on_c, 0, 90, 0
2, 128448, Note_on_c, 0, 92, 59
2, 128451, Note_on_c, 0, 49, 0
2, 128454, Note_on_c, 0, 58, 78
2, 128462, Control_c, 0, 64, 0
2, 128467, Note_on_c, 0, 90, 76
2, 128469, Note_on_c, 0, 78, 75
2, 128471, Note_on_c, 0, 92, 0
2, 128489, Note_on_c, 0, 58, 0
2, 128489, Note_on_c, 0, 90, 0
2, 128489, Note_on_c, 0, 78, 0
2, 128580, Note_on_c, 0, 77, 74
2, 128580, Note_on_c, 0, 89, 72
2, 128607, Note_on_c, 0, 89, 0
2, 128607, Note_on_c, 0, 77, 0
2, 128709, Control_c, 0, 64, 127
2, 128713, Note_on_c, 0, 85, 82
2, 128713, Note_on_c, 0, 90, 77
2, 128715, Note_on_c, 0, 54, 69
2, 128715, Note_on_c, 0, 58, 66
2, 128715, Note_on_c, 0, 61, 69
2, 128715, Note_on_c, 0, 66, 78
2, 128715, Note_on_c, 0, 78, 80
2, 128715, Note_on_c, 0, 82, 78
2, 128744, Note_on_c, 0, 82, 0
2, 128744, Note_on_c, 0, 78, 0
2, 128744, Note_on_c, 0, 85, 0
2, 128744, Note_on_c, 0, 90, 0
2, 128768, Note_on_c, 0, 61, 0
2, 128768, Note_on_c, 0, 58, 0
2, 128768, Note_on_c, 0, 54, 0
2, 128770, Note_on_c, 0, 66, 0
2, 128788, Control_c, 0, 64, 0
2, 129084, Note_on_c, 0, 61, 60
2, 129086, Note_on_c, 0, 37, 59
2, 129117, Note_on_c, 0, 39, 66
2, 129117, Note_on_c, 0, 63, 65
2, 129138, Note_on_c, 0, 37, 0
2, 129138, Note_on_c, 0, 61, 0
2, 129150, Note_on_c, 0, 41, 62
2, 129150, Note_on_c, 0, 65, 75
2, 129166, Note_on_c, 0, 63, 0
2, 129168, Note_on_c, 0, 39, 0
2, 129204, Note_on_c, 0, 41, 0
2, 129204, Note_on_c, 0, 65, 0
2, 129209, Note_on_c, 0, 42, 71
2, 129209, Note_on_c, 0, 54, 69
2, 129209, Note_on_c, 0, 66, 74
2, 129211, Note_on_c, 0, 30, 68
2, 129278, Control_c, 0, 64, 127
2, 129521, Note_on_c, 0, 54, 0
2, 129523, Note_on_c, 0, 42, 0
2, 129523, Note_on_c, 0, 66, 0
2, 129573, Control_c, 0, 64, 0
2, 129601, Note_on_c, 0, 30, 0
2, 129604, Note_on_c, 0, 54, 68
2, 129604, Note_on_c, 0, 66, 70
2, 129604, Note_on_c, 0, 78, 72
2, 129606, Note_on_c, 0, 42, 66
2, 129695, Note_on_c, 0, 78, 0
2, 129695, Note_on_c, 0, 54, 0
2, 129695, Note_on_c, 0, 66, 0
2, 129696, Note_on_c, 0, 42, 0
2, 129807, Note_on_c, 0, 73, 58
2, 129813, Note_on_c, 0, 74, 54
2, 129825, Note_on_c, 0, 76, 59
2, 129833, Note_on_c, 0, 74, 0
2, 129833, Note_on_c, 0, 73, 0
2, 129853, Note_on_c, 0, 76, 0
2, 129858, Note_on_c, 0, 74, 81
2, 129858, Note_on_c, 0, 78, 84
2, 129860, Note_on_c, 0, 66, 84
2, 129860, Note_on_c, 0, 69, 82
2, 129872, Note_on_c, 0, 26, 72
2, 129872, Note_on_c, 0, 38, 78
2, 129951, Control_c, 0, 64, 127
2, 130119, Note_on_c, 0, 78, 0
2, 130169, Control_c, 0, 64, 0
2, 130196, Note_on_c, 0, 26, 0
2, 130196, Note_on_c, 0, 69, 0
2, 130196, Note_on_c, 0, 74, 0
2, 130196, Note_on_c, 0, 66, 0
2, 130198, Note_on_c, 0, 38, 0
2, 130202, Note_on_c, 0, 50, 78
2, 130202, Note_on_c, 0, 62, 71
2, 130202, Note_on_c, 0, 78, 71
2, 130202, Note_on_c, 0, 90, 72
2, 130236, Note_on_c, 0, 90, 0
2, 130236, Note_on_c, 0, 78, 0
2, 130242, Note_on_c, 0, 62, 0
2, 130244, Note_on_c, 0, 50, 0
2, 130307, Note_on_c, 0, 33, 66
2, 130349, Note_on_c, 0, 88, 47
2, 130351, Control_c, 0, 64, 127
2, 130362, Note_on_c, 0, 90, 42
2, 130370, Note_on_c, 0, 88, 0
2, 130375, Note_on_c, 0, 91, 45
2, 130389, Note_on_c, 0, 90, 0
2, 130391, Note_on_c, 0, 33, 0
2, 130392, Note_on_c, 0, 93, 77
2, 130394, Note_on_c, 0, 45, 61
2, 130394, Note_on_c, 0, 81, 78
2, 130408, Note_on_c, 0, 91, 0
2, 130414, Note_on_c, 0, 93, 0
2, 130414, Note_on_c, 0, 81, 0
2, 130416, Note_on_c, 0, 45, 0
2, 130432, Control_c, 0, 64, 0
2, 130476, Note_on_c, 0, 91, 69
2, 130478, Note_on_c, 0, 79, 73
2, 130496, Note_on_c, 0, 91, 0
2, 130496, Note_on_c, 0, 57, 54
2, 130498, Note_on_c, 0, 79, 0
2, 130529, Note_on_c, 0, 66, 70
2, 130531, Note_on_c, 0, 57, 0
2, 130549, Note_on_c, 0, 78, 66
2, 130549, Note_on_c, 0, 90, 68
2, 130557, Note_on_c, 0, 69, 44
2, 130559, Note_on_c, 0, 66, 0
2, 130571, Note_on_c, 0, 90, 0
2, 130573, Note_on_c, 0, 78, 0
2, 130589, Note_on_c, 0, 69, 0
2, 130621, Note_on_c, 0, 81, 64
2, 130621, Note_on_c, 0, 93, 63
2, 130641, Note_on_c, 0, 93, 0
2, 130641, Note_on_c, 0, 81, 0
2, 130646, Note_on_c, 0, 57, 58
2, 130673, Note_on_c, 0, 57, 0
2, 130679, Note_on_c, 0, 64, 53
2, 130691, Note_on_c, 0, 67, 70
2, 130691, Note_on_c, 0, 76, 65
2, 130691, Note_on_c, 0, 88, 70
2, 130699, Note_on_c, 0, 64, 0
2, 130711, Note_on_c, 0, 88, 0
2, 130713, Note_on_c, 0, 76, 0
2, 130731, Note_on_c, 0, 67, 0
2, 130763, Note_on_c, 0, 79, 63
2, 130763, Note_on_c, 0, 91, 62
2, 130783, Note_on_c, 0, 91, 0
2, 130783, Note_on_c, 0, 79, 0
2, 130794, Note_on_c, 0, 57, 60
2, 130814, Note_on_c, 0, 57, 0
2, 130820, Note_on_c, 0, 62, 54
2, 130833, Note_on_c, 0, 74, 77
2, 130833, Note_on_c, 0, 86, 78
2, 130838, Note_on_c, 0, 62, 0
2, 130838, Note_on_c, 0, 66, 42
2, 130853, Note_on_c, 0, 86, 0
2, 130853, Note_on_c, 0, 74, 0
2, 130867, Note_on_c, 0, 66, 0
2, 130911, Note_on_c, 0, 78, 74
2, 130911, Note_on_c, 0, 90, 76
2, 130932, Note_on_c, 0, 90, 0
2, 130932, Note_on_c, 0, 78, 0
2, 130950, Note_on_c, 0, 57, 60
2, 130953, Control_c, 0, 64, 127
2, 130974, Note_on_c, 0, 61, 57
2, 131006, Note_on_c, 0, 64, 64
2, 131006, Note_on_c, 0, 85, 81
2, 131006, Note_on_c, 0, 88, 79
2, 131008, Note_on_c, 0, 76, 84
2, 131008, Note_on_c, 0, 81, 80
2, 131020, Note_on_c, 0, 57, 0
2, 131022, Note_on_c, 0, 61, 0
2, 131027, Note_on_c, 0, 64, 0
2, 131027, Note_on_c, 0, 88, 0
2, 131027, Note_on_c, 0, 85, 0
2, 131027, Note_on_c, 0, 81, 0
2, 131027, Note_on_c, 0, 76, 0
2, 131040, Control_c, 0, 64, 0
2, 131288, Note_on_c, 0, 40, 63
2, 131288, Note_on_c, 0, 64, 66
2, 131317, Note_on_c, 0, 64, 0
2, 131320, Note_on_c, 0, 40, 0
2, 131325, Note_on_c, 0, 42, 61
2, 131325, Note_on_c, 0, 66, 65
2, 131352, Note_on_c, 0, 66, 0
2, 131352, Note_on_c, 0, 42, 0
2, 131354, Note_on_c, 0, 44, 63
2, 131354, Note_on_c, 0, 68, 62
2, 131378, Note_on_c, 0, 68, 0
2, 131381, Note_on_c, 0, 44, 0
2, 131384, Note_on_c, 0, 33, 79
2, 131384, Note_on_c, 0, 45, 78
2, 131384, Note_on_c, 0, 57, 84
2, 131384, Note_on_c, 0, 69, 82
2, 131428, Control_c, 0, 64, 127
2, 131661, Note_on_c, 0, 69, 0
2, 131699, Note_on_c, 0, 57, 0
2, 131702, Note_on_c, 0, 45, 0
2, 131726, Control_c, 0, 64, 0
2, 131738, Note_on_c, 0, 33, 0
2, 131746, Note_on_c, 0, 45, 75
2, 131746, Note_on_c, 0, 57, 73
2, 131746, Note_on_c, 0, 69, 78
2, 131746, Note_on_c, 0, 81, 74
2, 131773, Note_on_c, 0, 81, 0
2, 131773, Note_on_c, 0, 45, 0
2, 131773, Note_on_c, 0, 57, 0
2, 131773, Note_on_c, 0, 69, 0
2, 131932, Note_on_c, 0, 77, 66
2, 131946, Note_on_c, 0, 78, 64
2, 131961, Note_on_c, 0, 78, 0
2, 131967, Note_on_c, 0, 77, 0
2, 131967, Note_on_c, 0, 80, 65
2, 131991, Note_on_c, 0, 30, 93
2, 131991, Note_on_c, 0, 37, 91
2, 131991, Note_on_c, 0, 42, 89
2, 131991, Note_on_c, 0, 70, 89
2, 131991, Note_on_c, 0, 73, 92
2, 131991, Note_on_c, 0, 78, 86
2, 131991, Note_on_c, 0, 82, 87
2, 131993, Note_on_c, 0, 80, 0
2, 132067, Control_c, 0, 64, 127
2, 132195, Note_on_c, 0, 82, 0
2, 132251, Control_c, 0, 64, 0
2, 132259, Note_on_c, 0, 30, 0
2, 132259, Note_on_c, 0, 37, 0
2, 132259, Note_on_c, 0, 42, 0
2, 132259, Note_on_c, 0, 70, 0
2, 132259, Note_on_c, 0, 73, 0
2, 132261, Note_on_c, 0, 78, 0
2, 132269, Note_on_c, 0, 54, 88
2, 132269, Note_on_c, 0, 94, 90
2, 132272, Note_on_c, 0, 66, 85
2, 132272, Note_on_c, 0, 82, 91
2, 132296, Note_on_c, 0, 82, 0
2, 132296, Note_on_c, 0, 66, 0
2, 132296, Note_on_c, 0, 54, 0
2, 132304, Note_on_c, 0, 94, 0
2, 132351, Note_on_c, 0, 27, 70
2, 132395, Note_on_c, 0, 90, 54
2, 132410, Note_on_c, 0, 92, 60
2, 132424, Note_on_c, 0, 90, 0
2, 132430, Note_on_c, 0, 94, 61
2, 132435, Note_on_c, 0, 27, 0
2, 132440, Note_on_c, 0, 39, 82
2, 132440, Note_on_c, 0, 83, 84
2, 132440, Note_on_c, 0, 95, 85
2, 132442, Note_on_c, 0, 92, 0
2, 132456, Note_on_c, 0, 94, 0
2, 132461, Note_on_c, 0, 83, 0
2, 132461, Note_on_c, 0, 39, 0
2, 132467, Note_on_c, 0, 95, 0
2, 132549, Note_on_c, 0, 78, 73
2, 132549, Note_on_c, 0, 90, 74
2, 132567, Note_on_c, 0, 90, 0
2, 132567, Note_on_c, 0, 78, 0
2, 132616, Note_on_c, 0, 54, 81
2, 132619, Note_on_c, 0, 51, 86
2, 132619, Note_on_c, 0, 59, 84
2, 132621, Note_on_c, 0, 76, 73
2, 132621, Note_on_c, 0, 88, 76
2, 132639, Note_on_c, 0, 88, 0
2, 132639, Note_on_c, 0, 59, 0
2, 132639, Note_on_c, 0, 54, 0
2, 132639, Note_on_c, 0, 51, 0
2, 132639, Note_on_c, 0, 76, 0
2, 132696, Note_on_c, 0, 75, 77
2, 132696, Note_on_c, 0, 87, 74
2, 132717, Note_on_c, 0, 40, 86
2, 132719, Note_on_c, 0, 87, 0
2, 132719, Note_on_c, 0, 75, 0
2, 132742, Control_c, 0, 64, 127
2, 132755, Note_on_c, 0, 49, 91
2, 132771, Note_on_c, 0, 56, 93
2, 132773, Note_on_c, 0, 73, 79
2, 132773, Note_on_c, 0, 85, 75
2, 132813, Note_on_c, 0, 85, 0
2, 132813, Note_on_c, 0, 73, 0
2, 132823, Note_on_c, 0, 56, 0
2, 132825, Note_on_c, 0, 49, 0
2, 132825, Note_on_c, 0, 40, 0
2, 132836, Control_c, 0, 64, 0
2, 132848, Note_on_c, 0, 42, 73
2, 132850, Note_on_c, 0, 68, 75
2, 132850, Note_on_c, 0, 80, 79
2, 132876, Note_on_c, 0, 49, 74
2, 132882, Note_on_c, 0, 42, 0
2, 132890, Note_on_c, 0, 68, 0
2, 132892, Note_on_c, 0, 80, 0
2, 132895, Note_on_c, 0, 49, 0
2, 132895, Note_on_c, 0, 52, 74
2, 132916, Note_on_c, 0, 52, 0
2, 132930, Note_on_c, 0, 61, 80
2, 132935, Note_on_c, 0, 71, 93
2, 132936, Note_on_c, 0, 83, 87
2, 132949, Note_on_c, 0, 61, 0
2, 132958, Note_on_c, 0, 83, 0
2, 132958, Note_on_c, 0, 71, 0
2, 133055, Note_on_c, 0, 70, 86
2, 133055, Note_on_c, 0, 82, 81
2, 133083, Note_on_c, 0, 82, 0
2, 133083, Note_on_c, 0, 70, 0
2, 133165, Control_c, 0, 64, 127
2, 133207, Note_on_c, 0, 47, 75
2, 133207, Note_on_c, 0, 51, 74
2, 133207, Note_on_c, 0, 54, 77
2, 133209, Note_on_c, 0, 59, 76
2, 133209, Note_on_c, 0, 71, 84
2, 133209, Note_on_c, 0, 75, 86
2, 133209, Note_on_c, 0, 83, 85
2, 133211, Note_on_c, 0, 78, 85
2, 133248, Note_on_c, 0, 71, 0
2, 133250, Note_on_c, 0, 54, 0
2, 133250, Note_on_c, 0, 47, 0
2, 133250, Note_on_c, 0, 51, 0
2, 133252, Note_on_c, 0, 59, 0
2, 133252, Note_on_c, 0, 75, 0
2, 133258, Note_on_c, 0, 83, 0
2, 133258, Note_on_c, 0, 78, 0
2, 133321, Control_c, 0, 64, 0
2, 133581, Note_on_c, 0, 37, 81
2, 133581, Note_on_c, 0, 61, 75
2, 133609, Note_on_c, 0, 39, 81
2, 133612, Note_on_c, 0, 63, 77
2, 133629, Note_on_c, 0, 37, 0
2, 133632, Note_on_c, 0, 61, 0
2, 133655, Note_on_c, 0, 41, 83
2, 133656, Note_on_c, 0, 39, 0
2, 133656, Note_on_c, 0, 63, 0
2, 133656, Note_on_c, 0, 65, 88
2, 133702, Note_on_c, 0, 65, 0
2, 133702, Note_on_c, 0, 41, 0
2, 133707, Note_on_c, 0, 30, 100
2, 133707, Note_on_c, 0, 42, 94
2, 133707, Note_on_c, 0, 54, 99
2, 133709, Note_on_c, 0, 66, 96
2, 133752, Control_c, 0, 64, 127
2, 134025, Note_on_c, 0, 42, 0
2, 134030, Note_on_c, 0, 66, 0
2, 134046, Note_on_c, 0, 54, 0
2, 134088, Control_c, 0, 64, 0
2, 134112, Note_on_c, 0, 30, 0
2, 134119, Note_on_c, 0, 42, 76
2, 134119, Note_on_c, 0, 54, 77
2, 134121, Note_on_c, 0, 66, 84
2, 134121, Note_on_c, 0, 78, 89
2, 134153, Note_on_c, 0, 66, 0
2, 134153, Note_on_c, 0, 42, 0
2, 134153, Note_on_c, 0, 54, 0
2, 134155, Note_on_c, 0, 78, 0
2, 134312, Note_on_c, 0, 73, 54
2, 134326, Note_on_c, 0, 74, 60
2, 134334, Note_on_c, 0, 73, 0
2, 134339, Note_on_c, 0, 76, 58
2, 134347, Note_on_c, 0, 74, 0
2, 134367, Note_on_c, 0, 76, 0
2, 134370, Note_on_c, 0, 66, 96
2, 134370, Note_on_c, 0, 69, 97
2, 134372, Note_on_c, 0, 74, 92
2, 134372, Note_on_c, 0, 78, 90
2, 134375, Note_on_c, 0, 26, 97
2, 134375, Note_on_c, 0, 33, 90
2, 134376, Note_on_c, 0, 38, 94
2, 134436, Control_c, 0, 64, 127
2, 134627, Note_on_c, 0, 78, 0
2, 134682, Control_c, 0, 64, 0
2, 134697, Note_on_c, 0, 26, 0
2, 134697, Note_on_c, 0, 33, 0
2, 134699, Note_on_c, 0, 38, 0
2, 134704, Note_on_c, 0, 50, 80
2, 134704, Note_on_c, 0, 57, 79
2, 134707, Note_on_c, 0, 62, 84
2, 134715, Note_on_c, 0, 66, 0
2, 134715, Note_on_c, 0, 74, 0
2, 134715, Note_on_c, 0, 69, 0
2, 134715, Note_on_c, 0, 78, 71
2, 134715, Note_on_c, 0, 90, 72
2, 134739, Note_on_c, 0, 50, 0
2, 134739, Note_on_c, 0, 62, 0
2, 134739, Note_on_c, 0, 57, 0
2, 134762, Note_on_c, 0, 78, 0
2, 134764, Note_on_c, 0, 90, 0
2, 134799, Note_on_c, 0, 33, 59
2, 134864, Note_on_c, 0, 88, 54
2, 134870, Note_on_c, 0, 90, 54
2, 134888, Note_on_c, 0, 91, 52
2, 134890, Note_on_c, 0, 88, 0
2, 134899, Note_on_c, 0, 33, 0
2, 134904, Note_on_c, 0, 90, 0
2, 134906, Note_on_c, 0, 45, 67
2, 134908, Note_on_c, 0, 81, 78
2, 134910, Note_on_c, 0, 93, 78
2, 134926, Note_on_c, 0, 91, 0
2, 134928, Note_on_c, 0, 45, 0
2, 134932, Note_on_c, 0, 81, 0
2, 134940, Note_on_c, 0, 93, 0
2, 135029, Note_on_c, 0, 79, 67
2, 135031, Note_on_c, 0, 91, 66
2, 135051, Note_on_c, 0, 79, 0
2, 135053, Note_on_c, 0, 91, 0
2, 135114, Note_on_c, 0, 57, 55
2, 135114, Note_on_c, 0, 66, 66
2, 135116, Note_on_c, 0, 69, 60
2, 135118, Note_on_c, 0, 78, 59
2, 135118, Note_on_c, 0, 90, 59
2, 135134, Note_on_c, 0, 57, 0
2, 135136, Note_on_c, 0, 78, 0
2, 135136, Note_on_c, 0, 66, 0
2, 135136, Note_on_c, 0, 69, 0
2, 135138, Note_on_c, 0, 90, 0
2, 135192, Note_on_c, 0, 81, 60
2, 135194, Note_on_c, 0, 93, 64
2, 135213, Note_on_c, 0, 81, 0
2, 135215, Note_on_c, 0, 93, 0
2, 135260, Note_on_c, 0, 57, 66
2, 135260, Note_on_c, 0, 64, 60
2, 135260, Note_on_c, 0, 67, 65
2, 135262, Note_on_c, 0, 76, 71
2, 135262, Note_on_c, 0, 88, 69
2, 135278, Note_on_c, 0, 67, 0
2, 135278, Note_on_c, 0, 57, 0
2, 135278, Note_on_c, 0, 64, 0
2, 135280, Note_on_c, 0, 76, 0
2, 135282, Note_on_c, 0, 88, 0
2, 135329, Note_on_c, 0, 79, 68
2, 135329, Note_on_c, 0, 91, 69
2, 135350, Note_on_c, 0, 79, 0
2, 135352, Note_on_c, 0, 91, 0
2, 135407, Note_on_c, 0, 57, 62
2, 135407, Note_on_c, 0, 62, 66
2, 135407, Note_on_c, 0, 66, 77
2, 135408, Note_on_c, 0, 74, 74
2, 135408, Note_on_c, 0, 86, 73
2, 135425, Note_on_c, 0, 62, 0
2, 135425, Note_on_c, 0, 57, 0
2, 135428, Note_on_c, 0, 74, 0
2, 135428, Note_on_c, 0, 66, 0
2, 135430, Note_on_c, 0, 86, 0
2, 135479, Note_on_c, 0, 78, 78
2, 135480, Note_on_c, 0, 90, 74
2, 135499, Note_on_c, 0, 78, 0
2, 135506, Note_on_c, 0, 90, 0
2, 135511, Control_c, 0, 64, 127
2, 135578, Note_on_c, 0, 57, 59
2, 135580, Note_on_c, 0, 61, 61
2, 135580, Note_on_c, 0, 64, 60
2, 135582, Note_on_c, 0, 76, 79
2, 135582, Note_on_c, 0, 81, 83
2, 135582, Note_on_c, 0, 85, 80
2, 135582, Note_on_c, 0, 88, 78
2, 135584, Control_c, 0, 64, 0
2, 135607, Note_on_c, 0, 64, 0
2, 135607, Note_on_c, 0, 57, 0
2, 135607, Note_on_c, 0, 61, 0
2, 135609, Note_on_c, 0, 81, 0
2, 135609, Note_on_c, 0, 85, 0
2, 135617, Note_on_c, 0, 76, 0
2, 135617, Note_on_c, 0, 88, 0
2, 135847, Note_on_c, 0, 40, 67
2, 135849, Note_on_c, 0, 64, 63
2, 135878, Note_on_c, 0, 42, 67
2, 135880, Note_on_c, 0, 40, 0
2, 135880, Note_on_c, 0, 66, 67
2, 135883, Note_on_c, 0, 64, 0
2, 135912, Note_on_c, 0, 42, 0
2, 135913, Note_on_c, 0, 66, 0
2, 135913, Note_on_c, 0, 68, 69
2, 135916, Note_on_c, 0, 44, 62
2, 135947, Note_on_c, 0, 33, 76
2, 135949, Note_on_c, 0, 45, 77
2, 135951, Note_on_c, 0, 57, 77
2, 135953, Note_on_c, 0, 69, 83
2, 135963, Note_on_c, 0, 44, 0
2, 135965, Note_on_c, 0, 68, 0
2, 136057, Control_c, 0, 64, 127
2, 136215, Note_on_c, 0, 45, 0
2, 136217, Note_on_c, 0, 69, 0
2, 136238, Note_on_c, 0, 57, 0
2, 136288, Control_c, 0, 64, 0
2, 136296, Note_on_c, 0, 33, 0
2, 136302, Note_on_c, 0, 45, 78
2, 136304, Note_on_c, 0, 57, 72
2, 136306, Note_on_c, 0, 69, 78
2, 136306, Note_on_c, 0, 81, 82
2, 136324, Note_on_c, 0, 45, 0
2, 136326, Note_on_c, 0, 57, 0
2, 136326, Note_on_c, 0, 69, 0
2, 136334, Note_on_c, 0, 81, 0
2, 136446, Note_on_c, 0, 77, 53
2, 136466, Note_on_c, 0, 77, 0
2, 136472, Note_on_c, 0, 78, 54
2, 136486, Note_on_c, 0, 78, 0
2, 136499, Note_on_c, 0, 80, 56
2, 136517, Note_on_c, 0, 80, 0
2, 136519, Note_on_c, 0, 37, 83
2, 136519, Note_on_c, 0, 42, 87
2, 136521, Note_on_c, 0, 73, 87
2, 136523, Note_on_c, 0, 78, 85
2, 136525, Note_on_c, 0, 30, 87
2, 136525, Note_on_c, 0, 82, 87
2, 136528, Note_on_c, 0, 70, 87
2, 136580, Control_c, 0, 64, 127
2, 136804, Note_on_c, 0, 82, 0
2, 136823, Control_c, 0, 64, 0
2, 136839, Note_on_c, 0, 42, 0
2, 136839, Note_on_c, 0, 37, 0
2, 136839, Note_on_c, 0, 30, 0
2, 136842, Note_on_c, 0, 73, 0
2, 136842, Note_on_c, 0, 70, 0
2, 136844, Note_on_c, 0, 78, 0
2, 136846, Note_on_c, 0, 54, 84
2, 136848, Note_on_c, 0, 66, 83
2, 136850, Note_on_c, 0, 82, 84
2, 136852, Note_on_c, 0, 94, 83
2, 136879, Note_on_c, 0, 54, 0
2, 136884, Note_on_c, 0, 66, 0
2, 136892, Note_on_c, 0, 82, 0
2, 136895, Note_on_c, 0, 94, 0
2, 136923, Note_on_c, 0, 27, 66
2, 136993, Note_on_c, 0, 90, 51
2, 137007, Note_on_c, 0, 92, 52
2, 137016, Note_on_c, 0, 90, 0
2, 137020, Note_on_c, 0, 27, 0
2, 137020, Note_on_c, 0, 94, 48
2, 137028, Note_on_c, 0, 39, 74
2, 137030, Note_on_c, 0, 92, 0
2, 137033, Note_on_c, 0, 83, 47
2, 137033, Note_on_c, 0, 95, 51
2, 137043, Note_on_c, 0, 94, 0
2, 137048, Note_on_c, 0, 39, 0
2, 137053, Note_on_c, 0, 83, 0
2, 137061, Note_on_c, 0, 95, 0
2, 137136, Note_on_c, 0, 78, 70
2, 137138, Note_on_c, 0, 90, 66
2, 137157, Note_on_c, 0, 78, 0
2, 137159, Note_on_c, 0, 90, 0
2, 137208, Note_on_c, 0, 54, 66
2, 137209, Note_on_c, 0, 51, 62
2, 137211, Note_on_c, 0, 59, 61
2, 137213, Note_on_c, 0, 76, 67
2, 137213, Note_on_c, 0, 88, 73
2, 137232, Note_on_c, 0, 59, 0
2, 137232, Note_on_c, 0, 54, 0
2, 137232, Note_on_c, 0, 51, 0
2, 137234, Note_on_c, 0, 76, 0
2, 137236, Note_on_c, 0, 88, 0
2, 137296, Note_on_c, 0, 40, 62
2, 137299, Note_on_c, 0, 75, 72
2, 137301, Note_on_c, 0, 87, 72
2, 137317, Note_on_c, 0, 40, 0
2, 137320, Note_on_c, 0, 75, 0
2, 137322, Note_on_c, 0, 87, 0
2, 137342, Note_on_c, 0, 49, 77
2, 137369, Note_on_c, 0, 49, 0
2, 137375, Note_on_c, 0, 56, 78
2, 137377, Note_on_c, 0, 73, 72
2, 137377, Note_on_c, 0, 85, 70
2, 137396, Note_on_c, 0, 73, 0
2, 137399, Note_on_c, 0, 85, 0
2, 137400, Note_on_c, 0, 56, 0
2, 137452, Note_on_c, 0, 68, 73
2, 137454, Note_on_c, 0, 80, 70
2, 137456, Note_on_c, 0, 42, 65
2, 137461, Control_c, 0, 64, 127
2, 137473, Note_on_c, 0, 68, 0
2, 137475, Note_on_c, 0, 80, 0
2, 137491, Note_on_c, 0, 49, 67
2, 137512, Note_on_c, 0, 52, 69
2, 137556, Note_on_c, 0, 49, 0
2, 137561, Note_on_c, 0, 42, 0
2, 137563, Note_on_c, 0, 52, 0
2, 137563, Note_on_c, 0, 61, 70
2, 137563, Note_on_c, 0, 71, 85
2, 137565, Note_on_c, 0, 83, 86
2, 137572, Control_c, 0, 64, 0
2, 137585, Note_on_c, 0, 71, 0
2, 137590, Note_on_c, 0, 61, 0
2, 137592, Note_on_c, 0, 83, 0
2, 137710, Note_on_c, 0, 70, 84
2, 137710, Note_on_c, 0, 82, 80
2, 137728, Note_on_c, 0, 70, 0
2, 137736, Note_on_c, 0, 82, 0
2, 137896, Control_c, 0, 64, 127
2, 137909, Note_on_c, 0, 47, 82
2, 137909, Note_on_c, 0, 51, 77
2, 137909, Note_on_c, 0, 54, 77
2, 137911, Note_on_c, 0, 59, 80
2, 137911, Note_on_c, 0, 71, 88
2, 137913, Note_on_c, 0, 75, 90
2, 137913, Note_on_c, 0, 78, 94
2, 137913, Note_on_c, 0, 83, 91
2, 138127, Note_on_c, 0, 54, 0
2, 138127, Note_on_c, 0, 51, 0
2, 138130, Note_on_c, 0, 75, 0
2, 138141, Note_on_c, 0, 78, 0
2, 138174, Note_on_c, 0, 59, 0
2, 138174, Note_on_c, 0, 71, 0
2, 138188, Control_c, 0, 64, 0
2, 138230, Note_on_c, 0, 47, 0
2, 138233, Note_on_c, 0, 83, 0
2, 138233, End_track
3, 0, Start_track
3, 0, Title_t, "c/b Brahms"
3, 0, End_track
4, 0, Start_track
4, 0, Title_t, "p/b Benno Moiseiwitsch"
4, 0, End_track
5, 0, Start_track
5, 0, Title_t, "Ampico # 66153"
5, 0, End_track
6, 0, Start_track
6, 0, Title_t, "Scan of a player piano roll"
6, 0, End_track
7, 0, Start_track
7, 0, Title_t, "by Terry Smythe, Winnipeg, Canada"
7, 0, End_track
0, 0, End_of_file
