0, 0, Header, 1, 5, 480
1, 0, Start_track
1, 0, Title_t, "brahms waltzes op39 no2 4hands"
1, 0, Copyright_t, "Segundo G. Yogore, dody@info.com.ph \012__________________________________________________________\012Kunst der Fuge comment: this is the Contributor's property.\012Can *not* be used for commercial purposes without authorization!\012Copyright by Contributor - Kunst der Fuge, © 2002-05\012http://www.kunstderfuge.com/thanks.htm -> Contributors' list\012http://www.kunstderfuge.com/notes.htm -> Terms & conditions"
1, 0, Text_t, "sequenced by Segundo G. Yogore, 2004\012"
1, 0, Time_signature, 1, 2, 24, 8
1, 0, Key_signature, 4, "major"
1, 0, Tempo, 375000
1, 480, Time_signature, 3, 2, 24, 8
1, 480, Tempo, 375000
1, 9360, Tempo, 389610
1, 9600, Tempo, 405405
1, 9840, Tempo, 422535
1, 10080, Tempo, 447761
1, 10320, Tempo, 468750
1, 10560, Tempo, 491803
1, 10800, Tempo, 517241
1, 11040, Tempo, 555556
1, 12000, Tempo, 375000
1, 20880, Tempo, 389610
1, 21120, Tempo, 405405
1, 21360, Tempo, 422535
1, 21600, Tempo, 447761
1, 21840, Tempo, 468750
1, 22080, Tempo, 491803
1, 22320, Tempo, 517241
1, 22560, Tempo, 555556
1, 23520, Tempo, 375000
1, 32400, Tempo, 389610
1, 32640, Tempo, 405405
1, 32880, Tempo, 422535
1, 33120, Tempo, 447761
1, 33360, Tempo, 468750
1, 33600, Tempo, 491803
1, 33840, Tempo, 517241
1, 34080, Tempo, 555556
1, 35040, Tempo, 375000
1, 43920, Tempo, 389610
1, 44160, Tempo, 405405
1, 44400, Tempo, 422535
1, 44640, Tempo, 447761
1, 44880, Tempo, 468750
1, 45120, Tempo, 491803
1, 45360, Tempo, 517241
1, 45600, Tempo, 555556
1, 46560, Tempo, 375000
1, 55440, Tempo, 389610
1, 55680, Tempo, 405405
1, 55920, Tempo, 422535
1, 56160, Tempo, 447761
1, 56400, Tempo, 468750
1, 56640, Tempo, 491803
1, 56880, Tempo, 517241
1, 57120, Tempo, 555556
1, 58080, Tempo, 375000
1, 66960, Tempo, 389610
1, 67200, Tempo, 405405
1, 67440, Tempo, 422535
1, 67680, Tempo, 447761
1, 67920, Tempo, 468750
1, 68160, Time_signature, 6, 2, 24, 8
1, 68160, End_track
2, 0, Start_track
2, 0, Title_t, "Grand Piano"
2, 0, Program_c, 0, 0
2, 0, Control_c, 0, 7, 115
2, 0, Control_c, 0, 10, 95
2, 0, Note_on_c, 0, 83, 62
2, 480, Note_on_c, 0, 83, 0
2, 480, Note_on_c, 0, 76, 62
2, 480, Note_on_c, 0, 80, 62
2, 1200, Note_on_c, 0, 80, 0
2, 1200, Note_on_c, 0, 76, 0
2, 1200, Note_on_c, 0, 83, 62
2, 1440, Note_on_c, 0, 83, 0
2, 1440, Note_on_c, 0, 80, 62
2, 1440, Note_on_c, 0, 83, 62
2, 1920, Note_on_c, 0, 83, 0
2, 1920, Note_on_c, 0, 80, 0
2, 1920, Note_on_c, 0, 75, 62
2, 1920, Note_on_c, 0, 81, 62
2, 2640, Note_on_c, 0, 81, 0
2, 2640, Note_on_c, 0, 75, 0
2, 2640, Note_on_c, 0, 83, 62
2, 2880, Note_on_c, 0, 83, 0
2, 2880, Note_on_c, 0, 81, 62
2, 2880, Note_on_c, 0, 83, 62
2, 3360, Note_on_c, 0, 83, 0
2, 3360, Note_on_c, 0, 81, 0
2, 3360, Note_on_c, 0, 76, 62
2, 3360, Note_on_c, 0, 80, 62
2, 4080, Note_on_c, 0, 80, 0
2, 4080, Note_on_c, 0, 76, 0
2, 4080, Note_on_c, 0, 83, 75
2, 4320, Note_on_c, 0, 83, 0
2, 4320, Note_on_c, 0, 83, 88
2, 4320, Note_on_c, 0, 88, 88
2, 4800, Note_on_c, 0, 88, 0
2, 4800, Note_on_c, 0, 83, 0
2, 4800, Note_on_c, 0, 81, 88
2, 4800, Note_on_c, 0, 87, 88
2, 5520, Note_on_c, 0, 87, 0
2, 5520, Note_on_c, 0, 81, 0
2, 5520, Note_on_c, 0, 85, 75
2, 5760, Note_on_c, 0, 85, 0
2, 5760, Note_on_c, 0, 78, 75
2, 5760, Note_on_c, 0, 81, 75
2, 6240, Note_on_c, 0, 81, 0
2, 6240, Note_on_c, 0, 78, 0
2, 6240, Note_on_c, 0, 76, 62
2, 6240, Note_on_c, 0, 80, 62
2, 6960, Note_on_c, 0, 80, 0
2, 6960, Note_on_c, 0, 76, 0
2, 6960, Note_on_c, 0, 83, 62
2, 7200, Note_on_c, 0, 83, 0
2, 7200, Note_on_c, 0, 80, 62
2, 7200, Note_on_c, 0, 83, 62
2, 7680, Note_on_c, 0, 83, 0
2, 7680, Note_on_c, 0, 80, 0
2, 7680, Note_on_c, 0, 71, 62
2, 7680, Note_on_c, 0, 78, 62
2, 8400, Note_on_c, 0, 78, 0
2, 8400, Note_on_c, 0, 71, 0
2, 8400, Note_on_c, 0, 83, 62
2, 8640, Note_on_c, 0, 83, 0
2, 8640, Note_on_c, 0, 78, 62
2, 8640, Note_on_c, 0, 83, 62
2, 9120, Note_on_c, 0, 83, 0
2, 9120, Note_on_c, 0, 78, 0
2, 9120, Note_on_c, 0, 80, 62
2, 9120, Note_on_c, 0, 83, 62
2, 9120, Note_on_c, 0, 88, 62
2, 9840, Note_on_c, 0, 88, 0
2, 9840, Note_on_c, 0, 83, 0
2, 9840, Note_on_c, 0, 80, 0
2, 9840, Note_on_c, 0, 88, 75
2, 10080, Note_on_c, 0, 88, 0
2, 10080, Note_on_c, 0, 82, 88
2, 10080, Note_on_c, 0, 85, 88
2, 10080, Note_on_c, 0, 90, 88
2, 10560, Note_on_c, 0, 90, 0
2, 10560, Note_on_c, 0, 85, 0
2, 10560, Note_on_c, 0, 82, 0
2, 10560, Note_on_c, 0, 75, 88
2, 10560, Note_on_c, 0, 78, 88
2, 10560, Note_on_c, 0, 83, 88
2, 11520, Note_on_c, 0, 83, 0
2, 11520, Note_on_c, 0, 78, 0
2, 11520, Note_on_c, 0, 75, 0
2, 11520, Note_on_c, 0, 78, 75
2, 11520, Note_on_c, 0, 81, 75
2, 12000, Note_on_c, 0, 81, 0
2, 12000, Note_on_c, 0, 78, 0
2, 12000, Note_on_c, 0, 76, 62
2, 12000, Note_on_c, 0, 80, 62
2, 12720, Note_on_c, 0, 80, 0
2, 12720, Note_on_c, 0, 76, 0
2, 12720, Note_on_c, 0, 83, 62
2, 12960, Note_on_c, 0, 83, 0
2, 12960, Note_on_c, 0, 80, 62
2, 12960, Note_on_c, 0, 83, 62
2, 13440, Note_on_c, 0, 83, 0
2, 13440, Note_on_c, 0, 80, 0
2, 13440, Note_on_c, 0, 75, 62
2, 13440, Note_on_c, 0, 81, 62
2, 14160, Note_on_c, 0, 81, 0
2, 14160, Note_on_c, 0, 75, 0
2, 14160, Note_on_c, 0, 83, 62
2, 14400, Note_on_c, 0, 83, 0
2, 14400, Note_on_c, 0, 81, 62
2, 14400, Note_on_c, 0, 83, 62
2, 14880, Note_on_c, 0, 83, 0
2, 14880, Note_on_c, 0, 81, 0
2, 14880, Note_on_c, 0, 76, 62
2, 14880, Note_on_c, 0, 80, 62
2, 15600, Note_on_c, 0, 80, 0
2, 15600, Note_on_c, 0, 76, 0
2, 15600, Note_on_c, 0, 83, 75
2, 15840, Note_on_c, 0, 83, 0
2, 15840, Note_on_c, 0, 83, 88
2, 15840, Note_on_c, 0, 88, 88
2, 16320, Note_on_c, 0, 88, 0
2, 16320, Note_on_c, 0, 83, 0
2, 16320, Note_on_c, 0, 81, 88
2, 16320, Note_on_c, 0, 87, 88
2, 17040, Note_on_c, 0, 87, 0
2, 17040, Note_on_c, 0, 81, 0
2, 17040, Note_on_c, 0, 85, 75
2, 17280, Note_on_c, 0, 85, 0
2, 17280, Note_on_c, 0, 78, 75
2, 17280, Note_on_c, 0, 81, 75
2, 17760, Note_on_c, 0, 81, 0
2, 17760, Note_on_c, 0, 78, 0
2, 17760, Note_on_c, 0, 76, 62
2, 17760, Note_on_c, 0, 80, 62
2, 18480, Note_on_c, 0, 80, 0
2, 18480, Note_on_c, 0, 76, 0
2, 18480, Note_on_c, 0, 83, 62
2, 18720, Note_on_c, 0, 83, 0
2, 18720, Note_on_c, 0, 80, 62
2, 18720, Note_on_c, 0, 83, 62
2, 19200, Note_on_c, 0, 83, 0
2, 19200, Note_on_c, 0, 80, 0
2, 19200, Note_on_c, 0, 71, 62
2, 19200, Note_on_c, 0, 78, 62
2, 19920, Note_on_c, 0, 78, 0
2, 19920, Note_on_c, 0, 71, 0
2, 19920, Note_on_c, 0, 83, 62
2, 20160, Note_on_c, 0, 83, 0
2, 20160, Note_on_c, 0, 78, 62
2, 20160, Note_on_c, 0, 83, 62
2, 20640, Note_on_c, 0, 83, 0
2, 20640, Note_on_c, 0, 78, 0
2, 20640, Note_on_c, 0, 80, 62
2, 20640, Note_on_c, 0, 83, 62
2, 20640, Note_on_c, 0, 88, 62
2, 21360, Note_on_c, 0, 88, 0
2, 21360, Note_on_c, 0, 83, 0
2, 21360, Note_on_c, 0, 80, 0
2, 21360, Note_on_c, 0, 88, 75
2, 21600, Note_on_c, 0, 88, 0
2, 21600, Note_on_c, 0, 82, 88
2, 21600, Note_on_c, 0, 85, 88
2, 21600, Note_on_c, 0, 90, 88
2, 22080, Note_on_c, 0, 90, 0
2, 22080, Note_on_c, 0, 85, 0
2, 22080, Note_on_c, 0, 82, 0
2, 22080, Note_on_c, 0, 75, 62
2, 22080, Note_on_c, 0, 78, 62
2, 22080, Note_on_c, 0, 83, 62
2, 23040, Note_on_c, 0, 83, 0
2, 23040, Note_on_c, 0, 78, 0
2, 23040, Note_on_c, 0, 75, 0
2, 23040, Note_on_c, 0, 83, 62
2, 23520, Note_on_c, 0, 83, 0
2, 23520, Note_on_c, 0, 75, 62
2, 23520, Note_on_c, 0, 78, 62
2, 23520, Note_on_c, 0, 83, 62
2, 24240, Note_on_c, 0, 83, 0
2, 24240, Note_on_c, 0, 78, 0
2, 24240, Note_on_c, 0, 75, 0
2, 24240, Note_on_c, 0, 84, 62
2, 24480, Note_on_c, 0, 84, 0
2, 24480, Note_on_c, 0, 75, 62
2, 24480, Note_on_c, 0, 78, 62
2, 24480, Note_on_c, 0, 84, 62
2, 24960, Note_on_c, 0, 84, 0
2, 24960, Note_on_c, 0, 78, 0
2, 24960, Note_on_c, 0, 75, 0
2, 24960, Note_on_c, 0, 75, 62
2, 24960, Note_on_c, 0, 78, 62
2, 24960, Note_on_c, 0, 83, 62
2, 25680, Note_on_c, 0, 83, 0
2, 25680, Note_on_c, 0, 78, 0
2, 25680, Note_on_c, 0, 75, 0
2, 25680, Note_on_c, 0, 81, 62
2, 25920, Note_on_c, 0, 81, 0
2, 25920, Note_on_c, 0, 75, 62
2, 25920, Note_on_c, 0, 78, 62
2, 25920, Note_on_c, 0, 81, 62
2, 26400, Note_on_c, 0, 81, 0
2, 26400, Note_on_c, 0, 78, 0
2, 26400, Note_on_c, 0, 75, 0
2, 26400, Note_on_c, 0, 76, 62
2, 26400, Note_on_c, 0, 79, 62
2, 27120, Note_on_c, 0, 79, 0
2, 27120, Note_on_c, 0, 76, 0
2, 27120, Note_on_c, 0, 81, 62
2, 27360, Note_on_c, 0, 81, 0
2, 27360, Note_on_c, 0, 78, 62
2, 27360, Note_on_c, 0, 81, 62
2, 27840, Note_on_c, 0, 81, 0
2, 27840, Note_on_c, 0, 78, 0
2, 27840, Note_on_c, 0, 76, 62
2, 27840, Note_on_c, 0, 79, 62
2, 28560, Note_on_c, 0, 79, 0
2, 28560, Note_on_c, 0, 76, 0
2, 28560, Note_on_c, 0, 78, 62
2, 28800, Note_on_c, 0, 78, 0
2, 28800, Note_on_c, 0, 75, 62
2, 28800, Note_on_c, 0, 78, 62
2, 29280, Note_on_c, 0, 78, 0
2, 29280, Note_on_c, 0, 75, 0
2, 29280, Note_on_c, 0, 76, 62
2, 30000, Note_on_c, 0, 76, 0
2, 30000, Note_on_c, 0, 78, 75
2, 30240, Note_on_c, 0, 78, 0
2, 30240, Note_on_c, 0, 78, 88
2, 30720, Note_on_c, 0, 78, 0
2, 30720, Note_on_c, 0, 76, 88
2, 31440, Note_on_c, 0, 76, 0
2, 31440, Note_on_c, 0, 70, 75
2, 31680, Note_on_c, 0, 70, 0
2, 31680, Note_on_c, 0, 70, 62
2, 32160, Note_on_c, 0, 70, 0
2, 32160, Note_on_c, 0, 71, 62
2, 32880, Note_on_c, 0, 71, 0
2, 32880, Note_on_c, 0, 83, 62
2, 33120, Note_on_c, 0, 83, 0
2, 33120, Note_on_c, 0, 83, 62
2, 33600, Note_on_c, 0, 83, 0
2, 33600, Note_on_c, 0, 71, 62
2, 34320, Note_on_c, 0, 71, 0
2, 34320, Note_on_c, 0, 83, 62
2, 34560, Note_on_c, 0, 83, 0
2, 34560, Note_on_c, 0, 83, 62
2, 35040, Note_on_c, 0, 83, 0
2, 35040, Note_on_c, 0, 71, 62
2, 35760, Note_on_c, 0, 71, 0
2, 35760, Note_on_c, 0, 83, 62
2, 36000, Note_on_c, 0, 83, 0
2, 36000, Note_on_c, 0, 80, 62
2, 36000, Note_on_c, 0, 83, 62
2, 36480, Note_on_c, 0, 83, 0
2, 36480, Note_on_c, 0, 80, 0
2, 36480, Note_on_c, 0, 75, 62
2, 36480, Note_on_c, 0, 81, 62
2, 37200, Note_on_c, 0, 81, 0
2, 37200, Note_on_c, 0, 75, 0
2, 37200, Note_on_c, 0, 83, 62
2, 37440, Note_on_c, 0, 83, 0
2, 37440, Note_on_c, 0, 81, 62
2, 37440, Note_on_c, 0, 83, 62
2, 37920, Note_on_c, 0, 83, 0
2, 37920, Note_on_c, 0, 81, 0
2, 37920, Note_on_c, 0, 76, 62
2, 37920, Note_on_c, 0, 80, 62
2, 38640, Note_on_c, 0, 80, 0
2, 38640, Note_on_c, 0, 76, 0
2, 38640, Note_on_c, 0, 83, 75
2, 38880, Note_on_c, 0, 83, 0
2, 38880, Note_on_c, 0, 83, 88
2, 38880, Note_on_c, 0, 88, 88
2, 39360, Note_on_c, 0, 88, 0
2, 39360, Note_on_c, 0, 83, 0
2, 39360, Note_on_c, 0, 81, 88
2, 39360, Note_on_c, 0, 87, 88
2, 40080, Note_on_c, 0, 87, 0
2, 40080, Note_on_c, 0, 81, 0
2, 40080, Note_on_c, 0, 85, 75
2, 40320, Note_on_c, 0, 85, 0
2, 40320, Note_on_c, 0, 78, 75
2, 40320, Note_on_c, 0, 81, 75
2, 40800, Note_on_c, 0, 81, 0
2, 40800, Note_on_c, 0, 78, 0
2, 40800, Note_on_c, 0, 76, 62
2, 40800, Note_on_c, 0, 80, 62
2, 41520, Note_on_c, 0, 80, 0
2, 41520, Note_on_c, 0, 76, 0
2, 41520, Note_on_c, 0, 83, 62
2, 41760, Note_on_c, 0, 83, 0
2, 41760, Note_on_c, 0, 80, 62
2, 41760, Note_on_c, 0, 83, 62
2, 42240, Note_on_c, 0, 83, 0
2, 42240, Note_on_c, 0, 80, 0
2, 42240, Note_on_c, 0, 80, 62
2, 42240, Note_on_c, 0, 83, 62
2, 42960, Note_on_c, 0, 83, 0
2, 42960, Note_on_c, 0, 80, 0
2, 42960, Note_on_c, 0, 92, 75
2, 43200, Note_on_c, 0, 92, 0
2, 43200, Note_on_c, 0, 83, 75
2, 43200, Note_on_c, 0, 92, 75
2, 43680, Note_on_c, 0, 92, 0
2, 43680, Note_on_c, 0, 83, 0
2, 43680, Note_on_c, 0, 83, 75
2, 43920, Note_on_c, 0, 83, 0
2, 43920, Note_on_c, 0, 92, 88
2, 44160, Note_on_c, 0, 92, 0
2, 44160, Note_on_c, 0, 85, 88
2, 44160, Note_on_c, 0, 93, 88
2, 44640, Note_on_c, 0, 93, 0
2, 44640, Note_on_c, 0, 85, 0
2, 44640, Note_on_c, 0, 80, 88
2, 44640, Note_on_c, 0, 83, 88
2, 44880, Note_on_c, 0, 83, 0
2, 44880, Note_on_c, 0, 80, 0
2, 44880, Note_on_c, 0, 81, 75
2, 45120, Note_on_c, 0, 81, 0
2, 45120, Note_on_c, 0, 80, 75
2, 45120, Note_on_c, 0, 88, 75
2, 46080, Note_on_c, 0, 88, 0
2, 46080, Note_on_c, 0, 80, 0
2, 46080, Note_on_c, 0, 83, 62
2, 46560, Note_on_c, 0, 83, 0
2, 46560, Note_on_c, 0, 75, 62
2, 46560, Note_on_c, 0, 78, 62
2, 46560, Note_on_c, 0, 83, 62
2, 47280, Note_on_c, 0, 83, 0
2, 47280, Note_on_c, 0, 78, 0
2, 47280, Note_on_c, 0, 75, 0
2, 47280, Note_on_c, 0, 84, 62
2, 47520, Note_on_c, 0, 84, 0
2, 47520, Note_on_c, 0, 75, 62
2, 47520, Note_on_c, 0, 78, 62
2, 47520, Note_on_c, 0, 84, 62
2, 48000, Note_on_c, 0, 84, 0
2, 48000, Note_on_c, 0, 78, 0
2, 48000, Note_on_c, 0, 75, 0
2, 48000, Note_on_c, 0, 75, 62
2, 48000, Note_on_c, 0, 78, 62
2, 48000, Note_on_c, 0, 83, 62
2, 48720, Note_on_c, 0, 83, 0
2, 48720, Note_on_c, 0, 78, 0
2, 48720, Note_on_c, 0, 75, 0
2, 48720, Note_on_c, 0, 81, 62
2, 48960, Note_on_c, 0, 81, 0
2, 48960, Note_on_c, 0, 75, 62
2, 48960, Note_on_c, 0, 78, 62
2, 48960, Note_on_c, 0, 81, 62
2, 49440, Note_on_c, 0, 81, 0
2, 49440, Note_on_c, 0, 78, 0
2, 49440, Note_on_c, 0, 75, 0
2, 49440, Note_on_c, 0, 76, 62
2, 49440, Note_on_c, 0, 79, 62
2, 50160, Note_on_c, 0, 79, 0
2, 50160, Note_on_c, 0, 76, 0
2, 50160, Note_on_c, 0, 81, 62
2, 50400, Note_on_c, 0, 81, 0
2, 50400, Note_on_c, 0, 78, 62
2, 50400, Note_on_c, 0, 81, 62
2, 50880, Note_on_c, 0, 81, 0
2, 50880, Note_on_c, 0, 78, 0
2, 50880, Note_on_c, 0, 76, 62
2, 50880, Note_on_c, 0, 79, 62
2, 51600, Note_on_c, 0, 79, 0
2, 51600, Note_on_c, 0, 76, 0
2, 51600, Note_on_c, 0, 78, 62
2, 51840, Note_on_c, 0, 78, 0
2, 51840, Note_on_c, 0, 75, 62
2, 51840, Note_on_c, 0, 78, 62
2, 52320, Note_on_c, 0, 78, 0
2, 52320, Note_on_c, 0, 75, 0
2, 52320, Note_on_c, 0, 76, 62
2, 53040, Note_on_c, 0, 76, 0
2, 53040, Note_on_c, 0, 78, 75
2, 53280, Note_on_c, 0, 78, 0
2, 53280, Note_on_c, 0, 78, 88
2, 53760, Note_on_c, 0, 78, 0
2, 53760, Note_on_c, 0, 76, 88
2, 54480, Note_on_c, 0, 76, 0
2, 54480, Note_on_c, 0, 70, 75
2, 54720, Note_on_c, 0, 70, 0
2, 54720, Note_on_c, 0, 70, 62
2, 55200, Note_on_c, 0, 70, 0
2, 55200, Note_on_c, 0, 71, 62
2, 55920, Note_on_c, 0, 71, 0
2, 55920, Note_on_c, 0, 83, 62
2, 56160, Note_on_c, 0, 83, 0
2, 56160, Note_on_c, 0, 83, 62
2, 56640, Note_on_c, 0, 83, 0
2, 56640, Note_on_c, 0, 71, 62
2, 57360, Note_on_c, 0, 71, 0
2, 57360, Note_on_c, 0, 83, 62
2, 57600, Note_on_c, 0, 83, 0
2, 57600, Note_on_c, 0, 83, 62
2, 58080, Note_on_c, 0, 83, 0
2, 58080, Note_on_c, 0, 71, 62
2, 58800, Note_on_c, 0, 71, 0
2, 58800, Note_on_c, 0, 83, 62
2, 59040, Note_on_c, 0, 83, 0
2, 59040, Note_on_c, 0, 80, 62
2, 59040, Note_on_c, 0, 83, 62
2, 59520, Note_on_c, 0, 83, 0
2, 59520, Note_on_c, 0, 80, 0
2, 59520, Note_on_c, 0, 75, 62
2, 59520, Note_on_c, 0, 81, 62
2, 60240, Note_on_c, 0, 81, 0
2, 60240, Note_on_c, 0, 75, 0
2, 60240, Note_on_c, 0, 83, 62
2, 60480, Note_on_c, 0, 83, 0
2, 60480, Note_on_c, 0, 81, 62
2, 60480, Note_on_c, 0, 83, 62
2, 60960, Note_on_c, 0, 83, 0
2, 60960, Note_on_c, 0, 81, 0
2, 60960, Note_on_c, 0, 76, 62
2, 60960, Note_on_c, 0, 80, 62
2, 61680, Note_on_c, 0, 80, 0
2, 61680, Note_on_c, 0, 76, 0
2, 61680, Note_on_c, 0, 83, 75
2, 61920, Note_on_c, 0, 83, 0
2, 61920, Note_on_c, 0, 83, 88
2, 61920, Note_on_c, 0, 88, 88
2, 62400, Note_on_c, 0, 88, 0
2, 62400, Note_on_c, 0, 83, 0
2, 62400, Note_on_c, 0, 81, 88
2, 62400, Note_on_c, 0, 87, 88
2, 63120, Note_on_c, 0, 87, 0
2, 63120, Note_on_c, 0, 81, 0
2, 63120, Note_on_c, 0, 85, 75
2, 63360, Note_on_c, 0, 85, 0
2, 63360, Note_on_c, 0, 78, 75
2, 63360, Note_on_c, 0, 81, 75
2, 63840, Note_on_c, 0, 81, 0
2, 63840, Note_on_c, 0, 78, 0
2, 63840, Note_on_c, 0, 76, 62
2, 63840, Note_on_c, 0, 80, 62
2, 64560, Note_on_c, 0, 80, 0
2, 64560, Note_on_c, 0, 76, 0
2, 64560, Note_on_c, 0, 83, 62
2, 64800, Note_on_c, 0, 83, 0
2, 64800, Note_on_c, 0, 80, 62
2, 64800, Note_on_c, 0, 83, 62
2, 65280, Note_on_c, 0, 83, 0
2, 65280, Note_on_c, 0, 80, 0
2, 65280, Note_on_c, 0, 80, 62
2, 65280, Note_on_c, 0, 83, 62
2, 66000, Note_on_c, 0, 83, 0
2, 66000, Note_on_c, 0, 80, 0
2, 66000, Note_on_c, 0, 92, 75
2, 66240, Note_on_c, 0, 92, 0
2, 66240, Note_on_c, 0, 83, 75
2, 66240, Note_on_c, 0, 92, 75
2, 66720, Note_on_c, 0, 92, 0
2, 66720, Note_on_c, 0, 83, 0
2, 66720, Note_on_c, 0, 83, 75
2, 66960, Note_on_c, 0, 83, 0
2, 66960, Note_on_c, 0, 92, 88
2, 67200, Note_on_c, 0, 92, 0
2, 67200, Note_on_c, 0, 85, 88
2, 67200, Note_on_c, 0, 93, 88
2, 67680, Note_on_c, 0, 93, 0
2, 67680, Note_on_c, 0, 85, 0
2, 67680, Note_on_c, 0, 80, 88
2, 67680, Note_on_c, 0, 83, 88
2, 67920, Note_on_c, 0, 83, 0
2, 67920, Note_on_c, 0, 80, 0
2, 67920, Note_on_c, 0, 81, 75
2, 68160, Note_on_c, 0, 81, 0
2, 68160, Control_c, 0, 64, 127
2, 68160, Note_on_c, 0, 80, 75
2, 68160, Note_on_c, 0, 88, 75
2, 69120, Note_on_c, 0, 88, 0
2, 69120, Note_on_c, 0, 80, 0
2, 70560, Control_c, 0, 64, 0
2, 70560, End_track
3, 0, Start_track
3, 0, Title_t, "Instrument17"
3, 0, Program_c, 0, 0
3, 0, Control_c, 0, 7, 115
3, 0, Control_c, 0, 10, 80
3, 0, Note_on_c, 0, 71, 62
3, 480, Note_on_c, 0, 71, 0
3, 480, Note_on_c, 0, 68, 62
3, 1200, Note_on_c, 0, 68, 0
3, 1200, Note_on_c, 0, 71, 62
3, 1440, Note_on_c, 0, 71, 0
3, 1440, Note_on_c, 0, 71, 62
3, 1920, Note_on_c, 0, 71, 0
3, 1920, Note_on_c, 0, 69, 62
3, 2640, Note_on_c, 0, 69, 0
3, 2640, Note_on_c, 0, 71, 62
3, 2880, Note_on_c, 0, 71, 0
3, 2880, Note_on_c, 0, 71, 62
3, 3360, Note_on_c, 0, 71, 0
3, 3360, Note_on_c, 0, 68, 62
3, 4080, Note_on_c, 0, 68, 0
3, 4080, Note_on_c, 0, 71, 75
3, 4320, Note_on_c, 0, 71, 0
3, 4320, Note_on_c, 0, 76, 88
3, 4800, Note_on_c, 0, 76, 0
3, 4800, Note_on_c, 0, 75, 88
3, 5520, Note_on_c, 0, 75, 0
3, 5520, Note_on_c, 0, 73, 75
3, 5760, Note_on_c, 0, 73, 0
3, 5760, Note_on_c, 0, 69, 75
3, 6240, Note_on_c, 0, 69, 0
3, 6240, Note_on_c, 0, 68, 62
3, 6960, Note_on_c, 0, 68, 0
3, 6960, Note_on_c, 0, 71, 62
3, 7200, Note_on_c, 0, 71, 0
3, 7200, Note_on_c, 0, 71, 62
3, 7680, Note_on_c, 0, 71, 0
3, 7680, Note_on_c, 0, 66, 62
3, 8400, Note_on_c, 0, 66, 0
3, 8400, Note_on_c, 0, 71, 62
3, 8640, Note_on_c, 0, 71, 0
3, 8640, Note_on_c, 0, 71, 62
3, 9120, Note_on_c, 0, 71, 0
3, 9120, Note_on_c, 0, 68, 62
3, 9120, Note_on_c, 0, 71, 62
3, 9120, Note_on_c, 0, 76, 62
3, 9840, Note_on_c, 0, 76, 0
3, 9840, Note_on_c, 0, 71, 0
3, 9840, Note_on_c, 0, 68, 0
3, 9840, Note_on_c, 0, 76, 75
3, 10080, Note_on_c, 0, 76, 0
3, 10080, Note_on_c, 0, 70, 88
3, 10080, Note_on_c, 0, 73, 88
3, 10080, Note_on_c, 0, 78, 88
3, 10560, Note_on_c, 0, 78, 0
3, 10560, Note_on_c, 0, 73, 0
3, 10560, Note_on_c, 0, 70, 0
3, 10560, Note_on_c, 0, 71, 88
3, 11520, Note_on_c, 0, 71, 0
3, 11520, Note_on_c, 0, 69, 75
3, 12000, Note_on_c, 0, 69, 0
3, 12000, Note_on_c, 0, 68, 62
3, 12720, Note_on_c, 0, 68, 0
3, 12720, Note_on_c, 0, 71, 62
3, 12960, Note_on_c, 0, 71, 0
3, 12960, Note_on_c, 0, 71, 62
3, 13440, Note_on_c, 0, 71, 0
3, 13440, Note_on_c, 0, 69, 62
3, 14160, Note_on_c, 0, 69, 0
3, 14160, Note_on_c, 0, 71, 62
3, 14400, Note_on_c, 0, 71, 0
3, 14400, Note_on_c, 0, 71, 62
3, 14880, Note_on_c, 0, 71, 0
3, 14880, Note_on_c, 0, 68, 62
3, 15600, Note_on_c, 0, 68, 0
3, 15600, Note_on_c, 0, 71, 75
3, 15840, Note_on_c, 0, 71, 0
3, 15840, Note_on_c, 0, 76, 88
3, 16320, Note_on_c, 0, 76, 0
3, 16320, Note_on_c, 0, 75, 88
3, 17040, Note_on_c, 0, 75, 0
3, 17040, Note_on_c, 0, 73, 75
3, 17280, Note_on_c, 0, 73, 0
3, 17280, Note_on_c, 0, 69, 75
3, 17760, Note_on_c, 0, 69, 0
3, 17760, Note_on_c, 0, 68, 62
3, 18480, Note_on_c, 0, 68, 0
3, 18480, Note_on_c, 0, 71, 62
3, 18720, Note_on_c, 0, 71, 0
3, 18720, Note_on_c, 0, 71, 62
3, 19200, Note_on_c, 0, 71, 0
3, 19200, Note_on_c, 0, 66, 62
3, 19920, Note_on_c, 0, 66, 0
3, 19920, Note_on_c, 0, 71, 62
3, 20160, Note_on_c, 0, 71, 0
3, 20160, Note_on_c, 0, 71, 62
3, 20640, Note_on_c, 0, 71, 0
3, 20640, Note_on_c, 0, 68, 62
3, 20640, Note_on_c, 0, 71, 62
3, 20640, Note_on_c, 0, 76, 62
3, 21360, Note_on_c, 0, 76, 0
3, 21360, Note_on_c, 0, 71, 0
3, 21360, Note_on_c, 0, 68, 0
3, 21360, Note_on_c, 0, 76, 75
3, 21600, Note_on_c, 0, 76, 0
3, 21600, Note_on_c, 0, 70, 88
3, 21600, Note_on_c, 0, 73, 88
3, 21600, Note_on_c, 0, 78, 88
3, 22080, Note_on_c, 0, 78, 0
3, 22080, Note_on_c, 0, 73, 0
3, 22080, Note_on_c, 0, 70, 0
3, 22080, Note_on_c, 0, 71, 62
3, 23040, Note_on_c, 0, 71, 0
3, 23040, Note_on_c, 0, 71, 62
3, 23520, Note_on_c, 0, 71, 0
3, 23520, Note_on_c, 0, 63, 62
3, 23520, Note_on_c, 0, 66, 62
3, 23520, Note_on_c, 0, 71, 62
3, 24240, Note_on_c, 0, 71, 0
3, 24240, Note_on_c, 0, 66, 0
3, 24240, Note_on_c, 0, 63, 0
3, 24240, Note_on_c, 0, 72, 62
3, 24480, Note_on_c, 0, 72, 0
3, 24480, Note_on_c, 0, 63, 62
3, 24480, Note_on_c, 0, 66, 62
3, 24480, Note_on_c, 0, 72, 62
3, 24960, Note_on_c, 0, 72, 0
3, 24960, Note_on_c, 0, 66, 0
3, 24960, Note_on_c, 0, 63, 0
3, 24960, Note_on_c, 0, 63, 62
3, 24960, Note_on_c, 0, 66, 62
3, 24960, Note_on_c, 0, 71, 62
3, 25680, Note_on_c, 0, 71, 0
3, 25680, Note_on_c, 0, 66, 0
3, 25680, Note_on_c, 0, 63, 0
3, 25680, Note_on_c, 0, 69, 62
3, 25920, Note_on_c, 0, 69, 0
3, 25920, Note_on_c, 0, 63, 62
3, 25920, Note_on_c, 0, 66, 62
3, 25920, Note_on_c, 0, 69, 62
3, 26400, Note_on_c, 0, 69, 0
3, 26400, Note_on_c, 0, 66, 0
3, 26400, Note_on_c, 0, 63, 0
3, 26400, Note_on_c, 0, 64, 62
3, 26400, Note_on_c, 0, 67, 62
3, 27120, Note_on_c, 0, 67, 0
3, 27120, Note_on_c, 0, 64, 0
3, 27120, Note_on_c, 0, 69, 62
3, 27360, Note_on_c, 0, 69, 0
3, 27360, Note_on_c, 0, 66, 62
3, 27360, Note_on_c, 0, 69, 62
3, 27840, Note_on_c, 0, 69, 0
3, 27840, Note_on_c, 0, 66, 0
3, 27840, Note_on_c, 0, 64, 62
3, 27840, Note_on_c, 0, 67, 62
3, 28560, Note_on_c, 0, 67, 0
3, 28560, Note_on_c, 0, 64, 0
3, 28560, Note_on_c, 0, 66, 62
3, 28800, Note_on_c, 0, 66, 0
3, 28800, Note_on_c, 0, 63, 62
3, 28800, Note_on_c, 0, 66, 62
3, 29280, Note_on_c, 0, 66, 0
3, 29280, Note_on_c, 0, 63, 0
3, 29280, Note_on_c, 0, 70, 49
3, 30240, Note_on_c, 0, 70, 0
3, 30240, Note_on_c, 0, 70, 62
3, 30720, Note_on_c, 0, 70, 0
3, 30720, Note_on_c, 0, 70, 62
3, 31440, Note_on_c, 0, 70, 0
3, 35040, Note_on_c, 0, 68, 62
3, 35760, Note_on_c, 0, 68, 0
3, 35760, Note_on_c, 0, 71, 62
3, 36000, Note_on_c, 0, 71, 0
3, 36000, Note_on_c, 0, 71, 62
3, 36480, Note_on_c, 0, 71, 0
3, 36480, Note_on_c, 0, 69, 62
3, 37200, Note_on_c, 0, 69, 0
3, 37200, Note_on_c, 0, 71, 62
3, 37440, Note_on_c, 0, 71, 0
3, 37440, Note_on_c, 0, 71, 62
3, 37920, Note_on_c, 0, 71, 0
3, 37920, Note_on_c, 0, 68, 62
3, 38640, Note_on_c, 0, 68, 0
3, 38640, Note_on_c, 0, 71, 75
3, 38880, Note_on_c, 0, 71, 0
3, 38880, Note_on_c, 0, 76, 88
3, 39360, Note_on_c, 0, 76, 0
3, 39360, Note_on_c, 0, 75, 88
3, 40080, Note_on_c, 0, 75, 0
3, 40080, Note_on_c, 0, 73, 75
3, 40320, Note_on_c, 0, 73, 0
3, 40320, Note_on_c, 0, 69, 75
3, 40800, Note_on_c, 0, 69, 0
3, 40800, Note_on_c, 0, 68, 62
3, 41520, Note_on_c, 0, 68, 0
3, 41520, Note_on_c, 0, 71, 62
3, 41760, Note_on_c, 0, 71, 0
3, 41760, Note_on_c, 0, 71, 62
3, 42240, Note_on_c, 0, 71, 0
3, 42240, Note_on_c, 0, 71, 62
3, 42960, Note_on_c, 0, 71, 0
3, 42960, Note_on_c, 0, 80, 75
3, 43200, Note_on_c, 0, 80, 0
3, 43200, Note_on_c, 0, 71, 75
3, 43200, Note_on_c, 0, 80, 75
3, 43680, Note_on_c, 0, 80, 0
3, 43680, Note_on_c, 0, 71, 0
3, 43680, Note_on_c, 0, 71, 75
3, 43920, Note_on_c, 0, 71, 0
3, 43920, Note_on_c, 0, 80, 88
3, 44160, Note_on_c, 0, 80, 0
3, 44160, Note_on_c, 0, 73, 88
3, 44160, Note_on_c, 0, 81, 88
3, 44640, Note_on_c, 0, 81, 0
3, 44640, Note_on_c, 0, 73, 0
3, 44640, Note_on_c, 0, 68, 88
3, 44640, Note_on_c, 0, 71, 88
3, 44880, Note_on_c, 0, 71, 0
3, 44880, Note_on_c, 0, 68, 0
3, 44880, Note_on_c, 0, 69, 75
3, 45120, Note_on_c, 0, 69, 0
3, 45120, Note_on_c, 0, 68, 75
3, 45120, Note_on_c, 0, 76, 75
3, 46080, Note_on_c, 0, 76, 0
3, 46080, Note_on_c, 0, 68, 0
3, 46080, Note_on_c, 0, 71, 62
3, 46560, Note_on_c, 0, 71, 0
3, 46560, Note_on_c, 0, 63, 62
3, 46560, Note_on_c, 0, 66, 62
3, 46560, Note_on_c, 0, 71, 62
3, 47280, Note_on_c, 0, 71, 0
3, 47280, Note_on_c, 0, 66, 0
3, 47280, Note_on_c, 0, 63, 0
3, 47280, Note_on_c, 0, 72, 62
3, 47520, Note_on_c, 0, 72, 0
3, 47520, Note_on_c, 0, 63, 62
3, 47520, Note_on_c, 0, 66, 62
3, 47520, Note_on_c, 0, 72, 62
3, 48000, Note_on_c, 0, 72, 0
3, 48000, Note_on_c, 0, 66, 0
3, 48000, Note_on_c, 0, 63, 0
3, 48000, Note_on_c, 0, 63, 62
3, 48000, Note_on_c, 0, 66, 62
3, 48000, Note_on_c, 0, 71, 62
3, 48720, Note_on_c, 0, 71, 0
3, 48720, Note_on_c, 0, 66, 0
3, 48720, Note_on_c, 0, 63, 0
3, 48720, Note_on_c, 0, 69, 62
3, 48960, Note_on_c, 0, 69, 0
3, 48960, Note_on_c, 0, 63, 62
3, 48960, Note_on_c, 0, 66, 62
3, 48960, Note_on_c, 0, 69, 62
3, 49440, Note_on_c, 0, 69, 0
3, 49440, Note_on_c, 0, 66, 0
3, 49440, Note_on_c, 0, 63, 0
3, 49440, Note_on_c, 0, 64, 62
3, 49440, Note_on_c, 0, 67, 62
3, 50160, Note_on_c, 0, 67, 0
3, 50160, Note_on_c, 0, 64, 0
3, 50160, Note_on_c, 0, 69, 62
3, 50400, Note_on_c, 0, 69, 0
3, 50400, Note_on_c, 0, 66, 62
3, 50400, Note_on_c, 0, 69, 62
3, 50880, Note_on_c, 0, 69, 0
3, 50880, Note_on_c, 0, 66, 0
3, 50880, Note_on_c, 0, 64, 62
3, 50880, Note_on_c, 0, 67, 62
3, 51600, Note_on_c, 0, 67, 0
3, 51600, Note_on_c, 0, 64, 0
3, 51600, Note_on_c, 0, 66, 62
3, 51840, Note_on_c, 0, 66, 0
3, 51840, Note_on_c, 0, 63, 62
3, 51840, Note_on_c, 0, 66, 62
3, 52320, Note_on_c, 0, 66, 0
3, 52320, Note_on_c, 0, 63, 0
3, 52320, Note_on_c, 0, 70, 49
3, 53280, Note_on_c, 0, 70, 0
3, 53280, Note_on_c, 0, 70, 62
3, 53760, Note_on_c, 0, 70, 0
3, 53760, Note_on_c, 0, 70, 62
3, 54480, Note_on_c, 0, 70, 0
3, 58080, Note_on_c, 0, 68, 62
3, 58800, Note_on_c, 0, 68, 0
3, 58800, Note_on_c, 0, 71, 62
3, 59040, Note_on_c, 0, 71, 0
3, 59040, Note_on_c, 0, 71, 62
3, 59520, Note_on_c, 0, 71, 0
3, 59520, Note_on_c, 0, 69, 62
3, 60240, Note_on_c, 0, 69, 0
3, 60240, Note_on_c, 0, 71, 62
3, 60480, Note_on_c, 0, 71, 0
3, 60480, Note_on_c, 0, 71, 62
3, 60960, Note_on_c, 0, 71, 0
3, 60960, Note_on_c, 0, 68, 62
3, 61680, Note_on_c, 0, 68, 0
3, 61680, Note_on_c, 0, 71, 75
3, 61920, Note_on_c, 0, 71, 0
3, 61920, Note_on_c, 0, 76, 88
3, 62400, Note_on_c, 0, 76, 0
3, 62400, Note_on_c, 0, 75, 88
3, 63120, Note_on_c, 0, 75, 0
3, 63120, Note_on_c, 0, 73, 75
3, 63360, Note_on_c, 0, 73, 0
3, 63360, Note_on_c, 0, 69, 75
3, 63840, Note_on_c, 0, 69, 0
3, 63840, Note_on_c, 0, 68, 62
3, 64560, Note_on_c, 0, 68, 0
3, 64560, Note_on_c, 0, 71, 62
3, 64800, Note_on_c, 0, 71, 0
3, 64800, Note_on_c, 0, 71, 62
3, 65280, Note_on_c, 0, 71, 0
3, 65280, Note_on_c, 0, 71, 62
3, 66000, Note_on_c, 0, 71, 0
3, 66000, Note_on_c, 0, 80, 75
3, 66240, Note_on_c, 0, 80, 0
3, 66240, Note_on_c, 0, 71, 75
3, 66240, Note_on_c, 0, 80, 75
3, 66720, Note_on_c, 0, 80, 0
3, 66720, Note_on_c, 0, 71, 0
3, 66720, Note_on_c, 0, 71, 75
3, 66960, Note_on_c, 0, 71, 0
3, 66960, Note_on_c, 0, 80, 88
3, 67200, Note_on_c, 0, 80, 0
3, 67200, Note_on_c, 0, 73, 88
3, 67200, Note_on_c, 0, 81, 88
3, 67680, Note_on_c, 0, 81, 0
3, 67680, Note_on_c, 0, 73, 0
3, 67680, Note_on_c, 0, 68, 88
3, 67680, Note_on_c, 0, 71, 88
3, 67920, Note_on_c, 0, 71, 0
3, 67920, Note_on_c, 0, 68, 0
3, 67920, Note_on_c, 0, 69, 75
3, 68160, Note_on_c, 0, 69, 0
3, 68160, Control_c, 0, 64, 127
3, 68160, Note_on_c, 0, 68, 75
3, 68160, Note_on_c, 0, 76, 75
3, 69120, Note_on_c, 0, 76, 0
3, 69120, Note_on_c, 0, 68, 0
3, 70560, Control_c, 0, 64, 0
3, 70560, End_track
4, 0, Start_track
4, 0, Title_t, "Instrument18"
4, 0, Program_c, 0, 0
4, 0, Control_c, 0, 7, 115
4, 0, Control_c, 0, 10, 48
4, 720, Note_on_c, 0, 56, 49
4, 720, Note_on_c, 0, 59, 49
4, 960, Note_on_c, 0, 59, 0
4, 960, Note_on_c, 0, 56, 0
4, 960, Note_on_c, 0, 56, 49
4, 960, Note_on_c, 0, 59, 49
4, 1440, Note_on_c, 0, 59, 0
4, 1440, Note_on_c, 0, 56, 0
4, 1440, Note_on_c, 0, 56, 49
4, 1440, Note_on_c, 0, 64, 49
4, 1920, Note_on_c, 0, 64, 0
4, 1920, Note_on_c, 0, 56, 0
4, 2160, Note_on_c, 0, 57, 49
4, 2160, Note_on_c, 0, 59, 49
4, 2400, Note_on_c, 0, 59, 0
4, 2400, Note_on_c, 0, 57, 0
4, 2400, Note_on_c, 0, 57, 49
4, 2400, Note_on_c, 0, 59, 49
4, 2880, Note_on_c, 0, 59, 0
4, 2880, Note_on_c, 0, 57, 0
4, 2880, Note_on_c, 0, 57, 49
4, 2880, Note_on_c, 0, 59, 49
4, 2880, Note_on_c, 0, 63, 49
4, 3360, Note_on_c, 0, 63, 0
4, 3360, Note_on_c, 0, 59, 0
4, 3360, Note_on_c, 0, 57, 0
4, 3600, Note_on_c, 0, 56, 49
4, 3600, Note_on_c, 0, 59, 49
4, 3840, Note_on_c, 0, 59, 0
4, 3840, Note_on_c, 0, 56, 0
4, 3840, Note_on_c, 0, 56, 49
4, 3840, Note_on_c, 0, 59, 49
4, 4320, Note_on_c, 0, 59, 0
4, 4320, Note_on_c, 0, 56, 0
4, 4320, Note_on_c, 0, 56, 49
4, 4320, Note_on_c, 0, 68, 49
4, 4800, Note_on_c, 0, 68, 0
4, 4800, Note_on_c, 0, 56, 0
4, 5040, Note_on_c, 0, 57, 49
4, 5040, Note_on_c, 0, 66, 49
4, 5280, Note_on_c, 0, 66, 0
4, 5280, Note_on_c, 0, 57, 0
4, 5280, Note_on_c, 0, 57, 49
4, 5280, Note_on_c, 0, 66, 49
4, 5760, Note_on_c, 0, 66, 0
4, 5760, Note_on_c, 0, 57, 0
4, 5760, Note_on_c, 0, 59, 49
4, 5760, Note_on_c, 0, 63, 49
4, 6240, Note_on_c, 0, 63, 0
4, 6240, Note_on_c, 0, 59, 0
4, 6480, Note_on_c, 0, 56, 49
4, 6480, Note_on_c, 0, 59, 49
4, 6720, Note_on_c, 0, 59, 0
4, 6720, Note_on_c, 0, 56, 0
4, 6720, Note_on_c, 0, 56, 49
4, 6720, Note_on_c, 0, 59, 49
4, 7200, Note_on_c, 0, 59, 0
4, 7200, Note_on_c, 0, 56, 0
4, 7200, Note_on_c, 0, 56, 49
4, 7200, Note_on_c, 0, 64, 49
4, 7680, Note_on_c, 0, 64, 0
4, 7680, Note_on_c, 0, 56, 0
4, 7920, Note_on_c, 0, 54, 49
4, 7920, Note_on_c, 0, 59, 49
4, 8160, Note_on_c, 0, 59, 0
4, 8160, Note_on_c, 0, 54, 0
4, 8160, Note_on_c, 0, 54, 49
4, 8160, Note_on_c, 0, 59, 49
4, 8640, Note_on_c, 0, 59, 0
4, 8640, Note_on_c, 0, 54, 0
4, 8640, Note_on_c, 0, 54, 49
4, 8640, Note_on_c, 0, 66, 49
4, 9120, Note_on_c, 0, 66, 0
4, 9120, Note_on_c, 0, 54, 0
4, 9360, Note_on_c, 0, 56, 49
4, 9360, Note_on_c, 0, 64, 49
4, 9600, Note_on_c, 0, 64, 0
4, 9600, Note_on_c, 0, 56, 0
4, 9600, Note_on_c, 0, 56, 49
4, 9600, Note_on_c, 0, 64, 49
4, 10080, Note_on_c, 0, 64, 0
4, 10080, Note_on_c, 0, 56, 0
4, 10080, Note_on_c, 0, 54, 49
4, 10080, Note_on_c, 0, 58, 49
4, 10080, Note_on_c, 0, 61, 49
4, 10560, Note_on_c, 0, 61, 0
4, 10560, Note_on_c, 0, 58, 0
4, 10560, Note_on_c, 0, 54, 0
4, 10800, Note_on_c, 0, 54, 49
4, 10800, Note_on_c, 0, 63, 49
4, 11040, Note_on_c, 0, 63, 0
4, 11040, Note_on_c, 0, 54, 0
4, 11040, Note_on_c, 0, 54, 49
4, 11040, Note_on_c, 0, 63, 49
4, 11520, Note_on_c, 0, 63, 0
4, 11520, Note_on_c, 0, 54, 0
4, 11520, Note_on_c, 0, 51, 49
4, 11520, Note_on_c, 0, 54, 49
4, 11520, Note_on_c, 0, 59, 49
4, 12000, Note_on_c, 0, 59, 0
4, 12000, Note_on_c, 0, 54, 0
4, 12000, Note_on_c, 0, 51, 0
4, 12240, Note_on_c, 0, 56, 49
4, 12240, Note_on_c, 0, 59, 49
4, 12480, Note_on_c, 0, 59, 0
4, 12480, Note_on_c, 0, 56, 0
4, 12480, Note_on_c, 0, 56, 49
4, 12480, Note_on_c, 0, 59, 49
4, 12960, Note_on_c, 0, 59, 0
4, 12960, Note_on_c, 0, 56, 0
4, 12960, Note_on_c, 0, 56, 49
4, 12960, Note_on_c, 0, 64, 49
4, 13440, Note_on_c, 0, 64, 0
4, 13440, Note_on_c, 0, 56, 0
4, 13680, Note_on_c, 0, 57, 49
4, 13680, Note_on_c, 0, 59, 49
4, 13920, Note_on_c, 0, 59, 0
4, 13920, Note_on_c, 0, 57, 0
4, 13920, Note_on_c, 0, 57, 49
4, 13920, Note_on_c, 0, 59, 49
4, 14400, Note_on_c, 0, 59, 0
4, 14400, Note_on_c, 0, 57, 0
4, 14400, Note_on_c, 0, 57, 49
4, 14400, Note_on_c, 0, 59, 49
4, 14400, Note_on_c, 0, 63, 49
4, 14880, Note_on_c, 0, 63, 0
4, 14880, Note_on_c, 0, 59, 0
4, 14880, Note_on_c, 0, 57, 0
4, 15120, Note_on_c, 0, 56, 49
4, 15120, Note_on_c, 0, 59, 49
4, 15360, Note_on_c, 0, 59, 0
4, 15360, Note_on_c, 0, 56, 0
4, 15360, Note_on_c, 0, 56, 49
4, 15360, Note_on_c, 0, 59, 49
4, 15840, Note_on_c, 0, 59, 0
4, 15840, Note_on_c, 0, 56, 0
4, 15840, Note_on_c, 0, 56, 49
4, 15840, Note_on_c, 0, 68, 49
4, 16320, Note_on_c, 0, 68, 0
4, 16320, Note_on_c, 0, 56, 0
4, 16560, Note_on_c, 0, 57, 49
4, 16560, Note_on_c, 0, 66, 49
4, 16800, Note_on_c, 0, 66, 0
4, 16800, Note_on_c, 0, 57, 0
4, 16800, Note_on_c, 0, 57, 49
4, 16800, Note_on_c, 0, 66, 49
4, 17280, Note_on_c, 0, 66, 0
4, 17280, Note_on_c, 0, 57, 0
4, 17280, Note_on_c, 0, 59, 49
4, 17280, Note_on_c, 0, 63, 49
4, 17760, Note_on_c, 0, 63, 0
4, 17760, Note_on_c, 0, 59, 0
4, 18000, Note_on_c, 0, 56, 49
4, 18000, Note_on_c, 0, 59, 49
4, 18240, Note_on_c, 0, 59, 0
4, 18240, Note_on_c, 0, 56, 0
4, 18240, Note_on_c, 0, 56, 49
4, 18240, Note_on_c, 0, 59, 49
4, 18720, Note_on_c, 0, 59, 0
4, 18720, Note_on_c, 0, 56, 0
4, 18720, Note_on_c, 0, 56, 49
4, 18720, Note_on_c, 0, 64, 49
4, 19200, Note_on_c, 0, 64, 0
4, 19200, Note_on_c, 0, 56, 0
4, 19440, Note_on_c, 0, 54, 49
4, 19440, Note_on_c, 0, 59, 49
4, 19680, Note_on_c, 0, 59, 0
4, 19680, Note_on_c, 0, 54, 0
4, 19680, Note_on_c, 0, 54, 49
4, 19680, Note_on_c, 0, 59, 49
4, 20160, Note_on_c, 0, 59, 0
4, 20160, Note_on_c, 0, 54, 0
4, 20160, Note_on_c, 0, 54, 49
4, 20160, Note_on_c, 0, 66, 49
4, 20640, Note_on_c, 0, 66, 0
4, 20640, Note_on_c, 0, 54, 0
4, 20880, Note_on_c, 0, 56, 49
4, 20880, Note_on_c, 0, 64, 49
4, 21120, Note_on_c, 0, 64, 0
4, 21120, Note_on_c, 0, 56, 0
4, 21120, Note_on_c, 0, 56, 49
4, 21120, Note_on_c, 0, 64, 49
4, 21600, Note_on_c, 0, 64, 0
4, 21600, Note_on_c, 0, 56, 0
4, 21600, Note_on_c, 0, 54, 49
4, 21600, Note_on_c, 0, 58, 49
4, 21600, Note_on_c, 0, 61, 49
4, 22080, Note_on_c, 0, 61, 0
4, 22080, Note_on_c, 0, 58, 0
4, 22080, Note_on_c, 0, 54, 0
4, 22320, Note_on_c, 0, 54, 49
4, 22320, Note_on_c, 0, 63, 49
4, 22560, Note_on_c, 0, 63, 0
4, 22560, Note_on_c, 0, 54, 0
4, 22560, Note_on_c, 0, 54, 49
4, 22560, Note_on_c, 0, 63, 49
4, 23040, Note_on_c, 0, 63, 0
4, 23040, Note_on_c, 0, 54, 0
4, 23040, Note_on_c, 0, 51, 49
4, 23040, Note_on_c, 0, 59, 49
4, 23520, Note_on_c, 0, 59, 0
4, 23520, Note_on_c, 0, 51, 0
4, 23760, Note_on_c, 0, 51, 49
4, 23760, Note_on_c, 0, 54, 49
4, 24000, Note_on_c, 0, 54, 0
4, 24000, Note_on_c, 0, 51, 0
4, 24000, Note_on_c, 0, 51, 49
4, 24000, Note_on_c, 0, 54, 49
4, 24480, Note_on_c, 0, 54, 0
4, 24480, Note_on_c, 0, 51, 0
4, 24480, Note_on_c, 0, 51, 49
4, 24480, Note_on_c, 0, 54, 49
4, 24960, Note_on_c, 0, 54, 0
4, 24960, Note_on_c, 0, 51, 0
4, 25200, Note_on_c, 0, 51, 49
4, 25200, Note_on_c, 0, 54, 49
4, 25440, Note_on_c, 0, 54, 0
4, 25440, Note_on_c, 0, 51, 0
4, 25440, Note_on_c, 0, 51, 49
4, 25440, Note_on_c, 0, 54, 49
4, 25920, Note_on_c, 0, 54, 0
4, 25920, Note_on_c, 0, 51, 0
4, 25920, Note_on_c, 0, 51, 49
4, 25920, Note_on_c, 0, 54, 49
4, 26400, Note_on_c, 0, 54, 0
4, 26400, Note_on_c, 0, 51, 0
4, 26640, Note_on_c, 0, 52, 49
4, 26640, Note_on_c, 0, 55, 49
4, 26880, Note_on_c, 0, 55, 0
4, 26880, Note_on_c, 0, 52, 0
4, 26880, Note_on_c, 0, 52, 49
4, 26880, Note_on_c, 0, 55, 49
4, 27360, Note_on_c, 0, 55, 0
4, 27360, Note_on_c, 0, 52, 0
4, 27360, Note_on_c, 0, 51, 49
4, 27360, Note_on_c, 0, 54, 49
4, 27840, Note_on_c, 0, 54, 0
4, 27840, Note_on_c, 0, 51, 0
4, 28080, Note_on_c, 0, 52, 49
4, 28080, Note_on_c, 0, 55, 49
4, 28320, Note_on_c, 0, 55, 0
4, 28320, Note_on_c, 0, 52, 0
4, 28320, Note_on_c, 0, 52, 49
4, 28320, Note_on_c, 0, 55, 49
4, 28800, Note_on_c, 0, 55, 0
4, 28800, Note_on_c, 0, 52, 0
4, 28800, Note_on_c, 0, 54, 49
4, 28800, Note_on_c, 0, 63, 49
4, 29280, Note_on_c, 0, 63, 0
4, 29280, Note_on_c, 0, 54, 0
4, 29520, Note_on_c, 0, 55, 62
4, 29520, Note_on_c, 0, 58, 62
4, 29520, Note_on_c, 0, 64, 62
4, 29760, Note_on_c, 0, 64, 0
4, 29760, Note_on_c, 0, 58, 0
4, 29760, Note_on_c, 0, 55, 0
4, 29760, Note_on_c, 0, 55, 62
4, 29760, Note_on_c, 0, 58, 62
4, 29760, Note_on_c, 0, 64, 62
4, 30240, Note_on_c, 0, 64, 0
4, 30240, Note_on_c, 0, 55, 0
4, 30240, Note_on_c, 0, 54, 62
4, 30240, Note_on_c, 0, 63, 62
4, 30720, Note_on_c, 0, 63, 0
4, 30720, Note_on_c, 0, 54, 0
4, 30720, Note_on_c, 0, 58, 0
4, 30720, Note_on_c, 0, 55, 62
4, 30720, Note_on_c, 0, 58, 62
4, 30720, Note_on_c, 0, 67, 62
4, 31200, Note_on_c, 0, 67, 0
4, 31200, Note_on_c, 0, 55, 0
4, 31200, Note_on_c, 0, 54, 49
4, 31200, Note_on_c, 0, 66, 49
4, 31680, Note_on_c, 0, 66, 0
4, 31680, Note_on_c, 0, 54, 0
4, 31680, Note_on_c, 0, 58, 0
4, 31680, Note_on_c, 0, 52, 49
4, 31680, Note_on_c, 0, 64, 49
4, 32160, Note_on_c, 0, 64, 0
4, 32160, Note_on_c, 0, 52, 0
4, 32400, Note_on_c, 0, 54, 62
4, 32400, Note_on_c, 0, 63, 62
4, 32640, Note_on_c, 0, 63, 0
4, 32640, Note_on_c, 0, 54, 0
4, 32640, Note_on_c, 0, 54, 62
4, 32640, Note_on_c, 0, 63, 62
4, 33120, Note_on_c, 0, 63, 0
4, 33120, Note_on_c, 0, 54, 0
4, 33120, Note_on_c, 0, 52, 62
4, 33120, Note_on_c, 0, 61, 62
4, 33600, Note_on_c, 0, 61, 0
4, 33600, Note_on_c, 0, 52, 0
4, 33840, Note_on_c, 0, 51, 49
4, 33840, Note_on_c, 0, 59, 49
4, 34080, Note_on_c, 0, 59, 0
4, 34080, Note_on_c, 0, 51, 0
4, 34080, Note_on_c, 0, 51, 49
4, 34080, Note_on_c, 0, 59, 49
4, 34560, Note_on_c, 0, 59, 0
4, 34560, Note_on_c, 0, 51, 0
4, 34560, Note_on_c, 0, 49, 49
4, 34560, Note_on_c, 0, 57, 49
4, 35040, Note_on_c, 0, 57, 0
4, 35040, Note_on_c, 0, 49, 0
4, 35280, Note_on_c, 0, 56, 49
4, 35280, Note_on_c, 0, 59, 49
4, 35520, Note_on_c, 0, 59, 0
4, 35520, Note_on_c, 0, 56, 0
4, 35520, Note_on_c, 0, 56, 49
4, 35520, Note_on_c, 0, 59, 49
4, 36000, Note_on_c, 0, 59, 0
4, 36000, Note_on_c, 0, 56, 0
4, 36000, Note_on_c, 0, 56, 49
4, 36000, Note_on_c, 0, 64, 49
4, 36480, Note_on_c, 0, 64, 0
4, 36480, Note_on_c, 0, 56, 0
4, 36720, Note_on_c, 0, 57, 49
4, 36720, Note_on_c, 0, 59, 49
4, 36960, Note_on_c, 0, 59, 0
4, 36960, Note_on_c, 0, 57, 0
4, 36960, Note_on_c, 0, 57, 49
4, 36960, Note_on_c, 0, 59, 49
4, 37440, Note_on_c, 0, 59, 0
4, 37440, Note_on_c, 0, 57, 0
4, 37440, Note_on_c, 0, 57, 49
4, 37440, Note_on_c, 0, 59, 49
4, 37440, Note_on_c, 0, 63, 49
4, 37920, Note_on_c, 0, 63, 0
4, 37920, Note_on_c, 0, 59, 0
4, 37920, Note_on_c, 0, 57, 0
4, 38160, Note_on_c, 0, 56, 49
4, 38160, Note_on_c, 0, 59, 49
4, 38400, Note_on_c, 0, 59, 0
4, 38400, Note_on_c, 0, 56, 0
4, 38400, Note_on_c, 0, 56, 49
4, 38400, Note_on_c, 0, 59, 49
4, 38880, Note_on_c, 0, 59, 0
4, 38880, Note_on_c, 0, 56, 0
4, 38880, Note_on_c, 0, 56, 49
4, 38880, Note_on_c, 0, 68, 49
4, 39360, Note_on_c, 0, 68, 0
4, 39360, Note_on_c, 0, 56, 0
4, 39600, Note_on_c, 0, 57, 49
4, 39600, Note_on_c, 0, 66, 49
4, 39840, Note_on_c, 0, 66, 0
4, 39840, Note_on_c, 0, 57, 0
4, 39840, Note_on_c, 0, 57, 49
4, 39840, Note_on_c, 0, 66, 49
4, 40320, Note_on_c, 0, 66, 0
4, 40320, Note_on_c, 0, 57, 0
4, 40320, Note_on_c, 0, 59, 49
4, 40320, Note_on_c, 0, 63, 49
4, 40800, Note_on_c, 0, 63, 0
4, 40800, Note_on_c, 0, 59, 0
4, 41040, Note_on_c, 0, 56, 49
4, 41040, Note_on_c, 0, 59, 49
4, 41280, Note_on_c, 0, 59, 0
4, 41280, Note_on_c, 0, 56, 0
4, 41280, Note_on_c, 0, 56, 49
4, 41280, Note_on_c, 0, 59, 49
4, 41760, Note_on_c, 0, 59, 0
4, 41760, Note_on_c, 0, 56, 0
4, 41760, Note_on_c, 0, 56, 49
4, 41760, Note_on_c, 0, 64, 49
4, 42240, Note_on_c, 0, 64, 0
4, 42240, Note_on_c, 0, 56, 0
4, 42480, Note_on_c, 0, 56, 49
4, 42480, Note_on_c, 0, 59, 49
4, 42720, Note_on_c, 0, 59, 0
4, 42720, Note_on_c, 0, 56, 0
4, 42720, Note_on_c, 0, 56, 62
4, 42720, Note_on_c, 0, 59, 62
4, 43200, Note_on_c, 0, 59, 0
4, 43200, Note_on_c, 0, 56, 0
4, 43200, Note_on_c, 0, 56, 62
4, 43200, Note_on_c, 0, 68, 62
4, 43680, Note_on_c, 0, 68, 0
4, 43680, Note_on_c, 0, 56, 0
4, 43680, Note_on_c, 0, 59, 62
4, 43680, Note_on_c, 0, 68, 62
4, 44160, Note_on_c, 0, 68, 0
4, 44160, Note_on_c, 0, 59, 0
4, 44160, Note_on_c, 0, 57, 75
4, 44160, Note_on_c, 0, 66, 75
4, 44640, Note_on_c, 0, 66, 0
4, 44640, Note_on_c, 0, 57, 0
4, 44640, Note_on_c, 0, 54, 88
4, 44640, Note_on_c, 0, 59, 88
4, 45120, Note_on_c, 0, 59, 0
4, 45120, Note_on_c, 0, 54, 0
4, 45360, Note_on_c, 0, 56, 88
4, 45360, Note_on_c, 0, 59, 88
4, 45600, Note_on_c, 0, 59, 0
4, 45600, Note_on_c, 0, 56, 0
4, 45600, Note_on_c, 0, 56, 88
4, 45600, Note_on_c, 0, 59, 88
4, 46080, Note_on_c, 0, 59, 0
4, 46080, Note_on_c, 0, 56, 0
4, 46080, Note_on_c, 0, 52, 49
4, 46080, Note_on_c, 0, 59, 49
4, 46080, Note_on_c, 0, 64, 49
4, 46560, Note_on_c, 0, 64, 0
4, 46560, Note_on_c, 0, 59, 0
4, 46560, Note_on_c, 0, 52, 0
4, 46800, Note_on_c, 0, 51, 49
4, 46800, Note_on_c, 0, 54, 49
4, 47040, Note_on_c, 0, 54, 0
4, 47040, Note_on_c, 0, 51, 0
4, 47040, Note_on_c, 0, 51, 49
4, 47040, Note_on_c, 0, 54, 49
4, 47520, Note_on_c, 0, 54, 0
4, 47520, Note_on_c, 0, 51, 0
4, 47520, Note_on_c, 0, 51, 49
4, 47520, Note_on_c, 0, 54, 49
4, 48000, Note_on_c, 0, 54, 0
4, 48000, Note_on_c, 0, 51, 0
4, 48240, Note_on_c, 0, 51, 49
4, 48240, Note_on_c, 0, 54, 49
4, 48480, Note_on_c, 0, 54, 0
4, 48480, Note_on_c, 0, 51, 0
4, 48480, Note_on_c, 0, 51, 49
4, 48480, Note_on_c, 0, 54, 49
4, 48960, Note_on_c, 0, 54, 0
4, 48960, Note_on_c, 0, 51, 0
4, 48960, Note_on_c, 0, 51, 49
4, 48960, Note_on_c, 0, 54, 49
4, 49440, Note_on_c, 0, 54, 0
4, 49440, Note_on_c, 0, 51, 0
4, 49680, Note_on_c, 0, 52, 49
4, 49680, Note_on_c, 0, 55, 49
4, 49920, Note_on_c, 0, 55, 0
4, 49920, Note_on_c, 0, 52, 0
4, 49920, Note_on_c, 0, 52, 49
4, 49920, Note_on_c, 0, 55, 49
4, 50400, Note_on_c, 0, 55, 0
4, 50400, Note_on_c, 0, 52, 0
4, 50400, Note_on_c, 0, 51, 49
4, 50400, Note_on_c, 0, 54, 49
4, 50880, Note_on_c, 0, 54, 0
4, 50880, Note_on_c, 0, 51, 0
4, 51120, Note_on_c, 0, 52, 49
4, 51120, Note_on_c, 0, 55, 49
4, 51360, Note_on_c, 0, 55, 0
4, 51360, Note_on_c, 0, 52, 0
4, 51360, Note_on_c, 0, 52, 49
4, 51360, Note_on_c, 0, 55, 49
4, 51840, Note_on_c, 0, 55, 0
4, 51840, Note_on_c, 0, 52, 0
4, 51840, Note_on_c, 0, 54, 49
4, 51840, Note_on_c, 0, 63, 49
4, 52320, Note_on_c, 0, 63, 0
4, 52320, Note_on_c, 0, 54, 0
4, 52560, Note_on_c, 0, 55, 62
4, 52560, Note_on_c, 0, 58, 62
4, 52560, Note_on_c, 0, 64, 62
4, 52800, Note_on_c, 0, 64, 0
4, 52800, Note_on_c, 0, 58, 0
4, 52800, Note_on_c, 0, 55, 0
4, 52800, Note_on_c, 0, 55, 62
4, 52800, Note_on_c, 0, 58, 62
4, 52800, Note_on_c, 0, 64, 62
4, 53280, Note_on_c, 0, 64, 0
4, 53280, Note_on_c, 0, 55, 0
4, 53280, Note_on_c, 0, 54, 62
4, 53280, Note_on_c, 0, 63, 62
4, 53760, Note_on_c, 0, 63, 0
4, 53760, Note_on_c, 0, 54, 0
4, 53760, Note_on_c, 0, 58, 0
4, 53760, Note_on_c, 0, 55, 62
4, 53760, Note_on_c, 0, 58, 62
4, 53760, Note_on_c, 0, 67, 62
4, 54240, Note_on_c, 0, 67, 0
4, 54240, Note_on_c, 0, 55, 0
4, 54240, Note_on_c, 0, 54, 49
4, 54240, Note_on_c, 0, 66, 49
4, 54720, Note_on_c, 0, 66, 0
4, 54720, Note_on_c, 0, 54, 0
4, 54720, Note_on_c, 0, 58, 0
4, 54720, Note_on_c, 0, 52, 49
4, 54720, Note_on_c, 0, 64, 49
4, 55200, Note_on_c, 0, 64, 0
4, 55200, Note_on_c, 0, 52, 0
4, 55440, Note_on_c, 0, 54, 62
4, 55440, Note_on_c, 0, 63, 62
4, 55680, Note_on_c, 0, 63, 0
4, 55680, Note_on_c, 0, 54, 0
4, 55680, Note_on_c, 0, 54, 62
4, 55680, Note_on_c, 0, 63, 62
4, 56160, Note_on_c, 0, 63, 0
4, 56160, Note_on_c, 0, 54, 0
4, 56160, Note_on_c, 0, 52, 62
4, 56160, Note_on_c, 0, 61, 62
4, 56640, Note_on_c, 0, 61, 0
4, 56640, Note_on_c, 0, 52, 0
4, 56880, Note_on_c, 0, 51, 49
4, 56880, Note_on_c, 0, 59, 49
4, 57120, Note_on_c, 0, 59, 0
4, 57120, Note_on_c, 0, 51, 0
4, 57120, Note_on_c, 0, 51, 49
4, 57120, Note_on_c, 0, 59, 49
4, 57600, Note_on_c, 0, 59, 0
4, 57600, Note_on_c, 0, 51, 0
4, 57600, Note_on_c, 0, 49, 49
4, 57600, Note_on_c, 0, 57, 49
4, 58080, Note_on_c, 0, 57, 0
4, 58080, Note_on_c, 0, 49, 0
4, 58320, Note_on_c, 0, 56, 49
4, 58320, Note_on_c, 0, 59, 49
4, 58560, Note_on_c, 0, 59, 0
4, 58560, Note_on_c, 0, 56, 0
4, 58560, Note_on_c, 0, 56, 49
4, 58560, Note_on_c, 0, 59, 49
4, 59040, Note_on_c, 0, 59, 0
4, 59040, Note_on_c, 0, 56, 0
4, 59040, Note_on_c, 0, 56, 49
4, 59040, Note_on_c, 0, 64, 49
4, 59520, Note_on_c, 0, 64, 0
4, 59520, Note_on_c, 0, 56, 0
4, 59760, Note_on_c, 0, 57, 49
4, 59760, Note_on_c, 0, 59, 49
4, 60000, Note_on_c, 0, 59, 0
4, 60000, Note_on_c, 0, 57, 0
4, 60000, Note_on_c, 0, 57, 49
4, 60000, Note_on_c, 0, 59, 49
4, 60480, Note_on_c, 0, 59, 0
4, 60480, Note_on_c, 0, 57, 0
4, 60480, Note_on_c, 0, 57, 49
4, 60480, Note_on_c, 0, 59, 49
4, 60480, Note_on_c, 0, 63, 49
4, 60960, Note_on_c, 0, 63, 0
4, 60960, Note_on_c, 0, 59, 0
4, 60960, Note_on_c, 0, 57, 0
4, 61200, Note_on_c, 0, 56, 49
4, 61200, Note_on_c, 0, 59, 49
4, 61440, Note_on_c, 0, 59, 0
4, 61440, Note_on_c, 0, 56, 0
4, 61440, Note_on_c, 0, 56, 49
4, 61440, Note_on_c, 0, 59, 49
4, 61920, Note_on_c, 0, 59, 0
4, 61920, Note_on_c, 0, 56, 0
4, 61920, Note_on_c, 0, 56, 49
4, 61920, Note_on_c, 0, 68, 49
4, 62400, Note_on_c, 0, 68, 0
4, 62400, Note_on_c, 0, 56, 0
4, 62640, Note_on_c, 0, 57, 49
4, 62640, Note_on_c, 0, 66, 49
4, 62880, Note_on_c, 0, 66, 0
4, 62880, Note_on_c, 0, 57, 0
4, 62880, Note_on_c, 0, 57, 49
4, 62880, Note_on_c, 0, 66, 49
4, 63360, Note_on_c, 0, 66, 0
4, 63360, Note_on_c, 0, 57, 0
4, 63360, Note_on_c, 0, 59, 49
4, 63360, Note_on_c, 0, 63, 49
4, 63840, Note_on_c, 0, 63, 0
4, 63840, Note_on_c, 0, 59, 0
4, 64080, Note_on_c, 0, 56, 49
4, 64080, Note_on_c, 0, 59, 49
4, 64320, Note_on_c, 0, 59, 0
4, 64320, Note_on_c, 0, 56, 0
4, 64320, Note_on_c, 0, 56, 49
4, 64320, Note_on_c, 0, 59, 49
4, 64800, Note_on_c, 0, 59, 0
4, 64800, Note_on_c, 0, 56, 0
4, 64800, Note_on_c, 0, 56, 49
4, 64800, Note_on_c, 0, 64, 49
4, 65280, Note_on_c, 0, 64, 0
4, 65280, Note_on_c, 0, 56, 0
4, 65520, Note_on_c, 0, 56, 49
4, 65520, Note_on_c, 0, 59, 49
4, 65760, Note_on_c, 0, 59, 0
4, 65760, Note_on_c, 0, 56, 0
4, 65760, Note_on_c, 0, 56, 62
4, 65760, Note_on_c, 0, 59, 62
4, 66240, Note_on_c, 0, 59, 0
4, 66240, Note_on_c, 0, 56, 0
4, 66240, Note_on_c, 0, 56, 62
4, 66240, Note_on_c, 0, 68, 62
4, 66720, Note_on_c, 0, 68, 0
4, 66720, Note_on_c, 0, 56, 0
4, 66720, Note_on_c, 0, 59, 62
4, 66720, Note_on_c, 0, 68, 62
4, 67200, Note_on_c, 0, 68, 0
4, 67200, Note_on_c, 0, 59, 0
4, 67200, Note_on_c, 0, 57, 75
4, 67200, Note_on_c, 0, 66, 75
4, 67680, Note_on_c, 0, 66, 0
4, 67680, Note_on_c, 0, 57, 0
4, 67680, Note_on_c, 0, 54, 88
4, 67680, Note_on_c, 0, 59, 88
4, 68160, Note_on_c, 0, 59, 0
4, 68160, Note_on_c, 0, 54, 0
4, 68640, Note_on_c, 0, 56, 62
4, 68640, Note_on_c, 0, 59, 62
4, 69120, Note_on_c, 0, 59, 0
4, 69120, Note_on_c, 0, 56, 0
4, 69120, End_track
5, 0, Start_track
5, 0, Title_t, "Instrument19"
5, 0, Program_c, 0, 0
5, 0, Control_c, 0, 7, 115
5, 0, Control_c, 0, 10, 32
5, 480, Note_on_c, 0, 40, 49
5, 480, Note_on_c, 0, 47, 49
5, 1920, Note_on_c, 0, 47, 0
5, 1920, Note_on_c, 0, 40, 0
5, 1920, Note_on_c, 0, 42, 49
5, 1920, Note_on_c, 0, 47, 49
5, 3360, Note_on_c, 0, 47, 0
5, 3360, Note_on_c, 0, 42, 0
5, 3360, Note_on_c, 0, 40, 49
5, 3360, Note_on_c, 0, 47, 49
5, 4800, Note_on_c, 0, 47, 0
5, 4800, Note_on_c, 0, 40, 0
5, 4800, Note_on_c, 0, 35, 49
5, 4800, Note_on_c, 0, 47, 49
5, 6240, Note_on_c, 0, 47, 0
5, 6240, Note_on_c, 0, 35, 0
5, 6240, Note_on_c, 0, 40, 49
5, 6240, Note_on_c, 0, 47, 49
5, 7680, Note_on_c, 0, 47, 0
5, 7680, Note_on_c, 0, 40, 0
5, 7680, Note_on_c, 0, 39, 49
5, 7680, Note_on_c, 0, 47, 49
5, 9120, Note_on_c, 0, 47, 0
5, 9120, Note_on_c, 0, 39, 0
5, 9120, Note_on_c, 0, 37, 49
5, 9120, Note_on_c, 0, 47, 49
5, 10080, Note_on_c, 0, 47, 0
5, 10080, Note_on_c, 0, 37, 0
5, 10080, Note_on_c, 0, 30, 49
5, 10080, Note_on_c, 0, 42, 49
5, 10560, Note_on_c, 0, 42, 0
5, 10560, Note_on_c, 0, 30, 0
5, 10560, Note_on_c, 0, 35, 49
5, 10560, Note_on_c, 0, 47, 49
5, 11520, Note_on_c, 0, 47, 0
5, 11520, Note_on_c, 0, 35, 0
5, 11520, Note_on_c, 0, 47, 49
5, 12000, Note_on_c, 0, 47, 0
5, 12000, Note_on_c, 0, 40, 49
5, 12000, Note_on_c, 0, 47, 49
5, 13440, Note_on_c, 0, 47, 0
5, 13440, Note_on_c, 0, 40, 0
5, 13440, Note_on_c, 0, 42, 49
5, 13440, Note_on_c, 0, 47, 49
5, 14880, Note_on_c, 0, 47, 0
5, 14880, Note_on_c, 0, 42, 0
5, 14880, Note_on_c, 0, 40, 49
5, 14880, Note_on_c, 0, 47, 49
5, 16320, Note_on_c, 0, 47, 0
5, 16320, Note_on_c, 0, 40, 0
5, 16320, Note_on_c, 0, 35, 49
5, 16320, Note_on_c, 0, 47, 49
5, 17760, Note_on_c, 0, 47, 0
5, 17760, Note_on_c, 0, 35, 0
5, 17760, Note_on_c, 0, 40, 49
5, 17760, Note_on_c, 0, 47, 49
5, 19200, Note_on_c, 0, 47, 0
5, 19200, Note_on_c, 0, 40, 0
5, 19200, Note_on_c, 0, 39, 49
5, 19200, Note_on_c, 0, 47, 49
5, 20640, Note_on_c, 0, 47, 0
5, 20640, Note_on_c, 0, 39, 0
5, 20640, Note_on_c, 0, 37, 49
5, 20640, Note_on_c, 0, 47, 49
5, 21600, Note_on_c, 0, 47, 0
5, 21600, Note_on_c, 0, 37, 0
5, 21600, Note_on_c, 0, 30, 49
5, 21600, Note_on_c, 0, 42, 49
5, 22080, Note_on_c, 0, 42, 0
5, 22080, Note_on_c, 0, 30, 0
5, 22080, Note_on_c, 0, 35, 49
5, 22080, Note_on_c, 0, 47, 49
5, 23040, Note_on_c, 0, 47, 0
5, 23040, Note_on_c, 0, 35, 0
5, 23040, Note_on_c, 0, 35, 49
5, 23520, Note_on_c, 0, 35, 0
5, 23520, Note_on_c, 0, 47, 49
5, 24480, Note_on_c, 0, 47, 0
5, 24480, Note_on_c, 0, 45, 49
5, 24960, Note_on_c, 0, 45, 0
5, 24960, Note_on_c, 0, 47, 49
5, 25920, Note_on_c, 0, 47, 0
5, 25920, Note_on_c, 0, 48, 49
5, 26400, Note_on_c, 0, 48, 0
5, 26400, Note_on_c, 0, 36, 49
5, 26880, Note_on_c, 0, 36, 0
5, 27840, Note_on_c, 0, 36, 49
5, 28320, Note_on_c, 0, 36, 0
5, 29280, Note_on_c, 0, 36, 49
5, 30720, Note_on_c, 0, 36, 0
5, 30720, Note_on_c, 0, 48, 62
5, 32160, Note_on_c, 0, 48, 0
5, 32160, Note_on_c, 0, 47, 62
5, 33120, Note_on_c, 0, 47, 0
5, 33120, Note_on_c, 0, 35, 62
5, 33600, Note_on_c, 0, 35, 0
5, 33600, Note_on_c, 0, 47, 49
5, 34560, Note_on_c, 0, 47, 0
5, 34560, Note_on_c, 0, 35, 49
5, 35040, Note_on_c, 0, 35, 0
5, 35040, Note_on_c, 0, 40, 49
5, 35040, Note_on_c, 0, 47, 49
5, 36480, Note_on_c, 0, 47, 0
5, 36480, Note_on_c, 0, 40, 0
5, 36480, Note_on_c, 0, 42, 49
5, 36480, Note_on_c, 0, 47, 49
5, 37920, Note_on_c, 0, 47, 0
5, 37920, Note_on_c, 0, 42, 0
5, 37920, Note_on_c, 0, 40, 49
5, 37920, Note_on_c, 0, 47, 49
5, 39360, Note_on_c, 0, 47, 0
5, 39360, Note_on_c, 0, 40, 0
5, 39360, Note_on_c, 0, 35, 49
5, 39360, Note_on_c, 0, 47, 49
5, 40800, Note_on_c, 0, 47, 0
5, 40800, Note_on_c, 0, 35, 0
5, 40800, Note_on_c, 0, 40, 49
5, 40800, Note_on_c, 0, 47, 49
5, 42240, Note_on_c, 0, 47, 0
5, 42240, Note_on_c, 0, 40, 0
5, 42240, Note_on_c, 0, 39, 49
5, 42240, Note_on_c, 0, 47, 49
5, 43680, Note_on_c, 0, 47, 0
5, 43680, Note_on_c, 0, 39, 0
5, 43680, Note_on_c, 0, 35, 62
5, 43680, Note_on_c, 0, 47, 62
5, 44640, Note_on_c, 0, 47, 0
5, 44640, Note_on_c, 0, 35, 0
5, 44640, Note_on_c, 0, 47, 75
5, 45120, Note_on_c, 0, 47, 0
5, 45120, Note_on_c, 0, 40, 75
5, 45120, Note_on_c, 0, 47, 75
5, 46080, Note_on_c, 0, 47, 0
5, 46080, Note_on_c, 0, 40, 0
5, 46080, Note_on_c, 0, 44, 49
5, 46560, Note_on_c, 0, 44, 0
5, 46560, Note_on_c, 0, 47, 49
5, 47520, Note_on_c, 0, 47, 0
5, 47520, Note_on_c, 0, 45, 49
5, 48000, Note_on_c, 0, 45, 0
5, 48000, Note_on_c, 0, 47, 49
5, 48960, Note_on_c, 0, 47, 0
5, 48960, Note_on_c, 0, 48, 49
5, 49440, Note_on_c, 0, 48, 0
5, 49440, Note_on_c, 0, 36, 49
5, 49920, Note_on_c, 0, 36, 0
5, 50880, Note_on_c, 0, 36, 49
5, 51360, Note_on_c, 0, 36, 0
5, 52320, Note_on_c, 0, 36, 49
5, 53760, Note_on_c, 0, 36, 0
5, 53760, Note_on_c, 0, 48, 62
5, 55200, Note_on_c, 0, 48, 0
5, 55200, Note_on_c, 0, 47, 62
5, 56160, Note_on_c, 0, 47, 0
5, 56160, Note_on_c, 0, 35, 62
5, 56640, Note_on_c, 0, 35, 0
5, 56640, Note_on_c, 0, 47, 49
5, 57600, Note_on_c, 0, 47, 0
5, 57600, Note_on_c, 0, 35, 49
5, 58080, Note_on_c, 0, 35, 0
5, 58080, Note_on_c, 0, 40, 49
5, 58080, Note_on_c, 0, 47, 49
5, 59520, Note_on_c, 0, 47, 0
5, 59520, Note_on_c, 0, 40, 0
5, 59520, Note_on_c, 0, 42, 49
5, 59520, Note_on_c, 0, 47, 49
5, 60960, Note_on_c, 0, 47, 0
5, 60960, Note_on_c, 0, 42, 0
5, 60960, Note_on_c, 0, 40, 49
5, 60960, Note_on_c, 0, 47, 49
5, 62400, Note_on_c, 0, 47, 0
5, 62400, Note_on_c, 0, 40, 0
5, 62400, Note_on_c, 0, 35, 49
5, 62400, Note_on_c, 0, 47, 49
5, 63840, Note_on_c, 0, 47, 0
5, 63840, Note_on_c, 0, 35, 0
5, 63840, Note_on_c, 0, 40, 49
5, 63840, Note_on_c, 0, 47, 49
5, 65280, Note_on_c, 0, 47, 0
5, 65280, Note_on_c, 0, 40, 0
5, 65280, Note_on_c, 0, 39, 49
5, 65280, Note_on_c, 0, 47, 49
5, 66720, Note_on_c, 0, 47, 0
5, 66720, Note_on_c, 0, 39, 0
5, 66720, Note_on_c, 0, 35, 62
5, 66720, Note_on_c, 0, 47, 62
5, 67680, Note_on_c, 0, 47, 0
5, 67680, Note_on_c, 0, 35, 0
5, 67680, Note_on_c, 0, 47, 75
5, 68160, Note_on_c, 0, 47, 0
5, 68160, Control_c, 0, 64, 127
5, 68160, Note_on_c, 0, 40, 62
5, 68160, Note_on_c, 0, 47, 62
5, 69120, Note_on_c, 0, 47, 0
5, 69120, Note_on_c, 0, 40, 0
5, 70560, Control_c, 0, 64, 0
5, 70560, End_track
0, 0, End_of_file
