0, 0, Header, 1, 5, 480
1, 0, Start_track
1, 0, Title_t, "brahms waltzes op39 no9 4hands"
1, 0, Copyright_t, "Segundo G. Yogore,  2004,  dody@info.com.ph \012__________________________________________________________\012Kunst der Fuge comment: this is the Contributor's property.\012Can *not* be used for commercial purposes without authorization!\012Copyright by Contributor - Kunst der Fuge, © 2002-05\012http://www.kunstderfuge.com/thanks.htm -> Contributors' list\012http://www.kunstderfuge.com/notes.htm -> Terms & conditions"
1, 0, Text_t, "sequenced by Segundo G. Yogore,  2004\012"
1, 0, Time_signature, 1, 2, 24, 8
1, 0, Key_signature, -1, "major"
1, 0, Tempo, 400000
1, 480, Time_signature, 3, 2, 24, 8
1, 9360, Tempo, 408163
1, 9600, Tempo, 416667
1, 9840, Tempo, 425532
1, 10080, Tempo, 437956
1, 10320, Tempo, 447761
1, 10560, Time_signature, 2, 2, 24, 8
1, 10560, Tempo, 458015
1, 10800, Tempo, 468750
1, 11040, Tempo, 483871
1, 11520, Time_signature, 1, 2, 24, 8
1, 11520, Tempo, 400000
1, 12000, Time_signature, 3, 2, 24, 8
1, 20880, Tempo, 408163
1, 21120, Tempo, 416667
1, 21360, Tempo, 425532
1, 21600, Tempo, 437956
1, 21840, Tempo, 447761
1, 22080, Time_signature, 2, 2, 24, 8
1, 22080, Tempo, 458015
1, 22320, Tempo, 468750
1, 22560, Tempo, 483871
1, 23040, Time_signature, 1, 2, 24, 8
1, 23040, Tempo, 400000
1, 23520, Time_signature, 3, 2, 24, 8
1, 32400, Tempo, 408163
1, 32640, Tempo, 416667
1, 32880, Tempo, 425532
1, 33120, Tempo, 437956
1, 33360, Tempo, 447761
1, 33600, Tempo, 458015
1, 33840, Tempo, 468750
1, 34080, Tempo, 483871
1, 35040, Tempo, 400000
1, 43920, Tempo, 408163
1, 44160, Tempo, 416667
1, 44400, Tempo, 425532
1, 44640, Tempo, 437956
1, 44880, Tempo, 447761
1, 45120, Time_signature, 2, 2, 24, 8
1, 45120, Tempo, 458015
1, 45360, Tempo, 468750
1, 45600, Tempo, 483871
1, 46080, Time_signature, 1, 2, 24, 8
1, 46080, Tempo, 400000
1, 46560, Time_signature, 3, 2, 24, 8
1, 55440, Tempo, 408163
1, 55680, Tempo, 416667
1, 55920, Tempo, 425532
1, 56160, Tempo, 437956
1, 56400, Tempo, 447761
1, 56640, Tempo, 458015
1, 56880, Tempo, 468750
1, 57120, Tempo, 483871
1, 58080, Tempo, 400000
1, 66960, Tempo, 416667
1, 67200, Tempo, 434783
1, 67440, Tempo, 454545
1, 67680, Tempo, 483871
1, 67920, Tempo, 508475
1, 68160, Time_signature, 6, 2, 24, 8
1, 68160, End_track
2, 0, Start_track
2, 0, Title_t, "Grand Piano"
2, 0, Program_c, 0, 0
2, 0, Control_c, 0, 7, 115
2, 0, Control_c, 0, 10, 95
2, 0, Note_on_c, 0, 74, 62
2, 480, Note_on_c, 0, 74, 0
2, 480, Note_on_c, 0, 69, 62
2, 960, Note_on_c, 0, 69, 0
2, 1440, Note_on_c, 0, 77, 62
2, 1920, Note_on_c, 0, 77, 0
2, 1920, Note_on_c, 0, 73, 62
2, 2400, Note_on_c, 0, 73, 0
2, 2880, Note_on_c, 0, 76, 62
2, 3360, Note_on_c, 0, 76, 0
2, 3360, Note_on_c, 0, 69, 62
2, 3840, Note_on_c, 0, 69, 0
2, 4320, Note_on_c, 0, 81, 75
2, 4800, Note_on_c, 0, 81, 0
2, 4800, Note_on_c, 0, 74, 75
2, 5280, Note_on_c, 0, 74, 0
2, 5760, Note_on_c, 0, 82, 88
2, 6240, Note_on_c, 0, 82, 0
2, 6240, Note_on_c, 0, 73, 88
2, 6720, Note_on_c, 0, 73, 0
2, 7200, Note_on_c, 0, 81, 88
2, 7680, Note_on_c, 0, 81, 0
2, 7680, Note_on_c, 0, 72, 88
2, 8160, Note_on_c, 0, 72, 0
2, 8640, Note_on_c, 0, 79, 88
2, 9120, Note_on_c, 0, 79, 0
2, 9120, Note_on_c, 0, 70, 88
2, 9600, Note_on_c, 0, 70, 0
2, 9600, Note_on_c, 0, 75, 101
2, 10080, Note_on_c, 0, 75, 0
2, 10080, Note_on_c, 0, 69, 75
2, 10560, Note_on_c, 0, 69, 0
2, 10560, Note_on_c, 0, 69, 62
2, 11520, Note_on_c, 0, 69, 0
2, 11520, Note_on_c, 0, 74, 62
2, 12000, Note_on_c, 0, 74, 0
2, 12000, Note_on_c, 0, 69, 62
2, 12480, Note_on_c, 0, 69, 0
2, 12960, Note_on_c, 0, 77, 62
2, 13440, Note_on_c, 0, 77, 0
2, 13440, Note_on_c, 0, 73, 62
2, 13920, Note_on_c, 0, 73, 0
2, 14400, Note_on_c, 0, 76, 62
2, 14880, Note_on_c, 0, 76, 0
2, 14880, Note_on_c, 0, 69, 62
2, 15360, Note_on_c, 0, 69, 0
2, 15840, Note_on_c, 0, 81, 75
2, 16320, Note_on_c, 0, 81, 0
2, 16320, Note_on_c, 0, 74, 75
2, 16800, Note_on_c, 0, 74, 0
2, 17280, Note_on_c, 0, 82, 88
2, 17760, Note_on_c, 0, 82, 0
2, 17760, Note_on_c, 0, 73, 88
2, 18240, Note_on_c, 0, 73, 0
2, 18720, Note_on_c, 0, 81, 88
2, 19200, Note_on_c, 0, 81, 0
2, 19200, Note_on_c, 0, 72, 88
2, 19680, Note_on_c, 0, 72, 0
2, 20160, Note_on_c, 0, 79, 88
2, 20640, Note_on_c, 0, 79, 0
2, 20640, Note_on_c, 0, 70, 88
2, 21120, Note_on_c, 0, 70, 0
2, 21120, Note_on_c, 0, 75, 101
2, 21600, Note_on_c, 0, 75, 0
2, 21600, Note_on_c, 0, 69, 75
2, 22080, Note_on_c, 0, 69, 0
2, 22080, Note_on_c, 0, 69, 62
2, 23040, Note_on_c, 0, 69, 0
2, 23040, Note_on_c, 0, 86, 62
2, 23520, Note_on_c, 0, 86, 0
2, 23520, Note_on_c, 0, 82, 62
2, 24000, Note_on_c, 0, 82, 0
2, 24480, Note_on_c, 0, 89, 62
2, 24960, Note_on_c, 0, 89, 0
2, 24960, Note_on_c, 0, 82, 62
2, 25440, Note_on_c, 0, 82, 0
2, 25920, Note_on_c, 0, 87, 62
2, 26400, Note_on_c, 0, 87, 0
2, 26400, Note_on_c, 0, 80, 62
2, 26880, Note_on_c, 0, 80, 0
2, 27360, Note_on_c, 0, 92, 62
2, 27840, Note_on_c, 0, 92, 0
2, 27840, Note_on_c, 0, 91, 62
2, 28320, Note_on_c, 0, 91, 0
2, 28800, Note_on_c, 0, 91, 75
2, 29760, Note_on_c, 0, 91, 0
2, 29760, Note_on_c, 0, 81, 75
2, 30240, Note_on_c, 0, 81, 0
2, 30240, Note_on_c, 0, 91, 75
2, 31200, Note_on_c, 0, 91, 0
2, 31200, Note_on_c, 0, 81, 75
2, 31680, Note_on_c, 0, 81, 0
2, 31680, Note_on_c, 0, 91, 88
2, 32640, Note_on_c, 0, 91, 0
2, 32640, Note_on_c, 0, 85, 88
2, 33120, Note_on_c, 0, 85, 0
2, 33120, Note_on_c, 0, 93, 88
2, 34080, Note_on_c, 0, 93, 0
2, 34080, Note_on_c, 0, 86, 88
2, 34560, Note_on_c, 0, 86, 0
2, 34560, Note_on_c, 0, 86, 88
2, 34560, Note_on_c, 0, 98, 88
2, 35040, Note_on_c, 0, 98, 0
2, 35040, Note_on_c, 0, 86, 0
2, 35040, Note_on_c, 0, 94, 62
2, 35520, Note_on_c, 0, 94, 0
2, 36000, Note_on_c, 0, 79, 62
2, 36000, Note_on_c, 0, 91, 62
2, 36480, Note_on_c, 0, 91, 0
2, 36480, Note_on_c, 0, 79, 0
2, 36480, Note_on_c, 0, 88, 62
2, 36960, Note_on_c, 0, 88, 0
2, 37440, Note_on_c, 0, 84, 62
2, 37440, Note_on_c, 0, 96, 62
2, 37920, Note_on_c, 0, 96, 0
2, 37920, Note_on_c, 0, 84, 0
2, 37920, Note_on_c, 0, 93, 62
2, 38400, Note_on_c, 0, 93, 0
2, 38880, Note_on_c, 0, 77, 62
2, 38880, Note_on_c, 0, 89, 62
2, 39360, Note_on_c, 0, 89, 0
2, 39360, Note_on_c, 0, 77, 0
2, 39360, Note_on_c, 0, 86, 62
2, 39840, Note_on_c, 0, 86, 0
2, 40320, Note_on_c, 0, 82, 62
2, 40320, Note_on_c, 0, 94, 62
2, 40800, Note_on_c, 0, 94, 0
2, 40800, Note_on_c, 0, 82, 0
2, 40800, Note_on_c, 0, 92, 62
2, 41280, Note_on_c, 0, 92, 0
2, 41760, Note_on_c, 0, 81, 62
2, 41760, Note_on_c, 0, 93, 62
2, 42240, Note_on_c, 0, 93, 0
2, 42240, Note_on_c, 0, 81, 0
2, 42240, Note_on_c, 0, 90, 62
2, 42720, Note_on_c, 0, 90, 0
2, 43200, Note_on_c, 0, 79, 62
2, 43200, Note_on_c, 0, 91, 62
2, 43680, Note_on_c, 0, 91, 0
2, 43680, Note_on_c, 0, 79, 0
2, 43680, Note_on_c, 0, 88, 62
2, 44160, Note_on_c, 0, 88, 0
2, 44160, Note_on_c, 0, 80, 62
2, 44160, Note_on_c, 0, 89, 62
2, 44640, Note_on_c, 0, 89, 0
2, 44640, Note_on_c, 0, 80, 0
2, 44640, Note_on_c, 0, 86, 62
2, 45120, Note_on_c, 0, 86, 0
2, 45120, Note_on_c, 0, 81, 62
2, 45120, Note_on_c, 0, 85, 62
2, 46080, Note_on_c, 0, 85, 0
2, 46080, Note_on_c, 0, 81, 0
2, 46080, Note_on_c, 0, 98, 62
2, 46560, Note_on_c, 0, 98, 0
2, 46560, Note_on_c, 0, 94, 62
2, 47040, Note_on_c, 0, 94, 0
2, 47520, Note_on_c, 0, 101, 62
2, 48000, Note_on_c, 0, 101, 0
2, 48000, Note_on_c, 0, 94, 62
2, 48480, Note_on_c, 0, 94, 0
2, 48960, Note_on_c, 0, 99, 62
2, 49440, Note_on_c, 0, 99, 0
2, 49440, Note_on_c, 0, 92, 62
2, 49920, Note_on_c, 0, 92, 0
2, 50400, Note_on_c, 0, 92, 62
2, 50880, Note_on_c, 0, 92, 0
2, 50880, Note_on_c, 0, 91, 62
2, 51360, Note_on_c, 0, 91, 0
2, 51840, Note_on_c, 0, 91, 75
2, 52800, Note_on_c, 0, 91, 0
2, 52800, Note_on_c, 0, 81, 75
2, 53280, Note_on_c, 0, 81, 0
2, 53280, Note_on_c, 0, 91, 75
2, 54240, Note_on_c, 0, 91, 0
2, 54240, Note_on_c, 0, 81, 75
2, 54720, Note_on_c, 0, 81, 0
2, 54720, Note_on_c, 0, 91, 88
2, 55680, Note_on_c, 0, 91, 0
2, 55680, Note_on_c, 0, 85, 88
2, 56160, Note_on_c, 0, 85, 0
2, 56160, Note_on_c, 0, 93, 88
2, 57120, Note_on_c, 0, 93, 0
2, 57120, Note_on_c, 0, 86, 88
2, 57600, Note_on_c, 0, 86, 0
2, 57600, Note_on_c, 0, 86, 88
2, 57600, Note_on_c, 0, 98, 88
2, 58080, Note_on_c, 0, 98, 0
2, 58080, Note_on_c, 0, 86, 0
2, 58080, Note_on_c, 0, 94, 62
2, 58560, Note_on_c, 0, 94, 0
2, 59040, Note_on_c, 0, 79, 62
2, 59040, Note_on_c, 0, 91, 62
2, 59520, Note_on_c, 0, 91, 0
2, 59520, Note_on_c, 0, 79, 0
2, 59520, Note_on_c, 0, 88, 62
2, 60000, Note_on_c, 0, 88, 0
2, 60480, Note_on_c, 0, 84, 62
2, 60480, Note_on_c, 0, 96, 62
2, 60960, Note_on_c, 0, 96, 0
2, 60960, Note_on_c, 0, 84, 0
2, 60960, Note_on_c, 0, 93, 62
2, 61440, Note_on_c, 0, 93, 0
2, 61920, Note_on_c, 0, 77, 62
2, 61920, Note_on_c, 0, 89, 62
2, 62400, Note_on_c, 0, 89, 0
2, 62400, Note_on_c, 0, 77, 0
2, 62400, Note_on_c, 0, 86, 62
2, 62880, Note_on_c, 0, 86, 0
2, 63360, Note_on_c, 0, 77, 62
2, 63360, Note_on_c, 0, 89, 62
2, 63840, Note_on_c, 0, 89, 0
2, 63840, Note_on_c, 0, 77, 0
2, 63840, Note_on_c, 0, 80, 62
2, 64320, Note_on_c, 0, 80, 0
2, 64800, Note_on_c, 0, 76, 62
2, 64800, Note_on_c, 0, 88, 62
2, 65280, Note_on_c, 0, 88, 0
2, 65280, Note_on_c, 0, 76, 0
2, 65280, Note_on_c, 0, 79, 62
2, 65760, Note_on_c, 0, 79, 0
2, 66240, Note_on_c, 0, 74, 62
2, 66240, Note_on_c, 0, 86, 62
2, 66720, Note_on_c, 0, 86, 0
2, 66720, Note_on_c, 0, 74, 0
2, 66720, Note_on_c, 0, 77, 62
2, 67200, Note_on_c, 0, 77, 0
2, 67200, Note_on_c, 0, 74, 62
2, 67200, Note_on_c, 0, 82, 62
2, 67680, Note_on_c, 0, 82, 0
2, 67680, Note_on_c, 0, 74, 0
2, 67680, Note_on_c, 0, 76, 62
2, 68160, Note_on_c, 0, 76, 0
2, 68160, Control_c, 0, 64, 127
2, 68160, Note_on_c, 0, 73, 62
2, 68160, Note_on_c, 0, 76, 62
2, 69120, Note_on_c, 0, 76, 0
2, 69120, Note_on_c, 0, 73, 0
2, 70560, Control_c, 0, 64, 0
2, 70560, End_track
3, 0, Start_track
3, 0, Title_t, "Instrument17"
3, 0, Program_c, 0, 0
3, 0, Control_c, 0, 7, 115
3, 0, Control_c, 0, 10, 79
3, 9600, Note_on_c, 0, 67, 62
3, 10560, Note_on_c, 0, 67, 0
3, 10560, Note_on_c, 0, 66, 49
3, 11520, Note_on_c, 0, 66, 0
3, 21120, Note_on_c, 0, 67, 62
3, 22080, Note_on_c, 0, 67, 0
3, 22080, Note_on_c, 0, 66, 49
3, 23040, Note_on_c, 0, 66, 0
3, 23040, Note_on_c, 0, 74, 62
3, 23520, Note_on_c, 0, 74, 0
3, 23520, Note_on_c, 0, 70, 62
3, 24000, Note_on_c, 0, 70, 0
3, 24480, Note_on_c, 0, 77, 62
3, 24960, Note_on_c, 0, 77, 0
3, 24960, Note_on_c, 0, 70, 62
3, 25440, Note_on_c, 0, 70, 0
3, 25920, Note_on_c, 0, 75, 62
3, 26400, Note_on_c, 0, 75, 0
3, 26400, Note_on_c, 0, 68, 62
3, 26880, Note_on_c, 0, 68, 0
3, 27360, Note_on_c, 0, 80, 62
3, 27840, Note_on_c, 0, 80, 0
3, 27840, Note_on_c, 0, 79, 62
3, 28320, Note_on_c, 0, 79, 0
3, 28800, Note_on_c, 0, 79, 75
3, 29760, Note_on_c, 0, 79, 0
3, 29760, Note_on_c, 0, 69, 75
3, 30240, Note_on_c, 0, 69, 0
3, 30240, Note_on_c, 0, 79, 75
3, 31200, Note_on_c, 0, 79, 0
3, 31200, Note_on_c, 0, 69, 75
3, 31680, Note_on_c, 0, 69, 0
3, 31680, Note_on_c, 0, 79, 88
3, 32640, Note_on_c, 0, 79, 0
3, 32640, Note_on_c, 0, 73, 88
3, 33120, Note_on_c, 0, 73, 0
3, 33120, Note_on_c, 0, 81, 88
3, 34080, Note_on_c, 0, 81, 0
3, 34080, Note_on_c, 0, 74, 88
3, 34560, Note_on_c, 0, 74, 0
3, 35040, Note_on_c, 0, 74, 62
3, 35040, Note_on_c, 0, 82, 62
3, 35520, Note_on_c, 0, 82, 0
3, 35520, Note_on_c, 0, 74, 0
3, 35520, Note_on_c, 0, 70, 62
3, 36000, Note_on_c, 0, 70, 0
3, 36480, Note_on_c, 0, 67, 62
3, 36480, Note_on_c, 0, 76, 62
3, 36960, Note_on_c, 0, 76, 0
3, 36960, Note_on_c, 0, 67, 0
3, 36960, Note_on_c, 0, 64, 62
3, 37440, Note_on_c, 0, 64, 0
3, 37920, Note_on_c, 0, 72, 62
3, 37920, Note_on_c, 0, 81, 62
3, 38400, Note_on_c, 0, 81, 0
3, 38400, Note_on_c, 0, 72, 0
3, 38400, Note_on_c, 0, 69, 62
3, 38880, Note_on_c, 0, 69, 0
3, 39360, Note_on_c, 0, 65, 62
3, 39360, Note_on_c, 0, 74, 62
3, 39840, Note_on_c, 0, 74, 0
3, 39840, Note_on_c, 0, 65, 0
3, 39840, Note_on_c, 0, 62, 62
3, 40320, Note_on_c, 0, 62, 0
3, 40800, Note_on_c, 0, 77, 62
3, 40800, Note_on_c, 0, 80, 62
3, 41280, Note_on_c, 0, 80, 0
3, 41280, Note_on_c, 0, 77, 0
3, 41280, Note_on_c, 0, 74, 62
3, 41760, Note_on_c, 0, 74, 0
3, 42240, Note_on_c, 0, 76, 62
3, 42240, Note_on_c, 0, 78, 62
3, 42720, Note_on_c, 0, 78, 0
3, 42720, Note_on_c, 0, 76, 0
3, 42720, Note_on_c, 0, 69, 62
3, 43200, Note_on_c, 0, 69, 0
3, 43680, Note_on_c, 0, 74, 62
3, 43680, Note_on_c, 0, 76, 62
3, 44160, Note_on_c, 0, 76, 0
3, 44160, Note_on_c, 0, 74, 0
3, 44160, Note_on_c, 0, 68, 62
3, 44160, Note_on_c, 0, 77, 62
3, 44640, Note_on_c, 0, 77, 0
3, 44640, Note_on_c, 0, 68, 0
3, 44640, Note_on_c, 0, 74, 62
3, 45120, Note_on_c, 0, 74, 0
3, 45120, Note_on_c, 0, 69, 62
3, 45120, Note_on_c, 0, 73, 62
3, 46080, Note_on_c, 0, 73, 0
3, 46080, Note_on_c, 0, 69, 0
3, 46080, Note_on_c, 0, 74, 62
3, 46560, Note_on_c, 0, 74, 0
3, 46560, Note_on_c, 0, 70, 62
3, 47040, Note_on_c, 0, 70, 0
3, 47520, Note_on_c, 0, 77, 62
3, 48000, Note_on_c, 0, 77, 0
3, 48000, Note_on_c, 0, 70, 62
3, 48480, Note_on_c, 0, 70, 0
3, 48960, Note_on_c, 0, 75, 62
3, 49440, Note_on_c, 0, 75, 0
3, 49440, Note_on_c, 0, 68, 62
3, 49920, Note_on_c, 0, 68, 0
3, 50400, Note_on_c, 0, 80, 62
3, 50880, Note_on_c, 0, 80, 0
3, 50880, Note_on_c, 0, 79, 62
3, 51360, Note_on_c, 0, 79, 0
3, 51840, Note_on_c, 0, 79, 75
3, 52800, Note_on_c, 0, 79, 0
3, 52800, Note_on_c, 0, 69, 75
3, 53280, Note_on_c, 0, 69, 0
3, 53280, Note_on_c, 0, 79, 75
3, 54240, Note_on_c, 0, 79, 0
3, 54240, Note_on_c, 0, 69, 75
3, 54720, Note_on_c, 0, 69, 0
3, 54720, Note_on_c, 0, 79, 88
3, 55680, Note_on_c, 0, 79, 0
3, 55680, Note_on_c, 0, 73, 88
3, 56160, Note_on_c, 0, 73, 0
3, 56160, Note_on_c, 0, 81, 88
3, 57120, Note_on_c, 0, 81, 0
3, 57120, Note_on_c, 0, 74, 88
3, 57600, Note_on_c, 0, 74, 0
3, 58080, Note_on_c, 0, 74, 62
3, 58080, Note_on_c, 0, 82, 62
3, 58560, Note_on_c, 0, 82, 0
3, 58560, Note_on_c, 0, 74, 0
3, 58560, Note_on_c, 0, 70, 62
3, 59040, Note_on_c, 0, 70, 0
3, 59520, Note_on_c, 0, 67, 62
3, 59520, Note_on_c, 0, 76, 62
3, 60000, Note_on_c, 0, 76, 0
3, 60000, Note_on_c, 0, 67, 0
3, 60000, Note_on_c, 0, 64, 62
3, 60480, Note_on_c, 0, 64, 0
3, 60960, Note_on_c, 0, 72, 62
3, 60960, Note_on_c, 0, 81, 62
3, 61440, Note_on_c, 0, 81, 0
3, 61440, Note_on_c, 0, 72, 0
3, 61440, Note_on_c, 0, 69, 62
3, 61920, Note_on_c, 0, 69, 0
3, 62400, Note_on_c, 0, 65, 62
3, 62400, Note_on_c, 0, 74, 62
3, 62880, Note_on_c, 0, 74, 0
3, 62880, Note_on_c, 0, 65, 0
3, 62880, Note_on_c, 0, 62, 62
3, 63360, Note_on_c, 0, 62, 0
3, 63840, Note_on_c, 0, 65, 62
3, 63840, Note_on_c, 0, 68, 62
3, 64320, Note_on_c, 0, 68, 0
3, 64320, Note_on_c, 0, 65, 0
3, 64320, Note_on_c, 0, 62, 62
3, 64800, Note_on_c, 0, 62, 0
3, 65280, Note_on_c, 0, 64, 62
3, 65280, Note_on_c, 0, 67, 62
3, 65760, Note_on_c, 0, 67, 0
3, 65760, Note_on_c, 0, 64, 0
3, 65760, Note_on_c, 0, 57, 62
3, 66240, Note_on_c, 0, 57, 0
3, 66720, Note_on_c, 0, 62, 62
3, 66720, Note_on_c, 0, 65, 62
3, 67200, Note_on_c, 0, 65, 0
3, 67200, Note_on_c, 0, 62, 0
3, 67200, Note_on_c, 0, 62, 62
3, 67200, Note_on_c, 0, 70, 62
3, 67680, Note_on_c, 0, 70, 0
3, 67680, Note_on_c, 0, 62, 0
3, 67680, Note_on_c, 0, 64, 62
3, 68160, Note_on_c, 0, 64, 0
3, 68160, Control_c, 0, 64, 127
3, 68160, Note_on_c, 0, 61, 62
3, 68160, Note_on_c, 0, 64, 62
3, 69120, Note_on_c, 0, 64, 0
3, 69120, Note_on_c, 0, 61, 0
3, 70560, Control_c, 0, 64, 0
3, 70560, End_track
4, 0, Start_track
4, 0, Title_t, "Instrument18"
4, 0, Program_c, 0, 0
4, 0, Control_c, 0, 7, 115
4, 0, Control_c, 0, 10, 47
4, 960, Note_on_c, 0, 53, 49
4, 960, Note_on_c, 0, 57, 49
4, 960, Note_on_c, 0, 62, 49
4, 1440, Note_on_c, 0, 62, 0
4, 1440, Note_on_c, 0, 57, 0
4, 1440, Note_on_c, 0, 53, 0
4, 2400, Note_on_c, 0, 55, 49
4, 2400, Note_on_c, 0, 58, 49
4, 2400, Note_on_c, 0, 61, 49
4, 2880, Note_on_c, 0, 61, 0
4, 2880, Note_on_c, 0, 58, 0
4, 2880, Note_on_c, 0, 55, 0
4, 3840, Note_on_c, 0, 53, 49
4, 3840, Note_on_c, 0, 57, 49
4, 3840, Note_on_c, 0, 62, 49
4, 4320, Note_on_c, 0, 62, 0
4, 4320, Note_on_c, 0, 57, 0
4, 4320, Note_on_c, 0, 53, 0
4, 5280, Note_on_c, 0, 55, 62
4, 5280, Note_on_c, 0, 58, 62
4, 5280, Note_on_c, 0, 62, 62
4, 5760, Note_on_c, 0, 62, 0
4, 5760, Note_on_c, 0, 58, 0
4, 5760, Note_on_c, 0, 55, 0
4, 6720, Note_on_c, 0, 55, 75
4, 6720, Note_on_c, 0, 58, 75
4, 6720, Note_on_c, 0, 64, 75
4, 7200, Note_on_c, 0, 64, 0
4, 7200, Note_on_c, 0, 58, 0
4, 7200, Note_on_c, 0, 55, 0
4, 8160, Note_on_c, 0, 54, 75
4, 8160, Note_on_c, 0, 57, 75
4, 8160, Note_on_c, 0, 63, 75
4, 8640, Note_on_c, 0, 63, 0
4, 8640, Note_on_c, 0, 57, 0
4, 8640, Note_on_c, 0, 54, 0
4, 9120, Note_on_c, 0, 55, 75
4, 9120, Note_on_c, 0, 58, 75
4, 9120, Note_on_c, 0, 62, 75
4, 9600, Note_on_c, 0, 62, 0
4, 9600, Note_on_c, 0, 58, 0
4, 9600, Note_on_c, 0, 55, 0
4, 10080, Note_on_c, 0, 57, 62
4, 10080, Note_on_c, 0, 63, 62
4, 10560, Note_on_c, 0, 63, 0
4, 10560, Note_on_c, 0, 57, 0
4, 11040, Note_on_c, 0, 50, 49
4, 11040, Note_on_c, 0, 62, 49
4, 11520, Note_on_c, 0, 62, 0
4, 11520, Note_on_c, 0, 50, 0
4, 12480, Note_on_c, 0, 53, 49
4, 12480, Note_on_c, 0, 57, 49
4, 12480, Note_on_c, 0, 62, 49
4, 12960, Note_on_c, 0, 62, 0
4, 12960, Note_on_c, 0, 57, 0
4, 12960, Note_on_c, 0, 53, 0
4, 13920, Note_on_c, 0, 55, 49
4, 13920, Note_on_c, 0, 58, 49
4, 13920, Note_on_c, 0, 61, 49
4, 14400, Note_on_c, 0, 61, 0
4, 14400, Note_on_c, 0, 58, 0
4, 14400, Note_on_c, 0, 55, 0
4, 15360, Note_on_c, 0, 53, 49
4, 15360, Note_on_c, 0, 57, 49
4, 15360, Note_on_c, 0, 62, 49
4, 15840, Note_on_c, 0, 62, 0
4, 15840, Note_on_c, 0, 57, 0
4, 15840, Note_on_c, 0, 53, 0
4, 16800, Note_on_c, 0, 55, 62
4, 16800, Note_on_c, 0, 58, 62
4, 16800, Note_on_c, 0, 62, 62
4, 17280, Note_on_c, 0, 62, 0
4, 17280, Note_on_c, 0, 58, 0
4, 17280, Note_on_c, 0, 55, 0
4, 18240, Note_on_c, 0, 55, 75
4, 18240, Note_on_c, 0, 58, 75
4, 18240, Note_on_c, 0, 64, 75
4, 18720, Note_on_c, 0, 64, 0
4, 18720, Note_on_c, 0, 58, 0
4, 18720, Note_on_c, 0, 55, 0
4, 19680, Note_on_c, 0, 54, 75
4, 19680, Note_on_c, 0, 57, 75
4, 19680, Note_on_c, 0, 63, 75
4, 20160, Note_on_c, 0, 63, 0
4, 20160, Note_on_c, 0, 57, 0
4, 20160, Note_on_c, 0, 54, 0
4, 20640, Note_on_c, 0, 55, 75
4, 20640, Note_on_c, 0, 58, 75
4, 20640, Note_on_c, 0, 62, 75
4, 21120, Note_on_c, 0, 62, 0
4, 21120, Note_on_c, 0, 58, 0
4, 21120, Note_on_c, 0, 55, 0
4, 21600, Note_on_c, 0, 57, 62
4, 21600, Note_on_c, 0, 63, 62
4, 22080, Note_on_c, 0, 63, 0
4, 22080, Note_on_c, 0, 57, 0
4, 22560, Note_on_c, 0, 50, 49
4, 22560, Note_on_c, 0, 62, 49
4, 23040, Note_on_c, 0, 62, 0
4, 23040, Note_on_c, 0, 50, 0
4, 24000, Note_on_c, 0, 53, 49
4, 24000, Note_on_c, 0, 56, 49
4, 24000, Note_on_c, 0, 58, 49
4, 24480, Note_on_c, 0, 58, 0
4, 24480, Note_on_c, 0, 56, 0
4, 24480, Note_on_c, 0, 53, 0
4, 25440, Note_on_c, 0, 51, 49
4, 25440, Note_on_c, 0, 55, 49
4, 25440, Note_on_c, 0, 58, 49
4, 25920, Note_on_c, 0, 58, 0
4, 25920, Note_on_c, 0, 55, 0
4, 25920, Note_on_c, 0, 51, 0
4, 26880, Note_on_c, 0, 53, 49
4, 26880, Note_on_c, 0, 58, 49
4, 26880, Note_on_c, 0, 62, 49
4, 27360, Note_on_c, 0, 62, 0
4, 27360, Note_on_c, 0, 58, 0
4, 27360, Note_on_c, 0, 53, 0
4, 28320, Note_on_c, 0, 51, 62
4, 28320, Note_on_c, 0, 58, 62
4, 28320, Note_on_c, 0, 63, 62
4, 28800, Note_on_c, 0, 63, 0
4, 28800, Note_on_c, 0, 58, 0
4, 28800, Note_on_c, 0, 51, 0
4, 29760, Note_on_c, 0, 57, 62
4, 29760, Note_on_c, 0, 64, 62
4, 29760, Note_on_c, 0, 67, 62
4, 30240, Note_on_c, 0, 67, 0
4, 30240, Note_on_c, 0, 64, 0
4, 30240, Note_on_c, 0, 57, 0
4, 31200, Note_on_c, 0, 57, 62
4, 31200, Note_on_c, 0, 62, 62
4, 31200, Note_on_c, 0, 67, 62
4, 31680, Note_on_c, 0, 67, 0
4, 31680, Note_on_c, 0, 62, 0
4, 31680, Note_on_c, 0, 57, 0
4, 32640, Note_on_c, 0, 57, 62
4, 32640, Note_on_c, 0, 67, 62
4, 33120, Note_on_c, 0, 67, 0
4, 33120, Note_on_c, 0, 57, 0
4, 34080, Note_on_c, 0, 57, 62
4, 34080, Note_on_c, 0, 62, 62
4, 34080, Note_on_c, 0, 69, 62
4, 34560, Note_on_c, 0, 69, 0
4, 34560, Note_on_c, 0, 62, 0
4, 34560, Note_on_c, 0, 57, 0
4, 35520, Note_on_c, 0, 58, 49
4, 35520, Note_on_c, 0, 62, 49
4, 35520, Note_on_c, 0, 65, 49
4, 36000, Note_on_c, 0, 65, 0
4, 36000, Note_on_c, 0, 62, 0
4, 36000, Note_on_c, 0, 58, 0
4, 36960, Note_on_c, 0, 58, 49
4, 36960, Note_on_c, 0, 60, 49
4, 37440, Note_on_c, 0, 60, 0
4, 37440, Note_on_c, 0, 58, 0
4, 38400, Note_on_c, 0, 57, 49
4, 38400, Note_on_c, 0, 60, 49
4, 38400, Note_on_c, 0, 64, 49
4, 38880, Note_on_c, 0, 64, 0
4, 38880, Note_on_c, 0, 60, 0
4, 38880, Note_on_c, 0, 57, 0
4, 39840, Note_on_c, 0, 57, 49
4, 39840, Note_on_c, 0, 58, 49
4, 40320, Note_on_c, 0, 58, 0
4, 40320, Note_on_c, 0, 57, 0
4, 41280, Note_on_c, 0, 62, 49
4, 41280, Note_on_c, 0, 65, 49
4, 41760, Note_on_c, 0, 65, 0
4, 41760, Note_on_c, 0, 62, 0
4, 42720, Note_on_c, 0, 57, 49
4, 42720, Note_on_c, 0, 64, 49
4, 43200, Note_on_c, 0, 64, 0
4, 43200, Note_on_c, 0, 57, 0
4, 44160, Note_on_c, 0, 50, 49
4, 44160, Note_on_c, 0, 62, 49
4, 44640, Note_on_c, 0, 62, 0
4, 44640, Note_on_c, 0, 50, 0
4, 45600, Note_on_c, 0, 57, 49
4, 46080, Note_on_c, 0, 57, 0
4, 47040, Note_on_c, 0, 53, 49
4, 47040, Note_on_c, 0, 56, 49
4, 47040, Note_on_c, 0, 58, 49
4, 47520, Note_on_c, 0, 58, 0
4, 47520, Note_on_c, 0, 56, 0
4, 47520, Note_on_c, 0, 53, 0
4, 48480, Note_on_c, 0, 51, 49
4, 48480, Note_on_c, 0, 55, 49
4, 48480, Note_on_c, 0, 58, 49
4, 48960, Note_on_c, 0, 58, 0
4, 48960, Note_on_c, 0, 55, 0
4, 48960, Note_on_c, 0, 51, 0
4, 49920, Note_on_c, 0, 53, 49
4, 49920, Note_on_c, 0, 58, 49
4, 49920, Note_on_c, 0, 62, 49
4, 50400, Note_on_c, 0, 62, 0
4, 50400, Note_on_c, 0, 58, 0
4, 50400, Note_on_c, 0, 53, 0
4, 51360, Note_on_c, 0, 51, 62
4, 51360, Note_on_c, 0, 58, 62
4, 51360, Note_on_c, 0, 63, 62
4, 51840, Note_on_c, 0, 63, 0
4, 51840, Note_on_c, 0, 58, 0
4, 51840, Note_on_c, 0, 51, 0
4, 52800, Note_on_c, 0, 57, 62
4, 52800, Note_on_c, 0, 64, 62
4, 52800, Note_on_c, 0, 67, 62
4, 53280, Note_on_c, 0, 67, 0
4, 53280, Note_on_c, 0, 64, 0
4, 53280, Note_on_c, 0, 57, 0
4, 54240, Note_on_c, 0, 57, 62
4, 54240, Note_on_c, 0, 62, 62
4, 54240, Note_on_c, 0, 67, 62
4, 54720, Note_on_c, 0, 67, 0
4, 54720, Note_on_c, 0, 62, 0
4, 54720, Note_on_c, 0, 57, 0
4, 55680, Note_on_c, 0, 57, 62
4, 55680, Note_on_c, 0, 67, 62
4, 56160, Note_on_c, 0, 67, 0
4, 56160, Note_on_c, 0, 57, 0
4, 57120, Note_on_c, 0, 57, 62
4, 57120, Note_on_c, 0, 62, 62
4, 57120, Note_on_c, 0, 69, 62
4, 57600, Note_on_c, 0, 69, 0
4, 57600, Note_on_c, 0, 62, 0
4, 57600, Note_on_c, 0, 57, 0
4, 58560, Note_on_c, 0, 58, 49
4, 58560, Note_on_c, 0, 62, 49
4, 58560, Note_on_c, 0, 65, 49
4, 59040, Note_on_c, 0, 65, 0
4, 59040, Note_on_c, 0, 62, 0
4, 59040, Note_on_c, 0, 58, 0
4, 60000, Note_on_c, 0, 58, 49
4, 60000, Note_on_c, 0, 60, 49
4, 60480, Note_on_c, 0, 60, 0
4, 60480, Note_on_c, 0, 58, 0
4, 61440, Note_on_c, 0, 57, 49
4, 61440, Note_on_c, 0, 60, 49
4, 61440, Note_on_c, 0, 64, 49
4, 61920, Note_on_c, 0, 64, 0
4, 61920, Note_on_c, 0, 60, 0
4, 61920, Note_on_c, 0, 57, 0
4, 62880, Note_on_c, 0, 57, 49
4, 62880, Note_on_c, 0, 58, 49
4, 63360, Note_on_c, 0, 58, 0
4, 63360, Note_on_c, 0, 57, 0
4, 64320, Note_on_c, 0, 50, 49
4, 64320, Note_on_c, 0, 53, 49
4, 64800, Note_on_c, 0, 53, 0
4, 64800, Note_on_c, 0, 50, 0
4, 65760, Note_on_c, 0, 49, 49
4, 65760, Note_on_c, 0, 52, 49
4, 66240, Note_on_c, 0, 52, 0
4, 66240, Note_on_c, 0, 49, 0
4, 66720, Note_on_c, 0, 50, 49
4, 67200, Note_on_c, 0, 50, 0
4, 67680, Note_on_c, 0, 52, 49
4, 68160, Note_on_c, 0, 52, 0
4, 68640, Note_on_c, 0, 45, 49
4, 68640, Note_on_c, 0, 57, 49
4, 69120, Note_on_c, 0, 57, 0
4, 69120, Note_on_c, 0, 45, 0
4, 69120, End_track
5, 0, Start_track
5, 0, Title_t, "Instrument19"
5, 0, Program_c, 0, 0
5, 0, Control_c, 0, 7, 115
5, 0, Control_c, 0, 10, 32
5, 480, Note_on_c, 0, 38, 62
5, 960, Note_on_c, 0, 38, 0
5, 1920, Note_on_c, 0, 40, 62
5, 2400, Note_on_c, 0, 40, 0
5, 3360, Note_on_c, 0, 41, 62
5, 3840, Note_on_c, 0, 41, 0
5, 4800, Note_on_c, 0, 43, 62
5, 5280, Note_on_c, 0, 43, 0
5, 6240, Note_on_c, 0, 43, 62
5, 6720, Note_on_c, 0, 43, 0
5, 7680, Note_on_c, 0, 42, 62
5, 8160, Note_on_c, 0, 42, 0
5, 9120, Note_on_c, 0, 43, 62
5, 9600, Note_on_c, 0, 43, 0
5, 9600, Note_on_c, 0, 36, 62
5, 9600, Note_on_c, 0, 48, 62
5, 10560, Note_on_c, 0, 48, 0
5, 10560, Note_on_c, 0, 36, 0
5, 10560, Note_on_c, 0, 38, 62
5, 11520, Note_on_c, 0, 38, 0
5, 12000, Note_on_c, 0, 38, 62
5, 12480, Note_on_c, 0, 38, 0
5, 13440, Note_on_c, 0, 40, 62
5, 13920, Note_on_c, 0, 40, 0
5, 14880, Note_on_c, 0, 41, 62
5, 15360, Note_on_c, 0, 41, 0
5, 16320, Note_on_c, 0, 43, 62
5, 16800, Note_on_c, 0, 43, 0
5, 17760, Note_on_c, 0, 43, 62
5, 18240, Note_on_c, 0, 43, 0
5, 19200, Note_on_c, 0, 42, 62
5, 19680, Note_on_c, 0, 42, 0
5, 20640, Note_on_c, 0, 43, 62
5, 21120, Note_on_c, 0, 43, 0
5, 21120, Note_on_c, 0, 36, 62
5, 21120, Note_on_c, 0, 48, 62
5, 22080, Note_on_c, 0, 48, 0
5, 22080, Note_on_c, 0, 36, 0
5, 22080, Note_on_c, 0, 38, 62
5, 23040, Note_on_c, 0, 38, 0
5, 23520, Note_on_c, 0, 44, 62
5, 24000, Note_on_c, 0, 44, 0
5, 24960, Note_on_c, 0, 43, 62
5, 25440, Note_on_c, 0, 43, 0
5, 26400, Note_on_c, 0, 41, 62
5, 26880, Note_on_c, 0, 41, 0
5, 27840, Note_on_c, 0, 39, 62
5, 28320, Note_on_c, 0, 39, 0
5, 29280, Note_on_c, 0, 37, 62
5, 29760, Note_on_c, 0, 37, 0
5, 30240, Note_on_c, 0, 49, 62
5, 30720, Note_on_c, 0, 49, 0
5, 30720, Note_on_c, 0, 38, 62
5, 31200, Note_on_c, 0, 38, 0
5, 31680, Note_on_c, 0, 50, 62
5, 32160, Note_on_c, 0, 50, 0
5, 32160, Note_on_c, 0, 40, 62
5, 32640, Note_on_c, 0, 40, 0
5, 33120, Note_on_c, 0, 52, 62
5, 33600, Note_on_c, 0, 52, 0
5, 33600, Note_on_c, 0, 42, 62
5, 34080, Note_on_c, 0, 42, 0
5, 34560, Note_on_c, 0, 54, 62
5, 35040, Note_on_c, 0, 54, 0
5, 35040, Note_on_c, 0, 43, 62
5, 35520, Note_on_c, 0, 43, 0
5, 36480, Note_on_c, 0, 48, 62
5, 36960, Note_on_c, 0, 48, 0
5, 37920, Note_on_c, 0, 41, 62
5, 38400, Note_on_c, 0, 41, 0
5, 39360, Note_on_c, 0, 46, 62
5, 39840, Note_on_c, 0, 46, 0
5, 40800, Note_on_c, 0, 47, 62
5, 41280, Note_on_c, 0, 47, 0
5, 42240, Note_on_c, 0, 49, 62
5, 42720, Note_on_c, 0, 49, 0
5, 43680, Note_on_c, 0, 38, 62
5, 44160, Note_on_c, 0, 38, 0
5, 44640, Note_on_c, 0, 34, 62
5, 45120, Note_on_c, 0, 34, 0
5, 45120, Note_on_c, 0, 33, 62
5, 45120, Note_on_c, 0, 45, 62
5, 45600, Note_on_c, 0, 45, 0
5, 45600, Note_on_c, 0, 33, 0
5, 46560, Note_on_c, 0, 44, 62
5, 47040, Note_on_c, 0, 44, 0
5, 48000, Note_on_c, 0, 43, 62
5, 48480, Note_on_c, 0, 43, 0
5, 49440, Note_on_c, 0, 41, 62
5, 49920, Note_on_c, 0, 41, 0
5, 50880, Note_on_c, 0, 39, 62
5, 51360, Note_on_c, 0, 39, 0
5, 52320, Note_on_c, 0, 37, 62
5, 52800, Note_on_c, 0, 37, 0
5, 53280, Note_on_c, 0, 49, 62
5, 53760, Note_on_c, 0, 49, 0
5, 53760, Note_on_c, 0, 38, 62
5, 54240, Note_on_c, 0, 38, 0
5, 54720, Note_on_c, 0, 50, 62
5, 55200, Note_on_c, 0, 50, 0
5, 55200, Note_on_c, 0, 40, 62
5, 55680, Note_on_c, 0, 40, 0
5, 56160, Note_on_c, 0, 52, 62
5, 56640, Note_on_c, 0, 52, 0
5, 56640, Note_on_c, 0, 42, 62
5, 57120, Note_on_c, 0, 42, 0
5, 57600, Note_on_c, 0, 54, 62
5, 58080, Note_on_c, 0, 54, 0
5, 58080, Note_on_c, 0, 43, 62
5, 58560, Note_on_c, 0, 43, 0
5, 59520, Note_on_c, 0, 48, 62
5, 60000, Note_on_c, 0, 48, 0
5, 60960, Note_on_c, 0, 41, 62
5, 61440, Note_on_c, 0, 41, 0
5, 62400, Note_on_c, 0, 46, 62
5, 62880, Note_on_c, 0, 46, 0
5, 63840, Note_on_c, 0, 35, 62
5, 63840, Note_on_c, 0, 47, 62
5, 64320, Note_on_c, 0, 47, 0
5, 64320, Note_on_c, 0, 35, 0
5, 65280, Note_on_c, 0, 37, 62
5, 65760, Note_on_c, 0, 37, 0
5, 66720, Note_on_c, 0, 38, 62
5, 67200, Note_on_c, 0, 38, 0
5, 67200, Note_on_c, 0, 31, 62
5, 67200, Note_on_c, 0, 43, 62
5, 68160, Note_on_c, 0, 43, 0
5, 68160, Note_on_c, 0, 31, 0
5, 68160, Note_on_c, 0, 33, 62
5, 69120, Note_on_c, 0, 33, 0
5, 69120, End_track
0, 0, End_of_file
