0, 0, Header, 1, 5, 480
1, 0, Start_track
1, 0, Title_t, "brahms waltzes op39 no10 4hands"
1, 0, Copyright_t, "Segundo G. Yogore,  2004,  dody@info.com.ph \012__________________________________________________________\012Kunst der Fuge comment: this is the Contributor's property.\012Can *not* be used for commercial purposes without authorization!\012Copyright by Contributor - Kunst der Fuge, © 2002-05\012http://www.kunstderfuge.com/thanks.htm -> Contributors' list\012http://www.kunstderfuge.com/notes.htm -> Terms & conditions"
1, 0, Text_t, "sequenced by Segundo G. Yogore,  2004\012"
1, 0, Time_signature, 3, 2, 24, 8
1, 0, Key_signature, 1, "major"
1, 0, Tempo, 300000
1, 11520, Tempo, 300000
1, 20400, Tempo, 304569
1, 20640, Tempo, 309278
1, 20880, Tempo, 314136
1, 21120, Tempo, 320856
1, 21360, Tempo, 326087
1, 21600, Tempo, 331492
1, 21840, Tempo, 337079
1, 22080, Tempo, 344828
1, 23040, Tempo, 300000
1, 34560, Tempo, 300000
1, 42000, Tempo, 304569
1, 42240, Tempo, 309278
1, 42480, Tempo, 314136
1, 42720, Tempo, 320856
1, 42960, Tempo, 326087
1, 43200, Tempo, 331492
1, 43440, Tempo, 342857
1, 43680, Tempo, 357143
1, 43920, Tempo, 363636
1, 44160, Tempo, 372671
1, 44400, Tempo, 379747
1, 44640, Time_signature, 6, 2, 24, 8
1, 44640, End_track
2, 0, Start_track
2, 0, Title_t, "Grand Piano"
2, 0, Program_c, 0, 0
2, 0, Control_c, 0, 7, 115
2, 0, Control_c, 0, 10, 95
2, 0, Control_c, 0, 64, 127
2, 0, Note_on_c, 0, 64, 62
2, 240, Note_on_c, 0, 64, 0
2, 240, Note_on_c, 0, 66, 62
2, 480, Note_on_c, 0, 66, 0
2, 480, Note_on_c, 0, 64, 62
2, 720, Note_on_c, 0, 64, 0
2, 720, Note_on_c, 0, 66, 62
2, 960, Note_on_c, 0, 66, 0
2, 960, Note_on_c, 0, 67, 75
2, 1200, Note_on_c, 0, 67, 0
2, 1200, Note_on_c, 0, 69, 75
2, 1440, Note_on_c, 0, 69, 0
2, 1440, Note_on_c, 0, 71, 75
2, 1920, Note_on_c, 0, 71, 0
2, 1920, Note_on_c, 0, 69, 75
2, 2400, Note_on_c, 0, 69, 0
2, 2400, Control_c, 0, 64, 0
2, 2400, Note_on_c, 0, 67, 62
2, 2880, Note_on_c, 0, 67, 0
2, 2880, Control_c, 0, 64, 127
2, 2880, Note_on_c, 0, 66, 62
2, 3120, Note_on_c, 0, 66, 0
2, 3120, Note_on_c, 0, 67, 62
2, 3360, Note_on_c, 0, 67, 0
2, 3360, Note_on_c, 0, 69, 62
2, 3600, Note_on_c, 0, 69, 0
2, 3600, Note_on_c, 0, 71, 62
2, 3840, Note_on_c, 0, 71, 0
2, 3840, Note_on_c, 0, 72, 75
2, 4080, Note_on_c, 0, 72, 0
2, 4080, Note_on_c, 0, 74, 75
2, 4320, Note_on_c, 0, 74, 0
2, 4320, Note_on_c, 0, 76, 75
2, 4800, Note_on_c, 0, 76, 0
2, 4800, Note_on_c, 0, 74, 75
2, 5280, Note_on_c, 0, 74, 0
2, 5280, Control_c, 0, 64, 0
2, 5280, Note_on_c, 0, 72, 62
2, 5760, Note_on_c, 0, 72, 0
2, 5760, Note_on_c, 0, 71, 62
2, 6000, Note_on_c, 0, 71, 0
2, 6000, Note_on_c, 0, 74, 62
2, 6240, Note_on_c, 0, 74, 0
2, 6240, Note_on_c, 0, 77, 62
2, 6480, Note_on_c, 0, 77, 0
2, 6480, Note_on_c, 0, 81, 62
2, 6720, Note_on_c, 0, 81, 0
2, 6720, Note_on_c, 0, 77, 62
2, 6960, Note_on_c, 0, 77, 0
2, 6960, Note_on_c, 0, 74, 62
2, 7200, Note_on_c, 0, 74, 0
2, 7200, Note_on_c, 0, 71, 62
2, 7440, Note_on_c, 0, 71, 0
2, 7440, Note_on_c, 0, 72, 62
2, 7680, Note_on_c, 0, 72, 0
2, 7680, Note_on_c, 0, 76, 62
2, 7920, Note_on_c, 0, 76, 0
2, 7920, Note_on_c, 0, 79, 62
2, 8160, Note_on_c, 0, 79, 0
2, 8160, Note_on_c, 0, 76, 62
2, 8400, Note_on_c, 0, 76, 0
2, 8400, Note_on_c, 0, 72, 62
2, 8640, Note_on_c, 0, 72, 0
2, 8640, Note_on_c, 0, 70, 62
2, 8880, Note_on_c, 0, 70, 0
2, 8880, Note_on_c, 0, 71, 62
2, 9120, Note_on_c, 0, 71, 0
2, 9120, Note_on_c, 0, 74, 62
2, 9360, Note_on_c, 0, 74, 0
2, 9360, Note_on_c, 0, 79, 62
2, 9600, Note_on_c, 0, 79, 0
2, 9600, Note_on_c, 0, 74, 62
2, 9840, Note_on_c, 0, 74, 0
2, 9840, Note_on_c, 0, 71, 62
2, 10080, Note_on_c, 0, 71, 0
2, 10080, Control_c, 0, 64, 127
2, 10080, Note_on_c, 0, 68, 62
2, 10320, Note_on_c, 0, 68, 0
2, 10320, Note_on_c, 0, 69, 62
2, 10560, Note_on_c, 0, 69, 0
2, 10560, Note_on_c, 0, 72, 62
2, 10800, Note_on_c, 0, 72, 0
2, 10800, Note_on_c, 0, 69, 62
2, 11040, Note_on_c, 0, 69, 0
2, 11040, Note_on_c, 0, 67, 62
2, 11280, Note_on_c, 0, 67, 0
2, 11280, Control_c, 0, 64, 0
2, 11280, Note_on_c, 0, 66, 62
2, 11520, Note_on_c, 0, 66, 0
2, 11520, Control_c, 0, 64, 127
2, 11520, Note_on_c, 0, 64, 62
2, 11760, Note_on_c, 0, 64, 0
2, 11760, Note_on_c, 0, 66, 62
2, 12000, Note_on_c, 0, 66, 0
2, 12000, Note_on_c, 0, 64, 62
2, 12240, Note_on_c, 0, 64, 0
2, 12240, Note_on_c, 0, 66, 62
2, 12480, Note_on_c, 0, 66, 0
2, 12480, Note_on_c, 0, 67, 75
2, 12720, Note_on_c, 0, 67, 0
2, 12720, Note_on_c, 0, 69, 75
2, 12960, Note_on_c, 0, 69, 0
2, 12960, Note_on_c, 0, 71, 75
2, 13440, Note_on_c, 0, 71, 0
2, 13440, Note_on_c, 0, 69, 75
2, 13920, Note_on_c, 0, 69, 0
2, 13920, Control_c, 0, 64, 0
2, 13920, Note_on_c, 0, 67, 62
2, 14400, Note_on_c, 0, 67, 0
2, 14400, Control_c, 0, 64, 127
2, 14400, Note_on_c, 0, 66, 62
2, 14640, Note_on_c, 0, 66, 0
2, 14640, Note_on_c, 0, 67, 62
2, 14880, Note_on_c, 0, 67, 0
2, 14880, Note_on_c, 0, 69, 62
2, 15120, Note_on_c, 0, 69, 0
2, 15120, Note_on_c, 0, 71, 62
2, 15360, Note_on_c, 0, 71, 0
2, 15360, Note_on_c, 0, 72, 75
2, 15600, Note_on_c, 0, 72, 0
2, 15600, Note_on_c, 0, 74, 75
2, 15840, Note_on_c, 0, 74, 0
2, 15840, Note_on_c, 0, 76, 75
2, 16320, Note_on_c, 0, 76, 0
2, 16320, Note_on_c, 0, 74, 75
2, 16800, Note_on_c, 0, 74, 0
2, 16800, Control_c, 0, 64, 0
2, 16800, Note_on_c, 0, 72, 62
2, 17280, Note_on_c, 0, 72, 0
2, 17280, Note_on_c, 0, 71, 62
2, 17520, Note_on_c, 0, 71, 0
2, 17520, Note_on_c, 0, 74, 62
2, 17760, Note_on_c, 0, 74, 0
2, 17760, Note_on_c, 0, 77, 62
2, 18000, Note_on_c, 0, 77, 0
2, 18000, Note_on_c, 0, 81, 62
2, 18240, Note_on_c, 0, 81, 0
2, 18240, Note_on_c, 0, 77, 62
2, 18480, Note_on_c, 0, 77, 0
2, 18480, Note_on_c, 0, 74, 62
2, 18720, Note_on_c, 0, 74, 0
2, 18720, Note_on_c, 0, 71, 62
2, 18960, Note_on_c, 0, 71, 0
2, 18960, Note_on_c, 0, 72, 62
2, 19200, Note_on_c, 0, 72, 0
2, 19200, Note_on_c, 0, 76, 62
2, 19440, Note_on_c, 0, 76, 0
2, 19440, Note_on_c, 0, 79, 62
2, 19680, Note_on_c, 0, 79, 0
2, 19680, Note_on_c, 0, 76, 62
2, 19920, Note_on_c, 0, 76, 0
2, 19920, Note_on_c, 0, 72, 62
2, 20160, Note_on_c, 0, 72, 0
2, 20160, Note_on_c, 0, 70, 62
2, 20400, Note_on_c, 0, 70, 0
2, 20400, Note_on_c, 0, 71, 62
2, 20640, Note_on_c, 0, 71, 0
2, 20640, Note_on_c, 0, 74, 62
2, 20880, Note_on_c, 0, 74, 0
2, 20880, Note_on_c, 0, 79, 62
2, 21120, Note_on_c, 0, 79, 0
2, 21120, Note_on_c, 0, 74, 62
2, 21360, Note_on_c, 0, 74, 0
2, 21360, Note_on_c, 0, 71, 62
2, 21600, Note_on_c, 0, 71, 0
2, 21600, Note_on_c, 0, 68, 62
2, 22320, Note_on_c, 0, 68, 0
2, 22320, Note_on_c, 0, 69, 62
2, 22560, Note_on_c, 0, 69, 0
2, 22560, Note_on_c, 0, 72, 62
2, 22800, Note_on_c, 0, 72, 0
2, 22800, Note_on_c, 0, 71, 62
2, 23040, Note_on_c, 0, 71, 0
2, 23040, Control_c, 0, 64, 127
2, 23040, Note_on_c, 0, 71, 62
2, 23280, Note_on_c, 0, 71, 0
2, 23280, Note_on_c, 0, 73, 62
2, 23520, Note_on_c, 0, 73, 0
2, 23520, Note_on_c, 0, 71, 62
2, 23760, Note_on_c, 0, 71, 0
2, 23760, Note_on_c, 0, 73, 62
2, 24000, Note_on_c, 0, 73, 0
2, 24000, Note_on_c, 0, 75, 75
2, 24240, Note_on_c, 0, 75, 0
2, 24240, Note_on_c, 0, 76, 75
2, 24480, Note_on_c, 0, 76, 0
2, 24480, Note_on_c, 0, 78, 75
2, 24960, Note_on_c, 0, 78, 0
2, 24960, Note_on_c, 0, 76, 75
2, 25440, Note_on_c, 0, 76, 0
2, 25440, Control_c, 0, 64, 0
2, 25440, Note_on_c, 0, 75, 62
2, 25920, Note_on_c, 0, 75, 0
2, 25920, Control_c, 0, 64, 127
2, 25920, Note_on_c, 0, 71, 62
2, 26160, Note_on_c, 0, 71, 0
2, 26160, Note_on_c, 0, 73, 62
2, 26400, Note_on_c, 0, 73, 0
2, 26400, Note_on_c, 0, 71, 62
2, 26640, Note_on_c, 0, 71, 0
2, 26640, Note_on_c, 0, 73, 62
2, 26880, Note_on_c, 0, 73, 0
2, 26880, Note_on_c, 0, 74, 75
2, 27120, Note_on_c, 0, 74, 0
2, 27120, Note_on_c, 0, 76, 75
2, 27360, Note_on_c, 0, 76, 0
2, 27360, Note_on_c, 0, 78, 75
2, 27840, Note_on_c, 0, 78, 0
2, 27840, Note_on_c, 0, 76, 75
2, 28320, Note_on_c, 0, 76, 0
2, 28320, Control_c, 0, 64, 0
2, 28320, Note_on_c, 0, 74, 62
2, 28800, Note_on_c, 0, 74, 0
2, 28800, Control_c, 0, 64, 127
2, 28800, Note_on_c, 0, 72, 62
2, 29040, Note_on_c, 0, 72, 0
2, 29040, Note_on_c, 0, 74, 62
2, 29280, Note_on_c, 0, 74, 0
2, 29280, Note_on_c, 0, 72, 62
2, 29520, Note_on_c, 0, 72, 0
2, 29520, Note_on_c, 0, 74, 62
2, 29760, Note_on_c, 0, 74, 0
2, 29760, Note_on_c, 0, 76, 75
2, 30000, Note_on_c, 0, 76, 0
2, 30000, Note_on_c, 0, 78, 75
2, 30240, Note_on_c, 0, 78, 0
2, 30240, Note_on_c, 0, 79, 75
2, 30720, Note_on_c, 0, 79, 0
2, 30720, Note_on_c, 0, 76, 75
2, 31200, Note_on_c, 0, 76, 0
2, 31200, Control_c, 0, 64, 0
2, 31200, Note_on_c, 0, 72, 62
2, 31500, Control_c, 0, 64, 127
2, 31500, Note_on_c, 0, 71, 62
2, 31560, Note_on_c, 0, 71, 0
2, 31560, Note_on_c, 0, 72, 62
2, 31620, Note_on_c, 0, 72, 0
2, 31620, Note_on_c, 0, 74, 62
2, 31680, Note_on_c, 0, 74, 0
2, 31680, Note_on_c, 0, 72, 0
2, 31680, Note_on_c, 0, 72, 62
2, 32160, Note_on_c, 0, 72, 0
2, 32160, Note_on_c, 0, 71, 62
2, 32640, Note_on_c, 0, 71, 0
2, 32640, Control_c, 0, 64, 0
2, 32640, Note_on_c, 0, 69, 75
2, 33120, Note_on_c, 0, 69, 0
2, 33120, Note_on_c, 0, 74, 75
2, 34080, Note_on_c, 0, 74, 0
2, 34080, Note_on_c, 0, 71, 62
2, 34560, Note_on_c, 0, 71, 0
2, 34560, Control_c, 0, 64, 127
2, 34560, Note_on_c, 0, 71, 62
2, 34800, Note_on_c, 0, 71, 0
2, 34800, Note_on_c, 0, 73, 62
2, 35040, Note_on_c, 0, 73, 0
2, 35040, Note_on_c, 0, 71, 62
2, 35280, Note_on_c, 0, 71, 0
2, 35280, Note_on_c, 0, 73, 62
2, 35520, Note_on_c, 0, 73, 0
2, 35520, Note_on_c, 0, 75, 75
2, 35760, Note_on_c, 0, 75, 0
2, 35760, Note_on_c, 0, 76, 75
2, 36000, Note_on_c, 0, 76, 0
2, 36000, Note_on_c, 0, 78, 75
2, 36480, Note_on_c, 0, 78, 0
2, 36480, Note_on_c, 0, 76, 75
2, 36960, Note_on_c, 0, 76, 0
2, 36960, Control_c, 0, 64, 0
2, 36960, Note_on_c, 0, 75, 62
2, 37440, Note_on_c, 0, 75, 0
2, 37440, Control_c, 0, 64, 127
2, 37440, Note_on_c, 0, 71, 62
2, 37680, Note_on_c, 0, 71, 0
2, 37680, Note_on_c, 0, 73, 62
2, 37920, Note_on_c, 0, 73, 0
2, 37920, Note_on_c, 0, 71, 62
2, 38160, Note_on_c, 0, 71, 0
2, 38160, Note_on_c, 0, 73, 62
2, 38400, Note_on_c, 0, 73, 0
2, 38400, Note_on_c, 0, 74, 75
2, 38640, Note_on_c, 0, 74, 0
2, 38640, Note_on_c, 0, 76, 75
2, 38880, Note_on_c, 0, 76, 0
2, 38880, Note_on_c, 0, 78, 75
2, 39360, Note_on_c, 0, 78, 0
2, 39360, Note_on_c, 0, 76, 75
2, 39840, Note_on_c, 0, 76, 0
2, 39840, Control_c, 0, 64, 0
2, 39840, Note_on_c, 0, 74, 62
2, 40320, Note_on_c, 0, 74, 0
2, 40320, Control_c, 0, 64, 127
2, 40320, Note_on_c, 0, 72, 62
2, 40560, Note_on_c, 0, 72, 0
2, 40560, Note_on_c, 0, 74, 62
2, 40800, Note_on_c, 0, 74, 0
2, 40800, Note_on_c, 0, 72, 62
2, 41040, Note_on_c, 0, 72, 0
2, 41040, Note_on_c, 0, 74, 62
2, 41280, Note_on_c, 0, 74, 0
2, 41280, Note_on_c, 0, 76, 75
2, 41520, Note_on_c, 0, 76, 0
2, 41520, Note_on_c, 0, 78, 75
2, 41760, Note_on_c, 0, 78, 0
2, 41760, Note_on_c, 0, 79, 75
2, 42240, Note_on_c, 0, 79, 0
2, 42240, Note_on_c, 0, 76, 75
2, 42720, Note_on_c, 0, 76, 0
2, 42720, Control_c, 0, 64, 0
2, 42720, Note_on_c, 0, 72, 62
2, 43020, Control_c, 0, 64, 127
2, 43020, Note_on_c, 0, 71, 62
2, 43080, Note_on_c, 0, 71, 0
2, 43080, Note_on_c, 0, 72, 62
2, 43140, Note_on_c, 0, 72, 0
2, 43140, Note_on_c, 0, 74, 62
2, 43200, Note_on_c, 0, 74, 0
2, 43200, Note_on_c, 0, 72, 0
2, 43200, Note_on_c, 0, 72, 62
2, 43680, Note_on_c, 0, 72, 0
2, 43680, Note_on_c, 0, 71, 62
2, 44160, Note_on_c, 0, 71, 0
2, 44160, Control_c, 0, 64, 0
2, 44160, Note_on_c, 0, 69, 75
2, 44640, Note_on_c, 0, 69, 0
2, 44640, Note_on_c, 0, 67, 62
2, 45600, Note_on_c, 0, 67, 0
2, 47040, Control_c, 0, 64, 0
2, 47040, End_track
3, 0, Start_track
3, 0, Title_t, "Instrument17"
3, 0, Program_c, 0, 0
3, 0, Control_c, 0, 7, 115
3, 0, Control_c, 0, 10, 80
3, 0, Control_c, 0, 64, 127
3, 0, Note_on_c, 0, 60, 49
3, 240, Note_on_c, 0, 60, 0
3, 240, Note_on_c, 0, 62, 49
3, 480, Note_on_c, 0, 62, 0
3, 480, Note_on_c, 0, 60, 49
3, 720, Note_on_c, 0, 60, 0
3, 720, Note_on_c, 0, 62, 49
3, 960, Note_on_c, 0, 62, 0
3, 960, Note_on_c, 0, 64, 62
3, 1200, Note_on_c, 0, 64, 0
3, 1200, Note_on_c, 0, 66, 62
3, 1440, Note_on_c, 0, 66, 0
3, 1440, Note_on_c, 0, 67, 62
3, 1920, Note_on_c, 0, 67, 0
3, 1920, Note_on_c, 0, 66, 62
3, 2400, Note_on_c, 0, 66, 0
3, 2400, Control_c, 0, 64, 0
3, 2400, Note_on_c, 0, 64, 49
3, 2880, Note_on_c, 0, 64, 0
3, 2880, Control_c, 0, 64, 127
3, 2880, Note_on_c, 0, 62, 49
3, 3120, Note_on_c, 0, 62, 0
3, 3120, Note_on_c, 0, 64, 49
3, 3360, Note_on_c, 0, 64, 0
3, 3360, Note_on_c, 0, 66, 49
3, 3600, Note_on_c, 0, 66, 0
3, 3600, Note_on_c, 0, 67, 49
3, 3840, Note_on_c, 0, 67, 0
3, 3840, Note_on_c, 0, 69, 62
3, 4080, Note_on_c, 0, 69, 0
3, 4080, Note_on_c, 0, 71, 62
3, 4320, Note_on_c, 0, 71, 0
3, 4320, Note_on_c, 0, 72, 62
3, 4800, Note_on_c, 0, 72, 0
3, 4800, Note_on_c, 0, 71, 62
3, 5280, Note_on_c, 0, 71, 0
3, 5280, Control_c, 0, 64, 0
3, 5280, Note_on_c, 0, 69, 49
3, 5760, Note_on_c, 0, 69, 0
3, 5760, Note_on_c, 0, 67, 62
3, 5783, Note_on_c, 0, 67, 0
3, 6240, Note_on_c, 0, 71, 62
3, 6263, Note_on_c, 0, 71, 0
3, 6720, Note_on_c, 0, 71, 62
3, 6743, Note_on_c, 0, 71, 0
3, 7200, Note_on_c, 0, 67, 62
3, 7223, Note_on_c, 0, 67, 0
3, 7680, Note_on_c, 0, 71, 62
3, 7703, Note_on_c, 0, 71, 0
3, 8160, Note_on_c, 0, 71, 62
3, 8183, Note_on_c, 0, 71, 0
3, 8640, Note_on_c, 0, 67, 62
3, 8663, Note_on_c, 0, 67, 0
3, 9120, Note_on_c, 0, 70, 62
3, 9143, Note_on_c, 0, 70, 0
3, 9600, Note_on_c, 0, 70, 62
3, 9623, Note_on_c, 0, 70, 0
3, 10080, Control_c, 0, 64, 127
3, 10080, Note_on_c, 0, 66, 49
3, 11040, Note_on_c, 0, 66, 0
3, 11040, Note_on_c, 0, 64, 49
3, 11280, Note_on_c, 0, 64, 0
3, 11280, Control_c, 0, 64, 0
3, 11280, Note_on_c, 0, 62, 49
3, 11520, Note_on_c, 0, 62, 0
3, 11520, Control_c, 0, 64, 127
3, 11520, Note_on_c, 0, 60, 49
3, 11760, Note_on_c, 0, 60, 0
3, 11760, Note_on_c, 0, 62, 49
3, 12000, Note_on_c, 0, 62, 0
3, 12000, Note_on_c, 0, 60, 49
3, 12240, Note_on_c, 0, 60, 0
3, 12240, Note_on_c, 0, 62, 49
3, 12480, Note_on_c, 0, 62, 0
3, 12480, Note_on_c, 0, 64, 62
3, 12720, Note_on_c, 0, 64, 0
3, 12720, Note_on_c, 0, 66, 62
3, 12960, Note_on_c, 0, 66, 0
3, 12960, Note_on_c, 0, 67, 62
3, 13440, Note_on_c, 0, 67, 0
3, 13440, Note_on_c, 0, 66, 62
3, 13920, Note_on_c, 0, 66, 0
3, 13920, Control_c, 0, 64, 0
3, 13920, Note_on_c, 0, 64, 49
3, 14400, Note_on_c, 0, 64, 0
3, 14400, Control_c, 0, 64, 127
3, 14400, Note_on_c, 0, 62, 49
3, 14640, Note_on_c, 0, 62, 0
3, 14640, Note_on_c, 0, 64, 49
3, 14880, Note_on_c, 0, 64, 0
3, 14880, Note_on_c, 0, 66, 49
3, 15120, Note_on_c, 0, 66, 0
3, 15120, Note_on_c, 0, 67, 49
3, 15360, Note_on_c, 0, 67, 0
3, 15360, Note_on_c, 0, 69, 62
3, 15600, Note_on_c, 0, 69, 0
3, 15600, Note_on_c, 0, 71, 62
3, 15840, Note_on_c, 0, 71, 0
3, 15840, Note_on_c, 0, 72, 62
3, 16320, Note_on_c, 0, 72, 0
3, 16320, Note_on_c, 0, 71, 62
3, 16800, Note_on_c, 0, 71, 0
3, 16800, Control_c, 0, 64, 0
3, 16800, Note_on_c, 0, 69, 49
3, 17280, Note_on_c, 0, 69, 0
3, 17280, Note_on_c, 0, 67, 62
3, 17303, Note_on_c, 0, 67, 0
3, 17760, Note_on_c, 0, 71, 62
3, 17783, Note_on_c, 0, 71, 0
3, 18240, Note_on_c, 0, 71, 62
3, 18263, Note_on_c, 0, 71, 0
3, 18720, Note_on_c, 0, 67, 62
3, 18743, Note_on_c, 0, 67, 0
3, 19200, Note_on_c, 0, 71, 62
3, 19223, Note_on_c, 0, 71, 0
3, 19680, Note_on_c, 0, 71, 62
3, 19703, Note_on_c, 0, 71, 0
3, 20160, Note_on_c, 0, 67, 62
3, 20183, Note_on_c, 0, 67, 0
3, 20640, Note_on_c, 0, 70, 62
3, 20663, Note_on_c, 0, 70, 0
3, 21120, Note_on_c, 0, 70, 62
3, 21143, Note_on_c, 0, 70, 0
3, 21600, Note_on_c, 0, 66, 62
3, 23040, Note_on_c, 0, 66, 0
3, 23040, Control_c, 0, 64, 127
3, 23040, Note_on_c, 0, 66, 49
3, 23280, Note_on_c, 0, 66, 0
3, 23280, Note_on_c, 0, 70, 49
3, 23520, Note_on_c, 0, 70, 0
3, 23520, Note_on_c, 0, 66, 49
3, 23760, Note_on_c, 0, 66, 0
3, 23760, Note_on_c, 0, 70, 49
3, 24000, Note_on_c, 0, 70, 0
3, 24000, Note_on_c, 0, 71, 62
3, 24240, Note_on_c, 0, 71, 0
3, 24240, Note_on_c, 0, 73, 62
3, 24480, Note_on_c, 0, 73, 0
3, 24480, Note_on_c, 0, 75, 62
3, 24960, Note_on_c, 0, 75, 0
3, 24960, Note_on_c, 0, 73, 62
3, 25440, Note_on_c, 0, 73, 0
3, 25440, Control_c, 0, 64, 0
3, 25440, Note_on_c, 0, 71, 49
3, 25920, Note_on_c, 0, 71, 0
3, 25920, Control_c, 0, 64, 127
3, 25920, Note_on_c, 0, 66, 49
3, 26160, Note_on_c, 0, 66, 0
3, 26160, Note_on_c, 0, 70, 49
3, 26400, Note_on_c, 0, 70, 0
3, 26400, Note_on_c, 0, 66, 49
3, 26640, Note_on_c, 0, 66, 0
3, 26640, Note_on_c, 0, 70, 49
3, 26880, Note_on_c, 0, 70, 0
3, 26880, Note_on_c, 0, 71, 62
3, 27120, Note_on_c, 0, 71, 0
3, 27120, Note_on_c, 0, 73, 62
3, 27360, Note_on_c, 0, 73, 0
3, 27360, Note_on_c, 0, 74, 62
3, 27840, Note_on_c, 0, 74, 0
3, 27840, Note_on_c, 0, 73, 62
3, 28320, Note_on_c, 0, 73, 0
3, 28320, Control_c, 0, 64, 0
3, 28320, Note_on_c, 0, 71, 49
3, 28800, Note_on_c, 0, 71, 0
3, 28800, Control_c, 0, 64, 127
3, 28800, Note_on_c, 0, 69, 49
3, 29040, Note_on_c, 0, 69, 0
3, 29040, Note_on_c, 0, 71, 49
3, 29280, Note_on_c, 0, 71, 0
3, 29280, Note_on_c, 0, 69, 49
3, 29520, Note_on_c, 0, 69, 0
3, 29520, Note_on_c, 0, 71, 49
3, 29760, Note_on_c, 0, 71, 0
3, 29760, Note_on_c, 0, 72, 62
3, 30000, Note_on_c, 0, 72, 0
3, 30000, Note_on_c, 0, 74, 62
3, 30240, Note_on_c, 0, 74, 0
3, 30240, Note_on_c, 0, 76, 62
3, 30720, Note_on_c, 0, 76, 0
3, 30720, Note_on_c, 0, 72, 62
3, 31200, Note_on_c, 0, 72, 0
3, 31200, Control_c, 0, 64, 0
3, 31200, Note_on_c, 0, 69, 49
3, 31680, Note_on_c, 0, 69, 0
3, 31680, Control_c, 0, 64, 127
3, 31680, Note_on_c, 0, 64, 49
3, 32160, Note_on_c, 0, 64, 0
3, 32160, Note_on_c, 0, 62, 49
3, 32640, Note_on_c, 0, 62, 0
3, 32640, Control_c, 0, 64, 0
3, 32640, Note_on_c, 0, 60, 62
3, 33120, Note_on_c, 0, 60, 0
3, 33120, Note_on_c, 0, 59, 62
3, 34080, Note_on_c, 0, 59, 0
3, 34080, Note_on_c, 0, 67, 49
3, 34560, Note_on_c, 0, 67, 0
3, 34560, Control_c, 0, 64, 127
3, 34560, Note_on_c, 0, 66, 49
3, 34800, Note_on_c, 0, 66, 0
3, 34800, Note_on_c, 0, 70, 49
3, 35040, Note_on_c, 0, 70, 0
3, 35040, Note_on_c, 0, 66, 49
3, 35280, Note_on_c, 0, 66, 0
3, 35280, Note_on_c, 0, 70, 49
3, 35520, Note_on_c, 0, 70, 0
3, 35520, Note_on_c, 0, 71, 62
3, 35760, Note_on_c, 0, 71, 0
3, 35760, Note_on_c, 0, 73, 62
3, 36000, Note_on_c, 0, 73, 0
3, 36000, Note_on_c, 0, 75, 62
3, 36480, Note_on_c, 0, 75, 0
3, 36480, Note_on_c, 0, 73, 62
3, 36960, Note_on_c, 0, 73, 0
3, 36960, Control_c, 0, 64, 0
3, 36960, Note_on_c, 0, 71, 49
3, 37440, Note_on_c, 0, 71, 0
3, 37440, Control_c, 0, 64, 127
3, 37440, Note_on_c, 0, 66, 49
3, 37680, Note_on_c, 0, 66, 0
3, 37680, Note_on_c, 0, 70, 49
3, 37920, Note_on_c, 0, 70, 0
3, 37920, Note_on_c, 0, 66, 49
3, 38160, Note_on_c, 0, 66, 0
3, 38160, Note_on_c, 0, 70, 49
3, 38400, Note_on_c, 0, 70, 0
3, 38400, Note_on_c, 0, 71, 62
3, 38640, Note_on_c, 0, 71, 0
3, 38640, Note_on_c, 0, 73, 62
3, 38880, Note_on_c, 0, 73, 0
3, 38880, Note_on_c, 0, 74, 62
3, 39360, Note_on_c, 0, 74, 0
3, 39360, Note_on_c, 0, 73, 62
3, 39840, Note_on_c, 0, 73, 0
3, 39840, Control_c, 0, 64, 0
3, 39840, Note_on_c, 0, 71, 49
3, 40320, Note_on_c, 0, 71, 0
3, 40320, Control_c, 0, 64, 127
3, 40320, Note_on_c, 0, 69, 49
3, 40560, Note_on_c, 0, 69, 0
3, 40560, Note_on_c, 0, 71, 49
3, 40800, Note_on_c, 0, 71, 0
3, 40800, Note_on_c, 0, 69, 49
3, 41040, Note_on_c, 0, 69, 0
3, 41040, Note_on_c, 0, 71, 49
3, 41280, Note_on_c, 0, 71, 0
3, 41280, Note_on_c, 0, 72, 62
3, 41520, Note_on_c, 0, 72, 0
3, 41520, Note_on_c, 0, 74, 62
3, 41760, Note_on_c, 0, 74, 0
3, 41760, Note_on_c, 0, 76, 62
3, 42240, Note_on_c, 0, 76, 0
3, 42240, Note_on_c, 0, 72, 62
3, 42720, Note_on_c, 0, 72, 0
3, 42720, Control_c, 0, 64, 0
3, 42720, Note_on_c, 0, 69, 49
3, 43200, Note_on_c, 0, 69, 0
3, 43200, Control_c, 0, 64, 127
3, 43200, Note_on_c, 0, 64, 49
3, 43680, Note_on_c, 0, 64, 0
3, 43680, Note_on_c, 0, 62, 49
3, 44160, Note_on_c, 0, 62, 0
3, 44160, Control_c, 0, 64, 0
3, 44160, Note_on_c, 0, 60, 62
3, 44640, Note_on_c, 0, 60, 0
3, 44640, Control_c, 0, 64, 127
3, 44640, Note_on_c, 0, 59, 49
3, 45600, Note_on_c, 0, 59, 0
3, 47040, Control_c, 0, 64, 0
3, 47040, End_track
4, 0, Start_track
4, 0, Title_t, "Instrument18"
4, 0, Program_c, 0, 0
4, 0, Control_c, 0, 7, 115
4, 0, Control_c, 0, 10, 48
4, 480, Note_on_c, 0, 50, 62
4, 480, Note_on_c, 0, 57, 62
4, 527, Note_on_c, 0, 57, 0
4, 527, Note_on_c, 0, 50, 0
4, 960, Note_on_c, 0, 50, 62
4, 960, Note_on_c, 0, 59, 62
4, 1007, Note_on_c, 0, 59, 0
4, 1007, Note_on_c, 0, 50, 0
4, 1920, Note_on_c, 0, 50, 62
4, 1920, Note_on_c, 0, 60, 62
4, 1967, Note_on_c, 0, 60, 0
4, 1967, Note_on_c, 0, 50, 0
4, 2400, Note_on_c, 0, 50, 62
4, 2400, Note_on_c, 0, 59, 62
4, 2447, Note_on_c, 0, 59, 0
4, 2447, Note_on_c, 0, 50, 0
4, 3360, Note_on_c, 0, 50, 62
4, 3360, Note_on_c, 0, 57, 62
4, 3360, Note_on_c, 0, 60, 62
4, 3407, Note_on_c, 0, 60, 0
4, 3407, Note_on_c, 0, 57, 0
4, 3407, Note_on_c, 0, 50, 0
4, 3840, Note_on_c, 0, 50, 62
4, 3840, Note_on_c, 0, 55, 62
4, 3840, Note_on_c, 0, 59, 62
4, 3887, Note_on_c, 0, 59, 0
4, 3887, Note_on_c, 0, 55, 0
4, 3887, Note_on_c, 0, 50, 0
4, 4800, Note_on_c, 0, 50, 62
4, 4800, Note_on_c, 0, 54, 62
4, 4800, Note_on_c, 0, 57, 62
4, 4847, Note_on_c, 0, 57, 0
4, 4847, Note_on_c, 0, 54, 0
4, 4847, Note_on_c, 0, 50, 0
4, 5280, Note_on_c, 0, 50, 62
4, 5280, Note_on_c, 0, 62, 62
4, 5327, Note_on_c, 0, 62, 0
4, 5327, Note_on_c, 0, 50, 0
4, 6240, Note_on_c, 0, 55, 62
4, 6240, Note_on_c, 0, 65, 62
4, 6287, Note_on_c, 0, 65, 0
4, 6287, Note_on_c, 0, 55, 0
4, 6720, Note_on_c, 0, 55, 62
4, 6720, Note_on_c, 0, 62, 62
4, 6767, Note_on_c, 0, 62, 0
4, 6767, Note_on_c, 0, 55, 0
4, 7680, Note_on_c, 0, 55, 62
4, 7680, Note_on_c, 0, 64, 62
4, 7727, Note_on_c, 0, 64, 0
4, 7727, Note_on_c, 0, 55, 0
4, 8160, Note_on_c, 0, 55, 62
4, 8160, Note_on_c, 0, 60, 62
4, 8207, Note_on_c, 0, 60, 0
4, 8207, Note_on_c, 0, 55, 0
4, 9120, Note_on_c, 0, 55, 62
4, 9120, Note_on_c, 0, 62, 62
4, 9167, Note_on_c, 0, 62, 0
4, 9167, Note_on_c, 0, 55, 0
4, 9600, Note_on_c, 0, 55, 62
4, 9600, Note_on_c, 0, 59, 62
4, 9647, Note_on_c, 0, 59, 0
4, 9647, Note_on_c, 0, 55, 0
4, 10560, Note_on_c, 0, 50, 62
4, 10560, Note_on_c, 0, 60, 62
4, 10607, Note_on_c, 0, 60, 0
4, 10607, Note_on_c, 0, 50, 0
4, 11040, Note_on_c, 0, 50, 62
4, 11040, Note_on_c, 0, 57, 62
4, 11087, Note_on_c, 0, 57, 0
4, 11087, Note_on_c, 0, 50, 0
4, 12000, Note_on_c, 0, 50, 62
4, 12000, Note_on_c, 0, 57, 62
4, 12047, Note_on_c, 0, 57, 0
4, 12047, Note_on_c, 0, 50, 0
4, 12480, Note_on_c, 0, 50, 62
4, 12480, Note_on_c, 0, 59, 62
4, 12527, Note_on_c, 0, 59, 0
4, 12527, Note_on_c, 0, 50, 0
4, 13440, Note_on_c, 0, 50, 62
4, 13440, Note_on_c, 0, 60, 62
4, 13487, Note_on_c, 0, 60, 0
4, 13487, Note_on_c, 0, 50, 0
4, 13920, Note_on_c, 0, 50, 62
4, 13920, Note_on_c, 0, 59, 62
4, 13967, Note_on_c, 0, 59, 0
4, 13967, Note_on_c, 0, 50, 0
4, 14880, Note_on_c, 0, 50, 62
4, 14880, Note_on_c, 0, 57, 62
4, 14880, Note_on_c, 0, 60, 62
4, 14927, Note_on_c, 0, 60, 0
4, 14927, Note_on_c, 0, 57, 0
4, 14927, Note_on_c, 0, 50, 0
4, 15360, Note_on_c, 0, 50, 62
4, 15360, Note_on_c, 0, 55, 62
4, 15360, Note_on_c, 0, 59, 62
4, 15407, Note_on_c, 0, 59, 0
4, 15407, Note_on_c, 0, 55, 0
4, 15407, Note_on_c, 0, 50, 0
4, 16320, Note_on_c, 0, 50, 62
4, 16320, Note_on_c, 0, 54, 62
4, 16320, Note_on_c, 0, 57, 62
4, 16367, Note_on_c, 0, 57, 0
4, 16367, Note_on_c, 0, 54, 0
4, 16367, Note_on_c, 0, 50, 0
4, 16800, Note_on_c, 0, 50, 62
4, 16800, Note_on_c, 0, 62, 62
4, 16847, Note_on_c, 0, 62, 0
4, 16847, Note_on_c, 0, 50, 0
4, 17760, Note_on_c, 0, 55, 62
4, 17760, Note_on_c, 0, 65, 62
4, 17807, Note_on_c, 0, 65, 0
4, 17807, Note_on_c, 0, 55, 0
4, 18240, Note_on_c, 0, 55, 62
4, 18240, Note_on_c, 0, 62, 62
4, 18287, Note_on_c, 0, 62, 0
4, 18287, Note_on_c, 0, 55, 0
4, 19200, Note_on_c, 0, 55, 62
4, 19200, Note_on_c, 0, 64, 62
4, 19247, Note_on_c, 0, 64, 0
4, 19247, Note_on_c, 0, 55, 0
4, 19680, Note_on_c, 0, 55, 62
4, 19680, Note_on_c, 0, 60, 62
4, 19727, Note_on_c, 0, 60, 0
4, 19727, Note_on_c, 0, 55, 0
4, 20640, Note_on_c, 0, 55, 62
4, 20640, Note_on_c, 0, 62, 62
4, 20687, Note_on_c, 0, 62, 0
4, 20687, Note_on_c, 0, 55, 0
4, 21120, Note_on_c, 0, 55, 62
4, 21120, Note_on_c, 0, 59, 62
4, 21167, Note_on_c, 0, 59, 0
4, 21167, Note_on_c, 0, 55, 0
4, 22080, Note_on_c, 0, 50, 62
4, 22080, Note_on_c, 0, 60, 62
4, 22127, Note_on_c, 0, 60, 0
4, 22127, Note_on_c, 0, 50, 0
4, 22560, Note_on_c, 0, 50, 62
4, 22560, Note_on_c, 0, 57, 62
4, 22607, Note_on_c, 0, 57, 0
4, 22607, Note_on_c, 0, 50, 0
4, 23520, Note_on_c, 0, 54, 62
4, 23520, Note_on_c, 0, 59, 62
4, 23567, Note_on_c, 0, 59, 0
4, 23567, Note_on_c, 0, 54, 0
4, 24960, Note_on_c, 0, 54, 62
4, 24960, Note_on_c, 0, 66, 62
4, 25007, Note_on_c, 0, 66, 0
4, 25007, Note_on_c, 0, 54, 0
4, 26400, Note_on_c, 0, 54, 62
4, 26400, Note_on_c, 0, 59, 62
4, 26447, Note_on_c, 0, 59, 0
4, 26447, Note_on_c, 0, 54, 0
4, 27840, Note_on_c, 0, 54, 62
4, 27840, Note_on_c, 0, 66, 62
4, 27887, Note_on_c, 0, 66, 0
4, 27887, Note_on_c, 0, 54, 0
4, 29280, Note_on_c, 0, 50, 62
4, 29280, Note_on_c, 0, 60, 62
4, 29327, Note_on_c, 0, 60, 0
4, 29327, Note_on_c, 0, 50, 0
4, 29760, Note_on_c, 0, 50, 62
4, 29760, Note_on_c, 0, 57, 62
4, 29807, Note_on_c, 0, 57, 0
4, 29807, Note_on_c, 0, 50, 0
4, 30720, Note_on_c, 0, 48, 62
4, 30720, Note_on_c, 0, 60, 62
4, 30767, Note_on_c, 0, 60, 0
4, 30767, Note_on_c, 0, 48, 0
4, 31200, Note_on_c, 0, 48, 62
4, 31200, Note_on_c, 0, 52, 62
4, 31247, Note_on_c, 0, 52, 0
4, 31247, Note_on_c, 0, 48, 0
4, 32160, Note_on_c, 0, 50, 62
4, 32160, Note_on_c, 0, 54, 62
4, 32207, Note_on_c, 0, 54, 0
4, 32207, Note_on_c, 0, 50, 0
4, 32640, Note_on_c, 0, 50, 62
4, 32640, Note_on_c, 0, 54, 62
4, 32687, Note_on_c, 0, 54, 0
4, 32687, Note_on_c, 0, 50, 0
4, 33600, Note_on_c, 0, 47, 62
4, 33600, Note_on_c, 0, 55, 62
4, 33647, Note_on_c, 0, 55, 0
4, 33647, Note_on_c, 0, 47, 0
4, 35040, Note_on_c, 0, 54, 62
4, 35040, Note_on_c, 0, 59, 62
4, 35087, Note_on_c, 0, 59, 0
4, 35087, Note_on_c, 0, 54, 0
4, 36480, Note_on_c, 0, 54, 62
4, 36480, Note_on_c, 0, 66, 62
4, 36527, Note_on_c, 0, 66, 0
4, 36527, Note_on_c, 0, 54, 0
4, 37920, Note_on_c, 0, 54, 62
4, 37920, Note_on_c, 0, 59, 62
4, 37967, Note_on_c, 0, 59, 0
4, 37967, Note_on_c, 0, 54, 0
4, 39360, Note_on_c, 0, 54, 62
4, 39360, Note_on_c, 0, 66, 62
4, 39407, Note_on_c, 0, 66, 0
4, 39407, Note_on_c, 0, 54, 0
4, 40800, Note_on_c, 0, 50, 62
4, 40800, Note_on_c, 0, 60, 62
4, 40847, Note_on_c, 0, 60, 0
4, 40847, Note_on_c, 0, 50, 0
4, 41280, Note_on_c, 0, 50, 62
4, 41280, Note_on_c, 0, 57, 62
4, 41327, Note_on_c, 0, 57, 0
4, 41327, Note_on_c, 0, 50, 0
4, 42240, Note_on_c, 0, 48, 62
4, 42240, Note_on_c, 0, 60, 62
4, 42287, Note_on_c, 0, 60, 0
4, 42287, Note_on_c, 0, 48, 0
4, 42720, Note_on_c, 0, 48, 62
4, 42720, Note_on_c, 0, 52, 62
4, 42767, Note_on_c, 0, 52, 0
4, 42767, Note_on_c, 0, 48, 0
4, 43680, Note_on_c, 0, 50, 62
4, 43680, Note_on_c, 0, 54, 62
4, 43727, Note_on_c, 0, 54, 0
4, 43727, Note_on_c, 0, 50, 0
4, 44160, Note_on_c, 0, 50, 62
4, 44160, Note_on_c, 0, 54, 62
4, 44207, Note_on_c, 0, 54, 0
4, 44207, Note_on_c, 0, 50, 0
4, 45120, Note_on_c, 0, 47, 62
4, 45120, Note_on_c, 0, 55, 62
4, 45167, Note_on_c, 0, 55, 0
4, 45167, Note_on_c, 0, 47, 0
4, 45167, End_track
5, 0, Start_track
5, 0, Title_t, "Instrument19"
5, 0, Program_c, 0, 0
5, 0, Control_c, 0, 7, 115
5, 0, Control_c, 0, 10, 32
5, 0, Note_on_c, 0, 38, 75
5, 47, Note_on_c, 0, 38, 0
5, 1440, Note_on_c, 0, 38, 75
5, 1487, Note_on_c, 0, 38, 0
5, 2880, Note_on_c, 0, 38, 75
5, 2927, Note_on_c, 0, 38, 0
5, 4320, Note_on_c, 0, 38, 75
5, 4367, Note_on_c, 0, 38, 0
5, 5760, Note_on_c, 0, 43, 75
5, 5807, Note_on_c, 0, 43, 0
5, 6720, Note_on_c, 0, 31, 75
5, 6767, Note_on_c, 0, 31, 0
5, 7200, Note_on_c, 0, 43, 75
5, 7247, Note_on_c, 0, 43, 0
5, 8160, Note_on_c, 0, 31, 75
5, 8207, Note_on_c, 0, 31, 0
5, 8640, Note_on_c, 0, 43, 75
5, 8687, Note_on_c, 0, 43, 0
5, 9600, Note_on_c, 0, 31, 75
5, 9647, Note_on_c, 0, 31, 0
5, 10080, Note_on_c, 0, 38, 75
5, 10127, Note_on_c, 0, 38, 0
5, 11040, Note_on_c, 0, 26, 75
5, 11087, Note_on_c, 0, 26, 0
5, 11520, Note_on_c, 0, 38, 75
5, 11567, Note_on_c, 0, 38, 0
5, 12960, Note_on_c, 0, 38, 75
5, 13007, Note_on_c, 0, 38, 0
5, 14400, Note_on_c, 0, 38, 75
5, 14447, Note_on_c, 0, 38, 0
5, 15840, Note_on_c, 0, 38, 75
5, 15887, Note_on_c, 0, 38, 0
5, 17280, Note_on_c, 0, 43, 75
5, 17327, Note_on_c, 0, 43, 0
5, 18240, Note_on_c, 0, 31, 75
5, 18287, Note_on_c, 0, 31, 0
5, 18720, Note_on_c, 0, 43, 75
5, 18767, Note_on_c, 0, 43, 0
5, 19680, Note_on_c, 0, 31, 75
5, 19727, Note_on_c, 0, 31, 0
5, 20160, Note_on_c, 0, 43, 75
5, 20207, Note_on_c, 0, 43, 0
5, 21120, Note_on_c, 0, 31, 75
5, 21167, Note_on_c, 0, 31, 0
5, 21600, Note_on_c, 0, 38, 75
5, 21647, Note_on_c, 0, 38, 0
5, 23040, Note_on_c, 0, 39, 75
5, 23040, Note_on_c, 0, 51, 75
5, 23087, Note_on_c, 0, 51, 0
5, 23087, Note_on_c, 0, 39, 0
5, 24000, Note_on_c, 0, 35, 75
5, 24000, Note_on_c, 0, 47, 75
5, 24047, Note_on_c, 0, 47, 0
5, 24047, Note_on_c, 0, 35, 0
5, 24480, Note_on_c, 0, 30, 75
5, 24480, Note_on_c, 0, 42, 75
5, 24527, Note_on_c, 0, 42, 0
5, 24527, Note_on_c, 0, 30, 0
5, 25440, Note_on_c, 0, 35, 75
5, 25440, Note_on_c, 0, 47, 75
5, 25487, Note_on_c, 0, 47, 0
5, 25487, Note_on_c, 0, 35, 0
5, 25920, Note_on_c, 0, 38, 75
5, 25920, Note_on_c, 0, 50, 75
5, 25967, Note_on_c, 0, 50, 0
5, 25967, Note_on_c, 0, 38, 0
5, 26880, Note_on_c, 0, 35, 75
5, 26880, Note_on_c, 0, 47, 75
5, 26927, Note_on_c, 0, 47, 0
5, 26927, Note_on_c, 0, 35, 0
5, 27360, Note_on_c, 0, 30, 75
5, 27360, Note_on_c, 0, 42, 75
5, 27407, Note_on_c, 0, 42, 0
5, 27407, Note_on_c, 0, 30, 0
5, 28320, Note_on_c, 0, 35, 75
5, 28320, Note_on_c, 0, 47, 75
5, 28367, Note_on_c, 0, 47, 0
5, 28367, Note_on_c, 0, 35, 0
5, 28800, Note_on_c, 0, 38, 75
5, 28847, Note_on_c, 0, 38, 0
5, 30240, Note_on_c, 0, 36, 75
5, 30287, Note_on_c, 0, 36, 0
5, 31680, Note_on_c, 0, 38, 75
5, 31727, Note_on_c, 0, 38, 0
5, 33120, Note_on_c, 0, 31, 75
5, 33120, Note_on_c, 0, 43, 75
5, 33167, Note_on_c, 0, 43, 0
5, 33167, Note_on_c, 0, 31, 0
5, 34560, Note_on_c, 0, 39, 75
5, 34560, Note_on_c, 0, 51, 75
5, 34607, Note_on_c, 0, 51, 0
5, 34607, Note_on_c, 0, 39, 0
5, 35520, Note_on_c, 0, 35, 75
5, 35520, Note_on_c, 0, 47, 75
5, 35567, Note_on_c, 0, 47, 0
5, 35567, Note_on_c, 0, 35, 0
5, 36000, Note_on_c, 0, 30, 75
5, 36000, Note_on_c, 0, 42, 75
5, 36047, Note_on_c, 0, 42, 0
5, 36047, Note_on_c, 0, 30, 0
5, 36960, Note_on_c, 0, 35, 75
5, 36960, Note_on_c, 0, 47, 75
5, 37007, Note_on_c, 0, 47, 0
5, 37007, Note_on_c, 0, 35, 0
5, 37440, Note_on_c, 0, 38, 75
5, 37440, Note_on_c, 0, 50, 75
5, 37487, Note_on_c, 0, 50, 0
5, 37487, Note_on_c, 0, 38, 0
5, 38400, Note_on_c, 0, 35, 75
5, 38400, Note_on_c, 0, 47, 75
5, 38447, Note_on_c, 0, 47, 0
5, 38447, Note_on_c, 0, 35, 0
5, 38880, Note_on_c, 0, 30, 75
5, 38880, Note_on_c, 0, 42, 75
5, 38927, Note_on_c, 0, 42, 0
5, 38927, Note_on_c, 0, 30, 0
5, 39840, Note_on_c, 0, 35, 75
5, 39840, Note_on_c, 0, 47, 75
5, 39887, Note_on_c, 0, 47, 0
5, 39887, Note_on_c, 0, 35, 0
5, 40320, Note_on_c, 0, 38, 75
5, 40367, Note_on_c, 0, 38, 0
5, 41760, Note_on_c, 0, 36, 75
5, 41807, Note_on_c, 0, 36, 0
5, 43200, Note_on_c, 0, 38, 75
5, 43247, Note_on_c, 0, 38, 0
5, 44640, Note_on_c, 0, 31, 75
5, 44640, Note_on_c, 0, 43, 75
5, 44687, Note_on_c, 0, 43, 0
5, 44687, Note_on_c, 0, 31, 0
5, 44687, End_track
0, 0, End_of_file
