0, 0, Header, 1, 5, 480
1, 0, Start_track
1, 0, Title_t, "brahms waltzes op 39 no11 4hands"
1, 0, Copyright_t, "Segundo G. Yogore,  2004,  dody@info.com.ph \012__________________________________________________________\012Kunst der Fuge comment: this is the Contributor's property.\012Can *not* be used for commercial purposes without authorization!\012Copyright by Contributor - Kunst der Fuge, © 2002-05\012http://www.kunstderfuge.com/thanks.htm -> Contributors' list\012http://www.kunstderfuge.com/notes.htm -> Terms & conditions"
1, 0, Text_t, "sequenced by Segundo G. Yogore,  2004\012"
1, 0, Time_signature, 3, 2, 24, 8
1, 0, Key_signature, 2, "major"
1, 0, Tempo, 285714
1, 23040, Tempo, 285714
1, 46080, Tempo, 285714
1, 54946, Tempo, 303030
1, 55186, Tempo, 322581
1, 55426, Tempo, 344828
1, 55666, Tempo, 379747
1, 55906, Tempo, 410959
1, 56146, Tempo, 447761
1, 56386, Tempo, 491803
1, 56626, Tempo, 566038
1, 57600, Tempo, 285714
1, 76896, Tempo, 303030
1, 77136, Tempo, 322581
1, 77376, Tempo, 344828
1, 77616, Tempo, 379747
1, 77856, Tempo, 410959
1, 78096, Tempo, 447761
1, 78336, Tempo, 491803
1, 78576, Tempo, 566038
1, 80640, Tempo, 285714
1, 89506, Tempo, 303030
1, 89746, Tempo, 322581
1, 89986, Tempo, 344828
1, 90226, Tempo, 379747
1, 90466, Tempo, 410959
1, 90706, Tempo, 447761
1, 90946, Tempo, 491803
1, 91186, Tempo, 566038
1, 92160, Tempo, 285714
1, 111456, Tempo, 303030
1, 111696, Tempo, 322581
1, 111936, Tempo, 344828
1, 112176, Tempo, 379747
1, 112416, Tempo, 410959
1, 112656, Tempo, 447761
1, 112896, Tempo, 491803
1, 113136, Tempo, 566038
1, 113136, End_track
2, 0, Start_track
2, 0, Title_t, "Grand Piano"
2, 0, Program_c, 0, 0
2, 0, Control_c, 0, 7, 115
2, 0, Control_c, 0, 10, 95
2, 0, Note_on_c, 0, 76, 62
2, 60, Note_on_c, 0, 76, 0
2, 60, Note_on_c, 0, 74, 62
2, 102, Note_on_c, 0, 74, 0
2, 480, Note_on_c, 0, 74, 62
2, 720, Note_on_c, 0, 74, 0
2, 720, Note_on_c, 0, 76, 62
2, 960, Note_on_c, 0, 76, 0
2, 960, Note_on_c, 0, 74, 62
2, 1440, Note_on_c, 0, 74, 0
2, 1440, Control_c, 0, 64, 127
2, 1440, Note_on_c, 0, 73, 62
2, 1920, Note_on_c, 0, 73, 0
2, 1920, Note_on_c, 0, 74, 62
2, 2400, Note_on_c, 0, 74, 0
2, 2400, Control_c, 0, 64, 0
2, 2400, Note_on_c, 0, 76, 62
2, 2820, Note_on_c, 0, 79, 62
2, 2880, Note_on_c, 0, 79, 0
2, 2880, Note_on_c, 0, 76, 0
2, 2880, Note_on_c, 0, 78, 62
2, 2927, Note_on_c, 0, 78, 0
2, 3360, Note_on_c, 0, 78, 62
2, 3600, Note_on_c, 0, 78, 0
2, 3600, Note_on_c, 0, 79, 62
2, 3840, Note_on_c, 0, 79, 0
2, 3840, Note_on_c, 0, 78, 62
2, 4320, Note_on_c, 0, 78, 0
2, 4320, Note_on_c, 0, 78, 62
2, 5700, Note_on_c, 0, 80, 62
2, 5760, Note_on_c, 0, 80, 0
2, 5760, Note_on_c, 0, 78, 0
2, 5760, Note_on_c, 0, 78, 62
2, 5807, Note_on_c, 0, 78, 0
2, 6240, Note_on_c, 0, 78, 62
2, 6480, Note_on_c, 0, 78, 0
2, 6480, Note_on_c, 0, 80, 62
2, 6720, Note_on_c, 0, 80, 0
2, 6720, Note_on_c, 0, 78, 62
2, 7200, Note_on_c, 0, 78, 0
2, 7200, Control_c, 0, 64, 127
2, 7200, Note_on_c, 0, 80, 62
2, 7680, Note_on_c, 0, 80, 0
2, 7680, Note_on_c, 0, 81, 62
2, 8160, Note_on_c, 0, 81, 0
2, 8160, Control_c, 0, 64, 0
2, 8160, Note_on_c, 0, 83, 62
2, 8580, Note_on_c, 0, 86, 62
2, 8640, Note_on_c, 0, 86, 0
2, 8640, Note_on_c, 0, 83, 0
2, 8640, Note_on_c, 0, 85, 62
2, 8687, Note_on_c, 0, 85, 0
2, 9120, Note_on_c, 0, 85, 62
2, 9360, Note_on_c, 0, 85, 0
2, 9360, Note_on_c, 0, 86, 62
2, 9600, Note_on_c, 0, 86, 0
2, 9600, Note_on_c, 0, 85, 62
2, 10080, Note_on_c, 0, 85, 0
2, 10080, Note_on_c, 0, 85, 62
2, 11460, Note_on_c, 0, 86, 62
2, 11520, Note_on_c, 0, 86, 0
2, 11520, Note_on_c, 0, 85, 0
2, 11520, Note_on_c, 0, 85, 62
2, 11567, Note_on_c, 0, 85, 0
2, 12000, Note_on_c, 0, 85, 62
2, 12240, Note_on_c, 0, 85, 0
2, 12240, Note_on_c, 0, 86, 62
2, 12480, Note_on_c, 0, 86, 0
2, 12480, Note_on_c, 0, 85, 62
2, 12960, Note_on_c, 0, 85, 0
2, 12960, Note_on_c, 0, 78, 62
2, 13920, Note_on_c, 0, 78, 0
2, 13920, Note_on_c, 0, 83, 62
2, 14340, Note_on_c, 0, 84, 62
2, 14400, Note_on_c, 0, 84, 0
2, 14400, Note_on_c, 0, 83, 0
2, 14400, Note_on_c, 0, 83, 62
2, 14447, Note_on_c, 0, 83, 0
2, 14880, Note_on_c, 0, 83, 62
2, 15039, Note_on_c, 0, 83, 0
2, 15039, Note_on_c, 0, 84, 62
2, 15200, Note_on_c, 0, 84, 0
2, 15200, Note_on_c, 0, 83, 62
2, 15360, Note_on_c, 0, 83, 0
2, 15360, Note_on_c, 0, 81, 62
2, 15840, Note_on_c, 0, 81, 0
2, 15840, Note_on_c, 0, 74, 62
2, 16800, Note_on_c, 0, 74, 0
2, 16800, Note_on_c, 0, 79, 62
2, 17220, Note_on_c, 0, 81, 62
2, 17280, Note_on_c, 0, 81, 0
2, 17280, Note_on_c, 0, 79, 0
2, 17280, Note_on_c, 0, 79, 62
2, 17327, Note_on_c, 0, 79, 0
2, 17760, Note_on_c, 0, 79, 62
2, 17919, Note_on_c, 0, 79, 0
2, 17919, Note_on_c, 0, 81, 62
2, 18080, Note_on_c, 0, 81, 0
2, 18080, Note_on_c, 0, 79, 62
2, 18240, Note_on_c, 0, 79, 0
2, 18240, Note_on_c, 0, 78, 62
2, 18720, Note_on_c, 0, 78, 0
2, 18720, Note_on_c, 0, 81, 62
2, 19680, Note_on_c, 0, 81, 0
2, 19680, Note_on_c, 0, 77, 62
2, 20160, Note_on_c, 0, 77, 0
2, 20160, Note_on_c, 0, 80, 62
2, 20400, Note_on_c, 0, 80, 0
2, 20400, Note_on_c, 0, 78, 62
2, 20640, Note_on_c, 0, 78, 0
2, 20880, Note_on_c, 0, 77, 62
2, 21060, Note_on_c, 0, 80, 62
2, 21120, Note_on_c, 0, 80, 0
2, 21120, Note_on_c, 0, 77, 0
2, 21120, Note_on_c, 0, 78, 62
2, 21360, Note_on_c, 0, 78, 0
2, 21480, Note_on_c, 0, 77, 62
2, 21600, Note_on_c, 0, 77, 0
2, 21600, Note_on_c, 0, 78, 62
2, 22560, Note_on_c, 0, 78, 0
2, 23040, Note_on_c, 0, 76, 62
2, 23100, Note_on_c, 0, 76, 0
2, 23100, Note_on_c, 0, 74, 62
2, 23142, Note_on_c, 0, 74, 0
2, 23520, Note_on_c, 0, 74, 62
2, 23760, Note_on_c, 0, 74, 0
2, 23760, Note_on_c, 0, 76, 62
2, 24000, Note_on_c, 0, 76, 0
2, 24000, Note_on_c, 0, 74, 62
2, 24480, Note_on_c, 0, 74, 0
2, 24480, Control_c, 0, 64, 127
2, 24480, Note_on_c, 0, 73, 62
2, 24960, Note_on_c, 0, 73, 0
2, 24960, Note_on_c, 0, 74, 62
2, 25440, Note_on_c, 0, 74, 0
2, 25440, Control_c, 0, 64, 0
2, 25440, Note_on_c, 0, 76, 62
2, 25860, Note_on_c, 0, 79, 62
2, 25920, Note_on_c, 0, 79, 0
2, 25920, Note_on_c, 0, 76, 0
2, 25920, Note_on_c, 0, 78, 62
2, 25967, Note_on_c, 0, 78, 0
2, 26400, Note_on_c, 0, 78, 62
2, 26640, Note_on_c, 0, 78, 0
2, 26640, Note_on_c, 0, 79, 62
2, 26880, Note_on_c, 0, 79, 0
2, 26880, Note_on_c, 0, 78, 62
2, 27360, Note_on_c, 0, 78, 0
2, 27360, Note_on_c, 0, 78, 62
2, 28740, Note_on_c, 0, 80, 62
2, 28800, Note_on_c, 0, 80, 0
2, 28800, Note_on_c, 0, 78, 0
2, 28800, Note_on_c, 0, 78, 62
2, 28847, Note_on_c, 0, 78, 0
2, 29280, Note_on_c, 0, 78, 62
2, 29520, Note_on_c, 0, 78, 0
2, 29520, Note_on_c, 0, 80, 62
2, 29760, Note_on_c, 0, 80, 0
2, 29760, Note_on_c, 0, 78, 62
2, 30240, Note_on_c, 0, 78, 0
2, 30240, Control_c, 0, 64, 127
2, 30240, Note_on_c, 0, 80, 62
2, 30720, Note_on_c, 0, 80, 0
2, 30720, Note_on_c, 0, 81, 62
2, 31200, Note_on_c, 0, 81, 0
2, 31200, Control_c, 0, 64, 0
2, 31200, Note_on_c, 0, 83, 62
2, 31620, Note_on_c, 0, 86, 62
2, 31680, Note_on_c, 0, 86, 0
2, 31680, Note_on_c, 0, 83, 0
2, 31680, Note_on_c, 0, 85, 62
2, 31727, Note_on_c, 0, 85, 0
2, 32160, Note_on_c, 0, 85, 62
2, 32400, Note_on_c, 0, 85, 0
2, 32400, Note_on_c, 0, 86, 62
2, 32640, Note_on_c, 0, 86, 0
2, 32640, Note_on_c, 0, 85, 62
2, 33120, Note_on_c, 0, 85, 0
2, 33120, Note_on_c, 0, 85, 62
2, 34500, Note_on_c, 0, 86, 62
2, 34560, Note_on_c, 0, 86, 0
2, 34560, Note_on_c, 0, 85, 0
2, 34560, Note_on_c, 0, 85, 62
2, 34607, Note_on_c, 0, 85, 0
2, 35040, Note_on_c, 0, 85, 62
2, 35280, Note_on_c, 0, 85, 0
2, 35280, Note_on_c, 0, 86, 62
2, 35520, Note_on_c, 0, 86, 0
2, 35520, Note_on_c, 0, 85, 62
2, 36000, Note_on_c, 0, 85, 0
2, 36000, Note_on_c, 0, 78, 62
2, 36960, Note_on_c, 0, 78, 0
2, 36960, Note_on_c, 0, 83, 62
2, 37380, Note_on_c, 0, 84, 62
2, 37440, Note_on_c, 0, 84, 0
2, 37440, Note_on_c, 0, 83, 0
2, 37440, Note_on_c, 0, 83, 62
2, 37487, Note_on_c, 0, 83, 0
2, 37920, Note_on_c, 0, 83, 62
2, 38079, Note_on_c, 0, 83, 0
2, 38079, Note_on_c, 0, 84, 62
2, 38240, Note_on_c, 0, 84, 0
2, 38240, Note_on_c, 0, 83, 62
2, 38400, Note_on_c, 0, 83, 0
2, 38400, Note_on_c, 0, 81, 62
2, 38880, Note_on_c, 0, 81, 0
2, 38880, Note_on_c, 0, 74, 62
2, 39840, Note_on_c, 0, 74, 0
2, 39840, Note_on_c, 0, 79, 62
2, 40260, Note_on_c, 0, 81, 62
2, 40320, Note_on_c, 0, 81, 0
2, 40320, Note_on_c, 0, 79, 0
2, 40320, Note_on_c, 0, 79, 62
2, 40367, Note_on_c, 0, 79, 0
2, 40800, Note_on_c, 0, 79, 62
2, 40959, Note_on_c, 0, 79, 0
2, 40959, Note_on_c, 0, 81, 62
2, 41120, Note_on_c, 0, 81, 0
2, 41120, Note_on_c, 0, 79, 62
2, 41280, Note_on_c, 0, 79, 0
2, 41280, Note_on_c, 0, 78, 62
2, 41760, Note_on_c, 0, 78, 0
2, 41760, Note_on_c, 0, 81, 62
2, 42720, Note_on_c, 0, 81, 0
2, 42720, Note_on_c, 0, 77, 62
2, 43200, Note_on_c, 0, 77, 0
2, 43200, Note_on_c, 0, 80, 62
2, 43440, Note_on_c, 0, 80, 0
2, 43440, Note_on_c, 0, 78, 62
2, 43680, Note_on_c, 0, 78, 0
2, 43920, Note_on_c, 0, 77, 62
2, 44100, Note_on_c, 0, 80, 62
2, 44160, Note_on_c, 0, 80, 0
2, 44160, Note_on_c, 0, 77, 0
2, 44160, Note_on_c, 0, 78, 62
2, 44400, Note_on_c, 0, 78, 0
2, 44520, Note_on_c, 0, 77, 62
2, 44640, Note_on_c, 0, 77, 0
2, 44640, Note_on_c, 0, 78, 62
2, 45600, Note_on_c, 0, 78, 0
2, 46080, Note_on_c, 0, 74, 62
2, 46140, Note_on_c, 0, 74, 0
2, 46140, Note_on_c, 0, 73, 62
2, 46182, Note_on_c, 0, 73, 0
2, 46560, Note_on_c, 0, 73, 62
2, 46800, Note_on_c, 0, 73, 0
2, 46800, Note_on_c, 0, 74, 62
2, 47040, Note_on_c, 0, 74, 0
2, 47040, Note_on_c, 0, 73, 62
2, 47520, Note_on_c, 0, 73, 0
2, 47520, Control_c, 0, 64, 127
2, 47520, Note_on_c, 0, 71, 62
2, 48000, Note_on_c, 0, 71, 0
2, 48000, Note_on_c, 0, 73, 62
2, 48480, Note_on_c, 0, 73, 0
2, 48480, Control_c, 0, 64, 0
2, 48480, Note_on_c, 0, 74, 62
2, 48900, Note_on_c, 0, 74, 62
2, 48960, Note_on_c, 0, 74, 0
2, 48960, Note_on_c, 0, 74, 0
2, 48960, Note_on_c, 0, 73, 62
2, 49007, Note_on_c, 0, 73, 0
2, 49440, Note_on_c, 0, 73, 62
2, 49680, Note_on_c, 0, 73, 0
2, 49680, Note_on_c, 0, 75, 62
2, 49920, Note_on_c, 0, 75, 0
2, 49920, Note_on_c, 0, 73, 62
2, 50400, Note_on_c, 0, 73, 0
2, 50400, Control_c, 0, 64, 127
2, 50400, Note_on_c, 0, 71, 62
2, 50880, Note_on_c, 0, 71, 0
2, 50880, Note_on_c, 0, 77, 62
2, 51360, Note_on_c, 0, 77, 0
2, 51360, Control_c, 0, 64, 0
2, 51360, Note_on_c, 0, 75, 62
2, 51840, Note_on_c, 0, 75, 0
2, 51840, Control_c, 0, 64, 127
2, 51840, Note_on_c, 0, 73, 75
2, 52320, Note_on_c, 0, 73, 0
2, 52320, Note_on_c, 0, 78, 75
2, 52800, Note_on_c, 0, 78, 0
2, 52800, Control_c, 0, 64, 0
2, 52800, Note_on_c, 0, 72, 75
2, 53280, Note_on_c, 0, 72, 0
2, 53280, Control_c, 0, 64, 127
2, 53280, Note_on_c, 0, 71, 75
2, 53760, Note_on_c, 0, 71, 0
2, 53760, Note_on_c, 0, 78, 75
2, 54240, Note_on_c, 0, 78, 0
2, 54240, Control_c, 0, 64, 0
2, 54240, Note_on_c, 0, 70, 75
2, 54720, Note_on_c, 0, 70, 0
2, 55200, Note_on_c, 0, 78, 75
2, 56160, Note_on_c, 0, 78, 0
2, 56640, Note_on_c, 0, 78, 75
2, 57360, Note_on_c, 0, 78, 0
2, 57360, Note_on_c, 0, 63, 75
2, 57420, Note_on_c, 0, 63, 0
2, 57420, Note_on_c, 0, 66, 75
2, 57480, Note_on_c, 0, 66, 0
2, 57480, Note_on_c, 0, 71, 75
2, 57540, Note_on_c, 0, 71, 0
2, 57540, Note_on_c, 0, 76, 75
2, 57600, Note_on_c, 0, 76, 0
2, 57600, Note_on_c, 0, 75, 88
2, 57647, Note_on_c, 0, 75, 0
2, 58080, Note_on_c, 0, 75, 62
2, 58320, Note_on_c, 0, 75, 0
2, 58320, Note_on_c, 0, 76, 62
2, 58560, Note_on_c, 0, 76, 0
2, 58560, Note_on_c, 0, 75, 62
2, 59040, Note_on_c, 0, 75, 0
2, 59040, Control_c, 0, 64, 127
2, 59040, Note_on_c, 0, 73, 62
2, 59520, Note_on_c, 0, 73, 0
2, 59520, Note_on_c, 0, 75, 62
2, 60000, Note_on_c, 0, 75, 0
2, 60000, Control_c, 0, 64, 0
2, 60000, Note_on_c, 0, 76, 62
2, 60420, Note_on_c, 0, 80, 62
2, 60480, Note_on_c, 0, 80, 0
2, 60480, Note_on_c, 0, 76, 0
2, 60480, Note_on_c, 0, 78, 62
2, 60527, Note_on_c, 0, 78, 0
2, 60960, Note_on_c, 0, 78, 62
2, 61200, Note_on_c, 0, 78, 0
2, 61200, Note_on_c, 0, 80, 62
2, 61440, Note_on_c, 0, 80, 0
2, 61440, Note_on_c, 0, 78, 62
2, 63300, Note_on_c, 0, 80, 62
2, 63360, Note_on_c, 0, 80, 0
2, 63360, Note_on_c, 0, 78, 0
2, 63360, Note_on_c, 0, 78, 62
2, 63407, Note_on_c, 0, 78, 0
2, 63840, Note_on_c, 0, 78, 62
2, 64080, Note_on_c, 0, 78, 0
2, 64080, Note_on_c, 0, 80, 62
2, 64320, Note_on_c, 0, 80, 0
2, 64320, Note_on_c, 0, 78, 62
2, 64800, Note_on_c, 0, 78, 0
2, 64800, Control_c, 0, 64, 127
2, 64800, Note_on_c, 0, 75, 75
2, 65280, Note_on_c, 0, 75, 0
2, 65280, Note_on_c, 0, 76, 75
2, 65760, Note_on_c, 0, 76, 0
2, 65760, Control_c, 0, 64, 0
2, 65760, Note_on_c, 0, 78, 75
2, 66180, Note_on_c, 0, 81, 75
2, 66240, Note_on_c, 0, 81, 0
2, 66240, Note_on_c, 0, 78, 0
2, 66240, Note_on_c, 0, 80, 88
2, 66287, Note_on_c, 0, 80, 0
2, 66720, Note_on_c, 0, 80, 88
2, 66960, Note_on_c, 0, 80, 0
2, 66960, Note_on_c, 0, 81, 88
2, 67200, Note_on_c, 0, 81, 0
2, 67200, Note_on_c, 0, 80, 88
2, 69060, Note_on_c, 0, 82, 88
2, 69120, Note_on_c, 0, 82, 0
2, 69120, Note_on_c, 0, 80, 0
2, 69120, Note_on_c, 0, 80, 88
2, 69167, Note_on_c, 0, 80, 0
2, 69600, Note_on_c, 0, 80, 88
2, 69840, Note_on_c, 0, 80, 0
2, 69840, Note_on_c, 0, 82, 88
2, 70080, Note_on_c, 0, 82, 0
2, 70080, Note_on_c, 0, 80, 88
2, 71040, Note_on_c, 0, 80, 0
2, 71040, Note_on_c, 0, 78, 88
2, 71280, Note_on_c, 0, 78, 0
2, 71280, Note_on_c, 0, 80, 88
2, 71520, Note_on_c, 0, 80, 0
2, 71520, Note_on_c, 0, 78, 88
2, 72480, Note_on_c, 0, 78, 0
2, 72480, Note_on_c, 0, 76, 88
2, 72720, Note_on_c, 0, 76, 0
2, 72720, Note_on_c, 0, 78, 88
2, 72960, Note_on_c, 0, 78, 0
2, 72960, Note_on_c, 0, 76, 88
2, 73920, Note_on_c, 0, 76, 0
2, 73920, Note_on_c, 0, 75, 88
2, 74160, Note_on_c, 0, 75, 0
2, 74160, Note_on_c, 0, 76, 88
2, 74400, Note_on_c, 0, 76, 0
2, 74400, Note_on_c, 0, 75, 88
2, 75360, Note_on_c, 0, 75, 0
2, 75360, Note_on_c, 0, 73, 88
2, 75600, Note_on_c, 0, 73, 0
2, 75600, Note_on_c, 0, 75, 88
2, 75840, Note_on_c, 0, 75, 0
2, 75840, Note_on_c, 0, 73, 88
2, 76800, Note_on_c, 0, 73, 0
2, 76800, Note_on_c, 0, 68, 88
2, 77280, Note_on_c, 0, 68, 0
2, 77280, Note_on_c, 0, 71, 88
2, 77760, Note_on_c, 0, 71, 0
2, 77760, Note_on_c, 0, 71, 88
2, 78720, Note_on_c, 0, 71, 0
2, 78720, Note_on_c, 0, 70, 88
2, 79200, Note_on_c, 0, 70, 0
2, 79200, Note_on_c, 0, 71, 88
2, 80160, Note_on_c, 0, 71, 0
2, 80640, Note_on_c, 0, 74, 62
2, 80700, Note_on_c, 0, 74, 0
2, 80700, Note_on_c, 0, 73, 62
2, 80742, Note_on_c, 0, 73, 0
2, 81120, Note_on_c, 0, 73, 62
2, 81360, Note_on_c, 0, 73, 0
2, 81360, Note_on_c, 0, 74, 62
2, 81600, Note_on_c, 0, 74, 0
2, 81600, Note_on_c, 0, 73, 62
2, 82080, Note_on_c, 0, 73, 0
2, 82080, Control_c, 0, 64, 127
2, 82080, Note_on_c, 0, 71, 62
2, 82560, Note_on_c, 0, 71, 0
2, 82560, Note_on_c, 0, 73, 62
2, 83040, Note_on_c, 0, 73, 0
2, 83040, Control_c, 0, 64, 0
2, 83040, Note_on_c, 0, 74, 62
2, 83460, Note_on_c, 0, 74, 62
2, 83520, Note_on_c, 0, 74, 0
2, 83520, Note_on_c, 0, 74, 0
2, 83520, Note_on_c, 0, 73, 62
2, 83567, Note_on_c, 0, 73, 0
2, 84000, Note_on_c, 0, 73, 62
2, 84240, Note_on_c, 0, 73, 0
2, 84240, Note_on_c, 0, 75, 62
2, 84480, Note_on_c, 0, 75, 0
2, 84480, Note_on_c, 0, 73, 62
2, 84960, Note_on_c, 0, 73, 0
2, 84960, Control_c, 0, 64, 127
2, 84960, Note_on_c, 0, 71, 62
2, 85440, Note_on_c, 0, 71, 0
2, 85440, Note_on_c, 0, 77, 62
2, 85920, Note_on_c, 0, 77, 0
2, 85920, Control_c, 0, 64, 0
2, 85920, Note_on_c, 0, 75, 62
2, 86400, Note_on_c, 0, 75, 0
2, 86400, Control_c, 0, 64, 127
2, 86400, Note_on_c, 0, 73, 75
2, 86880, Note_on_c, 0, 73, 0
2, 86880, Note_on_c, 0, 78, 75
2, 87360, Note_on_c, 0, 78, 0
2, 87360, Control_c, 0, 64, 0
2, 87360, Note_on_c, 0, 72, 75
2, 87840, Note_on_c, 0, 72, 0
2, 87840, Control_c, 0, 64, 127
2, 87840, Note_on_c, 0, 71, 75
2, 88320, Note_on_c, 0, 71, 0
2, 88320, Note_on_c, 0, 78, 75
2, 88800, Note_on_c, 0, 78, 0
2, 88800, Control_c, 0, 64, 0
2, 88800, Note_on_c, 0, 70, 75
2, 89280, Note_on_c, 0, 70, 0
2, 89760, Note_on_c, 0, 78, 75
2, 90720, Note_on_c, 0, 78, 0
2, 91200, Note_on_c, 0, 78, 75
2, 91920, Note_on_c, 0, 78, 0
2, 91920, Note_on_c, 0, 63, 75
2, 91980, Note_on_c, 0, 63, 0
2, 91980, Note_on_c, 0, 66, 75
2, 92040, Note_on_c, 0, 66, 0
2, 92040, Note_on_c, 0, 71, 75
2, 92100, Note_on_c, 0, 71, 0
2, 92100, Note_on_c, 0, 76, 75
2, 92160, Note_on_c, 0, 76, 0
2, 92160, Note_on_c, 0, 75, 88
2, 92207, Note_on_c, 0, 75, 0
2, 92640, Note_on_c, 0, 75, 62
2, 92880, Note_on_c, 0, 75, 0
2, 92880, Note_on_c, 0, 76, 62
2, 93120, Note_on_c, 0, 76, 0
2, 93120, Note_on_c, 0, 75, 62
2, 93600, Note_on_c, 0, 75, 0
2, 93600, Control_c, 0, 64, 127
2, 93600, Note_on_c, 0, 73, 62
2, 94080, Note_on_c, 0, 73, 0
2, 94080, Note_on_c, 0, 75, 62
2, 94560, Note_on_c, 0, 75, 0
2, 94560, Control_c, 0, 64, 0
2, 94560, Note_on_c, 0, 76, 62
2, 94980, Note_on_c, 0, 80, 62
2, 95040, Note_on_c, 0, 80, 0
2, 95040, Note_on_c, 0, 76, 0
2, 95040, Note_on_c, 0, 78, 62
2, 95087, Note_on_c, 0, 78, 0
2, 95520, Note_on_c, 0, 78, 62
2, 95760, Note_on_c, 0, 78, 0
2, 95760, Note_on_c, 0, 80, 62
2, 96000, Note_on_c, 0, 80, 0
2, 96000, Note_on_c, 0, 78, 62
2, 97860, Note_on_c, 0, 80, 62
2, 97920, Note_on_c, 0, 80, 0
2, 97920, Note_on_c, 0, 78, 0
2, 97920, Note_on_c, 0, 78, 62
2, 97967, Note_on_c, 0, 78, 0
2, 98400, Note_on_c, 0, 78, 62
2, 98640, Note_on_c, 0, 78, 0
2, 98640, Note_on_c, 0, 80, 62
2, 98880, Note_on_c, 0, 80, 0
2, 98880, Note_on_c, 0, 78, 62
2, 99360, Note_on_c, 0, 78, 0
2, 99360, Control_c, 0, 64, 127
2, 99360, Note_on_c, 0, 75, 75
2, 99840, Note_on_c, 0, 75, 0
2, 99840, Note_on_c, 0, 76, 75
2, 100320, Note_on_c, 0, 76, 0
2, 100320, Control_c, 0, 64, 0
2, 100320, Note_on_c, 0, 78, 75
2, 100740, Note_on_c, 0, 81, 75
2, 100800, Note_on_c, 0, 81, 0
2, 100800, Note_on_c, 0, 78, 0
2, 100800, Note_on_c, 0, 80, 88
2, 100847, Note_on_c, 0, 80, 0
2, 101280, Note_on_c, 0, 80, 88
2, 101520, Note_on_c, 0, 80, 0
2, 101520, Note_on_c, 0, 81, 88
2, 101760, Note_on_c, 0, 81, 0
2, 101760, Note_on_c, 0, 80, 88
2, 103620, Note_on_c, 0, 82, 88
2, 103680, Note_on_c, 0, 82, 0
2, 103680, Note_on_c, 0, 80, 0
2, 103680, Note_on_c, 0, 80, 88
2, 103727, Note_on_c, 0, 80, 0
2, 104160, Note_on_c, 0, 80, 88
2, 104400, Note_on_c, 0, 80, 0
2, 104400, Note_on_c, 0, 82, 88
2, 104640, Note_on_c, 0, 82, 0
2, 104640, Note_on_c, 0, 80, 88
2, 105600, Note_on_c, 0, 80, 0
2, 105600, Note_on_c, 0, 78, 88
2, 105840, Note_on_c, 0, 78, 0
2, 105840, Note_on_c, 0, 80, 88
2, 106080, Note_on_c, 0, 80, 0
2, 106080, Note_on_c, 0, 78, 88
2, 107040, Note_on_c, 0, 78, 0
2, 107040, Note_on_c, 0, 76, 88
2, 107280, Note_on_c, 0, 76, 0
2, 107280, Note_on_c, 0, 78, 88
2, 107520, Note_on_c, 0, 78, 0
2, 107520, Note_on_c, 0, 76, 88
2, 108480, Note_on_c, 0, 76, 0
2, 108480, Note_on_c, 0, 75, 88
2, 108720, Note_on_c, 0, 75, 0
2, 108720, Note_on_c, 0, 76, 88
2, 108960, Note_on_c, 0, 76, 0
2, 108960, Note_on_c, 0, 75, 88
2, 109920, Note_on_c, 0, 75, 0
2, 109920, Note_on_c, 0, 73, 88
2, 110160, Note_on_c, 0, 73, 0
2, 110160, Note_on_c, 0, 75, 88
2, 110400, Note_on_c, 0, 75, 0
2, 110400, Note_on_c, 0, 73, 88
2, 111360, Note_on_c, 0, 73, 0
2, 111360, Note_on_c, 0, 68, 88
2, 111840, Note_on_c, 0, 68, 0
2, 111840, Note_on_c, 0, 71, 88
2, 112320, Note_on_c, 0, 71, 0
2, 112320, Note_on_c, 0, 71, 88
2, 113280, Note_on_c, 0, 71, 0
2, 113280, Note_on_c, 0, 70, 88
2, 113760, Note_on_c, 0, 70, 0
2, 113760, Note_on_c, 0, 71, 88
2, 114720, Note_on_c, 0, 71, 0
2, 115200, Control_c, 0, 64, 127
2, 116160, Control_c, 0, 64, 0
2, 116160, End_track
3, 0, Start_track
3, 0, Title_t, "Instrument17"
3, 0, Program_c, 0, 0
3, 0, Control_c, 0, 7, 115
3, 0, Control_c, 0, 10, 80
3, 0, Note_on_c, 0, 73, 49
3, 60, Note_on_c, 0, 73, 0
3, 60, Note_on_c, 0, 71, 49
3, 102, Note_on_c, 0, 71, 0
3, 480, Note_on_c, 0, 71, 49
3, 720, Note_on_c, 0, 71, 0
3, 720, Note_on_c, 0, 73, 49
3, 960, Note_on_c, 0, 73, 0
3, 960, Note_on_c, 0, 71, 49
3, 1440, Note_on_c, 0, 71, 0
3, 1440, Control_c, 0, 64, 127
3, 1440, Note_on_c, 0, 70, 49
3, 1920, Note_on_c, 0, 70, 0
3, 1920, Note_on_c, 0, 71, 49
3, 2400, Note_on_c, 0, 71, 0
3, 2400, Control_c, 0, 64, 0
3, 2400, Note_on_c, 0, 73, 49
3, 2820, Note_on_c, 0, 76, 49
3, 2880, Note_on_c, 0, 76, 0
3, 2880, Note_on_c, 0, 73, 0
3, 2880, Note_on_c, 0, 74, 49
3, 2927, Note_on_c, 0, 74, 0
3, 3360, Note_on_c, 0, 74, 49
3, 3600, Note_on_c, 0, 74, 0
3, 3600, Note_on_c, 0, 76, 49
3, 3840, Note_on_c, 0, 76, 0
3, 3840, Note_on_c, 0, 74, 49
3, 4320, Note_on_c, 0, 74, 0
3, 4320, Note_on_c, 0, 73, 49
3, 5760, Note_on_c, 0, 73, 0
3, 5760, Note_on_c, 0, 73, 49
3, 5807, Note_on_c, 0, 73, 0
3, 6240, Note_on_c, 0, 73, 49
3, 7200, Note_on_c, 0, 73, 0
3, 7200, Control_c, 0, 64, 127
3, 7200, Note_on_c, 0, 77, 49
3, 7680, Note_on_c, 0, 77, 0
3, 7680, Note_on_c, 0, 78, 49
3, 8160, Note_on_c, 0, 78, 0
3, 8160, Control_c, 0, 64, 0
3, 8160, Note_on_c, 0, 80, 49
3, 8580, Note_on_c, 0, 83, 49
3, 8640, Note_on_c, 0, 83, 0
3, 8640, Note_on_c, 0, 80, 0
3, 8640, Note_on_c, 0, 81, 49
3, 8687, Note_on_c, 0, 81, 0
3, 9120, Note_on_c, 0, 81, 49
3, 9360, Note_on_c, 0, 81, 0
3, 9360, Note_on_c, 0, 83, 49
3, 9600, Note_on_c, 0, 83, 0
3, 9600, Note_on_c, 0, 81, 49
3, 10080, Note_on_c, 0, 81, 0
3, 10080, Note_on_c, 0, 80, 49
3, 11520, Note_on_c, 0, 80, 0
3, 11520, Note_on_c, 0, 79, 49
3, 12000, Note_on_c, 0, 79, 0
3, 12000, Note_on_c, 0, 67, 49
3, 12000, Note_on_c, 0, 73, 49
3, 12960, Note_on_c, 0, 67, 0
3, 12960, Note_on_c, 0, 66, 49
3, 13920, Note_on_c, 0, 66, 0
3, 13920, Note_on_c, 0, 73, 0
3, 13920, Note_on_c, 0, 71, 49
3, 14400, Note_on_c, 0, 64, 49
3, 15360, Note_on_c, 0, 64, 0
3, 15360, Note_on_c, 0, 71, 0
3, 15360, Note_on_c, 0, 69, 49
3, 15840, Note_on_c, 0, 62, 49
3, 16800, Note_on_c, 0, 62, 0
3, 16800, Note_on_c, 0, 69, 0
3, 16800, Note_on_c, 0, 67, 49
3, 17280, Note_on_c, 0, 67, 0
3, 17280, Note_on_c, 0, 61, 49
3, 17280, Note_on_c, 0, 67, 49
3, 18240, Note_on_c, 0, 67, 0
3, 18240, Note_on_c, 0, 61, 0
3, 18240, Note_on_c, 0, 66, 49
3, 18720, Note_on_c, 0, 66, 0
3, 18720, Note_on_c, 0, 71, 49
3, 20160, Note_on_c, 0, 71, 0
3, 20160, Note_on_c, 0, 69, 49
3, 20160, Note_on_c, 0, 73, 49
3, 20640, Note_on_c, 0, 73, 0
3, 20640, Note_on_c, 0, 69, 0
3, 21120, Note_on_c, 0, 69, 49
3, 21120, Note_on_c, 0, 73, 49
3, 21600, Note_on_c, 0, 73, 0
3, 21600, Note_on_c, 0, 69, 0
3, 21600, Note_on_c, 0, 69, 49
3, 21600, Note_on_c, 0, 73, 49
3, 22560, Note_on_c, 0, 73, 0
3, 22560, Note_on_c, 0, 69, 0
3, 23040, Note_on_c, 0, 73, 49
3, 23100, Note_on_c, 0, 73, 0
3, 23100, Note_on_c, 0, 71, 49
3, 23142, Note_on_c, 0, 71, 0
3, 23520, Note_on_c, 0, 71, 49
3, 23760, Note_on_c, 0, 71, 0
3, 23760, Note_on_c, 0, 73, 49
3, 24000, Note_on_c, 0, 73, 0
3, 24000, Note_on_c, 0, 71, 49
3, 24480, Note_on_c, 0, 71, 0
3, 24480, Control_c, 0, 64, 127
3, 24480, Note_on_c, 0, 70, 49
3, 24960, Note_on_c, 0, 70, 0
3, 24960, Note_on_c, 0, 71, 49
3, 25440, Note_on_c, 0, 71, 0
3, 25440, Control_c, 0, 64, 0
3, 25440, Note_on_c, 0, 73, 49
3, 25860, Note_on_c, 0, 76, 49
3, 25920, Note_on_c, 0, 76, 0
3, 25920, Note_on_c, 0, 73, 0
3, 25920, Note_on_c, 0, 74, 49
3, 25967, Note_on_c, 0, 74, 0
3, 26400, Note_on_c, 0, 74, 49
3, 26640, Note_on_c, 0, 74, 0
3, 26640, Note_on_c, 0, 76, 49
3, 26880, Note_on_c, 0, 76, 0
3, 26880, Note_on_c, 0, 74, 49
3, 27360, Note_on_c, 0, 74, 0
3, 27360, Note_on_c, 0, 73, 49
3, 28800, Note_on_c, 0, 73, 0
3, 28800, Note_on_c, 0, 73, 49
3, 28847, Note_on_c, 0, 73, 0
3, 29280, Note_on_c, 0, 73, 49
3, 30240, Note_on_c, 0, 73, 0
3, 30240, Control_c, 0, 64, 127
3, 30240, Note_on_c, 0, 77, 49
3, 30720, Note_on_c, 0, 77, 0
3, 30720, Note_on_c, 0, 78, 49
3, 31200, Note_on_c, 0, 78, 0
3, 31200, Control_c, 0, 64, 0
3, 31200, Note_on_c, 0, 80, 49
3, 31620, Note_on_c, 0, 83, 49
3, 31680, Note_on_c, 0, 83, 0
3, 31680, Note_on_c, 0, 80, 0
3, 31680, Note_on_c, 0, 81, 49
3, 31727, Note_on_c, 0, 81, 0
3, 32160, Note_on_c, 0, 81, 49
3, 32400, Note_on_c, 0, 81, 0
3, 32400, Note_on_c, 0, 83, 49
3, 32640, Note_on_c, 0, 83, 0
3, 32640, Note_on_c, 0, 81, 49
3, 33120, Note_on_c, 0, 81, 0
3, 33120, Note_on_c, 0, 80, 49
3, 34560, Note_on_c, 0, 80, 0
3, 34560, Note_on_c, 0, 79, 49
3, 35040, Note_on_c, 0, 79, 0
3, 35040, Note_on_c, 0, 67, 49
3, 35040, Note_on_c, 0, 73, 49
3, 36000, Note_on_c, 0, 67, 0
3, 36000, Note_on_c, 0, 66, 49
3, 36960, Note_on_c, 0, 66, 0
3, 36960, Note_on_c, 0, 73, 0
3, 36960, Note_on_c, 0, 71, 49
3, 37440, Note_on_c, 0, 64, 49
3, 38400, Note_on_c, 0, 64, 0
3, 38400, Note_on_c, 0, 71, 0
3, 38400, Note_on_c, 0, 69, 49
3, 38880, Note_on_c, 0, 62, 49
3, 39840, Note_on_c, 0, 62, 0
3, 39840, Note_on_c, 0, 69, 0
3, 39840, Note_on_c, 0, 67, 49
3, 40320, Note_on_c, 0, 67, 0
3, 40320, Note_on_c, 0, 61, 49
3, 40320, Note_on_c, 0, 67, 49
3, 41280, Note_on_c, 0, 67, 0
3, 41280, Note_on_c, 0, 61, 0
3, 41280, Note_on_c, 0, 66, 49
3, 41760, Note_on_c, 0, 66, 0
3, 41760, Note_on_c, 0, 71, 49
3, 43200, Note_on_c, 0, 71, 0
3, 43200, Note_on_c, 0, 69, 49
3, 43200, Note_on_c, 0, 73, 49
3, 43680, Note_on_c, 0, 73, 0
3, 43680, Note_on_c, 0, 69, 0
3, 44160, Note_on_c, 0, 69, 49
3, 44160, Note_on_c, 0, 73, 49
3, 44640, Note_on_c, 0, 73, 0
3, 44640, Note_on_c, 0, 69, 0
3, 44640, Note_on_c, 0, 69, 49
3, 44640, Note_on_c, 0, 73, 49
3, 45600, Note_on_c, 0, 73, 0
3, 45600, Note_on_c, 0, 69, 0
3, 46080, Note_on_c, 0, 71, 49
3, 46140, Note_on_c, 0, 71, 0
3, 46140, Note_on_c, 0, 69, 49
3, 46182, Note_on_c, 0, 69, 0
3, 46560, Note_on_c, 0, 69, 49
3, 46800, Note_on_c, 0, 69, 0
3, 46800, Note_on_c, 0, 71, 49
3, 47040, Note_on_c, 0, 71, 0
3, 47040, Note_on_c, 0, 69, 49
3, 47520, Note_on_c, 0, 69, 0
3, 47520, Control_c, 0, 64, 127
3, 47520, Note_on_c, 0, 68, 49
3, 48000, Note_on_c, 0, 68, 0
3, 48000, Note_on_c, 0, 69, 49
3, 48480, Note_on_c, 0, 69, 0
3, 48480, Control_c, 0, 64, 0
3, 48480, Note_on_c, 0, 71, 49
3, 48900, Note_on_c, 0, 71, 49
3, 48960, Note_on_c, 0, 71, 0
3, 48960, Note_on_c, 0, 71, 0
3, 48960, Note_on_c, 0, 70, 49
3, 49007, Note_on_c, 0, 70, 0
3, 49440, Note_on_c, 0, 70, 49
3, 49680, Note_on_c, 0, 70, 0
3, 49680, Note_on_c, 0, 71, 49
3, 49920, Note_on_c, 0, 71, 0
3, 49920, Note_on_c, 0, 70, 49
3, 50400, Note_on_c, 0, 70, 0
3, 50400, Control_c, 0, 64, 127
3, 50400, Note_on_c, 0, 68, 49
3, 50880, Note_on_c, 0, 68, 0
3, 50880, Note_on_c, 0, 73, 49
3, 51360, Note_on_c, 0, 73, 0
3, 51360, Control_c, 0, 64, 0
3, 51360, Note_on_c, 0, 71, 49
3, 51840, Note_on_c, 0, 71, 0
3, 51840, Control_c, 0, 64, 127
3, 51840, Note_on_c, 0, 70, 62
3, 52800, Note_on_c, 0, 70, 0
3, 52800, Note_on_c, 0, 69, 62
3, 53280, Note_on_c, 0, 69, 0
3, 53280, Note_on_c, 0, 68, 62
3, 54240, Note_on_c, 0, 68, 0
3, 54240, Control_c, 0, 64, 0
3, 54240, Note_on_c, 0, 66, 62
3, 54720, Note_on_c, 0, 66, 0
3, 54720, Control_c, 0, 64, 127
3, 54720, Note_on_c, 0, 68, 62
3, 55680, Note_on_c, 0, 68, 0
3, 55680, Note_on_c, 0, 67, 62
3, 56160, Note_on_c, 0, 67, 0
3, 56160, Note_on_c, 0, 66, 62
3, 57120, Note_on_c, 0, 66, 0
3, 57120, Control_c, 0, 64, 0
3, 57120, Note_on_c, 0, 64, 62
3, 57600, Note_on_c, 0, 64, 0
3, 58080, Note_on_c, 0, 71, 49
3, 58320, Note_on_c, 0, 71, 0
3, 58320, Note_on_c, 0, 73, 49
3, 58560, Note_on_c, 0, 73, 0
3, 58560, Note_on_c, 0, 71, 49
3, 59040, Note_on_c, 0, 71, 0
3, 59040, Control_c, 0, 64, 127
3, 59040, Note_on_c, 0, 70, 49
3, 59520, Note_on_c, 0, 70, 0
3, 59520, Note_on_c, 0, 71, 49
3, 60000, Note_on_c, 0, 71, 0
3, 60000, Control_c, 0, 64, 0
3, 60000, Note_on_c, 0, 73, 49
3, 60420, Note_on_c, 0, 76, 49
3, 60480, Note_on_c, 0, 76, 0
3, 60480, Note_on_c, 0, 73, 0
3, 60480, Note_on_c, 0, 75, 49
3, 60527, Note_on_c, 0, 75, 0
3, 60960, Note_on_c, 0, 75, 49
3, 61200, Note_on_c, 0, 75, 0
3, 61200, Note_on_c, 0, 76, 49
3, 61440, Note_on_c, 0, 76, 0
3, 61440, Note_on_c, 0, 75, 49
3, 61920, Note_on_c, 0, 75, 0
3, 61920, Note_on_c, 0, 73, 49
3, 63360, Note_on_c, 0, 73, 0
3, 63360, Note_on_c, 0, 72, 49
3, 63407, Note_on_c, 0, 72, 0
3, 63840, Note_on_c, 0, 72, 49
3, 64800, Note_on_c, 0, 72, 0
3, 64800, Control_c, 0, 64, 127
3, 64800, Note_on_c, 0, 72, 62
3, 65280, Note_on_c, 0, 72, 0
3, 65280, Note_on_c, 0, 73, 62
3, 65760, Note_on_c, 0, 73, 0
3, 65760, Control_c, 0, 64, 0
3, 65760, Note_on_c, 0, 75, 62
3, 66180, Note_on_c, 0, 78, 62
3, 66240, Note_on_c, 0, 78, 0
3, 66240, Note_on_c, 0, 75, 0
3, 66240, Note_on_c, 0, 76, 75
3, 66287, Note_on_c, 0, 76, 0
3, 66720, Note_on_c, 0, 76, 75
3, 66960, Note_on_c, 0, 76, 0
3, 66960, Note_on_c, 0, 78, 75
3, 67200, Note_on_c, 0, 78, 0
3, 67200, Note_on_c, 0, 76, 75
3, 67680, Note_on_c, 0, 76, 0
3, 67680, Note_on_c, 0, 75, 75
3, 69120, Note_on_c, 0, 75, 0
3, 69120, Control_c, 0, 64, 127
3, 69120, Note_on_c, 0, 74, 75
3, 70560, Note_on_c, 0, 74, 0
3, 70560, Note_on_c, 0, 75, 75
3, 72000, Note_on_c, 0, 75, 0
3, 72000, Note_on_c, 0, 70, 75
3, 73440, Note_on_c, 0, 70, 0
3, 73440, Control_c, 0, 64, 0
3, 73440, Note_on_c, 0, 69, 75
3, 74880, Note_on_c, 0, 69, 0
3, 74880, Note_on_c, 0, 68, 75
3, 76320, Note_on_c, 0, 68, 0
3, 76320, Note_on_c, 0, 61, 75
3, 77760, Note_on_c, 0, 61, 0
3, 77760, Note_on_c, 0, 63, 75
3, 78720, Note_on_c, 0, 63, 0
3, 78720, Note_on_c, 0, 64, 75
3, 79200, Note_on_c, 0, 64, 0
3, 79200, Note_on_c, 0, 63, 75
3, 80160, Note_on_c, 0, 63, 0
3, 80640, Note_on_c, 0, 71, 49
3, 80700, Note_on_c, 0, 71, 0
3, 80700, Note_on_c, 0, 69, 49
3, 80742, Note_on_c, 0, 69, 0
3, 81120, Note_on_c, 0, 69, 49
3, 81360, Note_on_c, 0, 69, 0
3, 81360, Note_on_c, 0, 71, 49
3, 81600, Note_on_c, 0, 71, 0
3, 81600, Note_on_c, 0, 69, 49
3, 82080, Note_on_c, 0, 69, 0
3, 82080, Control_c, 0, 64, 127
3, 82080, Note_on_c, 0, 68, 49
3, 82560, Note_on_c, 0, 68, 0
3, 82560, Note_on_c, 0, 69, 49
3, 83040, Note_on_c, 0, 69, 0
3, 83040, Control_c, 0, 64, 0
3, 83040, Note_on_c, 0, 71, 49
3, 83460, Note_on_c, 0, 71, 49
3, 83520, Note_on_c, 0, 71, 0
3, 83520, Note_on_c, 0, 71, 0
3, 83520, Note_on_c, 0, 70, 49
3, 83567, Note_on_c, 0, 70, 0
3, 84000, Note_on_c, 0, 70, 49
3, 84240, Note_on_c, 0, 70, 0
3, 84240, Note_on_c, 0, 71, 49
3, 84480, Note_on_c, 0, 71, 0
3, 84480, Note_on_c, 0, 70, 49
3, 84960, Note_on_c, 0, 70, 0
3, 84960, Control_c, 0, 64, 127
3, 84960, Note_on_c, 0, 68, 49
3, 85440, Note_on_c, 0, 68, 0
3, 85440, Note_on_c, 0, 73, 49
3, 85920, Note_on_c, 0, 73, 0
3, 85920, Control_c, 0, 64, 0
3, 85920, Note_on_c, 0, 71, 49
3, 86400, Note_on_c, 0, 71, 0
3, 86400, Control_c, 0, 64, 127
3, 86400, Note_on_c, 0, 70, 62
3, 87360, Note_on_c, 0, 70, 0
3, 87360, Note_on_c, 0, 69, 62
3, 87840, Note_on_c, 0, 69, 0
3, 87840, Note_on_c, 0, 68, 62
3, 88800, Note_on_c, 0, 68, 0
3, 88800, Control_c, 0, 64, 0
3, 88800, Note_on_c, 0, 66, 62
3, 89280, Note_on_c, 0, 66, 0
3, 89280, Control_c, 0, 64, 127
3, 89280, Note_on_c, 0, 68, 62
3, 90240, Note_on_c, 0, 68, 0
3, 90240, Note_on_c, 0, 67, 62
3, 90720, Note_on_c, 0, 67, 0
3, 90720, Note_on_c, 0, 66, 62
3, 91680, Note_on_c, 0, 66, 0
3, 91680, Control_c, 0, 64, 0
3, 91680, Note_on_c, 0, 64, 62
3, 92160, Note_on_c, 0, 64, 0
3, 92640, Note_on_c, 0, 71, 49
3, 92880, Note_on_c, 0, 71, 0
3, 92880, Note_on_c, 0, 73, 49
3, 93120, Note_on_c, 0, 73, 0
3, 93120, Note_on_c, 0, 71, 49
3, 93600, Note_on_c, 0, 71, 0
3, 93600, Control_c, 0, 64, 127
3, 93600, Note_on_c, 0, 70, 49
3, 94080, Note_on_c, 0, 70, 0
3, 94080, Note_on_c, 0, 71, 49
3, 94560, Note_on_c, 0, 71, 0
3, 94560, Control_c, 0, 64, 0
3, 94560, Note_on_c, 0, 73, 49
3, 94980, Note_on_c, 0, 76, 49
3, 95040, Note_on_c, 0, 76, 0
3, 95040, Note_on_c, 0, 73, 0
3, 95040, Note_on_c, 0, 75, 49
3, 95087, Note_on_c, 0, 75, 0
3, 95520, Note_on_c, 0, 75, 49
3, 95760, Note_on_c, 0, 75, 0
3, 95760, Note_on_c, 0, 76, 49
3, 96000, Note_on_c, 0, 76, 0
3, 96000, Note_on_c, 0, 75, 49
3, 96480, Note_on_c, 0, 75, 0
3, 96480, Note_on_c, 0, 73, 49
3, 97920, Note_on_c, 0, 73, 0
3, 97920, Note_on_c, 0, 72, 49
3, 97967, Note_on_c, 0, 72, 0
3, 98400, Note_on_c, 0, 72, 49
3, 99360, Note_on_c, 0, 72, 0
3, 99360, Control_c, 0, 64, 127
3, 99360, Note_on_c, 0, 72, 62
3, 99840, Note_on_c, 0, 72, 0
3, 99840, Note_on_c, 0, 73, 62
3, 100320, Note_on_c, 0, 73, 0
3, 100320, Control_c, 0, 64, 0
3, 100320, Note_on_c, 0, 75, 62
3, 100740, Note_on_c, 0, 78, 62
3, 100800, Note_on_c, 0, 78, 0
3, 100800, Note_on_c, 0, 75, 0
3, 100800, Note_on_c, 0, 76, 75
3, 100847, Note_on_c, 0, 76, 0
3, 101280, Note_on_c, 0, 76, 75
3, 101520, Note_on_c, 0, 76, 0
3, 101520, Note_on_c, 0, 78, 75
3, 101760, Note_on_c, 0, 78, 0
3, 101760, Note_on_c, 0, 76, 75
3, 102240, Note_on_c, 0, 76, 0
3, 102240, Note_on_c, 0, 75, 75
3, 103680, Note_on_c, 0, 75, 0
3, 103680, Control_c, 0, 64, 127
3, 103680, Note_on_c, 0, 74, 75
3, 105120, Note_on_c, 0, 74, 0
3, 105120, Note_on_c, 0, 75, 75
3, 106560, Note_on_c, 0, 75, 0
3, 106560, Note_on_c, 0, 70, 75
3, 108000, Note_on_c, 0, 70, 0
3, 108000, Control_c, 0, 64, 0
3, 108000, Note_on_c, 0, 69, 75
3, 109440, Note_on_c, 0, 69, 0
3, 109440, Note_on_c, 0, 68, 75
3, 110880, Note_on_c, 0, 68, 0
3, 110880, Note_on_c, 0, 61, 75
3, 112320, Note_on_c, 0, 61, 0
3, 112320, Note_on_c, 0, 63, 75
3, 113280, Note_on_c, 0, 63, 0
3, 113280, Note_on_c, 0, 64, 75
3, 113760, Note_on_c, 0, 64, 0
3, 113760, Note_on_c, 0, 63, 75
3, 114720, Note_on_c, 0, 63, 0
3, 114720, End_track
4, 0, Start_track
4, 0, Title_t, "Instrument18"
4, 0, Program_c, 0, 0
4, 0, Control_c, 0, 7, 115
4, 0, Control_c, 0, 10, 47
4, 480, Note_on_c, 0, 54, 49
4, 480, Note_on_c, 0, 59, 49
4, 480, Note_on_c, 0, 62, 49
4, 960, Note_on_c, 0, 62, 0
4, 960, Note_on_c, 0, 59, 0
4, 960, Note_on_c, 0, 54, 0
4, 960, Note_on_c, 0, 54, 49
4, 960, Note_on_c, 0, 59, 49
4, 960, Note_on_c, 0, 62, 49
4, 1440, Note_on_c, 0, 62, 0
4, 1440, Note_on_c, 0, 59, 0
4, 1440, Note_on_c, 0, 54, 0
4, 1920, Note_on_c, 0, 54, 49
4, 1920, Note_on_c, 0, 59, 49
4, 1920, Note_on_c, 0, 66, 49
4, 2400, Note_on_c, 0, 66, 0
4, 2400, Note_on_c, 0, 59, 0
4, 2400, Note_on_c, 0, 54, 0
4, 2400, Note_on_c, 0, 54, 49
4, 2400, Note_on_c, 0, 59, 49
4, 2400, Note_on_c, 0, 64, 49
4, 2880, Note_on_c, 0, 64, 0
4, 2880, Note_on_c, 0, 59, 0
4, 2880, Note_on_c, 0, 54, 0
4, 3360, Note_on_c, 0, 54, 49
4, 3360, Note_on_c, 0, 59, 49
4, 3360, Note_on_c, 0, 62, 49
4, 3840, Note_on_c, 0, 62, 0
4, 3840, Note_on_c, 0, 59, 0
4, 3840, Note_on_c, 0, 54, 0
4, 3840, Note_on_c, 0, 54, 49
4, 3840, Note_on_c, 0, 59, 49
4, 3840, Note_on_c, 0, 62, 49
4, 4320, Note_on_c, 0, 62, 0
4, 4320, Note_on_c, 0, 59, 0
4, 4320, Note_on_c, 0, 54, 0
4, 4800, Note_on_c, 0, 54, 49
4, 4800, Note_on_c, 0, 61, 49
4, 5280, Note_on_c, 0, 61, 0
4, 5280, Note_on_c, 0, 54, 0
4, 5280, Note_on_c, 0, 54, 49
4, 5280, Note_on_c, 0, 61, 49
4, 5760, Note_on_c, 0, 61, 0
4, 5760, Note_on_c, 0, 54, 0
4, 6240, Note_on_c, 0, 57, 49
4, 6240, Note_on_c, 0, 61, 49
4, 6240, Note_on_c, 0, 66, 49
4, 6720, Note_on_c, 0, 66, 0
4, 6720, Note_on_c, 0, 61, 0
4, 6720, Note_on_c, 0, 57, 0
4, 6720, Note_on_c, 0, 57, 49
4, 6720, Note_on_c, 0, 61, 49
4, 6720, Note_on_c, 0, 66, 49
4, 7200, Note_on_c, 0, 66, 0
4, 7200, Note_on_c, 0, 61, 0
4, 7200, Note_on_c, 0, 57, 0
4, 7680, Note_on_c, 0, 56, 49
4, 7680, Note_on_c, 0, 59, 49
4, 7680, Note_on_c, 0, 65, 49
4, 8160, Note_on_c, 0, 65, 0
4, 8160, Note_on_c, 0, 59, 0
4, 8160, Note_on_c, 0, 56, 0
4, 8160, Note_on_c, 0, 56, 49
4, 8160, Note_on_c, 0, 59, 49
4, 8160, Note_on_c, 0, 65, 49
4, 8640, Note_on_c, 0, 65, 0
4, 8640, Note_on_c, 0, 59, 0
4, 8640, Note_on_c, 0, 56, 0
4, 9120, Note_on_c, 0, 57, 49
4, 9120, Note_on_c, 0, 61, 49
4, 9120, Note_on_c, 0, 66, 49
4, 9600, Note_on_c, 0, 66, 0
4, 9600, Note_on_c, 0, 61, 0
4, 9600, Note_on_c, 0, 57, 0
4, 9600, Note_on_c, 0, 57, 49
4, 9600, Note_on_c, 0, 61, 49
4, 9600, Note_on_c, 0, 66, 49
4, 10080, Note_on_c, 0, 66, 0
4, 10080, Note_on_c, 0, 61, 0
4, 10080, Note_on_c, 0, 57, 0
4, 10560, Note_on_c, 0, 61, 49
4, 10560, Note_on_c, 0, 68, 49
4, 11040, Note_on_c, 0, 68, 0
4, 11040, Note_on_c, 0, 61, 0
4, 11040, Note_on_c, 0, 56, 49
4, 11040, Note_on_c, 0, 61, 49
4, 11520, Note_on_c, 0, 61, 0
4, 11520, Note_on_c, 0, 56, 0
4, 12000, Note_on_c, 0, 55, 49
4, 12000, Note_on_c, 0, 61, 49
4, 12480, Note_on_c, 0, 61, 0
4, 12480, Note_on_c, 0, 55, 0
4, 12480, Note_on_c, 0, 55, 49
4, 12480, Note_on_c, 0, 61, 49
4, 12960, Note_on_c, 0, 61, 0
4, 12960, Note_on_c, 0, 55, 0
4, 13440, Note_on_c, 0, 54, 49
4, 13440, Note_on_c, 0, 61, 49
4, 13920, Note_on_c, 0, 61, 0
4, 13920, Note_on_c, 0, 54, 0
4, 13920, Note_on_c, 0, 54, 49
4, 13920, Note_on_c, 0, 59, 49
4, 14400, Note_on_c, 0, 59, 0
4, 14400, Note_on_c, 0, 54, 0
4, 14880, Note_on_c, 0, 52, 49
4, 14880, Note_on_c, 0, 59, 49
4, 15360, Note_on_c, 0, 59, 0
4, 15360, Note_on_c, 0, 52, 0
4, 15360, Note_on_c, 0, 52, 49
4, 15360, Note_on_c, 0, 57, 49
4, 15840, Note_on_c, 0, 57, 0
4, 15840, Note_on_c, 0, 52, 0
4, 16320, Note_on_c, 0, 50, 49
4, 16320, Note_on_c, 0, 57, 49
4, 16800, Note_on_c, 0, 57, 0
4, 16800, Note_on_c, 0, 50, 0
4, 16800, Note_on_c, 0, 50, 49
4, 16800, Note_on_c, 0, 55, 49
4, 17280, Note_on_c, 0, 55, 0
4, 17280, Note_on_c, 0, 50, 0
4, 17760, Note_on_c, 0, 49, 49
4, 17760, Note_on_c, 0, 55, 49
4, 18240, Note_on_c, 0, 55, 0
4, 18240, Note_on_c, 0, 49, 0
4, 18240, Note_on_c, 0, 49, 49
4, 18240, Note_on_c, 0, 54, 49
4, 18720, Note_on_c, 0, 54, 0
4, 18720, Note_on_c, 0, 49, 0
4, 19200, Note_on_c, 0, 49, 49
4, 19200, Note_on_c, 0, 53, 49
4, 19680, Note_on_c, 0, 53, 0
4, 19680, Note_on_c, 0, 49, 0
4, 19680, Note_on_c, 0, 49, 49
4, 19680, Note_on_c, 0, 61, 49
4, 20160, Note_on_c, 0, 61, 0
4, 20160, Note_on_c, 0, 49, 0
4, 20640, Note_on_c, 0, 54, 49
4, 20640, Note_on_c, 0, 57, 49
4, 20640, Note_on_c, 0, 61, 49
4, 21120, Note_on_c, 0, 61, 0
4, 21120, Note_on_c, 0, 57, 0
4, 21120, Note_on_c, 0, 54, 0
4, 21120, Note_on_c, 0, 54, 49
4, 21120, Note_on_c, 0, 57, 49
4, 21120, Note_on_c, 0, 61, 49
4, 21600, Note_on_c, 0, 61, 0
4, 21600, Note_on_c, 0, 57, 0
4, 21600, Note_on_c, 0, 54, 0
4, 22080, Note_on_c, 0, 54, 49
4, 22080, Note_on_c, 0, 57, 49
4, 22080, Note_on_c, 0, 61, 49
4, 22560, Note_on_c, 0, 61, 0
4, 22560, Note_on_c, 0, 57, 0
4, 22560, Note_on_c, 0, 54, 0
4, 22560, Note_on_c, 0, 54, 49
4, 22560, Note_on_c, 0, 66, 49
4, 23040, Note_on_c, 0, 66, 0
4, 23040, Note_on_c, 0, 54, 0
4, 23520, Note_on_c, 0, 54, 49
4, 23520, Note_on_c, 0, 59, 49
4, 23520, Note_on_c, 0, 62, 49
4, 24000, Note_on_c, 0, 62, 0
4, 24000, Note_on_c, 0, 59, 0
4, 24000, Note_on_c, 0, 54, 0
4, 24000, Note_on_c, 0, 54, 49
4, 24000, Note_on_c, 0, 59, 49
4, 24000, Note_on_c, 0, 62, 49
4, 24480, Note_on_c, 0, 62, 0
4, 24480, Note_on_c, 0, 59, 0
4, 24480, Note_on_c, 0, 54, 0
4, 24960, Note_on_c, 0, 54, 49
4, 24960, Note_on_c, 0, 59, 49
4, 24960, Note_on_c, 0, 66, 49
4, 25440, Note_on_c, 0, 66, 0
4, 25440, Note_on_c, 0, 59, 0
4, 25440, Note_on_c, 0, 54, 0
4, 25440, Note_on_c, 0, 54, 49
4, 25440, Note_on_c, 0, 59, 49
4, 25440, Note_on_c, 0, 64, 49
4, 25920, Note_on_c, 0, 64, 0
4, 25920, Note_on_c, 0, 59, 0
4, 25920, Note_on_c, 0, 54, 0
4, 26400, Note_on_c, 0, 54, 49
4, 26400, Note_on_c, 0, 59, 49
4, 26400, Note_on_c, 0, 62, 49
4, 26880, Note_on_c, 0, 62, 0
4, 26880, Note_on_c, 0, 59, 0
4, 26880, Note_on_c, 0, 54, 0
4, 26880, Note_on_c, 0, 54, 49
4, 26880, Note_on_c, 0, 59, 49
4, 26880, Note_on_c, 0, 62, 49
4, 27360, Note_on_c, 0, 62, 0
4, 27360, Note_on_c, 0, 59, 0
4, 27360, Note_on_c, 0, 54, 0
4, 27840, Note_on_c, 0, 54, 49
4, 27840, Note_on_c, 0, 61, 49
4, 28320, Note_on_c, 0, 61, 0
4, 28320, Note_on_c, 0, 54, 0
4, 28320, Note_on_c, 0, 54, 49
4, 28320, Note_on_c, 0, 61, 49
4, 28800, Note_on_c, 0, 61, 0
4, 28800, Note_on_c, 0, 54, 0
4, 29280, Note_on_c, 0, 57, 49
4, 29280, Note_on_c, 0, 61, 49
4, 29280, Note_on_c, 0, 66, 49
4, 29760, Note_on_c, 0, 66, 0
4, 29760, Note_on_c, 0, 61, 0
4, 29760, Note_on_c, 0, 57, 0
4, 29760, Note_on_c, 0, 57, 49
4, 29760, Note_on_c, 0, 61, 49
4, 29760, Note_on_c, 0, 66, 49
4, 30240, Note_on_c, 0, 66, 0
4, 30240, Note_on_c, 0, 61, 0
4, 30240, Note_on_c, 0, 57, 0
4, 30720, Note_on_c, 0, 56, 49
4, 30720, Note_on_c, 0, 59, 49
4, 30720, Note_on_c, 0, 65, 49
4, 31200, Note_on_c, 0, 65, 0
4, 31200, Note_on_c, 0, 59, 0
4, 31200, Note_on_c, 0, 56, 0
4, 31200, Note_on_c, 0, 56, 49
4, 31200, Note_on_c, 0, 59, 49
4, 31200, Note_on_c, 0, 65, 49
4, 31680, Note_on_c, 0, 65, 0
4, 31680, Note_on_c, 0, 59, 0
4, 31680, Note_on_c, 0, 56, 0
4, 32160, Note_on_c, 0, 57, 49
4, 32160, Note_on_c, 0, 61, 49
4, 32160, Note_on_c, 0, 66, 49
4, 32640, Note_on_c, 0, 66, 0
4, 32640, Note_on_c, 0, 61, 0
4, 32640, Note_on_c, 0, 57, 0
4, 32640, Note_on_c, 0, 57, 49
4, 32640, Note_on_c, 0, 61, 49
4, 32640, Note_on_c, 0, 66, 49
4, 33120, Note_on_c, 0, 66, 0
4, 33120, Note_on_c, 0, 61, 0
4, 33120, Note_on_c, 0, 57, 0
4, 33600, Note_on_c, 0, 61, 49
4, 33600, Note_on_c, 0, 68, 49
4, 34080, Note_on_c, 0, 68, 0
4, 34080, Note_on_c, 0, 61, 0
4, 34080, Note_on_c, 0, 56, 49
4, 34080, Note_on_c, 0, 61, 49
4, 34560, Note_on_c, 0, 61, 0
4, 34560, Note_on_c, 0, 56, 0
4, 35040, Note_on_c, 0, 55, 49
4, 35040, Note_on_c, 0, 61, 49
4, 35520, Note_on_c, 0, 61, 0
4, 35520, Note_on_c, 0, 55, 0
4, 35520, Note_on_c, 0, 55, 49
4, 35520, Note_on_c, 0, 61, 49
4, 36000, Note_on_c, 0, 61, 0
4, 36000, Note_on_c, 0, 55, 0
4, 36480, Note_on_c, 0, 54, 49
4, 36480, Note_on_c, 0, 61, 49
4, 36960, Note_on_c, 0, 61, 0
4, 36960, Note_on_c, 0, 54, 0
4, 36960, Note_on_c, 0, 54, 49
4, 36960, Note_on_c, 0, 59, 49
4, 37440, Note_on_c, 0, 59, 0
4, 37440, Note_on_c, 0, 54, 0
4, 37920, Note_on_c, 0, 52, 49
4, 37920, Note_on_c, 0, 59, 49
4, 38400, Note_on_c, 0, 59, 0
4, 38400, Note_on_c, 0, 52, 0
4, 38400, Note_on_c, 0, 52, 49
4, 38400, Note_on_c, 0, 57, 49
4, 38880, Note_on_c, 0, 57, 0
4, 38880, Note_on_c, 0, 52, 0
4, 39360, Note_on_c, 0, 50, 49
4, 39360, Note_on_c, 0, 57, 49
4, 39840, Note_on_c, 0, 57, 0
4, 39840, Note_on_c, 0, 50, 0
4, 39840, Note_on_c, 0, 50, 49
4, 39840, Note_on_c, 0, 55, 49
4, 40320, Note_on_c, 0, 55, 0
4, 40320, Note_on_c, 0, 50, 0
4, 40800, Note_on_c, 0, 49, 49
4, 40800, Note_on_c, 0, 55, 49
4, 41280, Note_on_c, 0, 55, 0
4, 41280, Note_on_c, 0, 49, 0
4, 41280, Note_on_c, 0, 49, 49
4, 41280, Note_on_c, 0, 54, 49
4, 41760, Note_on_c, 0, 54, 0
4, 41760, Note_on_c, 0, 49, 0
4, 42240, Note_on_c, 0, 49, 49
4, 42240, Note_on_c, 0, 53, 49
4, 42720, Note_on_c, 0, 53, 0
4, 42720, Note_on_c, 0, 49, 0
4, 42720, Note_on_c, 0, 49, 49
4, 42720, Note_on_c, 0, 61, 49
4, 43200, Note_on_c, 0, 61, 0
4, 43200, Note_on_c, 0, 49, 0
4, 43680, Note_on_c, 0, 54, 49
4, 43680, Note_on_c, 0, 57, 49
4, 43680, Note_on_c, 0, 61, 49
4, 44160, Note_on_c, 0, 61, 0
4, 44160, Note_on_c, 0, 57, 0
4, 44160, Note_on_c, 0, 54, 0
4, 44160, Note_on_c, 0, 54, 49
4, 44160, Note_on_c, 0, 57, 49
4, 44160, Note_on_c, 0, 61, 49
4, 44640, Note_on_c, 0, 61, 0
4, 44640, Note_on_c, 0, 57, 0
4, 44640, Note_on_c, 0, 54, 0
4, 45120, Note_on_c, 0, 54, 49
4, 45120, Note_on_c, 0, 57, 49
4, 45120, Note_on_c, 0, 61, 49
4, 45600, Note_on_c, 0, 61, 0
4, 45600, Note_on_c, 0, 57, 0
4, 45600, Note_on_c, 0, 54, 0
4, 45600, Note_on_c, 0, 54, 49
4, 45600, Note_on_c, 0, 66, 49
4, 46080, Note_on_c, 0, 66, 0
4, 46080, Note_on_c, 0, 54, 0
4, 46560, Note_on_c, 0, 54, 49
4, 46560, Note_on_c, 0, 66, 49
4, 47040, Note_on_c, 0, 66, 0
4, 47040, Note_on_c, 0, 54, 0
4, 47040, Note_on_c, 0, 54, 49
4, 47040, Note_on_c, 0, 66, 49
4, 47520, Note_on_c, 0, 66, 0
4, 47520, Note_on_c, 0, 54, 0
4, 48000, Note_on_c, 0, 54, 49
4, 48000, Note_on_c, 0, 66, 49
4, 48480, Note_on_c, 0, 66, 0
4, 48480, Note_on_c, 0, 54, 0
4, 48480, Note_on_c, 0, 54, 49
4, 48480, Note_on_c, 0, 65, 49
4, 48960, Note_on_c, 0, 65, 0
4, 48960, Note_on_c, 0, 54, 0
4, 49440, Note_on_c, 0, 54, 49
4, 49440, Note_on_c, 0, 66, 49
4, 49920, Note_on_c, 0, 66, 0
4, 49920, Note_on_c, 0, 54, 0
4, 49920, Note_on_c, 0, 54, 49
4, 49920, Note_on_c, 0, 66, 49
4, 50400, Note_on_c, 0, 66, 0
4, 50400, Note_on_c, 0, 54, 0
4, 50880, Note_on_c, 0, 54, 49
4, 50880, Note_on_c, 0, 66, 49
4, 51360, Note_on_c, 0, 66, 0
4, 51360, Note_on_c, 0, 54, 0
4, 51360, Note_on_c, 0, 54, 49
4, 51360, Note_on_c, 0, 65, 49
4, 51840, Note_on_c, 0, 65, 0
4, 51840, Note_on_c, 0, 54, 0
4, 52320, Note_on_c, 0, 54, 49
4, 52320, Note_on_c, 0, 64, 49
4, 52800, Note_on_c, 0, 64, 0
4, 52800, Note_on_c, 0, 54, 0
4, 52800, Note_on_c, 0, 54, 49
4, 52800, Note_on_c, 0, 63, 49
4, 53280, Note_on_c, 0, 63, 0
4, 53280, Note_on_c, 0, 54, 0
4, 53760, Note_on_c, 0, 54, 49
4, 53760, Note_on_c, 0, 62, 49
4, 54240, Note_on_c, 0, 62, 0
4, 54240, Note_on_c, 0, 54, 0
4, 54240, Note_on_c, 0, 54, 49
4, 54240, Note_on_c, 0, 61, 49
4, 54720, Note_on_c, 0, 61, 0
4, 54720, Note_on_c, 0, 54, 0
4, 55200, Note_on_c, 0, 54, 49
4, 55200, Note_on_c, 0, 60, 49
4, 55680, Note_on_c, 0, 60, 0
4, 55680, Note_on_c, 0, 54, 0
4, 55680, Note_on_c, 0, 54, 49
4, 55680, Note_on_c, 0, 59, 49
4, 56160, Note_on_c, 0, 59, 0
4, 56160, Note_on_c, 0, 54, 0
4, 56640, Note_on_c, 0, 54, 49
4, 56640, Note_on_c, 0, 58, 49
4, 57120, Note_on_c, 0, 58, 0
4, 57120, Note_on_c, 0, 54, 0
4, 57120, Note_on_c, 0, 54, 49
4, 57120, Note_on_c, 0, 56, 49
4, 57510, Note_on_c, 0, 35, 49
4, 57540, Note_on_c, 0, 42, 49
4, 57570, Note_on_c, 0, 47, 49
4, 57600, Note_on_c, 0, 56, 0
4, 57600, Note_on_c, 0, 54, 0
4, 57600, Note_on_c, 0, 54, 62
4, 58080, Note_on_c, 0, 54, 0
4, 58080, Note_on_c, 0, 47, 0
4, 58080, Note_on_c, 0, 35, 0
4, 58080, Note_on_c, 0, 42, 0
4, 58080, Note_on_c, 0, 54, 62
4, 58080, Note_on_c, 0, 59, 62
4, 58080, Note_on_c, 0, 66, 62
4, 58560, Note_on_c, 0, 66, 0
4, 58560, Note_on_c, 0, 59, 0
4, 58560, Note_on_c, 0, 54, 0
4, 58560, Note_on_c, 0, 54, 62
4, 58560, Note_on_c, 0, 59, 62
4, 58560, Note_on_c, 0, 66, 62
4, 59040, Note_on_c, 0, 66, 0
4, 59040, Note_on_c, 0, 59, 0
4, 59040, Note_on_c, 0, 54, 0
4, 59520, Note_on_c, 0, 54, 62
4, 59520, Note_on_c, 0, 59, 62
4, 59520, Note_on_c, 0, 66, 62
4, 60000, Note_on_c, 0, 66, 0
4, 60000, Note_on_c, 0, 59, 0
4, 60000, Note_on_c, 0, 54, 0
4, 60000, Note_on_c, 0, 54, 62
4, 60000, Note_on_c, 0, 59, 62
4, 60000, Note_on_c, 0, 64, 62
4, 60480, Note_on_c, 0, 64, 0
4, 60480, Note_on_c, 0, 59, 0
4, 60480, Note_on_c, 0, 54, 0
4, 60960, Note_on_c, 0, 54, 62
4, 60960, Note_on_c, 0, 59, 62
4, 60960, Note_on_c, 0, 63, 62
4, 61440, Note_on_c, 0, 63, 0
4, 61440, Note_on_c, 0, 59, 0
4, 61440, Note_on_c, 0, 54, 0
4, 61440, Note_on_c, 0, 54, 62
4, 61440, Note_on_c, 0, 59, 62
4, 61440, Note_on_c, 0, 63, 62
4, 61920, Note_on_c, 0, 63, 0
4, 61920, Note_on_c, 0, 59, 0
4, 61920, Note_on_c, 0, 54, 0
4, 62400, Note_on_c, 0, 54, 62
4, 62400, Note_on_c, 0, 61, 62
4, 62880, Note_on_c, 0, 61, 0
4, 62880, Note_on_c, 0, 54, 0
4, 62880, Note_on_c, 0, 54, 62
4, 62880, Note_on_c, 0, 61, 62
4, 63360, Note_on_c, 0, 61, 0
4, 63360, Note_on_c, 0, 54, 0
4, 63840, Note_on_c, 0, 56, 62
4, 63840, Note_on_c, 0, 60, 62
4, 63840, Note_on_c, 0, 66, 62
4, 64320, Note_on_c, 0, 66, 0
4, 64320, Note_on_c, 0, 60, 0
4, 64320, Note_on_c, 0, 56, 0
4, 64320, Note_on_c, 0, 56, 62
4, 64320, Note_on_c, 0, 60, 62
4, 64320, Note_on_c, 0, 66, 62
4, 64800, Note_on_c, 0, 66, 0
4, 64800, Note_on_c, 0, 60, 0
4, 64800, Note_on_c, 0, 56, 0
4, 65280, Note_on_c, 0, 56, 62
4, 65280, Note_on_c, 0, 60, 62
4, 65280, Note_on_c, 0, 66, 62
4, 65760, Note_on_c, 0, 66, 0
4, 65760, Note_on_c, 0, 60, 0
4, 65760, Note_on_c, 0, 56, 0
4, 65760, Note_on_c, 0, 56, 62
4, 65760, Note_on_c, 0, 60, 62
4, 65760, Note_on_c, 0, 66, 62
4, 66240, Note_on_c, 0, 66, 0
4, 66240, Note_on_c, 0, 60, 0
4, 66240, Note_on_c, 0, 56, 0
4, 66720, Note_on_c, 0, 56, 62
4, 66720, Note_on_c, 0, 61, 62
4, 66720, Note_on_c, 0, 64, 62
4, 67200, Note_on_c, 0, 64, 0
4, 67200, Note_on_c, 0, 61, 0
4, 67200, Note_on_c, 0, 56, 0
4, 67200, Note_on_c, 0, 56, 62
4, 67200, Note_on_c, 0, 61, 62
4, 67200, Note_on_c, 0, 64, 62
4, 67680, Note_on_c, 0, 64, 0
4, 67680, Note_on_c, 0, 61, 0
4, 67680, Note_on_c, 0, 56, 0
4, 68160, Note_on_c, 0, 56, 62
4, 68160, Note_on_c, 0, 63, 62
4, 68640, Note_on_c, 0, 63, 0
4, 68640, Note_on_c, 0, 56, 0
4, 68640, Note_on_c, 0, 56, 62
4, 68640, Note_on_c, 0, 63, 62
4, 69120, Note_on_c, 0, 63, 0
4, 69120, Note_on_c, 0, 56, 0
4, 69600, Note_on_c, 0, 58, 49
4, 69600, Note_on_c, 0, 65, 49
4, 69600, Note_on_c, 0, 70, 49
4, 70080, Note_on_c, 0, 70, 0
4, 70080, Note_on_c, 0, 65, 0
4, 70080, Note_on_c, 0, 58, 0
4, 70080, Note_on_c, 0, 58, 49
4, 70080, Note_on_c, 0, 65, 49
4, 70080, Note_on_c, 0, 70, 49
4, 70560, Note_on_c, 0, 70, 0
4, 70560, Note_on_c, 0, 65, 0
4, 70560, Note_on_c, 0, 58, 0
4, 71040, Note_on_c, 0, 58, 49
4, 71040, Note_on_c, 0, 66, 49
4, 71520, Note_on_c, 0, 66, 0
4, 71520, Note_on_c, 0, 58, 0
4, 71520, Note_on_c, 0, 58, 49
4, 71520, Note_on_c, 0, 66, 49
4, 72000, Note_on_c, 0, 66, 0
4, 72000, Note_on_c, 0, 58, 0
4, 72480, Note_on_c, 0, 54, 49
4, 72480, Note_on_c, 0, 61, 49
4, 72480, Note_on_c, 0, 66, 49
4, 72960, Note_on_c, 0, 66, 0
4, 72960, Note_on_c, 0, 61, 0
4, 72960, Note_on_c, 0, 54, 0
4, 72960, Note_on_c, 0, 54, 49
4, 72960, Note_on_c, 0, 61, 49
4, 72960, Note_on_c, 0, 66, 49
4, 73440, Note_on_c, 0, 66, 0
4, 73440, Note_on_c, 0, 61, 0
4, 73440, Note_on_c, 0, 54, 0
4, 73920, Note_on_c, 0, 54, 49
4, 73920, Note_on_c, 0, 59, 49
4, 74400, Note_on_c, 0, 59, 0
4, 74400, Note_on_c, 0, 54, 0
4, 74400, Note_on_c, 0, 54, 49
4, 74400, Note_on_c, 0, 59, 49
4, 74880, Note_on_c, 0, 59, 0
4, 74880, Note_on_c, 0, 54, 0
4, 75360, Note_on_c, 0, 52, 49
4, 75360, Note_on_c, 0, 59, 49
4, 75840, Note_on_c, 0, 59, 0
4, 75840, Note_on_c, 0, 52, 0
4, 75840, Note_on_c, 0, 52, 49
4, 75840, Note_on_c, 0, 59, 49
4, 76320, Note_on_c, 0, 59, 0
4, 76320, Note_on_c, 0, 52, 0
4, 76800, Note_on_c, 0, 53, 49
4, 76800, Note_on_c, 0, 59, 49
4, 77280, Note_on_c, 0, 59, 0
4, 77280, Note_on_c, 0, 53, 0
4, 77280, Note_on_c, 0, 53, 49
4, 77280, Note_on_c, 0, 56, 49
4, 77760, Note_on_c, 0, 56, 0
4, 77760, Note_on_c, 0, 53, 0
4, 78240, Note_on_c, 0, 54, 49
4, 78240, Note_on_c, 0, 59, 49
4, 78720, Note_on_c, 0, 59, 0
4, 78720, Note_on_c, 0, 54, 0
4, 78720, Note_on_c, 0, 54, 49
4, 78720, Note_on_c, 0, 61, 49
4, 79200, Note_on_c, 0, 61, 0
4, 79200, Note_on_c, 0, 54, 0
4, 79680, Note_on_c, 0, 54, 49
4, 79680, Note_on_c, 0, 59, 49
4, 80160, Note_on_c, 0, 59, 0
4, 80160, Note_on_c, 0, 54, 0
4, 81120, Note_on_c, 0, 54, 49
4, 81120, Note_on_c, 0, 66, 49
4, 81600, Note_on_c, 0, 66, 0
4, 81600, Note_on_c, 0, 54, 0
4, 81600, Note_on_c, 0, 54, 49
4, 81600, Note_on_c, 0, 66, 49
4, 82080, Note_on_c, 0, 66, 0
4, 82080, Note_on_c, 0, 54, 0
4, 82560, Note_on_c, 0, 54, 49
4, 82560, Note_on_c, 0, 66, 49
4, 83040, Note_on_c, 0, 66, 0
4, 83040, Note_on_c, 0, 54, 0
4, 83040, Note_on_c, 0, 54, 49
4, 83040, Note_on_c, 0, 65, 49
4, 83520, Note_on_c, 0, 65, 0
4, 83520, Note_on_c, 0, 54, 0
4, 84000, Note_on_c, 0, 54, 49
4, 84000, Note_on_c, 0, 66, 49
4, 84480, Note_on_c, 0, 66, 0
4, 84480, Note_on_c, 0, 54, 0
4, 84480, Note_on_c, 0, 54, 49
4, 84480, Note_on_c, 0, 66, 49
4, 84960, Note_on_c, 0, 66, 0
4, 84960, Note_on_c, 0, 54, 0
4, 85440, Note_on_c, 0, 54, 49
4, 85440, Note_on_c, 0, 66, 49
4, 85920, Note_on_c, 0, 66, 0
4, 85920, Note_on_c, 0, 54, 0
4, 85920, Note_on_c, 0, 54, 49
4, 85920, Note_on_c, 0, 65, 49
4, 86400, Note_on_c, 0, 65, 0
4, 86400, Note_on_c, 0, 54, 0
4, 86880, Note_on_c, 0, 54, 49
4, 86880, Note_on_c, 0, 64, 49
4, 87360, Note_on_c, 0, 64, 0
4, 87360, Note_on_c, 0, 54, 0
4, 87360, Note_on_c, 0, 54, 49
4, 87360, Note_on_c, 0, 63, 49
4, 87840, Note_on_c, 0, 63, 0
4, 87840, Note_on_c, 0, 54, 0
4, 88320, Note_on_c, 0, 54, 49
4, 88320, Note_on_c, 0, 62, 49
4, 88800, Note_on_c, 0, 62, 0
4, 88800, Note_on_c, 0, 54, 0
4, 88800, Note_on_c, 0, 54, 49
4, 88800, Note_on_c, 0, 61, 49
4, 89280, Note_on_c, 0, 61, 0
4, 89280, Note_on_c, 0, 54, 0
4, 89760, Note_on_c, 0, 54, 49
4, 89760, Note_on_c, 0, 60, 49
4, 90240, Note_on_c, 0, 60, 0
4, 90240, Note_on_c, 0, 54, 0
4, 90240, Note_on_c, 0, 54, 49
4, 90240, Note_on_c, 0, 59, 49
4, 90720, Note_on_c, 0, 59, 0
4, 90720, Note_on_c, 0, 54, 0
4, 91200, Note_on_c, 0, 54, 49
4, 91200, Note_on_c, 0, 58, 49
4, 91680, Note_on_c, 0, 58, 0
4, 91680, Note_on_c, 0, 54, 0
4, 91680, Note_on_c, 0, 54, 49
4, 91680, Note_on_c, 0, 56, 49
4, 92070, Note_on_c, 0, 35, 49
4, 92100, Note_on_c, 0, 42, 49
4, 92130, Note_on_c, 0, 47, 49
4, 92160, Note_on_c, 0, 56, 0
4, 92160, Note_on_c, 0, 54, 0
4, 92160, Note_on_c, 0, 54, 62
4, 92640, Note_on_c, 0, 54, 0
4, 92640, Note_on_c, 0, 47, 0
4, 92640, Note_on_c, 0, 35, 0
4, 92640, Note_on_c, 0, 42, 0
4, 92640, Note_on_c, 0, 54, 62
4, 92640, Note_on_c, 0, 59, 62
4, 92640, Note_on_c, 0, 66, 62
4, 93120, Note_on_c, 0, 66, 0
4, 93120, Note_on_c, 0, 59, 0
4, 93120, Note_on_c, 0, 54, 0
4, 93120, Note_on_c, 0, 54, 62
4, 93120, Note_on_c, 0, 59, 62
4, 93120, Note_on_c, 0, 66, 62
4, 93600, Note_on_c, 0, 66, 0
4, 93600, Note_on_c, 0, 59, 0
4, 93600, Note_on_c, 0, 54, 0
4, 94080, Note_on_c, 0, 54, 62
4, 94080, Note_on_c, 0, 59, 62
4, 94080, Note_on_c, 0, 66, 62
4, 94560, Note_on_c, 0, 66, 0
4, 94560, Note_on_c, 0, 59, 0
4, 94560, Note_on_c, 0, 54, 0
4, 94560, Note_on_c, 0, 54, 62
4, 94560, Note_on_c, 0, 59, 62
4, 94560, Note_on_c, 0, 64, 62
4, 95040, Note_on_c, 0, 64, 0
4, 95040, Note_on_c, 0, 59, 0
4, 95040, Note_on_c, 0, 54, 0
4, 95520, Note_on_c, 0, 54, 62
4, 95520, Note_on_c, 0, 59, 62
4, 95520, Note_on_c, 0, 63, 62
4, 96000, Note_on_c, 0, 63, 0
4, 96000, Note_on_c, 0, 59, 0
4, 96000, Note_on_c, 0, 54, 0
4, 96000, Note_on_c, 0, 54, 62
4, 96000, Note_on_c, 0, 59, 62
4, 96000, Note_on_c, 0, 63, 62
4, 96480, Note_on_c, 0, 63, 0
4, 96480, Note_on_c, 0, 59, 0
4, 96480, Note_on_c, 0, 54, 0
4, 96960, Note_on_c, 0, 54, 62
4, 96960, Note_on_c, 0, 61, 62
4, 97440, Note_on_c, 0, 61, 0
4, 97440, Note_on_c, 0, 54, 0
4, 97440, Note_on_c, 0, 54, 62
4, 97440, Note_on_c, 0, 61, 62
4, 97920, Note_on_c, 0, 61, 0
4, 97920, Note_on_c, 0, 54, 0
4, 98400, Note_on_c, 0, 56, 62
4, 98400, Note_on_c, 0, 60, 62
4, 98400, Note_on_c, 0, 66, 62
4, 98880, Note_on_c, 0, 66, 0
4, 98880, Note_on_c, 0, 60, 0
4, 98880, Note_on_c, 0, 56, 0
4, 98880, Note_on_c, 0, 56, 62
4, 98880, Note_on_c, 0, 60, 62
4, 98880, Note_on_c, 0, 66, 62
4, 99360, Note_on_c, 0, 66, 0
4, 99360, Note_on_c, 0, 60, 0
4, 99360, Note_on_c, 0, 56, 0
4, 99840, Note_on_c, 0, 56, 62
4, 99840, Note_on_c, 0, 60, 62
4, 99840, Note_on_c, 0, 66, 62
4, 100320, Note_on_c, 0, 66, 0
4, 100320, Note_on_c, 0, 60, 0
4, 100320, Note_on_c, 0, 56, 0
4, 100320, Note_on_c, 0, 56, 62
4, 100320, Note_on_c, 0, 60, 62
4, 100320, Note_on_c, 0, 66, 62
4, 100800, Note_on_c, 0, 66, 0
4, 100800, Note_on_c, 0, 60, 0
4, 100800, Note_on_c, 0, 56, 0
4, 101280, Note_on_c, 0, 56, 62
4, 101280, Note_on_c, 0, 61, 62
4, 101280, Note_on_c, 0, 64, 62
4, 101760, Note_on_c, 0, 64, 0
4, 101760, Note_on_c, 0, 61, 0
4, 101760, Note_on_c, 0, 56, 0
4, 101760, Note_on_c, 0, 56, 62
4, 101760, Note_on_c, 0, 61, 62
4, 101760, Note_on_c, 0, 64, 62
4, 102240, Note_on_c, 0, 64, 0
4, 102240, Note_on_c, 0, 61, 0
4, 102240, Note_on_c, 0, 56, 0
4, 102720, Note_on_c, 0, 56, 62
4, 102720, Note_on_c, 0, 63, 62
4, 103200, Note_on_c, 0, 63, 0
4, 103200, Note_on_c, 0, 56, 0
4, 103200, Note_on_c, 0, 56, 62
4, 103200, Note_on_c, 0, 63, 62
4, 103680, Note_on_c, 0, 63, 0
4, 103680, Note_on_c, 0, 56, 0
4, 104160, Note_on_c, 0, 58, 49
4, 104160, Note_on_c, 0, 65, 49
4, 104160, Note_on_c, 0, 70, 49
4, 104640, Note_on_c, 0, 70, 0
4, 104640, Note_on_c, 0, 65, 0
4, 104640, Note_on_c, 0, 58, 0
4, 104640, Note_on_c, 0, 58, 49
4, 104640, Note_on_c, 0, 65, 49
4, 104640, Note_on_c, 0, 70, 49
4, 105120, Note_on_c, 0, 70, 0
4, 105120, Note_on_c, 0, 65, 0
4, 105120, Note_on_c, 0, 58, 0
4, 105600, Note_on_c, 0, 58, 49
4, 105600, Note_on_c, 0, 66, 49
4, 106080, Note_on_c, 0, 66, 0
4, 106080, Note_on_c, 0, 58, 0
4, 106080, Note_on_c, 0, 58, 49
4, 106080, Note_on_c, 0, 66, 49
4, 106560, Note_on_c, 0, 66, 0
4, 106560, Note_on_c, 0, 58, 0
4, 107040, Note_on_c, 0, 54, 49
4, 107040, Note_on_c, 0, 61, 49
4, 107040, Note_on_c, 0, 66, 49
4, 107520, Note_on_c, 0, 66, 0
4, 107520, Note_on_c, 0, 61, 0
4, 107520, Note_on_c, 0, 54, 0
4, 107520, Note_on_c, 0, 54, 49
4, 107520, Note_on_c, 0, 61, 49
4, 107520, Note_on_c, 0, 66, 49
4, 108000, Note_on_c, 0, 66, 0
4, 108000, Note_on_c, 0, 61, 0
4, 108000, Note_on_c, 0, 54, 0
4, 108480, Note_on_c, 0, 54, 49
4, 108480, Note_on_c, 0, 59, 49
4, 108960, Note_on_c, 0, 59, 0
4, 108960, Note_on_c, 0, 54, 0
4, 108960, Note_on_c, 0, 54, 49
4, 108960, Note_on_c, 0, 59, 49
4, 109440, Note_on_c, 0, 59, 0
4, 109440, Note_on_c, 0, 54, 0
4, 109920, Note_on_c, 0, 52, 49
4, 109920, Note_on_c, 0, 59, 49
4, 110400, Note_on_c, 0, 59, 0
4, 110400, Note_on_c, 0, 52, 0
4, 110400, Note_on_c, 0, 52, 49
4, 110400, Note_on_c, 0, 59, 49
4, 110880, Note_on_c, 0, 59, 0
4, 110880, Note_on_c, 0, 52, 0
4, 111360, Note_on_c, 0, 53, 49
4, 111360, Note_on_c, 0, 59, 49
4, 111840, Note_on_c, 0, 59, 0
4, 111840, Note_on_c, 0, 53, 0
4, 111840, Note_on_c, 0, 53, 49
4, 111840, Note_on_c, 0, 56, 49
4, 112320, Note_on_c, 0, 56, 0
4, 112320, Note_on_c, 0, 53, 0
4, 112800, Note_on_c, 0, 54, 49
4, 112800, Note_on_c, 0, 59, 49
4, 113280, Note_on_c, 0, 59, 0
4, 113280, Note_on_c, 0, 54, 0
4, 113280, Note_on_c, 0, 54, 49
4, 113280, Note_on_c, 0, 61, 49
4, 113760, Note_on_c, 0, 61, 0
4, 113760, Note_on_c, 0, 54, 0
4, 114240, Note_on_c, 0, 54, 49
4, 114240, Note_on_c, 0, 59, 49
4, 114720, Note_on_c, 0, 59, 0
4, 114720, Note_on_c, 0, 54, 0
4, 114720, End_track
5, 0, Start_track
5, 0, Title_t, "Instrument19"
5, 0, Program_c, 0, 0
5, 0, Control_c, 0, 7, 115
5, 0, Control_c, 0, 10, 32
5, 0, Note_on_c, 0, 35, 62
5, 0, Note_on_c, 0, 47, 62
5, 480, Note_on_c, 0, 47, 0
5, 480, Note_on_c, 0, 35, 0
5, 1440, Note_on_c, 0, 35, 62
5, 1440, Note_on_c, 0, 47, 62
5, 1920, Note_on_c, 0, 47, 0
5, 1920, Note_on_c, 0, 35, 0
5, 2880, Note_on_c, 0, 35, 62
5, 2880, Note_on_c, 0, 47, 62
5, 3360, Note_on_c, 0, 47, 0
5, 3360, Note_on_c, 0, 35, 0
5, 4320, Note_on_c, 0, 33, 62
5, 4320, Note_on_c, 0, 45, 62
5, 4800, Note_on_c, 0, 45, 0
5, 4800, Note_on_c, 0, 33, 0
5, 5760, Note_on_c, 0, 45, 62
5, 6240, Note_on_c, 0, 45, 0
5, 7200, Note_on_c, 0, 44, 62
5, 7680, Note_on_c, 0, 44, 0
5, 8640, Note_on_c, 0, 42, 62
5, 9120, Note_on_c, 0, 42, 0
5, 10080, Note_on_c, 0, 40, 62
5, 10560, Note_on_c, 0, 40, 0
5, 11520, Note_on_c, 0, 40, 62
5, 11520, Note_on_c, 0, 52, 62
5, 12000, Note_on_c, 0, 52, 0
5, 12000, Note_on_c, 0, 40, 0
5, 12960, Note_on_c, 0, 38, 62
5, 12960, Note_on_c, 0, 50, 62
5, 13440, Note_on_c, 0, 50, 0
5, 13440, Note_on_c, 0, 38, 0
5, 14400, Note_on_c, 0, 37, 62
5, 14400, Note_on_c, 0, 49, 62
5, 14880, Note_on_c, 0, 49, 0
5, 14880, Note_on_c, 0, 37, 0
5, 15840, Note_on_c, 0, 35, 62
5, 15840, Note_on_c, 0, 47, 62
5, 16320, Note_on_c, 0, 47, 0
5, 16320, Note_on_c, 0, 35, 0
5, 17280, Note_on_c, 0, 33, 62
5, 17280, Note_on_c, 0, 45, 62
5, 17760, Note_on_c, 0, 45, 0
5, 17760, Note_on_c, 0, 33, 0
5, 18720, Note_on_c, 0, 37, 62
5, 19200, Note_on_c, 0, 37, 0
5, 20160, Note_on_c, 0, 30, 62
5, 20160, Note_on_c, 0, 42, 62
5, 20640, Note_on_c, 0, 42, 0
5, 20640, Note_on_c, 0, 30, 0
5, 21600, Note_on_c, 0, 42, 62
5, 22080, Note_on_c, 0, 42, 0
5, 23040, Note_on_c, 0, 35, 62
5, 23040, Note_on_c, 0, 47, 62
5, 23520, Note_on_c, 0, 47, 0
5, 23520, Note_on_c, 0, 35, 0
5, 24480, Note_on_c, 0, 35, 62
5, 24480, Note_on_c, 0, 47, 62
5, 24960, Note_on_c, 0, 47, 0
5, 24960, Note_on_c, 0, 35, 0
5, 25920, Note_on_c, 0, 35, 62
5, 25920, Note_on_c, 0, 47, 62
5, 26400, Note_on_c, 0, 47, 0
5, 26400, Note_on_c, 0, 35, 0
5, 27360, Note_on_c, 0, 33, 62
5, 27360, Note_on_c, 0, 45, 62
5, 27840, Note_on_c, 0, 45, 0
5, 27840, Note_on_c, 0, 33, 0
5, 28800, Note_on_c, 0, 45, 62
5, 29280, Note_on_c, 0, 45, 0
5, 30240, Note_on_c, 0, 44, 62
5, 30720, Note_on_c, 0, 44, 0
5, 31680, Note_on_c, 0, 42, 62
5, 32160, Note_on_c, 0, 42, 0
5, 33120, Note_on_c, 0, 40, 62
5, 33600, Note_on_c, 0, 40, 0
5, 34560, Note_on_c, 0, 40, 62
5, 34560, Note_on_c, 0, 52, 62
5, 35040, Note_on_c, 0, 52, 0
5, 35040, Note_on_c, 0, 40, 0
5, 36000, Note_on_c, 0, 38, 62
5, 36000, Note_on_c, 0, 50, 62
5, 36480, Note_on_c, 0, 50, 0
5, 36480, Note_on_c, 0, 38, 0
5, 37440, Note_on_c, 0, 37, 62
5, 37440, Note_on_c, 0, 49, 62
5, 37920, Note_on_c, 0, 49, 0
5, 37920, Note_on_c, 0, 37, 0
5, 38880, Note_on_c, 0, 35, 62
5, 38880, Note_on_c, 0, 47, 62
5, 39360, Note_on_c, 0, 47, 0
5, 39360, Note_on_c, 0, 35, 0
5, 40320, Note_on_c, 0, 33, 62
5, 40320, Note_on_c, 0, 45, 62
5, 40800, Note_on_c, 0, 45, 0
5, 40800, Note_on_c, 0, 33, 0
5, 41760, Note_on_c, 0, 37, 62
5, 42240, Note_on_c, 0, 37, 0
5, 43200, Note_on_c, 0, 30, 62
5, 43200, Note_on_c, 0, 42, 62
5, 43680, Note_on_c, 0, 42, 0
5, 43680, Note_on_c, 0, 30, 0
5, 44640, Note_on_c, 0, 42, 62
5, 45120, Note_on_c, 0, 42, 0
5, 46080, Note_on_c, 0, 30, 62
5, 46560, Note_on_c, 0, 30, 0
5, 47520, Note_on_c, 0, 42, 62
5, 48000, Note_on_c, 0, 42, 0
5, 48960, Note_on_c, 0, 30, 62
5, 49440, Note_on_c, 0, 30, 0
5, 50400, Note_on_c, 0, 42, 62
5, 50880, Note_on_c, 0, 42, 0
5, 51840, Note_on_c, 0, 30, 62
5, 52320, Note_on_c, 0, 30, 0
5, 53280, Note_on_c, 0, 42, 62
5, 53760, Note_on_c, 0, 42, 0
5, 54720, Note_on_c, 0, 30, 62
5, 55200, Note_on_c, 0, 30, 0
5, 56160, Note_on_c, 0, 42, 62
5, 56640, Note_on_c, 0, 42, 0
5, 59040, Note_on_c, 0, 35, 62
5, 59040, Note_on_c, 0, 47, 62
5, 59520, Note_on_c, 0, 47, 0
5, 59520, Note_on_c, 0, 35, 0
5, 60480, Note_on_c, 0, 35, 62
5, 60480, Note_on_c, 0, 47, 62
5, 60960, Note_on_c, 0, 47, 0
5, 60960, Note_on_c, 0, 35, 0
5, 61920, Note_on_c, 0, 34, 62
5, 61920, Note_on_c, 0, 46, 62
5, 62400, Note_on_c, 0, 46, 0
5, 62400, Note_on_c, 0, 34, 0
5, 63360, Note_on_c, 0, 32, 62
5, 63360, Note_on_c, 0, 44, 62
5, 63840, Note_on_c, 0, 44, 0
5, 63840, Note_on_c, 0, 32, 0
5, 64800, Note_on_c, 0, 44, 62
5, 65280, Note_on_c, 0, 44, 0
5, 66240, Note_on_c, 0, 37, 75
5, 66240, Note_on_c, 0, 49, 75
5, 66720, Note_on_c, 0, 49, 0
5, 66720, Note_on_c, 0, 37, 0
5, 67680, Note_on_c, 0, 35, 75
5, 67680, Note_on_c, 0, 47, 75
5, 68160, Note_on_c, 0, 47, 0
5, 68160, Note_on_c, 0, 35, 0
5, 69120, Note_on_c, 0, 34, 62
5, 69600, Note_on_c, 0, 34, 0
5, 70560, Note_on_c, 0, 39, 62
5, 71040, Note_on_c, 0, 39, 0
5, 72000, Note_on_c, 0, 42, 62
5, 72480, Note_on_c, 0, 42, 0
5, 73440, Note_on_c, 0, 47, 62
5, 73920, Note_on_c, 0, 47, 0
5, 74880, Note_on_c, 0, 40, 62
5, 75360, Note_on_c, 0, 40, 0
5, 76320, Note_on_c, 0, 41, 62
5, 76800, Note_on_c, 0, 41, 0
5, 77760, Note_on_c, 0, 42, 62
5, 78240, Note_on_c, 0, 42, 0
5, 79200, Note_on_c, 0, 35, 62
5, 79200, Note_on_c, 0, 47, 62
5, 79680, Note_on_c, 0, 47, 0
5, 79680, Note_on_c, 0, 35, 0
5, 80640, Note_on_c, 0, 30, 62
5, 81120, Note_on_c, 0, 30, 0
5, 82080, Note_on_c, 0, 42, 62
5, 82560, Note_on_c, 0, 42, 0
5, 83520, Note_on_c, 0, 30, 62
5, 84000, Note_on_c, 0, 30, 0
5, 84960, Note_on_c, 0, 42, 62
5, 85440, Note_on_c, 0, 42, 0
5, 86400, Note_on_c, 0, 30, 62
5, 86880, Note_on_c, 0, 30, 0
5, 87840, Note_on_c, 0, 42, 62
5, 88320, Note_on_c, 0, 42, 0
5, 89280, Note_on_c, 0, 30, 62
5, 89760, Note_on_c, 0, 30, 0
5, 90720, Note_on_c, 0, 42, 62
5, 91200, Note_on_c, 0, 42, 0
5, 93600, Note_on_c, 0, 35, 62
5, 93600, Note_on_c, 0, 47, 62
5, 94080, Note_on_c, 0, 47, 0
5, 94080, Note_on_c, 0, 35, 0
5, 95040, Note_on_c, 0, 35, 62
5, 95040, Note_on_c, 0, 47, 62
5, 95520, Note_on_c, 0, 47, 0
5, 95520, Note_on_c, 0, 35, 0
5, 96480, Note_on_c, 0, 34, 62
5, 96480, Note_on_c, 0, 46, 62
5, 96960, Note_on_c, 0, 46, 0
5, 96960, Note_on_c, 0, 34, 0
5, 97920, Note_on_c, 0, 32, 62
5, 97920, Note_on_c, 0, 44, 62
5, 98400, Note_on_c, 0, 44, 0
5, 98400, Note_on_c, 0, 32, 0
5, 99360, Note_on_c, 0, 44, 62
5, 99840, Note_on_c, 0, 44, 0
5, 100800, Note_on_c, 0, 37, 75
5, 100800, Note_on_c, 0, 49, 75
5, 101280, Note_on_c, 0, 49, 0
5, 101280, Note_on_c, 0, 37, 0
5, 102240, Note_on_c, 0, 35, 75
5, 102240, Note_on_c, 0, 47, 75
5, 102720, Note_on_c, 0, 47, 0
5, 102720, Note_on_c, 0, 35, 0
5, 103680, Note_on_c, 0, 34, 62
5, 104160, Note_on_c, 0, 34, 0
5, 105120, Note_on_c, 0, 39, 62
5, 105600, Note_on_c, 0, 39, 0
5, 106560, Note_on_c, 0, 42, 62
5, 107040, Note_on_c, 0, 42, 0
5, 108000, Note_on_c, 0, 47, 62
5, 108480, Note_on_c, 0, 47, 0
5, 109440, Note_on_c, 0, 40, 62
5, 109920, Note_on_c, 0, 40, 0
5, 110880, Note_on_c, 0, 41, 62
5, 111360, Note_on_c, 0, 41, 0
5, 112320, Note_on_c, 0, 42, 62
5, 112800, Note_on_c, 0, 42, 0
5, 113760, Note_on_c, 0, 35, 62
5, 113760, Note_on_c, 0, 47, 62
5, 114240, Note_on_c, 0, 47, 0
5, 114240, Note_on_c, 0, 35, 0
5, 114240, End_track
0, 0, End_of_file
