0, 0, Header, 1, 5, 480
1, 0, Start_track
1, 0, Title_t, "brahms waltzes op39 no16 4hands"
1, 0, Copyright_t, "Segundo G. Yogore,  2004,  dody@info.com.ph \012__________________________________________________________\012Kunst der Fuge comment: this is the Contributor's property.\012Can *not* be used for commercial purposes without authorization!\012Copyright by Contributor - Kunst der Fuge, © 2002-05\012http://www.kunstderfuge.com/thanks.htm -> Contributors' list\012http://www.kunstderfuge.com/notes.htm -> Terms & conditions"
1, 0, Text_t, "sequenced by Segundo G. Yogore,  2004\012"
1, 0, Time_signature, 1, 2, 24, 8
1, 0, Key_signature, -1, "major"
1, 0, Tempo, 400000
1, 480, Time_signature, 3, 2, 24, 8
1, 10320, Tempo, 416667
1, 10560, Tempo, 434783
1, 10800, Tempo, 454545
1, 11040, Tempo, 483871
1, 11280, Tempo, 508475
1, 11520, Tempo, 535714
1, 11760, Tempo, 566038
1, 12000, Tempo, 422535
1, 23520, Tempo, 400000
1, 32880, Tempo, 416667
1, 33120, Tempo, 434783
1, 33360, Tempo, 454545
1, 33600, Tempo, 483871
1, 33840, Tempo, 508475
1, 34080, Tempo, 535714
1, 34320, Tempo, 566038
1, 34560, Tempo, 612245
1, 35040, Tempo, 400000
1, 44400, Tempo, 416667
1, 44640, Tempo, 434783
1, 44880, Tempo, 454545
1, 45120, Tempo, 483871
1, 45360, Tempo, 508475
1, 45600, Tempo, 535714
1, 45840, Tempo, 566038
1, 46080, Tempo, 612245
1, 46080, End_track
2, 0, Start_track
2, 0, Title_t, "Grand Piano"
2, 0, Program_c, 0, 0
2, 0, Control_c, 0, 7, 115
2, 0, Control_c, 0, 10, 95
2, 480, Control_c, 0, 64, 127
2, 480, Note_on_c, 0, 81, 62
2, 960, Note_on_c, 0, 81, 0
2, 960, Note_on_c, 0, 82, 62
2, 1200, Note_on_c, 0, 82, 0
2, 1200, Note_on_c, 0, 81, 62
2, 1440, Note_on_c, 0, 81, 0
2, 1440, Note_on_c, 0, 82, 62
2, 1920, Note_on_c, 0, 82, 0
2, 1920, Note_on_c, 0, 81, 62
2, 2640, Note_on_c, 0, 81, 0
2, 2640, Note_on_c, 0, 79, 62
2, 2880, Note_on_c, 0, 79, 0
2, 2880, Note_on_c, 0, 77, 62
2, 3120, Note_on_c, 0, 77, 0
2, 3120, Control_c, 0, 64, 0
2, 3120, Note_on_c, 0, 79, 62
2, 3360, Note_on_c, 0, 79, 0
2, 3360, Control_c, 0, 64, 127
2, 3360, Note_on_c, 0, 81, 62
2, 3840, Note_on_c, 0, 81, 0
2, 3840, Note_on_c, 0, 82, 62
2, 4080, Note_on_c, 0, 82, 0
2, 4080, Note_on_c, 0, 81, 62
2, 4320, Note_on_c, 0, 81, 0
2, 4320, Note_on_c, 0, 82, 62
2, 4800, Note_on_c, 0, 82, 0
2, 4800, Note_on_c, 0, 81, 62
2, 5520, Note_on_c, 0, 81, 0
2, 5520, Note_on_c, 0, 79, 62
2, 5760, Note_on_c, 0, 79, 0
2, 5760, Note_on_c, 0, 77, 62
2, 6000, Note_on_c, 0, 77, 0
2, 6000, Control_c, 0, 64, 0
2, 6000, Note_on_c, 0, 79, 62
2, 6240, Note_on_c, 0, 79, 0
2, 6240, Control_c, 0, 64, 127
2, 6240, Note_on_c, 0, 81, 62
2, 6720, Note_on_c, 0, 81, 0
2, 6720, Note_on_c, 0, 82, 62
2, 6960, Note_on_c, 0, 82, 0
2, 6960, Note_on_c, 0, 81, 62
2, 7200, Note_on_c, 0, 81, 0
2, 7200, Control_c, 0, 64, 0
2, 7200, Note_on_c, 0, 82, 62
2, 7680, Note_on_c, 0, 82, 0
2, 7680, Control_c, 0, 64, 127
2, 7680, Note_on_c, 0, 84, 62
2, 8160, Note_on_c, 0, 84, 0
2, 8160, Note_on_c, 0, 86, 62
2, 8400, Note_on_c, 0, 86, 0
2, 8400, Note_on_c, 0, 84, 62
2, 8640, Note_on_c, 0, 84, 0
2, 8640, Control_c, 0, 64, 0
2, 8640, Note_on_c, 0, 86, 62
2, 9120, Note_on_c, 0, 86, 0
2, 9120, Control_c, 0, 64, 127
2, 9120, Note_on_c, 0, 88, 62
2, 9600, Note_on_c, 0, 88, 0
2, 9600, Note_on_c, 0, 86, 62
2, 9840, Note_on_c, 0, 86, 0
2, 9840, Note_on_c, 0, 88, 62
2, 10080, Note_on_c, 0, 88, 0
2, 10080, Control_c, 0, 64, 0
2, 10080, Note_on_c, 0, 86, 62
2, 10560, Note_on_c, 0, 86, 0
2, 10560, Control_c, 0, 64, 127
2, 10560, Note_on_c, 0, 84, 62
2, 11280, Note_on_c, 0, 84, 0
2, 11280, Note_on_c, 0, 82, 62
2, 11520, Note_on_c, 0, 82, 0
2, 11520, Control_c, 0, 64, 0
2, 11520, Note_on_c, 0, 81, 62
2, 12000, Note_on_c, 0, 81, 0
2, 12000, Control_c, 0, 64, 127
2, 12000, Note_on_c, 0, 79, 62
2, 12000, Note_on_c, 0, 91, 62
2, 12720, Note_on_c, 0, 91, 0
2, 12720, Note_on_c, 0, 79, 0
2, 12720, Note_on_c, 0, 77, 62
2, 12720, Note_on_c, 0, 89, 62
2, 12960, Note_on_c, 0, 89, 0
2, 12960, Note_on_c, 0, 77, 0
2, 12960, Control_c, 0, 64, 0
2, 12960, Note_on_c, 0, 76, 62
2, 12960, Note_on_c, 0, 88, 62
2, 13440, Note_on_c, 0, 88, 0
2, 13440, Note_on_c, 0, 76, 0
2, 13440, Note_on_c, 0, 77, 62
2, 13440, Note_on_c, 0, 89, 62
2, 13920, Note_on_c, 0, 89, 0
2, 13920, Note_on_c, 0, 77, 0
2, 13920, Note_on_c, 0, 81, 62
2, 14400, Note_on_c, 0, 81, 0
2, 14400, Control_c, 0, 64, 127
2, 14400, Note_on_c, 0, 74, 62
2, 14400, Note_on_c, 0, 86, 62
2, 14880, Note_on_c, 0, 86, 0
2, 14880, Note_on_c, 0, 74, 0
2, 14880, Note_on_c, 0, 79, 62
2, 14880, Note_on_c, 0, 91, 62
2, 15600, Note_on_c, 0, 91, 0
2, 15600, Note_on_c, 0, 79, 0
2, 15600, Note_on_c, 0, 77, 62
2, 15600, Note_on_c, 0, 89, 62
2, 15840, Note_on_c, 0, 89, 0
2, 15840, Note_on_c, 0, 77, 0
2, 15840, Control_c, 0, 64, 0
2, 15840, Note_on_c, 0, 76, 62
2, 15840, Note_on_c, 0, 88, 62
2, 16320, Note_on_c, 0, 88, 0
2, 16320, Note_on_c, 0, 76, 0
2, 16320, Note_on_c, 0, 77, 62
2, 16320, Note_on_c, 0, 89, 62
2, 16800, Note_on_c, 0, 89, 0
2, 16800, Note_on_c, 0, 77, 0
2, 16800, Note_on_c, 0, 81, 62
2, 17280, Note_on_c, 0, 81, 0
2, 17280, Control_c, 0, 64, 127
2, 17280, Note_on_c, 0, 74, 62
2, 17280, Note_on_c, 0, 86, 62
2, 17760, Note_on_c, 0, 86, 0
2, 17760, Note_on_c, 0, 74, 0
2, 17760, Note_on_c, 0, 77, 62
2, 17760, Note_on_c, 0, 89, 62
2, 18240, Note_on_c, 0, 89, 0
2, 18240, Note_on_c, 0, 77, 0
2, 18240, Control_c, 0, 64, 0
2, 18240, Note_on_c, 0, 81, 62
2, 18720, Note_on_c, 0, 81, 0
2, 18720, Control_c, 0, 64, 127
2, 18720, Note_on_c, 0, 77, 62
2, 18720, Note_on_c, 0, 89, 62
2, 19200, Note_on_c, 0, 89, 0
2, 19200, Note_on_c, 0, 77, 0
2, 19200, Note_on_c, 0, 81, 75
2, 19200, Note_on_c, 0, 93, 75
2, 19680, Note_on_c, 0, 93, 0
2, 19680, Note_on_c, 0, 81, 0
2, 19680, Control_c, 0, 64, 0
2, 19680, Note_on_c, 0, 84, 75
2, 20160, Note_on_c, 0, 84, 0
2, 20160, Control_c, 0, 64, 127
2, 20160, Note_on_c, 0, 81, 75
2, 20160, Note_on_c, 0, 93, 75
2, 20640, Note_on_c, 0, 93, 0
2, 20640, Note_on_c, 0, 81, 0
2, 20640, Note_on_c, 0, 84, 88
2, 20640, Note_on_c, 0, 96, 88
2, 21360, Note_on_c, 0, 96, 0
2, 21360, Note_on_c, 0, 84, 0
2, 21360, Note_on_c, 0, 79, 88
2, 21360, Note_on_c, 0, 91, 88
2, 21600, Note_on_c, 0, 91, 0
2, 21600, Note_on_c, 0, 79, 0
2, 21600, Control_c, 0, 64, 0
2, 21600, Note_on_c, 0, 82, 75
2, 21600, Note_on_c, 0, 94, 75
2, 22080, Note_on_c, 0, 94, 0
2, 22080, Note_on_c, 0, 82, 0
2, 22080, Control_c, 0, 64, 127
2, 22080, Note_on_c, 0, 81, 75
2, 22080, Note_on_c, 0, 93, 75
2, 22800, Note_on_c, 0, 93, 0
2, 22800, Note_on_c, 0, 81, 0
2, 22800, Note_on_c, 0, 79, 75
2, 22800, Note_on_c, 0, 91, 75
2, 23040, Note_on_c, 0, 91, 0
2, 23040, Note_on_c, 0, 79, 0
2, 23040, Control_c, 0, 64, 0
2, 23040, Note_on_c, 0, 77, 62
2, 23040, Note_on_c, 0, 89, 62
2, 23280, Note_on_c, 0, 89, 0
2, 23280, Note_on_c, 0, 77, 0
2, 23280, Note_on_c, 0, 84, 62
2, 23520, Note_on_c, 0, 84, 0
2, 23520, Control_c, 0, 64, 0
2, 23520, Note_on_c, 0, 88, 62
2, 24000, Note_on_c, 0, 88, 0
2, 24000, Note_on_c, 0, 86, 62
2, 24240, Note_on_c, 0, 86, 0
2, 24240, Note_on_c, 0, 88, 62
2, 24480, Note_on_c, 0, 88, 0
2, 24480, Note_on_c, 0, 86, 62
2, 24960, Note_on_c, 0, 86, 0
2, 24960, Note_on_c, 0, 84, 62
2, 25680, Note_on_c, 0, 84, 0
2, 25680, Note_on_c, 0, 82, 62
2, 25920, Note_on_c, 0, 82, 0
2, 25920, Note_on_c, 0, 81, 62
2, 26160, Note_on_c, 0, 81, 0
2, 26160, Note_on_c, 0, 84, 62
2, 26400, Note_on_c, 0, 84, 0
2, 26400, Note_on_c, 0, 88, 62
2, 26880, Note_on_c, 0, 88, 0
2, 26880, Note_on_c, 0, 86, 62
2, 27120, Note_on_c, 0, 86, 0
2, 27120, Note_on_c, 0, 88, 62
2, 27360, Note_on_c, 0, 88, 0
2, 27360, Note_on_c, 0, 86, 62
2, 27840, Note_on_c, 0, 86, 0
2, 27840, Note_on_c, 0, 84, 62
2, 28560, Note_on_c, 0, 84, 0
2, 28560, Note_on_c, 0, 82, 62
2, 28800, Note_on_c, 0, 82, 0
2, 28800, Note_on_c, 0, 81, 62
2, 29040, Note_on_c, 0, 81, 0
2, 29040, Note_on_c, 0, 84, 62
2, 29280, Note_on_c, 0, 84, 0
2, 29280, Note_on_c, 0, 86, 62
2, 29760, Note_on_c, 0, 86, 0
2, 29760, Note_on_c, 0, 84, 62
2, 30000, Note_on_c, 0, 84, 0
2, 30000, Note_on_c, 0, 86, 62
2, 30240, Note_on_c, 0, 86, 0
2, 30240, Note_on_c, 0, 84, 62
2, 30720, Note_on_c, 0, 84, 0
2, 30720, Note_on_c, 0, 82, 62
2, 31200, Note_on_c, 0, 82, 0
2, 31200, Note_on_c, 0, 81, 62
2, 31440, Note_on_c, 0, 81, 0
2, 31440, Note_on_c, 0, 82, 62
2, 31680, Note_on_c, 0, 82, 0
2, 31680, Note_on_c, 0, 81, 62
2, 32160, Note_on_c, 0, 81, 0
2, 32160, Note_on_c, 0, 81, 62
2, 32400, Note_on_c, 0, 81, 0
2, 32400, Note_on_c, 0, 79, 62
2, 32640, Note_on_c, 0, 79, 0
2, 32640, Note_on_c, 0, 77, 62
2, 33360, Note_on_c, 0, 77, 0
2, 33360, Note_on_c, 0, 76, 62
2, 33600, Note_on_c, 0, 76, 0
2, 33600, Note_on_c, 0, 76, 62
2, 34080, Note_on_c, 0, 76, 0
2, 34080, Note_on_c, 0, 74, 62
2, 34560, Note_on_c, 0, 74, 0
2, 34560, Note_on_c, 0, 89, 62
2, 35040, Note_on_c, 0, 89, 0
2, 35040, Control_c, 0, 64, 0
2, 35040, Note_on_c, 0, 88, 62
2, 35520, Note_on_c, 0, 88, 0
2, 35520, Note_on_c, 0, 86, 62
2, 35760, Note_on_c, 0, 86, 0
2, 35760, Note_on_c, 0, 88, 62
2, 36000, Note_on_c, 0, 88, 0
2, 36000, Note_on_c, 0, 86, 62
2, 36480, Note_on_c, 0, 86, 0
2, 36480, Note_on_c, 0, 84, 62
2, 37200, Note_on_c, 0, 84, 0
2, 37200, Note_on_c, 0, 82, 62
2, 37440, Note_on_c, 0, 82, 0
2, 37440, Note_on_c, 0, 81, 62
2, 37680, Note_on_c, 0, 81, 0
2, 37680, Note_on_c, 0, 84, 62
2, 37920, Note_on_c, 0, 84, 0
2, 37920, Note_on_c, 0, 88, 62
2, 38400, Note_on_c, 0, 88, 0
2, 38400, Note_on_c, 0, 86, 62
2, 38640, Note_on_c, 0, 86, 0
2, 38640, Note_on_c, 0, 88, 62
2, 38880, Note_on_c, 0, 88, 0
2, 38880, Note_on_c, 0, 86, 62
2, 39360, Note_on_c, 0, 86, 0
2, 39360, Note_on_c, 0, 84, 62
2, 40080, Note_on_c, 0, 84, 0
2, 40080, Note_on_c, 0, 82, 62
2, 40320, Note_on_c, 0, 82, 0
2, 40320, Note_on_c, 0, 81, 62
2, 40560, Note_on_c, 0, 81, 0
2, 40560, Note_on_c, 0, 84, 62
2, 40800, Note_on_c, 0, 84, 0
2, 40800, Note_on_c, 0, 86, 62
2, 41280, Note_on_c, 0, 86, 0
2, 41280, Note_on_c, 0, 84, 62
2, 41520, Note_on_c, 0, 84, 0
2, 41520, Note_on_c, 0, 86, 62
2, 41760, Note_on_c, 0, 86, 0
2, 41760, Note_on_c, 0, 84, 62
2, 42240, Note_on_c, 0, 84, 0
2, 42240, Note_on_c, 0, 82, 62
2, 42720, Note_on_c, 0, 82, 0
2, 42720, Note_on_c, 0, 81, 62
2, 42960, Note_on_c, 0, 81, 0
2, 42960, Note_on_c, 0, 82, 62
2, 43200, Note_on_c, 0, 82, 0
2, 43200, Note_on_c, 0, 81, 62
2, 43680, Note_on_c, 0, 81, 0
2, 43680, Note_on_c, 0, 81, 62
2, 43920, Note_on_c, 0, 81, 0
2, 43920, Note_on_c, 0, 79, 62
2, 44160, Note_on_c, 0, 79, 0
2, 44160, Note_on_c, 0, 77, 62
2, 44880, Note_on_c, 0, 77, 0
2, 44880, Note_on_c, 0, 76, 62
2, 45120, Note_on_c, 0, 76, 0
2, 45120, Note_on_c, 0, 76, 62
2, 45600, Note_on_c, 0, 76, 0
2, 45600, Control_c, 0, 64, 127
2, 45600, Note_on_c, 0, 74, 62
2, 46080, Note_on_c, 0, 74, 0
2, 47520, Control_c, 0, 64, 0
2, 47520, End_track
3, 0, Start_track
3, 0, Title_t, "Instrument17"
3, 0, Program_c, 0, 0
3, 0, Control_c, 0, 7, 115
3, 0, Control_c, 0, 10, 80
3, 480, Control_c, 0, 64, 127
3, 480, Note_on_c, 0, 69, 62
3, 960, Note_on_c, 0, 69, 0
3, 960, Note_on_c, 0, 70, 62
3, 1200, Note_on_c, 0, 70, 0
3, 1200, Note_on_c, 0, 69, 62
3, 1440, Note_on_c, 0, 69, 0
3, 1440, Note_on_c, 0, 70, 62
3, 1920, Note_on_c, 0, 70, 0
3, 1920, Control_c, 0, 64, 0
3, 1920, Note_on_c, 0, 69, 62
3, 2640, Note_on_c, 0, 69, 0
3, 3360, Control_c, 0, 64, 127
3, 3360, Note_on_c, 0, 69, 62
3, 3840, Note_on_c, 0, 69, 0
3, 3840, Note_on_c, 0, 70, 62
3, 4080, Note_on_c, 0, 70, 0
3, 4080, Note_on_c, 0, 69, 62
3, 4320, Note_on_c, 0, 69, 0
3, 4320, Note_on_c, 0, 70, 62
3, 4800, Note_on_c, 0, 70, 0
3, 4800, Note_on_c, 0, 69, 62
3, 5520, Note_on_c, 0, 69, 0
3, 5520, Note_on_c, 0, 67, 62
3, 5760, Note_on_c, 0, 67, 0
3, 5760, Note_on_c, 0, 65, 62
3, 6000, Note_on_c, 0, 65, 0
3, 6000, Control_c, 0, 64, 0
3, 6000, Note_on_c, 0, 67, 62
3, 6240, Note_on_c, 0, 67, 0
3, 6240, Control_c, 0, 64, 127
3, 6240, Note_on_c, 0, 69, 62
3, 6720, Note_on_c, 0, 69, 0
3, 6720, Note_on_c, 0, 70, 62
3, 6960, Note_on_c, 0, 70, 0
3, 6960, Note_on_c, 0, 69, 62
3, 7200, Note_on_c, 0, 69, 0
3, 7200, Control_c, 0, 64, 0
3, 7200, Note_on_c, 0, 70, 62
3, 7680, Note_on_c, 0, 70, 0
3, 7680, Control_c, 0, 64, 127
3, 7680, Note_on_c, 0, 72, 62
3, 8160, Note_on_c, 0, 72, 0
3, 8160, Note_on_c, 0, 74, 62
3, 8400, Note_on_c, 0, 74, 0
3, 8400, Note_on_c, 0, 72, 62
3, 8640, Note_on_c, 0, 72, 0
3, 8640, Control_c, 0, 64, 0
3, 8640, Note_on_c, 0, 74, 62
3, 9120, Note_on_c, 0, 74, 0
3, 9120, Control_c, 0, 64, 127
3, 9120, Note_on_c, 0, 76, 62
3, 9600, Note_on_c, 0, 76, 0
3, 9600, Note_on_c, 0, 74, 62
3, 9840, Note_on_c, 0, 74, 0
3, 9840, Note_on_c, 0, 76, 62
3, 10080, Note_on_c, 0, 76, 0
3, 10080, Control_c, 0, 64, 0
3, 10080, Note_on_c, 0, 74, 62
3, 10560, Note_on_c, 0, 74, 0
3, 10560, Control_c, 0, 64, 127
3, 10560, Note_on_c, 0, 72, 62
3, 11280, Note_on_c, 0, 72, 0
3, 11280, Note_on_c, 0, 70, 62
3, 11520, Note_on_c, 0, 70, 0
3, 11520, Control_c, 0, 64, 0
3, 11520, Note_on_c, 0, 69, 62
3, 12000, Note_on_c, 0, 69, 0
3, 12000, Control_c, 0, 64, 127
3, 12000, Note_on_c, 0, 67, 62
3, 12720, Note_on_c, 0, 67, 0
3, 12720, Note_on_c, 0, 65, 62
3, 12960, Note_on_c, 0, 65, 0
3, 12960, Control_c, 0, 64, 0
3, 12960, Note_on_c, 0, 64, 62
3, 13440, Note_on_c, 0, 64, 0
3, 13440, Note_on_c, 0, 65, 62
3, 13920, Note_on_c, 0, 65, 0
3, 13920, Note_on_c, 0, 69, 62
3, 14400, Note_on_c, 0, 69, 0
3, 14400, Control_c, 0, 64, 127
3, 14400, Note_on_c, 0, 62, 62
3, 14880, Note_on_c, 0, 62, 0
3, 14880, Note_on_c, 0, 67, 62
3, 15600, Note_on_c, 0, 67, 0
3, 15600, Note_on_c, 0, 65, 62
3, 15840, Note_on_c, 0, 65, 0
3, 15840, Control_c, 0, 64, 0
3, 15840, Note_on_c, 0, 64, 62
3, 16320, Note_on_c, 0, 64, 0
3, 16320, Note_on_c, 0, 65, 62
3, 16800, Note_on_c, 0, 65, 0
3, 16800, Note_on_c, 0, 69, 62
3, 17280, Note_on_c, 0, 69, 0
3, 17280, Control_c, 0, 64, 127
3, 17280, Note_on_c, 0, 62, 62
3, 17760, Note_on_c, 0, 62, 0
3, 17760, Note_on_c, 0, 65, 62
3, 18240, Note_on_c, 0, 65, 0
3, 18240, Control_c, 0, 64, 0
3, 18240, Note_on_c, 0, 69, 62
3, 18720, Note_on_c, 0, 69, 0
3, 18720, Control_c, 0, 64, 127
3, 18720, Note_on_c, 0, 65, 62
3, 19200, Note_on_c, 0, 65, 0
3, 19200, Note_on_c, 0, 69, 75
3, 19680, Note_on_c, 0, 69, 0
3, 19680, Control_c, 0, 64, 0
3, 19680, Note_on_c, 0, 72, 75
3, 20160, Note_on_c, 0, 72, 0
3, 20160, Control_c, 0, 64, 127
3, 20160, Note_on_c, 0, 69, 75
3, 20640, Note_on_c, 0, 69, 0
3, 20640, Note_on_c, 0, 72, 88
3, 21360, Note_on_c, 0, 72, 0
3, 21360, Note_on_c, 0, 67, 88
3, 21600, Note_on_c, 0, 67, 0
3, 21600, Control_c, 0, 64, 0
3, 21600, Note_on_c, 0, 70, 75
3, 22080, Note_on_c, 0, 70, 0
3, 22080, Control_c, 0, 64, 127
3, 22080, Note_on_c, 0, 69, 75
3, 22800, Note_on_c, 0, 69, 0
3, 22800, Note_on_c, 0, 67, 75
3, 23040, Note_on_c, 0, 67, 0
3, 23040, Control_c, 0, 64, 0
3, 23040, Note_on_c, 0, 65, 62
3, 23280, Note_on_c, 0, 65, 0
3, 23280, Note_on_c, 0, 72, 62
3, 23520, Note_on_c, 0, 72, 0
3, 23520, Control_c, 0, 64, 0
3, 23520, Note_on_c, 0, 76, 62
3, 24000, Note_on_c, 0, 76, 0
3, 24000, Note_on_c, 0, 74, 62
3, 24240, Note_on_c, 0, 74, 0
3, 24240, Note_on_c, 0, 76, 62
3, 24480, Note_on_c, 0, 76, 0
3, 24480, Note_on_c, 0, 74, 62
3, 24960, Note_on_c, 0, 74, 0
3, 24960, Note_on_c, 0, 72, 62
3, 25680, Note_on_c, 0, 72, 0
3, 25680, Note_on_c, 0, 70, 62
3, 25920, Note_on_c, 0, 70, 0
3, 25920, Note_on_c, 0, 69, 62
3, 26160, Note_on_c, 0, 69, 0
3, 26160, Note_on_c, 0, 72, 62
3, 26400, Note_on_c, 0, 72, 0
3, 26400, Note_on_c, 0, 76, 62
3, 26880, Note_on_c, 0, 76, 0
3, 26880, Note_on_c, 0, 74, 62
3, 27120, Note_on_c, 0, 74, 0
3, 27120, Note_on_c, 0, 76, 62
3, 27360, Note_on_c, 0, 76, 0
3, 27360, Note_on_c, 0, 74, 62
3, 27840, Note_on_c, 0, 74, 0
3, 27840, Note_on_c, 0, 72, 62
3, 28560, Note_on_c, 0, 72, 0
3, 28560, Note_on_c, 0, 70, 62
3, 28800, Note_on_c, 0, 70, 0
3, 28800, Note_on_c, 0, 69, 62
3, 29040, Note_on_c, 0, 69, 0
3, 29040, Note_on_c, 0, 72, 62
3, 29280, Note_on_c, 0, 72, 0
3, 29280, Note_on_c, 0, 74, 62
3, 29760, Note_on_c, 0, 74, 0
3, 29760, Note_on_c, 0, 72, 62
3, 30000, Note_on_c, 0, 72, 0
3, 30000, Note_on_c, 0, 74, 62
3, 30240, Note_on_c, 0, 74, 0
3, 30240, Note_on_c, 0, 72, 62
3, 30720, Note_on_c, 0, 72, 0
3, 30720, Note_on_c, 0, 70, 62
3, 31200, Note_on_c, 0, 70, 0
3, 31200, Note_on_c, 0, 69, 62
3, 31440, Note_on_c, 0, 69, 0
3, 31440, Note_on_c, 0, 70, 62
3, 31680, Note_on_c, 0, 70, 0
3, 31680, Note_on_c, 0, 69, 62
3, 32160, Note_on_c, 0, 69, 0
3, 32160, Note_on_c, 0, 69, 62
3, 32400, Note_on_c, 0, 69, 0
3, 32400, Note_on_c, 0, 67, 62
3, 32640, Note_on_c, 0, 67, 0
3, 32640, Note_on_c, 0, 65, 62
3, 33360, Note_on_c, 0, 65, 0
3, 33360, Note_on_c, 0, 64, 62
3, 33600, Note_on_c, 0, 64, 0
3, 33600, Note_on_c, 0, 64, 62
3, 34080, Note_on_c, 0, 64, 0
3, 34080, Note_on_c, 0, 65, 62
3, 34560, Note_on_c, 0, 65, 0
3, 34560, Note_on_c, 0, 77, 62
3, 35040, Note_on_c, 0, 77, 0
3, 35040, Control_c, 0, 64, 0
3, 35040, Note_on_c, 0, 76, 62
3, 35520, Note_on_c, 0, 76, 0
3, 35520, Note_on_c, 0, 74, 62
3, 35760, Note_on_c, 0, 74, 0
3, 35760, Note_on_c, 0, 76, 62
3, 36000, Note_on_c, 0, 76, 0
3, 36000, Note_on_c, 0, 74, 62
3, 36480, Note_on_c, 0, 74, 0
3, 36480, Note_on_c, 0, 72, 62
3, 37200, Note_on_c, 0, 72, 0
3, 37200, Note_on_c, 0, 70, 62
3, 37440, Note_on_c, 0, 70, 0
3, 37440, Note_on_c, 0, 69, 62
3, 37680, Note_on_c, 0, 69, 0
3, 37680, Note_on_c, 0, 72, 62
3, 37920, Note_on_c, 0, 72, 0
3, 37920, Note_on_c, 0, 76, 62
3, 38400, Note_on_c, 0, 76, 0
3, 38400, Note_on_c, 0, 74, 62
3, 38640, Note_on_c, 0, 74, 0
3, 38640, Note_on_c, 0, 76, 62
3, 38880, Note_on_c, 0, 76, 0
3, 38880, Note_on_c, 0, 74, 62
3, 39360, Note_on_c, 0, 74, 0
3, 39360, Note_on_c, 0, 72, 62
3, 40080, Note_on_c, 0, 72, 0
3, 40080, Note_on_c, 0, 70, 62
3, 40320, Note_on_c, 0, 70, 0
3, 40320, Note_on_c, 0, 69, 62
3, 40560, Note_on_c, 0, 69, 0
3, 40560, Note_on_c, 0, 72, 62
3, 40800, Note_on_c, 0, 72, 0
3, 40800, Note_on_c, 0, 74, 62
3, 41280, Note_on_c, 0, 74, 0
3, 41280, Note_on_c, 0, 72, 62
3, 41520, Note_on_c, 0, 72, 0
3, 41520, Note_on_c, 0, 74, 62
3, 41760, Note_on_c, 0, 74, 0
3, 41760, Note_on_c, 0, 72, 62
3, 42240, Note_on_c, 0, 72, 0
3, 42240, Note_on_c, 0, 70, 62
3, 42720, Note_on_c, 0, 70, 0
3, 42720, Note_on_c, 0, 69, 62
3, 42960, Note_on_c, 0, 69, 0
3, 42960, Note_on_c, 0, 70, 62
3, 43200, Note_on_c, 0, 70, 0
3, 43200, Note_on_c, 0, 69, 62
3, 43680, Note_on_c, 0, 69, 0
3, 43680, Note_on_c, 0, 69, 62
3, 43920, Note_on_c, 0, 69, 0
3, 43920, Note_on_c, 0, 67, 62
3, 44160, Note_on_c, 0, 67, 0
3, 44160, Note_on_c, 0, 65, 62
3, 44880, Note_on_c, 0, 65, 0
3, 44880, Note_on_c, 0, 64, 62
3, 45120, Note_on_c, 0, 64, 0
3, 45120, Note_on_c, 0, 64, 62
3, 45600, Note_on_c, 0, 64, 0
3, 45600, Control_c, 0, 64, 127
3, 45600, Note_on_c, 0, 65, 62
3, 46080, Note_on_c, 0, 65, 0
3, 47520, Control_c, 0, 64, 0
3, 47520, End_track
4, 0, Start_track
4, 0, Title_t, "Instrument18"
4, 0, Program_c, 0, 0
4, 0, Control_c, 0, 7, 115
4, 0, Control_c, 0, 10, 47
4, 0, Note_on_c, 0, 57, 75
4, 480, Note_on_c, 0, 57, 0
4, 480, Note_on_c, 0, 67, 75
4, 1200, Note_on_c, 0, 67, 0
4, 1200, Note_on_c, 0, 65, 75
4, 1440, Note_on_c, 0, 65, 0
4, 1440, Note_on_c, 0, 64, 75
4, 1920, Note_on_c, 0, 64, 0
4, 1920, Note_on_c, 0, 65, 75
4, 2400, Note_on_c, 0, 65, 0
4, 2400, Note_on_c, 0, 57, 75
4, 2880, Note_on_c, 0, 57, 0
4, 2880, Note_on_c, 0, 62, 75
4, 3360, Note_on_c, 0, 62, 0
4, 3360, Note_on_c, 0, 67, 75
4, 4080, Note_on_c, 0, 67, 0
4, 4080, Note_on_c, 0, 65, 75
4, 4320, Note_on_c, 0, 65, 0
4, 4320, Note_on_c, 0, 64, 75
4, 4800, Note_on_c, 0, 64, 0
4, 4800, Note_on_c, 0, 65, 75
4, 5280, Note_on_c, 0, 65, 0
4, 5280, Note_on_c, 0, 57, 75
4, 5760, Note_on_c, 0, 57, 0
4, 5760, Note_on_c, 0, 62, 75
4, 6240, Note_on_c, 0, 62, 0
4, 6240, Note_on_c, 0, 65, 75
4, 6720, Note_on_c, 0, 65, 0
4, 6720, Note_on_c, 0, 57, 75
4, 7200, Note_on_c, 0, 57, 0
4, 7200, Note_on_c, 0, 65, 75
4, 7680, Note_on_c, 0, 65, 0
4, 7680, Note_on_c, 0, 69, 75
4, 8160, Note_on_c, 0, 69, 0
4, 8160, Note_on_c, 0, 60, 75
4, 8640, Note_on_c, 0, 60, 0
4, 8640, Note_on_c, 0, 69, 75
4, 9120, Note_on_c, 0, 69, 0
4, 9120, Note_on_c, 0, 72, 75
4, 9840, Note_on_c, 0, 72, 0
4, 9840, Note_on_c, 0, 67, 75
4, 10080, Note_on_c, 0, 67, 0
4, 10080, Note_on_c, 0, 70, 75
4, 10560, Note_on_c, 0, 70, 0
4, 10560, Note_on_c, 0, 69, 75
4, 11280, Note_on_c, 0, 69, 0
4, 11280, Note_on_c, 0, 67, 75
4, 11520, Note_on_c, 0, 67, 0
4, 11520, Note_on_c, 0, 65, 75
4, 12000, Note_on_c, 0, 65, 0
4, 12000, Control_c, 0, 64, 127
4, 12000, Note_on_c, 0, 57, 75
4, 12480, Note_on_c, 0, 57, 0
4, 12480, Note_on_c, 0, 58, 75
4, 12720, Note_on_c, 0, 58, 0
4, 12720, Note_on_c, 0, 57, 75
4, 12960, Note_on_c, 0, 57, 0
4, 12960, Note_on_c, 0, 58, 75
4, 13440, Note_on_c, 0, 58, 0
4, 13440, Note_on_c, 0, 57, 75
4, 14160, Note_on_c, 0, 57, 0
4, 14160, Note_on_c, 0, 55, 75
4, 14400, Note_on_c, 0, 55, 0
4, 14400, Note_on_c, 0, 53, 75
4, 14640, Note_on_c, 0, 53, 0
4, 14640, Control_c, 0, 64, 0
4, 14640, Note_on_c, 0, 55, 75
4, 14880, Note_on_c, 0, 55, 0
4, 14880, Control_c, 0, 64, 127
4, 14880, Note_on_c, 0, 57, 75
4, 15360, Note_on_c, 0, 57, 0
4, 15360, Note_on_c, 0, 58, 75
4, 15600, Note_on_c, 0, 58, 0
4, 15600, Note_on_c, 0, 57, 75
4, 15840, Note_on_c, 0, 57, 0
4, 15840, Note_on_c, 0, 58, 75
4, 16320, Note_on_c, 0, 58, 0
4, 16320, Note_on_c, 0, 57, 75
4, 17040, Note_on_c, 0, 57, 0
4, 17040, Note_on_c, 0, 55, 75
4, 17280, Note_on_c, 0, 55, 0
4, 17280, Note_on_c, 0, 53, 75
4, 17520, Note_on_c, 0, 53, 0
4, 17520, Control_c, 0, 64, 0
4, 17520, Note_on_c, 0, 55, 75
4, 17760, Note_on_c, 0, 55, 0
4, 17760, Control_c, 0, 64, 127
4, 17760, Note_on_c, 0, 57, 75
4, 18240, Note_on_c, 0, 57, 0
4, 18240, Note_on_c, 0, 58, 75
4, 18480, Note_on_c, 0, 58, 0
4, 18480, Note_on_c, 0, 57, 75
4, 18720, Note_on_c, 0, 57, 0
4, 18720, Control_c, 0, 64, 0
4, 18720, Note_on_c, 0, 58, 75
4, 19200, Note_on_c, 0, 58, 0
4, 19200, Control_c, 0, 64, 127
4, 19200, Note_on_c, 0, 60, 75
4, 19680, Note_on_c, 0, 60, 0
4, 19680, Note_on_c, 0, 62, 75
4, 19920, Note_on_c, 0, 62, 0
4, 19920, Note_on_c, 0, 60, 75
4, 20160, Note_on_c, 0, 60, 0
4, 20160, Control_c, 0, 64, 0
4, 20160, Note_on_c, 0, 62, 75
4, 20640, Note_on_c, 0, 62, 0
4, 20640, Control_c, 0, 64, 127
4, 20640, Note_on_c, 0, 64, 75
4, 21120, Note_on_c, 0, 64, 0
4, 21120, Note_on_c, 0, 62, 75
4, 21360, Note_on_c, 0, 62, 0
4, 21360, Note_on_c, 0, 64, 75
4, 21600, Note_on_c, 0, 64, 0
4, 21600, Control_c, 0, 64, 0
4, 21600, Note_on_c, 0, 62, 75
4, 22080, Note_on_c, 0, 62, 0
4, 22080, Note_on_c, 0, 60, 75
4, 22800, Note_on_c, 0, 60, 0
4, 22800, Note_on_c, 0, 58, 75
4, 23040, Note_on_c, 0, 58, 0
4, 23040, Note_on_c, 0, 57, 75
4, 23520, Note_on_c, 0, 57, 0
4, 23520, Note_on_c, 0, 60, 75
4, 24240, Note_on_c, 0, 60, 0
4, 24240, Note_on_c, 0, 55, 75
4, 24480, Note_on_c, 0, 55, 0
4, 24480, Note_on_c, 0, 58, 75
4, 24960, Note_on_c, 0, 58, 0
4, 24960, Note_on_c, 0, 57, 75
4, 25680, Note_on_c, 0, 57, 0
4, 25680, Note_on_c, 0, 55, 75
4, 25920, Note_on_c, 0, 55, 0
4, 25920, Note_on_c, 0, 53, 75
4, 26160, Note_on_c, 0, 53, 0
4, 26160, Note_on_c, 0, 57, 75
4, 26400, Note_on_c, 0, 57, 0
4, 26400, Note_on_c, 0, 60, 75
4, 27120, Note_on_c, 0, 60, 0
4, 27120, Note_on_c, 0, 55, 75
4, 27360, Note_on_c, 0, 55, 0
4, 27360, Note_on_c, 0, 58, 75
4, 27840, Note_on_c, 0, 58, 0
4, 27840, Note_on_c, 0, 57, 75
4, 28560, Note_on_c, 0, 57, 0
4, 28560, Note_on_c, 0, 55, 75
4, 28800, Note_on_c, 0, 55, 0
4, 28800, Note_on_c, 0, 53, 75
4, 29040, Note_on_c, 0, 53, 0
4, 29040, Note_on_c, 0, 57, 75
4, 29280, Note_on_c, 0, 57, 0
4, 29280, Note_on_c, 0, 58, 75
4, 30000, Note_on_c, 0, 58, 0
4, 30000, Note_on_c, 0, 53, 75
4, 30240, Note_on_c, 0, 53, 0
4, 30240, Note_on_c, 0, 57, 75
4, 30720, Note_on_c, 0, 57, 0
4, 30720, Note_on_c, 0, 55, 75
4, 31440, Note_on_c, 0, 55, 0
4, 31440, Note_on_c, 0, 50, 75
4, 31680, Note_on_c, 0, 50, 0
4, 31680, Note_on_c, 0, 53, 75
4, 32160, Note_on_c, 0, 53, 0
4, 32160, Note_on_c, 0, 48, 75
4, 32640, Note_on_c, 0, 48, 0
4, 32640, Note_on_c, 0, 60, 75
4, 33120, Note_on_c, 0, 60, 0
4, 33120, Note_on_c, 0, 57, 75
4, 33120, Note_on_c, 0, 61, 75
4, 33600, Note_on_c, 0, 61, 0
4, 33600, Note_on_c, 0, 57, 0
4, 33600, Note_on_c, 0, 55, 75
4, 33600, Note_on_c, 0, 61, 75
4, 34080, Note_on_c, 0, 61, 0
4, 34080, Note_on_c, 0, 55, 0
4, 34080, Note_on_c, 0, 53, 75
4, 34080, Note_on_c, 0, 62, 75
4, 34560, Note_on_c, 0, 62, 0
4, 34560, Note_on_c, 0, 53, 0
4, 34560, Note_on_c, 0, 57, 75
4, 35040, Note_on_c, 0, 57, 0
4, 35040, Note_on_c, 0, 60, 75
4, 35760, Note_on_c, 0, 60, 0
4, 35760, Note_on_c, 0, 55, 75
4, 36000, Note_on_c, 0, 55, 0
4, 36000, Note_on_c, 0, 58, 75
4, 36480, Note_on_c, 0, 58, 0
4, 36480, Note_on_c, 0, 57, 75
4, 37200, Note_on_c, 0, 57, 0
4, 37200, Note_on_c, 0, 55, 75
4, 37440, Note_on_c, 0, 55, 0
4, 37440, Note_on_c, 0, 53, 75
4, 37680, Note_on_c, 0, 53, 0
4, 37680, Note_on_c, 0, 57, 75
4, 37920, Note_on_c, 0, 57, 0
4, 37920, Note_on_c, 0, 60, 75
4, 38640, Note_on_c, 0, 60, 0
4, 38640, Note_on_c, 0, 55, 75
4, 38880, Note_on_c, 0, 55, 0
4, 38880, Note_on_c, 0, 58, 75
4, 39360, Note_on_c, 0, 58, 0
4, 39360, Note_on_c, 0, 57, 75
4, 40080, Note_on_c, 0, 57, 0
4, 40080, Note_on_c, 0, 55, 75
4, 40320, Note_on_c, 0, 55, 0
4, 40320, Note_on_c, 0, 53, 75
4, 40560, Note_on_c, 0, 53, 0
4, 40560, Note_on_c, 0, 57, 75
4, 40800, Note_on_c, 0, 57, 0
4, 40800, Note_on_c, 0, 58, 75
4, 41520, Note_on_c, 0, 58, 0
4, 41520, Note_on_c, 0, 53, 75
4, 41760, Note_on_c, 0, 53, 0
4, 41760, Note_on_c, 0, 57, 75
4, 42240, Note_on_c, 0, 57, 0
4, 42240, Note_on_c, 0, 55, 75
4, 42960, Note_on_c, 0, 55, 0
4, 42960, Note_on_c, 0, 50, 75
4, 43200, Note_on_c, 0, 50, 0
4, 43200, Note_on_c, 0, 53, 75
4, 43680, Note_on_c, 0, 53, 0
4, 43680, Note_on_c, 0, 48, 75
4, 44160, Note_on_c, 0, 48, 0
4, 44160, Note_on_c, 0, 60, 75
4, 44640, Note_on_c, 0, 60, 0
4, 44640, Note_on_c, 0, 57, 75
4, 44640, Note_on_c, 0, 61, 75
4, 45120, Note_on_c, 0, 61, 0
4, 45120, Note_on_c, 0, 57, 0
4, 45120, Note_on_c, 0, 55, 75
4, 45120, Note_on_c, 0, 61, 75
4, 45600, Note_on_c, 0, 61, 0
4, 45600, Note_on_c, 0, 55, 0
4, 45600, Note_on_c, 0, 53, 75
4, 45600, Note_on_c, 0, 62, 75
4, 46080, Note_on_c, 0, 62, 0
4, 46080, Note_on_c, 0, 53, 0
4, 46080, End_track
5, 0, Start_track
5, 0, Title_t, "Instrument19"
5, 0, Program_c, 0, 0
5, 0, Control_c, 0, 7, 115
5, 0, Control_c, 0, 10, 32
5, 480, Note_on_c, 0, 37, 75
5, 527, Note_on_c, 0, 37, 0
5, 960, Note_on_c, 0, 45, 75
5, 1007, Note_on_c, 0, 45, 0
5, 1440, Note_on_c, 0, 49, 75
5, 1487, Note_on_c, 0, 49, 0
5, 1920, Note_on_c, 0, 50, 75
5, 1967, Note_on_c, 0, 50, 0
5, 2400, Note_on_c, 0, 41, 75
5, 2447, Note_on_c, 0, 41, 0
5, 2880, Note_on_c, 0, 38, 75
5, 2927, Note_on_c, 0, 38, 0
5, 3360, Note_on_c, 0, 37, 75
5, 3407, Note_on_c, 0, 37, 0
5, 3840, Note_on_c, 0, 45, 75
5, 3887, Note_on_c, 0, 45, 0
5, 4320, Note_on_c, 0, 49, 75
5, 4367, Note_on_c, 0, 49, 0
5, 4800, Note_on_c, 0, 50, 75
5, 4847, Note_on_c, 0, 50, 0
5, 5280, Note_on_c, 0, 41, 75
5, 5327, Note_on_c, 0, 41, 0
5, 5760, Note_on_c, 0, 38, 75
5, 5807, Note_on_c, 0, 38, 0
5, 6240, Note_on_c, 0, 49, 62
5, 6720, Note_on_c, 0, 49, 0
5, 6720, Note_on_c, 0, 41, 62
5, 7200, Note_on_c, 0, 41, 0
5, 7200, Note_on_c, 0, 37, 62
5, 7680, Note_on_c, 0, 37, 0
5, 7680, Note_on_c, 0, 48, 62
5, 8160, Note_on_c, 0, 48, 0
5, 8160, Note_on_c, 0, 41, 62
5, 8640, Note_on_c, 0, 41, 0
5, 8640, Note_on_c, 0, 36, 62
5, 9120, Note_on_c, 0, 36, 0
5, 9120, Note_on_c, 0, 48, 62
5, 9600, Note_on_c, 0, 48, 0
5, 9600, Note_on_c, 0, 43, 62
5, 10080, Note_on_c, 0, 43, 0
5, 10080, Note_on_c, 0, 36, 62
5, 10560, Note_on_c, 0, 36, 0
5, 10560, Note_on_c, 0, 53, 62
5, 11040, Note_on_c, 0, 53, 0
5, 11040, Note_on_c, 0, 48, 62
5, 11520, Note_on_c, 0, 48, 0
5, 11520, Note_on_c, 0, 41, 62
5, 12000, Note_on_c, 0, 41, 0
5, 12000, Note_on_c, 0, 37, 75
5, 12047, Note_on_c, 0, 37, 0
5, 12480, Note_on_c, 0, 45, 75
5, 12527, Note_on_c, 0, 45, 0
5, 12960, Note_on_c, 0, 49, 75
5, 13007, Note_on_c, 0, 49, 0
5, 13440, Note_on_c, 0, 50, 75
5, 13487, Note_on_c, 0, 50, 0
5, 13920, Note_on_c, 0, 41, 75
5, 13967, Note_on_c, 0, 41, 0
5, 14400, Note_on_c, 0, 38, 75
5, 14447, Note_on_c, 0, 38, 0
5, 14880, Note_on_c, 0, 37, 75
5, 14927, Note_on_c, 0, 37, 0
5, 15360, Note_on_c, 0, 45, 75
5, 15407, Note_on_c, 0, 45, 0
5, 15840, Note_on_c, 0, 49, 75
5, 15887, Note_on_c, 0, 49, 0
5, 16320, Note_on_c, 0, 50, 75
5, 16367, Note_on_c, 0, 50, 0
5, 16800, Note_on_c, 0, 41, 75
5, 16847, Note_on_c, 0, 41, 0
5, 17280, Note_on_c, 0, 38, 75
5, 17327, Note_on_c, 0, 38, 0
5, 17760, Note_on_c, 0, 49, 62
5, 18240, Note_on_c, 0, 49, 0
5, 18240, Note_on_c, 0, 41, 62
5, 18720, Note_on_c, 0, 41, 0
5, 18720, Note_on_c, 0, 37, 62
5, 19200, Note_on_c, 0, 37, 0
5, 19200, Note_on_c, 0, 48, 62
5, 19680, Note_on_c, 0, 48, 0
5, 19680, Note_on_c, 0, 41, 62
5, 20160, Note_on_c, 0, 41, 0
5, 20160, Note_on_c, 0, 36, 62
5, 20640, Note_on_c, 0, 36, 0
5, 20640, Note_on_c, 0, 48, 62
5, 21120, Note_on_c, 0, 48, 0
5, 21120, Note_on_c, 0, 43, 62
5, 21600, Note_on_c, 0, 43, 0
5, 21600, Note_on_c, 0, 36, 62
5, 22080, Note_on_c, 0, 36, 0
5, 22080, Note_on_c, 0, 53, 62
5, 22560, Note_on_c, 0, 53, 0
5, 22560, Note_on_c, 0, 48, 62
5, 23040, Note_on_c, 0, 48, 0
5, 23040, Note_on_c, 0, 41, 62
5, 23520, Note_on_c, 0, 41, 0
5, 23520, Note_on_c, 0, 36, 75
5, 23567, Note_on_c, 0, 36, 0
5, 24000, Note_on_c, 0, 43, 75
5, 24047, Note_on_c, 0, 43, 0
5, 24480, Note_on_c, 0, 48, 75
5, 24527, Note_on_c, 0, 48, 0
5, 24960, Note_on_c, 0, 29, 75
5, 25007, Note_on_c, 0, 29, 0
5, 25440, Note_on_c, 0, 36, 75
5, 25487, Note_on_c, 0, 36, 0
5, 25920, Note_on_c, 0, 41, 75
5, 25967, Note_on_c, 0, 41, 0
5, 26400, Note_on_c, 0, 36, 75
5, 26447, Note_on_c, 0, 36, 0
5, 26880, Note_on_c, 0, 43, 75
5, 26927, Note_on_c, 0, 43, 0
5, 27360, Note_on_c, 0, 48, 75
5, 27407, Note_on_c, 0, 48, 0
5, 27840, Note_on_c, 0, 29, 75
5, 27887, Note_on_c, 0, 29, 0
5, 28320, Note_on_c, 0, 36, 75
5, 28367, Note_on_c, 0, 36, 0
5, 28800, Note_on_c, 0, 41, 75
5, 28847, Note_on_c, 0, 41, 0
5, 29280, Note_on_c, 0, 34, 75
5, 29327, Note_on_c, 0, 34, 0
5, 29760, Note_on_c, 0, 46, 75
5, 29807, Note_on_c, 0, 46, 0
5, 30240, Note_on_c, 0, 41, 75
5, 30287, Note_on_c, 0, 41, 0
5, 30720, Note_on_c, 0, 31, 75
5, 30767, Note_on_c, 0, 31, 0
5, 31200, Note_on_c, 0, 43, 75
5, 31247, Note_on_c, 0, 43, 0
5, 31680, Note_on_c, 0, 38, 75
5, 31727, Note_on_c, 0, 38, 0
5, 32160, Note_on_c, 0, 29, 75
5, 32160, Note_on_c, 0, 41, 75
5, 32207, Note_on_c, 0, 41, 0
5, 32207, Note_on_c, 0, 29, 0
5, 32640, Note_on_c, 0, 33, 75
5, 32640, Note_on_c, 0, 45, 75
5, 32687, Note_on_c, 0, 45, 0
5, 32687, Note_on_c, 0, 33, 0
5, 33120, Note_on_c, 0, 33, 75
5, 33167, Note_on_c, 0, 33, 0
5, 33600, Note_on_c, 0, 38, 75
5, 33647, Note_on_c, 0, 38, 0
5, 34080, Note_on_c, 0, 50, 75
5, 34127, Note_on_c, 0, 50, 0
5, 35040, Note_on_c, 0, 36, 75
5, 35087, Note_on_c, 0, 36, 0
5, 35520, Note_on_c, 0, 43, 75
5, 35567, Note_on_c, 0, 43, 0
5, 36000, Note_on_c, 0, 48, 75
5, 36047, Note_on_c, 0, 48, 0
5, 36480, Note_on_c, 0, 29, 75
5, 36527, Note_on_c, 0, 29, 0
5, 36960, Note_on_c, 0, 36, 75
5, 37007, Note_on_c, 0, 36, 0
5, 37440, Note_on_c, 0, 41, 75
5, 37487, Note_on_c, 0, 41, 0
5, 37920, Note_on_c, 0, 36, 75
5, 37967, Note_on_c, 0, 36, 0
5, 38400, Note_on_c, 0, 43, 75
5, 38447, Note_on_c, 0, 43, 0
5, 38880, Note_on_c, 0, 48, 75
5, 38927, Note_on_c, 0, 48, 0
5, 39360, Note_on_c, 0, 29, 75
5, 39407, Note_on_c, 0, 29, 0
5, 39840, Note_on_c, 0, 36, 75
5, 39887, Note_on_c, 0, 36, 0
5, 40320, Note_on_c, 0, 41, 75
5, 40367, Note_on_c, 0, 41, 0
5, 40800, Note_on_c, 0, 34, 75
5, 40847, Note_on_c, 0, 34, 0
5, 41280, Note_on_c, 0, 46, 75
5, 41327, Note_on_c, 0, 46, 0
5, 41760, Note_on_c, 0, 41, 75
5, 41807, Note_on_c, 0, 41, 0
5, 42240, Note_on_c, 0, 31, 75
5, 42287, Note_on_c, 0, 31, 0
5, 42720, Note_on_c, 0, 43, 75
5, 42767, Note_on_c, 0, 43, 0
5, 43200, Note_on_c, 0, 38, 75
5, 43247, Note_on_c, 0, 38, 0
5, 43680, Note_on_c, 0, 29, 75
5, 43680, Note_on_c, 0, 41, 75
5, 43727, Note_on_c, 0, 41, 0
5, 43727, Note_on_c, 0, 29, 0
5, 44160, Note_on_c, 0, 33, 75
5, 44160, Note_on_c, 0, 45, 75
5, 44207, Note_on_c, 0, 45, 0
5, 44207, Note_on_c, 0, 33, 0
5, 44640, Note_on_c, 0, 33, 75
5, 44687, Note_on_c, 0, 33, 0
5, 45120, Note_on_c, 0, 38, 75
5, 45167, Note_on_c, 0, 38, 0
5, 45600, Note_on_c, 0, 50, 75
5, 45647, Note_on_c, 0, 50, 0
5, 45647, End_track
0, 0, End_of_file
