0, 0, Header, 0, 1, 480
1, 0, Start_track
1, 0, Title_t, "Suite espagnole"
1, 0, Title_t, "Aragon"
1, 0, Copyright_t, "Copyright © 2001 by Bernd Krueger"
1, 0, Text_t, "Isaac Albeniz"
1, 0, Text_t, "Allegro"
1, 0, Text_t, "Fertiggestellt am 25.5.2001\012"
1, 0, Text_t, "Normierung: 23.12.2002\012"
1, 0, Text_t, "Update am 16.9.2010\012"
1, 0, Text_t, "Dauer: 4:02 Minuten\012"
1, 0, SMPTE_offset, 96, 0, 3, 0, 0
1, 0, Time_signature, 3, 3, 12, 8
1, 0, Key_signature, -1, "major"
1, 0, Tempo, 558140
1, 0, Program_c, 0, 0
1, 0, Control_c, 0, 7, 100
1, 0, Control_c, 0, 10, 64
1, 0, Note_on_c, 0, 69, 46
1, 0, Note_on_c, 0, 77, 56
1, 0, Text_t, "bdca426d104a26ac9dcb070447587523"
1, 0, Control_c, 0, 91, 127
1, 0, Program_c, 0, 0
1, 0, Control_c, 0, 7, 100
1, 0, Control_c, 0, 10, 64
1, 0, Note_on_c, 0, 53, 42
1, 0, Note_on_c, 0, 60, 42
1, 0, Note_on_c, 0, 65, 42
1, 0, Control_c, 0, 64, 0
1, 7, Control_c, 0, 64, 127
1, 240, Tempo, 545455
1, 240, Note_on_c, 0, 65, 0
1, 240, Note_on_c, 0, 53, 0
1, 240, Note_on_c, 0, 69, 0
1, 240, Note_on_c, 0, 77, 0
1, 240, Note_on_c, 0, 60, 0
1, 240, Note_on_c, 0, 69, 46
1, 240, Note_on_c, 0, 76, 50
1, 240, Note_on_c, 0, 64, 37
1, 261, Control_c, 0, 64, 0
1, 286, Control_c, 0, 64, 127
1, 320, Note_on_c, 0, 64, 0
1, 320, Note_on_c, 0, 76, 0
1, 320, Note_on_c, 0, 77, 47
1, 320, Note_on_c, 0, 65, 35
1, 400, Note_on_c, 0, 65, 0
1, 400, Note_on_c, 0, 77, 0
1, 400, Note_on_c, 0, 76, 47
1, 400, Note_on_c, 0, 64, 35
1, 480, Tempo, 542986
1, 480, Note_on_c, 0, 64, 0
1, 480, Note_on_c, 0, 76, 0
1, 480, Note_on_c, 0, 69, 0
1, 480, Note_on_c, 0, 74, 50
1, 480, Note_on_c, 0, 69, 33
1, 480, Note_on_c, 0, 62, 37
1, 494, Control_c, 0, 64, 0
1, 519, Control_c, 0, 64, 127
1, 600, Tempo, 560748
1, 600, Note_on_c, 0, 62, 0
1, 600, Note_on_c, 0, 74, 0
1, 600, Note_on_c, 0, 76, 47
1, 600, Note_on_c, 0, 64, 35
1, 720, Tempo, 538117
1, 720, Note_on_c, 0, 64, 0
1, 720, Note_on_c, 0, 76, 0
1, 720, Note_on_c, 0, 69, 0
1, 720, Note_on_c, 0, 69, 34
1, 720, Note_on_c, 0, 77, 53
1, 720, Note_on_c, 0, 65, 40
1, 732, Control_c, 0, 64, 0
1, 805, Control_c, 0, 64, 127
1, 840, Tempo, 585366
1, 840, Note_on_c, 0, 65, 0
1, 840, Note_on_c, 0, 77, 0
1, 840, Note_on_c, 0, 74, 49
1, 840, Note_on_c, 0, 62, 36
1, 960, Tempo, 571429
1, 960, Note_on_c, 0, 62, 0
1, 960, Note_on_c, 0, 74, 0
1, 960, Note_on_c, 0, 69, 0
1, 960, Note_on_c, 0, 69, 43
1, 960, Note_on_c, 0, 76, 51
1, 960, Note_on_c, 0, 64, 38
1, 969, Control_c, 0, 64, 0
1, 1050, Note_on_c, 0, 64, 0
1, 1050, Note_on_c, 0, 76, 0
1, 1050, Note_on_c, 0, 69, 0
1, 1200, Tempo, 582524
1, 1200, Note_on_c, 0, 69, 38
1, 1200, Note_on_c, 0, 72, 44
1, 1200, Note_on_c, 0, 60, 32
1, 1290, Note_on_c, 0, 60, 0
1, 1290, Note_on_c, 0, 72, 0
1, 1290, Note_on_c, 0, 69, 0
1, 1440, Tempo, 558140
1, 1440, Note_on_c, 0, 77, 56
1, 1440, Note_on_c, 0, 69, 46
1, 1440, Note_on_c, 0, 60, 42
1, 1440, Note_on_c, 0, 53, 42
1, 1440, Note_on_c, 0, 65, 42
1, 1493, Control_c, 0, 64, 127
1, 1680, Tempo, 545455
1, 1680, Note_on_c, 0, 65, 0
1, 1680, Note_on_c, 0, 60, 0
1, 1680, Note_on_c, 0, 77, 0
1, 1680, Note_on_c, 0, 69, 0
1, 1680, Note_on_c, 0, 53, 0
1, 1680, Note_on_c, 0, 69, 46
1, 1680, Note_on_c, 0, 76, 50
1, 1680, Note_on_c, 0, 64, 37
1, 1697, Control_c, 0, 64, 0
1, 1726, Control_c, 0, 64, 127
1, 1760, Note_on_c, 0, 64, 0
1, 1760, Note_on_c, 0, 76, 0
1, 1760, Note_on_c, 0, 77, 47
1, 1760, Note_on_c, 0, 65, 35
1, 1840, Note_on_c, 0, 65, 0
1, 1840, Note_on_c, 0, 77, 0
1, 1840, Note_on_c, 0, 76, 47
1, 1840, Note_on_c, 0, 64, 35
1, 1920, Tempo, 542986
1, 1920, Note_on_c, 0, 64, 0
1, 1920, Note_on_c, 0, 76, 0
1, 1920, Note_on_c, 0, 69, 0
1, 1920, Note_on_c, 0, 69, 32
1, 1920, Note_on_c, 0, 74, 50
1, 1920, Note_on_c, 0, 62, 37
1, 1934, Control_c, 0, 64, 0
1, 1959, Control_c, 0, 64, 127
1, 2040, Tempo, 560748
1, 2040, Note_on_c, 0, 62, 0
1, 2040, Note_on_c, 0, 74, 0
1, 2040, Note_on_c, 0, 76, 47
1, 2040, Note_on_c, 0, 64, 35
1, 2160, Tempo, 538117
1, 2160, Note_on_c, 0, 64, 0
1, 2160, Note_on_c, 0, 76, 0
1, 2160, Note_on_c, 0, 69, 0
1, 2160, Note_on_c, 0, 77, 53
1, 2160, Note_on_c, 0, 69, 33
1, 2160, Note_on_c, 0, 65, 40
1, 2172, Control_c, 0, 64, 0
1, 2245, Control_c, 0, 64, 127
1, 2280, Tempo, 582524
1, 2280, Note_on_c, 0, 65, 0
1, 2280, Note_on_c, 0, 77, 0
1, 2280, Note_on_c, 0, 74, 49
1, 2280, Note_on_c, 0, 62, 36
1, 2400, Tempo, 571429
1, 2400, Note_on_c, 0, 62, 0
1, 2400, Note_on_c, 0, 74, 0
1, 2400, Note_on_c, 0, 69, 0
1, 2400, Note_on_c, 0, 69, 43
1, 2400, Note_on_c, 0, 76, 51
1, 2400, Note_on_c, 0, 64, 38
1, 2421, Control_c, 0, 64, 0
1, 2490, Note_on_c, 0, 64, 0
1, 2490, Note_on_c, 0, 76, 0
1, 2490, Note_on_c, 0, 69, 0
1, 2640, Tempo, 582524
1, 2640, Note_on_c, 0, 72, 44
1, 2640, Note_on_c, 0, 69, 38
1, 2640, Note_on_c, 0, 60, 32
1, 2730, Note_on_c, 0, 60, 0
1, 2730, Note_on_c, 0, 69, 0
1, 2730, Note_on_c, 0, 72, 0
1, 2880, Tempo, 552995
1, 2880, Note_on_c, 0, 69, 43
1, 2880, Note_on_c, 0, 74, 58
1, 2880, Note_on_c, 0, 62, 44
1, 2944, Control_c, 0, 64, 127
1, 3000, Note_on_c, 0, 62, 0
1, 3000, Note_on_c, 0, 74, 0
1, 3000, Note_on_c, 0, 76, 52
1, 3000, Note_on_c, 0, 64, 39
1, 3120, Tempo, 576923
1, 3120, Note_on_c, 0, 64, 0
1, 3120, Note_on_c, 0, 76, 0
1, 3120, Note_on_c, 0, 69, 0
1, 3120, Note_on_c, 0, 72, 54
1, 3120, Note_on_c, 0, 69, 38
1, 3120, Note_on_c, 0, 60, 36
1, 3125, Control_c, 0, 64, 0
1, 3330, Note_on_c, 0, 60, 0
1, 3330, Note_on_c, 0, 69, 0
1, 3330, Note_on_c, 0, 72, 0
1, 3360, Tempo, 545455
1, 3360, Note_on_c, 0, 69, 43
1, 3360, Note_on_c, 0, 74, 58
1, 3360, Note_on_c, 0, 62, 44
1, 3431, Control_c, 0, 64, 127
1, 3480, Tempo, 558140
1, 3480, Note_on_c, 0, 62, 0
1, 3480, Note_on_c, 0, 74, 0
1, 3480, Note_on_c, 0, 76, 60
1, 3480, Note_on_c, 0, 64, 45
1, 3600, Tempo, 558140
1, 3600, Note_on_c, 0, 64, 0
1, 3600, Note_on_c, 0, 76, 0
1, 3600, Note_on_c, 0, 69, 0
1, 3600, Note_on_c, 0, 77, 64
1, 3600, Note_on_c, 0, 69, 45
1, 3600, Note_on_c, 0, 65, 48
1, 3606, Control_c, 0, 64, 0
1, 3810, Note_on_c, 0, 65, 0
1, 3810, Note_on_c, 0, 69, 0
1, 3810, Note_on_c, 0, 77, 0
1, 3840, Tempo, 552995
1, 3840, Note_on_c, 0, 69, 43
1, 3840, Note_on_c, 0, 74, 58
1, 3840, Note_on_c, 0, 62, 44
1, 3911, Control_c, 0, 64, 127
1, 3960, Note_on_c, 0, 62, 0
1, 3960, Note_on_c, 0, 74, 0
1, 3960, Note_on_c, 0, 76, 52
1, 3960, Note_on_c, 0, 64, 39
1, 4080, Tempo, 579710
1, 4080, Note_on_c, 0, 64, 0
1, 4080, Note_on_c, 0, 76, 0
1, 4080, Note_on_c, 0, 69, 0
1, 4080, Note_on_c, 0, 72, 48
1, 4080, Note_on_c, 0, 69, 34
1, 4080, Note_on_c, 0, 60, 32
1, 4105, Control_c, 0, 64, 0
1, 4290, Note_on_c, 0, 60, 0
1, 4290, Note_on_c, 0, 69, 0
1, 4290, Note_on_c, 0, 72, 0
1, 4320, Tempo, 542986
1, 4320, Note_on_c, 0, 69, 41
1, 4320, Note_on_c, 0, 74, 56
1, 4320, Note_on_c, 0, 62, 42
1, 4384, Control_c, 0, 64, 127
1, 4440, Tempo, 552995
1, 4440, Note_on_c, 0, 62, 0
1, 4440, Note_on_c, 0, 74, 0
1, 4440, Note_on_c, 0, 76, 51
1, 4440, Note_on_c, 0, 64, 38
1, 4560, Tempo, 563380
1, 4560, Note_on_c, 0, 64, 0
1, 4560, Note_on_c, 0, 76, 0
1, 4560, Note_on_c, 0, 69, 0
1, 4560, Note_on_c, 0, 72, 47
1, 4560, Note_on_c, 0, 69, 32
1, 4560, Note_on_c, 0, 60, 31
1, 4569, Control_c, 0, 64, 0
1, 4680, Tempo, 585366
1, 4770, Note_on_c, 0, 60, 0
1, 4770, Note_on_c, 0, 69, 0
1, 4770, Note_on_c, 0, 72, 0
1, 4800, Tempo, 558140
1, 4800, Note_on_c, 0, 69, 46
1, 4800, Note_on_c, 0, 74, 52
1, 4800, Note_on_c, 0, 62, 36
1, 4871, Control_c, 0, 64, 127
1, 4920, Tempo, 558140
1, 4920, Note_on_c, 0, 62, 0
1, 4920, Note_on_c, 0, 74, 0
1, 4920, Note_on_c, 0, 76, 54
1, 4920, Note_on_c, 0, 64, 38
1, 5040, Tempo, 555556
1, 5040, Note_on_c, 0, 64, 0
1, 5040, Note_on_c, 0, 76, 0
1, 5040, Note_on_c, 0, 69, 0
1, 5040, Note_on_c, 0, 79, 57
1, 5040, Note_on_c, 0, 69, 43
1, 5040, Note_on_c, 0, 67, 43
1, 5048, Control_c, 0, 64, 0
1, 5104, Control_c, 0, 64, 127
1, 5160, Tempo, 576923
1, 5160, Note_on_c, 0, 67, 0
1, 5160, Note_on_c, 0, 79, 0
1, 5160, Note_on_c, 0, 77, 51
1, 5160, Note_on_c, 0, 65, 38
1, 5280, Tempo, 566038
1, 5280, Note_on_c, 0, 65, 0
1, 5280, Note_on_c, 0, 77, 0
1, 5280, Note_on_c, 0, 69, 0
1, 5280, Note_on_c, 0, 69, 43
1, 5280, Note_on_c, 0, 74, 55
1, 5280, Note_on_c, 0, 62, 42
1, 5290, Control_c, 0, 64, 0
1, 5372, Control_c, 0, 64, 127
1, 5400, Tempo, 582524
1, 5400, Note_on_c, 0, 62, 0
1, 5400, Note_on_c, 0, 74, 0
1, 5400, Note_on_c, 0, 76, 54
1, 5400, Note_on_c, 0, 64, 40
1, 5520, Note_on_c, 0, 64, 0
1, 5520, Note_on_c, 0, 76, 0
1, 5520, Note_on_c, 0, 69, 0
1, 5520, Note_on_c, 0, 72, 49
1, 5520, Note_on_c, 0, 69, 40
1, 5520, Note_on_c, 0, 60, 36
1, 5539, Control_c, 0, 64, 0
1, 5647, Control_c, 0, 64, 127
1, 5760, Key_signature, 3, "major"
1, 5760, Tempo, 558140
1, 5760, Note_on_c, 0, 60, 0
1, 5760, Note_on_c, 0, 69, 0
1, 5760, Note_on_c, 0, 72, 0
1, 5760, Note_on_c, 0, 73, 43
1, 5760, Note_on_c, 0, 81, 52
1, 5760, Note_on_c, 0, 64, 38
1, 5760, Note_on_c, 0, 57, 38
1, 5760, Note_on_c, 0, 69, 44
1, 5765, Control_c, 0, 64, 0
1, 5824, Control_c, 0, 64, 127
1, 6000, Tempo, 545455
1, 6000, Note_on_c, 0, 69, 0
1, 6000, Note_on_c, 0, 64, 0
1, 6000, Note_on_c, 0, 73, 0
1, 6000, Note_on_c, 0, 81, 0
1, 6000, Note_on_c, 0, 57, 0
1, 6000, Note_on_c, 0, 80, 47
1, 6000, Note_on_c, 0, 73, 43
1, 6000, Note_on_c, 0, 68, 38
1, 6018, Control_c, 0, 64, 0
1, 6046, Control_c, 0, 64, 127
1, 6080, Note_on_c, 0, 68, 0
1, 6080, Note_on_c, 0, 80, 0
1, 6080, Note_on_c, 0, 81, 44
1, 6080, Note_on_c, 0, 69, 36
1, 6160, Note_on_c, 0, 69, 0
1, 6160, Note_on_c, 0, 81, 0
1, 6160, Note_on_c, 0, 80, 44
1, 6160, Note_on_c, 0, 68, 36
1, 6240, Tempo, 542986
1, 6240, Note_on_c, 0, 68, 0
1, 6240, Note_on_c, 0, 80, 0
1, 6240, Note_on_c, 0, 73, 0
1, 6240, Note_on_c, 0, 73, 37
1, 6240, Note_on_c, 0, 78, 47
1, 6240, Note_on_c, 0, 66, 38
1, 6254, Control_c, 0, 64, 0
1, 6279, Control_c, 0, 64, 127
1, 6360, Tempo, 560748
1, 6360, Note_on_c, 0, 66, 0
1, 6360, Note_on_c, 0, 78, 0
1, 6360, Note_on_c, 0, 80, 44
1, 6360, Note_on_c, 0, 68, 36
1, 6480, Tempo, 538117
1, 6480, Note_on_c, 0, 68, 0
1, 6480, Note_on_c, 0, 80, 0
1, 6480, Note_on_c, 0, 73, 0
1, 6480, Note_on_c, 0, 73, 36
1, 6480, Note_on_c, 0, 81, 49
1, 6480, Note_on_c, 0, 69, 42
1, 6492, Control_c, 0, 64, 0
1, 6565, Control_c, 0, 64, 127
1, 6600, Tempo, 576923
1, 6600, Note_on_c, 0, 69, 0
1, 6600, Note_on_c, 0, 81, 0
1, 6600, Note_on_c, 0, 78, 46
1, 6600, Note_on_c, 0, 66, 37
1, 6720, Tempo, 571429
1, 6720, Note_on_c, 0, 66, 0
1, 6720, Note_on_c, 0, 78, 0
1, 6720, Note_on_c, 0, 73, 0
1, 6720, Note_on_c, 0, 80, 47
1, 6720, Note_on_c, 0, 73, 39
1, 6720, Note_on_c, 0, 68, 39
1, 6734, Control_c, 0, 64, 0
1, 6810, Note_on_c, 0, 68, 0
1, 6810, Note_on_c, 0, 73, 0
1, 6810, Note_on_c, 0, 80, 0
1, 6960, Tempo, 582524
1, 6960, Note_on_c, 0, 73, 39
1, 6960, Note_on_c, 0, 76, 46
1, 6960, Note_on_c, 0, 64, 37
1, 7050, Note_on_c, 0, 64, 0
1, 7050, Note_on_c, 0, 76, 0
1, 7050, Note_on_c, 0, 73, 0
1, 7200, Tempo, 558140
1, 7200, Note_on_c, 0, 73, 43
1, 7200, Note_on_c, 0, 81, 52
1, 7200, Note_on_c, 0, 64, 38
1, 7200, Note_on_c, 0, 57, 38
1, 7200, Note_on_c, 0, 69, 44
1, 7246, Control_c, 0, 64, 127
1, 7440, Tempo, 545455
1, 7440, Note_on_c, 0, 69, 0
1, 7440, Note_on_c, 0, 64, 0
1, 7440, Note_on_c, 0, 73, 0
1, 7440, Note_on_c, 0, 81, 0
1, 7440, Note_on_c, 0, 57, 0
1, 7440, Note_on_c, 0, 73, 43
1, 7440, Note_on_c, 0, 80, 47
1, 7440, Note_on_c, 0, 68, 38
1, 7458, Control_c, 0, 64, 0
1, 7486, Control_c, 0, 64, 127
1, 7520, Note_on_c, 0, 68, 0
1, 7520, Note_on_c, 0, 80, 0
1, 7520, Note_on_c, 0, 81, 44
1, 7520, Note_on_c, 0, 69, 36
1, 7600, Note_on_c, 0, 69, 0
1, 7600, Note_on_c, 0, 81, 0
1, 7600, Note_on_c, 0, 80, 44
1, 7600, Note_on_c, 0, 68, 36
1, 7680, Tempo, 542986
1, 7680, Note_on_c, 0, 68, 0
1, 7680, Note_on_c, 0, 80, 0
1, 7680, Note_on_c, 0, 73, 0
1, 7680, Note_on_c, 0, 73, 37
1, 7680, Note_on_c, 0, 78, 47
1, 7680, Note_on_c, 0, 66, 38
1, 7694, Control_c, 0, 64, 0
1, 7719, Control_c, 0, 64, 127
1, 7800, Tempo, 560748
1, 7800, Note_on_c, 0, 66, 0
1, 7800, Note_on_c, 0, 78, 0
1, 7800, Note_on_c, 0, 80, 44
1, 7800, Note_on_c, 0, 68, 36
1, 7920, Tempo, 538117
1, 7920, Note_on_c, 0, 68, 0
1, 7920, Note_on_c, 0, 80, 0
1, 7920, Note_on_c, 0, 73, 0
1, 7920, Note_on_c, 0, 73, 36
1, 7920, Note_on_c, 0, 81, 49
1, 7920, Note_on_c, 0, 69, 42
1, 7962, Control_c, 0, 64, 0
1, 8005, Control_c, 0, 64, 127
1, 8040, Tempo, 576923
1, 8040, Note_on_c, 0, 69, 0
1, 8040, Note_on_c, 0, 81, 0
1, 8040, Note_on_c, 0, 78, 46
1, 8040, Note_on_c, 0, 66, 37
1, 8160, Tempo, 571429
1, 8160, Note_on_c, 0, 66, 0
1, 8160, Note_on_c, 0, 78, 0
1, 8160, Note_on_c, 0, 73, 0
1, 8160, Note_on_c, 0, 80, 47
1, 8160, Note_on_c, 0, 73, 39
1, 8160, Note_on_c, 0, 68, 39
1, 8176, Control_c, 0, 64, 0
1, 8250, Note_on_c, 0, 68, 0
1, 8250, Note_on_c, 0, 73, 0
1, 8250, Note_on_c, 0, 80, 0
1, 8400, Tempo, 582524
1, 8400, Note_on_c, 0, 73, 39
1, 8400, Note_on_c, 0, 76, 46
1, 8400, Note_on_c, 0, 64, 37
1, 8490, Note_on_c, 0, 64, 0
1, 8490, Note_on_c, 0, 76, 0
1, 8490, Note_on_c, 0, 73, 0
1, 8640, Tempo, 552995
1, 8640, Note_on_c, 0, 73, 45
1, 8640, Note_on_c, 0, 78, 54
1, 8640, Note_on_c, 0, 66, 46
1, 8683, Control_c, 0, 64, 127
1, 8760, Note_on_c, 0, 66, 0
1, 8760, Note_on_c, 0, 78, 0
1, 8760, Note_on_c, 0, 80, 48
1, 8760, Note_on_c, 0, 68, 40
1, 8880, Tempo, 576923
1, 8880, Note_on_c, 0, 68, 0
1, 8880, Note_on_c, 0, 80, 0
1, 8880, Note_on_c, 0, 73, 0
1, 8880, Note_on_c, 0, 73, 40
1, 8880, Note_on_c, 0, 76, 50
1, 8880, Note_on_c, 0, 64, 37
1, 8891, Control_c, 0, 64, 0
1, 9090, Note_on_c, 0, 64, 0
1, 9090, Note_on_c, 0, 76, 0
1, 9090, Note_on_c, 0, 73, 0
1, 9120, Tempo, 545455
1, 9120, Note_on_c, 0, 73, 45
1, 9120, Note_on_c, 0, 78, 54
1, 9120, Note_on_c, 0, 66, 46
1, 9191, Control_c, 0, 64, 127
1, 9240, Tempo, 558140
1, 9240, Note_on_c, 0, 66, 0
1, 9240, Note_on_c, 0, 78, 0
1, 9240, Note_on_c, 0, 80, 56
1, 9240, Note_on_c, 0, 68, 47
1, 9360, Tempo, 558140
1, 9360, Note_on_c, 0, 68, 0
1, 9360, Note_on_c, 0, 80, 0
1, 9360, Note_on_c, 0, 73, 0
1, 9360, Note_on_c, 0, 73, 47
1, 9360, Note_on_c, 0, 81, 59
1, 9360, Note_on_c, 0, 69, 50
1, 9367, Control_c, 0, 64, 0
1, 9452, Control_c, 0, 64, 127
1, 9570, Note_on_c, 0, 69, 0
1, 9570, Note_on_c, 0, 81, 0
1, 9570, Note_on_c, 0, 73, 0
1, 9600, Tempo, 552995
1, 9600, Note_on_c, 0, 73, 45
1, 9600, Note_on_c, 0, 78, 54
1, 9600, Note_on_c, 0, 66, 46
1, 9616, Control_c, 0, 64, 0
1, 9699, Control_c, 0, 64, 127
1, 9720, Note_on_c, 0, 66, 0
1, 9720, Note_on_c, 0, 78, 0
1, 9720, Note_on_c, 0, 80, 48
1, 9720, Note_on_c, 0, 68, 40
1, 9840, Tempo, 579710
1, 9840, Note_on_c, 0, 68, 0
1, 9840, Note_on_c, 0, 80, 0
1, 9840, Note_on_c, 0, 73, 0
1, 9840, Note_on_c, 0, 73, 36
1, 9840, Note_on_c, 0, 76, 45
1, 9840, Note_on_c, 0, 64, 33
1, 9854, Control_c, 0, 64, 0
1, 10050, Note_on_c, 0, 64, 0
1, 10050, Note_on_c, 0, 76, 0
1, 10050, Note_on_c, 0, 73, 0
1, 10080, Tempo, 542986
1, 10080, Note_on_c, 0, 73, 43
1, 10080, Note_on_c, 0, 78, 52
1, 10080, Note_on_c, 0, 66, 44
1, 10130, Control_c, 0, 64, 127
1, 10200, Tempo, 552995
1, 10200, Note_on_c, 0, 66, 0
1, 10200, Note_on_c, 0, 78, 0
1, 10200, Note_on_c, 0, 80, 47
1, 10200, Note_on_c, 0, 68, 39
1, 10320, Tempo, 563380
1, 10320, Note_on_c, 0, 68, 0
1, 10320, Note_on_c, 0, 80, 0
1, 10320, Note_on_c, 0, 73, 0
1, 10320, Note_on_c, 0, 73, 34
1, 10320, Note_on_c, 0, 76, 44
1, 10320, Note_on_c, 0, 64, 32
1, 10330, Control_c, 0, 64, 0
1, 10440, Tempo, 585366
1, 10440, Control_c, 0, 64, 127
1, 10530, Note_on_c, 0, 64, 0
1, 10530, Note_on_c, 0, 76, 0
1, 10530, Note_on_c, 0, 73, 0
1, 10560, Tempo, 558140
1, 10560, Note_on_c, 0, 73, 48
1, 10560, Note_on_c, 0, 78, 48
1, 10560, Note_on_c, 0, 66, 37
1, 10571, Control_c, 0, 64, 0
1, 10666, Control_c, 0, 64, 127
1, 10680, Tempo, 558140
1, 10680, Note_on_c, 0, 66, 0
1, 10680, Note_on_c, 0, 78, 0
1, 10680, Note_on_c, 0, 80, 50
1, 10680, Note_on_c, 0, 68, 39
1, 10800, Tempo, 555556
1, 10800, Note_on_c, 0, 68, 0
1, 10800, Note_on_c, 0, 80, 0
1, 10800, Note_on_c, 0, 73, 0
1, 10800, Note_on_c, 0, 73, 45
1, 10800, Note_on_c, 0, 83, 53
1, 10800, Note_on_c, 0, 71, 45
1, 10810, Control_c, 0, 64, 0
1, 10871, Control_c, 0, 64, 127
1, 10920, Tempo, 576923
1, 10920, Note_on_c, 0, 71, 0
1, 10920, Note_on_c, 0, 83, 0
1, 10920, Note_on_c, 0, 81, 47
1, 10920, Note_on_c, 0, 69, 39
1, 11040, Tempo, 566038
1, 11040, Note_on_c, 0, 69, 0
1, 11040, Note_on_c, 0, 81, 0
1, 11040, Note_on_c, 0, 73, 0
1, 11040, Note_on_c, 0, 78, 51
1, 11040, Note_on_c, 0, 73, 45
1, 11040, Note_on_c, 0, 66, 44
1, 11054, Control_c, 0, 64, 0
1, 11153, Control_c, 0, 64, 127
1, 11160, Tempo, 582524
1, 11160, Note_on_c, 0, 66, 0
1, 11160, Note_on_c, 0, 78, 0
1, 11160, Note_on_c, 0, 80, 50
1, 11160, Note_on_c, 0, 68, 42
1, 11280, Note_on_c, 0, 68, 0
1, 11280, Note_on_c, 0, 80, 0
1, 11280, Note_on_c, 0, 73, 0
1, 11280, Note_on_c, 0, 73, 42
1, 11280, Note_on_c, 0, 76, 46
1, 11280, Note_on_c, 0, 64, 37
1, 11296, Control_c, 0, 64, 0
1, 11414, Control_c, 0, 64, 127
1, 11520, Key_signature, 0, "major"
1, 11520, Tempo, 558140
1, 11520, Note_on_c, 0, 64, 0
1, 11520, Note_on_c, 0, 76, 0
1, 11520, Note_on_c, 0, 73, 0
1, 11520, Note_on_c, 0, 84, 84
1, 11520, Note_on_c, 0, 76, 56
1, 11520, Note_on_c, 0, 48, 55
1, 11520, Note_on_c, 0, 55, 62
1, 11528, Control_c, 0, 64, 0
1, 11577, Control_c, 0, 64, 127
1, 11640, Note_on_c, 0, 55, 0
1, 11640, Note_on_c, 0, 48, 0
1, 11760, Tempo, 545455
1, 11760, Note_on_c, 0, 76, 0
1, 11760, Note_on_c, 0, 84, 0
1, 11760, Note_on_c, 0, 76, 56
1, 11760, Note_on_c, 0, 83, 76
1, 11760, Note_on_c, 0, 55, 56
1, 11760, Note_on_c, 0, 43, 50
1, 11779, Control_c, 0, 64, 0
1, 11806, Control_c, 0, 64, 127
1, 11840, Note_on_c, 0, 83, 0
1, 11840, Note_on_c, 0, 84, 66
1, 11880, Note_on_c, 0, 43, 0
1, 11880, Note_on_c, 0, 55, 0
1, 11920, Note_on_c, 0, 84, 0
1, 11920, Note_on_c, 0, 83, 66
1, 12000, Tempo, 542986
1, 12000, Note_on_c, 0, 83, 0
1, 12000, Note_on_c, 0, 76, 0
1, 12000, Note_on_c, 0, 81, 72
1, 12000, Note_on_c, 0, 76, 41
1, 12000, Note_on_c, 0, 55, 49
1, 12000, Note_on_c, 0, 48, 43
1, 12014, Control_c, 0, 64, 0
1, 12071, Control_c, 0, 64, 127
1, 12120, Tempo, 560748
1, 12120, Note_on_c, 0, 48, 0
1, 12120, Note_on_c, 0, 55, 0
1, 12120, Note_on_c, 0, 81, 0
1, 12120, Note_on_c, 0, 83, 66
1, 12240, Tempo, 538117
1, 12240, Note_on_c, 0, 83, 0
1, 12240, Note_on_c, 0, 76, 0
1, 12240, Note_on_c, 0, 77, 42
1, 12240, Note_on_c, 0, 84, 76
1, 12240, Note_on_c, 0, 50, 55
1, 12240, Note_on_c, 0, 55, 62
1, 12252, Control_c, 0, 64, 0
1, 12325, Control_c, 0, 64, 127
1, 12360, Tempo, 566038
1, 12360, Note_on_c, 0, 55, 0
1, 12360, Note_on_c, 0, 50, 0
1, 12360, Note_on_c, 0, 84, 0
1, 12360, Note_on_c, 0, 81, 67
1, 12480, Tempo, 571429
1, 12480, Note_on_c, 0, 81, 0
1, 12480, Note_on_c, 0, 77, 0
1, 12480, Note_on_c, 0, 77, 51
1, 12480, Note_on_c, 0, 83, 77
1, 12480, Note_on_c, 0, 55, 56
1, 12480, Note_on_c, 0, 43, 50
1, 12498, Control_c, 0, 64, 0
1, 12570, Note_on_c, 0, 43, 0
1, 12570, Note_on_c, 0, 77, 0
1, 12570, Note_on_c, 0, 83, 0
1, 12570, Note_on_c, 0, 55, 0
1, 12720, Tempo, 597015
1, 12720, Note_on_c, 0, 77, 51
1, 12720, Note_on_c, 0, 79, 73
1, 12720, Note_on_c, 0, 55, 56
1, 12720, Note_on_c, 0, 50, 50
1, 12810, Note_on_c, 0, 50, 0
1, 12810, Note_on_c, 0, 77, 0
1, 12810, Note_on_c, 0, 79, 0
1, 12810, Note_on_c, 0, 55, 0
1, 12960, Tempo, 558140
1, 12960, Note_on_c, 0, 84, 84
1, 12960, Note_on_c, 0, 76, 56
1, 12960, Note_on_c, 0, 55, 62
1, 12960, Note_on_c, 0, 48, 55
1, 13006, Control_c, 0, 64, 127
1, 13080, Note_on_c, 0, 48, 0
1, 13080, Note_on_c, 0, 55, 0
1, 13200, Tempo, 545455
1, 13200, Note_on_c, 0, 76, 0
1, 13200, Note_on_c, 0, 84, 0
1, 13200, Note_on_c, 0, 76, 56
1, 13200, Note_on_c, 0, 83, 76
1, 13200, Note_on_c, 0, 55, 56
1, 13200, Note_on_c, 0, 43, 50
1, 13218, Control_c, 0, 64, 0
1, 13246, Control_c, 0, 64, 127
1, 13280, Note_on_c, 0, 83, 0
1, 13280, Note_on_c, 0, 84, 67
1, 13320, Note_on_c, 0, 43, 0
1, 13320, Note_on_c, 0, 55, 0
1, 13360, Note_on_c, 0, 84, 0
1, 13360, Note_on_c, 0, 83, 67
1, 13440, Tempo, 542986
1, 13440, Note_on_c, 0, 83, 0
1, 13440, Note_on_c, 0, 76, 0
1, 13440, Note_on_c, 0, 76, 41
1, 13440, Note_on_c, 0, 81, 73
1, 13440, Note_on_c, 0, 55, 49
1, 13440, Note_on_c, 0, 48, 42
1, 13454, Control_c, 0, 64, 0
1, 13490, Control_c, 0, 64, 127
1, 13560, Tempo, 560748
1, 13560, Note_on_c, 0, 48, 0
1, 13560, Note_on_c, 0, 55, 0
1, 13560, Note_on_c, 0, 81, 0
1, 13560, Note_on_c, 0, 83, 68
1, 13680, Tempo, 538117
1, 13680, Note_on_c, 0, 83, 0
1, 13680, Note_on_c, 0, 76, 0
1, 13680, Note_on_c, 0, 84, 77
1, 13680, Note_on_c, 0, 77, 40
1, 13680, Note_on_c, 0, 50, 55
1, 13680, Note_on_c, 0, 55, 62
1, 13700, Control_c, 0, 64, 0
1, 13765, Control_c, 0, 64, 127
1, 13800, Tempo, 566038
1, 13800, Note_on_c, 0, 55, 0
1, 13800, Note_on_c, 0, 50, 0
1, 13800, Note_on_c, 0, 84, 0
1, 13800, Note_on_c, 0, 81, 67
1, 13920, Tempo, 571429
1, 13920, Note_on_c, 0, 81, 0
1, 13920, Note_on_c, 0, 77, 0
1, 13920, Note_on_c, 0, 77, 51
1, 13920, Note_on_c, 0, 83, 77
1, 13920, Note_on_c, 0, 43, 50
1, 13920, Note_on_c, 0, 55, 56
1, 13940, Control_c, 0, 64, 0
1, 14010, Note_on_c, 0, 55, 0
1, 14010, Note_on_c, 0, 77, 0
1, 14010, Note_on_c, 0, 83, 0
1, 14010, Note_on_c, 0, 43, 0
1, 14160, Tempo, 582524
1, 14160, Note_on_c, 0, 79, 73
1, 14160, Note_on_c, 0, 77, 51
1, 14160, Note_on_c, 0, 55, 56
1, 14160, Note_on_c, 0, 50, 50
1, 14250, Note_on_c, 0, 50, 0
1, 14250, Note_on_c, 0, 79, 0
1, 14250, Note_on_c, 0, 77, 0
1, 14250, Note_on_c, 0, 55, 0
1, 14400, Note_on_c, 0, 60, 54
1, 14400, Note_on_c, 0, 64, 61
1, 14400, Note_on_c, 0, 48, 45
1, 14400, Note_on_c, 0, 55, 48
1, 14520, Note_on_c, 0, 55, 0
1, 14520, Note_on_c, 0, 60, 0
1, 14520, Note_on_c, 0, 64, 0
1, 14520, Note_on_c, 0, 62, 51
1, 14520, Note_on_c, 0, 65, 57
1, 14520, Note_on_c, 0, 56, 45
1, 14640, Note_on_c, 0, 56, 0
1, 14640, Note_on_c, 0, 48, 0
1, 14640, Note_on_c, 0, 62, 0
1, 14640, Note_on_c, 0, 65, 0
1, 14640, Note_on_c, 0, 64, 55
1, 14640, Note_on_c, 0, 67, 62
1, 14640, Note_on_c, 0, 58, 49
1, 14880, Tempo, 568720
1, 14880, Note_on_c, 0, 58, 0
1, 14880, Note_on_c, 0, 67, 0
1, 14880, Note_on_c, 0, 64, 0
1, 14880, Note_on_c, 0, 64, 51
1, 14880, Note_on_c, 0, 67, 57
1, 14880, Note_on_c, 0, 58, 45
1, 15000, Note_on_c, 0, 58, 0
1, 15000, Note_on_c, 0, 67, 0
1, 15000, Note_on_c, 0, 64, 0
1, 15000, Note_on_c, 0, 62, 51
1, 15000, Note_on_c, 0, 65, 57
1, 15000, Note_on_c, 0, 56, 45
1, 15100, Tempo, 571429
1, 15120, Note_on_c, 0, 56, 0
1, 15120, Note_on_c, 0, 65, 0
1, 15120, Note_on_c, 0, 62, 0
1, 15120, Note_on_c, 0, 64, 54
1, 15120, Note_on_c, 0, 60, 48
1, 15120, Note_on_c, 0, 55, 43
1, 15240, Note_on_c, 0, 55, 0
1, 15240, Note_on_c, 0, 60, 0
1, 15240, Note_on_c, 0, 64, 0
1, 15240, Note_on_c, 0, 62, 48
1, 15240, Note_on_c, 0, 65, 54
1, 15240, Note_on_c, 0, 56, 43
1, 15300, Tempo, 568720
1, 15360, Note_on_c, 0, 56, 0
1, 15360, Note_on_c, 0, 65, 0
1, 15360, Note_on_c, 0, 62, 0
1, 15360, Note_on_c, 0, 67, 55
1, 15360, Note_on_c, 0, 64, 49
1, 15360, Note_on_c, 0, 58, 44
1, 15480, Note_on_c, 0, 58, 0
1, 15480, Note_on_c, 0, 64, 0
1, 15480, Note_on_c, 0, 67, 0
1, 15480, Note_on_c, 0, 65, 51
1, 15480, Note_on_c, 0, 68, 57
1, 15480, Note_on_c, 0, 60, 45
1, 15600, Tempo, 563380
1, 15600, Note_on_c, 0, 60, 0
1, 15600, Note_on_c, 0, 68, 0
1, 15600, Note_on_c, 0, 65, 0
1, 15600, Note_on_c, 0, 67, 52
1, 15600, Note_on_c, 0, 70, 58
1, 15600, Note_on_c, 0, 61, 46
1, 15680, Tempo, 563380
1, 15720, Note_on_c, 0, 61, 0
1, 15720, Note_on_c, 0, 70, 0
1, 15720, Note_on_c, 0, 67, 0
1, 15720, Note_on_c, 0, 72, 60
1, 15720, Note_on_c, 0, 68, 54
1, 15720, Note_on_c, 0, 63, 48
1, 15840, Tempo, 591133
1, 15840, Note_on_c, 0, 63, 0
1, 15840, Note_on_c, 0, 68, 0
1, 15840, Note_on_c, 0, 72, 0
1, 15840, Note_on_c, 0, 67, 53
1, 15840, Note_on_c, 0, 70, 59
1, 15840, Note_on_c, 0, 61, 47
1, 15960, Tempo, 563380
1, 15960, Note_on_c, 0, 61, 0
1, 15960, Note_on_c, 0, 70, 0
1, 15960, Note_on_c, 0, 67, 0
1, 15960, Note_on_c, 0, 73, 62
1, 15960, Note_on_c, 0, 70, 55
1, 15960, Note_on_c, 0, 65, 49
1, 16080, Note_on_c, 0, 65, 0
1, 16080, Note_on_c, 0, 70, 0
1, 16080, Note_on_c, 0, 73, 0
1, 16080, Note_on_c, 0, 68, 55
1, 16080, Note_on_c, 0, 72, 62
1, 16080, Note_on_c, 0, 64, 49
1, 16200, Note_on_c, 0, 64, 0
1, 16200, Note_on_c, 0, 72, 0
1, 16200, Note_on_c, 0, 68, 0
1, 16200, Note_on_c, 0, 65, 51
1, 16200, Note_on_c, 0, 68, 57
1, 16200, Note_on_c, 0, 60, 45
1, 16320, Note_on_c, 0, 60, 0
1, 16320, Note_on_c, 0, 68, 0
1, 16320, Note_on_c, 0, 65, 0
1, 16320, Note_on_c, 0, 70, 60
1, 16320, Note_on_c, 0, 67, 54
1, 16320, Note_on_c, 0, 61, 48
1, 16440, Note_on_c, 0, 61, 0
1, 16440, Note_on_c, 0, 67, 0
1, 16440, Note_on_c, 0, 70, 0
1, 16440, Note_on_c, 0, 64, 51
1, 16440, Note_on_c, 0, 67, 57
1, 16440, Note_on_c, 0, 58, 45
1, 16560, Tempo, 566038
1, 16560, Note_on_c, 0, 58, 0
1, 16560, Note_on_c, 0, 67, 0
1, 16560, Note_on_c, 0, 64, 0
1, 16560, Note_on_c, 0, 65, 57
1, 16560, Note_on_c, 0, 60, 51
1, 16560, Note_on_c, 0, 56, 45
1, 16680, Tempo, 585366
1, 16680, Note_on_c, 0, 56, 0
1, 16680, Note_on_c, 0, 60, 0
1, 16680, Note_on_c, 0, 65, 0
1, 16680, Note_on_c, 0, 61, 45
1, 16680, Note_on_c, 0, 67, 51
1, 16680, Note_on_c, 0, 58, 40
1, 16800, Tempo, 568720
1, 16800, Note_on_c, 0, 58, 0
1, 16800, Note_on_c, 0, 67, 0
1, 16800, Note_on_c, 0, 61, 0
1, 16800, Note_on_c, 0, 58, 49
1, 16800, Note_on_c, 0, 64, 55
1, 16800, Note_on_c, 0, 55, 44
1, 16920, Tempo, 588235
1, 16920, Note_on_c, 0, 55, 0
1, 16920, Note_on_c, 0, 64, 0
1, 16920, Note_on_c, 0, 58, 0
1, 16920, Note_on_c, 0, 65, 50
1, 16920, Note_on_c, 0, 60, 45
1, 16920, Note_on_c, 0, 56, 40
1, 17040, Tempo, 576923
1, 17040, Note_on_c, 0, 56, 0
1, 17040, Note_on_c, 0, 60, 0
1, 17040, Note_on_c, 0, 65, 0
1, 17040, Note_on_c, 0, 56, 47
1, 17040, Note_on_c, 0, 61, 53
1, 17040, Note_on_c, 0, 53, 42
1, 17160, Tempo, 685714
1, 17160, Note_on_c, 0, 53, 0
1, 17160, Note_on_c, 0, 61, 0
1, 17160, Note_on_c, 0, 56, 0
1, 17160, Note_on_c, 0, 63, 50
1, 17160, Note_on_c, 0, 58, 45
1, 17160, Note_on_c, 0, 55, 40
1, 17280, Tempo, 558140
1, 17280, Note_on_c, 0, 55, 0
1, 17280, Note_on_c, 0, 58, 0
1, 17280, Note_on_c, 0, 63, 0
1, 17280, Note_on_c, 0, 76, 56
1, 17280, Note_on_c, 0, 84, 84
1, 17280, Note_on_c, 0, 55, 62
1, 17280, Note_on_c, 0, 48, 55
1, 17340, Control_c, 0, 64, 127
1, 17400, Note_on_c, 0, 48, 0
1, 17400, Note_on_c, 0, 55, 0
1, 17520, Tempo, 545455
1, 17520, Note_on_c, 0, 84, 0
1, 17520, Note_on_c, 0, 76, 0
1, 17520, Note_on_c, 0, 76, 56
1, 17520, Note_on_c, 0, 83, 76
1, 17520, Note_on_c, 0, 55, 56
1, 17520, Note_on_c, 0, 43, 50
1, 17538, Control_c, 0, 64, 0
1, 17566, Control_c, 0, 64, 127
1, 17600, Note_on_c, 0, 83, 0
1, 17600, Note_on_c, 0, 84, 66
1, 17640, Note_on_c, 0, 43, 0
1, 17640, Note_on_c, 0, 55, 0
1, 17680, Note_on_c, 0, 84, 0
1, 17680, Note_on_c, 0, 83, 66
1, 17760, Tempo, 542986
1, 17760, Note_on_c, 0, 83, 0
1, 17760, Note_on_c, 0, 76, 0
1, 17760, Note_on_c, 0, 76, 42
1, 17760, Note_on_c, 0, 81, 73
1, 17760, Note_on_c, 0, 55, 48
1, 17760, Note_on_c, 0, 48, 43
1, 17774, Control_c, 0, 64, 0
1, 17799, Control_c, 0, 64, 127
1, 17880, Tempo, 560748
1, 17880, Note_on_c, 0, 48, 0
1, 17880, Note_on_c, 0, 55, 0
1, 17880, Note_on_c, 0, 81, 0
1, 17880, Note_on_c, 0, 83, 69
1, 18000, Tempo, 538117
1, 18000, Note_on_c, 0, 83, 0
1, 18000, Note_on_c, 0, 76, 0
1, 18000, Note_on_c, 0, 84, 75
1, 18000, Note_on_c, 0, 77, 41
1, 18000, Note_on_c, 0, 55, 62
1, 18000, Note_on_c, 0, 50, 55
1, 18012, Control_c, 0, 64, 0
1, 18085, Control_c, 0, 64, 127
1, 18120, Tempo, 563380
1, 18120, Note_on_c, 0, 50, 0
1, 18120, Note_on_c, 0, 55, 0
1, 18120, Note_on_c, 0, 84, 0
1, 18120, Note_on_c, 0, 81, 66
1, 18240, Tempo, 571429
1, 18240, Note_on_c, 0, 81, 0
1, 18240, Note_on_c, 0, 77, 0
1, 18240, Note_on_c, 0, 77, 51
1, 18240, Note_on_c, 0, 83, 77
1, 18240, Note_on_c, 0, 55, 56
1, 18240, Note_on_c, 0, 43, 50
1, 18259, Control_c, 0, 64, 0
1, 18330, Note_on_c, 0, 43, 0
1, 18330, Note_on_c, 0, 77, 0
1, 18330, Note_on_c, 0, 83, 0
1, 18330, Note_on_c, 0, 55, 0
1, 18480, Tempo, 582524
1, 18480, Note_on_c, 0, 79, 73
1, 18480, Note_on_c, 0, 77, 51
1, 18480, Note_on_c, 0, 55, 56
1, 18480, Note_on_c, 0, 50, 50
1, 18570, Note_on_c, 0, 50, 0
1, 18570, Note_on_c, 0, 79, 0
1, 18570, Note_on_c, 0, 77, 0
1, 18570, Note_on_c, 0, 55, 0
1, 18720, Tempo, 558140
1, 18720, Note_on_c, 0, 76, 56
1, 18720, Note_on_c, 0, 84, 84
1, 18720, Note_on_c, 0, 55, 62
1, 18720, Note_on_c, 0, 48, 55
1, 18752, Control_c, 0, 64, 127
1, 18840, Note_on_c, 0, 48, 0
1, 18840, Note_on_c, 0, 55, 0
1, 18960, Tempo, 545455
1, 18960, Note_on_c, 0, 84, 0
1, 18960, Note_on_c, 0, 76, 0
1, 18960, Note_on_c, 0, 83, 76
1, 18960, Note_on_c, 0, 76, 56
1, 18960, Note_on_c, 0, 55, 56
1, 18960, Note_on_c, 0, 43, 50
1, 18978, Control_c, 0, 64, 0
1, 19006, Control_c, 0, 64, 127
1, 19040, Note_on_c, 0, 83, 0
1, 19040, Note_on_c, 0, 84, 67
1, 19080, Note_on_c, 0, 43, 0
1, 19080, Note_on_c, 0, 55, 0
1, 19120, Note_on_c, 0, 84, 0
1, 19120, Note_on_c, 0, 83, 67
1, 19200, Tempo, 542986
1, 19200, Note_on_c, 0, 83, 0
1, 19200, Note_on_c, 0, 76, 0
1, 19200, Note_on_c, 0, 76, 39
1, 19200, Note_on_c, 0, 81, 72
1, 19200, Note_on_c, 0, 55, 49
1, 19200, Note_on_c, 0, 48, 41
1, 19214, Control_c, 0, 64, 0
1, 19239, Control_c, 0, 64, 127
1, 19320, Tempo, 560748
1, 19320, Note_on_c, 0, 48, 0
1, 19320, Note_on_c, 0, 55, 0
1, 19320, Note_on_c, 0, 81, 0
1, 19320, Note_on_c, 0, 83, 68
1, 19440, Tempo, 538117
1, 19440, Note_on_c, 0, 83, 0
1, 19440, Note_on_c, 0, 76, 0
1, 19440, Note_on_c, 0, 77, 41
1, 19440, Note_on_c, 0, 84, 75
1, 19440, Note_on_c, 0, 55, 62
1, 19440, Note_on_c, 0, 50, 55
1, 19452, Control_c, 0, 64, 0
1, 19525, Control_c, 0, 64, 127
1, 19560, Tempo, 560748
1, 19560, Note_on_c, 0, 50, 0
1, 19560, Note_on_c, 0, 55, 0
1, 19560, Note_on_c, 0, 84, 0
1, 19560, Note_on_c, 0, 81, 65
1, 19680, Tempo, 571429
1, 19680, Note_on_c, 0, 81, 0
1, 19680, Note_on_c, 0, 77, 0
1, 19680, Note_on_c, 0, 83, 77
1, 19680, Note_on_c, 0, 77, 51
1, 19680, Note_on_c, 0, 55, 56
1, 19680, Note_on_c, 0, 43, 50
1, 19699, Control_c, 0, 64, 0
1, 19770, Note_on_c, 0, 43, 0
1, 19770, Note_on_c, 0, 83, 0
1, 19770, Note_on_c, 0, 77, 0
1, 19770, Note_on_c, 0, 55, 0
1, 19920, Tempo, 582524
1, 19920, Note_on_c, 0, 77, 51
1, 19920, Note_on_c, 0, 79, 73
1, 19920, Note_on_c, 0, 55, 56
1, 19920, Note_on_c, 0, 50, 50
1, 20010, Note_on_c, 0, 50, 0
1, 20010, Note_on_c, 0, 77, 0
1, 20010, Note_on_c, 0, 79, 0
1, 20010, Note_on_c, 0, 55, 0
1, 20160, Tempo, 600000
1, 20160, Note_on_c, 0, 72, 48
1, 20160, Note_on_c, 0, 76, 54
1, 20160, Note_on_c, 0, 67, 43
1, 20160, Note_on_c, 0, 60, 40
1, 20280, Note_on_c, 0, 67, 0
1, 20280, Note_on_c, 0, 72, 0
1, 20280, Note_on_c, 0, 76, 0
1, 20280, Note_on_c, 0, 77, 51
1, 20280, Note_on_c, 0, 74, 45
1, 20280, Note_on_c, 0, 68, 40
1, 20400, Note_on_c, 0, 68, 0
1, 20400, Note_on_c, 0, 60, 0
1, 20400, Note_on_c, 0, 77, 0
1, 20400, Note_on_c, 0, 74, 0
1, 20400, Note_on_c, 0, 76, 49
1, 20400, Note_on_c, 0, 79, 55
1, 20400, Note_on_c, 0, 70, 44
1, 20640, Tempo, 568720
1, 20640, Note_on_c, 0, 70, 0
1, 20640, Note_on_c, 0, 79, 0
1, 20640, Note_on_c, 0, 76, 0
1, 20640, Note_on_c, 0, 79, 51
1, 20640, Note_on_c, 0, 76, 45
1, 20640, Note_on_c, 0, 70, 40
1, 20760, Note_on_c, 0, 70, 0
1, 20760, Note_on_c, 0, 76, 0
1, 20760, Note_on_c, 0, 79, 0
1, 20760, Note_on_c, 0, 77, 51
1, 20760, Note_on_c, 0, 74, 45
1, 20760, Note_on_c, 0, 68, 40
1, 20860, Tempo, 571429
1, 20880, Note_on_c, 0, 68, 0
1, 20880, Note_on_c, 0, 74, 0
1, 20880, Note_on_c, 0, 77, 0
1, 20880, Note_on_c, 0, 72, 43
1, 20880, Note_on_c, 0, 76, 48
1, 20880, Note_on_c, 0, 67, 38
1, 21000, Note_on_c, 0, 67, 0
1, 21000, Note_on_c, 0, 76, 0
1, 21000, Note_on_c, 0, 72, 0
1, 21000, Note_on_c, 0, 77, 48
1, 21000, Note_on_c, 0, 74, 43
1, 21000, Note_on_c, 0, 68, 38
1, 21060, Tempo, 568720
1, 21120, Note_on_c, 0, 68, 0
1, 21120, Note_on_c, 0, 74, 0
1, 21120, Note_on_c, 0, 77, 0
1, 21120, Note_on_c, 0, 76, 44
1, 21120, Note_on_c, 0, 79, 49
1, 21120, Note_on_c, 0, 70, 39
1, 21240, Note_on_c, 0, 70, 0
1, 21240, Note_on_c, 0, 79, 0
1, 21240, Note_on_c, 0, 76, 0
1, 21240, Note_on_c, 0, 77, 45
1, 21240, Note_on_c, 0, 80, 51
1, 21240, Note_on_c, 0, 72, 40
1, 21360, Tempo, 563380
1, 21360, Note_on_c, 0, 72, 0
1, 21360, Note_on_c, 0, 80, 0
1, 21360, Note_on_c, 0, 77, 0
1, 21360, Note_on_c, 0, 82, 52
1, 21360, Note_on_c, 0, 79, 46
1, 21360, Note_on_c, 0, 73, 41
1, 21440, Tempo, 563380
1, 21480, Note_on_c, 0, 73, 0
1, 21480, Note_on_c, 0, 79, 0
1, 21480, Note_on_c, 0, 82, 0
1, 21480, Note_on_c, 0, 80, 48
1, 21480, Note_on_c, 0, 84, 53
1, 21480, Note_on_c, 0, 75, 43
1, 21600, Tempo, 591133
1, 21600, Note_on_c, 0, 75, 0
1, 21600, Note_on_c, 0, 84, 0
1, 21600, Note_on_c, 0, 80, 0
1, 21600, Note_on_c, 0, 82, 52
1, 21600, Note_on_c, 0, 79, 47
1, 21600, Note_on_c, 0, 73, 42
1, 21720, Tempo, 563380
1, 21720, Note_on_c, 0, 73, 0
1, 21720, Note_on_c, 0, 79, 0
1, 21720, Note_on_c, 0, 82, 0
1, 21720, Note_on_c, 0, 82, 49
1, 21720, Note_on_c, 0, 85, 55
1, 21720, Note_on_c, 0, 77, 44
1, 21840, Note_on_c, 0, 77, 0
1, 21840, Note_on_c, 0, 85, 0
1, 21840, Note_on_c, 0, 82, 0
1, 21840, Note_on_c, 0, 80, 49
1, 21840, Note_on_c, 0, 84, 55
1, 21840, Note_on_c, 0, 76, 44
1, 21960, Note_on_c, 0, 76, 0
1, 21960, Note_on_c, 0, 84, 0
1, 21960, Note_on_c, 0, 80, 0
1, 21960, Note_on_c, 0, 80, 51
1, 21960, Note_on_c, 0, 77, 45
1, 21960, Note_on_c, 0, 72, 40
1, 22080, Note_on_c, 0, 72, 0
1, 22080, Note_on_c, 0, 77, 0
1, 22080, Note_on_c, 0, 80, 0
1, 22080, Note_on_c, 0, 79, 48
1, 22080, Note_on_c, 0, 82, 53
1, 22080, Note_on_c, 0, 73, 43
1, 22200, Note_on_c, 0, 73, 0
1, 22200, Note_on_c, 0, 82, 0
1, 22200, Note_on_c, 0, 79, 0
1, 22200, Note_on_c, 0, 79, 51
1, 22200, Note_on_c, 0, 76, 45
1, 22200, Note_on_c, 0, 70, 40
1, 22320, Tempo, 566038
1, 22320, Note_on_c, 0, 70, 0
1, 22320, Note_on_c, 0, 76, 0
1, 22320, Note_on_c, 0, 79, 0
1, 22320, Note_on_c, 0, 72, 45
1, 22320, Note_on_c, 0, 77, 51
1, 22320, Note_on_c, 0, 68, 40
1, 22440, Tempo, 585366
1, 22440, Note_on_c, 0, 68, 0
1, 22440, Note_on_c, 0, 77, 0
1, 22440, Note_on_c, 0, 72, 0
1, 22440, Note_on_c, 0, 73, 40
1, 22440, Note_on_c, 0, 79, 45
1, 22440, Note_on_c, 0, 70, 36
1, 22560, Tempo, 568720
1, 22560, Note_on_c, 0, 70, 0
1, 22560, Note_on_c, 0, 79, 0
1, 22560, Note_on_c, 0, 73, 0
1, 22560, Note_on_c, 0, 76, 49
1, 22560, Note_on_c, 0, 70, 44
1, 22560, Note_on_c, 0, 67, 39
1, 22680, Tempo, 588235
1, 22680, Note_on_c, 0, 67, 0
1, 22680, Note_on_c, 0, 70, 0
1, 22680, Note_on_c, 0, 76, 0
1, 22680, Note_on_c, 0, 72, 40
1, 22680, Note_on_c, 0, 77, 44
1, 22680, Note_on_c, 0, 68, 36
1, 22800, Tempo, 576923
1, 22800, Note_on_c, 0, 68, 0
1, 22800, Note_on_c, 0, 77, 0
1, 22800, Note_on_c, 0, 72, 0
1, 22800, Note_on_c, 0, 73, 47
1, 22800, Note_on_c, 0, 68, 42
1, 22800, Note_on_c, 0, 65, 37
1, 22920, Tempo, 685714
1, 22920, Note_on_c, 0, 65, 0
1, 22920, Note_on_c, 0, 68, 0
1, 22920, Note_on_c, 0, 73, 0
1, 22920, Note_on_c, 0, 70, 40
1, 22920, Note_on_c, 0, 75, 44
1, 22920, Note_on_c, 0, 67, 36
1, 23040, Tempo, 558140
1, 23040, Note_on_c, 0, 67, 0
1, 23040, Note_on_c, 0, 75, 0
1, 23040, Note_on_c, 0, 70, 0
1, 23040, Note_on_c, 0, 64, 45
1, 23040, Note_on_c, 0, 72, 67
1, 23040, Note_on_c, 0, 60, 45
1, 23100, Control_c, 0, 64, 127
1, 23160, Note_on_c, 0, 60, 0
1, 23280, Tempo, 545455
1, 23280, Note_on_c, 0, 72, 0
1, 23280, Note_on_c, 0, 64, 0
1, 23280, Note_on_c, 0, 71, 60
1, 23280, Note_on_c, 0, 64, 45
1, 23280, Note_on_c, 0, 79, 65
1, 23299, Control_c, 0, 64, 0
1, 23326, Control_c, 0, 64, 127
1, 23360, Note_on_c, 0, 71, 0
1, 23360, Note_on_c, 0, 72, 54
1, 23400, Note_on_c, 0, 79, 0
1, 23440, Note_on_c, 0, 72, 0
1, 23440, Note_on_c, 0, 71, 54
1, 23520, Tempo, 542986
1, 23520, Note_on_c, 0, 71, 0
1, 23520, Note_on_c, 0, 64, 0
1, 23520, Note_on_c, 0, 69, 60
1, 23520, Note_on_c, 0, 64, 33
1, 23520, Note_on_c, 0, 55, 41
1, 23534, Control_c, 0, 64, 0
1, 23559, Control_c, 0, 64, 127
1, 23640, Tempo, 560748
1, 23640, Note_on_c, 0, 55, 0
1, 23640, Note_on_c, 0, 69, 0
1, 23640, Note_on_c, 0, 71, 56
1, 23760, Tempo, 538117
1, 23760, Note_on_c, 0, 71, 0
1, 23760, Note_on_c, 0, 64, 0
1, 23760, Note_on_c, 0, 65, 33
1, 23760, Note_on_c, 0, 72, 59
1, 23760, Note_on_c, 0, 62, 45
1, 23777, Control_c, 0, 64, 0
1, 23845, Control_c, 0, 64, 127
1, 23880, Tempo, 560748
1, 23880, Note_on_c, 0, 62, 0
1, 23880, Note_on_c, 0, 72, 0
1, 23880, Note_on_c, 0, 69, 58
1, 24000, Tempo, 571429
1, 24000, Note_on_c, 0, 69, 0
1, 24000, Note_on_c, 0, 65, 0
1, 24000, Note_on_c, 0, 71, 61
1, 24000, Note_on_c, 0, 65, 41
1, 24000, Note_on_c, 0, 79, 65
1, 24019, Control_c, 0, 64, 0
1, 24090, Note_on_c, 0, 79, 0
1, 24090, Note_on_c, 0, 65, 0
1, 24090, Note_on_c, 0, 71, 0
1, 24240, Tempo, 582524
1, 24240, Note_on_c, 0, 65, 41
1, 24240, Note_on_c, 0, 67, 58
1, 24240, Note_on_c, 0, 55, 41
1, 24330, Note_on_c, 0, 55, 0
1, 24330, Note_on_c, 0, 67, 0
1, 24330, Note_on_c, 0, 65, 0
1, 24480, Tempo, 558140
1, 24480, Note_on_c, 0, 72, 67
1, 24480, Note_on_c, 0, 64, 45
1, 24480, Note_on_c, 0, 60, 45
1, 24540, Control_c, 0, 64, 127
1, 24600, Note_on_c, 0, 60, 0
1, 24720, Tempo, 545455
1, 24720, Note_on_c, 0, 64, 0
1, 24720, Note_on_c, 0, 72, 0
1, 24720, Note_on_c, 0, 64, 45
1, 24720, Note_on_c, 0, 71, 60
1, 24720, Note_on_c, 0, 79, 64
1, 24738, Control_c, 0, 64, 0
1, 24766, Control_c, 0, 64, 127
1, 24800, Note_on_c, 0, 71, 0
1, 24800, Note_on_c, 0, 72, 56
1, 24840, Note_on_c, 0, 79, 0
1, 24880, Note_on_c, 0, 72, 0
1, 24880, Note_on_c, 0, 71, 52
1, 24960, Tempo, 542986
1, 24960, Note_on_c, 0, 71, 0
1, 24960, Note_on_c, 0, 64, 0
1, 24960, Note_on_c, 0, 69, 60
1, 24960, Note_on_c, 0, 64, 30
1, 24960, Note_on_c, 0, 55, 41
1, 24974, Control_c, 0, 64, 0
1, 24999, Control_c, 0, 64, 127
1, 25080, Tempo, 560748
1, 25080, Note_on_c, 0, 55, 0
1, 25080, Note_on_c, 0, 69, 0
1, 25080, Note_on_c, 0, 71, 56
1, 25200, Tempo, 538117
1, 25200, Note_on_c, 0, 71, 0
1, 25200, Note_on_c, 0, 64, 0
1, 25200, Note_on_c, 0, 65, 32
1, 25200, Note_on_c, 0, 72, 59
1, 25200, Note_on_c, 0, 62, 45
1, 25212, Control_c, 0, 64, 0
1, 25285, Control_c, 0, 64, 127
1, 25320, Tempo, 560748
1, 25320, Note_on_c, 0, 62, 0
1, 25320, Note_on_c, 0, 72, 0
1, 25320, Note_on_c, 0, 69, 58
1, 25440, Tempo, 571429
1, 25440, Note_on_c, 0, 69, 0
1, 25440, Note_on_c, 0, 65, 0
1, 25440, Note_on_c, 0, 65, 41
1, 25440, Note_on_c, 0, 71, 61
1, 25440, Note_on_c, 0, 79, 65
1, 25453, Control_c, 0, 64, 0
1, 25530, Note_on_c, 0, 79, 0
1, 25530, Note_on_c, 0, 71, 0
1, 25530, Note_on_c, 0, 65, 0
1, 25680, Tempo, 582524
1, 25680, Note_on_c, 0, 65, 41
1, 25680, Note_on_c, 0, 67, 58
1, 25680, Note_on_c, 0, 55, 41
1, 25770, Note_on_c, 0, 55, 0
1, 25770, Note_on_c, 0, 67, 0
1, 25770, Note_on_c, 0, 65, 0
1, 25920, Tempo, 558140
1, 25920, Note_on_c, 0, 72, 67
1, 25920, Note_on_c, 0, 67, 45
1, 25920, Note_on_c, 0, 64, 45
1, 25920, Note_on_c, 0, 60, 43
1, 25980, Control_c, 0, 64, 127
1, 26010, Note_on_c, 0, 67, 0
1, 26010, Note_on_c, 0, 72, 0
1, 26160, Tempo, 545455
1, 26160, Note_on_c, 0, 64, 0
1, 26160, Note_on_c, 0, 60, 0
1, 26160, Note_on_c, 0, 67, 43
1, 26160, Note_on_c, 0, 70, 45
1, 26160, Note_on_c, 0, 74, 60
1, 26160, Note_on_c, 0, 65, 50
1, 26160, Note_on_c, 0, 60, 41
1, 26178, Control_c, 0, 64, 0
1, 26206, Control_c, 0, 64, 127
1, 26240, Note_on_c, 0, 74, 0
1, 26240, Note_on_c, 0, 76, 53
1, 26320, Note_on_c, 0, 76, 0
1, 26320, Note_on_c, 0, 74, 53
1, 26400, Tempo, 542986
1, 26400, Note_on_c, 0, 74, 0
1, 26400, Note_on_c, 0, 65, 0
1, 26400, Note_on_c, 0, 67, 0
1, 26400, Note_on_c, 0, 70, 0
1, 26400, Note_on_c, 0, 60, 0
1, 26400, Note_on_c, 0, 67, 57
1, 26400, Note_on_c, 0, 72, 57
1, 26400, Note_on_c, 0, 64, 38
1, 26400, Note_on_c, 0, 60, 36
1, 26414, Control_c, 0, 64, 0
1, 26490, Note_on_c, 0, 72, 0
1, 26490, Note_on_c, 0, 67, 0
1, 26520, Tempo, 560748
1, 26520, Note_on_c, 0, 64, 0
1, 26520, Note_on_c, 0, 60, 0
1, 26640, Tempo, 545455
1, 26640, Note_on_c, 0, 86, 66
1, 26640, Note_on_c, 0, 82, 49
1, 26640, Note_on_c, 0, 79, 47
1, 26640, Note_on_c, 0, 77, 55
1, 26640, Note_on_c, 0, 72, 45
1, 26686, Control_c, 0, 64, 127
1, 26720, Note_on_c, 0, 86, 0
1, 26720, Note_on_c, 0, 88, 58
1, 26800, Note_on_c, 0, 88, 0
1, 26800, Note_on_c, 0, 86, 58
1, 26880, Tempo, 542986
1, 26880, Note_on_c, 0, 86, 0
1, 26880, Note_on_c, 0, 77, 0
1, 26880, Note_on_c, 0, 82, 0
1, 26880, Note_on_c, 0, 79, 0
1, 26880, Note_on_c, 0, 72, 0
1, 26880, Note_on_c, 0, 79, 62
1, 26880, Note_on_c, 0, 84, 62
1, 26880, Note_on_c, 0, 76, 41
1, 26880, Note_on_c, 0, 72, 39
1, 26894, Control_c, 0, 64, 0
1, 26970, Note_on_c, 0, 84, 0
1, 26970, Note_on_c, 0, 79, 0
1, 27000, Tempo, 560748
1, 27000, Note_on_c, 0, 76, 0
1, 27000, Note_on_c, 0, 72, 0
1, 27120, Tempo, 545455
1, 27120, Note_on_c, 0, 98, 66
1, 27120, Note_on_c, 0, 91, 47
1, 27120, Note_on_c, 0, 94, 49
1, 27120, Note_on_c, 0, 84, 45
1, 27120, Note_on_c, 0, 89, 55
1, 27166, Control_c, 0, 64, 127
1, 27200, Note_on_c, 0, 98, 0
1, 27200, Note_on_c, 0, 100, 58
1, 27280, Note_on_c, 0, 100, 0
1, 27280, Note_on_c, 0, 98, 58
1, 27360, Tempo, 560748
1, 27360, Note_on_c, 0, 98, 0
1, 27360, Note_on_c, 0, 84, 0
1, 27360, Note_on_c, 0, 91, 0
1, 27360, Note_on_c, 0, 94, 0
1, 27360, Note_on_c, 0, 89, 0
1, 27360, Note_on_c, 0, 96, 65
1, 27360, Note_on_c, 0, 91, 65
1, 27360, Note_on_c, 0, 88, 43
1, 27360, Note_on_c, 0, 84, 40
1, 27374, Control_c, 0, 64, 0
1, 27450, Note_on_c, 0, 91, 0
1, 27450, Note_on_c, 0, 96, 0
1, 27480, Note_on_c, 0, 88, 0
1, 27480, Note_on_c, 0, 84, 0
1, 27600, Tempo, 545455
1, 27600, Note_on_c, 0, 79, 53
1, 27600, Note_on_c, 0, 82, 55
1, 27600, Note_on_c, 0, 86, 75
1, 27600, Note_on_c, 0, 77, 63
1, 27600, Note_on_c, 0, 72, 51
1, 27646, Control_c, 0, 64, 127
1, 27680, Note_on_c, 0, 86, 0
1, 27680, Note_on_c, 0, 88, 66
1, 27760, Note_on_c, 0, 88, 0
1, 27760, Note_on_c, 0, 86, 66
1, 27840, Tempo, 574163
1, 27840, Note_on_c, 0, 86, 0
1, 27840, Note_on_c, 0, 77, 0
1, 27840, Note_on_c, 0, 79, 0
1, 27840, Note_on_c, 0, 82, 0
1, 27840, Note_on_c, 0, 72, 0
1, 27840, Note_on_c, 0, 79, 71
1, 27840, Note_on_c, 0, 84, 71
1, 27840, Note_on_c, 0, 72, 44
1, 27840, Note_on_c, 0, 76, 47
1, 27854, Control_c, 0, 64, 0
1, 27930, Note_on_c, 0, 84, 0
1, 27930, Note_on_c, 0, 79, 0
1, 27960, Note_on_c, 0, 72, 0
1, 27960, Note_on_c, 0, 76, 0
1, 28080, Tempo, 558140
1, 28080, Note_on_c, 0, 67, 60
1, 28080, Note_on_c, 0, 74, 85
1, 28080, Note_on_c, 0, 70, 62
1, 28080, Note_on_c, 0, 60, 58
1, 28080, Note_on_c, 0, 65, 72
1, 28126, Control_c, 0, 64, 127
1, 28160, Note_on_c, 0, 74, 0
1, 28160, Note_on_c, 0, 76, 73
1, 28240, Note_on_c, 0, 76, 0
1, 28240, Note_on_c, 0, 74, 69
1, 28320, Tempo, 603015
1, 28320, Note_on_c, 0, 74, 0
1, 28320, Note_on_c, 0, 60, 0
1, 28320, Note_on_c, 0, 67, 0
1, 28320, Note_on_c, 0, 70, 0
1, 28320, Note_on_c, 0, 65, 0
1, 28320, Note_on_c, 0, 67, 81
1, 28320, Note_on_c, 0, 72, 81
1, 28320, Note_on_c, 0, 64, 53
1, 28320, Note_on_c, 0, 60, 50
1, 28334, Control_c, 0, 64, 0
1, 28410, Note_on_c, 0, 72, 0
1, 28410, Note_on_c, 0, 67, 0
1, 28440, Note_on_c, 0, 64, 0
1, 28440, Note_on_c, 0, 60, 0
1, 28560, Tempo, 621762
1, 28560, Note_on_c, 0, 76, 88
1, 28560, Note_on_c, 0, 82, 88
1, 28560, Note_on_c, 0, 84, 88
1, 28560, Note_on_c, 0, 72, 88
1, 28560, Note_on_c, 0, 48, 61
1, 28560, Note_on_c, 0, 36, 61
1, 28585, Control_c, 0, 64, 127
1, 28680, Note_on_c, 0, 36, 0
1, 28680, Note_on_c, 0, 48, 0
1, 28800, Key_signature, -1, "major"
1, 28800, Tempo, 558140
1, 28800, Note_on_c, 0, 84, 0
1, 28800, Note_on_c, 0, 76, 0
1, 28800, Note_on_c, 0, 82, 0
1, 28800, Note_on_c, 0, 72, 0
1, 28800, Note_on_c, 0, 77, 87
1, 28800, Note_on_c, 0, 69, 71
1, 28800, Note_on_c, 0, 53, 64
1, 28800, Note_on_c, 0, 65, 64
1, 28800, Note_on_c, 0, 60, 64
1, 28803, Control_c, 0, 64, 0
1, 28871, Control_c, 0, 64, 127
1, 29040, Tempo, 545455
1, 29040, Note_on_c, 0, 60, 0
1, 29040, Note_on_c, 0, 53, 0
1, 29040, Note_on_c, 0, 77, 0
1, 29040, Note_on_c, 0, 69, 0
1, 29040, Note_on_c, 0, 65, 0
1, 29040, Note_on_c, 0, 69, 71
1, 29040, Note_on_c, 0, 76, 78
1, 29040, Note_on_c, 0, 64, 57
1, 29058, Control_c, 0, 64, 0
1, 29086, Control_c, 0, 64, 127
1, 29120, Note_on_c, 0, 64, 0
1, 29120, Note_on_c, 0, 76, 0
1, 29120, Note_on_c, 0, 77, 69
1, 29120, Note_on_c, 0, 65, 50
1, 29200, Note_on_c, 0, 65, 0
1, 29200, Note_on_c, 0, 77, 0
1, 29200, Note_on_c, 0, 76, 69
1, 29200, Note_on_c, 0, 64, 50
1, 29280, Tempo, 552995
1, 29280, Note_on_c, 0, 64, 0
1, 29280, Note_on_c, 0, 76, 0
1, 29280, Note_on_c, 0, 69, 0
1, 29280, Note_on_c, 0, 74, 74
1, 29280, Note_on_c, 0, 69, 54
1, 29280, Note_on_c, 0, 62, 57
1, 29294, Control_c, 0, 64, 0
1, 29319, Control_c, 0, 64, 127
1, 29400, Tempo, 555556
1, 29400, Note_on_c, 0, 62, 0
1, 29400, Note_on_c, 0, 74, 0
1, 29400, Note_on_c, 0, 76, 71
1, 29400, Note_on_c, 0, 64, 53
1, 29520, Tempo, 538117
1, 29520, Note_on_c, 0, 64, 0
1, 29520, Note_on_c, 0, 76, 0
1, 29520, Note_on_c, 0, 69, 0
1, 29520, Note_on_c, 0, 69, 55
1, 29520, Note_on_c, 0, 77, 76
1, 29520, Note_on_c, 0, 65, 61
1, 29532, Control_c, 0, 64, 0
1, 29605, Control_c, 0, 64, 127
1, 29640, Tempo, 582524
1, 29640, Note_on_c, 0, 65, 0
1, 29640, Note_on_c, 0, 77, 0
1, 29640, Note_on_c, 0, 74, 72
1, 29640, Note_on_c, 0, 62, 56
1, 29760, Tempo, 579710
1, 29760, Note_on_c, 0, 62, 0
1, 29760, Note_on_c, 0, 74, 0
1, 29760, Note_on_c, 0, 69, 0
1, 29760, Note_on_c, 0, 69, 67
1, 29760, Note_on_c, 0, 76, 79
1, 29760, Note_on_c, 0, 64, 59
1, 29774, Control_c, 0, 64, 0
1, 29850, Note_on_c, 0, 64, 0
1, 29850, Note_on_c, 0, 76, 0
1, 29850, Note_on_c, 0, 69, 0
1, 30000, Tempo, 582524
1, 30000, Note_on_c, 0, 69, 60
1, 30000, Note_on_c, 0, 72, 68
1, 30000, Note_on_c, 0, 60, 50
1, 30090, Note_on_c, 0, 60, 0
1, 30090, Note_on_c, 0, 72, 0
1, 30090, Note_on_c, 0, 69, 0
1, 30240, Tempo, 558140
1, 30240, Note_on_c, 0, 77, 83
1, 30240, Note_on_c, 0, 69, 68
1, 30240, Note_on_c, 0, 60, 61
1, 30240, Note_on_c, 0, 53, 61
1, 30240, Note_on_c, 0, 65, 61
1, 30283, Control_c, 0, 64, 127
1, 30480, Tempo, 545455
1, 30480, Note_on_c, 0, 65, 0
1, 30480, Note_on_c, 0, 60, 0
1, 30480, Note_on_c, 0, 77, 0
1, 30480, Note_on_c, 0, 69, 0
1, 30480, Note_on_c, 0, 53, 0
1, 30480, Note_on_c, 0, 69, 68
1, 30480, Note_on_c, 0, 76, 75
1, 30480, Note_on_c, 0, 64, 55
1, 30498, Control_c, 0, 64, 0
1, 30526, Control_c, 0, 64, 127
1, 30560, Note_on_c, 0, 64, 0
1, 30560, Note_on_c, 0, 76, 0
1, 30560, Note_on_c, 0, 77, 69
1, 30560, Note_on_c, 0, 65, 50
1, 30640, Note_on_c, 0, 65, 0
1, 30640, Note_on_c, 0, 77, 0
1, 30640, Note_on_c, 0, 76, 69
1, 30640, Note_on_c, 0, 64, 50
1, 30720, Tempo, 555556
1, 30720, Note_on_c, 0, 64, 0
1, 30720, Note_on_c, 0, 76, 0
1, 30720, Note_on_c, 0, 69, 0
1, 30720, Note_on_c, 0, 69, 54
1, 30720, Note_on_c, 0, 74, 75
1, 30720, Note_on_c, 0, 62, 55
1, 30734, Control_c, 0, 64, 0
1, 30759, Control_c, 0, 64, 127
1, 30840, Tempo, 558140
1, 30840, Note_on_c, 0, 62, 0
1, 30840, Note_on_c, 0, 74, 0
1, 30840, Note_on_c, 0, 76, 69
1, 30840, Note_on_c, 0, 64, 50
1, 30960, Tempo, 538117
1, 30960, Note_on_c, 0, 64, 0
1, 30960, Note_on_c, 0, 76, 0
1, 30960, Note_on_c, 0, 69, 0
1, 30960, Note_on_c, 0, 77, 77
1, 30960, Note_on_c, 0, 69, 51
1, 30960, Note_on_c, 0, 65, 56
1, 30972, Control_c, 0, 64, 0
1, 31045, Control_c, 0, 64, 127
1, 31080, Tempo, 585366
1, 31080, Note_on_c, 0, 65, 0
1, 31080, Note_on_c, 0, 77, 0
1, 31080, Note_on_c, 0, 74, 70
1, 31080, Note_on_c, 0, 62, 54
1, 31200, Tempo, 579710
1, 31200, Note_on_c, 0, 62, 0
1, 31200, Note_on_c, 0, 74, 0
1, 31200, Note_on_c, 0, 69, 0
1, 31200, Note_on_c, 0, 69, 64
1, 31200, Note_on_c, 0, 76, 76
1, 31200, Note_on_c, 0, 64, 57
1, 31216, Control_c, 0, 64, 0
1, 31290, Note_on_c, 0, 64, 0
1, 31290, Note_on_c, 0, 76, 0
1, 31290, Note_on_c, 0, 69, 0
1, 31440, Tempo, 582524
1, 31440, Note_on_c, 0, 72, 64
1, 31440, Note_on_c, 0, 69, 57
1, 31440, Note_on_c, 0, 60, 49
1, 31530, Note_on_c, 0, 60, 0
1, 31530, Note_on_c, 0, 69, 0
1, 31530, Note_on_c, 0, 72, 0
1, 31680, Tempo, 552995
1, 31680, Note_on_c, 0, 69, 53
1, 31680, Note_on_c, 0, 74, 78
1, 31680, Note_on_c, 0, 62, 54
1, 31716, Control_c, 0, 64, 127
1, 31800, Note_on_c, 0, 62, 0
1, 31800, Note_on_c, 0, 74, 0
1, 31800, Note_on_c, 0, 76, 72
1, 31800, Note_on_c, 0, 64, 48
1, 31920, Tempo, 576923
1, 31920, Note_on_c, 0, 64, 0
1, 31920, Note_on_c, 0, 76, 0
1, 31920, Note_on_c, 0, 69, 0
1, 31920, Note_on_c, 0, 72, 76
1, 31920, Note_on_c, 0, 69, 43
1, 31920, Note_on_c, 0, 60, 45
1, 31930, Control_c, 0, 64, 0
1, 32130, Note_on_c, 0, 60, 0
1, 32130, Note_on_c, 0, 69, 0
1, 32130, Note_on_c, 0, 72, 0
1, 32160, Tempo, 545455
1, 32160, Note_on_c, 0, 69, 51
1, 32160, Note_on_c, 0, 74, 72
1, 32160, Note_on_c, 0, 62, 48
1, 32231, Control_c, 0, 64, 127
1, 32280, Tempo, 558140
1, 32280, Note_on_c, 0, 62, 0
1, 32280, Note_on_c, 0, 74, 0
1, 32280, Note_on_c, 0, 76, 73
1, 32280, Note_on_c, 0, 64, 51
1, 32400, Tempo, 558140
1, 32400, Note_on_c, 0, 64, 0
1, 32400, Note_on_c, 0, 76, 0
1, 32400, Note_on_c, 0, 69, 0
1, 32400, Note_on_c, 0, 77, 77
1, 32400, Note_on_c, 0, 69, 53
1, 32400, Note_on_c, 0, 65, 55
1, 32412, Control_c, 0, 64, 0
1, 32456, Control_c, 0, 64, 127
1, 32610, Note_on_c, 0, 65, 0
1, 32610, Note_on_c, 0, 69, 0
1, 32610, Note_on_c, 0, 77, 0
1, 32640, Tempo, 552995
1, 32640, Note_on_c, 0, 69, 53
1, 32640, Note_on_c, 0, 74, 78
1, 32640, Note_on_c, 0, 62, 54
1, 32654, Control_c, 0, 64, 0
1, 32725, Control_c, 0, 64, 127
1, 32760, Note_on_c, 0, 62, 0
1, 32760, Note_on_c, 0, 74, 0
1, 32760, Note_on_c, 0, 76, 72
1, 32760, Note_on_c, 0, 64, 48
1, 32880, Tempo, 579710
1, 32880, Note_on_c, 0, 64, 0
1, 32880, Note_on_c, 0, 76, 0
1, 32880, Note_on_c, 0, 69, 0
1, 32880, Note_on_c, 0, 72, 73
1, 32880, Note_on_c, 0, 69, 43
1, 32880, Note_on_c, 0, 60, 42
1, 32899, Control_c, 0, 64, 0
1, 32979, Control_c, 0, 64, 127
1, 33090, Note_on_c, 0, 60, 0
1, 33090, Note_on_c, 0, 69, 0
1, 33090, Note_on_c, 0, 72, 0
1, 33120, Tempo, 542986
1, 33120, Note_on_c, 0, 69, 45
1, 33120, Note_on_c, 0, 74, 79
1, 33120, Note_on_c, 0, 62, 51
1, 33129, Control_c, 0, 64, 0
1, 33176, Control_c, 0, 64, 127
1, 33240, Tempo, 552995
1, 33240, Note_on_c, 0, 62, 0
1, 33240, Note_on_c, 0, 74, 0
1, 33240, Note_on_c, 0, 76, 71
1, 33240, Note_on_c, 0, 64, 48
1, 33360, Tempo, 563380
1, 33360, Note_on_c, 0, 64, 0
1, 33360, Note_on_c, 0, 76, 0
1, 33360, Note_on_c, 0, 69, 0
1, 33360, Note_on_c, 0, 72, 72
1, 33360, Note_on_c, 0, 69, 40
1, 33360, Note_on_c, 0, 60, 39
1, 33371, Control_c, 0, 64, 0
1, 33473, Control_c, 0, 64, 127
1, 33480, Tempo, 585366
1, 33570, Note_on_c, 0, 60, 0
1, 33570, Note_on_c, 0, 69, 0
1, 33570, Note_on_c, 0, 72, 0
1, 33600, Tempo, 558140
1, 33600, Note_on_c, 0, 74, 71
1, 33600, Note_on_c, 0, 69, 50
1, 33600, Note_on_c, 0, 62, 43
1, 33621, Control_c, 0, 64, 0
1, 33671, Control_c, 0, 64, 127
1, 33720, Tempo, 558140
1, 33720, Note_on_c, 0, 62, 0
1, 33720, Note_on_c, 0, 74, 0
1, 33720, Note_on_c, 0, 76, 73
1, 33720, Note_on_c, 0, 64, 44
1, 33840, Tempo, 555556
1, 33840, Note_on_c, 0, 64, 0
1, 33840, Note_on_c, 0, 76, 0
1, 33840, Note_on_c, 0, 69, 0
1, 33840, Note_on_c, 0, 69, 53
1, 33840, Note_on_c, 0, 79, 78
1, 33840, Note_on_c, 0, 67, 48
1, 33855, Control_c, 0, 64, 0
1, 33904, Control_c, 0, 64, 127
1, 33960, Tempo, 576923
1, 33960, Note_on_c, 0, 67, 0
1, 33960, Note_on_c, 0, 79, 0
1, 33960, Note_on_c, 0, 77, 71
1, 33960, Note_on_c, 0, 65, 44
1, 34080, Tempo, 566038
1, 34080, Note_on_c, 0, 65, 0
1, 34080, Note_on_c, 0, 77, 0
1, 34080, Note_on_c, 0, 74, 77
1, 34080, Note_on_c, 0, 62, 49
1, 34098, Control_c, 0, 64, 0
1, 34172, Control_c, 0, 64, 127
1, 34200, Tempo, 582524
1, 34200, Note_on_c, 0, 62, 0
1, 34200, Note_on_c, 0, 74, 0
1, 34200, Note_on_c, 0, 76, 72
1, 34200, Note_on_c, 0, 64, 46
1, 34320, Note_on_c, 0, 64, 0
1, 34320, Note_on_c, 0, 76, 0
1, 34320, Note_on_c, 0, 69, 0
1, 34320, Note_on_c, 0, 72, 68
1, 34320, Note_on_c, 0, 60, 46
1, 34341, Control_c, 0, 64, 0
1, 34426, Control_c, 0, 64, 127
1, 34560, Key_signature, -4, "major"
1, 34560, Tempo, 558140
1, 34560, Note_on_c, 0, 60, 0
1, 34560, Note_on_c, 0, 72, 0
1, 34560, Note_on_c, 0, 80, 83
1, 34560, Note_on_c, 0, 72, 68
1, 34560, Note_on_c, 0, 56, 61
1, 34560, Note_on_c, 0, 68, 61
1, 34560, Note_on_c, 0, 63, 61
1, 34570, Control_c, 0, 64, 0
1, 34624, Control_c, 0, 64, 127
1, 34800, Tempo, 545455
1, 34800, Note_on_c, 0, 63, 0
1, 34800, Note_on_c, 0, 56, 0
1, 34800, Note_on_c, 0, 80, 0
1, 34800, Note_on_c, 0, 72, 0
1, 34800, Note_on_c, 0, 68, 0
1, 34800, Note_on_c, 0, 72, 68
1, 34800, Note_on_c, 0, 79, 75
1, 34800, Note_on_c, 0, 67, 55
1, 34818, Control_c, 0, 64, 0
1, 34846, Control_c, 0, 64, 127
1, 34880, Note_on_c, 0, 67, 0
1, 34880, Note_on_c, 0, 79, 0
1, 34880, Note_on_c, 0, 80, 67
1, 34880, Note_on_c, 0, 68, 50
1, 34960, Note_on_c, 0, 68, 0
1, 34960, Note_on_c, 0, 80, 0
1, 34960, Note_on_c, 0, 79, 67
1, 34960, Note_on_c, 0, 67, 50
1, 35040, Tempo, 552995
1, 35040, Note_on_c, 0, 67, 0
1, 35040, Note_on_c, 0, 79, 0
1, 35040, Note_on_c, 0, 72, 0
1, 35040, Note_on_c, 0, 77, 75
1, 35040, Note_on_c, 0, 72, 57
1, 35040, Note_on_c, 0, 65, 55
1, 35054, Control_c, 0, 64, 0
1, 35079, Control_c, 0, 64, 127
1, 35160, Tempo, 560748
1, 35160, Note_on_c, 0, 65, 0
1, 35160, Note_on_c, 0, 77, 0
1, 35160, Note_on_c, 0, 79, 69
1, 35160, Note_on_c, 0, 67, 50
1, 35280, Tempo, 538117
1, 35280, Note_on_c, 0, 67, 0
1, 35280, Note_on_c, 0, 79, 0
1, 35280, Note_on_c, 0, 72, 0
1, 35280, Note_on_c, 0, 72, 54
1, 35280, Note_on_c, 0, 80, 79
1, 35280, Note_on_c, 0, 68, 59
1, 35292, Control_c, 0, 64, 0
1, 35365, Control_c, 0, 64, 127
1, 35400, Tempo, 558140
1, 35400, Note_on_c, 0, 68, 0
1, 35400, Note_on_c, 0, 80, 0
1, 35400, Note_on_c, 0, 77, 72
1, 35400, Note_on_c, 0, 65, 54
1, 35520, Tempo, 579710
1, 35520, Note_on_c, 0, 65, 0
1, 35520, Note_on_c, 0, 77, 0
1, 35520, Note_on_c, 0, 72, 0
1, 35520, Note_on_c, 0, 73, 64
1, 35520, Note_on_c, 0, 79, 76
1, 35520, Note_on_c, 0, 67, 57
1, 35538, Control_c, 0, 64, 0
1, 35610, Note_on_c, 0, 67, 0
1, 35610, Note_on_c, 0, 79, 0
1, 35610, Note_on_c, 0, 73, 0
1, 35760, Tempo, 582524
1, 35760, Note_on_c, 0, 73, 64
1, 35760, Note_on_c, 0, 75, 72
1, 35760, Note_on_c, 0, 63, 54
1, 35850, Note_on_c, 0, 63, 0
1, 35850, Note_on_c, 0, 75, 0
1, 35850, Note_on_c, 0, 73, 0
1, 36000, Tempo, 558140
1, 36000, Note_on_c, 0, 80, 83
1, 36000, Note_on_c, 0, 72, 68
1, 36000, Note_on_c, 0, 63, 61
1, 36000, Note_on_c, 0, 56, 61
1, 36000, Note_on_c, 0, 68, 61
1, 36057, Control_c, 0, 64, 127
1, 36240, Tempo, 545455
1, 36240, Note_on_c, 0, 68, 0
1, 36240, Note_on_c, 0, 63, 0
1, 36240, Note_on_c, 0, 80, 0
1, 36240, Note_on_c, 0, 72, 0
1, 36240, Note_on_c, 0, 56, 0
1, 36240, Note_on_c, 0, 72, 68
1, 36240, Note_on_c, 0, 79, 75
1, 36240, Note_on_c, 0, 67, 55
1, 36258, Control_c, 0, 64, 0
1, 36286, Control_c, 0, 64, 127
1, 36320, Note_on_c, 0, 67, 0
1, 36320, Note_on_c, 0, 79, 0
1, 36320, Note_on_c, 0, 80, 67
1, 36320, Note_on_c, 0, 68, 50
1, 36400, Note_on_c, 0, 68, 0
1, 36400, Note_on_c, 0, 80, 0
1, 36400, Note_on_c, 0, 79, 69
1, 36400, Note_on_c, 0, 67, 50
1, 36480, Tempo, 558140
1, 36480, Note_on_c, 0, 67, 0
1, 36480, Note_on_c, 0, 79, 0
1, 36480, Note_on_c, 0, 72, 0
1, 36480, Note_on_c, 0, 72, 58
1, 36480, Note_on_c, 0, 77, 75
1, 36480, Note_on_c, 0, 65, 55
1, 36494, Control_c, 0, 64, 0
1, 36551, Control_c, 0, 64, 127
1, 36600, Tempo, 571429
1, 36600, Note_on_c, 0, 65, 0
1, 36600, Note_on_c, 0, 77, 0
1, 36600, Note_on_c, 0, 79, 69
1, 36600, Note_on_c, 0, 67, 50
1, 36720, Tempo, 538117
1, 36720, Note_on_c, 0, 67, 0
1, 36720, Note_on_c, 0, 79, 0
1, 36720, Note_on_c, 0, 72, 0
1, 36720, Note_on_c, 0, 80, 79
1, 36720, Note_on_c, 0, 72, 53
1, 36720, Note_on_c, 0, 68, 59
1, 36732, Control_c, 0, 64, 0
1, 36805, Control_c, 0, 64, 127
1, 36840, Tempo, 555556
1, 36840, Note_on_c, 0, 68, 0
1, 36840, Note_on_c, 0, 80, 0
1, 36840, Note_on_c, 0, 77, 72
1, 36840, Note_on_c, 0, 65, 54
1, 36960, Tempo, 579710
1, 36960, Note_on_c, 0, 65, 0
1, 36960, Note_on_c, 0, 77, 0
1, 36960, Note_on_c, 0, 72, 0
1, 36960, Note_on_c, 0, 73, 64
1, 36960, Note_on_c, 0, 79, 76
1, 36960, Note_on_c, 0, 67, 57
1, 36974, Control_c, 0, 64, 0
1, 37050, Note_on_c, 0, 67, 0
1, 37050, Note_on_c, 0, 79, 0
1, 37050, Note_on_c, 0, 73, 0
1, 37200, Tempo, 582524
1, 37200, Note_on_c, 0, 75, 72
1, 37200, Note_on_c, 0, 73, 64
1, 37200, Note_on_c, 0, 63, 54
1, 37290, Note_on_c, 0, 63, 0
1, 37290, Note_on_c, 0, 73, 0
1, 37290, Note_on_c, 0, 75, 0
1, 37440, Tempo, 552995
1, 37440, Note_on_c, 0, 72, 53
1, 37440, Note_on_c, 0, 77, 78
1, 37440, Note_on_c, 0, 56, 44
1, 37440, Note_on_c, 0, 65, 54
1, 37468, Control_c, 0, 64, 127
1, 37560, Note_on_c, 0, 65, 0
1, 37560, Note_on_c, 0, 77, 0
1, 37560, Note_on_c, 0, 79, 72
1, 37560, Note_on_c, 0, 67, 48
1, 37680, Tempo, 576923
1, 37680, Note_on_c, 0, 67, 0
1, 37680, Note_on_c, 0, 72, 0
1, 37680, Note_on_c, 0, 56, 0
1, 37680, Note_on_c, 0, 79, 0
1, 37680, Note_on_c, 0, 75, 76
1, 37680, Note_on_c, 0, 72, 43
1, 37680, Note_on_c, 0, 63, 45
1, 37692, Control_c, 0, 64, 0
1, 37772, Control_c, 0, 64, 127
1, 37890, Note_on_c, 0, 63, 0
1, 37890, Note_on_c, 0, 72, 0
1, 37890, Note_on_c, 0, 75, 0
1, 37920, Tempo, 545455
1, 37920, Note_on_c, 0, 72, 51
1, 37920, Note_on_c, 0, 77, 72
1, 37920, Note_on_c, 0, 65, 48
1, 37935, Control_c, 0, 64, 0
1, 38026, Control_c, 0, 64, 127
1, 38040, Tempo, 558140
1, 38040, Note_on_c, 0, 65, 0
1, 38040, Note_on_c, 0, 77, 0
1, 38040, Note_on_c, 0, 79, 73
1, 38040, Note_on_c, 0, 67, 51
1, 38160, Tempo, 558140
1, 38160, Note_on_c, 0, 67, 0
1, 38160, Note_on_c, 0, 79, 0
1, 38160, Note_on_c, 0, 72, 0
1, 38160, Note_on_c, 0, 80, 77
1, 38160, Note_on_c, 0, 72, 53
1, 38160, Note_on_c, 0, 68, 55
1, 38171, Control_c, 0, 64, 0
1, 38238, Control_c, 0, 64, 127
1, 38370, Note_on_c, 0, 68, 0
1, 38370, Note_on_c, 0, 72, 0
1, 38370, Note_on_c, 0, 80, 0
1, 38400, Tempo, 552995
1, 38400, Note_on_c, 0, 72, 53
1, 38400, Note_on_c, 0, 77, 78
1, 38400, Note_on_c, 0, 65, 54
1, 38414, Control_c, 0, 64, 0
1, 38499, Control_c, 0, 64, 127
1, 38520, Note_on_c, 0, 65, 0
1, 38520, Note_on_c, 0, 77, 0
1, 38520, Note_on_c, 0, 79, 72
1, 38520, Note_on_c, 0, 67, 48
1, 38640, Tempo, 579710
1, 38640, Note_on_c, 0, 67, 0
1, 38640, Note_on_c, 0, 79, 0
1, 38640, Note_on_c, 0, 72, 0
1, 38640, Note_on_c, 0, 75, 72
1, 38640, Note_on_c, 0, 72, 40
1, 38640, Note_on_c, 0, 63, 42
1, 38656, Control_c, 0, 64, 0
1, 38850, Note_on_c, 0, 63, 0
1, 38850, Note_on_c, 0, 72, 0
1, 38850, Note_on_c, 0, 75, 0
1, 38880, Tempo, 542986
1, 38880, Note_on_c, 0, 72, 45
1, 38880, Note_on_c, 0, 77, 79
1, 38880, Note_on_c, 0, 56, 41
1, 38880, Note_on_c, 0, 65, 51
1, 38930, Control_c, 0, 64, 127
1, 39000, Tempo, 552995
1, 39000, Note_on_c, 0, 65, 0
1, 39000, Note_on_c, 0, 77, 0
1, 39000, Note_on_c, 0, 79, 71
1, 39000, Note_on_c, 0, 67, 48
1, 39120, Tempo, 563380
1, 39120, Note_on_c, 0, 67, 0
1, 39120, Note_on_c, 0, 72, 0
1, 39120, Note_on_c, 0, 56, 0
1, 39120, Note_on_c, 0, 79, 0
1, 39120, Note_on_c, 0, 75, 71
1, 39120, Note_on_c, 0, 72, 37
1, 39120, Note_on_c, 0, 63, 40
1, 39127, Control_c, 0, 64, 0
1, 39233, Control_c, 0, 64, 127
1, 39240, Tempo, 585366
1, 39330, Note_on_c, 0, 63, 0
1, 39330, Note_on_c, 0, 72, 0
1, 39330, Note_on_c, 0, 75, 0
1, 39360, Tempo, 558140
1, 39360, Note_on_c, 0, 72, 50
1, 39360, Note_on_c, 0, 77, 71
1, 39360, Note_on_c, 0, 65, 43
1, 39374, Control_c, 0, 64, 0
1, 39431, Control_c, 0, 64, 127
1, 39480, Tempo, 558140
1, 39480, Note_on_c, 0, 65, 0
1, 39480, Note_on_c, 0, 77, 0
1, 39480, Note_on_c, 0, 79, 73
1, 39480, Note_on_c, 0, 67, 44
1, 39600, Tempo, 555556
1, 39600, Note_on_c, 0, 67, 0
1, 39600, Note_on_c, 0, 79, 0
1, 39600, Note_on_c, 0, 72, 0
1, 39600, Note_on_c, 0, 82, 78
1, 39600, Note_on_c, 0, 72, 53
1, 39600, Note_on_c, 0, 70, 48
1, 39607, Control_c, 0, 64, 0
1, 39664, Control_c, 0, 64, 127
1, 39720, Tempo, 576923
1, 39720, Note_on_c, 0, 70, 0
1, 39720, Note_on_c, 0, 82, 0
1, 39720, Note_on_c, 0, 80, 71
1, 39720, Note_on_c, 0, 68, 44
1, 39840, Tempo, 566038
1, 39840, Note_on_c, 0, 68, 0
1, 39840, Note_on_c, 0, 80, 0
1, 39840, Note_on_c, 0, 72, 0
1, 39840, Note_on_c, 0, 72, 49
1, 39840, Note_on_c, 0, 77, 77
1, 39840, Note_on_c, 0, 65, 49
1, 39851, Control_c, 0, 64, 0
1, 39932, Control_c, 0, 64, 127
1, 39960, Tempo, 582524
1, 39960, Note_on_c, 0, 65, 0
1, 39960, Note_on_c, 0, 77, 0
1, 39960, Note_on_c, 0, 79, 72
1, 39960, Note_on_c, 0, 67, 46
1, 40080, Note_on_c, 0, 67, 0
1, 40080, Note_on_c, 0, 79, 0
1, 40080, Note_on_c, 0, 72, 0
1, 40080, Note_on_c, 0, 75, 68
1, 40080, Note_on_c, 0, 72, 44
1, 40080, Note_on_c, 0, 63, 46
1, 40097, Control_c, 0, 64, 0
1, 40179, Control_c, 0, 64, 127
1, 40320, Tempo, 609137
1, 40320, Note_on_c, 0, 63, 0
1, 40320, Note_on_c, 0, 72, 0
1, 40320, Note_on_c, 0, 75, 0
1, 40320, Control_c, 0, 64, 0
1, 40320, Note_on_c, 0, 36, 92
1, 40440, Note_on_c, 0, 36, 0
1, 40461, Control_c, 0, 64, 127
1, 40560, Tempo, 500000
1, 40560, Note_on_c, 0, 58, 53
1, 40560, Note_on_c, 0, 61, 60
1, 40560, Note_on_c, 0, 65, 68
1, 40680, Tempo, 547945
1, 40680, Note_on_c, 0, 65, 0
1, 40680, Note_on_c, 0, 61, 0
1, 40680, Note_on_c, 0, 58, 0
1, 40680, Note_on_c, 0, 53, 58
1, 40800, Tempo, 579710
1, 40800, Note_on_c, 0, 53, 0
1, 40800, Note_on_c, 0, 60, 53
1, 40920, Note_on_c, 0, 60, 0
1, 41040, Tempo, 502092
1, 41040, Note_on_c, 0, 70, 60
1, 41040, Note_on_c, 0, 73, 60
1, 41040, Note_on_c, 0, 77, 68
1, 41160, Tempo, 545455
1, 41160, Note_on_c, 0, 77, 0
1, 41160, Note_on_c, 0, 73, 0
1, 41160, Note_on_c, 0, 70, 0
1, 41160, Note_on_c, 0, 65, 57
1, 41280, Tempo, 558140
1, 41280, Note_on_c, 0, 65, 0
1, 41280, Note_on_c, 0, 72, 54
1, 41400, Note_on_c, 0, 72, 0
1, 41520, Tempo, 502092
1, 41520, Note_on_c, 0, 79, 60
1, 41520, Note_on_c, 0, 82, 60
1, 41520, Note_on_c, 0, 85, 68
1, 41640, Tempo, 542986
1, 41640, Note_on_c, 0, 85, 0
1, 41640, Note_on_c, 0, 82, 0
1, 41640, Note_on_c, 0, 79, 0
1, 41640, Note_on_c, 0, 77, 61
1, 41760, Tempo, 591133
1, 41760, Note_on_c, 0, 77, 0
1, 41760, Note_on_c, 0, 84, 55
1, 41820, Control_c, 0, 64, 0
1, 41880, Note_on_c, 0, 84, 0
1, 42000, Tempo, 547945
1, 42000, Note_on_c, 0, 82, 75
1, 42000, Note_on_c, 0, 77, 67
1, 42000, Note_on_c, 0, 67, 51
1, 42000, Note_on_c, 0, 73, 56
1, 42060, Note_on_c, 0, 73, 0
1, 42060, Note_on_c, 0, 82, 0
1, 42060, Note_on_c, 0, 77, 0
1, 42060, Note_on_c, 0, 67, 0
1, 42120, Note_on_c, 0, 77, 67
1, 42120, Note_on_c, 0, 82, 75
1, 42120, Note_on_c, 0, 67, 51
1, 42120, Note_on_c, 0, 73, 56
1, 42180, Note_on_c, 0, 73, 0
1, 42180, Note_on_c, 0, 77, 0
1, 42180, Note_on_c, 0, 82, 0
1, 42180, Note_on_c, 0, 67, 0
1, 42240, Tempo, 563380
1, 42240, Note_on_c, 0, 89, 80
1, 42240, Note_on_c, 0, 82, 72
1, 42240, Note_on_c, 0, 79, 63
1, 42360, Note_on_c, 0, 79, 0
1, 42360, Note_on_c, 0, 82, 0
1, 42360, Note_on_c, 0, 89, 0
1, 42480, Tempo, 576923
1, 42480, Note_on_c, 0, 77, 69
1, 42480, Note_on_c, 0, 82, 77
1, 42480, Note_on_c, 0, 67, 45
1, 42480, Note_on_c, 0, 73, 52
1, 42600, Note_on_c, 0, 73, 0
1, 42600, Note_on_c, 0, 77, 0
1, 42600, Note_on_c, 0, 82, 0
1, 42600, Note_on_c, 0, 67, 0
1, 42720, Note_on_c, 0, 89, 81
1, 42720, Note_on_c, 0, 82, 72
1, 42720, Note_on_c, 0, 79, 54
1, 42840, Note_on_c, 0, 79, 0
1, 42840, Note_on_c, 0, 82, 0
1, 42840, Note_on_c, 0, 89, 0
1, 42960, Note_on_c, 0, 82, 78
1, 42960, Note_on_c, 0, 77, 70
1, 42960, Note_on_c, 0, 73, 52
1, 42960, Note_on_c, 0, 67, 45
1, 43080, Note_on_c, 0, 67, 0
1, 43080, Note_on_c, 0, 82, 0
1, 43080, Note_on_c, 0, 77, 0
1, 43080, Note_on_c, 0, 73, 0
1, 43200, Tempo, 615385
1, 43200, Note_on_c, 0, 36, 92
1, 43249, Control_c, 0, 64, 127
1, 43320, Note_on_c, 0, 36, 0
1, 43440, Tempo, 500000
1, 43440, Note_on_c, 0, 61, 60
1, 43440, Note_on_c, 0, 58, 60
1, 43440, Note_on_c, 0, 65, 68
1, 43560, Tempo, 545455
1, 43560, Note_on_c, 0, 65, 0
1, 43560, Note_on_c, 0, 58, 0
1, 43560, Note_on_c, 0, 61, 0
1, 43560, Note_on_c, 0, 53, 56
1, 43680, Tempo, 558140
1, 43680, Note_on_c, 0, 53, 0
1, 43680, Note_on_c, 0, 60, 54
1, 43800, Note_on_c, 0, 60, 0
1, 43920, Tempo, 500000
1, 43920, Note_on_c, 0, 77, 68
1, 43920, Note_on_c, 0, 70, 60
1, 43920, Note_on_c, 0, 73, 60
1, 44040, Tempo, 545455
1, 44040, Note_on_c, 0, 73, 0
1, 44040, Note_on_c, 0, 70, 0
1, 44040, Note_on_c, 0, 77, 0
1, 44040, Note_on_c, 0, 65, 57
1, 44160, Tempo, 558140
1, 44160, Note_on_c, 0, 65, 0
1, 44160, Note_on_c, 0, 72, 54
1, 44280, Note_on_c, 0, 72, 0
1, 44400, Tempo, 497925
1, 44400, Note_on_c, 0, 85, 68
1, 44400, Note_on_c, 0, 79, 60
1, 44400, Note_on_c, 0, 82, 60
1, 44520, Tempo, 545455
1, 44520, Note_on_c, 0, 82, 0
1, 44520, Note_on_c, 0, 79, 0
1, 44520, Note_on_c, 0, 85, 0
1, 44520, Note_on_c, 0, 77, 57
1, 44640, Tempo, 591133
1, 44640, Note_on_c, 0, 77, 0
1, 44640, Note_on_c, 0, 84, 54
1, 44682, Control_c, 0, 64, 0
1, 44760, Note_on_c, 0, 84, 0
1, 44880, Tempo, 547945
1, 44880, Note_on_c, 0, 82, 75
1, 44880, Note_on_c, 0, 77, 67
1, 44880, Note_on_c, 0, 73, 56
1, 44880, Note_on_c, 0, 67, 51
1, 44940, Note_on_c, 0, 67, 0
1, 44940, Note_on_c, 0, 82, 0
1, 44940, Note_on_c, 0, 77, 0
1, 44940, Note_on_c, 0, 73, 0
1, 45000, Note_on_c, 0, 77, 67
1, 45000, Note_on_c, 0, 82, 75
1, 45000, Note_on_c, 0, 73, 56
1, 45000, Note_on_c, 0, 67, 51
1, 45060, Note_on_c, 0, 67, 0
1, 45060, Note_on_c, 0, 77, 0
1, 45060, Note_on_c, 0, 82, 0
1, 45060, Note_on_c, 0, 73, 0
1, 45120, Tempo, 563380
1, 45120, Note_on_c, 0, 89, 80
1, 45120, Note_on_c, 0, 82, 72
1, 45120, Note_on_c, 0, 79, 63
1, 45240, Note_on_c, 0, 79, 0
1, 45240, Note_on_c, 0, 82, 0
1, 45240, Note_on_c, 0, 89, 0
1, 45360, Tempo, 576923
1, 45360, Note_on_c, 0, 82, 77
1, 45360, Note_on_c, 0, 77, 69
1, 45360, Note_on_c, 0, 67, 45
1, 45360, Note_on_c, 0, 73, 52
1, 45480, Note_on_c, 0, 73, 0
1, 45480, Note_on_c, 0, 82, 0
1, 45480, Note_on_c, 0, 77, 0
1, 45480, Note_on_c, 0, 67, 0
1, 45600, Note_on_c, 0, 82, 72
1, 45600, Note_on_c, 0, 89, 81
1, 45600, Note_on_c, 0, 79, 54
1, 45720, Note_on_c, 0, 79, 0
1, 45720, Note_on_c, 0, 89, 0
1, 45720, Note_on_c, 0, 82, 0
1, 45840, Note_on_c, 0, 82, 78
1, 45840, Note_on_c, 0, 77, 70
1, 45840, Note_on_c, 0, 67, 45
1, 45840, Note_on_c, 0, 73, 52
1, 45960, Note_on_c, 0, 73, 0
1, 45960, Note_on_c, 0, 82, 0
1, 45960, Note_on_c, 0, 77, 0
1, 45960, Note_on_c, 0, 67, 0
1, 46080, Tempo, 558140
1, 46080, Note_on_c, 0, 88, 75
1, 46080, Note_on_c, 0, 84, 63
1, 46080, Note_on_c, 0, 72, 44
1, 46080, Note_on_c, 0, 79, 58
1, 46144, Control_c, 0, 64, 127
1, 46320, Tempo, 545455
1, 46320, Note_on_c, 0, 79, 0
1, 46320, Note_on_c, 0, 88, 0
1, 46320, Note_on_c, 0, 86, 70
1, 46320, Note_on_c, 0, 77, 52
1, 46338, Control_c, 0, 64, 0
1, 46366, Control_c, 0, 64, 127
1, 46400, Note_on_c, 0, 77, 0
1, 46400, Note_on_c, 0, 86, 0
1, 46400, Note_on_c, 0, 88, 65
1, 46400, Note_on_c, 0, 79, 48
1, 46480, Note_on_c, 0, 79, 0
1, 46480, Note_on_c, 0, 88, 0
1, 46480, Note_on_c, 0, 86, 65
1, 46480, Note_on_c, 0, 77, 48
1, 46560, Tempo, 542986
1, 46560, Note_on_c, 0, 77, 0
1, 46560, Note_on_c, 0, 86, 0
1, 46560, Note_on_c, 0, 84, 0
1, 46560, Note_on_c, 0, 84, 70
1, 46560, Note_on_c, 0, 76, 52
1, 46574, Control_c, 0, 64, 0
1, 46599, Control_c, 0, 64, 127
1, 46680, Tempo, 560748
1, 46680, Note_on_c, 0, 76, 0
1, 46680, Note_on_c, 0, 86, 65
1, 46680, Note_on_c, 0, 77, 48
1, 46800, Tempo, 540541
1, 46800, Note_on_c, 0, 77, 0
1, 46800, Note_on_c, 0, 86, 0
1, 46800, Note_on_c, 0, 88, 74
1, 46800, Note_on_c, 0, 79, 56
1, 46812, Control_c, 0, 64, 0
1, 46885, Control_c, 0, 64, 127
1, 46920, Tempo, 566038
1, 46920, Note_on_c, 0, 79, 0
1, 46920, Note_on_c, 0, 88, 0
1, 46920, Note_on_c, 0, 84, 64
1, 46920, Note_on_c, 0, 76, 46
1, 47040, Tempo, 571429
1, 47040, Note_on_c, 0, 76, 0
1, 47040, Note_on_c, 0, 84, 0
1, 47040, Note_on_c, 0, 84, 0
1, 47040, Note_on_c, 0, 80, 48
1, 47040, Note_on_c, 0, 85, 68
1, 47040, Note_on_c, 0, 77, 50
1, 47059, Control_c, 0, 64, 0
1, 47103, Control_c, 0, 64, 127
1, 47130, Note_on_c, 0, 77, 0
1, 47130, Note_on_c, 0, 85, 0
1, 47160, Note_on_c, 0, 84, 62
1, 47160, Note_on_c, 0, 76, 45
1, 47250, Note_on_c, 0, 76, 0
1, 47250, Note_on_c, 0, 84, 0
1, 47280, Tempo, 582524
1, 47280, Note_on_c, 0, 80, 0
1, 47280, Note_on_c, 0, 80, 52
1, 47280, Note_on_c, 0, 85, 67
1, 47280, Note_on_c, 0, 77, 49
1, 47297, Control_c, 0, 64, 0
1, 47343, Control_c, 0, 64, 127
1, 47370, Note_on_c, 0, 77, 0
1, 47370, Note_on_c, 0, 85, 0
1, 47400, Tempo, 609137
1, 47400, Note_on_c, 0, 89, 62
1, 47400, Note_on_c, 0, 80, 45
1, 47490, Note_on_c, 0, 80, 0
1, 47490, Note_on_c, 0, 89, 0
1, 47520, Tempo, 558140
1, 47520, Note_on_c, 0, 80, 0
1, 47520, Note_on_c, 0, 72, 0
1, 47520, Note_on_c, 0, 88, 75
1, 47520, Note_on_c, 0, 84, 63
1, 47520, Note_on_c, 0, 72, 44
1, 47520, Note_on_c, 0, 79, 58
1, 47529, Control_c, 0, 64, 0
1, 47584, Control_c, 0, 64, 127
1, 47760, Tempo, 545455
1, 47760, Note_on_c, 0, 79, 0
1, 47760, Note_on_c, 0, 88, 0
1, 47760, Note_on_c, 0, 86, 70
1, 47760, Note_on_c, 0, 77, 52
1, 47778, Control_c, 0, 64, 0
1, 47806, Control_c, 0, 64, 127
1, 47840, Note_on_c, 0, 77, 0
1, 47840, Note_on_c, 0, 86, 0
1, 47840, Note_on_c, 0, 88, 65
1, 47840, Note_on_c, 0, 79, 48
1, 47920, Note_on_c, 0, 79, 0
1, 47920, Note_on_c, 0, 88, 0
1, 47920, Note_on_c, 0, 86, 65
1, 47920, Note_on_c, 0, 77, 48
1, 48000, Tempo, 542986
1, 48000, Note_on_c, 0, 77, 0
1, 48000, Note_on_c, 0, 86, 0
1, 48000, Note_on_c, 0, 84, 0
1, 48000, Note_on_c, 0, 84, 70
1, 48000, Note_on_c, 0, 76, 52
1, 48014, Control_c, 0, 64, 0
1, 48039, Control_c, 0, 64, 127
1, 48120, Tempo, 560748
1, 48120, Note_on_c, 0, 76, 0
1, 48120, Note_on_c, 0, 86, 65
1, 48120, Note_on_c, 0, 77, 48
1, 48240, Tempo, 540541
1, 48240, Note_on_c, 0, 77, 0
1, 48240, Note_on_c, 0, 86, 0
1, 48240, Note_on_c, 0, 88, 74
1, 48240, Note_on_c, 0, 79, 56
1, 48252, Control_c, 0, 64, 0
1, 48325, Control_c, 0, 64, 127
1, 48360, Tempo, 566038
1, 48360, Note_on_c, 0, 79, 0
1, 48360, Note_on_c, 0, 88, 0
1, 48360, Note_on_c, 0, 84, 64
1, 48360, Note_on_c, 0, 76, 46
1, 48480, Tempo, 571429
1, 48480, Note_on_c, 0, 76, 0
1, 48480, Note_on_c, 0, 84, 0
1, 48480, Note_on_c, 0, 84, 0
1, 48480, Note_on_c, 0, 80, 51
1, 48480, Note_on_c, 0, 85, 68
1, 48480, Note_on_c, 0, 77, 50
1, 48497, Control_c, 0, 64, 0
1, 48543, Control_c, 0, 64, 127
1, 48570, Note_on_c, 0, 77, 0
1, 48570, Note_on_c, 0, 85, 0
1, 48600, Note_on_c, 0, 84, 62
1, 48600, Note_on_c, 0, 76, 45
1, 48690, Note_on_c, 0, 76, 0
1, 48690, Note_on_c, 0, 84, 0
1, 48720, Tempo, 582524
1, 48720, Note_on_c, 0, 80, 0
1, 48720, Note_on_c, 0, 80, 49
1, 48720, Note_on_c, 0, 85, 67
1, 48720, Note_on_c, 0, 77, 49
1, 48740, Control_c, 0, 64, 0
1, 48783, Control_c, 0, 64, 127
1, 48810, Note_on_c, 0, 77, 0
1, 48810, Note_on_c, 0, 85, 0
1, 48840, Note_on_c, 0, 89, 62
1, 48840, Note_on_c, 0, 80, 45
1, 48930, Note_on_c, 0, 80, 0
1, 48930, Note_on_c, 0, 89, 0
1, 48960, Tempo, 558140
1, 48960, Note_on_c, 0, 80, 0
1, 48960, Note_on_c, 0, 72, 0
1, 48960, Note_on_c, 0, 76, 75
1, 48960, Note_on_c, 0, 72, 63
1, 48960, Note_on_c, 0, 67, 58
1, 48960, Note_on_c, 0, 60, 44
1, 48974, Control_c, 0, 64, 0
1, 49024, Control_c, 0, 64, 127
1, 49200, Tempo, 545455
1, 49200, Note_on_c, 0, 67, 0
1, 49200, Note_on_c, 0, 76, 0
1, 49200, Note_on_c, 0, 74, 70
1, 49200, Note_on_c, 0, 65, 52
1, 49218, Control_c, 0, 64, 0
1, 49246, Control_c, 0, 64, 127
1, 49280, Note_on_c, 0, 65, 0
1, 49280, Note_on_c, 0, 74, 0
1, 49280, Note_on_c, 0, 76, 65
1, 49280, Note_on_c, 0, 67, 48
1, 49360, Note_on_c, 0, 67, 0
1, 49360, Note_on_c, 0, 76, 0
1, 49360, Note_on_c, 0, 74, 65
1, 49360, Note_on_c, 0, 65, 48
1, 49440, Tempo, 542986
1, 49440, Note_on_c, 0, 65, 0
1, 49440, Note_on_c, 0, 74, 0
1, 49440, Note_on_c, 0, 72, 0
1, 49440, Note_on_c, 0, 72, 70
1, 49440, Note_on_c, 0, 64, 52
1, 49454, Control_c, 0, 64, 0
1, 49500, Note_on_c, 0, 64, 0
1, 49500, Note_on_c, 0, 72, 0
1, 49560, Tempo, 560748
1, 49560, Note_on_c, 0, 74, 65
1, 49560, Note_on_c, 0, 65, 48
1, 49620, Note_on_c, 0, 65, 0
1, 49620, Note_on_c, 0, 74, 0
1, 49680, Tempo, 552995
1, 49680, Note_on_c, 0, 60, 0
1, 49680, Note_on_c, 0, 76, 66
1, 49680, Note_on_c, 0, 67, 46
1, 49740, Note_on_c, 0, 67, 0
1, 49740, Note_on_c, 0, 76, 0
1, 49780, Tempo, 550459
1, 49800, Note_on_c, 0, 77, 67
1, 49800, Note_on_c, 0, 68, 48
1, 49860, Note_on_c, 0, 68, 0
1, 49860, Note_on_c, 0, 77, 0
1, 49880, Tempo, 547945
1, 49920, Note_on_c, 0, 79, 69
1, 49920, Note_on_c, 0, 70, 50
1, 49960, Tempo, 545455
1, 49980, Note_on_c, 0, 70, 0
1, 49980, Note_on_c, 0, 79, 0
1, 50040, Tempo, 542986
1, 50040, Note_on_c, 0, 80, 71
1, 50040, Note_on_c, 0, 72, 52
1, 50080, Tempo, 545455
1, 50100, Note_on_c, 0, 72, 0
1, 50100, Note_on_c, 0, 80, 0
1, 50120, Tempo, 547945
1, 50140, Tempo, 550459
1, 50160, Note_on_c, 0, 82, 73
1, 50160, Note_on_c, 0, 73, 54
1, 50180, Tempo, 552995
1, 50200, Tempo, 555556
1, 50220, Note_on_c, 0, 73, 0
1, 50220, Note_on_c, 0, 82, 0
1, 50240, Tempo, 558140
1, 50260, Tempo, 560748
1, 50280, Note_on_c, 0, 84, 74
1, 50280, Note_on_c, 0, 75, 55
1, 50300, Tempo, 563380
1, 50320, Tempo, 618557
1, 50340, Note_on_c, 0, 75, 0
1, 50340, Note_on_c, 0, 84, 0
1, 50400, Tempo, 538117
1, 50400, Note_on_c, 0, 82, 72
1, 50400, Note_on_c, 0, 73, 54
1, 50418, Control_c, 0, 64, 127
1, 50480, Note_on_c, 0, 73, 0
1, 50480, Note_on_c, 0, 82, 0
1, 50480, Note_on_c, 0, 84, 68
1, 50480, Note_on_c, 0, 75, 51
1, 50560, Tempo, 574163
1, 50560, Note_on_c, 0, 75, 0
1, 50560, Note_on_c, 0, 84, 0
1, 50560, Note_on_c, 0, 82, 68
1, 50560, Note_on_c, 0, 73, 51
1, 50640, Tempo, 535714
1, 50640, Note_on_c, 0, 73, 0
1, 50640, Note_on_c, 0, 82, 0
1, 50640, Note_on_c, 0, 80, 70
1, 50640, Note_on_c, 0, 72, 53
1, 50649, Control_c, 0, 64, 0
1, 50668, Control_c, 0, 64, 127
1, 50720, Note_on_c, 0, 72, 0
1, 50720, Note_on_c, 0, 80, 0
1, 50720, Note_on_c, 0, 82, 65
1, 50720, Note_on_c, 0, 73, 49
1, 50800, Tempo, 566038
1, 50800, Note_on_c, 0, 73, 0
1, 50800, Note_on_c, 0, 82, 0
1, 50800, Note_on_c, 0, 80, 69
1, 50800, Note_on_c, 0, 72, 52
1, 50880, Tempo, 540541
1, 50880, Note_on_c, 0, 72, 0
1, 50880, Note_on_c, 0, 80, 0
1, 50880, Note_on_c, 0, 79, 68
1, 50880, Note_on_c, 0, 70, 51
1, 50897, Control_c, 0, 64, 0
1, 50930, Control_c, 0, 64, 127
1, 50960, Note_on_c, 0, 70, 0
1, 50960, Note_on_c, 0, 79, 0
1, 50960, Note_on_c, 0, 80, 65
1, 50960, Note_on_c, 0, 72, 49
1, 51040, Tempo, 568720
1, 51040, Note_on_c, 0, 72, 0
1, 51040, Note_on_c, 0, 80, 0
1, 51040, Note_on_c, 0, 79, 64
1, 51040, Note_on_c, 0, 70, 48
1, 51120, Tempo, 542986
1, 51120, Note_on_c, 0, 70, 0
1, 51120, Note_on_c, 0, 79, 0
1, 51120, Note_on_c, 0, 77, 66
1, 51120, Note_on_c, 0, 68, 50
1, 51130, Control_c, 0, 64, 0
1, 51170, Control_c, 0, 64, 127
1, 51200, Tempo, 545455
1, 51200, Note_on_c, 0, 68, 0
1, 51200, Note_on_c, 0, 77, 0
1, 51200, Note_on_c, 0, 79, 61
1, 51200, Note_on_c, 0, 70, 45
1, 51260, Tempo, 547945
1, 51280, Tempo, 579710
1, 51280, Note_on_c, 0, 70, 0
1, 51280, Note_on_c, 0, 79, 0
1, 51280, Note_on_c, 0, 77, 61
1, 51280, Note_on_c, 0, 68, 45
1, 51360, Note_on_c, 0, 68, 0
1, 51360, Note_on_c, 0, 77, 0
1, 51360, Note_on_c, 0, 75, 64
1, 51360, Note_on_c, 0, 67, 48
1, 51372, Control_c, 0, 64, 0
1, 51380, Tempo, 552995
1, 51395, Control_c, 0, 64, 127
1, 51440, Tempo, 555556
1, 51440, Note_on_c, 0, 67, 0
1, 51440, Note_on_c, 0, 75, 0
1, 51440, Note_on_c, 0, 77, 60
1, 51440, Note_on_c, 0, 68, 45
1, 51500, Tempo, 558140
1, 51520, Tempo, 600000
1, 51520, Note_on_c, 0, 68, 0
1, 51520, Note_on_c, 0, 77, 0
1, 51520, Note_on_c, 0, 75, 60
1, 51520, Note_on_c, 0, 67, 45
1, 51600, Tempo, 563380
1, 51600, Note_on_c, 0, 67, 0
1, 51600, Note_on_c, 0, 75, 0
1, 51600, Note_on_c, 0, 73, 62
1, 51600, Note_on_c, 0, 65, 46
1, 51611, Control_c, 0, 64, 0
1, 51620, Tempo, 563380
1, 51643, Control_c, 0, 64, 127
1, 51680, Tempo, 566038
1, 51680, Note_on_c, 0, 65, 0
1, 51680, Note_on_c, 0, 73, 0
1, 51680, Note_on_c, 0, 75, 57
1, 51680, Note_on_c, 0, 67, 43
1, 51740, Tempo, 568720
1, 51760, Tempo, 789474
1, 51760, Note_on_c, 0, 67, 0
1, 51760, Note_on_c, 0, 75, 0
1, 51760, Note_on_c, 0, 73, 57
1, 51760, Note_on_c, 0, 65, 43
1, 51840, Tempo, 618557
1, 51840, Note_on_c, 0, 65, 0
1, 51840, Note_on_c, 0, 73, 0
1, 51840, Control_c, 0, 64, 0
1, 51840, Note_on_c, 0, 36, 77
1, 51960, Note_on_c, 0, 36, 0
1, 51996, Control_c, 0, 64, 127
1, 52080, Tempo, 502092
1, 52080, Note_on_c, 0, 77, 57
1, 52080, Note_on_c, 0, 70, 51
1, 52080, Note_on_c, 0, 73, 51
1, 52200, Tempo, 545455
1, 52200, Note_on_c, 0, 73, 0
1, 52200, Note_on_c, 0, 70, 0
1, 52200, Note_on_c, 0, 77, 0
1, 52200, Note_on_c, 0, 67, 53
1, 52320, Tempo, 579710
1, 52320, Note_on_c, 0, 67, 0
1, 52320, Note_on_c, 0, 72, 50
1, 52440, Note_on_c, 0, 72, 0
1, 52560, Tempo, 500000
1, 52560, Note_on_c, 0, 82, 51
1, 52560, Note_on_c, 0, 89, 57
1, 52560, Note_on_c, 0, 85, 51
1, 52680, Tempo, 545455
1, 52680, Note_on_c, 0, 85, 0
1, 52680, Note_on_c, 0, 89, 0
1, 52680, Note_on_c, 0, 82, 0
1, 52680, Note_on_c, 0, 79, 52
1, 52800, Tempo, 576923
1, 52800, Note_on_c, 0, 79, 0
1, 52800, Note_on_c, 0, 84, 52
1, 52920, Note_on_c, 0, 84, 0
1, 53040, Tempo, 502092
1, 53040, Note_on_c, 0, 77, 57
1, 53040, Note_on_c, 0, 73, 51
1, 53040, Note_on_c, 0, 70, 51
1, 53160, Tempo, 545455
1, 53160, Note_on_c, 0, 70, 0
1, 53160, Note_on_c, 0, 73, 0
1, 53160, Note_on_c, 0, 77, 0
1, 53160, Note_on_c, 0, 67, 53
1, 53280, Tempo, 560748
1, 53280, Note_on_c, 0, 67, 0
1, 53280, Note_on_c, 0, 72, 51
1, 53347, Control_c, 0, 64, 0
1, 53400, Note_on_c, 0, 72, 0
1, 53520, Tempo, 547945
1, 53520, Note_on_c, 0, 82, 69
1, 53520, Note_on_c, 0, 77, 61
1, 53520, Note_on_c, 0, 73, 52
1, 53520, Note_on_c, 0, 67, 46
1, 53580, Note_on_c, 0, 67, 0
1, 53580, Note_on_c, 0, 82, 0
1, 53580, Note_on_c, 0, 77, 0
1, 53580, Note_on_c, 0, 73, 0
1, 53640, Note_on_c, 0, 82, 69
1, 53640, Note_on_c, 0, 77, 61
1, 53640, Note_on_c, 0, 67, 46
1, 53640, Note_on_c, 0, 73, 52
1, 53700, Note_on_c, 0, 73, 0
1, 53700, Note_on_c, 0, 82, 0
1, 53700, Note_on_c, 0, 77, 0
1, 53700, Note_on_c, 0, 67, 0
1, 53760, Tempo, 563380
1, 53760, Note_on_c, 0, 82, 66
1, 53760, Note_on_c, 0, 89, 73
1, 53760, Note_on_c, 0, 79, 57
1, 53880, Note_on_c, 0, 79, 0
1, 53880, Note_on_c, 0, 89, 0
1, 53880, Note_on_c, 0, 82, 0
1, 54000, Tempo, 576923
1, 54000, Note_on_c, 0, 82, 70
1, 54000, Note_on_c, 0, 77, 63
1, 54000, Note_on_c, 0, 73, 47
1, 54000, Note_on_c, 0, 67, 42
1, 54120, Note_on_c, 0, 67, 0
1, 54120, Note_on_c, 0, 82, 0
1, 54120, Note_on_c, 0, 77, 0
1, 54120, Note_on_c, 0, 73, 0
1, 54240, Note_on_c, 0, 82, 66
1, 54240, Note_on_c, 0, 89, 74
1, 54240, Note_on_c, 0, 79, 49
1, 54360, Note_on_c, 0, 79, 0
1, 54360, Note_on_c, 0, 89, 0
1, 54360, Note_on_c, 0, 82, 0
1, 54480, Tempo, 594059
1, 54480, Note_on_c, 0, 82, 71
1, 54480, Note_on_c, 0, 77, 64
1, 54480, Note_on_c, 0, 67, 42
1, 54480, Note_on_c, 0, 73, 47
1, 54600, Note_on_c, 0, 73, 0
1, 54600, Note_on_c, 0, 82, 0
1, 54600, Note_on_c, 0, 77, 0
1, 54600, Note_on_c, 0, 67, 0
1, 54720, Tempo, 606061
1, 54720, Note_on_c, 0, 36, 73
1, 54769, Control_c, 0, 64, 127
1, 54840, Note_on_c, 0, 36, 0
1, 54960, Tempo, 519481
1, 54960, Note_on_c, 0, 70, 48
1, 54960, Note_on_c, 0, 77, 53
1, 54960, Note_on_c, 0, 73, 48
1, 55080, Tempo, 566038
1, 55080, Note_on_c, 0, 73, 0
1, 55080, Note_on_c, 0, 77, 0
1, 55080, Note_on_c, 0, 70, 0
1, 55080, Note_on_c, 0, 67, 51
1, 55200, Tempo, 588235
1, 55200, Note_on_c, 0, 67, 0
1, 55200, Note_on_c, 0, 72, 45
1, 55320, Note_on_c, 0, 72, 0
1, 55440, Tempo, 519481
1, 55440, Note_on_c, 0, 82, 46
1, 55440, Note_on_c, 0, 85, 46
1, 55440, Note_on_c, 0, 89, 52
1, 55560, Tempo, 563380
1, 55560, Note_on_c, 0, 89, 0
1, 55560, Note_on_c, 0, 85, 0
1, 55560, Note_on_c, 0, 82, 0
1, 55560, Note_on_c, 0, 79, 49
1, 55680, Tempo, 571429
1, 55680, Note_on_c, 0, 79, 0
1, 55680, Note_on_c, 0, 84, 46
1, 55800, Note_on_c, 0, 84, 0
1, 55920, Tempo, 519481
1, 55920, Note_on_c, 0, 77, 51
1, 55920, Note_on_c, 0, 73, 45
1, 55920, Note_on_c, 0, 70, 45
1, 56040, Tempo, 566038
1, 56040, Note_on_c, 0, 70, 0
1, 56040, Note_on_c, 0, 73, 0
1, 56040, Note_on_c, 0, 77, 0
1, 56040, Note_on_c, 0, 67, 46
1, 56160, Tempo, 594059
1, 56160, Note_on_c, 0, 67, 0
1, 56160, Note_on_c, 0, 72, 44
1, 56280, Note_on_c, 0, 72, 0
1, 56280, Control_c, 0, 64, 0
1, 56400, Tempo, 547945
1, 56400, Note_on_c, 0, 65, 54
1, 56400, Note_on_c, 0, 70, 62
1, 56400, Note_on_c, 0, 61, 46
1, 56400, Note_on_c, 0, 55, 41
1, 56460, Note_on_c, 0, 55, 0
1, 56460, Note_on_c, 0, 65, 0
1, 56460, Note_on_c, 0, 70, 0
1, 56460, Note_on_c, 0, 61, 0
1, 56520, Note_on_c, 0, 70, 61
1, 56520, Note_on_c, 0, 65, 54
1, 56520, Note_on_c, 0, 61, 45
1, 56520, Note_on_c, 0, 55, 41
1, 56580, Note_on_c, 0, 55, 0
1, 56580, Note_on_c, 0, 70, 0
1, 56580, Note_on_c, 0, 65, 0
1, 56580, Note_on_c, 0, 61, 0
1, 56640, Tempo, 563380
1, 56640, Note_on_c, 0, 70, 58
1, 56640, Note_on_c, 0, 77, 64
1, 56640, Note_on_c, 0, 67, 50
1, 56760, Note_on_c, 0, 67, 0
1, 56760, Note_on_c, 0, 77, 0
1, 56760, Note_on_c, 0, 70, 0
1, 56880, Tempo, 576923
1, 56880, Note_on_c, 0, 70, 61
1, 56880, Note_on_c, 0, 65, 55
1, 56880, Note_on_c, 0, 61, 41
1, 56880, Note_on_c, 0, 55, 36
1, 57000, Note_on_c, 0, 55, 0
1, 57000, Note_on_c, 0, 70, 0
1, 57000, Note_on_c, 0, 65, 0
1, 57000, Note_on_c, 0, 61, 0
1, 57120, Note_on_c, 0, 77, 64
1, 57120, Note_on_c, 0, 70, 57
1, 57120, Note_on_c, 0, 67, 42
1, 57240, Note_on_c, 0, 67, 0
1, 57240, Note_on_c, 0, 70, 0
1, 57240, Note_on_c, 0, 77, 0
1, 57360, Tempo, 585366
1, 57360, Note_on_c, 0, 65, 55
1, 57360, Note_on_c, 0, 70, 61
1, 57360, Note_on_c, 0, 61, 40
1, 57360, Note_on_c, 0, 55, 36
1, 57480, Note_on_c, 0, 55, 0
1, 57480, Note_on_c, 0, 65, 0
1, 57480, Note_on_c, 0, 70, 0
1, 57480, Note_on_c, 0, 61, 0
1, 57600, Tempo, 568720
1, 57600, Note_on_c, 0, 48, 56
1, 57649, Control_c, 0, 64, 127
1, 57720, Note_on_c, 0, 48, 0
1, 57840, Tempo, 542986
1, 57840, Note_on_c, 0, 70, 45
1, 57840, Note_on_c, 0, 73, 45
1, 57840, Note_on_c, 0, 77, 50
1, 57960, Tempo, 574163
1, 57960, Note_on_c, 0, 77, 0
1, 57960, Note_on_c, 0, 73, 0
1, 57960, Note_on_c, 0, 70, 0
1, 57960, Note_on_c, 0, 67, 50
1, 58080, Tempo, 618557
1, 58080, Note_on_c, 0, 67, 0
1, 58080, Note_on_c, 0, 72, 38
1, 58200, Note_on_c, 0, 72, 0
1, 58320, Tempo, 606061
1, 58320, Note_on_c, 0, 70, 41
1, 58320, Note_on_c, 0, 73, 41
1, 58320, Note_on_c, 0, 77, 44
1, 58440, Tempo, 634921
1, 58440, Note_on_c, 0, 77, 0
1, 58440, Note_on_c, 0, 73, 0
1, 58440, Note_on_c, 0, 70, 0
1, 58440, Note_on_c, 0, 67, 44
1, 58560, Tempo, 714286
1, 58560, Note_on_c, 0, 67, 0
1, 58560, Note_on_c, 0, 72, 34
1, 58680, Note_on_c, 0, 72, 0
1, 58800, Tempo, 681818
1, 58800, Note_on_c, 0, 73, 36
1, 58800, Note_on_c, 0, 70, 36
1, 58800, Note_on_c, 0, 77, 40
1, 58920, Tempo, 750000
1, 58920, Note_on_c, 0, 77, 0
1, 58920, Note_on_c, 0, 70, 0
1, 58920, Note_on_c, 0, 73, 0
1, 58920, Note_on_c, 0, 67, 39
1, 59040, Tempo, 705882
1, 59040, Note_on_c, 0, 67, 0
1, 59040, Note_on_c, 0, 72, 32
1, 59075, Control_c, 0, 64, 0
1, 59160, Note_on_c, 0, 72, 0
1, 59280, Tempo, 568720
1, 59280, Note_on_c, 0, 48, 38
1, 59287, Control_c, 0, 64, 127
1, 59400, Note_on_c, 0, 48, 0
1, 59400, Note_on_c, 0, 48, 38
1, 59420, Tempo, 571429
1, 59520, Note_on_c, 0, 48, 0
1, 59520, Note_on_c, 0, 48, 38
1, 59560, Tempo, 574163
1, 59640, Note_on_c, 0, 48, 0
1, 59640, Note_on_c, 0, 48, 38
1, 59680, Tempo, 576923
1, 59760, Note_on_c, 0, 48, 0
1, 59760, Note_on_c, 0, 48, 37
1, 59820, Tempo, 579710
1, 59880, Note_on_c, 0, 48, 0
1, 59880, Note_on_c, 0, 48, 37
1, 59960, Tempo, 582524
1, 60000, Note_on_c, 0, 48, 0
1, 60000, Note_on_c, 0, 48, 37
1, 60080, Tempo, 585366
1, 60120, Note_on_c, 0, 48, 0
1, 60120, Note_on_c, 0, 48, 36
1, 60220, Tempo, 588235
1, 60240, Note_on_c, 0, 48, 0
1, 60240, Note_on_c, 0, 48, 36
1, 60360, Tempo, 591133
1, 60360, Note_on_c, 0, 48, 0
1, 60360, Note_on_c, 0, 48, 36
1, 60480, Tempo, 722892
1, 60480, Note_on_c, 0, 48, 0
1, 60480, Note_on_c, 0, 48, 36
1, 61200, Key_signature, -1, "major"
1, 61200, Tempo, 846621
1, 61200, Note_on_c, 0, 48, 0
1, 61200, Note_on_c, 0, 70, 59
1, 61200, Note_on_c, 0, 74, 59
1, 61200, Control_c, 0, 64, 0
1, 61200, Note_on_c, 0, 36, 49
1, 61341, Control_c, 0, 64, 127
1, 61440, Tempo, 803320
1, 61440, Note_on_c, 0, 74, 0
1, 61440, Note_on_c, 0, 70, 0
1, 61440, Note_on_c, 0, 70, 56
1, 61440, Note_on_c, 0, 74, 56
1, 61560, Tempo, 831601
1, 61560, Note_on_c, 0, 74, 0
1, 61560, Note_on_c, 0, 70, 0
1, 61560, Note_on_c, 0, 70, 56
1, 61560, Note_on_c, 0, 74, 56
1, 61680, Tempo, 846621
1, 61680, Note_on_c, 0, 74, 0
1, 61680, Note_on_c, 0, 70, 0
1, 61680, Note_on_c, 0, 79, 59
1, 61680, Note_on_c, 0, 76, 59
1, 61920, Tempo, 826674
1, 61920, Note_on_c, 0, 36, 0
1, 61920, Note_on_c, 0, 48, 47
1, 61927, Control_c, 0, 64, 0
1, 62040, Note_on_c, 0, 48, 0
1, 62040, Control_c, 0, 64, 127
1, 62160, Tempo, 846621
1, 62160, Note_on_c, 0, 72, 37
1, 62180, Tempo, 851547
1, 62280, Note_on_c, 0, 72, 0
1, 62400, Tempo, 889152
1, 62400, Note_on_c, 0, 60, 37
1, 62520, Note_on_c, 0, 60, 0
1, 62520, Note_on_c, 0, 76, 0
1, 62520, Note_on_c, 0, 79, 0
1, 62520, Note_on_c, 0, 74, 54
1, 62520, Note_on_c, 0, 77, 54
1, 62640, Tempo, 836470
1, 62640, Note_on_c, 0, 77, 0
1, 62640, Note_on_c, 0, 74, 0
1, 62640, Note_on_c, 0, 72, 45
1, 62640, Note_on_c, 0, 76, 45
1, 62640, Control_c, 0, 64, 0
1, 62640, Note_on_c, 0, 41, 46
1, 62682, Control_c, 0, 64, 127
1, 62720, Note_on_c, 0, 76, 0
1, 62720, Note_on_c, 0, 77, 45
1, 62800, Note_on_c, 0, 77, 0
1, 62800, Note_on_c, 0, 76, 45
1, 62880, Note_on_c, 0, 76, 0
1, 62880, Note_on_c, 0, 72, 0
1, 62880, Note_on_c, 0, 69, 45
1, 62880, Note_on_c, 0, 72, 51
1, 62894, Control_c, 0, 64, 0
1, 62958, Control_c, 0, 64, 127
1, 63100, Tempo, 836470
1, 63120, Tempo, 845070
1, 63120, Note_on_c, 0, 72, 0
1, 63120, Note_on_c, 0, 69, 0
1, 63120, Note_on_c, 0, 69, 43
1, 63138, Control_c, 0, 64, 0
1, 63180, Note_on_c, 0, 69, 0
1, 63240, Note_on_c, 0, 65, 27
1, 63240, Note_on_c, 0, 69, 27
1, 63240, Note_on_c, 0, 72, 33
1, 63300, Note_on_c, 0, 72, 0
1, 63300, Note_on_c, 0, 69, 0
1, 63300, Note_on_c, 0, 65, 0
1, 63360, Tempo, 827586
1, 63360, Note_on_c, 0, 41, 0
1, 63360, Note_on_c, 0, 64, 41
1, 63420, Note_on_c, 0, 64, 0
1, 63480, Note_on_c, 0, 72, 29
1, 63480, Note_on_c, 0, 69, 25
1, 63480, Note_on_c, 0, 65, 25
1, 63540, Note_on_c, 0, 65, 0
1, 63540, Note_on_c, 0, 69, 0
1, 63540, Note_on_c, 0, 72, 0
1, 63600, Tempo, 833333
1, 63600, Note_on_c, 0, 65, 44
1, 63660, Note_on_c, 0, 65, 0
1, 63720, Note_on_c, 0, 72, 33
1, 63720, Note_on_c, 0, 69, 27
1, 63720, Note_on_c, 0, 65, 27
1, 63780, Note_on_c, 0, 65, 0
1, 63780, Note_on_c, 0, 69, 0
1, 63780, Note_on_c, 0, 72, 0
1, 63840, Tempo, 871080
1, 63840, Note_on_c, 0, 60, 41
1, 63900, Note_on_c, 0, 60, 0
1, 63960, Note_on_c, 0, 72, 27
1, 63960, Note_on_c, 0, 69, 22
1, 63960, Note_on_c, 0, 65, 22
1, 64020, Note_on_c, 0, 65, 0
1, 64020, Note_on_c, 0, 69, 0
1, 64020, Note_on_c, 0, 72, 0
1, 64060, Tempo, 834144
1, 64080, Tempo, 842697
1, 64080, Note_on_c, 0, 77, 59
1, 64080, Note_on_c, 0, 81, 59
1, 64080, Note_on_c, 0, 37, 51
1, 64160, Control_c, 0, 64, 127
1, 64200, Note_on_c, 0, 37, 0
1, 64320, Tempo, 799574
1, 64320, Note_on_c, 0, 81, 0
1, 64320, Note_on_c, 0, 77, 0
1, 64320, Note_on_c, 0, 76, 53
1, 64320, Note_on_c, 0, 79, 53
1, 64320, Note_on_c, 0, 69, 45
1, 64440, Tempo, 827815
1, 64440, Note_on_c, 0, 69, 0
1, 64440, Note_on_c, 0, 79, 0
1, 64440, Note_on_c, 0, 76, 0
1, 64440, Note_on_c, 0, 74, 53
1, 64440, Note_on_c, 0, 77, 53
1, 64560, Tempo, 842697
1, 64560, Note_on_c, 0, 77, 0
1, 64560, Note_on_c, 0, 74, 0
1, 64560, Note_on_c, 0, 77, 57
1, 64560, Note_on_c, 0, 74, 57
1, 64560, Note_on_c, 0, 57, 47
1, 64680, Note_on_c, 0, 57, 0
1, 64800, Tempo, 822932
1, 64800, Note_on_c, 0, 38, 47
1, 64802, Control_c, 0, 64, 0
1, 64878, Control_c, 0, 64, 127
1, 64920, Note_on_c, 0, 38, 0
1, 65040, Tempo, 851064
1, 65040, Note_on_c, 0, 74, 0
1, 65040, Note_on_c, 0, 77, 0
1, 65040, Note_on_c, 0, 75, 50
1, 65040, Note_on_c, 0, 72, 45
1, 65040, Note_on_c, 0, 50, 37
1, 65060, Tempo, 847697
1, 65160, Note_on_c, 0, 50, 0
1, 65160, Note_on_c, 0, 72, 0
1, 65160, Note_on_c, 0, 75, 0
1, 65160, Note_on_c, 0, 78, 39
1, 65160, Note_on_c, 0, 74, 35
1, 65280, Tempo, 885086
1, 65280, Note_on_c, 0, 74, 0
1, 65280, Note_on_c, 0, 78, 0
1, 65280, Note_on_c, 0, 70, 45
1, 65280, Note_on_c, 0, 74, 50
1, 65280, Note_on_c, 0, 66, 38
1, 65400, Note_on_c, 0, 66, 0
1, 65400, Note_on_c, 0, 74, 0
1, 65400, Note_on_c, 0, 70, 0
1, 65400, Note_on_c, 0, 72, 37
1, 65400, Note_on_c, 0, 75, 42
1, 65520, Tempo, 832755
1, 65520, Note_on_c, 0, 75, 0
1, 65520, Note_on_c, 0, 72, 0
1, 65520, Note_on_c, 0, 69, 45
1, 65520, Note_on_c, 0, 72, 45
1, 65520, Note_on_c, 0, 43, 46
1, 65522, Control_c, 0, 64, 0
1, 65562, Control_c, 0, 64, 127
1, 65600, Note_on_c, 0, 72, 0
1, 65600, Note_on_c, 0, 74, 45
1, 65680, Note_on_c, 0, 74, 0
1, 65680, Note_on_c, 0, 72, 45
1, 65760, Note_on_c, 0, 72, 0
1, 65760, Note_on_c, 0, 69, 0
1, 65760, Note_on_c, 0, 67, 46
1, 65760, Note_on_c, 0, 70, 51
1, 65775, Control_c, 0, 64, 0
1, 65780, Tempo, 839278
1, 65799, Control_c, 0, 64, 127
1, 65980, Tempo, 832755
1, 66000, Note_on_c, 0, 70, 0
1, 66000, Note_on_c, 0, 67, 0
1, 66000, Note_on_c, 0, 43, 0
1, 66000, Note_on_c, 0, 66, 43
1, 66006, Control_c, 0, 64, 0
1, 66060, Note_on_c, 0, 66, 0
1, 66120, Note_on_c, 0, 62, 27
1, 66120, Note_on_c, 0, 67, 27
1, 66120, Note_on_c, 0, 70, 33
1, 66180, Note_on_c, 0, 70, 0
1, 66180, Note_on_c, 0, 67, 0
1, 66180, Note_on_c, 0, 62, 0
1, 66240, Tempo, 829073
1, 66240, Note_on_c, 0, 61, 41
1, 66300, Note_on_c, 0, 61, 0
1, 66360, Note_on_c, 0, 70, 29
1, 66360, Note_on_c, 0, 67, 25
1, 66360, Note_on_c, 0, 62, 25
1, 66420, Note_on_c, 0, 62, 0
1, 66420, Note_on_c, 0, 67, 0
1, 66420, Note_on_c, 0, 70, 0
1, 66480, Tempo, 814443
1, 66480, Note_on_c, 0, 63, 44
1, 66540, Note_on_c, 0, 63, 0
1, 66600, Note_on_c, 0, 70, 33
1, 66600, Note_on_c, 0, 67, 27
1, 66600, Note_on_c, 0, 62, 27
1, 66660, Note_on_c, 0, 62, 0
1, 66660, Note_on_c, 0, 67, 0
1, 66660, Note_on_c, 0, 70, 0
1, 66720, Tempo, 860215
1, 66720, Note_on_c, 0, 62, 41
1, 66780, Note_on_c, 0, 62, 0
1, 66840, Tempo, 929944
1, 66840, Note_on_c, 0, 70, 27
1, 66840, Note_on_c, 0, 67, 22
1, 66840, Note_on_c, 0, 62, 22
1, 66900, Note_on_c, 0, 62, 0
1, 66900, Note_on_c, 0, 67, 0
1, 66900, Note_on_c, 0, 70, 0
1, 66960, Tempo, 846621
1, 66960, Note_on_c, 0, 70, 64
1, 66960, Note_on_c, 0, 74, 64
1, 66960, Note_on_c, 0, 36, 52
1, 67052, Control_c, 0, 64, 127
1, 67200, Tempo, 819224
1, 67200, Note_on_c, 0, 74, 0
1, 67200, Note_on_c, 0, 70, 0
1, 67200, Note_on_c, 0, 70, 61
1, 67200, Note_on_c, 0, 74, 61
1, 67320, Tempo, 854823
1, 67320, Note_on_c, 0, 74, 0
1, 67320, Note_on_c, 0, 70, 0
1, 67320, Note_on_c, 0, 70, 61
1, 67320, Note_on_c, 0, 74, 61
1, 67440, Tempo, 860215
1, 67440, Note_on_c, 0, 74, 0
1, 67440, Note_on_c, 0, 70, 0
1, 67440, Note_on_c, 0, 79, 64
1, 67440, Note_on_c, 0, 76, 64
1, 67680, Tempo, 893788
1, 67680, Note_on_c, 0, 36, 0
1, 67680, Note_on_c, 0, 48, 51
1, 67684, Control_c, 0, 64, 0
1, 67758, Control_c, 0, 64, 127
1, 67800, Note_on_c, 0, 48, 0
1, 67920, Tempo, 893788
1, 67920, Note_on_c, 0, 72, 40
1, 68040, Note_on_c, 0, 72, 0
1, 68160, Tempo, 929944
1, 68160, Note_on_c, 0, 60, 38
1, 68280, Note_on_c, 0, 60, 0
1, 68280, Note_on_c, 0, 76, 0
1, 68280, Note_on_c, 0, 79, 0
1, 68280, Note_on_c, 0, 74, 54
1, 68280, Note_on_c, 0, 77, 54
1, 68400, Tempo, 836470
1, 68400, Note_on_c, 0, 77, 0
1, 68400, Note_on_c, 0, 74, 0
1, 68400, Note_on_c, 0, 72, 45
1, 68400, Note_on_c, 0, 76, 45
1, 68400, Control_c, 0, 64, 0
1, 68400, Note_on_c, 0, 41, 46
1, 68442, Control_c, 0, 64, 127
1, 68480, Note_on_c, 0, 76, 0
1, 68480, Note_on_c, 0, 77, 45
1, 68560, Note_on_c, 0, 77, 0
1, 68560, Note_on_c, 0, 76, 45
1, 68640, Tempo, 871080
1, 68640, Note_on_c, 0, 76, 0
1, 68640, Note_on_c, 0, 72, 0
1, 68640, Note_on_c, 0, 69, 41
1, 68640, Note_on_c, 0, 72, 46
1, 68654, Control_c, 0, 64, 0
1, 68725, Control_c, 0, 64, 127
1, 68860, Tempo, 836470
1, 68880, Tempo, 834144
1, 68880, Note_on_c, 0, 72, 0
1, 68880, Note_on_c, 0, 69, 0
1, 68880, Note_on_c, 0, 69, 43
1, 68891, Control_c, 0, 64, 0
1, 68940, Note_on_c, 0, 69, 0
1, 69000, Note_on_c, 0, 65, 27
1, 69000, Note_on_c, 0, 69, 27
1, 69000, Note_on_c, 0, 72, 33
1, 69060, Note_on_c, 0, 72, 0
1, 69060, Note_on_c, 0, 69, 0
1, 69060, Note_on_c, 0, 65, 0
1, 69120, Tempo, 829073
1, 69120, Note_on_c, 0, 41, 0
1, 69120, Note_on_c, 0, 64, 41
1, 69180, Note_on_c, 0, 64, 0
1, 69240, Note_on_c, 0, 72, 29
1, 69240, Note_on_c, 0, 69, 25
1, 69240, Note_on_c, 0, 65, 25
1, 69300, Note_on_c, 0, 65, 0
1, 69300, Note_on_c, 0, 69, 0
1, 69300, Note_on_c, 0, 72, 0
1, 69360, Tempo, 814443
1, 69360, Note_on_c, 0, 65, 44
1, 69420, Note_on_c, 0, 65, 0
1, 69480, Note_on_c, 0, 72, 33
1, 69480, Note_on_c, 0, 69, 27
1, 69480, Note_on_c, 0, 65, 27
1, 69540, Note_on_c, 0, 65, 0
1, 69540, Note_on_c, 0, 69, 0
1, 69540, Note_on_c, 0, 72, 0
1, 69600, Tempo, 871080
1, 69600, Note_on_c, 0, 60, 41
1, 69660, Note_on_c, 0, 60, 0
1, 69720, Tempo, 936330
1, 69720, Note_on_c, 0, 72, 27
1, 69720, Note_on_c, 0, 69, 22
1, 69720, Note_on_c, 0, 65, 22
1, 69780, Tempo, 865676
1, 69780, Note_on_c, 0, 65, 0
1, 69780, Note_on_c, 0, 69, 0
1, 69780, Note_on_c, 0, 72, 0
1, 69780, Note_on_c, 0, 72, 52
1, 69780, Note_on_c, 0, 48, 44
1, 69820, Tempo, 834144
1, 69840, Tempo, 842697
1, 69840, Note_on_c, 0, 48, 0
1, 69840, Note_on_c, 0, 72, 0
1, 69840, Note_on_c, 0, 81, 64
1, 69840, Note_on_c, 0, 84, 64
1, 69840, Note_on_c, 0, 33, 56
1, 69875, Control_c, 0, 64, 127
1, 70080, Tempo, 799574
1, 70080, Note_on_c, 0, 33, 0
1, 70080, Note_on_c, 0, 84, 0
1, 70080, Note_on_c, 0, 81, 0
1, 70080, Note_on_c, 0, 79, 58
1, 70080, Note_on_c, 0, 82, 58
1, 70080, Note_on_c, 0, 40, 49
1, 70200, Tempo, 827815
1, 70200, Note_on_c, 0, 82, 0
1, 70200, Note_on_c, 0, 79, 0
1, 70200, Note_on_c, 0, 77, 58
1, 70200, Note_on_c, 0, 81, 58
1, 70320, Tempo, 842697
1, 70320, Note_on_c, 0, 81, 0
1, 70320, Note_on_c, 0, 77, 0
1, 70320, Note_on_c, 0, 81, 62
1, 70320, Note_on_c, 0, 77, 62
1, 70560, Tempo, 854823
1, 70560, Note_on_c, 0, 77, 0
1, 70560, Note_on_c, 0, 81, 0
1, 70560, Note_on_c, 0, 40, 0
1, 70560, Note_on_c, 0, 76, 58
1, 70560, Note_on_c, 0, 79, 58
1, 70560, Note_on_c, 0, 48, 51
1, 70565, Control_c, 0, 64, 0
1, 70680, Tempo, 905524
1, 70680, Note_on_c, 0, 79, 0
1, 70680, Note_on_c, 0, 76, 0
1, 70680, Note_on_c, 0, 74, 58
1, 70680, Note_on_c, 0, 77, 58
1, 70680, Control_c, 0, 64, 127
1, 70800, Tempo, 949217
1, 70800, Note_on_c, 0, 77, 0
1, 70800, Note_on_c, 0, 74, 0
1, 70800, Note_on_c, 0, 48, 0
1, 70800, Note_on_c, 0, 77, 58
1, 70800, Note_on_c, 0, 81, 58
1, 70800, Note_on_c, 0, 60, 40
1, 70920, Tempo, 3000000
1, 70920, Note_on_c, 0, 81, 0
1, 70920, Note_on_c, 0, 77, 0
1, 71040, Tempo, 888889
1, 71040, Note_on_c, 0, 76, 50
1, 71040, Note_on_c, 0, 79, 50
1, 71054, Control_c, 0, 64, 0
1, 71125, Control_c, 0, 64, 127
1, 71160, Note_on_c, 0, 79, 0
1, 71160, Note_on_c, 0, 76, 0
1, 71160, Note_on_c, 0, 72, 45
1, 71160, Note_on_c, 0, 76, 45
1, 71280, Tempo, 833333
1, 71280, Note_on_c, 0, 76, 0
1, 71280, Note_on_c, 0, 72, 0
1, 71280, Note_on_c, 0, 60, 0
1, 71280, Note_on_c, 0, 70, 45
1, 71280, Note_on_c, 0, 74, 45
1, 71280, Note_on_c, 0, 51, 35
1, 71289, Control_c, 0, 64, 0
1, 71319, Control_c, 0, 64, 127
1, 71400, Note_on_c, 0, 51, 0
1, 71400, Note_on_c, 0, 52, 31
1, 71520, Tempo, 860215
1, 71520, Note_on_c, 0, 52, 0
1, 71520, Note_on_c, 0, 74, 0
1, 71520, Note_on_c, 0, 70, 0
1, 71520, Note_on_c, 0, 70, 40
1, 71520, Note_on_c, 0, 67, 40
1, 71520, Note_on_c, 0, 60, 41
1, 71531, Control_c, 0, 64, 0
1, 71562, Control_c, 0, 64, 127
1, 71600, Note_on_c, 0, 70, 0
1, 71600, Note_on_c, 0, 72, 40
1, 71640, Note_on_c, 0, 60, 0
1, 71680, Note_on_c, 0, 72, 0
1, 71680, Note_on_c, 0, 70, 40
1, 71760, Tempo, 895522
1, 71760, Note_on_c, 0, 70, 0
1, 71760, Note_on_c, 0, 67, 0
1, 71760, Note_on_c, 0, 67, 43
1, 71760, Note_on_c, 0, 64, 38
1, 71760, Note_on_c, 0, 60, 41
1, 71771, Control_c, 0, 64, 0
1, 71838, Control_c, 0, 64, 127
1, 71880, Note_on_c, 0, 60, 0
1, 72000, Tempo, 869565
1, 72000, Note_on_c, 0, 64, 0
1, 72000, Note_on_c, 0, 67, 0
1, 72000, Control_c, 0, 64, 0
1, 72000, Note_on_c, 0, 65, 38
1, 72060, Note_on_c, 0, 65, 0
1, 72120, Note_on_c, 0, 70, 27
1, 72120, Note_on_c, 0, 72, 27
1, 72120, Note_on_c, 0, 64, 27
1, 72160, Tempo, 875912
1, 72180, Note_on_c, 0, 64, 0
1, 72180, Note_on_c, 0, 72, 0
1, 72180, Note_on_c, 0, 70, 0
1, 72240, Note_on_c, 0, 64, 41
1, 72300, Note_on_c, 0, 64, 0
1, 72320, Tempo, 882353
1, 72360, Note_on_c, 0, 70, 31
1, 72360, Note_on_c, 0, 72, 31
1, 72360, Note_on_c, 0, 64, 31
1, 72420, Note_on_c, 0, 64, 0
1, 72420, Note_on_c, 0, 72, 0
1, 72420, Note_on_c, 0, 70, 0
1, 72480, Tempo, 888889
1, 72480, Note_on_c, 0, 62, 38
1, 72540, Note_on_c, 0, 62, 0
1, 72600, Tempo, 929944
1, 72600, Note_on_c, 0, 64, 25
1, 72600, Note_on_c, 0, 72, 25
1, 72600, Note_on_c, 0, 70, 25
1, 72660, Note_on_c, 0, 70, 0
1, 72660, Note_on_c, 0, 72, 0
1, 72660, Note_on_c, 0, 64, 0
1, 72720, Tempo, 846621
1, 72720, Note_on_c, 0, 67, 59
1, 72720, Note_on_c, 0, 70, 59
1, 72720, Note_on_c, 0, 36, 49
1, 72833, Control_c, 0, 64, 127
1, 72960, Tempo, 803320
1, 72960, Note_on_c, 0, 70, 0
1, 72960, Note_on_c, 0, 67, 0
1, 72960, Note_on_c, 0, 69, 56
1, 72960, Note_on_c, 0, 72, 56
1, 73080, Tempo, 831601
1, 73080, Note_on_c, 0, 72, 0
1, 73080, Note_on_c, 0, 69, 0
1, 73080, Note_on_c, 0, 70, 56
1, 73080, Note_on_c, 0, 74, 56
1, 73200, Tempo, 846621
1, 73200, Note_on_c, 0, 74, 0
1, 73200, Note_on_c, 0, 70, 0
1, 73200, Note_on_c, 0, 79, 59
1, 73200, Note_on_c, 0, 76, 59
1, 73440, Tempo, 826674
1, 73440, Note_on_c, 0, 36, 0
1, 73440, Note_on_c, 0, 48, 47
1, 73449, Control_c, 0, 64, 0
1, 73553, Control_c, 0, 64, 127
1, 73560, Note_on_c, 0, 48, 0
1, 73680, Tempo, 846621
1, 73680, Note_on_c, 0, 72, 37
1, 73700, Tempo, 851547
1, 73800, Note_on_c, 0, 72, 0
1, 73920, Tempo, 889152
1, 73920, Note_on_c, 0, 60, 37
1, 74040, Note_on_c, 0, 60, 0
1, 74040, Note_on_c, 0, 76, 0
1, 74040, Note_on_c, 0, 79, 0
1, 74040, Note_on_c, 0, 74, 54
1, 74040, Note_on_c, 0, 77, 54
1, 74160, Tempo, 836470
1, 74160, Note_on_c, 0, 77, 0
1, 74160, Note_on_c, 0, 74, 0
1, 74160, Note_on_c, 0, 72, 45
1, 74160, Note_on_c, 0, 76, 45
1, 74160, Note_on_c, 0, 41, 46
1, 74169, Control_c, 0, 64, 0
1, 74202, Control_c, 0, 64, 127
1, 74240, Note_on_c, 0, 76, 0
1, 74240, Note_on_c, 0, 77, 45
1, 74320, Note_on_c, 0, 77, 0
1, 74320, Note_on_c, 0, 76, 45
1, 74400, Tempo, 857143
1, 74400, Note_on_c, 0, 76, 0
1, 74400, Note_on_c, 0, 72, 0
1, 74400, Note_on_c, 0, 69, 41
1, 74400, Note_on_c, 0, 72, 46
1, 74410, Control_c, 0, 64, 0
1, 74471, Control_c, 0, 64, 127
1, 74620, Tempo, 836470
1, 74640, Tempo, 857143
1, 74640, Note_on_c, 0, 72, 0
1, 74640, Note_on_c, 0, 69, 0
1, 74640, Note_on_c, 0, 41, 0
1, 74640, Note_on_c, 0, 69, 43
1, 74650, Control_c, 0, 64, 0
1, 74700, Note_on_c, 0, 69, 0
1, 74760, Note_on_c, 0, 65, 27
1, 74760, Note_on_c, 0, 69, 27
1, 74760, Note_on_c, 0, 72, 33
1, 74820, Note_on_c, 0, 72, 0
1, 74820, Note_on_c, 0, 69, 0
1, 74820, Note_on_c, 0, 65, 0
1, 74880, Tempo, 845070
1, 74880, Note_on_c, 0, 64, 41
1, 74940, Note_on_c, 0, 64, 0
1, 75000, Note_on_c, 0, 72, 29
1, 75000, Note_on_c, 0, 69, 25
1, 75000, Note_on_c, 0, 65, 25
1, 75060, Note_on_c, 0, 65, 0
1, 75060, Note_on_c, 0, 69, 0
1, 75060, Note_on_c, 0, 72, 0
1, 75120, Tempo, 833333
1, 75120, Note_on_c, 0, 65, 44
1, 75180, Note_on_c, 0, 65, 0
1, 75240, Note_on_c, 0, 72, 33
1, 75240, Note_on_c, 0, 69, 27
1, 75240, Note_on_c, 0, 65, 27
1, 75300, Note_on_c, 0, 65, 0
1, 75300, Note_on_c, 0, 69, 0
1, 75300, Note_on_c, 0, 72, 0
1, 75360, Tempo, 871080
1, 75360, Note_on_c, 0, 60, 41
1, 75420, Note_on_c, 0, 60, 0
1, 75480, Note_on_c, 0, 72, 27
1, 75480, Note_on_c, 0, 69, 22
1, 75480, Note_on_c, 0, 65, 22
1, 75540, Note_on_c, 0, 65, 0
1, 75540, Note_on_c, 0, 69, 0
1, 75540, Note_on_c, 0, 72, 0
1, 75580, Tempo, 834144
1, 75600, Tempo, 842697
1, 75600, Note_on_c, 0, 77, 59
1, 75600, Note_on_c, 0, 81, 59
1, 75600, Note_on_c, 0, 37, 51
1, 75635, Control_c, 0, 64, 127
1, 75720, Note_on_c, 0, 37, 0
1, 75840, Tempo, 799574
1, 75840, Note_on_c, 0, 81, 0
1, 75840, Note_on_c, 0, 77, 0
1, 75840, Note_on_c, 0, 76, 53
1, 75840, Note_on_c, 0, 79, 53
1, 75840, Note_on_c, 0, 69, 45
1, 75960, Tempo, 827815
1, 75960, Note_on_c, 0, 69, 0
1, 75960, Note_on_c, 0, 79, 0
1, 75960, Note_on_c, 0, 76, 0
1, 75960, Note_on_c, 0, 74, 53
1, 75960, Note_on_c, 0, 77, 53
1, 76080, Tempo, 842697
1, 76080, Note_on_c, 0, 77, 0
1, 76080, Note_on_c, 0, 74, 0
1, 76080, Note_on_c, 0, 77, 57
1, 76080, Note_on_c, 0, 74, 57
1, 76080, Note_on_c, 0, 57, 47
1, 76200, Note_on_c, 0, 57, 0
1, 76320, Tempo, 822932
1, 76320, Note_on_c, 0, 38, 47
1, 76324, Control_c, 0, 64, 0
1, 76398, Control_c, 0, 64, 127
1, 76440, Note_on_c, 0, 38, 0
1, 76560, Tempo, 842697
1, 76560, Note_on_c, 0, 74, 0
1, 76560, Note_on_c, 0, 77, 0
1, 76560, Note_on_c, 0, 75, 51
1, 76560, Note_on_c, 0, 72, 45
1, 76560, Note_on_c, 0, 50, 37
1, 76580, Tempo, 847697
1, 76680, Note_on_c, 0, 50, 0
1, 76680, Note_on_c, 0, 72, 0
1, 76680, Note_on_c, 0, 75, 0
1, 76680, Note_on_c, 0, 78, 40
1, 76680, Note_on_c, 0, 74, 36
1, 76800, Tempo, 885086
1, 76800, Note_on_c, 0, 74, 0
1, 76800, Note_on_c, 0, 78, 0
1, 76800, Note_on_c, 0, 70, 45
1, 76800, Note_on_c, 0, 74, 51
1, 76800, Note_on_c, 0, 66, 38
1, 76920, Note_on_c, 0, 66, 0
1, 76920, Note_on_c, 0, 74, 0
1, 76920, Note_on_c, 0, 70, 0
1, 76920, Note_on_c, 0, 72, 36
1, 76920, Note_on_c, 0, 75, 41
1, 77040, Tempo, 832755
1, 77040, Note_on_c, 0, 75, 0
1, 77040, Note_on_c, 0, 72, 0
1, 77040, Note_on_c, 0, 69, 45
1, 77040, Note_on_c, 0, 72, 45
1, 77040, Note_on_c, 0, 43, 46
1, 77046, Control_c, 0, 64, 0
1, 77082, Control_c, 0, 64, 127
1, 77120, Note_on_c, 0, 72, 0
1, 77120, Note_on_c, 0, 74, 45
1, 77200, Note_on_c, 0, 74, 0
1, 77200, Note_on_c, 0, 72, 45
1, 77280, Note_on_c, 0, 72, 0
1, 77280, Note_on_c, 0, 69, 0
1, 77280, Note_on_c, 0, 67, 44
1, 77280, Note_on_c, 0, 70, 51
1, 77289, Control_c, 0, 64, 0
1, 77300, Tempo, 839278
1, 77319, Control_c, 0, 64, 127
1, 77500, Tempo, 832755
1, 77520, Tempo, 851064
1, 77520, Note_on_c, 0, 70, 0
1, 77520, Note_on_c, 0, 67, 0
1, 77520, Note_on_c, 0, 43, 0
1, 77520, Note_on_c, 0, 66, 43
1, 77529, Control_c, 0, 64, 0
1, 77580, Note_on_c, 0, 66, 0
1, 77640, Note_on_c, 0, 62, 27
1, 77640, Note_on_c, 0, 67, 27
1, 77640, Note_on_c, 0, 70, 33
1, 77700, Note_on_c, 0, 70, 0
1, 77700, Note_on_c, 0, 67, 0
1, 77700, Note_on_c, 0, 62, 0
1, 77760, Tempo, 845070
1, 77760, Note_on_c, 0, 61, 41
1, 77820, Note_on_c, 0, 61, 0
1, 77880, Note_on_c, 0, 70, 29
1, 77880, Note_on_c, 0, 67, 25
1, 77880, Note_on_c, 0, 62, 25
1, 77940, Note_on_c, 0, 62, 0
1, 77940, Note_on_c, 0, 67, 0
1, 77940, Note_on_c, 0, 70, 0
1, 78000, Tempo, 833333
1, 78000, Note_on_c, 0, 63, 44
1, 78060, Note_on_c, 0, 63, 0
1, 78120, Note_on_c, 0, 70, 33
1, 78120, Note_on_c, 0, 67, 27
1, 78120, Note_on_c, 0, 62, 27
1, 78180, Note_on_c, 0, 62, 0
1, 78180, Note_on_c, 0, 67, 0
1, 78180, Note_on_c, 0, 70, 0
1, 78240, Tempo, 860215
1, 78240, Note_on_c, 0, 62, 41
1, 78300, Note_on_c, 0, 62, 0
1, 78360, Tempo, 929944
1, 78360, Note_on_c, 0, 70, 27
1, 78360, Note_on_c, 0, 67, 22
1, 78360, Note_on_c, 0, 62, 22
1, 78420, Note_on_c, 0, 62, 0
1, 78420, Note_on_c, 0, 67, 0
1, 78420, Note_on_c, 0, 70, 0
1, 78480, Tempo, 846621
1, 78480, Note_on_c, 0, 79, 59
1, 78480, Note_on_c, 0, 82, 59
1, 78480, Note_on_c, 0, 36, 51
1, 78579, Control_c, 0, 64, 127
1, 78600, Note_on_c, 0, 82, 0
1, 78600, Note_on_c, 0, 79, 0
1, 78720, Tempo, 803320
1, 78720, Note_on_c, 0, 76, 56
1, 78720, Note_on_c, 0, 79, 56
1, 78840, Tempo, 831601
1, 78840, Note_on_c, 0, 79, 0
1, 78840, Note_on_c, 0, 76, 0
1, 78840, Note_on_c, 0, 72, 56
1, 78840, Note_on_c, 0, 76, 56
1, 78960, Tempo, 846621
1, 78960, Note_on_c, 0, 76, 0
1, 78960, Note_on_c, 0, 72, 0
1, 78960, Note_on_c, 0, 72, 59
1, 78960, Note_on_c, 0, 69, 59
1, 79200, Tempo, 826674
1, 79200, Note_on_c, 0, 36, 0
1, 79200, Note_on_c, 0, 60, 47
1, 79210, Control_c, 0, 64, 0
1, 79299, Control_c, 0, 64, 127
1, 79320, Note_on_c, 0, 60, 0
1, 79440, Tempo, 846621
1, 79440, Note_on_c, 0, 72, 37
1, 79460, Tempo, 851547
1, 79560, Note_on_c, 0, 72, 0
1, 79680, Tempo, 889152
1, 79680, Note_on_c, 0, 69, 0
1, 79680, Note_on_c, 0, 72, 0
1, 79680, Note_on_c, 0, 70, 46
1, 79680, Note_on_c, 0, 74, 51
1, 79680, Note_on_c, 0, 48, 39
1, 79800, Note_on_c, 0, 48, 0
1, 79920, Tempo, 836470
1, 79920, Note_on_c, 0, 74, 0
1, 79920, Note_on_c, 0, 70, 0
1, 79920, Note_on_c, 0, 67, 45
1, 79920, Note_on_c, 0, 70, 45
1, 79920, Note_on_c, 0, 41, 46
1, 79928, Control_c, 0, 64, 0
1, 79962, Control_c, 0, 64, 127
1, 80000, Note_on_c, 0, 70, 0
1, 80000, Note_on_c, 0, 72, 45
1, 80080, Note_on_c, 0, 72, 0
1, 80080, Note_on_c, 0, 70, 45
1, 80100, Tempo, 888889
1, 80160, Tempo, 952381
1, 80160, Note_on_c, 0, 70, 0
1, 80160, Note_on_c, 0, 41, 0
1, 80160, Note_on_c, 0, 67, 0
1, 80160, Note_on_c, 0, 65, 43
1, 80160, Note_on_c, 0, 69, 45
1, 80160, Note_on_c, 0, 47, 31
1, 80171, Control_c, 0, 64, 0
1, 80195, Control_c, 0, 64, 127
1, 80280, Tempo, 1000000
1, 80280, Note_on_c, 0, 47, 0
1, 80280, Note_on_c, 0, 48, 29
1, 80400, Note_on_c, 0, 48, 0
1, 80400, Note_on_c, 0, 69, 0
1, 80400, Note_on_c, 0, 65, 0
1, 80400, Note_on_c, 0, 57, 30
1, 80415, Control_c, 0, 64, 0
1, 80488, Control_c, 0, 64, 127
1, 80640, Tempo, 610314
1, 80640, Note_on_c, 0, 57, 0
1, 80640, Note_on_c, 0, 36, 42
1, 80648, Control_c, 0, 64, 0
1, 80728, Control_c, 0, 64, 127
1, 80760, Note_on_c, 0, 36, 0
1, 80880, Tempo, 574273
1, 80880, Note_on_c, 0, 57, 46
1, 80880, Note_on_c, 0, 65, 50
1, 80880, Note_on_c, 0, 53, 37
1, 80895, Control_c, 0, 64, 0
1, 80944, Control_c, 0, 64, 127
1, 80960, Note_on_c, 0, 53, 0
1, 80960, Note_on_c, 0, 65, 0
1, 80960, Note_on_c, 0, 67, 47
1, 80960, Note_on_c, 0, 55, 35
1, 81040, Note_on_c, 0, 55, 0
1, 81040, Note_on_c, 0, 67, 0
1, 81040, Note_on_c, 0, 65, 47
1, 81040, Note_on_c, 0, 53, 35
1, 81120, Tempo, 571646
1, 81120, Note_on_c, 0, 53, 0
1, 81120, Note_on_c, 0, 65, 0
1, 81120, Note_on_c, 0, 57, 0
1, 81120, Note_on_c, 0, 57, 43
1, 81120, Note_on_c, 0, 64, 50
1, 81120, Note_on_c, 0, 52, 37
1, 81125, Control_c, 0, 64, 0
1, 81159, Control_c, 0, 64, 127
1, 81240, Tempo, 590377
1, 81240, Note_on_c, 0, 52, 0
1, 81240, Note_on_c, 0, 64, 0
1, 81240, Note_on_c, 0, 62, 47
1, 81240, Note_on_c, 0, 50, 35
1, 81360, Tempo, 566572
1, 81360, Note_on_c, 0, 50, 0
1, 81360, Note_on_c, 0, 62, 0
1, 81360, Note_on_c, 0, 57, 0
1, 81360, Note_on_c, 0, 57, 39
1, 81360, Note_on_c, 0, 65, 53
1, 81360, Note_on_c, 0, 41, 40
1, 81360, Note_on_c, 0, 53, 40
1, 81402, Control_c, 0, 64, 0
1, 81445, Control_c, 0, 64, 127
1, 81480, Tempo, 616270
1, 81600, Tempo, 601624
1, 81600, Note_on_c, 0, 53, 0
1, 81600, Note_on_c, 0, 57, 0
1, 81600, Note_on_c, 0, 65, 0
1, 81600, Note_on_c, 0, 41, 0
1, 81600, Note_on_c, 0, 57, 43
1, 81600, Note_on_c, 0, 64, 51
1, 81600, Note_on_c, 0, 52, 43
1, 81621, Control_c, 0, 64, 0
1, 81690, Note_on_c, 0, 52, 0
1, 81690, Note_on_c, 0, 64, 0
1, 81690, Note_on_c, 0, 57, 0
1, 81706, Control_c, 0, 64, 127
1, 81720, Note_on_c, 0, 62, 48
1, 81720, Note_on_c, 0, 50, 40
1, 81810, Note_on_c, 0, 50, 0
1, 81810, Note_on_c, 0, 62, 0
1, 81840, Tempo, 613309
1, 81840, Note_on_c, 0, 57, 43
1, 81840, Note_on_c, 0, 60, 49
1, 81840, Note_on_c, 0, 48, 41
1, 81854, Control_c, 0, 64, 0
1, 81904, Control_c, 0, 64, 127
1, 81930, Note_on_c, 0, 48, 0
1, 81930, Note_on_c, 0, 60, 0
1, 81930, Note_on_c, 0, 57, 0
1, 81960, Note_on_c, 0, 64, 46
1, 81960, Note_on_c, 0, 52, 39
1, 82050, Note_on_c, 0, 52, 0
1, 82050, Note_on_c, 0, 64, 0
1, 82080, Tempo, 604534
1, 82080, Note_on_c, 0, 57, 39
1, 82080, Note_on_c, 0, 62, 51
1, 82080, Control_c, 0, 64, 0
1, 82080, Note_on_c, 0, 50, 43
1, 82119, Control_c, 0, 64, 127
1, 82170, Note_on_c, 0, 50, 0
1, 82170, Note_on_c, 0, 62, 0
1, 82200, Tempo, 619323
1, 82200, Note_on_c, 0, 64, 48
1, 82200, Note_on_c, 0, 52, 40
1, 82290, Note_on_c, 0, 52, 0
1, 82290, Note_on_c, 0, 64, 0
1, 82320, Tempo, 574273
1, 82320, Note_on_c, 0, 57, 0
1, 82320, Note_on_c, 0, 57, 46
1, 82320, Note_on_c, 0, 65, 50
1, 82320, Note_on_c, 0, 53, 37
1, 82331, Control_c, 0, 64, 0
1, 82366, Control_c, 0, 64, 127
1, 82400, Note_on_c, 0, 53, 0
1, 82400, Note_on_c, 0, 65, 0
1, 82400, Note_on_c, 0, 67, 47
1, 82400, Note_on_c, 0, 55, 35
1, 82480, Note_on_c, 0, 55, 0
1, 82480, Note_on_c, 0, 67, 0
1, 82480, Note_on_c, 0, 65, 47
1, 82480, Note_on_c, 0, 53, 35
1, 82560, Tempo, 571646
1, 82560, Note_on_c, 0, 53, 0
1, 82560, Note_on_c, 0, 65, 0
1, 82560, Note_on_c, 0, 57, 0
1, 82560, Note_on_c, 0, 57, 43
1, 82560, Note_on_c, 0, 64, 50
1, 82560, Note_on_c, 0, 52, 37
1, 82574, Control_c, 0, 64, 0
1, 82599, Control_c, 0, 64, 127
1, 82680, Tempo, 590377
1, 82680, Note_on_c, 0, 52, 0
1, 82680, Note_on_c, 0, 64, 0
1, 82680, Note_on_c, 0, 62, 47
1, 82680, Note_on_c, 0, 50, 35
1, 82800, Tempo, 566572
1, 82800, Note_on_c, 0, 50, 0
1, 82800, Note_on_c, 0, 62, 0
1, 82800, Note_on_c, 0, 57, 0
1, 82800, Note_on_c, 0, 57, 39
1, 82800, Note_on_c, 0, 65, 53
1, 82800, Note_on_c, 0, 41, 40
1, 82800, Note_on_c, 0, 53, 40
1, 82820, Control_c, 0, 64, 0
1, 82885, Control_c, 0, 64, 127
1, 82920, Tempo, 616270
1, 83040, Tempo, 601624
1, 83040, Note_on_c, 0, 53, 0
1, 83040, Note_on_c, 0, 57, 0
1, 83040, Note_on_c, 0, 65, 0
1, 83040, Note_on_c, 0, 41, 0
1, 83040, Note_on_c, 0, 57, 43
1, 83040, Note_on_c, 0, 64, 51
1, 83040, Note_on_c, 0, 52, 43
1, 83061, Control_c, 0, 64, 0
1, 83130, Note_on_c, 0, 52, 0
1, 83130, Note_on_c, 0, 64, 0
1, 83130, Note_on_c, 0, 57, 0
1, 83139, Control_c, 0, 64, 127
1, 83160, Note_on_c, 0, 62, 48
1, 83160, Note_on_c, 0, 50, 40
1, 83250, Note_on_c, 0, 50, 0
1, 83250, Note_on_c, 0, 62, 0
1, 83280, Tempo, 613309
1, 83280, Note_on_c, 0, 57, 43
1, 83280, Note_on_c, 0, 60, 49
1, 83280, Note_on_c, 0, 48, 41
1, 83293, Control_c, 0, 64, 0
1, 83370, Note_on_c, 0, 48, 0
1, 83370, Note_on_c, 0, 60, 0
1, 83370, Note_on_c, 0, 57, 0
1, 83400, Note_on_c, 0, 64, 46
1, 83400, Control_c, 0, 64, 127
1, 83400, Note_on_c, 0, 52, 39
1, 83490, Note_on_c, 0, 52, 0
1, 83490, Note_on_c, 0, 64, 0
1, 83520, Tempo, 604534
1, 83520, Note_on_c, 0, 57, 39
1, 83520, Note_on_c, 0, 62, 51
1, 83520, Control_c, 0, 64, 0
1, 83520, Note_on_c, 0, 50, 43
1, 83559, Control_c, 0, 64, 127
1, 83610, Note_on_c, 0, 50, 0
1, 83610, Note_on_c, 0, 62, 0
1, 83640, Tempo, 619323
1, 83640, Note_on_c, 0, 64, 48
1, 83640, Note_on_c, 0, 52, 40
1, 83730, Note_on_c, 0, 52, 0
1, 83730, Note_on_c, 0, 64, 0
1, 83760, Tempo, 574273
1, 83760, Note_on_c, 0, 57, 0
1, 83760, Note_on_c, 0, 57, 46
1, 83760, Note_on_c, 0, 65, 50
1, 83760, Note_on_c, 0, 53, 37
1, 83771, Control_c, 0, 64, 0
1, 83806, Control_c, 0, 64, 127
1, 83840, Note_on_c, 0, 53, 0
1, 83840, Note_on_c, 0, 65, 0
1, 83840, Note_on_c, 0, 67, 47
1, 83840, Note_on_c, 0, 55, 35
1, 83880, Tempo, 593178
1, 83920, Note_on_c, 0, 55, 0
1, 83920, Note_on_c, 0, 67, 0
1, 83920, Note_on_c, 0, 65, 47
1, 83920, Note_on_c, 0, 53, 35
1, 84000, Tempo, 571646
1, 84000, Note_on_c, 0, 53, 0
1, 84000, Note_on_c, 0, 65, 0
1, 84000, Note_on_c, 0, 57, 0
1, 84000, Note_on_c, 0, 57, 43
1, 84000, Note_on_c, 0, 64, 50
1, 84000, Note_on_c, 0, 52, 37
1, 84014, Control_c, 0, 64, 0
1, 84039, Control_c, 0, 64, 127
1, 84120, Tempo, 668524
1, 84120, Note_on_c, 0, 52, 0
1, 84120, Note_on_c, 0, 64, 0
1, 84120, Note_on_c, 0, 62, 47
1, 84120, Note_on_c, 0, 50, 35
1, 84240, Tempo, 616270
1, 84240, Note_on_c, 0, 50, 0
1, 84240, Note_on_c, 0, 62, 0
1, 84240, Note_on_c, 0, 57, 0
1, 84240, Note_on_c, 0, 57, 51
1, 84240, Note_on_c, 0, 65, 60
1, 84240, Note_on_c, 0, 53, 40
1, 84282, Control_c, 0, 64, 0
1, 84325, Control_c, 0, 64, 127
1, 84360, Tempo, 651254
1, 84360, Note_on_c, 0, 53, 0
1, 84360, Note_on_c, 0, 65, 0
1, 84360, Note_on_c, 0, 64, 48
1, 84360, Note_on_c, 0, 52, 40
1, 84450, Note_on_c, 0, 52, 0
1, 84450, Note_on_c, 0, 64, 0
1, 84480, Tempo, 628536
1, 84480, Note_on_c, 0, 57, 0
1, 84480, Note_on_c, 0, 57, 48
1, 84480, Note_on_c, 0, 62, 57
1, 84480, Note_on_c, 0, 50, 43
1, 84501, Control_c, 0, 64, 0
1, 84570, Note_on_c, 0, 50, 0
1, 84570, Note_on_c, 0, 62, 0
1, 84570, Note_on_c, 0, 57, 0
1, 84579, Control_c, 0, 64, 127
1, 84600, Tempo, 658039
1, 84600, Note_on_c, 0, 64, 48
1, 84600, Note_on_c, 0, 52, 40
1, 84690, Note_on_c, 0, 52, 0
1, 84690, Note_on_c, 0, 64, 0
1, 84720, Tempo, 631712
1, 84720, Note_on_c, 0, 57, 45
1, 84720, Note_on_c, 0, 60, 54
1, 84720, Note_on_c, 0, 48, 41
1, 84723, Control_c, 0, 64, 0
1, 84798, Control_c, 0, 64, 127
1, 84810, Note_on_c, 0, 48, 0
1, 84810, Note_on_c, 0, 60, 0
1, 84810, Note_on_c, 0, 57, 0
1, 84840, Tempo, 705882
1, 84840, Note_on_c, 0, 64, 46
1, 84840, Note_on_c, 0, 52, 39
1, 84930, Note_on_c, 0, 52, 0
1, 84930, Note_on_c, 0, 64, 0
1, 84960, Tempo, 604534
1, 84960, Note_on_c, 0, 57, 39
1, 84960, Note_on_c, 0, 62, 51
1, 84960, Control_c, 0, 64, 0
1, 84960, Note_on_c, 0, 50, 43
1, 84999, Control_c, 0, 64, 127
1, 85050, Note_on_c, 0, 50, 0
1, 85050, Note_on_c, 0, 62, 0
1, 85080, Tempo, 619323
1, 85080, Note_on_c, 0, 64, 48
1, 85080, Note_on_c, 0, 52, 40
1, 85170, Note_on_c, 0, 52, 0
1, 85170, Note_on_c, 0, 64, 0
1, 85200, Tempo, 574273
1, 85200, Note_on_c, 0, 57, 0
1, 85200, Note_on_c, 0, 57, 46
1, 85200, Note_on_c, 0, 65, 50
1, 85200, Note_on_c, 0, 53, 37
1, 85214, Control_c, 0, 64, 0
1, 85246, Control_c, 0, 64, 127
1, 85280, Note_on_c, 0, 53, 0
1, 85280, Note_on_c, 0, 65, 0
1, 85280, Note_on_c, 0, 67, 47
1, 85280, Note_on_c, 0, 55, 35
1, 85320, Tempo, 593178
1, 85360, Note_on_c, 0, 55, 0
1, 85360, Note_on_c, 0, 67, 0
1, 85360, Note_on_c, 0, 65, 47
1, 85360, Note_on_c, 0, 53, 35
1, 85440, Tempo, 571646
1, 85440, Note_on_c, 0, 53, 0
1, 85440, Note_on_c, 0, 65, 0
1, 85440, Note_on_c, 0, 57, 0
1, 85440, Note_on_c, 0, 57, 43
1, 85440, Note_on_c, 0, 64, 50
1, 85440, Note_on_c, 0, 52, 37
1, 85454, Control_c, 0, 64, 0
1, 85479, Control_c, 0, 64, 127
1, 85560, Tempo, 622407
1, 85560, Note_on_c, 0, 52, 0
1, 85560, Note_on_c, 0, 64, 0
1, 85560, Note_on_c, 0, 62, 47
1, 85560, Note_on_c, 0, 50, 35
1, 85680, Tempo, 616270
1, 85680, Note_on_c, 0, 50, 0
1, 85680, Note_on_c, 0, 62, 0
1, 85680, Note_on_c, 0, 57, 0
1, 85680, Note_on_c, 0, 58, 51
1, 85680, Note_on_c, 0, 65, 57
1, 85680, Note_on_c, 0, 43, 40
1, 85680, Note_on_c, 0, 53, 40
1, 85693, Control_c, 0, 64, 0
1, 85765, Control_c, 0, 64, 127
1, 85800, Tempo, 651254
1, 85800, Note_on_c, 0, 53, 0
1, 85800, Note_on_c, 0, 65, 0
1, 85800, Note_on_c, 0, 64, 48
1, 85800, Note_on_c, 0, 52, 40
1, 85890, Note_on_c, 0, 52, 0
1, 85890, Note_on_c, 0, 64, 0
1, 85920, Tempo, 628536
1, 85920, Note_on_c, 0, 58, 0
1, 85920, Note_on_c, 0, 58, 48
1, 85920, Note_on_c, 0, 62, 53
1, 85920, Note_on_c, 0, 50, 43
1, 85941, Control_c, 0, 64, 0
1, 86010, Note_on_c, 0, 50, 0
1, 86010, Note_on_c, 0, 62, 0
1, 86010, Note_on_c, 0, 58, 0
1, 86019, Control_c, 0, 64, 127
1, 86040, Tempo, 658039
1, 86040, Note_on_c, 0, 65, 48
1, 86040, Note_on_c, 0, 53, 40
1, 86130, Note_on_c, 0, 53, 0
1, 86130, Note_on_c, 0, 65, 0
1, 86160, Tempo, 631712
1, 86160, Note_on_c, 0, 58, 45
1, 86160, Note_on_c, 0, 64, 54
1, 86160, Note_on_c, 0, 52, 41
1, 86174, Control_c, 0, 64, 0
1, 86252, Control_c, 0, 64, 127
1, 86400, Tempo, 600000
1, 86400, Note_on_c, 0, 52, 0
1, 86400, Note_on_c, 0, 43, 0
1, 86400, Note_on_c, 0, 58, 0
1, 86400, Note_on_c, 0, 64, 0
1, 86400, Note_on_c, 0, 36, 54
1, 86402, Control_c, 0, 64, 0
1, 86492, Control_c, 0, 64, 127
1, 86640, Tempo, 591133
1, 86640, Note_on_c, 0, 36, 0
1, 86640, Note_on_c, 0, 79, 67
1, 86640, Note_on_c, 0, 82, 67
1, 86640, Control_c, 0, 64, 0
1, 86640, Note_on_c, 0, 73, 57
1, 86672, Control_c, 0, 64, 127
1, 86700, Tempo, 594059
1, 86720, Note_on_c, 0, 82, 0
1, 86720, Note_on_c, 0, 84, 57
1, 86760, Tempo, 597015
1, 86760, Note_on_c, 0, 73, 0
1, 86760, Note_on_c, 0, 76, 52
1, 86800, Note_on_c, 0, 84, 0
1, 86800, Note_on_c, 0, 82, 57
1, 86820, Tempo, 600000
1, 86880, Tempo, 603015
1, 86880, Note_on_c, 0, 82, 0
1, 86880, Note_on_c, 0, 76, 0
1, 86880, Note_on_c, 0, 79, 0
1, 86880, Note_on_c, 0, 78, 65
1, 86880, Note_on_c, 0, 81, 65
1, 86880, Note_on_c, 0, 72, 57
1, 86891, Control_c, 0, 64, 0
1, 86940, Tempo, 606061
1, 86960, Note_on_c, 0, 81, 0
1, 86960, Note_on_c, 0, 82, 57
1, 86961, Control_c, 0, 64, 127
1, 87000, Tempo, 609137
1, 87000, Note_on_c, 0, 72, 0
1, 87000, Note_on_c, 0, 75, 52
1, 87040, Note_on_c, 0, 82, 0
1, 87040, Note_on_c, 0, 81, 57
1, 87060, Tempo, 612245
1, 87092, Control_c, 0, 64, 0
1, 87100, Tempo, 615385
1, 87120, Tempo, 662983
1, 87120, Note_on_c, 0, 81, 0
1, 87120, Note_on_c, 0, 75, 0
1, 87120, Note_on_c, 0, 78, 0
1, 87120, Note_on_c, 0, 77, 66
1, 87120, Note_on_c, 0, 80, 66
1, 87120, Note_on_c, 0, 71, 57
1, 87240, Note_on_c, 0, 71, 0
1, 87360, Tempo, 600000
1, 87360, Note_on_c, 0, 80, 0
1, 87360, Note_on_c, 0, 77, 0
1, 87360, Note_on_c, 0, 89, 78
1, 87360, Note_on_c, 0, 71, 65
1, 87420, Note_on_c, 0, 71, 0
1, 87420, Note_on_c, 0, 89, 0
1, 87480, Tempo, 621762
1, 87480, Note_on_c, 0, 77, 70
1, 87480, Note_on_c, 0, 80, 70
1, 87480, Note_on_c, 0, 74, 56
1, 87540, Note_on_c, 0, 74, 0
1, 87540, Note_on_c, 0, 80, 0
1, 87540, Note_on_c, 0, 77, 0
1, 87600, Tempo, 631579
1, 87600, Note_on_c, 0, 95, 76
1, 87600, Note_on_c, 0, 68, 65
1, 87720, Note_on_c, 0, 68, 0
1, 87720, Note_on_c, 0, 95, 0
1, 87840, Tempo, 600000
1, 87840, Note_on_c, 0, 35, 54
1, 87854, Control_c, 0, 64, 127
1, 88080, Tempo, 591133
1, 88080, Note_on_c, 0, 35, 0
1, 88080, Note_on_c, 0, 77, 67
1, 88080, Note_on_c, 0, 80, 67
1, 88080, Note_on_c, 0, 71, 57
1, 88084, Control_c, 0, 64, 0
1, 88100, Tempo, 585366
1, 88112, Control_c, 0, 64, 127
1, 88140, Tempo, 588235
1, 88160, Note_on_c, 0, 80, 0
1, 88160, Note_on_c, 0, 82, 57
1, 88180, Tempo, 591133
1, 88200, Note_on_c, 0, 71, 0
1, 88200, Note_on_c, 0, 74, 52
1, 88220, Tempo, 594059
1, 88240, Note_on_c, 0, 82, 0
1, 88240, Note_on_c, 0, 80, 57
1, 88260, Tempo, 597015
1, 88300, Tempo, 600000
1, 88320, Note_on_c, 0, 80, 0
1, 88320, Note_on_c, 0, 74, 0
1, 88320, Note_on_c, 0, 77, 0
1, 88320, Note_on_c, 0, 76, 65
1, 88320, Note_on_c, 0, 79, 65
1, 88320, Note_on_c, 0, 70, 57
1, 88326, Control_c, 0, 64, 0
1, 88340, Tempo, 603015
1, 88363, Control_c, 0, 64, 127
1, 88380, Tempo, 606061
1, 88400, Note_on_c, 0, 79, 0
1, 88400, Note_on_c, 0, 80, 57
1, 88420, Tempo, 609137
1, 88440, Note_on_c, 0, 70, 0
1, 88440, Note_on_c, 0, 73, 52
1, 88460, Tempo, 612245
1, 88480, Note_on_c, 0, 80, 0
1, 88480, Note_on_c, 0, 79, 57
1, 88500, Tempo, 615385
1, 88520, Tempo, 618557
1, 88532, Control_c, 0, 64, 0
1, 88540, Tempo, 615385
1, 88560, Tempo, 685714
1, 88560, Note_on_c, 0, 79, 0
1, 88560, Note_on_c, 0, 73, 0
1, 88560, Note_on_c, 0, 76, 0
1, 88560, Note_on_c, 0, 75, 66
1, 88560, Note_on_c, 0, 78, 66
1, 88560, Note_on_c, 0, 69, 57
1, 88680, Note_on_c, 0, 69, 0
1, 88800, Tempo, 600000
1, 88800, Note_on_c, 0, 78, 0
1, 88800, Note_on_c, 0, 75, 0
1, 88800, Note_on_c, 0, 87, 78
1, 88800, Note_on_c, 0, 71, 65
1, 88860, Note_on_c, 0, 71, 0
1, 88860, Note_on_c, 0, 87, 0
1, 88920, Tempo, 621762
1, 88920, Note_on_c, 0, 75, 70
1, 88920, Note_on_c, 0, 78, 70
1, 88920, Note_on_c, 0, 72, 56
1, 88980, Note_on_c, 0, 72, 0
1, 88980, Note_on_c, 0, 78, 0
1, 88980, Note_on_c, 0, 75, 0
1, 89040, Tempo, 638298
1, 89040, Note_on_c, 0, 93, 76
1, 89040, Note_on_c, 0, 66, 65
1, 89160, Note_on_c, 0, 66, 0
1, 89160, Note_on_c, 0, 93, 0
1, 89280, Tempo, 600000
1, 89280, Note_on_c, 0, 54, 54
1, 89306, Control_c, 0, 64, 127
1, 89400, Note_on_c, 0, 54, 0
1, 89520, Tempo, 579710
1, 89520, Note_on_c, 0, 75, 58
1, 89520, Note_on_c, 0, 78, 74
1, 89520, Note_on_c, 0, 69, 63
1, 89537, Control_c, 0, 64, 0
1, 89586, Control_c, 0, 64, 127
1, 89600, Note_on_c, 0, 78, 0
1, 89600, Note_on_c, 0, 80, 63
1, 89640, Note_on_c, 0, 69, 0
1, 89640, Note_on_c, 0, 75, 0
1, 89640, Note_on_c, 0, 72, 58
1, 89660, Tempo, 582524
1, 89680, Note_on_c, 0, 80, 0
1, 89680, Note_on_c, 0, 78, 63
1, 89760, Note_on_c, 0, 78, 0
1, 89760, Note_on_c, 0, 72, 0
1, 89760, Note_on_c, 0, 74, 56
1, 89760, Note_on_c, 0, 77, 72
1, 89760, Note_on_c, 0, 68, 61
1, 89771, Control_c, 0, 64, 0
1, 89780, Tempo, 585366
1, 89815, Control_c, 0, 64, 127
1, 89840, Note_on_c, 0, 77, 0
1, 89840, Note_on_c, 0, 78, 63
1, 89880, Note_on_c, 0, 68, 0
1, 89880, Note_on_c, 0, 74, 0
1, 89880, Note_on_c, 0, 71, 57
1, 89900, Tempo, 588235
1, 89920, Note_on_c, 0, 78, 0
1, 89920, Note_on_c, 0, 77, 63
1, 90000, Note_on_c, 0, 77, 0
1, 90000, Note_on_c, 0, 71, 0
1, 90000, Note_on_c, 0, 73, 54
1, 90000, Note_on_c, 0, 76, 71
1, 90000, Note_on_c, 0, 67, 59
1, 90008, Control_c, 0, 64, 0
1, 90020, Tempo, 591133
1, 90043, Control_c, 0, 64, 127
1, 90080, Note_on_c, 0, 76, 0
1, 90080, Note_on_c, 0, 78, 61
1, 90120, Note_on_c, 0, 67, 0
1, 90120, Note_on_c, 0, 73, 0
1, 90120, Note_on_c, 0, 70, 53
1, 90160, Tempo, 594059
1, 90160, Note_on_c, 0, 78, 0
1, 90160, Note_on_c, 0, 76, 60
1, 90240, Note_on_c, 0, 76, 0
1, 90240, Note_on_c, 0, 70, 0
1, 90240, Note_on_c, 0, 72, 54
1, 90240, Note_on_c, 0, 75, 69
1, 90240, Note_on_c, 0, 66, 59
1, 90249, Control_c, 0, 64, 0
1, 90280, Tempo, 597015
1, 90289, Control_c, 0, 64, 127
1, 90320, Note_on_c, 0, 75, 0
1, 90320, Note_on_c, 0, 77, 59
1, 90360, Note_on_c, 0, 66, 0
1, 90360, Note_on_c, 0, 72, 0
1, 90360, Note_on_c, 0, 69, 52
1, 90400, Tempo, 600000
1, 90400, Note_on_c, 0, 77, 0
1, 90400, Note_on_c, 0, 75, 59
1, 90480, Note_on_c, 0, 75, 0
1, 90480, Note_on_c, 0, 69, 0
1, 90480, Note_on_c, 0, 71, 52
1, 90480, Note_on_c, 0, 74, 67
1, 90480, Note_on_c, 0, 65, 57
1, 90500, Control_c, 0, 64, 0
1, 90520, Tempo, 603015
1, 90549, Control_c, 0, 64, 127
1, 90560, Note_on_c, 0, 74, 0
1, 90560, Note_on_c, 0, 75, 55
1, 90600, Note_on_c, 0, 65, 0
1, 90600, Note_on_c, 0, 71, 0
1, 90600, Note_on_c, 0, 68, 50
1, 90640, Note_on_c, 0, 75, 0
1, 90640, Note_on_c, 0, 74, 55
1, 90660, Tempo, 606061
1, 90720, Note_on_c, 0, 74, 0
1, 90720, Note_on_c, 0, 68, 0
1, 90720, Note_on_c, 0, 70, 51
1, 90720, Note_on_c, 0, 73, 65
1, 90720, Note_on_c, 0, 65, 56
1, 90729, Control_c, 0, 64, 0
1, 90763, Control_c, 0, 64, 127
1, 90780, Tempo, 609137
1, 90800, Note_on_c, 0, 73, 0
1, 90800, Note_on_c, 0, 75, 56
1, 90840, Note_on_c, 0, 65, 0
1, 90840, Note_on_c, 0, 70, 0
1, 90840, Note_on_c, 0, 67, 49
1, 90880, Note_on_c, 0, 75, 0
1, 90880, Note_on_c, 0, 73, 55
1, 90900, Tempo, 612245
1, 90960, Tempo, 666667
1, 90960, Note_on_c, 0, 73, 0
1, 90960, Note_on_c, 0, 67, 0
1, 90960, Note_on_c, 0, 70, 49
1, 90960, Note_on_c, 0, 72, 63
1, 90960, Note_on_c, 0, 64, 53
1, 90969, Control_c, 0, 64, 0
1, 91000, Control_c, 0, 64, 127
1, 91040, Note_on_c, 0, 72, 0
1, 91040, Note_on_c, 0, 74, 54
1, 91080, Note_on_c, 0, 64, 0
1, 91080, Note_on_c, 0, 70, 0
1, 91080, Note_on_c, 0, 67, 48
1, 91120, Tempo, 800000
1, 91120, Note_on_c, 0, 74, 0
1, 91120, Note_on_c, 0, 72, 54
1, 91200, Tempo, 645161
1, 91200, Note_on_c, 0, 72, 0
1, 91200, Note_on_c, 0, 67, 0
1, 91200, Note_on_c, 0, 82, 68
1, 91200, Note_on_c, 0, 74, 68
1, 91200, Note_on_c, 0, 48, 52
1, 91214, Control_c, 0, 64, 0
1, 91263, Control_c, 0, 64, 127
1, 91280, Note_on_c, 0, 74, 0
1, 91280, Note_on_c, 0, 72, 56
1, 91360, Note_on_c, 0, 72, 0
1, 91360, Note_on_c, 0, 74, 56
1, 91440, Tempo, 722892
1, 91440, Note_on_c, 0, 74, 0
1, 91440, Note_on_c, 0, 48, 0
1, 91440, Note_on_c, 0, 82, 0
1, 91440, Note_on_c, 0, 72, 61
1, 91440, Note_on_c, 0, 81, 69
1, 91440, Note_on_c, 0, 41, 56
1, 91445, Control_c, 0, 64, 0
1, 91486, Control_c, 0, 64, 127
1, 91560, Tempo, 625000
1, 91560, Note_on_c, 0, 81, 0
1, 91560, Note_on_c, 0, 72, 0
1, 91560, Note_on_c, 0, 77, 48
1, 91620, Note_on_c, 0, 77, 0
1, 91620, Note_on_c, 0, 79, 48
1, 91680, Tempo, 648649
1, 91680, Note_on_c, 0, 79, 0
1, 91680, Note_on_c, 0, 41, 0
1, 91680, Note_on_c, 0, 69, 57
1, 91680, Note_on_c, 0, 77, 57
1, 91680, Note_on_c, 0, 59, 49
1, 91688, Control_c, 0, 64, 0
1, 91744, Control_c, 0, 64, 127
1, 91800, Note_on_c, 0, 59, 0
1, 91800, Note_on_c, 0, 77, 0
1, 91800, Note_on_c, 0, 74, 57
1, 91800, Note_on_c, 0, 60, 49
1, 91920, Note_on_c, 0, 60, 0
1, 91920, Note_on_c, 0, 74, 0
1, 91920, Note_on_c, 0, 69, 0
1, 91920, Note_on_c, 0, 72, 63
1, 91920, Note_on_c, 0, 69, 54
1, 91925, Control_c, 0, 64, 0
1, 91994, Control_c, 0, 64, 127
1, 92160, Tempo, 615258
1, 92160, Note_on_c, 0, 69, 0
1, 92160, Note_on_c, 0, 72, 0
1, 92160, Control_c, 0, 64, 0
1, 92160, Note_on_c, 0, 36, 42
1, 92248, Control_c, 0, 64, 127
1, 92280, Note_on_c, 0, 36, 0
1, 92400, Tempo, 578927
1, 92400, Note_on_c, 0, 57, 46
1, 92400, Note_on_c, 0, 65, 50
1, 92400, Note_on_c, 0, 53, 37
1, 92415, Control_c, 0, 64, 0
1, 92464, Control_c, 0, 64, 127
1, 92480, Note_on_c, 0, 53, 0
1, 92480, Note_on_c, 0, 65, 0
1, 92480, Note_on_c, 0, 67, 47
1, 92480, Note_on_c, 0, 55, 35
1, 92560, Note_on_c, 0, 55, 0
1, 92560, Note_on_c, 0, 67, 0
1, 92560, Note_on_c, 0, 65, 47
1, 92560, Note_on_c, 0, 53, 35
1, 92640, Tempo, 576258
1, 92640, Note_on_c, 0, 53, 0
1, 92640, Note_on_c, 0, 65, 0
1, 92640, Note_on_c, 0, 57, 0
1, 92640, Note_on_c, 0, 57, 43
1, 92640, Note_on_c, 0, 64, 50
1, 92640, Note_on_c, 0, 52, 37
1, 92645, Control_c, 0, 64, 0
1, 92679, Control_c, 0, 64, 127
1, 92760, Tempo, 595120
1, 92760, Note_on_c, 0, 52, 0
1, 92760, Note_on_c, 0, 64, 0
1, 92760, Note_on_c, 0, 62, 47
1, 92760, Note_on_c, 0, 50, 35
1, 92880, Tempo, 571157
1, 92880, Note_on_c, 0, 50, 0
1, 92880, Note_on_c, 0, 62, 0
1, 92880, Note_on_c, 0, 57, 0
1, 92880, Note_on_c, 0, 57, 39
1, 92880, Note_on_c, 0, 65, 53
1, 92880, Note_on_c, 0, 53, 40
1, 92880, Note_on_c, 0, 41, 40
1, 92922, Control_c, 0, 64, 0
1, 92965, Control_c, 0, 64, 127
1, 93000, Tempo, 621247
1, 93120, Tempo, 606489
1, 93120, Note_on_c, 0, 41, 0
1, 93120, Note_on_c, 0, 57, 0
1, 93120, Note_on_c, 0, 65, 0
1, 93120, Note_on_c, 0, 53, 0
1, 93120, Note_on_c, 0, 57, 43
1, 93120, Note_on_c, 0, 64, 51
1, 93120, Note_on_c, 0, 52, 43
1, 93141, Control_c, 0, 64, 0
1, 93210, Note_on_c, 0, 52, 0
1, 93210, Note_on_c, 0, 64, 0
1, 93210, Note_on_c, 0, 57, 0
1, 93226, Control_c, 0, 64, 127
1, 93240, Note_on_c, 0, 62, 48
1, 93240, Note_on_c, 0, 50, 40
1, 93330, Note_on_c, 0, 50, 0
1, 93330, Note_on_c, 0, 62, 0
1, 93360, Tempo, 618302
1, 93360, Note_on_c, 0, 57, 43
1, 93360, Note_on_c, 0, 60, 49
1, 93360, Note_on_c, 0, 48, 41
1, 93374, Control_c, 0, 64, 0
1, 93424, Control_c, 0, 64, 127
1, 93450, Note_on_c, 0, 48, 0
1, 93450, Note_on_c, 0, 60, 0
1, 93450, Note_on_c, 0, 57, 0
1, 93480, Note_on_c, 0, 64, 46
1, 93480, Note_on_c, 0, 52, 39
1, 93570, Note_on_c, 0, 52, 0
1, 93570, Note_on_c, 0, 64, 0
1, 93600, Tempo, 609446
1, 93600, Note_on_c, 0, 57, 39
1, 93600, Note_on_c, 0, 62, 51
1, 93600, Note_on_c, 0, 50, 43
1, 93600, Control_c, 0, 64, 0
1, 93639, Control_c, 0, 64, 127
1, 93690, Note_on_c, 0, 50, 0
1, 93690, Note_on_c, 0, 62, 0
1, 93720, Tempo, 624350
1, 93720, Note_on_c, 0, 64, 48
1, 93720, Note_on_c, 0, 52, 40
1, 93810, Note_on_c, 0, 52, 0
1, 93810, Note_on_c, 0, 64, 0
1, 93840, Tempo, 578927
1, 93840, Note_on_c, 0, 57, 0
1, 93840, Note_on_c, 0, 57, 46
1, 93840, Note_on_c, 0, 65, 50
1, 93840, Note_on_c, 0, 53, 37
1, 93851, Control_c, 0, 64, 0
1, 93886, Control_c, 0, 64, 127
1, 93920, Note_on_c, 0, 53, 0
1, 93920, Note_on_c, 0, 65, 0
1, 93920, Note_on_c, 0, 67, 47
1, 93920, Note_on_c, 0, 55, 35
1, 94000, Note_on_c, 0, 55, 0
1, 94000, Note_on_c, 0, 67, 0
1, 94000, Note_on_c, 0, 65, 47
1, 94000, Note_on_c, 0, 53, 35
1, 94080, Tempo, 576258
1, 94080, Note_on_c, 0, 53, 0
1, 94080, Note_on_c, 0, 65, 0
1, 94080, Note_on_c, 0, 57, 0
1, 94080, Note_on_c, 0, 57, 43
1, 94080, Note_on_c, 0, 64, 50
1, 94080, Note_on_c, 0, 52, 37
1, 94094, Control_c, 0, 64, 0
1, 94119, Control_c, 0, 64, 127
1, 94200, Tempo, 595120
1, 94200, Note_on_c, 0, 52, 0
1, 94200, Note_on_c, 0, 64, 0
1, 94200, Note_on_c, 0, 62, 47
1, 94200, Note_on_c, 0, 50, 35
1, 94320, Tempo, 571157
1, 94320, Note_on_c, 0, 50, 0
1, 94320, Note_on_c, 0, 62, 0
1, 94320, Note_on_c, 0, 57, 0
1, 94320, Note_on_c, 0, 57, 39
1, 94320, Note_on_c, 0, 65, 53
1, 94320, Note_on_c, 0, 41, 40
1, 94320, Note_on_c, 0, 53, 40
1, 94340, Control_c, 0, 64, 0
1, 94405, Control_c, 0, 64, 127
1, 94440, Tempo, 621247
1, 94560, Tempo, 606489
1, 94560, Note_on_c, 0, 53, 0
1, 94560, Note_on_c, 0, 57, 0
1, 94560, Note_on_c, 0, 65, 0
1, 94560, Note_on_c, 0, 41, 0
1, 94560, Note_on_c, 0, 57, 43
1, 94560, Note_on_c, 0, 64, 51
1, 94560, Note_on_c, 0, 52, 43
1, 94581, Control_c, 0, 64, 0
1, 94650, Note_on_c, 0, 52, 0
1, 94650, Note_on_c, 0, 64, 0
1, 94650, Note_on_c, 0, 57, 0
1, 94659, Control_c, 0, 64, 127
1, 94680, Note_on_c, 0, 62, 48
1, 94680, Note_on_c, 0, 50, 40
1, 94770, Note_on_c, 0, 50, 0
1, 94770, Note_on_c, 0, 62, 0
1, 94800, Tempo, 618302
1, 94800, Note_on_c, 0, 57, 43
1, 94800, Note_on_c, 0, 60, 49
1, 94800, Note_on_c, 0, 48, 41
1, 94813, Control_c, 0, 64, 0
1, 94890, Note_on_c, 0, 48, 0
1, 94890, Note_on_c, 0, 60, 0
1, 94890, Note_on_c, 0, 57, 0
1, 94920, Note_on_c, 0, 64, 46
1, 94920, Control_c, 0, 64, 127
1, 94920, Note_on_c, 0, 52, 39
1, 95010, Note_on_c, 0, 52, 0
1, 95010, Note_on_c, 0, 64, 0
1, 95040, Tempo, 609446
1, 95040, Note_on_c, 0, 57, 39
1, 95040, Note_on_c, 0, 62, 51
1, 95040, Note_on_c, 0, 50, 43
1, 95040, Control_c, 0, 64, 0
1, 95079, Control_c, 0, 64, 127
1, 95130, Note_on_c, 0, 50, 0
1, 95130, Note_on_c, 0, 62, 0
1, 95160, Tempo, 624350
1, 95160, Note_on_c, 0, 64, 48
1, 95160, Note_on_c, 0, 52, 40
1, 95250, Note_on_c, 0, 52, 0
1, 95250, Note_on_c, 0, 64, 0
1, 95280, Tempo, 578927
1, 95280, Note_on_c, 0, 57, 0
1, 95280, Note_on_c, 0, 57, 46
1, 95280, Note_on_c, 0, 65, 50
1, 95280, Note_on_c, 0, 53, 37
1, 95291, Control_c, 0, 64, 0
1, 95326, Control_c, 0, 64, 127
1, 95360, Note_on_c, 0, 53, 0
1, 95360, Note_on_c, 0, 65, 0
1, 95360, Note_on_c, 0, 67, 47
1, 95360, Note_on_c, 0, 55, 35
1, 95400, Tempo, 597967
1, 95440, Note_on_c, 0, 55, 0
1, 95440, Note_on_c, 0, 67, 0
1, 95440, Note_on_c, 0, 65, 47
1, 95440, Note_on_c, 0, 53, 35
1, 95520, Tempo, 576258
1, 95520, Note_on_c, 0, 53, 0
1, 95520, Note_on_c, 0, 65, 0
1, 95520, Note_on_c, 0, 57, 0
1, 95520, Note_on_c, 0, 57, 43
1, 95520, Note_on_c, 0, 64, 50
1, 95520, Note_on_c, 0, 52, 37
1, 95534, Control_c, 0, 64, 0
1, 95559, Control_c, 0, 64, 127
1, 95640, Tempo, 673930
1, 95640, Note_on_c, 0, 52, 0
1, 95640, Note_on_c, 0, 64, 0
1, 95640, Note_on_c, 0, 62, 47
1, 95640, Note_on_c, 0, 50, 35
1, 95760, Tempo, 621247
1, 95760, Note_on_c, 0, 50, 0
1, 95760, Note_on_c, 0, 62, 0
1, 95760, Note_on_c, 0, 57, 0
1, 95760, Note_on_c, 0, 57, 51
1, 95760, Note_on_c, 0, 65, 60
1, 95760, Note_on_c, 0, 53, 40
1, 95802, Control_c, 0, 64, 0
1, 95845, Control_c, 0, 64, 127
1, 95880, Tempo, 656455
1, 95880, Note_on_c, 0, 53, 0
1, 95880, Note_on_c, 0, 65, 0
1, 95880, Note_on_c, 0, 64, 48
1, 95880, Note_on_c, 0, 52, 40
1, 95970, Note_on_c, 0, 52, 0
1, 95970, Note_on_c, 0, 64, 0
1, 96000, Tempo, 633580
1, 96000, Note_on_c, 0, 57, 0
1, 96000, Note_on_c, 0, 57, 48
1, 96000, Note_on_c, 0, 62, 57
1, 96000, Note_on_c, 0, 50, 43
1, 96021, Control_c, 0, 64, 0
1, 96090, Note_on_c, 0, 50, 0
1, 96090, Note_on_c, 0, 62, 0
1, 96090, Note_on_c, 0, 57, 0
1, 96099, Control_c, 0, 64, 127
1, 96120, Tempo, 663350
1, 96120, Note_on_c, 0, 64, 48
1, 96120, Note_on_c, 0, 52, 40
1, 96210, Note_on_c, 0, 52, 0
1, 96210, Note_on_c, 0, 64, 0
1, 96240, Tempo, 636807
1, 96240, Note_on_c, 0, 57, 45
1, 96240, Note_on_c, 0, 60, 54
1, 96240, Note_on_c, 0, 48, 41
1, 96243, Control_c, 0, 64, 0
1, 96318, Control_c, 0, 64, 127
1, 96330, Note_on_c, 0, 48, 0
1, 96330, Note_on_c, 0, 60, 0
1, 96330, Note_on_c, 0, 57, 0
1, 96360, Tempo, 711575
1, 96360, Note_on_c, 0, 64, 46
1, 96360, Note_on_c, 0, 52, 39
1, 96450, Note_on_c, 0, 52, 0
1, 96450, Note_on_c, 0, 64, 0
1, 96480, Tempo, 609446
1, 96480, Note_on_c, 0, 57, 39
1, 96480, Note_on_c, 0, 62, 51
1, 96480, Control_c, 0, 64, 0
1, 96480, Note_on_c, 0, 50, 43
1, 96519, Control_c, 0, 64, 127
1, 96570, Note_on_c, 0, 50, 0
1, 96570, Note_on_c, 0, 62, 0
1, 96600, Tempo, 624350
1, 96600, Note_on_c, 0, 64, 48
1, 96600, Note_on_c, 0, 52, 40
1, 96690, Note_on_c, 0, 52, 0
1, 96690, Note_on_c, 0, 64, 0
1, 96720, Tempo, 578927
1, 96720, Note_on_c, 0, 57, 0
1, 96720, Note_on_c, 0, 57, 46
1, 96720, Note_on_c, 0, 65, 50
1, 96720, Note_on_c, 0, 53, 37
1, 96734, Control_c, 0, 64, 0
1, 96766, Control_c, 0, 64, 127
1, 96800, Note_on_c, 0, 53, 0
1, 96800, Note_on_c, 0, 65, 0
1, 96800, Note_on_c, 0, 67, 47
1, 96800, Note_on_c, 0, 55, 35
1, 96840, Tempo, 597967
1, 96880, Note_on_c, 0, 55, 0
1, 96880, Note_on_c, 0, 67, 0
1, 96880, Note_on_c, 0, 65, 47
1, 96880, Note_on_c, 0, 53, 35
1, 96960, Tempo, 576258
1, 96960, Note_on_c, 0, 53, 0
1, 96960, Note_on_c, 0, 65, 0
1, 96960, Note_on_c, 0, 57, 0
1, 96960, Note_on_c, 0, 57, 43
1, 96960, Note_on_c, 0, 64, 50
1, 96960, Note_on_c, 0, 52, 37
1, 96974, Control_c, 0, 64, 0
1, 96999, Control_c, 0, 64, 127
1, 97080, Tempo, 627418
1, 97080, Note_on_c, 0, 52, 0
1, 97080, Note_on_c, 0, 64, 0
1, 97080, Note_on_c, 0, 62, 47
1, 97080, Note_on_c, 0, 50, 35
1, 97200, Tempo, 621247
1, 97200, Note_on_c, 0, 50, 0
1, 97200, Note_on_c, 0, 62, 0
1, 97200, Note_on_c, 0, 57, 0
1, 97200, Note_on_c, 0, 58, 51
1, 97200, Note_on_c, 0, 65, 57
1, 97200, Note_on_c, 0, 53, 40
1, 97200, Note_on_c, 0, 43, 40
1, 97213, Control_c, 0, 64, 0
1, 97285, Control_c, 0, 64, 127
1, 97320, Tempo, 656455
1, 97320, Note_on_c, 0, 53, 0
1, 97320, Note_on_c, 0, 65, 0
1, 97320, Note_on_c, 0, 64, 48
1, 97320, Note_on_c, 0, 52, 40
1, 97410, Note_on_c, 0, 52, 0
1, 97410, Note_on_c, 0, 64, 0
1, 97440, Tempo, 633580
1, 97440, Note_on_c, 0, 58, 0
1, 97440, Note_on_c, 0, 58, 48
1, 97440, Note_on_c, 0, 62, 53
1, 97440, Note_on_c, 0, 50, 43
1, 97461, Control_c, 0, 64, 0
1, 97530, Note_on_c, 0, 50, 0
1, 97530, Note_on_c, 0, 62, 0
1, 97530, Note_on_c, 0, 58, 0
1, 97539, Control_c, 0, 64, 127
1, 97560, Tempo, 663350
1, 97560, Note_on_c, 0, 65, 48
1, 97560, Note_on_c, 0, 53, 40
1, 97650, Note_on_c, 0, 53, 0
1, 97650, Note_on_c, 0, 65, 0
1, 97680, Tempo, 636807
1, 97680, Note_on_c, 0, 58, 45
1, 97680, Note_on_c, 0, 64, 54
1, 97680, Note_on_c, 0, 52, 41
1, 97694, Control_c, 0, 64, 0
1, 97772, Control_c, 0, 64, 127
1, 97920, Tempo, 600000
1, 97920, Note_on_c, 0, 52, 0
1, 97920, Note_on_c, 0, 43, 0
1, 97920, Note_on_c, 0, 58, 0
1, 97920, Note_on_c, 0, 64, 0
1, 97920, Note_on_c, 0, 31, 56
1, 97926, Control_c, 0, 64, 0
1, 97991, Control_c, 0, 64, 127
1, 98160, Tempo, 591133
1, 98160, Note_on_c, 0, 31, 0
1, 98160, Note_on_c, 0, 79, 69
1, 98160, Note_on_c, 0, 82, 69
1, 98160, Note_on_c, 0, 74, 59
1, 98164, Control_c, 0, 64, 0
1, 98217, Control_c, 0, 64, 127
1, 98220, Tempo, 594059
1, 98240, Note_on_c, 0, 82, 0
1, 98240, Note_on_c, 0, 84, 58
1, 98280, Tempo, 597015
1, 98280, Note_on_c, 0, 74, 0
1, 98280, Note_on_c, 0, 76, 53
1, 98320, Note_on_c, 0, 84, 0
1, 98320, Note_on_c, 0, 82, 58
1, 98340, Tempo, 600000
1, 98400, Tempo, 603015
1, 98400, Note_on_c, 0, 82, 0
1, 98400, Note_on_c, 0, 76, 0
1, 98400, Note_on_c, 0, 79, 0
1, 98400, Note_on_c, 0, 79, 67
1, 98400, Note_on_c, 0, 70, 59
1, 98410, Control_c, 0, 64, 0
1, 98460, Tempo, 606061
1, 98467, Control_c, 0, 64, 127
1, 98480, Note_on_c, 0, 79, 0
1, 98480, Note_on_c, 0, 81, 58
1, 98520, Tempo, 609137
1, 98520, Note_on_c, 0, 70, 0
1, 98520, Note_on_c, 0, 74, 53
1, 98560, Note_on_c, 0, 81, 0
1, 98560, Note_on_c, 0, 79, 58
1, 98580, Tempo, 612245
1, 98620, Tempo, 615385
1, 98640, Tempo, 662983
1, 98640, Note_on_c, 0, 79, 0
1, 98640, Note_on_c, 0, 74, 0
1, 98640, Note_on_c, 0, 76, 68
1, 98640, Note_on_c, 0, 67, 59
1, 98654, Control_c, 0, 64, 0
1, 98722, Control_c, 0, 64, 127
1, 98880, Tempo, 600000
1, 98880, Note_on_c, 0, 67, 0
1, 98880, Note_on_c, 0, 76, 0
1, 98880, Note_on_c, 0, 86, 71
1, 98880, Note_on_c, 0, 88, 76
1, 98880, Note_on_c, 0, 70, 62
1, 99000, Tempo, 621762
1, 99000, Note_on_c, 0, 70, 0
1, 99000, Note_on_c, 0, 88, 0
1, 99000, Note_on_c, 0, 86, 0
1, 99000, Note_on_c, 0, 79, 68
1, 99000, Note_on_c, 0, 74, 54
1, 99120, Tempo, 631579
1, 99120, Note_on_c, 0, 74, 0
1, 99120, Note_on_c, 0, 79, 0
1, 99120, Note_on_c, 0, 91, 74
1, 99120, Note_on_c, 0, 64, 62
1, 99360, Tempo, 600000
1, 99360, Note_on_c, 0, 64, 0
1, 99360, Note_on_c, 0, 91, 0
1, 99360, Note_on_c, 0, 52, 56
1, 99369, Control_c, 0, 64, 0
1, 99466, Control_c, 0, 64, 127
1, 99600, Tempo, 591133
1, 99600, Note_on_c, 0, 52, 0
1, 99600, Note_on_c, 0, 76, 69
1, 99600, Note_on_c, 0, 79, 69
1, 99600, Note_on_c, 0, 70, 59
1, 99611, Control_c, 0, 64, 0
1, 99620, Tempo, 585366
1, 99660, Tempo, 588235
1, 99660, Control_c, 0, 64, 127
1, 99680, Note_on_c, 0, 79, 0
1, 99680, Note_on_c, 0, 81, 58
1, 99700, Tempo, 591133
1, 99720, Note_on_c, 0, 70, 0
1, 99720, Note_on_c, 0, 74, 53
1, 99740, Tempo, 594059
1, 99760, Note_on_c, 0, 81, 0
1, 99760, Note_on_c, 0, 79, 58
1, 99780, Tempo, 597015
1, 99820, Tempo, 600000
1, 99840, Note_on_c, 0, 79, 0
1, 99840, Note_on_c, 0, 74, 0
1, 99840, Note_on_c, 0, 76, 0
1, 99840, Note_on_c, 0, 76, 67
1, 99840, Note_on_c, 0, 67, 59
1, 99851, Control_c, 0, 64, 0
1, 99860, Tempo, 603015
1, 99900, Tempo, 606061
1, 99904, Control_c, 0, 64, 127
1, 99920, Note_on_c, 0, 76, 0
1, 99920, Note_on_c, 0, 77, 58
1, 99940, Tempo, 609137
1, 99960, Note_on_c, 0, 67, 0
1, 99960, Note_on_c, 0, 70, 53
1, 99980, Tempo, 612245
1, 100000, Note_on_c, 0, 77, 0
1, 100000, Note_on_c, 0, 76, 58
1, 100020, Tempo, 615385
1, 100040, Tempo, 618557
1, 100060, Tempo, 615385
1, 100080, Tempo, 685714
1, 100080, Note_on_c, 0, 76, 0
1, 100080, Note_on_c, 0, 70, 0
1, 100080, Note_on_c, 0, 73, 68
1, 100080, Note_on_c, 0, 64, 59
1, 100089, Control_c, 0, 64, 0
1, 100200, Control_c, 0, 64, 127
1, 100320, Tempo, 600000
1, 100320, Note_on_c, 0, 64, 0
1, 100320, Note_on_c, 0, 73, 0
1, 100320, Note_on_c, 0, 81, 69
1, 100320, Note_on_c, 0, 88, 73
1, 100320, Note_on_c, 0, 61, 59
1, 100440, Tempo, 621762
1, 100440, Note_on_c, 0, 61, 0
1, 100440, Note_on_c, 0, 88, 0
1, 100440, Note_on_c, 0, 81, 0
1, 100440, Note_on_c, 0, 79, 65
1, 100440, Note_on_c, 0, 69, 52
1, 100560, Tempo, 638298
1, 100560, Note_on_c, 0, 69, 0
1, 100560, Note_on_c, 0, 79, 0
1, 100560, Note_on_c, 0, 85, 48
1, 100560, Note_on_c, 0, 93, 70
1, 100560, Note_on_c, 0, 57, 59
1, 100800, Tempo, 600000
1, 100800, Note_on_c, 0, 57, 0
1, 100800, Note_on_c, 0, 93, 0
1, 100800, Note_on_c, 0, 85, 0
1, 100800, Note_on_c, 0, 45, 56
1, 100809, Control_c, 0, 64, 0
1, 100871, Control_c, 0, 64, 127
1, 101040, Tempo, 579710
1, 101040, Note_on_c, 0, 45, 0
1, 101040, Note_on_c, 0, 70, 59
1, 101040, Note_on_c, 0, 76, 76
1, 101040, Note_on_c, 0, 55, 45
1, 101048, Control_c, 0, 64, 0
1, 101072, Control_c, 0, 64, 127
1, 101120, Note_on_c, 0, 55, 0
1, 101120, Note_on_c, 0, 76, 0
1, 101120, Note_on_c, 0, 77, 65
1, 101120, Note_on_c, 0, 57, 38
1, 101160, Note_on_c, 0, 70, 0
1, 101180, Tempo, 582524
1, 101200, Note_on_c, 0, 57, 0
1, 101200, Note_on_c, 0, 77, 0
1, 101200, Note_on_c, 0, 76, 65
1, 101200, Note_on_c, 0, 55, 38
1, 101280, Note_on_c, 0, 55, 0
1, 101280, Note_on_c, 0, 76, 0
1, 101280, Note_on_c, 0, 69, 57
1, 101280, Note_on_c, 0, 74, 75
1, 101280, Note_on_c, 0, 53, 44
1, 101292, Control_c, 0, 64, 0
1, 101300, Tempo, 585366
1, 101317, Control_c, 0, 64, 127
1, 101360, Note_on_c, 0, 53, 0
1, 101360, Note_on_c, 0, 74, 0
1, 101360, Note_on_c, 0, 76, 65
1, 101360, Note_on_c, 0, 55, 38
1, 101400, Note_on_c, 0, 69, 0
1, 101420, Tempo, 588235
1, 101440, Note_on_c, 0, 55, 0
1, 101440, Note_on_c, 0, 76, 0
1, 101440, Note_on_c, 0, 74, 65
1, 101440, Note_on_c, 0, 53, 38
1, 101520, Note_on_c, 0, 53, 0
1, 101520, Note_on_c, 0, 74, 0
1, 101520, Note_on_c, 0, 67, 56
1, 101520, Note_on_c, 0, 73, 74
1, 101520, Note_on_c, 0, 52, 43
1, 101529, Control_c, 0, 64, 0
1, 101540, Tempo, 591133
1, 101563, Control_c, 0, 64, 127
1, 101600, Note_on_c, 0, 52, 0
1, 101600, Note_on_c, 0, 73, 0
1, 101600, Note_on_c, 0, 74, 63
1, 101600, Note_on_c, 0, 53, 37
1, 101640, Note_on_c, 0, 67, 0
1, 101680, Tempo, 594059
1, 101680, Note_on_c, 0, 53, 0
1, 101680, Note_on_c, 0, 74, 0
1, 101680, Note_on_c, 0, 73, 62
1, 101680, Note_on_c, 0, 52, 37
1, 101760, Note_on_c, 0, 52, 0
1, 101760, Note_on_c, 0, 73, 0
1, 101760, Note_on_c, 0, 65, 56
1, 101760, Note_on_c, 0, 70, 71
1, 101760, Note_on_c, 0, 50, 42
1, 101771, Control_c, 0, 64, 0
1, 101800, Tempo, 597015
1, 101809, Control_c, 0, 64, 127
1, 101840, Note_on_c, 0, 50, 0
1, 101840, Note_on_c, 0, 70, 0
1, 101840, Note_on_c, 0, 72, 60
1, 101840, Note_on_c, 0, 52, 36
1, 101880, Note_on_c, 0, 65, 0
1, 101920, Tempo, 600000
1, 101920, Note_on_c, 0, 52, 0
1, 101920, Note_on_c, 0, 72, 0
1, 101920, Note_on_c, 0, 70, 60
1, 101920, Note_on_c, 0, 50, 36
1, 102000, Note_on_c, 0, 50, 0
1, 102000, Note_on_c, 0, 70, 0
1, 102000, Note_on_c, 0, 64, 54
1, 102000, Note_on_c, 0, 69, 69
1, 102000, Note_on_c, 0, 49, 41
1, 102011, Control_c, 0, 64, 0
1, 102040, Tempo, 603015
1, 102040, Control_c, 0, 64, 127
1, 102080, Note_on_c, 0, 49, 0
1, 102080, Note_on_c, 0, 69, 0
1, 102080, Note_on_c, 0, 70, 57
1, 102080, Note_on_c, 0, 50, 34
1, 102120, Note_on_c, 0, 64, 0
1, 102160, Note_on_c, 0, 50, 0
1, 102160, Note_on_c, 0, 70, 0
1, 102160, Note_on_c, 0, 69, 57
1, 102160, Note_on_c, 0, 49, 34
1, 102180, Tempo, 606061
1, 102240, Note_on_c, 0, 49, 0
1, 102240, Note_on_c, 0, 69, 0
1, 102240, Note_on_c, 0, 61, 53
1, 102240, Note_on_c, 0, 67, 67
1, 102240, Note_on_c, 0, 58, 41
1, 102240, Note_on_c, 0, 45, 41
1, 102250, Control_c, 0, 64, 0
1, 102283, Control_c, 0, 64, 127
1, 102300, Tempo, 609137
1, 102320, Note_on_c, 0, 67, 0
1, 102320, Note_on_c, 0, 69, 57
1, 102400, Note_on_c, 0, 69, 0
1, 102400, Note_on_c, 0, 67, 57
1, 102480, Note_on_c, 0, 67, 0
1, 102480, Note_on_c, 0, 58, 0
1, 102480, Note_on_c, 0, 65, 65
1, 102480, Note_on_c, 0, 57, 41
1, 102492, Control_c, 0, 64, 0
1, 102526, Control_c, 0, 64, 127
1, 102560, Note_on_c, 0, 65, 0
1, 102560, Note_on_c, 0, 67, 56
1, 102640, Note_on_c, 0, 67, 0
1, 102640, Note_on_c, 0, 65, 56
1, 102720, Note_on_c, 0, 65, 0
1, 102720, Note_on_c, 0, 57, 0
1, 102720, Note_on_c, 0, 64, 63
1, 102720, Note_on_c, 0, 55, 41
1, 102734, Control_c, 0, 64, 0
1, 102798, Control_c, 0, 64, 127
1, 102800, Note_on_c, 0, 64, 0
1, 102800, Note_on_c, 0, 65, 54
1, 102880, Note_on_c, 0, 65, 0
1, 102880, Note_on_c, 0, 64, 54
1, 102960, Tempo, 628272
1, 102960, Note_on_c, 0, 64, 0
1, 102960, Note_on_c, 0, 45, 0
1, 102960, Note_on_c, 0, 61, 0
1, 102960, Note_on_c, 0, 55, 0
1, 102960, Note_on_c, 0, 38, 64
1, 102965, Control_c, 0, 64, 0
1, 103073, Control_c, 0, 64, 127
1, 103080, Note_on_c, 0, 38, 0
1, 103200, Tempo, 585366
1, 103200, Note_on_c, 0, 74, 68
1, 103200, Note_on_c, 0, 77, 68
1, 103200, Note_on_c, 0, 81, 68
1, 103320, Tempo, 625000
1, 103320, Note_on_c, 0, 81, 0
1, 103320, Note_on_c, 0, 77, 0
1, 103320, Note_on_c, 0, 74, 0
1, 103320, Note_on_c, 0, 69, 60
1, 103440, Tempo, 621762
1, 103440, Note_on_c, 0, 69, 0
1, 103440, Note_on_c, 0, 74, 71
1, 103560, Note_on_c, 0, 74, 0
1, 103680, Tempo, 610314
1, 103680, Note_on_c, 0, 38, 42
1, 103920, Tempo, 574273
1, 103920, Note_on_c, 0, 38, 0
1, 103920, Note_on_c, 0, 75, 39
1, 103920, Note_on_c, 0, 81, 50
1, 103920, Note_on_c, 0, 62, 37
1, 103920, Note_on_c, 0, 72, 37
1, 103935, Control_c, 0, 64, 0
1, 103980, Control_c, 0, 64, 127
1, 104000, Note_on_c, 0, 81, 0
1, 104000, Note_on_c, 0, 82, 47
1, 104080, Note_on_c, 0, 82, 0
1, 104080, Note_on_c, 0, 81, 47
1, 104160, Tempo, 571646
1, 104160, Note_on_c, 0, 81, 0
1, 104160, Note_on_c, 0, 72, 0
1, 104160, Note_on_c, 0, 79, 50
1, 104160, Note_on_c, 0, 70, 37
1, 104174, Control_c, 0, 64, 0
1, 104199, Control_c, 0, 64, 127
1, 104280, Tempo, 590377
1, 104280, Note_on_c, 0, 70, 0
1, 104280, Note_on_c, 0, 79, 0
1, 104280, Note_on_c, 0, 78, 47
1, 104280, Note_on_c, 0, 69, 35
1, 104400, Tempo, 566572
1, 104400, Note_on_c, 0, 69, 0
1, 104400, Note_on_c, 0, 75, 0
1, 104400, Note_on_c, 0, 62, 0
1, 104400, Note_on_c, 0, 78, 0
1, 104400, Note_on_c, 0, 74, 39
1, 104400, Note_on_c, 0, 81, 53
1, 104400, Note_on_c, 0, 72, 40
1, 104400, Note_on_c, 0, 62, 38
1, 104412, Control_c, 0, 64, 0
1, 104485, Control_c, 0, 64, 127
1, 104520, Tempo, 616270
1, 104640, Tempo, 601624
1, 104640, Note_on_c, 0, 72, 0
1, 104640, Note_on_c, 0, 74, 0
1, 104640, Note_on_c, 0, 81, 0
1, 104640, Note_on_c, 0, 74, 39
1, 104640, Note_on_c, 0, 79, 51
1, 104640, Note_on_c, 0, 70, 43
1, 104648, Control_c, 0, 64, 0
1, 104704, Control_c, 0, 64, 127
1, 104730, Note_on_c, 0, 70, 0
1, 104730, Note_on_c, 0, 79, 0
1, 104760, Note_on_c, 0, 77, 48
1, 104760, Note_on_c, 0, 69, 40
1, 104850, Note_on_c, 0, 69, 0
1, 104850, Note_on_c, 0, 77, 0
1, 104880, Tempo, 613309
1, 104880, Note_on_c, 0, 76, 49
1, 104880, Note_on_c, 0, 67, 41
1, 104970, Note_on_c, 0, 67, 0
1, 104970, Note_on_c, 0, 76, 0
1, 105000, Note_on_c, 0, 77, 46
1, 105000, Note_on_c, 0, 69, 39
1, 105090, Note_on_c, 0, 69, 0
1, 105090, Note_on_c, 0, 77, 0
1, 105120, Tempo, 604534
1, 105120, Note_on_c, 0, 74, 0
1, 105120, Note_on_c, 0, 73, 39
1, 105120, Note_on_c, 0, 76, 51
1, 105120, Note_on_c, 0, 67, 43
1, 105129, Control_c, 0, 64, 0
1, 105159, Control_c, 0, 64, 127
1, 105210, Note_on_c, 0, 67, 0
1, 105210, Note_on_c, 0, 76, 0
1, 105240, Tempo, 619323
1, 105240, Note_on_c, 0, 77, 48
1, 105240, Note_on_c, 0, 69, 40
1, 105330, Note_on_c, 0, 69, 0
1, 105330, Note_on_c, 0, 77, 0
1, 105360, Tempo, 574273
1, 105360, Note_on_c, 0, 73, 0
1, 105360, Note_on_c, 0, 73, 46
1, 105360, Note_on_c, 0, 79, 50
1, 105360, Note_on_c, 0, 70, 37
1, 105375, Control_c, 0, 64, 0
1, 105413, Control_c, 0, 64, 127
1, 105440, Note_on_c, 0, 79, 0
1, 105440, Note_on_c, 0, 81, 47
1, 105520, Note_on_c, 0, 81, 0
1, 105520, Note_on_c, 0, 79, 47
1, 105600, Tempo, 588235
1, 105600, Note_on_c, 0, 79, 0
1, 105600, Note_on_c, 0, 70, 0
1, 105600, Note_on_c, 0, 73, 0
1, 105600, Note_on_c, 0, 73, 43
1, 105600, Note_on_c, 0, 77, 50
1, 105600, Note_on_c, 0, 69, 37
1, 105614, Control_c, 0, 64, 0
1, 105671, Control_c, 0, 64, 127
1, 105720, Tempo, 618557
1, 105720, Note_on_c, 0, 69, 0
1, 105720, Note_on_c, 0, 77, 0
1, 105720, Note_on_c, 0, 76, 47
1, 105720, Note_on_c, 0, 67, 35
1, 105840, Tempo, 615385
1, 105840, Note_on_c, 0, 67, 0
1, 105840, Note_on_c, 0, 62, 0
1, 105840, Note_on_c, 0, 73, 0
1, 105840, Note_on_c, 0, 76, 0
1, 105840, Note_on_c, 0, 73, 39
1, 105840, Note_on_c, 0, 79, 53
1, 105840, Note_on_c, 0, 70, 40
1, 105840, Note_on_c, 0, 62, 40
1, 105852, Control_c, 0, 64, 0
1, 105925, Control_c, 0, 64, 127
1, 106080, Tempo, 615385
1, 106080, Note_on_c, 0, 70, 0
1, 106080, Note_on_c, 0, 79, 0
1, 106080, Note_on_c, 0, 76, 51
1, 106080, Note_on_c, 0, 67, 43
1, 106170, Note_on_c, 0, 67, 0
1, 106170, Note_on_c, 0, 76, 0
1, 106200, Tempo, 631579
1, 106200, Note_on_c, 0, 77, 48
1, 106200, Note_on_c, 0, 69, 40
1, 106290, Note_on_c, 0, 69, 0
1, 106290, Note_on_c, 0, 77, 0
1, 106320, Tempo, 613309
1, 106320, Note_on_c, 0, 73, 0
1, 106320, Note_on_c, 0, 62, 0
1, 106320, Note_on_c, 0, 69, 43
1, 106320, Note_on_c, 0, 74, 49
1, 106320, Note_on_c, 0, 65, 41
1, 106341, Control_c, 0, 64, 0
1, 106426, Control_c, 0, 64, 127
1, 106560, Tempo, 610314
1, 106560, Note_on_c, 0, 65, 0
1, 106560, Note_on_c, 0, 74, 0
1, 106560, Note_on_c, 0, 69, 0
1, 106560, Note_on_c, 0, 38, 42
1, 106560, Control_c, 0, 64, 0
1, 106616, Control_c, 0, 64, 127
1, 106800, Tempo, 574273
1, 106800, Note_on_c, 0, 38, 0
1, 106800, Note_on_c, 0, 75, 39
1, 106800, Note_on_c, 0, 81, 50
1, 106800, Note_on_c, 0, 72, 37
1, 106800, Note_on_c, 0, 62, 37
1, 106807, Control_c, 0, 64, 0
1, 106846, Control_c, 0, 64, 127
1, 106880, Note_on_c, 0, 81, 0
1, 106880, Note_on_c, 0, 82, 47
1, 106960, Note_on_c, 0, 82, 0
1, 106960, Note_on_c, 0, 81, 47
1, 107040, Tempo, 571646
1, 107040, Note_on_c, 0, 81, 0
1, 107040, Note_on_c, 0, 72, 0
1, 107040, Note_on_c, 0, 79, 50
1, 107040, Note_on_c, 0, 70, 37
1, 107054, Control_c, 0, 64, 0
1, 107114, Control_c, 0, 64, 127
1, 107160, Tempo, 590377
1, 107160, Note_on_c, 0, 70, 0
1, 107160, Note_on_c, 0, 79, 0
1, 107160, Note_on_c, 0, 78, 47
1, 107160, Note_on_c, 0, 69, 35
1, 107280, Tempo, 566572
1, 107280, Note_on_c, 0, 69, 0
1, 107280, Note_on_c, 0, 62, 0
1, 107280, Note_on_c, 0, 75, 0
1, 107280, Note_on_c, 0, 78, 0
1, 107280, Note_on_c, 0, 74, 39
1, 107280, Note_on_c, 0, 81, 53
1, 107280, Note_on_c, 0, 72, 40
1, 107280, Note_on_c, 0, 62, 38
1, 107292, Control_c, 0, 64, 0
1, 107365, Control_c, 0, 64, 127
1, 107400, Tempo, 616270
1, 107520, Tempo, 601624
1, 107520, Note_on_c, 0, 72, 0
1, 107520, Note_on_c, 0, 74, 0
1, 107520, Note_on_c, 0, 81, 0
1, 107520, Note_on_c, 0, 74, 39
1, 107520, Note_on_c, 0, 79, 51
1, 107520, Note_on_c, 0, 70, 43
1, 107539, Control_c, 0, 64, 0
1, 107598, Control_c, 0, 64, 127
1, 107610, Note_on_c, 0, 70, 0
1, 107610, Note_on_c, 0, 79, 0
1, 107640, Note_on_c, 0, 77, 48
1, 107640, Note_on_c, 0, 69, 40
1, 107730, Note_on_c, 0, 69, 0
1, 107730, Note_on_c, 0, 77, 0
1, 107760, Tempo, 613309
1, 107760, Note_on_c, 0, 76, 49
1, 107760, Note_on_c, 0, 67, 41
1, 107850, Note_on_c, 0, 67, 0
1, 107850, Note_on_c, 0, 76, 0
1, 107880, Note_on_c, 0, 77, 46
1, 107880, Note_on_c, 0, 69, 39
1, 107970, Note_on_c, 0, 69, 0
1, 107970, Note_on_c, 0, 77, 0
1, 108000, Tempo, 604534
1, 108000, Note_on_c, 0, 74, 0
1, 108000, Note_on_c, 0, 73, 39
1, 108000, Note_on_c, 0, 76, 51
1, 108000, Note_on_c, 0, 67, 43
1, 108007, Control_c, 0, 64, 0
1, 108039, Control_c, 0, 64, 127
1, 108090, Note_on_c, 0, 67, 0
1, 108090, Note_on_c, 0, 76, 0
1, 108120, Tempo, 619323
1, 108120, Note_on_c, 0, 77, 48
1, 108120, Note_on_c, 0, 69, 40
1, 108210, Note_on_c, 0, 69, 0
1, 108210, Note_on_c, 0, 77, 0
1, 108240, Tempo, 574273
1, 108240, Note_on_c, 0, 73, 0
1, 108240, Note_on_c, 0, 73, 46
1, 108240, Note_on_c, 0, 79, 50
1, 108240, Note_on_c, 0, 70, 37
1, 108257, Control_c, 0, 64, 0
1, 108286, Control_c, 0, 64, 127
1, 108320, Note_on_c, 0, 79, 0
1, 108320, Note_on_c, 0, 81, 47
1, 108400, Note_on_c, 0, 81, 0
1, 108400, Note_on_c, 0, 79, 47
1, 108480, Tempo, 588235
1, 108480, Note_on_c, 0, 79, 0
1, 108480, Note_on_c, 0, 70, 0
1, 108480, Note_on_c, 0, 73, 0
1, 108480, Note_on_c, 0, 73, 43
1, 108480, Note_on_c, 0, 77, 50
1, 108480, Note_on_c, 0, 69, 37
1, 108494, Control_c, 0, 64, 0
1, 108544, Control_c, 0, 64, 127
1, 108600, Tempo, 618557
1, 108600, Note_on_c, 0, 69, 0
1, 108600, Note_on_c, 0, 77, 0
1, 108600, Note_on_c, 0, 76, 47
1, 108600, Note_on_c, 0, 67, 35
1, 108720, Tempo, 615385
1, 108720, Note_on_c, 0, 67, 0
1, 108720, Note_on_c, 0, 62, 0
1, 108720, Note_on_c, 0, 73, 0
1, 108720, Note_on_c, 0, 76, 0
1, 108720, Note_on_c, 0, 73, 39
1, 108720, Note_on_c, 0, 79, 53
1, 108720, Note_on_c, 0, 70, 40
1, 108720, Note_on_c, 0, 62, 40
1, 108732, Control_c, 0, 64, 0
1, 108805, Control_c, 0, 64, 127
1, 108960, Tempo, 615385
1, 108960, Note_on_c, 0, 70, 0
1, 108960, Note_on_c, 0, 79, 0
1, 108960, Note_on_c, 0, 76, 51
1, 108960, Note_on_c, 0, 67, 43
1, 109050, Note_on_c, 0, 67, 0
1, 109050, Note_on_c, 0, 76, 0
1, 109080, Tempo, 631579
1, 109080, Note_on_c, 0, 77, 48
1, 109080, Note_on_c, 0, 69, 40
1, 109170, Note_on_c, 0, 69, 0
1, 109170, Note_on_c, 0, 77, 0
1, 109200, Tempo, 613309
1, 109200, Note_on_c, 0, 73, 0
1, 109200, Note_on_c, 0, 62, 0
1, 109200, Note_on_c, 0, 69, 43
1, 109200, Note_on_c, 0, 74, 49
1, 109200, Note_on_c, 0, 65, 41
1, 109206, Control_c, 0, 64, 0
1, 109320, Control_c, 0, 64, 127
1, 109440, Tempo, 600000
1, 109440, Note_on_c, 0, 65, 0
1, 109440, Note_on_c, 0, 74, 0
1, 109440, Note_on_c, 0, 69, 0
1, 109440, Control_c, 0, 64, 0
1, 109440, Note_on_c, 0, 38, 45
1, 109507, Control_c, 0, 64, 127
1, 109680, Tempo, 591133
1, 109680, Note_on_c, 0, 38, 0
1, 109680, Note_on_c, 0, 75, 57
1, 109680, Note_on_c, 0, 81, 57
1, 109680, Note_on_c, 0, 72, 43
1, 109688, Control_c, 0, 64, 0
1, 109740, Tempo, 594059
1, 109744, Control_c, 0, 64, 127
1, 109760, Note_on_c, 0, 81, 0
1, 109760, Note_on_c, 0, 82, 48
1, 109800, Tempo, 597015
1, 109840, Note_on_c, 0, 82, 0
1, 109840, Note_on_c, 0, 81, 48
1, 109860, Tempo, 600000
1, 109920, Tempo, 603015
1, 109920, Note_on_c, 0, 81, 0
1, 109920, Note_on_c, 0, 72, 0
1, 109920, Note_on_c, 0, 75, 0
1, 109920, Note_on_c, 0, 79, 55
1, 109920, Note_on_c, 0, 70, 43
1, 109931, Control_c, 0, 64, 0
1, 109980, Tempo, 606061
1, 109987, Control_c, 0, 64, 127
1, 110040, Tempo, 609137
1, 110040, Note_on_c, 0, 70, 0
1, 110040, Note_on_c, 0, 79, 0
1, 110040, Note_on_c, 0, 78, 48
1, 110040, Note_on_c, 0, 69, 40
1, 110100, Tempo, 612245
1, 110140, Tempo, 615385
1, 110160, Tempo, 662983
1, 110160, Note_on_c, 0, 69, 0
1, 110160, Note_on_c, 0, 78, 0
1, 110160, Note_on_c, 0, 75, 56
1, 110160, Note_on_c, 0, 81, 56
1, 110160, Note_on_c, 0, 72, 43
1, 110177, Control_c, 0, 64, 0
1, 110280, Note_on_c, 0, 72, 0
1, 110280, Note_on_c, 0, 81, 0
1, 110280, Note_on_c, 0, 75, 0
1, 110297, Control_c, 0, 64, 127
1, 110400, Tempo, 600000
1, 110400, Note_on_c, 0, 81, 59
1, 110400, Note_on_c, 0, 87, 59
1, 110400, Note_on_c, 0, 66, 49
1, 110520, Tempo, 621762
1, 110520, Note_on_c, 0, 66, 0
1, 110520, Note_on_c, 0, 87, 0
1, 110520, Note_on_c, 0, 81, 0
1, 110520, Note_on_c, 0, 75, 57
1, 110520, Note_on_c, 0, 72, 42
1, 110640, Tempo, 631579
1, 110640, Note_on_c, 0, 72, 0
1, 110640, Note_on_c, 0, 75, 0
1, 110640, Note_on_c, 0, 93, 63
1, 110640, Note_on_c, 0, 63, 49
1, 110760, Note_on_c, 0, 63, 0
1, 110760, Note_on_c, 0, 93, 0
1, 110789, Control_c, 0, 64, 0
1, 110880, Tempo, 600000
1, 110880, Note_on_c, 0, 54, 48
1, 110937, Control_c, 0, 64, 127
1, 111120, Tempo, 591133
1, 111120, Note_on_c, 0, 54, 0
1, 111120, Note_on_c, 0, 75, 60
1, 111120, Note_on_c, 0, 81, 60
1, 111120, Note_on_c, 0, 72, 46
1, 111130, Control_c, 0, 64, 0
1, 111152, Control_c, 0, 64, 127
1, 111180, Tempo, 594059
1, 111200, Note_on_c, 0, 81, 0
1, 111200, Note_on_c, 0, 82, 51
1, 111240, Tempo, 597015
1, 111280, Note_on_c, 0, 82, 0
1, 111280, Note_on_c, 0, 81, 51
1, 111300, Tempo, 600000
1, 111360, Tempo, 603015
1, 111360, Note_on_c, 0, 81, 0
1, 111360, Note_on_c, 0, 72, 0
1, 111360, Note_on_c, 0, 75, 0
1, 111360, Note_on_c, 0, 79, 58
1, 111360, Note_on_c, 0, 70, 46
1, 111374, Control_c, 0, 64, 0
1, 111417, Control_c, 0, 64, 127
1, 111420, Tempo, 606061
1, 111480, Tempo, 609137
1, 111480, Note_on_c, 0, 70, 0
1, 111480, Note_on_c, 0, 79, 0
1, 111480, Note_on_c, 0, 78, 51
1, 111480, Note_on_c, 0, 69, 43
1, 111540, Tempo, 612245
1, 111580, Tempo, 615385
1, 111600, Tempo, 662983
1, 111600, Note_on_c, 0, 69, 0
1, 111600, Note_on_c, 0, 78, 0
1, 111600, Note_on_c, 0, 75, 59
1, 111600, Note_on_c, 0, 81, 59
1, 111600, Note_on_c, 0, 72, 46
1, 111617, Control_c, 0, 64, 0
1, 111720, Note_on_c, 0, 72, 0
1, 111720, Note_on_c, 0, 81, 0
1, 111720, Note_on_c, 0, 75, 0
1, 111737, Control_c, 0, 64, 127
1, 111840, Tempo, 600000
1, 111840, Note_on_c, 0, 81, 63
1, 111840, Note_on_c, 0, 87, 63
1, 111840, Note_on_c, 0, 66, 52
1, 111960, Tempo, 621762
1, 111960, Note_on_c, 0, 66, 0
1, 111960, Note_on_c, 0, 87, 0
1, 111960, Note_on_c, 0, 81, 0
1, 111960, Note_on_c, 0, 75, 57
1, 111960, Note_on_c, 0, 72, 45
1, 112080, Tempo, 631579
1, 112080, Note_on_c, 0, 72, 0
1, 112080, Note_on_c, 0, 75, 0
1, 112080, Note_on_c, 0, 93, 65
1, 112080, Note_on_c, 0, 63, 52
1, 112200, Note_on_c, 0, 63, 0
1, 112200, Note_on_c, 0, 93, 0
1, 112229, Control_c, 0, 64, 0
1, 112320, Tempo, 600000
1, 112320, Note_on_c, 0, 54, 48
1, 112352, Control_c, 0, 64, 127
1, 112560, Tempo, 591133
1, 112560, Note_on_c, 0, 54, 0
1, 112560, Note_on_c, 0, 75, 63
1, 112560, Note_on_c, 0, 81, 63
1, 112560, Note_on_c, 0, 72, 48
1, 112568, Control_c, 0, 64, 0
1, 112592, Control_c, 0, 64, 127
1, 112620, Tempo, 594059
1, 112640, Note_on_c, 0, 81, 0
1, 112640, Note_on_c, 0, 82, 53
1, 112680, Tempo, 597015
1, 112720, Note_on_c, 0, 82, 0
1, 112720, Note_on_c, 0, 81, 53
1, 112740, Tempo, 600000
1, 112800, Tempo, 603015
1, 112800, Note_on_c, 0, 81, 0
1, 112800, Note_on_c, 0, 72, 0
1, 112800, Note_on_c, 0, 75, 0
1, 112800, Note_on_c, 0, 79, 60
1, 112800, Note_on_c, 0, 70, 47
1, 112811, Control_c, 0, 64, 0
1, 112860, Tempo, 606061
1, 112860, Control_c, 0, 64, 127
1, 112920, Tempo, 609137
1, 112920, Note_on_c, 0, 70, 0
1, 112920, Note_on_c, 0, 79, 0
1, 112920, Note_on_c, 0, 78, 53
1, 112920, Note_on_c, 0, 69, 44
1, 112980, Tempo, 612245
1, 113020, Tempo, 615385
1, 113040, Tempo, 662983
1, 113040, Note_on_c, 0, 69, 0
1, 113040, Note_on_c, 0, 78, 0
1, 113040, Note_on_c, 0, 75, 60
1, 113040, Note_on_c, 0, 81, 60
1, 113040, Note_on_c, 0, 72, 47
1, 113060, Control_c, 0, 64, 0
1, 113160, Note_on_c, 0, 72, 0
1, 113160, Note_on_c, 0, 81, 0
1, 113160, Note_on_c, 0, 75, 0
1, 113280, Tempo, 591133
1, 113280, Note_on_c, 0, 75, 64
1, 113280, Note_on_c, 0, 81, 64
1, 113280, Note_on_c, 0, 72, 48
1, 113312, Control_c, 0, 64, 127
1, 113340, Tempo, 594059
1, 113360, Note_on_c, 0, 81, 0
1, 113360, Note_on_c, 0, 82, 54
1, 113400, Tempo, 597015
1, 113440, Note_on_c, 0, 82, 0
1, 113440, Note_on_c, 0, 81, 53
1, 113460, Tempo, 600000
1, 113513, Control_c, 0, 64, 0
1, 113520, Tempo, 603015
1, 113520, Note_on_c, 0, 81, 0
1, 113520, Note_on_c, 0, 72, 0
1, 113520, Note_on_c, 0, 75, 0
1, 113520, Note_on_c, 0, 79, 60
1, 113520, Note_on_c, 0, 70, 47
1, 113548, Control_c, 0, 64, 127
1, 113580, Tempo, 606061
1, 113640, Tempo, 609137
1, 113640, Note_on_c, 0, 70, 0
1, 113640, Note_on_c, 0, 79, 0
1, 113640, Note_on_c, 0, 78, 52
1, 113640, Note_on_c, 0, 69, 44
1, 113700, Tempo, 612245
1, 113740, Tempo, 615385
1, 113760, Tempo, 662983
1, 113760, Note_on_c, 0, 69, 0
1, 113760, Note_on_c, 0, 78, 0
1, 113760, Note_on_c, 0, 75, 60
1, 113760, Note_on_c, 0, 81, 60
1, 113760, Note_on_c, 0, 72, 46
1, 113780, Control_c, 0, 64, 0
1, 113880, Note_on_c, 0, 72, 0
1, 113880, Note_on_c, 0, 81, 0
1, 113880, Note_on_c, 0, 75, 0
1, 114000, Tempo, 591133
1, 114000, Note_on_c, 0, 75, 74
1, 114000, Note_on_c, 0, 81, 74
1, 114000, Note_on_c, 0, 53, 61
1, 114000, Note_on_c, 0, 41, 61
1, 114060, Tempo, 594059
1, 114063, Control_c, 0, 64, 127
1, 114080, Note_on_c, 0, 81, 0
1, 114080, Note_on_c, 0, 83, 65
1, 114120, Tempo, 597015
1, 114160, Note_on_c, 0, 83, 0
1, 114160, Note_on_c, 0, 81, 66
1, 114180, Tempo, 600000
1, 114233, Control_c, 0, 64, 0
1, 114240, Tempo, 603015
1, 114240, Note_on_c, 0, 81, 0
1, 114240, Note_on_c, 0, 75, 0
1, 114240, Note_on_c, 0, 80, 72
1, 114268, Control_c, 0, 64, 127
1, 114300, Tempo, 606061
1, 114360, Tempo, 609137
1, 114360, Note_on_c, 0, 80, 0
1, 114360, Note_on_c, 0, 81, 67
1, 114420, Tempo, 612245
1, 114460, Tempo, 615385
1, 114480, Tempo, 662983
1, 114480, Note_on_c, 0, 81, 0
1, 114480, Note_on_c, 0, 75, 83
1, 114480, Note_on_c, 0, 81, 83
1, 114480, Note_on_c, 0, 87, 83
1, 114500, Control_c, 0, 64, 0
1, 114600, Note_on_c, 0, 87, 0
1, 114600, Note_on_c, 0, 75, 0
1, 114600, Note_on_c, 0, 81, 0
1, 114720, Tempo, 615385
1, 114720, Note_on_c, 0, 53, 0
1, 114720, Note_on_c, 0, 41, 0
1, 114720, Note_on_c, 0, 87, 81
1, 114720, Note_on_c, 0, 93, 81
1, 114720, Note_on_c, 0, 29, 61
1, 114720, Control_c, 0, 64, 0
1, 114720, Note_on_c, 0, 41, 61
1, 114752, Control_c, 0, 64, 127
1, 114800, Note_on_c, 0, 93, 0
1, 114800, Note_on_c, 0, 95, 71
1, 114880, Note_on_c, 0, 95, 0
1, 114880, Note_on_c, 0, 93, 72
1, 114953, Control_c, 0, 64, 0
1, 114960, Note_on_c, 0, 93, 0
1, 114960, Note_on_c, 0, 87, 0
1, 114960, Note_on_c, 0, 92, 79
1, 114988, Control_c, 0, 64, 127
1, 115080, Tempo, 638298
1, 115080, Note_on_c, 0, 92, 0
1, 115080, Note_on_c, 0, 93, 73
1, 115170, Note_on_c, 0, 93, 0
1, 115170, Note_on_c, 0, 93, 74
1, 115185, Note_on_c, 0, 97, 78
1, 115200, Key_signature, 3, "major"
1, 115200, Tempo, 796707
1, 115200, Note_on_c, 0, 29, 0
1, 115200, Note_on_c, 0, 41, 0
1, 115200, Note_on_c, 0, 100, 95
1, 115200, Note_on_c, 0, 28, 53
1, 115200, Note_on_c, 0, 40, 61
1, 115203, Control_c, 0, 64, 0
1, 115373, Control_c, 0, 64, 127
1, 115410, Note_on_c, 0, 100, 0
1, 115410, Note_on_c, 0, 97, 0
1, 115410, Note_on_c, 0, 93, 0
1, 115410, Note_on_c, 0, 81, 38
1, 115425, Note_on_c, 0, 85, 39
1, 115440, Tempo, 768246
1, 115440, Note_on_c, 0, 88, 45
1, 115650, Note_on_c, 0, 88, 0
1, 115650, Note_on_c, 0, 81, 0
1, 115650, Note_on_c, 0, 85, 0
1, 115650, Note_on_c, 0, 81, 40
1, 115665, Note_on_c, 0, 85, 41
1, 115680, Note_on_c, 0, 88, 45
1, 115890, Note_on_c, 0, 88, 0
1, 115890, Note_on_c, 0, 81, 0
1, 115890, Note_on_c, 0, 85, 0
1, 115890, Note_on_c, 0, 81, 41
1, 115905, Note_on_c, 0, 85, 41
1, 115920, Note_on_c, 0, 88, 45
1, 116130, Note_on_c, 0, 88, 0
1, 116130, Note_on_c, 0, 81, 0
1, 116130, Note_on_c, 0, 85, 0
1, 116130, Note_on_c, 0, 81, 40
1, 116145, Note_on_c, 0, 85, 40
1, 116160, Note_on_c, 0, 88, 45
1, 116370, Note_on_c, 0, 88, 0
1, 116370, Note_on_c, 0, 81, 0
1, 116370, Note_on_c, 0, 85, 0
1, 116370, Note_on_c, 0, 81, 39
1, 116385, Note_on_c, 0, 85, 40
1, 116400, Note_on_c, 0, 88, 45
1, 116595, Note_on_c, 0, 76, 34
1, 116610, Note_on_c, 0, 88, 0
1, 116610, Note_on_c, 0, 85, 0
1, 116610, Note_on_c, 0, 81, 0
1, 116610, Note_on_c, 0, 80, 34
1, 116625, Note_on_c, 0, 86, 39
1, 116640, Tempo, 783188
1, 116640, Note_on_c, 0, 40, 0
1, 116640, Note_on_c, 0, 28, 0
1, 116640, Note_on_c, 0, 88, 45
1, 116642, Control_c, 0, 64, 0
1, 116682, Control_c, 0, 64, 127
1, 116760, Tempo, 797342
1, 116835, Note_on_c, 0, 88, 0
1, 116835, Note_on_c, 0, 86, 0
1, 116835, Note_on_c, 0, 80, 0
1, 116835, Note_on_c, 0, 76, 0
1, 116835, Note_on_c, 0, 76, 34
1, 116850, Note_on_c, 0, 80, 34
1, 116865, Note_on_c, 0, 86, 39
1, 116880, Tempo, 774094
1, 116880, Note_on_c, 0, 88, 45
1, 116880, Note_on_c, 0, 59, 53
1, 117000, Note_on_c, 0, 59, 0
1, 117000, Note_on_c, 0, 61, 49
1, 117075, Note_on_c, 0, 86, 0
1, 117075, Note_on_c, 0, 88, 0
1, 117075, Note_on_c, 0, 76, 0
1, 117075, Note_on_c, 0, 80, 0
1, 117075, Note_on_c, 0, 76, 34
1, 117090, Note_on_c, 0, 80, 34
1, 117105, Note_on_c, 0, 86, 39
1, 117120, Note_on_c, 0, 61, 0
1, 117120, Note_on_c, 0, 88, 45
1, 117120, Note_on_c, 0, 62, 54
1, 117140, Control_c, 0, 64, 0
1, 117201, Control_c, 0, 64, 127
1, 117315, Note_on_c, 0, 88, 0
1, 117315, Note_on_c, 0, 76, 0
1, 117315, Note_on_c, 0, 86, 0
1, 117315, Note_on_c, 0, 80, 0
1, 117315, Note_on_c, 0, 76, 34
1, 117330, Note_on_c, 0, 80, 34
1, 117345, Note_on_c, 0, 86, 39
1, 117360, Note_on_c, 0, 88, 45
1, 117480, Tempo, 796707
1, 117480, Note_on_c, 0, 62, 0
1, 117480, Note_on_c, 0, 64, 51
1, 117555, Note_on_c, 0, 86, 0
1, 117555, Note_on_c, 0, 88, 0
1, 117555, Note_on_c, 0, 76, 0
1, 117555, Note_on_c, 0, 80, 0
1, 117555, Note_on_c, 0, 76, 34
1, 117570, Note_on_c, 0, 80, 34
1, 117585, Note_on_c, 0, 86, 39
1, 117600, Tempo, 768246
1, 117600, Note_on_c, 0, 64, 0
1, 117600, Note_on_c, 0, 88, 45
1, 117600, Note_on_c, 0, 66, 54
1, 117609, Control_c, 0, 64, 0
1, 117660, Control_c, 0, 64, 127
1, 117795, Note_on_c, 0, 88, 0
1, 117795, Note_on_c, 0, 76, 0
1, 117795, Note_on_c, 0, 86, 0
1, 117795, Note_on_c, 0, 80, 0
1, 117795, Note_on_c, 0, 76, 34
1, 117810, Note_on_c, 0, 80, 34
1, 117825, Note_on_c, 0, 86, 39
1, 117840, Tempo, 792602
1, 117840, Note_on_c, 0, 88, 45
1, 117960, Tempo, 822143
1, 117960, Note_on_c, 0, 66, 0
1, 117960, Note_on_c, 0, 69, 50
1, 118050, Note_on_c, 0, 86, 0
1, 118050, Note_on_c, 0, 88, 0
1, 118050, Note_on_c, 0, 76, 0
1, 118050, Note_on_c, 0, 80, 0
1, 118050, Note_on_c, 0, 80, 34
1, 118065, Note_on_c, 0, 86, 39
1, 118080, Tempo, 768246
1, 118080, Note_on_c, 0, 69, 0
1, 118080, Note_on_c, 0, 88, 45
1, 118080, Note_on_c, 0, 66, 54
1, 118089, Control_c, 0, 64, 0
1, 118122, Control_c, 0, 64, 127
1, 118160, Note_on_c, 0, 66, 0
1, 118160, Note_on_c, 0, 68, 49
1, 118240, Note_on_c, 0, 68, 0
1, 118240, Note_on_c, 0, 66, 50
1, 118290, Note_on_c, 0, 88, 0
1, 118290, Note_on_c, 0, 80, 0
1, 118290, Note_on_c, 0, 86, 0
1, 118290, Note_on_c, 0, 80, 34
1, 118305, Note_on_c, 0, 86, 39
1, 118320, Tempo, 778513
1, 118320, Note_on_c, 0, 66, 0
1, 118320, Note_on_c, 0, 88, 45
1, 118320, Note_on_c, 0, 64, 50
1, 118339, Control_c, 0, 64, 0
1, 118405, Control_c, 0, 64, 127
1, 118530, Note_on_c, 0, 88, 0
1, 118530, Note_on_c, 0, 80, 0
1, 118530, Note_on_c, 0, 86, 0
1, 118530, Note_on_c, 0, 80, 34
1, 118545, Note_on_c, 0, 86, 39
1, 118560, Tempo, 839161
1, 118560, Note_on_c, 0, 64, 0
1, 118560, Note_on_c, 0, 88, 45
1, 118680, Tempo, 736196
1, 118680, Note_on_c, 0, 59, 42
1, 118694, Control_c, 0, 64, 0
1, 118722, Control_c, 0, 64, 127
1, 118770, Note_on_c, 0, 88, 0
1, 118770, Note_on_c, 0, 80, 0
1, 118770, Note_on_c, 0, 86, 0
1, 118770, Note_on_c, 0, 80, 34
1, 118785, Note_on_c, 0, 86, 39
1, 118800, Tempo, 774094
1, 118800, Note_on_c, 0, 59, 0
1, 118800, Note_on_c, 0, 88, 45
1, 118800, Note_on_c, 0, 56, 45
1, 119010, Note_on_c, 0, 88, 0
1, 119010, Note_on_c, 0, 80, 0
1, 119010, Note_on_c, 0, 86, 0
1, 119010, Note_on_c, 0, 80, 34
1, 119025, Note_on_c, 0, 86, 39
1, 119040, Note_on_c, 0, 88, 45
1, 119160, Tempo, 750000
1, 119160, Note_on_c, 0, 56, 0
1, 119160, Note_on_c, 0, 47, 42
1, 119250, Note_on_c, 0, 80, 0
1, 119250, Note_on_c, 0, 88, 0
1, 119250, Note_on_c, 0, 86, 0
1, 119250, Note_on_c, 0, 80, 34
1, 119265, Note_on_c, 0, 86, 39
1, 119280, Tempo, 784314
1, 119280, Note_on_c, 0, 47, 0
1, 119280, Note_on_c, 0, 88, 45
1, 119280, Note_on_c, 0, 40, 46
1, 119490, Note_on_c, 0, 88, 0
1, 119490, Note_on_c, 0, 80, 0
1, 119490, Note_on_c, 0, 86, 0
1, 119490, Note_on_c, 0, 81, 41
1, 119505, Note_on_c, 0, 85, 41
1, 119520, Tempo, 765209
1, 119520, Note_on_c, 0, 40, 0
1, 119520, Note_on_c, 0, 88, 45
1, 119523, Control_c, 0, 64, 0
1, 119667, Control_c, 0, 64, 127
1, 119730, Note_on_c, 0, 88, 0
1, 119730, Note_on_c, 0, 85, 0
1, 119730, Note_on_c, 0, 81, 0
1, 119730, Note_on_c, 0, 81, 40
1, 119745, Note_on_c, 0, 85, 40
1, 119760, Tempo, 778614
1, 119760, Note_on_c, 0, 88, 45
1, 119760, Note_on_c, 0, 64, 52
1, 119970, Note_on_c, 0, 88, 0
1, 119970, Note_on_c, 0, 81, 0
1, 119970, Note_on_c, 0, 85, 0
1, 119970, Note_on_c, 0, 81, 39
1, 119985, Note_on_c, 0, 85, 40
1, 120000, Tempo, 765111
1, 120000, Note_on_c, 0, 64, 0
1, 120000, Note_on_c, 0, 88, 45
1, 120000, Note_on_c, 0, 69, 50
1, 120210, Note_on_c, 0, 88, 0
1, 120210, Note_on_c, 0, 81, 0
1, 120210, Note_on_c, 0, 85, 0
1, 120210, Note_on_c, 0, 81, 41
1, 120225, Note_on_c, 0, 85, 41
1, 120240, Tempo, 764331
1, 120240, Note_on_c, 0, 88, 45
1, 120247, Control_c, 0, 64, 0
1, 120289, Control_c, 0, 64, 127
1, 120360, Note_on_c, 0, 69, 0
1, 120360, Note_on_c, 0, 71, 50
1, 120450, Note_on_c, 0, 81, 0
1, 120450, Note_on_c, 0, 88, 0
1, 120450, Note_on_c, 0, 85, 0
1, 120450, Note_on_c, 0, 81, 40
1, 120465, Note_on_c, 0, 85, 40
1, 120480, Tempo, 784314
1, 120480, Note_on_c, 0, 71, 0
1, 120480, Note_on_c, 0, 88, 45
1, 120480, Note_on_c, 0, 68, 53
1, 120501, Control_c, 0, 64, 0
1, 120565, Control_c, 0, 64, 127
1, 120600, Note_on_c, 0, 68, 0
1, 120600, Note_on_c, 0, 69, 50
1, 120690, Note_on_c, 0, 81, 0
1, 120690, Note_on_c, 0, 88, 0
1, 120690, Note_on_c, 0, 85, 0
1, 120690, Note_on_c, 0, 81, 39
1, 120705, Note_on_c, 0, 85, 40
1, 120720, Tempo, 812128
1, 120720, Note_on_c, 0, 69, 0
1, 120720, Note_on_c, 0, 88, 45
1, 120720, Note_on_c, 0, 66, 53
1, 120731, Control_c, 0, 64, 0
1, 120812, Control_c, 0, 64, 127
1, 120840, Tempo, 848536
1, 120840, Note_on_c, 0, 66, 0
1, 120840, Note_on_c, 0, 68, 50
1, 120930, Note_on_c, 0, 81, 0
1, 120930, Note_on_c, 0, 88, 0
1, 120930, Note_on_c, 0, 85, 0
1, 120930, Note_on_c, 0, 80, 41
1, 120945, Note_on_c, 0, 86, 41
1, 120960, Tempo, 783188
1, 120960, Note_on_c, 0, 68, 0
1, 120960, Note_on_c, 0, 88, 45
1, 120960, Note_on_c, 0, 64, 50
1, 120972, Control_c, 0, 64, 0
1, 121020, Note_on_c, 0, 64, 0
1, 121020, Note_on_c, 0, 66, 46
1, 121024, Control_c, 0, 64, 127
1, 121080, Note_on_c, 0, 66, 0
1, 121080, Note_on_c, 0, 64, 49
1, 121140, Note_on_c, 0, 64, 0
1, 121140, Note_on_c, 0, 62, 43
1, 121170, Note_on_c, 0, 80, 0
1, 121170, Note_on_c, 0, 88, 0
1, 121170, Note_on_c, 0, 86, 0
1, 121170, Note_on_c, 0, 80, 40
1, 121185, Note_on_c, 0, 86, 40
1, 121200, Note_on_c, 0, 62, 0
1, 121200, Note_on_c, 0, 88, 45
1, 121200, Note_on_c, 0, 59, 47
1, 121219, Control_c, 0, 64, 0
1, 121246, Control_c, 0, 64, 127
1, 121410, Note_on_c, 0, 88, 0
1, 121410, Note_on_c, 0, 80, 0
1, 121410, Note_on_c, 0, 86, 0
1, 121410, Note_on_c, 0, 80, 39
1, 121425, Note_on_c, 0, 86, 40
1, 121440, Tempo, 805369
1, 121440, Note_on_c, 0, 88, 45
1, 121560, Tempo, 736196
1, 121560, Note_on_c, 0, 59, 0
1, 121560, Note_on_c, 0, 59, 42
1, 121574, Control_c, 0, 64, 0
1, 121602, Control_c, 0, 64, 127
1, 121650, Note_on_c, 0, 80, 0
1, 121650, Note_on_c, 0, 88, 0
1, 121650, Note_on_c, 0, 86, 0
1, 121650, Note_on_c, 0, 80, 34
1, 121665, Note_on_c, 0, 86, 39
1, 121680, Tempo, 774094
1, 121680, Note_on_c, 0, 59, 0
1, 121680, Note_on_c, 0, 88, 45
1, 121680, Note_on_c, 0, 52, 45
1, 121890, Note_on_c, 0, 88, 0
1, 121890, Note_on_c, 0, 80, 0
1, 121890, Note_on_c, 0, 86, 0
1, 121890, Note_on_c, 0, 80, 34
1, 121905, Note_on_c, 0, 86, 39
1, 121920, Note_on_c, 0, 88, 45
1, 122040, Tempo, 750000
1, 122040, Note_on_c, 0, 52, 0
1, 122040, Note_on_c, 0, 47, 42
1, 122130, Note_on_c, 0, 80, 0
1, 122130, Note_on_c, 0, 88, 0
1, 122130, Note_on_c, 0, 86, 0
1, 122130, Note_on_c, 0, 80, 34
1, 122145, Note_on_c, 0, 86, 39
1, 122160, Tempo, 784314
1, 122160, Note_on_c, 0, 47, 0
1, 122160, Note_on_c, 0, 88, 45
1, 122160, Note_on_c, 0, 40, 46
1, 122370, Note_on_c, 0, 88, 0
1, 122370, Note_on_c, 0, 80, 0
1, 122370, Note_on_c, 0, 86, 0
1, 122370, Note_on_c, 0, 80, 34
1, 122385, Note_on_c, 0, 86, 39
1, 122400, Tempo, 794702
1, 122400, Note_on_c, 0, 40, 0
1, 122400, Note_on_c, 0, 88, 45
1, 122416, Control_c, 0, 64, 0
1, 122506, Control_c, 0, 64, 127
1, 122520, Tempo, 759494
1, 122610, Note_on_c, 0, 88, 0
1, 122610, Note_on_c, 0, 86, 0
1, 122610, Note_on_c, 0, 80, 0
1, 122610, Note_on_c, 0, 80, 34
1, 122625, Note_on_c, 0, 86, 39
1, 122640, Tempo, 774094
1, 122640, Note_on_c, 0, 88, 45
1, 122640, Note_on_c, 0, 59, 53
1, 122760, Note_on_c, 0, 59, 0
1, 122760, Note_on_c, 0, 61, 49
1, 122850, Note_on_c, 0, 80, 0
1, 122850, Note_on_c, 0, 88, 0
1, 122850, Note_on_c, 0, 86, 0
1, 122850, Note_on_c, 0, 80, 34
1, 122865, Note_on_c, 0, 86, 39
1, 122880, Note_on_c, 0, 61, 0
1, 122880, Note_on_c, 0, 88, 45
1, 122880, Note_on_c, 0, 62, 54
1, 122898, Control_c, 0, 64, 0
1, 122961, Control_c, 0, 64, 127
1, 123090, Note_on_c, 0, 88, 0
1, 123090, Note_on_c, 0, 80, 0
1, 123090, Note_on_c, 0, 86, 0
1, 123090, Note_on_c, 0, 80, 34
1, 123105, Note_on_c, 0, 86, 39
1, 123120, Note_on_c, 0, 88, 45
1, 123240, Tempo, 796707
1, 123240, Note_on_c, 0, 62, 0
1, 123240, Note_on_c, 0, 64, 51
1, 123330, Note_on_c, 0, 80, 0
1, 123330, Note_on_c, 0, 88, 0
1, 123330, Note_on_c, 0, 86, 0
1, 123330, Note_on_c, 0, 80, 34
1, 123345, Note_on_c, 0, 86, 39
1, 123360, Tempo, 768246
1, 123360, Note_on_c, 0, 64, 0
1, 123360, Note_on_c, 0, 88, 45
1, 123360, Note_on_c, 0, 66, 54
1, 123371, Control_c, 0, 64, 0
1, 123473, Control_c, 0, 64, 127
1, 123570, Note_on_c, 0, 88, 0
1, 123570, Note_on_c, 0, 80, 0
1, 123570, Note_on_c, 0, 86, 0
1, 123570, Note_on_c, 0, 80, 34
1, 123585, Note_on_c, 0, 86, 39
1, 123600, Tempo, 792602
1, 123600, Note_on_c, 0, 88, 45
1, 123720, Tempo, 822143
1, 123720, Note_on_c, 0, 66, 0
1, 123720, Note_on_c, 0, 69, 50
1, 123810, Note_on_c, 0, 80, 0
1, 123810, Note_on_c, 0, 88, 0
1, 123810, Note_on_c, 0, 86, 0
1, 123810, Note_on_c, 0, 81, 34
1, 123825, Note_on_c, 0, 85, 39
1, 123840, Tempo, 768246
1, 123840, Note_on_c, 0, 69, 0
1, 123840, Note_on_c, 0, 88, 45
1, 123840, Note_on_c, 0, 66, 54
1, 123850, Control_c, 0, 64, 0
1, 123882, Control_c, 0, 64, 127
1, 123920, Note_on_c, 0, 66, 0
1, 123920, Note_on_c, 0, 68, 48
1, 124000, Note_on_c, 0, 68, 0
1, 124000, Note_on_c, 0, 66, 50
1, 124050, Note_on_c, 0, 88, 0
1, 124050, Note_on_c, 0, 81, 0
1, 124050, Note_on_c, 0, 85, 0
1, 124050, Note_on_c, 0, 81, 34
1, 124065, Note_on_c, 0, 85, 39
1, 124080, Tempo, 778513
1, 124080, Note_on_c, 0, 66, 0
1, 124080, Note_on_c, 0, 88, 45
1, 124080, Note_on_c, 0, 64, 50
1, 124099, Control_c, 0, 64, 0
1, 124165, Control_c, 0, 64, 127
1, 124290, Note_on_c, 0, 88, 0
1, 124290, Note_on_c, 0, 81, 0
1, 124290, Note_on_c, 0, 85, 0
1, 124290, Note_on_c, 0, 81, 34
1, 124305, Note_on_c, 0, 85, 39
1, 124320, Tempo, 821918
1, 124320, Note_on_c, 0, 64, 0
1, 124320, Note_on_c, 0, 88, 45
1, 124440, Tempo, 736196
1, 124440, Note_on_c, 0, 52, 42
1, 124454, Control_c, 0, 64, 0
1, 124482, Control_c, 0, 64, 127
1, 124530, Note_on_c, 0, 88, 0
1, 124530, Note_on_c, 0, 81, 0
1, 124530, Note_on_c, 0, 85, 0
1, 124530, Note_on_c, 0, 81, 34
1, 124545, Note_on_c, 0, 85, 39
1, 124560, Tempo, 774094
1, 124560, Note_on_c, 0, 52, 0
1, 124560, Note_on_c, 0, 88, 45
1, 124560, Note_on_c, 0, 45, 45
1, 124770, Note_on_c, 0, 88, 0
1, 124770, Note_on_c, 0, 81, 0
1, 124770, Note_on_c, 0, 85, 0
1, 124770, Note_on_c, 0, 81, 34
1, 124785, Note_on_c, 0, 85, 39
1, 124800, Note_on_c, 0, 88, 45
1, 124920, Tempo, 750000
1, 124920, Note_on_c, 0, 45, 0
1, 124920, Note_on_c, 0, 40, 42
1, 125010, Note_on_c, 0, 81, 0
1, 125010, Note_on_c, 0, 88, 0
1, 125010, Note_on_c, 0, 85, 0
1, 125010, Note_on_c, 0, 81, 34
1, 125025, Note_on_c, 0, 85, 39
1, 125040, Tempo, 784314
1, 125040, Note_on_c, 0, 40, 0
1, 125040, Note_on_c, 0, 88, 45
1, 125040, Note_on_c, 0, 33, 46
1, 125250, Note_on_c, 0, 88, 0
1, 125250, Note_on_c, 0, 81, 0
1, 125250, Note_on_c, 0, 85, 0
1, 125250, Note_on_c, 0, 81, 41
1, 125265, Note_on_c, 0, 85, 41
1, 125280, Tempo, 869565
1, 125280, Note_on_c, 0, 88, 45
1, 125284, Control_c, 0, 64, 0
1, 125360, Control_c, 0, 64, 127
1, 125400, Tempo, 764331
1, 125400, Note_on_c, 0, 33, 0
1, 125400, Note_on_c, 0, 64, 48
1, 125490, Note_on_c, 0, 81, 0
1, 125490, Note_on_c, 0, 88, 0
1, 125490, Note_on_c, 0, 85, 0
1, 125490, Note_on_c, 0, 81, 41
1, 125505, Note_on_c, 0, 85, 41
1, 125520, Tempo, 789474
1, 125520, Note_on_c, 0, 64, 0
1, 125520, Note_on_c, 0, 88, 46
1, 125520, Note_on_c, 0, 69, 51
1, 125640, Tempo, 816327
1, 125640, Note_on_c, 0, 69, 0
1, 125640, Note_on_c, 0, 71, 54
1, 125730, Note_on_c, 0, 81, 0
1, 125730, Note_on_c, 0, 88, 0
1, 125730, Note_on_c, 0, 85, 0
1, 125730, Note_on_c, 0, 81, 41
1, 125745, Note_on_c, 0, 85, 42
1, 125760, Tempo, 765111
1, 125760, Note_on_c, 0, 71, 0
1, 125760, Note_on_c, 0, 88, 48
1, 125760, Note_on_c, 0, 74, 59
1, 125970, Note_on_c, 0, 88, 0
1, 125970, Note_on_c, 0, 81, 0
1, 125970, Note_on_c, 0, 85, 0
1, 125970, Note_on_c, 0, 81, 41
1, 125985, Note_on_c, 0, 85, 41
1, 126000, Tempo, 764331
1, 126000, Note_on_c, 0, 88, 45
1, 126009, Control_c, 0, 64, 0
1, 126049, Control_c, 0, 64, 127
1, 126120, Note_on_c, 0, 74, 0
1, 126120, Note_on_c, 0, 73, 52
1, 126210, Note_on_c, 0, 81, 0
1, 126210, Note_on_c, 0, 88, 0
1, 126210, Note_on_c, 0, 85, 0
1, 126210, Note_on_c, 0, 81, 40
1, 126225, Note_on_c, 0, 85, 40
1, 126240, Tempo, 784314
1, 126240, Note_on_c, 0, 73, 0
1, 126240, Note_on_c, 0, 88, 45
1, 126240, Note_on_c, 0, 71, 55
1, 126259, Control_c, 0, 64, 0
1, 126325, Control_c, 0, 64, 127
1, 126360, Note_on_c, 0, 71, 0
1, 126360, Note_on_c, 0, 69, 52
1, 126450, Note_on_c, 0, 81, 0
1, 126450, Note_on_c, 0, 88, 0
1, 126450, Note_on_c, 0, 85, 0
1, 126450, Note_on_c, 0, 81, 39
1, 126465, Note_on_c, 0, 85, 40
1, 126480, Tempo, 812128
1, 126480, Note_on_c, 0, 69, 0
1, 126480, Note_on_c, 0, 88, 45
1, 126480, Note_on_c, 0, 66, 55
1, 126490, Control_c, 0, 64, 0
1, 126529, Control_c, 0, 64, 127
1, 126600, Tempo, 848536
1, 126600, Note_on_c, 0, 66, 0
1, 126600, Note_on_c, 0, 68, 52
1, 126675, Note_on_c, 0, 81, 0
1, 126675, Note_on_c, 0, 88, 0
1, 126675, Note_on_c, 0, 85, 0
1, 126675, Note_on_c, 0, 76, 34
1, 126690, Note_on_c, 0, 80, 34
1, 126705, Note_on_c, 0, 86, 39
1, 126720, Tempo, 783188
1, 126720, Note_on_c, 0, 68, 0
1, 126720, Note_on_c, 0, 88, 45
1, 126720, Note_on_c, 0, 64, 52
1, 126736, Control_c, 0, 64, 0
1, 126780, Note_on_c, 0, 64, 0
1, 126780, Note_on_c, 0, 66, 48
1, 126784, Control_c, 0, 64, 127
1, 126840, Note_on_c, 0, 66, 0
1, 126840, Note_on_c, 0, 64, 52
1, 126900, Note_on_c, 0, 64, 0
1, 126900, Note_on_c, 0, 62, 48
1, 126915, Note_on_c, 0, 76, 0
1, 126915, Note_on_c, 0, 88, 0
1, 126915, Note_on_c, 0, 86, 0
1, 126915, Note_on_c, 0, 80, 0
1, 126915, Note_on_c, 0, 76, 34
1, 126930, Note_on_c, 0, 80, 34
1, 126945, Note_on_c, 0, 86, 39
1, 126960, Note_on_c, 0, 62, 0
1, 126960, Note_on_c, 0, 88, 45
1, 126960, Note_on_c, 0, 59, 52
1, 126976, Control_c, 0, 64, 0
1, 127006, Control_c, 0, 64, 127
1, 127155, Note_on_c, 0, 88, 0
1, 127155, Note_on_c, 0, 76, 0
1, 127155, Note_on_c, 0, 86, 0
1, 127155, Note_on_c, 0, 80, 0
1, 127155, Note_on_c, 0, 76, 34
1, 127170, Note_on_c, 0, 80, 34
1, 127185, Note_on_c, 0, 86, 39
1, 127200, Tempo, 816327
1, 127200, Note_on_c, 0, 88, 45
1, 127320, Tempo, 736196
1, 127320, Note_on_c, 0, 59, 0
1, 127320, Note_on_c, 0, 59, 42
1, 127332, Control_c, 0, 64, 0
1, 127362, Control_c, 0, 64, 127
1, 127395, Note_on_c, 0, 86, 0
1, 127395, Note_on_c, 0, 88, 0
1, 127395, Note_on_c, 0, 76, 0
1, 127395, Note_on_c, 0, 80, 0
1, 127395, Note_on_c, 0, 76, 34
1, 127410, Note_on_c, 0, 80, 34
1, 127425, Note_on_c, 0, 86, 39
1, 127440, Tempo, 774094
1, 127440, Note_on_c, 0, 59, 0
1, 127440, Note_on_c, 0, 88, 45
1, 127440, Note_on_c, 0, 52, 45
1, 127635, Note_on_c, 0, 88, 0
1, 127635, Note_on_c, 0, 76, 0
1, 127635, Note_on_c, 0, 86, 0
1, 127635, Note_on_c, 0, 80, 0
1, 127635, Note_on_c, 0, 76, 34
1, 127650, Note_on_c, 0, 80, 34
1, 127665, Note_on_c, 0, 86, 39
1, 127680, Note_on_c, 0, 88, 45
1, 127800, Tempo, 750000
1, 127800, Note_on_c, 0, 52, 0
1, 127800, Note_on_c, 0, 47, 42
1, 127875, Note_on_c, 0, 86, 0
1, 127875, Note_on_c, 0, 88, 0
1, 127875, Note_on_c, 0, 76, 0
1, 127875, Note_on_c, 0, 80, 0
1, 127875, Note_on_c, 0, 76, 34
1, 127890, Note_on_c, 0, 80, 34
1, 127905, Note_on_c, 0, 86, 39
1, 127920, Tempo, 784314
1, 127920, Note_on_c, 0, 47, 0
1, 127920, Note_on_c, 0, 88, 45
1, 127920, Note_on_c, 0, 40, 46
1, 128115, Note_on_c, 0, 88, 0
1, 128115, Note_on_c, 0, 76, 0
1, 128115, Note_on_c, 0, 86, 0
1, 128115, Note_on_c, 0, 80, 0
1, 128115, Note_on_c, 0, 76, 34
1, 128130, Note_on_c, 0, 80, 34
1, 128145, Note_on_c, 0, 86, 39
1, 128160, Tempo, 800000
1, 128160, Note_on_c, 0, 40, 0
1, 128160, Note_on_c, 0, 88, 45
1, 128168, Control_c, 0, 64, 0
1, 128256, Control_c, 0, 64, 127
1, 128280, Tempo, 750000
1, 128355, Note_on_c, 0, 88, 0
1, 128355, Note_on_c, 0, 86, 0
1, 128355, Note_on_c, 0, 80, 0
1, 128355, Note_on_c, 0, 76, 0
1, 128355, Note_on_c, 0, 76, 34
1, 128370, Note_on_c, 0, 80, 34
1, 128385, Note_on_c, 0, 86, 39
1, 128400, Tempo, 774094
1, 128400, Note_on_c, 0, 88, 45
1, 128400, Note_on_c, 0, 59, 53
1, 128520, Note_on_c, 0, 59, 0
1, 128520, Note_on_c, 0, 61, 49
1, 128595, Note_on_c, 0, 86, 0
1, 128595, Note_on_c, 0, 88, 0
1, 128595, Note_on_c, 0, 76, 0
1, 128595, Note_on_c, 0, 80, 0
1, 128595, Note_on_c, 0, 76, 34
1, 128610, Note_on_c, 0, 80, 34
1, 128625, Note_on_c, 0, 86, 39
1, 128640, Note_on_c, 0, 61, 0
1, 128640, Note_on_c, 0, 88, 45
1, 128640, Note_on_c, 0, 62, 54
1, 128656, Control_c, 0, 64, 0
1, 128721, Control_c, 0, 64, 127
1, 128835, Note_on_c, 0, 88, 0
1, 128835, Note_on_c, 0, 76, 0
1, 128835, Note_on_c, 0, 86, 0
1, 128835, Note_on_c, 0, 80, 0
1, 128835, Note_on_c, 0, 76, 34
1, 128850, Note_on_c, 0, 80, 34
1, 128865, Note_on_c, 0, 86, 39
1, 128880, Note_on_c, 0, 88, 45
1, 129000, Tempo, 796707
1, 129000, Note_on_c, 0, 62, 0
1, 129000, Note_on_c, 0, 64, 51
1, 129075, Note_on_c, 0, 86, 0
1, 129075, Note_on_c, 0, 88, 0
1, 129075, Note_on_c, 0, 76, 0
1, 129075, Note_on_c, 0, 80, 0
1, 129075, Note_on_c, 0, 76, 34
1, 129090, Note_on_c, 0, 80, 34
1, 129105, Note_on_c, 0, 86, 39
1, 129120, Tempo, 768246
1, 129120, Note_on_c, 0, 64, 0
1, 129120, Note_on_c, 0, 88, 45
1, 129120, Note_on_c, 0, 66, 54
1, 129129, Control_c, 0, 64, 0
1, 129180, Control_c, 0, 64, 127
1, 129315, Note_on_c, 0, 88, 0
1, 129315, Note_on_c, 0, 76, 0
1, 129315, Note_on_c, 0, 86, 0
1, 129315, Note_on_c, 0, 80, 0
1, 129315, Note_on_c, 0, 76, 34
1, 129330, Note_on_c, 0, 80, 34
1, 129345, Note_on_c, 0, 86, 39
1, 129360, Tempo, 792602
1, 129360, Note_on_c, 0, 88, 45
1, 129480, Tempo, 822143
1, 129480, Note_on_c, 0, 66, 0
1, 129480, Note_on_c, 0, 69, 50
1, 129555, Note_on_c, 0, 86, 0
1, 129555, Note_on_c, 0, 88, 0
1, 129555, Note_on_c, 0, 76, 0
1, 129555, Note_on_c, 0, 80, 0
1, 129555, Note_on_c, 0, 76, 34
1, 129570, Note_on_c, 0, 81, 34
1, 129585, Note_on_c, 0, 85, 39
1, 129600, Tempo, 768246
1, 129600, Note_on_c, 0, 69, 0
1, 129600, Note_on_c, 0, 88, 45
1, 129600, Note_on_c, 0, 66, 54
1, 129609, Control_c, 0, 64, 0
1, 129642, Control_c, 0, 64, 127
1, 129680, Note_on_c, 0, 66, 0
1, 129680, Note_on_c, 0, 68, 46
1, 129760, Note_on_c, 0, 68, 0
1, 129760, Note_on_c, 0, 66, 50
1, 129795, Note_on_c, 0, 88, 0
1, 129795, Note_on_c, 0, 76, 0
1, 129795, Note_on_c, 0, 85, 0
1, 129795, Note_on_c, 0, 81, 0
1, 129795, Note_on_c, 0, 76, 34
1, 129810, Note_on_c, 0, 81, 34
1, 129825, Note_on_c, 0, 85, 39
1, 129840, Tempo, 778513
1, 129840, Note_on_c, 0, 66, 0
1, 129840, Note_on_c, 0, 88, 45
1, 129840, Note_on_c, 0, 64, 50
1, 129859, Control_c, 0, 64, 0
1, 129942, Control_c, 0, 64, 127
1, 130035, Note_on_c, 0, 88, 0
1, 130035, Note_on_c, 0, 76, 0
1, 130035, Note_on_c, 0, 85, 0
1, 130035, Note_on_c, 0, 81, 0
1, 130035, Note_on_c, 0, 76, 34
1, 130050, Note_on_c, 0, 81, 34
1, 130065, Note_on_c, 0, 85, 39
1, 130080, Note_on_c, 0, 88, 45
1, 130275, Note_on_c, 0, 88, 0
1, 130275, Note_on_c, 0, 81, 0
1, 130275, Note_on_c, 0, 85, 0
1, 130275, Note_on_c, 0, 76, 0
1, 130275, Note_on_c, 0, 76, 34
1, 130290, Note_on_c, 0, 81, 34
1, 130305, Note_on_c, 0, 85, 39
1, 130320, Tempo, 774194
1, 130320, Note_on_c, 0, 88, 44
1, 130420, Tempo, 779221
1, 130515, Note_on_c, 0, 88, 0
1, 130515, Note_on_c, 0, 81, 0
1, 130515, Note_on_c, 0, 85, 0
1, 130515, Note_on_c, 0, 76, 0
1, 130515, Note_on_c, 0, 76, 31
1, 130520, Tempo, 784314
1, 130530, Note_on_c, 0, 81, 31
1, 130545, Note_on_c, 0, 85, 36
1, 130560, Note_on_c, 0, 88, 41
1, 130620, Tempo, 789474
1, 130720, Tempo, 794702
1, 130755, Note_on_c, 0, 88, 0
1, 130755, Note_on_c, 0, 81, 0
1, 130755, Note_on_c, 0, 85, 0
1, 130755, Note_on_c, 0, 76, 0
1, 130755, Note_on_c, 0, 76, 29
1, 130770, Note_on_c, 0, 81, 29
1, 130785, Note_on_c, 0, 85, 33
1, 130800, Tempo, 800000
1, 130800, Note_on_c, 0, 88, 38
1, 130920, Tempo, 1016949
1, 130980, Tempo, 764331
1, 130995, Note_on_c, 0, 88, 0
1, 130995, Note_on_c, 0, 81, 0
1, 130995, Note_on_c, 0, 85, 0
1, 130995, Note_on_c, 0, 76, 0
1, 130995, Note_on_c, 0, 76, 27
1, 131010, Note_on_c, 0, 81, 27
1, 131025, Note_on_c, 0, 84, 31
1, 131040, Tempo, 784314
1, 131040, Note_on_c, 0, 64, 0
1, 131040, Note_on_c, 0, 88, 36
1, 131040, Note_on_c, 0, 65, 44
1, 131048, Control_c, 0, 64, 0
1, 131082, Control_c, 0, 64, 127
1, 131120, Note_on_c, 0, 65, 0
1, 131120, Note_on_c, 0, 67, 37
1, 131200, Note_on_c, 0, 67, 0
1, 131200, Note_on_c, 0, 65, 37
1, 131235, Note_on_c, 0, 88, 0
1, 131235, Note_on_c, 0, 76, 0
1, 131235, Note_on_c, 0, 84, 0
1, 131235, Note_on_c, 0, 81, 0
1, 131235, Note_on_c, 0, 76, 27
1, 131250, Note_on_c, 0, 81, 27
1, 131265, Note_on_c, 0, 84, 31
1, 131280, Tempo, 805369
1, 131280, Note_on_c, 0, 65, 0
1, 131280, Note_on_c, 0, 88, 36
1, 131280, Note_on_c, 0, 64, 38
1, 131293, Control_c, 0, 64, 0
1, 131382, Control_c, 0, 64, 127
1, 131475, Note_on_c, 0, 88, 0
1, 131475, Note_on_c, 0, 76, 0
1, 131475, Note_on_c, 0, 84, 0
1, 131475, Note_on_c, 0, 81, 0
1, 131475, Note_on_c, 0, 76, 27
1, 131490, Note_on_c, 0, 81, 27
1, 131505, Note_on_c, 0, 84, 31
1, 131520, Note_on_c, 0, 88, 36
1, 131715, Note_on_c, 0, 88, 0
1, 131715, Note_on_c, 0, 81, 0
1, 131715, Note_on_c, 0, 84, 0
1, 131715, Note_on_c, 0, 76, 0
1, 131715, Note_on_c, 0, 76, 27
1, 131730, Note_on_c, 0, 81, 27
1, 131745, Note_on_c, 0, 84, 31
1, 131760, Note_on_c, 0, 88, 36
1, 131955, Note_on_c, 0, 88, 0
1, 131955, Note_on_c, 0, 81, 0
1, 131955, Note_on_c, 0, 84, 0
1, 131955, Note_on_c, 0, 76, 0
1, 131955, Note_on_c, 0, 76, 27
1, 131970, Note_on_c, 0, 81, 27
1, 131985, Note_on_c, 0, 84, 31
1, 132000, Note_on_c, 0, 88, 36
1, 132195, Note_on_c, 0, 88, 0
1, 132195, Note_on_c, 0, 81, 0
1, 132195, Note_on_c, 0, 84, 0
1, 132195, Note_on_c, 0, 76, 0
1, 132195, Note_on_c, 0, 76, 27
1, 132210, Note_on_c, 0, 81, 27
1, 132225, Note_on_c, 0, 84, 31
1, 132240, Tempo, 875912
1, 132240, Note_on_c, 0, 88, 36
1, 132427, Control_c, 0, 64, 0
1, 132435, Note_on_c, 0, 88, 0
1, 132435, Note_on_c, 0, 81, 0
1, 132435, Note_on_c, 0, 84, 0
1, 132435, Note_on_c, 0, 76, 0
1, 132480, Tempo, 558140
1, 132480, Note_on_c, 0, 64, 0
1, 132480, Note_on_c, 0, 37, 69
1, 132590, Control_c, 0, 64, 127
1, 132720, Tempo, 545455
1, 132720, Note_on_c, 0, 37, 0
1, 132720, Note_on_c, 0, 68, 51
1, 132720, Note_on_c, 0, 71, 54
1, 132720, Note_on_c, 0, 74, 72
1, 132720, Note_on_c, 0, 66, 60
1, 132720, Note_on_c, 0, 61, 49
1, 132738, Control_c, 0, 64, 0
1, 132773, Control_c, 0, 64, 127
1, 132800, Note_on_c, 0, 74, 0
1, 132800, Note_on_c, 0, 76, 60
1, 132880, Note_on_c, 0, 76, 0
1, 132880, Note_on_c, 0, 74, 59
1, 132960, Tempo, 542986
1, 132960, Note_on_c, 0, 74, 0
1, 132960, Note_on_c, 0, 66, 0
1, 132960, Note_on_c, 0, 68, 0
1, 132960, Note_on_c, 0, 71, 0
1, 132960, Note_on_c, 0, 61, 0
1, 132960, Note_on_c, 0, 71, 54
1, 132960, Note_on_c, 0, 68, 68
1, 132960, Note_on_c, 0, 73, 68
1, 132960, Note_on_c, 0, 65, 45
1, 132960, Note_on_c, 0, 61, 43
1, 132974, Control_c, 0, 64, 0
1, 133050, Note_on_c, 0, 73, 0
1, 133050, Note_on_c, 0, 68, 0
1, 133080, Tempo, 560748
1, 133080, Note_on_c, 0, 71, 0
1, 133080, Note_on_c, 0, 65, 0
1, 133080, Note_on_c, 0, 61, 0
1, 133200, Tempo, 545455
1, 133200, Note_on_c, 0, 80, 51
1, 133200, Note_on_c, 0, 83, 53
1, 133200, Note_on_c, 0, 86, 72
1, 133200, Note_on_c, 0, 73, 49
1, 133200, Note_on_c, 0, 78, 60
1, 133220, Control_c, 0, 64, 0
1, 133246, Control_c, 0, 64, 127
1, 133280, Note_on_c, 0, 86, 0
1, 133280, Note_on_c, 0, 88, 61
1, 133360, Note_on_c, 0, 88, 0
1, 133360, Note_on_c, 0, 86, 61
1, 133440, Tempo, 542986
1, 133440, Note_on_c, 0, 86, 0
1, 133440, Note_on_c, 0, 73, 0
1, 133440, Note_on_c, 0, 80, 0
1, 133440, Note_on_c, 0, 83, 0
1, 133440, Note_on_c, 0, 78, 0
1, 133440, Note_on_c, 0, 83, 61
1, 133440, Note_on_c, 0, 80, 62
1, 133440, Note_on_c, 0, 85, 68
1, 133440, Note_on_c, 0, 77, 45
1, 133440, Note_on_c, 0, 73, 42
1, 133454, Control_c, 0, 64, 0
1, 133530, Note_on_c, 0, 85, 0
1, 133530, Note_on_c, 0, 83, 0
1, 133530, Note_on_c, 0, 80, 0
1, 133560, Tempo, 560748
1, 133560, Note_on_c, 0, 77, 0
1, 133560, Note_on_c, 0, 73, 0
1, 133680, Tempo, 545455
1, 133680, Note_on_c, 0, 92, 51
1, 133680, Note_on_c, 0, 95, 53
1, 133680, Note_on_c, 0, 98, 72
1, 133680, Note_on_c, 0, 90, 60
1, 133680, Note_on_c, 0, 85, 49
1, 133726, Control_c, 0, 64, 127
1, 133760, Note_on_c, 0, 98, 0
1, 133760, Note_on_c, 0, 100, 60
1, 133840, Note_on_c, 0, 100, 0
1, 133840, Note_on_c, 0, 98, 61
1, 133920, Tempo, 560748
1, 133920, Note_on_c, 0, 98, 0
1, 133920, Note_on_c, 0, 90, 0
1, 133920, Note_on_c, 0, 92, 0
1, 133920, Note_on_c, 0, 95, 0
1, 133920, Note_on_c, 0, 85, 0
1, 133920, Note_on_c, 0, 95, 62
1, 133920, Note_on_c, 0, 92, 64
1, 133920, Note_on_c, 0, 97, 71
1, 133920, Note_on_c, 0, 85, 44
1, 133920, Note_on_c, 0, 89, 47
1, 133934, Control_c, 0, 64, 0
1, 134010, Note_on_c, 0, 97, 0
1, 134010, Note_on_c, 0, 95, 0
1, 134010, Note_on_c, 0, 92, 0
1, 134040, Note_on_c, 0, 85, 0
1, 134040, Note_on_c, 0, 89, 0
1, 134160, Tempo, 545455
1, 134160, Note_on_c, 0, 80, 53
1, 134160, Note_on_c, 0, 83, 55
1, 134160, Note_on_c, 0, 86, 75
1, 134160, Note_on_c, 0, 78, 63
1, 134160, Note_on_c, 0, 73, 51
1, 134206, Control_c, 0, 64, 127
1, 134240, Note_on_c, 0, 86, 0
1, 134240, Note_on_c, 0, 88, 65
1, 134320, Note_on_c, 0, 88, 0
1, 134320, Note_on_c, 0, 86, 67
1, 134400, Tempo, 615385
1, 134400, Note_on_c, 0, 86, 0
1, 134400, Note_on_c, 0, 78, 0
1, 134400, Note_on_c, 0, 80, 0
1, 134400, Note_on_c, 0, 83, 0
1, 134400, Note_on_c, 0, 73, 0
1, 134400, Note_on_c, 0, 83, 59
1, 134400, Note_on_c, 0, 80, 59
1, 134400, Note_on_c, 0, 85, 71
1, 134400, Note_on_c, 0, 73, 44
1, 134400, Note_on_c, 0, 77, 47
1, 134414, Control_c, 0, 64, 0
1, 134490, Note_on_c, 0, 85, 0
1, 134490, Note_on_c, 0, 83, 0
1, 134490, Note_on_c, 0, 80, 0
1, 134520, Note_on_c, 0, 73, 0
1, 134520, Note_on_c, 0, 77, 0
1, 134640, Tempo, 568720
1, 134640, Note_on_c, 0, 67, 57
1, 134640, Note_on_c, 0, 70, 59
1, 134640, Note_on_c, 0, 74, 81
1, 134640, Note_on_c, 0, 60, 55
1, 134640, Note_on_c, 0, 65, 69
1, 134686, Control_c, 0, 64, 127
1, 134720, Note_on_c, 0, 74, 0
1, 134720, Note_on_c, 0, 76, 72
1, 134800, Note_on_c, 0, 76, 0
1, 134800, Note_on_c, 0, 74, 72
1, 134880, Tempo, 597015
1, 134880, Note_on_c, 0, 74, 0
1, 134880, Note_on_c, 0, 60, 0
1, 134880, Note_on_c, 0, 67, 0
1, 134880, Note_on_c, 0, 70, 0
1, 134880, Note_on_c, 0, 65, 0
1, 134880, Note_on_c, 0, 70, 70
1, 134880, Note_on_c, 0, 67, 70
1, 134880, Note_on_c, 0, 72, 77
1, 134880, Note_on_c, 0, 64, 51
1, 134880, Note_on_c, 0, 60, 48
1, 134894, Control_c, 0, 64, 0
1, 134970, Note_on_c, 0, 72, 0
1, 134970, Note_on_c, 0, 70, 0
1, 134970, Note_on_c, 0, 67, 0
1, 135000, Note_on_c, 0, 64, 0
1, 135000, Note_on_c, 0, 60, 0
1, 135120, Tempo, 625000
1, 135120, Note_on_c, 0, 84, 84
1, 135120, Note_on_c, 0, 88, 84
1, 135120, Note_on_c, 0, 96, 84
1, 135120, Note_on_c, 0, 94, 84
1, 135120, Note_on_c, 0, 36, 58
1, 135120, Note_on_c, 0, 48, 58
1, 135145, Control_c, 0, 64, 127
1, 135240, Note_on_c, 0, 48, 0
1, 135240, Note_on_c, 0, 36, 0
1, 135318, Control_c, 0, 64, 0
1, 135360, Key_signature, -1, "major"
1, 135360, Tempo, 558140
1, 135360, Note_on_c, 0, 96, 0
1, 135360, Note_on_c, 0, 84, 0
1, 135360, Note_on_c, 0, 88, 0
1, 135360, Note_on_c, 0, 94, 0
1, 135360, Note_on_c, 0, 69, 71
1, 135360, Note_on_c, 0, 77, 87
1, 135360, Note_on_c, 0, 41, 64
1, 135360, Note_on_c, 0, 53, 64
1, 135367, Control_c, 0, 64, 127
1, 135600, Tempo, 545455
1, 135600, Note_on_c, 0, 53, 0
1, 135600, Note_on_c, 0, 69, 0
1, 135600, Note_on_c, 0, 77, 0
1, 135600, Note_on_c, 0, 41, 0
1, 135600, Note_on_c, 0, 69, 71
1, 135600, Note_on_c, 0, 76, 77
1, 135600, Note_on_c, 0, 57, 58
1, 135600, Note_on_c, 0, 60, 58
1, 135600, Note_on_c, 0, 65, 58
1, 135619, Control_c, 0, 64, 0
1, 135646, Control_c, 0, 64, 127
1, 135680, Note_on_c, 0, 76, 0
1, 135680, Note_on_c, 0, 77, 66
1, 135760, Note_on_c, 0, 77, 0
1, 135760, Note_on_c, 0, 76, 67
1, 135840, Tempo, 552995
1, 135840, Note_on_c, 0, 76, 0
1, 135840, Note_on_c, 0, 60, 0
1, 135840, Note_on_c, 0, 69, 0
1, 135840, Note_on_c, 0, 57, 0
1, 135840, Note_on_c, 0, 65, 0
1, 135840, Note_on_c, 0, 69, 67
1, 135840, Note_on_c, 0, 74, 77
1, 135840, Note_on_c, 0, 57, 58
1, 135840, Note_on_c, 0, 60, 58
1, 135840, Note_on_c, 0, 65, 58
1, 135854, Control_c, 0, 64, 0
1, 135879, Control_c, 0, 64, 127
1, 135960, Tempo, 555556
1, 135960, Note_on_c, 0, 74, 0
1, 135960, Note_on_c, 0, 76, 70
1, 136080, Tempo, 538117
1, 136080, Note_on_c, 0, 76, 0
1, 136080, Note_on_c, 0, 65, 0
1, 136080, Note_on_c, 0, 69, 0
1, 136080, Note_on_c, 0, 57, 0
1, 136080, Note_on_c, 0, 60, 0
1, 136080, Note_on_c, 0, 69, 58
1, 136080, Note_on_c, 0, 77, 79
1, 136080, Note_on_c, 0, 36, 64
1, 136080, Note_on_c, 0, 48, 64
1, 136122, Control_c, 0, 64, 0
1, 136165, Control_c, 0, 64, 127
1, 136200, Tempo, 582524
1, 136200, Note_on_c, 0, 77, 0
1, 136200, Note_on_c, 0, 74, 71
1, 136320, Tempo, 579710
1, 136320, Note_on_c, 0, 74, 0
1, 136320, Note_on_c, 0, 48, 0
1, 136320, Note_on_c, 0, 36, 0
1, 136320, Note_on_c, 0, 69, 0
1, 136320, Note_on_c, 0, 69, 67
1, 136320, Note_on_c, 0, 76, 78
1, 136320, Note_on_c, 0, 57, 58
1, 136320, Note_on_c, 0, 60, 58
1, 136320, Note_on_c, 0, 65, 58
1, 136326, Control_c, 0, 64, 0
1, 136410, Note_on_c, 0, 76, 0
1, 136410, Note_on_c, 0, 69, 0
1, 136440, Note_on_c, 0, 60, 0
1, 136440, Note_on_c, 0, 57, 0
1, 136440, Note_on_c, 0, 65, 0
1, 136560, Tempo, 582524
1, 136560, Note_on_c, 0, 69, 67
1, 136560, Note_on_c, 0, 72, 75
1, 136560, Note_on_c, 0, 57, 58
1, 136560, Note_on_c, 0, 60, 58
1, 136560, Note_on_c, 0, 65, 58
1, 136650, Note_on_c, 0, 72, 0
1, 136650, Note_on_c, 0, 69, 0
1, 136680, Note_on_c, 0, 60, 0
1, 136680, Note_on_c, 0, 57, 0
1, 136680, Note_on_c, 0, 65, 0
1, 136800, Tempo, 558140
1, 136800, Note_on_c, 0, 69, 68
1, 136800, Note_on_c, 0, 77, 83
1, 136800, Note_on_c, 0, 41, 64
1, 136800, Note_on_c, 0, 53, 64
1, 136853, Control_c, 0, 64, 127
1, 137040, Tempo, 545455
1, 137040, Note_on_c, 0, 53, 0
1, 137040, Note_on_c, 0, 69, 0
1, 137040, Note_on_c, 0, 77, 0
1, 137040, Note_on_c, 0, 41, 0
1, 137040, Note_on_c, 0, 69, 68
1, 137040, Note_on_c, 0, 76, 74
1, 137040, Note_on_c, 0, 65, 58
1, 137040, Note_on_c, 0, 57, 58
1, 137040, Note_on_c, 0, 60, 58
1, 137056, Control_c, 0, 64, 0
1, 137086, Control_c, 0, 64, 127
1, 137120, Note_on_c, 0, 76, 0
1, 137120, Note_on_c, 0, 77, 67
1, 137200, Note_on_c, 0, 77, 0
1, 137200, Note_on_c, 0, 76, 67
1, 137280, Tempo, 555556
1, 137280, Note_on_c, 0, 76, 0
1, 137280, Note_on_c, 0, 57, 0
1, 137280, Note_on_c, 0, 69, 0
1, 137280, Note_on_c, 0, 65, 0
1, 137280, Note_on_c, 0, 60, 0
1, 137280, Note_on_c, 0, 69, 64
1, 137280, Note_on_c, 0, 74, 74
1, 137280, Note_on_c, 0, 57, 58
1, 137280, Note_on_c, 0, 65, 58
1, 137280, Note_on_c, 0, 60, 58
1, 137294, Control_c, 0, 64, 0
1, 137319, Control_c, 0, 64, 127
1, 137400, Tempo, 558140
1, 137400, Note_on_c, 0, 74, 0
1, 137400, Note_on_c, 0, 76, 69
1, 137520, Tempo, 538117
1, 137520, Note_on_c, 0, 76, 0
1, 137520, Note_on_c, 0, 60, 0
1, 137520, Note_on_c, 0, 69, 0
1, 137520, Note_on_c, 0, 57, 0
1, 137520, Note_on_c, 0, 65, 0
1, 137520, Note_on_c, 0, 69, 56
1, 137520, Note_on_c, 0, 77, 76
1, 137520, Note_on_c, 0, 48, 64
1, 137520, Note_on_c, 0, 36, 64
1, 137562, Control_c, 0, 64, 0
1, 137605, Control_c, 0, 64, 127
1, 137640, Tempo, 585366
1, 137640, Note_on_c, 0, 77, 0
1, 137640, Note_on_c, 0, 74, 67
1, 137760, Tempo, 579710
1, 137760, Note_on_c, 0, 74, 0
1, 137760, Note_on_c, 0, 36, 0
1, 137760, Note_on_c, 0, 48, 0
1, 137760, Note_on_c, 0, 69, 0
1, 137760, Note_on_c, 0, 69, 64
1, 137760, Note_on_c, 0, 76, 75
1, 137760, Note_on_c, 0, 57, 58
1, 137760, Note_on_c, 0, 65, 58
1, 137760, Note_on_c, 0, 60, 58
1, 137763, Control_c, 0, 64, 0
1, 137850, Note_on_c, 0, 76, 0
1, 137850, Note_on_c, 0, 69, 0
1, 137880, Note_on_c, 0, 65, 0
1, 137880, Note_on_c, 0, 57, 0
1, 137880, Note_on_c, 0, 60, 0
1, 138000, Tempo, 582524
1, 138000, Note_on_c, 0, 69, 64
1, 138000, Note_on_c, 0, 72, 72
1, 138000, Note_on_c, 0, 57, 58
1, 138000, Note_on_c, 0, 65, 58
1, 138000, Note_on_c, 0, 60, 58
1, 138090, Note_on_c, 0, 72, 0
1, 138090, Note_on_c, 0, 69, 0
1, 138120, Note_on_c, 0, 65, 0
1, 138120, Note_on_c, 0, 57, 0
1, 138120, Note_on_c, 0, 60, 0
1, 138240, Tempo, 552995
1, 138240, Note_on_c, 0, 69, 59
1, 138240, Note_on_c, 0, 74, 77
1, 138240, Note_on_c, 0, 53, 58
1, 138268, Control_c, 0, 64, 127
1, 138360, Note_on_c, 0, 74, 0
1, 138360, Note_on_c, 0, 76, 72
1, 138480, Tempo, 579710
1, 138480, Note_on_c, 0, 76, 0
1, 138480, Note_on_c, 0, 53, 0
1, 138480, Note_on_c, 0, 69, 0
1, 138480, Note_on_c, 0, 69, 48
1, 138480, Note_on_c, 0, 72, 75
1, 138480, Note_on_c, 0, 59, 59
1, 138483, Control_c, 0, 64, 0
1, 138519, Control_c, 0, 64, 127
1, 138600, Tempo, 594059
1, 138600, Note_on_c, 0, 59, 0
1, 138600, Note_on_c, 0, 60, 52
1, 138690, Note_on_c, 0, 72, 0
1, 138690, Note_on_c, 0, 69, 0
1, 138720, Tempo, 545455
1, 138720, Note_on_c, 0, 60, 0
1, 138720, Note_on_c, 0, 69, 56
1, 138720, Note_on_c, 0, 74, 72
1, 138720, Note_on_c, 0, 48, 51
1, 138729, Control_c, 0, 64, 0
1, 138791, Control_c, 0, 64, 127
1, 138840, Tempo, 571429
1, 138840, Note_on_c, 0, 74, 0
1, 138840, Note_on_c, 0, 76, 73
1, 138900, Note_on_c, 0, 48, 0
1, 138900, Note_on_c, 0, 62, 52
1, 138960, Tempo, 558140
1, 138960, Note_on_c, 0, 62, 0
1, 138960, Note_on_c, 0, 76, 0
1, 138960, Note_on_c, 0, 69, 0
1, 138960, Note_on_c, 0, 69, 59
1, 138960, Note_on_c, 0, 77, 76
1, 138960, Note_on_c, 0, 60, 59
1, 138963, Control_c, 0, 64, 0
1, 139017, Control_c, 0, 64, 127
1, 139080, Note_on_c, 0, 60, 0
1, 139080, Note_on_c, 0, 59, 50
1, 139170, Note_on_c, 0, 77, 0
1, 139170, Note_on_c, 0, 69, 0
1, 139200, Tempo, 552995
1, 139200, Note_on_c, 0, 59, 0
1, 139200, Note_on_c, 0, 69, 59
1, 139200, Note_on_c, 0, 74, 77
1, 139200, Note_on_c, 0, 60, 58
1, 139217, Control_c, 0, 64, 0
1, 139263, Control_c, 0, 64, 127
1, 139320, Note_on_c, 0, 60, 0
1, 139320, Note_on_c, 0, 74, 0
1, 139320, Note_on_c, 0, 76, 72
1, 139320, Note_on_c, 0, 62, 51
1, 139440, Tempo, 579710
1, 139440, Note_on_c, 0, 62, 0
1, 139440, Note_on_c, 0, 76, 0
1, 139440, Note_on_c, 0, 69, 0
1, 139440, Note_on_c, 0, 69, 48
1, 139440, Note_on_c, 0, 72, 68
1, 139440, Note_on_c, 0, 60, 49
1, 139450, Control_c, 0, 64, 0
1, 139650, Note_on_c, 0, 60, 0
1, 139650, Note_on_c, 0, 72, 0
1, 139650, Note_on_c, 0, 69, 0
1, 139680, Tempo, 542986
1, 139680, Note_on_c, 0, 69, 50
1, 139680, Note_on_c, 0, 74, 78
1, 139680, Note_on_c, 0, 53, 58
1, 139723, Control_c, 0, 64, 127
1, 139800, Tempo, 552995
1, 139800, Note_on_c, 0, 74, 0
1, 139800, Note_on_c, 0, 76, 71
1, 139920, Tempo, 576923
1, 139920, Note_on_c, 0, 76, 0
1, 139920, Note_on_c, 0, 53, 0
1, 139920, Note_on_c, 0, 69, 0
1, 139920, Note_on_c, 0, 69, 45
1, 139920, Note_on_c, 0, 72, 74
1, 139920, Note_on_c, 0, 59, 58
1, 139929, Control_c, 0, 64, 0
1, 139959, Control_c, 0, 64, 127
1, 140040, Tempo, 585366
1, 140040, Note_on_c, 0, 59, 0
1, 140040, Note_on_c, 0, 60, 53
1, 140130, Note_on_c, 0, 72, 0
1, 140130, Note_on_c, 0, 69, 0
1, 140160, Tempo, 558140
1, 140160, Note_on_c, 0, 60, 0
1, 140160, Note_on_c, 0, 69, 55
1, 140160, Note_on_c, 0, 74, 71
1, 140160, Note_on_c, 0, 48, 51
1, 140176, Control_c, 0, 64, 0
1, 140231, Control_c, 0, 64, 127
1, 140280, Tempo, 576923
1, 140280, Note_on_c, 0, 74, 0
1, 140280, Note_on_c, 0, 76, 73
1, 140340, Note_on_c, 0, 48, 0
1, 140340, Note_on_c, 0, 62, 52
1, 140400, Tempo, 566038
1, 140400, Note_on_c, 0, 62, 0
1, 140400, Note_on_c, 0, 76, 0
1, 140400, Note_on_c, 0, 69, 0
1, 140400, Note_on_c, 0, 69, 59
1, 140400, Note_on_c, 0, 79, 77
1, 140400, Note_on_c, 0, 60, 59
1, 140408, Control_c, 0, 64, 0
1, 140464, Control_c, 0, 64, 127
1, 140520, Tempo, 576923
1, 140520, Note_on_c, 0, 60, 0
1, 140520, Note_on_c, 0, 79, 0
1, 140520, Note_on_c, 0, 77, 71
1, 140520, Note_on_c, 0, 59, 49
1, 140640, Tempo, 566038
1, 140640, Note_on_c, 0, 59, 0
1, 140640, Note_on_c, 0, 77, 0
1, 140640, Note_on_c, 0, 69, 0
1, 140640, Note_on_c, 0, 69, 59
1, 140640, Note_on_c, 0, 74, 76
1, 140640, Note_on_c, 0, 60, 58
1, 140648, Control_c, 0, 64, 0
1, 140696, Control_c, 0, 64, 127
1, 140760, Tempo, 582524
1, 140760, Note_on_c, 0, 60, 0
1, 140760, Note_on_c, 0, 74, 0
1, 140760, Note_on_c, 0, 76, 72
1, 140760, Note_on_c, 0, 62, 49
1, 140880, Tempo, 645161
1, 140880, Note_on_c, 0, 62, 0
1, 140880, Note_on_c, 0, 76, 0
1, 140880, Note_on_c, 0, 69, 0
1, 140880, Note_on_c, 0, 69, 49
1, 140880, Note_on_c, 0, 72, 68
1, 140880, Note_on_c, 0, 60, 49
1, 140890, Control_c, 0, 64, 0
1, 140966, Control_c, 0, 64, 127
1, 141090, Note_on_c, 0, 60, 0
1, 141120, Tempo, 600000
1, 141120, Note_on_c, 0, 72, 0
1, 141120, Note_on_c, 0, 69, 0
1, 141120, Control_c, 0, 64, 0
1, 141120, Note_on_c, 0, 36, 55
1, 141240, Note_on_c, 0, 36, 0
1, 141261, Control_c, 0, 64, 127
1, 141360, Tempo, 506329
1, 141360, Note_on_c, 0, 58, 35
1, 141360, Note_on_c, 0, 62, 41
1, 141360, Note_on_c, 0, 65, 46
1, 141480, Tempo, 545455
1, 141480, Note_on_c, 0, 65, 0
1, 141480, Note_on_c, 0, 62, 0
1, 141480, Note_on_c, 0, 58, 0
1, 141480, Note_on_c, 0, 55, 40
1, 141600, Tempo, 576923
1, 141600, Note_on_c, 0, 55, 0
1, 141600, Note_on_c, 0, 60, 36
1, 141720, Note_on_c, 0, 60, 0
1, 141840, Tempo, 506329
1, 141840, Note_on_c, 0, 70, 41
1, 141840, Note_on_c, 0, 74, 41
1, 141840, Note_on_c, 0, 77, 46
1, 141840, Control_c, 0, 64, 0
1, 141875, Control_c, 0, 64, 127
1, 141960, Tempo, 542986
1, 141960, Note_on_c, 0, 77, 0
1, 141960, Note_on_c, 0, 74, 0
1, 141960, Note_on_c, 0, 70, 0
1, 141960, Note_on_c, 0, 67, 38
1, 142080, Tempo, 574163
1, 142080, Note_on_c, 0, 67, 0
1, 142080, Note_on_c, 0, 72, 36
1, 142200, Note_on_c, 0, 72, 0
1, 142320, Tempo, 506329
1, 142320, Note_on_c, 0, 89, 46
1, 142320, Note_on_c, 0, 86, 41
1, 142320, Note_on_c, 0, 82, 41
1, 142325, Control_c, 0, 64, 0
1, 142391, Control_c, 0, 64, 127
1, 142440, Tempo, 545455
1, 142440, Note_on_c, 0, 82, 0
1, 142440, Note_on_c, 0, 86, 0
1, 142440, Note_on_c, 0, 89, 0
1, 142440, Note_on_c, 0, 79, 43
1, 142560, Tempo, 591133
1, 142560, Note_on_c, 0, 79, 0
1, 142560, Note_on_c, 0, 84, 36
1, 142680, Note_on_c, 0, 84, 0
1, 142687, Control_c, 0, 64, 0
1, 142800, Tempo, 547945
1, 142800, Note_on_c, 0, 82, 48
1, 142800, Note_on_c, 0, 77, 42
1, 142800, Note_on_c, 0, 67, 36
1, 142800, Note_on_c, 0, 74, 40
1, 142860, Note_on_c, 0, 74, 0
1, 142860, Note_on_c, 0, 82, 0
1, 142860, Note_on_c, 0, 77, 0
1, 142860, Note_on_c, 0, 67, 0
1, 142920, Note_on_c, 0, 82, 48
1, 142920, Note_on_c, 0, 77, 42
1, 142920, Note_on_c, 0, 67, 36
1, 142920, Note_on_c, 0, 74, 40
1, 142980, Note_on_c, 0, 74, 0
1, 142980, Note_on_c, 0, 82, 0
1, 142980, Note_on_c, 0, 77, 0
1, 142980, Note_on_c, 0, 67, 0
1, 143040, Tempo, 563380
1, 143040, Note_on_c, 0, 89, 51
1, 143040, Note_on_c, 0, 82, 46
1, 143040, Note_on_c, 0, 79, 44
1, 143160, Note_on_c, 0, 79, 0
1, 143160, Note_on_c, 0, 82, 0
1, 143160, Note_on_c, 0, 89, 0
1, 143280, Tempo, 576923
1, 143280, Note_on_c, 0, 82, 49
1, 143280, Note_on_c, 0, 77, 44
1, 143280, Note_on_c, 0, 67, 32
1, 143280, Note_on_c, 0, 74, 37
1, 143400, Note_on_c, 0, 74, 0
1, 143400, Note_on_c, 0, 82, 0
1, 143400, Note_on_c, 0, 77, 0
1, 143400, Note_on_c, 0, 67, 0
1, 143520, Note_on_c, 0, 89, 51
1, 143520, Note_on_c, 0, 82, 46
1, 143520, Note_on_c, 0, 79, 38
1, 143640, Note_on_c, 0, 79, 0
1, 143640, Note_on_c, 0, 82, 0
1, 143640, Note_on_c, 0, 89, 0
1, 143760, Note_on_c, 0, 82, 49
1, 143760, Note_on_c, 0, 77, 44
1, 143760, Note_on_c, 0, 67, 32
1, 143760, Note_on_c, 0, 74, 37
1, 143880, Note_on_c, 0, 74, 0
1, 143880, Note_on_c, 0, 82, 0
1, 143880, Note_on_c, 0, 77, 0
1, 143880, Note_on_c, 0, 67, 0
1, 144000, Tempo, 600000
1, 144000, Note_on_c, 0, 36, 52
1, 144049, Control_c, 0, 64, 127
1, 144120, Note_on_c, 0, 36, 0
1, 144240, Tempo, 504202
1, 144240, Note_on_c, 0, 58, 41
1, 144240, Note_on_c, 0, 62, 41
1, 144240, Note_on_c, 0, 65, 46
1, 144360, Tempo, 550459
1, 144360, Note_on_c, 0, 65, 0
1, 144360, Note_on_c, 0, 62, 0
1, 144360, Note_on_c, 0, 58, 0
1, 144360, Note_on_c, 0, 55, 38
1, 144480, Tempo, 563380
1, 144480, Note_on_c, 0, 55, 0
1, 144480, Note_on_c, 0, 60, 37
1, 144600, Note_on_c, 0, 60, 0
1, 144720, Tempo, 504202
1, 144720, Note_on_c, 0, 70, 41
1, 144720, Note_on_c, 0, 74, 41
1, 144720, Note_on_c, 0, 77, 46
1, 144720, Control_c, 0, 64, 0
1, 144791, Control_c, 0, 64, 127
1, 144840, Tempo, 547945
1, 144840, Note_on_c, 0, 77, 0
1, 144840, Note_on_c, 0, 74, 0
1, 144840, Note_on_c, 0, 70, 0
1, 144840, Note_on_c, 0, 67, 39
1, 144960, Tempo, 560748
1, 144960, Note_on_c, 0, 67, 0
1, 144960, Note_on_c, 0, 72, 38
1, 145080, Note_on_c, 0, 72, 0
1, 145200, Tempo, 504202
1, 145200, Note_on_c, 0, 89, 46
1, 145200, Note_on_c, 0, 86, 41
1, 145200, Note_on_c, 0, 82, 41
1, 145212, Control_c, 0, 64, 0
1, 145278, Control_c, 0, 64, 127
1, 145320, Tempo, 545455
1, 145320, Note_on_c, 0, 82, 0
1, 145320, Note_on_c, 0, 86, 0
1, 145320, Note_on_c, 0, 89, 0
1, 145320, Note_on_c, 0, 79, 38
1, 145440, Tempo, 591133
1, 145440, Note_on_c, 0, 79, 0
1, 145440, Note_on_c, 0, 84, 38
1, 145528, Control_c, 0, 64, 0
1, 145560, Note_on_c, 0, 84, 0
1, 145680, Tempo, 560748
1, 145680, Note_on_c, 0, 79, 42
1, 145680, Note_on_c, 0, 86, 48
1, 145680, Note_on_c, 0, 82, 42
1, 145680, Note_on_c, 0, 72, 36
1, 145680, Note_on_c, 0, 77, 40
1, 145740, Note_on_c, 0, 77, 0
1, 145740, Note_on_c, 0, 82, 0
1, 145740, Note_on_c, 0, 79, 0
1, 145740, Note_on_c, 0, 86, 0
1, 145740, Note_on_c, 0, 72, 0
1, 145800, Note_on_c, 0, 79, 42
1, 145800, Note_on_c, 0, 86, 48
1, 145800, Note_on_c, 0, 82, 42
1, 145800, Note_on_c, 0, 72, 36
1, 145800, Note_on_c, 0, 77, 40
1, 145860, Note_on_c, 0, 77, 0
1, 145860, Note_on_c, 0, 82, 0
1, 145860, Note_on_c, 0, 79, 0
1, 145860, Note_on_c, 0, 86, 0
1, 145860, Note_on_c, 0, 72, 0
1, 145920, Tempo, 582524
1, 145920, Note_on_c, 0, 79, 46
1, 145920, Note_on_c, 0, 91, 51
1, 145920, Note_on_c, 0, 82, 46
1, 145920, Note_on_c, 0, 72, 44
1, 145920, Note_on_c, 0, 77, 44
1, 146040, Note_on_c, 0, 77, 0
1, 146040, Note_on_c, 0, 82, 0
1, 146040, Note_on_c, 0, 79, 0
1, 146040, Note_on_c, 0, 91, 0
1, 146040, Note_on_c, 0, 72, 0
1, 146160, Tempo, 571429
1, 146160, Note_on_c, 0, 86, 48
1, 146160, Note_on_c, 0, 82, 42
1, 146160, Note_on_c, 0, 79, 42
1, 146160, Note_on_c, 0, 72, 36
1, 146160, Note_on_c, 0, 77, 40
1, 146220, Note_on_c, 0, 77, 0
1, 146220, Note_on_c, 0, 79, 0
1, 146220, Note_on_c, 0, 86, 0
1, 146220, Note_on_c, 0, 82, 0
1, 146220, Note_on_c, 0, 72, 0
1, 146280, Note_on_c, 0, 82, 42
1, 146280, Note_on_c, 0, 79, 42
1, 146280, Note_on_c, 0, 86, 48
1, 146280, Note_on_c, 0, 72, 36
1, 146280, Note_on_c, 0, 77, 40
1, 146340, Note_on_c, 0, 77, 0
1, 146340, Note_on_c, 0, 86, 0
1, 146340, Note_on_c, 0, 82, 0
1, 146340, Note_on_c, 0, 79, 0
1, 146340, Note_on_c, 0, 72, 0
1, 146400, Tempo, 576923
1, 146400, Note_on_c, 0, 79, 46
1, 146400, Note_on_c, 0, 82, 46
1, 146400, Note_on_c, 0, 91, 51
1, 146400, Note_on_c, 0, 72, 44
1, 146400, Note_on_c, 0, 77, 44
1, 146520, Note_on_c, 0, 77, 0
1, 146520, Note_on_c, 0, 91, 0
1, 146520, Note_on_c, 0, 79, 0
1, 146520, Note_on_c, 0, 82, 0
1, 146520, Note_on_c, 0, 72, 0
1, 146640, Tempo, 631579
1, 146640, Note_on_c, 0, 79, 44
1, 146640, Note_on_c, 0, 82, 44
1, 146640, Note_on_c, 0, 84, 49
1, 146640, Note_on_c, 0, 72, 32
1, 146640, Note_on_c, 0, 76, 37
1, 146760, Note_on_c, 0, 76, 0
1, 146760, Note_on_c, 0, 84, 0
1, 146760, Note_on_c, 0, 79, 0
1, 146760, Note_on_c, 0, 82, 0
1, 146760, Note_on_c, 0, 72, 0
1, 146880, Tempo, 558140
1, 146880, Note_on_c, 0, 69, 73
1, 146880, Note_on_c, 0, 77, 89
1, 146880, Note_on_c, 0, 41, 66
1, 146880, Note_on_c, 0, 53, 66
1, 146923, Control_c, 0, 64, 127
1, 147120, Tempo, 545455
1, 147120, Note_on_c, 0, 53, 0
1, 147120, Note_on_c, 0, 69, 0
1, 147120, Note_on_c, 0, 77, 0
1, 147120, Note_on_c, 0, 41, 0
1, 147120, Note_on_c, 0, 69, 73
1, 147120, Note_on_c, 0, 76, 79
1, 147120, Note_on_c, 0, 57, 60
1, 147120, Note_on_c, 0, 60, 60
1, 147120, Note_on_c, 0, 65, 60
1, 147138, Control_c, 0, 64, 0
1, 147166, Control_c, 0, 64, 127
1, 147200, Note_on_c, 0, 76, 0
1, 147200, Note_on_c, 0, 77, 69
1, 147280, Note_on_c, 0, 77, 0
1, 147280, Note_on_c, 0, 76, 69
1, 147360, Tempo, 552995
1, 147360, Note_on_c, 0, 76, 0
1, 147360, Note_on_c, 0, 60, 0
1, 147360, Note_on_c, 0, 69, 0
1, 147360, Note_on_c, 0, 57, 0
1, 147360, Note_on_c, 0, 65, 0
1, 147360, Note_on_c, 0, 69, 69
1, 147360, Note_on_c, 0, 74, 79
1, 147360, Note_on_c, 0, 57, 60
1, 147360, Note_on_c, 0, 60, 60
1, 147360, Note_on_c, 0, 65, 60
1, 147374, Control_c, 0, 64, 0
1, 147399, Control_c, 0, 64, 127
1, 147480, Tempo, 555556
1, 147480, Note_on_c, 0, 74, 0
1, 147480, Note_on_c, 0, 76, 69
1, 147600, Tempo, 538117
1, 147600, Note_on_c, 0, 76, 0
1, 147600, Note_on_c, 0, 65, 0
1, 147600, Note_on_c, 0, 69, 0
1, 147600, Note_on_c, 0, 57, 0
1, 147600, Note_on_c, 0, 60, 0
1, 147600, Note_on_c, 0, 69, 60
1, 147600, Note_on_c, 0, 77, 81
1, 147600, Note_on_c, 0, 36, 66
1, 147600, Note_on_c, 0, 48, 66
1, 147642, Control_c, 0, 64, 0
1, 147685, Control_c, 0, 64, 127
1, 147720, Tempo, 582524
1, 147720, Note_on_c, 0, 77, 0
1, 147720, Note_on_c, 0, 74, 72
1, 147840, Tempo, 579710
1, 147840, Note_on_c, 0, 74, 0
1, 147840, Note_on_c, 0, 48, 0
1, 147840, Note_on_c, 0, 36, 0
1, 147840, Note_on_c, 0, 69, 0
1, 147840, Note_on_c, 0, 69, 69
1, 147840, Note_on_c, 0, 76, 80
1, 147840, Note_on_c, 0, 57, 60
1, 147840, Note_on_c, 0, 60, 60
1, 147840, Note_on_c, 0, 65, 60
1, 147848, Control_c, 0, 64, 0
1, 147930, Note_on_c, 0, 76, 0
1, 147930, Note_on_c, 0, 69, 0
1, 147960, Note_on_c, 0, 60, 0
1, 147960, Note_on_c, 0, 57, 0
1, 147960, Note_on_c, 0, 65, 0
1, 148080, Tempo, 582524
1, 148080, Note_on_c, 0, 69, 69
1, 148080, Note_on_c, 0, 72, 77
1, 148080, Note_on_c, 0, 57, 60
1, 148080, Note_on_c, 0, 60, 60
1, 148080, Note_on_c, 0, 65, 60
1, 148170, Note_on_c, 0, 72, 0
1, 148170, Note_on_c, 0, 69, 0
1, 148200, Note_on_c, 0, 60, 0
1, 148200, Note_on_c, 0, 57, 0
1, 148200, Note_on_c, 0, 65, 0
1, 148320, Tempo, 558140
1, 148320, Note_on_c, 0, 69, 70
1, 148320, Note_on_c, 0, 77, 85
1, 148320, Note_on_c, 0, 41, 66
1, 148320, Note_on_c, 0, 53, 66
1, 148345, Control_c, 0, 64, 127
1, 148560, Tempo, 545455
1, 148560, Note_on_c, 0, 53, 0
1, 148560, Note_on_c, 0, 69, 0
1, 148560, Note_on_c, 0, 77, 0
1, 148560, Note_on_c, 0, 41, 0
1, 148560, Note_on_c, 0, 69, 70
1, 148560, Note_on_c, 0, 76, 76
1, 148560, Note_on_c, 0, 65, 60
1, 148560, Note_on_c, 0, 57, 60
1, 148560, Note_on_c, 0, 60, 60
1, 148581, Control_c, 0, 64, 0
1, 148606, Control_c, 0, 64, 127
1, 148640, Note_on_c, 0, 76, 0
1, 148640, Note_on_c, 0, 77, 68
1, 148720, Note_on_c, 0, 77, 0
1, 148720, Note_on_c, 0, 76, 68
1, 148800, Tempo, 555556
1, 148800, Note_on_c, 0, 76, 0
1, 148800, Note_on_c, 0, 57, 0
1, 148800, Note_on_c, 0, 69, 0
1, 148800, Note_on_c, 0, 65, 0
1, 148800, Note_on_c, 0, 60, 0
1, 148800, Note_on_c, 0, 69, 66
1, 148800, Note_on_c, 0, 74, 76
1, 148800, Note_on_c, 0, 57, 60
1, 148800, Note_on_c, 0, 65, 60
1, 148800, Note_on_c, 0, 60, 60
1, 148814, Control_c, 0, 64, 0
1, 148839, Control_c, 0, 64, 127
1, 148920, Tempo, 558140
1, 148920, Note_on_c, 0, 74, 0
1, 148920, Note_on_c, 0, 76, 69
1, 149040, Tempo, 538117
1, 149040, Note_on_c, 0, 76, 0
1, 149040, Note_on_c, 0, 60, 0
1, 149040, Note_on_c, 0, 69, 0
1, 149040, Note_on_c, 0, 57, 0
1, 149040, Note_on_c, 0, 65, 0
1, 149040, Note_on_c, 0, 69, 58
1, 149040, Note_on_c, 0, 77, 78
1, 149040, Note_on_c, 0, 48, 66
1, 149040, Note_on_c, 0, 36, 66
1, 149052, Control_c, 0, 64, 0
1, 149125, Control_c, 0, 64, 127
1, 149160, Tempo, 585366
1, 149160, Note_on_c, 0, 77, 0
1, 149160, Note_on_c, 0, 74, 71
1, 149280, Tempo, 579710
1, 149280, Note_on_c, 0, 74, 0
1, 149280, Note_on_c, 0, 36, 0
1, 149280, Note_on_c, 0, 48, 0
1, 149280, Note_on_c, 0, 69, 0
1, 149280, Note_on_c, 0, 69, 66
1, 149280, Note_on_c, 0, 76, 77
1, 149280, Note_on_c, 0, 57, 60
1, 149280, Note_on_c, 0, 65, 60
1, 149280, Note_on_c, 0, 60, 60
1, 149288, Control_c, 0, 64, 0
1, 149370, Note_on_c, 0, 76, 0
1, 149370, Note_on_c, 0, 69, 0
1, 149400, Note_on_c, 0, 65, 0
1, 149400, Note_on_c, 0, 57, 0
1, 149400, Note_on_c, 0, 60, 0
1, 149520, Tempo, 582524
1, 149520, Note_on_c, 0, 69, 66
1, 149520, Note_on_c, 0, 72, 74
1, 149520, Note_on_c, 0, 57, 60
1, 149520, Note_on_c, 0, 65, 60
1, 149520, Note_on_c, 0, 60, 60
1, 149610, Note_on_c, 0, 72, 0
1, 149610, Note_on_c, 0, 69, 0
1, 149640, Note_on_c, 0, 65, 0
1, 149640, Note_on_c, 0, 57, 0
1, 149640, Note_on_c, 0, 60, 0
1, 149760, Tempo, 552995
1, 149760, Note_on_c, 0, 69, 61
1, 149760, Note_on_c, 0, 74, 79
1, 149760, Note_on_c, 0, 53, 60
1, 149796, Control_c, 0, 64, 127
1, 149880, Note_on_c, 0, 74, 0
1, 149880, Note_on_c, 0, 76, 74
1, 150000, Tempo, 579710
1, 150000, Note_on_c, 0, 76, 0
1, 150000, Note_on_c, 0, 53, 0
1, 150000, Note_on_c, 0, 69, 0
1, 150000, Note_on_c, 0, 69, 49
1, 150000, Note_on_c, 0, 72, 77
1, 150000, Note_on_c, 0, 59, 61
1, 150011, Control_c, 0, 64, 0
1, 150067, Control_c, 0, 64, 127
1, 150120, Tempo, 594059
1, 150120, Note_on_c, 0, 59, 0
1, 150120, Note_on_c, 0, 60, 54
1, 150210, Note_on_c, 0, 72, 0
1, 150210, Note_on_c, 0, 69, 0
1, 150240, Tempo, 545455
1, 150240, Note_on_c, 0, 60, 0
1, 150240, Note_on_c, 0, 69, 58
1, 150240, Note_on_c, 0, 74, 74
1, 150240, Note_on_c, 0, 48, 53
1, 150251, Control_c, 0, 64, 0
1, 150311, Control_c, 0, 64, 127
1, 150360, Tempo, 571429
1, 150360, Note_on_c, 0, 74, 0
1, 150360, Note_on_c, 0, 76, 75
1, 150420, Note_on_c, 0, 48, 0
1, 150420, Note_on_c, 0, 62, 54
1, 150480, Tempo, 558140
1, 150480, Note_on_c, 0, 62, 0
1, 150480, Note_on_c, 0, 76, 0
1, 150480, Note_on_c, 0, 69, 0
1, 150480, Note_on_c, 0, 69, 61
1, 150480, Note_on_c, 0, 77, 78
1, 150480, Control_c, 0, 64, 0
1, 150480, Note_on_c, 0, 60, 61
1, 150549, Control_c, 0, 64, 127
1, 150600, Note_on_c, 0, 60, 0
1, 150600, Note_on_c, 0, 59, 51
1, 150690, Note_on_c, 0, 77, 0
1, 150690, Note_on_c, 0, 69, 0
1, 150720, Tempo, 552995
1, 150720, Note_on_c, 0, 59, 0
1, 150720, Note_on_c, 0, 69, 61
1, 150720, Note_on_c, 0, 74, 79
1, 150720, Note_on_c, 0, 60, 60
1, 150723, Control_c, 0, 64, 0
1, 150795, Control_c, 0, 64, 127
1, 150840, Note_on_c, 0, 60, 0
1, 150840, Note_on_c, 0, 74, 0
1, 150840, Note_on_c, 0, 76, 74
1, 150840, Note_on_c, 0, 62, 53
1, 150960, Tempo, 579710
1, 150960, Note_on_c, 0, 62, 0
1, 150960, Note_on_c, 0, 76, 0
1, 150960, Note_on_c, 0, 69, 0
1, 150960, Note_on_c, 0, 69, 49
1, 150960, Note_on_c, 0, 72, 77
1, 150960, Note_on_c, 0, 60, 50
1, 150969, Control_c, 0, 64, 0
1, 151170, Note_on_c, 0, 60, 0
1, 151170, Note_on_c, 0, 72, 0
1, 151170, Note_on_c, 0, 69, 0
1, 151200, Tempo, 542986
1, 151200, Note_on_c, 0, 69, 52
1, 151200, Note_on_c, 0, 74, 80
1, 151200, Note_on_c, 0, 53, 60
1, 151228, Control_c, 0, 64, 127
1, 151320, Tempo, 552995
1, 151320, Note_on_c, 0, 74, 0
1, 151320, Note_on_c, 0, 76, 73
1, 151440, Tempo, 576923
1, 151440, Note_on_c, 0, 76, 0
1, 151440, Note_on_c, 0, 53, 0
1, 151440, Note_on_c, 0, 69, 0
1, 151440, Note_on_c, 0, 69, 46
1, 151440, Note_on_c, 0, 72, 76
1, 151440, Note_on_c, 0, 59, 64
1, 151449, Control_c, 0, 64, 0
1, 151525, Control_c, 0, 64, 127
1, 151560, Tempo, 585366
1, 151560, Note_on_c, 0, 59, 0
1, 151560, Note_on_c, 0, 60, 55
1, 151650, Note_on_c, 0, 72, 0
1, 151650, Note_on_c, 0, 69, 0
1, 151680, Tempo, 558140
1, 151680, Note_on_c, 0, 60, 0
1, 151680, Note_on_c, 0, 69, 57
1, 151680, Note_on_c, 0, 74, 73
1, 151680, Note_on_c, 0, 48, 53
1, 151684, Control_c, 0, 64, 0
1, 151751, Control_c, 0, 64, 127
1, 151800, Tempo, 576923
1, 151800, Note_on_c, 0, 74, 0
1, 151800, Note_on_c, 0, 76, 75
1, 151860, Note_on_c, 0, 48, 0
1, 151860, Note_on_c, 0, 62, 54
1, 151920, Tempo, 566038
1, 151920, Note_on_c, 0, 62, 0
1, 151920, Note_on_c, 0, 76, 0
1, 151920, Note_on_c, 0, 69, 0
1, 151920, Note_on_c, 0, 69, 61
1, 151920, Note_on_c, 0, 79, 79
1, 151920, Note_on_c, 0, 60, 61
1, 151924, Control_c, 0, 64, 0
1, 151984, Control_c, 0, 64, 127
1, 152040, Tempo, 576923
1, 152040, Note_on_c, 0, 60, 0
1, 152040, Note_on_c, 0, 79, 0
1, 152040, Note_on_c, 0, 77, 73
1, 152040, Note_on_c, 0, 59, 49
1, 152160, Tempo, 566038
1, 152160, Note_on_c, 0, 59, 0
1, 152160, Note_on_c, 0, 77, 0
1, 152160, Note_on_c, 0, 69, 0
1, 152160, Note_on_c, 0, 69, 61
1, 152160, Note_on_c, 0, 74, 78
1, 152160, Note_on_c, 0, 60, 60
1, 152164, Control_c, 0, 64, 0
1, 152216, Control_c, 0, 64, 127
1, 152280, Tempo, 582524
1, 152280, Note_on_c, 0, 60, 0
1, 152280, Note_on_c, 0, 74, 0
1, 152280, Note_on_c, 0, 76, 74
1, 152280, Note_on_c, 0, 62, 53
1, 152400, Note_on_c, 0, 62, 0
1, 152400, Note_on_c, 0, 76, 0
1, 152400, Note_on_c, 0, 69, 0
1, 152400, Note_on_c, 0, 69, 51
1, 152400, Note_on_c, 0, 72, 70
1, 152400, Note_on_c, 0, 60, 50
1, 152412, Control_c, 0, 64, 0
1, 152492, Control_c, 0, 64, 127
1, 152610, Note_on_c, 0, 60, 0
1, 152640, Tempo, 594059
1, 152640, Note_on_c, 0, 72, 0
1, 152640, Note_on_c, 0, 69, 0
1, 152640, Control_c, 0, 64, 0
1, 152640, Note_on_c, 0, 36, 98
1, 152753, Control_c, 0, 64, 127
1, 152760, Note_on_c, 0, 36, 0
1, 152880, Tempo, 506329
1, 152880, Note_on_c, 0, 58, 56
1, 152880, Note_on_c, 0, 62, 66
1, 152880, Note_on_c, 0, 65, 74
1, 153000, Tempo, 545455
1, 153000, Note_on_c, 0, 65, 0
1, 153000, Note_on_c, 0, 62, 0
1, 153000, Note_on_c, 0, 58, 0
1, 153000, Note_on_c, 0, 55, 69
1, 153120, Tempo, 582524
1, 153120, Note_on_c, 0, 55, 0
1, 153120, Note_on_c, 0, 60, 62
1, 153240, Note_on_c, 0, 60, 0
1, 153360, Tempo, 504202
1, 153360, Note_on_c, 0, 70, 66
1, 153360, Note_on_c, 0, 74, 66
1, 153360, Note_on_c, 0, 77, 74
1, 153360, Control_c, 0, 64, 0
1, 153416, Control_c, 0, 64, 127
1, 153480, Tempo, 545455
1, 153480, Note_on_c, 0, 77, 0
1, 153480, Note_on_c, 0, 74, 0
1, 153480, Note_on_c, 0, 70, 0
1, 153480, Note_on_c, 0, 67, 65
1, 153600, Tempo, 560748
1, 153600, Note_on_c, 0, 67, 0
1, 153600, Note_on_c, 0, 72, 60
1, 153720, Note_on_c, 0, 72, 0
1, 153840, Tempo, 504202
1, 153840, Note_on_c, 0, 89, 74
1, 153840, Note_on_c, 0, 86, 66
1, 153840, Note_on_c, 0, 82, 66
1, 153854, Control_c, 0, 64, 0
1, 153918, Control_c, 0, 64, 127
1, 153960, Tempo, 542986
1, 153960, Note_on_c, 0, 82, 0
1, 153960, Note_on_c, 0, 86, 0
1, 153960, Note_on_c, 0, 89, 0
1, 153960, Note_on_c, 0, 79, 67
1, 154080, Tempo, 591133
1, 154080, Note_on_c, 0, 79, 0
1, 154080, Note_on_c, 0, 84, 61
1, 154140, Control_c, 0, 64, 0
1, 154200, Note_on_c, 0, 84, 0
1, 154320, Tempo, 547945
1, 154320, Note_on_c, 0, 82, 82
1, 154320, Note_on_c, 0, 77, 72
1, 154320, Note_on_c, 0, 67, 54
1, 154320, Note_on_c, 0, 74, 62
1, 154380, Note_on_c, 0, 74, 0
1, 154380, Note_on_c, 0, 82, 0
1, 154380, Note_on_c, 0, 77, 0
1, 154380, Note_on_c, 0, 67, 0
1, 154440, Note_on_c, 0, 82, 82
1, 154440, Note_on_c, 0, 77, 72
1, 154440, Note_on_c, 0, 67, 54
1, 154440, Note_on_c, 0, 74, 62
1, 154500, Note_on_c, 0, 74, 0
1, 154500, Note_on_c, 0, 82, 0
1, 154500, Note_on_c, 0, 77, 0
1, 154500, Note_on_c, 0, 67, 0
1, 154560, Tempo, 563380
1, 154560, Note_on_c, 0, 89, 87
1, 154560, Note_on_c, 0, 82, 78
1, 154560, Note_on_c, 0, 79, 67
1, 154680, Note_on_c, 0, 79, 0
1, 154680, Note_on_c, 0, 82, 0
1, 154680, Note_on_c, 0, 89, 0
1, 154800, Tempo, 576923
1, 154800, Note_on_c, 0, 82, 84
1, 154800, Note_on_c, 0, 77, 75
1, 154800, Note_on_c, 0, 67, 48
1, 154800, Note_on_c, 0, 74, 56
1, 154920, Note_on_c, 0, 74, 0
1, 154920, Note_on_c, 0, 82, 0
1, 154920, Note_on_c, 0, 77, 0
1, 154920, Note_on_c, 0, 67, 0
1, 155040, Note_on_c, 0, 89, 87
1, 155040, Note_on_c, 0, 82, 78
1, 155040, Note_on_c, 0, 79, 58
1, 155160, Note_on_c, 0, 79, 0
1, 155160, Note_on_c, 0, 82, 0
1, 155160, Note_on_c, 0, 89, 0
1, 155280, Note_on_c, 0, 82, 84
1, 155280, Note_on_c, 0, 77, 75
1, 155280, Note_on_c, 0, 67, 48
1, 155280, Note_on_c, 0, 74, 56
1, 155400, Note_on_c, 0, 74, 0
1, 155400, Note_on_c, 0, 82, 0
1, 155400, Note_on_c, 0, 77, 0
1, 155400, Note_on_c, 0, 67, 0
1, 155520, Tempo, 600000
1, 155520, Note_on_c, 0, 36, 98
1, 155569, Control_c, 0, 64, 127
1, 155640, Note_on_c, 0, 36, 0
1, 155760, Tempo, 504202
1, 155760, Note_on_c, 0, 58, 66
1, 155760, Note_on_c, 0, 62, 66
1, 155760, Note_on_c, 0, 65, 74
1, 155880, Tempo, 545455
1, 155880, Note_on_c, 0, 65, 0
1, 155880, Note_on_c, 0, 62, 0
1, 155880, Note_on_c, 0, 58, 0
1, 155880, Note_on_c, 0, 55, 67
1, 156000, Tempo, 594059
1, 156000, Note_on_c, 0, 55, 0
1, 156000, Note_on_c, 0, 60, 59
1, 156020, Tempo, 560748
1, 156120, Note_on_c, 0, 60, 0
1, 156240, Tempo, 502092
1, 156240, Note_on_c, 0, 70, 66
1, 156240, Note_on_c, 0, 74, 66
1, 156240, Note_on_c, 0, 77, 74
1, 156246, Control_c, 0, 64, 0
1, 156332, Control_c, 0, 64, 127
1, 156360, Tempo, 542986
1, 156360, Note_on_c, 0, 77, 0
1, 156360, Note_on_c, 0, 74, 0
1, 156360, Note_on_c, 0, 70, 0
1, 156360, Note_on_c, 0, 67, 69
1, 156480, Tempo, 560748
1, 156480, Note_on_c, 0, 67, 0
1, 156480, Note_on_c, 0, 72, 60
1, 156600, Note_on_c, 0, 72, 0
1, 156720, Tempo, 502092
1, 156720, Note_on_c, 0, 89, 72
1, 156720, Note_on_c, 0, 86, 66
1, 156720, Note_on_c, 0, 82, 66
1, 156732, Control_c, 0, 64, 0
1, 156819, Control_c, 0, 64, 127
1, 156840, Tempo, 538117
1, 156840, Note_on_c, 0, 82, 0
1, 156840, Note_on_c, 0, 86, 0
1, 156840, Note_on_c, 0, 89, 0
1, 156840, Note_on_c, 0, 79, 68
1, 156960, Tempo, 591133
1, 156960, Note_on_c, 0, 79, 0
1, 156960, Note_on_c, 0, 84, 59
1, 157002, Control_c, 0, 64, 0
1, 157080, Note_on_c, 0, 84, 0
1, 157200, Tempo, 566038
1, 157200, Note_on_c, 0, 79, 72
1, 157200, Note_on_c, 0, 86, 82
1, 157200, Note_on_c, 0, 82, 72
1, 157200, Note_on_c, 0, 72, 54
1, 157200, Note_on_c, 0, 77, 62
1, 157260, Note_on_c, 0, 77, 0
1, 157260, Note_on_c, 0, 82, 0
1, 157260, Note_on_c, 0, 79, 0
1, 157260, Note_on_c, 0, 86, 0
1, 157260, Note_on_c, 0, 72, 0
1, 157320, Note_on_c, 0, 79, 72
1, 157320, Note_on_c, 0, 86, 82
1, 157320, Note_on_c, 0, 82, 72
1, 157320, Note_on_c, 0, 72, 54
1, 157320, Note_on_c, 0, 77, 62
1, 157380, Note_on_c, 0, 77, 0
1, 157380, Note_on_c, 0, 82, 0
1, 157380, Note_on_c, 0, 79, 0
1, 157380, Note_on_c, 0, 86, 0
1, 157380, Note_on_c, 0, 72, 0
1, 157440, Tempo, 600000
1, 157440, Note_on_c, 0, 79, 78
1, 157440, Note_on_c, 0, 91, 87
1, 157440, Note_on_c, 0, 82, 78
1, 157440, Note_on_c, 0, 72, 67
1, 157440, Note_on_c, 0, 77, 67
1, 157560, Note_on_c, 0, 77, 0
1, 157560, Note_on_c, 0, 82, 0
1, 157560, Note_on_c, 0, 79, 0
1, 157560, Note_on_c, 0, 91, 0
1, 157560, Note_on_c, 0, 72, 0
1, 157680, Tempo, 582524
1, 157680, Note_on_c, 0, 86, 82
1, 157680, Note_on_c, 0, 82, 72
1, 157680, Note_on_c, 0, 79, 72
1, 157680, Note_on_c, 0, 72, 54
1, 157680, Note_on_c, 0, 77, 62
1, 157740, Note_on_c, 0, 77, 0
1, 157740, Note_on_c, 0, 79, 0
1, 157740, Note_on_c, 0, 86, 0
1, 157740, Note_on_c, 0, 82, 0
1, 157740, Note_on_c, 0, 72, 0
1, 157800, Note_on_c, 0, 82, 72
1, 157800, Note_on_c, 0, 79, 72
1, 157800, Note_on_c, 0, 86, 82
1, 157800, Note_on_c, 0, 72, 54
1, 157800, Note_on_c, 0, 77, 62
1, 157860, Note_on_c, 0, 77, 0
1, 157860, Note_on_c, 0, 86, 0
1, 157860, Note_on_c, 0, 82, 0
1, 157860, Note_on_c, 0, 79, 0
1, 157860, Note_on_c, 0, 72, 0
1, 157920, Tempo, 603015
1, 157920, Note_on_c, 0, 79, 78
1, 157920, Note_on_c, 0, 82, 78
1, 157920, Note_on_c, 0, 91, 87
1, 157920, Note_on_c, 0, 72, 67
1, 157920, Note_on_c, 0, 77, 67
1, 158040, Note_on_c, 0, 77, 0
1, 158040, Note_on_c, 0, 91, 0
1, 158040, Note_on_c, 0, 79, 0
1, 158040, Note_on_c, 0, 82, 0
1, 158040, Note_on_c, 0, 72, 0
1, 158160, Tempo, 615385
1, 158160, Note_on_c, 0, 79, 75
1, 158160, Note_on_c, 0, 82, 75
1, 158160, Note_on_c, 0, 84, 84
1, 158160, Note_on_c, 0, 72, 48
1, 158160, Note_on_c, 0, 76, 56
1, 158280, Note_on_c, 0, 76, 0
1, 158280, Note_on_c, 0, 84, 0
1, 158280, Note_on_c, 0, 79, 0
1, 158280, Note_on_c, 0, 82, 0
1, 158280, Note_on_c, 0, 72, 0
1, 158400, Tempo, 597015
1, 158400, Note_on_c, 0, 69, 54
1, 158400, Note_on_c, 0, 77, 54
1, 158400, Note_on_c, 0, 81, 54
1, 158400, Control_c, 0, 64, 127
1, 158400, Note_on_c, 0, 53, 35
1, 158400, Note_on_c, 0, 60, 35
1, 158400, Note_on_c, 0, 65, 35
1, 158520, Note_on_c, 0, 79, 45
1, 158580, Note_on_c, 0, 79, 0
1, 158580, Note_on_c, 0, 77, 0
1, 158580, Note_on_c, 0, 69, 0
1, 158580, Note_on_c, 0, 81, 0
1, 158580, Note_on_c, 0, 81, 45
1, 158640, Note_on_c, 0, 81, 0
1, 158640, Note_on_c, 0, 65, 0
1, 158640, Note_on_c, 0, 60, 0
1, 158640, Note_on_c, 0, 53, 0
1, 158640, Note_on_c, 0, 79, 53
1, 158640, Note_on_c, 0, 53, 32
1, 158640, Note_on_c, 0, 60, 32
1, 158640, Note_on_c, 0, 65, 32
1, 158644, Control_c, 0, 64, 0
1, 158697, Control_c, 0, 64, 127
1, 158760, Note_on_c, 0, 79, 0
1, 158760, Note_on_c, 0, 77, 49
1, 158880, Tempo, 585366
1, 158880, Note_on_c, 0, 77, 0
1, 158880, Note_on_c, 0, 65, 0
1, 158880, Note_on_c, 0, 60, 0
1, 158880, Note_on_c, 0, 53, 0
1, 158880, Note_on_c, 0, 69, 46
1, 158880, Note_on_c, 0, 53, 27
1, 158880, Note_on_c, 0, 60, 27
1, 158880, Note_on_c, 0, 65, 27
1, 159000, Tempo, 638298
1, 159000, Note_on_c, 0, 69, 0
1, 159000, Note_on_c, 0, 77, 46
1, 159120, Tempo, 600000
1, 159120, Note_on_c, 0, 77, 0
1, 159120, Note_on_c, 0, 65, 0
1, 159120, Note_on_c, 0, 60, 0
1, 159120, Note_on_c, 0, 53, 0
1, 159120, Note_on_c, 0, 81, 51
1, 159120, Control_c, 0, 64, 0
1, 159120, Note_on_c, 0, 53, 35
1, 159120, Note_on_c, 0, 61, 35
1, 159120, Note_on_c, 0, 65, 35
1, 159171, Control_c, 0, 64, 127
1, 159240, Note_on_c, 0, 65, 0
1, 159240, Note_on_c, 0, 81, 0
1, 159240, Note_on_c, 0, 53, 0
1, 159240, Note_on_c, 0, 61, 0
1, 159240, Note_on_c, 0, 79, 47
1, 159360, Note_on_c, 0, 79, 0
1, 159360, Note_on_c, 0, 77, 53
1, 159360, Note_on_c, 0, 53, 31
1, 159360, Note_on_c, 0, 61, 31
1, 159360, Note_on_c, 0, 65, 31
1, 159371, Control_c, 0, 64, 0
1, 159446, Control_c, 0, 64, 127
1, 159480, Note_on_c, 0, 65, 0
1, 159480, Note_on_c, 0, 77, 0
1, 159480, Note_on_c, 0, 53, 0
1, 159480, Note_on_c, 0, 61, 0
1, 159480, Note_on_c, 0, 69, 45
1, 159600, Tempo, 594059
1, 159600, Note_on_c, 0, 69, 0
1, 159600, Note_on_c, 0, 65, 48
1, 159600, Note_on_c, 0, 53, 28
1, 159600, Note_on_c, 0, 61, 28
1, 159720, Tempo, 628272
1, 159720, Note_on_c, 0, 61, 0
1, 159720, Note_on_c, 0, 53, 0
1, 159720, Note_on_c, 0, 65, 0
1, 159720, Note_on_c, 0, 69, 44
1, 159840, Tempo, 597015
1, 159840, Note_on_c, 0, 69, 0
1, 159840, Note_on_c, 0, 77, 57
1, 159840, Note_on_c, 0, 81, 57
1, 159840, Control_c, 0, 64, 0
1, 159840, Note_on_c, 0, 53, 37
1, 159840, Note_on_c, 0, 62, 37
1, 159840, Note_on_c, 0, 65, 37
1, 159889, Control_c, 0, 64, 127
1, 159960, Note_on_c, 0, 79, 51
1, 160020, Note_on_c, 0, 79, 0
1, 160020, Note_on_c, 0, 77, 0
1, 160020, Note_on_c, 0, 81, 0
1, 160020, Note_on_c, 0, 81, 51
1, 160080, Note_on_c, 0, 81, 0
1, 160080, Note_on_c, 0, 53, 0
1, 160080, Note_on_c, 0, 65, 0
1, 160080, Note_on_c, 0, 62, 0
1, 160080, Note_on_c, 0, 79, 57
1, 160080, Note_on_c, 0, 53, 34
1, 160080, Note_on_c, 0, 62, 34
1, 160080, Note_on_c, 0, 65, 34
1, 160086, Control_c, 0, 64, 0
1, 160161, Control_c, 0, 64, 127
1, 160200, Note_on_c, 0, 79, 0
1, 160200, Note_on_c, 0, 77, 55
1, 160320, Tempo, 585366
1, 160320, Note_on_c, 0, 77, 0
1, 160320, Note_on_c, 0, 65, 0
1, 160320, Note_on_c, 0, 62, 0
1, 160320, Note_on_c, 0, 53, 0
1, 160320, Note_on_c, 0, 69, 51
1, 160320, Note_on_c, 0, 53, 30
1, 160320, Note_on_c, 0, 62, 30
1, 160320, Note_on_c, 0, 65, 30
1, 160440, Tempo, 638298
1, 160440, Note_on_c, 0, 69, 0
1, 160440, Note_on_c, 0, 77, 53
1, 160560, Tempo, 600000
1, 160560, Note_on_c, 0, 77, 0
1, 160560, Note_on_c, 0, 65, 0
1, 160560, Note_on_c, 0, 62, 0
1, 160560, Note_on_c, 0, 53, 0
1, 160560, Note_on_c, 0, 81, 60
1, 160560, Control_c, 0, 64, 0
1, 160560, Note_on_c, 0, 53, 40
1, 160560, Note_on_c, 0, 61, 40
1, 160560, Note_on_c, 0, 65, 40
1, 160611, Control_c, 0, 64, 127
1, 160680, Note_on_c, 0, 65, 0
1, 160680, Note_on_c, 0, 81, 0
1, 160680, Note_on_c, 0, 53, 0
1, 160680, Note_on_c, 0, 61, 0
1, 160680, Note_on_c, 0, 79, 56
1, 160800, Note_on_c, 0, 79, 0
1, 160800, Note_on_c, 0, 77, 62
1, 160800, Note_on_c, 0, 53, 36
1, 160800, Note_on_c, 0, 61, 36
1, 160800, Note_on_c, 0, 65, 36
1, 160811, Control_c, 0, 64, 0
1, 160886, Control_c, 0, 64, 127
1, 160920, Note_on_c, 0, 65, 0
1, 160920, Note_on_c, 0, 77, 0
1, 160920, Note_on_c, 0, 53, 0
1, 160920, Note_on_c, 0, 61, 0
1, 160920, Note_on_c, 0, 69, 49
1, 161040, Tempo, 594059
1, 161040, Note_on_c, 0, 69, 0
1, 161040, Note_on_c, 0, 65, 57
1, 161040, Note_on_c, 0, 53, 33
1, 161040, Note_on_c, 0, 61, 33
1, 161160, Tempo, 628272
1, 161160, Note_on_c, 0, 61, 0
1, 161160, Note_on_c, 0, 53, 0
1, 161160, Note_on_c, 0, 65, 0
1, 161160, Note_on_c, 0, 69, 51
1, 161280, Tempo, 597015
1, 161280, Note_on_c, 0, 69, 0
1, 161280, Note_on_c, 0, 69, 66
1, 161280, Note_on_c, 0, 77, 66
1, 161280, Note_on_c, 0, 81, 66
1, 161280, Control_c, 0, 64, 0
1, 161280, Note_on_c, 0, 53, 42
1, 161280, Note_on_c, 0, 60, 42
1, 161280, Note_on_c, 0, 65, 42
1, 161329, Control_c, 0, 64, 127
1, 161400, Note_on_c, 0, 79, 58
1, 161460, Note_on_c, 0, 79, 0
1, 161460, Note_on_c, 0, 77, 0
1, 161460, Note_on_c, 0, 69, 0
1, 161460, Note_on_c, 0, 81, 0
1, 161460, Note_on_c, 0, 81, 59
1, 161520, Note_on_c, 0, 81, 0
1, 161520, Note_on_c, 0, 65, 0
1, 161520, Note_on_c, 0, 60, 0
1, 161520, Note_on_c, 0, 53, 0
1, 161520, Note_on_c, 0, 79, 67
1, 161520, Note_on_c, 0, 53, 39
1, 161520, Note_on_c, 0, 60, 39
1, 161520, Note_on_c, 0, 65, 39
1, 161531, Control_c, 0, 64, 0
1, 161587, Control_c, 0, 64, 127
1, 161640, Note_on_c, 0, 79, 0
1, 161640, Note_on_c, 0, 77, 64
1, 161760, Tempo, 585366
1, 161760, Note_on_c, 0, 77, 0
1, 161760, Note_on_c, 0, 65, 0
1, 161760, Note_on_c, 0, 60, 0
1, 161760, Note_on_c, 0, 53, 0
1, 161760, Note_on_c, 0, 69, 59
1, 161760, Note_on_c, 0, 53, 34
1, 161760, Note_on_c, 0, 60, 34
1, 161760, Note_on_c, 0, 65, 34
1, 161880, Tempo, 677966
1, 161880, Note_on_c, 0, 69, 0
1, 161880, Note_on_c, 0, 77, 61
1, 162000, Tempo, 597015
1, 162000, Note_on_c, 0, 77, 0
1, 162000, Note_on_c, 0, 65, 0
1, 162000, Note_on_c, 0, 60, 0
1, 162000, Note_on_c, 0, 53, 0
1, 162000, Note_on_c, 0, 74, 70
1, 162000, Note_on_c, 0, 77, 70
1, 162000, Note_on_c, 0, 81, 70
1, 162000, Note_on_c, 0, 47, 45
1, 162003, Control_c, 0, 64, 0
1, 162049, Control_c, 0, 64, 127
1, 162120, Note_on_c, 0, 79, 61
1, 162180, Note_on_c, 0, 79, 0
1, 162180, Note_on_c, 0, 74, 0
1, 162180, Note_on_c, 0, 81, 0
1, 162180, Note_on_c, 0, 77, 0
1, 162180, Note_on_c, 0, 81, 61
1, 162240, Note_on_c, 0, 81, 0
1, 162240, Note_on_c, 0, 47, 0
1, 162240, Note_on_c, 0, 79, 71
1, 162240, Note_on_c, 0, 55, 42
1, 162240, Note_on_c, 0, 59, 42
1, 162250, Control_c, 0, 64, 0
1, 162318, Control_c, 0, 64, 127
1, 162360, Note_on_c, 0, 79, 0
1, 162360, Note_on_c, 0, 77, 60
1, 162480, Tempo, 585366
1, 162480, Note_on_c, 0, 77, 0
1, 162480, Note_on_c, 0, 59, 0
1, 162480, Note_on_c, 0, 69, 63
1, 162480, Note_on_c, 0, 65, 36
1, 162600, Tempo, 638298
1, 162600, Note_on_c, 0, 69, 0
1, 162600, Note_on_c, 0, 67, 58
1, 162720, Tempo, 582524
1, 162720, Note_on_c, 0, 67, 0
1, 162720, Note_on_c, 0, 65, 0
1, 162720, Note_on_c, 0, 55, 0
1, 162720, Note_on_c, 0, 65, 57
1, 162720, Note_on_c, 0, 69, 57
1, 162720, Note_on_c, 0, 74, 78
1, 162720, Note_on_c, 0, 36, 63
1, 162727, Control_c, 0, 64, 0
1, 162817, Control_c, 0, 64, 127
1, 162840, Tempo, 631579
1, 162840, Note_on_c, 0, 74, 0
1, 162840, Note_on_c, 0, 72, 70
1, 162960, Tempo, 585366
1, 162960, Note_on_c, 0, 72, 0
1, 162960, Note_on_c, 0, 36, 0
1, 162960, Note_on_c, 0, 69, 0
1, 162960, Note_on_c, 0, 65, 0
1, 162960, Note_on_c, 0, 69, 61
1, 162960, Note_on_c, 0, 72, 61
1, 162960, Note_on_c, 0, 79, 82
1, 162960, Note_on_c, 0, 59, 62
1, 162979, Control_c, 0, 64, 0
1, 163046, Control_c, 0, 64, 127
1, 163080, Tempo, 625000
1, 163080, Note_on_c, 0, 59, 0
1, 163080, Note_on_c, 0, 79, 0
1, 163080, Note_on_c, 0, 77, 75
1, 163080, Note_on_c, 0, 60, 57
1, 163200, Tempo, 585366
1, 163200, Note_on_c, 0, 60, 0
1, 163200, Note_on_c, 0, 69, 0
1, 163200, Note_on_c, 0, 72, 0
1, 163200, Note_on_c, 0, 77, 0
1, 163200, Note_on_c, 0, 77, 63
1, 163200, Note_on_c, 0, 81, 63
1, 163200, Note_on_c, 0, 86, 85
1, 163200, Note_on_c, 0, 57, 64
1, 163222, Control_c, 0, 64, 0
1, 163280, Control_c, 0, 64, 127
1, 163320, Tempo, 615385
1, 163320, Note_on_c, 0, 57, 0
1, 163320, Note_on_c, 0, 86, 0
1, 163320, Note_on_c, 0, 84, 75
1, 163320, Note_on_c, 0, 53, 57
1, 163440, Tempo, 600000
1, 163440, Note_on_c, 0, 53, 0
1, 163440, Note_on_c, 0, 77, 0
1, 163440, Note_on_c, 0, 81, 0
1, 163440, Note_on_c, 0, 84, 0
1, 163440, Note_on_c, 0, 76, 75
1, 163440, Note_on_c, 0, 82, 75
1, 163440, Note_on_c, 0, 86, 100
1, 163440, Control_c, 0, 64, 0
1, 163440, Note_on_c, 0, 36, 82
1, 163532, Control_c, 0, 64, 127
1, 163560, Tempo, 625000
1, 163560, Note_on_c, 0, 36, 0
1, 163560, Note_on_c, 0, 86, 0
1, 163560, Note_on_c, 0, 84, 83
1, 163680, Tempo, 600000
1, 163680, Note_on_c, 0, 84, 0
1, 163680, Note_on_c, 0, 82, 0
1, 163680, Note_on_c, 0, 76, 0
1, 163680, Note_on_c, 0, 94, 74
1, 163680, Note_on_c, 0, 88, 74
1, 163680, Note_on_c, 0, 98, 99
1, 163680, Note_on_c, 0, 72, 78
1, 163698, Control_c, 0, 64, 0
1, 163786, Control_c, 0, 64, 127
1, 163800, Tempo, 645161
1, 163800, Note_on_c, 0, 72, 0
1, 163800, Note_on_c, 0, 98, 0
1, 163800, Note_on_c, 0, 96, 80
1, 163920, Note_on_c, 0, 96, 0
1, 163920, Note_on_c, 0, 88, 0
1, 163920, Note_on_c, 0, 94, 0
1, 163920, Note_on_c, 0, 82, 74
1, 163920, Note_on_c, 0, 76, 74
1, 163920, Note_on_c, 0, 86, 99
1, 163920, Note_on_c, 0, 60, 79
1, 163934, Control_c, 0, 64, 0
1, 163991, Control_c, 0, 64, 127
1, 164040, Tempo, 750000
1, 164040, Note_on_c, 0, 60, 0
1, 164040, Note_on_c, 0, 86, 0
1, 164040, Note_on_c, 0, 84, 79
1, 164160, Tempo, 597015
1, 164160, Note_on_c, 0, 84, 0
1, 164160, Note_on_c, 0, 76, 0
1, 164160, Note_on_c, 0, 82, 0
1, 164160, Note_on_c, 0, 69, 54
1, 164160, Note_on_c, 0, 77, 54
1, 164160, Note_on_c, 0, 81, 54
1, 164160, Note_on_c, 0, 53, 35
1, 164160, Note_on_c, 0, 60, 35
1, 164160, Note_on_c, 0, 65, 35
1, 164164, Control_c, 0, 64, 0
1, 164234, Control_c, 0, 64, 127
1, 164280, Note_on_c, 0, 79, 48
1, 164340, Note_on_c, 0, 79, 0
1, 164340, Note_on_c, 0, 77, 0
1, 164340, Note_on_c, 0, 69, 0
1, 164340, Note_on_c, 0, 81, 0
1, 164340, Note_on_c, 0, 81, 48
1, 164400, Note_on_c, 0, 81, 0
1, 164400, Note_on_c, 0, 65, 0
1, 164400, Note_on_c, 0, 60, 0
1, 164400, Note_on_c, 0, 53, 0
1, 164400, Note_on_c, 0, 79, 53
1, 164400, Note_on_c, 0, 53, 32
1, 164400, Note_on_c, 0, 60, 32
1, 164400, Note_on_c, 0, 65, 32
1, 164421, Control_c, 0, 64, 0
1, 164467, Control_c, 0, 64, 127
1, 164520, Note_on_c, 0, 79, 0
1, 164520, Note_on_c, 0, 77, 49
1, 164640, Tempo, 585366
1, 164640, Note_on_c, 0, 77, 0
1, 164640, Note_on_c, 0, 65, 0
1, 164640, Note_on_c, 0, 60, 0
1, 164640, Note_on_c, 0, 53, 0
1, 164640, Note_on_c, 0, 69, 46
1, 164640, Note_on_c, 0, 53, 27
1, 164640, Note_on_c, 0, 60, 27
1, 164640, Note_on_c, 0, 65, 27
1, 164760, Tempo, 638298
1, 164760, Note_on_c, 0, 69, 0
1, 164760, Note_on_c, 0, 77, 46
1, 164880, Tempo, 600000
1, 164880, Note_on_c, 0, 77, 0
1, 164880, Note_on_c, 0, 65, 0
1, 164880, Note_on_c, 0, 60, 0
1, 164880, Note_on_c, 0, 53, 0
1, 164880, Note_on_c, 0, 81, 51
1, 164880, Control_c, 0, 64, 0
1, 164880, Note_on_c, 0, 53, 35
1, 164880, Note_on_c, 0, 61, 35
1, 164880, Note_on_c, 0, 65, 35
1, 164931, Control_c, 0, 64, 127
1, 165000, Note_on_c, 0, 65, 0
1, 165000, Note_on_c, 0, 81, 0
1, 165000, Note_on_c, 0, 53, 0
1, 165000, Note_on_c, 0, 61, 0
1, 165000, Note_on_c, 0, 79, 47
1, 165120, Note_on_c, 0, 79, 0
1, 165120, Note_on_c, 0, 77, 53
1, 165120, Note_on_c, 0, 53, 31
1, 165120, Note_on_c, 0, 61, 31
1, 165120, Note_on_c, 0, 65, 31
1, 165131, Control_c, 0, 64, 0
1, 165206, Control_c, 0, 64, 127
1, 165240, Note_on_c, 0, 65, 0
1, 165240, Note_on_c, 0, 77, 0
1, 165240, Note_on_c, 0, 53, 0
1, 165240, Note_on_c, 0, 61, 0
1, 165240, Note_on_c, 0, 69, 45
1, 165360, Tempo, 594059
1, 165360, Note_on_c, 0, 69, 0
1, 165360, Note_on_c, 0, 65, 48
1, 165360, Note_on_c, 0, 53, 28
1, 165360, Note_on_c, 0, 61, 28
1, 165480, Tempo, 628272
1, 165480, Note_on_c, 0, 61, 0
1, 165480, Note_on_c, 0, 53, 0
1, 165480, Note_on_c, 0, 65, 0
1, 165480, Note_on_c, 0, 69, 43
1, 165600, Tempo, 597015
1, 165600, Note_on_c, 0, 69, 0
1, 165600, Note_on_c, 0, 77, 57
1, 165600, Note_on_c, 0, 81, 57
1, 165600, Note_on_c, 0, 53, 37
1, 165600, Note_on_c, 0, 62, 37
1, 165600, Note_on_c, 0, 65, 37
1, 165605, Control_c, 0, 64, 0
1, 165649, Control_c, 0, 64, 127
1, 165720, Note_on_c, 0, 79, 51
1, 165780, Note_on_c, 0, 79, 0
1, 165780, Note_on_c, 0, 77, 0
1, 165780, Note_on_c, 0, 81, 0
1, 165780, Note_on_c, 0, 81, 51
1, 165840, Note_on_c, 0, 81, 0
1, 165840, Note_on_c, 0, 53, 0
1, 165840, Note_on_c, 0, 65, 0
1, 165840, Note_on_c, 0, 62, 0
1, 165840, Note_on_c, 0, 79, 57
1, 165840, Note_on_c, 0, 53, 34
1, 165840, Note_on_c, 0, 62, 34
1, 165840, Note_on_c, 0, 65, 34
1, 165846, Control_c, 0, 64, 0
1, 165904, Control_c, 0, 64, 127
1, 165960, Note_on_c, 0, 79, 0
1, 165960, Note_on_c, 0, 77, 55
1, 166080, Tempo, 585366
1, 166080, Note_on_c, 0, 77, 0
1, 166080, Note_on_c, 0, 65, 0
1, 166080, Note_on_c, 0, 62, 0
1, 166080, Note_on_c, 0, 53, 0
1, 166080, Note_on_c, 0, 69, 51
1, 166080, Note_on_c, 0, 53, 30
1, 166080, Note_on_c, 0, 62, 30
1, 166080, Note_on_c, 0, 65, 30
1, 166200, Tempo, 638298
1, 166200, Note_on_c, 0, 69, 0
1, 166200, Note_on_c, 0, 77, 53
1, 166320, Tempo, 600000
1, 166320, Note_on_c, 0, 77, 0
1, 166320, Note_on_c, 0, 65, 0
1, 166320, Note_on_c, 0, 62, 0
1, 166320, Note_on_c, 0, 53, 0
1, 166320, Note_on_c, 0, 81, 60
1, 166320, Note_on_c, 0, 53, 40
1, 166320, Note_on_c, 0, 61, 40
1, 166320, Note_on_c, 0, 65, 40
1, 166323, Control_c, 0, 64, 0
1, 166371, Control_c, 0, 64, 127
1, 166440, Note_on_c, 0, 65, 0
1, 166440, Note_on_c, 0, 81, 0
1, 166440, Note_on_c, 0, 53, 0
1, 166440, Note_on_c, 0, 61, 0
1, 166440, Note_on_c, 0, 79, 56
1, 166560, Note_on_c, 0, 79, 0
1, 166560, Note_on_c, 0, 77, 62
1, 166560, Note_on_c, 0, 53, 36
1, 166560, Note_on_c, 0, 61, 36
1, 166560, Note_on_c, 0, 65, 36
1, 166571, Control_c, 0, 64, 0
1, 166646, Control_c, 0, 64, 127
1, 166680, Note_on_c, 0, 65, 0
1, 166680, Note_on_c, 0, 77, 0
1, 166680, Note_on_c, 0, 53, 0
1, 166680, Note_on_c, 0, 61, 0
1, 166680, Note_on_c, 0, 69, 52
1, 166800, Tempo, 594059
1, 166800, Note_on_c, 0, 69, 0
1, 166800, Note_on_c, 0, 65, 57
1, 166800, Note_on_c, 0, 53, 33
1, 166800, Note_on_c, 0, 61, 33
1, 166920, Tempo, 628272
1, 166920, Note_on_c, 0, 61, 0
1, 166920, Note_on_c, 0, 53, 0
1, 166920, Note_on_c, 0, 65, 0
1, 166920, Note_on_c, 0, 69, 50
1, 167040, Tempo, 597015
1, 167040, Note_on_c, 0, 69, 0
1, 167040, Note_on_c, 0, 69, 66
1, 167040, Note_on_c, 0, 77, 66
1, 167040, Note_on_c, 0, 81, 66
1, 167040, Note_on_c, 0, 53, 42
1, 167040, Note_on_c, 0, 60, 42
1, 167040, Note_on_c, 0, 65, 42
1, 167046, Control_c, 0, 64, 0
1, 167089, Control_c, 0, 64, 127
1, 167160, Note_on_c, 0, 79, 58
1, 167220, Note_on_c, 0, 79, 0
1, 167220, Note_on_c, 0, 77, 0
1, 167220, Note_on_c, 0, 69, 0
1, 167220, Note_on_c, 0, 81, 0
1, 167220, Note_on_c, 0, 81, 56
1, 167280, Note_on_c, 0, 81, 0
1, 167280, Note_on_c, 0, 65, 0
1, 167280, Note_on_c, 0, 60, 0
1, 167280, Note_on_c, 0, 53, 0
1, 167280, Note_on_c, 0, 79, 67
1, 167280, Note_on_c, 0, 53, 39
1, 167280, Note_on_c, 0, 60, 39
1, 167280, Note_on_c, 0, 65, 39
1, 167287, Control_c, 0, 64, 0
1, 167354, Control_c, 0, 64, 127
1, 167400, Note_on_c, 0, 79, 0
1, 167400, Note_on_c, 0, 77, 64
1, 167520, Tempo, 585366
1, 167520, Note_on_c, 0, 77, 0
1, 167520, Note_on_c, 0, 65, 0
1, 167520, Note_on_c, 0, 60, 0
1, 167520, Note_on_c, 0, 53, 0
1, 167520, Note_on_c, 0, 69, 59
1, 167520, Note_on_c, 0, 53, 34
1, 167520, Note_on_c, 0, 60, 34
1, 167520, Note_on_c, 0, 65, 34
1, 167640, Tempo, 677966
1, 167640, Note_on_c, 0, 69, 0
1, 167640, Note_on_c, 0, 77, 61
1, 167760, Tempo, 597015
1, 167760, Note_on_c, 0, 77, 0
1, 167760, Note_on_c, 0, 65, 0
1, 167760, Note_on_c, 0, 60, 0
1, 167760, Note_on_c, 0, 53, 0
1, 167760, Note_on_c, 0, 74, 70
1, 167760, Note_on_c, 0, 77, 70
1, 167760, Note_on_c, 0, 81, 70
1, 167760, Note_on_c, 0, 47, 45
1, 167769, Control_c, 0, 64, 0
1, 167809, Control_c, 0, 64, 127
1, 167880, Note_on_c, 0, 79, 63
1, 167940, Note_on_c, 0, 79, 0
1, 167940, Note_on_c, 0, 74, 0
1, 167940, Note_on_c, 0, 81, 0
1, 167940, Note_on_c, 0, 77, 0
1, 167940, Note_on_c, 0, 81, 63
1, 168000, Note_on_c, 0, 81, 0
1, 168000, Note_on_c, 0, 47, 0
1, 168000, Note_on_c, 0, 79, 71
1, 168000, Note_on_c, 0, 55, 42
1, 168000, Note_on_c, 0, 59, 42
1, 168020, Control_c, 0, 64, 0
1, 168113, Control_c, 0, 64, 127
1, 168120, Note_on_c, 0, 79, 0
1, 168120, Note_on_c, 0, 77, 63
1, 168240, Tempo, 585366
1, 168240, Note_on_c, 0, 77, 0
1, 168240, Note_on_c, 0, 59, 0
1, 168240, Note_on_c, 0, 69, 63
1, 168240, Note_on_c, 0, 65, 36
1, 168360, Tempo, 638298
1, 168360, Note_on_c, 0, 69, 0
1, 168360, Note_on_c, 0, 67, 57
1, 168480, Tempo, 582524
1, 168480, Note_on_c, 0, 67, 0
1, 168480, Note_on_c, 0, 65, 0
1, 168480, Note_on_c, 0, 55, 0
1, 168480, Note_on_c, 0, 65, 57
1, 168480, Note_on_c, 0, 69, 57
1, 168480, Note_on_c, 0, 74, 78
1, 168480, Note_on_c, 0, 36, 63
1, 168488, Control_c, 0, 64, 0
1, 168560, Control_c, 0, 64, 127
1, 168600, Tempo, 631579
1, 168600, Note_on_c, 0, 74, 0
1, 168600, Note_on_c, 0, 72, 69
1, 168720, Tempo, 585366
1, 168720, Note_on_c, 0, 72, 0
1, 168720, Note_on_c, 0, 36, 0
1, 168720, Note_on_c, 0, 69, 0
1, 168720, Note_on_c, 0, 65, 0
1, 168720, Note_on_c, 0, 69, 61
1, 168720, Note_on_c, 0, 72, 61
1, 168720, Note_on_c, 0, 79, 82
1, 168720, Note_on_c, 0, 59, 62
1, 168738, Control_c, 0, 64, 0
1, 168783, Control_c, 0, 64, 127
1, 168840, Tempo, 625000
1, 168840, Note_on_c, 0, 59, 0
1, 168840, Note_on_c, 0, 79, 0
1, 168840, Note_on_c, 0, 77, 73
1, 168840, Note_on_c, 0, 60, 57
1, 168960, Tempo, 585366
1, 168960, Note_on_c, 0, 60, 0
1, 168960, Note_on_c, 0, 69, 0
1, 168960, Note_on_c, 0, 72, 0
1, 168960, Note_on_c, 0, 77, 0
1, 168960, Note_on_c, 0, 77, 63
1, 168960, Note_on_c, 0, 81, 63
1, 168960, Note_on_c, 0, 86, 85
1, 168960, Note_on_c, 0, 57, 64
1, 168980, Control_c, 0, 64, 0
1, 169040, Control_c, 0, 64, 127
1, 169080, Tempo, 615385
1, 169080, Note_on_c, 0, 57, 0
1, 169080, Note_on_c, 0, 86, 0
1, 169080, Note_on_c, 0, 84, 76
1, 169080, Note_on_c, 0, 53, 57
1, 169200, Tempo, 600000
1, 169200, Note_on_c, 0, 53, 0
1, 169200, Note_on_c, 0, 77, 0
1, 169200, Note_on_c, 0, 81, 0
1, 169200, Note_on_c, 0, 84, 0
1, 169200, Note_on_c, 0, 76, 75
1, 169200, Note_on_c, 0, 82, 75
1, 169200, Note_on_c, 0, 86, 100
1, 169200, Note_on_c, 0, 36, 82
1, 169202, Control_c, 0, 64, 0
1, 169292, Control_c, 0, 64, 127
1, 169320, Tempo, 625000
1, 169320, Note_on_c, 0, 36, 0
1, 169320, Note_on_c, 0, 86, 0
1, 169320, Note_on_c, 0, 84, 77
1, 169440, Tempo, 600000
1, 169440, Note_on_c, 0, 84, 0
1, 169440, Note_on_c, 0, 82, 0
1, 169440, Note_on_c, 0, 76, 0
1, 169440, Note_on_c, 0, 94, 74
1, 169440, Note_on_c, 0, 88, 74
1, 169440, Note_on_c, 0, 98, 99
1, 169440, Note_on_c, 0, 72, 78
1, 169461, Control_c, 0, 64, 0
1, 169546, Control_c, 0, 64, 127
1, 169560, Tempo, 645161
1, 169560, Note_on_c, 0, 72, 0
1, 169560, Note_on_c, 0, 98, 0
1, 169560, Note_on_c, 0, 96, 80
1, 169680, Note_on_c, 0, 96, 0
1, 169680, Note_on_c, 0, 88, 0
1, 169680, Note_on_c, 0, 94, 0
1, 169680, Note_on_c, 0, 82, 74
1, 169680, Note_on_c, 0, 76, 74
1, 169680, Note_on_c, 0, 86, 99
1, 169680, Note_on_c, 0, 60, 79
1, 169694, Control_c, 0, 64, 0
1, 169800, Tempo, 745342
1, 169800, Note_on_c, 0, 60, 0
1, 169800, Note_on_c, 0, 86, 0
1, 169800, Note_on_c, 0, 84, 76
1, 169821, Control_c, 0, 64, 127
1, 169920, Tempo, 562799
1, 169920, Note_on_c, 0, 84, 0
1, 169920, Note_on_c, 0, 76, 0
1, 169920, Note_on_c, 0, 82, 0
1, 169920, Control_c, 0, 64, 0
1, 169920, Note_on_c, 0, 41, 107
1, 170040, Note_on_c, 0, 41, 0
1, 170040, Control_c, 0, 64, 127
1, 170160, Tempo, 475662
1, 170160, Note_on_c, 0, 56, 60
1, 170160, Note_on_c, 0, 61, 73
1, 170160, Note_on_c, 0, 65, 80
1, 170280, Tempo, 516796
1, 170280, Note_on_c, 0, 65, 0
1, 170280, Note_on_c, 0, 61, 0
1, 170280, Note_on_c, 0, 56, 0
1, 170280, Note_on_c, 0, 53, 71
1, 170400, Tempo, 524017
1, 170400, Note_on_c, 0, 53, 0
1, 170400, Note_on_c, 0, 59, 70
1, 170520, Note_on_c, 0, 59, 0
1, 170640, Tempo, 475662
1, 170640, Note_on_c, 0, 68, 73
1, 170640, Note_on_c, 0, 73, 73
1, 170640, Note_on_c, 0, 77, 80
1, 170663, Control_c, 0, 64, 0
1, 170697, Control_c, 0, 64, 127
1, 170760, Tempo, 516796
1, 170760, Note_on_c, 0, 77, 0
1, 170760, Note_on_c, 0, 73, 0
1, 170760, Note_on_c, 0, 68, 0
1, 170760, Note_on_c, 0, 65, 71
1, 170880, Tempo, 524017
1, 170880, Note_on_c, 0, 65, 0
1, 170880, Note_on_c, 0, 71, 70
1, 171000, Note_on_c, 0, 71, 0
1, 171120, Tempo, 475662
1, 171120, Note_on_c, 0, 89, 79
1, 171120, Note_on_c, 0, 85, 72
1, 171120, Note_on_c, 0, 80, 72
1, 171130, Control_c, 0, 64, 0
1, 171195, Control_c, 0, 64, 127
1, 171240, Tempo, 516796
1, 171240, Note_on_c, 0, 80, 0
1, 171240, Note_on_c, 0, 85, 0
1, 171240, Note_on_c, 0, 89, 0
1, 171240, Note_on_c, 0, 77, 72
1, 171360, Tempo, 560015
1, 171360, Note_on_c, 0, 77, 0
1, 171360, Note_on_c, 0, 83, 69
1, 171469, Control_c, 0, 64, 0
1, 171480, Note_on_c, 0, 83, 0
1, 171600, Tempo, 519121
1, 171600, Note_on_c, 0, 89, 81
1, 171600, Note_on_c, 0, 83, 71
1, 171600, Note_on_c, 0, 65, 54
1, 171600, Note_on_c, 0, 73, 60
1, 171640, Control_c, 0, 64, 127
1, 171660, Note_on_c, 0, 73, 0
1, 171660, Note_on_c, 0, 89, 0
1, 171660, Note_on_c, 0, 83, 0
1, 171660, Note_on_c, 0, 65, 0
1, 171720, Note_on_c, 0, 89, 81
1, 171720, Note_on_c, 0, 83, 71
1, 171720, Note_on_c, 0, 65, 54
1, 171720, Note_on_c, 0, 73, 60
1, 171780, Note_on_c, 0, 73, 0
1, 171780, Note_on_c, 0, 89, 0
1, 171780, Note_on_c, 0, 83, 0
1, 171780, Note_on_c, 0, 65, 0
1, 171840, Tempo, 533760
1, 171840, Note_on_c, 0, 95, 85
1, 171840, Note_on_c, 0, 89, 76
1, 171840, Note_on_c, 0, 73, 65
1, 171840, Note_on_c, 0, 79, 65
1, 171960, Note_on_c, 0, 79, 0
1, 171960, Note_on_c, 0, 95, 0
1, 171960, Note_on_c, 0, 89, 0
1, 171960, Note_on_c, 0, 73, 0
1, 172080, Tempo, 546548
1, 172080, Note_on_c, 0, 89, 82
1, 172080, Note_on_c, 0, 83, 73
1, 172080, Note_on_c, 0, 65, 47
1, 172080, Note_on_c, 0, 73, 55
1, 172200, Note_on_c, 0, 73, 0
1, 172200, Note_on_c, 0, 89, 0
1, 172200, Note_on_c, 0, 83, 0
1, 172200, Note_on_c, 0, 65, 0
1, 172320, Note_on_c, 0, 95, 85
1, 172320, Note_on_c, 0, 89, 76
1, 172320, Note_on_c, 0, 73, 56
1, 172320, Note_on_c, 0, 79, 56
1, 172440, Note_on_c, 0, 79, 0
1, 172440, Note_on_c, 0, 95, 0
1, 172440, Note_on_c, 0, 89, 0
1, 172440, Note_on_c, 0, 73, 0
1, 172560, Note_on_c, 0, 89, 82
1, 172560, Note_on_c, 0, 83, 73
1, 172560, Note_on_c, 0, 65, 47
1, 172560, Note_on_c, 0, 73, 55
1, 172669, Control_c, 0, 64, 0
1, 172680, Note_on_c, 0, 73, 0
1, 172680, Note_on_c, 0, 89, 0
1, 172680, Note_on_c, 0, 83, 0
1, 172680, Note_on_c, 0, 65, 0
1, 172800, Tempo, 562799
1, 172800, Note_on_c, 0, 41, 107
1, 172849, Control_c, 0, 64, 127
1, 172920, Note_on_c, 0, 41, 0
1, 173040, Tempo, 475662
1, 173040, Note_on_c, 0, 56, 60
1, 173040, Note_on_c, 0, 61, 73
1, 173040, Note_on_c, 0, 65, 80
1, 173160, Tempo, 516796
1, 173160, Note_on_c, 0, 65, 0
1, 173160, Note_on_c, 0, 61, 0
1, 173160, Note_on_c, 0, 56, 0
1, 173160, Note_on_c, 0, 53, 71
1, 173280, Tempo, 528634
1, 173280, Note_on_c, 0, 53, 0
1, 173280, Note_on_c, 0, 59, 68
1, 173400, Note_on_c, 0, 59, 0
1, 173520, Tempo, 473709
1, 173520, Note_on_c, 0, 68, 73
1, 173520, Note_on_c, 0, 73, 73
1, 173520, Note_on_c, 0, 77, 80
1, 173524, Control_c, 0, 64, 0
1, 173560, Control_c, 0, 64, 127
1, 173640, Tempo, 516796
1, 173640, Note_on_c, 0, 77, 0
1, 173640, Note_on_c, 0, 73, 0
1, 173640, Note_on_c, 0, 68, 0
1, 173640, Note_on_c, 0, 65, 71
1, 173760, Tempo, 524017
1, 173760, Note_on_c, 0, 65, 0
1, 173760, Note_on_c, 0, 71, 68
1, 173880, Note_on_c, 0, 71, 0
1, 174000, Tempo, 473709
1, 174000, Note_on_c, 0, 89, 80
1, 174000, Note_on_c, 0, 85, 73
1, 174000, Note_on_c, 0, 80, 73
1, 174009, Control_c, 0, 64, 0
1, 174086, Control_c, 0, 64, 127
1, 174120, Tempo, 516796
1, 174120, Note_on_c, 0, 80, 0
1, 174120, Note_on_c, 0, 85, 0
1, 174120, Note_on_c, 0, 89, 0
1, 174120, Note_on_c, 0, 77, 73
1, 174240, Tempo, 560015
1, 174240, Note_on_c, 0, 77, 0
1, 174240, Note_on_c, 0, 83, 69
1, 174320, Control_c, 0, 64, 0
1, 174360, Note_on_c, 0, 83, 0
1, 174480, Tempo, 519121
1, 174480, Note_on_c, 0, 89, 90
1, 174480, Note_on_c, 0, 83, 79
1, 174480, Note_on_c, 0, 65, 60
1, 174480, Note_on_c, 0, 73, 67
1, 174512, Control_c, 0, 64, 127
1, 174540, Note_on_c, 0, 73, 0
1, 174540, Note_on_c, 0, 89, 0
1, 174540, Note_on_c, 0, 83, 0
1, 174540, Note_on_c, 0, 65, 0
1, 174600, Note_on_c, 0, 89, 81
1, 174600, Note_on_c, 0, 83, 71
1, 174600, Note_on_c, 0, 65, 54
1, 174600, Note_on_c, 0, 73, 60
1, 174660, Note_on_c, 0, 73, 0
1, 174660, Note_on_c, 0, 89, 0
1, 174660, Note_on_c, 0, 83, 0
1, 174660, Note_on_c, 0, 65, 0
1, 174720, Tempo, 533760
1, 174720, Note_on_c, 0, 95, 85
1, 174720, Note_on_c, 0, 89, 76
1, 174720, Note_on_c, 0, 73, 65
1, 174720, Note_on_c, 0, 79, 65
1, 174840, Note_on_c, 0, 79, 0
1, 174840, Note_on_c, 0, 95, 0
1, 174840, Note_on_c, 0, 89, 0
1, 174840, Note_on_c, 0, 73, 0
1, 174960, Tempo, 546548
1, 174960, Note_on_c, 0, 89, 82
1, 174960, Note_on_c, 0, 83, 73
1, 174960, Note_on_c, 0, 65, 47
1, 174960, Note_on_c, 0, 73, 55
1, 175080, Note_on_c, 0, 73, 0
1, 175080, Note_on_c, 0, 89, 0
1, 175080, Note_on_c, 0, 83, 0
1, 175080, Note_on_c, 0, 65, 0
1, 175200, Note_on_c, 0, 95, 85
1, 175200, Note_on_c, 0, 89, 76
1, 175200, Note_on_c, 0, 73, 56
1, 175200, Note_on_c, 0, 79, 56
1, 175320, Note_on_c, 0, 79, 0
1, 175320, Note_on_c, 0, 95, 0
1, 175320, Note_on_c, 0, 89, 0
1, 175320, Note_on_c, 0, 73, 0
1, 175440, Note_on_c, 0, 89, 82
1, 175440, Note_on_c, 0, 83, 73
1, 175440, Note_on_c, 0, 65, 47
1, 175440, Note_on_c, 0, 73, 55
1, 175560, Note_on_c, 0, 73, 0
1, 175560, Note_on_c, 0, 89, 0
1, 175560, Note_on_c, 0, 83, 0
1, 175560, Note_on_c, 0, 65, 0
1, 175680, Tempo, 549199
1, 175680, Note_on_c, 0, 89, 76
1, 175680, Note_on_c, 0, 96, 78
1, 175680, Note_on_c, 0, 101, 90
1, 175680, Control_c, 0, 64, 0
1, 175680, Note_on_c, 0, 41, 69
1, 175680, Note_on_c, 0, 48, 69
1, 175680, Note_on_c, 0, 57, 69
1, 175712, Control_c, 0, 64, 127
1, 175740, Note_on_c, 0, 101, 0
1, 175740, Note_on_c, 0, 89, 0
1, 175740, Note_on_c, 0, 96, 0
1, 175786, Control_c, 0, 64, 0
1, 175800, Tempo, 509338
1, 175800, Note_on_c, 0, 41, 0
1, 175800, Note_on_c, 0, 48, 0
1, 175800, Note_on_c, 0, 57, 0
1, 175800, Note_on_c, 0, 91, 69
1, 175850, Control_c, 0, 64, 127
1, 175860, Note_on_c, 0, 91, 0
1, 175860, Note_on_c, 0, 93, 70
1, 175920, Tempo, 490477
1, 175920, Note_on_c, 0, 93, 0
1, 175920, Note_on_c, 0, 91, 75
1, 176040, Tempo, 506971
1, 176040, Note_on_c, 0, 91, 0
1, 176040, Note_on_c, 0, 89, 68
1, 176160, Note_on_c, 0, 89, 0
1, 176160, Note_on_c, 0, 86, 72
1, 176280, Tempo, 522011
1, 176280, Note_on_c, 0, 86, 0
1, 176280, Note_on_c, 0, 84, 63
1, 176400, Tempo, 549199
1, 176400, Note_on_c, 0, 84, 0
1, 176400, Control_c, 0, 64, 0
1, 176400, Note_on_c, 0, 81, 68
1, 176432, Control_c, 0, 64, 127
1, 176478, Control_c, 0, 64, 0
1, 176520, Tempo, 509338
1, 176520, Note_on_c, 0, 79, 62
1, 176566, Control_c, 0, 64, 127
1, 176580, Note_on_c, 0, 79, 0
1, 176580, Note_on_c, 0, 81, 63
1, 176640, Tempo, 490477
1, 176640, Note_on_c, 0, 81, 0
1, 176640, Note_on_c, 0, 81, 0
1, 176640, Note_on_c, 0, 79, 69
1, 176760, Tempo, 506971
1, 176760, Note_on_c, 0, 79, 0
1, 176760, Note_on_c, 0, 77, 68
1, 176880, Note_on_c, 0, 77, 0
1, 176880, Note_on_c, 0, 74, 72
1, 177000, Tempo, 522011
1, 177000, Note_on_c, 0, 74, 0
1, 177000, Note_on_c, 0, 72, 63
1, 177120, Tempo, 549199
1, 177120, Note_on_c, 0, 72, 0
1, 177120, Note_on_c, 0, 69, 68
1, 177133, Control_c, 0, 64, 0
1, 177166, Control_c, 0, 64, 127
1, 177236, Control_c, 0, 64, 0
1, 177240, Tempo, 509338
1, 177240, Note_on_c, 0, 67, 62
1, 177276, Control_c, 0, 64, 127
1, 177300, Note_on_c, 0, 67, 0
1, 177300, Note_on_c, 0, 69, 63
1, 177360, Tempo, 490477
1, 177360, Note_on_c, 0, 69, 0
1, 177360, Note_on_c, 0, 69, 0
1, 177360, Note_on_c, 0, 67, 69
1, 177480, Tempo, 506971
1, 177480, Note_on_c, 0, 67, 0
1, 177480, Note_on_c, 0, 65, 68
1, 177600, Note_on_c, 0, 65, 0
1, 177600, Note_on_c, 0, 62, 72
1, 177720, Tempo, 522011
1, 177720, Note_on_c, 0, 62, 0
1, 177720, Note_on_c, 0, 60, 63
1, 177840, Tempo, 549199
1, 177840, Note_on_c, 0, 60, 0
1, 177840, Control_c, 0, 64, 0
1, 177840, Note_on_c, 0, 57, 68
1, 177886, Control_c, 0, 64, 127
1, 177935, Control_c, 0, 64, 0
1, 177960, Tempo, 524567
1, 177960, Note_on_c, 0, 57, 0
1, 177960, Note_on_c, 0, 55, 63
1, 178010, Control_c, 0, 64, 127
1, 178020, Note_on_c, 0, 55, 0
1, 178020, Note_on_c, 0, 57, 63
1, 178080, Tempo, 538020
1, 178080, Note_on_c, 0, 57, 0
1, 178080, Note_on_c, 0, 55, 70
1, 178200, Tempo, 552029
1, 178200, Note_on_c, 0, 55, 0
1, 178200, Note_on_c, 0, 53, 67
1, 178320, Tempo, 592417
1, 178320, Note_on_c, 0, 53, 0
1, 178320, Note_on_c, 0, 48, 73
1, 178440, Tempo, 659123
1, 178440, Note_on_c, 0, 48, 0
1, 178440, Note_on_c, 0, 45, 63
1, 178560, Tempo, 592183
1, 178560, Note_on_c, 0, 45, 0
1, 178560, Note_on_c, 0, 41, 76
1, 178564, Control_c, 0, 64, 0
1, 178627, Control_c, 0, 64, 127
1, 178680, Tempo, 562799
1, 179157, Control_c, 0, 64, 0
1, 179180, Tempo, 435603
1, 179190, Note_on_c, 0, 46, 57
1, 179205, Note_on_c, 0, 53, 57
1, 179220, Control_c, 0, 64, 127
1, 179220, Note_on_c, 0, 61, 57
1, 179235, Note_on_c, 0, 65, 68
1, 179250, Note_on_c, 0, 70, 74
1, 179265, Note_on_c, 0, 73, 79
1, 179280, Tempo, 531208
1, 179280, Note_on_c, 0, 41, 0
1, 179280, Note_on_c, 0, 77, 87
1, 180000, Tempo, 546548
1, 180000, Note_on_c, 0, 77, 0
1, 180000, Note_on_c, 0, 73, 0
1, 180000, Note_on_c, 0, 53, 0
1, 180000, Note_on_c, 0, 61, 0
1, 180000, Note_on_c, 0, 46, 0
1, 180000, Note_on_c, 0, 70, 0
1, 180000, Note_on_c, 0, 65, 0
1, 180000, Note_on_c, 0, 89, 101
1, 180000, Note_on_c, 0, 84, 85
1, 180000, Note_on_c, 0, 81, 85
1, 180000, Note_on_c, 0, 77, 85
1, 180000, Control_c, 0, 64, 0
1, 180000, Note_on_c, 0, 41, 71
1, 180000, Note_on_c, 0, 48, 71
1, 180000, Note_on_c, 0, 57, 84
1, 180147, Control_c, 0, 64, 127
1, 180720, Note_on_c, 0, 57, 0
1, 180720, Note_on_c, 0, 41, 0
1, 180720, Note_on_c, 0, 84, 0
1, 180720, Note_on_c, 0, 81, 0
1, 180720, Note_on_c, 0, 89, 0
1, 180720, Note_on_c, 0, 48, 0
1, 180720, Note_on_c, 0, 77, 0
1, 180720, Control_c, 0, 64, 0
1, 180960, Note_on_c, 0, 93, 107
1, 180960, Note_on_c, 0, 89, 107
1, 180960, Note_on_c, 0, 84, 91
1, 180960, Note_on_c, 0, 81, 91
1, 180960, Note_on_c, 0, 65, 74
1, 180960, Note_on_c, 0, 72, 74
1, 180960, Note_on_c, 0, 77, 74
1, 181080, Note_on_c, 0, 77, 0
1, 181080, Note_on_c, 0, 65, 0
1, 181080, Note_on_c, 0, 89, 0
1, 181080, Note_on_c, 0, 84, 0
1, 181080, Note_on_c, 0, 93, 0
1, 181080, Note_on_c, 0, 72, 0
1, 181080, Note_on_c, 0, 81, 0
1, 181186, Control_c, 0, 64, 127
1, 181200, Tempo, 947568
1, 181200, Note_on_c, 0, 53, 107
1, 181200, Note_on_c, 0, 29, 74
1, 181200, Note_on_c, 0, 41, 88
1, 181440, Tempo, 609137
1, 181440, Note_on_c, 0, 41, 0
1, 181440, Note_on_c, 0, 29, 0
1, 181440, Note_on_c, 0, 53, 0
1, 182160, Tempo, 547945
1, 182774, Control_c, 0, 64, 0
1, 182774, End_track
0, 0, End_of_file
