0, 0, Header, 1, 2, 480
1, 0, Start_track
1, 0, Title_t, "Close Encounters"
1, 0, Text_t, "Sample for MIDIcsv Distribution"
1, 0, Copyright_t, "This file is in the public domain"
1, 0, Time_signature, 4, 2, 24, 8
1, 0, Tempo, 500000
1, 0, End_track
2, 0, Start_track
2, 0, Instrument_name_t, "Church Organ"
2, 0, Program_c, 1, 19
2, 2160, Note_on_c, 1, 60, 35
2, 2160, Note_on_c, 1, 36, 27
2, 2760, Note_on_c, 1, 36, 0
2, 2760, Note_on_c, 1, 60, 0
2, 2760, Note_on_c, 1, 56, 31
2, 2760, Note_on_c, 1, 32, 25
2, 2880, Note_on_c, 1, 32, 0
2, 2880, Note_on_c, 1, 56, 0
2, 2880, Note_on_c, 1, 53, 28
2, 2880, Note_on_c, 1, 29, 22
2, 5040, Note_on_c, 1, 29, 0
2, 5040, Note_on_c, 1, 53, 0
2, 5040, Note_on_c, 1, 56, 35
2, 5040, Note_on_c, 1, 32, 27
2, 5640, Note_on_c, 1, 32, 0
2, 5640, Note_on_c, 1, 56, 0
2, 5640, Note_on_c, 1, 60, 30
2, 5640, Note_on_c, 1, 36, 24
2, 5760, Note_on_c, 1, 36, 0
2, 5760, Note_on_c, 1, 60, 0
2, 5760, Note_on_c, 1, 65, 35
2, 5760, Note_on_c, 1, 41, 27
2, 6480, Note_on_c, 1, 41, 0
2, 6480, Note_on_c, 1, 65, 0
2, 6480, Note_on_c, 1, 68, 35
2, 6480, Note_on_c, 1, 44, 27
2, 7080, Note_on_c, 1, 44, 0
2, 7080, Note_on_c, 1, 68, 0
2, 7080, Note_on_c, 1, 72, 30
2, 7080, Note_on_c, 1, 48, 24
2, 7200, Note_on_c, 1, 48, 0
2, 7200, Note_on_c, 1, 72, 0
2, 7200, Note_on_c, 1, 77, 35
2, 7200, Note_on_c, 1, 53, 27
2, 7910, Note_on_c, 1, 53, 0
2, 7910, Note_on_c, 1, 77, 0
2, 7920, Note_on_c, 1, 65, 33
2, 7920, Note_on_c, 1, 56, 26
2, 8640, Note_on_c, 1, 56, 0
2, 8640, Note_on_c, 1, 65, 0
2, 8640, Note_on_c, 1, 72, 35
2, 8640, Note_on_c, 1, 55, 26
2, 8640, Note_on_c, 1, 60, 26
2, 8640, Note_on_c, 1, 52, 26
2, 9840, Note_on_c, 1, 72, 0
2, 9840, Note_on_c, 1, 74, 33
2, 10020, Note_on_c, 1, 74, 0
2, 10020, Note_on_c, 1, 72, 31
2, 10080, Note_on_c, 1, 72, 0
2, 10080, Note_on_c, 1, 55, 0
2, 10080, Note_on_c, 1, 60, 0
2, 10080, Note_on_c, 1, 52, 0
2, 10080, Note_on_c, 1, 74, 32
2, 10080, Note_on_c, 1, 53, 26
2, 10080, Note_on_c, 1, 59, 26
2, 10080, Note_on_c, 1, 56, 26
2, 10160, Note_on_c, 1, 74, 0
2, 10160, Note_on_c, 1, 76, 28
2, 10240, Note_on_c, 1, 76, 0
2, 10240, Note_on_c, 1, 74, 32
2, 10320, Note_on_c, 1, 74, 0
2, 10320, Note_on_c, 1, 76, 28
2, 10400, Note_on_c, 1, 76, 0
2, 10400, Note_on_c, 1, 74, 32
2, 10480, Note_on_c, 1, 74, 0
2, 10480, Note_on_c, 1, 76, 29
2, 10560, Note_on_c, 1, 76, 0
2, 10560, Note_on_c, 1, 74, 32
2, 10640, Note_on_c, 1, 74, 0
2, 10640, Note_on_c, 1, 76, 28
2, 10720, Note_on_c, 1, 76, 0
2, 10720, Note_on_c, 1, 74, 31
2, 10800, Note_on_c, 1, 74, 0
2, 10800, Note_on_c, 1, 76, 29
2, 10880, Note_on_c, 1, 76, 0
2, 10880, Note_on_c, 1, 74, 27
2, 10960, Note_on_c, 1, 74, 0
2, 10960, Note_on_c, 1, 76, 32
2, 11040, Note_on_c, 1, 76, 0
2, 11040, Note_on_c, 1, 74, 27
2, 11160, Note_on_c, 1, 74, 0
2, 11160, Note_on_c, 1, 72, 28
2, 11280, Note_on_c, 1, 72, 0
2, 11280, Note_on_c, 1, 76, 31
2, 11400, Note_on_c, 1, 76, 0
2, 11400, Note_on_c, 1, 74, 28
2, 11520, Note_on_c, 1, 74, 0
2, 11520, Note_on_c, 1, 56, 0
2, 11520, Note_on_c, 1, 59, 0
2, 11520, Note_on_c, 1, 53, 0
2, 11520, Note_on_c, 1, 72, 35
2, 11520, Note_on_c, 1, 55, 22
2, 11520, Note_on_c, 1, 52, 19
2, 11520, Note_on_c, 1, 60, 26
2, 12000, Note_on_c, 1, 60, 0
2, 12000, Note_on_c, 1, 72, 0
2, 12000, Note_on_c, 1, 55, 0
2, 12000, Note_on_c, 1, 52, 0
2, 13680, Note_on_c, 1, 61, 35
2, 13680, Note_on_c, 1, 37, 27
2, 14280, Note_on_c, 1, 37, 0
2, 14280, Note_on_c, 1, 61, 0
2, 14280, Note_on_c, 1, 58, 31
2, 14280, Note_on_c, 1, 34, 25
2, 14400, Note_on_c, 1, 34, 0
2, 14400, Note_on_c, 1, 58, 0
2, 14400, Note_on_c, 1, 54, 28
2, 14400, Note_on_c, 1, 30, 22
2, 16560, Note_on_c, 1, 30, 0
2, 16560, Note_on_c, 1, 54, 0
2, 16560, Note_on_c, 1, 58, 35
2, 16560, Note_on_c, 1, 34, 27
2, 17160, Note_on_c, 1, 34, 0
2, 17160, Note_on_c, 1, 58, 0
2, 17160, Note_on_c, 1, 61, 30
2, 17160, Note_on_c, 1, 37, 24
2, 17280, Note_on_c, 1, 37, 0
2, 17280, Note_on_c, 1, 61, 0
2, 17280, Note_on_c, 1, 66, 35
2, 17280, Note_on_c, 1, 42, 27
2, 18000, Note_on_c, 1, 42, 0
2, 18000, Note_on_c, 1, 66, 0
2, 18000, Note_on_c, 1, 70, 35
2, 18000, Note_on_c, 1, 46, 27
2, 18600, Note_on_c, 1, 46, 0
2, 18600, Note_on_c, 1, 70, 0
2, 18600, Note_on_c, 1, 73, 30
2, 18600, Note_on_c, 1, 49, 24
2, 18720, Note_on_c, 1, 49, 0
2, 18720, Note_on_c, 1, 73, 0
2, 18720, Note_on_c, 1, 78, 34
2, 18720, Note_on_c, 1, 54, 29
2, 19440, Note_on_c, 1, 54, 0
2, 19440, Note_on_c, 1, 78, 0
2, 19440, Note_on_c, 1, 66, 33
2, 19440, Note_on_c, 1, 58, 26
2, 20160, Note_on_c, 1, 58, 0
2, 20160, Note_on_c, 1, 66, 0
2, 20160, Note_on_c, 1, 73, 35
2, 20160, Note_on_c, 1, 53, 26
2, 20160, Note_on_c, 1, 61, 26
2, 20160, Note_on_c, 1, 56, 26
2, 21360, Note_on_c, 1, 73, 0
2, 21360, Note_on_c, 1, 75, 32
2, 21540, Note_on_c, 1, 75, 0
2, 21540, Note_on_c, 1, 73, 31
2, 21600, Note_on_c, 1, 73, 0
2, 21600, Note_on_c, 1, 53, 0
2, 21600, Note_on_c, 1, 61, 0
2, 21600, Note_on_c, 1, 56, 0
2, 21600, Note_on_c, 1, 75, 30
2, 21600, Note_on_c, 1, 57, 26
2, 21600, Note_on_c, 1, 60, 26
2, 21600, Note_on_c, 1, 54, 26
2, 21680, Note_on_c, 1, 75, 0
2, 21680, Note_on_c, 1, 77, 27
2, 21760, Note_on_c, 1, 77, 0
2, 21760, Note_on_c, 1, 75, 30
2, 21840, Note_on_c, 1, 75, 0
2, 21840, Note_on_c, 1, 77, 27
2, 21920, Note_on_c, 1, 77, 0
2, 21920, Note_on_c, 1, 75, 30
2, 22000, Note_on_c, 1, 75, 0
2, 22000, Note_on_c, 1, 77, 27
2, 22080, Note_on_c, 1, 77, 0
2, 22080, Note_on_c, 1, 75, 29
2, 22160, Note_on_c, 1, 75, 0
2, 22160, Note_on_c, 1, 77, 27
2, 22240, Note_on_c, 1, 77, 0
2, 22240, Note_on_c, 1, 75, 29
2, 22320, Note_on_c, 1, 75, 0
2, 22320, Note_on_c, 1, 77, 28
2, 22400, Note_on_c, 1, 77, 0
2, 22400, Note_on_c, 1, 75, 30
2, 22480, Note_on_c, 1, 75, 0
2, 22480, Note_on_c, 1, 77, 28
2, 22560, Note_on_c, 1, 77, 0
2, 22560, Note_on_c, 1, 75, 26
2, 22680, Note_on_c, 1, 75, 0
2, 22680, Note_on_c, 1, 73, 28
2, 22800, Note_on_c, 1, 73, 0
2, 22800, Note_on_c, 1, 77, 31
2, 22920, Note_on_c, 1, 77, 0
2, 22920, Note_on_c, 1, 75, 29
2, 23040, Note_on_c, 1, 75, 0
2, 23040, Note_on_c, 1, 54, 0
2, 23040, Note_on_c, 1, 60, 0
2, 23040, Note_on_c, 1, 57, 0
2, 23040, Note_on_c, 1, 73, 35
2, 23040, Note_on_c, 1, 53, 19
2, 23040, Note_on_c, 1, 56, 22
2, 23040, Note_on_c, 1, 61, 26
2, 23520, Note_on_c, 1, 61, 0
2, 23520, Note_on_c, 1, 73, 0
2, 23520, Note_on_c, 1, 53, 0
2, 23520, Note_on_c, 1, 56, 0
2, 25920, Note_on_c, 1, 72, 35
2, 25920, Note_on_c, 1, 67, 26
2, 25920, Note_on_c, 1, 64, 26
2, 27120, Note_on_c, 1, 72, 0
2, 27120, Note_on_c, 1, 74, 42
2, 27300, Note_on_c, 1, 74, 0
2, 27300, Note_on_c, 1, 72, 38
2, 27360, Note_on_c, 1, 72, 0
2, 27360, Note_on_c, 1, 64, 0
2, 27360, Note_on_c, 1, 67, 0
2, 27360, Note_on_c, 1, 74, 43
2, 27360, Note_on_c, 1, 68, 26
2, 27360, Note_on_c, 1, 71, 26
2, 27360, Note_on_c, 1, 65, 26
2, 27440, Note_on_c, 1, 74, 0
2, 27440, Note_on_c, 1, 76, 35
2, 27520, Note_on_c, 1, 76, 0
2, 27520, Note_on_c, 1, 74, 40
2, 27600, Note_on_c, 1, 74, 0
2, 27600, Note_on_c, 1, 76, 36
2, 27680, Note_on_c, 1, 76, 0
2, 27680, Note_on_c, 1, 74, 39
2, 27760, Note_on_c, 1, 74, 0
2, 27760, Note_on_c, 1, 76, 36
2, 27840, Note_on_c, 1, 76, 0
2, 27840, Note_on_c, 1, 74, 41
2, 27920, Note_on_c, 1, 74, 0
2, 27920, Note_on_c, 1, 76, 37
2, 28000, Note_on_c, 1, 76, 0
2, 28000, Note_on_c, 1, 74, 40
2, 28080, Note_on_c, 1, 74, 0
2, 28080, Note_on_c, 1, 76, 35
2, 28160, Note_on_c, 1, 76, 0
2, 28160, Note_on_c, 1, 74, 31
2, 28240, Note_on_c, 1, 74, 0
2, 28240, Note_on_c, 1, 76, 37
2, 28320, Note_on_c, 1, 76, 0
2, 28320, Note_on_c, 1, 74, 33
2, 28440, Note_on_c, 1, 74, 0
2, 28440, Note_on_c, 1, 72, 33
2, 28560, Note_on_c, 1, 72, 0
2, 28560, Note_on_c, 1, 76, 37
2, 28680, Note_on_c, 1, 76, 0
2, 28680, Note_on_c, 1, 74, 33
2, 28800, Note_on_c, 1, 74, 0
2, 28800, Note_on_c, 1, 65, 0
2, 28800, Note_on_c, 1, 71, 0
2, 28800, Note_on_c, 1, 68, 0
2, 28800, Note_on_c, 1, 72, 35
2, 28800, Note_on_c, 1, 64, 22
2, 28800, Note_on_c, 1, 67, 26
2, 29280, Note_on_c, 1, 67, 0
2, 29280, Note_on_c, 1, 64, 0
2, 29280, Note_on_c, 1, 72, 0
2, 29520, Note_on_c, 1, 37, 27
2, 29640, Note_on_c, 1, 37, 0
2, 29760, Note_on_c, 1, 37, 26
2, 29880, Note_on_c, 1, 37, 0
2, 30000, Note_on_c, 1, 37, 26
2, 30120, Note_on_c, 1, 37, 0
2, 30240, Note_on_c, 1, 36, 26
2, 30480, Note_on_c, 1, 36, 0
2, 31680, Note_on_c, 1, 76, 35
2, 31680, Note_on_c, 1, 67, 26
2, 31680, Note_on_c, 1, 73, 26
2, 31680, Note_on_c, 1, 70, 26
2, 32880, Note_on_c, 1, 76, 0
2, 32880, Note_on_c, 1, 77, 38
2, 33120, Note_on_c, 1, 77, 0
2, 33120, Note_on_c, 1, 70, 0
2, 33120, Note_on_c, 1, 73, 0
2, 33120, Note_on_c, 1, 67, 0
2, 33120, Note_on_c, 1, 77, 39
2, 33120, Note_on_c, 1, 70, 26
2, 33120, Note_on_c, 1, 73, 26
2, 33120, Note_on_c, 1, 68, 26
2, 33200, Note_on_c, 1, 77, 0
2, 33200, Note_on_c, 1, 79, 34
2, 33280, Note_on_c, 1, 79, 0
2, 33280, Note_on_c, 1, 77, 39
2, 33360, Note_on_c, 1, 77, 0
2, 33360, Note_on_c, 1, 79, 35
2, 33440, Note_on_c, 1, 79, 0
2, 33440, Note_on_c, 1, 77, 39
2, 33520, Note_on_c, 1, 77, 0
2, 33520, Note_on_c, 1, 79, 35
2, 33600, Note_on_c, 1, 79, 0
2, 33600, Note_on_c, 1, 77, 39
2, 33680, Note_on_c, 1, 77, 0
2, 33680, Note_on_c, 1, 79, 35
2, 33760, Note_on_c, 1, 79, 0
2, 33760, Note_on_c, 1, 77, 39
2, 33840, Note_on_c, 1, 77, 0
2, 33840, Note_on_c, 1, 79, 36
2, 33920, Note_on_c, 1, 79, 0
2, 33920, Note_on_c, 1, 77, 33
2, 34000, Note_on_c, 1, 77, 0
2, 34000, Note_on_c, 1, 79, 39
2, 34080, Note_on_c, 1, 79, 0
2, 34080, Note_on_c, 1, 77, 33
2, 34200, Note_on_c, 1, 77, 0
2, 34200, Note_on_c, 1, 76, 34
2, 34320, Note_on_c, 1, 76, 0
2, 34320, Note_on_c, 1, 79, 40
2, 34440, Note_on_c, 1, 79, 0
2, 34440, Note_on_c, 1, 77, 35
2, 34560, Note_on_c, 1, 77, 0
2, 34560, Note_on_c, 1, 68, 0
2, 34560, Note_on_c, 1, 73, 0
2, 34560, Note_on_c, 1, 70, 0
2, 34560, Note_on_c, 1, 76, 35
2, 34560, Note_on_c, 1, 67, 22
2, 34560, Note_on_c, 1, 70, 22
2, 34560, Note_on_c, 1, 73, 26
2, 35040, Note_on_c, 1, 73, 0
2, 35040, Note_on_c, 1, 76, 0
2, 35040, Note_on_c, 1, 67, 0
2, 35040, Note_on_c, 1, 70, 0
2, 35280, Note_on_c, 1, 37, 27
2, 35400, Note_on_c, 1, 37, 0
2, 35520, Note_on_c, 1, 37, 26
2, 35640, Note_on_c, 1, 37, 0
2, 35760, Note_on_c, 1, 37, 26
2, 35880, Note_on_c, 1, 37, 0
2, 36000, Note_on_c, 1, 36, 26
2, 36240, Note_on_c, 1, 36, 0
2, 36720, Note_on_c, 1, 76, 35
2, 36720, Note_on_c, 1, 79, 35
2, 36960, Note_on_c, 1, 79, 0
2, 36960, Note_on_c, 1, 76, 0
2, 36960, Note_on_c, 1, 79, 31
2, 36960, Note_on_c, 1, 76, 31
2, 37200, Note_on_c, 1, 76, 0
2, 37200, Note_on_c, 1, 79, 0
2, 37200, Note_on_c, 1, 76, 35
2, 37200, Note_on_c, 1, 79, 35
2, 37440, Note_on_c, 1, 79, 0
2, 37440, Note_on_c, 1, 76, 0
2, 37440, Note_on_c, 1, 79, 35
2, 37440, Note_on_c, 1, 82, 35
2, 37920, Note_on_c, 1, 82, 0
2, 37920, Note_on_c, 1, 79, 0
2, 38160, Note_on_c, 1, 37, 27
2, 38400, Note_on_c, 1, 37, 0
2, 38400, Note_on_c, 1, 37, 26
2, 38640, Note_on_c, 1, 37, 0
2, 38640, Note_on_c, 1, 37, 26
2, 38880, Note_on_c, 1, 37, 0
2, 38880, Note_on_c, 1, 36, 26
2, 39360, Note_on_c, 1, 36, 0
2, 39600, Note_on_c, 1, 82, 83
2, 39600, Note_on_c, 1, 79, 83
2, 39840, Note_on_c, 1, 79, 0
2, 39840, Note_on_c, 1, 82, 0
2, 39840, Note_on_c, 1, 82, 77
2, 39840, Note_on_c, 1, 79, 77
2, 40080, Note_on_c, 1, 79, 0
2, 40080, Note_on_c, 1, 82, 0
2, 40080, Note_on_c, 1, 79, 83
2, 40080, Note_on_c, 1, 82, 83
2, 40320, Note_on_c, 1, 82, 0
2, 40320, Note_on_c, 1, 79, 0
2, 40320, Note_on_c, 1, 88, 85
2, 40440, Note_on_c, 1, 88, 0
2, 40440, Note_on_c, 1, 82, 76
2, 40560, Note_on_c, 1, 82, 0
2, 40560, Note_on_c, 1, 91, 85
2, 40680, Note_on_c, 1, 91, 0
2, 40680, Note_on_c, 1, 88, 75
2, 40800, Note_on_c, 1, 88, 0
2, 40800, Note_on_c, 1, 94, 85
2, 40920, Note_on_c, 1, 94, 0
2, 40920, Note_on_c, 1, 91, 76
2, 41040, Note_on_c, 1, 91, 0
2, 41040, Note_on_c, 1, 88, 85
2, 41160, Note_on_c, 1, 88, 0
2, 41160, Note_on_c, 1, 91, 76
2, 41280, Note_on_c, 1, 91, 0
2, 41280, Note_on_c, 1, 82, 83
2, 41400, Note_on_c, 1, 82, 0
2, 41400, Note_on_c, 1, 88, 75
2, 41520, Note_on_c, 1, 88, 0
2, 41520, Note_on_c, 1, 79, 83
2, 41640, Note_on_c, 1, 79, 0
2, 41640, Note_on_c, 1, 82, 74
2, 41760, Note_on_c, 1, 82, 0
2, 41760, Note_on_c, 1, 76, 81
2, 41880, Note_on_c, 1, 76, 0
2, 41880, Note_on_c, 1, 79, 74
2, 42000, Note_on_c, 1, 79, 0
2, 42000, Note_on_c, 1, 70, 81
2, 42120, Note_on_c, 1, 70, 0
2, 42120, Note_on_c, 1, 76, 71
2, 42240, Note_on_c, 1, 76, 0
2, 42240, Note_on_c, 1, 67, 80
2, 42360, Note_on_c, 1, 67, 0
2, 42360, Note_on_c, 1, 70, 73
2, 42480, Note_on_c, 1, 70, 0
2, 42480, Note_on_c, 1, 64, 80
2, 42600, Note_on_c, 1, 64, 0
2, 42600, Note_on_c, 1, 67, 70
2, 42720, Note_on_c, 1, 67, 0
2, 42720, Note_on_c, 1, 58, 79
2, 42840, Note_on_c, 1, 58, 0
2, 42840, Note_on_c, 1, 64, 71
2, 42960, Note_on_c, 1, 64, 0
2, 42960, Note_on_c, 1, 55, 75
2, 43080, Note_on_c, 1, 55, 0
2, 43080, Note_on_c, 1, 58, 63
2, 43200, Note_on_c, 1, 58, 0
2, 43200, Note_on_c, 1, 52, 75
2, 43320, Note_on_c, 1, 52, 0
2, 43320, Note_on_c, 1, 55, 64
2, 43440, Note_on_c, 1, 55, 0
2, 43440, Note_on_c, 1, 46, 75
2, 43560, Note_on_c, 1, 46, 0
2, 43560, Note_on_c, 1, 52, 60
2, 43680, Note_on_c, 1, 52, 0
2, 43680, Note_on_c, 1, 31, 73
2, 43800, Note_on_c, 1, 31, 0
2, 43800, Note_on_c, 1, 34, 67
2, 43920, Note_on_c, 1, 34, 0
2, 43920, Note_on_c, 1, 40, 77
2, 44040, Note_on_c, 1, 40, 0
2, 44040, Note_on_c, 1, 43, 67
2, 44160, Note_on_c, 1, 43, 0
2, 44160, Note_on_c, 1, 46, 77
2, 44280, Note_on_c, 1, 46, 0
2, 44280, Note_on_c, 1, 49, 67
2, 44400, Note_on_c, 1, 49, 0
2, 44400, Note_on_c, 1, 52, 82
2, 44520, Note_on_c, 1, 52, 0
2, 44520, Note_on_c, 1, 55, 73
2, 44640, Note_on_c, 1, 55, 0
2, 44640, Note_on_c, 1, 58, 89
2, 44880, Note_on_c, 1, 58, 0
2, 45360, Note_on_c, 1, 41, 72
2, 45360, Note_on_c, 1, 29, 72
2, 45360, Note_on_c, 1, 56, 86
2, 45360, Note_on_c, 1, 61, 86
2, 45360, Note_on_c, 1, 49, 86
2, 45600, Note_on_c, 1, 49, 0
2, 45600, Note_on_c, 1, 56, 0
2, 45600, Note_on_c, 1, 41, 0
2, 45600, Note_on_c, 1, 29, 0
2, 45600, Note_on_c, 1, 61, 0
2, 46080, Note_on_c, 1, 40, 40
2, 46080, Note_on_c, 1, 52, 48
2, 46080, Note_on_c, 1, 48, 40
2, 46080, Note_on_c, 1, 60, 48
2, 46080, Note_on_c, 1, 55, 48
2, 48180, Note_on_c, 1, 55, 0
2, 48180, Note_on_c, 1, 48, 0
2, 48180, Note_on_c, 1, 40, 0
2, 48180, Note_on_c, 1, 52, 0
2, 48180, Note_on_c, 1, 60, 0
2, 48240, Note_on_c, 1, 60, 35
2, 48240, Note_on_c, 1, 36, 27
2, 48840, Note_on_c, 1, 36, 0
2, 48840, Note_on_c, 1, 60, 0
2, 48840, Note_on_c, 1, 56, 31
2, 48840, Note_on_c, 1, 32, 25
2, 48960, Note_on_c, 1, 32, 0
2, 48960, Note_on_c, 1, 56, 0
2, 48960, Note_on_c, 1, 53, 103
2, 48960, Note_on_c, 1, 29, 81
2, 49200, Note_on_c, 1, 29, 0
2, 49200, Note_on_c, 1, 53, 0
2, 49200, Note_on_c, 1, 60, 85
2, 49200, Note_on_c, 1, 65, 101
2, 49200, Note_on_c, 1, 56, 75
2, 49200, Note_on_c, 1, 53, 75
2, 49440, Note_on_c, 1, 32, 61
2, 49440, Note_on_c, 1, 29, 61
2, 49440, Note_on_c, 1, 41, 81
2, 49440, Note_on_c, 1, 36, 69
2, 49675, Note_on_c, 1, 53, 0
2, 49675, Note_on_c, 1, 56, 0
2, 49675, Note_on_c, 1, 60, 0
2, 49675, Note_on_c, 1, 65, 0
2, 49680, Note_on_c, 1, 60, 72
2, 49680, Note_on_c, 1, 56, 72
2, 49680, Note_on_c, 1, 65, 81
2, 49680, Note_on_c, 1, 68, 96
2, 49915, Note_on_c, 1, 32, 0
2, 49915, Note_on_c, 1, 41, 0
2, 49915, Note_on_c, 1, 36, 0
2, 49915, Note_on_c, 1, 29, 0
2, 49920, Note_on_c, 1, 32, 57
2, 49920, Note_on_c, 1, 36, 64
2, 49920, Note_on_c, 1, 41, 76
2, 49920, Note_on_c, 1, 29, 57
2, 50155, Note_on_c, 1, 60, 0
2, 50155, Note_on_c, 1, 65, 0
2, 50155, Note_on_c, 1, 68, 0
2, 50155, Note_on_c, 1, 56, 0
2, 50160, Note_on_c, 1, 60, 71
2, 50160, Note_on_c, 1, 72, 96
2, 50160, Note_on_c, 1, 65, 71
2, 50160, Note_on_c, 1, 68, 79
2, 50395, Note_on_c, 1, 32, 0
2, 50395, Note_on_c, 1, 41, 0
2, 50395, Note_on_c, 1, 29, 0
2, 50395, Note_on_c, 1, 36, 0
2, 50400, Note_on_c, 1, 32, 55
2, 50400, Note_on_c, 1, 36, 63
2, 50400, Note_on_c, 1, 41, 73
2, 50400, Note_on_c, 1, 29, 55
2, 50635, Note_on_c, 1, 60, 0
2, 50635, Note_on_c, 1, 65, 0
2, 50635, Note_on_c, 1, 68, 0
2, 50635, Note_on_c, 1, 72, 0
2, 50640, Note_on_c, 1, 72, 80
2, 50640, Note_on_c, 1, 77, 95
2, 50640, Note_on_c, 1, 65, 72
2, 50640, Note_on_c, 1, 68, 72
2, 50875, Note_on_c, 1, 32, 0
2, 50875, Note_on_c, 1, 41, 0
2, 50875, Note_on_c, 1, 29, 0
2, 50875, Note_on_c, 1, 36, 0
2, 50880, Note_on_c, 1, 32, 61
2, 50880, Note_on_c, 1, 29, 61
2, 50880, Note_on_c, 1, 41, 81
2, 50880, Note_on_c, 1, 36, 69
2, 51115, Note_on_c, 1, 72, 0
2, 51115, Note_on_c, 1, 65, 0
2, 51115, Note_on_c, 1, 68, 0
2, 51115, Note_on_c, 1, 77, 0
2, 51120, Note_on_c, 1, 77, 86
2, 51120, Note_on_c, 1, 68, 76
2, 51120, Note_on_c, 1, 72, 76
2, 51120, Note_on_c, 1, 80, 103
2, 51355, Note_on_c, 1, 32, 0
2, 51355, Note_on_c, 1, 41, 0
2, 51355, Note_on_c, 1, 36, 0
2, 51355, Note_on_c, 1, 29, 0
2, 51360, Note_on_c, 1, 32, 55
2, 51360, Note_on_c, 1, 36, 63
2, 51360, Note_on_c, 1, 41, 73
2, 51360, Note_on_c, 1, 29, 55
2, 51595, Note_on_c, 1, 77, 0
2, 51595, Note_on_c, 1, 72, 0
2, 51595, Note_on_c, 1, 80, 0
2, 51595, Note_on_c, 1, 68, 0
2, 51600, Note_on_c, 1, 77, 78
2, 51600, Note_on_c, 1, 84, 94
2, 51600, Note_on_c, 1, 80, 78
2, 51600, Note_on_c, 1, 72, 71
2, 51835, Note_on_c, 1, 32, 0
2, 51835, Note_on_c, 1, 41, 0
2, 51835, Note_on_c, 1, 29, 0
2, 51835, Note_on_c, 1, 36, 0
2, 51838, Note_on_c, 1, 77, 0
2, 51838, Note_on_c, 1, 72, 0
2, 51838, Note_on_c, 1, 84, 0
2, 51838, Note_on_c, 1, 80, 0
2, 51840, Note_on_c, 1, 89, 103
2, 51840, Note_on_c, 1, 77, 76
2, 51840, Note_on_c, 1, 84, 86
2, 51840, Note_on_c, 1, 80, 86
2, 51840, Note_on_c, 1, 29, 61
2, 51840, Note_on_c, 1, 36, 69
2, 51840, Note_on_c, 1, 41, 81
2, 51840, Note_on_c, 1, 32, 61
2, 54000, Note_on_c, 1, 32, 0
2, 54000, Note_on_c, 1, 89, 0
2, 54000, Note_on_c, 1, 29, 0
2, 54000, Note_on_c, 1, 77, 0
2, 54000, Note_on_c, 1, 84, 0
2, 54000, Note_on_c, 1, 80, 0
2, 54000, Note_on_c, 1, 36, 0
2, 54000, Note_on_c, 1, 41, 0
2, 54000, Note_on_c, 1, 56, 41
2, 54000, Note_on_c, 1, 32, 33
2, 54600, Note_on_c, 1, 32, 0
2, 54600, Note_on_c, 1, 56, 0
2, 54600, Note_on_c, 1, 60, 35
2, 54600, Note_on_c, 1, 36, 28
2, 54720, Note_on_c, 1, 36, 0
2, 54720, Note_on_c, 1, 60, 0
2, 54720, Note_on_c, 1, 65, 39
2, 54720, Note_on_c, 1, 41, 33
2, 55440, Note_on_c, 1, 41, 0
2, 55440, Note_on_c, 1, 65, 0
2, 55440, Note_on_c, 1, 68, 41
2, 55440, Note_on_c, 1, 44, 33
2, 56040, Note_on_c, 1, 44, 0
2, 56040, Note_on_c, 1, 68, 0
2, 56040, Note_on_c, 1, 72, 36
2, 56040, Note_on_c, 1, 48, 28
2, 56160, Note_on_c, 1, 48, 0
2, 56160, Note_on_c, 1, 72, 0
2, 56160, Note_on_c, 1, 77, 39
2, 56160, Note_on_c, 1, 53, 33
2, 56875, Note_on_c, 1, 53, 0
2, 56875, Note_on_c, 1, 77, 0
2, 56880, Note_on_c, 1, 65, 39
2, 56880, Note_on_c, 1, 41, 30
2, 57600, Note_on_c, 1, 41, 0
2, 57600, Note_on_c, 1, 65, 0
2, 57600, Note_on_c, 1, 60, 103
2, 57600, Note_on_c, 1, 55, 81
2, 57600, Note_on_c, 1, 52, 81
2, 57840, Note_on_c, 1, 52, 0
2, 57840, Note_on_c, 1, 55, 0
2, 57840, Note_on_c, 1, 60, 0
2, 57840, Note_on_c, 1, 60, 85
2, 57840, Note_on_c, 1, 64, 101
2, 57840, Note_on_c, 1, 55, 75
2, 58080, Note_on_c, 1, 43, 69
2, 58080, Note_on_c, 1, 48, 81
2, 58080, Note_on_c, 1, 40, 61
2, 58315, Note_on_c, 1, 55, 0
2, 58315, Note_on_c, 1, 60, 0
2, 58315, Note_on_c, 1, 64, 0
2, 58320, Note_on_c, 1, 64, 81
2, 58320, Note_on_c, 1, 67, 96
2, 58320, Note_on_c, 1, 60, 72
2, 58555, Note_on_c, 1, 43, 0
2, 58555, Note_on_c, 1, 40, 0
2, 58555, Note_on_c, 1, 48, 0
2, 58560, Note_on_c, 1, 40, 57
2, 58560, Note_on_c, 1, 48, 76
2, 58560, Note_on_c, 1, 43, 64
2, 58795, Note_on_c, 1, 64, 0
2, 58795, Note_on_c, 1, 60, 0
2, 58795, Note_on_c, 1, 67, 0
2, 58800, Note_on_c, 1, 72, 96
2, 58800, Note_on_c, 1, 64, 71
2, 58800, Note_on_c, 1, 67, 79
2, 59035, Note_on_c, 1, 40, 0
2, 59035, Note_on_c, 1, 43, 0
2, 59035, Note_on_c, 1, 48, 0
2, 59040, Note_on_c, 1, 43, 63
2, 59040, Note_on_c, 1, 40, 55
2, 59040, Note_on_c, 1, 48, 73
2, 59275, Note_on_c, 1, 72, 0
2, 59275, Note_on_c, 1, 67, 0
2, 59275, Note_on_c, 1, 64, 0
2, 59280, Note_on_c, 1, 76, 95
2, 59280, Note_on_c, 1, 67, 72
2, 59280, Note_on_c, 1, 72, 80
2, 59515, Note_on_c, 1, 43, 0
2, 59515, Note_on_c, 1, 48, 0
2, 59515, Note_on_c, 1, 40, 0
2, 59520, Note_on_c, 1, 40, 61
2, 59520, Note_on_c, 1, 48, 81
2, 59520, Note_on_c, 1, 43, 69
2, 59755, Note_on_c, 1, 76, 0
2, 59755, Note_on_c, 1, 72, 0
2, 59755, Note_on_c, 1, 67, 0
2, 59760, Note_on_c, 1, 79, 103
2, 59760, Note_on_c, 1, 72, 76
2, 59760, Note_on_c, 1, 76, 86
2, 59995, Note_on_c, 1, 40, 0
2, 59995, Note_on_c, 1, 43, 0
2, 59995, Note_on_c, 1, 48, 0
2, 60000, Note_on_c, 1, 43, 63
2, 60000, Note_on_c, 1, 48, 73
2, 60000, Note_on_c, 1, 40, 55
2, 60235, Note_on_c, 1, 79, 0
2, 60235, Note_on_c, 1, 76, 0
2, 60235, Note_on_c, 1, 72, 0
2, 60240, Note_on_c, 1, 84, 94
2, 60240, Note_on_c, 1, 76, 78
2, 60240, Note_on_c, 1, 79, 78
2, 60475, Note_on_c, 1, 43, 0
2, 60475, Note_on_c, 1, 40, 0
2, 60475, Note_on_c, 1, 48, 0
2, 60478, Note_on_c, 1, 84, 0
2, 60478, Note_on_c, 1, 76, 0
2, 60478, Note_on_c, 1, 79, 0
2, 60480, Note_on_c, 1, 72, 41
2, 60480, Note_on_c, 1, 67, 30
2, 60480, Note_on_c, 1, 64, 30
2, 61680, Note_on_c, 1, 72, 0
2, 61680, Note_on_c, 1, 74, 45
2, 61920, Note_on_c, 1, 74, 0
2, 61920, Note_on_c, 1, 64, 0
2, 61920, Note_on_c, 1, 67, 0
2, 61920, Note_on_c, 1, 74, 39
2, 61920, Note_on_c, 1, 68, 30
2, 61920, Note_on_c, 1, 71, 30
2, 61920, Note_on_c, 1, 65, 30
2, 62000, Note_on_c, 1, 74, 0
2, 62000, Note_on_c, 1, 76, 35
2, 62080, Note_on_c, 1, 74, 39
2, 62120, Note_on_c, 1, 76, 0
2, 62160, Note_on_c, 1, 74, 0
2, 62160, Note_on_c, 1, 76, 36
2, 62240, Note_on_c, 1, 76, 0
2, 62240, Note_on_c, 1, 74, 38
2, 62320, Note_on_c, 1, 74, 0
2, 62320, Note_on_c, 1, 76, 36
2, 62400, Note_on_c, 1, 76, 0
2, 62400, Note_on_c, 1, 74, 38
2, 62480, Note_on_c, 1, 74, 0
2, 62480, Note_on_c, 1, 76, 36
2, 62560, Note_on_c, 1, 76, 0
2, 62560, Note_on_c, 1, 74, 39
2, 62640, Note_on_c, 1, 74, 0
2, 62640, Note_on_c, 1, 76, 37
2, 62720, Note_on_c, 1, 76, 0
2, 62720, Note_on_c, 1, 74, 35
2, 62800, Note_on_c, 1, 74, 0
2, 62800, Note_on_c, 1, 76, 39
2, 62880, Note_on_c, 1, 76, 0
2, 62880, Note_on_c, 1, 74, 35
2, 63000, Note_on_c, 1, 74, 0
2, 63000, Note_on_c, 1, 72, 36
2, 63120, Note_on_c, 1, 72, 0
2, 63120, Note_on_c, 1, 76, 41
2, 63240, Note_on_c, 1, 76, 0
2, 63240, Note_on_c, 1, 74, 38
2, 63360, Note_on_c, 1, 74, 0
2, 63360, Note_on_c, 1, 68, 0
2, 63360, Note_on_c, 1, 71, 0
2, 63360, Note_on_c, 1, 65, 0
2, 63360, Note_on_c, 1, 60, 103
2, 63360, Note_on_c, 1, 55, 81
2, 63360, Note_on_c, 1, 52, 81
2, 63598, Note_on_c, 1, 52, 0
2, 63598, Note_on_c, 1, 55, 0
2, 63598, Note_on_c, 1, 60, 0
2, 63600, Note_on_c, 1, 60, 85
2, 63600, Note_on_c, 1, 64, 101
2, 63600, Note_on_c, 1, 55, 75
2, 63840, Note_on_c, 1, 43, 69
2, 63840, Note_on_c, 1, 48, 81
2, 63840, Note_on_c, 1, 40, 61
2, 64075, Note_on_c, 1, 55, 0
2, 64075, Note_on_c, 1, 60, 0
2, 64075, Note_on_c, 1, 64, 0
2, 64080, Note_on_c, 1, 60, 72
2, 64080, Note_on_c, 1, 64, 81
2, 64080, Note_on_c, 1, 67, 96
2, 64315, Note_on_c, 1, 43, 0
2, 64315, Note_on_c, 1, 40, 0
2, 64315, Note_on_c, 1, 48, 0
2, 64320, Note_on_c, 1, 40, 57
2, 64320, Note_on_c, 1, 48, 76
2, 64320, Note_on_c, 1, 43, 64
2, 64555, Note_on_c, 1, 60, 0
2, 64555, Note_on_c, 1, 67, 0
2, 64555, Note_on_c, 1, 64, 0
2, 64560, Note_on_c, 1, 64, 71
2, 64560, Note_on_c, 1, 67, 79
2, 64560, Note_on_c, 1, 72, 96
2, 64795, Note_on_c, 1, 40, 0
2, 64795, Note_on_c, 1, 43, 0
2, 64795, Note_on_c, 1, 48, 0
2, 64800, Note_on_c, 1, 43, 63
2, 64800, Note_on_c, 1, 40, 55
2, 64800, Note_on_c, 1, 48, 73
2, 65035, Note_on_c, 1, 64, 0
2, 65035, Note_on_c, 1, 72, 0
2, 65035, Note_on_c, 1, 67, 0
2, 65040, Note_on_c, 1, 67, 72
2, 65040, Note_on_c, 1, 72, 80
2, 65040, Note_on_c, 1, 76, 95
2, 65275, Note_on_c, 1, 43, 0
2, 65275, Note_on_c, 1, 48, 0
2, 65275, Note_on_c, 1, 40, 0
2, 65280, Note_on_c, 1, 40, 61
2, 65280, Note_on_c, 1, 48, 81
2, 65280, Note_on_c, 1, 43, 69
2, 65515, Note_on_c, 1, 67, 0
2, 65515, Note_on_c, 1, 76, 0
2, 65515, Note_on_c, 1, 72, 0
2, 65520, Note_on_c, 1, 72, 76
2, 65520, Note_on_c, 1, 76, 86
2, 65520, Note_on_c, 1, 79, 103
2, 65755, Note_on_c, 1, 40, 0
2, 65755, Note_on_c, 1, 43, 0
2, 65755, Note_on_c, 1, 48, 0
2, 65760, Note_on_c, 1, 43, 63
2, 65760, Note_on_c, 1, 48, 73
2, 65760, Note_on_c, 1, 40, 55
2, 65995, Note_on_c, 1, 72, 0
2, 65995, Note_on_c, 1, 79, 0
2, 65995, Note_on_c, 1, 76, 0
2, 66000, Note_on_c, 1, 76, 78
2, 66000, Note_on_c, 1, 84, 94
2, 66000, Note_on_c, 1, 79, 78
2, 66235, Note_on_c, 1, 43, 0
2, 66235, Note_on_c, 1, 40, 0
2, 66235, Note_on_c, 1, 48, 0
2, 66238, Note_on_c, 1, 76, 0
2, 66238, Note_on_c, 1, 84, 0
2, 66238, Note_on_c, 1, 79, 0
2, 66240, Note_on_c, 1, 72, 48
2, 66240, Note_on_c, 1, 67, 36
2, 66240, Note_on_c, 1, 64, 36
2, 67440, Note_on_c, 1, 72, 0
2, 67440, Note_on_c, 1, 73, 52
2, 67620, Note_on_c, 1, 73, 0
2, 67620, Note_on_c, 1, 72, 48
2, 67680, Note_on_c, 1, 72, 0
2, 67680, Note_on_c, 1, 64, 0
2, 67680, Note_on_c, 1, 67, 0
2, 67680, Note_on_c, 1, 73, 46
2, 67680, Note_on_c, 1, 67, 36
2, 67680, Note_on_c, 1, 63, 36
2, 67760, Note_on_c, 1, 73, 0
2, 67760, Note_on_c, 1, 75, 41
2, 67840, Note_on_c, 1, 75, 0
2, 67840, Note_on_c, 1, 73, 46
2, 67920, Note_on_c, 1, 73, 0
2, 67920, Note_on_c, 1, 75, 41
2, 68000, Note_on_c, 1, 75, 0
2, 68000, Note_on_c, 1, 73, 44
2, 68080, Note_on_c, 1, 73, 0
2, 68080, Note_on_c, 1, 75, 41
2, 68160, Note_on_c, 1, 75, 0
2, 68160, Note_on_c, 1, 73, 46
2, 68240, Note_on_c, 1, 73, 0
2, 68240, Note_on_c, 1, 75, 42
2, 68320, Note_on_c, 1, 75, 0
2, 68320, Note_on_c, 1, 73, 46
2, 68400, Note_on_c, 1, 73, 0
2, 68400, Note_on_c, 1, 75, 43
2, 68520, Note_on_c, 1, 75, 0
2, 68520, Note_on_c, 1, 73, 40
2, 68640, Note_on_c, 1, 73, 0
2, 68640, Note_on_c, 1, 75, 46
2, 68760, Note_on_c, 1, 75, 0
2, 68760, Note_on_c, 1, 73, 42
2, 68880, Note_on_c, 1, 73, 0
2, 68880, Note_on_c, 1, 72, 48
2, 69000, Note_on_c, 1, 72, 0
2, 69000, Note_on_c, 1, 73, 44
2, 69120, Note_on_c, 1, 73, 0
2, 69120, Note_on_c, 1, 79, 58
2, 69120, Note_on_c, 1, 82, 58
2, 69360, Note_on_c, 1, 63, 0
2, 69360, Note_on_c, 1, 67, 0
2, 69360, Note_on_c, 1, 75, 36
2, 69580, Note_on_c, 1, 75, 0
2, 69600, Note_on_c, 1, 75, 36
2, 69820, Note_on_c, 1, 75, 0
2, 69840, Note_on_c, 1, 79, 0
2, 69840, Note_on_c, 1, 82, 0
2, 69840, Note_on_c, 1, 75, 39
2, 70060, Note_on_c, 1, 75, 0
2, 70080, Note_on_c, 1, 75, 37
2, 70300, Note_on_c, 1, 75, 0
2, 70320, Note_on_c, 1, 75, 36
2, 70540, Note_on_c, 1, 75, 0
2, 70560, Note_on_c, 1, 75, 39
2, 70780, Note_on_c, 1, 75, 0
2, 70800, Note_on_c, 1, 75, 35
2, 71020, Note_on_c, 1, 75, 0
2, 71040, Note_on_c, 1, 75, 35
2, 71260, Note_on_c, 1, 75, 0
2, 71280, Note_on_c, 1, 75, 39
2, 71500, Note_on_c, 1, 75, 0
2, 71520, Note_on_c, 1, 75, 36
2, 71740, Note_on_c, 1, 75, 0
2, 71760, Note_on_c, 1, 75, 36
2, 71980, Note_on_c, 1, 75, 0
2, 72000, Note_on_c, 1, 83, 56
2, 72000, Note_on_c, 1, 80, 56
2, 72240, Note_on_c, 1, 75, 38
2, 72460, Note_on_c, 1, 75, 0
2, 72480, Note_on_c, 1, 75, 38
2, 72700, Note_on_c, 1, 75, 0
2, 72720, Note_on_c, 1, 80, 0
2, 72720, Note_on_c, 1, 83, 0
2, 72720, Note_on_c, 1, 71, 39
2, 72720, Note_on_c, 1, 68, 39
2, 72960, Note_on_c, 1, 68, 0
2, 72960, Note_on_c, 1, 71, 0
2, 72960, Note_on_c, 1, 75, 37
2, 73180, Note_on_c, 1, 75, 0
2, 73200, Note_on_c, 1, 75, 37
2, 73420, Note_on_c, 1, 75, 0
2, 73440, Note_on_c, 1, 75, 41
2, 73660, Note_on_c, 1, 75, 0
2, 73680, Note_on_c, 1, 75, 37
2, 73900, Note_on_c, 1, 75, 0
2, 73920, Note_on_c, 1, 75, 38
2, 74140, Note_on_c, 1, 75, 0
2, 74160, Note_on_c, 1, 75, 46
2, 74380, Note_on_c, 1, 75, 0
2, 74400, Note_on_c, 1, 75, 40
2, 74620, Note_on_c, 1, 75, 0
2, 74640, Note_on_c, 1, 75, 40
2, 74860, Note_on_c, 1, 75, 0
2, 74880, Note_on_c, 1, 88, 75
2, 74880, Note_on_c, 1, 80, 75
2, 74880, Note_on_c, 1, 83, 75
2, 75120, Note_on_c, 1, 75, 38
2, 75340, Note_on_c, 1, 75, 0
2, 75360, Note_on_c, 1, 75, 38
2, 75580, Note_on_c, 1, 75, 0
2, 75600, Note_on_c, 1, 68, 40
2, 75600, Note_on_c, 1, 71, 40
2, 75840, Note_on_c, 1, 71, 0
2, 75840, Note_on_c, 1, 68, 0
2, 75840, Note_on_c, 1, 75, 37
2, 76060, Note_on_c, 1, 75, 0
2, 76080, Note_on_c, 1, 75, 37
2, 76300, Note_on_c, 1, 75, 0
2, 76320, Note_on_c, 1, 68, 37
2, 76320, Note_on_c, 1, 71, 37
2, 76560, Note_on_c, 1, 71, 0
2, 76560, Note_on_c, 1, 68, 0
2, 76560, Note_on_c, 1, 75, 37
2, 76780, Note_on_c, 1, 75, 0
2, 76800, Note_on_c, 1, 75, 37
2, 77020, Note_on_c, 1, 75, 0
2, 77040, Note_on_c, 1, 68, 37
2, 77040, Note_on_c, 1, 71, 37
2, 77280, Note_on_c, 1, 71, 0
2, 77280, Note_on_c, 1, 68, 0
2, 77280, Note_on_c, 1, 75, 37
2, 77500, Note_on_c, 1, 75, 0
2, 77520, Note_on_c, 1, 75, 37
2, 77740, Note_on_c, 1, 75, 0
2, 77760, Note_on_c, 1, 88, 0
2, 77760, Note_on_c, 1, 80, 0
2, 77760, Note_on_c, 1, 83, 0
2, 77760, Note_on_c, 1, 82, 52
2, 77760, Note_on_c, 1, 87, 52
2, 77760, Note_on_c, 1, 79, 52
2, 77760, Note_on_c, 1, 67, 39
2, 77760, Note_on_c, 1, 70, 39
2, 78000, Note_on_c, 1, 70, 0
2, 78000, Note_on_c, 1, 67, 0
2, 78000, Note_on_c, 1, 63, 37
2, 78220, Note_on_c, 1, 63, 0
2, 78240, Note_on_c, 1, 79, 0
2, 78240, Note_on_c, 1, 87, 0
2, 78240, Note_on_c, 1, 82, 0
2, 78240, Note_on_c, 1, 63, 37
2, 78460, Note_on_c, 1, 63, 0
2, 78480, Note_on_c, 1, 63, 38
2, 78700, Note_on_c, 1, 63, 0
2, 78720, Note_on_c, 1, 63, 37
2, 78940, Note_on_c, 1, 63, 0
2, 78960, Note_on_c, 1, 63, 37
2, 79180, Note_on_c, 1, 63, 0
2, 79200, Note_on_c, 1, 63, 37
2, 79420, Note_on_c, 1, 63, 0
2, 79440, Note_on_c, 1, 63, 37
2, 79660, Note_on_c, 1, 63, 0
2, 79680, Note_on_c, 1, 63, 37
2, 79900, Note_on_c, 1, 63, 0
2, 79920, Note_on_c, 1, 79, 56
2, 79920, Note_on_c, 1, 82, 56
2, 79920, Note_on_c, 1, 63, 38
2, 80140, Note_on_c, 1, 63, 0
2, 80160, Note_on_c, 1, 63, 37
2, 80380, Note_on_c, 1, 63, 0
2, 80400, Note_on_c, 1, 63, 37
2, 80520, Note_on_c, 1, 82, 0
2, 80520, Note_on_c, 1, 79, 0
2, 80520, Note_on_c, 1, 82, 52
2, 80520, Note_on_c, 1, 79, 52
2, 80620, Note_on_c, 1, 63, 0
2, 80640, Note_on_c, 1, 79, 0
2, 80640, Note_on_c, 1, 82, 0
2, 80640, Note_on_c, 1, 83, 58
2, 80640, Note_on_c, 1, 80, 58
2, 80640, Note_on_c, 1, 63, 39
2, 80860, Note_on_c, 1, 63, 0
2, 80880, Note_on_c, 1, 63, 37
2, 81100, Note_on_c, 1, 63, 0
2, 81120, Note_on_c, 1, 80, 0
2, 81120, Note_on_c, 1, 83, 0
2, 81120, Note_on_c, 1, 79, 52
2, 81120, Note_on_c, 1, 82, 52
2, 81120, Note_on_c, 1, 63, 37
2, 81340, Note_on_c, 1, 63, 0
2, 81360, Note_on_c, 1, 82, 0
2, 81360, Note_on_c, 1, 79, 0
2, 81360, Note_on_c, 1, 63, 38
2, 81580, Note_on_c, 1, 63, 0
2, 81600, Note_on_c, 1, 63, 37
2, 81820, Note_on_c, 1, 63, 0
2, 81840, Note_on_c, 1, 70, 50
2, 81840, Note_on_c, 1, 67, 50
2, 81840, Note_on_c, 1, 63, 37
2, 82060, Note_on_c, 1, 63, 0
2, 82080, Note_on_c, 1, 67, 0
2, 82080, Note_on_c, 1, 70, 0
2, 82080, Note_on_c, 1, 63, 38
2, 82300, Note_on_c, 1, 63, 0
2, 82320, Note_on_c, 1, 63, 39
2, 82540, Note_on_c, 1, 63, 0
2, 82560, Note_on_c, 1, 58, 49
2, 82560, Note_on_c, 1, 55, 49
2, 82560, Note_on_c, 1, 63, 37
2, 82780, Note_on_c, 1, 63, 0
2, 82800, Note_on_c, 1, 55, 0
2, 82800, Note_on_c, 1, 58, 0
2, 82800, Note_on_c, 1, 58, 44
2, 82800, Note_on_c, 1, 61, 44
2, 83040, Note_on_c, 1, 61, 0
2, 83040, Note_on_c, 1, 58, 0
2, 83040, Note_on_c, 1, 63, 37
2, 83260, Note_on_c, 1, 63, 0
2, 83280, Note_on_c, 1, 63, 37
2, 83400, Note_on_c, 1, 79, 58
2, 83400, Note_on_c, 1, 82, 58
2, 83500, Note_on_c, 1, 63, 0
2, 83520, Note_on_c, 1, 82, 0
2, 83520, Note_on_c, 1, 79, 0
2, 83520, Note_on_c, 1, 85, 61
2, 83520, Note_on_c, 1, 82, 61
2, 83520, Note_on_c, 1, 63, 39
2, 83740, Note_on_c, 1, 63, 0
2, 83760, Note_on_c, 1, 63, 37
2, 83980, Note_on_c, 1, 63, 0
2, 84000, Note_on_c, 1, 82, 0
2, 84000, Note_on_c, 1, 85, 0
2, 84000, Note_on_c, 1, 83, 52
2, 84000, Note_on_c, 1, 80, 52
2, 84000, Note_on_c, 1, 63, 37
2, 84220, Note_on_c, 1, 63, 0
2, 84240, Note_on_c, 1, 80, 0
2, 84240, Note_on_c, 1, 83, 0
2, 84240, Note_on_c, 1, 63, 37
2, 84460, Note_on_c, 1, 63, 0
2, 84480, Note_on_c, 1, 63, 37
2, 84700, Note_on_c, 1, 63, 0
2, 84720, Note_on_c, 1, 71, 49
2, 84720, Note_on_c, 1, 68, 49
2, 84720, Note_on_c, 1, 63, 37
2, 84940, Note_on_c, 1, 63, 0
2, 84960, Note_on_c, 1, 68, 0
2, 84960, Note_on_c, 1, 71, 0
2, 84960, Note_on_c, 1, 63, 38
2, 85180, Note_on_c, 1, 63, 0
2, 85200, Note_on_c, 1, 63, 37
2, 85420, Note_on_c, 1, 63, 0
2, 85440, Note_on_c, 1, 59, 47
2, 85440, Note_on_c, 1, 56, 47
2, 85440, Note_on_c, 1, 63, 37
2, 85660, Note_on_c, 1, 63, 0
2, 85675, Note_on_c, 1, 56, 0
2, 85675, Note_on_c, 1, 59, 0
2, 85680, Note_on_c, 1, 59, 48
2, 85680, Note_on_c, 1, 56, 44
2, 85920, Note_on_c, 1, 56, 0
2, 85920, Note_on_c, 1, 59, 0
2, 85920, Note_on_c, 1, 63, 37
2, 86140, Note_on_c, 1, 63, 0
2, 86160, Note_on_c, 1, 63, 37
2, 86280, Note_on_c, 1, 80, 52
2, 86280, Note_on_c, 1, 83, 52
2, 86380, Note_on_c, 1, 63, 0
2, 86400, Note_on_c, 1, 83, 0
2, 86400, Note_on_c, 1, 80, 0
2, 86400, Note_on_c, 1, 80, 75
2, 86400, Note_on_c, 1, 88, 75
2, 86400, Note_on_c, 1, 83, 75
2, 86640, Note_on_c, 1, 63, 38
2, 86860, Note_on_c, 1, 63, 0
2, 86880, Note_on_c, 1, 63, 38
2, 87100, Note_on_c, 1, 63, 0
2, 87120, Note_on_c, 1, 56, 40
2, 87120, Note_on_c, 1, 59, 40
2, 87360, Note_on_c, 1, 59, 0
2, 87360, Note_on_c, 1, 56, 0
2, 87360, Note_on_c, 1, 63, 37
2, 87580, Note_on_c, 1, 63, 0
2, 87600, Note_on_c, 1, 63, 37
2, 87820, Note_on_c, 1, 63, 0
2, 87840, Note_on_c, 1, 59, 37
2, 87840, Note_on_c, 1, 56, 37
2, 88080, Note_on_c, 1, 56, 0
2, 88080, Note_on_c, 1, 59, 0
2, 88080, Note_on_c, 1, 63, 37
2, 88300, Note_on_c, 1, 63, 0
2, 88320, Note_on_c, 1, 63, 37
2, 88540, Note_on_c, 1, 63, 0
2, 88560, Note_on_c, 1, 59, 36
2, 88560, Note_on_c, 1, 56, 36
2, 88800, Note_on_c, 1, 56, 0
2, 88800, Note_on_c, 1, 59, 0
2, 88800, Note_on_c, 1, 63, 37
2, 89020, Note_on_c, 1, 63, 0
2, 89040, Note_on_c, 1, 63, 37
2, 89260, Note_on_c, 1, 63, 0
2, 89280, Note_on_c, 1, 80, 0
2, 89280, Note_on_c, 1, 88, 0
2, 89280, Note_on_c, 1, 83, 0
2, 89280, Note_on_c, 1, 79, 61
2, 89280, Note_on_c, 1, 87, 61
2, 89280, Note_on_c, 1, 82, 61
2, 89520, Note_on_c, 1, 63, 38
2, 89740, Note_on_c, 1, 63, 0
2, 89760, Note_on_c, 1, 79, 0
2, 89760, Note_on_c, 1, 87, 0
2, 89760, Note_on_c, 1, 82, 0
2, 89760, Note_on_c, 1, 63, 38
2, 89980, Note_on_c, 1, 63, 0
2, 90000, Note_on_c, 1, 58, 40
2, 90000, Note_on_c, 1, 55, 40
2, 90240, Note_on_c, 1, 55, 0
2, 90240, Note_on_c, 1, 58, 0
2, 90240, Note_on_c, 1, 63, 37
2, 90460, Note_on_c, 1, 63, 0
2, 90480, Note_on_c, 1, 63, 37
2, 90700, Note_on_c, 1, 63, 0
2, 90720, Note_on_c, 1, 75, 52
2, 90720, Note_on_c, 1, 66, 52
2, 90720, Note_on_c, 1, 69, 52
2, 90960, Note_on_c, 1, 63, 37
2, 91180, Note_on_c, 1, 63, 0
2, 91200, Note_on_c, 1, 63, 37
2, 91420, Note_on_c, 1, 63, 0
2, 91440, Note_on_c, 1, 54, 36
2, 91440, Note_on_c, 1, 57, 36
2, 91680, Note_on_c, 1, 57, 0
2, 91680, Note_on_c, 1, 54, 0
2, 91680, Note_on_c, 1, 63, 37
2, 91900, Note_on_c, 1, 63, 0
2, 91920, Note_on_c, 1, 63, 37
2, 92140, Note_on_c, 1, 63, 0
2, 92160, Note_on_c, 1, 75, 0
2, 92160, Note_on_c, 1, 66, 0
2, 92160, Note_on_c, 1, 69, 0
2, 92160, Note_on_c, 1, 74, 52
2, 92160, Note_on_c, 1, 65, 52
2, 92160, Note_on_c, 1, 68, 52
2, 92400, Note_on_c, 1, 63, 37
2, 92620, Note_on_c, 1, 63, 0
2, 92640, Note_on_c, 1, 74, 0
2, 92640, Note_on_c, 1, 65, 0
2, 92640, Note_on_c, 1, 68, 0
2, 92640, Note_on_c, 1, 63, 36
2, 92860, Note_on_c, 1, 63, 0
2, 92880, Note_on_c, 1, 56, 38
2, 92880, Note_on_c, 1, 53, 38
2, 93120, Note_on_c, 1, 53, 0
2, 93120, Note_on_c, 1, 56, 0
2, 93120, Note_on_c, 1, 63, 34
2, 93340, Note_on_c, 1, 63, 0
2, 93360, Note_on_c, 1, 63, 34
2, 93580, Note_on_c, 1, 63, 0
2, 93600, Note_on_c, 1, 73, 46
2, 93600, Note_on_c, 1, 64, 46
2, 93600, Note_on_c, 1, 67, 46
2, 93840, Note_on_c, 1, 63, 32
2, 94060, Note_on_c, 1, 63, 0
2, 94080, Note_on_c, 1, 73, 0
2, 94080, Note_on_c, 1, 64, 0
2, 94080, Note_on_c, 1, 67, 0
2, 94080, Note_on_c, 1, 63, 32
2, 94300, Note_on_c, 1, 63, 0
2, 94320, Note_on_c, 1, 52, 30
2, 94320, Note_on_c, 1, 55, 30
2, 94560, Note_on_c, 1, 55, 0
2, 94560, Note_on_c, 1, 52, 0
2, 94560, Note_on_c, 1, 63, 31
2, 94780, Note_on_c, 1, 63, 0
2, 94800, Note_on_c, 1, 63, 30
2, 95020, Note_on_c, 1, 63, 0
2, 95040, Note_on_c, 1, 73, 41
2, 95040, Note_on_c, 1, 63, 41
2, 95040, Note_on_c, 1, 67, 41
2, 95280, Note_on_c, 1, 51, 25
2, 95500, Note_on_c, 1, 51, 0
2, 95520, Note_on_c, 1, 51, 26
2, 95740, Note_on_c, 1, 51, 0
2, 95760, Note_on_c, 1, 67, 0
2, 95760, Note_on_c, 1, 63, 0
2, 95760, Note_on_c, 1, 73, 0
2, 95760, Note_on_c, 1, 51, 28
2, 95980, Note_on_c, 1, 51, 0
2, 96000, Note_on_c, 1, 51, 26
2, 96220, Note_on_c, 1, 51, 0
2, 96240, Note_on_c, 1, 51, 26
2, 96460, Note_on_c, 1, 51, 0
2, 96480, Note_on_c, 1, 51, 28
2, 96700, Note_on_c, 1, 51, 0
2, 96720, Note_on_c, 1, 51, 26
2, 96940, Note_on_c, 1, 51, 0
2, 96960, Note_on_c, 1, 51, 26
2, 97180, Note_on_c, 1, 51, 0
2, 97200, Note_on_c, 1, 51, 28
2, 97420, Note_on_c, 1, 51, 0
2, 97440, Note_on_c, 1, 51, 26
2, 97660, Note_on_c, 1, 51, 0
2, 97680, Note_on_c, 1, 51, 27
2, 97900, Note_on_c, 1, 51, 0
2, 97920, Note_on_c, 1, 58, 41
2, 97920, Note_on_c, 1, 61, 41
2, 97920, Note_on_c, 1, 55, 41
2, 98160, Note_on_c, 1, 39, 25
2, 98380, Note_on_c, 1, 39, 0
2, 98400, Note_on_c, 1, 39, 26
2, 98620, Note_on_c, 1, 39, 0
2, 98640, Note_on_c, 1, 55, 0
2, 98640, Note_on_c, 1, 61, 0
2, 98640, Note_on_c, 1, 58, 0
2, 98640, Note_on_c, 1, 39, 28
2, 98860, Note_on_c, 1, 39, 0
2, 98880, Note_on_c, 1, 39, 26
2, 99100, Note_on_c, 1, 39, 0
2, 99120, Note_on_c, 1, 39, 26
2, 99340, Note_on_c, 1, 39, 0
2, 99360, Note_on_c, 1, 39, 28
2, 99580, Note_on_c, 1, 39, 0
2, 99600, Note_on_c, 1, 39, 26
2, 99820, Note_on_c, 1, 39, 0
2, 99840, Note_on_c, 1, 39, 26
2, 100060, Note_on_c, 1, 39, 0
2, 100080, Note_on_c, 1, 39, 28
2, 100300, Note_on_c, 1, 39, 0
2, 100320, Note_on_c, 1, 39, 26
2, 100540, Note_on_c, 1, 39, 0
2, 100560, Note_on_c, 1, 39, 27
2, 100780, Note_on_c, 1, 39, 0
2, 100800, Note_on_c, 1, 32, 28
2, 101040, Note_on_c, 1, 32, 0
2, 101040, Note_on_c, 1, 44, 25
2, 101040, Note_on_c, 1, 36, 20
2, 101040, Note_on_c, 1, 39, 20
2, 101280, Note_on_c, 1, 39, 0
2, 101280, Note_on_c, 1, 36, 0
2, 101280, Note_on_c, 1, 44, 0
2, 101280, Note_on_c, 1, 32, 26
2, 101520, Note_on_c, 1, 32, 0
2, 101520, Note_on_c, 1, 44, 28
2, 101520, Note_on_c, 1, 36, 22
2, 101520, Note_on_c, 1, 39, 22
2, 101760, Note_on_c, 1, 39, 0
2, 101760, Note_on_c, 1, 36, 0
2, 101760, Note_on_c, 1, 44, 0
2, 101760, Note_on_c, 1, 32, 26
2, 102000, Note_on_c, 1, 32, 0
2, 102000, Note_on_c, 1, 44, 26
2, 102000, Note_on_c, 1, 36, 20
2, 102000, Note_on_c, 1, 39, 20
2, 102240, Note_on_c, 1, 39, 0
2, 102240, Note_on_c, 1, 36, 0
2, 102240, Note_on_c, 1, 44, 0
2, 102240, Note_on_c, 1, 32, 28
2, 102480, Note_on_c, 1, 32, 0
2, 102480, Note_on_c, 1, 44, 26
2, 102480, Note_on_c, 1, 39, 20
2, 102480, Note_on_c, 1, 36, 20
2, 102720, Note_on_c, 1, 36, 0
2, 102720, Note_on_c, 1, 39, 0
2, 102720, Note_on_c, 1, 44, 0
2, 102720, Note_on_c, 1, 32, 26
2, 102960, Note_on_c, 1, 32, 0
2, 102960, Note_on_c, 1, 60, 44
2, 102960, Note_on_c, 1, 36, 22
2, 102960, Note_on_c, 1, 48, 40
2, 102960, Note_on_c, 1, 44, 28
2, 102960, Note_on_c, 1, 39, 22
2, 103200, Note_on_c, 1, 39, 0
2, 103200, Note_on_c, 1, 36, 0
2, 103200, Note_on_c, 1, 44, 0
2, 103200, Note_on_c, 1, 32, 26
2, 103440, Note_on_c, 1, 32, 0
2, 103440, Note_on_c, 1, 36, 21
2, 103440, Note_on_c, 1, 39, 21
2, 103440, Note_on_c, 1, 44, 27
2, 103560, Note_on_c, 1, 48, 0
2, 103560, Note_on_c, 1, 60, 0
2, 103560, Note_on_c, 1, 63, 40
2, 103560, Note_on_c, 1, 51, 37
2, 103680, Note_on_c, 1, 51, 0
2, 103680, Note_on_c, 1, 39, 0
2, 103680, Note_on_c, 1, 44, 0
2, 103680, Note_on_c, 1, 36, 0
2, 103680, Note_on_c, 1, 63, 0
2, 103680, Note_on_c, 1, 56, 38
2, 103680, Note_on_c, 1, 68, 41
2, 103680, Note_on_c, 1, 32, 28
2, 103920, Note_on_c, 1, 32, 0
2, 103920, Note_on_c, 1, 44, 25
2, 103920, Note_on_c, 1, 36, 20
2, 103920, Note_on_c, 1, 39, 20
2, 104160, Note_on_c, 1, 39, 0
2, 104160, Note_on_c, 1, 44, 0
2, 104160, Note_on_c, 1, 36, 0
2, 104160, Note_on_c, 1, 32, 26
2, 104400, Note_on_c, 1, 32, 0
2, 104400, Note_on_c, 1, 68, 0
2, 104400, Note_on_c, 1, 56, 0
2, 104400, Note_on_c, 1, 72, 44
2, 104400, Note_on_c, 1, 60, 40
2, 104400, Note_on_c, 1, 44, 28
2, 104400, Note_on_c, 1, 36, 22
2, 104400, Note_on_c, 1, 39, 22
2, 104640, Note_on_c, 1, 39, 0
2, 104640, Note_on_c, 1, 44, 0
2, 104640, Note_on_c, 1, 36, 0
2, 104640, Note_on_c, 1, 32, 26
2, 104880, Note_on_c, 1, 32, 0
2, 104880, Note_on_c, 1, 36, 20
2, 104880, Note_on_c, 1, 39, 20
2, 104880, Note_on_c, 1, 44, 26
2, 105000, Note_on_c, 1, 60, 0
2, 105000, Note_on_c, 1, 72, 0
2, 105000, Note_on_c, 1, 56, 36
2, 105000, Note_on_c, 1, 68, 39
2, 105120, Note_on_c, 1, 68, 0
2, 105120, Note_on_c, 1, 39, 0
2, 105120, Note_on_c, 1, 44, 0
2, 105120, Note_on_c, 1, 36, 0
2, 105120, Note_on_c, 1, 56, 0
2, 105120, Note_on_c, 1, 67, 41
2, 105120, Note_on_c, 1, 55, 38
2, 105120, Note_on_c, 1, 34, 28
2, 105360, Note_on_c, 1, 34, 0
2, 105360, Note_on_c, 1, 46, 26
2, 105360, Note_on_c, 1, 39, 20
2, 105360, Note_on_c, 1, 37, 20
2, 105600, Note_on_c, 1, 37, 0
2, 105600, Note_on_c, 1, 46, 0
2, 105600, Note_on_c, 1, 39, 0
2, 105600, Note_on_c, 1, 34, 26
2, 105840, Note_on_c, 1, 34, 0
2, 105840, Note_on_c, 1, 55, 0
2, 105840, Note_on_c, 1, 67, 0
2, 105840, Note_on_c, 1, 58, 40
2, 105840, Note_on_c, 1, 70, 44
2, 105840, Note_on_c, 1, 39, 22
2, 105840, Note_on_c, 1, 46, 28
2, 105840, Note_on_c, 1, 37, 22
2, 106080, Note_on_c, 1, 37, 0
2, 106080, Note_on_c, 1, 39, 0
2, 106080, Note_on_c, 1, 46, 0
2, 106080, Note_on_c, 1, 34, 26
2, 106320, Note_on_c, 1, 34, 0
2, 106320, Note_on_c, 1, 37, 21
2, 106320, Note_on_c, 1, 46, 27
2, 106320, Note_on_c, 1, 39, 21
2, 106440, Note_on_c, 1, 70, 0
2, 106440, Note_on_c, 1, 58, 0
2, 106440, Note_on_c, 1, 55, 36
2, 106440, Note_on_c, 1, 67, 39
2, 106560, Note_on_c, 1, 67, 0
2, 106560, Note_on_c, 1, 46, 0
2, 106560, Note_on_c, 1, 39, 0
2, 106560, Note_on_c, 1, 37, 0
2, 106560, Note_on_c, 1, 55, 0
2, 106560, Note_on_c, 1, 68, 41
2, 106560, Note_on_c, 1, 56, 38
2, 106560, Note_on_c, 1, 36, 28
2, 106800, Note_on_c, 1, 36, 0
2, 106800, Note_on_c, 1, 39, 20
2, 106800, Note_on_c, 1, 44, 20
2, 106800, Note_on_c, 1, 48, 25
2, 107040, Note_on_c, 1, 48, 0
2, 107040, Note_on_c, 1, 39, 0
2, 107040, Note_on_c, 1, 44, 0
2, 107040, Note_on_c, 1, 36, 26
2, 107280, Note_on_c, 1, 36, 0
2, 107280, Note_on_c, 1, 56, 0
2, 107280, Note_on_c, 1, 68, 0
2, 107280, Note_on_c, 1, 63, 40
2, 107280, Note_on_c, 1, 39, 22
2, 107280, Note_on_c, 1, 51, 40
2, 107280, Note_on_c, 1, 44, 22
2, 107280, Note_on_c, 1, 48, 28
2, 107520, Note_on_c, 1, 48, 0
2, 107520, Note_on_c, 1, 39, 0
2, 107520, Note_on_c, 1, 44, 0
2, 107520, Note_on_c, 1, 36, 26
2, 107760, Note_on_c, 1, 36, 0
2, 107760, Note_on_c, 1, 44, 20
2, 107760, Note_on_c, 1, 48, 26
2, 107760, Note_on_c, 1, 39, 20
2, 108000, Note_on_c, 1, 39, 0
2, 108000, Note_on_c, 1, 44, 0
2, 108000, Note_on_c, 1, 48, 0
2, 108000, Note_on_c, 1, 36, 28
2, 108240, Note_on_c, 1, 36, 0
2, 108240, Note_on_c, 1, 39, 20
2, 108240, Note_on_c, 1, 44, 20
2, 108240, Note_on_c, 1, 48, 26
2, 108480, Note_on_c, 1, 48, 0
2, 108480, Note_on_c, 1, 39, 0
2, 108480, Note_on_c, 1, 44, 0
2, 108480, Note_on_c, 1, 36, 26
2, 108720, Note_on_c, 1, 36, 0
2, 108720, Note_on_c, 1, 51, 0
2, 108720, Note_on_c, 1, 63, 0
2, 108720, Note_on_c, 1, 65, 44
2, 108720, Note_on_c, 1, 53, 40
2, 108720, Note_on_c, 1, 44, 28
2, 108960, Note_on_c, 1, 44, 0
2, 108960, Note_on_c, 1, 37, 26
2, 109200, Note_on_c, 1, 37, 0
2, 109200, Note_on_c, 1, 44, 27
2, 109320, Note_on_c, 1, 53, 0
2, 109320, Note_on_c, 1, 65, 0
2, 109320, Note_on_c, 1, 61, 40
2, 109320, Note_on_c, 1, 49, 37
2, 109440, Note_on_c, 1, 49, 0
2, 109440, Note_on_c, 1, 61, 0
2, 109440, Note_on_c, 1, 44, 0
2, 109440, Note_on_c, 1, 60, 44
2, 109440, Note_on_c, 1, 48, 40
2, 109440, Note_on_c, 1, 39, 28
2, 109680, Note_on_c, 1, 39, 0
2, 109680, Note_on_c, 1, 44, 25
2, 109920, Note_on_c, 1, 44, 0
2, 109920, Note_on_c, 1, 39, 26
2, 110160, Note_on_c, 1, 39, 0
2, 110160, Note_on_c, 1, 48, 0
2, 110160, Note_on_c, 1, 60, 0
2, 110160, Note_on_c, 1, 63, 44
2, 110160, Note_on_c, 1, 44, 28
2, 110160, Note_on_c, 1, 51, 40
2, 110400, Note_on_c, 1, 44, 0
2, 110400, Note_on_c, 1, 39, 25
2, 110640, Note_on_c, 1, 39, 0
2, 110640, Note_on_c, 1, 44, 25
2, 110760, Note_on_c, 1, 51, 0
2, 110760, Note_on_c, 1, 63, 0
2, 110760, Note_on_c, 1, 60, 39
2, 110760, Note_on_c, 1, 48, 36
2, 110880, Note_on_c, 1, 48, 0
2, 110880, Note_on_c, 1, 60, 0
2, 110880, Note_on_c, 1, 44, 0
2, 110880, Note_on_c, 1, 58, 44
2, 110880, Note_on_c, 1, 46, 40
2, 110880, Note_on_c, 1, 39, 28
2, 111120, Note_on_c, 1, 39, 0
2, 111120, Note_on_c, 1, 43, 25
2, 111360, Note_on_c, 1, 43, 0
2, 111360, Note_on_c, 1, 39, 25
2, 111600, Note_on_c, 1, 39, 0
2, 111600, Note_on_c, 1, 46, 0
2, 111600, Note_on_c, 1, 58, 0
2, 111600, Note_on_c, 1, 63, 44
2, 111600, Note_on_c, 1, 51, 40
2, 111600, Note_on_c, 1, 43, 28
2, 111840, Note_on_c, 1, 43, 0
2, 111840, Note_on_c, 1, 39, 25
2, 112080, Note_on_c, 1, 39, 0
2, 112080, Note_on_c, 1, 43, 25
2, 112200, Note_on_c, 1, 51, 0
2, 112200, Note_on_c, 1, 63, 0
2, 112200, Note_on_c, 1, 61, 39
2, 112200, Note_on_c, 1, 49, 36
2, 112320, Note_on_c, 1, 49, 0
2, 112320, Note_on_c, 1, 61, 0
2, 112320, Note_on_c, 1, 43, 0
2, 112320, Note_on_c, 1, 60, 42
2, 112320, Note_on_c, 1, 44, 28
2, 112560, Note_on_c, 1, 44, 0
2, 112560, Note_on_c, 1, 56, 25
2, 112560, Note_on_c, 1, 48, 20
2, 112560, Note_on_c, 1, 51, 20
2, 112800, Note_on_c, 1, 51, 0
2, 112800, Note_on_c, 1, 48, 0
2, 112800, Note_on_c, 1, 56, 0
2, 112800, Note_on_c, 1, 44, 27
2, 113040, Note_on_c, 1, 44, 0
2, 113040, Note_on_c, 1, 60, 0
2, 113040, Note_on_c, 1, 63, 42
2, 113040, Note_on_c, 1, 56, 29
2, 113040, Note_on_c, 1, 48, 23
2, 113040, Note_on_c, 1, 51, 23
2, 113280, Note_on_c, 1, 51, 0
2, 113280, Note_on_c, 1, 48, 0
2, 113280, Note_on_c, 1, 56, 0
2, 113280, Note_on_c, 1, 44, 28
2, 113520, Note_on_c, 1, 44, 0
2, 113520, Note_on_c, 1, 56, 29
2, 113520, Note_on_c, 1, 48, 22
2, 113520, Note_on_c, 1, 51, 22
2, 113760, Note_on_c, 1, 51, 0
2, 113760, Note_on_c, 1, 48, 0
2, 113760, Note_on_c, 1, 56, 0
2, 113760, Note_on_c, 1, 44, 32
2, 114000, Note_on_c, 1, 44, 0
2, 114000, Note_on_c, 1, 56, 31
2, 114000, Note_on_c, 1, 51, 24
2, 114000, Note_on_c, 1, 48, 24
2, 114240, Note_on_c, 1, 48, 0
2, 114240, Note_on_c, 1, 51, 0
2, 114240, Note_on_c, 1, 56, 0
2, 114240, Note_on_c, 1, 44, 31
2, 114480, Note_on_c, 1, 44, 0
2, 114480, Note_on_c, 1, 63, 0
2, 114480, Note_on_c, 1, 72, 55
2, 114480, Note_on_c, 1, 48, 27
2, 114480, Note_on_c, 1, 51, 27
2, 114480, Note_on_c, 1, 56, 35
2, 114480, Note_on_c, 1, 60, 51
2, 114720, Note_on_c, 1, 56, 0
2, 114720, Note_on_c, 1, 51, 0
2, 114720, Note_on_c, 1, 48, 0
2, 114720, Note_on_c, 1, 44, 33
2, 114960, Note_on_c, 1, 44, 0
2, 114960, Note_on_c, 1, 48, 27
2, 114960, Note_on_c, 1, 51, 27
2, 114960, Note_on_c, 1, 56, 34
2, 115080, Note_on_c, 1, 72, 0
2, 115080, Note_on_c, 1, 60, 0
2, 115080, Note_on_c, 1, 75, 53
2, 115080, Note_on_c, 1, 63, 49
2, 115200, Note_on_c, 1, 63, 0
2, 115200, Note_on_c, 1, 51, 0
2, 115200, Note_on_c, 1, 56, 0
2, 115200, Note_on_c, 1, 48, 0
2, 115200, Note_on_c, 1, 75, 0
2, 115200, Note_on_c, 1, 80, 56
2, 115200, Note_on_c, 1, 68, 51
2, 115200, Note_on_c, 1, 44, 37
2, 115440, Note_on_c, 1, 44, 0
2, 115440, Note_on_c, 1, 56, 34
2, 115440, Note_on_c, 1, 51, 27
2, 115440, Note_on_c, 1, 48, 27
2, 115680, Note_on_c, 1, 48, 0
2, 115680, Note_on_c, 1, 56, 0
2, 115680, Note_on_c, 1, 51, 0
2, 115680, Note_on_c, 1, 44, 36
2, 115920, Note_on_c, 1, 44, 0
2, 115920, Note_on_c, 1, 68, 0
2, 115920, Note_on_c, 1, 80, 0
2, 115920, Note_on_c, 1, 72, 57
2, 115920, Note_on_c, 1, 84, 62
2, 115920, Note_on_c, 1, 56, 39
2, 115920, Note_on_c, 1, 51, 30
2, 115920, Note_on_c, 1, 48, 30
2, 116160, Note_on_c, 1, 48, 0
2, 116160, Note_on_c, 1, 56, 0
2, 116160, Note_on_c, 1, 51, 0
2, 116160, Note_on_c, 1, 44, 37
2, 116400, Note_on_c, 1, 44, 0
2, 116400, Note_on_c, 1, 48, 29
2, 116400, Note_on_c, 1, 56, 38
2, 116400, Note_on_c, 1, 51, 29
2, 116520, Note_on_c, 1, 84, 0
2, 116520, Note_on_c, 1, 72, 0
2, 116520, Note_on_c, 1, 80, 58
2, 116520, Note_on_c, 1, 68, 53
2, 116640, Note_on_c, 1, 68, 0
2, 116640, Note_on_c, 1, 56, 0
2, 116640, Note_on_c, 1, 51, 0
2, 116640, Note_on_c, 1, 48, 0
2, 116640, Note_on_c, 1, 80, 0
2, 116640, Note_on_c, 1, 67, 57
2, 116640, Note_on_c, 1, 79, 61
2, 116640, Note_on_c, 1, 46, 40
2, 116880, Note_on_c, 1, 46, 0
2, 116880, Note_on_c, 1, 58, 38
2, 116880, Note_on_c, 1, 51, 29
2, 116880, Note_on_c, 1, 49, 29
2, 117120, Note_on_c, 1, 49, 0
2, 117120, Note_on_c, 1, 58, 0
2, 117120, Note_on_c, 1, 51, 0
2, 117120, Note_on_c, 1, 46, 39
2, 117360, Note_on_c, 1, 46, 0
2, 117360, Note_on_c, 1, 79, 0
2, 117360, Note_on_c, 1, 67, 0
2, 117360, Note_on_c, 1, 70, 62
2, 117360, Note_on_c, 1, 82, 68
2, 117360, Note_on_c, 1, 51, 34
2, 117360, Note_on_c, 1, 58, 42
2, 117360, Note_on_c, 1, 49, 34
2, 117600, Note_on_c, 1, 49, 0
2, 117600, Note_on_c, 1, 51, 0
2, 117600, Note_on_c, 1, 58, 0
2, 117600, Note_on_c, 1, 46, 40
2, 117840, Note_on_c, 1, 46, 0
2, 117840, Note_on_c, 1, 49, 33
2, 117840, Note_on_c, 1, 58, 42
2, 117840, Note_on_c, 1, 51, 33
2, 117960, Note_on_c, 1, 82, 0
2, 117960, Note_on_c, 1, 70, 0
2, 117960, Note_on_c, 1, 79, 63
2, 117960, Note_on_c, 1, 67, 58
2, 118080, Note_on_c, 1, 67, 0
2, 118080, Note_on_c, 1, 58, 0
2, 118080, Note_on_c, 1, 51, 0
2, 118080, Note_on_c, 1, 49, 0
2, 118080, Note_on_c, 1, 79, 0
2, 118080, Note_on_c, 1, 68, 51
2, 118080, Note_on_c, 1, 80, 57
2, 118080, Note_on_c, 1, 60, 36
2, 118080, Note_on_c, 1, 51, 28
2, 118080, Note_on_c, 1, 48, 28
2, 118080, Note_on_c, 1, 56, 36
2, 118800, Note_on_c, 1, 80, 0
2, 118800, Note_on_c, 1, 68, 0
2, 118800, Note_on_c, 1, 63, 45
2, 118800, Note_on_c, 1, 75, 52
2, 120960, Note_on_c, 1, 75, 0
2, 120960, Note_on_c, 1, 56, 0
2, 120960, Note_on_c, 1, 60, 0
2, 120960, Note_on_c, 1, 51, 0
2, 120960, Note_on_c, 1, 63, 0
2, 120960, Note_on_c, 1, 48, 0
2, 120960, Note_on_c, 1, 76, 85
2, 120960, Note_on_c, 1, 64, 72
2, 120960, Note_on_c, 1, 56, 59
2, 120960, Note_on_c, 1, 49, 50
2, 120960, Note_on_c, 1, 52, 50
2, 121680, Note_on_c, 1, 56, 0
2, 121680, Note_on_c, 1, 76, 0
2, 121680, Note_on_c, 1, 64, 0
2, 121680, Note_on_c, 1, 61, 69
2, 121680, Note_on_c, 1, 73, 81
2, 121680, Note_on_c, 1, 57, 57
2, 123840, Note_on_c, 1, 57, 0
2, 123840, Note_on_c, 1, 61, 0
2, 123840, Note_on_c, 1, 52, 0
2, 123840, Note_on_c, 1, 49, 0
2, 123840, Note_on_c, 1, 73, 0
2, 123840, Note_on_c, 1, 71, 58
2, 123840, Note_on_c, 1, 56, 36
2, 123840, Note_on_c, 1, 51, 28
2, 123840, Note_on_c, 1, 59, 36
2, 126000, Note_on_c, 1, 71, 0
2, 126000, Note_on_c, 1, 70, 51
2, 126480, Note_on_c, 1, 70, 0
2, 126480, Note_on_c, 1, 68, 49
2, 126660, Note_on_c, 1, 68, 0
2, 126660, Note_on_c, 1, 69, 38
2, 126720, Note_on_c, 1, 69, 0
2, 126720, Note_on_c, 1, 59, 0
2, 126720, Note_on_c, 1, 51, 0
2, 126720, Note_on_c, 1, 56, 0
2, 126720, Note_on_c, 1, 70, 44
2, 126720, Note_on_c, 1, 55, 31
2, 126720, Note_on_c, 1, 61, 31
2, 126720, Note_on_c, 1, 51, 25
2, 126840, Note_on_c, 1, 70, 0
2, 126840, Note_on_c, 1, 71, 38
2, 126960, Note_on_c, 1, 71, 0
2, 126960, Note_on_c, 1, 70, 46
2, 127080, Note_on_c, 1, 70, 0
2, 127080, Note_on_c, 1, 71, 40
2, 127200, Note_on_c, 1, 71, 0
2, 127200, Note_on_c, 1, 70, 47
2, 127320, Note_on_c, 1, 70, 0
2, 127320, Note_on_c, 1, 71, 40
2, 127440, Note_on_c, 1, 71, 0
2, 127440, Note_on_c, 1, 70, 48
2, 127560, Note_on_c, 1, 70, 0
2, 127560, Note_on_c, 1, 71, 41
2, 127680, Note_on_c, 1, 71, 0
2, 127680, Note_on_c, 1, 70, 49
2, 127800, Note_on_c, 1, 70, 0
2, 127800, Note_on_c, 1, 71, 42
2, 127920, Note_on_c, 1, 71, 0
2, 127920, Note_on_c, 1, 70, 50
2, 128040, Note_on_c, 1, 70, 0
2, 128040, Note_on_c, 1, 71, 42
2, 128160, Note_on_c, 1, 71, 0
2, 128160, Note_on_c, 1, 70, 51
2, 128280, Note_on_c, 1, 70, 0
2, 128280, Note_on_c, 1, 71, 44
2, 128400, Note_on_c, 1, 71, 0
2, 128400, Note_on_c, 1, 70, 51
2, 128520, Note_on_c, 1, 70, 0
2, 128520, Note_on_c, 1, 71, 45
2, 128640, Note_on_c, 1, 71, 0
2, 128640, Note_on_c, 1, 70, 52
2, 128760, Note_on_c, 1, 70, 0
2, 128760, Note_on_c, 1, 71, 46
2, 128880, Note_on_c, 1, 71, 0
2, 128880, Note_on_c, 1, 70, 53
2, 129000, Note_on_c, 1, 70, 0
2, 129000, Note_on_c, 1, 71, 48
2, 129120, Note_on_c, 1, 71, 0
2, 129120, Note_on_c, 1, 70, 55
2, 129240, Note_on_c, 1, 70, 0
2, 129240, Note_on_c, 1, 71, 48
2, 129360, Note_on_c, 1, 71, 0
2, 129360, Note_on_c, 1, 70, 56
2, 129480, Note_on_c, 1, 70, 0
2, 129480, Note_on_c, 1, 71, 48
2, 129600, Note_on_c, 1, 71, 0
2, 129600, Note_on_c, 1, 51, 0
2, 129600, Note_on_c, 1, 61, 0
2, 129600, Note_on_c, 1, 55, 0
2, 129600, Note_on_c, 1, 76, 46
2, 129720, Note_on_c, 1, 76, 0
2, 129720, Note_on_c, 1, 75, 39
2, 129840, Note_on_c, 1, 75, 0
2, 129840, Note_on_c, 1, 76, 46
2, 129960, Note_on_c, 1, 76, 0
2, 129960, Note_on_c, 1, 75, 40
2, 130080, Note_on_c, 1, 75, 0
2, 130080, Note_on_c, 1, 76, 48
2, 130200, Note_on_c, 1, 76, 0
2, 130200, Note_on_c, 1, 75, 41
2, 130320, Note_on_c, 1, 75, 0
2, 130320, Note_on_c, 1, 76, 50
2, 130440, Note_on_c, 1, 76, 0
2, 130440, Note_on_c, 1, 75, 44
2, 130560, Note_on_c, 1, 75, 0
2, 130560, Note_on_c, 1, 76, 51
2, 130680, Note_on_c, 1, 76, 0
2, 130680, Note_on_c, 1, 75, 45
2, 130800, Note_on_c, 1, 75, 0
2, 130800, Note_on_c, 1, 76, 53
2, 130920, Note_on_c, 1, 76, 0
2, 130920, Note_on_c, 1, 75, 47
2, 131040, Note_on_c, 1, 75, 0
2, 131040, Note_on_c, 1, 76, 56
2, 131160, Note_on_c, 1, 76, 0
2, 131160, Note_on_c, 1, 75, 48
2, 131280, Note_on_c, 1, 75, 0
2, 131280, Note_on_c, 1, 76, 56
2, 131400, Note_on_c, 1, 76, 0
2, 131400, Note_on_c, 1, 75, 47
2, 131520, Note_on_c, 1, 75, 0
2, 131520, Note_on_c, 1, 76, 56
2, 131640, Note_on_c, 1, 76, 0
2, 131640, Note_on_c, 1, 75, 48
2, 131760, Note_on_c, 1, 75, 0
2, 131760, Note_on_c, 1, 76, 56
2, 131880, Note_on_c, 1, 76, 0
2, 131880, Note_on_c, 1, 75, 49
2, 132000, Note_on_c, 1, 75, 0
2, 132000, Note_on_c, 1, 76, 56
2, 132120, Note_on_c, 1, 76, 0
2, 132120, Note_on_c, 1, 75, 49
2, 132240, Note_on_c, 1, 75, 0
2, 132240, Note_on_c, 1, 74, 56
2, 132360, Note_on_c, 1, 74, 0
2, 132360, Note_on_c, 1, 75, 48
2, 132480, Note_on_c, 1, 75, 0
2, 132480, Note_on_c, 1, 88, 55
2, 132600, Note_on_c, 1, 88, 0
2, 132600, Note_on_c, 1, 87, 46
2, 132720, Note_on_c, 1, 87, 0
2, 132720, Note_on_c, 1, 88, 55
2, 132840, Note_on_c, 1, 88, 0
2, 132840, Note_on_c, 1, 87, 48
2, 132960, Note_on_c, 1, 87, 0
2, 132960, Note_on_c, 1, 88, 57
2, 133080, Note_on_c, 1, 88, 0
2, 133080, Note_on_c, 1, 87, 50
2, 133200, Note_on_c, 1, 87, 0
2, 133200, Note_on_c, 1, 88, 60
2, 133320, Note_on_c, 1, 88, 0
2, 133320, Note_on_c, 1, 87, 51
2, 133440, Note_on_c, 1, 87, 0
2, 133440, Note_on_c, 1, 88, 62
2, 133560, Note_on_c, 1, 88, 0
2, 133560, Note_on_c, 1, 87, 52
2, 133680, Note_on_c, 1, 87, 0
2, 133680, Note_on_c, 1, 88, 63
2, 133800, Note_on_c, 1, 88, 0
2, 133800, Note_on_c, 1, 87, 55
2, 133920, Note_on_c, 1, 87, 0
2, 133920, Note_on_c, 1, 88, 67
2, 134040, Note_on_c, 1, 88, 0
2, 134040, Note_on_c, 1, 87, 56
2, 134160, Note_on_c, 1, 87, 0
2, 134160, Note_on_c, 1, 88, 68
2, 134280, Note_on_c, 1, 88, 0
2, 134280, Note_on_c, 1, 87, 57
2, 134400, Note_on_c, 1, 87, 0
2, 134400, Note_on_c, 1, 88, 67
2, 134520, Note_on_c, 1, 88, 0
2, 134520, Note_on_c, 1, 87, 56
2, 134640, Note_on_c, 1, 87, 0
2, 134640, Note_on_c, 1, 88, 67
2, 134760, Note_on_c, 1, 88, 0
2, 134760, Note_on_c, 1, 87, 58
2, 134880, Note_on_c, 1, 87, 0
2, 134880, Note_on_c, 1, 88, 67
2, 135000, Note_on_c, 1, 88, 0
2, 135000, Note_on_c, 1, 87, 58
2, 135120, Note_on_c, 1, 87, 0
2, 135120, Note_on_c, 1, 86, 67
2, 135240, Note_on_c, 1, 86, 0
2, 135240, Note_on_c, 1, 87, 56
2, 135360, Note_on_c, 1, 87, 0
2, 135360, Note_on_c, 1, 88, 64
2, 135600, Note_on_c, 1, 88, 0
2, 135600, Note_on_c, 1, 87, 55
2, 135840, Note_on_c, 1, 87, 0
2, 135840, Note_on_c, 1, 85, 48
2, 136080, Note_on_c, 1, 85, 0
2, 136080, Note_on_c, 1, 83, 49
2, 136320, Note_on_c, 1, 83, 0
2, 136320, Note_on_c, 1, 82, 48
2, 136560, Note_on_c, 1, 82, 0
2, 136560, Note_on_c, 1, 80, 48
2, 136800, Note_on_c, 1, 80, 0
2, 136800, Note_on_c, 1, 79, 49
2, 137040, Note_on_c, 1, 79, 0
2, 137040, Note_on_c, 1, 78, 47
2, 137280, Note_on_c, 1, 78, 0
2, 137280, Note_on_c, 1, 76, 47
2, 137520, Note_on_c, 1, 76, 0
2, 137520, Note_on_c, 1, 75, 48
2, 137760, Note_on_c, 1, 75, 0
2, 137760, Note_on_c, 1, 73, 48
2, 138000, Note_on_c, 1, 73, 0
2, 138000, Note_on_c, 1, 71, 45
2, 138240, Note_on_c, 1, 71, 0
2, 138240, Note_on_c, 1, 70, 48
2, 138480, Note_on_c, 1, 70, 0
2, 138480, Note_on_c, 1, 68, 44
2, 138720, Note_on_c, 1, 68, 0
2, 138720, Note_on_c, 1, 67, 44
2, 138960, Note_on_c, 1, 67, 0
2, 138960, Note_on_c, 1, 66, 45
2, 139200, Note_on_c, 1, 66, 0
2, 139200, Note_on_c, 1, 64, 45
2, 139440, Note_on_c, 1, 64, 0
2, 139440, Note_on_c, 1, 63, 45
2, 139680, Note_on_c, 1, 63, 0
2, 139680, Note_on_c, 1, 61, 45
2, 139920, Note_on_c, 1, 61, 0
2, 139920, Note_on_c, 1, 59, 44
2, 140160, Note_on_c, 1, 59, 0
2, 140160, Note_on_c, 1, 58, 42
2, 140400, Note_on_c, 1, 58, 0
2, 140400, Note_on_c, 1, 56, 42
2, 140640, Note_on_c, 1, 56, 0
2, 140640, Note_on_c, 1, 55, 41
2, 140880, Note_on_c, 1, 55, 0
2, 140880, Note_on_c, 1, 54, 39
2, 141120, Note_on_c, 1, 54, 0
2, 141120, Note_on_c, 1, 52, 42
2, 141360, Note_on_c, 1, 52, 0
2, 141360, Note_on_c, 1, 51, 41
2, 141600, Note_on_c, 1, 51, 0
2, 141600, Note_on_c, 1, 49, 41
2, 141840, Note_on_c, 1, 49, 0
2, 141840, Note_on_c, 1, 47, 40
2, 142080, Note_on_c, 1, 47, 0
2, 142080, Note_on_c, 1, 46, 39
2, 142320, Note_on_c, 1, 46, 0
2, 142320, Note_on_c, 1, 44, 39
2, 142560, Note_on_c, 1, 44, 0
2, 142560, Note_on_c, 1, 43, 42
2, 142800, Note_on_c, 1, 43, 0
2, 142800, Note_on_c, 1, 42, 41
2, 143040, Note_on_c, 1, 42, 0
2, 143040, Note_on_c, 1, 41, 41
2, 143280, Note_on_c, 1, 41, 0
2, 143280, Note_on_c, 1, 39, 41
2, 143520, Note_on_c, 1, 39, 0
2, 143520, Note_on_c, 1, 37, 41
2, 143760, Note_on_c, 1, 37, 0
2, 143760, Note_on_c, 1, 35, 41
2, 144000, Note_on_c, 1, 35, 0
2, 144000, Note_on_c, 1, 34, 42
2, 144240, Note_on_c, 1, 34, 0
2, 144240, Note_on_c, 1, 35, 42
2, 144480, Note_on_c, 1, 35, 0
2, 144480, Note_on_c, 1, 37, 42
2, 144720, Note_on_c, 1, 37, 0
2, 144720, Note_on_c, 1, 39, 42
2, 144960, Note_on_c, 1, 39, 0
2, 144960, Note_on_c, 1, 40, 41
2, 145200, Note_on_c, 1, 40, 0
2, 145200, Note_on_c, 1, 39, 39
2, 145440, Note_on_c, 1, 39, 0
2, 145440, Note_on_c, 1, 37, 42
2, 145680, Note_on_c, 1, 37, 0
2, 145680, Note_on_c, 1, 35, 40
2, 145920, Note_on_c, 1, 35, 0
2, 145920, Note_on_c, 1, 34, 40
2, 146160, Note_on_c, 1, 34, 0
2, 146160, Note_on_c, 1, 39, 45
2, 146400, Note_on_c, 1, 39, 0
2, 146400, Note_on_c, 1, 37, 42
2, 146640, Note_on_c, 1, 37, 0
2, 146640, Note_on_c, 1, 39, 40
2, 146880, Note_on_c, 1, 39, 0
2, 146880, Note_on_c, 1, 56, 83
2, 146880, Note_on_c, 1, 32, 64
2, 147000, Note_on_c, 1, 32, 0
2, 147000, Note_on_c, 1, 56, 0
2, 147000, Note_on_c, 1, 51, 66
2, 147000, Note_on_c, 1, 39, 52
2, 147120, Note_on_c, 1, 39, 0
2, 147120, Note_on_c, 1, 51, 0
2, 147120, Note_on_c, 1, 47, 66
2, 147120, Note_on_c, 1, 44, 52
2, 147240, Note_on_c, 1, 44, 0
2, 147240, Note_on_c, 1, 47, 0
2, 147240, Note_on_c, 1, 51, 66
2, 147240, Note_on_c, 1, 39, 52
2, 147360, Note_on_c, 1, 39, 0
2, 147360, Note_on_c, 1, 51, 0
2, 147360, Note_on_c, 1, 56, 80
2, 147360, Note_on_c, 1, 32, 58
2, 147480, Note_on_c, 1, 32, 0
2, 147480, Note_on_c, 1, 56, 0
2, 147480, Note_on_c, 1, 51, 64
2, 147480, Note_on_c, 1, 39, 51
2, 147600, Note_on_c, 1, 39, 0
2, 147600, Note_on_c, 1, 51, 0
2, 147600, Note_on_c, 1, 59, 84
2, 147600, Note_on_c, 1, 32, 68
2, 147720, Note_on_c, 1, 32, 0
2, 147720, Note_on_c, 1, 59, 0
2, 147720, Note_on_c, 1, 51, 66
2, 147720, Note_on_c, 1, 39, 52
2, 147840, Note_on_c, 1, 39, 0
2, 147840, Note_on_c, 1, 51, 0
2, 147840, Note_on_c, 1, 58, 83
2, 147840, Note_on_c, 1, 32, 64
2, 147960, Note_on_c, 1, 32, 0
2, 147960, Note_on_c, 1, 58, 0
2, 147960, Note_on_c, 1, 51, 66
2, 147960, Note_on_c, 1, 39, 52
2, 148080, Note_on_c, 1, 39, 0
2, 148080, Note_on_c, 1, 51, 0
2, 148080, Note_on_c, 1, 56, 81
2, 148080, Note_on_c, 1, 32, 62
2, 148200, Note_on_c, 1, 32, 0
2, 148200, Note_on_c, 1, 56, 0
2, 148200, Note_on_c, 1, 51, 66
2, 148200, Note_on_c, 1, 39, 52
2, 148320, Note_on_c, 1, 39, 0
2, 148320, Note_on_c, 1, 51, 0
2, 148320, Note_on_c, 1, 56, 83
2, 148320, Note_on_c, 1, 32, 64
2, 148440, Note_on_c, 1, 32, 0
2, 148440, Note_on_c, 1, 56, 0
2, 148440, Note_on_c, 1, 51, 63
2, 148440, Note_on_c, 1, 39, 52
2, 148560, Note_on_c, 1, 39, 0
2, 148560, Note_on_c, 1, 51, 0
2, 148560, Note_on_c, 1, 47, 63
2, 148560, Note_on_c, 1, 44, 52
2, 148680, Note_on_c, 1, 44, 0
2, 148680, Note_on_c, 1, 47, 0
2, 148680, Note_on_c, 1, 51, 63
2, 148680, Note_on_c, 1, 39, 52
2, 148800, Note_on_c, 1, 39, 0
2, 148800, Note_on_c, 1, 51, 0
2, 148800, Note_on_c, 1, 56, 79
2, 148800, Note_on_c, 1, 32, 58
2, 148920, Note_on_c, 1, 32, 0
2, 148920, Note_on_c, 1, 56, 0
2, 148920, Note_on_c, 1, 51, 62
2, 148920, Note_on_c, 1, 39, 51
2, 149040, Note_on_c, 1, 39, 0
2, 149040, Note_on_c, 1, 51, 0
2, 149040, Note_on_c, 1, 59, 83
2, 149040, Note_on_c, 1, 32, 68
2, 149160, Note_on_c, 1, 32, 0
2, 149160, Note_on_c, 1, 59, 0
2, 149160, Note_on_c, 1, 51, 63
2, 149160, Note_on_c, 1, 39, 52
2, 149280, Note_on_c, 1, 39, 0
2, 149280, Note_on_c, 1, 51, 0
2, 149280, Note_on_c, 1, 58, 80
2, 149280, Note_on_c, 1, 32, 64
2, 149400, Note_on_c, 1, 32, 0
2, 149400, Note_on_c, 1, 58, 0
2, 149400, Note_on_c, 1, 51, 66
2, 149400, Note_on_c, 1, 39, 52
2, 149520, Note_on_c, 1, 39, 0
2, 149520, Note_on_c, 1, 51, 0
2, 149520, Note_on_c, 1, 56, 80
2, 149520, Note_on_c, 1, 32, 62
2, 149640, Note_on_c, 1, 32, 0
2, 149640, Note_on_c, 1, 56, 0
2, 149640, Note_on_c, 1, 51, 64
2, 149640, Note_on_c, 1, 39, 52
2, 149760, Note_on_c, 1, 39, 0
2, 149760, Note_on_c, 1, 51, 0
2, 149760, Note_on_c, 1, 64, 83
2, 149760, Note_on_c, 1, 32, 64
2, 149880, Note_on_c, 1, 32, 0
2, 149880, Note_on_c, 1, 64, 0
2, 149880, Note_on_c, 1, 59, 66
2, 149880, Note_on_c, 1, 40, 52
2, 150000, Note_on_c, 1, 40, 0
2, 150000, Note_on_c, 1, 59, 0
2, 150000, Note_on_c, 1, 56, 66
2, 150000, Note_on_c, 1, 44, 52
2, 150120, Note_on_c, 1, 44, 0
2, 150120, Note_on_c, 1, 56, 0
2, 150120, Note_on_c, 1, 59, 66
2, 150120, Note_on_c, 1, 40, 52
2, 150240, Note_on_c, 1, 40, 0
2, 150240, Note_on_c, 1, 59, 0
2, 150240, Note_on_c, 1, 64, 80
2, 150240, Note_on_c, 1, 32, 58
2, 150360, Note_on_c, 1, 32, 0
2, 150360, Note_on_c, 1, 64, 0
2, 150360, Note_on_c, 1, 59, 64
2, 150360, Note_on_c, 1, 40, 51
2, 150480, Note_on_c, 1, 40, 0
2, 150480, Note_on_c, 1, 59, 0
2, 150480, Note_on_c, 1, 68, 84
2, 150480, Note_on_c, 1, 32, 68
2, 150600, Note_on_c, 1, 32, 0
2, 150600, Note_on_c, 1, 68, 0
2, 150600, Note_on_c, 1, 59, 66
2, 150600, Note_on_c, 1, 40, 52
2, 150720, Note_on_c, 1, 40, 0
2, 150720, Note_on_c, 1, 59, 0
2, 150720, Note_on_c, 1, 66, 83
2, 150720, Note_on_c, 1, 32, 64
2, 150840, Note_on_c, 1, 32, 0
2, 150840, Note_on_c, 1, 66, 0
2, 150840, Note_on_c, 1, 59, 66
2, 150840, Note_on_c, 1, 40, 52
2, 150960, Note_on_c, 1, 40, 0
2, 150960, Note_on_c, 1, 59, 0
2, 150960, Note_on_c, 1, 64, 81
2, 150960, Note_on_c, 1, 32, 62
2, 151080, Note_on_c, 1, 32, 0
2, 151080, Note_on_c, 1, 64, 0
2, 151080, Note_on_c, 1, 59, 66
2, 151080, Note_on_c, 1, 40, 52
2, 151200, Note_on_c, 1, 40, 0
2, 151200, Note_on_c, 1, 59, 0
2, 151200, Note_on_c, 1, 64, 83
2, 151200, Note_on_c, 1, 32, 64
2, 151320, Note_on_c, 1, 32, 0
2, 151320, Note_on_c, 1, 64, 0
2, 151320, Note_on_c, 1, 59, 63
2, 151320, Note_on_c, 1, 40, 52
2, 151440, Note_on_c, 1, 40, 0
2, 151440, Note_on_c, 1, 59, 0
2, 151440, Note_on_c, 1, 56, 63
2, 151440, Note_on_c, 1, 44, 52
2, 151560, Note_on_c, 1, 44, 0
2, 151560, Note_on_c, 1, 56, 0
2, 151560, Note_on_c, 1, 59, 63
2, 151560, Note_on_c, 1, 40, 52
2, 151680, Note_on_c, 1, 40, 0
2, 151680, Note_on_c, 1, 59, 0
2, 151680, Note_on_c, 1, 64, 80
2, 151680, Note_on_c, 1, 32, 58
2, 151800, Note_on_c, 1, 32, 0
2, 151800, Note_on_c, 1, 64, 0
2, 151800, Note_on_c, 1, 59, 62
2, 151800, Note_on_c, 1, 40, 51
2, 151920, Note_on_c, 1, 40, 0
2, 151920, Note_on_c, 1, 59, 0
2, 151920, Note_on_c, 1, 68, 83
2, 151920, Note_on_c, 1, 32, 68
2, 152040, Note_on_c, 1, 32, 0
2, 152040, Note_on_c, 1, 68, 0
2, 152040, Note_on_c, 1, 59, 63
2, 152040, Note_on_c, 1, 40, 52
2, 152160, Note_on_c, 1, 40, 0
2, 152160, Note_on_c, 1, 59, 0
2, 152160, Note_on_c, 1, 66, 80
2, 152160, Note_on_c, 1, 32, 64
2, 152280, Note_on_c, 1, 32, 0
2, 152280, Note_on_c, 1, 66, 0
2, 152280, Note_on_c, 1, 59, 66
2, 152280, Note_on_c, 1, 40, 52
2, 152400, Note_on_c, 1, 40, 0
2, 152400, Note_on_c, 1, 59, 0
2, 152400, Note_on_c, 1, 64, 80
2, 152400, Note_on_c, 1, 32, 62
2, 152520, Note_on_c, 1, 32, 0
2, 152520, Note_on_c, 1, 64, 0
2, 152520, Note_on_c, 1, 59, 64
2, 152520, Note_on_c, 1, 40, 52
2, 152640, Note_on_c, 1, 40, 0
2, 152640, Note_on_c, 1, 59, 0
2, 152640, Note_on_c, 1, 73, 92
2, 152640, Note_on_c, 1, 33, 90
2, 152640, Note_on_c, 1, 45, 106
2, 152760, Note_on_c, 1, 73, 0
2, 152760, Note_on_c, 1, 76, 67
2, 152880, Note_on_c, 1, 76, 0
2, 152880, Note_on_c, 1, 73, 77
2, 153000, Note_on_c, 1, 73, 0
2, 153000, Note_on_c, 1, 76, 67
2, 153120, Note_on_c, 1, 76, 0
2, 153120, Note_on_c, 1, 73, 74
2, 153240, Note_on_c, 1, 73, 0
2, 153240, Note_on_c, 1, 76, 67
2, 153360, Note_on_c, 1, 76, 0
2, 153360, Note_on_c, 1, 73, 73
2, 153480, Note_on_c, 1, 73, 0
2, 153480, Note_on_c, 1, 76, 67
2, 153600, Note_on_c, 1, 76, 0
2, 153600, Note_on_c, 1, 73, 73
2, 153720, Note_on_c, 1, 73, 0
2, 153720, Note_on_c, 1, 76, 67
2, 153840, Note_on_c, 1, 76, 0
2, 153840, Note_on_c, 1, 73, 73
2, 153960, Note_on_c, 1, 73, 0
2, 153960, Note_on_c, 1, 76, 67
2, 154080, Note_on_c, 1, 76, 0
2, 154080, Note_on_c, 1, 73, 73
2, 154200, Note_on_c, 1, 73, 0
2, 154200, Note_on_c, 1, 76, 67
2, 154320, Note_on_c, 1, 76, 0
2, 154320, Note_on_c, 1, 73, 73
2, 154440, Note_on_c, 1, 73, 0
2, 154440, Note_on_c, 1, 76, 67
2, 154560, Note_on_c, 1, 76, 0
2, 154560, Note_on_c, 1, 73, 72
2, 154680, Note_on_c, 1, 73, 0
2, 154680, Note_on_c, 1, 76, 67
2, 154800, Note_on_c, 1, 76, 0
2, 154800, Note_on_c, 1, 45, 0
2, 154800, Note_on_c, 1, 33, 0
2, 154800, Note_on_c, 1, 73, 95
2, 154800, Note_on_c, 1, 46, 88
2, 154800, Note_on_c, 1, 34, 74
2, 154920, Note_on_c, 1, 73, 0
2, 154920, Note_on_c, 1, 76, 78
2, 155040, Note_on_c, 1, 76, 0
2, 155040, Note_on_c, 1, 34, 0
2, 155040, Note_on_c, 1, 46, 0
2, 155040, Note_on_c, 1, 70, 89
2, 155040, Note_on_c, 1, 37, 72
2, 155160, Note_on_c, 1, 70, 0
2, 155160, Note_on_c, 1, 73, 78
2, 155280, Note_on_c, 1, 73, 0
2, 155280, Note_on_c, 1, 37, 0
2, 155280, Note_on_c, 1, 67, 84
2, 155280, Note_on_c, 1, 40, 82
2, 155400, Note_on_c, 1, 67, 0
2, 155400, Note_on_c, 1, 70, 77
2, 155520, Note_on_c, 1, 70, 0
2, 155520, Note_on_c, 1, 40, 0
2, 155520, Note_on_c, 1, 64, 82
2, 155520, Note_on_c, 1, 43, 95
2, 155640, Note_on_c, 1, 64, 0
2, 155640, Note_on_c, 1, 67, 70
2, 155760, Note_on_c, 1, 67, 0
2, 155760, Note_on_c, 1, 43, 0
2, 155760, Note_on_c, 1, 61, 81
2, 155760, Note_on_c, 1, 46, 82
2, 155880, Note_on_c, 1, 61, 0
2, 155880, Note_on_c, 1, 64, 71
2, 156000, Note_on_c, 1, 64, 0
2, 156000, Note_on_c, 1, 46, 0
2, 156000, Note_on_c, 1, 58, 82
2, 156000, Note_on_c, 1, 49, 82
2, 156120, Note_on_c, 1, 58, 0
2, 156120, Note_on_c, 1, 61, 68
2, 156240, Note_on_c, 1, 61, 0
2, 156240, Note_on_c, 1, 49, 0
2, 156240, Note_on_c, 1, 56, 81
2, 156240, Note_on_c, 1, 52, 85
2, 156360, Note_on_c, 1, 56, 0
2, 156360, Note_on_c, 1, 58, 70
2, 156470, Note_on_c, 1, 52, 0
2, 156480, Note_on_c, 1, 58, 0
2, 156480, Note_on_c, 1, 61, 80
2, 156480, Note_on_c, 1, 52, 83
2, 156600, Note_on_c, 1, 61, 0
2, 156600, Note_on_c, 1, 58, 70
2, 156710, Note_on_c, 1, 52, 0
2, 156720, Note_on_c, 1, 58, 0
2, 156720, Note_on_c, 1, 56, 80
2, 156720, Note_on_c, 1, 52, 83
2, 156840, Note_on_c, 1, 56, 0
2, 156840, Note_on_c, 1, 58, 69
2, 156950, Note_on_c, 1, 52, 0
2, 156960, Note_on_c, 1, 58, 0
2, 156960, Note_on_c, 1, 52, 97
2, 157080, Note_on_c, 1, 56, 70
2, 157200, Note_on_c, 1, 56, 0
2, 157200, Note_on_c, 1, 61, 80
2, 157320, Note_on_c, 1, 61, 0
2, 157320, Note_on_c, 1, 58, 69
2, 157440, Note_on_c, 1, 58, 0
2, 157440, Note_on_c, 1, 56, 77
2, 157560, Note_on_c, 1, 56, 0
2, 157560, Note_on_c, 1, 61, 70
2, 157680, Note_on_c, 1, 61, 0
2, 157680, Note_on_c, 1, 52, 0
2, 157680, Note_on_c, 1, 51, 89
2, 157800, Note_on_c, 1, 55, 69
2, 157920, Note_on_c, 1, 55, 0
2, 157920, Note_on_c, 1, 61, 80
2, 158040, Note_on_c, 1, 61, 0
2, 158040, Note_on_c, 1, 58, 69
2, 158160, Note_on_c, 1, 58, 0
2, 158160, Note_on_c, 1, 55, 78
2, 158280, Note_on_c, 1, 55, 0
2, 158280, Note_on_c, 1, 61, 69
2, 158400, Note_on_c, 1, 61, 0
2, 158400, Note_on_c, 1, 51, 0
2, 158400, Note_on_c, 1, 68, 83
2, 158400, Note_on_c, 1, 44, 64
2, 158520, Note_on_c, 1, 44, 0
2, 158520, Note_on_c, 1, 68, 0
2, 158520, Note_on_c, 1, 63, 66
2, 158520, Note_on_c, 1, 51, 52
2, 158640, Note_on_c, 1, 51, 0
2, 158640, Note_on_c, 1, 63, 0
2, 158640, Note_on_c, 1, 59, 66
2, 158640, Note_on_c, 1, 56, 52
2, 158760, Note_on_c, 1, 56, 0
2, 158760, Note_on_c, 1, 59, 0
2, 158760, Note_on_c, 1, 63, 66
2, 158760, Note_on_c, 1, 51, 52
2, 158880, Note_on_c, 1, 51, 0
2, 158880, Note_on_c, 1, 63, 0
2, 158880, Note_on_c, 1, 68, 80
2, 158880, Note_on_c, 1, 44, 58
2, 159000, Note_on_c, 1, 44, 0
2, 159000, Note_on_c, 1, 68, 0
2, 159000, Note_on_c, 1, 63, 64
2, 159000, Note_on_c, 1, 51, 51
2, 159120, Note_on_c, 1, 51, 0
2, 159120, Note_on_c, 1, 63, 0
2, 159120, Note_on_c, 1, 71, 84
2, 159120, Note_on_c, 1, 44, 68
2, 159240, Note_on_c, 1, 44, 0
2, 159240, Note_on_c, 1, 71, 0
2, 159240, Note_on_c, 1, 63, 66
2, 159240, Note_on_c, 1, 51, 52
2, 159360, Note_on_c, 1, 51, 0
2, 159360, Note_on_c, 1, 63, 0
2, 159360, Note_on_c, 1, 70, 83
2, 159360, Note_on_c, 1, 44, 64
2, 159480, Note_on_c, 1, 44, 0
2, 159480, Note_on_c, 1, 70, 0
2, 159480, Note_on_c, 1, 63, 66
2, 159480, Note_on_c, 1, 51, 52
2, 159600, Note_on_c, 1, 51, 0
2, 159600, Note_on_c, 1, 63, 0
2, 159600, Note_on_c, 1, 68, 81
2, 159600, Note_on_c, 1, 44, 62
2, 159720, Note_on_c, 1, 44, 0
2, 159720, Note_on_c, 1, 68, 0
2, 159720, Note_on_c, 1, 63, 66
2, 159720, Note_on_c, 1, 51, 52
2, 159840, Note_on_c, 1, 51, 0
2, 159840, Note_on_c, 1, 63, 0
2, 159840, Note_on_c, 1, 68, 83
2, 159840, Note_on_c, 1, 44, 64
2, 159960, Note_on_c, 1, 44, 0
2, 159960, Note_on_c, 1, 68, 0
2, 159960, Note_on_c, 1, 63, 63
2, 159960, Note_on_c, 1, 51, 52
2, 160080, Note_on_c, 1, 51, 0
2, 160080, Note_on_c, 1, 63, 0
2, 160080, Note_on_c, 1, 59, 63
2, 160080, Note_on_c, 1, 56, 52
2, 160200, Note_on_c, 1, 56, 0
2, 160200, Note_on_c, 1, 59, 0
2, 160200, Note_on_c, 1, 63, 63
2, 160200, Note_on_c, 1, 51, 52
2, 160320, Note_on_c, 1, 51, 0
2, 160320, Note_on_c, 1, 63, 0
2, 160320, Note_on_c, 1, 68, 80
2, 160320, Note_on_c, 1, 44, 58
2, 160440, Note_on_c, 1, 44, 0
2, 160440, Note_on_c, 1, 68, 0
2, 160440, Note_on_c, 1, 63, 62
2, 160440, Note_on_c, 1, 51, 51
2, 160560, Note_on_c, 1, 51, 0
2, 160560, Note_on_c, 1, 63, 0
2, 160560, Note_on_c, 1, 71, 83
2, 160560, Note_on_c, 1, 44, 68
2, 160680, Note_on_c, 1, 44, 0
2, 160680, Note_on_c, 1, 71, 0
2, 160680, Note_on_c, 1, 63, 63
2, 160680, Note_on_c, 1, 51, 52
2, 160800, Note_on_c, 1, 51, 0
2, 160800, Note_on_c, 1, 63, 0
2, 160800, Note_on_c, 1, 70, 80
2, 160800, Note_on_c, 1, 44, 64
2, 160920, Note_on_c, 1, 44, 0
2, 160920, Note_on_c, 1, 70, 0
2, 160920, Note_on_c, 1, 63, 66
2, 160920, Note_on_c, 1, 51, 52
2, 161040, Note_on_c, 1, 51, 0
2, 161040, Note_on_c, 1, 63, 0
2, 161040, Note_on_c, 1, 68, 80
2, 161040, Note_on_c, 1, 44, 62
2, 161160, Note_on_c, 1, 44, 0
2, 161160, Note_on_c, 1, 68, 0
2, 161160, Note_on_c, 1, 63, 64
2, 161160, Note_on_c, 1, 51, 52
2, 161280, Note_on_c, 1, 51, 0
2, 161280, Note_on_c, 1, 63, 0
2, 161280, Note_on_c, 1, 76, 83
2, 161280, Note_on_c, 1, 44, 64
2, 161400, Note_on_c, 1, 44, 0
2, 161400, Note_on_c, 1, 76, 0
2, 161400, Note_on_c, 1, 71, 66
2, 161400, Note_on_c, 1, 52, 52
2, 161520, Note_on_c, 1, 52, 0
2, 161520, Note_on_c, 1, 71, 0
2, 161520, Note_on_c, 1, 68, 66
2, 161520, Note_on_c, 1, 56, 52
2, 161640, Note_on_c, 1, 56, 0
2, 161640, Note_on_c, 1, 68, 0
2, 161640, Note_on_c, 1, 71, 66
2, 161640, Note_on_c, 1, 52, 52
2, 161760, Note_on_c, 1, 52, 0
2, 161760, Note_on_c, 1, 71, 0
2, 161760, Note_on_c, 1, 76, 80
2, 161760, Note_on_c, 1, 44, 58
2, 161880, Note_on_c, 1, 44, 0
2, 161880, Note_on_c, 1, 76, 0
2, 161880, Note_on_c, 1, 71, 64
2, 161880, Note_on_c, 1, 52, 51
2, 162000, Note_on_c, 1, 52, 0
2, 162000, Note_on_c, 1, 71, 0
2, 162000, Note_on_c, 1, 80, 84
2, 162000, Note_on_c, 1, 44, 68
2, 162120, Note_on_c, 1, 44, 0
2, 162120, Note_on_c, 1, 80, 0
2, 162120, Note_on_c, 1, 71, 66
2, 162120, Note_on_c, 1, 52, 52
2, 162240, Note_on_c, 1, 52, 0
2, 162240, Note_on_c, 1, 71, 0
2, 162240, Note_on_c, 1, 78, 83
2, 162240, Note_on_c, 1, 44, 64
2, 162360, Note_on_c, 1, 44, 0
2, 162360, Note_on_c, 1, 78, 0
2, 162360, Note_on_c, 1, 71, 66
2, 162360, Note_on_c, 1, 52, 52
2, 162480, Note_on_c, 1, 52, 0
2, 162480, Note_on_c, 1, 71, 0
2, 162480, Note_on_c, 1, 76, 81
2, 162480, Note_on_c, 1, 44, 62
2, 162600, Note_on_c, 1, 44, 0
2, 162600, Note_on_c, 1, 76, 0
2, 162600, Note_on_c, 1, 71, 66
2, 162600, Note_on_c, 1, 52, 52
2, 162720, Note_on_c, 1, 52, 0
2, 162720, Note_on_c, 1, 71, 0
2, 162720, Note_on_c, 1, 76, 83
2, 162720, Note_on_c, 1, 44, 64
2, 162840, Note_on_c, 1, 44, 0
2, 162840, Note_on_c, 1, 76, 0
2, 162840, Note_on_c, 1, 71, 63
2, 162840, Note_on_c, 1, 52, 52
2, 162960, Note_on_c, 1, 52, 0
2, 162960, Note_on_c, 1, 71, 0
2, 162960, Note_on_c, 1, 68, 63
2, 162960, Note_on_c, 1, 56, 52
2, 163080, Note_on_c, 1, 56, 0
2, 163080, Note_on_c, 1, 68, 0
2, 163080, Note_on_c, 1, 71, 63
2, 163080, Note_on_c, 1, 52, 52
2, 163200, Note_on_c, 1, 52, 0
2, 163200, Note_on_c, 1, 71, 0
2, 163200, Note_on_c, 1, 76, 80
2, 163200, Note_on_c, 1, 44, 58
2, 163320, Note_on_c, 1, 44, 0
2, 163320, Note_on_c, 1, 76, 0
2, 163320, Note_on_c, 1, 71, 62
2, 163320, Note_on_c, 1, 52, 51
2, 163440, Note_on_c, 1, 52, 0
2, 163440, Note_on_c, 1, 71, 0
2, 163440, Note_on_c, 1, 80, 83
2, 163440, Note_on_c, 1, 44, 68
2, 163560, Note_on_c, 1, 44, 0
2, 163560, Note_on_c, 1, 80, 0
2, 163560, Note_on_c, 1, 71, 63
2, 163560, Note_on_c, 1, 52, 52
2, 163680, Note_on_c, 1, 52, 0
2, 163680, Note_on_c, 1, 71, 0
2, 163680, Note_on_c, 1, 78, 80
2, 163680, Note_on_c, 1, 44, 64
2, 163800, Note_on_c, 1, 44, 0
2, 163800, Note_on_c, 1, 78, 0
2, 163800, Note_on_c, 1, 71, 66
2, 163800, Note_on_c, 1, 52, 52
2, 163920, Note_on_c, 1, 52, 0
2, 163920, Note_on_c, 1, 71, 0
2, 163920, Note_on_c, 1, 76, 80
2, 163920, Note_on_c, 1, 44, 62
2, 164040, Note_on_c, 1, 44, 0
2, 164040, Note_on_c, 1, 76, 0
2, 164040, Note_on_c, 1, 71, 64
2, 164040, Note_on_c, 1, 52, 52
2, 164160, Note_on_c, 1, 52, 0
2, 164160, Note_on_c, 1, 71, 0
2, 164160, Note_on_c, 1, 85, 94
2, 164160, Note_on_c, 1, 57, 106
2, 164160, Note_on_c, 1, 45, 90
2, 164280, Note_on_c, 1, 85, 0
2, 164280, Note_on_c, 1, 88, 77
2, 164400, Note_on_c, 1, 88, 0
2, 164400, Note_on_c, 1, 85, 78
2, 164520, Note_on_c, 1, 85, 0
2, 164520, Note_on_c, 1, 88, 69
2, 164640, Note_on_c, 1, 88, 0
2, 164640, Note_on_c, 1, 85, 75
2, 164760, Note_on_c, 1, 85, 0
2, 164760, Note_on_c, 1, 88, 69
2, 164880, Note_on_c, 1, 88, 0
2, 164880, Note_on_c, 1, 85, 75
2, 165000, Note_on_c, 1, 85, 0
2, 165000, Note_on_c, 1, 88, 69
2, 165120, Note_on_c, 1, 88, 0
2, 165120, Note_on_c, 1, 85, 74
2, 165240, Note_on_c, 1, 85, 0
2, 165240, Note_on_c, 1, 88, 69
2, 165360, Note_on_c, 1, 88, 0
2, 165360, Note_on_c, 1, 85, 71
2, 165480, Note_on_c, 1, 85, 0
2, 165480, Note_on_c, 1, 88, 69
2, 165600, Note_on_c, 1, 88, 0
2, 165600, Note_on_c, 1, 85, 71
2, 165720, Note_on_c, 1, 85, 0
2, 165720, Note_on_c, 1, 88, 69
2, 165840, Note_on_c, 1, 88, 0
2, 165840, Note_on_c, 1, 85, 71
2, 165960, Note_on_c, 1, 85, 0
2, 165960, Note_on_c, 1, 88, 69
2, 166080, Note_on_c, 1, 88, 0
2, 166080, Note_on_c, 1, 85, 73
2, 166200, Note_on_c, 1, 85, 0
2, 166200, Note_on_c, 1, 88, 69
2, 166320, Note_on_c, 1, 88, 0
2, 166320, Note_on_c, 1, 45, 0
2, 166320, Note_on_c, 1, 57, 0
2, 166320, Note_on_c, 1, 85, 76
2, 166320, Note_on_c, 1, 46, 59
2, 166320, Note_on_c, 1, 58, 88
2, 166440, Note_on_c, 1, 85, 0
2, 166440, Note_on_c, 1, 88, 69
2, 166560, Note_on_c, 1, 88, 0
2, 166560, Note_on_c, 1, 58, 0
2, 166560, Note_on_c, 1, 46, 0
2, 166560, Note_on_c, 1, 85, 77
2, 166560, Note_on_c, 1, 61, 72
2, 166560, Note_on_c, 1, 49, 58
2, 166680, Note_on_c, 1, 85, 0
2, 166680, Note_on_c, 1, 88, 69
2, 166800, Note_on_c, 1, 88, 0
2, 166800, Note_on_c, 1, 49, 0
2, 166800, Note_on_c, 1, 61, 0
2, 166800, Note_on_c, 1, 85, 77
2, 166800, Note_on_c, 1, 64, 82
2, 166800, Note_on_c, 1, 52, 63
2, 166920, Note_on_c, 1, 85, 0
2, 166920, Note_on_c, 1, 88, 69
2, 167040, Note_on_c, 1, 88, 0
2, 167040, Note_on_c, 1, 52, 0
2, 167040, Note_on_c, 1, 64, 0
2, 167040, Note_on_c, 1, 85, 82
2, 167040, Note_on_c, 1, 67, 95
2, 167040, Note_on_c, 1, 55, 75
2, 167160, Note_on_c, 1, 85, 0
2, 167160, Note_on_c, 1, 88, 70
2, 167280, Note_on_c, 1, 88, 0
2, 167280, Note_on_c, 1, 55, 0
2, 167280, Note_on_c, 1, 67, 0
2, 167280, Note_on_c, 1, 82, 81
2, 167280, Note_on_c, 1, 70, 82
2, 167280, Note_on_c, 1, 58, 63
2, 167400, Note_on_c, 1, 82, 0
2, 167400, Note_on_c, 1, 85, 71
2, 167520, Note_on_c, 1, 85, 0
2, 167520, Note_on_c, 1, 58, 0
2, 167520, Note_on_c, 1, 70, 0
2, 167520, Note_on_c, 1, 80, 82
2, 167520, Note_on_c, 1, 73, 82
2, 167520, Note_on_c, 1, 61, 63
2, 167640, Note_on_c, 1, 80, 0
2, 167640, Note_on_c, 1, 82, 68
2, 167760, Note_on_c, 1, 82, 0
2, 167760, Note_on_c, 1, 61, 0
2, 167760, Note_on_c, 1, 73, 0
2, 167760, Note_on_c, 1, 80, 81
2, 167760, Note_on_c, 1, 64, 68
2, 167760, Note_on_c, 1, 76, 85
2, 167880, Note_on_c, 1, 80, 0
2, 167880, Note_on_c, 1, 82, 70
2, 167990, Note_on_c, 1, 76, 0
2, 167990, Note_on_c, 1, 64, 0
2, 168000, Note_on_c, 1, 82, 0
2, 168000, Note_on_c, 1, 85, 80
2, 168000, Note_on_c, 1, 76, 83
2, 168000, Note_on_c, 1, 64, 64
2, 168120, Note_on_c, 1, 85, 0
2, 168120, Note_on_c, 1, 82, 70
2, 168230, Note_on_c, 1, 64, 0
2, 168230, Note_on_c, 1, 76, 0
2, 168240, Note_on_c, 1, 82, 0
2, 168240, Note_on_c, 1, 80, 80
2, 168240, Note_on_c, 1, 76, 83
2, 168240, Note_on_c, 1, 64, 64
2, 168360, Note_on_c, 1, 80, 0
2, 168360, Note_on_c, 1, 82, 69
2, 168470, Note_on_c, 1, 64, 0
2, 168470, Note_on_c, 1, 76, 0
2, 168480, Note_on_c, 1, 82, 0
2, 168480, Note_on_c, 1, 64, 80
2, 168480, Note_on_c, 1, 76, 102
2, 168600, Note_on_c, 1, 80, 72
2, 168720, Note_on_c, 1, 80, 0
2, 168720, Note_on_c, 1, 85, 77
2, 168840, Note_on_c, 1, 85, 0
2, 168840, Note_on_c, 1, 82, 70
2, 168960, Note_on_c, 1, 82, 0
2, 168960, Note_on_c, 1, 80, 74
2, 169080, Note_on_c, 1, 80, 0
2, 169080, Note_on_c, 1, 85, 69
2, 169200, Note_on_c, 1, 85, 0
2, 169200, Note_on_c, 1, 76, 0
2, 169200, Note_on_c, 1, 64, 0
2, 169200, Note_on_c, 1, 75, 86
2, 169200, Note_on_c, 1, 63, 69
2, 169320, Note_on_c, 1, 79, 67
2, 169440, Note_on_c, 1, 79, 0
2, 169440, Note_on_c, 1, 85, 71
2, 169560, Note_on_c, 1, 85, 0
2, 169560, Note_on_c, 1, 82, 64
2, 169680, Note_on_c, 1, 82, 0
2, 169680, Note_on_c, 1, 79, 68
2, 169800, Note_on_c, 1, 79, 0
2, 169800, Note_on_c, 1, 85, 62
2, 169920, Note_on_c, 1, 85, 0
2, 169920, Note_on_c, 1, 63, 0
2, 169920, Note_on_c, 1, 75, 0
2, 169920, Note_on_c, 1, 68, 102
2, 170040, Note_on_c, 1, 76, 72
2, 170160, Note_on_c, 1, 76, 0
2, 170160, Note_on_c, 1, 85, 78
2, 170280, Note_on_c, 1, 85, 0
2, 170280, Note_on_c, 1, 82, 70
2, 170400, Note_on_c, 1, 82, 0
2, 170400, Note_on_c, 1, 76, 77
2, 170520, Note_on_c, 1, 76, 0
2, 170520, Note_on_c, 1, 85, 69
2, 170640, Note_on_c, 1, 85, 0
2, 170640, Note_on_c, 1, 68, 0
2, 170640, Note_on_c, 1, 67, 86
2, 170760, Note_on_c, 1, 75, 67
2, 170880, Note_on_c, 1, 75, 0
2, 170880, Note_on_c, 1, 85, 74
2, 171000, Note_on_c, 1, 85, 0
2, 171000, Note_on_c, 1, 82, 64
2, 171120, Note_on_c, 1, 82, 0
2, 171120, Note_on_c, 1, 75, 70
2, 171240, Note_on_c, 1, 75, 0
2, 171240, Note_on_c, 1, 85, 62
2, 171360, Note_on_c, 1, 85, 0
2, 171360, Note_on_c, 1, 67, 0
2, 171360, Note_on_c, 1, 76, 102
2, 171480, Note_on_c, 1, 80, 72
2, 171600, Note_on_c, 1, 80, 0
2, 171600, Note_on_c, 1, 85, 78
2, 171720, Note_on_c, 1, 85, 0
2, 171720, Note_on_c, 1, 82, 70
2, 171840, Note_on_c, 1, 82, 0
2, 171840, Note_on_c, 1, 80, 76
2, 171960, Note_on_c, 1, 80, 0
2, 171960, Note_on_c, 1, 85, 69
2, 172080, Note_on_c, 1, 85, 0
2, 172080, Note_on_c, 1, 76, 0
2, 172080, Note_on_c, 1, 75, 86
2, 172200, Note_on_c, 1, 79, 67
2, 172320, Note_on_c, 1, 79, 0
2, 172320, Note_on_c, 1, 85, 73
2, 172440, Note_on_c, 1, 85, 0
2, 172440, Note_on_c, 1, 82, 64
2, 172560, Note_on_c, 1, 82, 0
2, 172560, Note_on_c, 1, 79, 70
2, 172680, Note_on_c, 1, 79, 0
2, 172680, Note_on_c, 1, 85, 62
2, 172800, Note_on_c, 1, 85, 0
2, 172800, Note_on_c, 1, 75, 0
2, 172800, Note_on_c, 1, 74, 97
2, 172920, Note_on_c, 1, 77, 91
2, 173040, Note_on_c, 1, 80, 97
2, 173160, Note_on_c, 1, 83, 79
2, 173280, Note_on_c, 1, 83, 0
2, 173280, Note_on_c, 1, 86, 83
2, 173400, Note_on_c, 1, 86, 0
2, 173400, Note_on_c, 1, 89, 74
2, 173520, Note_on_c, 1, 89, 0
2, 173520, Note_on_c, 1, 92, 85
2, 173640, Note_on_c, 1, 92, 0
2, 173640, Note_on_c, 1, 89, 81
2, 173760, Note_on_c, 1, 89, 0
2, 173760, Note_on_c, 1, 86, 86
2, 173880, Note_on_c, 1, 86, 0
2, 173880, Note_on_c, 1, 95, 83
2, 174000, Note_on_c, 1, 95, 0
2, 174000, Note_on_c, 1, 94, 86
2, 174120, Note_on_c, 1, 94, 0
2, 174120, Note_on_c, 1, 92, 78
2, 174240, Note_on_c, 1, 92, 0
2, 174240, Note_on_c, 1, 74, 0
2, 174240, Note_on_c, 1, 77, 0
2, 174240, Note_on_c, 1, 80, 0
2, 174240, Note_on_c, 1, 91, 83
2, 174240, Note_on_c, 1, 75, 85
2, 174360, Note_on_c, 1, 91, 0
2, 174360, Note_on_c, 1, 94, 81
2, 174360, Note_on_c, 1, 79, 77
2, 174480, Note_on_c, 1, 94, 0
2, 174480, Note_on_c, 1, 92, 84
2, 174600, Note_on_c, 1, 92, 0
2, 174600, Note_on_c, 1, 91, 82
2, 174720, Note_on_c, 1, 91, 0
2, 174720, Note_on_c, 1, 88, 81
2, 174840, Note_on_c, 1, 88, 0
2, 174840, Note_on_c, 1, 87, 74
2, 174960, Note_on_c, 1, 87, 0
2, 174960, Note_on_c, 1, 85, 78
2, 175080, Note_on_c, 1, 85, 0
2, 175080, Note_on_c, 1, 88, 75
2, 175200, Note_on_c, 1, 88, 0
2, 175200, Note_on_c, 1, 87, 74
2, 175320, Note_on_c, 1, 87, 0
2, 175320, Note_on_c, 1, 85, 72
2, 175440, Note_on_c, 1, 85, 0
2, 175440, Note_on_c, 1, 83, 71
2, 175560, Note_on_c, 1, 83, 0
2, 175560, Note_on_c, 1, 82, 66
2, 175680, Note_on_c, 1, 82, 0
2, 175680, Note_on_c, 1, 79, 0
2, 175680, Note_on_c, 1, 75, 0
2, 175680, Note_on_c, 1, 68, 45
2, 175680, Note_on_c, 1, 71, 45
2, 175800, Note_on_c, 1, 80, 42
2, 175920, Note_on_c, 1, 80, 0
2, 175920, Note_on_c, 1, 83, 45
2, 176040, Note_on_c, 1, 83, 0
2, 176040, Note_on_c, 1, 87, 47
2, 176160, Note_on_c, 1, 87, 0
2, 176160, Note_on_c, 1, 92, 49
2, 176280, Note_on_c, 1, 92, 0
2, 176280, Note_on_c, 1, 80, 45
2, 176400, Note_on_c, 1, 80, 0
2, 176400, Note_on_c, 1, 71, 0
2, 176400, Note_on_c, 1, 68, 0
2, 176400, Note_on_c, 1, 73, 44
2, 176400, Note_on_c, 1, 76, 44
2, 176760, Note_on_c, 1, 92, 49
2, 176880, Note_on_c, 1, 92, 0
2, 176880, Note_on_c, 1, 80, 45
2, 177000, Note_on_c, 1, 80, 0
2, 177000, Note_on_c, 1, 92, 49
2, 177120, Note_on_c, 1, 92, 0
2, 177120, Note_on_c, 1, 76, 0
2, 177120, Note_on_c, 1, 73, 0
2, 177120, Note_on_c, 1, 71, 45
2, 177120, Note_on_c, 1, 75, 45
2, 177480, Note_on_c, 1, 92, 48
2, 177600, Note_on_c, 1, 92, 0
2, 177600, Note_on_c, 1, 80, 45
2, 177720, Note_on_c, 1, 80, 0
2, 177720, Note_on_c, 1, 92, 48
2, 177840, Note_on_c, 1, 92, 0
2, 177840, Note_on_c, 1, 75, 0
2, 177840, Note_on_c, 1, 71, 0
2, 177840, Note_on_c, 1, 75, 60
2, 177840, Note_on_c, 1, 70, 60
2, 177840, Note_on_c, 1, 73, 60
2, 178200, Note_on_c, 1, 91, 48
2, 178320, Note_on_c, 1, 91, 0
2, 178320, Note_on_c, 1, 79, 45
2, 178440, Note_on_c, 1, 79, 0
2, 178440, Note_on_c, 1, 91, 49
2, 178560, Note_on_c, 1, 91, 0
2, 178560, Note_on_c, 1, 75, 0
2, 178560, Note_on_c, 1, 70, 0
2, 178560, Note_on_c, 1, 73, 0
2, 178560, Note_on_c, 1, 68, 45
2, 178560, Note_on_c, 1, 71, 45
2, 178680, Note_on_c, 1, 80, 42
2, 178800, Note_on_c, 1, 80, 0
2, 178800, Note_on_c, 1, 83, 45
2, 178920, Note_on_c, 1, 83, 0
2, 178920, Note_on_c, 1, 87, 47
2, 179040, Note_on_c, 1, 87, 0
2, 179040, Note_on_c, 1, 92, 49
2, 179160, Note_on_c, 1, 92, 0
2, 179160, Note_on_c, 1, 80, 45
2, 179280, Note_on_c, 1, 80, 0
2, 179280, Note_on_c, 1, 71, 0
2, 179280, Note_on_c, 1, 68, 0
2, 179280, Note_on_c, 1, 61, 44
2, 179280, Note_on_c, 1, 64, 44
2, 179640, Note_on_c, 1, 80, 49
2, 179760, Note_on_c, 1, 80, 0
2, 179760, Note_on_c, 1, 68, 45
2, 179880, Note_on_c, 1, 68, 0
2, 179880, Note_on_c, 1, 80, 49
2, 180000, Note_on_c, 1, 80, 0
2, 180000, Note_on_c, 1, 64, 0
2, 180000, Note_on_c, 1, 61, 0
2, 180000, Note_on_c, 1, 59, 45
2, 180000, Note_on_c, 1, 63, 45
2, 180360, Note_on_c, 1, 80, 48
2, 180480, Note_on_c, 1, 80, 0
2, 180480, Note_on_c, 1, 68, 45
2, 180600, Note_on_c, 1, 68, 0
2, 180600, Note_on_c, 1, 80, 48
2, 180720, Note_on_c, 1, 80, 0
2, 180720, Note_on_c, 1, 63, 0
2, 180720, Note_on_c, 1, 59, 0
2, 180720, Note_on_c, 1, 58, 60
2, 180720, Note_on_c, 1, 61, 60
2, 180720, Note_on_c, 1, 63, 60
2, 181080, Note_on_c, 1, 79, 48
2, 181200, Note_on_c, 1, 79, 0
2, 181200, Note_on_c, 1, 67, 45
2, 181320, Note_on_c, 1, 67, 0
2, 181320, Note_on_c, 1, 79, 49
2, 181440, Note_on_c, 1, 79, 0
2, 181440, Note_on_c, 1, 58, 0
2, 181440, Note_on_c, 1, 61, 0
2, 181440, Note_on_c, 1, 63, 0
2, 181440, Note_on_c, 1, 59, 45
2, 181440, Note_on_c, 1, 56, 45
2, 181560, Note_on_c, 1, 80, 42
2, 181680, Note_on_c, 1, 80, 0
2, 181680, Note_on_c, 1, 83, 45
2, 181800, Note_on_c, 1, 83, 0
2, 181800, Note_on_c, 1, 87, 47
2, 181920, Note_on_c, 1, 87, 0
2, 181920, Note_on_c, 1, 92, 49
2, 182040, Note_on_c, 1, 92, 0
2, 182040, Note_on_c, 1, 80, 45
2, 182160, Note_on_c, 1, 80, 0
2, 182160, Note_on_c, 1, 56, 0
2, 182160, Note_on_c, 1, 59, 0
2, 182160, Note_on_c, 1, 52, 44
2, 182160, Note_on_c, 1, 49, 44
2, 182520, Note_on_c, 1, 92, 49
2, 182640, Note_on_c, 1, 92, 0
2, 182640, Note_on_c, 1, 80, 45
2, 182760, Note_on_c, 1, 80, 0
2, 182760, Note_on_c, 1, 92, 49
2, 182880, Note_on_c, 1, 92, 0
2, 182880, Note_on_c, 1, 49, 0
2, 182880, Note_on_c, 1, 52, 0
2, 182880, Note_on_c, 1, 51, 45
2, 182880, Note_on_c, 1, 47, 45
2, 183240, Note_on_c, 1, 92, 48
2, 183360, Note_on_c, 1, 92, 0
2, 183360, Note_on_c, 1, 80, 45
2, 183480, Note_on_c, 1, 80, 0
2, 183480, Note_on_c, 1, 92, 48
2, 183600, Note_on_c, 1, 92, 0
2, 183600, Note_on_c, 1, 47, 0
2, 183600, Note_on_c, 1, 51, 0
2, 183600, Note_on_c, 1, 51, 60
2, 183600, Note_on_c, 1, 49, 60
2, 183600, Note_on_c, 1, 46, 60
2, 183960, Note_on_c, 1, 91, 48
2, 184080, Note_on_c, 1, 91, 0
2, 184080, Note_on_c, 1, 79, 45
2, 184200, Note_on_c, 1, 79, 0
2, 184200, Note_on_c, 1, 91, 49
2, 184320, Note_on_c, 1, 91, 0
2, 184320, Note_on_c, 1, 51, 0
2, 184320, Note_on_c, 1, 49, 0
2, 184320, Note_on_c, 1, 46, 0
2, 184320, Note_on_c, 1, 92, 48
2, 184320, Note_on_c, 1, 44, 48
2, 184440, Note_on_c, 1, 92, 0
2, 184440, Note_on_c, 1, 87, 45
2, 184560, Note_on_c, 1, 87, 0
2, 184560, Note_on_c, 1, 83, 44
2, 184680, Note_on_c, 1, 83, 0
2, 184680, Note_on_c, 1, 87, 39
2, 184800, Note_on_c, 1, 87, 0
2, 184800, Note_on_c, 1, 92, 42
2, 184920, Note_on_c, 1, 92, 0
2, 184920, Note_on_c, 1, 87, 39
2, 185040, Note_on_c, 1, 87, 0
2, 185040, Note_on_c, 1, 83, 46
2, 185160, Note_on_c, 1, 83, 0
2, 185160, Note_on_c, 1, 87, 41
2, 185280, Note_on_c, 1, 87, 0
2, 185280, Note_on_c, 1, 92, 41
2, 185400, Note_on_c, 1, 92, 0
2, 185400, Note_on_c, 1, 87, 37
2, 185520, Note_on_c, 1, 87, 0
2, 185520, Note_on_c, 1, 83, 40
2, 185640, Note_on_c, 1, 83, 0
2, 185640, Note_on_c, 1, 87, 36
2, 185760, Note_on_c, 1, 87, 0
2, 185760, Note_on_c, 1, 44, 0
2, 185760, Note_on_c, 1, 92, 42
2, 185760, Note_on_c, 1, 39, 38
2, 185880, Note_on_c, 1, 92, 0
2, 185880, Note_on_c, 1, 87, 39
2, 186000, Note_on_c, 1, 87, 0
2, 186000, Note_on_c, 1, 83, 39
2, 186120, Note_on_c, 1, 83, 0
2, 186120, Note_on_c, 1, 87, 35
2, 186240, Note_on_c, 1, 87, 0
2, 186240, Note_on_c, 1, 92, 38
2, 186360, Note_on_c, 1, 92, 0
2, 186360, Note_on_c, 1, 87, 34
2, 186480, Note_on_c, 1, 87, 0
2, 186480, Note_on_c, 1, 39, 0
2, 186480, Note_on_c, 1, 92, 39
2, 186480, Note_on_c, 1, 35, 30
2, 186600, Note_on_c, 1, 92, 0
2, 186600, Note_on_c, 1, 87, 35
2, 186720, Note_on_c, 1, 87, 0
2, 186720, Note_on_c, 1, 92, 37
2, 186840, Note_on_c, 1, 92, 0
2, 186840, Note_on_c, 1, 87, 31
2, 186960, Note_on_c, 1, 87, 0
2, 186960, Note_on_c, 1, 92, 36
2, 187080, Note_on_c, 1, 92, 0
2, 187080, Note_on_c, 1, 87, 30
2, 187200, Note_on_c, 1, 87, 0
2, 187200, Note_on_c, 1, 35, 0
2, 187200, Note_on_c, 1, 92, 33
2, 187200, Note_on_c, 1, 32, 27
2, 189360, Note_on_c, 1, 32, 0
2, 189360, Note_on_c, 1, 92, 0
2, 189360, Note_on_c, 1, 59, 35
2, 189360, Note_on_c, 1, 47, 27
2, 189960, Note_on_c, 1, 47, 0
2, 189960, Note_on_c, 1, 59, 0
2, 189960, Note_on_c, 1, 56, 31
2, 189960, Note_on_c, 1, 44, 25
2, 190080, Note_on_c, 1, 44, 0
2, 190080, Note_on_c, 1, 56, 0
2, 190080, Note_on_c, 1, 51, 28
2, 190080, Note_on_c, 1, 39, 22
2, 192240, Note_on_c, 1, 39, 0
2, 192240, Note_on_c, 1, 51, 0
2, 192240, Note_on_c, 1, 59, 35
2, 192240, Note_on_c, 1, 47, 27
2, 192840, Note_on_c, 1, 47, 0
2, 192840, Note_on_c, 1, 59, 0
2, 192840, Note_on_c, 1, 56, 31
2, 192840, Note_on_c, 1, 44, 25
2, 192960, Note_on_c, 1, 44, 0
2, 192960, Note_on_c, 1, 56, 0
2, 192960, Note_on_c, 1, 52, 28
2, 192960, Note_on_c, 1, 40, 22
2, 195120, Note_on_c, 1, 40, 0
2, 195120, Note_on_c, 1, 52, 0
2, 195120, Note_on_c, 1, 56, 35
2, 195120, Note_on_c, 1, 44, 27
2, 195720, Note_on_c, 1, 44, 0
2, 195720, Note_on_c, 1, 56, 0
2, 195720, Note_on_c, 1, 59, 30
2, 195720, Note_on_c, 1, 47, 24
2, 195840, Note_on_c, 1, 47, 0
2, 195840, Note_on_c, 1, 59, 0
2, 195840, Note_on_c, 1, 64, 35
2, 195840, Note_on_c, 1, 52, 27
2, 196560, Note_on_c, 1, 52, 0
2, 196560, Note_on_c, 1, 64, 0
2, 196560, Note_on_c, 1, 68, 36
2, 196560, Note_on_c, 1, 56, 28
2, 197160, Note_on_c, 1, 56, 0
2, 197160, Note_on_c, 1, 68, 0
2, 197160, Note_on_c, 1, 71, 31
2, 197160, Note_on_c, 1, 59, 25
2, 197280, Note_on_c, 1, 59, 0
2, 197280, Note_on_c, 1, 71, 0
2, 197280, Note_on_c, 1, 76, 36
2, 197280, Note_on_c, 1, 64, 28
2, 197995, Note_on_c, 1, 64, 0
2, 197995, Note_on_c, 1, 76, 0
2, 198000, Note_on_c, 1, 64, 34
2, 198000, Note_on_c, 1, 52, 27
2, 198720, Note_on_c, 1, 52, 0
2, 198720, Note_on_c, 1, 64, 0
2, 198720, Note_on_c, 1, 71, 35
2, 198720, Note_on_c, 1, 54, 26
2, 198720, Note_on_c, 1, 51, 26
2, 198720, Note_on_c, 1, 59, 26
2, 199920, Note_on_c, 1, 71, 0
2, 199920, Note_on_c, 1, 73, 33
2, 200100, Note_on_c, 1, 73, 0
2, 200100, Note_on_c, 1, 71, 34
2, 200160, Note_on_c, 1, 71, 0
2, 200160, Note_on_c, 1, 54, 0
2, 200160, Note_on_c, 1, 51, 0
2, 200160, Note_on_c, 1, 59, 0
2, 200160, Note_on_c, 1, 73, 31
2, 200160, Note_on_c, 1, 52, 26
2, 200160, Note_on_c, 1, 58, 26
2, 200160, Note_on_c, 1, 55, 26
2, 200240, Note_on_c, 1, 73, 0
2, 200240, Note_on_c, 1, 75, 27
2, 200320, Note_on_c, 1, 75, 0
2, 200320, Note_on_c, 1, 73, 31
2, 200400, Note_on_c, 1, 73, 0
2, 200400, Note_on_c, 1, 75, 27
2, 200480, Note_on_c, 1, 75, 0
2, 200480, Note_on_c, 1, 73, 31
2, 200560, Note_on_c, 1, 73, 0
2, 200560, Note_on_c, 1, 75, 28
2, 200640, Note_on_c, 1, 75, 0
2, 200640, Note_on_c, 1, 73, 31
2, 200720, Note_on_c, 1, 73, 0
2, 200720, Note_on_c, 1, 75, 27
2, 200800, Note_on_c, 1, 75, 0
2, 200800, Note_on_c, 1, 73, 31
2, 200880, Note_on_c, 1, 73, 0
2, 200880, Note_on_c, 1, 75, 28
2, 200960, Note_on_c, 1, 75, 0
2, 200960, Note_on_c, 1, 73, 26
2, 201040, Note_on_c, 1, 73, 0
2, 201040, Note_on_c, 1, 75, 31
2, 201120, Note_on_c, 1, 75, 0
2, 201120, Note_on_c, 1, 73, 26
2, 201240, Note_on_c, 1, 73, 0
2, 201240, Note_on_c, 1, 71, 30
2, 201360, Note_on_c, 1, 71, 0
2, 201360, Note_on_c, 1, 75, 35
2, 201480, Note_on_c, 1, 75, 0
2, 201480, Note_on_c, 1, 73, 31
2, 201600, Note_on_c, 1, 73, 0
2, 201600, Note_on_c, 1, 55, 0
2, 201600, Note_on_c, 1, 58, 0
2, 201600, Note_on_c, 1, 52, 0
2, 201600, Note_on_c, 1, 71, 35
2, 201600, Note_on_c, 1, 54, 22
2, 201600, Note_on_c, 1, 51, 19
2, 201600, Note_on_c, 1, 59, 26
2, 202080, Note_on_c, 1, 59, 0
2, 202080, Note_on_c, 1, 71, 0
2, 202080, Note_on_c, 1, 54, 0
2, 202080, Note_on_c, 1, 51, 0
2, 204480, Note_on_c, 1, 78, 35
2, 204480, Note_on_c, 1, 73, 26
2, 204480, Note_on_c, 1, 69, 26
2, 205680, Note_on_c, 1, 78, 0
2, 205680, Note_on_c, 1, 80, 35
2, 205920, Note_on_c, 1, 80, 0
2, 205920, Note_on_c, 1, 69, 0
2, 205920, Note_on_c, 1, 73, 0
2, 205920, Note_on_c, 1, 77, 35
2, 205920, Note_on_c, 1, 80, 44
2, 205920, Note_on_c, 1, 71, 28
2, 205920, Note_on_c, 1, 74, 28
2, 206000, Note_on_c, 1, 80, 0
2, 206000, Note_on_c, 1, 81, 35
2, 206080, Note_on_c, 1, 81, 0
2, 206080, Note_on_c, 1, 80, 40
2, 206160, Note_on_c, 1, 80, 0
2, 206160, Note_on_c, 1, 81, 36
2, 206240, Note_on_c, 1, 81, 0
2, 206240, Note_on_c, 1, 80, 39
2, 206320, Note_on_c, 1, 80, 0
2, 206320, Note_on_c, 1, 81, 36
2, 206400, Note_on_c, 1, 81, 0
2, 206400, Note_on_c, 1, 80, 38
2, 206480, Note_on_c, 1, 80, 0
2, 206480, Note_on_c, 1, 81, 34
2, 206560, Note_on_c, 1, 81, 0
2, 206560, Note_on_c, 1, 80, 37
2, 206640, Note_on_c, 1, 80, 0
2, 206640, Note_on_c, 1, 81, 35
2, 206720, Note_on_c, 1, 81, 0
2, 206720, Note_on_c, 1, 80, 31
2, 206800, Note_on_c, 1, 80, 0
2, 206800, Note_on_c, 1, 81, 36
2, 206880, Note_on_c, 1, 81, 0
2, 206880, Note_on_c, 1, 80, 33
2, 207000, Note_on_c, 1, 80, 0
2, 207000, Note_on_c, 1, 78, 33
2, 207120, Note_on_c, 1, 78, 0
2, 207120, Note_on_c, 1, 81, 37
2, 207240, Note_on_c, 1, 81, 0
2, 207240, Note_on_c, 1, 80, 33
2, 207360, Note_on_c, 1, 80, 0
2, 207360, Note_on_c, 1, 74, 0
2, 207360, Note_on_c, 1, 71, 0
2, 207360, Note_on_c, 1, 77, 0
2, 207360, Note_on_c, 1, 78, 35
2, 207360, Note_on_c, 1, 69, 22
2, 207360, Note_on_c, 1, 73, 26
2, 207840, Note_on_c, 1, 73, 0
2, 207840, Note_on_c, 1, 69, 0
2, 207840, Note_on_c, 1, 78, 0
2, 210240, Note_on_c, 1, 64, 35
2, 210240, Note_on_c, 1, 59, 26
2, 210240, Note_on_c, 1, 56, 26
2, 211440, Note_on_c, 1, 64, 0
2, 211440, Note_on_c, 1, 66, 35
2, 211680, Note_on_c, 1, 66, 0
2, 211680, Note_on_c, 1, 56, 0
2, 211680, Note_on_c, 1, 59, 0
2, 211680, Note_on_c, 1, 63, 35
2, 211680, Note_on_c, 1, 66, 44
2, 211680, Note_on_c, 1, 57, 28
2, 211680, Note_on_c, 1, 60, 28
2, 211760, Note_on_c, 1, 66, 0
2, 211760, Note_on_c, 1, 68, 35
2, 211840, Note_on_c, 1, 68, 0
2, 211840, Note_on_c, 1, 66, 40
2, 211920, Note_on_c, 1, 66, 0
2, 211920, Note_on_c, 1, 68, 36
2, 212000, Note_on_c, 1, 68, 0
2, 212000, Note_on_c, 1, 66, 39
2, 212080, Note_on_c, 1, 66, 0
2, 212080, Note_on_c, 1, 68, 36
2, 212160, Note_on_c, 1, 68, 0
2, 212160, Note_on_c, 1, 66, 39
2, 212240, Note_on_c, 1, 66, 0
2, 212240, Note_on_c, 1, 68, 35
2, 212320, Note_on_c, 1, 68, 0
2, 212320, Note_on_c, 1, 66, 39
2, 212400, Note_on_c, 1, 66, 0
2, 212400, Note_on_c, 1, 68, 35
2, 212480, Note_on_c, 1, 68, 0
2, 212480, Note_on_c, 1, 66, 31
2, 212560, Note_on_c, 1, 66, 0
2, 212560, Note_on_c, 1, 68, 36
2, 212640, Note_on_c, 1, 68, 0
2, 212640, Note_on_c, 1, 66, 33
2, 212760, Note_on_c, 1, 66, 0
2, 212760, Note_on_c, 1, 64, 33
2, 212880, Note_on_c, 1, 64, 0
2, 212880, Note_on_c, 1, 68, 37
2, 213000, Note_on_c, 1, 68, 0
2, 213000, Note_on_c, 1, 66, 33
2, 213120, Note_on_c, 1, 66, 0
2, 213120, Note_on_c, 1, 60, 0
2, 213120, Note_on_c, 1, 57, 0
2, 213120, Note_on_c, 1, 63, 0
2, 213120, Note_on_c, 1, 64, 35
2, 213120, Note_on_c, 1, 56, 22
2, 213120, Note_on_c, 1, 59, 26
2, 213840, Note_on_c, 1, 59, 0
2, 213840, Note_on_c, 1, 56, 0
2, 213840, Note_on_c, 1, 64, 0
2, 213840, Note_on_c, 1, 57, 45
2, 213840, Note_on_c, 1, 61, 45
2, 213840, Note_on_c, 1, 69, 53
2, 213840, Note_on_c, 1, 42, 44
2, 215280, Note_on_c, 1, 42, 0
2, 215280, Note_on_c, 1, 57, 0
2, 215280, Note_on_c, 1, 61, 0
2, 215280, Note_on_c, 1, 69, 0
2, 215280, Note_on_c, 1, 57, 36
2, 215280, Note_on_c, 1, 61, 36
2, 215280, Note_on_c, 1, 66, 44
2, 215280, Note_on_c, 1, 45, 40
2, 215880, Note_on_c, 1, 66, 0
2, 215880, Note_on_c, 1, 68, 39
2, 216000, Note_on_c, 1, 68, 0
2, 216000, Note_on_c, 1, 45, 0
2, 216000, Note_on_c, 1, 61, 0
2, 216000, Note_on_c, 1, 57, 0
2, 216000, Note_on_c, 1, 64, 42
2, 216000, Note_on_c, 1, 56, 35
2, 216000, Note_on_c, 1, 59, 35
2, 216000, Note_on_c, 1, 47, 35
2, 217440, Note_on_c, 1, 47, 0
2, 217440, Note_on_c, 1, 64, 0
2, 217440, Note_on_c, 1, 56, 0
2, 217440, Note_on_c, 1, 59, 0
2, 217440, Note_on_c, 1, 63, 36
2, 217440, Note_on_c, 1, 57, 30
2, 217440, Note_on_c, 1, 54, 30
2, 217440, Note_on_c, 1, 35, 30
2, 218880, Note_on_c, 1, 35, 0
2, 218880, Note_on_c, 1, 63, 0
2, 218880, Note_on_c, 1, 57, 0
2, 218880, Note_on_c, 1, 54, 0
2, 218880, Note_on_c, 1, 76, 35
2, 218880, Note_on_c, 1, 71, 26
2, 218880, Note_on_c, 1, 68, 26
2, 220080, Note_on_c, 1, 76, 0
2, 220080, Note_on_c, 1, 78, 35
2, 220320, Note_on_c, 1, 78, 0
2, 220320, Note_on_c, 1, 68, 0
2, 220320, Note_on_c, 1, 71, 0
2, 220320, Note_on_c, 1, 78, 36
2, 220320, Note_on_c, 1, 75, 29
2, 220320, Note_on_c, 1, 69, 28
2, 220320, Note_on_c, 1, 72, 28
2, 220400, Note_on_c, 1, 78, 0
2, 220400, Note_on_c, 1, 80, 33
2, 220480, Note_on_c, 1, 80, 0
2, 220480, Note_on_c, 1, 78, 36
2, 220560, Note_on_c, 1, 78, 0
2, 220560, Note_on_c, 1, 80, 34
2, 220640, Note_on_c, 1, 80, 0
2, 220640, Note_on_c, 1, 78, 36
2, 220720, Note_on_c, 1, 78, 0
2, 220720, Note_on_c, 1, 80, 34
2, 220800, Note_on_c, 1, 80, 0
2, 220800, Note_on_c, 1, 78, 36
2, 220880, Note_on_c, 1, 78, 0
2, 220880, Note_on_c, 1, 80, 32
2, 220960, Note_on_c, 1, 80, 0
2, 220960, Note_on_c, 1, 78, 36
2, 221040, Note_on_c, 1, 78, 0
2, 221040, Note_on_c, 1, 80, 33
2, 221120, Note_on_c, 1, 80, 0
2, 221120, Note_on_c, 1, 78, 30
2, 221200, Note_on_c, 1, 78, 0
2, 221200, Note_on_c, 1, 80, 34
2, 221280, Note_on_c, 1, 80, 0
2, 221280, Note_on_c, 1, 78, 31
2, 221400, Note_on_c, 1, 78, 0
2, 221400, Note_on_c, 1, 76, 33
2, 221520, Note_on_c, 1, 76, 0
2, 221520, Note_on_c, 1, 80, 37
2, 221640, Note_on_c, 1, 80, 0
2, 221640, Note_on_c, 1, 78, 33
2, 221760, Note_on_c, 1, 78, 0
2, 221760, Note_on_c, 1, 72, 0
2, 221760, Note_on_c, 1, 69, 0
2, 221760, Note_on_c, 1, 75, 0
2, 221760, Note_on_c, 1, 76, 35
2, 221760, Note_on_c, 1, 68, 22
2, 221760, Note_on_c, 1, 71, 26
2, 222480, Note_on_c, 1, 71, 0
2, 222480, Note_on_c, 1, 68, 0
2, 222480, Note_on_c, 1, 76, 0
2, 222480, Note_on_c, 1, 69, 45
2, 222480, Note_on_c, 1, 73, 45
2, 222480, Note_on_c, 1, 81, 53
2, 222480, Note_on_c, 1, 66, 44
2, 222480, Note_on_c, 1, 54, 38
2, 223920, Note_on_c, 1, 54, 0
2, 223920, Note_on_c, 1, 81, 0
2, 223920, Note_on_c, 1, 69, 0
2, 223920, Note_on_c, 1, 73, 0
2, 223920, Note_on_c, 1, 66, 0
2, 223920, Note_on_c, 1, 69, 36
2, 223920, Note_on_c, 1, 73, 36
2, 223920, Note_on_c, 1, 78, 44
2, 223920, Note_on_c, 1, 57, 40
2, 224520, Note_on_c, 1, 78, 0
2, 224520, Note_on_c, 1, 80, 39
2, 224640, Note_on_c, 1, 80, 0
2, 224640, Note_on_c, 1, 57, 0
2, 224640, Note_on_c, 1, 73, 0
2, 224640, Note_on_c, 1, 69, 0
2, 224640, Note_on_c, 1, 68, 35
2, 224640, Note_on_c, 1, 76, 42
2, 224640, Note_on_c, 1, 71, 35
2, 224640, Note_on_c, 1, 59, 35
2, 226080, Note_on_c, 1, 59, 0
2, 226080, Note_on_c, 1, 68, 0
2, 226080, Note_on_c, 1, 76, 0
2, 226080, Note_on_c, 1, 71, 0
2, 226080, Note_on_c, 1, 75, 36
2, 226080, Note_on_c, 1, 69, 30
2, 226080, Note_on_c, 1, 66, 30
2, 226080, Note_on_c, 1, 47, 30
2, 226560, Note_on_c, 1, 47, 0
2, 226560, Note_on_c, 1, 75, 0
2, 226560, Note_on_c, 1, 69, 0
2, 226560, Note_on_c, 1, 66, 0
2, 226800, Note_on_c, 1, 47, 83
2, 227400, Note_on_c, 1, 47, 0
2, 227400, Note_on_c, 1, 43, 75
2, 227520, Note_on_c, 1, 43, 0
2, 227520, Note_on_c, 1, 71, 70
2, 227520, Note_on_c, 1, 40, 80
2, 227640, Note_on_c, 1, 71, 0
2, 227640, Note_on_c, 1, 67, 61
2, 227760, Note_on_c, 1, 67, 0
2, 227760, Note_on_c, 1, 71, 70
2, 227880, Note_on_c, 1, 71, 0
2, 227880, Note_on_c, 1, 67, 60
2, 228000, Note_on_c, 1, 67, 0
2, 228000, Note_on_c, 1, 71, 70
2, 228120, Note_on_c, 1, 71, 0
2, 228120, Note_on_c, 1, 67, 61
2, 228240, Note_on_c, 1, 67, 0
2, 228240, Note_on_c, 1, 71, 70
2, 228360, Note_on_c, 1, 71, 0
2, 228360, Note_on_c, 1, 67, 60
2, 228480, Note_on_c, 1, 67, 0
2, 228480, Note_on_c, 1, 71, 70
2, 228600, Note_on_c, 1, 71, 0
2, 228600, Note_on_c, 1, 67, 60
2, 228720, Note_on_c, 1, 67, 0
2, 228720, Note_on_c, 1, 71, 70
2, 228840, Note_on_c, 1, 71, 0
2, 228840, Note_on_c, 1, 67, 59
2, 228960, Note_on_c, 1, 67, 0
2, 228960, Note_on_c, 1, 71, 70
2, 229080, Note_on_c, 1, 71, 0
2, 229080, Note_on_c, 1, 67, 61
2, 229200, Note_on_c, 1, 67, 0
2, 229200, Note_on_c, 1, 71, 70
2, 229320, Note_on_c, 1, 71, 0
2, 229320, Note_on_c, 1, 67, 60
2, 229440, Note_on_c, 1, 67, 0
2, 229440, Note_on_c, 1, 71, 70
2, 229560, Note_on_c, 1, 71, 0
2, 229560, Note_on_c, 1, 67, 61
2, 229680, Note_on_c, 1, 67, 0
2, 229680, Note_on_c, 1, 40, 0
2, 229680, Note_on_c, 1, 71, 70
2, 229680, Note_on_c, 1, 43, 81
2, 229800, Note_on_c, 1, 71, 0
2, 229800, Note_on_c, 1, 67, 60
2, 229920, Note_on_c, 1, 67, 0
2, 229920, Note_on_c, 1, 71, 70
2, 230040, Note_on_c, 1, 71, 0
2, 230040, Note_on_c, 1, 67, 60
2, 230160, Note_on_c, 1, 67, 0
2, 230160, Note_on_c, 1, 71, 70
2, 230280, Note_on_c, 1, 71, 0
2, 230280, Note_on_c, 1, 43, 0
2, 230280, Note_on_c, 1, 67, 59
2, 230280, Note_on_c, 1, 47, 73
2, 230400, Note_on_c, 1, 47, 0
2, 230400, Note_on_c, 1, 67, 0
2, 230400, Note_on_c, 1, 71, 70
2, 230400, Note_on_c, 1, 52, 81
2, 230520, Note_on_c, 1, 71, 0
2, 230520, Note_on_c, 1, 67, 61
2, 230640, Note_on_c, 1, 67, 0
2, 230640, Note_on_c, 1, 71, 70
2, 230760, Note_on_c, 1, 71, 0
2, 230760, Note_on_c, 1, 67, 60
2, 230880, Note_on_c, 1, 67, 0
2, 230880, Note_on_c, 1, 71, 70
2, 231000, Note_on_c, 1, 71, 0
2, 231000, Note_on_c, 1, 67, 61
2, 231120, Note_on_c, 1, 67, 0
2, 231120, Note_on_c, 1, 52, 0
2, 231120, Note_on_c, 1, 71, 70
2, 231120, Note_on_c, 1, 55, 83
2, 231240, Note_on_c, 1, 71, 0
2, 231240, Note_on_c, 1, 67, 60
2, 231360, Note_on_c, 1, 67, 0
2, 231360, Note_on_c, 1, 71, 70
2, 231480, Note_on_c, 1, 71, 0
2, 231480, Note_on_c, 1, 67, 60
2, 231600, Note_on_c, 1, 67, 0
2, 231600, Note_on_c, 1, 71, 70
2, 231720, Note_on_c, 1, 71, 0
2, 231720, Note_on_c, 1, 55, 0
2, 231720, Note_on_c, 1, 67, 59
2, 231720, Note_on_c, 1, 59, 73
2, 231840, Note_on_c, 1, 59, 0
2, 231840, Note_on_c, 1, 67, 0
2, 231840, Note_on_c, 1, 71, 70
2, 231840, Note_on_c, 1, 64, 82
2, 231960, Note_on_c, 1, 71, 0
2, 231960, Note_on_c, 1, 67, 61
2, 232080, Note_on_c, 1, 67, 0
2, 232080, Note_on_c, 1, 71, 70
2, 232200, Note_on_c, 1, 71, 0
2, 232200, Note_on_c, 1, 67, 60
2, 232320, Note_on_c, 1, 67, 0
2, 232320, Note_on_c, 1, 71, 70
2, 232440, Note_on_c, 1, 71, 0
2, 232440, Note_on_c, 1, 67, 61
2, 232560, Note_on_c, 1, 67, 0
2, 232560, Note_on_c, 1, 64, 0
2, 232560, Note_on_c, 1, 71, 70
2, 232560, Note_on_c, 1, 64, 79
2, 232680, Note_on_c, 1, 71, 0
2, 232680, Note_on_c, 1, 67, 60
2, 232800, Note_on_c, 1, 67, 0
2, 232800, Note_on_c, 1, 71, 70
2, 232920, Note_on_c, 1, 71, 0
2, 232920, Note_on_c, 1, 67, 60
2, 233040, Note_on_c, 1, 67, 0
2, 233040, Note_on_c, 1, 71, 70
2, 233160, Note_on_c, 1, 71, 0
2, 233160, Note_on_c, 1, 67, 59
2, 233280, Note_on_c, 1, 67, 0
2, 233280, Note_on_c, 1, 64, 0
2, 233280, Note_on_c, 1, 65, 83
2, 233424, Note_on_c, 1, 65, 0
2, 233424, Note_on_c, 1, 67, 67
2, 233568, Note_on_c, 1, 67, 0
2, 233568, Note_on_c, 1, 71, 70
2, 233712, Note_on_c, 1, 71, 0
2, 233712, Note_on_c, 1, 67, 68
2, 233856, Note_on_c, 1, 67, 0
2, 233856, Note_on_c, 1, 65, 68
2, 234000, Note_on_c, 1, 65, 0
2, 234000, Note_on_c, 1, 62, 81
2, 234144, Note_on_c, 1, 62, 0
2, 234144, Note_on_c, 1, 65, 67
2, 234288, Note_on_c, 1, 65, 0
2, 234288, Note_on_c, 1, 67, 70
2, 234432, Note_on_c, 1, 67, 0
2, 234432, Note_on_c, 1, 65, 68
2, 234576, Note_on_c, 1, 65, 0
2, 234576, Note_on_c, 1, 62, 68
2, 234720, Note_on_c, 1, 62, 0
2, 234720, Note_on_c, 1, 59, 77
2, 234864, Note_on_c, 1, 59, 0
2, 234864, Note_on_c, 1, 62, 62
2, 235008, Note_on_c, 1, 62, 0
2, 235008, Note_on_c, 1, 65, 67
2, 235152, Note_on_c, 1, 65, 0
2, 235152, Note_on_c, 1, 62, 63
2, 235296, Note_on_c, 1, 62, 0
2, 235296, Note_on_c, 1, 59, 63
2, 235440, Note_on_c, 1, 59, 0
2, 235440, Note_on_c, 1, 71, 89
2, 235440, Note_on_c, 1, 55, 70
2, 235584, Note_on_c, 1, 55, 0
2, 235584, Note_on_c, 1, 59, 59
2, 235728, Note_on_c, 1, 59, 0
2, 235728, Note_on_c, 1, 62, 62
2, 235872, Note_on_c, 1, 62, 0
2, 235872, Note_on_c, 1, 59, 60
2, 236016, Note_on_c, 1, 59, 0
2, 236016, Note_on_c, 1, 55, 60
2, 236040, Note_on_c, 1, 71, 0
2, 236040, Note_on_c, 1, 74, 80
2, 236160, Note_on_c, 1, 74, 0
2, 236160, Note_on_c, 1, 55, 0
2, 236160, Note_on_c, 1, 79, 89
2, 236160, Note_on_c, 1, 53, 70
2, 236304, Note_on_c, 1, 53, 0
2, 236304, Note_on_c, 1, 55, 59
2, 236448, Note_on_c, 1, 55, 0
2, 236448, Note_on_c, 1, 59, 62
2, 236592, Note_on_c, 1, 59, 0
2, 236592, Note_on_c, 1, 55, 60
2, 236736, Note_on_c, 1, 55, 0
2, 236736, Note_on_c, 1, 53, 60
2, 236880, Note_on_c, 1, 53, 0
2, 236880, Note_on_c, 1, 79, 0
2, 236880, Note_on_c, 1, 83, 91
2, 236880, Note_on_c, 1, 50, 70
2, 237024, Note_on_c, 1, 50, 0
2, 237024, Note_on_c, 1, 53, 59
2, 237168, Note_on_c, 1, 53, 0
2, 237168, Note_on_c, 1, 55, 62
2, 237312, Note_on_c, 1, 55, 0
2, 237312, Note_on_c, 1, 53, 60
2, 237456, Note_on_c, 1, 53, 0
2, 237456, Note_on_c, 1, 50, 60
2, 237480, Note_on_c, 1, 83, 0
2, 237480, Note_on_c, 1, 86, 80
2, 237600, Note_on_c, 1, 86, 0
2, 237600, Note_on_c, 1, 50, 0
2, 237600, Note_on_c, 1, 79, 82
2, 237600, Note_on_c, 1, 91, 90
2, 237600, Note_on_c, 1, 47, 70
2, 237720, Note_on_c, 1, 47, 0
2, 237720, Note_on_c, 1, 50, 59
2, 237840, Note_on_c, 1, 50, 0
2, 237840, Note_on_c, 1, 53, 60
2, 237960, Note_on_c, 1, 53, 0
2, 237960, Note_on_c, 1, 50, 66
2, 238080, Note_on_c, 1, 50, 0
2, 238080, Note_on_c, 1, 47, 59
2, 238200, Note_on_c, 1, 47, 0
2, 238200, Note_on_c, 1, 43, 60
2, 238320, Note_on_c, 1, 43, 0
2, 238320, Note_on_c, 1, 91, 0
2, 238320, Note_on_c, 1, 79, 0
2, 238320, Note_on_c, 1, 91, 86
2, 238320, Note_on_c, 1, 79, 79
2, 238320, Note_on_c, 1, 41, 70
2, 238440, Note_on_c, 1, 41, 0
2, 238440, Note_on_c, 1, 43, 60
2, 238560, Note_on_c, 1, 43, 0
2, 238560, Note_on_c, 1, 47, 60
2, 238680, Note_on_c, 1, 47, 0
2, 238680, Note_on_c, 1, 43, 66
2, 238800, Note_on_c, 1, 43, 0
2, 238800, Note_on_c, 1, 41, 66
2, 238920, Note_on_c, 1, 41, 0
2, 238920, Note_on_c, 1, 38, 60
2, 239040, Note_on_c, 1, 38, 0
2, 239040, Note_on_c, 1, 79, 0
2, 239040, Note_on_c, 1, 91, 0
2, 239040, Note_on_c, 1, 79, 91
2, 239040, Note_on_c, 1, 91, 91
2, 239040, Note_on_c, 1, 36, 80
2, 239184, Note_on_c, 1, 91, 0
2, 239184, Note_on_c, 1, 79, 0
2, 239184, Note_on_c, 1, 87, 73
2, 239328, Note_on_c, 1, 87, 0
2, 239328, Note_on_c, 1, 91, 77
2, 239472, Note_on_c, 1, 91, 0
2, 239472, Note_on_c, 1, 87, 74
2, 239616, Note_on_c, 1, 87, 0
2, 239616, Note_on_c, 1, 84, 74
2, 239760, Note_on_c, 1, 84, 0
2, 239760, Note_on_c, 1, 79, 91
2, 239904, Note_on_c, 1, 79, 0
2, 239904, Note_on_c, 1, 84, 73
2, 240048, Note_on_c, 1, 84, 0
2, 240048, Note_on_c, 1, 87, 77
2, 240192, Note_on_c, 1, 87, 0
2, 240192, Note_on_c, 1, 84, 74
2, 240336, Note_on_c, 1, 84, 0
2, 240336, Note_on_c, 1, 79, 74
2, 240480, Note_on_c, 1, 79, 0
2, 240480, Note_on_c, 1, 75, 91
2, 240624, Note_on_c, 1, 75, 0
2, 240624, Note_on_c, 1, 79, 73
2, 240768, Note_on_c, 1, 79, 0
2, 240768, Note_on_c, 1, 84, 77
2, 240912, Note_on_c, 1, 84, 0
2, 240912, Note_on_c, 1, 79, 74
2, 241056, Note_on_c, 1, 79, 0
2, 241056, Note_on_c, 1, 75, 74
2, 241200, Note_on_c, 1, 75, 0
2, 241200, Note_on_c, 1, 36, 0
2, 241200, Note_on_c, 1, 72, 91
2, 241200, Note_on_c, 1, 39, 81
2, 241344, Note_on_c, 1, 72, 0
2, 241344, Note_on_c, 1, 75, 73
2, 241488, Note_on_c, 1, 75, 0
2, 241488, Note_on_c, 1, 79, 77
2, 241632, Note_on_c, 1, 79, 0
2, 241632, Note_on_c, 1, 75, 74
2, 241776, Note_on_c, 1, 75, 0
2, 241776, Note_on_c, 1, 72, 74
2, 241800, Note_on_c, 1, 39, 0
2, 241800, Note_on_c, 1, 43, 73
2, 241920, Note_on_c, 1, 43, 0
2, 241920, Note_on_c, 1, 72, 0
2, 241920, Note_on_c, 1, 67, 91
2, 241920, Note_on_c, 1, 48, 81
2, 242064, Note_on_c, 1, 67, 0
2, 242064, Note_on_c, 1, 72, 73
2, 242208, Note_on_c, 1, 72, 0
2, 242208, Note_on_c, 1, 75, 77
2, 242352, Note_on_c, 1, 75, 0
2, 242352, Note_on_c, 1, 72, 74
2, 242496, Note_on_c, 1, 72, 0
2, 242496, Note_on_c, 1, 67, 74
2, 242640, Note_on_c, 1, 67, 0
2, 242640, Note_on_c, 1, 48, 0
2, 242640, Note_on_c, 1, 63, 91
2, 242640, Note_on_c, 1, 51, 83
2, 242784, Note_on_c, 1, 63, 0
2, 242784, Note_on_c, 1, 67, 73
2, 242928, Note_on_c, 1, 67, 0
2, 242928, Note_on_c, 1, 72, 77
2, 243072, Note_on_c, 1, 72, 0
2, 243072, Note_on_c, 1, 67, 74
2, 243216, Note_on_c, 1, 67, 0
2, 243216, Note_on_c, 1, 63, 74
2, 243240, Note_on_c, 1, 51, 0
2, 243240, Note_on_c, 1, 55, 73
2, 243360, Note_on_c, 1, 55, 0
2, 243360, Note_on_c, 1, 63, 0
2, 243360, Note_on_c, 1, 63, 91
2, 243360, Note_on_c, 1, 60, 82
2, 243504, Note_on_c, 1, 63, 0
2, 243504, Note_on_c, 1, 67, 73
2, 243648, Note_on_c, 1, 67, 0
2, 243648, Note_on_c, 1, 72, 77
2, 243792, Note_on_c, 1, 72, 0
2, 243792, Note_on_c, 1, 67, 74
2, 243936, Note_on_c, 1, 67, 0
2, 243936, Note_on_c, 1, 63, 74
2, 244080, Note_on_c, 1, 63, 0
2, 244080, Note_on_c, 1, 60, 0
2, 244080, Note_on_c, 1, 63, 91
2, 244080, Note_on_c, 1, 60, 79
2, 244224, Note_on_c, 1, 63, 0
2, 244224, Note_on_c, 1, 67, 73
2, 244368, Note_on_c, 1, 67, 0
2, 244368, Note_on_c, 1, 72, 77
2, 244512, Note_on_c, 1, 72, 0
2, 244512, Note_on_c, 1, 67, 74
2, 244656, Note_on_c, 1, 67, 0
2, 244656, Note_on_c, 1, 63, 74
2, 244800, Note_on_c, 1, 63, 0
2, 244800, Note_on_c, 1, 60, 0
2, 244800, Note_on_c, 1, 61, 83
2, 244944, Note_on_c, 1, 61, 0
2, 244944, Note_on_c, 1, 63, 67
2, 245088, Note_on_c, 1, 63, 0
2, 245088, Note_on_c, 1, 67, 70
2, 245232, Note_on_c, 1, 67, 0
2, 245232, Note_on_c, 1, 63, 68
2, 245376, Note_on_c, 1, 63, 0
2, 245376, Note_on_c, 1, 61, 68
2, 245520, Note_on_c, 1, 61, 0
2, 245520, Note_on_c, 1, 58, 81
2, 245664, Note_on_c, 1, 58, 0
2, 245664, Note_on_c, 1, 61, 67
2, 245808, Note_on_c, 1, 61, 0
2, 245808, Note_on_c, 1, 63, 70
2, 245952, Note_on_c, 1, 63, 0
2, 245952, Note_on_c, 1, 61, 68
2, 246096, Note_on_c, 1, 61, 0
2, 246096, Note_on_c, 1, 58, 68
2, 246240, Note_on_c, 1, 58, 0
2, 246240, Note_on_c, 1, 55, 77
2, 246384, Note_on_c, 1, 55, 0
2, 246384, Note_on_c, 1, 58, 62
2, 246528, Note_on_c, 1, 58, 0
2, 246528, Note_on_c, 1, 61, 67
2, 246672, Note_on_c, 1, 61, 0
2, 246672, Note_on_c, 1, 58, 63
2, 246816, Note_on_c, 1, 58, 0
2, 246816, Note_on_c, 1, 55, 63
2, 246960, Note_on_c, 1, 55, 0
2, 246960, Note_on_c, 1, 67, 89
2, 246960, Note_on_c, 1, 51, 70
2, 247104, Note_on_c, 1, 51, 0
2, 247104, Note_on_c, 1, 55, 59
2, 247248, Note_on_c, 1, 55, 0
2, 247248, Note_on_c, 1, 58, 62
2, 247392, Note_on_c, 1, 58, 0
2, 247392, Note_on_c, 1, 55, 60
2, 247536, Note_on_c, 1, 55, 0
2, 247536, Note_on_c, 1, 51, 60
2, 247560, Note_on_c, 1, 67, 0
2, 247560, Note_on_c, 1, 70, 80
2, 247680, Note_on_c, 1, 70, 0
2, 247680, Note_on_c, 1, 51, 0
2, 247680, Note_on_c, 1, 75, 89
2, 247680, Note_on_c, 1, 49, 70
2, 247824, Note_on_c, 1, 49, 0
2, 247824, Note_on_c, 1, 51, 59
2, 247968, Note_on_c, 1, 51, 0
2, 247968, Note_on_c, 1, 55, 62
2, 248112, Note_on_c, 1, 55, 0
2, 248112, Note_on_c, 1, 51, 60
2, 248256, Note_on_c, 1, 51, 0
2, 248256, Note_on_c, 1, 49, 60
2, 248400, Note_on_c, 1, 49, 0
2, 248400, Note_on_c, 1, 75, 0
2, 248400, Note_on_c, 1, 79, 91
2, 248400, Note_on_c, 1, 46, 70
2, 248544, Note_on_c, 1, 46, 0
2, 248544, Note_on_c, 1, 49, 59
2, 248688, Note_on_c, 1, 49, 0
2, 248688, Note_on_c, 1, 51, 62
2, 248832, Note_on_c, 1, 51, 0
2, 248832, Note_on_c, 1, 49, 60
2, 248976, Note_on_c, 1, 49, 0
2, 248976, Note_on_c, 1, 46, 60
2, 249000, Note_on_c, 1, 79, 0
2, 249000, Note_on_c, 1, 82, 80
2, 249120, Note_on_c, 1, 82, 0
2, 249120, Note_on_c, 1, 46, 0
2, 249120, Note_on_c, 1, 75, 82
2, 249120, Note_on_c, 1, 87, 90
2, 249120, Note_on_c, 1, 43, 70
2, 249240, Note_on_c, 1, 43, 0
2, 249240, Note_on_c, 1, 46, 59
2, 249360, Note_on_c, 1, 46, 0
2, 249360, Note_on_c, 1, 49, 60
2, 249480, Note_on_c, 1, 49, 0
2, 249480, Note_on_c, 1, 46, 66
2, 249600, Note_on_c, 1, 46, 0
2, 249600, Note_on_c, 1, 43, 59
2, 249720, Note_on_c, 1, 43, 0
2, 249720, Note_on_c, 1, 39, 60
2, 249840, Note_on_c, 1, 39, 0
2, 249840, Note_on_c, 1, 87, 0
2, 249840, Note_on_c, 1, 75, 0
2, 249840, Note_on_c, 1, 75, 79
2, 249840, Note_on_c, 1, 87, 86
2, 249840, Note_on_c, 1, 37, 70
2, 249960, Note_on_c, 1, 37, 0
2, 249960, Note_on_c, 1, 39, 60
2, 250080, Note_on_c, 1, 39, 0
2, 250080, Note_on_c, 1, 43, 60
2, 250200, Note_on_c, 1, 43, 0
2, 250200, Note_on_c, 1, 39, 66
2, 250320, Note_on_c, 1, 39, 0
2, 250320, Note_on_c, 1, 37, 66
2, 250440, Note_on_c, 1, 37, 0
2, 250440, Note_on_c, 1, 34, 60
2, 250560, Note_on_c, 1, 34, 0
2, 250560, Note_on_c, 1, 87, 0
2, 250560, Note_on_c, 1, 75, 0
2, 250560, Note_on_c, 1, 87, 100
2, 250560, Note_on_c, 1, 32, 80
2, 250704, Note_on_c, 1, 87, 0
2, 250704, Note_on_c, 1, 92, 80
2, 250848, Note_on_c, 1, 92, 0
2, 250848, Note_on_c, 1, 96, 83
2, 250992, Note_on_c, 1, 96, 0
2, 250992, Note_on_c, 1, 92, 81
2, 251136, Note_on_c, 1, 92, 0
2, 251136, Note_on_c, 1, 87, 80
2, 251280, Note_on_c, 1, 87, 0
2, 251280, Note_on_c, 1, 84, 97
2, 251424, Note_on_c, 1, 84, 0
2, 251424, Note_on_c, 1, 87, 78
2, 251568, Note_on_c, 1, 87, 0
2, 251568, Note_on_c, 1, 92, 81
2, 251712, Note_on_c, 1, 92, 0
2, 251712, Note_on_c, 1, 87, 79
2, 251856, Note_on_c, 1, 87, 0
2, 251856, Note_on_c, 1, 84, 75
2, 252000, Note_on_c, 1, 84, 0
2, 252000, Note_on_c, 1, 80, 95
2, 252144, Note_on_c, 1, 80, 0
2, 252144, Note_on_c, 1, 84, 77
2, 252288, Note_on_c, 1, 84, 0
2, 252288, Note_on_c, 1, 87, 79
2, 252432, Note_on_c, 1, 87, 0
2, 252432, Note_on_c, 1, 84, 77
2, 252576, Note_on_c, 1, 84, 0
2, 252576, Note_on_c, 1, 80, 77
2, 252720, Note_on_c, 1, 80, 0
2, 252720, Note_on_c, 1, 32, 0
2, 252720, Note_on_c, 1, 75, 93
2, 252720, Note_on_c, 1, 36, 81
2, 252864, Note_on_c, 1, 75, 0
2, 252864, Note_on_c, 1, 80, 74
2, 253008, Note_on_c, 1, 80, 0
2, 253008, Note_on_c, 1, 84, 78
2, 253152, Note_on_c, 1, 84, 0
2, 253152, Note_on_c, 1, 80, 74
2, 253296, Note_on_c, 1, 80, 0
2, 253296, Note_on_c, 1, 75, 74
2, 253320, Note_on_c, 1, 36, 0
2, 253320, Note_on_c, 1, 39, 73
2, 253440, Note_on_c, 1, 39, 0
2, 253440, Note_on_c, 1, 75, 0
2, 253440, Note_on_c, 1, 72, 91
2, 253440, Note_on_c, 1, 44, 81
2, 253584, Note_on_c, 1, 72, 0
2, 253584, Note_on_c, 1, 75, 73
2, 253728, Note_on_c, 1, 75, 0
2, 253728, Note_on_c, 1, 80, 77
2, 253872, Note_on_c, 1, 80, 0
2, 253872, Note_on_c, 1, 75, 74
2, 254016, Note_on_c, 1, 75, 0
2, 254016, Note_on_c, 1, 72, 74
2, 254160, Note_on_c, 1, 72, 0
2, 254160, Note_on_c, 1, 44, 0
2, 254160, Note_on_c, 1, 68, 91
2, 254160, Note_on_c, 1, 48, 83
2, 254304, Note_on_c, 1, 68, 0
2, 254304, Note_on_c, 1, 72, 73
2, 254448, Note_on_c, 1, 72, 0
2, 254448, Note_on_c, 1, 75, 77
2, 254592, Note_on_c, 1, 75, 0
2, 254592, Note_on_c, 1, 72, 74
2, 254736, Note_on_c, 1, 72, 0
2, 254736, Note_on_c, 1, 68, 74
2, 254760, Note_on_c, 1, 48, 0
2, 254760, Note_on_c, 1, 51, 73
2, 254880, Note_on_c, 1, 51, 0
2, 254880, Note_on_c, 1, 68, 0
2, 254880, Note_on_c, 1, 63, 91
2, 254880, Note_on_c, 1, 56, 82
2, 255024, Note_on_c, 1, 63, 0
2, 255024, Note_on_c, 1, 68, 73
2, 255168, Note_on_c, 1, 68, 0
2, 255168, Note_on_c, 1, 72, 77
2, 255312, Note_on_c, 1, 72, 0
2, 255312, Note_on_c, 1, 68, 74
2, 255456, Note_on_c, 1, 68, 0
2, 255456, Note_on_c, 1, 63, 74
2, 255600, Note_on_c, 1, 63, 0
2, 255600, Note_on_c, 1, 56, 0
2, 255600, Note_on_c, 1, 60, 91
2, 255600, Note_on_c, 1, 56, 79
2, 255744, Note_on_c, 1, 60, 0
2, 255744, Note_on_c, 1, 63, 73
2, 255888, Note_on_c, 1, 63, 0
2, 255888, Note_on_c, 1, 68, 77
2, 256032, Note_on_c, 1, 68, 0
2, 256032, Note_on_c, 1, 63, 74
2, 256176, Note_on_c, 1, 63, 0
2, 256176, Note_on_c, 1, 60, 74
2, 256320, Note_on_c, 1, 60, 0
2, 256320, Note_on_c, 1, 56, 0
2, 256320, Note_on_c, 1, 66, 83
2, 256320, Note_on_c, 1, 57, 83
2, 256464, Note_on_c, 1, 57, 0
2, 256464, Note_on_c, 1, 60, 67
2, 256608, Note_on_c, 1, 60, 0
2, 256608, Note_on_c, 1, 63, 70
2, 256752, Note_on_c, 1, 63, 0
2, 256752, Note_on_c, 1, 60, 68
2, 256896, Note_on_c, 1, 60, 0
2, 256896, Note_on_c, 1, 57, 68
2, 257040, Note_on_c, 1, 57, 0
2, 257040, Note_on_c, 1, 54, 81
2, 257184, Note_on_c, 1, 54, 0
2, 257184, Note_on_c, 1, 57, 67
2, 257328, Note_on_c, 1, 57, 0
2, 257328, Note_on_c, 1, 60, 70
2, 257472, Note_on_c, 1, 60, 0
2, 257472, Note_on_c, 1, 57, 68
2, 257616, Note_on_c, 1, 57, 0
2, 257616, Note_on_c, 1, 54, 68
2, 257760, Note_on_c, 1, 54, 0
2, 257760, Note_on_c, 1, 51, 77
2, 257904, Note_on_c, 1, 51, 0
2, 257904, Note_on_c, 1, 54, 62
2, 258048, Note_on_c, 1, 54, 0
2, 258048, Note_on_c, 1, 57, 67
2, 258192, Note_on_c, 1, 57, 0
2, 258192, Note_on_c, 1, 54, 63
2, 258336, Note_on_c, 1, 54, 0
2, 258336, Note_on_c, 1, 51, 63
2, 258480, Note_on_c, 1, 51, 0
2, 258480, Note_on_c, 1, 66, 0
2, 258480, Note_on_c, 1, 72, 89
2, 258480, Note_on_c, 1, 48, 70
2, 258624, Note_on_c, 1, 48, 0
2, 258624, Note_on_c, 1, 51, 59
2, 258768, Note_on_c, 1, 51, 0
2, 258768, Note_on_c, 1, 54, 62
2, 258912, Note_on_c, 1, 54, 0
2, 258912, Note_on_c, 1, 51, 60
2, 259056, Note_on_c, 1, 51, 0
2, 259056, Note_on_c, 1, 48, 60
2, 259080, Note_on_c, 1, 72, 0
2, 259080, Note_on_c, 1, 75, 85
2, 259200, Note_on_c, 1, 75, 0
2, 259200, Note_on_c, 1, 48, 0
2, 259200, Note_on_c, 1, 78, 92
2, 259200, Note_on_c, 1, 45, 70
2, 259344, Note_on_c, 1, 45, 0
2, 259344, Note_on_c, 1, 48, 59
2, 259488, Note_on_c, 1, 48, 0
2, 259488, Note_on_c, 1, 51, 62
2, 259632, Note_on_c, 1, 51, 0
2, 259632, Note_on_c, 1, 48, 60
2, 259776, Note_on_c, 1, 48, 0
2, 259776, Note_on_c, 1, 45, 60
2, 259920, Note_on_c, 1, 45, 0
2, 259920, Note_on_c, 1, 78, 0
2, 259920, Note_on_c, 1, 84, 95
2, 259920, Note_on_c, 1, 42, 70
2, 260064, Note_on_c, 1, 42, 0
2, 260064, Note_on_c, 1, 45, 59
2, 260208, Note_on_c, 1, 45, 0
2, 260208, Note_on_c, 1, 48, 62
2, 260352, Note_on_c, 1, 48, 0
2, 260352, Note_on_c, 1, 45, 60
2, 260496, Note_on_c, 1, 45, 0
2, 260496, Note_on_c, 1, 42, 60
2, 260520, Note_on_c, 1, 84, 0
2, 260520, Note_on_c, 1, 87, 84
2, 260640, Note_on_c, 1, 87, 0
2, 260640, Note_on_c, 1, 42, 0
2, 260640, Note_on_c, 1, 90, 96
2, 260640, Note_on_c, 1, 39, 70
2, 260760, Note_on_c, 1, 39, 0
2, 260760, Note_on_c, 1, 42, 59
2, 260880, Note_on_c, 1, 42, 0
2, 260880, Note_on_c, 1, 45, 60
2, 261000, Note_on_c, 1, 45, 0
2, 261000, Note_on_c, 1, 42, 66
2, 261120, Note_on_c, 1, 42, 0
2, 261120, Note_on_c, 1, 39, 59
2, 261240, Note_on_c, 1, 39, 0
2, 261240, Note_on_c, 1, 36, 60
2, 261360, Note_on_c, 1, 36, 0
2, 261360, Note_on_c, 1, 90, 0
2, 261360, Note_on_c, 1, 90, 93
2, 261360, Note_on_c, 1, 33, 70
2, 261480, Note_on_c, 1, 33, 0
2, 261480, Note_on_c, 1, 36, 60
2, 261600, Note_on_c, 1, 36, 0
2, 261600, Note_on_c, 1, 39, 60
2, 261720, Note_on_c, 1, 39, 0
2, 261720, Note_on_c, 1, 42, 66
2, 261840, Note_on_c, 1, 42, 0
2, 261840, Note_on_c, 1, 39, 66
2, 261960, Note_on_c, 1, 39, 0
2, 261960, Note_on_c, 1, 36, 60
2, 262080, Note_on_c, 1, 36, 0
2, 262080, Note_on_c, 1, 90, 0
2, 262080, Note_on_c, 1, 90, 105
2, 262080, Note_on_c, 1, 32, 70
2, 262200, Note_on_c, 1, 32, 0
2, 262200, Note_on_c, 1, 36, 60
2, 262320, Note_on_c, 1, 36, 0
2, 262320, Note_on_c, 1, 39, 60
2, 262440, Note_on_c, 1, 39, 0
2, 262440, Note_on_c, 1, 42, 66
2, 262560, Note_on_c, 1, 42, 0
2, 262560, Note_on_c, 1, 39, 66
2, 262680, Note_on_c, 1, 39, 0
2, 262680, Note_on_c, 1, 36, 60
2, 262800, Note_on_c, 1, 36, 0
2, 262800, Note_on_c, 1, 33, 70
2, 262920, Note_on_c, 1, 33, 0
2, 262920, Note_on_c, 1, 36, 60
2, 263040, Note_on_c, 1, 36, 0
2, 263040, Note_on_c, 1, 90, 0
2, 263040, Note_on_c, 1, 90, 77
2, 263040, Note_on_c, 1, 39, 60
2, 263160, Note_on_c, 1, 39, 0
2, 263160, Note_on_c, 1, 90, 0
2, 263160, Note_on_c, 1, 87, 76
2, 263160, Note_on_c, 1, 42, 66
2, 263280, Note_on_c, 1, 42, 0
2, 263280, Note_on_c, 1, 87, 0
2, 263280, Note_on_c, 1, 84, 75
2, 263280, Note_on_c, 1, 39, 66
2, 263400, Note_on_c, 1, 39, 0
2, 263400, Note_on_c, 1, 84, 0
2, 263400, Note_on_c, 1, 78, 75
2, 263400, Note_on_c, 1, 36, 60
2, 263520, Note_on_c, 1, 36, 0
2, 263520, Note_on_c, 1, 78, 0
2, 263520, Note_on_c, 1, 90, 103
2, 263520, Note_on_c, 1, 32, 70
2, 263640, Note_on_c, 1, 32, 0
2, 263640, Note_on_c, 1, 36, 60
2, 263760, Note_on_c, 1, 36, 0
2, 263760, Note_on_c, 1, 39, 60
2, 263880, Note_on_c, 1, 39, 0
2, 263880, Note_on_c, 1, 42, 66
2, 264000, Note_on_c, 1, 42, 0
2, 264000, Note_on_c, 1, 39, 66
2, 264120, Note_on_c, 1, 39, 0
2, 264120, Note_on_c, 1, 36, 60
2, 264240, Note_on_c, 1, 36, 0
2, 264240, Note_on_c, 1, 33, 70
2, 264360, Note_on_c, 1, 33, 0
2, 264360, Note_on_c, 1, 36, 60
2, 264480, Note_on_c, 1, 36, 0
2, 264480, Note_on_c, 1, 90, 0
2, 264480, Note_on_c, 1, 78, 77
2, 264480, Note_on_c, 1, 39, 60
2, 264600, Note_on_c, 1, 39, 0
2, 264600, Note_on_c, 1, 78, 0
2, 264600, Note_on_c, 1, 75, 76
2, 264600, Note_on_c, 1, 42, 66
2, 264720, Note_on_c, 1, 42, 0
2, 264720, Note_on_c, 1, 75, 0
2, 264720, Note_on_c, 1, 72, 75
2, 264720, Note_on_c, 1, 39, 66
2, 264840, Note_on_c, 1, 39, 0
2, 264840, Note_on_c, 1, 72, 0
2, 264840, Note_on_c, 1, 66, 75
2, 264840, Note_on_c, 1, 36, 60
2, 264960, Note_on_c, 1, 36, 0
2, 264960, Note_on_c, 1, 66, 0
2, 264960, Note_on_c, 1, 78, 94
2, 264960, Note_on_c, 1, 32, 70
2, 265080, Note_on_c, 1, 32, 0
2, 265080, Note_on_c, 1, 36, 60
2, 265200, Note_on_c, 1, 36, 0
2, 265200, Note_on_c, 1, 39, 60
2, 265320, Note_on_c, 1, 39, 0
2, 265320, Note_on_c, 1, 42, 60
2, 265440, Note_on_c, 1, 42, 0
2, 265440, Note_on_c, 1, 39, 66
2, 265560, Note_on_c, 1, 39, 0
2, 265560, Note_on_c, 1, 36, 60
2, 265680, Note_on_c, 1, 36, 0
2, 265680, Note_on_c, 1, 33, 70
2, 265800, Note_on_c, 1, 33, 0
2, 265800, Note_on_c, 1, 36, 60
2, 265920, Note_on_c, 1, 36, 0
2, 265920, Note_on_c, 1, 78, 0
2, 265920, Note_on_c, 1, 66, 72
2, 265920, Note_on_c, 1, 39, 60
2, 266040, Note_on_c, 1, 39, 0
2, 266040, Note_on_c, 1, 66, 0
2, 266040, Note_on_c, 1, 63, 71
2, 266040, Note_on_c, 1, 42, 61
2, 266160, Note_on_c, 1, 42, 0
2, 266160, Note_on_c, 1, 63, 0
2, 266160, Note_on_c, 1, 60, 69
2, 266160, Note_on_c, 1, 39, 66
2, 266280, Note_on_c, 1, 39, 0
2, 266280, Note_on_c, 1, 60, 0
2, 266280, Note_on_c, 1, 54, 69
2, 266280, Note_on_c, 1, 36, 60
2, 266400, Note_on_c, 1, 36, 0
2, 266400, Note_on_c, 1, 54, 0
2, 266400, Note_on_c, 1, 66, 91
2, 266400, Note_on_c, 1, 32, 70
2, 266520, Note_on_c, 1, 32, 0
2, 266520, Note_on_c, 1, 36, 60
2, 266640, Note_on_c, 1, 36, 0
2, 266640, Note_on_c, 1, 66, 0
2, 266640, Note_on_c, 1, 66, 74
2, 266640, Note_on_c, 1, 39, 60
2, 266760, Note_on_c, 1, 39, 0
2, 266760, Note_on_c, 1, 66, 0
2, 266760, Note_on_c, 1, 63, 70
2, 266760, Note_on_c, 1, 42, 61
2, 266880, Note_on_c, 1, 42, 0
2, 266880, Note_on_c, 1, 63, 0
2, 266880, Note_on_c, 1, 60, 70
2, 266880, Note_on_c, 1, 39, 66
2, 267000, Note_on_c, 1, 39, 0
2, 267000, Note_on_c, 1, 60, 0
2, 267000, Note_on_c, 1, 54, 69
2, 267000, Note_on_c, 1, 36, 60
2, 267120, Note_on_c, 1, 36, 0
2, 267120, Note_on_c, 1, 54, 0
2, 267120, Note_on_c, 1, 66, 89
2, 267120, Note_on_c, 1, 33, 70
2, 267240, Note_on_c, 1, 33, 0
2, 267240, Note_on_c, 1, 36, 60
2, 267360, Note_on_c, 1, 36, 0
2, 267360, Note_on_c, 1, 66, 0
2, 267360, Note_on_c, 1, 66, 74
2, 267360, Note_on_c, 1, 39, 60
2, 267480, Note_on_c, 1, 39, 0
2, 267480, Note_on_c, 1, 66, 0
2, 267480, Note_on_c, 1, 63, 72
2, 267480, Note_on_c, 1, 42, 60
2, 267600, Note_on_c, 1, 42, 0
2, 267600, Note_on_c, 1, 63, 0
2, 267600, Note_on_c, 1, 60, 72
2, 267600, Note_on_c, 1, 39, 66
2, 267720, Note_on_c, 1, 39, 0
2, 267720, Note_on_c, 1, 60, 0
2, 267720, Note_on_c, 1, 54, 71
2, 267720, Note_on_c, 1, 36, 60
2, 267840, Note_on_c, 1, 36, 0
2, 267840, Note_on_c, 1, 54, 0
2, 267840, Note_on_c, 1, 66, 84
2, 267840, Note_on_c, 1, 32, 60
2, 267840, Note_on_c, 1, 44, 60
2, 268080, Note_on_c, 1, 44, 0
2, 268080, Note_on_c, 1, 32, 0
2, 268080, Note_on_c, 1, 56, 36
2, 268300, Note_on_c, 1, 56, 0
2, 268320, Note_on_c, 1, 56, 36
2, 268540, Note_on_c, 1, 56, 0
2, 268560, Note_on_c, 1, 66, 0
2, 268560, Note_on_c, 1, 56, 39
2, 268780, Note_on_c, 1, 56, 0
2, 268800, Note_on_c, 1, 56, 37
2, 269020, Note_on_c, 1, 56, 0
2, 269040, Note_on_c, 1, 56, 36
2, 269260, Note_on_c, 1, 56, 0
2, 269280, Note_on_c, 1, 56, 39
2, 269500, Note_on_c, 1, 56, 0
2, 269520, Note_on_c, 1, 56, 35
2, 269740, Note_on_c, 1, 56, 0
2, 269760, Note_on_c, 1, 56, 35
2, 269980, Note_on_c, 1, 56, 0
2, 270000, Note_on_c, 1, 56, 39
2, 270220, Note_on_c, 1, 56, 0
2, 270240, Note_on_c, 1, 56, 36
2, 270460, Note_on_c, 1, 56, 0
2, 270480, Note_on_c, 1, 56, 36
2, 270700, Note_on_c, 1, 56, 0
2, 270720, Note_on_c, 1, 63, 58
2, 270720, Note_on_c, 1, 60, 58
2, 270960, Note_on_c, 1, 56, 36
2, 271180, Note_on_c, 1, 56, 0
2, 271200, Note_on_c, 1, 56, 36
2, 271420, Note_on_c, 1, 56, 0
2, 271440, Note_on_c, 1, 60, 0
2, 271440, Note_on_c, 1, 63, 0
2, 271440, Note_on_c, 1, 56, 39
2, 271660, Note_on_c, 1, 56, 0
2, 271680, Note_on_c, 1, 56, 37
2, 271900, Note_on_c, 1, 56, 0
2, 271920, Note_on_c, 1, 56, 36
2, 272140, Note_on_c, 1, 56, 0
2, 272160, Note_on_c, 1, 72, 59
2, 272160, Note_on_c, 1, 75, 59
2, 272160, Note_on_c, 1, 54, 39
2, 272400, Note_on_c, 1, 54, 0
2, 272400, Note_on_c, 1, 56, 35
2, 272620, Note_on_c, 1, 56, 0
2, 272640, Note_on_c, 1, 56, 35
2, 272860, Note_on_c, 1, 56, 0
2, 272880, Note_on_c, 1, 75, 0
2, 272880, Note_on_c, 1, 72, 0
2, 272880, Note_on_c, 1, 56, 39
2, 273100, Note_on_c, 1, 56, 0
2, 273120, Note_on_c, 1, 56, 36
2, 273340, Note_on_c, 1, 56, 0
2, 273360, Note_on_c, 1, 56, 36
2, 273580, Note_on_c, 1, 56, 0
2, 273600, Note_on_c, 1, 65, 55
2, 273600, Note_on_c, 1, 61, 55
2, 273840, Note_on_c, 1, 56, 36
2, 274060, Note_on_c, 1, 56, 0
2, 274080, Note_on_c, 1, 56, 36
2, 274300, Note_on_c, 1, 56, 0
2, 274320, Note_on_c, 1, 61, 0
2, 274320, Note_on_c, 1, 65, 0
2, 274320, Note_on_c, 1, 56, 39
2, 274540, Note_on_c, 1, 56, 0
2, 274560, Note_on_c, 1, 56, 37
2, 274780, Note_on_c, 1, 56, 0
2, 274800, Note_on_c, 1, 56, 36
2, 275020, Note_on_c, 1, 56, 0
2, 275040, Note_on_c, 1, 73, 58
2, 275040, Note_on_c, 1, 77, 58
2, 275040, Note_on_c, 1, 53, 39
2, 275280, Note_on_c, 1, 53, 0
2, 275280, Note_on_c, 1, 56, 35
2, 275500, Note_on_c, 1, 56, 0
2, 275520, Note_on_c, 1, 56, 35
2, 275740, Note_on_c, 1, 56, 0
2, 275760, Note_on_c, 1, 77, 0
2, 275760, Note_on_c, 1, 73, 0
2, 275760, Note_on_c, 1, 56, 39
2, 275980, Note_on_c, 1, 56, 0
2, 276000, Note_on_c, 1, 56, 36
2, 276220, Note_on_c, 1, 56, 0
2, 276240, Note_on_c, 1, 56, 36
2, 276460, Note_on_c, 1, 56, 0
2, 276480, Note_on_c, 1, 61, 61
2, 276480, Note_on_c, 1, 70, 61
2, 276480, Note_on_c, 1, 65, 61
2, 276720, Note_on_c, 1, 56, 38
2, 276940, Note_on_c, 1, 56, 0
2, 276960, Note_on_c, 1, 56, 38
2, 277180, Note_on_c, 1, 56, 0
2, 277200, Note_on_c, 1, 53, 40
2, 277200, Note_on_c, 1, 49, 40
2, 277440, Note_on_c, 1, 49, 0
2, 277440, Note_on_c, 1, 53, 0
2, 277440, Note_on_c, 1, 56, 37
2, 277660, Note_on_c, 1, 56, 0
2, 277680, Note_on_c, 1, 56, 37
2, 277900, Note_on_c, 1, 56, 0
2, 277920, Note_on_c, 1, 49, 37
2, 277920, Note_on_c, 1, 53, 37
2, 278160, Note_on_c, 1, 53, 0
2, 278160, Note_on_c, 1, 49, 0
2, 278160, Note_on_c, 1, 56, 37
2, 278380, Note_on_c, 1, 56, 0
2, 278400, Note_on_c, 1, 56, 37
2, 278620, Note_on_c, 1, 56, 0
2, 278640, Note_on_c, 1, 49, 37
2, 278640, Note_on_c, 1, 53, 37
2, 278880, Note_on_c, 1, 53, 0
2, 278880, Note_on_c, 1, 49, 0
2, 278880, Note_on_c, 1, 56, 37
2, 279100, Note_on_c, 1, 56, 0
2, 279120, Note_on_c, 1, 56, 37
2, 279340, Note_on_c, 1, 56, 0
2, 279360, Note_on_c, 1, 61, 0
2, 279360, Note_on_c, 1, 70, 0
2, 279360, Note_on_c, 1, 65, 0
2, 279360, Note_on_c, 1, 60, 52
2, 279360, Note_on_c, 1, 63, 52
2, 279360, Note_on_c, 1, 68, 52
2, 279360, Note_on_c, 1, 48, 39
2, 279360, Note_on_c, 1, 51, 39
2, 279600, Note_on_c, 1, 51, 0
2, 279600, Note_on_c, 1, 48, 0
2, 279600, Note_on_c, 1, 56, 37
2, 279820, Note_on_c, 1, 56, 0
2, 279840, Note_on_c, 1, 68, 0
2, 279840, Note_on_c, 1, 63, 0
2, 279840, Note_on_c, 1, 60, 0
2, 279840, Note_on_c, 1, 56, 37
2, 280060, Note_on_c, 1, 56, 0
2, 280080, Note_on_c, 1, 56, 38
2, 280300, Note_on_c, 1, 56, 0
2, 280320, Note_on_c, 1, 56, 37
2, 280540, Note_on_c, 1, 56, 0
2, 280560, Note_on_c, 1, 56, 37
2, 280780, Note_on_c, 1, 56, 0
2, 280800, Note_on_c, 1, 56, 37
2, 281020, Note_on_c, 1, 56, 0
2, 281040, Note_on_c, 1, 56, 37
2, 281260, Note_on_c, 1, 56, 0
2, 281280, Note_on_c, 1, 56, 37
2, 281500, Note_on_c, 1, 56, 0
2, 281520, Note_on_c, 1, 60, 55
2, 281520, Note_on_c, 1, 63, 55
2, 281520, Note_on_c, 1, 56, 38
2, 281740, Note_on_c, 1, 56, 0
2, 281760, Note_on_c, 1, 56, 37
2, 281980, Note_on_c, 1, 56, 0
2, 282000, Note_on_c, 1, 56, 37
2, 282120, Note_on_c, 1, 63, 0
2, 282120, Note_on_c, 1, 60, 0
2, 282120, Note_on_c, 1, 60, 50
2, 282120, Note_on_c, 1, 63, 50
2, 282220, Note_on_c, 1, 56, 0
2, 282240, Note_on_c, 1, 63, 0
2, 282240, Note_on_c, 1, 60, 0
2, 282240, Note_on_c, 1, 61, 55
2, 282240, Note_on_c, 1, 65, 55
2, 282240, Note_on_c, 1, 56, 39
2, 282460, Note_on_c, 1, 56, 0
2, 282480, Note_on_c, 1, 56, 37
2, 282700, Note_on_c, 1, 56, 0
2, 282720, Note_on_c, 1, 65, 0
2, 282720, Note_on_c, 1, 61, 0
2, 282720, Note_on_c, 1, 60, 50
2, 282720, Note_on_c, 1, 63, 50
2, 282720, Note_on_c, 1, 56, 37
2, 282940, Note_on_c, 1, 56, 0
2, 282960, Note_on_c, 1, 63, 0
2, 282960, Note_on_c, 1, 60, 0
2, 282960, Note_on_c, 1, 56, 38
2, 283180, Note_on_c, 1, 56, 0
2, 283200, Note_on_c, 1, 56, 37
2, 283420, Note_on_c, 1, 56, 0
2, 283440, Note_on_c, 1, 72, 58
2, 283440, Note_on_c, 1, 75, 58
2, 283440, Note_on_c, 1, 56, 37
2, 283660, Note_on_c, 1, 56, 0
2, 283680, Note_on_c, 1, 75, 0
2, 283680, Note_on_c, 1, 72, 0
2, 283680, Note_on_c, 1, 56, 38
2, 283900, Note_on_c, 1, 56, 0
2, 283920, Note_on_c, 1, 56, 39
2, 284140, Note_on_c, 1, 56, 0
2, 284160, Note_on_c, 1, 87, 56
2, 284160, Note_on_c, 1, 84, 56
2, 284400, Note_on_c, 1, 84, 0
2, 284400, Note_on_c, 1, 87, 0
2, 284400, Note_on_c, 1, 54, 44
2, 284400, Note_on_c, 1, 51, 44
2, 284640, Note_on_c, 1, 51, 0
2, 284640, Note_on_c, 1, 54, 0
2, 284640, Note_on_c, 1, 56, 37
2, 284860, Note_on_c, 1, 56, 0
2, 284880, Note_on_c, 1, 56, 37
2, 285000, Note_on_c, 1, 60, 53
2, 285000, Note_on_c, 1, 63, 53
2, 285100, Note_on_c, 1, 56, 0
2, 285120, Note_on_c, 1, 63, 0
2, 285120, Note_on_c, 1, 60, 0
2, 285120, Note_on_c, 1, 63, 57
2, 285120, Note_on_c, 1, 66, 57
2, 285120, Note_on_c, 1, 56, 39
2, 285340, Note_on_c, 1, 56, 0
2, 285360, Note_on_c, 1, 56, 37
2, 285580, Note_on_c, 1, 56, 0
2, 285600, Note_on_c, 1, 66, 0
2, 285600, Note_on_c, 1, 63, 0
2, 285600, Note_on_c, 1, 65, 52
2, 285600, Note_on_c, 1, 61, 52
2, 285600, Note_on_c, 1, 56, 37
2, 285820, Note_on_c, 1, 56, 0
2, 285840, Note_on_c, 1, 61, 0
2, 285840, Note_on_c, 1, 65, 0
2, 285840, Note_on_c, 1, 56, 37
2, 286060, Note_on_c, 1, 56, 0
2, 286080, Note_on_c, 1, 56, 37
2, 286300, Note_on_c, 1, 56, 0
2, 286320, Note_on_c, 1, 73, 60
2, 286320, Note_on_c, 1, 77, 60
2, 286320, Note_on_c, 1, 56, 37
2, 286540, Note_on_c, 1, 56, 0
2, 286560, Note_on_c, 1, 77, 0
2, 286560, Note_on_c, 1, 73, 0
2, 286560, Note_on_c, 1, 56, 38
2, 286780, Note_on_c, 1, 56, 0
2, 286800, Note_on_c, 1, 56, 37
2, 287020, Note_on_c, 1, 56, 0
2, 287040, Note_on_c, 1, 89, 56
2, 287040, Note_on_c, 1, 85, 56
2, 287040, Note_on_c, 1, 56, 37
2, 287260, Note_on_c, 1, 56, 0
2, 287275, Note_on_c, 1, 85, 0
2, 287275, Note_on_c, 1, 89, 0
2, 287280, Note_on_c, 1, 49, 44
2, 287280, Note_on_c, 1, 53, 48
2, 287520, Note_on_c, 1, 53, 0
2, 287520, Note_on_c, 1, 49, 0
2, 287520, Note_on_c, 1, 56, 37
2, 287740, Note_on_c, 1, 56, 0
2, 287760, Note_on_c, 1, 56, 37
2, 287880, Note_on_c, 1, 65, 52
2, 287880, Note_on_c, 1, 61, 52
2, 287980, Note_on_c, 1, 56, 0
2, 288000, Note_on_c, 1, 61, 0
2, 288000, Note_on_c, 1, 65, 0
2, 288000, Note_on_c, 1, 61, 61
2, 288000, Note_on_c, 1, 65, 61
2, 288000, Note_on_c, 1, 70, 61
2, 288240, Note_on_c, 1, 56, 38
2, 288460, Note_on_c, 1, 56, 0
2, 288480, Note_on_c, 1, 56, 38
2, 288700, Note_on_c, 1, 56, 0
2, 288720, Note_on_c, 1, 53, 40
2, 288720, Note_on_c, 1, 49, 40
2, 288960, Note_on_c, 1, 49, 0
2, 288960, Note_on_c, 1, 53, 0
2, 288960, Note_on_c, 1, 56, 37
2, 289180, Note_on_c, 1, 56, 0
2, 289200, Note_on_c, 1, 56, 37
2, 289420, Note_on_c, 1, 56, 0
2, 289440, Note_on_c, 1, 49, 37
2, 289440, Note_on_c, 1, 53, 37
2, 289680, Note_on_c, 1, 53, 0
2, 289680, Note_on_c, 1, 49, 0
2, 289680, Note_on_c, 1, 56, 37
2, 289900, Note_on_c, 1, 56, 0
2, 289920, Note_on_c, 1, 56, 37
2, 290140, Note_on_c, 1, 56, 0
2, 290160, Note_on_c, 1, 49, 36
2, 290160, Note_on_c, 1, 53, 36
2, 290400, Note_on_c, 1, 53, 0
2, 290400, Note_on_c, 1, 49, 0
2, 290400, Note_on_c, 1, 56, 37
2, 290620, Note_on_c, 1, 56, 0
2, 290640, Note_on_c, 1, 56, 37
2, 290860, Note_on_c, 1, 56, 0
2, 290880, Note_on_c, 1, 61, 0
2, 290880, Note_on_c, 1, 65, 0
2, 290880, Note_on_c, 1, 70, 0
2, 290880, Note_on_c, 1, 60, 56
2, 290880, Note_on_c, 1, 63, 56
2, 290880, Note_on_c, 1, 68, 56
2, 291120, Note_on_c, 1, 56, 38
2, 291340, Note_on_c, 1, 56, 0
2, 291360, Note_on_c, 1, 60, 0
2, 291360, Note_on_c, 1, 63, 0
2, 291360, Note_on_c, 1, 68, 0
2, 291360, Note_on_c, 1, 56, 38
2, 291580, Note_on_c, 1, 56, 0
2, 291600, Note_on_c, 1, 51, 40
2, 291600, Note_on_c, 1, 48, 40
2, 291840, Note_on_c, 1, 48, 0
2, 291840, Note_on_c, 1, 51, 0
2, 291840, Note_on_c, 1, 56, 37
2, 292060, Note_on_c, 1, 56, 0
2, 292080, Note_on_c, 1, 56, 37
2, 292300, Note_on_c, 1, 56, 0
2, 292320, Note_on_c, 1, 61, 52
2, 292320, Note_on_c, 1, 64, 52
2, 292320, Note_on_c, 1, 69, 52
2, 292560, Note_on_c, 1, 56, 37
2, 292780, Note_on_c, 1, 56, 0
2, 292800, Note_on_c, 1, 56, 37
2, 293020, Note_on_c, 1, 56, 0
2, 293040, Note_on_c, 1, 49, 36
2, 293040, Note_on_c, 1, 52, 36
2, 293280, Note_on_c, 1, 52, 0
2, 293280, Note_on_c, 1, 49, 0
2, 293280, Note_on_c, 1, 56, 37
2, 293500, Note_on_c, 1, 56, 0
2, 293520, Note_on_c, 1, 56, 37
2, 293740, Note_on_c, 1, 56, 0
2, 293760, Note_on_c, 1, 61, 0
2, 293760, Note_on_c, 1, 64, 0
2, 293760, Note_on_c, 1, 69, 0
2, 293760, Note_on_c, 1, 60, 57
2, 293760, Note_on_c, 1, 68, 57
2, 293760, Note_on_c, 1, 63, 57
2, 294000, Note_on_c, 1, 56, 38
2, 294220, Note_on_c, 1, 56, 0
2, 294240, Note_on_c, 1, 60, 0
2, 294240, Note_on_c, 1, 68, 0
2, 294240, Note_on_c, 1, 63, 0
2, 294240, Note_on_c, 1, 56, 38
2, 294460, Note_on_c, 1, 56, 0
2, 294480, Note_on_c, 1, 51, 40
2, 294480, Note_on_c, 1, 48, 40
2, 294720, Note_on_c, 1, 48, 0
2, 294720, Note_on_c, 1, 51, 0
2, 294720, Note_on_c, 1, 56, 37
2, 294940, Note_on_c, 1, 56, 0
2, 294960, Note_on_c, 1, 56, 37
2, 295180, Note_on_c, 1, 56, 0
2, 295200, Note_on_c, 1, 73, 58
2, 295200, Note_on_c, 1, 81, 58
2, 295200, Note_on_c, 1, 76, 58
2, 295440, Note_on_c, 1, 56, 37
2, 295660, Note_on_c, 1, 56, 0
2, 295680, Note_on_c, 1, 56, 37
2, 295900, Note_on_c, 1, 56, 0
2, 295920, Note_on_c, 1, 49, 36
2, 295920, Note_on_c, 1, 52, 36
2, 296160, Note_on_c, 1, 52, 0
2, 296160, Note_on_c, 1, 49, 0
2, 296160, Note_on_c, 1, 56, 37
2, 296380, Note_on_c, 1, 56, 0
2, 296400, Note_on_c, 1, 56, 37
2, 296620, Note_on_c, 1, 56, 0
2, 296640, Note_on_c, 1, 73, 0
2, 296640, Note_on_c, 1, 81, 0
2, 296640, Note_on_c, 1, 76, 0
2, 296640, Note_on_c, 1, 75, 56
2, 296640, Note_on_c, 1, 80, 56
2, 296640, Note_on_c, 1, 72, 56
2, 296880, Note_on_c, 1, 56, 37
2, 297100, Note_on_c, 1, 56, 0
2, 297120, Note_on_c, 1, 75, 0
2, 297120, Note_on_c, 1, 80, 0
2, 297120, Note_on_c, 1, 72, 0
2, 297120, Note_on_c, 1, 56, 36
2, 297340, Note_on_c, 1, 56, 0
2, 297360, Note_on_c, 1, 51, 38
2, 297360, Note_on_c, 1, 48, 38
2, 297600, Note_on_c, 1, 48, 0
2, 297600, Note_on_c, 1, 51, 0
2, 297600, Note_on_c, 1, 56, 34
2, 297820, Note_on_c, 1, 56, 0
2, 297840, Note_on_c, 1, 56, 34
2, 298060, Note_on_c, 1, 56, 0
2, 298080, Note_on_c, 1, 62, 46
2, 298080, Note_on_c, 1, 59, 46
2, 298080, Note_on_c, 1, 68, 46
2, 298320, Note_on_c, 1, 56, 32
2, 298540, Note_on_c, 1, 56, 0
2, 298560, Note_on_c, 1, 62, 0
2, 298560, Note_on_c, 1, 59, 0
2, 298560, Note_on_c, 1, 68, 0
2, 298560, Note_on_c, 1, 56, 32
2, 298780, Note_on_c, 1, 56, 0
2, 298800, Note_on_c, 1, 47, 30
2, 298800, Note_on_c, 1, 50, 30
2, 299040, Note_on_c, 1, 50, 0
2, 299040, Note_on_c, 1, 47, 0
2, 299040, Note_on_c, 1, 56, 31
2, 299260, Note_on_c, 1, 56, 0
2, 299280, Note_on_c, 1, 56, 30
2, 299500, Note_on_c, 1, 56, 0
2, 299520, Note_on_c, 1, 61, 44
2, 299520, Note_on_c, 1, 58, 44
2, 299520, Note_on_c, 1, 67, 44
2, 299760, Note_on_c, 1, 56, 31
2, 299980, Note_on_c, 1, 56, 0
2, 300000, Note_on_c, 1, 61, 0
2, 300000, Note_on_c, 1, 58, 0
2, 300000, Note_on_c, 1, 67, 0
2, 300000, Note_on_c, 1, 56, 30
2, 300220, Note_on_c, 1, 56, 0
2, 300240, Note_on_c, 1, 49, 32
2, 300240, Note_on_c, 1, 46, 32
2, 300480, Note_on_c, 1, 46, 0
2, 300480, Note_on_c, 1, 49, 0
2, 300480, Note_on_c, 1, 56, 28
2, 300700, Note_on_c, 1, 56, 0
2, 300720, Note_on_c, 1, 56, 28
2, 300940, Note_on_c, 1, 56, 0
2, 300960, Note_on_c, 1, 57, 39
2, 300960, Note_on_c, 1, 60, 39
2, 300960, Note_on_c, 1, 66, 39
2, 301200, Note_on_c, 1, 56, 27
2, 301420, Note_on_c, 1, 56, 0
2, 301440, Note_on_c, 1, 57, 0
2, 301440, Note_on_c, 1, 60, 0
2, 301440, Note_on_c, 1, 66, 0
2, 301440, Note_on_c, 1, 56, 27
2, 301660, Note_on_c, 1, 56, 0
2, 301680, Note_on_c, 1, 48, 25
2, 301680, Note_on_c, 1, 45, 25
2, 301920, Note_on_c, 1, 45, 0
2, 301920, Note_on_c, 1, 48, 0
2, 301920, Note_on_c, 1, 56, 26
2, 302140, Note_on_c, 1, 56, 0
2, 302160, Note_on_c, 1, 56, 25
2, 302380, Note_on_c, 1, 56, 0
2, 302400, Note_on_c, 1, 66, 47
2, 302400, Note_on_c, 1, 60, 47
2, 302400, Note_on_c, 1, 56, 47
2, 302640, Note_on_c, 1, 44, 44
2, 302880, Note_on_c, 1, 56, 0
2, 302880, Note_on_c, 1, 66, 0
2, 302880, Note_on_c, 1, 60, 0
2, 302880, Note_on_c, 1, 43, 39
2, 303120, Note_on_c, 1, 43, 0
2, 303120, Note_on_c, 1, 44, 0
2, 303120, Note_on_c, 1, 44, 44
2, 303360, Note_on_c, 1, 46, 41
2, 303600, Note_on_c, 1, 46, 0
2, 303600, Note_on_c, 1, 44, 0
2, 303600, Note_on_c, 1, 44, 45
2, 303840, Note_on_c, 1, 75, 67
2, 303840, Note_on_c, 1, 42, 41
2, 304080, Note_on_c, 1, 42, 0
2, 304080, Note_on_c, 1, 75, 0
2, 304080, Note_on_c, 1, 44, 0
2, 304080, Note_on_c, 1, 77, 61
2, 304080, Note_on_c, 1, 44, 41
2, 304320, Note_on_c, 1, 77, 0
2, 304320, Note_on_c, 1, 75, 59
2, 304320, Note_on_c, 1, 42, 48
2, 304560, Note_on_c, 1, 42, 0
2, 304560, Note_on_c, 1, 75, 0
2, 304560, Note_on_c, 1, 73, 69
2, 304560, Note_on_c, 1, 41, 42
2, 304800, Note_on_c, 1, 41, 0
2, 304800, Note_on_c, 1, 73, 0
2, 304800, Note_on_c, 1, 75, 66
2, 304800, Note_on_c, 1, 42, 42
2, 305040, Note_on_c, 1, 42, 0
2, 305040, Note_on_c, 1, 75, 0
2, 305040, Note_on_c, 1, 73, 64
2, 305040, Note_on_c, 1, 41, 47
2, 305280, Note_on_c, 1, 41, 0
2, 305280, Note_on_c, 1, 73, 0
2, 305280, Note_on_c, 1, 44, 0
2, 305280, Note_on_c, 1, 72, 70
2, 305280, Note_on_c, 1, 39, 55
2, 305520, Note_on_c, 1, 39, 0
2, 305520, Note_on_c, 1, 72, 0
2, 305520, Note_on_c, 1, 78, 66
2, 305520, Note_on_c, 1, 44, 48
2, 305760, Note_on_c, 1, 78, 0
2, 305760, Note_on_c, 1, 43, 42
2, 306000, Note_on_c, 1, 43, 0
2, 306000, Note_on_c, 1, 44, 0
2, 306000, Note_on_c, 1, 44, 48
2, 306240, Note_on_c, 1, 46, 45
2, 306480, Note_on_c, 1, 46, 0
2, 306480, Note_on_c, 1, 44, 0
2, 306480, Note_on_c, 1, 44, 49
2, 306720, Note_on_c, 1, 78, 73
2, 306720, Note_on_c, 1, 39, 46
2, 306960, Note_on_c, 1, 39, 0
2, 306960, Note_on_c, 1, 78, 0
2, 306960, Note_on_c, 1, 80, 70
2, 306960, Note_on_c, 1, 41, 46
2, 307200, Note_on_c, 1, 41, 0
2, 307200, Note_on_c, 1, 80, 0
2, 307200, Note_on_c, 1, 78, 70
2, 307200, Note_on_c, 1, 39, 50
2, 307440, Note_on_c, 1, 39, 0
2, 307440, Note_on_c, 1, 78, 0
2, 307440, Note_on_c, 1, 77, 74
2, 307440, Note_on_c, 1, 37, 47
2, 307680, Note_on_c, 1, 37, 0
2, 307680, Note_on_c, 1, 77, 0
2, 307680, Note_on_c, 1, 78, 71
2, 307680, Note_on_c, 1, 39, 47
2, 307920, Note_on_c, 1, 39, 0
2, 307920, Note_on_c, 1, 78, 0
2, 307920, Note_on_c, 1, 77, 68
2, 307920, Note_on_c, 1, 37, 51
2, 308160, Note_on_c, 1, 37, 0
2, 308160, Note_on_c, 1, 77, 0
2, 308160, Note_on_c, 1, 44, 0
2, 308160, Note_on_c, 1, 75, 81
2, 308160, Note_on_c, 1, 36, 57
2, 308400, Note_on_c, 1, 36, 0
2, 308400, Note_on_c, 1, 75, 0
2, 308400, Note_on_c, 1, 87, 72
2, 308400, Note_on_c, 1, 44, 52
2, 308640, Note_on_c, 1, 87, 0
2, 308640, Note_on_c, 1, 43, 47
2, 308880, Note_on_c, 1, 43, 0
2, 308880, Note_on_c, 1, 44, 0
2, 308880, Note_on_c, 1, 44, 52
2, 309120, Note_on_c, 1, 46, 49
2, 309360, Note_on_c, 1, 46, 0
2, 309360, Note_on_c, 1, 44, 0
2, 309360, Note_on_c, 1, 44, 53
2, 309600, Note_on_c, 1, 87, 83
2, 309600, Note_on_c, 1, 36, 50
2, 309840, Note_on_c, 1, 36, 0
2, 309840, Note_on_c, 1, 87, 0
2, 309840, Note_on_c, 1, 89, 77
2, 309840, Note_on_c, 1, 37, 50
2, 310080, Note_on_c, 1, 37, 0
2, 310080, Note_on_c, 1, 89, 0
2, 310080, Note_on_c, 1, 87, 73
2, 310080, Note_on_c, 1, 36, 54
2, 310320, Note_on_c, 1, 36, 0
2, 310320, Note_on_c, 1, 87, 0
2, 310320, Note_on_c, 1, 85, 77
2, 310320, Note_on_c, 1, 34, 50
2, 310560, Note_on_c, 1, 34, 0
2, 310560, Note_on_c, 1, 85, 0
2, 310560, Note_on_c, 1, 87, 75
2, 310560, Note_on_c, 1, 36, 51
2, 310800, Note_on_c, 1, 36, 0
2, 310800, Note_on_c, 1, 87, 0
2, 310800, Note_on_c, 1, 85, 73
2, 310800, Note_on_c, 1, 34, 51
2, 311040, Note_on_c, 1, 34, 0
2, 311040, Note_on_c, 1, 85, 0
2, 311040, Note_on_c, 1, 44, 0
2, 311040, Note_on_c, 1, 84, 76
2, 311040, Note_on_c, 1, 32, 55
2, 311280, Note_on_c, 1, 32, 0
2, 311280, Note_on_c, 1, 84, 0
2, 311280, Note_on_c, 1, 85, 75
2, 311280, Note_on_c, 1, 31, 49
2, 311520, Note_on_c, 1, 31, 0
2, 311520, Note_on_c, 1, 85, 0
2, 311520, Note_on_c, 1, 84, 72
2, 311520, Note_on_c, 1, 32, 49
2, 311760, Note_on_c, 1, 32, 0
2, 311760, Note_on_c, 1, 84, 0
2, 311760, Note_on_c, 1, 82, 76
2, 311760, Note_on_c, 1, 34, 53
2, 312000, Note_on_c, 1, 34, 0
2, 312000, Note_on_c, 1, 82, 0
2, 312000, Note_on_c, 1, 84, 73
2, 312000, Note_on_c, 1, 32, 46
2, 312240, Note_on_c, 1, 32, 0
2, 312240, Note_on_c, 1, 84, 0
2, 312240, Note_on_c, 1, 82, 69
2, 312240, Note_on_c, 1, 34, 45
2, 312480, Note_on_c, 1, 34, 0
2, 312480, Note_on_c, 1, 82, 0
2, 312480, Note_on_c, 1, 80, 74
2, 312480, Note_on_c, 1, 35, 50
2, 312720, Note_on_c, 1, 35, 0
2, 312720, Note_on_c, 1, 80, 0
2, 312720, Note_on_c, 1, 82, 70
2, 312720, Note_on_c, 1, 34, 44
2, 312960, Note_on_c, 1, 34, 0
2, 312960, Note_on_c, 1, 82, 0
2, 312960, Note_on_c, 1, 80, 67
2, 312960, Note_on_c, 1, 35, 42
2, 313200, Note_on_c, 1, 35, 0
2, 313200, Note_on_c, 1, 80, 0
2, 313200, Note_on_c, 1, 78, 72
2, 313200, Note_on_c, 1, 36, 47
2, 313440, Note_on_c, 1, 36, 0
2, 313440, Note_on_c, 1, 78, 0
2, 313440, Note_on_c, 1, 80, 66
2, 313440, Note_on_c, 1, 35, 40
2, 313680, Note_on_c, 1, 35, 0
2, 313680, Note_on_c, 1, 80, 0
2, 313680, Note_on_c, 1, 78, 63
2, 313680, Note_on_c, 1, 36, 40
2, 313920, Note_on_c, 1, 36, 0
2, 313920, Note_on_c, 1, 78, 0
2, 313920, Note_on_c, 1, 77, 73
2, 313920, Note_on_c, 1, 37, 36
2, 314160, Note_on_c, 1, 37, 0
2, 314160, Note_on_c, 1, 49, 32
2, 314160, Note_on_c, 1, 41, 26
2, 314160, Note_on_c, 1, 44, 26
2, 314400, Note_on_c, 1, 44, 0
2, 314400, Note_on_c, 1, 77, 0
2, 314400, Note_on_c, 1, 49, 0
2, 314400, Note_on_c, 1, 41, 0
2, 314400, Note_on_c, 1, 37, 33
2, 314640, Note_on_c, 1, 37, 0
2, 314640, Note_on_c, 1, 49, 36
2, 314640, Note_on_c, 1, 41, 28
2, 314640, Note_on_c, 1, 44, 28
2, 314880, Note_on_c, 1, 44, 0
2, 314880, Note_on_c, 1, 41, 0
2, 314880, Note_on_c, 1, 49, 0
2, 314880, Note_on_c, 1, 37, 33
2, 315120, Note_on_c, 1, 37, 0
2, 315120, Note_on_c, 1, 49, 33
2, 315120, Note_on_c, 1, 44, 26
2, 315120, Note_on_c, 1, 41, 26
2, 315360, Note_on_c, 1, 41, 0
2, 315360, Note_on_c, 1, 44, 0
2, 315360, Note_on_c, 1, 49, 0
2, 315360, Note_on_c, 1, 37, 36
2, 315600, Note_on_c, 1, 37, 0
2, 315600, Note_on_c, 1, 49, 33
2, 315600, Note_on_c, 1, 41, 26
2, 315600, Note_on_c, 1, 44, 26
2, 315840, Note_on_c, 1, 44, 0
2, 315840, Note_on_c, 1, 41, 0
2, 315840, Note_on_c, 1, 49, 0
2, 315840, Note_on_c, 1, 37, 33
2, 316080, Note_on_c, 1, 37, 0
2, 316080, Note_on_c, 1, 65, 55
2, 316080, Note_on_c, 1, 53, 44
2, 316080, Note_on_c, 1, 44, 28
2, 316080, Note_on_c, 1, 41, 28
2, 316080, Note_on_c, 1, 49, 36
2, 316320, Note_on_c, 1, 49, 0
2, 316320, Note_on_c, 1, 44, 0
2, 316320, Note_on_c, 1, 41, 0
2, 316320, Note_on_c, 1, 37, 33
2, 316560, Note_on_c, 1, 37, 0
2, 316560, Note_on_c, 1, 49, 35
2, 316560, Note_on_c, 1, 41, 27
2, 316560, Note_on_c, 1, 44, 27
2, 316680, Note_on_c, 1, 53, 0
2, 316680, Note_on_c, 1, 65, 0
2, 316680, Note_on_c, 1, 68, 49
2, 316680, Note_on_c, 1, 56, 39
2, 316800, Note_on_c, 1, 56, 0
2, 316800, Note_on_c, 1, 41, 0
2, 316800, Note_on_c, 1, 44, 0
2, 316800, Note_on_c, 1, 49, 0
2, 316800, Note_on_c, 1, 68, 0
2, 316800, Note_on_c, 1, 73, 53
2, 316800, Note_on_c, 1, 61, 49
2, 316800, Note_on_c, 1, 37, 36
2, 317040, Note_on_c, 1, 37, 0
2, 317040, Note_on_c, 1, 49, 32
2, 317040, Note_on_c, 1, 44, 26
2, 317040, Note_on_c, 1, 41, 26
2, 317280, Note_on_c, 1, 41, 0
2, 317280, Note_on_c, 1, 49, 0
2, 317280, Note_on_c, 1, 44, 0
2, 317280, Note_on_c, 1, 37, 33
2, 317520, Note_on_c, 1, 37, 0
2, 317520, Note_on_c, 1, 61, 0
2, 317520, Note_on_c, 1, 73, 0
2, 317520, Note_on_c, 1, 77, 57
2, 317520, Note_on_c, 1, 65, 52
2, 317520, Note_on_c, 1, 49, 36
2, 317520, Note_on_c, 1, 44, 28
2, 317520, Note_on_c, 1, 41, 28
2, 317760, Note_on_c, 1, 41, 0
2, 317760, Note_on_c, 1, 49, 0
2, 317760, Note_on_c, 1, 44, 0
2, 317760, Note_on_c, 1, 37, 33
2, 318000, Note_on_c, 1, 37, 0
2, 318000, Note_on_c, 1, 41, 26
2, 318000, Note_on_c, 1, 49, 33
2, 318000, Note_on_c, 1, 44, 26
2, 318120, Note_on_c, 1, 65, 0
2, 318120, Note_on_c, 1, 77, 0
2, 318120, Note_on_c, 1, 73, 50
2, 318120, Note_on_c, 1, 61, 46
2, 318240, Note_on_c, 1, 61, 0
2, 318240, Note_on_c, 1, 49, 0
2, 318240, Note_on_c, 1, 44, 0
2, 318240, Note_on_c, 1, 41, 0
2, 318240, Note_on_c, 1, 73, 0
2, 318240, Note_on_c, 1, 72, 53
2, 318240, Note_on_c, 1, 60, 49
2, 318240, Note_on_c, 1, 39, 36
2, 318480, Note_on_c, 1, 39, 0
2, 318480, Note_on_c, 1, 51, 33
2, 318480, Note_on_c, 1, 42, 26
2, 318480, Note_on_c, 1, 44, 26
2, 318720, Note_on_c, 1, 44, 0
2, 318720, Note_on_c, 1, 51, 0
2, 318720, Note_on_c, 1, 42, 0
2, 318720, Note_on_c, 1, 39, 33
2, 318960, Note_on_c, 1, 39, 0
2, 318960, Note_on_c, 1, 60, 0
2, 318960, Note_on_c, 1, 72, 0
2, 318960, Note_on_c, 1, 63, 52
2, 318960, Note_on_c, 1, 75, 57
2, 318960, Note_on_c, 1, 44, 28
2, 318960, Note_on_c, 1, 42, 28
2, 318960, Note_on_c, 1, 51, 36
2, 319200, Note_on_c, 1, 51, 0
2, 319200, Note_on_c, 1, 44, 0
2, 319200, Note_on_c, 1, 42, 0
2, 319200, Note_on_c, 1, 39, 33
2, 319440, Note_on_c, 1, 39, 0
2, 319440, Note_on_c, 1, 42, 27
2, 319440, Note_on_c, 1, 44, 27
2, 319440, Note_on_c, 1, 51, 35
2, 319560, Note_on_c, 1, 75, 0
2, 319560, Note_on_c, 1, 63, 0
2, 319560, Note_on_c, 1, 60, 46
2, 319560, Note_on_c, 1, 72, 50
2, 319680, Note_on_c, 1, 72, 0
2, 319680, Note_on_c, 1, 44, 0
2, 319680, Note_on_c, 1, 51, 0
2, 319680, Note_on_c, 1, 42, 0
2, 319680, Note_on_c, 1, 60, 0
2, 319680, Note_on_c, 1, 73, 53
2, 319680, Note_on_c, 1, 61, 49
2, 319680, Note_on_c, 1, 41, 36
2, 319920, Note_on_c, 1, 41, 0
2, 319920, Note_on_c, 1, 44, 26
2, 319920, Note_on_c, 1, 53, 32
2, 319920, Note_on_c, 1, 49, 26
2, 320160, Note_on_c, 1, 49, 0
2, 320160, Note_on_c, 1, 44, 0
2, 320160, Note_on_c, 1, 53, 0
2, 320160, Note_on_c, 1, 41, 33
2, 320400, Note_on_c, 1, 41, 0
2, 320400, Note_on_c, 1, 61, 0
2, 320400, Note_on_c, 1, 73, 0
2, 320400, Note_on_c, 1, 56, 52
2, 320400, Note_on_c, 1, 68, 52
2, 320400, Note_on_c, 1, 53, 36
2, 320400, Note_on_c, 1, 49, 28
2, 320400, Note_on_c, 1, 44, 28
2, 320640, Note_on_c, 1, 44, 0
2, 320640, Note_on_c, 1, 53, 0
2, 320640, Note_on_c, 1, 49, 0
2, 320640, Note_on_c, 1, 41, 33
2, 320880, Note_on_c, 1, 41, 0
2, 320880, Note_on_c, 1, 44, 26
2, 320880, Note_on_c, 1, 53, 33
2, 320880, Note_on_c, 1, 49, 26
2, 321120, Note_on_c, 1, 49, 0
2, 321120, Note_on_c, 1, 44, 0
2, 321120, Note_on_c, 1, 53, 0
2, 321120, Note_on_c, 1, 41, 36
2, 321360, Note_on_c, 1, 41, 0
2, 321360, Note_on_c, 1, 53, 33
2, 321360, Note_on_c, 1, 44, 26
2, 321360, Note_on_c, 1, 49, 26
2, 321600, Note_on_c, 1, 49, 0
2, 321600, Note_on_c, 1, 53, 0
2, 321600, Note_on_c, 1, 44, 0
2, 321600, Note_on_c, 1, 41, 33
2, 321840, Note_on_c, 1, 41, 0
2, 321840, Note_on_c, 1, 68, 0
2, 321840, Note_on_c, 1, 56, 0
2, 321840, Note_on_c, 1, 58, 52
2, 321840, Note_on_c, 1, 70, 57
2, 321840, Note_on_c, 1, 49, 28
2, 321840, Note_on_c, 1, 54, 36
2, 321840, Note_on_c, 1, 51, 28
2, 322080, Note_on_c, 1, 51, 0
2, 322080, Note_on_c, 1, 49, 0
2, 322080, Note_on_c, 1, 54, 0
2, 322080, Note_on_c, 1, 42, 33
2, 322320, Note_on_c, 1, 42, 0
2, 322320, Note_on_c, 1, 49, 27
2, 322320, Note_on_c, 1, 54, 35
2, 322320, Note_on_c, 1, 51, 27
2, 322440, Note_on_c, 1, 70, 0
2, 322440, Note_on_c, 1, 58, 0
2, 322440, Note_on_c, 1, 66, 53
2, 322560, Note_on_c, 1, 66, 0
2, 322560, Note_on_c, 1, 51, 0
2, 322560, Note_on_c, 1, 49, 0
2, 322560, Note_on_c, 1, 54, 0
2, 322560, Note_on_c, 1, 65, 59
2, 322560, Note_on_c, 1, 44, 37
2, 322800, Note_on_c, 1, 44, 0
2, 322800, Note_on_c, 1, 49, 27
2, 322800, Note_on_c, 1, 56, 33
2, 322800, Note_on_c, 1, 53, 27
2, 323040, Note_on_c, 1, 53, 0
2, 323040, Note_on_c, 1, 56, 0
2, 323040, Note_on_c, 1, 49, 0
2, 323040, Note_on_c, 1, 44, 34
2, 323280, Note_on_c, 1, 44, 0
2, 323280, Note_on_c, 1, 65, 0
2, 323280, Note_on_c, 1, 68, 61
2, 323280, Note_on_c, 1, 49, 30
2, 323280, Note_on_c, 1, 56, 38
2, 323280, Note_on_c, 1, 53, 30
2, 323520, Note_on_c, 1, 53, 0
2, 323520, Note_on_c, 1, 56, 0
2, 323520, Note_on_c, 1, 49, 0
2, 323520, Note_on_c, 1, 44, 34
2, 323760, Note_on_c, 1, 44, 0
2, 323760, Note_on_c, 1, 49, 28
2, 323760, Note_on_c, 1, 56, 35
2, 323760, Note_on_c, 1, 53, 28
2, 323880, Note_on_c, 1, 68, 0
2, 323880, Note_on_c, 1, 65, 55
2, 324000, Note_on_c, 1, 65, 0
2, 324000, Note_on_c, 1, 53, 0
2, 324000, Note_on_c, 1, 56, 0
2, 324000, Note_on_c, 1, 49, 0
2, 324000, Note_on_c, 1, 63, 63
2, 324000, Note_on_c, 1, 44, 40
2, 324240, Note_on_c, 1, 44, 0
2, 324240, Note_on_c, 1, 48, 29
2, 324240, Note_on_c, 1, 56, 36
2, 324240, Note_on_c, 1, 51, 29
2, 324480, Note_on_c, 1, 51, 0
2, 324480, Note_on_c, 1, 56, 0
2, 324480, Note_on_c, 1, 48, 0
2, 324480, Note_on_c, 1, 44, 36
2, 324720, Note_on_c, 1, 44, 0
2, 324720, Note_on_c, 1, 63, 0
2, 324720, Note_on_c, 1, 66, 66
2, 324720, Note_on_c, 1, 48, 32
2, 324720, Note_on_c, 1, 56, 41
2, 324720, Note_on_c, 1, 51, 32
2, 324960, Note_on_c, 1, 51, 0
2, 324960, Note_on_c, 1, 56, 0
2, 324960, Note_on_c, 1, 48, 0
2, 324960, Note_on_c, 1, 44, 37
2, 325200, Note_on_c, 1, 44, 0
2, 325200, Note_on_c, 1, 48, 30
2, 325200, Note_on_c, 1, 56, 37
2, 325200, Note_on_c, 1, 51, 30
2, 325320, Note_on_c, 1, 66, 0
2, 325320, Note_on_c, 1, 63, 59
2, 325440, Note_on_c, 1, 63, 0
2, 325440, Note_on_c, 1, 51, 0
2, 325440, Note_on_c, 1, 56, 0
2, 325440, Note_on_c, 1, 48, 0
2, 325440, Note_on_c, 1, 60, 72
2, 325440, Note_on_c, 1, 45, 51
2, 325680, Note_on_c, 1, 45, 0
2, 325680, Note_on_c, 1, 48, 33
2, 325680, Note_on_c, 1, 53, 33
2, 325680, Note_on_c, 1, 57, 41
2, 325920, Note_on_c, 1, 57, 0
2, 325920, Note_on_c, 1, 53, 0
2, 325920, Note_on_c, 1, 48, 0
2, 325920, Note_on_c, 1, 45, 45
2, 326160, Note_on_c, 1, 45, 0
2, 326160, Note_on_c, 1, 60, 0
2, 326160, Note_on_c, 1, 65, 63
2, 326160, Note_on_c, 1, 48, 29
2, 326160, Note_on_c, 1, 53, 29
2, 326160, Note_on_c, 1, 57, 38
2, 326400, Note_on_c, 1, 57, 0
2, 326400, Note_on_c, 1, 53, 0
2, 326400, Note_on_c, 1, 48, 0
2, 326400, Note_on_c, 1, 45, 36
2, 326640, Note_on_c, 1, 45, 0
2, 326640, Note_on_c, 1, 48, 28
2, 326640, Note_on_c, 1, 53, 28
2, 326640, Note_on_c, 1, 57, 38
2, 326880, Note_on_c, 1, 57, 0
2, 326880, Note_on_c, 1, 53, 0
2, 326880, Note_on_c, 1, 48, 0
2, 326880, Note_on_c, 1, 45, 39
2, 327120, Note_on_c, 1, 45, 0
2, 327120, Note_on_c, 1, 48, 28
2, 327120, Note_on_c, 1, 53, 28
2, 327120, Note_on_c, 1, 57, 36
2, 327360, Note_on_c, 1, 57, 0
2, 327360, Note_on_c, 1, 53, 0
2, 327360, Note_on_c, 1, 48, 0
2, 327360, Note_on_c, 1, 45, 39
2, 327600, Note_on_c, 1, 45, 0
2, 327600, Note_on_c, 1, 65, 0
2, 327600, Note_on_c, 1, 73, 60
2, 327600, Note_on_c, 1, 61, 56
2, 327600, Note_on_c, 1, 53, 27
2, 327600, Note_on_c, 1, 58, 35
2, 327600, Note_on_c, 1, 49, 27
2, 327840, Note_on_c, 1, 49, 0
2, 327840, Note_on_c, 1, 53, 0
2, 327840, Note_on_c, 1, 58, 0
2, 327840, Note_on_c, 1, 46, 33
2, 328080, Note_on_c, 1, 46, 0
2, 328080, Note_on_c, 1, 49, 27
2, 328080, Note_on_c, 1, 53, 27
2, 328080, Note_on_c, 1, 58, 34
2, 328200, Note_on_c, 1, 61, 0
2, 328200, Note_on_c, 1, 73, 0
2, 328200, Note_on_c, 1, 77, 58
2, 328200, Note_on_c, 1, 65, 53
2, 328320, Note_on_c, 1, 65, 0
2, 328320, Note_on_c, 1, 53, 0
2, 328320, Note_on_c, 1, 58, 0
2, 328320, Note_on_c, 1, 49, 0
2, 328320, Note_on_c, 1, 77, 0
2, 328320, Note_on_c, 1, 82, 60
2, 328320, Note_on_c, 1, 70, 51
2, 328320, Note_on_c, 1, 46, 37
2, 328560, Note_on_c, 1, 46, 0
2, 328560, Note_on_c, 1, 49, 27
2, 328560, Note_on_c, 1, 53, 27
2, 328560, Note_on_c, 1, 58, 34
2, 328800, Note_on_c, 1, 58, 0
2, 328800, Note_on_c, 1, 49, 0
2, 328800, Note_on_c, 1, 53, 0
2, 328800, Note_on_c, 1, 46, 36
2, 329040, Note_on_c, 1, 46, 0
2, 329040, Note_on_c, 1, 70, 0
2, 329040, Note_on_c, 1, 82, 0
2, 329040, Note_on_c, 1, 85, 62
2, 329040, Note_on_c, 1, 73, 57
2, 329040, Note_on_c, 1, 49, 30
2, 329040, Note_on_c, 1, 53, 30
2, 329040, Note_on_c, 1, 58, 39
2, 329280, Note_on_c, 1, 58, 0
2, 329280, Note_on_c, 1, 49, 0
2, 329280, Note_on_c, 1, 53, 0
2, 329280, Note_on_c, 1, 46, 37
2, 329520, Note_on_c, 1, 46, 0
2, 329520, Note_on_c, 1, 53, 29
2, 329520, Note_on_c, 1, 58, 38
2, 329520, Note_on_c, 1, 49, 29
2, 329640, Note_on_c, 1, 73, 0
2, 329640, Note_on_c, 1, 85, 0
2, 329640, Note_on_c, 1, 70, 53
2, 329640, Note_on_c, 1, 82, 58
2, 329760, Note_on_c, 1, 82, 0
2, 329760, Note_on_c, 1, 58, 0
2, 329760, Note_on_c, 1, 49, 0
2, 329760, Note_on_c, 1, 53, 0
2, 329760, Note_on_c, 1, 70, 0
2, 329760, Note_on_c, 1, 81, 61
2, 329760, Note_on_c, 1, 69, 57
2, 329760, Note_on_c, 1, 48, 40
2, 330000, Note_on_c, 1, 48, 0
2, 330000, Note_on_c, 1, 51, 29
2, 330000, Note_on_c, 1, 53, 29
2, 330000, Note_on_c, 1, 60, 38
2, 330240, Note_on_c, 1, 60, 0
2, 330240, Note_on_c, 1, 51, 0
2, 330240, Note_on_c, 1, 53, 0
2, 330240, Note_on_c, 1, 48, 39
2, 330480, Note_on_c, 1, 48, 0
2, 330480, Note_on_c, 1, 69, 0
2, 330480, Note_on_c, 1, 81, 0
2, 330480, Note_on_c, 1, 72, 59
2, 330480, Note_on_c, 1, 84, 65
2, 330480, Note_on_c, 1, 51, 34
2, 330480, Note_on_c, 1, 60, 42
2, 330480, Note_on_c, 1, 53, 34
2, 330720, Note_on_c, 1, 53, 0
2, 330720, Note_on_c, 1, 51, 0
2, 330720, Note_on_c, 1, 60, 0
2, 330720, Note_on_c, 1, 48, 40
2, 330960, Note_on_c, 1, 48, 0
2, 330960, Note_on_c, 1, 53, 33
2, 330960, Note_on_c, 1, 60, 42
2, 330960, Note_on_c, 1, 51, 33
2, 331080, Note_on_c, 1, 84, 0
2, 331080, Note_on_c, 1, 72, 0
2, 331080, Note_on_c, 1, 69, 58
2, 331080, Note_on_c, 1, 81, 63
2, 331200, Note_on_c, 1, 81, 0
2, 331200, Note_on_c, 1, 60, 0
2, 331200, Note_on_c, 1, 51, 0
2, 331200, Note_on_c, 1, 53, 0
2, 331200, Note_on_c, 1, 69, 0
2, 331200, Note_on_c, 1, 70, 51
2, 331200, Note_on_c, 1, 82, 57
2, 331200, Note_on_c, 1, 49, 37
2, 331440, Note_on_c, 1, 49, 0
2, 331440, Note_on_c, 1, 53, 27
2, 331440, Note_on_c, 1, 58, 27
2, 331440, Note_on_c, 1, 61, 34
2, 331680, Note_on_c, 1, 61, 0
2, 331680, Note_on_c, 1, 53, 0
2, 331680, Note_on_c, 1, 58, 0
2, 331680, Note_on_c, 1, 49, 36
2, 331920, Note_on_c, 1, 49, 0
2, 331920, Note_on_c, 1, 82, 0
2, 331920, Note_on_c, 1, 70, 0
2, 331920, Note_on_c, 1, 77, 52
2, 331920, Note_on_c, 1, 65, 52
2, 331920, Note_on_c, 1, 53, 30
2, 331920, Note_on_c, 1, 58, 30
2, 331920, Note_on_c, 1, 61, 39
2, 332160, Note_on_c, 1, 61, 0
2, 332160, Note_on_c, 1, 53, 0
2, 332160, Note_on_c, 1, 58, 0
2, 332160, Note_on_c, 1, 49, 37
2, 332400, Note_on_c, 1, 49, 0
2, 332400, Note_on_c, 1, 58, 29
2, 332400, Note_on_c, 1, 61, 38
2, 332400, Note_on_c, 1, 53, 29
2, 332640, Note_on_c, 1, 53, 0
2, 332640, Note_on_c, 1, 58, 0
2, 332640, Note_on_c, 1, 61, 0
2, 332640, Note_on_c, 1, 49, 40
2, 332880, Note_on_c, 1, 49, 0
2, 332880, Note_on_c, 1, 53, 29
2, 332880, Note_on_c, 1, 58, 29
2, 332880, Note_on_c, 1, 61, 38
2, 333120, Note_on_c, 1, 61, 0
2, 333120, Note_on_c, 1, 53, 0
2, 333120, Note_on_c, 1, 58, 0
2, 333120, Note_on_c, 1, 49, 39
2, 333360, Note_on_c, 1, 49, 0
2, 333360, Note_on_c, 1, 65, 0
2, 333360, Note_on_c, 1, 77, 0
2, 333360, Note_on_c, 1, 78, 68
2, 333360, Note_on_c, 1, 66, 62
2, 333360, Note_on_c, 1, 54, 28
2, 333360, Note_on_c, 1, 63, 36
2, 333360, Note_on_c, 1, 58, 28
2, 333600, Note_on_c, 1, 58, 0
2, 333600, Note_on_c, 1, 54, 0
2, 333600, Note_on_c, 1, 63, 0
2, 333600, Note_on_c, 1, 51, 33
2, 333840, Note_on_c, 1, 51, 0
2, 333840, Note_on_c, 1, 54, 27
2, 333840, Note_on_c, 1, 63, 35
2, 333840, Note_on_c, 1, 58, 27
2, 333960, Note_on_c, 1, 78, 0
2, 333960, Note_on_c, 1, 75, 63
2, 334080, Note_on_c, 1, 75, 0
2, 334080, Note_on_c, 1, 58, 0
2, 334080, Note_on_c, 1, 66, 0
2, 334080, Note_on_c, 1, 54, 0
2, 334080, Note_on_c, 1, 63, 0
2, 334080, Note_on_c, 1, 73, 70
2, 334080, Note_on_c, 1, 53, 37
2, 334320, Note_on_c, 1, 53, 0
2, 334320, Note_on_c, 1, 58, 27
2, 334320, Note_on_c, 1, 65, 33
2, 334320, Note_on_c, 1, 61, 27
2, 334560, Note_on_c, 1, 61, 0
2, 334560, Note_on_c, 1, 65, 0
2, 334560, Note_on_c, 1, 58, 0
2, 334560, Note_on_c, 1, 53, 34
2, 334800, Note_on_c, 1, 53, 0
2, 334800, Note_on_c, 1, 73, 0
2, 334800, Note_on_c, 1, 77, 67
2, 334800, Note_on_c, 1, 58, 30
2, 334800, Note_on_c, 1, 65, 38
2, 334800, Note_on_c, 1, 61, 30
2, 335040, Note_on_c, 1, 61, 0
2, 335040, Note_on_c, 1, 65, 0
2, 335040, Note_on_c, 1, 58, 0
2, 335040, Note_on_c, 1, 53, 34
2, 335280, Note_on_c, 1, 53, 0
2, 335280, Note_on_c, 1, 61, 28
2, 335280, Note_on_c, 1, 65, 35
2, 335280, Note_on_c, 1, 58, 28
2, 335400, Note_on_c, 1, 77, 0
2, 335400, Note_on_c, 1, 73, 61
2, 335520, Note_on_c, 1, 73, 0
2, 335520, Note_on_c, 1, 58, 0
2, 335520, Note_on_c, 1, 65, 0
2, 335520, Note_on_c, 1, 61, 0
2, 335520, Note_on_c, 1, 72, 70
2, 335520, Note_on_c, 1, 53, 40
2, 335760, Note_on_c, 1, 53, 0
2, 335760, Note_on_c, 1, 60, 29
2, 335760, Note_on_c, 1, 57, 29
2, 335760, Note_on_c, 1, 63, 37
2, 336000, Note_on_c, 1, 63, 0
2, 336000, Note_on_c, 1, 57, 0
2, 336000, Note_on_c, 1, 60, 0
2, 336000, Note_on_c, 1, 53, 37
2, 336240, Note_on_c, 1, 53, 0
2, 336240, Note_on_c, 1, 72, 0
2, 336240, Note_on_c, 1, 75, 71
2, 336240, Note_on_c, 1, 60, 33
2, 336240, Note_on_c, 1, 57, 33
2, 336240, Note_on_c, 1, 63, 42
2, 336480, Note_on_c, 1, 63, 0
2, 336480, Note_on_c, 1, 57, 0
2, 336480, Note_on_c, 1, 60, 0
2, 336480, Note_on_c, 1, 53, 38
2, 336720, Note_on_c, 1, 53, 0
2, 336720, Note_on_c, 1, 60, 31
2, 336720, Note_on_c, 1, 57, 31
2, 336720, Note_on_c, 1, 63, 38
2, 336840, Note_on_c, 1, 75, 0
2, 336840, Note_on_c, 1, 72, 67
2, 336960, Note_on_c, 1, 72, 0
2, 336960, Note_on_c, 1, 63, 0
2, 336960, Note_on_c, 1, 57, 0
2, 336960, Note_on_c, 1, 60, 0
2, 336960, Note_on_c, 1, 70, 78
2, 336960, Note_on_c, 1, 54, 53
2, 337200, Note_on_c, 1, 54, 0
2, 337200, Note_on_c, 1, 66, 43
2, 337200, Note_on_c, 1, 61, 34
2, 337200, Note_on_c, 1, 58, 34
2, 337440, Note_on_c, 1, 58, 0
2, 337440, Note_on_c, 1, 61, 0
2, 337440, Note_on_c, 1, 66, 0
2, 337440, Note_on_c, 1, 54, 47
2, 337680, Note_on_c, 1, 54, 0
2, 337680, Note_on_c, 1, 70, 0
2, 337680, Note_on_c, 1, 73, 73
2, 337680, Note_on_c, 1, 66, 46
2, 337680, Note_on_c, 1, 61, 35
2, 337680, Note_on_c, 1, 58, 35
2, 337920, Note_on_c, 1, 58, 0
2, 337920, Note_on_c, 1, 61, 0
2, 337920, Note_on_c, 1, 66, 0
2, 337920, Note_on_c, 1, 54, 43
2, 338160, Note_on_c, 1, 54, 0
2, 338160, Note_on_c, 1, 66, 46
2, 338160, Note_on_c, 1, 61, 34
2, 338160, Note_on_c, 1, 58, 34
2, 338400, Note_on_c, 1, 58, 0
2, 338400, Note_on_c, 1, 61, 0
2, 338400, Note_on_c, 1, 66, 0
2, 338400, Note_on_c, 1, 54, 47
2, 338640, Note_on_c, 1, 54, 0
2, 338640, Note_on_c, 1, 66, 44
2, 338640, Note_on_c, 1, 61, 34
2, 338640, Note_on_c, 1, 58, 34
2, 338880, Note_on_c, 1, 58, 0
2, 338880, Note_on_c, 1, 61, 0
2, 338880, Note_on_c, 1, 66, 0
2, 338880, Note_on_c, 1, 54, 47
2, 339120, Note_on_c, 1, 54, 0
2, 339120, Note_on_c, 1, 73, 0
2, 339120, Note_on_c, 1, 70, 73
2, 339120, Note_on_c, 1, 82, 79
2, 339120, Note_on_c, 1, 58, 35
2, 339120, Note_on_c, 1, 61, 35
2, 339120, Note_on_c, 1, 66, 46
2, 339360, Note_on_c, 1, 66, 0
2, 339360, Note_on_c, 1, 58, 0
2, 339360, Note_on_c, 1, 61, 0
2, 339360, Note_on_c, 1, 54, 42
2, 339600, Note_on_c, 1, 54, 0
2, 339600, Note_on_c, 1, 66, 44
2, 339600, Note_on_c, 1, 58, 35
2, 339600, Note_on_c, 1, 61, 35
2, 339720, Note_on_c, 1, 82, 0
2, 339720, Note_on_c, 1, 70, 0
2, 339720, Note_on_c, 1, 85, 75
2, 339720, Note_on_c, 1, 73, 69
2, 339840, Note_on_c, 1, 73, 0
2, 339840, Note_on_c, 1, 58, 0
2, 339840, Note_on_c, 1, 61, 0
2, 339840, Note_on_c, 1, 66, 0
2, 339840, Note_on_c, 1, 85, 0
2, 339840, Note_on_c, 1, 78, 71
2, 339840, Note_on_c, 1, 90, 80
2, 339840, Note_on_c, 1, 54, 48
2, 340080, Note_on_c, 1, 54, 0
2, 340080, Note_on_c, 1, 66, 44
2, 340080, Note_on_c, 1, 61, 35
2, 340080, Note_on_c, 1, 58, 35
2, 340320, Note_on_c, 1, 58, 0
2, 340320, Note_on_c, 1, 66, 0
2, 340320, Note_on_c, 1, 61, 0
2, 340320, Note_on_c, 1, 54, 47
2, 340560, Note_on_c, 1, 54, 0
2, 340560, Note_on_c, 1, 90, 0
2, 340560, Note_on_c, 1, 78, 0
2, 340560, Note_on_c, 1, 82, 74
2, 340560, Note_on_c, 1, 94, 81
2, 340560, Note_on_c, 1, 66, 50
2, 340560, Note_on_c, 1, 61, 39
2, 340560, Note_on_c, 1, 58, 39
2, 340800, Note_on_c, 1, 58, 0
2, 340800, Note_on_c, 1, 66, 0
2, 340800, Note_on_c, 1, 61, 0
2, 340800, Note_on_c, 1, 54, 48
2, 341040, Note_on_c, 1, 54, 0
2, 341040, Note_on_c, 1, 58, 37
2, 341040, Note_on_c, 1, 66, 49
2, 341040, Note_on_c, 1, 61, 37
2, 341160, Note_on_c, 1, 94, 0
2, 341160, Note_on_c, 1, 82, 0
2, 341160, Note_on_c, 1, 90, 75
2, 341160, Note_on_c, 1, 78, 69
2, 341280, Note_on_c, 1, 78, 0
2, 341280, Note_on_c, 1, 66, 0
2, 341280, Note_on_c, 1, 61, 0
2, 341280, Note_on_c, 1, 58, 0
2, 341280, Note_on_c, 1, 90, 0
2, 341280, Note_on_c, 1, 77, 74
2, 341280, Note_on_c, 1, 89, 80
2, 341280, Note_on_c, 1, 56, 52
2, 341520, Note_on_c, 1, 56, 0
2, 341520, Note_on_c, 1, 68, 49
2, 341520, Note_on_c, 1, 59, 37
2, 341520, Note_on_c, 1, 61, 37
2, 341760, Note_on_c, 1, 61, 0
2, 341760, Note_on_c, 1, 68, 0
2, 341760, Note_on_c, 1, 59, 0
2, 341760, Note_on_c, 1, 56, 50
2, 342000, Note_on_c, 1, 56, 0
2, 342000, Note_on_c, 1, 89, 0
2, 342000, Note_on_c, 1, 77, 0
2, 342000, Note_on_c, 1, 80, 77
2, 342000, Note_on_c, 1, 92, 85
2, 342000, Note_on_c, 1, 61, 44
2, 342000, Note_on_c, 1, 68, 55
2, 342000, Note_on_c, 1, 59, 44
2, 342240, Note_on_c, 1, 59, 0
2, 342240, Note_on_c, 1, 61, 0
2, 342240, Note_on_c, 1, 68, 0
2, 342240, Note_on_c, 1, 56, 52
2, 342480, Note_on_c, 1, 56, 0
2, 342480, Note_on_c, 1, 59, 42
2, 342480, Note_on_c, 1, 68, 55
2, 342480, Note_on_c, 1, 61, 42
2, 342600, Note_on_c, 1, 92, 0
2, 342600, Note_on_c, 1, 80, 0
2, 342600, Note_on_c, 1, 77, 75
2, 342600, Note_on_c, 1, 89, 82
2, 342720, Note_on_c, 1, 89, 0
2, 342720, Note_on_c, 1, 68, 0
2, 342720, Note_on_c, 1, 61, 0
2, 342720, Note_on_c, 1, 59, 0
2, 342720, Note_on_c, 1, 77, 0
2, 342720, Note_on_c, 1, 78, 80
2, 342720, Note_on_c, 1, 90, 89
2, 342720, Note_on_c, 1, 58, 48
2, 342960, Note_on_c, 1, 58, 0
2, 342960, Note_on_c, 1, 70, 44
2, 342960, Note_on_c, 1, 61, 35
2, 342960, Note_on_c, 1, 66, 35
2, 343200, Note_on_c, 1, 66, 0
2, 343200, Note_on_c, 1, 70, 0
2, 343200, Note_on_c, 1, 61, 0
2, 343200, Note_on_c, 1, 58, 47
2, 343440, Note_on_c, 1, 58, 0
2, 343440, Note_on_c, 1, 90, 0
2, 343440, Note_on_c, 1, 78, 0
2, 343440, Note_on_c, 1, 73, 68
2, 343440, Note_on_c, 1, 85, 81
2, 343440, Note_on_c, 1, 70, 42
2, 343440, Note_on_c, 1, 61, 33
2, 343440, Note_on_c, 1, 66, 33
2, 343680, Note_on_c, 1, 66, 0
2, 343680, Note_on_c, 1, 70, 0
2, 343680, Note_on_c, 1, 61, 0
2, 343680, Note_on_c, 1, 58, 40
2, 343920, Note_on_c, 1, 58, 0
2, 343920, Note_on_c, 1, 61, 33
2, 343920, Note_on_c, 1, 66, 33
2, 343920, Note_on_c, 1, 70, 44
2, 344160, Note_on_c, 1, 70, 0
2, 344160, Note_on_c, 1, 61, 0
2, 344160, Note_on_c, 1, 66, 0
2, 344160, Note_on_c, 1, 58, 50
2, 344400, Note_on_c, 1, 58, 0
2, 344400, Note_on_c, 1, 70, 49
2, 344400, Note_on_c, 1, 66, 37
2, 344400, Note_on_c, 1, 61, 37
2, 344640, Note_on_c, 1, 61, 0
2, 344640, Note_on_c, 1, 70, 0
2, 344640, Note_on_c, 1, 66, 0
2, 344640, Note_on_c, 1, 58, 52
2, 344880, Note_on_c, 1, 58, 0
2, 344880, Note_on_c, 1, 66, 38
2, 344880, Note_on_c, 1, 70, 51
2, 344880, Note_on_c, 1, 61, 38
2, 345120, Note_on_c, 1, 61, 0
2, 345120, Note_on_c, 1, 66, 0
2, 345120, Note_on_c, 1, 70, 0
2, 345120, Note_on_c, 1, 58, 48
2, 345360, Note_on_c, 1, 58, 0
2, 345360, Note_on_c, 1, 66, 41
2, 345360, Note_on_c, 1, 70, 55
2, 345360, Note_on_c, 1, 61, 41
2, 345600, Note_on_c, 1, 61, 0
2, 345600, Note_on_c, 1, 66, 0
2, 345600, Note_on_c, 1, 73, 0
2, 345600, Note_on_c, 1, 85, 0
2, 345600, Note_on_c, 1, 70, 0
2, 345600, Note_on_c, 1, 90, 89
2, 345600, Note_on_c, 1, 78, 80
2, 345600, Note_on_c, 1, 59, 57
2, 345840, Note_on_c, 1, 59, 0
2, 345840, Note_on_c, 1, 71, 44
2, 345840, Note_on_c, 1, 62, 35
2, 345840, Note_on_c, 1, 66, 35
2, 346080, Note_on_c, 1, 66, 0
2, 346080, Note_on_c, 1, 71, 0
2, 346080, Note_on_c, 1, 62, 0
2, 346080, Note_on_c, 1, 59, 47
2, 346320, Note_on_c, 1, 59, 0
2, 346320, Note_on_c, 1, 78, 0
2, 346320, Note_on_c, 1, 90, 0
2, 346320, Note_on_c, 1, 86, 83
2, 346320, Note_on_c, 1, 74, 70
2, 346320, Note_on_c, 1, 71, 42
2, 346320, Note_on_c, 1, 62, 33
2, 346320, Note_on_c, 1, 66, 33
2, 346560, Note_on_c, 1, 66, 0
2, 346560, Note_on_c, 1, 71, 0
2, 346560, Note_on_c, 1, 62, 0
2, 346560, Note_on_c, 1, 59, 40
2, 346800, Note_on_c, 1, 59, 0
2, 346800, Note_on_c, 1, 62, 33
2, 346800, Note_on_c, 1, 66, 33
2, 346800, Note_on_c, 1, 71, 44
2, 347040, Note_on_c, 1, 71, 0
2, 347040, Note_on_c, 1, 62, 0
2, 347040, Note_on_c, 1, 66, 0
2, 347040, Note_on_c, 1, 59, 50
2, 347280, Note_on_c, 1, 59, 0
2, 347280, Note_on_c, 1, 71, 49
2, 347280, Note_on_c, 1, 66, 37
2, 347280, Note_on_c, 1, 62, 37
2, 347520, Note_on_c, 1, 62, 0
2, 347520, Note_on_c, 1, 71, 0
2, 347520, Note_on_c, 1, 66, 0
2, 347520, Note_on_c, 1, 59, 53
2, 347760, Note_on_c, 1, 59, 0
2, 347760, Note_on_c, 1, 66, 38
2, 347760, Note_on_c, 1, 71, 52
2, 347760, Note_on_c, 1, 62, 38
2, 348000, Note_on_c, 1, 62, 0
2, 348000, Note_on_c, 1, 66, 0
2, 348000, Note_on_c, 1, 71, 0
2, 348000, Note_on_c, 1, 59, 49
2, 348240, Note_on_c, 1, 59, 0
2, 348240, Note_on_c, 1, 66, 42
2, 348240, Note_on_c, 1, 71, 56
2, 348240, Note_on_c, 1, 62, 42
2, 348480, Note_on_c, 1, 62, 0
2, 348480, Note_on_c, 1, 66, 0
2, 348480, Note_on_c, 1, 86, 0
2, 348480, Note_on_c, 1, 74, 0
2, 348480, Note_on_c, 1, 71, 0
2, 348480, Note_on_c, 1, 79, 96
2, 348480, Note_on_c, 1, 91, 96
2, 348480, Note_on_c, 1, 59, 60
2, 348720, Note_on_c, 1, 59, 0
2, 348720, Note_on_c, 1, 62, 36
2, 348720, Note_on_c, 1, 67, 36
2, 348720, Note_on_c, 1, 71, 46
2, 348960, Note_on_c, 1, 71, 0
2, 348960, Note_on_c, 1, 62, 0
2, 348960, Note_on_c, 1, 67, 0
2, 348960, Note_on_c, 1, 59, 49
2, 349200, Note_on_c, 1, 59, 0
2, 349200, Note_on_c, 1, 91, 0
2, 349200, Note_on_c, 1, 79, 0
2, 349200, Note_on_c, 1, 74, 74
2, 349200, Note_on_c, 1, 86, 89
2, 349200, Note_on_c, 1, 62, 34
2, 349200, Note_on_c, 1, 67, 34
2, 349200, Note_on_c, 1, 71, 45
2, 349440, Note_on_c, 1, 71, 0
2, 349440, Note_on_c, 1, 62, 0
2, 349440, Note_on_c, 1, 67, 0
2, 349440, Note_on_c, 1, 59, 42
2, 349680, Note_on_c, 1, 59, 0
2, 349680, Note_on_c, 1, 67, 35
2, 349680, Note_on_c, 1, 71, 47
2, 349680, Note_on_c, 1, 62, 35
2, 349920, Note_on_c, 1, 62, 0
2, 349920, Note_on_c, 1, 67, 0
2, 349920, Note_on_c, 1, 71, 0
2, 349920, Note_on_c, 1, 59, 53
2, 350160, Note_on_c, 1, 59, 0
2, 350160, Note_on_c, 1, 62, 39
2, 350160, Note_on_c, 1, 67, 39
2, 350160, Note_on_c, 1, 71, 51
2, 350400, Note_on_c, 1, 71, 0
2, 350400, Note_on_c, 1, 62, 0
2, 350400, Note_on_c, 1, 67, 0
2, 350400, Note_on_c, 1, 59, 56
2, 350640, Note_on_c, 1, 59, 0
2, 350640, Note_on_c, 1, 62, 40
2, 350640, Note_on_c, 1, 71, 55
2, 350640, Note_on_c, 1, 67, 40
2, 350880, Note_on_c, 1, 67, 0
2, 350880, Note_on_c, 1, 62, 0
2, 350880, Note_on_c, 1, 71, 0
2, 350880, Note_on_c, 1, 59, 51
2, 351120, Note_on_c, 1, 59, 0
2, 351120, Note_on_c, 1, 62, 44
2, 351120, Note_on_c, 1, 71, 59
2, 351120, Note_on_c, 1, 67, 44
2, 351360, Note_on_c, 1, 67, 0
2, 351360, Note_on_c, 1, 62, 0
2, 351360, Note_on_c, 1, 74, 0
2, 351360, Note_on_c, 1, 86, 0
2, 351360, Note_on_c, 1, 71, 0
2, 351360, Note_on_c, 1, 79, 102
2, 351360, Note_on_c, 1, 91, 102
2, 351360, Note_on_c, 1, 60, 64
2, 351600, Note_on_c, 1, 60, 0
2, 351600, Note_on_c, 1, 64, 38
2, 351600, Note_on_c, 1, 67, 38
2, 351600, Note_on_c, 1, 72, 48
2, 351840, Note_on_c, 1, 72, 0
2, 351840, Note_on_c, 1, 64, 0
2, 351840, Note_on_c, 1, 67, 0
2, 351840, Note_on_c, 1, 60, 51
2, 352080, Note_on_c, 1, 60, 0
2, 352080, Note_on_c, 1, 91, 0
2, 352080, Note_on_c, 1, 79, 0
2, 352080, Note_on_c, 1, 88, 94
2, 352080, Note_on_c, 1, 76, 80
2, 352080, Note_on_c, 1, 64, 37
2, 352080, Note_on_c, 1, 67, 37
2, 352080, Note_on_c, 1, 72, 48
2, 352320, Note_on_c, 1, 72, 0
2, 352320, Note_on_c, 1, 64, 0
2, 352320, Note_on_c, 1, 67, 0
2, 352320, Note_on_c, 1, 60, 47
2, 352560, Note_on_c, 1, 60, 0
2, 352560, Note_on_c, 1, 67, 37
2, 352560, Note_on_c, 1, 72, 50
2, 352560, Note_on_c, 1, 64, 37
2, 352800, Note_on_c, 1, 64, 0
2, 352800, Note_on_c, 1, 67, 0
2, 352800, Note_on_c, 1, 72, 0
2, 352800, Note_on_c, 1, 60, 57
2, 353040, Note_on_c, 1, 60, 0
2, 353040, Note_on_c, 1, 64, 41
2, 353040, Note_on_c, 1, 67, 41
2, 353040, Note_on_c, 1, 72, 55
2, 353280, Note_on_c, 1, 72, 0
2, 353280, Note_on_c, 1, 64, 0
2, 353280, Note_on_c, 1, 67, 0
2, 353280, Note_on_c, 1, 60, 59
2, 353520, Note_on_c, 1, 60, 0
2, 353520, Note_on_c, 1, 64, 44
2, 353520, Note_on_c, 1, 72, 58
2, 353520, Note_on_c, 1, 67, 44
2, 353760, Note_on_c, 1, 67, 0
2, 353760, Note_on_c, 1, 64, 0
2, 353760, Note_on_c, 1, 72, 0
2, 353760, Note_on_c, 1, 60, 55
2, 354000, Note_on_c, 1, 60, 0
2, 354000, Note_on_c, 1, 64, 47
2, 354000, Note_on_c, 1, 72, 61
2, 354000, Note_on_c, 1, 67, 47
2, 354240, Note_on_c, 1, 67, 0
2, 354240, Note_on_c, 1, 64, 0
2, 354240, Note_on_c, 1, 88, 0
2, 354240, Note_on_c, 1, 76, 0
2, 354240, Note_on_c, 1, 72, 0
2, 354240, Note_on_c, 1, 61, 102
2, 354360, Note_on_c, 1, 64, 78
2, 354480, Note_on_c, 1, 67, 78
2, 354600, Note_on_c, 1, 70, 78
2, 354720, Note_on_c, 1, 73, 78
2, 354960, Note_on_c, 1, 79, 75
2, 355080, Note_on_c, 1, 82, 71
2, 355200, Note_on_c, 1, 85, 70
2, 355320, Note_on_c, 1, 85, 0
2, 355320, Note_on_c, 1, 88, 70
2, 355440, Note_on_c, 1, 82, 0
2, 355440, Note_on_c, 1, 91, 73
2, 355560, Note_on_c, 1, 91, 0
2, 355560, Note_on_c, 1, 88, 0
2, 355560, Note_on_c, 1, 79, 0
2, 355560, Note_on_c, 1, 79, 71
2, 355680, Note_on_c, 1, 79, 0
2, 355680, Note_on_c, 1, 73, 0
2, 355680, Note_on_c, 1, 67, 0
2, 355680, Note_on_c, 1, 70, 0
2, 355680, Note_on_c, 1, 64, 0
2, 355680, Note_on_c, 1, 61, 0
2, 355680, Note_on_c, 1, 64, 101
2, 355800, Note_on_c, 1, 67, 78
2, 355920, Note_on_c, 1, 70, 78
2, 356040, Note_on_c, 1, 73, 78
2, 356160, Note_on_c, 1, 76, 79
2, 356400, Note_on_c, 1, 79, 77
2, 356520, Note_on_c, 1, 82, 72
2, 356640, Note_on_c, 1, 85, 72
2, 356760, Note_on_c, 1, 85, 0
2, 356760, Note_on_c, 1, 88, 70
2, 356880, Note_on_c, 1, 82, 0
2, 356880, Note_on_c, 1, 91, 74
2, 357000, Note_on_c, 1, 91, 0
2, 357000, Note_on_c, 1, 88, 0
2, 357000, Note_on_c, 1, 79, 0
2, 357000, Note_on_c, 1, 79, 72
2, 357120, Note_on_c, 1, 79, 0
2, 357120, Note_on_c, 1, 76, 0
2, 357120, Note_on_c, 1, 70, 0
2, 357120, Note_on_c, 1, 73, 0
2, 357120, Note_on_c, 1, 67, 0
2, 357120, Note_on_c, 1, 64, 0
2, 357120, Note_on_c, 1, 67, 101
2, 357240, Note_on_c, 1, 70, 84
2, 357360, Note_on_c, 1, 73, 84
2, 357480, Note_on_c, 1, 76, 84
2, 357840, Note_on_c, 1, 79, 77
2, 357960, Note_on_c, 1, 82, 71
2, 358080, Note_on_c, 1, 85, 71
2, 358200, Note_on_c, 1, 85, 0
2, 358200, Note_on_c, 1, 88, 70
2, 358320, Note_on_c, 1, 82, 0
2, 358320, Note_on_c, 1, 91, 76
2, 358440, Note_on_c, 1, 91, 0
2, 358440, Note_on_c, 1, 88, 0
2, 358440, Note_on_c, 1, 79, 0
2, 358440, Note_on_c, 1, 79, 71
2, 358560, Note_on_c, 1, 79, 0
2, 358560, Note_on_c, 1, 76, 0
2, 358560, Note_on_c, 1, 67, 0
2, 358560, Note_on_c, 1, 70, 0
2, 358560, Note_on_c, 1, 73, 0
2, 358560, Note_on_c, 1, 70, 100
2, 358680, Note_on_c, 1, 73, 84
2, 358800, Note_on_c, 1, 76, 86
2, 359280, Note_on_c, 1, 79, 77
2, 359400, Note_on_c, 1, 82, 71
2, 359520, Note_on_c, 1, 85, 73
2, 359640, Note_on_c, 1, 85, 0
2, 359640, Note_on_c, 1, 88, 70
2, 359760, Note_on_c, 1, 82, 0
2, 359760, Note_on_c, 1, 91, 76
2, 359880, Note_on_c, 1, 91, 0
2, 359880, Note_on_c, 1, 88, 0
2, 359880, Note_on_c, 1, 79, 0
2, 359880, Note_on_c, 1, 79, 71
2, 360000, Note_on_c, 1, 79, 0
2, 360000, Note_on_c, 1, 73, 0
2, 360000, Note_on_c, 1, 76, 0
2, 360000, Note_on_c, 1, 70, 0
2, 360000, Note_on_c, 1, 73, 96
2, 360120, Note_on_c, 1, 76, 84
2, 360240, Note_on_c, 1, 82, 77
2, 360240, Note_on_c, 1, 79, 84
2, 360360, Note_on_c, 1, 85, 71
2, 360480, Note_on_c, 1, 88, 74
2, 360600, Note_on_c, 1, 88, 0
2, 360600, Note_on_c, 1, 91, 70
2, 360720, Note_on_c, 1, 91, 0
2, 360720, Note_on_c, 1, 85, 0
2, 360720, Note_on_c, 1, 82, 0
2, 360720, Note_on_c, 1, 73, 0
2, 360720, Note_on_c, 1, 76, 0
2, 360720, Note_on_c, 1, 79, 0
2, 360720, Note_on_c, 1, 76, 98
2, 360840, Note_on_c, 1, 79, 84
2, 360960, Note_on_c, 1, 85, 77
2, 360960, Note_on_c, 1, 82, 84
2, 361080, Note_on_c, 1, 88, 72
2, 361200, Note_on_c, 1, 91, 74
2, 361320, Note_on_c, 1, 91, 0
2, 361320, Note_on_c, 1, 94, 70
2, 361440, Note_on_c, 1, 94, 0
2, 361440, Note_on_c, 1, 88, 0
2, 361440, Note_on_c, 1, 85, 0
2, 361440, Note_on_c, 1, 76, 0
2, 361440, Note_on_c, 1, 79, 0
2, 361440, Note_on_c, 1, 82, 0
2, 361440, Note_on_c, 1, 79, 100
2, 361560, Note_on_c, 1, 79, 0
2, 361560, Note_on_c, 1, 82, 84
2, 361680, Note_on_c, 1, 82, 0
2, 361680, Note_on_c, 1, 85, 84
2, 361800, Note_on_c, 1, 85, 0
2, 361800, Note_on_c, 1, 88, 73
2, 361920, Note_on_c, 1, 88, 0
2, 361920, Note_on_c, 1, 91, 74
2, 362040, Note_on_c, 1, 91, 0
2, 362040, Note_on_c, 1, 94, 73
2, 362160, Note_on_c, 1, 94, 0
2, 362160, Note_on_c, 1, 82, 100
2, 362280, Note_on_c, 1, 82, 0
2, 362280, Note_on_c, 1, 85, 84
2, 362400, Note_on_c, 1, 85, 0
2, 362400, Note_on_c, 1, 88, 84
2, 362520, Note_on_c, 1, 88, 0
2, 362520, Note_on_c, 1, 88, 73
2, 362640, Note_on_c, 1, 88, 0
2, 362640, Note_on_c, 1, 91, 74
2, 362760, Note_on_c, 1, 91, 0
2, 362760, Note_on_c, 1, 94, 73
2, 362880, Note_on_c, 1, 94, 0
2, 362880, Note_on_c, 1, 85, 102
2, 363000, Note_on_c, 1, 85, 0
2, 363000, Note_on_c, 1, 88, 84
2, 363114, Note_on_c, 1, 88, 0
2, 363120, Note_on_c, 1, 88, 77
2, 363240, Note_on_c, 1, 88, 0
2, 363240, Note_on_c, 1, 91, 75
2, 363360, Note_on_c, 1, 91, 0
2, 363360, Note_on_c, 1, 94, 74
2, 363600, Note_on_c, 1, 94, 0
2, 363600, Note_on_c, 1, 82, 97
2, 363720, Note_on_c, 1, 82, 0
2, 363720, Note_on_c, 1, 85, 84
2, 363834, Note_on_c, 1, 85, 0
2, 363840, Note_on_c, 1, 85, 77
2, 363960, Note_on_c, 1, 85, 0
2, 363960, Note_on_c, 1, 88, 75
2, 364080, Note_on_c, 1, 88, 0
2, 364080, Note_on_c, 1, 91, 74
2, 364320, Note_on_c, 1, 91, 0
2, 364320, Note_on_c, 1, 79, 96
2, 364440, Note_on_c, 1, 79, 0
2, 364440, Note_on_c, 1, 82, 84
2, 364554, Note_on_c, 1, 82, 0
2, 364560, Note_on_c, 1, 82, 77
2, 364680, Note_on_c, 1, 82, 0
2, 364680, Note_on_c, 1, 85, 75
2, 364800, Note_on_c, 1, 85, 0
2, 364800, Note_on_c, 1, 88, 74
2, 365040, Note_on_c, 1, 88, 0
2, 365040, Note_on_c, 1, 76, 96
2, 365160, Note_on_c, 1, 76, 0
2, 365160, Note_on_c, 1, 79, 84
2, 365274, Note_on_c, 1, 79, 0
2, 365280, Note_on_c, 1, 79, 77
2, 365400, Note_on_c, 1, 79, 0
2, 365400, Note_on_c, 1, 82, 75
2, 365520, Note_on_c, 1, 82, 0
2, 365520, Note_on_c, 1, 85, 74
2, 365760, Note_on_c, 1, 85, 0
2, 365760, Note_on_c, 1, 73, 96
2, 365880, Note_on_c, 1, 73, 0
2, 365880, Note_on_c, 1, 76, 84
2, 365994, Note_on_c, 1, 76, 0
2, 366000, Note_on_c, 1, 76, 77
2, 366120, Note_on_c, 1, 76, 0
2, 366120, Note_on_c, 1, 79, 72
2, 366240, Note_on_c, 1, 79, 0
2, 366240, Note_on_c, 1, 82, 74
2, 366480, Note_on_c, 1, 82, 0
2, 366480, Note_on_c, 1, 70, 96
2, 366600, Note_on_c, 1, 70, 0
2, 366600, Note_on_c, 1, 73, 84
2, 366714, Note_on_c, 1, 73, 0
2, 366720, Note_on_c, 1, 73, 77
2, 366840, Note_on_c, 1, 73, 0
2, 366840, Note_on_c, 1, 76, 75
2, 366960, Note_on_c, 1, 76, 0
2, 366960, Note_on_c, 1, 79, 74
2, 367200, Note_on_c, 1, 79, 0
2, 367200, Note_on_c, 1, 67, 96
2, 367320, Note_on_c, 1, 67, 0
2, 367320, Note_on_c, 1, 70, 84
2, 367434, Note_on_c, 1, 70, 0
2, 367440, Note_on_c, 1, 70, 77
2, 367560, Note_on_c, 1, 70, 0
2, 367560, Note_on_c, 1, 73, 75
2, 367680, Note_on_c, 1, 73, 0
2, 367680, Note_on_c, 1, 76, 74
2, 367920, Note_on_c, 1, 76, 0
2, 367920, Note_on_c, 1, 64, 96
2, 368040, Note_on_c, 1, 64, 0
2, 368040, Note_on_c, 1, 67, 84
2, 368154, Note_on_c, 1, 67, 0
2, 368160, Note_on_c, 1, 67, 77
2, 368280, Note_on_c, 1, 67, 0
2, 368280, Note_on_c, 1, 70, 75
2, 368400, Note_on_c, 1, 70, 0
2, 368400, Note_on_c, 1, 73, 74
2, 368640, Note_on_c, 1, 73, 0
2, 368640, Note_on_c, 1, 61, 91
2, 368760, Note_on_c, 1, 61, 0
2, 368760, Note_on_c, 1, 64, 80
2, 368874, Note_on_c, 1, 64, 0
2, 368880, Note_on_c, 1, 64, 72
2, 369000, Note_on_c, 1, 64, 0
2, 369000, Note_on_c, 1, 67, 71
2, 369120, Note_on_c, 1, 67, 0
2, 369120, Note_on_c, 1, 70, 70
2, 369360, Note_on_c, 1, 70, 0
2, 369360, Note_on_c, 1, 58, 91
2, 369480, Note_on_c, 1, 58, 0
2, 369480, Note_on_c, 1, 61, 80
2, 369594, Note_on_c, 1, 61, 0
2, 369600, Note_on_c, 1, 61, 72
2, 369720, Note_on_c, 1, 61, 0
2, 369720, Note_on_c, 1, 64, 71
2, 369840, Note_on_c, 1, 64, 0
2, 369840, Note_on_c, 1, 67, 70
2, 370080, Note_on_c, 1, 67, 0
2, 370080, Note_on_c, 1, 55, 91
2, 370200, Note_on_c, 1, 55, 0
2, 370200, Note_on_c, 1, 58, 80
2, 370314, Note_on_c, 1, 58, 0
2, 370320, Note_on_c, 1, 58, 72
2, 370440, Note_on_c, 1, 58, 0
2, 370440, Note_on_c, 1, 61, 71
2, 370560, Note_on_c, 1, 61, 0
2, 370560, Note_on_c, 1, 64, 70
2, 370800, Note_on_c, 1, 64, 0
2, 370800, Note_on_c, 1, 52, 91
2, 370920, Note_on_c, 1, 52, 0
2, 370920, Note_on_c, 1, 55, 80
2, 371034, Note_on_c, 1, 55, 0
2, 371040, Note_on_c, 1, 55, 72
2, 371160, Note_on_c, 1, 55, 0
2, 371160, Note_on_c, 1, 58, 71
2, 371280, Note_on_c, 1, 58, 0
2, 371280, Note_on_c, 1, 61, 70
2, 371520, Note_on_c, 1, 61, 0
2, 371520, Note_on_c, 1, 49, 91
2, 371640, Note_on_c, 1, 49, 0
2, 371640, Note_on_c, 1, 52, 80
2, 371754, Note_on_c, 1, 52, 0
2, 371760, Note_on_c, 1, 52, 72
2, 371880, Note_on_c, 1, 52, 0
2, 371880, Note_on_c, 1, 55, 71
2, 372000, Note_on_c, 1, 55, 0
2, 372000, Note_on_c, 1, 58, 70
2, 372240, Note_on_c, 1, 58, 0
2, 372240, Note_on_c, 1, 46, 91
2, 372360, Note_on_c, 1, 46, 0
2, 372360, Note_on_c, 1, 49, 80
2, 372474, Note_on_c, 1, 49, 0
2, 372480, Note_on_c, 1, 49, 72
2, 372600, Note_on_c, 1, 49, 0
2, 372600, Note_on_c, 1, 52, 71
2, 372720, Note_on_c, 1, 52, 0
2, 372720, Note_on_c, 1, 55, 70
2, 372960, Note_on_c, 1, 55, 0
2, 372960, Note_on_c, 1, 43, 91
2, 373080, Note_on_c, 1, 43, 0
2, 373080, Note_on_c, 1, 46, 80
2, 373194, Note_on_c, 1, 46, 0
2, 373200, Note_on_c, 1, 46, 72
2, 373320, Note_on_c, 1, 46, 0
2, 373320, Note_on_c, 1, 49, 71
2, 373440, Note_on_c, 1, 49, 0
2, 373440, Note_on_c, 1, 52, 70
2, 373680, Note_on_c, 1, 52, 0
2, 373680, Note_on_c, 1, 40, 91
2, 373800, Note_on_c, 1, 40, 0
2, 373800, Note_on_c, 1, 43, 80
2, 373914, Note_on_c, 1, 43, 0
2, 373920, Note_on_c, 1, 43, 72
2, 374040, Note_on_c, 1, 43, 0
2, 374040, Note_on_c, 1, 46, 71
2, 374160, Note_on_c, 1, 46, 0
2, 374160, Note_on_c, 1, 49, 70
2, 374400, Note_on_c, 1, 49, 0
2, 374400, Note_on_c, 1, 46, 71
2, 374400, Note_on_c, 1, 43, 71
2, 374400, Note_on_c, 1, 37, 104
2, 374520, Note_on_c, 1, 43, 0
2, 374520, Note_on_c, 1, 46, 0
2, 374520, Note_on_c, 1, 52, 63
2, 374640, Note_on_c, 1, 52, 0
2, 374640, Note_on_c, 1, 46, 71
2, 374640, Note_on_c, 1, 43, 71
2, 374760, Note_on_c, 1, 43, 0
2, 374760, Note_on_c, 1, 46, 0
2, 374760, Note_on_c, 1, 52, 63
2, 374880, Note_on_c, 1, 52, 0
2, 374880, Note_on_c, 1, 37, 0
2, 374880, Note_on_c, 1, 46, 71
2, 374880, Note_on_c, 1, 43, 71
2, 375000, Note_on_c, 1, 43, 0
2, 375000, Note_on_c, 1, 46, 0
2, 375000, Note_on_c, 1, 52, 63
2, 375120, Note_on_c, 1, 52, 0
2, 375120, Note_on_c, 1, 46, 71
2, 375120, Note_on_c, 1, 43, 71
2, 375120, Note_on_c, 1, 73, 106
2, 375240, Note_on_c, 1, 43, 0
2, 375240, Note_on_c, 1, 46, 0
2, 375240, Note_on_c, 1, 52, 63
2, 375360, Note_on_c, 1, 52, 0
2, 375360, Note_on_c, 1, 73, 0
2, 375360, Note_on_c, 1, 46, 71
2, 375360, Note_on_c, 1, 43, 71
2, 375360, Note_on_c, 1, 73, 100
2, 375480, Note_on_c, 1, 43, 0
2, 375480, Note_on_c, 1, 46, 0
2, 375480, Note_on_c, 1, 52, 63
2, 375600, Note_on_c, 1, 52, 0
2, 375600, Note_on_c, 1, 73, 0
2, 375600, Note_on_c, 1, 43, 71
2, 375600, Note_on_c, 1, 46, 71
2, 375600, Note_on_c, 1, 73, 100
2, 375720, Note_on_c, 1, 46, 0
2, 375720, Note_on_c, 1, 43, 0
2, 375720, Note_on_c, 1, 52, 63
2, 375840, Note_on_c, 1, 52, 0
2, 375840, Note_on_c, 1, 73, 0
2, 375840, Note_on_c, 1, 46, 71
2, 375840, Note_on_c, 1, 43, 71
2, 375840, Note_on_c, 1, 73, 105
2, 375960, Note_on_c, 1, 43, 0
2, 375960, Note_on_c, 1, 46, 0
2, 375960, Note_on_c, 1, 52, 63
2, 376080, Note_on_c, 1, 52, 0
2, 376080, Note_on_c, 1, 43, 71
2, 376080, Note_on_c, 1, 46, 71
2, 376200, Note_on_c, 1, 46, 0
2, 376200, Note_on_c, 1, 43, 0
2, 376200, Note_on_c, 1, 52, 63
2, 376320, Note_on_c, 1, 52, 0
2, 376320, Note_on_c, 1, 73, 0
2, 376320, Note_on_c, 1, 46, 71
2, 376320, Note_on_c, 1, 43, 71
2, 376440, Note_on_c, 1, 43, 0
2, 376440, Note_on_c, 1, 46, 0
2, 376440, Note_on_c, 1, 52, 63
2, 376560, Note_on_c, 1, 52, 0
2, 376560, Note_on_c, 1, 46, 71
2, 376560, Note_on_c, 1, 43, 71
2, 376560, Note_on_c, 1, 37, 98
2, 376680, Note_on_c, 1, 43, 0
2, 376680, Note_on_c, 1, 46, 0
2, 376680, Note_on_c, 1, 52, 63
2, 376800, Note_on_c, 1, 52, 0
2, 376800, Note_on_c, 1, 37, 0
2, 376800, Note_on_c, 1, 46, 71
2, 376800, Note_on_c, 1, 43, 71
2, 376800, Note_on_c, 1, 37, 93
2, 376920, Note_on_c, 1, 43, 0
2, 376920, Note_on_c, 1, 46, 0
2, 376920, Note_on_c, 1, 52, 63
2, 377040, Note_on_c, 1, 52, 0
2, 377040, Note_on_c, 1, 37, 0
2, 377040, Note_on_c, 1, 43, 71
2, 377040, Note_on_c, 1, 46, 71
2, 377040, Note_on_c, 1, 37, 93
2, 377160, Note_on_c, 1, 46, 0
2, 377160, Note_on_c, 1, 43, 0
2, 377160, Note_on_c, 1, 52, 63
2, 377280, Note_on_c, 1, 52, 0
2, 377280, Note_on_c, 1, 37, 0
2, 377280, Note_on_c, 1, 43, 71
2, 377280, Note_on_c, 1, 46, 71
2, 377280, Note_on_c, 1, 37, 100
2, 377400, Note_on_c, 1, 46, 0
2, 377400, Note_on_c, 1, 43, 0
2, 377400, Note_on_c, 1, 52, 63
2, 377520, Note_on_c, 1, 52, 0
2, 377520, Note_on_c, 1, 46, 71
2, 377520, Note_on_c, 1, 43, 71
2, 377640, Note_on_c, 1, 43, 0
2, 377640, Note_on_c, 1, 46, 0
2, 377640, Note_on_c, 1, 52, 63
2, 377760, Note_on_c, 1, 52, 0
2, 377760, Note_on_c, 1, 37, 0
2, 377760, Note_on_c, 1, 43, 71
2, 377760, Note_on_c, 1, 46, 71
2, 377880, Note_on_c, 1, 46, 0
2, 377880, Note_on_c, 1, 43, 0
2, 377880, Note_on_c, 1, 52, 63
2, 378000, Note_on_c, 1, 52, 0
2, 378000, Note_on_c, 1, 43, 71
2, 378000, Note_on_c, 1, 46, 71
2, 378000, Note_on_c, 1, 73, 106
2, 378120, Note_on_c, 1, 46, 0
2, 378120, Note_on_c, 1, 43, 0
2, 378120, Note_on_c, 1, 52, 63
2, 378240, Note_on_c, 1, 52, 0
2, 378240, Note_on_c, 1, 73, 0
2, 378240, Note_on_c, 1, 46, 71
2, 378240, Note_on_c, 1, 43, 71
2, 378240, Note_on_c, 1, 73, 100
2, 378360, Note_on_c, 1, 43, 0
2, 378360, Note_on_c, 1, 46, 0
2, 378360, Note_on_c, 1, 52, 63
2, 378480, Note_on_c, 1, 52, 0
2, 378480, Note_on_c, 1, 73, 0
2, 378480, Note_on_c, 1, 43, 71
2, 378480, Note_on_c, 1, 46, 71
2, 378480, Note_on_c, 1, 73, 100
2, 378600, Note_on_c, 1, 46, 0
2, 378600, Note_on_c, 1, 43, 0
2, 378600, Note_on_c, 1, 52, 63
2, 378720, Note_on_c, 1, 52, 0
2, 378720, Note_on_c, 1, 73, 0
2, 378720, Note_on_c, 1, 43, 71
2, 378720, Note_on_c, 1, 46, 71
2, 378720, Note_on_c, 1, 73, 105
2, 378840, Note_on_c, 1, 46, 0
2, 378840, Note_on_c, 1, 43, 0
2, 378840, Note_on_c, 1, 52, 63
2, 378960, Note_on_c, 1, 52, 0
2, 378960, Note_on_c, 1, 43, 71
2, 378960, Note_on_c, 1, 46, 71
2, 379080, Note_on_c, 1, 46, 0
2, 379080, Note_on_c, 1, 43, 0
2, 379080, Note_on_c, 1, 52, 63
2, 379200, Note_on_c, 1, 52, 0
2, 379200, Note_on_c, 1, 73, 0
2, 379200, Note_on_c, 1, 43, 71
2, 379200, Note_on_c, 1, 46, 71
2, 379320, Note_on_c, 1, 46, 0
2, 379320, Note_on_c, 1, 43, 0
2, 379320, Note_on_c, 1, 52, 63
2, 379440, Note_on_c, 1, 52, 0
2, 379440, Note_on_c, 1, 46, 71
2, 379440, Note_on_c, 1, 43, 71
2, 379440, Note_on_c, 1, 37, 98
2, 379560, Note_on_c, 1, 43, 0
2, 379560, Note_on_c, 1, 46, 0
2, 379560, Note_on_c, 1, 52, 63
2, 379680, Note_on_c, 1, 52, 0
2, 379680, Note_on_c, 1, 37, 0
2, 379680, Note_on_c, 1, 43, 71
2, 379680, Note_on_c, 1, 46, 71
2, 379680, Note_on_c, 1, 37, 93
2, 379800, Note_on_c, 1, 46, 0
2, 379800, Note_on_c, 1, 43, 0
2, 379800, Note_on_c, 1, 52, 63
2, 379920, Note_on_c, 1, 52, 0
2, 379920, Note_on_c, 1, 37, 0
2, 379920, Note_on_c, 1, 46, 71
2, 379920, Note_on_c, 1, 43, 71
2, 379920, Note_on_c, 1, 37, 93
2, 380040, Note_on_c, 1, 43, 0
2, 380040, Note_on_c, 1, 46, 0
2, 380040, Note_on_c, 1, 52, 63
2, 380160, Note_on_c, 1, 52, 0
2, 380160, Note_on_c, 1, 37, 0
2, 380160, Note_on_c, 1, 46, 71
2, 380160, Note_on_c, 1, 43, 71
2, 380160, Note_on_c, 1, 36, 100
2, 380280, Note_on_c, 1, 43, 0
2, 380280, Note_on_c, 1, 46, 0
2, 380280, Note_on_c, 1, 52, 63
2, 380400, Note_on_c, 1, 52, 0
2, 380400, Note_on_c, 1, 43, 71
2, 380400, Note_on_c, 1, 46, 71
2, 380520, Note_on_c, 1, 46, 0
2, 380520, Note_on_c, 1, 43, 0
2, 380520, Note_on_c, 1, 52, 63
2, 380640, Note_on_c, 1, 52, 0
2, 380640, Note_on_c, 1, 36, 0
2, 380640, Note_on_c, 1, 43, 71
2, 380640, Note_on_c, 1, 46, 71
2, 380760, Note_on_c, 1, 46, 0
2, 380760, Note_on_c, 1, 43, 0
2, 380760, Note_on_c, 1, 52, 63
2, 380880, Note_on_c, 1, 52, 0
2, 380880, Note_on_c, 1, 46, 71
2, 380880, Note_on_c, 1, 43, 71
2, 380880, Note_on_c, 1, 73, 106
2, 381000, Note_on_c, 1, 43, 0
2, 381000, Note_on_c, 1, 46, 0
2, 381000, Note_on_c, 1, 52, 63
2, 381120, Note_on_c, 1, 52, 0
2, 381120, Note_on_c, 1, 73, 0
2, 381120, Note_on_c, 1, 43, 71
2, 381120, Note_on_c, 1, 46, 71
2, 381120, Note_on_c, 1, 73, 100
2, 381240, Note_on_c, 1, 46, 0
2, 381240, Note_on_c, 1, 43, 0
2, 381240, Note_on_c, 1, 52, 63
2, 381360, Note_on_c, 1, 52, 0
2, 381360, Note_on_c, 1, 73, 0
2, 381360, Note_on_c, 1, 46, 71
2, 381360, Note_on_c, 1, 43, 71
2, 381360, Note_on_c, 1, 73, 100
2, 381480, Note_on_c, 1, 43, 0
2, 381480, Note_on_c, 1, 46, 0
2, 381480, Note_on_c, 1, 52, 63
2, 381600, Note_on_c, 1, 52, 0
2, 381600, Note_on_c, 1, 73, 0
2, 381600, Note_on_c, 1, 46, 71
2, 381600, Note_on_c, 1, 43, 71
2, 381600, Note_on_c, 1, 72, 105
2, 381720, Note_on_c, 1, 43, 0
2, 381720, Note_on_c, 1, 46, 0
2, 381720, Note_on_c, 1, 52, 63
2, 381840, Note_on_c, 1, 52, 0
2, 381840, Note_on_c, 1, 43, 71
2, 381840, Note_on_c, 1, 46, 71
2, 381960, Note_on_c, 1, 46, 0
2, 381960, Note_on_c, 1, 43, 0
2, 381960, Note_on_c, 1, 52, 63
2, 382080, Note_on_c, 1, 52, 0
2, 382080, Note_on_c, 1, 72, 0
2, 382080, Note_on_c, 1, 43, 71
2, 382080, Note_on_c, 1, 46, 71
2, 382200, Note_on_c, 1, 46, 0
2, 382200, Note_on_c, 1, 43, 0
2, 382200, Note_on_c, 1, 52, 63
2, 382320, Note_on_c, 1, 52, 0
2, 382320, Note_on_c, 1, 46, 71
2, 382320, Note_on_c, 1, 43, 71
2, 382320, Note_on_c, 1, 37, 98
2, 382440, Note_on_c, 1, 43, 0
2, 382440, Note_on_c, 1, 46, 0
2, 382440, Note_on_c, 1, 52, 63
2, 382560, Note_on_c, 1, 52, 0
2, 382560, Note_on_c, 1, 37, 0
2, 382560, Note_on_c, 1, 43, 71
2, 382560, Note_on_c, 1, 46, 71
2, 382560, Note_on_c, 1, 37, 93
2, 382680, Note_on_c, 1, 46, 0
2, 382680, Note_on_c, 1, 43, 0
2, 382680, Note_on_c, 1, 52, 63
2, 382800, Note_on_c, 1, 52, 0
2, 382800, Note_on_c, 1, 37, 0
2, 382800, Note_on_c, 1, 43, 71
2, 382800, Note_on_c, 1, 46, 71
2, 382800, Note_on_c, 1, 37, 93
2, 382920, Note_on_c, 1, 46, 0
2, 382920, Note_on_c, 1, 43, 0
2, 382920, Note_on_c, 1, 52, 63
2, 383040, Note_on_c, 1, 52, 0
2, 383040, Note_on_c, 1, 37, 0
2, 383040, Note_on_c, 1, 43, 71
2, 383040, Note_on_c, 1, 46, 71
2, 383040, Note_on_c, 1, 36, 100
2, 383160, Note_on_c, 1, 46, 0
2, 383160, Note_on_c, 1, 43, 0
2, 383160, Note_on_c, 1, 52, 63
2, 383280, Note_on_c, 1, 52, 0
2, 383280, Note_on_c, 1, 43, 71
2, 383280, Note_on_c, 1, 46, 71
2, 383400, Note_on_c, 1, 46, 0
2, 383400, Note_on_c, 1, 43, 0
2, 383400, Note_on_c, 1, 52, 63
2, 383520, Note_on_c, 1, 52, 0
2, 383520, Note_on_c, 1, 36, 0
2, 383520, Note_on_c, 1, 43, 71
2, 383520, Note_on_c, 1, 46, 71
2, 383640, Note_on_c, 1, 46, 0
2, 383640, Note_on_c, 1, 43, 0
2, 383640, Note_on_c, 1, 52, 63
2, 383760, Note_on_c, 1, 52, 0
2, 383760, Note_on_c, 1, 46, 71
2, 383760, Note_on_c, 1, 43, 71
2, 383760, Note_on_c, 1, 73, 106
2, 383880, Note_on_c, 1, 43, 0
2, 383880, Note_on_c, 1, 46, 0
2, 383880, Note_on_c, 1, 52, 63
2, 384000, Note_on_c, 1, 52, 0
2, 384000, Note_on_c, 1, 73, 0
2, 384000, Note_on_c, 1, 43, 71
2, 384000, Note_on_c, 1, 46, 71
2, 384000, Note_on_c, 1, 73, 100
2, 384120, Note_on_c, 1, 46, 0
2, 384120, Note_on_c, 1, 43, 0
2, 384120, Note_on_c, 1, 52, 63
2, 384240, Note_on_c, 1, 52, 0
2, 384240, Note_on_c, 1, 73, 0
2, 384240, Note_on_c, 1, 46, 71
2, 384240, Note_on_c, 1, 43, 71
2, 384240, Note_on_c, 1, 73, 100
2, 384360, Note_on_c, 1, 43, 0
2, 384360, Note_on_c, 1, 46, 0
2, 384360, Note_on_c, 1, 52, 63
2, 384480, Note_on_c, 1, 52, 0
2, 384480, Note_on_c, 1, 73, 0
2, 384480, Note_on_c, 1, 46, 71
2, 384480, Note_on_c, 1, 43, 71
2, 384480, Note_on_c, 1, 72, 105
2, 384600, Note_on_c, 1, 43, 0
2, 384600, Note_on_c, 1, 46, 0
2, 384600, Note_on_c, 1, 52, 63
2, 384720, Note_on_c, 1, 52, 0
2, 384720, Note_on_c, 1, 43, 71
2, 384720, Note_on_c, 1, 46, 71
2, 384840, Note_on_c, 1, 46, 0
2, 384840, Note_on_c, 1, 43, 0
2, 384840, Note_on_c, 1, 52, 63
2, 384960, Note_on_c, 1, 52, 0
2, 384960, Note_on_c, 1, 72, 0
2, 384960, Note_on_c, 1, 43, 71
2, 384960, Note_on_c, 1, 46, 71
2, 385080, Note_on_c, 1, 46, 0
2, 385080, Note_on_c, 1, 43, 0
2, 385080, Note_on_c, 1, 52, 63
2, 385200, Note_on_c, 1, 52, 0
2, 385200, Note_on_c, 1, 43, 71
2, 385200, Note_on_c, 1, 46, 71
2, 385200, Note_on_c, 1, 37, 110
2, 385320, Note_on_c, 1, 46, 0
2, 385320, Note_on_c, 1, 43, 0
2, 385320, Note_on_c, 1, 52, 63
2, 385440, Note_on_c, 1, 52, 0
2, 385440, Note_on_c, 1, 37, 0
2, 385440, Note_on_c, 1, 46, 71
2, 385440, Note_on_c, 1, 43, 71
2, 385440, Note_on_c, 1, 37, 105
2, 385560, Note_on_c, 1, 43, 0
2, 385560, Note_on_c, 1, 46, 0
2, 385560, Note_on_c, 1, 52, 63
2, 385680, Note_on_c, 1, 52, 0
2, 385680, Note_on_c, 1, 37, 0
2, 385680, Note_on_c, 1, 43, 71
2, 385680, Note_on_c, 1, 46, 71
2, 385680, Note_on_c, 1, 37, 105
2, 385800, Note_on_c, 1, 46, 0
2, 385800, Note_on_c, 1, 43, 0
2, 385800, Note_on_c, 1, 52, 63
2, 385920, Note_on_c, 1, 52, 0
2, 385920, Note_on_c, 1, 37, 0
2, 385920, Note_on_c, 1, 43, 65
2, 385920, Note_on_c, 1, 52, 65
2, 385920, Note_on_c, 1, 46, 65
2, 385920, Note_on_c, 1, 36, 59
2, 386140, Note_on_c, 1, 36, 0
2, 386160, Note_on_c, 1, 36, 30
2, 386380, Note_on_c, 1, 36, 0
2, 386400, Note_on_c, 1, 46, 0
2, 386400, Note_on_c, 1, 52, 0
2, 386400, Note_on_c, 1, 43, 0
2, 386400, Note_on_c, 1, 36, 30
2, 386620, Note_on_c, 1, 36, 0
2, 386640, Note_on_c, 1, 36, 32
2, 386860, Note_on_c, 1, 36, 0
2, 386880, Note_on_c, 1, 36, 27
2, 387100, Note_on_c, 1, 36, 0
2, 387120, Note_on_c, 1, 36, 27
2, 387340, Note_on_c, 1, 36, 0
2, 387360, Note_on_c, 1, 36, 30
2, 387580, Note_on_c, 1, 36, 0
2, 387600, Note_on_c, 1, 36, 24
2, 387820, Note_on_c, 1, 36, 0
2, 387840, Note_on_c, 1, 36, 24
2, 388060, Note_on_c, 1, 36, 0
2, 388080, Note_on_c, 1, 36, 28
2, 388300, Note_on_c, 1, 36, 0
2, 388320, Note_on_c, 1, 36, 22
2, 388540, Note_on_c, 1, 36, 0
2, 388560, Note_on_c, 1, 36, 22
2, 388780, Note_on_c, 1, 36, 0
2, 388800, Note_on_c, 1, 36, 24
2, 389020, Note_on_c, 1, 36, 0
2, 389040, Note_on_c, 1, 36, 22
2, 389260, Note_on_c, 1, 36, 0
2, 389280, Note_on_c, 1, 36, 22
2, 389500, Note_on_c, 1, 36, 0
2, 389520, Note_on_c, 1, 36, 24
2, 389740, Note_on_c, 1, 36, 0
2, 389760, Note_on_c, 1, 36, 20
2, 389980, Note_on_c, 1, 36, 0
2, 390000, Note_on_c, 1, 36, 20
2, 390220, Note_on_c, 1, 36, 0
2, 390240, Note_on_c, 1, 36, 23
2, 390460, Note_on_c, 1, 36, 0
2, 390480, Note_on_c, 1, 36, 18
2, 390700, Note_on_c, 1, 36, 0
2, 390720, Note_on_c, 1, 36, 23
2, 390940, Note_on_c, 1, 36, 0
2, 390960, Note_on_c, 1, 48, 27
2, 390960, Note_on_c, 1, 60, 35
2, 390960, Note_on_c, 1, 36, 23
2, 391180, Note_on_c, 1, 36, 0
2, 391200, Note_on_c, 1, 36, 20
2, 391420, Note_on_c, 1, 36, 0
2, 391440, Note_on_c, 1, 36, 22
2, 391560, Note_on_c, 1, 60, 0
2, 391560, Note_on_c, 1, 48, 0
2, 391560, Note_on_c, 1, 56, 31
2, 391560, Note_on_c, 1, 44, 25
2, 391660, Note_on_c, 1, 36, 0
2, 391680, Note_on_c, 1, 44, 0
2, 391680, Note_on_c, 1, 56, 0
2, 391680, Note_on_c, 1, 41, 22
2, 391680, Note_on_c, 1, 53, 28
2, 391680, Note_on_c, 1, 36, 23
2, 391900, Note_on_c, 1, 36, 0
2, 391920, Note_on_c, 1, 36, 20
2, 392140, Note_on_c, 1, 36, 0
2, 392160, Note_on_c, 1, 36, 22
2, 392380, Note_on_c, 1, 36, 0
2, 392400, Note_on_c, 1, 36, 23
2, 392620, Note_on_c, 1, 36, 0
2, 392640, Note_on_c, 1, 36, 20
2, 392860, Note_on_c, 1, 36, 0
2, 392880, Note_on_c, 1, 36, 22
2, 393100, Note_on_c, 1, 36, 0
2, 393120, Note_on_c, 1, 36, 23
2, 393340, Note_on_c, 1, 36, 0
2, 393360, Note_on_c, 1, 36, 20
2, 393580, Note_on_c, 1, 36, 0
2, 393600, Note_on_c, 1, 36, 22
2, 393820, Note_on_c, 1, 36, 0
2, 393840, Note_on_c, 1, 53, 0
2, 393840, Note_on_c, 1, 41, 0
2, 393840, Note_on_c, 1, 56, 35
2, 393840, Note_on_c, 1, 44, 27
2, 393840, Note_on_c, 1, 36, 23
2, 394060, Note_on_c, 1, 36, 0
2, 394080, Note_on_c, 1, 36, 20
2, 394300, Note_on_c, 1, 36, 0
2, 394320, Note_on_c, 1, 36, 22
2, 394440, Note_on_c, 1, 44, 0
2, 394440, Note_on_c, 1, 56, 0
2, 394440, Note_on_c, 1, 48, 24
2, 394440, Note_on_c, 1, 60, 30
2, 394540, Note_on_c, 1, 36, 0
2, 394560, Note_on_c, 1, 60, 0
2, 394560, Note_on_c, 1, 48, 0
2, 394560, Note_on_c, 1, 65, 35
2, 394560, Note_on_c, 1, 53, 27
2, 394560, Note_on_c, 1, 36, 23
2, 394780, Note_on_c, 1, 36, 0
2, 394800, Note_on_c, 1, 36, 20
2, 395020, Note_on_c, 1, 36, 0
2, 395040, Note_on_c, 1, 36, 22
2, 395260, Note_on_c, 1, 36, 0
2, 395280, Note_on_c, 1, 53, 0
2, 395280, Note_on_c, 1, 65, 0
2, 395280, Note_on_c, 1, 68, 36
2, 395280, Note_on_c, 1, 56, 28
2, 395280, Note_on_c, 1, 36, 23
2, 395500, Note_on_c, 1, 36, 0
2, 395520, Note_on_c, 1, 36, 20
2, 395740, Note_on_c, 1, 36, 0
2, 395760, Note_on_c, 1, 36, 22
2, 395880, Note_on_c, 1, 56, 0
2, 395880, Note_on_c, 1, 68, 0
2, 395880, Note_on_c, 1, 72, 31
2, 395880, Note_on_c, 1, 60, 25
2, 395980, Note_on_c, 1, 36, 0
2, 396000, Note_on_c, 1, 60, 0
2, 396000, Note_on_c, 1, 72, 0
2, 396000, Note_on_c, 1, 77, 40
2, 396000, Note_on_c, 1, 65, 31
2, 396000, Note_on_c, 1, 36, 23
2, 396220, Note_on_c, 1, 36, 0
2, 396240, Note_on_c, 1, 36, 20
2, 396460, Note_on_c, 1, 36, 0
2, 396480, Note_on_c, 1, 36, 22
2, 396700, Note_on_c, 1, 36, 0
2, 396715, Note_on_c, 1, 65, 0
2, 396715, Note_on_c, 1, 77, 0
2, 396720, Note_on_c, 1, 65, 33
2, 396720, Note_on_c, 1, 53, 26
2, 396720, Note_on_c, 1, 36, 23
2, 396940, Note_on_c, 1, 36, 0
2, 396960, Note_on_c, 1, 36, 20
2, 397180, Note_on_c, 1, 36, 0
2, 397200, Note_on_c, 1, 36, 22
2, 397420, Note_on_c, 1, 36, 0
2, 397440, Note_on_c, 1, 53, 0
2, 397440, Note_on_c, 1, 65, 0
2, 397440, Note_on_c, 1, 67, 26
2, 397440, Note_on_c, 1, 64, 26
2, 397440, Note_on_c, 1, 72, 35
2, 397440, Note_on_c, 1, 36, 23
2, 397660, Note_on_c, 1, 36, 0
2, 397680, Note_on_c, 1, 36, 20
2, 397900, Note_on_c, 1, 36, 0
2, 397920, Note_on_c, 1, 36, 22
2, 398140, Note_on_c, 1, 36, 0
2, 398160, Note_on_c, 1, 36, 23
2, 398380, Note_on_c, 1, 36, 0
2, 398400, Note_on_c, 1, 36, 20
2, 398620, Note_on_c, 1, 36, 0
2, 398640, Note_on_c, 1, 72, 0
2, 398640, Note_on_c, 1, 74, 33
2, 398640, Note_on_c, 1, 36, 22
2, 398860, Note_on_c, 1, 36, 0
2, 398880, Note_on_c, 1, 67, 0
2, 398880, Note_on_c, 1, 64, 0
2, 398880, Note_on_c, 1, 74, 0
2, 398880, Note_on_c, 1, 65, 26
2, 398880, Note_on_c, 1, 71, 26
2, 398880, Note_on_c, 1, 74, 33
2, 398880, Note_on_c, 1, 36, 23
2, 398960, Note_on_c, 1, 74, 0
2, 398960, Note_on_c, 1, 76, 29
2, 399040, Note_on_c, 1, 76, 0
2, 399040, Note_on_c, 1, 74, 33
2, 399100, Note_on_c, 1, 36, 0
2, 399120, Note_on_c, 1, 74, 0
2, 399120, Note_on_c, 1, 76, 29
2, 399120, Note_on_c, 1, 36, 20
2, 399200, Note_on_c, 1, 76, 0
2, 399200, Note_on_c, 1, 74, 33
2, 399280, Note_on_c, 1, 74, 0
2, 399280, Note_on_c, 1, 76, 30
2, 399340, Note_on_c, 1, 36, 0
2, 399360, Note_on_c, 1, 76, 0
2, 399360, Note_on_c, 1, 74, 33
2, 399360, Note_on_c, 1, 36, 22
2, 399440, Note_on_c, 1, 74, 0
2, 399440, Note_on_c, 1, 76, 29
2, 399520, Note_on_c, 1, 76, 0
2, 399520, Note_on_c, 1, 74, 33
2, 399580, Note_on_c, 1, 36, 0
2, 399600, Note_on_c, 1, 74, 0
2, 399600, Note_on_c, 1, 76, 30
2, 399600, Note_on_c, 1, 36, 23
2, 399680, Note_on_c, 1, 76, 0
2, 399680, Note_on_c, 1, 74, 28
2, 399760, Note_on_c, 1, 74, 0
2, 399760, Note_on_c, 1, 76, 33
2, 399820, Note_on_c, 1, 36, 0
2, 399840, Note_on_c, 1, 76, 0
2, 399840, Note_on_c, 1, 74, 28
2, 399840, Note_on_c, 1, 36, 20
2, 399960, Note_on_c, 1, 74, 0
2, 399960, Note_on_c, 1, 72, 30
2, 400060, Note_on_c, 1, 36, 0
2, 400080, Note_on_c, 1, 72, 0
2, 400080, Note_on_c, 1, 76, 35
2, 400080, Note_on_c, 1, 36, 22
2, 400200, Note_on_c, 1, 76, 0
2, 400200, Note_on_c, 1, 74, 31
2, 400300, Note_on_c, 1, 36, 0
2, 400320, Note_on_c, 1, 65, 0
2, 400320, Note_on_c, 1, 71, 0
2, 400320, Note_on_c, 1, 74, 0
2, 400320, Note_on_c, 1, 72, 35
2, 400320, Note_on_c, 1, 64, 19
2, 400320, Note_on_c, 1, 67, 22
2, 400320, Note_on_c, 1, 36, 23
2, 400540, Note_on_c, 1, 36, 0
2, 400560, Note_on_c, 1, 36, 20
2, 400780, Note_on_c, 1, 36, 0
2, 400800, Note_on_c, 1, 67, 0
2, 400800, Note_on_c, 1, 64, 0
2, 400800, Note_on_c, 1, 72, 0
2, 400800, Note_on_c, 1, 36, 22
2, 401020, Note_on_c, 1, 36, 0
2, 401040, Note_on_c, 1, 36, 23
2, 401260, Note_on_c, 1, 36, 0
2, 401280, Note_on_c, 1, 36, 20
2, 401500, Note_on_c, 1, 36, 0
2, 401520, Note_on_c, 1, 36, 22
2, 401740, Note_on_c, 1, 36, 0
2, 401760, Note_on_c, 1, 36, 23
2, 401980, Note_on_c, 1, 36, 0
2, 402000, Note_on_c, 1, 37, 20
2, 402220, Note_on_c, 1, 37, 0
2, 402240, Note_on_c, 1, 37, 22
2, 402460, Note_on_c, 1, 37, 0
2, 402480, Note_on_c, 1, 61, 35
2, 402480, Note_on_c, 1, 49, 27
2, 402480, Note_on_c, 1, 37, 23
2, 402700, Note_on_c, 1, 37, 0
2, 402720, Note_on_c, 1, 37, 20
2, 402940, Note_on_c, 1, 37, 0
2, 402960, Note_on_c, 1, 37, 22
2, 403080, Note_on_c, 1, 49, 0
2, 403080, Note_on_c, 1, 61, 0
2, 403080, Note_on_c, 1, 58, 31
2, 403080, Note_on_c, 1, 46, 25
2, 403180, Note_on_c, 1, 37, 0
2, 403200, Note_on_c, 1, 46, 0
2, 403200, Note_on_c, 1, 58, 0
2, 403200, Note_on_c, 1, 54, 28
2, 403200, Note_on_c, 1, 42, 22
2, 403200, Note_on_c, 1, 37, 23
2, 403420, Note_on_c, 1, 37, 0
2, 403440, Note_on_c, 1, 37, 20
2, 403660, Note_on_c, 1, 37, 0
2, 403680, Note_on_c, 1, 37, 22
2, 403900, Note_on_c, 1, 37, 0
2, 403920, Note_on_c, 1, 37, 23
2, 404140, Note_on_c, 1, 37, 0
2, 404160, Note_on_c, 1, 37, 20
2, 404380, Note_on_c, 1, 37, 0
2, 404400, Note_on_c, 1, 37, 22
2, 404620, Note_on_c, 1, 37, 0
2, 404640, Note_on_c, 1, 37, 23
2, 404860, Note_on_c, 1, 37, 0
2, 404880, Note_on_c, 1, 37, 20
2, 405100, Note_on_c, 1, 37, 0
2, 405120, Note_on_c, 1, 37, 22
2, 405340, Note_on_c, 1, 37, 0
2, 405360, Note_on_c, 1, 42, 0
2, 405360, Note_on_c, 1, 54, 0
2, 405360, Note_on_c, 1, 46, 27
2, 405360, Note_on_c, 1, 58, 35
2, 405360, Note_on_c, 1, 37, 23
2, 405580, Note_on_c, 1, 37, 0
2, 405600, Note_on_c, 1, 37, 20
2, 405820, Note_on_c, 1, 37, 0
2, 405840, Note_on_c, 1, 37, 22
2, 405960, Note_on_c, 1, 58, 0
2, 405960, Note_on_c, 1, 46, 0
2, 405960, Note_on_c, 1, 61, 30
2, 405960, Note_on_c, 1, 49, 24
2, 406060, Note_on_c, 1, 37, 0
2, 406080, Note_on_c, 1, 49, 0
2, 406080, Note_on_c, 1, 61, 0
2, 406080, Note_on_c, 1, 54, 27
2, 406080, Note_on_c, 1, 66, 35
2, 406080, Note_on_c, 1, 37, 23
2, 406300, Note_on_c, 1, 37, 0
2, 406320, Note_on_c, 1, 37, 20
2, 406540, Note_on_c, 1, 37, 0
2, 406560, Note_on_c, 1, 37, 22
2, 406780, Note_on_c, 1, 37, 0
2, 406800, Note_on_c, 1, 66, 0
2, 406800, Note_on_c, 1, 54, 0
2, 406800, Note_on_c, 1, 70, 36
2, 406800, Note_on_c, 1, 58, 28
2, 406800, Note_on_c, 1, 37, 23
2, 407020, Note_on_c, 1, 37, 0
2, 407040, Note_on_c, 1, 37, 20
2, 407260, Note_on_c, 1, 37, 0
2, 407280, Note_on_c, 1, 37, 22
2, 407400, Note_on_c, 1, 58, 0
2, 407400, Note_on_c, 1, 70, 0
2, 407400, Note_on_c, 1, 61, 25
2, 407400, Note_on_c, 1, 73, 31
2, 407500, Note_on_c, 1, 37, 0
2, 407520, Note_on_c, 1, 73, 0
2, 407520, Note_on_c, 1, 61, 0
2, 407520, Note_on_c, 1, 78, 40
2, 407520, Note_on_c, 1, 66, 31
2, 407520, Note_on_c, 1, 37, 23
2, 407740, Note_on_c, 1, 37, 0
2, 407760, Note_on_c, 1, 37, 20
2, 407980, Note_on_c, 1, 37, 0
2, 408000, Note_on_c, 1, 37, 22
2, 408220, Note_on_c, 1, 37, 0
2, 408240, Note_on_c, 1, 66, 0
2, 408240, Note_on_c, 1, 78, 0
2, 408240, Note_on_c, 1, 54, 26
2, 408240, Note_on_c, 1, 66, 33
2, 408240, Note_on_c, 1, 37, 23
2, 408460, Note_on_c, 1, 37, 0
2, 408480, Note_on_c, 1, 37, 20
2, 408700, Note_on_c, 1, 37, 0
2, 408720, Note_on_c, 1, 37, 22
2, 408940, Note_on_c, 1, 37, 0
2, 408960, Note_on_c, 1, 66, 0
2, 408960, Note_on_c, 1, 54, 0
2, 408960, Note_on_c, 1, 65, 26
2, 408960, Note_on_c, 1, 68, 26
2, 408960, Note_on_c, 1, 73, 35
2, 408960, Note_on_c, 1, 37, 23
2, 409180, Note_on_c, 1, 37, 0
2, 409200, Note_on_c, 1, 37, 20
2, 409420, Note_on_c, 1, 37, 0
2, 409440, Note_on_c, 1, 37, 22
2, 409660, Note_on_c, 1, 37, 0
2, 409680, Note_on_c, 1, 37, 23
2, 409900, Note_on_c, 1, 37, 0
2, 409920, Note_on_c, 1, 37, 20
2, 410140, Note_on_c, 1, 37, 0
2, 410160, Note_on_c, 1, 73, 0
2, 410160, Note_on_c, 1, 75, 33
2, 410160, Note_on_c, 1, 37, 22
2, 410380, Note_on_c, 1, 37, 0
2, 410400, Note_on_c, 1, 65, 0
2, 410400, Note_on_c, 1, 68, 0
2, 410400, Note_on_c, 1, 75, 0
2, 410400, Note_on_c, 1, 75, 28
2, 410400, Note_on_c, 1, 66, 26
2, 410400, Note_on_c, 1, 72, 26
2, 410400, Note_on_c, 1, 37, 23
2, 410480, Note_on_c, 1, 75, 0
2, 410480, Note_on_c, 1, 77, 25
2, 410560, Note_on_c, 1, 77, 0
2, 410560, Note_on_c, 1, 75, 28
2, 410620, Note_on_c, 1, 37, 0
2, 410640, Note_on_c, 1, 75, 0
2, 410640, Note_on_c, 1, 77, 25
2, 410640, Note_on_c, 1, 37, 20
2, 410720, Note_on_c, 1, 77, 0
2, 410720, Note_on_c, 1, 75, 28
2, 410800, Note_on_c, 1, 75, 0
2, 410800, Note_on_c, 1, 77, 25
2, 410860, Note_on_c, 1, 37, 0
2, 410880, Note_on_c, 1, 77, 0
2, 410880, Note_on_c, 1, 75, 29
2, 410880, Note_on_c, 1, 37, 22
2, 410960, Note_on_c, 1, 75, 0
2, 410960, Note_on_c, 1, 77, 25
2, 411040, Note_on_c, 1, 77, 0
2, 411040, Note_on_c, 1, 75, 29
2, 411100, Note_on_c, 1, 37, 0
2, 411120, Note_on_c, 1, 75, 0
2, 411120, Note_on_c, 1, 77, 26
2, 411120, Note_on_c, 1, 37, 23
2, 411200, Note_on_c, 1, 77, 0
2, 411200, Note_on_c, 1, 75, 29
2, 411280, Note_on_c, 1, 75, 0
2, 411280, Note_on_c, 1, 77, 27
2, 411340, Note_on_c, 1, 37, 0
2, 411360, Note_on_c, 1, 77, 0
2, 411360, Note_on_c, 1, 75, 24
2, 411360, Note_on_c, 1, 37, 20
2, 411480, Note_on_c, 1, 75, 0
2, 411480, Note_on_c, 1, 73, 30
2, 411580, Note_on_c, 1, 37, 0
2, 411600, Note_on_c, 1, 73, 0
2, 411600, Note_on_c, 1, 77, 35
2, 411600, Note_on_c, 1, 37, 22
2, 411720, Note_on_c, 1, 77, 0
2, 411720, Note_on_c, 1, 75, 31
2, 411820, Note_on_c, 1, 37, 0
2, 411840, Note_on_c, 1, 66, 0
2, 411840, Note_on_c, 1, 72, 0
2, 411840, Note_on_c, 1, 75, 0
2, 411840, Note_on_c, 1, 73, 35
2, 411840, Note_on_c, 1, 65, 19
2, 411840, Note_on_c, 1, 68, 22
2, 411840, Note_on_c, 1, 37, 23
2, 412060, Note_on_c, 1, 37, 0
2, 412080, Note_on_c, 1, 41, 20
2, 412080, Note_on_c, 1, 35, 15
2, 412300, Note_on_c, 1, 35, 0
2, 412300, Note_on_c, 1, 41, 0
2, 412320, Note_on_c, 1, 68, 0
2, 412320, Note_on_c, 1, 65, 0
2, 412320, Note_on_c, 1, 73, 0
2, 412320, Note_on_c, 1, 41, 22
2, 412320, Note_on_c, 1, 35, 16
2, 412540, Note_on_c, 1, 35, 0
2, 412540, Note_on_c, 1, 41, 0
2, 412560, Note_on_c, 1, 41, 23
2, 412560, Note_on_c, 1, 35, 17
2, 412780, Note_on_c, 1, 35, 0
2, 412780, Note_on_c, 1, 41, 0
2, 412800, Note_on_c, 1, 41, 20
2, 412800, Note_on_c, 1, 35, 15
2, 413020, Note_on_c, 1, 35, 0
2, 413020, Note_on_c, 1, 41, 0
2, 413040, Note_on_c, 1, 41, 22
2, 413040, Note_on_c, 1, 35, 16
2, 413260, Note_on_c, 1, 35, 0
2, 413260, Note_on_c, 1, 41, 0
2, 413280, Note_on_c, 1, 41, 23
2, 413280, Note_on_c, 1, 35, 17
2, 413500, Note_on_c, 1, 35, 0
2, 413500, Note_on_c, 1, 41, 0
2, 413520, Note_on_c, 1, 35, 15
2, 413520, Note_on_c, 1, 41, 20
2, 413740, Note_on_c, 1, 41, 0
2, 413740, Note_on_c, 1, 35, 0
2, 413760, Note_on_c, 1, 35, 16
2, 413760, Note_on_c, 1, 41, 22
2, 413980, Note_on_c, 1, 41, 0
2, 413980, Note_on_c, 1, 35, 0
2, 414000, Note_on_c, 1, 35, 17
2, 414000, Note_on_c, 1, 41, 23
2, 414220, Note_on_c, 1, 41, 0
2, 414220, Note_on_c, 1, 35, 0
2, 414240, Note_on_c, 1, 35, 15
2, 414240, Note_on_c, 1, 41, 20
2, 414460, Note_on_c, 1, 41, 0
2, 414460, Note_on_c, 1, 35, 0
2, 414480, Note_on_c, 1, 35, 16
2, 414480, Note_on_c, 1, 41, 22
2, 414700, Note_on_c, 1, 41, 0
2, 414700, Note_on_c, 1, 35, 0
2, 414720, Note_on_c, 1, 72, 35
2, 414720, Note_on_c, 1, 40, 26
2, 414960, Note_on_c, 1, 36, 20
2, 415180, Note_on_c, 1, 36, 0
2, 415200, Note_on_c, 1, 36, 22
2, 415420, Note_on_c, 1, 36, 0
2, 415440, Note_on_c, 1, 36, 23
2, 415660, Note_on_c, 1, 36, 0
2, 415680, Note_on_c, 1, 36, 20
2, 415900, Note_on_c, 1, 36, 0
2, 415920, Note_on_c, 1, 72, 0
2, 415920, Note_on_c, 1, 74, 38
2, 415920, Note_on_c, 1, 36, 22
2, 416100, Note_on_c, 1, 74, 0
2, 416100, Note_on_c, 1, 72, 38
2, 416140, Note_on_c, 1, 36, 0
2, 416160, Note_on_c, 1, 72, 0
2, 416160, Note_on_c, 1, 40, 0
2, 416160, Note_on_c, 1, 74, 37
2, 416160, Note_on_c, 1, 41, 26
2, 416240, Note_on_c, 1, 74, 0
2, 416240, Note_on_c, 1, 76, 32
2, 416320, Note_on_c, 1, 76, 0
2, 416320, Note_on_c, 1, 74, 37
2, 416400, Note_on_c, 1, 74, 0
2, 416400, Note_on_c, 1, 76, 33
2, 416400, Note_on_c, 1, 36, 20
2, 416480, Note_on_c, 1, 76, 0
2, 416480, Note_on_c, 1, 74, 37
2, 416560, Note_on_c, 1, 74, 0
2, 416560, Note_on_c, 1, 76, 33
2, 416620, Note_on_c, 1, 36, 0
2, 416640, Note_on_c, 1, 76, 0
2, 416640, Note_on_c, 1, 74, 37
2, 416640, Note_on_c, 1, 36, 22
2, 416720, Note_on_c, 1, 74, 0
2, 416720, Note_on_c, 1, 76, 33
2, 416800, Note_on_c, 1, 76, 0
2, 416800, Note_on_c, 1, 74, 37
2, 416860, Note_on_c, 1, 36, 0
2, 416880, Note_on_c, 1, 74, 0
2, 416880, Note_on_c, 1, 76, 34
2, 416880, Note_on_c, 1, 36, 23
2, 416960, Note_on_c, 1, 76, 0
2, 416960, Note_on_c, 1, 74, 31
2, 417040, Note_on_c, 1, 74, 0
2, 417040, Note_on_c, 1, 76, 37
2, 417100, Note_on_c, 1, 36, 0
2, 417120, Note_on_c, 1, 76, 0
2, 417120, Note_on_c, 1, 74, 31
2, 417120, Note_on_c, 1, 36, 20
2, 417240, Note_on_c, 1, 74, 0
2, 417240, Note_on_c, 1, 72, 34
2, 417340, Note_on_c, 1, 36, 0
2, 417360, Note_on_c, 1, 72, 0
2, 417360, Note_on_c, 1, 76, 40
2, 417360, Note_on_c, 1, 36, 22
2, 417480, Note_on_c, 1, 76, 0
2, 417480, Note_on_c, 1, 74, 35
2, 417580, Note_on_c, 1, 36, 0
2, 417600, Note_on_c, 1, 74, 0
2, 417600, Note_on_c, 1, 41, 0
2, 417600, Note_on_c, 1, 72, 35
2, 417600, Note_on_c, 1, 40, 26
2, 417820, Note_on_c, 1, 40, 0
2, 417840, Note_on_c, 1, 36, 20
2, 418060, Note_on_c, 1, 36, 0
2, 418080, Note_on_c, 1, 72, 0
2, 418080, Note_on_c, 1, 36, 22
2, 418300, Note_on_c, 1, 36, 0
2, 418320, Note_on_c, 1, 49, 27
2, 418320, Note_on_c, 1, 36, 23
2, 418540, Note_on_c, 1, 36, 0
2, 418540, Note_on_c, 1, 49, 0
2, 418560, Note_on_c, 1, 36, 20
2, 418560, Note_on_c, 1, 49, 26
2, 418780, Note_on_c, 1, 49, 0
2, 418780, Note_on_c, 1, 36, 0
2, 418800, Note_on_c, 1, 49, 26
2, 418800, Note_on_c, 1, 36, 22
2, 419020, Note_on_c, 1, 36, 0
2, 419020, Note_on_c, 1, 49, 0
2, 419040, Note_on_c, 1, 48, 26
2, 419040, Note_on_c, 1, 36, 26
2, 419260, Note_on_c, 1, 36, 0
2, 419280, Note_on_c, 1, 36, 20
2, 419500, Note_on_c, 1, 36, 0
2, 419520, Note_on_c, 1, 48, 0
2, 419520, Note_on_c, 1, 36, 22
2, 419740, Note_on_c, 1, 36, 0
2, 419760, Note_on_c, 1, 36, 23
2, 419980, Note_on_c, 1, 36, 0
2, 420000, Note_on_c, 1, 36, 20
2, 420220, Note_on_c, 1, 36, 0
2, 420240, Note_on_c, 1, 36, 22
2, 420460, Note_on_c, 1, 36, 0
2, 420480, Note_on_c, 1, 76, 40
2, 420480, Note_on_c, 1, 43, 26
2, 420720, Note_on_c, 1, 36, 20
2, 420940, Note_on_c, 1, 36, 0
2, 420960, Note_on_c, 1, 36, 22
2, 421180, Note_on_c, 1, 36, 0
2, 421200, Note_on_c, 1, 36, 23
2, 421420, Note_on_c, 1, 36, 0
2, 421440, Note_on_c, 1, 36, 20
2, 421660, Note_on_c, 1, 36, 0
2, 421680, Note_on_c, 1, 76, 0
2, 421680, Note_on_c, 1, 77, 38
2, 421680, Note_on_c, 1, 36, 22
2, 421860, Note_on_c, 1, 77, 0
2, 421860, Note_on_c, 1, 76, 38
2, 421900, Note_on_c, 1, 36, 0
2, 421920, Note_on_c, 1, 76, 0
2, 421920, Note_on_c, 1, 43, 0
2, 421920, Note_on_c, 1, 77, 37
2, 421920, Note_on_c, 1, 44, 26
2, 422000, Note_on_c, 1, 77, 0
2, 422000, Note_on_c, 1, 79, 32
2, 422080, Note_on_c, 1, 79, 0
2, 422080, Note_on_c, 1, 77, 37
2, 422160, Note_on_c, 1, 77, 0
2, 422160, Note_on_c, 1, 79, 33
2, 422160, Note_on_c, 1, 36, 20
2, 422240, Note_on_c, 1, 79, 0
2, 422240, Note_on_c, 1, 77, 37
2, 422320, Note_on_c, 1, 77, 0
2, 422320, Note_on_c, 1, 79, 33
2, 422380, Note_on_c, 1, 36, 0
2, 422400, Note_on_c, 1, 79, 0
2, 422400, Note_on_c, 1, 77, 37
2, 422400, Note_on_c, 1, 36, 22
2, 422480, Note_on_c, 1, 77, 0
2, 422480, Note_on_c, 1, 79, 33
2, 422560, Note_on_c, 1, 79, 0
2, 422560, Note_on_c, 1, 77, 37
2, 422620, Note_on_c, 1, 36, 0
2, 422640, Note_on_c, 1, 77, 0
2, 422640, Note_on_c, 1, 79, 34
2, 422640, Note_on_c, 1, 36, 23
2, 422720, Note_on_c, 1, 79, 0
2, 422720, Note_on_c, 1, 77, 31
2, 422800, Note_on_c, 1, 77, 0
2, 422800, Note_on_c, 1, 79, 37
2, 422860, Note_on_c, 1, 36, 0
2, 422880, Note_on_c, 1, 79, 0
2, 422880, Note_on_c, 1, 77, 31
2, 422880, Note_on_c, 1, 36, 20
2, 423000, Note_on_c, 1, 77, 0
2, 423000, Note_on_c, 1, 76, 34
2, 423100, Note_on_c, 1, 36, 0
2, 423120, Note_on_c, 1, 76, 0
2, 423120, Note_on_c, 1, 79, 40
2, 423120, Note_on_c, 1, 36, 22
2, 423240, Note_on_c, 1, 79, 0
2, 423240, Note_on_c, 1, 77, 35
2, 423340, Note_on_c, 1, 36, 0
2, 423360, Note_on_c, 1, 77, 0
2, 423360, Note_on_c, 1, 44, 0
2, 423360, Note_on_c, 1, 76, 35
2, 423360, Note_on_c, 1, 43, 26
2, 423580, Note_on_c, 1, 43, 0
2, 423600, Note_on_c, 1, 36, 20
2, 423820, Note_on_c, 1, 36, 0
2, 423840, Note_on_c, 1, 76, 0
2, 423840, Note_on_c, 1, 36, 22
2, 424060, Note_on_c, 1, 36, 0
2, 424080, Note_on_c, 1, 36, 23
2, 424080, Note_on_c, 1, 49, 27
2, 424300, Note_on_c, 1, 49, 0
2, 424300, Note_on_c, 1, 36, 0
2, 424320, Note_on_c, 1, 49, 26
2, 424320, Note_on_c, 1, 36, 20
2, 424540, Note_on_c, 1, 36, 0
2, 424540, Note_on_c, 1, 49, 0
2, 424560, Note_on_c, 1, 49, 26
2, 424560, Note_on_c, 1, 36, 22
2, 424780, Note_on_c, 1, 36, 0
2, 424780, Note_on_c, 1, 49, 0
2, 424800, Note_on_c, 1, 48, 26
2, 424800, Note_on_c, 1, 36, 26
2, 425020, Note_on_c, 1, 36, 0
2, 425040, Note_on_c, 1, 36, 20
2, 425260, Note_on_c, 1, 36, 0
2, 425280, Note_on_c, 1, 48, 0
2, 425280, Note_on_c, 1, 36, 22
2, 425500, Note_on_c, 1, 36, 0
2, 425520, Note_on_c, 1, 76, 35
2, 425520, Note_on_c, 1, 79, 35
2, 425520, Note_on_c, 1, 36, 23
2, 425740, Note_on_c, 1, 36, 0
2, 425760, Note_on_c, 1, 79, 0
2, 425760, Note_on_c, 1, 76, 0
2, 425760, Note_on_c, 1, 76, 31
2, 425760, Note_on_c, 1, 79, 31
2, 425760, Note_on_c, 1, 36, 20
2, 425980, Note_on_c, 1, 36, 0
2, 426000, Note_on_c, 1, 79, 0
2, 426000, Note_on_c, 1, 76, 0
2, 426000, Note_on_c, 1, 79, 35
2, 426000, Note_on_c, 1, 76, 35
2, 426000, Note_on_c, 1, 36, 22
2, 426220, Note_on_c, 1, 36, 0
2, 426240, Note_on_c, 1, 76, 0
2, 426240, Note_on_c, 1, 79, 0
2, 426240, Note_on_c, 1, 82, 35
2, 426240, Note_on_c, 1, 79, 35
2, 426240, Note_on_c, 1, 36, 26
2, 426460, Note_on_c, 1, 36, 0
2, 426480, Note_on_c, 1, 36, 20
2, 426700, Note_on_c, 1, 36, 0
2, 426720, Note_on_c, 1, 79, 0
2, 426720, Note_on_c, 1, 82, 0
2, 426720, Note_on_c, 1, 36, 22
2, 426940, Note_on_c, 1, 36, 0
2, 426960, Note_on_c, 1, 49, 27
2, 426960, Note_on_c, 1, 36, 23
2, 427180, Note_on_c, 1, 36, 0
2, 427180, Note_on_c, 1, 49, 0
2, 427200, Note_on_c, 1, 36, 20
2, 427200, Note_on_c, 1, 49, 26
2, 427420, Note_on_c, 1, 49, 0
2, 427420, Note_on_c, 1, 36, 0
2, 427440, Note_on_c, 1, 36, 22
2, 427440, Note_on_c, 1, 49, 26
2, 427660, Note_on_c, 1, 49, 0
2, 427660, Note_on_c, 1, 36, 0
2, 427680, Note_on_c, 1, 48, 26
2, 427680, Note_on_c, 1, 36, 26
2, 427900, Note_on_c, 1, 36, 0
2, 427920, Note_on_c, 1, 36, 20
2, 428140, Note_on_c, 1, 36, 0
2, 428160, Note_on_c, 1, 48, 0
2, 428160, Note_on_c, 1, 36, 22
2, 428380, Note_on_c, 1, 36, 0
2, 428400, Note_on_c, 1, 79, 66
2, 428400, Note_on_c, 1, 82, 66
2, 428400, Note_on_c, 1, 36, 43
2, 428620, Note_on_c, 1, 36, 0
2, 428640, Note_on_c, 1, 82, 0
2, 428640, Note_on_c, 1, 79, 0
2, 428640, Note_on_c, 1, 79, 62
2, 428640, Note_on_c, 1, 82, 62
2, 428640, Note_on_c, 1, 36, 38
2, 428860, Note_on_c, 1, 36, 0
2, 428880, Note_on_c, 1, 82, 0
2, 428880, Note_on_c, 1, 79, 0
2, 428880, Note_on_c, 1, 82, 68
2, 428880, Note_on_c, 1, 79, 68
2, 428880, Note_on_c, 1, 36, 41
2, 429100, Note_on_c, 1, 36, 0
2, 429120, Note_on_c, 1, 79, 0
2, 429120, Note_on_c, 1, 82, 0
2, 429120, Note_on_c, 1, 88, 71
2, 429120, Note_on_c, 1, 36, 50
2, 429240, Note_on_c, 1, 88, 0
2, 429240, Note_on_c, 1, 82, 64
2, 429340, Note_on_c, 1, 36, 0
2, 429360, Note_on_c, 1, 82, 0
2, 429360, Note_on_c, 1, 91, 72
2, 429360, Note_on_c, 1, 36, 40
2, 429480, Note_on_c, 1, 91, 0
2, 429480, Note_on_c, 1, 88, 64
2, 429580, Note_on_c, 1, 36, 0
2, 429600, Note_on_c, 1, 88, 0
2, 429600, Note_on_c, 1, 94, 73
2, 429600, Note_on_c, 1, 36, 43
2, 429720, Note_on_c, 1, 94, 0
2, 429720, Note_on_c, 1, 91, 66
2, 429820, Note_on_c, 1, 36, 0
2, 429840, Note_on_c, 1, 91, 0
2, 429840, Note_on_c, 1, 88, 74
2, 429840, Note_on_c, 1, 36, 47
2, 429960, Note_on_c, 1, 88, 0
2, 429960, Note_on_c, 1, 91, 67
2, 430060, Note_on_c, 1, 36, 0
2, 430080, Note_on_c, 1, 91, 0
2, 430080, Note_on_c, 1, 82, 74
2, 430080, Note_on_c, 1, 36, 43
2, 430200, Note_on_c, 1, 82, 0
2, 430200, Note_on_c, 1, 88, 68
2, 430300, Note_on_c, 1, 36, 0
2, 430320, Note_on_c, 1, 88, 0
2, 430320, Note_on_c, 1, 79, 75
2, 430320, Note_on_c, 1, 36, 45
2, 430440, Note_on_c, 1, 79, 0
2, 430440, Note_on_c, 1, 82, 68
2, 430540, Note_on_c, 1, 36, 0
2, 430560, Note_on_c, 1, 82, 0
2, 430560, Note_on_c, 1, 76, 75
2, 430560, Note_on_c, 1, 36, 55
2, 430680, Note_on_c, 1, 76, 0
2, 430680, Note_on_c, 1, 79, 69
2, 430780, Note_on_c, 1, 36, 0
2, 430800, Note_on_c, 1, 79, 0
2, 430800, Note_on_c, 1, 70, 76
2, 430800, Note_on_c, 1, 36, 45
2, 430920, Note_on_c, 1, 70, 0
2, 430920, Note_on_c, 1, 76, 67
2, 431020, Note_on_c, 1, 36, 0
2, 431040, Note_on_c, 1, 76, 0
2, 431040, Note_on_c, 1, 67, 76
2, 431040, Note_on_c, 1, 36, 48
2, 431160, Note_on_c, 1, 67, 0
2, 431160, Note_on_c, 1, 70, 70
2, 431260, Note_on_c, 1, 36, 0
2, 431280, Note_on_c, 1, 70, 0
2, 431280, Note_on_c, 1, 64, 77
2, 431280, Note_on_c, 1, 36, 52
2, 431400, Note_on_c, 1, 64, 0
2, 431400, Note_on_c, 1, 67, 68
2, 431500, Note_on_c, 1, 36, 0
2, 431520, Note_on_c, 1, 67, 0
2, 431520, Note_on_c, 1, 58, 78
2, 431520, Note_on_c, 1, 36, 47
2, 431640, Note_on_c, 1, 58, 0
2, 431640, Note_on_c, 1, 64, 71
2, 431740, Note_on_c, 1, 36, 0
2, 431760, Note_on_c, 1, 64, 0
2, 431760, Note_on_c, 1, 55, 75
2, 431760, Note_on_c, 1, 36, 50
2, 431880, Note_on_c, 1, 55, 0
2, 431880, Note_on_c, 1, 58, 63
2, 431980, Note_on_c, 1, 36, 0
2, 432000, Note_on_c, 1, 58, 0
2, 432000, Note_on_c, 1, 36, 61
2, 432000, Note_on_c, 1, 52, 76
2, 432120, Note_on_c, 1, 52, 0
2, 432120, Note_on_c, 1, 55, 65
2, 432220, Note_on_c, 1, 36, 0
2, 432240, Note_on_c, 1, 55, 0
2, 432240, Note_on_c, 1, 36, 49
2, 432240, Note_on_c, 1, 46, 77
2, 432360, Note_on_c, 1, 46, 0
2, 432360, Note_on_c, 1, 52, 62
2, 432460, Note_on_c, 1, 36, 0
2, 432480, Note_on_c, 1, 52, 0
2, 432480, Note_on_c, 1, 43, 76
2, 432480, Note_on_c, 1, 36, 52
2, 432600, Note_on_c, 1, 43, 0
2, 432600, Note_on_c, 1, 46, 69
2, 432700, Note_on_c, 1, 36, 0
2, 432720, Note_on_c, 1, 46, 0
2, 432720, Note_on_c, 1, 36, 57
2, 432720, Note_on_c, 1, 49, 80
2, 432840, Note_on_c, 1, 49, 0
2, 432840, Note_on_c, 1, 46, 70
2, 432940, Note_on_c, 1, 36, 0
2, 432960, Note_on_c, 1, 46, 0
2, 432960, Note_on_c, 1, 52, 81
2, 432960, Note_on_c, 1, 36, 51
2, 433080, Note_on_c, 1, 52, 0
2, 433080, Note_on_c, 1, 49, 71
2, 433180, Note_on_c, 1, 36, 0
2, 433200, Note_on_c, 1, 49, 0
2, 433200, Note_on_c, 1, 36, 54
2, 433200, Note_on_c, 1, 55, 86
2, 433320, Note_on_c, 1, 55, 0
2, 433320, Note_on_c, 1, 52, 78
2, 433420, Note_on_c, 1, 36, 0
2, 433440, Note_on_c, 1, 52, 0
2, 433440, Note_on_c, 1, 58, 94
2, 433440, Note_on_c, 1, 43, 66
2, 433440, Note_on_c, 1, 31, 61
2, 433680, Note_on_c, 1, 31, 0
2, 433680, Note_on_c, 1, 43, 0
2, 433680, Note_on_c, 1, 58, 0
2, 433680, Note_on_c, 1, 36, 58
2, 433920, Note_on_c, 1, 36, 0
2, 433920, Note_on_c, 1, 36, 57
2, 434160, Note_on_c, 1, 36, 0
2, 434160, Note_on_c, 1, 49, 93
2, 434160, Note_on_c, 1, 61, 93
2, 434160, Note_on_c, 1, 56, 93
2, 434160, Note_on_c, 1, 41, 68
2, 434160, Note_on_c, 1, 29, 62
2, 434400, Note_on_c, 1, 29, 0
2, 434400, Note_on_c, 1, 56, 0
2, 434400, Note_on_c, 1, 49, 0
2, 434400, Note_on_c, 1, 61, 0
2, 434400, Note_on_c, 1, 41, 0
2, 434400, Note_on_c, 1, 36, 78
2, 434640, Note_on_c, 1, 36, 0
2, 434640, Note_on_c, 1, 36, 66
2, 434880, Note_on_c, 1, 36, 0
2, 434880, Note_on_c, 1, 52, 48
2, 434880, Note_on_c, 1, 36, 40
2, 434880, Note_on_c, 1, 60, 48
2, 434880, Note_on_c, 1, 40, 40
2, 434880, Note_on_c, 1, 55, 48
2, 436980, Note_on_c, 1, 55, 0
2, 436980, Note_on_c, 1, 60, 0
2, 436980, Note_on_c, 1, 52, 0
2, 436980, Note_on_c, 1, 36, 0
2, 436980, Note_on_c, 1, 40, 0
2, 437040, Note_on_c, 1, 60, 35
2, 437040, Note_on_c, 1, 36, 27
2, 437640, Note_on_c, 1, 36, 0
2, 437640, Note_on_c, 1, 60, 0
2, 437640, Note_on_c, 1, 57, 31
2, 437640, Note_on_c, 1, 33, 25
2, 437760, Note_on_c, 1, 33, 0
2, 437760, Note_on_c, 1, 57, 0
2, 437760, Note_on_c, 1, 53, 103
2, 437760, Note_on_c, 1, 29, 81
2, 437998, Note_on_c, 1, 53, 0
2, 438000, Note_on_c, 1, 29, 0
2, 438000, Note_on_c, 1, 57, 75
2, 438000, Note_on_c, 1, 53, 75
2, 438000, Note_on_c, 1, 60, 85
2, 438000, Note_on_c, 1, 65, 101
2, 438240, Note_on_c, 1, 33, 61
2, 438240, Note_on_c, 1, 29, 61
2, 438240, Note_on_c, 1, 41, 81
2, 438240, Note_on_c, 1, 36, 69
2, 438475, Note_on_c, 1, 65, 0
2, 438475, Note_on_c, 1, 60, 0
2, 438475, Note_on_c, 1, 57, 0
2, 438475, Note_on_c, 1, 53, 0
2, 438480, Note_on_c, 1, 60, 72
2, 438480, Note_on_c, 1, 65, 81
2, 438480, Note_on_c, 1, 69, 96
2, 438480, Note_on_c, 1, 57, 72
2, 438715, Note_on_c, 1, 33, 0
2, 438715, Note_on_c, 1, 41, 0
2, 438715, Note_on_c, 1, 36, 0
2, 438715, Note_on_c, 1, 29, 0
2, 438720, Note_on_c, 1, 33, 57
2, 438720, Note_on_c, 1, 36, 64
2, 438720, Note_on_c, 1, 41, 76
2, 438720, Note_on_c, 1, 29, 57
2, 438955, Note_on_c, 1, 60, 0
2, 438955, Note_on_c, 1, 69, 0
2, 438955, Note_on_c, 1, 57, 0
2, 438955, Note_on_c, 1, 65, 0
2, 438960, Note_on_c, 1, 60, 71
2, 438960, Note_on_c, 1, 65, 71
2, 438960, Note_on_c, 1, 72, 96
2, 438960, Note_on_c, 1, 69, 79
2, 439195, Note_on_c, 1, 33, 0
2, 439195, Note_on_c, 1, 41, 0
2, 439195, Note_on_c, 1, 29, 0
2, 439195, Note_on_c, 1, 36, 0
2, 439200, Note_on_c, 1, 33, 55
2, 439200, Note_on_c, 1, 29, 55
2, 439200, Note_on_c, 1, 41, 73
2, 439200, Note_on_c, 1, 36, 63
2, 439435, Note_on_c, 1, 60, 0
2, 439435, Note_on_c, 1, 72, 0
2, 439435, Note_on_c, 1, 69, 0
2, 439435, Note_on_c, 1, 65, 0
2, 439440, Note_on_c, 1, 69, 72
2, 439440, Note_on_c, 1, 77, 95
2, 439440, Note_on_c, 1, 72, 80
2, 439440, Note_on_c, 1, 65, 72
2, 439675, Note_on_c, 1, 33, 0
2, 439675, Note_on_c, 1, 41, 0
2, 439675, Note_on_c, 1, 36, 0
2, 439675, Note_on_c, 1, 29, 0
2, 439680, Note_on_c, 1, 33, 61
2, 439680, Note_on_c, 1, 36, 69
2, 439680, Note_on_c, 1, 41, 81
2, 439680, Note_on_c, 1, 29, 61
2, 439915, Note_on_c, 1, 69, 0
2, 439915, Note_on_c, 1, 72, 0
2, 439915, Note_on_c, 1, 65, 0
2, 439915, Note_on_c, 1, 77, 0
2, 439920, Note_on_c, 1, 77, 86
2, 439920, Note_on_c, 1, 69, 76
2, 439920, Note_on_c, 1, 72, 76
2, 439920, Note_on_c, 1, 81, 103
2, 440155, Note_on_c, 1, 33, 0
2, 440155, Note_on_c, 1, 41, 0
2, 440155, Note_on_c, 1, 29, 0
2, 440155, Note_on_c, 1, 36, 0
2, 440160, Note_on_c, 1, 33, 55
2, 440160, Note_on_c, 1, 29, 55
2, 440160, Note_on_c, 1, 41, 73
2, 440160, Note_on_c, 1, 36, 63
2, 440395, Note_on_c, 1, 77, 0
2, 440395, Note_on_c, 1, 72, 0
2, 440395, Note_on_c, 1, 81, 0
2, 440395, Note_on_c, 1, 69, 0
2, 440400, Note_on_c, 1, 77, 78
2, 440400, Note_on_c, 1, 84, 94
2, 440400, Note_on_c, 1, 72, 71
2, 440400, Note_on_c, 1, 81, 78
2, 440635, Note_on_c, 1, 33, 0
2, 440635, Note_on_c, 1, 41, 0
2, 440635, Note_on_c, 1, 36, 0
2, 440635, Note_on_c, 1, 29, 0
2, 440638, Note_on_c, 1, 77, 0
2, 440638, Note_on_c, 1, 81, 0
2, 440638, Note_on_c, 1, 84, 0
2, 440638, Note_on_c, 1, 72, 0
2, 440640, Note_on_c, 1, 81, 86
2, 440640, Note_on_c, 1, 84, 86
2, 440640, Note_on_c, 1, 89, 103
2, 440640, Note_on_c, 1, 77, 76
2, 440640, Note_on_c, 1, 29, 61
2, 440640, Note_on_c, 1, 33, 61
2, 440640, Note_on_c, 1, 36, 69
2, 440640, Note_on_c, 1, 41, 81
2, 442800, Note_on_c, 1, 41, 0
2, 442800, Note_on_c, 1, 81, 0
2, 442800, Note_on_c, 1, 29, 0
2, 442800, Note_on_c, 1, 84, 0
2, 442800, Note_on_c, 1, 89, 0
2, 442800, Note_on_c, 1, 77, 0
2, 442800, Note_on_c, 1, 33, 0
2, 442800, Note_on_c, 1, 36, 0
2, 442800, Note_on_c, 1, 57, 41
2, 442800, Note_on_c, 1, 33, 33
2, 443400, Note_on_c, 1, 33, 0
2, 443400, Note_on_c, 1, 57, 0
2, 443400, Note_on_c, 1, 60, 35
2, 443400, Note_on_c, 1, 36, 28
2, 443520, Note_on_c, 1, 36, 0
2, 443520, Note_on_c, 1, 60, 0
2, 443520, Note_on_c, 1, 65, 40
2, 443520, Note_on_c, 1, 41, 34
2, 444240, Note_on_c, 1, 41, 0
2, 444240, Note_on_c, 1, 65, 0
2, 444240, Note_on_c, 1, 69, 43
2, 444240, Note_on_c, 1, 45, 34
2, 444840, Note_on_c, 1, 45, 0
2, 444840, Note_on_c, 1, 69, 0
2, 444840, Note_on_c, 1, 72, 37
2, 444840, Note_on_c, 1, 48, 29
2, 444960, Note_on_c, 1, 48, 0
2, 444960, Note_on_c, 1, 72, 0
2, 444960, Note_on_c, 1, 77, 40
2, 444960, Note_on_c, 1, 53, 34
2, 445675, Note_on_c, 1, 53, 0
2, 445675, Note_on_c, 1, 77, 0
2, 445680, Note_on_c, 1, 65, 40
2, 445680, Note_on_c, 1, 41, 31
2, 446400, Note_on_c, 1, 41, 0
2, 446400, Note_on_c, 1, 65, 0
2, 446400, Note_on_c, 1, 60, 103
2, 446400, Note_on_c, 1, 52, 81
2, 446400, Note_on_c, 1, 55, 81
2, 446638, Note_on_c, 1, 55, 0
2, 446638, Note_on_c, 1, 52, 0
2, 446638, Note_on_c, 1, 60, 0
2, 446640, Note_on_c, 1, 60, 85
2, 446640, Note_on_c, 1, 64, 101
2, 446640, Note_on_c, 1, 55, 75
2, 446880, Note_on_c, 1, 40, 61
2, 446880, Note_on_c, 1, 48, 81
2, 446880, Note_on_c, 1, 43, 69
2, 447115, Note_on_c, 1, 55, 0
2, 447115, Note_on_c, 1, 60, 0
2, 447115, Note_on_c, 1, 64, 0
2, 447120, Note_on_c, 1, 60, 72
2, 447120, Note_on_c, 1, 67, 96
2, 447120, Note_on_c, 1, 64, 81
2, 447355, Note_on_c, 1, 40, 0
2, 447355, Note_on_c, 1, 43, 0
2, 447355, Note_on_c, 1, 48, 0
2, 447360, Note_on_c, 1, 43, 64
2, 447360, Note_on_c, 1, 40, 57
2, 447360, Note_on_c, 1, 48, 76
2, 447595, Note_on_c, 1, 60, 0
2, 447595, Note_on_c, 1, 64, 0
2, 447595, Note_on_c, 1, 67, 0
2, 447600, Note_on_c, 1, 67, 81
2, 447600, Note_on_c, 1, 72, 98
2, 447600, Note_on_c, 1, 64, 72
2, 447835, Note_on_c, 1, 43, 0
2, 447835, Note_on_c, 1, 48, 0
2, 447835, Note_on_c, 1, 40, 0
2, 447840, Note_on_c, 1, 40, 55
2, 447840, Note_on_c, 1, 48, 73
2, 447840, Note_on_c, 1, 43, 63
2, 448075, Note_on_c, 1, 67, 0
2, 448075, Note_on_c, 1, 64, 0
2, 448075, Note_on_c, 1, 72, 0
2, 448080, Note_on_c, 1, 76, 95
2, 448080, Note_on_c, 1, 67, 72
2, 448080, Note_on_c, 1, 72, 80
2, 448315, Note_on_c, 1, 40, 0
2, 448315, Note_on_c, 1, 43, 0
2, 448315, Note_on_c, 1, 48, 0
2, 448320, Note_on_c, 1, 43, 69
2, 448320, Note_on_c, 1, 48, 81
2, 448320, Note_on_c, 1, 40, 61
2, 448555, Note_on_c, 1, 76, 0
2, 448555, Note_on_c, 1, 72, 0
2, 448555, Note_on_c, 1, 67, 0
2, 448560, Note_on_c, 1, 79, 103
2, 448560, Note_on_c, 1, 72, 76
2, 448560, Note_on_c, 1, 76, 86
2, 448795, Note_on_c, 1, 43, 0
2, 448795, Note_on_c, 1, 40, 0
2, 448795, Note_on_c, 1, 48, 0
2, 448800, Note_on_c, 1, 40, 55
2, 448800, Note_on_c, 1, 48, 73
2, 448800, Note_on_c, 1, 43, 63
2, 449035, Note_on_c, 1, 79, 0
2, 449035, Note_on_c, 1, 76, 0
2, 449035, Note_on_c, 1, 72, 0
2, 449040, Note_on_c, 1, 84, 94
2, 449040, Note_on_c, 1, 76, 78
2, 449040, Note_on_c, 1, 79, 78
2, 449275, Note_on_c, 1, 40, 0
2, 449275, Note_on_c, 1, 43, 0
2, 449275, Note_on_c, 1, 48, 0
2, 449278, Note_on_c, 1, 84, 0
2, 449278, Note_on_c, 1, 76, 0
2, 449278, Note_on_c, 1, 79, 0
2, 449280, Note_on_c, 1, 72, 41
2, 449280, Note_on_c, 1, 64, 30
2, 449280, Note_on_c, 1, 67, 30
2, 450480, Note_on_c, 1, 72, 0
2, 450480, Note_on_c, 1, 74, 45
2, 450720, Note_on_c, 1, 74, 0
2, 450720, Note_on_c, 1, 67, 0
2, 450720, Note_on_c, 1, 64, 0
2, 450720, Note_on_c, 1, 74, 38
2, 450720, Note_on_c, 1, 65, 30
2, 450720, Note_on_c, 1, 71, 30
2, 450720, Note_on_c, 1, 68, 30
2, 450800, Note_on_c, 1, 74, 0
2, 450800, Note_on_c, 1, 76, 35
2, 450880, Note_on_c, 1, 74, 38
2, 450920, Note_on_c, 1, 76, 0
2, 450960, Note_on_c, 1, 74, 0
2, 450960, Note_on_c, 1, 76, 36
2, 451040, Note_on_c, 1, 76, 0
2, 451040, Note_on_c, 1, 74, 39
2, 451120, Note_on_c, 1, 74, 0
2, 451120, Note_on_c, 1, 76, 36
2, 451200, Note_on_c, 1, 76, 0
2, 451200, Note_on_c, 1, 74, 38
2, 451280, Note_on_c, 1, 74, 0
2, 451280, Note_on_c, 1, 76, 36
2, 451360, Note_on_c, 1, 76, 0
2, 451360, Note_on_c, 1, 74, 39
2, 451440, Note_on_c, 1, 74, 0
2, 451440, Note_on_c, 1, 76, 37
2, 451520, Note_on_c, 1, 76, 0
2, 451520, Note_on_c, 1, 74, 35
2, 451600, Note_on_c, 1, 74, 0
2, 451600, Note_on_c, 1, 76, 39
2, 451680, Note_on_c, 1, 76, 0
2, 451680, Note_on_c, 1, 74, 35
2, 451800, Note_on_c, 1, 74, 0
2, 451800, Note_on_c, 1, 72, 36
2, 451920, Note_on_c, 1, 72, 0
2, 451920, Note_on_c, 1, 76, 41
2, 452040, Note_on_c, 1, 76, 0
2, 452040, Note_on_c, 1, 74, 38
2, 452160, Note_on_c, 1, 74, 0
2, 452160, Note_on_c, 1, 65, 0
2, 452160, Note_on_c, 1, 71, 0
2, 452160, Note_on_c, 1, 68, 0
2, 452160, Note_on_c, 1, 60, 103
2, 452160, Note_on_c, 1, 55, 81
2, 452160, Note_on_c, 1, 52, 81
2, 452398, Note_on_c, 1, 52, 0
2, 452398, Note_on_c, 1, 55, 0
2, 452398, Note_on_c, 1, 60, 0
2, 452400, Note_on_c, 1, 64, 101
2, 452400, Note_on_c, 1, 60, 85
2, 452400, Note_on_c, 1, 55, 75
2, 452640, Note_on_c, 1, 43, 69
2, 452640, Note_on_c, 1, 40, 61
2, 452640, Note_on_c, 1, 48, 81
2, 452875, Note_on_c, 1, 55, 0
2, 452875, Note_on_c, 1, 64, 0
2, 452875, Note_on_c, 1, 60, 0
2, 452880, Note_on_c, 1, 64, 81
2, 452880, Note_on_c, 1, 67, 96
2, 452880, Note_on_c, 1, 60, 72
2, 453115, Note_on_c, 1, 43, 0
2, 453115, Note_on_c, 1, 48, 0
2, 453115, Note_on_c, 1, 40, 0
2, 453120, Note_on_c, 1, 40, 57
2, 453120, Note_on_c, 1, 48, 76
2, 453120, Note_on_c, 1, 43, 64
2, 453355, Note_on_c, 1, 64, 0
2, 453355, Note_on_c, 1, 60, 0
2, 453355, Note_on_c, 1, 67, 0
2, 453360, Note_on_c, 1, 72, 98
2, 453360, Note_on_c, 1, 64, 72
2, 453360, Note_on_c, 1, 67, 81
2, 453595, Note_on_c, 1, 40, 0
2, 453595, Note_on_c, 1, 43, 0
2, 453595, Note_on_c, 1, 48, 0
2, 453600, Note_on_c, 1, 43, 63
2, 453600, Note_on_c, 1, 48, 73
2, 453600, Note_on_c, 1, 40, 55
2, 453835, Note_on_c, 1, 72, 0
2, 453835, Note_on_c, 1, 67, 0
2, 453835, Note_on_c, 1, 64, 0
2, 453840, Note_on_c, 1, 76, 95
2, 453840, Note_on_c, 1, 67, 72
2, 453840, Note_on_c, 1, 72, 80
2, 454075, Note_on_c, 1, 43, 0
2, 454075, Note_on_c, 1, 40, 0
2, 454075, Note_on_c, 1, 48, 0
2, 454080, Note_on_c, 1, 40, 61
2, 454080, Note_on_c, 1, 48, 81
2, 454080, Note_on_c, 1, 43, 69
2, 454315, Note_on_c, 1, 76, 0
2, 454315, Note_on_c, 1, 72, 0
2, 454315, Note_on_c, 1, 67, 0
2, 454320, Note_on_c, 1, 79, 103
2, 454320, Note_on_c, 1, 72, 76
2, 454320, Note_on_c, 1, 76, 86
2, 454555, Note_on_c, 1, 40, 0
2, 454555, Note_on_c, 1, 43, 0
2, 454555, Note_on_c, 1, 48, 0
2, 454560, Note_on_c, 1, 43, 63
2, 454560, Note_on_c, 1, 48, 73
2, 454560, Note_on_c, 1, 40, 55
2, 454795, Note_on_c, 1, 79, 0
2, 454795, Note_on_c, 1, 76, 0
2, 454795, Note_on_c, 1, 72, 0
2, 454800, Note_on_c, 1, 76, 78
2, 454800, Note_on_c, 1, 84, 94
2, 454800, Note_on_c, 1, 79, 78
2, 455035, Note_on_c, 1, 43, 0
2, 455035, Note_on_c, 1, 40, 0
2, 455035, Note_on_c, 1, 48, 0
2, 455038, Note_on_c, 1, 76, 0
2, 455038, Note_on_c, 1, 84, 0
2, 455038, Note_on_c, 1, 79, 0
2, 455040, Note_on_c, 1, 72, 41
2, 455040, Note_on_c, 1, 67, 30
2, 455040, Note_on_c, 1, 64, 30
2, 456240, Note_on_c, 1, 72, 0
2, 456240, Note_on_c, 1, 74, 45
2, 456480, Note_on_c, 1, 74, 0
2, 456480, Note_on_c, 1, 64, 0
2, 456480, Note_on_c, 1, 67, 0
2, 456480, Note_on_c, 1, 74, 44
2, 456480, Note_on_c, 1, 68, 29
2, 456480, Note_on_c, 1, 65, 30
2, 456560, Note_on_c, 1, 74, 0
2, 456560, Note_on_c, 1, 76, 39
2, 456640, Note_on_c, 1, 76, 0
2, 456640, Note_on_c, 1, 74, 42
2, 456720, Note_on_c, 1, 74, 0
2, 456720, Note_on_c, 1, 76, 37
2, 456800, Note_on_c, 1, 76, 0
2, 456800, Note_on_c, 1, 74, 41
2, 456880, Note_on_c, 1, 74, 0
2, 456880, Note_on_c, 1, 76, 36
2, 456960, Note_on_c, 1, 76, 0
2, 456960, Note_on_c, 1, 74, 40
2, 457040, Note_on_c, 1, 74, 0
2, 457040, Note_on_c, 1, 76, 37
2, 457120, Note_on_c, 1, 76, 0
2, 457120, Note_on_c, 1, 74, 41
2, 457200, Note_on_c, 1, 74, 0
2, 457200, Note_on_c, 1, 76, 38
2, 457320, Note_on_c, 1, 76, 0
2, 457320, Note_on_c, 1, 74, 37
2, 457440, Note_on_c, 1, 74, 0
2, 457440, Note_on_c, 1, 76, 42
2, 457560, Note_on_c, 1, 76, 0
2, 457560, Note_on_c, 1, 74, 41
2, 457680, Note_on_c, 1, 74, 0
2, 457680, Note_on_c, 1, 72, 48
2, 457800, Note_on_c, 1, 72, 0
2, 457800, Note_on_c, 1, 74, 44
2, 457920, Note_on_c, 1, 74, 0
2, 457920, Note_on_c, 1, 65, 0
2, 457920, Note_on_c, 1, 68, 0
2, 457920, Note_on_c, 1, 55, 81
2, 457920, Note_on_c, 1, 64, 103
2, 457920, Note_on_c, 1, 58, 81
2, 458158, Note_on_c, 1, 58, 0
2, 458158, Note_on_c, 1, 64, 0
2, 458158, Note_on_c, 1, 55, 0
2, 458160, Note_on_c, 1, 64, 85
2, 458160, Note_on_c, 1, 58, 85
2, 458160, Note_on_c, 1, 67, 101
2, 458400, Note_on_c, 1, 43, 61
2, 458400, Note_on_c, 1, 52, 81
2, 458400, Note_on_c, 1, 46, 69
2, 458635, Note_on_c, 1, 67, 0
2, 458635, Note_on_c, 1, 64, 0
2, 458635, Note_on_c, 1, 58, 0
2, 458640, Note_on_c, 1, 67, 81
2, 458640, Note_on_c, 1, 70, 96
2, 458640, Note_on_c, 1, 64, 72
2, 458875, Note_on_c, 1, 43, 0
2, 458875, Note_on_c, 1, 46, 0
2, 458875, Note_on_c, 1, 52, 0
2, 458880, Note_on_c, 1, 46, 64
2, 458880, Note_on_c, 1, 43, 57
2, 458880, Note_on_c, 1, 52, 76
2, 459115, Note_on_c, 1, 67, 0
2, 459115, Note_on_c, 1, 64, 0
2, 459115, Note_on_c, 1, 70, 0
2, 459120, Note_on_c, 1, 70, 85
2, 459120, Note_on_c, 1, 76, 101
2, 459120, Note_on_c, 1, 67, 75
2, 459355, Note_on_c, 1, 46, 0
2, 459355, Note_on_c, 1, 52, 0
2, 459355, Note_on_c, 1, 43, 0
2, 459360, Note_on_c, 1, 43, 55
2, 459360, Note_on_c, 1, 52, 73
2, 459360, Note_on_c, 1, 46, 63
2, 459595, Note_on_c, 1, 70, 0
2, 459595, Note_on_c, 1, 67, 0
2, 459595, Note_on_c, 1, 76, 0
2, 459600, Note_on_c, 1, 70, 72
2, 459600, Note_on_c, 1, 79, 95
2, 459600, Note_on_c, 1, 76, 80
2, 459835, Note_on_c, 1, 43, 0
2, 459835, Note_on_c, 1, 46, 0
2, 459835, Note_on_c, 1, 52, 0
2, 459840, Note_on_c, 1, 46, 69
2, 459840, Note_on_c, 1, 52, 81
2, 459840, Note_on_c, 1, 43, 61
2, 460075, Note_on_c, 1, 70, 0
2, 460075, Note_on_c, 1, 76, 0
2, 460075, Note_on_c, 1, 79, 0
2, 460080, Note_on_c, 1, 76, 76
2, 460080, Note_on_c, 1, 82, 103
2, 460080, Note_on_c, 1, 79, 86
2, 460315, Note_on_c, 1, 46, 0
2, 460315, Note_on_c, 1, 43, 0
2, 460315, Note_on_c, 1, 52, 0
2, 460320, Note_on_c, 1, 43, 55
2, 460320, Note_on_c, 1, 52, 73
2, 460320, Note_on_c, 1, 46, 63
2, 460555, Note_on_c, 1, 76, 0
2, 460555, Note_on_c, 1, 79, 0
2, 460555, Note_on_c, 1, 82, 0
2, 460560, Note_on_c, 1, 79, 78
2, 460560, Note_on_c, 1, 88, 94
2, 460560, Note_on_c, 1, 82, 78
2, 460795, Note_on_c, 1, 43, 0
2, 460795, Note_on_c, 1, 46, 0
2, 460795, Note_on_c, 1, 52, 0
2, 460798, Note_on_c, 1, 79, 0
2, 460798, Note_on_c, 1, 88, 0
2, 460798, Note_on_c, 1, 82, 0
2, 460800, Note_on_c, 1, 76, 48
2, 460800, Note_on_c, 1, 67, 36
2, 460800, Note_on_c, 1, 70, 36
2, 462000, Note_on_c, 1, 76, 0
2, 462000, Note_on_c, 1, 77, 52
2, 462240, Note_on_c, 1, 77, 0
2, 462240, Note_on_c, 1, 70, 0
2, 462240, Note_on_c, 1, 67, 0
2, 462240, Note_on_c, 1, 77, 46
2, 462240, Note_on_c, 1, 68, 36
2, 462240, Note_on_c, 1, 72, 36
2, 462320, Note_on_c, 1, 77, 0
2, 462320, Note_on_c, 1, 79, 41
2, 462400, Note_on_c, 1, 79, 0
2, 462400, Note_on_c, 1, 77, 46
2, 462480, Note_on_c, 1, 77, 0
2, 462480, Note_on_c, 1, 79, 41
2, 462560, Note_on_c, 1, 79, 0
2, 462560, Note_on_c, 1, 77, 46
2, 462640, Note_on_c, 1, 77, 0
2, 462640, Note_on_c, 1, 79, 41
2, 462720, Note_on_c, 1, 79, 0
2, 462720, Note_on_c, 1, 77, 46
2, 462800, Note_on_c, 1, 77, 0
2, 462800, Note_on_c, 1, 79, 42
2, 462880, Note_on_c, 1, 79, 0
2, 462880, Note_on_c, 1, 77, 46
2, 462960, Note_on_c, 1, 77, 0
2, 462960, Note_on_c, 1, 79, 43
2, 463080, Note_on_c, 1, 79, 0
2, 463080, Note_on_c, 1, 77, 40
2, 463200, Note_on_c, 1, 77, 0
2, 463200, Note_on_c, 1, 79, 46
2, 463320, Note_on_c, 1, 79, 0
2, 463320, Note_on_c, 1, 77, 42
2, 463440, Note_on_c, 1, 77, 0
2, 463440, Note_on_c, 1, 76, 48
2, 463560, Note_on_c, 1, 76, 0
2, 463560, Note_on_c, 1, 77, 44
2, 463680, Note_on_c, 1, 77, 0
2, 463680, Note_on_c, 1, 72, 0
2, 463680, Note_on_c, 1, 68, 0
2, 463680, Note_on_c, 1, 67, 103
2, 463680, Note_on_c, 1, 64, 81
2, 463918, Note_on_c, 1, 64, 0
2, 463918, Note_on_c, 1, 67, 0
2, 463920, Note_on_c, 1, 76, 101
2, 463920, Note_on_c, 1, 73, 85
2, 464160, Note_on_c, 1, 46, 61
2, 464160, Note_on_c, 1, 52, 69
2, 464160, Note_on_c, 1, 55, 81
2, 464160, Note_on_c, 1, 49, 61
2, 464395, Note_on_c, 1, 73, 0
2, 464395, Note_on_c, 1, 76, 0
2, 464400, Note_on_c, 1, 76, 81
2, 464400, Note_on_c, 1, 79, 96
2, 464635, Note_on_c, 1, 55, 0
2, 464635, Note_on_c, 1, 46, 0
2, 464635, Note_on_c, 1, 52, 0
2, 464635, Note_on_c, 1, 49, 0
2, 464640, Note_on_c, 1, 58, 57
2, 464640, Note_on_c, 1, 64, 64
2, 464640, Note_on_c, 1, 61, 57
2, 464640, Note_on_c, 1, 67, 76
2, 464875, Note_on_c, 1, 79, 0
2, 464875, Note_on_c, 1, 76, 0
2, 464880, Note_on_c, 1, 82, 101
2, 464880, Note_on_c, 1, 79, 85
2, 465115, Note_on_c, 1, 61, 0
2, 465115, Note_on_c, 1, 58, 0
2, 465115, Note_on_c, 1, 64, 0
2, 465115, Note_on_c, 1, 67, 0
2, 465120, Note_on_c, 1, 58, 55
2, 465120, Note_on_c, 1, 64, 63
2, 465120, Note_on_c, 1, 67, 73
2, 465120, Note_on_c, 1, 61, 55
2, 465355, Note_on_c, 1, 79, 0
2, 465355, Note_on_c, 1, 82, 0
2, 465360, Note_on_c, 1, 82, 80
2, 465360, Note_on_c, 1, 85, 95
2, 465595, Note_on_c, 1, 67, 0
2, 465595, Note_on_c, 1, 58, 0
2, 465595, Note_on_c, 1, 64, 0
2, 465595, Note_on_c, 1, 61, 0
2, 465600, Note_on_c, 1, 61, 61
2, 465600, Note_on_c, 1, 64, 69
2, 465600, Note_on_c, 1, 67, 81
2, 465600, Note_on_c, 1, 58, 61
2, 465835, Note_on_c, 1, 85, 0
2, 465835, Note_on_c, 1, 82, 0
2, 465840, Note_on_c, 1, 85, 86
2, 465840, Note_on_c, 1, 88, 103
2, 466075, Note_on_c, 1, 67, 0
2, 466075, Note_on_c, 1, 61, 0
2, 466075, Note_on_c, 1, 64, 0
2, 466075, Note_on_c, 1, 58, 0
2, 466080, Note_on_c, 1, 61, 55
2, 466080, Note_on_c, 1, 58, 55
2, 466080, Note_on_c, 1, 67, 73
2, 466080, Note_on_c, 1, 64, 63
2, 466315, Note_on_c, 1, 88, 0
2, 466315, Note_on_c, 1, 85, 0
2, 466320, Note_on_c, 1, 88, 78
2, 466320, Note_on_c, 1, 91, 94
2, 466555, Note_on_c, 1, 67, 0
2, 466555, Note_on_c, 1, 61, 0
2, 466555, Note_on_c, 1, 58, 0
2, 466555, Note_on_c, 1, 64, 0
2, 466558, Note_on_c, 1, 91, 0
2, 466558, Note_on_c, 1, 88, 0
2, 466560, Note_on_c, 1, 79, 79
2, 466560, Note_on_c, 1, 76, 59
2, 466560, Note_on_c, 1, 70, 59
2, 466560, Note_on_c, 1, 73, 59
2, 467760, Note_on_c, 1, 79, 0
2, 467760, Note_on_c, 1, 80, 87
2, 468000, Note_on_c, 1, 80, 0
2, 468000, Note_on_c, 1, 73, 0
2, 468000, Note_on_c, 1, 70, 0
2, 468000, Note_on_c, 1, 76, 0
2, 468000, Note_on_c, 1, 77, 64
2, 468000, Note_on_c, 1, 80, 76
2, 468000, Note_on_c, 1, 71, 59
2, 468000, Note_on_c, 1, 74, 59
2, 468120, Note_on_c, 1, 80, 0
2, 468120, Note_on_c, 1, 82, 68
2, 468240, Note_on_c, 1, 82, 0
2, 468240, Note_on_c, 1, 80, 76
2, 468360, Note_on_c, 1, 80, 0
2, 468360, Note_on_c, 1, 82, 68
2, 468480, Note_on_c, 1, 82, 0
2, 468480, Note_on_c, 1, 80, 76
2, 468600, Note_on_c, 1, 80, 0
2, 468600, Note_on_c, 1, 82, 68
2, 468720, Note_on_c, 1, 82, 0
2, 468720, Note_on_c, 1, 80, 76
2, 468840, Note_on_c, 1, 80, 0
2, 468840, Note_on_c, 1, 82, 67
2, 468960, Note_on_c, 1, 82, 0
2, 468960, Note_on_c, 1, 80, 67
2, 469080, Note_on_c, 1, 80, 0
2, 469080, Note_on_c, 1, 79, 70
2, 469200, Note_on_c, 1, 79, 0
2, 469200, Note_on_c, 1, 82, 79
2, 469320, Note_on_c, 1, 82, 0
2, 469320, Note_on_c, 1, 80, 73
2, 469440, Note_on_c, 1, 80, 0
2, 469440, Note_on_c, 1, 74, 0
2, 469440, Note_on_c, 1, 71, 0
2, 469440, Note_on_c, 1, 77, 0
2, 469440, Note_on_c, 1, 76, 58
2, 469440, Note_on_c, 1, 79, 58
2, 469440, Note_on_c, 1, 60, 39
2, 469680, Note_on_c, 1, 60, 0
2, 469680, Note_on_c, 1, 72, 36
2, 469900, Note_on_c, 1, 72, 0
2, 469920, Note_on_c, 1, 72, 36
2, 470140, Note_on_c, 1, 72, 0
2, 470160, Note_on_c, 1, 79, 0
2, 470160, Note_on_c, 1, 76, 0
2, 470160, Note_on_c, 1, 72, 39
2, 470380, Note_on_c, 1, 72, 0
2, 470400, Note_on_c, 1, 72, 37
2, 470620, Note_on_c, 1, 72, 0
2, 470640, Note_on_c, 1, 72, 36
2, 470860, Note_on_c, 1, 72, 0
2, 470880, Note_on_c, 1, 72, 39
2, 471100, Note_on_c, 1, 72, 0
2, 471120, Note_on_c, 1, 72, 35
2, 471340, Note_on_c, 1, 72, 0
2, 471360, Note_on_c, 1, 72, 35
2, 471580, Note_on_c, 1, 72, 0
2, 471600, Note_on_c, 1, 72, 39
2, 471820, Note_on_c, 1, 72, 0
2, 471840, Note_on_c, 1, 72, 36
2, 472060, Note_on_c, 1, 72, 0
2, 472080, Note_on_c, 1, 72, 36
2, 472300, Note_on_c, 1, 72, 0
2, 472320, Note_on_c, 1, 77, 56
2, 472320, Note_on_c, 1, 80, 56
2, 472560, Note_on_c, 1, 72, 38
2, 472780, Note_on_c, 1, 72, 0
2, 472800, Note_on_c, 1, 72, 38
2, 473020, Note_on_c, 1, 72, 0
2, 473040, Note_on_c, 1, 80, 0
2, 473040, Note_on_c, 1, 77, 0
2, 473040, Note_on_c, 1, 68, 39
2, 473040, Note_on_c, 1, 65, 39
2, 473280, Note_on_c, 1, 65, 0
2, 473280, Note_on_c, 1, 68, 0
2, 473280, Note_on_c, 1, 72, 37
2, 473500, Note_on_c, 1, 72, 0
2, 473520, Note_on_c, 1, 72, 37
2, 473740, Note_on_c, 1, 72, 0
2, 473760, Note_on_c, 1, 72, 41
2, 473980, Note_on_c, 1, 72, 0
2, 474000, Note_on_c, 1, 72, 37
2, 474220, Note_on_c, 1, 72, 0
2, 474240, Note_on_c, 1, 72, 38
2, 474460, Note_on_c, 1, 72, 0
2, 474480, Note_on_c, 1, 72, 46
2, 474700, Note_on_c, 1, 72, 0
2, 474720, Note_on_c, 1, 72, 40
2, 474940, Note_on_c, 1, 72, 0
2, 474960, Note_on_c, 1, 72, 40
2, 475180, Note_on_c, 1, 72, 0
2, 475200, Note_on_c, 1, 80, 75
2, 475200, Note_on_c, 1, 77, 75
2, 475200, Note_on_c, 1, 85, 75
2, 475440, Note_on_c, 1, 72, 38
2, 475660, Note_on_c, 1, 72, 0
2, 475680, Note_on_c, 1, 72, 38
2, 475900, Note_on_c, 1, 72, 0
2, 475920, Note_on_c, 1, 68, 40
2, 475920, Note_on_c, 1, 65, 40
2, 476160, Note_on_c, 1, 65, 0
2, 476160, Note_on_c, 1, 68, 0
2, 476160, Note_on_c, 1, 72, 37
2, 476380, Note_on_c, 1, 72, 0
2, 476400, Note_on_c, 1, 72, 37
2, 476620, Note_on_c, 1, 72, 0
2, 476640, Note_on_c, 1, 65, 37
2, 476640, Note_on_c, 1, 68, 37
2, 476880, Note_on_c, 1, 68, 0
2, 476880, Note_on_c, 1, 65, 0
2, 476880, Note_on_c, 1, 72, 37
2, 477100, Note_on_c, 1, 72, 0
2, 477120, Note_on_c, 1, 72, 37
2, 477340, Note_on_c, 1, 72, 0
2, 477360, Note_on_c, 1, 65, 37
2, 477360, Note_on_c, 1, 68, 37
2, 477600, Note_on_c, 1, 68, 0
2, 477600, Note_on_c, 1, 65, 0
2, 477600, Note_on_c, 1, 72, 37
2, 477820, Note_on_c, 1, 72, 0
2, 477840, Note_on_c, 1, 72, 37
2, 478060, Note_on_c, 1, 72, 0
2, 478080, Note_on_c, 1, 80, 0
2, 478080, Note_on_c, 1, 77, 0
2, 478080, Note_on_c, 1, 85, 0
2, 478080, Note_on_c, 1, 79, 52
2, 478080, Note_on_c, 1, 76, 52
2, 478080, Note_on_c, 1, 84, 52
2, 478080, Note_on_c, 1, 64, 39
2, 478080, Note_on_c, 1, 67, 39
2, 478320, Note_on_c, 1, 67, 0
2, 478320, Note_on_c, 1, 64, 0
2, 478320, Note_on_c, 1, 60, 37
2, 478540, Note_on_c, 1, 60, 0
2, 478560, Note_on_c, 1, 84, 0
2, 478560, Note_on_c, 1, 76, 0
2, 478560, Note_on_c, 1, 79, 0
2, 478560, Note_on_c, 1, 60, 37
2, 478780, Note_on_c, 1, 60, 0
2, 478800, Note_on_c, 1, 60, 38
2, 479020, Note_on_c, 1, 60, 0
2, 479040, Note_on_c, 1, 60, 37
2, 479260, Note_on_c, 1, 60, 0
2, 479280, Note_on_c, 1, 60, 37
2, 479500, Note_on_c, 1, 60, 0
2, 479520, Note_on_c, 1, 60, 37
2, 479740, Note_on_c, 1, 60, 0
2, 479760, Note_on_c, 1, 60, 37
2, 479980, Note_on_c, 1, 60, 0
2, 480000, Note_on_c, 1, 60, 37
2, 480220, Note_on_c, 1, 60, 0
2, 480240, Note_on_c, 1, 76, 56
2, 480240, Note_on_c, 1, 79, 56
2, 480240, Note_on_c, 1, 60, 38
2, 480460, Note_on_c, 1, 60, 0
2, 480480, Note_on_c, 1, 60, 37
2, 480700, Note_on_c, 1, 60, 0
2, 480720, Note_on_c, 1, 60, 37
2, 480840, Note_on_c, 1, 79, 0
2, 480840, Note_on_c, 1, 76, 0
2, 480840, Note_on_c, 1, 79, 52
2, 480840, Note_on_c, 1, 76, 52
2, 480940, Note_on_c, 1, 60, 0
2, 480960, Note_on_c, 1, 76, 0
2, 480960, Note_on_c, 1, 79, 0
2, 480960, Note_on_c, 1, 80, 58
2, 480960, Note_on_c, 1, 77, 58
2, 480960, Note_on_c, 1, 60, 39
2, 481180, Note_on_c, 1, 60, 0
2, 481200, Note_on_c, 1, 60, 37
2, 481420, Note_on_c, 1, 60, 0
2, 481440, Note_on_c, 1, 77, 0
2, 481440, Note_on_c, 1, 80, 0
2, 481440, Note_on_c, 1, 79, 52
2, 481440, Note_on_c, 1, 76, 52
2, 481440, Note_on_c, 1, 60, 37
2, 481660, Note_on_c, 1, 60, 0
2, 481680, Note_on_c, 1, 76, 0
2, 481680, Note_on_c, 1, 79, 0
2, 481680, Note_on_c, 1, 60, 38
2, 481900, Note_on_c, 1, 60, 0
2, 481920, Note_on_c, 1, 60, 37
2, 482140, Note_on_c, 1, 60, 0
2, 482160, Note_on_c, 1, 67, 50
2, 482160, Note_on_c, 1, 64, 50
2, 482160, Note_on_c, 1, 60, 37
2, 482380, Note_on_c, 1, 60, 0
2, 482400, Note_on_c, 1, 64, 0
2, 482400, Note_on_c, 1, 67, 0
2, 482400, Note_on_c, 1, 60, 38
2, 482620, Note_on_c, 1, 60, 0
2, 482640, Note_on_c, 1, 60, 39
2, 482860, Note_on_c, 1, 60, 0
2, 482880, Note_on_c, 1, 55, 49
2, 482880, Note_on_c, 1, 52, 49
2, 482880, Note_on_c, 1, 60, 37
2, 483100, Note_on_c, 1, 60, 0
2, 483120, Note_on_c, 1, 52, 0
2, 483120, Note_on_c, 1, 55, 0
2, 483120, Note_on_c, 1, 55, 44
2, 483120, Note_on_c, 1, 58, 44
2, 483360, Note_on_c, 1, 58, 0
2, 483360, Note_on_c, 1, 55, 0
2, 483360, Note_on_c, 1, 60, 37
2, 483580, Note_on_c, 1, 60, 0
2, 483600, Note_on_c, 1, 60, 37
2, 483720, Note_on_c, 1, 79, 58
2, 483720, Note_on_c, 1, 76, 58
2, 483820, Note_on_c, 1, 60, 0
2, 483840, Note_on_c, 1, 76, 0
2, 483840, Note_on_c, 1, 79, 0
2, 483840, Note_on_c, 1, 82, 61
2, 483840, Note_on_c, 1, 79, 61
2, 483840, Note_on_c, 1, 60, 39
2, 484060, Note_on_c, 1, 60, 0
2, 484080, Note_on_c, 1, 60, 37
2, 484300, Note_on_c, 1, 60, 0
2, 484320, Note_on_c, 1, 79, 0
2, 484320, Note_on_c, 1, 82, 0
2, 484320, Note_on_c, 1, 77, 52
2, 484320, Note_on_c, 1, 80, 52
2, 484320, Note_on_c, 1, 60, 37
2, 484540, Note_on_c, 1, 60, 0
2, 484560, Note_on_c, 1, 80, 0
2, 484560, Note_on_c, 1, 77, 0
2, 484560, Note_on_c, 1, 60, 37
2, 484780, Note_on_c, 1, 60, 0
2, 484800, Note_on_c, 1, 60, 37
2, 485020, Note_on_c, 1, 60, 0
2, 485040, Note_on_c, 1, 65, 49
2, 485040, Note_on_c, 1, 68, 49
2, 485040, Note_on_c, 1, 60, 37
2, 485260, Note_on_c, 1, 60, 0
2, 485280, Note_on_c, 1, 68, 0
2, 485280, Note_on_c, 1, 65, 0
2, 485280, Note_on_c, 1, 60, 38
2, 485500, Note_on_c, 1, 60, 0
2, 485520, Note_on_c, 1, 60, 37
2, 485740, Note_on_c, 1, 60, 0
2, 485760, Note_on_c, 1, 53, 47
2, 485760, Note_on_c, 1, 56, 47
2, 485760, Note_on_c, 1, 60, 37
2, 485980, Note_on_c, 1, 60, 0
2, 485995, Note_on_c, 1, 56, 0
2, 485995, Note_on_c, 1, 53, 0
2, 486000, Note_on_c, 1, 56, 48
2, 486000, Note_on_c, 1, 53, 44
2, 486240, Note_on_c, 1, 53, 0
2, 486240, Note_on_c, 1, 56, 0
2, 486240, Note_on_c, 1, 60, 37
2, 486460, Note_on_c, 1, 60, 0
2, 486480, Note_on_c, 1, 60, 37
2, 486600, Note_on_c, 1, 77, 52
2, 486600, Note_on_c, 1, 80, 52
2, 486700, Note_on_c, 1, 60, 0
2, 486720, Note_on_c, 1, 80, 0
2, 486720, Note_on_c, 1, 77, 0
2, 486720, Note_on_c, 1, 80, 75
2, 486720, Note_on_c, 1, 77, 75
2, 486720, Note_on_c, 1, 85, 75
2, 486960, Note_on_c, 1, 60, 38
2, 487180, Note_on_c, 1, 60, 0
2, 487200, Note_on_c, 1, 60, 38
2, 487420, Note_on_c, 1, 60, 0
2, 487440, Note_on_c, 1, 53, 40
2, 487440, Note_on_c, 1, 56, 40
2, 487680, Note_on_c, 1, 56, 0
2, 487680, Note_on_c, 1, 53, 0
2, 487680, Note_on_c, 1, 60, 37
2, 487900, Note_on_c, 1, 60, 0
2, 487920, Note_on_c, 1, 60, 37
2, 488140, Note_on_c, 1, 60, 0
2, 488160, Note_on_c, 1, 56, 37
2, 488160, Note_on_c, 1, 53, 37
2, 488400, Note_on_c, 1, 53, 0
2, 488400, Note_on_c, 1, 56, 0
2, 488400, Note_on_c, 1, 60, 37
2, 488620, Note_on_c, 1, 60, 0
2, 488640, Note_on_c, 1, 60, 37
2, 488860, Note_on_c, 1, 60, 0
2, 488880, Note_on_c, 1, 56, 36
2, 488880, Note_on_c, 1, 53, 36
2, 489120, Note_on_c, 1, 53, 0
2, 489120, Note_on_c, 1, 56, 0
2, 489120, Note_on_c, 1, 60, 37
2, 489340, Note_on_c, 1, 60, 0
2, 489360, Note_on_c, 1, 60, 37
2, 489580, Note_on_c, 1, 60, 0
2, 489600, Note_on_c, 1, 80, 0
2, 489600, Note_on_c, 1, 77, 0
2, 489600, Note_on_c, 1, 85, 0
2, 489600, Note_on_c, 1, 79, 61
2, 489600, Note_on_c, 1, 76, 61
2, 489600, Note_on_c, 1, 84, 61
2, 489840, Note_on_c, 1, 60, 38
2, 490060, Note_on_c, 1, 60, 0
2, 490080, Note_on_c, 1, 79, 0
2, 490080, Note_on_c, 1, 76, 0
2, 490080, Note_on_c, 1, 84, 0
2, 490080, Note_on_c, 1, 60, 38
2, 490300, Note_on_c, 1, 60, 0
2, 490320, Note_on_c, 1, 52, 40
2, 490320, Note_on_c, 1, 55, 40
2, 490560, Note_on_c, 1, 55, 0
2, 490560, Note_on_c, 1, 52, 0
2, 490560, Note_on_c, 1, 60, 37
2, 490780, Note_on_c, 1, 60, 0
2, 490800, Note_on_c, 1, 60, 37
2, 491020, Note_on_c, 1, 60, 0
2, 491040, Note_on_c, 1, 66, 52
2, 491040, Note_on_c, 1, 63, 52
2, 491040, Note_on_c, 1, 72, 52
2, 491280, Note_on_c, 1, 60, 37
2, 491500, Note_on_c, 1, 60, 0
2, 491520, Note_on_c, 1, 60, 37
2, 491740, Note_on_c, 1, 60, 0
2, 491760, Note_on_c, 1, 54, 36
2, 491760, Note_on_c, 1, 51, 36
2, 492000, Note_on_c, 1, 51, 0
2, 492000, Note_on_c, 1, 54, 0
2, 492000, Note_on_c, 1, 60, 37
2, 492220, Note_on_c, 1, 60, 0
2, 492240, Note_on_c, 1, 60, 37
2, 492460, Note_on_c, 1, 60, 0
2, 492480, Note_on_c, 1, 66, 0
2, 492480, Note_on_c, 1, 63, 0
2, 492480, Note_on_c, 1, 72, 0
2, 492480, Note_on_c, 1, 65, 52
2, 492480, Note_on_c, 1, 71, 52
2, 492480, Note_on_c, 1, 62, 52
2, 492720, Note_on_c, 1, 60, 37
2, 492940, Note_on_c, 1, 60, 0
2, 492960, Note_on_c, 1, 65, 0
2, 492960, Note_on_c, 1, 71, 0
2, 492960, Note_on_c, 1, 62, 0
2, 492960, Note_on_c, 1, 60, 36
2, 493180, Note_on_c, 1, 60, 0
2, 493200, Note_on_c, 1, 50, 38
2, 493200, Note_on_c, 1, 53, 38
2, 493440, Note_on_c, 1, 53, 0
2, 493440, Note_on_c, 1, 50, 0
2, 493440, Note_on_c, 1, 60, 34
2, 493660, Note_on_c, 1, 60, 0
2, 493680, Note_on_c, 1, 60, 34
2, 493900, Note_on_c, 1, 60, 0
2, 493920, Note_on_c, 1, 61, 46
2, 493920, Note_on_c, 1, 70, 46
2, 493920, Note_on_c, 1, 65, 46
2, 494160, Note_on_c, 1, 60, 32
2, 494380, Note_on_c, 1, 60, 0
2, 494400, Note_on_c, 1, 61, 0
2, 494400, Note_on_c, 1, 70, 0
2, 494400, Note_on_c, 1, 65, 0
2, 494400, Note_on_c, 1, 60, 32
2, 494620, Note_on_c, 1, 60, 0
2, 494640, Note_on_c, 1, 53, 30
2, 494640, Note_on_c, 1, 49, 30
2, 494880, Note_on_c, 1, 49, 0
2, 494880, Note_on_c, 1, 53, 0
2, 494880, Note_on_c, 1, 60, 31
2, 495100, Note_on_c, 1, 60, 0
2, 495120, Note_on_c, 1, 60, 30
2, 495340, Note_on_c, 1, 60, 0
2, 495360, Note_on_c, 1, 60, 41
2, 495360, Note_on_c, 1, 68, 41
2, 495360, Note_on_c, 1, 65, 41
2, 495600, Note_on_c, 1, 48, 25
2, 495820, Note_on_c, 1, 48, 0
2, 495840, Note_on_c, 1, 48, 26
2, 496060, Note_on_c, 1, 48, 0
2, 496080, Note_on_c, 1, 65, 0
2, 496080, Note_on_c, 1, 68, 0
2, 496080, Note_on_c, 1, 60, 0
2, 496080, Note_on_c, 1, 48, 28
2, 496300, Note_on_c, 1, 48, 0
2, 496320, Note_on_c, 1, 48, 26
2, 496540, Note_on_c, 1, 48, 0
2, 496560, Note_on_c, 1, 48, 26
2, 496780, Note_on_c, 1, 48, 0
2, 496800, Note_on_c, 1, 48, 28
2, 497020, Note_on_c, 1, 48, 0
2, 497040, Note_on_c, 1, 48, 26
2, 497260, Note_on_c, 1, 48, 0
2, 497280, Note_on_c, 1, 48, 26
2, 497500, Note_on_c, 1, 48, 0
2, 497520, Note_on_c, 1, 48, 28
2, 497740, Note_on_c, 1, 48, 0
2, 497760, Note_on_c, 1, 48, 26
2, 497980, Note_on_c, 1, 48, 0
2, 498000, Note_on_c, 1, 48, 27
2, 498220, Note_on_c, 1, 48, 0
2, 498240, Note_on_c, 1, 55, 41
2, 498240, Note_on_c, 1, 46, 41
2, 498240, Note_on_c, 1, 52, 41
2, 498240, Note_on_c, 1, 48, 41
2, 498480, Note_on_c, 1, 36, 25
2, 498720, Note_on_c, 1, 36, 0
2, 498720, Note_on_c, 1, 36, 26
2, 498960, Note_on_c, 1, 36, 0
2, 498960, Note_on_c, 1, 48, 0
2, 498960, Note_on_c, 1, 55, 0
2, 498960, Note_on_c, 1, 46, 0
2, 498960, Note_on_c, 1, 52, 0
2, 498960, Note_on_c, 1, 36, 28
2, 499200, Note_on_c, 1, 36, 0
2, 499200, Note_on_c, 1, 36, 26
2, 499440, Note_on_c, 1, 36, 0
2, 499440, Note_on_c, 1, 36, 26
2, 499680, Note_on_c, 1, 36, 0
2, 499680, Note_on_c, 1, 36, 28
2, 499920, Note_on_c, 1, 36, 0
2, 499920, Note_on_c, 1, 36, 26
2, 500160, Note_on_c, 1, 36, 0
2, 500160, Note_on_c, 1, 36, 26
2, 500400, Note_on_c, 1, 36, 0
2, 500400, Note_on_c, 1, 36, 28
2, 500640, Note_on_c, 1, 36, 0
2, 500640, Note_on_c, 1, 36, 26
2, 500880, Note_on_c, 1, 36, 0
2, 500880, Note_on_c, 1, 36, 27
2, 501120, Note_on_c, 1, 36, 0
2, 501120, Note_on_c, 1, 29, 28
2, 501360, Note_on_c, 1, 29, 0
2, 501360, Note_on_c, 1, 33, 20
2, 501360, Note_on_c, 1, 36, 20
2, 501360, Note_on_c, 1, 41, 25
2, 501600, Note_on_c, 1, 41, 0
2, 501600, Note_on_c, 1, 36, 0
2, 501600, Note_on_c, 1, 33, 0
2, 501600, Note_on_c, 1, 29, 26
2, 501840, Note_on_c, 1, 29, 0
2, 501840, Note_on_c, 1, 33, 22
2, 501840, Note_on_c, 1, 36, 22
2, 501840, Note_on_c, 1, 41, 28
2, 502080, Note_on_c, 1, 41, 0
2, 502080, Note_on_c, 1, 36, 0
2, 502080, Note_on_c, 1, 33, 0
2, 502080, Note_on_c, 1, 29, 26
2, 502320, Note_on_c, 1, 29, 0
2, 502320, Note_on_c, 1, 33, 20
2, 502320, Note_on_c, 1, 36, 20
2, 502320, Note_on_c, 1, 41, 26
2, 502560, Note_on_c, 1, 41, 0
2, 502560, Note_on_c, 1, 36, 0
2, 502560, Note_on_c, 1, 33, 0
2, 502560, Note_on_c, 1, 29, 28
2, 502800, Note_on_c, 1, 29, 0
2, 502800, Note_on_c, 1, 33, 20
2, 502800, Note_on_c, 1, 36, 20
2, 502800, Note_on_c, 1, 41, 26
2, 503040, Note_on_c, 1, 41, 0
2, 503040, Note_on_c, 1, 36, 0
2, 503040, Note_on_c, 1, 33, 0
2, 503040, Note_on_c, 1, 29, 26
2, 503280, Note_on_c, 1, 29, 0
2, 503280, Note_on_c, 1, 57, 44
2, 503280, Note_on_c, 1, 45, 40
2, 503280, Note_on_c, 1, 36, 22
2, 503280, Note_on_c, 1, 33, 22
2, 503280, Note_on_c, 1, 41, 28
2, 503520, Note_on_c, 1, 41, 0
2, 503520, Note_on_c, 1, 36, 0
2, 503520, Note_on_c, 1, 33, 0
2, 503520, Note_on_c, 1, 29, 26
2, 503760, Note_on_c, 1, 29, 0
2, 503760, Note_on_c, 1, 41, 27
2, 503760, Note_on_c, 1, 33, 21
2, 503760, Note_on_c, 1, 36, 21
2, 503880, Note_on_c, 1, 45, 0
2, 503880, Note_on_c, 1, 57, 0
2, 503880, Note_on_c, 1, 60, 40
2, 503880, Note_on_c, 1, 48, 37
2, 504000, Note_on_c, 1, 48, 0
2, 504000, Note_on_c, 1, 33, 0
2, 504000, Note_on_c, 1, 36, 0
2, 504000, Note_on_c, 1, 41, 0
2, 504000, Note_on_c, 1, 60, 0
2, 504000, Note_on_c, 1, 53, 38
2, 504000, Note_on_c, 1, 65, 41
2, 504000, Note_on_c, 1, 29, 28
2, 504240, Note_on_c, 1, 29, 0
2, 504240, Note_on_c, 1, 33, 20
2, 504240, Note_on_c, 1, 36, 20
2, 504240, Note_on_c, 1, 41, 25
2, 504480, Note_on_c, 1, 41, 0
2, 504480, Note_on_c, 1, 33, 0
2, 504480, Note_on_c, 1, 36, 0
2, 504480, Note_on_c, 1, 29, 26
2, 504720, Note_on_c, 1, 29, 0
2, 504720, Note_on_c, 1, 65, 0
2, 504720, Note_on_c, 1, 53, 0
2, 504720, Note_on_c, 1, 57, 40
2, 504720, Note_on_c, 1, 69, 44
2, 504720, Note_on_c, 1, 41, 28
2, 504720, Note_on_c, 1, 36, 22
2, 504720, Note_on_c, 1, 33, 22
2, 504960, Note_on_c, 1, 33, 0
2, 504960, Note_on_c, 1, 41, 0
2, 504960, Note_on_c, 1, 36, 0
2, 504960, Note_on_c, 1, 29, 26
2, 505200, Note_on_c, 1, 29, 0
2, 505200, Note_on_c, 1, 36, 20
2, 505200, Note_on_c, 1, 41, 26
2, 505200, Note_on_c, 1, 33, 20
2, 505320, Note_on_c, 1, 69, 0
2, 505320, Note_on_c, 1, 57, 0
2, 505320, Note_on_c, 1, 65, 39
2, 505320, Note_on_c, 1, 53, 36
2, 505440, Note_on_c, 1, 53, 0
2, 505440, Note_on_c, 1, 41, 0
2, 505440, Note_on_c, 1, 33, 0
2, 505440, Note_on_c, 1, 36, 0
2, 505440, Note_on_c, 1, 65, 0
2, 505440, Note_on_c, 1, 64, 41
2, 505440, Note_on_c, 1, 52, 38
2, 505440, Note_on_c, 1, 31, 28
2, 505680, Note_on_c, 1, 31, 0
2, 505680, Note_on_c, 1, 34, 20
2, 505680, Note_on_c, 1, 40, 20
2, 505680, Note_on_c, 1, 43, 26
2, 505920, Note_on_c, 1, 43, 0
2, 505920, Note_on_c, 1, 34, 0
2, 505920, Note_on_c, 1, 40, 0
2, 505920, Note_on_c, 1, 31, 26
2, 506160, Note_on_c, 1, 31, 0
2, 506160, Note_on_c, 1, 52, 0
2, 506160, Note_on_c, 1, 64, 0
2, 506160, Note_on_c, 1, 67, 44
2, 506160, Note_on_c, 1, 55, 40
2, 506160, Note_on_c, 1, 34, 22
2, 506160, Note_on_c, 1, 43, 28
2, 506160, Note_on_c, 1, 40, 22
2, 506400, Note_on_c, 1, 40, 0
2, 506400, Note_on_c, 1, 34, 0
2, 506400, Note_on_c, 1, 43, 0
2, 506400, Note_on_c, 1, 31, 26
2, 506640, Note_on_c, 1, 31, 0
2, 506640, Note_on_c, 1, 40, 21
2, 506640, Note_on_c, 1, 43, 27
2, 506640, Note_on_c, 1, 34, 21
2, 506760, Note_on_c, 1, 55, 0
2, 506760, Note_on_c, 1, 67, 0
2, 506760, Note_on_c, 1, 64, 39
2, 506760, Note_on_c, 1, 52, 36
2, 506880, Note_on_c, 1, 52, 0
2, 506880, Note_on_c, 1, 43, 0
2, 506880, Note_on_c, 1, 34, 0
2, 506880, Note_on_c, 1, 40, 0
2, 506880, Note_on_c, 1, 64, 0
2, 506880, Note_on_c, 1, 53, 38
2, 506880, Note_on_c, 1, 65, 41
2, 506880, Note_on_c, 1, 33, 28
2, 507120, Note_on_c, 1, 33, 0
2, 507120, Note_on_c, 1, 41, 20
2, 507120, Note_on_c, 1, 45, 25
2, 507120, Note_on_c, 1, 36, 20
2, 507360, Note_on_c, 1, 36, 0
2, 507360, Note_on_c, 1, 41, 0
2, 507360, Note_on_c, 1, 45, 0
2, 507360, Note_on_c, 1, 33, 26
2, 507600, Note_on_c, 1, 33, 0
2, 507600, Note_on_c, 1, 65, 0
2, 507600, Note_on_c, 1, 53, 0
2, 507600, Note_on_c, 1, 60, 40
2, 507600, Note_on_c, 1, 48, 40
2, 507600, Note_on_c, 1, 45, 28
2, 507600, Note_on_c, 1, 41, 22
2, 507600, Note_on_c, 1, 36, 22
2, 507840, Note_on_c, 1, 36, 0
2, 507840, Note_on_c, 1, 45, 0
2, 507840, Note_on_c, 1, 41, 0
2, 507840, Note_on_c, 1, 33, 26
2, 508080, Note_on_c, 1, 33, 0
2, 508080, Note_on_c, 1, 36, 20
2, 508080, Note_on_c, 1, 45, 26
2, 508080, Note_on_c, 1, 41, 20
2, 508320, Note_on_c, 1, 41, 0
2, 508320, Note_on_c, 1, 36, 0
2, 508320, Note_on_c, 1, 45, 0
2, 508320, Note_on_c, 1, 33, 28
2, 508560, Note_on_c, 1, 33, 0
2, 508560, Note_on_c, 1, 45, 26
2, 508560, Note_on_c, 1, 36, 20
2, 508560, Note_on_c, 1, 41, 20
2, 508800, Note_on_c, 1, 41, 0
2, 508800, Note_on_c, 1, 45, 0
2, 508800, Note_on_c, 1, 36, 0
2, 508800, Note_on_c, 1, 33, 26
2, 509040, Note_on_c, 1, 33, 0
2, 509040, Note_on_c, 1, 48, 0
2, 509040, Note_on_c, 1, 60, 0
2, 509040, Note_on_c, 1, 62, 44
2, 509040, Note_on_c, 1, 41, 28
2, 509040, Note_on_c, 1, 50, 40
2, 509280, Note_on_c, 1, 41, 0
2, 509280, Note_on_c, 1, 34, 26
2, 509520, Note_on_c, 1, 34, 0
2, 509520, Note_on_c, 1, 41, 27
2, 509640, Note_on_c, 1, 50, 0
2, 509640, Note_on_c, 1, 62, 0
2, 509640, Note_on_c, 1, 58, 40
2, 509640, Note_on_c, 1, 46, 37
2, 509760, Note_on_c, 1, 46, 0
2, 509760, Note_on_c, 1, 58, 0
2, 509760, Note_on_c, 1, 41, 0
2, 509760, Note_on_c, 1, 57, 44
2, 509760, Note_on_c, 1, 45, 40
2, 509760, Note_on_c, 1, 36, 28
2, 510000, Note_on_c, 1, 36, 0
2, 510000, Note_on_c, 1, 41, 25
2, 510240, Note_on_c, 1, 41, 0
2, 510240, Note_on_c, 1, 36, 26
2, 510480, Note_on_c, 1, 36, 0
2, 510480, Note_on_c, 1, 45, 0
2, 510480, Note_on_c, 1, 57, 0
2, 510480, Note_on_c, 1, 60, 44
2, 510480, Note_on_c, 1, 41, 28
2, 510480, Note_on_c, 1, 48, 40
2, 510720, Note_on_c, 1, 41, 0
2, 510720, Note_on_c, 1, 36, 25
2, 510960, Note_on_c, 1, 36, 0
2, 510960, Note_on_c, 1, 41, 25
2, 511080, Note_on_c, 1, 48, 0
2, 511080, Note_on_c, 1, 60, 0
2, 511080, Note_on_c, 1, 57, 39
2, 511080, Note_on_c, 1, 45, 36
2, 511200, Note_on_c, 1, 45, 0
2, 511200, Note_on_c, 1, 57, 0
2, 511200, Note_on_c, 1, 41, 0
2, 511200, Note_on_c, 1, 55, 44
2, 511200, Note_on_c, 1, 43, 40
2, 511200, Note_on_c, 1, 36, 28
2, 511440, Note_on_c, 1, 36, 0
2, 511440, Note_on_c, 1, 40, 25
2, 511680, Note_on_c, 1, 40, 0
2, 511680, Note_on_c, 1, 36, 25
2, 511920, Note_on_c, 1, 36, 0
2, 511920, Note_on_c, 1, 43, 0
2, 511920, Note_on_c, 1, 55, 0
2, 511920, Note_on_c, 1, 60, 44
2, 511920, Note_on_c, 1, 48, 40
2, 511920, Note_on_c, 1, 40, 28
2, 512160, Note_on_c, 1, 40, 0
2, 512160, Note_on_c, 1, 36, 25
2, 512400, Note_on_c, 1, 36, 0
2, 512400, Note_on_c, 1, 40, 25
2, 512520, Note_on_c, 1, 48, 0
2, 512520, Note_on_c, 1, 60, 0
2, 512520, Note_on_c, 1, 58, 39
2, 512520, Note_on_c, 1, 46, 36
2, 512640, Note_on_c, 1, 46, 0
2, 512640, Note_on_c, 1, 58, 0
2, 512640, Note_on_c, 1, 40, 0
2, 512640, Note_on_c, 1, 57, 42
2, 512640, Note_on_c, 1, 41, 28
2, 512880, Note_on_c, 1, 41, 0
2, 512880, Note_on_c, 1, 45, 20
2, 512880, Note_on_c, 1, 48, 20
2, 512880, Note_on_c, 1, 53, 25
2, 513120, Note_on_c, 1, 53, 0
2, 513120, Note_on_c, 1, 48, 0
2, 513120, Note_on_c, 1, 45, 0
2, 513120, Note_on_c, 1, 41, 27
2, 513360, Note_on_c, 1, 41, 0
2, 513360, Note_on_c, 1, 57, 0
2, 513360, Note_on_c, 1, 60, 42
2, 513360, Note_on_c, 1, 45, 23
2, 513360, Note_on_c, 1, 48, 23
2, 513360, Note_on_c, 1, 53, 29
2, 513600, Note_on_c, 1, 53, 0
2, 513600, Note_on_c, 1, 48, 0
2, 513600, Note_on_c, 1, 45, 0
2, 513600, Note_on_c, 1, 41, 28
2, 513840, Note_on_c, 1, 41, 0
2, 513840, Note_on_c, 1, 45, 22
2, 513840, Note_on_c, 1, 48, 22
2, 513840, Note_on_c, 1, 53, 29
2, 514080, Note_on_c, 1, 53, 0
2, 514080, Note_on_c, 1, 48, 0
2, 514080, Note_on_c, 1, 45, 0
2, 514080, Note_on_c, 1, 41, 32
2, 514320, Note_on_c, 1, 41, 0
2, 514320, Note_on_c, 1, 45, 24
2, 514320, Note_on_c, 1, 48, 24
2, 514320, Note_on_c, 1, 53, 31
2, 514560, Note_on_c, 1, 53, 0
2, 514560, Note_on_c, 1, 48, 0
2, 514560, Note_on_c, 1, 45, 0
2, 514560, Note_on_c, 1, 41, 31
2, 514800, Note_on_c, 1, 41, 0
2, 514800, Note_on_c, 1, 60, 0
2, 514800, Note_on_c, 1, 69, 55
2, 514800, Note_on_c, 1, 57, 51
2, 514800, Note_on_c, 1, 48, 27
2, 514800, Note_on_c, 1, 45, 27
2, 514800, Note_on_c, 1, 53, 35
2, 515040, Note_on_c, 1, 53, 0
2, 515040, Note_on_c, 1, 48, 0
2, 515040, Note_on_c, 1, 45, 0
2, 515040, Note_on_c, 1, 41, 33
2, 515280, Note_on_c, 1, 41, 0
2, 515280, Note_on_c, 1, 53, 34
2, 515280, Note_on_c, 1, 45, 27
2, 515280, Note_on_c, 1, 48, 27
2, 515400, Note_on_c, 1, 57, 0
2, 515400, Note_on_c, 1, 69, 0
2, 515400, Note_on_c, 1, 72, 53
2, 515400, Note_on_c, 1, 60, 49
2, 515520, Note_on_c, 1, 60, 0
2, 515520, Note_on_c, 1, 45, 0
2, 515520, Note_on_c, 1, 48, 0
2, 515520, Note_on_c, 1, 53, 0
2, 515520, Note_on_c, 1, 72, 0
2, 515520, Note_on_c, 1, 65, 51
2, 515520, Note_on_c, 1, 77, 56
2, 515520, Note_on_c, 1, 41, 37
2, 515760, Note_on_c, 1, 41, 0
2, 515760, Note_on_c, 1, 45, 27
2, 515760, Note_on_c, 1, 48, 27
2, 515760, Note_on_c, 1, 53, 34
2, 516000, Note_on_c, 1, 53, 0
2, 516000, Note_on_c, 1, 45, 0
2, 516000, Note_on_c, 1, 48, 0
2, 516000, Note_on_c, 1, 41, 36
2, 516240, Note_on_c, 1, 41, 0
2, 516240, Note_on_c, 1, 77, 0
2, 516240, Note_on_c, 1, 65, 0
2, 516240, Note_on_c, 1, 81, 62
2, 516240, Note_on_c, 1, 69, 57
2, 516240, Note_on_c, 1, 45, 30
2, 516240, Note_on_c, 1, 48, 30
2, 516240, Note_on_c, 1, 53, 39
2, 516480, Note_on_c, 1, 53, 0
2, 516480, Note_on_c, 1, 45, 0
2, 516480, Note_on_c, 1, 48, 0
2, 516480, Note_on_c, 1, 41, 37
2, 516720, Note_on_c, 1, 41, 0
2, 516720, Note_on_c, 1, 48, 29
2, 516720, Note_on_c, 1, 53, 38
2, 516720, Note_on_c, 1, 45, 29
2, 516840, Note_on_c, 1, 69, 0
2, 516840, Note_on_c, 1, 81, 0
2, 516840, Note_on_c, 1, 77, 58
2, 516840, Note_on_c, 1, 65, 53
2, 516960, Note_on_c, 1, 65, 0
2, 516960, Note_on_c, 1, 53, 0
2, 516960, Note_on_c, 1, 45, 0
2, 516960, Note_on_c, 1, 48, 0
2, 516960, Note_on_c, 1, 77, 0
2, 516960, Note_on_c, 1, 76, 61
2, 516960, Note_on_c, 1, 64, 57
2, 516960, Note_on_c, 1, 43, 40
2, 517200, Note_on_c, 1, 43, 0
2, 517200, Note_on_c, 1, 46, 29
2, 517200, Note_on_c, 1, 48, 29
2, 517200, Note_on_c, 1, 55, 38
2, 517440, Note_on_c, 1, 55, 0
2, 517440, Note_on_c, 1, 46, 0
2, 517440, Note_on_c, 1, 48, 0
2, 517440, Note_on_c, 1, 43, 39
2, 517680, Note_on_c, 1, 43, 0
2, 517680, Note_on_c, 1, 64, 0
2, 517680, Note_on_c, 1, 76, 0
2, 517680, Note_on_c, 1, 79, 68
2, 517680, Note_on_c, 1, 67, 62
2, 517680, Note_on_c, 1, 46, 34
2, 517680, Note_on_c, 1, 55, 42
2, 517680, Note_on_c, 1, 48, 34
2, 517920, Note_on_c, 1, 48, 0
2, 517920, Note_on_c, 1, 46, 0
2, 517920, Note_on_c, 1, 55, 0
2, 517920, Note_on_c, 1, 43, 40
2, 518160, Note_on_c, 1, 43, 0
2, 518160, Note_on_c, 1, 48, 33
2, 518160, Note_on_c, 1, 55, 42
2, 518160, Note_on_c, 1, 46, 33
2, 518280, Note_on_c, 1, 67, 0
2, 518280, Note_on_c, 1, 79, 0
2, 518280, Note_on_c, 1, 76, 63
2, 518280, Note_on_c, 1, 64, 58
2, 518400, Note_on_c, 1, 64, 0
2, 518400, Note_on_c, 1, 55, 0
2, 518400, Note_on_c, 1, 46, 0
2, 518400, Note_on_c, 1, 48, 0
2, 518400, Note_on_c, 1, 76, 0
2, 518400, Note_on_c, 1, 77, 57
2, 518400, Note_on_c, 1, 65, 51
2, 518400, Note_on_c, 1, 57, 36
2, 518400, Note_on_c, 1, 48, 28
2, 518400, Note_on_c, 1, 45, 28
2, 518400, Note_on_c, 1, 53, 36
2, 519120, Note_on_c, 1, 65, 0
2, 519120, Note_on_c, 1, 77, 0
2, 519120, Note_on_c, 1, 60, 48
2, 519120, Note_on_c, 1, 72, 52
2, 521280, Note_on_c, 1, 72, 0
2, 521280, Note_on_c, 1, 53, 0
2, 521280, Note_on_c, 1, 57, 0
2, 521280, Note_on_c, 1, 48, 0
2, 521280, Note_on_c, 1, 60, 0
2, 521280, Note_on_c, 1, 45, 0
2, 521280, Note_on_c, 1, 61, 72
2, 521280, Note_on_c, 1, 73, 85
2, 521280, Note_on_c, 1, 49, 50
2, 521280, Note_on_c, 1, 53, 59
2, 521280, Note_on_c, 1, 46, 50
2, 522000, Note_on_c, 1, 53, 0
2, 522000, Note_on_c, 1, 73, 0
2, 522000, Note_on_c, 1, 61, 0
2, 522000, Note_on_c, 1, 58, 69
2, 522000, Note_on_c, 1, 70, 81
2, 522000, Note_on_c, 1, 54, 57
2, 524160, Note_on_c, 1, 54, 0
2, 524160, Note_on_c, 1, 58, 0
2, 524160, Note_on_c, 1, 46, 0
2, 524160, Note_on_c, 1, 49, 0
2, 524160, Note_on_c, 1, 70, 0
2, 524160, Note_on_c, 1, 68, 58
2, 524160, Note_on_c, 1, 48, 28
2, 524160, Note_on_c, 1, 56, 36
2, 524160, Note_on_c, 1, 53, 36
2, 526320, Note_on_c, 1, 68, 0
2, 526320, Note_on_c, 1, 67, 51
2, 526800, Note_on_c, 1, 67, 0
2, 526800, Note_on_c, 1, 65, 49
2, 527040, Note_on_c, 1, 65, 0
2, 527040, Note_on_c, 1, 48, 0
2, 527040, Note_on_c, 1, 56, 0
2, 527040, Note_on_c, 1, 53, 0
2, 527040, Note_on_c, 1, 67, 46
2, 527040, Note_on_c, 1, 48, 25
2, 527040, Note_on_c, 1, 52, 31
2, 527040, Note_on_c, 1, 58, 31
2, 527160, Note_on_c, 1, 67, 0
2, 527160, Note_on_c, 1, 68, 39
2, 527280, Note_on_c, 1, 68, 0
2, 527280, Note_on_c, 1, 67, 46
2, 527400, Note_on_c, 1, 67, 0
2, 527400, Note_on_c, 1, 68, 40
2, 527520, Note_on_c, 1, 68, 0
2, 527520, Note_on_c, 1, 67, 47
2, 527640, Note_on_c, 1, 67, 0
2, 527640, Note_on_c, 1, 68, 40
2, 527760, Note_on_c, 1, 68, 0
2, 527760, Note_on_c, 1, 67, 48
2, 527880, Note_on_c, 1, 67, 0
2, 527880, Note_on_c, 1, 68, 41
2, 528000, Note_on_c, 1, 68, 0
2, 528000, Note_on_c, 1, 67, 49
2, 528120, Note_on_c, 1, 67, 0
2, 528120, Note_on_c, 1, 68, 42
2, 528240, Note_on_c, 1, 68, 0
2, 528240, Note_on_c, 1, 67, 50
2, 528360, Note_on_c, 1, 67, 0
2, 528360, Note_on_c, 1, 68, 42
2, 528480, Note_on_c, 1, 68, 0
2, 528480, Note_on_c, 1, 67, 51
2, 528600, Note_on_c, 1, 67, 0
2, 528600, Note_on_c, 1, 68, 44
2, 528720, Note_on_c, 1, 68, 0
2, 528720, Note_on_c, 1, 67, 51
2, 528840, Note_on_c, 1, 67, 0
2, 528840, Note_on_c, 1, 68, 45
2, 528960, Note_on_c, 1, 68, 0
2, 528960, Note_on_c, 1, 67, 52
2, 529080, Note_on_c, 1, 67, 0
2, 529080, Note_on_c, 1, 68, 46
2, 529200, Note_on_c, 1, 68, 0
2, 529200, Note_on_c, 1, 67, 53
2, 529320, Note_on_c, 1, 67, 0
2, 529320, Note_on_c, 1, 68, 48
2, 529440, Note_on_c, 1, 68, 0
2, 529440, Note_on_c, 1, 67, 55
2, 529560, Note_on_c, 1, 67, 0
2, 529560, Note_on_c, 1, 68, 48
2, 529680, Note_on_c, 1, 68, 0
2, 529680, Note_on_c, 1, 67, 56
2, 529800, Note_on_c, 1, 67, 0
2, 529800, Note_on_c, 1, 68, 48
2, 529920, Note_on_c, 1, 68, 0
2, 529920, Note_on_c, 1, 58, 0
2, 529920, Note_on_c, 1, 52, 0
2, 529920, Note_on_c, 1, 48, 0
2, 529920, Note_on_c, 1, 73, 46
2, 530040, Note_on_c, 1, 73, 0
2, 530040, Note_on_c, 1, 72, 39
2, 530160, Note_on_c, 1, 72, 0
2, 530160, Note_on_c, 1, 73, 46
2, 530280, Note_on_c, 1, 73, 0
2, 530280, Note_on_c, 1, 72, 40
2, 530400, Note_on_c, 1, 72, 0
2, 530400, Note_on_c, 1, 73, 48
2, 530520, Note_on_c, 1, 73, 0
2, 530520, Note_on_c, 1, 72, 41
2, 530640, Note_on_c, 1, 72, 0
2, 530640, Note_on_c, 1, 73, 50
2, 530760, Note_on_c, 1, 73, 0
2, 530760, Note_on_c, 1, 72, 44
2, 530880, Note_on_c, 1, 72, 0
2, 530880, Note_on_c, 1, 73, 51
2, 531000, Note_on_c, 1, 73, 0
2, 531000, Note_on_c, 1, 72, 45
2, 531120, Note_on_c, 1, 72, 0
2, 531120, Note_on_c, 1, 73, 53
2, 531240, Note_on_c, 1, 73, 0
2, 531240, Note_on_c, 1, 72, 47
2, 531360, Note_on_c, 1, 72, 0
2, 531360, Note_on_c, 1, 73, 56
2, 531480, Note_on_c, 1, 73, 0
2, 531480, Note_on_c, 1, 72, 48
2, 531600, Note_on_c, 1, 72, 0
2, 531600, Note_on_c, 1, 73, 56
2, 531720, Note_on_c, 1, 73, 0
2, 531720, Note_on_c, 1, 72, 47
2, 531840, Note_on_c, 1, 72, 0
2, 531840, Note_on_c, 1, 73, 56
2, 531960, Note_on_c, 1, 73, 0
2, 531960, Note_on_c, 1, 72, 48
2, 532080, Note_on_c, 1, 72, 0
2, 532080, Note_on_c, 1, 73, 56
2, 532200, Note_on_c, 1, 73, 0
2, 532200, Note_on_c, 1, 72, 49
2, 532320, Note_on_c, 1, 72, 0
2, 532320, Note_on_c, 1, 73, 56
2, 532440, Note_on_c, 1, 73, 0
2, 532440, Note_on_c, 1, 72, 49
2, 532560, Note_on_c, 1, 72, 0
2, 532560, Note_on_c, 1, 71, 56
2, 532680, Note_on_c, 1, 71, 0
2, 532680, Note_on_c, 1, 72, 48
2, 532800, Note_on_c, 1, 72, 0
2, 532800, Note_on_c, 1, 85, 49
2, 532920, Note_on_c, 1, 85, 0
2, 532920, Note_on_c, 1, 84, 41
2, 533040, Note_on_c, 1, 84, 0
2, 533040, Note_on_c, 1, 85, 49
2, 533160, Note_on_c, 1, 85, 0
2, 533160, Note_on_c, 1, 84, 43
2, 533280, Note_on_c, 1, 84, 0
2, 533280, Note_on_c, 1, 85, 51
2, 533400, Note_on_c, 1, 85, 0
2, 533400, Note_on_c, 1, 84, 45
2, 533520, Note_on_c, 1, 84, 0
2, 533520, Note_on_c, 1, 85, 54
2, 533640, Note_on_c, 1, 85, 0
2, 533640, Note_on_c, 1, 84, 45
2, 533760, Note_on_c, 1, 84, 0
2, 533760, Note_on_c, 1, 85, 55
2, 533880, Note_on_c, 1, 85, 0
2, 533880, Note_on_c, 1, 84, 46
2, 534000, Note_on_c, 1, 84, 0
2, 534000, Note_on_c, 1, 85, 56
2, 534120, Note_on_c, 1, 85, 0
2, 534120, Note_on_c, 1, 84, 49
2, 534240, Note_on_c, 1, 84, 0
2, 534240, Note_on_c, 1, 85, 60
2, 534360, Note_on_c, 1, 85, 0
2, 534360, Note_on_c, 1, 84, 49
2, 534480, Note_on_c, 1, 84, 0
2, 534480, Note_on_c, 1, 85, 58
2, 534600, Note_on_c, 1, 85, 0
2, 534600, Note_on_c, 1, 84, 48
2, 534720, Note_on_c, 1, 84, 0
2, 534720, Note_on_c, 1, 85, 55
2, 534840, Note_on_c, 1, 85, 0
2, 534840, Note_on_c, 1, 84, 45
2, 534960, Note_on_c, 1, 84, 0
2, 534960, Note_on_c, 1, 85, 54
2, 535080, Note_on_c, 1, 85, 0
2, 535080, Note_on_c, 1, 84, 45
2, 535200, Note_on_c, 1, 84, 0
2, 535200, Note_on_c, 1, 85, 52
2, 535320, Note_on_c, 1, 85, 0
2, 535320, Note_on_c, 1, 84, 44
2, 535440, Note_on_c, 1, 84, 0
2, 535440, Note_on_c, 1, 83, 50
2, 535560, Note_on_c, 1, 83, 0
2, 535560, Note_on_c, 1, 84, 40
2, 535680, Note_on_c, 1, 84, 0
2, 535680, Note_on_c, 1, 85, 47
2, 535920, Note_on_c, 1, 85, 0
2, 535920, Note_on_c, 1, 84, 47
2, 536160, Note_on_c, 1, 84, 0
2, 536160, Note_on_c, 1, 82, 45
2, 536400, Note_on_c, 1, 82, 0
2, 536400, Note_on_c, 1, 80, 42
2, 536640, Note_on_c, 1, 80, 0
2, 536640, Note_on_c, 1, 79, 43
2, 536880, Note_on_c, 1, 79, 0
2, 536880, Note_on_c, 1, 78, 42
2, 537120, Note_on_c, 1, 78, 0
2, 537120, Note_on_c, 1, 77, 42
2, 537360, Note_on_c, 1, 77, 0
2, 537360, Note_on_c, 1, 76, 42
2, 537600, Note_on_c, 1, 76, 0
2, 537600, Note_on_c, 1, 75, 42
2, 537840, Note_on_c, 1, 75, 0
2, 537840, Note_on_c, 1, 73, 42
2, 538080, Note_on_c, 1, 73, 0
2, 538080, Note_on_c, 1, 72, 41
2, 538320, Note_on_c, 1, 72, 0
2, 538320, Note_on_c, 1, 70, 41
2, 538560, Note_on_c, 1, 70, 0
2, 538560, Note_on_c, 1, 68, 41
2, 538800, Note_on_c, 1, 68, 0
2, 538800, Note_on_c, 1, 67, 39
2, 539040, Note_on_c, 1, 67, 0
2, 539040, Note_on_c, 1, 66, 39
2, 539280, Note_on_c, 1, 66, 0
2, 539280, Note_on_c, 1, 65, 38
2, 539520, Note_on_c, 1, 65, 0
2, 539520, Note_on_c, 1, 64, 37
2, 539760, Note_on_c, 1, 64, 0
2, 539760, Note_on_c, 1, 63, 36
2, 540000, Note_on_c, 1, 63, 0
2, 540000, Note_on_c, 1, 61, 36
2, 540240, Note_on_c, 1, 61, 0
2, 540240, Note_on_c, 1, 60, 36
2, 540480, Note_on_c, 1, 60, 0
2, 540480, Note_on_c, 1, 58, 35
2, 540720, Note_on_c, 1, 58, 0
2, 540720, Note_on_c, 1, 56, 34
2, 540960, Note_on_c, 1, 56, 0
2, 540960, Note_on_c, 1, 55, 35
2, 541200, Note_on_c, 1, 55, 0
2, 541200, Note_on_c, 1, 54, 33
2, 541440, Note_on_c, 1, 54, 0
2, 541440, Note_on_c, 1, 53, 34
2, 541680, Note_on_c, 1, 53, 0
2, 541680, Note_on_c, 1, 52, 33
2, 541920, Note_on_c, 1, 52, 0
2, 541920, Note_on_c, 1, 51, 33
2, 542160, Note_on_c, 1, 51, 0
2, 542160, Note_on_c, 1, 49, 33
2, 542400, Note_on_c, 1, 49, 0
2, 542400, Note_on_c, 1, 48, 32
2, 542640, Note_on_c, 1, 48, 0
2, 542640, Note_on_c, 1, 46, 32
2, 542880, Note_on_c, 1, 46, 0
2, 542880, Note_on_c, 1, 44, 34
2, 543120, Note_on_c, 1, 44, 0
2, 543120, Note_on_c, 1, 43, 33
2, 543360, Note_on_c, 1, 43, 0
2, 543360, Note_on_c, 1, 42, 33
2, 543600, Note_on_c, 1, 42, 0
2, 543600, Note_on_c, 1, 41, 33
2, 543840, Note_on_c, 1, 41, 0
2, 543840, Note_on_c, 1, 40, 33
2, 544080, Note_on_c, 1, 40, 0
2, 544080, Note_on_c, 1, 39, 33
2, 544320, Note_on_c, 1, 39, 0
2, 544320, Note_on_c, 1, 37, 34
2, 544560, Note_on_c, 1, 37, 0
2, 544560, Note_on_c, 1, 36, 34
2, 544800, Note_on_c, 1, 36, 0
2, 544800, Note_on_c, 1, 34, 34
2, 545040, Note_on_c, 1, 34, 0
2, 545040, Note_on_c, 1, 32, 34
2, 545280, Note_on_c, 1, 32, 0
2, 545280, Note_on_c, 1, 31, 33
2, 545520, Note_on_c, 1, 31, 0
2, 545520, Note_on_c, 1, 32, 31
2, 545760, Note_on_c, 1, 32, 0
2, 545760, Note_on_c, 1, 34, 34
2, 546000, Note_on_c, 1, 34, 0
2, 546000, Note_on_c, 1, 36, 33
2, 546240, Note_on_c, 1, 36, 0
2, 546240, Note_on_c, 1, 35, 33
2, 546480, Note_on_c, 1, 35, 0
2, 546480, Note_on_c, 1, 36, 36
2, 546720, Note_on_c, 1, 36, 0
2, 546720, Note_on_c, 1, 35, 34
2, 546960, Note_on_c, 1, 35, 0
2, 546960, Note_on_c, 1, 36, 33
2, 547200, Note_on_c, 1, 36, 0
2, 547200, Note_on_c, 1, 53, 83
2, 547200, Note_on_c, 1, 29, 64
2, 547320, Note_on_c, 1, 29, 0
2, 547320, Note_on_c, 1, 53, 0
2, 547320, Note_on_c, 1, 48, 66
2, 547320, Note_on_c, 1, 36, 52
2, 547440, Note_on_c, 1, 36, 0
2, 547440, Note_on_c, 1, 48, 0
2, 547440, Note_on_c, 1, 44, 66
2, 547440, Note_on_c, 1, 41, 52
2, 547560, Note_on_c, 1, 41, 0
2, 547560, Note_on_c, 1, 44, 0
2, 547560, Note_on_c, 1, 48, 66
2, 547560, Note_on_c, 1, 36, 52
2, 547680, Note_on_c, 1, 36, 0
2, 547680, Note_on_c, 1, 48, 0
2, 547680, Note_on_c, 1, 53, 72
2, 547680, Note_on_c, 1, 29, 58
2, 547800, Note_on_c, 1, 29, 0
2, 547800, Note_on_c, 1, 53, 0
2, 547800, Note_on_c, 1, 48, 64
2, 547800, Note_on_c, 1, 36, 51
2, 547920, Note_on_c, 1, 36, 0
2, 547920, Note_on_c, 1, 48, 0
2, 547920, Note_on_c, 1, 56, 84
2, 547920, Note_on_c, 1, 29, 68
2, 548040, Note_on_c, 1, 29, 0
2, 548040, Note_on_c, 1, 56, 0
2, 548040, Note_on_c, 1, 48, 66
2, 548040, Note_on_c, 1, 36, 52
2, 548160, Note_on_c, 1, 36, 0
2, 548160, Note_on_c, 1, 48, 0
2, 548160, Note_on_c, 1, 55, 83
2, 548160, Note_on_c, 1, 29, 64
2, 548280, Note_on_c, 1, 29, 0
2, 548280, Note_on_c, 1, 55, 0
2, 548280, Note_on_c, 1, 48, 66
2, 548280, Note_on_c, 1, 36, 52
2, 548400, Note_on_c, 1, 36, 0
2, 548400, Note_on_c, 1, 48, 0
2, 548400, Note_on_c, 1, 53, 81
2, 548400, Note_on_c, 1, 29, 62
2, 548520, Note_on_c, 1, 29, 0
2, 548520, Note_on_c, 1, 53, 0
2, 548520, Note_on_c, 1, 48, 66
2, 548520, Note_on_c, 1, 36, 52
2, 548640, Note_on_c, 1, 36, 0
2, 548640, Note_on_c, 1, 48, 0
2, 548640, Note_on_c, 1, 53, 83
2, 548640, Note_on_c, 1, 29, 64
2, 548760, Note_on_c, 1, 29, 0
2, 548760, Note_on_c, 1, 53, 0
2, 548760, Note_on_c, 1, 48, 63
2, 548760, Note_on_c, 1, 36, 52
2, 548880, Note_on_c, 1, 36, 0
2, 548880, Note_on_c, 1, 48, 0
2, 548880, Note_on_c, 1, 44, 63
2, 548880, Note_on_c, 1, 41, 52
2, 549000, Note_on_c, 1, 41, 0
2, 549000, Note_on_c, 1, 44, 0
2, 549000, Note_on_c, 1, 48, 63
2, 549000, Note_on_c, 1, 36, 52
2, 549120, Note_on_c, 1, 36, 0
2, 549120, Note_on_c, 1, 48, 0
2, 549120, Note_on_c, 1, 53, 66
2, 549120, Note_on_c, 1, 29, 58
2, 549240, Note_on_c, 1, 29, 0
2, 549240, Note_on_c, 1, 53, 0
2, 549240, Note_on_c, 1, 48, 62
2, 549240, Note_on_c, 1, 36, 51
2, 549360, Note_on_c, 1, 36, 0
2, 549360, Note_on_c, 1, 48, 0
2, 549360, Note_on_c, 1, 56, 83
2, 549360, Note_on_c, 1, 29, 68
2, 549480, Note_on_c, 1, 29, 0
2, 549480, Note_on_c, 1, 56, 0
2, 549480, Note_on_c, 1, 48, 63
2, 549480, Note_on_c, 1, 36, 52
2, 549600, Note_on_c, 1, 36, 0
2, 549600, Note_on_c, 1, 48, 0
2, 549600, Note_on_c, 1, 55, 80
2, 549600, Note_on_c, 1, 29, 64
2, 549720, Note_on_c, 1, 29, 0
2, 549720, Note_on_c, 1, 55, 0
2, 549720, Note_on_c, 1, 48, 66
2, 549720, Note_on_c, 1, 36, 52
2, 549840, Note_on_c, 1, 36, 0
2, 549840, Note_on_c, 1, 48, 0
2, 549840, Note_on_c, 1, 53, 80
2, 549840, Note_on_c, 1, 29, 62
2, 549960, Note_on_c, 1, 29, 0
2, 549960, Note_on_c, 1, 53, 0
2, 549960, Note_on_c, 1, 48, 64
2, 549960, Note_on_c, 1, 36, 52
2, 550080, Note_on_c, 1, 36, 0
2, 550080, Note_on_c, 1, 48, 0
2, 550080, Note_on_c, 1, 61, 83
2, 550080, Note_on_c, 1, 29, 64
2, 550200, Note_on_c, 1, 29, 0
2, 550200, Note_on_c, 1, 61, 0
2, 550200, Note_on_c, 1, 56, 66
2, 550200, Note_on_c, 1, 37, 52
2, 550320, Note_on_c, 1, 37, 0
2, 550320, Note_on_c, 1, 56, 0
2, 550320, Note_on_c, 1, 53, 66
2, 550320, Note_on_c, 1, 41, 52
2, 550440, Note_on_c, 1, 41, 0
2, 550440, Note_on_c, 1, 53, 0
2, 550440, Note_on_c, 1, 56, 66
2, 550440, Note_on_c, 1, 37, 52
2, 550560, Note_on_c, 1, 37, 0
2, 550560, Note_on_c, 1, 56, 0
2, 550560, Note_on_c, 1, 61, 77
2, 550560, Note_on_c, 1, 29, 58
2, 550680, Note_on_c, 1, 29, 0
2, 550680, Note_on_c, 1, 61, 0
2, 550680, Note_on_c, 1, 56, 64
2, 550680, Note_on_c, 1, 37, 51
2, 550800, Note_on_c, 1, 37, 0
2, 550800, Note_on_c, 1, 56, 0
2, 550800, Note_on_c, 1, 65, 84
2, 550800, Note_on_c, 1, 29, 68
2, 550920, Note_on_c, 1, 29, 0
2, 550920, Note_on_c, 1, 65, 0
2, 550920, Note_on_c, 1, 56, 66
2, 550920, Note_on_c, 1, 37, 52
2, 551040, Note_on_c, 1, 37, 0
2, 551040, Note_on_c, 1, 56, 0
2, 551040, Note_on_c, 1, 63, 83
2, 551040, Note_on_c, 1, 29, 64
2, 551160, Note_on_c, 1, 29, 0
2, 551160, Note_on_c, 1, 63, 0
2, 551160, Note_on_c, 1, 56, 66
2, 551160, Note_on_c, 1, 37, 52
2, 551280, Note_on_c, 1, 37, 0
2, 551280, Note_on_c, 1, 56, 0
2, 551280, Note_on_c, 1, 61, 81
2, 551280, Note_on_c, 1, 29, 62
2, 551400, Note_on_c, 1, 29, 0
2, 551400, Note_on_c, 1, 61, 0
2, 551400, Note_on_c, 1, 56, 66
2, 551400, Note_on_c, 1, 37, 52
2, 551520, Note_on_c, 1, 37, 0
2, 551520, Note_on_c, 1, 56, 0
2, 551520, Note_on_c, 1, 61, 83
2, 551520, Note_on_c, 1, 29, 64
2, 551640, Note_on_c, 1, 29, 0
2, 551640, Note_on_c, 1, 61, 0
2, 551640, Note_on_c, 1, 56, 63
2, 551640, Note_on_c, 1, 37, 52
2, 551760, Note_on_c, 1, 37, 0
2, 551760, Note_on_c, 1, 56, 0
2, 551760, Note_on_c, 1, 53, 63
2, 551760, Note_on_c, 1, 41, 52
2, 551880, Note_on_c, 1, 41, 0
2, 551880, Note_on_c, 1, 53, 0
2, 551880, Note_on_c, 1, 56, 63
2, 551880, Note_on_c, 1, 37, 52
2, 552000, Note_on_c, 1, 37, 0
2, 552000, Note_on_c, 1, 56, 0
2, 552000, Note_on_c, 1, 61, 75
2, 552000, Note_on_c, 1, 29, 58
2, 552120, Note_on_c, 1, 29, 0
2, 552120, Note_on_c, 1, 61, 0
2, 552120, Note_on_c, 1, 56, 62
2, 552120, Note_on_c, 1, 37, 51
2, 552240, Note_on_c, 1, 37, 0
2, 552240, Note_on_c, 1, 56, 0
2, 552240, Note_on_c, 1, 65, 83
2, 552240, Note_on_c, 1, 29, 68
2, 552360, Note_on_c, 1, 29, 0
2, 552360, Note_on_c, 1, 65, 0
2, 552360, Note_on_c, 1, 56, 63
2, 552360, Note_on_c, 1, 37, 52
2, 552480, Note_on_c, 1, 37, 0
2, 552480, Note_on_c, 1, 56, 0
2, 552480, Note_on_c, 1, 63, 80
2, 552480, Note_on_c, 1, 29, 64
2, 552600, Note_on_c, 1, 29, 0
2, 552600, Note_on_c, 1, 63, 0
2, 552600, Note_on_c, 1, 56, 66
2, 552600, Note_on_c, 1, 37, 52
2, 552720, Note_on_c, 1, 37, 0
2, 552720, Note_on_c, 1, 56, 0
2, 552720, Note_on_c, 1, 61, 80
2, 552720, Note_on_c, 1, 29, 62
2, 552840, Note_on_c, 1, 29, 0
2, 552840, Note_on_c, 1, 61, 0
2, 552840, Note_on_c, 1, 56, 64
2, 552840, Note_on_c, 1, 37, 52
2, 552960, Note_on_c, 1, 37, 0
2, 552960, Note_on_c, 1, 56, 0
2, 552960, Note_on_c, 1, 70, 93
2, 552960, Note_on_c, 1, 42, 107
2, 552960, Note_on_c, 1, 30, 91
2, 553080, Note_on_c, 1, 70, 0
2, 553080, Note_on_c, 1, 73, 74
2, 553200, Note_on_c, 1, 73, 0
2, 553200, Note_on_c, 1, 70, 76
2, 553320, Note_on_c, 1, 70, 0
2, 553320, Note_on_c, 1, 73, 67
2, 553440, Note_on_c, 1, 73, 0
2, 553440, Note_on_c, 1, 70, 72
2, 553560, Note_on_c, 1, 70, 0
2, 553560, Note_on_c, 1, 73, 67
2, 553680, Note_on_c, 1, 73, 0
2, 553680, Note_on_c, 1, 70, 72
2, 553800, Note_on_c, 1, 70, 0
2, 553800, Note_on_c, 1, 73, 67
2, 553920, Note_on_c, 1, 73, 0
2, 553920, Note_on_c, 1, 70, 72
2, 554040, Note_on_c, 1, 70, 0
2, 554040, Note_on_c, 1, 73, 67
2, 554160, Note_on_c, 1, 73, 0
2, 554160, Note_on_c, 1, 70, 72
2, 554280, Note_on_c, 1, 70, 0
2, 554280, Note_on_c, 1, 73, 67
2, 554400, Note_on_c, 1, 73, 0
2, 554400, Note_on_c, 1, 70, 76
2, 554520, Note_on_c, 1, 70, 0
2, 554520, Note_on_c, 1, 73, 67
2, 554640, Note_on_c, 1, 73, 0
2, 554640, Note_on_c, 1, 70, 76
2, 554760, Note_on_c, 1, 70, 0
2, 554760, Note_on_c, 1, 73, 67
2, 554880, Note_on_c, 1, 73, 0
2, 554880, Note_on_c, 1, 70, 76
2, 555000, Note_on_c, 1, 70, 0
2, 555000, Note_on_c, 1, 73, 67
2, 555120, Note_on_c, 1, 73, 0
2, 555120, Note_on_c, 1, 30, 0
2, 555120, Note_on_c, 1, 42, 0
2, 555120, Note_on_c, 1, 70, 95
2, 555120, Note_on_c, 1, 31, 74
2, 555120, Note_on_c, 1, 43, 88
2, 555240, Note_on_c, 1, 70, 0
2, 555240, Note_on_c, 1, 73, 78
2, 555360, Note_on_c, 1, 73, 0
2, 555360, Note_on_c, 1, 43, 0
2, 555360, Note_on_c, 1, 31, 0
2, 555360, Note_on_c, 1, 67, 89
2, 555360, Note_on_c, 1, 34, 72
2, 555480, Note_on_c, 1, 67, 0
2, 555480, Note_on_c, 1, 70, 78
2, 555600, Note_on_c, 1, 70, 0
2, 555600, Note_on_c, 1, 34, 0
2, 555600, Note_on_c, 1, 64, 84
2, 555600, Note_on_c, 1, 37, 82
2, 555720, Note_on_c, 1, 64, 0
2, 555720, Note_on_c, 1, 67, 77
2, 555840, Note_on_c, 1, 67, 0
2, 555840, Note_on_c, 1, 37, 0
2, 555840, Note_on_c, 1, 61, 82
2, 555840, Note_on_c, 1, 40, 95
2, 555960, Note_on_c, 1, 61, 0
2, 555960, Note_on_c, 1, 64, 70
2, 556080, Note_on_c, 1, 64, 0
2, 556080, Note_on_c, 1, 40, 0
2, 556080, Note_on_c, 1, 58, 81
2, 556080, Note_on_c, 1, 43, 82
2, 556200, Note_on_c, 1, 58, 0
2, 556200, Note_on_c, 1, 61, 71
2, 556320, Note_on_c, 1, 61, 0
2, 556320, Note_on_c, 1, 43, 0
2, 556320, Note_on_c, 1, 55, 82
2, 556320, Note_on_c, 1, 46, 82
2, 556440, Note_on_c, 1, 55, 0
2, 556440, Note_on_c, 1, 58, 68
2, 556560, Note_on_c, 1, 58, 0
2, 556560, Note_on_c, 1, 46, 0
2, 556560, Note_on_c, 1, 53, 81
2, 556560, Note_on_c, 1, 49, 85
2, 556680, Note_on_c, 1, 53, 0
2, 556680, Note_on_c, 1, 55, 70
2, 556790, Note_on_c, 1, 49, 0
2, 556800, Note_on_c, 1, 55, 0
2, 556800, Note_on_c, 1, 58, 80
2, 556800, Note_on_c, 1, 49, 83
2, 556920, Note_on_c, 1, 58, 0
2, 556920, Note_on_c, 1, 55, 70
2, 557030, Note_on_c, 1, 49, 0
2, 557040, Note_on_c, 1, 55, 0
2, 557040, Note_on_c, 1, 53, 80
2, 557040, Note_on_c, 1, 49, 83
2, 557160, Note_on_c, 1, 53, 0
2, 557160, Note_on_c, 1, 55, 69
2, 557270, Note_on_c, 1, 49, 0
2, 557280, Note_on_c, 1, 55, 0
2, 557280, Note_on_c, 1, 49, 97
2, 557400, Note_on_c, 1, 53, 70
2, 557520, Note_on_c, 1, 53, 0
2, 557520, Note_on_c, 1, 58, 80
2, 557640, Note_on_c, 1, 58, 0
2, 557640, Note_on_c, 1, 55, 69
2, 557760, Note_on_c, 1, 55, 0
2, 557760, Note_on_c, 1, 53, 77
2, 557880, Note_on_c, 1, 53, 0
2, 557880, Note_on_c, 1, 58, 70
2, 558000, Note_on_c, 1, 58, 0
2, 558000, Note_on_c, 1, 49, 0
2, 558000, Note_on_c, 1, 48, 89
2, 558120, Note_on_c, 1, 52, 69
2, 558240, Note_on_c, 1, 52, 0
2, 558240, Note_on_c, 1, 58, 80
2, 558360, Note_on_c, 1, 58, 0
2, 558360, Note_on_c, 1, 55, 69
2, 558480, Note_on_c, 1, 55, 0
2, 558480, Note_on_c, 1, 52, 78
2, 558600, Note_on_c, 1, 52, 0
2, 558600, Note_on_c, 1, 58, 69
2, 558720, Note_on_c, 1, 58, 0
2, 558720, Note_on_c, 1, 48, 0
2, 558720, Note_on_c, 1, 65, 83
2, 558720, Note_on_c, 1, 41, 64
2, 558840, Note_on_c, 1, 41, 0
2, 558840, Note_on_c, 1, 65, 0
2, 558840, Note_on_c, 1, 60, 66
2, 558840, Note_on_c, 1, 48, 52
2, 558960, Note_on_c, 1, 48, 0
2, 558960, Note_on_c, 1, 60, 0
2, 558960, Note_on_c, 1, 56, 66
2, 558960, Note_on_c, 1, 53, 52
2, 559080, Note_on_c, 1, 53, 0
2, 559080, Note_on_c, 1, 56, 0
2, 559080, Note_on_c, 1, 60, 66
2, 559080, Note_on_c, 1, 48, 52
2, 559200, Note_on_c, 1, 48, 0
2, 559200, Note_on_c, 1, 60, 0
2, 559200, Note_on_c, 1, 65, 80
2, 559200, Note_on_c, 1, 41, 58
2, 559320, Note_on_c, 1, 41, 0
2, 559320, Note_on_c, 1, 65, 0
2, 559320, Note_on_c, 1, 60, 64
2, 559320, Note_on_c, 1, 48, 51
2, 559440, Note_on_c, 1, 48, 0
2, 559440, Note_on_c, 1, 60, 0
2, 559440, Note_on_c, 1, 68, 84
2, 559440, Note_on_c, 1, 41, 68
2, 559560, Note_on_c, 1, 41, 0
2, 559560, Note_on_c, 1, 68, 0
2, 559560, Note_on_c, 1, 60, 66
2, 559560, Note_on_c, 1, 48, 52
2, 559680, Note_on_c, 1, 48, 0
2, 559680, Note_on_c, 1, 60, 0
2, 559680, Note_on_c, 1, 67, 83
2, 559680, Note_on_c, 1, 41, 64
2, 559800, Note_on_c, 1, 41, 0
2, 559800, Note_on_c, 1, 67, 0
2, 559800, Note_on_c, 1, 60, 66
2, 559800, Note_on_c, 1, 48, 52
2, 559920, Note_on_c, 1, 48, 0
2, 559920, Note_on_c, 1, 60, 0
2, 559920, Note_on_c, 1, 65, 81
2, 559920, Note_on_c, 1, 41, 62
2, 560040, Note_on_c, 1, 41, 0
2, 560040, Note_on_c, 1, 65, 0
2, 560040, Note_on_c, 1, 60, 66
2, 560040, Note_on_c, 1, 48, 52
2, 560160, Note_on_c, 1, 48, 0
2, 560160, Note_on_c, 1, 60, 0
2, 560160, Note_on_c, 1, 65, 83
2, 560160, Note_on_c, 1, 41, 64
2, 560280, Note_on_c, 1, 41, 0
2, 560280, Note_on_c, 1, 65, 0
2, 560280, Note_on_c, 1, 60, 63
2, 560280, Note_on_c, 1, 48, 52
2, 560400, Note_on_c, 1, 48, 0
2, 560400, Note_on_c, 1, 60, 0
2, 560400, Note_on_c, 1, 56, 63
2, 560400, Note_on_c, 1, 53, 52
2, 560520, Note_on_c, 1, 53, 0
2, 560520, Note_on_c, 1, 56, 0
2, 560520, Note_on_c, 1, 60, 63
2, 560520, Note_on_c, 1, 48, 52
2, 560640, Note_on_c, 1, 48, 0
2, 560640, Note_on_c, 1, 60, 0
2, 560640, Note_on_c, 1, 65, 80
2, 560640, Note_on_c, 1, 41, 58
2, 560760, Note_on_c, 1, 41, 0
2, 560760, Note_on_c, 1, 65, 0
2, 560760, Note_on_c, 1, 60, 62
2, 560760, Note_on_c, 1, 48, 51
2, 560880, Note_on_c, 1, 48, 0
2, 560880, Note_on_c, 1, 60, 0
2, 560880, Note_on_c, 1, 68, 83
2, 560880, Note_on_c, 1, 41, 68
2, 561000, Note_on_c, 1, 41, 0
2, 561000, Note_on_c, 1, 68, 0
2, 561000, Note_on_c, 1, 60, 63
2, 561000, Note_on_c, 1, 48, 52
2, 561120, Note_on_c, 1, 48, 0
2, 561120, Note_on_c, 1, 60, 0
2, 561120, Note_on_c, 1, 67, 80
2, 561120, Note_on_c, 1, 41, 64
2, 561240, Note_on_c, 1, 41, 0
2, 561240, Note_on_c, 1, 67, 0
2, 561240, Note_on_c, 1, 60, 66
2, 561240, Note_on_c, 1, 48, 52
2, 561360, Note_on_c, 1, 48, 0
2, 561360, Note_on_c, 1, 60, 0
2, 561360, Note_on_c, 1, 65, 80
2, 561360, Note_on_c, 1, 41, 62
2, 561480, Note_on_c, 1, 41, 0
2, 561480, Note_on_c, 1, 65, 0
2, 561480, Note_on_c, 1, 60, 64
2, 561480, Note_on_c, 1, 48, 52
2, 561600, Note_on_c, 1, 48, 0
2, 561600, Note_on_c, 1, 60, 0
2, 561600, Note_on_c, 1, 73, 83
2, 561600, Note_on_c, 1, 41, 64
2, 561720, Note_on_c, 1, 41, 0
2, 561720, Note_on_c, 1, 73, 0
2, 561720, Note_on_c, 1, 68, 66
2, 561720, Note_on_c, 1, 49, 52
2, 561840, Note_on_c, 1, 49, 0
2, 561840, Note_on_c, 1, 68, 0
2, 561840, Note_on_c, 1, 65, 66
2, 561840, Note_on_c, 1, 53, 52
2, 561960, Note_on_c, 1, 53, 0
2, 561960, Note_on_c, 1, 65, 0
2, 561960, Note_on_c, 1, 68, 66
2, 561960, Note_on_c, 1, 49, 52
2, 562080, Note_on_c, 1, 49, 0
2, 562080, Note_on_c, 1, 68, 0
2, 562080, Note_on_c, 1, 73, 80
2, 562080, Note_on_c, 1, 41, 58
2, 562200, Note_on_c, 1, 41, 0
2, 562200, Note_on_c, 1, 73, 0
2, 562200, Note_on_c, 1, 68, 64
2, 562200, Note_on_c, 1, 49, 51
2, 562320, Note_on_c, 1, 49, 0
2, 562320, Note_on_c, 1, 68, 0
2, 562320, Note_on_c, 1, 77, 84
2, 562320, Note_on_c, 1, 41, 68
2, 562440, Note_on_c, 1, 41, 0
2, 562440, Note_on_c, 1, 77, 0
2, 562440, Note_on_c, 1, 68, 66
2, 562440, Note_on_c, 1, 49, 52
2, 562560, Note_on_c, 1, 49, 0
2, 562560, Note_on_c, 1, 68, 0
2, 562560, Note_on_c, 1, 75, 83
2, 562560, Note_on_c, 1, 41, 64
2, 562680, Note_on_c, 1, 41, 0
2, 562680, Note_on_c, 1, 75, 0
2, 562680, Note_on_c, 1, 68, 66
2, 562680, Note_on_c, 1, 49, 52
2, 562800, Note_on_c, 1, 49, 0
2, 562800, Note_on_c, 1, 68, 0
2, 562800, Note_on_c, 1, 73, 81
2, 562800, Note_on_c, 1, 41, 62
2, 562920, Note_on_c, 1, 41, 0
2, 562920, Note_on_c, 1, 73, 0
2, 562920, Note_on_c, 1, 68, 66
2, 562920, Note_on_c, 1, 49, 52
2, 563040, Note_on_c, 1, 49, 0
2, 563040, Note_on_c, 1, 68, 0
2, 563040, Note_on_c, 1, 73, 83
2, 563040, Note_on_c, 1, 41, 64
2, 563160, Note_on_c, 1, 41, 0
2, 563160, Note_on_c, 1, 73, 0
2, 563160, Note_on_c, 1, 68, 63
2, 563160, Note_on_c, 1, 49, 52
2, 563280, Note_on_c, 1, 49, 0
2, 563280, Note_on_c, 1, 68, 0
2, 563280, Note_on_c, 1, 65, 63
2, 563280, Note_on_c, 1, 53, 52
2, 563400, Note_on_c, 1, 53, 0
2, 563400, Note_on_c, 1, 65, 0
2, 563400, Note_on_c, 1, 68, 63
2, 563400, Note_on_c, 1, 49, 52
2, 563520, Note_on_c, 1, 49, 0
2, 563520, Note_on_c, 1, 68, 0
2, 563520, Note_on_c, 1, 73, 80
2, 563520, Note_on_c, 1, 41, 58
2, 563640, Note_on_c, 1, 41, 0
2, 563640, Note_on_c, 1, 73, 0
2, 563640, Note_on_c, 1, 68, 62
2, 563640, Note_on_c, 1, 49, 51
2, 563760, Note_on_c, 1, 49, 0
2, 563760, Note_on_c, 1, 68, 0
2, 563760, Note_on_c, 1, 77, 83
2, 563760, Note_on_c, 1, 41, 68
2, 563880, Note_on_c, 1, 41, 0
2, 563880, Note_on_c, 1, 77, 0
2, 563880, Note_on_c, 1, 68, 63
2, 563880, Note_on_c, 1, 49, 52
2, 564000, Note_on_c, 1, 49, 0
2, 564000, Note_on_c, 1, 68, 0
2, 564000, Note_on_c, 1, 75, 80
2, 564000, Note_on_c, 1, 41, 64
2, 564120, Note_on_c, 1, 41, 0
2, 564120, Note_on_c, 1, 75, 0
2, 564120, Note_on_c, 1, 68, 66
2, 564120, Note_on_c, 1, 49, 52
2, 564240, Note_on_c, 1, 49, 0
2, 564240, Note_on_c, 1, 68, 0
2, 564240, Note_on_c, 1, 73, 80
2, 564240, Note_on_c, 1, 41, 62
2, 564360, Note_on_c, 1, 41, 0
2, 564360, Note_on_c, 1, 73, 0
2, 564360, Note_on_c, 1, 68, 64
2, 564360, Note_on_c, 1, 49, 52
2, 564480, Note_on_c, 1, 49, 0
2, 564480, Note_on_c, 1, 68, 0
2, 564480, Note_on_c, 1, 82, 93
2, 564480, Note_on_c, 1, 42, 90
2, 564480, Note_on_c, 1, 54, 106
2, 564600, Note_on_c, 1, 82, 0
2, 564600, Note_on_c, 1, 85, 75
2, 564720, Note_on_c, 1, 85, 0
2, 564720, Note_on_c, 1, 82, 80
2, 564840, Note_on_c, 1, 82, 0
2, 564840, Note_on_c, 1, 85, 69
2, 564960, Note_on_c, 1, 85, 0
2, 564960, Note_on_c, 1, 82, 77
2, 565080, Note_on_c, 1, 82, 0
2, 565080, Note_on_c, 1, 85, 69
2, 565200, Note_on_c, 1, 85, 0
2, 565200, Note_on_c, 1, 82, 78
2, 565320, Note_on_c, 1, 82, 0
2, 565320, Note_on_c, 1, 85, 69
2, 565440, Note_on_c, 1, 85, 0
2, 565440, Note_on_c, 1, 82, 74
2, 565560, Note_on_c, 1, 82, 0
2, 565560, Note_on_c, 1, 85, 69
2, 565680, Note_on_c, 1, 85, 0
2, 565680, Note_on_c, 1, 82, 74
2, 565800, Note_on_c, 1, 82, 0
2, 565800, Note_on_c, 1, 85, 69
2, 565920, Note_on_c, 1, 85, 0
2, 565920, Note_on_c, 1, 82, 74
2, 566040, Note_on_c, 1, 82, 0
2, 566040, Note_on_c, 1, 85, 69
2, 566160, Note_on_c, 1, 85, 0
2, 566160, Note_on_c, 1, 82, 74
2, 566280, Note_on_c, 1, 82, 0
2, 566280, Note_on_c, 1, 85, 69
2, 566400, Note_on_c, 1, 85, 0
2, 566400, Note_on_c, 1, 82, 74
2, 566520, Note_on_c, 1, 82, 0
2, 566520, Note_on_c, 1, 85, 69
2, 566640, Note_on_c, 1, 85, 0
2, 566640, Note_on_c, 1, 54, 0
2, 566640, Note_on_c, 1, 42, 0
2, 566640, Note_on_c, 1, 82, 75
2, 566640, Note_on_c, 1, 55, 88
2, 566640, Note_on_c, 1, 43, 59
2, 566760, Note_on_c, 1, 82, 0
2, 566760, Note_on_c, 1, 85, 69
2, 566880, Note_on_c, 1, 85, 0
2, 566880, Note_on_c, 1, 43, 0
2, 566880, Note_on_c, 1, 55, 0
2, 566880, Note_on_c, 1, 82, 77
2, 566880, Note_on_c, 1, 46, 58
2, 566880, Note_on_c, 1, 58, 72
2, 567000, Note_on_c, 1, 82, 0
2, 567000, Note_on_c, 1, 85, 69
2, 567120, Note_on_c, 1, 85, 0
2, 567120, Note_on_c, 1, 58, 0
2, 567120, Note_on_c, 1, 46, 0
2, 567120, Note_on_c, 1, 82, 77
2, 567120, Note_on_c, 1, 49, 63
2, 567120, Note_on_c, 1, 61, 82
2, 567240, Note_on_c, 1, 82, 0
2, 567240, Note_on_c, 1, 85, 69
2, 567360, Note_on_c, 1, 85, 0
2, 567360, Note_on_c, 1, 61, 0
2, 567360, Note_on_c, 1, 49, 0
2, 567360, Note_on_c, 1, 82, 82
2, 567360, Note_on_c, 1, 64, 95
2, 567360, Note_on_c, 1, 52, 75
2, 567480, Note_on_c, 1, 82, 0
2, 567480, Note_on_c, 1, 85, 70
2, 567600, Note_on_c, 1, 85, 0
2, 567600, Note_on_c, 1, 52, 0
2, 567600, Note_on_c, 1, 64, 0
2, 567600, Note_on_c, 1, 79, 81
2, 567600, Note_on_c, 1, 55, 63
2, 567600, Note_on_c, 1, 67, 82
2, 567720, Note_on_c, 1, 79, 0
2, 567720, Note_on_c, 1, 82, 71
2, 567840, Note_on_c, 1, 82, 0
2, 567840, Note_on_c, 1, 67, 0
2, 567840, Note_on_c, 1, 55, 0
2, 567840, Note_on_c, 1, 77, 82
2, 567840, Note_on_c, 1, 58, 63
2, 567840, Note_on_c, 1, 70, 82
2, 567960, Note_on_c, 1, 77, 0
2, 567960, Note_on_c, 1, 79, 68
2, 568080, Note_on_c, 1, 79, 0
2, 568080, Note_on_c, 1, 70, 0
2, 568080, Note_on_c, 1, 58, 0
2, 568080, Note_on_c, 1, 77, 81
2, 568080, Note_on_c, 1, 73, 85
2, 568080, Note_on_c, 1, 61, 68
2, 568200, Note_on_c, 1, 77, 0
2, 568200, Note_on_c, 1, 79, 70
2, 568310, Note_on_c, 1, 61, 0
2, 568310, Note_on_c, 1, 73, 0
2, 568320, Note_on_c, 1, 79, 0
2, 568320, Note_on_c, 1, 82, 80
2, 568320, Note_on_c, 1, 61, 64
2, 568320, Note_on_c, 1, 73, 83
2, 568440, Note_on_c, 1, 82, 0
2, 568440, Note_on_c, 1, 79, 70
2, 568550, Note_on_c, 1, 73, 0
2, 568550, Note_on_c, 1, 61, 0
2, 568560, Note_on_c, 1, 79, 0
2, 568560, Note_on_c, 1, 77, 80
2, 568560, Note_on_c, 1, 61, 64
2, 568560, Note_on_c, 1, 73, 83
2, 568680, Note_on_c, 1, 77, 0
2, 568680, Note_on_c, 1, 79, 69
2, 568790, Note_on_c, 1, 73, 0
2, 568790, Note_on_c, 1, 61, 0
2, 568800, Note_on_c, 1, 79, 0
2, 568800, Note_on_c, 1, 73, 102
2, 568800, Note_on_c, 1, 61, 80
2, 568920, Note_on_c, 1, 77, 72
2, 569040, Note_on_c, 1, 77, 0
2, 569040, Note_on_c, 1, 82, 82
2, 569160, Note_on_c, 1, 82, 0
2, 569160, Note_on_c, 1, 79, 70
2, 569280, Note_on_c, 1, 79, 0
2, 569280, Note_on_c, 1, 77, 77
2, 569400, Note_on_c, 1, 77, 0
2, 569400, Note_on_c, 1, 82, 69
2, 569520, Note_on_c, 1, 82, 0
2, 569520, Note_on_c, 1, 61, 0
2, 569520, Note_on_c, 1, 73, 0
2, 569520, Note_on_c, 1, 60, 69
2, 569520, Note_on_c, 1, 72, 86
2, 569640, Note_on_c, 1, 76, 67
2, 569760, Note_on_c, 1, 76, 0
2, 569760, Note_on_c, 1, 82, 75
2, 569880, Note_on_c, 1, 82, 0
2, 569880, Note_on_c, 1, 79, 64
2, 570000, Note_on_c, 1, 79, 0
2, 570000, Note_on_c, 1, 76, 72
2, 570120, Note_on_c, 1, 76, 0
2, 570120, Note_on_c, 1, 82, 62
2, 570240, Note_on_c, 1, 82, 0
2, 570240, Note_on_c, 1, 72, 0
2, 570240, Note_on_c, 1, 60, 0
2, 570240, Note_on_c, 1, 65, 102
2, 570360, Note_on_c, 1, 73, 72
2, 570480, Note_on_c, 1, 73, 0
2, 570480, Note_on_c, 1, 82, 82
2, 570600, Note_on_c, 1, 82, 0
2, 570600, Note_on_c, 1, 79, 70
2, 570720, Note_on_c, 1, 79, 0
2, 570720, Note_on_c, 1, 73, 77
2, 570840, Note_on_c, 1, 73, 0
2, 570840, Note_on_c, 1, 82, 69
2, 570960, Note_on_c, 1, 82, 0
2, 570960, Note_on_c, 1, 65, 0
2, 570960, Note_on_c, 1, 64, 86
2, 571080, Note_on_c, 1, 72, 67
2, 571200, Note_on_c, 1, 72, 0
2, 571200, Note_on_c, 1, 82, 75
2, 571320, Note_on_c, 1, 82, 0
2, 571320, Note_on_c, 1, 79, 64
2, 571440, Note_on_c, 1, 79, 0
2, 571440, Note_on_c, 1, 72, 72
2, 571560, Note_on_c, 1, 72, 0
2, 571560, Note_on_c, 1, 82, 62
2, 571680, Note_on_c, 1, 82, 0
2, 571680, Note_on_c, 1, 64, 0
2, 571680, Note_on_c, 1, 73, 102
2, 571800, Note_on_c, 1, 77, 72
2, 571920, Note_on_c, 1, 77, 0
2, 571920, Note_on_c, 1, 82, 82
2, 572040, Note_on_c, 1, 82, 0
2, 572040, Note_on_c, 1, 79, 70
2, 572160, Note_on_c, 1, 79, 0
2, 572160, Note_on_c, 1, 77, 77
2, 572280, Note_on_c, 1, 77, 0
2, 572280, Note_on_c, 1, 82, 69
2, 572400, Note_on_c, 1, 82, 0
2, 572400, Note_on_c, 1, 73, 0
2, 572400, Note_on_c, 1, 72, 86
2, 572520, Note_on_c, 1, 76, 67
2, 572640, Note_on_c, 1, 76, 0
2, 572640, Note_on_c, 1, 82, 75
2, 572760, Note_on_c, 1, 82, 0
2, 572760, Note_on_c, 1, 79, 64
2, 572880, Note_on_c, 1, 79, 0
2, 572880, Note_on_c, 1, 76, 72
2, 573000, Note_on_c, 1, 76, 0
2, 573000, Note_on_c, 1, 82, 62
2, 573120, Note_on_c, 1, 82, 0
2, 573120, Note_on_c, 1, 72, 0
2, 573120, Note_on_c, 1, 71, 97
2, 573240, Note_on_c, 1, 74, 91
2, 573360, Note_on_c, 1, 77, 95
2, 573480, Note_on_c, 1, 80, 87
2, 573600, Note_on_c, 1, 83, 83
2, 573720, Note_on_c, 1, 83, 0
2, 573720, Note_on_c, 1, 86, 79
2, 573840, Note_on_c, 1, 86, 0
2, 573840, Note_on_c, 1, 89, 87
2, 573960, Note_on_c, 1, 89, 0
2, 573960, Note_on_c, 1, 86, 79
2, 574080, Note_on_c, 1, 86, 0
2, 574080, Note_on_c, 1, 83, 86
2, 574200, Note_on_c, 1, 83, 0
2, 574200, Note_on_c, 1, 92, 83
2, 574320, Note_on_c, 1, 92, 0
2, 574320, Note_on_c, 1, 91, 84
2, 574440, Note_on_c, 1, 91, 0
2, 574440, Note_on_c, 1, 89, 79
2, 574560, Note_on_c, 1, 89, 0
2, 574560, Note_on_c, 1, 80, 0
2, 574560, Note_on_c, 1, 71, 0
2, 574560, Note_on_c, 1, 74, 0
2, 574560, Note_on_c, 1, 77, 0
2, 574560, Note_on_c, 1, 88, 79
2, 574560, Note_on_c, 1, 72, 85
2, 574680, Note_on_c, 1, 88, 0
2, 574680, Note_on_c, 1, 91, 74
2, 574680, Note_on_c, 1, 76, 77
2, 574800, Note_on_c, 1, 91, 0
2, 574800, Note_on_c, 1, 89, 79
2, 574800, Note_on_c, 1, 79, 77
2, 574920, Note_on_c, 1, 89, 0
2, 574920, Note_on_c, 1, 88, 72
2, 575040, Note_on_c, 1, 88, 0
2, 575040, Note_on_c, 1, 85, 73
2, 575160, Note_on_c, 1, 85, 0
2, 575160, Note_on_c, 1, 84, 72
2, 575280, Note_on_c, 1, 84, 0
2, 575280, Note_on_c, 1, 82, 78
2, 575400, Note_on_c, 1, 82, 0
2, 575400, Note_on_c, 1, 85, 73
2, 575520, Note_on_c, 1, 85, 0
2, 575520, Note_on_c, 1, 84, 75
2, 575640, Note_on_c, 1, 84, 0
2, 575640, Note_on_c, 1, 82, 72
2, 575760, Note_on_c, 1, 82, 0
2, 575760, Note_on_c, 1, 80, 71
2, 575880, Note_on_c, 1, 80, 0
2, 575880, Note_on_c, 1, 79, 70
2, 576000, Note_on_c, 1, 79, 0
2, 576000, Note_on_c, 1, 79, 0
2, 576000, Note_on_c, 1, 76, 0
2, 576000, Note_on_c, 1, 72, 0
2, 576000, Note_on_c, 1, 68, 41
2, 576000, Note_on_c, 1, 65, 41
2, 576120, Note_on_c, 1, 77, 39
2, 576240, Note_on_c, 1, 77, 0
2, 576240, Note_on_c, 1, 80, 41
2, 576360, Note_on_c, 1, 80, 0
2, 576360, Note_on_c, 1, 84, 43
2, 576480, Note_on_c, 1, 84, 0
2, 576480, Note_on_c, 1, 89, 45
2, 576600, Note_on_c, 1, 89, 0
2, 576600, Note_on_c, 1, 77, 41
2, 576720, Note_on_c, 1, 77, 0
2, 576720, Note_on_c, 1, 65, 0
2, 576720, Note_on_c, 1, 68, 0
2, 576720, Note_on_c, 1, 73, 40
2, 576720, Note_on_c, 1, 70, 40
2, 577080, Note_on_c, 1, 89, 45
2, 577200, Note_on_c, 1, 89, 0
2, 577200, Note_on_c, 1, 77, 41
2, 577320, Note_on_c, 1, 77, 0
2, 577320, Note_on_c, 1, 89, 45
2, 577440, Note_on_c, 1, 89, 0
2, 577440, Note_on_c, 1, 70, 0
2, 577440, Note_on_c, 1, 73, 0
2, 577440, Note_on_c, 1, 72, 41
2, 577440, Note_on_c, 1, 68, 41
2, 577800, Note_on_c, 1, 89, 44
2, 577920, Note_on_c, 1, 89, 0
2, 577920, Note_on_c, 1, 77, 41
2, 578040, Note_on_c, 1, 77, 0
2, 578040, Note_on_c, 1, 89, 44
2, 578160, Note_on_c, 1, 89, 0
2, 578160, Note_on_c, 1, 68, 0
2, 578160, Note_on_c, 1, 72, 0
2, 578160, Note_on_c, 1, 72, 55
2, 578160, Note_on_c, 1, 70, 55
2, 578160, Note_on_c, 1, 67, 55
2, 578520, Note_on_c, 1, 88, 44
2, 578640, Note_on_c, 1, 88, 0
2, 578640, Note_on_c, 1, 76, 41
2, 578760, Note_on_c, 1, 76, 0
2, 578760, Note_on_c, 1, 88, 45
2, 578880, Note_on_c, 1, 88, 0
2, 578880, Note_on_c, 1, 72, 0
2, 578880, Note_on_c, 1, 70, 0
2, 578880, Note_on_c, 1, 67, 0
2, 578880, Note_on_c, 1, 65, 41
2, 578880, Note_on_c, 1, 68, 41
2, 579000, Note_on_c, 1, 77, 39
2, 579120, Note_on_c, 1, 77, 0
2, 579120, Note_on_c, 1, 80, 41
2, 579240, Note_on_c, 1, 80, 0
2, 579240, Note_on_c, 1, 84, 43
2, 579360, Note_on_c, 1, 84, 0
2, 579360, Note_on_c, 1, 89, 45
2, 579480, Note_on_c, 1, 89, 0
2, 579480, Note_on_c, 1, 77, 41
2, 579600, Note_on_c, 1, 77, 0
2, 579600, Note_on_c, 1, 68, 0
2, 579600, Note_on_c, 1, 65, 0
2, 579600, Note_on_c, 1, 58, 40
2, 579600, Note_on_c, 1, 61, 40
2, 579960, Note_on_c, 1, 77, 45
2, 580080, Note_on_c, 1, 77, 0
2, 580080, Note_on_c, 1, 65, 41
2, 580200, Note_on_c, 1, 65, 0
2, 580200, Note_on_c, 1, 77, 45
2, 580320, Note_on_c, 1, 77, 0
2, 580320, Note_on_c, 1, 61, 0
2, 580320, Note_on_c, 1, 58, 0
2, 580320, Note_on_c, 1, 56, 41
2, 580320, Note_on_c, 1, 60, 41
2, 580680, Note_on_c, 1, 77, 44
2, 580800, Note_on_c, 1, 77, 0
2, 580800, Note_on_c, 1, 65, 41
2, 580920, Note_on_c, 1, 65, 0
2, 580920, Note_on_c, 1, 77, 44
2, 581040, Note_on_c, 1, 77, 0
2, 581040, Note_on_c, 1, 60, 0
2, 581040, Note_on_c, 1, 56, 0
2, 581040, Note_on_c, 1, 60, 55
2, 581040, Note_on_c, 1, 58, 55
2, 581040, Note_on_c, 1, 55, 55
2, 581400, Note_on_c, 1, 76, 44
2, 581520, Note_on_c, 1, 76, 0
2, 581520, Note_on_c, 1, 64, 41
2, 581640, Note_on_c, 1, 64, 0
2, 581640, Note_on_c, 1, 76, 45
2, 581760, Note_on_c, 1, 76, 0
2, 581760, Note_on_c, 1, 60, 0
2, 581760, Note_on_c, 1, 58, 0
2, 581760, Note_on_c, 1, 55, 0
2, 581760, Note_on_c, 1, 53, 41
2, 581760, Note_on_c, 1, 56, 41
2, 581880, Note_on_c, 1, 77, 39
2, 582000, Note_on_c, 1, 77, 0
2, 582000, Note_on_c, 1, 80, 41
2, 582120, Note_on_c, 1, 80, 0
2, 582120, Note_on_c, 1, 84, 43
2, 582240, Note_on_c, 1, 84, 0
2, 582240, Note_on_c, 1, 89, 45
2, 582360, Note_on_c, 1, 89, 0
2, 582360, Note_on_c, 1, 77, 41
2, 582480, Note_on_c, 1, 77, 0
2, 582480, Note_on_c, 1, 56, 0
2, 582480, Note_on_c, 1, 53, 0
2, 582480, Note_on_c, 1, 46, 40
2, 582480, Note_on_c, 1, 49, 40
2, 582840, Note_on_c, 1, 89, 45
2, 582960, Note_on_c, 1, 89, 0
2, 582960, Note_on_c, 1, 77, 41
2, 583080, Note_on_c, 1, 77, 0
2, 583080, Note_on_c, 1, 89, 45
2, 583200, Note_on_c, 1, 89, 0
2, 583200, Note_on_c, 1, 49, 0
2, 583200, Note_on_c, 1, 46, 0
2, 583200, Note_on_c, 1, 44, 41
2, 583200, Note_on_c, 1, 48, 41
2, 583560, Note_on_c, 1, 89, 44
2, 583680, Note_on_c, 1, 89, 0
2, 583680, Note_on_c, 1, 77, 41
2, 583800, Note_on_c, 1, 77, 0
2, 583800, Note_on_c, 1, 89, 44
2, 583920, Note_on_c, 1, 89, 0
2, 583920, Note_on_c, 1, 48, 0
2, 583920, Note_on_c, 1, 44, 0
2, 583920, Note_on_c, 1, 43, 55
2, 583920, Note_on_c, 1, 46, 55
2, 583920, Note_on_c, 1, 48, 55
2, 584280, Note_on_c, 1, 88, 44
2, 584400, Note_on_c, 1, 88, 0
2, 584400, Note_on_c, 1, 76, 41
2, 584520, Note_on_c, 1, 76, 0
2, 584520, Note_on_c, 1, 88, 45
2, 584640, Note_on_c, 1, 88, 0
2, 584640, Note_on_c, 1, 43, 0
2, 584640, Note_on_c, 1, 46, 0
2, 584640, Note_on_c, 1, 48, 0
2, 584640, Note_on_c, 1, 89, 44
2, 584640, Note_on_c, 1, 41, 44
2, 584760, Note_on_c, 1, 89, 0
2, 584760, Note_on_c, 1, 84, 41
2, 584880, Note_on_c, 1, 84, 0
2, 584880, Note_on_c, 1, 80, 40
2, 585000, Note_on_c, 1, 80, 0
2, 585000, Note_on_c, 1, 84, 36
2, 585120, Note_on_c, 1, 84, 0
2, 585120, Note_on_c, 1, 89, 39
2, 585240, Note_on_c, 1, 89, 0
2, 585240, Note_on_c, 1, 84, 36
2, 585360, Note_on_c, 1, 84, 0
2, 585360, Note_on_c, 1, 80, 42
2, 585480, Note_on_c, 1, 80, 0
2, 585480, Note_on_c, 1, 84, 38
2, 585600, Note_on_c, 1, 84, 0
2, 585600, Note_on_c, 1, 89, 38
2, 585720, Note_on_c, 1, 89, 0
2, 585720, Note_on_c, 1, 84, 34
2, 585840, Note_on_c, 1, 84, 0
2, 585840, Note_on_c, 1, 80, 37
2, 585960, Note_on_c, 1, 80, 0
2, 585960, Note_on_c, 1, 84, 33
2, 586080, Note_on_c, 1, 84, 0
2, 586080, Note_on_c, 1, 41, 0
2, 586080, Note_on_c, 1, 89, 39
2, 586080, Note_on_c, 1, 36, 36
2, 586200, Note_on_c, 1, 89, 0
2, 586200, Note_on_c, 1, 84, 36
2, 586320, Note_on_c, 1, 84, 0
2, 586320, Note_on_c, 1, 80, 36
2, 586440, Note_on_c, 1, 80, 0
2, 586440, Note_on_c, 1, 84, 32
2, 586560, Note_on_c, 1, 84, 0
2, 586560, Note_on_c, 1, 89, 35
2, 586680, Note_on_c, 1, 89, 0
2, 586680, Note_on_c, 1, 84, 31
2, 586800, Note_on_c, 1, 84, 0
2, 586800, Note_on_c, 1, 36, 0
2, 586800, Note_on_c, 1, 89, 36
2, 586800, Note_on_c, 1, 32, 30
2, 586920, Note_on_c, 1, 89, 0
2, 586920, Note_on_c, 1, 84, 34
2, 587040, Note_on_c, 1, 84, 0
2, 587040, Note_on_c, 1, 89, 34
2, 587160, Note_on_c, 1, 89, 0
2, 587160, Note_on_c, 1, 84, 30
2, 587280, Note_on_c, 1, 84, 0
2, 587280, Note_on_c, 1, 89, 33
2, 587400, Note_on_c, 1, 89, 0
2, 587400, Note_on_c, 1, 84, 30
2, 587520, Note_on_c, 1, 84, 0
2, 587520, Note_on_c, 1, 32, 0
2, 587520, Note_on_c, 1, 89, 38
2, 587520, Note_on_c, 1, 29, 24
2, 587640, Note_on_c, 1, 89, 0
2, 587640, Note_on_c, 1, 84, 30
2, 587760, Note_on_c, 1, 84, 0
2, 587760, Note_on_c, 1, 80, 37
2, 587880, Note_on_c, 1, 80, 0
2, 587880, Note_on_c, 1, 84, 30
2, 588000, Note_on_c, 1, 84, 0
2, 588000, Note_on_c, 1, 89, 33
2, 588120, Note_on_c, 1, 89, 0
2, 588120, Note_on_c, 1, 84, 30
2, 588240, Note_on_c, 1, 84, 0
2, 588240, Note_on_c, 1, 80, 36
2, 588360, Note_on_c, 1, 80, 0
2, 588360, Note_on_c, 1, 84, 30
2, 588480, Note_on_c, 1, 84, 0
2, 588480, Note_on_c, 1, 89, 35
2, 588600, Note_on_c, 1, 89, 0
2, 588600, Note_on_c, 1, 84, 30
2, 588720, Note_on_c, 1, 84, 0
2, 588720, Note_on_c, 1, 80, 31
2, 588840, Note_on_c, 1, 80, 0
2, 588840, Note_on_c, 1, 84, 30
2, 588960, Note_on_c, 1, 84, 0
2, 588960, Note_on_c, 1, 89, 38
2, 589080, Note_on_c, 1, 89, 0
2, 589080, Note_on_c, 1, 84, 30
2, 589200, Note_on_c, 1, 84, 0
2, 589200, Note_on_c, 1, 80, 33
2, 589320, Note_on_c, 1, 80, 0
2, 589320, Note_on_c, 1, 84, 29
2, 589440, Note_on_c, 1, 84, 0
2, 589440, Note_on_c, 1, 89, 33
2, 589560, Note_on_c, 1, 89, 0
2, 589560, Note_on_c, 1, 84, 28
2, 589680, Note_on_c, 1, 84, 0
2, 589680, Note_on_c, 1, 29, 0
2, 589680, Note_on_c, 1, 89, 37
2, 589680, Note_on_c, 1, 32, 29
2, 589800, Note_on_c, 1, 89, 0
2, 589800, Note_on_c, 1, 84, 33
2, 589920, Note_on_c, 1, 84, 0
2, 589920, Note_on_c, 1, 80, 34
2, 590040, Note_on_c, 1, 80, 0
2, 590040, Note_on_c, 1, 84, 29
2, 590160, Note_on_c, 1, 84, 0
2, 590160, Note_on_c, 1, 89, 33
2, 590280, Note_on_c, 1, 89, 0
2, 590280, Note_on_c, 1, 32, 0
2, 590280, Note_on_c, 1, 84, 29
2, 590280, Note_on_c, 1, 36, 26
2, 590400, Note_on_c, 1, 36, 0
2, 590400, Note_on_c, 1, 84, 0
2, 590400, Note_on_c, 1, 89, 38
2, 590400, Note_on_c, 1, 41, 29
2, 590520, Note_on_c, 1, 89, 0
2, 590520, Note_on_c, 1, 84, 30
2, 590640, Note_on_c, 1, 84, 0
2, 590640, Note_on_c, 1, 80, 37
2, 590760, Note_on_c, 1, 80, 0
2, 590760, Note_on_c, 1, 84, 30
2, 590880, Note_on_c, 1, 84, 0
2, 590880, Note_on_c, 1, 89, 33
2, 591000, Note_on_c, 1, 89, 0
2, 591000, Note_on_c, 1, 84, 30
2, 591120, Note_on_c, 1, 84, 0
2, 591120, Note_on_c, 1, 41, 0
2, 591120, Note_on_c, 1, 89, 36
2, 591120, Note_on_c, 1, 44, 29
2, 591240, Note_on_c, 1, 89, 0
2, 591240, Note_on_c, 1, 84, 30
2, 591360, Note_on_c, 1, 84, 0
2, 591360, Note_on_c, 1, 80, 35
2, 591480, Note_on_c, 1, 80, 0
2, 591480, Note_on_c, 1, 84, 30
2, 591600, Note_on_c, 1, 84, 0
2, 591600, Note_on_c, 1, 89, 31
2, 591720, Note_on_c, 1, 89, 0
2, 591720, Note_on_c, 1, 44, 0
2, 591720, Note_on_c, 1, 84, 30
2, 591720, Note_on_c, 1, 48, 26
2, 591840, Note_on_c, 1, 48, 0
2, 591840, Note_on_c, 1, 84, 0
2, 591840, Note_on_c, 1, 89, 38
2, 591840, Note_on_c, 1, 53, 29
2, 591960, Note_on_c, 1, 89, 0
2, 591960, Note_on_c, 1, 84, 30
2, 592080, Note_on_c, 1, 84, 0
2, 592080, Note_on_c, 1, 80, 33
2, 592200, Note_on_c, 1, 80, 0
2, 592200, Note_on_c, 1, 84, 29
2, 592320, Note_on_c, 1, 84, 0
2, 592320, Note_on_c, 1, 89, 33
2, 592440, Note_on_c, 1, 89, 0
2, 592440, Note_on_c, 1, 84, 28
2, 592560, Note_on_c, 1, 84, 0
2, 592560, Note_on_c, 1, 53, 0
2, 592560, Note_on_c, 1, 89, 37
2, 592560, Note_on_c, 1, 41, 28
2, 592680, Note_on_c, 1, 89, 0
2, 592680, Note_on_c, 1, 84, 33
2, 592800, Note_on_c, 1, 84, 0
2, 592800, Note_on_c, 1, 80, 34
2, 592920, Note_on_c, 1, 80, 0
2, 592920, Note_on_c, 1, 84, 29
2, 593040, Note_on_c, 1, 84, 0
2, 593040, Note_on_c, 1, 89, 33
2, 593160, Note_on_c, 1, 89, 0
2, 593160, Note_on_c, 1, 84, 29
2, 593280, Note_on_c, 1, 84, 0
2, 593280, Note_on_c, 1, 41, 0
2, 593280, Note_on_c, 1, 87, 38
2, 593280, Note_on_c, 1, 42, 34
2, 593400, Note_on_c, 1, 87, 0
2, 593400, Note_on_c, 1, 84, 30
2, 593520, Note_on_c, 1, 84, 0
2, 593520, Note_on_c, 1, 80, 37
2, 593640, Note_on_c, 1, 80, 0
2, 593640, Note_on_c, 1, 84, 30
2, 593760, Note_on_c, 1, 84, 0
2, 593760, Note_on_c, 1, 87, 33
2, 593880, Note_on_c, 1, 87, 0
2, 593880, Note_on_c, 1, 84, 30
2, 594000, Note_on_c, 1, 84, 0
2, 594000, Note_on_c, 1, 80, 36
2, 594120, Note_on_c, 1, 80, 0
2, 594120, Note_on_c, 1, 84, 30
2, 594240, Note_on_c, 1, 84, 0
2, 594240, Note_on_c, 1, 87, 35
2, 594360, Note_on_c, 1, 87, 0
2, 594360, Note_on_c, 1, 84, 30
2, 594480, Note_on_c, 1, 84, 0
2, 594480, Note_on_c, 1, 80, 31
2, 594600, Note_on_c, 1, 80, 0
2, 594600, Note_on_c, 1, 84, 30
2, 594720, Note_on_c, 1, 84, 0
2, 594720, Note_on_c, 1, 87, 38
2, 594840, Note_on_c, 1, 87, 0
2, 594840, Note_on_c, 1, 84, 30
2, 594960, Note_on_c, 1, 84, 0
2, 594960, Note_on_c, 1, 80, 33
2, 595080, Note_on_c, 1, 80, 0
2, 595080, Note_on_c, 1, 84, 29
2, 595200, Note_on_c, 1, 84, 0
2, 595200, Note_on_c, 1, 87, 33
2, 595320, Note_on_c, 1, 87, 0
2, 595320, Note_on_c, 1, 84, 28
2, 595440, Note_on_c, 1, 84, 0
2, 595440, Note_on_c, 1, 42, 0
2, 595440, Note_on_c, 1, 87, 37
2, 595440, Note_on_c, 1, 48, 33
2, 595560, Note_on_c, 1, 87, 0
2, 595560, Note_on_c, 1, 84, 33
2, 595680, Note_on_c, 1, 84, 0
2, 595680, Note_on_c, 1, 80, 34
2, 595800, Note_on_c, 1, 80, 0
2, 595800, Note_on_c, 1, 84, 29
2, 595920, Note_on_c, 1, 84, 0
2, 595920, Note_on_c, 1, 87, 33
2, 596040, Note_on_c, 1, 87, 0
2, 596040, Note_on_c, 1, 48, 0
2, 596040, Note_on_c, 1, 84, 29
2, 596040, Note_on_c, 1, 51, 28
2, 596160, Note_on_c, 1, 51, 0
2, 596160, Note_on_c, 1, 84, 0
2, 596160, Note_on_c, 1, 87, 38
2, 596160, Note_on_c, 1, 54, 33
2, 596280, Note_on_c, 1, 87, 0
2, 596280, Note_on_c, 1, 84, 30
2, 596400, Note_on_c, 1, 84, 0
2, 596400, Note_on_c, 1, 80, 37
2, 596520, Note_on_c, 1, 80, 0
2, 596520, Note_on_c, 1, 84, 30
2, 596640, Note_on_c, 1, 84, 0
2, 596640, Note_on_c, 1, 87, 33
2, 596760, Note_on_c, 1, 87, 0
2, 596760, Note_on_c, 1, 84, 30
2, 596880, Note_on_c, 1, 84, 0
2, 596880, Note_on_c, 1, 54, 0
2, 596880, Note_on_c, 1, 87, 36
2, 596880, Note_on_c, 1, 60, 33
2, 597000, Note_on_c, 1, 87, 0
2, 597000, Note_on_c, 1, 84, 30
2, 597120, Note_on_c, 1, 84, 0
2, 597120, Note_on_c, 1, 80, 35
2, 597240, Note_on_c, 1, 80, 0
2, 597240, Note_on_c, 1, 84, 30
2, 597360, Note_on_c, 1, 84, 0
2, 597360, Note_on_c, 1, 87, 31
2, 597480, Note_on_c, 1, 87, 0
2, 597480, Note_on_c, 1, 60, 0
2, 597480, Note_on_c, 1, 84, 30
2, 597480, Note_on_c, 1, 63, 28
2, 597600, Note_on_c, 1, 63, 0
2, 597600, Note_on_c, 1, 84, 0
2, 597600, Note_on_c, 1, 87, 38
2, 597600, Note_on_c, 1, 66, 33
2, 597720, Note_on_c, 1, 87, 0
2, 597720, Note_on_c, 1, 84, 30
2, 597840, Note_on_c, 1, 84, 0
2, 597840, Note_on_c, 1, 80, 33
2, 597960, Note_on_c, 1, 80, 0
2, 597960, Note_on_c, 1, 84, 29
2, 598080, Note_on_c, 1, 84, 0
2, 598080, Note_on_c, 1, 87, 33
2, 598200, Note_on_c, 1, 87, 0
2, 598200, Note_on_c, 1, 84, 28
2, 598320, Note_on_c, 1, 84, 0
2, 598320, Note_on_c, 1, 66, 0
2, 598320, Note_on_c, 1, 87, 37
2, 598320, Note_on_c, 1, 54, 30
2, 598440, Note_on_c, 1, 87, 0
2, 598440, Note_on_c, 1, 84, 33
2, 598560, Note_on_c, 1, 84, 0
2, 598560, Note_on_c, 1, 80, 34
2, 598680, Note_on_c, 1, 80, 0
2, 598680, Note_on_c, 1, 84, 29
2, 598800, Note_on_c, 1, 84, 0
2, 598800, Note_on_c, 1, 87, 33
2, 598920, Note_on_c, 1, 87, 0
2, 598920, Note_on_c, 1, 84, 29
2, 599040, Note_on_c, 1, 84, 0
2, 599040, Note_on_c, 1, 54, 0
2, 599040, Note_on_c, 1, 89, 38
2, 599040, Note_on_c, 1, 53, 33
2, 599160, Note_on_c, 1, 89, 0
2, 599160, Note_on_c, 1, 85, 30
2, 599280, Note_on_c, 1, 85, 0
2, 599280, Note_on_c, 1, 80, 37
2, 599400, Note_on_c, 1, 80, 0
2, 599400, Note_on_c, 1, 85, 30
2, 599520, Note_on_c, 1, 85, 0
2, 599520, Note_on_c, 1, 89, 33
2, 599640, Note_on_c, 1, 89, 0
2, 599640, Note_on_c, 1, 85, 31
2, 599760, Note_on_c, 1, 85, 0
2, 599760, Note_on_c, 1, 53, 0
2, 599760, Note_on_c, 1, 89, 37
2, 599760, Note_on_c, 1, 56, 34
2, 599880, Note_on_c, 1, 89, 0
2, 599880, Note_on_c, 1, 85, 30
2, 600000, Note_on_c, 1, 85, 0
2, 600000, Note_on_c, 1, 80, 36
2, 600120, Note_on_c, 1, 80, 0
2, 600120, Note_on_c, 1, 85, 31
2, 600240, Note_on_c, 1, 85, 0
2, 600240, Note_on_c, 1, 89, 34
2, 600360, Note_on_c, 1, 89, 0
2, 600360, Note_on_c, 1, 56, 0
2, 600360, Note_on_c, 1, 85, 33
2, 600360, Note_on_c, 1, 61, 30
2, 600480, Note_on_c, 1, 61, 0
2, 600480, Note_on_c, 1, 85, 0
2, 600480, Note_on_c, 1, 89, 40
2, 600480, Note_on_c, 1, 65, 36
2, 600600, Note_on_c, 1, 89, 0
2, 600600, Note_on_c, 1, 85, 33
2, 600720, Note_on_c, 1, 85, 0
2, 600720, Note_on_c, 1, 80, 35
2, 600840, Note_on_c, 1, 80, 0
2, 600840, Note_on_c, 1, 85, 31
2, 600960, Note_on_c, 1, 85, 0
2, 600960, Note_on_c, 1, 89, 35
2, 601080, Note_on_c, 1, 89, 0
2, 601080, Note_on_c, 1, 85, 30
2, 601200, Note_on_c, 1, 85, 0
2, 601200, Note_on_c, 1, 65, 0
2, 601200, Note_on_c, 1, 89, 40
2, 601200, Note_on_c, 1, 53, 35
2, 601320, Note_on_c, 1, 89, 0
2, 601320, Note_on_c, 1, 85, 36
2, 601440, Note_on_c, 1, 85, 0
2, 601440, Note_on_c, 1, 80, 37
2, 601560, Note_on_c, 1, 80, 0
2, 601560, Note_on_c, 1, 85, 33
2, 601680, Note_on_c, 1, 85, 0
2, 601680, Note_on_c, 1, 89, 36
2, 601800, Note_on_c, 1, 89, 0
2, 601800, Note_on_c, 1, 85, 33
2, 601920, Note_on_c, 1, 85, 0
2, 601920, Note_on_c, 1, 53, 0
2, 601920, Note_on_c, 1, 90, 40
2, 601920, Note_on_c, 1, 51, 40
2, 602040, Note_on_c, 1, 90, 0
2, 602040, Note_on_c, 1, 84, 35
2, 602160, Note_on_c, 1, 84, 0
2, 602160, Note_on_c, 1, 80, 40
2, 602280, Note_on_c, 1, 80, 0
2, 602280, Note_on_c, 1, 84, 35
2, 602400, Note_on_c, 1, 84, 0
2, 602400, Note_on_c, 1, 90, 37
2, 602520, Note_on_c, 1, 90, 0
2, 602520, Note_on_c, 1, 51, 0
2, 602520, Note_on_c, 1, 84, 36
2, 602520, Note_on_c, 1, 54, 36
2, 602640, Note_on_c, 1, 54, 0
2, 602640, Note_on_c, 1, 84, 0
2, 602640, Note_on_c, 1, 90, 42
2, 602640, Note_on_c, 1, 56, 42
2, 602760, Note_on_c, 1, 90, 0
2, 602760, Note_on_c, 1, 84, 35
2, 602880, Note_on_c, 1, 84, 0
2, 602880, Note_on_c, 1, 80, 41
2, 603000, Note_on_c, 1, 80, 0
2, 603000, Note_on_c, 1, 84, 37
2, 603120, Note_on_c, 1, 84, 0
2, 603120, Note_on_c, 1, 90, 38
2, 603240, Note_on_c, 1, 90, 0
2, 603240, Note_on_c, 1, 56, 0
2, 603240, Note_on_c, 1, 84, 37
2, 603240, Note_on_c, 1, 60, 38
2, 603360, Note_on_c, 1, 60, 0
2, 603360, Note_on_c, 1, 84, 0
2, 603360, Note_on_c, 1, 90, 44
2, 603360, Note_on_c, 1, 63, 44
2, 603480, Note_on_c, 1, 90, 0
2, 603480, Note_on_c, 1, 84, 36
2, 603600, Note_on_c, 1, 84, 0
2, 603600, Note_on_c, 1, 80, 44
2, 603720, Note_on_c, 1, 80, 0
2, 603720, Note_on_c, 1, 84, 38
2, 603840, Note_on_c, 1, 84, 0
2, 603840, Note_on_c, 1, 90, 39
2, 603960, Note_on_c, 1, 90, 0
2, 603960, Note_on_c, 1, 63, 0
2, 603960, Note_on_c, 1, 84, 38
2, 603960, Note_on_c, 1, 66, 39
2, 604080, Note_on_c, 1, 66, 0
2, 604080, Note_on_c, 1, 84, 0
2, 604080, Note_on_c, 1, 90, 45
2, 604080, Note_on_c, 1, 68, 47
2, 604200, Note_on_c, 1, 90, 0
2, 604200, Note_on_c, 1, 87, 38
2, 604320, Note_on_c, 1, 87, 0
2, 604320, Note_on_c, 1, 80, 44
2, 604440, Note_on_c, 1, 80, 0
2, 604440, Note_on_c, 1, 87, 39
2, 604560, Note_on_c, 1, 87, 0
2, 604560, Note_on_c, 1, 90, 39
2, 604680, Note_on_c, 1, 90, 0
2, 604680, Note_on_c, 1, 68, 0
2, 604680, Note_on_c, 1, 87, 39
2, 604680, Note_on_c, 1, 72, 42
2, 604800, Note_on_c, 1, 72, 0
2, 604800, Note_on_c, 1, 87, 0
2, 604800, Note_on_c, 1, 89, 55
2, 604800, Note_on_c, 1, 61, 33
2, 605040, Note_on_c, 1, 61, 0
2, 605040, Note_on_c, 1, 65, 24
2, 605040, Note_on_c, 1, 68, 24
2, 605040, Note_on_c, 1, 73, 30
2, 605280, Note_on_c, 1, 73, 0
2, 605280, Note_on_c, 1, 89, 0
2, 605280, Note_on_c, 1, 65, 0
2, 605280, Note_on_c, 1, 68, 0
2, 605280, Note_on_c, 1, 61, 31
2, 605520, Note_on_c, 1, 61, 0
2, 605520, Note_on_c, 1, 65, 26
2, 605520, Note_on_c, 1, 68, 26
2, 605520, Note_on_c, 1, 73, 33
2, 605760, Note_on_c, 1, 73, 0
2, 605760, Note_on_c, 1, 68, 0
2, 605760, Note_on_c, 1, 65, 0
2, 605760, Note_on_c, 1, 61, 31
2, 606000, Note_on_c, 1, 61, 0
2, 606000, Note_on_c, 1, 65, 24
2, 606000, Note_on_c, 1, 68, 24
2, 606000, Note_on_c, 1, 73, 31
2, 606240, Note_on_c, 1, 73, 0
2, 606240, Note_on_c, 1, 68, 0
2, 606240, Note_on_c, 1, 65, 0
2, 606240, Note_on_c, 1, 61, 33
2, 606480, Note_on_c, 1, 61, 0
2, 606480, Note_on_c, 1, 65, 24
2, 606480, Note_on_c, 1, 68, 24
2, 606480, Note_on_c, 1, 73, 31
2, 606720, Note_on_c, 1, 73, 0
2, 606720, Note_on_c, 1, 68, 0
2, 606720, Note_on_c, 1, 65, 0
2, 606720, Note_on_c, 1, 61, 31
2, 606960, Note_on_c, 1, 61, 0
2, 606960, Note_on_c, 1, 77, 62
2, 606960, Note_on_c, 1, 65, 26
2, 606960, Note_on_c, 1, 73, 33
2, 606960, Note_on_c, 1, 68, 26
2, 607200, Note_on_c, 1, 68, 0
2, 607200, Note_on_c, 1, 73, 0
2, 607200, Note_on_c, 1, 65, 0
2, 607200, Note_on_c, 1, 61, 31
2, 607440, Note_on_c, 1, 61, 0
2, 607440, Note_on_c, 1, 65, 25
2, 607440, Note_on_c, 1, 68, 25
2, 607440, Note_on_c, 1, 73, 32
2, 607560, Note_on_c, 1, 77, 0
2, 607560, Note_on_c, 1, 80, 57
2, 607680, Note_on_c, 1, 80, 0
2, 607680, Note_on_c, 1, 73, 0
2, 607680, Note_on_c, 1, 68, 0
2, 607680, Note_on_c, 1, 65, 0
2, 607680, Note_on_c, 1, 85, 66
2, 607680, Note_on_c, 1, 61, 33
2, 607920, Note_on_c, 1, 61, 0
2, 607920, Note_on_c, 1, 65, 24
2, 607920, Note_on_c, 1, 68, 24
2, 607920, Note_on_c, 1, 73, 30
2, 608160, Note_on_c, 1, 73, 0
2, 608160, Note_on_c, 1, 68, 0
2, 608160, Note_on_c, 1, 65, 0
2, 608160, Note_on_c, 1, 61, 31
2, 608400, Note_on_c, 1, 61, 0
2, 608400, Note_on_c, 1, 85, 0
2, 608400, Note_on_c, 1, 89, 62
2, 608400, Note_on_c, 1, 65, 26
2, 608400, Note_on_c, 1, 68, 26
2, 608400, Note_on_c, 1, 73, 33
2, 608640, Note_on_c, 1, 73, 0
2, 608640, Note_on_c, 1, 68, 0
2, 608640, Note_on_c, 1, 65, 0
2, 608640, Note_on_c, 1, 61, 31
2, 608880, Note_on_c, 1, 61, 0
2, 608880, Note_on_c, 1, 68, 24
2, 608880, Note_on_c, 1, 73, 31
2, 608880, Note_on_c, 1, 65, 24
2, 609000, Note_on_c, 1, 89, 0
2, 609000, Note_on_c, 1, 85, 55
2, 609120, Note_on_c, 1, 85, 0
2, 609120, Note_on_c, 1, 65, 0
2, 609120, Note_on_c, 1, 73, 0
2, 609120, Note_on_c, 1, 68, 0
2, 609120, Note_on_c, 1, 84, 63
2, 609120, Note_on_c, 1, 63, 33
2, 609360, Note_on_c, 1, 63, 0
2, 609360, Note_on_c, 1, 66, 24
2, 609360, Note_on_c, 1, 68, 24
2, 609360, Note_on_c, 1, 75, 31
2, 609600, Note_on_c, 1, 75, 0
2, 609600, Note_on_c, 1, 68, 0
2, 609600, Note_on_c, 1, 66, 0
2, 609600, Note_on_c, 1, 63, 31
2, 609840, Note_on_c, 1, 63, 0
2, 609840, Note_on_c, 1, 84, 0
2, 609840, Note_on_c, 1, 87, 66
2, 609840, Note_on_c, 1, 68, 26
2, 609840, Note_on_c, 1, 66, 26
2, 609840, Note_on_c, 1, 75, 33
2, 610080, Note_on_c, 1, 75, 0
2, 610080, Note_on_c, 1, 66, 0
2, 610080, Note_on_c, 1, 68, 0
2, 610080, Note_on_c, 1, 63, 31
2, 610320, Note_on_c, 1, 63, 0
2, 610320, Note_on_c, 1, 66, 25
2, 610320, Note_on_c, 1, 68, 25
2, 610320, Note_on_c, 1, 75, 32
2, 610440, Note_on_c, 1, 87, 0
2, 610440, Note_on_c, 1, 84, 55
2, 610560, Note_on_c, 1, 84, 0
2, 610560, Note_on_c, 1, 75, 0
2, 610560, Note_on_c, 1, 68, 0
2, 610560, Note_on_c, 1, 66, 0
2, 610560, Note_on_c, 1, 85, 66
2, 610560, Note_on_c, 1, 65, 33
2, 610800, Note_on_c, 1, 65, 0
2, 610800, Note_on_c, 1, 68, 24
2, 610800, Note_on_c, 1, 77, 30
2, 610800, Note_on_c, 1, 73, 24
2, 611040, Note_on_c, 1, 73, 0
2, 611040, Note_on_c, 1, 77, 0
2, 611040, Note_on_c, 1, 68, 0
2, 611040, Note_on_c, 1, 65, 31
2, 611280, Note_on_c, 1, 65, 0
2, 611280, Note_on_c, 1, 85, 0
2, 611280, Note_on_c, 1, 80, 59
2, 611280, Note_on_c, 1, 77, 33
2, 611280, Note_on_c, 1, 73, 26
2, 611280, Note_on_c, 1, 68, 26
2, 611520, Note_on_c, 1, 68, 0
2, 611520, Note_on_c, 1, 73, 0
2, 611520, Note_on_c, 1, 77, 0
2, 611520, Note_on_c, 1, 65, 31
2, 611760, Note_on_c, 1, 65, 0
2, 611760, Note_on_c, 1, 68, 24
2, 611760, Note_on_c, 1, 77, 31
2, 611760, Note_on_c, 1, 73, 24
2, 612000, Note_on_c, 1, 73, 0
2, 612000, Note_on_c, 1, 77, 0
2, 612000, Note_on_c, 1, 68, 0
2, 612000, Note_on_c, 1, 65, 33
2, 612240, Note_on_c, 1, 65, 0
2, 612240, Note_on_c, 1, 77, 31
2, 612240, Note_on_c, 1, 68, 24
2, 612240, Note_on_c, 1, 73, 24
2, 612480, Note_on_c, 1, 73, 0
2, 612480, Note_on_c, 1, 68, 0
2, 612480, Note_on_c, 1, 77, 0
2, 612480, Note_on_c, 1, 65, 31
2, 612720, Note_on_c, 1, 65, 0
2, 612720, Note_on_c, 1, 80, 0
2, 612720, Note_on_c, 1, 77, 68
2, 612720, Note_on_c, 1, 73, 36
2, 612720, Note_on_c, 1, 68, 36
2, 612960, Note_on_c, 1, 68, 0
2, 612960, Note_on_c, 1, 73, 0
2, 612960, Note_on_c, 1, 68, 34
2, 613200, Note_on_c, 1, 68, 0
2, 613200, Note_on_c, 1, 68, 35
2, 613200, Note_on_c, 1, 73, 35
2, 613320, Note_on_c, 1, 77, 0
2, 613320, Note_on_c, 1, 80, 62
2, 613440, Note_on_c, 1, 80, 0
2, 613440, Note_on_c, 1, 73, 0
2, 613440, Note_on_c, 1, 68, 0
2, 613440, Note_on_c, 1, 85, 71
2, 613440, Note_on_c, 1, 65, 36
2, 613680, Note_on_c, 1, 65, 0
2, 613680, Note_on_c, 1, 68, 26
2, 613680, Note_on_c, 1, 73, 26
2, 613680, Note_on_c, 1, 77, 33
2, 613920, Note_on_c, 1, 77, 0
2, 613920, Note_on_c, 1, 73, 0
2, 613920, Note_on_c, 1, 68, 0
2, 613920, Note_on_c, 1, 65, 34
2, 614160, Note_on_c, 1, 65, 0
2, 614160, Note_on_c, 1, 85, 0
2, 614160, Note_on_c, 1, 89, 74
2, 614160, Note_on_c, 1, 73, 29
2, 614160, Note_on_c, 1, 68, 29
2, 614160, Note_on_c, 1, 77, 37
2, 614400, Note_on_c, 1, 77, 0
2, 614400, Note_on_c, 1, 68, 0
2, 614400, Note_on_c, 1, 73, 0
2, 614400, Note_on_c, 1, 65, 35
2, 614640, Note_on_c, 1, 65, 0
2, 614640, Note_on_c, 1, 77, 36
2, 614640, Note_on_c, 1, 73, 27
2, 614640, Note_on_c, 1, 68, 27
2, 614760, Note_on_c, 1, 89, 0
2, 614760, Note_on_c, 1, 85, 64
2, 614880, Note_on_c, 1, 85, 0
2, 614880, Note_on_c, 1, 68, 0
2, 614880, Note_on_c, 1, 73, 0
2, 614880, Note_on_c, 1, 77, 0
2, 614880, Note_on_c, 1, 84, 75
2, 614880, Note_on_c, 1, 66, 39
2, 615120, Note_on_c, 1, 66, 0
2, 615120, Note_on_c, 1, 69, 28
2, 615120, Note_on_c, 1, 75, 37
2, 615120, Note_on_c, 1, 72, 28
2, 615360, Note_on_c, 1, 72, 0
2, 615360, Note_on_c, 1, 75, 0
2, 615360, Note_on_c, 1, 69, 0
2, 615360, Note_on_c, 1, 66, 38
2, 615600, Note_on_c, 1, 66, 0
2, 615600, Note_on_c, 1, 84, 0
2, 615600, Note_on_c, 1, 87, 80
2, 615600, Note_on_c, 1, 75, 40
2, 615600, Note_on_c, 1, 69, 40
2, 615600, Note_on_c, 1, 72, 40
2, 615840, Note_on_c, 1, 72, 0
2, 615840, Note_on_c, 1, 69, 0
2, 615840, Note_on_c, 1, 75, 0
2, 615840, Note_on_c, 1, 66, 38
2, 616080, Note_on_c, 1, 66, 0
2, 616080, Note_on_c, 1, 75, 40
2, 616080, Note_on_c, 1, 69, 40
2, 616080, Note_on_c, 1, 72, 40
2, 616200, Note_on_c, 1, 87, 0
2, 616200, Note_on_c, 1, 84, 71
2, 616320, Note_on_c, 1, 84, 0
2, 616320, Note_on_c, 1, 72, 0
2, 616320, Note_on_c, 1, 69, 0
2, 616320, Note_on_c, 1, 75, 0
2, 616320, Note_on_c, 1, 83, 85
2, 616320, Note_on_c, 1, 65, 49
2, 616560, Note_on_c, 1, 65, 0
2, 616560, Note_on_c, 1, 74, 39
2, 616560, Note_on_c, 1, 71, 30
2, 616560, Note_on_c, 1, 68, 30
2, 616800, Note_on_c, 1, 68, 0
2, 616800, Note_on_c, 1, 71, 0
2, 616800, Note_on_c, 1, 74, 0
2, 616800, Note_on_c, 1, 65, 41
2, 617040, Note_on_c, 1, 65, 0
2, 617040, Note_on_c, 1, 83, 0
2, 617040, Note_on_c, 1, 86, 95
2, 617040, Note_on_c, 1, 68, 35
2, 617040, Note_on_c, 1, 74, 44
2, 617040, Note_on_c, 1, 71, 35
2, 617280, Note_on_c, 1, 71, 0
2, 617280, Note_on_c, 1, 74, 0
2, 617280, Note_on_c, 1, 68, 0
2, 617280, Note_on_c, 1, 65, 42
2, 617520, Note_on_c, 1, 65, 0
2, 617520, Note_on_c, 1, 68, 34
2, 617520, Note_on_c, 1, 74, 44
2, 617520, Note_on_c, 1, 71, 34
2, 617760, Note_on_c, 1, 71, 0
2, 617760, Note_on_c, 1, 74, 0
2, 617760, Note_on_c, 1, 68, 0
2, 617760, Note_on_c, 1, 65, 49
2, 618000, Note_on_c, 1, 65, 0
2, 618000, Note_on_c, 1, 68, 36
2, 618000, Note_on_c, 1, 71, 36
2, 618000, Note_on_c, 1, 74, 48
2, 618240, Note_on_c, 1, 74, 0
2, 618240, Note_on_c, 1, 71, 0
2, 618240, Note_on_c, 1, 68, 0
2, 618240, Note_on_c, 1, 65, 48
2, 618480, Note_on_c, 1, 65, 0
2, 618480, Note_on_c, 1, 86, 0
2, 618480, Note_on_c, 1, 86, 84
2, 618480, Note_on_c, 1, 71, 41
2, 618480, Note_on_c, 1, 68, 41
2, 618480, Note_on_c, 1, 74, 55
2, 618720, Note_on_c, 1, 74, 0
2, 618720, Note_on_c, 1, 68, 0
2, 618720, Note_on_c, 1, 71, 0
2, 618720, Note_on_c, 1, 65, 50
2, 618960, Note_on_c, 1, 65, 0
2, 618960, Note_on_c, 1, 74, 52
2, 618960, Note_on_c, 1, 68, 41
2, 618960, Note_on_c, 1, 71, 41
2, 619080, Note_on_c, 1, 86, 0
2, 619080, Note_on_c, 1, 83, 79
2, 619200, Note_on_c, 1, 83, 0
2, 619200, Note_on_c, 1, 71, 0
2, 619200, Note_on_c, 1, 68, 0
2, 619200, Note_on_c, 1, 74, 0
2, 619200, Note_on_c, 1, 84, 85
2, 619200, Note_on_c, 1, 64, 54
2, 619440, Note_on_c, 1, 64, 0
2, 619440, Note_on_c, 1, 76, 47
2, 619440, Note_on_c, 1, 72, 37
2, 619440, Note_on_c, 1, 67, 37
2, 619680, Note_on_c, 1, 67, 0
2, 619680, Note_on_c, 1, 72, 0
2, 619680, Note_on_c, 1, 76, 0
2, 619680, Note_on_c, 1, 64, 51
2, 619920, Note_on_c, 1, 64, 0
2, 619920, Note_on_c, 1, 84, 0
2, 619920, Note_on_c, 1, 88, 97
2, 619920, Note_on_c, 1, 67, 42
2, 619920, Note_on_c, 1, 76, 53
2, 619920, Note_on_c, 1, 72, 42
2, 620160, Note_on_c, 1, 72, 0
2, 620160, Note_on_c, 1, 76, 0
2, 620160, Note_on_c, 1, 67, 0
2, 620160, Note_on_c, 1, 64, 47
2, 620400, Note_on_c, 1, 64, 0
2, 620400, Note_on_c, 1, 67, 41
2, 620400, Note_on_c, 1, 76, 52
2, 620400, Note_on_c, 1, 72, 41
2, 620640, Note_on_c, 1, 72, 0
2, 620640, Note_on_c, 1, 76, 0
2, 620640, Note_on_c, 1, 67, 0
2, 620640, Note_on_c, 1, 64, 49
2, 620880, Note_on_c, 1, 64, 0
2, 620880, Note_on_c, 1, 67, 43
2, 620880, Note_on_c, 1, 72, 43
2, 620880, Note_on_c, 1, 76, 54
2, 621120, Note_on_c, 1, 76, 0
2, 621120, Note_on_c, 1, 72, 0
2, 621120, Note_on_c, 1, 67, 0
2, 621120, Note_on_c, 1, 64, 48
2, 621360, Note_on_c, 1, 64, 0
2, 621360, Note_on_c, 1, 88, 0
2, 621360, Note_on_c, 1, 91, 84
2, 621360, Note_on_c, 1, 79, 71
2, 621360, Note_on_c, 1, 72, 41
2, 621360, Note_on_c, 1, 67, 41
2, 621360, Note_on_c, 1, 76, 55
2, 621600, Note_on_c, 1, 76, 0
2, 621600, Note_on_c, 1, 72, 0
2, 621600, Note_on_c, 1, 67, 0
2, 621600, Note_on_c, 1, 64, 50
2, 621840, Note_on_c, 1, 64, 0
2, 621840, Note_on_c, 1, 76, 52
2, 621840, Note_on_c, 1, 67, 41
2, 621840, Note_on_c, 1, 72, 41
2, 621960, Note_on_c, 1, 79, 0
2, 621960, Note_on_c, 1, 91, 0
2, 621960, Note_on_c, 1, 77, 67
2, 621960, Note_on_c, 1, 89, 79
2, 622080, Note_on_c, 1, 89, 0
2, 622080, Note_on_c, 1, 67, 0
2, 622080, Note_on_c, 1, 72, 0
2, 622080, Note_on_c, 1, 76, 0
2, 622080, Note_on_c, 1, 77, 0
2, 622080, Note_on_c, 1, 88, 85
2, 622080, Note_on_c, 1, 76, 72
2, 622080, Note_on_c, 1, 58, 54
2, 622320, Note_on_c, 1, 58, 0
2, 622320, Note_on_c, 1, 67, 47
2, 622320, Note_on_c, 1, 64, 37
2, 622320, Note_on_c, 1, 61, 37
2, 622560, Note_on_c, 1, 61, 0
2, 622560, Note_on_c, 1, 67, 0
2, 622560, Note_on_c, 1, 64, 0
2, 622560, Note_on_c, 1, 58, 51
2, 622800, Note_on_c, 1, 58, 0
2, 622800, Note_on_c, 1, 76, 0
2, 622800, Note_on_c, 1, 88, 0
2, 622800, Note_on_c, 1, 79, 79
2, 622800, Note_on_c, 1, 91, 93
2, 622800, Note_on_c, 1, 61, 42
2, 622800, Note_on_c, 1, 67, 53
2, 622800, Note_on_c, 1, 64, 42
2, 623040, Note_on_c, 1, 64, 0
2, 623040, Note_on_c, 1, 61, 0
2, 623040, Note_on_c, 1, 67, 0
2, 623040, Note_on_c, 1, 58, 47
2, 623280, Note_on_c, 1, 58, 0
2, 623280, Note_on_c, 1, 61, 41
2, 623280, Note_on_c, 1, 67, 52
2, 623280, Note_on_c, 1, 64, 41
2, 623520, Note_on_c, 1, 64, 0
2, 623520, Note_on_c, 1, 61, 0
2, 623520, Note_on_c, 1, 67, 0
2, 623520, Note_on_c, 1, 58, 49
2, 623760, Note_on_c, 1, 58, 0
2, 623760, Note_on_c, 1, 64, 43
2, 623760, Note_on_c, 1, 67, 54
2, 623760, Note_on_c, 1, 61, 43
2, 624000, Note_on_c, 1, 61, 0
2, 624000, Note_on_c, 1, 64, 0
2, 624000, Note_on_c, 1, 67, 0
2, 624000, Note_on_c, 1, 58, 48
2, 624240, Note_on_c, 1, 58, 0
2, 624240, Note_on_c, 1, 91, 0
2, 624240, Note_on_c, 1, 79, 0
2, 624240, Note_on_c, 1, 79, 74
2, 624240, Note_on_c, 1, 91, 88
2, 624240, Note_on_c, 1, 61, 43
2, 624240, Note_on_c, 1, 67, 57
2, 624240, Note_on_c, 1, 64, 43
2, 624480, Note_on_c, 1, 64, 0
2, 624480, Note_on_c, 1, 61, 0
2, 624480, Note_on_c, 1, 67, 0
2, 624480, Note_on_c, 1, 58, 52
2, 624720, Note_on_c, 1, 58, 0
2, 624720, Note_on_c, 1, 61, 43
2, 624720, Note_on_c, 1, 64, 43
2, 624720, Note_on_c, 1, 67, 54
2, 624840, Note_on_c, 1, 91, 0
2, 624840, Note_on_c, 1, 79, 0
2, 624840, Note_on_c, 1, 76, 70
2, 624840, Note_on_c, 1, 88, 82
2, 624960, Note_on_c, 1, 88, 0
2, 624960, Note_on_c, 1, 64, 0
2, 624960, Note_on_c, 1, 67, 0
2, 624960, Note_on_c, 1, 61, 0
2, 624960, Note_on_c, 1, 76, 0
2, 624960, Note_on_c, 1, 89, 89
2, 624960, Note_on_c, 1, 77, 75
2, 624960, Note_on_c, 1, 56, 56
2, 625200, Note_on_c, 1, 56, 0
2, 625200, Note_on_c, 1, 60, 38
2, 625200, Note_on_c, 1, 65, 38
2, 625200, Note_on_c, 1, 68, 49
2, 625440, Note_on_c, 1, 68, 0
2, 625440, Note_on_c, 1, 60, 0
2, 625440, Note_on_c, 1, 65, 0
2, 625440, Note_on_c, 1, 56, 53
2, 625680, Note_on_c, 1, 56, 0
2, 625680, Note_on_c, 1, 77, 0
2, 625680, Note_on_c, 1, 89, 0
2, 625680, Note_on_c, 1, 92, 96
2, 625680, Note_on_c, 1, 80, 81
2, 625680, Note_on_c, 1, 65, 44
2, 625680, Note_on_c, 1, 68, 55
2, 625680, Note_on_c, 1, 60, 44
2, 625920, Note_on_c, 1, 60, 0
2, 625920, Note_on_c, 1, 65, 0
2, 625920, Note_on_c, 1, 68, 0
2, 625920, Note_on_c, 1, 56, 49
2, 626160, Note_on_c, 1, 56, 0
2, 626160, Note_on_c, 1, 65, 43
2, 626160, Note_on_c, 1, 68, 54
2, 626160, Note_on_c, 1, 60, 43
2, 626400, Note_on_c, 1, 60, 0
2, 626400, Note_on_c, 1, 65, 0
2, 626400, Note_on_c, 1, 68, 0
2, 626400, Note_on_c, 1, 56, 51
2, 626640, Note_on_c, 1, 56, 0
2, 626640, Note_on_c, 1, 65, 45
2, 626640, Note_on_c, 1, 68, 56
2, 626640, Note_on_c, 1, 60, 45
2, 626880, Note_on_c, 1, 60, 0
2, 626880, Note_on_c, 1, 65, 0
2, 626880, Note_on_c, 1, 68, 0
2, 626880, Note_on_c, 1, 56, 50
2, 627120, Note_on_c, 1, 56, 0
2, 627120, Note_on_c, 1, 80, 0
2, 627120, Note_on_c, 1, 92, 0
2, 627120, Note_on_c, 1, 92, 88
2, 627120, Note_on_c, 1, 80, 74
2, 627120, Note_on_c, 1, 60, 43
2, 627120, Note_on_c, 1, 68, 57
2, 627120, Note_on_c, 1, 65, 43
2, 627360, Note_on_c, 1, 65, 0
2, 627360, Note_on_c, 1, 60, 0
2, 627360, Note_on_c, 1, 68, 0
2, 627360, Note_on_c, 1, 56, 52
2, 627600, Note_on_c, 1, 56, 0
2, 627600, Note_on_c, 1, 60, 43
2, 627600, Note_on_c, 1, 65, 43
2, 627600, Note_on_c, 1, 68, 54
2, 627720, Note_on_c, 1, 80, 0
2, 627720, Note_on_c, 1, 92, 0
2, 627720, Note_on_c, 1, 89, 82
2, 627720, Note_on_c, 1, 77, 70
2, 627840, Note_on_c, 1, 77, 0
2, 627840, Note_on_c, 1, 65, 0
2, 627840, Note_on_c, 1, 68, 0
2, 627840, Note_on_c, 1, 60, 0
2, 627840, Note_on_c, 1, 89, 0
2, 627840, Note_on_c, 1, 34, 101
2, 627840, Note_on_c, 1, 46, 101
2, 627960, Note_on_c, 1, 61, 80
2, 628080, Note_on_c, 1, 61, 0
2, 628080, Note_on_c, 1, 46, 0
2, 628080, Note_on_c, 1, 34, 0
2, 628080, Note_on_c, 1, 58, 77
2, 628200, Note_on_c, 1, 58, 0
2, 628200, Note_on_c, 1, 66, 72
2, 628320, Note_on_c, 1, 66, 0
2, 628320, Note_on_c, 1, 49, 75
2, 628440, Note_on_c, 1, 49, 0
2, 628440, Note_on_c, 1, 54, 69
2, 628560, Note_on_c, 1, 54, 0
2, 628560, Note_on_c, 1, 58, 86
2, 628680, Note_on_c, 1, 66, 75
2, 628800, Note_on_c, 1, 66, 0
2, 628800, Note_on_c, 1, 58, 0
2, 628800, Note_on_c, 1, 61, 78
2, 628920, Note_on_c, 1, 61, 0
2, 628920, Note_on_c, 1, 70, 73
2, 629040, Note_on_c, 1, 70, 0
2, 629040, Note_on_c, 1, 54, 75
2, 629160, Note_on_c, 1, 54, 0
2, 629160, Note_on_c, 1, 58, 73
2, 629280, Note_on_c, 1, 58, 0
2, 629280, Note_on_c, 1, 61, 86
2, 629400, Note_on_c, 1, 70, 74
2, 629520, Note_on_c, 1, 70, 0
2, 629520, Note_on_c, 1, 61, 0
2, 629520, Note_on_c, 1, 66, 80
2, 629640, Note_on_c, 1, 66, 0
2, 629640, Note_on_c, 1, 73, 74
2, 629760, Note_on_c, 1, 73, 0
2, 629760, Note_on_c, 1, 58, 78
2, 629880, Note_on_c, 1, 58, 0
2, 629880, Note_on_c, 1, 61, 73
2, 630000, Note_on_c, 1, 61, 0
2, 630000, Note_on_c, 1, 66, 84
2, 630120, Note_on_c, 1, 73, 75
2, 630240, Note_on_c, 1, 73, 0
2, 630240, Note_on_c, 1, 66, 0
2, 630240, Note_on_c, 1, 70, 80
2, 630360, Note_on_c, 1, 70, 0
2, 630360, Note_on_c, 1, 78, 72
2, 630480, Note_on_c, 1, 78, 0
2, 630480, Note_on_c, 1, 61, 77
2, 630600, Note_on_c, 1, 61, 0
2, 630600, Note_on_c, 1, 66, 71
2, 630720, Note_on_c, 1, 66, 0
2, 630720, Note_on_c, 1, 70, 81
2, 630840, Note_on_c, 1, 78, 74
2, 630960, Note_on_c, 1, 78, 0
2, 630960, Note_on_c, 1, 70, 0
2, 630960, Note_on_c, 1, 73, 77
2, 631080, Note_on_c, 1, 73, 0
2, 631080, Note_on_c, 1, 82, 72
2, 631200, Note_on_c, 1, 82, 0
2, 631200, Note_on_c, 1, 66, 75
2, 631320, Note_on_c, 1, 66, 0
2, 631320, Note_on_c, 1, 70, 74
2, 631440, Note_on_c, 1, 70, 0
2, 631440, Note_on_c, 1, 73, 81
2, 631560, Note_on_c, 1, 82, 71
2, 631680, Note_on_c, 1, 82, 0
2, 631680, Note_on_c, 1, 73, 0
2, 631680, Note_on_c, 1, 78, 75
2, 631800, Note_on_c, 1, 78, 0
2, 631800, Note_on_c, 1, 85, 73
2, 631920, Note_on_c, 1, 85, 0
2, 631920, Note_on_c, 1, 70, 75
2, 632040, Note_on_c, 1, 70, 0
2, 632040, Note_on_c, 1, 73, 73
2, 632160, Note_on_c, 1, 73, 0
2, 632160, Note_on_c, 1, 78, 84
2, 632280, Note_on_c, 1, 85, 74
2, 632400, Note_on_c, 1, 85, 0
2, 632400, Note_on_c, 1, 78, 0
2, 632400, Note_on_c, 1, 82, 80
2, 632520, Note_on_c, 1, 82, 0
2, 632520, Note_on_c, 1, 90, 74
2, 632640, Note_on_c, 1, 90, 0
2, 632640, Note_on_c, 1, 73, 75
2, 632760, Note_on_c, 1, 73, 0
2, 632760, Note_on_c, 1, 78, 74
2, 632880, Note_on_c, 1, 78, 0
2, 632880, Note_on_c, 1, 82, 83
2, 633120, Note_on_c, 1, 82, 0
2, 633120, Note_on_c, 1, 90, 82
2, 633240, Note_on_c, 1, 90, 0
2, 633240, Note_on_c, 1, 85, 79
2, 633360, Note_on_c, 1, 85, 0
2, 633360, Note_on_c, 1, 94, 84
2, 633600, Note_on_c, 1, 94, 0
2, 633600, Note_on_c, 1, 48, 101
2, 633600, Note_on_c, 1, 36, 101
2, 633720, Note_on_c, 1, 63, 80
2, 633840, Note_on_c, 1, 63, 0
2, 633840, Note_on_c, 1, 36, 0
2, 633840, Note_on_c, 1, 48, 0
2, 633840, Note_on_c, 1, 60, 77
2, 633960, Note_on_c, 1, 60, 0
2, 633960, Note_on_c, 1, 69, 72
2, 634080, Note_on_c, 1, 69, 0
2, 634080, Note_on_c, 1, 51, 80
2, 634200, Note_on_c, 1, 51, 0
2, 634200, Note_on_c, 1, 57, 73
2, 634320, Note_on_c, 1, 57, 0
2, 634320, Note_on_c, 1, 60, 89
2, 634440, Note_on_c, 1, 69, 75
2, 634560, Note_on_c, 1, 69, 0
2, 634560, Note_on_c, 1, 60, 0
2, 634560, Note_on_c, 1, 63, 78
2, 634680, Note_on_c, 1, 63, 0
2, 634680, Note_on_c, 1, 72, 73
2, 634800, Note_on_c, 1, 72, 0
2, 634800, Note_on_c, 1, 57, 78
2, 634920, Note_on_c, 1, 57, 0
2, 634920, Note_on_c, 1, 60, 73
2, 635040, Note_on_c, 1, 60, 0
2, 635040, Note_on_c, 1, 63, 86
2, 635160, Note_on_c, 1, 72, 74
2, 635280, Note_on_c, 1, 72, 0
2, 635280, Note_on_c, 1, 63, 0
2, 635280, Note_on_c, 1, 69, 80
2, 635400, Note_on_c, 1, 69, 0
2, 635400, Note_on_c, 1, 75, 74
2, 635520, Note_on_c, 1, 75, 0
2, 635520, Note_on_c, 1, 60, 78
2, 635640, Note_on_c, 1, 60, 0
2, 635640, Note_on_c, 1, 63, 73
2, 635760, Note_on_c, 1, 63, 0
2, 635760, Note_on_c, 1, 69, 84
2, 635880, Note_on_c, 1, 75, 75
2, 636000, Note_on_c, 1, 75, 0
2, 636000, Note_on_c, 1, 69, 0
2, 636000, Note_on_c, 1, 72, 80
2, 636120, Note_on_c, 1, 72, 0
2, 636120, Note_on_c, 1, 81, 72
2, 636240, Note_on_c, 1, 81, 0
2, 636240, Note_on_c, 1, 63, 77
2, 636360, Note_on_c, 1, 63, 0
2, 636360, Note_on_c, 1, 69, 71
2, 636480, Note_on_c, 1, 69, 0
2, 636480, Note_on_c, 1, 72, 82
2, 636600, Note_on_c, 1, 81, 75
2, 636720, Note_on_c, 1, 81, 0
2, 636720, Note_on_c, 1, 72, 0
2, 636720, Note_on_c, 1, 75, 77
2, 636840, Note_on_c, 1, 75, 0
2, 636840, Note_on_c, 1, 84, 72
2, 636960, Note_on_c, 1, 84, 0
2, 636960, Note_on_c, 1, 69, 75
2, 637080, Note_on_c, 1, 69, 0
2, 637080, Note_on_c, 1, 72, 73
2, 637200, Note_on_c, 1, 72, 0
2, 637200, Note_on_c, 1, 75, 85
2, 637320, Note_on_c, 1, 84, 71
2, 637440, Note_on_c, 1, 84, 0
2, 637440, Note_on_c, 1, 75, 0
2, 637440, Note_on_c, 1, 81, 75
2, 637560, Note_on_c, 1, 81, 0
2, 637560, Note_on_c, 1, 87, 73
2, 637680, Note_on_c, 1, 87, 0
2, 637680, Note_on_c, 1, 72, 75
2, 637800, Note_on_c, 1, 72, 0
2, 637800, Note_on_c, 1, 75, 73
2, 637920, Note_on_c, 1, 75, 0
2, 637920, Note_on_c, 1, 81, 84
2, 638040, Note_on_c, 1, 87, 74
2, 638160, Note_on_c, 1, 87, 0
2, 638160, Note_on_c, 1, 81, 0
2, 638160, Note_on_c, 1, 84, 80
2, 638280, Note_on_c, 1, 84, 0
2, 638280, Note_on_c, 1, 93, 74
2, 638400, Note_on_c, 1, 93, 0
2, 638400, Note_on_c, 1, 75, 80
2, 638520, Note_on_c, 1, 75, 0
2, 638520, Note_on_c, 1, 81, 74
2, 638640, Note_on_c, 1, 81, 0
2, 638640, Note_on_c, 1, 84, 85
2, 638880, Note_on_c, 1, 84, 0
2, 638880, Note_on_c, 1, 93, 83
2, 639000, Note_on_c, 1, 93, 0
2, 639000, Note_on_c, 1, 87, 77
2, 639120, Note_on_c, 1, 87, 0
2, 639120, Note_on_c, 1, 96, 83
2, 639360, Note_on_c, 1, 96, 0
2, 639360, Note_on_c, 1, 37, 101
2, 639360, Note_on_c, 1, 49, 101
2, 639480, Note_on_c, 1, 65, 74
2, 639600, Note_on_c, 1, 65, 0
2, 639600, Note_on_c, 1, 49, 0
2, 639600, Note_on_c, 1, 37, 0
2, 639600, Note_on_c, 1, 61, 77
2, 639720, Note_on_c, 1, 61, 0
2, 639720, Note_on_c, 1, 70, 72
2, 639840, Note_on_c, 1, 70, 0
2, 639840, Note_on_c, 1, 53, 78
2, 639960, Note_on_c, 1, 53, 0
2, 639960, Note_on_c, 1, 58, 73
2, 640080, Note_on_c, 1, 58, 0
2, 640080, Note_on_c, 1, 61, 84
2, 640320, Note_on_c, 1, 61, 0
2, 640320, Note_on_c, 1, 70, 75
2, 640440, Note_on_c, 1, 70, 0
2, 640440, Note_on_c, 1, 65, 72
2, 640560, Note_on_c, 1, 65, 0
2, 640560, Note_on_c, 1, 73, 73
2, 640800, Note_on_c, 1, 73, 0
2, 640800, Note_on_c, 1, 52, 101
2, 640800, Note_on_c, 1, 40, 101
2, 640920, Note_on_c, 1, 67, 75
2, 641040, Note_on_c, 1, 67, 0
2, 641040, Note_on_c, 1, 40, 0
2, 641040, Note_on_c, 1, 52, 0
2, 641040, Note_on_c, 1, 64, 77
2, 641160, Note_on_c, 1, 64, 0
2, 641160, Note_on_c, 1, 72, 72
2, 641280, Note_on_c, 1, 72, 0
2, 641280, Note_on_c, 1, 55, 80
2, 641400, Note_on_c, 1, 55, 0
2, 641400, Note_on_c, 1, 60, 73
2, 641520, Note_on_c, 1, 60, 0
2, 641520, Note_on_c, 1, 64, 82
2, 641760, Note_on_c, 1, 64, 0
2, 641760, Note_on_c, 1, 72, 75
2, 641880, Note_on_c, 1, 72, 0
2, 641880, Note_on_c, 1, 67, 72
2, 642000, Note_on_c, 1, 67, 0
2, 642000, Note_on_c, 1, 76, 73
2, 642240, Note_on_c, 1, 76, 0
2, 642240, Note_on_c, 1, 53, 101
2, 642240, Note_on_c, 1, 41, 101
2, 642360, Note_on_c, 1, 68, 73
2, 642480, Note_on_c, 1, 68, 0
2, 642480, Note_on_c, 1, 41, 0
2, 642480, Note_on_c, 1, 53, 0
2, 642480, Note_on_c, 1, 65, 77
2, 642600, Note_on_c, 1, 65, 0
2, 642600, Note_on_c, 1, 73, 72
2, 642720, Note_on_c, 1, 73, 0
2, 642720, Note_on_c, 1, 56, 80
2, 642840, Note_on_c, 1, 56, 0
2, 642840, Note_on_c, 1, 61, 73
2, 642960, Note_on_c, 1, 61, 0
2, 642960, Note_on_c, 1, 65, 86
2, 643200, Note_on_c, 1, 65, 0
2, 643200, Note_on_c, 1, 73, 75
2, 643320, Note_on_c, 1, 73, 0
2, 643320, Note_on_c, 1, 68, 71
2, 643440, Note_on_c, 1, 68, 0
2, 643440, Note_on_c, 1, 77, 73
2, 643680, Note_on_c, 1, 77, 0
2, 643680, Note_on_c, 1, 43, 101
2, 643680, Note_on_c, 1, 55, 101
2, 643800, Note_on_c, 1, 70, 80
2, 643920, Note_on_c, 1, 70, 0
2, 643920, Note_on_c, 1, 55, 0
2, 643920, Note_on_c, 1, 43, 0
2, 643920, Note_on_c, 1, 67, 77
2, 644040, Note_on_c, 1, 67, 0
2, 644040, Note_on_c, 1, 76, 72
2, 644160, Note_on_c, 1, 76, 0
2, 644160, Note_on_c, 1, 58, 80
2, 644280, Note_on_c, 1, 58, 0
2, 644280, Note_on_c, 1, 64, 73
2, 644400, Note_on_c, 1, 64, 0
2, 644400, Note_on_c, 1, 67, 86
2, 644640, Note_on_c, 1, 67, 0
2, 644640, Note_on_c, 1, 76, 75
2, 644760, Note_on_c, 1, 76, 0
2, 644760, Note_on_c, 1, 70, 73
2, 644880, Note_on_c, 1, 70, 0
2, 644880, Note_on_c, 1, 79, 73
2, 645120, Note_on_c, 1, 79, 0
2, 645120, Note_on_c, 1, 44, 75
2, 645240, Note_on_c, 1, 72, 64
2, 645360, Note_on_c, 1, 72, 0
2, 645360, Note_on_c, 1, 44, 0
2, 645360, Note_on_c, 1, 68, 69
2, 645480, Note_on_c, 1, 68, 0
2, 645480, Note_on_c, 1, 77, 64
2, 645600, Note_on_c, 1, 77, 0
2, 645600, Note_on_c, 1, 56, 69
2, 645720, Note_on_c, 1, 56, 0
2, 645720, Note_on_c, 1, 60, 61
2, 645840, Note_on_c, 1, 60, 0
2, 645840, Note_on_c, 1, 46, 77
2, 645960, Note_on_c, 1, 73, 64
2, 646080, Note_on_c, 1, 73, 0
2, 646080, Note_on_c, 1, 46, 0
2, 646080, Note_on_c, 1, 70, 69
2, 646200, Note_on_c, 1, 70, 0
2, 646200, Note_on_c, 1, 79, 67
2, 646320, Note_on_c, 1, 79, 0
2, 646320, Note_on_c, 1, 58, 69
2, 646440, Note_on_c, 1, 58, 0
2, 646440, Note_on_c, 1, 61, 64
2, 646560, Note_on_c, 1, 61, 0
2, 646560, Note_on_c, 1, 48, 78
2, 646680, Note_on_c, 1, 75, 69
2, 646800, Note_on_c, 1, 75, 0
2, 646800, Note_on_c, 1, 48, 0
2, 646800, Note_on_c, 1, 72, 73
2, 646920, Note_on_c, 1, 72, 0
2, 646920, Note_on_c, 1, 81, 69
2, 647040, Note_on_c, 1, 81, 0
2, 647040, Note_on_c, 1, 60, 71
2, 647160, Note_on_c, 1, 60, 0
2, 647160, Note_on_c, 1, 63, 67
2, 647280, Note_on_c, 1, 63, 0
2, 647280, Note_on_c, 1, 49, 81
2, 647400, Note_on_c, 1, 77, 71
2, 647520, Note_on_c, 1, 77, 0
2, 647520, Note_on_c, 1, 49, 0
2, 647520, Note_on_c, 1, 73, 68
2, 647640, Note_on_c, 1, 73, 0
2, 647640, Note_on_c, 1, 82, 70
2, 647760, Note_on_c, 1, 82, 0
2, 647760, Note_on_c, 1, 61, 77
2, 647880, Note_on_c, 1, 61, 0
2, 647880, Note_on_c, 1, 65, 71
2, 648000, Note_on_c, 1, 65, 0
2, 648000, Note_on_c, 1, 52, 80
2, 648120, Note_on_c, 1, 79, 71
2, 648240, Note_on_c, 1, 79, 0
2, 648240, Note_on_c, 1, 52, 0
2, 648240, Note_on_c, 1, 76, 73
2, 648360, Note_on_c, 1, 76, 0
2, 648360, Note_on_c, 1, 84, 70
2, 648480, Note_on_c, 1, 84, 0
2, 648480, Note_on_c, 1, 64, 77
2, 648600, Note_on_c, 1, 64, 0
2, 648600, Note_on_c, 1, 67, 73
2, 648720, Note_on_c, 1, 67, 0
2, 648720, Note_on_c, 1, 53, 83
2, 648840, Note_on_c, 1, 80, 69
2, 648960, Note_on_c, 1, 80, 0
2, 648960, Note_on_c, 1, 53, 0
2, 648960, Note_on_c, 1, 77, 73
2, 649080, Note_on_c, 1, 77, 0
2, 649080, Note_on_c, 1, 85, 72
2, 649200, Note_on_c, 1, 85, 0
2, 649200, Note_on_c, 1, 65, 77
2, 649320, Note_on_c, 1, 65, 0
2, 649320, Note_on_c, 1, 68, 72
2, 649440, Note_on_c, 1, 68, 0
2, 649440, Note_on_c, 1, 55, 84
2, 649560, Note_on_c, 1, 82, 74
2, 649680, Note_on_c, 1, 82, 0
2, 649680, Note_on_c, 1, 55, 0
2, 649680, Note_on_c, 1, 79, 78
2, 649800, Note_on_c, 1, 79, 0
2, 649800, Note_on_c, 1, 88, 74
2, 649920, Note_on_c, 1, 88, 0
2, 649920, Note_on_c, 1, 67, 78
2, 650040, Note_on_c, 1, 67, 0
2, 650040, Note_on_c, 1, 70, 74
2, 650160, Note_on_c, 1, 70, 0
2, 650160, Note_on_c, 1, 56, 85
2, 650280, Note_on_c, 1, 84, 75
2, 650400, Note_on_c, 1, 84, 0
2, 650400, Note_on_c, 1, 56, 0
2, 650400, Note_on_c, 1, 80, 77
2, 650520, Note_on_c, 1, 80, 0
2, 650520, Note_on_c, 1, 89, 75
2, 650640, Note_on_c, 1, 89, 0
2, 650640, Note_on_c, 1, 68, 77
2, 650760, Note_on_c, 1, 68, 0
2, 650760, Note_on_c, 1, 72, 73
2, 650880, Note_on_c, 1, 72, 0
2, 650880, Note_on_c, 1, 58, 86
2, 651000, Note_on_c, 1, 85, 78
2, 651120, Note_on_c, 1, 85, 0
2, 651120, Note_on_c, 1, 58, 0
2, 651120, Note_on_c, 1, 82, 79
2, 651240, Note_on_c, 1, 82, 0
2, 651240, Note_on_c, 1, 91, 74
2, 651360, Note_on_c, 1, 91, 0
2, 651360, Note_on_c, 1, 70, 81
2, 651480, Note_on_c, 1, 70, 0
2, 651480, Note_on_c, 1, 73, 77
2, 651600, Note_on_c, 1, 73, 0
2, 651600, Note_on_c, 1, 60, 89
2, 651720, Note_on_c, 1, 87, 74
2, 651840, Note_on_c, 1, 87, 0
2, 651840, Note_on_c, 1, 60, 0
2, 651840, Note_on_c, 1, 84, 79
2, 651960, Note_on_c, 1, 84, 0
2, 651960, Note_on_c, 1, 93, 74
2, 652080, Note_on_c, 1, 93, 0
2, 652080, Note_on_c, 1, 72, 80
2, 652200, Note_on_c, 1, 72, 0
2, 652200, Note_on_c, 1, 75, 78
2, 652320, Note_on_c, 1, 75, 0
2, 652320, Note_on_c, 1, 61, 89
2, 652440, Note_on_c, 1, 89, 79
2, 652560, Note_on_c, 1, 89, 0
2, 652560, Note_on_c, 1, 61, 0
2, 652560, Note_on_c, 1, 85, 80
2, 652680, Note_on_c, 1, 85, 0
2, 652680, Note_on_c, 1, 94, 79
2, 652800, Note_on_c, 1, 94, 0
2, 652800, Note_on_c, 1, 73, 83
2, 652920, Note_on_c, 1, 73, 0
2, 652920, Note_on_c, 1, 77, 80
2, 653040, Note_on_c, 1, 77, 0
2, 653040, Note_on_c, 1, 61, 92
2, 653160, Note_on_c, 1, 89, 81
2, 653280, Note_on_c, 1, 89, 0
2, 653280, Note_on_c, 1, 61, 0
2, 653280, Note_on_c, 1, 85, 83
2, 653400, Note_on_c, 1, 85, 0
2, 653400, Note_on_c, 1, 94, 80
2, 653520, Note_on_c, 1, 94, 0
2, 653520, Note_on_c, 1, 73, 84
2, 653640, Note_on_c, 1, 73, 0
2, 653640, Note_on_c, 1, 77, 80
2, 653760, Note_on_c, 1, 77, 0
2, 653760, Note_on_c, 1, 41, 108
2, 653880, Note_on_c, 1, 41, 0
2, 653880, Note_on_c, 1, 53, 100
2, 654000, Note_on_c, 1, 53, 0
2, 654000, Note_on_c, 1, 56, 92
2, 654120, Note_on_c, 1, 56, 0
2, 654120, Note_on_c, 1, 89, 78
2, 654240, Note_on_c, 1, 89, 0
2, 654240, Note_on_c, 1, 85, 82
2, 654360, Note_on_c, 1, 85, 0
2, 654360, Note_on_c, 1, 94, 79
2, 654480, Note_on_c, 1, 94, 0
2, 654480, Note_on_c, 1, 89, 89
2, 654600, Note_on_c, 1, 89, 0
2, 654600, Note_on_c, 1, 85, 83
2, 654720, Note_on_c, 1, 85, 0
2, 654720, Note_on_c, 1, 82, 78
2, 654840, Note_on_c, 1, 82, 0
2, 654840, Note_on_c, 1, 77, 78
2, 654960, Note_on_c, 1, 77, 0
2, 654960, Note_on_c, 1, 73, 82
2, 655080, Note_on_c, 1, 73, 0
2, 655080, Note_on_c, 1, 82, 79
2, 655200, Note_on_c, 1, 82, 0
2, 655200, Note_on_c, 1, 77, 86
2, 655320, Note_on_c, 1, 77, 0
2, 655320, Note_on_c, 1, 73, 82
2, 655440, Note_on_c, 1, 73, 0
2, 655440, Note_on_c, 1, 70, 80
2, 655560, Note_on_c, 1, 70, 0
2, 655560, Note_on_c, 1, 65, 74
2, 655680, Note_on_c, 1, 65, 0
2, 655680, Note_on_c, 1, 61, 78
2, 655800, Note_on_c, 1, 61, 0
2, 655800, Note_on_c, 1, 70, 73
2, 655920, Note_on_c, 1, 70, 0
2, 655920, Note_on_c, 1, 65, 81
2, 656040, Note_on_c, 1, 65, 0
2, 656040, Note_on_c, 1, 61, 78
2, 656160, Note_on_c, 1, 61, 0
2, 656160, Note_on_c, 1, 58, 74
2, 656280, Note_on_c, 1, 58, 0
2, 656280, Note_on_c, 1, 53, 74
2, 656400, Note_on_c, 1, 53, 0
2, 656400, Note_on_c, 1, 49, 74
2, 656520, Note_on_c, 1, 49, 0
2, 656520, Note_on_c, 1, 58, 74
2, 656640, Note_on_c, 1, 58, 0
2, 656640, Note_on_c, 1, 53, 79
2, 656760, Note_on_c, 1, 53, 0
2, 656760, Note_on_c, 1, 49, 71
2, 656880, Note_on_c, 1, 49, 0
2, 656880, Note_on_c, 1, 46, 74
2, 657000, Note_on_c, 1, 46, 0
2, 657000, Note_on_c, 1, 49, 71
2, 657120, Note_on_c, 1, 49, 0
2, 657120, Note_on_c, 1, 53, 74
2, 657240, Note_on_c, 1, 53, 0
2, 657240, Note_on_c, 1, 58, 72
2, 657360, Note_on_c, 1, 58, 0
2, 657360, Note_on_c, 1, 61, 80
2, 657480, Note_on_c, 1, 61, 0
2, 657480, Note_on_c, 1, 65, 75
2, 657600, Note_on_c, 1, 65, 0
2, 657600, Note_on_c, 1, 70, 75
2, 657720, Note_on_c, 1, 70, 0
2, 657720, Note_on_c, 1, 73, 75
2, 657840, Note_on_c, 1, 73, 0
2, 657840, Note_on_c, 1, 77, 79
2, 657960, Note_on_c, 1, 77, 0
2, 657960, Note_on_c, 1, 73, 73
2, 658080, Note_on_c, 1, 73, 0
2, 658080, Note_on_c, 1, 70, 80
2, 658200, Note_on_c, 1, 70, 0
2, 658200, Note_on_c, 1, 73, 74
2, 658320, Note_on_c, 1, 73, 0
2, 658320, Note_on_c, 1, 77, 79
2, 658440, Note_on_c, 1, 77, 0
2, 658440, Note_on_c, 1, 82, 74
2, 658560, Note_on_c, 1, 82, 0
2, 658560, Note_on_c, 1, 85, 82
2, 658680, Note_on_c, 1, 85, 0
2, 658680, Note_on_c, 1, 82, 75
2, 658800, Note_on_c, 1, 82, 0
2, 658800, Note_on_c, 1, 89, 83
2, 658920, Note_on_c, 1, 89, 0
2, 658920, Note_on_c, 1, 85, 78
2, 659040, Note_on_c, 1, 85, 0
2, 659040, Note_on_c, 1, 94, 83
2, 659160, Note_on_c, 1, 94, 0
2, 659160, Note_on_c, 1, 89, 78
2, 659280, Note_on_c, 1, 89, 0
2, 659280, Note_on_c, 1, 85, 80
2, 659400, Note_on_c, 1, 85, 0
2, 659400, Note_on_c, 1, 82, 75
2, 659520, Note_on_c, 1, 82, 0
2, 659520, Note_on_c, 1, 62, 105
2, 659640, Note_on_c, 1, 62, 0
2, 659640, Note_on_c, 1, 74, 100
2, 659760, Note_on_c, 1, 74, 0
2, 659760, Note_on_c, 1, 77, 92
2, 659880, Note_on_c, 1, 77, 0
2, 659880, Note_on_c, 1, 92, 78
2, 660000, Note_on_c, 1, 92, 0
2, 660000, Note_on_c, 1, 89, 85
2, 660120, Note_on_c, 1, 89, 0
2, 660120, Note_on_c, 1, 95, 81
2, 660240, Note_on_c, 1, 95, 0
2, 660240, Note_on_c, 1, 92, 92
2, 660360, Note_on_c, 1, 92, 0
2, 660360, Note_on_c, 1, 89, 80
2, 660480, Note_on_c, 1, 89, 0
2, 660480, Note_on_c, 1, 86, 81
2, 660600, Note_on_c, 1, 86, 0
2, 660600, Note_on_c, 1, 83, 77
2, 660720, Note_on_c, 1, 83, 0
2, 660720, Note_on_c, 1, 80, 81
2, 660840, Note_on_c, 1, 80, 0
2, 660840, Note_on_c, 1, 77, 79
2, 660960, Note_on_c, 1, 77, 0
2, 660960, Note_on_c, 1, 83, 85
2, 661080, Note_on_c, 1, 83, 0
2, 661080, Note_on_c, 1, 80, 82
2, 661200, Note_on_c, 1, 80, 0
2, 661200, Note_on_c, 1, 77, 78
2, 661320, Note_on_c, 1, 77, 0
2, 661320, Note_on_c, 1, 74, 74
2, 661440, Note_on_c, 1, 74, 0
2, 661440, Note_on_c, 1, 71, 75
2, 661560, Note_on_c, 1, 71, 0
2, 661560, Note_on_c, 1, 68, 73
2, 661680, Note_on_c, 1, 68, 0
2, 661680, Note_on_c, 1, 74, 81
2, 661800, Note_on_c, 1, 74, 0
2, 661800, Note_on_c, 1, 71, 78
2, 661920, Note_on_c, 1, 71, 0
2, 661920, Note_on_c, 1, 68, 74
2, 662040, Note_on_c, 1, 68, 0
2, 662040, Note_on_c, 1, 65, 74
2, 662160, Note_on_c, 1, 65, 0
2, 662160, Note_on_c, 1, 62, 74
2, 662280, Note_on_c, 1, 62, 0
2, 662280, Note_on_c, 1, 59, 74
2, 662400, Note_on_c, 1, 59, 0
2, 662400, Note_on_c, 1, 68, 79
2, 662520, Note_on_c, 1, 68, 0
2, 662520, Note_on_c, 1, 65, 71
2, 662640, Note_on_c, 1, 65, 0
2, 662640, Note_on_c, 1, 62, 74
2, 662760, Note_on_c, 1, 62, 0
2, 662760, Note_on_c, 1, 59, 71
2, 662880, Note_on_c, 1, 59, 0
2, 662880, Note_on_c, 1, 56, 74
2, 663000, Note_on_c, 1, 56, 0
2, 663000, Note_on_c, 1, 53, 72
2, 663120, Note_on_c, 1, 53, 0
2, 663120, Note_on_c, 1, 50, 80
2, 663240, Note_on_c, 1, 50, 0
2, 663240, Note_on_c, 1, 47, 75
2, 663360, Note_on_c, 1, 47, 0
2, 663360, Note_on_c, 1, 50, 75
2, 663480, Note_on_c, 1, 50, 0
2, 663480, Note_on_c, 1, 53, 75
2, 663600, Note_on_c, 1, 53, 0
2, 663600, Note_on_c, 1, 56, 79
2, 663720, Note_on_c, 1, 56, 0
2, 663720, Note_on_c, 1, 59, 73
2, 663840, Note_on_c, 1, 59, 0
2, 663840, Note_on_c, 1, 62, 80
2, 663960, Note_on_c, 1, 62, 0
2, 663960, Note_on_c, 1, 65, 74
2, 664080, Note_on_c, 1, 65, 0
2, 664080, Note_on_c, 1, 68, 79
2, 664200, Note_on_c, 1, 68, 0
2, 664200, Note_on_c, 1, 71, 74
2, 664320, Note_on_c, 1, 71, 0
2, 664320, Note_on_c, 1, 74, 82
2, 664440, Note_on_c, 1, 74, 0
2, 664440, Note_on_c, 1, 77, 75
2, 664560, Note_on_c, 1, 77, 0
2, 664560, Note_on_c, 1, 80, 83
2, 664680, Note_on_c, 1, 80, 0
2, 664680, Note_on_c, 1, 83, 78
2, 664800, Note_on_c, 1, 83, 0
2, 664800, Note_on_c, 1, 86, 83
2, 664920, Note_on_c, 1, 86, 0
2, 664920, Note_on_c, 1, 89, 78
2, 665040, Note_on_c, 1, 89, 0
2, 665040, Note_on_c, 1, 92, 80
2, 665160, Note_on_c, 1, 92, 0
2, 665160, Note_on_c, 1, 95, 75
2, 665280, Note_on_c, 1, 95, 0
2, 665280, Note_on_c, 1, 36, 125
2, 665520, Note_on_c, 1, 36, 0
2, 665640, Note_on_c, 1, 92, 78
2, 665760, Note_on_c, 1, 92, 0
2, 665760, Note_on_c, 1, 89, 82
2, 665880, Note_on_c, 1, 89, 0
2, 665880, Note_on_c, 1, 96, 79
2, 666000, Note_on_c, 1, 96, 0
2, 666000, Note_on_c, 1, 92, 92
2, 666120, Note_on_c, 1, 92, 0
2, 666120, Note_on_c, 1, 89, 83
2, 666240, Note_on_c, 1, 89, 0
2, 666240, Note_on_c, 1, 84, 82
2, 666360, Note_on_c, 1, 84, 0
2, 666360, Note_on_c, 1, 80, 78
2, 666480, Note_on_c, 1, 80, 0
2, 666480, Note_on_c, 1, 77, 82
2, 666600, Note_on_c, 1, 77, 0
2, 666600, Note_on_c, 1, 84, 79
2, 666720, Note_on_c, 1, 84, 0
2, 666720, Note_on_c, 1, 80, 86
2, 666840, Note_on_c, 1, 80, 0
2, 666840, Note_on_c, 1, 77, 82
2, 666960, Note_on_c, 1, 77, 0
2, 666960, Note_on_c, 1, 72, 80
2, 667080, Note_on_c, 1, 72, 0
2, 667080, Note_on_c, 1, 68, 74
2, 667200, Note_on_c, 1, 68, 0
2, 667200, Note_on_c, 1, 65, 78
2, 667320, Note_on_c, 1, 65, 0
2, 667320, Note_on_c, 1, 72, 73
2, 667440, Note_on_c, 1, 72, 0
2, 667440, Note_on_c, 1, 68, 81
2, 667560, Note_on_c, 1, 68, 0
2, 667560, Note_on_c, 1, 65, 78
2, 667680, Note_on_c, 1, 65, 0
2, 667680, Note_on_c, 1, 60, 74
2, 667800, Note_on_c, 1, 60, 0
2, 667800, Note_on_c, 1, 56, 74
2, 667920, Note_on_c, 1, 56, 0
2, 667920, Note_on_c, 1, 53, 74
2, 668040, Note_on_c, 1, 53, 0
2, 668040, Note_on_c, 1, 60, 74
2, 668160, Note_on_c, 1, 60, 0
2, 668160, Note_on_c, 1, 56, 79
2, 668280, Note_on_c, 1, 56, 0
2, 668280, Note_on_c, 1, 53, 71
2, 668400, Note_on_c, 1, 53, 0
2, 668400, Note_on_c, 1, 48, 74
2, 668520, Note_on_c, 1, 48, 0
2, 668520, Note_on_c, 1, 44, 71
2, 668640, Note_on_c, 1, 44, 0
2, 668640, Note_on_c, 1, 41, 74
2, 668760, Note_on_c, 1, 41, 0
2, 668760, Note_on_c, 1, 36, 72
2, 668880, Note_on_c, 1, 36, 0
2, 668880, Note_on_c, 1, 41, 80
2, 669000, Note_on_c, 1, 41, 0
2, 669000, Note_on_c, 1, 44, 75
2, 669120, Note_on_c, 1, 44, 0
2, 669120, Note_on_c, 1, 48, 75
2, 669240, Note_on_c, 1, 48, 0
2, 669240, Note_on_c, 1, 53, 75
2, 669360, Note_on_c, 1, 53, 0
2, 669360, Note_on_c, 1, 56, 79
2, 669480, Note_on_c, 1, 56, 0
2, 669480, Note_on_c, 1, 60, 73
2, 669600, Note_on_c, 1, 60, 0
2, 669600, Note_on_c, 1, 65, 80
2, 669720, Note_on_c, 1, 65, 0
2, 669720, Note_on_c, 1, 68, 74
2, 669840, Note_on_c, 1, 68, 0
2, 669840, Note_on_c, 1, 72, 79
2, 669960, Note_on_c, 1, 72, 0
2, 669960, Note_on_c, 1, 77, 74
2, 670080, Note_on_c, 1, 77, 0
2, 670080, Note_on_c, 1, 80, 78
2, 670200, Note_on_c, 1, 80, 0
2, 670200, Note_on_c, 1, 84, 75
2, 670320, Note_on_c, 1, 84, 0
2, 670320, Note_on_c, 1, 89, 83
2, 670440, Note_on_c, 1, 89, 0
2, 670440, Note_on_c, 1, 92, 78
2, 670560, Note_on_c, 1, 92, 0
2, 670560, Note_on_c, 1, 96, 83
2, 670680, Note_on_c, 1, 96, 0
2, 670680, Note_on_c, 1, 92, 78
2, 670800, Note_on_c, 1, 92, 0
2, 670800, Note_on_c, 1, 89, 80
2, 670920, Note_on_c, 1, 89, 0
2, 670920, Note_on_c, 1, 84, 75
2, 671040, Note_on_c, 1, 84, 0
2, 671040, Note_on_c, 1, 36, 82
2, 671160, Note_on_c, 1, 36, 0
2, 671160, Note_on_c, 1, 48, 72
2, 671280, Note_on_c, 1, 48, 0
2, 671280, Note_on_c, 1, 52, 73
2, 671400, Note_on_c, 1, 52, 0
2, 671400, Note_on_c, 1, 91, 72
2, 671400, Note_on_c, 1, 55, 74
2, 671520, Note_on_c, 1, 55, 0
2, 671520, Note_on_c, 1, 91, 0
2, 671520, Note_on_c, 1, 88, 77
2, 671520, Note_on_c, 1, 58, 74
2, 671640, Note_on_c, 1, 88, 0
2, 671640, Note_on_c, 1, 94, 73
2, 671760, Note_on_c, 1, 94, 0
2, 671760, Note_on_c, 1, 58, 0
2, 671760, Note_on_c, 1, 91, 78
2, 671880, Note_on_c, 1, 91, 0
2, 671880, Note_on_c, 1, 88, 77
2, 672000, Note_on_c, 1, 88, 0
2, 672000, Note_on_c, 1, 84, 74
2, 672120, Note_on_c, 1, 84, 0
2, 672120, Note_on_c, 1, 82, 72
2, 672240, Note_on_c, 1, 82, 0
2, 672240, Note_on_c, 1, 79, 77
2, 672360, Note_on_c, 1, 79, 0
2, 672360, Note_on_c, 1, 76, 73
2, 672480, Note_on_c, 1, 76, 0
2, 672480, Note_on_c, 1, 72, 78
2, 672600, Note_on_c, 1, 72, 0
2, 672600, Note_on_c, 1, 70, 75
2, 672720, Note_on_c, 1, 70, 0
2, 672720, Note_on_c, 1, 67, 71
2, 672840, Note_on_c, 1, 67, 0
2, 672840, Note_on_c, 1, 64, 70
2, 672960, Note_on_c, 1, 64, 0
2, 672960, Note_on_c, 1, 60, 73
2, 673080, Note_on_c, 1, 60, 0
2, 673080, Note_on_c, 1, 58, 69
2, 673200, Note_on_c, 1, 58, 0
2, 673200, Note_on_c, 1, 55, 74
2, 673320, Note_on_c, 1, 55, 0
2, 673320, Note_on_c, 1, 52, 69
2, 673440, Note_on_c, 1, 52, 0
2, 673440, Note_on_c, 1, 48, 71
2, 673560, Note_on_c, 1, 48, 0
2, 673560, Note_on_c, 1, 46, 70
2, 673680, Note_on_c, 1, 46, 0
2, 673680, Note_on_c, 1, 43, 70
2, 673800, Note_on_c, 1, 43, 0
2, 673800, Note_on_c, 1, 40, 70
2, 673920, Note_on_c, 1, 40, 0
2, 673920, Note_on_c, 1, 36, 75
2, 674040, Note_on_c, 1, 36, 0
2, 674040, Note_on_c, 1, 40, 67
2, 674160, Note_on_c, 1, 40, 0
2, 674160, Note_on_c, 1, 43, 70
2, 674280, Note_on_c, 1, 43, 0
2, 674280, Note_on_c, 1, 46, 67
2, 674400, Note_on_c, 1, 46, 0
2, 674400, Note_on_c, 1, 48, 70
2, 674520, Note_on_c, 1, 48, 0
2, 674520, Note_on_c, 1, 52, 68
2, 674640, Note_on_c, 1, 52, 0
2, 674640, Note_on_c, 1, 55, 76
2, 674760, Note_on_c, 1, 55, 0
2, 674760, Note_on_c, 1, 58, 71
2, 674880, Note_on_c, 1, 58, 0
2, 674880, Note_on_c, 1, 60, 71
2, 675000, Note_on_c, 1, 60, 0
2, 675000, Note_on_c, 1, 64, 71
2, 675120, Note_on_c, 1, 64, 0
2, 675120, Note_on_c, 1, 67, 73
2, 675240, Note_on_c, 1, 67, 0
2, 675240, Note_on_c, 1, 70, 69
2, 675360, Note_on_c, 1, 70, 0
2, 675360, Note_on_c, 1, 72, 73
2, 675480, Note_on_c, 1, 72, 0
2, 675480, Note_on_c, 1, 76, 66
2, 675600, Note_on_c, 1, 76, 0
2, 675600, Note_on_c, 1, 79, 70
2, 675720, Note_on_c, 1, 79, 0
2, 675720, Note_on_c, 1, 76, 66
2, 675840, Note_on_c, 1, 76, 0
2, 675840, Note_on_c, 1, 72, 70
2, 675960, Note_on_c, 1, 72, 0
2, 675960, Note_on_c, 1, 76, 66
2, 676080, Note_on_c, 1, 76, 0
2, 676080, Note_on_c, 1, 79, 70
2, 676200, Note_on_c, 1, 79, 0
2, 676200, Note_on_c, 1, 76, 60
2, 676320, Note_on_c, 1, 76, 0
2, 676320, Note_on_c, 1, 82, 65
2, 676440, Note_on_c, 1, 82, 0
2, 676440, Note_on_c, 1, 79, 58
2, 676560, Note_on_c, 1, 79, 0
2, 676560, Note_on_c, 1, 76, 63
2, 676680, Note_on_c, 1, 76, 0
2, 676680, Note_on_c, 1, 79, 56
2, 676800, Note_on_c, 1, 79, 0
2, 676800, Note_on_c, 1, 82, 57
2, 677280, Note_on_c, 1, 82, 0
2, 677520, Note_on_c, 1, 49, 37
2, 677760, Note_on_c, 1, 49, 0
2, 677760, Note_on_c, 1, 49, 35
2, 678000, Note_on_c, 1, 49, 0
2, 678000, Note_on_c, 1, 49, 35
2, 678240, Note_on_c, 1, 49, 0
2, 678240, Note_on_c, 1, 48, 36
2, 678720, Note_on_c, 1, 48, 0
2, 678960, Note_on_c, 1, 79, 46
2, 678960, Note_on_c, 1, 76, 46
2, 679200, Note_on_c, 1, 76, 0
2, 679200, Note_on_c, 1, 79, 0
2, 679200, Note_on_c, 1, 76, 42
2, 679200, Note_on_c, 1, 79, 42
2, 679440, Note_on_c, 1, 79, 0
2, 679440, Note_on_c, 1, 76, 0
2, 679440, Note_on_c, 1, 76, 46
2, 679440, Note_on_c, 1, 79, 46
2, 679680, Note_on_c, 1, 79, 0
2, 679680, Note_on_c, 1, 76, 0
2, 679680, Note_on_c, 1, 82, 46
2, 679680, Note_on_c, 1, 79, 46
2, 680160, Note_on_c, 1, 79, 0
2, 680160, Note_on_c, 1, 82, 0
2, 680400, Note_on_c, 1, 49, 35
2, 680640, Note_on_c, 1, 49, 0
2, 680640, Note_on_c, 1, 49, 33
2, 680880, Note_on_c, 1, 49, 0
2, 680880, Note_on_c, 1, 49, 33
2, 681120, Note_on_c, 1, 49, 0
2, 681120, Note_on_c, 1, 48, 34
2, 681600, Note_on_c, 1, 48, 0
2, 681840, Note_on_c, 1, 64, 39
2, 681840, Note_on_c, 1, 67, 39
2, 682080, Note_on_c, 1, 67, 0
2, 682080, Note_on_c, 1, 64, 0
2, 682080, Note_on_c, 1, 64, 37
2, 682080, Note_on_c, 1, 67, 37
2, 682320, Note_on_c, 1, 67, 0
2, 682320, Note_on_c, 1, 64, 0
2, 682320, Note_on_c, 1, 67, 37
2, 682320, Note_on_c, 1, 64, 37
2, 682560, Note_on_c, 1, 64, 0
2, 682560, Note_on_c, 1, 67, 0
2, 682560, Note_on_c, 1, 67, 41
2, 682560, Note_on_c, 1, 70, 41
2, 683040, Note_on_c, 1, 70, 0
2, 683040, Note_on_c, 1, 67, 0
2, 683280, Note_on_c, 1, 37, 32
2, 683520, Note_on_c, 1, 37, 0
2, 683520, Note_on_c, 1, 37, 30
2, 683760, Note_on_c, 1, 37, 0
2, 683760, Note_on_c, 1, 37, 30
2, 684000, Note_on_c, 1, 37, 0
2, 684000, Note_on_c, 1, 36, 31
2, 684720, Note_on_c, 1, 36, 0
2, 684720, Note_on_c, 1, 37, 31
2, 684960, Note_on_c, 1, 37, 0
2, 684960, Note_on_c, 1, 37, 29
2, 685200, Note_on_c, 1, 37, 0
2, 685200, Note_on_c, 1, 37, 29
2, 685440, Note_on_c, 1, 37, 0
2, 685440, Note_on_c, 1, 36, 29
2, 686160, Note_on_c, 1, 36, 0
2, 686160, Note_on_c, 1, 70, 32
2, 686160, Note_on_c, 1, 67, 32
2, 686160, Note_on_c, 1, 76, 32
2, 686160, Note_on_c, 1, 37, 21
2, 686400, Note_on_c, 1, 37, 0
2, 686400, Note_on_c, 1, 70, 0
2, 686400, Note_on_c, 1, 67, 0
2, 686400, Note_on_c, 1, 76, 0
2, 686400, Note_on_c, 1, 76, 36
2, 686400, Note_on_c, 1, 70, 36
2, 686400, Note_on_c, 1, 67, 36
2, 686400, Note_on_c, 1, 37, 24
2, 686640, Note_on_c, 1, 37, 0
2, 686640, Note_on_c, 1, 76, 0
2, 686640, Note_on_c, 1, 70, 0
2, 686640, Note_on_c, 1, 67, 0
2, 686640, Note_on_c, 1, 76, 39
2, 686640, Note_on_c, 1, 67, 39
2, 686640, Note_on_c, 1, 70, 39
2, 686640, Note_on_c, 1, 37, 26
2, 686880, Note_on_c, 1, 37, 0
2, 686880, Note_on_c, 1, 76, 0
2, 686880, Note_on_c, 1, 67, 0
2, 686880, Note_on_c, 1, 70, 0
2, 686880, Note_on_c, 1, 76, 43
2, 686880, Note_on_c, 1, 70, 43
2, 686880, Note_on_c, 1, 67, 43
2, 686880, Note_on_c, 1, 36, 28
2, 687600, Note_on_c, 1, 36, 0
2, 687600, Note_on_c, 1, 76, 0
2, 687600, Note_on_c, 1, 70, 0
2, 687600, Note_on_c, 1, 67, 0
2, 687600, Note_on_c, 1, 84, 87
2, 687600, Note_on_c, 1, 82, 87
2, 687600, Note_on_c, 1, 79, 87
2, 687600, Note_on_c, 1, 76, 87
2, 687600, Note_on_c, 1, 88, 102
2, 687600, Note_on_c, 1, 36, 70
2, 687600, Note_on_c, 1, 48, 83
2, 687840, Note_on_c, 1, 48, 0
2, 687840, Note_on_c, 1, 88, 0
2, 687840, Note_on_c, 1, 82, 0
2, 687840, Note_on_c, 1, 79, 0
2, 687840, Note_on_c, 1, 84, 0
2, 687840, Note_on_c, 1, 36, 0
2, 687840, Note_on_c, 1, 76, 0
2, 687840, Note_on_c, 1, 76, 78
2, 687840, Note_on_c, 1, 84, 78
2, 687840, Note_on_c, 1, 79, 78
2, 687840, Note_on_c, 1, 88, 93
2, 687840, Note_on_c, 1, 82, 78
2, 687840, Note_on_c, 1, 48, 78
2, 687840, Note_on_c, 1, 36, 65
2, 688080, Note_on_c, 1, 36, 0
2, 688080, Note_on_c, 1, 82, 0
2, 688080, Note_on_c, 1, 84, 0
2, 688080, Note_on_c, 1, 79, 0
2, 688080, Note_on_c, 1, 76, 0
2, 688080, Note_on_c, 1, 48, 0
2, 688080, Note_on_c, 1, 88, 0
2, 688080, Note_on_c, 1, 79, 78
2, 688080, Note_on_c, 1, 76, 78
2, 688080, Note_on_c, 1, 82, 78
2, 688080, Note_on_c, 1, 84, 78
2, 688080, Note_on_c, 1, 88, 93
2, 688080, Note_on_c, 1, 48, 78
2, 688080, Note_on_c, 1, 36, 65
2, 688320, Note_on_c, 1, 36, 0
2, 688320, Note_on_c, 1, 88, 0
2, 688320, Note_on_c, 1, 76, 0
2, 688320, Note_on_c, 1, 82, 0
2, 688320, Note_on_c, 1, 79, 0
2, 688320, Note_on_c, 1, 48, 0
2, 688320, Note_on_c, 1, 84, 0
2, 688320, Note_on_c, 1, 84, 87
2, 688320, Note_on_c, 1, 80, 87
2, 688320, Note_on_c, 1, 89, 102
2, 688320, Note_on_c, 1, 77, 87
2, 688320, Note_on_c, 1, 29, 71
2, 688320, Note_on_c, 1, 41, 85
2, 688560, Note_on_c, 1, 41, 0
2, 688560, Note_on_c, 1, 29, 0
2, 688560, Note_on_c, 1, 65, 30
2, 688560, Note_on_c, 1, 60, 30
2, 688800, Note_on_c, 1, 60, 0
2, 688800, Note_on_c, 1, 80, 0
2, 688800, Note_on_c, 1, 77, 0
2, 688800, Note_on_c, 1, 84, 0
2, 688800, Note_on_c, 1, 65, 0
2, 688800, Note_on_c, 1, 89, 0
2, 688800, Note_on_c, 1, 56, 37
2, 689040, Note_on_c, 1, 56, 0
2, 689040, Note_on_c, 1, 65, 42
2, 689040, Note_on_c, 1, 60, 32
2, 689280, Note_on_c, 1, 60, 0
2, 689280, Note_on_c, 1, 65, 0
2, 689280, Note_on_c, 1, 56, 37
2, 689520, Note_on_c, 1, 56, 0
2, 689520, Note_on_c, 1, 60, 30
2, 689520, Note_on_c, 1, 65, 37
2, 689760, Note_on_c, 1, 65, 0
2, 689760, Note_on_c, 1, 60, 0
2, 689760, Note_on_c, 1, 56, 42
2, 690000, Note_on_c, 1, 56, 0
2, 690000, Note_on_c, 1, 65, 37
2, 690000, Note_on_c, 1, 60, 30
2, 690240, Note_on_c, 1, 60, 0
2, 690240, Note_on_c, 1, 65, 0
2, 690240, Note_on_c, 1, 56, 37
2, 690480, Note_on_c, 1, 56, 0
2, 690480, Note_on_c, 1, 68, 66
2, 690480, Note_on_c, 1, 65, 42
2, 690480, Note_on_c, 1, 60, 32
2, 690720, Note_on_c, 1, 60, 0
2, 690720, Note_on_c, 1, 65, 0
2, 690720, Note_on_c, 1, 56, 37
2, 690960, Note_on_c, 1, 56, 0
2, 690960, Note_on_c, 1, 65, 41
2, 690960, Note_on_c, 1, 60, 31
2, 691080, Note_on_c, 1, 68, 0
2, 691080, Note_on_c, 1, 72, 58
2, 691200, Note_on_c, 1, 72, 0
2, 691200, Note_on_c, 1, 60, 0
2, 691200, Note_on_c, 1, 65, 0
2, 691200, Note_on_c, 1, 77, 63
2, 691200, Note_on_c, 1, 56, 42
2, 691440, Note_on_c, 1, 56, 0
2, 691440, Note_on_c, 1, 60, 30
2, 691440, Note_on_c, 1, 65, 36
2, 691680, Note_on_c, 1, 65, 0
2, 691680, Note_on_c, 1, 60, 0
2, 691680, Note_on_c, 1, 56, 37
2, 691920, Note_on_c, 1, 56, 0
2, 691920, Note_on_c, 1, 77, 0
2, 691920, Note_on_c, 1, 80, 68
2, 691920, Note_on_c, 1, 65, 42
2, 691920, Note_on_c, 1, 60, 32
2, 692160, Note_on_c, 1, 60, 0
2, 692160, Note_on_c, 1, 65, 0
2, 692160, Note_on_c, 1, 56, 37
2, 692400, Note_on_c, 1, 56, 0
2, 692400, Note_on_c, 1, 65, 37
2, 692400, Note_on_c, 1, 60, 30
2, 692520, Note_on_c, 1, 80, 0
2, 692520, Note_on_c, 1, 77, 60
2, 692640, Note_on_c, 1, 77, 0
2, 692640, Note_on_c, 1, 60, 0
2, 692640, Note_on_c, 1, 65, 0
2, 692640, Note_on_c, 1, 76, 63
2, 692640, Note_on_c, 1, 58, 42
2, 692880, Note_on_c, 1, 58, 0
2, 692880, Note_on_c, 1, 67, 37
2, 692880, Note_on_c, 1, 60, 30
2, 693120, Note_on_c, 1, 60, 0
2, 693120, Note_on_c, 1, 67, 0
2, 693120, Note_on_c, 1, 58, 37
2, 693360, Note_on_c, 1, 58, 0
2, 693360, Note_on_c, 1, 76, 0
2, 693360, Note_on_c, 1, 79, 68
2, 693360, Note_on_c, 1, 67, 42
2, 693360, Note_on_c, 1, 60, 32
2, 693600, Note_on_c, 1, 60, 0
2, 693600, Note_on_c, 1, 67, 0
2, 693600, Note_on_c, 1, 58, 37
2, 693840, Note_on_c, 1, 58, 0
2, 693840, Note_on_c, 1, 67, 41
2, 693840, Note_on_c, 1, 60, 31
2, 693960, Note_on_c, 1, 79, 0
2, 693960, Note_on_c, 1, 76, 60
2, 694080, Note_on_c, 1, 76, 0
2, 694080, Note_on_c, 1, 60, 0
2, 694080, Note_on_c, 1, 67, 0
2, 694080, Note_on_c, 1, 77, 63
2, 694080, Note_on_c, 1, 56, 42
2, 694320, Note_on_c, 1, 56, 0
2, 694320, Note_on_c, 1, 60, 30
2, 694320, Note_on_c, 1, 65, 36
2, 694560, Note_on_c, 1, 65, 0
2, 694560, Note_on_c, 1, 60, 0
2, 694560, Note_on_c, 1, 56, 37
2, 694800, Note_on_c, 1, 56, 0
2, 694800, Note_on_c, 1, 77, 0
2, 694800, Note_on_c, 1, 72, 62
2, 694800, Note_on_c, 1, 60, 32
2, 694800, Note_on_c, 1, 65, 42
2, 695040, Note_on_c, 1, 65, 0
2, 695040, Note_on_c, 1, 60, 0
2, 695040, Note_on_c, 1, 56, 37
2, 695280, Note_on_c, 1, 56, 0
2, 695280, Note_on_c, 1, 60, 30
2, 695280, Note_on_c, 1, 65, 37
2, 695520, Note_on_c, 1, 65, 0
2, 695520, Note_on_c, 1, 60, 0
2, 695520, Note_on_c, 1, 56, 42
2, 695760, Note_on_c, 1, 56, 0
2, 695760, Note_on_c, 1, 60, 30
2, 695760, Note_on_c, 1, 65, 37
2, 696000, Note_on_c, 1, 65, 0
2, 696000, Note_on_c, 1, 60, 0
2, 696000, Note_on_c, 1, 56, 42
2, 696240, Note_on_c, 1, 56, 0
2, 696240, Note_on_c, 1, 72, 0
2, 696240, Note_on_c, 1, 80, 71
2, 696240, Note_on_c, 1, 68, 60
2, 696240, Note_on_c, 1, 60, 34
2, 696240, Note_on_c, 1, 65, 44
2, 696480, Note_on_c, 1, 65, 0
2, 696480, Note_on_c, 1, 60, 0
2, 696480, Note_on_c, 1, 56, 40
2, 696720, Note_on_c, 1, 56, 0
2, 696720, Note_on_c, 1, 60, 33
2, 696720, Note_on_c, 1, 65, 44
2, 696840, Note_on_c, 1, 68, 0
2, 696840, Note_on_c, 1, 80, 0
2, 696840, Note_on_c, 1, 84, 62
2, 696840, Note_on_c, 1, 72, 52
2, 696960, Note_on_c, 1, 72, 0
2, 696960, Note_on_c, 1, 65, 0
2, 696960, Note_on_c, 1, 60, 0
2, 696960, Note_on_c, 1, 84, 0
2, 696960, Note_on_c, 1, 77, 61
2, 696960, Note_on_c, 1, 89, 73
2, 696960, Note_on_c, 1, 56, 46
2, 697200, Note_on_c, 1, 56, 0
2, 697200, Note_on_c, 1, 68, 40
2, 697200, Note_on_c, 1, 60, 34
2, 697200, Note_on_c, 1, 65, 40
2, 697440, Note_on_c, 1, 65, 0
2, 697440, Note_on_c, 1, 68, 0
2, 697440, Note_on_c, 1, 60, 0
2, 697440, Note_on_c, 1, 56, 42
2, 697680, Note_on_c, 1, 56, 0
2, 697680, Note_on_c, 1, 89, 0
2, 697680, Note_on_c, 1, 77, 0
2, 697680, Note_on_c, 1, 92, 78
2, 697680, Note_on_c, 1, 80, 65
2, 697680, Note_on_c, 1, 68, 47
2, 697680, Note_on_c, 1, 60, 36
2, 697680, Note_on_c, 1, 65, 47
2, 697920, Note_on_c, 1, 65, 0
2, 697920, Note_on_c, 1, 68, 0
2, 697920, Note_on_c, 1, 60, 0
2, 697920, Note_on_c, 1, 56, 43
2, 698160, Note_on_c, 1, 56, 0
2, 698160, Note_on_c, 1, 68, 44
2, 698160, Note_on_c, 1, 65, 44
2, 698160, Note_on_c, 1, 60, 36
2, 698280, Note_on_c, 1, 80, 0
2, 698280, Note_on_c, 1, 92, 0
2, 698280, Note_on_c, 1, 89, 71
2, 698280, Note_on_c, 1, 77, 59
2, 698400, Note_on_c, 1, 77, 0
2, 698400, Note_on_c, 1, 65, 0
2, 698400, Note_on_c, 1, 60, 0
2, 698400, Note_on_c, 1, 68, 0
2, 698400, Note_on_c, 1, 89, 0
2, 698400, Note_on_c, 1, 88, 76
2, 698400, Note_on_c, 1, 76, 64
2, 698400, Note_on_c, 1, 58, 49
2, 698640, Note_on_c, 1, 58, 0
2, 698640, Note_on_c, 1, 64, 36
2, 698640, Note_on_c, 1, 60, 36
2, 698640, Note_on_c, 1, 67, 45
2, 698880, Note_on_c, 1, 67, 0
2, 698880, Note_on_c, 1, 64, 0
2, 698880, Note_on_c, 1, 60, 0
2, 698880, Note_on_c, 1, 58, 46
2, 699120, Note_on_c, 1, 58, 0
2, 699120, Note_on_c, 1, 76, 0
2, 699120, Note_on_c, 1, 88, 0
2, 699120, Note_on_c, 1, 91, 82
2, 699120, Note_on_c, 1, 79, 68
2, 699120, Note_on_c, 1, 64, 39
2, 699120, Note_on_c, 1, 67, 51
2, 699120, Note_on_c, 1, 60, 39
2, 699360, Note_on_c, 1, 60, 0
2, 699360, Note_on_c, 1, 64, 0
2, 699360, Note_on_c, 1, 67, 0
2, 699360, Note_on_c, 1, 58, 47
2, 699600, Note_on_c, 1, 58, 0
2, 699600, Note_on_c, 1, 64, 38
2, 699600, Note_on_c, 1, 67, 51
2, 699600, Note_on_c, 1, 60, 38
2, 699720, Note_on_c, 1, 79, 0
2, 699720, Note_on_c, 1, 91, 0
2, 699720, Note_on_c, 1, 88, 77
2, 699720, Note_on_c, 1, 76, 65
2, 699840, Note_on_c, 1, 76, 0
2, 699840, Note_on_c, 1, 67, 0
2, 699840, Note_on_c, 1, 60, 0
2, 699840, Note_on_c, 1, 64, 0
2, 699840, Note_on_c, 1, 88, 0
2, 699840, Note_on_c, 1, 90, 99
2, 699840, Note_on_c, 1, 78, 82
2, 699840, Note_on_c, 1, 57, 55
2, 700080, Note_on_c, 1, 57, 0
2, 700080, Note_on_c, 1, 66, 48
2, 700080, Note_on_c, 1, 63, 48
2, 700080, Note_on_c, 1, 60, 39
2, 700320, Note_on_c, 1, 60, 0
2, 700320, Note_on_c, 1, 66, 0
2, 700320, Note_on_c, 1, 63, 0
2, 700320, Note_on_c, 1, 57, 49
2, 700560, Note_on_c, 1, 57, 0
2, 700560, Note_on_c, 1, 78, 0
2, 700560, Note_on_c, 1, 90, 0
2, 700560, Note_on_c, 1, 72, 63
2, 700560, Note_on_c, 1, 84, 79
2, 700560, Note_on_c, 1, 66, 55
2, 700560, Note_on_c, 1, 60, 41
2, 700560, Note_on_c, 1, 63, 55
2, 700800, Note_on_c, 1, 63, 0
2, 700800, Note_on_c, 1, 66, 0
2, 700800, Note_on_c, 1, 60, 0
2, 700800, Note_on_c, 1, 57, 49
2, 701040, Note_on_c, 1, 57, 0
2, 701040, Note_on_c, 1, 60, 39
2, 701040, Note_on_c, 1, 63, 49
2, 701040, Note_on_c, 1, 66, 49
2, 701280, Note_on_c, 1, 66, 0
2, 701280, Note_on_c, 1, 60, 0
2, 701280, Note_on_c, 1, 63, 0
2, 701280, Note_on_c, 1, 57, 55
2, 701520, Note_on_c, 1, 57, 0
2, 701520, Note_on_c, 1, 66, 49
2, 701520, Note_on_c, 1, 60, 39
2, 701520, Note_on_c, 1, 63, 49
2, 701760, Note_on_c, 1, 63, 0
2, 701760, Note_on_c, 1, 66, 0
2, 701760, Note_on_c, 1, 60, 0
2, 701760, Note_on_c, 1, 57, 55
2, 702000, Note_on_c, 1, 57, 0
2, 702000, Note_on_c, 1, 84, 0
2, 702000, Note_on_c, 1, 72, 0
2, 702000, Note_on_c, 1, 75, 70
2, 702000, Note_on_c, 1, 87, 84
2, 702000, Note_on_c, 1, 63, 40
2, 702000, Note_on_c, 1, 66, 53
2, 702000, Note_on_c, 1, 60, 40
2, 702240, Note_on_c, 1, 60, 0
2, 702240, Note_on_c, 1, 63, 0
2, 702240, Note_on_c, 1, 66, 0
2, 702240, Note_on_c, 1, 57, 48
2, 702480, Note_on_c, 1, 57, 0
2, 702480, Note_on_c, 1, 63, 39
2, 702480, Note_on_c, 1, 66, 52
2, 702480, Note_on_c, 1, 60, 39
2, 702600, Note_on_c, 1, 87, 0
2, 702600, Note_on_c, 1, 75, 0
2, 702600, Note_on_c, 1, 72, 66
2, 702600, Note_on_c, 1, 84, 78
2, 702720, Note_on_c, 1, 84, 0
2, 702720, Note_on_c, 1, 66, 0
2, 702720, Note_on_c, 1, 60, 0
2, 702720, Note_on_c, 1, 63, 0
2, 702720, Note_on_c, 1, 72, 0
2, 702720, Note_on_c, 1, 89, 99
2, 702720, Note_on_c, 1, 77, 82
2, 702720, Note_on_c, 1, 57, 55
2, 702960, Note_on_c, 1, 57, 0
2, 702960, Note_on_c, 1, 65, 48
2, 702960, Note_on_c, 1, 63, 48
2, 702960, Note_on_c, 1, 60, 39
2, 703200, Note_on_c, 1, 60, 0
2, 703200, Note_on_c, 1, 65, 0
2, 703200, Note_on_c, 1, 63, 0
2, 703200, Note_on_c, 1, 57, 49
2, 703440, Note_on_c, 1, 57, 0
2, 703440, Note_on_c, 1, 77, 0
2, 703440, Note_on_c, 1, 89, 0
2, 703440, Note_on_c, 1, 70, 63
2, 703440, Note_on_c, 1, 82, 79
2, 703440, Note_on_c, 1, 65, 55
2, 703440, Note_on_c, 1, 61, 55
2, 703680, Note_on_c, 1, 61, 0
2, 703680, Note_on_c, 1, 65, 0
2, 703680, Note_on_c, 1, 58, 49
2, 703920, Note_on_c, 1, 58, 0
2, 703920, Note_on_c, 1, 61, 49
2, 703920, Note_on_c, 1, 65, 49
2, 704160, Note_on_c, 1, 65, 0
2, 704160, Note_on_c, 1, 61, 0
2, 704160, Note_on_c, 1, 58, 55
2, 704400, Note_on_c, 1, 58, 0
2, 704400, Note_on_c, 1, 65, 49
2, 704400, Note_on_c, 1, 61, 49
2, 704640, Note_on_c, 1, 61, 0
2, 704640, Note_on_c, 1, 65, 0
2, 704640, Note_on_c, 1, 58, 55
2, 704880, Note_on_c, 1, 58, 0
2, 704880, Note_on_c, 1, 82, 0
2, 704880, Note_on_c, 1, 70, 0
2, 704880, Note_on_c, 1, 73, 70
2, 704880, Note_on_c, 1, 85, 84
2, 704880, Note_on_c, 1, 67, 53
2, 704880, Note_on_c, 1, 64, 40
2, 705120, Note_on_c, 1, 64, 0
2, 705120, Note_on_c, 1, 67, 0
2, 705120, Note_on_c, 1, 58, 48
2, 705360, Note_on_c, 1, 58, 0
2, 705360, Note_on_c, 1, 64, 39
2, 705360, Note_on_c, 1, 67, 52
2, 705480, Note_on_c, 1, 85, 0
2, 705480, Note_on_c, 1, 73, 0
2, 705480, Note_on_c, 1, 82, 78
2, 705480, Note_on_c, 1, 70, 66
2, 705600, Note_on_c, 1, 70, 0
2, 705600, Note_on_c, 1, 67, 0
2, 705600, Note_on_c, 1, 64, 0
2, 705600, Note_on_c, 1, 82, 0
2, 705600, Note_on_c, 1, 68, 75
2, 705600, Note_on_c, 1, 80, 90
2, 705600, Note_on_c, 1, 48, 55
2, 705840, Note_on_c, 1, 48, 0
2, 705840, Note_on_c, 1, 53, 39
2, 705840, Note_on_c, 1, 56, 48
2, 705840, Note_on_c, 1, 60, 48
2, 706080, Note_on_c, 1, 60, 0
2, 706080, Note_on_c, 1, 53, 0
2, 706080, Note_on_c, 1, 56, 0
2, 706080, Note_on_c, 1, 48, 49
2, 706320, Note_on_c, 1, 48, 0
2, 706320, Note_on_c, 1, 80, 0
2, 706320, Note_on_c, 1, 68, 0
2, 706320, Note_on_c, 1, 84, 84
2, 706320, Note_on_c, 1, 72, 70
2, 706320, Note_on_c, 1, 56, 40
2, 706320, Note_on_c, 1, 60, 53
2, 706320, Note_on_c, 1, 53, 40
2, 706560, Note_on_c, 1, 53, 0
2, 706560, Note_on_c, 1, 56, 0
2, 706560, Note_on_c, 1, 60, 0
2, 706560, Note_on_c, 1, 48, 48
2, 706800, Note_on_c, 1, 48, 0
2, 706800, Note_on_c, 1, 56, 39
2, 706800, Note_on_c, 1, 53, 39
2, 706800, Note_on_c, 1, 60, 52
2, 706920, Note_on_c, 1, 72, 0
2, 706920, Note_on_c, 1, 84, 0
2, 706920, Note_on_c, 1, 80, 78
2, 706920, Note_on_c, 1, 68, 66
2, 707040, Note_on_c, 1, 68, 0
2, 707040, Note_on_c, 1, 53, 0
2, 707040, Note_on_c, 1, 60, 0
2, 707040, Note_on_c, 1, 56, 0
2, 707040, Note_on_c, 1, 80, 0
2, 707040, Note_on_c, 1, 79, 90
2, 707040, Note_on_c, 1, 67, 75
2, 707040, Note_on_c, 1, 46, 55
2, 707280, Note_on_c, 1, 46, 0
2, 707280, Note_on_c, 1, 48, 39
2, 707280, Note_on_c, 1, 52, 48
2, 707280, Note_on_c, 1, 55, 48
2, 707520, Note_on_c, 1, 55, 0
2, 707520, Note_on_c, 1, 48, 0
2, 707520, Note_on_c, 1, 52, 0
2, 707520, Note_on_c, 1, 46, 49
2, 707760, Note_on_c, 1, 46, 0
2, 707760, Note_on_c, 1, 67, 0
2, 707760, Note_on_c, 1, 79, 0
2, 707760, Note_on_c, 1, 79, 77
2, 707760, Note_on_c, 1, 91, 92
2, 707760, Note_on_c, 1, 52, 39
2, 707760, Note_on_c, 1, 48, 39
2, 707760, Note_on_c, 1, 55, 51
2, 708000, Note_on_c, 1, 55, 0
2, 708000, Note_on_c, 1, 52, 0
2, 708000, Note_on_c, 1, 48, 0
2, 708000, Note_on_c, 1, 46, 47
2, 708240, Note_on_c, 1, 46, 0
2, 708240, Note_on_c, 1, 55, 50
2, 708240, Note_on_c, 1, 48, 38
2, 708240, Note_on_c, 1, 52, 38
2, 708360, Note_on_c, 1, 91, 0
2, 708360, Note_on_c, 1, 79, 0
2, 708360, Note_on_c, 1, 76, 72
2, 708360, Note_on_c, 1, 88, 85
2, 708460, Note_on_c, 1, 78, 84
2, 708460, Note_on_c, 1, 90, 103
2, 708480, Note_on_c, 1, 88, 0
2, 708480, Note_on_c, 1, 76, 0
2, 708480, Note_on_c, 1, 52, 0
2, 708480, Note_on_c, 1, 48, 0
2, 708480, Note_on_c, 1, 55, 0
2, 708480, Note_on_c, 1, 45, 53
2, 708720, Note_on_c, 1, 45, 0
2, 708720, Note_on_c, 1, 51, 38
2, 708720, Note_on_c, 1, 57, 47
2, 708720, Note_on_c, 1, 54, 47
2, 708940, Note_on_c, 1, 45, 48
2, 708960, Note_on_c, 1, 54, 0
2, 708960, Note_on_c, 1, 57, 0
2, 708960, Note_on_c, 1, 51, 0
2, 709180, Note_on_c, 1, 78, 0
2, 709180, Note_on_c, 1, 45, 0
2, 709180, Note_on_c, 1, 90, 0
2, 709200, Note_on_c, 1, 72, 69
2, 709200, Note_on_c, 1, 84, 86
2, 709200, Note_on_c, 1, 51, 53
2, 709200, Note_on_c, 1, 57, 53
2, 709200, Note_on_c, 1, 54, 53
2, 709440, Note_on_c, 1, 54, 0
2, 709440, Note_on_c, 1, 51, 0
2, 709440, Note_on_c, 1, 57, 0
2, 709440, Note_on_c, 1, 45, 48
2, 709680, Note_on_c, 1, 45, 0
2, 709680, Note_on_c, 1, 51, 48
2, 709680, Note_on_c, 1, 57, 48
2, 709680, Note_on_c, 1, 54, 48
2, 709920, Note_on_c, 1, 54, 0
2, 709920, Note_on_c, 1, 51, 0
2, 709920, Note_on_c, 1, 57, 0
2, 709920, Note_on_c, 1, 45, 53
2, 710160, Note_on_c, 1, 45, 0
2, 710160, Note_on_c, 1, 51, 48
2, 710160, Note_on_c, 1, 57, 48
2, 710160, Note_on_c, 1, 54, 48
2, 710400, Note_on_c, 1, 54, 0
2, 710400, Note_on_c, 1, 51, 0
2, 710400, Note_on_c, 1, 57, 0
2, 710400, Note_on_c, 1, 45, 53
2, 710640, Note_on_c, 1, 45, 0
2, 710640, Note_on_c, 1, 84, 0
2, 710640, Note_on_c, 1, 72, 0
2, 710640, Note_on_c, 1, 87, 92
2, 710640, Note_on_c, 1, 75, 77
2, 710640, Note_on_c, 1, 54, 45
2, 710640, Note_on_c, 1, 57, 59
2, 710640, Note_on_c, 1, 51, 45
2, 710880, Note_on_c, 1, 51, 0
2, 710880, Note_on_c, 1, 54, 0
2, 710880, Note_on_c, 1, 57, 0
2, 710880, Note_on_c, 1, 45, 49
2, 711120, Note_on_c, 1, 45, 0
2, 711120, Note_on_c, 1, 54, 39
2, 711120, Note_on_c, 1, 57, 55
2, 711120, Note_on_c, 1, 51, 39
2, 711240, Note_on_c, 1, 75, 0
2, 711240, Note_on_c, 1, 87, 0
2, 711240, Note_on_c, 1, 72, 72
2, 711240, Note_on_c, 1, 84, 85
2, 711360, Note_on_c, 1, 84, 0
2, 711360, Note_on_c, 1, 57, 0
2, 711360, Note_on_c, 1, 51, 0
2, 711360, Note_on_c, 1, 54, 0
2, 711360, Note_on_c, 1, 72, 0
2, 711360, Note_on_c, 1, 89, 103
2, 711360, Note_on_c, 1, 77, 84
2, 711360, Note_on_c, 1, 45, 57
2, 711600, Note_on_c, 1, 45, 0
2, 711600, Note_on_c, 1, 57, 49
2, 711600, Note_on_c, 1, 53, 49
2, 711600, Note_on_c, 1, 51, 39
2, 711840, Note_on_c, 1, 51, 0
2, 711840, Note_on_c, 1, 57, 0
2, 711840, Note_on_c, 1, 53, 0
2, 711840, Note_on_c, 1, 45, 49
2, 712080, Note_on_c, 1, 45, 0
2, 712080, Note_on_c, 1, 77, 0
2, 712080, Note_on_c, 1, 89, 0
2, 712080, Note_on_c, 1, 82, 86
2, 712080, Note_on_c, 1, 70, 69
2, 712080, Note_on_c, 1, 49, 57
2, 712080, Note_on_c, 1, 53, 57
2, 712080, Note_on_c, 1, 58, 57
2, 712320, Note_on_c, 1, 58, 0
2, 712320, Note_on_c, 1, 49, 0
2, 712320, Note_on_c, 1, 53, 0
2, 712320, Note_on_c, 1, 46, 49
2, 712560, Note_on_c, 1, 46, 0
2, 712560, Note_on_c, 1, 49, 49
2, 712560, Note_on_c, 1, 53, 49
2, 712560, Note_on_c, 1, 58, 49
2, 712800, Note_on_c, 1, 58, 0
2, 712800, Note_on_c, 1, 49, 0
2, 712800, Note_on_c, 1, 53, 0
2, 712800, Note_on_c, 1, 46, 57
2, 713040, Note_on_c, 1, 46, 0
2, 713040, Note_on_c, 1, 49, 49
2, 713040, Note_on_c, 1, 53, 49
2, 713040, Note_on_c, 1, 58, 49
2, 713280, Note_on_c, 1, 58, 0
2, 713280, Note_on_c, 1, 49, 0
2, 713280, Note_on_c, 1, 53, 0
2, 713280, Note_on_c, 1, 46, 57
2, 713520, Note_on_c, 1, 46, 0
2, 713520, Note_on_c, 1, 70, 0
2, 713520, Note_on_c, 1, 82, 0
2, 713520, Note_on_c, 1, 73, 77
2, 713520, Note_on_c, 1, 85, 92
2, 713520, Note_on_c, 1, 55, 56
2, 713520, Note_on_c, 1, 58, 56
2, 713520, Note_on_c, 1, 52, 40
2, 713760, Note_on_c, 1, 52, 0
2, 713760, Note_on_c, 1, 55, 0
2, 713760, Note_on_c, 1, 58, 0
2, 713760, Note_on_c, 1, 46, 49
2, 714000, Note_on_c, 1, 46, 0
2, 714000, Note_on_c, 1, 52, 39
2, 714000, Note_on_c, 1, 58, 55
2, 714000, Note_on_c, 1, 55, 55
2, 714120, Note_on_c, 1, 85, 0
2, 714120, Note_on_c, 1, 73, 0
2, 714120, Note_on_c, 1, 70, 72
2, 714120, Note_on_c, 1, 82, 85
2, 714240, Note_on_c, 1, 82, 0
2, 714240, Note_on_c, 1, 58, 0
2, 714240, Note_on_c, 1, 55, 0
2, 714240, Note_on_c, 1, 52, 0
2, 714240, Note_on_c, 1, 70, 0
2, 714240, Note_on_c, 1, 68, 82
2, 714240, Note_on_c, 1, 80, 99
2, 714240, Note_on_c, 1, 48, 57
2, 714480, Note_on_c, 1, 48, 0
2, 714480, Note_on_c, 1, 60, 49
2, 714480, Note_on_c, 1, 56, 49
2, 714480, Note_on_c, 1, 53, 39
2, 714720, Note_on_c, 1, 53, 0
2, 714720, Note_on_c, 1, 60, 0
2, 714720, Note_on_c, 1, 56, 0
2, 714720, Note_on_c, 1, 48, 49
2, 714960, Note_on_c, 1, 48, 0
2, 714960, Note_on_c, 1, 80, 0
2, 714960, Note_on_c, 1, 68, 0
2, 714960, Note_on_c, 1, 84, 92
2, 714960, Note_on_c, 1, 72, 77
2, 714960, Note_on_c, 1, 53, 40
2, 714960, Note_on_c, 1, 60, 56
2, 714960, Note_on_c, 1, 56, 40
2, 715200, Note_on_c, 1, 56, 0
2, 715200, Note_on_c, 1, 53, 0
2, 715200, Note_on_c, 1, 60, 0
2, 715200, Note_on_c, 1, 48, 49
2, 715440, Note_on_c, 1, 48, 0
2, 715440, Note_on_c, 1, 53, 39
2, 715440, Note_on_c, 1, 60, 55
2, 715440, Note_on_c, 1, 56, 39
2, 715560, Note_on_c, 1, 72, 0
2, 715560, Note_on_c, 1, 84, 0
2, 715560, Note_on_c, 1, 80, 85
2, 715560, Note_on_c, 1, 68, 72
2, 715680, Note_on_c, 1, 68, 0
2, 715680, Note_on_c, 1, 60, 0
2, 715680, Note_on_c, 1, 56, 0
2, 715680, Note_on_c, 1, 53, 0
2, 715680, Note_on_c, 1, 80, 0
2, 715680, Note_on_c, 1, 79, 99
2, 715680, Note_on_c, 1, 67, 82
2, 715680, Note_on_c, 1, 48, 57
2, 715920, Note_on_c, 1, 48, 0
2, 715920, Note_on_c, 1, 60, 49
2, 715920, Note_on_c, 1, 52, 49
2, 715920, Note_on_c, 1, 55, 39
2, 716160, Note_on_c, 1, 55, 0
2, 716160, Note_on_c, 1, 60, 0
2, 716160, Note_on_c, 1, 52, 0
2, 716160, Note_on_c, 1, 48, 49
2, 716400, Note_on_c, 1, 48, 0
2, 716400, Note_on_c, 1, 67, 0
2, 716400, Note_on_c, 1, 79, 0
2, 716400, Note_on_c, 1, 84, 101
2, 716400, Note_on_c, 1, 72, 84
2, 716400, Note_on_c, 1, 60, 49
2, 716400, Note_on_c, 1, 55, 37
2, 716400, Note_on_c, 1, 52, 37
2, 716640, Note_on_c, 1, 52, 0
2, 716640, Note_on_c, 1, 60, 0
2, 716640, Note_on_c, 1, 55, 0
2, 716640, Note_on_c, 1, 48, 44
2, 716880, Note_on_c, 1, 48, 0
2, 716880, Note_on_c, 1, 72, 0
2, 716880, Note_on_c, 1, 84, 0
2, 716880, Note_on_c, 1, 84, 95
2, 716880, Note_on_c, 1, 72, 80
2, 716880, Note_on_c, 1, 60, 48
2, 716880, Note_on_c, 1, 55, 36
2, 716880, Note_on_c, 1, 52, 36
2, 717120, Note_on_c, 1, 52, 0
2, 717120, Note_on_c, 1, 60, 0
2, 717120, Note_on_c, 1, 84, 0
2, 717120, Note_on_c, 1, 72, 0
2, 717120, Note_on_c, 1, 55, 0
2, 717120, Note_on_c, 1, 84, 105
2, 717120, Note_on_c, 1, 72, 87
2, 717120, Note_on_c, 1, 41, 63
2, 717120, Note_on_c, 1, 48, 63
2, 717120, Note_on_c, 1, 53, 75
2, 717120, Note_on_c, 1, 44, 63
2, 717360, Note_on_c, 1, 72, 0
2, 717360, Note_on_c, 1, 84, 0
2, 717360, Note_on_c, 1, 65, 59
2, 717360, Note_on_c, 1, 60, 59
2, 717360, Note_on_c, 1, 72, 79
2, 717360, Note_on_c, 1, 68, 66
2, 717580, Note_on_c, 1, 68, 0
2, 717580, Note_on_c, 1, 72, 0
2, 717580, Note_on_c, 1, 65, 0
2, 717580, Note_on_c, 1, 60, 0
2, 717600, Note_on_c, 1, 41, 0
2, 717600, Note_on_c, 1, 53, 0
2, 717600, Note_on_c, 1, 44, 0
2, 717600, Note_on_c, 1, 48, 0
2, 717600, Note_on_c, 1, 68, 66
2, 717600, Note_on_c, 1, 72, 79
2, 717600, Note_on_c, 1, 60, 59
2, 717600, Note_on_c, 1, 65, 59
2, 717820, Note_on_c, 1, 65, 0
2, 717820, Note_on_c, 1, 68, 0
2, 717820, Note_on_c, 1, 72, 0
2, 717820, Note_on_c, 1, 60, 0
2, 717840, Note_on_c, 1, 68, 69
2, 717840, Note_on_c, 1, 65, 62
2, 717840, Note_on_c, 1, 72, 84
2, 717840, Note_on_c, 1, 60, 62
2, 718080, Note_on_c, 1, 53, 79
2, 718080, Note_on_c, 1, 56, 79
2, 718300, Note_on_c, 1, 56, 0
2, 718300, Note_on_c, 1, 53, 0
2, 718320, Note_on_c, 1, 53, 76
2, 718320, Note_on_c, 1, 56, 76
2, 718540, Note_on_c, 1, 56, 0
2, 718540, Note_on_c, 1, 53, 0
2, 718560, Note_on_c, 1, 60, 0
2, 718560, Note_on_c, 1, 68, 0
2, 718560, Note_on_c, 1, 65, 0
2, 718560, Note_on_c, 1, 72, 0
2, 718560, Note_on_c, 1, 52, 80
2, 718560, Note_on_c, 1, 55, 80
2, 718800, Note_on_c, 1, 60, 59
2, 718800, Note_on_c, 1, 72, 79
2, 718800, Note_on_c, 1, 64, 66
2, 718800, Note_on_c, 1, 67, 66
2, 719020, Note_on_c, 1, 67, 0
2, 719020, Note_on_c, 1, 72, 0
2, 719020, Note_on_c, 1, 60, 0
2, 719020, Note_on_c, 1, 64, 0
2, 719040, Note_on_c, 1, 52, 0
2, 719040, Note_on_c, 1, 55, 0
2, 719040, Note_on_c, 1, 72, 79
2, 719040, Note_on_c, 1, 60, 59
2, 719040, Note_on_c, 1, 64, 66
2, 719040, Note_on_c, 1, 67, 66
2, 719260, Note_on_c, 1, 67, 0
2, 719260, Note_on_c, 1, 72, 0
2, 719260, Note_on_c, 1, 60, 0
2, 719260, Note_on_c, 1, 64, 0
2, 719280, Note_on_c, 1, 72, 84
2, 719280, Note_on_c, 1, 70, 69
2, 719280, Note_on_c, 1, 67, 62
2, 719280, Note_on_c, 1, 60, 62
2, 719520, Note_on_c, 1, 55, 79
2, 719520, Note_on_c, 1, 58, 79
2, 719740, Note_on_c, 1, 58, 0
2, 719740, Note_on_c, 1, 55, 0
2, 719760, Note_on_c, 1, 55, 76
2, 719760, Note_on_c, 1, 58, 76
2, 719980, Note_on_c, 1, 58, 0
2, 719980, Note_on_c, 1, 55, 0
2, 720000, Note_on_c, 1, 60, 0
2, 720000, Note_on_c, 1, 72, 0
2, 720000, Note_on_c, 1, 70, 0
2, 720000, Note_on_c, 1, 67, 0
2, 720000, Note_on_c, 1, 53, 80
2, 720000, Note_on_c, 1, 56, 80
2, 720240, Note_on_c, 1, 68, 66
2, 720240, Note_on_c, 1, 60, 59
2, 720240, Note_on_c, 1, 65, 59
2, 720240, Note_on_c, 1, 72, 79
2, 720460, Note_on_c, 1, 72, 0
2, 720460, Note_on_c, 1, 60, 0
2, 720460, Note_on_c, 1, 68, 0
2, 720460, Note_on_c, 1, 65, 0
2, 720480, Note_on_c, 1, 53, 0
2, 720480, Note_on_c, 1, 56, 0
2, 720480, Note_on_c, 1, 68, 66
2, 720480, Note_on_c, 1, 72, 79
2, 720480, Note_on_c, 1, 60, 59
2, 720480, Note_on_c, 1, 65, 59
2, 720700, Note_on_c, 1, 65, 0
2, 720700, Note_on_c, 1, 68, 0
2, 720700, Note_on_c, 1, 72, 0
2, 720700, Note_on_c, 1, 60, 0
2, 720720, Note_on_c, 1, 60, 62
2, 720720, Note_on_c, 1, 68, 69
2, 720720, Note_on_c, 1, 65, 62
2, 720720, Note_on_c, 1, 72, 84
2, 720960, Note_on_c, 1, 56, 79
2, 720960, Note_on_c, 1, 53, 79
2, 721180, Note_on_c, 1, 53, 0
2, 721180, Note_on_c, 1, 56, 0
2, 721200, Note_on_c, 1, 56, 76
2, 721200, Note_on_c, 1, 53, 76
2, 721420, Note_on_c, 1, 53, 0
2, 721420, Note_on_c, 1, 56, 0
2, 721440, Note_on_c, 1, 72, 0
2, 721440, Note_on_c, 1, 60, 0
2, 721440, Note_on_c, 1, 68, 0
2, 721440, Note_on_c, 1, 65, 0
2, 721440, Note_on_c, 1, 55, 80
2, 721440, Note_on_c, 1, 52, 80
2, 721680, Note_on_c, 1, 64, 66
2, 721680, Note_on_c, 1, 60, 59
2, 721680, Note_on_c, 1, 72, 79
2, 721680, Note_on_c, 1, 67, 66
2, 721900, Note_on_c, 1, 67, 0
2, 721900, Note_on_c, 1, 60, 0
2, 721900, Note_on_c, 1, 64, 0
2, 721900, Note_on_c, 1, 72, 0
2, 721920, Note_on_c, 1, 55, 0
2, 721920, Note_on_c, 1, 52, 0
2, 721920, Note_on_c, 1, 64, 66
2, 721920, Note_on_c, 1, 67, 66
2, 721920, Note_on_c, 1, 60, 59
2, 721920, Note_on_c, 1, 72, 79
2, 722140, Note_on_c, 1, 72, 0
2, 722140, Note_on_c, 1, 64, 0
2, 722140, Note_on_c, 1, 67, 0
2, 722140, Note_on_c, 1, 60, 0
2, 722160, Note_on_c, 1, 72, 84
2, 722160, Note_on_c, 1, 67, 62
2, 722160, Note_on_c, 1, 70, 69
2, 722160, Note_on_c, 1, 60, 62
2, 722400, Note_on_c, 1, 58, 79
2, 722400, Note_on_c, 1, 55, 79
2, 722620, Note_on_c, 1, 55, 0
2, 722620, Note_on_c, 1, 58, 0
2, 722640, Note_on_c, 1, 55, 76
2, 722640, Note_on_c, 1, 58, 76
2, 722860, Note_on_c, 1, 58, 0
2, 722860, Note_on_c, 1, 55, 0
2, 722880, Note_on_c, 1, 60, 0
2, 722880, Note_on_c, 1, 72, 0
2, 722880, Note_on_c, 1, 67, 0
2, 722880, Note_on_c, 1, 70, 0
2, 722880, Note_on_c, 1, 56, 80
2, 722880, Note_on_c, 1, 53, 66
2, 723100, Note_on_c, 1, 53, 0
2, 723100, Note_on_c, 1, 56, 0
2, 723120, Note_on_c, 1, 65, 65
2, 723120, Note_on_c, 1, 60, 65
2, 723120, Note_on_c, 1, 72, 77
2, 723120, Note_on_c, 1, 68, 65
2, 723340, Note_on_c, 1, 68, 0
2, 723340, Note_on_c, 1, 65, 0
2, 723340, Note_on_c, 1, 60, 0
2, 723340, Note_on_c, 1, 72, 0
2, 723360, Note_on_c, 1, 56, 76
2, 723360, Note_on_c, 1, 53, 63
2, 723580, Note_on_c, 1, 53, 0
2, 723580, Note_on_c, 1, 56, 0
2, 723600, Note_on_c, 1, 65, 73
2, 723600, Note_on_c, 1, 61, 73
2, 723600, Note_on_c, 1, 73, 85
2, 723600, Note_on_c, 1, 67, 73
2, 723820, Note_on_c, 1, 67, 0
2, 723820, Note_on_c, 1, 65, 0
2, 723820, Note_on_c, 1, 61, 0
2, 723820, Note_on_c, 1, 73, 0
2, 723840, Note_on_c, 1, 53, 59
2, 723840, Note_on_c, 1, 46, 59
2, 723840, Note_on_c, 1, 55, 73
2, 724060, Note_on_c, 1, 55, 0
2, 724060, Note_on_c, 1, 46, 0
2, 724060, Note_on_c, 1, 53, 0
2, 724080, Note_on_c, 1, 61, 65
2, 724080, Note_on_c, 1, 65, 65
2, 724080, Note_on_c, 1, 67, 65
2, 724080, Note_on_c, 1, 73, 77
2, 724300, Note_on_c, 1, 73, 0
2, 724300, Note_on_c, 1, 61, 0
2, 724300, Note_on_c, 1, 65, 0
2, 724300, Note_on_c, 1, 67, 0
2, 724320, Note_on_c, 1, 53, 66
2, 724320, Note_on_c, 1, 56, 80
2, 724320, Note_on_c, 1, 48, 66
2, 724540, Note_on_c, 1, 48, 0
2, 724540, Note_on_c, 1, 56, 0
2, 724540, Note_on_c, 1, 53, 0
2, 724560, Note_on_c, 1, 60, 69
2, 724560, Note_on_c, 1, 72, 83
2, 724560, Note_on_c, 1, 68, 69
2, 724560, Note_on_c, 1, 65, 69
2, 724780, Note_on_c, 1, 65, 0
2, 724780, Note_on_c, 1, 60, 0
2, 724780, Note_on_c, 1, 72, 0
2, 724780, Note_on_c, 1, 68, 0
2, 724800, Note_on_c, 1, 53, 63
2, 724800, Note_on_c, 1, 56, 76
2, 724800, Note_on_c, 1, 48, 63
2, 725020, Note_on_c, 1, 48, 0
2, 725020, Note_on_c, 1, 56, 0
2, 725020, Note_on_c, 1, 53, 0
2, 725040, Note_on_c, 1, 60, 70
2, 725040, Note_on_c, 1, 64, 70
2, 725040, Note_on_c, 1, 72, 82
2, 725040, Note_on_c, 1, 67, 70
2, 725260, Note_on_c, 1, 67, 0
2, 725260, Note_on_c, 1, 60, 0
2, 725260, Note_on_c, 1, 64, 0
2, 725260, Note_on_c, 1, 72, 0
2, 725280, Note_on_c, 1, 48, 63
2, 725280, Note_on_c, 1, 55, 76
2, 725280, Note_on_c, 1, 52, 63
2, 725500, Note_on_c, 1, 52, 0
2, 725500, Note_on_c, 1, 55, 0
2, 725500, Note_on_c, 1, 48, 0
2, 725520, Note_on_c, 1, 64, 59
2, 725520, Note_on_c, 1, 67, 59
2, 725520, Note_on_c, 1, 60, 59
2, 725520, Note_on_c, 1, 72, 71
2, 725740, Note_on_c, 1, 72, 0
2, 725740, Note_on_c, 1, 64, 0
2, 725740, Note_on_c, 1, 67, 0
2, 725740, Note_on_c, 1, 60, 0
2, 725760, Note_on_c, 1, 65, 76
2, 725760, Note_on_c, 1, 68, 76
2, 725760, Note_on_c, 1, 60, 76
2, 725760, Note_on_c, 1, 72, 92
2, 725760, Note_on_c, 1, 44, 61
2, 725760, Note_on_c, 1, 48, 61
2, 725760, Note_on_c, 1, 53, 73
2, 725760, Note_on_c, 1, 41, 61
2, 726000, Note_on_c, 1, 72, 0
2, 726000, Note_on_c, 1, 60, 0
2, 726000, Note_on_c, 1, 65, 0
2, 726000, Note_on_c, 1, 68, 0
2, 726000, Note_on_c, 1, 53, 59
2, 726000, Note_on_c, 1, 48, 59
2, 726000, Note_on_c, 1, 56, 66
2, 726000, Note_on_c, 1, 60, 79
2, 726220, Note_on_c, 1, 60, 0
2, 726220, Note_on_c, 1, 56, 0
2, 726220, Note_on_c, 1, 53, 0
2, 726220, Note_on_c, 1, 48, 0
2, 726240, Note_on_c, 1, 53, 0
2, 726240, Note_on_c, 1, 44, 0
2, 726240, Note_on_c, 1, 48, 0
2, 726240, Note_on_c, 1, 41, 0
2, 726240, Note_on_c, 1, 48, 59
2, 726240, Note_on_c, 1, 60, 79
2, 726240, Note_on_c, 1, 56, 66
2, 726240, Note_on_c, 1, 53, 59
2, 726460, Note_on_c, 1, 53, 0
2, 726460, Note_on_c, 1, 48, 0
2, 726460, Note_on_c, 1, 60, 0
2, 726460, Note_on_c, 1, 56, 0
2, 726480, Note_on_c, 1, 48, 62
2, 726480, Note_on_c, 1, 53, 62
2, 726480, Note_on_c, 1, 60, 84
2, 726480, Note_on_c, 1, 56, 69
2, 726720, Note_on_c, 1, 44, 75
2, 726720, Note_on_c, 1, 41, 75
2, 726940, Note_on_c, 1, 41, 0
2, 726940, Note_on_c, 1, 44, 0
2, 726960, Note_on_c, 1, 44, 72
2, 726960, Note_on_c, 1, 41, 72
2, 727180, Note_on_c, 1, 41, 0
2, 727180, Note_on_c, 1, 44, 0
2, 727200, Note_on_c, 1, 56, 0
2, 727200, Note_on_c, 1, 48, 0
2, 727200, Note_on_c, 1, 53, 0
2, 727200, Note_on_c, 1, 60, 0
2, 727200, Note_on_c, 1, 43, 76
2, 727200, Note_on_c, 1, 40, 76
2, 727440, Note_on_c, 1, 48, 59
2, 727440, Note_on_c, 1, 55, 66
2, 727440, Note_on_c, 1, 60, 79
2, 727440, Note_on_c, 1, 52, 66
2, 727660, Note_on_c, 1, 52, 0
2, 727660, Note_on_c, 1, 55, 0
2, 727660, Note_on_c, 1, 48, 0
2, 727660, Note_on_c, 1, 60, 0
2, 727680, Note_on_c, 1, 43, 0
2, 727680, Note_on_c, 1, 40, 0
2, 727680, Note_on_c, 1, 55, 66
2, 727680, Note_on_c, 1, 52, 66
2, 727680, Note_on_c, 1, 48, 59
2, 727680, Note_on_c, 1, 60, 79
2, 727900, Note_on_c, 1, 60, 0
2, 727900, Note_on_c, 1, 55, 0
2, 727900, Note_on_c, 1, 52, 0
2, 727900, Note_on_c, 1, 48, 0
2, 727920, Note_on_c, 1, 55, 62
2, 727920, Note_on_c, 1, 58, 69
2, 727920, Note_on_c, 1, 60, 84
2, 727920, Note_on_c, 1, 48, 62
2, 728160, Note_on_c, 1, 46, 75
2, 728160, Note_on_c, 1, 43, 75
2, 728380, Note_on_c, 1, 43, 0
2, 728380, Note_on_c, 1, 46, 0
2, 728400, Note_on_c, 1, 46, 72
2, 728400, Note_on_c, 1, 43, 72
2, 728620, Note_on_c, 1, 43, 0
2, 728620, Note_on_c, 1, 46, 0
2, 728640, Note_on_c, 1, 48, 0
2, 728640, Note_on_c, 1, 55, 0
2, 728640, Note_on_c, 1, 58, 0
2, 728640, Note_on_c, 1, 60, 0
2, 728640, Note_on_c, 1, 44, 76
2, 728640, Note_on_c, 1, 41, 76
2, 728880, Note_on_c, 1, 48, 59
2, 728880, Note_on_c, 1, 53, 59
2, 728880, Note_on_c, 1, 56, 66
2, 728880, Note_on_c, 1, 60, 79
2, 729100, Note_on_c, 1, 60, 0
2, 729100, Note_on_c, 1, 53, 0
2, 729100, Note_on_c, 1, 48, 0
2, 729100, Note_on_c, 1, 56, 0
2, 729120, Note_on_c, 1, 44, 0
2, 729120, Note_on_c, 1, 41, 0
2, 729120, Note_on_c, 1, 48, 59
2, 729120, Note_on_c, 1, 56, 66
2, 729120, Note_on_c, 1, 60, 79
2, 729120, Note_on_c, 1, 53, 59
2, 729340, Note_on_c, 1, 53, 0
2, 729340, Note_on_c, 1, 48, 0
2, 729340, Note_on_c, 1, 56, 0
2, 729340, Note_on_c, 1, 60, 0
2, 729360, Note_on_c, 1, 53, 62
2, 729360, Note_on_c, 1, 48, 62
2, 729360, Note_on_c, 1, 56, 69
2, 729360, Note_on_c, 1, 60, 84
2, 729600, Note_on_c, 1, 44, 75
2, 729600, Note_on_c, 1, 41, 75
2, 729820, Note_on_c, 1, 41, 0
2, 729820, Note_on_c, 1, 44, 0
2, 729840, Note_on_c, 1, 44, 72
2, 729840, Note_on_c, 1, 41, 72
2, 730060, Note_on_c, 1, 41, 0
2, 730060, Note_on_c, 1, 44, 0
2, 730080, Note_on_c, 1, 60, 0
2, 730080, Note_on_c, 1, 53, 0
2, 730080, Note_on_c, 1, 48, 0
2, 730080, Note_on_c, 1, 56, 0
2, 730080, Note_on_c, 1, 43, 76
2, 730080, Note_on_c, 1, 40, 76
2, 730320, Note_on_c, 1, 52, 66
2, 730320, Note_on_c, 1, 55, 66
2, 730320, Note_on_c, 1, 48, 59
2, 730320, Note_on_c, 1, 60, 79
2, 730540, Note_on_c, 1, 60, 0
2, 730540, Note_on_c, 1, 55, 0
2, 730540, Note_on_c, 1, 52, 0
2, 730540, Note_on_c, 1, 48, 0
2, 730560, Note_on_c, 1, 43, 0
2, 730560, Note_on_c, 1, 40, 0
2, 730560, Note_on_c, 1, 55, 66
2, 730560, Note_on_c, 1, 60, 79
2, 730560, Note_on_c, 1, 52, 66
2, 730560, Note_on_c, 1, 48, 59
2, 730780, Note_on_c, 1, 48, 0
2, 730780, Note_on_c, 1, 55, 0
2, 730780, Note_on_c, 1, 60, 0
2, 730780, Note_on_c, 1, 52, 0
2, 730800, Note_on_c, 1, 58, 69
2, 730800, Note_on_c, 1, 48, 62
2, 730800, Note_on_c, 1, 55, 62
2, 730800, Note_on_c, 1, 60, 84
2, 731040, Note_on_c, 1, 46, 75
2, 731040, Note_on_c, 1, 43, 75
2, 731260, Note_on_c, 1, 43, 0
2, 731260, Note_on_c, 1, 46, 0
2, 731280, Note_on_c, 1, 46, 72
2, 731280, Note_on_c, 1, 43, 72
2, 731500, Note_on_c, 1, 43, 0
2, 731500, Note_on_c, 1, 46, 0
2, 731520, Note_on_c, 1, 60, 0
2, 731520, Note_on_c, 1, 58, 0
2, 731520, Note_on_c, 1, 48, 0
2, 731520, Note_on_c, 1, 55, 0
2, 731520, Note_on_c, 1, 41, 66
2, 731520, Note_on_c, 1, 44, 79
2, 731740, Note_on_c, 1, 44, 0
2, 731740, Note_on_c, 1, 41, 0
2, 731760, Note_on_c, 1, 53, 63
2, 731760, Note_on_c, 1, 56, 63
2, 731760, Note_on_c, 1, 60, 81
2, 731760, Note_on_c, 1, 48, 63
2, 731980, Note_on_c, 1, 48, 0
2, 731980, Note_on_c, 1, 53, 0
2, 731980, Note_on_c, 1, 56, 0
2, 731980, Note_on_c, 1, 60, 0
2, 732000, Note_on_c, 1, 44, 71
2, 732000, Note_on_c, 1, 41, 59
2, 732220, Note_on_c, 1, 41, 0
2, 732220, Note_on_c, 1, 44, 0
2, 732240, Note_on_c, 1, 49, 69
2, 732240, Note_on_c, 1, 61, 89
2, 732240, Note_on_c, 1, 55, 69
2, 732240, Note_on_c, 1, 53, 69
2, 732460, Note_on_c, 1, 53, 0
2, 732460, Note_on_c, 1, 49, 0
2, 732460, Note_on_c, 1, 61, 0
2, 732460, Note_on_c, 1, 55, 0
2, 732480, Note_on_c, 1, 34, 55
2, 732480, Note_on_c, 1, 43, 66
2, 732480, Note_on_c, 1, 41, 55
2, 732700, Note_on_c, 1, 41, 0
2, 732700, Note_on_c, 1, 43, 0
2, 732700, Note_on_c, 1, 34, 0
2, 732720, Note_on_c, 1, 49, 63
2, 732720, Note_on_c, 1, 53, 63
2, 732720, Note_on_c, 1, 55, 63
2, 732720, Note_on_c, 1, 61, 81
2, 732940, Note_on_c, 1, 61, 0
2, 732940, Note_on_c, 1, 49, 0
2, 732940, Note_on_c, 1, 53, 0
2, 732940, Note_on_c, 1, 55, 0
2, 732960, Note_on_c, 1, 44, 75
2, 732960, Note_on_c, 1, 36, 62
2, 732960, Note_on_c, 1, 41, 62
2, 733180, Note_on_c, 1, 41, 0
2, 733180, Note_on_c, 1, 36, 0
2, 733180, Note_on_c, 1, 44, 0
2, 733200, Note_on_c, 1, 56, 66
2, 733200, Note_on_c, 1, 60, 87
2, 733200, Note_on_c, 1, 48, 66
2, 733200, Note_on_c, 1, 53, 66
2, 733420, Note_on_c, 1, 53, 0
2, 733420, Note_on_c, 1, 56, 0
2, 733420, Note_on_c, 1, 60, 0
2, 733420, Note_on_c, 1, 48, 0
2, 733440, Note_on_c, 1, 44, 71
2, 733440, Note_on_c, 1, 36, 59
2, 733440, Note_on_c, 1, 41, 59
2, 733660, Note_on_c, 1, 41, 0
2, 733660, Note_on_c, 1, 36, 0
2, 733660, Note_on_c, 1, 44, 0
2, 733680, Note_on_c, 1, 55, 66
2, 733680, Note_on_c, 1, 52, 66
2, 733680, Note_on_c, 1, 60, 87
2, 733680, Note_on_c, 1, 48, 66
2, 733900, Note_on_c, 1, 48, 0
2, 733900, Note_on_c, 1, 55, 0
2, 733900, Note_on_c, 1, 52, 0
2, 733900, Note_on_c, 1, 60, 0
2, 733920, Note_on_c, 1, 40, 59
2, 733920, Note_on_c, 1, 43, 71
2, 733920, Note_on_c, 1, 36, 59
2, 734140, Note_on_c, 1, 36, 0
2, 734140, Note_on_c, 1, 43, 0
2, 734140, Note_on_c, 1, 40, 0
2, 734160, Note_on_c, 1, 52, 63
2, 734160, Note_on_c, 1, 55, 63
2, 734160, Note_on_c, 1, 48, 63
2, 734160, Note_on_c, 1, 60, 81
2, 734380, Note_on_c, 1, 60, 0
2, 734380, Note_on_c, 1, 52, 0
2, 734380, Note_on_c, 1, 55, 0
2, 734380, Note_on_c, 1, 48, 0
2, 734400, Note_on_c, 1, 36, 62
2, 734400, Note_on_c, 1, 41, 62
2, 734400, Note_on_c, 1, 44, 75
2, 734400, Note_on_c, 1, 32, 62
2, 734620, Note_on_c, 1, 32, 0
2, 734620, Note_on_c, 1, 36, 0
2, 734620, Note_on_c, 1, 41, 0
2, 734620, Note_on_c, 1, 44, 0
2, 734640, Note_on_c, 1, 68, 63
2, 734640, Note_on_c, 1, 72, 81
2, 734640, Note_on_c, 1, 65, 63
2, 734640, Note_on_c, 1, 60, 63
2, 734860, Note_on_c, 1, 60, 0
2, 734860, Note_on_c, 1, 68, 0
2, 734860, Note_on_c, 1, 72, 0
2, 734860, Note_on_c, 1, 65, 0
2, 734880, Note_on_c, 1, 32, 59
2, 734880, Note_on_c, 1, 41, 59
2, 734880, Note_on_c, 1, 36, 59
2, 734880, Note_on_c, 1, 44, 71
2, 735100, Note_on_c, 1, 44, 0
2, 735100, Note_on_c, 1, 32, 0
2, 735100, Note_on_c, 1, 41, 0
2, 735100, Note_on_c, 1, 36, 0
2, 735120, Note_on_c, 1, 65, 69
2, 735120, Note_on_c, 1, 61, 69
2, 735120, Note_on_c, 1, 73, 89
2, 735120, Note_on_c, 1, 67, 69
2, 735340, Note_on_c, 1, 67, 0
2, 735340, Note_on_c, 1, 65, 0
2, 735340, Note_on_c, 1, 61, 0
2, 735340, Note_on_c, 1, 73, 0
2, 735360, Note_on_c, 1, 46, 66
2, 735360, Note_on_c, 1, 41, 55
2, 735360, Note_on_c, 1, 43, 60
2, 735360, Note_on_c, 1, 34, 55
2, 735580, Note_on_c, 1, 34, 0
2, 735580, Note_on_c, 1, 46, 0
2, 735580, Note_on_c, 1, 41, 0
2, 735580, Note_on_c, 1, 43, 0
2, 735600, Note_on_c, 1, 65, 63
2, 735600, Note_on_c, 1, 61, 63
2, 735600, Note_on_c, 1, 67, 63
2, 735600, Note_on_c, 1, 73, 81
2, 735820, Note_on_c, 1, 73, 0
2, 735820, Note_on_c, 1, 65, 0
2, 735820, Note_on_c, 1, 61, 0
2, 735820, Note_on_c, 1, 67, 0
2, 735840, Note_on_c, 1, 48, 75
2, 735840, Note_on_c, 1, 44, 69
2, 735840, Note_on_c, 1, 41, 62
2, 735840, Note_on_c, 1, 36, 62
2, 736060, Note_on_c, 1, 36, 0
2, 736060, Note_on_c, 1, 48, 0
2, 736060, Note_on_c, 1, 44, 0
2, 736060, Note_on_c, 1, 41, 0
2, 736080, Note_on_c, 1, 72, 87
2, 736080, Note_on_c, 1, 65, 66
2, 736080, Note_on_c, 1, 60, 66
2, 736080, Note_on_c, 1, 68, 66
2, 736300, Note_on_c, 1, 68, 0
2, 736300, Note_on_c, 1, 72, 0
2, 736300, Note_on_c, 1, 65, 0
2, 736300, Note_on_c, 1, 60, 0
2, 736320, Note_on_c, 1, 48, 71
2, 736320, Note_on_c, 1, 41, 59
2, 736320, Note_on_c, 1, 44, 66
2, 736320, Note_on_c, 1, 36, 59
2, 736540, Note_on_c, 1, 36, 0
2, 736540, Note_on_c, 1, 48, 0
2, 736540, Note_on_c, 1, 41, 0
2, 736540, Note_on_c, 1, 44, 0
2, 736560, Note_on_c, 1, 60, 66
2, 736560, Note_on_c, 1, 64, 66
2, 736560, Note_on_c, 1, 72, 87
2, 736560, Note_on_c, 1, 67, 66
2, 736780, Note_on_c, 1, 67, 0
2, 736780, Note_on_c, 1, 60, 0
2, 736780, Note_on_c, 1, 64, 0
2, 736780, Note_on_c, 1, 72, 0
2, 736800, Note_on_c, 1, 46, 71
2, 736800, Note_on_c, 1, 40, 59
2, 736800, Note_on_c, 1, 43, 66
2, 736800, Note_on_c, 1, 34, 59
2, 737020, Note_on_c, 1, 34, 0
2, 737020, Note_on_c, 1, 46, 0
2, 737020, Note_on_c, 1, 40, 0
2, 737020, Note_on_c, 1, 43, 0
2, 737040, Note_on_c, 1, 64, 63
2, 737040, Note_on_c, 1, 67, 63
2, 737040, Note_on_c, 1, 60, 63
2, 737040, Note_on_c, 1, 72, 81
2, 737260, Note_on_c, 1, 72, 0
2, 737260, Note_on_c, 1, 64, 0
2, 737260, Note_on_c, 1, 67, 0
2, 737260, Note_on_c, 1, 60, 0
2, 737280, Note_on_c, 1, 36, 65
2, 737280, Note_on_c, 1, 41, 65
2, 737280, Note_on_c, 1, 44, 77
2, 737280, Note_on_c, 1, 32, 65
2, 737500, Note_on_c, 1, 32, 0
2, 737500, Note_on_c, 1, 36, 0
2, 737500, Note_on_c, 1, 41, 0
2, 737500, Note_on_c, 1, 44, 0
2, 737520, Note_on_c, 1, 80, 72
2, 737520, Note_on_c, 1, 84, 93
2, 737520, Note_on_c, 1, 77, 72
2, 737520, Note_on_c, 1, 72, 72
2, 737740, Note_on_c, 1, 72, 0
2, 737740, Note_on_c, 1, 80, 0
2, 737740, Note_on_c, 1, 84, 0
2, 737740, Note_on_c, 1, 77, 0
2, 737760, Note_on_c, 1, 32, 62
2, 737760, Note_on_c, 1, 41, 62
2, 737760, Note_on_c, 1, 36, 62
2, 737760, Note_on_c, 1, 44, 74
2, 737980, Note_on_c, 1, 44, 0
2, 737980, Note_on_c, 1, 32, 0
2, 737980, Note_on_c, 1, 41, 0
2, 737980, Note_on_c, 1, 36, 0
2, 738000, Note_on_c, 1, 79, 79
2, 738000, Note_on_c, 1, 73, 79
2, 738000, Note_on_c, 1, 77, 79
2, 738000, Note_on_c, 1, 85, 101
2, 738220, Note_on_c, 1, 85, 0
2, 738220, Note_on_c, 1, 79, 0
2, 738220, Note_on_c, 1, 73, 0
2, 738220, Note_on_c, 1, 77, 0
2, 738240, Note_on_c, 1, 46, 69
2, 738240, Note_on_c, 1, 41, 57
2, 738240, Note_on_c, 1, 43, 63
2, 738240, Note_on_c, 1, 34, 57
2, 738460, Note_on_c, 1, 34, 0
2, 738460, Note_on_c, 1, 46, 0
2, 738460, Note_on_c, 1, 41, 0
2, 738460, Note_on_c, 1, 43, 0
2, 738480, Note_on_c, 1, 85, 93
2, 738480, Note_on_c, 1, 73, 72
2, 738480, Note_on_c, 1, 77, 72
2, 738480, Note_on_c, 1, 79, 72
2, 738700, Note_on_c, 1, 79, 0
2, 738700, Note_on_c, 1, 85, 0
2, 738700, Note_on_c, 1, 73, 0
2, 738700, Note_on_c, 1, 77, 0
2, 738720, Note_on_c, 1, 48, 77
2, 738720, Note_on_c, 1, 41, 65
2, 738720, Note_on_c, 1, 36, 65
2, 738720, Note_on_c, 1, 44, 72
2, 738940, Note_on_c, 1, 44, 0
2, 738940, Note_on_c, 1, 48, 0
2, 738940, Note_on_c, 1, 41, 0
2, 738940, Note_on_c, 1, 36, 0
2, 738960, Note_on_c, 1, 84, 99
2, 738960, Note_on_c, 1, 80, 76
2, 738960, Note_on_c, 1, 77, 76
2, 738960, Note_on_c, 1, 72, 76
2, 739180, Note_on_c, 1, 72, 0
2, 739180, Note_on_c, 1, 84, 0
2, 739180, Note_on_c, 1, 80, 0
2, 739180, Note_on_c, 1, 77, 0
2, 739200, Note_on_c, 1, 44, 69
2, 739200, Note_on_c, 1, 41, 62
2, 739200, Note_on_c, 1, 36, 62
2, 739200, Note_on_c, 1, 48, 74
2, 739420, Note_on_c, 1, 48, 0
2, 739420, Note_on_c, 1, 44, 0
2, 739420, Note_on_c, 1, 41, 0
2, 739420, Note_on_c, 1, 36, 0
2, 739440, Note_on_c, 1, 84, 99
2, 739440, Note_on_c, 1, 72, 75
2, 739440, Note_on_c, 1, 76, 75
2, 739440, Note_on_c, 1, 79, 75
2, 739660, Note_on_c, 1, 79, 0
2, 739660, Note_on_c, 1, 84, 0
2, 739660, Note_on_c, 1, 72, 0
2, 739660, Note_on_c, 1, 76, 0
2, 739680, Note_on_c, 1, 36, 62
2, 739680, Note_on_c, 1, 48, 74
2, 739680, Note_on_c, 1, 43, 69
2, 739680, Note_on_c, 1, 40, 62
2, 739900, Note_on_c, 1, 40, 0
2, 739900, Note_on_c, 1, 36, 0
2, 739900, Note_on_c, 1, 48, 0
2, 739900, Note_on_c, 1, 43, 0
2, 739920, Note_on_c, 1, 84, 93
2, 739920, Note_on_c, 1, 76, 72
2, 739920, Note_on_c, 1, 72, 72
2, 739920, Note_on_c, 1, 79, 72
2, 740140, Note_on_c, 1, 79, 0
2, 740140, Note_on_c, 1, 84, 0
2, 740140, Note_on_c, 1, 76, 0
2, 740140, Note_on_c, 1, 72, 0
2, 740160, Note_on_c, 1, 60, 64
2, 740160, Note_on_c, 1, 29, 82
2, 740160, Note_on_c, 1, 41, 110
2, 740280, Note_on_c, 1, 60, 0
2, 740280, Note_on_c, 1, 56, 55
2, 740400, Note_on_c, 1, 56, 0
2, 740400, Note_on_c, 1, 60, 59
2, 740520, Note_on_c, 1, 60, 0
2, 740520, Note_on_c, 1, 56, 50
2, 740640, Note_on_c, 1, 56, 0
2, 740640, Note_on_c, 1, 41, 0
2, 740640, Note_on_c, 1, 29, 0
2, 740640, Note_on_c, 1, 60, 55
2, 740760, Note_on_c, 1, 60, 0
2, 740760, Note_on_c, 1, 56, 48
2, 740880, Note_on_c, 1, 56, 0
2, 740880, Note_on_c, 1, 60, 43
2, 740880, Note_on_c, 1, 68, 62
2, 741000, Note_on_c, 1, 60, 0
2, 741000, Note_on_c, 1, 56, 37
2, 741120, Note_on_c, 1, 56, 0
2, 741120, Note_on_c, 1, 60, 43
2, 741240, Note_on_c, 1, 60, 0
2, 741240, Note_on_c, 1, 56, 37
2, 741360, Note_on_c, 1, 56, 0
2, 741360, Note_on_c, 1, 60, 43
2, 741480, Note_on_c, 1, 60, 0
2, 741480, Note_on_c, 1, 68, 0
2, 741480, Note_on_c, 1, 56, 36
2, 741480, Note_on_c, 1, 72, 54
2, 741600, Note_on_c, 1, 72, 0
2, 741600, Note_on_c, 1, 56, 0
2, 741600, Note_on_c, 1, 60, 43
2, 741600, Note_on_c, 1, 77, 59
2, 741720, Note_on_c, 1, 60, 0
2, 741720, Note_on_c, 1, 56, 36
2, 741840, Note_on_c, 1, 56, 0
2, 741840, Note_on_c, 1, 60, 42
2, 741960, Note_on_c, 1, 60, 0
2, 741960, Note_on_c, 1, 56, 36
2, 742080, Note_on_c, 1, 56, 0
2, 742080, Note_on_c, 1, 60, 42
2, 742200, Note_on_c, 1, 60, 0
2, 742200, Note_on_c, 1, 56, 35
2, 742320, Note_on_c, 1, 56, 0
2, 742320, Note_on_c, 1, 77, 0
2, 742320, Note_on_c, 1, 60, 42
2, 742320, Note_on_c, 1, 80, 60
2, 742440, Note_on_c, 1, 60, 0
2, 742440, Note_on_c, 1, 56, 35
2, 742560, Note_on_c, 1, 56, 0
2, 742560, Note_on_c, 1, 60, 41
2, 742680, Note_on_c, 1, 60, 0
2, 742680, Note_on_c, 1, 56, 35
2, 742800, Note_on_c, 1, 56, 0
2, 742800, Note_on_c, 1, 60, 41
2, 742920, Note_on_c, 1, 60, 0
2, 742920, Note_on_c, 1, 80, 0
2, 742920, Note_on_c, 1, 56, 35
2, 742920, Note_on_c, 1, 84, 52
2, 743040, Note_on_c, 1, 84, 0
2, 743040, Note_on_c, 1, 56, 0
2, 743040, Note_on_c, 1, 60, 41
2, 743040, Note_on_c, 1, 89, 56
2, 743160, Note_on_c, 1, 60, 0
2, 743160, Note_on_c, 1, 56, 35
2, 743280, Note_on_c, 1, 56, 0
2, 743280, Note_on_c, 1, 60, 41
2, 743400, Note_on_c, 1, 60, 0
2, 743400, Note_on_c, 1, 56, 34
2, 743520, Note_on_c, 1, 56, 0
2, 743520, Note_on_c, 1, 60, 40
2, 743640, Note_on_c, 1, 60, 0
2, 743640, Note_on_c, 1, 56, 34
2, 743760, Note_on_c, 1, 56, 0
2, 743760, Note_on_c, 1, 89, 0
2, 743760, Note_on_c, 1, 60, 40
2, 743760, Note_on_c, 1, 84, 58
2, 743880, Note_on_c, 1, 60, 0
2, 743880, Note_on_c, 1, 56, 34
2, 744000, Note_on_c, 1, 56, 0
2, 744000, Note_on_c, 1, 60, 40
2, 744120, Note_on_c, 1, 60, 0
2, 744120, Note_on_c, 1, 56, 33
2, 744240, Note_on_c, 1, 56, 0
2, 744240, Note_on_c, 1, 60, 40
2, 744360, Note_on_c, 1, 60, 0
2, 744360, Note_on_c, 1, 84, 0
2, 744360, Note_on_c, 1, 56, 33
2, 744360, Note_on_c, 1, 80, 50
2, 744480, Note_on_c, 1, 80, 0
2, 744480, Note_on_c, 1, 56, 0
2, 744480, Note_on_c, 1, 60, 40
2, 744480, Note_on_c, 1, 77, 54
2, 744600, Note_on_c, 1, 60, 0
2, 744600, Note_on_c, 1, 56, 33
2, 744720, Note_on_c, 1, 56, 0
2, 744720, Note_on_c, 1, 60, 39
2, 744840, Note_on_c, 1, 60, 0
2, 744840, Note_on_c, 1, 56, 33
2, 744960, Note_on_c, 1, 56, 0
2, 744960, Note_on_c, 1, 60, 39
2, 745080, Note_on_c, 1, 60, 0
2, 745080, Note_on_c, 1, 56, 33
2, 745200, Note_on_c, 1, 56, 0
2, 745200, Note_on_c, 1, 77, 0
2, 745200, Note_on_c, 1, 60, 39
2, 745200, Note_on_c, 1, 72, 56
2, 745320, Note_on_c, 1, 60, 0
2, 745320, Note_on_c, 1, 56, 32
2, 745440, Note_on_c, 1, 56, 0
2, 745440, Note_on_c, 1, 60, 38
2, 745560, Note_on_c, 1, 60, 0
2, 745560, Note_on_c, 1, 56, 32
2, 745680, Note_on_c, 1, 56, 0
2, 745680, Note_on_c, 1, 60, 38
2, 745800, Note_on_c, 1, 60, 0
2, 745800, Note_on_c, 1, 72, 0
2, 745800, Note_on_c, 1, 56, 32
2, 745800, Note_on_c, 1, 68, 48
2, 745920, Note_on_c, 1, 68, 0
2, 745920, Note_on_c, 1, 56, 0
2, 745920, Note_on_c, 1, 60, 38
2, 745920, Note_on_c, 1, 65, 52
2, 746040, Note_on_c, 1, 60, 0
2, 746040, Note_on_c, 1, 56, 32
2, 746160, Note_on_c, 1, 56, 0
2, 746160, Note_on_c, 1, 60, 37
2, 746280, Note_on_c, 1, 60, 0
2, 746280, Note_on_c, 1, 56, 31
2, 746400, Note_on_c, 1, 56, 0
2, 746400, Note_on_c, 1, 60, 37
2, 746520, Note_on_c, 1, 60, 0
2, 746520, Note_on_c, 1, 56, 31
2, 746640, Note_on_c, 1, 56, 0
2, 746640, Note_on_c, 1, 65, 0
2, 746640, Note_on_c, 1, 72, 37
2, 746640, Note_on_c, 1, 60, 47
2, 746760, Note_on_c, 1, 72, 0
2, 746760, Note_on_c, 1, 68, 31
2, 746880, Note_on_c, 1, 68, 0
2, 746880, Note_on_c, 1, 72, 37
2, 747000, Note_on_c, 1, 72, 0
2, 747000, Note_on_c, 1, 68, 31
2, 747120, Note_on_c, 1, 68, 0
2, 747120, Note_on_c, 1, 72, 36
2, 747240, Note_on_c, 1, 72, 0
2, 747240, Note_on_c, 1, 60, 0
2, 747240, Note_on_c, 1, 68, 31
2, 747240, Note_on_c, 1, 56, 41
2, 747360, Note_on_c, 1, 56, 0
2, 747360, Note_on_c, 1, 68, 0
2, 747360, Note_on_c, 1, 72, 36
2, 747360, Note_on_c, 1, 53, 44
2, 747480, Note_on_c, 1, 72, 0
2, 747480, Note_on_c, 1, 68, 30
2, 747600, Note_on_c, 1, 68, 0
2, 747600, Note_on_c, 1, 72, 36
2, 747720, Note_on_c, 1, 72, 0
2, 747720, Note_on_c, 1, 68, 30
2, 747840, Note_on_c, 1, 68, 0
2, 747840, Note_on_c, 1, 72, 35
2, 747960, Note_on_c, 1, 72, 0
2, 747960, Note_on_c, 1, 68, 30
2, 748080, Note_on_c, 1, 68, 0
2, 748080, Note_on_c, 1, 53, 0
2, 748080, Note_on_c, 1, 72, 35
2, 748080, Note_on_c, 1, 48, 45
2, 748200, Note_on_c, 1, 72, 0
2, 748200, Note_on_c, 1, 68, 30
2, 748320, Note_on_c, 1, 68, 0
2, 748320, Note_on_c, 1, 72, 35
2, 748440, Note_on_c, 1, 72, 0
2, 748440, Note_on_c, 1, 68, 30
2, 748560, Note_on_c, 1, 68, 0
2, 748560, Note_on_c, 1, 72, 34
2, 748680, Note_on_c, 1, 72, 0
2, 748680, Note_on_c, 1, 48, 0
2, 748680, Note_on_c, 1, 68, 29
2, 748680, Note_on_c, 1, 44, 39
2, 748800, Note_on_c, 1, 44, 0
2, 748800, Note_on_c, 1, 68, 0
2, 748800, Note_on_c, 1, 72, 34
2, 748800, Note_on_c, 1, 41, 42
2, 748920, Note_on_c, 1, 72, 0
2, 748920, Note_on_c, 1, 68, 29
2, 749040, Note_on_c, 1, 68, 0
2, 749040, Note_on_c, 1, 72, 34
2, 749160, Note_on_c, 1, 72, 0
2, 749160, Note_on_c, 1, 68, 28
2, 749280, Note_on_c, 1, 68, 0
2, 749280, Note_on_c, 1, 72, 33
2, 749400, Note_on_c, 1, 72, 0
2, 749400, Note_on_c, 1, 68, 27
2, 749520, Note_on_c, 1, 68, 0
2, 749520, Note_on_c, 1, 41, 0
2, 749520, Note_on_c, 1, 72, 33
2, 749520, Note_on_c, 1, 36, 38
2, 749640, Note_on_c, 1, 72, 0
2, 749640, Note_on_c, 1, 68, 27
2, 749760, Note_on_c, 1, 68, 0
2, 749760, Note_on_c, 1, 72, 32
2, 749880, Note_on_c, 1, 72, 0
2, 749880, Note_on_c, 1, 68, 27
2, 750000, Note_on_c, 1, 68, 0
2, 750000, Note_on_c, 1, 72, 31
2, 750120, Note_on_c, 1, 72, 0
2, 750120, Note_on_c, 1, 36, 0
2, 750120, Note_on_c, 1, 68, 26
2, 750120, Note_on_c, 1, 32, 27
2, 750240, Note_on_c, 1, 32, 0
2, 750240, Note_on_c, 1, 68, 0
2, 750240, Note_on_c, 1, 72, 31
2, 750240, Note_on_c, 1, 29, 28
2, 750360, Note_on_c, 1, 72, 0
2, 750360, Note_on_c, 1, 68, 26
2, 750480, Note_on_c, 1, 68, 0
2, 750480, Note_on_c, 1, 72, 31
2, 750600, Note_on_c, 1, 72, 0
2, 750600, Note_on_c, 1, 68, 25
2, 750720, Note_on_c, 1, 68, 0
2, 750720, Note_on_c, 1, 72, 30
2, 750840, Note_on_c, 1, 72, 0
2, 750840, Note_on_c, 1, 68, 25
2, 750960, Note_on_c, 1, 68, 0
2, 750960, Note_on_c, 1, 29, 0
2, 750960, Note_on_c, 1, 72, 29
2, 750960, Note_on_c, 1, 29, 27
2, 751080, Note_on_c, 1, 72, 0
2, 751080, Note_on_c, 1, 68, 25
2, 751200, Note_on_c, 1, 68, 0
2, 751200, Note_on_c, 1, 72, 29
2, 751320, Note_on_c, 1, 72, 0
2, 751320, Note_on_c, 1, 68, 24
2, 751440, Note_on_c, 1, 68, 0
2, 751440, Note_on_c, 1, 72, 29
2, 751560, Note_on_c, 1, 72, 0
2, 751560, Note_on_c, 1, 68, 24
2, 751680, Note_on_c, 1, 68, 0
2, 751680, Note_on_c, 1, 29, 0
2, 751680, Note_on_c, 1, 72, 28
2, 751680, Note_on_c, 1, 29, 27
2, 751800, Note_on_c, 1, 72, 0
2, 751800, Note_on_c, 1, 68, 23
2, 751920, Note_on_c, 1, 68, 0
2, 751920, Note_on_c, 1, 72, 27
2, 752040, Note_on_c, 1, 72, 0
2, 752040, Note_on_c, 1, 68, 23
2, 752160, Note_on_c, 1, 68, 0
2, 752160, Note_on_c, 1, 72, 26
2, 752280, Note_on_c, 1, 72, 0
2, 752280, Note_on_c, 1, 68, 22
2, 752400, Note_on_c, 1, 68, 0
2, 752400, Note_on_c, 1, 72, 26
2, 752520, Note_on_c, 1, 72, 0
2, 752520, Note_on_c, 1, 68, 22
2, 752640, Note_on_c, 1, 68, 0
2, 752640, Note_on_c, 1, 72, 25
2, 752760, Note_on_c, 1, 72, 0
2, 752760, Note_on_c, 1, 68, 21
2, 752880, Note_on_c, 1, 68, 0
2, 752880, Note_on_c, 1, 72, 24
2, 753000, Note_on_c, 1, 72, 0
2, 753000, Note_on_c, 1, 68, 20
2, 753120, Note_on_c, 1, 68, 0
2, 753120, Note_on_c, 1, 29, 0
2, 753120, Note_on_c, 1, 72, 23
2, 753120, Note_on_c, 1, 29, 19
2, 753240, Note_on_c, 1, 72, 0
2, 753240, Note_on_c, 1, 68, 20
2, 753360, Note_on_c, 1, 68, 0
2, 753360, Note_on_c, 1, 72, 23
2, 753480, Note_on_c, 1, 72, 0
2, 753480, Note_on_c, 1, 68, 19
2, 753600, Note_on_c, 1, 68, 0
2, 753600, Note_on_c, 1, 72, 22
2, 753720, Note_on_c, 1, 72, 0
2, 753720, Note_on_c, 1, 68, 18
2, 753840, Note_on_c, 1, 68, 0
2, 753840, Note_on_c, 1, 72, 21
2, 753960, Note_on_c, 1, 72, 0
2, 753960, Note_on_c, 1, 68, 18
2, 754080, Note_on_c, 1, 68, 0
2, 754080, Note_on_c, 1, 72, 21
2, 754200, Note_on_c, 1, 72, 0
2, 754200, Note_on_c, 1, 68, 17
2, 754320, Note_on_c, 1, 68, 0
2, 754320, Note_on_c, 1, 72, 20
2, 754440, Note_on_c, 1, 72, 0
2, 754440, Note_on_c, 1, 68, 17
2, 754560, Note_on_c, 1, 68, 0
2, 754560, Note_on_c, 1, 29, 0
2, 754560, Note_on_c, 1, 72, 18
2, 754560, Note_on_c, 1, 68, 15
2, 754560, Note_on_c, 1, 29, 12
2, 757440, Note_on_c, 1, 29, 0
2, 757440, Note_on_c, 1, 68, 0
2, 757440, Note_on_c, 1, 72, 0
2, 757440, End_track
0, 0, End_of_file
