0, 0, Header, 0, 1, 480
1, 0, Start_track
1, 0, Title_t, "Präludium und Fuge in D-Dur, BWV 850"
1, 0, Copyright_t, "Copyright © 1997  Bernd Krueger."
1, 0, Text_t, "Bach"
1, 0, Text_t, "Fertiggestellt am 12.11.97\012"
1, 0, Text_t, "Pan's auf Standard am 18.1.98\012"
1, 0, Text_t, "Normierung: 23.12.2002\012"
1, 0, Text_t, "Update am 29.9.2004\012"
1, 0, Text_t, "Dauer: 2:53 Minuten\012"
1, 0, Time_signature, 4, 2, 24, 8
1, 0, Key_signature, 2, "major"
1, 0, Tempo, 431655
1, 0, Marker_t, "Praeludium"
1, 0, Program_c, 0, 0
1, 0, Control_c, 0, 7, 100
1, 0, Control_c, 0, 10, 64
1, 0, Control_c, 0, 91, 127
1, 0, Text_t, "bdca426d104a26ac9dcb070447587523"
1, 0, Control_c, 0, 91, 127
1, 0, Program_c, 0, 0
1, 0, Control_c, 0, 7, 100
1, 0, Control_c, 0, 10, 64
1, 0, Control_c, 0, 91, 127
1, 0, Note_on_c, 0, 50, 47
1, 0, Control_c, 0, 64, 0
1, 0, Program_c, 0, 0
1, 0, Control_c, 0, 7, 100
1, 0, Control_c, 0, 10, 64
1, 0, Program_c, 0, 0
1, 0, Control_c, 0, 7, 100
1, 0, Control_c, 0, 10, 64
1, 0, Program_c, 0, 0
1, 0, Control_c, 0, 7, 100
1, 0, Control_c, 0, 10, 64
1, 0, Program_c, 0, 0
1, 0, Control_c, 0, 7, 100
1, 0, Control_c, 0, 10, 64
1, 120, Tempo, 416667
1, 120, Note_on_c, 0, 74, 57
1, 180, Note_on_c, 0, 50, 0
1, 240, Note_on_c, 0, 76, 57
1, 260, Note_on_c, 0, 74, 0
1, 360, Note_on_c, 0, 78, 57
1, 380, Note_on_c, 0, 76, 0
1, 480, Note_on_c, 0, 69, 60
1, 480, Note_on_c, 0, 62, 40
1, 500, Note_on_c, 0, 78, 0
1, 600, Note_on_c, 0, 69, 0
1, 600, Note_on_c, 0, 78, 57
1, 660, Note_on_c, 0, 62, 0
1, 720, Note_on_c, 0, 76, 57
1, 740, Note_on_c, 0, 78, 0
1, 840, Note_on_c, 0, 74, 57
1, 860, Note_on_c, 0, 76, 0
1, 960, Note_on_c, 0, 81, 62
1, 960, Note_on_c, 0, 54, 45
1, 980, Note_on_c, 0, 74, 0
1, 1080, Tempo, 416667
1, 1080, Note_on_c, 0, 81, 0
1, 1080, Note_on_c, 0, 74, 58
1, 1140, Note_on_c, 0, 54, 0
1, 1200, Note_on_c, 0, 76, 58
1, 1220, Note_on_c, 0, 74, 0
1, 1320, Note_on_c, 0, 78, 58
1, 1340, Note_on_c, 0, 76, 0
1, 1440, Note_on_c, 0, 69, 61
1, 1440, Note_on_c, 0, 62, 40
1, 1460, Note_on_c, 0, 78, 0
1, 1560, Note_on_c, 0, 69, 0
1, 1560, Note_on_c, 0, 78, 57
1, 1620, Note_on_c, 0, 62, 0
1, 1680, Note_on_c, 0, 76, 57
1, 1700, Note_on_c, 0, 78, 0
1, 1800, Note_on_c, 0, 74, 57
1, 1820, Note_on_c, 0, 76, 0
1, 1920, Tempo, 416667
1, 1920, Note_on_c, 0, 79, 60
1, 1920, Note_on_c, 0, 52, 46
1, 1940, Note_on_c, 0, 74, 0
1, 2040, Note_on_c, 0, 79, 0
1, 2040, Note_on_c, 0, 76, 58
1, 2100, Note_on_c, 0, 52, 0
1, 2160, Note_on_c, 0, 78, 58
1, 2180, Note_on_c, 0, 76, 0
1, 2280, Note_on_c, 0, 79, 58
1, 2300, Note_on_c, 0, 78, 0
1, 2400, Tempo, 416667
1, 2400, Note_on_c, 0, 71, 60
1, 2400, Note_on_c, 0, 62, 42
1, 2420, Note_on_c, 0, 79, 0
1, 2520, Note_on_c, 0, 71, 0
1, 2520, Note_on_c, 0, 74, 58
1, 2560, Tempo, 418118
1, 2580, Note_on_c, 0, 62, 0
1, 2640, Note_on_c, 0, 73, 58
1, 2660, Note_on_c, 0, 74, 0
1, 2720, Tempo, 419580
1, 2760, Note_on_c, 0, 71, 58
1, 2780, Note_on_c, 0, 73, 0
1, 2860, Tempo, 421053
1, 2880, Tempo, 425532
1, 2880, Note_on_c, 0, 73, 61
1, 2880, Note_on_c, 0, 57, 45
1, 2900, Note_on_c, 0, 71, 0
1, 3000, Tempo, 416667
1, 3000, Note_on_c, 0, 73, 0
1, 3000, Note_on_c, 0, 76, 58
1, 3060, Note_on_c, 0, 57, 0
1, 3120, Note_on_c, 0, 78, 58
1, 3140, Note_on_c, 0, 76, 0
1, 3240, Note_on_c, 0, 79, 58
1, 3260, Note_on_c, 0, 78, 0
1, 3360, Note_on_c, 0, 69, 60
1, 3360, Note_on_c, 0, 61, 41
1, 3380, Note_on_c, 0, 79, 0
1, 3480, Tempo, 410959
1, 3480, Note_on_c, 0, 69, 0
1, 3480, Note_on_c, 0, 79, 58
1, 3540, Note_on_c, 0, 61, 0
1, 3600, Note_on_c, 0, 78, 58
1, 3620, Note_on_c, 0, 79, 0
1, 3720, Tempo, 425532
1, 3720, Note_on_c, 0, 76, 58
1, 3740, Note_on_c, 0, 78, 0
1, 3840, Tempo, 416667
1, 3840, Note_on_c, 0, 78, 62
1, 3840, Note_on_c, 0, 50, 45
1, 3860, Note_on_c, 0, 76, 0
1, 3960, Note_on_c, 0, 78, 0
1, 3960, Note_on_c, 0, 74, 57
1, 4020, Note_on_c, 0, 50, 0
1, 4080, Note_on_c, 0, 76, 56
1, 4100, Note_on_c, 0, 74, 0
1, 4200, Note_on_c, 0, 78, 56
1, 4220, Note_on_c, 0, 76, 0
1, 4320, Note_on_c, 0, 69, 61
1, 4320, Note_on_c, 0, 62, 40
1, 4340, Note_on_c, 0, 78, 0
1, 4440, Tempo, 418118
1, 4440, Note_on_c, 0, 69, 0
1, 4440, Note_on_c, 0, 73, 56
1, 4500, Note_on_c, 0, 62, 0
1, 4520, Tempo, 416667
1, 4560, Note_on_c, 0, 71, 56
1, 4580, Note_on_c, 0, 73, 0
1, 4600, Tempo, 415225
1, 4680, Tempo, 413793
1, 4680, Note_on_c, 0, 69, 56
1, 4700, Note_on_c, 0, 71, 0
1, 4760, Tempo, 412371
1, 4800, Note_on_c, 0, 71, 62
1, 4800, Note_on_c, 0, 50, 44
1, 4820, Note_on_c, 0, 69, 0
1, 4840, Tempo, 410959
1, 4920, Tempo, 409556
1, 4920, Note_on_c, 0, 71, 0
1, 4920, Note_on_c, 0, 74, 56
1, 4980, Note_on_c, 0, 50, 0
1, 5040, Note_on_c, 0, 76, 56
1, 5060, Note_on_c, 0, 74, 0
1, 5160, Note_on_c, 0, 78, 56
1, 5180, Note_on_c, 0, 76, 0
1, 5280, Tempo, 418118
1, 5280, Note_on_c, 0, 71, 61
1, 5280, Note_on_c, 0, 62, 42
1, 5300, Note_on_c, 0, 78, 0
1, 5400, Tempo, 409556
1, 5400, Note_on_c, 0, 71, 0
1, 5400, Note_on_c, 0, 81, 56
1, 5460, Note_on_c, 0, 62, 0
1, 5520, Note_on_c, 0, 80, 56
1, 5540, Note_on_c, 0, 81, 0
1, 5640, Note_on_c, 0, 78, 56
1, 5660, Note_on_c, 0, 80, 0
1, 5760, Tempo, 424028
1, 5760, Note_on_c, 0, 80, 61
1, 5760, Note_on_c, 0, 50, 45
1, 5780, Note_on_c, 0, 78, 0
1, 5880, Tempo, 415225
1, 5880, Note_on_c, 0, 80, 0
1, 5880, Note_on_c, 0, 76, 56
1, 5900, Tempo, 409556
1, 5940, Note_on_c, 0, 50, 0
1, 6000, Note_on_c, 0, 78, 56
1, 6020, Note_on_c, 0, 76, 0
1, 6120, Note_on_c, 0, 80, 56
1, 6140, Note_on_c, 0, 78, 0
1, 6200, Tempo, 410959
1, 6240, Note_on_c, 0, 71, 60
1, 6240, Note_on_c, 0, 56, 42
1, 6260, Note_on_c, 0, 80, 0
1, 6360, Note_on_c, 0, 71, 0
1, 6360, Note_on_c, 0, 74, 56
1, 6420, Note_on_c, 0, 56, 0
1, 6480, Tempo, 412371
1, 6480, Note_on_c, 0, 73, 56
1, 6500, Note_on_c, 0, 74, 0
1, 6600, Note_on_c, 0, 71, 56
1, 6620, Note_on_c, 0, 73, 0
1, 6720, Note_on_c, 0, 69, 60
1, 6720, Note_on_c, 0, 49, 45
1, 6740, Note_on_c, 0, 71, 0
1, 6760, Tempo, 413793
1, 6840, Tempo, 424028
1, 6840, Note_on_c, 0, 69, 0
1, 6840, Note_on_c, 0, 73, 56
1, 6900, Note_on_c, 0, 49, 0
1, 6960, Note_on_c, 0, 74, 56
1, 6980, Note_on_c, 0, 73, 0
1, 7080, Note_on_c, 0, 76, 56
1, 7100, Note_on_c, 0, 74, 0
1, 7200, Note_on_c, 0, 66, 60
1, 7200, Note_on_c, 0, 57, 42
1, 7220, Note_on_c, 0, 76, 0
1, 7320, Tempo, 413793
1, 7320, Note_on_c, 0, 66, 0
1, 7320, Note_on_c, 0, 76, 56
1, 7380, Note_on_c, 0, 57, 0
1, 7440, Note_on_c, 0, 74, 56
1, 7460, Note_on_c, 0, 76, 0
1, 7560, Tempo, 425532
1, 7560, Note_on_c, 0, 73, 56
1, 7580, Note_on_c, 0, 74, 0
1, 7680, Tempo, 416667
1, 7680, Note_on_c, 0, 74, 60
1, 7680, Note_on_c, 0, 47, 46
1, 7700, Note_on_c, 0, 73, 0
1, 7800, Note_on_c, 0, 74, 0
1, 7800, Note_on_c, 0, 71, 56
1, 7860, Note_on_c, 0, 47, 0
1, 7920, Note_on_c, 0, 73, 56
1, 7940, Note_on_c, 0, 71, 0
1, 8040, Note_on_c, 0, 74, 56
1, 8060, Note_on_c, 0, 73, 0
1, 8160, Tempo, 416667
1, 8160, Note_on_c, 0, 66, 60
1, 8160, Note_on_c, 0, 57, 39
1, 8180, Note_on_c, 0, 74, 0
1, 8280, Note_on_c, 0, 66, 0
1, 8280, Note_on_c, 0, 69, 55
1, 8320, Tempo, 418118
1, 8340, Note_on_c, 0, 57, 0
1, 8400, Note_on_c, 0, 68, 55
1, 8420, Note_on_c, 0, 69, 0
1, 8480, Tempo, 419580
1, 8520, Note_on_c, 0, 66, 54
1, 8540, Note_on_c, 0, 68, 0
1, 8640, Tempo, 421053
1, 8640, Note_on_c, 0, 68, 59
1, 8640, Note_on_c, 0, 52, 44
1, 8660, Note_on_c, 0, 66, 0
1, 8760, Note_on_c, 0, 68, 0
1, 8760, Note_on_c, 0, 71, 54
1, 8820, Note_on_c, 0, 52, 0
1, 8880, Note_on_c, 0, 73, 54
1, 8900, Note_on_c, 0, 71, 0
1, 9000, Note_on_c, 0, 74, 54
1, 9020, Note_on_c, 0, 73, 0
1, 9120, Note_on_c, 0, 64, 59
1, 9120, Note_on_c, 0, 56, 38
1, 9140, Note_on_c, 0, 74, 0
1, 9240, Tempo, 413793
1, 9240, Note_on_c, 0, 64, 0
1, 9240, Note_on_c, 0, 74, 53
1, 9300, Note_on_c, 0, 56, 0
1, 9360, Note_on_c, 0, 73, 53
1, 9380, Note_on_c, 0, 74, 0
1, 9480, Note_on_c, 0, 71, 53
1, 9500, Note_on_c, 0, 73, 0
1, 9600, Tempo, 428571
1, 9600, Note_on_c, 0, 73, 57
1, 9600, Note_on_c, 0, 45, 42
1, 9620, Note_on_c, 0, 71, 0
1, 9720, Tempo, 415225
1, 9720, Note_on_c, 0, 73, 0
1, 9720, Note_on_c, 0, 69, 54
1, 9780, Note_on_c, 0, 45, 0
1, 9840, Note_on_c, 0, 71, 54
1, 9860, Note_on_c, 0, 69, 0
1, 9960, Note_on_c, 0, 73, 54
1, 9980, Note_on_c, 0, 71, 0
1, 10080, Note_on_c, 0, 64, 56
1, 10080, Note_on_c, 0, 57, 39
1, 10100, Note_on_c, 0, 73, 0
1, 10200, Tempo, 419580
1, 10200, Note_on_c, 0, 64, 0
1, 10200, Note_on_c, 0, 67, 53
1, 10260, Note_on_c, 0, 57, 0
1, 10320, Note_on_c, 0, 66, 53
1, 10340, Note_on_c, 0, 67, 0
1, 10440, Note_on_c, 0, 64, 53
1, 10460, Note_on_c, 0, 66, 0
1, 10560, Tempo, 412371
1, 10560, Note_on_c, 0, 66, 55
1, 10560, Note_on_c, 0, 45, 41
1, 10580, Note_on_c, 0, 64, 0
1, 10680, Note_on_c, 0, 66, 0
1, 10680, Note_on_c, 0, 69, 53
1, 10740, Note_on_c, 0, 45, 0
1, 10800, Note_on_c, 0, 71, 52
1, 10820, Note_on_c, 0, 69, 0
1, 10920, Note_on_c, 0, 73, 52
1, 10940, Note_on_c, 0, 71, 0
1, 11040, Note_on_c, 0, 66, 55
1, 11040, Note_on_c, 0, 57, 36
1, 11060, Note_on_c, 0, 73, 0
1, 11160, Tempo, 422535
1, 11160, Note_on_c, 0, 66, 0
1, 11160, Note_on_c, 0, 76, 51
1, 11220, Note_on_c, 0, 57, 0
1, 11280, Note_on_c, 0, 75, 51
1, 11300, Note_on_c, 0, 76, 0
1, 11400, Note_on_c, 0, 73, 51
1, 11420, Note_on_c, 0, 75, 0
1, 11520, Note_on_c, 0, 75, 54
1, 11520, Note_on_c, 0, 45, 39
1, 11540, Note_on_c, 0, 73, 0
1, 11640, Tempo, 415225
1, 11640, Note_on_c, 0, 75, 0
1, 11640, Note_on_c, 0, 71, 51
1, 11700, Note_on_c, 0, 45, 0
1, 11760, Note_on_c, 0, 73, 51
1, 11780, Note_on_c, 0, 71, 0
1, 11880, Note_on_c, 0, 75, 51
1, 11900, Note_on_c, 0, 73, 0
1, 12000, Note_on_c, 0, 66, 54
1, 12000, Note_on_c, 0, 51, 36
1, 12020, Note_on_c, 0, 75, 0
1, 12120, Note_on_c, 0, 66, 0
1, 12120, Note_on_c, 0, 69, 52
1, 12180, Note_on_c, 0, 51, 0
1, 12240, Note_on_c, 0, 67, 52
1, 12260, Note_on_c, 0, 69, 0
1, 12360, Note_on_c, 0, 66, 52
1, 12380, Note_on_c, 0, 67, 0
1, 12480, Tempo, 413793
1, 12480, Note_on_c, 0, 64, 55
1, 12480, Note_on_c, 0, 43, 41
1, 12500, Note_on_c, 0, 66, 0
1, 12580, Tempo, 412371
1, 12600, Note_on_c, 0, 64, 0
1, 12600, Note_on_c, 0, 67, 53
1, 12660, Note_on_c, 0, 43, 0
1, 12680, Tempo, 410959
1, 12720, Note_on_c, 0, 69, 53
1, 12740, Note_on_c, 0, 67, 0
1, 12780, Tempo, 409556
1, 12840, Note_on_c, 0, 71, 53
1, 12860, Note_on_c, 0, 69, 0
1, 12880, Tempo, 408163
1, 12960, Tempo, 406780
1, 12960, Note_on_c, 0, 61, 57
1, 12960, Note_on_c, 0, 52, 38
1, 12980, Note_on_c, 0, 71, 0
1, 13080, Tempo, 409556
1, 13080, Note_on_c, 0, 61, 0
1, 13080, Note_on_c, 0, 74, 54
1, 13140, Note_on_c, 0, 52, 0
1, 13200, Note_on_c, 0, 73, 54
1, 13220, Note_on_c, 0, 74, 0
1, 13320, Note_on_c, 0, 71, 54
1, 13340, Note_on_c, 0, 73, 0
1, 13440, Note_on_c, 0, 70, 57
1, 13440, Note_on_c, 0, 42, 44
1, 13460, Note_on_c, 0, 71, 0
1, 13560, Tempo, 416667
1, 13560, Note_on_c, 0, 70, 0
1, 13560, Note_on_c, 0, 64, 55
1, 13620, Note_on_c, 0, 42, 0
1, 13680, Note_on_c, 0, 66, 55
1, 13700, Note_on_c, 0, 64, 0
1, 13800, Note_on_c, 0, 67, 55
1, 13820, Note_on_c, 0, 66, 0
1, 13900, Tempo, 416667
1, 13920, Note_on_c, 0, 61, 59
1, 13920, Note_on_c, 0, 54, 39
1, 13940, Note_on_c, 0, 67, 0
1, 14040, Tempo, 415225
1, 14040, Note_on_c, 0, 61, 0
1, 14040, Note_on_c, 0, 67, 55
1, 14100, Note_on_c, 0, 54, 0
1, 14160, Note_on_c, 0, 66, 56
1, 14180, Tempo, 413793
1, 14180, Note_on_c, 0, 67, 0
1, 14280, Note_on_c, 0, 64, 56
1, 14300, Note_on_c, 0, 66, 0
1, 14320, Tempo, 412371
1, 14400, Note_on_c, 0, 62, 61
1, 14400, Note_on_c, 0, 42, 46
1, 14420, Note_on_c, 0, 64, 0
1, 14440, Tempo, 410959
1, 14520, Tempo, 409556
1, 14520, Note_on_c, 0, 62, 0
1, 14520, Note_on_c, 0, 71, 57
1, 14580, Note_on_c, 0, 42, 0
1, 14640, Note_on_c, 0, 73, 57
1, 14660, Note_on_c, 0, 71, 0
1, 14760, Note_on_c, 0, 74, 57
1, 14780, Note_on_c, 0, 73, 0
1, 14880, Note_on_c, 0, 66, 62
1, 14880, Note_on_c, 0, 54, 41
1, 14900, Note_on_c, 0, 74, 0
1, 15000, Note_on_c, 0, 66, 0
1, 15000, Note_on_c, 0, 69, 58
1, 15060, Note_on_c, 0, 54, 0
1, 15120, Note_on_c, 0, 68, 58
1, 15140, Note_on_c, 0, 69, 0
1, 15240, Note_on_c, 0, 66, 58
1, 15260, Note_on_c, 0, 68, 0
1, 15360, Note_on_c, 0, 65, 63
1, 15360, Note_on_c, 0, 42, 46
1, 15380, Note_on_c, 0, 66, 0
1, 15480, Tempo, 416667
1, 15480, Note_on_c, 0, 65, 0
1, 15480, Note_on_c, 0, 68, 58
1, 15540, Note_on_c, 0, 42, 0
1, 15600, Note_on_c, 0, 69, 59
1, 15620, Note_on_c, 0, 68, 0
1, 15720, Note_on_c, 0, 71, 59
1, 15740, Note_on_c, 0, 69, 0
1, 15840, Note_on_c, 0, 65, 63
1, 15840, Note_on_c, 0, 54, 42
1, 15860, Note_on_c, 0, 71, 0
1, 15960, Note_on_c, 0, 65, 0
1, 15960, Note_on_c, 0, 74, 59
1, 16020, Note_on_c, 0, 54, 0
1, 16080, Note_on_c, 0, 73, 59
1, 16100, Note_on_c, 0, 74, 0
1, 16200, Note_on_c, 0, 71, 60
1, 16220, Note_on_c, 0, 73, 0
1, 16320, Note_on_c, 0, 80, 63
1, 16320, Note_on_c, 0, 42, 47
1, 16340, Note_on_c, 0, 71, 0
1, 16440, Tempo, 408163
1, 16440, Note_on_c, 0, 80, 0
1, 16440, Note_on_c, 0, 77, 60
1, 16500, Note_on_c, 0, 42, 0
1, 16560, Note_on_c, 0, 78, 60
1, 16580, Note_on_c, 0, 77, 0
1, 16680, Note_on_c, 0, 80, 60
1, 16700, Note_on_c, 0, 78, 0
1, 16800, Tempo, 424028
1, 16800, Note_on_c, 0, 73, 65
1, 16800, Note_on_c, 0, 54, 42
1, 16820, Note_on_c, 0, 80, 0
1, 16920, Tempo, 421053
1, 16920, Note_on_c, 0, 73, 0
1, 16920, Note_on_c, 0, 83, 61
1, 16980, Note_on_c, 0, 54, 0
1, 17040, Note_on_c, 0, 81, 62
1, 17060, Note_on_c, 0, 83, 0
1, 17160, Note_on_c, 0, 80, 62
1, 17180, Note_on_c, 0, 81, 0
1, 17280, Note_on_c, 0, 81, 67
1, 17280, Note_on_c, 0, 42, 49
1, 17300, Note_on_c, 0, 80, 0
1, 17400, Tempo, 408163
1, 17400, Note_on_c, 0, 81, 0
1, 17400, Note_on_c, 0, 78, 62
1, 17460, Note_on_c, 0, 42, 0
1, 17520, Note_on_c, 0, 80, 62
1, 17540, Note_on_c, 0, 78, 0
1, 17640, Note_on_c, 0, 81, 62
1, 17660, Note_on_c, 0, 80, 0
1, 17760, Tempo, 408163
1, 17760, Note_on_c, 0, 73, 67
1, 17760, Note_on_c, 0, 54, 44
1, 17780, Note_on_c, 0, 81, 0
1, 17880, Note_on_c, 0, 73, 0
1, 17880, Note_on_c, 0, 76, 62
1, 17940, Note_on_c, 0, 54, 0
1, 18000, Tempo, 406780
1, 18000, Note_on_c, 0, 75, 62
1, 18020, Note_on_c, 0, 76, 0
1, 18120, Note_on_c, 0, 73, 62
1, 18140, Note_on_c, 0, 75, 0
1, 18240, Tempo, 405405
1, 18240, Note_on_c, 0, 75, 67
1, 18240, Note_on_c, 0, 47, 49
1, 18260, Note_on_c, 0, 73, 0
1, 18360, Note_on_c, 0, 75, 0
1, 18360, Note_on_c, 0, 78, 62
1, 18420, Note_on_c, 0, 47, 0
1, 18480, Tempo, 404040
1, 18480, Note_on_c, 0, 79, 62
1, 18500, Note_on_c, 0, 78, 0
1, 18600, Note_on_c, 0, 81, 62
1, 18620, Note_on_c, 0, 79, 0
1, 18700, Tempo, 402685
1, 18720, Tempo, 424028
1, 18720, Note_on_c, 0, 71, 67
1, 18720, Note_on_c, 0, 51, 45
1, 18740, Note_on_c, 0, 81, 0
1, 18840, Tempo, 408163
1, 18840, Note_on_c, 0, 71, 0
1, 18840, Note_on_c, 0, 81, 62
1, 18900, Note_on_c, 0, 51, 0
1, 18920, Tempo, 409556
1, 18960, Note_on_c, 0, 79, 62
1, 18980, Tempo, 410959
1, 18980, Note_on_c, 0, 81, 0
1, 19040, Tempo, 412371
1, 19080, Note_on_c, 0, 78, 62
1, 19100, Tempo, 413793
1, 19100, Note_on_c, 0, 79, 0
1, 19160, Tempo, 415225
1, 19200, Note_on_c, 0, 79, 67
1, 19200, Note_on_c, 0, 40, 48
1, 19220, Tempo, 416667
1, 19220, Note_on_c, 0, 78, 0
1, 19320, Tempo, 415225
1, 19320, Note_on_c, 0, 79, 0
1, 19320, Note_on_c, 0, 76, 62
1, 19380, Note_on_c, 0, 40, 0
1, 19440, Note_on_c, 0, 78, 62
1, 19460, Note_on_c, 0, 76, 0
1, 19560, Note_on_c, 0, 79, 62
1, 19580, Note_on_c, 0, 78, 0
1, 19680, Tempo, 415225
1, 19680, Note_on_c, 0, 71, 66
1, 19680, Note_on_c, 0, 52, 45
1, 19700, Note_on_c, 0, 79, 0
1, 19800, Note_on_c, 0, 71, 0
1, 19800, Note_on_c, 0, 74, 62
1, 19840, Tempo, 416667
1, 19860, Note_on_c, 0, 52, 0
1, 19920, Note_on_c, 0, 72, 62
1, 19940, Note_on_c, 0, 74, 0
1, 20000, Tempo, 418118
1, 20040, Note_on_c, 0, 71, 62
1, 20060, Note_on_c, 0, 72, 0
1, 20140, Tempo, 419580
1, 20160, Note_on_c, 0, 72, 66
1, 20160, Note_on_c, 0, 40, 48
1, 20180, Note_on_c, 0, 71, 0
1, 20280, Tempo, 412371
1, 20280, Note_on_c, 0, 72, 0
1, 20280, Note_on_c, 0, 75, 62
1, 20340, Note_on_c, 0, 40, 0
1, 20400, Note_on_c, 0, 76, 62
1, 20420, Note_on_c, 0, 75, 0
1, 20520, Note_on_c, 0, 78, 62
1, 20540, Note_on_c, 0, 76, 0
1, 20640, Note_on_c, 0, 69, 66
1, 20640, Note_on_c, 0, 51, 48
1, 20660, Note_on_c, 0, 78, 0
1, 20760, Tempo, 418118
1, 20760, Note_on_c, 0, 69, 0
1, 20760, Note_on_c, 0, 72, 62
1, 20820, Note_on_c, 0, 51, 0
1, 20880, Note_on_c, 0, 71, 62
1, 20900, Note_on_c, 0, 72, 0
1, 21000, Note_on_c, 0, 69, 62
1, 21020, Note_on_c, 0, 71, 0
1, 21120, Tempo, 422535
1, 21120, Note_on_c, 0, 67, 66
1, 21120, Note_on_c, 0, 40, 48
1, 21140, Note_on_c, 0, 69, 0
1, 21240, Note_on_c, 0, 67, 0
1, 21240, Note_on_c, 0, 76, 62
1, 21300, Note_on_c, 0, 40, 0
1, 21360, Note_on_c, 0, 78, 62
1, 21380, Note_on_c, 0, 76, 0
1, 21480, Note_on_c, 0, 79, 61
1, 21500, Note_on_c, 0, 78, 0
1, 21600, Note_on_c, 0, 71, 66
1, 21600, Note_on_c, 0, 52, 45
1, 21620, Note_on_c, 0, 79, 0
1, 21720, Tempo, 415225
1, 21720, Note_on_c, 0, 71, 0
1, 21720, Note_on_c, 0, 74, 62
1, 21780, Note_on_c, 0, 52, 0
1, 21840, Note_on_c, 0, 73, 62
1, 21860, Note_on_c, 0, 74, 0
1, 21960, Note_on_c, 0, 71, 62
1, 21980, Note_on_c, 0, 73, 0
1, 22080, Note_on_c, 0, 73, 66
1, 22080, Note_on_c, 0, 45, 48
1, 22100, Note_on_c, 0, 71, 0
1, 22200, Tempo, 418118
1, 22200, Note_on_c, 0, 73, 0
1, 22200, Note_on_c, 0, 76, 62
1, 22260, Note_on_c, 0, 45, 0
1, 22320, Note_on_c, 0, 78, 62
1, 22340, Note_on_c, 0, 76, 0
1, 22440, Note_on_c, 0, 79, 62
1, 22460, Note_on_c, 0, 78, 0
1, 22560, Note_on_c, 0, 69, 64
1, 22560, Note_on_c, 0, 49, 45
1, 22580, Note_on_c, 0, 79, 0
1, 22680, Tempo, 410959
1, 22680, Note_on_c, 0, 69, 0
1, 22680, Note_on_c, 0, 79, 62
1, 22740, Note_on_c, 0, 49, 0
1, 22800, Note_on_c, 0, 78, 62
1, 22820, Note_on_c, 0, 79, 0
1, 22920, Note_on_c, 0, 76, 62
1, 22940, Note_on_c, 0, 78, 0
1, 23040, Tempo, 409556
1, 23040, Note_on_c, 0, 78, 67
1, 23040, Note_on_c, 0, 38, 48
1, 23060, Note_on_c, 0, 76, 0
1, 23160, Note_on_c, 0, 78, 0
1, 23160, Note_on_c, 0, 74, 62
1, 23200, Tempo, 410959
1, 23220, Note_on_c, 0, 38, 0
1, 23280, Note_on_c, 0, 76, 62
1, 23300, Note_on_c, 0, 74, 0
1, 23360, Tempo, 412371
1, 23400, Note_on_c, 0, 78, 62
1, 23420, Note_on_c, 0, 76, 0
1, 23500, Tempo, 413793
1, 23520, Note_on_c, 0, 69, 65
1, 23520, Note_on_c, 0, 50, 44
1, 23540, Note_on_c, 0, 78, 0
1, 23640, Tempo, 415225
1, 23640, Note_on_c, 0, 69, 0
1, 23640, Note_on_c, 0, 72, 61
1, 23700, Note_on_c, 0, 50, 0
1, 23760, Note_on_c, 0, 71, 60
1, 23780, Note_on_c, 0, 72, 0
1, 23880, Note_on_c, 0, 69, 60
1, 23900, Note_on_c, 0, 71, 0
1, 24000, Note_on_c, 0, 71, 65
1, 24000, Note_on_c, 0, 38, 47
1, 24020, Note_on_c, 0, 69, 0
1, 24120, Tempo, 410959
1, 24120, Note_on_c, 0, 71, 0
1, 24120, Note_on_c, 0, 67, 59
1, 24180, Note_on_c, 0, 38, 0
1, 24240, Note_on_c, 0, 69, 59
1, 24260, Note_on_c, 0, 67, 0
1, 24360, Note_on_c, 0, 71, 59
1, 24380, Note_on_c, 0, 69, 0
1, 24480, Tempo, 419580
1, 24480, Note_on_c, 0, 61, 64
1, 24480, Note_on_c, 0, 50, 40
1, 24500, Note_on_c, 0, 71, 0
1, 24600, Tempo, 412371
1, 24600, Note_on_c, 0, 61, 0
1, 24600, Note_on_c, 0, 71, 58
1, 24660, Note_on_c, 0, 50, 0
1, 24720, Note_on_c, 0, 69, 58
1, 24740, Note_on_c, 0, 71, 0
1, 24840, Note_on_c, 0, 67, 58
1, 24860, Note_on_c, 0, 69, 0
1, 24960, Note_on_c, 0, 66, 63
1, 24960, Note_on_c, 0, 38, 45
1, 24980, Note_on_c, 0, 67, 0
1, 25080, Tempo, 416667
1, 25080, Note_on_c, 0, 66, 0
1, 25080, Note_on_c, 0, 62, 57
1, 25140, Note_on_c, 0, 38, 0
1, 25200, Note_on_c, 0, 64, 57
1, 25220, Note_on_c, 0, 62, 0
1, 25320, Note_on_c, 0, 66, 57
1, 25340, Note_on_c, 0, 64, 0
1, 25440, Note_on_c, 0, 57, 62
1, 25440, Note_on_c, 0, 50, 41
1, 25460, Note_on_c, 0, 66, 0
1, 25560, Tempo, 409556
1, 25560, Note_on_c, 0, 57, 0
1, 25560, Note_on_c, 0, 60, 57
1, 25620, Note_on_c, 0, 50, 0
1, 25680, Note_on_c, 0, 59, 56
1, 25700, Note_on_c, 0, 60, 0
1, 25800, Note_on_c, 0, 57, 56
1, 25820, Note_on_c, 0, 59, 0
1, 25920, Note_on_c, 0, 59, 61
1, 25920, Note_on_c, 0, 38, 44
1, 25940, Note_on_c, 0, 57, 0
1, 26040, Note_on_c, 0, 59, 0
1, 26040, Note_on_c, 0, 62, 56
1, 26100, Note_on_c, 0, 38, 0
1, 26160, Note_on_c, 0, 64, 56
1, 26180, Note_on_c, 0, 62, 0
1, 26280, Note_on_c, 0, 66, 55
1, 26300, Note_on_c, 0, 64, 0
1, 26400, Note_on_c, 0, 59, 60
1, 26400, Note_on_c, 0, 50, 38
1, 26420, Note_on_c, 0, 66, 0
1, 26520, Tempo, 419580
1, 26520, Note_on_c, 0, 59, 0
1, 26520, Note_on_c, 0, 69, 54
1, 26580, Note_on_c, 0, 50, 0
1, 26640, Note_on_c, 0, 68, 54
1, 26660, Note_on_c, 0, 69, 0
1, 26760, Note_on_c, 0, 66, 54
1, 26780, Note_on_c, 0, 68, 0
1, 26880, Note_on_c, 0, 68, 58
1, 26880, Note_on_c, 0, 38, 42
1, 26900, Note_on_c, 0, 66, 0
1, 27000, Tempo, 416667
1, 27000, Note_on_c, 0, 68, 0
1, 27000, Note_on_c, 0, 64, 54
1, 27020, Tempo, 416667
1, 27060, Note_on_c, 0, 38, 0
1, 27120, Note_on_c, 0, 66, 53
1, 27140, Note_on_c, 0, 64, 0
1, 27240, Note_on_c, 0, 68, 53
1, 27260, Note_on_c, 0, 66, 0
1, 27340, Tempo, 415225
1, 27360, Note_on_c, 0, 59, 57
1, 27360, Note_on_c, 0, 56, 38
1, 27380, Note_on_c, 0, 68, 0
1, 27480, Note_on_c, 0, 59, 0
1, 27480, Note_on_c, 0, 62, 53
1, 27540, Note_on_c, 0, 56, 0
1, 27600, Note_on_c, 0, 60, 53
1, 27620, Note_on_c, 0, 62, 0
1, 27640, Tempo, 413793
1, 27720, Note_on_c, 0, 59, 52
1, 27740, Note_on_c, 0, 60, 0
1, 27840, Note_on_c, 0, 57, 56
1, 27840, Note_on_c, 0, 48, 41
1, 27860, Note_on_c, 0, 59, 0
1, 27940, Tempo, 412371
1, 27960, Tempo, 412371
1, 27960, Note_on_c, 0, 57, 0
1, 27960, Note_on_c, 0, 60, 52
1, 28020, Note_on_c, 0, 48, 0
1, 28080, Note_on_c, 0, 62, 52
1, 28100, Note_on_c, 0, 60, 0
1, 28200, Note_on_c, 0, 64, 52
1, 28220, Note_on_c, 0, 62, 0
1, 28320, Note_on_c, 0, 57, 55
1, 28320, Note_on_c, 0, 54, 37
1, 28340, Note_on_c, 0, 64, 0
1, 28440, Tempo, 419580
1, 28440, Note_on_c, 0, 57, 0
1, 28440, Note_on_c, 0, 67, 51
1, 28500, Note_on_c, 0, 54, 0
1, 28560, Note_on_c, 0, 66, 50
1, 28580, Note_on_c, 0, 67, 0
1, 28680, Note_on_c, 0, 64, 50
1, 28700, Note_on_c, 0, 66, 0
1, 28800, Note_on_c, 0, 63, 54
1, 28800, Note_on_c, 0, 47, 40
1, 28820, Note_on_c, 0, 64, 0
1, 28920, Tempo, 412371
1, 28920, Note_on_c, 0, 63, 0
1, 28920, Note_on_c, 0, 57, 50
1, 28980, Note_on_c, 0, 47, 0
1, 29040, Note_on_c, 0, 59, 50
1, 29060, Note_on_c, 0, 57, 0
1, 29160, Note_on_c, 0, 60, 50
1, 29180, Note_on_c, 0, 59, 0
1, 29280, Note_on_c, 0, 57, 54
1, 29280, Note_on_c, 0, 51, 37
1, 29300, Note_on_c, 0, 60, 0
1, 29400, Note_on_c, 0, 57, 0
1, 29400, Note_on_c, 0, 60, 50
1, 29460, Note_on_c, 0, 51, 0
1, 29520, Note_on_c, 0, 59, 50
1, 29540, Note_on_c, 0, 60, 0
1, 29640, Note_on_c, 0, 57, 50
1, 29660, Note_on_c, 0, 59, 0
1, 29760, Note_on_c, 0, 55, 54
1, 29760, Note_on_c, 0, 52, 41
1, 29780, Note_on_c, 0, 57, 0
1, 29880, Tempo, 421053
1, 29880, Note_on_c, 0, 55, 0
1, 29880, Note_on_c, 0, 64, 50
1, 29940, Note_on_c, 0, 52, 0
1, 30000, Note_on_c, 0, 66, 50
1, 30020, Note_on_c, 0, 64, 0
1, 30120, Note_on_c, 0, 67, 50
1, 30140, Note_on_c, 0, 66, 0
1, 30240, Note_on_c, 0, 59, 54
1, 30240, Note_on_c, 0, 55, 36
1, 30260, Note_on_c, 0, 67, 0
1, 30360, Tempo, 412371
1, 30360, Note_on_c, 0, 59, 0
1, 30360, Note_on_c, 0, 62, 50
1, 30420, Note_on_c, 0, 55, 0
1, 30480, Tempo, 413793
1, 30480, Note_on_c, 0, 61, 50
1, 30500, Note_on_c, 0, 62, 0
1, 30600, Tempo, 415225
1, 30600, Note_on_c, 0, 59, 50
1, 30620, Note_on_c, 0, 61, 0
1, 30720, Tempo, 416667
1, 30720, Note_on_c, 0, 58, 54
1, 30720, Note_on_c, 0, 47, 41
1, 30740, Note_on_c, 0, 59, 0
1, 30820, Tempo, 418118
1, 30840, Tempo, 410959
1, 30840, Note_on_c, 0, 58, 0
1, 30840, Note_on_c, 0, 61, 50
1, 30900, Note_on_c, 0, 47, 0
1, 30960, Note_on_c, 0, 62, 50
1, 30980, Note_on_c, 0, 61, 0
1, 31080, Note_on_c, 0, 64, 50
1, 31100, Note_on_c, 0, 62, 0
1, 31200, Note_on_c, 0, 58, 54
1, 31200, Note_on_c, 0, 52, 37
1, 31220, Note_on_c, 0, 64, 0
1, 31320, Note_on_c, 0, 58, 0
1, 31320, Note_on_c, 0, 67, 50
1, 31380, Note_on_c, 0, 52, 0
1, 31440, Note_on_c, 0, 66, 50
1, 31460, Note_on_c, 0, 67, 0
1, 31560, Note_on_c, 0, 64, 51
1, 31580, Note_on_c, 0, 66, 0
1, 31680, Note_on_c, 0, 73, 55
1, 31680, Note_on_c, 0, 55, 42
1, 31700, Note_on_c, 0, 64, 0
1, 31800, Note_on_c, 0, 73, 0
1, 31800, Note_on_c, 0, 70, 51
1, 31860, Note_on_c, 0, 55, 0
1, 31920, Note_on_c, 0, 71, 52
1, 31940, Note_on_c, 0, 70, 0
1, 32040, Note_on_c, 0, 73, 52
1, 32060, Note_on_c, 0, 71, 0
1, 32160, Note_on_c, 0, 66, 55
1, 32160, Note_on_c, 0, 58, 37
1, 32180, Note_on_c, 0, 73, 0
1, 32280, Tempo, 419580
1, 32280, Note_on_c, 0, 66, 0
1, 32280, Note_on_c, 0, 76, 52
1, 32340, Note_on_c, 0, 58, 0
1, 32400, Note_on_c, 0, 74, 52
1, 32420, Note_on_c, 0, 76, 0
1, 32520, Note_on_c, 0, 73, 52
1, 32540, Note_on_c, 0, 74, 0
1, 32640, Note_on_c, 0, 74, 57
1, 32640, Note_on_c, 0, 47, 43
1, 32660, Note_on_c, 0, 73, 0
1, 32760, Tempo, 412371
1, 32760, Note_on_c, 0, 74, 0
1, 32760, Note_on_c, 0, 71, 53
1, 32820, Note_on_c, 0, 47, 0
1, 32880, Note_on_c, 0, 73, 53
1, 32900, Note_on_c, 0, 71, 0
1, 33000, Note_on_c, 0, 74, 53
1, 33020, Note_on_c, 0, 73, 0
1, 33120, Note_on_c, 0, 66, 58
1, 33120, Note_on_c, 0, 59, 38
1, 33140, Note_on_c, 0, 74, 0
1, 33240, Note_on_c, 0, 66, 0
1, 33240, Note_on_c, 0, 69, 53
1, 33300, Note_on_c, 0, 59, 0
1, 33360, Note_on_c, 0, 68, 53
1, 33380, Note_on_c, 0, 69, 0
1, 33480, Note_on_c, 0, 66, 54
1, 33500, Note_on_c, 0, 68, 0
1, 33600, Note_on_c, 0, 68, 59
1, 33600, Note_on_c, 0, 52, 44
1, 33620, Note_on_c, 0, 66, 0
1, 33680, Tempo, 412371
1, 33720, Note_on_c, 0, 68, 0
1, 33720, Note_on_c, 0, 71, 54
1, 33760, Tempo, 410959
1, 33780, Note_on_c, 0, 52, 0
1, 33840, Tempo, 409556
1, 33840, Note_on_c, 0, 72, 54
1, 33860, Note_on_c, 0, 71, 0
1, 33920, Tempo, 408163
1, 33960, Note_on_c, 0, 74, 54
1, 33980, Note_on_c, 0, 72, 0
1, 34000, Tempo, 406780
1, 34080, Tempo, 415225
1, 34080, Note_on_c, 0, 64, 59
1, 34080, Note_on_c, 0, 56, 39
1, 34100, Note_on_c, 0, 74, 0
1, 34200, Tempo, 418118
1, 34200, Note_on_c, 0, 64, 0
1, 34200, Note_on_c, 0, 74, 55
1, 34260, Note_on_c, 0, 56, 0
1, 34320, Note_on_c, 0, 72, 55
1, 34340, Note_on_c, 0, 74, 0
1, 34440, Note_on_c, 0, 71, 55
1, 34460, Note_on_c, 0, 72, 0
1, 34560, Note_on_c, 0, 72, 61
1, 34560, Note_on_c, 0, 45, 46
1, 34580, Note_on_c, 0, 71, 0
1, 34680, Tempo, 412371
1, 34680, Note_on_c, 0, 72, 0
1, 34680, Note_on_c, 0, 69, 55
1, 34740, Note_on_c, 0, 45, 0
1, 34800, Note_on_c, 0, 71, 54
1, 34820, Note_on_c, 0, 69, 0
1, 34920, Note_on_c, 0, 72, 53
1, 34940, Note_on_c, 0, 71, 0
1, 35040, Note_on_c, 0, 64, 59
1, 35040, Note_on_c, 0, 57, 40
1, 35060, Note_on_c, 0, 72, 0
1, 35140, Tempo, 410959
1, 35160, Note_on_c, 0, 64, 0
1, 35160, Note_on_c, 0, 67, 52
1, 35220, Note_on_c, 0, 57, 0
1, 35260, Tempo, 409556
1, 35280, Note_on_c, 0, 66, 52
1, 35300, Note_on_c, 0, 67, 0
1, 35380, Tempo, 408163
1, 35400, Note_on_c, 0, 64, 51
1, 35420, Note_on_c, 0, 66, 0
1, 35500, Tempo, 406780
1, 35520, Note_on_c, 0, 66, 56
1, 35520, Note_on_c, 0, 50, 43
1, 35540, Note_on_c, 0, 64, 0
1, 35580, Tempo, 408163
1, 35640, Tempo, 409556
1, 35640, Note_on_c, 0, 66, 0
1, 35640, Note_on_c, 0, 69, 50
1, 35700, Note_on_c, 0, 50, 0
1, 35720, Tempo, 410959
1, 35760, Note_on_c, 0, 71, 50
1, 35780, Tempo, 412371
1, 35780, Note_on_c, 0, 69, 0
1, 35860, Tempo, 413793
1, 35880, Note_on_c, 0, 72, 49
1, 35900, Note_on_c, 0, 71, 0
1, 35920, Tempo, 415225
1, 35980, Tempo, 416667
1, 36000, Note_on_c, 0, 62, 54
1, 36000, Note_on_c, 0, 54, 36
1, 36020, Note_on_c, 0, 72, 0
1, 36120, Note_on_c, 0, 62, 0
1, 36120, Note_on_c, 0, 72, 48
1, 36180, Note_on_c, 0, 54, 0
1, 36240, Note_on_c, 0, 71, 47
1, 36260, Note_on_c, 0, 72, 0
1, 36360, Note_on_c, 0, 69, 47
1, 36380, Note_on_c, 0, 71, 0
1, 36480, Note_on_c, 0, 71, 51
1, 36480, Note_on_c, 0, 43, 39
1, 36500, Note_on_c, 0, 69, 0
1, 36600, Tempo, 410959
1, 36600, Note_on_c, 0, 71, 0
1, 36600, Note_on_c, 0, 67, 46
1, 36660, Note_on_c, 0, 43, 0
1, 36720, Note_on_c, 0, 69, 46
1, 36740, Note_on_c, 0, 67, 0
1, 36840, Note_on_c, 0, 71, 46
1, 36860, Note_on_c, 0, 69, 0
1, 36960, Tempo, 421053
1, 36960, Note_on_c, 0, 62, 51
1, 36960, Note_on_c, 0, 55, 34
1, 36980, Note_on_c, 0, 71, 0
1, 37080, Tempo, 425532
1, 37080, Note_on_c, 0, 62, 0
1, 37080, Note_on_c, 0, 71, 46
1, 37140, Note_on_c, 0, 55, 0
1, 37200, Note_on_c, 0, 69, 46
1, 37220, Note_on_c, 0, 71, 0
1, 37320, Note_on_c, 0, 67, 46
1, 37340, Tempo, 418118
1, 37340, Note_on_c, 0, 69, 0
1, 37400, Tempo, 419580
1, 37440, Note_on_c, 0, 74, 51
1, 37440, Note_on_c, 0, 47, 39
1, 37460, Note_on_c, 0, 67, 0
1, 37560, Tempo, 413793
1, 37560, Note_on_c, 0, 74, 0
1, 37560, Note_on_c, 0, 67, 46
1, 37620, Note_on_c, 0, 47, 0
1, 37640, Tempo, 413793
1, 37680, Note_on_c, 0, 69, 46
1, 37700, Note_on_c, 0, 67, 0
1, 37780, Tempo, 415225
1, 37800, Note_on_c, 0, 71, 46
1, 37820, Note_on_c, 0, 69, 0
1, 37900, Tempo, 416667
1, 37920, Note_on_c, 0, 62, 51
1, 37920, Note_on_c, 0, 55, 35
1, 37940, Note_on_c, 0, 71, 0
1, 38020, Tempo, 418118
1, 38040, Tempo, 422535
1, 38040, Note_on_c, 0, 62, 0
1, 38040, Note_on_c, 0, 71, 46
1, 38100, Note_on_c, 0, 55, 0
1, 38160, Note_on_c, 0, 69, 46
1, 38180, Note_on_c, 0, 71, 0
1, 38280, Note_on_c, 0, 67, 46
1, 38300, Note_on_c, 0, 69, 0
1, 38400, Note_on_c, 0, 72, 51
1, 38400, Note_on_c, 0, 45, 39
1, 38420, Note_on_c, 0, 67, 0
1, 38440, Tempo, 421053
1, 38520, Tempo, 416667
1, 38520, Note_on_c, 0, 72, 0
1, 38520, Note_on_c, 0, 69, 48
1, 38580, Note_on_c, 0, 45, 0
1, 38640, Note_on_c, 0, 71, 48
1, 38660, Note_on_c, 0, 69, 0
1, 38760, Note_on_c, 0, 72, 48
1, 38780, Note_on_c, 0, 71, 0
1, 38880, Note_on_c, 0, 64, 51
1, 38880, Note_on_c, 0, 55, 34
1, 38900, Note_on_c, 0, 72, 0
1, 39000, Note_on_c, 0, 64, 0
1, 39000, Note_on_c, 0, 67, 48
1, 39060, Note_on_c, 0, 55, 0
1, 39120, Note_on_c, 0, 66, 48
1, 39140, Note_on_c, 0, 67, 0
1, 39240, Note_on_c, 0, 64, 48
1, 39260, Note_on_c, 0, 66, 0
1, 39360, Note_on_c, 0, 66, 51
1, 39360, Note_on_c, 0, 50, 39
1, 39380, Note_on_c, 0, 64, 0
1, 39480, Tempo, 412371
1, 39480, Note_on_c, 0, 66, 0
1, 39480, Note_on_c, 0, 69, 48
1, 39540, Note_on_c, 0, 50, 0
1, 39600, Note_on_c, 0, 71, 48
1, 39620, Note_on_c, 0, 69, 0
1, 39720, Note_on_c, 0, 72, 48
1, 39740, Note_on_c, 0, 71, 0
1, 39840, Note_on_c, 0, 62, 51
1, 39840, Note_on_c, 0, 54, 34
1, 39860, Note_on_c, 0, 72, 0
1, 39960, Tempo, 419580
1, 39960, Note_on_c, 0, 62, 0
1, 39960, Note_on_c, 0, 72, 48
1, 40020, Note_on_c, 0, 54, 0
1, 40080, Note_on_c, 0, 71, 48
1, 40100, Note_on_c, 0, 72, 0
1, 40200, Note_on_c, 0, 69, 48
1, 40220, Note_on_c, 0, 71, 0
1, 40320, Note_on_c, 0, 71, 51
1, 40320, Note_on_c, 0, 43, 39
1, 40340, Note_on_c, 0, 69, 0
1, 40440, Tempo, 415225
1, 40440, Note_on_c, 0, 71, 0
1, 40440, Note_on_c, 0, 67, 48
1, 40500, Note_on_c, 0, 43, 0
1, 40560, Note_on_c, 0, 69, 48
1, 40580, Note_on_c, 0, 67, 0
1, 40680, Note_on_c, 0, 71, 48
1, 40700, Note_on_c, 0, 69, 0
1, 40800, Note_on_c, 0, 62, 51
1, 40800, Note_on_c, 0, 55, 34
1, 40820, Note_on_c, 0, 71, 0
1, 40920, Note_on_c, 0, 62, 0
1, 40920, Note_on_c, 0, 66, 48
1, 40980, Note_on_c, 0, 55, 0
1, 41040, Note_on_c, 0, 64, 48
1, 41060, Note_on_c, 0, 66, 0
1, 41160, Note_on_c, 0, 62, 48
1, 41180, Note_on_c, 0, 64, 0
1, 41280, Tempo, 413793
1, 41280, Note_on_c, 0, 64, 51
1, 41280, Note_on_c, 0, 43, 39
1, 41300, Note_on_c, 0, 62, 0
1, 41400, Note_on_c, 0, 64, 0
1, 41400, Note_on_c, 0, 67, 48
1, 41460, Tempo, 412371
1, 41460, Note_on_c, 0, 43, 0
1, 41520, Note_on_c, 0, 69, 48
1, 41540, Note_on_c, 0, 67, 0
1, 41620, Tempo, 410959
1, 41640, Note_on_c, 0, 71, 48
1, 41660, Note_on_c, 0, 69, 0
1, 41760, Note_on_c, 0, 64, 51
1, 41760, Note_on_c, 0, 55, 34
1, 41780, Tempo, 409556
1, 41780, Note_on_c, 0, 71, 0
1, 41880, Tempo, 409556
1, 41880, Note_on_c, 0, 64, 0
1, 41880, Note_on_c, 0, 74, 48
1, 41940, Note_on_c, 0, 55, 0
1, 42000, Note_on_c, 0, 73, 48
1, 42020, Note_on_c, 0, 74, 0
1, 42120, Note_on_c, 0, 71, 48
1, 42140, Note_on_c, 0, 73, 0
1, 42240, Note_on_c, 0, 73, 51
1, 42240, Note_on_c, 0, 43, 39
1, 42260, Note_on_c, 0, 71, 0
1, 42360, Note_on_c, 0, 73, 0
1, 42360, Note_on_c, 0, 69, 48
1, 42420, Note_on_c, 0, 43, 0
1, 42480, Note_on_c, 0, 71, 48
1, 42500, Note_on_c, 0, 69, 0
1, 42600, Note_on_c, 0, 73, 48
1, 42620, Note_on_c, 0, 71, 0
1, 42720, Note_on_c, 0, 64, 51
1, 42720, Note_on_c, 0, 49, 34
1, 42740, Note_on_c, 0, 73, 0
1, 42840, Note_on_c, 0, 64, 0
1, 42840, Note_on_c, 0, 67, 49
1, 42900, Note_on_c, 0, 49, 0
1, 42960, Note_on_c, 0, 66, 49
1, 42980, Note_on_c, 0, 67, 0
1, 43080, Note_on_c, 0, 64, 49
1, 43100, Note_on_c, 0, 66, 0
1, 43200, Tempo, 408163
1, 43200, Note_on_c, 0, 62, 52
1, 43200, Note_on_c, 0, 42, 39
1, 43220, Note_on_c, 0, 64, 0
1, 43320, Note_on_c, 0, 62, 0
1, 43320, Note_on_c, 0, 66, 49
1, 43360, Tempo, 409556
1, 43380, Note_on_c, 0, 42, 0
1, 43440, Note_on_c, 0, 67, 49
1, 43460, Note_on_c, 0, 66, 0
1, 43520, Tempo, 410959
1, 43560, Note_on_c, 0, 69, 49
1, 43580, Note_on_c, 0, 67, 0
1, 43680, Tempo, 412371
1, 43680, Note_on_c, 0, 59, 53
1, 43680, Note_on_c, 0, 50, 34
1, 43700, Note_on_c, 0, 69, 0
1, 43800, Tempo, 419580
1, 43800, Note_on_c, 0, 59, 0
1, 43800, Note_on_c, 0, 69, 49
1, 43860, Note_on_c, 0, 50, 0
1, 43920, Note_on_c, 0, 67, 49
1, 43940, Note_on_c, 0, 69, 0
1, 44040, Note_on_c, 0, 66, 49
1, 44060, Note_on_c, 0, 67, 0
1, 44160, Note_on_c, 0, 67, 53
1, 44160, Note_on_c, 0, 40, 40
1, 44180, Note_on_c, 0, 66, 0
1, 44280, Note_on_c, 0, 67, 0
1, 44280, Note_on_c, 0, 64, 49
1, 44340, Note_on_c, 0, 40, 0
1, 44400, Note_on_c, 0, 66, 49
1, 44420, Note_on_c, 0, 64, 0
1, 44520, Note_on_c, 0, 67, 49
1, 44540, Note_on_c, 0, 66, 0
1, 44640, Note_on_c, 0, 59, 54
1, 44640, Note_on_c, 0, 50, 35
1, 44660, Note_on_c, 0, 67, 0
1, 44760, Tempo, 415225
1, 44760, Note_on_c, 0, 59, 0
1, 44760, Note_on_c, 0, 62, 49
1, 44820, Note_on_c, 0, 50, 0
1, 44880, Note_on_c, 0, 61, 50
1, 44900, Note_on_c, 0, 62, 0
1, 45000, Note_on_c, 0, 59, 50
1, 45020, Note_on_c, 0, 61, 0
1, 45120, Note_on_c, 0, 61, 54
1, 45120, Note_on_c, 0, 45, 42
1, 45140, Note_on_c, 0, 59, 0
1, 45240, Note_on_c, 0, 61, 0
1, 45240, Note_on_c, 0, 64, 50
1, 45300, Note_on_c, 0, 45, 0
1, 45360, Note_on_c, 0, 66, 50
1, 45380, Note_on_c, 0, 64, 0
1, 45480, Note_on_c, 0, 67, 50
1, 45500, Note_on_c, 0, 66, 0
1, 45600, Note_on_c, 0, 57, 55
1, 45600, Note_on_c, 0, 49, 36
1, 45620, Note_on_c, 0, 67, 0
1, 45720, Tempo, 419580
1, 45720, Note_on_c, 0, 57, 0
1, 45720, Note_on_c, 0, 67, 50
1, 45780, Note_on_c, 0, 49, 0
1, 45840, Note_on_c, 0, 66, 51
1, 45860, Note_on_c, 0, 67, 0
1, 45960, Note_on_c, 0, 64, 51
1, 45980, Note_on_c, 0, 66, 0
1, 46080, Note_on_c, 0, 66, 55
1, 46080, Note_on_c, 0, 38, 43
1, 46100, Note_on_c, 0, 64, 0
1, 46200, Tempo, 415225
1, 46200, Note_on_c, 0, 66, 0
1, 46200, Note_on_c, 0, 62, 51
1, 46260, Note_on_c, 0, 38, 0
1, 46320, Note_on_c, 0, 64, 51
1, 46340, Note_on_c, 0, 62, 0
1, 46440, Note_on_c, 0, 66, 52
1, 46460, Note_on_c, 0, 64, 0
1, 46560, Tempo, 413793
1, 46560, Note_on_c, 0, 57, 56
1, 46560, Note_on_c, 0, 50, 38
1, 46580, Note_on_c, 0, 66, 0
1, 46680, Note_on_c, 0, 57, 0
1, 46680, Note_on_c, 0, 66, 52
1, 46740, Tempo, 412371
1, 46740, Note_on_c, 0, 50, 0
1, 46800, Note_on_c, 0, 64, 52
1, 46820, Note_on_c, 0, 66, 0
1, 46920, Tempo, 410959
1, 46920, Note_on_c, 0, 62, 52
1, 46940, Note_on_c, 0, 64, 0
1, 47040, Note_on_c, 0, 69, 57
1, 47040, Note_on_c, 0, 42, 44
1, 47060, Note_on_c, 0, 62, 0
1, 47080, Tempo, 409556
1, 47160, Tempo, 409556
1, 47160, Note_on_c, 0, 69, 0
1, 47160, Note_on_c, 0, 66, 52
1, 47220, Note_on_c, 0, 42, 0
1, 47280, Note_on_c, 0, 67, 52
1, 47300, Note_on_c, 0, 66, 0
1, 47400, Note_on_c, 0, 69, 53
1, 47420, Note_on_c, 0, 67, 0
1, 47520, Note_on_c, 0, 62, 57
1, 47520, Note_on_c, 0, 57, 39
1, 47540, Note_on_c, 0, 69, 0
1, 47640, Tempo, 419580
1, 47640, Note_on_c, 0, 62, 0
1, 47640, Note_on_c, 0, 72, 53
1, 47700, Note_on_c, 0, 57, 0
1, 47760, Note_on_c, 0, 71, 53
1, 47780, Note_on_c, 0, 72, 0
1, 47880, Note_on_c, 0, 69, 53
1, 47900, Note_on_c, 0, 71, 0
1, 48000, Note_on_c, 0, 71, 58
1, 48000, Note_on_c, 0, 43, 45
1, 48020, Note_on_c, 0, 69, 0
1, 48120, Tempo, 413793
1, 48120, Note_on_c, 0, 71, 0
1, 48120, Note_on_c, 0, 67, 53
1, 48180, Note_on_c, 0, 43, 0
1, 48240, Note_on_c, 0, 69, 53
1, 48260, Note_on_c, 0, 67, 0
1, 48360, Note_on_c, 0, 71, 53
1, 48380, Note_on_c, 0, 69, 0
1, 48480, Note_on_c, 0, 62, 58
1, 48480, Note_on_c, 0, 55, 40
1, 48500, Note_on_c, 0, 71, 0
1, 48600, Tempo, 410959
1, 48600, Note_on_c, 0, 62, 0
1, 48600, Note_on_c, 0, 71, 54
1, 48660, Note_on_c, 0, 55, 0
1, 48720, Note_on_c, 0, 69, 54
1, 48740, Note_on_c, 0, 71, 0
1, 48840, Note_on_c, 0, 67, 54
1, 48860, Note_on_c, 0, 69, 0
1, 48960, Note_on_c, 0, 74, 59
1, 48960, Note_on_c, 0, 47, 46
1, 48980, Note_on_c, 0, 67, 0
1, 49080, Note_on_c, 0, 74, 0
1, 49080, Note_on_c, 0, 71, 54
1, 49140, Note_on_c, 0, 47, 0
1, 49200, Note_on_c, 0, 73, 54
1, 49220, Note_on_c, 0, 71, 0
1, 49320, Note_on_c, 0, 74, 54
1, 49340, Note_on_c, 0, 73, 0
1, 49440, Tempo, 408163
1, 49440, Note_on_c, 0, 68, 60
1, 49440, Note_on_c, 0, 62, 41
1, 49460, Note_on_c, 0, 74, 0
1, 49560, Tempo, 418118
1, 49560, Note_on_c, 0, 68, 0
1, 49560, Note_on_c, 0, 77, 55
1, 49620, Note_on_c, 0, 62, 0
1, 49680, Note_on_c, 0, 76, 55
1, 49700, Note_on_c, 0, 77, 0
1, 49800, Note_on_c, 0, 74, 55
1, 49820, Note_on_c, 0, 76, 0
1, 49920, Note_on_c, 0, 73, 60
1, 49920, Note_on_c, 0, 45, 47
1, 49940, Note_on_c, 0, 74, 0
1, 50040, Note_on_c, 0, 73, 0
1, 50040, Note_on_c, 0, 69, 56
1, 50160, Note_on_c, 0, 71, 56
1, 50180, Note_on_c, 0, 69, 0
1, 50280, Note_on_c, 0, 73, 56
1, 50300, Note_on_c, 0, 71, 0
1, 50400, Note_on_c, 0, 64, 60
1, 50400, Note_on_c, 0, 55, 41
1, 50420, Note_on_c, 0, 73, 0
1, 50520, Tempo, 413793
1, 50520, Note_on_c, 0, 64, 0
1, 50520, Note_on_c, 0, 67, 56
1, 50580, Note_on_c, 0, 55, 0
1, 50640, Note_on_c, 0, 66, 56
1, 50660, Note_on_c, 0, 67, 0
1, 50760, Note_on_c, 0, 64, 56
1, 50780, Note_on_c, 0, 66, 0
1, 50880, Note_on_c, 0, 69, 60
1, 50880, Note_on_c, 0, 54, 47
1, 50900, Note_on_c, 0, 64, 0
1, 51000, Tempo, 421053
1, 51000, Note_on_c, 0, 69, 0
1, 51000, Note_on_c, 0, 74, 56
1, 51060, Note_on_c, 0, 54, 0
1, 51120, Note_on_c, 0, 76, 56
1, 51140, Note_on_c, 0, 74, 0
1, 51240, Note_on_c, 0, 78, 56
1, 51260, Note_on_c, 0, 76, 0
1, 51360, Note_on_c, 0, 71, 61
1, 51360, Note_on_c, 0, 50, 41
1, 51380, Note_on_c, 0, 78, 0
1, 51480, Tempo, 412371
1, 51480, Note_on_c, 0, 71, 0
1, 51480, Note_on_c, 0, 81, 56
1, 51540, Note_on_c, 0, 50, 0
1, 51600, Note_on_c, 0, 79, 56
1, 51620, Note_on_c, 0, 81, 0
1, 51720, Note_on_c, 0, 78, 56
1, 51740, Note_on_c, 0, 79, 0
1, 51840, Note_on_c, 0, 79, 61
1, 51840, Note_on_c, 0, 52, 47
1, 51860, Note_on_c, 0, 78, 0
1, 51960, Tempo, 422535
1, 51960, Note_on_c, 0, 79, 0
1, 51960, Note_on_c, 0, 73, 56
1, 52020, Note_on_c, 0, 52, 0
1, 52080, Note_on_c, 0, 74, 56
1, 52100, Note_on_c, 0, 73, 0
1, 52200, Note_on_c, 0, 76, 56
1, 52220, Note_on_c, 0, 74, 0
1, 52320, Note_on_c, 0, 69, 61
1, 52320, Note_on_c, 0, 49, 41
1, 52340, Note_on_c, 0, 76, 0
1, 52440, Tempo, 410959
1, 52440, Note_on_c, 0, 69, 0
1, 52440, Note_on_c, 0, 79, 56
1, 52500, Note_on_c, 0, 49, 0
1, 52560, Note_on_c, 0, 78, 56
1, 52580, Note_on_c, 0, 79, 0
1, 52680, Note_on_c, 0, 76, 56
1, 52700, Note_on_c, 0, 78, 0
1, 52800, Note_on_c, 0, 78, 61
1, 52800, Note_on_c, 0, 50, 47
1, 52820, Note_on_c, 0, 76, 0
1, 52920, Tempo, 418118
1, 52920, Note_on_c, 0, 78, 0
1, 52920, Note_on_c, 0, 71, 56
1, 52980, Note_on_c, 0, 50, 0
1, 53040, Note_on_c, 0, 73, 56
1, 53060, Note_on_c, 0, 71, 0
1, 53160, Note_on_c, 0, 74, 56
1, 53180, Note_on_c, 0, 73, 0
1, 53280, Note_on_c, 0, 68, 61
1, 53280, Note_on_c, 0, 47, 41
1, 53300, Note_on_c, 0, 74, 0
1, 53400, Tempo, 416667
1, 53400, Note_on_c, 0, 68, 0
1, 53400, Note_on_c, 0, 78, 56
1, 53460, Note_on_c, 0, 47, 0
1, 53520, Note_on_c, 0, 76, 56
1, 53540, Note_on_c, 0, 78, 0
1, 53640, Note_on_c, 0, 74, 56
1, 53660, Note_on_c, 0, 76, 0
1, 53760, Note_on_c, 0, 73, 60
1, 53780, Note_on_c, 0, 74, 0
1, 53880, Note_on_c, 0, 73, 0
1, 53880, Note_on_c, 0, 67, 56
1, 53880, Note_on_c, 0, 52, 51
1, 54000, Note_on_c, 0, 69, 56
1, 54000, Note_on_c, 0, 54, 50
1, 54020, Note_on_c, 0, 52, 0
1, 54020, Note_on_c, 0, 67, 0
1, 54120, Note_on_c, 0, 70, 56
1, 54120, Note_on_c, 0, 55, 50
1, 54140, Note_on_c, 0, 54, 0
1, 54140, Note_on_c, 0, 69, 0
1, 54240, Note_on_c, 0, 64, 60
1, 54240, Note_on_c, 0, 49, 54
1, 54260, Note_on_c, 0, 55, 0
1, 54260, Note_on_c, 0, 70, 0
1, 54360, Note_on_c, 0, 49, 0
1, 54360, Note_on_c, 0, 64, 0
1, 54360, Note_on_c, 0, 67, 56
1, 54360, Note_on_c, 0, 52, 50
1, 54480, Note_on_c, 0, 65, 56
1, 54480, Note_on_c, 0, 50, 50
1, 54500, Note_on_c, 0, 52, 0
1, 54500, Note_on_c, 0, 67, 0
1, 54600, Note_on_c, 0, 64, 56
1, 54600, Note_on_c, 0, 49, 50
1, 54620, Note_on_c, 0, 50, 0
1, 54620, Note_on_c, 0, 65, 0
1, 54720, Note_on_c, 0, 65, 60
1, 54720, Note_on_c, 0, 50, 54
1, 54740, Note_on_c, 0, 49, 0
1, 54740, Note_on_c, 0, 64, 0
1, 54840, Tempo, 419580
1, 54840, Note_on_c, 0, 50, 0
1, 54840, Note_on_c, 0, 65, 0
1, 54840, Note_on_c, 0, 74, 56
1, 54840, Note_on_c, 0, 53, 51
1, 54960, Note_on_c, 0, 76, 62
1, 54960, Note_on_c, 0, 55, 53
1, 54980, Note_on_c, 0, 53, 0
1, 54980, Note_on_c, 0, 74, 0
1, 55080, Note_on_c, 0, 77, 58
1, 55080, Note_on_c, 0, 57, 53
1, 55100, Note_on_c, 0, 55, 0
1, 55100, Note_on_c, 0, 76, 0
1, 55200, Note_on_c, 0, 73, 60
1, 55200, Note_on_c, 0, 52, 54
1, 55220, Note_on_c, 0, 57, 0
1, 55220, Note_on_c, 0, 77, 0
1, 55320, Tempo, 410959
1, 55320, Note_on_c, 0, 52, 0
1, 55320, Note_on_c, 0, 73, 0
1, 55320, Note_on_c, 0, 76, 56
1, 55320, Note_on_c, 0, 55, 50
1, 55440, Note_on_c, 0, 74, 56
1, 55440, Note_on_c, 0, 53, 50
1, 55460, Note_on_c, 0, 55, 0
1, 55460, Note_on_c, 0, 76, 0
1, 55560, Note_on_c, 0, 73, 56
1, 55560, Note_on_c, 0, 52, 50
1, 55580, Note_on_c, 0, 53, 0
1, 55580, Note_on_c, 0, 74, 0
1, 55680, Tempo, 419580
1, 55680, Note_on_c, 0, 45, 0
1, 55680, Note_on_c, 0, 74, 60
1, 55680, Note_on_c, 0, 53, 55
1, 55700, Note_on_c, 0, 52, 0
1, 55700, Note_on_c, 0, 73, 0
1, 55800, Tempo, 410959
1, 55800, Note_on_c, 0, 74, 0
1, 55800, Note_on_c, 0, 53, 0
1, 55800, Note_on_c, 0, 82, 66
1, 55800, Note_on_c, 0, 50, 50
1, 55820, Tempo, 410959
1, 55920, Note_on_c, 0, 81, 65
1, 55920, Note_on_c, 0, 52, 50
1, 55940, Tempo, 409556
1, 55940, Note_on_c, 0, 50, 0
1, 55940, Note_on_c, 0, 82, 0
1, 55980, Tempo, 410959
1, 56020, Tempo, 412371
1, 56040, Note_on_c, 0, 79, 64
1, 56040, Note_on_c, 0, 53, 50
1, 56060, Tempo, 413793
1, 56060, Note_on_c, 0, 81, 0
1, 56060, Note_on_c, 0, 52, 0
1, 56100, Tempo, 415225
1, 56140, Tempo, 416667
1, 56160, Note_on_c, 0, 77, 62
1, 56160, Note_on_c, 0, 45, 51
1, 56180, Tempo, 418118
1, 56180, Note_on_c, 0, 79, 0
1, 56180, Note_on_c, 0, 53, 0
1, 56220, Tempo, 419580
1, 56260, Tempo, 421053
1, 56280, Note_on_c, 0, 77, 0
1, 56280, Note_on_c, 0, 45, 0
1, 56280, Note_on_c, 0, 76, 61
1, 56280, Note_on_c, 0, 48, 52
1, 56300, Tempo, 422535
1, 56340, Tempo, 424028
1, 56380, Tempo, 425532
1, 56400, Note_on_c, 0, 74, 60
1, 56400, Note_on_c, 0, 46, 54
1, 56420, Tempo, 427046
1, 56420, Note_on_c, 0, 48, 0
1, 56420, Note_on_c, 0, 76, 0
1, 56460, Tempo, 428571
1, 56500, Tempo, 430108
1, 56520, Note_on_c, 0, 73, 58
1, 56520, Note_on_c, 0, 45, 56
1, 56540, Tempo, 431655
1, 56540, Note_on_c, 0, 74, 0
1, 56540, Note_on_c, 0, 46, 0
1, 56580, Tempo, 433213
1, 56620, Tempo, 434783
1, 56640, Tempo, 418118
1, 56640, Note_on_c, 0, 74, 60
1, 56640, Note_on_c, 0, 44, 58
1, 56660, Note_on_c, 0, 73, 0
1, 56660, Note_on_c, 0, 45, 0
1, 56760, Tempo, 413793
1, 56760, Note_on_c, 0, 74, 0
1, 56760, Note_on_c, 0, 77, 62
1, 56880, Note_on_c, 0, 76, 61
1, 56900, Note_on_c, 0, 77, 0
1, 57000, Note_on_c, 0, 74, 60
1, 57020, Note_on_c, 0, 76, 0
1, 57120, Note_on_c, 0, 83, 65
1, 57140, Note_on_c, 0, 74, 0
1, 57240, Tempo, 410959
1, 57240, Note_on_c, 0, 83, 0
1, 57240, Note_on_c, 0, 80, 61
1, 57360, Note_on_c, 0, 81, 63
1, 57380, Note_on_c, 0, 80, 0
1, 57480, Note_on_c, 0, 83, 66
1, 57500, Note_on_c, 0, 81, 0
1, 57600, Note_on_c, 0, 77, 68
1, 57620, Note_on_c, 0, 83, 0
1, 57720, Note_on_c, 0, 77, 0
1, 57720, Note_on_c, 0, 74, 61
1, 57840, Note_on_c, 0, 76, 61
1, 57860, Note_on_c, 0, 74, 0
1, 57960, Note_on_c, 0, 77, 61
1, 57980, Note_on_c, 0, 76, 0
1, 58080, Note_on_c, 0, 71, 65
1, 58100, Note_on_c, 0, 77, 0
1, 58200, Note_on_c, 0, 71, 0
1, 58200, Note_on_c, 0, 68, 59
1, 58320, Note_on_c, 0, 69, 59
1, 58340, Note_on_c, 0, 68, 0
1, 58440, Note_on_c, 0, 71, 59
1, 58460, Note_on_c, 0, 69, 0
1, 58560, Tempo, 409556
1, 58560, Note_on_c, 0, 64, 61
1, 58580, Note_on_c, 0, 71, 0
1, 58660, Tempo, 410959
1, 58680, Note_on_c, 0, 64, 0
1, 58680, Note_on_c, 0, 66, 55
1, 58760, Tempo, 412371
1, 58800, Note_on_c, 0, 68, 57
1, 58820, Note_on_c, 0, 66, 0
1, 58860, Tempo, 413793
1, 58920, Note_on_c, 0, 69, 59
1, 58940, Note_on_c, 0, 68, 0
1, 58960, Tempo, 415225
1, 59040, Tempo, 416667
1, 59040, Note_on_c, 0, 71, 60
1, 59060, Note_on_c, 0, 69, 0
1, 59140, Tempo, 418118
1, 59160, Note_on_c, 0, 73, 62
1, 59180, Note_on_c, 0, 71, 0
1, 59240, Tempo, 419580
1, 59280, Note_on_c, 0, 74, 64
1, 59300, Note_on_c, 0, 73, 0
1, 59340, Tempo, 421053
1, 59400, Note_on_c, 0, 76, 65
1, 59420, Note_on_c, 0, 74, 0
1, 59440, Tempo, 422535
1, 59520, Tempo, 436364
1, 59520, Note_on_c, 0, 44, 0
1, 59520, Note_on_c, 0, 77, 71
1, 59520, Note_on_c, 0, 45, 60
1, 59540, Note_on_c, 0, 76, 0
1, 59640, Note_on_c, 0, 73, 57
1, 59760, Note_on_c, 0, 73, 0
1, 59760, Note_on_c, 0, 74, 57
1, 59760, Note_on_c, 0, 57, 50
1, 59880, Note_on_c, 0, 74, 0
1, 59880, Note_on_c, 0, 69, 57
1, 60000, Tempo, 454545
1, 60000, Note_on_c, 0, 69, 0
1, 60000, Note_on_c, 0, 57, 0
1, 60000, Note_on_c, 0, 70, 57
1, 60000, Note_on_c, 0, 55, 50
1, 60120, Note_on_c, 0, 70, 0
1, 60120, Note_on_c, 0, 67, 57
1, 60240, Tempo, 456274
1, 60240, Note_on_c, 0, 67, 0
1, 60240, Note_on_c, 0, 55, 0
1, 60240, Note_on_c, 0, 77, 0
1, 60240, Note_on_c, 0, 76, 71
1, 60240, Note_on_c, 0, 49, 50
1, 60320, Tempo, 458015
1, 60360, Note_on_c, 0, 67, 57
1, 60380, Tempo, 459770
1, 60440, Tempo, 461538
1, 60460, Tempo, 461538
1, 60480, Note_on_c, 0, 67, 0
1, 60480, Note_on_c, 0, 49, 0
1, 60480, Note_on_c, 0, 69, 57
1, 60480, Note_on_c, 0, 53, 55
1, 60500, Tempo, 463320
1, 60540, Tempo, 465116
1, 60580, Tempo, 466926
1, 60600, Note_on_c, 0, 69, 0
1, 60600, Note_on_c, 0, 65, 57
1, 60620, Tempo, 468750
1, 60660, Tempo, 470588
1, 60700, Tempo, 472441
1, 60720, Note_on_c, 0, 65, 0
1, 60720, Note_on_c, 0, 53, 0
1, 60720, Note_on_c, 0, 76, 0
1, 60720, Note_on_c, 0, 74, 71
1, 60720, Note_on_c, 0, 50, 50
1, 60740, Tempo, 474308
1, 60780, Tempo, 476190
1, 60820, Tempo, 478088
1, 60840, Note_on_c, 0, 65, 56
1, 60860, Tempo, 480000
1, 60900, Tempo, 481928
1, 60940, Tempo, 483871
1, 60960, Note_on_c, 0, 65, 0
1, 60960, Note_on_c, 0, 50, 0
1, 60960, Note_on_c, 0, 67, 57
1, 60960, Note_on_c, 0, 52, 53
1, 60980, Tempo, 485830
1, 61000, Tempo, 487805
1, 61020, Tempo, 489796
1, 61040, Tempo, 491803
1, 61060, Tempo, 493827
1, 61080, Note_on_c, 0, 67, 0
1, 61080, Note_on_c, 0, 64, 57
1, 61100, Tempo, 495868
1, 61120, Tempo, 497925
1, 61140, Tempo, 500000
1, 61160, Tempo, 502092
1, 61180, Tempo, 504202
1, 61200, Tempo, 571429
1, 61200, Note_on_c, 0, 64, 0
1, 61200, Note_on_c, 0, 52, 0
1, 61200, Note_on_c, 0, 74, 0
1, 61200, Note_on_c, 0, 73, 69
1, 61200, Note_on_c, 0, 55, 50
1, 61320, Note_on_c, 0, 64, 56
1, 61400, Tempo, 524017
1, 61420, Tempo, 526316
1, 61440, Tempo, 833333
1, 61440, Note_on_c, 0, 64, 0
1, 61440, Note_on_c, 0, 45, 0
1, 61440, Note_on_c, 0, 73, 0
1, 61440, Note_on_c, 0, 55, 0
1, 61440, Note_on_c, 0, 45, 44
1, 61470, Note_on_c, 0, 50, 45
1, 61500, Note_on_c, 0, 53, 48
1, 61530, Note_on_c, 0, 56, 49
1, 61560, Note_on_c, 0, 59, 52
1, 61590, Note_on_c, 0, 62, 52
1, 61620, Note_on_c, 0, 65, 57
1, 61650, Note_on_c, 0, 68, 60
1, 61680, Note_on_c, 0, 71, 64
1, 61710, Note_on_c, 0, 74, 68
1, 61920, Tempo, 655738
1, 61920, Note_on_c, 0, 71, 0
1, 61920, Note_on_c, 0, 68, 0
1, 61920, Note_on_c, 0, 56, 0
1, 61920, Note_on_c, 0, 65, 0
1, 61920, Note_on_c, 0, 59, 0
1, 61920, Note_on_c, 0, 50, 0
1, 61920, Note_on_c, 0, 53, 0
1, 61920, Note_on_c, 0, 45, 0
1, 61920, Note_on_c, 0, 62, 0
1, 61980, Note_on_c, 0, 74, 0
1, 61980, Note_on_c, 0, 73, 53
1, 62040, Note_on_c, 0, 73, 0
1, 62040, Note_on_c, 0, 71, 53
1, 62100, Note_on_c, 0, 71, 0
1, 62100, Note_on_c, 0, 69, 52
1, 62120, Tempo, 652174
1, 62160, Note_on_c, 0, 69, 0
1, 62160, Note_on_c, 0, 68, 52
1, 62220, Tempo, 648649
1, 62220, Note_on_c, 0, 68, 0
1, 62220, Note_on_c, 0, 66, 51
1, 62280, Note_on_c, 0, 66, 0
1, 62280, Note_on_c, 0, 64, 51
1, 62300, Tempo, 645161
1, 62340, Note_on_c, 0, 64, 0
1, 62340, Note_on_c, 0, 66, 50
1, 62380, Tempo, 641711
1, 62400, Note_on_c, 0, 66, 0
1, 62400, Note_on_c, 0, 68, 47
1, 62420, Tempo, 638298
1, 62460, Tempo, 634921
1, 62460, Note_on_c, 0, 68, 0
1, 62460, Note_on_c, 0, 69, 48
1, 62500, Tempo, 631579
1, 62520, Note_on_c, 0, 69, 0
1, 62520, Note_on_c, 0, 71, 49
1, 62540, Tempo, 628272
1, 62580, Tempo, 625000
1, 62580, Note_on_c, 0, 71, 0
1, 62580, Note_on_c, 0, 73, 50
1, 62620, Tempo, 621762
1, 62640, Note_on_c, 0, 73, 0
1, 62640, Note_on_c, 0, 74, 51
1, 62660, Tempo, 618557
1, 62700, Tempo, 615385
1, 62700, Note_on_c, 0, 74, 0
1, 62700, Note_on_c, 0, 76, 51
1, 62740, Tempo, 612245
1, 62760, Note_on_c, 0, 76, 0
1, 62760, Note_on_c, 0, 77, 52
1, 62780, Tempo, 609137
1, 62820, Tempo, 606061
1, 62820, Note_on_c, 0, 77, 0
1, 62820, Note_on_c, 0, 76, 53
1, 62860, Tempo, 603015
1, 62880, Tempo, 600000
1, 62880, Note_on_c, 0, 76, 0
1, 62880, Note_on_c, 0, 74, 54
1, 62940, Note_on_c, 0, 74, 0
1, 62940, Note_on_c, 0, 73, 53
1, 63000, Note_on_c, 0, 73, 0
1, 63000, Note_on_c, 0, 71, 52
1, 63060, Note_on_c, 0, 71, 0
1, 63060, Note_on_c, 0, 69, 52
1, 63120, Note_on_c, 0, 69, 0
1, 63120, Note_on_c, 0, 68, 51
1, 63180, Note_on_c, 0, 68, 0
1, 63180, Note_on_c, 0, 66, 51
1, 63240, Note_on_c, 0, 66, 0
1, 63240, Note_on_c, 0, 64, 50
1, 63300, Note_on_c, 0, 64, 0
1, 63300, Note_on_c, 0, 62, 49
1, 63360, Tempo, 833333
1, 63360, Note_on_c, 0, 62, 0
1, 63360, Note_on_c, 0, 61, 58
1, 63390, Note_on_c, 0, 64, 58
1, 63420, Note_on_c, 0, 67, 58
1, 63450, Note_on_c, 0, 70, 58
1, 63480, Note_on_c, 0, 73, 58
1, 63510, Note_on_c, 0, 76, 58
1, 63540, Note_on_c, 0, 79, 58
1, 63570, Note_on_c, 0, 82, 58
1, 63600, Note_on_c, 0, 82, 0
1, 63600, Note_on_c, 0, 61, 0
1, 63600, Note_on_c, 0, 73, 0
1, 63600, Note_on_c, 0, 64, 0
1, 63600, Note_on_c, 0, 67, 0
1, 63600, Note_on_c, 0, 70, 0
1, 63600, Note_on_c, 0, 76, 0
1, 63600, Note_on_c, 0, 79, 0
1, 63840, Note_on_c, 0, 62, 62
1, 63870, Note_on_c, 0, 65, 62
1, 63900, Note_on_c, 0, 68, 62
1, 63930, Note_on_c, 0, 71, 62
1, 63960, Note_on_c, 0, 74, 63
1, 63990, Note_on_c, 0, 77, 63
1, 64020, Note_on_c, 0, 80, 63
1, 64050, Note_on_c, 0, 83, 63
1, 64080, Note_on_c, 0, 83, 0
1, 64080, Note_on_c, 0, 62, 0
1, 64080, Note_on_c, 0, 74, 0
1, 64080, Note_on_c, 0, 65, 0
1, 64080, Note_on_c, 0, 68, 0
1, 64080, Note_on_c, 0, 71, 0
1, 64080, Note_on_c, 0, 77, 0
1, 64080, Note_on_c, 0, 80, 0
1, 64320, Tempo, 754717
1, 64320, Note_on_c, 0, 69, 58
1, 64320, Note_on_c, 0, 64, 58
1, 64320, Note_on_c, 0, 74, 69
1, 64320, Note_on_c, 0, 45, 57
1, 64320, Note_on_c, 0, 52, 68
1, 64320, Note_on_c, 0, 57, 68
1, 64800, Tempo, 816327
1, 64800, Note_on_c, 0, 52, 0
1, 64800, Note_on_c, 0, 74, 0
1, 64800, Note_on_c, 0, 73, 65
1, 64800, Note_on_c, 0, 55, 63
1, 65280, Note_on_c, 0, 55, 0
1, 65280, Note_on_c, 0, 57, 0
1, 65280, Note_on_c, 0, 64, 0
1, 65280, Note_on_c, 0, 69, 0
1, 65280, Note_on_c, 0, 73, 0
1, 65280, Note_on_c, 0, 45, 0
1, 65280, Note_on_c, 0, 74, 71
1, 65280, Note_on_c, 0, 69, 60
1, 65280, Note_on_c, 0, 66, 60
1, 65280, Note_on_c, 0, 50, 57
1, 65280, Note_on_c, 0, 57, 68
1, 65280, Note_on_c, 0, 54, 57
1, 66720, Tempo, 2000000
1, 66720, Note_on_c, 0, 54, 0
1, 66720, Note_on_c, 0, 69, 0
1, 66720, Note_on_c, 0, 66, 0
1, 66720, Note_on_c, 0, 74, 0
1, 66720, Note_on_c, 0, 57, 0
1, 66720, Note_on_c, 0, 50, 0
1, 67200, Tempo, 1000000
1, 67200, Marker_t, "Fuga"
1, 67200, Control_c, 0, 91, 127
1, 67200, Control_c, 0, 91, 127
1, 67200, Control_c, 0, 91, 127
1, 67200, Control_c, 0, 91, 127
1, 67680, Note_on_c, 0, 50, 66
1, 67740, Note_on_c, 0, 50, 0
1, 67740, Note_on_c, 0, 52, 66
1, 67800, Note_on_c, 0, 52, 0
1, 67800, Note_on_c, 0, 54, 66
1, 67860, Note_on_c, 0, 54, 0
1, 67860, Note_on_c, 0, 55, 66
1, 67920, Note_on_c, 0, 55, 0
1, 67920, Note_on_c, 0, 54, 66
1, 67980, Note_on_c, 0, 54, 0
1, 67980, Note_on_c, 0, 52, 66
1, 68040, Note_on_c, 0, 52, 0
1, 68040, Note_on_c, 0, 54, 66
1, 68100, Note_on_c, 0, 54, 0
1, 68100, Note_on_c, 0, 50, 66
1, 68160, Note_on_c, 0, 50, 0
1, 68160, Note_on_c, 0, 59, 71
1, 68520, Note_on_c, 0, 59, 0
1, 68520, Note_on_c, 0, 59, 67
1, 68640, Note_on_c, 0, 59, 0
1, 68640, Note_on_c, 0, 57, 72
1, 69000, Note_on_c, 0, 57, 0
1, 69000, Note_on_c, 0, 55, 66
1, 69120, Note_on_c, 0, 55, 0
1, 69120, Note_on_c, 0, 54, 67
1, 69480, Note_on_c, 0, 54, 0
1, 69480, Note_on_c, 0, 55, 61
1, 69600, Note_on_c, 0, 55, 0
1, 69600, Note_on_c, 0, 57, 66
1, 69600, Note_on_c, 0, 54, 60
1, 69660, Note_on_c, 0, 57, 0
1, 69660, Note_on_c, 0, 59, 66
1, 69720, Note_on_c, 0, 59, 0
1, 69720, Note_on_c, 0, 61, 66
1, 69780, Note_on_c, 0, 61, 0
1, 69780, Note_on_c, 0, 62, 66
1, 69840, Note_on_c, 0, 62, 0
1, 69840, Note_on_c, 0, 61, 66
1, 69900, Note_on_c, 0, 61, 0
1, 69900, Note_on_c, 0, 59, 66
1, 69960, Note_on_c, 0, 59, 0
1, 69960, Note_on_c, 0, 54, 0
1, 69960, Note_on_c, 0, 61, 66
1, 69960, Note_on_c, 0, 52, 57
1, 70020, Note_on_c, 0, 61, 0
1, 70020, Note_on_c, 0, 57, 66
1, 70080, Note_on_c, 0, 57, 0
1, 70080, Note_on_c, 0, 52, 0
1, 70080, Note_on_c, 0, 66, 71
1, 70080, Note_on_c, 0, 50, 60
1, 70440, Note_on_c, 0, 66, 0
1, 70440, Note_on_c, 0, 66, 66
1, 70560, Note_on_c, 0, 66, 0
1, 70560, Note_on_c, 0, 50, 0
1, 70560, Note_on_c, 0, 64, 71
1, 70560, Note_on_c, 0, 52, 56
1, 70920, Note_on_c, 0, 64, 0
1, 70920, Note_on_c, 0, 62, 66
1, 71040, Note_on_c, 0, 62, 0
1, 71040, Note_on_c, 0, 52, 0
1, 71040, Note_on_c, 0, 61, 73
1, 71040, Note_on_c, 0, 45, 62
1, 71400, Note_on_c, 0, 45, 0
1, 71400, Note_on_c, 0, 52, 56
1, 71440, Note_on_c, 0, 52, 0
1, 71440, Note_on_c, 0, 54, 56
1, 71480, Note_on_c, 0, 54, 0
1, 71480, Note_on_c, 0, 55, 56
1, 71520, Note_on_c, 0, 55, 0
1, 71520, Note_on_c, 0, 61, 0
1, 71520, Note_on_c, 0, 66, 72
1, 71520, Note_on_c, 0, 57, 63
1, 71880, Note_on_c, 0, 66, 0
1, 71880, Note_on_c, 0, 66, 68
1, 72000, Note_on_c, 0, 66, 0
1, 72000, Note_on_c, 0, 59, 73
1, 72360, Note_on_c, 0, 59, 0
1, 72360, Note_on_c, 0, 59, 67
1, 72400, Note_on_c, 0, 59, 0
1, 72400, Note_on_c, 0, 61, 67
1, 72440, Note_on_c, 0, 61, 0
1, 72440, Note_on_c, 0, 62, 67
1, 72480, Note_on_c, 0, 62, 0
1, 72480, Note_on_c, 0, 57, 0
1, 72480, Note_on_c, 0, 64, 71
1, 72480, Note_on_c, 0, 55, 56
1, 72600, Note_on_c, 0, 64, 0
1, 72600, Note_on_c, 0, 62, 67
1, 72720, Note_on_c, 0, 62, 0
1, 72720, Note_on_c, 0, 64, 72
1, 72840, Note_on_c, 0, 64, 0
1, 72840, Note_on_c, 0, 61, 67
1, 72960, Note_on_c, 0, 61, 0
1, 72960, Note_on_c, 0, 57, 73
1, 73320, Note_on_c, 0, 55, 0
1, 73320, Note_on_c, 0, 54, 54
1, 73380, Note_on_c, 0, 54, 0
1, 73380, Note_on_c, 0, 52, 54
1, 73440, Note_on_c, 0, 52, 0
1, 73440, Note_on_c, 0, 57, 0
1, 73440, Note_on_c, 0, 62, 68
1, 73440, Note_on_c, 0, 62, 67
1, 73440, Note_on_c, 0, 54, 59
1, 73500, Note_on_c, 0, 62, 0
1, 73500, Note_on_c, 0, 64, 68
1, 73560, Note_on_c, 0, 64, 0
1, 73560, Note_on_c, 0, 66, 68
1, 73620, Note_on_c, 0, 66, 0
1, 73620, Note_on_c, 0, 67, 68
1, 73680, Note_on_c, 0, 67, 0
1, 73680, Note_on_c, 0, 66, 68
1, 73740, Note_on_c, 0, 66, 0
1, 73740, Note_on_c, 0, 64, 68
1, 73800, Note_on_c, 0, 64, 0
1, 73800, Note_on_c, 0, 54, 0
1, 73800, Note_on_c, 0, 66, 68
1, 73800, Note_on_c, 0, 54, 56
1, 73860, Note_on_c, 0, 66, 0
1, 73860, Note_on_c, 0, 62, 68
1, 73920, Note_on_c, 0, 62, 0
1, 73920, Note_on_c, 0, 54, 0
1, 73920, Note_on_c, 0, 71, 73
1, 73920, Note_on_c, 0, 55, 60
1, 74280, Note_on_c, 0, 55, 0
1, 74280, Note_on_c, 0, 71, 0
1, 74280, Note_on_c, 0, 71, 68
1, 74280, Note_on_c, 0, 52, 56
1, 74400, Note_on_c, 0, 52, 0
1, 74400, Note_on_c, 0, 71, 0
1, 74400, Note_on_c, 0, 62, 0
1, 74400, Note_on_c, 0, 69, 72
1, 74400, Note_on_c, 0, 61, 58
1, 74400, Note_on_c, 0, 57, 60
1, 74760, Note_on_c, 0, 57, 0
1, 74760, Note_on_c, 0, 69, 0
1, 74760, Note_on_c, 0, 67, 69
1, 74760, Note_on_c, 0, 45, 56
1, 74880, Note_on_c, 0, 45, 0
1, 74880, Note_on_c, 0, 67, 0
1, 74880, Note_on_c, 0, 61, 0
1, 74880, Note_on_c, 0, 66, 73
1, 74880, Note_on_c, 0, 62, 63
1, 74880, Note_on_c, 0, 50, 60
1, 75240, Note_on_c, 0, 50, 0
1, 75240, Note_on_c, 0, 66, 0
1, 75240, Note_on_c, 0, 68, 68
1, 75240, Note_on_c, 0, 52, 56
1, 75360, Note_on_c, 0, 52, 0
1, 75360, Note_on_c, 0, 68, 0
1, 75360, Note_on_c, 0, 62, 0
1, 75360, Note_on_c, 0, 69, 71
1, 75360, Note_on_c, 0, 69, 73
1, 75360, Note_on_c, 0, 61, 63
1, 75360, Note_on_c, 0, 54, 60
1, 75420, Note_on_c, 0, 69, 0
1, 75420, Note_on_c, 0, 71, 71
1, 75480, Note_on_c, 0, 71, 0
1, 75480, Note_on_c, 0, 73, 71
1, 75540, Note_on_c, 0, 73, 0
1, 75540, Note_on_c, 0, 74, 71
1, 75600, Note_on_c, 0, 74, 0
1, 75600, Note_on_c, 0, 73, 71
1, 75660, Note_on_c, 0, 73, 0
1, 75660, Note_on_c, 0, 71, 71
1, 75720, Note_on_c, 0, 71, 0
1, 75720, Note_on_c, 0, 54, 0
1, 75720, Note_on_c, 0, 73, 71
1, 75720, Note_on_c, 0, 52, 56
1, 75780, Note_on_c, 0, 73, 0
1, 75780, Note_on_c, 0, 69, 71
1, 75840, Note_on_c, 0, 69, 0
1, 75840, Note_on_c, 0, 52, 0
1, 75840, Note_on_c, 0, 61, 0
1, 75840, Note_on_c, 0, 78, 75
1, 75840, Note_on_c, 0, 59, 63
1, 75840, Note_on_c, 0, 54, 60
1, 76200, Note_on_c, 0, 54, 0
1, 76200, Note_on_c, 0, 78, 0
1, 76200, Note_on_c, 0, 78, 71
1, 76200, Note_on_c, 0, 50, 56
1, 76320, Note_on_c, 0, 50, 0
1, 76320, Note_on_c, 0, 78, 0
1, 76320, Note_on_c, 0, 69, 0
1, 76320, Note_on_c, 0, 76, 76
1, 76320, Note_on_c, 0, 68, 67
1, 76320, Note_on_c, 0, 52, 62
1, 76680, Note_on_c, 0, 76, 0
1, 76680, Note_on_c, 0, 74, 71
1, 76800, Note_on_c, 0, 74, 0
1, 76800, Note_on_c, 0, 52, 0
1, 76800, Note_on_c, 0, 68, 0
1, 76800, Note_on_c, 0, 59, 0
1, 76800, Note_on_c, 0, 73, 75
1, 76800, Note_on_c, 0, 69, 72
1, 76800, Note_on_c, 0, 57, 63
1, 76800, Note_on_c, 0, 45, 63
1, 77160, Note_on_c, 0, 73, 0
1, 77160, Note_on_c, 0, 76, 69
1, 77200, Note_on_c, 0, 76, 0
1, 77200, Note_on_c, 0, 78, 69
1, 77240, Note_on_c, 0, 78, 0
1, 77240, Note_on_c, 0, 79, 69
1, 77280, Note_on_c, 0, 79, 0
1, 77280, Note_on_c, 0, 45, 0
1, 77280, Note_on_c, 0, 57, 0
1, 77280, Note_on_c, 0, 69, 0
1, 77280, Note_on_c, 0, 81, 76
1, 77280, Note_on_c, 0, 73, 65
1, 77280, Note_on_c, 0, 66, 71
1, 77340, Note_on_c, 0, 66, 0
1, 77340, Note_on_c, 0, 67, 71
1, 77400, Note_on_c, 0, 67, 0
1, 77400, Note_on_c, 0, 69, 71
1, 77460, Note_on_c, 0, 69, 0
1, 77460, Note_on_c, 0, 71, 71
1, 77520, Note_on_c, 0, 71, 0
1, 77520, Note_on_c, 0, 69, 71
1, 77580, Note_on_c, 0, 69, 0
1, 77580, Note_on_c, 0, 67, 71
1, 77640, Note_on_c, 0, 67, 0
1, 77640, Note_on_c, 0, 81, 0
1, 77640, Note_on_c, 0, 81, 72
1, 77640, Note_on_c, 0, 69, 71
1, 77700, Note_on_c, 0, 69, 0
1, 77700, Note_on_c, 0, 66, 71
1, 77760, Note_on_c, 0, 66, 0
1, 77760, Note_on_c, 0, 81, 0
1, 77760, Note_on_c, 0, 73, 0
1, 77760, Note_on_c, 0, 81, 76
1, 77760, Note_on_c, 0, 74, 65
1, 77760, Note_on_c, 0, 71, 78
1, 78120, Note_on_c, 0, 81, 0
1, 78120, Note_on_c, 0, 74, 70
1, 78160, Note_on_c, 0, 74, 0
1, 78160, Note_on_c, 0, 76, 70
1, 78200, Note_on_c, 0, 76, 0
1, 78200, Note_on_c, 0, 78, 70
1, 78240, Note_on_c, 0, 78, 0
1, 78240, Note_on_c, 0, 71, 0
1, 78240, Note_on_c, 0, 74, 0
1, 78240, Note_on_c, 0, 79, 74
1, 78240, Note_on_c, 0, 74, 65
1, 78240, Note_on_c, 0, 64, 71
1, 78300, Note_on_c, 0, 64, 0
1, 78300, Note_on_c, 0, 66, 71
1, 78360, Note_on_c, 0, 66, 0
1, 78360, Note_on_c, 0, 67, 71
1, 78420, Note_on_c, 0, 67, 0
1, 78420, Note_on_c, 0, 69, 71
1, 78480, Note_on_c, 0, 69, 0
1, 78480, Note_on_c, 0, 67, 71
1, 78540, Note_on_c, 0, 67, 0
1, 78540, Note_on_c, 0, 66, 71
1, 78600, Note_on_c, 0, 66, 0
1, 78600, Note_on_c, 0, 79, 0
1, 78600, Note_on_c, 0, 79, 70
1, 78600, Note_on_c, 0, 67, 71
1, 78660, Note_on_c, 0, 67, 0
1, 78660, Note_on_c, 0, 64, 71
1, 78720, Note_on_c, 0, 64, 0
1, 78720, Note_on_c, 0, 79, 0
1, 78720, Note_on_c, 0, 74, 0
1, 78720, Note_on_c, 0, 79, 73
1, 78720, Note_on_c, 0, 73, 66
1, 78720, Note_on_c, 0, 69, 77
1, 79080, Note_on_c, 0, 73, 0
1, 79080, Note_on_c, 0, 76, 72
1, 79120, Note_on_c, 0, 76, 0
1, 79120, Note_on_c, 0, 74, 72
1, 79160, Note_on_c, 0, 74, 0
1, 79160, Note_on_c, 0, 73, 72
1, 79200, Note_on_c, 0, 73, 0
1, 79200, Note_on_c, 0, 69, 0
1, 79200, Note_on_c, 0, 79, 0
1, 79200, Note_on_c, 0, 78, 74
1, 79200, Note_on_c, 0, 74, 77
1, 79200, Note_on_c, 0, 69, 60
1, 79200, Note_on_c, 0, 38, 66
1, 79260, Note_on_c, 0, 38, 0
1, 79260, Note_on_c, 0, 40, 66
1, 79320, Note_on_c, 0, 40, 0
1, 79320, Note_on_c, 0, 42, 66
1, 79380, Note_on_c, 0, 42, 0
1, 79380, Note_on_c, 0, 43, 66
1, 79440, Note_on_c, 0, 43, 0
1, 79440, Note_on_c, 0, 42, 66
1, 79500, Note_on_c, 0, 42, 0
1, 79500, Note_on_c, 0, 40, 66
1, 79560, Note_on_c, 0, 40, 0
1, 79560, Note_on_c, 0, 69, 0
1, 79560, Note_on_c, 0, 74, 0
1, 79560, Note_on_c, 0, 78, 0
1, 79560, Note_on_c, 0, 76, 69
1, 79560, Note_on_c, 0, 73, 69
1, 79560, Note_on_c, 0, 67, 57
1, 79560, Note_on_c, 0, 42, 66
1, 79620, Note_on_c, 0, 42, 0
1, 79620, Note_on_c, 0, 38, 66
1, 79680, Note_on_c, 0, 38, 0
1, 79680, Note_on_c, 0, 67, 0
1, 79680, Note_on_c, 0, 73, 0
1, 79680, Note_on_c, 0, 76, 0
1, 79680, Note_on_c, 0, 74, 74
1, 79680, Note_on_c, 0, 71, 74
1, 79680, Note_on_c, 0, 66, 60
1, 79680, Note_on_c, 0, 47, 72
1, 80040, Note_on_c, 0, 47, 0
1, 80040, Note_on_c, 0, 66, 0
1, 80040, Note_on_c, 0, 74, 0
1, 80040, Note_on_c, 0, 76, 71
1, 80040, Note_on_c, 0, 67, 57
1, 80040, Note_on_c, 0, 47, 66
1, 80160, Note_on_c, 0, 47, 0
1, 80160, Note_on_c, 0, 71, 0
1, 80160, Note_on_c, 0, 76, 0
1, 80160, Note_on_c, 0, 67, 0
1, 80160, Note_on_c, 0, 73, 75
1, 80160, Note_on_c, 0, 69, 65
1, 80160, Note_on_c, 0, 64, 60
1, 80160, Note_on_c, 0, 45, 71
1, 80520, Note_on_c, 0, 45, 0
1, 80520, Note_on_c, 0, 73, 0
1, 80520, Note_on_c, 0, 73, 73
1, 80520, Note_on_c, 0, 43, 66
1, 80640, Note_on_c, 0, 43, 0
1, 80640, Note_on_c, 0, 69, 0
1, 80640, Note_on_c, 0, 64, 0
1, 80640, Note_on_c, 0, 73, 0
1, 80640, Note_on_c, 0, 73, 73
1, 80640, Note_on_c, 0, 69, 65
1, 80640, Note_on_c, 0, 62, 64
1, 80640, Note_on_c, 0, 42, 72
1, 81000, Note_on_c, 0, 42, 0
1, 81000, Note_on_c, 0, 50, 66
1, 81040, Note_on_c, 0, 50, 0
1, 81040, Note_on_c, 0, 52, 66
1, 81080, Note_on_c, 0, 52, 0
1, 81080, Note_on_c, 0, 54, 66
1, 81120, Note_on_c, 0, 54, 0
1, 81120, Note_on_c, 0, 62, 0
1, 81120, Note_on_c, 0, 69, 0
1, 81120, Note_on_c, 0, 73, 0
1, 81120, Note_on_c, 0, 71, 73
1, 81120, Note_on_c, 0, 71, 65
1, 81120, Note_on_c, 0, 62, 60
1, 81120, Note_on_c, 0, 55, 72
1, 81180, Note_on_c, 0, 71, 0
1, 81180, Note_on_c, 0, 73, 73
1, 81240, Note_on_c, 0, 73, 0
1, 81240, Note_on_c, 0, 74, 73
1, 81300, Note_on_c, 0, 74, 0
1, 81300, Note_on_c, 0, 76, 73
1, 81360, Note_on_c, 0, 76, 0
1, 81360, Note_on_c, 0, 74, 73
1, 81420, Note_on_c, 0, 74, 0
1, 81420, Note_on_c, 0, 73, 73
1, 81480, Note_on_c, 0, 73, 0
1, 81480, Note_on_c, 0, 55, 0
1, 81480, Note_on_c, 0, 74, 73
1, 81480, Note_on_c, 0, 54, 66
1, 81540, Note_on_c, 0, 74, 0
1, 81540, Note_on_c, 0, 71, 70
1, 81600, Note_on_c, 0, 71, 0
1, 81600, Note_on_c, 0, 54, 0
1, 81600, Note_on_c, 0, 62, 0
1, 81600, Note_on_c, 0, 79, 78
1, 81600, Note_on_c, 0, 61, 60
1, 81600, Note_on_c, 0, 55, 72
1, 81960, Note_on_c, 0, 55, 0
1, 81960, Note_on_c, 0, 79, 0
1, 81960, Note_on_c, 0, 79, 73
1, 81960, Note_on_c, 0, 52, 66
1, 82080, Note_on_c, 0, 52, 0
1, 82080, Note_on_c, 0, 79, 0
1, 82080, Note_on_c, 0, 71, 0
1, 82080, Note_on_c, 0, 78, 76
1, 82080, Note_on_c, 0, 70, 61
1, 82080, Note_on_c, 0, 54, 71
1, 82440, Note_on_c, 0, 78, 0
1, 82440, Note_on_c, 0, 76, 73
1, 82560, Note_on_c, 0, 76, 0
1, 82560, Note_on_c, 0, 54, 0
1, 82560, Note_on_c, 0, 70, 0
1, 82560, Note_on_c, 0, 61, 0
1, 82560, Note_on_c, 0, 74, 76
1, 82560, Note_on_c, 0, 71, 65
1, 82560, Note_on_c, 0, 59, 60
1, 82560, Note_on_c, 0, 47, 66
1, 82620, Note_on_c, 0, 47, 0
1, 82620, Note_on_c, 0, 49, 66
1, 82680, Note_on_c, 0, 49, 0
1, 82680, Note_on_c, 0, 50, 66
1, 82740, Note_on_c, 0, 50, 0
1, 82740, Note_on_c, 0, 52, 66
1, 82800, Note_on_c, 0, 52, 0
1, 82800, Note_on_c, 0, 50, 66
1, 82860, Note_on_c, 0, 50, 0
1, 82860, Note_on_c, 0, 49, 66
1, 82920, Note_on_c, 0, 49, 0
1, 82920, Note_on_c, 0, 50, 66
1, 82980, Note_on_c, 0, 50, 0
1, 82980, Note_on_c, 0, 47, 66
1, 83040, Note_on_c, 0, 47, 0
1, 83040, Note_on_c, 0, 59, 0
1, 83040, Note_on_c, 0, 71, 0
1, 83040, Note_on_c, 0, 74, 0
1, 83040, Note_on_c, 0, 83, 72
1, 83040, Note_on_c, 0, 56, 73
1, 83160, Note_on_c, 0, 83, 0
1, 83160, Note_on_c, 0, 81, 70
1, 83280, Note_on_c, 0, 81, 0
1, 83280, Note_on_c, 0, 56, 0
1, 83280, Note_on_c, 0, 83, 72
1, 83400, Note_on_c, 0, 83, 0
1, 83400, Note_on_c, 0, 80, 69
1, 83520, Note_on_c, 0, 80, 0
1, 83520, Note_on_c, 0, 80, 71
1, 83520, Note_on_c, 0, 74, 55
1, 83520, Note_on_c, 0, 71, 54
1, 83640, Note_on_c, 0, 80, 0
1, 83640, Note_on_c, 0, 78, 69
1, 83760, Note_on_c, 0, 78, 0
1, 83760, Note_on_c, 0, 80, 72
1, 83880, Note_on_c, 0, 80, 0
1, 83880, Note_on_c, 0, 71, 0
1, 83880, Note_on_c, 0, 74, 0
1, 83880, Note_on_c, 0, 76, 67
1, 83880, Note_on_c, 0, 71, 52
1, 83880, Note_on_c, 0, 68, 50
1, 84000, Note_on_c, 0, 68, 0
1, 84000, Note_on_c, 0, 71, 0
1, 84000, Note_on_c, 0, 76, 0
1, 84000, Note_on_c, 0, 76, 69
1, 84000, Note_on_c, 0, 71, 55
1, 84000, Note_on_c, 0, 68, 54
1, 84120, Note_on_c, 0, 76, 0
1, 84120, Note_on_c, 0, 74, 67
1, 84240, Note_on_c, 0, 74, 0
1, 84240, Note_on_c, 0, 76, 68
1, 84360, Note_on_c, 0, 76, 0
1, 84360, Note_on_c, 0, 68, 0
1, 84360, Note_on_c, 0, 71, 0
1, 84360, Note_on_c, 0, 73, 64
1, 84360, Note_on_c, 0, 69, 52
1, 84360, Note_on_c, 0, 64, 50
1, 84480, Note_on_c, 0, 64, 0
1, 84480, Note_on_c, 0, 69, 0
1, 84480, Note_on_c, 0, 73, 0
1, 84480, Note_on_c, 0, 73, 64
1, 84480, Note_on_c, 0, 69, 55
1, 84480, Note_on_c, 0, 64, 54
1, 84480, Note_on_c, 0, 45, 66
1, 84540, Note_on_c, 0, 45, 0
1, 84540, Note_on_c, 0, 47, 66
1, 84600, Note_on_c, 0, 47, 0
1, 84600, Note_on_c, 0, 49, 66
1, 84660, Note_on_c, 0, 49, 0
1, 84660, Note_on_c, 0, 50, 66
1, 84720, Note_on_c, 0, 50, 0
1, 84720, Note_on_c, 0, 49, 66
1, 84780, Note_on_c, 0, 49, 0
1, 84780, Note_on_c, 0, 47, 66
1, 84840, Note_on_c, 0, 47, 0
1, 84840, Note_on_c, 0, 49, 66
1, 84900, Note_on_c, 0, 49, 0
1, 84900, Note_on_c, 0, 45, 66
1, 84960, Note_on_c, 0, 45, 0
1, 84960, Note_on_c, 0, 64, 0
1, 84960, Note_on_c, 0, 69, 0
1, 84960, Note_on_c, 0, 73, 0
1, 84960, Note_on_c, 0, 81, 72
1, 84960, Note_on_c, 0, 54, 73
1, 85080, Note_on_c, 0, 81, 0
1, 85080, Note_on_c, 0, 79, 70
1, 85200, Note_on_c, 0, 79, 0
1, 85200, Note_on_c, 0, 54, 0
1, 85200, Note_on_c, 0, 81, 72
1, 85320, Note_on_c, 0, 81, 0
1, 85320, Note_on_c, 0, 78, 69
1, 85440, Note_on_c, 0, 78, 0
1, 85440, Note_on_c, 0, 78, 71
1, 85440, Note_on_c, 0, 72, 55
1, 85440, Note_on_c, 0, 69, 54
1, 85560, Note_on_c, 0, 78, 0
1, 85560, Note_on_c, 0, 76, 69
1, 85680, Note_on_c, 0, 76, 0
1, 85680, Note_on_c, 0, 78, 72
1, 85800, Note_on_c, 0, 78, 0
1, 85800, Note_on_c, 0, 69, 0
1, 85800, Note_on_c, 0, 72, 0
1, 85800, Note_on_c, 0, 74, 67
1, 85800, Note_on_c, 0, 69, 52
1, 85800, Note_on_c, 0, 66, 50
1, 85920, Note_on_c, 0, 66, 0
1, 85920, Note_on_c, 0, 69, 0
1, 85920, Note_on_c, 0, 74, 0
1, 85920, Note_on_c, 0, 74, 69
1, 85920, Note_on_c, 0, 69, 55
1, 85920, Note_on_c, 0, 66, 54
1, 86040, Note_on_c, 0, 74, 0
1, 86040, Note_on_c, 0, 72, 67
1, 86160, Note_on_c, 0, 72, 0
1, 86160, Note_on_c, 0, 74, 68
1, 86280, Note_on_c, 0, 74, 0
1, 86280, Note_on_c, 0, 66, 0
1, 86280, Note_on_c, 0, 69, 0
1, 86280, Note_on_c, 0, 71, 64
1, 86280, Note_on_c, 0, 67, 52
1, 86280, Note_on_c, 0, 62, 50
1, 86400, Note_on_c, 0, 62, 0
1, 86400, Note_on_c, 0, 67, 0
1, 86400, Note_on_c, 0, 71, 0
1, 86400, Note_on_c, 0, 71, 64
1, 86400, Note_on_c, 0, 67, 55
1, 86400, Note_on_c, 0, 62, 54
1, 86400, Note_on_c, 0, 43, 63
1, 86460, Note_on_c, 0, 43, 0
1, 86460, Note_on_c, 0, 45, 63
1, 86520, Note_on_c, 0, 45, 0
1, 86520, Note_on_c, 0, 47, 63
1, 86580, Note_on_c, 0, 47, 0
1, 86580, Note_on_c, 0, 48, 63
1, 86640, Note_on_c, 0, 48, 0
1, 86640, Note_on_c, 0, 47, 63
1, 86700, Note_on_c, 0, 47, 0
1, 86700, Note_on_c, 0, 45, 63
1, 86760, Note_on_c, 0, 45, 0
1, 86760, Note_on_c, 0, 47, 63
1, 86820, Note_on_c, 0, 47, 0
1, 86820, Note_on_c, 0, 43, 63
1, 86878, Note_on_c, 0, 67, 0
1, 86880, Note_on_c, 0, 71, 0
1, 86880, Note_on_c, 0, 62, 0
1, 86880, Note_on_c, 0, 43, 0
1, 86880, Note_on_c, 0, 67, 72
1, 86880, Note_on_c, 0, 52, 68
1, 86940, Note_on_c, 0, 67, 0
1, 86940, Note_on_c, 0, 69, 72
1, 87000, Note_on_c, 0, 69, 0
1, 87000, Note_on_c, 0, 71, 72
1, 87060, Note_on_c, 0, 71, 0
1, 87060, Note_on_c, 0, 72, 72
1, 87120, Note_on_c, 0, 72, 0
1, 87120, Note_on_c, 0, 71, 72
1, 87180, Note_on_c, 0, 71, 0
1, 87180, Note_on_c, 0, 69, 72
1, 87240, Note_on_c, 0, 69, 0
1, 87240, Note_on_c, 0, 52, 0
1, 87240, Note_on_c, 0, 71, 72
1, 87240, Note_on_c, 0, 50, 60
1, 87300, Note_on_c, 0, 71, 0
1, 87300, Note_on_c, 0, 67, 72
1, 87360, Note_on_c, 0, 67, 0
1, 87360, Note_on_c, 0, 50, 0
1, 87360, Note_on_c, 0, 76, 76
1, 87360, Note_on_c, 0, 48, 66
1, 87720, Note_on_c, 0, 76, 0
1, 87720, Note_on_c, 0, 76, 71
1, 87840, Note_on_c, 0, 76, 0
1, 87840, Note_on_c, 0, 48, 0
1, 87840, Note_on_c, 0, 74, 75
1, 87840, Note_on_c, 0, 50, 60
1, 88200, Note_on_c, 0, 74, 0
1, 88200, Note_on_c, 0, 72, 71
1, 88320, Note_on_c, 0, 72, 0
1, 88320, Note_on_c, 0, 50, 0
1, 88320, Note_on_c, 0, 71, 75
1, 88320, Note_on_c, 0, 55, 66
1, 88680, Note_on_c, 0, 55, 0
1, 88680, Note_on_c, 0, 71, 0
1, 88680, Note_on_c, 0, 73, 71
1, 88680, Note_on_c, 0, 57, 49
1, 88800, Note_on_c, 0, 57, 0
1, 88800, Note_on_c, 0, 73, 0
1, 88800, Note_on_c, 0, 74, 74
1, 88800, Note_on_c, 0, 62, 67
1, 88800, Note_on_c, 0, 59, 54
1, 88860, Note_on_c, 0, 62, 0
1, 88860, Note_on_c, 0, 64, 67
1, 88920, Note_on_c, 0, 64, 0
1, 88920, Note_on_c, 0, 66, 67
1, 88980, Note_on_c, 0, 66, 0
1, 88980, Note_on_c, 0, 67, 67
1, 89040, Note_on_c, 0, 67, 0
1, 89040, Note_on_c, 0, 66, 67
1, 89100, Note_on_c, 0, 66, 0
1, 89100, Note_on_c, 0, 64, 67
1, 89160, Note_on_c, 0, 64, 0
1, 89160, Note_on_c, 0, 59, 0
1, 89160, Note_on_c, 0, 66, 67
1, 89160, Note_on_c, 0, 57, 49
1, 89220, Note_on_c, 0, 66, 0
1, 89220, Note_on_c, 0, 62, 67
1, 89280, Note_on_c, 0, 62, 0
1, 89280, Note_on_c, 0, 57, 0
1, 89280, Note_on_c, 0, 71, 73
1, 89280, Note_on_c, 0, 55, 54
1, 89640, Note_on_c, 0, 55, 0
1, 89640, Note_on_c, 0, 71, 0
1, 89640, Note_on_c, 0, 71, 67
1, 89640, Note_on_c, 0, 52, 48
1, 89760, Note_on_c, 0, 52, 0
1, 89760, Note_on_c, 0, 71, 0
1, 89760, Note_on_c, 0, 74, 0
1, 89760, Note_on_c, 0, 73, 71
1, 89760, Note_on_c, 0, 69, 73
1, 89760, Note_on_c, 0, 57, 54
1, 90120, Note_on_c, 0, 57, 0
1, 90120, Note_on_c, 0, 69, 0
1, 90120, Note_on_c, 0, 67, 67
1, 90120, Note_on_c, 0, 45, 51
1, 90240, Note_on_c, 0, 45, 0
1, 90240, Note_on_c, 0, 67, 0
1, 90240, Note_on_c, 0, 73, 0
1, 90240, Note_on_c, 0, 74, 72
1, 90240, Note_on_c, 0, 66, 72
1, 90240, Note_on_c, 0, 47, 61
1, 90300, Note_on_c, 0, 47, 0
1, 90300, Note_on_c, 0, 49, 61
1, 90360, Note_on_c, 0, 49, 0
1, 90360, Note_on_c, 0, 50, 61
1, 90420, Note_on_c, 0, 50, 0
1, 90420, Note_on_c, 0, 52, 59
1, 90480, Note_on_c, 0, 52, 0
1, 90480, Note_on_c, 0, 50, 61
1, 90540, Note_on_c, 0, 50, 0
1, 90540, Note_on_c, 0, 49, 61
1, 90600, Note_on_c, 0, 49, 0
1, 90600, Note_on_c, 0, 66, 0
1, 90600, Note_on_c, 0, 69, 55
1, 90600, Note_on_c, 0, 50, 61
1, 90660, Note_on_c, 0, 50, 0
1, 90660, Note_on_c, 0, 47, 61
1, 90720, Note_on_c, 0, 47, 0
1, 90720, Note_on_c, 0, 69, 0
1, 90720, Note_on_c, 0, 74, 0
1, 90720, Note_on_c, 0, 74, 71
1, 90720, Note_on_c, 0, 74, 61
1, 90720, Note_on_c, 0, 59, 65
1, 90780, Note_on_c, 0, 74, 0
1, 90780, Note_on_c, 0, 76, 71
1, 90840, Note_on_c, 0, 76, 0
1, 90840, Note_on_c, 0, 78, 71
1, 90900, Note_on_c, 0, 78, 0
1, 90900, Note_on_c, 0, 79, 71
1, 90960, Note_on_c, 0, 79, 0
1, 90960, Note_on_c, 0, 78, 71
1, 91020, Note_on_c, 0, 78, 0
1, 91020, Note_on_c, 0, 76, 71
1, 91080, Note_on_c, 0, 76, 0
1, 91080, Note_on_c, 0, 59, 0
1, 91080, Note_on_c, 0, 78, 71
1, 91080, Note_on_c, 0, 57, 50
1, 91140, Note_on_c, 0, 78, 0
1, 91140, Note_on_c, 0, 74, 71
1, 91200, Note_on_c, 0, 74, 0
1, 91200, Note_on_c, 0, 57, 0
1, 91200, Note_on_c, 0, 83, 76
1, 91200, Note_on_c, 0, 55, 53
1, 91560, Note_on_c, 0, 55, 0
1, 91560, Note_on_c, 0, 83, 0
1, 91560, Note_on_c, 0, 83, 71
1, 91560, Note_on_c, 0, 52, 48
1, 91680, Note_on_c, 0, 52, 0
1, 91680, Note_on_c, 0, 83, 0
1, 91680, Note_on_c, 0, 74, 0
1, 91680, Note_on_c, 0, 81, 76
1, 91680, Note_on_c, 0, 72, 61
1, 91680, Note_on_c, 0, 57, 53
1, 92040, Note_on_c, 0, 57, 0
1, 92040, Note_on_c, 0, 81, 0
1, 92040, Note_on_c, 0, 79, 71
1, 92040, Note_on_c, 0, 45, 48
1, 92160, Note_on_c, 0, 45, 0
1, 92160, Note_on_c, 0, 79, 0
1, 92160, Note_on_c, 0, 78, 76
1, 92160, Note_on_c, 0, 50, 56
1, 92520, Note_on_c, 0, 78, 0
1, 92520, Note_on_c, 0, 74, 71
1, 92560, Note_on_c, 0, 74, 0
1, 92560, Note_on_c, 0, 76, 71
1, 92600, Note_on_c, 0, 76, 0
1, 92600, Note_on_c, 0, 78, 71
1, 92640, Note_on_c, 0, 78, 0
1, 92640, Note_on_c, 0, 50, 0
1, 92640, Note_on_c, 0, 72, 0
1, 92640, Note_on_c, 0, 79, 76
1, 92640, Note_on_c, 0, 71, 61
1, 92640, Note_on_c, 0, 55, 65
1, 92640, Note_on_c, 0, 52, 52
1, 92700, Note_on_c, 0, 55, 0
1, 92700, Note_on_c, 0, 57, 65
1, 92760, Note_on_c, 0, 57, 0
1, 92760, Note_on_c, 0, 59, 65
1, 92820, Note_on_c, 0, 59, 0
1, 92820, Note_on_c, 0, 60, 65
1, 92880, Note_on_c, 0, 60, 0
1, 92880, Note_on_c, 0, 59, 65
1, 92940, Note_on_c, 0, 59, 0
1, 92940, Note_on_c, 0, 57, 65
1, 93000, Note_on_c, 0, 57, 0
1, 93000, Note_on_c, 0, 79, 0
1, 93000, Note_on_c, 0, 79, 73
1, 93000, Note_on_c, 0, 59, 65
1, 93060, Note_on_c, 0, 59, 0
1, 93060, Note_on_c, 0, 55, 65
1, 93120, Note_on_c, 0, 55, 0
1, 93120, Note_on_c, 0, 79, 0
1, 93120, Note_on_c, 0, 71, 0
1, 93120, Note_on_c, 0, 52, 0
1, 93120, Note_on_c, 0, 79, 75
1, 93120, Note_on_c, 0, 69, 61
1, 93120, Note_on_c, 0, 64, 70
1, 93120, Note_on_c, 0, 60, 52
1, 93480, Note_on_c, 0, 60, 0
1, 93480, Note_on_c, 0, 64, 0
1, 93480, Note_on_c, 0, 79, 0
1, 93480, Note_on_c, 0, 81, 73
1, 93480, Note_on_c, 0, 64, 66
1, 93480, Note_on_c, 0, 57, 52
1, 93600, Note_on_c, 0, 57, 0
1, 93600, Note_on_c, 0, 64, 0
1, 93600, Note_on_c, 0, 81, 0
1, 93600, Note_on_c, 0, 78, 76
1, 93600, Note_on_c, 0, 62, 70
1, 93960, Note_on_c, 0, 62, 0
1, 93960, Note_on_c, 0, 78, 0
1, 93960, Note_on_c, 0, 78, 72
1, 93960, Note_on_c, 0, 60, 66
1, 93960, Note_on_c, 0, 50, 52
1, 94080, Note_on_c, 0, 50, 0
1, 94080, Note_on_c, 0, 69, 0
1, 94080, Note_on_c, 0, 78, 0
1, 94080, Note_on_c, 0, 60, 0
1, 94080, Note_on_c, 0, 78, 72
1, 94080, Note_on_c, 0, 67, 61
1, 94080, Note_on_c, 0, 59, 71
1, 94080, Note_on_c, 0, 55, 57
1, 94440, Note_on_c, 0, 78, 0
1, 94440, Note_on_c, 0, 76, 67
1, 94500, Note_on_c, 0, 76, 0
1, 94500, Note_on_c, 0, 75, 67
1, 94560, Note_on_c, 0, 75, 0
1, 94560, Note_on_c, 0, 67, 0
1, 94560, Note_on_c, 0, 59, 0
1, 94560, Note_on_c, 0, 55, 0
1, 94560, Note_on_c, 0, 76, 73
1, 94560, Note_on_c, 0, 71, 61
1, 94560, Note_on_c, 0, 67, 58
1, 94560, Note_on_c, 0, 40, 66
1, 94620, Note_on_c, 0, 40, 0
1, 94620, Note_on_c, 0, 42, 66
1, 94680, Note_on_c, 0, 42, 0
1, 94680, Note_on_c, 0, 43, 66
1, 94740, Note_on_c, 0, 43, 0
1, 94740, Note_on_c, 0, 45, 66
1, 94800, Note_on_c, 0, 45, 0
1, 94800, Note_on_c, 0, 43, 66
1, 94860, Note_on_c, 0, 43, 0
1, 94860, Note_on_c, 0, 42, 66
1, 94920, Note_on_c, 0, 42, 0
1, 94920, Note_on_c, 0, 43, 66
1, 94980, Note_on_c, 0, 43, 0
1, 94980, Note_on_c, 0, 40, 66
1, 95040, Note_on_c, 0, 40, 0
1, 95040, Note_on_c, 0, 67, 0
1, 95040, Note_on_c, 0, 71, 0
1, 95040, Note_on_c, 0, 69, 61
1, 95040, Note_on_c, 0, 66, 58
1, 95040, Note_on_c, 0, 48, 72
1, 95400, Note_on_c, 0, 48, 0
1, 95400, Note_on_c, 0, 76, 0
1, 95400, Note_on_c, 0, 75, 67
1, 95400, Note_on_c, 0, 48, 57
1, 95520, Note_on_c, 0, 48, 0
1, 95520, Note_on_c, 0, 75, 0
1, 95520, Note_on_c, 0, 76, 72
1, 95520, Note_on_c, 0, 47, 61
1, 95880, Note_on_c, 0, 47, 0
1, 95880, Note_on_c, 0, 76, 0
1, 95880, Note_on_c, 0, 78, 66
1, 95880, Note_on_c, 0, 45, 56
1, 96000, Note_on_c, 0, 45, 0
1, 96000, Note_on_c, 0, 78, 0
1, 96000, Note_on_c, 0, 71, 71
1, 96000, Note_on_c, 0, 43, 61
1, 96360, Note_on_c, 0, 43, 0
1, 96360, Note_on_c, 0, 71, 0
1, 96360, Note_on_c, 0, 72, 64
1, 96360, Note_on_c, 0, 42, 56
1, 96420, Note_on_c, 0, 72, 0
1, 96420, Note_on_c, 0, 69, 64
1, 96480, Note_on_c, 0, 69, 0
1, 96480, Note_on_c, 0, 42, 0
1, 96480, Note_on_c, 0, 66, 0
1, 96480, Note_on_c, 0, 69, 0
1, 96480, Note_on_c, 0, 71, 67
1, 96480, Note_on_c, 0, 67, 60
1, 96480, Note_on_c, 0, 64, 61
1, 96480, Note_on_c, 0, 43, 60
1, 96840, Note_on_c, 0, 43, 0
1, 96840, Note_on_c, 0, 71, 0
1, 96840, Note_on_c, 0, 67, 0
1, 96840, Note_on_c, 0, 64, 0
1, 96840, Note_on_c, 0, 72, 62
1, 96840, Note_on_c, 0, 64, 55
1, 96840, Note_on_c, 0, 54, 57
1, 96840, Note_on_c, 0, 45, 55
1, 96959, Note_on_c, 0, 64, 0
1, 96960, Tempo, 1025641
1, 96960, Note_on_c, 0, 72, 0
1, 96960, Note_on_c, 0, 54, 0
1, 96960, Note_on_c, 0, 45, 0
1, 96960, Note_on_c, 0, 67, 68
1, 96960, Note_on_c, 0, 64, 60
1, 96960, Note_on_c, 0, 55, 60
1, 96960, Note_on_c, 0, 47, 60
1, 97320, Note_on_c, 0, 55, 0
1, 97320, Note_on_c, 0, 57, 57
1, 97440, Tempo, 1071429
1, 97440, Note_on_c, 0, 57, 0
1, 97440, Note_on_c, 0, 67, 0
1, 97440, Note_on_c, 0, 64, 0
1, 97440, Note_on_c, 0, 66, 64
1, 97440, Note_on_c, 0, 63, 55
1, 97440, Note_on_c, 0, 59, 60
1, 97800, Note_on_c, 0, 59, 0
1, 97800, Note_on_c, 0, 57, 57
1, 97920, Tempo, 1000000
1, 97920, Note_on_c, 0, 57, 0
1, 97920, Note_on_c, 0, 63, 0
1, 97920, Note_on_c, 0, 66, 0
1, 97920, Note_on_c, 0, 47, 0
1, 97920, Note_on_c, 0, 64, 63
1, 97920, Note_on_c, 0, 64, 61
1, 97920, Note_on_c, 0, 55, 60
1, 97920, Note_on_c, 0, 52, 61
1, 97980, Note_on_c, 0, 64, 0
1, 97980, Note_on_c, 0, 66, 63
1, 98040, Note_on_c, 0, 66, 0
1, 98040, Note_on_c, 0, 67, 63
1, 98100, Note_on_c, 0, 67, 0
1, 98100, Note_on_c, 0, 69, 63
1, 98160, Note_on_c, 0, 69, 0
1, 98160, Note_on_c, 0, 67, 63
1, 98220, Note_on_c, 0, 67, 0
1, 98220, Note_on_c, 0, 66, 63
1, 98280, Note_on_c, 0, 66, 0
1, 98280, Note_on_c, 0, 67, 63
1, 98340, Note_on_c, 0, 67, 0
1, 98340, Note_on_c, 0, 64, 63
1, 98400, Note_on_c, 0, 64, 0
1, 98400, Note_on_c, 0, 52, 0
1, 98400, Note_on_c, 0, 55, 0
1, 98400, Note_on_c, 0, 64, 0
1, 98400, Note_on_c, 0, 79, 69
1, 98400, Note_on_c, 0, 59, 55
1, 98520, Note_on_c, 0, 59, 0
1, 98520, Note_on_c, 0, 57, 51
1, 98640, Note_on_c, 0, 57, 0
1, 98640, Note_on_c, 0, 79, 0
1, 98640, Note_on_c, 0, 59, 55
1, 98760, Note_on_c, 0, 59, 0
1, 98760, Note_on_c, 0, 55, 51
1, 98880, Note_on_c, 0, 55, 0
1, 98880, Note_on_c, 0, 64, 57
1, 98880, Note_on_c, 0, 59, 57
1, 98880, Note_on_c, 0, 55, 55
1, 99000, Note_on_c, 0, 55, 0
1, 99000, Note_on_c, 0, 54, 51
1, 99120, Note_on_c, 0, 54, 0
1, 99120, Note_on_c, 0, 55, 55
1, 99240, Tempo, 975610
1, 99240, Note_on_c, 0, 55, 0
1, 99240, Note_on_c, 0, 59, 0
1, 99240, Note_on_c, 0, 64, 0
1, 99240, Note_on_c, 0, 61, 53
1, 99240, Note_on_c, 0, 55, 53
1, 99240, Note_on_c, 0, 52, 50
1, 99359, Note_on_c, 0, 55, 0
1, 99359, Note_on_c, 0, 61, 0
1, 99360, Note_on_c, 0, 52, 0
1, 99360, Note_on_c, 0, 61, 57
1, 99360, Note_on_c, 0, 55, 57
1, 99360, Note_on_c, 0, 52, 55
1, 99480, Note_on_c, 0, 52, 0
1, 99480, Note_on_c, 0, 50, 50
1, 99600, Note_on_c, 0, 50, 0
1, 99600, Note_on_c, 0, 52, 55
1, 99720, Tempo, 1061947
1, 99720, Note_on_c, 0, 52, 0
1, 99720, Note_on_c, 0, 55, 0
1, 99720, Note_on_c, 0, 61, 0
1, 99720, Note_on_c, 0, 57, 53
1, 99720, Note_on_c, 0, 52, 53
1, 99720, Note_on_c, 0, 49, 50
1, 99840, Tempo, 1000000
1, 99840, Note_on_c, 0, 49, 0
1, 99840, Note_on_c, 0, 52, 0
1, 99840, Note_on_c, 0, 57, 0
1, 99840, Note_on_c, 0, 69, 63
1, 99840, Note_on_c, 0, 57, 57
1, 99840, Note_on_c, 0, 52, 57
1, 99840, Note_on_c, 0, 49, 55
1, 99900, Note_on_c, 0, 69, 0
1, 99900, Note_on_c, 0, 71, 63
1, 99960, Note_on_c, 0, 71, 0
1, 99960, Note_on_c, 0, 73, 63
1, 100020, Note_on_c, 0, 73, 0
1, 100020, Note_on_c, 0, 74, 63
1, 100080, Note_on_c, 0, 74, 0
1, 100080, Note_on_c, 0, 73, 63
1, 100140, Note_on_c, 0, 73, 0
1, 100140, Note_on_c, 0, 71, 63
1, 100200, Note_on_c, 0, 71, 0
1, 100200, Note_on_c, 0, 73, 63
1, 100260, Note_on_c, 0, 73, 0
1, 100260, Note_on_c, 0, 69, 63
1, 100320, Note_on_c, 0, 69, 0
1, 100320, Note_on_c, 0, 49, 0
1, 100320, Note_on_c, 0, 52, 0
1, 100320, Note_on_c, 0, 57, 0
1, 100320, Note_on_c, 0, 78, 68
1, 100320, Note_on_c, 0, 57, 55
1, 100440, Note_on_c, 0, 57, 0
1, 100440, Note_on_c, 0, 55, 50
1, 100560, Note_on_c, 0, 55, 0
1, 100560, Note_on_c, 0, 78, 0
1, 100560, Note_on_c, 0, 57, 55
1, 100680, Note_on_c, 0, 57, 0
1, 100680, Note_on_c, 0, 54, 50
1, 100800, Note_on_c, 0, 54, 0
1, 100800, Note_on_c, 0, 62, 57
1, 100800, Note_on_c, 0, 57, 57
1, 100800, Note_on_c, 0, 54, 55
1, 100920, Note_on_c, 0, 54, 0
1, 100920, Note_on_c, 0, 52, 50
1, 101040, Note_on_c, 0, 52, 0
1, 101040, Note_on_c, 0, 54, 55
1, 101160, Note_on_c, 0, 54, 0
1, 101160, Note_on_c, 0, 57, 0
1, 101160, Note_on_c, 0, 62, 0
1, 101160, Note_on_c, 0, 59, 53
1, 101160, Note_on_c, 0, 54, 54
1, 101160, Note_on_c, 0, 50, 50
1, 101180, Tempo, 1000000
1, 101279, Note_on_c, 0, 54, 0
1, 101279, Note_on_c, 0, 59, 0
1, 101280, Note_on_c, 0, 50, 0
1, 101280, Note_on_c, 0, 59, 57
1, 101280, Note_on_c, 0, 54, 57
1, 101280, Note_on_c, 0, 50, 55
1, 101300, Tempo, 991736
1, 101400, Note_on_c, 0, 50, 0
1, 101400, Note_on_c, 0, 49, 50
1, 101420, Tempo, 983607
1, 101520, Note_on_c, 0, 49, 0
1, 101520, Note_on_c, 0, 50, 55
1, 101540, Tempo, 975610
1, 101640, Tempo, 1025641
1, 101640, Note_on_c, 0, 50, 0
1, 101640, Note_on_c, 0, 54, 0
1, 101640, Note_on_c, 0, 59, 0
1, 101640, Note_on_c, 0, 55, 52
1, 101640, Note_on_c, 0, 50, 54
1, 101640, Note_on_c, 0, 47, 51
1, 101760, Tempo, 1000000
1, 101760, Note_on_c, 0, 47, 0
1, 101760, Note_on_c, 0, 50, 0
1, 101760, Note_on_c, 0, 55, 0
1, 101760, Note_on_c, 0, 67, 64
1, 101760, Note_on_c, 0, 55, 57
1, 101760, Note_on_c, 0, 50, 57
1, 101760, Note_on_c, 0, 47, 55
1, 101820, Note_on_c, 0, 67, 0
1, 101820, Note_on_c, 0, 69, 64
1, 101880, Note_on_c, 0, 69, 0
1, 101880, Note_on_c, 0, 71, 64
1, 101940, Note_on_c, 0, 71, 0
1, 101940, Note_on_c, 0, 72, 64
1, 102000, Note_on_c, 0, 72, 0
1, 102000, Note_on_c, 0, 71, 64
1, 102060, Note_on_c, 0, 71, 0
1, 102060, Note_on_c, 0, 69, 64
1, 102120, Note_on_c, 0, 69, 0
1, 102120, Note_on_c, 0, 71, 64
1, 102180, Note_on_c, 0, 71, 0
1, 102180, Note_on_c, 0, 67, 64
1, 102240, Note_on_c, 0, 67, 0
1, 102240, Note_on_c, 0, 47, 0
1, 102240, Note_on_c, 0, 50, 0
1, 102240, Note_on_c, 0, 55, 0
1, 102240, Note_on_c, 0, 76, 69
1, 102240, Note_on_c, 0, 55, 55
1, 102360, Note_on_c, 0, 55, 0
1, 102360, Note_on_c, 0, 54, 51
1, 102480, Note_on_c, 0, 54, 0
1, 102480, Note_on_c, 0, 76, 0
1, 102480, Note_on_c, 0, 55, 55
1, 102600, Tempo, 983607
1, 102600, Note_on_c, 0, 55, 0
1, 102600, Note_on_c, 0, 52, 51
1, 102720, Note_on_c, 0, 52, 0
1, 102720, Note_on_c, 0, 61, 57
1, 102720, Note_on_c, 0, 55, 57
1, 102720, Note_on_c, 0, 52, 55
1, 102840, Note_on_c, 0, 52, 0
1, 102840, Note_on_c, 0, 50, 51
1, 102960, Note_on_c, 0, 50, 0
1, 102960, Note_on_c, 0, 52, 55
1, 103080, Note_on_c, 0, 52, 0
1, 103080, Note_on_c, 0, 55, 0
1, 103080, Note_on_c, 0, 61, 0
1, 103080, Note_on_c, 0, 57, 55
1, 103080, Note_on_c, 0, 52, 54
1, 103080, Note_on_c, 0, 49, 51
1, 103199, Note_on_c, 0, 52, 0
1, 103199, Note_on_c, 0, 57, 0
1, 103200, Note_on_c, 0, 49, 0
1, 103200, Note_on_c, 0, 57, 57
1, 103200, Note_on_c, 0, 52, 57
1, 103200, Note_on_c, 0, 49, 55
1, 103320, Note_on_c, 0, 49, 0
1, 103320, Note_on_c, 0, 47, 51
1, 103440, Note_on_c, 0, 47, 0
1, 103440, Note_on_c, 0, 49, 55
1, 103560, Tempo, 1043478
1, 103560, Note_on_c, 0, 49, 0
1, 103560, Note_on_c, 0, 52, 0
1, 103560, Note_on_c, 0, 57, 0
1, 103560, Note_on_c, 0, 54, 54
1, 103560, Note_on_c, 0, 49, 54
1, 103560, Note_on_c, 0, 45, 51
1, 103679, Note_on_c, 0, 49, 0
1, 103679, Note_on_c, 0, 54, 0
1, 103680, Tempo, 1000000
1, 103680, Note_on_c, 0, 45, 0
1, 103680, Note_on_c, 0, 66, 64
1, 103680, Note_on_c, 0, 54, 51
1, 103680, Note_on_c, 0, 49, 51
1, 103680, Note_on_c, 0, 45, 49
1, 103740, Note_on_c, 0, 66, 0
1, 103740, Note_on_c, 0, 67, 64
1, 103800, Note_on_c, 0, 67, 0
1, 103800, Note_on_c, 0, 69, 64
1, 103860, Note_on_c, 0, 69, 0
1, 103860, Note_on_c, 0, 71, 64
1, 103920, Note_on_c, 0, 71, 0
1, 103920, Note_on_c, 0, 69, 64
1, 103980, Note_on_c, 0, 69, 0
1, 103980, Note_on_c, 0, 67, 64
1, 104040, Note_on_c, 0, 67, 0
1, 104040, Note_on_c, 0, 69, 64
1, 104100, Note_on_c, 0, 69, 0
1, 104100, Note_on_c, 0, 66, 64
1, 104160, Note_on_c, 0, 66, 0
1, 104160, Note_on_c, 0, 45, 0
1, 104160, Note_on_c, 0, 49, 0
1, 104160, Note_on_c, 0, 54, 0
1, 104160, Note_on_c, 0, 74, 69
1, 104160, Note_on_c, 0, 59, 62
1, 104220, Note_on_c, 0, 59, 0
1, 104220, Note_on_c, 0, 61, 62
1, 104280, Note_on_c, 0, 61, 0
1, 104280, Note_on_c, 0, 62, 62
1, 104340, Note_on_c, 0, 62, 0
1, 104340, Note_on_c, 0, 64, 62
1, 104400, Note_on_c, 0, 64, 0
1, 104400, Note_on_c, 0, 62, 62
1, 104460, Note_on_c, 0, 62, 0
1, 104460, Note_on_c, 0, 61, 62
1, 104520, Note_on_c, 0, 61, 0
1, 104520, Note_on_c, 0, 74, 0
1, 104520, Note_on_c, 0, 74, 64
1, 104520, Note_on_c, 0, 62, 62
1, 104580, Note_on_c, 0, 62, 0
1, 104580, Note_on_c, 0, 59, 62
1, 104640, Note_on_c, 0, 59, 0
1, 104640, Note_on_c, 0, 74, 0
1, 104640, Note_on_c, 0, 74, 68
1, 104640, Note_on_c, 0, 67, 67
1, 104640, Note_on_c, 0, 52, 59
1, 104700, Note_on_c, 0, 52, 0
1, 104700, Note_on_c, 0, 54, 59
1, 104760, Note_on_c, 0, 54, 0
1, 104760, Note_on_c, 0, 55, 59
1, 104820, Note_on_c, 0, 55, 0
1, 104820, Note_on_c, 0, 57, 59
1, 104880, Note_on_c, 0, 57, 0
1, 104880, Note_on_c, 0, 55, 59
1, 104940, Note_on_c, 0, 55, 0
1, 104940, Note_on_c, 0, 54, 59
1, 105000, Note_on_c, 0, 54, 0
1, 105000, Note_on_c, 0, 74, 0
1, 105000, Note_on_c, 0, 76, 64
1, 105000, Note_on_c, 0, 55, 59
1, 105060, Note_on_c, 0, 55, 0
1, 105060, Note_on_c, 0, 52, 59
1, 105120, Note_on_c, 0, 52, 0
1, 105120, Note_on_c, 0, 76, 0
1, 105120, Note_on_c, 0, 73, 68
1, 105120, Note_on_c, 0, 57, 63
1, 105160, Note_on_c, 0, 73, 0
1, 105160, Note_on_c, 0, 74, 60
1, 105180, Note_on_c, 0, 59, 60
1, 105200, Note_on_c, 0, 74, 0
1, 105200, Note_on_c, 0, 73, 68
1, 105240, Note_on_c, 0, 59, 0
1, 105240, Note_on_c, 0, 61, 60
1, 105300, Note_on_c, 0, 61, 0
1, 105300, Note_on_c, 0, 62, 60
1, 105360, Note_on_c, 0, 62, 0
1, 105360, Note_on_c, 0, 61, 60
1, 105420, Note_on_c, 0, 61, 0
1, 105420, Note_on_c, 0, 59, 60
1, 105480, Note_on_c, 0, 59, 0
1, 105480, Note_on_c, 0, 73, 0
1, 105480, Note_on_c, 0, 74, 64
1, 105480, Note_on_c, 0, 61, 60
1, 105540, Note_on_c, 0, 61, 0
1, 105540, Note_on_c, 0, 74, 0
1, 105540, Note_on_c, 0, 76, 64
1, 105540, Note_on_c, 0, 57, 60
1, 105600, Note_on_c, 0, 57, 0
1, 105600, Note_on_c, 0, 67, 0
1, 105600, Note_on_c, 0, 57, 0
1, 105600, Note_on_c, 0, 76, 0
1, 105600, Note_on_c, 0, 78, 69
1, 105600, Note_on_c, 0, 66, 65
1, 105600, Note_on_c, 0, 62, 65
1, 105600, Note_on_c, 0, 50, 62
1, 105660, Note_on_c, 0, 50, 0
1, 105660, Note_on_c, 0, 52, 62
1, 105720, Note_on_c, 0, 52, 0
1, 105720, Note_on_c, 0, 54, 62
1, 105780, Note_on_c, 0, 54, 0
1, 105780, Note_on_c, 0, 55, 62
1, 105840, Note_on_c, 0, 55, 0
1, 105840, Note_on_c, 0, 54, 62
1, 105900, Note_on_c, 0, 54, 0
1, 105900, Note_on_c, 0, 52, 62
1, 105960, Note_on_c, 0, 52, 0
1, 105960, Note_on_c, 0, 54, 62
1, 106020, Note_on_c, 0, 54, 0
1, 106020, Note_on_c, 0, 50, 62
1, 106080, Note_on_c, 0, 50, 0
1, 106080, Note_on_c, 0, 62, 0
1, 106080, Note_on_c, 0, 66, 0
1, 106080, Note_on_c, 0, 78, 0
1, 106080, Note_on_c, 0, 83, 72
1, 106080, Note_on_c, 0, 55, 65
1, 106200, Note_on_c, 0, 83, 0
1, 106200, Note_on_c, 0, 81, 70
1, 106320, Note_on_c, 0, 81, 0
1, 106320, Note_on_c, 0, 55, 0
1, 106320, Note_on_c, 0, 83, 72
1, 106440, Tempo, 991736
1, 106440, Note_on_c, 0, 83, 0
1, 106440, Note_on_c, 0, 79, 69
1, 106560, Note_on_c, 0, 79, 0
1, 106560, Note_on_c, 0, 79, 71
1, 106560, Note_on_c, 0, 74, 55
1, 106560, Note_on_c, 0, 71, 54
1, 106680, Note_on_c, 0, 79, 0
1, 106680, Note_on_c, 0, 78, 69
1, 106800, Note_on_c, 0, 78, 0
1, 106800, Note_on_c, 0, 79, 72
1, 106920, Tempo, 983607
1, 106920, Note_on_c, 0, 79, 0
1, 106920, Note_on_c, 0, 71, 0
1, 106920, Note_on_c, 0, 74, 0
1, 106920, Note_on_c, 0, 76, 67
1, 106920, Note_on_c, 0, 71, 52
1, 106920, Note_on_c, 0, 67, 50
1, 107039, Note_on_c, 0, 67, 0
1, 107039, Note_on_c, 0, 71, 0
1, 107040, Note_on_c, 0, 76, 0
1, 107040, Note_on_c, 0, 76, 69
1, 107040, Note_on_c, 0, 71, 55
1, 107040, Note_on_c, 0, 67, 54
1, 107160, Tempo, 975610
1, 107160, Note_on_c, 0, 76, 0
1, 107160, Note_on_c, 0, 74, 67
1, 107280, Tempo, 983607
1, 107280, Note_on_c, 0, 74, 0
1, 107280, Note_on_c, 0, 76, 68
1, 107400, Tempo, 991736
1, 107400, Note_on_c, 0, 76, 0
1, 107400, Note_on_c, 0, 67, 0
1, 107400, Note_on_c, 0, 71, 0
1, 107400, Note_on_c, 0, 73, 64
1, 107400, Note_on_c, 0, 69, 52
1, 107400, Note_on_c, 0, 64, 50
1, 107519, Note_on_c, 0, 69, 0
1, 107520, Tempo, 1000000
1, 107520, Note_on_c, 0, 64, 0
1, 107520, Note_on_c, 0, 73, 0
1, 107520, Note_on_c, 0, 73, 68
1, 107520, Note_on_c, 0, 64, 55
1, 107520, Note_on_c, 0, 69, 55
1, 107520, Note_on_c, 0, 55, 54
1, 107520, Note_on_c, 0, 43, 54
1, 108000, Note_on_c, 0, 43, 0
1, 108000, Note_on_c, 0, 69, 0
1, 108000, Note_on_c, 0, 73, 0
1, 108000, Note_on_c, 0, 64, 0
1, 108000, Note_on_c, 0, 55, 0
1, 108000, Note_on_c, 0, 74, 64
1, 108000, Note_on_c, 0, 69, 49
1, 108000, Note_on_c, 0, 66, 48
1, 108000, Note_on_c, 0, 54, 62
1, 108060, Note_on_c, 0, 54, 0
1, 108060, Note_on_c, 0, 55, 62
1, 108120, Note_on_c, 0, 55, 0
1, 108120, Note_on_c, 0, 57, 62
1, 108180, Note_on_c, 0, 57, 0
1, 108180, Note_on_c, 0, 55, 62
1, 108240, Note_on_c, 0, 55, 0
1, 108240, Note_on_c, 0, 54, 62
1, 108300, Note_on_c, 0, 54, 0
1, 108300, Note_on_c, 0, 52, 62
1, 108360, Note_on_c, 0, 52, 0
1, 108360, Note_on_c, 0, 66, 0
1, 108360, Note_on_c, 0, 69, 0
1, 108360, Note_on_c, 0, 74, 0
1, 108360, Note_on_c, 0, 74, 61
1, 108360, Note_on_c, 0, 69, 46
1, 108360, Note_on_c, 0, 66, 45
1, 108360, Note_on_c, 0, 50, 62
1, 108420, Note_on_c, 0, 50, 0
1, 108420, Note_on_c, 0, 49, 62
1, 108480, Note_on_c, 0, 49, 0
1, 108480, Note_on_c, 0, 66, 0
1, 108480, Note_on_c, 0, 69, 0
1, 108480, Note_on_c, 0, 74, 0
1, 108480, Note_on_c, 0, 74, 66
1, 108480, Note_on_c, 0, 71, 49
1, 108480, Note_on_c, 0, 66, 48
1, 108480, Note_on_c, 0, 47, 62
1, 108540, Note_on_c, 0, 47, 0
1, 108540, Note_on_c, 0, 49, 62
1, 108600, Note_on_c, 0, 49, 0
1, 108600, Note_on_c, 0, 50, 62
1, 108660, Note_on_c, 0, 50, 0
1, 108660, Note_on_c, 0, 49, 62
1, 108720, Note_on_c, 0, 49, 0
1, 108720, Note_on_c, 0, 47, 62
1, 108780, Note_on_c, 0, 47, 0
1, 108780, Note_on_c, 0, 45, 62
1, 108840, Note_on_c, 0, 45, 0
1, 108840, Note_on_c, 0, 66, 0
1, 108840, Note_on_c, 0, 71, 0
1, 108840, Note_on_c, 0, 74, 0
1, 108840, Note_on_c, 0, 76, 61
1, 108840, Note_on_c, 0, 71, 46
1, 108840, Note_on_c, 0, 67, 45
1, 108840, Note_on_c, 0, 47, 62
1, 108900, Note_on_c, 0, 47, 0
1, 108900, Note_on_c, 0, 43, 62
1, 108960, Tempo, 1052632
1, 108960, Note_on_c, 0, 43, 0
1, 108960, Note_on_c, 0, 67, 0
1, 108960, Note_on_c, 0, 71, 0
1, 108960, Note_on_c, 0, 76, 0
1, 108960, Note_on_c, 0, 73, 66
1, 108960, Note_on_c, 0, 69, 49
1, 108960, Note_on_c, 0, 64, 48
1, 108960, Note_on_c, 0, 45, 66
1, 109000, Note_on_c, 0, 73, 0
1, 109000, Note_on_c, 0, 74, 66
1, 109040, Note_on_c, 0, 74, 0
1, 109040, Note_on_c, 0, 73, 66
1, 109080, Note_on_c, 0, 73, 0
1, 109080, Note_on_c, 0, 74, 66
1, 109120, Note_on_c, 0, 74, 0
1, 109120, Note_on_c, 0, 73, 66
1, 109160, Note_on_c, 0, 73, 0
1, 109160, Note_on_c, 0, 74, 66
1, 109200, Note_on_c, 0, 74, 0
1, 109200, Note_on_c, 0, 73, 66
1, 109320, Tempo, 1188119
1, 109320, Note_on_c, 0, 73, 0
1, 109320, Note_on_c, 0, 45, 0
1, 109320, Note_on_c, 0, 74, 61
1, 109320, Note_on_c, 0, 45, 62
1, 109440, Tempo, 1000000
1, 109440, Note_on_c, 0, 45, 0
1, 109440, Note_on_c, 0, 69, 0
1, 109440, Note_on_c, 0, 64, 0
1, 109440, Note_on_c, 0, 74, 0
1, 109440, Note_on_c, 0, 74, 64
1, 109440, Note_on_c, 0, 69, 49
1, 109440, Note_on_c, 0, 66, 48
1, 109440, Note_on_c, 0, 38, 66
1, 109800, Note_on_c, 0, 38, 0
1, 109800, Note_on_c, 0, 50, 62
1, 109840, Note_on_c, 0, 50, 0
1, 109840, Note_on_c, 0, 52, 62
1, 109880, Note_on_c, 0, 52, 0
1, 109880, Note_on_c, 0, 54, 62
1, 109920, Note_on_c, 0, 54, 0
1, 109920, Note_on_c, 0, 66, 0
1, 109920, Note_on_c, 0, 69, 0
1, 109920, Note_on_c, 0, 74, 0
1, 109920, Note_on_c, 0, 71, 64
1, 109920, Note_on_c, 0, 55, 66
1, 109980, Note_on_c, 0, 71, 0
1, 109980, Note_on_c, 0, 73, 64
1, 110040, Note_on_c, 0, 73, 0
1, 110040, Note_on_c, 0, 74, 64
1, 110100, Note_on_c, 0, 74, 0
1, 110100, Note_on_c, 0, 76, 64
1, 110160, Note_on_c, 0, 76, 0
1, 110160, Note_on_c, 0, 74, 64
1, 110220, Note_on_c, 0, 74, 0
1, 110220, Note_on_c, 0, 73, 64
1, 110280, Note_on_c, 0, 73, 0
1, 110280, Note_on_c, 0, 74, 64
1, 110340, Note_on_c, 0, 74, 0
1, 110340, Note_on_c, 0, 71, 64
1, 110400, Note_on_c, 0, 71, 0
1, 110400, Note_on_c, 0, 55, 0
1, 110400, Note_on_c, 0, 76, 64
1, 110400, Note_on_c, 0, 71, 49
1, 110400, Note_on_c, 0, 64, 48
1, 110400, Note_on_c, 0, 49, 60
1, 110460, Note_on_c, 0, 49, 0
1, 110460, Note_on_c, 0, 50, 61
1, 110520, Note_on_c, 0, 50, 0
1, 110520, Note_on_c, 0, 52, 61
1, 110580, Note_on_c, 0, 52, 0
1, 110580, Note_on_c, 0, 54, 59
1, 110640, Note_on_c, 0, 54, 0
1, 110640, Note_on_c, 0, 52, 61
1, 110700, Note_on_c, 0, 52, 0
1, 110700, Note_on_c, 0, 50, 61
1, 110760, Note_on_c, 0, 50, 0
1, 110760, Note_on_c, 0, 52, 61
1, 110820, Note_on_c, 0, 52, 0
1, 110820, Note_on_c, 0, 49, 61
1, 110880, Note_on_c, 0, 49, 0
1, 110880, Note_on_c, 0, 64, 0
1, 110880, Note_on_c, 0, 71, 0
1, 110880, Note_on_c, 0, 76, 0
1, 110880, Note_on_c, 0, 69, 64
1, 110880, Note_on_c, 0, 54, 64
1, 110940, Note_on_c, 0, 69, 0
1, 110940, Note_on_c, 0, 71, 64
1, 111000, Note_on_c, 0, 71, 0
1, 111000, Note_on_c, 0, 73, 64
1, 111060, Note_on_c, 0, 73, 0
1, 111060, Note_on_c, 0, 74, 64
1, 111120, Note_on_c, 0, 74, 0
1, 111120, Note_on_c, 0, 73, 64
1, 111180, Note_on_c, 0, 73, 0
1, 111180, Note_on_c, 0, 71, 64
1, 111240, Note_on_c, 0, 71, 0
1, 111240, Note_on_c, 0, 73, 64
1, 111300, Note_on_c, 0, 73, 0
1, 111300, Note_on_c, 0, 69, 64
1, 111360, Note_on_c, 0, 69, 0
1, 111360, Note_on_c, 0, 54, 0
1, 111360, Note_on_c, 0, 74, 72
1, 111360, Note_on_c, 0, 69, 49
1, 111360, Note_on_c, 0, 62, 48
1, 111360, Note_on_c, 0, 47, 67
1, 111420, Note_on_c, 0, 47, 0
1, 111420, Note_on_c, 0, 49, 67
1, 111480, Note_on_c, 0, 49, 0
1, 111480, Note_on_c, 0, 50, 67
1, 111540, Note_on_c, 0, 50, 0
1, 111540, Note_on_c, 0, 52, 67
1, 111600, Note_on_c, 0, 52, 0
1, 111600, Note_on_c, 0, 50, 67
1, 111660, Note_on_c, 0, 50, 0
1, 111660, Note_on_c, 0, 49, 67
1, 111720, Note_on_c, 0, 49, 0
1, 111720, Note_on_c, 0, 50, 67
1, 111780, Note_on_c, 0, 50, 0
1, 111780, Note_on_c, 0, 47, 67
1, 111840, Note_on_c, 0, 47, 0
1, 111840, Note_on_c, 0, 62, 0
1, 111840, Note_on_c, 0, 69, 0
1, 111840, Note_on_c, 0, 74, 0
1, 111840, Note_on_c, 0, 67, 64
1, 111840, Note_on_c, 0, 52, 60
1, 111900, Note_on_c, 0, 52, 0
1, 111900, Note_on_c, 0, 67, 0
1, 111900, Note_on_c, 0, 69, 64
1, 111900, Note_on_c, 0, 54, 60
1, 111960, Note_on_c, 0, 54, 0
1, 111960, Note_on_c, 0, 69, 0
1, 111960, Note_on_c, 0, 71, 64
1, 111960, Note_on_c, 0, 55, 60
1, 112020, Note_on_c, 0, 55, 0
1, 112020, Note_on_c, 0, 71, 0
1, 112020, Note_on_c, 0, 72, 65
1, 112020, Note_on_c, 0, 57, 60
1, 112080, Note_on_c, 0, 57, 0
1, 112080, Note_on_c, 0, 72, 0
1, 112080, Note_on_c, 0, 71, 65
1, 112080, Note_on_c, 0, 55, 60
1, 112140, Note_on_c, 0, 55, 0
1, 112140, Note_on_c, 0, 71, 0
1, 112140, Note_on_c, 0, 69, 66
1, 112140, Note_on_c, 0, 54, 61
1, 112200, Note_on_c, 0, 54, 0
1, 112200, Note_on_c, 0, 69, 0
1, 112200, Note_on_c, 0, 71, 66
1, 112200, Note_on_c, 0, 55, 61
1, 112260, Note_on_c, 0, 55, 0
1, 112260, Note_on_c, 0, 71, 0
1, 112260, Note_on_c, 0, 67, 66
1, 112260, Note_on_c, 0, 52, 61
1, 112320, Tempo, 1000000
1, 112320, Note_on_c, 0, 52, 0
1, 112320, Note_on_c, 0, 67, 0
1, 112320, Note_on_c, 0, 73, 66
1, 112320, Note_on_c, 0, 57, 62
1, 112380, Note_on_c, 0, 57, 0
1, 112380, Note_on_c, 0, 73, 0
1, 112380, Note_on_c, 0, 74, 66
1, 112380, Note_on_c, 0, 59, 62
1, 112440, Note_on_c, 0, 59, 0
1, 112440, Note_on_c, 0, 74, 0
1, 112440, Note_on_c, 0, 76, 67
1, 112440, Note_on_c, 0, 61, 62
1, 112500, Note_on_c, 0, 61, 0
1, 112500, Note_on_c, 0, 76, 0
1, 112500, Note_on_c, 0, 78, 67
1, 112500, Note_on_c, 0, 62, 62
1, 112560, Note_on_c, 0, 62, 0
1, 112560, Note_on_c, 0, 78, 0
1, 112560, Note_on_c, 0, 76, 68
1, 112560, Note_on_c, 0, 61, 63
1, 112600, Tempo, 991736
1, 112620, Note_on_c, 0, 61, 0
1, 112620, Note_on_c, 0, 76, 0
1, 112620, Note_on_c, 0, 74, 68
1, 112620, Note_on_c, 0, 59, 63
1, 112680, Note_on_c, 0, 59, 0
1, 112680, Note_on_c, 0, 74, 0
1, 112680, Note_on_c, 0, 76, 68
1, 112680, Note_on_c, 0, 61, 63
1, 112740, Note_on_c, 0, 61, 0
1, 112740, Note_on_c, 0, 76, 0
1, 112740, Note_on_c, 0, 73, 69
1, 112740, Note_on_c, 0, 57, 64
1, 112800, Note_on_c, 0, 57, 0
1, 112800, Note_on_c, 0, 73, 0
1, 112800, Note_on_c, 0, 78, 69
1, 112800, Note_on_c, 0, 62, 64
1, 112860, Note_on_c, 0, 62, 0
1, 112860, Note_on_c, 0, 78, 0
1, 112860, Note_on_c, 0, 79, 69
1, 112860, Note_on_c, 0, 64, 64
1, 112880, Tempo, 983607
1, 112920, Note_on_c, 0, 64, 0
1, 112920, Note_on_c, 0, 79, 0
1, 112920, Note_on_c, 0, 81, 69
1, 112920, Note_on_c, 0, 66, 64
1, 112980, Note_on_c, 0, 66, 0
1, 112980, Note_on_c, 0, 81, 0
1, 112980, Note_on_c, 0, 83, 69
1, 112980, Note_on_c, 0, 67, 64
1, 113040, Note_on_c, 0, 67, 0
1, 113040, Note_on_c, 0, 83, 0
1, 113040, Note_on_c, 0, 81, 70
1, 113040, Note_on_c, 0, 66, 65
1, 113100, Note_on_c, 0, 66, 0
1, 113100, Note_on_c, 0, 81, 0
1, 113100, Note_on_c, 0, 79, 70
1, 113100, Note_on_c, 0, 64, 65
1, 113140, Tempo, 975610
1, 113160, Tempo, 1034483
1, 113160, Note_on_c, 0, 64, 0
1, 113160, Note_on_c, 0, 79, 0
1, 113160, Note_on_c, 0, 81, 71
1, 113160, Note_on_c, 0, 66, 66
1, 113220, Note_on_c, 0, 66, 0
1, 113220, Note_on_c, 0, 81, 0
1, 113220, Note_on_c, 0, 78, 71
1, 113220, Note_on_c, 0, 62, 66
1, 113280, Tempo, 1000000
1, 113280, Note_on_c, 0, 62, 0
1, 113280, Note_on_c, 0, 78, 0
1, 113280, Note_on_c, 0, 83, 77
1, 113280, Note_on_c, 0, 67, 72
1, 113640, Note_on_c, 0, 67, 0
1, 113640, Note_on_c, 0, 83, 0
1, 113640, Note_on_c, 0, 73, 72
1, 113640, Note_on_c, 0, 69, 70
1, 113640, Note_on_c, 0, 64, 69
1, 113640, Note_on_c, 0, 55, 69
1, 113760, Note_on_c, 0, 55, 0
1, 113760, Note_on_c, 0, 73, 0
1, 113760, Note_on_c, 0, 69, 0
1, 113760, Note_on_c, 0, 64, 0
1, 113760, Note_on_c, 0, 74, 77
1, 113760, Note_on_c, 0, 69, 72
1, 113760, Note_on_c, 0, 66, 72
1, 113760, Note_on_c, 0, 54, 72
1, 114120, Note_on_c, 0, 54, 0
1, 114120, Note_on_c, 0, 74, 0
1, 114120, Note_on_c, 0, 69, 0
1, 114120, Note_on_c, 0, 66, 0
1, 114120, Note_on_c, 0, 76, 72
1, 114120, Note_on_c, 0, 73, 70
1, 114120, Note_on_c, 0, 67, 69
1, 114120, Note_on_c, 0, 52, 69
1, 114240, Note_on_c, 0, 52, 0
1, 114240, Note_on_c, 0, 76, 0
1, 114240, Note_on_c, 0, 73, 0
1, 114240, Note_on_c, 0, 67, 0
1, 114240, Note_on_c, 0, 78, 78
1, 114240, Note_on_c, 0, 74, 72
1, 114240, Note_on_c, 0, 69, 72
1, 114240, Note_on_c, 0, 50, 72
1, 114600, Tempo, 1025641
1, 114600, Note_on_c, 0, 50, 0
1, 114600, Note_on_c, 0, 78, 0
1, 114600, Note_on_c, 0, 74, 0
1, 114600, Note_on_c, 0, 69, 0
1, 114600, Note_on_c, 0, 66, 72
1, 114600, Note_on_c, 0, 62, 70
1, 114600, Note_on_c, 0, 57, 68
1, 114600, Note_on_c, 0, 48, 69
1, 114719, Note_on_c, 0, 62, 0
1, 114720, Note_on_c, 0, 66, 0
1, 114720, Note_on_c, 0, 57, 0
1, 114720, Note_on_c, 0, 48, 0
1, 114720, Note_on_c, 0, 67, 77
1, 114720, Note_on_c, 0, 62, 72
1, 114720, Note_on_c, 0, 59, 72
1, 114720, Note_on_c, 0, 47, 72
1, 115080, Note_on_c, 0, 47, 0
1, 115080, Note_on_c, 0, 67, 0
1, 115080, Note_on_c, 0, 62, 0
1, 115080, Note_on_c, 0, 59, 0
1, 115080, Note_on_c, 0, 69, 72
1, 115080, Note_on_c, 0, 66, 69
1, 115080, Note_on_c, 0, 60, 68
1, 115080, Note_on_c, 0, 45, 68
1, 115200, Note_on_c, 0, 45, 0
1, 115200, Note_on_c, 0, 69, 0
1, 115200, Note_on_c, 0, 66, 0
1, 115200, Note_on_c, 0, 60, 0
1, 115200, Note_on_c, 0, 71, 76
1, 115200, Note_on_c, 0, 67, 72
1, 115200, Note_on_c, 0, 62, 72
1, 115200, Note_on_c, 0, 43, 72
1, 115560, Note_on_c, 0, 43, 0
1, 115560, Note_on_c, 0, 71, 0
1, 115560, Note_on_c, 0, 67, 0
1, 115560, Note_on_c, 0, 62, 0
1, 115560, Note_on_c, 0, 71, 72
1, 115560, Note_on_c, 0, 62, 69
1, 115560, Note_on_c, 0, 67, 68
1, 115560, Note_on_c, 0, 42, 68
1, 115680, Note_on_c, 0, 42, 0
1, 115680, Note_on_c, 0, 71, 0
1, 115680, Note_on_c, 0, 62, 0
1, 115680, Note_on_c, 0, 67, 0
1, 115680, Note_on_c, 0, 73, 76
1, 115680, Note_on_c, 0, 64, 72
1, 115680, Note_on_c, 0, 67, 72
1, 115680, Note_on_c, 0, 40, 72
1, 116040, Tempo, 1081081
1, 116040, Note_on_c, 0, 40, 0
1, 116040, Note_on_c, 0, 73, 0
1, 116040, Note_on_c, 0, 64, 0
1, 116040, Note_on_c, 0, 67, 0
1, 116040, Note_on_c, 0, 74, 72
1, 116040, Note_on_c, 0, 66, 69
1, 116040, Note_on_c, 0, 69, 68
1, 116040, Note_on_c, 0, 38, 68
1, 116158, Note_on_c, 0, 66, 0
1, 116160, Tempo, 1132075
1, 116160, Note_on_c, 0, 74, 0
1, 116160, Note_on_c, 0, 69, 0
1, 116160, Note_on_c, 0, 38, 0
1, 116160, Note_on_c, 0, 66, 77
1, 116160, Note_on_c, 0, 62, 72
1, 116160, Note_on_c, 0, 57, 72
1, 116160, Note_on_c, 0, 45, 72
1, 116640, Tempo, 1176471
1, 116640, Note_on_c, 0, 57, 0
1, 116640, Note_on_c, 0, 66, 0
1, 116640, Note_on_c, 0, 62, 0
1, 116640, Note_on_c, 0, 64, 76
1, 116640, Note_on_c, 0, 61, 72
1, 116640, Note_on_c, 0, 55, 72
1, 117120, Note_on_c, 0, 55, 0
1, 117120, Note_on_c, 0, 45, 0
1, 117120, Note_on_c, 0, 64, 0
1, 117120, Note_on_c, 0, 61, 0
1, 117120, Note_on_c, 0, 62, 76
1, 117120, Note_on_c, 0, 57, 72
1, 117120, Note_on_c, 0, 54, 70
1, 117120, Note_on_c, 0, 38, 66
1, 119040, Marker_t, "Fine"
1, 119040, Note_on_c, 0, 38, 0
1, 119040, Note_on_c, 0, 62, 0
1, 119040, Note_on_c, 0, 57, 0
1, 119040, Note_on_c, 0, 54, 0
1, 119040, End_track
0, 0, End_of_file
