0, 0, Header, 0, 1, 480
1, 0, Start_track
1, 0, Title_t, "Beethoven: Sonate Opus 90, 2. Satz"
1, 0, Copyright_t, "Copyright © 2014 by Bernd Krueger"
1, 0, Text_t, "Bernd Krueger"
1, 0, Text_t, "Nicht zu geschwind und sehr singbar vorgetragen"
1, 0, Text_t, "Erstellt: 28.2.2014\012"
1, 0, Text_t, "Dauer: 8:14 Minuten\012"
1, 0, Time_signature, 2, 2, 24, 8
1, 0, Key_signature, 4, "major"
1, 0, Tempo, 849858
1, 0, Program_c, 0, 0
1, 0, Program_c, 0, 0
1, 0, Program_c, 0, 0
1, 720, Note_on_c, 0, 64, 43
1, 840, Tempo, 921659
1, 840, Note_on_c, 0, 64, 0
1, 840, Note_on_c, 0, 66, 39
1, 960, Tempo, 849858
1, 960, Note_on_c, 0, 66, 0
1, 960, Note_on_c, 0, 64, 34
1, 960, Note_on_c, 0, 68, 50
1, 960, Note_on_c, 0, 40, 25
1, 960, Note_on_c, 0, 52, 30
1, 1038, Control_c, 0, 64, 127
1, 1080, Note_on_c, 0, 64, 0
1, 1080, Note_on_c, 0, 59, 26
1, 1200, Note_on_c, 0, 59, 0
1, 1200, Note_on_c, 0, 52, 0
1, 1200, Note_on_c, 0, 40, 0
1, 1200, Note_on_c, 0, 64, 31
1, 1320, Note_on_c, 0, 64, 0
1, 1320, Note_on_c, 0, 59, 26
1, 1440, Tempo, 837989
1, 1440, Note_on_c, 0, 59, 0
1, 1440, Note_on_c, 0, 68, 0
1, 1440, Note_on_c, 0, 68, 30
1, 1440, Note_on_c, 0, 71, 46
1, 1456, Control_c, 0, 64, 0
1, 1539, Control_c, 0, 64, 127
1, 1560, Note_on_c, 0, 68, 0
1, 1560, Note_on_c, 0, 59, 27
1, 1680, Tempo, 855920
1, 1680, Note_on_c, 0, 59, 0
1, 1680, Note_on_c, 0, 71, 0
1, 1680, Note_on_c, 0, 66, 28
1, 1680, Note_on_c, 0, 69, 43
1, 1693, Control_c, 0, 64, 0
1, 1744, Control_c, 0, 64, 127
1, 1800, Tempo, 881057
1, 1800, Note_on_c, 0, 66, 0
1, 1800, Note_on_c, 0, 59, 27
1, 1920, Tempo, 868307
1, 1920, Note_on_c, 0, 59, 0
1, 1920, Note_on_c, 0, 69, 0
1, 1920, Note_on_c, 0, 64, 34
1, 1920, Note_on_c, 0, 68, 50
1, 1920, Note_on_c, 0, 35, 25
1, 1920, Note_on_c, 0, 47, 30
1, 1920, Control_c, 0, 64, 0
1, 1984, Control_c, 0, 64, 127
1, 2040, Note_on_c, 0, 64, 0
1, 2040, Note_on_c, 0, 59, 26
1, 2160, Tempo, 849858
1, 2160, Note_on_c, 0, 59, 0
1, 2160, Note_on_c, 0, 47, 0
1, 2160, Note_on_c, 0, 35, 0
1, 2160, Note_on_c, 0, 68, 0
1, 2160, Note_on_c, 0, 63, 27
1, 2160, Note_on_c, 0, 66, 41
1, 2174, Control_c, 0, 64, 0
1, 2217, Control_c, 0, 64, 127
1, 2280, Note_on_c, 0, 63, 0
1, 2280, Note_on_c, 0, 59, 25
1, 2370, Note_on_c, 0, 59, 0
1, 2370, Note_on_c, 0, 66, 0
1, 2370, Control_c, 0, 64, 0
1, 2400, Note_on_c, 0, 63, 27
1, 2400, Note_on_c, 0, 66, 41
1, 2464, Control_c, 0, 64, 127
1, 2520, Note_on_c, 0, 63, 0
1, 2520, Note_on_c, 0, 59, 26
1, 2640, Tempo, 832178
1, 2640, Note_on_c, 0, 59, 0
1, 2640, Note_on_c, 0, 66, 0
1, 2640, Note_on_c, 0, 64, 28
1, 2640, Note_on_c, 0, 68, 43
1, 2658, Control_c, 0, 64, 0
1, 2725, Control_c, 0, 64, 127
1, 2760, Note_on_c, 0, 64, 0
1, 2760, Note_on_c, 0, 59, 28
1, 2880, Tempo, 849858
1, 2880, Note_on_c, 0, 59, 0
1, 2880, Note_on_c, 0, 68, 0
1, 2880, Note_on_c, 0, 64, 30
1, 2880, Note_on_c, 0, 69, 46
1, 2880, Note_on_c, 0, 37, 25
1, 2880, Note_on_c, 0, 49, 30
1, 2890, Control_c, 0, 64, 0
1, 2965, Control_c, 0, 64, 127
1, 3000, Note_on_c, 0, 64, 0
1, 3000, Note_on_c, 0, 59, 28
1, 3120, Note_on_c, 0, 59, 0
1, 3120, Note_on_c, 0, 49, 0
1, 3120, Note_on_c, 0, 37, 0
1, 3120, Note_on_c, 0, 69, 0
1, 3120, Note_on_c, 0, 64, 36
1, 3120, Note_on_c, 0, 73, 54
1, 3240, Note_on_c, 0, 64, 0
1, 3240, Note_on_c, 0, 59, 31
1, 3360, Note_on_c, 0, 59, 0
1, 3360, Note_on_c, 0, 73, 0
1, 3360, Note_on_c, 0, 66, 37
1, 3360, Note_on_c, 0, 71, 47
1, 3360, Note_on_c, 0, 51, 28
1, 3360, Note_on_c, 0, 39, 23
1, 3376, Control_c, 0, 64, 0
1, 3438, Control_c, 0, 64, 127
1, 3480, Note_on_c, 0, 66, 0
1, 3480, Note_on_c, 0, 59, 26
1, 3600, Tempo, 868307
1, 3600, Note_on_c, 0, 59, 0
1, 3600, Note_on_c, 0, 39, 0
1, 3600, Note_on_c, 0, 51, 0
1, 3600, Note_on_c, 0, 71, 0
1, 3600, Note_on_c, 0, 63, 25
1, 3600, Note_on_c, 0, 66, 38
1, 3600, Note_on_c, 0, 47, 26
1, 3600, Note_on_c, 0, 35, 22
1, 3720, Tempo, 1006711
1, 3720, Note_on_c, 0, 63, 0
1, 3720, Note_on_c, 0, 59, 27
1, 3840, Tempo, 849858
1, 3840, Note_on_c, 0, 59, 0
1, 3840, Note_on_c, 0, 35, 0
1, 3840, Note_on_c, 0, 47, 0
1, 3840, Note_on_c, 0, 66, 0
1, 3840, Note_on_c, 0, 59, 35
1, 3840, Note_on_c, 0, 64, 35
1, 3840, Note_on_c, 0, 68, 42
1, 3840, Note_on_c, 0, 40, 28
1, 3840, Note_on_c, 0, 52, 28
1, 3848, Control_c, 0, 64, 0
1, 3960, Note_on_c, 0, 52, 0
1, 3960, Note_on_c, 0, 40, 0
1, 3960, Note_on_c, 0, 56, 25
1, 4080, Note_on_c, 0, 56, 0
1, 4080, Note_on_c, 0, 59, 28
1, 4200, Note_on_c, 0, 59, 0
1, 4200, Note_on_c, 0, 57, 26
1, 4320, Note_on_c, 0, 57, 0
1, 4320, Note_on_c, 0, 68, 0
1, 4320, Note_on_c, 0, 64, 0
1, 4320, Note_on_c, 0, 59, 0
1, 4320, Note_on_c, 0, 56, 28
1, 4440, Note_on_c, 0, 56, 0
1, 4440, Note_on_c, 0, 57, 25
1, 4560, Tempo, 849858
1, 4560, Note_on_c, 0, 57, 0
1, 4560, Note_on_c, 0, 76, 54
1, 4560, Note_on_c, 0, 56, 34
1, 4680, Tempo, 921659
1, 4680, Note_on_c, 0, 56, 0
1, 4680, Note_on_c, 0, 76, 0
1, 4680, Note_on_c, 0, 78, 48
1, 4680, Note_on_c, 0, 54, 31
1, 4800, Tempo, 849858
1, 4800, Note_on_c, 0, 54, 0
1, 4800, Note_on_c, 0, 78, 0
1, 4800, Note_on_c, 0, 68, 63
1, 4800, Note_on_c, 0, 80, 63
1, 4800, Note_on_c, 0, 52, 42
1, 4892, Control_c, 0, 64, 127
1, 4920, Note_on_c, 0, 52, 0
1, 4920, Note_on_c, 0, 59, 32
1, 5040, Note_on_c, 0, 59, 0
1, 5040, Note_on_c, 0, 47, 39
1, 5160, Note_on_c, 0, 47, 0
1, 5160, Note_on_c, 0, 59, 32
1, 5280, Tempo, 837989
1, 5280, Note_on_c, 0, 59, 0
1, 5280, Note_on_c, 0, 80, 0
1, 5280, Note_on_c, 0, 68, 0
1, 5280, Note_on_c, 0, 71, 57
1, 5280, Note_on_c, 0, 83, 57
1, 5280, Note_on_c, 0, 52, 37
1, 5294, Control_c, 0, 64, 0
1, 5386, Control_c, 0, 64, 127
1, 5400, Note_on_c, 0, 52, 0
1, 5400, Note_on_c, 0, 59, 33
1, 5520, Tempo, 855920
1, 5520, Note_on_c, 0, 59, 0
1, 5520, Note_on_c, 0, 83, 0
1, 5520, Note_on_c, 0, 71, 0
1, 5520, Note_on_c, 0, 69, 54
1, 5520, Note_on_c, 0, 81, 54
1, 5520, Note_on_c, 0, 47, 34
1, 5532, Control_c, 0, 64, 0
1, 5598, Control_c, 0, 64, 127
1, 5640, Tempo, 881057
1, 5640, Note_on_c, 0, 47, 0
1, 5640, Note_on_c, 0, 59, 33
1, 5760, Tempo, 868307
1, 5760, Note_on_c, 0, 59, 0
1, 5760, Note_on_c, 0, 81, 0
1, 5760, Note_on_c, 0, 69, 0
1, 5760, Note_on_c, 0, 68, 63
1, 5760, Note_on_c, 0, 80, 63
1, 5760, Note_on_c, 0, 51, 42
1, 5770, Control_c, 0, 64, 0
1, 5840, Control_c, 0, 64, 127
1, 5880, Note_on_c, 0, 51, 0
1, 5880, Note_on_c, 0, 59, 32
1, 6000, Tempo, 849858
1, 6000, Note_on_c, 0, 59, 0
1, 6000, Note_on_c, 0, 80, 0
1, 6000, Note_on_c, 0, 68, 0
1, 6000, Note_on_c, 0, 66, 51
1, 6000, Note_on_c, 0, 78, 51
1, 6000, Note_on_c, 0, 47, 33
1, 6009, Control_c, 0, 64, 0
1, 6086, Control_c, 0, 64, 127
1, 6120, Note_on_c, 0, 47, 0
1, 6120, Note_on_c, 0, 59, 31
1, 6210, Note_on_c, 0, 59, 0
1, 6210, Note_on_c, 0, 78, 0
1, 6210, Note_on_c, 0, 66, 0
1, 6210, Control_c, 0, 64, 0
1, 6240, Note_on_c, 0, 66, 51
1, 6240, Note_on_c, 0, 78, 51
1, 6240, Note_on_c, 0, 51, 33
1, 6315, Control_c, 0, 64, 127
1, 6360, Note_on_c, 0, 51, 0
1, 6360, Note_on_c, 0, 59, 33
1, 6480, Tempo, 832178
1, 6480, Note_on_c, 0, 59, 0
1, 6480, Note_on_c, 0, 78, 0
1, 6480, Note_on_c, 0, 66, 0
1, 6480, Note_on_c, 0, 68, 58
1, 6480, Note_on_c, 0, 80, 58
1, 6480, Note_on_c, 0, 53, 37
1, 6497, Control_c, 0, 64, 0
1, 6555, Control_c, 0, 64, 127
1, 6600, Note_on_c, 0, 53, 0
1, 6600, Note_on_c, 0, 59, 39
1, 6720, Tempo, 849858
1, 6720, Note_on_c, 0, 59, 0
1, 6720, Note_on_c, 0, 80, 0
1, 6720, Note_on_c, 0, 68, 0
1, 6720, Note_on_c, 0, 69, 57
1, 6720, Note_on_c, 0, 81, 69
1, 6720, Note_on_c, 0, 54, 43
1, 6741, Control_c, 0, 64, 0
1, 6812, Control_c, 0, 64, 127
1, 6840, Note_on_c, 0, 54, 0
1, 6840, Note_on_c, 0, 59, 43
1, 6960, Note_on_c, 0, 59, 0
1, 6960, Note_on_c, 0, 81, 0
1, 6960, Note_on_c, 0, 69, 0
1, 6960, Note_on_c, 0, 73, 69
1, 6960, Note_on_c, 0, 85, 69
1, 6960, Note_on_c, 0, 57, 49
1, 7080, Note_on_c, 0, 57, 0
1, 7080, Note_on_c, 0, 59, 43
1, 7200, Note_on_c, 0, 59, 0
1, 7200, Note_on_c, 0, 85, 0
1, 7200, Note_on_c, 0, 73, 0
1, 7200, Note_on_c, 0, 71, 56
1, 7200, Note_on_c, 0, 83, 67
1, 7200, Note_on_c, 0, 56, 44
1, 7220, Control_c, 0, 64, 0
1, 7313, Control_c, 0, 64, 127
1, 7320, Note_on_c, 0, 56, 0
1, 7320, Note_on_c, 0, 59, 37
1, 7440, Tempo, 868307
1, 7440, Note_on_c, 0, 59, 0
1, 7440, Note_on_c, 0, 83, 0
1, 7440, Note_on_c, 0, 71, 0
1, 7440, Note_on_c, 0, 87, 49
1, 7440, Note_on_c, 0, 75, 32
1, 7440, Note_on_c, 0, 47, 25
1, 7440, Note_on_c, 0, 54, 25
1, 7454, Control_c, 0, 64, 0
1, 7518, Control_c, 0, 64, 127
1, 7560, Tempo, 1006711
1, 7560, Note_on_c, 0, 54, 0
1, 7560, Note_on_c, 0, 47, 0
1, 7560, Note_on_c, 0, 57, 27
1, 7680, Tempo, 849858
1, 7680, Note_on_c, 0, 57, 0
1, 7680, Note_on_c, 0, 75, 0
1, 7680, Note_on_c, 0, 87, 0
1, 7680, Note_on_c, 0, 88, 57
1, 7680, Note_on_c, 0, 76, 35
1, 7680, Note_on_c, 0, 52, 31
1, 7680, Note_on_c, 0, 56, 31
1, 7686, Control_c, 0, 64, 0
1, 7744, Control_c, 0, 64, 127
1, 7800, Note_on_c, 0, 56, 0
1, 7800, Note_on_c, 0, 52, 0
1, 7800, Note_on_c, 0, 59, 23
1, 7920, Note_on_c, 0, 59, 0
1, 7920, Note_on_c, 0, 56, 31
1, 8040, Note_on_c, 0, 56, 0
1, 8040, Note_on_c, 0, 52, 25
1, 8160, Tempo, 832178
1, 8160, Note_on_c, 0, 52, 0
1, 8160, Note_on_c, 0, 76, 0
1, 8160, Note_on_c, 0, 88, 0
1, 8160, Note_on_c, 0, 51, 31
1, 8174, Control_c, 0, 64, 0
1, 8252, Control_c, 0, 64, 127
1, 8280, Note_on_c, 0, 51, 0
1, 8280, Note_on_c, 0, 59, 27
1, 8400, Note_on_c, 0, 59, 0
1, 8400, Note_on_c, 0, 71, 47
1, 8400, Note_on_c, 0, 54, 31
1, 8520, Tempo, 907716
1, 8520, Note_on_c, 0, 54, 0
1, 8520, Note_on_c, 0, 51, 32
1, 8640, Tempo, 849858
1, 8640, Note_on_c, 0, 51, 0
1, 8640, Note_on_c, 0, 71, 0
1, 8640, Note_on_c, 0, 70, 51
1, 8640, Note_on_c, 0, 49, 38
1, 8647, Control_c, 0, 64, 0
1, 8732, Control_c, 0, 64, 127
1, 8760, Note_on_c, 0, 49, 0
1, 8760, Note_on_c, 0, 58, 29
1, 8880, Note_on_c, 0, 58, 0
1, 8880, Note_on_c, 0, 54, 31
1, 9000, Note_on_c, 0, 54, 0
1, 9000, Note_on_c, 0, 49, 27
1, 9120, Note_on_c, 0, 49, 0
1, 9120, Note_on_c, 0, 70, 0
1, 9120, Note_on_c, 0, 76, 56
1, 9120, Note_on_c, 0, 42, 31
1, 9240, Note_on_c, 0, 42, 0
1, 9240, Note_on_c, 0, 58, 26
1, 9360, Note_on_c, 0, 58, 0
1, 9360, Note_on_c, 0, 54, 29
1, 9480, Tempo, 900901
1, 9480, Note_on_c, 0, 54, 0
1, 9480, Note_on_c, 0, 49, 27
1, 9600, Tempo, 855920
1, 9600, Note_on_c, 0, 49, 0
1, 9600, Note_on_c, 0, 76, 0
1, 9600, Note_on_c, 0, 75, 51
1, 9600, Note_on_c, 0, 47, 31
1, 9600, Control_c, 0, 64, 0
1, 9699, Control_c, 0, 64, 127
1, 9720, Note_on_c, 0, 47, 0
1, 9720, Note_on_c, 0, 59, 25
1, 9840, Note_on_c, 0, 59, 0
1, 9840, Note_on_c, 0, 54, 30
1, 9960, Note_on_c, 0, 54, 0
1, 9960, Note_on_c, 0, 51, 27
1, 10080, Note_on_c, 0, 51, 0
1, 10080, Note_on_c, 0, 47, 37
1, 10200, Note_on_c, 0, 47, 0
1, 10200, Note_on_c, 0, 59, 30
1, 10320, Note_on_c, 0, 59, 0
1, 10320, Note_on_c, 0, 75, 0
1, 10320, Note_on_c, 0, 69, 49
1, 10320, Note_on_c, 0, 49, 40
1, 10328, Control_c, 0, 64, 0
1, 10391, Control_c, 0, 64, 127
1, 10440, Tempo, 894188
1, 10440, Note_on_c, 0, 49, 0
1, 10440, Note_on_c, 0, 57, 36
1, 10560, Tempo, 855920
1, 10560, Note_on_c, 0, 57, 0
1, 10560, Note_on_c, 0, 69, 0
1, 10560, Note_on_c, 0, 68, 60
1, 10560, Note_on_c, 0, 47, 34
1, 10567, Control_c, 0, 64, 0
1, 10645, Control_c, 0, 64, 127
1, 10680, Note_on_c, 0, 47, 0
1, 10680, Note_on_c, 0, 56, 31
1, 10800, Note_on_c, 0, 56, 0
1, 10800, Note_on_c, 0, 52, 41
1, 10920, Note_on_c, 0, 52, 0
1, 10920, Note_on_c, 0, 47, 37
1, 11040, Note_on_c, 0, 47, 0
1, 11040, Note_on_c, 0, 68, 0
1, 11040, Note_on_c, 0, 74, 64
1, 11040, Note_on_c, 0, 40, 47
1, 11058, Control_c, 0, 64, 0
1, 11132, Control_c, 0, 64, 127
1, 11160, Note_on_c, 0, 40, 0
1, 11160, Note_on_c, 0, 56, 35
1, 11280, Note_on_c, 0, 56, 0
1, 11280, Note_on_c, 0, 52, 39
1, 11400, Tempo, 936037
1, 11400, Note_on_c, 0, 52, 0
1, 11400, Note_on_c, 0, 47, 31
1, 11520, Tempo, 855920
1, 11520, Note_on_c, 0, 47, 0
1, 11520, Note_on_c, 0, 74, 0
1, 11520, Note_on_c, 0, 73, 56
1, 11520, Note_on_c, 0, 45, 38
1, 11536, Control_c, 0, 64, 0
1, 11605, Control_c, 0, 64, 127
1, 11640, Note_on_c, 0, 45, 0
1, 11640, Note_on_c, 0, 57, 29
1, 11760, Note_on_c, 0, 57, 0
1, 11760, Note_on_c, 0, 52, 34
1, 11880, Note_on_c, 0, 52, 0
1, 11880, Note_on_c, 0, 49, 29
1, 12000, Note_on_c, 0, 49, 0
1, 12000, Note_on_c, 0, 45, 34
1, 12120, Tempo, 837989
1, 12120, Note_on_c, 0, 45, 0
1, 12120, Note_on_c, 0, 52, 29
1, 12240, Note_on_c, 0, 52, 0
1, 12240, Note_on_c, 0, 73, 0
1, 12240, Note_on_c, 0, 73, 56
1, 12240, Note_on_c, 0, 45, 31
1, 12360, Note_on_c, 0, 45, 0
1, 12360, Note_on_c, 0, 52, 35
1, 12480, Tempo, 849858
1, 12480, Note_on_c, 0, 52, 0
1, 12480, Note_on_c, 0, 73, 0
1, 12480, Note_on_c, 0, 72, 58
1, 12480, Note_on_c, 0, 45, 40
1, 12480, Control_c, 0, 64, 0
1, 12551, Control_c, 0, 64, 127
1, 12600, Note_on_c, 0, 45, 0
1, 12600, Note_on_c, 0, 52, 35
1, 12720, Note_on_c, 0, 52, 0
1, 12720, Note_on_c, 0, 72, 0
1, 12720, Note_on_c, 0, 73, 58
1, 12720, Note_on_c, 0, 45, 39
1, 12840, Note_on_c, 0, 45, 0
1, 12840, Note_on_c, 0, 52, 35
1, 12960, Note_on_c, 0, 52, 0
1, 12960, Note_on_c, 0, 73, 0
1, 12960, Note_on_c, 0, 69, 55
1, 12960, Note_on_c, 0, 64, 46
1, 12960, Note_on_c, 0, 61, 46
1, 12960, Note_on_c, 0, 45, 43
1, 12967, Control_c, 0, 64, 0
1, 13031, Control_c, 0, 64, 127
1, 13080, Note_on_c, 0, 45, 0
1, 13080, Note_on_c, 0, 52, 35
1, 13140, Note_on_c, 0, 69, 0
1, 13140, Note_on_c, 0, 61, 0
1, 13140, Note_on_c, 0, 64, 0
1, 13200, Note_on_c, 0, 52, 0
1, 13200, Note_on_c, 0, 68, 54
1, 13200, Note_on_c, 0, 64, 44
1, 13200, Note_on_c, 0, 59, 44
1, 13200, Note_on_c, 0, 47, 43
1, 13214, Control_c, 0, 64, 0
1, 13278, Control_c, 0, 64, 127
1, 13320, Tempo, 936037
1, 13320, Note_on_c, 0, 47, 0
1, 13320, Note_on_c, 0, 52, 35
1, 13380, Note_on_c, 0, 68, 0
1, 13380, Note_on_c, 0, 59, 0
1, 13380, Note_on_c, 0, 64, 0
1, 13440, Tempo, 855920
1, 13440, Note_on_c, 0, 52, 0
1, 13440, Note_on_c, 0, 68, 72
1, 13440, Note_on_c, 0, 64, 60
1, 13440, Note_on_c, 0, 58, 60
1, 13440, Note_on_c, 0, 49, 52
1, 13447, Control_c, 0, 64, 0
1, 13509, Control_c, 0, 64, 127
1, 13560, Note_on_c, 0, 49, 0
1, 13560, Note_on_c, 0, 52, 46
1, 13680, Note_on_c, 0, 52, 0
1, 13680, Note_on_c, 0, 68, 0
1, 13680, Note_on_c, 0, 66, 58
1, 13680, Note_on_c, 0, 49, 50
1, 13800, Tempo, 907716
1, 13800, Note_on_c, 0, 49, 0
1, 13800, Note_on_c, 0, 52, 40
1, 13920, Tempo, 855920
1, 13920, Note_on_c, 0, 52, 0
1, 13920, Note_on_c, 0, 58, 0
1, 13920, Note_on_c, 0, 64, 0
1, 13920, Note_on_c, 0, 64, 58
1, 13920, Note_on_c, 0, 57, 58
1, 13920, Note_on_c, 0, 48, 46
1, 13932, Control_c, 0, 64, 0
1, 14000, Control_c, 0, 64, 127
1, 14040, Note_on_c, 0, 48, 0
1, 14040, Note_on_c, 0, 52, 35
1, 14160, Note_on_c, 0, 52, 0
1, 14160, Note_on_c, 0, 66, 0
1, 14160, Note_on_c, 0, 66, 60
1, 14160, Note_on_c, 0, 48, 44
1, 14280, Tempo, 966184
1, 14280, Note_on_c, 0, 48, 0
1, 14280, Note_on_c, 0, 52, 35
1, 14400, Tempo, 862069
1, 14400, Note_on_c, 0, 52, 0
1, 14400, Note_on_c, 0, 66, 0
1, 14400, Note_on_c, 0, 57, 0
1, 14400, Note_on_c, 0, 64, 0
1, 14400, Note_on_c, 0, 66, 49
1, 14400, Note_on_c, 0, 63, 41
1, 14400, Note_on_c, 0, 57, 41
1, 14400, Note_on_c, 0, 47, 31
1, 14407, Control_c, 0, 64, 0
1, 14485, Control_c, 0, 64, 127
1, 14520, Note_on_c, 0, 47, 0
1, 14520, Note_on_c, 0, 54, 27
1, 14640, Note_on_c, 0, 54, 0
1, 14640, Note_on_c, 0, 57, 0
1, 14640, Note_on_c, 0, 63, 0
1, 14640, Note_on_c, 0, 66, 0
1, 14640, Note_on_c, 0, 71, 38
1, 14640, Note_on_c, 0, 63, 32
1, 14640, Note_on_c, 0, 47, 31
1, 14760, Note_on_c, 0, 47, 0
1, 14760, Note_on_c, 0, 54, 29
1, 14760, Note_on_c, 0, 57, 29
1, 14880, Tempo, 894188
1, 14880, Note_on_c, 0, 57, 0
1, 14880, Note_on_c, 0, 54, 0
1, 14880, Note_on_c, 0, 71, 0
1, 14880, Note_on_c, 0, 70, 46
1, 14880, Note_on_c, 0, 47, 31
1, 14889, Control_c, 0, 64, 0
1, 14965, Control_c, 0, 64, 127
1, 15000, Note_on_c, 0, 47, 0
1, 15000, Note_on_c, 0, 54, 27
1, 15000, Note_on_c, 0, 57, 27
1, 15120, Note_on_c, 0, 57, 0
1, 15120, Note_on_c, 0, 63, 0
1, 15120, Note_on_c, 0, 70, 0
1, 15120, Note_on_c, 0, 54, 0
1, 15120, Note_on_c, 0, 71, 40
1, 15120, Note_on_c, 0, 63, 34
1, 15120, Note_on_c, 0, 47, 31
1, 15240, Tempo, 998336
1, 15240, Note_on_c, 0, 47, 0
1, 15240, Note_on_c, 0, 57, 28
1, 15240, Note_on_c, 0, 54, 28
1, 15360, Tempo, 849858
1, 15360, Note_on_c, 0, 54, 0
1, 15360, Note_on_c, 0, 71, 0
1, 15360, Note_on_c, 0, 63, 0
1, 15360, Note_on_c, 0, 57, 0
1, 15360, Note_on_c, 0, 64, 51
1, 15360, Note_on_c, 0, 52, 31
1, 15360, Note_on_c, 0, 56, 31
1, 15366, Control_c, 0, 64, 0
1, 15367, Control_c, 0, 64, 0
1, 15424, Control_c, 0, 64, 127
1, 15480, Note_on_c, 0, 56, 0
1, 15480, Note_on_c, 0, 52, 0
1, 15480, Note_on_c, 0, 59, 23
1, 15600, Note_on_c, 0, 59, 0
1, 15600, Note_on_c, 0, 56, 31
1, 15720, Note_on_c, 0, 56, 0
1, 15720, Note_on_c, 0, 52, 25
1, 15840, Tempo, 832178
1, 15840, Note_on_c, 0, 52, 0
1, 15840, Note_on_c, 0, 64, 0
1, 15840, Note_on_c, 0, 51, 31
1, 15854, Control_c, 0, 64, 0
1, 15932, Control_c, 0, 64, 127
1, 15960, Note_on_c, 0, 51, 0
1, 15960, Note_on_c, 0, 59, 27
1, 16080, Note_on_c, 0, 59, 0
1, 16080, Note_on_c, 0, 83, 47
1, 16080, Note_on_c, 0, 71, 47
1, 16080, Note_on_c, 0, 54, 31
1, 16200, Tempo, 907716
1, 16200, Note_on_c, 0, 54, 0
1, 16200, Note_on_c, 0, 51, 32
1, 16320, Tempo, 849858
1, 16320, Note_on_c, 0, 51, 0
1, 16320, Note_on_c, 0, 71, 0
1, 16320, Note_on_c, 0, 83, 0
1, 16320, Note_on_c, 0, 82, 51
1, 16320, Note_on_c, 0, 70, 51
1, 16320, Note_on_c, 0, 49, 38
1, 16327, Control_c, 0, 64, 0
1, 16412, Control_c, 0, 64, 127
1, 16440, Note_on_c, 0, 49, 0
1, 16440, Note_on_c, 0, 58, 29
1, 16560, Note_on_c, 0, 58, 0
1, 16560, Note_on_c, 0, 54, 31
1, 16680, Note_on_c, 0, 54, 0
1, 16680, Note_on_c, 0, 49, 27
1, 16800, Note_on_c, 0, 49, 0
1, 16800, Note_on_c, 0, 70, 0
1, 16800, Note_on_c, 0, 82, 0
1, 16800, Note_on_c, 0, 88, 56
1, 16800, Note_on_c, 0, 76, 56
1, 16800, Note_on_c, 0, 42, 31
1, 16920, Note_on_c, 0, 42, 0
1, 16920, Note_on_c, 0, 58, 26
1, 17040, Note_on_c, 0, 58, 0
1, 17040, Note_on_c, 0, 54, 29
1, 17160, Tempo, 900901
1, 17160, Note_on_c, 0, 54, 0
1, 17160, Note_on_c, 0, 49, 27
1, 17280, Tempo, 855920
1, 17280, Note_on_c, 0, 49, 0
1, 17280, Note_on_c, 0, 76, 0
1, 17280, Note_on_c, 0, 88, 0
1, 17280, Note_on_c, 0, 87, 51
1, 17280, Note_on_c, 0, 75, 51
1, 17280, Note_on_c, 0, 47, 31
1, 17280, Control_c, 0, 64, 0
1, 17379, Control_c, 0, 64, 127
1, 17400, Note_on_c, 0, 47, 0
1, 17400, Note_on_c, 0, 59, 25
1, 17520, Note_on_c, 0, 59, 0
1, 17520, Note_on_c, 0, 54, 30
1, 17640, Note_on_c, 0, 54, 0
1, 17640, Note_on_c, 0, 51, 27
1, 17760, Note_on_c, 0, 51, 0
1, 17760, Note_on_c, 0, 47, 37
1, 17880, Note_on_c, 0, 47, 0
1, 17880, Note_on_c, 0, 59, 30
1, 18000, Note_on_c, 0, 59, 0
1, 18000, Note_on_c, 0, 75, 0
1, 18000, Note_on_c, 0, 87, 0
1, 18000, Note_on_c, 0, 81, 51
1, 18000, Note_on_c, 0, 69, 51
1, 18000, Note_on_c, 0, 49, 42
1, 18008, Control_c, 0, 64, 0
1, 18071, Control_c, 0, 64, 127
1, 18120, Tempo, 894188
1, 18120, Note_on_c, 0, 49, 0
1, 18120, Note_on_c, 0, 57, 38
1, 18240, Tempo, 855920
1, 18240, Note_on_c, 0, 57, 0
1, 18240, Note_on_c, 0, 69, 0
1, 18240, Note_on_c, 0, 81, 0
1, 18240, Note_on_c, 0, 80, 62
1, 18240, Note_on_c, 0, 68, 62
1, 18240, Note_on_c, 0, 47, 37
1, 18247, Control_c, 0, 64, 0
1, 18325, Control_c, 0, 64, 127
1, 18360, Note_on_c, 0, 47, 0
1, 18360, Note_on_c, 0, 56, 36
1, 18480, Note_on_c, 0, 56, 0
1, 18480, Note_on_c, 0, 52, 44
1, 18600, Note_on_c, 0, 52, 0
1, 18600, Note_on_c, 0, 47, 38
1, 18720, Note_on_c, 0, 47, 0
1, 18720, Note_on_c, 0, 68, 0
1, 18720, Note_on_c, 0, 80, 0
1, 18720, Note_on_c, 0, 86, 59
1, 18720, Note_on_c, 0, 74, 59
1, 18720, Note_on_c, 0, 40, 42
1, 18738, Control_c, 0, 64, 0
1, 18812, Control_c, 0, 64, 127
1, 18840, Note_on_c, 0, 40, 0
1, 18840, Note_on_c, 0, 56, 35
1, 18960, Note_on_c, 0, 56, 0
1, 18960, Note_on_c, 0, 52, 39
1, 19080, Tempo, 936037
1, 19080, Note_on_c, 0, 52, 0
1, 19080, Note_on_c, 0, 47, 31
1, 19200, Tempo, 855920
1, 19200, Note_on_c, 0, 47, 0
1, 19200, Note_on_c, 0, 74, 0
1, 19200, Note_on_c, 0, 86, 0
1, 19200, Note_on_c, 0, 85, 56
1, 19200, Note_on_c, 0, 73, 56
1, 19200, Note_on_c, 0, 45, 38
1, 19216, Control_c, 0, 64, 0
1, 19285, Control_c, 0, 64, 127
1, 19320, Note_on_c, 0, 45, 0
1, 19320, Note_on_c, 0, 57, 29
1, 19440, Note_on_c, 0, 57, 0
1, 19440, Note_on_c, 0, 52, 34
1, 19560, Note_on_c, 0, 52, 0
1, 19560, Note_on_c, 0, 49, 29
1, 19680, Note_on_c, 0, 49, 0
1, 19680, Note_on_c, 0, 45, 34
1, 19800, Tempo, 837989
1, 19800, Note_on_c, 0, 45, 0
1, 19800, Note_on_c, 0, 52, 29
1, 19920, Note_on_c, 0, 52, 0
1, 19920, Note_on_c, 0, 73, 0
1, 19920, Note_on_c, 0, 85, 0
1, 19920, Note_on_c, 0, 85, 50
1, 19920, Note_on_c, 0, 73, 50
1, 19920, Note_on_c, 0, 45, 35
1, 20040, Note_on_c, 0, 45, 0
1, 20040, Note_on_c, 0, 52, 40
1, 20160, Tempo, 849858
1, 20160, Note_on_c, 0, 52, 0
1, 20160, Note_on_c, 0, 73, 0
1, 20160, Note_on_c, 0, 85, 0
1, 20160, Note_on_c, 0, 84, 59
1, 20160, Note_on_c, 0, 72, 59
1, 20160, Note_on_c, 0, 44, 40
1, 20160, Control_c, 0, 64, 0
1, 20231, Control_c, 0, 64, 127
1, 20280, Note_on_c, 0, 44, 0
1, 20280, Note_on_c, 0, 52, 36
1, 20400, Note_on_c, 0, 52, 0
1, 20400, Note_on_c, 0, 72, 0
1, 20400, Note_on_c, 0, 84, 0
1, 20400, Note_on_c, 0, 85, 60
1, 20400, Note_on_c, 0, 73, 60
1, 20400, Note_on_c, 0, 45, 40
1, 20520, Note_on_c, 0, 45, 0
1, 20520, Note_on_c, 0, 52, 36
1, 20640, Note_on_c, 0, 52, 0
1, 20640, Note_on_c, 0, 73, 0
1, 20640, Note_on_c, 0, 85, 0
1, 20640, Note_on_c, 0, 81, 58
1, 20640, Note_on_c, 0, 69, 58
1, 20640, Note_on_c, 0, 49, 45
1, 20640, Note_on_c, 0, 45, 38
1, 20647, Control_c, 0, 64, 0
1, 20711, Control_c, 0, 64, 127
1, 20760, Note_on_c, 0, 45, 0
1, 20760, Note_on_c, 0, 49, 0
1, 20760, Note_on_c, 0, 52, 37
1, 20820, Note_on_c, 0, 69, 0
1, 20820, Note_on_c, 0, 81, 0
1, 20880, Note_on_c, 0, 52, 0
1, 20880, Note_on_c, 0, 80, 57
1, 20880, Note_on_c, 0, 68, 57
1, 20880, Note_on_c, 0, 52, 46
1, 20880, Note_on_c, 0, 47, 39
1, 20894, Control_c, 0, 64, 0
1, 20958, Control_c, 0, 64, 127
1, 21000, Tempo, 936037
1, 21000, Note_on_c, 0, 47, 0
1, 21000, Note_on_c, 0, 52, 0
1, 21000, Note_on_c, 0, 56, 37
1, 21060, Note_on_c, 0, 68, 0
1, 21060, Note_on_c, 0, 80, 0
1, 21120, Tempo, 855920
1, 21120, Note_on_c, 0, 56, 0
1, 21120, Note_on_c, 0, 80, 70
1, 21120, Note_on_c, 0, 68, 70
1, 21120, Note_on_c, 0, 52, 44
1, 21120, Note_on_c, 0, 49, 37
1, 21127, Control_c, 0, 64, 0
1, 21189, Control_c, 0, 64, 127
1, 21240, Note_on_c, 0, 49, 0
1, 21240, Note_on_c, 0, 52, 0
1, 21240, Note_on_c, 0, 58, 39
1, 21360, Note_on_c, 0, 58, 0
1, 21360, Note_on_c, 0, 68, 0
1, 21360, Note_on_c, 0, 80, 0
1, 21360, Note_on_c, 0, 78, 64
1, 21360, Note_on_c, 0, 66, 64
1, 21360, Note_on_c, 0, 52, 44
1, 21360, Note_on_c, 0, 49, 36
1, 21480, Tempo, 907716
1, 21480, Note_on_c, 0, 49, 0
1, 21480, Note_on_c, 0, 52, 0
1, 21480, Note_on_c, 0, 58, 35
1, 21600, Tempo, 855920
1, 21600, Note_on_c, 0, 58, 0
1, 21600, Note_on_c, 0, 52, 40
1, 21600, Note_on_c, 0, 48, 34
1, 21612, Control_c, 0, 64, 0
1, 21680, Control_c, 0, 64, 127
1, 21720, Note_on_c, 0, 48, 0
1, 21720, Note_on_c, 0, 52, 0
1, 21720, Note_on_c, 0, 57, 31
1, 21835, Note_on_c, 0, 66, 0
1, 21835, Note_on_c, 0, 78, 0
1, 21840, Note_on_c, 0, 57, 0
1, 21840, Note_on_c, 0, 78, 53
1, 21840, Note_on_c, 0, 66, 53
1, 21840, Note_on_c, 0, 52, 49
1, 21840, Note_on_c, 0, 48, 42
1, 21960, Tempo, 966184
1, 21960, Note_on_c, 0, 48, 0
1, 21960, Note_on_c, 0, 52, 0
1, 21960, Note_on_c, 0, 57, 39
1, 22068, Note_on_c, 0, 66, 0
1, 22068, Note_on_c, 0, 78, 0
1, 22080, Tempo, 862069
1, 22080, Note_on_c, 0, 57, 0
1, 22080, Note_on_c, 0, 78, 49
1, 22080, Note_on_c, 0, 66, 49
1, 22080, Note_on_c, 0, 51, 31
1, 22080, Note_on_c, 0, 47, 26
1, 22087, Control_c, 0, 64, 0
1, 22165, Control_c, 0, 64, 127
1, 22200, Note_on_c, 0, 47, 0
1, 22200, Note_on_c, 0, 51, 0
1, 22200, Note_on_c, 0, 57, 27
1, 22320, Note_on_c, 0, 57, 0
1, 22320, Note_on_c, 0, 66, 0
1, 22320, Note_on_c, 0, 78, 0
1, 22320, Note_on_c, 0, 83, 38
1, 22320, Note_on_c, 0, 71, 38
1, 22320, Note_on_c, 0, 51, 31
1, 22320, Note_on_c, 0, 47, 26
1, 22440, Note_on_c, 0, 47, 0
1, 22440, Note_on_c, 0, 51, 0
1, 22440, Note_on_c, 0, 57, 29
1, 22560, Tempo, 894188
1, 22560, Note_on_c, 0, 57, 0
1, 22560, Note_on_c, 0, 71, 0
1, 22560, Note_on_c, 0, 83, 0
1, 22560, Note_on_c, 0, 82, 46
1, 22560, Note_on_c, 0, 70, 46
1, 22560, Note_on_c, 0, 51, 31
1, 22560, Note_on_c, 0, 47, 26
1, 22569, Control_c, 0, 64, 0
1, 22645, Control_c, 0, 64, 127
1, 22680, Note_on_c, 0, 47, 0
1, 22680, Note_on_c, 0, 51, 0
1, 22680, Note_on_c, 0, 57, 27
1, 22800, Note_on_c, 0, 57, 0
1, 22800, Note_on_c, 0, 70, 0
1, 22800, Note_on_c, 0, 82, 0
1, 22800, Note_on_c, 0, 83, 40
1, 22800, Note_on_c, 0, 71, 40
1, 22800, Note_on_c, 0, 51, 31
1, 22800, Note_on_c, 0, 47, 26
1, 22920, Tempo, 998336
1, 22920, Note_on_c, 0, 47, 0
1, 22920, Note_on_c, 0, 51, 0
1, 22920, Note_on_c, 0, 57, 28
1, 23040, Tempo, 907716
1, 23040, Note_on_c, 0, 57, 0
1, 23040, Note_on_c, 0, 71, 0
1, 23040, Note_on_c, 0, 83, 0
1, 23040, Note_on_c, 0, 76, 51
1, 23040, Note_on_c, 0, 64, 51
1, 23040, Note_on_c, 0, 52, 31
1, 23040, Note_on_c, 0, 56, 31
1, 23047, Control_c, 0, 64, 0
1, 23160, Note_on_c, 0, 56, 0
1, 23160, Note_on_c, 0, 52, 0
1, 23160, Note_on_c, 0, 52, 31
1, 23280, Note_on_c, 0, 52, 0
1, 23280, Note_on_c, 0, 51, 31
1, 23400, Note_on_c, 0, 51, 0
1, 23400, Note_on_c, 0, 49, 31
1, 23520, Note_on_c, 0, 49, 0
1, 23520, Note_on_c, 0, 64, 0
1, 23520, Note_on_c, 0, 76, 0
1, 23520, Note_on_c, 0, 47, 31
1, 23640, Tempo, 966184
1, 23640, Note_on_c, 0, 47, 0
1, 23640, Note_on_c, 0, 45, 30
1, 23760, Tempo, 907716
1, 23760, Note_on_c, 0, 45, 0
1, 23760, Note_on_c, 0, 64, 43
1, 23760, Note_on_c, 0, 44, 25
1, 23880, Tempo, 958466
1, 23880, Note_on_c, 0, 44, 0
1, 23880, Note_on_c, 0, 64, 0
1, 23880, Note_on_c, 0, 66, 39
1, 23880, Note_on_c, 0, 42, 25
1, 24000, Tempo, 900901
1, 24000, Note_on_c, 0, 42, 0
1, 24000, Note_on_c, 0, 66, 0
1, 24000, Note_on_c, 0, 64, 34
1, 24000, Note_on_c, 0, 68, 50
1, 24000, Note_on_c, 0, 40, 25
1, 24078, Control_c, 0, 64, 127
1, 24120, Note_on_c, 0, 64, 0
1, 24120, Note_on_c, 0, 59, 26
1, 24240, Note_on_c, 0, 59, 0
1, 24240, Note_on_c, 0, 40, 0
1, 24240, Note_on_c, 0, 64, 31
1, 24360, Note_on_c, 0, 64, 0
1, 24360, Note_on_c, 0, 59, 26
1, 24480, Tempo, 849858
1, 24480, Note_on_c, 0, 59, 0
1, 24480, Note_on_c, 0, 68, 0
1, 24480, Note_on_c, 0, 68, 30
1, 24480, Note_on_c, 0, 71, 46
1, 24496, Control_c, 0, 64, 0
1, 24579, Control_c, 0, 64, 127
1, 24600, Note_on_c, 0, 68, 0
1, 24600, Note_on_c, 0, 59, 27
1, 24720, Tempo, 881057
1, 24720, Note_on_c, 0, 59, 0
1, 24720, Note_on_c, 0, 71, 0
1, 24720, Note_on_c, 0, 66, 28
1, 24720, Note_on_c, 0, 69, 43
1, 24733, Control_c, 0, 64, 0
1, 24784, Control_c, 0, 64, 127
1, 24840, Tempo, 881057
1, 24840, Note_on_c, 0, 66, 0
1, 24840, Note_on_c, 0, 59, 27
1, 24960, Tempo, 868307
1, 24960, Note_on_c, 0, 59, 0
1, 24960, Note_on_c, 0, 69, 0
1, 24960, Note_on_c, 0, 64, 34
1, 24960, Note_on_c, 0, 68, 50
1, 24960, Note_on_c, 0, 35, 25
1, 24960, Control_c, 0, 64, 0
1, 25024, Control_c, 0, 64, 127
1, 25080, Note_on_c, 0, 64, 0
1, 25080, Note_on_c, 0, 59, 26
1, 25200, Tempo, 849858
1, 25200, Note_on_c, 0, 59, 0
1, 25200, Note_on_c, 0, 35, 0
1, 25200, Note_on_c, 0, 68, 0
1, 25200, Note_on_c, 0, 63, 27
1, 25200, Note_on_c, 0, 66, 41
1, 25214, Control_c, 0, 64, 0
1, 25257, Control_c, 0, 64, 127
1, 25320, Note_on_c, 0, 63, 0
1, 25320, Note_on_c, 0, 59, 25
1, 25410, Note_on_c, 0, 59, 0
1, 25410, Note_on_c, 0, 66, 0
1, 25410, Control_c, 0, 64, 0
1, 25440, Note_on_c, 0, 63, 27
1, 25440, Note_on_c, 0, 66, 41
1, 25504, Control_c, 0, 64, 127
1, 25560, Note_on_c, 0, 63, 0
1, 25560, Note_on_c, 0, 59, 26
1, 25680, Tempo, 832178
1, 25680, Note_on_c, 0, 59, 0
1, 25680, Note_on_c, 0, 66, 0
1, 25680, Note_on_c, 0, 64, 28
1, 25680, Note_on_c, 0, 68, 43
1, 25698, Control_c, 0, 64, 0
1, 25765, Control_c, 0, 64, 127
1, 25800, Note_on_c, 0, 64, 0
1, 25800, Note_on_c, 0, 59, 28
1, 25920, Tempo, 849858
1, 25920, Note_on_c, 0, 59, 0
1, 25920, Note_on_c, 0, 68, 0
1, 25920, Note_on_c, 0, 64, 30
1, 25920, Note_on_c, 0, 69, 46
1, 25920, Note_on_c, 0, 37, 25
1, 25930, Control_c, 0, 64, 0
1, 26005, Control_c, 0, 64, 127
1, 26040, Note_on_c, 0, 64, 0
1, 26040, Note_on_c, 0, 59, 28
1, 26160, Note_on_c, 0, 59, 0
1, 26160, Note_on_c, 0, 37, 0
1, 26160, Note_on_c, 0, 69, 0
1, 26160, Note_on_c, 0, 64, 36
1, 26160, Note_on_c, 0, 73, 54
1, 26280, Note_on_c, 0, 64, 0
1, 26280, Note_on_c, 0, 59, 31
1, 26400, Note_on_c, 0, 59, 0
1, 26400, Note_on_c, 0, 73, 0
1, 26400, Note_on_c, 0, 66, 37
1, 26400, Note_on_c, 0, 71, 47
1, 26400, Note_on_c, 0, 39, 23
1, 26416, Control_c, 0, 64, 0
1, 26478, Control_c, 0, 64, 127
1, 26520, Note_on_c, 0, 66, 0
1, 26520, Note_on_c, 0, 59, 26
1, 26640, Tempo, 868307
1, 26640, Note_on_c, 0, 59, 0
1, 26640, Note_on_c, 0, 39, 0
1, 26640, Note_on_c, 0, 71, 0
1, 26640, Note_on_c, 0, 63, 25
1, 26640, Note_on_c, 0, 66, 38
1, 26640, Note_on_c, 0, 35, 22
1, 26760, Tempo, 1006711
1, 26760, Note_on_c, 0, 63, 0
1, 26760, Note_on_c, 0, 59, 27
1, 26880, Tempo, 928793
1, 26880, Note_on_c, 0, 59, 0
1, 26880, Note_on_c, 0, 35, 0
1, 26880, Note_on_c, 0, 66, 0
1, 26880, Note_on_c, 0, 59, 35
1, 26880, Note_on_c, 0, 64, 35
1, 26880, Note_on_c, 0, 68, 42
1, 26880, Note_on_c, 0, 40, 28
1, 26888, Control_c, 0, 64, 0
1, 26919, Control_c, 0, 64, 127
1, 27120, Tempo, 849858
1, 27120, Note_on_c, 0, 40, 0
1, 27120, Note_on_c, 0, 59, 0
1, 27120, Note_on_c, 0, 64, 0
1, 27120, Note_on_c, 0, 68, 0
1, 27120, Note_on_c, 0, 64, 32
1, 27127, Control_c, 0, 64, 0
1, 27173, Control_c, 0, 64, 127
1, 27240, Note_on_c, 0, 64, 0
1, 27240, Note_on_c, 0, 59, 25
1, 27330, Note_on_c, 0, 78, 48
1, 27360, Tempo, 815217
1, 27360, Note_on_c, 0, 78, 0
1, 27360, Note_on_c, 0, 59, 0
1, 27360, Note_on_c, 0, 76, 54
1, 27360, Note_on_c, 0, 64, 32
1, 27378, Control_c, 0, 64, 0
1, 27480, Note_on_c, 0, 64, 0
1, 27480, Note_on_c, 0, 76, 0
1, 27480, Note_on_c, 0, 75, 48
1, 27480, Note_on_c, 0, 59, 27
1, 27600, Note_on_c, 0, 59, 0
1, 27600, Note_on_c, 0, 75, 0
1, 27600, Note_on_c, 0, 76, 56
1, 27600, Note_on_c, 0, 64, 32
1, 27720, Note_on_c, 0, 64, 0
1, 27720, Note_on_c, 0, 76, 0
1, 27720, Note_on_c, 0, 78, 50
1, 27720, Note_on_c, 0, 59, 29
1, 27810, Note_on_c, 0, 78, 0
1, 27810, Note_on_c, 0, 81, 50
1, 27840, Tempo, 798935
1, 27840, Note_on_c, 0, 81, 0
1, 27840, Note_on_c, 0, 59, 0
1, 27840, Note_on_c, 0, 80, 60
1, 27840, Note_on_c, 0, 64, 35
1, 27960, Note_on_c, 0, 64, 0
1, 27960, Note_on_c, 0, 80, 0
1, 27960, Note_on_c, 0, 78, 55
1, 27960, Note_on_c, 0, 59, 34
1, 28080, Tempo, 809717
1, 28080, Note_on_c, 0, 59, 0
1, 28080, Note_on_c, 0, 78, 0
1, 28080, Note_on_c, 0, 80, 49
1, 28080, Note_on_c, 0, 64, 38
1, 28200, Tempo, 894188
1, 28200, Note_on_c, 0, 64, 0
1, 28200, Note_on_c, 0, 80, 0
1, 28200, Note_on_c, 0, 81, 55
1, 28200, Note_on_c, 0, 59, 36
1, 28320, Tempo, 832178
1, 28320, Note_on_c, 0, 59, 0
1, 28320, Note_on_c, 0, 81, 0
1, 28320, Note_on_c, 0, 71, 54
1, 28320, Note_on_c, 0, 83, 63
1, 28320, Note_on_c, 0, 68, 42
1, 28419, Control_c, 0, 64, 127
1, 28440, Note_on_c, 0, 68, 0
1, 28440, Note_on_c, 0, 59, 38
1, 28560, Note_on_c, 0, 59, 0
1, 28560, Note_on_c, 0, 83, 0
1, 28560, Note_on_c, 0, 71, 0
1, 28560, Note_on_c, 0, 81, 64
1, 28560, Note_on_c, 0, 69, 54
1, 28560, Note_on_c, 0, 66, 47
1, 28567, Control_c, 0, 64, 0
1, 28638, Control_c, 0, 64, 127
1, 28680, Tempo, 881057
1, 28680, Note_on_c, 0, 66, 0
1, 28680, Note_on_c, 0, 59, 43
1, 28800, Tempo, 837989
1, 28800, Note_on_c, 0, 59, 0
1, 28800, Note_on_c, 0, 69, 0
1, 28800, Note_on_c, 0, 81, 0
1, 28800, Note_on_c, 0, 80, 70
1, 28800, Note_on_c, 0, 68, 59
1, 28800, Note_on_c, 0, 64, 54
1, 28807, Control_c, 0, 64, 0
1, 28852, Control_c, 0, 64, 127
1, 28920, Note_on_c, 0, 64, 0
1, 28920, Note_on_c, 0, 59, 45
1, 29040, Note_on_c, 0, 59, 0
1, 29040, Note_on_c, 0, 68, 0
1, 29040, Note_on_c, 0, 80, 0
1, 29040, Note_on_c, 0, 66, 56
1, 29040, Note_on_c, 0, 78, 67
1, 29040, Note_on_c, 0, 63, 52
1, 29055, Control_c, 0, 64, 0
1, 29103, Control_c, 0, 64, 127
1, 29160, Tempo, 900901
1, 29160, Note_on_c, 0, 63, 0
1, 29160, Note_on_c, 0, 59, 45
1, 29252, Control_c, 0, 64, 0
1, 29268, Note_on_c, 0, 78, 0
1, 29268, Note_on_c, 0, 66, 0
1, 29280, Tempo, 843882
1, 29280, Note_on_c, 0, 59, 0
1, 29280, Note_on_c, 0, 66, 63
1, 29280, Note_on_c, 0, 78, 75
1, 29280, Note_on_c, 0, 63, 49
1, 29355, Control_c, 0, 64, 127
1, 29400, Note_on_c, 0, 63, 0
1, 29400, Note_on_c, 0, 59, 42
1, 29520, Note_on_c, 0, 59, 0
1, 29520, Note_on_c, 0, 78, 0
1, 29520, Note_on_c, 0, 66, 0
1, 29520, Note_on_c, 0, 80, 68
1, 29520, Note_on_c, 0, 68, 57
1, 29520, Note_on_c, 0, 65, 52
1, 29528, Control_c, 0, 64, 0
1, 29583, Control_c, 0, 64, 127
1, 29640, Note_on_c, 0, 65, 0
1, 29640, Note_on_c, 0, 59, 46
1, 29760, Note_on_c, 0, 59, 0
1, 29760, Note_on_c, 0, 68, 0
1, 29760, Note_on_c, 0, 80, 0
1, 29760, Note_on_c, 0, 69, 64
1, 29760, Note_on_c, 0, 81, 76
1, 29760, Note_on_c, 0, 66, 60
1, 29766, Control_c, 0, 64, 0
1, 29792, Control_c, 0, 64, 127
1, 29880, Note_on_c, 0, 66, 0
1, 29880, Note_on_c, 0, 59, 50
1, 30000, Note_on_c, 0, 59, 0
1, 30000, Note_on_c, 0, 81, 0
1, 30000, Note_on_c, 0, 69, 0
1, 30000, Note_on_c, 0, 85, 69
1, 30000, Note_on_c, 0, 73, 58
1, 30000, Note_on_c, 0, 69, 54
1, 30007, Control_c, 0, 64, 0
1, 30046, Control_c, 0, 64, 127
1, 30120, Tempo, 900901
1, 30120, Note_on_c, 0, 69, 0
1, 30120, Note_on_c, 0, 59, 48
1, 30240, Tempo, 849858
1, 30240, Note_on_c, 0, 59, 0
1, 30240, Note_on_c, 0, 73, 0
1, 30240, Note_on_c, 0, 85, 0
1, 30240, Note_on_c, 0, 83, 80
1, 30240, Note_on_c, 0, 71, 67
1, 30240, Note_on_c, 0, 68, 57
1, 30254, Control_c, 0, 64, 0
1, 30286, Control_c, 0, 64, 127
1, 30360, Note_on_c, 0, 68, 0
1, 30360, Note_on_c, 0, 59, 45
1, 30480, Tempo, 900901
1, 30480, Note_on_c, 0, 59, 0
1, 30480, Note_on_c, 0, 71, 0
1, 30480, Note_on_c, 0, 83, 0
1, 30480, Note_on_c, 0, 75, 70
1, 30480, Note_on_c, 0, 81, 70
1, 30480, Note_on_c, 0, 87, 83
1, 30480, Note_on_c, 0, 66, 54
1, 30491, Control_c, 0, 64, 0
1, 30530, Control_c, 0, 64, 127
1, 30600, Note_on_c, 0, 66, 0
1, 30600, Note_on_c, 0, 59, 46
1, 30660, Note_on_c, 0, 75, 0
1, 30660, Note_on_c, 0, 87, 0
1, 30660, Note_on_c, 0, 81, 0
1, 30678, Control_c, 0, 64, 0
1, 30720, Note_on_c, 0, 59, 0
1, 30720, Note_on_c, 0, 76, 73
1, 30720, Note_on_c, 0, 80, 73
1, 30720, Note_on_c, 0, 88, 88
1, 30720, Note_on_c, 0, 64, 59
1, 30798, Control_c, 0, 64, 127
1, 30840, Tempo, 849858
1, 30840, Note_on_c, 0, 64, 0
1, 30840, Note_on_c, 0, 59, 49
1, 30960, Note_on_c, 0, 59, 0
1, 30960, Note_on_c, 0, 56, 58
1, 31080, Note_on_c, 0, 56, 0
1, 31080, Note_on_c, 0, 59, 50
1, 31200, Tempo, 862069
1, 31200, Note_on_c, 0, 59, 0
1, 31200, Note_on_c, 0, 88, 0
1, 31200, Note_on_c, 0, 80, 0
1, 31200, Note_on_c, 0, 76, 0
1, 31200, Note_on_c, 0, 52, 59
1, 31217, Control_c, 0, 64, 0
1, 31440, Tempo, 887574
1, 31440, Note_on_c, 0, 52, 0
1, 31440, Note_on_c, 0, 64, 73
1, 31440, Note_on_c, 0, 68, 87
1, 31560, Note_on_c, 0, 68, 0
1, 31560, Note_on_c, 0, 64, 0
1, 31680, Tempo, 855920
1, 31680, Note_on_c, 0, 64, 81
1, 31680, Note_on_c, 0, 68, 96
1, 31680, Note_on_c, 0, 61, 67
1, 31758, Control_c, 0, 64, 127
1, 31800, Note_on_c, 0, 61, 0
1, 31800, Note_on_c, 0, 56, 57
1, 31920, Note_on_c, 0, 56, 0
1, 31920, Note_on_c, 0, 52, 62
1, 32040, Note_on_c, 0, 52, 0
1, 32040, Note_on_c, 0, 56, 57
1, 32160, Note_on_c, 0, 56, 0
1, 32160, Note_on_c, 0, 49, 70
1, 32400, Tempo, 887574
1, 32400, Note_on_c, 0, 49, 0
1, 32400, Note_on_c, 0, 68, 0
1, 32400, Note_on_c, 0, 64, 0
1, 32400, Note_on_c, 0, 76, 34
1, 32400, Note_on_c, 0, 68, 28
1, 32400, Note_on_c, 0, 64, 28
1, 32400, Note_on_c, 0, 61, 26
1, 32401, Control_c, 0, 64, 0
1, 32520, Note_on_c, 0, 61, 0
1, 32520, Note_on_c, 0, 76, 0
1, 32520, Note_on_c, 0, 68, 0
1, 32520, Note_on_c, 0, 64, 0
1, 32640, Tempo, 837989
1, 32640, Note_on_c, 0, 75, 39
1, 32640, Note_on_c, 0, 68, 33
1, 32640, Note_on_c, 0, 66, 33
1, 32640, Note_on_c, 0, 63, 33
1, 32640, Note_on_c, 0, 60, 33
1, 32663, Control_c, 0, 64, 127
1, 32760, Tempo, 832178
1, 32760, Note_on_c, 0, 60, 0
1, 32760, Note_on_c, 0, 56, 27
1, 32880, Note_on_c, 0, 56, 0
1, 32880, Note_on_c, 0, 51, 33
1, 33000, Note_on_c, 0, 51, 0
1, 33000, Note_on_c, 0, 56, 27
1, 33120, Note_on_c, 0, 56, 0
1, 33120, Note_on_c, 0, 48, 36
1, 33360, Tempo, 887574
1, 33360, Note_on_c, 0, 48, 0
1, 33360, Note_on_c, 0, 66, 0
1, 33360, Note_on_c, 0, 75, 0
1, 33360, Note_on_c, 0, 68, 0
1, 33360, Note_on_c, 0, 63, 0
1, 33360, Note_on_c, 0, 63, 73
1, 33360, Note_on_c, 0, 66, 73
1, 33360, Note_on_c, 0, 68, 87
1, 33360, Note_on_c, 0, 60, 77
1, 33366, Control_c, 0, 64, 0
1, 33480, Note_on_c, 0, 60, 0
1, 33480, Note_on_c, 0, 63, 0
1, 33480, Note_on_c, 0, 66, 0
1, 33480, Note_on_c, 0, 68, 0
1, 33600, Tempo, 855920
1, 33600, Note_on_c, 0, 66, 81
1, 33600, Note_on_c, 0, 63, 81
1, 33600, Note_on_c, 0, 68, 96
1, 33600, Note_on_c, 0, 56, 67
1, 33678, Control_c, 0, 64, 127
1, 33720, Note_on_c, 0, 56, 0
1, 33720, Note_on_c, 0, 51, 57
1, 33840, Note_on_c, 0, 51, 0
1, 33840, Note_on_c, 0, 48, 62
1, 33960, Note_on_c, 0, 48, 0
1, 33960, Note_on_c, 0, 51, 57
1, 34080, Note_on_c, 0, 51, 0
1, 34080, Note_on_c, 0, 44, 70
1, 34320, Tempo, 887574
1, 34320, Note_on_c, 0, 44, 0
1, 34320, Note_on_c, 0, 66, 0
1, 34320, Note_on_c, 0, 63, 0
1, 34320, Note_on_c, 0, 68, 0
1, 34320, Note_on_c, 0, 63, 28
1, 34320, Note_on_c, 0, 75, 34
1, 34320, Note_on_c, 0, 68, 28
1, 34320, Note_on_c, 0, 66, 28
1, 34320, Note_on_c, 0, 60, 26
1, 34321, Control_c, 0, 64, 0
1, 34440, Note_on_c, 0, 60, 0
1, 34440, Note_on_c, 0, 68, 0
1, 34440, Note_on_c, 0, 63, 0
1, 34440, Note_on_c, 0, 75, 0
1, 34440, Note_on_c, 0, 66, 0
1, 34560, Tempo, 837989
1, 34560, Note_on_c, 0, 76, 39
1, 34560, Note_on_c, 0, 68, 33
1, 34560, Note_on_c, 0, 64, 33
1, 34560, Note_on_c, 0, 61, 33
1, 34583, Control_c, 0, 64, 127
1, 34680, Tempo, 832178
1, 34680, Note_on_c, 0, 61, 0
1, 34680, Note_on_c, 0, 56, 27
1, 34800, Note_on_c, 0, 56, 0
1, 34800, Note_on_c, 0, 52, 33
1, 34920, Note_on_c, 0, 52, 0
1, 34920, Note_on_c, 0, 56, 27
1, 35040, Note_on_c, 0, 56, 0
1, 35040, Note_on_c, 0, 49, 36
1, 35280, Tempo, 887574
1, 35280, Note_on_c, 0, 49, 0
1, 35280, Note_on_c, 0, 76, 0
1, 35280, Note_on_c, 0, 68, 0
1, 35280, Note_on_c, 0, 64, 0
1, 35280, Note_on_c, 0, 64, 73
1, 35280, Note_on_c, 0, 68, 87
1, 35280, Note_on_c, 0, 61, 83
1, 35280, Control_c, 0, 64, 0
1, 35400, Note_on_c, 0, 61, 0
1, 35400, Note_on_c, 0, 68, 0
1, 35400, Note_on_c, 0, 64, 0
1, 35520, Tempo, 855920
1, 35520, Note_on_c, 0, 64, 81
1, 35520, Note_on_c, 0, 68, 96
1, 35520, Note_on_c, 0, 59, 67
1, 35598, Control_c, 0, 64, 127
1, 35640, Note_on_c, 0, 59, 0
1, 35640, Note_on_c, 0, 56, 57
1, 35760, Note_on_c, 0, 56, 0
1, 35760, Note_on_c, 0, 52, 62
1, 35880, Note_on_c, 0, 52, 0
1, 35880, Note_on_c, 0, 56, 57
1, 36000, Note_on_c, 0, 56, 0
1, 36000, Note_on_c, 0, 47, 70
1, 36240, Tempo, 887574
1, 36240, Note_on_c, 0, 47, 0
1, 36240, Note_on_c, 0, 68, 0
1, 36240, Note_on_c, 0, 64, 0
1, 36240, Note_on_c, 0, 76, 34
1, 36240, Note_on_c, 0, 68, 28
1, 36240, Note_on_c, 0, 64, 28
1, 36240, Note_on_c, 0, 59, 26
1, 36241, Control_c, 0, 64, 0
1, 36360, Note_on_c, 0, 59, 0
1, 36360, Note_on_c, 0, 76, 0
1, 36360, Note_on_c, 0, 68, 0
1, 36360, Note_on_c, 0, 64, 0
1, 36480, Tempo, 837989
1, 36480, Note_on_c, 0, 76, 39
1, 36480, Note_on_c, 0, 66, 33
1, 36480, Note_on_c, 0, 64, 33
1, 36480, Note_on_c, 0, 58, 33
1, 36503, Control_c, 0, 64, 127
1, 36600, Tempo, 832178
1, 36600, Note_on_c, 0, 58, 0
1, 36600, Note_on_c, 0, 54, 27
1, 36720, Note_on_c, 0, 54, 0
1, 36720, Note_on_c, 0, 49, 33
1, 36840, Note_on_c, 0, 49, 0
1, 36840, Note_on_c, 0, 54, 27
1, 36960, Note_on_c, 0, 54, 0
1, 36960, Note_on_c, 0, 46, 36
1, 37200, Tempo, 887574
1, 37200, Note_on_c, 0, 46, 0
1, 37200, Note_on_c, 0, 76, 0
1, 37200, Note_on_c, 0, 66, 0
1, 37200, Note_on_c, 0, 64, 0
1, 37200, Note_on_c, 0, 61, 73
1, 37200, Note_on_c, 0, 64, 87
1, 37200, Note_on_c, 0, 46, 77
1, 37206, Control_c, 0, 64, 0
1, 37320, Note_on_c, 0, 46, 0
1, 37320, Note_on_c, 0, 64, 0
1, 37320, Note_on_c, 0, 61, 0
1, 37440, Tempo, 855920
1, 37440, Note_on_c, 0, 59, 81
1, 37440, Note_on_c, 0, 64, 96
1, 37440, Note_on_c, 0, 44, 67
1, 37518, Control_c, 0, 64, 127
1, 37560, Note_on_c, 0, 44, 0
1, 37560, Note_on_c, 0, 40, 57
1, 37680, Note_on_c, 0, 40, 0
1, 37680, Note_on_c, 0, 35, 62
1, 37800, Note_on_c, 0, 35, 0
1, 37800, Note_on_c, 0, 40, 57
1, 37920, Note_on_c, 0, 40, 0
1, 37920, Note_on_c, 0, 32, 70
1, 38160, Tempo, 887574
1, 38160, Note_on_c, 0, 32, 0
1, 38160, Note_on_c, 0, 64, 0
1, 38160, Note_on_c, 0, 59, 0
1, 38160, Note_on_c, 0, 64, 70
1, 38160, Note_on_c, 0, 76, 85
1, 38160, Note_on_c, 0, 71, 70
1, 38160, Note_on_c, 0, 32, 60
1, 38160, Note_on_c, 0, 44, 65
1, 38161, Control_c, 0, 64, 0
1, 38280, Note_on_c, 0, 44, 0
1, 38280, Note_on_c, 0, 71, 0
1, 38280, Note_on_c, 0, 64, 0
1, 38280, Note_on_c, 0, 76, 0
1, 38280, Note_on_c, 0, 32, 0
1, 38400, Tempo, 837989
1, 38400, Note_on_c, 0, 64, 66
1, 38400, Note_on_c, 0, 76, 78
1, 38400, Note_on_c, 0, 73, 66
1, 38400, Note_on_c, 0, 70, 66
1, 38400, Note_on_c, 0, 30, 78
1, 38400, Note_on_c, 0, 42, 78
1, 38520, Tempo, 832178
1, 38640, Note_on_c, 0, 42, 0
1, 38640, Note_on_c, 0, 30, 0
1, 38640, Note_on_c, 0, 66, 33
1, 38760, Note_on_c, 0, 66, 0
1, 38760, Note_on_c, 0, 68, 27
1, 38880, Note_on_c, 0, 68, 0
1, 38880, Note_on_c, 0, 66, 33
1, 39000, Note_on_c, 0, 66, 0
1, 39000, Note_on_c, 0, 68, 29
1, 39120, Note_on_c, 0, 68, 0
1, 39120, Note_on_c, 0, 73, 0
1, 39120, Note_on_c, 0, 64, 0
1, 39120, Note_on_c, 0, 76, 0
1, 39120, Note_on_c, 0, 70, 0
1, 39120, Note_on_c, 0, 66, 33
1, 39240, Tempo, 914634
1, 39240, Note_on_c, 0, 66, 0
1, 39240, Note_on_c, 0, 68, 29
1, 39360, Tempo, 826446
1, 39360, Note_on_c, 0, 68, 0
1, 39360, Note_on_c, 0, 76, 53
1, 39360, Note_on_c, 0, 85, 53
1, 39360, Note_on_c, 0, 66, 32
1, 39360, Note_on_c, 0, 61, 41
1, 39360, Note_on_c, 0, 58, 34
1, 39360, Control_c, 0, 64, 0
1, 39480, Note_on_c, 0, 66, 0
1, 39480, Note_on_c, 0, 68, 27
1, 39600, Note_on_c, 0, 68, 0
1, 39600, Note_on_c, 0, 66, 31
1, 39720, Note_on_c, 0, 66, 0
1, 39720, Note_on_c, 0, 68, 26
1, 39840, Note_on_c, 0, 68, 0
1, 39840, Note_on_c, 0, 66, 32
1, 39960, Note_on_c, 0, 66, 0
1, 39960, Note_on_c, 0, 68, 32
1, 40080, Tempo, 862069
1, 40080, Note_on_c, 0, 68, 0
1, 40080, Note_on_c, 0, 58, 0
1, 40080, Note_on_c, 0, 76, 0
1, 40080, Note_on_c, 0, 85, 0
1, 40080, Note_on_c, 0, 61, 0
1, 40080, Note_on_c, 0, 75, 57
1, 40080, Note_on_c, 0, 83, 57
1, 40080, Note_on_c, 0, 66, 33
1, 40080, Note_on_c, 0, 63, 42
1, 40080, Note_on_c, 0, 59, 35
1, 40200, Note_on_c, 0, 66, 0
1, 40200, Note_on_c, 0, 68, 36
1, 40296, Note_on_c, 0, 63, 0
1, 40296, Note_on_c, 0, 59, 0
1, 40296, Note_on_c, 0, 75, 0
1, 40296, Note_on_c, 0, 83, 0
1, 40320, Tempo, 826446
1, 40320, Note_on_c, 0, 68, 0
1, 40320, Note_on_c, 0, 83, 62
1, 40320, Note_on_c, 0, 75, 62
1, 40320, Note_on_c, 0, 66, 37
1, 40320, Note_on_c, 0, 63, 47
1, 40320, Note_on_c, 0, 59, 39
1, 40370, Control_c, 0, 64, 0
1, 40440, Note_on_c, 0, 66, 0
1, 40440, Note_on_c, 0, 68, 29
1, 40560, Note_on_c, 0, 68, 0
1, 40560, Note_on_c, 0, 59, 0
1, 40560, Note_on_c, 0, 83, 0
1, 40560, Note_on_c, 0, 75, 0
1, 40560, Note_on_c, 0, 63, 0
1, 40560, Note_on_c, 0, 73, 48
1, 40560, Note_on_c, 0, 82, 48
1, 40560, Note_on_c, 0, 66, 32
1, 40560, Note_on_c, 0, 64, 41
1, 40560, Note_on_c, 0, 61, 34
1, 40680, Note_on_c, 0, 66, 0
1, 40680, Note_on_c, 0, 68, 28
1, 40776, Note_on_c, 0, 64, 0
1, 40776, Note_on_c, 0, 61, 0
1, 40776, Note_on_c, 0, 73, 0
1, 40776, Note_on_c, 0, 82, 0
1, 40800, Tempo, 832178
1, 40800, Note_on_c, 0, 68, 0
1, 40800, Note_on_c, 0, 82, 47
1, 40800, Note_on_c, 0, 73, 47
1, 40800, Note_on_c, 0, 61, 28
1, 40800, Note_on_c, 0, 64, 33
1, 40800, Note_on_c, 0, 66, 26
1, 40920, Note_on_c, 0, 66, 0
1, 40920, Note_on_c, 0, 68, 24
1, 41040, Tempo, 868307
1, 41040, Note_on_c, 0, 68, 0
1, 41040, Note_on_c, 0, 64, 0
1, 41040, Note_on_c, 0, 82, 0
1, 41040, Note_on_c, 0, 73, 0
1, 41040, Note_on_c, 0, 61, 0
1, 41040, Note_on_c, 0, 75, 39
1, 41040, Note_on_c, 0, 83, 39
1, 41040, Note_on_c, 0, 59, 28
1, 41040, Note_on_c, 0, 63, 33
1, 41040, Note_on_c, 0, 66, 26
1, 41160, Note_on_c, 0, 66, 0
1, 41160, Note_on_c, 0, 68, 24
1, 41280, Tempo, 832178
1, 41280, Note_on_c, 0, 68, 0
1, 41280, Note_on_c, 0, 63, 0
1, 41280, Note_on_c, 0, 75, 0
1, 41280, Note_on_c, 0, 83, 0
1, 41280, Note_on_c, 0, 59, 0
1, 41280, Note_on_c, 0, 76, 53
1, 41280, Note_on_c, 0, 85, 53
1, 41280, Note_on_c, 0, 66, 32
1, 41280, Note_on_c, 0, 61, 41
1, 41280, Note_on_c, 0, 58, 34
1, 41280, Control_c, 0, 64, 0
1, 41400, Note_on_c, 0, 66, 0
1, 41400, Note_on_c, 0, 68, 27
1, 41520, Note_on_c, 0, 68, 0
1, 41520, Note_on_c, 0, 66, 31
1, 41640, Note_on_c, 0, 66, 0
1, 41640, Note_on_c, 0, 68, 26
1, 41760, Note_on_c, 0, 68, 0
1, 41760, Note_on_c, 0, 66, 32
1, 41880, Note_on_c, 0, 66, 0
1, 41880, Note_on_c, 0, 68, 32
1, 42000, Tempo, 862069
1, 42000, Note_on_c, 0, 68, 0
1, 42000, Note_on_c, 0, 58, 0
1, 42000, Note_on_c, 0, 76, 0
1, 42000, Note_on_c, 0, 85, 0
1, 42000, Note_on_c, 0, 61, 0
1, 42000, Note_on_c, 0, 75, 57
1, 42000, Note_on_c, 0, 83, 57
1, 42000, Note_on_c, 0, 66, 33
1, 42000, Note_on_c, 0, 63, 42
1, 42000, Note_on_c, 0, 59, 35
1, 42120, Note_on_c, 0, 66, 0
1, 42120, Note_on_c, 0, 68, 36
1, 42216, Note_on_c, 0, 63, 0
1, 42216, Note_on_c, 0, 59, 0
1, 42216, Note_on_c, 0, 75, 0
1, 42216, Note_on_c, 0, 83, 0
1, 42240, Tempo, 826446
1, 42240, Note_on_c, 0, 68, 0
1, 42240, Note_on_c, 0, 82, 62
1, 42240, Note_on_c, 0, 73, 62
1, 42240, Note_on_c, 0, 66, 37
1, 42240, Note_on_c, 0, 64, 47
1, 42240, Note_on_c, 0, 61, 39
1, 42290, Control_c, 0, 64, 0
1, 42360, Note_on_c, 0, 66, 0
1, 42360, Note_on_c, 0, 68, 29
1, 42480, Note_on_c, 0, 68, 0
1, 42480, Note_on_c, 0, 61, 0
1, 42480, Note_on_c, 0, 82, 0
1, 42480, Note_on_c, 0, 73, 0
1, 42480, Note_on_c, 0, 64, 0
1, 42480, Note_on_c, 0, 85, 48
1, 42480, Note_on_c, 0, 76, 48
1, 42480, Note_on_c, 0, 66, 32
1, 42480, Note_on_c, 0, 61, 41
1, 42480, Note_on_c, 0, 58, 34
1, 42600, Note_on_c, 0, 66, 0
1, 42600, Note_on_c, 0, 68, 28
1, 42696, Note_on_c, 0, 61, 0
1, 42696, Note_on_c, 0, 58, 0
1, 42720, Tempo, 832178
1, 42720, Note_on_c, 0, 85, 0
1, 42720, Note_on_c, 0, 76, 0
1, 42720, Note_on_c, 0, 68, 0
1, 42720, Note_on_c, 0, 83, 47
1, 42720, Note_on_c, 0, 75, 47
1, 42720, Note_on_c, 0, 59, 28
1, 42720, Note_on_c, 0, 63, 33
1, 42720, Note_on_c, 0, 66, 26
1, 42840, Note_on_c, 0, 66, 0
1, 42840, Note_on_c, 0, 68, 24
1, 42960, Tempo, 868307
1, 42960, Note_on_c, 0, 68, 0
1, 42960, Note_on_c, 0, 63, 0
1, 42960, Note_on_c, 0, 83, 0
1, 42960, Note_on_c, 0, 75, 0
1, 42960, Note_on_c, 0, 59, 0
1, 42960, Note_on_c, 0, 73, 39
1, 42960, Note_on_c, 0, 82, 39
1, 42960, Note_on_c, 0, 61, 28
1, 42960, Note_on_c, 0, 64, 33
1, 42960, Note_on_c, 0, 66, 26
1, 43080, Note_on_c, 0, 66, 0
1, 43080, Note_on_c, 0, 68, 24
1, 43200, Note_on_c, 0, 68, 0
1, 43200, Note_on_c, 0, 64, 0
1, 43200, Note_on_c, 0, 73, 0
1, 43200, Note_on_c, 0, 82, 0
1, 43200, Note_on_c, 0, 61, 0
1, 43200, Note_on_c, 0, 83, 39
1, 43200, Note_on_c, 0, 78, 39
1, 43200, Note_on_c, 0, 63, 28
1, 43200, Note_on_c, 0, 66, 33
1, 43236, Control_c, 0, 64, 127
1, 43320, Note_on_c, 0, 66, 0
1, 43320, Note_on_c, 0, 71, 27
1, 43440, Tempo, 832178
1, 43440, Note_on_c, 0, 71, 0
1, 43440, Note_on_c, 0, 63, 0
1, 43440, Note_on_c, 0, 78, 0
1, 43440, Note_on_c, 0, 83, 0
1, 43440, Note_on_c, 0, 82, 34
1, 43440, Note_on_c, 0, 66, 31
1, 43447, Control_c, 0, 64, 0
1, 43504, Control_c, 0, 64, 127
1, 43560, Note_on_c, 0, 66, 0
1, 43560, Note_on_c, 0, 71, 27
1, 43680, Note_on_c, 0, 71, 0
1, 43680, Note_on_c, 0, 82, 0
1, 43680, Note_on_c, 0, 80, 39
1, 43680, Note_on_c, 0, 64, 33
1, 43687, Control_c, 0, 64, 0
1, 43758, Control_c, 0, 64, 127
1, 43800, Note_on_c, 0, 64, 0
1, 43800, Note_on_c, 0, 71, 26
1, 43920, Tempo, 849858
1, 43920, Note_on_c, 0, 71, 0
1, 43920, Note_on_c, 0, 80, 0
1, 43920, Note_on_c, 0, 78, 35
1, 43920, Note_on_c, 0, 63, 30
1, 43934, Control_c, 0, 64, 0
1, 43998, Control_c, 0, 64, 127
1, 44040, Tempo, 914634
1, 44040, Note_on_c, 0, 63, 0
1, 44040, Note_on_c, 0, 71, 27
1, 44160, Tempo, 832178
1, 44160, Note_on_c, 0, 71, 0
1, 44160, Note_on_c, 0, 78, 0
1, 44160, Note_on_c, 0, 80, 39
1, 44160, Note_on_c, 0, 64, 33
1, 44183, Control_c, 0, 64, 0
1, 44229, Control_c, 0, 64, 127
1, 44280, Note_on_c, 0, 64, 0
1, 44280, Note_on_c, 0, 71, 26
1, 44400, Note_on_c, 0, 71, 0
1, 44400, Note_on_c, 0, 80, 0
1, 44400, Note_on_c, 0, 78, 37
1, 44400, Note_on_c, 0, 66, 31
1, 44416, Control_c, 0, 64, 0
1, 44463, Control_c, 0, 64, 127
1, 44520, Note_on_c, 0, 66, 0
1, 44520, Note_on_c, 0, 71, 25
1, 44640, Note_on_c, 0, 71, 0
1, 44640, Note_on_c, 0, 78, 0
1, 44640, Note_on_c, 0, 76, 39
1, 44640, Note_on_c, 0, 68, 33
1, 44659, Control_c, 0, 64, 0
1, 44692, Control_c, 0, 64, 127
1, 44760, Tempo, 849858
1, 44760, Note_on_c, 0, 68, 0
1, 44760, Note_on_c, 0, 71, 25
1, 44880, Note_on_c, 0, 71, 0
1, 44880, Note_on_c, 0, 76, 0
1, 44880, Note_on_c, 0, 75, 34
1, 44880, Note_on_c, 0, 65, 30
1, 44886, Control_c, 0, 64, 0
1, 44937, Control_c, 0, 64, 127
1, 45000, Tempo, 907716
1, 45000, Note_on_c, 0, 65, 0
1, 45000, Note_on_c, 0, 71, 27
1, 45110, Note_on_c, 0, 75, 0
1, 45120, Tempo, 837989
1, 45120, Note_on_c, 0, 71, 0
1, 45120, Note_on_c, 0, 75, 39
1, 45120, Note_on_c, 0, 66, 33
1, 45127, Control_c, 0, 64, 0
1, 45240, Note_on_c, 0, 68, 27
1, 45360, Note_on_c, 0, 68, 0
1, 45360, Note_on_c, 0, 70, 32
1, 45480, Note_on_c, 0, 70, 0
1, 45480, Note_on_c, 0, 71, 26
1, 45600, Tempo, 849858
1, 45600, Note_on_c, 0, 71, 0
1, 45600, Note_on_c, 0, 70, 31
1, 45720, Note_on_c, 0, 70, 0
1, 45720, Note_on_c, 0, 71, 27
1, 45840, Tempo, 887574
1, 45840, Note_on_c, 0, 71, 0
1, 45840, Note_on_c, 0, 75, 0
1, 45840, Note_on_c, 0, 76, 38
1, 45840, Note_on_c, 0, 73, 29
1, 45960, Tempo, 936037
1, 45960, Note_on_c, 0, 73, 0
1, 45960, Note_on_c, 0, 76, 0
1, 45960, Note_on_c, 0, 78, 33
1, 45960, Note_on_c, 0, 75, 27
1, 46080, Tempo, 868307
1, 46080, Note_on_c, 0, 75, 0
1, 46080, Note_on_c, 0, 78, 0
1, 46080, Note_on_c, 0, 66, 0
1, 46080, Note_on_c, 0, 73, 39
1, 46080, Note_on_c, 0, 70, 33
1, 46080, Note_on_c, 0, 66, 33
1, 46320, Tempo, 837989
1, 46320, Note_on_c, 0, 66, 0
1, 46320, Note_on_c, 0, 70, 0
1, 46320, Note_on_c, 0, 73, 0
1, 46320, Note_on_c, 0, 78, 39
1, 46320, Note_on_c, 0, 68, 33
1, 46323, Tempo, 855920
1, 46413, Tempo, 849858
1, 46440, Note_on_c, 0, 68, 0
1, 46440, Note_on_c, 0, 78, 0
1, 46440, Note_on_c, 0, 80, 34
1, 46440, Note_on_c, 0, 66, 30
1, 46503, Tempo, 843882
1, 46560, Note_on_c, 0, 66, 0
1, 46560, Note_on_c, 0, 80, 0
1, 46560, Note_on_c, 0, 78, 39
1, 46560, Note_on_c, 0, 68, 33
1, 46563, Tempo, 837989
1, 46680, Tempo, 874636
1, 46680, Note_on_c, 0, 68, 0
1, 46680, Note_on_c, 0, 78, 0
1, 46680, Note_on_c, 0, 80, 35
1, 46680, Note_on_c, 0, 66, 29
1, 46800, Note_on_c, 0, 66, 0
1, 46800, Note_on_c, 0, 80, 0
1, 46800, Note_on_c, 0, 78, 39
1, 46800, Note_on_c, 0, 68, 33
1, 46920, Tempo, 914634
1, 46920, Note_on_c, 0, 68, 0
1, 46920, Note_on_c, 0, 78, 0
1, 46920, Note_on_c, 0, 80, 35
1, 46920, Note_on_c, 0, 66, 33
1, 47040, Tempo, 826446
1, 47040, Note_on_c, 0, 66, 0
1, 47040, Note_on_c, 0, 80, 0
1, 47040, Note_on_c, 0, 85, 53
1, 47040, Note_on_c, 0, 88, 53
1, 47040, Note_on_c, 0, 78, 39
1, 47040, Note_on_c, 0, 68, 32
1, 47040, Note_on_c, 0, 61, 41
1, 47040, Note_on_c, 0, 58, 34
1, 47040, Control_c, 0, 64, 0
1, 47160, Note_on_c, 0, 68, 0
1, 47160, Note_on_c, 0, 78, 0
1, 47160, Note_on_c, 0, 80, 35
1, 47160, Note_on_c, 0, 66, 27
1, 47280, Note_on_c, 0, 66, 0
1, 47280, Note_on_c, 0, 80, 0
1, 47280, Note_on_c, 0, 78, 39
1, 47280, Note_on_c, 0, 68, 31
1, 47400, Note_on_c, 0, 68, 0
1, 47400, Note_on_c, 0, 78, 0
1, 47400, Note_on_c, 0, 80, 35
1, 47400, Note_on_c, 0, 66, 26
1, 47520, Note_on_c, 0, 66, 0
1, 47520, Note_on_c, 0, 80, 0
1, 47520, Note_on_c, 0, 78, 39
1, 47520, Note_on_c, 0, 68, 32
1, 47640, Note_on_c, 0, 68, 0
1, 47640, Note_on_c, 0, 78, 0
1, 47640, Note_on_c, 0, 80, 37
1, 47640, Note_on_c, 0, 66, 32
1, 47760, Tempo, 862069
1, 47760, Note_on_c, 0, 66, 0
1, 47760, Note_on_c, 0, 58, 0
1, 47760, Note_on_c, 0, 88, 0
1, 47760, Note_on_c, 0, 85, 0
1, 47760, Note_on_c, 0, 80, 0
1, 47760, Note_on_c, 0, 61, 0
1, 47760, Note_on_c, 0, 87, 57
1, 47760, Note_on_c, 0, 83, 57
1, 47760, Note_on_c, 0, 78, 43
1, 47760, Note_on_c, 0, 68, 33
1, 47760, Note_on_c, 0, 63, 42
1, 47760, Note_on_c, 0, 59, 35
1, 47880, Note_on_c, 0, 68, 0
1, 47880, Note_on_c, 0, 78, 0
1, 47880, Note_on_c, 0, 80, 41
1, 47880, Note_on_c, 0, 66, 36
1, 47976, Note_on_c, 0, 63, 0
1, 47976, Note_on_c, 0, 83, 0
1, 47976, Note_on_c, 0, 87, 0
1, 47976, Note_on_c, 0, 59, 0
1, 48000, Tempo, 826446
1, 48000, Note_on_c, 0, 66, 0
1, 48000, Note_on_c, 0, 80, 0
1, 48000, Note_on_c, 0, 87, 62
1, 48000, Note_on_c, 0, 83, 62
1, 48000, Note_on_c, 0, 78, 48
1, 48000, Note_on_c, 0, 68, 37
1, 48000, Note_on_c, 0, 63, 47
1, 48000, Note_on_c, 0, 59, 39
1, 48050, Control_c, 0, 64, 0
1, 48120, Note_on_c, 0, 68, 0
1, 48120, Note_on_c, 0, 78, 0
1, 48120, Note_on_c, 0, 80, 42
1, 48120, Note_on_c, 0, 66, 29
1, 48240, Note_on_c, 0, 66, 0
1, 48240, Note_on_c, 0, 59, 0
1, 48240, Note_on_c, 0, 83, 0
1, 48240, Note_on_c, 0, 87, 0
1, 48240, Note_on_c, 0, 80, 0
1, 48240, Note_on_c, 0, 63, 0
1, 48240, Note_on_c, 0, 82, 48
1, 48240, Note_on_c, 0, 85, 48
1, 48240, Note_on_c, 0, 78, 46
1, 48240, Note_on_c, 0, 68, 32
1, 48240, Note_on_c, 0, 64, 41
1, 48240, Note_on_c, 0, 61, 34
1, 48360, Note_on_c, 0, 68, 0
1, 48360, Note_on_c, 0, 78, 0
1, 48360, Note_on_c, 0, 80, 40
1, 48360, Note_on_c, 0, 66, 28
1, 48456, Note_on_c, 0, 64, 0
1, 48456, Note_on_c, 0, 85, 0
1, 48456, Note_on_c, 0, 82, 0
1, 48456, Note_on_c, 0, 61, 0
1, 48480, Tempo, 832178
1, 48480, Note_on_c, 0, 66, 0
1, 48480, Note_on_c, 0, 80, 0
1, 48480, Note_on_c, 0, 85, 47
1, 48480, Note_on_c, 0, 78, 44
1, 48480, Note_on_c, 0, 82, 47
1, 48480, Note_on_c, 0, 61, 28
1, 48480, Note_on_c, 0, 64, 33
1, 48480, Note_on_c, 0, 68, 26
1, 48600, Note_on_c, 0, 68, 0
1, 48600, Note_on_c, 0, 78, 0
1, 48600, Note_on_c, 0, 80, 38
1, 48600, Note_on_c, 0, 66, 24
1, 48720, Tempo, 868307
1, 48720, Note_on_c, 0, 66, 0
1, 48720, Note_on_c, 0, 82, 0
1, 48720, Note_on_c, 0, 64, 0
1, 48720, Note_on_c, 0, 85, 0
1, 48720, Note_on_c, 0, 80, 0
1, 48720, Note_on_c, 0, 61, 0
1, 48720, Note_on_c, 0, 87, 39
1, 48720, Note_on_c, 0, 83, 39
1, 48720, Note_on_c, 0, 78, 41
1, 48720, Note_on_c, 0, 59, 28
1, 48720, Note_on_c, 0, 63, 33
1, 48720, Note_on_c, 0, 68, 26
1, 48840, Note_on_c, 0, 68, 0
1, 48840, Note_on_c, 0, 78, 0
1, 48840, Note_on_c, 0, 80, 36
1, 48840, Note_on_c, 0, 66, 24
1, 48960, Tempo, 837989
1, 48960, Note_on_c, 0, 66, 0
1, 48960, Note_on_c, 0, 83, 0
1, 48960, Note_on_c, 0, 63, 0
1, 48960, Note_on_c, 0, 87, 0
1, 48960, Note_on_c, 0, 80, 0
1, 48960, Note_on_c, 0, 59, 0
1, 48960, Note_on_c, 0, 88, 53
1, 48960, Note_on_c, 0, 85, 53
1, 48960, Note_on_c, 0, 78, 39
1, 48960, Note_on_c, 0, 68, 32
1, 48960, Note_on_c, 0, 61, 41
1, 48960, Note_on_c, 0, 58, 34
1, 48960, Control_c, 0, 64, 0
1, 49080, Tempo, 826446
1, 49080, Note_on_c, 0, 68, 0
1, 49080, Note_on_c, 0, 78, 0
1, 49080, Note_on_c, 0, 80, 36
1, 49080, Note_on_c, 0, 66, 27
1, 49200, Note_on_c, 0, 66, 0
1, 49200, Note_on_c, 0, 80, 0
1, 49200, Note_on_c, 0, 78, 41
1, 49200, Note_on_c, 0, 68, 31
1, 49320, Note_on_c, 0, 68, 0
1, 49320, Note_on_c, 0, 78, 0
1, 49320, Note_on_c, 0, 80, 38
1, 49320, Note_on_c, 0, 66, 26
1, 49440, Note_on_c, 0, 66, 0
1, 49440, Note_on_c, 0, 80, 0
1, 49440, Note_on_c, 0, 78, 43
1, 49440, Note_on_c, 0, 68, 32
1, 49560, Note_on_c, 0, 68, 0
1, 49560, Note_on_c, 0, 78, 0
1, 49560, Note_on_c, 0, 80, 40
1, 49560, Note_on_c, 0, 66, 32
1, 49680, Tempo, 862069
1, 49680, Note_on_c, 0, 66, 0
1, 49680, Note_on_c, 0, 58, 0
1, 49680, Note_on_c, 0, 85, 0
1, 49680, Note_on_c, 0, 88, 0
1, 49680, Note_on_c, 0, 80, 0
1, 49680, Note_on_c, 0, 61, 0
1, 49680, Note_on_c, 0, 78, 46
1, 49680, Note_on_c, 0, 87, 57
1, 49680, Note_on_c, 0, 83, 57
1, 49680, Note_on_c, 0, 68, 33
1, 49680, Note_on_c, 0, 63, 42
1, 49680, Note_on_c, 0, 59, 35
1, 49800, Note_on_c, 0, 68, 0
1, 49800, Note_on_c, 0, 78, 0
1, 49800, Note_on_c, 0, 80, 42
1, 49800, Note_on_c, 0, 66, 36
1, 49896, Note_on_c, 0, 63, 0
1, 49896, Note_on_c, 0, 83, 0
1, 49896, Note_on_c, 0, 87, 0
1, 49896, Note_on_c, 0, 59, 0
1, 49920, Tempo, 855920
1, 49920, Note_on_c, 0, 66, 0
1, 49920, Note_on_c, 0, 80, 0
1, 49920, Note_on_c, 0, 85, 62
1, 49920, Note_on_c, 0, 82, 62
1, 49920, Note_on_c, 0, 64, 32
1, 49920, Note_on_c, 0, 61, 39
1, 49933, Control_c, 0, 64, 0
1, 50023, Control_c, 0, 64, 127
1, 50040, Note_on_c, 0, 64, 0
1, 50040, Note_on_c, 0, 82, 0
1, 50040, Note_on_c, 0, 78, 36
1, 50040, Note_on_c, 0, 66, 29
1, 50160, Tempo, 832178
1, 50160, Note_on_c, 0, 66, 0
1, 50160, Note_on_c, 0, 61, 0
1, 50160, Note_on_c, 0, 85, 0
1, 50160, Note_on_c, 0, 78, 0
1, 50160, Note_on_c, 0, 92, 48
1, 50160, Note_on_c, 0, 88, 48
1, 50160, Note_on_c, 0, 58, 41
1, 50160, Note_on_c, 0, 54, 34
1, 50170, Control_c, 0, 64, 0
1, 50229, Control_c, 0, 64, 127
1, 50268, Note_on_c, 0, 54, 0
1, 50268, Note_on_c, 0, 58, 0
1, 50280, Note_on_c, 0, 88, 0
1, 50280, Note_on_c, 0, 78, 36
1, 50280, Note_on_c, 0, 66, 28
1, 50400, Tempo, 832178
1, 50400, Note_on_c, 0, 66, 0
1, 50400, Note_on_c, 0, 78, 0
1, 50400, Note_on_c, 0, 92, 0
1, 50400, Note_on_c, 0, 90, 47
1, 50400, Note_on_c, 0, 87, 47
1, 50400, Note_on_c, 0, 56, 28
1, 50400, Note_on_c, 0, 59, 33
1, 50405, Control_c, 0, 64, 0
1, 50452, Control_c, 0, 64, 127
1, 50520, Note_on_c, 0, 59, 0
1, 50520, Note_on_c, 0, 56, 0
1, 50520, Note_on_c, 0, 87, 0
1, 50520, Note_on_c, 0, 78, 36
1, 50520, Note_on_c, 0, 66, 24
1, 50640, Tempo, 849858
1, 50640, Note_on_c, 0, 66, 0
1, 50640, Note_on_c, 0, 78, 0
1, 50640, Note_on_c, 0, 90, 0
1, 50640, Note_on_c, 0, 85, 39
1, 50640, Note_on_c, 0, 88, 39
1, 50640, Note_on_c, 0, 58, 28
1, 50640, Note_on_c, 0, 61, 33
1, 50652, Control_c, 0, 64, 0
1, 50697, Control_c, 0, 64, 127
1, 50760, Note_on_c, 0, 61, 0
1, 50760, Note_on_c, 0, 58, 0
1, 50760, Note_on_c, 0, 85, 0
1, 50760, Note_on_c, 0, 78, 36
1, 50760, Note_on_c, 0, 66, 24
1, 50880, Tempo, 826446
1, 50880, Note_on_c, 0, 66, 0
1, 50880, Note_on_c, 0, 78, 0
1, 50880, Note_on_c, 0, 88, 0
1, 50880, Note_on_c, 0, 87, 62
1, 50880, Note_on_c, 0, 83, 62
1, 50880, Note_on_c, 0, 63, 32
1, 50880, Note_on_c, 0, 59, 39
1, 50893, Control_c, 0, 64, 0
1, 50983, Control_c, 0, 64, 127
1, 51000, Tempo, 826446
1, 51000, Note_on_c, 0, 59, 0
1, 51000, Note_on_c, 0, 63, 0
1, 51000, Note_on_c, 0, 83, 0
1, 51000, Note_on_c, 0, 78, 35
1, 51000, Note_on_c, 0, 66, 28
1, 51120, Tempo, 820793
1, 51120, Note_on_c, 0, 66, 0
1, 51120, Note_on_c, 0, 78, 0
1, 51120, Note_on_c, 0, 87, 0
1, 51120, Note_on_c, 0, 90, 47
1, 51120, Note_on_c, 0, 87, 47
1, 51120, Note_on_c, 0, 59, 40
1, 51120, Note_on_c, 0, 56, 33
1, 51130, Control_c, 0, 64, 0
1, 51189, Control_c, 0, 64, 127
1, 51228, Note_on_c, 0, 56, 0
1, 51228, Note_on_c, 0, 59, 0
1, 51240, Note_on_c, 0, 87, 0
1, 51240, Note_on_c, 0, 78, 34
1, 51240, Note_on_c, 0, 66, 27
1, 51360, Tempo, 832178
1, 51360, Note_on_c, 0, 66, 0
1, 51360, Note_on_c, 0, 78, 0
1, 51360, Note_on_c, 0, 90, 0
1, 51360, Note_on_c, 0, 88, 45
1, 51360, Note_on_c, 0, 85, 45
1, 51360, Note_on_c, 0, 58, 26
1, 51360, Note_on_c, 0, 61, 31
1, 51365, Control_c, 0, 64, 0
1, 51412, Control_c, 0, 64, 127
1, 51480, Note_on_c, 0, 61, 0
1, 51480, Note_on_c, 0, 58, 0
1, 51480, Note_on_c, 0, 85, 0
1, 51480, Note_on_c, 0, 78, 34
1, 51480, Note_on_c, 0, 66, 22
1, 51600, Tempo, 855920
1, 51600, Note_on_c, 0, 66, 0
1, 51600, Note_on_c, 0, 78, 0
1, 51600, Note_on_c, 0, 88, 0
1, 51600, Note_on_c, 0, 83, 36
1, 51600, Note_on_c, 0, 87, 36
1, 51600, Note_on_c, 0, 59, 26
1, 51600, Note_on_c, 0, 63, 31
1, 51612, Control_c, 0, 64, 0
1, 51657, Control_c, 0, 64, 127
1, 51720, Tempo, 843882
1, 51720, Note_on_c, 0, 63, 0
1, 51720, Note_on_c, 0, 59, 0
1, 51720, Note_on_c, 0, 83, 0
1, 51720, Note_on_c, 0, 78, 33
1, 51720, Note_on_c, 0, 66, 22
1, 51840, Tempo, 837989
1, 51840, Note_on_c, 0, 66, 0
1, 51840, Note_on_c, 0, 78, 0
1, 51840, Note_on_c, 0, 87, 0
1, 51840, Note_on_c, 0, 85, 57
1, 51840, Note_on_c, 0, 82, 57
1, 51840, Note_on_c, 0, 64, 29
1, 51840, Note_on_c, 0, 61, 35
1, 51853, Control_c, 0, 64, 0
1, 51943, Control_c, 0, 64, 127
1, 51960, Note_on_c, 0, 61, 0
1, 51960, Note_on_c, 0, 64, 0
1, 51960, Note_on_c, 0, 82, 0
1, 51960, Note_on_c, 0, 78, 32
1, 51960, Note_on_c, 0, 66, 26
1, 52080, Tempo, 820793
1, 52080, Note_on_c, 0, 66, 0
1, 52080, Note_on_c, 0, 78, 0
1, 52080, Note_on_c, 0, 85, 0
1, 52080, Note_on_c, 0, 88, 43
1, 52080, Note_on_c, 0, 85, 43
1, 52080, Note_on_c, 0, 61, 36
1, 52080, Note_on_c, 0, 58, 30
1, 52090, Control_c, 0, 64, 0
1, 52149, Control_c, 0, 64, 127
1, 52188, Note_on_c, 0, 58, 0
1, 52188, Note_on_c, 0, 61, 0
1, 52200, Note_on_c, 0, 85, 0
1, 52200, Note_on_c, 0, 78, 32
1, 52200, Note_on_c, 0, 66, 24
1, 52320, Tempo, 832178
1, 52320, Note_on_c, 0, 66, 0
1, 52320, Note_on_c, 0, 78, 0
1, 52320, Note_on_c, 0, 88, 0
1, 52320, Note_on_c, 0, 87, 41
1, 52320, Note_on_c, 0, 83, 41
1, 52320, Note_on_c, 0, 59, 24
1, 52320, Note_on_c, 0, 63, 29
1, 52325, Control_c, 0, 64, 0
1, 52372, Control_c, 0, 64, 127
1, 52440, Note_on_c, 0, 63, 0
1, 52440, Note_on_c, 0, 59, 0
1, 52440, Note_on_c, 0, 83, 0
1, 52440, Note_on_c, 0, 78, 31
1, 52440, Note_on_c, 0, 66, 20
1, 52560, Tempo, 849858
1, 52560, Note_on_c, 0, 66, 0
1, 52560, Note_on_c, 0, 78, 0
1, 52560, Note_on_c, 0, 87, 0
1, 52560, Note_on_c, 0, 82, 33
1, 52560, Note_on_c, 0, 85, 33
1, 52560, Note_on_c, 0, 61, 24
1, 52560, Note_on_c, 0, 64, 28
1, 52572, Control_c, 0, 64, 0
1, 52617, Control_c, 0, 64, 127
1, 52680, Note_on_c, 0, 64, 0
1, 52680, Note_on_c, 0, 61, 0
1, 52680, Note_on_c, 0, 82, 0
1, 52680, Note_on_c, 0, 78, 30
1, 52680, Note_on_c, 0, 66, 20
1, 52800, Tempo, 855920
1, 52800, Note_on_c, 0, 66, 0
1, 52800, Note_on_c, 0, 78, 0
1, 52800, Note_on_c, 0, 85, 0
1, 52800, Note_on_c, 0, 83, 52
1, 52800, Note_on_c, 0, 63, 26
1, 52813, Control_c, 0, 64, 0
1, 52903, Control_c, 0, 64, 127
1, 52920, Note_on_c, 0, 63, 0
1, 52920, Note_on_c, 0, 78, 29
1, 52920, Note_on_c, 0, 66, 24
1, 53040, Tempo, 837989
1, 53040, Note_on_c, 0, 66, 0
1, 53040, Note_on_c, 0, 78, 0
1, 53040, Note_on_c, 0, 83, 0
1, 53040, Note_on_c, 0, 81, 39
1, 53040, Note_on_c, 0, 63, 33
1, 53050, Control_c, 0, 64, 0
1, 53109, Control_c, 0, 64, 127
1, 53148, Note_on_c, 0, 63, 0
1, 53160, Note_on_c, 0, 72, 29
1, 53160, Note_on_c, 0, 66, 22
1, 53280, Tempo, 868307
1, 53280, Note_on_c, 0, 66, 0
1, 53280, Note_on_c, 0, 72, 0
1, 53280, Note_on_c, 0, 81, 0
1, 53280, Note_on_c, 0, 80, 37
1, 53280, Note_on_c, 0, 63, 26
1, 53285, Control_c, 0, 64, 0
1, 53332, Control_c, 0, 64, 127
1, 53400, Note_on_c, 0, 63, 0
1, 53400, Note_on_c, 0, 72, 28
1, 53400, Note_on_c, 0, 66, 18
1, 53520, Tempo, 914634
1, 53520, Note_on_c, 0, 66, 0
1, 53520, Note_on_c, 0, 72, 0
1, 53520, Note_on_c, 0, 80, 0
1, 53520, Note_on_c, 0, 80, 30
1, 53520, Note_on_c, 0, 63, 25
1, 53640, Note_on_c, 0, 63, 0
1, 53640, Note_on_c, 0, 72, 27
1, 53640, Note_on_c, 0, 66, 18
1, 53760, Note_on_c, 0, 66, 0
1, 53760, Note_on_c, 0, 72, 0
1, 53760, Note_on_c, 0, 80, 0
1, 53760, Note_on_c, 0, 80, 39
1, 53760, Note_on_c, 0, 72, 39
1, 53760, Note_on_c, 0, 63, 24
1, 53760, Note_on_c, 0, 66, 24
1, 53760, Control_c, 0, 64, 0
1, 53880, Tempo, 849858
1, 53880, Note_on_c, 0, 72, 0
1, 53880, Note_on_c, 0, 80, 0
1, 53880, Note_on_c, 0, 68, 33
1, 54000, Note_on_c, 0, 68, 0
1, 54000, Note_on_c, 0, 63, 0
1, 54000, Note_on_c, 0, 66, 0
1, 54000, Note_on_c, 0, 70, 34
1, 54120, Tempo, 900901
1, 54120, Note_on_c, 0, 70, 0
1, 54120, Note_on_c, 0, 72, 37
1, 54210, Note_on_c, 0, 72, 0
1, 54210, Note_on_c, 0, 75, 35
1, 54240, Tempo, 855920
1, 54240, Note_on_c, 0, 75, 0
1, 54240, Note_on_c, 0, 73, 39
1, 54360, Note_on_c, 0, 73, 0
1, 54360, Note_on_c, 0, 72, 32
1, 54360, Note_on_c, 0, 56, 27
1, 54480, Note_on_c, 0, 56, 0
1, 54480, Note_on_c, 0, 72, 0
1, 54480, Note_on_c, 0, 73, 35
1, 54480, Note_on_c, 0, 58, 29
1, 54600, Tempo, 928793
1, 54600, Note_on_c, 0, 58, 0
1, 54600, Note_on_c, 0, 73, 0
1, 54600, Note_on_c, 0, 75, 32
1, 54600, Note_on_c, 0, 60, 27
1, 54720, Tempo, 868307
1, 54720, Note_on_c, 0, 60, 0
1, 54720, Note_on_c, 0, 75, 0
1, 54720, Note_on_c, 0, 76, 39
1, 54720, Note_on_c, 0, 61, 33
1, 54840, Note_on_c, 0, 61, 0
1, 54840, Note_on_c, 0, 76, 0
1, 54840, Note_on_c, 0, 72, 33
1, 54840, Note_on_c, 0, 56, 28
1, 54960, Note_on_c, 0, 56, 0
1, 54960, Note_on_c, 0, 72, 0
1, 54960, Note_on_c, 0, 73, 35
1, 54960, Note_on_c, 0, 58, 29
1, 55080, Tempo, 907716
1, 55080, Note_on_c, 0, 58, 0
1, 55080, Note_on_c, 0, 73, 0
1, 55080, Note_on_c, 0, 75, 32
1, 55080, Note_on_c, 0, 60, 27
1, 55170, Note_on_c, 0, 60, 0
1, 55170, Note_on_c, 0, 75, 0
1, 55170, Note_on_c, 0, 78, 32
1, 55170, Note_on_c, 0, 63, 27
1, 55200, Tempo, 843882
1, 55200, Note_on_c, 0, 63, 0
1, 55200, Note_on_c, 0, 78, 0
1, 55200, Note_on_c, 0, 76, 41
1, 55200, Note_on_c, 0, 61, 34
1, 55320, Note_on_c, 0, 61, 0
1, 55320, Note_on_c, 0, 76, 0
1, 55320, Note_on_c, 0, 75, 33
1, 55320, Note_on_c, 0, 60, 28
1, 55440, Tempo, 881057
1, 55440, Note_on_c, 0, 60, 0
1, 55440, Note_on_c, 0, 75, 0
1, 55440, Note_on_c, 0, 76, 35
1, 55440, Note_on_c, 0, 61, 29
1, 55560, Tempo, 881057
1, 55560, Note_on_c, 0, 61, 0
1, 55560, Note_on_c, 0, 76, 0
1, 55560, Note_on_c, 0, 78, 32
1, 55560, Note_on_c, 0, 63, 27
1, 55680, Tempo, 843882
1, 55680, Note_on_c, 0, 63, 0
1, 55680, Note_on_c, 0, 78, 0
1, 55680, Note_on_c, 0, 80, 42
1, 55680, Note_on_c, 0, 64, 35
1, 55800, Note_on_c, 0, 64, 0
1, 55800, Note_on_c, 0, 80, 0
1, 55800, Note_on_c, 0, 78, 35
1, 55800, Note_on_c, 0, 63, 29
1, 55920, Note_on_c, 0, 63, 0
1, 55920, Note_on_c, 0, 78, 0
1, 55920, Note_on_c, 0, 76, 35
1, 55920, Note_on_c, 0, 64, 29
1, 56040, Tempo, 887574
1, 56040, Note_on_c, 0, 64, 0
1, 56040, Note_on_c, 0, 76, 0
1, 56040, Note_on_c, 0, 75, 34
1, 56040, Note_on_c, 0, 66, 28
1, 56160, Tempo, 849858
1, 56160, Note_on_c, 0, 66, 0
1, 56160, Note_on_c, 0, 75, 0
1, 56160, Note_on_c, 0, 76, 41
1, 56160, Note_on_c, 0, 68, 34
1, 56280, Note_on_c, 0, 68, 0
1, 56280, Note_on_c, 0, 76, 0
1, 56280, Note_on_c, 0, 75, 35
1, 56280, Note_on_c, 0, 66, 29
1, 56400, Note_on_c, 0, 66, 0
1, 56400, Note_on_c, 0, 75, 0
1, 56400, Note_on_c, 0, 73, 35
1, 56400, Note_on_c, 0, 64, 29
1, 56520, Tempo, 928793
1, 56520, Note_on_c, 0, 64, 0
1, 56520, Note_on_c, 0, 73, 0
1, 56520, Note_on_c, 0, 80, 34
1, 56520, Note_on_c, 0, 65, 28
1, 56640, Tempo, 868307
1, 56640, Note_on_c, 0, 65, 0
1, 56640, Note_on_c, 0, 80, 0
1, 56640, Note_on_c, 0, 75, 40
1, 56640, Note_on_c, 0, 66, 34
1, 56760, Note_on_c, 0, 75, 0
1, 56760, Note_on_c, 0, 73, 34
1, 56880, Note_on_c, 0, 73, 0
1, 56880, Note_on_c, 0, 66, 0
1, 56880, Note_on_c, 0, 71, 35
1, 57000, Note_on_c, 0, 71, 0
1, 57000, Note_on_c, 0, 78, 35
1, 57120, Note_on_c, 0, 78, 0
1, 57120, Note_on_c, 0, 73, 40
1, 57120, Note_on_c, 0, 54, 34
1, 57240, Note_on_c, 0, 73, 0
1, 57240, Note_on_c, 0, 71, 33
1, 57360, Tempo, 914634
1, 57360, Note_on_c, 0, 71, 0
1, 57360, Note_on_c, 0, 54, 0
1, 57360, Note_on_c, 0, 70, 35
1, 57480, Tempo, 1060071
1, 57480, Note_on_c, 0, 70, 0
1, 57480, Note_on_c, 0, 78, 33
1, 57590, Note_on_c, 0, 78, 0
1, 57600, Tempo, 820793
1, 57600, Note_on_c, 0, 78, 43
1, 57600, Note_on_c, 0, 75, 43
1, 57600, Note_on_c, 0, 66, 36
1, 57600, Note_on_c, 0, 47, 32
1, 57685, Control_c, 0, 64, 127
1, 57760, Note_on_c, 0, 47, 0
1, 57760, Note_on_c, 0, 54, 27
1, 57920, Note_on_c, 0, 54, 0
1, 57920, Note_on_c, 0, 51, 27
1, 58080, Note_on_c, 0, 51, 0
1, 58080, Note_on_c, 0, 47, 32
1, 58240, Note_on_c, 0, 47, 0
1, 58240, Note_on_c, 0, 59, 27
1, 58400, Tempo, 894188
1, 58400, Note_on_c, 0, 59, 0
1, 58400, Note_on_c, 0, 54, 27
1, 58560, Tempo, 832178
1, 58560, Note_on_c, 0, 54, 0
1, 58560, Note_on_c, 0, 66, 0
1, 58560, Note_on_c, 0, 75, 0
1, 58560, Note_on_c, 0, 78, 0
1, 58560, Note_on_c, 0, 64, 28
1, 58560, Note_on_c, 0, 73, 34
1, 58560, Note_on_c, 0, 76, 34
1, 58560, Note_on_c, 0, 49, 32
1, 58567, Control_c, 0, 64, 0
1, 58612, Control_c, 0, 64, 127
1, 58680, Tempo, 826446
1, 58720, Note_on_c, 0, 49, 0
1, 58720, Note_on_c, 0, 58, 27
1, 58734, Tempo, 820793
1, 58854, Tempo, 815217
1, 58880, Note_on_c, 0, 58, 0
1, 58880, Note_on_c, 0, 54, 27
1, 58974, Tempo, 809717
1, 59040, Note_on_c, 0, 54, 0
1, 59040, Note_on_c, 0, 64, 0
1, 59040, Note_on_c, 0, 73, 0
1, 59040, Note_on_c, 0, 76, 0
1, 59040, Note_on_c, 0, 63, 25
1, 59040, Note_on_c, 0, 71, 30
1, 59040, Note_on_c, 0, 75, 30
1, 59040, Note_on_c, 0, 51, 33
1, 59052, Control_c, 0, 64, 0
1, 59094, Tempo, 804290
1, 59109, Control_c, 0, 64, 127
1, 59200, Note_on_c, 0, 51, 0
1, 59200, Note_on_c, 0, 59, 27
1, 59214, Tempo, 798935
1, 59304, Tempo, 793651
1, 59360, Tempo, 900901
1, 59360, Note_on_c, 0, 59, 0
1, 59360, Note_on_c, 0, 54, 29
1, 59520, Tempo, 820793
1, 59520, Note_on_c, 0, 54, 0
1, 59520, Note_on_c, 0, 63, 0
1, 59520, Note_on_c, 0, 71, 0
1, 59520, Note_on_c, 0, 75, 0
1, 59520, Note_on_c, 0, 68, 39
1, 59520, Note_on_c, 0, 73, 39
1, 59520, Note_on_c, 0, 52, 32
1, 59529, Control_c, 0, 64, 0
1, 59600, Control_c, 0, 64, 127
1, 59680, Note_on_c, 0, 52, 0
1, 59680, Note_on_c, 0, 61, 29
1, 59840, Tempo, 881057
1, 59840, Note_on_c, 0, 61, 0
1, 59840, Note_on_c, 0, 56, 29
1, 59880, Tempo, 832178
1, 60000, Tempo, 815217
1, 60000, Note_on_c, 0, 56, 0
1, 60000, Note_on_c, 0, 73, 0
1, 60000, Note_on_c, 0, 68, 0
1, 60000, Note_on_c, 0, 71, 35
1, 60000, Note_on_c, 0, 68, 29
1, 60000, Note_on_c, 0, 53, 34
1, 60019, Control_c, 0, 64, 0
1, 60080, Control_c, 0, 64, 127
1, 60160, Note_on_c, 0, 53, 0
1, 60160, Note_on_c, 0, 63, 31
1, 60320, Tempo, 887574
1, 60320, Note_on_c, 0, 63, 0
1, 60320, Note_on_c, 0, 59, 30
1, 60480, Tempo, 815217
1, 60480, Note_on_c, 0, 59, 0
1, 60480, Note_on_c, 0, 68, 0
1, 60480, Note_on_c, 0, 66, 33
1, 60480, Note_on_c, 0, 54, 37
1, 60487, Control_c, 0, 64, 0
1, 60532, Control_c, 0, 64, 127
1, 60640, Note_on_c, 0, 54, 0
1, 60640, Note_on_c, 0, 63, 32
1, 60800, Tempo, 887574
1, 60800, Note_on_c, 0, 63, 0
1, 60800, Note_on_c, 0, 59, 32
1, 60960, Tempo, 862069
1, 60960, Note_on_c, 0, 59, 0
1, 60960, Note_on_c, 0, 66, 0
1, 60960, Note_on_c, 0, 71, 0
1, 60960, Note_on_c, 0, 70, 44
1, 60960, Note_on_c, 0, 66, 37
1, 60960, Note_on_c, 0, 52, 42
1, 60973, Control_c, 0, 64, 0
1, 61017, Control_c, 0, 64, 127
1, 61080, Tempo, 843882
1, 61120, Note_on_c, 0, 52, 0
1, 61120, Note_on_c, 0, 61, 36
1, 61200, Note_on_c, 0, 70, 0
1, 61200, Note_on_c, 0, 78, 43
1, 61280, Tempo, 936037
1, 61280, Note_on_c, 0, 61, 0
1, 61280, Note_on_c, 0, 58, 36
1, 61440, Tempo, 868307
1, 61440, Note_on_c, 0, 58, 0
1, 61440, Note_on_c, 0, 78, 0
1, 61440, Note_on_c, 0, 66, 0
1, 61440, Note_on_c, 0, 66, 57
1, 61440, Note_on_c, 0, 69, 57
1, 61440, Note_on_c, 0, 78, 67
1, 61440, Note_on_c, 0, 51, 43
1, 61450, Control_c, 0, 64, 0
1, 61511, Control_c, 0, 64, 127
1, 61560, Tempo, 826446
1, 61560, Note_on_c, 0, 51, 0
1, 61560, Note_on_c, 0, 59, 36
1, 61680, Note_on_c, 0, 59, 0
1, 61680, Note_on_c, 0, 54, 36
1, 61800, Note_on_c, 0, 54, 0
1, 61800, Note_on_c, 0, 51, 34
1, 61920, Tempo, 804290
1, 61920, Note_on_c, 0, 51, 0
1, 61920, Note_on_c, 0, 47, 42
1, 62040, Note_on_c, 0, 47, 0
1, 62040, Note_on_c, 0, 54, 37
1, 62160, Note_on_c, 0, 54, 0
1, 62160, Note_on_c, 0, 51, 38
1, 62280, Note_on_c, 0, 51, 0
1, 62280, Note_on_c, 0, 47, 35
1, 62400, Tempo, 798935
1, 62400, Note_on_c, 0, 47, 0
1, 62400, Note_on_c, 0, 78, 0
1, 62400, Note_on_c, 0, 69, 0
1, 62400, Note_on_c, 0, 66, 0
1, 62400, Note_on_c, 0, 64, 51
1, 62400, Note_on_c, 0, 69, 51
1, 62400, Note_on_c, 0, 76, 63
1, 62400, Note_on_c, 0, 49, 50
1, 62407, Control_c, 0, 64, 0
1, 62471, Control_c, 0, 64, 127
1, 62520, Note_on_c, 0, 49, 0
1, 62520, Note_on_c, 0, 57, 40
1, 62640, Note_on_c, 0, 57, 0
1, 62640, Note_on_c, 0, 52, 40
1, 62760, Note_on_c, 0, 52, 0
1, 62760, Note_on_c, 0, 49, 36
1, 62880, Note_on_c, 0, 49, 0
1, 62880, Note_on_c, 0, 76, 0
1, 62880, Note_on_c, 0, 69, 0
1, 62880, Note_on_c, 0, 64, 0
1, 62880, Note_on_c, 0, 63, 52
1, 62880, Note_on_c, 0, 69, 52
1, 62880, Note_on_c, 0, 75, 64
1, 62880, Note_on_c, 0, 66, 52
1, 62880, Note_on_c, 0, 51, 48
1, 62894, Control_c, 0, 64, 0
1, 62986, Control_c, 0, 64, 127
1, 63000, Note_on_c, 0, 51, 0
1, 63000, Note_on_c, 0, 59, 43
1, 63120, Note_on_c, 0, 59, 0
1, 63120, Note_on_c, 0, 54, 43
1, 63200, Tempo, 900901
1, 63240, Note_on_c, 0, 54, 0
1, 63240, Note_on_c, 0, 51, 41
1, 63360, Tempo, 798935
1, 63360, Note_on_c, 0, 51, 0
1, 63360, Note_on_c, 0, 66, 0
1, 63360, Note_on_c, 0, 63, 0
1, 63360, Note_on_c, 0, 69, 0
1, 63360, Note_on_c, 0, 75, 0
1, 63360, Note_on_c, 0, 69, 68
1, 63360, Note_on_c, 0, 73, 80
1, 63360, Note_on_c, 0, 52, 61
1, 63367, Control_c, 0, 64, 0
1, 63452, Control_c, 0, 64, 127
1, 63480, Note_on_c, 0, 52, 0
1, 63480, Note_on_c, 0, 61, 46
1, 63600, Note_on_c, 0, 61, 0
1, 63600, Note_on_c, 0, 57, 45
1, 63680, Tempo, 881057
1, 63720, Tempo, 837989
1, 63720, Note_on_c, 0, 57, 0
1, 63720, Note_on_c, 0, 52, 43
1, 63840, Tempo, 804290
1, 63840, Note_on_c, 0, 52, 0
1, 63840, Note_on_c, 0, 73, 0
1, 63840, Note_on_c, 0, 69, 0
1, 63840, Note_on_c, 0, 66, 68
1, 63840, Note_on_c, 0, 71, 81
1, 63840, Note_on_c, 0, 63, 68
1, 63840, Note_on_c, 0, 54, 62
1, 63856, Control_c, 0, 64, 0
1, 63925, Control_c, 0, 64, 127
1, 63960, Note_on_c, 0, 54, 0
1, 63960, Note_on_c, 0, 59, 47
1, 64080, Note_on_c, 0, 59, 0
1, 64080, Note_on_c, 0, 57, 48
1, 64160, Tempo, 887574
1, 64200, Note_on_c, 0, 57, 0
1, 64200, Note_on_c, 0, 54, 46
1, 64310, Note_on_c, 0, 54, 0
1, 64320, Tempo, 804290
1, 64320, Note_on_c, 0, 54, 66
1, 64440, Note_on_c, 0, 54, 0
1, 64440, Note_on_c, 0, 59, 50
1, 64560, Note_on_c, 0, 59, 0
1, 64560, Note_on_c, 0, 57, 50
1, 64640, Tempo, 887574
1, 64680, Note_on_c, 0, 57, 0
1, 64680, Note_on_c, 0, 54, 48
1, 64800, Tempo, 815217
1, 64800, Note_on_c, 0, 54, 0
1, 64800, Note_on_c, 0, 63, 0
1, 64800, Note_on_c, 0, 71, 0
1, 64800, Note_on_c, 0, 66, 0
1, 64800, Note_on_c, 0, 66, 67
1, 64800, Note_on_c, 0, 69, 80
1, 64800, Note_on_c, 0, 63, 67
1, 64800, Note_on_c, 0, 48, 60
1, 64817, Control_c, 0, 64, 0
1, 64863, Control_c, 0, 64, 127
1, 64920, Note_on_c, 0, 48, 0
1, 64920, Note_on_c, 0, 57, 51
1, 65040, Note_on_c, 0, 57, 0
1, 65040, Note_on_c, 0, 54, 51
1, 65120, Tempo, 874636
1, 65160, Note_on_c, 0, 54, 0
1, 65160, Note_on_c, 0, 51, 47
1, 65280, Tempo, 804290
1, 65280, Note_on_c, 0, 51, 0
1, 65280, Note_on_c, 0, 63, 0
1, 65280, Note_on_c, 0, 69, 0
1, 65280, Note_on_c, 0, 66, 0
1, 65280, Note_on_c, 0, 69, 82
1, 65280, Note_on_c, 0, 48, 60
1, 65297, Control_c, 0, 64, 0
1, 65349, Control_c, 0, 64, 127
1, 65400, Note_on_c, 0, 48, 0
1, 65400, Note_on_c, 0, 69, 0
1, 65400, Note_on_c, 0, 75, 75
1, 65400, Note_on_c, 0, 57, 51
1, 65520, Note_on_c, 0, 57, 0
1, 65520, Note_on_c, 0, 75, 0
1, 65520, Note_on_c, 0, 78, 80
1, 65520, Note_on_c, 0, 54, 51
1, 65640, Note_on_c, 0, 54, 0
1, 65640, Note_on_c, 0, 78, 0
1, 65640, Note_on_c, 0, 75, 77
1, 65640, Note_on_c, 0, 51, 43
1, 65760, Note_on_c, 0, 51, 0
1, 65760, Note_on_c, 0, 75, 0
1, 65760, Note_on_c, 0, 81, 68
1, 65760, Note_on_c, 0, 48, 48
1, 65880, Note_on_c, 0, 48, 0
1, 65880, Note_on_c, 0, 81, 0
1, 65880, Note_on_c, 0, 87, 59
1, 65880, Note_on_c, 0, 57, 37
1, 66000, Note_on_c, 0, 57, 0
1, 66000, Note_on_c, 0, 87, 0
1, 66000, Note_on_c, 0, 90, 50
1, 66000, Note_on_c, 0, 54, 35
1, 66120, Tempo, 943396
1, 66120, Note_on_c, 0, 54, 0
1, 66120, Note_on_c, 0, 90, 0
1, 66120, Note_on_c, 0, 87, 41
1, 66120, Note_on_c, 0, 51, 33
1, 66240, Tempo, 855920
1, 66240, Note_on_c, 0, 51, 0
1, 66240, Note_on_c, 0, 87, 0
1, 66240, Note_on_c, 0, 93, 54
1, 66240, Note_on_c, 0, 47, 37
1, 66268, Control_c, 0, 64, 0
1, 66325, Control_c, 0, 64, 127
1, 66360, Note_on_c, 0, 47, 0
1, 66360, Note_on_c, 0, 57, 26
1, 66480, Note_on_c, 0, 57, 0
1, 66480, Note_on_c, 0, 54, 30
1, 66600, Note_on_c, 0, 54, 0
1, 66600, Note_on_c, 0, 51, 26
1, 66720, Tempo, 887574
1, 66720, Note_on_c, 0, 51, 0
1, 66720, Note_on_c, 0, 93, 0
1, 66720, Note_on_c, 0, 47, 31
1, 66803, Tempo, 943396
1, 66813, Tempo, 894188
1, 66840, Note_on_c, 0, 47, 0
1, 66840, Note_on_c, 0, 63, 39
1, 66840, Note_on_c, 0, 57, 26
1, 66843, Tempo, 900901
1, 66843, Control_c, 0, 64, 0
1, 66873, Tempo, 907716
1, 66903, Tempo, 914634
1, 66933, Tempo, 921659
1, 66960, Note_on_c, 0, 57, 0
1, 66960, Note_on_c, 0, 63, 0
1, 66960, Note_on_c, 0, 64, 39
1, 66960, Note_on_c, 0, 56, 26
1, 66963, Tempo, 928793
1, 66993, Tempo, 936037
1, 67080, Tempo, 1032702
1, 67080, Note_on_c, 0, 56, 0
1, 67080, Note_on_c, 0, 64, 0
1, 67080, Note_on_c, 0, 66, 41
1, 67080, Note_on_c, 0, 54, 26
1, 67200, Tempo, 894188
1, 67200, Note_on_c, 0, 54, 0
1, 67200, Note_on_c, 0, 66, 0
1, 67200, Note_on_c, 0, 64, 34
1, 67200, Note_on_c, 0, 68, 50
1, 67200, Note_on_c, 0, 40, 25
1, 67200, Note_on_c, 0, 52, 30
1, 67278, Control_c, 0, 64, 127
1, 67320, Note_on_c, 0, 64, 0
1, 67320, Note_on_c, 0, 59, 26
1, 67440, Note_on_c, 0, 59, 0
1, 67440, Note_on_c, 0, 52, 0
1, 67440, Note_on_c, 0, 40, 0
1, 67440, Note_on_c, 0, 64, 31
1, 67560, Note_on_c, 0, 64, 0
1, 67560, Note_on_c, 0, 59, 26
1, 67680, Tempo, 868307
1, 67680, Note_on_c, 0, 59, 0
1, 67680, Note_on_c, 0, 68, 0
1, 67680, Note_on_c, 0, 68, 30
1, 67680, Note_on_c, 0, 71, 46
1, 67696, Control_c, 0, 64, 0
1, 67779, Control_c, 0, 64, 127
1, 67800, Tempo, 874636
1, 67800, Note_on_c, 0, 68, 0
1, 67800, Note_on_c, 0, 59, 27
1, 67920, Tempo, 881057
1, 67920, Note_on_c, 0, 59, 0
1, 67920, Note_on_c, 0, 71, 0
1, 67920, Note_on_c, 0, 66, 28
1, 67920, Note_on_c, 0, 69, 43
1, 67933, Control_c, 0, 64, 0
1, 67984, Control_c, 0, 64, 127
1, 68040, Tempo, 881057
1, 68040, Note_on_c, 0, 66, 0
1, 68040, Note_on_c, 0, 59, 27
1, 68160, Tempo, 868307
1, 68160, Note_on_c, 0, 59, 0
1, 68160, Note_on_c, 0, 69, 0
1, 68160, Note_on_c, 0, 64, 34
1, 68160, Note_on_c, 0, 68, 50
1, 68160, Note_on_c, 0, 35, 25
1, 68160, Note_on_c, 0, 47, 30
1, 68160, Control_c, 0, 64, 0
1, 68224, Control_c, 0, 64, 127
1, 68280, Note_on_c, 0, 64, 0
1, 68280, Note_on_c, 0, 59, 26
1, 68400, Tempo, 849858
1, 68400, Note_on_c, 0, 59, 0
1, 68400, Note_on_c, 0, 47, 0
1, 68400, Note_on_c, 0, 35, 0
1, 68400, Note_on_c, 0, 68, 0
1, 68400, Note_on_c, 0, 63, 27
1, 68400, Note_on_c, 0, 66, 41
1, 68414, Control_c, 0, 64, 0
1, 68457, Control_c, 0, 64, 127
1, 68520, Note_on_c, 0, 63, 0
1, 68520, Note_on_c, 0, 59, 25
1, 68610, Note_on_c, 0, 59, 0
1, 68610, Note_on_c, 0, 66, 0
1, 68610, Control_c, 0, 64, 0
1, 68640, Note_on_c, 0, 63, 27
1, 68640, Note_on_c, 0, 66, 41
1, 68704, Control_c, 0, 64, 127
1, 68760, Note_on_c, 0, 63, 0
1, 68760, Note_on_c, 0, 59, 26
1, 68880, Tempo, 832178
1, 68880, Note_on_c, 0, 59, 0
1, 68880, Note_on_c, 0, 66, 0
1, 68880, Note_on_c, 0, 64, 28
1, 68880, Note_on_c, 0, 68, 43
1, 68898, Control_c, 0, 64, 0
1, 68965, Control_c, 0, 64, 127
1, 69000, Note_on_c, 0, 64, 0
1, 69000, Note_on_c, 0, 59, 28
1, 69120, Tempo, 849858
1, 69120, Note_on_c, 0, 59, 0
1, 69120, Note_on_c, 0, 68, 0
1, 69120, Note_on_c, 0, 64, 30
1, 69120, Note_on_c, 0, 69, 46
1, 69120, Note_on_c, 0, 37, 25
1, 69120, Note_on_c, 0, 49, 30
1, 69130, Control_c, 0, 64, 0
1, 69205, Control_c, 0, 64, 127
1, 69240, Note_on_c, 0, 64, 0
1, 69240, Note_on_c, 0, 59, 28
1, 69360, Note_on_c, 0, 59, 0
1, 69360, Note_on_c, 0, 49, 0
1, 69360, Note_on_c, 0, 37, 0
1, 69360, Note_on_c, 0, 69, 0
1, 69360, Note_on_c, 0, 64, 36
1, 69360, Note_on_c, 0, 73, 54
1, 69480, Note_on_c, 0, 64, 0
1, 69480, Note_on_c, 0, 59, 31
1, 69600, Note_on_c, 0, 59, 0
1, 69600, Note_on_c, 0, 73, 0
1, 69600, Note_on_c, 0, 66, 37
1, 69600, Note_on_c, 0, 71, 47
1, 69600, Note_on_c, 0, 51, 28
1, 69600, Note_on_c, 0, 39, 23
1, 69616, Control_c, 0, 64, 0
1, 69678, Control_c, 0, 64, 127
1, 69720, Note_on_c, 0, 66, 0
1, 69720, Note_on_c, 0, 59, 26
1, 69840, Tempo, 868307
1, 69840, Note_on_c, 0, 59, 0
1, 69840, Note_on_c, 0, 39, 0
1, 69840, Note_on_c, 0, 51, 0
1, 69840, Note_on_c, 0, 71, 0
1, 69840, Note_on_c, 0, 63, 25
1, 69840, Note_on_c, 0, 66, 38
1, 69840, Note_on_c, 0, 47, 26
1, 69840, Note_on_c, 0, 35, 22
1, 69960, Tempo, 1006711
1, 69960, Note_on_c, 0, 63, 0
1, 69960, Note_on_c, 0, 59, 27
1, 70080, Tempo, 849858
1, 70080, Note_on_c, 0, 59, 0
1, 70080, Note_on_c, 0, 35, 0
1, 70080, Note_on_c, 0, 47, 0
1, 70080, Note_on_c, 0, 66, 0
1, 70080, Note_on_c, 0, 59, 35
1, 70080, Note_on_c, 0, 64, 35
1, 70080, Note_on_c, 0, 68, 42
1, 70080, Note_on_c, 0, 40, 28
1, 70080, Note_on_c, 0, 52, 28
1, 70088, Control_c, 0, 64, 0
1, 70200, Note_on_c, 0, 52, 0
1, 70200, Note_on_c, 0, 40, 0
1, 70200, Note_on_c, 0, 56, 25
1, 70320, Note_on_c, 0, 56, 0
1, 70320, Note_on_c, 0, 59, 28
1, 70440, Note_on_c, 0, 59, 0
1, 70440, Note_on_c, 0, 57, 26
1, 70560, Note_on_c, 0, 57, 0
1, 70560, Note_on_c, 0, 68, 0
1, 70560, Note_on_c, 0, 64, 0
1, 70560, Note_on_c, 0, 59, 0
1, 70560, Note_on_c, 0, 56, 28
1, 70680, Note_on_c, 0, 56, 0
1, 70680, Note_on_c, 0, 57, 25
1, 70800, Tempo, 849858
1, 70800, Note_on_c, 0, 57, 0
1, 70800, Note_on_c, 0, 76, 47
1, 70800, Note_on_c, 0, 56, 30
1, 70920, Tempo, 921659
1, 70920, Note_on_c, 0, 56, 0
1, 70920, Note_on_c, 0, 76, 0
1, 70920, Note_on_c, 0, 78, 42
1, 70920, Note_on_c, 0, 54, 27
1, 71040, Tempo, 849858
1, 71040, Note_on_c, 0, 54, 0
1, 71040, Note_on_c, 0, 78, 0
1, 71040, Note_on_c, 0, 68, 55
1, 71040, Note_on_c, 0, 80, 55
1, 71040, Note_on_c, 0, 52, 37
1, 71132, Control_c, 0, 64, 127
1, 71160, Note_on_c, 0, 52, 0
1, 71160, Note_on_c, 0, 59, 28
1, 71280, Note_on_c, 0, 59, 0
1, 71280, Note_on_c, 0, 47, 34
1, 71400, Note_on_c, 0, 47, 0
1, 71400, Note_on_c, 0, 59, 28
1, 71520, Tempo, 837989
1, 71520, Note_on_c, 0, 59, 0
1, 71520, Note_on_c, 0, 80, 0
1, 71520, Note_on_c, 0, 68, 0
1, 71520, Note_on_c, 0, 71, 50
1, 71520, Note_on_c, 0, 83, 50
1, 71520, Note_on_c, 0, 52, 33
1, 71534, Control_c, 0, 64, 0
1, 71626, Control_c, 0, 64, 127
1, 71640, Note_on_c, 0, 52, 0
1, 71640, Note_on_c, 0, 59, 29
1, 71760, Tempo, 855920
1, 71760, Note_on_c, 0, 59, 0
1, 71760, Note_on_c, 0, 83, 0
1, 71760, Note_on_c, 0, 71, 0
1, 71760, Note_on_c, 0, 69, 47
1, 71760, Note_on_c, 0, 81, 47
1, 71760, Note_on_c, 0, 47, 30
1, 71772, Control_c, 0, 64, 0
1, 71838, Control_c, 0, 64, 127
1, 71880, Tempo, 881057
1, 71880, Note_on_c, 0, 47, 0
1, 71880, Note_on_c, 0, 59, 29
1, 72000, Tempo, 868307
1, 72000, Note_on_c, 0, 59, 0
1, 72000, Note_on_c, 0, 81, 0
1, 72000, Note_on_c, 0, 69, 0
1, 72000, Note_on_c, 0, 68, 55
1, 72000, Note_on_c, 0, 80, 55
1, 72000, Note_on_c, 0, 51, 37
1, 72010, Control_c, 0, 64, 0
1, 72080, Control_c, 0, 64, 127
1, 72120, Note_on_c, 0, 51, 0
1, 72120, Note_on_c, 0, 59, 28
1, 72240, Tempo, 849858
1, 72240, Note_on_c, 0, 59, 0
1, 72240, Note_on_c, 0, 80, 0
1, 72240, Note_on_c, 0, 68, 0
1, 72240, Note_on_c, 0, 66, 45
1, 72240, Note_on_c, 0, 78, 45
1, 72240, Note_on_c, 0, 47, 29
1, 72249, Control_c, 0, 64, 0
1, 72326, Control_c, 0, 64, 127
1, 72360, Note_on_c, 0, 47, 0
1, 72360, Note_on_c, 0, 59, 27
1, 72450, Note_on_c, 0, 59, 0
1, 72450, Note_on_c, 0, 78, 0
1, 72450, Note_on_c, 0, 66, 0
1, 72450, Control_c, 0, 64, 0
1, 72480, Note_on_c, 0, 66, 45
1, 72480, Note_on_c, 0, 78, 45
1, 72480, Note_on_c, 0, 51, 29
1, 72555, Control_c, 0, 64, 127
1, 72600, Note_on_c, 0, 51, 0
1, 72600, Note_on_c, 0, 59, 28
1, 72720, Tempo, 832178
1, 72720, Note_on_c, 0, 59, 0
1, 72720, Note_on_c, 0, 78, 0
1, 72720, Note_on_c, 0, 66, 0
1, 72720, Note_on_c, 0, 68, 49
1, 72720, Note_on_c, 0, 80, 49
1, 72720, Note_on_c, 0, 53, 31
1, 72737, Control_c, 0, 64, 0
1, 72795, Control_c, 0, 64, 127
1, 72840, Note_on_c, 0, 53, 0
1, 72840, Note_on_c, 0, 59, 33
1, 72960, Tempo, 849858
1, 72960, Note_on_c, 0, 59, 0
1, 72960, Note_on_c, 0, 80, 0
1, 72960, Note_on_c, 0, 68, 0
1, 72960, Note_on_c, 0, 69, 47
1, 72960, Note_on_c, 0, 81, 56
1, 72960, Note_on_c, 0, 54, 36
1, 72981, Control_c, 0, 64, 0
1, 73052, Control_c, 0, 64, 127
1, 73080, Note_on_c, 0, 54, 0
1, 73080, Note_on_c, 0, 59, 36
1, 73200, Note_on_c, 0, 59, 0
1, 73200, Note_on_c, 0, 81, 0
1, 73200, Note_on_c, 0, 69, 0
1, 73200, Note_on_c, 0, 73, 51
1, 73200, Note_on_c, 0, 85, 61
1, 73200, Note_on_c, 0, 57, 41
1, 73320, Note_on_c, 0, 57, 0
1, 73320, Note_on_c, 0, 59, 37
1, 73440, Note_on_c, 0, 59, 0
1, 73440, Note_on_c, 0, 85, 0
1, 73440, Note_on_c, 0, 73, 0
1, 73440, Note_on_c, 0, 71, 47
1, 73440, Note_on_c, 0, 83, 57
1, 73440, Note_on_c, 0, 56, 38
1, 73490, Control_c, 0, 64, 0
1, 73553, Control_c, 0, 64, 127
1, 73560, Note_on_c, 0, 56, 0
1, 73560, Note_on_c, 0, 59, 32
1, 73680, Tempo, 868307
1, 73680, Note_on_c, 0, 59, 0
1, 73680, Note_on_c, 0, 83, 0
1, 73680, Note_on_c, 0, 71, 0
1, 73680, Note_on_c, 0, 87, 49
1, 73680, Note_on_c, 0, 75, 32
1, 73680, Note_on_c, 0, 47, 25
1, 73680, Note_on_c, 0, 54, 25
1, 73694, Control_c, 0, 64, 0
1, 73758, Control_c, 0, 64, 127
1, 73800, Tempo, 1006711
1, 73800, Note_on_c, 0, 54, 0
1, 73800, Note_on_c, 0, 47, 0
1, 73800, Note_on_c, 0, 57, 27
1, 73920, Tempo, 849858
1, 73920, Note_on_c, 0, 57, 0
1, 73920, Note_on_c, 0, 75, 0
1, 73920, Note_on_c, 0, 87, 0
1, 73920, Note_on_c, 0, 88, 57
1, 73920, Note_on_c, 0, 76, 35
1, 73920, Note_on_c, 0, 52, 31
1, 73920, Note_on_c, 0, 56, 31
1, 73926, Control_c, 0, 64, 0
1, 73984, Control_c, 0, 64, 127
1, 74040, Note_on_c, 0, 56, 0
1, 74040, Note_on_c, 0, 52, 0
1, 74040, Note_on_c, 0, 59, 23
1, 74160, Note_on_c, 0, 59, 0
1, 74160, Note_on_c, 0, 56, 31
1, 74280, Note_on_c, 0, 56, 0
1, 74280, Note_on_c, 0, 52, 25
1, 74400, Tempo, 832178
1, 74400, Note_on_c, 0, 52, 0
1, 74400, Note_on_c, 0, 76, 0
1, 74400, Note_on_c, 0, 88, 0
1, 74400, Note_on_c, 0, 51, 31
1, 74414, Control_c, 0, 64, 0
1, 74492, Control_c, 0, 64, 127
1, 74520, Note_on_c, 0, 51, 0
1, 74520, Note_on_c, 0, 59, 27
1, 74640, Note_on_c, 0, 59, 0
1, 74640, Note_on_c, 0, 71, 47
1, 74640, Note_on_c, 0, 54, 31
1, 74760, Tempo, 907716
1, 74760, Note_on_c, 0, 54, 0
1, 74760, Note_on_c, 0, 51, 32
1, 74880, Tempo, 849858
1, 74880, Note_on_c, 0, 51, 0
1, 74880, Note_on_c, 0, 71, 0
1, 74880, Note_on_c, 0, 70, 51
1, 74880, Note_on_c, 0, 49, 38
1, 74887, Control_c, 0, 64, 0
1, 74972, Control_c, 0, 64, 127
1, 75000, Note_on_c, 0, 49, 0
1, 75000, Note_on_c, 0, 58, 29
1, 75120, Note_on_c, 0, 58, 0
1, 75120, Note_on_c, 0, 54, 31
1, 75240, Note_on_c, 0, 54, 0
1, 75240, Note_on_c, 0, 49, 27
1, 75360, Note_on_c, 0, 49, 0
1, 75360, Note_on_c, 0, 70, 0
1, 75360, Note_on_c, 0, 76, 56
1, 75360, Note_on_c, 0, 42, 31
1, 75480, Note_on_c, 0, 42, 0
1, 75480, Note_on_c, 0, 58, 26
1, 75600, Note_on_c, 0, 58, 0
1, 75600, Note_on_c, 0, 54, 29
1, 75720, Tempo, 900901
1, 75720, Note_on_c, 0, 54, 0
1, 75720, Note_on_c, 0, 49, 27
1, 75840, Tempo, 855920
1, 75840, Note_on_c, 0, 49, 0
1, 75840, Note_on_c, 0, 76, 0
1, 75840, Note_on_c, 0, 75, 51
1, 75840, Note_on_c, 0, 47, 31
1, 75840, Control_c, 0, 64, 0
1, 75939, Control_c, 0, 64, 127
1, 75960, Note_on_c, 0, 47, 0
1, 75960, Note_on_c, 0, 59, 25
1, 76080, Note_on_c, 0, 59, 0
1, 76080, Note_on_c, 0, 54, 30
1, 76200, Note_on_c, 0, 54, 0
1, 76200, Note_on_c, 0, 51, 27
1, 76320, Note_on_c, 0, 51, 0
1, 76320, Note_on_c, 0, 47, 37
1, 76440, Note_on_c, 0, 47, 0
1, 76440, Note_on_c, 0, 59, 30
1, 76560, Note_on_c, 0, 59, 0
1, 76560, Note_on_c, 0, 75, 0
1, 76560, Note_on_c, 0, 69, 45
1, 76560, Note_on_c, 0, 49, 37
1, 76568, Control_c, 0, 64, 0
1, 76631, Control_c, 0, 64, 127
1, 76680, Tempo, 894188
1, 76680, Note_on_c, 0, 49, 0
1, 76680, Note_on_c, 0, 57, 33
1, 76800, Tempo, 855920
1, 76800, Note_on_c, 0, 57, 0
1, 76800, Note_on_c, 0, 69, 0
1, 76800, Note_on_c, 0, 68, 51
1, 76800, Note_on_c, 0, 47, 31
1, 76807, Control_c, 0, 64, 0
1, 76885, Control_c, 0, 64, 127
1, 76920, Note_on_c, 0, 47, 0
1, 76920, Note_on_c, 0, 56, 32
1, 77040, Note_on_c, 0, 56, 0
1, 77040, Note_on_c, 0, 52, 38
1, 77160, Note_on_c, 0, 52, 0
1, 77160, Note_on_c, 0, 47, 33
1, 77280, Note_on_c, 0, 47, 0
1, 77280, Note_on_c, 0, 68, 0
1, 77280, Note_on_c, 0, 74, 54
1, 77280, Note_on_c, 0, 40, 45
1, 77298, Control_c, 0, 64, 0
1, 77372, Control_c, 0, 64, 127
1, 77400, Note_on_c, 0, 40, 0
1, 77400, Note_on_c, 0, 56, 32
1, 77520, Note_on_c, 0, 56, 0
1, 77520, Note_on_c, 0, 52, 36
1, 77640, Tempo, 936037
1, 77640, Note_on_c, 0, 52, 0
1, 77640, Note_on_c, 0, 47, 29
1, 77760, Tempo, 855920
1, 77760, Note_on_c, 0, 47, 0
1, 77760, Note_on_c, 0, 74, 0
1, 77760, Note_on_c, 0, 73, 51
1, 77760, Note_on_c, 0, 45, 35
1, 77776, Control_c, 0, 64, 0
1, 77845, Control_c, 0, 64, 127
1, 77880, Note_on_c, 0, 45, 0
1, 77880, Note_on_c, 0, 57, 27
1, 78000, Note_on_c, 0, 57, 0
1, 78000, Note_on_c, 0, 52, 31
1, 78120, Note_on_c, 0, 52, 0
1, 78120, Note_on_c, 0, 49, 27
1, 78240, Note_on_c, 0, 49, 0
1, 78240, Note_on_c, 0, 45, 31
1, 78360, Tempo, 837989
1, 78360, Note_on_c, 0, 45, 0
1, 78360, Note_on_c, 0, 52, 29
1, 78480, Note_on_c, 0, 52, 0
1, 78480, Note_on_c, 0, 73, 0
1, 78480, Note_on_c, 0, 73, 48
1, 78480, Note_on_c, 0, 45, 34
1, 78600, Note_on_c, 0, 45, 0
1, 78600, Note_on_c, 0, 52, 38
1, 78720, Tempo, 815217
1, 78720, Note_on_c, 0, 52, 0
1, 78720, Note_on_c, 0, 73, 0
1, 78720, Note_on_c, 0, 72, 57
1, 78720, Note_on_c, 0, 45, 39
1, 78720, Control_c, 0, 64, 0
1, 78791, Control_c, 0, 64, 127
1, 78840, Note_on_c, 0, 45, 0
1, 78840, Note_on_c, 0, 52, 35
1, 78960, Note_on_c, 0, 52, 0
1, 78960, Note_on_c, 0, 72, 0
1, 78960, Note_on_c, 0, 73, 58
1, 78960, Note_on_c, 0, 45, 38
1, 79080, Note_on_c, 0, 45, 0
1, 79080, Note_on_c, 0, 52, 35
1, 79200, Tempo, 832178
1, 79200, Note_on_c, 0, 52, 0
1, 79200, Note_on_c, 0, 73, 0
1, 79200, Note_on_c, 0, 69, 55
1, 79200, Note_on_c, 0, 64, 46
1, 79200, Note_on_c, 0, 61, 46
1, 79200, Note_on_c, 0, 45, 44
1, 79207, Control_c, 0, 64, 0
1, 79271, Control_c, 0, 64, 127
1, 79320, Note_on_c, 0, 45, 0
1, 79320, Note_on_c, 0, 52, 36
1, 79380, Note_on_c, 0, 69, 0
1, 79380, Note_on_c, 0, 61, 0
1, 79380, Note_on_c, 0, 64, 0
1, 79440, Note_on_c, 0, 52, 0
1, 79440, Note_on_c, 0, 68, 55
1, 79440, Note_on_c, 0, 64, 46
1, 79440, Note_on_c, 0, 59, 46
1, 79440, Note_on_c, 0, 47, 44
1, 79454, Control_c, 0, 64, 0
1, 79518, Control_c, 0, 64, 127
1, 79560, Tempo, 936037
1, 79560, Note_on_c, 0, 47, 0
1, 79560, Note_on_c, 0, 52, 37
1, 79620, Note_on_c, 0, 68, 0
1, 79620, Note_on_c, 0, 59, 0
1, 79620, Note_on_c, 0, 64, 0
1, 79680, Tempo, 855920
1, 79680, Note_on_c, 0, 52, 0
1, 79680, Note_on_c, 0, 68, 76
1, 79680, Note_on_c, 0, 64, 64
1, 79680, Note_on_c, 0, 58, 64
1, 79680, Note_on_c, 0, 49, 55
1, 79687, Control_c, 0, 64, 0
1, 79749, Control_c, 0, 64, 127
1, 79800, Note_on_c, 0, 49, 0
1, 79800, Note_on_c, 0, 52, 48
1, 79920, Note_on_c, 0, 52, 0
1, 79920, Note_on_c, 0, 68, 0
1, 79920, Note_on_c, 0, 66, 62
1, 79920, Note_on_c, 0, 49, 54
1, 80040, Tempo, 907716
1, 80040, Note_on_c, 0, 49, 0
1, 80040, Note_on_c, 0, 52, 43
1, 80160, Tempo, 855920
1, 80160, Note_on_c, 0, 52, 0
1, 80160, Note_on_c, 0, 58, 0
1, 80160, Note_on_c, 0, 64, 0
1, 80160, Note_on_c, 0, 64, 63
1, 80160, Note_on_c, 0, 57, 63
1, 80160, Note_on_c, 0, 48, 50
1, 80172, Control_c, 0, 64, 0
1, 80240, Control_c, 0, 64, 127
1, 80280, Note_on_c, 0, 48, 0
1, 80280, Note_on_c, 0, 52, 39
1, 80400, Note_on_c, 0, 52, 0
1, 80400, Note_on_c, 0, 66, 0
1, 80400, Note_on_c, 0, 66, 67
1, 80400, Note_on_c, 0, 48, 49
1, 80520, Tempo, 966184
1, 80520, Note_on_c, 0, 48, 0
1, 80520, Note_on_c, 0, 52, 39
1, 80640, Tempo, 862069
1, 80640, Note_on_c, 0, 52, 0
1, 80640, Note_on_c, 0, 66, 0
1, 80640, Note_on_c, 0, 57, 0
1, 80640, Note_on_c, 0, 64, 0
1, 80640, Note_on_c, 0, 66, 49
1, 80640, Note_on_c, 0, 63, 41
1, 80640, Note_on_c, 0, 57, 41
1, 80640, Note_on_c, 0, 47, 31
1, 80647, Control_c, 0, 64, 0
1, 80725, Control_c, 0, 64, 127
1, 80760, Note_on_c, 0, 47, 0
1, 80760, Note_on_c, 0, 54, 27
1, 80880, Note_on_c, 0, 54, 0
1, 80880, Note_on_c, 0, 57, 0
1, 80880, Note_on_c, 0, 63, 0
1, 80880, Note_on_c, 0, 66, 0
1, 80880, Note_on_c, 0, 71, 38
1, 80880, Note_on_c, 0, 63, 32
1, 80880, Note_on_c, 0, 47, 31
1, 81000, Note_on_c, 0, 47, 0
1, 81000, Note_on_c, 0, 54, 29
1, 81000, Note_on_c, 0, 57, 29
1, 81120, Tempo, 894188
1, 81120, Note_on_c, 0, 57, 0
1, 81120, Note_on_c, 0, 54, 0
1, 81120, Note_on_c, 0, 71, 0
1, 81120, Note_on_c, 0, 70, 46
1, 81120, Note_on_c, 0, 47, 31
1, 81129, Control_c, 0, 64, 0
1, 81205, Control_c, 0, 64, 127
1, 81240, Note_on_c, 0, 47, 0
1, 81240, Note_on_c, 0, 54, 27
1, 81240, Note_on_c, 0, 57, 27
1, 81360, Note_on_c, 0, 57, 0
1, 81360, Note_on_c, 0, 63, 0
1, 81360, Note_on_c, 0, 70, 0
1, 81360, Note_on_c, 0, 54, 0
1, 81360, Note_on_c, 0, 71, 40
1, 81360, Note_on_c, 0, 63, 34
1, 81360, Note_on_c, 0, 47, 31
1, 81480, Tempo, 998336
1, 81480, Note_on_c, 0, 47, 0
1, 81480, Note_on_c, 0, 57, 28
1, 81480, Note_on_c, 0, 54, 28
1, 81600, Tempo, 849858
1, 81600, Note_on_c, 0, 54, 0
1, 81600, Note_on_c, 0, 71, 0
1, 81600, Note_on_c, 0, 63, 0
1, 81600, Note_on_c, 0, 57, 0
1, 81600, Note_on_c, 0, 64, 51
1, 81600, Note_on_c, 0, 52, 31
1, 81600, Note_on_c, 0, 56, 31
1, 81606, Control_c, 0, 64, 0
1, 81607, Control_c, 0, 64, 0
1, 81664, Control_c, 0, 64, 127
1, 81720, Note_on_c, 0, 56, 0
1, 81720, Note_on_c, 0, 52, 0
1, 81720, Note_on_c, 0, 59, 23
1, 81840, Note_on_c, 0, 59, 0
1, 81840, Note_on_c, 0, 56, 31
1, 81960, Note_on_c, 0, 56, 0
1, 81960, Note_on_c, 0, 52, 25
1, 82080, Tempo, 832178
1, 82080, Note_on_c, 0, 52, 0
1, 82080, Note_on_c, 0, 64, 0
1, 82080, Note_on_c, 0, 51, 31
1, 82094, Control_c, 0, 64, 0
1, 82172, Control_c, 0, 64, 127
1, 82200, Note_on_c, 0, 51, 0
1, 82200, Note_on_c, 0, 59, 27
1, 82320, Note_on_c, 0, 59, 0
1, 82320, Note_on_c, 0, 83, 47
1, 82320, Note_on_c, 0, 71, 47
1, 82320, Note_on_c, 0, 54, 31
1, 82440, Tempo, 907716
1, 82440, Note_on_c, 0, 54, 0
1, 82440, Note_on_c, 0, 51, 32
1, 82560, Tempo, 837989
1, 82560, Note_on_c, 0, 51, 0
1, 82560, Note_on_c, 0, 71, 0
1, 82560, Note_on_c, 0, 83, 0
1, 82560, Note_on_c, 0, 82, 51
1, 82560, Note_on_c, 0, 70, 51
1, 82560, Note_on_c, 0, 49, 38
1, 82567, Control_c, 0, 64, 0
1, 82652, Control_c, 0, 64, 127
1, 82680, Note_on_c, 0, 49, 0
1, 82680, Note_on_c, 0, 58, 29
1, 82800, Note_on_c, 0, 58, 0
1, 82800, Note_on_c, 0, 54, 31
1, 82920, Note_on_c, 0, 54, 0
1, 82920, Note_on_c, 0, 49, 27
1, 83040, Note_on_c, 0, 49, 0
1, 83040, Note_on_c, 0, 70, 0
1, 83040, Note_on_c, 0, 82, 0
1, 83040, Note_on_c, 0, 88, 56
1, 83040, Note_on_c, 0, 76, 56
1, 83040, Note_on_c, 0, 42, 31
1, 83160, Note_on_c, 0, 42, 0
1, 83160, Note_on_c, 0, 58, 26
1, 83280, Note_on_c, 0, 58, 0
1, 83280, Note_on_c, 0, 54, 29
1, 83400, Tempo, 900901
1, 83400, Note_on_c, 0, 54, 0
1, 83400, Note_on_c, 0, 49, 27
1, 83520, Tempo, 843882
1, 83520, Note_on_c, 0, 49, 0
1, 83520, Note_on_c, 0, 76, 0
1, 83520, Note_on_c, 0, 88, 0
1, 83520, Note_on_c, 0, 87, 51
1, 83520, Note_on_c, 0, 75, 51
1, 83520, Note_on_c, 0, 47, 31
1, 83520, Control_c, 0, 64, 0
1, 83619, Control_c, 0, 64, 127
1, 83640, Note_on_c, 0, 47, 0
1, 83640, Note_on_c, 0, 59, 25
1, 83760, Note_on_c, 0, 59, 0
1, 83760, Note_on_c, 0, 54, 30
1, 83880, Note_on_c, 0, 54, 0
1, 83880, Note_on_c, 0, 51, 27
1, 84000, Note_on_c, 0, 51, 0
1, 84000, Note_on_c, 0, 47, 37
1, 84120, Note_on_c, 0, 47, 0
1, 84120, Note_on_c, 0, 59, 30
1, 84240, Note_on_c, 0, 59, 0
1, 84240, Note_on_c, 0, 75, 0
1, 84240, Note_on_c, 0, 87, 0
1, 84240, Note_on_c, 0, 81, 45
1, 84240, Note_on_c, 0, 69, 45
1, 84240, Note_on_c, 0, 49, 37
1, 84248, Control_c, 0, 64, 0
1, 84311, Control_c, 0, 64, 127
1, 84360, Tempo, 894188
1, 84360, Note_on_c, 0, 49, 0
1, 84360, Note_on_c, 0, 57, 33
1, 84480, Tempo, 855920
1, 84480, Note_on_c, 0, 57, 0
1, 84480, Note_on_c, 0, 69, 0
1, 84480, Note_on_c, 0, 81, 0
1, 84480, Note_on_c, 0, 80, 51
1, 84480, Note_on_c, 0, 68, 51
1, 84480, Note_on_c, 0, 47, 31
1, 84487, Control_c, 0, 64, 0
1, 84565, Control_c, 0, 64, 127
1, 84600, Note_on_c, 0, 47, 0
1, 84600, Note_on_c, 0, 56, 33
1, 84720, Note_on_c, 0, 56, 0
1, 84720, Note_on_c, 0, 52, 37
1, 84840, Note_on_c, 0, 52, 0
1, 84840, Note_on_c, 0, 47, 37
1, 84960, Note_on_c, 0, 47, 0
1, 84960, Note_on_c, 0, 68, 0
1, 84960, Note_on_c, 0, 80, 0
1, 84960, Note_on_c, 0, 86, 54
1, 84960, Note_on_c, 0, 74, 54
1, 84960, Note_on_c, 0, 40, 42
1, 84978, Control_c, 0, 64, 0
1, 85052, Control_c, 0, 64, 127
1, 85080, Note_on_c, 0, 40, 0
1, 85080, Note_on_c, 0, 56, 32
1, 85200, Note_on_c, 0, 56, 0
1, 85200, Note_on_c, 0, 52, 36
1, 85320, Tempo, 936037
1, 85320, Note_on_c, 0, 52, 0
1, 85320, Note_on_c, 0, 47, 29
1, 85440, Tempo, 855920
1, 85440, Note_on_c, 0, 47, 0
1, 85440, Note_on_c, 0, 74, 0
1, 85440, Note_on_c, 0, 86, 0
1, 85440, Note_on_c, 0, 85, 51
1, 85440, Note_on_c, 0, 73, 51
1, 85440, Note_on_c, 0, 45, 35
1, 85456, Control_c, 0, 64, 0
1, 85525, Control_c, 0, 64, 127
1, 85560, Note_on_c, 0, 45, 0
1, 85560, Note_on_c, 0, 57, 27
1, 85680, Note_on_c, 0, 57, 0
1, 85680, Note_on_c, 0, 52, 31
1, 85800, Note_on_c, 0, 52, 0
1, 85800, Note_on_c, 0, 49, 27
1, 85920, Note_on_c, 0, 49, 0
1, 85920, Note_on_c, 0, 45, 31
1, 86040, Tempo, 837989
1, 86040, Note_on_c, 0, 45, 0
1, 86040, Note_on_c, 0, 52, 29
1, 86160, Note_on_c, 0, 52, 0
1, 86160, Note_on_c, 0, 73, 0
1, 86160, Note_on_c, 0, 85, 0
1, 86160, Note_on_c, 0, 85, 50
1, 86160, Note_on_c, 0, 73, 50
1, 86160, Note_on_c, 0, 45, 35
1, 86280, Note_on_c, 0, 45, 0
1, 86280, Note_on_c, 0, 52, 40
1, 86400, Tempo, 843882
1, 86400, Note_on_c, 0, 52, 0
1, 86400, Note_on_c, 0, 73, 0
1, 86400, Note_on_c, 0, 85, 0
1, 86400, Note_on_c, 0, 84, 59
1, 86400, Note_on_c, 0, 72, 59
1, 86400, Note_on_c, 0, 45, 40
1, 86400, Control_c, 0, 64, 0
1, 86471, Control_c, 0, 64, 127
1, 86520, Note_on_c, 0, 45, 0
1, 86520, Note_on_c, 0, 52, 36
1, 86640, Note_on_c, 0, 52, 0
1, 86640, Note_on_c, 0, 72, 0
1, 86640, Note_on_c, 0, 84, 0
1, 86640, Note_on_c, 0, 85, 60
1, 86640, Note_on_c, 0, 73, 60
1, 86640, Note_on_c, 0, 45, 40
1, 86760, Note_on_c, 0, 45, 0
1, 86760, Note_on_c, 0, 52, 37
1, 86880, Note_on_c, 0, 52, 0
1, 86880, Note_on_c, 0, 73, 0
1, 86880, Note_on_c, 0, 85, 0
1, 86880, Note_on_c, 0, 81, 58
1, 86880, Note_on_c, 0, 69, 58
1, 86880, Note_on_c, 0, 49, 45
1, 86880, Note_on_c, 0, 45, 38
1, 86887, Control_c, 0, 64, 0
1, 86951, Control_c, 0, 64, 127
1, 87000, Note_on_c, 0, 45, 0
1, 87000, Note_on_c, 0, 49, 0
1, 87000, Note_on_c, 0, 52, 37
1, 87060, Note_on_c, 0, 69, 0
1, 87060, Note_on_c, 0, 81, 0
1, 87120, Note_on_c, 0, 52, 0
1, 87120, Note_on_c, 0, 80, 57
1, 87120, Note_on_c, 0, 68, 57
1, 87120, Note_on_c, 0, 52, 46
1, 87120, Note_on_c, 0, 47, 39
1, 87134, Control_c, 0, 64, 0
1, 87198, Control_c, 0, 64, 127
1, 87240, Tempo, 936037
1, 87240, Note_on_c, 0, 47, 0
1, 87240, Note_on_c, 0, 52, 0
1, 87240, Note_on_c, 0, 56, 38
1, 87300, Note_on_c, 0, 68, 0
1, 87300, Note_on_c, 0, 80, 0
1, 87360, Tempo, 855920
1, 87360, Note_on_c, 0, 56, 0
1, 87360, Note_on_c, 0, 80, 71
1, 87360, Note_on_c, 0, 68, 71
1, 87360, Note_on_c, 0, 52, 57
1, 87360, Note_on_c, 0, 49, 49
1, 87367, Control_c, 0, 64, 0
1, 87429, Control_c, 0, 64, 127
1, 87480, Note_on_c, 0, 49, 0
1, 87480, Note_on_c, 0, 52, 0
1, 87480, Note_on_c, 0, 58, 50
1, 87600, Note_on_c, 0, 58, 0
1, 87600, Note_on_c, 0, 68, 0
1, 87600, Note_on_c, 0, 80, 0
1, 87600, Note_on_c, 0, 78, 65
1, 87600, Note_on_c, 0, 66, 65
1, 87600, Note_on_c, 0, 52, 56
1, 87600, Note_on_c, 0, 49, 47
1, 87720, Tempo, 907716
1, 87720, Note_on_c, 0, 49, 0
1, 87720, Note_on_c, 0, 52, 0
1, 87720, Note_on_c, 0, 58, 45
1, 87840, Tempo, 855920
1, 87840, Note_on_c, 0, 58, 0
1, 87840, Note_on_c, 0, 52, 52
1, 87840, Note_on_c, 0, 48, 44
1, 87852, Control_c, 0, 64, 0
1, 87920, Control_c, 0, 64, 127
1, 87960, Note_on_c, 0, 48, 0
1, 87960, Note_on_c, 0, 52, 0
1, 87960, Note_on_c, 0, 57, 40
1, 88075, Note_on_c, 0, 66, 0
1, 88075, Note_on_c, 0, 78, 0
1, 88080, Note_on_c, 0, 57, 0
1, 88080, Note_on_c, 0, 78, 69
1, 88080, Note_on_c, 0, 66, 69
1, 88080, Note_on_c, 0, 52, 51
1, 88080, Note_on_c, 0, 48, 43
1, 88200, Tempo, 966184
1, 88200, Note_on_c, 0, 48, 0
1, 88200, Note_on_c, 0, 52, 0
1, 88200, Note_on_c, 0, 57, 41
1, 88308, Note_on_c, 0, 66, 0
1, 88308, Note_on_c, 0, 78, 0
1, 88320, Tempo, 862069
1, 88320, Note_on_c, 0, 57, 0
1, 88320, Note_on_c, 0, 78, 49
1, 88320, Note_on_c, 0, 66, 49
1, 88320, Note_on_c, 0, 51, 31
1, 88320, Note_on_c, 0, 47, 26
1, 88327, Control_c, 0, 64, 0
1, 88405, Control_c, 0, 64, 127
1, 88440, Note_on_c, 0, 47, 0
1, 88440, Note_on_c, 0, 51, 0
1, 88440, Note_on_c, 0, 57, 27
1, 88560, Note_on_c, 0, 57, 0
1, 88560, Note_on_c, 0, 66, 0
1, 88560, Note_on_c, 0, 78, 0
1, 88560, Note_on_c, 0, 83, 38
1, 88560, Note_on_c, 0, 71, 38
1, 88560, Note_on_c, 0, 51, 31
1, 88560, Note_on_c, 0, 47, 26
1, 88680, Note_on_c, 0, 47, 0
1, 88680, Note_on_c, 0, 51, 0
1, 88680, Note_on_c, 0, 57, 29
1, 88800, Tempo, 894188
1, 88800, Note_on_c, 0, 57, 0
1, 88800, Note_on_c, 0, 71, 0
1, 88800, Note_on_c, 0, 83, 0
1, 88800, Note_on_c, 0, 82, 46
1, 88800, Note_on_c, 0, 70, 46
1, 88800, Note_on_c, 0, 51, 31
1, 88800, Note_on_c, 0, 47, 26
1, 88809, Control_c, 0, 64, 0
1, 88885, Control_c, 0, 64, 127
1, 88920, Note_on_c, 0, 47, 0
1, 88920, Note_on_c, 0, 51, 0
1, 88920, Note_on_c, 0, 57, 27
1, 89040, Note_on_c, 0, 57, 0
1, 89040, Note_on_c, 0, 70, 0
1, 89040, Note_on_c, 0, 82, 0
1, 89040, Note_on_c, 0, 83, 40
1, 89040, Note_on_c, 0, 71, 40
1, 89040, Note_on_c, 0, 51, 31
1, 89040, Note_on_c, 0, 47, 26
1, 89160, Tempo, 998336
1, 89160, Note_on_c, 0, 47, 0
1, 89160, Note_on_c, 0, 51, 0
1, 89160, Note_on_c, 0, 57, 28
1, 89280, Tempo, 907716
1, 89280, Note_on_c, 0, 57, 0
1, 89280, Note_on_c, 0, 71, 0
1, 89280, Note_on_c, 0, 83, 0
1, 89280, Note_on_c, 0, 76, 51
1, 89280, Note_on_c, 0, 64, 51
1, 89280, Note_on_c, 0, 52, 31
1, 89280, Note_on_c, 0, 56, 31
1, 89287, Control_c, 0, 64, 0
1, 89400, Note_on_c, 0, 56, 0
1, 89400, Note_on_c, 0, 52, 0
1, 89400, Note_on_c, 0, 52, 31
1, 89520, Note_on_c, 0, 52, 0
1, 89520, Note_on_c, 0, 51, 31
1, 89640, Note_on_c, 0, 51, 0
1, 89640, Note_on_c, 0, 49, 31
1, 89760, Note_on_c, 0, 49, 0
1, 89760, Note_on_c, 0, 64, 0
1, 89760, Note_on_c, 0, 76, 0
1, 89760, Note_on_c, 0, 47, 31
1, 89880, Tempo, 966184
1, 89880, Note_on_c, 0, 47, 0
1, 89880, Note_on_c, 0, 45, 30
1, 90000, Tempo, 907716
1, 90000, Note_on_c, 0, 45, 0
1, 90000, Note_on_c, 0, 64, 43
1, 90000, Note_on_c, 0, 44, 25
1, 90120, Tempo, 958466
1, 90120, Note_on_c, 0, 44, 0
1, 90120, Note_on_c, 0, 64, 0
1, 90120, Note_on_c, 0, 66, 39
1, 90120, Note_on_c, 0, 42, 25
1, 90240, Tempo, 900901
1, 90240, Note_on_c, 0, 42, 0
1, 90240, Note_on_c, 0, 66, 0
1, 90240, Note_on_c, 0, 64, 34
1, 90240, Note_on_c, 0, 68, 50
1, 90240, Note_on_c, 0, 40, 25
1, 90318, Control_c, 0, 64, 127
1, 90360, Note_on_c, 0, 64, 0
1, 90360, Note_on_c, 0, 59, 26
1, 90480, Note_on_c, 0, 59, 0
1, 90480, Note_on_c, 0, 40, 0
1, 90480, Note_on_c, 0, 64, 31
1, 90600, Note_on_c, 0, 64, 0
1, 90600, Note_on_c, 0, 59, 26
1, 90720, Tempo, 849858
1, 90720, Note_on_c, 0, 59, 0
1, 90720, Note_on_c, 0, 68, 0
1, 90720, Note_on_c, 0, 68, 30
1, 90720, Note_on_c, 0, 71, 46
1, 90736, Control_c, 0, 64, 0
1, 90819, Control_c, 0, 64, 127
1, 90840, Note_on_c, 0, 68, 0
1, 90840, Note_on_c, 0, 59, 27
1, 90960, Tempo, 881057
1, 90960, Note_on_c, 0, 59, 0
1, 90960, Note_on_c, 0, 71, 0
1, 90960, Note_on_c, 0, 66, 28
1, 90960, Note_on_c, 0, 69, 43
1, 90973, Control_c, 0, 64, 0
1, 91024, Control_c, 0, 64, 127
1, 91080, Tempo, 881057
1, 91080, Note_on_c, 0, 66, 0
1, 91080, Note_on_c, 0, 59, 27
1, 91200, Tempo, 868307
1, 91200, Note_on_c, 0, 59, 0
1, 91200, Note_on_c, 0, 69, 0
1, 91200, Note_on_c, 0, 64, 34
1, 91200, Note_on_c, 0, 68, 50
1, 91200, Note_on_c, 0, 35, 25
1, 91200, Control_c, 0, 64, 0
1, 91264, Control_c, 0, 64, 127
1, 91320, Note_on_c, 0, 64, 0
1, 91320, Note_on_c, 0, 59, 26
1, 91440, Tempo, 849858
1, 91440, Note_on_c, 0, 59, 0
1, 91440, Note_on_c, 0, 35, 0
1, 91440, Note_on_c, 0, 68, 0
1, 91440, Note_on_c, 0, 63, 27
1, 91440, Note_on_c, 0, 66, 41
1, 91454, Control_c, 0, 64, 0
1, 91497, Control_c, 0, 64, 127
1, 91560, Note_on_c, 0, 63, 0
1, 91560, Note_on_c, 0, 59, 25
1, 91650, Note_on_c, 0, 59, 0
1, 91650, Note_on_c, 0, 66, 0
1, 91650, Control_c, 0, 64, 0
1, 91680, Note_on_c, 0, 63, 27
1, 91680, Note_on_c, 0, 66, 41
1, 91744, Control_c, 0, 64, 127
1, 91800, Note_on_c, 0, 63, 0
1, 91800, Note_on_c, 0, 59, 26
1, 91920, Tempo, 832178
1, 91920, Note_on_c, 0, 59, 0
1, 91920, Note_on_c, 0, 66, 0
1, 91920, Note_on_c, 0, 64, 28
1, 91920, Note_on_c, 0, 68, 43
1, 91938, Control_c, 0, 64, 0
1, 92005, Control_c, 0, 64, 127
1, 92040, Note_on_c, 0, 64, 0
1, 92040, Note_on_c, 0, 59, 28
1, 92160, Tempo, 849858
1, 92160, Note_on_c, 0, 59, 0
1, 92160, Note_on_c, 0, 68, 0
1, 92160, Note_on_c, 0, 64, 30
1, 92160, Note_on_c, 0, 69, 46
1, 92160, Note_on_c, 0, 37, 25
1, 92170, Control_c, 0, 64, 0
1, 92245, Control_c, 0, 64, 127
1, 92280, Note_on_c, 0, 64, 0
1, 92280, Note_on_c, 0, 59, 28
1, 92400, Note_on_c, 0, 59, 0
1, 92400, Note_on_c, 0, 37, 0
1, 92400, Note_on_c, 0, 69, 0
1, 92400, Note_on_c, 0, 64, 36
1, 92400, Note_on_c, 0, 73, 54
1, 92520, Note_on_c, 0, 64, 0
1, 92520, Note_on_c, 0, 59, 31
1, 92640, Note_on_c, 0, 59, 0
1, 92640, Note_on_c, 0, 73, 0
1, 92640, Note_on_c, 0, 66, 37
1, 92640, Note_on_c, 0, 71, 47
1, 92640, Note_on_c, 0, 39, 23
1, 92656, Control_c, 0, 64, 0
1, 92718, Control_c, 0, 64, 127
1, 92760, Note_on_c, 0, 66, 0
1, 92760, Note_on_c, 0, 59, 26
1, 92880, Tempo, 868307
1, 92880, Note_on_c, 0, 59, 0
1, 92880, Note_on_c, 0, 39, 0
1, 92880, Note_on_c, 0, 71, 0
1, 92880, Note_on_c, 0, 63, 25
1, 92880, Note_on_c, 0, 66, 38
1, 92880, Note_on_c, 0, 35, 22
1, 93000, Tempo, 1006711
1, 93000, Note_on_c, 0, 63, 0
1, 93000, Note_on_c, 0, 59, 27
1, 93120, Tempo, 928793
1, 93120, Note_on_c, 0, 59, 0
1, 93120, Note_on_c, 0, 35, 0
1, 93120, Note_on_c, 0, 66, 0
1, 93120, Note_on_c, 0, 59, 35
1, 93120, Note_on_c, 0, 64, 35
1, 93120, Note_on_c, 0, 68, 42
1, 93120, Note_on_c, 0, 40, 28
1, 93128, Control_c, 0, 64, 0
1, 93159, Control_c, 0, 64, 127
1, 93360, Tempo, 826446
1, 93360, Note_on_c, 0, 40, 0
1, 93360, Note_on_c, 0, 59, 0
1, 93360, Note_on_c, 0, 64, 0
1, 93360, Note_on_c, 0, 68, 0
1, 93360, Note_on_c, 0, 64, 28
1, 93367, Control_c, 0, 64, 0
1, 93413, Control_c, 0, 64, 127
1, 93480, Note_on_c, 0, 64, 0
1, 93480, Note_on_c, 0, 59, 22
1, 93570, Note_on_c, 0, 78, 42
1, 93600, Tempo, 804290
1, 93600, Note_on_c, 0, 78, 0
1, 93600, Note_on_c, 0, 59, 0
1, 93600, Note_on_c, 0, 76, 47
1, 93600, Note_on_c, 0, 64, 28
1, 93618, Control_c, 0, 64, 0
1, 93720, Note_on_c, 0, 64, 0
1, 93720, Note_on_c, 0, 76, 0
1, 93720, Note_on_c, 0, 75, 42
1, 93720, Note_on_c, 0, 59, 24
1, 93840, Note_on_c, 0, 59, 0
1, 93840, Note_on_c, 0, 75, 0
1, 93840, Note_on_c, 0, 76, 48
1, 93840, Note_on_c, 0, 64, 28
1, 93960, Note_on_c, 0, 64, 0
1, 93960, Note_on_c, 0, 76, 0
1, 93960, Note_on_c, 0, 78, 47
1, 93960, Note_on_c, 0, 59, 25
1, 94050, Note_on_c, 0, 78, 0
1, 94050, Note_on_c, 0, 81, 50
1, 94080, Note_on_c, 0, 81, 0
1, 94080, Note_on_c, 0, 59, 0
1, 94080, Note_on_c, 0, 80, 52
1, 94080, Note_on_c, 0, 64, 30
1, 94200, Note_on_c, 0, 64, 0
1, 94200, Note_on_c, 0, 80, 0
1, 94200, Note_on_c, 0, 78, 47
1, 94200, Note_on_c, 0, 59, 29
1, 94320, Tempo, 809717
1, 94320, Note_on_c, 0, 59, 0
1, 94320, Note_on_c, 0, 78, 0
1, 94320, Note_on_c, 0, 80, 42
1, 94320, Note_on_c, 0, 64, 32
1, 94440, Tempo, 894188
1, 94440, Note_on_c, 0, 64, 0
1, 94440, Note_on_c, 0, 80, 0
1, 94440, Note_on_c, 0, 81, 47
1, 94440, Note_on_c, 0, 59, 31
1, 94560, Tempo, 815217
1, 94560, Note_on_c, 0, 59, 0
1, 94560, Note_on_c, 0, 81, 0
1, 94560, Note_on_c, 0, 71, 45
1, 94560, Note_on_c, 0, 83, 53
1, 94560, Note_on_c, 0, 68, 35
1, 94659, Control_c, 0, 64, 127
1, 94680, Note_on_c, 0, 68, 0
1, 94680, Note_on_c, 0, 59, 32
1, 94800, Note_on_c, 0, 59, 0
1, 94800, Note_on_c, 0, 83, 0
1, 94800, Note_on_c, 0, 71, 0
1, 94800, Note_on_c, 0, 81, 53
1, 94800, Note_on_c, 0, 69, 45
1, 94800, Note_on_c, 0, 66, 39
1, 94807, Control_c, 0, 64, 0
1, 94878, Control_c, 0, 64, 127
1, 94920, Tempo, 881057
1, 94920, Note_on_c, 0, 66, 0
1, 94920, Note_on_c, 0, 59, 36
1, 95040, Tempo, 837989
1, 95040, Note_on_c, 0, 59, 0
1, 95040, Note_on_c, 0, 69, 0
1, 95040, Note_on_c, 0, 81, 0
1, 95040, Note_on_c, 0, 80, 58
1, 95040, Note_on_c, 0, 68, 49
1, 95040, Note_on_c, 0, 64, 45
1, 95047, Control_c, 0, 64, 0
1, 95092, Control_c, 0, 64, 127
1, 95160, Note_on_c, 0, 64, 0
1, 95160, Note_on_c, 0, 59, 37
1, 95280, Note_on_c, 0, 59, 0
1, 95280, Note_on_c, 0, 68, 0
1, 95280, Note_on_c, 0, 80, 0
1, 95280, Note_on_c, 0, 66, 46
1, 95280, Note_on_c, 0, 78, 55
1, 95280, Note_on_c, 0, 63, 43
1, 95295, Control_c, 0, 64, 0
1, 95343, Control_c, 0, 64, 127
1, 95400, Tempo, 900901
1, 95400, Note_on_c, 0, 63, 0
1, 95400, Note_on_c, 0, 59, 37
1, 95492, Control_c, 0, 64, 0
1, 95508, Note_on_c, 0, 78, 0
1, 95508, Note_on_c, 0, 66, 0
1, 95520, Tempo, 843882
1, 95520, Note_on_c, 0, 59, 0
1, 95520, Note_on_c, 0, 66, 58
1, 95520, Note_on_c, 0, 78, 70
1, 95520, Note_on_c, 0, 63, 46
1, 95595, Control_c, 0, 64, 127
1, 95640, Note_on_c, 0, 63, 0
1, 95640, Note_on_c, 0, 59, 39
1, 95760, Note_on_c, 0, 59, 0
1, 95760, Note_on_c, 0, 78, 0
1, 95760, Note_on_c, 0, 66, 0
1, 95760, Note_on_c, 0, 80, 64
1, 95760, Note_on_c, 0, 68, 54
1, 95760, Note_on_c, 0, 65, 49
1, 95768, Control_c, 0, 64, 0
1, 95823, Control_c, 0, 64, 127
1, 95880, Note_on_c, 0, 65, 0
1, 95880, Note_on_c, 0, 59, 44
1, 96000, Note_on_c, 0, 59, 0
1, 96000, Note_on_c, 0, 68, 0
1, 96000, Note_on_c, 0, 80, 0
1, 96000, Note_on_c, 0, 69, 65
1, 96000, Note_on_c, 0, 81, 77
1, 96000, Note_on_c, 0, 66, 58
1, 96006, Control_c, 0, 64, 0
1, 96032, Control_c, 0, 64, 127
1, 96120, Note_on_c, 0, 66, 0
1, 96120, Note_on_c, 0, 59, 48
1, 96240, Note_on_c, 0, 59, 0
1, 96240, Note_on_c, 0, 81, 0
1, 96240, Note_on_c, 0, 69, 0
1, 96240, Note_on_c, 0, 85, 68
1, 96240, Note_on_c, 0, 73, 57
1, 96240, Note_on_c, 0, 69, 53
1, 96247, Control_c, 0, 64, 0
1, 96286, Control_c, 0, 64, 127
1, 96360, Tempo, 900901
1, 96360, Note_on_c, 0, 69, 0
1, 96360, Note_on_c, 0, 59, 47
1, 96480, Tempo, 849858
1, 96480, Note_on_c, 0, 59, 0
1, 96480, Note_on_c, 0, 73, 0
1, 96480, Note_on_c, 0, 85, 0
1, 96480, Note_on_c, 0, 83, 80
1, 96480, Note_on_c, 0, 71, 67
1, 96480, Note_on_c, 0, 68, 57
1, 96494, Control_c, 0, 64, 0
1, 96526, Control_c, 0, 64, 127
1, 96600, Note_on_c, 0, 68, 0
1, 96600, Note_on_c, 0, 59, 44
1, 96720, Tempo, 900901
1, 96720, Note_on_c, 0, 59, 0
1, 96720, Note_on_c, 0, 71, 0
1, 96720, Note_on_c, 0, 83, 0
1, 96720, Note_on_c, 0, 75, 70
1, 96720, Note_on_c, 0, 81, 70
1, 96720, Note_on_c, 0, 87, 83
1, 96720, Note_on_c, 0, 66, 54
1, 96731, Control_c, 0, 64, 0
1, 96770, Control_c, 0, 64, 127
1, 96840, Note_on_c, 0, 66, 0
1, 96840, Note_on_c, 0, 59, 46
1, 96900, Note_on_c, 0, 75, 0
1, 96900, Note_on_c, 0, 87, 0
1, 96900, Note_on_c, 0, 81, 0
1, 96918, Control_c, 0, 64, 0
1, 96960, Note_on_c, 0, 59, 0
1, 96960, Note_on_c, 0, 76, 76
1, 96960, Note_on_c, 0, 80, 76
1, 96960, Note_on_c, 0, 88, 91
1, 96960, Note_on_c, 0, 64, 59
1, 97038, Control_c, 0, 64, 127
1, 97080, Tempo, 849858
1, 97080, Note_on_c, 0, 64, 0
1, 97080, Note_on_c, 0, 59, 49
1, 97200, Note_on_c, 0, 59, 0
1, 97200, Note_on_c, 0, 56, 58
1, 97320, Note_on_c, 0, 56, 0
1, 97320, Note_on_c, 0, 59, 50
1, 97440, Note_on_c, 0, 59, 0
1, 97440, Note_on_c, 0, 88, 0
1, 97440, Note_on_c, 0, 80, 0
1, 97440, Note_on_c, 0, 76, 0
1, 97440, Note_on_c, 0, 52, 45
1, 97468, Control_c, 0, 64, 0
1, 97539, Control_c, 0, 64, 127
1, 97560, Note_on_c, 0, 52, 0
1, 97560, Note_on_c, 0, 59, 31
1, 97680, Note_on_c, 0, 59, 0
1, 97680, Note_on_c, 0, 68, 41
1, 97680, Note_on_c, 0, 64, 34
1, 97680, Note_on_c, 0, 47, 31
1, 97800, Note_on_c, 0, 47, 0
1, 97800, Note_on_c, 0, 59, 31
1, 97920, Tempo, 837989
1, 97920, Note_on_c, 0, 59, 0
1, 97920, Note_on_c, 0, 64, 0
1, 97920, Note_on_c, 0, 68, 0
1, 97920, Note_on_c, 0, 69, 46
1, 97920, Note_on_c, 0, 63, 39
1, 97920, Note_on_c, 0, 54, 40
1, 97930, Control_c, 0, 64, 0
1, 97984, Control_c, 0, 64, 127
1, 98040, Note_on_c, 0, 54, 0
1, 98040, Note_on_c, 0, 59, 33
1, 98160, Note_on_c, 0, 59, 0
1, 98160, Note_on_c, 0, 69, 0
1, 98160, Note_on_c, 0, 73, 39
1, 98160, Note_on_c, 0, 57, 33
1, 98280, Note_on_c, 0, 57, 0
1, 98280, Note_on_c, 0, 59, 33
1, 98400, Note_on_c, 0, 59, 0
1, 98400, Note_on_c, 0, 73, 0
1, 98400, Note_on_c, 0, 63, 0
1, 98400, Note_on_c, 0, 71, 45
1, 98400, Note_on_c, 0, 64, 38
1, 98400, Note_on_c, 0, 56, 37
1, 98411, Control_c, 0, 64, 0
1, 98460, Control_c, 0, 64, 127
1, 98520, Note_on_c, 0, 56, 0
1, 98520, Note_on_c, 0, 59, 33
1, 98640, Note_on_c, 0, 59, 0
1, 98640, Note_on_c, 0, 64, 0
1, 98640, Note_on_c, 0, 71, 0
1, 98640, Note_on_c, 0, 75, 48
1, 98640, Note_on_c, 0, 69, 40
1, 98640, Note_on_c, 0, 54, 33
1, 98658, Control_c, 0, 64, 0
1, 98697, Control_c, 0, 64, 127
1, 98760, Tempo, 914634
1, 98760, Note_on_c, 0, 54, 0
1, 98760, Note_on_c, 0, 59, 33
1, 98820, Note_on_c, 0, 69, 0
1, 98820, Note_on_c, 0, 75, 0
1, 98880, Tempo, 894188
1, 98880, Note_on_c, 0, 59, 0
1, 98880, Note_on_c, 0, 76, 45
1, 98880, Note_on_c, 0, 68, 38
1, 98880, Note_on_c, 0, 52, 40
1, 98885, Control_c, 0, 64, 0
1, 98951, Control_c, 0, 64, 127
1, 99000, Tempo, 849858
1, 99000, Note_on_c, 0, 52, 0
1, 99000, Note_on_c, 0, 59, 35
1, 99120, Note_on_c, 0, 59, 0
1, 99120, Note_on_c, 0, 68, 0
1, 99120, Note_on_c, 0, 76, 0
1, 99120, Note_on_c, 0, 67, 34
1, 99120, Note_on_c, 0, 64, 28
1, 99129, Control_c, 0, 64, 0
1, 99205, Control_c, 0, 64, 127
1, 99240, Note_on_c, 0, 64, 0
1, 99240, Note_on_c, 0, 59, 28
1, 99303, Tempo, 843882
1, 99360, Note_on_c, 0, 59, 0
1, 99360, Note_on_c, 0, 64, 31
1, 99423, Tempo, 837989
1, 99480, Note_on_c, 0, 64, 0
1, 99480, Note_on_c, 0, 59, 28
1, 99543, Tempo, 832178
1, 99600, Note_on_c, 0, 59, 0
1, 99600, Note_on_c, 0, 67, 0
1, 99600, Note_on_c, 0, 79, 57
1, 99600, Note_on_c, 0, 64, 40
1, 99663, Tempo, 826446
1, 99720, Tempo, 907716
1, 99720, Note_on_c, 0, 64, 0
1, 99720, Note_on_c, 0, 59, 49
1, 99840, Tempo, 855920
1, 99840, Note_on_c, 0, 59, 0
1, 99840, Note_on_c, 0, 79, 0
1, 99840, Note_on_c, 0, 81, 67
1, 99840, Note_on_c, 0, 66, 47
1, 99849, Control_c, 0, 64, 0
1, 99879, Control_c, 0, 64, 127
1, 99933, Tempo, 837989
1, 99960, Note_on_c, 0, 66, 0
1, 99960, Note_on_c, 0, 59, 48
1, 100080, Note_on_c, 0, 59, 0
1, 100080, Note_on_c, 0, 81, 0
1, 100080, Note_on_c, 0, 84, 65
1, 100080, Note_on_c, 0, 69, 45
1, 100200, Note_on_c, 0, 69, 0
1, 100200, Note_on_c, 0, 59, 49
1, 100320, Tempo, 868307
1, 100320, Note_on_c, 0, 59, 0
1, 100320, Note_on_c, 0, 84, 0
1, 100320, Note_on_c, 0, 83, 76
1, 100320, Note_on_c, 0, 67, 55
1, 100339, Control_c, 0, 64, 0
1, 100359, Control_c, 0, 64, 127
1, 100440, Note_on_c, 0, 67, 0
1, 100440, Note_on_c, 0, 59, 52
1, 100560, Tempo, 907716
1, 100560, Note_on_c, 0, 59, 0
1, 100560, Note_on_c, 0, 83, 0
1, 100560, Note_on_c, 0, 87, 93
1, 100560, Note_on_c, 0, 81, 79
1, 100560, Note_on_c, 0, 75, 79
1, 100560, Note_on_c, 0, 66, 71
1, 100572, Control_c, 0, 64, 0
1, 100606, Control_c, 0, 64, 127
1, 100680, Tempo, 1006711
1, 100680, Note_on_c, 0, 66, 0
1, 100680, Note_on_c, 0, 59, 65
1, 100740, Note_on_c, 0, 87, 0
1, 100740, Note_on_c, 0, 75, 0
1, 100740, Note_on_c, 0, 81, 0
1, 100800, Key_signature, 1, "major"
1, 100800, Tempo, 874636
1, 100800, Note_on_c, 0, 59, 0
1, 100800, Note_on_c, 0, 76, 85
1, 100800, Note_on_c, 0, 79, 85
1, 100800, Note_on_c, 0, 88, 101
1, 100800, Note_on_c, 0, 64, 80
1, 100811, Control_c, 0, 64, 0
1, 100874, Control_c, 0, 64, 127
1, 100920, Note_on_c, 0, 64, 0
1, 100920, Note_on_c, 0, 59, 65
1, 101040, Tempo, 855920
1, 101040, Note_on_c, 0, 59, 0
1, 101040, Note_on_c, 0, 55, 68
1, 101160, Note_on_c, 0, 55, 0
1, 101160, Note_on_c, 0, 59, 57
1, 101280, Note_on_c, 0, 59, 0
1, 101280, Note_on_c, 0, 88, 0
1, 101280, Note_on_c, 0, 79, 0
1, 101280, Note_on_c, 0, 76, 0
1, 101280, Note_on_c, 0, 52, 44
1, 101400, Note_on_c, 0, 52, 0
1, 101400, Note_on_c, 0, 59, 44
1, 101520, Note_on_c, 0, 59, 0
1, 101520, Note_on_c, 0, 67, 47
1, 101520, Note_on_c, 0, 47, 38
1, 101527, Control_c, 0, 64, 0
1, 101577, Control_c, 0, 64, 127
1, 101640, Tempo, 921659
1, 101640, Note_on_c, 0, 47, 0
1, 101640, Note_on_c, 0, 59, 38
1, 101733, Tempo, 862069
1, 101760, Note_on_c, 0, 59, 0
1, 101760, Note_on_c, 0, 67, 0
1, 101760, Note_on_c, 0, 69, 53
1, 101760, Note_on_c, 0, 54, 35
1, 101768, Control_c, 0, 64, 0
1, 101817, Control_c, 0, 64, 127
1, 101880, Note_on_c, 0, 54, 0
1, 101880, Note_on_c, 0, 59, 36
1, 102000, Note_on_c, 0, 59, 0
1, 102000, Note_on_c, 0, 69, 0
1, 102000, Note_on_c, 0, 72, 48
1, 102000, Note_on_c, 0, 57, 36
1, 102006, Control_c, 0, 64, 0
1, 102120, Note_on_c, 0, 57, 0
1, 102120, Note_on_c, 0, 59, 37
1, 102213, Tempo, 855920
1, 102240, Note_on_c, 0, 59, 0
1, 102240, Note_on_c, 0, 72, 0
1, 102240, Note_on_c, 0, 71, 49
1, 102240, Note_on_c, 0, 55, 39
1, 102292, Control_c, 0, 64, 127
1, 102360, Note_on_c, 0, 55, 0
1, 102360, Note_on_c, 0, 59, 39
1, 102480, Note_on_c, 0, 59, 0
1, 102480, Note_on_c, 0, 71, 0
1, 102480, Note_on_c, 0, 69, 41
1, 102480, Note_on_c, 0, 75, 49
1, 102480, Note_on_c, 0, 54, 40
1, 102488, Control_c, 0, 64, 0
1, 102537, Control_c, 0, 64, 127
1, 102600, Note_on_c, 0, 54, 0
1, 102600, Note_on_c, 0, 75, 0
1, 102600, Note_on_c, 0, 69, 0
1, 102600, Note_on_c, 0, 59, 42
1, 102693, Tempo, 843882
1, 102720, Tempo, 832178
1, 102720, Note_on_c, 0, 59, 0
1, 102720, Note_on_c, 0, 76, 57
1, 102720, Note_on_c, 0, 67, 47
1, 102720, Note_on_c, 0, 52, 43
1, 102728, Control_c, 0, 64, 0
1, 102791, Control_c, 0, 64, 127
1, 102840, Note_on_c, 0, 52, 0
1, 102840, Note_on_c, 0, 67, 0
1, 102840, Note_on_c, 0, 76, 0
1, 102840, Note_on_c, 0, 64, 41
1, 102960, Note_on_c, 0, 64, 0
1, 102960, Note_on_c, 0, 76, 67
1, 102960, Note_on_c, 0, 79, 67
1, 102960, Note_on_c, 0, 50, 44
1, 102969, Control_c, 0, 64, 0
1, 103045, Control_c, 0, 64, 127
1, 103080, Note_on_c, 0, 50, 0
1, 103080, Note_on_c, 0, 79, 0
1, 103080, Note_on_c, 0, 76, 0
1, 103080, Note_on_c, 0, 62, 42
1, 103200, Note_on_c, 0, 62, 0
1, 103200, Note_on_c, 0, 84, 73
1, 103200, Note_on_c, 0, 76, 73
1, 103200, Note_on_c, 0, 48, 49
1, 103213, Control_c, 0, 64, 0
1, 103264, Control_c, 0, 64, 127
1, 103320, Note_on_c, 0, 48, 0
1, 103320, Note_on_c, 0, 76, 0
1, 103320, Note_on_c, 0, 84, 0
1, 103320, Note_on_c, 0, 60, 45
1, 103440, Note_on_c, 0, 60, 0
1, 103440, Note_on_c, 0, 76, 73
1, 103440, Note_on_c, 0, 84, 73
1, 103440, Note_on_c, 0, 47, 51
1, 103454, Control_c, 0, 64, 0
1, 103504, Control_c, 0, 64, 127
1, 103560, Note_on_c, 0, 47, 0
1, 103560, Note_on_c, 0, 84, 0
1, 103560, Note_on_c, 0, 76, 0
1, 103560, Note_on_c, 0, 59, 47
1, 103680, Note_on_c, 0, 59, 0
1, 103680, Note_on_c, 0, 76, 84
1, 103680, Note_on_c, 0, 84, 84
1, 103680, Note_on_c, 0, 45, 52
1, 103697, Control_c, 0, 64, 0
1, 103749, Control_c, 0, 64, 127
1, 103800, Note_on_c, 0, 45, 0
1, 103800, Note_on_c, 0, 84, 0
1, 103800, Note_on_c, 0, 76, 0
1, 103800, Note_on_c, 0, 57, 51
1, 103920, Tempo, 887574
1, 103920, Note_on_c, 0, 57, 0
1, 103920, Note_on_c, 0, 84, 83
1, 103920, Note_on_c, 0, 81, 83
1, 103920, Note_on_c, 0, 43, 57
1, 103930, Control_c, 0, 64, 0
1, 103995, Control_c, 0, 64, 127
1, 104040, Note_on_c, 0, 43, 0
1, 104040, Note_on_c, 0, 81, 0
1, 104040, Note_on_c, 0, 84, 0
1, 104040, Note_on_c, 0, 55, 53
1, 104160, Tempo, 820793
1, 104160, Note_on_c, 0, 55, 0
1, 104160, Note_on_c, 0, 89, 87
1, 104160, Note_on_c, 0, 86, 87
1, 104160, Note_on_c, 0, 41, 57
1, 104172, Control_c, 0, 64, 0
1, 104229, Control_c, 0, 64, 127
1, 104280, Note_on_c, 0, 41, 0
1, 104280, Note_on_c, 0, 86, 0
1, 104280, Note_on_c, 0, 89, 0
1, 104280, Note_on_c, 0, 53, 55
1, 104400, Note_on_c, 0, 53, 0
1, 104400, Note_on_c, 0, 89, 85
1, 104400, Note_on_c, 0, 86, 85
1, 104400, Note_on_c, 0, 40, 63
1, 104417, Control_c, 0, 64, 0
1, 104463, Control_c, 0, 64, 127
1, 104520, Note_on_c, 0, 40, 0
1, 104520, Note_on_c, 0, 86, 0
1, 104520, Note_on_c, 0, 89, 0
1, 104520, Note_on_c, 0, 52, 59
1, 104613, Tempo, 820793
1, 104640, Key_signature, 0, "major"
1, 104640, Tempo, 798935
1, 104640, Note_on_c, 0, 52, 0
1, 104640, Note_on_c, 0, 89, 90
1, 104640, Note_on_c, 0, 86, 90
1, 104640, Note_on_c, 0, 38, 69
1, 104646, Control_c, 0, 64, 0
1, 104704, Control_c, 0, 64, 127
1, 104760, Note_on_c, 0, 38, 0
1, 104760, Note_on_c, 0, 86, 0
1, 104760, Note_on_c, 0, 89, 0
1, 104760, Note_on_c, 0, 50, 67
1, 104880, Note_on_c, 0, 50, 0
1, 104880, Note_on_c, 0, 86, 86
1, 104880, Note_on_c, 0, 89, 86
1, 104880, Note_on_c, 0, 36, 74
1, 104890, Control_c, 0, 64, 0
1, 104965, Control_c, 0, 64, 127
1, 105000, Note_on_c, 0, 36, 0
1, 105000, Note_on_c, 0, 89, 0
1, 105000, Note_on_c, 0, 86, 0
1, 105000, Note_on_c, 0, 48, 77
1, 105120, Note_on_c, 0, 48, 0
1, 105120, Note_on_c, 0, 86, 88
1, 105120, Note_on_c, 0, 89, 88
1, 105120, Note_on_c, 0, 35, 81
1, 105136, Control_c, 0, 64, 0
1, 105212, Control_c, 0, 64, 127
1, 105240, Note_on_c, 0, 35, 0
1, 105240, Note_on_c, 0, 89, 0
1, 105240, Note_on_c, 0, 86, 0
1, 105240, Note_on_c, 0, 47, 76
1, 105360, Note_on_c, 0, 47, 0
1, 105360, Note_on_c, 0, 86, 94
1, 105360, Note_on_c, 0, 89, 94
1, 105360, Note_on_c, 0, 33, 83
1, 105376, Control_c, 0, 64, 0
1, 105424, Control_c, 0, 64, 127
1, 105480, Tempo, 855920
1, 105480, Note_on_c, 0, 33, 0
1, 105480, Note_on_c, 0, 89, 0
1, 105480, Note_on_c, 0, 86, 0
1, 105480, Note_on_c, 0, 45, 80
1, 105600, Tempo, 804290
1, 105600, Note_on_c, 0, 45, 0
1, 105600, Note_on_c, 0, 89, 102
1, 105600, Note_on_c, 0, 86, 102
1, 105600, Note_on_c, 0, 31, 86
1, 105600, Control_c, 0, 64, 0
1, 105680, Control_c, 0, 64, 127
1, 105720, Note_on_c, 0, 31, 0
1, 105720, Note_on_c, 0, 43, 80
1, 105840, Note_on_c, 0, 43, 0
1, 105840, Note_on_c, 0, 35, 86
1, 105960, Note_on_c, 0, 35, 0
1, 105960, Note_on_c, 0, 47, 80
1, 106080, Note_on_c, 0, 47, 0
1, 106080, Note_on_c, 0, 38, 86
1, 106200, Note_on_c, 0, 38, 0
1, 106200, Note_on_c, 0, 50, 81
1, 106320, Note_on_c, 0, 50, 0
1, 106320, Note_on_c, 0, 42, 87
1, 106413, Tempo, 826446
1, 106440, Note_on_c, 0, 42, 0
1, 106440, Note_on_c, 0, 54, 81
1, 106560, Note_on_c, 0, 54, 0
1, 106560, Note_on_c, 0, 43, 86
1, 106560, Control_c, 0, 64, 0
1, 106563, Tempo, 832178
1, 106600, Control_c, 0, 64, 127
1, 106623, Tempo, 855920
1, 106680, Note_on_c, 0, 43, 0
1, 106680, Note_on_c, 0, 55, 76
1, 106713, Tempo, 849858
1, 106800, Note_on_c, 0, 55, 0
1, 106800, Note_on_c, 0, 47, 81
1, 106803, Tempo, 843882
1, 106893, Tempo, 837989
1, 106920, Note_on_c, 0, 47, 0
1, 106920, Note_on_c, 0, 59, 73
1, 106953, Tempo, 832178
1, 107040, Note_on_c, 0, 59, 0
1, 107040, Note_on_c, 0, 50, 77
1, 107073, Tempo, 826446
1, 107160, Note_on_c, 0, 50, 0
1, 107160, Note_on_c, 0, 62, 76
1, 107280, Note_on_c, 0, 62, 0
1, 107280, Note_on_c, 0, 54, 73
1, 107400, Note_on_c, 0, 54, 0
1, 107400, Note_on_c, 0, 66, 73
1, 107520, Note_on_c, 0, 66, 0
1, 107520, Note_on_c, 0, 55, 81
1, 107520, Control_c, 0, 64, 0
1, 107553, Tempo, 826446
1, 107591, Control_c, 0, 64, 127
1, 107640, Note_on_c, 0, 55, 0
1, 107640, Note_on_c, 0, 67, 53
1, 107673, Tempo, 832178
1, 107760, Note_on_c, 0, 67, 0
1, 107760, Note_on_c, 0, 86, 0
1, 107760, Note_on_c, 0, 89, 0
1, 107760, Note_on_c, 0, 86, 62
1, 107760, Note_on_c, 0, 89, 62
1, 107760, Note_on_c, 0, 57, 50
1, 107763, Tempo, 837989
1, 107777, Control_c, 0, 64, 0
1, 107824, Control_c, 0, 64, 127
1, 107880, Note_on_c, 0, 57, 0
1, 107880, Note_on_c, 0, 69, 49
1, 107883, Tempo, 843882
1, 107973, Tempo, 849858
1, 108000, Note_on_c, 0, 69, 0
1, 108000, Note_on_c, 0, 59, 49
1, 108012, Control_c, 0, 64, 0
1, 108064, Control_c, 0, 64, 127
1, 108120, Note_on_c, 0, 59, 0
1, 108120, Note_on_c, 0, 71, 48
1, 108240, Note_on_c, 0, 71, 0
1, 108240, Note_on_c, 0, 89, 0
1, 108240, Note_on_c, 0, 86, 0
1, 108240, Note_on_c, 0, 88, 54
1, 108240, Note_on_c, 0, 84, 54
1, 108240, Note_on_c, 0, 60, 46
1, 108248, Control_c, 0, 64, 0
1, 108304, Control_c, 0, 64, 127
1, 108360, Note_on_c, 0, 60, 0
1, 108360, Note_on_c, 0, 84, 0
1, 108360, Note_on_c, 0, 88, 0
1, 108360, Note_on_c, 0, 72, 42
1, 108480, Note_on_c, 0, 72, 0
1, 108480, Note_on_c, 0, 86, 46
1, 108480, Note_on_c, 0, 65, 42
1, 108483, Tempo, 881057
1, 108487, Control_c, 0, 64, 0
1, 108532, Control_c, 0, 64, 127
1, 108600, Note_on_c, 0, 65, 0
1, 108600, Note_on_c, 0, 86, 0
1, 108600, Note_on_c, 0, 72, 35
1, 108720, Note_on_c, 0, 72, 0
1, 108720, Note_on_c, 0, 74, 41
1, 108720, Note_on_c, 0, 81, 49
1, 108720, Note_on_c, 0, 66, 39
1, 108732, Control_c, 0, 64, 0
1, 108789, Control_c, 0, 64, 127
1, 108840, Note_on_c, 0, 66, 0
1, 108840, Note_on_c, 0, 81, 0
1, 108840, Note_on_c, 0, 74, 0
1, 108840, Note_on_c, 0, 72, 34
1, 108933, Tempo, 887574
1, 108960, Note_on_c, 0, 72, 0
1, 108960, Note_on_c, 0, 79, 43
1, 108960, Note_on_c, 0, 76, 36
1, 108960, Note_on_c, 0, 67, 39
1, 108972, Control_c, 0, 64, 0
1, 108993, Tempo, 894188
1, 109023, Control_c, 0, 64, 127
1, 109053, Tempo, 900901
1, 109080, Note_on_c, 0, 67, 0
1, 109080, Note_on_c, 0, 72, 35
1, 109113, Tempo, 907716
1, 109173, Tempo, 914634
1, 109200, Note_on_c, 0, 72, 0
1, 109200, Note_on_c, 0, 76, 0
1, 109200, Note_on_c, 0, 79, 0
1, 109200, Note_on_c, 0, 79, 43
1, 109200, Note_on_c, 0, 74, 36
1, 109200, Note_on_c, 0, 71, 36
1, 109200, Note_on_c, 0, 55, 40
1, 109217, Control_c, 0, 64, 0
1, 109233, Tempo, 921659
1, 109263, Control_c, 0, 64, 127
1, 109293, Tempo, 928793
1, 109320, Note_on_c, 0, 55, 0
1, 109320, Note_on_c, 0, 79, 0
1, 109320, Note_on_c, 0, 74, 0
1, 109320, Note_on_c, 0, 71, 0
1, 109320, Note_on_c, 0, 67, 40
1, 109440, Tempo, 744417
1, 109440, Note_on_c, 0, 67, 0
1, 109440, Note_on_c, 0, 76, 43
1, 109440, Note_on_c, 0, 72, 43
1, 109440, Note_on_c, 0, 67, 36
1, 109440, Note_on_c, 0, 48, 32
1, 109449, Control_c, 0, 64, 0
1, 109525, Control_c, 0, 64, 127
1, 109600, Note_on_c, 0, 48, 0
1, 109600, Note_on_c, 0, 55, 27
1, 109760, Note_on_c, 0, 55, 0
1, 109760, Note_on_c, 0, 52, 27
1, 109920, Note_on_c, 0, 52, 0
1, 109920, Note_on_c, 0, 48, 32
1, 110080, Note_on_c, 0, 48, 0
1, 110080, Note_on_c, 0, 60, 27
1, 110240, Tempo, 894188
1, 110240, Note_on_c, 0, 60, 0
1, 110240, Note_on_c, 0, 55, 27
1, 110280, Tempo, 832178
1, 110400, Tempo, 753769
1, 110400, Note_on_c, 0, 55, 0
1, 110400, Note_on_c, 0, 67, 0
1, 110400, Note_on_c, 0, 72, 0
1, 110400, Note_on_c, 0, 76, 0
1, 110400, Note_on_c, 0, 65, 28
1, 110400, Note_on_c, 0, 74, 34
1, 110400, Note_on_c, 0, 77, 34
1, 110400, Note_on_c, 0, 50, 32
1, 110407, Control_c, 0, 64, 0
1, 110433, Tempo, 744417
1, 110452, Control_c, 0, 64, 127
1, 110463, Tempo, 744417
1, 110553, Tempo, 739827
1, 110560, Note_on_c, 0, 50, 0
1, 110560, Note_on_c, 0, 59, 27
1, 110613, Tempo, 735294
1, 110673, Tempo, 730816
1, 110720, Note_on_c, 0, 59, 0
1, 110720, Note_on_c, 0, 55, 27
1, 110733, Tempo, 726392
1, 110793, Tempo, 722022
1, 110853, Tempo, 717703
1, 110880, Note_on_c, 0, 55, 0
1, 110880, Note_on_c, 0, 65, 0
1, 110880, Note_on_c, 0, 74, 0
1, 110880, Note_on_c, 0, 77, 0
1, 110880, Note_on_c, 0, 67, 25
1, 110880, Note_on_c, 0, 72, 30
1, 110880, Note_on_c, 0, 76, 30
1, 110880, Note_on_c, 0, 52, 33
1, 110892, Control_c, 0, 64, 0
1, 110949, Control_c, 0, 64, 127
1, 110973, Tempo, 722022
1, 111003, Tempo, 717703
1, 111033, Tempo, 726392
1, 111040, Note_on_c, 0, 52, 0
1, 111040, Note_on_c, 0, 60, 27
1, 111063, Tempo, 730816
1, 111093, Tempo, 735294
1, 111123, Tempo, 744417
1, 111200, Tempo, 900901
1, 111200, Note_on_c, 0, 60, 0
1, 111200, Note_on_c, 0, 55, 29
1, 111240, Tempo, 820793
1, 111360, Tempo, 749064
1, 111360, Note_on_c, 0, 55, 0
1, 111360, Note_on_c, 0, 67, 0
1, 111360, Note_on_c, 0, 72, 0
1, 111360, Note_on_c, 0, 76, 0
1, 111360, Note_on_c, 0, 69, 39
1, 111360, Note_on_c, 0, 74, 39
1, 111360, Note_on_c, 0, 53, 32
1, 111363, Tempo, 722022
1, 111369, Control_c, 0, 64, 0
1, 111440, Control_c, 0, 64, 127
1, 111520, Note_on_c, 0, 53, 0
1, 111520, Note_on_c, 0, 62, 29
1, 111680, Tempo, 881057
1, 111680, Note_on_c, 0, 62, 0
1, 111680, Note_on_c, 0, 57, 29
1, 111720, Tempo, 832178
1, 111840, Tempo, 753769
1, 111840, Note_on_c, 0, 57, 0
1, 111840, Note_on_c, 0, 74, 0
1, 111840, Note_on_c, 0, 69, 0
1, 111840, Note_on_c, 0, 72, 35
1, 111840, Note_on_c, 0, 69, 29
1, 111840, Note_on_c, 0, 54, 34
1, 111859, Control_c, 0, 64, 0
1, 111920, Control_c, 0, 64, 127
1, 112000, Note_on_c, 0, 54, 0
1, 112000, Note_on_c, 0, 63, 31
1, 112160, Tempo, 887574
1, 112160, Note_on_c, 0, 63, 0
1, 112160, Note_on_c, 0, 60, 30
1, 112320, Tempo, 804290
1, 112320, Note_on_c, 0, 60, 0
1, 112320, Note_on_c, 0, 69, 0
1, 112320, Note_on_c, 0, 67, 33
1, 112320, Note_on_c, 0, 55, 37
1, 112327, Control_c, 0, 64, 0
1, 112372, Control_c, 0, 64, 127
1, 112480, Note_on_c, 0, 55, 0
1, 112480, Note_on_c, 0, 64, 32
1, 112560, Tempo, 815217
1, 112640, Tempo, 887574
1, 112640, Note_on_c, 0, 64, 0
1, 112640, Note_on_c, 0, 60, 32
1, 112800, Tempo, 793651
1, 112800, Note_on_c, 0, 60, 0
1, 112800, Note_on_c, 0, 67, 0
1, 112800, Note_on_c, 0, 72, 0
1, 112800, Note_on_c, 0, 71, 56
1, 112800, Note_on_c, 0, 67, 34
1, 112800, Note_on_c, 0, 53, 39
1, 112813, Control_c, 0, 64, 0
1, 112857, Control_c, 0, 64, 127
1, 112960, Note_on_c, 0, 53, 0
1, 112960, Note_on_c, 0, 65, 33
1, 113040, Note_on_c, 0, 71, 0
1, 113040, Note_on_c, 0, 79, 60
1, 113120, Tempo, 936037
1, 113120, Note_on_c, 0, 65, 0
1, 113120, Note_on_c, 0, 62, 33
1, 113120, Note_on_c, 0, 59, 33
1, 113280, Tempo, 788436
1, 113280, Note_on_c, 0, 59, 0
1, 113280, Note_on_c, 0, 67, 0
1, 113280, Note_on_c, 0, 79, 0
1, 113280, Note_on_c, 0, 62, 0
1, 113280, Note_on_c, 0, 67, 51
1, 113280, Note_on_c, 0, 75, 51
1, 113280, Note_on_c, 0, 79, 60
1, 113280, Note_on_c, 0, 60, 39
1, 113283, Tempo, 753769
1, 113290, Control_c, 0, 64, 0
1, 113351, Control_c, 0, 64, 127
1, 113400, Note_on_c, 0, 60, 0
1, 113400, Note_on_c, 0, 55, 32
1, 113403, Tempo, 749064
1, 113520, Note_on_c, 0, 55, 0
1, 113520, Note_on_c, 0, 51, 32
1, 113523, Tempo, 744417
1, 113613, Tempo, 739827
1, 113640, Note_on_c, 0, 51, 0
1, 113640, Note_on_c, 0, 55, 30
1, 113733, Tempo, 735294
1, 113760, Note_on_c, 0, 55, 0
1, 113760, Note_on_c, 0, 48, 38
1, 113823, Tempo, 730816
1, 113880, Note_on_c, 0, 48, 0
1, 113880, Note_on_c, 0, 60, 33
1, 113883, Tempo, 735294
1, 113913, Tempo, 739827
1, 113973, Tempo, 744417
1, 114000, Note_on_c, 0, 60, 0
1, 114000, Note_on_c, 0, 55, 34
1, 114003, Tempo, 749064
1, 114063, Tempo, 753769
1, 114093, Tempo, 758534
1, 114120, Note_on_c, 0, 55, 0
1, 114120, Note_on_c, 0, 48, 32
1, 114133, Tempo, 783290
1, 114193, Tempo, 788436
1, 114240, Tempo, 744417
1, 114240, Note_on_c, 0, 48, 0
1, 114240, Note_on_c, 0, 79, 0
1, 114240, Note_on_c, 0, 75, 0
1, 114240, Note_on_c, 0, 67, 0
1, 114240, Note_on_c, 0, 65, 46
1, 114240, Note_on_c, 0, 74, 46
1, 114240, Note_on_c, 0, 77, 57
1, 114240, Note_on_c, 0, 50, 45
1, 114247, Control_c, 0, 64, 0
1, 114311, Control_c, 0, 64, 127
1, 114360, Note_on_c, 0, 50, 0
1, 114360, Note_on_c, 0, 59, 36
1, 114480, Note_on_c, 0, 59, 0
1, 114480, Note_on_c, 0, 55, 36
1, 114600, Note_on_c, 0, 55, 0
1, 114600, Note_on_c, 0, 50, 33
1, 114720, Note_on_c, 0, 50, 0
1, 114720, Note_on_c, 0, 77, 0
1, 114720, Note_on_c, 0, 74, 0
1, 114720, Note_on_c, 0, 65, 0
1, 114720, Note_on_c, 0, 63, 47
1, 114720, Note_on_c, 0, 72, 47
1, 114720, Note_on_c, 0, 75, 58
1, 114720, Note_on_c, 0, 67, 47
1, 114720, Note_on_c, 0, 51, 43
1, 114734, Control_c, 0, 64, 0
1, 114826, Control_c, 0, 64, 127
1, 114840, Note_on_c, 0, 51, 0
1, 114840, Note_on_c, 0, 60, 39
1, 114960, Note_on_c, 0, 60, 0
1, 114960, Note_on_c, 0, 55, 39
1, 115040, Tempo, 900901
1, 115080, Note_on_c, 0, 55, 0
1, 115080, Note_on_c, 0, 51, 37
1, 115200, Tempo, 758534
1, 115200, Note_on_c, 0, 51, 0
1, 115200, Note_on_c, 0, 67, 0
1, 115200, Note_on_c, 0, 63, 0
1, 115200, Note_on_c, 0, 72, 0
1, 115200, Note_on_c, 0, 75, 0
1, 115200, Note_on_c, 0, 68, 62
1, 115200, Note_on_c, 0, 74, 73
1, 115200, Note_on_c, 0, 53, 56
1, 115207, Control_c, 0, 64, 0
1, 115292, Control_c, 0, 64, 127
1, 115320, Note_on_c, 0, 53, 0
1, 115320, Note_on_c, 0, 62, 42
1, 115440, Note_on_c, 0, 62, 0
1, 115440, Note_on_c, 0, 56, 42
1, 115560, Tempo, 815217
1, 115560, Note_on_c, 0, 56, 0
1, 115560, Note_on_c, 0, 53, 39
1, 115680, Tempo, 849858
1, 115680, Note_on_c, 0, 53, 0
1, 115680, Note_on_c, 0, 74, 0
1, 115680, Note_on_c, 0, 68, 0
1, 115680, Note_on_c, 0, 69, 63
1, 115680, Note_on_c, 0, 72, 74
1, 115680, Note_on_c, 0, 54, 57
1, 115696, Control_c, 0, 64, 0
1, 115765, Control_c, 0, 64, 127
1, 115800, Tempo, 768246
1, 115800, Note_on_c, 0, 54, 0
1, 115800, Note_on_c, 0, 63, 44
1, 115920, Note_on_c, 0, 63, 0
1, 115920, Note_on_c, 0, 60, 45
1, 116000, Tempo, 887574
1, 116040, Tempo, 826446
1, 116040, Note_on_c, 0, 60, 0
1, 116040, Note_on_c, 0, 54, 43
1, 116150, Note_on_c, 0, 54, 0
1, 116160, Tempo, 788436
1, 116160, Note_on_c, 0, 69, 0
1, 116160, Note_on_c, 0, 67, 64
1, 116160, Note_on_c, 0, 55, 62
1, 116168, Control_c, 0, 64, 0
1, 116217, Control_c, 0, 64, 127
1, 116280, Note_on_c, 0, 55, 0
1, 116280, Note_on_c, 0, 63, 47
1, 116400, Note_on_c, 0, 63, 0
1, 116400, Note_on_c, 0, 60, 48
1, 116480, Tempo, 887574
1, 116520, Note_on_c, 0, 60, 0
1, 116520, Note_on_c, 0, 55, 47
1, 116640, Tempo, 809717
1, 116640, Note_on_c, 0, 55, 0
1, 116640, Note_on_c, 0, 67, 0
1, 116640, Note_on_c, 0, 72, 0
1, 116640, Note_on_c, 0, 66, 76
1, 116640, Note_on_c, 0, 72, 76
1, 116640, Note_on_c, 0, 56, 58
1, 116657, Control_c, 0, 64, 0
1, 116703, Control_c, 0, 64, 127
1, 116760, Note_on_c, 0, 56, 0
1, 116760, Note_on_c, 0, 63, 52
1, 116880, Note_on_c, 0, 63, 0
1, 116880, Note_on_c, 0, 72, 0
1, 116880, Note_on_c, 0, 66, 0
1, 116880, Note_on_c, 0, 80, 82
1, 116880, Note_on_c, 0, 60, 57
1, 116960, Tempo, 874636
1, 117000, Note_on_c, 0, 60, 0
1, 117000, Note_on_c, 0, 63, 58
1, 117120, Tempo, 758534
1, 117120, Note_on_c, 0, 63, 0
1, 117120, Note_on_c, 0, 80, 0
1, 117120, Note_on_c, 0, 80, 43
1, 117120, Note_on_c, 0, 76, 43
1, 117120, Note_on_c, 0, 68, 36
1, 117120, Note_on_c, 0, 61, 32
1, 117120, Note_on_c, 0, 49, 32
1, 117129, Control_c, 0, 64, 0
1, 117205, Control_c, 0, 64, 127
1, 117280, Note_on_c, 0, 49, 0
1, 117280, Note_on_c, 0, 61, 0
1, 117280, Note_on_c, 0, 56, 27
1, 117440, Note_on_c, 0, 56, 0
1, 117440, Note_on_c, 0, 52, 27
1, 117600, Note_on_c, 0, 52, 0
1, 117600, Note_on_c, 0, 49, 32
1, 117760, Note_on_c, 0, 49, 0
1, 117760, Note_on_c, 0, 61, 27
1, 117920, Tempo, 894188
1, 117920, Note_on_c, 0, 61, 0
1, 117920, Note_on_c, 0, 56, 27
1, 117960, Tempo, 849858
1, 118080, Tempo, 768246
1, 118080, Note_on_c, 0, 56, 0
1, 118080, Note_on_c, 0, 68, 0
1, 118080, Note_on_c, 0, 76, 0
1, 118080, Note_on_c, 0, 80, 0
1, 118080, Note_on_c, 0, 66, 28
1, 118080, Note_on_c, 0, 75, 34
1, 118080, Note_on_c, 0, 78, 34
1, 118080, Note_on_c, 0, 51, 32
1, 118087, Control_c, 0, 64, 0
1, 118132, Control_c, 0, 64, 127
1, 118200, Tempo, 778210
1, 118240, Note_on_c, 0, 51, 0
1, 118240, Note_on_c, 0, 60, 27
1, 118400, Note_on_c, 0, 60, 0
1, 118400, Note_on_c, 0, 56, 27
1, 118560, Note_on_c, 0, 56, 0
1, 118560, Note_on_c, 0, 66, 0
1, 118560, Note_on_c, 0, 75, 0
1, 118560, Note_on_c, 0, 78, 0
1, 118560, Note_on_c, 0, 68, 25
1, 118560, Note_on_c, 0, 73, 30
1, 118560, Note_on_c, 0, 76, 30
1, 118560, Note_on_c, 0, 52, 33
1, 118572, Control_c, 0, 64, 0
1, 118629, Control_c, 0, 64, 127
1, 118720, Note_on_c, 0, 52, 0
1, 118720, Note_on_c, 0, 61, 27
1, 118880, Tempo, 900901
1, 118880, Note_on_c, 0, 61, 0
1, 118880, Note_on_c, 0, 56, 29
1, 119040, Key_signature, 4, "major"
1, 119040, Tempo, 788436
1, 119040, Note_on_c, 0, 56, 0
1, 119040, Note_on_c, 0, 68, 0
1, 119040, Note_on_c, 0, 73, 0
1, 119040, Note_on_c, 0, 76, 0
1, 119040, Note_on_c, 0, 69, 39
1, 119040, Note_on_c, 0, 75, 39
1, 119040, Note_on_c, 0, 54, 32
1, 119049, Control_c, 0, 64, 0
1, 119120, Control_c, 0, 64, 127
1, 119200, Note_on_c, 0, 54, 0
1, 119200, Note_on_c, 0, 63, 29
1, 119360, Tempo, 881057
1, 119360, Note_on_c, 0, 63, 0
1, 119360, Note_on_c, 0, 57, 29
1, 119400, Tempo, 849858
1, 119520, Tempo, 804290
1, 119520, Note_on_c, 0, 57, 0
1, 119520, Note_on_c, 0, 75, 0
1, 119520, Note_on_c, 0, 69, 0
1, 119520, Note_on_c, 0, 73, 35
1, 119520, Note_on_c, 0, 70, 29
1, 119520, Note_on_c, 0, 55, 34
1, 119539, Control_c, 0, 64, 0
1, 119600, Control_c, 0, 64, 127
1, 119680, Note_on_c, 0, 55, 0
1, 119680, Note_on_c, 0, 64, 31
1, 119840, Tempo, 887574
1, 119840, Note_on_c, 0, 64, 0
1, 119840, Note_on_c, 0, 61, 30
1, 119880, Tempo, 849858
1, 120000, Tempo, 809717
1, 120000, Note_on_c, 0, 61, 0
1, 120000, Note_on_c, 0, 70, 0
1, 120000, Note_on_c, 0, 68, 33
1, 120000, Note_on_c, 0, 56, 37
1, 120007, Control_c, 0, 64, 0
1, 120052, Control_c, 0, 64, 127
1, 120160, Note_on_c, 0, 56, 0
1, 120160, Note_on_c, 0, 64, 32
1, 120320, Tempo, 887574
1, 120320, Note_on_c, 0, 64, 0
1, 120320, Note_on_c, 0, 61, 32
1, 120360, Tempo, 855920
1, 120480, Tempo, 815217
1, 120480, Note_on_c, 0, 61, 0
1, 120480, Note_on_c, 0, 68, 0
1, 120480, Note_on_c, 0, 73, 0
1, 120480, Note_on_c, 0, 72, 56
1, 120480, Note_on_c, 0, 68, 34
1, 120480, Note_on_c, 0, 56, 39
1, 120493, Control_c, 0, 64, 0
1, 120537, Control_c, 0, 64, 127
1, 120600, Note_on_c, 0, 56, 0
1, 120600, Note_on_c, 0, 63, 32
1, 120720, Note_on_c, 0, 63, 0
1, 120720, Note_on_c, 0, 72, 0
1, 120720, Note_on_c, 0, 80, 60
1, 120720, Note_on_c, 0, 60, 34
1, 120800, Tempo, 936037
1, 120840, Tempo, 881057
1, 120840, Note_on_c, 0, 60, 0
1, 120840, Note_on_c, 0, 63, 32
1, 120960, Tempo, 798935
1, 120960, Note_on_c, 0, 63, 0
1, 120960, Note_on_c, 0, 80, 0
1, 120960, Note_on_c, 0, 68, 0
1, 120960, Note_on_c, 0, 68, 51
1, 120960, Note_on_c, 0, 77, 51
1, 120960, Note_on_c, 0, 80, 60
1, 120960, Note_on_c, 0, 49, 36
1, 120960, Note_on_c, 0, 61, 39
1, 120970, Control_c, 0, 64, 0
1, 120993, Tempo, 763359
1, 121031, Control_c, 0, 64, 127
1, 121080, Note_on_c, 0, 61, 0
1, 121080, Note_on_c, 0, 49, 0
1, 121080, Note_on_c, 0, 56, 32
1, 121113, Tempo, 758534
1, 121200, Note_on_c, 0, 56, 0
1, 121200, Note_on_c, 0, 53, 32
1, 121233, Tempo, 753769
1, 121320, Note_on_c, 0, 53, 0
1, 121320, Note_on_c, 0, 56, 30
1, 121353, Tempo, 749064
1, 121440, Note_on_c, 0, 56, 0
1, 121440, Note_on_c, 0, 49, 38
1, 121473, Tempo, 744417
1, 121560, Note_on_c, 0, 49, 0
1, 121560, Note_on_c, 0, 61, 33
1, 121593, Tempo, 739827
1, 121623, Tempo, 744417
1, 121653, Tempo, 749064
1, 121680, Note_on_c, 0, 61, 0
1, 121680, Note_on_c, 0, 56, 34
1, 121683, Tempo, 753769
1, 121713, Tempo, 758534
1, 121743, Tempo, 763359
1, 121773, Tempo, 768246
1, 121783, Tempo, 783290
1, 121800, Note_on_c, 0, 56, 0
1, 121800, Note_on_c, 0, 49, 32
1, 121843, Tempo, 788436
1, 121903, Tempo, 793651
1, 121920, Tempo, 855920
1, 121920, Note_on_c, 0, 49, 0
1, 121920, Note_on_c, 0, 80, 0
1, 121920, Note_on_c, 0, 77, 0
1, 121920, Note_on_c, 0, 68, 0
1, 121920, Note_on_c, 0, 66, 46
1, 121920, Note_on_c, 0, 75, 46
1, 121920, Note_on_c, 0, 78, 57
1, 121920, Note_on_c, 0, 51, 45
1, 121927, Control_c, 0, 64, 0
1, 121991, Control_c, 0, 64, 127
1, 122040, Tempo, 749064
1, 122040, Note_on_c, 0, 51, 0
1, 122040, Note_on_c, 0, 60, 36
1, 122160, Note_on_c, 0, 60, 0
1, 122160, Note_on_c, 0, 56, 36
1, 122280, Note_on_c, 0, 56, 0
1, 122280, Note_on_c, 0, 51, 33
1, 122400, Note_on_c, 0, 51, 0
1, 122400, Note_on_c, 0, 78, 0
1, 122400, Note_on_c, 0, 75, 0
1, 122400, Note_on_c, 0, 66, 0
1, 122400, Note_on_c, 0, 65, 47
1, 122400, Note_on_c, 0, 73, 47
1, 122400, Note_on_c, 0, 77, 58
1, 122400, Note_on_c, 0, 68, 47
1, 122400, Note_on_c, 0, 53, 43
1, 122414, Control_c, 0, 64, 0
1, 122506, Control_c, 0, 64, 127
1, 122520, Note_on_c, 0, 53, 0
1, 122520, Note_on_c, 0, 61, 39
1, 122640, Note_on_c, 0, 61, 0
1, 122640, Note_on_c, 0, 56, 39
1, 122720, Tempo, 900901
1, 122760, Tempo, 832178
1, 122760, Note_on_c, 0, 56, 0
1, 122760, Note_on_c, 0, 53, 37
1, 122880, Tempo, 749064
1, 122880, Note_on_c, 0, 53, 0
1, 122880, Note_on_c, 0, 68, 0
1, 122880, Note_on_c, 0, 65, 0
1, 122880, Note_on_c, 0, 73, 0
1, 122880, Note_on_c, 0, 77, 0
1, 122880, Note_on_c, 0, 69, 62
1, 122880, Note_on_c, 0, 75, 73
1, 122880, Note_on_c, 0, 54, 56
1, 122887, Control_c, 0, 64, 0
1, 122972, Control_c, 0, 64, 127
1, 123000, Note_on_c, 0, 54, 0
1, 123000, Note_on_c, 0, 61, 42
1, 123120, Note_on_c, 0, 61, 0
1, 123120, Note_on_c, 0, 57, 42
1, 123200, Tempo, 881057
1, 123240, Tempo, 832178
1, 123240, Note_on_c, 0, 57, 0
1, 123240, Note_on_c, 0, 54, 39
1, 123350, Note_on_c, 0, 54, 0
1, 123360, Tempo, 763359
1, 123360, Note_on_c, 0, 75, 0
1, 123360, Note_on_c, 0, 69, 0
1, 123360, Note_on_c, 0, 69, 63
1, 123360, Note_on_c, 0, 73, 74
1, 123360, Note_on_c, 0, 54, 57
1, 123376, Control_c, 0, 64, 0
1, 123445, Control_c, 0, 64, 127
1, 123480, Tempo, 763359
1, 123480, Note_on_c, 0, 54, 0
1, 123480, Note_on_c, 0, 61, 44
1, 123600, Note_on_c, 0, 61, 0
1, 123600, Note_on_c, 0, 57, 45
1, 123680, Tempo, 887574
1, 123720, Note_on_c, 0, 57, 0
1, 123720, Note_on_c, 0, 54, 43
1, 123830, Note_on_c, 0, 54, 0
1, 123840, Tempo, 763359
1, 123840, Note_on_c, 0, 73, 0
1, 123840, Note_on_c, 0, 72, 64
1, 123840, Note_on_c, 0, 54, 62
1, 123848, Control_c, 0, 64, 0
1, 123897, Control_c, 0, 64, 127
1, 123960, Note_on_c, 0, 54, 0
1, 123960, Note_on_c, 0, 61, 47
1, 124080, Tempo, 832178
1, 124080, Note_on_c, 0, 61, 0
1, 124080, Note_on_c, 0, 57, 48
1, 124160, Tempo, 887574
1, 124200, Note_on_c, 0, 57, 0
1, 124200, Note_on_c, 0, 54, 47
1, 124320, Tempo, 849858
1, 124320, Note_on_c, 0, 54, 0
1, 124320, Note_on_c, 0, 72, 0
1, 124320, Note_on_c, 0, 69, 0
1, 124320, Note_on_c, 0, 73, 82
1, 124320, Note_on_c, 0, 69, 82
1, 124320, Note_on_c, 0, 52, 58
1, 124337, Control_c, 0, 64, 0
1, 124383, Control_c, 0, 64, 127
1, 124440, Tempo, 809717
1, 124440, Note_on_c, 0, 52, 0
1, 124440, Note_on_c, 0, 61, 52
1, 124560, Note_on_c, 0, 61, 0
1, 124560, Note_on_c, 0, 69, 0
1, 124560, Note_on_c, 0, 73, 0
1, 124560, Note_on_c, 0, 78, 87
1, 124560, Note_on_c, 0, 81, 87
1, 124560, Note_on_c, 0, 57, 57
1, 124640, Tempo, 874636
1, 124680, Note_on_c, 0, 57, 0
1, 124680, Note_on_c, 0, 52, 57
1, 124800, Tempo, 815217
1, 124800, Note_on_c, 0, 52, 0
1, 124800, Note_on_c, 0, 81, 0
1, 124800, Note_on_c, 0, 78, 0
1, 124800, Note_on_c, 0, 69, 88
1, 124800, Note_on_c, 0, 78, 88
1, 124800, Note_on_c, 0, 81, 101
1, 124800, Note_on_c, 0, 51, 77
1, 124800, Note_on_c, 0, 59, 77
1, 124806, Control_c, 0, 64, 0
1, 125040, Tempo, 735294
1, 125040, Note_on_c, 0, 59, 0
1, 125040, Note_on_c, 0, 51, 0
1, 125040, Note_on_c, 0, 57, 69
1, 125160, Note_on_c, 0, 57, 0
1, 125160, Note_on_c, 0, 60, 57
1, 125280, Note_on_c, 0, 60, 0
1, 125280, Note_on_c, 0, 59, 41
1, 125400, Note_on_c, 0, 59, 0
1, 125400, Note_on_c, 0, 58, 37
1, 125520, Note_on_c, 0, 58, 0
1, 125520, Note_on_c, 0, 59, 41
1, 125640, Note_on_c, 0, 59, 0
1, 125640, Note_on_c, 0, 54, 35
1, 125760, Note_on_c, 0, 54, 0
1, 125760, Note_on_c, 0, 51, 41
1, 125880, Note_on_c, 0, 51, 0
1, 125880, Note_on_c, 0, 49, 37
1, 126000, Tempo, 726392
1, 126000, Note_on_c, 0, 49, 0
1, 126000, Note_on_c, 0, 51, 41
1, 126120, Tempo, 843882
1, 126120, Note_on_c, 0, 51, 0
1, 126120, Note_on_c, 0, 47, 40
1, 126240, Tempo, 798935
1, 126240, Note_on_c, 0, 47, 0
1, 126240, Note_on_c, 0, 51, 49
1, 126300, Note_on_c, 0, 51, 0
1, 126360, Tempo, 804290
1, 126480, Note_on_c, 0, 54, 41
1, 126540, Note_on_c, 0, 54, 0
1, 126720, Tempo, 874636
1, 126720, Note_on_c, 0, 69, 0
1, 126720, Note_on_c, 0, 78, 0
1, 126720, Note_on_c, 0, 81, 0
1, 126720, Note_on_c, 0, 75, 88
1, 126720, Note_on_c, 0, 78, 88
1, 126720, Note_on_c, 0, 81, 88
1, 126720, Note_on_c, 0, 87, 101
1, 126726, Control_c, 0, 64, 0
1, 126840, Tempo, 837989
1, 126960, Tempo, 717703
1, 126960, Note_on_c, 0, 57, 69
1, 127080, Note_on_c, 0, 57, 0
1, 127080, Note_on_c, 0, 60, 57
1, 127200, Note_on_c, 0, 60, 0
1, 127200, Note_on_c, 0, 59, 41
1, 127320, Note_on_c, 0, 59, 0
1, 127320, Note_on_c, 0, 58, 37
1, 127440, Note_on_c, 0, 58, 0
1, 127440, Note_on_c, 0, 59, 41
1, 127560, Note_on_c, 0, 59, 0
1, 127560, Note_on_c, 0, 54, 35
1, 127680, Tempo, 726392
1, 127680, Note_on_c, 0, 54, 0
1, 127680, Note_on_c, 0, 51, 41
1, 127800, Note_on_c, 0, 51, 0
1, 127800, Note_on_c, 0, 49, 37
1, 127920, Note_on_c, 0, 49, 0
1, 127920, Note_on_c, 0, 51, 41
1, 128040, Tempo, 832178
1, 128040, Note_on_c, 0, 51, 0
1, 128040, Note_on_c, 0, 47, 40
1, 128160, Tempo, 804290
1, 128160, Note_on_c, 0, 47, 0
1, 128160, Note_on_c, 0, 51, 49
1, 128220, Note_on_c, 0, 51, 0
1, 128280, Tempo, 744417
1, 128400, Note_on_c, 0, 54, 41
1, 128460, Note_on_c, 0, 54, 0
1, 128640, Tempo, 837989
1, 128640, Note_on_c, 0, 87, 0
1, 128640, Note_on_c, 0, 75, 0
1, 128640, Note_on_c, 0, 78, 0
1, 128640, Note_on_c, 0, 81, 0
1, 128640, Note_on_c, 0, 87, 88
1, 128640, Note_on_c, 0, 78, 88
1, 128640, Note_on_c, 0, 81, 88
1, 128640, Note_on_c, 0, 90, 101
1, 128646, Control_c, 0, 64, 0
1, 128880, Tempo, 744417
1, 128880, Note_on_c, 0, 57, 69
1, 129000, Tempo, 744417
1, 129000, Note_on_c, 0, 57, 0
1, 129000, Note_on_c, 0, 60, 57
1, 129120, Tempo, 758534
1, 129120, Note_on_c, 0, 60, 0
1, 129120, Note_on_c, 0, 59, 41
1, 129240, Tempo, 744417
1, 129240, Note_on_c, 0, 59, 0
1, 129240, Note_on_c, 0, 58, 37
1, 129360, Note_on_c, 0, 58, 0
1, 129360, Note_on_c, 0, 59, 41
1, 129480, Note_on_c, 0, 59, 0
1, 129480, Note_on_c, 0, 54, 35
1, 129600, Tempo, 749064
1, 129600, Note_on_c, 0, 54, 0
1, 129600, Note_on_c, 0, 51, 41
1, 129720, Note_on_c, 0, 51, 0
1, 129720, Note_on_c, 0, 49, 37
1, 129840, Note_on_c, 0, 49, 0
1, 129840, Note_on_c, 0, 51, 41
1, 129960, Tempo, 837989
1, 129960, Note_on_c, 0, 51, 0
1, 129960, Note_on_c, 0, 47, 40
1, 130080, Tempo, 749064
1, 130080, Note_on_c, 0, 47, 0
1, 130080, Note_on_c, 0, 51, 49
1, 130200, Note_on_c, 0, 51, 0
1, 130200, Note_on_c, 0, 49, 47
1, 130320, Note_on_c, 0, 49, 0
1, 130320, Note_on_c, 0, 51, 49
1, 130440, Note_on_c, 0, 51, 0
1, 130440, Note_on_c, 0, 54, 50
1, 130560, Tempo, 832178
1, 130560, Note_on_c, 0, 54, 0
1, 130560, Note_on_c, 0, 90, 0
1, 130560, Note_on_c, 0, 87, 0
1, 130560, Note_on_c, 0, 78, 0
1, 130560, Note_on_c, 0, 81, 0
1, 130560, Note_on_c, 0, 78, 68
1, 130560, Note_on_c, 0, 57, 58
1, 130680, Note_on_c, 0, 57, 0
1, 130680, Note_on_c, 0, 78, 0
1, 130800, Tempo, 753769
1, 130800, Note_on_c, 0, 69, 39
1, 130800, Note_on_c, 0, 51, 26
1, 130920, Note_on_c, 0, 69, 0
1, 130920, Note_on_c, 0, 72, 32
1, 131040, Note_on_c, 0, 72, 0
1, 131040, Note_on_c, 0, 51, 0
1, 131040, Note_on_c, 0, 71, 40
1, 131040, Note_on_c, 0, 54, 30
1, 131160, Note_on_c, 0, 71, 0
1, 131160, Note_on_c, 0, 70, 37
1, 131280, Note_on_c, 0, 70, 0
1, 131280, Note_on_c, 0, 54, 0
1, 131280, Note_on_c, 0, 71, 41
1, 131280, Note_on_c, 0, 59, 29
1, 131400, Tempo, 868307
1, 131400, Note_on_c, 0, 71, 0
1, 131400, Note_on_c, 0, 68, 35
1, 131520, Tempo, 832178
1, 131520, Note_on_c, 0, 68, 0
1, 131520, Note_on_c, 0, 59, 0
1, 131520, Note_on_c, 0, 78, 68
1, 131520, Note_on_c, 0, 57, 58
1, 131640, Note_on_c, 0, 57, 0
1, 131640, Note_on_c, 0, 78, 0
1, 131760, Tempo, 763359
1, 131760, Note_on_c, 0, 69, 39
1, 131760, Note_on_c, 0, 51, 26
1, 131880, Note_on_c, 0, 69, 0
1, 131880, Note_on_c, 0, 72, 32
1, 132000, Note_on_c, 0, 72, 0
1, 132000, Note_on_c, 0, 51, 0
1, 132000, Note_on_c, 0, 71, 40
1, 132000, Note_on_c, 0, 54, 30
1, 132120, Note_on_c, 0, 71, 0
1, 132120, Note_on_c, 0, 70, 37
1, 132240, Note_on_c, 0, 70, 0
1, 132240, Note_on_c, 0, 54, 0
1, 132240, Note_on_c, 0, 71, 41
1, 132240, Note_on_c, 0, 59, 29
1, 132360, Tempo, 868307
1, 132360, Note_on_c, 0, 71, 0
1, 132360, Note_on_c, 0, 68, 35
1, 132480, Tempo, 832178
1, 132480, Note_on_c, 0, 68, 0
1, 132480, Note_on_c, 0, 59, 0
1, 132480, Note_on_c, 0, 78, 68
1, 132480, Note_on_c, 0, 57, 58
1, 132600, Note_on_c, 0, 57, 0
1, 132600, Note_on_c, 0, 78, 0
1, 132720, Tempo, 783290
1, 132720, Note_on_c, 0, 69, 39
1, 132720, Note_on_c, 0, 51, 26
1, 132840, Note_on_c, 0, 69, 0
1, 132840, Note_on_c, 0, 72, 32
1, 132960, Note_on_c, 0, 72, 0
1, 132960, Note_on_c, 0, 51, 0
1, 132960, Note_on_c, 0, 71, 40
1, 132960, Note_on_c, 0, 54, 30
1, 133080, Note_on_c, 0, 71, 0
1, 133080, Note_on_c, 0, 70, 37
1, 133200, Note_on_c, 0, 70, 0
1, 133200, Note_on_c, 0, 54, 0
1, 133200, Note_on_c, 0, 71, 41
1, 133200, Note_on_c, 0, 59, 29
1, 133320, Tempo, 868307
1, 133320, Note_on_c, 0, 71, 0
1, 133320, Note_on_c, 0, 69, 35
1, 133440, Note_on_c, 0, 69, 0
1, 133440, Note_on_c, 0, 68, 40
1, 133560, Note_on_c, 0, 68, 0
1, 133560, Note_on_c, 0, 59, 0
1, 133560, Note_on_c, 0, 66, 31
1, 133560, Note_on_c, 0, 57, 27
1, 133680, Note_on_c, 0, 57, 0
1, 133680, Note_on_c, 0, 66, 0
1, 133680, Note_on_c, 0, 68, 35
1, 133680, Note_on_c, 0, 59, 30
1, 133800, Note_on_c, 0, 59, 0
1, 133800, Note_on_c, 0, 68, 0
1, 133800, Note_on_c, 0, 66, 30
1, 133800, Note_on_c, 0, 57, 26
1, 133920, Note_on_c, 0, 57, 0
1, 133920, Note_on_c, 0, 66, 0
1, 133920, Note_on_c, 0, 64, 37
1, 133920, Note_on_c, 0, 56, 30
1, 134040, Tempo, 894188
1, 134040, Note_on_c, 0, 56, 0
1, 134040, Note_on_c, 0, 64, 0
1, 134040, Note_on_c, 0, 63, 29
1, 134040, Note_on_c, 0, 57, 25
1, 134160, Note_on_c, 0, 57, 0
1, 134160, Note_on_c, 0, 63, 0
1, 134160, Note_on_c, 0, 64, 29
1, 134160, Note_on_c, 0, 56, 30
1, 134280, Tempo, 950872
1, 134280, Note_on_c, 0, 56, 0
1, 134280, Note_on_c, 0, 64, 0
1, 134280, Note_on_c, 0, 66, 29
1, 134280, Note_on_c, 0, 54, 26
1, 134400, Tempo, 849858
1, 134400, Note_on_c, 0, 54, 0
1, 134400, Note_on_c, 0, 66, 0
1, 134400, Note_on_c, 0, 68, 42
1, 134400, Note_on_c, 0, 64, 31
1, 134400, Note_on_c, 0, 40, 25
1, 134400, Note_on_c, 0, 52, 30
1, 134478, Control_c, 0, 64, 127
1, 134520, Note_on_c, 0, 64, 0
1, 134520, Note_on_c, 0, 59, 26
1, 134640, Note_on_c, 0, 59, 0
1, 134640, Note_on_c, 0, 52, 0
1, 134640, Note_on_c, 0, 40, 0
1, 134640, Note_on_c, 0, 64, 31
1, 134760, Note_on_c, 0, 64, 0
1, 134760, Note_on_c, 0, 59, 26
1, 134880, Tempo, 837989
1, 134880, Note_on_c, 0, 59, 0
1, 134880, Note_on_c, 0, 68, 0
1, 134880, Note_on_c, 0, 71, 45
1, 134880, Note_on_c, 0, 68, 45
1, 134896, Control_c, 0, 64, 0
1, 134979, Control_c, 0, 64, 127
1, 135000, Note_on_c, 0, 68, 0
1, 135000, Note_on_c, 0, 59, 27
1, 135120, Tempo, 855920
1, 135120, Note_on_c, 0, 59, 0
1, 135120, Note_on_c, 0, 71, 0
1, 135120, Note_on_c, 0, 69, 40
1, 135120, Note_on_c, 0, 66, 40
1, 135133, Control_c, 0, 64, 0
1, 135184, Control_c, 0, 64, 127
1, 135240, Tempo, 881057
1, 135240, Note_on_c, 0, 66, 0
1, 135240, Note_on_c, 0, 59, 27
1, 135360, Tempo, 868307
1, 135360, Note_on_c, 0, 59, 0
1, 135360, Note_on_c, 0, 69, 0
1, 135360, Note_on_c, 0, 64, 34
1, 135360, Note_on_c, 0, 68, 50
1, 135360, Note_on_c, 0, 35, 25
1, 135360, Note_on_c, 0, 47, 30
1, 135360, Control_c, 0, 64, 0
1, 135424, Control_c, 0, 64, 127
1, 135480, Note_on_c, 0, 64, 0
1, 135480, Note_on_c, 0, 59, 26
1, 135600, Tempo, 849858
1, 135600, Note_on_c, 0, 59, 0
1, 135600, Note_on_c, 0, 47, 0
1, 135600, Note_on_c, 0, 35, 0
1, 135600, Note_on_c, 0, 68, 0
1, 135600, Note_on_c, 0, 63, 27
1, 135600, Note_on_c, 0, 66, 41
1, 135614, Control_c, 0, 64, 0
1, 135657, Control_c, 0, 64, 127
1, 135720, Note_on_c, 0, 63, 0
1, 135720, Note_on_c, 0, 59, 25
1, 135810, Note_on_c, 0, 59, 0
1, 135810, Note_on_c, 0, 66, 0
1, 135810, Control_c, 0, 64, 0
1, 135840, Note_on_c, 0, 63, 27
1, 135840, Note_on_c, 0, 66, 41
1, 135904, Control_c, 0, 64, 127
1, 135960, Note_on_c, 0, 63, 0
1, 135960, Note_on_c, 0, 59, 26
1, 136080, Tempo, 832178
1, 136080, Note_on_c, 0, 59, 0
1, 136080, Note_on_c, 0, 66, 0
1, 136080, Note_on_c, 0, 64, 28
1, 136080, Note_on_c, 0, 68, 43
1, 136098, Control_c, 0, 64, 0
1, 136165, Control_c, 0, 64, 127
1, 136200, Note_on_c, 0, 64, 0
1, 136200, Note_on_c, 0, 59, 28
1, 136320, Tempo, 849858
1, 136320, Note_on_c, 0, 59, 0
1, 136320, Note_on_c, 0, 68, 0
1, 136320, Note_on_c, 0, 64, 30
1, 136320, Note_on_c, 0, 69, 46
1, 136320, Note_on_c, 0, 37, 25
1, 136320, Note_on_c, 0, 49, 30
1, 136330, Control_c, 0, 64, 0
1, 136405, Control_c, 0, 64, 127
1, 136440, Note_on_c, 0, 64, 0
1, 136440, Note_on_c, 0, 59, 28
1, 136560, Note_on_c, 0, 59, 0
1, 136560, Note_on_c, 0, 49, 0
1, 136560, Note_on_c, 0, 37, 0
1, 136560, Note_on_c, 0, 69, 0
1, 136560, Note_on_c, 0, 64, 36
1, 136560, Note_on_c, 0, 73, 54
1, 136680, Note_on_c, 0, 64, 0
1, 136680, Note_on_c, 0, 59, 31
1, 136800, Note_on_c, 0, 59, 0
1, 136800, Note_on_c, 0, 73, 0
1, 136800, Note_on_c, 0, 66, 37
1, 136800, Note_on_c, 0, 71, 47
1, 136800, Note_on_c, 0, 51, 28
1, 136800, Note_on_c, 0, 39, 23
1, 136816, Control_c, 0, 64, 0
1, 136878, Control_c, 0, 64, 127
1, 136920, Note_on_c, 0, 66, 0
1, 136920, Note_on_c, 0, 59, 26
1, 137040, Tempo, 868307
1, 137040, Note_on_c, 0, 59, 0
1, 137040, Note_on_c, 0, 39, 0
1, 137040, Note_on_c, 0, 51, 0
1, 137040, Note_on_c, 0, 71, 0
1, 137040, Note_on_c, 0, 63, 25
1, 137040, Note_on_c, 0, 66, 38
1, 137040, Note_on_c, 0, 47, 26
1, 137040, Note_on_c, 0, 35, 22
1, 137160, Tempo, 1006711
1, 137160, Note_on_c, 0, 63, 0
1, 137160, Note_on_c, 0, 59, 27
1, 137280, Tempo, 849858
1, 137280, Note_on_c, 0, 59, 0
1, 137280, Note_on_c, 0, 35, 0
1, 137280, Note_on_c, 0, 47, 0
1, 137280, Note_on_c, 0, 66, 0
1, 137280, Note_on_c, 0, 59, 35
1, 137280, Note_on_c, 0, 64, 35
1, 137280, Note_on_c, 0, 68, 42
1, 137280, Note_on_c, 0, 40, 28
1, 137280, Note_on_c, 0, 52, 28
1, 137288, Control_c, 0, 64, 0
1, 137400, Note_on_c, 0, 52, 0
1, 137400, Note_on_c, 0, 40, 0
1, 137400, Note_on_c, 0, 56, 25
1, 137520, Note_on_c, 0, 56, 0
1, 137520, Note_on_c, 0, 59, 28
1, 137640, Note_on_c, 0, 59, 0
1, 137640, Note_on_c, 0, 57, 26
1, 137760, Note_on_c, 0, 57, 0
1, 137760, Note_on_c, 0, 68, 0
1, 137760, Note_on_c, 0, 64, 0
1, 137760, Note_on_c, 0, 59, 0
1, 137760, Note_on_c, 0, 56, 28
1, 137880, Note_on_c, 0, 56, 0
1, 137880, Note_on_c, 0, 57, 25
1, 138000, Tempo, 849858
1, 138000, Note_on_c, 0, 57, 0
1, 138000, Note_on_c, 0, 76, 47
1, 138000, Note_on_c, 0, 56, 30
1, 138120, Tempo, 921659
1, 138120, Note_on_c, 0, 56, 0
1, 138120, Note_on_c, 0, 76, 0
1, 138120, Note_on_c, 0, 78, 42
1, 138120, Note_on_c, 0, 54, 27
1, 138240, Tempo, 849858
1, 138240, Note_on_c, 0, 54, 0
1, 138240, Note_on_c, 0, 78, 0
1, 138240, Note_on_c, 0, 68, 55
1, 138240, Note_on_c, 0, 80, 55
1, 138240, Note_on_c, 0, 52, 37
1, 138332, Control_c, 0, 64, 127
1, 138360, Note_on_c, 0, 52, 0
1, 138360, Note_on_c, 0, 59, 28
1, 138480, Note_on_c, 0, 59, 0
1, 138480, Note_on_c, 0, 47, 34
1, 138600, Note_on_c, 0, 47, 0
1, 138600, Note_on_c, 0, 59, 28
1, 138720, Tempo, 837989
1, 138720, Note_on_c, 0, 59, 0
1, 138720, Note_on_c, 0, 80, 0
1, 138720, Note_on_c, 0, 68, 0
1, 138720, Note_on_c, 0, 71, 50
1, 138720, Note_on_c, 0, 83, 50
1, 138720, Note_on_c, 0, 52, 33
1, 138734, Control_c, 0, 64, 0
1, 138826, Control_c, 0, 64, 127
1, 138840, Note_on_c, 0, 52, 0
1, 138840, Note_on_c, 0, 59, 29
1, 138960, Tempo, 855920
1, 138960, Note_on_c, 0, 59, 0
1, 138960, Note_on_c, 0, 83, 0
1, 138960, Note_on_c, 0, 71, 0
1, 138960, Note_on_c, 0, 69, 47
1, 138960, Note_on_c, 0, 81, 47
1, 138960, Note_on_c, 0, 47, 30
1, 138972, Control_c, 0, 64, 0
1, 139038, Control_c, 0, 64, 127
1, 139080, Tempo, 881057
1, 139080, Note_on_c, 0, 47, 0
1, 139080, Note_on_c, 0, 59, 29
1, 139200, Tempo, 868307
1, 139200, Note_on_c, 0, 59, 0
1, 139200, Note_on_c, 0, 81, 0
1, 139200, Note_on_c, 0, 69, 0
1, 139200, Note_on_c, 0, 68, 55
1, 139200, Note_on_c, 0, 80, 55
1, 139200, Note_on_c, 0, 51, 37
1, 139210, Control_c, 0, 64, 0
1, 139280, Control_c, 0, 64, 127
1, 139320, Note_on_c, 0, 51, 0
1, 139320, Note_on_c, 0, 59, 28
1, 139440, Tempo, 849858
1, 139440, Note_on_c, 0, 59, 0
1, 139440, Note_on_c, 0, 80, 0
1, 139440, Note_on_c, 0, 68, 0
1, 139440, Note_on_c, 0, 66, 45
1, 139440, Note_on_c, 0, 78, 45
1, 139440, Note_on_c, 0, 47, 29
1, 139449, Control_c, 0, 64, 0
1, 139526, Control_c, 0, 64, 127
1, 139560, Note_on_c, 0, 47, 0
1, 139560, Note_on_c, 0, 59, 27
1, 139650, Note_on_c, 0, 59, 0
1, 139650, Note_on_c, 0, 78, 0
1, 139650, Note_on_c, 0, 66, 0
1, 139650, Control_c, 0, 64, 0
1, 139680, Note_on_c, 0, 66, 45
1, 139680, Note_on_c, 0, 78, 45
1, 139680, Note_on_c, 0, 51, 29
1, 139755, Control_c, 0, 64, 127
1, 139800, Note_on_c, 0, 51, 0
1, 139800, Note_on_c, 0, 59, 28
1, 139920, Tempo, 832178
1, 139920, Note_on_c, 0, 59, 0
1, 139920, Note_on_c, 0, 78, 0
1, 139920, Note_on_c, 0, 66, 0
1, 139920, Note_on_c, 0, 68, 49
1, 139920, Note_on_c, 0, 80, 49
1, 139920, Note_on_c, 0, 53, 31
1, 139937, Control_c, 0, 64, 0
1, 139995, Control_c, 0, 64, 127
1, 140040, Note_on_c, 0, 53, 0
1, 140040, Note_on_c, 0, 59, 33
1, 140160, Tempo, 849858
1, 140160, Note_on_c, 0, 59, 0
1, 140160, Note_on_c, 0, 80, 0
1, 140160, Note_on_c, 0, 68, 0
1, 140160, Note_on_c, 0, 69, 47
1, 140160, Note_on_c, 0, 81, 56
1, 140160, Note_on_c, 0, 54, 36
1, 140181, Control_c, 0, 64, 0
1, 140252, Control_c, 0, 64, 127
1, 140280, Note_on_c, 0, 54, 0
1, 140280, Note_on_c, 0, 59, 35
1, 140400, Note_on_c, 0, 59, 0
1, 140400, Note_on_c, 0, 81, 0
1, 140400, Note_on_c, 0, 69, 0
1, 140400, Note_on_c, 0, 73, 50
1, 140400, Note_on_c, 0, 85, 60
1, 140400, Note_on_c, 0, 57, 41
1, 140520, Note_on_c, 0, 57, 0
1, 140520, Note_on_c, 0, 59, 36
1, 140640, Note_on_c, 0, 59, 0
1, 140640, Note_on_c, 0, 85, 0
1, 140640, Note_on_c, 0, 73, 0
1, 140640, Note_on_c, 0, 71, 46
1, 140640, Note_on_c, 0, 83, 56
1, 140640, Note_on_c, 0, 56, 37
1, 140690, Control_c, 0, 64, 0
1, 140753, Control_c, 0, 64, 127
1, 140760, Note_on_c, 0, 56, 0
1, 140760, Note_on_c, 0, 59, 31
1, 140880, Tempo, 868307
1, 140880, Note_on_c, 0, 59, 0
1, 140880, Note_on_c, 0, 83, 0
1, 140880, Note_on_c, 0, 71, 0
1, 140880, Note_on_c, 0, 87, 49
1, 140880, Note_on_c, 0, 75, 32
1, 140880, Note_on_c, 0, 47, 25
1, 140880, Note_on_c, 0, 54, 25
1, 140894, Control_c, 0, 64, 0
1, 140958, Control_c, 0, 64, 127
1, 141000, Tempo, 1006711
1, 141000, Note_on_c, 0, 54, 0
1, 141000, Note_on_c, 0, 47, 0
1, 141000, Note_on_c, 0, 57, 27
1, 141120, Tempo, 849858
1, 141120, Note_on_c, 0, 57, 0
1, 141120, Note_on_c, 0, 75, 0
1, 141120, Note_on_c, 0, 87, 0
1, 141120, Note_on_c, 0, 88, 57
1, 141120, Note_on_c, 0, 76, 35
1, 141120, Note_on_c, 0, 52, 31
1, 141120, Note_on_c, 0, 56, 31
1, 141126, Control_c, 0, 64, 0
1, 141184, Control_c, 0, 64, 127
1, 141240, Note_on_c, 0, 56, 0
1, 141240, Note_on_c, 0, 52, 0
1, 141240, Note_on_c, 0, 59, 23
1, 141360, Note_on_c, 0, 59, 0
1, 141360, Note_on_c, 0, 56, 31
1, 141480, Note_on_c, 0, 56, 0
1, 141480, Note_on_c, 0, 52, 25
1, 141600, Tempo, 832178
1, 141600, Note_on_c, 0, 52, 0
1, 141600, Note_on_c, 0, 76, 0
1, 141600, Note_on_c, 0, 88, 0
1, 141600, Note_on_c, 0, 51, 31
1, 141614, Control_c, 0, 64, 0
1, 141692, Control_c, 0, 64, 127
1, 141720, Note_on_c, 0, 51, 0
1, 141720, Note_on_c, 0, 59, 27
1, 141840, Note_on_c, 0, 59, 0
1, 141840, Note_on_c, 0, 71, 47
1, 141840, Note_on_c, 0, 54, 31
1, 141960, Tempo, 907716
1, 141960, Note_on_c, 0, 54, 0
1, 141960, Note_on_c, 0, 51, 32
1, 142080, Tempo, 849858
1, 142080, Note_on_c, 0, 51, 0
1, 142080, Note_on_c, 0, 71, 0
1, 142080, Note_on_c, 0, 70, 51
1, 142080, Note_on_c, 0, 49, 38
1, 142087, Control_c, 0, 64, 0
1, 142172, Control_c, 0, 64, 127
1, 142200, Note_on_c, 0, 49, 0
1, 142200, Note_on_c, 0, 58, 29
1, 142320, Note_on_c, 0, 58, 0
1, 142320, Note_on_c, 0, 54, 31
1, 142440, Note_on_c, 0, 54, 0
1, 142440, Note_on_c, 0, 49, 27
1, 142560, Note_on_c, 0, 49, 0
1, 142560, Note_on_c, 0, 70, 0
1, 142560, Note_on_c, 0, 76, 56
1, 142560, Note_on_c, 0, 42, 31
1, 142680, Note_on_c, 0, 42, 0
1, 142680, Note_on_c, 0, 58, 26
1, 142800, Note_on_c, 0, 58, 0
1, 142800, Note_on_c, 0, 54, 29
1, 142920, Tempo, 900901
1, 142920, Note_on_c, 0, 54, 0
1, 142920, Note_on_c, 0, 49, 27
1, 143040, Tempo, 855920
1, 143040, Note_on_c, 0, 49, 0
1, 143040, Note_on_c, 0, 76, 0
1, 143040, Note_on_c, 0, 75, 51
1, 143040, Note_on_c, 0, 47, 31
1, 143040, Control_c, 0, 64, 0
1, 143139, Control_c, 0, 64, 127
1, 143160, Note_on_c, 0, 47, 0
1, 143160, Note_on_c, 0, 59, 25
1, 143280, Note_on_c, 0, 59, 0
1, 143280, Note_on_c, 0, 54, 30
1, 143400, Note_on_c, 0, 54, 0
1, 143400, Note_on_c, 0, 51, 27
1, 143520, Note_on_c, 0, 51, 0
1, 143520, Note_on_c, 0, 47, 37
1, 143640, Note_on_c, 0, 47, 0
1, 143640, Note_on_c, 0, 59, 30
1, 143760, Note_on_c, 0, 59, 0
1, 143760, Note_on_c, 0, 75, 0
1, 143760, Note_on_c, 0, 69, 45
1, 143760, Note_on_c, 0, 49, 37
1, 143768, Control_c, 0, 64, 0
1, 143831, Control_c, 0, 64, 127
1, 143880, Tempo, 894188
1, 143880, Note_on_c, 0, 49, 0
1, 143880, Note_on_c, 0, 57, 33
1, 144000, Tempo, 855920
1, 144000, Note_on_c, 0, 57, 0
1, 144000, Note_on_c, 0, 69, 0
1, 144000, Note_on_c, 0, 68, 51
1, 144000, Note_on_c, 0, 47, 31
1, 144007, Control_c, 0, 64, 0
1, 144085, Control_c, 0, 64, 127
1, 144120, Note_on_c, 0, 47, 0
1, 144120, Note_on_c, 0, 56, 36
1, 144240, Note_on_c, 0, 56, 0
1, 144240, Note_on_c, 0, 52, 39
1, 144360, Note_on_c, 0, 52, 0
1, 144360, Note_on_c, 0, 47, 45
1, 144480, Note_on_c, 0, 47, 0
1, 144480, Note_on_c, 0, 68, 0
1, 144480, Note_on_c, 0, 74, 54
1, 144480, Note_on_c, 0, 40, 47
1, 144498, Control_c, 0, 64, 0
1, 144572, Control_c, 0, 64, 127
1, 144600, Note_on_c, 0, 40, 0
1, 144600, Note_on_c, 0, 56, 32
1, 144720, Note_on_c, 0, 56, 0
1, 144720, Note_on_c, 0, 52, 36
1, 144840, Tempo, 936037
1, 144840, Note_on_c, 0, 52, 0
1, 144840, Note_on_c, 0, 47, 29
1, 144960, Tempo, 855920
1, 144960, Note_on_c, 0, 47, 0
1, 144960, Note_on_c, 0, 74, 0
1, 144960, Note_on_c, 0, 73, 51
1, 144960, Note_on_c, 0, 45, 35
1, 144976, Control_c, 0, 64, 0
1, 145045, Control_c, 0, 64, 127
1, 145080, Note_on_c, 0, 45, 0
1, 145080, Note_on_c, 0, 57, 27
1, 145200, Note_on_c, 0, 57, 0
1, 145200, Note_on_c, 0, 52, 31
1, 145320, Note_on_c, 0, 52, 0
1, 145320, Note_on_c, 0, 49, 27
1, 145440, Note_on_c, 0, 49, 0
1, 145440, Note_on_c, 0, 45, 31
1, 145560, Tempo, 837989
1, 145560, Note_on_c, 0, 45, 0
1, 145560, Note_on_c, 0, 52, 29
1, 145680, Note_on_c, 0, 52, 0
1, 145680, Note_on_c, 0, 73, 0
1, 145680, Note_on_c, 0, 73, 48
1, 145680, Note_on_c, 0, 45, 34
1, 145800, Note_on_c, 0, 45, 0
1, 145800, Note_on_c, 0, 52, 38
1, 145920, Tempo, 849858
1, 145920, Note_on_c, 0, 52, 0
1, 145920, Note_on_c, 0, 73, 0
1, 145920, Note_on_c, 0, 72, 57
1, 145920, Note_on_c, 0, 45, 39
1, 145920, Control_c, 0, 64, 0
1, 145991, Control_c, 0, 64, 127
1, 146040, Note_on_c, 0, 45, 0
1, 146040, Note_on_c, 0, 52, 35
1, 146160, Note_on_c, 0, 52, 0
1, 146160, Note_on_c, 0, 72, 0
1, 146160, Note_on_c, 0, 73, 58
1, 146160, Note_on_c, 0, 45, 38
1, 146280, Note_on_c, 0, 45, 0
1, 146280, Note_on_c, 0, 52, 35
1, 146400, Note_on_c, 0, 52, 0
1, 146400, Note_on_c, 0, 73, 0
1, 146400, Note_on_c, 0, 69, 55
1, 146400, Note_on_c, 0, 64, 46
1, 146400, Note_on_c, 0, 61, 46
1, 146400, Note_on_c, 0, 45, 44
1, 146407, Control_c, 0, 64, 0
1, 146471, Control_c, 0, 64, 127
1, 146520, Note_on_c, 0, 45, 0
1, 146520, Note_on_c, 0, 52, 36
1, 146580, Note_on_c, 0, 69, 0
1, 146580, Note_on_c, 0, 61, 0
1, 146580, Note_on_c, 0, 64, 0
1, 146640, Note_on_c, 0, 52, 0
1, 146640, Note_on_c, 0, 68, 55
1, 146640, Note_on_c, 0, 64, 46
1, 146640, Note_on_c, 0, 59, 46
1, 146640, Note_on_c, 0, 47, 44
1, 146654, Control_c, 0, 64, 0
1, 146718, Control_c, 0, 64, 127
1, 146760, Tempo, 936037
1, 146760, Note_on_c, 0, 47, 0
1, 146760, Note_on_c, 0, 52, 37
1, 146820, Note_on_c, 0, 68, 0
1, 146820, Note_on_c, 0, 59, 0
1, 146820, Note_on_c, 0, 64, 0
1, 146880, Tempo, 855920
1, 146880, Note_on_c, 0, 52, 0
1, 146880, Note_on_c, 0, 68, 76
1, 146880, Note_on_c, 0, 64, 64
1, 146880, Note_on_c, 0, 58, 64
1, 146880, Note_on_c, 0, 49, 55
1, 146887, Control_c, 0, 64, 0
1, 146949, Control_c, 0, 64, 127
1, 147000, Note_on_c, 0, 49, 0
1, 147000, Note_on_c, 0, 52, 48
1, 147120, Note_on_c, 0, 52, 0
1, 147120, Note_on_c, 0, 68, 0
1, 147120, Note_on_c, 0, 66, 62
1, 147120, Note_on_c, 0, 49, 54
1, 147240, Tempo, 907716
1, 147240, Note_on_c, 0, 49, 0
1, 147240, Note_on_c, 0, 52, 43
1, 147360, Tempo, 855920
1, 147360, Note_on_c, 0, 52, 0
1, 147360, Note_on_c, 0, 58, 0
1, 147360, Note_on_c, 0, 64, 0
1, 147360, Note_on_c, 0, 64, 63
1, 147360, Note_on_c, 0, 57, 63
1, 147360, Note_on_c, 0, 48, 50
1, 147372, Control_c, 0, 64, 0
1, 147440, Control_c, 0, 64, 127
1, 147480, Note_on_c, 0, 48, 0
1, 147480, Note_on_c, 0, 52, 39
1, 147590, Note_on_c, 0, 66, 0
1, 147600, Note_on_c, 0, 52, 0
1, 147600, Note_on_c, 0, 66, 67
1, 147600, Note_on_c, 0, 48, 49
1, 147720, Tempo, 966184
1, 147720, Note_on_c, 0, 48, 0
1, 147720, Note_on_c, 0, 52, 39
1, 147830, Note_on_c, 0, 66, 0
1, 147840, Tempo, 862069
1, 147840, Note_on_c, 0, 64, 0
1, 147840, Note_on_c, 0, 57, 0
1, 147840, Note_on_c, 0, 52, 0
1, 147840, Note_on_c, 0, 66, 49
1, 147840, Note_on_c, 0, 63, 41
1, 147840, Note_on_c, 0, 57, 41
1, 147840, Note_on_c, 0, 47, 31
1, 147847, Control_c, 0, 64, 0
1, 147925, Control_c, 0, 64, 127
1, 147960, Note_on_c, 0, 47, 0
1, 147960, Note_on_c, 0, 54, 27
1, 148080, Note_on_c, 0, 54, 0
1, 148080, Note_on_c, 0, 57, 0
1, 148080, Note_on_c, 0, 63, 0
1, 148080, Note_on_c, 0, 66, 0
1, 148080, Note_on_c, 0, 71, 38
1, 148080, Note_on_c, 0, 63, 32
1, 148080, Note_on_c, 0, 47, 31
1, 148200, Note_on_c, 0, 47, 0
1, 148200, Note_on_c, 0, 54, 29
1, 148200, Note_on_c, 0, 57, 29
1, 148320, Tempo, 894188
1, 148320, Note_on_c, 0, 57, 0
1, 148320, Note_on_c, 0, 54, 0
1, 148320, Note_on_c, 0, 71, 0
1, 148320, Note_on_c, 0, 70, 46
1, 148320, Note_on_c, 0, 47, 31
1, 148329, Control_c, 0, 64, 0
1, 148405, Control_c, 0, 64, 127
1, 148440, Note_on_c, 0, 47, 0
1, 148440, Note_on_c, 0, 54, 27
1, 148440, Note_on_c, 0, 57, 27
1, 148560, Note_on_c, 0, 57, 0
1, 148560, Note_on_c, 0, 63, 0
1, 148560, Note_on_c, 0, 70, 0
1, 148560, Note_on_c, 0, 54, 0
1, 148560, Note_on_c, 0, 71, 40
1, 148560, Note_on_c, 0, 63, 34
1, 148560, Note_on_c, 0, 47, 31
1, 148680, Tempo, 998336
1, 148680, Note_on_c, 0, 47, 0
1, 148680, Note_on_c, 0, 57, 28
1, 148680, Note_on_c, 0, 54, 28
1, 148800, Tempo, 849858
1, 148800, Note_on_c, 0, 54, 0
1, 148800, Note_on_c, 0, 71, 0
1, 148800, Note_on_c, 0, 63, 0
1, 148800, Note_on_c, 0, 57, 0
1, 148800, Note_on_c, 0, 64, 51
1, 148800, Note_on_c, 0, 52, 31
1, 148800, Note_on_c, 0, 56, 31
1, 148806, Control_c, 0, 64, 0
1, 148807, Control_c, 0, 64, 0
1, 148864, Control_c, 0, 64, 127
1, 148920, Note_on_c, 0, 56, 0
1, 148920, Note_on_c, 0, 52, 0
1, 148920, Note_on_c, 0, 59, 23
1, 149040, Note_on_c, 0, 59, 0
1, 149040, Note_on_c, 0, 56, 31
1, 149160, Note_on_c, 0, 56, 0
1, 149160, Note_on_c, 0, 52, 25
1, 149280, Tempo, 832178
1, 149280, Note_on_c, 0, 52, 0
1, 149280, Note_on_c, 0, 64, 0
1, 149280, Note_on_c, 0, 51, 31
1, 149294, Control_c, 0, 64, 0
1, 149372, Control_c, 0, 64, 127
1, 149400, Note_on_c, 0, 51, 0
1, 149400, Note_on_c, 0, 59, 27
1, 149520, Note_on_c, 0, 59, 0
1, 149520, Note_on_c, 0, 83, 47
1, 149520, Note_on_c, 0, 71, 47
1, 149520, Note_on_c, 0, 54, 31
1, 149640, Tempo, 907716
1, 149640, Note_on_c, 0, 54, 0
1, 149640, Note_on_c, 0, 51, 32
1, 149760, Tempo, 849858
1, 149760, Note_on_c, 0, 51, 0
1, 149760, Note_on_c, 0, 71, 0
1, 149760, Note_on_c, 0, 83, 0
1, 149760, Note_on_c, 0, 82, 51
1, 149760, Note_on_c, 0, 70, 51
1, 149760, Note_on_c, 0, 49, 38
1, 149767, Control_c, 0, 64, 0
1, 149852, Control_c, 0, 64, 127
1, 149880, Note_on_c, 0, 49, 0
1, 149880, Note_on_c, 0, 58, 37
1, 150000, Note_on_c, 0, 58, 0
1, 150000, Note_on_c, 0, 54, 40
1, 150120, Note_on_c, 0, 54, 0
1, 150120, Note_on_c, 0, 49, 43
1, 150240, Note_on_c, 0, 49, 0
1, 150240, Note_on_c, 0, 70, 0
1, 150240, Note_on_c, 0, 82, 0
1, 150240, Note_on_c, 0, 88, 61
1, 150240, Note_on_c, 0, 76, 61
1, 150240, Note_on_c, 0, 42, 44
1, 150360, Note_on_c, 0, 42, 0
1, 150360, Note_on_c, 0, 58, 33
1, 150480, Note_on_c, 0, 58, 0
1, 150480, Note_on_c, 0, 54, 39
1, 150600, Tempo, 900901
1, 150600, Note_on_c, 0, 54, 0
1, 150600, Note_on_c, 0, 49, 27
1, 150720, Tempo, 855920
1, 150720, Note_on_c, 0, 49, 0
1, 150720, Note_on_c, 0, 76, 0
1, 150720, Note_on_c, 0, 88, 0
1, 150720, Note_on_c, 0, 87, 56
1, 150720, Note_on_c, 0, 75, 56
1, 150720, Note_on_c, 0, 47, 31
1, 150720, Control_c, 0, 64, 0
1, 150819, Control_c, 0, 64, 127
1, 150840, Note_on_c, 0, 47, 0
1, 150840, Note_on_c, 0, 59, 25
1, 150960, Note_on_c, 0, 59, 0
1, 150960, Note_on_c, 0, 54, 30
1, 151080, Note_on_c, 0, 54, 0
1, 151080, Note_on_c, 0, 51, 27
1, 151200, Note_on_c, 0, 51, 0
1, 151200, Note_on_c, 0, 47, 37
1, 151320, Note_on_c, 0, 47, 0
1, 151320, Note_on_c, 0, 59, 30
1, 151440, Note_on_c, 0, 59, 0
1, 151440, Note_on_c, 0, 75, 0
1, 151440, Note_on_c, 0, 87, 0
1, 151440, Note_on_c, 0, 81, 49
1, 151440, Note_on_c, 0, 69, 49
1, 151440, Note_on_c, 0, 49, 37
1, 151448, Control_c, 0, 64, 0
1, 151511, Control_c, 0, 64, 127
1, 151560, Tempo, 894188
1, 151560, Note_on_c, 0, 49, 0
1, 151560, Note_on_c, 0, 57, 33
1, 151680, Tempo, 855920
1, 151680, Note_on_c, 0, 57, 0
1, 151680, Note_on_c, 0, 69, 0
1, 151680, Note_on_c, 0, 81, 0
1, 151680, Note_on_c, 0, 80, 56
1, 151680, Note_on_c, 0, 68, 56
1, 151680, Note_on_c, 0, 47, 31
1, 151687, Control_c, 0, 64, 0
1, 151765, Control_c, 0, 64, 127
1, 151800, Note_on_c, 0, 47, 0
1, 151800, Note_on_c, 0, 56, 29
1, 151920, Note_on_c, 0, 56, 0
1, 151920, Note_on_c, 0, 52, 38
1, 152040, Note_on_c, 0, 52, 0
1, 152040, Note_on_c, 0, 47, 38
1, 152160, Note_on_c, 0, 47, 0
1, 152160, Note_on_c, 0, 68, 0
1, 152160, Note_on_c, 0, 80, 0
1, 152160, Note_on_c, 0, 86, 59
1, 152160, Note_on_c, 0, 74, 59
1, 152160, Note_on_c, 0, 40, 46
1, 152178, Control_c, 0, 64, 0
1, 152252, Control_c, 0, 64, 127
1, 152280, Note_on_c, 0, 40, 0
1, 152280, Note_on_c, 0, 56, 32
1, 152400, Note_on_c, 0, 56, 0
1, 152400, Note_on_c, 0, 52, 36
1, 152520, Tempo, 936037
1, 152520, Note_on_c, 0, 52, 0
1, 152520, Note_on_c, 0, 47, 29
1, 152640, Tempo, 855920
1, 152640, Note_on_c, 0, 47, 0
1, 152640, Note_on_c, 0, 74, 0
1, 152640, Note_on_c, 0, 86, 0
1, 152640, Note_on_c, 0, 85, 56
1, 152640, Note_on_c, 0, 73, 56
1, 152640, Note_on_c, 0, 45, 35
1, 152656, Control_c, 0, 64, 0
1, 152725, Control_c, 0, 64, 127
1, 152760, Note_on_c, 0, 45, 0
1, 152760, Note_on_c, 0, 57, 27
1, 152880, Note_on_c, 0, 57, 0
1, 152880, Note_on_c, 0, 52, 31
1, 153000, Note_on_c, 0, 52, 0
1, 153000, Note_on_c, 0, 49, 27
1, 153120, Note_on_c, 0, 49, 0
1, 153120, Note_on_c, 0, 45, 31
1, 153240, Tempo, 837989
1, 153240, Note_on_c, 0, 45, 0
1, 153240, Note_on_c, 0, 52, 29
1, 153360, Note_on_c, 0, 52, 0
1, 153360, Note_on_c, 0, 73, 0
1, 153360, Note_on_c, 0, 85, 0
1, 153360, Note_on_c, 0, 85, 48
1, 153360, Note_on_c, 0, 73, 48
1, 153360, Note_on_c, 0, 45, 34
1, 153480, Note_on_c, 0, 45, 0
1, 153480, Note_on_c, 0, 52, 38
1, 153600, Tempo, 849858
1, 153600, Note_on_c, 0, 52, 0
1, 153600, Note_on_c, 0, 73, 0
1, 153600, Note_on_c, 0, 85, 0
1, 153600, Note_on_c, 0, 84, 57
1, 153600, Note_on_c, 0, 72, 57
1, 153600, Note_on_c, 0, 45, 39
1, 153600, Control_c, 0, 64, 0
1, 153612, Tempo, 826446
1, 153671, Control_c, 0, 64, 127
1, 153720, Note_on_c, 0, 45, 0
1, 153720, Note_on_c, 0, 52, 35
1, 153732, Tempo, 820793
1, 153840, Note_on_c, 0, 52, 0
1, 153840, Note_on_c, 0, 72, 0
1, 153840, Note_on_c, 0, 84, 0
1, 153840, Note_on_c, 0, 85, 58
1, 153840, Note_on_c, 0, 73, 58
1, 153840, Note_on_c, 0, 45, 38
1, 153852, Tempo, 815217
1, 153960, Note_on_c, 0, 45, 0
1, 153960, Note_on_c, 0, 52, 35
1, 153972, Tempo, 809717
1, 154062, Tempo, 804290
1, 154080, Note_on_c, 0, 52, 0
1, 154080, Note_on_c, 0, 73, 0
1, 154080, Note_on_c, 0, 85, 0
1, 154080, Note_on_c, 0, 81, 55
1, 154080, Note_on_c, 0, 69, 55
1, 154080, Note_on_c, 0, 49, 44
1, 154080, Note_on_c, 0, 45, 37
1, 154087, Control_c, 0, 64, 0
1, 154151, Control_c, 0, 64, 127
1, 154152, Tempo, 809717
1, 154200, Note_on_c, 0, 45, 0
1, 154200, Note_on_c, 0, 49, 0
1, 154200, Note_on_c, 0, 52, 36
1, 154212, Tempo, 815217
1, 154260, Note_on_c, 0, 69, 0
1, 154260, Note_on_c, 0, 81, 0
1, 154272, Tempo, 820793
1, 154320, Note_on_c, 0, 52, 0
1, 154320, Note_on_c, 0, 80, 55
1, 154320, Note_on_c, 0, 68, 55
1, 154320, Note_on_c, 0, 52, 44
1, 154320, Note_on_c, 0, 47, 37
1, 154332, Tempo, 826446
1, 154334, Control_c, 0, 64, 0
1, 154392, Tempo, 832178
1, 154398, Control_c, 0, 64, 127
1, 154440, Tempo, 936037
1, 154440, Note_on_c, 0, 47, 0
1, 154440, Note_on_c, 0, 52, 0
1, 154440, Note_on_c, 0, 56, 37
1, 154500, Note_on_c, 0, 68, 0
1, 154500, Note_on_c, 0, 80, 0
1, 154560, Tempo, 832178
1, 154560, Note_on_c, 0, 56, 0
1, 154560, Note_on_c, 0, 80, 72
1, 154560, Note_on_c, 0, 68, 72
1, 154560, Note_on_c, 0, 52, 55
1, 154560, Note_on_c, 0, 49, 47
1, 154567, Control_c, 0, 64, 0
1, 154629, Control_c, 0, 64, 127
1, 154680, Tempo, 832178
1, 154680, Note_on_c, 0, 49, 0
1, 154680, Note_on_c, 0, 52, 0
1, 154680, Note_on_c, 0, 58, 48
1, 154800, Note_on_c, 0, 58, 0
1, 154800, Note_on_c, 0, 68, 0
1, 154800, Note_on_c, 0, 80, 0
1, 154800, Note_on_c, 0, 78, 62
1, 154800, Note_on_c, 0, 66, 62
1, 154800, Note_on_c, 0, 52, 54
1, 154800, Note_on_c, 0, 49, 45
1, 154920, Tempo, 907716
1, 154920, Note_on_c, 0, 49, 0
1, 154920, Note_on_c, 0, 52, 0
1, 154920, Note_on_c, 0, 58, 43
1, 155040, Tempo, 855920
1, 155040, Note_on_c, 0, 58, 0
1, 155040, Note_on_c, 0, 52, 50
1, 155040, Note_on_c, 0, 48, 42
1, 155052, Control_c, 0, 64, 0
1, 155120, Control_c, 0, 64, 127
1, 155160, Note_on_c, 0, 48, 0
1, 155160, Note_on_c, 0, 52, 0
1, 155160, Note_on_c, 0, 57, 39
1, 155275, Note_on_c, 0, 66, 0
1, 155275, Note_on_c, 0, 78, 0
1, 155280, Note_on_c, 0, 57, 0
1, 155280, Note_on_c, 0, 78, 67
1, 155280, Note_on_c, 0, 66, 67
1, 155280, Note_on_c, 0, 52, 49
1, 155280, Note_on_c, 0, 48, 41
1, 155400, Tempo, 966184
1, 155400, Note_on_c, 0, 48, 0
1, 155400, Note_on_c, 0, 52, 0
1, 155400, Note_on_c, 0, 57, 39
1, 155508, Note_on_c, 0, 66, 0
1, 155508, Note_on_c, 0, 78, 0
1, 155520, Tempo, 862069
1, 155520, Note_on_c, 0, 57, 0
1, 155520, Note_on_c, 0, 78, 49
1, 155520, Note_on_c, 0, 66, 49
1, 155520, Note_on_c, 0, 51, 31
1, 155520, Note_on_c, 0, 47, 26
1, 155527, Control_c, 0, 64, 0
1, 155605, Control_c, 0, 64, 127
1, 155640, Note_on_c, 0, 47, 0
1, 155640, Note_on_c, 0, 51, 0
1, 155640, Note_on_c, 0, 57, 27
1, 155760, Note_on_c, 0, 57, 0
1, 155760, Note_on_c, 0, 66, 0
1, 155760, Note_on_c, 0, 78, 0
1, 155760, Note_on_c, 0, 83, 38
1, 155760, Note_on_c, 0, 71, 38
1, 155760, Note_on_c, 0, 51, 31
1, 155760, Note_on_c, 0, 47, 26
1, 155880, Note_on_c, 0, 47, 0
1, 155880, Note_on_c, 0, 51, 0
1, 155880, Note_on_c, 0, 57, 29
1, 156000, Tempo, 894188
1, 156000, Note_on_c, 0, 57, 0
1, 156000, Note_on_c, 0, 71, 0
1, 156000, Note_on_c, 0, 83, 0
1, 156000, Note_on_c, 0, 82, 46
1, 156000, Note_on_c, 0, 70, 46
1, 156000, Note_on_c, 0, 51, 31
1, 156000, Note_on_c, 0, 47, 26
1, 156009, Control_c, 0, 64, 0
1, 156085, Control_c, 0, 64, 127
1, 156120, Note_on_c, 0, 47, 0
1, 156120, Note_on_c, 0, 51, 0
1, 156120, Note_on_c, 0, 57, 27
1, 156240, Note_on_c, 0, 57, 0
1, 156240, Note_on_c, 0, 70, 0
1, 156240, Note_on_c, 0, 82, 0
1, 156240, Note_on_c, 0, 83, 40
1, 156240, Note_on_c, 0, 71, 40
1, 156240, Note_on_c, 0, 51, 31
1, 156240, Note_on_c, 0, 47, 26
1, 156360, Tempo, 998336
1, 156360, Note_on_c, 0, 47, 0
1, 156360, Note_on_c, 0, 51, 0
1, 156360, Note_on_c, 0, 57, 28
1, 156480, Tempo, 907716
1, 156480, Note_on_c, 0, 57, 0
1, 156480, Note_on_c, 0, 71, 0
1, 156480, Note_on_c, 0, 83, 0
1, 156480, Note_on_c, 0, 76, 51
1, 156480, Note_on_c, 0, 64, 51
1, 156480, Note_on_c, 0, 52, 31
1, 156480, Note_on_c, 0, 56, 31
1, 156487, Control_c, 0, 64, 0
1, 156600, Note_on_c, 0, 56, 0
1, 156600, Note_on_c, 0, 52, 0
1, 156600, Note_on_c, 0, 52, 31
1, 156720, Note_on_c, 0, 52, 0
1, 156720, Note_on_c, 0, 51, 31
1, 156840, Note_on_c, 0, 51, 0
1, 156840, Note_on_c, 0, 49, 31
1, 156960, Note_on_c, 0, 49, 0
1, 156960, Note_on_c, 0, 64, 0
1, 156960, Note_on_c, 0, 76, 0
1, 156960, Note_on_c, 0, 47, 31
1, 157080, Tempo, 966184
1, 157080, Note_on_c, 0, 47, 0
1, 157080, Note_on_c, 0, 45, 30
1, 157200, Tempo, 907716
1, 157200, Note_on_c, 0, 45, 0
1, 157200, Note_on_c, 0, 64, 43
1, 157200, Note_on_c, 0, 44, 25
1, 157320, Tempo, 958466
1, 157320, Note_on_c, 0, 44, 0
1, 157320, Note_on_c, 0, 64, 0
1, 157320, Note_on_c, 0, 66, 39
1, 157320, Note_on_c, 0, 42, 25
1, 157440, Tempo, 900901
1, 157440, Note_on_c, 0, 42, 0
1, 157440, Note_on_c, 0, 66, 0
1, 157440, Note_on_c, 0, 64, 34
1, 157440, Note_on_c, 0, 68, 50
1, 157440, Note_on_c, 0, 40, 25
1, 157518, Control_c, 0, 64, 127
1, 157560, Note_on_c, 0, 64, 0
1, 157560, Note_on_c, 0, 59, 26
1, 157680, Note_on_c, 0, 59, 0
1, 157680, Note_on_c, 0, 40, 0
1, 157680, Note_on_c, 0, 64, 31
1, 157800, Note_on_c, 0, 64, 0
1, 157800, Note_on_c, 0, 59, 26
1, 157920, Tempo, 849858
1, 157920, Note_on_c, 0, 59, 0
1, 157920, Note_on_c, 0, 68, 0
1, 157920, Note_on_c, 0, 68, 30
1, 157920, Note_on_c, 0, 71, 46
1, 157936, Control_c, 0, 64, 0
1, 158019, Control_c, 0, 64, 127
1, 158040, Note_on_c, 0, 68, 0
1, 158040, Note_on_c, 0, 59, 27
1, 158160, Tempo, 881057
1, 158160, Note_on_c, 0, 59, 0
1, 158160, Note_on_c, 0, 71, 0
1, 158160, Note_on_c, 0, 66, 28
1, 158160, Note_on_c, 0, 69, 43
1, 158173, Control_c, 0, 64, 0
1, 158224, Control_c, 0, 64, 127
1, 158280, Tempo, 881057
1, 158280, Note_on_c, 0, 66, 0
1, 158280, Note_on_c, 0, 59, 27
1, 158400, Tempo, 868307
1, 158400, Note_on_c, 0, 59, 0
1, 158400, Note_on_c, 0, 69, 0
1, 158400, Note_on_c, 0, 64, 34
1, 158400, Note_on_c, 0, 68, 50
1, 158400, Note_on_c, 0, 35, 25
1, 158400, Control_c, 0, 64, 0
1, 158464, Control_c, 0, 64, 127
1, 158520, Note_on_c, 0, 64, 0
1, 158520, Note_on_c, 0, 59, 26
1, 158640, Tempo, 849858
1, 158640, Note_on_c, 0, 59, 0
1, 158640, Note_on_c, 0, 35, 0
1, 158640, Note_on_c, 0, 68, 0
1, 158640, Note_on_c, 0, 63, 27
1, 158640, Note_on_c, 0, 66, 41
1, 158654, Control_c, 0, 64, 0
1, 158697, Control_c, 0, 64, 127
1, 158760, Note_on_c, 0, 63, 0
1, 158760, Note_on_c, 0, 59, 25
1, 158850, Note_on_c, 0, 59, 0
1, 158850, Note_on_c, 0, 66, 0
1, 158850, Control_c, 0, 64, 0
1, 158880, Note_on_c, 0, 63, 27
1, 158880, Note_on_c, 0, 66, 41
1, 158944, Control_c, 0, 64, 127
1, 159000, Note_on_c, 0, 63, 0
1, 159000, Note_on_c, 0, 59, 26
1, 159120, Tempo, 832178
1, 159120, Note_on_c, 0, 59, 0
1, 159120, Note_on_c, 0, 66, 0
1, 159120, Note_on_c, 0, 64, 28
1, 159120, Note_on_c, 0, 68, 43
1, 159138, Control_c, 0, 64, 0
1, 159205, Control_c, 0, 64, 127
1, 159240, Note_on_c, 0, 64, 0
1, 159240, Note_on_c, 0, 59, 28
1, 159360, Tempo, 849858
1, 159360, Note_on_c, 0, 59, 0
1, 159360, Note_on_c, 0, 68, 0
1, 159360, Note_on_c, 0, 64, 30
1, 159360, Note_on_c, 0, 69, 46
1, 159360, Note_on_c, 0, 37, 25
1, 159370, Control_c, 0, 64, 0
1, 159445, Control_c, 0, 64, 127
1, 159480, Note_on_c, 0, 64, 0
1, 159480, Note_on_c, 0, 59, 28
1, 159600, Note_on_c, 0, 59, 0
1, 159600, Note_on_c, 0, 37, 0
1, 159600, Note_on_c, 0, 69, 0
1, 159600, Note_on_c, 0, 64, 36
1, 159600, Note_on_c, 0, 73, 54
1, 159720, Note_on_c, 0, 64, 0
1, 159720, Note_on_c, 0, 59, 31
1, 159840, Note_on_c, 0, 59, 0
1, 159840, Note_on_c, 0, 73, 0
1, 159840, Note_on_c, 0, 66, 37
1, 159840, Note_on_c, 0, 71, 47
1, 159840, Note_on_c, 0, 39, 23
1, 159856, Control_c, 0, 64, 0
1, 159918, Control_c, 0, 64, 127
1, 159960, Note_on_c, 0, 66, 0
1, 159960, Note_on_c, 0, 59, 26
1, 160080, Tempo, 868307
1, 160080, Note_on_c, 0, 59, 0
1, 160080, Note_on_c, 0, 39, 0
1, 160080, Note_on_c, 0, 71, 0
1, 160080, Note_on_c, 0, 63, 25
1, 160080, Note_on_c, 0, 66, 38
1, 160080, Note_on_c, 0, 35, 22
1, 160200, Tempo, 1006711
1, 160200, Note_on_c, 0, 63, 0
1, 160200, Note_on_c, 0, 59, 27
1, 160320, Tempo, 928793
1, 160320, Note_on_c, 0, 59, 0
1, 160320, Note_on_c, 0, 35, 0
1, 160320, Note_on_c, 0, 66, 0
1, 160320, Note_on_c, 0, 59, 35
1, 160320, Note_on_c, 0, 64, 35
1, 160320, Note_on_c, 0, 68, 42
1, 160320, Note_on_c, 0, 40, 28
1, 160328, Control_c, 0, 64, 0
1, 160359, Control_c, 0, 64, 127
1, 160560, Tempo, 849858
1, 160560, Note_on_c, 0, 40, 0
1, 160560, Note_on_c, 0, 59, 0
1, 160560, Note_on_c, 0, 64, 0
1, 160560, Note_on_c, 0, 68, 0
1, 160560, Note_on_c, 0, 64, 28
1, 160567, Control_c, 0, 64, 0
1, 160613, Control_c, 0, 64, 127
1, 160680, Note_on_c, 0, 64, 0
1, 160680, Note_on_c, 0, 59, 22
1, 160770, Note_on_c, 0, 78, 42
1, 160800, Tempo, 783290
1, 160800, Note_on_c, 0, 78, 0
1, 160800, Note_on_c, 0, 59, 0
1, 160800, Note_on_c, 0, 76, 47
1, 160800, Note_on_c, 0, 64, 28
1, 160818, Control_c, 0, 64, 0
1, 160920, Note_on_c, 0, 64, 0
1, 160920, Note_on_c, 0, 76, 0
1, 160920, Note_on_c, 0, 75, 42
1, 160920, Note_on_c, 0, 59, 24
1, 161040, Note_on_c, 0, 59, 0
1, 161040, Note_on_c, 0, 75, 0
1, 161040, Note_on_c, 0, 76, 48
1, 161040, Note_on_c, 0, 64, 28
1, 161160, Note_on_c, 0, 64, 0
1, 161160, Note_on_c, 0, 76, 0
1, 161160, Note_on_c, 0, 78, 43
1, 161160, Note_on_c, 0, 59, 25
1, 161250, Note_on_c, 0, 78, 0
1, 161250, Note_on_c, 0, 81, 50
1, 161280, Note_on_c, 0, 81, 0
1, 161280, Note_on_c, 0, 59, 0
1, 161280, Note_on_c, 0, 80, 55
1, 161280, Note_on_c, 0, 64, 30
1, 161400, Note_on_c, 0, 64, 0
1, 161400, Note_on_c, 0, 80, 0
1, 161400, Note_on_c, 0, 78, 50
1, 161400, Note_on_c, 0, 59, 29
1, 161520, Tempo, 809717
1, 161520, Note_on_c, 0, 59, 0
1, 161520, Note_on_c, 0, 78, 0
1, 161520, Note_on_c, 0, 80, 52
1, 161520, Note_on_c, 0, 64, 32
1, 161640, Tempo, 894188
1, 161640, Note_on_c, 0, 64, 0
1, 161640, Note_on_c, 0, 80, 0
1, 161640, Note_on_c, 0, 81, 54
1, 161640, Note_on_c, 0, 59, 31
1, 161760, Tempo, 815217
1, 161760, Note_on_c, 0, 59, 0
1, 161760, Note_on_c, 0, 81, 0
1, 161760, Note_on_c, 0, 71, 45
1, 161760, Note_on_c, 0, 83, 53
1, 161760, Note_on_c, 0, 68, 35
1, 161859, Control_c, 0, 64, 127
1, 161880, Note_on_c, 0, 68, 0
1, 161880, Note_on_c, 0, 59, 32
1, 162000, Note_on_c, 0, 59, 0
1, 162000, Note_on_c, 0, 83, 0
1, 162000, Note_on_c, 0, 71, 0
1, 162000, Note_on_c, 0, 81, 53
1, 162000, Note_on_c, 0, 69, 45
1, 162000, Note_on_c, 0, 66, 39
1, 162007, Control_c, 0, 64, 0
1, 162078, Control_c, 0, 64, 127
1, 162120, Tempo, 881057
1, 162120, Note_on_c, 0, 66, 0
1, 162120, Note_on_c, 0, 59, 36
1, 162240, Tempo, 837989
1, 162240, Note_on_c, 0, 59, 0
1, 162240, Note_on_c, 0, 69, 0
1, 162240, Note_on_c, 0, 81, 0
1, 162240, Note_on_c, 0, 80, 63
1, 162240, Note_on_c, 0, 68, 53
1, 162240, Note_on_c, 0, 64, 49
1, 162247, Control_c, 0, 64, 0
1, 162292, Control_c, 0, 64, 127
1, 162360, Note_on_c, 0, 64, 0
1, 162360, Note_on_c, 0, 59, 41
1, 162480, Note_on_c, 0, 59, 0
1, 162480, Note_on_c, 0, 68, 0
1, 162480, Note_on_c, 0, 80, 0
1, 162480, Note_on_c, 0, 66, 51
1, 162480, Note_on_c, 0, 78, 61
1, 162480, Note_on_c, 0, 63, 48
1, 162495, Control_c, 0, 64, 0
1, 162543, Control_c, 0, 64, 127
1, 162600, Tempo, 900901
1, 162600, Note_on_c, 0, 63, 0
1, 162600, Note_on_c, 0, 59, 42
1, 162692, Control_c, 0, 64, 0
1, 162708, Note_on_c, 0, 78, 0
1, 162708, Note_on_c, 0, 66, 0
1, 162720, Tempo, 843882
1, 162720, Note_on_c, 0, 59, 0
1, 162720, Note_on_c, 0, 66, 58
1, 162720, Note_on_c, 0, 78, 70
1, 162720, Note_on_c, 0, 63, 46
1, 162795, Control_c, 0, 64, 127
1, 162840, Note_on_c, 0, 63, 0
1, 162840, Note_on_c, 0, 59, 39
1, 162960, Note_on_c, 0, 59, 0
1, 162960, Note_on_c, 0, 78, 0
1, 162960, Note_on_c, 0, 66, 0
1, 162960, Note_on_c, 0, 80, 64
1, 162960, Note_on_c, 0, 68, 54
1, 162960, Note_on_c, 0, 65, 49
1, 162968, Control_c, 0, 64, 0
1, 163023, Control_c, 0, 64, 127
1, 163080, Note_on_c, 0, 65, 0
1, 163080, Note_on_c, 0, 59, 44
1, 163200, Note_on_c, 0, 59, 0
1, 163200, Note_on_c, 0, 68, 0
1, 163200, Note_on_c, 0, 80, 0
1, 163200, Note_on_c, 0, 69, 65
1, 163200, Note_on_c, 0, 81, 77
1, 163200, Note_on_c, 0, 66, 58
1, 163206, Control_c, 0, 64, 0
1, 163232, Control_c, 0, 64, 127
1, 163320, Note_on_c, 0, 66, 0
1, 163320, Note_on_c, 0, 59, 48
1, 163440, Note_on_c, 0, 59, 0
1, 163440, Note_on_c, 0, 81, 0
1, 163440, Note_on_c, 0, 69, 0
1, 163440, Note_on_c, 0, 85, 68
1, 163440, Note_on_c, 0, 73, 57
1, 163440, Note_on_c, 0, 69, 53
1, 163447, Control_c, 0, 64, 0
1, 163486, Control_c, 0, 64, 127
1, 163560, Tempo, 900901
1, 163560, Note_on_c, 0, 69, 0
1, 163560, Note_on_c, 0, 59, 47
1, 163680, Tempo, 849858
1, 163680, Note_on_c, 0, 59, 0
1, 163680, Note_on_c, 0, 73, 0
1, 163680, Note_on_c, 0, 85, 0
1, 163680, Note_on_c, 0, 83, 80
1, 163680, Note_on_c, 0, 71, 67
1, 163680, Note_on_c, 0, 68, 57
1, 163694, Control_c, 0, 64, 0
1, 163726, Control_c, 0, 64, 127
1, 163800, Note_on_c, 0, 68, 0
1, 163800, Note_on_c, 0, 59, 44
1, 163920, Tempo, 900901
1, 163920, Note_on_c, 0, 59, 0
1, 163920, Note_on_c, 0, 71, 0
1, 163920, Note_on_c, 0, 83, 0
1, 163920, Note_on_c, 0, 75, 70
1, 163920, Note_on_c, 0, 81, 70
1, 163920, Note_on_c, 0, 87, 83
1, 163920, Note_on_c, 0, 66, 54
1, 163931, Control_c, 0, 64, 0
1, 163970, Control_c, 0, 64, 127
1, 164040, Note_on_c, 0, 66, 0
1, 164040, Note_on_c, 0, 59, 46
1, 164100, Note_on_c, 0, 75, 0
1, 164100, Note_on_c, 0, 87, 0
1, 164100, Note_on_c, 0, 81, 0
1, 164118, Control_c, 0, 64, 0
1, 164160, Note_on_c, 0, 59, 0
1, 164160, Note_on_c, 0, 76, 73
1, 164160, Note_on_c, 0, 80, 73
1, 164160, Note_on_c, 0, 88, 88
1, 164160, Note_on_c, 0, 64, 59
1, 164238, Control_c, 0, 64, 127
1, 164280, Tempo, 849858
1, 164280, Note_on_c, 0, 64, 0
1, 164280, Note_on_c, 0, 59, 49
1, 164400, Note_on_c, 0, 59, 0
1, 164400, Note_on_c, 0, 56, 58
1, 164520, Note_on_c, 0, 56, 0
1, 164520, Note_on_c, 0, 59, 50
1, 164640, Tempo, 862069
1, 164640, Note_on_c, 0, 59, 0
1, 164640, Note_on_c, 0, 88, 0
1, 164640, Note_on_c, 0, 80, 0
1, 164640, Note_on_c, 0, 76, 0
1, 164640, Note_on_c, 0, 52, 59
1, 164657, Control_c, 0, 64, 0
1, 164880, Tempo, 887574
1, 164880, Note_on_c, 0, 52, 0
1, 164880, Note_on_c, 0, 64, 73
1, 164880, Note_on_c, 0, 68, 87
1, 165000, Note_on_c, 0, 68, 0
1, 165000, Note_on_c, 0, 64, 0
1, 165120, Tempo, 855920
1, 165120, Note_on_c, 0, 64, 81
1, 165120, Note_on_c, 0, 68, 96
1, 165120, Note_on_c, 0, 61, 67
1, 165198, Control_c, 0, 64, 127
1, 165240, Tempo, 832178
1, 165240, Note_on_c, 0, 61, 0
1, 165240, Note_on_c, 0, 56, 57
1, 165360, Note_on_c, 0, 56, 0
1, 165360, Note_on_c, 0, 52, 62
1, 165480, Note_on_c, 0, 52, 0
1, 165480, Note_on_c, 0, 56, 57
1, 165600, Note_on_c, 0, 56, 0
1, 165600, Note_on_c, 0, 49, 70
1, 165840, Tempo, 887574
1, 165840, Note_on_c, 0, 49, 0
1, 165840, Note_on_c, 0, 68, 0
1, 165840, Note_on_c, 0, 64, 0
1, 165840, Note_on_c, 0, 76, 34
1, 165840, Note_on_c, 0, 68, 28
1, 165840, Note_on_c, 0, 64, 28
1, 165840, Note_on_c, 0, 61, 26
1, 165841, Control_c, 0, 64, 0
1, 165960, Note_on_c, 0, 61, 0
1, 165960, Note_on_c, 0, 76, 0
1, 165960, Note_on_c, 0, 68, 0
1, 165960, Note_on_c, 0, 64, 0
1, 166080, Tempo, 837989
1, 166080, Note_on_c, 0, 75, 39
1, 166080, Note_on_c, 0, 68, 33
1, 166080, Note_on_c, 0, 66, 33
1, 166080, Note_on_c, 0, 63, 33
1, 166080, Note_on_c, 0, 60, 33
1, 166103, Control_c, 0, 64, 127
1, 166200, Tempo, 832178
1, 166200, Note_on_c, 0, 60, 0
1, 166200, Note_on_c, 0, 56, 27
1, 166320, Note_on_c, 0, 56, 0
1, 166320, Note_on_c, 0, 51, 33
1, 166440, Note_on_c, 0, 51, 0
1, 166440, Note_on_c, 0, 56, 27
1, 166560, Note_on_c, 0, 56, 0
1, 166560, Note_on_c, 0, 48, 36
1, 166800, Tempo, 887574
1, 166800, Note_on_c, 0, 48, 0
1, 166800, Note_on_c, 0, 66, 0
1, 166800, Note_on_c, 0, 75, 0
1, 166800, Note_on_c, 0, 68, 0
1, 166800, Note_on_c, 0, 63, 0
1, 166800, Note_on_c, 0, 63, 73
1, 166800, Note_on_c, 0, 68, 87
1, 166800, Note_on_c, 0, 60, 77
1, 166806, Control_c, 0, 64, 0
1, 166920, Note_on_c, 0, 60, 0
1, 166920, Note_on_c, 0, 68, 0
1, 166920, Note_on_c, 0, 63, 0
1, 167040, Tempo, 826446
1, 167040, Note_on_c, 0, 64, 81
1, 167040, Note_on_c, 0, 62, 81
1, 167040, Note_on_c, 0, 68, 96
1, 167040, Note_on_c, 0, 59, 67
1, 167118, Control_c, 0, 64, 127
1, 167160, Note_on_c, 0, 59, 0
1, 167160, Note_on_c, 0, 56, 57
1, 167280, Note_on_c, 0, 56, 0
1, 167280, Note_on_c, 0, 52, 62
1, 167400, Note_on_c, 0, 52, 0
1, 167400, Note_on_c, 0, 56, 57
1, 167520, Note_on_c, 0, 56, 0
1, 167520, Note_on_c, 0, 47, 70
1, 167760, Tempo, 887574
1, 167760, Note_on_c, 0, 47, 0
1, 167760, Note_on_c, 0, 64, 0
1, 167760, Note_on_c, 0, 62, 0
1, 167760, Note_on_c, 0, 68, 0
1, 167760, Note_on_c, 0, 62, 28
1, 167760, Note_on_c, 0, 74, 34
1, 167760, Note_on_c, 0, 64, 28
1, 167760, Note_on_c, 0, 59, 26
1, 167761, Control_c, 0, 64, 0
1, 167880, Note_on_c, 0, 59, 0
1, 167880, Note_on_c, 0, 62, 0
1, 167880, Note_on_c, 0, 74, 0
1, 167880, Note_on_c, 0, 64, 0
1, 168000, Tempo, 820793
1, 168000, Note_on_c, 0, 73, 39
1, 168000, Note_on_c, 0, 64, 33
1, 168000, Note_on_c, 0, 61, 33
1, 168000, Note_on_c, 0, 57, 33
1, 168023, Control_c, 0, 64, 127
1, 168120, Tempo, 832178
1, 168120, Note_on_c, 0, 57, 0
1, 168120, Note_on_c, 0, 52, 27
1, 168240, Note_on_c, 0, 52, 0
1, 168240, Note_on_c, 0, 49, 33
1, 168360, Note_on_c, 0, 49, 0
1, 168360, Note_on_c, 0, 52, 27
1, 168480, Note_on_c, 0, 52, 0
1, 168480, Note_on_c, 0, 45, 36
1, 168720, Tempo, 887574
1, 168720, Note_on_c, 0, 45, 0
1, 168720, Note_on_c, 0, 73, 0
1, 168720, Note_on_c, 0, 64, 0
1, 168720, Note_on_c, 0, 61, 0
1, 168720, Note_on_c, 0, 61, 87
1, 168720, Note_on_c, 0, 57, 83
1, 168720, Control_c, 0, 64, 0
1, 168840, Note_on_c, 0, 57, 0
1, 168840, Note_on_c, 0, 61, 0
1, 168960, Tempo, 843882
1, 168960, Note_on_c, 0, 59, 81
1, 168960, Note_on_c, 0, 61, 96
1, 168960, Note_on_c, 0, 56, 67
1, 169038, Control_c, 0, 64, 127
1, 169080, Tempo, 826446
1, 169080, Note_on_c, 0, 56, 0
1, 169080, Note_on_c, 0, 53, 57
1, 169200, Note_on_c, 0, 53, 0
1, 169200, Note_on_c, 0, 49, 62
1, 169320, Note_on_c, 0, 49, 0
1, 169320, Note_on_c, 0, 53, 57
1, 169440, Note_on_c, 0, 53, 0
1, 169440, Note_on_c, 0, 44, 70
1, 169680, Tempo, 887574
1, 169680, Note_on_c, 0, 44, 0
1, 169680, Note_on_c, 0, 61, 0
1, 169680, Note_on_c, 0, 59, 0
1, 169680, Note_on_c, 0, 71, 34
1, 169680, Note_on_c, 0, 61, 28
1, 169680, Note_on_c, 0, 59, 28
1, 169680, Note_on_c, 0, 56, 26
1, 169681, Control_c, 0, 64, 0
1, 169800, Note_on_c, 0, 56, 0
1, 169800, Note_on_c, 0, 71, 0
1, 169800, Note_on_c, 0, 61, 0
1, 169800, Note_on_c, 0, 59, 0
1, 169920, Tempo, 820793
1, 169920, Note_on_c, 0, 69, 39
1, 169920, Note_on_c, 0, 61, 33
1, 169920, Note_on_c, 0, 57, 33
1, 169920, Note_on_c, 0, 54, 33
1, 169943, Control_c, 0, 64, 127
1, 170040, Tempo, 832178
1, 170040, Note_on_c, 0, 54, 0
1, 170040, Note_on_c, 0, 49, 27
1, 170160, Note_on_c, 0, 49, 0
1, 170160, Note_on_c, 0, 45, 33
1, 170280, Note_on_c, 0, 45, 0
1, 170280, Note_on_c, 0, 49, 27
1, 170400, Note_on_c, 0, 49, 0
1, 170400, Note_on_c, 0, 42, 36
1, 170640, Tempo, 887574
1, 170640, Note_on_c, 0, 42, 0
1, 170640, Note_on_c, 0, 69, 0
1, 170640, Note_on_c, 0, 61, 0
1, 170640, Note_on_c, 0, 57, 0
1, 170640, Note_on_c, 0, 73, 73
1, 170640, Note_on_c, 0, 78, 73
1, 170640, Note_on_c, 0, 81, 87
1, 170640, Note_on_c, 0, 66, 77
1, 170646, Control_c, 0, 64, 0
1, 170760, Note_on_c, 0, 66, 0
1, 170760, Note_on_c, 0, 73, 0
1, 170760, Note_on_c, 0, 78, 0
1, 170760, Note_on_c, 0, 81, 0
1, 170880, Tempo, 820793
1, 170880, Note_on_c, 0, 78, 81
1, 170880, Note_on_c, 0, 71, 81
1, 170880, Note_on_c, 0, 81, 96
1, 170880, Note_on_c, 0, 63, 67
1, 170958, Control_c, 0, 64, 127
1, 171000, Note_on_c, 0, 63, 0
1, 171000, Note_on_c, 0, 59, 57
1, 171120, Note_on_c, 0, 59, 0
1, 171120, Note_on_c, 0, 54, 62
1, 171240, Note_on_c, 0, 54, 0
1, 171240, Note_on_c, 0, 59, 57
1, 171360, Note_on_c, 0, 59, 0
1, 171360, Note_on_c, 0, 51, 70
1, 171600, Tempo, 887574
1, 171600, Note_on_c, 0, 51, 0
1, 171600, Note_on_c, 0, 78, 0
1, 171600, Note_on_c, 0, 71, 0
1, 171600, Note_on_c, 0, 81, 0
1, 171600, Note_on_c, 0, 66, 73
1, 171600, Note_on_c, 0, 69, 87
1, 171600, Note_on_c, 0, 51, 77
1, 171601, Control_c, 0, 64, 0
1, 171601, Control_c, 0, 64, 0
1, 171606, Control_c, 0, 64, 0
1, 171720, Note_on_c, 0, 51, 0
1, 171720, Note_on_c, 0, 69, 0
1, 171720, Note_on_c, 0, 66, 0
1, 171840, Tempo, 843882
1, 171840, Note_on_c, 0, 64, 81
1, 171840, Note_on_c, 0, 69, 96
1, 171840, Note_on_c, 0, 48, 67
1, 171918, Control_c, 0, 64, 127
1, 171960, Tempo, 820793
1, 171960, Note_on_c, 0, 48, 0
1, 171960, Note_on_c, 0, 45, 57
1, 172080, Note_on_c, 0, 45, 0
1, 172080, Note_on_c, 0, 40, 62
1, 172200, Note_on_c, 0, 40, 0
1, 172200, Note_on_c, 0, 45, 57
1, 172320, Note_on_c, 0, 45, 0
1, 172320, Note_on_c, 0, 36, 70
1, 172560, Tempo, 887574
1, 172560, Note_on_c, 0, 36, 0
1, 172560, Note_on_c, 0, 69, 0
1, 172560, Note_on_c, 0, 64, 0
1, 172560, Note_on_c, 0, 69, 73
1, 172560, Note_on_c, 0, 76, 73
1, 172560, Note_on_c, 0, 81, 87
1, 172560, Note_on_c, 0, 48, 63
1, 172560, Note_on_c, 0, 60, 77
1, 172566, Control_c, 0, 64, 0
1, 172680, Note_on_c, 0, 60, 0
1, 172680, Note_on_c, 0, 81, 0
1, 172680, Note_on_c, 0, 69, 0
1, 172680, Note_on_c, 0, 76, 0
1, 172680, Note_on_c, 0, 48, 0
1, 172800, Tempo, 815217
1, 172800, Note_on_c, 0, 75, 81
1, 172800, Note_on_c, 0, 78, 81
1, 172800, Note_on_c, 0, 69, 81
1, 172800, Note_on_c, 0, 81, 96
1, 172800, Note_on_c, 0, 47, 48
1, 172800, Note_on_c, 0, 59, 48
1, 172878, Control_c, 0, 64, 127
1, 172920, Tempo, 832178
1, 173040, Note_on_c, 0, 59, 0
1, 173040, Note_on_c, 0, 78, 0
1, 173040, Note_on_c, 0, 69, 0
1, 173040, Note_on_c, 0, 75, 0
1, 173040, Note_on_c, 0, 47, 0
1, 173040, Note_on_c, 0, 81, 0
1, 173040, Note_on_c, 0, 71, 33
1, 173160, Note_on_c, 0, 71, 0
1, 173160, Note_on_c, 0, 73, 27
1, 173280, Note_on_c, 0, 73, 0
1, 173280, Note_on_c, 0, 71, 33
1, 173400, Note_on_c, 0, 71, 0
1, 173400, Note_on_c, 0, 73, 29
1, 173520, Note_on_c, 0, 73, 0
1, 173520, Note_on_c, 0, 71, 33
1, 173640, Tempo, 914634
1, 173640, Note_on_c, 0, 71, 0
1, 173640, Note_on_c, 0, 73, 29
1, 173760, Tempo, 820793
1, 173760, Note_on_c, 0, 73, 0
1, 173760, Note_on_c, 0, 81, 53
1, 173760, Note_on_c, 0, 90, 53
1, 173760, Note_on_c, 0, 71, 32
1, 173760, Note_on_c, 0, 66, 41
1, 173760, Note_on_c, 0, 63, 34
1, 173760, Control_c, 0, 64, 0
1, 173880, Note_on_c, 0, 71, 0
1, 173880, Note_on_c, 0, 73, 27
1, 174000, Note_on_c, 0, 73, 0
1, 174000, Note_on_c, 0, 71, 31
1, 174120, Note_on_c, 0, 71, 0
1, 174120, Note_on_c, 0, 73, 26
1, 174240, Note_on_c, 0, 73, 0
1, 174240, Note_on_c, 0, 71, 38
1, 174360, Note_on_c, 0, 71, 0
1, 174360, Note_on_c, 0, 73, 32
1, 174480, Tempo, 862069
1, 174480, Note_on_c, 0, 73, 0
1, 174480, Note_on_c, 0, 63, 0
1, 174480, Note_on_c, 0, 81, 0
1, 174480, Note_on_c, 0, 90, 0
1, 174480, Note_on_c, 0, 66, 0
1, 174480, Note_on_c, 0, 80, 57
1, 174480, Note_on_c, 0, 88, 57
1, 174480, Note_on_c, 0, 64, 46
1, 174480, Note_on_c, 0, 68, 46
1, 174480, Note_on_c, 0, 71, 46
1, 174600, Note_on_c, 0, 71, 0
1, 174600, Note_on_c, 0, 73, 36
1, 174696, Note_on_c, 0, 64, 0
1, 174696, Note_on_c, 0, 68, 0
1, 174696, Note_on_c, 0, 80, 0
1, 174696, Note_on_c, 0, 88, 0
1, 174720, Tempo, 809717
1, 174720, Note_on_c, 0, 73, 0
1, 174720, Note_on_c, 0, 88, 62
1, 174720, Note_on_c, 0, 80, 62
1, 174720, Note_on_c, 0, 64, 52
1, 174720, Note_on_c, 0, 68, 52
1, 174720, Note_on_c, 0, 71, 52
1, 174770, Control_c, 0, 64, 0
1, 174840, Note_on_c, 0, 71, 0
1, 174840, Note_on_c, 0, 73, 29
1, 174960, Note_on_c, 0, 73, 0
1, 174960, Note_on_c, 0, 68, 0
1, 174960, Note_on_c, 0, 88, 0
1, 174960, Note_on_c, 0, 80, 0
1, 174960, Note_on_c, 0, 64, 0
1, 174960, Note_on_c, 0, 78, 48
1, 174960, Note_on_c, 0, 87, 48
1, 174960, Note_on_c, 0, 71, 32
1, 174960, Note_on_c, 0, 69, 41
1, 174960, Note_on_c, 0, 66, 34
1, 175080, Note_on_c, 0, 71, 0
1, 175080, Note_on_c, 0, 73, 28
1, 175176, Note_on_c, 0, 69, 0
1, 175176, Note_on_c, 0, 66, 0
1, 175176, Note_on_c, 0, 78, 0
1, 175176, Note_on_c, 0, 87, 0
1, 175200, Tempo, 820793
1, 175200, Note_on_c, 0, 73, 0
1, 175200, Note_on_c, 0, 87, 47
1, 175200, Note_on_c, 0, 78, 47
1, 175200, Note_on_c, 0, 66, 28
1, 175200, Note_on_c, 0, 69, 33
1, 175200, Note_on_c, 0, 71, 26
1, 175320, Note_on_c, 0, 71, 0
1, 175320, Note_on_c, 0, 73, 24
1, 175440, Tempo, 868307
1, 175440, Note_on_c, 0, 73, 0
1, 175440, Note_on_c, 0, 69, 0
1, 175440, Note_on_c, 0, 87, 0
1, 175440, Note_on_c, 0, 78, 0
1, 175440, Note_on_c, 0, 66, 0
1, 175440, Note_on_c, 0, 80, 39
1, 175440, Note_on_c, 0, 88, 39
1, 175440, Note_on_c, 0, 64, 28
1, 175440, Note_on_c, 0, 68, 33
1, 175440, Note_on_c, 0, 71, 26
1, 175560, Note_on_c, 0, 71, 0
1, 175560, Note_on_c, 0, 73, 24
1, 175680, Tempo, 820793
1, 175680, Note_on_c, 0, 73, 0
1, 175680, Note_on_c, 0, 68, 0
1, 175680, Note_on_c, 0, 80, 0
1, 175680, Note_on_c, 0, 88, 0
1, 175680, Note_on_c, 0, 64, 0
1, 175680, Note_on_c, 0, 81, 53
1, 175680, Note_on_c, 0, 90, 53
1, 175680, Note_on_c, 0, 71, 32
1, 175680, Note_on_c, 0, 66, 41
1, 175680, Note_on_c, 0, 63, 34
1, 175680, Control_c, 0, 64, 0
1, 175800, Note_on_c, 0, 71, 0
1, 175800, Note_on_c, 0, 73, 27
1, 175920, Note_on_c, 0, 73, 0
1, 175920, Note_on_c, 0, 71, 31
1, 176040, Note_on_c, 0, 71, 0
1, 176040, Note_on_c, 0, 73, 26
1, 176160, Note_on_c, 0, 73, 0
1, 176160, Note_on_c, 0, 71, 32
1, 176280, Note_on_c, 0, 71, 0
1, 176280, Note_on_c, 0, 73, 32
1, 176400, Tempo, 862069
1, 176400, Note_on_c, 0, 73, 0
1, 176400, Note_on_c, 0, 63, 0
1, 176400, Note_on_c, 0, 81, 0
1, 176400, Note_on_c, 0, 90, 0
1, 176400, Note_on_c, 0, 66, 0
1, 176400, Note_on_c, 0, 80, 57
1, 176400, Note_on_c, 0, 88, 57
1, 176400, Note_on_c, 0, 64, 45
1, 176400, Note_on_c, 0, 68, 45
1, 176400, Note_on_c, 0, 71, 45
1, 176520, Note_on_c, 0, 71, 0
1, 176520, Note_on_c, 0, 73, 41
1, 176616, Note_on_c, 0, 64, 0
1, 176616, Note_on_c, 0, 68, 0
1, 176616, Note_on_c, 0, 80, 0
1, 176616, Note_on_c, 0, 88, 0
1, 176640, Tempo, 809717
1, 176640, Note_on_c, 0, 73, 0
1, 176640, Note_on_c, 0, 87, 62
1, 176640, Note_on_c, 0, 78, 62
1, 176640, Note_on_c, 0, 71, 37
1, 176640, Note_on_c, 0, 69, 47
1, 176640, Note_on_c, 0, 66, 39
1, 176690, Control_c, 0, 64, 0
1, 176760, Note_on_c, 0, 71, 0
1, 176760, Note_on_c, 0, 73, 29
1, 176880, Note_on_c, 0, 73, 0
1, 176880, Note_on_c, 0, 66, 0
1, 176880, Note_on_c, 0, 87, 0
1, 176880, Note_on_c, 0, 78, 0
1, 176880, Note_on_c, 0, 69, 0
1, 176880, Note_on_c, 0, 90, 48
1, 176880, Note_on_c, 0, 81, 48
1, 176880, Note_on_c, 0, 71, 32
1, 176880, Note_on_c, 0, 66, 41
1, 176880, Note_on_c, 0, 63, 34
1, 177000, Note_on_c, 0, 71, 0
1, 177000, Note_on_c, 0, 73, 28
1, 177096, Note_on_c, 0, 66, 0
1, 177096, Note_on_c, 0, 63, 0
1, 177120, Tempo, 832178
1, 177120, Note_on_c, 0, 90, 0
1, 177120, Note_on_c, 0, 81, 0
1, 177120, Note_on_c, 0, 73, 0
1, 177120, Note_on_c, 0, 88, 47
1, 177120, Note_on_c, 0, 80, 47
1, 177120, Note_on_c, 0, 64, 28
1, 177120, Note_on_c, 0, 68, 33
1, 177120, Note_on_c, 0, 71, 26
1, 177240, Note_on_c, 0, 71, 0
1, 177240, Note_on_c, 0, 73, 24
1, 177360, Tempo, 868307
1, 177360, Note_on_c, 0, 73, 0
1, 177360, Note_on_c, 0, 68, 0
1, 177360, Note_on_c, 0, 88, 0
1, 177360, Note_on_c, 0, 80, 0
1, 177360, Note_on_c, 0, 64, 0
1, 177360, Note_on_c, 0, 75, 39
1, 177360, Note_on_c, 0, 78, 39
1, 177360, Note_on_c, 0, 87, 39
1, 177360, Note_on_c, 0, 66, 28
1, 177360, Note_on_c, 0, 69, 33
1, 177360, Note_on_c, 0, 71, 26
1, 177480, Note_on_c, 0, 71, 0
1, 177480, Note_on_c, 0, 73, 24
1, 177600, Note_on_c, 0, 73, 0
1, 177600, Note_on_c, 0, 69, 0
1, 177600, Note_on_c, 0, 87, 0
1, 177600, Note_on_c, 0, 75, 0
1, 177600, Note_on_c, 0, 78, 0
1, 177600, Note_on_c, 0, 66, 0
1, 177600, Note_on_c, 0, 88, 39
1, 177600, Note_on_c, 0, 76, 39
1, 177600, Note_on_c, 0, 68, 28
1, 177600, Note_on_c, 0, 71, 33
1, 177636, Control_c, 0, 64, 127
1, 177720, Note_on_c, 0, 71, 0
1, 177720, Note_on_c, 0, 76, 27
1, 177840, Tempo, 820793
1, 177840, Note_on_c, 0, 76, 0
1, 177840, Note_on_c, 0, 68, 0
1, 177840, Note_on_c, 0, 76, 0
1, 177840, Note_on_c, 0, 88, 0
1, 177840, Note_on_c, 0, 87, 34
1, 177840, Note_on_c, 0, 71, 31
1, 177847, Control_c, 0, 64, 0
1, 177904, Control_c, 0, 64, 127
1, 177960, Note_on_c, 0, 71, 0
1, 177960, Note_on_c, 0, 76, 27
1, 178080, Note_on_c, 0, 76, 0
1, 178080, Note_on_c, 0, 87, 0
1, 178080, Note_on_c, 0, 85, 39
1, 178080, Note_on_c, 0, 69, 33
1, 178087, Control_c, 0, 64, 0
1, 178158, Control_c, 0, 64, 127
1, 178200, Note_on_c, 0, 69, 0
1, 178200, Note_on_c, 0, 76, 26
1, 178320, Tempo, 849858
1, 178320, Note_on_c, 0, 76, 0
1, 178320, Note_on_c, 0, 85, 0
1, 178320, Note_on_c, 0, 83, 35
1, 178320, Note_on_c, 0, 68, 30
1, 178334, Control_c, 0, 64, 0
1, 178398, Control_c, 0, 64, 127
1, 178440, Tempo, 914634
1, 178440, Note_on_c, 0, 68, 0
1, 178440, Note_on_c, 0, 76, 27
1, 178560, Tempo, 820793
1, 178560, Note_on_c, 0, 76, 0
1, 178560, Note_on_c, 0, 83, 0
1, 178560, Note_on_c, 0, 85, 39
1, 178560, Note_on_c, 0, 69, 33
1, 178583, Control_c, 0, 64, 0
1, 178629, Control_c, 0, 64, 127
1, 178680, Note_on_c, 0, 69, 0
1, 178680, Note_on_c, 0, 76, 26
1, 178800, Note_on_c, 0, 76, 0
1, 178800, Note_on_c, 0, 85, 0
1, 178800, Note_on_c, 0, 83, 37
1, 178800, Note_on_c, 0, 71, 31
1, 178816, Control_c, 0, 64, 0
1, 178863, Control_c, 0, 64, 127
1, 178920, Note_on_c, 0, 71, 0
1, 178920, Note_on_c, 0, 76, 25
1, 179040, Note_on_c, 0, 76, 0
1, 179040, Note_on_c, 0, 83, 0
1, 179040, Note_on_c, 0, 81, 39
1, 179040, Note_on_c, 0, 73, 33
1, 179059, Control_c, 0, 64, 0
1, 179092, Control_c, 0, 64, 127
1, 179160, Tempo, 849858
1, 179160, Note_on_c, 0, 73, 0
1, 179160, Note_on_c, 0, 76, 25
1, 179280, Note_on_c, 0, 76, 0
1, 179280, Note_on_c, 0, 81, 0
1, 179280, Note_on_c, 0, 80, 34
1, 179280, Note_on_c, 0, 70, 30
1, 179286, Control_c, 0, 64, 0
1, 179337, Control_c, 0, 64, 127
1, 179400, Tempo, 907716
1, 179400, Note_on_c, 0, 70, 0
1, 179400, Note_on_c, 0, 76, 27
1, 179510, Note_on_c, 0, 80, 0
1, 179520, Tempo, 837989
1, 179520, Note_on_c, 0, 76, 0
1, 179520, Note_on_c, 0, 80, 39
1, 179520, Note_on_c, 0, 71, 33
1, 179527, Control_c, 0, 64, 0
1, 179527, Control_c, 0, 64, 0
1, 179640, Note_on_c, 0, 73, 27
1, 179760, Note_on_c, 0, 73, 0
1, 179760, Note_on_c, 0, 75, 32
1, 179880, Note_on_c, 0, 75, 0
1, 179880, Note_on_c, 0, 76, 26
1, 180000, Tempo, 849858
1, 180000, Note_on_c, 0, 76, 0
1, 180000, Note_on_c, 0, 75, 31
1, 180120, Note_on_c, 0, 75, 0
1, 180120, Note_on_c, 0, 76, 27
1, 180240, Tempo, 887574
1, 180240, Note_on_c, 0, 76, 0
1, 180240, Note_on_c, 0, 80, 0
1, 180240, Note_on_c, 0, 81, 38
1, 180240, Note_on_c, 0, 78, 29
1, 180360, Tempo, 936037
1, 180360, Note_on_c, 0, 78, 0
1, 180360, Note_on_c, 0, 81, 0
1, 180360, Note_on_c, 0, 83, 33
1, 180360, Note_on_c, 0, 80, 27
1, 180480, Tempo, 868307
1, 180480, Note_on_c, 0, 80, 0
1, 180480, Note_on_c, 0, 83, 0
1, 180480, Note_on_c, 0, 71, 0
1, 180480, Note_on_c, 0, 78, 39
1, 180480, Note_on_c, 0, 75, 33
1, 180480, Note_on_c, 0, 71, 33
1, 180720, Tempo, 837989
1, 180720, Note_on_c, 0, 71, 0
1, 180720, Note_on_c, 0, 75, 0
1, 180720, Note_on_c, 0, 78, 0
1, 180720, Note_on_c, 0, 71, 39
1, 180720, Note_on_c, 0, 61, 33
1, 180723, Tempo, 855920
1, 180813, Tempo, 849858
1, 180840, Note_on_c, 0, 61, 0
1, 180840, Note_on_c, 0, 71, 0
1, 180840, Note_on_c, 0, 73, 34
1, 180840, Note_on_c, 0, 59, 30
1, 180903, Tempo, 843882
1, 180960, Note_on_c, 0, 59, 0
1, 180960, Note_on_c, 0, 73, 0
1, 180960, Note_on_c, 0, 71, 39
1, 180960, Note_on_c, 0, 61, 33
1, 180963, Tempo, 837989
1, 181080, Tempo, 874636
1, 181080, Note_on_c, 0, 61, 0
1, 181080, Note_on_c, 0, 71, 0
1, 181080, Note_on_c, 0, 73, 35
1, 181080, Note_on_c, 0, 59, 29
1, 181200, Note_on_c, 0, 59, 0
1, 181200, Note_on_c, 0, 73, 0
1, 181200, Note_on_c, 0, 71, 39
1, 181200, Note_on_c, 0, 61, 33
1, 181320, Tempo, 914634
1, 181320, Note_on_c, 0, 61, 0
1, 181320, Note_on_c, 0, 71, 0
1, 181320, Note_on_c, 0, 73, 35
1, 181320, Note_on_c, 0, 59, 33
1, 181440, Tempo, 832178
1, 181440, Note_on_c, 0, 59, 0
1, 181440, Note_on_c, 0, 73, 0
1, 181440, Note_on_c, 0, 78, 53
1, 181440, Note_on_c, 0, 81, 53
1, 181440, Note_on_c, 0, 71, 39
1, 181440, Note_on_c, 0, 61, 32
1, 181440, Note_on_c, 0, 54, 41
1, 181440, Note_on_c, 0, 51, 34
1, 181440, Control_c, 0, 64, 0
1, 181560, Note_on_c, 0, 61, 0
1, 181560, Note_on_c, 0, 71, 0
1, 181560, Note_on_c, 0, 73, 35
1, 181560, Note_on_c, 0, 59, 27
1, 181680, Note_on_c, 0, 59, 0
1, 181680, Note_on_c, 0, 73, 0
1, 181680, Note_on_c, 0, 71, 39
1, 181680, Note_on_c, 0, 61, 31
1, 181800, Note_on_c, 0, 61, 0
1, 181800, Note_on_c, 0, 71, 0
1, 181800, Note_on_c, 0, 73, 35
1, 181800, Note_on_c, 0, 59, 26
1, 181920, Note_on_c, 0, 59, 0
1, 181920, Note_on_c, 0, 73, 0
1, 181920, Note_on_c, 0, 71, 39
1, 181920, Note_on_c, 0, 61, 32
1, 182040, Note_on_c, 0, 61, 0
1, 182040, Note_on_c, 0, 71, 0
1, 182040, Note_on_c, 0, 73, 37
1, 182040, Note_on_c, 0, 59, 32
1, 182160, Tempo, 862069
1, 182160, Note_on_c, 0, 59, 0
1, 182160, Note_on_c, 0, 51, 0
1, 182160, Note_on_c, 0, 81, 0
1, 182160, Note_on_c, 0, 78, 0
1, 182160, Note_on_c, 0, 73, 0
1, 182160, Note_on_c, 0, 54, 0
1, 182160, Note_on_c, 0, 80, 57
1, 182160, Note_on_c, 0, 76, 57
1, 182160, Note_on_c, 0, 71, 43
1, 182160, Note_on_c, 0, 61, 33
1, 182160, Note_on_c, 0, 56, 42
1, 182160, Note_on_c, 0, 52, 35
1, 182280, Note_on_c, 0, 61, 0
1, 182280, Note_on_c, 0, 71, 0
1, 182280, Note_on_c, 0, 73, 41
1, 182280, Note_on_c, 0, 59, 36
1, 182376, Note_on_c, 0, 56, 0
1, 182376, Note_on_c, 0, 76, 0
1, 182376, Note_on_c, 0, 80, 0
1, 182376, Note_on_c, 0, 52, 0
1, 182400, Tempo, 815217
1, 182400, Note_on_c, 0, 59, 0
1, 182400, Note_on_c, 0, 73, 0
1, 182400, Note_on_c, 0, 80, 62
1, 182400, Note_on_c, 0, 76, 62
1, 182400, Note_on_c, 0, 71, 48
1, 182400, Note_on_c, 0, 61, 37
1, 182400, Note_on_c, 0, 56, 47
1, 182400, Note_on_c, 0, 52, 39
1, 182450, Control_c, 0, 64, 0
1, 182520, Note_on_c, 0, 61, 0
1, 182520, Note_on_c, 0, 71, 0
1, 182520, Note_on_c, 0, 73, 42
1, 182520, Note_on_c, 0, 59, 29
1, 182640, Note_on_c, 0, 59, 0
1, 182640, Note_on_c, 0, 52, 0
1, 182640, Note_on_c, 0, 76, 0
1, 182640, Note_on_c, 0, 80, 0
1, 182640, Note_on_c, 0, 73, 0
1, 182640, Note_on_c, 0, 56, 0
1, 182640, Note_on_c, 0, 75, 48
1, 182640, Note_on_c, 0, 78, 48
1, 182640, Note_on_c, 0, 71, 46
1, 182640, Note_on_c, 0, 61, 32
1, 182640, Note_on_c, 0, 57, 41
1, 182640, Note_on_c, 0, 54, 34
1, 182760, Note_on_c, 0, 61, 0
1, 182760, Note_on_c, 0, 71, 0
1, 182760, Note_on_c, 0, 73, 40
1, 182760, Note_on_c, 0, 59, 28
1, 182856, Note_on_c, 0, 57, 0
1, 182856, Note_on_c, 0, 78, 0
1, 182856, Note_on_c, 0, 75, 0
1, 182856, Note_on_c, 0, 54, 0
1, 182880, Tempo, 832178
1, 182880, Note_on_c, 0, 59, 0
1, 182880, Note_on_c, 0, 73, 0
1, 182880, Note_on_c, 0, 78, 47
1, 182880, Note_on_c, 0, 71, 44
1, 182880, Note_on_c, 0, 75, 47
1, 182880, Note_on_c, 0, 54, 28
1, 182880, Note_on_c, 0, 57, 33
1, 182880, Note_on_c, 0, 61, 26
1, 183000, Note_on_c, 0, 61, 0
1, 183000, Note_on_c, 0, 71, 0
1, 183000, Note_on_c, 0, 73, 38
1, 183000, Note_on_c, 0, 59, 24
1, 183120, Tempo, 868307
1, 183120, Note_on_c, 0, 59, 0
1, 183120, Note_on_c, 0, 75, 0
1, 183120, Note_on_c, 0, 57, 0
1, 183120, Note_on_c, 0, 78, 0
1, 183120, Note_on_c, 0, 73, 0
1, 183120, Note_on_c, 0, 54, 0
1, 183120, Note_on_c, 0, 80, 39
1, 183120, Note_on_c, 0, 76, 39
1, 183120, Note_on_c, 0, 71, 41
1, 183120, Note_on_c, 0, 52, 28
1, 183120, Note_on_c, 0, 56, 33
1, 183120, Note_on_c, 0, 61, 26
1, 183240, Note_on_c, 0, 61, 0
1, 183240, Note_on_c, 0, 71, 0
1, 183240, Note_on_c, 0, 73, 36
1, 183240, Note_on_c, 0, 59, 24
1, 183360, Tempo, 820793
1, 183360, Note_on_c, 0, 59, 0
1, 183360, Note_on_c, 0, 76, 0
1, 183360, Note_on_c, 0, 56, 0
1, 183360, Note_on_c, 0, 80, 0
1, 183360, Note_on_c, 0, 73, 0
1, 183360, Note_on_c, 0, 52, 0
1, 183360, Note_on_c, 0, 81, 53
1, 183360, Note_on_c, 0, 78, 53
1, 183360, Note_on_c, 0, 71, 39
1, 183360, Note_on_c, 0, 61, 32
1, 183360, Note_on_c, 0, 54, 41
1, 183360, Note_on_c, 0, 51, 34
1, 183360, Control_c, 0, 64, 0
1, 183480, Note_on_c, 0, 61, 0
1, 183480, Note_on_c, 0, 71, 0
1, 183480, Note_on_c, 0, 73, 36
1, 183480, Note_on_c, 0, 59, 27
1, 183600, Note_on_c, 0, 59, 0
1, 183600, Note_on_c, 0, 73, 0
1, 183600, Note_on_c, 0, 71, 41
1, 183600, Note_on_c, 0, 61, 31
1, 183720, Note_on_c, 0, 61, 0
1, 183720, Note_on_c, 0, 71, 0
1, 183720, Note_on_c, 0, 73, 38
1, 183720, Note_on_c, 0, 59, 26
1, 183840, Note_on_c, 0, 59, 0
1, 183840, Note_on_c, 0, 73, 0
1, 183840, Note_on_c, 0, 71, 43
1, 183840, Note_on_c, 0, 61, 32
1, 183960, Note_on_c, 0, 61, 0
1, 183960, Note_on_c, 0, 71, 0
1, 183960, Note_on_c, 0, 73, 40
1, 183960, Note_on_c, 0, 59, 32
1, 184080, Tempo, 862069
1, 184080, Note_on_c, 0, 59, 0
1, 184080, Note_on_c, 0, 51, 0
1, 184080, Note_on_c, 0, 78, 0
1, 184080, Note_on_c, 0, 81, 0
1, 184080, Note_on_c, 0, 73, 0
1, 184080, Note_on_c, 0, 54, 0
1, 184080, Note_on_c, 0, 71, 46
1, 184080, Note_on_c, 0, 80, 57
1, 184080, Note_on_c, 0, 76, 57
1, 184080, Note_on_c, 0, 61, 33
1, 184080, Note_on_c, 0, 56, 42
1, 184080, Note_on_c, 0, 52, 35
1, 184200, Note_on_c, 0, 61, 0
1, 184200, Note_on_c, 0, 71, 0
1, 184200, Note_on_c, 0, 73, 42
1, 184200, Note_on_c, 0, 59, 36
1, 184296, Note_on_c, 0, 56, 0
1, 184296, Note_on_c, 0, 76, 0
1, 184296, Note_on_c, 0, 80, 0
1, 184296, Note_on_c, 0, 52, 0
1, 184320, Tempo, 837989
1, 184320, Note_on_c, 0, 59, 0
1, 184320, Note_on_c, 0, 73, 0
1, 184320, Note_on_c, 0, 78, 62
1, 184320, Note_on_c, 0, 75, 62
1, 184320, Note_on_c, 0, 57, 32
1, 184320, Note_on_c, 0, 54, 39
1, 184333, Control_c, 0, 64, 0
1, 184423, Control_c, 0, 64, 127
1, 184440, Note_on_c, 0, 57, 0
1, 184440, Note_on_c, 0, 75, 0
1, 184440, Note_on_c, 0, 71, 36
1, 184440, Note_on_c, 0, 59, 29
1, 184560, Tempo, 815217
1, 184560, Note_on_c, 0, 59, 0
1, 184560, Note_on_c, 0, 54, 0
1, 184560, Note_on_c, 0, 78, 0
1, 184560, Note_on_c, 0, 71, 0
1, 184560, Note_on_c, 0, 85, 48
1, 184560, Note_on_c, 0, 81, 48
1, 184560, Note_on_c, 0, 51, 41
1, 184560, Note_on_c, 0, 47, 34
1, 184570, Control_c, 0, 64, 0
1, 184629, Control_c, 0, 64, 127
1, 184668, Note_on_c, 0, 47, 0
1, 184668, Note_on_c, 0, 51, 0
1, 184680, Note_on_c, 0, 81, 0
1, 184680, Note_on_c, 0, 71, 36
1, 184680, Note_on_c, 0, 59, 28
1, 184800, Tempo, 832178
1, 184800, Note_on_c, 0, 59, 0
1, 184800, Note_on_c, 0, 71, 0
1, 184800, Note_on_c, 0, 85, 0
1, 184800, Note_on_c, 0, 83, 47
1, 184800, Note_on_c, 0, 80, 47
1, 184800, Note_on_c, 0, 49, 28
1, 184800, Note_on_c, 0, 52, 33
1, 184805, Control_c, 0, 64, 0
1, 184852, Control_c, 0, 64, 127
1, 184920, Note_on_c, 0, 52, 0
1, 184920, Note_on_c, 0, 49, 0
1, 184920, Note_on_c, 0, 80, 0
1, 184920, Note_on_c, 0, 71, 36
1, 184920, Note_on_c, 0, 59, 24
1, 185040, Tempo, 849858
1, 185040, Note_on_c, 0, 59, 0
1, 185040, Note_on_c, 0, 71, 0
1, 185040, Note_on_c, 0, 83, 0
1, 185040, Note_on_c, 0, 78, 39
1, 185040, Note_on_c, 0, 81, 39
1, 185040, Note_on_c, 0, 51, 28
1, 185040, Note_on_c, 0, 54, 33
1, 185052, Control_c, 0, 64, 0
1, 185097, Control_c, 0, 64, 127
1, 185160, Note_on_c, 0, 54, 0
1, 185160, Note_on_c, 0, 51, 0
1, 185160, Note_on_c, 0, 78, 0
1, 185160, Note_on_c, 0, 71, 36
1, 185160, Note_on_c, 0, 59, 24
1, 185280, Tempo, 826446
1, 185280, Note_on_c, 0, 59, 0
1, 185280, Note_on_c, 0, 71, 0
1, 185280, Note_on_c, 0, 81, 0
1, 185280, Note_on_c, 0, 80, 62
1, 185280, Note_on_c, 0, 76, 62
1, 185280, Note_on_c, 0, 56, 32
1, 185280, Note_on_c, 0, 52, 39
1, 185293, Control_c, 0, 64, 0
1, 185383, Control_c, 0, 64, 127
1, 185400, Tempo, 826446
1, 185400, Note_on_c, 0, 52, 0
1, 185400, Note_on_c, 0, 56, 0
1, 185400, Note_on_c, 0, 76, 0
1, 185400, Note_on_c, 0, 71, 35
1, 185400, Note_on_c, 0, 59, 28
1, 185520, Tempo, 820793
1, 185520, Note_on_c, 0, 59, 0
1, 185520, Note_on_c, 0, 71, 0
1, 185520, Note_on_c, 0, 80, 0
1, 185520, Note_on_c, 0, 83, 47
1, 185520, Note_on_c, 0, 80, 47
1, 185520, Note_on_c, 0, 52, 40
1, 185520, Note_on_c, 0, 49, 33
1, 185530, Control_c, 0, 64, 0
1, 185589, Control_c, 0, 64, 127
1, 185628, Note_on_c, 0, 49, 0
1, 185628, Note_on_c, 0, 52, 0
1, 185640, Note_on_c, 0, 80, 0
1, 185640, Note_on_c, 0, 71, 34
1, 185640, Note_on_c, 0, 59, 27
1, 185760, Tempo, 832178
1, 185760, Note_on_c, 0, 59, 0
1, 185760, Note_on_c, 0, 71, 0
1, 185760, Note_on_c, 0, 83, 0
1, 185760, Note_on_c, 0, 81, 45
1, 185760, Note_on_c, 0, 78, 45
1, 185760, Note_on_c, 0, 51, 26
1, 185760, Note_on_c, 0, 54, 31
1, 185765, Control_c, 0, 64, 0
1, 185812, Control_c, 0, 64, 127
1, 185880, Note_on_c, 0, 54, 0
1, 185880, Note_on_c, 0, 51, 0
1, 185880, Note_on_c, 0, 78, 0
1, 185880, Note_on_c, 0, 71, 34
1, 185880, Note_on_c, 0, 59, 22
1, 186000, Tempo, 855920
1, 186000, Note_on_c, 0, 59, 0
1, 186000, Note_on_c, 0, 71, 0
1, 186000, Note_on_c, 0, 81, 0
1, 186000, Note_on_c, 0, 76, 36
1, 186000, Note_on_c, 0, 80, 36
1, 186000, Note_on_c, 0, 52, 26
1, 186000, Note_on_c, 0, 56, 31
1, 186012, Control_c, 0, 64, 0
1, 186057, Control_c, 0, 64, 127
1, 186120, Tempo, 843882
1, 186120, Note_on_c, 0, 56, 0
1, 186120, Note_on_c, 0, 52, 0
1, 186120, Note_on_c, 0, 76, 0
1, 186120, Note_on_c, 0, 71, 33
1, 186120, Note_on_c, 0, 59, 22
1, 186240, Tempo, 837989
1, 186240, Note_on_c, 0, 59, 0
1, 186240, Note_on_c, 0, 71, 0
1, 186240, Note_on_c, 0, 80, 0
1, 186240, Note_on_c, 0, 78, 57
1, 186240, Note_on_c, 0, 75, 57
1, 186240, Note_on_c, 0, 57, 29
1, 186240, Note_on_c, 0, 54, 35
1, 186253, Control_c, 0, 64, 0
1, 186343, Control_c, 0, 64, 127
1, 186360, Note_on_c, 0, 54, 0
1, 186360, Note_on_c, 0, 57, 0
1, 186360, Note_on_c, 0, 75, 0
1, 186360, Note_on_c, 0, 71, 32
1, 186360, Note_on_c, 0, 59, 26
1, 186480, Tempo, 820793
1, 186480, Note_on_c, 0, 59, 0
1, 186480, Note_on_c, 0, 71, 0
1, 186480, Note_on_c, 0, 78, 0
1, 186480, Note_on_c, 0, 81, 43
1, 186480, Note_on_c, 0, 78, 43
1, 186480, Note_on_c, 0, 54, 36
1, 186480, Note_on_c, 0, 51, 30
1, 186490, Control_c, 0, 64, 0
1, 186549, Control_c, 0, 64, 127
1, 186588, Note_on_c, 0, 51, 0
1, 186588, Note_on_c, 0, 54, 0
1, 186600, Note_on_c, 0, 78, 0
1, 186600, Note_on_c, 0, 71, 32
1, 186600, Note_on_c, 0, 59, 24
1, 186720, Tempo, 832178
1, 186720, Note_on_c, 0, 59, 0
1, 186720, Note_on_c, 0, 71, 0
1, 186720, Note_on_c, 0, 81, 0
1, 186720, Note_on_c, 0, 80, 41
1, 186720, Note_on_c, 0, 76, 41
1, 186720, Note_on_c, 0, 52, 24
1, 186720, Note_on_c, 0, 56, 29
1, 186725, Control_c, 0, 64, 0
1, 186772, Control_c, 0, 64, 127
1, 186840, Note_on_c, 0, 56, 0
1, 186840, Note_on_c, 0, 52, 0
1, 186840, Note_on_c, 0, 76, 0
1, 186840, Note_on_c, 0, 71, 31
1, 186840, Note_on_c, 0, 59, 20
1, 186960, Tempo, 849858
1, 186960, Note_on_c, 0, 59, 0
1, 186960, Note_on_c, 0, 71, 0
1, 186960, Note_on_c, 0, 80, 0
1, 186960, Note_on_c, 0, 75, 33
1, 186960, Note_on_c, 0, 78, 33
1, 186960, Note_on_c, 0, 54, 24
1, 186960, Note_on_c, 0, 57, 28
1, 186972, Control_c, 0, 64, 0
1, 187017, Control_c, 0, 64, 127
1, 187080, Note_on_c, 0, 57, 0
1, 187080, Note_on_c, 0, 54, 0
1, 187080, Note_on_c, 0, 75, 0
1, 187080, Note_on_c, 0, 69, 30
1, 187080, Note_on_c, 0, 63, 20
1, 187200, Tempo, 855920
1, 187200, Note_on_c, 0, 63, 0
1, 187200, Note_on_c, 0, 69, 0
1, 187200, Note_on_c, 0, 78, 0
1, 187200, Note_on_c, 0, 71, 41
1, 187200, Note_on_c, 0, 76, 52
1, 187200, Note_on_c, 0, 56, 26
1, 187213, Control_c, 0, 64, 0
1, 187303, Control_c, 0, 64, 127
1, 187320, Note_on_c, 0, 56, 0
1, 187320, Note_on_c, 0, 71, 0
1, 187320, Note_on_c, 0, 68, 29
1, 187320, Note_on_c, 0, 59, 24
1, 187440, Tempo, 837989
1, 187440, Note_on_c, 0, 59, 0
1, 187440, Note_on_c, 0, 68, 0
1, 187440, Note_on_c, 0, 76, 0
1, 187440, Note_on_c, 0, 71, 29
1, 187440, Note_on_c, 0, 74, 39
1, 187440, Note_on_c, 0, 56, 33
1, 187450, Control_c, 0, 64, 0
1, 187509, Control_c, 0, 64, 127
1, 187548, Note_on_c, 0, 56, 0
1, 187560, Note_on_c, 0, 71, 0
1, 187560, Note_on_c, 0, 65, 29
1, 187560, Note_on_c, 0, 59, 22
1, 187680, Tempo, 868307
1, 187680, Note_on_c, 0, 59, 0
1, 187680, Note_on_c, 0, 65, 0
1, 187680, Note_on_c, 0, 74, 0
1, 187680, Note_on_c, 0, 71, 29
1, 187680, Note_on_c, 0, 73, 37
1, 187680, Note_on_c, 0, 56, 26
1, 187685, Control_c, 0, 64, 0
1, 187732, Control_c, 0, 64, 127
1, 187800, Note_on_c, 0, 56, 0
1, 187800, Note_on_c, 0, 71, 0
1, 187800, Note_on_c, 0, 65, 28
1, 187800, Note_on_c, 0, 59, 18
1, 187920, Tempo, 914634
1, 187920, Note_on_c, 0, 59, 0
1, 187920, Note_on_c, 0, 65, 0
1, 187920, Note_on_c, 0, 73, 0
1, 187920, Note_on_c, 0, 71, 29
1, 187920, Note_on_c, 0, 73, 30
1, 187920, Note_on_c, 0, 56, 25
1, 188040, Note_on_c, 0, 56, 0
1, 188040, Note_on_c, 0, 71, 0
1, 188040, Note_on_c, 0, 65, 27
1, 188040, Note_on_c, 0, 59, 18
1, 188160, Note_on_c, 0, 59, 0
1, 188160, Note_on_c, 0, 65, 0
1, 188160, Note_on_c, 0, 73, 0
1, 188160, Note_on_c, 0, 73, 39
1, 188160, Note_on_c, 0, 65, 39
1, 188160, Note_on_c, 0, 56, 24
1, 188160, Note_on_c, 0, 59, 24
1, 188160, Control_c, 0, 64, 0
1, 188280, Tempo, 837989
1, 188280, Note_on_c, 0, 65, 0
1, 188280, Note_on_c, 0, 73, 0
1, 188280, Note_on_c, 0, 73, 33
1, 188400, Note_on_c, 0, 73, 0
1, 188400, Note_on_c, 0, 56, 0
1, 188400, Note_on_c, 0, 59, 0
1, 188400, Note_on_c, 0, 75, 34
1, 188520, Tempo, 900901
1, 188520, Note_on_c, 0, 75, 0
1, 188520, Note_on_c, 0, 77, 37
1, 188610, Note_on_c, 0, 77, 0
1, 188610, Note_on_c, 0, 80, 35
1, 188640, Tempo, 837989
1, 188640, Note_on_c, 0, 80, 0
1, 188640, Note_on_c, 0, 78, 39
1, 188760, Note_on_c, 0, 78, 0
1, 188760, Note_on_c, 0, 77, 32
1, 188760, Note_on_c, 0, 61, 27
1, 188880, Note_on_c, 0, 61, 0
1, 188880, Note_on_c, 0, 77, 0
1, 188880, Note_on_c, 0, 78, 35
1, 188880, Note_on_c, 0, 63, 29
1, 189000, Tempo, 928793
1, 189000, Note_on_c, 0, 63, 0
1, 189000, Note_on_c, 0, 78, 0
1, 189000, Note_on_c, 0, 80, 32
1, 189000, Note_on_c, 0, 65, 27
1, 189120, Tempo, 843882
1, 189120, Note_on_c, 0, 65, 0
1, 189120, Note_on_c, 0, 80, 0
1, 189120, Note_on_c, 0, 81, 39
1, 189120, Note_on_c, 0, 66, 33
1, 189240, Note_on_c, 0, 66, 0
1, 189240, Note_on_c, 0, 81, 0
1, 189240, Note_on_c, 0, 77, 33
1, 189240, Note_on_c, 0, 61, 28
1, 189360, Note_on_c, 0, 61, 0
1, 189360, Note_on_c, 0, 77, 0
1, 189360, Note_on_c, 0, 78, 35
1, 189360, Note_on_c, 0, 63, 29
1, 189480, Tempo, 907716
1, 189480, Note_on_c, 0, 63, 0
1, 189480, Note_on_c, 0, 78, 0
1, 189480, Note_on_c, 0, 80, 32
1, 189480, Note_on_c, 0, 65, 27
1, 189570, Note_on_c, 0, 65, 0
1, 189570, Note_on_c, 0, 80, 0
1, 189570, Note_on_c, 0, 83, 32
1, 189570, Note_on_c, 0, 68, 27
1, 189600, Tempo, 843882
1, 189600, Note_on_c, 0, 68, 0
1, 189600, Note_on_c, 0, 83, 0
1, 189600, Note_on_c, 0, 81, 41
1, 189600, Note_on_c, 0, 66, 34
1, 189720, Note_on_c, 0, 66, 0
1, 189720, Note_on_c, 0, 81, 0
1, 189720, Note_on_c, 0, 80, 33
1, 189720, Note_on_c, 0, 65, 28
1, 189840, Tempo, 914634
1, 189840, Note_on_c, 0, 65, 0
1, 189840, Note_on_c, 0, 80, 0
1, 189840, Note_on_c, 0, 81, 35
1, 189840, Note_on_c, 0, 66, 29
1, 189960, Tempo, 881057
1, 189960, Note_on_c, 0, 66, 0
1, 189960, Note_on_c, 0, 81, 0
1, 189960, Note_on_c, 0, 83, 32
1, 189960, Note_on_c, 0, 68, 27
1, 190080, Tempo, 843882
1, 190080, Note_on_c, 0, 68, 0
1, 190080, Note_on_c, 0, 83, 0
1, 190080, Note_on_c, 0, 85, 42
1, 190080, Note_on_c, 0, 69, 35
1, 190200, Note_on_c, 0, 69, 0
1, 190200, Note_on_c, 0, 85, 0
1, 190200, Note_on_c, 0, 83, 35
1, 190200, Note_on_c, 0, 68, 29
1, 190320, Note_on_c, 0, 68, 0
1, 190320, Note_on_c, 0, 83, 0
1, 190320, Note_on_c, 0, 81, 35
1, 190320, Note_on_c, 0, 69, 29
1, 190440, Tempo, 887574
1, 190440, Note_on_c, 0, 69, 0
1, 190440, Note_on_c, 0, 81, 0
1, 190440, Note_on_c, 0, 80, 34
1, 190440, Note_on_c, 0, 71, 28
1, 190560, Tempo, 843882
1, 190560, Note_on_c, 0, 71, 0
1, 190560, Note_on_c, 0, 80, 0
1, 190560, Note_on_c, 0, 81, 41
1, 190560, Note_on_c, 0, 73, 34
1, 190680, Note_on_c, 0, 73, 0
1, 190680, Note_on_c, 0, 81, 0
1, 190680, Note_on_c, 0, 80, 35
1, 190680, Note_on_c, 0, 71, 29
1, 190800, Note_on_c, 0, 71, 0
1, 190800, Note_on_c, 0, 80, 0
1, 190800, Note_on_c, 0, 78, 35
1, 190800, Note_on_c, 0, 69, 29
1, 190920, Tempo, 928793
1, 190920, Note_on_c, 0, 69, 0
1, 190920, Note_on_c, 0, 78, 0
1, 190920, Note_on_c, 0, 85, 34
1, 190920, Note_on_c, 0, 70, 28
1, 191040, Tempo, 843882
1, 191040, Note_on_c, 0, 70, 0
1, 191040, Note_on_c, 0, 85, 0
1, 191040, Note_on_c, 0, 80, 40
1, 191040, Note_on_c, 0, 71, 34
1, 191160, Note_on_c, 0, 80, 0
1, 191160, Note_on_c, 0, 78, 34
1, 191280, Note_on_c, 0, 78, 0
1, 191280, Note_on_c, 0, 71, 0
1, 191280, Note_on_c, 0, 76, 35
1, 191400, Note_on_c, 0, 76, 0
1, 191400, Note_on_c, 0, 83, 35
1, 191520, Note_on_c, 0, 83, 0
1, 191520, Note_on_c, 0, 78, 40
1, 191520, Note_on_c, 0, 59, 34
1, 191640, Note_on_c, 0, 78, 0
1, 191640, Note_on_c, 0, 76, 33
1, 191760, Tempo, 914634
1, 191760, Note_on_c, 0, 76, 0
1, 191760, Note_on_c, 0, 59, 0
1, 191760, Note_on_c, 0, 75, 35
1, 191880, Tempo, 1060071
1, 191880, Note_on_c, 0, 75, 0
1, 191880, Note_on_c, 0, 83, 33
1, 191990, Note_on_c, 0, 83, 0
1, 192000, Tempo, 815217
1, 192000, Note_on_c, 0, 83, 43
1, 192000, Note_on_c, 0, 80, 43
1, 192000, Note_on_c, 0, 71, 36
1, 192000, Note_on_c, 0, 52, 32
1, 192085, Control_c, 0, 64, 127
1, 192160, Note_on_c, 0, 52, 0
1, 192160, Note_on_c, 0, 59, 27
1, 192320, Note_on_c, 0, 59, 0
1, 192320, Note_on_c, 0, 56, 27
1, 192480, Note_on_c, 0, 56, 0
1, 192480, Note_on_c, 0, 52, 32
1, 192640, Note_on_c, 0, 52, 0
1, 192640, Note_on_c, 0, 64, 27
1, 192800, Tempo, 894188
1, 192800, Note_on_c, 0, 64, 0
1, 192800, Note_on_c, 0, 59, 27
1, 192960, Tempo, 820793
1, 192960, Note_on_c, 0, 59, 0
1, 192960, Note_on_c, 0, 71, 0
1, 192960, Note_on_c, 0, 80, 0
1, 192960, Note_on_c, 0, 83, 0
1, 192960, Note_on_c, 0, 69, 28
1, 192960, Note_on_c, 0, 78, 34
1, 192960, Note_on_c, 0, 81, 34
1, 192960, Note_on_c, 0, 54, 32
1, 192967, Control_c, 0, 64, 0
1, 192995, Tempo, 804290
1, 193012, Control_c, 0, 64, 127
1, 193120, Note_on_c, 0, 54, 0
1, 193120, Note_on_c, 0, 63, 27
1, 193175, Tempo, 798935
1, 193280, Note_on_c, 0, 63, 0
1, 193280, Note_on_c, 0, 59, 27
1, 193325, Tempo, 793651
1, 193440, Note_on_c, 0, 59, 0
1, 193440, Note_on_c, 0, 69, 0
1, 193440, Note_on_c, 0, 78, 0
1, 193440, Note_on_c, 0, 81, 0
1, 193440, Note_on_c, 0, 71, 25
1, 193440, Note_on_c, 0, 76, 30
1, 193440, Note_on_c, 0, 80, 30
1, 193440, Note_on_c, 0, 56, 33
1, 193452, Control_c, 0, 64, 0
1, 193475, Tempo, 788436
1, 193509, Control_c, 0, 64, 127
1, 193565, Tempo, 793651
1, 193600, Note_on_c, 0, 56, 0
1, 193600, Note_on_c, 0, 64, 27
1, 193655, Tempo, 798935
1, 193715, Tempo, 804290
1, 193760, Tempo, 900901
1, 193760, Note_on_c, 0, 64, 0
1, 193760, Note_on_c, 0, 59, 29
1, 193920, Tempo, 826446
1, 193920, Note_on_c, 0, 59, 0
1, 193920, Note_on_c, 0, 71, 0
1, 193920, Note_on_c, 0, 76, 0
1, 193920, Note_on_c, 0, 80, 0
1, 193920, Note_on_c, 0, 73, 39
1, 193920, Note_on_c, 0, 78, 39
1, 193920, Note_on_c, 0, 57, 32
1, 193929, Control_c, 0, 64, 0
1, 194000, Control_c, 0, 64, 127
1, 194040, Tempo, 809717
1, 194080, Note_on_c, 0, 57, 0
1, 194080, Note_on_c, 0, 66, 29
1, 194240, Tempo, 881057
1, 194240, Note_on_c, 0, 66, 0
1, 194240, Note_on_c, 0, 61, 29
1, 194400, Tempo, 820793
1, 194400, Note_on_c, 0, 61, 0
1, 194400, Note_on_c, 0, 78, 0
1, 194400, Note_on_c, 0, 73, 0
1, 194400, Note_on_c, 0, 76, 35
1, 194400, Note_on_c, 0, 73, 29
1, 194400, Note_on_c, 0, 58, 34
1, 194419, Control_c, 0, 64, 0
1, 194480, Control_c, 0, 64, 127
1, 194560, Note_on_c, 0, 58, 0
1, 194560, Note_on_c, 0, 68, 31
1, 194720, Tempo, 887574
1, 194720, Note_on_c, 0, 68, 0
1, 194720, Note_on_c, 0, 64, 30
1, 194880, Tempo, 815217
1, 194880, Note_on_c, 0, 64, 0
1, 194880, Note_on_c, 0, 73, 0
1, 194880, Note_on_c, 0, 71, 33
1, 194880, Note_on_c, 0, 59, 37
1, 194887, Control_c, 0, 64, 0
1, 194932, Control_c, 0, 64, 127
1, 195040, Note_on_c, 0, 59, 0
1, 195040, Note_on_c, 0, 68, 32
1, 195200, Tempo, 887574
1, 195200, Note_on_c, 0, 68, 0
1, 195200, Note_on_c, 0, 64, 32
1, 195360, Tempo, 832178
1, 195360, Note_on_c, 0, 64, 0
1, 195360, Note_on_c, 0, 71, 0
1, 195360, Note_on_c, 0, 76, 0
1, 195360, Note_on_c, 0, 75, 44
1, 195360, Note_on_c, 0, 71, 37
1, 195360, Note_on_c, 0, 57, 42
1, 195373, Control_c, 0, 64, 0
1, 195417, Control_c, 0, 64, 127
1, 195520, Note_on_c, 0, 57, 0
1, 195520, Note_on_c, 0, 66, 36
1, 195600, Note_on_c, 0, 75, 0
1, 195600, Note_on_c, 0, 83, 43
1, 195680, Tempo, 936037
1, 195680, Note_on_c, 0, 66, 0
1, 195680, Note_on_c, 0, 63, 36
1, 195840, Tempo, 868307
1, 195840, Note_on_c, 0, 63, 0
1, 195840, Note_on_c, 0, 83, 0
1, 195840, Note_on_c, 0, 71, 0
1, 195840, Note_on_c, 0, 71, 57
1, 195840, Note_on_c, 0, 74, 57
1, 195840, Note_on_c, 0, 83, 67
1, 195840, Note_on_c, 0, 56, 43
1, 195850, Control_c, 0, 64, 0
1, 195911, Control_c, 0, 64, 127
1, 195920, Tempo, 849858
1, 195935, Tempo, 832178
1, 195960, Note_on_c, 0, 56, 0
1, 195960, Note_on_c, 0, 64, 36
1, 196055, Tempo, 826446
1, 196080, Note_on_c, 0, 64, 0
1, 196080, Note_on_c, 0, 59, 36
1, 196175, Tempo, 820793
1, 196200, Note_on_c, 0, 59, 0
1, 196200, Note_on_c, 0, 56, 34
1, 196295, Tempo, 815217
1, 196320, Note_on_c, 0, 56, 0
1, 196320, Note_on_c, 0, 52, 42
1, 196415, Tempo, 809717
1, 196440, Note_on_c, 0, 52, 0
1, 196440, Note_on_c, 0, 59, 37
1, 196535, Tempo, 815217
1, 196560, Note_on_c, 0, 59, 0
1, 196560, Note_on_c, 0, 56, 38
1, 196625, Tempo, 820793
1, 196680, Note_on_c, 0, 56, 0
1, 196680, Note_on_c, 0, 52, 35
1, 196715, Tempo, 826446
1, 196800, Tempo, 820793
1, 196800, Note_on_c, 0, 52, 0
1, 196800, Note_on_c, 0, 83, 0
1, 196800, Note_on_c, 0, 74, 0
1, 196800, Note_on_c, 0, 71, 0
1, 196800, Note_on_c, 0, 69, 51
1, 196800, Note_on_c, 0, 74, 51
1, 196800, Note_on_c, 0, 81, 63
1, 196800, Note_on_c, 0, 54, 50
1, 196807, Control_c, 0, 64, 0
1, 196850, Tempo, 855920
1, 196871, Control_c, 0, 64, 127
1, 196920, Tempo, 826446
1, 196920, Note_on_c, 0, 54, 0
1, 196920, Note_on_c, 0, 62, 40
1, 196955, Tempo, 820793
1, 197040, Note_on_c, 0, 62, 0
1, 197040, Note_on_c, 0, 57, 40
1, 197105, Tempo, 815217
1, 197160, Note_on_c, 0, 57, 0
1, 197160, Note_on_c, 0, 54, 36
1, 197255, Tempo, 809717
1, 197280, Note_on_c, 0, 54, 0
1, 197280, Note_on_c, 0, 81, 0
1, 197280, Note_on_c, 0, 74, 0
1, 197280, Note_on_c, 0, 69, 0
1, 197280, Note_on_c, 0, 68, 52
1, 197280, Note_on_c, 0, 74, 52
1, 197280, Note_on_c, 0, 80, 64
1, 197280, Note_on_c, 0, 71, 52
1, 197280, Note_on_c, 0, 56, 48
1, 197294, Control_c, 0, 64, 0
1, 197386, Control_c, 0, 64, 127
1, 197400, Note_on_c, 0, 56, 0
1, 197400, Note_on_c, 0, 64, 43
1, 197405, Tempo, 804290
1, 197520, Note_on_c, 0, 64, 0
1, 197520, Note_on_c, 0, 59, 43
1, 197525, Tempo, 798935
1, 197600, Tempo, 900901
1, 197640, Note_on_c, 0, 59, 0
1, 197640, Note_on_c, 0, 56, 41
1, 197760, Tempo, 815217
1, 197760, Note_on_c, 0, 56, 0
1, 197760, Note_on_c, 0, 71, 0
1, 197760, Note_on_c, 0, 68, 0
1, 197760, Note_on_c, 0, 74, 0
1, 197760, Note_on_c, 0, 80, 0
1, 197760, Note_on_c, 0, 74, 68
1, 197760, Note_on_c, 0, 78, 80
1, 197760, Note_on_c, 0, 57, 61
1, 197767, Control_c, 0, 64, 0
1, 197852, Control_c, 0, 64, 127
1, 197880, Note_on_c, 0, 57, 0
1, 197880, Note_on_c, 0, 66, 46
1, 198000, Note_on_c, 0, 66, 0
1, 198000, Note_on_c, 0, 62, 45
1, 198080, Tempo, 881057
1, 198120, Tempo, 881057
1, 198120, Note_on_c, 0, 62, 0
1, 198120, Note_on_c, 0, 57, 43
1, 198240, Tempo, 809717
1, 198240, Note_on_c, 0, 57, 0
1, 198240, Note_on_c, 0, 78, 0
1, 198240, Note_on_c, 0, 74, 0
1, 198240, Note_on_c, 0, 74, 68
1, 198240, Note_on_c, 0, 76, 81
1, 198240, Note_on_c, 0, 59, 62
1, 198256, Control_c, 0, 64, 0
1, 198325, Control_c, 0, 64, 127
1, 198360, Note_on_c, 0, 59, 0
1, 198360, Note_on_c, 0, 68, 47
1, 198480, Note_on_c, 0, 68, 0
1, 198480, Note_on_c, 0, 62, 49
1, 198560, Tempo, 887574
1, 198600, Note_on_c, 0, 62, 0
1, 198600, Note_on_c, 0, 59, 46
1, 198710, Note_on_c, 0, 59, 0
1, 198720, Tempo, 809717
1, 198720, Note_on_c, 0, 76, 0
1, 198720, Note_on_c, 0, 74, 0
1, 198720, Note_on_c, 0, 76, 82
1, 198720, Note_on_c, 0, 74, 82
1, 198720, Note_on_c, 0, 71, 69
1, 198720, Note_on_c, 0, 56, 63
1, 198727, Control_c, 0, 64, 0
1, 198812, Control_c, 0, 64, 127
1, 198840, Note_on_c, 0, 56, 0
1, 198840, Note_on_c, 0, 62, 53
1, 198960, Note_on_c, 0, 62, 0
1, 198960, Note_on_c, 0, 59, 62
1, 199040, Tempo, 881057
1, 199080, Note_on_c, 0, 59, 0
1, 199080, Note_on_c, 0, 56, 68
1, 199200, Tempo, 832178
1, 199200, Note_on_c, 0, 56, 0
1, 199200, Note_on_c, 0, 71, 0
1, 199200, Note_on_c, 0, 74, 0
1, 199200, Note_on_c, 0, 76, 0
1, 199200, Note_on_c, 0, 86, 94
1, 199200, Note_on_c, 0, 74, 80
1, 199200, Note_on_c, 0, 53, 79
1, 199216, Control_c, 0, 64, 0
1, 199285, Control_c, 0, 64, 127
1, 199320, Note_on_c, 0, 53, 0
1, 199320, Note_on_c, 0, 62, 65
1, 199440, Note_on_c, 0, 62, 0
1, 199440, Note_on_c, 0, 59, 70
1, 199520, Tempo, 887574
1, 199560, Tempo, 950872
1, 199560, Note_on_c, 0, 59, 0
1, 199560, Note_on_c, 0, 56, 65
1, 199670, Note_on_c, 0, 56, 0
1, 199680, Tempo, 843882
1, 199680, Note_on_c, 0, 74, 0
1, 199680, Note_on_c, 0, 86, 0
1, 199680, Note_on_c, 0, 86, 102
1, 199680, Note_on_c, 0, 74, 87
1, 199680, Note_on_c, 0, 53, 79
1, 199800, Note_on_c, 0, 53, 0
1, 199800, Note_on_c, 0, 62, 70
1, 199920, Note_on_c, 0, 62, 0
1, 199920, Note_on_c, 0, 59, 70
1, 200040, Tempo, 887574
1, 200040, Note_on_c, 0, 59, 0
1, 200040, Note_on_c, 0, 56, 65
1, 200160, Tempo, 855920
1, 200160, Note_on_c, 0, 56, 0
1, 200160, Note_on_c, 0, 53, 79
1, 200280, Tempo, 837989
1, 200280, Note_on_c, 0, 53, 0
1, 200280, Note_on_c, 0, 62, 66
1, 200400, Note_on_c, 0, 62, 0
1, 200400, Note_on_c, 0, 59, 72
1, 200520, Note_on_c, 0, 59, 0
1, 200520, Note_on_c, 0, 56, 66
1, 200640, Key_signature, 0, "major"
1, 200640, Note_on_c, 0, 56, 0
1, 200640, Note_on_c, 0, 74, 0
1, 200640, Note_on_c, 0, 86, 0
1, 200640, Note_on_c, 0, 77, 87
1, 200640, Note_on_c, 0, 89, 102
1, 200640, Note_on_c, 0, 50, 79
1, 200694, Control_c, 0, 64, 0
1, 200703, Tempo, 832178
1, 200755, Control_c, 0, 64, 127
1, 200760, Note_on_c, 0, 50, 0
1, 200760, Note_on_c, 0, 59, 59
1, 200880, Note_on_c, 0, 59, 0
1, 200880, Note_on_c, 0, 56, 68
1, 200943, Tempo, 837989
1, 201000, Note_on_c, 0, 56, 0
1, 201000, Note_on_c, 0, 53, 58
1, 201120, Note_on_c, 0, 53, 0
1, 201120, Note_on_c, 0, 50, 72
1, 201183, Tempo, 843882
1, 201240, Note_on_c, 0, 50, 0
1, 201240, Note_on_c, 0, 59, 57
1, 201360, Note_on_c, 0, 59, 0
1, 201360, Note_on_c, 0, 56, 63
1, 201480, Note_on_c, 0, 56, 0
1, 201480, Note_on_c, 0, 53, 56
1, 201600, Tempo, 809717
1, 201600, Note_on_c, 0, 53, 0
1, 201600, Note_on_c, 0, 89, 0
1, 201600, Note_on_c, 0, 77, 0
1, 201600, Note_on_c, 0, 77, 102
1, 201600, Note_on_c, 0, 89, 102
1, 201600, Note_on_c, 0, 47, 73
1, 201633, Tempo, 826446
1, 201720, Note_on_c, 0, 47, 0
1, 201720, Note_on_c, 0, 89, 0
1, 201720, Note_on_c, 0, 77, 0
1, 201720, Note_on_c, 0, 65, 63
1, 201720, Note_on_c, 0, 56, 54
1, 201840, Note_on_c, 0, 56, 0
1, 201840, Note_on_c, 0, 65, 0
1, 201840, Note_on_c, 0, 71, 70
1, 201840, Note_on_c, 0, 53, 54
1, 201960, Note_on_c, 0, 53, 0
1, 201960, Note_on_c, 0, 71, 0
1, 201960, Note_on_c, 0, 74, 56
1, 201960, Note_on_c, 0, 50, 46
1, 202023, Tempo, 832178
1, 202053, Tempo, 837989
1, 202080, Note_on_c, 0, 50, 0
1, 202080, Note_on_c, 0, 74, 0
1, 202080, Note_on_c, 0, 77, 53
1, 202080, Note_on_c, 0, 47, 53
1, 202083, Tempo, 843882
1, 202113, Tempo, 826446
1, 202200, Note_on_c, 0, 47, 0
1, 202200, Note_on_c, 0, 77, 0
1, 202200, Note_on_c, 0, 83, 49
1, 202200, Note_on_c, 0, 56, 39
1, 202320, Note_on_c, 0, 56, 0
1, 202320, Note_on_c, 0, 83, 0
1, 202320, Note_on_c, 0, 86, 46
1, 202320, Note_on_c, 0, 53, 42
1, 202323, Tempo, 832178
1, 202440, Note_on_c, 0, 53, 0
1, 202440, Note_on_c, 0, 86, 0
1, 202440, Note_on_c, 0, 83, 42
1, 202440, Note_on_c, 0, 50, 35
1, 202533, Tempo, 837989
1, 202560, Note_on_c, 0, 50, 0
1, 202560, Note_on_c, 0, 83, 0
1, 202560, Note_on_c, 0, 86, 39
1, 202560, Note_on_c, 0, 47, 42
1, 202560, Control_c, 0, 64, 0
1, 202610, Control_c, 0, 64, 127
1, 202623, Tempo, 843882
1, 202680, Note_on_c, 0, 47, 0
1, 202680, Note_on_c, 0, 55, 33
1, 202683, Tempo, 849858
1, 202743, Tempo, 855920
1, 202800, Note_on_c, 0, 55, 0
1, 202800, Note_on_c, 0, 53, 37
1, 202833, Tempo, 862069
1, 202893, Tempo, 868307
1, 202920, Note_on_c, 0, 53, 0
1, 202920, Note_on_c, 0, 50, 32
1, 202953, Tempo, 874636
1, 203013, Tempo, 881057
1, 203040, Note_on_c, 0, 50, 0
1, 203040, Note_on_c, 0, 86, 0
1, 203040, Note_on_c, 0, 47, 37
1, 203073, Tempo, 874636
1, 203103, Tempo, 881057
1, 203133, Tempo, 894188
1, 203160, Note_on_c, 0, 47, 0
1, 203160, Note_on_c, 0, 55, 31
1, 203163, Tempo, 900901
1, 203193, Tempo, 914634
1, 203223, Tempo, 921659
1, 203253, Tempo, 936037
1, 203280, Note_on_c, 0, 55, 0
1, 203280, Note_on_c, 0, 76, 39
1, 203280, Note_on_c, 0, 47, 34
1, 203283, Tempo, 943396
1, 203313, Tempo, 958466
1, 203400, Note_on_c, 0, 47, 0
1, 203400, Note_on_c, 0, 55, 29
1, 203493, Tempo, 928793
1, 203520, Tempo, 837989
1, 203520, Note_on_c, 0, 55, 0
1, 203520, Note_on_c, 0, 76, 0
1, 203520, Note_on_c, 0, 77, 42
1, 203520, Note_on_c, 0, 55, 34
1, 203520, Note_on_c, 0, 47, 34
1, 203570, Control_c, 0, 64, 0
1, 203760, Note_on_c, 0, 77, 0
1, 203760, Note_on_c, 0, 80, 34
1, 204000, Note_on_c, 0, 80, 0
1, 204000, Note_on_c, 0, 47, 0
1, 204000, Note_on_c, 0, 55, 0
1, 204000, Note_on_c, 0, 79, 39
1, 204240, Note_on_c, 0, 79, 0
1, 204240, Note_on_c, 0, 74, 37
1, 204240, Note_on_c, 0, 67, 31
1, 204480, Note_on_c, 0, 67, 0
1, 204480, Note_on_c, 0, 74, 0
1, 204480, Note_on_c, 0, 76, 39
1, 204480, Note_on_c, 0, 67, 33
1, 204480, Control_c, 0, 64, 0
1, 204720, Note_on_c, 0, 67, 0
1, 204720, Note_on_c, 0, 76, 0
1, 204720, Note_on_c, 0, 77, 34
1, 204720, Note_on_c, 0, 68, 28
1, 204960, Note_on_c, 0, 68, 0
1, 204960, Note_on_c, 0, 77, 0
1, 204960, Note_on_c, 0, 76, 39
1, 204960, Note_on_c, 0, 67, 33
1, 205200, Note_on_c, 0, 67, 0
1, 205200, Note_on_c, 0, 76, 0
1, 205200, Note_on_c, 0, 71, 37
1, 205200, Note_on_c, 0, 55, 22
1, 205200, Note_on_c, 0, 62, 26
1, 205440, Note_on_c, 0, 62, 0
1, 205440, Note_on_c, 0, 55, 0
1, 205440, Note_on_c, 0, 71, 0
1, 205440, Note_on_c, 0, 72, 39
1, 205440, Note_on_c, 0, 64, 39
1, 205440, Note_on_c, 0, 55, 33
1, 205440, Control_c, 0, 64, 0
1, 205680, Note_on_c, 0, 55, 0
1, 205680, Note_on_c, 0, 58, 28
1, 205920, Note_on_c, 0, 58, 0
1, 205920, Note_on_c, 0, 72, 0
1, 205920, Note_on_c, 0, 73, 47
1, 205920, Note_on_c, 0, 57, 33
1, 206160, Note_on_c, 0, 57, 0
1, 206160, Note_on_c, 0, 52, 22
1, 206160, Note_on_c, 0, 55, 26
1, 206400, Tempo, 849858
1, 206400, Note_on_c, 0, 55, 0
1, 206400, Note_on_c, 0, 64, 0
1, 206400, Note_on_c, 0, 73, 0
1, 206400, Note_on_c, 0, 52, 0
1, 206400, Note_on_c, 0, 62, 45
1, 206400, Note_on_c, 0, 74, 45
1, 206400, Note_on_c, 0, 53, 28
1, 206400, Note_on_c, 0, 57, 33
1, 206549, Control_c, 0, 64, 0
1, 206640, Tempo, 809717
1, 206640, Note_on_c, 0, 57, 0
1, 206640, Note_on_c, 0, 53, 0
1, 206640, Note_on_c, 0, 55, 23
1, 206640, Note_on_c, 0, 58, 28
1, 206880, Tempo, 855920
1, 206880, Note_on_c, 0, 58, 0
1, 206880, Note_on_c, 0, 62, 0
1, 206880, Note_on_c, 0, 74, 0
1, 206880, Note_on_c, 0, 55, 0
1, 206880, Note_on_c, 0, 81, 49
1, 206880, Note_on_c, 0, 53, 28
1, 206880, Note_on_c, 0, 57, 33
1, 207120, Tempo, 881057
1, 207120, Note_on_c, 0, 57, 0
1, 207120, Note_on_c, 0, 53, 0
1, 207120, Note_on_c, 0, 49, 22
1, 207120, Note_on_c, 0, 52, 26
1, 207360, Tempo, 849858
1, 207360, Note_on_c, 0, 52, 0
1, 207360, Note_on_c, 0, 49, 0
1, 207360, Note_on_c, 0, 50, 28
1, 207360, Note_on_c, 0, 53, 33
1, 207360, Control_c, 0, 64, 0
1, 207600, Tempo, 832178
1, 207600, Note_on_c, 0, 53, 0
1, 207600, Note_on_c, 0, 50, 0
1, 207600, Note_on_c, 0, 81, 0
1, 207600, Note_on_c, 0, 82, 39
1, 207600, Note_on_c, 0, 65, 33
1, 207600, Note_on_c, 0, 62, 28
1, 207840, Note_on_c, 0, 82, 0
1, 207840, Note_on_c, 0, 81, 43
1, 208080, Tempo, 862069
1, 208080, Note_on_c, 0, 81, 0
1, 208080, Note_on_c, 0, 62, 0
1, 208080, Note_on_c, 0, 65, 0
1, 208080, Note_on_c, 0, 77, 39
1, 208080, Note_on_c, 0, 63, 30
1, 208080, Note_on_c, 0, 60, 25
1, 208320, Tempo, 837989
1, 208320, Note_on_c, 0, 77, 0
1, 208320, Note_on_c, 0, 82, 43
1, 208343, Control_c, 0, 64, 0
1, 208560, Tempo, 826446
1, 208560, Note_on_c, 0, 82, 0
1, 208560, Note_on_c, 0, 60, 0
1, 208560, Note_on_c, 0, 63, 0
1, 208560, Note_on_c, 0, 77, 39
1, 208560, Note_on_c, 0, 58, 25
1, 208560, Note_on_c, 0, 61, 30
1, 208800, Note_on_c, 0, 77, 0
1, 208800, Note_on_c, 0, 77, 39
1, 209040, Tempo, 874636
1, 209040, Note_on_c, 0, 77, 0
1, 209040, Note_on_c, 0, 61, 0
1, 209040, Note_on_c, 0, 58, 0
1, 209040, Note_on_c, 0, 73, 36
1, 209040, Note_on_c, 0, 59, 30
1, 209040, Note_on_c, 0, 56, 25
1, 209280, Key_signature, 4, "major"
1, 209280, Tempo, 862069
1, 209280, Note_on_c, 0, 73, 0
1, 209280, Note_on_c, 0, 78, 37
1, 209520, Tempo, 837989
1, 209520, Note_on_c, 0, 78, 0
1, 209520, Note_on_c, 0, 56, 0
1, 209520, Note_on_c, 0, 59, 0
1, 209520, Note_on_c, 0, 73, 39
1, 209520, Note_on_c, 0, 54, 25
1, 209520, Note_on_c, 0, 58, 30
1, 209612, Control_c, 0, 64, 127
1, 209760, Note_on_c, 0, 73, 0
1, 209760, Note_on_c, 0, 73, 43
1, 210000, Tempo, 868307
1, 210000, Note_on_c, 0, 73, 0
1, 210000, Note_on_c, 0, 58, 0
1, 210000, Note_on_c, 0, 54, 0
1, 210000, Note_on_c, 0, 70, 39
1, 210000, Note_on_c, 0, 54, 25
1, 210000, Note_on_c, 0, 58, 30
1, 210240, Tempo, 843882
1, 210240, Note_on_c, 0, 70, 0
1, 210240, Note_on_c, 0, 82, 46
1, 210480, Tempo, 820793
1, 210480, Note_on_c, 0, 82, 0
1, 210480, Note_on_c, 0, 58, 0
1, 210480, Note_on_c, 0, 54, 0
1, 210480, Note_on_c, 0, 78, 38
1, 210480, Note_on_c, 0, 54, 25
1, 210480, Note_on_c, 0, 58, 30
1, 210720, Note_on_c, 0, 78, 0
1, 210720, Note_on_c, 0, 78, 42
1, 210960, Tempo, 862069
1, 210960, Note_on_c, 0, 78, 0
1, 210960, Note_on_c, 0, 58, 0
1, 210960, Note_on_c, 0, 54, 0
1, 210960, Note_on_c, 0, 73, 39
1, 210960, Note_on_c, 0, 54, 39
1, 210960, Note_on_c, 0, 58, 39
1, 211200, Tempo, 849858
1, 211200, Note_on_c, 0, 73, 0
1, 211200, Note_on_c, 0, 85, 54
1, 211440, Tempo, 820793
1, 211440, Note_on_c, 0, 85, 0
1, 211440, Note_on_c, 0, 58, 0
1, 211440, Note_on_c, 0, 54, 0
1, 211440, Note_on_c, 0, 81, 49
1, 211440, Note_on_c, 0, 60, 44
1, 211440, Note_on_c, 0, 54, 37
1, 211440, Note_on_c, 0, 57, 37
1, 211452, Control_c, 0, 64, 0
1, 211589, Control_c, 0, 64, 127
1, 211680, Note_on_c, 0, 81, 0
1, 211680, Note_on_c, 0, 81, 64
1, 211920, Tempo, 874636
1, 211920, Note_on_c, 0, 81, 0
1, 211920, Note_on_c, 0, 57, 0
1, 211920, Note_on_c, 0, 54, 0
1, 211920, Note_on_c, 0, 60, 0
1, 211920, Note_on_c, 0, 78, 64
1, 211920, Note_on_c, 0, 52, 48
1, 211920, Note_on_c, 0, 60, 58
1, 211920, Note_on_c, 0, 54, 48
1, 211920, Note_on_c, 0, 57, 48
1, 212160, Tempo, 826446
1, 212160, Note_on_c, 0, 78, 0
1, 212160, Note_on_c, 0, 84, 79
1, 212400, Tempo, 855920
1, 212400, Note_on_c, 0, 84, 0
1, 212400, Note_on_c, 0, 57, 0
1, 212400, Note_on_c, 0, 52, 0
1, 212400, Note_on_c, 0, 60, 0
1, 212400, Note_on_c, 0, 54, 0
1, 212400, Note_on_c, 0, 78, 73
1, 212400, Note_on_c, 0, 51, 61
1, 212400, Note_on_c, 0, 59, 71
1, 212400, Note_on_c, 0, 54, 61
1, 212400, Note_on_c, 0, 57, 71
1, 212407, Control_c, 0, 64, 0
1, 212640, Tempo, 837989
1, 212640, Note_on_c, 0, 57, 0
1, 212640, Note_on_c, 0, 59, 0
1, 212640, Note_on_c, 0, 78, 0
1, 212640, Note_on_c, 0, 51, 0
1, 212640, Note_on_c, 0, 54, 0
1, 212640, Note_on_c, 0, 83, 97
1, 212640, Note_on_c, 0, 51, 63
1, 212690, Control_c, 0, 64, 127
1, 212760, Tempo, 820793
1, 212760, Note_on_c, 0, 51, 0
1, 212760, Note_on_c, 0, 59, 57
1, 212880, Tempo, 837989
1, 212880, Note_on_c, 0, 59, 0
1, 212880, Note_on_c, 0, 83, 0
1, 212880, Note_on_c, 0, 78, 87
1, 212880, Note_on_c, 0, 51, 57
1, 212896, Control_c, 0, 64, 0
1, 213000, Note_on_c, 0, 51, 0
1, 213000, Note_on_c, 0, 78, 0
1, 213000, Note_on_c, 0, 52, 58
1, 213120, Tempo, 849858
1, 213120, Note_on_c, 0, 52, 0
1, 213120, Note_on_c, 0, 54, 45
1, 213198, Control_c, 0, 64, 127
1, 213240, Tempo, 855920
1, 213240, Note_on_c, 0, 54, 0
1, 213240, Note_on_c, 0, 59, 41
1, 213360, Note_on_c, 0, 59, 0
1, 213360, Note_on_c, 0, 54, 41
1, 213369, Control_c, 0, 64, 0
1, 213480, Note_on_c, 0, 54, 0
1, 213480, Note_on_c, 0, 56, 44
1, 213600, Note_on_c, 0, 56, 0
1, 213600, Note_on_c, 0, 75, 72
1, 213600, Note_on_c, 0, 57, 49
1, 213607, Control_c, 0, 64, 127
1, 213720, Note_on_c, 0, 57, 0
1, 213720, Note_on_c, 0, 75, 0
1, 213720, Note_on_c, 0, 83, 59
1, 213720, Note_on_c, 0, 59, 40
1, 213736, Control_c, 0, 64, 0
1, 213840, Tempo, 798935
1, 213840, Note_on_c, 0, 59, 0
1, 213840, Note_on_c, 0, 83, 0
1, 213840, Note_on_c, 0, 75, 61
1, 213840, Note_on_c, 0, 57, 40
1, 213960, Note_on_c, 0, 57, 0
1, 213960, Note_on_c, 0, 75, 0
1, 213960, Note_on_c, 0, 76, 64
1, 213960, Note_on_c, 0, 56, 44
1, 214080, Tempo, 826446
1, 214080, Note_on_c, 0, 56, 0
1, 214080, Note_on_c, 0, 76, 0
1, 214080, Note_on_c, 0, 78, 74
1, 214080, Note_on_c, 0, 54, 49
1, 214158, Control_c, 0, 64, 127
1, 214200, Note_on_c, 0, 54, 0
1, 214200, Note_on_c, 0, 78, 0
1, 214200, Note_on_c, 0, 83, 59
1, 214200, Note_on_c, 0, 59, 37
1, 214320, Tempo, 793651
1, 214320, Note_on_c, 0, 59, 0
1, 214320, Note_on_c, 0, 83, 0
1, 214320, Note_on_c, 0, 78, 61
1, 214320, Note_on_c, 0, 54, 39
1, 214331, Control_c, 0, 64, 0
1, 214440, Note_on_c, 0, 54, 0
1, 214440, Note_on_c, 0, 78, 0
1, 214440, Note_on_c, 0, 80, 64
1, 214440, Note_on_c, 0, 52, 42
1, 214560, Tempo, 820793
1, 214560, Note_on_c, 0, 52, 0
1, 214560, Note_on_c, 0, 80, 0
1, 214560, Note_on_c, 0, 81, 74
1, 214560, Note_on_c, 0, 51, 49
1, 214624, Control_c, 0, 64, 127
1, 214680, Note_on_c, 0, 51, 0
1, 214680, Note_on_c, 0, 81, 0
1, 214680, Note_on_c, 0, 83, 59
1, 214680, Note_on_c, 0, 59, 40
1, 214694, Control_c, 0, 64, 0
1, 214800, Tempo, 804290
1, 214800, Note_on_c, 0, 59, 0
1, 214800, Note_on_c, 0, 83, 0
1, 214800, Note_on_c, 0, 81, 62
1, 214800, Note_on_c, 0, 51, 39
1, 214920, Note_on_c, 0, 51, 0
1, 214920, Note_on_c, 0, 81, 0
1, 214920, Note_on_c, 0, 80, 69
1, 214920, Note_on_c, 0, 52, 43
1, 215040, Tempo, 826446
1, 215040, Note_on_c, 0, 52, 0
1, 215040, Note_on_c, 0, 80, 0
1, 215040, Note_on_c, 0, 78, 74
1, 215040, Note_on_c, 0, 54, 49
1, 215090, Control_c, 0, 64, 127
1, 215160, Note_on_c, 0, 54, 0
1, 215160, Note_on_c, 0, 78, 0
1, 215160, Note_on_c, 0, 83, 59
1, 215160, Note_on_c, 0, 59, 37
1, 215280, Tempo, 798935
1, 215280, Note_on_c, 0, 59, 0
1, 215280, Note_on_c, 0, 83, 0
1, 215280, Note_on_c, 0, 78, 61
1, 215280, Note_on_c, 0, 54, 39
1, 215289, Control_c, 0, 64, 0
1, 215400, Note_on_c, 0, 54, 0
1, 215400, Note_on_c, 0, 78, 0
1, 215400, Note_on_c, 0, 76, 64
1, 215400, Note_on_c, 0, 56, 42
1, 215520, Tempo, 826446
1, 215520, Note_on_c, 0, 56, 0
1, 215520, Note_on_c, 0, 76, 0
1, 215520, Note_on_c, 0, 75, 66
1, 215520, Note_on_c, 0, 57, 44
1, 215563, Control_c, 0, 64, 127
1, 215640, Note_on_c, 0, 57, 0
1, 215640, Note_on_c, 0, 75, 0
1, 215640, Note_on_c, 0, 83, 52
1, 215640, Note_on_c, 0, 59, 35
1, 215654, Control_c, 0, 64, 0
1, 215760, Tempo, 804290
1, 215760, Note_on_c, 0, 59, 0
1, 215760, Note_on_c, 0, 83, 0
1, 215760, Note_on_c, 0, 75, 53
1, 215760, Note_on_c, 0, 57, 33
1, 215880, Note_on_c, 0, 57, 0
1, 215880, Note_on_c, 0, 75, 0
1, 215880, Note_on_c, 0, 76, 58
1, 215880, Note_on_c, 0, 56, 36
1, 216000, Tempo, 843882
1, 216000, Note_on_c, 0, 56, 0
1, 216000, Note_on_c, 0, 76, 0
1, 216000, Note_on_c, 0, 78, 61
1, 216000, Note_on_c, 0, 54, 40
1, 216064, Control_c, 0, 64, 127
1, 216120, Note_on_c, 0, 54, 0
1, 216120, Note_on_c, 0, 78, 0
1, 216120, Note_on_c, 0, 83, 47
1, 216120, Note_on_c, 0, 59, 29
1, 216240, Tempo, 798935
1, 216240, Note_on_c, 0, 59, 0
1, 216240, Note_on_c, 0, 83, 0
1, 216240, Note_on_c, 0, 78, 48
1, 216240, Note_on_c, 0, 54, 30
1, 216254, Control_c, 0, 64, 0
1, 216360, Note_on_c, 0, 54, 0
1, 216360, Note_on_c, 0, 78, 0
1, 216360, Note_on_c, 0, 80, 49
1, 216360, Note_on_c, 0, 52, 32
1, 216480, Tempo, 843882
1, 216480, Note_on_c, 0, 52, 0
1, 216480, Note_on_c, 0, 80, 0
1, 216480, Note_on_c, 0, 81, 55
1, 216480, Note_on_c, 0, 51, 36
1, 216600, Note_on_c, 0, 51, 0
1, 216600, Note_on_c, 0, 81, 0
1, 216600, Note_on_c, 0, 83, 43
1, 216600, Note_on_c, 0, 59, 29
1, 216720, Tempo, 798935
1, 216720, Note_on_c, 0, 59, 0
1, 216720, Note_on_c, 0, 83, 0
1, 216720, Note_on_c, 0, 81, 44
1, 216720, Note_on_c, 0, 51, 28
1, 216840, Note_on_c, 0, 51, 0
1, 216840, Note_on_c, 0, 81, 0
1, 216840, Note_on_c, 0, 80, 48
1, 216840, Note_on_c, 0, 52, 30
1, 216960, Tempo, 832178
1, 216960, Note_on_c, 0, 52, 0
1, 216960, Note_on_c, 0, 80, 0
1, 216960, Note_on_c, 0, 78, 50
1, 216960, Note_on_c, 0, 54, 33
1, 217017, Control_c, 0, 64, 127
1, 217080, Note_on_c, 0, 54, 0
1, 217080, Note_on_c, 0, 78, 0
1, 217080, Note_on_c, 0, 83, 38
1, 217080, Note_on_c, 0, 59, 24
1, 217200, Tempo, 798935
1, 217200, Note_on_c, 0, 59, 0
1, 217200, Note_on_c, 0, 83, 0
1, 217200, Note_on_c, 0, 78, 39
1, 217200, Note_on_c, 0, 54, 24
1, 217213, Control_c, 0, 64, 0
1, 217320, Note_on_c, 0, 54, 0
1, 217320, Note_on_c, 0, 78, 0
1, 217320, Note_on_c, 0, 76, 39
1, 217320, Note_on_c, 0, 56, 26
1, 217440, Tempo, 843882
1, 217440, Note_on_c, 0, 56, 0
1, 217440, Note_on_c, 0, 76, 0
1, 217440, Note_on_c, 0, 75, 44
1, 217440, Note_on_c, 0, 57, 29
1, 217520, Control_c, 0, 64, 127
1, 217560, Note_on_c, 0, 57, 0
1, 217560, Note_on_c, 0, 75, 0
1, 217560, Note_on_c, 0, 83, 35
1, 217560, Note_on_c, 0, 59, 24
1, 217577, Control_c, 0, 64, 0
1, 217680, Tempo, 820793
1, 217680, Note_on_c, 0, 59, 0
1, 217680, Note_on_c, 0, 83, 0
1, 217680, Note_on_c, 0, 75, 37
1, 217680, Note_on_c, 0, 57, 23
1, 217800, Tempo, 809717
1, 217800, Note_on_c, 0, 57, 0
1, 217800, Note_on_c, 0, 75, 0
1, 217800, Note_on_c, 0, 76, 41
1, 217800, Note_on_c, 0, 56, 25
1, 217920, Tempo, 843882
1, 217920, Note_on_c, 0, 56, 0
1, 217920, Note_on_c, 0, 76, 0
1, 217920, Note_on_c, 0, 78, 44
1, 217920, Note_on_c, 0, 54, 29
1, 217998, Control_c, 0, 64, 127
1, 218040, Note_on_c, 0, 54, 0
1, 218040, Note_on_c, 0, 78, 0
1, 218040, Note_on_c, 0, 83, 35
1, 218040, Note_on_c, 0, 59, 22
1, 218160, Tempo, 820793
1, 218160, Note_on_c, 0, 59, 0
1, 218160, Note_on_c, 0, 83, 0
1, 218160, Note_on_c, 0, 78, 36
1, 218160, Note_on_c, 0, 54, 23
1, 218169, Control_c, 0, 64, 0
1, 218280, Tempo, 809717
1, 218280, Note_on_c, 0, 54, 0
1, 218280, Note_on_c, 0, 78, 0
1, 218280, Note_on_c, 0, 80, 38
1, 218280, Note_on_c, 0, 52, 25
1, 218400, Tempo, 843882
1, 218400, Note_on_c, 0, 52, 0
1, 218400, Note_on_c, 0, 80, 0
1, 218400, Note_on_c, 0, 81, 44
1, 218400, Note_on_c, 0, 51, 29
1, 218443, Control_c, 0, 64, 127
1, 218520, Note_on_c, 0, 51, 0
1, 218520, Note_on_c, 0, 81, 0
1, 218520, Note_on_c, 0, 83, 35
1, 218520, Note_on_c, 0, 59, 24
1, 218534, Control_c, 0, 64, 0
1, 218640, Tempo, 809717
1, 218640, Note_on_c, 0, 59, 0
1, 218640, Note_on_c, 0, 83, 0
1, 218640, Note_on_c, 0, 81, 37
1, 218640, Note_on_c, 0, 51, 23
1, 218760, Note_on_c, 0, 51, 0
1, 218760, Note_on_c, 0, 81, 0
1, 218760, Note_on_c, 0, 80, 41
1, 218760, Note_on_c, 0, 52, 25
1, 218880, Tempo, 843882
1, 218880, Note_on_c, 0, 52, 0
1, 218880, Note_on_c, 0, 80, 0
1, 218880, Note_on_c, 0, 78, 44
1, 218880, Note_on_c, 0, 54, 29
1, 218926, Control_c, 0, 64, 127
1, 219000, Note_on_c, 0, 54, 0
1, 219000, Note_on_c, 0, 78, 0
1, 219000, Note_on_c, 0, 83, 35
1, 219000, Note_on_c, 0, 59, 22
1, 219120, Tempo, 820793
1, 219120, Note_on_c, 0, 59, 0
1, 219120, Note_on_c, 0, 83, 0
1, 219120, Note_on_c, 0, 78, 36
1, 219120, Note_on_c, 0, 54, 23
1, 219125, Control_c, 0, 64, 0
1, 219240, Tempo, 815217
1, 219240, Note_on_c, 0, 54, 0
1, 219240, Note_on_c, 0, 78, 0
1, 219240, Note_on_c, 0, 76, 38
1, 219240, Note_on_c, 0, 56, 25
1, 219360, Tempo, 843882
1, 219360, Note_on_c, 0, 56, 0
1, 219360, Note_on_c, 0, 76, 0
1, 219360, Note_on_c, 0, 75, 44
1, 219360, Note_on_c, 0, 57, 29
1, 219480, Note_on_c, 0, 57, 0
1, 219480, Note_on_c, 0, 75, 0
1, 219480, Note_on_c, 0, 76, 35
1, 219480, Note_on_c, 0, 56, 24
1, 219600, Tempo, 820793
1, 219600, Note_on_c, 0, 56, 0
1, 219600, Note_on_c, 0, 76, 0
1, 219600, Note_on_c, 0, 75, 37
1, 219600, Note_on_c, 0, 57, 23
1, 219720, Note_on_c, 0, 57, 0
1, 219720, Note_on_c, 0, 75, 0
1, 219720, Note_on_c, 0, 73, 41
1, 219720, Note_on_c, 0, 58, 25
1, 219840, Tempo, 849858
1, 219840, Note_on_c, 0, 58, 0
1, 219840, Note_on_c, 0, 73, 0
1, 219840, Note_on_c, 0, 71, 44
1, 219840, Note_on_c, 0, 59, 29
1, 219840, Control_c, 0, 64, 0
1, 219960, Tempo, 820793
1, 219960, Note_on_c, 0, 59, 0
1, 219960, Note_on_c, 0, 71, 0
1, 219960, Note_on_c, 0, 73, 35
1, 219960, Note_on_c, 0, 58, 24
1, 220080, Note_on_c, 0, 58, 0
1, 220080, Note_on_c, 0, 73, 0
1, 220080, Note_on_c, 0, 63, 35
1, 220080, Note_on_c, 0, 57, 24
1, 220200, Note_on_c, 0, 57, 0
1, 220200, Note_on_c, 0, 63, 0
1, 220200, Note_on_c, 0, 64, 35
1, 220200, Note_on_c, 0, 56, 24
1, 220320, Note_on_c, 0, 56, 0
1, 220320, Note_on_c, 0, 64, 0
1, 220320, Note_on_c, 0, 66, 35
1, 220320, Note_on_c, 0, 54, 27
1, 220323, Tempo, 843882
1, 220383, Tempo, 849858
1, 220440, Note_on_c, 0, 54, 0
1, 220440, Note_on_c, 0, 66, 0
1, 220440, Note_on_c, 0, 69, 32
1, 220440, Note_on_c, 0, 51, 24
1, 220440, Note_on_c, 0, 47, 24
1, 220443, Tempo, 855920
1, 220503, Tempo, 862069
1, 220560, Note_on_c, 0, 47, 0
1, 220560, Note_on_c, 0, 51, 0
1, 220560, Note_on_c, 0, 69, 0
1, 220560, Note_on_c, 0, 68, 32
1, 220560, Note_on_c, 0, 52, 24
1, 220560, Note_on_c, 0, 49, 24
1, 220563, Tempo, 868307
1, 220623, Tempo, 874636
1, 220680, Tempo, 943396
1, 220680, Note_on_c, 0, 49, 0
1, 220680, Note_on_c, 0, 52, 0
1, 220680, Note_on_c, 0, 68, 0
1, 220680, Note_on_c, 0, 66, 32
1, 220680, Note_on_c, 0, 54, 24
1, 220680, Note_on_c, 0, 51, 24
1, 220800, Tempo, 849858
1, 220800, Note_on_c, 0, 51, 0
1, 220800, Note_on_c, 0, 54, 0
1, 220800, Note_on_c, 0, 66, 0
1, 220800, Note_on_c, 0, 68, 34
1, 220800, Note_on_c, 0, 56, 40
1, 220800, Note_on_c, 0, 52, 24
1, 220878, Control_c, 0, 64, 127
1, 220920, Note_on_c, 0, 68, 0
1, 220920, Note_on_c, 0, 71, 26
1, 221040, Note_on_c, 0, 71, 0
1, 221040, Note_on_c, 0, 52, 0
1, 221040, Note_on_c, 0, 59, 31
1, 221160, Note_on_c, 0, 59, 0
1, 221160, Note_on_c, 0, 71, 26
1, 221280, Tempo, 837989
1, 221280, Note_on_c, 0, 71, 0
1, 221280, Note_on_c, 0, 56, 0
1, 221280, Note_on_c, 0, 68, 30
1, 221280, Note_on_c, 0, 59, 36
1, 221296, Control_c, 0, 64, 0
1, 221379, Control_c, 0, 64, 127
1, 221400, Note_on_c, 0, 68, 0
1, 221400, Note_on_c, 0, 71, 27
1, 221520, Tempo, 855920
1, 221520, Note_on_c, 0, 71, 0
1, 221520, Note_on_c, 0, 59, 0
1, 221520, Note_on_c, 0, 66, 28
1, 221520, Note_on_c, 0, 57, 34
1, 221533, Control_c, 0, 64, 0
1, 221584, Control_c, 0, 64, 127
1, 221640, Tempo, 881057
1, 221640, Note_on_c, 0, 66, 0
1, 221640, Note_on_c, 0, 71, 27
1, 221760, Tempo, 868307
1, 221760, Note_on_c, 0, 71, 0
1, 221760, Note_on_c, 0, 57, 0
1, 221760, Note_on_c, 0, 64, 34
1, 221760, Note_on_c, 0, 56, 40
1, 221760, Note_on_c, 0, 47, 24
1, 221760, Control_c, 0, 64, 0
1, 221824, Control_c, 0, 64, 127
1, 221880, Note_on_c, 0, 64, 0
1, 221880, Note_on_c, 0, 71, 26
1, 222000, Tempo, 849858
1, 222000, Note_on_c, 0, 71, 0
1, 222000, Note_on_c, 0, 47, 0
1, 222000, Note_on_c, 0, 56, 0
1, 222000, Note_on_c, 0, 63, 27
1, 222000, Note_on_c, 0, 54, 32
1, 222014, Control_c, 0, 64, 0
1, 222057, Control_c, 0, 64, 127
1, 222120, Note_on_c, 0, 63, 0
1, 222120, Note_on_c, 0, 71, 25
1, 222210, Note_on_c, 0, 71, 0
1, 222210, Note_on_c, 0, 54, 0
1, 222210, Control_c, 0, 64, 0
1, 222240, Note_on_c, 0, 63, 27
1, 222240, Note_on_c, 0, 54, 32
1, 222304, Control_c, 0, 64, 127
1, 222360, Note_on_c, 0, 63, 0
1, 222360, Note_on_c, 0, 71, 26
1, 222480, Tempo, 832178
1, 222480, Note_on_c, 0, 71, 0
1, 222480, Note_on_c, 0, 54, 0
1, 222480, Note_on_c, 0, 65, 28
1, 222480, Note_on_c, 0, 56, 34
1, 222498, Control_c, 0, 64, 0
1, 222565, Control_c, 0, 64, 127
1, 222600, Note_on_c, 0, 65, 0
1, 222600, Note_on_c, 0, 71, 28
1, 222720, Tempo, 849858
1, 222720, Note_on_c, 0, 71, 0
1, 222720, Note_on_c, 0, 56, 0
1, 222720, Note_on_c, 0, 66, 30
1, 222720, Note_on_c, 0, 57, 36
1, 222720, Note_on_c, 0, 47, 24
1, 222730, Control_c, 0, 64, 0
1, 222805, Control_c, 0, 64, 127
1, 222840, Note_on_c, 0, 66, 0
1, 222840, Note_on_c, 0, 71, 28
1, 222960, Note_on_c, 0, 71, 0
1, 222960, Note_on_c, 0, 47, 0
1, 222960, Note_on_c, 0, 57, 0
1, 222960, Note_on_c, 0, 69, 36
1, 222960, Note_on_c, 0, 61, 43
1, 223080, Note_on_c, 0, 69, 0
1, 223080, Note_on_c, 0, 71, 31
1, 223200, Note_on_c, 0, 71, 0
1, 223200, Note_on_c, 0, 61, 0
1, 223200, Note_on_c, 0, 68, 37
1, 223200, Note_on_c, 0, 59, 37
1, 223200, Note_on_c, 0, 47, 22
1, 223216, Control_c, 0, 64, 0
1, 223278, Control_c, 0, 64, 127
1, 223320, Note_on_c, 0, 68, 0
1, 223320, Note_on_c, 0, 71, 26
1, 223430, Note_on_c, 0, 71, 0
1, 223440, Tempo, 868307
1, 223440, Note_on_c, 0, 47, 0
1, 223440, Note_on_c, 0, 59, 0
1, 223440, Note_on_c, 0, 71, 25
1, 223440, Note_on_c, 0, 54, 30
1, 223440, Note_on_c, 0, 45, 20
1, 223448, Control_c, 0, 64, 0
1, 223511, Control_c, 0, 64, 127
1, 223560, Tempo, 1006711
1, 223560, Note_on_c, 0, 71, 0
1, 223560, Note_on_c, 0, 75, 27
1, 223680, Tempo, 837989
1, 223680, Note_on_c, 0, 75, 0
1, 223680, Note_on_c, 0, 45, 0
1, 223680, Note_on_c, 0, 54, 0
1, 223680, Note_on_c, 0, 71, 36
1, 223680, Note_on_c, 0, 44, 22
1, 223680, Note_on_c, 0, 56, 22
1, 223688, Control_c, 0, 64, 0
1, 223749, Control_c, 0, 64, 127
1, 223800, Note_on_c, 0, 71, 0
1, 223800, Note_on_c, 0, 76, 30
1, 223920, Tempo, 798935
1, 223920, Note_on_c, 0, 76, 0
1, 223920, Note_on_c, 0, 56, 0
1, 223920, Note_on_c, 0, 44, 0
1, 223920, Note_on_c, 0, 71, 38
1, 223930, Control_c, 0, 64, 0
1, 224029, Control_c, 0, 64, 127
1, 224040, Note_on_c, 0, 71, 0
1, 224040, Note_on_c, 0, 78, 30
1, 224160, Tempo, 788436
1, 224160, Note_on_c, 0, 78, 0
1, 224160, Note_on_c, 0, 71, 45
1, 224170, Control_c, 0, 64, 0
1, 224235, Control_c, 0, 64, 127
1, 224280, Note_on_c, 0, 71, 0
1, 224280, Note_on_c, 0, 79, 33
1, 224400, Tempo, 907716
1, 224400, Note_on_c, 0, 79, 0
1, 224400, Note_on_c, 0, 71, 49
1, 224406, Control_c, 0, 64, 0
1, 224452, Control_c, 0, 64, 127
1, 224520, Tempo, 974026
1, 224520, Note_on_c, 0, 71, 0
1, 224520, Note_on_c, 0, 80, 40
1, 224640, Tempo, 868307
1, 224640, Note_on_c, 0, 80, 0
1, 224640, Note_on_c, 0, 71, 34
1, 224640, Note_on_c, 0, 80, 57
1, 224640, Note_on_c, 0, 52, 30
1, 224647, Control_c, 0, 64, 0
1, 224718, Control_c, 0, 64, 127
1, 224760, Note_on_c, 0, 52, 0
1, 224760, Note_on_c, 0, 71, 0
1, 224760, Note_on_c, 0, 76, 26
1, 224760, Note_on_c, 0, 64, 23
1, 224880, Note_on_c, 0, 64, 0
1, 224880, Note_on_c, 0, 76, 0
1, 224880, Note_on_c, 0, 71, 31
1, 224880, Note_on_c, 0, 52, 27
1, 225000, Note_on_c, 0, 52, 0
1, 225000, Note_on_c, 0, 71, 0
1, 225000, Note_on_c, 0, 76, 26
1, 225000, Note_on_c, 0, 64, 23
1, 225120, Tempo, 868307
1, 225120, Note_on_c, 0, 64, 0
1, 225120, Note_on_c, 0, 76, 0
1, 225120, Note_on_c, 0, 80, 0
1, 225120, Note_on_c, 0, 76, 30
1, 225120, Note_on_c, 0, 83, 52
1, 225120, Note_on_c, 0, 49, 27
1, 225136, Control_c, 0, 64, 0
1, 225219, Control_c, 0, 64, 127
1, 225240, Tempo, 874636
1, 225240, Note_on_c, 0, 49, 0
1, 225240, Note_on_c, 0, 76, 0
1, 225240, Note_on_c, 0, 69, 27
1, 225240, Note_on_c, 0, 61, 24
1, 225360, Tempo, 881057
1, 225360, Note_on_c, 0, 61, 0
1, 225360, Note_on_c, 0, 69, 0
1, 225360, Note_on_c, 0, 83, 0
1, 225360, Note_on_c, 0, 73, 28
1, 225360, Note_on_c, 0, 81, 49
1, 225360, Note_on_c, 0, 45, 25
1, 225373, Control_c, 0, 64, 0
1, 225452, Control_c, 0, 64, 127
1, 225480, Tempo, 881057
1, 225480, Note_on_c, 0, 45, 0
1, 225480, Note_on_c, 0, 73, 0
1, 225480, Note_on_c, 0, 76, 27
1, 225480, Note_on_c, 0, 57, 24
1, 225600, Tempo, 868307
1, 225600, Note_on_c, 0, 57, 0
1, 225600, Note_on_c, 0, 76, 0
1, 225600, Note_on_c, 0, 81, 0
1, 225600, Note_on_c, 0, 76, 34
1, 225600, Note_on_c, 0, 80, 57
1, 225600, Note_on_c, 0, 47, 30
1, 225600, Control_c, 0, 64, 0
1, 225664, Control_c, 0, 64, 127
1, 225720, Note_on_c, 0, 47, 0
1, 225720, Note_on_c, 0, 76, 0
1, 225720, Note_on_c, 0, 71, 26
1, 225720, Note_on_c, 0, 59, 23
1, 225840, Tempo, 849858
1, 225840, Note_on_c, 0, 59, 0
1, 225840, Note_on_c, 0, 71, 0
1, 225840, Note_on_c, 0, 80, 0
1, 225840, Note_on_c, 0, 75, 27
1, 225840, Note_on_c, 0, 78, 47
1, 225840, Note_on_c, 0, 47, 24
1, 225854, Control_c, 0, 64, 0
1, 225897, Control_c, 0, 64, 127
1, 225960, Note_on_c, 0, 47, 0
1, 225960, Note_on_c, 0, 75, 0
1, 225960, Note_on_c, 0, 71, 25
1, 225960, Note_on_c, 0, 59, 22
1, 226050, Note_on_c, 0, 78, 0
1, 226050, Control_c, 0, 64, 0
1, 226080, Note_on_c, 0, 59, 0
1, 226080, Note_on_c, 0, 71, 0
1, 226080, Note_on_c, 0, 75, 27
1, 226080, Note_on_c, 0, 78, 47
1, 226080, Note_on_c, 0, 57, 24
1, 226144, Control_c, 0, 64, 127
1, 226200, Note_on_c, 0, 57, 0
1, 226200, Note_on_c, 0, 75, 0
1, 226200, Note_on_c, 0, 71, 26
1, 226200, Note_on_c, 0, 69, 23
1, 226320, Tempo, 832178
1, 226320, Note_on_c, 0, 69, 0
1, 226320, Note_on_c, 0, 71, 0
1, 226320, Note_on_c, 0, 78, 0
1, 226320, Note_on_c, 0, 76, 28
1, 226320, Note_on_c, 0, 80, 49
1, 226320, Note_on_c, 0, 56, 25
1, 226338, Control_c, 0, 64, 0
1, 226405, Control_c, 0, 64, 127
1, 226440, Note_on_c, 0, 56, 0
1, 226440, Note_on_c, 0, 76, 0
1, 226440, Note_on_c, 0, 71, 28
1, 226440, Note_on_c, 0, 68, 25
1, 226560, Tempo, 849858
1, 226560, Note_on_c, 0, 68, 0
1, 226560, Note_on_c, 0, 71, 0
1, 226560, Note_on_c, 0, 80, 0
1, 226560, Note_on_c, 0, 78, 33
1, 226560, Note_on_c, 0, 81, 57
1, 226560, Note_on_c, 0, 54, 29
1, 226570, Control_c, 0, 64, 0
1, 226645, Control_c, 0, 64, 127
1, 226680, Note_on_c, 0, 54, 0
1, 226680, Note_on_c, 0, 78, 0
1, 226680, Note_on_c, 0, 71, 42
1, 226680, Note_on_c, 0, 66, 28
1, 226800, Note_on_c, 0, 66, 0
1, 226800, Note_on_c, 0, 71, 0
1, 226800, Note_on_c, 0, 81, 0
1, 226800, Note_on_c, 0, 85, 56
1, 226800, Note_on_c, 0, 80, 56
1, 226800, Note_on_c, 0, 52, 37
1, 226920, Note_on_c, 0, 52, 0
1, 226920, Note_on_c, 0, 80, 0
1, 226920, Note_on_c, 0, 71, 49
1, 226920, Note_on_c, 0, 64, 31
1, 227040, Tempo, 936037
1, 227040, Note_on_c, 0, 64, 0
1, 227040, Note_on_c, 0, 71, 0
1, 227040, Note_on_c, 0, 85, 0
1, 227040, Note_on_c, 0, 78, 66
1, 227040, Note_on_c, 0, 83, 66
1, 227040, Note_on_c, 0, 51, 48
1, 227056, Control_c, 0, 64, 0
1, 227118, Control_c, 0, 64, 127
1, 227160, Note_on_c, 0, 51, 0
1, 227160, Note_on_c, 0, 78, 0
1, 227160, Note_on_c, 0, 71, 55
1, 227160, Note_on_c, 0, 63, 40
1, 227280, Tempo, 874636
1, 227280, Note_on_c, 0, 63, 0
1, 227280, Note_on_c, 0, 71, 0
1, 227280, Note_on_c, 0, 83, 0
1, 227280, Note_on_c, 0, 81, 25
1, 227280, Note_on_c, 0, 78, 25
1, 227280, Note_on_c, 0, 87, 38
1, 227280, Note_on_c, 0, 47, 22
1, 227400, Tempo, 943396
1, 227400, Note_on_c, 0, 47, 0
1, 227400, Note_on_c, 0, 81, 0
1, 227400, Note_on_c, 0, 78, 0
1, 227400, Note_on_c, 0, 87, 0
1, 227400, Note_on_c, 0, 59, 20
1, 227520, Tempo, 849858
1, 227520, Note_on_c, 0, 59, 0
1, 227520, Note_on_c, 0, 88, 42
1, 227520, Note_on_c, 0, 80, 35
1, 227520, Note_on_c, 0, 76, 42
1, 227520, Note_on_c, 0, 52, 28
1, 227520, Note_on_c, 0, 64, 28
1, 227528, Control_c, 0, 64, 0
1, 227591, Control_c, 0, 64, 127
1, 227610, Note_on_c, 0, 76, 0
1, 227610, Note_on_c, 0, 88, 0
1, 227610, Note_on_c, 0, 80, 0
1, 227640, Note_on_c, 0, 76, 36
1, 227760, Note_on_c, 0, 76, 0
1, 227760, Note_on_c, 0, 71, 40
1, 227880, Note_on_c, 0, 71, 0
1, 227880, Note_on_c, 0, 68, 36
1, 228000, Note_on_c, 0, 68, 0
1, 228000, Note_on_c, 0, 52, 0
1, 228000, Note_on_c, 0, 64, 0
1, 228000, Note_on_c, 0, 71, 41
1, 228120, Note_on_c, 0, 71, 0
1, 228120, Note_on_c, 0, 68, 36
1, 228240, Tempo, 832178
1, 228240, Note_on_c, 0, 68, 0
1, 228240, Note_on_c, 0, 66, 40
1, 228240, Note_on_c, 0, 51, 42
1, 228240, Note_on_c, 0, 59, 42
1, 228254, Control_c, 0, 64, 0
1, 228318, Control_c, 0, 64, 127
1, 228360, Tempo, 907716
1, 228360, Note_on_c, 0, 66, 0
1, 228360, Note_on_c, 0, 75, 36
1, 228480, Tempo, 837989
1, 228480, Note_on_c, 0, 75, 0
1, 228480, Note_on_c, 0, 59, 0
1, 228480, Note_on_c, 0, 51, 0
1, 228480, Note_on_c, 0, 66, 47
1, 228480, Note_on_c, 0, 49, 42
1, 228480, Note_on_c, 0, 58, 42
1, 228480, Control_c, 0, 64, 0
1, 228600, Note_on_c, 0, 66, 0
1, 228600, Note_on_c, 0, 76, 36
1, 228600, Control_c, 0, 64, 127
1, 228720, Note_on_c, 0, 76, 0
1, 228720, Note_on_c, 0, 73, 38
1, 228840, Note_on_c, 0, 73, 0
1, 228840, Note_on_c, 0, 66, 34
1, 228930, Note_on_c, 0, 66, 0
1, 228960, Note_on_c, 0, 58, 0
1, 228960, Note_on_c, 0, 49, 0
1, 228960, Note_on_c, 0, 66, 38
1, 228960, Note_on_c, 0, 58, 47
1, 228960, Note_on_c, 0, 64, 47
1, 228970, Control_c, 0, 64, 0
1, 229038, Control_c, 0, 64, 127
1, 229080, Note_on_c, 0, 66, 0
1, 229080, Note_on_c, 0, 78, 31
1, 229200, Note_on_c, 0, 78, 0
1, 229200, Note_on_c, 0, 73, 36
1, 229320, Tempo, 900901
1, 229320, Note_on_c, 0, 73, 0
1, 229320, Note_on_c, 0, 66, 34
1, 229410, Note_on_c, 0, 66, 0
1, 229440, Tempo, 832178
1, 229440, Note_on_c, 0, 64, 0
1, 229440, Note_on_c, 0, 58, 0
1, 229440, Note_on_c, 0, 66, 38
1, 229440, Note_on_c, 0, 59, 42
1, 229440, Note_on_c, 0, 63, 42
1, 229459, Control_c, 0, 64, 0
1, 229503, Tempo, 820793
1, 229525, Control_c, 0, 64, 127
1, 229560, Note_on_c, 0, 66, 0
1, 229560, Note_on_c, 0, 75, 30
1, 229680, Note_on_c, 0, 75, 0
1, 229680, Note_on_c, 0, 71, 37
1, 229800, Note_on_c, 0, 71, 0
1, 229800, Note_on_c, 0, 66, 34
1, 229863, Tempo, 815217
1, 229920, Note_on_c, 0, 66, 0
1, 229920, Note_on_c, 0, 63, 0
1, 229920, Note_on_c, 0, 59, 0
1, 229920, Note_on_c, 0, 63, 46
1, 229920, Note_on_c, 0, 47, 38
1, 229920, Note_on_c, 0, 59, 38
1, 229923, Tempo, 820793
1, 229983, Tempo, 826446
1, 230040, Note_on_c, 0, 63, 0
1, 230040, Note_on_c, 0, 71, 37
1, 230043, Tempo, 832178
1, 230103, Tempo, 837989
1, 230160, Note_on_c, 0, 71, 0
1, 230160, Note_on_c, 0, 59, 0
1, 230160, Note_on_c, 0, 47, 0
1, 230160, Note_on_c, 0, 64, 46
1, 230160, Note_on_c, 0, 49, 38
1, 230160, Note_on_c, 0, 57, 38
1, 230163, Tempo, 843882
1, 230171, Control_c, 0, 64, 0
1, 230223, Tempo, 849858
1, 230231, Control_c, 0, 64, 127
1, 230280, Tempo, 894188
1, 230280, Note_on_c, 0, 64, 0
1, 230280, Note_on_c, 0, 69, 40
1, 230400, Tempo, 843882
1, 230400, Note_on_c, 0, 69, 0
1, 230400, Note_on_c, 0, 57, 0
1, 230400, Note_on_c, 0, 49, 0
1, 230400, Note_on_c, 0, 64, 38
1, 230400, Note_on_c, 0, 50, 42
1, 230400, Note_on_c, 0, 56, 42
1, 230408, Control_c, 0, 64, 0
1, 230485, Control_c, 0, 64, 127
1, 230520, Note_on_c, 0, 64, 0
1, 230520, Note_on_c, 0, 71, 36
1, 230640, Note_on_c, 0, 71, 0
1, 230640, Note_on_c, 0, 68, 42
1, 230760, Note_on_c, 0, 68, 0
1, 230760, Note_on_c, 0, 64, 36
1, 230850, Note_on_c, 0, 64, 0
1, 230880, Note_on_c, 0, 56, 0
1, 230880, Note_on_c, 0, 50, 0
1, 230880, Note_on_c, 0, 64, 48
1, 230880, Note_on_c, 0, 56, 45
1, 230880, Note_on_c, 0, 62, 45
1, 231000, Note_on_c, 0, 64, 0
1, 231000, Note_on_c, 0, 76, 39
1, 231120, Note_on_c, 0, 76, 0
1, 231120, Note_on_c, 0, 71, 45
1, 231240, Tempo, 936037
1, 231240, Note_on_c, 0, 71, 0
1, 231240, Note_on_c, 0, 64, 36
1, 231330, Note_on_c, 0, 64, 0
1, 231360, Tempo, 855920
1, 231360, Note_on_c, 0, 62, 0
1, 231360, Note_on_c, 0, 56, 0
1, 231360, Note_on_c, 0, 64, 44
1, 231360, Note_on_c, 0, 57, 42
1, 231360, Note_on_c, 0, 61, 42
1, 231360, Control_c, 0, 64, 0
1, 231363, Tempo, 832178
1, 231438, Control_c, 0, 64, 127
1, 231480, Note_on_c, 0, 64, 0
1, 231480, Note_on_c, 0, 76, 34
1, 231600, Note_on_c, 0, 76, 0
1, 231600, Note_on_c, 0, 73, 38
1, 231720, Note_on_c, 0, 73, 0
1, 231720, Note_on_c, 0, 69, 34
1, 231840, Note_on_c, 0, 69, 0
1, 231840, Note_on_c, 0, 64, 38
1, 231843, Tempo, 826446
1, 231933, Tempo, 832178
1, 231960, Note_on_c, 0, 64, 0
1, 231960, Note_on_c, 0, 76, 36
1, 232023, Tempo, 837989
1, 232080, Note_on_c, 0, 76, 0
1, 232080, Note_on_c, 0, 61, 0
1, 232080, Note_on_c, 0, 57, 0
1, 232080, Note_on_c, 0, 64, 41
1, 232080, Note_on_c, 0, 57, 40
1, 232080, Note_on_c, 0, 61, 40
1, 232113, Tempo, 843882
1, 232200, Note_on_c, 0, 64, 0
1, 232200, Note_on_c, 0, 76, 48
1, 232203, Tempo, 849858
1, 232263, Tempo, 855920
1, 232320, Tempo, 849858
1, 232320, Note_on_c, 0, 76, 0
1, 232320, Note_on_c, 0, 61, 0
1, 232320, Note_on_c, 0, 57, 0
1, 232320, Note_on_c, 0, 64, 48
1, 232320, Note_on_c, 0, 60, 54
1, 232320, Note_on_c, 0, 56, 54
1, 232323, Control_c, 0, 64, 0
1, 232352, Control_c, 0, 64, 127
1, 232440, Note_on_c, 0, 64, 0
1, 232440, Note_on_c, 0, 76, 42
1, 232560, Note_on_c, 0, 76, 0
1, 232560, Note_on_c, 0, 56, 0
1, 232560, Note_on_c, 0, 60, 0
1, 232560, Note_on_c, 0, 64, 53
1, 232560, Note_on_c, 0, 61, 51
1, 232560, Note_on_c, 0, 57, 51
1, 232570, Control_c, 0, 64, 0
1, 232631, Control_c, 0, 64, 127
1, 232680, Note_on_c, 0, 64, 0
1, 232680, Note_on_c, 0, 76, 43
1, 232800, Note_on_c, 0, 76, 0
1, 232800, Note_on_c, 0, 57, 0
1, 232800, Note_on_c, 0, 61, 0
1, 232800, Note_on_c, 0, 64, 54
1, 232800, Note_on_c, 0, 49, 60
1, 232800, Note_on_c, 0, 57, 60
1, 232813, Control_c, 0, 64, 0
1, 232853, Control_c, 0, 64, 127
1, 232920, Note_on_c, 0, 64, 0
1, 232920, Note_on_c, 0, 76, 50
1, 232980, Note_on_c, 0, 57, 0
1, 232980, Note_on_c, 0, 49, 0
1, 233040, Note_on_c, 0, 76, 0
1, 233040, Note_on_c, 0, 64, 60
1, 233040, Note_on_c, 0, 47, 58
1, 233040, Note_on_c, 0, 56, 58
1, 233051, Control_c, 0, 64, 0
1, 233086, Control_c, 0, 64, 127
1, 233160, Tempo, 936037
1, 233160, Note_on_c, 0, 64, 0
1, 233160, Note_on_c, 0, 76, 53
1, 233220, Note_on_c, 0, 56, 0
1, 233220, Note_on_c, 0, 47, 0
1, 233280, Tempo, 855920
1, 233280, Note_on_c, 0, 76, 0
1, 233280, Note_on_c, 0, 64, 67
1, 233280, Note_on_c, 0, 56, 68
1, 233290, Control_c, 0, 64, 0
1, 233358, Control_c, 0, 64, 127
1, 233400, Note_on_c, 0, 64, 0
1, 233400, Note_on_c, 0, 76, 59
1, 233520, Note_on_c, 0, 76, 0
1, 233520, Note_on_c, 0, 56, 0
1, 233520, Note_on_c, 0, 64, 66
1, 233520, Note_on_c, 0, 54, 64
1, 233520, Note_on_c, 0, 46, 64
1, 233640, Tempo, 907716
1, 233640, Note_on_c, 0, 64, 0
1, 233640, Note_on_c, 0, 76, 52
1, 233760, Tempo, 855920
1, 233760, Note_on_c, 0, 76, 0
1, 233760, Note_on_c, 0, 64, 60
1, 233880, Note_on_c, 0, 64, 0
1, 233880, Note_on_c, 0, 76, 46
1, 234000, Note_on_c, 0, 76, 0
1, 234000, Note_on_c, 0, 46, 0
1, 234000, Note_on_c, 0, 54, 0
1, 234000, Note_on_c, 0, 64, 59
1, 234000, Note_on_c, 0, 46, 51
1, 234000, Note_on_c, 0, 54, 54
1, 234007, Control_c, 0, 64, 0
1, 234064, Control_c, 0, 64, 127
1, 234120, Tempo, 966184
1, 234120, Note_on_c, 0, 64, 0
1, 234120, Note_on_c, 0, 76, 47
1, 234240, Tempo, 862069
1, 234240, Note_on_c, 0, 76, 0
1, 234240, Note_on_c, 0, 54, 0
1, 234240, Note_on_c, 0, 46, 0
1, 234240, Note_on_c, 0, 63, 38
1, 234240, Note_on_c, 0, 54, 41
1, 234240, Note_on_c, 0, 47, 34
1, 234240, Control_c, 0, 64, 0
1, 234311, Control_c, 0, 64, 127
1, 234360, Note_on_c, 0, 63, 0
1, 234360, Note_on_c, 0, 75, 34
1, 234480, Note_on_c, 0, 75, 0
1, 234480, Note_on_c, 0, 54, 0
1, 234480, Note_on_c, 0, 71, 38
1, 234480, Note_on_c, 0, 59, 32
1, 234600, Note_on_c, 0, 71, 0
1, 234600, Note_on_c, 0, 66, 36
1, 234690, Note_on_c, 0, 66, 0
1, 234720, Tempo, 894188
1, 234720, Note_on_c, 0, 59, 0
1, 234720, Note_on_c, 0, 66, 38
1, 234720, Note_on_c, 0, 58, 38
1, 234729, Control_c, 0, 64, 0
1, 234812, Control_c, 0, 64, 127
1, 234840, Note_on_c, 0, 66, 0
1, 234840, Note_on_c, 0, 78, 34
1, 234960, Note_on_c, 0, 78, 0
1, 234960, Note_on_c, 0, 58, 0
1, 234960, Note_on_c, 0, 75, 38
1, 234960, Note_on_c, 0, 59, 34
1, 234973, Control_c, 0, 64, 0
1, 235038, Control_c, 0, 64, 127
1, 235080, Tempo, 998336
1, 235080, Note_on_c, 0, 75, 0
1, 235080, Note_on_c, 0, 69, 35
1, 235200, Tempo, 849858
1, 235200, Note_on_c, 0, 69, 0
1, 235200, Note_on_c, 0, 59, 0
1, 235200, Note_on_c, 0, 47, 0
1, 235200, Note_on_c, 0, 68, 51
1, 235200, Note_on_c, 0, 52, 31
1, 235206, Control_c, 0, 64, 0
1, 235206, Control_c, 0, 64, 0
1, 235207, Control_c, 0, 64, 0
1, 235264, Control_c, 0, 64, 127
1, 235320, Note_on_c, 0, 52, 0
1, 235320, Note_on_c, 0, 59, 23
1, 235440, Note_on_c, 0, 59, 0
1, 235440, Note_on_c, 0, 56, 31
1, 235560, Note_on_c, 0, 56, 0
1, 235560, Note_on_c, 0, 52, 25
1, 235680, Tempo, 832178
1, 235680, Note_on_c, 0, 52, 0
1, 235680, Note_on_c, 0, 68, 0
1, 235680, Note_on_c, 0, 51, 31
1, 235694, Control_c, 0, 64, 0
1, 235772, Control_c, 0, 64, 127
1, 235800, Note_on_c, 0, 51, 0
1, 235800, Note_on_c, 0, 59, 27
1, 235920, Note_on_c, 0, 59, 0
1, 235920, Note_on_c, 0, 83, 47
1, 235920, Note_on_c, 0, 71, 47
1, 235920, Note_on_c, 0, 54, 31
1, 236040, Tempo, 907716
1, 236040, Note_on_c, 0, 54, 0
1, 236040, Note_on_c, 0, 51, 32
1, 236160, Tempo, 849858
1, 236160, Note_on_c, 0, 51, 0
1, 236160, Note_on_c, 0, 71, 0
1, 236160, Note_on_c, 0, 83, 0
1, 236160, Note_on_c, 0, 82, 51
1, 236160, Note_on_c, 0, 70, 51
1, 236160, Note_on_c, 0, 49, 38
1, 236167, Control_c, 0, 64, 0
1, 236252, Control_c, 0, 64, 127
1, 236280, Note_on_c, 0, 49, 0
1, 236280, Note_on_c, 0, 58, 29
1, 236400, Note_on_c, 0, 58, 0
1, 236400, Note_on_c, 0, 54, 31
1, 236520, Note_on_c, 0, 54, 0
1, 236520, Note_on_c, 0, 49, 27
1, 236640, Note_on_c, 0, 49, 0
1, 236640, Note_on_c, 0, 70, 0
1, 236640, Note_on_c, 0, 82, 0
1, 236640, Note_on_c, 0, 88, 56
1, 236640, Note_on_c, 0, 76, 56
1, 236640, Note_on_c, 0, 42, 31
1, 236760, Note_on_c, 0, 42, 0
1, 236760, Note_on_c, 0, 58, 26
1, 236880, Note_on_c, 0, 58, 0
1, 236880, Note_on_c, 0, 54, 29
1, 237000, Tempo, 900901
1, 237000, Note_on_c, 0, 54, 0
1, 237000, Note_on_c, 0, 49, 27
1, 237120, Tempo, 855920
1, 237120, Note_on_c, 0, 49, 0
1, 237120, Note_on_c, 0, 76, 0
1, 237120, Note_on_c, 0, 88, 0
1, 237120, Note_on_c, 0, 87, 51
1, 237120, Note_on_c, 0, 75, 51
1, 237120, Note_on_c, 0, 47, 31
1, 237120, Control_c, 0, 64, 0
1, 237127, Tempo, 837989
1, 237219, Control_c, 0, 64, 127
1, 237240, Note_on_c, 0, 47, 0
1, 237240, Note_on_c, 0, 59, 25
1, 237360, Note_on_c, 0, 59, 0
1, 237360, Note_on_c, 0, 54, 30
1, 237480, Note_on_c, 0, 54, 0
1, 237480, Note_on_c, 0, 51, 27
1, 237547, Tempo, 837989
1, 237600, Note_on_c, 0, 51, 0
1, 237600, Note_on_c, 0, 47, 37
1, 237720, Note_on_c, 0, 47, 0
1, 237720, Note_on_c, 0, 59, 30
1, 237727, Tempo, 843882
1, 237840, Note_on_c, 0, 59, 0
1, 237840, Note_on_c, 0, 75, 0
1, 237840, Note_on_c, 0, 87, 0
1, 237840, Note_on_c, 0, 81, 45
1, 237840, Note_on_c, 0, 69, 45
1, 237840, Note_on_c, 0, 49, 37
1, 237848, Control_c, 0, 64, 0
1, 237907, Tempo, 849858
1, 237911, Control_c, 0, 64, 127
1, 237960, Tempo, 894188
1, 237960, Note_on_c, 0, 49, 0
1, 237960, Note_on_c, 0, 57, 33
1, 238080, Tempo, 849858
1, 238080, Note_on_c, 0, 57, 0
1, 238080, Note_on_c, 0, 69, 0
1, 238080, Note_on_c, 0, 81, 0
1, 238080, Note_on_c, 0, 80, 51
1, 238080, Note_on_c, 0, 68, 51
1, 238080, Note_on_c, 0, 47, 31
1, 238087, Control_c, 0, 64, 0
1, 238165, Control_c, 0, 64, 127
1, 238200, Note_on_c, 0, 47, 0
1, 238200, Note_on_c, 0, 56, 29
1, 238320, Note_on_c, 0, 56, 0
1, 238320, Note_on_c, 0, 52, 34
1, 238440, Note_on_c, 0, 52, 0
1, 238440, Note_on_c, 0, 47, 29
1, 238560, Note_on_c, 0, 47, 0
1, 238560, Note_on_c, 0, 68, 0
1, 238560, Note_on_c, 0, 80, 0
1, 238560, Note_on_c, 0, 86, 54
1, 238560, Note_on_c, 0, 74, 54
1, 238560, Note_on_c, 0, 40, 39
1, 238578, Control_c, 0, 64, 0
1, 238652, Control_c, 0, 64, 127
1, 238680, Note_on_c, 0, 40, 0
1, 238680, Note_on_c, 0, 56, 32
1, 238800, Note_on_c, 0, 56, 0
1, 238800, Note_on_c, 0, 52, 36
1, 238920, Tempo, 936037
1, 238920, Note_on_c, 0, 52, 0
1, 238920, Note_on_c, 0, 47, 29
1, 239040, Tempo, 855920
1, 239040, Note_on_c, 0, 47, 0
1, 239040, Note_on_c, 0, 74, 0
1, 239040, Note_on_c, 0, 86, 0
1, 239040, Note_on_c, 0, 85, 51
1, 239040, Note_on_c, 0, 73, 51
1, 239040, Note_on_c, 0, 45, 35
1, 239056, Control_c, 0, 64, 0
1, 239125, Control_c, 0, 64, 127
1, 239160, Note_on_c, 0, 45, 0
1, 239160, Note_on_c, 0, 57, 27
1, 239280, Note_on_c, 0, 57, 0
1, 239280, Note_on_c, 0, 52, 31
1, 239400, Note_on_c, 0, 52, 0
1, 239400, Note_on_c, 0, 49, 27
1, 239520, Note_on_c, 0, 49, 0
1, 239520, Note_on_c, 0, 45, 31
1, 239640, Tempo, 837989
1, 239640, Note_on_c, 0, 45, 0
1, 239640, Note_on_c, 0, 52, 29
1, 239760, Note_on_c, 0, 52, 0
1, 239760, Note_on_c, 0, 73, 0
1, 239760, Note_on_c, 0, 85, 0
1, 239760, Note_on_c, 0, 85, 48
1, 239760, Note_on_c, 0, 73, 48
1, 239760, Note_on_c, 0, 45, 34
1, 239880, Note_on_c, 0, 45, 0
1, 239880, Note_on_c, 0, 52, 38
1, 240000, Tempo, 849858
1, 240000, Note_on_c, 0, 52, 0
1, 240000, Note_on_c, 0, 73, 0
1, 240000, Note_on_c, 0, 85, 0
1, 240000, Note_on_c, 0, 84, 56
1, 240000, Note_on_c, 0, 72, 56
1, 240000, Note_on_c, 0, 44, 38
1, 240000, Control_c, 0, 64, 0
1, 240071, Control_c, 0, 64, 127
1, 240120, Note_on_c, 0, 44, 0
1, 240120, Note_on_c, 0, 52, 34
1, 240240, Note_on_c, 0, 52, 0
1, 240240, Note_on_c, 0, 72, 0
1, 240240, Note_on_c, 0, 84, 0
1, 240240, Note_on_c, 0, 85, 57
1, 240240, Note_on_c, 0, 73, 57
1, 240240, Note_on_c, 0, 45, 38
1, 240360, Note_on_c, 0, 45, 0
1, 240360, Note_on_c, 0, 52, 35
1, 240480, Note_on_c, 0, 52, 0
1, 240480, Note_on_c, 0, 73, 0
1, 240480, Note_on_c, 0, 85, 0
1, 240480, Note_on_c, 0, 81, 55
1, 240480, Note_on_c, 0, 69, 55
1, 240480, Note_on_c, 0, 45, 36
1, 240480, Note_on_c, 0, 49, 43
1, 240487, Control_c, 0, 64, 0
1, 240551, Control_c, 0, 64, 127
1, 240600, Note_on_c, 0, 49, 0
1, 240600, Note_on_c, 0, 45, 0
1, 240600, Note_on_c, 0, 52, 35
1, 240660, Note_on_c, 0, 69, 0
1, 240660, Note_on_c, 0, 81, 0
1, 240720, Note_on_c, 0, 52, 0
1, 240720, Note_on_c, 0, 80, 54
1, 240720, Note_on_c, 0, 68, 54
1, 240720, Note_on_c, 0, 47, 37
1, 240720, Note_on_c, 0, 52, 44
1, 240734, Control_c, 0, 64, 0
1, 240798, Control_c, 0, 64, 127
1, 240840, Tempo, 936037
1, 240840, Note_on_c, 0, 52, 0
1, 240840, Note_on_c, 0, 47, 0
1, 240840, Note_on_c, 0, 56, 36
1, 240900, Note_on_c, 0, 68, 0
1, 240900, Note_on_c, 0, 80, 0
1, 240960, Tempo, 855920
1, 240960, Note_on_c, 0, 56, 0
1, 240960, Note_on_c, 0, 80, 70
1, 240960, Note_on_c, 0, 68, 70
1, 240960, Note_on_c, 0, 52, 54
1, 240960, Note_on_c, 0, 49, 46
1, 240967, Control_c, 0, 64, 0
1, 241029, Control_c, 0, 64, 127
1, 241080, Note_on_c, 0, 49, 0
1, 241080, Note_on_c, 0, 52, 0
1, 241080, Note_on_c, 0, 58, 47
1, 241200, Note_on_c, 0, 58, 0
1, 241200, Note_on_c, 0, 68, 0
1, 241200, Note_on_c, 0, 80, 0
1, 241200, Note_on_c, 0, 78, 61
1, 241200, Note_on_c, 0, 66, 61
1, 241200, Note_on_c, 0, 52, 52
1, 241200, Note_on_c, 0, 49, 44
1, 241320, Tempo, 907716
1, 241320, Note_on_c, 0, 49, 0
1, 241320, Note_on_c, 0, 52, 0
1, 241320, Note_on_c, 0, 58, 42
1, 241440, Tempo, 855920
1, 241440, Note_on_c, 0, 58, 0
1, 241440, Note_on_c, 0, 52, 48
1, 241440, Note_on_c, 0, 48, 41
1, 241452, Control_c, 0, 64, 0
1, 241520, Control_c, 0, 64, 127
1, 241560, Note_on_c, 0, 48, 0
1, 241560, Note_on_c, 0, 52, 0
1, 241560, Note_on_c, 0, 57, 37
1, 241675, Note_on_c, 0, 66, 0
1, 241675, Note_on_c, 0, 78, 0
1, 241680, Note_on_c, 0, 57, 0
1, 241680, Note_on_c, 0, 78, 65
1, 241680, Note_on_c, 0, 66, 65
1, 241680, Note_on_c, 0, 48, 40
1, 241680, Note_on_c, 0, 52, 47
1, 241800, Tempo, 966184
1, 241800, Note_on_c, 0, 52, 0
1, 241800, Note_on_c, 0, 48, 0
1, 241800, Note_on_c, 0, 57, 38
1, 241908, Note_on_c, 0, 66, 0
1, 241908, Note_on_c, 0, 78, 0
1, 241920, Tempo, 862069
1, 241920, Note_on_c, 0, 57, 0
1, 241920, Note_on_c, 0, 78, 49
1, 241920, Note_on_c, 0, 66, 49
1, 241920, Note_on_c, 0, 47, 31
1, 241927, Control_c, 0, 64, 0
1, 242005, Control_c, 0, 64, 127
1, 242040, Note_on_c, 0, 47, 0
1, 242040, Note_on_c, 0, 51, 21
1, 242040, Note_on_c, 0, 54, 21
1, 242040, Note_on_c, 0, 57, 27
1, 242160, Note_on_c, 0, 57, 0
1, 242160, Note_on_c, 0, 51, 0
1, 242160, Note_on_c, 0, 78, 0
1, 242160, Note_on_c, 0, 66, 0
1, 242160, Note_on_c, 0, 54, 0
1, 242160, Note_on_c, 0, 83, 38
1, 242160, Note_on_c, 0, 71, 38
1, 242160, Note_on_c, 0, 47, 31
1, 242280, Note_on_c, 0, 47, 0
1, 242280, Note_on_c, 0, 51, 23
1, 242280, Note_on_c, 0, 54, 23
1, 242280, Note_on_c, 0, 57, 29
1, 242400, Tempo, 881057
1, 242400, Note_on_c, 0, 57, 0
1, 242400, Note_on_c, 0, 51, 0
1, 242400, Note_on_c, 0, 83, 0
1, 242400, Note_on_c, 0, 71, 0
1, 242400, Note_on_c, 0, 54, 0
1, 242400, Note_on_c, 0, 82, 46
1, 242400, Note_on_c, 0, 70, 46
1, 242400, Note_on_c, 0, 47, 31
1, 242409, Control_c, 0, 64, 0
1, 242485, Control_c, 0, 64, 127
1, 242520, Note_on_c, 0, 47, 0
1, 242520, Note_on_c, 0, 51, 21
1, 242520, Note_on_c, 0, 54, 21
1, 242520, Note_on_c, 0, 57, 27
1, 242640, Note_on_c, 0, 57, 0
1, 242640, Note_on_c, 0, 51, 0
1, 242640, Note_on_c, 0, 82, 0
1, 242640, Note_on_c, 0, 70, 0
1, 242640, Note_on_c, 0, 54, 0
1, 242640, Note_on_c, 0, 83, 40
1, 242640, Note_on_c, 0, 71, 40
1, 242640, Note_on_c, 0, 47, 31
1, 242760, Tempo, 887574
1, 242760, Note_on_c, 0, 47, 0
1, 242760, Note_on_c, 0, 51, 22
1, 242760, Note_on_c, 0, 54, 22
1, 242760, Note_on_c, 0, 57, 28
1, 242880, Tempo, 862069
1, 242880, Note_on_c, 0, 57, 0
1, 242880, Note_on_c, 0, 51, 0
1, 242880, Note_on_c, 0, 83, 0
1, 242880, Note_on_c, 0, 71, 0
1, 242880, Note_on_c, 0, 54, 0
1, 242880, Note_on_c, 0, 76, 49
1, 242880, Note_on_c, 0, 64, 49
1, 242880, Note_on_c, 0, 47, 31
1, 242887, Control_c, 0, 64, 0
1, 242965, Control_c, 0, 64, 127
1, 243000, Note_on_c, 0, 47, 0
1, 243000, Note_on_c, 0, 52, 21
1, 243000, Note_on_c, 0, 56, 27
1, 243120, Note_on_c, 0, 56, 0
1, 243120, Note_on_c, 0, 76, 0
1, 243120, Note_on_c, 0, 64, 0
1, 243120, Note_on_c, 0, 52, 0
1, 243120, Note_on_c, 0, 83, 38
1, 243120, Note_on_c, 0, 71, 38
1, 243120, Note_on_c, 0, 47, 31
1, 243240, Note_on_c, 0, 47, 0
1, 243240, Note_on_c, 0, 52, 23
1, 243240, Note_on_c, 0, 56, 29
1, 243360, Tempo, 874636
1, 243360, Note_on_c, 0, 56, 0
1, 243360, Note_on_c, 0, 83, 0
1, 243360, Note_on_c, 0, 71, 0
1, 243360, Note_on_c, 0, 52, 0
1, 243360, Note_on_c, 0, 82, 46
1, 243360, Note_on_c, 0, 70, 46
1, 243360, Note_on_c, 0, 47, 31
1, 243369, Control_c, 0, 64, 0
1, 243445, Control_c, 0, 64, 127
1, 243480, Note_on_c, 0, 47, 0
1, 243480, Note_on_c, 0, 52, 21
1, 243480, Note_on_c, 0, 56, 27
1, 243600, Note_on_c, 0, 56, 0
1, 243600, Note_on_c, 0, 82, 0
1, 243600, Note_on_c, 0, 70, 0
1, 243600, Note_on_c, 0, 52, 0
1, 243600, Note_on_c, 0, 83, 40
1, 243600, Note_on_c, 0, 71, 40
1, 243600, Note_on_c, 0, 47, 31
1, 243720, Tempo, 887574
1, 243720, Note_on_c, 0, 47, 0
1, 243720, Note_on_c, 0, 52, 22
1, 243720, Note_on_c, 0, 56, 28
1, 243840, Tempo, 855920
1, 243840, Note_on_c, 0, 56, 0
1, 243840, Note_on_c, 0, 83, 0
1, 243840, Note_on_c, 0, 71, 0
1, 243840, Note_on_c, 0, 52, 0
1, 243840, Note_on_c, 0, 54, 46
1, 243840, Note_on_c, 0, 47, 46
1, 243840, Control_c, 0, 64, 0
1, 243960, Note_on_c, 0, 75, 33
1, 244080, Note_on_c, 0, 75, 0
1, 244080, Note_on_c, 0, 83, 38
1, 244080, Note_on_c, 0, 59, 34
1, 244200, Note_on_c, 0, 83, 0
1, 244200, Note_on_c, 0, 81, 34
1, 244320, Tempo, 881057
1, 244320, Note_on_c, 0, 81, 0
1, 244320, Note_on_c, 0, 59, 0
1, 244320, Note_on_c, 0, 78, 39
1, 244320, Note_on_c, 0, 58, 43
1, 244440, Note_on_c, 0, 78, 0
1, 244440, Note_on_c, 0, 75, 32
1, 244560, Note_on_c, 0, 75, 0
1, 244560, Note_on_c, 0, 58, 0
1, 244560, Note_on_c, 0, 71, 37
1, 244560, Note_on_c, 0, 59, 35
1, 244680, Tempo, 928793
1, 244680, Note_on_c, 0, 71, 0
1, 244680, Note_on_c, 0, 69, 32
1, 244800, Tempo, 855920
1, 244800, Note_on_c, 0, 69, 0
1, 244800, Note_on_c, 0, 59, 0
1, 244800, Note_on_c, 0, 47, 0
1, 244800, Note_on_c, 0, 54, 0
1, 244800, Note_on_c, 0, 52, 46
1, 244800, Note_on_c, 0, 47, 46
1, 244800, Control_c, 0, 64, 0
1, 244871, Control_c, 0, 64, 127
1, 244920, Note_on_c, 0, 68, 33
1, 245040, Note_on_c, 0, 68, 0
1, 245040, Note_on_c, 0, 83, 38
1, 245040, Note_on_c, 0, 59, 34
1, 245160, Note_on_c, 0, 83, 0
1, 245160, Note_on_c, 0, 80, 34
1, 245280, Tempo, 881057
1, 245280, Note_on_c, 0, 80, 0
1, 245280, Note_on_c, 0, 59, 0
1, 245280, Note_on_c, 0, 76, 39
1, 245280, Note_on_c, 0, 58, 43
1, 245294, Control_c, 0, 64, 0
1, 245400, Note_on_c, 0, 76, 0
1, 245400, Note_on_c, 0, 71, 32
1, 245520, Note_on_c, 0, 71, 0
1, 245520, Note_on_c, 0, 58, 0
1, 245520, Note_on_c, 0, 69, 37
1, 245520, Note_on_c, 0, 59, 35
1, 245640, Tempo, 928793
1, 245640, Note_on_c, 0, 69, 0
1, 245640, Note_on_c, 0, 68, 32
1, 245760, Tempo, 862069
1, 245760, Note_on_c, 0, 68, 0
1, 245760, Note_on_c, 0, 59, 0
1, 245760, Note_on_c, 0, 47, 0
1, 245760, Note_on_c, 0, 52, 0
1, 245760, Note_on_c, 0, 78, 58
1, 245760, Note_on_c, 0, 66, 58
1, 245760, Note_on_c, 0, 47, 37
1, 245767, Control_c, 0, 64, 0
1, 245845, Control_c, 0, 64, 127
1, 245880, Note_on_c, 0, 47, 0
1, 245880, Note_on_c, 0, 51, 25
1, 245880, Note_on_c, 0, 54, 25
1, 245880, Note_on_c, 0, 57, 31
1, 246000, Note_on_c, 0, 57, 0
1, 246000, Note_on_c, 0, 51, 0
1, 246000, Note_on_c, 0, 78, 0
1, 246000, Note_on_c, 0, 66, 0
1, 246000, Note_on_c, 0, 54, 0
1, 246000, Note_on_c, 0, 83, 46
1, 246000, Note_on_c, 0, 71, 46
1, 246000, Note_on_c, 0, 47, 37
1, 246120, Note_on_c, 0, 47, 0
1, 246120, Note_on_c, 0, 51, 27
1, 246120, Note_on_c, 0, 54, 27
1, 246120, Note_on_c, 0, 57, 35
1, 246240, Tempo, 868307
1, 246240, Note_on_c, 0, 57, 0
1, 246240, Note_on_c, 0, 51, 0
1, 246240, Note_on_c, 0, 83, 0
1, 246240, Note_on_c, 0, 71, 0
1, 246240, Note_on_c, 0, 54, 0
1, 246240, Note_on_c, 0, 82, 58
1, 246240, Note_on_c, 0, 70, 58
1, 246240, Note_on_c, 0, 47, 39
1, 246249, Control_c, 0, 64, 0
1, 246325, Control_c, 0, 64, 127
1, 246360, Note_on_c, 0, 47, 0
1, 246360, Note_on_c, 0, 51, 27
1, 246360, Note_on_c, 0, 54, 27
1, 246360, Note_on_c, 0, 57, 35
1, 246480, Note_on_c, 0, 57, 0
1, 246480, Note_on_c, 0, 51, 0
1, 246480, Note_on_c, 0, 82, 0
1, 246480, Note_on_c, 0, 70, 0
1, 246480, Note_on_c, 0, 54, 0
1, 246480, Note_on_c, 0, 83, 51
1, 246480, Note_on_c, 0, 71, 51
1, 246480, Note_on_c, 0, 47, 40
1, 246600, Tempo, 855920
1, 246600, Note_on_c, 0, 47, 0
1, 246600, Note_on_c, 0, 51, 28
1, 246600, Note_on_c, 0, 54, 28
1, 246600, Note_on_c, 0, 57, 37
1, 246720, Tempo, 862069
1, 246720, Note_on_c, 0, 57, 0
1, 246720, Note_on_c, 0, 51, 0
1, 246720, Note_on_c, 0, 83, 0
1, 246720, Note_on_c, 0, 71, 0
1, 246720, Note_on_c, 0, 54, 0
1, 246720, Note_on_c, 0, 65, 70
1, 246720, Note_on_c, 0, 77, 70
1, 246720, Note_on_c, 0, 47, 48
1, 246727, Control_c, 0, 64, 0
1, 246805, Control_c, 0, 64, 127
1, 246840, Note_on_c, 0, 47, 0
1, 246840, Note_on_c, 0, 50, 32
1, 246840, Note_on_c, 0, 53, 32
1, 246840, Note_on_c, 0, 56, 41
1, 246960, Note_on_c, 0, 56, 0
1, 246960, Note_on_c, 0, 50, 0
1, 246960, Note_on_c, 0, 65, 0
1, 246960, Note_on_c, 0, 77, 0
1, 246960, Note_on_c, 0, 53, 0
1, 246960, Note_on_c, 0, 74, 64
1, 246960, Note_on_c, 0, 86, 64
1, 246960, Note_on_c, 0, 47, 48
1, 247080, Note_on_c, 0, 47, 0
1, 247080, Note_on_c, 0, 50, 37
1, 247080, Note_on_c, 0, 53, 37
1, 247080, Note_on_c, 0, 56, 46
1, 247200, Tempo, 862069
1, 247200, Note_on_c, 0, 56, 0
1, 247200, Note_on_c, 0, 50, 0
1, 247200, Note_on_c, 0, 74, 0
1, 247200, Note_on_c, 0, 86, 0
1, 247200, Note_on_c, 0, 53, 0
1, 247200, Note_on_c, 0, 73, 74
1, 247200, Note_on_c, 0, 85, 74
1, 247200, Note_on_c, 0, 47, 50
1, 247209, Control_c, 0, 64, 0
1, 247260, Control_c, 0, 64, 127
1, 247320, Note_on_c, 0, 47, 0
1, 247320, Note_on_c, 0, 50, 34
1, 247320, Note_on_c, 0, 53, 34
1, 247320, Note_on_c, 0, 56, 46
1, 247440, Note_on_c, 0, 56, 0
1, 247440, Note_on_c, 0, 50, 0
1, 247440, Note_on_c, 0, 73, 0
1, 247440, Note_on_c, 0, 85, 0
1, 247440, Note_on_c, 0, 53, 0
1, 247440, Note_on_c, 0, 74, 69
1, 247440, Note_on_c, 0, 86, 69
1, 247440, Note_on_c, 0, 47, 51
1, 247560, Tempo, 887574
1, 247560, Note_on_c, 0, 47, 0
1, 247560, Note_on_c, 0, 50, 38
1, 247560, Note_on_c, 0, 53, 38
1, 247560, Note_on_c, 0, 56, 47
1, 247680, Note_on_c, 0, 56, 0
1, 247680, Note_on_c, 0, 50, 0
1, 247680, Note_on_c, 0, 74, 0
1, 247680, Note_on_c, 0, 86, 0
1, 247680, Note_on_c, 0, 53, 0
1, 247680, Note_on_c, 0, 85, 79
1, 247680, Note_on_c, 0, 45, 51
1, 247680, Control_c, 0, 64, 0
1, 247772, Control_c, 0, 64, 127
1, 247800, Note_on_c, 0, 45, 0
1, 247800, Note_on_c, 0, 54, 42
1, 247800, Note_on_c, 0, 49, 34
1, 247920, Note_on_c, 0, 49, 0
1, 247920, Note_on_c, 0, 54, 0
1, 247920, Note_on_c, 0, 85, 0
1, 247920, Note_on_c, 0, 78, 67
1, 247920, Note_on_c, 0, 45, 49
1, 248040, Note_on_c, 0, 45, 0
1, 248040, Note_on_c, 0, 49, 35
1, 248040, Note_on_c, 0, 54, 42
1, 248160, Note_on_c, 0, 54, 0
1, 248160, Note_on_c, 0, 49, 0
1, 248160, Note_on_c, 0, 78, 0
1, 248160, Note_on_c, 0, 81, 77
1, 248160, Note_on_c, 0, 45, 52
1, 248280, Note_on_c, 0, 45, 0
1, 248280, Note_on_c, 0, 54, 43
1, 248280, Note_on_c, 0, 49, 35
1, 248400, Note_on_c, 0, 49, 0
1, 248400, Note_on_c, 0, 54, 0
1, 248400, Note_on_c, 0, 81, 0
1, 248400, Note_on_c, 0, 73, 68
1, 248400, Note_on_c, 0, 45, 49
1, 248520, Note_on_c, 0, 45, 0
1, 248520, Note_on_c, 0, 49, 38
1, 248520, Note_on_c, 0, 54, 45
1, 248640, Note_on_c, 0, 54, 0
1, 248640, Note_on_c, 0, 49, 0
1, 248640, Note_on_c, 0, 73, 0
1, 248640, Note_on_c, 0, 78, 59
1, 248640, Note_on_c, 0, 46, 43
1, 248647, Control_c, 0, 64, 0
1, 248697, Control_c, 0, 64, 127
1, 248760, Note_on_c, 0, 46, 0
1, 248760, Note_on_c, 0, 54, 35
1, 248760, Note_on_c, 0, 52, 29
1, 248760, Note_on_c, 0, 49, 29
1, 248880, Note_on_c, 0, 49, 0
1, 248880, Note_on_c, 0, 78, 0
1, 248880, Note_on_c, 0, 54, 0
1, 248880, Note_on_c, 0, 52, 0
1, 248880, Note_on_c, 0, 73, 54
1, 248880, Note_on_c, 0, 46, 40
1, 249000, Note_on_c, 0, 46, 0
1, 249000, Note_on_c, 0, 54, 34
1, 249000, Note_on_c, 0, 52, 28
1, 249000, Note_on_c, 0, 49, 28
1, 249120, Note_on_c, 0, 49, 0
1, 249120, Note_on_c, 0, 73, 0
1, 249120, Note_on_c, 0, 54, 0
1, 249120, Note_on_c, 0, 52, 0
1, 249120, Note_on_c, 0, 76, 59
1, 249120, Note_on_c, 0, 46, 43
1, 249240, Note_on_c, 0, 46, 0
1, 249240, Note_on_c, 0, 54, 34
1, 249240, Note_on_c, 0, 52, 28
1, 249240, Note_on_c, 0, 49, 28
1, 249360, Note_on_c, 0, 49, 0
1, 249360, Note_on_c, 0, 76, 0
1, 249360, Note_on_c, 0, 54, 0
1, 249360, Note_on_c, 0, 52, 0
1, 249360, Note_on_c, 0, 66, 45
1, 249360, Note_on_c, 0, 46, 39
1, 249480, Note_on_c, 0, 46, 0
1, 249480, Note_on_c, 0, 54, 33
1, 249480, Note_on_c, 0, 52, 28
1, 249480, Note_on_c, 0, 49, 28
1, 249600, Note_on_c, 0, 49, 0
1, 249600, Note_on_c, 0, 66, 0
1, 249600, Note_on_c, 0, 54, 0
1, 249600, Note_on_c, 0, 52, 0
1, 249600, Note_on_c, 0, 71, 51
1, 249600, Note_on_c, 0, 47, 38
1, 249611, Control_c, 0, 64, 0
1, 249664, Control_c, 0, 64, 127
1, 249720, Note_on_c, 0, 47, 0
1, 249720, Note_on_c, 0, 52, 25
1, 249720, Note_on_c, 0, 56, 30
1, 249840, Note_on_c, 0, 56, 0
1, 249840, Note_on_c, 0, 52, 0
1, 249840, Note_on_c, 0, 71, 0
1, 249840, Note_on_c, 0, 68, 38
1, 249840, Note_on_c, 0, 47, 35
1, 249960, Note_on_c, 0, 47, 0
1, 249960, Note_on_c, 0, 56, 26
1, 249960, Note_on_c, 0, 52, 22
1, 250080, Note_on_c, 0, 52, 0
1, 250080, Note_on_c, 0, 56, 0
1, 250080, Note_on_c, 0, 68, 0
1, 250080, Note_on_c, 0, 71, 47
1, 250080, Note_on_c, 0, 47, 32
1, 250200, Note_on_c, 0, 47, 0
1, 250200, Note_on_c, 0, 52, 21
1, 250200, Note_on_c, 0, 56, 25
1, 250320, Tempo, 958466
1, 250320, Note_on_c, 0, 56, 0
1, 250320, Note_on_c, 0, 52, 0
1, 250320, Note_on_c, 0, 71, 0
1, 250320, Note_on_c, 0, 64, 30
1, 250320, Note_on_c, 0, 47, 32
1, 250440, Note_on_c, 0, 47, 0
1, 250440, Note_on_c, 0, 56, 25
1, 250440, Note_on_c, 0, 52, 21
1, 250560, Tempo, 907716
1, 250560, Note_on_c, 0, 52, 0
1, 250560, Note_on_c, 0, 56, 0
1, 250560, Note_on_c, 0, 64, 0
1, 250560, Note_on_c, 0, 63, 42
1, 250560, Note_on_c, 0, 47, 32
1, 250569, Control_c, 0, 64, 0
1, 250638, Control_c, 0, 64, 127
1, 250680, Note_on_c, 0, 47, 0
1, 250680, Note_on_c, 0, 54, 25
1, 250800, Note_on_c, 0, 54, 0
1, 250800, Note_on_c, 0, 63, 0
1, 250800, Note_on_c, 0, 71, 34
1, 250800, Note_on_c, 0, 47, 32
1, 250920, Note_on_c, 0, 47, 0
1, 250920, Note_on_c, 0, 51, 26
1, 251040, Tempo, 936037
1, 251040, Note_on_c, 0, 51, 0
1, 251040, Note_on_c, 0, 71, 0
1, 251040, Note_on_c, 0, 66, 41
1, 251040, Note_on_c, 0, 63, 34
1, 251040, Note_on_c, 0, 47, 32
1, 251160, Note_on_c, 0, 47, 0
1, 251160, Note_on_c, 0, 59, 26
1, 251280, Tempo, 1006711
1, 251280, Note_on_c, 0, 59, 0
1, 251280, Note_on_c, 0, 63, 0
1, 251280, Note_on_c, 0, 66, 0
1, 251280, Note_on_c, 0, 71, 34
1, 251280, Note_on_c, 0, 63, 28
1, 251280, Note_on_c, 0, 47, 32
1, 251400, Note_on_c, 0, 47, 0
1, 251400, Note_on_c, 0, 59, 27
1, 251510, Note_on_c, 0, 59, 0
1, 251520, Tempo, 862069
1, 251520, Note_on_c, 0, 63, 0
1, 251520, Note_on_c, 0, 71, 0
1, 251520, Note_on_c, 0, 59, 50
1, 251532, Control_c, 0, 64, 0
1, 251595, Control_c, 0, 64, 127
1, 251640, Note_on_c, 0, 62, 49
1, 251760, Tempo, 837989
1, 251760, Note_on_c, 0, 62, 0
1, 251760, Note_on_c, 0, 68, 57
1, 251880, Note_on_c, 0, 68, 0
1, 251880, Note_on_c, 0, 65, 50
1, 252000, Note_on_c, 0, 65, 0
1, 252000, Note_on_c, 0, 59, 0
1, 252000, Note_on_c, 0, 57, 56
1, 252010, Control_c, 0, 64, 0
1, 252052, Control_c, 0, 64, 127
1, 252120, Note_on_c, 0, 61, 53
1, 252240, Note_on_c, 0, 61, 0
1, 252240, Note_on_c, 0, 69, 60
1, 252360, Note_on_c, 0, 69, 0
1, 252360, Note_on_c, 0, 66, 55
1, 252480, Tempo, 820793
1, 252480, Note_on_c, 0, 66, 0
1, 252480, Note_on_c, 0, 57, 0
1, 252480, Note_on_c, 0, 56, 64
1, 252480, Note_on_c, 0, 59, 64
1, 252489, Control_c, 0, 64, 0
1, 252558, Control_c, 0, 64, 127
1, 252600, Note_on_c, 0, 71, 65
1, 252720, Note_on_c, 0, 71, 0
1, 252720, Note_on_c, 0, 83, 71
1, 252840, Note_on_c, 0, 83, 0
1, 252840, Note_on_c, 0, 80, 67
1, 252960, Note_on_c, 0, 80, 0
1, 252960, Note_on_c, 0, 59, 0
1, 252960, Note_on_c, 0, 56, 0
1, 252960, Note_on_c, 0, 54, 70
1, 252960, Note_on_c, 0, 57, 70
1, 252969, Control_c, 0, 64, 0
1, 253031, Control_c, 0, 64, 127
1, 253080, Note_on_c, 0, 73, 70
1, 253200, Note_on_c, 0, 73, 0
1, 253200, Note_on_c, 0, 85, 81
1, 253320, Note_on_c, 0, 85, 0
1, 253320, Note_on_c, 0, 81, 76
1, 253440, Tempo, 815217
1, 253440, Note_on_c, 0, 81, 0
1, 253440, Note_on_c, 0, 57, 0
1, 253440, Note_on_c, 0, 54, 0
1, 253440, Note_on_c, 0, 56, 80
1, 253440, Note_on_c, 0, 53, 80
1, 253447, Control_c, 0, 64, 0
1, 253509, Control_c, 0, 64, 127
1, 253560, Note_on_c, 0, 74, 91
1, 253680, Note_on_c, 0, 74, 0
1, 253680, Note_on_c, 0, 53, 0
1, 253680, Note_on_c, 0, 56, 0
1, 253680, Note_on_c, 0, 86, 97
1, 253800, Note_on_c, 0, 86, 0
1, 253800, Note_on_c, 0, 83, 89
1, 253920, Note_on_c, 0, 83, 0
1, 253920, Note_on_c, 0, 56, 81
1, 253920, Note_on_c, 0, 53, 81
1, 253932, Control_c, 0, 64, 0
1, 253989, Control_c, 0, 64, 127
1, 254040, Note_on_c, 0, 73, 89
1, 254160, Note_on_c, 0, 73, 0
1, 254160, Note_on_c, 0, 53, 0
1, 254160, Note_on_c, 0, 56, 0
1, 254160, Note_on_c, 0, 85, 98
1, 254280, Note_on_c, 0, 85, 0
1, 254280, Note_on_c, 0, 83, 91
1, 254400, Tempo, 849858
1, 254400, Note_on_c, 0, 83, 0
1, 254400, Control_c, 0, 64, 0
1, 255120, Note_on_c, 0, 61, 45
1, 255240, Note_on_c, 0, 61, 0
1, 255240, Note_on_c, 0, 63, 41
1, 255360, Tempo, 832178
1, 255360, Note_on_c, 0, 63, 0
1, 255360, Note_on_c, 0, 64, 47
1, 255360, Note_on_c, 0, 58, 40
1, 255600, Tempo, 826446
1, 255600, Note_on_c, 0, 64, 0
1, 255600, Note_on_c, 0, 67, 50
1, 255840, Note_on_c, 0, 67, 0
1, 255840, Note_on_c, 0, 66, 46
1, 256080, Note_on_c, 0, 66, 0
1, 256080, Note_on_c, 0, 61, 46
1, 256320, Tempo, 855920
1, 256320, Note_on_c, 0, 61, 0
1, 256320, Note_on_c, 0, 58, 0
1, 256320, Note_on_c, 0, 78, 48
1, 256320, Note_on_c, 0, 63, 48
1, 256320, Note_on_c, 0, 59, 40
1, 256560, Tempo, 826446
1, 256560, Note_on_c, 0, 78, 0
1, 256560, Note_on_c, 0, 85, 55
1, 256800, Note_on_c, 0, 85, 0
1, 256800, Note_on_c, 0, 83, 49
1, 257040, Note_on_c, 0, 83, 0
1, 257040, Note_on_c, 0, 78, 48
1, 257280, Tempo, 855920
1, 257280, Note_on_c, 0, 78, 0
1, 257280, Note_on_c, 0, 81, 50
1, 257520, Note_on_c, 0, 63, 0
1, 257520, Note_on_c, 0, 66, 40
1, 257640, Tempo, 826446
1, 257760, Note_on_c, 0, 66, 0
1, 257760, Note_on_c, 0, 64, 43
1, 258000, Note_on_c, 0, 64, 0
1, 258000, Note_on_c, 0, 61, 40
1, 258240, Tempo, 843882
1, 258240, Note_on_c, 0, 61, 0
1, 258240, Note_on_c, 0, 64, 42
1, 258480, Tempo, 815217
1, 258480, Note_on_c, 0, 81, 0
1, 258480, Note_on_c, 0, 81, 48
1, 258720, Note_on_c, 0, 81, 0
1, 258720, Note_on_c, 0, 80, 47
1, 258960, Note_on_c, 0, 80, 0
1, 258960, Note_on_c, 0, 76, 43
1, 259200, Tempo, 843882
1, 259200, Note_on_c, 0, 76, 0
1, 259200, Note_on_c, 0, 80, 50
1, 259440, Tempo, 826446
1, 259440, Note_on_c, 0, 64, 0
1, 259440, Note_on_c, 0, 64, 38
1, 259680, Note_on_c, 0, 64, 0
1, 259680, Note_on_c, 0, 63, 41
1, 259910, Note_on_c, 0, 59, 0
1, 259920, Note_on_c, 0, 63, 0
1, 259920, Note_on_c, 0, 59, 39
1, 260160, Tempo, 837989
1, 260160, Note_on_c, 0, 59, 0
1, 260160, Note_on_c, 0, 63, 41
1, 260280, Tempo, 820793
1, 260400, Note_on_c, 0, 63, 0
1, 260400, Note_on_c, 0, 80, 0
1, 260400, Note_on_c, 0, 76, 34
1, 260400, Note_on_c, 0, 80, 40
1, 260400, Note_on_c, 0, 58, 32
1, 260640, Note_on_c, 0, 58, 0
1, 260640, Note_on_c, 0, 80, 0
1, 260640, Note_on_c, 0, 76, 0
1, 260640, Note_on_c, 0, 78, 42
1, 260640, Note_on_c, 0, 75, 35
1, 260640, Note_on_c, 0, 59, 36
1, 260880, Tempo, 868307
1, 260880, Note_on_c, 0, 59, 0
1, 260880, Note_on_c, 0, 75, 0
1, 260880, Note_on_c, 0, 78, 0
1, 260880, Note_on_c, 0, 71, 34
1, 260880, Note_on_c, 0, 75, 40
1, 260880, Note_on_c, 0, 63, 32
1, 261120, Tempo, 837989
1, 261120, Note_on_c, 0, 63, 0
1, 261120, Note_on_c, 0, 75, 0
1, 261120, Note_on_c, 0, 71, 0
1, 261120, Note_on_c, 0, 75, 40
1, 261120, Note_on_c, 0, 78, 48
1, 261120, Note_on_c, 0, 59, 38
1, 261348, Note_on_c, 0, 59, 0
1, 261348, Note_on_c, 0, 78, 0
1, 261348, Note_on_c, 0, 75, 0
1, 261360, Tempo, 820793
1, 261360, Note_on_c, 0, 72, 34
1, 261360, Note_on_c, 0, 78, 40
1, 261360, Note_on_c, 0, 56, 30
1, 261600, Note_on_c, 0, 56, 0
1, 261600, Note_on_c, 0, 78, 0
1, 261600, Note_on_c, 0, 72, 0
1, 261600, Note_on_c, 0, 76, 42
1, 261600, Note_on_c, 0, 73, 35
1, 261600, Note_on_c, 0, 57, 34
1, 261840, Tempo, 837989
1, 261840, Note_on_c, 0, 57, 0
1, 261840, Note_on_c, 0, 73, 0
1, 261840, Note_on_c, 0, 76, 0
1, 261840, Note_on_c, 0, 69, 33
1, 261840, Note_on_c, 0, 73, 39
1, 261840, Note_on_c, 0, 61, 31
1, 262080, Tempo, 832178
1, 262080, Note_on_c, 0, 61, 0
1, 262080, Note_on_c, 0, 73, 0
1, 262080, Note_on_c, 0, 69, 0
1, 262080, Note_on_c, 0, 73, 40
1, 262080, Note_on_c, 0, 76, 48
1, 262080, Note_on_c, 0, 57, 38
1, 262308, Note_on_c, 0, 57, 0
1, 262308, Note_on_c, 0, 76, 0
1, 262308, Note_on_c, 0, 73, 0
1, 262320, Tempo, 820793
1, 262320, Note_on_c, 0, 70, 34
1, 262320, Note_on_c, 0, 76, 40
1, 262320, Note_on_c, 0, 55, 31
1, 262560, Note_on_c, 0, 55, 0
1, 262560, Note_on_c, 0, 76, 0
1, 262560, Note_on_c, 0, 70, 0
1, 262560, Note_on_c, 0, 75, 45
1, 262560, Note_on_c, 0, 71, 38
1, 262560, Note_on_c, 0, 47, 35
1, 262560, Note_on_c, 0, 56, 35
1, 262800, Tempo, 855920
1, 262800, Note_on_c, 0, 56, 0
1, 262800, Note_on_c, 0, 75, 0
1, 262800, Note_on_c, 0, 71, 0
1, 262800, Note_on_c, 0, 47, 0
1, 262800, Note_on_c, 0, 68, 34
1, 262800, Note_on_c, 0, 71, 41
1, 262800, Note_on_c, 0, 59, 32
1, 263040, Tempo, 826446
1, 263040, Note_on_c, 0, 59, 0
1, 263040, Note_on_c, 0, 71, 0
1, 263040, Note_on_c, 0, 68, 0
1, 263040, Note_on_c, 0, 71, 40
1, 263040, Note_on_c, 0, 74, 48
1, 263040, Note_on_c, 0, 56, 36
1, 263268, Note_on_c, 0, 56, 0
1, 263268, Note_on_c, 0, 74, 0
1, 263268, Note_on_c, 0, 71, 0
1, 263280, Note_on_c, 0, 68, 32
1, 263280, Note_on_c, 0, 74, 38
1, 263280, Note_on_c, 0, 53, 30
1, 263400, Tempo, 815217
1, 263520, Note_on_c, 0, 53, 0
1, 263520, Note_on_c, 0, 74, 0
1, 263520, Note_on_c, 0, 68, 0
1, 263520, Note_on_c, 0, 73, 43
1, 263520, Note_on_c, 0, 69, 36
1, 263520, Note_on_c, 0, 47, 30
1, 263520, Note_on_c, 0, 54, 36
1, 263760, Tempo, 855920
1, 263760, Note_on_c, 0, 54, 0
1, 263760, Note_on_c, 0, 73, 0
1, 263760, Note_on_c, 0, 69, 0
1, 263760, Note_on_c, 0, 47, 0
1, 263760, Note_on_c, 0, 63, 33
1, 263760, Note_on_c, 0, 72, 39
1, 263760, Note_on_c, 0, 57, 33
1, 263760, Note_on_c, 0, 47, 28
1, 264000, Tempo, 826446
1, 264000, Note_on_c, 0, 57, 0
1, 264000, Note_on_c, 0, 63, 0
1, 264000, Note_on_c, 0, 72, 0
1, 264000, Note_on_c, 0, 71, 56
1, 264000, Note_on_c, 0, 64, 47
1, 264000, Note_on_c, 0, 56, 49
1, 264240, Tempo, 809717
1, 264240, Note_on_c, 0, 56, 0
1, 264240, Note_on_c, 0, 47, 0
1, 264240, Note_on_c, 0, 71, 0
1, 264240, Note_on_c, 0, 64, 0
1, 264240, Note_on_c, 0, 61, 44
1, 264240, Note_on_c, 0, 71, 54
1, 264240, Note_on_c, 0, 47, 39
1, 264240, Note_on_c, 0, 52, 46
1, 264480, Tempo, 887574
1, 264480, Note_on_c, 0, 52, 0
1, 264480, Note_on_c, 0, 61, 0
1, 264480, Note_on_c, 0, 71, 0
1, 264480, Note_on_c, 0, 69, 60
1, 264480, Note_on_c, 0, 63, 50
1, 264480, Note_on_c, 0, 54, 52
1, 264600, Note_on_c, 0, 54, 0
1, 264600, Note_on_c, 0, 63, 0
1, 264600, Note_on_c, 0, 69, 0
1, 264600, Note_on_c, 0, 66, 53
1, 264600, Note_on_c, 0, 57, 50
1, 264720, Tempo, 849858
1, 264720, Note_on_c, 0, 57, 0
1, 264720, Note_on_c, 0, 66, 0
1, 264720, Note_on_c, 0, 47, 0
1, 264720, Note_on_c, 0, 64, 42
1, 264720, Note_on_c, 0, 56, 45
1, 264720, Note_on_c, 0, 47, 37
1, 264840, Tempo, 921659
1, 264840, Note_on_c, 0, 56, 0
1, 264840, Note_on_c, 0, 64, 0
1, 264840, Note_on_c, 0, 66, 38
1, 264840, Note_on_c, 0, 54, 40
1, 264960, Tempo, 849858
1, 264960, Note_on_c, 0, 54, 0
1, 264960, Note_on_c, 0, 66, 0
1, 264960, Note_on_c, 0, 47, 0
1, 264960, Note_on_c, 0, 68, 45
1, 264960, Note_on_c, 0, 64, 45
1, 264960, Note_on_c, 0, 40, 25
1, 264960, Note_on_c, 0, 52, 30
1, 265038, Control_c, 0, 64, 127
1, 265080, Note_on_c, 0, 64, 0
1, 265080, Note_on_c, 0, 59, 26
1, 265200, Note_on_c, 0, 59, 0
1, 265200, Note_on_c, 0, 52, 0
1, 265200, Note_on_c, 0, 40, 0
1, 265200, Note_on_c, 0, 64, 31
1, 265320, Note_on_c, 0, 64, 0
1, 265320, Note_on_c, 0, 59, 26
1, 265440, Tempo, 837989
1, 265440, Note_on_c, 0, 59, 0
1, 265440, Note_on_c, 0, 68, 0
1, 265440, Note_on_c, 0, 68, 30
1, 265440, Note_on_c, 0, 71, 46
1, 265456, Control_c, 0, 64, 0
1, 265539, Control_c, 0, 64, 127
1, 265560, Note_on_c, 0, 68, 0
1, 265560, Note_on_c, 0, 59, 27
1, 265680, Tempo, 855920
1, 265680, Note_on_c, 0, 59, 0
1, 265680, Note_on_c, 0, 71, 0
1, 265680, Note_on_c, 0, 66, 28
1, 265680, Note_on_c, 0, 69, 43
1, 265693, Control_c, 0, 64, 0
1, 265744, Control_c, 0, 64, 127
1, 265800, Tempo, 881057
1, 265800, Note_on_c, 0, 66, 0
1, 265800, Note_on_c, 0, 59, 27
1, 265920, Tempo, 868307
1, 265920, Note_on_c, 0, 59, 0
1, 265920, Note_on_c, 0, 69, 0
1, 265920, Note_on_c, 0, 64, 34
1, 265920, Note_on_c, 0, 68, 50
1, 265920, Note_on_c, 0, 35, 25
1, 265920, Note_on_c, 0, 47, 30
1, 265920, Control_c, 0, 64, 0
1, 265984, Control_c, 0, 64, 127
1, 266040, Note_on_c, 0, 64, 0
1, 266040, Note_on_c, 0, 59, 26
1, 266160, Tempo, 849858
1, 266160, Note_on_c, 0, 59, 0
1, 266160, Note_on_c, 0, 47, 0
1, 266160, Note_on_c, 0, 35, 0
1, 266160, Note_on_c, 0, 68, 0
1, 266160, Note_on_c, 0, 63, 27
1, 266160, Note_on_c, 0, 66, 41
1, 266174, Control_c, 0, 64, 0
1, 266217, Control_c, 0, 64, 127
1, 266280, Note_on_c, 0, 63, 0
1, 266280, Note_on_c, 0, 59, 25
1, 266370, Note_on_c, 0, 59, 0
1, 266370, Note_on_c, 0, 66, 0
1, 266370, Control_c, 0, 64, 0
1, 266400, Note_on_c, 0, 63, 27
1, 266400, Note_on_c, 0, 66, 41
1, 266464, Control_c, 0, 64, 127
1, 266520, Note_on_c, 0, 63, 0
1, 266520, Note_on_c, 0, 59, 26
1, 266640, Tempo, 832178
1, 266640, Note_on_c, 0, 59, 0
1, 266640, Note_on_c, 0, 66, 0
1, 266640, Note_on_c, 0, 64, 28
1, 266640, Note_on_c, 0, 68, 43
1, 266658, Control_c, 0, 64, 0
1, 266725, Control_c, 0, 64, 127
1, 266760, Note_on_c, 0, 64, 0
1, 266760, Note_on_c, 0, 59, 28
1, 266880, Tempo, 849858
1, 266880, Note_on_c, 0, 59, 0
1, 266880, Note_on_c, 0, 68, 0
1, 266880, Note_on_c, 0, 64, 30
1, 266880, Note_on_c, 0, 69, 46
1, 266880, Note_on_c, 0, 37, 25
1, 266880, Note_on_c, 0, 49, 30
1, 266890, Control_c, 0, 64, 0
1, 266965, Control_c, 0, 64, 127
1, 267000, Note_on_c, 0, 64, 0
1, 267000, Note_on_c, 0, 59, 28
1, 267120, Note_on_c, 0, 59, 0
1, 267120, Note_on_c, 0, 49, 0
1, 267120, Note_on_c, 0, 37, 0
1, 267120, Note_on_c, 0, 69, 0
1, 267120, Note_on_c, 0, 64, 36
1, 267120, Note_on_c, 0, 73, 54
1, 267240, Note_on_c, 0, 64, 0
1, 267240, Note_on_c, 0, 59, 31
1, 267360, Note_on_c, 0, 59, 0
1, 267360, Note_on_c, 0, 73, 0
1, 267360, Note_on_c, 0, 66, 37
1, 267360, Note_on_c, 0, 71, 47
1, 267360, Note_on_c, 0, 51, 28
1, 267360, Note_on_c, 0, 39, 23
1, 267376, Control_c, 0, 64, 0
1, 267438, Control_c, 0, 64, 127
1, 267480, Note_on_c, 0, 66, 0
1, 267480, Note_on_c, 0, 59, 26
1, 267600, Tempo, 868307
1, 267600, Note_on_c, 0, 59, 0
1, 267600, Note_on_c, 0, 39, 0
1, 267600, Note_on_c, 0, 51, 0
1, 267600, Note_on_c, 0, 71, 0
1, 267600, Note_on_c, 0, 63, 25
1, 267600, Note_on_c, 0, 66, 38
1, 267600, Note_on_c, 0, 47, 26
1, 267600, Note_on_c, 0, 35, 22
1, 267720, Tempo, 1006711
1, 267720, Note_on_c, 0, 63, 0
1, 267720, Note_on_c, 0, 59, 27
1, 267840, Tempo, 849858
1, 267840, Note_on_c, 0, 59, 0
1, 267840, Note_on_c, 0, 35, 0
1, 267840, Note_on_c, 0, 47, 0
1, 267840, Note_on_c, 0, 66, 0
1, 267840, Note_on_c, 0, 59, 30
1, 267840, Note_on_c, 0, 68, 42
1, 267840, Note_on_c, 0, 40, 28
1, 267840, Note_on_c, 0, 52, 28
1, 267848, Control_c, 0, 64, 0
1, 267925, Control_c, 0, 64, 127
1, 267950, Note_on_c, 0, 59, 0
1, 267960, Note_on_c, 0, 59, 28
1, 268080, Note_on_c, 0, 59, 0
1, 268080, Note_on_c, 0, 64, 36
1, 268200, Note_on_c, 0, 64, 0
1, 268200, Note_on_c, 0, 59, 31
1, 268320, Note_on_c, 0, 59, 0
1, 268320, Note_on_c, 0, 52, 0
1, 268320, Note_on_c, 0, 40, 0
1, 268320, Note_on_c, 0, 68, 0
1, 268320, Note_on_c, 0, 64, 37
1, 268440, Note_on_c, 0, 64, 0
1, 268440, Note_on_c, 0, 59, 31
1, 268560, Tempo, 832178
1, 268560, Note_on_c, 0, 59, 0
1, 268560, Note_on_c, 0, 64, 28
1, 268560, Note_on_c, 0, 68, 43
1, 268560, Note_on_c, 0, 47, 26
1, 268578, Control_c, 0, 64, 0
1, 268645, Control_c, 0, 64, 127
1, 268680, Note_on_c, 0, 64, 0
1, 268680, Note_on_c, 0, 59, 28
1, 268800, Tempo, 849858
1, 268800, Note_on_c, 0, 59, 0
1, 268800, Note_on_c, 0, 47, 0
1, 268800, Note_on_c, 0, 68, 0
1, 268800, Note_on_c, 0, 64, 30
1, 268800, Note_on_c, 0, 69, 46
1, 268800, Note_on_c, 0, 49, 30
1, 268810, Control_c, 0, 64, 0
1, 268885, Control_c, 0, 64, 127
1, 268920, Note_on_c, 0, 64, 0
1, 268920, Note_on_c, 0, 59, 28
1, 269040, Note_on_c, 0, 59, 0
1, 269040, Note_on_c, 0, 69, 0
1, 269040, Note_on_c, 0, 64, 36
1, 269040, Note_on_c, 0, 73, 54
1, 269160, Note_on_c, 0, 64, 0
1, 269160, Note_on_c, 0, 59, 31
1, 269280, Note_on_c, 0, 59, 0
1, 269280, Note_on_c, 0, 73, 0
1, 269280, Note_on_c, 0, 49, 0
1, 269280, Note_on_c, 0, 66, 37
1, 269280, Note_on_c, 0, 71, 47
1, 269280, Note_on_c, 0, 51, 28
1, 269296, Control_c, 0, 64, 0
1, 269358, Control_c, 0, 64, 127
1, 269400, Note_on_c, 0, 66, 0
1, 269400, Note_on_c, 0, 59, 26
1, 269520, Tempo, 868307
1, 269520, Note_on_c, 0, 59, 0
1, 269520, Note_on_c, 0, 51, 0
1, 269520, Note_on_c, 0, 71, 0
1, 269520, Note_on_c, 0, 63, 25
1, 269520, Note_on_c, 0, 66, 38
1, 269520, Note_on_c, 0, 57, 26
1, 269520, Note_on_c, 0, 47, 22
1, 269640, Tempo, 1006711
1, 269640, Note_on_c, 0, 63, 0
1, 269640, Note_on_c, 0, 59, 27
1, 269760, Tempo, 849858
1, 269760, Note_on_c, 0, 59, 0
1, 269760, Note_on_c, 0, 47, 0
1, 269760, Note_on_c, 0, 57, 0
1, 269760, Note_on_c, 0, 66, 0
1, 269760, Note_on_c, 0, 59, 35
1, 269760, Note_on_c, 0, 64, 35
1, 269760, Note_on_c, 0, 68, 42
1, 269760, Note_on_c, 0, 52, 28
1, 269760, Note_on_c, 0, 56, 33
1, 269768, Control_c, 0, 64, 0
1, 269823, Control_c, 0, 64, 127
1, 269880, Note_on_c, 0, 56, 0
1, 269880, Note_on_c, 0, 52, 0
1, 269880, Note_on_c, 0, 47, 27
1, 270000, Note_on_c, 0, 47, 0
1, 270000, Note_on_c, 0, 52, 28
1, 270000, Note_on_c, 0, 56, 33
1, 270120, Note_on_c, 0, 56, 0
1, 270120, Note_on_c, 0, 52, 0
1, 270120, Note_on_c, 0, 47, 30
1, 270240, Note_on_c, 0, 47, 0
1, 270240, Note_on_c, 0, 68, 0
1, 270240, Note_on_c, 0, 64, 0
1, 270240, Note_on_c, 0, 59, 0
1, 270240, Note_on_c, 0, 56, 31
1, 270240, Note_on_c, 0, 52, 26
1, 270360, Note_on_c, 0, 52, 0
1, 270360, Note_on_c, 0, 56, 0
1, 270360, Note_on_c, 0, 47, 26
1, 270480, Tempo, 894188
1, 270480, Note_on_c, 0, 47, 0
1, 270480, Note_on_c, 0, 68, 45
1, 270480, Note_on_c, 0, 80, 45
1, 270480, Note_on_c, 0, 56, 30
1, 270480, Note_on_c, 0, 53, 25
1, 270497, Control_c, 0, 64, 0
1, 270555, Control_c, 0, 64, 127
1, 270600, Note_on_c, 0, 53, 0
1, 270600, Note_on_c, 0, 56, 0
1, 270600, Note_on_c, 0, 47, 26
1, 270720, Tempo, 936037
1, 270720, Note_on_c, 0, 47, 0
1, 270720, Note_on_c, 0, 80, 0
1, 270720, Note_on_c, 0, 68, 0
1, 270720, Note_on_c, 0, 69, 43
1, 270720, Note_on_c, 0, 81, 51
1, 270720, Note_on_c, 0, 54, 28
1, 270720, Note_on_c, 0, 57, 33
1, 270741, Control_c, 0, 64, 0
1, 270812, Control_c, 0, 64, 127
1, 270840, Note_on_c, 0, 57, 0
1, 270840, Note_on_c, 0, 54, 0
1, 270840, Note_on_c, 0, 47, 26
1, 270960, Note_on_c, 0, 47, 0
1, 270960, Note_on_c, 0, 81, 0
1, 270960, Note_on_c, 0, 69, 0
1, 270960, Note_on_c, 0, 73, 44
1, 270960, Note_on_c, 0, 85, 53
1, 270960, Note_on_c, 0, 57, 28
1, 270960, Note_on_c, 0, 61, 33
1, 271080, Note_on_c, 0, 61, 0
1, 271080, Note_on_c, 0, 57, 0
1, 271080, Note_on_c, 0, 47, 27
1, 271200, Note_on_c, 0, 47, 0
1, 271200, Note_on_c, 0, 85, 0
1, 271200, Note_on_c, 0, 73, 0
1, 271200, Note_on_c, 0, 71, 39
1, 271200, Note_on_c, 0, 83, 47
1, 271200, Note_on_c, 0, 59, 31
1, 271200, Note_on_c, 0, 56, 26
1, 271250, Control_c, 0, 64, 0
1, 271313, Control_c, 0, 64, 127
1, 271320, Tempo, 1015228
1, 271320, Note_on_c, 0, 56, 0
1, 271320, Note_on_c, 0, 59, 0
1, 271320, Note_on_c, 0, 47, 26
1, 271440, Note_on_c, 0, 47, 0
1, 271440, Note_on_c, 0, 83, 0
1, 271440, Note_on_c, 0, 71, 0
1, 271440, Note_on_c, 0, 87, 49
1, 271440, Note_on_c, 0, 75, 32
1, 271440, Note_on_c, 0, 57, 29
1, 271440, Note_on_c, 0, 54, 24
1, 271454, Control_c, 0, 64, 0
1, 271518, Control_c, 0, 64, 127
1, 271560, Tempo, 1197605
1, 271560, Note_on_c, 0, 54, 0
1, 271560, Note_on_c, 0, 57, 0
1, 271560, Note_on_c, 0, 47, 27
1, 271680, Tempo, 943396
1, 271680, Note_on_c, 0, 47, 0
1, 271680, Note_on_c, 0, 75, 0
1, 271680, Note_on_c, 0, 87, 0
1, 271680, Note_on_c, 0, 88, 57
1, 271680, Note_on_c, 0, 76, 35
1, 271680, Note_on_c, 0, 52, 26
1, 271680, Note_on_c, 0, 56, 31
1, 271686, Control_c, 0, 64, 0
1, 271800, Tempo, 966184
1, 271920, Note_on_c, 0, 56, 0
1, 271920, Note_on_c, 0, 52, 0
1, 271920, Note_on_c, 0, 42, 31
1, 272160, Note_on_c, 0, 42, 0
1, 272160, Note_on_c, 0, 76, 0
1, 272160, Note_on_c, 0, 88, 0
1, 272160, Note_on_c, 0, 40, 34
1, 272400, Note_on_c, 0, 40, 0
1, 272400, Note_on_c, 0, 49, 37
1, 272640, Note_on_c, 0, 49, 0
1, 272640, Note_on_c, 0, 47, 34
1, 272880, Note_on_c, 0, 57, 40
1, 273120, Note_on_c, 0, 57, 0
1, 273120, Note_on_c, 0, 56, 39
1, 273360, Note_on_c, 0, 56, 0
1, 273360, Note_on_c, 0, 47, 0
1, 273360, Note_on_c, 0, 68, 31
1, 273360, Note_on_c, 0, 64, 45
1, 273360, Note_on_c, 0, 49, 45
1, 273480, Note_on_c, 0, 49, 0
1, 273480, Note_on_c, 0, 47, 49
1, 273600, Note_on_c, 0, 47, 0
1, 273600, Note_on_c, 0, 64, 0
1, 273600, Note_on_c, 0, 68, 0
1, 273600, Note_on_c, 0, 66, 31
1, 273600, Note_on_c, 0, 64, 52
1, 273600, Note_on_c, 0, 46, 52
1, 273840, Note_on_c, 0, 64, 0
1, 273840, Note_on_c, 0, 66, 0
1, 273840, Note_on_c, 0, 78, 42
1, 273840, Note_on_c, 0, 76, 35
1, 273840, Note_on_c, 0, 73, 35
1, 274080, Note_on_c, 0, 73, 0
1, 274080, Note_on_c, 0, 46, 0
1, 274080, Note_on_c, 0, 78, 0
1, 274080, Note_on_c, 0, 76, 0
1, 274080, Note_on_c, 0, 73, 38
1, 274080, Note_on_c, 0, 76, 45
1, 274080, Note_on_c, 0, 58, 39
1, 274080, Note_on_c, 0, 64, 39
1, 274080, Note_on_c, 0, 66, 47
1, 274320, Note_on_c, 0, 76, 0
1, 274320, Note_on_c, 0, 85, 50
1, 274533, Tempo, 981997
1, 274560, Note_on_c, 0, 85, 0
1, 274560, Note_on_c, 0, 66, 0
1, 274560, Note_on_c, 0, 73, 0
1, 274560, Note_on_c, 0, 58, 0
1, 274560, Note_on_c, 0, 64, 0
1, 274560, Note_on_c, 0, 85, 45
1, 274560, Note_on_c, 0, 59, 22
1, 274560, Note_on_c, 0, 64, 22
1, 274560, Note_on_c, 0, 68, 27
1, 274560, Control_c, 0, 64, 0
1, 274623, Tempo, 974026
1, 274680, Note_on_c, 0, 85, 0
1, 274680, Note_on_c, 0, 83, 37
1, 274713, Tempo, 966184
1, 274800, Note_on_c, 0, 83, 0
1, 274800, Note_on_c, 0, 68, 0
1, 274800, Note_on_c, 0, 64, 0
1, 274800, Note_on_c, 0, 59, 0
1, 274800, Note_on_c, 0, 80, 38
1, 274803, Tempo, 958466
1, 274863, Tempo, 950872
1, 274920, Note_on_c, 0, 80, 0
1, 274920, Note_on_c, 0, 76, 38
1, 274953, Tempo, 943396
1, 275040, Note_on_c, 0, 76, 0
1, 275040, Note_on_c, 0, 75, 39
1, 275040, Note_on_c, 0, 66, 27
1, 275040, Note_on_c, 0, 59, 23
1, 275043, Tempo, 936037
1, 275103, Tempo, 928793
1, 275160, Note_on_c, 0, 75, 0
1, 275160, Note_on_c, 0, 73, 39
1, 275193, Tempo, 921659
1, 275280, Note_on_c, 0, 73, 0
1, 275280, Note_on_c, 0, 59, 0
1, 275280, Note_on_c, 0, 66, 0
1, 275280, Note_on_c, 0, 71, 39
1, 275283, Tempo, 914634
1, 275343, Tempo, 907716
1, 275400, Note_on_c, 0, 71, 0
1, 275400, Note_on_c, 0, 69, 40
1, 275433, Tempo, 900901
1, 275493, Tempo, 874636
1, 275520, Note_on_c, 0, 69, 0
1, 275520, Note_on_c, 0, 68, 43
1, 275520, Note_on_c, 0, 64, 29
1, 275520, Note_on_c, 0, 61, 24
1, 275613, Tempo, 862069
1, 275640, Note_on_c, 0, 68, 0
1, 275640, Note_on_c, 0, 66, 40
1, 275760, Note_on_c, 0, 66, 0
1, 275760, Note_on_c, 0, 61, 0
1, 275760, Note_on_c, 0, 64, 0
1, 275760, Note_on_c, 0, 64, 36
1, 275823, Tempo, 855920
1, 275850, Note_on_c, 0, 64, 0
1, 275880, Note_on_c, 0, 76, 49
1, 276000, Note_on_c, 0, 76, 0
1, 276000, Note_on_c, 0, 75, 46
1, 276000, Note_on_c, 0, 61, 30
1, 276000, Note_on_c, 0, 57, 25
1, 276003, Tempo, 849858
1, 276120, Note_on_c, 0, 75, 0
1, 276120, Note_on_c, 0, 73, 45
1, 276183, Tempo, 843882
1, 276210, Note_on_c, 0, 73, 0
1, 276240, Note_on_c, 0, 57, 0
1, 276240, Note_on_c, 0, 61, 0
1, 276240, Note_on_c, 0, 85, 55
1, 276360, Note_on_c, 0, 85, 0
1, 276360, Note_on_c, 0, 83, 52
1, 276363, Tempo, 837989
1, 276393, Tempo, 826446
1, 276480, Note_on_c, 0, 83, 0
1, 276480, Note_on_c, 0, 81, 50
1, 276480, Note_on_c, 0, 54, 26
1, 276480, Note_on_c, 0, 57, 31
1, 276483, Tempo, 804290
1, 276600, Note_on_c, 0, 81, 0
1, 276600, Note_on_c, 0, 80, 49
1, 276633, Tempo, 798935
1, 276690, Note_on_c, 0, 80, 0
1, 276720, Note_on_c, 0, 57, 0
1, 276720, Note_on_c, 0, 54, 0
1, 276720, Note_on_c, 0, 93, 59
1, 276783, Tempo, 793651
1, 276840, Note_on_c, 0, 93, 0
1, 276840, Note_on_c, 0, 92, 56
1, 276903, Tempo, 788436
1, 276930, Note_on_c, 0, 92, 0
1, 276960, Note_on_c, 0, 92, 57
1, 276960, Note_on_c, 0, 51, 26
1, 276960, Note_on_c, 0, 54, 32
1, 277053, Tempo, 783290
1, 277080, Note_on_c, 0, 92, 0
1, 277080, Note_on_c, 0, 90, 55
1, 277200, Note_on_c, 0, 90, 0
1, 277200, Note_on_c, 0, 54, 0
1, 277200, Note_on_c, 0, 51, 0
1, 277200, Note_on_c, 0, 93, 58
1, 277203, Tempo, 778210
1, 277320, Note_on_c, 0, 93, 0
1, 277320, Note_on_c, 0, 90, 56
1, 277323, Tempo, 763359
1, 277353, Tempo, 788436
1, 277440, Note_on_c, 0, 90, 0
1, 277440, Note_on_c, 0, 88, 55
1, 277440, Note_on_c, 0, 63, 33
1, 277440, Note_on_c, 0, 59, 27
1, 277473, Tempo, 783290
1, 277560, Tempo, 849858
1, 277560, Note_on_c, 0, 88, 0
1, 277560, Note_on_c, 0, 87, 56
1, 277680, Note_on_c, 0, 87, 0
1, 277680, Note_on_c, 0, 59, 0
1, 277680, Note_on_c, 0, 63, 0
1, 277680, Note_on_c, 0, 90, 63
1, 277800, Tempo, 849858
1, 277800, Note_on_c, 0, 90, 0
1, 277800, Note_on_c, 0, 81, 54
1, 277890, Note_on_c, 0, 81, 0
1, 277920, Tempo, 887574
1, 277920, Note_on_c, 0, 81, 50
1, 277920, Note_on_c, 0, 64, 30
1, 277920, Note_on_c, 0, 61, 25
1, 277953, Tempo, 843882
1, 278040, Note_on_c, 0, 81, 0
1, 278040, Note_on_c, 0, 80, 47
1, 278160, Note_on_c, 0, 80, 0
1, 278160, Note_on_c, 0, 61, 0
1, 278160, Note_on_c, 0, 64, 0
1, 278160, Note_on_c, 0, 88, 50
1, 278160, Note_on_c, 0, 64, 30
1, 278160, Note_on_c, 0, 61, 25
1, 278280, Tempo, 1088929
1, 278280, Note_on_c, 0, 88, 0
1, 278280, Note_on_c, 0, 80, 46
1, 278400, Tempo, 914634
1, 278400, Note_on_c, 0, 80, 0
1, 278400, Note_on_c, 0, 61, 0
1, 278400, Note_on_c, 0, 64, 0
1, 278400, Note_on_c, 0, 78, 40
1, 278400, Note_on_c, 0, 57, 28
1, 278520, Note_on_c, 0, 78, 0
1, 278520, Note_on_c, 0, 85, 37
1, 278640, Tempo, 990099
1, 278640, Note_on_c, 0, 85, 0
1, 278640, Note_on_c, 0, 57, 0
1, 278640, Note_on_c, 0, 83, 40
1, 278640, Note_on_c, 0, 59, 24
1, 278760, Tempo, 1185771
1, 278760, Note_on_c, 0, 83, 0
1, 278760, Note_on_c, 0, 75, 36
1, 278880, Tempo, 1098901
1, 278880, Note_on_c, 0, 75, 0
1, 278880, Note_on_c, 0, 59, 0
1, 278880, Note_on_c, 0, 76, 40
1, 278880, Note_on_c, 0, 52, 27
1, 279120, Note_on_c, 0, 52, 0
1, 279120, Note_on_c, 0, 76, 0
1, 279120, End_track
0, 0, End_of_file
