0, 0, Header, 0, 1, 480
1, 0, Start_track
1, 0, Title_t, "Intermezzo Nr. 5, Opus 116"
1, 0, Copyright_t, "Copyright © 2005 von Bernd Krüger. "
1, 0, Text_t, "Johannes Brahms"
1, 0, Text_t, "Fertiggestellt am  5.5.2005\012"
1, 0, Text_t, "Update am 31.10.2010\012"
1, 0, Text_t, "Dauer:  2.:55 Minuten\012"
1, 0, Time_signature, 6, 3, 12, 8
1, 0, Key_signature, 1, "major"
1, 0, Tempo, 750000
1, 0, Marker_t, "Andante con grazia ed intimissimo sentimento"
1, 0, Program_c, 0, 0
1, 0, Control_c, 0, 7, 100
1, 0, Control_c, 0, 10, 64
1, 0, Program_c, 0, 0
1, 0, Control_c, 0, 7, 100
1, 0, Control_c, 0, 10, 64
1, 0, Program_c, 0, 0
1, 1107, Control_c, 0, 64, 127
1, 1200, Tempo, 740741
1, 1200, Note_on_c, 0, 71, 39
1, 1200, Note_on_c, 0, 59, 31
1, 1200, Note_on_c, 0, 67, 31
1, 1200, Note_on_c, 0, 64, 24
1, 1200, Note_on_c, 0, 52, 19
1, 1200, Note_on_c, 0, 55, 19
1, 1440, Tempo, 750000
1, 1440, Note_on_c, 0, 55, 0
1, 1440, Note_on_c, 0, 59, 0
1, 1440, Note_on_c, 0, 67, 0
1, 1440, Note_on_c, 0, 71, 0
1, 1440, Note_on_c, 0, 52, 0
1, 1440, Note_on_c, 0, 64, 0
1, 1440, Note_on_c, 0, 72, 33
1, 1440, Note_on_c, 0, 51, 25
1, 1491, Control_c, 0, 64, 0
1, 1530, Note_on_c, 0, 51, 0
1, 1530, Note_on_c, 0, 72, 0
1, 1680, Tempo, 697674
1, 1920, Tempo, 750000
1, 1920, Note_on_c, 0, 79, 40
1, 1920, Note_on_c, 0, 71, 32
1, 1920, Note_on_c, 0, 76, 32
1, 1920, Note_on_c, 0, 52, 24
1, 1920, Note_on_c, 0, 43, 19
1, 1920, Note_on_c, 0, 47, 19
1, 1966, Control_c, 0, 64, 127
1, 2160, Tempo, 750000
1, 2160, Note_on_c, 0, 47, 0
1, 2160, Note_on_c, 0, 71, 0
1, 2160, Note_on_c, 0, 76, 0
1, 2160, Note_on_c, 0, 79, 0
1, 2160, Note_on_c, 0, 43, 0
1, 2160, Note_on_c, 0, 52, 0
1, 2160, Note_on_c, 0, 70, 33
1, 2160, Note_on_c, 0, 54, 26
1, 2220, Control_c, 0, 64, 0
1, 2250, Note_on_c, 0, 54, 0
1, 2250, Note_on_c, 0, 70, 0
1, 2400, Tempo, 697674
1, 2640, Tempo, 740741
1, 2640, Note_on_c, 0, 71, 39
1, 2640, Note_on_c, 0, 59, 31
1, 2640, Note_on_c, 0, 67, 31
1, 2640, Note_on_c, 0, 64, 24
1, 2640, Note_on_c, 0, 52, 19
1, 2640, Note_on_c, 0, 55, 19
1, 2657, Control_c, 0, 64, 127
1, 2880, Tempo, 750000
1, 2880, Note_on_c, 0, 55, 0
1, 2880, Note_on_c, 0, 59, 0
1, 2880, Note_on_c, 0, 67, 0
1, 2880, Note_on_c, 0, 71, 0
1, 2880, Note_on_c, 0, 52, 0
1, 2880, Note_on_c, 0, 64, 0
1, 2880, Note_on_c, 0, 72, 33
1, 2880, Note_on_c, 0, 51, 25
1, 2940, Control_c, 0, 64, 0
1, 2970, Note_on_c, 0, 51, 0
1, 2970, Note_on_c, 0, 72, 0
1, 3360, Tempo, 731707
1, 3360, Note_on_c, 0, 79, 40
1, 3360, Note_on_c, 0, 71, 32
1, 3360, Note_on_c, 0, 76, 32
1, 3360, Note_on_c, 0, 52, 24
1, 3360, Note_on_c, 0, 43, 19
1, 3360, Note_on_c, 0, 47, 19
1, 3412, Control_c, 0, 64, 127
1, 3600, Tempo, 759494
1, 3600, Note_on_c, 0, 47, 0
1, 3600, Note_on_c, 0, 71, 0
1, 3600, Note_on_c, 0, 76, 0
1, 3600, Note_on_c, 0, 79, 0
1, 3600, Note_on_c, 0, 43, 0
1, 3600, Note_on_c, 0, 52, 0
1, 3600, Note_on_c, 0, 64, 33
1, 3600, Note_on_c, 0, 55, 26
1, 3660, Control_c, 0, 64, 0
1, 3690, Note_on_c, 0, 55, 0
1, 3690, Note_on_c, 0, 64, 0
1, 3840, Tempo, 714286
1, 4080, Tempo, 740741
1, 4080, Note_on_c, 0, 72, 42
1, 4080, Note_on_c, 0, 60, 34
1, 4080, Note_on_c, 0, 69, 34
1, 4080, Note_on_c, 0, 66, 27
1, 4080, Note_on_c, 0, 54, 20
1, 4080, Note_on_c, 0, 57, 20
1, 4132, Control_c, 0, 64, 127
1, 4320, Tempo, 750000
1, 4320, Note_on_c, 0, 57, 0
1, 4320, Note_on_c, 0, 60, 0
1, 4320, Note_on_c, 0, 69, 0
1, 4320, Note_on_c, 0, 72, 0
1, 4320, Note_on_c, 0, 54, 0
1, 4320, Note_on_c, 0, 66, 0
1, 4320, Note_on_c, 0, 74, 36
1, 4320, Note_on_c, 0, 53, 27
1, 4380, Control_c, 0, 64, 0
1, 4410, Note_on_c, 0, 53, 0
1, 4410, Note_on_c, 0, 74, 0
1, 4560, Tempo, 697674
1, 4800, Tempo, 750000
1, 4800, Note_on_c, 0, 81, 42
1, 4800, Note_on_c, 0, 72, 33
1, 4800, Note_on_c, 0, 78, 33
1, 4800, Note_on_c, 0, 54, 25
1, 4800, Note_on_c, 0, 45, 20
1, 4800, Note_on_c, 0, 48, 20
1, 4812, Control_c, 0, 64, 127
1, 5040, Tempo, 740741
1, 5040, Note_on_c, 0, 48, 0
1, 5040, Note_on_c, 0, 72, 0
1, 5040, Note_on_c, 0, 78, 0
1, 5040, Note_on_c, 0, 81, 0
1, 5040, Note_on_c, 0, 45, 0
1, 5040, Note_on_c, 0, 54, 0
1, 5040, Note_on_c, 0, 71, 34
1, 5040, Note_on_c, 0, 55, 27
1, 5100, Control_c, 0, 64, 0
1, 5130, Note_on_c, 0, 55, 0
1, 5130, Note_on_c, 0, 71, 0
1, 5280, Tempo, 659341
1, 5520, Tempo, 750000
1, 5520, Note_on_c, 0, 72, 39
1, 5520, Note_on_c, 0, 60, 31
1, 5520, Note_on_c, 0, 69, 31
1, 5520, Note_on_c, 0, 66, 24
1, 5520, Note_on_c, 0, 54, 19
1, 5520, Note_on_c, 0, 57, 19
1, 5577, Control_c, 0, 64, 127
1, 5760, Tempo, 740741
1, 5760, Note_on_c, 0, 57, 0
1, 5760, Note_on_c, 0, 60, 0
1, 5760, Note_on_c, 0, 69, 0
1, 5760, Note_on_c, 0, 72, 0
1, 5760, Note_on_c, 0, 54, 0
1, 5760, Note_on_c, 0, 66, 0
1, 5760, Note_on_c, 0, 74, 33
1, 5760, Note_on_c, 0, 53, 25
1, 5820, Control_c, 0, 64, 0
1, 5850, Note_on_c, 0, 53, 0
1, 5850, Note_on_c, 0, 74, 0
1, 6000, Tempo, 705882
1, 6240, Tempo, 740741
1, 6240, Note_on_c, 0, 81, 40
1, 6240, Note_on_c, 0, 72, 32
1, 6240, Note_on_c, 0, 78, 32
1, 6240, Note_on_c, 0, 54, 24
1, 6240, Note_on_c, 0, 45, 19
1, 6240, Note_on_c, 0, 48, 19
1, 6297, Control_c, 0, 64, 127
1, 6480, Tempo, 740741
1, 6480, Note_on_c, 0, 48, 0
1, 6480, Note_on_c, 0, 72, 0
1, 6480, Note_on_c, 0, 78, 0
1, 6480, Note_on_c, 0, 81, 0
1, 6480, Note_on_c, 0, 45, 0
1, 6480, Note_on_c, 0, 54, 0
1, 6480, Note_on_c, 0, 66, 33
1, 6480, Note_on_c, 0, 57, 26
1, 6540, Control_c, 0, 64, 0
1, 6570, Note_on_c, 0, 57, 0
1, 6570, Note_on_c, 0, 66, 0
1, 6720, Tempo, 769231
1, 6960, Tempo, 705882
1, 6960, Note_on_c, 0, 74, 46
1, 6960, Note_on_c, 0, 62, 37
1, 6960, Note_on_c, 0, 71, 37
1, 6960, Note_on_c, 0, 67, 37
1, 6960, Note_on_c, 0, 55, 28
1, 6960, Note_on_c, 0, 59, 28
1, 7029, Control_c, 0, 64, 127
1, 7200, Tempo, 750000
1, 7200, Note_on_c, 0, 59, 0
1, 7200, Note_on_c, 0, 62, 0
1, 7200, Note_on_c, 0, 71, 0
1, 7200, Note_on_c, 0, 74, 0
1, 7200, Note_on_c, 0, 55, 0
1, 7200, Note_on_c, 0, 67, 0
1, 7200, Note_on_c, 0, 76, 39
1, 7200, Note_on_c, 0, 54, 29
1, 7235, Control_c, 0, 64, 0
1, 7320, Note_on_c, 0, 54, 0
1, 7320, Note_on_c, 0, 76, 0
1, 7680, Tempo, 779221
1, 7680, Note_on_c, 0, 83, 52
1, 7680, Note_on_c, 0, 74, 42
1, 7680, Note_on_c, 0, 80, 42
1, 7680, Note_on_c, 0, 56, 41
1, 7680, Note_on_c, 0, 47, 33
1, 7680, Note_on_c, 0, 50, 33
1, 7720, Control_c, 0, 64, 127
1, 7920, Note_on_c, 0, 50, 0
1, 7920, Note_on_c, 0, 74, 0
1, 7920, Note_on_c, 0, 80, 0
1, 7920, Note_on_c, 0, 83, 0
1, 7920, Note_on_c, 0, 47, 0
1, 7920, Note_on_c, 0, 56, 0
1, 7920, Note_on_c, 0, 68, 58
1, 7920, Note_on_c, 0, 62, 42
1, 7983, Control_c, 0, 64, 0
1, 8040, Note_on_c, 0, 62, 0
1, 8040, Note_on_c, 0, 68, 0
1, 8160, Tempo, 697674
1, 8400, Tempo, 759494
1, 8400, Note_on_c, 0, 76, 55
1, 8400, Note_on_c, 0, 64, 45
1, 8400, Note_on_c, 0, 72, 45
1, 8400, Note_on_c, 0, 69, 45
1, 8400, Note_on_c, 0, 57, 35
1, 8400, Note_on_c, 0, 60, 35
1, 8469, Control_c, 0, 64, 127
1, 8640, Note_on_c, 0, 60, 0
1, 8640, Note_on_c, 0, 64, 0
1, 8640, Note_on_c, 0, 72, 0
1, 8640, Note_on_c, 0, 76, 0
1, 8640, Note_on_c, 0, 57, 0
1, 8640, Note_on_c, 0, 69, 0
1, 8640, Note_on_c, 0, 77, 58
1, 8640, Note_on_c, 0, 56, 50
1, 8715, Control_c, 0, 64, 0
1, 8760, Note_on_c, 0, 56, 0
1, 8760, Note_on_c, 0, 77, 0
1, 8880, Tempo, 779221
1, 9120, Tempo, 779221
1, 9120, Note_on_c, 0, 85, 60
1, 9120, Note_on_c, 0, 76, 47
1, 9120, Note_on_c, 0, 82, 47
1, 9120, Note_on_c, 0, 58, 46
1, 9120, Note_on_c, 0, 49, 35
1, 9120, Note_on_c, 0, 52, 35
1, 9177, Control_c, 0, 64, 127
1, 9360, Tempo, 722892
1, 9360, Note_on_c, 0, 52, 0
1, 9360, Note_on_c, 0, 76, 0
1, 9360, Note_on_c, 0, 82, 0
1, 9360, Note_on_c, 0, 85, 0
1, 9360, Note_on_c, 0, 49, 0
1, 9360, Note_on_c, 0, 58, 0
1, 9360, Note_on_c, 0, 70, 64
1, 9360, Note_on_c, 0, 64, 49
1, 9463, Control_c, 0, 64, 0
1, 9480, Note_on_c, 0, 64, 0
1, 9480, Note_on_c, 0, 70, 0
1, 9600, Tempo, 714286
1, 9840, Tempo, 857143
1, 9840, Note_on_c, 0, 77, 50
1, 9840, Note_on_c, 0, 65, 40
1, 9840, Note_on_c, 0, 74, 40
1, 9840, Note_on_c, 0, 71, 40
1, 9840, Note_on_c, 0, 59, 30
1, 9840, Note_on_c, 0, 62, 30
1, 9903, Control_c, 0, 64, 127
1, 10080, Tempo, 789474
1, 10080, Note_on_c, 0, 62, 0
1, 10080, Note_on_c, 0, 65, 0
1, 10080, Note_on_c, 0, 74, 0
1, 10080, Note_on_c, 0, 77, 0
1, 10080, Note_on_c, 0, 59, 0
1, 10080, Note_on_c, 0, 71, 0
1, 10080, Note_on_c, 0, 79, 50
1, 10080, Note_on_c, 0, 50, 31
1, 10186, Control_c, 0, 64, 0
1, 10260, Note_on_c, 0, 50, 0
1, 10260, Note_on_c, 0, 79, 0
1, 10320, Tempo, 833333
1, 10560, Tempo, 857143
1, 10560, Note_on_c, 0, 85, 46
1, 10560, Note_on_c, 0, 78, 36
1, 10560, Note_on_c, 0, 61, 35
1, 10560, Note_on_c, 0, 52, 27
1, 10560, Note_on_c, 0, 55, 27
1, 10673, Control_c, 0, 64, 127
1, 10800, Tempo, 731707
1, 10800, Note_on_c, 0, 55, 0
1, 10800, Note_on_c, 0, 61, 0
1, 10800, Note_on_c, 0, 52, 0
1, 10800, Note_on_c, 0, 85, 0
1, 10800, Note_on_c, 0, 67, 35
1, 10800, Note_on_c, 0, 66, 26
1, 10885, Control_c, 0, 64, 0
1, 10980, Note_on_c, 0, 66, 0
1, 10980, Note_on_c, 0, 67, 0
1, 10980, Note_on_c, 0, 78, 0
1, 11280, Tempo, 857143
1, 11280, Note_on_c, 0, 83, 43
1, 11280, Note_on_c, 0, 76, 34
1, 11280, Note_on_c, 0, 59, 33
1, 11280, Note_on_c, 0, 54, 26
1, 11358, Control_c, 0, 64, 127
1, 11520, Tempo, 810811
1, 11520, Note_on_c, 0, 54, 0
1, 11520, Note_on_c, 0, 59, 0
1, 11520, Note_on_c, 0, 83, 0
1, 11520, Note_on_c, 0, 66, 33
1, 11520, Note_on_c, 0, 64, 25
1, 11612, Control_c, 0, 64, 0
1, 11700, Note_on_c, 0, 64, 0
1, 11700, Note_on_c, 0, 66, 0
1, 11700, Note_on_c, 0, 76, 0
1, 11760, Tempo, 779221
1, 12000, Tempo, 705882
1, 12000, Note_on_c, 0, 82, 41
1, 12000, Note_on_c, 0, 74, 32
1, 12000, Note_on_c, 0, 58, 31
1, 12000, Note_on_c, 0, 54, 24
1, 12046, Control_c, 0, 64, 127
1, 12240, Tempo, 652174
1, 12240, Note_on_c, 0, 66, 26
1, 12480, Tempo, 750000
1, 12480, Note_on_c, 0, 66, 0
1, 12480, Note_on_c, 0, 74, 0
1, 12480, Note_on_c, 0, 73, 34
1, 12480, Note_on_c, 0, 64, 25
1, 12526, Control_c, 0, 64, 0
1, 12600, Note_on_c, 0, 64, 0
1, 12600, Note_on_c, 0, 82, 0
1, 12600, Note_on_c, 0, 54, 0
1, 12600, Note_on_c, 0, 58, 0
1, 12600, Note_on_c, 0, 73, 0
1, 12720, Tempo, 740741
1, 12720, Note_on_c, 0, 78, 52
1, 12720, Note_on_c, 0, 66, 42
1, 12720, Note_on_c, 0, 74, 42
1, 12720, Note_on_c, 0, 71, 42
1, 12720, Note_on_c, 0, 59, 32
1, 12720, Note_on_c, 0, 62, 32
1, 12749, Control_c, 0, 64, 127
1, 12960, Tempo, 750000
1, 12960, Note_on_c, 0, 62, 0
1, 12960, Note_on_c, 0, 66, 0
1, 12960, Note_on_c, 0, 74, 0
1, 12960, Note_on_c, 0, 78, 0
1, 12960, Note_on_c, 0, 59, 0
1, 12960, Note_on_c, 0, 71, 0
1, 12960, Note_on_c, 0, 83, 44
1, 12960, Note_on_c, 0, 50, 33
1, 13069, Control_c, 0, 64, 0
1, 13080, Note_on_c, 0, 50, 0
1, 13080, Note_on_c, 0, 83, 0
1, 13200, Tempo, 697674
1, 13440, Tempo, 740741
1, 13440, Note_on_c, 0, 88, 60
1, 13440, Note_on_c, 0, 81, 46
1, 13440, Note_on_c, 0, 85, 46
1, 13440, Note_on_c, 0, 61, 45
1, 13440, Note_on_c, 0, 52, 34
1, 13440, Note_on_c, 0, 57, 34
1, 13497, Control_c, 0, 64, 127
1, 13680, Tempo, 769231
1, 13680, Note_on_c, 0, 57, 0
1, 13680, Note_on_c, 0, 88, 0
1, 13680, Note_on_c, 0, 85, 0
1, 13680, Note_on_c, 0, 61, 0
1, 13680, Note_on_c, 0, 52, 0
1, 13680, Note_on_c, 0, 73, 48
1, 13680, Note_on_c, 0, 69, 38
1, 13789, Control_c, 0, 64, 0
1, 13800, Note_on_c, 0, 69, 0
1, 13800, Note_on_c, 0, 73, 0
1, 13800, Note_on_c, 0, 81, 0
1, 13920, Tempo, 731707
1, 14160, Tempo, 731707
1, 14160, Note_on_c, 0, 86, 50
1, 14160, Note_on_c, 0, 79, 39
1, 14160, Note_on_c, 0, 83, 39
1, 14160, Note_on_c, 0, 62, 38
1, 14160, Note_on_c, 0, 54, 30
1, 14160, Note_on_c, 0, 59, 30
1, 14212, Control_c, 0, 64, 127
1, 14400, Tempo, 759494
1, 14400, Note_on_c, 0, 59, 0
1, 14400, Note_on_c, 0, 86, 0
1, 14400, Note_on_c, 0, 83, 0
1, 14400, Note_on_c, 0, 62, 0
1, 14400, Note_on_c, 0, 54, 0
1, 14400, Note_on_c, 0, 71, 40
1, 14400, Note_on_c, 0, 67, 32
1, 14470, Control_c, 0, 64, 0
1, 14520, Note_on_c, 0, 67, 0
1, 14520, Note_on_c, 0, 71, 0
1, 14520, Note_on_c, 0, 79, 0
1, 14880, Tempo, 697674
1, 14880, Note_on_c, 0, 85, 40
1, 14880, Note_on_c, 0, 78, 32
1, 14880, Note_on_c, 0, 82, 32
1, 14880, Note_on_c, 0, 64, 31
1, 14880, Note_on_c, 0, 54, 24
1, 14880, Note_on_c, 0, 61, 24
1, 14908, Control_c, 0, 64, 127
1, 15120, Tempo, 659341
1, 15120, Note_on_c, 0, 61, 0
1, 15120, Note_on_c, 0, 85, 0
1, 15120, Note_on_c, 0, 82, 0
1, 15120, Note_on_c, 0, 64, 0
1, 15120, Note_on_c, 0, 54, 0
1, 15120, Note_on_c, 0, 70, 33
1, 15120, Note_on_c, 0, 66, 26
1, 15360, Tempo, 779221
1, 15360, Note_on_c, 0, 66, 0
1, 15360, Note_on_c, 0, 70, 0
1, 15360, Note_on_c, 0, 78, 0
1, 15360, Note_on_c, 0, 76, 33
1, 15600, Tempo, 882353
1, 15600, Note_on_c, 0, 76, 0
1, 15600, Note_on_c, 0, 64, 32
1, 15600, Note_on_c, 0, 70, 32
1, 15600, Note_on_c, 0, 35, 37
1, 15628, Control_c, 0, 64, 0
1, 15840, Tempo, 789474
1, 15840, Note_on_c, 0, 35, 0
1, 15840, Note_on_c, 0, 70, 0
1, 15840, Note_on_c, 0, 73, 39
1, 15840, Note_on_c, 0, 47, 44
1, 15847, Control_c, 0, 64, 127
1, 16320, Tempo, 845070
1, 16320, Note_on_c, 0, 52, 39
1, 16560, Tempo, 779221
1, 16560, Note_on_c, 0, 52, 0
1, 16560, Note_on_c, 0, 55, 43
1, 16580, Control_c, 0, 64, 0
1, 16732, Control_c, 0, 64, 127
1, 17040, Tempo, 967742
1, 17040, Note_on_c, 0, 55, 0
1, 17040, Note_on_c, 0, 64, 0
1, 17040, Note_on_c, 0, 63, 36
1, 17040, Note_on_c, 0, 54, 37
1, 17280, Tempo, 869565
1, 17280, Note_on_c, 0, 54, 0
1, 17280, Note_on_c, 0, 73, 0
1, 17280, Note_on_c, 0, 69, 39
1, 17280, Note_on_c, 0, 72, 39
1, 17280, Note_on_c, 0, 57, 38
1, 17286, Control_c, 0, 64, 0
1, 17467, Control_c, 0, 64, 127
1, 18180, Note_on_c, 0, 57, 0
1, 18180, Note_on_c, 0, 69, 0
1, 18180, Note_on_c, 0, 72, 0
1, 18180, Note_on_c, 0, 47, 0
1, 18279, Control_c, 0, 64, 0
1, 18360, Note_on_c, 0, 63, 0
1, 18440, Tempo, 750000
1, 18480, Tempo, 740741
1, 18480, Note_on_c, 0, 71, 39
1, 18480, Note_on_c, 0, 59, 31
1, 18480, Note_on_c, 0, 67, 31
1, 18480, Note_on_c, 0, 64, 24
1, 18480, Note_on_c, 0, 52, 19
1, 18480, Note_on_c, 0, 55, 19
1, 18560, Control_c, 0, 64, 127
1, 18720, Tempo, 750000
1, 18720, Note_on_c, 0, 55, 0
1, 18720, Note_on_c, 0, 59, 0
1, 18720, Note_on_c, 0, 67, 0
1, 18720, Note_on_c, 0, 71, 0
1, 18720, Note_on_c, 0, 52, 0
1, 18720, Note_on_c, 0, 64, 0
1, 18720, Note_on_c, 0, 72, 33
1, 18720, Note_on_c, 0, 51, 25
1, 18771, Control_c, 0, 64, 0
1, 18810, Note_on_c, 0, 51, 0
1, 18810, Note_on_c, 0, 72, 0
1, 18960, Tempo, 697674
1, 19200, Tempo, 750000
1, 19200, Note_on_c, 0, 79, 40
1, 19200, Note_on_c, 0, 71, 32
1, 19200, Note_on_c, 0, 76, 32
1, 19200, Note_on_c, 0, 52, 24
1, 19200, Note_on_c, 0, 43, 19
1, 19200, Note_on_c, 0, 47, 19
1, 19246, Control_c, 0, 64, 127
1, 19440, Tempo, 750000
1, 19440, Note_on_c, 0, 47, 0
1, 19440, Note_on_c, 0, 71, 0
1, 19440, Note_on_c, 0, 76, 0
1, 19440, Note_on_c, 0, 79, 0
1, 19440, Note_on_c, 0, 43, 0
1, 19440, Note_on_c, 0, 52, 0
1, 19440, Note_on_c, 0, 70, 33
1, 19440, Note_on_c, 0, 54, 26
1, 19500, Control_c, 0, 64, 0
1, 19530, Note_on_c, 0, 54, 0
1, 19530, Note_on_c, 0, 70, 0
1, 19680, Tempo, 600000
1, 19920, Tempo, 740741
1, 19920, Note_on_c, 0, 71, 39
1, 19920, Note_on_c, 0, 59, 31
1, 19920, Note_on_c, 0, 67, 31
1, 19920, Note_on_c, 0, 64, 24
1, 19920, Note_on_c, 0, 52, 19
1, 19920, Note_on_c, 0, 55, 19
1, 19937, Control_c, 0, 64, 127
1, 20160, Tempo, 750000
1, 20160, Note_on_c, 0, 55, 0
1, 20160, Note_on_c, 0, 59, 0
1, 20160, Note_on_c, 0, 67, 0
1, 20160, Note_on_c, 0, 71, 0
1, 20160, Note_on_c, 0, 52, 0
1, 20160, Note_on_c, 0, 64, 0
1, 20160, Note_on_c, 0, 72, 33
1, 20160, Note_on_c, 0, 51, 25
1, 20220, Control_c, 0, 64, 0
1, 20250, Note_on_c, 0, 51, 0
1, 20250, Note_on_c, 0, 72, 0
1, 20640, Tempo, 731707
1, 20640, Note_on_c, 0, 79, 40
1, 20640, Note_on_c, 0, 71, 32
1, 20640, Note_on_c, 0, 76, 32
1, 20640, Note_on_c, 0, 52, 24
1, 20640, Note_on_c, 0, 43, 19
1, 20640, Note_on_c, 0, 47, 19
1, 20692, Control_c, 0, 64, 127
1, 20880, Tempo, 759494
1, 20880, Note_on_c, 0, 47, 0
1, 20880, Note_on_c, 0, 71, 0
1, 20880, Note_on_c, 0, 76, 0
1, 20880, Note_on_c, 0, 79, 0
1, 20880, Note_on_c, 0, 43, 0
1, 20880, Note_on_c, 0, 52, 0
1, 20880, Note_on_c, 0, 64, 33
1, 20880, Note_on_c, 0, 55, 26
1, 20940, Control_c, 0, 64, 0
1, 20970, Note_on_c, 0, 55, 0
1, 20970, Note_on_c, 0, 64, 0
1, 21120, Tempo, 714286
1, 21360, Tempo, 740741
1, 21360, Note_on_c, 0, 72, 42
1, 21360, Note_on_c, 0, 60, 34
1, 21360, Note_on_c, 0, 69, 34
1, 21360, Note_on_c, 0, 66, 27
1, 21360, Note_on_c, 0, 54, 20
1, 21360, Note_on_c, 0, 57, 20
1, 21412, Control_c, 0, 64, 127
1, 21600, Tempo, 722892
1, 21600, Note_on_c, 0, 57, 0
1, 21600, Note_on_c, 0, 60, 0
1, 21600, Note_on_c, 0, 69, 0
1, 21600, Note_on_c, 0, 72, 0
1, 21600, Note_on_c, 0, 54, 0
1, 21600, Note_on_c, 0, 66, 0
1, 21600, Note_on_c, 0, 74, 36
1, 21600, Note_on_c, 0, 53, 27
1, 21660, Control_c, 0, 64, 0
1, 21690, Note_on_c, 0, 53, 0
1, 21690, Note_on_c, 0, 74, 0
1, 21840, Tempo, 697674
1, 22080, Tempo, 750000
1, 22080, Note_on_c, 0, 81, 42
1, 22080, Note_on_c, 0, 72, 33
1, 22080, Note_on_c, 0, 78, 33
1, 22080, Note_on_c, 0, 54, 25
1, 22080, Note_on_c, 0, 45, 20
1, 22080, Note_on_c, 0, 48, 20
1, 22092, Control_c, 0, 64, 127
1, 22320, Tempo, 740741
1, 22320, Note_on_c, 0, 48, 0
1, 22320, Note_on_c, 0, 72, 0
1, 22320, Note_on_c, 0, 78, 0
1, 22320, Note_on_c, 0, 81, 0
1, 22320, Note_on_c, 0, 45, 0
1, 22320, Note_on_c, 0, 54, 0
1, 22320, Note_on_c, 0, 71, 34
1, 22320, Note_on_c, 0, 55, 27
1, 22380, Control_c, 0, 64, 0
1, 22410, Note_on_c, 0, 55, 0
1, 22410, Note_on_c, 0, 71, 0
1, 22560, Tempo, 588235
1, 22800, Tempo, 750000
1, 22800, Note_on_c, 0, 72, 39
1, 22800, Note_on_c, 0, 60, 31
1, 22800, Note_on_c, 0, 69, 31
1, 22800, Note_on_c, 0, 66, 24
1, 22800, Note_on_c, 0, 54, 19
1, 22800, Note_on_c, 0, 57, 19
1, 22857, Control_c, 0, 64, 127
1, 23040, Tempo, 740741
1, 23040, Note_on_c, 0, 57, 0
1, 23040, Note_on_c, 0, 60, 0
1, 23040, Note_on_c, 0, 69, 0
1, 23040, Note_on_c, 0, 72, 0
1, 23040, Note_on_c, 0, 54, 0
1, 23040, Note_on_c, 0, 66, 0
1, 23040, Note_on_c, 0, 74, 33
1, 23040, Note_on_c, 0, 53, 25
1, 23100, Control_c, 0, 64, 0
1, 23130, Note_on_c, 0, 53, 0
1, 23130, Note_on_c, 0, 74, 0
1, 23280, Tempo, 705882
1, 23520, Tempo, 740741
1, 23520, Note_on_c, 0, 81, 40
1, 23520, Note_on_c, 0, 72, 32
1, 23520, Note_on_c, 0, 78, 32
1, 23520, Note_on_c, 0, 54, 24
1, 23520, Note_on_c, 0, 45, 19
1, 23520, Note_on_c, 0, 48, 19
1, 23577, Control_c, 0, 64, 127
1, 23760, Tempo, 740741
1, 23760, Note_on_c, 0, 48, 0
1, 23760, Note_on_c, 0, 72, 0
1, 23760, Note_on_c, 0, 78, 0
1, 23760, Note_on_c, 0, 81, 0
1, 23760, Note_on_c, 0, 45, 0
1, 23760, Note_on_c, 0, 54, 0
1, 23760, Note_on_c, 0, 66, 33
1, 23760, Note_on_c, 0, 57, 26
1, 23820, Control_c, 0, 64, 0
1, 23850, Note_on_c, 0, 57, 0
1, 23850, Note_on_c, 0, 66, 0
1, 24000, Tempo, 697674
1, 24240, Tempo, 705882
1, 24240, Note_on_c, 0, 74, 46
1, 24240, Note_on_c, 0, 62, 37
1, 24240, Note_on_c, 0, 71, 37
1, 24240, Note_on_c, 0, 67, 37
1, 24240, Note_on_c, 0, 55, 28
1, 24240, Note_on_c, 0, 59, 28
1, 24309, Control_c, 0, 64, 127
1, 24480, Tempo, 750000
1, 24480, Note_on_c, 0, 59, 0
1, 24480, Note_on_c, 0, 62, 0
1, 24480, Note_on_c, 0, 71, 0
1, 24480, Note_on_c, 0, 74, 0
1, 24480, Note_on_c, 0, 55, 0
1, 24480, Note_on_c, 0, 67, 0
1, 24480, Note_on_c, 0, 76, 39
1, 24480, Note_on_c, 0, 54, 29
1, 24515, Control_c, 0, 64, 0
1, 24600, Note_on_c, 0, 54, 0
1, 24600, Note_on_c, 0, 76, 0
1, 24960, Tempo, 731707
1, 24960, Note_on_c, 0, 83, 52
1, 24960, Note_on_c, 0, 74, 42
1, 24960, Note_on_c, 0, 80, 42
1, 24960, Note_on_c, 0, 56, 41
1, 24960, Note_on_c, 0, 47, 33
1, 24960, Note_on_c, 0, 50, 33
1, 25000, Control_c, 0, 64, 127
1, 25200, Tempo, 779221
1, 25200, Note_on_c, 0, 50, 0
1, 25200, Note_on_c, 0, 74, 0
1, 25200, Note_on_c, 0, 80, 0
1, 25200, Note_on_c, 0, 83, 0
1, 25200, Note_on_c, 0, 47, 0
1, 25200, Note_on_c, 0, 56, 0
1, 25200, Note_on_c, 0, 68, 58
1, 25200, Note_on_c, 0, 62, 42
1, 25263, Control_c, 0, 64, 0
1, 25320, Note_on_c, 0, 62, 0
1, 25320, Note_on_c, 0, 68, 0
1, 25440, Tempo, 652174
1, 25680, Tempo, 769231
1, 25680, Note_on_c, 0, 76, 55
1, 25680, Note_on_c, 0, 64, 45
1, 25680, Note_on_c, 0, 72, 45
1, 25680, Note_on_c, 0, 69, 45
1, 25680, Note_on_c, 0, 57, 35
1, 25680, Note_on_c, 0, 60, 35
1, 25749, Control_c, 0, 64, 127
1, 25920, Note_on_c, 0, 60, 0
1, 25920, Note_on_c, 0, 64, 0
1, 25920, Note_on_c, 0, 72, 0
1, 25920, Note_on_c, 0, 76, 0
1, 25920, Note_on_c, 0, 57, 0
1, 25920, Note_on_c, 0, 69, 0
1, 25920, Note_on_c, 0, 77, 58
1, 25920, Note_on_c, 0, 56, 50
1, 25995, Control_c, 0, 64, 0
1, 26040, Note_on_c, 0, 56, 0
1, 26040, Note_on_c, 0, 77, 0
1, 26160, Tempo, 779221
1, 26400, Tempo, 779221
1, 26400, Note_on_c, 0, 85, 60
1, 26400, Note_on_c, 0, 76, 47
1, 26400, Note_on_c, 0, 82, 47
1, 26400, Note_on_c, 0, 58, 46
1, 26400, Note_on_c, 0, 49, 35
1, 26400, Note_on_c, 0, 52, 35
1, 26457, Control_c, 0, 64, 127
1, 26640, Tempo, 722892
1, 26640, Note_on_c, 0, 52, 0
1, 26640, Note_on_c, 0, 76, 0
1, 26640, Note_on_c, 0, 82, 0
1, 26640, Note_on_c, 0, 85, 0
1, 26640, Note_on_c, 0, 49, 0
1, 26640, Note_on_c, 0, 58, 0
1, 26640, Note_on_c, 0, 70, 64
1, 26640, Note_on_c, 0, 64, 49
1, 26743, Control_c, 0, 64, 0
1, 26760, Note_on_c, 0, 64, 0
1, 26760, Note_on_c, 0, 70, 0
1, 26880, Tempo, 714286
1, 27120, Tempo, 857143
1, 27120, Note_on_c, 0, 77, 50
1, 27120, Note_on_c, 0, 65, 40
1, 27120, Note_on_c, 0, 74, 40
1, 27120, Note_on_c, 0, 71, 40
1, 27120, Note_on_c, 0, 59, 30
1, 27120, Note_on_c, 0, 62, 30
1, 27183, Control_c, 0, 64, 127
1, 27360, Tempo, 789474
1, 27360, Note_on_c, 0, 62, 0
1, 27360, Note_on_c, 0, 65, 0
1, 27360, Note_on_c, 0, 74, 0
1, 27360, Note_on_c, 0, 77, 0
1, 27360, Note_on_c, 0, 59, 0
1, 27360, Note_on_c, 0, 71, 0
1, 27360, Note_on_c, 0, 79, 50
1, 27360, Note_on_c, 0, 50, 31
1, 27466, Control_c, 0, 64, 0
1, 27540, Note_on_c, 0, 50, 0
1, 27540, Note_on_c, 0, 79, 0
1, 27600, Tempo, 833333
1, 27840, Tempo, 857143
1, 27840, Note_on_c, 0, 85, 46
1, 27840, Note_on_c, 0, 78, 36
1, 27840, Note_on_c, 0, 61, 35
1, 27840, Note_on_c, 0, 52, 27
1, 27840, Note_on_c, 0, 55, 27
1, 27953, Control_c, 0, 64, 127
1, 28080, Tempo, 689655
1, 28080, Note_on_c, 0, 55, 0
1, 28080, Note_on_c, 0, 61, 0
1, 28080, Note_on_c, 0, 52, 0
1, 28080, Note_on_c, 0, 85, 0
1, 28080, Note_on_c, 0, 67, 35
1, 28080, Note_on_c, 0, 66, 26
1, 28165, Control_c, 0, 64, 0
1, 28260, Note_on_c, 0, 66, 0
1, 28260, Note_on_c, 0, 67, 0
1, 28260, Note_on_c, 0, 78, 0
1, 28560, Tempo, 857143
1, 28560, Note_on_c, 0, 83, 43
1, 28560, Note_on_c, 0, 76, 34
1, 28560, Note_on_c, 0, 59, 33
1, 28560, Note_on_c, 0, 54, 26
1, 28638, Control_c, 0, 64, 127
1, 28800, Tempo, 810811
1, 28800, Note_on_c, 0, 54, 0
1, 28800, Note_on_c, 0, 59, 0
1, 28800, Note_on_c, 0, 83, 0
1, 28800, Note_on_c, 0, 66, 33
1, 28800, Note_on_c, 0, 64, 25
1, 28892, Control_c, 0, 64, 0
1, 28980, Note_on_c, 0, 64, 0
1, 28980, Note_on_c, 0, 66, 0
1, 28980, Note_on_c, 0, 76, 0
1, 29040, Tempo, 740741
1, 29280, Tempo, 705882
1, 29280, Note_on_c, 0, 82, 41
1, 29280, Note_on_c, 0, 74, 32
1, 29280, Note_on_c, 0, 58, 31
1, 29280, Note_on_c, 0, 54, 24
1, 29326, Control_c, 0, 64, 127
1, 29520, Tempo, 652174
1, 29520, Note_on_c, 0, 66, 26
1, 29760, Tempo, 750000
1, 29760, Note_on_c, 0, 66, 0
1, 29760, Note_on_c, 0, 74, 0
1, 29760, Note_on_c, 0, 73, 34
1, 29760, Note_on_c, 0, 64, 25
1, 29806, Control_c, 0, 64, 0
1, 29880, Note_on_c, 0, 64, 0
1, 29880, Note_on_c, 0, 82, 0
1, 29880, Note_on_c, 0, 54, 0
1, 29880, Note_on_c, 0, 58, 0
1, 29880, Note_on_c, 0, 73, 0
1, 30000, Tempo, 740741
1, 30000, Note_on_c, 0, 78, 52
1, 30000, Note_on_c, 0, 66, 42
1, 30000, Note_on_c, 0, 74, 42
1, 30000, Note_on_c, 0, 71, 42
1, 30000, Note_on_c, 0, 59, 32
1, 30000, Note_on_c, 0, 62, 32
1, 30029, Control_c, 0, 64, 127
1, 30240, Tempo, 750000
1, 30240, Note_on_c, 0, 62, 0
1, 30240, Note_on_c, 0, 66, 0
1, 30240, Note_on_c, 0, 74, 0
1, 30240, Note_on_c, 0, 78, 0
1, 30240, Note_on_c, 0, 59, 0
1, 30240, Note_on_c, 0, 71, 0
1, 30240, Note_on_c, 0, 83, 44
1, 30240, Note_on_c, 0, 50, 33
1, 30349, Control_c, 0, 64, 0
1, 30360, Note_on_c, 0, 50, 0
1, 30360, Note_on_c, 0, 83, 0
1, 30480, Tempo, 697674
1, 30720, Tempo, 740741
1, 30720, Note_on_c, 0, 88, 60
1, 30720, Note_on_c, 0, 81, 46
1, 30720, Note_on_c, 0, 85, 46
1, 30720, Note_on_c, 0, 61, 45
1, 30720, Note_on_c, 0, 52, 34
1, 30720, Note_on_c, 0, 57, 34
1, 30777, Control_c, 0, 64, 127
1, 30960, Tempo, 800000
1, 30960, Note_on_c, 0, 57, 0
1, 30960, Note_on_c, 0, 88, 0
1, 30960, Note_on_c, 0, 85, 0
1, 30960, Note_on_c, 0, 61, 0
1, 30960, Note_on_c, 0, 52, 0
1, 30960, Note_on_c, 0, 73, 48
1, 30960, Note_on_c, 0, 69, 38
1, 31069, Control_c, 0, 64, 0
1, 31080, Note_on_c, 0, 69, 0
1, 31080, Note_on_c, 0, 73, 0
1, 31080, Note_on_c, 0, 81, 0
1, 31200, Tempo, 731707
1, 31440, Tempo, 731707
1, 31440, Note_on_c, 0, 86, 50
1, 31440, Note_on_c, 0, 79, 39
1, 31440, Note_on_c, 0, 83, 39
1, 31440, Note_on_c, 0, 62, 38
1, 31440, Note_on_c, 0, 54, 30
1, 31440, Note_on_c, 0, 59, 30
1, 31492, Control_c, 0, 64, 127
1, 31680, Tempo, 759494
1, 31680, Note_on_c, 0, 59, 0
1, 31680, Note_on_c, 0, 86, 0
1, 31680, Note_on_c, 0, 83, 0
1, 31680, Note_on_c, 0, 62, 0
1, 31680, Note_on_c, 0, 54, 0
1, 31680, Note_on_c, 0, 71, 40
1, 31680, Note_on_c, 0, 67, 32
1, 31750, Control_c, 0, 64, 0
1, 31800, Note_on_c, 0, 67, 0
1, 31800, Note_on_c, 0, 71, 0
1, 31800, Note_on_c, 0, 79, 0
1, 32160, Tempo, 697674
1, 32160, Note_on_c, 0, 85, 40
1, 32160, Note_on_c, 0, 78, 32
1, 32160, Note_on_c, 0, 82, 32
1, 32160, Note_on_c, 0, 64, 31
1, 32160, Note_on_c, 0, 54, 24
1, 32160, Note_on_c, 0, 61, 24
1, 32188, Control_c, 0, 64, 127
1, 32400, Tempo, 659341
1, 32400, Note_on_c, 0, 61, 0
1, 32400, Note_on_c, 0, 85, 0
1, 32400, Note_on_c, 0, 82, 0
1, 32400, Note_on_c, 0, 64, 0
1, 32400, Note_on_c, 0, 54, 0
1, 32400, Note_on_c, 0, 70, 33
1, 32400, Note_on_c, 0, 66, 26
1, 32640, Tempo, 779221
1, 32640, Note_on_c, 0, 66, 0
1, 32640, Note_on_c, 0, 70, 0
1, 32640, Note_on_c, 0, 78, 0
1, 32640, Note_on_c, 0, 76, 33
1, 32880, Tempo, 967742
1, 32880, Note_on_c, 0, 76, 0
1, 32880, Note_on_c, 0, 64, 32
1, 32880, Note_on_c, 0, 70, 32
1, 32880, Note_on_c, 0, 35, 37
1, 32901, Control_c, 0, 64, 0
1, 32979, Control_c, 0, 64, 127
1, 33120, Tempo, 769231
1, 33120, Note_on_c, 0, 35, 0
1, 33120, Note_on_c, 0, 70, 0
1, 33120, Note_on_c, 0, 73, 39
1, 33120, Note_on_c, 0, 42, 44
1, 33600, Tempo, 800000
1, 33600, Note_on_c, 0, 42, 0
1, 33600, Note_on_c, 0, 64, 0
1, 33600, Note_on_c, 0, 63, 39
1, 33600, Note_on_c, 0, 47, 39
1, 33840, Tempo, 750000
1, 33840, Note_on_c, 0, 47, 0
1, 33840, Note_on_c, 0, 63, 0
1, 33840, Note_on_c, 0, 66, 43
1, 33840, Note_on_c, 0, 51, 43
1, 34080, Tempo, 674157
1, 34320, Tempo, 759494
1, 34320, Note_on_c, 0, 51, 0
1, 34320, Note_on_c, 0, 73, 0
1, 34320, Note_on_c, 0, 71, 36
1, 34320, Note_on_c, 0, 35, 40
1, 34336, Control_c, 0, 64, 0
1, 34435, Control_c, 0, 64, 127
1, 34560, Tempo, 740741
1, 34560, Note_on_c, 0, 35, 0
1, 34560, Note_on_c, 0, 71, 0
1, 34560, Note_on_c, 0, 75, 39
1, 34560, Note_on_c, 0, 44, 47
1, 34800, Tempo, 681818
1, 35040, Tempo, 740741
1, 35040, Note_on_c, 0, 44, 0
1, 35040, Note_on_c, 0, 66, 0
1, 35040, Note_on_c, 0, 64, 41
1, 35040, Note_on_c, 0, 47, 39
1, 35280, Note_on_c, 0, 47, 0
1, 35280, Note_on_c, 0, 64, 0
1, 35280, Note_on_c, 0, 75, 0
1, 35280, Note_on_c, 0, 68, 45
1, 35280, Note_on_c, 0, 52, 43
1, 35520, Tempo, 689655
1, 35760, Tempo, 759494
1, 35760, Note_on_c, 0, 52, 0
1, 35760, Note_on_c, 0, 60, 40
1, 35760, Note_on_c, 0, 35, 40
1, 35779, Control_c, 0, 64, 0
1, 35880, Control_c, 0, 64, 127
1, 36000, Tempo, 740741
1, 36000, Note_on_c, 0, 35, 0
1, 36000, Note_on_c, 0, 60, 0
1, 36000, Note_on_c, 0, 68, 0
1, 36000, Note_on_c, 0, 63, 44
1, 36000, Note_on_c, 0, 41, 47
1, 36240, Tempo, 681818
1, 36480, Tempo, 740741
1, 36480, Note_on_c, 0, 41, 0
1, 36480, Note_on_c, 0, 53, 41
1, 36480, Note_on_c, 0, 44, 39
1, 36720, Note_on_c, 0, 44, 0
1, 36720, Note_on_c, 0, 53, 0
1, 36720, Note_on_c, 0, 56, 45
1, 36720, Note_on_c, 0, 47, 43
1, 36960, Tempo, 705882
1, 37200, Tempo, 759494
1, 37200, Note_on_c, 0, 47, 0
1, 37200, Note_on_c, 0, 63, 0
1, 37200, Note_on_c, 0, 61, 36
1, 37200, Note_on_c, 0, 35, 40
1, 37208, Control_c, 0, 64, 0
1, 37320, Control_c, 0, 64, 127
1, 37440, Tempo, 740741
1, 37440, Note_on_c, 0, 35, 0
1, 37440, Note_on_c, 0, 61, 0
1, 37440, Note_on_c, 0, 59, 44
1, 37440, Note_on_c, 0, 40, 47
1, 37680, Tempo, 697674
1, 37920, Tempo, 740741
1, 37920, Note_on_c, 0, 40, 0
1, 37920, Note_on_c, 0, 56, 0
1, 37920, Note_on_c, 0, 54, 36
1, 37920, Note_on_c, 0, 43, 33
1, 38160, Note_on_c, 0, 43, 0
1, 38160, Note_on_c, 0, 54, 0
1, 38160, Note_on_c, 0, 59, 0
1, 38160, Note_on_c, 0, 47, 27
1, 38160, Note_on_c, 0, 49, 27
1, 38160, Note_on_c, 0, 52, 33
1, 38176, Control_c, 0, 64, 0
1, 38400, Tempo, 731707
1, 38400, Note_on_c, 0, 58, 42
1, 38480, Control_c, 0, 64, 127
1, 38640, Note_on_c, 0, 58, 0
1, 38640, Note_on_c, 0, 70, 45
1, 38880, Tempo, 697674
1, 38880, Note_on_c, 0, 70, 0
1, 38880, Note_on_c, 0, 52, 0
1, 38880, Note_on_c, 0, 49, 0
1, 38880, Note_on_c, 0, 47, 0
1, 38880, Note_on_c, 0, 73, 49
1, 38880, Note_on_c, 0, 47, 42
1, 38885, Control_c, 0, 64, 0
1, 38965, Control_c, 0, 64, 127
1, 39120, Tempo, 659341
1, 39120, Note_on_c, 0, 47, 0
1, 39120, Note_on_c, 0, 51, 36
1, 39360, Tempo, 697674
1, 39360, Note_on_c, 0, 51, 0
1, 39360, Note_on_c, 0, 63, 36
1, 39600, Tempo, 645161
1, 39600, Note_on_c, 0, 63, 0
1, 39600, Note_on_c, 0, 73, 0
1, 39600, Note_on_c, 0, 66, 41
1, 39620, Control_c, 0, 64, 0
1, 39713, Control_c, 0, 64, 127
1, 39840, Tempo, 674157
1, 39840, Note_on_c, 0, 59, 40
1, 40080, Tempo, 697674
1, 40080, Note_on_c, 0, 59, 0
1, 40080, Note_on_c, 0, 71, 47
1, 40080, Note_on_c, 0, 35, 34
1, 40200, Note_on_c, 0, 35, 0
1, 40320, Tempo, 689655
1, 40320, Note_on_c, 0, 71, 0
1, 40320, Note_on_c, 0, 66, 0
1, 40320, Note_on_c, 0, 75, 50
1, 40320, Note_on_c, 0, 47, 43
1, 40320, Control_c, 0, 64, 0
1, 40447, Control_c, 0, 64, 127
1, 40560, Tempo, 659341
1, 40560, Note_on_c, 0, 47, 0
1, 40560, Note_on_c, 0, 52, 36
1, 40800, Tempo, 689655
1, 40800, Note_on_c, 0, 52, 0
1, 40800, Note_on_c, 0, 64, 36
1, 41040, Tempo, 652174
1, 41040, Note_on_c, 0, 64, 0
1, 41040, Note_on_c, 0, 75, 0
1, 41040, Note_on_c, 0, 68, 41
1, 41060, Control_c, 0, 64, 0
1, 41153, Control_c, 0, 64, 127
1, 41280, Tempo, 674157
1, 41280, Note_on_c, 0, 60, 48
1, 41520, Tempo, 705882
1, 41520, Note_on_c, 0, 60, 0
1, 41520, Note_on_c, 0, 72, 56
1, 41520, Note_on_c, 0, 35, 40
1, 41640, Note_on_c, 0, 35, 0
1, 41760, Tempo, 681818
1, 41760, Note_on_c, 0, 72, 0
1, 41760, Note_on_c, 0, 68, 0
1, 41760, Note_on_c, 0, 75, 60
1, 41760, Note_on_c, 0, 47, 51
1, 41760, Control_c, 0, 64, 0
1, 41859, Control_c, 0, 64, 127
1, 42000, Tempo, 652174
1, 42000, Note_on_c, 0, 47, 0
1, 42000, Note_on_c, 0, 53, 43
1, 42240, Tempo, 674157
1, 42240, Note_on_c, 0, 53, 0
1, 42240, Note_on_c, 0, 65, 43
1, 42480, Tempo, 705882
1, 42480, Note_on_c, 0, 65, 0
1, 42480, Note_on_c, 0, 75, 0
1, 42480, Note_on_c, 0, 68, 49
1, 42500, Control_c, 0, 64, 0
1, 42593, Control_c, 0, 64, 127
1, 42720, Note_on_c, 0, 61, 55
1, 42960, Tempo, 759494
1, 42960, Note_on_c, 0, 61, 0
1, 42960, Note_on_c, 0, 73, 63
1, 42960, Note_on_c, 0, 35, 50
1, 43080, Note_on_c, 0, 35, 0
1, 43200, Tempo, 697674
1, 43200, Note_on_c, 0, 73, 0
1, 43200, Note_on_c, 0, 68, 0
1, 43200, Note_on_c, 0, 80, 71
1, 43200, Note_on_c, 0, 47, 62
1, 43202, Control_c, 0, 64, 0
1, 43285, Control_c, 0, 64, 127
1, 43440, Tempo, 652174
1, 43440, Note_on_c, 0, 47, 0
1, 43440, Note_on_c, 0, 52, 52
1, 43680, Tempo, 689655
1, 43680, Note_on_c, 0, 52, 0
1, 43680, Note_on_c, 0, 64, 52
1, 43920, Tempo, 645161
1, 43920, Note_on_c, 0, 64, 0
1, 43920, Note_on_c, 0, 80, 0
1, 43920, Note_on_c, 0, 70, 66
1, 43940, Control_c, 0, 64, 0
1, 44033, Control_c, 0, 64, 127
1, 44160, Tempo, 666667
1, 44160, Note_on_c, 0, 66, 68
1, 44400, Tempo, 731707
1, 44400, Note_on_c, 0, 66, 0
1, 44400, Note_on_c, 0, 78, 74
1, 44400, Note_on_c, 0, 35, 46
1, 44520, Note_on_c, 0, 35, 0
1, 44640, Tempo, 689655
1, 44640, Note_on_c, 0, 78, 0
1, 44640, Note_on_c, 0, 70, 0
1, 44640, Note_on_c, 0, 76, 80
1, 44640, Note_on_c, 0, 47, 66
1, 44640, Control_c, 0, 64, 0
1, 44766, Control_c, 0, 64, 127
1, 44880, Tempo, 705882
1, 44880, Note_on_c, 0, 47, 0
1, 44880, Note_on_c, 0, 54, 57
1, 45120, Tempo, 697674
1, 45120, Note_on_c, 0, 54, 0
1, 45120, Note_on_c, 0, 66, 57
1, 45360, Tempo, 705882
1, 45360, Note_on_c, 0, 66, 0
1, 45360, Note_on_c, 0, 76, 0
1, 45360, Note_on_c, 0, 69, 66
1, 45360, Note_on_c, 0, 35, 46
1, 45380, Control_c, 0, 64, 0
1, 45473, Control_c, 0, 64, 127
1, 45600, Note_on_c, 0, 63, 68
1, 45840, Tempo, 731707
1, 45840, Note_on_c, 0, 63, 0
1, 45840, Note_on_c, 0, 75, 73
1, 46080, Tempo, 689655
1, 46080, Note_on_c, 0, 75, 0
1, 46080, Note_on_c, 0, 35, 0
1, 46080, Note_on_c, 0, 69, 0
1, 46080, Note_on_c, 0, 72, 80
1, 46080, Note_on_c, 0, 47, 66
1, 46084, Control_c, 0, 64, 0
1, 46280, Control_c, 0, 64, 127
1, 46320, Tempo, 697674
1, 46320, Note_on_c, 0, 47, 0
1, 46320, Note_on_c, 0, 54, 57
1, 46560, Tempo, 689655
1, 46560, Note_on_c, 0, 54, 0
1, 46560, Note_on_c, 0, 64, 57
1, 46800, Tempo, 705882
1, 46800, Note_on_c, 0, 64, 0
1, 46800, Note_on_c, 0, 72, 0
1, 46800, Note_on_c, 0, 63, 66
1, 46800, Note_on_c, 0, 35, 46
1, 46820, Control_c, 0, 64, 0
1, 47027, Control_c, 0, 64, 127
1, 47040, Note_on_c, 0, 57, 68
1, 47280, Tempo, 731707
1, 47280, Note_on_c, 0, 57, 0
1, 47280, Note_on_c, 0, 69, 73
1, 47520, Tempo, 689655
1, 47520, Note_on_c, 0, 69, 0
1, 47520, Note_on_c, 0, 35, 0
1, 47520, Note_on_c, 0, 63, 0
1, 47520, Note_on_c, 0, 66, 81
1, 47520, Note_on_c, 0, 48, 66
1, 47528, Control_c, 0, 64, 0
1, 47720, Control_c, 0, 64, 127
1, 47760, Note_on_c, 0, 57, 57
1, 48000, Note_on_c, 0, 57, 0
1, 48000, Note_on_c, 0, 48, 0
1, 48000, Note_on_c, 0, 64, 57
1, 48240, Tempo, 705882
1, 48240, Note_on_c, 0, 64, 0
1, 48240, Note_on_c, 0, 66, 0
1, 48240, Note_on_c, 0, 63, 66
1, 48240, Note_on_c, 0, 47, 46
1, 48260, Control_c, 0, 64, 0
1, 48440, Control_c, 0, 64, 127
1, 48480, Note_on_c, 0, 57, 68
1, 48720, Tempo, 731707
1, 48720, Note_on_c, 0, 57, 0
1, 48720, Note_on_c, 0, 47, 0
1, 48720, Note_on_c, 0, 69, 73
1, 48960, Tempo, 689655
1, 48960, Note_on_c, 0, 69, 0
1, 48960, Note_on_c, 0, 63, 0
1, 48960, Note_on_c, 0, 72, 81
1, 48960, Note_on_c, 0, 45, 66
1, 48966, Control_c, 0, 64, 0
1, 49160, Control_c, 0, 64, 127
1, 49200, Note_on_c, 0, 54, 57
1, 49440, Note_on_c, 0, 54, 0
1, 49440, Note_on_c, 0, 45, 0
1, 49440, Note_on_c, 0, 64, 57
1, 49680, Tempo, 705882
1, 49680, Note_on_c, 0, 64, 0
1, 49680, Note_on_c, 0, 72, 0
1, 49680, Note_on_c, 0, 63, 66
1, 49680, Note_on_c, 0, 47, 46
1, 49700, Control_c, 0, 64, 0
1, 49827, Control_c, 0, 64, 127
1, 49920, Note_on_c, 0, 57, 68
1, 50160, Tempo, 731707
1, 50160, Note_on_c, 0, 57, 0
1, 50160, Note_on_c, 0, 47, 0
1, 50160, Note_on_c, 0, 69, 73
1, 50400, Tempo, 689655
1, 50400, Note_on_c, 0, 69, 0
1, 50400, Note_on_c, 0, 63, 0
1, 50400, Note_on_c, 0, 66, 81
1, 50400, Note_on_c, 0, 48, 66
1, 50407, Control_c, 0, 64, 0
1, 50600, Control_c, 0, 64, 127
1, 50640, Note_on_c, 0, 57, 57
1, 50880, Note_on_c, 0, 57, 0
1, 50880, Note_on_c, 0, 48, 0
1, 50880, Note_on_c, 0, 64, 57
1, 51120, Tempo, 705882
1, 51120, Note_on_c, 0, 64, 0
1, 51120, Note_on_c, 0, 66, 0
1, 51120, Note_on_c, 0, 63, 66
1, 51120, Note_on_c, 0, 47, 46
1, 51140, Control_c, 0, 64, 0
1, 51307, Control_c, 0, 64, 127
1, 51360, Note_on_c, 0, 57, 68
1, 51600, Tempo, 731707
1, 51600, Note_on_c, 0, 57, 0
1, 51600, Note_on_c, 0, 47, 0
1, 51600, Note_on_c, 0, 69, 73
1, 51840, Note_on_c, 0, 69, 0
1, 51840, Note_on_c, 0, 63, 0
1, 51840, Note_on_c, 0, 72, 81
1, 51840, Note_on_c, 0, 45, 66
1, 51849, Control_c, 0, 64, 0
1, 51988, Control_c, 0, 64, 127
1, 52080, Tempo, 705882
1, 52080, Note_on_c, 0, 54, 57
1, 52320, Tempo, 759494
1, 52320, Note_on_c, 0, 54, 0
1, 52320, Note_on_c, 0, 45, 0
1, 52320, Note_on_c, 0, 64, 57
1, 52440, Note_on_c, 0, 64, 0
1, 52560, Tempo, 731707
1, 52560, Note_on_c, 0, 42, 66
1, 52800, Note_on_c, 0, 57, 57
1, 53040, Note_on_c, 0, 57, 0
1, 53040, Note_on_c, 0, 42, 0
1, 53040, Note_on_c, 0, 64, 57
1, 53160, Note_on_c, 0, 64, 0
1, 53280, Note_on_c, 0, 47, 48
1, 53295, Control_c, 0, 64, 0
1, 53413, Control_c, 0, 64, 127
1, 53520, Tempo, 789474
1, 53520, Note_on_c, 0, 47, 0
1, 53520, Note_on_c, 0, 72, 0
1, 53520, Note_on_c, 0, 57, 39
1, 53760, Tempo, 722892
1, 53760, Note_on_c, 0, 57, 0
1, 53760, Note_on_c, 0, 71, 44
1, 53760, Note_on_c, 0, 69, 37
1, 53760, Note_on_c, 0, 63, 37
1, 54000, Note_on_c, 0, 63, 0
1, 54000, Note_on_c, 0, 69, 0
1, 54000, Note_on_c, 0, 71, 0
1, 54000, Note_on_c, 0, 66, 37
1, 54240, Tempo, 759494
1, 54240, Note_on_c, 0, 66, 0
1, 54240, Note_on_c, 0, 59, 27
1, 54256, Control_c, 0, 64, 0
1, 54422, Control_c, 0, 64, 127
1, 54480, Tempo, 722892
1, 54480, Note_on_c, 0, 59, 0
1, 54480, Note_on_c, 0, 71, 43
1, 54480, Note_on_c, 0, 69, 36
1, 54480, Note_on_c, 0, 64, 36
1, 54720, Note_on_c, 0, 64, 0
1, 54720, Note_on_c, 0, 69, 0
1, 54720, Note_on_c, 0, 71, 0
1, 54720, Note_on_c, 0, 72, 36
1, 54960, Tempo, 769231
1, 54960, Note_on_c, 0, 72, 0
1, 54960, Note_on_c, 0, 57, 27
1, 54960, Note_on_c, 0, 47, 23
1, 54985, Control_c, 0, 64, 0
1, 55134, Control_c, 0, 64, 127
1, 55200, Tempo, 722892
1, 55200, Note_on_c, 0, 47, 0
1, 55200, Note_on_c, 0, 57, 0
1, 55200, Note_on_c, 0, 71, 42
1, 55200, Note_on_c, 0, 69, 35
1, 55200, Note_on_c, 0, 63, 35
1, 55440, Note_on_c, 0, 63, 0
1, 55440, Note_on_c, 0, 69, 0
1, 55440, Note_on_c, 0, 71, 0
1, 55440, Note_on_c, 0, 66, 37
1, 55680, Tempo, 740741
1, 55680, Note_on_c, 0, 66, 0
1, 55680, Note_on_c, 0, 59, 26
1, 55692, Control_c, 0, 64, 0
1, 55804, Control_c, 0, 64, 127
1, 55920, Tempo, 722892
1, 55920, Note_on_c, 0, 59, 0
1, 55920, Note_on_c, 0, 75, 40
1, 55920, Note_on_c, 0, 72, 34
1, 55920, Note_on_c, 0, 67, 34
1, 56160, Note_on_c, 0, 67, 0
1, 56160, Note_on_c, 0, 72, 0
1, 56160, Note_on_c, 0, 75, 0
1, 56160, Note_on_c, 0, 76, 35
1, 56400, Tempo, 740741
1, 56400, Note_on_c, 0, 76, 0
1, 56400, Note_on_c, 0, 47, 15
1, 56400, Note_on_c, 0, 57, 21
1, 56417, Control_c, 0, 64, 0
1, 56516, Control_c, 0, 64, 127
1, 56640, Tempo, 722892
1, 56640, Note_on_c, 0, 57, 0
1, 56640, Note_on_c, 0, 47, 0
1, 56640, Note_on_c, 0, 75, 37
1, 56640, Note_on_c, 0, 72, 31
1, 56640, Note_on_c, 0, 66, 31
1, 56880, Note_on_c, 0, 66, 0
1, 56880, Note_on_c, 0, 72, 0
1, 56880, Note_on_c, 0, 75, 0
1, 56880, Note_on_c, 0, 69, 32
1, 57120, Tempo, 750000
1, 57120, Note_on_c, 0, 69, 0
1, 57120, Note_on_c, 0, 59, 21
1, 57134, Control_c, 0, 64, 0
1, 57203, Control_c, 0, 64, 127
1, 57360, Tempo, 722892
1, 57360, Note_on_c, 0, 59, 0
1, 57360, Note_on_c, 0, 75, 34
1, 57360, Note_on_c, 0, 72, 29
1, 57360, Note_on_c, 0, 67, 29
1, 57600, Note_on_c, 0, 67, 0
1, 57600, Note_on_c, 0, 72, 0
1, 57600, Note_on_c, 0, 75, 0
1, 57600, Note_on_c, 0, 76, 29
1, 57840, Tempo, 750000
1, 57840, Note_on_c, 0, 76, 0
1, 57840, Note_on_c, 0, 47, 13
1, 57840, Note_on_c, 0, 57, 17
1, 57853, Control_c, 0, 64, 0
1, 57989, Control_c, 0, 64, 127
1, 58080, Tempo, 722892
1, 58080, Note_on_c, 0, 57, 0
1, 58080, Note_on_c, 0, 47, 0
1, 58080, Note_on_c, 0, 75, 30
1, 58080, Note_on_c, 0, 72, 26
1, 58080, Note_on_c, 0, 66, 26
1, 58320, Note_on_c, 0, 66, 0
1, 58320, Note_on_c, 0, 72, 0
1, 58320, Note_on_c, 0, 75, 0
1, 58320, Note_on_c, 0, 69, 26
1, 58560, Tempo, 810811
1, 58560, Note_on_c, 0, 69, 0
1, 58560, Note_on_c, 0, 59, 22
1, 58569, Control_c, 0, 64, 0
1, 58800, Tempo, 740741
1, 58800, Note_on_c, 0, 59, 0
1, 58800, Note_on_c, 0, 76, 31
1, 58800, Note_on_c, 0, 64, 24
1, 58800, Note_on_c, 0, 72, 24
1, 58800, Note_on_c, 0, 69, 24
1, 58800, Note_on_c, 0, 57, 19
1, 58800, Note_on_c, 0, 60, 19
1, 59040, Tempo, 750000
1, 59040, Note_on_c, 0, 60, 0
1, 59040, Note_on_c, 0, 64, 0
1, 59040, Note_on_c, 0, 72, 0
1, 59040, Note_on_c, 0, 76, 0
1, 59040, Note_on_c, 0, 57, 0
1, 59040, Note_on_c, 0, 69, 0
1, 59040, Note_on_c, 0, 77, 26
1, 59040, Note_on_c, 0, 56, 20
1, 59091, Control_c, 0, 64, 0
1, 59160, Note_on_c, 0, 56, 0
1, 59160, Note_on_c, 0, 77, 0
1, 59280, Tempo, 697674
1, 59520, Tempo, 750000
1, 59520, Note_on_c, 0, 84, 32
1, 59520, Note_on_c, 0, 76, 25
1, 59520, Note_on_c, 0, 81, 25
1, 59520, Note_on_c, 0, 57, 24
1, 59520, Note_on_c, 0, 48, 19
1, 59520, Note_on_c, 0, 52, 19
1, 59566, Control_c, 0, 64, 127
1, 59760, Tempo, 750000
1, 59760, Note_on_c, 0, 52, 0
1, 59760, Note_on_c, 0, 76, 0
1, 59760, Note_on_c, 0, 81, 0
1, 59760, Note_on_c, 0, 84, 0
1, 59760, Note_on_c, 0, 48, 0
1, 59760, Note_on_c, 0, 57, 0
1, 59760, Note_on_c, 0, 75, 26
1, 59760, Note_on_c, 0, 59, 20
1, 59852, Control_c, 0, 64, 0
1, 59880, Note_on_c, 0, 59, 0
1, 59880, Note_on_c, 0, 75, 0
1, 60000, Tempo, 697674
1, 60240, Tempo, 740741
1, 60240, Note_on_c, 0, 76, 31
1, 60240, Note_on_c, 0, 64, 24
1, 60240, Note_on_c, 0, 72, 24
1, 60240, Note_on_c, 0, 69, 24
1, 60240, Note_on_c, 0, 57, 19
1, 60240, Note_on_c, 0, 60, 19
1, 60257, Control_c, 0, 64, 127
1, 60480, Tempo, 750000
1, 60480, Note_on_c, 0, 60, 0
1, 60480, Note_on_c, 0, 64, 0
1, 60480, Note_on_c, 0, 72, 0
1, 60480, Note_on_c, 0, 76, 0
1, 60480, Note_on_c, 0, 57, 0
1, 60480, Note_on_c, 0, 69, 0
1, 60480, Note_on_c, 0, 77, 26
1, 60480, Note_on_c, 0, 56, 20
1, 60549, Control_c, 0, 64, 0
1, 60600, Note_on_c, 0, 56, 0
1, 60600, Note_on_c, 0, 77, 0
1, 60960, Tempo, 731707
1, 60960, Note_on_c, 0, 84, 32
1, 60960, Note_on_c, 0, 75, 25
1, 60960, Note_on_c, 0, 81, 25
1, 60960, Note_on_c, 0, 57, 24
1, 60960, Note_on_c, 0, 48, 19
1, 60960, Note_on_c, 0, 54, 19
1, 61012, Control_c, 0, 64, 127
1, 61200, Tempo, 759494
1, 61200, Note_on_c, 0, 54, 0
1, 61200, Note_on_c, 0, 75, 0
1, 61200, Note_on_c, 0, 81, 0
1, 61200, Note_on_c, 0, 84, 0
1, 61200, Note_on_c, 0, 48, 0
1, 61200, Note_on_c, 0, 57, 0
1, 61200, Note_on_c, 0, 69, 26
1, 61200, Note_on_c, 0, 63, 20
1, 61275, Control_c, 0, 64, 0
1, 61320, Note_on_c, 0, 63, 0
1, 61320, Note_on_c, 0, 69, 0
1, 61440, Tempo, 714286
1, 61680, Tempo, 740741
1, 61680, Note_on_c, 0, 74, 33
1, 61680, Note_on_c, 0, 62, 27
1, 61680, Note_on_c, 0, 71, 27
1, 61680, Note_on_c, 0, 67, 27
1, 61680, Note_on_c, 0, 55, 20
1, 61680, Note_on_c, 0, 59, 20
1, 61732, Control_c, 0, 64, 127
1, 61920, Tempo, 750000
1, 61920, Note_on_c, 0, 59, 0
1, 61920, Note_on_c, 0, 62, 0
1, 61920, Note_on_c, 0, 71, 0
1, 61920, Note_on_c, 0, 74, 0
1, 61920, Note_on_c, 0, 55, 0
1, 61920, Note_on_c, 0, 67, 0
1, 61920, Note_on_c, 0, 75, 28
1, 61920, Note_on_c, 0, 54, 21
1, 61995, Control_c, 0, 64, 0
1, 62040, Note_on_c, 0, 54, 0
1, 62040, Note_on_c, 0, 75, 0
1, 62160, Tempo, 697674
1, 62400, Tempo, 750000
1, 62400, Note_on_c, 0, 83, 33
1, 62400, Note_on_c, 0, 74, 26
1, 62400, Note_on_c, 0, 79, 26
1, 62400, Note_on_c, 0, 55, 25
1, 62400, Note_on_c, 0, 47, 20
1, 62400, Note_on_c, 0, 50, 20
1, 62412, Control_c, 0, 64, 127
1, 62640, Tempo, 740741
1, 62640, Note_on_c, 0, 50, 0
1, 62640, Note_on_c, 0, 74, 0
1, 62640, Note_on_c, 0, 79, 0
1, 62640, Note_on_c, 0, 83, 0
1, 62640, Note_on_c, 0, 47, 0
1, 62640, Note_on_c, 0, 55, 0
1, 62640, Note_on_c, 0, 73, 27
1, 62640, Note_on_c, 0, 57, 21
1, 62726, Control_c, 0, 64, 0
1, 62760, Note_on_c, 0, 57, 0
1, 62760, Note_on_c, 0, 73, 0
1, 62880, Tempo, 697674
1, 63120, Tempo, 750000
1, 63120, Note_on_c, 0, 74, 31
1, 63120, Note_on_c, 0, 62, 24
1, 63120, Note_on_c, 0, 71, 24
1, 63120, Note_on_c, 0, 67, 24
1, 63120, Note_on_c, 0, 55, 19
1, 63120, Note_on_c, 0, 59, 19
1, 63177, Control_c, 0, 64, 127
1, 63360, Tempo, 740741
1, 63360, Note_on_c, 0, 59, 0
1, 63360, Note_on_c, 0, 62, 0
1, 63360, Note_on_c, 0, 71, 0
1, 63360, Note_on_c, 0, 74, 0
1, 63360, Note_on_c, 0, 55, 0
1, 63360, Note_on_c, 0, 67, 0
1, 63360, Note_on_c, 0, 75, 26
1, 63360, Note_on_c, 0, 54, 20
1, 63452, Control_c, 0, 64, 0
1, 63480, Note_on_c, 0, 54, 0
1, 63480, Note_on_c, 0, 75, 0
1, 63600, Tempo, 705882
1, 63840, Tempo, 740741
1, 63840, Note_on_c, 0, 82, 35
1, 63840, Note_on_c, 0, 73, 27
1, 63840, Note_on_c, 0, 79, 27
1, 63840, Note_on_c, 0, 55, 26
1, 63840, Note_on_c, 0, 46, 20
1, 63840, Note_on_c, 0, 52, 20
1, 63897, Control_c, 0, 64, 127
1, 64080, Tempo, 740741
1, 64080, Note_on_c, 0, 52, 0
1, 64080, Note_on_c, 0, 73, 0
1, 64080, Note_on_c, 0, 79, 0
1, 64080, Note_on_c, 0, 82, 0
1, 64080, Note_on_c, 0, 46, 0
1, 64080, Note_on_c, 0, 55, 0
1, 64080, Note_on_c, 0, 67, 28
1, 64080, Note_on_c, 0, 61, 22
1, 64149, Control_c, 0, 64, 0
1, 64200, Note_on_c, 0, 61, 0
1, 64200, Note_on_c, 0, 67, 0
1, 64320, Tempo, 769231
1, 64560, Tempo, 705882
1, 64560, Note_on_c, 0, 72, 60
1, 64560, Note_on_c, 0, 60, 46
1, 64560, Note_on_c, 0, 69, 46
1, 64560, Note_on_c, 0, 65, 43
1, 64560, Note_on_c, 0, 53, 33
1, 64560, Note_on_c, 0, 57, 33
1, 64629, Control_c, 0, 64, 127
1, 64800, Tempo, 750000
1, 64800, Note_on_c, 0, 57, 0
1, 64800, Note_on_c, 0, 60, 0
1, 64800, Note_on_c, 0, 69, 0
1, 64800, Note_on_c, 0, 72, 0
1, 64800, Note_on_c, 0, 53, 0
1, 64800, Note_on_c, 0, 65, 0
1, 64800, Note_on_c, 0, 73, 54
1, 64800, Note_on_c, 0, 52, 37
1, 64835, Control_c, 0, 64, 0
1, 64980, Note_on_c, 0, 52, 0
1, 64980, Note_on_c, 0, 73, 0
1, 65280, Tempo, 779221
1, 65280, Note_on_c, 0, 72, 62
1, 65280, Note_on_c, 0, 65, 49
1, 65280, Note_on_c, 0, 69, 49
1, 65280, Note_on_c, 0, 60, 54
1, 65280, Note_on_c, 0, 53, 42
1, 65280, Note_on_c, 0, 57, 42
1, 65349, Control_c, 0, 64, 127
1, 65520, Note_on_c, 0, 57, 0
1, 65520, Note_on_c, 0, 65, 0
1, 65520, Note_on_c, 0, 69, 0
1, 65520, Note_on_c, 0, 72, 0
1, 65520, Note_on_c, 0, 53, 0
1, 65520, Note_on_c, 0, 60, 0
1, 65520, Note_on_c, 0, 74, 55
1, 65520, Note_on_c, 0, 52, 44
1, 65555, Control_c, 0, 64, 0
1, 65700, Note_on_c, 0, 52, 0
1, 65700, Note_on_c, 0, 74, 0
1, 65760, Tempo, 769231
1, 66000, Note_on_c, 0, 81, 72
1, 66000, Note_on_c, 0, 72, 57
1, 66000, Note_on_c, 0, 77, 57
1, 66000, Note_on_c, 0, 53, 58
1, 66000, Note_on_c, 0, 45, 46
1, 66000, Note_on_c, 0, 48, 46
1, 66057, Control_c, 0, 64, 127
1, 66240, Note_on_c, 0, 48, 0
1, 66240, Note_on_c, 0, 72, 0
1, 66240, Note_on_c, 0, 77, 0
1, 66240, Note_on_c, 0, 81, 0
1, 66240, Note_on_c, 0, 45, 0
1, 66240, Note_on_c, 0, 53, 0
1, 66240, Note_on_c, 0, 71, 66
1, 66240, Note_on_c, 0, 56, 52
1, 66309, Control_c, 0, 64, 0
1, 66420, Note_on_c, 0, 56, 0
1, 66420, Note_on_c, 0, 71, 0
1, 66720, Tempo, 821918
1, 66720, Note_on_c, 0, 77, 74
1, 66720, Note_on_c, 0, 69, 58
1, 66720, Note_on_c, 0, 72, 58
1, 66720, Note_on_c, 0, 57, 62
1, 66720, Note_on_c, 0, 48, 49
1, 66720, Note_on_c, 0, 53, 49
1, 66777, Control_c, 0, 64, 127
1, 66960, Note_on_c, 0, 53, 0
1, 66960, Note_on_c, 0, 69, 0
1, 66960, Note_on_c, 0, 72, 0
1, 66960, Note_on_c, 0, 77, 0
1, 66960, Note_on_c, 0, 48, 0
1, 66960, Note_on_c, 0, 57, 0
1, 66960, Note_on_c, 0, 67, 67
1, 66960, Note_on_c, 0, 59, 56
1, 67029, Control_c, 0, 64, 0
1, 67140, Note_on_c, 0, 59, 0
1, 67140, Note_on_c, 0, 67, 0
1, 67440, Tempo, 857143
1, 67440, Note_on_c, 0, 69, 53
1, 67440, Note_on_c, 0, 65, 63
1, 67440, Note_on_c, 0, 72, 60
1, 67440, Note_on_c, 0, 53, 48
1, 67440, Note_on_c, 0, 57, 47
1, 67440, Note_on_c, 0, 60, 52
1, 67476, Control_c, 0, 64, 127
1, 67680, Tempo, 810811
1, 67680, Note_on_c, 0, 65, 0
1, 67680, Note_on_c, 0, 64, 69
1, 67696, Control_c, 0, 64, 0
1, 67840, Control_c, 0, 64, 127
1, 68400, Note_on_c, 0, 64, 0
1, 68400, Note_on_c, 0, 53, 0
1, 68400, Note_on_c, 0, 63, 66
1, 68400, Note_on_c, 0, 54, 48
1, 68410, Control_c, 0, 64, 0
1, 68640, Tempo, 882353
1, 68640, Control_c, 0, 64, 127
1, 68880, Tempo, 845070
1, 68880, Note_on_c, 0, 57, 0
1, 68880, Note_on_c, 0, 72, 0
1, 68880, Note_on_c, 0, 69, 0
1, 68880, Note_on_c, 0, 60, 0
1, 68880, Note_on_c, 0, 72, 50
1, 68880, Note_on_c, 0, 57, 42
1, 69120, Note_on_c, 0, 57, 0
1, 69120, Note_on_c, 0, 72, 0
1, 69120, Note_on_c, 0, 71, 50
1, 69120, Note_on_c, 0, 59, 42
1, 69129, Control_c, 0, 64, 0
1, 69254, Control_c, 0, 64, 127
1, 69360, Tempo, 882353
1, 69840, Tempo, 882353
1, 69840, Note_on_c, 0, 59, 0
1, 69840, Note_on_c, 0, 71, 0
1, 69840, Note_on_c, 0, 63, 0
1, 69840, Note_on_c, 0, 64, 38
1, 69840, Note_on_c, 0, 70, 45
1, 69840, Note_on_c, 0, 61, 37
1, 69855, Control_c, 0, 64, 0
1, 70014, Control_c, 0, 64, 127
1, 70320, Tempo, 821918
1, 70320, Note_on_c, 0, 61, 0
1, 70320, Note_on_c, 0, 54, 0
1, 70320, Note_on_c, 0, 64, 0
1, 70320, Note_on_c, 0, 70, 0
1, 70320, Note_on_c, 0, 70, 36
1, 70320, Note_on_c, 0, 35, 40
1, 70330, Control_c, 0, 64, 0
1, 70435, Control_c, 0, 64, 127
1, 70560, Tempo, 769231
1, 70560, Note_on_c, 0, 35, 0
1, 70560, Note_on_c, 0, 70, 0
1, 70560, Note_on_c, 0, 73, 39
1, 70560, Note_on_c, 0, 42, 44
1, 71040, Tempo, 800000
1, 71040, Note_on_c, 0, 42, 0
1, 71040, Note_on_c, 0, 63, 39
1, 71040, Note_on_c, 0, 47, 39
1, 71280, Tempo, 750000
1, 71280, Note_on_c, 0, 47, 0
1, 71280, Note_on_c, 0, 63, 0
1, 71280, Note_on_c, 0, 66, 43
1, 71280, Note_on_c, 0, 51, 43
1, 71520, Tempo, 674157
1, 71760, Tempo, 759494
1, 71760, Note_on_c, 0, 51, 0
1, 71760, Note_on_c, 0, 73, 0
1, 71760, Note_on_c, 0, 71, 36
1, 71760, Note_on_c, 0, 35, 40
1, 71776, Control_c, 0, 64, 0
1, 71875, Control_c, 0, 64, 127
1, 72000, Note_on_c, 0, 35, 0
1, 72000, Note_on_c, 0, 71, 0
1, 72000, Note_on_c, 0, 75, 39
1, 72000, Note_on_c, 0, 44, 47
1, 72240, Tempo, 714286
1, 72480, Tempo, 740741
1, 72480, Note_on_c, 0, 44, 0
1, 72480, Note_on_c, 0, 66, 0
1, 72480, Note_on_c, 0, 64, 41
1, 72480, Note_on_c, 0, 47, 39
1, 72720, Note_on_c, 0, 47, 0
1, 72720, Note_on_c, 0, 64, 0
1, 72720, Note_on_c, 0, 75, 0
1, 72720, Note_on_c, 0, 68, 45
1, 72720, Note_on_c, 0, 52, 43
1, 72960, Tempo, 689655
1, 73200, Tempo, 759494
1, 73200, Note_on_c, 0, 52, 0
1, 73200, Note_on_c, 0, 60, 40
1, 73200, Note_on_c, 0, 35, 40
1, 73219, Control_c, 0, 64, 0
1, 73320, Control_c, 0, 64, 127
1, 73440, Tempo, 740741
1, 73440, Note_on_c, 0, 35, 0
1, 73440, Note_on_c, 0, 60, 0
1, 73440, Note_on_c, 0, 68, 0
1, 73440, Note_on_c, 0, 63, 44
1, 73440, Note_on_c, 0, 41, 47
1, 73680, Tempo, 681818
1, 73920, Tempo, 740741
1, 73920, Note_on_c, 0, 41, 0
1, 73920, Note_on_c, 0, 53, 41
1, 73920, Note_on_c, 0, 44, 39
1, 74160, Note_on_c, 0, 44, 0
1, 74160, Note_on_c, 0, 53, 0
1, 74160, Note_on_c, 0, 56, 45
1, 74160, Note_on_c, 0, 47, 43
1, 74400, Tempo, 705882
1, 74640, Tempo, 821918
1, 74640, Note_on_c, 0, 47, 0
1, 74640, Note_on_c, 0, 63, 0
1, 74640, Note_on_c, 0, 61, 36
1, 74640, Note_on_c, 0, 35, 40
1, 74648, Control_c, 0, 64, 0
1, 74752, Control_c, 0, 64, 127
1, 74880, Tempo, 740741
1, 74880, Note_on_c, 0, 35, 0
1, 74880, Note_on_c, 0, 61, 0
1, 74880, Note_on_c, 0, 59, 44
1, 74880, Note_on_c, 0, 40, 47
1, 75120, Tempo, 689655
1, 75360, Tempo, 740741
1, 75360, Note_on_c, 0, 40, 0
1, 75360, Note_on_c, 0, 56, 0
1, 75360, Note_on_c, 0, 54, 36
1, 75360, Note_on_c, 0, 43, 33
1, 75600, Tempo, 659341
1, 75600, Note_on_c, 0, 43, 0
1, 75600, Note_on_c, 0, 54, 0
1, 75600, Note_on_c, 0, 59, 0
1, 75600, Note_on_c, 0, 49, 27
1, 75600, Note_on_c, 0, 52, 33
1, 75600, Note_on_c, 0, 47, 27
1, 75619, Control_c, 0, 64, 0
1, 75840, Tempo, 731707
1, 75840, Note_on_c, 0, 58, 42
1, 75886, Control_c, 0, 64, 127
1, 76080, Note_on_c, 0, 58, 0
1, 76080, Note_on_c, 0, 70, 45
1, 76320, Tempo, 697674
1, 76320, Note_on_c, 0, 70, 0
1, 76320, Note_on_c, 0, 47, 0
1, 76320, Note_on_c, 0, 52, 0
1, 76320, Note_on_c, 0, 49, 0
1, 76320, Note_on_c, 0, 73, 49
1, 76320, Note_on_c, 0, 47, 42
1, 76320, Control_c, 0, 64, 0
1, 76405, Control_c, 0, 64, 127
1, 76560, Tempo, 638298
1, 76560, Note_on_c, 0, 47, 0
1, 76560, Note_on_c, 0, 51, 36
1, 76800, Tempo, 697674
1, 76800, Note_on_c, 0, 51, 0
1, 76800, Note_on_c, 0, 63, 36
1, 77040, Tempo, 645161
1, 77040, Note_on_c, 0, 63, 0
1, 77040, Note_on_c, 0, 73, 0
1, 77040, Note_on_c, 0, 66, 41
1, 77060, Control_c, 0, 64, 0
1, 77153, Control_c, 0, 64, 127
1, 77280, Tempo, 674157
1, 77280, Note_on_c, 0, 59, 40
1, 77520, Tempo, 697674
1, 77520, Note_on_c, 0, 59, 0
1, 77520, Note_on_c, 0, 71, 47
1, 77520, Note_on_c, 0, 35, 34
1, 77640, Note_on_c, 0, 35, 0
1, 77760, Tempo, 689655
1, 77760, Note_on_c, 0, 71, 0
1, 77760, Note_on_c, 0, 66, 0
1, 77760, Note_on_c, 0, 75, 50
1, 77760, Note_on_c, 0, 47, 43
1, 77770, Control_c, 0, 64, 0
1, 77887, Control_c, 0, 64, 127
1, 78000, Tempo, 659341
1, 78000, Note_on_c, 0, 47, 0
1, 78000, Note_on_c, 0, 52, 36
1, 78240, Tempo, 689655
1, 78240, Note_on_c, 0, 52, 0
1, 78240, Note_on_c, 0, 64, 36
1, 78480, Tempo, 631579
1, 78480, Note_on_c, 0, 64, 0
1, 78480, Note_on_c, 0, 75, 0
1, 78480, Note_on_c, 0, 68, 41
1, 78500, Control_c, 0, 64, 0
1, 78593, Control_c, 0, 64, 127
1, 78720, Tempo, 674157
1, 78720, Note_on_c, 0, 60, 48
1, 78960, Tempo, 705882
1, 78960, Note_on_c, 0, 60, 0
1, 78960, Note_on_c, 0, 72, 56
1, 78960, Note_on_c, 0, 35, 40
1, 79080, Note_on_c, 0, 35, 0
1, 79200, Tempo, 681818
1, 79200, Note_on_c, 0, 72, 0
1, 79200, Note_on_c, 0, 68, 0
1, 79200, Note_on_c, 0, 75, 60
1, 79200, Note_on_c, 0, 47, 51
1, 79206, Control_c, 0, 64, 0
1, 79292, Control_c, 0, 64, 127
1, 79440, Tempo, 652174
1, 79440, Note_on_c, 0, 47, 0
1, 79440, Note_on_c, 0, 53, 43
1, 79680, Tempo, 674157
1, 79680, Note_on_c, 0, 53, 0
1, 79680, Note_on_c, 0, 65, 43
1, 79920, Tempo, 722892
1, 79920, Note_on_c, 0, 65, 0
1, 79920, Note_on_c, 0, 75, 0
1, 79920, Note_on_c, 0, 68, 49
1, 79940, Control_c, 0, 64, 0
1, 80033, Control_c, 0, 64, 127
1, 80160, Tempo, 697674
1, 80160, Note_on_c, 0, 61, 55
1, 80400, Tempo, 759494
1, 80400, Note_on_c, 0, 61, 0
1, 80400, Note_on_c, 0, 73, 63
1, 80400, Note_on_c, 0, 35, 50
1, 80520, Note_on_c, 0, 35, 0
1, 80640, Tempo, 697674
1, 80640, Note_on_c, 0, 73, 0
1, 80640, Note_on_c, 0, 68, 0
1, 80640, Note_on_c, 0, 80, 73
1, 80640, Note_on_c, 0, 47, 62
1, 80647, Control_c, 0, 64, 0
1, 80774, Control_c, 0, 64, 127
1, 80880, Tempo, 652174
1, 80880, Note_on_c, 0, 47, 0
1, 80880, Note_on_c, 0, 52, 52
1, 81120, Tempo, 689655
1, 81120, Note_on_c, 0, 52, 0
1, 81120, Note_on_c, 0, 64, 52
1, 81360, Tempo, 645161
1, 81360, Note_on_c, 0, 64, 0
1, 81360, Note_on_c, 0, 80, 0
1, 81360, Note_on_c, 0, 70, 66
1, 81380, Control_c, 0, 64, 0
1, 81473, Control_c, 0, 64, 127
1, 81600, Tempo, 666667
1, 81600, Note_on_c, 0, 66, 68
1, 81840, Tempo, 731707
1, 81840, Note_on_c, 0, 66, 0
1, 81840, Note_on_c, 0, 78, 73
1, 81840, Note_on_c, 0, 35, 46
1, 81960, Note_on_c, 0, 35, 0
1, 82080, Tempo, 689655
1, 82080, Note_on_c, 0, 78, 0
1, 82080, Note_on_c, 0, 70, 0
1, 82080, Note_on_c, 0, 76, 80
1, 82080, Note_on_c, 0, 47, 66
1, 82088, Control_c, 0, 64, 0
1, 82217, Control_c, 0, 64, 127
1, 82320, Tempo, 705882
1, 82320, Note_on_c, 0, 47, 0
1, 82320, Note_on_c, 0, 54, 57
1, 82560, Tempo, 697674
1, 82560, Note_on_c, 0, 54, 0
1, 82560, Note_on_c, 0, 66, 57
1, 82800, Tempo, 705882
1, 82800, Note_on_c, 0, 66, 0
1, 82800, Note_on_c, 0, 76, 0
1, 82800, Note_on_c, 0, 69, 66
1, 82800, Note_on_c, 0, 35, 46
1, 82817, Control_c, 0, 64, 0
1, 82949, Control_c, 0, 64, 127
1, 83040, Note_on_c, 0, 63, 68
1, 83280, Tempo, 731707
1, 83280, Note_on_c, 0, 63, 0
1, 83280, Note_on_c, 0, 75, 73
1, 83520, Tempo, 674157
1, 83520, Note_on_c, 0, 75, 0
1, 83520, Note_on_c, 0, 35, 0
1, 83520, Note_on_c, 0, 69, 0
1, 83520, Note_on_c, 0, 72, 80
1, 83520, Note_on_c, 0, 47, 66
1, 83523, Control_c, 0, 64, 0
1, 83627, Control_c, 0, 64, 127
1, 83760, Tempo, 697674
1, 83760, Note_on_c, 0, 47, 0
1, 83760, Note_on_c, 0, 54, 57
1, 84000, Tempo, 689655
1, 84000, Note_on_c, 0, 54, 0
1, 84000, Note_on_c, 0, 64, 57
1, 84240, Tempo, 705882
1, 84240, Note_on_c, 0, 64, 0
1, 84240, Note_on_c, 0, 72, 0
1, 84240, Note_on_c, 0, 63, 66
1, 84240, Note_on_c, 0, 35, 46
1, 84260, Control_c, 0, 64, 0
1, 84427, Control_c, 0, 64, 127
1, 84480, Note_on_c, 0, 57, 68
1, 84720, Tempo, 731707
1, 84720, Note_on_c, 0, 57, 0
1, 84720, Note_on_c, 0, 69, 73
1, 84960, Tempo, 689655
1, 84960, Note_on_c, 0, 69, 0
1, 84960, Note_on_c, 0, 35, 0
1, 84960, Note_on_c, 0, 63, 0
1, 84960, Note_on_c, 0, 66, 81
1, 84960, Note_on_c, 0, 48, 66
1, 84967, Control_c, 0, 64, 0
1, 85080, Control_c, 0, 64, 127
1, 85200, Note_on_c, 0, 57, 57
1, 85440, Note_on_c, 0, 57, 0
1, 85440, Note_on_c, 0, 48, 0
1, 85440, Note_on_c, 0, 64, 57
1, 85680, Tempo, 705882
1, 85680, Note_on_c, 0, 64, 0
1, 85680, Note_on_c, 0, 66, 0
1, 85680, Note_on_c, 0, 63, 66
1, 85680, Note_on_c, 0, 47, 46
1, 85700, Control_c, 0, 64, 0
1, 85793, Control_c, 0, 64, 127
1, 85920, Note_on_c, 0, 57, 68
1, 86160, Tempo, 731707
1, 86160, Note_on_c, 0, 57, 0
1, 86160, Note_on_c, 0, 47, 0
1, 86160, Note_on_c, 0, 69, 73
1, 86400, Tempo, 689655
1, 86400, Note_on_c, 0, 69, 0
1, 86400, Note_on_c, 0, 63, 0
1, 86400, Note_on_c, 0, 72, 81
1, 86400, Note_on_c, 0, 45, 66
1, 86407, Control_c, 0, 64, 0
1, 86547, Control_c, 0, 64, 127
1, 86640, Tempo, 666667
1, 86640, Note_on_c, 0, 54, 57
1, 86880, Tempo, 689655
1, 86880, Note_on_c, 0, 54, 0
1, 86880, Note_on_c, 0, 45, 0
1, 86880, Note_on_c, 0, 64, 57
1, 87120, Tempo, 705882
1, 87120, Note_on_c, 0, 64, 0
1, 87120, Note_on_c, 0, 72, 0
1, 87120, Note_on_c, 0, 63, 66
1, 87120, Note_on_c, 0, 47, 46
1, 87140, Control_c, 0, 64, 0
1, 87267, Control_c, 0, 64, 127
1, 87360, Note_on_c, 0, 57, 68
1, 87600, Tempo, 731707
1, 87600, Note_on_c, 0, 57, 0
1, 87600, Note_on_c, 0, 47, 0
1, 87600, Note_on_c, 0, 69, 73
1, 87840, Tempo, 689655
1, 87840, Note_on_c, 0, 69, 0
1, 87840, Note_on_c, 0, 63, 0
1, 87840, Note_on_c, 0, 66, 81
1, 87840, Note_on_c, 0, 48, 66
1, 87847, Control_c, 0, 64, 0
1, 88040, Control_c, 0, 64, 127
1, 88080, Note_on_c, 0, 57, 57
1, 88320, Note_on_c, 0, 57, 0
1, 88320, Note_on_c, 0, 48, 0
1, 88320, Note_on_c, 0, 64, 57
1, 88560, Tempo, 705882
1, 88560, Note_on_c, 0, 64, 0
1, 88560, Note_on_c, 0, 66, 0
1, 88560, Note_on_c, 0, 63, 66
1, 88560, Note_on_c, 0, 47, 46
1, 88580, Control_c, 0, 64, 0
1, 88720, Control_c, 0, 64, 127
1, 88800, Note_on_c, 0, 57, 68
1, 89040, Tempo, 779221
1, 89040, Note_on_c, 0, 57, 0
1, 89040, Note_on_c, 0, 47, 0
1, 89040, Note_on_c, 0, 69, 73
1, 89280, Tempo, 731707
1, 89280, Note_on_c, 0, 69, 0
1, 89280, Note_on_c, 0, 63, 0
1, 89280, Note_on_c, 0, 72, 81
1, 89280, Note_on_c, 0, 45, 66
1, 89287, Control_c, 0, 64, 0
1, 89379, Control_c, 0, 64, 127
1, 89520, Tempo, 705882
1, 89520, Note_on_c, 0, 54, 57
1, 89760, Tempo, 759494
1, 89760, Note_on_c, 0, 54, 0
1, 89760, Note_on_c, 0, 45, 0
1, 89760, Note_on_c, 0, 64, 57
1, 89880, Note_on_c, 0, 64, 0
1, 90000, Tempo, 731707
1, 90000, Note_on_c, 0, 42, 66
1, 90240, Note_on_c, 0, 57, 57
1, 90480, Note_on_c, 0, 57, 0
1, 90480, Note_on_c, 0, 42, 0
1, 90480, Note_on_c, 0, 64, 57
1, 90600, Note_on_c, 0, 64, 0
1, 90720, Note_on_c, 0, 47, 48
1, 90735, Control_c, 0, 64, 0
1, 90811, Control_c, 0, 64, 127
1, 90960, Tempo, 789474
1, 90960, Note_on_c, 0, 47, 0
1, 90960, Note_on_c, 0, 72, 0
1, 90960, Note_on_c, 0, 57, 39
1, 91200, Tempo, 722892
1, 91200, Note_on_c, 0, 57, 0
1, 91200, Note_on_c, 0, 71, 44
1, 91200, Note_on_c, 0, 69, 37
1, 91200, Note_on_c, 0, 63, 37
1, 91440, Note_on_c, 0, 63, 0
1, 91440, Note_on_c, 0, 69, 0
1, 91440, Note_on_c, 0, 71, 0
1, 91440, Note_on_c, 0, 66, 37
1, 91680, Tempo, 800000
1, 91680, Note_on_c, 0, 66, 0
1, 91680, Note_on_c, 0, 59, 27
1, 91698, Control_c, 0, 64, 0
1, 91829, Control_c, 0, 64, 127
1, 91920, Tempo, 722892
1, 91920, Note_on_c, 0, 59, 0
1, 91920, Note_on_c, 0, 69, 36
1, 91920, Note_on_c, 0, 64, 36
1, 91920, Note_on_c, 0, 71, 43
1, 92160, Note_on_c, 0, 71, 0
1, 92160, Note_on_c, 0, 64, 0
1, 92160, Note_on_c, 0, 69, 0
1, 92160, Note_on_c, 0, 72, 36
1, 92400, Tempo, 769231
1, 92400, Note_on_c, 0, 72, 0
1, 92400, Note_on_c, 0, 57, 27
1, 92400, Note_on_c, 0, 47, 23
1, 92417, Control_c, 0, 64, 0
1, 92508, Control_c, 0, 64, 127
1, 92640, Tempo, 722892
1, 92640, Note_on_c, 0, 47, 0
1, 92640, Note_on_c, 0, 57, 0
1, 92640, Note_on_c, 0, 71, 42
1, 92640, Note_on_c, 0, 69, 35
1, 92640, Note_on_c, 0, 63, 35
1, 92880, Note_on_c, 0, 63, 0
1, 92880, Note_on_c, 0, 69, 0
1, 92880, Note_on_c, 0, 71, 0
1, 92880, Note_on_c, 0, 66, 37
1, 93120, Tempo, 740741
1, 93120, Note_on_c, 0, 66, 0
1, 93120, Note_on_c, 0, 59, 26
1, 93139, Control_c, 0, 64, 0
1, 93220, Control_c, 0, 64, 127
1, 93360, Tempo, 722892
1, 93360, Note_on_c, 0, 59, 0
1, 93360, Note_on_c, 0, 72, 34
1, 93360, Note_on_c, 0, 67, 34
1, 93360, Note_on_c, 0, 75, 40
1, 93600, Note_on_c, 0, 75, 0
1, 93600, Note_on_c, 0, 67, 0
1, 93600, Note_on_c, 0, 72, 0
1, 93600, Note_on_c, 0, 76, 35
1, 93840, Tempo, 740741
1, 93840, Note_on_c, 0, 76, 0
1, 93840, Note_on_c, 0, 47, 15
1, 93840, Note_on_c, 0, 57, 21
1, 93852, Control_c, 0, 64, 0
1, 93956, Control_c, 0, 64, 127
1, 94080, Tempo, 722892
1, 94080, Note_on_c, 0, 57, 0
1, 94080, Note_on_c, 0, 47, 0
1, 94080, Note_on_c, 0, 75, 37
1, 94080, Note_on_c, 0, 72, 31
1, 94080, Note_on_c, 0, 66, 31
1, 94320, Note_on_c, 0, 66, 0
1, 94320, Note_on_c, 0, 72, 0
1, 94320, Note_on_c, 0, 75, 0
1, 94320, Note_on_c, 0, 69, 32
1, 94560, Tempo, 750000
1, 94560, Note_on_c, 0, 69, 0
1, 94560, Note_on_c, 0, 59, 21
1, 94572, Control_c, 0, 64, 0
1, 94701, Control_c, 0, 64, 127
1, 94800, Tempo, 722892
1, 94800, Note_on_c, 0, 59, 0
1, 94800, Note_on_c, 0, 75, 34
1, 94800, Note_on_c, 0, 72, 29
1, 94800, Note_on_c, 0, 67, 29
1, 95040, Note_on_c, 0, 67, 0
1, 95040, Note_on_c, 0, 72, 0
1, 95040, Note_on_c, 0, 75, 0
1, 95040, Note_on_c, 0, 76, 29
1, 95280, Tempo, 750000
1, 95280, Note_on_c, 0, 76, 0
1, 95280, Note_on_c, 0, 57, 17
1, 95280, Note_on_c, 0, 47, 13
1, 95295, Control_c, 0, 64, 0
1, 95413, Control_c, 0, 64, 127
1, 95520, Tempo, 722892
1, 95520, Note_on_c, 0, 47, 0
1, 95520, Note_on_c, 0, 57, 0
1, 95520, Note_on_c, 0, 75, 30
1, 95520, Note_on_c, 0, 66, 26
1, 95520, Note_on_c, 0, 72, 26
1, 95760, Note_on_c, 0, 72, 0
1, 95760, Note_on_c, 0, 66, 0
1, 95760, Note_on_c, 0, 75, 0
1, 95760, Note_on_c, 0, 69, 26
1, 96000, Tempo, 833333
1, 96000, Note_on_c, 0, 69, 0
1, 96000, Note_on_c, 0, 59, 17
1, 96022, Control_c, 0, 64, 0
1, 96149, Control_c, 0, 64, 127
1, 96230, Note_on_c, 0, 59, 0
1, 96240, Tempo, 740741
1, 96240, Note_on_c, 0, 76, 31
1, 96240, Note_on_c, 0, 64, 24
1, 96240, Note_on_c, 0, 72, 24
1, 96240, Note_on_c, 0, 57, 19
1, 96240, Note_on_c, 0, 60, 19
1, 96240, Note_on_c, 0, 69, 24
1, 96480, Tempo, 750000
1, 96480, Note_on_c, 0, 69, 0
1, 96480, Note_on_c, 0, 64, 0
1, 96480, Note_on_c, 0, 72, 0
1, 96480, Note_on_c, 0, 76, 0
1, 96480, Note_on_c, 0, 60, 0
1, 96480, Note_on_c, 0, 57, 0
1, 96480, Note_on_c, 0, 77, 26
1, 96480, Note_on_c, 0, 56, 20
1, 96498, Control_c, 0, 64, 0
1, 96600, Note_on_c, 0, 56, 0
1, 96600, Note_on_c, 0, 77, 0
1, 96720, Tempo, 697674
1, 96960, Tempo, 750000
1, 96960, Note_on_c, 0, 76, 25
1, 96960, Note_on_c, 0, 81, 25
1, 96960, Note_on_c, 0, 84, 32
1, 96960, Note_on_c, 0, 57, 24
1, 96960, Note_on_c, 0, 48, 19
1, 96960, Note_on_c, 0, 52, 19
1, 97006, Control_c, 0, 64, 127
1, 97200, Tempo, 750000
1, 97200, Note_on_c, 0, 52, 0
1, 97200, Note_on_c, 0, 81, 0
1, 97200, Note_on_c, 0, 84, 0
1, 97200, Note_on_c, 0, 76, 0
1, 97200, Note_on_c, 0, 48, 0
1, 97200, Note_on_c, 0, 57, 0
1, 97200, Note_on_c, 0, 75, 26
1, 97200, Note_on_c, 0, 59, 20
1, 97292, Control_c, 0, 64, 0
1, 97320, Note_on_c, 0, 59, 0
1, 97320, Note_on_c, 0, 75, 0
1, 97440, Tempo, 697674
1, 97680, Tempo, 740741
1, 97680, Note_on_c, 0, 76, 31
1, 97680, Note_on_c, 0, 64, 24
1, 97680, Note_on_c, 0, 72, 24
1, 97680, Note_on_c, 0, 69, 24
1, 97680, Note_on_c, 0, 60, 19
1, 97680, Note_on_c, 0, 57, 19
1, 97697, Control_c, 0, 64, 127
1, 97920, Tempo, 731707
1, 97920, Note_on_c, 0, 57, 0
1, 97920, Note_on_c, 0, 64, 0
1, 97920, Note_on_c, 0, 72, 0
1, 97920, Note_on_c, 0, 76, 0
1, 97920, Note_on_c, 0, 60, 0
1, 97920, Note_on_c, 0, 69, 0
1, 97920, Note_on_c, 0, 77, 26
1, 97920, Note_on_c, 0, 56, 20
1, 97989, Control_c, 0, 64, 0
1, 98040, Note_on_c, 0, 56, 0
1, 98040, Note_on_c, 0, 77, 0
1, 98400, Tempo, 731707
1, 98400, Note_on_c, 0, 75, 25
1, 98400, Note_on_c, 0, 81, 25
1, 98400, Note_on_c, 0, 84, 32
1, 98400, Note_on_c, 0, 57, 24
1, 98400, Note_on_c, 0, 54, 19
1, 98400, Note_on_c, 0, 48, 19
1, 98452, Control_c, 0, 64, 127
1, 98640, Tempo, 759494
1, 98640, Note_on_c, 0, 48, 0
1, 98640, Note_on_c, 0, 81, 0
1, 98640, Note_on_c, 0, 84, 0
1, 98640, Note_on_c, 0, 75, 0
1, 98640, Note_on_c, 0, 54, 0
1, 98640, Note_on_c, 0, 57, 0
1, 98640, Note_on_c, 0, 69, 26
1, 98640, Note_on_c, 0, 63, 20
1, 98715, Control_c, 0, 64, 0
1, 98760, Note_on_c, 0, 63, 0
1, 98760, Note_on_c, 0, 69, 0
1, 98880, Tempo, 714286
1, 99120, Tempo, 740741
1, 99120, Note_on_c, 0, 74, 33
1, 99120, Note_on_c, 0, 62, 27
1, 99120, Note_on_c, 0, 71, 27
1, 99120, Note_on_c, 0, 55, 20
1, 99120, Note_on_c, 0, 59, 20
1, 99120, Note_on_c, 0, 67, 27
1, 99172, Control_c, 0, 64, 127
1, 99360, Tempo, 750000
1, 99360, Note_on_c, 0, 67, 0
1, 99360, Note_on_c, 0, 62, 0
1, 99360, Note_on_c, 0, 71, 0
1, 99360, Note_on_c, 0, 74, 0
1, 99360, Note_on_c, 0, 59, 0
1, 99360, Note_on_c, 0, 55, 0
1, 99360, Note_on_c, 0, 75, 28
1, 99360, Note_on_c, 0, 54, 21
1, 99435, Control_c, 0, 64, 0
1, 99480, Note_on_c, 0, 54, 0
1, 99480, Note_on_c, 0, 75, 0
1, 99600, Tempo, 697674
1, 99840, Tempo, 750000
1, 99840, Note_on_c, 0, 83, 33
1, 99840, Note_on_c, 0, 74, 26
1, 99840, Note_on_c, 0, 79, 26
1, 99840, Note_on_c, 0, 55, 25
1, 99840, Note_on_c, 0, 47, 20
1, 99840, Note_on_c, 0, 50, 20
1, 99852, Control_c, 0, 64, 127
1, 100080, Tempo, 740741
1, 100080, Note_on_c, 0, 50, 0
1, 100080, Note_on_c, 0, 74, 0
1, 100080, Note_on_c, 0, 79, 0
1, 100080, Note_on_c, 0, 83, 0
1, 100080, Note_on_c, 0, 47, 0
1, 100080, Note_on_c, 0, 55, 0
1, 100080, Note_on_c, 0, 73, 27
1, 100080, Note_on_c, 0, 57, 21
1, 100166, Control_c, 0, 64, 0
1, 100200, Note_on_c, 0, 57, 0
1, 100200, Note_on_c, 0, 73, 0
1, 100320, Tempo, 697674
1, 100560, Tempo, 750000
1, 100560, Note_on_c, 0, 74, 31
1, 100560, Note_on_c, 0, 71, 24
1, 100560, Note_on_c, 0, 62, 24
1, 100560, Note_on_c, 0, 67, 24
1, 100560, Note_on_c, 0, 55, 19
1, 100560, Note_on_c, 0, 59, 19
1, 100617, Control_c, 0, 64, 127
1, 100800, Tempo, 740741
1, 100800, Note_on_c, 0, 59, 0
1, 100800, Note_on_c, 0, 71, 0
1, 100800, Note_on_c, 0, 62, 0
1, 100800, Note_on_c, 0, 74, 0
1, 100800, Note_on_c, 0, 55, 0
1, 100800, Note_on_c, 0, 67, 0
1, 100800, Note_on_c, 0, 75, 26
1, 100800, Note_on_c, 0, 54, 20
1, 100892, Control_c, 0, 64, 0
1, 100920, Note_on_c, 0, 54, 0
1, 100920, Note_on_c, 0, 75, 0
1, 101040, Tempo, 705882
1, 101280, Tempo, 740741
1, 101280, Note_on_c, 0, 82, 35
1, 101280, Note_on_c, 0, 73, 27
1, 101280, Note_on_c, 0, 79, 27
1, 101280, Note_on_c, 0, 55, 26
1, 101280, Note_on_c, 0, 52, 20
1, 101280, Note_on_c, 0, 46, 20
1, 101337, Control_c, 0, 64, 127
1, 101520, Tempo, 740741
1, 101520, Note_on_c, 0, 46, 0
1, 101520, Note_on_c, 0, 73, 0
1, 101520, Note_on_c, 0, 79, 0
1, 101520, Note_on_c, 0, 82, 0
1, 101520, Note_on_c, 0, 52, 0
1, 101520, Note_on_c, 0, 55, 0
1, 101520, Note_on_c, 0, 67, 28
1, 101520, Note_on_c, 0, 61, 22
1, 101589, Control_c, 0, 64, 0
1, 101640, Note_on_c, 0, 61, 0
1, 101640, Note_on_c, 0, 67, 0
1, 101760, Tempo, 769231
1, 102000, Tempo, 705882
1, 102000, Note_on_c, 0, 60, 46
1, 102000, Note_on_c, 0, 69, 46
1, 102000, Note_on_c, 0, 72, 60
1, 102000, Note_on_c, 0, 65, 43
1, 102000, Note_on_c, 0, 53, 33
1, 102000, Note_on_c, 0, 57, 33
1, 102069, Control_c, 0, 64, 127
1, 102240, Tempo, 750000
1, 102240, Note_on_c, 0, 57, 0
1, 102240, Note_on_c, 0, 69, 0
1, 102240, Note_on_c, 0, 72, 0
1, 102240, Note_on_c, 0, 60, 0
1, 102240, Note_on_c, 0, 53, 0
1, 102240, Note_on_c, 0, 65, 0
1, 102240, Note_on_c, 0, 73, 54
1, 102240, Note_on_c, 0, 52, 37
1, 102275, Control_c, 0, 64, 0
1, 102420, Note_on_c, 0, 52, 0
1, 102420, Note_on_c, 0, 73, 0
1, 102720, Tempo, 779221
1, 102720, Note_on_c, 0, 72, 62
1, 102720, Note_on_c, 0, 65, 49
1, 102720, Note_on_c, 0, 69, 49
1, 102720, Note_on_c, 0, 53, 42
1, 102720, Note_on_c, 0, 57, 42
1, 102720, Note_on_c, 0, 60, 54
1, 102789, Control_c, 0, 64, 127
1, 102960, Note_on_c, 0, 60, 0
1, 102960, Note_on_c, 0, 65, 0
1, 102960, Note_on_c, 0, 69, 0
1, 102960, Note_on_c, 0, 72, 0
1, 102960, Note_on_c, 0, 57, 0
1, 102960, Note_on_c, 0, 53, 0
1, 102960, Note_on_c, 0, 74, 55
1, 102960, Note_on_c, 0, 52, 44
1, 102995, Control_c, 0, 64, 0
1, 103140, Note_on_c, 0, 52, 0
1, 103140, Note_on_c, 0, 74, 0
1, 103200, Tempo, 769231
1, 103440, Note_on_c, 0, 72, 57
1, 103440, Note_on_c, 0, 77, 57
1, 103440, Note_on_c, 0, 81, 72
1, 103440, Note_on_c, 0, 53, 58
1, 103440, Note_on_c, 0, 45, 46
1, 103440, Note_on_c, 0, 48, 46
1, 103497, Control_c, 0, 64, 127
1, 103680, Note_on_c, 0, 48, 0
1, 103680, Note_on_c, 0, 77, 0
1, 103680, Note_on_c, 0, 81, 0
1, 103680, Note_on_c, 0, 72, 0
1, 103680, Note_on_c, 0, 45, 0
1, 103680, Note_on_c, 0, 53, 0
1, 103680, Note_on_c, 0, 71, 66
1, 103680, Note_on_c, 0, 56, 52
1, 103749, Control_c, 0, 64, 0
1, 103860, Note_on_c, 0, 56, 0
1, 103860, Note_on_c, 0, 71, 0
1, 104160, Tempo, 821918
1, 104160, Note_on_c, 0, 77, 74
1, 104160, Note_on_c, 0, 69, 58
1, 104160, Note_on_c, 0, 72, 58
1, 104160, Note_on_c, 0, 57, 62
1, 104160, Note_on_c, 0, 48, 49
1, 104160, Note_on_c, 0, 53, 49
1, 104217, Control_c, 0, 64, 127
1, 104400, Note_on_c, 0, 53, 0
1, 104400, Note_on_c, 0, 69, 0
1, 104400, Note_on_c, 0, 72, 0
1, 104400, Note_on_c, 0, 77, 0
1, 104400, Note_on_c, 0, 48, 0
1, 104400, Note_on_c, 0, 57, 0
1, 104400, Note_on_c, 0, 67, 67
1, 104400, Note_on_c, 0, 59, 56
1, 104469, Control_c, 0, 64, 0
1, 104580, Note_on_c, 0, 59, 0
1, 104580, Note_on_c, 0, 67, 0
1, 104870, Control_c, 0, 64, 127
1, 104880, Tempo, 857143
1, 104880, Note_on_c, 0, 69, 52
1, 104880, Note_on_c, 0, 65, 63
1, 104880, Note_on_c, 0, 72, 60
1, 104880, Note_on_c, 0, 57, 47
1, 104880, Note_on_c, 0, 60, 52
1, 104880, Note_on_c, 0, 53, 48
1, 105120, Tempo, 674157
1, 105120, Note_on_c, 0, 65, 0
1, 105120, Note_on_c, 0, 64, 69
1, 107280, Tempo, 740741
1, 107280, Note_on_c, 0, 64, 0
1, 107280, Note_on_c, 0, 53, 0
1, 107280, Note_on_c, 0, 57, 0
1, 107280, Note_on_c, 0, 69, 0
1, 107280, Note_on_c, 0, 72, 0
1, 107280, Note_on_c, 0, 60, 0
1, 107280, Note_on_c, 0, 57, 40
1, 107280, Note_on_c, 0, 71, 50
1, 107280, Note_on_c, 0, 63, 40
1, 107280, Note_on_c, 0, 42, 30
1, 107280, Note_on_c, 0, 54, 35
1, 107280, Note_on_c, 0, 47, 30
1, 107301, Control_c, 0, 64, 0
1, 107614, Control_c, 0, 64, 127
1, 108000, Note_on_c, 0, 63, 0
1, 108000, Note_on_c, 0, 69, 43
1, 108720, Note_on_c, 0, 69, 0
1, 108720, Note_on_c, 0, 47, 0
1, 108720, Note_on_c, 0, 42, 0
1, 108720, Note_on_c, 0, 57, 0
1, 108720, Note_on_c, 0, 71, 0
1, 108720, Note_on_c, 0, 54, 0
1, 108720, Note_on_c, 0, 59, 49
1, 108720, Note_on_c, 0, 68, 47
1, 108720, Note_on_c, 0, 71, 53
1, 108720, Note_on_c, 0, 35, 30
1, 108720, Note_on_c, 0, 47, 38
1, 108736, Control_c, 0, 64, 0
1, 109067, Control_c, 0, 64, 127
1, 109440, Tempo, 845070
1, 109440, Note_on_c, 0, 68, 0
1, 109440, Note_on_c, 0, 59, 0
1, 109440, Note_on_c, 0, 57, 48
1, 109440, Note_on_c, 0, 66, 55
1, 109440, Note_on_c, 0, 63, 49
1, 109455, Control_c, 0, 64, 0
1, 109614, Control_c, 0, 64, 127
1, 110160, Tempo, 983607
1, 110160, Note_on_c, 0, 35, 0
1, 110160, Note_on_c, 0, 47, 0
1, 110160, Note_on_c, 0, 28, 30
1, 110160, Note_on_c, 0, 40, 35
1, 110180, Control_c, 0, 64, 0
1, 110374, Control_c, 0, 64, 127
1, 110880, Note_on_c, 0, 66, 0
1, 110880, Note_on_c, 0, 57, 0
1, 110880, Note_on_c, 0, 63, 0
1, 110880, Note_on_c, 0, 56, 39
1, 110880, Note_on_c, 0, 64, 39
1, 110887, Control_c, 0, 64, 0
1, 111067, Control_c, 0, 64, 127
1, 111360, Note_on_c, 0, 64, 0
1, 111360, Note_on_c, 0, 71, 0
1, 111360, Note_on_c, 0, 56, 0
1, 111600, Note_on_c, 0, 28, 0
1, 111600, Note_on_c, 0, 40, 0
1, 113400, Control_c, 0, 64, 0
1, 113400, End_track
0, 0, End_of_file
