0, 0, Header, 0, 1, 480
1, 0, Start_track
1, 0, Title_t, "Sonate in C 2. Satz"
1, 0, Copyright_t, "Copyright © 2009 by Bernd Krueger"
1, 0, Text_t, "Johannes Brahms"
1, 0, Text_t, "Andante"
1, 0, Text_t, "Erstellt: 25.4.2009\012"
1, 0, Text_t, "Dauer: 4:42 Minuten\012"
1, 0, Time_signature, 2, 2, 24, 8
1, 0, Key_signature, -3, "major"
1, 0, Tempo, 741565
1, 0, Program_c, 0, 0
1, 0, Program_c, 0, 0
1, 0, Program_c, 0, 0
1, 720, Tempo, 1503383
1, 720, Note_on_c, 0, 55, 44
1, 960, Note_on_c, 0, 55, 0
1, 960, Note_on_c, 0, 60, 50
1, 1200, Note_on_c, 0, 60, 0
1, 1200, Note_on_c, 0, 62, 43
1, 1440, Note_on_c, 0, 62, 0
1, 1440, Note_on_c, 0, 63, 43
1, 1680, Tempo, 1647899
1, 1680, Note_on_c, 0, 63, 0
1, 1680, Note_on_c, 0, 60, 36
1, 1920, Tempo, 1769390
1, 1920, Note_on_c, 0, 60, 0
1, 1920, Note_on_c, 0, 59, 38
1, 2160, Tempo, 1880288
1, 2160, Note_on_c, 0, 60, 35
1, 2170, Note_on_c, 0, 59, 0
1, 2400, Tempo, 2149767
1, 2400, Note_on_c, 0, 62, 35
1, 2410, Note_on_c, 0, 60, 0
1, 2870, Note_on_c, 0, 62, 0
1, 2880, Tempo, 1582696
1, 2880, Note_on_c, 0, 55, 34
1, 2880, Note_on_c, 0, 60, 40
1, 2880, Note_on_c, 0, 48, 27
1, 2880, Note_on_c, 0, 51, 32
1, 2880, Control_c, 0, 64, 127
1, 3336, Note_on_c, 0, 51, 0
1, 3336, Note_on_c, 0, 55, 0
1, 3336, Note_on_c, 0, 60, 0
1, 3336, Note_on_c, 0, 48, 0
1, 3360, Tempo, 1503383
1, 3360, Note_on_c, 0, 60, 31
1, 3360, Note_on_c, 0, 67, 37
1, 3360, Note_on_c, 0, 51, 27
1, 3360, Note_on_c, 0, 55, 32
1, 3816, Note_on_c, 0, 55, 0
1, 3816, Note_on_c, 0, 60, 0
1, 3816, Note_on_c, 0, 67, 0
1, 3816, Note_on_c, 0, 51, 0
1, 3840, Note_on_c, 0, 60, 34
1, 3840, Note_on_c, 0, 63, 40
1, 3840, Note_on_c, 0, 55, 30
1, 3840, Control_c, 0, 64, 0
1, 3889, Control_c, 0, 64, 127
1, 4080, Note_on_c, 0, 55, 0
1, 4080, Note_on_c, 0, 63, 0
1, 4080, Note_on_c, 0, 60, 0
1, 4080, Note_on_c, 0, 59, 31
1, 4080, Note_on_c, 0, 62, 37
1, 4080, Note_on_c, 0, 43, 21
1, 4080, Note_on_c, 0, 53, 25
1, 4088, Control_c, 0, 64, 0
1, 4122, Control_c, 0, 64, 127
1, 4200, Tempo, 1880288
1, 4260, Note_on_c, 0, 62, 0
1, 4260, Note_on_c, 0, 59, 0
1, 4260, Note_on_c, 0, 63, 34
1, 4320, Tempo, 3893576
1, 4320, Note_on_c, 0, 63, 0
1, 4320, Note_on_c, 0, 43, 0
1, 4320, Note_on_c, 0, 53, 0
1, 4320, Note_on_c, 0, 55, 34
1, 4320, Note_on_c, 0, 60, 40
1, 4320, Note_on_c, 0, 48, 25
1, 4320, Note_on_c, 0, 51, 30
1, 4330, Control_c, 0, 64, 0
1, 4366, Control_c, 0, 64, 127
1, 4540, Note_on_c, 0, 51, 0
1, 4540, Note_on_c, 0, 55, 0
1, 4540, Note_on_c, 0, 60, 0
1, 4540, Note_on_c, 0, 48, 0
1, 4542, Control_c, 0, 64, 0
1, 4560, Tempo, 1542020
1, 4560, Note_on_c, 0, 55, 44
1, 4800, Note_on_c, 0, 55, 0
1, 4800, Note_on_c, 0, 60, 50
1, 5040, Note_on_c, 0, 60, 0
1, 5040, Note_on_c, 0, 62, 43
1, 5280, Note_on_c, 0, 62, 0
1, 5280, Note_on_c, 0, 63, 43
1, 5520, Tempo, 1647899
1, 5520, Note_on_c, 0, 63, 0
1, 5520, Note_on_c, 0, 60, 36
1, 5760, Tempo, 1769390
1, 5760, Note_on_c, 0, 60, 0
1, 5760, Note_on_c, 0, 59, 38
1, 6000, Tempo, 1880288
1, 6000, Note_on_c, 0, 60, 35
1, 6010, Note_on_c, 0, 59, 0
1, 6240, Tempo, 2229654
1, 6240, Note_on_c, 0, 62, 35
1, 6250, Note_on_c, 0, 60, 0
1, 6710, Note_on_c, 0, 62, 0
1, 6720, Tempo, 1582696
1, 6720, Note_on_c, 0, 55, 34
1, 6720, Note_on_c, 0, 60, 40
1, 6720, Note_on_c, 0, 48, 27
1, 6720, Note_on_c, 0, 51, 32
1, 6720, Control_c, 0, 64, 127
1, 7176, Note_on_c, 0, 51, 0
1, 7176, Note_on_c, 0, 55, 0
1, 7176, Note_on_c, 0, 60, 0
1, 7176, Note_on_c, 0, 48, 0
1, 7200, Tempo, 1503383
1, 7200, Note_on_c, 0, 60, 31
1, 7200, Note_on_c, 0, 67, 37
1, 7200, Note_on_c, 0, 39, 27
1, 7200, Note_on_c, 0, 48, 32
1, 7656, Note_on_c, 0, 48, 0
1, 7656, Note_on_c, 0, 60, 0
1, 7656, Note_on_c, 0, 67, 0
1, 7656, Note_on_c, 0, 39, 0
1, 7680, Note_on_c, 0, 60, 34
1, 7680, Note_on_c, 0, 63, 40
1, 7680, Note_on_c, 0, 43, 21
1, 7680, Note_on_c, 0, 55, 30
1, 7680, Control_c, 0, 64, 0
1, 7729, Control_c, 0, 64, 127
1, 7908, Note_on_c, 0, 43, 0
1, 7913, Note_on_c, 0, 55, 0
1, 7920, Note_on_c, 0, 63, 0
1, 7920, Note_on_c, 0, 60, 0
1, 7920, Note_on_c, 0, 59, 31
1, 7920, Note_on_c, 0, 62, 37
1, 7920, Note_on_c, 0, 43, 21
1, 7920, Note_on_c, 0, 53, 25
1, 7928, Control_c, 0, 64, 0
1, 7962, Control_c, 0, 64, 127
1, 8040, Tempo, 1880288
1, 8100, Note_on_c, 0, 62, 0
1, 8100, Note_on_c, 0, 59, 0
1, 8100, Note_on_c, 0, 63, 34
1, 8160, Tempo, 3350084
1, 8160, Note_on_c, 0, 63, 0
1, 8160, Note_on_c, 0, 43, 0
1, 8160, Note_on_c, 0, 53, 0
1, 8160, Note_on_c, 0, 55, 34
1, 8160, Note_on_c, 0, 60, 40
1, 8160, Note_on_c, 0, 36, 25
1, 8160, Note_on_c, 0, 51, 30
1, 8170, Control_c, 0, 64, 0
1, 8206, Control_c, 0, 64, 127
1, 8382, Control_c, 0, 64, 0
1, 8400, Tempo, 1562093
1, 8630, Note_on_c, 0, 51, 0
1, 8630, Note_on_c, 0, 55, 0
1, 8630, Note_on_c, 0, 60, 0
1, 8630, Note_on_c, 0, 36, 0
1, 8640, Tempo, 1743679
1, 8640, Note_on_c, 0, 55, 34
1, 8640, Note_on_c, 0, 60, 40
1, 8640, Note_on_c, 0, 48, 28
1, 8640, Note_on_c, 0, 51, 34
1, 8685, Control_c, 0, 64, 127
1, 8860, Note_on_c, 0, 51, 0
1, 8860, Note_on_c, 0, 55, 0
1, 8860, Note_on_c, 0, 60, 0
1, 8860, Note_on_c, 0, 48, 0
1, 8880, Tempo, 1603849
1, 8880, Note_on_c, 0, 55, 31
1, 8880, Note_on_c, 0, 59, 37
1, 8880, Note_on_c, 0, 50, 26
1, 8880, Note_on_c, 0, 53, 31
1, 8887, Control_c, 0, 64, 0
1, 8937, Control_c, 0, 64, 127
1, 8990, Note_on_c, 0, 53, 0
1, 8990, Note_on_c, 0, 55, 0
1, 8990, Note_on_c, 0, 59, 0
1, 8990, Note_on_c, 0, 50, 0
1, 9000, Tempo, 1823154
1, 9000, Note_on_c, 0, 55, 34
1, 9000, Note_on_c, 0, 60, 34
1, 9000, Note_on_c, 0, 48, 24
1, 9000, Note_on_c, 0, 51, 29
1, 9005, Control_c, 0, 64, 0
1, 9057, Control_c, 0, 64, 127
1, 9110, Note_on_c, 0, 51, 0
1, 9110, Note_on_c, 0, 55, 0
1, 9110, Note_on_c, 0, 60, 0
1, 9110, Note_on_c, 0, 48, 0
1, 9120, Tempo, 1718705
1, 9120, Note_on_c, 0, 55, 34
1, 9120, Note_on_c, 0, 62, 40
1, 9120, Note_on_c, 0, 47, 28
1, 9120, Note_on_c, 0, 50, 34
1, 9131, Control_c, 0, 64, 0
1, 9194, Control_c, 0, 64, 127
1, 9590, Note_on_c, 0, 50, 0
1, 9590, Note_on_c, 0, 55, 0
1, 9590, Note_on_c, 0, 62, 0
1, 9600, Tempo, 1743679
1, 9600, Note_on_c, 0, 47, 0
1, 9600, Note_on_c, 0, 55, 34
1, 9600, Note_on_c, 0, 60, 40
1, 9600, Note_on_c, 0, 48, 28
1, 9600, Note_on_c, 0, 51, 34
1, 9600, Control_c, 0, 64, 0
1, 9645, Control_c, 0, 64, 127
1, 9820, Note_on_c, 0, 51, 0
1, 9820, Note_on_c, 0, 55, 0
1, 9820, Note_on_c, 0, 60, 0
1, 9820, Note_on_c, 0, 48, 0
1, 9840, Tempo, 1603849
1, 9840, Note_on_c, 0, 55, 31
1, 9840, Note_on_c, 0, 59, 37
1, 9840, Note_on_c, 0, 50, 26
1, 9840, Note_on_c, 0, 53, 31
1, 9847, Control_c, 0, 64, 0
1, 9897, Control_c, 0, 64, 127
1, 9950, Note_on_c, 0, 53, 0
1, 9950, Note_on_c, 0, 55, 0
1, 9950, Note_on_c, 0, 59, 0
1, 9950, Note_on_c, 0, 50, 0
1, 9960, Tempo, 1823154
1, 9960, Note_on_c, 0, 55, 34
1, 9960, Note_on_c, 0, 60, 34
1, 9960, Note_on_c, 0, 48, 24
1, 9960, Note_on_c, 0, 51, 29
1, 9965, Control_c, 0, 64, 0
1, 10017, Control_c, 0, 64, 127
1, 10070, Note_on_c, 0, 51, 0
1, 10070, Note_on_c, 0, 55, 0
1, 10070, Note_on_c, 0, 60, 0
1, 10070, Note_on_c, 0, 48, 0
1, 10080, Tempo, 1718705
1, 10080, Note_on_c, 0, 59, 34
1, 10080, Note_on_c, 0, 62, 40
1, 10080, Note_on_c, 0, 43, 28
1, 10080, Note_on_c, 0, 50, 34
1, 10091, Control_c, 0, 64, 0
1, 10154, Control_c, 0, 64, 127
1, 10550, Note_on_c, 0, 50, 0
1, 10550, Note_on_c, 0, 59, 0
1, 10550, Note_on_c, 0, 62, 0
1, 10560, Note_on_c, 0, 43, 0
1, 10560, Note_on_c, 0, 55, 34
1, 10560, Note_on_c, 0, 60, 40
1, 10560, Note_on_c, 0, 48, 28
1, 10560, Note_on_c, 0, 51, 34
1, 10560, Control_c, 0, 64, 0
1, 10743, Control_c, 0, 64, 127
1, 11025, Note_on_c, 0, 51, 0
1, 11025, Note_on_c, 0, 55, 0
1, 11025, Note_on_c, 0, 60, 0
1, 11025, Note_on_c, 0, 48, 0
1, 11040, Tempo, 1603849
1, 11040, Note_on_c, 0, 58, 35
1, 11040, Note_on_c, 0, 67, 42
1, 11040, Note_on_c, 0, 39, 30
1, 11040, Note_on_c, 0, 46, 30
1, 11040, Note_on_c, 0, 51, 36
1, 11053, Control_c, 0, 64, 0
1, 11195, Control_c, 0, 64, 127
1, 11268, Note_on_c, 0, 51, 0
1, 11268, Note_on_c, 0, 39, 0
1, 11268, Note_on_c, 0, 58, 0
1, 11268, Note_on_c, 0, 67, 0
1, 11268, Note_on_c, 0, 46, 0
1, 11280, Tempo, 1795870
1, 11280, Note_on_c, 0, 58, 37
1, 11280, Note_on_c, 0, 67, 44
1, 11280, Note_on_c, 0, 39, 30
1, 11280, Note_on_c, 0, 46, 30
1, 11280, Note_on_c, 0, 51, 36
1, 11508, Note_on_c, 0, 51, 0
1, 11508, Note_on_c, 0, 39, 0
1, 11508, Note_on_c, 0, 58, 0
1, 11508, Note_on_c, 0, 67, 0
1, 11508, Note_on_c, 0, 46, 0
1, 11520, Tempo, 1694437
1, 11520, Note_on_c, 0, 60, 37
1, 11520, Note_on_c, 0, 63, 44
1, 11520, Note_on_c, 0, 43, 23
1, 11520, Note_on_c, 0, 55, 33
1, 11520, Control_c, 0, 64, 0
1, 11569, Control_c, 0, 64, 127
1, 11748, Note_on_c, 0, 43, 0
1, 11753, Note_on_c, 0, 55, 0
1, 11760, Note_on_c, 0, 63, 0
1, 11760, Note_on_c, 0, 60, 0
1, 11760, Note_on_c, 0, 59, 31
1, 11760, Note_on_c, 0, 62, 37
1, 11760, Note_on_c, 0, 43, 21
1, 11760, Note_on_c, 0, 53, 25
1, 11768, Control_c, 0, 64, 0
1, 11802, Control_c, 0, 64, 127
1, 11880, Tempo, 1880288
1, 11940, Note_on_c, 0, 62, 0
1, 11940, Note_on_c, 0, 59, 0
1, 11940, Note_on_c, 0, 63, 34
1, 12000, Tempo, 3172924
1, 12000, Note_on_c, 0, 63, 0
1, 12000, Note_on_c, 0, 43, 0
1, 12000, Note_on_c, 0, 53, 0
1, 12000, Note_on_c, 0, 55, 34
1, 12000, Note_on_c, 0, 60, 40
1, 12000, Note_on_c, 0, 36, 25
1, 12000, Note_on_c, 0, 51, 30
1, 12010, Control_c, 0, 64, 0
1, 12046, Control_c, 0, 64, 127
1, 12222, Control_c, 0, 64, 0
1, 12240, Tempo, 1503383
1, 12240, Note_on_c, 0, 55, 31
1, 12240, Note_on_c, 0, 43, 35
1, 12254, Control_c, 0, 64, 127
1, 12304, Note_on_c, 0, 55, 0
1, 12320, Note_on_c, 0, 55, 31
1, 12384, Note_on_c, 0, 55, 0
1, 12400, Note_on_c, 0, 55, 26
1, 12464, Note_on_c, 0, 55, 0
1, 12470, Note_on_c, 0, 51, 0
1, 12470, Note_on_c, 0, 36, 0
1, 12470, Note_on_c, 0, 55, 0
1, 12470, Note_on_c, 0, 60, 0
1, 12480, Note_on_c, 0, 43, 0
1, 12480, Note_on_c, 0, 55, 37
1, 12480, Note_on_c, 0, 48, 40
1, 12480, Control_c, 0, 64, 0
1, 12564, Control_c, 0, 64, 127
1, 12600, Note_on_c, 0, 60, 37
1, 12720, Note_on_c, 0, 60, 0
1, 12720, Note_on_c, 0, 48, 0
1, 12720, Note_on_c, 0, 50, 34
1, 12723, Control_c, 0, 64, 0
1, 12797, Control_c, 0, 64, 127
1, 12840, Note_on_c, 0, 62, 37
1, 12960, Note_on_c, 0, 62, 0
1, 12960, Note_on_c, 0, 50, 0
1, 12960, Note_on_c, 0, 51, 34
1, 12967, Control_c, 0, 64, 0
1, 13037, Control_c, 0, 64, 127
1, 13080, Note_on_c, 0, 63, 37
1, 13200, Tempo, 1647899
1, 13200, Note_on_c, 0, 63, 0
1, 13200, Note_on_c, 0, 51, 0
1, 13200, Note_on_c, 0, 48, 28
1, 13206, Control_c, 0, 64, 0
1, 13277, Control_c, 0, 64, 127
1, 13320, Note_on_c, 0, 60, 39
1, 13440, Tempo, 1769390
1, 13440, Note_on_c, 0, 60, 0
1, 13440, Note_on_c, 0, 48, 0
1, 13440, Note_on_c, 0, 47, 30
1, 13440, Control_c, 0, 64, 0
1, 13503, Control_c, 0, 64, 127
1, 13560, Note_on_c, 0, 59, 33
1, 13680, Tempo, 1880288
1, 13680, Note_on_c, 0, 59, 0
1, 13680, Note_on_c, 0, 48, 28
1, 13690, Note_on_c, 0, 47, 0
1, 13693, Control_c, 0, 64, 0
1, 13783, Control_c, 0, 64, 127
1, 13800, Note_on_c, 0, 60, 32
1, 13920, Tempo, 2149767
1, 13920, Note_on_c, 0, 60, 0
1, 13920, Note_on_c, 0, 50, 28
1, 13930, Note_on_c, 0, 48, 0
1, 13932, Control_c, 0, 64, 0
1, 14011, Control_c, 0, 64, 127
1, 14040, Note_on_c, 0, 62, 28
1, 14390, Note_on_c, 0, 50, 0
1, 14400, Tempo, 1582696
1, 14400, Note_on_c, 0, 62, 0
1, 14400, Note_on_c, 0, 55, 0
1, 14400, Note_on_c, 0, 55, 34
1, 14400, Note_on_c, 0, 60, 40
1, 14400, Note_on_c, 0, 48, 27
1, 14400, Note_on_c, 0, 51, 32
1, 14400, Control_c, 0, 64, 0
1, 14640, Control_c, 0, 64, 127
1, 14856, Note_on_c, 0, 51, 0
1, 14856, Note_on_c, 0, 55, 0
1, 14856, Note_on_c, 0, 60, 0
1, 14856, Note_on_c, 0, 48, 0
1, 14880, Tempo, 1503383
1, 14880, Note_on_c, 0, 60, 31
1, 14880, Note_on_c, 0, 67, 37
1, 14880, Note_on_c, 0, 51, 27
1, 14880, Note_on_c, 0, 55, 32
1, 15336, Note_on_c, 0, 55, 0
1, 15336, Note_on_c, 0, 60, 0
1, 15336, Note_on_c, 0, 67, 0
1, 15336, Note_on_c, 0, 51, 0
1, 15360, Note_on_c, 0, 60, 34
1, 15360, Note_on_c, 0, 63, 40
1, 15360, Note_on_c, 0, 55, 30
1, 15360, Note_on_c, 0, 43, 25
1, 15360, Control_c, 0, 64, 0
1, 15409, Control_c, 0, 64, 127
1, 15590, Note_on_c, 0, 43, 0
1, 15590, Note_on_c, 0, 55, 0
1, 15600, Note_on_c, 0, 63, 0
1, 15600, Note_on_c, 0, 60, 0
1, 15600, Note_on_c, 0, 59, 31
1, 15600, Note_on_c, 0, 62, 37
1, 15600, Note_on_c, 0, 55, 27
1, 15600, Note_on_c, 0, 43, 27
1, 15600, Note_on_c, 0, 53, 27
1, 15608, Control_c, 0, 64, 0
1, 15642, Control_c, 0, 64, 127
1, 15664, Note_on_c, 0, 55, 0
1, 15680, Note_on_c, 0, 55, 27
1, 15720, Tempo, 1880288
1, 15744, Note_on_c, 0, 55, 0
1, 15760, Note_on_c, 0, 55, 23
1, 15780, Note_on_c, 0, 59, 0
1, 15780, Note_on_c, 0, 62, 0
1, 15780, Note_on_c, 0, 63, 34
1, 15824, Note_on_c, 0, 55, 0
1, 15840, Tempo, 3893576
1, 15840, Note_on_c, 0, 43, 0
1, 15840, Note_on_c, 0, 53, 0
1, 15840, Note_on_c, 0, 63, 0
1, 15840, Note_on_c, 0, 60, 40
1, 15840, Note_on_c, 0, 44, 30
1, 15840, Note_on_c, 0, 54, 30
1, 15840, Note_on_c, 0, 36, 25
1, 15840, Note_on_c, 0, 51, 30
1, 15850, Control_c, 0, 64, 0
1, 15886, Control_c, 0, 64, 127
1, 16200, Note_on_c, 0, 54, 0
1, 16200, Note_on_c, 0, 44, 0
1, 16200, Note_on_c, 0, 43, 22
1, 16200, Note_on_c, 0, 55, 28
1, 16211, Control_c, 0, 64, 0
1, 16320, Tempo, 1603849
1, 17040, Tempo, 1503383
1, 17040, Note_on_c, 0, 55, 0
1, 17040, Note_on_c, 0, 60, 0
1, 17040, Note_on_c, 0, 51, 0
1, 17040, Note_on_c, 0, 36, 0
1, 17040, Note_on_c, 0, 43, 0
1, 17040, Note_on_c, 0, 67, 31
1, 17040, Note_on_c, 0, 43, 35
1, 17040, Note_on_c, 0, 55, 31
1, 17079, Control_c, 0, 64, 127
1, 17104, Note_on_c, 0, 55, 0
1, 17104, Note_on_c, 0, 67, 0
1, 17120, Note_on_c, 0, 67, 31
1, 17120, Note_on_c, 0, 55, 31
1, 17184, Note_on_c, 0, 55, 0
1, 17184, Note_on_c, 0, 67, 0
1, 17200, Note_on_c, 0, 67, 26
1, 17200, Note_on_c, 0, 55, 26
1, 17264, Note_on_c, 0, 55, 0
1, 17264, Note_on_c, 0, 67, 0
1, 17280, Note_on_c, 0, 43, 0
1, 17280, Note_on_c, 0, 67, 37
1, 17280, Note_on_c, 0, 55, 29
1, 17280, Note_on_c, 0, 48, 40
1, 17286, Control_c, 0, 64, 0
1, 17319, Control_c, 0, 64, 127
1, 17360, Note_on_c, 0, 60, 28
1, 17360, Note_on_c, 0, 72, 33
1, 17424, Note_on_c, 0, 72, 0
1, 17424, Note_on_c, 0, 60, 0
1, 17440, Note_on_c, 0, 60, 28
1, 17440, Note_on_c, 0, 72, 33
1, 17504, Note_on_c, 0, 72, 0
1, 17504, Note_on_c, 0, 60, 0
1, 17520, Note_on_c, 0, 48, 0
1, 17520, Note_on_c, 0, 50, 34
1, 17528, Control_c, 0, 64, 0
1, 17580, Control_c, 0, 64, 127
1, 17600, Note_on_c, 0, 62, 27
1, 17600, Note_on_c, 0, 74, 32
1, 17664, Note_on_c, 0, 74, 0
1, 17664, Note_on_c, 0, 62, 0
1, 17680, Note_on_c, 0, 62, 27
1, 17680, Note_on_c, 0, 74, 32
1, 17744, Note_on_c, 0, 74, 0
1, 17744, Note_on_c, 0, 62, 0
1, 17760, Note_on_c, 0, 50, 0
1, 17760, Note_on_c, 0, 51, 34
1, 17772, Control_c, 0, 64, 0
1, 17816, Control_c, 0, 64, 127
1, 17840, Note_on_c, 0, 63, 28
1, 17840, Note_on_c, 0, 75, 34
1, 17904, Note_on_c, 0, 75, 0
1, 17904, Note_on_c, 0, 63, 0
1, 17920, Note_on_c, 0, 63, 28
1, 17920, Note_on_c, 0, 75, 34
1, 17984, Note_on_c, 0, 75, 0
1, 17984, Note_on_c, 0, 63, 0
1, 18000, Tempo, 1562093
1, 18000, Note_on_c, 0, 51, 0
1, 18000, Note_on_c, 0, 48, 28
1, 18009, Control_c, 0, 64, 0
1, 18056, Control_c, 0, 64, 127
1, 18080, Note_on_c, 0, 60, 28
1, 18080, Note_on_c, 0, 72, 33
1, 18144, Note_on_c, 0, 72, 0
1, 18144, Note_on_c, 0, 60, 0
1, 18160, Note_on_c, 0, 60, 28
1, 18160, Note_on_c, 0, 72, 33
1, 18224, Note_on_c, 0, 72, 0
1, 18224, Note_on_c, 0, 60, 0
1, 18240, Tempo, 1582696
1, 18240, Note_on_c, 0, 48, 0
1, 18240, Note_on_c, 0, 47, 30
1, 18240, Control_c, 0, 64, 0
1, 18293, Control_c, 0, 64, 127
1, 18320, Note_on_c, 0, 59, 31
1, 18320, Note_on_c, 0, 71, 37
1, 18384, Note_on_c, 0, 71, 0
1, 18384, Note_on_c, 0, 59, 0
1, 18400, Note_on_c, 0, 59, 32
1, 18400, Note_on_c, 0, 71, 38
1, 18464, Note_on_c, 0, 71, 0
1, 18464, Note_on_c, 0, 59, 0
1, 18480, Tempo, 1647899
1, 18480, Note_on_c, 0, 50, 45
1, 18486, Control_c, 0, 64, 0
1, 18490, Note_on_c, 0, 47, 0
1, 18526, Control_c, 0, 64, 127
1, 18560, Note_on_c, 0, 62, 42
1, 18560, Note_on_c, 0, 74, 49
1, 18624, Note_on_c, 0, 74, 0
1, 18624, Note_on_c, 0, 62, 0
1, 18640, Note_on_c, 0, 62, 42
1, 18640, Note_on_c, 0, 74, 50
1, 18704, Note_on_c, 0, 74, 0
1, 18704, Note_on_c, 0, 62, 0
1, 18720, Tempo, 2509410
1, 18720, Note_on_c, 0, 67, 0
1, 18720, Note_on_c, 0, 55, 0
1, 18720, Note_on_c, 0, 56, 64
1, 18727, Control_c, 0, 64, 0
1, 18730, Note_on_c, 0, 50, 0
1, 18783, Control_c, 0, 64, 127
1, 18840, Tempo, 1769390
1, 18840, Note_on_c, 0, 68, 56
1, 18840, Note_on_c, 0, 80, 65
1, 18960, Tempo, 1769390
1, 19190, Note_on_c, 0, 56, 0
1, 19200, Tempo, 1582696
1, 19200, Note_on_c, 0, 80, 0
1, 19200, Note_on_c, 0, 68, 0
1, 19200, Note_on_c, 0, 68, 38
1, 19200, Note_on_c, 0, 73, 45
1, 19200, Note_on_c, 0, 53, 31
1, 19200, Note_on_c, 0, 56, 31
1, 19200, Note_on_c, 0, 61, 31
1, 19200, Note_on_c, 0, 65, 37
1, 19205, Control_c, 0, 64, 0
1, 19413, Control_c, 0, 64, 127
1, 19651, Note_on_c, 0, 65, 0
1, 19651, Note_on_c, 0, 73, 0
1, 19651, Note_on_c, 0, 68, 0
1, 19651, Note_on_c, 0, 61, 0
1, 19675, Note_on_c, 0, 56, 0
1, 19675, Note_on_c, 0, 53, 0
1, 19680, Tempo, 1503383
1, 19680, Note_on_c, 0, 68, 39
1, 19680, Note_on_c, 0, 72, 39
1, 19680, Note_on_c, 0, 75, 39
1, 19680, Note_on_c, 0, 80, 47
1, 19680, Note_on_c, 0, 54, 32
1, 19680, Note_on_c, 0, 56, 32
1, 19680, Note_on_c, 0, 60, 32
1, 19680, Note_on_c, 0, 63, 32
1, 19680, Note_on_c, 0, 66, 38
1, 19686, Control_c, 0, 64, 0
1, 19874, Control_c, 0, 64, 127
1, 20131, Note_on_c, 0, 66, 0
1, 20131, Note_on_c, 0, 75, 0
1, 20131, Note_on_c, 0, 63, 0
1, 20131, Note_on_c, 0, 80, 0
1, 20155, Note_on_c, 0, 72, 0
1, 20155, Note_on_c, 0, 54, 0
1, 20155, Note_on_c, 0, 68, 0
1, 20155, Note_on_c, 0, 60, 0
1, 20155, Note_on_c, 0, 56, 0
1, 20160, Note_on_c, 0, 68, 28
1, 20160, Note_on_c, 0, 73, 28
1, 20160, Note_on_c, 0, 80, 40
1, 20160, Note_on_c, 0, 53, 27
1, 20160, Note_on_c, 0, 56, 27
1, 20160, Note_on_c, 0, 61, 27
1, 20160, Note_on_c, 0, 65, 32
1, 20160, Control_c, 0, 64, 0
1, 20209, Control_c, 0, 64, 127
1, 20400, Note_on_c, 0, 65, 0
1, 20400, Note_on_c, 0, 56, 0
1, 20400, Note_on_c, 0, 73, 0
1, 20400, Note_on_c, 0, 80, 0
1, 20400, Note_on_c, 0, 68, 0
1, 20400, Note_on_c, 0, 61, 0
1, 20400, Note_on_c, 0, 53, 0
1, 20400, Note_on_c, 0, 65, 26
1, 20400, Note_on_c, 0, 71, 26
1, 20400, Note_on_c, 0, 74, 37
1, 20400, Note_on_c, 0, 67, 27
1, 20400, Note_on_c, 0, 55, 22
1, 20408, Control_c, 0, 64, 0
1, 20442, Control_c, 0, 64, 127
1, 20464, Note_on_c, 0, 67, 0
1, 20480, Note_on_c, 0, 67, 27
1, 20520, Tempo, 1880288
1, 20544, Note_on_c, 0, 67, 0
1, 20560, Note_on_c, 0, 67, 23
1, 20573, Note_on_c, 0, 75, 34
1, 20580, Note_on_c, 0, 65, 0
1, 20580, Note_on_c, 0, 74, 0
1, 20580, Note_on_c, 0, 71, 0
1, 20624, Note_on_c, 0, 67, 0
1, 20633, Note_on_c, 0, 75, 0
1, 20640, Tempo, 1743679
1, 20640, Note_on_c, 0, 55, 0
1, 20640, Note_on_c, 0, 63, 34
1, 20640, Note_on_c, 0, 72, 40
1, 20640, Note_on_c, 0, 60, 21
1, 20640, Note_on_c, 0, 67, 30
1, 20650, Control_c, 0, 64, 0
1, 20686, Control_c, 0, 64, 127
1, 21011, Control_c, 0, 64, 0
1, 21120, Tempo, 1562093
1, 21120, Note_on_c, 0, 67, 0
1, 21120, Note_on_c, 0, 63, 0
1, 21120, Note_on_c, 0, 72, 0
1, 21120, Note_on_c, 0, 60, 0
1, 21120, Note_on_c, 0, 48, 32
1, 21120, Note_on_c, 0, 51, 32
1, 21240, Tempo, 1503383
1, 21240, Note_on_c, 0, 51, 0
1, 21240, Note_on_c, 0, 48, 0
1, 21240, Note_on_c, 0, 55, 30
1, 21240, Note_on_c, 0, 60, 30
1, 21300, Note_on_c, 0, 60, 0
1, 21300, Note_on_c, 0, 55, 0
1, 21360, Note_on_c, 0, 55, 34
1, 21360, Note_on_c, 0, 59, 34
1, 21360, Note_on_c, 0, 50, 31
1, 21360, Note_on_c, 0, 53, 31
1, 21420, Note_on_c, 0, 53, 0
1, 21420, Note_on_c, 0, 55, 0
1, 21420, Note_on_c, 0, 59, 0
1, 21420, Note_on_c, 0, 50, 0
1, 21480, Tempo, 1670844
1, 21480, Note_on_c, 0, 55, 30
1, 21480, Note_on_c, 0, 60, 30
1, 21480, Note_on_c, 0, 48, 26
1, 21480, Note_on_c, 0, 51, 26
1, 21540, Note_on_c, 0, 51, 0
1, 21540, Note_on_c, 0, 55, 0
1, 21540, Note_on_c, 0, 60, 0
1, 21540, Note_on_c, 0, 48, 0
1, 21600, Tempo, 1582696
1, 21600, Note_on_c, 0, 43, 33
1, 21600, Note_on_c, 0, 50, 33
1, 21653, Control_c, 0, 64, 127
1, 21720, Note_on_c, 0, 50, 0
1, 21720, Note_on_c, 0, 43, 0
1, 21720, Note_on_c, 0, 55, 33
1, 21720, Note_on_c, 0, 59, 33
1, 21720, Note_on_c, 0, 62, 33
1, 21780, Note_on_c, 0, 62, 0
1, 21780, Note_on_c, 0, 59, 0
1, 21780, Note_on_c, 0, 55, 0
1, 21840, Note_on_c, 0, 67, 60
1, 22080, Tempo, 1562093
1, 22080, Note_on_c, 0, 51, 35
1, 22080, Note_on_c, 0, 48, 35
1, 22080, Note_on_c, 0, 55, 35
1, 22082, Control_c, 0, 64, 0
1, 22133, Control_c, 0, 64, 127
1, 22160, Tempo, 1582696
1, 22160, Note_on_c, 0, 60, 31
1, 22160, Note_on_c, 0, 72, 37
1, 22200, Note_on_c, 0, 55, 0
1, 22200, Note_on_c, 0, 48, 0
1, 22200, Note_on_c, 0, 51, 0
1, 22224, Note_on_c, 0, 72, 0
1, 22224, Note_on_c, 0, 60, 0
1, 22240, Note_on_c, 0, 60, 32
1, 22240, Note_on_c, 0, 72, 38
1, 22304, Note_on_c, 0, 72, 0
1, 22304, Note_on_c, 0, 60, 0
1, 22320, Tempo, 1647899
1, 22320, Note_on_c, 0, 53, 37
1, 22320, Note_on_c, 0, 50, 37
1, 22320, Note_on_c, 0, 55, 37
1, 22327, Control_c, 0, 64, 0
1, 22380, Note_on_c, 0, 55, 0
1, 22380, Note_on_c, 0, 50, 0
1, 22380, Note_on_c, 0, 53, 0
1, 22400, Note_on_c, 0, 59, 45
1, 22400, Note_on_c, 0, 71, 53
1, 22440, Note_on_c, 0, 50, 34
1, 22440, Note_on_c, 0, 48, 34
1, 22440, Note_on_c, 0, 55, 34
1, 22464, Note_on_c, 0, 71, 0
1, 22464, Note_on_c, 0, 59, 0
1, 22480, Note_on_c, 0, 60, 47
1, 22480, Note_on_c, 0, 72, 56
1, 22500, Note_on_c, 0, 50, 0
1, 22500, Note_on_c, 0, 48, 0
1, 22500, Note_on_c, 0, 55, 0
1, 22544, Note_on_c, 0, 72, 0
1, 22544, Note_on_c, 0, 60, 0
1, 22560, Tempo, 1484781
1, 22560, Note_on_c, 0, 47, 44
1, 22560, Note_on_c, 0, 50, 44
1, 22560, Note_on_c, 0, 55, 44
1, 22680, Tempo, 1647899
1, 22680, Note_on_c, 0, 55, 0
1, 22680, Note_on_c, 0, 50, 0
1, 22680, Note_on_c, 0, 47, 0
1, 22680, Note_on_c, 0, 62, 57
1, 22680, Note_on_c, 0, 74, 65
1, 22740, Note_on_c, 0, 74, 0
1, 22740, Note_on_c, 0, 62, 0
1, 22800, Tempo, 1769390
1, 22800, Note_on_c, 0, 67, 0
1, 22800, Note_on_c, 0, 68, 56
1, 22800, Note_on_c, 0, 80, 65
1, 22898, Control_c, 0, 64, 127
1, 23040, Note_on_c, 0, 73, 48
1, 23040, Note_on_c, 0, 53, 31
1, 23040, Note_on_c, 0, 56, 31
1, 23040, Note_on_c, 0, 61, 31
1, 23040, Note_on_c, 0, 65, 37
1, 23500, Note_on_c, 0, 65, 0
1, 23500, Note_on_c, 0, 56, 0
1, 23500, Note_on_c, 0, 53, 0
1, 23500, Note_on_c, 0, 73, 0
1, 23500, Note_on_c, 0, 61, 0
1, 23520, Note_on_c, 0, 68, 0
1, 23520, Note_on_c, 0, 80, 0
1, 23520, Note_on_c, 0, 69, 51
1, 23520, Note_on_c, 0, 72, 51
1, 23520, Note_on_c, 0, 75, 51
1, 23520, Note_on_c, 0, 81, 61
1, 23520, Note_on_c, 0, 66, 43
1, 23520, Note_on_c, 0, 63, 36
1, 23520, Note_on_c, 0, 60, 36
1, 23520, Note_on_c, 0, 54, 36
1, 23524, Control_c, 0, 64, 0
1, 23602, Control_c, 0, 64, 127
1, 23860, Note_on_c, 0, 54, 0
1, 23860, Note_on_c, 0, 69, 0
1, 23860, Note_on_c, 0, 66, 0
1, 23860, Note_on_c, 0, 72, 0
1, 23860, Note_on_c, 0, 75, 0
1, 23860, Note_on_c, 0, 81, 0
1, 23860, Note_on_c, 0, 63, 0
1, 23860, Note_on_c, 0, 60, 0
1, 23880, Note_on_c, 0, 69, 35
1, 23880, Note_on_c, 0, 72, 35
1, 23880, Note_on_c, 0, 75, 35
1, 23880, Note_on_c, 0, 81, 42
1, 23880, Note_on_c, 0, 54, 31
1, 23880, Note_on_c, 0, 60, 31
1, 23880, Note_on_c, 0, 63, 31
1, 23880, Note_on_c, 0, 66, 37
1, 23980, Note_on_c, 0, 66, 0
1, 23980, Note_on_c, 0, 69, 0
1, 23980, Note_on_c, 0, 54, 0
1, 23980, Note_on_c, 0, 72, 0
1, 23980, Note_on_c, 0, 75, 0
1, 23980, Note_on_c, 0, 81, 0
1, 23980, Note_on_c, 0, 60, 0
1, 23980, Note_on_c, 0, 63, 0
1, 24000, Note_on_c, 0, 72, 30
1, 24000, Note_on_c, 0, 75, 30
1, 24000, Note_on_c, 0, 79, 36
1, 24000, Note_on_c, 0, 67, 32
1, 24000, Note_on_c, 0, 63, 27
1, 24000, Note_on_c, 0, 60, 27
1, 24000, Note_on_c, 0, 55, 27
1, 24005, Control_c, 0, 64, 0
1, 24120, Note_on_c, 0, 55, 0
1, 24120, Note_on_c, 0, 63, 0
1, 24120, Note_on_c, 0, 75, 0
1, 24120, Note_on_c, 0, 79, 0
1, 24120, Note_on_c, 0, 72, 0
1, 24120, Note_on_c, 0, 60, 0
1, 24120, Note_on_c, 0, 67, 0
1, 24240, Tempo, 1503383
1, 24240, Note_on_c, 0, 59, 31
1, 24240, Note_on_c, 0, 62, 37
1, 24240, Note_on_c, 0, 55, 27
1, 24240, Note_on_c, 0, 43, 27
1, 24240, Note_on_c, 0, 53, 27
1, 24248, Control_c, 0, 64, 0
1, 24282, Control_c, 0, 64, 127
1, 24304, Note_on_c, 0, 55, 0
1, 24320, Note_on_c, 0, 55, 27
1, 24360, Tempo, 1880288
1, 24384, Note_on_c, 0, 55, 0
1, 24400, Note_on_c, 0, 55, 23
1, 24420, Note_on_c, 0, 59, 0
1, 24420, Note_on_c, 0, 62, 0
1, 24420, Note_on_c, 0, 63, 34
1, 24464, Note_on_c, 0, 55, 0
1, 24480, Tempo, 3893576
1, 24480, Note_on_c, 0, 43, 0
1, 24480, Note_on_c, 0, 53, 0
1, 24480, Note_on_c, 0, 63, 0
1, 24480, Note_on_c, 0, 60, 40
1, 24480, Note_on_c, 0, 44, 30
1, 24480, Note_on_c, 0, 54, 30
1, 24480, Note_on_c, 0, 36, 25
1, 24480, Note_on_c, 0, 51, 30
1, 24490, Control_c, 0, 64, 0
1, 24526, Control_c, 0, 64, 127
1, 24840, Note_on_c, 0, 54, 0
1, 24840, Note_on_c, 0, 44, 0
1, 24840, Note_on_c, 0, 43, 24
1, 24840, Note_on_c, 0, 55, 28
1, 24851, Control_c, 0, 64, 0
1, 24960, Tempo, 1603849
1, 25680, Tempo, 1503383
1, 25680, Note_on_c, 0, 55, 0
1, 25680, Note_on_c, 0, 60, 0
1, 25680, Note_on_c, 0, 51, 0
1, 25680, Note_on_c, 0, 36, 0
1, 25680, Note_on_c, 0, 43, 0
1, 25680, Note_on_c, 0, 79, 40
1, 25680, Note_on_c, 0, 31, 29
1, 25680, Note_on_c, 0, 43, 35
1, 25712, Control_c, 0, 64, 127
1, 25760, Note_on_c, 0, 79, 0
1, 25760, Note_on_c, 0, 91, 49
1, 25840, Note_on_c, 0, 91, 0
1, 25840, Note_on_c, 0, 89, 43
1, 25890, Note_on_c, 0, 89, 0
1, 25890, Note_on_c, 0, 87, 51
1, 25905, Note_on_c, 0, 87, 0
1, 25905, Note_on_c, 0, 89, 51
1, 25920, Note_on_c, 0, 89, 0
1, 25920, Note_on_c, 0, 43, 0
1, 25920, Note_on_c, 0, 31, 0
1, 25920, Note_on_c, 0, 87, 51
1, 25920, Note_on_c, 0, 36, 34
1, 25920, Note_on_c, 0, 48, 40
1, 25920, Control_c, 0, 64, 0
1, 25957, Control_c, 0, 64, 127
1, 26000, Note_on_c, 0, 87, 0
1, 26000, Note_on_c, 0, 86, 43
1, 26080, Note_on_c, 0, 86, 0
1, 26080, Note_on_c, 0, 84, 43
1, 26160, Note_on_c, 0, 84, 0
1, 26160, Note_on_c, 0, 48, 0
1, 26160, Note_on_c, 0, 36, 0
1, 26160, Note_on_c, 0, 83, 50
1, 26160, Note_on_c, 0, 38, 28
1, 26160, Note_on_c, 0, 50, 34
1, 26174, Control_c, 0, 64, 0
1, 26208, Control_c, 0, 64, 127
1, 26240, Note_on_c, 0, 83, 0
1, 26240, Note_on_c, 0, 84, 40
1, 26320, Note_on_c, 0, 84, 0
1, 26320, Note_on_c, 0, 86, 40
1, 26400, Note_on_c, 0, 86, 0
1, 26400, Note_on_c, 0, 50, 0
1, 26400, Note_on_c, 0, 38, 0
1, 26400, Note_on_c, 0, 84, 49
1, 26400, Note_on_c, 0, 39, 28
1, 26400, Note_on_c, 0, 51, 34
1, 26407, Control_c, 0, 64, 0
1, 26420, Note_on_c, 0, 84, 0
1, 26420, Note_on_c, 0, 86, 45
1, 26440, Note_on_c, 0, 86, 0
1, 26440, Note_on_c, 0, 84, 51
1, 26445, Control_c, 0, 64, 127
1, 26480, Note_on_c, 0, 84, 0
1, 26480, Note_on_c, 0, 79, 42
1, 26560, Note_on_c, 0, 79, 0
1, 26560, Note_on_c, 0, 77, 42
1, 26640, Tempo, 1562093
1, 26640, Note_on_c, 0, 77, 0
1, 26640, Note_on_c, 0, 51, 0
1, 26640, Note_on_c, 0, 39, 0
1, 26640, Note_on_c, 0, 75, 47
1, 26640, Note_on_c, 0, 36, 23
1, 26640, Note_on_c, 0, 48, 28
1, 26655, Control_c, 0, 64, 0
1, 26680, Control_c, 0, 64, 127
1, 26720, Note_on_c, 0, 75, 0
1, 26720, Note_on_c, 0, 74, 40
1, 26800, Note_on_c, 0, 74, 0
1, 26800, Note_on_c, 0, 72, 40
1, 26880, Tempo, 1582696
1, 26880, Note_on_c, 0, 72, 0
1, 26880, Note_on_c, 0, 48, 0
1, 26880, Note_on_c, 0, 36, 0
1, 26880, Note_on_c, 0, 74, 46
1, 26880, Note_on_c, 0, 35, 25
1, 26880, Note_on_c, 0, 47, 30
1, 26880, Control_c, 0, 64, 0
1, 26920, Control_c, 0, 64, 127
1, 26960, Note_on_c, 0, 74, 0
1, 26960, Note_on_c, 0, 79, 38
1, 27040, Note_on_c, 0, 79, 0
1, 27040, Note_on_c, 0, 67, 38
1, 27120, Tempo, 1647899
1, 27120, Note_on_c, 0, 67, 0
1, 27120, Note_on_c, 0, 35, 0
1, 27120, Note_on_c, 0, 66, 42
1, 27120, Note_on_c, 0, 38, 32
1, 27120, Note_on_c, 0, 50, 38
1, 27125, Control_c, 0, 64, 0
1, 27130, Note_on_c, 0, 47, 0
1, 27157, Control_c, 0, 64, 127
1, 27200, Note_on_c, 0, 66, 0
1, 27200, Note_on_c, 0, 69, 37
1, 27280, Note_on_c, 0, 69, 0
1, 27280, Note_on_c, 0, 72, 37
1, 27360, Tempo, 2509410
1, 27360, Note_on_c, 0, 72, 0
1, 27360, Note_on_c, 0, 38, 0
1, 27360, Note_on_c, 0, 70, 49
1, 27360, Note_on_c, 0, 43, 36
1, 27360, Note_on_c, 0, 55, 43
1, 27370, Note_on_c, 0, 50, 0
1, 27374, Control_c, 0, 64, 0
1, 27380, Note_on_c, 0, 70, 0
1, 27380, Note_on_c, 0, 72, 45
1, 27391, Control_c, 0, 64, 127
1, 27400, Note_on_c, 0, 72, 0
1, 27400, Note_on_c, 0, 70, 51
1, 27440, Note_on_c, 0, 70, 0
1, 27440, Note_on_c, 0, 69, 36
1, 27452, Control_c, 0, 64, 0
1, 27480, Tempo, 1769390
1, 27483, Control_c, 0, 64, 127
1, 27520, Note_on_c, 0, 69, 0
1, 27520, Note_on_c, 0, 67, 38
1, 27530, Control_c, 0, 64, 0
1, 27600, Tempo, 1769390
1, 27830, Note_on_c, 0, 55, 0
1, 27840, Tempo, 1582696
1, 27840, Note_on_c, 0, 67, 0
1, 27840, Note_on_c, 0, 43, 0
1, 27840, Note_on_c, 0, 69, 46
1, 27840, Note_on_c, 0, 42, 25
1, 27840, Note_on_c, 0, 54, 30
1, 27840, Control_c, 0, 64, 0
1, 27880, Control_c, 0, 64, 127
1, 27920, Note_on_c, 0, 69, 0
1, 27920, Note_on_c, 0, 62, 38
1, 28000, Note_on_c, 0, 62, 0
1, 28000, Note_on_c, 0, 74, 38
1, 28080, Tempo, 1647899
1, 28080, Note_on_c, 0, 74, 0
1, 28080, Note_on_c, 0, 42, 0
1, 28080, Note_on_c, 0, 73, 46
1, 28080, Note_on_c, 0, 45, 32
1, 28080, Note_on_c, 0, 57, 38
1, 28085, Control_c, 0, 64, 0
1, 28090, Note_on_c, 0, 54, 0
1, 28117, Control_c, 0, 64, 127
1, 28160, Note_on_c, 0, 73, 0
1, 28160, Note_on_c, 0, 76, 37
1, 28240, Note_on_c, 0, 76, 0
1, 28240, Note_on_c, 0, 79, 39
1, 28320, Tempo, 2509410
1, 28320, Note_on_c, 0, 79, 0
1, 28320, Note_on_c, 0, 45, 0
1, 28320, Note_on_c, 0, 77, 49
1, 28320, Note_on_c, 0, 50, 36
1, 28320, Note_on_c, 0, 62, 43
1, 28330, Note_on_c, 0, 57, 0
1, 28334, Control_c, 0, 64, 0
1, 28340, Note_on_c, 0, 77, 0
1, 28340, Note_on_c, 0, 79, 45
1, 28351, Control_c, 0, 64, 127
1, 28360, Note_on_c, 0, 79, 0
1, 28360, Note_on_c, 0, 77, 51
1, 28400, Note_on_c, 0, 77, 0
1, 28400, Note_on_c, 0, 76, 36
1, 28412, Control_c, 0, 64, 0
1, 28440, Tempo, 1769390
1, 28443, Control_c, 0, 64, 127
1, 28480, Note_on_c, 0, 76, 0
1, 28480, Note_on_c, 0, 74, 38
1, 28490, Control_c, 0, 64, 0
1, 28560, Tempo, 1769390
1, 28770, Tempo, 1503383
1, 28770, Note_on_c, 0, 74, 0
1, 28770, Note_on_c, 0, 50, 0
1, 28770, Note_on_c, 0, 62, 0
1, 28770, Note_on_c, 0, 70, 51
1, 28785, Note_on_c, 0, 70, 0
1, 28785, Note_on_c, 0, 72, 51
1, 28800, Note_on_c, 0, 72, 0
1, 28800, Note_on_c, 0, 74, 44
1, 28800, Note_on_c, 0, 70, 51
1, 28800, Note_on_c, 0, 62, 45
1, 28800, Note_on_c, 0, 58, 38
1, 28880, Note_on_c, 0, 70, 0
1, 28880, Note_on_c, 0, 69, 43
1, 28960, Note_on_c, 0, 69, 0
1, 28960, Note_on_c, 0, 67, 43
1, 29040, Note_on_c, 0, 67, 0
1, 29040, Note_on_c, 0, 66, 50
1, 29120, Note_on_c, 0, 66, 0
1, 29120, Note_on_c, 0, 67, 40
1, 29200, Note_on_c, 0, 67, 0
1, 29200, Note_on_c, 0, 69, 40
1, 29260, Note_on_c, 0, 58, 0
1, 29260, Note_on_c, 0, 62, 0
1, 29280, Note_on_c, 0, 74, 0
1, 29280, Note_on_c, 0, 69, 0
1, 29280, Note_on_c, 0, 79, 42
1, 29280, Note_on_c, 0, 70, 51
1, 29280, Note_on_c, 0, 51, 34
1, 29280, Note_on_c, 0, 63, 40
1, 29280, Note_on_c, 0, 58, 34
1, 29360, Note_on_c, 0, 70, 0
1, 29360, Note_on_c, 0, 69, 42
1, 29440, Note_on_c, 0, 69, 0
1, 29440, Note_on_c, 0, 70, 42
1, 29520, Tempo, 1562093
1, 29520, Note_on_c, 0, 70, 0
1, 29520, Note_on_c, 0, 75, 47
1, 29545, Control_c, 0, 64, 127
1, 29600, Note_on_c, 0, 75, 0
1, 29600, Note_on_c, 0, 70, 40
1, 29680, Note_on_c, 0, 70, 0
1, 29680, Note_on_c, 0, 67, 40
1, 29730, Tempo, 1503383
1, 29730, Note_on_c, 0, 67, 0
1, 29730, Note_on_c, 0, 74, 51
1, 29740, Note_on_c, 0, 58, 0
1, 29740, Note_on_c, 0, 63, 0
1, 29740, Note_on_c, 0, 51, 0
1, 29745, Note_on_c, 0, 74, 0
1, 29745, Note_on_c, 0, 75, 51
1, 29760, Note_on_c, 0, 75, 0
1, 29760, Note_on_c, 0, 79, 0
1, 29760, Note_on_c, 0, 77, 44
1, 29760, Note_on_c, 0, 74, 51
1, 29760, Note_on_c, 0, 53, 41
1, 29760, Note_on_c, 0, 62, 49
1, 29760, Note_on_c, 0, 58, 41
1, 29760, Control_c, 0, 64, 0
1, 29828, Control_c, 0, 64, 127
1, 29840, Note_on_c, 0, 74, 0
1, 29840, Note_on_c, 0, 72, 43
1, 29920, Note_on_c, 0, 72, 0
1, 29920, Note_on_c, 0, 70, 43
1, 30000, Note_on_c, 0, 70, 0
1, 30000, Note_on_c, 0, 62, 0
1, 30000, Note_on_c, 0, 77, 0
1, 30000, Note_on_c, 0, 53, 0
1, 30000, Note_on_c, 0, 58, 0
1, 30000, Note_on_c, 0, 75, 42
1, 30000, Note_on_c, 0, 69, 50
1, 30000, Note_on_c, 0, 54, 36
1, 30000, Note_on_c, 0, 60, 43
1, 30007, Control_c, 0, 64, 0
1, 30043, Control_c, 0, 64, 127
1, 30080, Note_on_c, 0, 69, 0
1, 30080, Note_on_c, 0, 70, 40
1, 30160, Tempo, 1694437
1, 30160, Note_on_c, 0, 70, 0
1, 30160, Note_on_c, 0, 69, 40
1, 30240, Tempo, 1647899
1, 30240, Note_on_c, 0, 69, 0
1, 30240, Note_on_c, 0, 75, 0
1, 30240, Note_on_c, 0, 54, 0
1, 30240, Note_on_c, 0, 60, 0
1, 30240, Note_on_c, 0, 74, 47
1, 30240, Note_on_c, 0, 70, 49
1, 30240, Note_on_c, 0, 58, 49
1, 30240, Note_on_c, 0, 55, 41
1, 30248, Control_c, 0, 64, 0
1, 30260, Note_on_c, 0, 70, 0
1, 30260, Note_on_c, 0, 72, 45
1, 30277, Control_c, 0, 64, 127
1, 30280, Note_on_c, 0, 72, 0
1, 30280, Note_on_c, 0, 70, 51
1, 30320, Note_on_c, 0, 70, 0
1, 30320, Note_on_c, 0, 69, 42
1, 30331, Control_c, 0, 64, 0
1, 30400, Note_on_c, 0, 69, 0
1, 30400, Note_on_c, 0, 67, 42
1, 30480, Tempo, 1769390
1, 30720, Tempo, 1503383
1, 30720, Note_on_c, 0, 67, 0
1, 30720, Note_on_c, 0, 74, 0
1, 30720, Note_on_c, 0, 58, 0
1, 30720, Note_on_c, 0, 55, 0
1, 30720, Note_on_c, 0, 74, 47
1, 30720, Note_on_c, 0, 70, 49
1, 30720, Note_on_c, 0, 62, 46
1, 30720, Note_on_c, 0, 58, 39
1, 30720, Control_c, 0, 64, 127
1, 30740, Note_on_c, 0, 70, 0
1, 30740, Note_on_c, 0, 72, 45
1, 30760, Note_on_c, 0, 72, 0
1, 30760, Note_on_c, 0, 70, 51
1, 30800, Note_on_c, 0, 70, 0
1, 30800, Note_on_c, 0, 69, 42
1, 30808, Control_c, 0, 64, 0
1, 30880, Note_on_c, 0, 69, 0
1, 30880, Note_on_c, 0, 67, 42
1, 30960, Tempo, 1562093
1, 30960, Note_on_c, 0, 67, 0
1, 30960, Note_on_c, 0, 66, 47
1, 31040, Note_on_c, 0, 66, 0
1, 31040, Note_on_c, 0, 67, 42
1, 31120, Note_on_c, 0, 67, 0
1, 31120, Note_on_c, 0, 69, 45
1, 31180, Note_on_c, 0, 58, 0
1, 31180, Note_on_c, 0, 62, 0
1, 31200, Note_on_c, 0, 74, 0
1, 31200, Note_on_c, 0, 69, 0
1, 31200, Note_on_c, 0, 79, 51
1, 31200, Note_on_c, 0, 70, 49
1, 31200, Note_on_c, 0, 51, 36
1, 31200, Note_on_c, 0, 63, 43
1, 31200, Note_on_c, 0, 58, 36
1, 31251, Control_c, 0, 64, 127
1, 31280, Note_on_c, 0, 70, 0
1, 31280, Note_on_c, 0, 69, 43
1, 31360, Note_on_c, 0, 69, 0
1, 31360, Note_on_c, 0, 70, 43
1, 31420, Note_on_c, 0, 58, 0
1, 31420, Note_on_c, 0, 63, 0
1, 31420, Note_on_c, 0, 51, 0
1, 31440, Note_on_c, 0, 79, 0
1, 31440, Note_on_c, 0, 70, 0
1, 31440, Note_on_c, 0, 77, 50
1, 31440, Note_on_c, 0, 74, 47
1, 31440, Note_on_c, 0, 62, 40
1, 31440, Note_on_c, 0, 58, 34
1, 31440, Note_on_c, 0, 53, 34
1, 31450, Control_c, 0, 64, 0
1, 31505, Control_c, 0, 64, 127
1, 31520, Note_on_c, 0, 74, 0
1, 31520, Note_on_c, 0, 75, 41
1, 31600, Note_on_c, 0, 75, 0
1, 31600, Note_on_c, 0, 74, 39
1, 31680, Tempo, 1503383
1, 31680, Note_on_c, 0, 74, 0
1, 31680, Note_on_c, 0, 58, 0
1, 31680, Note_on_c, 0, 77, 0
1, 31680, Note_on_c, 0, 62, 0
1, 31680, Note_on_c, 0, 53, 0
1, 31680, Note_on_c, 0, 75, 51
1, 31680, Note_on_c, 0, 72, 49
1, 31680, Note_on_c, 0, 55, 39
1, 31680, Note_on_c, 0, 60, 39
1, 31680, Note_on_c, 0, 63, 47
1, 31688, Control_c, 0, 64, 0
1, 31700, Note_on_c, 0, 72, 0
1, 31700, Note_on_c, 0, 74, 45
1, 31717, Control_c, 0, 64, 127
1, 31720, Note_on_c, 0, 74, 0
1, 31720, Note_on_c, 0, 72, 51
1, 31760, Note_on_c, 0, 72, 0
1, 31760, Note_on_c, 0, 71, 42
1, 31771, Control_c, 0, 64, 0
1, 31840, Note_on_c, 0, 71, 0
1, 31840, Note_on_c, 0, 70, 42
1, 31900, Note_on_c, 0, 63, 0
1, 31900, Note_on_c, 0, 60, 0
1, 31900, Note_on_c, 0, 55, 0
1, 31920, Tempo, 1562093
1, 31920, Note_on_c, 0, 75, 0
1, 31920, Note_on_c, 0, 70, 0
1, 31920, Note_on_c, 0, 68, 47
1, 31920, Note_on_c, 0, 74, 50
1, 31920, Note_on_c, 0, 65, 40
1, 31920, Note_on_c, 0, 59, 34
1, 31920, Note_on_c, 0, 55, 34
1, 32000, Note_on_c, 0, 68, 0
1, 32000, Note_on_c, 0, 67, 42
1, 32080, Tempo, 1823154
1, 32080, Note_on_c, 0, 67, 0
1, 32080, Note_on_c, 0, 65, 45
1, 32140, Note_on_c, 0, 55, 0
1, 32140, Note_on_c, 0, 59, 0
1, 32140, Note_on_c, 0, 65, 0
1, 32160, Tempo, 1823154
1, 32160, Note_on_c, 0, 74, 0
1, 32160, Note_on_c, 0, 65, 0
1, 32160, Note_on_c, 0, 72, 47
1, 32160, Note_on_c, 0, 63, 49
1, 32160, Note_on_c, 0, 48, 38
1, 32160, Note_on_c, 0, 55, 45
1, 32180, Note_on_c, 0, 63, 0
1, 32180, Note_on_c, 0, 65, 45
1, 32183, Control_c, 0, 64, 127
1, 32200, Note_on_c, 0, 65, 0
1, 32200, Note_on_c, 0, 63, 51
1, 32240, Note_on_c, 0, 63, 0
1, 32240, Note_on_c, 0, 62, 42
1, 32247, Control_c, 0, 64, 0
1, 32320, Tempo, 1562093
1, 32320, Note_on_c, 0, 62, 0
1, 32320, Note_on_c, 0, 60, 42
1, 32371, Control_c, 0, 64, 127
1, 32640, Tempo, 1503383
1, 32640, Note_on_c, 0, 72, 0
1, 33092, Control_c, 0, 64, 0
1, 33360, Tempo, 1503383
1, 33360, Note_on_c, 0, 55, 0
1, 33360, Note_on_c, 0, 48, 0
1, 33360, Note_on_c, 0, 60, 0
1, 33360, Note_on_c, 0, 71, 39
1, 33360, Note_on_c, 0, 74, 39
1, 33360, Note_on_c, 0, 79, 47
1, 33360, Note_on_c, 0, 77, 39
1, 33360, Note_on_c, 0, 55, 36
1, 33406, Control_c, 0, 64, 127
1, 33440, Note_on_c, 0, 55, 0
1, 33440, Note_on_c, 0, 67, 44
1, 33520, Note_on_c, 0, 67, 0
1, 33520, Note_on_c, 0, 65, 38
1, 33600, Note_on_c, 0, 65, 0
1, 33600, Note_on_c, 0, 79, 0
1, 33600, Note_on_c, 0, 71, 0
1, 33600, Note_on_c, 0, 74, 0
1, 33600, Note_on_c, 0, 77, 0
1, 33600, Note_on_c, 0, 84, 48
1, 33600, Note_on_c, 0, 79, 40
1, 33600, Note_on_c, 0, 75, 40
1, 33600, Note_on_c, 0, 72, 40
1, 33600, Note_on_c, 0, 63, 44
1, 33600, Control_c, 0, 64, 0
1, 33620, Note_on_c, 0, 63, 0
1, 33620, Note_on_c, 0, 65, 40
1, 33631, Control_c, 0, 64, 127
1, 33640, Note_on_c, 0, 65, 0
1, 33640, Note_on_c, 0, 63, 45
1, 33680, Note_on_c, 0, 63, 0
1, 33680, Note_on_c, 0, 62, 38
1, 33685, Control_c, 0, 64, 0
1, 33760, Note_on_c, 0, 62, 0
1, 33760, Note_on_c, 0, 60, 38
1, 33828, Note_on_c, 0, 72, 0
1, 33828, Note_on_c, 0, 75, 0
1, 33828, Note_on_c, 0, 84, 0
1, 33828, Note_on_c, 0, 79, 0
1, 33840, Note_on_c, 0, 60, 0
1, 33840, Note_on_c, 0, 86, 52
1, 33840, Note_on_c, 0, 79, 44
1, 33840, Note_on_c, 0, 77, 44
1, 33840, Note_on_c, 0, 74, 44
1, 33840, Note_on_c, 0, 59, 45
1, 33920, Note_on_c, 0, 59, 0
1, 33920, Note_on_c, 0, 60, 36
1, 34000, Note_on_c, 0, 60, 0
1, 34000, Note_on_c, 0, 62, 36
1, 34068, Note_on_c, 0, 74, 0
1, 34068, Note_on_c, 0, 77, 0
1, 34068, Note_on_c, 0, 86, 0
1, 34068, Note_on_c, 0, 79, 0
1, 34080, Note_on_c, 0, 62, 0
1, 34080, Note_on_c, 0, 87, 53
1, 34080, Note_on_c, 0, 79, 45
1, 34080, Note_on_c, 0, 75, 45
1, 34080, Note_on_c, 0, 60, 44
1, 34091, Control_c, 0, 64, 127
1, 34100, Note_on_c, 0, 60, 0
1, 34100, Note_on_c, 0, 62, 40
1, 34120, Note_on_c, 0, 62, 0
1, 34120, Note_on_c, 0, 60, 45
1, 34160, Note_on_c, 0, 60, 0
1, 34160, Note_on_c, 0, 55, 37
1, 34168, Control_c, 0, 64, 0
1, 34240, Note_on_c, 0, 55, 0
1, 34240, Note_on_c, 0, 53, 37
1, 34308, Note_on_c, 0, 75, 0
1, 34308, Note_on_c, 0, 87, 0
1, 34308, Note_on_c, 0, 79, 0
1, 34320, Tempo, 1562093
1, 34320, Note_on_c, 0, 53, 0
1, 34320, Note_on_c, 0, 84, 52
1, 34320, Note_on_c, 0, 79, 44
1, 34320, Note_on_c, 0, 72, 44
1, 34320, Note_on_c, 0, 51, 42
1, 34400, Note_on_c, 0, 51, 0
1, 34400, Note_on_c, 0, 50, 36
1, 34480, Note_on_c, 0, 50, 0
1, 34480, Note_on_c, 0, 48, 36
1, 34548, Note_on_c, 0, 72, 0
1, 34548, Note_on_c, 0, 84, 0
1, 34548, Note_on_c, 0, 79, 0
1, 34560, Tempo, 1582696
1, 34560, Note_on_c, 0, 48, 0
1, 34560, Note_on_c, 0, 83, 55
1, 34560, Note_on_c, 0, 79, 46
1, 34560, Note_on_c, 0, 74, 46
1, 34560, Note_on_c, 0, 71, 46
1, 34560, Note_on_c, 0, 50, 41
1, 34580, Control_c, 0, 64, 127
1, 34640, Note_on_c, 0, 50, 0
1, 34640, Note_on_c, 0, 43, 34
1, 34720, Note_on_c, 0, 43, 0
1, 34720, Note_on_c, 0, 55, 34
1, 34788, Note_on_c, 0, 71, 0
1, 34788, Note_on_c, 0, 74, 0
1, 34788, Note_on_c, 0, 83, 0
1, 34788, Note_on_c, 0, 79, 0
1, 34800, Tempo, 1647899
1, 34800, Note_on_c, 0, 55, 0
1, 34800, Note_on_c, 0, 86, 50
1, 34800, Note_on_c, 0, 84, 42
1, 34800, Note_on_c, 0, 81, 42
1, 34800, Note_on_c, 0, 74, 42
1, 34800, Note_on_c, 0, 54, 37
1, 34811, Control_c, 0, 64, 0
1, 34863, Control_c, 0, 64, 127
1, 34880, Note_on_c, 0, 54, 0
1, 34880, Note_on_c, 0, 57, 33
1, 34960, Note_on_c, 0, 57, 0
1, 34960, Note_on_c, 0, 60, 33
1, 35028, Note_on_c, 0, 74, 0
1, 35028, Note_on_c, 0, 81, 0
1, 35028, Note_on_c, 0, 86, 0
1, 35028, Note_on_c, 0, 84, 0
1, 35040, Tempo, 2509410
1, 35040, Note_on_c, 0, 60, 0
1, 35040, Note_on_c, 0, 91, 55
1, 35040, Note_on_c, 0, 86, 46
1, 35040, Note_on_c, 0, 82, 46
1, 35040, Note_on_c, 0, 79, 46
1, 35040, Note_on_c, 0, 58, 44
1, 35049, Control_c, 0, 64, 0
1, 35060, Note_on_c, 0, 58, 0
1, 35060, Note_on_c, 0, 60, 40
1, 35080, Note_on_c, 0, 60, 0
1, 35080, Note_on_c, 0, 58, 45
1, 35080, Control_c, 0, 64, 127
1, 35120, Note_on_c, 0, 58, 0
1, 35120, Note_on_c, 0, 57, 32
1, 35130, Control_c, 0, 64, 0
1, 35160, Tempo, 1769390
1, 35200, Note_on_c, 0, 57, 0
1, 35200, Note_on_c, 0, 55, 34
1, 35280, Tempo, 1769390
1, 35520, Tempo, 1582696
1, 35520, Note_on_c, 0, 55, 0
1, 35520, Note_on_c, 0, 82, 0
1, 35520, Note_on_c, 0, 91, 0
1, 35520, Note_on_c, 0, 86, 0
1, 35520, Note_on_c, 0, 79, 0
1, 35520, Note_on_c, 0, 90, 61
1, 35520, Note_on_c, 0, 86, 51
1, 35520, Note_on_c, 0, 81, 51
1, 35520, Note_on_c, 0, 78, 51
1, 35520, Note_on_c, 0, 57, 41
1, 35523, Control_c, 0, 64, 127
1, 35600, Note_on_c, 0, 57, 0
1, 35600, Note_on_c, 0, 50, 34
1, 35680, Note_on_c, 0, 50, 0
1, 35680, Note_on_c, 0, 62, 34
1, 35748, Note_on_c, 0, 78, 0
1, 35748, Note_on_c, 0, 81, 0
1, 35748, Note_on_c, 0, 90, 0
1, 35748, Note_on_c, 0, 86, 0
1, 35760, Tempo, 1647899
1, 35760, Note_on_c, 0, 62, 0
1, 35760, Note_on_c, 0, 93, 54
1, 35760, Note_on_c, 0, 91, 45
1, 35760, Note_on_c, 0, 88, 45
1, 35760, Note_on_c, 0, 81, 45
1, 35760, Note_on_c, 0, 61, 41
1, 35768, Control_c, 0, 64, 0
1, 35797, Control_c, 0, 64, 127
1, 35840, Note_on_c, 0, 61, 0
1, 35840, Note_on_c, 0, 64, 33
1, 35920, Note_on_c, 0, 64, 0
1, 35920, Note_on_c, 0, 67, 35
1, 35988, Note_on_c, 0, 81, 0
1, 35988, Note_on_c, 0, 88, 0
1, 35988, Note_on_c, 0, 93, 0
1, 35988, Note_on_c, 0, 91, 0
1, 36000, Tempo, 2509410
1, 36000, Note_on_c, 0, 67, 0
1, 36000, Note_on_c, 0, 98, 63
1, 36000, Note_on_c, 0, 93, 53
1, 36000, Note_on_c, 0, 89, 53
1, 36000, Note_on_c, 0, 86, 53
1, 36000, Note_on_c, 0, 65, 44
1, 36010, Control_c, 0, 64, 0
1, 36020, Note_on_c, 0, 65, 0
1, 36020, Note_on_c, 0, 67, 40
1, 36034, Control_c, 0, 64, 127
1, 36040, Note_on_c, 0, 67, 0
1, 36040, Note_on_c, 0, 65, 45
1, 36080, Note_on_c, 0, 65, 0
1, 36080, Note_on_c, 0, 64, 32
1, 36088, Control_c, 0, 64, 0
1, 36120, Tempo, 1769390
1, 36125, Control_c, 0, 64, 127
1, 36160, Note_on_c, 0, 64, 0
1, 36160, Note_on_c, 0, 62, 34
1, 36175, Control_c, 0, 64, 0
1, 36220, Control_c, 0, 64, 127
1, 36240, Tempo, 1769390
1, 36450, Tempo, 1503383
1, 36450, Note_on_c, 0, 62, 0
1, 36480, Note_on_c, 0, 89, 0
1, 36480, Note_on_c, 0, 98, 0
1, 36480, Note_on_c, 0, 93, 0
1, 36480, Note_on_c, 0, 86, 0
1, 36480, Note_on_c, 0, 65, 48
1, 36480, Note_on_c, 0, 74, 57
1, 36480, Note_on_c, 0, 58, 44
1, 36480, Control_c, 0, 64, 0
1, 36500, Note_on_c, 0, 58, 0
1, 36500, Note_on_c, 0, 60, 40
1, 36511, Control_c, 0, 64, 127
1, 36520, Note_on_c, 0, 60, 0
1, 36520, Note_on_c, 0, 58, 45
1, 36560, Note_on_c, 0, 58, 0
1, 36560, Note_on_c, 0, 57, 38
1, 36566, Control_c, 0, 64, 0
1, 36640, Note_on_c, 0, 57, 0
1, 36640, Note_on_c, 0, 55, 38
1, 36720, Note_on_c, 0, 55, 0
1, 36720, Note_on_c, 0, 53, 45
1, 36800, Note_on_c, 0, 53, 0
1, 36800, Note_on_c, 0, 55, 36
1, 36880, Note_on_c, 0, 55, 0
1, 36880, Note_on_c, 0, 57, 36
1, 36960, Note_on_c, 0, 57, 0
1, 36960, Note_on_c, 0, 74, 0
1, 36960, Note_on_c, 0, 65, 0
1, 36960, Note_on_c, 0, 67, 50
1, 36960, Note_on_c, 0, 70, 50
1, 36960, Note_on_c, 0, 79, 59
1, 36960, Note_on_c, 0, 51, 37
1, 36960, Note_on_c, 0, 58, 45
1, 37040, Note_on_c, 0, 58, 0
1, 37040, Note_on_c, 0, 57, 37
1, 37120, Note_on_c, 0, 57, 0
1, 37120, Note_on_c, 0, 58, 37
1, 37200, Tempo, 1562093
1, 37200, Note_on_c, 0, 58, 0
1, 37200, Note_on_c, 0, 63, 42
1, 37214, Control_c, 0, 64, 127
1, 37280, Note_on_c, 0, 63, 0
1, 37280, Note_on_c, 0, 58, 36
1, 37360, Note_on_c, 0, 58, 0
1, 37360, Note_on_c, 0, 55, 36
1, 37410, Tempo, 1503383
1, 37410, Note_on_c, 0, 55, 0
1, 37440, Note_on_c, 0, 51, 0
1, 37440, Note_on_c, 0, 67, 0
1, 37440, Note_on_c, 0, 70, 0
1, 37440, Note_on_c, 0, 79, 0
1, 37440, Note_on_c, 0, 77, 44
1, 37440, Note_on_c, 0, 74, 49
1, 37440, Note_on_c, 0, 50, 39
1, 37440, Note_on_c, 0, 58, 45
1, 37440, Control_c, 0, 64, 0
1, 37460, Note_on_c, 0, 74, 0
1, 37460, Note_on_c, 0, 75, 45
1, 37477, Control_c, 0, 64, 127
1, 37480, Note_on_c, 0, 75, 0
1, 37480, Note_on_c, 0, 74, 51
1, 37520, Note_on_c, 0, 74, 0
1, 37520, Note_on_c, 0, 58, 0
1, 37520, Note_on_c, 0, 72, 43
1, 37520, Note_on_c, 0, 57, 38
1, 37531, Control_c, 0, 64, 0
1, 37600, Note_on_c, 0, 57, 0
1, 37600, Note_on_c, 0, 72, 0
1, 37600, Note_on_c, 0, 70, 43
1, 37600, Note_on_c, 0, 55, 38
1, 37680, Note_on_c, 0, 55, 0
1, 37680, Note_on_c, 0, 77, 0
1, 37680, Note_on_c, 0, 50, 0
1, 37680, Note_on_c, 0, 70, 0
1, 37680, Note_on_c, 0, 75, 42
1, 37680, Note_on_c, 0, 69, 50
1, 37680, Note_on_c, 0, 54, 45
1, 37760, Note_on_c, 0, 69, 0
1, 37760, Note_on_c, 0, 70, 40
1, 37760, Note_on_c, 0, 55, 36
1, 37840, Tempo, 1694437
1, 37840, Note_on_c, 0, 55, 0
1, 37840, Note_on_c, 0, 70, 0
1, 37840, Note_on_c, 0, 72, 40
1, 37840, Note_on_c, 0, 57, 36
1, 37920, Tempo, 1647899
1, 37920, Note_on_c, 0, 57, 0
1, 37920, Note_on_c, 0, 75, 0
1, 37920, Note_on_c, 0, 54, 0
1, 37920, Note_on_c, 0, 72, 0
1, 37920, Note_on_c, 0, 74, 47
1, 37920, Note_on_c, 0, 70, 49
1, 37920, Note_on_c, 0, 55, 40
1, 37940, Note_on_c, 0, 70, 0
1, 37940, Note_on_c, 0, 72, 45
1, 37957, Control_c, 0, 64, 127
1, 37960, Note_on_c, 0, 72, 0
1, 37960, Note_on_c, 0, 70, 51
1, 38000, Note_on_c, 0, 70, 0
1, 38000, Note_on_c, 0, 69, 42
1, 38000, Note_on_c, 0, 57, 37
1, 38005, Control_c, 0, 64, 0
1, 38080, Note_on_c, 0, 57, 0
1, 38080, Note_on_c, 0, 69, 0
1, 38080, Note_on_c, 0, 67, 42
1, 38080, Note_on_c, 0, 58, 37
1, 38160, Tempo, 1769390
1, 38400, Tempo, 1503383
1, 38400, Note_on_c, 0, 58, 0
1, 38400, Note_on_c, 0, 74, 0
1, 38400, Note_on_c, 0, 55, 0
1, 38400, Note_on_c, 0, 67, 0
1, 38400, Note_on_c, 0, 65, 39
1, 38400, Note_on_c, 0, 74, 47
1, 38400, Note_on_c, 0, 58, 44
1, 38417, Control_c, 0, 64, 127
1, 38420, Note_on_c, 0, 58, 0
1, 38420, Note_on_c, 0, 60, 40
1, 38440, Note_on_c, 0, 60, 0
1, 38440, Note_on_c, 0, 58, 45
1, 38480, Note_on_c, 0, 58, 0
1, 38480, Note_on_c, 0, 57, 37
1, 38488, Control_c, 0, 64, 0
1, 38560, Note_on_c, 0, 57, 0
1, 38560, Note_on_c, 0, 55, 37
1, 38640, Tempo, 1562093
1, 38640, Note_on_c, 0, 55, 0
1, 38640, Note_on_c, 0, 53, 42
1, 38720, Note_on_c, 0, 53, 0
1, 38720, Note_on_c, 0, 55, 37
1, 38800, Note_on_c, 0, 55, 0
1, 38800, Note_on_c, 0, 57, 40
1, 38880, Note_on_c, 0, 57, 0
1, 38880, Note_on_c, 0, 74, 0
1, 38880, Note_on_c, 0, 65, 0
1, 38880, Note_on_c, 0, 79, 51
1, 38880, Note_on_c, 0, 67, 41
1, 38880, Note_on_c, 0, 51, 45
1, 38880, Note_on_c, 0, 58, 44
1, 38960, Note_on_c, 0, 58, 0
1, 38960, Note_on_c, 0, 57, 38
1, 39040, Note_on_c, 0, 57, 0
1, 39040, Note_on_c, 0, 58, 38
1, 39120, Note_on_c, 0, 58, 0
1, 39120, Note_on_c, 0, 79, 0
1, 39120, Note_on_c, 0, 67, 0
1, 39120, Note_on_c, 0, 51, 0
1, 39120, Note_on_c, 0, 77, 50
1, 39120, Note_on_c, 0, 70, 49
1, 39120, Note_on_c, 0, 53, 45
1, 39120, Note_on_c, 0, 62, 42
1, 39140, Note_on_c, 0, 70, 0
1, 39140, Note_on_c, 0, 72, 45
1, 39148, Control_c, 0, 64, 127
1, 39160, Note_on_c, 0, 72, 0
1, 39160, Note_on_c, 0, 70, 51
1, 39200, Note_on_c, 0, 70, 0
1, 39200, Note_on_c, 0, 62, 0
1, 39200, Note_on_c, 0, 69, 41
1, 39200, Note_on_c, 0, 60, 36
1, 39214, Control_c, 0, 64, 0
1, 39280, Note_on_c, 0, 60, 0
1, 39280, Note_on_c, 0, 69, 0
1, 39280, Note_on_c, 0, 70, 39
1, 39280, Note_on_c, 0, 62, 35
1, 39360, Tempo, 1503383
1, 39360, Note_on_c, 0, 62, 0
1, 39360, Note_on_c, 0, 77, 0
1, 39360, Note_on_c, 0, 53, 0
1, 39360, Note_on_c, 0, 70, 0
1, 39360, Note_on_c, 0, 72, 49
1, 39360, Note_on_c, 0, 75, 51
1, 39360, Note_on_c, 0, 63, 40
1, 39360, Note_on_c, 0, 55, 45
1, 39360, Control_c, 0, 64, 127
1, 39380, Note_on_c, 0, 72, 0
1, 39380, Note_on_c, 0, 74, 45
1, 39400, Note_on_c, 0, 74, 0
1, 39400, Note_on_c, 0, 72, 51
1, 39440, Note_on_c, 0, 72, 0
1, 39440, Note_on_c, 0, 63, 0
1, 39440, Note_on_c, 0, 71, 42
1, 39440, Note_on_c, 0, 62, 37
1, 39445, Control_c, 0, 64, 0
1, 39520, Note_on_c, 0, 62, 0
1, 39520, Note_on_c, 0, 71, 0
1, 39520, Note_on_c, 0, 70, 42
1, 39520, Note_on_c, 0, 63, 37
1, 39600, Tempo, 1562093
1, 39600, Note_on_c, 0, 63, 0
1, 39600, Note_on_c, 0, 55, 0
1, 39600, Note_on_c, 0, 75, 0
1, 39600, Note_on_c, 0, 70, 0
1, 39600, Note_on_c, 0, 74, 50
1, 39600, Note_on_c, 0, 68, 49
1, 39600, Note_on_c, 0, 55, 45
1, 39600, Note_on_c, 0, 65, 42
1, 39620, Note_on_c, 0, 68, 0
1, 39620, Note_on_c, 0, 70, 45
1, 39640, Note_on_c, 0, 70, 0
1, 39640, Note_on_c, 0, 68, 51
1, 39645, Control_c, 0, 64, 127
1, 39680, Note_on_c, 0, 68, 0
1, 39680, Note_on_c, 0, 65, 0
1, 39680, Note_on_c, 0, 67, 42
1, 39680, Note_on_c, 0, 62, 37
1, 39690, Control_c, 0, 64, 0
1, 39760, Tempo, 1823154
1, 39760, Note_on_c, 0, 62, 0
1, 39760, Note_on_c, 0, 67, 0
1, 39760, Note_on_c, 0, 65, 45
1, 39760, Note_on_c, 0, 59, 40
1, 39840, Tempo, 1823154
1, 39840, Note_on_c, 0, 59, 0
1, 39840, Note_on_c, 0, 74, 0
1, 39840, Note_on_c, 0, 55, 0
1, 39840, Note_on_c, 0, 65, 0
1, 39840, Note_on_c, 0, 63, 49
1, 39840, Note_on_c, 0, 72, 47
1, 39840, Note_on_c, 0, 60, 45
1, 39840, Note_on_c, 0, 48, 42
1, 39860, Note_on_c, 0, 63, 0
1, 39860, Note_on_c, 0, 65, 45
1, 39880, Note_on_c, 0, 65, 0
1, 39880, Note_on_c, 0, 63, 51
1, 39883, Control_c, 0, 64, 127
1, 39920, Note_on_c, 0, 63, 0
1, 39920, Note_on_c, 0, 60, 0
1, 39920, Note_on_c, 0, 62, 42
1, 39920, Note_on_c, 0, 55, 37
1, 39928, Control_c, 0, 64, 0
1, 40000, Tempo, 2040122
1, 40000, Note_on_c, 0, 55, 0
1, 40000, Note_on_c, 0, 62, 0
1, 40000, Note_on_c, 0, 60, 42
1, 40000, Note_on_c, 0, 51, 37
1, 40320, Tempo, 1743679
1, 40320, Note_on_c, 0, 51, 0
1, 40320, Note_on_c, 0, 48, 0
1, 40320, Note_on_c, 0, 72, 0
1, 40320, Note_on_c, 0, 60, 0
1, 40320, Note_on_c, 0, 56, 34
1, 40320, Note_on_c, 0, 60, 40
1, 40320, Note_on_c, 0, 44, 28
1, 40320, Note_on_c, 0, 51, 34
1, 40365, Control_c, 0, 64, 127
1, 40540, Note_on_c, 0, 51, 0
1, 40540, Note_on_c, 0, 56, 0
1, 40540, Note_on_c, 0, 60, 0
1, 40540, Note_on_c, 0, 44, 0
1, 40560, Tempo, 1603849
1, 40560, Note_on_c, 0, 55, 31
1, 40560, Note_on_c, 0, 58, 37
1, 40560, Note_on_c, 0, 46, 26
1, 40560, Note_on_c, 0, 51, 31
1, 40567, Control_c, 0, 64, 0
1, 40617, Control_c, 0, 64, 127
1, 40670, Note_on_c, 0, 51, 0
1, 40670, Note_on_c, 0, 55, 0
1, 40670, Note_on_c, 0, 58, 0
1, 40670, Note_on_c, 0, 46, 0
1, 40680, Tempo, 1823154
1, 40680, Note_on_c, 0, 56, 34
1, 40680, Note_on_c, 0, 60, 34
1, 40680, Note_on_c, 0, 44, 24
1, 40680, Note_on_c, 0, 51, 29
1, 40685, Control_c, 0, 64, 0
1, 40737, Control_c, 0, 64, 127
1, 40790, Note_on_c, 0, 51, 0
1, 40790, Note_on_c, 0, 56, 0
1, 40790, Note_on_c, 0, 60, 0
1, 40790, Note_on_c, 0, 44, 0
1, 40800, Tempo, 1718705
1, 40800, Note_on_c, 0, 56, 34
1, 40800, Note_on_c, 0, 61, 40
1, 40800, Note_on_c, 0, 41, 28
1, 40800, Note_on_c, 0, 53, 34
1, 40811, Control_c, 0, 64, 0
1, 40874, Control_c, 0, 64, 127
1, 41270, Note_on_c, 0, 53, 0
1, 41270, Note_on_c, 0, 56, 0
1, 41270, Note_on_c, 0, 61, 0
1, 41280, Tempo, 1743679
1, 41280, Note_on_c, 0, 41, 0
1, 41280, Note_on_c, 0, 56, 28
1, 41280, Note_on_c, 0, 60, 40
1, 41280, Note_on_c, 0, 44, 33
1, 41280, Note_on_c, 0, 51, 39
1, 41280, Control_c, 0, 64, 0
1, 41325, Control_c, 0, 64, 127
1, 41500, Note_on_c, 0, 51, 0
1, 41500, Note_on_c, 0, 56, 0
1, 41500, Note_on_c, 0, 60, 0
1, 41500, Note_on_c, 0, 44, 0
1, 41520, Tempo, 1603849
1, 41520, Note_on_c, 0, 55, 39
1, 41520, Note_on_c, 0, 58, 47
1, 41520, Note_on_c, 0, 46, 34
1, 41520, Note_on_c, 0, 51, 41
1, 41527, Control_c, 0, 64, 0
1, 41577, Control_c, 0, 64, 127
1, 41630, Note_on_c, 0, 51, 0
1, 41630, Note_on_c, 0, 55, 0
1, 41630, Note_on_c, 0, 58, 0
1, 41630, Note_on_c, 0, 46, 0
1, 41640, Tempo, 2271867
1, 41640, Note_on_c, 0, 56, 36
1, 41640, Note_on_c, 0, 60, 43
1, 41640, Note_on_c, 0, 44, 33
1, 41640, Note_on_c, 0, 51, 39
1, 41645, Control_c, 0, 64, 0
1, 41697, Control_c, 0, 64, 127
1, 41750, Note_on_c, 0, 51, 0
1, 41750, Note_on_c, 0, 56, 0
1, 41750, Note_on_c, 0, 60, 0
1, 41750, Note_on_c, 0, 44, 0
1, 41760, Tempo, 1718705
1, 41760, Note_on_c, 0, 58, 49
1, 41760, Note_on_c, 0, 63, 58
1, 41760, Note_on_c, 0, 43, 44
1, 41760, Note_on_c, 0, 55, 52
1, 41771, Control_c, 0, 64, 0
1, 41834, Control_c, 0, 64, 127
1, 42230, Note_on_c, 0, 55, 0
1, 42230, Note_on_c, 0, 58, 0
1, 42230, Note_on_c, 0, 63, 0
1, 42240, Note_on_c, 0, 43, 0
1, 42240, Note_on_c, 0, 56, 38
1, 42240, Note_on_c, 0, 60, 45
1, 42240, Note_on_c, 0, 44, 32
1, 42240, Note_on_c, 0, 51, 38
1, 42240, Control_c, 0, 64, 0
1, 42423, Control_c, 0, 64, 127
1, 42705, Note_on_c, 0, 51, 0
1, 42705, Note_on_c, 0, 56, 0
1, 42705, Note_on_c, 0, 60, 0
1, 42705, Note_on_c, 0, 44, 0
1, 42720, Tempo, 1603849
1, 42720, Note_on_c, 0, 61, 42
1, 42720, Note_on_c, 0, 68, 50
1, 42720, Note_on_c, 0, 41, 34
1, 42720, Note_on_c, 0, 53, 40
1, 42733, Control_c, 0, 64, 0
1, 42875, Control_c, 0, 64, 127
1, 42948, Note_on_c, 0, 53, 0
1, 42948, Note_on_c, 0, 61, 0
1, 42948, Note_on_c, 0, 68, 0
1, 42948, Note_on_c, 0, 41, 0
1, 42960, Tempo, 1941119
1, 42960, Note_on_c, 0, 62, 47
1, 42960, Note_on_c, 0, 68, 56
1, 42960, Note_on_c, 0, 41, 38
1, 42960, Note_on_c, 0, 53, 45
1, 43188, Note_on_c, 0, 53, 0
1, 43188, Note_on_c, 0, 62, 0
1, 43188, Note_on_c, 0, 68, 0
1, 43188, Note_on_c, 0, 41, 0
1, 43200, Tempo, 1694437
1, 43200, Note_on_c, 0, 63, 46
1, 43200, Note_on_c, 0, 67, 55
1, 43200, Note_on_c, 0, 48, 40
1, 43200, Note_on_c, 0, 43, 40
1, 43200, Note_on_c, 0, 55, 48
1, 43200, Control_c, 0, 64, 0
1, 43249, Control_c, 0, 64, 127
1, 43428, Note_on_c, 0, 43, 0
1, 43433, Note_on_c, 0, 55, 0
1, 43440, Note_on_c, 0, 63, 0
1, 43440, Note_on_c, 0, 67, 0
1, 43440, Note_on_c, 0, 48, 0
1, 43440, Note_on_c, 0, 59, 31
1, 43440, Note_on_c, 0, 62, 37
1, 43440, Note_on_c, 0, 43, 21
1, 43440, Note_on_c, 0, 53, 25
1, 43448, Control_c, 0, 64, 0
1, 43482, Control_c, 0, 64, 127
1, 43560, Tempo, 1880288
1, 43620, Note_on_c, 0, 62, 0
1, 43620, Note_on_c, 0, 59, 0
1, 43620, Note_on_c, 0, 63, 34
1, 43680, Tempo, 3172924
1, 43680, Note_on_c, 0, 63, 0
1, 43680, Note_on_c, 0, 43, 0
1, 43680, Note_on_c, 0, 53, 0
1, 43680, Note_on_c, 0, 55, 34
1, 43680, Note_on_c, 0, 60, 40
1, 43680, Note_on_c, 0, 48, 25
1, 43680, Note_on_c, 0, 51, 30
1, 43690, Control_c, 0, 64, 0
1, 43726, Control_c, 0, 64, 127
1, 44150, Note_on_c, 0, 51, 0
1, 44150, Note_on_c, 0, 55, 0
1, 44150, Note_on_c, 0, 60, 0
1, 44150, Note_on_c, 0, 48, 0
1, 44160, Time_signature, 4, 4, 6, 8
1, 44160, Tempo, 1743679
1, 44160, Note_on_c, 0, 56, 34
1, 44160, Note_on_c, 0, 60, 40
1, 44160, Note_on_c, 0, 44, 28
1, 44160, Note_on_c, 0, 51, 34
1, 44160, Control_c, 0, 64, 0
1, 44205, Control_c, 0, 64, 127
1, 44380, Note_on_c, 0, 51, 0
1, 44380, Note_on_c, 0, 56, 0
1, 44380, Note_on_c, 0, 60, 0
1, 44380, Note_on_c, 0, 44, 0
1, 44400, Tempo, 1603849
1, 44400, Note_on_c, 0, 55, 31
1, 44400, Note_on_c, 0, 58, 37
1, 44400, Note_on_c, 0, 46, 26
1, 44400, Note_on_c, 0, 51, 31
1, 44407, Control_c, 0, 64, 0
1, 44457, Control_c, 0, 64, 127
1, 44510, Note_on_c, 0, 51, 0
1, 44510, Note_on_c, 0, 55, 0
1, 44510, Note_on_c, 0, 58, 0
1, 44510, Note_on_c, 0, 46, 0
1, 44520, Tempo, 1823154
1, 44520, Note_on_c, 0, 56, 34
1, 44520, Note_on_c, 0, 60, 34
1, 44520, Note_on_c, 0, 44, 24
1, 44520, Note_on_c, 0, 51, 29
1, 44525, Control_c, 0, 64, 0
1, 44577, Control_c, 0, 64, 127
1, 44630, Note_on_c, 0, 51, 0
1, 44630, Note_on_c, 0, 56, 0
1, 44630, Note_on_c, 0, 60, 0
1, 44630, Note_on_c, 0, 44, 0
1, 44640, Time_signature, 3, 4, 6, 8
1, 44640, Tempo, 2006018
1, 44647, Note_on_c, 0, 56, 34
1, 44647, Note_on_c, 0, 61, 40
1, 44647, Note_on_c, 0, 41, 28
1, 44647, Note_on_c, 0, 53, 34
1, 44658, Control_c, 0, 64, 0
1, 44721, Control_c, 0, 64, 127
1, 44760, Tempo, 1582696
1, 44820, Note_on_c, 0, 80, 28
1, 44820, Note_on_c, 0, 85, 28
1, 44820, Note_on_c, 0, 92, 34
1, 44820, Note_on_c, 0, 65, 30
1, 44820, Note_on_c, 0, 73, 30
1, 44820, Note_on_c, 0, 77, 36
1, 44865, Note_on_c, 0, 77, 0
1, 44865, Note_on_c, 0, 73, 0
1, 44865, Note_on_c, 0, 92, 0
1, 44865, Note_on_c, 0, 65, 0
1, 44865, Note_on_c, 0, 80, 0
1, 44865, Note_on_c, 0, 85, 0
1, 44880, Note_on_c, 0, 82, 24
1, 44880, Note_on_c, 0, 85, 24
1, 44880, Note_on_c, 0, 91, 29
1, 44880, Note_on_c, 0, 67, 25
1, 44880, Note_on_c, 0, 73, 25
1, 44880, Note_on_c, 0, 75, 30
1, 44925, Note_on_c, 0, 75, 0
1, 44925, Note_on_c, 0, 73, 0
1, 44925, Note_on_c, 0, 91, 0
1, 44925, Note_on_c, 0, 67, 0
1, 44925, Note_on_c, 0, 82, 0
1, 44925, Note_on_c, 0, 85, 0
1, 44940, Note_on_c, 0, 80, 23
1, 44940, Note_on_c, 0, 85, 23
1, 44940, Note_on_c, 0, 89, 28
1, 44940, Note_on_c, 0, 68, 23
1, 44940, Note_on_c, 0, 73, 28
1, 44985, Note_on_c, 0, 73, 0
1, 44985, Note_on_c, 0, 68, 0
1, 44985, Note_on_c, 0, 89, 0
1, 44985, Note_on_c, 0, 80, 0
1, 44985, Note_on_c, 0, 85, 0
1, 45000, Tempo, 1522456
1, 45000, Note_on_c, 0, 80, 28
1, 45000, Note_on_c, 0, 85, 28
1, 45000, Note_on_c, 0, 89, 34
1, 45000, Note_on_c, 0, 68, 28
1, 45000, Note_on_c, 0, 73, 34
1, 45000, Control_c, 0, 64, 0
1, 45007, Note_on_c, 0, 41, 0
1, 45007, Note_on_c, 0, 56, 0
1, 45007, Note_on_c, 0, 53, 0
1, 45007, Note_on_c, 0, 61, 0
1, 45031, Control_c, 0, 64, 127
1, 45045, Note_on_c, 0, 85, 0
1, 45045, Note_on_c, 0, 80, 0
1, 45045, Note_on_c, 0, 68, 0
1, 45045, Note_on_c, 0, 89, 0
1, 45060, Note_on_c, 0, 79, 28
1, 45060, Note_on_c, 0, 87, 30
1, 45060, Note_on_c, 0, 70, 28
1, 45086, Note_on_c, 0, 73, 0
1, 45105, Note_on_c, 0, 79, 0
1, 45105, Note_on_c, 0, 87, 0
1, 45105, Note_on_c, 0, 70, 0
1, 45120, Tempo, 1694437
1, 45120, Note_on_c, 0, 79, 25
1, 45120, Note_on_c, 0, 85, 25
1, 45120, Note_on_c, 0, 87, 30
1, 45120, Note_on_c, 0, 70, 23
1, 45120, Note_on_c, 0, 73, 28
1, 45165, Note_on_c, 0, 73, 0
1, 45165, Note_on_c, 0, 87, 0
1, 45165, Note_on_c, 0, 79, 0
1, 45165, Note_on_c, 0, 85, 0
1, 45165, Note_on_c, 0, 70, 0
1, 45171, Control_c, 0, 64, 0
1, 45180, Tempo, 1484781
1, 45180, Note_on_c, 0, 80, 28
1, 45180, Note_on_c, 0, 85, 28
1, 45180, Note_on_c, 0, 92, 34
1, 45180, Note_on_c, 0, 65, 28
1, 45180, Note_on_c, 0, 73, 28
1, 45180, Note_on_c, 0, 77, 34
1, 45211, Control_c, 0, 64, 127
1, 45225, Note_on_c, 0, 77, 0
1, 45225, Note_on_c, 0, 85, 0
1, 45225, Note_on_c, 0, 92, 0
1, 45225, Note_on_c, 0, 80, 0
1, 45225, Note_on_c, 0, 73, 0
1, 45225, Note_on_c, 0, 65, 0
1, 45240, Tempo, 1522456
1, 45240, Note_on_c, 0, 82, 22
1, 45240, Note_on_c, 0, 85, 22
1, 45240, Note_on_c, 0, 91, 27
1, 45240, Note_on_c, 0, 67, 24
1, 45240, Note_on_c, 0, 73, 24
1, 45240, Note_on_c, 0, 75, 29
1, 45285, Note_on_c, 0, 75, 0
1, 45285, Note_on_c, 0, 85, 0
1, 45285, Note_on_c, 0, 91, 0
1, 45285, Note_on_c, 0, 82, 0
1, 45285, Note_on_c, 0, 73, 0
1, 45285, Note_on_c, 0, 67, 0
1, 45300, Tempo, 1647899
1, 45300, Note_on_c, 0, 80, 22
1, 45300, Note_on_c, 0, 85, 22
1, 45300, Note_on_c, 0, 89, 27
1, 45300, Note_on_c, 0, 68, 28
1, 45300, Note_on_c, 0, 73, 34
1, 45345, Note_on_c, 0, 73, 0
1, 45345, Note_on_c, 0, 89, 0
1, 45345, Note_on_c, 0, 80, 0
1, 45345, Note_on_c, 0, 85, 0
1, 45345, Note_on_c, 0, 68, 0
1, 45360, Tempo, 1562093
1, 45360, Note_on_c, 0, 80, 28
1, 45360, Note_on_c, 0, 85, 28
1, 45360, Note_on_c, 0, 89, 34
1, 45360, Note_on_c, 0, 68, 25
1, 45360, Note_on_c, 0, 73, 30
1, 45360, Control_c, 0, 64, 0
1, 45394, Control_c, 0, 64, 127
1, 45405, Note_on_c, 0, 68, 0
1, 45405, Note_on_c, 0, 89, 0
1, 45405, Note_on_c, 0, 80, 0
1, 45405, Note_on_c, 0, 85, 0
1, 45420, Note_on_c, 0, 79, 30
1, 45420, Note_on_c, 0, 87, 34
1, 45420, Note_on_c, 0, 70, 30
1, 45446, Note_on_c, 0, 73, 0
1, 45465, Note_on_c, 0, 79, 0
1, 45465, Note_on_c, 0, 87, 0
1, 45465, Note_on_c, 0, 70, 0
1, 45480, Note_on_c, 0, 79, 25
1, 45480, Note_on_c, 0, 85, 25
1, 45480, Note_on_c, 0, 87, 30
1, 45480, Note_on_c, 0, 70, 25
1, 45480, Note_on_c, 0, 73, 30
1, 45508, Control_c, 0, 64, 0
1, 45525, Note_on_c, 0, 73, 0
1, 45525, Note_on_c, 0, 87, 0
1, 45525, Note_on_c, 0, 79, 0
1, 45525, Note_on_c, 0, 85, 0
1, 45525, Note_on_c, 0, 70, 0
1, 45720, Time_signature, 4, 4, 6, 8
1, 45720, Tempo, 1743679
1, 45720, Note_on_c, 0, 56, 34
1, 45720, Note_on_c, 0, 60, 40
1, 45720, Note_on_c, 0, 44, 28
1, 45720, Note_on_c, 0, 51, 34
1, 45720, Control_c, 0, 64, 0
1, 45765, Control_c, 0, 64, 127
1, 45940, Note_on_c, 0, 51, 0
1, 45940, Note_on_c, 0, 56, 0
1, 45940, Note_on_c, 0, 60, 0
1, 45940, Note_on_c, 0, 44, 0
1, 45960, Tempo, 1603849
1, 45960, Note_on_c, 0, 55, 31
1, 45960, Note_on_c, 0, 58, 37
1, 45960, Note_on_c, 0, 46, 26
1, 45960, Note_on_c, 0, 51, 31
1, 45967, Control_c, 0, 64, 0
1, 46017, Control_c, 0, 64, 127
1, 46070, Note_on_c, 0, 51, 0
1, 46070, Note_on_c, 0, 55, 0
1, 46070, Note_on_c, 0, 58, 0
1, 46070, Note_on_c, 0, 46, 0
1, 46080, Tempo, 1823154
1, 46080, Note_on_c, 0, 56, 34
1, 46080, Note_on_c, 0, 60, 34
1, 46080, Note_on_c, 0, 44, 24
1, 46080, Note_on_c, 0, 51, 29
1, 46085, Control_c, 0, 64, 0
1, 46137, Control_c, 0, 64, 127
1, 46190, Note_on_c, 0, 51, 0
1, 46190, Note_on_c, 0, 56, 0
1, 46190, Note_on_c, 0, 60, 0
1, 46190, Note_on_c, 0, 44, 0
1, 46200, Time_signature, 3, 4, 6, 8
1, 46200, Tempo, 1973035
1, 46200, Note_on_c, 0, 58, 34
1, 46200, Note_on_c, 0, 63, 40
1, 46200, Note_on_c, 0, 43, 28
1, 46200, Note_on_c, 0, 55, 34
1, 46218, Control_c, 0, 64, 0
1, 46281, Control_c, 0, 64, 127
1, 46320, Tempo, 1582696
1, 46380, Note_on_c, 0, 82, 28
1, 46380, Note_on_c, 0, 87, 28
1, 46380, Note_on_c, 0, 94, 34
1, 46380, Note_on_c, 0, 67, 30
1, 46380, Note_on_c, 0, 75, 30
1, 46380, Note_on_c, 0, 79, 36
1, 46425, Note_on_c, 0, 79, 0
1, 46425, Note_on_c, 0, 75, 0
1, 46425, Note_on_c, 0, 94, 0
1, 46425, Note_on_c, 0, 67, 0
1, 46425, Note_on_c, 0, 82, 0
1, 46425, Note_on_c, 0, 87, 0
1, 46440, Note_on_c, 0, 84, 24
1, 46440, Note_on_c, 0, 87, 24
1, 46440, Note_on_c, 0, 93, 29
1, 46440, Note_on_c, 0, 69, 25
1, 46440, Note_on_c, 0, 75, 25
1, 46440, Note_on_c, 0, 77, 30
1, 46485, Note_on_c, 0, 77, 0
1, 46485, Note_on_c, 0, 75, 0
1, 46485, Note_on_c, 0, 93, 0
1, 46485, Note_on_c, 0, 69, 0
1, 46485, Note_on_c, 0, 84, 0
1, 46485, Note_on_c, 0, 87, 0
1, 46500, Note_on_c, 0, 82, 23
1, 46500, Note_on_c, 0, 87, 23
1, 46500, Note_on_c, 0, 91, 28
1, 46500, Note_on_c, 0, 70, 23
1, 46500, Note_on_c, 0, 75, 28
1, 46545, Note_on_c, 0, 75, 0
1, 46545, Note_on_c, 0, 70, 0
1, 46545, Note_on_c, 0, 91, 0
1, 46545, Note_on_c, 0, 82, 0
1, 46545, Note_on_c, 0, 87, 0
1, 46560, Tempo, 1522456
1, 46560, Note_on_c, 0, 43, 0
1, 46560, Note_on_c, 0, 55, 0
1, 46560, Note_on_c, 0, 63, 0
1, 46560, Note_on_c, 0, 58, 0
1, 46560, Note_on_c, 0, 82, 28
1, 46560, Note_on_c, 0, 87, 28
1, 46560, Note_on_c, 0, 91, 34
1, 46560, Note_on_c, 0, 70, 28
1, 46560, Note_on_c, 0, 75, 34
1, 46560, Control_c, 0, 64, 0
1, 46591, Control_c, 0, 64, 127
1, 46605, Note_on_c, 0, 70, 0
1, 46605, Note_on_c, 0, 91, 0
1, 46605, Note_on_c, 0, 82, 0
1, 46605, Note_on_c, 0, 87, 0
1, 46620, Note_on_c, 0, 81, 28
1, 46620, Note_on_c, 0, 89, 30
1, 46620, Note_on_c, 0, 72, 28
1, 46646, Note_on_c, 0, 75, 0
1, 46665, Note_on_c, 0, 81, 0
1, 46665, Note_on_c, 0, 89, 0
1, 46665, Note_on_c, 0, 72, 0
1, 46680, Tempo, 1694437
1, 46680, Note_on_c, 0, 81, 25
1, 46680, Note_on_c, 0, 87, 25
1, 46680, Note_on_c, 0, 89, 30
1, 46680, Note_on_c, 0, 72, 23
1, 46680, Note_on_c, 0, 75, 28
1, 46725, Note_on_c, 0, 75, 0
1, 46725, Note_on_c, 0, 89, 0
1, 46725, Note_on_c, 0, 81, 0
1, 46725, Note_on_c, 0, 87, 0
1, 46725, Note_on_c, 0, 72, 0
1, 46731, Control_c, 0, 64, 0
1, 46740, Tempo, 1484781
1, 46740, Note_on_c, 0, 82, 28
1, 46740, Note_on_c, 0, 87, 28
1, 46740, Note_on_c, 0, 94, 34
1, 46740, Note_on_c, 0, 67, 28
1, 46740, Note_on_c, 0, 75, 28
1, 46740, Note_on_c, 0, 79, 34
1, 46771, Control_c, 0, 64, 127
1, 46785, Note_on_c, 0, 79, 0
1, 46785, Note_on_c, 0, 87, 0
1, 46785, Note_on_c, 0, 94, 0
1, 46785, Note_on_c, 0, 82, 0
1, 46785, Note_on_c, 0, 75, 0
1, 46785, Note_on_c, 0, 67, 0
1, 46800, Tempo, 1522456
1, 46800, Note_on_c, 0, 84, 22
1, 46800, Note_on_c, 0, 87, 22
1, 46800, Note_on_c, 0, 93, 27
1, 46800, Note_on_c, 0, 69, 24
1, 46800, Note_on_c, 0, 75, 24
1, 46800, Note_on_c, 0, 77, 29
1, 46845, Note_on_c, 0, 77, 0
1, 46845, Note_on_c, 0, 87, 0
1, 46845, Note_on_c, 0, 93, 0
1, 46845, Note_on_c, 0, 84, 0
1, 46845, Note_on_c, 0, 75, 0
1, 46845, Note_on_c, 0, 69, 0
1, 46860, Tempo, 1647899
1, 46860, Note_on_c, 0, 82, 22
1, 46860, Note_on_c, 0, 87, 22
1, 46860, Note_on_c, 0, 91, 27
1, 46860, Note_on_c, 0, 70, 28
1, 46860, Note_on_c, 0, 75, 34
1, 46905, Note_on_c, 0, 75, 0
1, 46905, Note_on_c, 0, 91, 0
1, 46905, Note_on_c, 0, 82, 0
1, 46905, Note_on_c, 0, 87, 0
1, 46905, Note_on_c, 0, 70, 0
1, 46920, Tempo, 1562093
1, 46920, Note_on_c, 0, 82, 28
1, 46920, Note_on_c, 0, 87, 28
1, 46920, Note_on_c, 0, 91, 34
1, 46920, Note_on_c, 0, 70, 25
1, 46920, Note_on_c, 0, 75, 30
1, 46920, Control_c, 0, 64, 0
1, 46954, Control_c, 0, 64, 127
1, 46965, Note_on_c, 0, 70, 0
1, 46965, Note_on_c, 0, 91, 0
1, 46965, Note_on_c, 0, 82, 0
1, 46965, Note_on_c, 0, 87, 0
1, 46980, Note_on_c, 0, 81, 30
1, 46980, Note_on_c, 0, 89, 34
1, 46980, Note_on_c, 0, 72, 30
1, 47006, Note_on_c, 0, 75, 0
1, 47025, Note_on_c, 0, 81, 0
1, 47025, Note_on_c, 0, 89, 0
1, 47025, Note_on_c, 0, 72, 0
1, 47040, Note_on_c, 0, 81, 25
1, 47040, Note_on_c, 0, 87, 25
1, 47040, Note_on_c, 0, 89, 30
1, 47040, Note_on_c, 0, 72, 25
1, 47040, Note_on_c, 0, 75, 30
1, 47068, Control_c, 0, 64, 0
1, 47085, Note_on_c, 0, 75, 0
1, 47085, Note_on_c, 0, 89, 0
1, 47085, Note_on_c, 0, 81, 0
1, 47085, Note_on_c, 0, 87, 0
1, 47085, Note_on_c, 0, 72, 0
1, 47280, Time_signature, 2, 2, 24, 8
1, 47280, Tempo, 1503383
1, 47280, Note_on_c, 0, 65, 39
1, 47280, Note_on_c, 0, 74, 47
1, 47280, Note_on_c, 0, 58, 44
1, 47297, Control_c, 0, 64, 127
1, 47300, Note_on_c, 0, 58, 0
1, 47300, Note_on_c, 0, 60, 40
1, 47320, Note_on_c, 0, 60, 0
1, 47320, Note_on_c, 0, 58, 45
1, 47360, Note_on_c, 0, 58, 0
1, 47360, Note_on_c, 0, 57, 37
1, 47368, Control_c, 0, 64, 0
1, 47440, Note_on_c, 0, 57, 0
1, 47440, Note_on_c, 0, 55, 37
1, 47520, Tempo, 1562093
1, 47520, Note_on_c, 0, 55, 0
1, 47520, Note_on_c, 0, 53, 42
1, 47600, Note_on_c, 0, 53, 0
1, 47600, Note_on_c, 0, 55, 37
1, 47680, Note_on_c, 0, 55, 0
1, 47680, Note_on_c, 0, 57, 40
1, 47760, Note_on_c, 0, 57, 0
1, 47760, Note_on_c, 0, 74, 0
1, 47760, Note_on_c, 0, 65, 0
1, 47760, Note_on_c, 0, 79, 51
1, 47760, Note_on_c, 0, 67, 41
1, 47760, Note_on_c, 0, 51, 45
1, 47760, Note_on_c, 0, 58, 44
1, 47840, Note_on_c, 0, 58, 0
1, 47840, Note_on_c, 0, 57, 38
1, 47920, Note_on_c, 0, 57, 0
1, 47920, Note_on_c, 0, 58, 38
1, 48000, Note_on_c, 0, 58, 0
1, 48000, Note_on_c, 0, 79, 0
1, 48000, Note_on_c, 0, 67, 0
1, 48000, Note_on_c, 0, 51, 0
1, 48000, Note_on_c, 0, 77, 50
1, 48000, Note_on_c, 0, 70, 49
1, 48000, Note_on_c, 0, 53, 45
1, 48000, Note_on_c, 0, 62, 42
1, 48020, Note_on_c, 0, 70, 0
1, 48020, Note_on_c, 0, 72, 45
1, 48028, Control_c, 0, 64, 127
1, 48040, Note_on_c, 0, 72, 0
1, 48040, Note_on_c, 0, 70, 51
1, 48080, Note_on_c, 0, 70, 0
1, 48080, Note_on_c, 0, 62, 0
1, 48080, Note_on_c, 0, 69, 41
1, 48080, Note_on_c, 0, 60, 36
1, 48094, Control_c, 0, 64, 0
1, 48160, Note_on_c, 0, 60, 0
1, 48160, Note_on_c, 0, 69, 0
1, 48160, Note_on_c, 0, 70, 39
1, 48160, Note_on_c, 0, 62, 35
1, 48240, Tempo, 1503383
1, 48240, Note_on_c, 0, 62, 0
1, 48240, Note_on_c, 0, 77, 0
1, 48240, Note_on_c, 0, 53, 0
1, 48240, Note_on_c, 0, 70, 0
1, 48240, Note_on_c, 0, 72, 49
1, 48240, Note_on_c, 0, 75, 51
1, 48240, Note_on_c, 0, 63, 40
1, 48240, Note_on_c, 0, 55, 45
1, 48240, Control_c, 0, 64, 127
1, 48260, Note_on_c, 0, 72, 0
1, 48260, Note_on_c, 0, 74, 45
1, 48280, Note_on_c, 0, 74, 0
1, 48280, Note_on_c, 0, 72, 51
1, 48320, Note_on_c, 0, 72, 0
1, 48320, Note_on_c, 0, 63, 0
1, 48320, Note_on_c, 0, 71, 42
1, 48320, Note_on_c, 0, 62, 37
1, 48325, Control_c, 0, 64, 0
1, 48400, Note_on_c, 0, 62, 0
1, 48400, Note_on_c, 0, 71, 0
1, 48400, Note_on_c, 0, 70, 42
1, 48400, Note_on_c, 0, 63, 37
1, 48480, Tempo, 1562093
1, 48480, Note_on_c, 0, 63, 0
1, 48480, Note_on_c, 0, 55, 0
1, 48480, Note_on_c, 0, 75, 0
1, 48480, Note_on_c, 0, 70, 0
1, 48480, Note_on_c, 0, 74, 50
1, 48480, Note_on_c, 0, 68, 49
1, 48480, Note_on_c, 0, 55, 45
1, 48480, Note_on_c, 0, 65, 42
1, 48500, Note_on_c, 0, 68, 0
1, 48500, Note_on_c, 0, 70, 45
1, 48520, Note_on_c, 0, 70, 0
1, 48520, Note_on_c, 0, 68, 51
1, 48525, Control_c, 0, 64, 127
1, 48560, Note_on_c, 0, 68, 0
1, 48560, Note_on_c, 0, 65, 0
1, 48560, Note_on_c, 0, 67, 42
1, 48560, Note_on_c, 0, 62, 37
1, 48570, Control_c, 0, 64, 0
1, 48640, Tempo, 1823154
1, 48640, Note_on_c, 0, 62, 0
1, 48640, Note_on_c, 0, 67, 0
1, 48640, Note_on_c, 0, 65, 45
1, 48640, Note_on_c, 0, 59, 40
1, 48720, Tempo, 1823154
1, 48720, Note_on_c, 0, 59, 0
1, 48720, Note_on_c, 0, 74, 0
1, 48720, Note_on_c, 0, 55, 0
1, 48720, Note_on_c, 0, 65, 0
1, 48720, Note_on_c, 0, 63, 49
1, 48720, Note_on_c, 0, 72, 47
1, 48720, Note_on_c, 0, 60, 45
1, 48720, Note_on_c, 0, 48, 42
1, 48740, Note_on_c, 0, 63, 0
1, 48740, Note_on_c, 0, 65, 45
1, 48760, Note_on_c, 0, 65, 0
1, 48760, Note_on_c, 0, 63, 51
1, 48763, Control_c, 0, 64, 127
1, 48800, Note_on_c, 0, 63, 0
1, 48800, Note_on_c, 0, 60, 0
1, 48800, Note_on_c, 0, 62, 42
1, 48800, Note_on_c, 0, 55, 37
1, 48808, Control_c, 0, 64, 0
1, 48880, Tempo, 2040122
1, 48880, Note_on_c, 0, 55, 0
1, 48880, Note_on_c, 0, 62, 0
1, 48880, Note_on_c, 0, 60, 42
1, 48880, Note_on_c, 0, 51, 37
1, 49200, Tempo, 1542020
1, 49920, Tempo, 1503383
1, 49920, Note_on_c, 0, 51, 0
1, 49920, Note_on_c, 0, 48, 0
1, 49920, Note_on_c, 0, 72, 0
1, 49920, Note_on_c, 0, 60, 0
1, 49920, Note_on_c, 0, 79, 81
1, 49920, Note_on_c, 0, 31, 56
1, 49920, Note_on_c, 0, 43, 56
1, 49952, Control_c, 0, 64, 127
1, 50000, Note_on_c, 0, 65, 60
1, 50000, Note_on_c, 0, 71, 60
1, 50080, Tempo, 1694437
1, 50080, Note_on_c, 0, 71, 0
1, 50080, Note_on_c, 0, 79, 0
1, 50080, Note_on_c, 0, 65, 0
1, 50080, Note_on_c, 0, 77, 63
1, 50160, Key_signature, 0, "major"
1, 50160, Tempo, 1503383
1, 50160, Note_on_c, 0, 77, 0
1, 50160, Note_on_c, 0, 43, 0
1, 50160, Note_on_c, 0, 31, 0
1, 50160, Note_on_c, 0, 76, 75
1, 50160, Note_on_c, 0, 36, 62
1, 50160, Note_on_c, 0, 48, 62
1, 50160, Control_c, 0, 64, 0
1, 50197, Control_c, 0, 64, 127
1, 50240, Note_on_c, 0, 67, 50
1, 50240, Note_on_c, 0, 72, 50
1, 50320, Note_on_c, 0, 72, 0
1, 50320, Note_on_c, 0, 67, 0
1, 50320, Note_on_c, 0, 64, 50
1, 50400, Note_on_c, 0, 64, 0
1, 50400, Note_on_c, 0, 48, 0
1, 50400, Note_on_c, 0, 36, 0
1, 50400, Note_on_c, 0, 76, 0
1, 50400, Note_on_c, 0, 74, 71
1, 50400, Note_on_c, 0, 38, 53
1, 50400, Note_on_c, 0, 50, 53
1, 50414, Control_c, 0, 64, 0
1, 50448, Control_c, 0, 64, 127
1, 50480, Note_on_c, 0, 67, 50
1, 50480, Note_on_c, 0, 71, 50
1, 50560, Note_on_c, 0, 71, 0
1, 50560, Note_on_c, 0, 67, 0
1, 50560, Note_on_c, 0, 65, 50
1, 50640, Note_on_c, 0, 65, 0
1, 50640, Note_on_c, 0, 50, 0
1, 50640, Note_on_c, 0, 38, 0
1, 50640, Note_on_c, 0, 74, 0
1, 50640, Note_on_c, 0, 72, 77
1, 50640, Note_on_c, 0, 40, 60
1, 50640, Note_on_c, 0, 52, 60
1, 50647, Control_c, 0, 64, 0
1, 50685, Control_c, 0, 64, 127
1, 50720, Note_on_c, 0, 67, 50
1, 50800, Note_on_c, 0, 67, 0
1, 50800, Note_on_c, 0, 60, 50
1, 50880, Tempo, 1562093
1, 50880, Note_on_c, 0, 60, 0
1, 50880, Note_on_c, 0, 52, 0
1, 50880, Note_on_c, 0, 40, 0
1, 50880, Note_on_c, 0, 72, 0
1, 50880, Note_on_c, 0, 69, 72
1, 50880, Note_on_c, 0, 36, 52
1, 50880, Note_on_c, 0, 48, 52
1, 50895, Control_c, 0, 64, 0
1, 50920, Control_c, 0, 64, 127
1, 50960, Note_on_c, 0, 64, 50
1, 51040, Note_on_c, 0, 64, 0
1, 51040, Note_on_c, 0, 60, 50
1, 51120, Tempo, 1542020
1, 51120, Note_on_c, 0, 60, 0
1, 51120, Note_on_c, 0, 48, 0
1, 51120, Note_on_c, 0, 36, 0
1, 51120, Note_on_c, 0, 69, 0
1, 51120, Note_on_c, 0, 67, 76
1, 51120, Note_on_c, 0, 35, 62
1, 51120, Note_on_c, 0, 47, 62
1, 51120, Control_c, 0, 64, 0
1, 51160, Control_c, 0, 64, 127
1, 51200, Note_on_c, 0, 55, 50
1, 51200, Note_on_c, 0, 62, 50
1, 51280, Note_on_c, 0, 62, 0
1, 51280, Note_on_c, 0, 67, 0
1, 51280, Note_on_c, 0, 55, 0
1, 51280, Note_on_c, 0, 65, 64
1, 51360, Tempo, 1625576
1, 51360, Note_on_c, 0, 65, 0
1, 51360, Note_on_c, 0, 35, 0
1, 51360, Note_on_c, 0, 64, 68
1, 51360, Note_on_c, 0, 36, 43
1, 51360, Note_on_c, 0, 48, 43
1, 51365, Control_c, 0, 64, 0
1, 51370, Note_on_c, 0, 47, 0
1, 51397, Control_c, 0, 64, 127
1, 51440, Note_on_c, 0, 60, 50
1, 51520, Note_on_c, 0, 60, 0
1, 51520, Note_on_c, 0, 55, 50
1, 51600, Tempo, 1647899
1, 51600, Note_on_c, 0, 55, 0
1, 51600, Note_on_c, 0, 64, 0
1, 51600, Note_on_c, 0, 36, 0
1, 51600, Note_on_c, 0, 62, 59
1, 51600, Note_on_c, 0, 31, 53
1, 51600, Note_on_c, 0, 43, 53
1, 51610, Note_on_c, 0, 48, 0
1, 51614, Control_c, 0, 64, 0
1, 51631, Control_c, 0, 64, 127
1, 51680, Note_on_c, 0, 59, 50
1, 51692, Control_c, 0, 64, 0
1, 51720, Tempo, 1769390
1, 51723, Control_c, 0, 64, 127
1, 51760, Note_on_c, 0, 59, 0
1, 51760, Note_on_c, 0, 55, 50
1, 51840, Tempo, 1670844
1, 51840, Note_on_c, 0, 55, 0
1, 51840, Note_on_c, 0, 59, 50
1, 51920, Note_on_c, 0, 59, 0
1, 51920, Note_on_c, 0, 55, 50
1, 51990, Note_on_c, 0, 62, 0
1, 52000, Note_on_c, 0, 55, 0
1, 52000, Note_on_c, 0, 62, 54
1, 52070, Note_on_c, 0, 43, 0
1, 52080, Tempo, 1562093
1, 52080, Note_on_c, 0, 62, 0
1, 52080, Note_on_c, 0, 31, 0
1, 52080, Note_on_c, 0, 64, 65
1, 52080, Note_on_c, 0, 36, 45
1, 52080, Note_on_c, 0, 48, 53
1, 52080, Control_c, 0, 64, 0
1, 52122, Control_c, 0, 64, 127
1, 52160, Note_on_c, 0, 60, 50
1, 52240, Tempo, 1694437
1, 52240, Note_on_c, 0, 60, 0
1, 52240, Note_on_c, 0, 55, 50
1, 52320, Tempo, 1562093
1, 52320, Note_on_c, 0, 55, 0
1, 52320, Note_on_c, 0, 64, 0
1, 52320, Note_on_c, 0, 67, 70
1, 52400, Note_on_c, 0, 64, 50
1, 52480, Note_on_c, 0, 64, 0
1, 52480, Note_on_c, 0, 60, 50
1, 52560, Tempo, 1582696
1, 52560, Note_on_c, 0, 60, 0
1, 52560, Note_on_c, 0, 67, 0
1, 52560, Note_on_c, 0, 48, 0
1, 52560, Note_on_c, 0, 36, 0
1, 52560, Note_on_c, 0, 65, 75
1, 52560, Note_on_c, 0, 43, 49
1, 52560, Note_on_c, 0, 55, 58
1, 52572, Control_c, 0, 64, 0
1, 52609, Control_c, 0, 64, 127
1, 52640, Note_on_c, 0, 59, 50
1, 52720, Note_on_c, 0, 59, 0
1, 52720, Note_on_c, 0, 65, 0
1, 52720, Note_on_c, 0, 60, 50
1, 52720, Note_on_c, 0, 64, 65
1, 52800, Note_on_c, 0, 64, 0
1, 52800, Note_on_c, 0, 60, 0
1, 52800, Note_on_c, 0, 62, 71
1, 52818, Control_c, 0, 64, 0
1, 52846, Control_c, 0, 64, 127
1, 52880, Note_on_c, 0, 59, 50
1, 52960, Note_on_c, 0, 59, 0
1, 52960, Note_on_c, 0, 55, 50
1, 53040, Tempo, 1718705
1, 53040, Note_on_c, 0, 55, 0
1, 53040, Note_on_c, 0, 62, 0
1, 53040, Note_on_c, 0, 55, 0
1, 53040, Note_on_c, 0, 43, 0
1, 53040, Note_on_c, 0, 60, 69
1, 53040, Note_on_c, 0, 40, 45
1, 53040, Note_on_c, 0, 52, 53
1, 53040, Control_c, 0, 64, 0
1, 53086, Control_c, 0, 64, 127
1, 53120, Note_on_c, 0, 55, 50
1, 53200, Note_on_c, 0, 55, 0
1, 53200, Note_on_c, 0, 52, 50
1, 53280, Tempo, 1851280
1, 53280, Note_on_c, 0, 52, 0
1, 53280, Note_on_c, 0, 52, 0
1, 53280, Note_on_c, 0, 40, 0
1, 53280, Note_on_c, 0, 60, 0
1, 53280, Note_on_c, 0, 62, 74
1, 53280, Note_on_c, 0, 38, 47
1, 53280, Note_on_c, 0, 50, 56
1, 53286, Control_c, 0, 64, 0
1, 53319, Control_c, 0, 64, 127
1, 53360, Tempo, 1769390
1, 53360, Note_on_c, 0, 55, 50
1, 53360, Note_on_c, 0, 59, 50
1, 53440, Tempo, 2149767
1, 53440, Note_on_c, 0, 59, 0
1, 53440, Note_on_c, 0, 55, 0
1, 53440, Note_on_c, 0, 53, 50
1, 53520, Tempo, 2006018
1, 53520, Note_on_c, 0, 53, 0
1, 53520, Note_on_c, 0, 50, 0
1, 53520, Note_on_c, 0, 38, 0
1, 53520, Note_on_c, 0, 62, 0
1, 53520, Note_on_c, 0, 64, 76
1, 53520, Note_on_c, 0, 48, 60
1, 53520, Note_on_c, 0, 36, 51
1, 53526, Control_c, 0, 64, 0
1, 53552, Control_c, 0, 64, 127
1, 53600, Tempo, 2618944
1, 53600, Note_on_c, 0, 55, 50
1, 53600, Note_on_c, 0, 60, 50
1, 53680, Tempo, 4647560
1, 53680, Note_on_c, 0, 60, 0
1, 53680, Note_on_c, 0, 55, 0
1, 53680, Note_on_c, 0, 52, 50
1, 53760, Tempo, 1503383
1, 53760, Note_on_c, 0, 52, 0
1, 53760, Note_on_c, 0, 36, 0
1, 53760, Note_on_c, 0, 48, 0
1, 53760, Note_on_c, 0, 64, 0
1, 53760, Note_on_c, 0, 79, 81
1, 53760, Note_on_c, 0, 31, 56
1, 53760, Note_on_c, 0, 43, 56
1, 53762, Control_c, 0, 64, 0
1, 53840, Note_on_c, 0, 65, 50
1, 53840, Note_on_c, 0, 71, 60
1, 53840, Control_c, 0, 64, 127
1, 53920, Tempo, 1694437
1, 53920, Note_on_c, 0, 71, 0
1, 53920, Note_on_c, 0, 79, 0
1, 53920, Note_on_c, 0, 65, 0
1, 53920, Note_on_c, 0, 77, 63
1, 54000, Tempo, 1503383
1, 54000, Note_on_c, 0, 77, 0
1, 54000, Note_on_c, 0, 43, 0
1, 54000, Note_on_c, 0, 31, 0
1, 54000, Note_on_c, 0, 76, 75
1, 54000, Note_on_c, 0, 36, 62
1, 54000, Note_on_c, 0, 48, 62
1, 54000, Control_c, 0, 64, 0
1, 54037, Control_c, 0, 64, 127
1, 54080, Note_on_c, 0, 67, 50
1, 54080, Note_on_c, 0, 72, 50
1, 54160, Note_on_c, 0, 72, 0
1, 54160, Note_on_c, 0, 67, 0
1, 54160, Note_on_c, 0, 64, 50
1, 54240, Note_on_c, 0, 64, 0
1, 54240, Note_on_c, 0, 48, 0
1, 54240, Note_on_c, 0, 36, 0
1, 54240, Note_on_c, 0, 76, 0
1, 54240, Note_on_c, 0, 74, 71
1, 54240, Note_on_c, 0, 38, 53
1, 54240, Note_on_c, 0, 50, 53
1, 54254, Control_c, 0, 64, 0
1, 54288, Control_c, 0, 64, 127
1, 54320, Note_on_c, 0, 67, 50
1, 54320, Note_on_c, 0, 71, 50
1, 54400, Note_on_c, 0, 71, 0
1, 54400, Note_on_c, 0, 67, 0
1, 54400, Note_on_c, 0, 65, 50
1, 54480, Note_on_c, 0, 65, 0
1, 54480, Note_on_c, 0, 50, 0
1, 54480, Note_on_c, 0, 38, 0
1, 54480, Note_on_c, 0, 74, 0
1, 54480, Note_on_c, 0, 72, 77
1, 54480, Note_on_c, 0, 40, 60
1, 54480, Note_on_c, 0, 52, 60
1, 54487, Control_c, 0, 64, 0
1, 54525, Control_c, 0, 64, 127
1, 54560, Note_on_c, 0, 67, 50
1, 54640, Note_on_c, 0, 67, 0
1, 54640, Note_on_c, 0, 60, 50
1, 54720, Tempo, 1562093
1, 54720, Note_on_c, 0, 60, 0
1, 54720, Note_on_c, 0, 52, 0
1, 54720, Note_on_c, 0, 40, 0
1, 54720, Note_on_c, 0, 72, 0
1, 54720, Note_on_c, 0, 69, 72
1, 54720, Note_on_c, 0, 36, 52
1, 54720, Note_on_c, 0, 48, 52
1, 54735, Control_c, 0, 64, 0
1, 54760, Control_c, 0, 64, 127
1, 54800, Note_on_c, 0, 64, 50
1, 54880, Note_on_c, 0, 64, 0
1, 54880, Note_on_c, 0, 60, 50
1, 54960, Tempo, 1542020
1, 54960, Note_on_c, 0, 60, 0
1, 54960, Note_on_c, 0, 48, 0
1, 54960, Note_on_c, 0, 36, 0
1, 54960, Note_on_c, 0, 69, 0
1, 54960, Note_on_c, 0, 67, 76
1, 54960, Note_on_c, 0, 35, 62
1, 54960, Note_on_c, 0, 47, 62
1, 54960, Control_c, 0, 64, 0
1, 55000, Control_c, 0, 64, 127
1, 55040, Note_on_c, 0, 55, 50
1, 55040, Note_on_c, 0, 62, 50
1, 55120, Note_on_c, 0, 62, 0
1, 55120, Note_on_c, 0, 67, 0
1, 55120, Note_on_c, 0, 55, 0
1, 55120, Note_on_c, 0, 65, 64
1, 55200, Tempo, 1582696
1, 55200, Note_on_c, 0, 65, 0
1, 55200, Note_on_c, 0, 35, 0
1, 55200, Note_on_c, 0, 64, 68
1, 55200, Note_on_c, 0, 36, 43
1, 55200, Note_on_c, 0, 48, 43
1, 55205, Control_c, 0, 64, 0
1, 55210, Note_on_c, 0, 47, 0
1, 55237, Control_c, 0, 64, 127
1, 55280, Note_on_c, 0, 60, 50
1, 55360, Note_on_c, 0, 60, 0
1, 55360, Note_on_c, 0, 55, 50
1, 55440, Tempo, 1522456
1, 55440, Note_on_c, 0, 55, 0
1, 55440, Note_on_c, 0, 64, 0
1, 55440, Note_on_c, 0, 36, 0
1, 55440, Note_on_c, 0, 62, 59
1, 55440, Note_on_c, 0, 31, 53
1, 55440, Note_on_c, 0, 43, 53
1, 55450, Note_on_c, 0, 48, 0
1, 55454, Control_c, 0, 64, 0
1, 55471, Control_c, 0, 64, 127
1, 55520, Tempo, 1670844
1, 55520, Note_on_c, 0, 59, 42
1, 55532, Control_c, 0, 64, 0
1, 55560, Tempo, 1769390
1, 55563, Control_c, 0, 64, 127
1, 55600, Tempo, 1603849
1, 55600, Note_on_c, 0, 59, 0
1, 55600, Note_on_c, 0, 55, 43
1, 55680, Tempo, 1625576
1, 55680, Note_on_c, 0, 55, 0
1, 55680, Note_on_c, 0, 59, 50
1, 55760, Note_on_c, 0, 59, 0
1, 55760, Note_on_c, 0, 55, 50
1, 55840, Note_on_c, 0, 55, 0
1, 55840, Note_on_c, 0, 59, 39
1, 55910, Note_on_c, 0, 43, 0
1, 55920, Tempo, 1562093
1, 55920, Note_on_c, 0, 62, 0
1, 55920, Note_on_c, 0, 31, 0
1, 55920, Note_on_c, 0, 59, 0
1, 55920, Note_on_c, 0, 60, 55
1, 55920, Note_on_c, 0, 32, 35
1, 55920, Note_on_c, 0, 44, 42
1, 55920, Control_c, 0, 64, 0
1, 55962, Control_c, 0, 64, 127
1, 56000, Note_on_c, 0, 56, 34
1, 56080, Note_on_c, 0, 56, 0
1, 56080, Note_on_c, 0, 51, 34
1, 56160, Tempo, 1562093
1, 56160, Note_on_c, 0, 51, 0
1, 56160, Note_on_c, 0, 56, 39
1, 56240, Note_on_c, 0, 56, 0
1, 56240, Note_on_c, 0, 51, 33
1, 56320, Tempo, 1670844
1, 56320, Note_on_c, 0, 51, 0
1, 56320, Note_on_c, 0, 56, 33
1, 56400, Tempo, 1562093
1, 56400, Note_on_c, 0, 56, 0
1, 56400, Note_on_c, 0, 60, 0
1, 56400, Note_on_c, 0, 32, 0
1, 56400, Note_on_c, 0, 44, 0
1, 56400, Note_on_c, 0, 65, 55
1, 56400, Note_on_c, 0, 37, 35
1, 56400, Note_on_c, 0, 49, 42
1, 56400, Control_c, 0, 64, 0
1, 56442, Control_c, 0, 64, 127
1, 56480, Note_on_c, 0, 58, 34
1, 56560, Note_on_c, 0, 58, 0
1, 56560, Note_on_c, 0, 56, 34
1, 56640, Tempo, 1562093
1, 56640, Note_on_c, 0, 56, 0
1, 56640, Note_on_c, 0, 58, 39
1, 56720, Note_on_c, 0, 58, 0
1, 56720, Note_on_c, 0, 56, 33
1, 56800, Tempo, 1670844
1, 56800, Note_on_c, 0, 56, 0
1, 56800, Note_on_c, 0, 58, 33
1, 56880, Tempo, 1542020
1, 56880, Note_on_c, 0, 58, 0
1, 56880, Note_on_c, 0, 65, 0
1, 56880, Note_on_c, 0, 37, 0
1, 56880, Note_on_c, 0, 49, 0
1, 56880, Note_on_c, 0, 63, 52
1, 56880, Note_on_c, 0, 36, 44
1, 56880, Note_on_c, 0, 48, 44
1, 56880, Control_c, 0, 64, 0
1, 56920, Control_c, 0, 64, 127
1, 56960, Note_on_c, 0, 56, 42
1, 57040, Note_on_c, 0, 56, 0
1, 57040, Note_on_c, 0, 51, 39
1, 57120, Tempo, 1582696
1, 57120, Note_on_c, 0, 51, 0
1, 57120, Note_on_c, 0, 36, 0
1, 57120, Note_on_c, 0, 63, 0
1, 57120, Note_on_c, 0, 61, 49
1, 57120, Note_on_c, 0, 34, 29
1, 57120, Note_on_c, 0, 46, 29
1, 57125, Control_c, 0, 64, 0
1, 57130, Note_on_c, 0, 48, 0
1, 57157, Control_c, 0, 64, 127
1, 57200, Note_on_c, 0, 55, 38
1, 57280, Note_on_c, 0, 55, 0
1, 57280, Note_on_c, 0, 51, 38
1, 57360, Tempo, 1795870
1, 57360, Note_on_c, 0, 51, 0
1, 57360, Note_on_c, 0, 61, 0
1, 57360, Note_on_c, 0, 34, 0
1, 57360, Note_on_c, 0, 60, 46
1, 57360, Note_on_c, 0, 32, 42
1, 57360, Note_on_c, 0, 44, 42
1, 57370, Note_on_c, 0, 46, 0
1, 57374, Control_c, 0, 64, 0
1, 57391, Control_c, 0, 64, 127
1, 57440, Note_on_c, 0, 55, 38
1, 57452, Control_c, 0, 64, 0
1, 57483, Control_c, 0, 64, 127
1, 57520, Tempo, 1973035
1, 57520, Note_on_c, 0, 51, 29
1, 57600, Note_on_c, 0, 51, 0
1, 57600, Note_on_c, 0, 55, 0
1, 57600, Note_on_c, 0, 54, 40
1, 57618, Control_c, 0, 64, 0
1, 57654, Control_c, 0, 64, 127
1, 57680, Tempo, 2315708
1, 57680, Note_on_c, 0, 51, 29
1, 57760, Note_on_c, 0, 51, 0
1, 57760, Note_on_c, 0, 54, 0
1, 57760, Note_on_c, 0, 54, 45
1, 57830, Note_on_c, 0, 44, 0
1, 57840, Tempo, 1484781
1, 57840, Note_on_c, 0, 60, 0
1, 57840, Note_on_c, 0, 32, 0
1, 57840, Note_on_c, 0, 54, 0
1, 57840, Note_on_c, 0, 60, 46
1, 57840, Note_on_c, 0, 31, 42
1, 57840, Note_on_c, 0, 43, 42
1, 57840, Control_c, 0, 64, 0
1, 57882, Control_c, 0, 64, 127
1, 57920, Note_on_c, 0, 55, 38
1, 58000, Note_on_c, 0, 55, 0
1, 58000, Note_on_c, 0, 52, 38
1, 58080, Note_on_c, 0, 52, 0
1, 58080, Note_on_c, 0, 60, 0
1, 58080, Note_on_c, 0, 59, 46
1, 58091, Control_c, 0, 64, 0
1, 58136, Control_c, 0, 64, 127
1, 58160, Note_on_c, 0, 53, 40
1, 58240, Tempo, 1647899
1, 58240, Note_on_c, 0, 53, 0
1, 58240, Note_on_c, 0, 59, 0
1, 58240, Note_on_c, 0, 60, 46
1, 58240, Note_on_c, 0, 52, 46
1, 58320, Tempo, 1484781
1, 58320, Note_on_c, 0, 52, 0
1, 58320, Note_on_c, 0, 31, 0
1, 58320, Note_on_c, 0, 43, 0
1, 58320, Note_on_c, 0, 60, 0
1, 58320, Note_on_c, 0, 62, 51
1, 58320, Note_on_c, 0, 43, 42
1, 58329, Control_c, 0, 64, 0
1, 58376, Control_c, 0, 64, 127
1, 58400, Note_on_c, 0, 59, 40
1, 58440, Note_on_c, 0, 50, 42
1, 58480, Note_on_c, 0, 59, 0
1, 58480, Note_on_c, 0, 57, 40
1, 58560, Tempo, 1582696
1, 58560, Note_on_c, 0, 57, 0
1, 58560, Note_on_c, 0, 50, 0
1, 58560, Note_on_c, 0, 59, 40
1, 58560, Note_on_c, 0, 55, 51
1, 58563, Control_c, 0, 64, 0
1, 58595, Control_c, 0, 64, 127
1, 58680, Note_on_c, 0, 55, 0
1, 58680, Note_on_c, 0, 53, 48
1, 58800, Tempo, 1466634
1, 58800, Note_on_c, 0, 53, 0
1, 58800, Note_on_c, 0, 59, 0
1, 58800, Note_on_c, 0, 43, 0
1, 58800, Note_on_c, 0, 62, 0
1, 58800, Note_on_c, 0, 72, 56
1, 58800, Note_on_c, 0, 52, 55
1, 58800, Note_on_c, 0, 43, 55
1, 58817, Control_c, 0, 64, 0
1, 58856, Control_c, 0, 64, 127
1, 58880, Note_on_c, 0, 67, 43
1, 58960, Note_on_c, 0, 67, 0
1, 58960, Note_on_c, 0, 60, 44
1, 59040, Note_on_c, 0, 60, 0
1, 59040, Note_on_c, 0, 52, 0
1, 59040, Note_on_c, 0, 72, 0
1, 59040, Note_on_c, 0, 71, 54
1, 59040, Note_on_c, 0, 53, 55
1, 59047, Control_c, 0, 64, 0
1, 59075, Control_c, 0, 64, 127
1, 59120, Note_on_c, 0, 62, 30
1, 59120, Note_on_c, 0, 67, 41
1, 59160, Note_on_c, 0, 53, 0
1, 59160, Note_on_c, 0, 52, 49
1, 59200, Tempo, 1647899
1, 59200, Note_on_c, 0, 62, 0
1, 59200, Note_on_c, 0, 67, 0
1, 59200, Note_on_c, 0, 71, 0
1, 59200, Note_on_c, 0, 72, 50
1, 59200, Note_on_c, 0, 60, 50
1, 59280, Tempo, 1448925
1, 59280, Note_on_c, 0, 60, 0
1, 59280, Note_on_c, 0, 72, 0
1, 59280, Note_on_c, 0, 52, 0
1, 59280, Note_on_c, 0, 74, 58
1, 59280, Note_on_c, 0, 50, 54
1, 59289, Control_c, 0, 64, 0
1, 59350, Control_c, 0, 64, 127
1, 59360, Note_on_c, 0, 71, 44
1, 59440, Note_on_c, 0, 71, 0
1, 59440, Note_on_c, 0, 67, 44
1, 59520, Note_on_c, 0, 67, 0
1, 59520, Note_on_c, 0, 50, 0
1, 59520, Note_on_c, 0, 71, 56
1, 59520, Note_on_c, 0, 55, 50
1, 59600, Note_on_c, 0, 71, 0
1, 59600, Note_on_c, 0, 67, 49
1, 59680, Note_on_c, 0, 67, 0
1, 59680, Note_on_c, 0, 71, 54
1, 59760, Tempo, 1431639
1, 59760, Note_on_c, 0, 71, 0
1, 59760, Note_on_c, 0, 43, 0
1, 59760, Note_on_c, 0, 74, 0
1, 59760, Note_on_c, 0, 55, 0
1, 59760, Note_on_c, 0, 76, 66
1, 59760, Note_on_c, 0, 48, 45
1, 59760, Note_on_c, 0, 60, 54
1, 59760, Control_c, 0, 64, 0
1, 59806, Control_c, 0, 64, 127
1, 59840, Note_on_c, 0, 72, 54
1, 59920, Note_on_c, 0, 72, 0
1, 59920, Note_on_c, 0, 67, 50
1, 60000, Note_on_c, 0, 67, 0
1, 60000, Note_on_c, 0, 60, 0
1, 60000, Note_on_c, 0, 72, 56
1, 60000, Note_on_c, 0, 58, 57
1, 60080, Note_on_c, 0, 72, 0
1, 60080, Note_on_c, 0, 67, 58
1, 60160, Tempo, 1603849
1, 60160, Note_on_c, 0, 67, 0
1, 60160, Note_on_c, 0, 72, 62
1, 60240, Tempo, 1448925
1, 60240, Note_on_c, 0, 72, 0
1, 60240, Note_on_c, 0, 76, 0
1, 60240, Note_on_c, 0, 48, 0
1, 60240, Note_on_c, 0, 58, 0
1, 60240, Note_on_c, 0, 81, 73
1, 60240, Note_on_c, 0, 53, 52
1, 60240, Note_on_c, 0, 57, 62
1, 60253, Control_c, 0, 64, 0
1, 60296, Control_c, 0, 64, 127
1, 60320, Note_on_c, 0, 76, 52
1, 60400, Note_on_c, 0, 76, 0
1, 60400, Note_on_c, 0, 72, 52
1, 60480, Note_on_c, 0, 72, 0
1, 60480, Note_on_c, 0, 57, 0
1, 60480, Note_on_c, 0, 81, 0
1, 60480, Note_on_c, 0, 81, 72
1, 60480, Note_on_c, 0, 59, 55
1, 60488, Control_c, 0, 64, 0
1, 60526, Control_c, 0, 64, 127
1, 60560, Note_on_c, 0, 74, 53
1, 60640, Tempo, 1522456
1, 60640, Note_on_c, 0, 74, 0
1, 60640, Note_on_c, 0, 69, 54
1, 60720, Tempo, 1448925
1, 60720, Note_on_c, 0, 69, 0
1, 60720, Note_on_c, 0, 59, 0
1, 60720, Note_on_c, 0, 81, 0
1, 60720, Note_on_c, 0, 53, 0
1, 60720, Note_on_c, 0, 79, 72
1, 60720, Note_on_c, 0, 52, 45
1, 60720, Note_on_c, 0, 60, 54
1, 60720, Control_c, 0, 64, 0
1, 60760, Control_c, 0, 64, 127
1, 60800, Note_on_c, 0, 76, 52
1, 60800, Note_on_c, 0, 72, 52
1, 60880, Note_on_c, 0, 72, 0
1, 60880, Note_on_c, 0, 76, 0
1, 60880, Note_on_c, 0, 67, 52
1, 60960, Note_on_c, 0, 67, 0
1, 60960, Note_on_c, 0, 60, 0
1, 60960, Note_on_c, 0, 52, 0
1, 60960, Note_on_c, 0, 79, 0
1, 60960, Note_on_c, 0, 77, 70
1, 60960, Note_on_c, 0, 50, 38
1, 60960, Note_on_c, 0, 59, 45
1, 60968, Control_c, 0, 64, 0
1, 61011, Control_c, 0, 64, 127
1, 61040, Note_on_c, 0, 71, 52
1, 61120, Note_on_c, 0, 71, 0
1, 61120, Note_on_c, 0, 67, 52
1, 61167, Tempo, 1466634
1, 61200, Note_on_c, 0, 67, 0
1, 61200, Note_on_c, 0, 59, 0
1, 61200, Note_on_c, 0, 50, 0
1, 61200, Note_on_c, 0, 77, 0
1, 61200, Note_on_c, 0, 76, 67
1, 61200, Note_on_c, 0, 48, 36
1, 61200, Note_on_c, 0, 60, 44
1, 61210, Control_c, 0, 64, 0
1, 61254, Control_c, 0, 64, 127
1, 61263, Tempo, 1484781
1, 61280, Note_on_c, 0, 72, 54
1, 61340, Tempo, 1503383
1, 61360, Note_on_c, 0, 72, 0
1, 61360, Note_on_c, 0, 66, 52
1, 61416, Tempo, 1522456
1, 61440, Note_on_c, 0, 66, 0
1, 61440, Note_on_c, 0, 67, 49
1, 61451, Control_c, 0, 64, 0
1, 61480, Control_c, 0, 64, 127
1, 61512, Tempo, 1542020
1, 61520, Note_on_c, 0, 67, 0
1, 61520, Note_on_c, 0, 64, 46
1, 61589, Tempo, 1562093
1, 61600, Note_on_c, 0, 64, 0
1, 61600, Note_on_c, 0, 60, 44
1, 61666, Tempo, 1582696
1, 61680, Tempo, 1718705
1, 61680, Note_on_c, 0, 60, 0
1, 61680, Note_on_c, 0, 76, 0
1, 61680, Note_on_c, 0, 48, 0
1, 61680, Note_on_c, 0, 60, 0
1, 61680, Note_on_c, 0, 41, 36
1, 61680, Note_on_c, 0, 48, 36
1, 61680, Note_on_c, 0, 53, 43
1, 61680, Control_c, 0, 64, 0
1, 61732, Control_c, 0, 64, 127
1, 61760, Tempo, 1466634
1, 61760, Note_on_c, 0, 57, 37
1, 61760, Note_on_c, 0, 60, 37
1, 61760, Note_on_c, 0, 62, 44
1, 61820, Note_on_c, 0, 62, 0
1, 61820, Note_on_c, 0, 57, 0
1, 61820, Note_on_c, 0, 60, 0
1, 61840, Note_on_c, 0, 57, 36
1, 61840, Note_on_c, 0, 60, 36
1, 61840, Note_on_c, 0, 62, 43
1, 61900, Note_on_c, 0, 62, 0
1, 61900, Note_on_c, 0, 57, 0
1, 61900, Note_on_c, 0, 60, 0
1, 61920, Note_on_c, 0, 57, 43
1, 61920, Note_on_c, 0, 60, 43
1, 61920, Note_on_c, 0, 65, 51
1, 61980, Note_on_c, 0, 65, 0
1, 61980, Note_on_c, 0, 57, 0
1, 61980, Note_on_c, 0, 60, 0
1, 62000, Note_on_c, 0, 57, 37
1, 62000, Note_on_c, 0, 60, 44
1, 62000, Note_on_c, 0, 61, 37
1, 62060, Note_on_c, 0, 61, 0
1, 62060, Note_on_c, 0, 57, 0
1, 62060, Note_on_c, 0, 60, 0
1, 62080, Tempo, 1603849
1, 62080, Note_on_c, 0, 57, 36
1, 62080, Note_on_c, 0, 60, 36
1, 62080, Note_on_c, 0, 62, 44
1, 62140, Note_on_c, 0, 62, 0
1, 62140, Note_on_c, 0, 57, 0
1, 62140, Note_on_c, 0, 60, 0
1, 62160, Tempo, 1448925
1, 62160, Note_on_c, 0, 48, 0
1, 62160, Note_on_c, 0, 41, 0
1, 62160, Note_on_c, 0, 53, 0
1, 62160, Note_on_c, 0, 42, 43
1, 62160, Note_on_c, 0, 50, 43
1, 62160, Note_on_c, 0, 54, 51
1, 62167, Control_c, 0, 64, 0
1, 62197, Control_c, 0, 64, 127
1, 62240, Note_on_c, 0, 60, 43
1, 62240, Note_on_c, 0, 62, 43
1, 62240, Note_on_c, 0, 69, 52
1, 62300, Note_on_c, 0, 69, 0
1, 62300, Note_on_c, 0, 60, 0
1, 62300, Note_on_c, 0, 62, 0
1, 62320, Note_on_c, 0, 60, 44
1, 62320, Note_on_c, 0, 62, 44
1, 62320, Note_on_c, 0, 69, 52
1, 62380, Note_on_c, 0, 69, 0
1, 62380, Note_on_c, 0, 60, 0
1, 62380, Note_on_c, 0, 62, 0
1, 62400, Note_on_c, 0, 60, 51
1, 62400, Note_on_c, 0, 62, 51
1, 62400, Note_on_c, 0, 69, 61
1, 62460, Note_on_c, 0, 69, 0
1, 62460, Note_on_c, 0, 60, 0
1, 62460, Note_on_c, 0, 62, 0
1, 62480, Note_on_c, 0, 60, 46
1, 62480, Note_on_c, 0, 62, 46
1, 62480, Note_on_c, 0, 68, 55
1, 62540, Note_on_c, 0, 68, 0
1, 62540, Note_on_c, 0, 60, 0
1, 62540, Note_on_c, 0, 62, 0
1, 62560, Tempo, 1625576
1, 62560, Note_on_c, 0, 60, 47
1, 62560, Note_on_c, 0, 62, 47
1, 62560, Note_on_c, 0, 69, 56
1, 62620, Note_on_c, 0, 69, 0
1, 62620, Note_on_c, 0, 60, 0
1, 62620, Note_on_c, 0, 62, 0
1, 62640, Tempo, 1466634
1, 62640, Note_on_c, 0, 50, 0
1, 62640, Note_on_c, 0, 42, 0
1, 62640, Note_on_c, 0, 54, 0
1, 62640, Note_on_c, 0, 45, 50
1, 62640, Note_on_c, 0, 50, 50
1, 62640, Note_on_c, 0, 57, 59
1, 62646, Control_c, 0, 64, 0
1, 62679, Control_c, 0, 64, 127
1, 62720, Note_on_c, 0, 62, 51
1, 62720, Note_on_c, 0, 66, 51
1, 62720, Note_on_c, 0, 72, 60
1, 62780, Note_on_c, 0, 72, 0
1, 62780, Note_on_c, 0, 62, 0
1, 62780, Note_on_c, 0, 66, 0
1, 62800, Note_on_c, 0, 62, 51
1, 62800, Note_on_c, 0, 66, 51
1, 62800, Note_on_c, 0, 72, 60
1, 62860, Note_on_c, 0, 72, 0
1, 62860, Note_on_c, 0, 62, 0
1, 62860, Note_on_c, 0, 66, 0
1, 62880, Note_on_c, 0, 62, 59
1, 62880, Note_on_c, 0, 66, 59
1, 62880, Note_on_c, 0, 72, 70
1, 62940, Note_on_c, 0, 72, 0
1, 62940, Note_on_c, 0, 62, 0
1, 62940, Note_on_c, 0, 66, 0
1, 62960, Note_on_c, 0, 62, 52
1, 62960, Note_on_c, 0, 66, 52
1, 62960, Note_on_c, 0, 71, 62
1, 63020, Note_on_c, 0, 71, 0
1, 63020, Note_on_c, 0, 62, 0
1, 63020, Note_on_c, 0, 66, 0
1, 63040, Tempo, 1670844
1, 63040, Note_on_c, 0, 62, 53
1, 63040, Note_on_c, 0, 66, 53
1, 63040, Note_on_c, 0, 72, 62
1, 63100, Note_on_c, 0, 72, 0
1, 63100, Note_on_c, 0, 62, 0
1, 63100, Note_on_c, 0, 66, 0
1, 63120, Tempo, 1484781
1, 63120, Note_on_c, 0, 50, 0
1, 63120, Note_on_c, 0, 45, 0
1, 63120, Note_on_c, 0, 57, 0
1, 63120, Note_on_c, 0, 44, 66
1, 63120, Note_on_c, 0, 51, 66
1, 63120, Note_on_c, 0, 56, 78
1, 63129, Control_c, 0, 64, 0
1, 63129, Tempo, 1484781
1, 63147, Control_c, 0, 64, 127
1, 63149, Tempo, 1484781
1, 63180, Note_on_c, 0, 56, 0
1, 63180, Note_on_c, 0, 51, 0
1, 63180, Note_on_c, 0, 44, 0
1, 63200, Note_on_c, 0, 72, 62
1, 63200, Note_on_c, 0, 75, 62
1, 63200, Note_on_c, 0, 78, 74
1, 63200, Note_on_c, 0, 60, 52
1, 63200, Note_on_c, 0, 63, 52
1, 63200, Note_on_c, 0, 66, 62
1, 63206, Tempo, 1503383
1, 63245, Tempo, 1522456
1, 63260, Note_on_c, 0, 66, 0
1, 63260, Note_on_c, 0, 75, 0
1, 63260, Note_on_c, 0, 78, 0
1, 63260, Note_on_c, 0, 72, 0
1, 63260, Note_on_c, 0, 63, 0
1, 63260, Note_on_c, 0, 60, 0
1, 63280, Note_on_c, 0, 72, 63
1, 63280, Note_on_c, 0, 75, 63
1, 63280, Note_on_c, 0, 78, 75
1, 63280, Note_on_c, 0, 60, 53
1, 63280, Note_on_c, 0, 63, 53
1, 63280, Note_on_c, 0, 66, 63
1, 63302, Tempo, 1542020
1, 63340, Note_on_c, 0, 66, 0
1, 63340, Note_on_c, 0, 75, 0
1, 63340, Note_on_c, 0, 78, 0
1, 63340, Note_on_c, 0, 72, 0
1, 63340, Note_on_c, 0, 63, 0
1, 63340, Note_on_c, 0, 60, 0
1, 63341, Tempo, 1562093
1, 63360, Note_on_c, 0, 72, 71
1, 63360, Note_on_c, 0, 75, 71
1, 63360, Note_on_c, 0, 78, 85
1, 63360, Note_on_c, 0, 60, 64
1, 63360, Note_on_c, 0, 63, 64
1, 63360, Note_on_c, 0, 66, 76
1, 63398, Tempo, 1582696
1, 63420, Note_on_c, 0, 66, 0
1, 63420, Note_on_c, 0, 75, 0
1, 63420, Note_on_c, 0, 78, 0
1, 63420, Note_on_c, 0, 72, 0
1, 63420, Note_on_c, 0, 63, 0
1, 63420, Note_on_c, 0, 60, 0
1, 63437, Tempo, 1603849
1, 63440, Note_on_c, 0, 72, 65
1, 63440, Note_on_c, 0, 75, 65
1, 63440, Note_on_c, 0, 77, 78
1, 63440, Note_on_c, 0, 60, 56
1, 63440, Note_on_c, 0, 63, 56
1, 63440, Note_on_c, 0, 65, 66
1, 63500, Note_on_c, 0, 65, 0
1, 63500, Note_on_c, 0, 75, 0
1, 63500, Note_on_c, 0, 77, 0
1, 63500, Note_on_c, 0, 72, 0
1, 63500, Note_on_c, 0, 63, 0
1, 63500, Note_on_c, 0, 60, 0
1, 63520, Tempo, 2111932
1, 63520, Note_on_c, 0, 72, 66
1, 63520, Note_on_c, 0, 75, 66
1, 63520, Note_on_c, 0, 78, 79
1, 63520, Note_on_c, 0, 60, 57
1, 63520, Note_on_c, 0, 63, 57
1, 63520, Note_on_c, 0, 66, 67
1, 63570, Note_on_c, 0, 66, 0
1, 63570, Note_on_c, 0, 75, 0
1, 63570, Note_on_c, 0, 78, 0
1, 63570, Note_on_c, 0, 72, 0
1, 63570, Note_on_c, 0, 63, 0
1, 63570, Note_on_c, 0, 60, 0
1, 63570, Note_on_c, 0, 43, 61
1, 63570, Note_on_c, 0, 52, 61
1, 63570, Note_on_c, 0, 55, 68
1, 63580, Control_c, 0, 64, 0
1, 63600, Tempo, 1694437
1, 63600, Note_on_c, 0, 55, 0
1, 63600, Note_on_c, 0, 52, 0
1, 63600, Note_on_c, 0, 43, 0
1, 63600, Note_on_c, 0, 72, 77
1, 63600, Note_on_c, 0, 76, 77
1, 63600, Note_on_c, 0, 79, 91
1, 63600, Note_on_c, 0, 64, 62
1, 63600, Note_on_c, 0, 67, 73
1, 63600, Control_c, 0, 64, 127
1, 63629, Tempo, 1743679
1, 63660, Note_on_c, 0, 67, 0
1, 63660, Note_on_c, 0, 79, 0
1, 63660, Note_on_c, 0, 72, 0
1, 63660, Note_on_c, 0, 76, 0
1, 63660, Note_on_c, 0, 64, 0
1, 63680, Note_on_c, 0, 72, 68
1, 63680, Note_on_c, 0, 76, 80
1, 63680, Note_on_c, 0, 60, 55
1, 63680, Note_on_c, 0, 67, 65
1, 63740, Note_on_c, 0, 67, 0
1, 63740, Note_on_c, 0, 72, 0
1, 63740, Note_on_c, 0, 76, 0
1, 63740, Note_on_c, 0, 60, 0
1, 63760, Note_on_c, 0, 67, 68
1, 63760, Note_on_c, 0, 72, 80
1, 63760, Note_on_c, 0, 55, 56
1, 63760, Note_on_c, 0, 64, 66
1, 63820, Note_on_c, 0, 64, 0
1, 63820, Note_on_c, 0, 67, 0
1, 63820, Note_on_c, 0, 72, 0
1, 63820, Note_on_c, 0, 55, 0
1, 63840, Note_on_c, 0, 64, 76
1, 63840, Note_on_c, 0, 67, 90
1, 63840, Note_on_c, 0, 52, 63
1, 63840, Note_on_c, 0, 60, 75
1, 63900, Note_on_c, 0, 60, 0
1, 63900, Note_on_c, 0, 64, 0
1, 63900, Note_on_c, 0, 67, 0
1, 63900, Note_on_c, 0, 52, 0
1, 63920, Note_on_c, 0, 60, 63
1, 63920, Note_on_c, 0, 64, 75
1, 63920, Note_on_c, 0, 48, 53
1, 63920, Note_on_c, 0, 55, 62
1, 63980, Note_on_c, 0, 55, 0
1, 63980, Note_on_c, 0, 60, 0
1, 63980, Note_on_c, 0, 64, 0
1, 63980, Note_on_c, 0, 48, 0
1, 64000, Note_on_c, 0, 57, 63
1, 64000, Note_on_c, 0, 60, 75
1, 64000, Note_on_c, 0, 45, 53
1, 64000, Note_on_c, 0, 52, 62
1, 64060, Note_on_c, 0, 52, 0
1, 64060, Note_on_c, 0, 57, 0
1, 64060, Note_on_c, 0, 60, 0
1, 64060, Note_on_c, 0, 45, 0
1, 64070, Tempo, 1694437
1, 64080, Note_on_c, 0, 55, 89
1, 64080, Note_on_c, 0, 43, 63
1, 64080, Note_on_c, 0, 53, 75
1, 64089, Control_c, 0, 64, 0
1, 64109, Tempo, 1718705
1, 64128, Tempo, 1743679
1, 64133, Control_c, 0, 64, 127
1, 64140, Note_on_c, 0, 53, 0
1, 64160, Note_on_c, 0, 50, 66
1, 64166, Tempo, 1769390
1, 64185, Tempo, 1795870
1, 64205, Tempo, 1823154
1, 64220, Note_on_c, 0, 50, 0
1, 64240, Note_on_c, 0, 47, 66
1, 64243, Tempo, 1851280
1, 64262, Tempo, 1880288
1, 64300, Note_on_c, 0, 47, 0
1, 64301, Tempo, 1910220
1, 64320, Tempo, 1941119
1, 64320, Note_on_c, 0, 43, 69
1, 64339, Tempo, 1973035
1, 64377, Tempo, 2006018
1, 64380, Note_on_c, 0, 43, 0
1, 64397, Tempo, 2040122
1, 64400, Note_on_c, 0, 41, 59
1, 64435, Tempo, 2075406
1, 64454, Tempo, 2111932
1, 64460, Note_on_c, 0, 41, 0
1, 64473, Tempo, 2149767
1, 64480, Note_on_c, 0, 38, 59
1, 64512, Tempo, 2188982
1, 64531, Tempo, 2229654
1, 64540, Note_on_c, 0, 38, 0
1, 64550, Tempo, 2271867
1, 64560, Tempo, 1851280
1, 64560, Note_on_c, 0, 43, 0
1, 64560, Note_on_c, 0, 55, 0
1, 64560, Note_on_c, 0, 36, 40
1, 64560, Control_c, 0, 64, 0
1, 64788, Note_on_c, 0, 36, 0
1, 64800, Tempo, 1694437
1, 64800, Note_on_c, 0, 36, 36
1, 65028, Note_on_c, 0, 36, 0
1, 65040, Note_on_c, 0, 36, 32
1, 65268, Note_on_c, 0, 36, 0
1, 65280, Tempo, 1582696
1, 65280, Note_on_c, 0, 48, 37
1, 65280, Note_on_c, 0, 55, 37
1, 65508, Note_on_c, 0, 55, 0
1, 65508, Note_on_c, 0, 48, 0
1, 65520, Tempo, 1562093
1, 65520, Note_on_c, 0, 48, 42
1, 65520, Note_on_c, 0, 59, 42
1, 65748, Note_on_c, 0, 59, 0
1, 65748, Note_on_c, 0, 48, 0
1, 65760, Note_on_c, 0, 48, 36
1, 65760, Note_on_c, 0, 60, 36
1, 65988, Note_on_c, 0, 60, 0
1, 65988, Note_on_c, 0, 48, 0
1, 66000, Note_on_c, 0, 48, 36
1, 66000, Note_on_c, 0, 64, 36
1, 66228, Note_on_c, 0, 64, 0
1, 66228, Note_on_c, 0, 48, 0
1, 66240, Tempo, 1647899
1, 66240, Note_on_c, 0, 67, 31
1, 66240, Note_on_c, 0, 72, 31
1, 66240, Note_on_c, 0, 76, 37
1, 66240, Note_on_c, 0, 48, 30
1, 66240, Note_on_c, 0, 59, 30
1, 66468, Note_on_c, 0, 59, 0
1, 66468, Note_on_c, 0, 76, 0
1, 66468, Note_on_c, 0, 67, 0
1, 66468, Note_on_c, 0, 72, 0
1, 66468, Note_on_c, 0, 48, 0
1, 66480, Tempo, 1582696
1, 66480, Note_on_c, 0, 65, 37
1, 66480, Note_on_c, 0, 72, 37
1, 66480, Note_on_c, 0, 76, 44
1, 66480, Note_on_c, 0, 48, 42
1, 66480, Note_on_c, 0, 57, 42
1, 66708, Note_on_c, 0, 48, 0
1, 66708, Note_on_c, 0, 76, 0
1, 66708, Note_on_c, 0, 65, 0
1, 66708, Note_on_c, 0, 72, 0
1, 66720, Note_on_c, 0, 72, 37
1, 66720, Note_on_c, 0, 76, 37
1, 66720, Note_on_c, 0, 77, 44
1, 66720, Note_on_c, 0, 48, 36
1, 66948, Note_on_c, 0, 48, 0
1, 66948, Note_on_c, 0, 76, 0
1, 66948, Note_on_c, 0, 77, 0
1, 66948, Note_on_c, 0, 72, 0
1, 66960, Note_on_c, 0, 57, 0
1, 66960, Note_on_c, 0, 81, 44
1, 66960, Note_on_c, 0, 72, 37
1, 66960, Note_on_c, 0, 76, 37
1, 66960, Note_on_c, 0, 48, 36
1, 67188, Note_on_c, 0, 48, 0
1, 67188, Note_on_c, 0, 81, 0
1, 67188, Note_on_c, 0, 72, 0
1, 67188, Note_on_c, 0, 76, 0
1, 67200, Tempo, 1582696
1, 67200, Note_on_c, 0, 65, 34
1, 67200, Note_on_c, 0, 72, 34
1, 67200, Note_on_c, 0, 76, 41
1, 67200, Note_on_c, 0, 48, 37
1, 67200, Note_on_c, 0, 57, 37
1, 67428, Note_on_c, 0, 57, 0
1, 67428, Note_on_c, 0, 76, 0
1, 67428, Note_on_c, 0, 65, 0
1, 67428, Note_on_c, 0, 72, 0
1, 67428, Note_on_c, 0, 48, 0
1, 67440, Tempo, 1562093
1, 67440, Note_on_c, 0, 65, 37
1, 67440, Note_on_c, 0, 71, 37
1, 67440, Note_on_c, 0, 74, 44
1, 67440, Note_on_c, 0, 48, 42
1, 67440, Note_on_c, 0, 57, 42
1, 67668, Note_on_c, 0, 57, 0
1, 67668, Note_on_c, 0, 48, 0
1, 67680, Note_on_c, 0, 65, 0
1, 67680, Note_on_c, 0, 71, 0
1, 67680, Note_on_c, 0, 74, 0
1, 67680, Note_on_c, 0, 65, 35
1, 67680, Note_on_c, 0, 71, 35
1, 67680, Note_on_c, 0, 74, 42
1, 67680, Note_on_c, 0, 48, 36
1, 67680, Note_on_c, 0, 59, 36
1, 67908, Note_on_c, 0, 59, 0
1, 67908, Note_on_c, 0, 48, 0
1, 67920, Note_on_c, 0, 65, 0
1, 67920, Note_on_c, 0, 71, 0
1, 67920, Note_on_c, 0, 74, 0
1, 67920, Note_on_c, 0, 48, 36
1, 67920, Note_on_c, 0, 62, 36
1, 68148, Note_on_c, 0, 62, 0
1, 68148, Note_on_c, 0, 48, 0
1, 68160, Tempo, 1647899
1, 68160, Note_on_c, 0, 65, 31
1, 68160, Note_on_c, 0, 71, 31
1, 68160, Note_on_c, 0, 74, 37
1, 68160, Note_on_c, 0, 48, 30
1, 68160, Note_on_c, 0, 57, 30
1, 68388, Note_on_c, 0, 57, 0
1, 68388, Note_on_c, 0, 74, 0
1, 68388, Note_on_c, 0, 65, 0
1, 68388, Note_on_c, 0, 71, 0
1, 68388, Note_on_c, 0, 48, 0
1, 68400, Tempo, 1582696
1, 68400, Note_on_c, 0, 64, 37
1, 68400, Note_on_c, 0, 71, 37
1, 68400, Note_on_c, 0, 74, 44
1, 68400, Note_on_c, 0, 48, 42
1, 68400, Note_on_c, 0, 55, 42
1, 68628, Note_on_c, 0, 48, 0
1, 68628, Note_on_c, 0, 74, 0
1, 68628, Note_on_c, 0, 64, 0
1, 68628, Note_on_c, 0, 71, 0
1, 68640, Note_on_c, 0, 71, 37
1, 68640, Note_on_c, 0, 74, 37
1, 68640, Note_on_c, 0, 76, 44
1, 68640, Note_on_c, 0, 48, 36
1, 68868, Note_on_c, 0, 48, 0
1, 68868, Note_on_c, 0, 74, 0
1, 68868, Note_on_c, 0, 76, 0
1, 68868, Note_on_c, 0, 71, 0
1, 68880, Note_on_c, 0, 55, 0
1, 68880, Note_on_c, 0, 79, 44
1, 68880, Note_on_c, 0, 71, 37
1, 68880, Note_on_c, 0, 74, 37
1, 68880, Note_on_c, 0, 48, 36
1, 69108, Note_on_c, 0, 48, 0
1, 69108, Note_on_c, 0, 79, 0
1, 69108, Note_on_c, 0, 71, 0
1, 69108, Note_on_c, 0, 74, 0
1, 69120, Tempo, 1582696
1, 69120, Note_on_c, 0, 64, 34
1, 69120, Note_on_c, 0, 71, 34
1, 69120, Note_on_c, 0, 74, 41
1, 69120, Note_on_c, 0, 48, 37
1, 69120, Note_on_c, 0, 55, 37
1, 69348, Note_on_c, 0, 55, 0
1, 69348, Note_on_c, 0, 74, 0
1, 69348, Note_on_c, 0, 64, 0
1, 69348, Note_on_c, 0, 71, 0
1, 69348, Note_on_c, 0, 48, 0
1, 69360, Tempo, 1562093
1, 69360, Note_on_c, 0, 64, 37
1, 69360, Note_on_c, 0, 69, 37
1, 69360, Note_on_c, 0, 72, 44
1, 69360, Note_on_c, 0, 48, 42
1, 69360, Note_on_c, 0, 55, 42
1, 69588, Note_on_c, 0, 55, 0
1, 69588, Note_on_c, 0, 48, 0
1, 69600, Note_on_c, 0, 64, 0
1, 69600, Note_on_c, 0, 69, 0
1, 69600, Note_on_c, 0, 72, 0
1, 69600, Note_on_c, 0, 64, 35
1, 69600, Note_on_c, 0, 69, 35
1, 69600, Note_on_c, 0, 72, 42
1, 69600, Note_on_c, 0, 48, 36
1, 69600, Note_on_c, 0, 57, 36
1, 69828, Note_on_c, 0, 57, 0
1, 69828, Note_on_c, 0, 48, 0
1, 69840, Note_on_c, 0, 64, 0
1, 69840, Note_on_c, 0, 69, 0
1, 69840, Note_on_c, 0, 72, 0
1, 69840, Note_on_c, 0, 48, 36
1, 69840, Note_on_c, 0, 60, 36
1, 70068, Note_on_c, 0, 60, 0
1, 70068, Note_on_c, 0, 48, 0
1, 70080, Tempo, 1647899
1, 70080, Note_on_c, 0, 64, 31
1, 70080, Note_on_c, 0, 69, 31
1, 70080, Note_on_c, 0, 72, 37
1, 70080, Note_on_c, 0, 48, 30
1, 70080, Note_on_c, 0, 55, 30
1, 70308, Note_on_c, 0, 55, 0
1, 70308, Note_on_c, 0, 72, 0
1, 70308, Note_on_c, 0, 64, 0
1, 70308, Note_on_c, 0, 69, 0
1, 70308, Note_on_c, 0, 48, 0
1, 70320, Tempo, 1582696
1, 70320, Note_on_c, 0, 62, 31
1, 70320, Note_on_c, 0, 69, 37
1, 70320, Note_on_c, 0, 72, 44
1, 70320, Note_on_c, 0, 48, 42
1, 70320, Note_on_c, 0, 53, 42
1, 70548, Note_on_c, 0, 48, 0
1, 70548, Note_on_c, 0, 72, 0
1, 70548, Note_on_c, 0, 62, 0
1, 70548, Note_on_c, 0, 69, 0
1, 70560, Note_on_c, 0, 69, 37
1, 70560, Note_on_c, 0, 72, 37
1, 70560, Note_on_c, 0, 74, 44
1, 70560, Note_on_c, 0, 48, 36
1, 70788, Note_on_c, 0, 48, 0
1, 70788, Note_on_c, 0, 72, 0
1, 70788, Note_on_c, 0, 74, 0
1, 70788, Note_on_c, 0, 69, 0
1, 70800, Note_on_c, 0, 53, 0
1, 70800, Note_on_c, 0, 77, 44
1, 70800, Note_on_c, 0, 69, 37
1, 70800, Note_on_c, 0, 72, 37
1, 70800, Note_on_c, 0, 48, 36
1, 71028, Note_on_c, 0, 48, 0
1, 71028, Note_on_c, 0, 77, 0
1, 71028, Note_on_c, 0, 69, 0
1, 71028, Note_on_c, 0, 72, 0
1, 71040, Tempo, 1582696
1, 71040, Note_on_c, 0, 62, 34
1, 71040, Note_on_c, 0, 69, 34
1, 71040, Note_on_c, 0, 72, 41
1, 71040, Note_on_c, 0, 48, 37
1, 71040, Note_on_c, 0, 53, 37
1, 71268, Note_on_c, 0, 53, 0
1, 71268, Note_on_c, 0, 72, 0
1, 71268, Note_on_c, 0, 62, 0
1, 71268, Note_on_c, 0, 69, 0
1, 71268, Note_on_c, 0, 48, 0
1, 71280, Tempo, 1562093
1, 71280, Note_on_c, 0, 62, 37
1, 71280, Note_on_c, 0, 67, 37
1, 71280, Note_on_c, 0, 71, 44
1, 71280, Note_on_c, 0, 48, 42
1, 71280, Note_on_c, 0, 53, 42
1, 71508, Note_on_c, 0, 53, 0
1, 71508, Note_on_c, 0, 48, 0
1, 71520, Note_on_c, 0, 62, 0
1, 71520, Note_on_c, 0, 67, 0
1, 71520, Note_on_c, 0, 71, 0
1, 71520, Note_on_c, 0, 62, 35
1, 71520, Note_on_c, 0, 67, 35
1, 71520, Note_on_c, 0, 71, 42
1, 71520, Note_on_c, 0, 48, 36
1, 71520, Note_on_c, 0, 57, 36
1, 71748, Note_on_c, 0, 57, 0
1, 71748, Note_on_c, 0, 48, 0
1, 71760, Note_on_c, 0, 62, 0
1, 71760, Note_on_c, 0, 67, 0
1, 71760, Note_on_c, 0, 71, 0
1, 71760, Note_on_c, 0, 48, 36
1, 71760, Note_on_c, 0, 55, 36
1, 71988, Note_on_c, 0, 55, 0
1, 71988, Note_on_c, 0, 48, 0
1, 72000, Tempo, 1647899
1, 72000, Note_on_c, 0, 55, 37
1, 72000, Note_on_c, 0, 48, 30
1, 72000, Note_on_c, 0, 53, 30
1, 72228, Note_on_c, 0, 53, 0
1, 72228, Note_on_c, 0, 48, 0
1, 72228, Note_on_c, 0, 55, 0
1, 72240, Tempo, 1582696
1, 72240, Note_on_c, 0, 58, 43
1, 72240, Note_on_c, 0, 52, 31
1, 72240, Note_on_c, 0, 60, 44
1, 72240, Note_on_c, 0, 36, 42
1, 72240, Note_on_c, 0, 48, 42
1, 72468, Note_on_c, 0, 48, 0
1, 72468, Note_on_c, 0, 60, 0
1, 72468, Note_on_c, 0, 36, 0
1, 72468, Note_on_c, 0, 52, 0
1, 72480, Tempo, 1522456
1, 72480, Note_on_c, 0, 53, 37
1, 72480, Note_on_c, 0, 62, 44
1, 72480, Note_on_c, 0, 43, 36
1, 72480, Note_on_c, 0, 36, 36
1, 72708, Note_on_c, 0, 36, 0
1, 72708, Note_on_c, 0, 62, 0
1, 72708, Note_on_c, 0, 43, 0
1, 72708, Note_on_c, 0, 53, 0
1, 72720, Tempo, 1582696
1, 72720, Note_on_c, 0, 64, 44
1, 72720, Note_on_c, 0, 55, 37
1, 72720, Note_on_c, 0, 48, 42
1, 72720, Note_on_c, 0, 36, 36
1, 72948, Note_on_c, 0, 36, 0
1, 72948, Note_on_c, 0, 55, 0
1, 72948, Note_on_c, 0, 48, 0
1, 72948, Note_on_c, 0, 64, 0
1, 72960, Tempo, 1625576
1, 72960, Note_on_c, 0, 52, 34
1, 72960, Note_on_c, 0, 60, 41
1, 72960, Note_on_c, 0, 36, 37
1, 72960, Note_on_c, 0, 43, 37
1, 73188, Note_on_c, 0, 43, 0
1, 73188, Note_on_c, 0, 60, 0
1, 73188, Note_on_c, 0, 36, 0
1, 73188, Note_on_c, 0, 52, 0
1, 73200, Tempo, 1582696
1, 73200, Note_on_c, 0, 58, 0
1, 73200, Note_on_c, 0, 57, 51
1, 73200, Note_on_c, 0, 65, 44
1, 73200, Note_on_c, 0, 36, 42
1, 73200, Note_on_c, 0, 48, 42
1, 73428, Note_on_c, 0, 48, 0
1, 73428, Note_on_c, 0, 57, 0
1, 73428, Note_on_c, 0, 65, 0
1, 73428, Note_on_c, 0, 36, 0
1, 73440, Tempo, 1522456
1, 73440, Note_on_c, 0, 57, 37
1, 73440, Note_on_c, 0, 60, 37
1, 73440, Note_on_c, 0, 67, 44
1, 73440, Note_on_c, 0, 43, 36
1, 73440, Note_on_c, 0, 36, 36
1, 73668, Note_on_c, 0, 36, 0
1, 73668, Note_on_c, 0, 67, 0
1, 73668, Note_on_c, 0, 43, 0
1, 73668, Note_on_c, 0, 60, 0
1, 73680, Tempo, 1582696
1, 73680, Note_on_c, 0, 69, 44
1, 73680, Note_on_c, 0, 65, 37
1, 73680, Note_on_c, 0, 48, 42
1, 73680, Note_on_c, 0, 36, 36
1, 73908, Note_on_c, 0, 36, 0
1, 73908, Note_on_c, 0, 65, 0
1, 73908, Note_on_c, 0, 48, 0
1, 73908, Note_on_c, 0, 69, 0
1, 73920, Tempo, 1625576
1, 73920, Note_on_c, 0, 53, 41
1, 73920, Note_on_c, 0, 36, 37
1, 73920, Note_on_c, 0, 43, 37
1, 74148, Note_on_c, 0, 43, 0
1, 74148, Note_on_c, 0, 36, 0
1, 74148, Note_on_c, 0, 53, 0
1, 74160, Tempo, 1582696
1, 74160, Note_on_c, 0, 57, 0
1, 74160, Note_on_c, 0, 56, 43
1, 74160, Note_on_c, 0, 50, 31
1, 74160, Note_on_c, 0, 59, 44
1, 74160, Note_on_c, 0, 36, 42
1, 74160, Note_on_c, 0, 48, 42
1, 74388, Note_on_c, 0, 48, 0
1, 74388, Note_on_c, 0, 59, 0
1, 74388, Note_on_c, 0, 36, 0
1, 74388, Note_on_c, 0, 50, 0
1, 74400, Tempo, 1522456
1, 74400, Note_on_c, 0, 52, 37
1, 74400, Note_on_c, 0, 60, 44
1, 74400, Note_on_c, 0, 43, 36
1, 74400, Note_on_c, 0, 36, 36
1, 74628, Note_on_c, 0, 36, 0
1, 74628, Note_on_c, 0, 60, 0
1, 74628, Note_on_c, 0, 43, 0
1, 74628, Note_on_c, 0, 52, 0
1, 74640, Tempo, 1603849
1, 74640, Note_on_c, 0, 62, 44
1, 74640, Note_on_c, 0, 53, 37
1, 74640, Note_on_c, 0, 48, 42
1, 74640, Note_on_c, 0, 36, 36
1, 74868, Note_on_c, 0, 36, 0
1, 74868, Note_on_c, 0, 53, 0
1, 74868, Note_on_c, 0, 48, 0
1, 74868, Note_on_c, 0, 62, 0
1, 74880, Tempo, 1743679
1, 74880, Note_on_c, 0, 50, 34
1, 74880, Note_on_c, 0, 59, 41
1, 74880, Note_on_c, 0, 36, 37
1, 74880, Note_on_c, 0, 43, 37
1, 75108, Note_on_c, 0, 43, 0
1, 75108, Note_on_c, 0, 59, 0
1, 75108, Note_on_c, 0, 36, 0
1, 75108, Note_on_c, 0, 50, 0
1, 75120, Tempo, 1694437
1, 75120, Note_on_c, 0, 56, 0
1, 75120, Note_on_c, 0, 55, 38
1, 75120, Note_on_c, 0, 52, 38
1, 75120, Note_on_c, 0, 60, 45
1, 75120, Note_on_c, 0, 36, 39
1, 75120, Note_on_c, 0, 48, 39
1, 75120, Control_c, 0, 64, 127
1, 75348, Note_on_c, 0, 48, 0
1, 75348, Note_on_c, 0, 36, 0
1, 75360, Tempo, 1625576
1, 75360, Note_on_c, 0, 43, 33
1, 75360, Note_on_c, 0, 36, 33
1, 75588, Note_on_c, 0, 36, 0
1, 75588, Note_on_c, 0, 43, 0
1, 75590, Note_on_c, 0, 60, 0
1, 75590, Note_on_c, 0, 52, 0
1, 75590, Note_on_c, 0, 55, 0
1, 75600, Tempo, 1718705
1, 75600, Note_on_c, 0, 60, 39
1, 75600, Note_on_c, 0, 58, 33
1, 75600, Note_on_c, 0, 55, 33
1, 75600, Note_on_c, 0, 48, 38
1, 75600, Note_on_c, 0, 36, 32
1, 75607, Control_c, 0, 64, 0
1, 75742, Control_c, 0, 64, 127
1, 75828, Note_on_c, 0, 36, 0
1, 75828, Note_on_c, 0, 48, 0
1, 75840, Tempo, 1851280
1, 75840, Note_on_c, 0, 36, 32
1, 75840, Note_on_c, 0, 43, 32
1, 76068, Note_on_c, 0, 43, 0
1, 76068, Note_on_c, 0, 36, 0
1, 76080, Tempo, 1910220
1, 76080, Note_on_c, 0, 55, 0
1, 76080, Note_on_c, 0, 58, 0
1, 76080, Note_on_c, 0, 53, 32
1, 76080, Note_on_c, 0, 57, 38
1, 76080, Note_on_c, 0, 36, 35
1, 76080, Note_on_c, 0, 48, 35
1, 76086, Control_c, 0, 64, 0
1, 76207, Control_c, 0, 64, 127
1, 76308, Note_on_c, 0, 48, 0
1, 76308, Note_on_c, 0, 36, 0
1, 76320, Tempo, 2075406
1, 76320, Note_on_c, 0, 43, 28
1, 76320, Note_on_c, 0, 36, 28
1, 76548, Note_on_c, 0, 36, 0
1, 76548, Note_on_c, 0, 43, 0
1, 76560, Tempo, 2229654
1, 76560, Note_on_c, 0, 57, 0
1, 76560, Note_on_c, 0, 53, 0
1, 76560, Note_on_c, 0, 53, 30
1, 76560, Note_on_c, 0, 50, 25
1, 76560, Note_on_c, 0, 48, 33
1, 76560, Note_on_c, 0, 36, 28
1, 76572, Control_c, 0, 64, 0
1, 76701, Control_c, 0, 64, 127
1, 76788, Note_on_c, 0, 36, 0
1, 76788, Note_on_c, 0, 48, 0
1, 76800, Tempo, 3656307
1, 76800, Note_on_c, 0, 36, 28
1, 76800, Note_on_c, 0, 43, 28
1, 77028, Note_on_c, 0, 43, 0
1, 77028, Note_on_c, 0, 36, 0
1, 77040, Tempo, 3259098
1, 77040, Note_on_c, 0, 50, 0
1, 77040, Note_on_c, 0, 53, 0
1, 77040, Note_on_c, 0, 60, 0
1, 77040, Note_on_c, 0, 52, 21
1, 77040, Note_on_c, 0, 55, 21
1, 77040, Note_on_c, 0, 60, 25
1, 77040, Note_on_c, 0, 36, 25
1, 77040, Note_on_c, 0, 43, 25
1, 77040, Note_on_c, 0, 48, 30
1, 77040, Control_c, 0, 64, 0
1, 77167, Control_c, 0, 64, 127
1, 77760, Note_on_c, 0, 48, 0
1, 77760, Note_on_c, 0, 55, 0
1, 77760, Note_on_c, 0, 60, 0
1, 77760, Note_on_c, 0, 52, 0
1, 77760, Note_on_c, 0, 43, 0
1, 77760, Note_on_c, 0, 36, 0
1, 78560, Control_c, 0, 64, 0
1, 78560, End_track
0, 0, End_of_file
