0, 0, Header, 0, 1, 480
1, 0, Start_track
1, 0, Title_t, "Etueden Opus 109"
1, 0, Title_t, "Spinnerlied"
1, 0, Copyright_t, "Copyright © 2012 by Bernd Krueger"
1, 0, Text_t, "Friedrich Burgmueller"
1, 0, Text_t, "Allegro moderato"
1, 0, Text_t, "Erstellt:  16.4.2012\012"
1, 0, Text_t, "Dauer: 1:45 Minuten\012"
1, 0, SMPTE_offset, 96, 0, 3, 0, 0
1, 0, Time_signature, 4, 2, 24, 8
1, 0, Key_signature, 2, "major"
1, 0, Tempo, 544020
1, 0, Program_c, 0, 0
1, 0, Control_c, 0, 7, 127
1, 0, Control_c, 0, 10, 64
1, 0, Program_c, 0, 0
1, 0, Control_c, 0, 7, 127
1, 0, Control_c, 0, 10, 64
1, 1440, Tempo, 639727
1, 1440, Marker_t, "Teil 1"
1, 1440, Note_on_c, 0, 69, 50
1, 1800, Tempo, 713182
1, 1800, Note_on_c, 0, 69, 0
1, 1800, Note_on_c, 0, 71, 42
1, 1920, Tempo, 645925
1, 1920, Note_on_c, 0, 71, 0
1, 1920, Note_on_c, 0, 69, 50
1, 1920, Note_on_c, 0, 50, 37
1, 1920, Note_on_c, 0, 38, 31
1, 1994, Control_c, 0, 64, 127
1, 2000, Note_on_c, 0, 74, 38
1, 2080, Note_on_c, 0, 74, 0
1, 2080, Note_on_c, 0, 78, 38
1, 2160, Note_on_c, 0, 78, 0
1, 2160, Note_on_c, 0, 38, 0
1, 2160, Note_on_c, 0, 50, 0
1, 2160, Note_on_c, 0, 79, 47
1, 2240, Note_on_c, 0, 79, 0
1, 2240, Note_on_c, 0, 78, 38
1, 2320, Note_on_c, 0, 78, 0
1, 2320, Note_on_c, 0, 74, 38
1, 2397, Note_on_c, 0, 69, 0
1, 2400, Tempo, 623830
1, 2400, Note_on_c, 0, 74, 0
1, 2400, Note_on_c, 0, 69, 50
1, 2400, Note_on_c, 0, 62, 28
1, 2400, Note_on_c, 0, 66, 33
1, 2480, Note_on_c, 0, 74, 37
1, 2560, Note_on_c, 0, 74, 0
1, 2560, Note_on_c, 0, 78, 37
1, 2640, Note_on_c, 0, 78, 0
1, 2640, Note_on_c, 0, 66, 0
1, 2640, Note_on_c, 0, 62, 0
1, 2640, Note_on_c, 0, 79, 49
1, 2720, Note_on_c, 0, 79, 0
1, 2720, Note_on_c, 0, 78, 41
1, 2800, Tempo, 708634
1, 2800, Note_on_c, 0, 78, 0
1, 2800, Note_on_c, 0, 74, 41
1, 2880, Tempo, 645925
1, 2880, Note_on_c, 0, 74, 0
1, 2880, Note_on_c, 0, 69, 0
1, 2880, Note_on_c, 0, 71, 55
1, 2880, Note_on_c, 0, 50, 40
1, 2887, Control_c, 0, 64, 0
1, 2930, Control_c, 0, 64, 127
1, 2960, Note_on_c, 0, 74, 45
1, 3040, Note_on_c, 0, 74, 0
1, 3040, Note_on_c, 0, 79, 45
1, 3120, Note_on_c, 0, 79, 0
1, 3120, Note_on_c, 0, 50, 0
1, 3120, Note_on_c, 0, 81, 52
1, 3200, Note_on_c, 0, 81, 0
1, 3200, Note_on_c, 0, 79, 42
1, 3280, Note_on_c, 0, 79, 0
1, 3280, Note_on_c, 0, 74, 42
1, 3350, Note_on_c, 0, 71, 0
1, 3360, Tempo, 631048
1, 3360, Note_on_c, 0, 74, 0
1, 3360, Note_on_c, 0, 71, 55
1, 3360, Note_on_c, 0, 67, 36
1, 3360, Note_on_c, 0, 62, 30
1, 3440, Note_on_c, 0, 74, 45
1, 3520, Note_on_c, 0, 74, 0
1, 3520, Note_on_c, 0, 79, 45
1, 3600, Note_on_c, 0, 79, 0
1, 3600, Note_on_c, 0, 62, 0
1, 3600, Note_on_c, 0, 67, 0
1, 3600, Note_on_c, 0, 81, 52
1, 3680, Note_on_c, 0, 81, 0
1, 3680, Note_on_c, 0, 79, 42
1, 3760, Tempo, 713182
1, 3760, Note_on_c, 0, 79, 0
1, 3760, Note_on_c, 0, 74, 42
1, 3840, Tempo, 642123
1, 3840, Note_on_c, 0, 74, 0
1, 3840, Note_on_c, 0, 71, 0
1, 3840, Note_on_c, 0, 69, 50
1, 3840, Note_on_c, 0, 50, 37
1, 3850, Control_c, 0, 64, 0
1, 3897, Control_c, 0, 64, 127
1, 3920, Note_on_c, 0, 74, 41
1, 4000, Note_on_c, 0, 74, 0
1, 4000, Note_on_c, 0, 78, 41
1, 4080, Note_on_c, 0, 78, 0
1, 4080, Note_on_c, 0, 50, 0
1, 4080, Note_on_c, 0, 79, 48
1, 4160, Note_on_c, 0, 79, 0
1, 4160, Note_on_c, 0, 78, 39
1, 4240, Note_on_c, 0, 78, 0
1, 4240, Note_on_c, 0, 74, 39
1, 4320, Tempo, 627418
1, 4320, Note_on_c, 0, 74, 0
1, 4320, Note_on_c, 0, 69, 0
1, 4320, Note_on_c, 0, 74, 50
1, 4320, Note_on_c, 0, 62, 28
1, 4320, Note_on_c, 0, 66, 33
1, 4320, Note_on_c, 0, 57, 28
1, 4400, Note_on_c, 0, 78, 41
1, 4480, Note_on_c, 0, 78, 0
1, 4480, Note_on_c, 0, 81, 41
1, 4560, Note_on_c, 0, 81, 0
1, 4560, Note_on_c, 0, 57, 0
1, 4560, Note_on_c, 0, 66, 0
1, 4560, Note_on_c, 0, 62, 0
1, 4560, Note_on_c, 0, 83, 48
1, 4640, Note_on_c, 0, 83, 0
1, 4640, Note_on_c, 0, 81, 39
1, 4720, Note_on_c, 0, 81, 0
1, 4720, Note_on_c, 0, 78, 39
1, 4800, Tempo, 642123
1, 4800, Note_on_c, 0, 78, 0
1, 4800, Note_on_c, 0, 74, 0
1, 4800, Note_on_c, 0, 78, 48
1, 4800, Note_on_c, 0, 50, 41
1, 4857, Control_c, 0, 64, 0
1, 4880, Note_on_c, 0, 78, 0
1, 4880, Note_on_c, 0, 79, 42
1, 4900, Control_c, 0, 64, 127
1, 4960, Note_on_c, 0, 79, 0
1, 4960, Note_on_c, 0, 81, 42
1, 5040, Note_on_c, 0, 81, 0
1, 5040, Note_on_c, 0, 50, 0
1, 5040, Note_on_c, 0, 83, 55
1, 5120, Note_on_c, 0, 83, 0
1, 5120, Note_on_c, 0, 85, 48
1, 5200, Note_on_c, 0, 85, 0
1, 5200, Note_on_c, 0, 86, 48
1, 5280, Tempo, 631048
1, 5280, Note_on_c, 0, 86, 0
1, 5280, Note_on_c, 0, 88, 62
1, 5280, Note_on_c, 0, 57, 34
1, 5280, Note_on_c, 0, 62, 34
1, 5280, Note_on_c, 0, 66, 40
1, 5360, Note_on_c, 0, 88, 0
1, 5360, Note_on_c, 0, 90, 50
1, 5440, Note_on_c, 0, 90, 0
1, 5440, Note_on_c, 0, 91, 51
1, 5520, Note_on_c, 0, 91, 0
1, 5520, Note_on_c, 0, 57, 0
1, 5520, Note_on_c, 0, 62, 0
1, 5520, Note_on_c, 0, 66, 0
1, 5520, Note_on_c, 0, 92, 67
1, 5600, Note_on_c, 0, 92, 0
1, 5600, Note_on_c, 0, 95, 59
1, 5680, Tempo, 704060
1, 5680, Note_on_c, 0, 95, 0
1, 5680, Note_on_c, 0, 93, 53
1, 5760, Tempo, 627418
1, 5760, Note_on_c, 0, 93, 0
1, 5760, Note_on_c, 0, 91, 72
1, 5760, Note_on_c, 0, 45, 51
1, 5768, Control_c, 0, 64, 0
1, 5803, Control_c, 0, 64, 127
1, 5811, Tempo, 609942
1, 5840, Note_on_c, 0, 91, 0
1, 5840, Note_on_c, 0, 93, 60
1, 5887, Tempo, 613371
1, 5920, Note_on_c, 0, 93, 0
1, 5920, Note_on_c, 0, 91, 60
1, 6000, Note_on_c, 0, 91, 0
1, 6000, Note_on_c, 0, 45, 0
1, 6000, Note_on_c, 0, 90, 70
1, 6038, Tempo, 623830
1, 6080, Note_on_c, 0, 90, 0
1, 6080, Note_on_c, 0, 91, 58
1, 6089, Tempo, 627418
1, 6139, Tempo, 631048
1, 6160, Note_on_c, 0, 91, 0
1, 6160, Note_on_c, 0, 90, 58
1, 6190, Tempo, 634719
1, 6240, Note_on_c, 0, 90, 0
1, 6240, Note_on_c, 0, 88, 69
1, 6240, Note_on_c, 0, 61, 40
1, 6240, Note_on_c, 0, 67, 47
1, 6240, Note_on_c, 0, 57, 40
1, 6316, Tempo, 616840
1, 6320, Note_on_c, 0, 88, 0
1, 6320, Note_on_c, 0, 90, 61
1, 6392, Tempo, 620347
1, 6400, Note_on_c, 0, 90, 0
1, 6400, Note_on_c, 0, 88, 59
1, 6468, Tempo, 623830
1, 6480, Note_on_c, 0, 88, 0
1, 6480, Note_on_c, 0, 61, 0
1, 6480, Note_on_c, 0, 67, 0
1, 6480, Note_on_c, 0, 57, 0
1, 6480, Note_on_c, 0, 86, 69
1, 6518, Tempo, 627418
1, 6560, Note_on_c, 0, 86, 0
1, 6560, Note_on_c, 0, 88, 58
1, 6594, Tempo, 631048
1, 6640, Note_on_c, 0, 88, 0
1, 6640, Note_on_c, 0, 86, 58
1, 6670, Tempo, 634719
1, 6720, Tempo, 638366
1, 6720, Note_on_c, 0, 86, 0
1, 6720, Note_on_c, 0, 85, 68
1, 6720, Note_on_c, 0, 45, 52
1, 6796, Tempo, 616840
1, 6800, Note_on_c, 0, 85, 0
1, 6800, Note_on_c, 0, 86, 56
1, 6872, Tempo, 620347
1, 6880, Note_on_c, 0, 86, 0
1, 6880, Note_on_c, 0, 85, 56
1, 6960, Note_on_c, 0, 85, 0
1, 6960, Note_on_c, 0, 45, 0
1, 6960, Note_on_c, 0, 83, 65
1, 7040, Note_on_c, 0, 83, 0
1, 7040, Note_on_c, 0, 85, 55
1, 7120, Note_on_c, 0, 85, 0
1, 7120, Note_on_c, 0, 83, 55
1, 7150, Tempo, 634719
1, 7200, Tempo, 627418
1, 7200, Note_on_c, 0, 83, 0
1, 7200, Note_on_c, 0, 81, 64
1, 7200, Note_on_c, 0, 57, 40
1, 7200, Note_on_c, 0, 61, 40
1, 7200, Note_on_c, 0, 67, 47
1, 7280, Note_on_c, 0, 81, 0
1, 7280, Note_on_c, 0, 83, 55
1, 7352, Tempo, 631048
1, 7360, Note_on_c, 0, 83, 0
1, 7360, Note_on_c, 0, 81, 55
1, 7440, Note_on_c, 0, 81, 0
1, 7440, Note_on_c, 0, 57, 0
1, 7440, Note_on_c, 0, 61, 0
1, 7440, Note_on_c, 0, 67, 0
1, 7440, Note_on_c, 0, 79, 64
1, 7503, Tempo, 634719
1, 7520, Note_on_c, 0, 79, 0
1, 7520, Note_on_c, 0, 81, 54
1, 7600, Tempo, 682128
1, 7600, Note_on_c, 0, 81, 0
1, 7600, Note_on_c, 0, 79, 54
1, 7680, Tempo, 634719
1, 7680, Note_on_c, 0, 79, 0
1, 7680, Note_on_c, 0, 78, 70
1, 7680, Note_on_c, 0, 50, 49
1, 7680, Control_c, 0, 64, 0
1, 7706, Tempo, 620347
1, 7720, Control_c, 0, 64, 127
1, 7760, Note_on_c, 0, 78, 0
1, 7760, Note_on_c, 0, 79, 55
1, 7807, Tempo, 623830
1, 7840, Note_on_c, 0, 79, 0
1, 7840, Note_on_c, 0, 78, 55
1, 7882, Tempo, 627418
1, 7920, Note_on_c, 0, 78, 0
1, 7920, Note_on_c, 0, 50, 0
1, 7920, Note_on_c, 0, 76, 63
1, 7983, Tempo, 631048
1, 8000, Note_on_c, 0, 76, 0
1, 8000, Note_on_c, 0, 78, 50
1, 8059, Tempo, 634719
1, 8080, Note_on_c, 0, 78, 0
1, 8080, Note_on_c, 0, 76, 50
1, 8135, Tempo, 638366
1, 8160, Tempo, 623830
1, 8160, Note_on_c, 0, 76, 0
1, 8160, Note_on_c, 0, 74, 60
1, 8160, Note_on_c, 0, 62, 35
1, 8160, Note_on_c, 0, 66, 42
1, 8160, Note_on_c, 0, 57, 35
1, 8240, Note_on_c, 0, 74, 0
1, 8240, Note_on_c, 0, 76, 49
1, 8320, Note_on_c, 0, 76, 0
1, 8320, Note_on_c, 0, 74, 49
1, 8337, Tempo, 627418
1, 8400, Note_on_c, 0, 74, 0
1, 8400, Note_on_c, 0, 62, 0
1, 8400, Note_on_c, 0, 66, 0
1, 8400, Note_on_c, 0, 57, 0
1, 8400, Note_on_c, 0, 73, 60
1, 8480, Note_on_c, 0, 73, 0
1, 8480, Note_on_c, 0, 74, 47
1, 8514, Tempo, 631048
1, 8560, Note_on_c, 0, 74, 0
1, 8560, Note_on_c, 0, 73, 47
1, 8640, Note_on_c, 0, 73, 0
1, 8640, Note_on_c, 0, 71, 55
1, 8640, Note_on_c, 0, 50, 45
1, 8666, Tempo, 634719
1, 8716, Tempo, 634719
1, 8720, Note_on_c, 0, 71, 0
1, 8720, Note_on_c, 0, 73, 46
1, 8741, Tempo, 623830
1, 8792, Tempo, 627418
1, 8800, Note_on_c, 0, 73, 0
1, 8800, Note_on_c, 0, 71, 46
1, 8842, Tempo, 631048
1, 8868, Tempo, 634719
1, 8880, Note_on_c, 0, 71, 0
1, 8880, Note_on_c, 0, 50, 0
1, 8880, Note_on_c, 0, 69, 54
1, 8918, Tempo, 638366
1, 8943, Tempo, 642123
1, 8960, Note_on_c, 0, 69, 0
1, 8960, Note_on_c, 0, 71, 43
1, 8994, Tempo, 645925
1, 9019, Tempo, 649773
1, 9040, Note_on_c, 0, 71, 0
1, 9040, Note_on_c, 0, 69, 43
1, 9070, Tempo, 653666
1, 9095, Tempo, 657534
1, 9120, Tempo, 634719
1, 9120, Note_on_c, 0, 69, 0
1, 9120, Note_on_c, 0, 68, 47
1, 9120, Note_on_c, 0, 59, 27
1, 9120, Note_on_c, 0, 62, 27
1, 9120, Note_on_c, 0, 65, 32
1, 9131, Control_c, 0, 64, 0
1, 9166, Control_c, 0, 64, 127
1, 9196, Tempo, 638366
1, 9200, Note_on_c, 0, 68, 0
1, 9200, Note_on_c, 0, 71, 36
1, 9247, Tempo, 642123
1, 9280, Note_on_c, 0, 71, 0
1, 9280, Note_on_c, 0, 73, 36
1, 9297, Tempo, 645925
1, 9360, Note_on_c, 0, 73, 0
1, 9360, Note_on_c, 0, 59, 0
1, 9360, Note_on_c, 0, 62, 0
1, 9360, Note_on_c, 0, 65, 0
1, 9360, Note_on_c, 0, 74, 46
1, 9373, Tempo, 649773
1, 9423, Tempo, 653666
1, 9440, Note_on_c, 0, 74, 0
1, 9440, Note_on_c, 0, 71, 37
1, 9474, Tempo, 657534
1, 9520, Tempo, 742207
1, 9520, Note_on_c, 0, 71, 0
1, 9520, Note_on_c, 0, 68, 37
1, 9600, Tempo, 645925
1, 9600, Note_on_c, 0, 68, 0
1, 9600, Note_on_c, 0, 69, 50
1, 9600, Note_on_c, 0, 50, 37
1, 9600, Note_on_c, 0, 38, 31
1, 9608, Control_c, 0, 64, 0
1, 9674, Control_c, 0, 64, 127
1, 9680, Note_on_c, 0, 74, 38
1, 9760, Note_on_c, 0, 74, 0
1, 9760, Note_on_c, 0, 78, 38
1, 9840, Note_on_c, 0, 78, 0
1, 9840, Note_on_c, 0, 38, 0
1, 9840, Note_on_c, 0, 50, 0
1, 9840, Note_on_c, 0, 79, 47
1, 9920, Note_on_c, 0, 79, 0
1, 9920, Note_on_c, 0, 78, 38
1, 10000, Note_on_c, 0, 78, 0
1, 10000, Note_on_c, 0, 74, 38
1, 10070, Note_on_c, 0, 69, 0
1, 10080, Tempo, 623830
1, 10080, Note_on_c, 0, 74, 0
1, 10080, Note_on_c, 0, 69, 50
1, 10080, Note_on_c, 0, 62, 28
1, 10080, Note_on_c, 0, 66, 33
1, 10160, Note_on_c, 0, 74, 37
1, 10240, Note_on_c, 0, 74, 0
1, 10240, Note_on_c, 0, 78, 37
1, 10320, Note_on_c, 0, 78, 0
1, 10320, Note_on_c, 0, 66, 0
1, 10320, Note_on_c, 0, 62, 0
1, 10320, Note_on_c, 0, 79, 49
1, 10400, Note_on_c, 0, 79, 0
1, 10400, Note_on_c, 0, 78, 41
1, 10480, Tempo, 708634
1, 10480, Note_on_c, 0, 78, 0
1, 10480, Note_on_c, 0, 74, 41
1, 10560, Tempo, 645925
1, 10560, Note_on_c, 0, 74, 0
1, 10560, Note_on_c, 0, 69, 0
1, 10560, Note_on_c, 0, 71, 55
1, 10560, Note_on_c, 0, 50, 40
1, 10567, Control_c, 0, 64, 0
1, 10610, Control_c, 0, 64, 127
1, 10640, Note_on_c, 0, 74, 45
1, 10720, Note_on_c, 0, 74, 0
1, 10720, Note_on_c, 0, 79, 45
1, 10800, Note_on_c, 0, 79, 0
1, 10800, Note_on_c, 0, 50, 0
1, 10800, Note_on_c, 0, 81, 52
1, 10880, Note_on_c, 0, 81, 0
1, 10880, Note_on_c, 0, 79, 42
1, 10960, Note_on_c, 0, 79, 0
1, 10960, Note_on_c, 0, 74, 42
1, 11034, Note_on_c, 0, 71, 0
1, 11040, Tempo, 631048
1, 11040, Note_on_c, 0, 74, 0
1, 11040, Note_on_c, 0, 71, 55
1, 11040, Note_on_c, 0, 67, 36
1, 11040, Note_on_c, 0, 62, 30
1, 11120, Note_on_c, 0, 74, 45
1, 11200, Note_on_c, 0, 74, 0
1, 11200, Note_on_c, 0, 79, 45
1, 11280, Note_on_c, 0, 79, 0
1, 11280, Note_on_c, 0, 62, 0
1, 11280, Note_on_c, 0, 67, 0
1, 11280, Note_on_c, 0, 81, 52
1, 11360, Note_on_c, 0, 81, 0
1, 11360, Note_on_c, 0, 79, 42
1, 11440, Tempo, 713182
1, 11440, Note_on_c, 0, 79, 0
1, 11440, Note_on_c, 0, 74, 42
1, 11520, Tempo, 642123
1, 11520, Note_on_c, 0, 74, 0
1, 11520, Note_on_c, 0, 71, 0
1, 11520, Note_on_c, 0, 69, 50
1, 11520, Note_on_c, 0, 50, 37
1, 11530, Control_c, 0, 64, 0
1, 11577, Control_c, 0, 64, 127
1, 11600, Note_on_c, 0, 74, 41
1, 11680, Note_on_c, 0, 74, 0
1, 11680, Note_on_c, 0, 78, 41
1, 11760, Note_on_c, 0, 78, 0
1, 11760, Note_on_c, 0, 50, 0
1, 11760, Note_on_c, 0, 79, 48
1, 11840, Note_on_c, 0, 79, 0
1, 11840, Note_on_c, 0, 78, 39
1, 11920, Note_on_c, 0, 78, 0
1, 11920, Note_on_c, 0, 74, 39
1, 12000, Tempo, 627418
1, 12000, Note_on_c, 0, 74, 0
1, 12000, Note_on_c, 0, 69, 0
1, 12000, Note_on_c, 0, 74, 50
1, 12000, Note_on_c, 0, 62, 28
1, 12000, Note_on_c, 0, 66, 33
1, 12000, Note_on_c, 0, 57, 28
1, 12080, Note_on_c, 0, 78, 41
1, 12160, Note_on_c, 0, 78, 0
1, 12160, Note_on_c, 0, 81, 41
1, 12240, Note_on_c, 0, 81, 0
1, 12240, Note_on_c, 0, 57, 0
1, 12240, Note_on_c, 0, 66, 0
1, 12240, Note_on_c, 0, 62, 0
1, 12240, Note_on_c, 0, 83, 48
1, 12320, Note_on_c, 0, 83, 0
1, 12320, Note_on_c, 0, 81, 39
1, 12400, Note_on_c, 0, 81, 0
1, 12400, Note_on_c, 0, 78, 39
1, 12480, Tempo, 642123
1, 12480, Note_on_c, 0, 78, 0
1, 12480, Note_on_c, 0, 74, 0
1, 12480, Note_on_c, 0, 78, 48
1, 12480, Note_on_c, 0, 50, 41
1, 12537, Control_c, 0, 64, 0
1, 12560, Note_on_c, 0, 78, 0
1, 12560, Note_on_c, 0, 79, 42
1, 12580, Control_c, 0, 64, 127
1, 12640, Note_on_c, 0, 79, 0
1, 12640, Note_on_c, 0, 81, 42
1, 12720, Note_on_c, 0, 81, 0
1, 12720, Note_on_c, 0, 50, 0
1, 12720, Note_on_c, 0, 83, 55
1, 12800, Note_on_c, 0, 83, 0
1, 12800, Note_on_c, 0, 85, 48
1, 12880, Note_on_c, 0, 85, 0
1, 12880, Note_on_c, 0, 86, 48
1, 12960, Tempo, 631048
1, 12960, Note_on_c, 0, 86, 0
1, 12960, Note_on_c, 0, 88, 62
1, 12960, Note_on_c, 0, 57, 34
1, 12960, Note_on_c, 0, 62, 34
1, 12960, Note_on_c, 0, 66, 40
1, 13040, Note_on_c, 0, 88, 0
1, 13040, Note_on_c, 0, 90, 50
1, 13120, Note_on_c, 0, 90, 0
1, 13120, Note_on_c, 0, 91, 51
1, 13200, Note_on_c, 0, 91, 0
1, 13200, Note_on_c, 0, 57, 0
1, 13200, Note_on_c, 0, 62, 0
1, 13200, Note_on_c, 0, 66, 0
1, 13200, Note_on_c, 0, 92, 67
1, 13280, Note_on_c, 0, 92, 0
1, 13280, Note_on_c, 0, 95, 59
1, 13360, Tempo, 704060
1, 13360, Note_on_c, 0, 95, 0
1, 13360, Note_on_c, 0, 93, 53
1, 13440, Tempo, 627418
1, 13440, Note_on_c, 0, 93, 0
1, 13440, Note_on_c, 0, 86, 77
1, 13440, Note_on_c, 0, 45, 58
1, 13440, Note_on_c, 0, 57, 69
1, 13448, Control_c, 0, 64, 0
1, 13483, Control_c, 0, 64, 127
1, 13491, Tempo, 609942
1, 13516, Tempo, 609942
1, 13520, Note_on_c, 0, 86, 0
1, 13520, Note_on_c, 0, 98, 73
1, 13600, Note_on_c, 0, 98, 0
1, 13600, Note_on_c, 0, 97, 63
1, 13617, Tempo, 613371
1, 13680, Note_on_c, 0, 97, 0
1, 13680, Note_on_c, 0, 57, 0
1, 13680, Note_on_c, 0, 45, 0
1, 13680, Note_on_c, 0, 95, 70
1, 13760, Note_on_c, 0, 95, 0
1, 13760, Note_on_c, 0, 93, 61
1, 13794, Tempo, 620347
1, 13819, Tempo, 620347
1, 13840, Note_on_c, 0, 93, 0
1, 13840, Note_on_c, 0, 91, 59
1, 13870, Tempo, 623830
1, 13920, Note_on_c, 0, 91, 0
1, 13920, Note_on_c, 0, 90, 71
1, 13920, Note_on_c, 0, 57, 51
1, 13920, Note_on_c, 0, 66, 62
1, 13920, Note_on_c, 0, 62, 51
1, 13996, Tempo, 616840
1, 14000, Note_on_c, 0, 90, 0
1, 14000, Note_on_c, 0, 88, 58
1, 14072, Tempo, 609942
1, 14080, Note_on_c, 0, 88, 0
1, 14080, Note_on_c, 0, 86, 58
1, 14160, Note_on_c, 0, 86, 0
1, 14160, Note_on_c, 0, 57, 0
1, 14160, Note_on_c, 0, 66, 0
1, 14160, Note_on_c, 0, 62, 0
1, 14160, Note_on_c, 0, 85, 70
1, 14173, Tempo, 613371
1, 14240, Note_on_c, 0, 85, 0
1, 14240, Note_on_c, 0, 86, 57
1, 14274, Tempo, 616840
1, 14320, Note_on_c, 0, 86, 0
1, 14320, Note_on_c, 0, 83, 57
1, 14350, Tempo, 620347
1, 14400, Tempo, 638366
1, 14400, Note_on_c, 0, 83, 0
1, 14400, Note_on_c, 0, 81, 70
1, 14400, Note_on_c, 0, 45, 56
1, 14400, Note_on_c, 0, 57, 67
1, 14414, Control_c, 0, 64, 0
1, 14467, Control_c, 0, 64, 127
1, 14476, Tempo, 616840
1, 14480, Note_on_c, 0, 81, 0
1, 14480, Note_on_c, 0, 91, 63
1, 14560, Note_on_c, 0, 91, 0
1, 14560, Note_on_c, 0, 90, 56
1, 14640, Note_on_c, 0, 90, 0
1, 14640, Note_on_c, 0, 57, 0
1, 14640, Note_on_c, 0, 45, 0
1, 14640, Note_on_c, 0, 88, 65
1, 14720, Note_on_c, 0, 88, 0
1, 14720, Note_on_c, 0, 86, 52
1, 14779, Tempo, 631048
1, 14800, Note_on_c, 0, 86, 0
1, 14800, Note_on_c, 0, 85, 52
1, 14830, Tempo, 634719
1, 14880, Tempo, 627418
1, 14880, Note_on_c, 0, 85, 0
1, 14880, Note_on_c, 0, 83, 65
1, 14880, Note_on_c, 0, 67, 62
1, 14880, Note_on_c, 0, 61, 52
1, 14880, Note_on_c, 0, 57, 52
1, 14960, Note_on_c, 0, 83, 0
1, 14960, Note_on_c, 0, 81, 55
1, 15032, Tempo, 631048
1, 15040, Note_on_c, 0, 81, 0
1, 15040, Note_on_c, 0, 79, 55
1, 15120, Note_on_c, 0, 79, 0
1, 15120, Note_on_c, 0, 67, 0
1, 15120, Note_on_c, 0, 61, 0
1, 15120, Note_on_c, 0, 57, 0
1, 15120, Note_on_c, 0, 78, 63
1, 15183, Tempo, 634719
1, 15200, Note_on_c, 0, 78, 0
1, 15200, Note_on_c, 0, 79, 56
1, 15280, Tempo, 682128
1, 15280, Note_on_c, 0, 79, 0
1, 15280, Note_on_c, 0, 76, 56
1, 15360, Tempo, 638366
1, 15360, Note_on_c, 0, 76, 0
1, 15360, Note_on_c, 0, 74, 71
1, 15360, Note_on_c, 0, 50, 67
1, 15374, Control_c, 0, 64, 0
1, 15427, Control_c, 0, 64, 127
1, 15436, Tempo, 616840
1, 15440, Note_on_c, 0, 74, 0
1, 15440, Note_on_c, 0, 78, 56
1, 15487, Tempo, 620347
1, 15520, Note_on_c, 0, 78, 0
1, 15520, Note_on_c, 0, 81, 57
1, 15600, Note_on_c, 0, 81, 0
1, 15600, Note_on_c, 0, 50, 0
1, 15600, Note_on_c, 0, 83, 63
1, 15613, Tempo, 623830
1, 15680, Note_on_c, 0, 83, 0
1, 15680, Note_on_c, 0, 81, 54
1, 15739, Tempo, 627418
1, 15760, Note_on_c, 0, 81, 0
1, 15760, Note_on_c, 0, 78, 54
1, 15840, Note_on_c, 0, 78, 0
1, 15840, Note_on_c, 0, 74, 67
1, 15840, Note_on_c, 0, 66, 63
1, 15840, Note_on_c, 0, 62, 53
1, 15840, Note_on_c, 0, 57, 53
1, 15866, Tempo, 631048
1, 15916, Tempo, 634719
1, 15920, Note_on_c, 0, 74, 0
1, 15920, Note_on_c, 0, 78, 62
1, 15941, Tempo, 638366
1, 15967, Tempo, 642123
1, 16000, Note_on_c, 0, 78, 0
1, 16000, Note_on_c, 0, 81, 62
1, 16017, Tempo, 645925
1, 16042, Tempo, 649773
1, 16068, Tempo, 653666
1, 16080, Note_on_c, 0, 81, 0
1, 16080, Note_on_c, 0, 66, 0
1, 16080, Note_on_c, 0, 62, 0
1, 16080, Note_on_c, 0, 57, 0
1, 16080, Note_on_c, 0, 86, 74
1, 16118, Tempo, 657534
1, 16143, Tempo, 661521
1, 16160, Note_on_c, 0, 86, 0
1, 16160, Note_on_c, 0, 90, 77
1, 16169, Tempo, 665557
1, 16240, Tempo, 768246
1, 16240, Note_on_c, 0, 90, 0
1, 16240, Note_on_c, 0, 93, 81
1, 16320, Tempo, 686420
1, 16320, Note_on_c, 0, 93, 0
1, 16320, Note_on_c, 0, 98, 93
1, 16320, Note_on_c, 0, 50, 82
1, 16320, Note_on_c, 0, 38, 68
1, 16440, Note_on_c, 0, 38, 0
1, 16440, Note_on_c, 0, 50, 0
1, 16440, Note_on_c, 0, 98, 0
1, 16490, Control_c, 0, 64, 0
1, 16800, Tempo, 645925
1, 16800, Marker_t, "Teil 1 Wiederholung"
1, 16800, Note_on_c, 0, 69, 50
1, 17160, Tempo, 713182
1, 17160, Note_on_c, 0, 69, 0
1, 17160, Note_on_c, 0, 71, 42
1, 17280, Tempo, 645925
1, 17280, Note_on_c, 0, 71, 0
1, 17280, Note_on_c, 0, 69, 50
1, 17280, Note_on_c, 0, 50, 37
1, 17280, Note_on_c, 0, 38, 31
1, 17354, Control_c, 0, 64, 127
1, 17360, Note_on_c, 0, 74, 38
1, 17440, Note_on_c, 0, 74, 0
1, 17440, Note_on_c, 0, 78, 38
1, 17520, Note_on_c, 0, 78, 0
1, 17520, Note_on_c, 0, 38, 0
1, 17520, Note_on_c, 0, 50, 0
1, 17520, Note_on_c, 0, 79, 47
1, 17600, Note_on_c, 0, 79, 0
1, 17600, Note_on_c, 0, 78, 38
1, 17680, Note_on_c, 0, 78, 0
1, 17680, Note_on_c, 0, 74, 38
1, 17750, Note_on_c, 0, 69, 0
1, 17760, Tempo, 623830
1, 17760, Note_on_c, 0, 74, 0
1, 17760, Note_on_c, 0, 69, 50
1, 17760, Note_on_c, 0, 62, 28
1, 17760, Note_on_c, 0, 66, 33
1, 17840, Note_on_c, 0, 74, 37
1, 17920, Note_on_c, 0, 74, 0
1, 17920, Note_on_c, 0, 78, 37
1, 18000, Note_on_c, 0, 78, 0
1, 18000, Note_on_c, 0, 66, 0
1, 18000, Note_on_c, 0, 62, 0
1, 18000, Note_on_c, 0, 79, 49
1, 18080, Note_on_c, 0, 79, 0
1, 18080, Note_on_c, 0, 78, 41
1, 18160, Tempo, 708634
1, 18160, Note_on_c, 0, 78, 0
1, 18160, Note_on_c, 0, 74, 41
1, 18240, Tempo, 645925
1, 18240, Note_on_c, 0, 74, 0
1, 18240, Note_on_c, 0, 69, 0
1, 18240, Note_on_c, 0, 71, 55
1, 18240, Note_on_c, 0, 50, 40
1, 18247, Control_c, 0, 64, 0
1, 18290, Control_c, 0, 64, 127
1, 18320, Note_on_c, 0, 74, 45
1, 18400, Note_on_c, 0, 74, 0
1, 18400, Note_on_c, 0, 79, 45
1, 18480, Note_on_c, 0, 79, 0
1, 18480, Note_on_c, 0, 50, 0
1, 18480, Note_on_c, 0, 81, 52
1, 18560, Note_on_c, 0, 81, 0
1, 18560, Note_on_c, 0, 79, 42
1, 18640, Note_on_c, 0, 79, 0
1, 18640, Note_on_c, 0, 74, 42
1, 18710, Note_on_c, 0, 71, 0
1, 18720, Tempo, 631048
1, 18720, Note_on_c, 0, 74, 0
1, 18720, Note_on_c, 0, 71, 55
1, 18720, Note_on_c, 0, 67, 36
1, 18720, Note_on_c, 0, 62, 30
1, 18800, Note_on_c, 0, 74, 45
1, 18880, Note_on_c, 0, 74, 0
1, 18880, Note_on_c, 0, 79, 45
1, 18960, Note_on_c, 0, 79, 0
1, 18960, Note_on_c, 0, 62, 0
1, 18960, Note_on_c, 0, 67, 0
1, 18960, Note_on_c, 0, 81, 52
1, 19040, Note_on_c, 0, 81, 0
1, 19040, Note_on_c, 0, 79, 42
1, 19120, Tempo, 713182
1, 19120, Note_on_c, 0, 79, 0
1, 19120, Note_on_c, 0, 74, 42
1, 19200, Tempo, 642123
1, 19200, Note_on_c, 0, 74, 0
1, 19200, Note_on_c, 0, 71, 0
1, 19200, Note_on_c, 0, 69, 50
1, 19200, Note_on_c, 0, 50, 37
1, 19210, Control_c, 0, 64, 0
1, 19257, Control_c, 0, 64, 127
1, 19280, Note_on_c, 0, 74, 41
1, 19360, Note_on_c, 0, 74, 0
1, 19360, Note_on_c, 0, 78, 41
1, 19440, Note_on_c, 0, 78, 0
1, 19440, Note_on_c, 0, 50, 0
1, 19440, Note_on_c, 0, 79, 48
1, 19520, Note_on_c, 0, 79, 0
1, 19520, Note_on_c, 0, 78, 39
1, 19600, Note_on_c, 0, 78, 0
1, 19600, Note_on_c, 0, 74, 39
1, 19680, Tempo, 627418
1, 19680, Note_on_c, 0, 74, 0
1, 19680, Note_on_c, 0, 69, 0
1, 19680, Note_on_c, 0, 74, 50
1, 19680, Note_on_c, 0, 62, 28
1, 19680, Note_on_c, 0, 66, 33
1, 19680, Note_on_c, 0, 57, 28
1, 19760, Note_on_c, 0, 78, 41
1, 19840, Note_on_c, 0, 78, 0
1, 19840, Note_on_c, 0, 81, 41
1, 19920, Note_on_c, 0, 81, 0
1, 19920, Note_on_c, 0, 57, 0
1, 19920, Note_on_c, 0, 66, 0
1, 19920, Note_on_c, 0, 62, 0
1, 19920, Note_on_c, 0, 83, 48
1, 20000, Note_on_c, 0, 83, 0
1, 20000, Note_on_c, 0, 81, 39
1, 20080, Note_on_c, 0, 81, 0
1, 20080, Note_on_c, 0, 78, 39
1, 20160, Tempo, 642123
1, 20160, Note_on_c, 0, 78, 0
1, 20160, Note_on_c, 0, 74, 0
1, 20160, Note_on_c, 0, 78, 48
1, 20160, Note_on_c, 0, 50, 41
1, 20217, Control_c, 0, 64, 0
1, 20240, Note_on_c, 0, 78, 0
1, 20240, Note_on_c, 0, 79, 42
1, 20260, Control_c, 0, 64, 127
1, 20320, Note_on_c, 0, 79, 0
1, 20320, Note_on_c, 0, 81, 42
1, 20400, Note_on_c, 0, 81, 0
1, 20400, Note_on_c, 0, 50, 0
1, 20400, Note_on_c, 0, 83, 55
1, 20480, Note_on_c, 0, 83, 0
1, 20480, Note_on_c, 0, 85, 48
1, 20560, Note_on_c, 0, 85, 0
1, 20560, Note_on_c, 0, 86, 48
1, 20640, Tempo, 631048
1, 20640, Note_on_c, 0, 86, 0
1, 20640, Note_on_c, 0, 88, 62
1, 20640, Note_on_c, 0, 57, 34
1, 20640, Note_on_c, 0, 62, 34
1, 20640, Note_on_c, 0, 66, 40
1, 20720, Note_on_c, 0, 88, 0
1, 20720, Note_on_c, 0, 90, 50
1, 20800, Note_on_c, 0, 90, 0
1, 20800, Note_on_c, 0, 91, 51
1, 20880, Note_on_c, 0, 91, 0
1, 20880, Note_on_c, 0, 57, 0
1, 20880, Note_on_c, 0, 62, 0
1, 20880, Note_on_c, 0, 66, 0
1, 20880, Note_on_c, 0, 92, 67
1, 20960, Note_on_c, 0, 92, 0
1, 20960, Note_on_c, 0, 95, 59
1, 21040, Tempo, 704060
1, 21040, Note_on_c, 0, 95, 0
1, 21040, Note_on_c, 0, 93, 53
1, 21120, Tempo, 627418
1, 21120, Note_on_c, 0, 93, 0
1, 21120, Note_on_c, 0, 91, 72
1, 21120, Note_on_c, 0, 45, 51
1, 21128, Control_c, 0, 64, 0
1, 21163, Control_c, 0, 64, 127
1, 21171, Tempo, 616713
1, 21200, Note_on_c, 0, 91, 0
1, 21200, Note_on_c, 0, 93, 60
1, 21280, Note_on_c, 0, 93, 0
1, 21280, Note_on_c, 0, 91, 60
1, 21360, Note_on_c, 0, 91, 0
1, 21360, Note_on_c, 0, 45, 0
1, 21360, Note_on_c, 0, 90, 70
1, 21440, Note_on_c, 0, 90, 0
1, 21440, Note_on_c, 0, 91, 58
1, 21474, Tempo, 626370
1, 21499, Tempo, 631048
1, 21520, Note_on_c, 0, 91, 0
1, 21520, Note_on_c, 0, 90, 58
1, 21550, Tempo, 634719
1, 21600, Note_on_c, 0, 90, 0
1, 21600, Note_on_c, 0, 88, 71
1, 21600, Note_on_c, 0, 61, 40
1, 21600, Note_on_c, 0, 67, 47
1, 21600, Note_on_c, 0, 57, 40
1, 21676, Tempo, 616840
1, 21680, Note_on_c, 0, 88, 0
1, 21680, Note_on_c, 0, 90, 61
1, 21701, Tempo, 623118
1, 21760, Note_on_c, 0, 90, 0
1, 21760, Note_on_c, 0, 88, 59
1, 21840, Note_on_c, 0, 88, 0
1, 21840, Note_on_c, 0, 61, 0
1, 21840, Note_on_c, 0, 67, 0
1, 21840, Note_on_c, 0, 57, 0
1, 21840, Note_on_c, 0, 86, 69
1, 21920, Note_on_c, 0, 86, 0
1, 21920, Note_on_c, 0, 88, 58
1, 21954, Tempo, 631048
1, 22000, Note_on_c, 0, 88, 0
1, 22000, Note_on_c, 0, 86, 58
1, 22030, Tempo, 634719
1, 22080, Tempo, 638366
1, 22080, Note_on_c, 0, 86, 0
1, 22080, Note_on_c, 0, 85, 68
1, 22080, Note_on_c, 0, 45, 52
1, 22156, Tempo, 616840
1, 22160, Note_on_c, 0, 85, 0
1, 22160, Note_on_c, 0, 86, 56
1, 22232, Tempo, 620347
1, 22240, Note_on_c, 0, 86, 0
1, 22240, Note_on_c, 0, 85, 56
1, 22320, Note_on_c, 0, 85, 0
1, 22320, Note_on_c, 0, 45, 0
1, 22320, Note_on_c, 0, 83, 65
1, 22400, Note_on_c, 0, 83, 0
1, 22400, Note_on_c, 0, 85, 55
1, 22459, Tempo, 631048
1, 22480, Note_on_c, 0, 85, 0
1, 22480, Note_on_c, 0, 83, 55
1, 22510, Tempo, 634719
1, 22560, Tempo, 627418
1, 22560, Note_on_c, 0, 83, 0
1, 22560, Note_on_c, 0, 81, 64
1, 22560, Note_on_c, 0, 57, 40
1, 22560, Note_on_c, 0, 61, 40
1, 22560, Note_on_c, 0, 67, 47
1, 22640, Note_on_c, 0, 81, 0
1, 22640, Note_on_c, 0, 83, 55
1, 22712, Tempo, 631048
1, 22720, Note_on_c, 0, 83, 0
1, 22720, Note_on_c, 0, 81, 55
1, 22800, Note_on_c, 0, 81, 0
1, 22800, Note_on_c, 0, 57, 0
1, 22800, Note_on_c, 0, 61, 0
1, 22800, Note_on_c, 0, 67, 0
1, 22800, Note_on_c, 0, 79, 64
1, 22863, Tempo, 634719
1, 22880, Note_on_c, 0, 79, 0
1, 22880, Note_on_c, 0, 81, 54
1, 22960, Tempo, 682128
1, 22960, Note_on_c, 0, 81, 0
1, 22960, Note_on_c, 0, 79, 54
1, 23040, Tempo, 634719
1, 23040, Note_on_c, 0, 79, 0
1, 23040, Note_on_c, 0, 78, 70
1, 23040, Note_on_c, 0, 50, 49
1, 23040, Control_c, 0, 64, 0
1, 23066, Tempo, 620347
1, 23080, Control_c, 0, 64, 127
1, 23120, Note_on_c, 0, 78, 0
1, 23120, Note_on_c, 0, 79, 55
1, 23167, Tempo, 623830
1, 23200, Note_on_c, 0, 79, 0
1, 23200, Note_on_c, 0, 78, 55
1, 23242, Tempo, 627418
1, 23280, Note_on_c, 0, 78, 0
1, 23280, Note_on_c, 0, 50, 0
1, 23280, Note_on_c, 0, 76, 63
1, 23343, Tempo, 631048
1, 23360, Note_on_c, 0, 76, 0
1, 23360, Note_on_c, 0, 78, 50
1, 23419, Tempo, 634719
1, 23440, Note_on_c, 0, 78, 0
1, 23440, Note_on_c, 0, 76, 50
1, 23495, Tempo, 638366
1, 23520, Tempo, 623830
1, 23520, Note_on_c, 0, 76, 0
1, 23520, Note_on_c, 0, 74, 60
1, 23520, Note_on_c, 0, 62, 35
1, 23520, Note_on_c, 0, 66, 42
1, 23520, Note_on_c, 0, 57, 35
1, 23600, Note_on_c, 0, 74, 0
1, 23600, Note_on_c, 0, 76, 49
1, 23680, Note_on_c, 0, 76, 0
1, 23680, Note_on_c, 0, 74, 49
1, 23697, Tempo, 627418
1, 23760, Note_on_c, 0, 74, 0
1, 23760, Note_on_c, 0, 62, 0
1, 23760, Note_on_c, 0, 66, 0
1, 23760, Note_on_c, 0, 57, 0
1, 23760, Note_on_c, 0, 73, 60
1, 23840, Note_on_c, 0, 73, 0
1, 23840, Note_on_c, 0, 74, 47
1, 23874, Tempo, 631048
1, 23920, Note_on_c, 0, 74, 0
1, 23920, Note_on_c, 0, 73, 47
1, 24000, Note_on_c, 0, 73, 0
1, 24000, Note_on_c, 0, 71, 55
1, 24000, Note_on_c, 0, 50, 45
1, 24026, Tempo, 634719
1, 24076, Tempo, 634719
1, 24080, Note_on_c, 0, 71, 0
1, 24080, Note_on_c, 0, 73, 46
1, 24101, Tempo, 623830
1, 24152, Tempo, 627418
1, 24160, Note_on_c, 0, 73, 0
1, 24160, Note_on_c, 0, 71, 46
1, 24202, Tempo, 631048
1, 24228, Tempo, 634719
1, 24240, Note_on_c, 0, 71, 0
1, 24240, Note_on_c, 0, 50, 0
1, 24240, Note_on_c, 0, 69, 54
1, 24278, Tempo, 638366
1, 24303, Tempo, 642123
1, 24320, Note_on_c, 0, 69, 0
1, 24320, Note_on_c, 0, 71, 43
1, 24354, Tempo, 645925
1, 24379, Tempo, 649773
1, 24400, Note_on_c, 0, 71, 0
1, 24400, Note_on_c, 0, 69, 43
1, 24430, Tempo, 653666
1, 24455, Tempo, 657534
1, 24480, Tempo, 636335
1, 24480, Note_on_c, 0, 69, 0
1, 24480, Note_on_c, 0, 68, 47
1, 24480, Note_on_c, 0, 59, 27
1, 24480, Note_on_c, 0, 62, 27
1, 24480, Note_on_c, 0, 65, 32
1, 24491, Control_c, 0, 64, 0
1, 24526, Control_c, 0, 64, 127
1, 24531, Tempo, 639727
1, 24556, Tempo, 643156
1, 24560, Note_on_c, 0, 68, 0
1, 24560, Note_on_c, 0, 71, 36
1, 24607, Tempo, 646621
1, 24632, Tempo, 650125
1, 24640, Note_on_c, 0, 71, 0
1, 24640, Note_on_c, 0, 73, 36
1, 24657, Tempo, 653666
1, 24708, Tempo, 657246
1, 24720, Note_on_c, 0, 73, 0
1, 24720, Note_on_c, 0, 59, 0
1, 24720, Note_on_c, 0, 62, 0
1, 24720, Note_on_c, 0, 65, 0
1, 24720, Note_on_c, 0, 74, 46
1, 24733, Tempo, 660866
1, 24758, Tempo, 664525
1, 24800, Note_on_c, 0, 74, 0
1, 24800, Note_on_c, 0, 71, 37
1, 24809, Tempo, 668226
1, 24834, Tempo, 671968
1, 24859, Tempo, 675752
1, 24880, Tempo, 742207
1, 24880, Note_on_c, 0, 71, 0
1, 24880, Note_on_c, 0, 68, 37
1, 24960, Tempo, 645925
1, 24960, Note_on_c, 0, 68, 0
1, 24960, Note_on_c, 0, 69, 50
1, 24960, Note_on_c, 0, 50, 37
1, 24960, Note_on_c, 0, 38, 31
1, 24968, Control_c, 0, 64, 0
1, 25034, Control_c, 0, 64, 127
1, 25040, Note_on_c, 0, 74, 38
1, 25120, Note_on_c, 0, 74, 0
1, 25120, Note_on_c, 0, 78, 38
1, 25200, Note_on_c, 0, 78, 0
1, 25200, Note_on_c, 0, 38, 0
1, 25200, Note_on_c, 0, 50, 0
1, 25200, Note_on_c, 0, 79, 47
1, 25280, Note_on_c, 0, 79, 0
1, 25280, Note_on_c, 0, 78, 38
1, 25360, Note_on_c, 0, 78, 0
1, 25360, Note_on_c, 0, 74, 38
1, 25430, Note_on_c, 0, 69, 0
1, 25440, Tempo, 623830
1, 25440, Note_on_c, 0, 74, 0
1, 25440, Note_on_c, 0, 69, 50
1, 25440, Note_on_c, 0, 62, 28
1, 25440, Note_on_c, 0, 66, 33
1, 25520, Note_on_c, 0, 74, 37
1, 25600, Note_on_c, 0, 74, 0
1, 25600, Note_on_c, 0, 78, 37
1, 25680, Note_on_c, 0, 78, 0
1, 25680, Note_on_c, 0, 66, 0
1, 25680, Note_on_c, 0, 62, 0
1, 25680, Note_on_c, 0, 79, 49
1, 25760, Note_on_c, 0, 79, 0
1, 25760, Note_on_c, 0, 78, 41
1, 25840, Tempo, 708634
1, 25840, Note_on_c, 0, 78, 0
1, 25840, Note_on_c, 0, 74, 41
1, 25920, Tempo, 645925
1, 25920, Note_on_c, 0, 74, 0
1, 25920, Note_on_c, 0, 69, 0
1, 25920, Note_on_c, 0, 71, 55
1, 25920, Note_on_c, 0, 50, 40
1, 25927, Control_c, 0, 64, 0
1, 25970, Control_c, 0, 64, 127
1, 26000, Note_on_c, 0, 74, 45
1, 26080, Note_on_c, 0, 74, 0
1, 26080, Note_on_c, 0, 79, 45
1, 26160, Note_on_c, 0, 79, 0
1, 26160, Note_on_c, 0, 50, 0
1, 26160, Note_on_c, 0, 81, 52
1, 26240, Note_on_c, 0, 81, 0
1, 26240, Note_on_c, 0, 79, 42
1, 26320, Note_on_c, 0, 79, 0
1, 26320, Note_on_c, 0, 74, 42
1, 26390, Note_on_c, 0, 71, 0
1, 26400, Tempo, 631048
1, 26400, Note_on_c, 0, 74, 0
1, 26400, Note_on_c, 0, 71, 55
1, 26400, Note_on_c, 0, 67, 36
1, 26400, Note_on_c, 0, 62, 30
1, 26480, Note_on_c, 0, 74, 45
1, 26560, Note_on_c, 0, 74, 0
1, 26560, Note_on_c, 0, 79, 45
1, 26640, Note_on_c, 0, 79, 0
1, 26640, Note_on_c, 0, 62, 0
1, 26640, Note_on_c, 0, 67, 0
1, 26640, Note_on_c, 0, 81, 52
1, 26720, Note_on_c, 0, 81, 0
1, 26720, Note_on_c, 0, 79, 42
1, 26800, Tempo, 713182
1, 26800, Note_on_c, 0, 79, 0
1, 26800, Note_on_c, 0, 74, 42
1, 26880, Tempo, 642123
1, 26880, Note_on_c, 0, 74, 0
1, 26880, Note_on_c, 0, 71, 0
1, 26880, Note_on_c, 0, 69, 50
1, 26880, Note_on_c, 0, 50, 37
1, 26890, Control_c, 0, 64, 0
1, 26937, Control_c, 0, 64, 127
1, 26960, Note_on_c, 0, 74, 41
1, 27040, Note_on_c, 0, 74, 0
1, 27040, Note_on_c, 0, 78, 41
1, 27120, Note_on_c, 0, 78, 0
1, 27120, Note_on_c, 0, 50, 0
1, 27120, Note_on_c, 0, 79, 48
1, 27200, Note_on_c, 0, 79, 0
1, 27200, Note_on_c, 0, 78, 39
1, 27280, Note_on_c, 0, 78, 0
1, 27280, Note_on_c, 0, 74, 39
1, 27360, Tempo, 627418
1, 27360, Note_on_c, 0, 74, 0
1, 27360, Note_on_c, 0, 69, 0
1, 27360, Note_on_c, 0, 74, 50
1, 27360, Note_on_c, 0, 62, 28
1, 27360, Note_on_c, 0, 66, 33
1, 27360, Note_on_c, 0, 57, 28
1, 27440, Note_on_c, 0, 78, 41
1, 27520, Note_on_c, 0, 78, 0
1, 27520, Note_on_c, 0, 81, 41
1, 27600, Note_on_c, 0, 81, 0
1, 27600, Note_on_c, 0, 57, 0
1, 27600, Note_on_c, 0, 66, 0
1, 27600, Note_on_c, 0, 62, 0
1, 27600, Note_on_c, 0, 83, 48
1, 27680, Note_on_c, 0, 83, 0
1, 27680, Note_on_c, 0, 81, 39
1, 27760, Note_on_c, 0, 81, 0
1, 27760, Note_on_c, 0, 78, 39
1, 27840, Tempo, 642123
1, 27840, Note_on_c, 0, 78, 0
1, 27840, Note_on_c, 0, 74, 0
1, 27840, Note_on_c, 0, 78, 48
1, 27840, Note_on_c, 0, 50, 41
1, 27897, Control_c, 0, 64, 0
1, 27920, Note_on_c, 0, 78, 0
1, 27920, Note_on_c, 0, 79, 42
1, 27940, Control_c, 0, 64, 127
1, 28000, Note_on_c, 0, 79, 0
1, 28000, Note_on_c, 0, 81, 42
1, 28080, Note_on_c, 0, 81, 0
1, 28080, Note_on_c, 0, 50, 0
1, 28080, Note_on_c, 0, 83, 55
1, 28160, Note_on_c, 0, 83, 0
1, 28160, Note_on_c, 0, 85, 48
1, 28240, Note_on_c, 0, 85, 0
1, 28240, Note_on_c, 0, 86, 48
1, 28320, Tempo, 631048
1, 28320, Note_on_c, 0, 86, 0
1, 28320, Note_on_c, 0, 88, 62
1, 28320, Note_on_c, 0, 57, 34
1, 28320, Note_on_c, 0, 62, 34
1, 28320, Note_on_c, 0, 66, 40
1, 28400, Note_on_c, 0, 88, 0
1, 28400, Note_on_c, 0, 90, 50
1, 28480, Note_on_c, 0, 90, 0
1, 28480, Note_on_c, 0, 91, 51
1, 28560, Note_on_c, 0, 91, 0
1, 28560, Note_on_c, 0, 57, 0
1, 28560, Note_on_c, 0, 62, 0
1, 28560, Note_on_c, 0, 66, 0
1, 28560, Note_on_c, 0, 92, 67
1, 28640, Note_on_c, 0, 92, 0
1, 28640, Note_on_c, 0, 95, 59
1, 28720, Tempo, 704060
1, 28720, Note_on_c, 0, 95, 0
1, 28720, Note_on_c, 0, 93, 53
1, 28800, Tempo, 671968
1, 28800, Note_on_c, 0, 93, 0
1, 28800, Note_on_c, 0, 86, 77
1, 28800, Note_on_c, 0, 45, 58
1, 28800, Note_on_c, 0, 57, 69
1, 28808, Control_c, 0, 64, 0
1, 28843, Control_c, 0, 64, 127
1, 28851, Tempo, 609942
1, 28876, Tempo, 609942
1, 28880, Note_on_c, 0, 86, 0
1, 28880, Note_on_c, 0, 98, 73
1, 28960, Note_on_c, 0, 98, 0
1, 28960, Note_on_c, 0, 97, 63
1, 29040, Note_on_c, 0, 97, 0
1, 29040, Note_on_c, 0, 57, 0
1, 29040, Note_on_c, 0, 45, 0
1, 29040, Note_on_c, 0, 95, 70
1, 29120, Note_on_c, 0, 95, 0
1, 29120, Note_on_c, 0, 93, 61
1, 29200, Note_on_c, 0, 93, 0
1, 29200, Note_on_c, 0, 91, 59
1, 29230, Tempo, 623830
1, 29280, Note_on_c, 0, 91, 0
1, 29280, Note_on_c, 0, 90, 70
1, 29280, Note_on_c, 0, 57, 51
1, 29280, Note_on_c, 0, 66, 62
1, 29280, Note_on_c, 0, 62, 51
1, 29356, Tempo, 616840
1, 29360, Note_on_c, 0, 90, 0
1, 29360, Note_on_c, 0, 88, 59
1, 29421, Tempo, 613560
1, 29440, Note_on_c, 0, 88, 0
1, 29440, Note_on_c, 0, 86, 59
1, 29520, Note_on_c, 0, 86, 0
1, 29520, Note_on_c, 0, 57, 0
1, 29520, Note_on_c, 0, 66, 0
1, 29520, Note_on_c, 0, 62, 0
1, 29520, Note_on_c, 0, 85, 67
1, 29522, Tempo, 616713
1, 29600, Note_on_c, 0, 85, 0
1, 29600, Note_on_c, 0, 86, 58
1, 29623, Tempo, 619899
1, 29680, Note_on_c, 0, 86, 0
1, 29680, Note_on_c, 0, 83, 58
1, 29724, Tempo, 623118
1, 29760, Tempo, 638366
1, 29760, Note_on_c, 0, 83, 0
1, 29760, Note_on_c, 0, 81, 70
1, 29760, Note_on_c, 0, 45, 56
1, 29760, Note_on_c, 0, 57, 67
1, 29774, Control_c, 0, 64, 0
1, 29827, Control_c, 0, 64, 127
1, 29836, Tempo, 616840
1, 29840, Tempo, 610438
1, 29840, Note_on_c, 0, 81, 0
1, 29840, Note_on_c, 0, 91, 63
1, 29920, Note_on_c, 0, 91, 0
1, 29920, Note_on_c, 0, 90, 56
1, 30000, Note_on_c, 0, 90, 0
1, 30000, Note_on_c, 0, 57, 0
1, 30000, Note_on_c, 0, 45, 0
1, 30000, Note_on_c, 0, 88, 62
1, 30080, Note_on_c, 0, 88, 0
1, 30080, Note_on_c, 0, 86, 52
1, 30160, Note_on_c, 0, 86, 0
1, 30160, Note_on_c, 0, 85, 52
1, 30240, Tempo, 627418
1, 30240, Note_on_c, 0, 85, 0
1, 30240, Note_on_c, 0, 83, 67
1, 30240, Note_on_c, 0, 67, 62
1, 30240, Note_on_c, 0, 61, 52
1, 30240, Note_on_c, 0, 57, 52
1, 30320, Note_on_c, 0, 83, 0
1, 30320, Note_on_c, 0, 81, 55
1, 30392, Tempo, 631048
1, 30400, Note_on_c, 0, 81, 0
1, 30400, Note_on_c, 0, 79, 55
1, 30480, Note_on_c, 0, 79, 0
1, 30480, Note_on_c, 0, 67, 0
1, 30480, Note_on_c, 0, 61, 0
1, 30480, Note_on_c, 0, 57, 0
1, 30480, Note_on_c, 0, 78, 62
1, 30543, Tempo, 634719
1, 30560, Note_on_c, 0, 78, 0
1, 30560, Note_on_c, 0, 79, 55
1, 30640, Tempo, 682128
1, 30640, Note_on_c, 0, 79, 0
1, 30640, Note_on_c, 0, 76, 55
1, 30720, Tempo, 638366
1, 30720, Note_on_c, 0, 76, 0
1, 30720, Note_on_c, 0, 74, 71
1, 30720, Note_on_c, 0, 50, 67
1, 30734, Control_c, 0, 64, 0
1, 30787, Control_c, 0, 64, 127
1, 30796, Tempo, 616840
1, 30800, Note_on_c, 0, 74, 0
1, 30800, Note_on_c, 0, 78, 56
1, 30847, Tempo, 620347
1, 30880, Note_on_c, 0, 78, 0
1, 30880, Note_on_c, 0, 81, 57
1, 30960, Note_on_c, 0, 81, 0
1, 30960, Note_on_c, 0, 50, 0
1, 30960, Note_on_c, 0, 83, 63
1, 30973, Tempo, 623830
1, 31040, Note_on_c, 0, 83, 0
1, 31040, Note_on_c, 0, 81, 54
1, 31099, Tempo, 627418
1, 31120, Note_on_c, 0, 81, 0
1, 31120, Note_on_c, 0, 78, 54
1, 31200, Note_on_c, 0, 78, 0
1, 31200, Note_on_c, 0, 74, 67
1, 31200, Note_on_c, 0, 66, 63
1, 31200, Note_on_c, 0, 62, 53
1, 31200, Note_on_c, 0, 57, 53
1, 31226, Tempo, 631048
1, 31276, Tempo, 634719
1, 31280, Note_on_c, 0, 74, 0
1, 31280, Note_on_c, 0, 78, 62
1, 31301, Tempo, 638366
1, 31327, Tempo, 642123
1, 31360, Note_on_c, 0, 78, 0
1, 31360, Note_on_c, 0, 81, 62
1, 31377, Tempo, 645925
1, 31402, Tempo, 649773
1, 31428, Tempo, 653666
1, 31440, Note_on_c, 0, 81, 0
1, 31440, Note_on_c, 0, 66, 0
1, 31440, Note_on_c, 0, 62, 0
1, 31440, Note_on_c, 0, 57, 0
1, 31440, Note_on_c, 0, 86, 74
1, 31478, Tempo, 657534
1, 31503, Tempo, 661521
1, 31520, Note_on_c, 0, 86, 0
1, 31520, Note_on_c, 0, 90, 77
1, 31529, Tempo, 665557
1, 31600, Tempo, 768246
1, 31600, Note_on_c, 0, 90, 0
1, 31600, Note_on_c, 0, 93, 81
1, 31680, Tempo, 686420
1, 31680, Note_on_c, 0, 93, 0
1, 31680, Note_on_c, 0, 98, 93
1, 31680, Note_on_c, 0, 50, 82
1, 31680, Note_on_c, 0, 38, 68
1, 31800, Note_on_c, 0, 38, 0
1, 31800, Note_on_c, 0, 50, 0
1, 31800, Note_on_c, 0, 98, 0
1, 31850, Control_c, 0, 64, 0
1, 32160, Tempo, 645925
1, 32160, Marker_t, "Teil 2"
1, 32160, Note_on_c, 0, 62, 50
1, 32520, Tempo, 713182
1, 32520, Note_on_c, 0, 62, 0
1, 32520, Note_on_c, 0, 64, 42
1, 32640, Tempo, 645925
1, 32640, Note_on_c, 0, 64, 0
1, 32640, Note_on_c, 0, 66, 50
1, 32668, Control_c, 0, 64, 127
1, 32720, Note_on_c, 0, 71, 38
1, 32760, Tempo, 627418
1, 32800, Note_on_c, 0, 71, 0
1, 32800, Note_on_c, 0, 73, 38
1, 32880, Note_on_c, 0, 73, 0
1, 32880, Note_on_c, 0, 74, 47
1, 32960, Note_on_c, 0, 74, 0
1, 32960, Note_on_c, 0, 73, 38
1, 33040, Note_on_c, 0, 73, 0
1, 33040, Note_on_c, 0, 71, 38
1, 33120, Tempo, 623830
1, 33120, Note_on_c, 0, 71, 0
1, 33120, Note_on_c, 0, 66, 0
1, 33120, Note_on_c, 0, 59, 50
1, 33129, Control_c, 0, 64, 0
1, 33184, Control_c, 0, 64, 127
1, 33200, Note_on_c, 0, 74, 37
1, 33280, Note_on_c, 0, 74, 0
1, 33280, Note_on_c, 0, 76, 37
1, 33360, Note_on_c, 0, 76, 0
1, 33360, Note_on_c, 0, 78, 49
1, 33440, Note_on_c, 0, 78, 0
1, 33440, Note_on_c, 0, 76, 41
1, 33520, Tempo, 708634
1, 33520, Note_on_c, 0, 76, 0
1, 33520, Note_on_c, 0, 74, 41
1, 33600, Tempo, 623830
1, 33600, Note_on_c, 0, 74, 0
1, 33600, Note_on_c, 0, 59, 0
1, 33600, Note_on_c, 0, 61, 50
1, 33600, Control_c, 0, 64, 0
1, 33650, Control_c, 0, 64, 127
1, 33680, Note_on_c, 0, 70, 45
1, 33760, Note_on_c, 0, 70, 0
1, 33760, Note_on_c, 0, 78, 46
1, 33840, Note_on_c, 0, 78, 0
1, 33840, Note_on_c, 0, 61, 0
1, 33840, Note_on_c, 0, 62, 48
1, 33848, Control_c, 0, 64, 0
1, 33893, Control_c, 0, 64, 127
1, 33920, Note_on_c, 0, 71, 45
1, 34000, Note_on_c, 0, 71, 0
1, 34000, Note_on_c, 0, 78, 46
1, 34080, Tempo, 616840
1, 34080, Note_on_c, 0, 78, 0
1, 34080, Note_on_c, 0, 62, 0
1, 34080, Note_on_c, 0, 64, 61
1, 34090, Control_c, 0, 64, 0
1, 34130, Control_c, 0, 64, 127
1, 34160, Note_on_c, 0, 73, 51
1, 34240, Note_on_c, 0, 73, 0
1, 34240, Note_on_c, 0, 78, 52
1, 34320, Note_on_c, 0, 78, 0
1, 34320, Note_on_c, 0, 64, 0
1, 34320, Note_on_c, 0, 67, 62
1, 34335, Control_c, 0, 64, 0
1, 34380, Control_c, 0, 64, 127
1, 34400, Note_on_c, 0, 76, 50
1, 34480, Tempo, 677890
1, 34480, Note_on_c, 0, 76, 0
1, 34480, Note_on_c, 0, 78, 51
1, 34560, Tempo, 631048
1, 34560, Note_on_c, 0, 78, 0
1, 34560, Note_on_c, 0, 67, 0
1, 34560, Note_on_c, 0, 66, 67
1, 34578, Control_c, 0, 64, 0
1, 34596, Control_c, 0, 64, 127
1, 34640, Note_on_c, 0, 74, 57
1, 34720, Note_on_c, 0, 74, 0
1, 34720, Note_on_c, 0, 78, 62
1, 34800, Tempo, 620347
1, 34800, Note_on_c, 0, 78, 0
1, 34800, Note_on_c, 0, 83, 66
1, 34880, Note_on_c, 0, 83, 0
1, 34880, Note_on_c, 0, 78, 56
1, 34960, Note_on_c, 0, 78, 0
1, 34960, Note_on_c, 0, 74, 56
1, 35040, Tempo, 634719
1, 35040, Note_on_c, 0, 74, 0
1, 35040, Note_on_c, 0, 66, 0
1, 35040, Note_on_c, 0, 62, 64
1, 35120, Note_on_c, 0, 74, 52
1, 35200, Note_on_c, 0, 74, 0
1, 35200, Note_on_c, 0, 78, 58
1, 35280, Tempo, 616840
1, 35280, Note_on_c, 0, 78, 0
1, 35280, Note_on_c, 0, 83, 63
1, 35360, Note_on_c, 0, 83, 0
1, 35360, Note_on_c, 0, 78, 56
1, 35440, Note_on_c, 0, 78, 0
1, 35440, Note_on_c, 0, 74, 56
1, 35520, Tempo, 627418
1, 35520, Note_on_c, 0, 74, 0
1, 35520, Note_on_c, 0, 62, 0
1, 35520, Note_on_c, 0, 59, 68
1, 35600, Note_on_c, 0, 71, 50
1, 35680, Tempo, 616840
1, 35680, Note_on_c, 0, 71, 0
1, 35680, Note_on_c, 0, 74, 55
1, 35760, Note_on_c, 0, 74, 0
1, 35760, Note_on_c, 0, 83, 63
1, 35840, Note_on_c, 0, 83, 0
1, 35840, Note_on_c, 0, 74, 51
1, 35920, Note_on_c, 0, 74, 0
1, 35920, Note_on_c, 0, 71, 51
1, 36000, Tempo, 634719
1, 36000, Note_on_c, 0, 71, 0
1, 36000, Note_on_c, 0, 59, 0
1, 36000, Note_on_c, 0, 57, 69
1, 36080, Note_on_c, 0, 71, 55
1, 36160, Note_on_c, 0, 71, 0
1, 36160, Note_on_c, 0, 74, 55
1, 36240, Tempo, 620347
1, 36240, Note_on_c, 0, 74, 0
1, 36240, Note_on_c, 0, 83, 63
1, 36320, Note_on_c, 0, 83, 0
1, 36320, Note_on_c, 0, 74, 62
1, 36400, Tempo, 695088
1, 36400, Note_on_c, 0, 74, 0
1, 36400, Note_on_c, 0, 71, 68
1, 36480, Tempo, 616840
1, 36480, Note_on_c, 0, 71, 0
1, 36480, Note_on_c, 0, 57, 0
1, 36480, Note_on_c, 0, 83, 77
1, 36480, Note_on_c, 0, 43, 86
1, 36480, Note_on_c, 0, 55, 86
1, 36480, Control_c, 0, 64, 0
1, 36554, Control_c, 0, 64, 127
1, 36560, Tempo, 620347
1, 36560, Note_on_c, 0, 74, 61
1, 36640, Note_on_c, 0, 74, 0
1, 36640, Note_on_c, 0, 79, 61
1, 36714, Note_on_c, 0, 83, 0
1, 36720, Note_on_c, 0, 43, 0
1, 36720, Note_on_c, 0, 55, 0
1, 36720, Note_on_c, 0, 79, 0
1, 36720, Note_on_c, 0, 83, 66
1, 36800, Note_on_c, 0, 83, 0
1, 36800, Note_on_c, 0, 79, 62
1, 36880, Note_on_c, 0, 79, 0
1, 36880, Note_on_c, 0, 74, 55
1, 36960, Tempo, 613371
1, 36960, Note_on_c, 0, 74, 0
1, 36960, Note_on_c, 0, 86, 78
1, 36960, Note_on_c, 0, 59, 68
1, 36960, Note_on_c, 0, 55, 68
1, 36960, Note_on_c, 0, 50, 68
1, 37040, Note_on_c, 0, 79, 61
1, 37120, Note_on_c, 0, 79, 0
1, 37120, Note_on_c, 0, 83, 61
1, 37195, Note_on_c, 0, 86, 0
1, 37200, Note_on_c, 0, 50, 0
1, 37200, Note_on_c, 0, 59, 0
1, 37200, Note_on_c, 0, 55, 0
1, 37200, Note_on_c, 0, 83, 0
1, 37200, Note_on_c, 0, 86, 68
1, 37280, Note_on_c, 0, 86, 0
1, 37280, Note_on_c, 0, 83, 59
1, 37360, Note_on_c, 0, 83, 0
1, 37360, Note_on_c, 0, 79, 59
1, 37440, Tempo, 616840
1, 37440, Note_on_c, 0, 79, 0
1, 37440, Note_on_c, 0, 91, 76
1, 37440, Note_on_c, 0, 55, 82
1, 37440, Note_on_c, 0, 43, 82
1, 37520, Tempo, 609942
1, 37520, Note_on_c, 0, 83, 61
1, 37600, Note_on_c, 0, 83, 0
1, 37600, Note_on_c, 0, 86, 58
1, 37671, Note_on_c, 0, 91, 0
1, 37680, Note_on_c, 0, 55, 0
1, 37680, Note_on_c, 0, 43, 0
1, 37680, Note_on_c, 0, 86, 0
1, 37680, Note_on_c, 0, 91, 67
1, 37760, Note_on_c, 0, 91, 0
1, 37760, Note_on_c, 0, 86, 61
1, 37840, Note_on_c, 0, 86, 0
1, 37840, Note_on_c, 0, 83, 61
1, 37920, Tempo, 616840
1, 37920, Note_on_c, 0, 83, 0
1, 37920, Note_on_c, 0, 95, 78
1, 37920, Note_on_c, 0, 55, 72
1, 37920, Note_on_c, 0, 59, 72
1, 37920, Note_on_c, 0, 50, 72
1, 38000, Note_on_c, 0, 86, 58
1, 38080, Note_on_c, 0, 86, 0
1, 38080, Note_on_c, 0, 91, 58
1, 38155, Note_on_c, 0, 95, 0
1, 38160, Note_on_c, 0, 50, 0
1, 38160, Note_on_c, 0, 55, 0
1, 38160, Note_on_c, 0, 59, 0
1, 38160, Note_on_c, 0, 91, 0
1, 38160, Note_on_c, 0, 95, 67
1, 38240, Note_on_c, 0, 95, 0
1, 38240, Note_on_c, 0, 91, 54
1, 38320, Tempo, 713182
1, 38320, Note_on_c, 0, 91, 0
1, 38320, Note_on_c, 0, 86, 54
1, 38400, Tempo, 631048
1, 38400, Note_on_c, 0, 86, 0
1, 38400, Note_on_c, 0, 93, 77
1, 38400, Note_on_c, 0, 50, 85
1, 38400, Note_on_c, 0, 38, 85
1, 38400, Control_c, 0, 64, 0
1, 38453, Control_c, 0, 64, 127
1, 38478, Tempo, 627418
1, 38480, Note_on_c, 0, 86, 61
1, 38504, Tempo, 623830
1, 38560, Tempo, 609942
1, 38560, Note_on_c, 0, 86, 0
1, 38560, Note_on_c, 0, 88, 63
1, 38640, Note_on_c, 0, 88, 0
1, 38640, Note_on_c, 0, 38, 0
1, 38640, Note_on_c, 0, 50, 0
1, 38640, Note_on_c, 0, 90, 67
1, 38720, Note_on_c, 0, 90, 0
1, 38720, Note_on_c, 0, 88, 63
1, 38800, Note_on_c, 0, 88, 0
1, 38800, Note_on_c, 0, 86, 63
1, 38880, Tempo, 623118
1, 38880, Note_on_c, 0, 86, 0
1, 38880, Note_on_c, 0, 57, 71
1, 38960, Note_on_c, 0, 86, 63
1, 39040, Note_on_c, 0, 86, 0
1, 39040, Note_on_c, 0, 88, 65
1, 39120, Note_on_c, 0, 88, 0
1, 39120, Note_on_c, 0, 90, 68
1, 39200, Note_on_c, 0, 90, 0
1, 39200, Note_on_c, 0, 88, 64
1, 39280, Note_on_c, 0, 88, 0
1, 39280, Note_on_c, 0, 86, 59
1, 39360, Note_on_c, 0, 86, 0
1, 39360, Note_on_c, 0, 66, 77
1, 39440, Note_on_c, 0, 86, 57
1, 39520, Note_on_c, 0, 86, 0
1, 39520, Note_on_c, 0, 88, 61
1, 39600, Note_on_c, 0, 88, 0
1, 39600, Note_on_c, 0, 90, 62
1, 39680, Note_on_c, 0, 90, 0
1, 39680, Note_on_c, 0, 88, 59
1, 39760, Note_on_c, 0, 88, 0
1, 39760, Note_on_c, 0, 86, 58
1, 39840, Tempo, 616840
1, 39840, Note_on_c, 0, 86, 0
1, 39840, Note_on_c, 0, 66, 0
1, 39840, Note_on_c, 0, 93, 0
1, 39840, Note_on_c, 0, 93, 78
1, 39844, Note_on_c, 0, 62, 68
1, 39920, Note_on_c, 0, 86, 58
1, 40000, Note_on_c, 0, 86, 0
1, 40000, Note_on_c, 0, 88, 61
1, 40080, Note_on_c, 0, 88, 0
1, 40080, Note_on_c, 0, 90, 64
1, 40160, Note_on_c, 0, 90, 0
1, 40160, Note_on_c, 0, 88, 61
1, 40240, Note_on_c, 0, 88, 0
1, 40240, Note_on_c, 0, 86, 55
1, 40320, Tempo, 645925
1, 40320, Note_on_c, 0, 86, 0
1, 40320, Note_on_c, 0, 57, 0
1, 40320, Note_on_c, 0, 93, 0
1, 40320, Note_on_c, 0, 93, 79
1, 40320, Note_on_c, 0, 45, 81
1, 40320, Note_on_c, 0, 33, 68
1, 40320, Control_c, 0, 64, 0
1, 40324, Note_on_c, 0, 62, 0
1, 40394, Control_c, 0, 64, 127
1, 40400, Tempo, 620347
1, 40400, Note_on_c, 0, 81, 62
1, 40480, Note_on_c, 0, 81, 0
1, 40480, Note_on_c, 0, 86, 62
1, 40560, Note_on_c, 0, 86, 0
1, 40560, Note_on_c, 0, 33, 0
1, 40560, Note_on_c, 0, 45, 0
1, 40560, Note_on_c, 0, 88, 70
1, 40640, Note_on_c, 0, 88, 0
1, 40640, Note_on_c, 0, 86, 63
1, 40720, Note_on_c, 0, 86, 0
1, 40720, Note_on_c, 0, 81, 63
1, 40790, Note_on_c, 0, 93, 0
1, 40800, Tempo, 623830
1, 40800, Note_on_c, 0, 81, 0
1, 40800, Note_on_c, 0, 93, 82
1, 40800, Note_on_c, 0, 57, 57
1, 40800, Note_on_c, 0, 62, 57
1, 40800, Note_on_c, 0, 64, 68
1, 40880, Note_on_c, 0, 81, 63
1, 40960, Note_on_c, 0, 81, 0
1, 40960, Note_on_c, 0, 86, 63
1, 41040, Note_on_c, 0, 86, 0
1, 41040, Note_on_c, 0, 64, 0
1, 41040, Note_on_c, 0, 62, 0
1, 41040, Note_on_c, 0, 57, 0
1, 41040, Note_on_c, 0, 88, 72
1, 41120, Note_on_c, 0, 88, 0
1, 41120, Note_on_c, 0, 86, 63
1, 41200, Note_on_c, 0, 86, 0
1, 41200, Note_on_c, 0, 81, 63
1, 41280, Tempo, 616840
1, 41280, Note_on_c, 0, 81, 0
1, 41280, Note_on_c, 0, 93, 0
1, 41280, Note_on_c, 0, 45, 80
1, 41280, Note_on_c, 0, 33, 67
1, 41297, Control_c, 0, 64, 0
1, 41360, Note_on_c, 0, 81, 66
1, 41386, Control_c, 0, 64, 127
1, 41440, Note_on_c, 0, 81, 0
1, 41440, Note_on_c, 0, 85, 66
1, 41520, Note_on_c, 0, 85, 0
1, 41520, Note_on_c, 0, 33, 0
1, 41520, Note_on_c, 0, 45, 0
1, 41520, Note_on_c, 0, 93, 80
1, 41600, Note_on_c, 0, 85, 70
1, 41680, Note_on_c, 0, 85, 0
1, 41680, Note_on_c, 0, 81, 70
1, 41760, Tempo, 620347
1, 41760, Note_on_c, 0, 81, 0
1, 41760, Note_on_c, 0, 93, 0
1, 41760, Note_on_c, 0, 61, 67
1, 41760, Note_on_c, 0, 64, 79
1, 41760, Note_on_c, 0, 57, 67
1, 41840, Note_on_c, 0, 79, 66
1, 41920, Tempo, 631048
1, 41920, Note_on_c, 0, 79, 0
1, 41920, Note_on_c, 0, 85, 66
1, 42000, Note_on_c, 0, 85, 0
1, 42000, Note_on_c, 0, 57, 0
1, 42000, Note_on_c, 0, 64, 0
1, 42000, Note_on_c, 0, 61, 0
1, 42000, Note_on_c, 0, 91, 80
1, 42080, Note_on_c, 0, 85, 66
1, 42160, Tempo, 713182
1, 42160, Note_on_c, 0, 85, 0
1, 42160, Note_on_c, 0, 79, 66
1, 42240, Tempo, 623830
1, 42240, Note_on_c, 0, 79, 0
1, 42240, Note_on_c, 0, 91, 0
1, 42240, Note_on_c, 0, 34, 72
1, 42240, Note_on_c, 0, 46, 85
1, 42254, Tempo, 616840
1, 42257, Control_c, 0, 64, 0
1, 42320, Note_on_c, 0, 78, 72
1, 42346, Control_c, 0, 64, 127
1, 42400, Note_on_c, 0, 78, 0
1, 42400, Note_on_c, 0, 85, 72
1, 42480, Note_on_c, 0, 85, 0
1, 42480, Note_on_c, 0, 46, 0
1, 42480, Note_on_c, 0, 34, 0
1, 42480, Note_on_c, 0, 90, 87
1, 42560, Note_on_c, 0, 85, 77
1, 42640, Note_on_c, 0, 85, 0
1, 42640, Note_on_c, 0, 78, 77
1, 42720, Note_on_c, 0, 78, 0
1, 42720, Note_on_c, 0, 90, 0
1, 42720, Note_on_c, 0, 54, 63
1, 42720, Note_on_c, 0, 64, 75
1, 42734, Tempo, 616840
1, 42800, Note_on_c, 0, 85, 72
1, 42880, Note_on_c, 0, 85, 0
1, 42880, Note_on_c, 0, 90, 72
1, 42960, Note_on_c, 0, 90, 0
1, 42960, Note_on_c, 0, 97, 85
1, 43040, Note_on_c, 0, 90, 68
1, 43120, Note_on_c, 0, 90, 0
1, 43120, Note_on_c, 0, 85, 68
1, 43134, Tempo, 713182
1, 43200, Tempo, 616840
1, 43200, Note_on_c, 0, 85, 0
1, 43200, Note_on_c, 0, 97, 0
1, 43200, Note_on_c, 0, 64, 0
1, 43200, Note_on_c, 0, 54, 0
1, 43200, Note_on_c, 0, 59, 67
1, 43200, Note_on_c, 0, 62, 80
1, 43200, Control_c, 0, 64, 0
1, 43214, Tempo, 616840
1, 43237, Control_c, 0, 64, 127
1, 43280, Note_on_c, 0, 86, 75
1, 43360, Note_on_c, 0, 86, 0
1, 43360, Note_on_c, 0, 90, 82
1, 43440, Note_on_c, 0, 90, 0
1, 43440, Note_on_c, 0, 98, 86
1, 43520, Note_on_c, 0, 90, 68
1, 43600, Note_on_c, 0, 90, 0
1, 43600, Note_on_c, 0, 86, 68
1, 43614, Tempo, 713182
1, 43680, Tempo, 616840
1, 43680, Note_on_c, 0, 86, 0
1, 43680, Note_on_c, 0, 98, 0
1, 43680, Note_on_c, 0, 62, 0
1, 43680, Note_on_c, 0, 59, 0
1, 43680, Note_on_c, 0, 62, 63
1, 43680, Note_on_c, 0, 65, 75
1, 43680, Note_on_c, 0, 56, 63
1, 43692, Control_c, 0, 64, 0
1, 43694, Tempo, 616840
1, 43729, Control_c, 0, 64, 127
1, 43760, Note_on_c, 0, 86, 70
1, 43840, Note_on_c, 0, 86, 0
1, 43840, Note_on_c, 0, 89, 70
1, 43920, Note_on_c, 0, 89, 0
1, 43920, Note_on_c, 0, 95, 82
1, 44000, Note_on_c, 0, 89, 73
1, 44080, Tempo, 779221
1, 44080, Note_on_c, 0, 89, 0
1, 44080, Note_on_c, 0, 86, 78
1, 44160, Tempo, 665557
1, 44160, Note_on_c, 0, 86, 0
1, 44160, Note_on_c, 0, 95, 0
1, 44160, Note_on_c, 0, 62, 0
1, 44160, Note_on_c, 0, 65, 0
1, 44160, Note_on_c, 0, 56, 0
1, 44160, Note_on_c, 0, 93, 92
1, 44160, Note_on_c, 0, 45, 63
1, 44160, Note_on_c, 0, 57, 75
1, 44168, Control_c, 0, 64, 0
1, 44203, Control_c, 0, 64, 127
1, 44211, Tempo, 609942
1, 44236, Tempo, 609942
1, 44240, Note_on_c, 0, 93, 0
1, 44240, Note_on_c, 0, 98, 88
1, 44320, Note_on_c, 0, 98, 0
1, 44320, Note_on_c, 0, 97, 75
1, 44337, Tempo, 613371
1, 44400, Note_on_c, 0, 97, 0
1, 44400, Note_on_c, 0, 57, 0
1, 44400, Note_on_c, 0, 45, 0
1, 44400, Note_on_c, 0, 95, 84
1, 44438, Tempo, 616840
1, 44480, Note_on_c, 0, 95, 0
1, 44480, Note_on_c, 0, 93, 73
1, 44514, Tempo, 620347
1, 44539, Tempo, 620347
1, 44560, Note_on_c, 0, 93, 0
1, 44560, Note_on_c, 0, 91, 70
1, 44590, Tempo, 623830
1, 44640, Note_on_c, 0, 91, 0
1, 44640, Note_on_c, 0, 90, 85
1, 44640, Note_on_c, 0, 57, 56
1, 44640, Note_on_c, 0, 66, 68
1, 44640, Note_on_c, 0, 62, 56
1, 44716, Tempo, 616840
1, 44720, Note_on_c, 0, 90, 0
1, 44720, Note_on_c, 0, 88, 66
1, 44792, Tempo, 609942
1, 44800, Note_on_c, 0, 88, 0
1, 44800, Note_on_c, 0, 86, 66
1, 44880, Note_on_c, 0, 86, 0
1, 44880, Note_on_c, 0, 57, 0
1, 44880, Note_on_c, 0, 66, 0
1, 44880, Note_on_c, 0, 62, 0
1, 44880, Note_on_c, 0, 85, 84
1, 44893, Tempo, 613371
1, 44960, Note_on_c, 0, 85, 0
1, 44960, Note_on_c, 0, 86, 67
1, 44994, Tempo, 616840
1, 45040, Note_on_c, 0, 86, 0
1, 45040, Note_on_c, 0, 83, 67
1, 45070, Tempo, 620347
1, 45120, Tempo, 638366
1, 45120, Note_on_c, 0, 83, 0
1, 45120, Note_on_c, 0, 81, 89
1, 45120, Note_on_c, 0, 45, 61
1, 45120, Note_on_c, 0, 57, 73
1, 45134, Control_c, 0, 64, 0
1, 45187, Control_c, 0, 64, 127
1, 45196, Tempo, 616840
1, 45200, Note_on_c, 0, 81, 0
1, 45200, Note_on_c, 0, 91, 75
1, 45272, Tempo, 620347
1, 45280, Note_on_c, 0, 91, 0
1, 45280, Note_on_c, 0, 90, 67
1, 45348, Tempo, 623830
1, 45360, Note_on_c, 0, 90, 0
1, 45360, Note_on_c, 0, 57, 0
1, 45360, Note_on_c, 0, 45, 0
1, 45360, Note_on_c, 0, 88, 83
1, 45423, Tempo, 627418
1, 45440, Note_on_c, 0, 88, 0
1, 45440, Note_on_c, 0, 86, 67
1, 45499, Tempo, 631048
1, 45520, Note_on_c, 0, 86, 0
1, 45520, Note_on_c, 0, 85, 67
1, 45550, Tempo, 634719
1, 45600, Tempo, 627418
1, 45600, Note_on_c, 0, 85, 0
1, 45600, Note_on_c, 0, 83, 81
1, 45600, Note_on_c, 0, 67, 72
1, 45600, Note_on_c, 0, 61, 60
1, 45600, Note_on_c, 0, 57, 60
1, 45680, Note_on_c, 0, 83, 0
1, 45680, Note_on_c, 0, 81, 64
1, 45752, Tempo, 631048
1, 45760, Note_on_c, 0, 81, 0
1, 45760, Note_on_c, 0, 79, 62
1, 45840, Note_on_c, 0, 79, 0
1, 45840, Note_on_c, 0, 67, 0
1, 45840, Note_on_c, 0, 61, 0
1, 45840, Note_on_c, 0, 57, 0
1, 45840, Note_on_c, 0, 78, 75
1, 45903, Tempo, 634719
1, 45920, Note_on_c, 0, 78, 0
1, 45920, Note_on_c, 0, 79, 63
1, 46000, Tempo, 682128
1, 46000, Note_on_c, 0, 79, 0
1, 46000, Note_on_c, 0, 76, 63
1, 46080, Tempo, 638366
1, 46080, Note_on_c, 0, 76, 0
1, 46080, Note_on_c, 0, 74, 85
1, 46080, Note_on_c, 0, 50, 73
1, 46094, Control_c, 0, 64, 0
1, 46147, Control_c, 0, 64, 127
1, 46156, Tempo, 616840
1, 46160, Note_on_c, 0, 74, 0
1, 46160, Note_on_c, 0, 78, 67
1, 46207, Tempo, 620347
1, 46240, Note_on_c, 0, 78, 0
1, 46240, Note_on_c, 0, 81, 67
1, 46320, Note_on_c, 0, 81, 0
1, 46320, Note_on_c, 0, 50, 0
1, 46320, Note_on_c, 0, 83, 74
1, 46333, Tempo, 623830
1, 46400, Note_on_c, 0, 83, 0
1, 46400, Note_on_c, 0, 81, 62
1, 46459, Tempo, 627418
1, 46480, Note_on_c, 0, 81, 0
1, 46480, Note_on_c, 0, 78, 62
1, 46560, Note_on_c, 0, 78, 0
1, 46560, Note_on_c, 0, 74, 77
1, 46560, Note_on_c, 0, 66, 66
1, 46560, Note_on_c, 0, 62, 55
1, 46560, Note_on_c, 0, 57, 55
1, 46586, Tempo, 631048
1, 46636, Tempo, 634719
1, 46640, Note_on_c, 0, 74, 0
1, 46640, Note_on_c, 0, 78, 69
1, 46661, Tempo, 638366
1, 46687, Tempo, 642123
1, 46720, Note_on_c, 0, 78, 0
1, 46720, Note_on_c, 0, 81, 69
1, 46737, Tempo, 645925
1, 46762, Tempo, 649773
1, 46788, Tempo, 653666
1, 46800, Note_on_c, 0, 81, 0
1, 46800, Note_on_c, 0, 66, 0
1, 46800, Note_on_c, 0, 62, 0
1, 46800, Note_on_c, 0, 57, 0
1, 46800, Note_on_c, 0, 86, 81
1, 46838, Tempo, 657534
1, 46863, Tempo, 661521
1, 46880, Note_on_c, 0, 86, 0
1, 46880, Note_on_c, 0, 90, 84
1, 46889, Tempo, 665557
1, 46960, Tempo, 768246
1, 46960, Note_on_c, 0, 90, 0
1, 46960, Note_on_c, 0, 93, 88
1, 47040, Tempo, 686420
1, 47040, Note_on_c, 0, 93, 0
1, 47040, Note_on_c, 0, 98, 100
1, 47040, Note_on_c, 0, 50, 80
1, 47040, Note_on_c, 0, 38, 67
1, 47160, Note_on_c, 0, 38, 0
1, 47160, Note_on_c, 0, 50, 0
1, 47160, Note_on_c, 0, 98, 0
1, 47210, Control_c, 0, 64, 0
1, 47520, Tempo, 645925
1, 47520, Marker_t, "Teil 2 Wiederholung"
1, 47520, Note_on_c, 0, 62, 50
1, 47880, Tempo, 713182
1, 47880, Note_on_c, 0, 62, 0
1, 47880, Note_on_c, 0, 64, 42
1, 48000, Tempo, 645925
1, 48000, Note_on_c, 0, 64, 0
1, 48000, Note_on_c, 0, 66, 50
1, 48028, Control_c, 0, 64, 127
1, 48080, Note_on_c, 0, 71, 38
1, 48120, Tempo, 627418
1, 48160, Note_on_c, 0, 71, 0
1, 48160, Note_on_c, 0, 73, 38
1, 48240, Note_on_c, 0, 73, 0
1, 48240, Note_on_c, 0, 74, 47
1, 48320, Note_on_c, 0, 74, 0
1, 48320, Note_on_c, 0, 73, 38
1, 48400, Note_on_c, 0, 73, 0
1, 48400, Note_on_c, 0, 71, 38
1, 48480, Tempo, 623830
1, 48480, Note_on_c, 0, 71, 0
1, 48480, Note_on_c, 0, 66, 0
1, 48480, Note_on_c, 0, 59, 50
1, 48489, Control_c, 0, 64, 0
1, 48544, Control_c, 0, 64, 127
1, 48560, Note_on_c, 0, 74, 37
1, 48640, Note_on_c, 0, 74, 0
1, 48640, Note_on_c, 0, 76, 37
1, 48720, Note_on_c, 0, 76, 0
1, 48720, Note_on_c, 0, 78, 49
1, 48800, Note_on_c, 0, 78, 0
1, 48800, Note_on_c, 0, 76, 41
1, 48880, Tempo, 708634
1, 48880, Note_on_c, 0, 76, 0
1, 48880, Note_on_c, 0, 74, 41
1, 48960, Tempo, 623830
1, 48960, Note_on_c, 0, 74, 0
1, 48960, Note_on_c, 0, 59, 0
1, 48960, Note_on_c, 0, 61, 50
1, 48960, Control_c, 0, 64, 0
1, 49010, Control_c, 0, 64, 127
1, 49040, Note_on_c, 0, 70, 45
1, 49120, Note_on_c, 0, 70, 0
1, 49120, Note_on_c, 0, 78, 46
1, 49200, Note_on_c, 0, 78, 0
1, 49200, Note_on_c, 0, 61, 0
1, 49200, Note_on_c, 0, 62, 48
1, 49208, Control_c, 0, 64, 0
1, 49253, Control_c, 0, 64, 127
1, 49280, Note_on_c, 0, 71, 45
1, 49360, Note_on_c, 0, 71, 0
1, 49360, Note_on_c, 0, 78, 46
1, 49440, Tempo, 616840
1, 49440, Note_on_c, 0, 78, 0
1, 49440, Note_on_c, 0, 62, 0
1, 49440, Note_on_c, 0, 64, 61
1, 49450, Control_c, 0, 64, 0
1, 49490, Control_c, 0, 64, 127
1, 49520, Note_on_c, 0, 73, 51
1, 49600, Note_on_c, 0, 73, 0
1, 49600, Note_on_c, 0, 78, 52
1, 49680, Note_on_c, 0, 78, 0
1, 49680, Note_on_c, 0, 64, 0
1, 49680, Note_on_c, 0, 67, 62
1, 49695, Control_c, 0, 64, 0
1, 49740, Control_c, 0, 64, 127
1, 49760, Note_on_c, 0, 76, 50
1, 49840, Tempo, 677890
1, 49840, Note_on_c, 0, 76, 0
1, 49840, Note_on_c, 0, 78, 51
1, 49920, Tempo, 631048
1, 49920, Note_on_c, 0, 78, 0
1, 49920, Note_on_c, 0, 67, 0
1, 49920, Note_on_c, 0, 66, 67
1, 49938, Control_c, 0, 64, 0
1, 49956, Control_c, 0, 64, 127
1, 50000, Note_on_c, 0, 74, 57
1, 50080, Note_on_c, 0, 74, 0
1, 50080, Note_on_c, 0, 78, 62
1, 50160, Tempo, 620347
1, 50160, Note_on_c, 0, 78, 0
1, 50160, Note_on_c, 0, 83, 66
1, 50240, Note_on_c, 0, 83, 0
1, 50240, Note_on_c, 0, 78, 56
1, 50320, Note_on_c, 0, 78, 0
1, 50320, Note_on_c, 0, 74, 56
1, 50400, Tempo, 634719
1, 50400, Note_on_c, 0, 74, 0
1, 50400, Note_on_c, 0, 66, 0
1, 50400, Note_on_c, 0, 62, 64
1, 50480, Note_on_c, 0, 74, 52
1, 50560, Note_on_c, 0, 74, 0
1, 50560, Note_on_c, 0, 78, 58
1, 50640, Tempo, 616840
1, 50640, Note_on_c, 0, 78, 0
1, 50640, Note_on_c, 0, 83, 63
1, 50720, Note_on_c, 0, 83, 0
1, 50720, Note_on_c, 0, 78, 56
1, 50800, Note_on_c, 0, 78, 0
1, 50800, Note_on_c, 0, 74, 56
1, 50880, Tempo, 627418
1, 50880, Note_on_c, 0, 74, 0
1, 50880, Note_on_c, 0, 62, 0
1, 50880, Note_on_c, 0, 59, 68
1, 50960, Note_on_c, 0, 71, 50
1, 51040, Tempo, 616840
1, 51040, Note_on_c, 0, 71, 0
1, 51040, Note_on_c, 0, 74, 55
1, 51120, Note_on_c, 0, 74, 0
1, 51120, Note_on_c, 0, 83, 63
1, 51200, Note_on_c, 0, 83, 0
1, 51200, Note_on_c, 0, 74, 51
1, 51280, Note_on_c, 0, 74, 0
1, 51280, Note_on_c, 0, 71, 51
1, 51360, Tempo, 634719
1, 51360, Note_on_c, 0, 71, 0
1, 51360, Note_on_c, 0, 59, 0
1, 51360, Note_on_c, 0, 57, 69
1, 51440, Note_on_c, 0, 71, 55
1, 51520, Note_on_c, 0, 71, 0
1, 51520, Note_on_c, 0, 74, 55
1, 51600, Tempo, 620347
1, 51600, Note_on_c, 0, 74, 0
1, 51600, Note_on_c, 0, 83, 63
1, 51680, Note_on_c, 0, 83, 0
1, 51680, Note_on_c, 0, 74, 62
1, 51760, Tempo, 695088
1, 51760, Note_on_c, 0, 74, 0
1, 51760, Note_on_c, 0, 71, 68
1, 51840, Tempo, 616840
1, 51840, Note_on_c, 0, 71, 0
1, 51840, Note_on_c, 0, 57, 0
1, 51840, Note_on_c, 0, 83, 77
1, 51840, Note_on_c, 0, 43, 86
1, 51840, Note_on_c, 0, 55, 86
1, 51840, Control_c, 0, 64, 0
1, 51914, Control_c, 0, 64, 127
1, 51920, Tempo, 620347
1, 51920, Note_on_c, 0, 74, 61
1, 52000, Note_on_c, 0, 74, 0
1, 52000, Note_on_c, 0, 79, 61
1, 52074, Note_on_c, 0, 83, 0
1, 52080, Note_on_c, 0, 43, 0
1, 52080, Note_on_c, 0, 55, 0
1, 52080, Note_on_c, 0, 79, 0
1, 52080, Note_on_c, 0, 83, 66
1, 52160, Note_on_c, 0, 83, 0
1, 52160, Note_on_c, 0, 79, 62
1, 52240, Note_on_c, 0, 79, 0
1, 52240, Note_on_c, 0, 74, 55
1, 52320, Tempo, 613371
1, 52320, Note_on_c, 0, 74, 0
1, 52320, Note_on_c, 0, 86, 78
1, 52320, Note_on_c, 0, 59, 68
1, 52320, Note_on_c, 0, 55, 68
1, 52320, Note_on_c, 0, 50, 68
1, 52400, Note_on_c, 0, 79, 61
1, 52480, Note_on_c, 0, 79, 0
1, 52480, Note_on_c, 0, 83, 61
1, 52555, Note_on_c, 0, 86, 0
1, 52560, Note_on_c, 0, 50, 0
1, 52560, Note_on_c, 0, 59, 0
1, 52560, Note_on_c, 0, 55, 0
1, 52560, Note_on_c, 0, 83, 0
1, 52560, Note_on_c, 0, 86, 68
1, 52640, Note_on_c, 0, 86, 0
1, 52640, Note_on_c, 0, 83, 59
1, 52720, Note_on_c, 0, 83, 0
1, 52720, Note_on_c, 0, 79, 59
1, 52800, Tempo, 616840
1, 52800, Note_on_c, 0, 79, 0
1, 52800, Note_on_c, 0, 91, 76
1, 52800, Note_on_c, 0, 55, 82
1, 52800, Note_on_c, 0, 43, 82
1, 52880, Tempo, 609942
1, 52880, Note_on_c, 0, 83, 61
1, 52960, Note_on_c, 0, 83, 0
1, 52960, Note_on_c, 0, 86, 58
1, 53031, Note_on_c, 0, 91, 0
1, 53040, Note_on_c, 0, 55, 0
1, 53040, Note_on_c, 0, 43, 0
1, 53040, Note_on_c, 0, 86, 0
1, 53040, Note_on_c, 0, 91, 67
1, 53120, Note_on_c, 0, 91, 0
1, 53120, Note_on_c, 0, 86, 61
1, 53200, Note_on_c, 0, 86, 0
1, 53200, Note_on_c, 0, 83, 61
1, 53280, Tempo, 616840
1, 53280, Note_on_c, 0, 83, 0
1, 53280, Note_on_c, 0, 95, 78
1, 53280, Note_on_c, 0, 55, 72
1, 53280, Note_on_c, 0, 59, 72
1, 53280, Note_on_c, 0, 50, 72
1, 53360, Note_on_c, 0, 86, 58
1, 53440, Note_on_c, 0, 86, 0
1, 53440, Note_on_c, 0, 91, 58
1, 53515, Note_on_c, 0, 95, 0
1, 53520, Note_on_c, 0, 50, 0
1, 53520, Note_on_c, 0, 55, 0
1, 53520, Note_on_c, 0, 59, 0
1, 53520, Note_on_c, 0, 91, 0
1, 53520, Note_on_c, 0, 95, 67
1, 53600, Note_on_c, 0, 95, 0
1, 53600, Note_on_c, 0, 91, 54
1, 53680, Tempo, 713182
1, 53680, Note_on_c, 0, 91, 0
1, 53680, Note_on_c, 0, 86, 54
1, 53760, Tempo, 631048
1, 53760, Note_on_c, 0, 86, 0
1, 53760, Note_on_c, 0, 93, 77
1, 53760, Note_on_c, 0, 50, 85
1, 53760, Note_on_c, 0, 38, 85
1, 53760, Control_c, 0, 64, 0
1, 53813, Control_c, 0, 64, 127
1, 53838, Tempo, 627418
1, 53840, Note_on_c, 0, 86, 61
1, 53864, Tempo, 623830
1, 53920, Tempo, 609942
1, 53920, Note_on_c, 0, 86, 0
1, 53920, Note_on_c, 0, 88, 63
1, 54000, Note_on_c, 0, 88, 0
1, 54000, Note_on_c, 0, 38, 0
1, 54000, Note_on_c, 0, 50, 0
1, 54000, Note_on_c, 0, 90, 67
1, 54080, Note_on_c, 0, 90, 0
1, 54080, Note_on_c, 0, 88, 63
1, 54160, Note_on_c, 0, 88, 0
1, 54160, Note_on_c, 0, 86, 63
1, 54240, Tempo, 629657
1, 54240, Note_on_c, 0, 86, 0
1, 54240, Note_on_c, 0, 57, 71
1, 54320, Note_on_c, 0, 86, 63
1, 54400, Note_on_c, 0, 86, 0
1, 54400, Note_on_c, 0, 88, 65
1, 54480, Note_on_c, 0, 88, 0
1, 54480, Note_on_c, 0, 90, 68
1, 54560, Note_on_c, 0, 90, 0
1, 54560, Note_on_c, 0, 88, 64
1, 54640, Tempo, 616713
1, 54640, Note_on_c, 0, 88, 0
1, 54640, Note_on_c, 0, 86, 59
1, 54720, Note_on_c, 0, 86, 0
1, 54720, Note_on_c, 0, 66, 77
1, 54800, Note_on_c, 0, 86, 57
1, 54880, Note_on_c, 0, 86, 0
1, 54880, Note_on_c, 0, 88, 61
1, 54960, Note_on_c, 0, 88, 0
1, 54960, Note_on_c, 0, 90, 62
1, 55040, Note_on_c, 0, 90, 0
1, 55040, Note_on_c, 0, 88, 59
1, 55120, Note_on_c, 0, 88, 0
1, 55120, Note_on_c, 0, 86, 58
1, 55200, Tempo, 626370
1, 55200, Note_on_c, 0, 86, 0
1, 55200, Note_on_c, 0, 66, 0
1, 55200, Note_on_c, 0, 93, 0
1, 55200, Note_on_c, 0, 93, 78
1, 55204, Note_on_c, 0, 62, 68
1, 55280, Note_on_c, 0, 86, 58
1, 55360, Note_on_c, 0, 86, 0
1, 55360, Note_on_c, 0, 88, 61
1, 55440, Note_on_c, 0, 88, 0
1, 55440, Note_on_c, 0, 90, 64
1, 55520, Note_on_c, 0, 90, 0
1, 55520, Note_on_c, 0, 88, 61
1, 55600, Note_on_c, 0, 88, 0
1, 55600, Note_on_c, 0, 86, 55
1, 55680, Tempo, 645925
1, 55680, Note_on_c, 0, 86, 0
1, 55680, Note_on_c, 0, 57, 0
1, 55680, Note_on_c, 0, 93, 0
1, 55680, Note_on_c, 0, 93, 79
1, 55680, Note_on_c, 0, 45, 81
1, 55680, Note_on_c, 0, 33, 68
1, 55680, Control_c, 0, 64, 0
1, 55684, Note_on_c, 0, 62, 0
1, 55754, Control_c, 0, 64, 127
1, 55760, Tempo, 620347
1, 55760, Note_on_c, 0, 81, 62
1, 55840, Note_on_c, 0, 81, 0
1, 55840, Note_on_c, 0, 86, 62
1, 55920, Note_on_c, 0, 86, 0
1, 55920, Note_on_c, 0, 33, 0
1, 55920, Note_on_c, 0, 45, 0
1, 55920, Note_on_c, 0, 88, 70
1, 56000, Note_on_c, 0, 88, 0
1, 56000, Note_on_c, 0, 86, 63
1, 56080, Note_on_c, 0, 86, 0
1, 56080, Note_on_c, 0, 81, 63
1, 56150, Note_on_c, 0, 93, 0
1, 56160, Tempo, 623830
1, 56160, Note_on_c, 0, 81, 0
1, 56160, Note_on_c, 0, 93, 82
1, 56160, Note_on_c, 0, 57, 57
1, 56160, Note_on_c, 0, 62, 57
1, 56160, Note_on_c, 0, 64, 68
1, 56240, Note_on_c, 0, 81, 63
1, 56320, Note_on_c, 0, 81, 0
1, 56320, Note_on_c, 0, 86, 63
1, 56400, Note_on_c, 0, 86, 0
1, 56400, Note_on_c, 0, 64, 0
1, 56400, Note_on_c, 0, 62, 0
1, 56400, Note_on_c, 0, 57, 0
1, 56400, Note_on_c, 0, 88, 72
1, 56480, Note_on_c, 0, 88, 0
1, 56480, Note_on_c, 0, 86, 63
1, 56560, Note_on_c, 0, 86, 0
1, 56560, Note_on_c, 0, 81, 63
1, 56640, Tempo, 616840
1, 56640, Note_on_c, 0, 81, 0
1, 56640, Note_on_c, 0, 93, 0
1, 56640, Note_on_c, 0, 45, 80
1, 56640, Note_on_c, 0, 33, 67
1, 56657, Control_c, 0, 64, 0
1, 56720, Note_on_c, 0, 81, 66
1, 56746, Control_c, 0, 64, 127
1, 56800, Note_on_c, 0, 81, 0
1, 56800, Note_on_c, 0, 85, 66
1, 56880, Note_on_c, 0, 85, 0
1, 56880, Note_on_c, 0, 33, 0
1, 56880, Note_on_c, 0, 45, 0
1, 56880, Note_on_c, 0, 93, 80
1, 56960, Note_on_c, 0, 85, 70
1, 57040, Note_on_c, 0, 85, 0
1, 57040, Note_on_c, 0, 81, 70
1, 57120, Tempo, 620347
1, 57120, Note_on_c, 0, 81, 0
1, 57120, Note_on_c, 0, 93, 0
1, 57120, Note_on_c, 0, 61, 67
1, 57120, Note_on_c, 0, 64, 79
1, 57120, Note_on_c, 0, 57, 67
1, 57200, Note_on_c, 0, 79, 66
1, 57280, Tempo, 646621
1, 57280, Note_on_c, 0, 79, 0
1, 57280, Note_on_c, 0, 85, 66
1, 57360, Note_on_c, 0, 85, 0
1, 57360, Note_on_c, 0, 57, 0
1, 57360, Note_on_c, 0, 64, 0
1, 57360, Note_on_c, 0, 61, 0
1, 57360, Note_on_c, 0, 91, 80
1, 57440, Note_on_c, 0, 85, 66
1, 57520, Tempo, 713182
1, 57520, Note_on_c, 0, 85, 0
1, 57520, Note_on_c, 0, 79, 66
1, 57600, Tempo, 623830
1, 57600, Note_on_c, 0, 79, 0
1, 57600, Note_on_c, 0, 91, 0
1, 57600, Note_on_c, 0, 34, 72
1, 57600, Note_on_c, 0, 46, 85
1, 57614, Tempo, 616840
1, 57617, Control_c, 0, 64, 0
1, 57680, Note_on_c, 0, 78, 72
1, 57706, Control_c, 0, 64, 127
1, 57760, Note_on_c, 0, 78, 0
1, 57760, Note_on_c, 0, 85, 72
1, 57840, Note_on_c, 0, 85, 0
1, 57840, Note_on_c, 0, 46, 0
1, 57840, Note_on_c, 0, 34, 0
1, 57840, Note_on_c, 0, 90, 90
1, 57920, Note_on_c, 0, 85, 77
1, 58000, Note_on_c, 0, 85, 0
1, 58000, Note_on_c, 0, 78, 77
1, 58080, Note_on_c, 0, 78, 0
1, 58080, Note_on_c, 0, 90, 0
1, 58080, Note_on_c, 0, 54, 63
1, 58080, Note_on_c, 0, 64, 75
1, 58094, Tempo, 616840
1, 58160, Note_on_c, 0, 85, 72
1, 58240, Note_on_c, 0, 85, 0
1, 58240, Note_on_c, 0, 90, 72
1, 58320, Note_on_c, 0, 90, 0
1, 58320, Note_on_c, 0, 97, 85
1, 58400, Note_on_c, 0, 90, 68
1, 58480, Note_on_c, 0, 90, 0
1, 58480, Note_on_c, 0, 85, 68
1, 58494, Tempo, 713182
1, 58560, Tempo, 616840
1, 58560, Note_on_c, 0, 85, 0
1, 58560, Note_on_c, 0, 97, 0
1, 58560, Note_on_c, 0, 64, 0
1, 58560, Note_on_c, 0, 54, 0
1, 58560, Note_on_c, 0, 59, 67
1, 58560, Note_on_c, 0, 62, 80
1, 58560, Control_c, 0, 64, 0
1, 58574, Tempo, 616840
1, 58597, Control_c, 0, 64, 127
1, 58640, Note_on_c, 0, 86, 75
1, 58720, Note_on_c, 0, 86, 0
1, 58720, Note_on_c, 0, 90, 82
1, 58800, Note_on_c, 0, 90, 0
1, 58800, Note_on_c, 0, 98, 86
1, 58880, Note_on_c, 0, 90, 68
1, 58960, Note_on_c, 0, 90, 0
1, 58960, Note_on_c, 0, 86, 68
1, 58974, Tempo, 713182
1, 59040, Tempo, 616840
1, 59040, Note_on_c, 0, 86, 0
1, 59040, Note_on_c, 0, 98, 0
1, 59040, Note_on_c, 0, 62, 0
1, 59040, Note_on_c, 0, 59, 0
1, 59040, Note_on_c, 0, 62, 63
1, 59040, Note_on_c, 0, 65, 75
1, 59040, Note_on_c, 0, 56, 63
1, 59052, Control_c, 0, 64, 0
1, 59054, Tempo, 616840
1, 59089, Control_c, 0, 64, 127
1, 59120, Note_on_c, 0, 86, 70
1, 59200, Note_on_c, 0, 86, 0
1, 59200, Note_on_c, 0, 89, 70
1, 59280, Note_on_c, 0, 89, 0
1, 59280, Note_on_c, 0, 95, 82
1, 59360, Note_on_c, 0, 89, 73
1, 59440, Tempo, 779221
1, 59440, Note_on_c, 0, 89, 0
1, 59440, Note_on_c, 0, 86, 78
1, 59520, Tempo, 665557
1, 59520, Note_on_c, 0, 86, 0
1, 59520, Note_on_c, 0, 95, 0
1, 59520, Note_on_c, 0, 62, 0
1, 59520, Note_on_c, 0, 65, 0
1, 59520, Note_on_c, 0, 56, 0
1, 59520, Note_on_c, 0, 93, 92
1, 59520, Note_on_c, 0, 45, 63
1, 59520, Note_on_c, 0, 57, 75
1, 59528, Control_c, 0, 64, 0
1, 59563, Control_c, 0, 64, 127
1, 59571, Tempo, 609942
1, 59596, Tempo, 609942
1, 59600, Note_on_c, 0, 93, 0
1, 59600, Note_on_c, 0, 98, 88
1, 59680, Note_on_c, 0, 98, 0
1, 59680, Note_on_c, 0, 97, 75
1, 59697, Tempo, 613371
1, 59760, Note_on_c, 0, 97, 0
1, 59760, Note_on_c, 0, 57, 0
1, 59760, Note_on_c, 0, 45, 0
1, 59760, Note_on_c, 0, 95, 84
1, 59798, Tempo, 616840
1, 59840, Note_on_c, 0, 95, 0
1, 59840, Note_on_c, 0, 93, 73
1, 59874, Tempo, 620347
1, 59899, Tempo, 620347
1, 59920, Note_on_c, 0, 93, 0
1, 59920, Note_on_c, 0, 91, 70
1, 59950, Tempo, 623830
1, 60000, Note_on_c, 0, 91, 0
1, 60000, Note_on_c, 0, 90, 80
1, 60000, Note_on_c, 0, 57, 56
1, 60000, Note_on_c, 0, 66, 68
1, 60000, Note_on_c, 0, 62, 56
1, 60076, Tempo, 616840
1, 60080, Note_on_c, 0, 90, 0
1, 60080, Note_on_c, 0, 88, 66
1, 60152, Tempo, 609942
1, 60160, Note_on_c, 0, 88, 0
1, 60160, Note_on_c, 0, 86, 66
1, 60240, Note_on_c, 0, 86, 0
1, 60240, Note_on_c, 0, 57, 0
1, 60240, Note_on_c, 0, 66, 0
1, 60240, Note_on_c, 0, 62, 0
1, 60240, Note_on_c, 0, 85, 79
1, 60253, Tempo, 613371
1, 60320, Note_on_c, 0, 85, 0
1, 60320, Note_on_c, 0, 86, 67
1, 60354, Tempo, 616840
1, 60400, Note_on_c, 0, 86, 0
1, 60400, Note_on_c, 0, 83, 67
1, 60430, Tempo, 620347
1, 60480, Tempo, 638366
1, 60480, Note_on_c, 0, 83, 0
1, 60480, Note_on_c, 0, 81, 89
1, 60480, Note_on_c, 0, 45, 61
1, 60480, Note_on_c, 0, 57, 73
1, 60494, Control_c, 0, 64, 0
1, 60547, Control_c, 0, 64, 127
1, 60556, Tempo, 616840
1, 60560, Note_on_c, 0, 81, 0
1, 60560, Note_on_c, 0, 91, 75
1, 60632, Tempo, 620347
1, 60640, Note_on_c, 0, 91, 0
1, 60640, Note_on_c, 0, 90, 67
1, 60708, Tempo, 623830
1, 60720, Note_on_c, 0, 90, 0
1, 60720, Note_on_c, 0, 57, 0
1, 60720, Note_on_c, 0, 45, 0
1, 60720, Note_on_c, 0, 88, 85
1, 60783, Tempo, 627418
1, 60800, Note_on_c, 0, 88, 0
1, 60800, Note_on_c, 0, 86, 67
1, 60859, Tempo, 631048
1, 60880, Note_on_c, 0, 86, 0
1, 60880, Note_on_c, 0, 85, 67
1, 60910, Tempo, 634719
1, 60960, Tempo, 627418
1, 60960, Note_on_c, 0, 85, 0
1, 60960, Note_on_c, 0, 83, 76
1, 60960, Note_on_c, 0, 67, 72
1, 60960, Note_on_c, 0, 61, 60
1, 60960, Note_on_c, 0, 57, 60
1, 61040, Note_on_c, 0, 83, 0
1, 61040, Note_on_c, 0, 81, 59
1, 61112, Tempo, 631048
1, 61120, Note_on_c, 0, 81, 0
1, 61120, Note_on_c, 0, 79, 57
1, 61200, Note_on_c, 0, 79, 0
1, 61200, Note_on_c, 0, 67, 0
1, 61200, Note_on_c, 0, 61, 0
1, 61200, Note_on_c, 0, 57, 0
1, 61200, Note_on_c, 0, 78, 69
1, 61263, Tempo, 634719
1, 61280, Note_on_c, 0, 78, 0
1, 61280, Note_on_c, 0, 79, 58
1, 61360, Tempo, 682128
1, 61360, Note_on_c, 0, 79, 0
1, 61360, Note_on_c, 0, 76, 58
1, 61440, Tempo, 638366
1, 61440, Marker_t, "Teil 3"
1, 61440, Note_on_c, 0, 76, 0
1, 61440, Note_on_c, 0, 74, 78
1, 61440, Note_on_c, 0, 50, 45
1, 61454, Control_c, 0, 64, 0
1, 61507, Control_c, 0, 64, 127
1, 61516, Tempo, 616840
1, 61520, Note_on_c, 0, 74, 0
1, 61520, Note_on_c, 0, 78, 61
1, 61567, Tempo, 620347
1, 61600, Note_on_c, 0, 78, 0
1, 61600, Note_on_c, 0, 81, 61
1, 61680, Note_on_c, 0, 81, 0
1, 61680, Note_on_c, 0, 50, 0
1, 61680, Note_on_c, 0, 83, 68
1, 61693, Tempo, 623830
1, 61760, Note_on_c, 0, 83, 0
1, 61760, Note_on_c, 0, 81, 57
1, 61819, Tempo, 627418
1, 61840, Note_on_c, 0, 81, 0
1, 61840, Note_on_c, 0, 78, 49
1, 61920, Tempo, 638366
1, 61920, Note_on_c, 0, 78, 0
1, 61920, Note_on_c, 0, 74, 64
1, 61920, Note_on_c, 0, 57, 28
1, 61920, Note_on_c, 0, 62, 28
1, 61920, Note_on_c, 0, 66, 34
1, 61996, Tempo, 616840
1, 62000, Note_on_c, 0, 74, 0
1, 62000, Note_on_c, 0, 78, 49
1, 62047, Tempo, 620347
1, 62080, Note_on_c, 0, 78, 0
1, 62080, Note_on_c, 0, 81, 49
1, 62160, Note_on_c, 0, 81, 0
1, 62160, Note_on_c, 0, 57, 0
1, 62160, Note_on_c, 0, 62, 0
1, 62160, Note_on_c, 0, 66, 0
1, 62160, Note_on_c, 0, 83, 59
1, 62173, Tempo, 623830
1, 62240, Note_on_c, 0, 83, 0
1, 62240, Note_on_c, 0, 81, 47
1, 62299, Tempo, 627418
1, 62320, Note_on_c, 0, 81, 0
1, 62320, Note_on_c, 0, 78, 47
1, 62400, Tempo, 638366
1, 62400, Note_on_c, 0, 78, 0
1, 62400, Note_on_c, 0, 74, 59
1, 62400, Note_on_c, 0, 50, 45
1, 62414, Control_c, 0, 64, 0
1, 62467, Control_c, 0, 64, 127
1, 62476, Tempo, 616840
1, 62480, Note_on_c, 0, 74, 0
1, 62480, Note_on_c, 0, 81, 50
1, 62527, Tempo, 620347
1, 62560, Note_on_c, 0, 81, 0
1, 62560, Note_on_c, 0, 84, 49
1, 62640, Note_on_c, 0, 84, 0
1, 62640, Note_on_c, 0, 50, 0
1, 62640, Note_on_c, 0, 86, 56
1, 62653, Tempo, 623830
1, 62720, Note_on_c, 0, 86, 0
1, 62720, Note_on_c, 0, 84, 45
1, 62779, Tempo, 627418
1, 62800, Note_on_c, 0, 84, 0
1, 62800, Note_on_c, 0, 81, 45
1, 62880, Tempo, 638366
1, 62880, Note_on_c, 0, 81, 0
1, 62880, Note_on_c, 0, 74, 54
1, 62880, Note_on_c, 0, 72, 38
1, 62880, Note_on_c, 0, 69, 32
1, 62880, Note_on_c, 0, 62, 32
1, 62956, Tempo, 616840
1, 62960, Note_on_c, 0, 74, 0
1, 62960, Note_on_c, 0, 81, 42
1, 63007, Tempo, 620347
1, 63040, Note_on_c, 0, 81, 0
1, 63040, Note_on_c, 0, 84, 42
1, 63120, Note_on_c, 0, 84, 0
1, 63120, Note_on_c, 0, 72, 0
1, 63120, Note_on_c, 0, 69, 0
1, 63120, Note_on_c, 0, 62, 0
1, 63120, Note_on_c, 0, 86, 56
1, 63133, Tempo, 623830
1, 63200, Note_on_c, 0, 86, 0
1, 63200, Note_on_c, 0, 84, 45
1, 63259, Tempo, 627418
1, 63280, Note_on_c, 0, 84, 0
1, 63280, Note_on_c, 0, 81, 45
1, 63360, Tempo, 638366
1, 63360, Note_on_c, 0, 81, 0
1, 63360, Note_on_c, 0, 74, 63
1, 63360, Note_on_c, 0, 50, 45
1, 63374, Control_c, 0, 64, 0
1, 63427, Control_c, 0, 64, 127
1, 63436, Tempo, 616840
1, 63440, Note_on_c, 0, 74, 0
1, 63440, Note_on_c, 0, 79, 58
1, 63487, Tempo, 620347
1, 63520, Note_on_c, 0, 79, 0
1, 63520, Note_on_c, 0, 83, 61
1, 63600, Note_on_c, 0, 83, 0
1, 63600, Note_on_c, 0, 50, 0
1, 63600, Note_on_c, 0, 86, 72
1, 63613, Tempo, 623830
1, 63680, Note_on_c, 0, 86, 0
1, 63680, Note_on_c, 0, 91, 69
1, 63739, Tempo, 627418
1, 63760, Note_on_c, 0, 91, 0
1, 63760, Note_on_c, 0, 95, 76
1, 63840, Tempo, 638366
1, 63840, Note_on_c, 0, 95, 0
1, 63840, Note_on_c, 0, 98, 86
1, 63840, Note_on_c, 0, 62, 35
1, 63840, Note_on_c, 0, 67, 35
1, 63840, Note_on_c, 0, 71, 42
1, 63916, Tempo, 616840
1, 63920, Note_on_c, 0, 98, 0
1, 63920, Note_on_c, 0, 95, 69
1, 63967, Tempo, 620347
1, 64000, Note_on_c, 0, 95, 0
1, 64000, Note_on_c, 0, 91, 64
1, 64080, Note_on_c, 0, 91, 0
1, 64080, Note_on_c, 0, 62, 0
1, 64080, Note_on_c, 0, 67, 0
1, 64080, Note_on_c, 0, 71, 0
1, 64080, Note_on_c, 0, 86, 69
1, 64093, Tempo, 623830
1, 64160, Note_on_c, 0, 86, 0
1, 64160, Note_on_c, 0, 83, 59
1, 64219, Tempo, 627418
1, 64240, Note_on_c, 0, 83, 0
1, 64240, Note_on_c, 0, 79, 56
1, 64320, Tempo, 638366
1, 64320, Note_on_c, 0, 79, 0
1, 64320, Note_on_c, 0, 74, 59
1, 64320, Note_on_c, 0, 50, 45
1, 64334, Control_c, 0, 64, 0
1, 64387, Control_c, 0, 64, 127
1, 64396, Tempo, 616840
1, 64400, Note_on_c, 0, 74, 0
1, 64400, Note_on_c, 0, 79, 50
1, 64447, Tempo, 620347
1, 64480, Note_on_c, 0, 79, 0
1, 64480, Note_on_c, 0, 81, 49
1, 64560, Note_on_c, 0, 81, 0
1, 64560, Note_on_c, 0, 50, 0
1, 64560, Note_on_c, 0, 82, 56
1, 64573, Tempo, 623830
1, 64640, Note_on_c, 0, 82, 0
1, 64640, Note_on_c, 0, 81, 45
1, 64699, Tempo, 627418
1, 64720, Note_on_c, 0, 81, 0
1, 64720, Note_on_c, 0, 79, 45
1, 64800, Tempo, 638366
1, 64800, Note_on_c, 0, 79, 0
1, 64800, Note_on_c, 0, 74, 54
1, 64800, Note_on_c, 0, 70, 38
1, 64800, Note_on_c, 0, 67, 32
1, 64800, Note_on_c, 0, 62, 32
1, 64876, Tempo, 616840
1, 64880, Note_on_c, 0, 74, 0
1, 64880, Note_on_c, 0, 79, 42
1, 64927, Tempo, 620347
1, 64960, Note_on_c, 0, 79, 0
1, 64960, Note_on_c, 0, 81, 42
1, 65040, Note_on_c, 0, 81, 0
1, 65040, Note_on_c, 0, 70, 0
1, 65040, Note_on_c, 0, 67, 0
1, 65040, Note_on_c, 0, 62, 0
1, 65040, Note_on_c, 0, 82, 56
1, 65053, Tempo, 623830
1, 65120, Note_on_c, 0, 82, 0
1, 65120, Note_on_c, 0, 81, 45
1, 65179, Tempo, 627418
1, 65200, Note_on_c, 0, 81, 0
1, 65200, Note_on_c, 0, 79, 45
1, 65280, Tempo, 638366
1, 65280, Note_on_c, 0, 79, 0
1, 65280, Note_on_c, 0, 74, 63
1, 65280, Note_on_c, 0, 50, 45
1, 65294, Control_c, 0, 64, 0
1, 65347, Control_c, 0, 64, 127
1, 65356, Tempo, 616840
1, 65360, Note_on_c, 0, 74, 0
1, 65360, Note_on_c, 0, 78, 58
1, 65407, Tempo, 620347
1, 65440, Note_on_c, 0, 78, 0
1, 65440, Note_on_c, 0, 81, 61
1, 65520, Note_on_c, 0, 81, 0
1, 65520, Note_on_c, 0, 50, 0
1, 65520, Note_on_c, 0, 86, 72
1, 65533, Tempo, 623830
1, 65600, Note_on_c, 0, 86, 0
1, 65600, Note_on_c, 0, 90, 69
1, 65659, Tempo, 627418
1, 65680, Note_on_c, 0, 90, 0
1, 65680, Note_on_c, 0, 93, 76
1, 65760, Tempo, 638366
1, 65760, Note_on_c, 0, 93, 0
1, 65760, Note_on_c, 0, 98, 87
1, 65760, Note_on_c, 0, 62, 35
1, 65760, Note_on_c, 0, 66, 35
1, 65760, Note_on_c, 0, 69, 42
1, 65836, Tempo, 616840
1, 65840, Note_on_c, 0, 98, 0
1, 65840, Note_on_c, 0, 93, 71
1, 65887, Tempo, 620347
1, 65920, Note_on_c, 0, 93, 0
1, 65920, Note_on_c, 0, 90, 69
1, 66000, Note_on_c, 0, 90, 0
1, 66000, Note_on_c, 0, 62, 0
1, 66000, Note_on_c, 0, 66, 0
1, 66000, Note_on_c, 0, 69, 0
1, 66000, Note_on_c, 0, 86, 72
1, 66013, Tempo, 623830
1, 66080, Note_on_c, 0, 86, 0
1, 66080, Note_on_c, 0, 81, 52
1, 66139, Tempo, 627418
1, 66160, Note_on_c, 0, 81, 0
1, 66160, Note_on_c, 0, 78, 50
1, 66240, Tempo, 638366
1, 66240, Note_on_c, 0, 78, 0
1, 66240, Note_on_c, 0, 74, 51
1, 66240, Note_on_c, 0, 50, 40
1, 66247, Tempo, 638366
1, 66254, Control_c, 0, 64, 0
1, 66297, Tempo, 634719
1, 66300, Note_on_c, 0, 74, 0
1, 66307, Control_c, 0, 64, 127
1, 66320, Note_on_c, 0, 74, 48
1, 66323, Tempo, 631048
1, 66348, Tempo, 627418
1, 66373, Tempo, 623830
1, 66398, Tempo, 620347
1, 66400, Note_on_c, 0, 74, 0
1, 66400, Note_on_c, 0, 76, 50
1, 66424, Tempo, 616840
1, 66449, Tempo, 613371
1, 66474, Tempo, 609942
1, 66480, Note_on_c, 0, 76, 0
1, 66480, Note_on_c, 0, 50, 0
1, 66480, Note_on_c, 0, 77, 52
1, 66525, Tempo, 613371
1, 66560, Note_on_c, 0, 77, 0
1, 66560, Note_on_c, 0, 76, 47
1, 66575, Tempo, 616840
1, 66626, Tempo, 620347
1, 66640, Note_on_c, 0, 76, 0
1, 66640, Note_on_c, 0, 74, 48
1, 66676, Tempo, 623830
1, 66720, Note_on_c, 0, 74, 0
1, 66720, Note_on_c, 0, 56, 33
1, 66720, Note_on_c, 0, 59, 33
1, 66720, Note_on_c, 0, 65, 40
1, 66727, Tempo, 623830
1, 66752, Tempo, 616840
1, 66800, Note_on_c, 0, 74, 49
1, 66828, Tempo, 613371
1, 66880, Note_on_c, 0, 74, 0
1, 66880, Note_on_c, 0, 76, 56
1, 66904, Tempo, 599940
1, 66954, Tempo, 603258
1, 66960, Note_on_c, 0, 76, 0
1, 66960, Note_on_c, 0, 65, 0
1, 66960, Note_on_c, 0, 59, 0
1, 66960, Note_on_c, 0, 56, 0
1, 66960, Note_on_c, 0, 77, 55
1, 66979, Tempo, 606551
1, 67005, Tempo, 609942
1, 67040, Note_on_c, 0, 77, 0
1, 67040, Note_on_c, 0, 76, 51
1, 67055, Tempo, 613371
1, 67080, Tempo, 616840
1, 67106, Tempo, 620347
1, 67120, Note_on_c, 0, 76, 0
1, 67120, Note_on_c, 0, 74, 51
1, 67131, Tempo, 627418
1, 67156, Tempo, 631048
1, 67200, Tempo, 638366
1, 67200, Note_on_c, 0, 74, 0
1, 67200, Note_on_c, 0, 50, 46
1, 67207, Tempo, 638366
1, 67214, Control_c, 0, 64, 0
1, 67257, Tempo, 634719
1, 67267, Control_c, 0, 64, 127
1, 67280, Note_on_c, 0, 73, 55
1, 67283, Tempo, 631048
1, 67308, Tempo, 627418
1, 67333, Tempo, 623830
1, 67358, Tempo, 620347
1, 67360, Note_on_c, 0, 73, 0
1, 67360, Note_on_c, 0, 74, 58
1, 67384, Tempo, 616840
1, 67409, Tempo, 613371
1, 67434, Tempo, 609942
1, 67440, Note_on_c, 0, 74, 0
1, 67440, Note_on_c, 0, 50, 0
1, 67440, Note_on_c, 0, 76, 59
1, 67485, Tempo, 613371
1, 67520, Note_on_c, 0, 76, 0
1, 67520, Note_on_c, 0, 74, 55
1, 67535, Tempo, 616840
1, 67586, Tempo, 620347
1, 67600, Note_on_c, 0, 74, 0
1, 67600, Note_on_c, 0, 73, 56
1, 67636, Tempo, 623830
1, 67680, Note_on_c, 0, 73, 0
1, 67680, Note_on_c, 0, 61, 38
1, 67680, Note_on_c, 0, 64, 46
1, 67687, Tempo, 623830
1, 67712, Tempo, 616840
1, 67760, Note_on_c, 0, 67, 57
1, 67788, Tempo, 613371
1, 67840, Note_on_c, 0, 67, 0
1, 67840, Note_on_c, 0, 69, 64
1, 67864, Tempo, 599940
1, 67914, Tempo, 603258
1, 67920, Note_on_c, 0, 69, 0
1, 67920, Note_on_c, 0, 64, 0
1, 67920, Note_on_c, 0, 61, 0
1, 67920, Note_on_c, 0, 70, 62
1, 67939, Tempo, 606551
1, 67965, Tempo, 609942
1, 68000, Note_on_c, 0, 70, 0
1, 68000, Note_on_c, 0, 69, 58
1, 68015, Tempo, 613371
1, 68040, Tempo, 616840
1, 68066, Tempo, 620347
1, 68080, Note_on_c, 0, 69, 0
1, 68080, Note_on_c, 0, 67, 58
1, 68091, Tempo, 627418
1, 68116, Tempo, 631048
1, 68160, Tempo, 623830
1, 68160, Note_on_c, 0, 67, 0
1, 68160, Note_on_c, 0, 55, 41
1, 68160, Note_on_c, 0, 58, 49
1, 68167, Tempo, 623830
1, 68192, Tempo, 616840
1, 68240, Note_on_c, 0, 61, 60
1, 68268, Tempo, 613371
1, 68320, Note_on_c, 0, 61, 0
1, 68320, Note_on_c, 0, 62, 68
1, 68344, Tempo, 599940
1, 68394, Tempo, 603258
1, 68400, Note_on_c, 0, 62, 0
1, 68400, Note_on_c, 0, 58, 0
1, 68400, Note_on_c, 0, 55, 0
1, 68400, Note_on_c, 0, 64, 66
1, 68419, Tempo, 606551
1, 68445, Tempo, 609942
1, 68480, Note_on_c, 0, 64, 0
1, 68480, Note_on_c, 0, 62, 62
1, 68495, Tempo, 613371
1, 68520, Tempo, 616840
1, 68546, Tempo, 620347
1, 68560, Note_on_c, 0, 62, 0
1, 68560, Note_on_c, 0, 61, 62
1, 68571, Tempo, 627418
1, 68596, Tempo, 631048
1, 68640, Tempo, 623830
1, 68640, Note_on_c, 0, 61, 0
1, 68640, Note_on_c, 0, 49, 55
1, 68640, Note_on_c, 0, 52, 67
1, 68647, Tempo, 623830
1, 68672, Control_c, 0, 64, 0
1, 68672, Tempo, 616840
1, 68706, Control_c, 0, 64, 127
1, 68720, Note_on_c, 0, 55, 73
1, 68748, Tempo, 613371
1, 68800, Note_on_c, 0, 57, 75
1, 68816, Note_on_c, 0, 55, 0
1, 68824, Tempo, 599940
1, 68874, Tempo, 603258
1, 68880, Note_on_c, 0, 58, 79
1, 68888, Control_c, 0, 64, 0
1, 68896, Note_on_c, 0, 57, 0
1, 68899, Tempo, 606551
1, 68925, Tempo, 609942
1, 68960, Note_on_c, 0, 57, 78
1, 68975, Tempo, 613371
1, 68976, Note_on_c, 0, 58, 0
1, 69000, Tempo, 616840
1, 69026, Tempo, 620347
1, 69040, Note_on_c, 0, 55, 66
1, 69051, Tempo, 627418
1, 69056, Note_on_c, 0, 57, 0
1, 69076, Tempo, 631048
1, 69120, Tempo, 631048
1, 69120, Note_on_c, 0, 49, 0
1, 69120, Note_on_c, 0, 52, 0
1, 69120, Note_on_c, 0, 55, 0
1, 69120, Note_on_c, 0, 50, 42
1, 69126, Tempo, 623830
1, 69132, Tempo, 623830
1, 69158, Tempo, 616840
1, 69206, Note_on_c, 0, 54, 51
1, 69233, Tempo, 613371
1, 69286, Note_on_c, 0, 55, 57
1, 69302, Note_on_c, 0, 54, 0
1, 69309, Tempo, 599940
1, 69360, Tempo, 603258
1, 69360, Note_on_c, 0, 50, 0
1, 69360, Note_on_c, 0, 57, 55
1, 69382, Note_on_c, 0, 55, 0
1, 69385, Tempo, 606551
1, 69410, Tempo, 609942
1, 69441, Note_on_c, 0, 55, 51
1, 69456, Note_on_c, 0, 57, 0
1, 69461, Tempo, 613371
1, 69463, Tempo, 613560
1, 69488, Tempo, 626370
1, 69513, Tempo, 639727
1, 69519, Note_on_c, 0, 54, 46
1, 69537, Note_on_c, 0, 55, 0
1, 69538, Tempo, 653666
1, 69564, Tempo, 668226
1, 69599, Note_on_c, 0, 54, 0
1, 69600, Tempo, 623830
1, 69600, Note_on_c, 0, 49, 55
1, 69600, Note_on_c, 0, 52, 67
1, 69607, Tempo, 623830
1, 69632, Tempo, 616840
1, 69680, Note_on_c, 0, 55, 73
1, 69708, Tempo, 613371
1, 69712, Control_c, 0, 64, 127
1, 69760, Note_on_c, 0, 57, 75
1, 69776, Note_on_c, 0, 55, 0
1, 69784, Tempo, 599940
1, 69834, Tempo, 603258
1, 69840, Note_on_c, 0, 58, 79
1, 69848, Control_c, 0, 64, 0
1, 69856, Note_on_c, 0, 57, 0
1, 69859, Tempo, 606551
1, 69885, Tempo, 609942
1, 69920, Note_on_c, 0, 57, 78
1, 69935, Tempo, 613371
1, 69936, Note_on_c, 0, 58, 0
1, 69960, Tempo, 616840
1, 69986, Tempo, 620347
1, 70000, Note_on_c, 0, 55, 66
1, 70011, Tempo, 627418
1, 70016, Note_on_c, 0, 57, 0
1, 70036, Tempo, 631048
1, 70080, Tempo, 631048
1, 70080, Note_on_c, 0, 49, 0
1, 70080, Note_on_c, 0, 52, 0
1, 70080, Note_on_c, 0, 55, 0
1, 70080, Note_on_c, 0, 50, 42
1, 70086, Tempo, 623830
1, 70092, Tempo, 623830
1, 70118, Tempo, 616840
1, 70160, Note_on_c, 0, 54, 51
1, 70193, Tempo, 613371
1, 70246, Note_on_c, 0, 55, 57
1, 70256, Note_on_c, 0, 54, 0
1, 70269, Tempo, 599940
1, 70271, Tempo, 601263
1, 70296, Tempo, 604290
1, 70320, Note_on_c, 0, 50, 0
1, 70320, Note_on_c, 0, 57, 55
1, 70322, Tempo, 610438
1, 70342, Note_on_c, 0, 55, 0
1, 70347, Tempo, 616713
1, 70372, Tempo, 623118
1, 70397, Tempo, 629657
1, 70400, Note_on_c, 0, 55, 51
1, 70416, Note_on_c, 0, 57, 0
1, 70423, Tempo, 632978
1, 70448, Tempo, 639727
1, 70473, Tempo, 646621
1, 70480, Note_on_c, 0, 54, 46
1, 70496, Note_on_c, 0, 55, 0
1, 70498, Tempo, 653666
1, 70524, Tempo, 660866
1, 70549, Tempo, 668226
1, 70560, Tempo, 623830
1, 70560, Note_on_c, 0, 54, 0
1, 70560, Note_on_c, 0, 49, 55
1, 70560, Note_on_c, 0, 52, 67
1, 70567, Tempo, 623830
1, 70592, Tempo, 616840
1, 70640, Note_on_c, 0, 55, 73
1, 70657, Control_c, 0, 64, 127
1, 70668, Tempo, 613371
1, 70720, Note_on_c, 0, 57, 75
1, 70736, Note_on_c, 0, 55, 0
1, 70744, Tempo, 599940
1, 70794, Tempo, 603258
1, 70800, Note_on_c, 0, 58, 79
1, 70806, Control_c, 0, 64, 0
1, 70816, Note_on_c, 0, 57, 0
1, 70819, Tempo, 606551
1, 70845, Tempo, 609942
1, 70880, Note_on_c, 0, 57, 78
1, 70895, Tempo, 613371
1, 70896, Note_on_c, 0, 58, 0
1, 70920, Tempo, 616840
1, 70946, Tempo, 620347
1, 70960, Note_on_c, 0, 55, 66
1, 70971, Tempo, 627418
1, 70976, Note_on_c, 0, 57, 0
1, 70996, Tempo, 631048
1, 71040, Tempo, 631048
1, 71040, Note_on_c, 0, 49, 0
1, 71040, Note_on_c, 0, 52, 0
1, 71040, Note_on_c, 0, 55, 0
1, 71040, Note_on_c, 0, 50, 42
1, 71046, Tempo, 623830
1, 71052, Tempo, 623830
1, 71078, Tempo, 616840
1, 71120, Note_on_c, 0, 54, 51
1, 71153, Tempo, 613371
1, 71200, Note_on_c, 0, 55, 57
1, 71216, Note_on_c, 0, 54, 0
1, 71229, Tempo, 599940
1, 71280, Tempo, 603258
1, 71280, Note_on_c, 0, 57, 55
1, 71296, Note_on_c, 0, 55, 0
1, 71305, Tempo, 606551
1, 71330, Tempo, 609942
1, 71360, Note_on_c, 0, 55, 51
1, 71376, Note_on_c, 0, 57, 0
1, 71381, Tempo, 613371
1, 71406, Tempo, 616840
1, 71431, Tempo, 620347
1, 71440, Note_on_c, 0, 54, 46
1, 71456, Note_on_c, 0, 55, 0
1, 71457, Tempo, 627418
1, 71482, Tempo, 631048
1, 71520, Tempo, 631048
1, 71520, Note_on_c, 0, 54, 0
1, 71520, Note_on_c, 0, 50, 0
1, 71520, Note_on_c, 0, 46, 47
1, 71526, Tempo, 623830
1, 71532, Tempo, 623830
1, 71558, Tempo, 616840
1, 71600, Note_on_c, 0, 50, 51
1, 71633, Tempo, 613371
1, 71680, Note_on_c, 0, 52, 58
1, 71696, Note_on_c, 0, 50, 0
1, 71709, Tempo, 599940
1, 71760, Tempo, 603258
1, 71760, Note_on_c, 0, 55, 57
1, 71776, Note_on_c, 0, 52, 0
1, 71785, Tempo, 606551
1, 71810, Tempo, 609942
1, 71840, Note_on_c, 0, 52, 54
1, 71856, Note_on_c, 0, 55, 0
1, 71861, Tempo, 613371
1, 71886, Tempo, 616840
1, 71911, Tempo, 620347
1, 71920, Note_on_c, 0, 50, 49
1, 71936, Note_on_c, 0, 52, 0
1, 71937, Tempo, 627418
1, 71962, Tempo, 631048
1, 72000, Tempo, 631048
1, 72000, Note_on_c, 0, 50, 0
1, 72000, Note_on_c, 0, 46, 0
1, 72000, Note_on_c, 0, 43, 53
1, 72006, Tempo, 623830
1, 72012, Tempo, 623830
1, 72038, Tempo, 616840
1, 72046, Control_c, 0, 64, 127
1, 72080, Note_on_c, 0, 50, 56
1, 72113, Tempo, 613371
1, 72160, Note_on_c, 0, 58, 64
1, 72176, Note_on_c, 0, 50, 0
1, 72189, Tempo, 599940
1, 72240, Tempo, 603258
1, 72240, Note_on_c, 0, 62, 63
1, 72256, Note_on_c, 0, 58, 0
1, 72265, Tempo, 606551
1, 72290, Tempo, 609942
1, 72320, Note_on_c, 0, 58, 59
1, 72336, Note_on_c, 0, 62, 0
1, 72341, Tempo, 613371
1, 72366, Tempo, 616840
1, 72391, Tempo, 620347
1, 72400, Note_on_c, 0, 50, 54
1, 72416, Note_on_c, 0, 58, 0
1, 72417, Tempo, 627418
1, 72442, Tempo, 631048
1, 72480, Tempo, 631048
1, 72480, Note_on_c, 0, 50, 0
1, 72480, Note_on_c, 0, 43, 0
1, 72480, Note_on_c, 0, 46, 59
1, 72486, Tempo, 623830
1, 72492, Tempo, 623830
1, 72518, Tempo, 616840
1, 72560, Note_on_c, 0, 50, 64
1, 72593, Tempo, 613371
1, 72640, Note_on_c, 0, 52, 70
1, 72656, Note_on_c, 0, 50, 0
1, 72669, Tempo, 599940
1, 72720, Tempo, 603258
1, 72720, Note_on_c, 0, 55, 68
1, 72736, Note_on_c, 0, 52, 0
1, 72800, Note_on_c, 0, 52, 64
1, 72816, Note_on_c, 0, 55, 0
1, 72880, Tempo, 748130
1, 72880, Note_on_c, 0, 50, 58
1, 72896, Note_on_c, 0, 52, 0
1, 72949, Tempo, 623118
1, 72960, Note_on_c, 0, 50, 0
1, 72960, Note_on_c, 0, 46, 0
1, 72960, Note_on_c, 0, 38, 57
1, 72960, Note_on_c, 0, 50, 68
1, 72960, Control_c, 0, 64, 0
1, 73040, Note_on_c, 0, 54, 62
1, 73075, Tempo, 619899
1, 73080, Note_on_c, 0, 50, 0
1, 73080, Note_on_c, 0, 38, 0
1, 73120, Note_on_c, 0, 55, 63
1, 73136, Note_on_c, 0, 54, 0
1, 73200, Note_on_c, 0, 57, 64
1, 73200, Note_on_c, 0, 37, 51
1, 73200, Note_on_c, 0, 49, 60
1, 73202, Tempo, 616713
1, 73216, Note_on_c, 0, 55, 0
1, 73280, Note_on_c, 0, 59, 65
1, 73296, Note_on_c, 0, 57, 0
1, 73320, Note_on_c, 0, 49, 0
1, 73320, Note_on_c, 0, 37, 0
1, 73328, Tempo, 613560
1, 73360, Note_on_c, 0, 61, 65
1, 73376, Note_on_c, 0, 59, 0
1, 73440, Note_on_c, 0, 62, 67
1, 73440, Note_on_c, 0, 35, 52
1, 73440, Note_on_c, 0, 47, 62
1, 73454, Tempo, 613560
1, 73456, Note_on_c, 0, 61, 0
1, 73505, Tempo, 610438
1, 73520, Note_on_c, 0, 64, 67
1, 73536, Note_on_c, 0, 62, 0
1, 73560, Note_on_c, 0, 47, 0
1, 73560, Note_on_c, 0, 35, 0
1, 73600, Note_on_c, 0, 66, 67
1, 73616, Note_on_c, 0, 64, 0
1, 73656, Tempo, 607349
1, 73680, Note_on_c, 0, 67, 67
1, 73680, Note_on_c, 0, 33, 54
1, 73680, Note_on_c, 0, 45, 64
1, 73696, Note_on_c, 0, 66, 0
1, 73760, Note_on_c, 0, 69, 68
1, 73776, Note_on_c, 0, 67, 0
1, 73800, Note_on_c, 0, 45, 0
1, 73800, Note_on_c, 0, 33, 0
1, 73808, Tempo, 604290
1, 73840, Note_on_c, 0, 71, 69
1, 73856, Note_on_c, 0, 69, 0
1, 73920, Note_on_c, 0, 73, 71
1, 73920, Note_on_c, 0, 31, 55
1, 73920, Note_on_c, 0, 43, 65
1, 73936, Note_on_c, 0, 71, 0
1, 73959, Tempo, 601263
1, 74000, Note_on_c, 0, 74, 71
1, 74016, Note_on_c, 0, 73, 0
1, 74040, Note_on_c, 0, 43, 0
1, 74040, Note_on_c, 0, 31, 0
1, 74061, Tempo, 604290
1, 74080, Note_on_c, 0, 76, 71
1, 74096, Note_on_c, 0, 74, 0
1, 74111, Tempo, 607349
1, 74136, Tempo, 610438
1, 74160, Note_on_c, 0, 78, 71
1, 74160, Note_on_c, 0, 30, 56
1, 74160, Note_on_c, 0, 42, 67
1, 74176, Note_on_c, 0, 76, 0
1, 74187, Tempo, 613560
1, 74212, Tempo, 616713
1, 74237, Tempo, 619899
1, 74240, Note_on_c, 0, 79, 72
1, 74256, Note_on_c, 0, 78, 0
1, 74280, Note_on_c, 0, 42, 0
1, 74280, Note_on_c, 0, 30, 0
1, 74288, Tempo, 623118
1, 74313, Tempo, 626370
1, 74320, Note_on_c, 0, 81, 72
1, 74336, Note_on_c, 0, 79, 0
1, 74364, Tempo, 629657
1, 74389, Tempo, 632978
1, 74400, Note_on_c, 0, 83, 74
1, 74400, Note_on_c, 0, 28, 62
1, 74400, Note_on_c, 0, 40, 73
1, 74414, Tempo, 636335
1, 74416, Note_on_c, 0, 81, 0
1, 74454, Note_on_c, 0, 83, 0
1, 74454, Note_on_c, 0, 85, 74
1, 74460, Control_c, 0, 64, 127
1, 74465, Tempo, 639727
1, 74490, Tempo, 643156
1, 74507, Note_on_c, 0, 85, 0
1, 74507, Note_on_c, 0, 86, 77
1, 74515, Tempo, 646621
1, 74529, Tempo, 620347
1, 74554, Tempo, 657534
1, 74561, Note_on_c, 0, 86, 0
1, 74561, Note_on_c, 0, 88, 80
1, 74605, Tempo, 661521
1, 74615, Note_on_c, 0, 88, 0
1, 74615, Note_on_c, 0, 90, 81
1, 74630, Tempo, 665557
1, 74655, Tempo, 669643
1, 74668, Note_on_c, 0, 90, 0
1, 74668, Note_on_c, 0, 91, 84
1, 74680, Tempo, 673703
1, 74706, Tempo, 677890
1, 74722, Note_on_c, 0, 91, 0
1, 74722, Note_on_c, 0, 93, 86
1, 74731, Tempo, 682128
1, 74756, Tempo, 686420
1, 74775, Note_on_c, 0, 93, 0
1, 74775, Note_on_c, 0, 95, 87
1, 74782, Tempo, 690767
1, 74807, Tempo, 695088
1, 74829, Note_on_c, 0, 95, 0
1, 74829, Note_on_c, 0, 97, 93
1, 74832, Tempo, 699545
1, 74857, Tempo, 757576
1, 74880, Note_on_c, 0, 97, 0
1, 74880, Note_on_c, 0, 28, 0
1, 74880, Note_on_c, 0, 40, 0
1, 74880, Note_on_c, 0, 98, 101
1, 74880, Note_on_c, 0, 38, 78
1, 74880, Note_on_c, 0, 26, 66
1, 74880, Control_c, 0, 64, 0
1, 75360, Note_on_c, 0, 26, 0
1, 75360, Note_on_c, 0, 38, 0
1, 75360, Note_on_c, 0, 98, 0
1, 75840, Note_on_c, 0, 78, 98
1, 75840, Note_on_c, 0, 74, 83
1, 75840, Note_on_c, 0, 69, 83
1, 75840, Note_on_c, 0, 66, 83
1, 75840, Note_on_c, 0, 62, 74
1, 75840, Note_on_c, 0, 57, 62
1, 75840, Note_on_c, 0, 50, 62
1, 76320, Note_on_c, 0, 50, 0
1, 76320, Note_on_c, 0, 62, 0
1, 76320, Note_on_c, 0, 74, 0
1, 76320, Note_on_c, 0, 69, 0
1, 76320, Note_on_c, 0, 78, 0
1, 76320, Note_on_c, 0, 57, 0
1, 76320, Note_on_c, 0, 66, 0
1, 76320, Control_c, 0, 64, 127
1, 76800, Note_on_c, 0, 62, 88
1, 76800, Note_on_c, 0, 57, 74
1, 76800, Note_on_c, 0, 54, 74
1, 76800, Note_on_c, 0, 50, 74
1, 76800, Note_on_c, 0, 38, 71
1, 76800, Note_on_c, 0, 33, 60
1, 76800, Note_on_c, 0, 26, 60
1, 77760, Note_on_c, 0, 26, 0
1, 77760, Note_on_c, 0, 38, 0
1, 77760, Note_on_c, 0, 57, 0
1, 77760, Note_on_c, 0, 54, 0
1, 77760, Note_on_c, 0, 62, 0
1, 77760, Note_on_c, 0, 33, 0
1, 77760, Note_on_c, 0, 50, 0
1, 78720, Tempo, 757576
1, 78720, Control_c, 0, 64, 0
1, 78720, End_track
0, 0, End_of_file
