0, 0, Header, 0, 1, 480
1, 0, Start_track
1, 0, Title_t, "Etueden Opus 109"
1, 0, Title_t, "Die Sylphen"
1, 0, Copyright_t, "Copyright © 2012 by Bernd Krueger"
1, 0, Text_t, "Friedrich Burgmueller"
1, 0, Text_t, "Vivo"
1, 0, Text_t, "Erstellt: 5.4.2012\012"
1, 0, Text_t, "Dauer: 1:30 Minuten\012"
1, 0, SMPTE_offset, 96, 0, 3, 0, 0
1, 0, Time_signature, 3, 3, 12, 8
1, 0, Key_signature, -2, "major"
1, 0, Tempo, 459453
1, 0, Marker_t, "Einleitung"
1, 0, Program_c, 0, 0
1, 0, Control_c, 0, 7, 127
1, 0, Control_c, 0, 10, 64
1, 0, Note_on_c, 0, 76, 54
1, 0, Program_c, 0, 0
1, 0, Control_c, 0, 7, 127
1, 0, Control_c, 0, 10, 64
1, 0, Note_on_c, 0, 67, 37
1, 66, Control_c, 0, 64, 127
1, 80, Note_on_c, 0, 76, 0
1, 80, Note_on_c, 0, 82, 46
1, 160, Note_on_c, 0, 82, 0
1, 160, Note_on_c, 0, 85, 40
1, 240, Tempo, 516396
1, 240, Note_on_c, 0, 85, 0
1, 240, Note_on_c, 0, 67, 0
1, 240, Note_on_c, 0, 76, 56
1, 240, Control_c, 0, 64, 0
1, 360, Note_on_c, 0, 76, 0
1, 480, Tempo, 530551
1, 480, Note_on_c, 0, 67, 38
1, 600, Note_on_c, 0, 67, 0
1, 720, Tempo, 464792
1, 720, Note_on_c, 0, 74, 51
1, 720, Note_on_c, 0, 66, 46
1, 773, Control_c, 0, 64, 127
1, 800, Note_on_c, 0, 74, 0
1, 800, Note_on_c, 0, 81, 43
1, 880, Note_on_c, 0, 81, 0
1, 880, Note_on_c, 0, 86, 40
1, 960, Tempo, 514183
1, 960, Note_on_c, 0, 86, 0
1, 960, Note_on_c, 0, 66, 0
1, 960, Note_on_c, 0, 74, 53
1, 1020, Control_c, 0, 64, 0
1, 1080, Note_on_c, 0, 74, 0
1, 1200, Tempo, 535284
1, 1200, Note_on_c, 0, 66, 38
1, 1320, Note_on_c, 0, 66, 0
1, 1440, Tempo, 466599
1, 1440, Note_on_c, 0, 74, 51
1, 1440, Note_on_c, 0, 65, 46
1, 1495, Control_c, 0, 64, 127
1, 1520, Note_on_c, 0, 74, 0
1, 1520, Note_on_c, 0, 80, 43
1, 1600, Note_on_c, 0, 80, 0
1, 1600, Note_on_c, 0, 83, 40
1, 1680, Tempo, 516396
1, 1680, Note_on_c, 0, 83, 0
1, 1680, Note_on_c, 0, 65, 0
1, 1680, Note_on_c, 0, 74, 50
1, 1740, Control_c, 0, 64, 0
1, 1800, Note_on_c, 0, 74, 0
1, 1920, Tempo, 532907
1, 1920, Note_on_c, 0, 65, 37
1, 2040, Note_on_c, 0, 65, 0
1, 2160, Tempo, 466599
1, 2160, Note_on_c, 0, 72, 49
1, 2160, Note_on_c, 0, 64, 45
1, 2227, Control_c, 0, 64, 127
1, 2240, Note_on_c, 0, 72, 0
1, 2240, Note_on_c, 0, 79, 40
1, 2320, Note_on_c, 0, 79, 0
1, 2320, Note_on_c, 0, 84, 38
1, 2400, Tempo, 514183
1, 2400, Note_on_c, 0, 84, 0
1, 2400, Note_on_c, 0, 64, 0
1, 2400, Note_on_c, 0, 72, 51
1, 2436, Control_c, 0, 64, 0
1, 2520, Note_on_c, 0, 72, 0
1, 2640, Tempo, 530551
1, 2640, Note_on_c, 0, 64, 40
1, 2760, Note_on_c, 0, 64, 0
1, 2880, Tempo, 468750
1, 2880, Note_on_c, 0, 72, 51
1, 2880, Note_on_c, 0, 63, 47
1, 2950, Control_c, 0, 64, 127
1, 2960, Note_on_c, 0, 72, 0
1, 2960, Note_on_c, 0, 79, 40
1, 3040, Note_on_c, 0, 79, 0
1, 3040, Note_on_c, 0, 81, 37
1, 3120, Tempo, 516396
1, 3120, Note_on_c, 0, 81, 0
1, 3120, Note_on_c, 0, 63, 0
1, 3120, Note_on_c, 0, 72, 49
1, 3155, Control_c, 0, 64, 0
1, 3240, Note_on_c, 0, 72, 0
1, 3344, Control_c, 0, 64, 127
1, 3360, Tempo, 571157
1, 3360, Note_on_c, 0, 63, 34
1, 3480, Tempo, 619515
1, 3540, Note_on_c, 0, 63, 0
1, 3540, Note_on_c, 0, 60, 41
1, 3550, Note_on_c, 0, 67, 44
1, 3560, Note_on_c, 0, 69, 45
1, 3570, Note_on_c, 0, 75, 54
1, 3580, Note_on_c, 0, 79, 58
1, 3590, Note_on_c, 0, 84, 62
1, 3600, Tempo, 589565
1, 3600, Note_on_c, 0, 87, 64
1, 3840, Note_on_c, 0, 87, 0
1, 3840, Note_on_c, 0, 79, 0
1, 3840, Note_on_c, 0, 67, 0
1, 3840, Note_on_c, 0, 69, 0
1, 3840, Note_on_c, 0, 60, 0
1, 3840, Note_on_c, 0, 84, 0
1, 3840, Note_on_c, 0, 75, 0
1, 4017, Control_c, 0, 64, 0
1, 4320, Tempo, 468421
1, 4320, Note_on_c, 0, 62, 54
1, 4320, Note_on_c, 0, 50, 31
1, 4320, Note_on_c, 0, 57, 31
1, 4320, Note_on_c, 0, 60, 37
1, 4386, Control_c, 0, 64, 127
1, 4400, Note_on_c, 0, 62, 0
1, 4400, Note_on_c, 0, 66, 46
1, 4480, Note_on_c, 0, 66, 0
1, 4480, Note_on_c, 0, 74, 40
1, 4560, Tempo, 500793
1, 4560, Note_on_c, 0, 74, 0
1, 4560, Note_on_c, 0, 50, 0
1, 4560, Note_on_c, 0, 57, 0
1, 4560, Note_on_c, 0, 60, 0
1, 4560, Note_on_c, 0, 62, 50
1, 4577, Control_c, 0, 64, 0
1, 4680, Tempo, 519796
1, 4680, Note_on_c, 0, 62, 0
1, 4800, Tempo, 619515
1, 4800, Note_on_c, 0, 38, 31
1, 4800, Note_on_c, 0, 50, 31
1, 4920, Note_on_c, 0, 50, 0
1, 4920, Note_on_c, 0, 38, 0
1, 5040, Tempo, 514889
1, 5040, Note_on_c, 0, 67, 40
1, 5040, Note_on_c, 0, 62, 40
1, 5040, Note_on_c, 0, 58, 40
1, 5040, Note_on_c, 0, 43, 31
1, 5040, Note_on_c, 0, 55, 31
1, 5280, Note_on_c, 0, 55, 0
1, 5280, Note_on_c, 0, 58, 0
1, 5280, Note_on_c, 0, 67, 0
1, 5280, Note_on_c, 0, 62, 0
1, 5280, Note_on_c, 0, 43, 0
1, 5760, Tempo, 453241
1, 5760, Marker_t, "Teil 1"
1, 5760, Note_on_c, 0, 86, 54
1, 5760, Note_on_c, 0, 55, 37
1, 5826, Control_c, 0, 64, 127
1, 5840, Note_on_c, 0, 86, 0
1, 5840, Note_on_c, 0, 94, 46
1, 5920, Note_on_c, 0, 94, 0
1, 5920, Note_on_c, 0, 98, 40
1, 6000, Tempo, 572028
1, 6000, Note_on_c, 0, 98, 0
1, 6000, Note_on_c, 0, 86, 50
1, 6000, Note_on_c, 0, 58, 26
1, 6000, Note_on_c, 0, 62, 31
1, 6180, Note_on_c, 0, 62, 0
1, 6180, Note_on_c, 0, 58, 0
1, 6229, Control_c, 0, 64, 0
1, 6240, Tempo, 453241
1, 6240, Note_on_c, 0, 86, 0
1, 6240, Note_on_c, 0, 74, 54
1, 6240, Note_on_c, 0, 58, 26
1, 6240, Note_on_c, 0, 62, 31
1, 6286, Control_c, 0, 64, 127
1, 6320, Note_on_c, 0, 74, 0
1, 6320, Note_on_c, 0, 82, 46
1, 6400, Note_on_c, 0, 82, 0
1, 6400, Note_on_c, 0, 86, 40
1, 6420, Note_on_c, 0, 62, 0
1, 6420, Note_on_c, 0, 58, 0
1, 6480, Tempo, 500793
1, 6480, Note_on_c, 0, 55, 0
1, 6480, Note_on_c, 0, 86, 0
1, 6480, Note_on_c, 0, 74, 59
1, 6480, Note_on_c, 0, 55, 37
1, 6501, Control_c, 0, 64, 0
1, 6600, Control_c, 0, 64, 127
1, 6720, Tempo, 496278
1, 6720, Note_on_c, 0, 74, 0
1, 6720, Note_on_c, 0, 57, 26
1, 6720, Note_on_c, 0, 60, 26
1, 6720, Note_on_c, 0, 63, 31
1, 6900, Note_on_c, 0, 63, 0
1, 6900, Note_on_c, 0, 60, 0
1, 6900, Note_on_c, 0, 57, 0
1, 6960, Tempo, 505433
1, 6960, Note_on_c, 0, 72, 50
1, 6960, Note_on_c, 0, 57, 26
1, 6960, Note_on_c, 0, 60, 26
1, 6960, Note_on_c, 0, 63, 31
1, 7080, Note_on_c, 0, 72, 0
1, 7080, Note_on_c, 0, 70, 49
1, 7140, Note_on_c, 0, 70, 0
1, 7140, Note_on_c, 0, 63, 0
1, 7140, Note_on_c, 0, 60, 0
1, 7140, Note_on_c, 0, 57, 0
1, 7140, Note_on_c, 0, 72, 49
1, 7200, Tempo, 512514
1, 7200, Note_on_c, 0, 72, 0
1, 7200, Note_on_c, 0, 55, 0
1, 7200, Note_on_c, 0, 70, 58
1, 7200, Note_on_c, 0, 54, 37
1, 7232, Control_c, 0, 64, 0
1, 7334, Control_c, 0, 64, 127
1, 7440, Tempo, 494030
1, 7440, Note_on_c, 0, 70, 0
1, 7440, Note_on_c, 0, 60, 26
1, 7440, Note_on_c, 0, 62, 31
1, 7620, Note_on_c, 0, 62, 0
1, 7620, Note_on_c, 0, 60, 0
1, 7680, Tempo, 514889
1, 7680, Note_on_c, 0, 69, 49
1, 7680, Note_on_c, 0, 60, 26
1, 7680, Note_on_c, 0, 62, 31
1, 7800, Note_on_c, 0, 69, 0
1, 7860, Note_on_c, 0, 62, 0
1, 7860, Note_on_c, 0, 60, 0
1, 7860, Note_on_c, 0, 69, 42
1, 7920, Tempo, 498546
1, 7920, Note_on_c, 0, 69, 0
1, 7920, Note_on_c, 0, 54, 0
1, 7920, Note_on_c, 0, 72, 50
1, 7920, Note_on_c, 0, 55, 37
1, 7947, Control_c, 0, 64, 0
1, 8080, Control_c, 0, 64, 127
1, 8160, Note_on_c, 0, 62, 31
1, 8160, Note_on_c, 0, 58, 26
1, 8340, Note_on_c, 0, 58, 0
1, 8340, Note_on_c, 0, 62, 0
1, 8400, Tempo, 553863
1, 8400, Note_on_c, 0, 72, 0
1, 8400, Note_on_c, 0, 70, 46
1, 8400, Note_on_c, 0, 58, 26
1, 8400, Note_on_c, 0, 62, 31
1, 8580, Note_on_c, 0, 62, 0
1, 8580, Note_on_c, 0, 58, 0
1, 8640, Tempo, 453241
1, 8640, Note_on_c, 0, 70, 0
1, 8640, Note_on_c, 0, 55, 0
1, 8640, Note_on_c, 0, 79, 54
1, 8640, Note_on_c, 0, 46, 37
1, 8694, Control_c, 0, 64, 0
1, 8720, Note_on_c, 0, 79, 0
1, 8720, Note_on_c, 0, 86, 46
1, 8732, Control_c, 0, 64, 127
1, 8800, Note_on_c, 0, 86, 0
1, 8800, Note_on_c, 0, 91, 40
1, 8880, Tempo, 556122
1, 8880, Note_on_c, 0, 91, 0
1, 8880, Note_on_c, 0, 79, 50
1, 8880, Note_on_c, 0, 50, 26
1, 8880, Note_on_c, 0, 55, 31
1, 9060, Note_on_c, 0, 55, 0
1, 9060, Note_on_c, 0, 50, 0
1, 9109, Control_c, 0, 64, 0
1, 9120, Tempo, 453241
1, 9120, Note_on_c, 0, 79, 0
1, 9120, Note_on_c, 0, 67, 54
1, 9120, Note_on_c, 0, 50, 26
1, 9120, Note_on_c, 0, 55, 31
1, 9166, Control_c, 0, 64, 127
1, 9200, Note_on_c, 0, 67, 0
1, 9200, Note_on_c, 0, 74, 46
1, 9280, Note_on_c, 0, 74, 0
1, 9280, Note_on_c, 0, 79, 40
1, 9300, Note_on_c, 0, 55, 0
1, 9300, Note_on_c, 0, 50, 0
1, 9360, Tempo, 500793
1, 9360, Note_on_c, 0, 46, 0
1, 9360, Note_on_c, 0, 79, 0
1, 9360, Note_on_c, 0, 67, 59
1, 9360, Note_on_c, 0, 48, 37
1, 9381, Control_c, 0, 64, 0
1, 9480, Control_c, 0, 64, 127
1, 9600, Tempo, 496278
1, 9600, Note_on_c, 0, 67, 0
1, 9600, Note_on_c, 0, 55, 26
1, 9600, Note_on_c, 0, 57, 31
1, 9780, Note_on_c, 0, 57, 0
1, 9780, Note_on_c, 0, 55, 0
1, 9840, Tempo, 505433
1, 9840, Note_on_c, 0, 63, 50
1, 9840, Note_on_c, 0, 55, 26
1, 9840, Note_on_c, 0, 57, 31
1, 10020, Note_on_c, 0, 57, 0
1, 10020, Note_on_c, 0, 55, 0
1, 10080, Tempo, 512514
1, 10080, Note_on_c, 0, 63, 0
1, 10080, Note_on_c, 0, 48, 0
1, 10080, Note_on_c, 0, 62, 58
1, 10080, Note_on_c, 0, 55, 37
1, 10112, Control_c, 0, 64, 0
1, 10320, Tempo, 494030
1, 10320, Note_on_c, 0, 62, 0
1, 10320, Note_on_c, 0, 70, 54
1, 10320, Note_on_c, 0, 54, 26
1, 10320, Note_on_c, 0, 60, 31
1, 10416, Control_c, 0, 64, 127
1, 10500, Note_on_c, 0, 60, 0
1, 10500, Note_on_c, 0, 54, 0
1, 10560, Tempo, 514889
1, 10560, Note_on_c, 0, 70, 0
1, 10560, Note_on_c, 0, 69, 49
1, 10560, Note_on_c, 0, 54, 26
1, 10560, Note_on_c, 0, 60, 31
1, 10677, Note_on_c, 0, 69, 0
1, 10680, Note_on_c, 0, 69, 42
1, 10720, Note_on_c, 0, 70, 42
1, 10740, Note_on_c, 0, 69, 0
1, 10740, Note_on_c, 0, 60, 0
1, 10740, Note_on_c, 0, 54, 0
1, 10780, Note_on_c, 0, 70, 0
1, 10800, Tempo, 498546
1, 10800, Note_on_c, 0, 55, 0
1, 10800, Note_on_c, 0, 69, 50
1, 10800, Note_on_c, 0, 55, 37
1, 10827, Control_c, 0, 64, 0
1, 10960, Control_c, 0, 64, 127
1, 11040, Note_on_c, 0, 62, 31
1, 11040, Note_on_c, 0, 58, 26
1, 11220, Note_on_c, 0, 58, 0
1, 11220, Note_on_c, 0, 62, 0
1, 11280, Tempo, 545603
1, 11280, Note_on_c, 0, 69, 0
1, 11280, Note_on_c, 0, 67, 46
1, 11280, Note_on_c, 0, 58, 26
1, 11280, Note_on_c, 0, 62, 31
1, 11460, Note_on_c, 0, 62, 0
1, 11460, Note_on_c, 0, 58, 0
1, 11520, Tempo, 453241
1, 11520, Note_on_c, 0, 67, 0
1, 11520, Note_on_c, 0, 55, 0
1, 11520, Note_on_c, 0, 86, 54
1, 11520, Note_on_c, 0, 55, 37
1, 11520, Control_c, 0, 64, 0
1, 11586, Control_c, 0, 64, 127
1, 11600, Note_on_c, 0, 86, 0
1, 11600, Note_on_c, 0, 94, 46
1, 11680, Note_on_c, 0, 94, 0
1, 11680, Note_on_c, 0, 98, 40
1, 11760, Tempo, 553557
1, 11760, Note_on_c, 0, 98, 0
1, 11760, Note_on_c, 0, 86, 50
1, 11760, Note_on_c, 0, 58, 26
1, 11760, Note_on_c, 0, 62, 31
1, 11940, Note_on_c, 0, 62, 0
1, 11940, Note_on_c, 0, 58, 0
1, 11989, Control_c, 0, 64, 0
1, 12000, Tempo, 453241
1, 12000, Note_on_c, 0, 86, 0
1, 12000, Note_on_c, 0, 74, 54
1, 12000, Note_on_c, 0, 58, 26
1, 12000, Note_on_c, 0, 62, 31
1, 12046, Control_c, 0, 64, 127
1, 12080, Note_on_c, 0, 74, 0
1, 12080, Note_on_c, 0, 82, 46
1, 12160, Note_on_c, 0, 82, 0
1, 12160, Note_on_c, 0, 86, 40
1, 12180, Note_on_c, 0, 62, 0
1, 12180, Note_on_c, 0, 58, 0
1, 12240, Tempo, 500793
1, 12240, Note_on_c, 0, 55, 0
1, 12240, Note_on_c, 0, 86, 0
1, 12240, Note_on_c, 0, 74, 59
1, 12240, Note_on_c, 0, 55, 37
1, 12261, Control_c, 0, 64, 0
1, 12360, Control_c, 0, 64, 127
1, 12480, Tempo, 496278
1, 12480, Note_on_c, 0, 74, 0
1, 12480, Note_on_c, 0, 57, 26
1, 12480, Note_on_c, 0, 60, 26
1, 12480, Note_on_c, 0, 63, 31
1, 12660, Note_on_c, 0, 63, 0
1, 12660, Note_on_c, 0, 60, 0
1, 12660, Note_on_c, 0, 57, 0
1, 12720, Tempo, 505433
1, 12720, Note_on_c, 0, 72, 50
1, 12720, Note_on_c, 0, 57, 26
1, 12720, Note_on_c, 0, 60, 26
1, 12720, Note_on_c, 0, 63, 31
1, 12840, Note_on_c, 0, 72, 0
1, 12840, Note_on_c, 0, 70, 49
1, 12900, Note_on_c, 0, 70, 0
1, 12900, Note_on_c, 0, 63, 0
1, 12900, Note_on_c, 0, 60, 0
1, 12900, Note_on_c, 0, 57, 0
1, 12900, Note_on_c, 0, 72, 49
1, 12960, Tempo, 512514
1, 12960, Note_on_c, 0, 72, 0
1, 12960, Note_on_c, 0, 55, 0
1, 12960, Note_on_c, 0, 70, 58
1, 12960, Note_on_c, 0, 54, 37
1, 12992, Control_c, 0, 64, 0
1, 13094, Control_c, 0, 64, 127
1, 13200, Tempo, 494030
1, 13200, Note_on_c, 0, 70, 0
1, 13200, Note_on_c, 0, 60, 26
1, 13200, Note_on_c, 0, 62, 31
1, 13380, Note_on_c, 0, 62, 0
1, 13380, Note_on_c, 0, 60, 0
1, 13440, Tempo, 514889
1, 13440, Note_on_c, 0, 69, 49
1, 13440, Note_on_c, 0, 60, 26
1, 13440, Note_on_c, 0, 62, 31
1, 13560, Note_on_c, 0, 69, 0
1, 13620, Note_on_c, 0, 62, 0
1, 13620, Note_on_c, 0, 60, 0
1, 13620, Note_on_c, 0, 69, 42
1, 13680, Tempo, 498546
1, 13680, Note_on_c, 0, 69, 0
1, 13680, Note_on_c, 0, 54, 0
1, 13680, Note_on_c, 0, 72, 50
1, 13680, Note_on_c, 0, 55, 37
1, 13707, Control_c, 0, 64, 0
1, 13840, Control_c, 0, 64, 127
1, 13920, Note_on_c, 0, 62, 31
1, 13920, Note_on_c, 0, 58, 26
1, 14100, Note_on_c, 0, 58, 0
1, 14100, Note_on_c, 0, 62, 0
1, 14160, Tempo, 545603
1, 14160, Note_on_c, 0, 72, 0
1, 14160, Note_on_c, 0, 70, 46
1, 14160, Note_on_c, 0, 58, 26
1, 14160, Note_on_c, 0, 62, 31
1, 14340, Note_on_c, 0, 62, 0
1, 14340, Note_on_c, 0, 58, 0
1, 14400, Tempo, 453241
1, 14400, Note_on_c, 0, 70, 0
1, 14400, Note_on_c, 0, 55, 0
1, 14400, Note_on_c, 0, 79, 54
1, 14400, Note_on_c, 0, 46, 37
1, 14454, Control_c, 0, 64, 0
1, 14480, Note_on_c, 0, 79, 0
1, 14480, Note_on_c, 0, 86, 46
1, 14492, Control_c, 0, 64, 127
1, 14560, Note_on_c, 0, 86, 0
1, 14560, Note_on_c, 0, 91, 40
1, 14640, Tempo, 548496
1, 14640, Note_on_c, 0, 91, 0
1, 14640, Note_on_c, 0, 79, 50
1, 14640, Note_on_c, 0, 50, 26
1, 14640, Note_on_c, 0, 55, 31
1, 14820, Note_on_c, 0, 55, 0
1, 14820, Note_on_c, 0, 50, 0
1, 14869, Control_c, 0, 64, 0
1, 14880, Tempo, 453241
1, 14880, Note_on_c, 0, 79, 0
1, 14880, Note_on_c, 0, 67, 54
1, 14880, Note_on_c, 0, 50, 26
1, 14880, Note_on_c, 0, 55, 31
1, 14926, Control_c, 0, 64, 127
1, 14960, Note_on_c, 0, 67, 0
1, 14960, Note_on_c, 0, 74, 46
1, 15040, Note_on_c, 0, 74, 0
1, 15040, Note_on_c, 0, 79, 40
1, 15060, Note_on_c, 0, 55, 0
1, 15060, Note_on_c, 0, 50, 0
1, 15120, Tempo, 500793
1, 15120, Note_on_c, 0, 46, 0
1, 15120, Note_on_c, 0, 79, 0
1, 15120, Note_on_c, 0, 67, 59
1, 15120, Note_on_c, 0, 48, 37
1, 15141, Control_c, 0, 64, 0
1, 15240, Control_c, 0, 64, 127
1, 15360, Tempo, 496278
1, 15360, Note_on_c, 0, 67, 0
1, 15360, Note_on_c, 0, 55, 26
1, 15360, Note_on_c, 0, 57, 31
1, 15540, Note_on_c, 0, 57, 0
1, 15540, Note_on_c, 0, 55, 0
1, 15600, Tempo, 505433
1, 15600, Note_on_c, 0, 63, 50
1, 15600, Note_on_c, 0, 55, 26
1, 15600, Note_on_c, 0, 57, 31
1, 15780, Note_on_c, 0, 57, 0
1, 15780, Note_on_c, 0, 55, 0
1, 15840, Tempo, 512514
1, 15840, Note_on_c, 0, 63, 0
1, 15840, Note_on_c, 0, 48, 0
1, 15840, Note_on_c, 0, 62, 58
1, 15840, Note_on_c, 0, 55, 37
1, 15872, Control_c, 0, 64, 0
1, 16080, Tempo, 494030
1, 16080, Note_on_c, 0, 62, 0
1, 16080, Note_on_c, 0, 70, 54
1, 16080, Note_on_c, 0, 54, 26
1, 16080, Note_on_c, 0, 60, 31
1, 16158, Control_c, 0, 64, 127
1, 16260, Note_on_c, 0, 60, 0
1, 16260, Note_on_c, 0, 54, 0
1, 16320, Tempo, 514889
1, 16320, Note_on_c, 0, 70, 0
1, 16320, Note_on_c, 0, 69, 49
1, 16320, Note_on_c, 0, 54, 26
1, 16320, Note_on_c, 0, 60, 31
1, 16437, Note_on_c, 0, 69, 0
1, 16440, Note_on_c, 0, 69, 42
1, 16480, Note_on_c, 0, 70, 42
1, 16500, Note_on_c, 0, 69, 0
1, 16500, Note_on_c, 0, 60, 0
1, 16500, Note_on_c, 0, 54, 0
1, 16540, Note_on_c, 0, 70, 0
1, 16560, Tempo, 498546
1, 16560, Note_on_c, 0, 55, 0
1, 16560, Note_on_c, 0, 69, 50
1, 16560, Note_on_c, 0, 55, 37
1, 16587, Control_c, 0, 64, 0
1, 16720, Control_c, 0, 64, 127
1, 16800, Note_on_c, 0, 62, 31
1, 16800, Note_on_c, 0, 58, 26
1, 16980, Note_on_c, 0, 58, 0
1, 16980, Note_on_c, 0, 62, 0
1, 17040, Tempo, 556690
1, 17040, Note_on_c, 0, 69, 0
1, 17040, Note_on_c, 0, 67, 46
1, 17040, Note_on_c, 0, 58, 26
1, 17040, Note_on_c, 0, 62, 31
1, 17220, Note_on_c, 0, 62, 0
1, 17220, Note_on_c, 0, 58, 0
1, 17280, Tempo, 453241
1, 17280, Note_on_c, 0, 67, 0
1, 17280, Note_on_c, 0, 55, 0
1, 17280, Note_on_c, 0, 77, 54
1, 17280, Note_on_c, 0, 50, 37
1, 17280, Control_c, 0, 64, 0
1, 17346, Control_c, 0, 64, 127
1, 17360, Note_on_c, 0, 77, 0
1, 17360, Note_on_c, 0, 82, 46
1, 17440, Note_on_c, 0, 82, 0
1, 17440, Note_on_c, 0, 89, 40
1, 17520, Tempo, 553557
1, 17520, Note_on_c, 0, 89, 0
1, 17520, Note_on_c, 0, 77, 50
1, 17520, Note_on_c, 0, 53, 26
1, 17520, Note_on_c, 0, 58, 31
1, 17700, Note_on_c, 0, 58, 0
1, 17700, Note_on_c, 0, 53, 0
1, 17749, Control_c, 0, 64, 0
1, 17760, Tempo, 453241
1, 17760, Note_on_c, 0, 77, 0
1, 17760, Note_on_c, 0, 65, 54
1, 17760, Note_on_c, 0, 53, 26
1, 17760, Note_on_c, 0, 58, 31
1, 17806, Control_c, 0, 64, 127
1, 17840, Note_on_c, 0, 65, 0
1, 17840, Note_on_c, 0, 74, 46
1, 17920, Note_on_c, 0, 74, 0
1, 17920, Note_on_c, 0, 77, 40
1, 17940, Note_on_c, 0, 58, 0
1, 17940, Note_on_c, 0, 53, 0
1, 18000, Tempo, 500793
1, 18000, Note_on_c, 0, 50, 0
1, 18000, Note_on_c, 0, 77, 0
1, 18000, Note_on_c, 0, 65, 59
1, 18000, Note_on_c, 0, 48, 37
1, 18021, Control_c, 0, 64, 0
1, 18120, Control_c, 0, 64, 127
1, 18240, Tempo, 496278
1, 18240, Note_on_c, 0, 65, 0
1, 18240, Note_on_c, 0, 55, 26
1, 18240, Note_on_c, 0, 58, 31
1, 18420, Note_on_c, 0, 58, 0
1, 18420, Note_on_c, 0, 55, 0
1, 18480, Tempo, 505433
1, 18480, Note_on_c, 0, 63, 50
1, 18480, Note_on_c, 0, 55, 26
1, 18480, Note_on_c, 0, 58, 31
1, 18600, Note_on_c, 0, 63, 0
1, 18660, Note_on_c, 0, 58, 0
1, 18660, Note_on_c, 0, 55, 0
1, 18720, Tempo, 470736
1, 18720, Note_on_c, 0, 48, 0
1, 18720, Note_on_c, 0, 63, 58
1, 18720, Note_on_c, 0, 41, 37
1, 18752, Control_c, 0, 64, 0
1, 18800, Note_on_c, 0, 63, 0
1, 18800, Note_on_c, 0, 65, 48
1, 18854, Control_c, 0, 64, 127
1, 18880, Note_on_c, 0, 65, 0
1, 18880, Note_on_c, 0, 63, 48
1, 18960, Tempo, 494030
1, 18960, Note_on_c, 0, 63, 0
1, 18960, Note_on_c, 0, 62, 55
1, 18960, Note_on_c, 0, 53, 26
1, 18960, Note_on_c, 0, 57, 31
1, 18988, Control_c, 0, 64, 0
1, 19140, Note_on_c, 0, 57, 0
1, 19140, Note_on_c, 0, 53, 0
1, 19200, Tempo, 545603
1, 19200, Note_on_c, 0, 62, 0
1, 19200, Note_on_c, 0, 60, 50
1, 19200, Note_on_c, 0, 53, 26
1, 19200, Note_on_c, 0, 57, 31
1, 19320, Note_on_c, 0, 60, 0
1, 19380, Note_on_c, 0, 57, 0
1, 19380, Note_on_c, 0, 53, 0
1, 19380, Note_on_c, 0, 60, 45
1, 19440, Tempo, 498546
1, 19440, Note_on_c, 0, 60, 0
1, 19440, Note_on_c, 0, 41, 0
1, 19440, Note_on_c, 0, 63, 50
1, 19440, Note_on_c, 0, 46, 37
1, 19600, Control_c, 0, 64, 127
1, 19680, Note_on_c, 0, 58, 31
1, 19680, Note_on_c, 0, 53, 26
1, 19860, Note_on_c, 0, 53, 0
1, 19860, Note_on_c, 0, 58, 0
1, 19920, Tempo, 512514
1, 19920, Note_on_c, 0, 63, 0
1, 19920, Note_on_c, 0, 62, 46
1, 19920, Note_on_c, 0, 53, 26
1, 19920, Note_on_c, 0, 58, 31
1, 20100, Note_on_c, 0, 58, 0
1, 20100, Note_on_c, 0, 53, 0
1, 20160, Tempo, 453241
1, 20160, Note_on_c, 0, 62, 0
1, 20160, Note_on_c, 0, 46, 0
1, 20160, Note_on_c, 0, 74, 54
1, 20160, Note_on_c, 0, 46, 37
1, 20160, Control_c, 0, 64, 0
1, 20226, Control_c, 0, 64, 127
1, 20240, Note_on_c, 0, 74, 0
1, 20240, Note_on_c, 0, 79, 46
1, 20320, Note_on_c, 0, 79, 0
1, 20320, Note_on_c, 0, 86, 40
1, 20400, Tempo, 556122
1, 20400, Note_on_c, 0, 86, 0
1, 20400, Note_on_c, 0, 74, 50
1, 20400, Note_on_c, 0, 50, 26
1, 20400, Note_on_c, 0, 55, 31
1, 20580, Note_on_c, 0, 55, 0
1, 20580, Note_on_c, 0, 50, 0
1, 20629, Control_c, 0, 64, 0
1, 20640, Tempo, 453241
1, 20640, Note_on_c, 0, 74, 0
1, 20640, Note_on_c, 0, 62, 54
1, 20640, Note_on_c, 0, 50, 26
1, 20640, Note_on_c, 0, 55, 31
1, 20686, Control_c, 0, 64, 127
1, 20720, Note_on_c, 0, 62, 0
1, 20720, Note_on_c, 0, 67, 46
1, 20800, Note_on_c, 0, 67, 0
1, 20800, Note_on_c, 0, 74, 40
1, 20820, Note_on_c, 0, 55, 0
1, 20820, Note_on_c, 0, 50, 0
1, 20880, Tempo, 500793
1, 20880, Note_on_c, 0, 46, 0
1, 20880, Note_on_c, 0, 74, 0
1, 20880, Note_on_c, 0, 62, 59
1, 20880, Note_on_c, 0, 45, 37
1, 20901, Control_c, 0, 64, 0
1, 21000, Control_c, 0, 64, 127
1, 21120, Tempo, 496278
1, 21120, Note_on_c, 0, 62, 0
1, 21120, Note_on_c, 0, 51, 26
1, 21120, Note_on_c, 0, 55, 31
1, 21300, Note_on_c, 0, 55, 0
1, 21300, Note_on_c, 0, 51, 0
1, 21360, Tempo, 505433
1, 21360, Note_on_c, 0, 60, 50
1, 21360, Note_on_c, 0, 51, 26
1, 21360, Note_on_c, 0, 55, 31
1, 21480, Note_on_c, 0, 60, 0
1, 21540, Note_on_c, 0, 55, 0
1, 21540, Note_on_c, 0, 51, 0
1, 21600, Tempo, 470736
1, 21600, Note_on_c, 0, 45, 0
1, 21600, Note_on_c, 0, 60, 58
1, 21600, Note_on_c, 0, 38, 37
1, 21632, Control_c, 0, 64, 0
1, 21680, Note_on_c, 0, 60, 0
1, 21680, Note_on_c, 0, 62, 48
1, 21734, Control_c, 0, 64, 127
1, 21760, Note_on_c, 0, 62, 0
1, 21760, Note_on_c, 0, 60, 48
1, 21840, Tempo, 494030
1, 21840, Note_on_c, 0, 60, 0
1, 21840, Note_on_c, 0, 38, 0
1, 21840, Note_on_c, 0, 58, 55
1, 21840, Note_on_c, 0, 50, 26
1, 21840, Note_on_c, 0, 54, 31
1, 21872, Control_c, 0, 64, 0
1, 22020, Note_on_c, 0, 54, 0
1, 22020, Note_on_c, 0, 50, 0
1, 22080, Tempo, 545603
1, 22080, Note_on_c, 0, 58, 0
1, 22080, Note_on_c, 0, 57, 50
1, 22080, Note_on_c, 0, 50, 26
1, 22080, Note_on_c, 0, 54, 31
1, 22200, Note_on_c, 0, 57, 0
1, 22240, Note_on_c, 0, 57, 45
1, 22260, Note_on_c, 0, 54, 0
1, 22260, Note_on_c, 0, 50, 0
1, 22300, Note_on_c, 0, 57, 0
1, 22320, Tempo, 498546
1, 22320, Note_on_c, 0, 60, 50
1, 22320, Note_on_c, 0, 43, 37
1, 22480, Control_c, 0, 64, 127
1, 22560, Note_on_c, 0, 55, 31
1, 22560, Note_on_c, 0, 50, 26
1, 22740, Note_on_c, 0, 50, 0
1, 22740, Note_on_c, 0, 55, 0
1, 22800, Tempo, 548346
1, 22800, Note_on_c, 0, 60, 0
1, 22800, Note_on_c, 0, 58, 46
1, 22800, Note_on_c, 0, 50, 26
1, 22800, Note_on_c, 0, 55, 31
1, 22980, Note_on_c, 0, 55, 0
1, 22980, Note_on_c, 0, 50, 0
1, 23040, Tempo, 448799
1, 23040, Note_on_c, 0, 58, 0
1, 23040, Note_on_c, 0, 43, 0
1, 23040, Note_on_c, 0, 67, 54
1, 23040, Note_on_c, 0, 39, 33
1, 23040, Note_on_c, 0, 51, 40
1, 23054, Control_c, 0, 64, 0
1, 23106, Control_c, 0, 64, 127
1, 23120, Note_on_c, 0, 67, 0
1, 23120, Note_on_c, 0, 75, 46
1, 23160, Note_on_c, 0, 51, 0
1, 23160, Note_on_c, 0, 39, 0
1, 23200, Note_on_c, 0, 75, 0
1, 23200, Note_on_c, 0, 79, 40
1, 23280, Tempo, 487448
1, 23280, Note_on_c, 0, 79, 0
1, 23280, Note_on_c, 0, 67, 57
1, 23280, Note_on_c, 0, 50, 42
1, 23280, Note_on_c, 0, 38, 34
1, 23280, Control_c, 0, 64, 0
1, 23400, Note_on_c, 0, 38, 0
1, 23400, Note_on_c, 0, 50, 0
1, 23520, Tempo, 505433
1, 23520, Note_on_c, 0, 67, 0
1, 23520, Note_on_c, 0, 51, 46
1, 23520, Note_on_c, 0, 39, 38
1, 23640, Note_on_c, 0, 39, 0
1, 23640, Note_on_c, 0, 51, 0
1, 23760, Tempo, 442184
1, 23760, Note_on_c, 0, 68, 59
1, 23760, Note_on_c, 0, 36, 36
1, 23760, Note_on_c, 0, 48, 44
1, 23774, Control_c, 0, 64, 0
1, 23826, Control_c, 0, 64, 127
1, 23840, Note_on_c, 0, 68, 0
1, 23840, Note_on_c, 0, 75, 50
1, 23880, Note_on_c, 0, 48, 0
1, 23880, Note_on_c, 0, 36, 0
1, 23920, Note_on_c, 0, 75, 0
1, 23920, Note_on_c, 0, 80, 44
1, 24000, Tempo, 487448
1, 24000, Note_on_c, 0, 80, 0
1, 24000, Note_on_c, 0, 68, 50
1, 24000, Note_on_c, 0, 47, 46
1, 24000, Note_on_c, 0, 35, 37
1, 24000, Control_c, 0, 64, 0
1, 24120, Note_on_c, 0, 35, 0
1, 24120, Note_on_c, 0, 47, 0
1, 24240, Tempo, 500793
1, 24240, Note_on_c, 0, 68, 0
1, 24240, Note_on_c, 0, 36, 33
1, 24240, Note_on_c, 0, 48, 37
1, 24360, Note_on_c, 0, 48, 0
1, 24360, Note_on_c, 0, 36, 0
1, 24480, Tempo, 437350
1, 24480, Note_on_c, 0, 66, 64
1, 24480, Note_on_c, 0, 38, 40
1, 24480, Note_on_c, 0, 50, 49
1, 24494, Control_c, 0, 64, 0
1, 24546, Control_c, 0, 64, 127
1, 24560, Note_on_c, 0, 66, 0
1, 24560, Note_on_c, 0, 72, 55
1, 24600, Note_on_c, 0, 50, 0
1, 24600, Note_on_c, 0, 38, 0
1, 24640, Note_on_c, 0, 72, 0
1, 24640, Note_on_c, 0, 78, 48
1, 24720, Tempo, 476607
1, 24720, Note_on_c, 0, 78, 0
1, 24720, Note_on_c, 0, 66, 68
1, 24720, Note_on_c, 0, 49, 50
1, 24720, Note_on_c, 0, 37, 42
1, 24720, Control_c, 0, 64, 0
1, 24840, Note_on_c, 0, 37, 0
1, 24840, Note_on_c, 0, 49, 0
1, 24960, Tempo, 496278
1, 24960, Note_on_c, 0, 66, 0
1, 24960, Note_on_c, 0, 50, 55
1, 24960, Note_on_c, 0, 38, 44
1, 25080, Note_on_c, 0, 38, 0
1, 25080, Note_on_c, 0, 50, 0
1, 25200, Tempo, 428480
1, 25200, Note_on_c, 0, 67, 67
1, 25200, Note_on_c, 0, 34, 46
1, 25200, Note_on_c, 0, 46, 55
1, 25214, Control_c, 0, 64, 0
1, 25266, Control_c, 0, 64, 127
1, 25280, Note_on_c, 0, 67, 0
1, 25280, Note_on_c, 0, 74, 57
1, 25320, Note_on_c, 0, 46, 0
1, 25320, Note_on_c, 0, 34, 0
1, 25360, Note_on_c, 0, 74, 0
1, 25360, Note_on_c, 0, 79, 50
1, 25440, Tempo, 463714
1, 25440, Note_on_c, 0, 79, 0
1, 25440, Note_on_c, 0, 67, 57
1, 25440, Note_on_c, 0, 45, 57
1, 25440, Note_on_c, 0, 33, 47
1, 25440, Control_c, 0, 64, 0
1, 25560, Note_on_c, 0, 33, 0
1, 25560, Note_on_c, 0, 45, 0
1, 25680, Tempo, 492247
1, 25680, Note_on_c, 0, 67, 0
1, 25680, Note_on_c, 0, 34, 40
1, 25680, Note_on_c, 0, 46, 47
1, 25800, Note_on_c, 0, 46, 0
1, 25800, Note_on_c, 0, 34, 0
1, 25920, Tempo, 425864
1, 25920, Note_on_c, 0, 63, 73
1, 25920, Note_on_c, 0, 36, 46
1, 25920, Note_on_c, 0, 48, 56
1, 25934, Control_c, 0, 64, 0
1, 25986, Control_c, 0, 64, 127
1, 26000, Note_on_c, 0, 63, 0
1, 26000, Note_on_c, 0, 67, 63
1, 26040, Note_on_c, 0, 48, 0
1, 26040, Note_on_c, 0, 36, 0
1, 26080, Note_on_c, 0, 67, 0
1, 26080, Note_on_c, 0, 75, 55
1, 26160, Tempo, 461929
1, 26160, Note_on_c, 0, 75, 0
1, 26160, Note_on_c, 0, 63, 78
1, 26160, Note_on_c, 0, 47, 57
1, 26160, Note_on_c, 0, 35, 48
1, 26160, Control_c, 0, 64, 0
1, 26280, Note_on_c, 0, 35, 0
1, 26280, Note_on_c, 0, 47, 0
1, 26400, Tempo, 490236
1, 26400, Note_on_c, 0, 63, 0
1, 26400, Note_on_c, 0, 48, 62
1, 26400, Note_on_c, 0, 36, 50
1, 26520, Note_on_c, 0, 36, 0
1, 26520, Note_on_c, 0, 48, 0
1, 26640, Tempo, 436999
1, 26640, Note_on_c, 0, 60, 80
1, 26640, Note_on_c, 0, 39, 50
1, 26640, Note_on_c, 0, 51, 60
1, 26654, Control_c, 0, 64, 0
1, 26706, Control_c, 0, 64, 127
1, 26720, Note_on_c, 0, 60, 0
1, 26720, Note_on_c, 0, 67, 69
1, 26760, Note_on_c, 0, 51, 0
1, 26760, Note_on_c, 0, 39, 0
1, 26800, Note_on_c, 0, 67, 0
1, 26800, Note_on_c, 0, 72, 59
1, 26880, Tempo, 500793
1, 26880, Note_on_c, 0, 72, 0
1, 26880, Note_on_c, 0, 60, 85
1, 26880, Note_on_c, 0, 50, 62
1, 26880, Note_on_c, 0, 38, 52
1, 26880, Control_c, 0, 64, 0
1, 27000, Note_on_c, 0, 38, 0
1, 27000, Note_on_c, 0, 50, 0
1, 27120, Tempo, 556690
1, 27120, Note_on_c, 0, 60, 0
1, 27120, Note_on_c, 0, 51, 68
1, 27120, Note_on_c, 0, 39, 56
1, 27240, Note_on_c, 0, 39, 0
1, 27240, Note_on_c, 0, 51, 0
1, 27360, Tempo, 456656
1, 27360, Note_on_c, 0, 62, 85
1, 27360, Note_on_c, 0, 38, 49
1, 27360, Note_on_c, 0, 50, 58
1, 27374, Control_c, 0, 64, 0
1, 27426, Control_c, 0, 64, 127
1, 27440, Note_on_c, 0, 62, 0
1, 27440, Note_on_c, 0, 67, 74
1, 27480, Note_on_c, 0, 50, 0
1, 27480, Note_on_c, 0, 38, 0
1, 27520, Note_on_c, 0, 67, 0
1, 27520, Note_on_c, 0, 62, 64
1, 27600, Tempo, 500793
1, 27600, Note_on_c, 0, 62, 0
1, 27600, Note_on_c, 0, 61, 86
1, 27600, Note_on_c, 0, 37, 48
1, 27600, Note_on_c, 0, 49, 57
1, 27600, Control_c, 0, 64, 0
1, 27680, Tempo, 529801
1, 27720, Note_on_c, 0, 49, 0
1, 27720, Note_on_c, 0, 37, 0
1, 27720, Note_on_c, 0, 61, 0
1, 27840, Tempo, 556690
1, 27840, Note_on_c, 0, 62, 93
1, 27840, Note_on_c, 0, 38, 57
1, 27840, Note_on_c, 0, 50, 67
1, 27960, Note_on_c, 0, 50, 0
1, 27960, Note_on_c, 0, 38, 0
1, 27960, Note_on_c, 0, 62, 0
1, 28080, Tempo, 583317
1, 28080, Note_on_c, 0, 67, 96
1, 28080, Note_on_c, 0, 55, 80
1, 28080, Note_on_c, 0, 43, 67
1, 28151, Control_c, 0, 64, 127
1, 28200, Note_on_c, 0, 43, 0
1, 28200, Note_on_c, 0, 55, 0
1, 28200, Note_on_c, 0, 67, 0
1, 28320, Tempo, 562377
1, 28320, Note_on_c, 0, 67, 87
1, 28320, Note_on_c, 0, 70, 87
1, 28320, Note_on_c, 0, 79, 103
1, 28320, Note_on_c, 0, 55, 78
1, 28320, Note_on_c, 0, 50, 65
1, 28320, Note_on_c, 0, 43, 65
1, 28440, Note_on_c, 0, 43, 0
1, 28440, Note_on_c, 0, 70, 0
1, 28440, Note_on_c, 0, 79, 0
1, 28440, Note_on_c, 0, 67, 0
1, 28440, Note_on_c, 0, 50, 0
1, 28440, Note_on_c, 0, 55, 0
1, 28560, Control_c, 0, 64, 0
1, 28800, Tempo, 431997
1, 28800, Note_on_c, 0, 86, 54
1, 28920, Note_on_c, 0, 86, 0
1, 29040, Tempo, 454925
1, 29040, Note_on_c, 0, 74, 50
1, 29160, Note_on_c, 0, 74, 0
1, 29280, Tempo, 502555
1, 29280, Note_on_c, 0, 62, 39
1, 29400, Note_on_c, 0, 62, 0
1, 29520, Tempo, 436713
1, 29520, Note_on_c, 0, 79, 54
1, 29640, Note_on_c, 0, 79, 0
1, 29760, Tempo, 460158
1, 29760, Note_on_c, 0, 67, 50
1, 29880, Note_on_c, 0, 67, 0
1, 30000, Tempo, 526824
1, 30000, Note_on_c, 0, 55, 39
1, 30120, Note_on_c, 0, 55, 0
1, 30240, Tempo, 481039
1, 30240, Note_on_c, 0, 74, 54
1, 30360, Note_on_c, 0, 74, 0
1, 30480, Tempo, 574163
1, 30480, Note_on_c, 0, 62, 50
1, 30600, Note_on_c, 0, 62, 0
1, 30720, Tempo, 667482
1, 30720, Note_on_c, 0, 50, 39
1, 30840, Note_on_c, 0, 50, 0
1, 30960, Key_signature, 1, "major"
1, 30960, Tempo, 491441
1, 30960, Marker_t, "Teil 2"
1, 30960, Note_on_c, 0, 74, 54
1, 30960, Note_on_c, 0, 62, 37
1, 31026, Control_c, 0, 64, 127
1, 31200, Tempo, 510247
1, 31200, Note_on_c, 0, 71, 34
1, 31200, Note_on_c, 0, 67, 28
1, 31200, Note_on_c, 0, 55, 22
1, 31200, Note_on_c, 0, 59, 26
1, 31440, Tempo, 582016
1, 31440, Note_on_c, 0, 59, 0
1, 31440, Note_on_c, 0, 67, 0
1, 31440, Note_on_c, 0, 71, 0
1, 31440, Note_on_c, 0, 55, 0
1, 31440, Note_on_c, 0, 71, 34
1, 31440, Note_on_c, 0, 67, 28
1, 31440, Note_on_c, 0, 55, 22
1, 31440, Note_on_c, 0, 59, 26
1, 31680, Tempo, 503821
1, 31680, Note_on_c, 0, 59, 0
1, 31680, Note_on_c, 0, 74, 0
1, 31680, Note_on_c, 0, 71, 0
1, 31680, Note_on_c, 0, 62, 0
1, 31680, Note_on_c, 0, 55, 0
1, 31680, Note_on_c, 0, 67, 0
1, 31680, Note_on_c, 0, 76, 59
1, 31680, Note_on_c, 0, 64, 40
1, 31688, Control_c, 0, 64, 0
1, 31800, Control_c, 0, 64, 127
1, 31920, Tempo, 523606
1, 31920, Note_on_c, 0, 71, 38
1, 31920, Note_on_c, 0, 67, 31
1, 31920, Note_on_c, 0, 55, 24
1, 31920, Note_on_c, 0, 59, 28
1, 32160, Tempo, 590609
1, 32160, Note_on_c, 0, 59, 0
1, 32160, Note_on_c, 0, 67, 0
1, 32160, Note_on_c, 0, 71, 0
1, 32160, Note_on_c, 0, 55, 0
1, 32160, Note_on_c, 0, 71, 38
1, 32160, Note_on_c, 0, 67, 31
1, 32160, Note_on_c, 0, 55, 24
1, 32160, Note_on_c, 0, 59, 28
1, 32400, Tempo, 497554
1, 32400, Note_on_c, 0, 59, 0
1, 32400, Note_on_c, 0, 76, 0
1, 32400, Note_on_c, 0, 71, 0
1, 32400, Note_on_c, 0, 64, 0
1, 32400, Note_on_c, 0, 55, 0
1, 32400, Note_on_c, 0, 67, 0
1, 32400, Note_on_c, 0, 76, 64
1, 32400, Note_on_c, 0, 64, 46
1, 32408, Control_c, 0, 64, 0
1, 32534, Control_c, 0, 64, 127
1, 32640, Tempo, 523606
1, 32640, Note_on_c, 0, 69, 33
1, 32640, Note_on_c, 0, 66, 28
1, 32640, Note_on_c, 0, 54, 21
1, 32640, Note_on_c, 0, 57, 24
1, 32880, Tempo, 582016
1, 32880, Note_on_c, 0, 57, 0
1, 32880, Note_on_c, 0, 66, 0
1, 32880, Note_on_c, 0, 69, 0
1, 32880, Note_on_c, 0, 54, 0
1, 32880, Note_on_c, 0, 69, 33
1, 32880, Note_on_c, 0, 66, 28
1, 32880, Note_on_c, 0, 54, 21
1, 32880, Note_on_c, 0, 57, 24
1, 33120, Tempo, 495499
1, 33120, Note_on_c, 0, 57, 0
1, 33120, Note_on_c, 0, 76, 0
1, 33120, Note_on_c, 0, 69, 0
1, 33120, Note_on_c, 0, 64, 0
1, 33120, Note_on_c, 0, 54, 0
1, 33120, Note_on_c, 0, 66, 0
1, 33120, Note_on_c, 0, 74, 54
1, 33120, Note_on_c, 0, 62, 37
1, 33120, Control_c, 0, 64, 0
1, 33186, Control_c, 0, 64, 127
1, 33240, Note_on_c, 0, 74, 0
1, 33360, Tempo, 454925
1, 33360, Note_on_c, 0, 74, 70
1, 33360, Note_on_c, 0, 54, 22
1, 33360, Note_on_c, 0, 57, 26
1, 33440, Note_on_c, 0, 74, 0
1, 33440, Note_on_c, 0, 81, 49
1, 33520, Note_on_c, 0, 81, 0
1, 33520, Note_on_c, 0, 86, 49
1, 33600, Tempo, 582016
1, 33600, Note_on_c, 0, 86, 0
1, 33600, Note_on_c, 0, 57, 0
1, 33600, Note_on_c, 0, 54, 0
1, 33600, Note_on_c, 0, 74, 63
1, 33600, Note_on_c, 0, 54, 18
1, 33600, Note_on_c, 0, 57, 22
1, 33840, Tempo, 495499
1, 33840, Note_on_c, 0, 57, 0
1, 33840, Note_on_c, 0, 62, 0
1, 33840, Note_on_c, 0, 74, 0
1, 33840, Note_on_c, 0, 54, 0
1, 33840, Note_on_c, 0, 74, 54
1, 33840, Note_on_c, 0, 62, 37
1, 33846, Control_c, 0, 64, 0
1, 34014, Control_c, 0, 64, 127
1, 34080, Tempo, 510247
1, 34080, Note_on_c, 0, 67, 34
1, 34080, Note_on_c, 0, 64, 28
1, 34080, Note_on_c, 0, 52, 17
1, 34080, Note_on_c, 0, 55, 20
1, 34320, Tempo, 565558
1, 34320, Note_on_c, 0, 55, 0
1, 34320, Note_on_c, 0, 64, 0
1, 34320, Note_on_c, 0, 67, 0
1, 34320, Note_on_c, 0, 52, 0
1, 34320, Note_on_c, 0, 67, 34
1, 34320, Note_on_c, 0, 64, 28
1, 34320, Note_on_c, 0, 52, 17
1, 34320, Note_on_c, 0, 55, 20
1, 34560, Tempo, 503821
1, 34560, Note_on_c, 0, 55, 0
1, 34560, Note_on_c, 0, 74, 0
1, 34560, Note_on_c, 0, 67, 0
1, 34560, Note_on_c, 0, 62, 0
1, 34560, Note_on_c, 0, 52, 0
1, 34560, Note_on_c, 0, 64, 0
1, 34560, Note_on_c, 0, 72, 59
1, 34560, Note_on_c, 0, 60, 40
1, 34568, Control_c, 0, 64, 0
1, 34680, Control_c, 0, 64, 127
1, 34800, Tempo, 512426
1, 34800, Note_on_c, 0, 67, 38
1, 34800, Note_on_c, 0, 64, 31
1, 34800, Note_on_c, 0, 52, 19
1, 34800, Note_on_c, 0, 55, 22
1, 35040, Tempo, 530551
1, 35040, Note_on_c, 0, 60, 0
1, 35040, Note_on_c, 0, 72, 0
1, 35040, Note_on_c, 0, 74, 45
1, 35040, Note_on_c, 0, 62, 28
1, 35280, Tempo, 497554
1, 35280, Note_on_c, 0, 62, 0
1, 35280, Note_on_c, 0, 55, 0
1, 35280, Note_on_c, 0, 67, 0
1, 35280, Note_on_c, 0, 64, 0
1, 35280, Note_on_c, 0, 74, 0
1, 35280, Note_on_c, 0, 52, 0
1, 35280, Note_on_c, 0, 72, 61
1, 35280, Note_on_c, 0, 60, 46
1, 35280, Control_c, 0, 64, 0
1, 35395, Control_c, 0, 64, 127
1, 35520, Tempo, 523606
1, 35520, Note_on_c, 0, 66, 33
1, 35520, Note_on_c, 0, 63, 28
1, 35520, Note_on_c, 0, 51, 16
1, 35520, Note_on_c, 0, 54, 19
1, 35760, Tempo, 582016
1, 35760, Note_on_c, 0, 54, 0
1, 35760, Note_on_c, 0, 63, 0
1, 35760, Note_on_c, 0, 66, 0
1, 35760, Note_on_c, 0, 51, 0
1, 35760, Note_on_c, 0, 66, 33
1, 35760, Note_on_c, 0, 63, 28
1, 35760, Note_on_c, 0, 51, 16
1, 35760, Note_on_c, 0, 54, 19
1, 36000, Tempo, 495499
1, 36000, Note_on_c, 0, 54, 0
1, 36000, Note_on_c, 0, 72, 0
1, 36000, Note_on_c, 0, 66, 0
1, 36000, Note_on_c, 0, 60, 0
1, 36000, Note_on_c, 0, 51, 0
1, 36000, Note_on_c, 0, 63, 0
1, 36000, Note_on_c, 0, 71, 54
1, 36000, Note_on_c, 0, 59, 37
1, 36000, Control_c, 0, 64, 0
1, 36066, Control_c, 0, 64, 127
1, 36120, Note_on_c, 0, 71, 0
1, 36240, Tempo, 458400
1, 36240, Note_on_c, 0, 71, 65
1, 36240, Note_on_c, 0, 51, 22
1, 36240, Note_on_c, 0, 54, 26
1, 36320, Note_on_c, 0, 71, 0
1, 36320, Note_on_c, 0, 78, 46
1, 36400, Note_on_c, 0, 78, 0
1, 36400, Note_on_c, 0, 83, 46
1, 36480, Tempo, 582016
1, 36480, Note_on_c, 0, 83, 0
1, 36480, Note_on_c, 0, 54, 0
1, 36480, Note_on_c, 0, 51, 0
1, 36480, Note_on_c, 0, 71, 65
1, 36480, Note_on_c, 0, 51, 18
1, 36480, Note_on_c, 0, 54, 22
1, 36720, Tempo, 495499
1, 36720, Note_on_c, 0, 54, 0
1, 36720, Note_on_c, 0, 59, 0
1, 36720, Note_on_c, 0, 71, 0
1, 36720, Note_on_c, 0, 51, 0
1, 36720, Note_on_c, 0, 71, 54
1, 36720, Note_on_c, 0, 59, 37
1, 36720, Control_c, 0, 64, 0
1, 36854, Control_c, 0, 64, 127
1, 36960, Tempo, 510247
1, 36960, Note_on_c, 0, 67, 34
1, 36960, Note_on_c, 0, 62, 28
1, 36960, Note_on_c, 0, 50, 22
1, 36960, Note_on_c, 0, 55, 26
1, 37200, Tempo, 555093
1, 37200, Note_on_c, 0, 55, 0
1, 37200, Note_on_c, 0, 62, 0
1, 37200, Note_on_c, 0, 67, 0
1, 37200, Note_on_c, 0, 50, 0
1, 37200, Note_on_c, 0, 67, 34
1, 37200, Note_on_c, 0, 62, 28
1, 37200, Note_on_c, 0, 50, 22
1, 37200, Note_on_c, 0, 55, 26
1, 37440, Tempo, 503821
1, 37440, Note_on_c, 0, 55, 0
1, 37440, Note_on_c, 0, 71, 0
1, 37440, Note_on_c, 0, 67, 0
1, 37440, Note_on_c, 0, 59, 0
1, 37440, Note_on_c, 0, 50, 0
1, 37440, Note_on_c, 0, 62, 0
1, 37440, Note_on_c, 0, 67, 59
1, 37440, Note_on_c, 0, 55, 40
1, 37448, Control_c, 0, 64, 0
1, 37560, Control_c, 0, 64, 127
1, 37680, Tempo, 523606
1, 37680, Note_on_c, 0, 62, 34
1, 37680, Note_on_c, 0, 59, 28
1, 37680, Note_on_c, 0, 47, 24
1, 37680, Note_on_c, 0, 50, 28
1, 37920, Tempo, 573669
1, 37920, Note_on_c, 0, 50, 0
1, 37920, Note_on_c, 0, 59, 0
1, 37920, Note_on_c, 0, 62, 0
1, 37920, Note_on_c, 0, 47, 0
1, 37920, Note_on_c, 0, 62, 34
1, 37920, Note_on_c, 0, 59, 28
1, 37920, Note_on_c, 0, 47, 24
1, 37920, Note_on_c, 0, 50, 28
1, 38160, Tempo, 497554
1, 38160, Note_on_c, 0, 50, 0
1, 38160, Note_on_c, 0, 67, 0
1, 38160, Note_on_c, 0, 62, 0
1, 38160, Note_on_c, 0, 55, 0
1, 38160, Note_on_c, 0, 47, 0
1, 38160, Note_on_c, 0, 59, 0
1, 38160, Note_on_c, 0, 69, 64
1, 38160, Note_on_c, 0, 57, 49
1, 38160, Control_c, 0, 64, 0
1, 38309, Control_c, 0, 64, 127
1, 38400, Tempo, 523606
1, 38400, Note_on_c, 0, 63, 33
1, 38400, Note_on_c, 0, 67, 39
1, 38400, Note_on_c, 0, 55, 31
1, 38400, Note_on_c, 0, 48, 26
1, 38640, Tempo, 624415
1, 38640, Note_on_c, 0, 48, 0
1, 38640, Note_on_c, 0, 67, 0
1, 38640, Note_on_c, 0, 63, 0
1, 38640, Note_on_c, 0, 55, 0
1, 38640, Note_on_c, 0, 63, 33
1, 38640, Note_on_c, 0, 67, 39
1, 38640, Note_on_c, 0, 55, 31
1, 38640, Note_on_c, 0, 48, 26
1, 38880, Tempo, 495499
1, 38880, Note_on_c, 0, 48, 0
1, 38880, Note_on_c, 0, 69, 0
1, 38880, Note_on_c, 0, 63, 0
1, 38880, Note_on_c, 0, 57, 0
1, 38880, Note_on_c, 0, 55, 0
1, 38880, Note_on_c, 0, 67, 0
1, 38880, Note_on_c, 0, 72, 68
1, 38880, Note_on_c, 0, 60, 54
1, 38880, Control_c, 0, 64, 0
1, 39014, Control_c, 0, 64, 127
1, 39120, Tempo, 510247
1, 39120, Note_on_c, 0, 67, 34
1, 39120, Note_on_c, 0, 69, 41
1, 39120, Note_on_c, 0, 55, 38
1, 39120, Note_on_c, 0, 51, 32
1, 39360, Tempo, 542545
1, 39360, Note_on_c, 0, 51, 0
1, 39360, Note_on_c, 0, 69, 0
1, 39360, Note_on_c, 0, 67, 0
1, 39360, Note_on_c, 0, 55, 0
1, 39360, Note_on_c, 0, 67, 34
1, 39360, Note_on_c, 0, 69, 41
1, 39360, Note_on_c, 0, 55, 38
1, 39360, Note_on_c, 0, 51, 32
1, 39600, Tempo, 503821
1, 39600, Note_on_c, 0, 51, 0
1, 39600, Note_on_c, 0, 72, 0
1, 39600, Note_on_c, 0, 67, 0
1, 39600, Note_on_c, 0, 60, 0
1, 39600, Note_on_c, 0, 55, 0
1, 39600, Note_on_c, 0, 69, 0
1, 39600, Note_on_c, 0, 71, 64
1, 39600, Note_on_c, 0, 59, 51
1, 39608, Control_c, 0, 64, 0
1, 39720, Control_c, 0, 64, 127
1, 39840, Tempo, 523606
1, 39840, Note_on_c, 0, 62, 33
1, 39840, Note_on_c, 0, 67, 39
1, 39840, Note_on_c, 0, 55, 37
1, 39840, Note_on_c, 0, 50, 31
1, 40080, Tempo, 552537
1, 40080, Note_on_c, 0, 50, 0
1, 40080, Note_on_c, 0, 67, 0
1, 40080, Note_on_c, 0, 62, 0
1, 40080, Note_on_c, 0, 55, 0
1, 40080, Note_on_c, 0, 62, 32
1, 40080, Note_on_c, 0, 67, 39
1, 40080, Note_on_c, 0, 55, 37
1, 40080, Note_on_c, 0, 50, 31
1, 40320, Tempo, 497554
1, 40320, Note_on_c, 0, 50, 0
1, 40320, Note_on_c, 0, 71, 0
1, 40320, Note_on_c, 0, 62, 0
1, 40320, Note_on_c, 0, 59, 0
1, 40320, Note_on_c, 0, 55, 0
1, 40320, Note_on_c, 0, 67, 0
1, 40320, Note_on_c, 0, 69, 63
1, 40320, Note_on_c, 0, 57, 50
1, 40320, Control_c, 0, 64, 0
1, 40469, Control_c, 0, 64, 127
1, 40560, Tempo, 523606
1, 40560, Note_on_c, 0, 62, 34
1, 40560, Note_on_c, 0, 60, 29
1, 40560, Note_on_c, 0, 50, 30
1, 40560, Note_on_c, 0, 54, 36
1, 40800, Tempo, 582016
1, 40800, Note_on_c, 0, 54, 0
1, 40800, Note_on_c, 0, 60, 0
1, 40800, Note_on_c, 0, 62, 0
1, 40800, Note_on_c, 0, 50, 0
1, 40800, Note_on_c, 0, 62, 34
1, 40800, Note_on_c, 0, 60, 28
1, 40800, Note_on_c, 0, 50, 31
1, 40800, Note_on_c, 0, 54, 37
1, 41040, Tempo, 497554
1, 41040, Note_on_c, 0, 54, 0
1, 41040, Note_on_c, 0, 69, 0
1, 41040, Note_on_c, 0, 62, 0
1, 41040, Note_on_c, 0, 57, 0
1, 41040, Note_on_c, 0, 50, 0
1, 41040, Note_on_c, 0, 60, 0
1, 41040, Note_on_c, 0, 67, 63
1, 41040, Note_on_c, 0, 55, 50
1, 41040, Control_c, 0, 64, 0
1, 41189, Control_c, 0, 64, 127
1, 41280, Tempo, 523606
1, 41280, Note_on_c, 0, 59, 27
1, 41280, Note_on_c, 0, 62, 32
1, 41280, Note_on_c, 0, 43, 21
1, 41280, Note_on_c, 0, 50, 30
1, 41520, Tempo, 525901
1, 41520, Note_on_c, 0, 50, 0
1, 41520, Note_on_c, 0, 62, 0
1, 41520, Note_on_c, 0, 59, 0
1, 41520, Note_on_c, 0, 43, 0
1, 41520, Note_on_c, 0, 59, 25
1, 41520, Note_on_c, 0, 62, 30
1, 41520, Note_on_c, 0, 50, 27
1, 41520, Note_on_c, 0, 43, 22
1, 41760, Tempo, 514624
1, 41760, Note_on_c, 0, 43, 0
1, 41760, Note_on_c, 0, 67, 0
1, 41760, Note_on_c, 0, 59, 0
1, 41760, Note_on_c, 0, 55, 0
1, 41760, Note_on_c, 0, 50, 0
1, 41760, Note_on_c, 0, 62, 0
1, 41760, Note_on_c, 0, 62, 28
1, 41760, Note_on_c, 0, 59, 22
1, 41760, Note_on_c, 0, 50, 25
1, 41760, Note_on_c, 0, 43, 22
1, 42000, Tempo, 528216
1, 42000, Note_on_c, 0, 43, 0
1, 42000, Note_on_c, 0, 62, 0
1, 42000, Note_on_c, 0, 59, 0
1, 42000, Note_on_c, 0, 50, 0
1, 42000, Note_on_c, 0, 62, 25
1, 42000, Note_on_c, 0, 59, 22
1, 42000, Note_on_c, 0, 50, 24
1, 42000, Note_on_c, 0, 43, 21
1, 42240, Tempo, 658689
1, 42240, Note_on_c, 0, 43, 0
1, 42240, Note_on_c, 0, 62, 0
1, 42240, Note_on_c, 0, 59, 0
1, 42240, Note_on_c, 0, 50, 0
1, 42240, Note_on_c, 0, 62, 22
1, 42240, Note_on_c, 0, 59, 19
1, 42240, Note_on_c, 0, 50, 22
1, 42240, Note_on_c, 0, 43, 19
1, 42480, Tempo, 495499
1, 42480, Marker_t, "Teil 2 Wiederholung"
1, 42480, Note_on_c, 0, 43, 0
1, 42480, Note_on_c, 0, 62, 0
1, 42480, Note_on_c, 0, 59, 0
1, 42480, Note_on_c, 0, 50, 0
1, 42480, Note_on_c, 0, 74, 54
1, 42480, Note_on_c, 0, 62, 37
1, 42480, Control_c, 0, 64, 0
1, 42546, Control_c, 0, 64, 127
1, 42720, Tempo, 510247
1, 42720, Note_on_c, 0, 71, 34
1, 42720, Note_on_c, 0, 67, 28
1, 42720, Note_on_c, 0, 55, 22
1, 42720, Note_on_c, 0, 59, 26
1, 42960, Tempo, 614188
1, 42960, Note_on_c, 0, 59, 0
1, 42960, Note_on_c, 0, 67, 0
1, 42960, Note_on_c, 0, 71, 0
1, 42960, Note_on_c, 0, 55, 0
1, 42960, Note_on_c, 0, 71, 34
1, 42960, Note_on_c, 0, 67, 28
1, 42960, Note_on_c, 0, 55, 22
1, 42960, Note_on_c, 0, 59, 26
1, 43200, Tempo, 503821
1, 43200, Note_on_c, 0, 59, 0
1, 43200, Note_on_c, 0, 74, 0
1, 43200, Note_on_c, 0, 71, 0
1, 43200, Note_on_c, 0, 62, 0
1, 43200, Note_on_c, 0, 55, 0
1, 43200, Note_on_c, 0, 67, 0
1, 43200, Note_on_c, 0, 76, 59
1, 43200, Note_on_c, 0, 64, 40
1, 43208, Control_c, 0, 64, 0
1, 43320, Control_c, 0, 64, 127
1, 43440, Tempo, 523606
1, 43440, Note_on_c, 0, 71, 38
1, 43440, Note_on_c, 0, 67, 31
1, 43440, Note_on_c, 0, 55, 24
1, 43440, Note_on_c, 0, 59, 28
1, 43680, Tempo, 590609
1, 43680, Note_on_c, 0, 59, 0
1, 43680, Note_on_c, 0, 67, 0
1, 43680, Note_on_c, 0, 71, 0
1, 43680, Note_on_c, 0, 55, 0
1, 43680, Note_on_c, 0, 71, 38
1, 43680, Note_on_c, 0, 67, 31
1, 43680, Note_on_c, 0, 55, 24
1, 43680, Note_on_c, 0, 59, 28
1, 43920, Tempo, 497554
1, 43920, Note_on_c, 0, 59, 0
1, 43920, Note_on_c, 0, 76, 0
1, 43920, Note_on_c, 0, 71, 0
1, 43920, Note_on_c, 0, 64, 0
1, 43920, Note_on_c, 0, 55, 0
1, 43920, Note_on_c, 0, 67, 0
1, 43920, Note_on_c, 0, 76, 64
1, 43920, Note_on_c, 0, 64, 46
1, 43928, Control_c, 0, 64, 0
1, 44054, Control_c, 0, 64, 127
1, 44160, Tempo, 523606
1, 44160, Note_on_c, 0, 69, 33
1, 44160, Note_on_c, 0, 66, 28
1, 44160, Note_on_c, 0, 54, 21
1, 44160, Note_on_c, 0, 57, 24
1, 44400, Tempo, 582016
1, 44400, Note_on_c, 0, 57, 0
1, 44400, Note_on_c, 0, 66, 0
1, 44400, Note_on_c, 0, 69, 0
1, 44400, Note_on_c, 0, 54, 0
1, 44400, Note_on_c, 0, 69, 33
1, 44400, Note_on_c, 0, 66, 28
1, 44400, Note_on_c, 0, 54, 21
1, 44400, Note_on_c, 0, 57, 24
1, 44640, Tempo, 495499
1, 44640, Note_on_c, 0, 57, 0
1, 44640, Note_on_c, 0, 76, 0
1, 44640, Note_on_c, 0, 69, 0
1, 44640, Note_on_c, 0, 64, 0
1, 44640, Note_on_c, 0, 54, 0
1, 44640, Note_on_c, 0, 66, 0
1, 44640, Note_on_c, 0, 74, 54
1, 44640, Note_on_c, 0, 62, 37
1, 44640, Control_c, 0, 64, 0
1, 44706, Control_c, 0, 64, 127
1, 44760, Note_on_c, 0, 74, 0
1, 44880, Tempo, 445467
1, 44880, Note_on_c, 0, 74, 68
1, 44880, Note_on_c, 0, 54, 22
1, 44880, Note_on_c, 0, 57, 26
1, 44960, Note_on_c, 0, 74, 0
1, 44960, Note_on_c, 0, 81, 49
1, 45040, Note_on_c, 0, 81, 0
1, 45040, Note_on_c, 0, 86, 49
1, 45120, Tempo, 582016
1, 45120, Note_on_c, 0, 86, 0
1, 45120, Note_on_c, 0, 57, 0
1, 45120, Note_on_c, 0, 54, 0
1, 45120, Note_on_c, 0, 74, 63
1, 45120, Note_on_c, 0, 54, 18
1, 45120, Note_on_c, 0, 57, 22
1, 45360, Tempo, 495499
1, 45360, Note_on_c, 0, 57, 0
1, 45360, Note_on_c, 0, 62, 0
1, 45360, Note_on_c, 0, 74, 0
1, 45360, Note_on_c, 0, 54, 0
1, 45360, Note_on_c, 0, 74, 54
1, 45360, Note_on_c, 0, 62, 37
1, 45366, Control_c, 0, 64, 0
1, 45534, Control_c, 0, 64, 127
1, 45600, Tempo, 510247
1, 45600, Note_on_c, 0, 67, 34
1, 45600, Note_on_c, 0, 64, 28
1, 45600, Note_on_c, 0, 52, 17
1, 45600, Note_on_c, 0, 55, 20
1, 45840, Tempo, 565558
1, 45840, Note_on_c, 0, 55, 0
1, 45840, Note_on_c, 0, 64, 0
1, 45840, Note_on_c, 0, 67, 0
1, 45840, Note_on_c, 0, 52, 0
1, 45840, Note_on_c, 0, 67, 34
1, 45840, Note_on_c, 0, 64, 28
1, 45840, Note_on_c, 0, 52, 17
1, 45840, Note_on_c, 0, 55, 20
1, 46080, Tempo, 503821
1, 46080, Note_on_c, 0, 55, 0
1, 46080, Note_on_c, 0, 74, 0
1, 46080, Note_on_c, 0, 67, 0
1, 46080, Note_on_c, 0, 62, 0
1, 46080, Note_on_c, 0, 52, 0
1, 46080, Note_on_c, 0, 64, 0
1, 46080, Note_on_c, 0, 72, 59
1, 46080, Note_on_c, 0, 60, 40
1, 46088, Control_c, 0, 64, 0
1, 46200, Control_c, 0, 64, 127
1, 46320, Tempo, 518627
1, 46320, Note_on_c, 0, 67, 38
1, 46320, Note_on_c, 0, 64, 31
1, 46320, Note_on_c, 0, 52, 19
1, 46320, Note_on_c, 0, 55, 22
1, 46560, Tempo, 542054
1, 46560, Note_on_c, 0, 60, 0
1, 46560, Note_on_c, 0, 72, 0
1, 46560, Note_on_c, 0, 74, 45
1, 46560, Note_on_c, 0, 62, 28
1, 46800, Tempo, 497554
1, 46800, Note_on_c, 0, 62, 0
1, 46800, Note_on_c, 0, 55, 0
1, 46800, Note_on_c, 0, 67, 0
1, 46800, Note_on_c, 0, 64, 0
1, 46800, Note_on_c, 0, 74, 0
1, 46800, Note_on_c, 0, 52, 0
1, 46800, Note_on_c, 0, 72, 61
1, 46800, Note_on_c, 0, 60, 46
1, 46800, Control_c, 0, 64, 0
1, 46915, Control_c, 0, 64, 127
1, 47040, Tempo, 523606
1, 47040, Note_on_c, 0, 66, 33
1, 47040, Note_on_c, 0, 63, 28
1, 47040, Note_on_c, 0, 51, 16
1, 47040, Note_on_c, 0, 54, 19
1, 47280, Tempo, 582016
1, 47280, Note_on_c, 0, 54, 0
1, 47280, Note_on_c, 0, 63, 0
1, 47280, Note_on_c, 0, 66, 0
1, 47280, Note_on_c, 0, 51, 0
1, 47280, Note_on_c, 0, 66, 33
1, 47280, Note_on_c, 0, 63, 28
1, 47280, Note_on_c, 0, 51, 16
1, 47280, Note_on_c, 0, 54, 19
1, 47520, Tempo, 495499
1, 47520, Note_on_c, 0, 54, 0
1, 47520, Note_on_c, 0, 72, 0
1, 47520, Note_on_c, 0, 66, 0
1, 47520, Note_on_c, 0, 60, 0
1, 47520, Note_on_c, 0, 51, 0
1, 47520, Note_on_c, 0, 63, 0
1, 47520, Note_on_c, 0, 71, 54
1, 47520, Note_on_c, 0, 59, 37
1, 47520, Control_c, 0, 64, 0
1, 47586, Control_c, 0, 64, 127
1, 47640, Note_on_c, 0, 71, 0
1, 47760, Tempo, 452182
1, 47760, Note_on_c, 0, 71, 66
1, 47760, Note_on_c, 0, 51, 22
1, 47760, Note_on_c, 0, 54, 26
1, 47840, Note_on_c, 0, 71, 0
1, 47840, Note_on_c, 0, 78, 46
1, 47920, Note_on_c, 0, 78, 0
1, 47920, Note_on_c, 0, 83, 46
1, 48000, Tempo, 582016
1, 48000, Note_on_c, 0, 83, 0
1, 48000, Note_on_c, 0, 54, 0
1, 48000, Note_on_c, 0, 51, 0
1, 48000, Note_on_c, 0, 71, 65
1, 48000, Note_on_c, 0, 51, 18
1, 48000, Note_on_c, 0, 54, 22
1, 48240, Tempo, 495499
1, 48240, Note_on_c, 0, 54, 0
1, 48240, Note_on_c, 0, 59, 0
1, 48240, Note_on_c, 0, 71, 0
1, 48240, Note_on_c, 0, 51, 0
1, 48240, Note_on_c, 0, 71, 54
1, 48240, Note_on_c, 0, 59, 37
1, 48240, Control_c, 0, 64, 0
1, 48374, Control_c, 0, 64, 127
1, 48480, Tempo, 510247
1, 48480, Note_on_c, 0, 67, 34
1, 48480, Note_on_c, 0, 62, 28
1, 48480, Note_on_c, 0, 50, 22
1, 48480, Note_on_c, 0, 55, 26
1, 48720, Tempo, 555093
1, 48720, Note_on_c, 0, 55, 0
1, 48720, Note_on_c, 0, 62, 0
1, 48720, Note_on_c, 0, 67, 0
1, 48720, Note_on_c, 0, 50, 0
1, 48720, Note_on_c, 0, 67, 34
1, 48720, Note_on_c, 0, 62, 28
1, 48720, Note_on_c, 0, 50, 22
1, 48720, Note_on_c, 0, 55, 26
1, 48960, Tempo, 503821
1, 48960, Note_on_c, 0, 55, 0
1, 48960, Note_on_c, 0, 71, 0
1, 48960, Note_on_c, 0, 67, 0
1, 48960, Note_on_c, 0, 59, 0
1, 48960, Note_on_c, 0, 50, 0
1, 48960, Note_on_c, 0, 62, 0
1, 48960, Note_on_c, 0, 67, 59
1, 48960, Note_on_c, 0, 55, 40
1, 48968, Control_c, 0, 64, 0
1, 49080, Control_c, 0, 64, 127
1, 49200, Tempo, 523606
1, 49200, Note_on_c, 0, 62, 34
1, 49200, Note_on_c, 0, 59, 28
1, 49200, Note_on_c, 0, 47, 24
1, 49200, Note_on_c, 0, 50, 28
1, 49440, Tempo, 587142
1, 49440, Note_on_c, 0, 50, 0
1, 49440, Note_on_c, 0, 59, 0
1, 49440, Note_on_c, 0, 62, 0
1, 49440, Note_on_c, 0, 47, 0
1, 49440, Note_on_c, 0, 62, 34
1, 49440, Note_on_c, 0, 59, 28
1, 49440, Note_on_c, 0, 47, 24
1, 49440, Note_on_c, 0, 50, 28
1, 49680, Tempo, 497554
1, 49680, Note_on_c, 0, 50, 0
1, 49680, Note_on_c, 0, 67, 0
1, 49680, Note_on_c, 0, 62, 0
1, 49680, Note_on_c, 0, 55, 0
1, 49680, Note_on_c, 0, 47, 0
1, 49680, Note_on_c, 0, 59, 0
1, 49680, Note_on_c, 0, 69, 64
1, 49680, Note_on_c, 0, 57, 49
1, 49680, Control_c, 0, 64, 0
1, 49829, Control_c, 0, 64, 127
1, 49920, Tempo, 523606
1, 49920, Note_on_c, 0, 63, 33
1, 49920, Note_on_c, 0, 67, 39
1, 49920, Note_on_c, 0, 55, 31
1, 49920, Note_on_c, 0, 48, 26
1, 50160, Tempo, 624415
1, 50160, Note_on_c, 0, 48, 0
1, 50160, Note_on_c, 0, 67, 0
1, 50160, Note_on_c, 0, 63, 0
1, 50160, Note_on_c, 0, 55, 0
1, 50160, Note_on_c, 0, 63, 33
1, 50160, Note_on_c, 0, 67, 39
1, 50160, Note_on_c, 0, 55, 31
1, 50160, Note_on_c, 0, 48, 26
1, 50400, Tempo, 495499
1, 50400, Note_on_c, 0, 48, 0
1, 50400, Note_on_c, 0, 69, 0
1, 50400, Note_on_c, 0, 63, 0
1, 50400, Note_on_c, 0, 57, 0
1, 50400, Note_on_c, 0, 55, 0
1, 50400, Note_on_c, 0, 67, 0
1, 50400, Note_on_c, 0, 72, 68
1, 50400, Note_on_c, 0, 60, 54
1, 50400, Control_c, 0, 64, 0
1, 50534, Control_c, 0, 64, 127
1, 50640, Tempo, 510247
1, 50640, Note_on_c, 0, 67, 34
1, 50640, Note_on_c, 0, 69, 41
1, 50640, Note_on_c, 0, 55, 38
1, 50640, Note_on_c, 0, 51, 32
1, 50880, Tempo, 542545
1, 50880, Note_on_c, 0, 51, 0
1, 50880, Note_on_c, 0, 69, 0
1, 50880, Note_on_c, 0, 67, 0
1, 50880, Note_on_c, 0, 55, 0
1, 50880, Note_on_c, 0, 67, 34
1, 50880, Note_on_c, 0, 69, 41
1, 50880, Note_on_c, 0, 55, 38
1, 50880, Note_on_c, 0, 51, 32
1, 51120, Tempo, 503821
1, 51120, Note_on_c, 0, 51, 0
1, 51120, Note_on_c, 0, 72, 0
1, 51120, Note_on_c, 0, 67, 0
1, 51120, Note_on_c, 0, 60, 0
1, 51120, Note_on_c, 0, 55, 0
1, 51120, Note_on_c, 0, 69, 0
1, 51120, Note_on_c, 0, 71, 64
1, 51120, Note_on_c, 0, 59, 51
1, 51128, Control_c, 0, 64, 0
1, 51240, Control_c, 0, 64, 127
1, 51360, Tempo, 523606
1, 51360, Note_on_c, 0, 62, 33
1, 51360, Note_on_c, 0, 67, 39
1, 51360, Note_on_c, 0, 55, 37
1, 51360, Note_on_c, 0, 50, 31
1, 51600, Tempo, 552537
1, 51600, Note_on_c, 0, 50, 0
1, 51600, Note_on_c, 0, 67, 0
1, 51600, Note_on_c, 0, 62, 0
1, 51600, Note_on_c, 0, 55, 0
1, 51600, Note_on_c, 0, 62, 32
1, 51600, Note_on_c, 0, 67, 39
1, 51600, Note_on_c, 0, 55, 37
1, 51600, Note_on_c, 0, 50, 31
1, 51840, Tempo, 505519
1, 51840, Note_on_c, 0, 50, 0
1, 51840, Note_on_c, 0, 71, 0
1, 51840, Note_on_c, 0, 62, 0
1, 51840, Note_on_c, 0, 59, 0
1, 51840, Note_on_c, 0, 55, 0
1, 51840, Note_on_c, 0, 67, 0
1, 51840, Note_on_c, 0, 69, 63
1, 51840, Note_on_c, 0, 57, 50
1, 51840, Control_c, 0, 64, 0
1, 51989, Control_c, 0, 64, 127
1, 52080, Tempo, 523606
1, 52080, Note_on_c, 0, 62, 34
1, 52080, Note_on_c, 0, 60, 29
1, 52080, Note_on_c, 0, 50, 30
1, 52080, Note_on_c, 0, 54, 36
1, 52320, Tempo, 582016
1, 52320, Note_on_c, 0, 54, 0
1, 52320, Note_on_c, 0, 60, 0
1, 52320, Note_on_c, 0, 62, 0
1, 52320, Note_on_c, 0, 50, 0
1, 52320, Note_on_c, 0, 62, 34
1, 52320, Note_on_c, 0, 60, 28
1, 52320, Note_on_c, 0, 50, 31
1, 52320, Note_on_c, 0, 54, 37
1, 52560, Tempo, 501295
1, 52560, Note_on_c, 0, 54, 0
1, 52560, Note_on_c, 0, 69, 0
1, 52560, Note_on_c, 0, 62, 0
1, 52560, Note_on_c, 0, 57, 0
1, 52560, Note_on_c, 0, 50, 0
1, 52560, Note_on_c, 0, 60, 0
1, 52560, Note_on_c, 0, 67, 63
1, 52560, Note_on_c, 0, 55, 50
1, 52560, Control_c, 0, 64, 0
1, 52709, Control_c, 0, 64, 127
1, 52800, Tempo, 523606
1, 52800, Note_on_c, 0, 59, 27
1, 52800, Note_on_c, 0, 62, 32
1, 52800, Note_on_c, 0, 43, 21
1, 52800, Note_on_c, 0, 50, 30
1, 53040, Tempo, 602470
1, 53040, Note_on_c, 0, 50, 0
1, 53040, Note_on_c, 0, 62, 0
1, 53040, Note_on_c, 0, 59, 0
1, 53040, Note_on_c, 0, 43, 0
1, 53040, Note_on_c, 0, 59, 25
1, 53040, Note_on_c, 0, 62, 30
1, 53040, Note_on_c, 0, 50, 27
1, 53040, Note_on_c, 0, 43, 22
1, 53280, Tempo, 514624
1, 53280, Marker_t, "Teil 3"
1, 53280, Note_on_c, 0, 43, 0
1, 53280, Note_on_c, 0, 67, 0
1, 53280, Note_on_c, 0, 59, 0
1, 53280, Note_on_c, 0, 55, 0
1, 53280, Note_on_c, 0, 50, 0
1, 53280, Note_on_c, 0, 62, 0
1, 53280, Note_on_c, 0, 39, 66
1, 53280, Note_on_c, 0, 51, 79
1, 53280, Control_c, 0, 64, 0
1, 53454, Control_c, 0, 64, 127
1, 53520, Tempo, 528216
1, 53520, Note_on_c, 0, 55, 51
1, 53520, Note_on_c, 0, 67, 61
1, 53640, Note_on_c, 0, 67, 0
1, 53640, Note_on_c, 0, 55, 0
1, 53760, Tempo, 568236
1, 53760, Note_on_c, 0, 55, 43
1, 53760, Note_on_c, 0, 67, 52
1, 53880, Note_on_c, 0, 67, 0
1, 53880, Note_on_c, 0, 55, 0
1, 54000, Tempo, 514624
1, 54000, Note_on_c, 0, 51, 0
1, 54000, Note_on_c, 0, 39, 0
1, 54000, Note_on_c, 0, 67, 65
1, 54000, Note_on_c, 0, 55, 55
1, 54000, Note_on_c, 0, 38, 63
1, 54000, Note_on_c, 0, 50, 74
1, 54004, Control_c, 0, 64, 0
1, 54120, Note_on_c, 0, 55, 0
1, 54120, Note_on_c, 0, 67, 0
1, 54120, Control_c, 0, 64, 127
1, 54240, Tempo, 528216
1, 54240, Note_on_c, 0, 55, 48
1, 54240, Note_on_c, 0, 67, 58
1, 54360, Note_on_c, 0, 67, 0
1, 54360, Note_on_c, 0, 55, 0
1, 54480, Tempo, 550005
1, 54480, Note_on_c, 0, 55, 40
1, 54480, Note_on_c, 0, 67, 47
1, 54600, Note_on_c, 0, 67, 0
1, 54600, Note_on_c, 0, 55, 0
1, 54720, Tempo, 514624
1, 54720, Note_on_c, 0, 38, 0
1, 54720, Note_on_c, 0, 50, 0
1, 54720, Note_on_c, 0, 63, 49
1, 54720, Note_on_c, 0, 36, 69
1, 54720, Note_on_c, 0, 48, 81
1, 54720, Control_c, 0, 64, 0
1, 54880, Control_c, 0, 64, 127
1, 54960, Tempo, 528216
1, 54960, Note_on_c, 0, 55, 48
1, 54960, Note_on_c, 0, 67, 57
1, 55080, Note_on_c, 0, 67, 0
1, 55080, Note_on_c, 0, 55, 0
1, 55200, Tempo, 550005
1, 55200, Note_on_c, 0, 55, 41
1, 55200, Note_on_c, 0, 67, 48
1, 55320, Note_on_c, 0, 67, 0
1, 55320, Note_on_c, 0, 55, 0
1, 55440, Tempo, 514624
1, 55440, Note_on_c, 0, 48, 0
1, 55440, Note_on_c, 0, 36, 0
1, 55440, Note_on_c, 0, 63, 0
1, 55440, Note_on_c, 0, 62, 53
1, 55440, Note_on_c, 0, 34, 69
1, 55440, Note_on_c, 0, 46, 81
1, 55449, Control_c, 0, 64, 0
1, 55600, Control_c, 0, 64, 127
1, 55680, Tempo, 528216
1, 55680, Note_on_c, 0, 55, 45
1, 55680, Note_on_c, 0, 67, 53
1, 55800, Note_on_c, 0, 67, 0
1, 55800, Note_on_c, 0, 55, 0
1, 55920, Tempo, 555093
1, 55920, Note_on_c, 0, 67, 41
1, 55920, Note_on_c, 0, 55, 35
1, 56040, Note_on_c, 0, 55, 0
1, 56040, Note_on_c, 0, 67, 0
1, 56160, Tempo, 514624
1, 56160, Note_on_c, 0, 46, 0
1, 56160, Note_on_c, 0, 34, 0
1, 56160, Note_on_c, 0, 62, 0
1, 56160, Note_on_c, 0, 60, 54
1, 56160, Note_on_c, 0, 39, 63
1, 56160, Note_on_c, 0, 51, 74
1, 56167, Control_c, 0, 64, 0
1, 56294, Control_c, 0, 64, 127
1, 56400, Tempo, 528216
1, 56400, Note_on_c, 0, 67, 48
1, 56400, Note_on_c, 0, 55, 41
1, 56520, Note_on_c, 0, 55, 0
1, 56520, Note_on_c, 0, 67, 0
1, 56640, Tempo, 568236
1, 56640, Note_on_c, 0, 67, 41
1, 56640, Note_on_c, 0, 55, 35
1, 56760, Note_on_c, 0, 55, 0
1, 56760, Note_on_c, 0, 67, 0
1, 56880, Tempo, 519076
1, 56880, Note_on_c, 0, 51, 0
1, 56880, Note_on_c, 0, 39, 0
1, 56880, Note_on_c, 0, 60, 0
1, 56880, Note_on_c, 0, 67, 68
1, 56880, Note_on_c, 0, 58, 56
1, 56880, Note_on_c, 0, 55, 56
1, 56883, Control_c, 0, 64, 0
1, 56995, Control_c, 0, 64, 127
1, 57120, Tempo, 540103
1, 57120, Note_on_c, 0, 55, 0
1, 57120, Note_on_c, 0, 58, 0
1, 57120, Note_on_c, 0, 67, 0
1, 57120, Note_on_c, 0, 50, 46
1, 57120, Note_on_c, 0, 38, 39
1, 57360, Tempo, 587717
1, 57360, Note_on_c, 0, 38, 0
1, 57360, Note_on_c, 0, 50, 0
1, 57360, Note_on_c, 0, 50, 40
1, 57360, Note_on_c, 0, 38, 34
1, 57600, Tempo, 568236
1, 57600, Note_on_c, 0, 38, 0
1, 57600, Note_on_c, 0, 50, 0
1, 57600, Note_on_c, 0, 62, 47
1, 57600, Note_on_c, 0, 57, 39
1, 57600, Note_on_c, 0, 54, 39
1, 57600, Control_c, 0, 64, 0
1, 57734, Control_c, 0, 64, 127
1, 57840, Tempo, 599460
1, 57840, Note_on_c, 0, 54, 0
1, 57840, Note_on_c, 0, 57, 0
1, 57840, Note_on_c, 0, 62, 0
1, 57840, Note_on_c, 0, 38, 33
1, 57840, Note_on_c, 0, 50, 39
1, 58080, Tempo, 648018
1, 58080, Note_on_c, 0, 50, 0
1, 58080, Note_on_c, 0, 38, 0
1, 58080, Note_on_c, 0, 38, 28
1, 58080, Note_on_c, 0, 50, 33
1, 58320, Tempo, 579206
1, 58320, Note_on_c, 0, 50, 0
1, 58320, Note_on_c, 0, 38, 0
1, 58320, Note_on_c, 0, 55, 39
1, 58320, Control_c, 0, 64, 0
1, 58435, Control_c, 0, 64, 127
1, 58560, Tempo, 630981
1, 58560, Note_on_c, 0, 55, 0
1, 58560, Note_on_c, 0, 62, 34
1, 58560, Note_on_c, 0, 58, 28
1, 58800, Tempo, 716932
1, 58800, Note_on_c, 0, 58, 0
1, 58800, Note_on_c, 0, 62, 0
1, 58800, Note_on_c, 0, 62, 25
1, 58800, Note_on_c, 0, 58, 21
1, 59040, Key_signature, -2, "major"
1, 59040, Tempo, 453241
1, 59040, Marker_t, "Teil 1 Wiederholung"
1, 59040, Note_on_c, 0, 58, 0
1, 59040, Note_on_c, 0, 62, 0
1, 59040, Note_on_c, 0, 86, 54
1, 59040, Note_on_c, 0, 55, 37
1, 59059, Control_c, 0, 64, 0
1, 59106, Control_c, 0, 64, 127
1, 59120, Note_on_c, 0, 86, 0
1, 59120, Note_on_c, 0, 94, 46
1, 59200, Note_on_c, 0, 94, 0
1, 59200, Note_on_c, 0, 98, 40
1, 59280, Tempo, 572028
1, 59280, Note_on_c, 0, 98, 0
1, 59280, Note_on_c, 0, 86, 50
1, 59280, Note_on_c, 0, 58, 26
1, 59280, Note_on_c, 0, 62, 31
1, 59460, Note_on_c, 0, 62, 0
1, 59460, Note_on_c, 0, 58, 0
1, 59509, Control_c, 0, 64, 0
1, 59520, Tempo, 453241
1, 59520, Note_on_c, 0, 86, 0
1, 59520, Note_on_c, 0, 74, 54
1, 59520, Note_on_c, 0, 58, 26
1, 59520, Note_on_c, 0, 62, 31
1, 59566, Control_c, 0, 64, 127
1, 59600, Note_on_c, 0, 74, 0
1, 59600, Note_on_c, 0, 82, 46
1, 59680, Note_on_c, 0, 82, 0
1, 59680, Note_on_c, 0, 86, 40
1, 59700, Note_on_c, 0, 62, 0
1, 59700, Note_on_c, 0, 58, 0
1, 59760, Tempo, 500793
1, 59760, Note_on_c, 0, 55, 0
1, 59760, Note_on_c, 0, 86, 0
1, 59760, Note_on_c, 0, 74, 59
1, 59760, Note_on_c, 0, 55, 37
1, 59781, Control_c, 0, 64, 0
1, 59880, Control_c, 0, 64, 127
1, 60000, Tempo, 496278
1, 60000, Note_on_c, 0, 74, 0
1, 60000, Note_on_c, 0, 57, 26
1, 60000, Note_on_c, 0, 60, 26
1, 60000, Note_on_c, 0, 63, 31
1, 60180, Note_on_c, 0, 63, 0
1, 60180, Note_on_c, 0, 60, 0
1, 60180, Note_on_c, 0, 57, 0
1, 60240, Tempo, 505433
1, 60240, Note_on_c, 0, 72, 50
1, 60240, Note_on_c, 0, 57, 26
1, 60240, Note_on_c, 0, 60, 26
1, 60240, Note_on_c, 0, 63, 31
1, 60360, Note_on_c, 0, 72, 0
1, 60360, Note_on_c, 0, 70, 49
1, 60420, Note_on_c, 0, 70, 0
1, 60420, Note_on_c, 0, 63, 0
1, 60420, Note_on_c, 0, 60, 0
1, 60420, Note_on_c, 0, 57, 0
1, 60420, Note_on_c, 0, 72, 49
1, 60480, Tempo, 512514
1, 60480, Note_on_c, 0, 72, 0
1, 60480, Note_on_c, 0, 55, 0
1, 60480, Note_on_c, 0, 70, 58
1, 60480, Note_on_c, 0, 54, 37
1, 60512, Control_c, 0, 64, 0
1, 60614, Control_c, 0, 64, 127
1, 60720, Tempo, 494030
1, 60720, Note_on_c, 0, 70, 0
1, 60720, Note_on_c, 0, 60, 26
1, 60720, Note_on_c, 0, 62, 31
1, 60900, Note_on_c, 0, 62, 0
1, 60900, Note_on_c, 0, 60, 0
1, 60960, Tempo, 530082
1, 60960, Note_on_c, 0, 69, 49
1, 60960, Note_on_c, 0, 60, 26
1, 60960, Note_on_c, 0, 62, 31
1, 61080, Note_on_c, 0, 69, 0
1, 61140, Note_on_c, 0, 62, 0
1, 61140, Note_on_c, 0, 60, 0
1, 61140, Note_on_c, 0, 69, 42
1, 61200, Tempo, 498546
1, 61200, Note_on_c, 0, 69, 0
1, 61200, Note_on_c, 0, 54, 0
1, 61200, Note_on_c, 0, 72, 50
1, 61200, Note_on_c, 0, 55, 37
1, 61227, Control_c, 0, 64, 0
1, 61360, Control_c, 0, 64, 127
1, 61440, Note_on_c, 0, 62, 31
1, 61440, Note_on_c, 0, 58, 26
1, 61620, Note_on_c, 0, 58, 0
1, 61620, Note_on_c, 0, 62, 0
1, 61680, Tempo, 553863
1, 61680, Note_on_c, 0, 72, 0
1, 61680, Note_on_c, 0, 70, 46
1, 61680, Note_on_c, 0, 58, 26
1, 61680, Note_on_c, 0, 62, 31
1, 61860, Note_on_c, 0, 62, 0
1, 61860, Note_on_c, 0, 58, 0
1, 61920, Tempo, 453241
1, 61920, Note_on_c, 0, 70, 0
1, 61920, Note_on_c, 0, 55, 0
1, 61920, Note_on_c, 0, 79, 54
1, 61920, Note_on_c, 0, 46, 37
1, 61974, Control_c, 0, 64, 0
1, 62000, Note_on_c, 0, 79, 0
1, 62000, Note_on_c, 0, 86, 46
1, 62012, Control_c, 0, 64, 127
1, 62080, Note_on_c, 0, 86, 0
1, 62080, Note_on_c, 0, 91, 40
1, 62160, Tempo, 556122
1, 62160, Note_on_c, 0, 91, 0
1, 62160, Note_on_c, 0, 79, 50
1, 62160, Note_on_c, 0, 50, 26
1, 62160, Note_on_c, 0, 55, 31
1, 62340, Note_on_c, 0, 55, 0
1, 62340, Note_on_c, 0, 50, 0
1, 62389, Control_c, 0, 64, 0
1, 62400, Tempo, 453241
1, 62400, Note_on_c, 0, 79, 0
1, 62400, Note_on_c, 0, 67, 54
1, 62400, Note_on_c, 0, 50, 26
1, 62400, Note_on_c, 0, 55, 31
1, 62446, Control_c, 0, 64, 127
1, 62480, Note_on_c, 0, 67, 0
1, 62480, Note_on_c, 0, 74, 46
1, 62560, Note_on_c, 0, 74, 0
1, 62560, Note_on_c, 0, 79, 40
1, 62580, Note_on_c, 0, 55, 0
1, 62580, Note_on_c, 0, 50, 0
1, 62640, Tempo, 500793
1, 62640, Note_on_c, 0, 46, 0
1, 62640, Note_on_c, 0, 79, 0
1, 62640, Note_on_c, 0, 67, 59
1, 62640, Note_on_c, 0, 48, 37
1, 62661, Control_c, 0, 64, 0
1, 62760, Control_c, 0, 64, 127
1, 62880, Tempo, 496278
1, 62880, Note_on_c, 0, 67, 0
1, 62880, Note_on_c, 0, 55, 26
1, 62880, Note_on_c, 0, 57, 31
1, 63060, Note_on_c, 0, 57, 0
1, 63060, Note_on_c, 0, 55, 0
1, 63120, Tempo, 505433
1, 63120, Note_on_c, 0, 63, 50
1, 63120, Note_on_c, 0, 55, 26
1, 63120, Note_on_c, 0, 57, 31
1, 63300, Note_on_c, 0, 57, 0
1, 63300, Note_on_c, 0, 55, 0
1, 63360, Tempo, 512514
1, 63360, Note_on_c, 0, 63, 0
1, 63360, Note_on_c, 0, 48, 0
1, 63360, Note_on_c, 0, 62, 58
1, 63360, Note_on_c, 0, 55, 37
1, 63392, Control_c, 0, 64, 0
1, 63600, Tempo, 494030
1, 63600, Note_on_c, 0, 62, 0
1, 63600, Note_on_c, 0, 70, 54
1, 63600, Note_on_c, 0, 54, 26
1, 63600, Note_on_c, 0, 60, 31
1, 63696, Control_c, 0, 64, 127
1, 63780, Note_on_c, 0, 60, 0
1, 63780, Note_on_c, 0, 54, 0
1, 63840, Tempo, 514889
1, 63840, Note_on_c, 0, 70, 0
1, 63840, Note_on_c, 0, 69, 49
1, 63840, Note_on_c, 0, 54, 26
1, 63840, Note_on_c, 0, 60, 31
1, 63957, Note_on_c, 0, 69, 0
1, 63960, Note_on_c, 0, 69, 42
1, 64000, Note_on_c, 0, 70, 42
1, 64020, Note_on_c, 0, 69, 0
1, 64020, Note_on_c, 0, 60, 0
1, 64020, Note_on_c, 0, 54, 0
1, 64060, Note_on_c, 0, 70, 0
1, 64080, Tempo, 498546
1, 64080, Note_on_c, 0, 55, 0
1, 64080, Note_on_c, 0, 69, 50
1, 64080, Note_on_c, 0, 55, 37
1, 64107, Control_c, 0, 64, 0
1, 64240, Control_c, 0, 64, 127
1, 64320, Note_on_c, 0, 62, 31
1, 64320, Note_on_c, 0, 58, 26
1, 64500, Note_on_c, 0, 58, 0
1, 64500, Note_on_c, 0, 62, 0
1, 64560, Tempo, 557155
1, 64560, Note_on_c, 0, 69, 0
1, 64560, Note_on_c, 0, 67, 46
1, 64560, Note_on_c, 0, 58, 26
1, 64560, Note_on_c, 0, 62, 31
1, 64740, Note_on_c, 0, 62, 0
1, 64740, Note_on_c, 0, 58, 0
1, 64800, Tempo, 453241
1, 64800, Note_on_c, 0, 67, 0
1, 64800, Note_on_c, 0, 55, 0
1, 64800, Note_on_c, 0, 86, 54
1, 64800, Note_on_c, 0, 55, 37
1, 64800, Control_c, 0, 64, 0
1, 64866, Control_c, 0, 64, 127
1, 64880, Note_on_c, 0, 86, 0
1, 64880, Note_on_c, 0, 94, 46
1, 64960, Note_on_c, 0, 94, 0
1, 64960, Note_on_c, 0, 98, 40
1, 65040, Tempo, 553557
1, 65040, Note_on_c, 0, 98, 0
1, 65040, Note_on_c, 0, 86, 50
1, 65040, Note_on_c, 0, 58, 26
1, 65040, Note_on_c, 0, 62, 31
1, 65220, Note_on_c, 0, 62, 0
1, 65220, Note_on_c, 0, 58, 0
1, 65269, Control_c, 0, 64, 0
1, 65280, Tempo, 453241
1, 65280, Note_on_c, 0, 86, 0
1, 65280, Note_on_c, 0, 74, 54
1, 65280, Note_on_c, 0, 58, 26
1, 65280, Note_on_c, 0, 62, 31
1, 65326, Control_c, 0, 64, 127
1, 65360, Note_on_c, 0, 74, 0
1, 65360, Note_on_c, 0, 82, 46
1, 65440, Note_on_c, 0, 82, 0
1, 65440, Note_on_c, 0, 86, 40
1, 65460, Note_on_c, 0, 62, 0
1, 65460, Note_on_c, 0, 58, 0
1, 65520, Tempo, 500793
1, 65520, Note_on_c, 0, 55, 0
1, 65520, Note_on_c, 0, 86, 0
1, 65520, Note_on_c, 0, 74, 59
1, 65520, Note_on_c, 0, 55, 37
1, 65541, Control_c, 0, 64, 0
1, 65640, Control_c, 0, 64, 127
1, 65760, Tempo, 496278
1, 65760, Note_on_c, 0, 74, 0
1, 65760, Note_on_c, 0, 57, 26
1, 65760, Note_on_c, 0, 60, 26
1, 65760, Note_on_c, 0, 63, 31
1, 65940, Note_on_c, 0, 63, 0
1, 65940, Note_on_c, 0, 60, 0
1, 65940, Note_on_c, 0, 57, 0
1, 66000, Tempo, 505433
1, 66000, Note_on_c, 0, 72, 50
1, 66000, Note_on_c, 0, 57, 26
1, 66000, Note_on_c, 0, 60, 26
1, 66000, Note_on_c, 0, 63, 31
1, 66120, Note_on_c, 0, 72, 0
1, 66120, Note_on_c, 0, 70, 49
1, 66180, Note_on_c, 0, 70, 0
1, 66180, Note_on_c, 0, 63, 0
1, 66180, Note_on_c, 0, 60, 0
1, 66180, Note_on_c, 0, 57, 0
1, 66180, Note_on_c, 0, 72, 49
1, 66240, Tempo, 512514
1, 66240, Note_on_c, 0, 72, 0
1, 66240, Note_on_c, 0, 55, 0
1, 66240, Note_on_c, 0, 70, 58
1, 66240, Note_on_c, 0, 54, 37
1, 66272, Control_c, 0, 64, 0
1, 66374, Control_c, 0, 64, 127
1, 66480, Tempo, 494030
1, 66480, Note_on_c, 0, 70, 0
1, 66480, Note_on_c, 0, 60, 26
1, 66480, Note_on_c, 0, 62, 31
1, 66660, Note_on_c, 0, 62, 0
1, 66660, Note_on_c, 0, 60, 0
1, 66720, Tempo, 525440
1, 66720, Note_on_c, 0, 69, 49
1, 66720, Note_on_c, 0, 60, 26
1, 66720, Note_on_c, 0, 62, 31
1, 66840, Note_on_c, 0, 69, 0
1, 66900, Note_on_c, 0, 62, 0
1, 66900, Note_on_c, 0, 60, 0
1, 66900, Note_on_c, 0, 69, 42
1, 66960, Tempo, 498546
1, 66960, Note_on_c, 0, 69, 0
1, 66960, Note_on_c, 0, 54, 0
1, 66960, Note_on_c, 0, 72, 50
1, 66960, Note_on_c, 0, 55, 37
1, 66987, Control_c, 0, 64, 0
1, 67120, Control_c, 0, 64, 127
1, 67200, Note_on_c, 0, 62, 31
1, 67200, Note_on_c, 0, 58, 26
1, 67380, Note_on_c, 0, 58, 0
1, 67380, Note_on_c, 0, 62, 0
1, 67440, Tempo, 545603
1, 67440, Note_on_c, 0, 72, 0
1, 67440, Note_on_c, 0, 70, 46
1, 67440, Note_on_c, 0, 58, 26
1, 67440, Note_on_c, 0, 62, 31
1, 67620, Note_on_c, 0, 62, 0
1, 67620, Note_on_c, 0, 58, 0
1, 67680, Tempo, 453241
1, 67680, Note_on_c, 0, 70, 0
1, 67680, Note_on_c, 0, 55, 0
1, 67680, Note_on_c, 0, 79, 54
1, 67680, Note_on_c, 0, 46, 37
1, 67734, Control_c, 0, 64, 0
1, 67760, Note_on_c, 0, 79, 0
1, 67760, Note_on_c, 0, 86, 46
1, 67772, Control_c, 0, 64, 127
1, 67840, Note_on_c, 0, 86, 0
1, 67840, Note_on_c, 0, 91, 40
1, 67920, Tempo, 548496
1, 67920, Note_on_c, 0, 91, 0
1, 67920, Note_on_c, 0, 79, 50
1, 67920, Note_on_c, 0, 50, 26
1, 67920, Note_on_c, 0, 55, 31
1, 68100, Note_on_c, 0, 55, 0
1, 68100, Note_on_c, 0, 50, 0
1, 68149, Control_c, 0, 64, 0
1, 68160, Tempo, 453241
1, 68160, Note_on_c, 0, 79, 0
1, 68160, Note_on_c, 0, 67, 54
1, 68160, Note_on_c, 0, 50, 26
1, 68160, Note_on_c, 0, 55, 31
1, 68206, Control_c, 0, 64, 127
1, 68240, Note_on_c, 0, 67, 0
1, 68240, Note_on_c, 0, 74, 46
1, 68320, Note_on_c, 0, 74, 0
1, 68320, Note_on_c, 0, 79, 40
1, 68340, Note_on_c, 0, 55, 0
1, 68340, Note_on_c, 0, 50, 0
1, 68400, Tempo, 500793
1, 68400, Note_on_c, 0, 46, 0
1, 68400, Note_on_c, 0, 79, 0
1, 68400, Note_on_c, 0, 67, 59
1, 68400, Note_on_c, 0, 48, 37
1, 68421, Control_c, 0, 64, 0
1, 68520, Control_c, 0, 64, 127
1, 68640, Tempo, 496278
1, 68640, Note_on_c, 0, 67, 0
1, 68640, Note_on_c, 0, 55, 26
1, 68640, Note_on_c, 0, 57, 31
1, 68820, Note_on_c, 0, 57, 0
1, 68820, Note_on_c, 0, 55, 0
1, 68880, Tempo, 505433
1, 68880, Note_on_c, 0, 63, 50
1, 68880, Note_on_c, 0, 55, 26
1, 68880, Note_on_c, 0, 57, 31
1, 69060, Note_on_c, 0, 57, 0
1, 69060, Note_on_c, 0, 55, 0
1, 69120, Tempo, 512514
1, 69120, Note_on_c, 0, 63, 0
1, 69120, Note_on_c, 0, 48, 0
1, 69120, Note_on_c, 0, 62, 58
1, 69120, Note_on_c, 0, 55, 37
1, 69152, Control_c, 0, 64, 0
1, 69360, Tempo, 494030
1, 69360, Note_on_c, 0, 62, 0
1, 69360, Note_on_c, 0, 70, 54
1, 69360, Note_on_c, 0, 54, 26
1, 69360, Note_on_c, 0, 60, 31
1, 69438, Control_c, 0, 64, 127
1, 69540, Note_on_c, 0, 60, 0
1, 69540, Note_on_c, 0, 54, 0
1, 69600, Tempo, 514889
1, 69600, Note_on_c, 0, 70, 0
1, 69600, Note_on_c, 0, 69, 49
1, 69600, Note_on_c, 0, 54, 26
1, 69600, Note_on_c, 0, 60, 31
1, 69717, Note_on_c, 0, 69, 0
1, 69720, Note_on_c, 0, 69, 42
1, 69760, Note_on_c, 0, 70, 42
1, 69780, Note_on_c, 0, 69, 0
1, 69780, Note_on_c, 0, 60, 0
1, 69780, Note_on_c, 0, 54, 0
1, 69820, Note_on_c, 0, 70, 0
1, 69840, Tempo, 498546
1, 69840, Note_on_c, 0, 55, 0
1, 69840, Note_on_c, 0, 69, 50
1, 69840, Note_on_c, 0, 55, 37
1, 69867, Control_c, 0, 64, 0
1, 70000, Control_c, 0, 64, 127
1, 70080, Note_on_c, 0, 62, 31
1, 70080, Note_on_c, 0, 58, 26
1, 70260, Note_on_c, 0, 58, 0
1, 70260, Note_on_c, 0, 62, 0
1, 70320, Tempo, 556690
1, 70320, Note_on_c, 0, 69, 0
1, 70320, Note_on_c, 0, 67, 46
1, 70320, Note_on_c, 0, 58, 26
1, 70320, Note_on_c, 0, 62, 31
1, 70500, Note_on_c, 0, 62, 0
1, 70500, Note_on_c, 0, 58, 0
1, 70560, Tempo, 453241
1, 70560, Note_on_c, 0, 67, 0
1, 70560, Note_on_c, 0, 55, 0
1, 70560, Note_on_c, 0, 77, 54
1, 70560, Note_on_c, 0, 50, 37
1, 70560, Control_c, 0, 64, 0
1, 70626, Control_c, 0, 64, 127
1, 70640, Note_on_c, 0, 77, 0
1, 70640, Note_on_c, 0, 82, 46
1, 70720, Note_on_c, 0, 82, 0
1, 70720, Note_on_c, 0, 89, 40
1, 70800, Tempo, 553557
1, 70800, Note_on_c, 0, 89, 0
1, 70800, Note_on_c, 0, 77, 50
1, 70800, Note_on_c, 0, 53, 26
1, 70800, Note_on_c, 0, 58, 31
1, 70980, Note_on_c, 0, 58, 0
1, 70980, Note_on_c, 0, 53, 0
1, 71029, Control_c, 0, 64, 0
1, 71040, Tempo, 453241
1, 71040, Note_on_c, 0, 77, 0
1, 71040, Note_on_c, 0, 65, 54
1, 71040, Note_on_c, 0, 53, 26
1, 71040, Note_on_c, 0, 58, 31
1, 71086, Control_c, 0, 64, 127
1, 71120, Note_on_c, 0, 65, 0
1, 71120, Note_on_c, 0, 74, 46
1, 71200, Note_on_c, 0, 74, 0
1, 71200, Note_on_c, 0, 77, 40
1, 71220, Note_on_c, 0, 58, 0
1, 71220, Note_on_c, 0, 53, 0
1, 71280, Tempo, 500793
1, 71280, Note_on_c, 0, 50, 0
1, 71280, Note_on_c, 0, 77, 0
1, 71280, Note_on_c, 0, 65, 59
1, 71280, Note_on_c, 0, 48, 37
1, 71301, Control_c, 0, 64, 0
1, 71400, Control_c, 0, 64, 127
1, 71520, Tempo, 496278
1, 71520, Note_on_c, 0, 65, 0
1, 71520, Note_on_c, 0, 55, 26
1, 71520, Note_on_c, 0, 58, 31
1, 71700, Note_on_c, 0, 58, 0
1, 71700, Note_on_c, 0, 55, 0
1, 71760, Tempo, 505433
1, 71760, Note_on_c, 0, 63, 50
1, 71760, Note_on_c, 0, 55, 26
1, 71760, Note_on_c, 0, 58, 31
1, 71880, Note_on_c, 0, 63, 0
1, 71940, Note_on_c, 0, 58, 0
1, 71940, Note_on_c, 0, 55, 0
1, 72000, Tempo, 470736
1, 72000, Note_on_c, 0, 48, 0
1, 72000, Note_on_c, 0, 63, 58
1, 72000, Note_on_c, 0, 41, 37
1, 72032, Control_c, 0, 64, 0
1, 72080, Note_on_c, 0, 63, 0
1, 72080, Note_on_c, 0, 65, 48
1, 72134, Control_c, 0, 64, 127
1, 72160, Note_on_c, 0, 65, 0
1, 72160, Note_on_c, 0, 63, 48
1, 72240, Tempo, 494030
1, 72240, Note_on_c, 0, 63, 0
1, 72240, Note_on_c, 0, 62, 55
1, 72240, Note_on_c, 0, 53, 26
1, 72240, Note_on_c, 0, 57, 31
1, 72268, Control_c, 0, 64, 0
1, 72420, Note_on_c, 0, 57, 0
1, 72420, Note_on_c, 0, 53, 0
1, 72480, Tempo, 545603
1, 72480, Note_on_c, 0, 62, 0
1, 72480, Note_on_c, 0, 60, 50
1, 72480, Note_on_c, 0, 53, 26
1, 72480, Note_on_c, 0, 57, 31
1, 72600, Note_on_c, 0, 60, 0
1, 72660, Note_on_c, 0, 57, 0
1, 72660, Note_on_c, 0, 53, 0
1, 72660, Note_on_c, 0, 60, 45
1, 72720, Tempo, 498546
1, 72720, Note_on_c, 0, 60, 0
1, 72720, Note_on_c, 0, 41, 0
1, 72720, Note_on_c, 0, 63, 50
1, 72720, Note_on_c, 0, 46, 37
1, 72880, Control_c, 0, 64, 127
1, 72960, Note_on_c, 0, 58, 31
1, 72960, Note_on_c, 0, 53, 26
1, 73140, Note_on_c, 0, 53, 0
1, 73140, Note_on_c, 0, 58, 0
1, 73200, Tempo, 512514
1, 73200, Note_on_c, 0, 63, 0
1, 73200, Note_on_c, 0, 62, 46
1, 73200, Note_on_c, 0, 53, 26
1, 73200, Note_on_c, 0, 58, 31
1, 73380, Note_on_c, 0, 58, 0
1, 73380, Note_on_c, 0, 53, 0
1, 73440, Tempo, 453241
1, 73440, Note_on_c, 0, 62, 0
1, 73440, Note_on_c, 0, 46, 0
1, 73440, Note_on_c, 0, 74, 54
1, 73440, Note_on_c, 0, 46, 37
1, 73440, Control_c, 0, 64, 0
1, 73506, Control_c, 0, 64, 127
1, 73520, Note_on_c, 0, 74, 0
1, 73520, Note_on_c, 0, 79, 46
1, 73600, Note_on_c, 0, 79, 0
1, 73600, Note_on_c, 0, 86, 40
1, 73680, Tempo, 556122
1, 73680, Note_on_c, 0, 86, 0
1, 73680, Note_on_c, 0, 74, 50
1, 73680, Note_on_c, 0, 50, 26
1, 73680, Note_on_c, 0, 55, 31
1, 73860, Note_on_c, 0, 55, 0
1, 73860, Note_on_c, 0, 50, 0
1, 73909, Control_c, 0, 64, 0
1, 73920, Tempo, 453241
1, 73920, Note_on_c, 0, 74, 0
1, 73920, Note_on_c, 0, 62, 54
1, 73920, Note_on_c, 0, 50, 26
1, 73920, Note_on_c, 0, 55, 31
1, 73966, Control_c, 0, 64, 127
1, 74000, Note_on_c, 0, 62, 0
1, 74000, Note_on_c, 0, 67, 46
1, 74080, Note_on_c, 0, 67, 0
1, 74080, Note_on_c, 0, 74, 40
1, 74100, Note_on_c, 0, 55, 0
1, 74100, Note_on_c, 0, 50, 0
1, 74160, Tempo, 500793
1, 74160, Note_on_c, 0, 46, 0
1, 74160, Note_on_c, 0, 74, 0
1, 74160, Note_on_c, 0, 62, 59
1, 74160, Note_on_c, 0, 45, 37
1, 74181, Control_c, 0, 64, 0
1, 74280, Control_c, 0, 64, 127
1, 74400, Tempo, 496278
1, 74400, Note_on_c, 0, 62, 0
1, 74400, Note_on_c, 0, 51, 26
1, 74400, Note_on_c, 0, 55, 31
1, 74580, Note_on_c, 0, 55, 0
1, 74580, Note_on_c, 0, 51, 0
1, 74640, Tempo, 505433
1, 74640, Note_on_c, 0, 60, 50
1, 74640, Note_on_c, 0, 51, 26
1, 74640, Note_on_c, 0, 55, 31
1, 74760, Note_on_c, 0, 60, 0
1, 74820, Note_on_c, 0, 55, 0
1, 74820, Note_on_c, 0, 51, 0
1, 74880, Tempo, 470736
1, 74880, Note_on_c, 0, 45, 0
1, 74880, Note_on_c, 0, 60, 58
1, 74880, Note_on_c, 0, 38, 37
1, 74912, Control_c, 0, 64, 0
1, 74960, Note_on_c, 0, 60, 0
1, 74960, Note_on_c, 0, 62, 48
1, 75014, Control_c, 0, 64, 127
1, 75040, Note_on_c, 0, 62, 0
1, 75040, Note_on_c, 0, 60, 48
1, 75120, Tempo, 494030
1, 75120, Note_on_c, 0, 60, 0
1, 75120, Note_on_c, 0, 38, 0
1, 75120, Note_on_c, 0, 58, 55
1, 75120, Note_on_c, 0, 50, 26
1, 75120, Note_on_c, 0, 54, 31
1, 75152, Control_c, 0, 64, 0
1, 75300, Note_on_c, 0, 54, 0
1, 75300, Note_on_c, 0, 50, 0
1, 75360, Tempo, 545603
1, 75360, Note_on_c, 0, 58, 0
1, 75360, Note_on_c, 0, 57, 50
1, 75360, Note_on_c, 0, 50, 26
1, 75360, Note_on_c, 0, 54, 31
1, 75480, Note_on_c, 0, 57, 0
1, 75520, Note_on_c, 0, 57, 45
1, 75540, Note_on_c, 0, 54, 0
1, 75540, Note_on_c, 0, 50, 0
1, 75580, Note_on_c, 0, 57, 0
1, 75600, Tempo, 498546
1, 75600, Note_on_c, 0, 60, 50
1, 75600, Note_on_c, 0, 43, 37
1, 75760, Control_c, 0, 64, 127
1, 75840, Note_on_c, 0, 55, 31
1, 75840, Note_on_c, 0, 50, 26
1, 76020, Note_on_c, 0, 50, 0
1, 76020, Note_on_c, 0, 55, 0
1, 76080, Tempo, 548346
1, 76080, Note_on_c, 0, 60, 0
1, 76080, Note_on_c, 0, 58, 46
1, 76080, Note_on_c, 0, 50, 26
1, 76080, Note_on_c, 0, 55, 31
1, 76260, Note_on_c, 0, 55, 0
1, 76260, Note_on_c, 0, 50, 0
1, 76320, Tempo, 440529
1, 76320, Note_on_c, 0, 58, 0
1, 76320, Note_on_c, 0, 43, 0
1, 76320, Note_on_c, 0, 67, 54
1, 76320, Note_on_c, 0, 39, 33
1, 76320, Note_on_c, 0, 51, 40
1, 76334, Control_c, 0, 64, 0
1, 76386, Control_c, 0, 64, 127
1, 76400, Note_on_c, 0, 67, 0
1, 76400, Note_on_c, 0, 75, 46
1, 76440, Note_on_c, 0, 51, 0
1, 76440, Note_on_c, 0, 39, 0
1, 76480, Note_on_c, 0, 75, 0
1, 76480, Note_on_c, 0, 79, 40
1, 76560, Tempo, 487448
1, 76560, Note_on_c, 0, 79, 0
1, 76560, Note_on_c, 0, 67, 57
1, 76560, Note_on_c, 0, 50, 42
1, 76560, Note_on_c, 0, 38, 34
1, 76560, Control_c, 0, 64, 0
1, 76680, Note_on_c, 0, 38, 0
1, 76680, Note_on_c, 0, 50, 0
1, 76800, Tempo, 505433
1, 76800, Note_on_c, 0, 67, 0
1, 76800, Note_on_c, 0, 51, 46
1, 76800, Note_on_c, 0, 39, 38
1, 76920, Note_on_c, 0, 39, 0
1, 76920, Note_on_c, 0, 51, 0
1, 77040, Tempo, 435287
1, 77040, Note_on_c, 0, 68, 59
1, 77040, Note_on_c, 0, 36, 36
1, 77040, Note_on_c, 0, 48, 44
1, 77054, Control_c, 0, 64, 0
1, 77106, Control_c, 0, 64, 127
1, 77120, Note_on_c, 0, 68, 0
1, 77120, Note_on_c, 0, 75, 50
1, 77160, Note_on_c, 0, 48, 0
1, 77160, Note_on_c, 0, 36, 0
1, 77200, Note_on_c, 0, 75, 0
1, 77200, Note_on_c, 0, 80, 44
1, 77280, Tempo, 487448
1, 77280, Note_on_c, 0, 80, 0
1, 77280, Note_on_c, 0, 68, 50
1, 77280, Note_on_c, 0, 47, 46
1, 77280, Note_on_c, 0, 35, 37
1, 77280, Control_c, 0, 64, 0
1, 77400, Note_on_c, 0, 35, 0
1, 77400, Note_on_c, 0, 47, 0
1, 77520, Tempo, 500793
1, 77520, Note_on_c, 0, 68, 0
1, 77520, Note_on_c, 0, 36, 33
1, 77520, Note_on_c, 0, 48, 37
1, 77640, Note_on_c, 0, 48, 0
1, 77640, Note_on_c, 0, 36, 0
1, 77760, Tempo, 433557
1, 77760, Note_on_c, 0, 66, 64
1, 77760, Note_on_c, 0, 38, 40
1, 77760, Note_on_c, 0, 50, 49
1, 77774, Control_c, 0, 64, 0
1, 77826, Control_c, 0, 64, 127
1, 77840, Note_on_c, 0, 66, 0
1, 77840, Note_on_c, 0, 72, 55
1, 77880, Note_on_c, 0, 50, 0
1, 77880, Note_on_c, 0, 38, 0
1, 77920, Note_on_c, 0, 72, 0
1, 77920, Note_on_c, 0, 78, 48
1, 78000, Tempo, 476607
1, 78000, Note_on_c, 0, 78, 0
1, 78000, Note_on_c, 0, 66, 68
1, 78000, Note_on_c, 0, 49, 50
1, 78000, Note_on_c, 0, 37, 42
1, 78000, Control_c, 0, 64, 0
1, 78120, Note_on_c, 0, 37, 0
1, 78120, Note_on_c, 0, 49, 0
1, 78240, Tempo, 496278
1, 78240, Note_on_c, 0, 66, 0
1, 78240, Note_on_c, 0, 50, 55
1, 78240, Note_on_c, 0, 38, 44
1, 78360, Note_on_c, 0, 38, 0
1, 78360, Note_on_c, 0, 50, 0
1, 78480, Tempo, 428480
1, 78480, Note_on_c, 0, 67, 67
1, 78480, Note_on_c, 0, 34, 46
1, 78480, Note_on_c, 0, 46, 55
1, 78494, Control_c, 0, 64, 0
1, 78546, Control_c, 0, 64, 127
1, 78560, Note_on_c, 0, 67, 0
1, 78560, Note_on_c, 0, 74, 57
1, 78600, Note_on_c, 0, 46, 0
1, 78600, Note_on_c, 0, 34, 0
1, 78640, Note_on_c, 0, 74, 0
1, 78640, Note_on_c, 0, 79, 50
1, 78720, Tempo, 463714
1, 78720, Note_on_c, 0, 79, 0
1, 78720, Note_on_c, 0, 67, 57
1, 78720, Note_on_c, 0, 45, 57
1, 78720, Note_on_c, 0, 33, 47
1, 78720, Control_c, 0, 64, 0
1, 78840, Note_on_c, 0, 33, 0
1, 78840, Note_on_c, 0, 45, 0
1, 78960, Tempo, 492247
1, 78960, Note_on_c, 0, 67, 0
1, 78960, Note_on_c, 0, 34, 40
1, 78960, Note_on_c, 0, 46, 47
1, 79080, Note_on_c, 0, 46, 0
1, 79080, Note_on_c, 0, 34, 0
1, 79200, Tempo, 425864
1, 79200, Note_on_c, 0, 63, 73
1, 79200, Note_on_c, 0, 36, 46
1, 79200, Note_on_c, 0, 48, 56
1, 79214, Control_c, 0, 64, 0
1, 79266, Control_c, 0, 64, 127
1, 79280, Note_on_c, 0, 63, 0
1, 79280, Note_on_c, 0, 67, 63
1, 79320, Note_on_c, 0, 48, 0
1, 79320, Note_on_c, 0, 36, 0
1, 79360, Note_on_c, 0, 67, 0
1, 79360, Note_on_c, 0, 75, 55
1, 79440, Tempo, 461929
1, 79440, Note_on_c, 0, 75, 0
1, 79440, Note_on_c, 0, 63, 78
1, 79440, Note_on_c, 0, 47, 57
1, 79440, Note_on_c, 0, 35, 48
1, 79440, Control_c, 0, 64, 0
1, 79560, Note_on_c, 0, 35, 0
1, 79560, Note_on_c, 0, 47, 0
1, 79680, Tempo, 490236
1, 79680, Note_on_c, 0, 63, 0
1, 79680, Note_on_c, 0, 48, 62
1, 79680, Note_on_c, 0, 36, 50
1, 79800, Note_on_c, 0, 36, 0
1, 79800, Note_on_c, 0, 48, 0
1, 79920, Tempo, 436999
1, 79920, Note_on_c, 0, 60, 80
1, 79920, Note_on_c, 0, 39, 50
1, 79920, Note_on_c, 0, 51, 60
1, 79934, Control_c, 0, 64, 0
1, 79986, Control_c, 0, 64, 127
1, 80000, Note_on_c, 0, 60, 0
1, 80000, Note_on_c, 0, 67, 69
1, 80040, Note_on_c, 0, 51, 0
1, 80040, Note_on_c, 0, 39, 0
1, 80080, Note_on_c, 0, 67, 0
1, 80080, Note_on_c, 0, 72, 59
1, 80160, Tempo, 519526
1, 80160, Note_on_c, 0, 72, 0
1, 80160, Note_on_c, 0, 60, 85
1, 80160, Note_on_c, 0, 50, 62
1, 80160, Note_on_c, 0, 38, 52
1, 80160, Control_c, 0, 64, 0
1, 80280, Note_on_c, 0, 38, 0
1, 80280, Note_on_c, 0, 50, 0
1, 80400, Tempo, 558191
1, 80400, Note_on_c, 0, 60, 0
1, 80400, Note_on_c, 0, 51, 68
1, 80400, Note_on_c, 0, 39, 56
1, 80520, Note_on_c, 0, 39, 0
1, 80520, Note_on_c, 0, 51, 0
1, 80640, Tempo, 480038
1, 80640, Note_on_c, 0, 62, 85
1, 80640, Note_on_c, 0, 38, 49
1, 80640, Note_on_c, 0, 50, 58
1, 80654, Control_c, 0, 64, 0
1, 80706, Control_c, 0, 64, 127
1, 80720, Note_on_c, 0, 62, 0
1, 80720, Note_on_c, 0, 67, 74
1, 80760, Note_on_c, 0, 50, 0
1, 80760, Note_on_c, 0, 38, 0
1, 80800, Note_on_c, 0, 67, 0
1, 80800, Note_on_c, 0, 62, 64
1, 80880, Tempo, 526362
1, 80880, Note_on_c, 0, 62, 0
1, 80880, Note_on_c, 0, 61, 86
1, 80880, Note_on_c, 0, 37, 48
1, 80880, Note_on_c, 0, 49, 57
1, 80880, Control_c, 0, 64, 0
1, 80960, Tempo, 529801
1, 81000, Note_on_c, 0, 49, 0
1, 81000, Note_on_c, 0, 37, 0
1, 81000, Note_on_c, 0, 61, 0
1, 81120, Tempo, 571483
1, 81120, Note_on_c, 0, 62, 93
1, 81120, Note_on_c, 0, 38, 57
1, 81120, Note_on_c, 0, 50, 67
1, 81240, Note_on_c, 0, 50, 0
1, 81240, Note_on_c, 0, 38, 0
1, 81240, Note_on_c, 0, 62, 0
1, 81360, Tempo, 612307
1, 81360, Note_on_c, 0, 67, 96
1, 81360, Note_on_c, 0, 55, 80
1, 81360, Note_on_c, 0, 43, 67
1, 81431, Control_c, 0, 64, 127
1, 81480, Note_on_c, 0, 43, 0
1, 81480, Note_on_c, 0, 55, 0
1, 81480, Note_on_c, 0, 67, 0
1, 81600, Tempo, 562377
1, 81600, Note_on_c, 0, 67, 87
1, 81600, Note_on_c, 0, 70, 87
1, 81600, Note_on_c, 0, 79, 103
1, 81600, Note_on_c, 0, 55, 78
1, 81600, Note_on_c, 0, 50, 65
1, 81600, Note_on_c, 0, 43, 65
1, 81720, Note_on_c, 0, 43, 0
1, 81720, Note_on_c, 0, 70, 0
1, 81720, Note_on_c, 0, 79, 0
1, 81720, Note_on_c, 0, 67, 0
1, 81720, Note_on_c, 0, 50, 0
1, 81720, Note_on_c, 0, 55, 0
1, 81840, Control_c, 0, 64, 0
1, 81840, End_track
0, 0, End_of_file
