0, 0, Header, 0, 1, 480
1, 0, Start_track
1, 0, Title_t, "Etueden Opus 109"
1, 0, Title_t, "Erwachen im Walde"
1, 0, Copyright_t, "Copyright © 2012 by Bernd Krueger"
1, 0, Text_t, "Friedrich Buergmueller"
1, 0, Text_t, "Allegro"
1, 0, Text_t, "Erstellt am  13.3.2012\012"
1, 0, Text_t, "Dauer: 1:21 Minuten\012"
1, 0, SMPTE_offset, 96, 0, 3, 0, 0
1, 0, Time_signature, 4, 2, 24, 8
1, 0, Key_signature, -1, "major"
1, 0, Tempo, 379747
1, 0, Marker_t, "Teil 1"
1, 0, Program_c, 0, 0
1, 0, Control_c, 0, 7, 127
1, 0, Control_c, 0, 10, 64
1, 0, Note_on_c, 0, 72, 50
1, 0, Program_c, 0, 0
1, 0, Control_c, 0, 7, 127
1, 0, Control_c, 0, 10, 64
1, 120, Note_on_c, 0, 72, 0
1, 240, Note_on_c, 0, 84, 41
1, 360, Note_on_c, 0, 84, 0
1, 480, Note_on_c, 0, 72, 47
1, 600, Note_on_c, 0, 72, 0
1, 720, Note_on_c, 0, 84, 40
1, 840, Note_on_c, 0, 84, 0
1, 960, Note_on_c, 0, 72, 49
1, 960, Note_on_c, 0, 69, 26
1, 960, Note_on_c, 0, 65, 20
1, 960, Note_on_c, 0, 60, 20
1, 1080, Note_on_c, 0, 72, 0
1, 1200, Note_on_c, 0, 84, 40
1, 1320, Note_on_c, 0, 84, 0
1, 1440, Note_on_c, 0, 72, 56
1, 1460, Tempo, 380952
1, 1560, Note_on_c, 0, 72, 0
1, 1640, Tempo, 379747
1, 1680, Note_on_c, 0, 84, 49
1, 1800, Note_on_c, 0, 84, 0
1, 1820, Tempo, 378549
1, 1920, Note_on_c, 0, 60, 0
1, 1920, Note_on_c, 0, 65, 0
1, 1920, Note_on_c, 0, 69, 0
1, 1920, Note_on_c, 0, 72, 61
1, 1920, Note_on_c, 0, 64, 28
1, 1920, Note_on_c, 0, 67, 36
1, 1920, Note_on_c, 0, 58, 28
1, 1920, Note_on_c, 0, 60, 28
1, 1980, Tempo, 377358
1, 2040, Note_on_c, 0, 72, 0
1, 2160, Note_on_c, 0, 84, 52
1, 2280, Note_on_c, 0, 84, 0
1, 2400, Tempo, 379747
1, 2400, Note_on_c, 0, 72, 63
1, 2520, Note_on_c, 0, 72, 0
1, 2640, Note_on_c, 0, 84, 55
1, 2760, Note_on_c, 0, 84, 0
1, 2880, Tempo, 387097
1, 2880, Note_on_c, 0, 60, 0
1, 2880, Note_on_c, 0, 64, 0
1, 2880, Note_on_c, 0, 67, 0
1, 2880, Note_on_c, 0, 58, 0
1, 2880, Note_on_c, 0, 72, 68
1, 2880, Note_on_c, 0, 57, 38
1, 2880, Note_on_c, 0, 60, 38
1, 2880, Note_on_c, 0, 63, 38
1, 2880, Note_on_c, 0, 66, 48
1, 3000, Note_on_c, 0, 72, 0
1, 3120, Note_on_c, 0, 84, 59
1, 3240, Note_on_c, 0, 84, 0
1, 3360, Tempo, 392157
1, 3360, Note_on_c, 0, 72, 63
1, 3480, Note_on_c, 0, 72, 0
1, 3600, Note_on_c, 0, 84, 51
1, 3720, Note_on_c, 0, 84, 0
1, 3840, Tempo, 378549
1, 3840, Note_on_c, 0, 66, 0
1, 3840, Note_on_c, 0, 57, 0
1, 3840, Note_on_c, 0, 60, 0
1, 3840, Note_on_c, 0, 63, 0
1, 3840, Note_on_c, 0, 72, 58
1, 3840, Note_on_c, 0, 67, 34
1, 3840, Note_on_c, 0, 64, 27
1, 3840, Note_on_c, 0, 60, 27
1, 3840, Note_on_c, 0, 58, 27
1, 3960, Note_on_c, 0, 72, 0
1, 4080, Note_on_c, 0, 60, 0
1, 4080, Note_on_c, 0, 67, 0
1, 4080, Note_on_c, 0, 64, 0
1, 4080, Note_on_c, 0, 58, 0
1, 4080, Note_on_c, 0, 84, 41
1, 4200, Note_on_c, 0, 84, 0
1, 4320, Note_on_c, 0, 72, 47
1, 4440, Note_on_c, 0, 72, 0
1, 4560, Tempo, 400534
1, 4560, Note_on_c, 0, 84, 52
1, 4560, Note_on_c, 0, 48, 43
1, 4560, Note_on_c, 0, 60, 52
1, 4680, Note_on_c, 0, 60, 0
1, 4680, Note_on_c, 0, 48, 0
1, 4680, Note_on_c, 0, 84, 0
1, 4800, Tempo, 387597
1, 4800, Note_on_c, 0, 72, 64
1, 4800, Note_on_c, 0, 60, 62
1, 4800, Note_on_c, 0, 48, 52
1, 4814, Control_c, 0, 64, 127
1, 4920, Note_on_c, 0, 72, 0
1, 5026, Control_c, 0, 64, 0
1, 5040, Note_on_c, 0, 84, 34
1, 5160, Note_on_c, 0, 84, 0
1, 5280, Note_on_c, 0, 48, 0
1, 5280, Note_on_c, 0, 60, 0
1, 5280, Note_on_c, 0, 72, 46
1, 5400, Note_on_c, 0, 72, 0
1, 5520, Tempo, 401875
1, 5520, Note_on_c, 0, 84, 51
1, 5520, Note_on_c, 0, 48, 42
1, 5520, Note_on_c, 0, 60, 51
1, 5640, Note_on_c, 0, 60, 0
1, 5640, Note_on_c, 0, 48, 0
1, 5640, Note_on_c, 0, 84, 0
1, 5760, Tempo, 387597
1, 5760, Note_on_c, 0, 72, 63
1, 5760, Note_on_c, 0, 60, 66
1, 5760, Note_on_c, 0, 48, 56
1, 5760, Control_c, 0, 64, 127
1, 5880, Note_on_c, 0, 72, 0
1, 6000, Note_on_c, 0, 84, 43
1, 6021, Control_c, 0, 64, 0
1, 6120, Note_on_c, 0, 84, 0
1, 6240, Note_on_c, 0, 48, 0
1, 6240, Note_on_c, 0, 60, 0
1, 6240, Note_on_c, 0, 72, 55
1, 6360, Note_on_c, 0, 72, 0
1, 6480, Tempo, 401875
1, 6480, Note_on_c, 0, 84, 50
1, 6480, Note_on_c, 0, 60, 53
1, 6480, Note_on_c, 0, 48, 45
1, 6600, Note_on_c, 0, 48, 0
1, 6600, Note_on_c, 0, 60, 0
1, 6600, Note_on_c, 0, 84, 0
1, 6720, Tempo, 387597
1, 6720, Note_on_c, 0, 72, 63
1, 6720, Note_on_c, 0, 60, 66
1, 6720, Note_on_c, 0, 48, 56
1, 6780, Control_c, 0, 64, 127
1, 6840, Note_on_c, 0, 72, 0
1, 6946, Control_c, 0, 64, 0
1, 6960, Note_on_c, 0, 84, 38
1, 7080, Note_on_c, 0, 84, 0
1, 7200, Tempo, 393959
1, 7200, Note_on_c, 0, 48, 0
1, 7200, Note_on_c, 0, 60, 0
1, 7200, Note_on_c, 0, 72, 47
1, 7320, Note_on_c, 0, 72, 0
1, 7440, Tempo, 419580
1, 7440, Note_on_c, 0, 84, 39
1, 7560, Note_on_c, 0, 84, 0
1, 7680, Tempo, 389610
1, 7680, Marker_t, "Teil 2"
1, 7680, Note_on_c, 0, 72, 37
1, 7680, Note_on_c, 0, 60, 31
1, 7680, Note_on_c, 0, 57, 24
1, 7680, Note_on_c, 0, 53, 24
1, 7800, Note_on_c, 0, 53, 0
1, 7800, Note_on_c, 0, 72, 0
1, 7800, Note_on_c, 0, 60, 0
1, 7800, Note_on_c, 0, 57, 0
1, 7920, Note_on_c, 0, 84, 35
1, 7920, Note_on_c, 0, 53, 16
1, 7920, Note_on_c, 0, 57, 16
1, 7920, Note_on_c, 0, 60, 20
1, 8040, Note_on_c, 0, 60, 0
1, 8040, Note_on_c, 0, 84, 0
1, 8040, Note_on_c, 0, 53, 0
1, 8040, Note_on_c, 0, 57, 0
1, 8160, Tempo, 383387
1, 8160, Note_on_c, 0, 77, 39
1, 8160, Note_on_c, 0, 60, 31
1, 8160, Note_on_c, 0, 57, 24
1, 8160, Note_on_c, 0, 53, 24
1, 8280, Note_on_c, 0, 53, 0
1, 8280, Note_on_c, 0, 77, 0
1, 8280, Note_on_c, 0, 60, 0
1, 8280, Note_on_c, 0, 57, 0
1, 8400, Note_on_c, 0, 89, 38
1, 8400, Note_on_c, 0, 53, 18
1, 8400, Note_on_c, 0, 57, 18
1, 8400, Note_on_c, 0, 60, 23
1, 8520, Note_on_c, 0, 60, 0
1, 8520, Note_on_c, 0, 89, 0
1, 8520, Note_on_c, 0, 53, 0
1, 8520, Note_on_c, 0, 57, 0
1, 8640, Tempo, 377358
1, 8640, Note_on_c, 0, 81, 41
1, 8640, Note_on_c, 0, 53, 28
1, 8640, Note_on_c, 0, 57, 28
1, 8640, Note_on_c, 0, 60, 36
1, 8760, Note_on_c, 0, 60, 0
1, 8760, Note_on_c, 0, 81, 0
1, 8760, Note_on_c, 0, 53, 0
1, 8760, Note_on_c, 0, 57, 0
1, 8880, Note_on_c, 0, 93, 40
1, 8880, Note_on_c, 0, 53, 19
1, 8880, Note_on_c, 0, 57, 19
1, 8880, Note_on_c, 0, 60, 24
1, 9000, Note_on_c, 0, 60, 0
1, 9000, Note_on_c, 0, 93, 0
1, 9000, Note_on_c, 0, 53, 0
1, 9000, Note_on_c, 0, 57, 0
1, 9120, Tempo, 380952
1, 9120, Note_on_c, 0, 79, 46
1, 9120, Note_on_c, 0, 53, 29
1, 9120, Note_on_c, 0, 57, 29
1, 9120, Note_on_c, 0, 60, 37
1, 9240, Note_on_c, 0, 60, 0
1, 9240, Note_on_c, 0, 79, 0
1, 9240, Note_on_c, 0, 53, 0
1, 9240, Note_on_c, 0, 57, 0
1, 9360, Tempo, 396040
1, 9360, Note_on_c, 0, 91, 42
1, 9360, Note_on_c, 0, 53, 19
1, 9360, Note_on_c, 0, 57, 19
1, 9360, Note_on_c, 0, 60, 24
1, 9480, Note_on_c, 0, 60, 0
1, 9480, Note_on_c, 0, 91, 0
1, 9480, Note_on_c, 0, 53, 0
1, 9480, Note_on_c, 0, 57, 0
1, 9600, Tempo, 382166
1, 9600, Note_on_c, 0, 77, 49
1, 9600, Note_on_c, 0, 53, 30
1, 9600, Note_on_c, 0, 57, 30
1, 9600, Note_on_c, 0, 61, 38
1, 9720, Note_on_c, 0, 61, 0
1, 9720, Note_on_c, 0, 77, 0
1, 9720, Note_on_c, 0, 53, 0
1, 9720, Note_on_c, 0, 57, 0
1, 9840, Note_on_c, 0, 89, 43
1, 9840, Note_on_c, 0, 61, 24
1, 9840, Note_on_c, 0, 57, 19
1, 9840, Note_on_c, 0, 53, 19
1, 9960, Note_on_c, 0, 53, 0
1, 9960, Note_on_c, 0, 89, 0
1, 9960, Note_on_c, 0, 61, 0
1, 9960, Note_on_c, 0, 57, 0
1, 10080, Note_on_c, 0, 76, 49
1, 10080, Note_on_c, 0, 53, 33
1, 10080, Note_on_c, 0, 57, 33
1, 10080, Note_on_c, 0, 61, 42
1, 10200, Note_on_c, 0, 61, 0
1, 10200, Note_on_c, 0, 76, 0
1, 10200, Note_on_c, 0, 53, 0
1, 10200, Note_on_c, 0, 57, 0
1, 10320, Note_on_c, 0, 88, 46
1, 10320, Note_on_c, 0, 61, 27
1, 10320, Note_on_c, 0, 57, 21
1, 10320, Note_on_c, 0, 53, 21
1, 10440, Note_on_c, 0, 53, 0
1, 10440, Note_on_c, 0, 88, 0
1, 10440, Note_on_c, 0, 61, 0
1, 10440, Note_on_c, 0, 57, 0
1, 10560, Tempo, 378549
1, 10560, Note_on_c, 0, 79, 58
1, 10560, Note_on_c, 0, 62, 47
1, 10560, Note_on_c, 0, 57, 37
1, 10560, Note_on_c, 0, 53, 37
1, 10680, Note_on_c, 0, 53, 0
1, 10680, Note_on_c, 0, 79, 0
1, 10680, Note_on_c, 0, 62, 0
1, 10680, Note_on_c, 0, 57, 0
1, 10800, Note_on_c, 0, 91, 41
1, 10800, Note_on_c, 0, 53, 21
1, 10800, Note_on_c, 0, 57, 21
1, 10800, Note_on_c, 0, 62, 27
1, 10920, Note_on_c, 0, 62, 0
1, 10920, Note_on_c, 0, 91, 0
1, 10920, Note_on_c, 0, 53, 0
1, 10920, Note_on_c, 0, 57, 0
1, 11040, Tempo, 383387
1, 11040, Note_on_c, 0, 77, 51
1, 11040, Note_on_c, 0, 53, 29
1, 11040, Note_on_c, 0, 57, 29
1, 11040, Note_on_c, 0, 62, 37
1, 11160, Note_on_c, 0, 62, 0
1, 11160, Note_on_c, 0, 77, 0
1, 11160, Note_on_c, 0, 53, 0
1, 11160, Note_on_c, 0, 57, 0
1, 11280, Tempo, 397351
1, 11280, Note_on_c, 0, 89, 42
1, 11280, Note_on_c, 0, 53, 19
1, 11280, Note_on_c, 0, 57, 19
1, 11280, Note_on_c, 0, 62, 24
1, 11400, Note_on_c, 0, 62, 0
1, 11400, Note_on_c, 0, 89, 0
1, 11400, Note_on_c, 0, 53, 0
1, 11400, Note_on_c, 0, 57, 0
1, 11520, Tempo, 387097
1, 11520, Note_on_c, 0, 76, 50
1, 11520, Note_on_c, 0, 55, 33
1, 11520, Note_on_c, 0, 58, 33
1, 11520, Note_on_c, 0, 62, 42
1, 11520, Note_on_c, 0, 53, 33
1, 11640, Note_on_c, 0, 53, 0
1, 11640, Note_on_c, 0, 58, 0
1, 11640, Note_on_c, 0, 76, 0
1, 11640, Note_on_c, 0, 55, 0
1, 11640, Note_on_c, 0, 62, 0
1, 11760, Note_on_c, 0, 88, 39
1, 11760, Note_on_c, 0, 62, 27
1, 11760, Note_on_c, 0, 58, 21
1, 11760, Note_on_c, 0, 55, 21
1, 11760, Note_on_c, 0, 53, 21
1, 11880, Note_on_c, 0, 53, 0
1, 11880, Note_on_c, 0, 58, 0
1, 11880, Note_on_c, 0, 88, 0
1, 11880, Note_on_c, 0, 62, 0
1, 11880, Note_on_c, 0, 55, 0
1, 12000, Tempo, 382166
1, 12000, Note_on_c, 0, 74, 44
1, 12000, Note_on_c, 0, 55, 24
1, 12000, Note_on_c, 0, 62, 31
1, 12000, Note_on_c, 0, 58, 24
1, 12000, Note_on_c, 0, 53, 24
1, 12120, Note_on_c, 0, 53, 0
1, 12120, Note_on_c, 0, 62, 0
1, 12120, Note_on_c, 0, 74, 0
1, 12120, Note_on_c, 0, 55, 0
1, 12120, Note_on_c, 0, 58, 0
1, 12240, Note_on_c, 0, 86, 40
1, 12240, Note_on_c, 0, 55, 18
1, 12240, Note_on_c, 0, 53, 18
1, 12240, Note_on_c, 0, 58, 18
1, 12240, Note_on_c, 0, 62, 23
1, 12360, Note_on_c, 0, 62, 0
1, 12360, Note_on_c, 0, 53, 0
1, 12360, Note_on_c, 0, 86, 0
1, 12360, Note_on_c, 0, 55, 0
1, 12360, Note_on_c, 0, 58, 0
1, 12480, Tempo, 384615
1, 12480, Note_on_c, 0, 67, 44
1, 12480, Note_on_c, 0, 55, 28
1, 12480, Note_on_c, 0, 53, 28
1, 12480, Note_on_c, 0, 58, 28
1, 12480, Note_on_c, 0, 62, 36
1, 12600, Note_on_c, 0, 62, 0
1, 12600, Note_on_c, 0, 53, 0
1, 12600, Note_on_c, 0, 67, 0
1, 12600, Note_on_c, 0, 55, 0
1, 12600, Note_on_c, 0, 58, 0
1, 12720, Note_on_c, 0, 79, 43
1, 12720, Note_on_c, 0, 55, 19
1, 12720, Note_on_c, 0, 53, 19
1, 12720, Note_on_c, 0, 58, 19
1, 12720, Note_on_c, 0, 62, 24
1, 12840, Note_on_c, 0, 62, 0
1, 12840, Note_on_c, 0, 53, 0
1, 12840, Note_on_c, 0, 79, 0
1, 12840, Note_on_c, 0, 55, 0
1, 12840, Note_on_c, 0, 58, 0
1, 12960, Tempo, 385852
1, 12960, Note_on_c, 0, 69, 48
1, 12960, Note_on_c, 0, 55, 29
1, 12960, Note_on_c, 0, 53, 29
1, 12960, Note_on_c, 0, 58, 29
1, 12960, Note_on_c, 0, 62, 37
1, 13080, Note_on_c, 0, 62, 0
1, 13080, Note_on_c, 0, 53, 0
1, 13080, Note_on_c, 0, 69, 0
1, 13080, Note_on_c, 0, 55, 0
1, 13080, Note_on_c, 0, 58, 0
1, 13200, Tempo, 392157
1, 13200, Note_on_c, 0, 81, 45
1, 13200, Note_on_c, 0, 55, 19
1, 13200, Note_on_c, 0, 53, 19
1, 13200, Note_on_c, 0, 58, 19
1, 13200, Note_on_c, 0, 62, 24
1, 13320, Note_on_c, 0, 62, 0
1, 13320, Note_on_c, 0, 53, 0
1, 13320, Note_on_c, 0, 81, 0
1, 13320, Note_on_c, 0, 55, 0
1, 13320, Note_on_c, 0, 58, 0
1, 13440, Tempo, 384615
1, 13440, Note_on_c, 0, 70, 58
1, 13440, Note_on_c, 0, 52, 30
1, 13440, Note_on_c, 0, 55, 30
1, 13440, Note_on_c, 0, 60, 38
1, 13560, Note_on_c, 0, 60, 0
1, 13560, Note_on_c, 0, 70, 0
1, 13560, Note_on_c, 0, 52, 0
1, 13560, Note_on_c, 0, 55, 0
1, 13680, Note_on_c, 0, 82, 51
1, 13680, Note_on_c, 0, 60, 24
1, 13680, Note_on_c, 0, 55, 19
1, 13680, Note_on_c, 0, 52, 19
1, 13800, Note_on_c, 0, 52, 0
1, 13800, Note_on_c, 0, 82, 0
1, 13800, Note_on_c, 0, 60, 0
1, 13800, Note_on_c, 0, 55, 0
1, 13920, Tempo, 384615
1, 13920, Note_on_c, 0, 71, 53
1, 13920, Note_on_c, 0, 52, 33
1, 13920, Note_on_c, 0, 55, 33
1, 13920, Note_on_c, 0, 60, 42
1, 14040, Note_on_c, 0, 60, 0
1, 14040, Note_on_c, 0, 71, 0
1, 14040, Note_on_c, 0, 52, 0
1, 14040, Note_on_c, 0, 55, 0
1, 14160, Tempo, 393443
1, 14160, Note_on_c, 0, 83, 50
1, 14160, Note_on_c, 0, 60, 27
1, 14160, Note_on_c, 0, 55, 21
1, 14160, Note_on_c, 0, 52, 21
1, 14280, Note_on_c, 0, 52, 0
1, 14280, Note_on_c, 0, 83, 0
1, 14280, Note_on_c, 0, 60, 0
1, 14280, Note_on_c, 0, 55, 0
1, 14400, Tempo, 389610
1, 14400, Note_on_c, 0, 72, 58
1, 14400, Note_on_c, 0, 60, 47
1, 14400, Note_on_c, 0, 55, 37
1, 14400, Note_on_c, 0, 52, 37
1, 14520, Note_on_c, 0, 52, 0
1, 14520, Note_on_c, 0, 72, 0
1, 14520, Note_on_c, 0, 60, 0
1, 14520, Note_on_c, 0, 55, 0
1, 14640, Note_on_c, 0, 84, 43
1, 14640, Note_on_c, 0, 52, 21
1, 14640, Note_on_c, 0, 55, 21
1, 14640, Note_on_c, 0, 60, 27
1, 14760, Note_on_c, 0, 60, 0
1, 14760, Note_on_c, 0, 84, 0
1, 14760, Note_on_c, 0, 52, 0
1, 14760, Note_on_c, 0, 55, 0
1, 14880, Tempo, 397351
1, 14880, Note_on_c, 0, 70, 52
1, 14880, Note_on_c, 0, 52, 29
1, 14880, Note_on_c, 0, 55, 29
1, 14880, Note_on_c, 0, 60, 37
1, 15000, Note_on_c, 0, 60, 0
1, 15000, Note_on_c, 0, 70, 0
1, 15000, Note_on_c, 0, 52, 0
1, 15000, Note_on_c, 0, 55, 0
1, 15120, Tempo, 418118
1, 15120, Note_on_c, 0, 82, 43
1, 15120, Note_on_c, 0, 52, 19
1, 15120, Note_on_c, 0, 55, 19
1, 15120, Note_on_c, 0, 60, 24
1, 15240, Note_on_c, 0, 60, 0
1, 15240, Note_on_c, 0, 82, 0
1, 15240, Note_on_c, 0, 52, 0
1, 15240, Note_on_c, 0, 55, 0
1, 15360, Tempo, 392157
1, 15360, Note_on_c, 0, 72, 55
1, 15360, Note_on_c, 0, 53, 29
1, 15360, Note_on_c, 0, 57, 29
1, 15360, Note_on_c, 0, 60, 37
1, 15480, Note_on_c, 0, 60, 0
1, 15480, Note_on_c, 0, 72, 0
1, 15480, Note_on_c, 0, 53, 0
1, 15480, Note_on_c, 0, 57, 0
1, 15600, Note_on_c, 0, 84, 46
1, 15600, Note_on_c, 0, 60, 24
1, 15600, Note_on_c, 0, 57, 19
1, 15600, Note_on_c, 0, 53, 19
1, 15720, Note_on_c, 0, 53, 0
1, 15720, Note_on_c, 0, 84, 0
1, 15720, Note_on_c, 0, 60, 0
1, 15720, Note_on_c, 0, 57, 0
1, 15840, Tempo, 384615
1, 15840, Note_on_c, 0, 77, 55
1, 15840, Note_on_c, 0, 53, 32
1, 15840, Note_on_c, 0, 57, 32
1, 15840, Note_on_c, 0, 60, 40
1, 15960, Note_on_c, 0, 60, 0
1, 15960, Note_on_c, 0, 77, 0
1, 15960, Note_on_c, 0, 53, 0
1, 15960, Note_on_c, 0, 57, 0
1, 16080, Tempo, 393443
1, 16080, Note_on_c, 0, 89, 44
1, 16080, Note_on_c, 0, 60, 28
1, 16080, Note_on_c, 0, 57, 21
1, 16080, Note_on_c, 0, 53, 21
1, 16200, Note_on_c, 0, 53, 0
1, 16200, Note_on_c, 0, 89, 0
1, 16200, Note_on_c, 0, 60, 0
1, 16200, Note_on_c, 0, 57, 0
1, 16320, Tempo, 383387
1, 16320, Note_on_c, 0, 77, 62
1, 16320, Note_on_c, 0, 67, 47
1, 16320, Note_on_c, 0, 57, 36
1, 16320, Note_on_c, 0, 61, 36
1, 16440, Note_on_c, 0, 61, 0
1, 16440, Note_on_c, 0, 77, 0
1, 16440, Note_on_c, 0, 67, 0
1, 16440, Note_on_c, 0, 57, 0
1, 16560, Note_on_c, 0, 89, 52
1, 16560, Note_on_c, 0, 67, 31
1, 16560, Note_on_c, 0, 57, 24
1, 16560, Note_on_c, 0, 61, 24
1, 16680, Note_on_c, 0, 61, 0
1, 16680, Note_on_c, 0, 89, 0
1, 16680, Note_on_c, 0, 67, 0
1, 16680, Note_on_c, 0, 57, 0
1, 16800, Note_on_c, 0, 76, 64
1, 16800, Note_on_c, 0, 67, 44
1, 16800, Note_on_c, 0, 57, 35
1, 16800, Note_on_c, 0, 61, 35
1, 16920, Note_on_c, 0, 61, 0
1, 16920, Note_on_c, 0, 76, 0
1, 16920, Note_on_c, 0, 67, 0
1, 16920, Note_on_c, 0, 57, 0
1, 17040, Tempo, 397351
1, 17040, Note_on_c, 0, 88, 50
1, 17040, Note_on_c, 0, 67, 30
1, 17040, Note_on_c, 0, 57, 24
1, 17040, Note_on_c, 0, 61, 24
1, 17160, Note_on_c, 0, 61, 0
1, 17160, Note_on_c, 0, 88, 0
1, 17160, Note_on_c, 0, 67, 0
1, 17160, Note_on_c, 0, 57, 0
1, 17280, Tempo, 385852
1, 17280, Note_on_c, 0, 76, 72
1, 17280, Note_on_c, 0, 67, 50
1, 17280, Note_on_c, 0, 61, 38
1, 17280, Note_on_c, 0, 58, 38
1, 17400, Note_on_c, 0, 58, 0
1, 17400, Note_on_c, 0, 76, 0
1, 17400, Note_on_c, 0, 67, 0
1, 17400, Note_on_c, 0, 61, 0
1, 17520, Note_on_c, 0, 88, 65
1, 17520, Note_on_c, 0, 67, 33
1, 17520, Note_on_c, 0, 61, 26
1, 17520, Note_on_c, 0, 58, 26
1, 17640, Note_on_c, 0, 58, 0
1, 17640, Note_on_c, 0, 88, 0
1, 17640, Note_on_c, 0, 67, 0
1, 17640, Note_on_c, 0, 61, 0
1, 17760, Note_on_c, 0, 74, 70
1, 17760, Note_on_c, 0, 65, 49
1, 17760, Note_on_c, 0, 62, 39
1, 17760, Note_on_c, 0, 58, 39
1, 17880, Note_on_c, 0, 58, 0
1, 17880, Note_on_c, 0, 74, 0
1, 17880, Note_on_c, 0, 65, 0
1, 17880, Note_on_c, 0, 62, 0
1, 18000, Tempo, 391134
1, 18000, Note_on_c, 0, 86, 57
1, 18000, Note_on_c, 0, 58, 22
1, 18000, Note_on_c, 0, 62, 22
1, 18000, Note_on_c, 0, 65, 28
1, 18120, Note_on_c, 0, 65, 0
1, 18120, Note_on_c, 0, 86, 0
1, 18120, Note_on_c, 0, 58, 0
1, 18120, Note_on_c, 0, 62, 0
1, 18240, Tempo, 384615
1, 18240, Note_on_c, 0, 72, 63
1, 18240, Note_on_c, 0, 69, 47
1, 18240, Note_on_c, 0, 62, 36
1, 18240, Note_on_c, 0, 58, 36
1, 18360, Note_on_c, 0, 58, 0
1, 18360, Note_on_c, 0, 72, 0
1, 18360, Note_on_c, 0, 69, 0
1, 18360, Note_on_c, 0, 62, 0
1, 18480, Note_on_c, 0, 84, 49
1, 18480, Note_on_c, 0, 69, 27
1, 18480, Note_on_c, 0, 62, 21
1, 18480, Note_on_c, 0, 58, 21
1, 18600, Note_on_c, 0, 58, 0
1, 18600, Note_on_c, 0, 84, 0
1, 18600, Note_on_c, 0, 69, 0
1, 18600, Note_on_c, 0, 62, 0
1, 18720, Note_on_c, 0, 70, 58
1, 18720, Note_on_c, 0, 67, 46
1, 18720, Note_on_c, 0, 62, 36
1, 18720, Note_on_c, 0, 58, 36
1, 18840, Note_on_c, 0, 58, 0
1, 18840, Note_on_c, 0, 70, 0
1, 18840, Note_on_c, 0, 67, 0
1, 18840, Note_on_c, 0, 62, 0
1, 18960, Tempo, 397351
1, 18960, Note_on_c, 0, 82, 48
1, 18960, Note_on_c, 0, 67, 29
1, 18960, Note_on_c, 0, 62, 23
1, 18960, Note_on_c, 0, 58, 23
1, 19080, Note_on_c, 0, 58, 0
1, 19080, Note_on_c, 0, 82, 0
1, 19080, Note_on_c, 0, 67, 0
1, 19080, Note_on_c, 0, 62, 0
1, 19200, Tempo, 385852
1, 19200, Note_on_c, 0, 69, 60
1, 19200, Note_on_c, 0, 60, 39
1, 19200, Note_on_c, 0, 65, 46
1, 19320, Note_on_c, 0, 65, 0
1, 19320, Note_on_c, 0, 60, 0
1, 19320, Note_on_c, 0, 69, 0
1, 19440, Note_on_c, 0, 81, 48
1, 19440, Note_on_c, 0, 65, 28
1, 19440, Note_on_c, 0, 60, 24
1, 19560, Note_on_c, 0, 60, 0
1, 19560, Note_on_c, 0, 65, 0
1, 19560, Note_on_c, 0, 81, 0
1, 19680, Note_on_c, 0, 65, 58
1, 19680, Note_on_c, 0, 57, 36
1, 19680, Note_on_c, 0, 60, 44
1, 19800, Note_on_c, 0, 60, 0
1, 19800, Note_on_c, 0, 57, 0
1, 19800, Note_on_c, 0, 65, 0
1, 19920, Tempo, 392157
1, 19920, Note_on_c, 0, 77, 50
1, 19920, Note_on_c, 0, 60, 29
1, 19920, Note_on_c, 0, 57, 24
1, 20040, Note_on_c, 0, 57, 0
1, 20040, Note_on_c, 0, 60, 0
1, 20040, Note_on_c, 0, 77, 0
1, 20160, Tempo, 384615
1, 20160, Note_on_c, 0, 65, 66
1, 20160, Note_on_c, 0, 61, 49
1, 20160, Note_on_c, 0, 58, 41
1, 20160, Note_on_c, 0, 55, 41
1, 20280, Note_on_c, 0, 55, 0
1, 20280, Note_on_c, 0, 65, 0
1, 20280, Note_on_c, 0, 61, 0
1, 20280, Note_on_c, 0, 58, 0
1, 20400, Note_on_c, 0, 77, 60
1, 20400, Note_on_c, 0, 61, 35
1, 20400, Note_on_c, 0, 58, 28
1, 20400, Note_on_c, 0, 55, 28
1, 20520, Note_on_c, 0, 55, 0
1, 20520, Note_on_c, 0, 77, 0
1, 20520, Note_on_c, 0, 61, 0
1, 20520, Note_on_c, 0, 58, 0
1, 20640, Tempo, 385852
1, 20640, Note_on_c, 0, 64, 64
1, 20640, Note_on_c, 0, 60, 54
1, 20640, Note_on_c, 0, 58, 44
1, 20640, Note_on_c, 0, 55, 44
1, 20760, Note_on_c, 0, 55, 0
1, 20760, Note_on_c, 0, 64, 0
1, 20760, Note_on_c, 0, 60, 0
1, 20760, Note_on_c, 0, 58, 0
1, 20880, Tempo, 397351
1, 20880, Note_on_c, 0, 76, 51
1, 20880, Note_on_c, 0, 60, 37
1, 20880, Note_on_c, 0, 58, 31
1, 20880, Note_on_c, 0, 55, 31
1, 21000, Note_on_c, 0, 55, 0
1, 21000, Note_on_c, 0, 76, 0
1, 21000, Note_on_c, 0, 60, 0
1, 21000, Note_on_c, 0, 58, 0
1, 21120, Tempo, 382166
1, 21120, Note_on_c, 0, 65, 59
1, 21120, Note_on_c, 0, 60, 43
1, 21120, Note_on_c, 0, 57, 36
1, 21120, Note_on_c, 0, 53, 36
1, 21240, Note_on_c, 0, 53, 0
1, 21240, Note_on_c, 0, 65, 0
1, 21240, Note_on_c, 0, 60, 0
1, 21240, Note_on_c, 0, 57, 0
1, 21360, Tempo, 394737
1, 21360, Note_on_c, 0, 77, 52
1, 21360, Note_on_c, 0, 53, 31
1, 21360, Note_on_c, 0, 57, 31
1, 21360, Note_on_c, 0, 60, 36
1, 21480, Note_on_c, 0, 60, 0
1, 21480, Note_on_c, 0, 77, 0
1, 21480, Note_on_c, 0, 53, 0
1, 21480, Note_on_c, 0, 57, 0
1, 21600, Tempo, 385852
1, 21600, Note_on_c, 0, 70, 67
1, 21600, Note_on_c, 0, 62, 50
1, 21600, Note_on_c, 0, 53, 42
1, 21720, Note_on_c, 0, 53, 0
1, 21720, Note_on_c, 0, 62, 0
1, 21720, Note_on_c, 0, 70, 0
1, 21840, Tempo, 393443
1, 21840, Note_on_c, 0, 82, 55
1, 21840, Note_on_c, 0, 53, 35
1, 21840, Note_on_c, 0, 62, 42
1, 21960, Note_on_c, 0, 62, 0
1, 21960, Note_on_c, 0, 53, 0
1, 21960, Note_on_c, 0, 82, 0
1, 22080, Tempo, 393443
1, 22080, Note_on_c, 0, 69, 62
1, 22080, Note_on_c, 0, 53, 41
1, 22080, Note_on_c, 0, 60, 49
1, 22200, Note_on_c, 0, 60, 0
1, 22200, Note_on_c, 0, 53, 0
1, 22200, Note_on_c, 0, 69, 0
1, 22320, Note_on_c, 0, 81, 56
1, 22320, Note_on_c, 0, 60, 39
1, 22320, Note_on_c, 0, 53, 32
1, 22440, Note_on_c, 0, 53, 0
1, 22440, Note_on_c, 0, 60, 0
1, 22440, Note_on_c, 0, 81, 0
1, 22560, Tempo, 398671
1, 22560, Note_on_c, 0, 74, 59
1, 22560, Note_on_c, 0, 53, 27
1, 22560, Note_on_c, 0, 58, 42
1, 22680, Note_on_c, 0, 58, 0
1, 22680, Note_on_c, 0, 53, 0
1, 22680, Note_on_c, 0, 74, 0
1, 22800, Tempo, 470588
1, 22800, Note_on_c, 0, 86, 49
1, 22800, Note_on_c, 0, 53, 23
1, 22800, Note_on_c, 0, 58, 35
1, 22920, Note_on_c, 0, 58, 0
1, 22920, Note_on_c, 0, 53, 0
1, 22920, Note_on_c, 0, 86, 0
1, 23040, Tempo, 389610
1, 23040, Marker_t, "Teil 2 Wiederholung"
1, 23040, Note_on_c, 0, 72, 37
1, 23040, Note_on_c, 0, 60, 31
1, 23040, Note_on_c, 0, 57, 24
1, 23040, Note_on_c, 0, 53, 24
1, 23160, Note_on_c, 0, 53, 0
1, 23160, Note_on_c, 0, 72, 0
1, 23160, Note_on_c, 0, 60, 0
1, 23160, Note_on_c, 0, 57, 0
1, 23280, Note_on_c, 0, 84, 35
1, 23280, Note_on_c, 0, 53, 16
1, 23280, Note_on_c, 0, 57, 16
1, 23280, Note_on_c, 0, 60, 20
1, 23400, Note_on_c, 0, 60, 0
1, 23400, Note_on_c, 0, 84, 0
1, 23400, Note_on_c, 0, 53, 0
1, 23400, Note_on_c, 0, 57, 0
1, 23520, Tempo, 383387
1, 23520, Note_on_c, 0, 77, 39
1, 23520, Note_on_c, 0, 60, 31
1, 23520, Note_on_c, 0, 57, 24
1, 23520, Note_on_c, 0, 53, 24
1, 23640, Note_on_c, 0, 53, 0
1, 23640, Note_on_c, 0, 77, 0
1, 23640, Note_on_c, 0, 60, 0
1, 23640, Note_on_c, 0, 57, 0
1, 23760, Note_on_c, 0, 89, 38
1, 23760, Note_on_c, 0, 53, 18
1, 23760, Note_on_c, 0, 57, 18
1, 23760, Note_on_c, 0, 60, 23
1, 23880, Note_on_c, 0, 60, 0
1, 23880, Note_on_c, 0, 89, 0
1, 23880, Note_on_c, 0, 53, 0
1, 23880, Note_on_c, 0, 57, 0
1, 24000, Tempo, 377358
1, 24000, Note_on_c, 0, 81, 41
1, 24000, Note_on_c, 0, 53, 28
1, 24000, Note_on_c, 0, 57, 28
1, 24000, Note_on_c, 0, 60, 36
1, 24120, Note_on_c, 0, 60, 0
1, 24120, Note_on_c, 0, 81, 0
1, 24120, Note_on_c, 0, 53, 0
1, 24120, Note_on_c, 0, 57, 0
1, 24240, Note_on_c, 0, 93, 40
1, 24240, Note_on_c, 0, 53, 19
1, 24240, Note_on_c, 0, 57, 19
1, 24240, Note_on_c, 0, 60, 24
1, 24360, Note_on_c, 0, 60, 0
1, 24360, Note_on_c, 0, 93, 0
1, 24360, Note_on_c, 0, 53, 0
1, 24360, Note_on_c, 0, 57, 0
1, 24480, Tempo, 380952
1, 24480, Note_on_c, 0, 79, 46
1, 24480, Note_on_c, 0, 53, 29
1, 24480, Note_on_c, 0, 57, 29
1, 24480, Note_on_c, 0, 60, 37
1, 24600, Note_on_c, 0, 60, 0
1, 24600, Note_on_c, 0, 79, 0
1, 24600, Note_on_c, 0, 53, 0
1, 24600, Note_on_c, 0, 57, 0
1, 24720, Tempo, 396040
1, 24720, Note_on_c, 0, 91, 42
1, 24720, Note_on_c, 0, 53, 19
1, 24720, Note_on_c, 0, 57, 19
1, 24720, Note_on_c, 0, 60, 24
1, 24840, Note_on_c, 0, 60, 0
1, 24840, Note_on_c, 0, 91, 0
1, 24840, Note_on_c, 0, 53, 0
1, 24840, Note_on_c, 0, 57, 0
1, 24960, Tempo, 382166
1, 24960, Note_on_c, 0, 77, 49
1, 24960, Note_on_c, 0, 53, 30
1, 24960, Note_on_c, 0, 57, 30
1, 24960, Note_on_c, 0, 61, 38
1, 25080, Note_on_c, 0, 61, 0
1, 25080, Note_on_c, 0, 77, 0
1, 25080, Note_on_c, 0, 53, 0
1, 25080, Note_on_c, 0, 57, 0
1, 25200, Note_on_c, 0, 89, 43
1, 25200, Note_on_c, 0, 61, 24
1, 25200, Note_on_c, 0, 57, 19
1, 25200, Note_on_c, 0, 53, 19
1, 25320, Note_on_c, 0, 53, 0
1, 25320, Note_on_c, 0, 89, 0
1, 25320, Note_on_c, 0, 61, 0
1, 25320, Note_on_c, 0, 57, 0
1, 25440, Note_on_c, 0, 76, 49
1, 25440, Note_on_c, 0, 53, 33
1, 25440, Note_on_c, 0, 57, 33
1, 25440, Note_on_c, 0, 61, 42
1, 25560, Note_on_c, 0, 61, 0
1, 25560, Note_on_c, 0, 76, 0
1, 25560, Note_on_c, 0, 53, 0
1, 25560, Note_on_c, 0, 57, 0
1, 25680, Note_on_c, 0, 88, 46
1, 25680, Note_on_c, 0, 61, 27
1, 25680, Note_on_c, 0, 57, 21
1, 25680, Note_on_c, 0, 53, 21
1, 25800, Note_on_c, 0, 53, 0
1, 25800, Note_on_c, 0, 88, 0
1, 25800, Note_on_c, 0, 61, 0
1, 25800, Note_on_c, 0, 57, 0
1, 25920, Tempo, 378549
1, 25920, Note_on_c, 0, 79, 58
1, 25920, Note_on_c, 0, 62, 47
1, 25920, Note_on_c, 0, 57, 37
1, 25920, Note_on_c, 0, 53, 37
1, 26040, Note_on_c, 0, 53, 0
1, 26040, Note_on_c, 0, 79, 0
1, 26040, Note_on_c, 0, 62, 0
1, 26040, Note_on_c, 0, 57, 0
1, 26160, Note_on_c, 0, 91, 41
1, 26160, Note_on_c, 0, 53, 21
1, 26160, Note_on_c, 0, 57, 21
1, 26160, Note_on_c, 0, 62, 27
1, 26280, Note_on_c, 0, 62, 0
1, 26280, Note_on_c, 0, 91, 0
1, 26280, Note_on_c, 0, 53, 0
1, 26280, Note_on_c, 0, 57, 0
1, 26400, Tempo, 383387
1, 26400, Note_on_c, 0, 77, 51
1, 26400, Note_on_c, 0, 53, 29
1, 26400, Note_on_c, 0, 57, 29
1, 26400, Note_on_c, 0, 62, 37
1, 26520, Note_on_c, 0, 62, 0
1, 26520, Note_on_c, 0, 77, 0
1, 26520, Note_on_c, 0, 53, 0
1, 26520, Note_on_c, 0, 57, 0
1, 26640, Tempo, 397351
1, 26640, Note_on_c, 0, 89, 42
1, 26640, Note_on_c, 0, 53, 19
1, 26640, Note_on_c, 0, 57, 19
1, 26640, Note_on_c, 0, 62, 24
1, 26760, Note_on_c, 0, 62, 0
1, 26760, Note_on_c, 0, 89, 0
1, 26760, Note_on_c, 0, 53, 0
1, 26760, Note_on_c, 0, 57, 0
1, 26880, Tempo, 387097
1, 26880, Note_on_c, 0, 76, 50
1, 26880, Note_on_c, 0, 53, 27
1, 26880, Note_on_c, 0, 62, 35
1, 26880, Note_on_c, 0, 58, 27
1, 26880, Note_on_c, 0, 55, 27
1, 27000, Note_on_c, 0, 55, 0
1, 27000, Note_on_c, 0, 62, 0
1, 27000, Note_on_c, 0, 76, 0
1, 27000, Note_on_c, 0, 53, 0
1, 27000, Note_on_c, 0, 58, 0
1, 27120, Note_on_c, 0, 88, 35
1, 27120, Note_on_c, 0, 53, 16
1, 27120, Note_on_c, 0, 55, 16
1, 27120, Note_on_c, 0, 58, 16
1, 27120, Note_on_c, 0, 62, 20
1, 27240, Note_on_c, 0, 62, 0
1, 27240, Note_on_c, 0, 55, 0
1, 27240, Note_on_c, 0, 88, 0
1, 27240, Note_on_c, 0, 53, 0
1, 27240, Note_on_c, 0, 58, 0
1, 27360, Tempo, 382166
1, 27360, Note_on_c, 0, 74, 44
1, 27360, Note_on_c, 0, 55, 24
1, 27360, Note_on_c, 0, 62, 31
1, 27360, Note_on_c, 0, 58, 24
1, 27360, Note_on_c, 0, 53, 24
1, 27480, Note_on_c, 0, 53, 0
1, 27480, Note_on_c, 0, 62, 0
1, 27480, Note_on_c, 0, 74, 0
1, 27480, Note_on_c, 0, 55, 0
1, 27480, Note_on_c, 0, 58, 0
1, 27600, Note_on_c, 0, 86, 40
1, 27600, Note_on_c, 0, 55, 18
1, 27600, Note_on_c, 0, 53, 18
1, 27600, Note_on_c, 0, 58, 18
1, 27600, Note_on_c, 0, 62, 23
1, 27720, Note_on_c, 0, 62, 0
1, 27720, Note_on_c, 0, 53, 0
1, 27720, Note_on_c, 0, 86, 0
1, 27720, Note_on_c, 0, 55, 0
1, 27720, Note_on_c, 0, 58, 0
1, 27840, Tempo, 384615
1, 27840, Note_on_c, 0, 67, 44
1, 27840, Note_on_c, 0, 55, 28
1, 27840, Note_on_c, 0, 53, 28
1, 27840, Note_on_c, 0, 58, 28
1, 27840, Note_on_c, 0, 62, 36
1, 27960, Note_on_c, 0, 62, 0
1, 27960, Note_on_c, 0, 53, 0
1, 27960, Note_on_c, 0, 67, 0
1, 27960, Note_on_c, 0, 55, 0
1, 27960, Note_on_c, 0, 58, 0
1, 28080, Note_on_c, 0, 79, 43
1, 28080, Note_on_c, 0, 55, 19
1, 28080, Note_on_c, 0, 53, 19
1, 28080, Note_on_c, 0, 58, 19
1, 28080, Note_on_c, 0, 62, 24
1, 28200, Note_on_c, 0, 62, 0
1, 28200, Note_on_c, 0, 53, 0
1, 28200, Note_on_c, 0, 79, 0
1, 28200, Note_on_c, 0, 55, 0
1, 28200, Note_on_c, 0, 58, 0
1, 28320, Tempo, 385852
1, 28320, Note_on_c, 0, 69, 48
1, 28320, Note_on_c, 0, 55, 29
1, 28320, Note_on_c, 0, 53, 29
1, 28320, Note_on_c, 0, 58, 29
1, 28320, Note_on_c, 0, 62, 37
1, 28440, Note_on_c, 0, 62, 0
1, 28440, Note_on_c, 0, 53, 0
1, 28440, Note_on_c, 0, 69, 0
1, 28440, Note_on_c, 0, 55, 0
1, 28440, Note_on_c, 0, 58, 0
1, 28560, Tempo, 392157
1, 28560, Note_on_c, 0, 81, 45
1, 28560, Note_on_c, 0, 55, 19
1, 28560, Note_on_c, 0, 53, 19
1, 28560, Note_on_c, 0, 58, 19
1, 28560, Note_on_c, 0, 62, 24
1, 28680, Note_on_c, 0, 62, 0
1, 28680, Note_on_c, 0, 53, 0
1, 28680, Note_on_c, 0, 81, 0
1, 28680, Note_on_c, 0, 55, 0
1, 28680, Note_on_c, 0, 58, 0
1, 28800, Tempo, 384615
1, 28800, Note_on_c, 0, 70, 58
1, 28800, Note_on_c, 0, 52, 30
1, 28800, Note_on_c, 0, 55, 30
1, 28800, Note_on_c, 0, 60, 38
1, 28920, Note_on_c, 0, 60, 0
1, 28920, Note_on_c, 0, 70, 0
1, 28920, Note_on_c, 0, 52, 0
1, 28920, Note_on_c, 0, 55, 0
1, 29040, Note_on_c, 0, 82, 51
1, 29040, Note_on_c, 0, 60, 24
1, 29040, Note_on_c, 0, 55, 19
1, 29040, Note_on_c, 0, 52, 19
1, 29160, Note_on_c, 0, 52, 0
1, 29160, Note_on_c, 0, 82, 0
1, 29160, Note_on_c, 0, 60, 0
1, 29160, Note_on_c, 0, 55, 0
1, 29280, Tempo, 384615
1, 29280, Note_on_c, 0, 71, 53
1, 29280, Note_on_c, 0, 52, 33
1, 29280, Note_on_c, 0, 55, 33
1, 29280, Note_on_c, 0, 60, 42
1, 29400, Note_on_c, 0, 60, 0
1, 29400, Note_on_c, 0, 71, 0
1, 29400, Note_on_c, 0, 52, 0
1, 29400, Note_on_c, 0, 55, 0
1, 29520, Tempo, 393443
1, 29520, Note_on_c, 0, 83, 50
1, 29520, Note_on_c, 0, 60, 27
1, 29520, Note_on_c, 0, 55, 21
1, 29520, Note_on_c, 0, 52, 21
1, 29640, Note_on_c, 0, 52, 0
1, 29640, Note_on_c, 0, 83, 0
1, 29640, Note_on_c, 0, 60, 0
1, 29640, Note_on_c, 0, 55, 0
1, 29760, Tempo, 389610
1, 29760, Note_on_c, 0, 72, 58
1, 29760, Note_on_c, 0, 60, 47
1, 29760, Note_on_c, 0, 55, 37
1, 29760, Note_on_c, 0, 52, 37
1, 29880, Note_on_c, 0, 52, 0
1, 29880, Note_on_c, 0, 72, 0
1, 29880, Note_on_c, 0, 60, 0
1, 29880, Note_on_c, 0, 55, 0
1, 30000, Note_on_c, 0, 84, 43
1, 30000, Note_on_c, 0, 52, 21
1, 30000, Note_on_c, 0, 55, 21
1, 30000, Note_on_c, 0, 60, 27
1, 30120, Note_on_c, 0, 60, 0
1, 30120, Note_on_c, 0, 84, 0
1, 30120, Note_on_c, 0, 52, 0
1, 30120, Note_on_c, 0, 55, 0
1, 30240, Tempo, 397351
1, 30240, Note_on_c, 0, 70, 52
1, 30240, Note_on_c, 0, 52, 29
1, 30240, Note_on_c, 0, 55, 29
1, 30240, Note_on_c, 0, 60, 37
1, 30360, Note_on_c, 0, 60, 0
1, 30360, Note_on_c, 0, 70, 0
1, 30360, Note_on_c, 0, 52, 0
1, 30360, Note_on_c, 0, 55, 0
1, 30480, Tempo, 418118
1, 30480, Note_on_c, 0, 82, 43
1, 30480, Note_on_c, 0, 52, 19
1, 30480, Note_on_c, 0, 55, 19
1, 30480, Note_on_c, 0, 60, 24
1, 30600, Note_on_c, 0, 60, 0
1, 30600, Note_on_c, 0, 82, 0
1, 30600, Note_on_c, 0, 52, 0
1, 30600, Note_on_c, 0, 55, 0
1, 30720, Tempo, 392157
1, 30720, Note_on_c, 0, 72, 55
1, 30720, Note_on_c, 0, 53, 29
1, 30720, Note_on_c, 0, 57, 29
1, 30720, Note_on_c, 0, 60, 37
1, 30840, Note_on_c, 0, 60, 0
1, 30840, Note_on_c, 0, 72, 0
1, 30840, Note_on_c, 0, 53, 0
1, 30840, Note_on_c, 0, 57, 0
1, 30960, Note_on_c, 0, 84, 46
1, 30960, Note_on_c, 0, 60, 24
1, 30960, Note_on_c, 0, 57, 19
1, 30960, Note_on_c, 0, 53, 19
1, 31080, Note_on_c, 0, 53, 0
1, 31080, Note_on_c, 0, 84, 0
1, 31080, Note_on_c, 0, 60, 0
1, 31080, Note_on_c, 0, 57, 0
1, 31200, Tempo, 384615
1, 31200, Note_on_c, 0, 77, 55
1, 31200, Note_on_c, 0, 53, 32
1, 31200, Note_on_c, 0, 57, 32
1, 31200, Note_on_c, 0, 60, 40
1, 31320, Note_on_c, 0, 60, 0
1, 31320, Note_on_c, 0, 77, 0
1, 31320, Note_on_c, 0, 53, 0
1, 31320, Note_on_c, 0, 57, 0
1, 31440, Tempo, 393443
1, 31440, Note_on_c, 0, 89, 44
1, 31440, Note_on_c, 0, 60, 28
1, 31440, Note_on_c, 0, 57, 21
1, 31440, Note_on_c, 0, 53, 21
1, 31560, Note_on_c, 0, 53, 0
1, 31560, Note_on_c, 0, 89, 0
1, 31560, Note_on_c, 0, 60, 0
1, 31560, Note_on_c, 0, 57, 0
1, 31680, Tempo, 383387
1, 31680, Note_on_c, 0, 77, 62
1, 31680, Note_on_c, 0, 67, 47
1, 31680, Note_on_c, 0, 57, 36
1, 31680, Note_on_c, 0, 61, 36
1, 31800, Note_on_c, 0, 61, 0
1, 31800, Note_on_c, 0, 77, 0
1, 31800, Note_on_c, 0, 67, 0
1, 31800, Note_on_c, 0, 57, 0
1, 31920, Note_on_c, 0, 89, 52
1, 31920, Note_on_c, 0, 67, 31
1, 31920, Note_on_c, 0, 57, 24
1, 31920, Note_on_c, 0, 61, 24
1, 32040, Note_on_c, 0, 61, 0
1, 32040, Note_on_c, 0, 89, 0
1, 32040, Note_on_c, 0, 67, 0
1, 32040, Note_on_c, 0, 57, 0
1, 32160, Note_on_c, 0, 76, 64
1, 32160, Note_on_c, 0, 67, 44
1, 32160, Note_on_c, 0, 57, 35
1, 32160, Note_on_c, 0, 61, 35
1, 32280, Note_on_c, 0, 61, 0
1, 32280, Note_on_c, 0, 76, 0
1, 32280, Note_on_c, 0, 67, 0
1, 32280, Note_on_c, 0, 57, 0
1, 32400, Tempo, 397351
1, 32400, Note_on_c, 0, 88, 50
1, 32400, Note_on_c, 0, 67, 30
1, 32400, Note_on_c, 0, 57, 24
1, 32400, Note_on_c, 0, 61, 24
1, 32520, Note_on_c, 0, 61, 0
1, 32520, Note_on_c, 0, 88, 0
1, 32520, Note_on_c, 0, 67, 0
1, 32520, Note_on_c, 0, 57, 0
1, 32640, Tempo, 385852
1, 32640, Note_on_c, 0, 76, 72
1, 32640, Note_on_c, 0, 67, 50
1, 32640, Note_on_c, 0, 61, 38
1, 32640, Note_on_c, 0, 58, 38
1, 32760, Note_on_c, 0, 58, 0
1, 32760, Note_on_c, 0, 76, 0
1, 32760, Note_on_c, 0, 67, 0
1, 32760, Note_on_c, 0, 61, 0
1, 32880, Note_on_c, 0, 88, 65
1, 32880, Note_on_c, 0, 67, 33
1, 32880, Note_on_c, 0, 61, 26
1, 32880, Note_on_c, 0, 58, 26
1, 33000, Note_on_c, 0, 58, 0
1, 33000, Note_on_c, 0, 88, 0
1, 33000, Note_on_c, 0, 67, 0
1, 33000, Note_on_c, 0, 61, 0
1, 33120, Note_on_c, 0, 74, 70
1, 33120, Note_on_c, 0, 65, 49
1, 33120, Note_on_c, 0, 62, 39
1, 33120, Note_on_c, 0, 58, 39
1, 33240, Note_on_c, 0, 58, 0
1, 33240, Note_on_c, 0, 74, 0
1, 33240, Note_on_c, 0, 65, 0
1, 33240, Note_on_c, 0, 62, 0
1, 33360, Tempo, 389864
1, 33360, Note_on_c, 0, 86, 57
1, 33360, Note_on_c, 0, 58, 22
1, 33360, Note_on_c, 0, 62, 22
1, 33360, Note_on_c, 0, 65, 28
1, 33480, Note_on_c, 0, 65, 0
1, 33480, Note_on_c, 0, 86, 0
1, 33480, Note_on_c, 0, 58, 0
1, 33480, Note_on_c, 0, 62, 0
1, 33600, Tempo, 384615
1, 33600, Note_on_c, 0, 72, 63
1, 33600, Note_on_c, 0, 69, 47
1, 33600, Note_on_c, 0, 62, 36
1, 33600, Note_on_c, 0, 58, 36
1, 33720, Note_on_c, 0, 58, 0
1, 33720, Note_on_c, 0, 72, 0
1, 33720, Note_on_c, 0, 69, 0
1, 33720, Note_on_c, 0, 62, 0
1, 33840, Note_on_c, 0, 84, 49
1, 33840, Note_on_c, 0, 69, 27
1, 33840, Note_on_c, 0, 62, 21
1, 33840, Note_on_c, 0, 58, 21
1, 33960, Note_on_c, 0, 58, 0
1, 33960, Note_on_c, 0, 84, 0
1, 33960, Note_on_c, 0, 69, 0
1, 33960, Note_on_c, 0, 62, 0
1, 34080, Note_on_c, 0, 70, 58
1, 34080, Note_on_c, 0, 67, 46
1, 34080, Note_on_c, 0, 62, 36
1, 34080, Note_on_c, 0, 58, 36
1, 34200, Note_on_c, 0, 58, 0
1, 34200, Note_on_c, 0, 70, 0
1, 34200, Note_on_c, 0, 67, 0
1, 34200, Note_on_c, 0, 62, 0
1, 34320, Tempo, 397351
1, 34320, Note_on_c, 0, 82, 48
1, 34320, Note_on_c, 0, 67, 29
1, 34320, Note_on_c, 0, 62, 23
1, 34320, Note_on_c, 0, 58, 23
1, 34440, Note_on_c, 0, 58, 0
1, 34440, Note_on_c, 0, 82, 0
1, 34440, Note_on_c, 0, 67, 0
1, 34440, Note_on_c, 0, 62, 0
1, 34560, Tempo, 385852
1, 34560, Note_on_c, 0, 69, 60
1, 34560, Note_on_c, 0, 60, 39
1, 34560, Note_on_c, 0, 65, 46
1, 34680, Note_on_c, 0, 65, 0
1, 34680, Note_on_c, 0, 60, 0
1, 34680, Note_on_c, 0, 69, 0
1, 34800, Note_on_c, 0, 81, 48
1, 34800, Note_on_c, 0, 65, 36
1, 34800, Note_on_c, 0, 60, 31
1, 34920, Note_on_c, 0, 60, 0
1, 34920, Note_on_c, 0, 65, 0
1, 34920, Note_on_c, 0, 81, 0
1, 35040, Note_on_c, 0, 65, 58
1, 35040, Note_on_c, 0, 57, 36
1, 35040, Note_on_c, 0, 60, 44
1, 35160, Note_on_c, 0, 60, 0
1, 35160, Note_on_c, 0, 57, 0
1, 35160, Note_on_c, 0, 65, 0
1, 35280, Tempo, 392157
1, 35280, Note_on_c, 0, 77, 50
1, 35280, Note_on_c, 0, 60, 37
1, 35280, Note_on_c, 0, 57, 31
1, 35400, Note_on_c, 0, 57, 0
1, 35400, Note_on_c, 0, 60, 0
1, 35400, Note_on_c, 0, 77, 0
1, 35520, Tempo, 384615
1, 35520, Note_on_c, 0, 65, 66
1, 35520, Note_on_c, 0, 61, 49
1, 35520, Note_on_c, 0, 58, 41
1, 35520, Note_on_c, 0, 55, 41
1, 35640, Note_on_c, 0, 55, 0
1, 35640, Note_on_c, 0, 65, 0
1, 35640, Note_on_c, 0, 61, 0
1, 35640, Note_on_c, 0, 58, 0
1, 35760, Note_on_c, 0, 77, 60
1, 35760, Note_on_c, 0, 61, 44
1, 35760, Note_on_c, 0, 58, 36
1, 35760, Note_on_c, 0, 55, 36
1, 35880, Note_on_c, 0, 55, 0
1, 35880, Note_on_c, 0, 77, 0
1, 35880, Note_on_c, 0, 61, 0
1, 35880, Note_on_c, 0, 58, 0
1, 36000, Tempo, 385852
1, 36000, Note_on_c, 0, 64, 64
1, 36000, Note_on_c, 0, 60, 54
1, 36000, Note_on_c, 0, 58, 44
1, 36000, Note_on_c, 0, 55, 44
1, 36120, Note_on_c, 0, 55, 0
1, 36120, Note_on_c, 0, 64, 0
1, 36120, Note_on_c, 0, 60, 0
1, 36120, Note_on_c, 0, 58, 0
1, 36240, Tempo, 397351
1, 36240, Note_on_c, 0, 76, 51
1, 36240, Note_on_c, 0, 60, 47
1, 36240, Note_on_c, 0, 58, 39
1, 36240, Note_on_c, 0, 55, 39
1, 36360, Note_on_c, 0, 55, 0
1, 36360, Note_on_c, 0, 76, 0
1, 36360, Note_on_c, 0, 60, 0
1, 36360, Note_on_c, 0, 58, 0
1, 36480, Tempo, 382166
1, 36480, Note_on_c, 0, 65, 59
1, 36480, Note_on_c, 0, 60, 43
1, 36480, Note_on_c, 0, 57, 36
1, 36480, Note_on_c, 0, 53, 36
1, 36600, Note_on_c, 0, 65, 0
1, 36720, Tempo, 394737
1, 36720, Note_on_c, 0, 77, 52
1, 36840, Note_on_c, 0, 77, 0
1, 36960, Tempo, 385852
1, 36960, Note_on_c, 0, 53, 0
1, 36960, Note_on_c, 0, 57, 0
1, 36960, Note_on_c, 0, 60, 0
1, 36960, Note_on_c, 0, 65, 61
1, 37080, Note_on_c, 0, 65, 0
1, 37200, Tempo, 393443
1, 37200, Note_on_c, 0, 77, 60
1, 37200, Note_on_c, 0, 53, 42
1, 37200, Note_on_c, 0, 41, 35
1, 37320, Note_on_c, 0, 41, 0
1, 37320, Note_on_c, 0, 53, 0
1, 37320, Note_on_c, 0, 77, 0
1, 37419, Control_c, 0, 64, 127
1, 37440, Tempo, 393443
1, 37440, Note_on_c, 0, 65, 68
1, 37440, Note_on_c, 0, 53, 52
1, 37440, Note_on_c, 0, 41, 43
1, 37560, Note_on_c, 0, 65, 0
1, 37631, Control_c, 0, 64, 0
1, 37680, Note_on_c, 0, 77, 45
1, 37800, Note_on_c, 0, 77, 0
1, 37920, Tempo, 398671
1, 37920, Note_on_c, 0, 41, 0
1, 37920, Note_on_c, 0, 53, 0
1, 37920, Note_on_c, 0, 65, 51
1, 38040, Note_on_c, 0, 65, 0
1, 38160, Tempo, 419580
1, 38160, Note_on_c, 0, 77, 43
1, 38280, Note_on_c, 0, 77, 0
1, 38400, Tempo, 389610
1, 38400, Marker_t, "Teil 3"
1, 38400, Note_on_c, 0, 77, 31
1, 38400, Note_on_c, 0, 74, 24
1, 38400, Note_on_c, 0, 65, 24
1, 38400, Note_on_c, 0, 38, 37
1, 38520, Note_on_c, 0, 38, 0
1, 38520, Note_on_c, 0, 77, 0
1, 38520, Note_on_c, 0, 74, 0
1, 38520, Note_on_c, 0, 65, 0
1, 38640, Note_on_c, 0, 65, 20
1, 38640, Note_on_c, 0, 74, 20
1, 38640, Note_on_c, 0, 77, 26
1, 38640, Note_on_c, 0, 50, 35
1, 38760, Note_on_c, 0, 50, 0
1, 38760, Note_on_c, 0, 65, 0
1, 38760, Note_on_c, 0, 74, 0
1, 38760, Note_on_c, 0, 77, 0
1, 38880, Tempo, 383387
1, 38880, Note_on_c, 0, 77, 31
1, 38880, Note_on_c, 0, 74, 24
1, 38880, Note_on_c, 0, 65, 24
1, 38880, Note_on_c, 0, 41, 39
1, 39000, Note_on_c, 0, 41, 0
1, 39000, Note_on_c, 0, 77, 0
1, 39000, Note_on_c, 0, 74, 0
1, 39000, Note_on_c, 0, 65, 0
1, 39120, Note_on_c, 0, 65, 23
1, 39120, Note_on_c, 0, 74, 23
1, 39120, Note_on_c, 0, 77, 29
1, 39120, Note_on_c, 0, 53, 38
1, 39240, Note_on_c, 0, 53, 0
1, 39240, Note_on_c, 0, 65, 0
1, 39240, Note_on_c, 0, 74, 0
1, 39240, Note_on_c, 0, 77, 0
1, 39360, Tempo, 377358
1, 39360, Note_on_c, 0, 65, 28
1, 39360, Note_on_c, 0, 74, 28
1, 39360, Note_on_c, 0, 77, 36
1, 39360, Note_on_c, 0, 44, 48
1, 39480, Note_on_c, 0, 44, 0
1, 39480, Note_on_c, 0, 65, 0
1, 39480, Note_on_c, 0, 74, 0
1, 39480, Note_on_c, 0, 77, 0
1, 39600, Note_on_c, 0, 65, 24
1, 39600, Note_on_c, 0, 74, 24
1, 39600, Note_on_c, 0, 77, 31
1, 39600, Note_on_c, 0, 56, 42
1, 39720, Note_on_c, 0, 56, 0
1, 39720, Note_on_c, 0, 65, 0
1, 39720, Note_on_c, 0, 74, 0
1, 39720, Note_on_c, 0, 77, 0
1, 39840, Tempo, 380952
1, 39840, Note_on_c, 0, 77, 42
1, 39840, Note_on_c, 0, 74, 35
1, 39840, Note_on_c, 0, 65, 35
1, 39840, Note_on_c, 0, 45, 54
1, 39960, Note_on_c, 0, 45, 0
1, 39960, Note_on_c, 0, 77, 0
1, 39960, Note_on_c, 0, 74, 0
1, 39960, Note_on_c, 0, 65, 0
1, 40080, Tempo, 396040
1, 40080, Note_on_c, 0, 77, 34
1, 40080, Note_on_c, 0, 74, 28
1, 40080, Note_on_c, 0, 65, 28
1, 40080, Note_on_c, 0, 57, 48
1, 40200, Note_on_c, 0, 57, 0
1, 40200, Note_on_c, 0, 77, 0
1, 40200, Note_on_c, 0, 74, 0
1, 40200, Note_on_c, 0, 65, 0
1, 40320, Tempo, 382166
1, 40320, Note_on_c, 0, 65, 39
1, 40320, Note_on_c, 0, 74, 39
1, 40320, Note_on_c, 0, 77, 46
1, 40320, Note_on_c, 0, 46, 60
1, 40440, Note_on_c, 0, 46, 0
1, 40440, Note_on_c, 0, 65, 0
1, 40440, Note_on_c, 0, 74, 0
1, 40440, Note_on_c, 0, 77, 0
1, 40560, Note_on_c, 0, 77, 33
1, 40560, Note_on_c, 0, 74, 28
1, 40560, Note_on_c, 0, 65, 28
1, 40560, Note_on_c, 0, 58, 49
1, 40680, Note_on_c, 0, 58, 0
1, 40680, Note_on_c, 0, 77, 0
1, 40680, Note_on_c, 0, 74, 0
1, 40680, Note_on_c, 0, 65, 0
1, 40800, Note_on_c, 0, 65, 35
1, 40800, Note_on_c, 0, 74, 35
1, 40800, Note_on_c, 0, 77, 42
1, 40800, Note_on_c, 0, 45, 57
1, 40920, Note_on_c, 0, 45, 0
1, 40920, Note_on_c, 0, 65, 0
1, 40920, Note_on_c, 0, 74, 0
1, 40920, Note_on_c, 0, 77, 0
1, 41040, Note_on_c, 0, 77, 33
1, 41040, Note_on_c, 0, 74, 28
1, 41040, Note_on_c, 0, 65, 28
1, 41040, Note_on_c, 0, 57, 46
1, 41160, Note_on_c, 0, 57, 0
1, 41160, Note_on_c, 0, 77, 0
1, 41160, Note_on_c, 0, 74, 0
1, 41160, Note_on_c, 0, 65, 0
1, 41280, Tempo, 378549
1, 41280, Note_on_c, 0, 77, 40
1, 41280, Note_on_c, 0, 74, 34
1, 41280, Note_on_c, 0, 65, 34
1, 41280, Note_on_c, 0, 41, 53
1, 41400, Note_on_c, 0, 41, 0
1, 41400, Note_on_c, 0, 77, 0
1, 41400, Note_on_c, 0, 74, 0
1, 41400, Note_on_c, 0, 65, 0
1, 41520, Note_on_c, 0, 77, 30
1, 41520, Note_on_c, 0, 74, 25
1, 41520, Note_on_c, 0, 65, 25
1, 41520, Note_on_c, 0, 53, 41
1, 41640, Note_on_c, 0, 53, 0
1, 41640, Note_on_c, 0, 77, 0
1, 41640, Note_on_c, 0, 74, 0
1, 41640, Note_on_c, 0, 65, 0
1, 41760, Tempo, 383387
1, 41760, Note_on_c, 0, 65, 24
1, 41760, Note_on_c, 0, 74, 24
1, 41760, Note_on_c, 0, 77, 37
1, 41760, Note_on_c, 0, 38, 51
1, 41880, Note_on_c, 0, 38, 0
1, 41880, Note_on_c, 0, 65, 0
1, 41880, Note_on_c, 0, 74, 0
1, 41880, Note_on_c, 0, 77, 0
1, 42000, Tempo, 397351
1, 42000, Note_on_c, 0, 65, 20
1, 42000, Note_on_c, 0, 74, 20
1, 42000, Note_on_c, 0, 77, 31
1, 42000, Note_on_c, 0, 50, 42
1, 42120, Note_on_c, 0, 50, 0
1, 42120, Note_on_c, 0, 65, 0
1, 42120, Note_on_c, 0, 74, 0
1, 42120, Note_on_c, 0, 77, 0
1, 42240, Tempo, 389610
1, 42240, Note_on_c, 0, 76, 35
1, 42240, Note_on_c, 0, 74, 27
1, 42240, Note_on_c, 0, 70, 27
1, 42240, Note_on_c, 0, 43, 42
1, 42360, Note_on_c, 0, 43, 0
1, 42360, Note_on_c, 0, 76, 0
1, 42360, Note_on_c, 0, 74, 0
1, 42360, Note_on_c, 0, 70, 0
1, 42480, Note_on_c, 0, 70, 23
1, 42480, Note_on_c, 0, 74, 23
1, 42480, Note_on_c, 0, 76, 29
1, 42480, Note_on_c, 0, 55, 40
1, 42600, Note_on_c, 0, 55, 0
1, 42600, Note_on_c, 0, 70, 0
1, 42600, Note_on_c, 0, 74, 0
1, 42600, Note_on_c, 0, 76, 0
1, 42720, Tempo, 383387
1, 42720, Note_on_c, 0, 76, 35
1, 42720, Note_on_c, 0, 74, 27
1, 42720, Note_on_c, 0, 69, 27
1, 42720, Note_on_c, 0, 45, 44
1, 42840, Note_on_c, 0, 45, 0
1, 42840, Note_on_c, 0, 76, 0
1, 42840, Note_on_c, 0, 74, 0
1, 42840, Note_on_c, 0, 69, 0
1, 42960, Note_on_c, 0, 69, 26
1, 42960, Note_on_c, 0, 74, 26
1, 42960, Note_on_c, 0, 76, 33
1, 42960, Note_on_c, 0, 57, 43
1, 43080, Note_on_c, 0, 57, 0
1, 43080, Note_on_c, 0, 69, 0
1, 43080, Note_on_c, 0, 74, 0
1, 43080, Note_on_c, 0, 76, 0
1, 43200, Tempo, 377358
1, 43200, Note_on_c, 0, 67, 32
1, 43200, Note_on_c, 0, 74, 32
1, 43200, Note_on_c, 0, 76, 41
1, 43200, Note_on_c, 0, 46, 55
1, 43320, Note_on_c, 0, 46, 0
1, 43320, Note_on_c, 0, 67, 0
1, 43320, Note_on_c, 0, 74, 0
1, 43320, Note_on_c, 0, 76, 0
1, 43440, Note_on_c, 0, 67, 27
1, 43440, Note_on_c, 0, 74, 27
1, 43440, Note_on_c, 0, 76, 35
1, 43440, Note_on_c, 0, 58, 48
1, 43560, Note_on_c, 0, 58, 0
1, 43560, Note_on_c, 0, 67, 0
1, 43560, Note_on_c, 0, 74, 0
1, 43560, Note_on_c, 0, 76, 0
1, 43680, Tempo, 380952
1, 43680, Note_on_c, 0, 76, 48
1, 43680, Note_on_c, 0, 74, 40
1, 43680, Note_on_c, 0, 70, 40
1, 43680, Note_on_c, 0, 43, 62
1, 43800, Note_on_c, 0, 43, 0
1, 43800, Note_on_c, 0, 76, 0
1, 43800, Note_on_c, 0, 74, 0
1, 43800, Note_on_c, 0, 70, 0
1, 43920, Tempo, 396040
1, 43920, Note_on_c, 0, 76, 39
1, 43920, Note_on_c, 0, 74, 32
1, 43920, Note_on_c, 0, 70, 32
1, 43920, Note_on_c, 0, 55, 55
1, 44040, Note_on_c, 0, 55, 0
1, 44040, Note_on_c, 0, 76, 0
1, 44040, Note_on_c, 0, 74, 0
1, 44040, Note_on_c, 0, 70, 0
1, 44160, Tempo, 382166
1, 44160, Note_on_c, 0, 69, 44
1, 44160, Note_on_c, 0, 73, 44
1, 44160, Note_on_c, 0, 76, 52
1, 44160, Note_on_c, 0, 45, 69
1, 44280, Note_on_c, 0, 45, 0
1, 44280, Note_on_c, 0, 69, 0
1, 44280, Note_on_c, 0, 73, 0
1, 44280, Note_on_c, 0, 76, 0
1, 44400, Note_on_c, 0, 76, 37
1, 44400, Note_on_c, 0, 73, 32
1, 44400, Note_on_c, 0, 69, 32
1, 44400, Note_on_c, 0, 57, 56
1, 44520, Note_on_c, 0, 57, 0
1, 44520, Note_on_c, 0, 76, 0
1, 44520, Note_on_c, 0, 73, 0
1, 44520, Note_on_c, 0, 69, 0
1, 44640, Note_on_c, 0, 69, 40
1, 44640, Note_on_c, 0, 73, 40
1, 44640, Note_on_c, 0, 76, 48
1, 44640, Note_on_c, 0, 43, 65
1, 44760, Note_on_c, 0, 43, 0
1, 44760, Note_on_c, 0, 69, 0
1, 44760, Note_on_c, 0, 73, 0
1, 44760, Note_on_c, 0, 76, 0
1, 44880, Note_on_c, 0, 76, 37
1, 44880, Note_on_c, 0, 73, 32
1, 44880, Note_on_c, 0, 69, 32
1, 44880, Note_on_c, 0, 55, 52
1, 45000, Note_on_c, 0, 55, 0
1, 45000, Note_on_c, 0, 76, 0
1, 45000, Note_on_c, 0, 73, 0
1, 45000, Note_on_c, 0, 69, 0
1, 45120, Tempo, 383632
1, 45120, Note_on_c, 0, 74, 55
1, 45120, Note_on_c, 0, 69, 46
1, 45120, Note_on_c, 0, 41, 66
1, 45240, Note_on_c, 0, 41, 0
1, 45240, Note_on_c, 0, 69, 0
1, 45240, Note_on_c, 0, 74, 0
1, 45360, Note_on_c, 0, 74, 41
1, 45360, Note_on_c, 0, 69, 33
1, 45360, Note_on_c, 0, 53, 53
1, 45480, Note_on_c, 0, 53, 0
1, 45480, Note_on_c, 0, 69, 0
1, 45480, Note_on_c, 0, 74, 0
1, 45600, Tempo, 389864
1, 45600, Note_on_c, 0, 76, 57
1, 45600, Note_on_c, 0, 73, 48
1, 45600, Note_on_c, 0, 69, 48
1, 45600, Note_on_c, 0, 40, 67
1, 45720, Note_on_c, 0, 40, 0
1, 45720, Note_on_c, 0, 76, 0
1, 45720, Note_on_c, 0, 73, 0
1, 45720, Note_on_c, 0, 69, 0
1, 45840, Tempo, 397351
1, 45840, Note_on_c, 0, 76, 50
1, 45840, Note_on_c, 0, 73, 42
1, 45840, Note_on_c, 0, 69, 42
1, 45840, Note_on_c, 0, 52, 58
1, 45960, Note_on_c, 0, 52, 0
1, 45960, Note_on_c, 0, 76, 0
1, 45960, Note_on_c, 0, 73, 0
1, 45960, Note_on_c, 0, 69, 0
1, 46080, Tempo, 389610
1, 46080, Note_on_c, 0, 69, 55
1, 46080, Note_on_c, 0, 74, 55
1, 46080, Note_on_c, 0, 77, 55
1, 46080, Note_on_c, 0, 38, 59
1, 46200, Note_on_c, 0, 77, 0
1, 46200, Note_on_c, 0, 69, 0
1, 46200, Note_on_c, 0, 74, 0
1, 46320, Note_on_c, 0, 38, 0
1, 46320, Note_on_c, 0, 69, 42
1, 46320, Note_on_c, 0, 74, 42
1, 46320, Note_on_c, 0, 77, 42
1, 46320, Note_on_c, 0, 50, 49
1, 46440, Note_on_c, 0, 50, 0
1, 46440, Note_on_c, 0, 69, 0
1, 46440, Note_on_c, 0, 74, 0
1, 46440, Note_on_c, 0, 77, 0
1, 46560, Tempo, 383387
1, 46560, Note_on_c, 0, 69, 58
1, 46560, Note_on_c, 0, 73, 58
1, 46560, Note_on_c, 0, 76, 58
1, 46560, Note_on_c, 0, 33, 58
1, 46680, Note_on_c, 0, 76, 0
1, 46680, Note_on_c, 0, 69, 0
1, 46680, Note_on_c, 0, 73, 0
1, 46800, Note_on_c, 0, 33, 0
1, 46800, Note_on_c, 0, 76, 46
1, 46800, Note_on_c, 0, 73, 46
1, 46800, Note_on_c, 0, 69, 46
1, 46800, Note_on_c, 0, 45, 52
1, 46920, Note_on_c, 0, 45, 0
1, 46920, Note_on_c, 0, 76, 0
1, 46920, Note_on_c, 0, 73, 0
1, 46920, Note_on_c, 0, 69, 0
1, 47040, Tempo, 377358
1, 47040, Note_on_c, 0, 77, 61
1, 47040, Note_on_c, 0, 74, 61
1, 47040, Note_on_c, 0, 69, 61
1, 47040, Note_on_c, 0, 38, 59
1, 47160, Note_on_c, 0, 69, 0
1, 47160, Note_on_c, 0, 77, 0
1, 47160, Note_on_c, 0, 74, 0
1, 47280, Note_on_c, 0, 38, 0
1, 47280, Note_on_c, 0, 77, 48
1, 47280, Note_on_c, 0, 74, 48
1, 47280, Note_on_c, 0, 69, 48
1, 47280, Note_on_c, 0, 50, 53
1, 47400, Note_on_c, 0, 50, 0
1, 47400, Note_on_c, 0, 77, 0
1, 47400, Note_on_c, 0, 74, 0
1, 47400, Note_on_c, 0, 69, 0
1, 47520, Tempo, 380952
1, 47520, Note_on_c, 0, 72, 64
1, 47520, Note_on_c, 0, 76, 64
1, 47520, Note_on_c, 0, 79, 64
1, 47520, Note_on_c, 0, 36, 64
1, 47640, Note_on_c, 0, 79, 0
1, 47640, Note_on_c, 0, 72, 0
1, 47640, Note_on_c, 0, 76, 0
1, 47760, Tempo, 396040
1, 47760, Note_on_c, 0, 36, 0
1, 47760, Note_on_c, 0, 72, 54
1, 47760, Note_on_c, 0, 76, 54
1, 47760, Note_on_c, 0, 79, 54
1, 47760, Note_on_c, 0, 48, 55
1, 47880, Note_on_c, 0, 48, 0
1, 47880, Note_on_c, 0, 72, 0
1, 47880, Note_on_c, 0, 76, 0
1, 47880, Note_on_c, 0, 79, 0
1, 48000, Tempo, 385852
1, 48000, Note_on_c, 0, 72, 66
1, 48000, Note_on_c, 0, 77, 66
1, 48000, Note_on_c, 0, 81, 66
1, 48000, Note_on_c, 0, 41, 73
1, 48120, Note_on_c, 0, 81, 0
1, 48120, Note_on_c, 0, 72, 0
1, 48120, Note_on_c, 0, 77, 0
1, 48240, Note_on_c, 0, 41, 0
1, 48240, Note_on_c, 0, 72, 51
1, 48240, Note_on_c, 0, 77, 51
1, 48240, Note_on_c, 0, 81, 51
1, 48240, Note_on_c, 0, 53, 60
1, 48360, Note_on_c, 0, 53, 0
1, 48360, Note_on_c, 0, 72, 0
1, 48360, Note_on_c, 0, 77, 0
1, 48360, Note_on_c, 0, 81, 0
1, 48480, Tempo, 383387
1, 48480, Note_on_c, 0, 76, 70
1, 48480, Note_on_c, 0, 80, 70
1, 48480, Note_on_c, 0, 83, 70
1, 48480, Note_on_c, 0, 40, 71
1, 48600, Note_on_c, 0, 83, 0
1, 48600, Note_on_c, 0, 76, 0
1, 48600, Note_on_c, 0, 80, 0
1, 48720, Note_on_c, 0, 40, 0
1, 48720, Note_on_c, 0, 83, 56
1, 48720, Note_on_c, 0, 80, 56
1, 48720, Note_on_c, 0, 76, 56
1, 48720, Note_on_c, 0, 52, 63
1, 48840, Note_on_c, 0, 52, 0
1, 48840, Note_on_c, 0, 83, 0
1, 48840, Note_on_c, 0, 80, 0
1, 48840, Note_on_c, 0, 76, 0
1, 48960, Tempo, 377358
1, 48960, Note_on_c, 0, 84, 73
1, 48960, Note_on_c, 0, 81, 73
1, 48960, Note_on_c, 0, 76, 73
1, 48960, Note_on_c, 0, 45, 71
1, 49080, Note_on_c, 0, 76, 0
1, 49080, Note_on_c, 0, 84, 0
1, 49080, Note_on_c, 0, 81, 0
1, 49200, Note_on_c, 0, 45, 0
1, 49200, Note_on_c, 0, 84, 59
1, 49200, Note_on_c, 0, 81, 59
1, 49200, Note_on_c, 0, 76, 59
1, 49200, Note_on_c, 0, 57, 63
1, 49320, Note_on_c, 0, 57, 0
1, 49320, Note_on_c, 0, 84, 0
1, 49320, Note_on_c, 0, 81, 0
1, 49320, Note_on_c, 0, 76, 0
1, 49440, Tempo, 380952
1, 49440, Note_on_c, 0, 79, 77
1, 49440, Note_on_c, 0, 83, 77
1, 49440, Note_on_c, 0, 86, 77
1, 49440, Note_on_c, 0, 43, 77
1, 49560, Note_on_c, 0, 86, 0
1, 49560, Note_on_c, 0, 79, 0
1, 49560, Note_on_c, 0, 83, 0
1, 49680, Tempo, 396040
1, 49680, Note_on_c, 0, 43, 0
1, 49680, Note_on_c, 0, 83, 65
1, 49680, Note_on_c, 0, 79, 65
1, 49680, Note_on_c, 0, 86, 65
1, 49680, Note_on_c, 0, 55, 66
1, 49800, Note_on_c, 0, 55, 0
1, 49800, Note_on_c, 0, 83, 0
1, 49800, Note_on_c, 0, 79, 0
1, 49800, Note_on_c, 0, 86, 0
1, 49920, Tempo, 382166
1, 49920, Note_on_c, 0, 79, 68
1, 49920, Note_on_c, 0, 84, 81
1, 49920, Note_on_c, 0, 88, 81
1, 49920, Note_on_c, 0, 48, 82
1, 50040, Note_on_c, 0, 48, 0
1, 50040, Note_on_c, 0, 79, 0
1, 50040, Note_on_c, 0, 84, 0
1, 50040, Note_on_c, 0, 88, 0
1, 50160, Note_on_c, 0, 88, 64
1, 50160, Note_on_c, 0, 84, 64
1, 50160, Note_on_c, 0, 79, 53
1, 50160, Note_on_c, 0, 60, 65
1, 50280, Note_on_c, 0, 60, 0
1, 50280, Note_on_c, 0, 88, 0
1, 50280, Note_on_c, 0, 84, 0
1, 50280, Note_on_c, 0, 79, 0
1, 50400, Note_on_c, 0, 82, 66
1, 50400, Note_on_c, 0, 86, 79
1, 50400, Note_on_c, 0, 48, 74
1, 50520, Note_on_c, 0, 48, 0
1, 50520, Note_on_c, 0, 86, 0
1, 50520, Note_on_c, 0, 82, 0
1, 50640, Note_on_c, 0, 86, 62
1, 50640, Note_on_c, 0, 82, 51
1, 50640, Note_on_c, 0, 60, 58
1, 50760, Note_on_c, 0, 60, 0
1, 50760, Note_on_c, 0, 82, 0
1, 50760, Note_on_c, 0, 86, 0
1, 50880, Tempo, 378549
1, 50880, Note_on_c, 0, 81, 62
1, 50880, Note_on_c, 0, 84, 73
1, 50880, Note_on_c, 0, 48, 67
1, 51000, Note_on_c, 0, 48, 0
1, 51000, Note_on_c, 0, 84, 0
1, 51000, Note_on_c, 0, 81, 0
1, 51120, Note_on_c, 0, 81, 52
1, 51120, Note_on_c, 0, 84, 61
1, 51120, Note_on_c, 0, 60, 55
1, 51240, Note_on_c, 0, 60, 0
1, 51240, Note_on_c, 0, 84, 0
1, 51240, Note_on_c, 0, 81, 0
1, 51360, Tempo, 383387
1, 51360, Note_on_c, 0, 80, 59
1, 51360, Note_on_c, 0, 83, 72
1, 51360, Note_on_c, 0, 48, 67
1, 51480, Note_on_c, 0, 48, 0
1, 51480, Note_on_c, 0, 83, 0
1, 51480, Note_on_c, 0, 80, 0
1, 51600, Tempo, 397351
1, 51600, Note_on_c, 0, 83, 54
1, 51600, Note_on_c, 0, 80, 45
1, 51600, Note_on_c, 0, 60, 58
1, 51720, Note_on_c, 0, 60, 0
1, 51720, Note_on_c, 0, 80, 0
1, 51720, Note_on_c, 0, 83, 0
1, 51840, Tempo, 382166
1, 51840, Note_on_c, 0, 79, 56
1, 51840, Note_on_c, 0, 82, 67
1, 51840, Note_on_c, 0, 48, 68
1, 51960, Note_on_c, 0, 48, 0
1, 51960, Note_on_c, 0, 82, 0
1, 51960, Note_on_c, 0, 79, 0
1, 52080, Note_on_c, 0, 82, 51
1, 52080, Note_on_c, 0, 79, 43
1, 52080, Note_on_c, 0, 60, 52
1, 52200, Note_on_c, 0, 60, 0
1, 52200, Note_on_c, 0, 79, 0
1, 52200, Note_on_c, 0, 82, 0
1, 52320, Note_on_c, 0, 78, 51
1, 52320, Note_on_c, 0, 81, 61
1, 52320, Note_on_c, 0, 48, 58
1, 52440, Note_on_c, 0, 48, 0
1, 52440, Note_on_c, 0, 81, 0
1, 52440, Note_on_c, 0, 78, 0
1, 52560, Tempo, 398671
1, 52560, Note_on_c, 0, 81, 47
1, 52560, Note_on_c, 0, 78, 39
1, 52560, Note_on_c, 0, 60, 44
1, 52680, Note_on_c, 0, 60, 0
1, 52680, Note_on_c, 0, 78, 0
1, 52680, Note_on_c, 0, 81, 0
1, 52800, Tempo, 419874
1, 52800, Note_on_c, 0, 79, 41
1, 52800, Note_on_c, 0, 82, 49
1, 52800, Note_on_c, 0, 48, 45
1, 52920, Note_on_c, 0, 48, 0
1, 52920, Note_on_c, 0, 82, 0
1, 52920, Note_on_c, 0, 79, 0
1, 53040, Tempo, 425834
1, 53040, Note_on_c, 0, 79, 32
1, 53040, Note_on_c, 0, 82, 38
1, 53040, Note_on_c, 0, 60, 34
1, 53160, Note_on_c, 0, 60, 0
1, 53160, Note_on_c, 0, 82, 0
1, 53160, Note_on_c, 0, 79, 0
1, 53280, Tempo, 435098
1, 53280, Note_on_c, 0, 72, 34
1, 53280, Note_on_c, 0, 84, 41
1, 53280, Note_on_c, 0, 48, 39
1, 53400, Note_on_c, 0, 48, 0
1, 53400, Note_on_c, 0, 84, 0
1, 53400, Note_on_c, 0, 72, 0
1, 53520, Tempo, 470958
1, 53520, Note_on_c, 0, 84, 29
1, 53520, Note_on_c, 0, 72, 24
1, 53520, Note_on_c, 0, 60, 30
1, 53640, Note_on_c, 0, 60, 0
1, 53640, Note_on_c, 0, 72, 0
1, 53640, Note_on_c, 0, 84, 0
1, 53760, Tempo, 389610
1, 53760, Note_on_c, 0, 72, 37
1, 53760, Note_on_c, 0, 60, 31
1, 53760, Note_on_c, 0, 57, 24
1, 53760, Note_on_c, 0, 53, 24
1, 53880, Note_on_c, 0, 53, 0
1, 53880, Note_on_c, 0, 72, 0
1, 53880, Note_on_c, 0, 60, 0
1, 53880, Note_on_c, 0, 57, 0
1, 54000, Note_on_c, 0, 84, 35
1, 54000, Note_on_c, 0, 53, 16
1, 54000, Note_on_c, 0, 57, 16
1, 54000, Note_on_c, 0, 60, 20
1, 54120, Note_on_c, 0, 60, 0
1, 54120, Note_on_c, 0, 84, 0
1, 54120, Note_on_c, 0, 53, 0
1, 54120, Note_on_c, 0, 57, 0
1, 54240, Tempo, 383387
1, 54240, Note_on_c, 0, 77, 39
1, 54240, Note_on_c, 0, 60, 31
1, 54240, Note_on_c, 0, 57, 24
1, 54240, Note_on_c, 0, 53, 24
1, 54360, Note_on_c, 0, 53, 0
1, 54360, Note_on_c, 0, 77, 0
1, 54360, Note_on_c, 0, 60, 0
1, 54360, Note_on_c, 0, 57, 0
1, 54480, Note_on_c, 0, 89, 38
1, 54480, Note_on_c, 0, 53, 18
1, 54480, Note_on_c, 0, 57, 18
1, 54480, Note_on_c, 0, 60, 23
1, 54600, Note_on_c, 0, 60, 0
1, 54600, Note_on_c, 0, 89, 0
1, 54600, Note_on_c, 0, 53, 0
1, 54600, Note_on_c, 0, 57, 0
1, 54720, Tempo, 377358
1, 54720, Note_on_c, 0, 81, 41
1, 54720, Note_on_c, 0, 53, 28
1, 54720, Note_on_c, 0, 57, 28
1, 54720, Note_on_c, 0, 60, 36
1, 54840, Note_on_c, 0, 60, 0
1, 54840, Note_on_c, 0, 81, 0
1, 54840, Note_on_c, 0, 53, 0
1, 54840, Note_on_c, 0, 57, 0
1, 54960, Note_on_c, 0, 93, 40
1, 54960, Note_on_c, 0, 53, 19
1, 54960, Note_on_c, 0, 57, 19
1, 54960, Note_on_c, 0, 60, 24
1, 55080, Note_on_c, 0, 60, 0
1, 55080, Note_on_c, 0, 93, 0
1, 55080, Note_on_c, 0, 53, 0
1, 55080, Note_on_c, 0, 57, 0
1, 55200, Tempo, 380952
1, 55200, Note_on_c, 0, 79, 46
1, 55200, Note_on_c, 0, 53, 29
1, 55200, Note_on_c, 0, 57, 29
1, 55200, Note_on_c, 0, 60, 37
1, 55320, Note_on_c, 0, 60, 0
1, 55320, Note_on_c, 0, 79, 0
1, 55320, Note_on_c, 0, 53, 0
1, 55320, Note_on_c, 0, 57, 0
1, 55440, Tempo, 396040
1, 55440, Note_on_c, 0, 91, 42
1, 55440, Note_on_c, 0, 53, 19
1, 55440, Note_on_c, 0, 57, 19
1, 55440, Note_on_c, 0, 60, 24
1, 55560, Note_on_c, 0, 60, 0
1, 55560, Note_on_c, 0, 91, 0
1, 55560, Note_on_c, 0, 53, 0
1, 55560, Note_on_c, 0, 57, 0
1, 55680, Tempo, 382166
1, 55680, Note_on_c, 0, 77, 49
1, 55680, Note_on_c, 0, 53, 30
1, 55680, Note_on_c, 0, 57, 30
1, 55680, Note_on_c, 0, 61, 38
1, 55800, Note_on_c, 0, 61, 0
1, 55800, Note_on_c, 0, 77, 0
1, 55800, Note_on_c, 0, 53, 0
1, 55800, Note_on_c, 0, 57, 0
1, 55920, Note_on_c, 0, 89, 43
1, 55920, Note_on_c, 0, 61, 24
1, 55920, Note_on_c, 0, 57, 19
1, 55920, Note_on_c, 0, 53, 19
1, 56040, Note_on_c, 0, 53, 0
1, 56040, Note_on_c, 0, 89, 0
1, 56040, Note_on_c, 0, 61, 0
1, 56040, Note_on_c, 0, 57, 0
1, 56160, Note_on_c, 0, 76, 49
1, 56160, Note_on_c, 0, 53, 33
1, 56160, Note_on_c, 0, 57, 33
1, 56160, Note_on_c, 0, 61, 42
1, 56280, Note_on_c, 0, 61, 0
1, 56280, Note_on_c, 0, 76, 0
1, 56280, Note_on_c, 0, 53, 0
1, 56280, Note_on_c, 0, 57, 0
1, 56400, Note_on_c, 0, 88, 46
1, 56400, Note_on_c, 0, 61, 27
1, 56400, Note_on_c, 0, 57, 21
1, 56400, Note_on_c, 0, 53, 21
1, 56520, Note_on_c, 0, 53, 0
1, 56520, Note_on_c, 0, 88, 0
1, 56520, Note_on_c, 0, 61, 0
1, 56520, Note_on_c, 0, 57, 0
1, 56640, Tempo, 378549
1, 56640, Note_on_c, 0, 79, 58
1, 56640, Note_on_c, 0, 62, 47
1, 56640, Note_on_c, 0, 57, 37
1, 56640, Note_on_c, 0, 53, 37
1, 56760, Note_on_c, 0, 53, 0
1, 56760, Note_on_c, 0, 79, 0
1, 56760, Note_on_c, 0, 62, 0
1, 56760, Note_on_c, 0, 57, 0
1, 56880, Note_on_c, 0, 91, 41
1, 56880, Note_on_c, 0, 53, 21
1, 56880, Note_on_c, 0, 57, 21
1, 56880, Note_on_c, 0, 62, 27
1, 57000, Note_on_c, 0, 62, 0
1, 57000, Note_on_c, 0, 91, 0
1, 57000, Note_on_c, 0, 53, 0
1, 57000, Note_on_c, 0, 57, 0
1, 57120, Tempo, 383387
1, 57120, Note_on_c, 0, 77, 51
1, 57120, Note_on_c, 0, 53, 29
1, 57120, Note_on_c, 0, 57, 29
1, 57120, Note_on_c, 0, 62, 37
1, 57240, Note_on_c, 0, 62, 0
1, 57240, Note_on_c, 0, 77, 0
1, 57240, Note_on_c, 0, 53, 0
1, 57240, Note_on_c, 0, 57, 0
1, 57360, Tempo, 397351
1, 57360, Note_on_c, 0, 89, 42
1, 57360, Note_on_c, 0, 53, 19
1, 57360, Note_on_c, 0, 57, 19
1, 57360, Note_on_c, 0, 62, 24
1, 57480, Note_on_c, 0, 62, 0
1, 57480, Note_on_c, 0, 89, 0
1, 57480, Note_on_c, 0, 53, 0
1, 57480, Note_on_c, 0, 57, 0
1, 57600, Tempo, 387097
1, 57600, Note_on_c, 0, 76, 55
1, 57600, Note_on_c, 0, 53, 27
1, 57600, Note_on_c, 0, 62, 35
1, 57600, Note_on_c, 0, 58, 27
1, 57600, Note_on_c, 0, 55, 27
1, 57720, Note_on_c, 0, 55, 0
1, 57720, Note_on_c, 0, 62, 0
1, 57720, Note_on_c, 0, 76, 0
1, 57720, Note_on_c, 0, 53, 0
1, 57720, Note_on_c, 0, 58, 0
1, 57840, Note_on_c, 0, 88, 43
1, 57840, Note_on_c, 0, 53, 16
1, 57840, Note_on_c, 0, 55, 16
1, 57840, Note_on_c, 0, 58, 16
1, 57840, Note_on_c, 0, 62, 20
1, 57960, Note_on_c, 0, 62, 0
1, 57960, Note_on_c, 0, 55, 0
1, 57960, Note_on_c, 0, 88, 0
1, 57960, Note_on_c, 0, 53, 0
1, 57960, Note_on_c, 0, 58, 0
1, 58080, Tempo, 382166
1, 58080, Note_on_c, 0, 74, 49
1, 58080, Note_on_c, 0, 55, 24
1, 58080, Note_on_c, 0, 62, 31
1, 58080, Note_on_c, 0, 58, 24
1, 58080, Note_on_c, 0, 53, 24
1, 58200, Note_on_c, 0, 53, 0
1, 58200, Note_on_c, 0, 62, 0
1, 58200, Note_on_c, 0, 74, 0
1, 58200, Note_on_c, 0, 55, 0
1, 58200, Note_on_c, 0, 58, 0
1, 58320, Note_on_c, 0, 86, 40
1, 58320, Note_on_c, 0, 55, 18
1, 58320, Note_on_c, 0, 53, 18
1, 58320, Note_on_c, 0, 58, 18
1, 58320, Note_on_c, 0, 62, 23
1, 58440, Note_on_c, 0, 62, 0
1, 58440, Note_on_c, 0, 53, 0
1, 58440, Note_on_c, 0, 86, 0
1, 58440, Note_on_c, 0, 55, 0
1, 58440, Note_on_c, 0, 58, 0
1, 58560, Tempo, 384615
1, 58560, Note_on_c, 0, 67, 44
1, 58560, Note_on_c, 0, 55, 28
1, 58560, Note_on_c, 0, 53, 28
1, 58560, Note_on_c, 0, 58, 28
1, 58560, Note_on_c, 0, 62, 36
1, 58680, Note_on_c, 0, 62, 0
1, 58680, Note_on_c, 0, 53, 0
1, 58680, Note_on_c, 0, 67, 0
1, 58680, Note_on_c, 0, 55, 0
1, 58680, Note_on_c, 0, 58, 0
1, 58800, Note_on_c, 0, 79, 43
1, 58800, Note_on_c, 0, 55, 19
1, 58800, Note_on_c, 0, 53, 19
1, 58800, Note_on_c, 0, 58, 19
1, 58800, Note_on_c, 0, 62, 24
1, 58920, Note_on_c, 0, 62, 0
1, 58920, Note_on_c, 0, 53, 0
1, 58920, Note_on_c, 0, 79, 0
1, 58920, Note_on_c, 0, 55, 0
1, 58920, Note_on_c, 0, 58, 0
1, 59040, Tempo, 385852
1, 59040, Note_on_c, 0, 69, 48
1, 59040, Note_on_c, 0, 55, 29
1, 59040, Note_on_c, 0, 53, 29
1, 59040, Note_on_c, 0, 58, 29
1, 59040, Note_on_c, 0, 62, 37
1, 59160, Note_on_c, 0, 62, 0
1, 59160, Note_on_c, 0, 53, 0
1, 59160, Note_on_c, 0, 69, 0
1, 59160, Note_on_c, 0, 55, 0
1, 59160, Note_on_c, 0, 58, 0
1, 59280, Tempo, 392157
1, 59280, Note_on_c, 0, 81, 45
1, 59280, Note_on_c, 0, 55, 19
1, 59280, Note_on_c, 0, 53, 19
1, 59280, Note_on_c, 0, 58, 19
1, 59280, Note_on_c, 0, 62, 24
1, 59400, Note_on_c, 0, 62, 0
1, 59400, Note_on_c, 0, 53, 0
1, 59400, Note_on_c, 0, 81, 0
1, 59400, Note_on_c, 0, 55, 0
1, 59400, Note_on_c, 0, 58, 0
1, 59520, Tempo, 384615
1, 59520, Note_on_c, 0, 70, 58
1, 59520, Note_on_c, 0, 52, 30
1, 59520, Note_on_c, 0, 55, 30
1, 59520, Note_on_c, 0, 60, 38
1, 59640, Note_on_c, 0, 60, 0
1, 59640, Note_on_c, 0, 70, 0
1, 59640, Note_on_c, 0, 52, 0
1, 59640, Note_on_c, 0, 55, 0
1, 59760, Note_on_c, 0, 82, 51
1, 59760, Note_on_c, 0, 60, 24
1, 59760, Note_on_c, 0, 55, 19
1, 59760, Note_on_c, 0, 52, 19
1, 59880, Note_on_c, 0, 52, 0
1, 59880, Note_on_c, 0, 82, 0
1, 59880, Note_on_c, 0, 60, 0
1, 59880, Note_on_c, 0, 55, 0
1, 60000, Tempo, 384615
1, 60000, Note_on_c, 0, 71, 53
1, 60000, Note_on_c, 0, 52, 33
1, 60000, Note_on_c, 0, 55, 33
1, 60000, Note_on_c, 0, 60, 42
1, 60120, Note_on_c, 0, 60, 0
1, 60120, Note_on_c, 0, 71, 0
1, 60120, Note_on_c, 0, 52, 0
1, 60120, Note_on_c, 0, 55, 0
1, 60240, Tempo, 393443
1, 60240, Note_on_c, 0, 83, 50
1, 60240, Note_on_c, 0, 60, 27
1, 60240, Note_on_c, 0, 55, 21
1, 60240, Note_on_c, 0, 52, 21
1, 60360, Note_on_c, 0, 52, 0
1, 60360, Note_on_c, 0, 83, 0
1, 60360, Note_on_c, 0, 60, 0
1, 60360, Note_on_c, 0, 55, 0
1, 60480, Tempo, 389610
1, 60480, Note_on_c, 0, 72, 58
1, 60480, Note_on_c, 0, 60, 47
1, 60480, Note_on_c, 0, 55, 37
1, 60480, Note_on_c, 0, 52, 37
1, 60600, Note_on_c, 0, 52, 0
1, 60600, Note_on_c, 0, 72, 0
1, 60600, Note_on_c, 0, 60, 0
1, 60600, Note_on_c, 0, 55, 0
1, 60720, Note_on_c, 0, 84, 43
1, 60720, Note_on_c, 0, 52, 21
1, 60720, Note_on_c, 0, 55, 21
1, 60720, Note_on_c, 0, 60, 27
1, 60840, Note_on_c, 0, 60, 0
1, 60840, Note_on_c, 0, 84, 0
1, 60840, Note_on_c, 0, 52, 0
1, 60840, Note_on_c, 0, 55, 0
1, 60960, Tempo, 397351
1, 60960, Note_on_c, 0, 70, 52
1, 60960, Note_on_c, 0, 52, 29
1, 60960, Note_on_c, 0, 55, 29
1, 60960, Note_on_c, 0, 60, 37
1, 61080, Note_on_c, 0, 60, 0
1, 61080, Note_on_c, 0, 70, 0
1, 61080, Note_on_c, 0, 52, 0
1, 61080, Note_on_c, 0, 55, 0
1, 61200, Tempo, 418118
1, 61200, Note_on_c, 0, 82, 43
1, 61200, Note_on_c, 0, 52, 19
1, 61200, Note_on_c, 0, 55, 19
1, 61200, Note_on_c, 0, 60, 24
1, 61320, Note_on_c, 0, 60, 0
1, 61320, Note_on_c, 0, 82, 0
1, 61320, Note_on_c, 0, 52, 0
1, 61320, Note_on_c, 0, 55, 0
1, 61440, Tempo, 392157
1, 61440, Note_on_c, 0, 72, 55
1, 61440, Note_on_c, 0, 53, 29
1, 61440, Note_on_c, 0, 57, 29
1, 61440, Note_on_c, 0, 60, 37
1, 61560, Note_on_c, 0, 60, 0
1, 61560, Note_on_c, 0, 72, 0
1, 61560, Note_on_c, 0, 53, 0
1, 61560, Note_on_c, 0, 57, 0
1, 61680, Note_on_c, 0, 84, 46
1, 61680, Note_on_c, 0, 60, 24
1, 61680, Note_on_c, 0, 57, 19
1, 61680, Note_on_c, 0, 53, 19
1, 61800, Note_on_c, 0, 53, 0
1, 61800, Note_on_c, 0, 84, 0
1, 61800, Note_on_c, 0, 60, 0
1, 61800, Note_on_c, 0, 57, 0
1, 61920, Tempo, 384615
1, 61920, Note_on_c, 0, 77, 55
1, 61920, Note_on_c, 0, 53, 32
1, 61920, Note_on_c, 0, 57, 32
1, 61920, Note_on_c, 0, 60, 40
1, 62040, Note_on_c, 0, 60, 0
1, 62040, Note_on_c, 0, 77, 0
1, 62040, Note_on_c, 0, 53, 0
1, 62040, Note_on_c, 0, 57, 0
1, 62160, Tempo, 393443
1, 62160, Note_on_c, 0, 89, 44
1, 62160, Note_on_c, 0, 60, 28
1, 62160, Note_on_c, 0, 57, 21
1, 62160, Note_on_c, 0, 53, 21
1, 62280, Note_on_c, 0, 53, 0
1, 62280, Note_on_c, 0, 89, 0
1, 62280, Note_on_c, 0, 60, 0
1, 62280, Note_on_c, 0, 57, 0
1, 62400, Tempo, 383387
1, 62400, Note_on_c, 0, 77, 62
1, 62400, Note_on_c, 0, 67, 47
1, 62400, Note_on_c, 0, 57, 36
1, 62400, Note_on_c, 0, 61, 36
1, 62520, Note_on_c, 0, 61, 0
1, 62520, Note_on_c, 0, 77, 0
1, 62520, Note_on_c, 0, 67, 0
1, 62520, Note_on_c, 0, 57, 0
1, 62640, Note_on_c, 0, 89, 52
1, 62640, Note_on_c, 0, 67, 31
1, 62640, Note_on_c, 0, 57, 24
1, 62640, Note_on_c, 0, 61, 24
1, 62760, Note_on_c, 0, 61, 0
1, 62760, Note_on_c, 0, 89, 0
1, 62760, Note_on_c, 0, 67, 0
1, 62760, Note_on_c, 0, 57, 0
1, 62880, Note_on_c, 0, 76, 64
1, 62880, Note_on_c, 0, 67, 44
1, 62880, Note_on_c, 0, 57, 35
1, 62880, Note_on_c, 0, 61, 35
1, 63000, Note_on_c, 0, 61, 0
1, 63000, Note_on_c, 0, 76, 0
1, 63000, Note_on_c, 0, 67, 0
1, 63000, Note_on_c, 0, 57, 0
1, 63120, Tempo, 397351
1, 63120, Note_on_c, 0, 88, 50
1, 63120, Note_on_c, 0, 67, 30
1, 63120, Note_on_c, 0, 57, 24
1, 63120, Note_on_c, 0, 61, 24
1, 63240, Note_on_c, 0, 61, 0
1, 63240, Note_on_c, 0, 88, 0
1, 63240, Note_on_c, 0, 67, 0
1, 63240, Note_on_c, 0, 57, 0
1, 63360, Tempo, 385852
1, 63360, Note_on_c, 0, 76, 72
1, 63360, Note_on_c, 0, 67, 50
1, 63360, Note_on_c, 0, 61, 38
1, 63360, Note_on_c, 0, 58, 38
1, 63480, Note_on_c, 0, 58, 0
1, 63480, Note_on_c, 0, 76, 0
1, 63480, Note_on_c, 0, 67, 0
1, 63480, Note_on_c, 0, 61, 0
1, 63600, Note_on_c, 0, 88, 65
1, 63600, Note_on_c, 0, 67, 33
1, 63600, Note_on_c, 0, 61, 26
1, 63600, Note_on_c, 0, 58, 26
1, 63720, Note_on_c, 0, 58, 0
1, 63720, Note_on_c, 0, 88, 0
1, 63720, Note_on_c, 0, 67, 0
1, 63720, Note_on_c, 0, 61, 0
1, 63840, Note_on_c, 0, 74, 70
1, 63840, Note_on_c, 0, 65, 49
1, 63840, Note_on_c, 0, 62, 39
1, 63840, Note_on_c, 0, 58, 39
1, 63960, Note_on_c, 0, 58, 0
1, 63960, Note_on_c, 0, 74, 0
1, 63960, Note_on_c, 0, 65, 0
1, 63960, Note_on_c, 0, 62, 0
1, 64080, Tempo, 391134
1, 64080, Note_on_c, 0, 86, 57
1, 64080, Note_on_c, 0, 58, 22
1, 64080, Note_on_c, 0, 62, 22
1, 64080, Note_on_c, 0, 65, 28
1, 64200, Note_on_c, 0, 65, 0
1, 64200, Note_on_c, 0, 86, 0
1, 64200, Note_on_c, 0, 58, 0
1, 64200, Note_on_c, 0, 62, 0
1, 64320, Tempo, 384615
1, 64320, Note_on_c, 0, 72, 63
1, 64320, Note_on_c, 0, 69, 47
1, 64320, Note_on_c, 0, 62, 36
1, 64320, Note_on_c, 0, 58, 36
1, 64440, Note_on_c, 0, 58, 0
1, 64440, Note_on_c, 0, 72, 0
1, 64440, Note_on_c, 0, 69, 0
1, 64440, Note_on_c, 0, 62, 0
1, 64560, Note_on_c, 0, 84, 49
1, 64560, Note_on_c, 0, 69, 27
1, 64560, Note_on_c, 0, 62, 21
1, 64560, Note_on_c, 0, 58, 21
1, 64680, Note_on_c, 0, 58, 0
1, 64680, Note_on_c, 0, 84, 0
1, 64680, Note_on_c, 0, 69, 0
1, 64680, Note_on_c, 0, 62, 0
1, 64800, Note_on_c, 0, 70, 58
1, 64800, Note_on_c, 0, 67, 46
1, 64800, Note_on_c, 0, 62, 36
1, 64800, Note_on_c, 0, 58, 36
1, 64920, Note_on_c, 0, 58, 0
1, 64920, Note_on_c, 0, 70, 0
1, 64920, Note_on_c, 0, 67, 0
1, 64920, Note_on_c, 0, 62, 0
1, 65040, Tempo, 397351
1, 65040, Note_on_c, 0, 82, 48
1, 65040, Note_on_c, 0, 67, 29
1, 65040, Note_on_c, 0, 62, 23
1, 65040, Note_on_c, 0, 58, 23
1, 65160, Note_on_c, 0, 58, 0
1, 65160, Note_on_c, 0, 82, 0
1, 65160, Note_on_c, 0, 67, 0
1, 65160, Note_on_c, 0, 62, 0
1, 65280, Tempo, 385852
1, 65280, Note_on_c, 0, 69, 60
1, 65280, Note_on_c, 0, 60, 39
1, 65280, Note_on_c, 0, 65, 46
1, 65400, Note_on_c, 0, 65, 0
1, 65400, Note_on_c, 0, 60, 0
1, 65400, Note_on_c, 0, 69, 0
1, 65520, Note_on_c, 0, 81, 48
1, 65520, Note_on_c, 0, 65, 36
1, 65520, Note_on_c, 0, 60, 31
1, 65640, Note_on_c, 0, 60, 0
1, 65640, Note_on_c, 0, 65, 0
1, 65640, Note_on_c, 0, 81, 0
1, 65760, Note_on_c, 0, 65, 58
1, 65760, Note_on_c, 0, 57, 36
1, 65760, Note_on_c, 0, 60, 44
1, 65880, Note_on_c, 0, 60, 0
1, 65880, Note_on_c, 0, 57, 0
1, 65880, Note_on_c, 0, 65, 0
1, 66000, Tempo, 392157
1, 66000, Note_on_c, 0, 77, 50
1, 66000, Note_on_c, 0, 60, 37
1, 66000, Note_on_c, 0, 57, 31
1, 66120, Note_on_c, 0, 57, 0
1, 66120, Note_on_c, 0, 60, 0
1, 66120, Note_on_c, 0, 77, 0
1, 66240, Tempo, 384615
1, 66240, Note_on_c, 0, 65, 66
1, 66240, Note_on_c, 0, 61, 49
1, 66240, Note_on_c, 0, 58, 41
1, 66240, Note_on_c, 0, 55, 41
1, 66360, Note_on_c, 0, 55, 0
1, 66360, Note_on_c, 0, 65, 0
1, 66360, Note_on_c, 0, 61, 0
1, 66360, Note_on_c, 0, 58, 0
1, 66480, Note_on_c, 0, 77, 60
1, 66480, Note_on_c, 0, 61, 44
1, 66480, Note_on_c, 0, 58, 36
1, 66480, Note_on_c, 0, 55, 36
1, 66600, Note_on_c, 0, 55, 0
1, 66600, Note_on_c, 0, 77, 0
1, 66600, Note_on_c, 0, 61, 0
1, 66600, Note_on_c, 0, 58, 0
1, 66720, Tempo, 385852
1, 66720, Note_on_c, 0, 64, 64
1, 66720, Note_on_c, 0, 60, 54
1, 66720, Note_on_c, 0, 58, 44
1, 66720, Note_on_c, 0, 55, 44
1, 66840, Note_on_c, 0, 55, 0
1, 66840, Note_on_c, 0, 64, 0
1, 66840, Note_on_c, 0, 60, 0
1, 66840, Note_on_c, 0, 58, 0
1, 66960, Tempo, 397351
1, 66960, Note_on_c, 0, 76, 51
1, 66960, Note_on_c, 0, 60, 47
1, 66960, Note_on_c, 0, 58, 39
1, 66960, Note_on_c, 0, 55, 39
1, 67080, Note_on_c, 0, 55, 0
1, 67080, Note_on_c, 0, 76, 0
1, 67080, Note_on_c, 0, 60, 0
1, 67080, Note_on_c, 0, 58, 0
1, 67200, Tempo, 382166
1, 67200, Note_on_c, 0, 65, 59
1, 67200, Note_on_c, 0, 60, 43
1, 67200, Note_on_c, 0, 57, 36
1, 67200, Note_on_c, 0, 53, 36
1, 67320, Note_on_c, 0, 65, 0
1, 67440, Tempo, 394737
1, 67440, Note_on_c, 0, 65, 44
1, 67440, Note_on_c, 0, 77, 52
1, 67560, Note_on_c, 0, 77, 0
1, 67560, Note_on_c, 0, 65, 0
1, 67680, Tempo, 385852
1, 67680, Note_on_c, 0, 53, 0
1, 67680, Note_on_c, 0, 57, 0
1, 67680, Note_on_c, 0, 60, 0
1, 67680, Note_on_c, 0, 77, 61
1, 67680, Note_on_c, 0, 65, 51
1, 67800, Note_on_c, 0, 65, 0
1, 67800, Note_on_c, 0, 77, 0
1, 67920, Tempo, 393443
1, 67920, Note_on_c, 0, 53, 39
1, 67920, Note_on_c, 0, 65, 47
1, 68040, Note_on_c, 0, 65, 0
1, 68040, Note_on_c, 0, 53, 0
1, 68160, Tempo, 393443
1, 68160, Note_on_c, 0, 53, 45
1, 68160, Note_on_c, 0, 65, 53
1, 68400, Note_on_c, 0, 65, 38
1, 68400, Note_on_c, 0, 77, 45
1, 68520, Note_on_c, 0, 77, 0
1, 68520, Note_on_c, 0, 65, 0
1, 68640, Tempo, 398671
1, 68640, Note_on_c, 0, 65, 0
1, 68640, Note_on_c, 0, 53, 0
1, 68640, Note_on_c, 0, 77, 51
1, 68640, Note_on_c, 0, 65, 43
1, 68760, Note_on_c, 0, 65, 0
1, 68760, Note_on_c, 0, 77, 0
1, 68880, Tempo, 419580
1, 68880, Note_on_c, 0, 51, 42
1, 68880, Note_on_c, 0, 63, 51
1, 69000, Note_on_c, 0, 63, 0
1, 69000, Note_on_c, 0, 51, 0
1, 69120, Note_on_c, 0, 49, 49
1, 69120, Note_on_c, 0, 61, 58
1, 69247, Control_c, 0, 64, 127
1, 69360, Tempo, 390879
1, 69360, Note_on_c, 0, 65, 44
1, 69360, Note_on_c, 0, 77, 52
1, 69480, Note_on_c, 0, 77, 0
1, 69480, Note_on_c, 0, 65, 0
1, 69600, Tempo, 385852
1, 69600, Note_on_c, 0, 61, 0
1, 69600, Note_on_c, 0, 49, 0
1, 69600, Note_on_c, 0, 77, 61
1, 69600, Note_on_c, 0, 65, 51
1, 69720, Note_on_c, 0, 65, 0
1, 69720, Note_on_c, 0, 77, 0
1, 69840, Tempo, 393443
1, 69840, Note_on_c, 0, 53, 39
1, 69840, Note_on_c, 0, 65, 47
1, 69904, Control_c, 0, 64, 0
1, 69960, Note_on_c, 0, 65, 0
1, 69960, Note_on_c, 0, 53, 0
1, 70080, Tempo, 393443
1, 70080, Note_on_c, 0, 53, 45
1, 70080, Note_on_c, 0, 65, 53
1, 70137, Control_c, 0, 64, 127
1, 70320, Note_on_c, 0, 77, 53
1, 70320, Note_on_c, 0, 65, 45
1, 70440, Note_on_c, 0, 65, 0
1, 70440, Note_on_c, 0, 77, 0
1, 70560, Tempo, 398671
1, 70560, Note_on_c, 0, 65, 0
1, 70560, Note_on_c, 0, 53, 0
1, 70560, Note_on_c, 0, 65, 48
1, 70560, Note_on_c, 0, 77, 57
1, 70603, Control_c, 0, 64, 0
1, 70680, Note_on_c, 0, 77, 0
1, 70680, Note_on_c, 0, 65, 0
1, 70800, Tempo, 412655
1, 70800, Note_on_c, 0, 61, 61
1, 70800, Note_on_c, 0, 49, 51
1, 70920, Note_on_c, 0, 49, 0
1, 70920, Note_on_c, 0, 61, 0
1, 71040, Tempo, 416956
1, 71040, Note_on_c, 0, 60, 69
1, 71040, Note_on_c, 0, 48, 58
1, 71095, Control_c, 0, 64, 127
1, 71280, Tempo, 394737
1, 71280, Note_on_c, 0, 75, 52
1, 71280, Note_on_c, 0, 65, 44
1, 71280, Note_on_c, 0, 77, 52
1, 71400, Note_on_c, 0, 77, 0
1, 71400, Note_on_c, 0, 75, 0
1, 71400, Note_on_c, 0, 65, 0
1, 71520, Tempo, 385852
1, 71520, Note_on_c, 0, 48, 0
1, 71520, Note_on_c, 0, 60, 0
1, 71520, Note_on_c, 0, 75, 61
1, 71520, Note_on_c, 0, 77, 61
1, 71520, Note_on_c, 0, 65, 51
1, 71640, Note_on_c, 0, 65, 0
1, 71640, Note_on_c, 0, 77, 0
1, 71640, Note_on_c, 0, 75, 0
1, 71686, Control_c, 0, 64, 0
1, 71760, Tempo, 393443
1, 71760, Note_on_c, 0, 65, 54
1, 71760, Note_on_c, 0, 53, 45
1, 71880, Note_on_c, 0, 53, 0
1, 71880, Note_on_c, 0, 65, 0
1, 72000, Tempo, 393443
1, 72000, Note_on_c, 0, 65, 63
1, 72000, Note_on_c, 0, 53, 53
1, 72042, Control_c, 0, 64, 127
1, 72240, Note_on_c, 0, 77, 51
1, 72240, Note_on_c, 0, 65, 43
1, 72240, Note_on_c, 0, 75, 51
1, 72360, Note_on_c, 0, 75, 0
1, 72360, Note_on_c, 0, 77, 0
1, 72360, Note_on_c, 0, 65, 0
1, 72480, Tempo, 398671
1, 72480, Note_on_c, 0, 53, 0
1, 72480, Note_on_c, 0, 65, 0
1, 72480, Note_on_c, 0, 65, 48
1, 72480, Note_on_c, 0, 77, 57
1, 72480, Note_on_c, 0, 75, 57
1, 72600, Note_on_c, 0, 75, 0
1, 72600, Note_on_c, 0, 77, 0
1, 72600, Note_on_c, 0, 65, 0
1, 72662, Control_c, 0, 64, 0
1, 72720, Tempo, 411241
1, 72720, Note_on_c, 0, 60, 62
1, 72720, Note_on_c, 0, 48, 52
1, 72840, Note_on_c, 0, 48, 0
1, 72840, Note_on_c, 0, 60, 0
1, 72960, Tempo, 416956
1, 72960, Note_on_c, 0, 58, 79
1, 72960, Note_on_c, 0, 46, 67
1, 73069, Control_c, 0, 64, 127
1, 73200, Tempo, 392157
1, 73200, Note_on_c, 0, 77, 57
1, 73200, Note_on_c, 0, 65, 48
1, 73200, Note_on_c, 0, 73, 57
1, 73320, Note_on_c, 0, 73, 0
1, 73320, Note_on_c, 0, 77, 0
1, 73320, Note_on_c, 0, 65, 0
1, 73440, Tempo, 385852
1, 73440, Note_on_c, 0, 46, 0
1, 73440, Note_on_c, 0, 58, 0
1, 73440, Note_on_c, 0, 65, 56
1, 73440, Note_on_c, 0, 77, 66
1, 73440, Note_on_c, 0, 73, 66
1, 73560, Note_on_c, 0, 73, 0
1, 73560, Note_on_c, 0, 77, 0
1, 73560, Note_on_c, 0, 65, 0
1, 73577, Control_c, 0, 64, 0
1, 73680, Tempo, 393443
1, 73680, Note_on_c, 0, 65, 64
1, 73680, Note_on_c, 0, 53, 54
1, 73800, Note_on_c, 0, 53, 0
1, 73800, Note_on_c, 0, 65, 0
1, 73920, Tempo, 393443
1, 73920, Note_on_c, 0, 65, 78
1, 73920, Note_on_c, 0, 53, 66
1, 74040, Control_c, 0, 64, 127
1, 74160, Note_on_c, 0, 77, 54
1, 74160, Note_on_c, 0, 65, 45
1, 74160, Note_on_c, 0, 73, 54
1, 74280, Note_on_c, 0, 73, 0
1, 74280, Note_on_c, 0, 77, 0
1, 74280, Note_on_c, 0, 65, 0
1, 74400, Tempo, 398671
1, 74400, Note_on_c, 0, 53, 0
1, 74400, Note_on_c, 0, 65, 0
1, 74400, Note_on_c, 0, 65, 50
1, 74400, Note_on_c, 0, 77, 59
1, 74400, Note_on_c, 0, 73, 59
1, 74520, Note_on_c, 0, 73, 0
1, 74520, Note_on_c, 0, 77, 0
1, 74520, Note_on_c, 0, 65, 0
1, 74537, Control_c, 0, 64, 0
1, 74640, Tempo, 433526
1, 74640, Note_on_c, 0, 58, 81
1, 74640, Note_on_c, 0, 46, 68
1, 74760, Note_on_c, 0, 46, 0
1, 74760, Note_on_c, 0, 58, 0
1, 74880, Tempo, 416956
1, 74880, Note_on_c, 0, 57, 88
1, 74880, Note_on_c, 0, 45, 74
1, 74880, Control_c, 0, 64, 127
1, 75120, Tempo, 392157
1, 75120, Note_on_c, 0, 45, 0
1, 75120, Note_on_c, 0, 57, 0
1, 75120, Note_on_c, 0, 77, 60
1, 75120, Note_on_c, 0, 72, 51
1, 75120, Note_on_c, 0, 65, 51
1, 75120, Note_on_c, 0, 60, 54
1, 75120, Note_on_c, 0, 57, 45
1, 75240, Note_on_c, 0, 57, 0
1, 75240, Note_on_c, 0, 65, 0
1, 75240, Note_on_c, 0, 77, 0
1, 75240, Note_on_c, 0, 72, 0
1, 75240, Note_on_c, 0, 60, 0
1, 75360, Tempo, 385852
1, 75360, Note_on_c, 0, 77, 60
1, 75360, Note_on_c, 0, 72, 51
1, 75360, Note_on_c, 0, 65, 51
1, 75360, Note_on_c, 0, 60, 54
1, 75360, Note_on_c, 0, 57, 45
1, 75480, Note_on_c, 0, 57, 0
1, 75480, Note_on_c, 0, 65, 0
1, 75480, Note_on_c, 0, 77, 0
1, 75480, Note_on_c, 0, 72, 0
1, 75480, Note_on_c, 0, 60, 0
1, 75600, Tempo, 406780
1, 75600, Note_on_c, 0, 77, 66
1, 75600, Note_on_c, 0, 72, 56
1, 75600, Note_on_c, 0, 65, 56
1, 75600, Note_on_c, 0, 60, 59
1, 75600, Note_on_c, 0, 57, 49
1, 75655, Control_c, 0, 64, 0
1, 75720, Note_on_c, 0, 57, 0
1, 75720, Note_on_c, 0, 65, 0
1, 75720, Note_on_c, 0, 77, 0
1, 75720, Note_on_c, 0, 72, 0
1, 75720, Note_on_c, 0, 60, 0
1, 75840, Tempo, 392157
1, 75840, Note_on_c, 0, 77, 78
1, 75840, Note_on_c, 0, 72, 64
1, 75840, Note_on_c, 0, 65, 64
1, 75840, Note_on_c, 0, 57, 60
1, 75840, Note_on_c, 0, 60, 71
1, 76080, Note_on_c, 0, 60, 0
1, 76080, Note_on_c, 0, 65, 0
1, 76080, Note_on_c, 0, 77, 0
1, 76080, Note_on_c, 0, 72, 0
1, 76080, Note_on_c, 0, 57, 0
1, 76080, Note_on_c, 0, 78, 66
1, 76080, Note_on_c, 0, 75, 56
1, 76080, Note_on_c, 0, 66, 56
1, 76080, Note_on_c, 0, 57, 46
1, 76080, Note_on_c, 0, 60, 55
1, 76200, Note_on_c, 0, 60, 0
1, 76200, Note_on_c, 0, 66, 0
1, 76200, Note_on_c, 0, 78, 0
1, 76200, Note_on_c, 0, 75, 0
1, 76200, Note_on_c, 0, 57, 0
1, 76320, Tempo, 387097
1, 76320, Note_on_c, 0, 66, 55
1, 76320, Note_on_c, 0, 75, 55
1, 76320, Note_on_c, 0, 78, 65
1, 76320, Note_on_c, 0, 57, 46
1, 76320, Note_on_c, 0, 60, 55
1, 76440, Note_on_c, 0, 60, 0
1, 76440, Note_on_c, 0, 78, 0
1, 76440, Note_on_c, 0, 66, 0
1, 76440, Note_on_c, 0, 75, 0
1, 76440, Note_on_c, 0, 57, 0
1, 76560, Tempo, 400000
1, 76560, Note_on_c, 0, 66, 52
1, 76560, Note_on_c, 0, 75, 52
1, 76560, Note_on_c, 0, 78, 62
1, 76560, Note_on_c, 0, 57, 50
1, 76560, Note_on_c, 0, 60, 60
1, 76680, Note_on_c, 0, 60, 0
1, 76680, Note_on_c, 0, 78, 0
1, 76680, Note_on_c, 0, 66, 0
1, 76680, Note_on_c, 0, 75, 0
1, 76680, Note_on_c, 0, 57, 0
1, 76800, Tempo, 408163
1, 76800, Note_on_c, 0, 66, 63
1, 76800, Note_on_c, 0, 75, 63
1, 76800, Note_on_c, 0, 78, 75
1, 76800, Note_on_c, 0, 60, 78
1, 76800, Note_on_c, 0, 57, 64
1, 77040, Tempo, 392157
1, 77040, Note_on_c, 0, 57, 0
1, 77040, Note_on_c, 0, 78, 0
1, 77040, Note_on_c, 0, 66, 0
1, 77040, Note_on_c, 0, 75, 0
1, 77040, Note_on_c, 0, 60, 0
1, 77040, Note_on_c, 0, 79, 63
1, 77040, Note_on_c, 0, 74, 53
1, 77040, Note_on_c, 0, 67, 53
1, 77040, Note_on_c, 0, 62, 56
1, 77040, Note_on_c, 0, 58, 47
1, 77160, Note_on_c, 0, 58, 0
1, 77160, Note_on_c, 0, 67, 0
1, 77160, Note_on_c, 0, 79, 0
1, 77160, Note_on_c, 0, 74, 0
1, 77160, Note_on_c, 0, 62, 0
1, 77280, Tempo, 385852
1, 77280, Note_on_c, 0, 79, 63
1, 77280, Note_on_c, 0, 74, 54
1, 77280, Note_on_c, 0, 67, 54
1, 77280, Note_on_c, 0, 62, 57
1, 77280, Note_on_c, 0, 58, 47
1, 77400, Note_on_c, 0, 58, 0
1, 77400, Note_on_c, 0, 67, 0
1, 77400, Note_on_c, 0, 79, 0
1, 77400, Note_on_c, 0, 74, 0
1, 77400, Note_on_c, 0, 62, 0
1, 77520, Tempo, 398671
1, 77520, Note_on_c, 0, 79, 69
1, 77520, Note_on_c, 0, 74, 59
1, 77520, Note_on_c, 0, 67, 59
1, 77520, Note_on_c, 0, 62, 62
1, 77520, Note_on_c, 0, 58, 51
1, 77640, Note_on_c, 0, 58, 0
1, 77640, Note_on_c, 0, 67, 0
1, 77640, Note_on_c, 0, 79, 0
1, 77640, Note_on_c, 0, 74, 0
1, 77640, Note_on_c, 0, 62, 0
1, 77760, Tempo, 390879
1, 77760, Note_on_c, 0, 79, 82
1, 77760, Note_on_c, 0, 74, 69
1, 77760, Note_on_c, 0, 67, 69
1, 77760, Note_on_c, 0, 58, 63
1, 77760, Note_on_c, 0, 62, 75
1, 78000, Note_on_c, 0, 62, 0
1, 78000, Note_on_c, 0, 67, 0
1, 78000, Note_on_c, 0, 79, 0
1, 78000, Note_on_c, 0, 74, 0
1, 78000, Note_on_c, 0, 58, 0
1, 78000, Note_on_c, 0, 80, 78
1, 78000, Note_on_c, 0, 74, 66
1, 78000, Note_on_c, 0, 68, 66
1, 78000, Note_on_c, 0, 59, 53
1, 78000, Note_on_c, 0, 65, 64
1, 78120, Note_on_c, 0, 65, 0
1, 78120, Note_on_c, 0, 68, 0
1, 78120, Note_on_c, 0, 80, 0
1, 78120, Note_on_c, 0, 74, 0
1, 78120, Note_on_c, 0, 59, 0
1, 78240, Tempo, 413793
1, 78240, Note_on_c, 0, 80, 77
1, 78240, Note_on_c, 0, 74, 65
1, 78240, Note_on_c, 0, 68, 65
1, 78240, Note_on_c, 0, 59, 54
1, 78240, Note_on_c, 0, 65, 66
1, 78360, Note_on_c, 0, 65, 0
1, 78360, Note_on_c, 0, 68, 0
1, 78360, Note_on_c, 0, 80, 0
1, 78360, Note_on_c, 0, 74, 0
1, 78360, Note_on_c, 0, 59, 0
1, 78480, Tempo, 555556
1, 78480, Note_on_c, 0, 80, 71
1, 78480, Note_on_c, 0, 74, 60
1, 78480, Note_on_c, 0, 68, 60
1, 78480, Note_on_c, 0, 59, 57
1, 78480, Note_on_c, 0, 65, 67
1, 78600, Tempo, 463320
1, 78600, Note_on_c, 0, 65, 0
1, 78600, Note_on_c, 0, 68, 0
1, 78600, Note_on_c, 0, 80, 0
1, 78600, Note_on_c, 0, 74, 0
1, 78600, Note_on_c, 0, 59, 0
1, 78660, Note_on_c, 0, 69, 67
1, 78690, Note_on_c, 0, 72, 67
1, 78720, Tempo, 552486
1, 78720, Note_on_c, 0, 81, 79
1, 78720, Note_on_c, 0, 60, 62
1, 78720, Note_on_c, 0, 65, 74
1, 78748, Control_c, 0, 64, 127
1, 78960, Note_on_c, 0, 65, 0
1, 78960, Note_on_c, 0, 81, 0
1, 78960, Note_on_c, 0, 69, 0
1, 78960, Note_on_c, 0, 72, 0
1, 78960, Note_on_c, 0, 60, 0
1, 79031, Control_c, 0, 64, 0
1, 79200, Tempo, 401338
1, 79200, Note_on_c, 0, 65, 42
1, 79200, Note_on_c, 0, 69, 50
1, 79200, Note_on_c, 0, 60, 47
1, 79290, Note_on_c, 0, 60, 0
1, 79290, Note_on_c, 0, 69, 0
1, 79290, Note_on_c, 0, 65, 0
1, 79440, Note_on_c, 0, 65, 45
1, 79440, Note_on_c, 0, 60, 38
1, 79440, Note_on_c, 0, 57, 40
1, 79530, Note_on_c, 0, 57, 0
1, 79530, Note_on_c, 0, 60, 0
1, 79530, Note_on_c, 0, 65, 0
1, 79680, Tempo, 394997
1, 79680, Note_on_c, 0, 65, 42
1, 79680, Note_on_c, 0, 69, 50
1, 79680, Note_on_c, 0, 60, 47
1, 79770, Note_on_c, 0, 60, 0
1, 79770, Note_on_c, 0, 69, 0
1, 79770, Note_on_c, 0, 65, 0
1, 79920, Note_on_c, 0, 65, 38
1, 79920, Note_on_c, 0, 60, 38
1, 79920, Note_on_c, 0, 57, 41
1, 80010, Note_on_c, 0, 57, 0
1, 80010, Note_on_c, 0, 60, 0
1, 80010, Note_on_c, 0, 65, 0
1, 80160, Note_on_c, 0, 69, 54
1, 80160, Note_on_c, 0, 65, 45
1, 80160, Note_on_c, 0, 60, 50
1, 80250, Note_on_c, 0, 60, 0
1, 80250, Note_on_c, 0, 65, 0
1, 80250, Note_on_c, 0, 69, 0
1, 80400, Tempo, 430108
1, 80400, Note_on_c, 0, 60, 48
1, 80400, Note_on_c, 0, 65, 57
1, 80400, Note_on_c, 0, 57, 48
1, 80490, Note_on_c, 0, 57, 0
1, 80490, Note_on_c, 0, 65, 0
1, 80490, Note_on_c, 0, 60, 0
1, 80640, Tempo, 401338
1, 80640, Note_on_c, 0, 64, 60
1, 80640, Note_on_c, 0, 67, 72
1, 80640, Note_on_c, 0, 48, 51
1, 80640, Note_on_c, 0, 58, 62
1, 80743, Control_c, 0, 64, 127
1, 80880, Note_on_c, 0, 58, 0
1, 80880, Note_on_c, 0, 64, 0
1, 80880, Note_on_c, 0, 67, 0
1, 80880, Note_on_c, 0, 48, 0
1, 80880, Note_on_c, 0, 72, 47
1, 80880, Note_on_c, 0, 60, 39
1, 81000, Note_on_c, 0, 60, 0
1, 81000, Note_on_c, 0, 72, 0
1, 81075, Control_c, 0, 64, 0
1, 81120, Note_on_c, 0, 72, 47
1, 81120, Note_on_c, 0, 60, 39
1, 81240, Note_on_c, 0, 60, 0
1, 81240, Note_on_c, 0, 72, 0
1, 81360, Tempo, 430108
1, 81360, Note_on_c, 0, 63, 48
1, 81360, Note_on_c, 0, 66, 57
1, 81360, Note_on_c, 0, 48, 40
1, 81360, Note_on_c, 0, 57, 48
1, 81480, Note_on_c, 0, 57, 0
1, 81480, Note_on_c, 0, 63, 0
1, 81480, Note_on_c, 0, 66, 0
1, 81480, Note_on_c, 0, 48, 0
1, 81600, Tempo, 401338
1, 81600, Note_on_c, 0, 64, 60
1, 81600, Note_on_c, 0, 67, 72
1, 81600, Note_on_c, 0, 48, 51
1, 81600, Note_on_c, 0, 58, 62
1, 81629, Control_c, 0, 64, 127
1, 81840, Note_on_c, 0, 58, 0
1, 81840, Note_on_c, 0, 64, 0
1, 81840, Note_on_c, 0, 67, 0
1, 81840, Note_on_c, 0, 48, 0
1, 81840, Note_on_c, 0, 72, 47
1, 81840, Note_on_c, 0, 60, 39
1, 81960, Note_on_c, 0, 60, 0
1, 81960, Note_on_c, 0, 72, 0
1, 82017, Control_c, 0, 64, 0
1, 82080, Note_on_c, 0, 72, 47
1, 82080, Note_on_c, 0, 60, 39
1, 82200, Note_on_c, 0, 60, 0
1, 82200, Note_on_c, 0, 72, 0
1, 82320, Note_on_c, 0, 48, 56
1, 82320, Note_on_c, 0, 36, 47
1, 82470, Note_on_c, 0, 69, 64
1, 82500, Tempo, 463320
1, 82500, Note_on_c, 0, 72, 64
1, 82530, Note_on_c, 0, 77, 64
1, 82560, Tempo, 549954
1, 82560, Note_on_c, 0, 36, 0
1, 82560, Note_on_c, 0, 48, 0
1, 82560, Note_on_c, 0, 81, 75
1, 82560, Note_on_c, 0, 41, 59
1, 82567, Note_on_c, 0, 53, 69
1, 82599, Control_c, 0, 64, 127
1, 82800, Note_on_c, 0, 41, 0
1, 82800, Note_on_c, 0, 81, 0
1, 82800, Note_on_c, 0, 72, 0
1, 82800, Note_on_c, 0, 77, 0
1, 82800, Note_on_c, 0, 69, 0
1, 82807, Note_on_c, 0, 53, 0
1, 82945, Control_c, 0, 64, 0
1, 83040, Tempo, 396301
1, 83040, Note_on_c, 0, 65, 42
1, 83040, Note_on_c, 0, 69, 50
1, 83040, Note_on_c, 0, 60, 47
1, 83130, Note_on_c, 0, 60, 0
1, 83130, Note_on_c, 0, 69, 0
1, 83130, Note_on_c, 0, 65, 0
1, 83280, Note_on_c, 0, 65, 45
1, 83280, Note_on_c, 0, 60, 38
1, 83280, Note_on_c, 0, 57, 40
1, 83370, Note_on_c, 0, 57, 0
1, 83370, Note_on_c, 0, 60, 0
1, 83370, Note_on_c, 0, 65, 0
1, 83520, Tempo, 392413
1, 83520, Note_on_c, 0, 65, 42
1, 83520, Note_on_c, 0, 69, 50
1, 83520, Note_on_c, 0, 60, 47
1, 83610, Note_on_c, 0, 60, 0
1, 83610, Note_on_c, 0, 69, 0
1, 83610, Note_on_c, 0, 65, 0
1, 83760, Note_on_c, 0, 65, 38
1, 83760, Note_on_c, 0, 60, 38
1, 83760, Note_on_c, 0, 57, 41
1, 83850, Note_on_c, 0, 57, 0
1, 83850, Note_on_c, 0, 60, 0
1, 83850, Note_on_c, 0, 65, 0
1, 84000, Note_on_c, 0, 69, 54
1, 84000, Note_on_c, 0, 65, 45
1, 84000, Note_on_c, 0, 60, 50
1, 84090, Note_on_c, 0, 60, 0
1, 84090, Note_on_c, 0, 65, 0
1, 84090, Note_on_c, 0, 69, 0
1, 84240, Tempo, 430108
1, 84240, Note_on_c, 0, 60, 46
1, 84240, Note_on_c, 0, 65, 55
1, 84240, Note_on_c, 0, 57, 46
1, 84330, Note_on_c, 0, 57, 0
1, 84330, Note_on_c, 0, 65, 0
1, 84330, Note_on_c, 0, 60, 0
1, 84480, Tempo, 401338
1, 84480, Note_on_c, 0, 64, 60
1, 84480, Note_on_c, 0, 67, 72
1, 84480, Note_on_c, 0, 48, 51
1, 84480, Note_on_c, 0, 58, 62
1, 84583, Control_c, 0, 64, 127
1, 84720, Note_on_c, 0, 58, 0
1, 84720, Note_on_c, 0, 64, 0
1, 84720, Note_on_c, 0, 67, 0
1, 84720, Note_on_c, 0, 48, 0
1, 84720, Note_on_c, 0, 72, 47
1, 84720, Note_on_c, 0, 60, 39
1, 84840, Note_on_c, 0, 60, 0
1, 84840, Note_on_c, 0, 72, 0
1, 84915, Control_c, 0, 64, 0
1, 84960, Note_on_c, 0, 72, 47
1, 84960, Note_on_c, 0, 60, 39
1, 85080, Note_on_c, 0, 60, 0
1, 85080, Note_on_c, 0, 72, 0
1, 85200, Tempo, 430108
1, 85200, Note_on_c, 0, 63, 46
1, 85200, Note_on_c, 0, 66, 55
1, 85200, Note_on_c, 0, 48, 38
1, 85200, Note_on_c, 0, 57, 46
1, 85320, Note_on_c, 0, 57, 0
1, 85320, Note_on_c, 0, 63, 0
1, 85320, Note_on_c, 0, 66, 0
1, 85320, Note_on_c, 0, 48, 0
1, 85440, Tempo, 401338
1, 85440, Note_on_c, 0, 64, 60
1, 85440, Note_on_c, 0, 67, 72
1, 85440, Note_on_c, 0, 48, 51
1, 85440, Note_on_c, 0, 58, 62
1, 85469, Control_c, 0, 64, 127
1, 85680, Note_on_c, 0, 58, 0
1, 85680, Note_on_c, 0, 64, 0
1, 85680, Note_on_c, 0, 67, 0
1, 85680, Note_on_c, 0, 48, 0
1, 85680, Note_on_c, 0, 72, 47
1, 85680, Note_on_c, 0, 60, 39
1, 85800, Note_on_c, 0, 60, 0
1, 85800, Note_on_c, 0, 72, 0
1, 85857, Control_c, 0, 64, 0
1, 85920, Note_on_c, 0, 72, 47
1, 85920, Note_on_c, 0, 60, 39
1, 86040, Note_on_c, 0, 60, 0
1, 86040, Note_on_c, 0, 72, 0
1, 86160, Note_on_c, 0, 48, 56
1, 86160, Note_on_c, 0, 36, 47
1, 86310, Note_on_c, 0, 69, 61
1, 86340, Tempo, 463320
1, 86340, Note_on_c, 0, 72, 61
1, 86370, Note_on_c, 0, 77, 61
1, 86400, Tempo, 410959
1, 86400, Note_on_c, 0, 36, 0
1, 86400, Note_on_c, 0, 48, 0
1, 86400, Note_on_c, 0, 81, 72
1, 86400, Note_on_c, 0, 41, 57
1, 86407, Note_on_c, 0, 53, 68
1, 86439, Control_c, 0, 64, 127
1, 86610, Note_on_c, 0, 77, 0
1, 86640, Note_on_c, 0, 81, 0
1, 86640, Note_on_c, 0, 72, 0
1, 86640, Note_on_c, 0, 69, 0
1, 86640, Note_on_c, 0, 77, 63
1, 86640, Note_on_c, 0, 65, 53
1, 86760, Note_on_c, 0, 65, 0
1, 86760, Note_on_c, 0, 77, 0
1, 86880, Note_on_c, 0, 41, 0
1, 86880, Note_on_c, 0, 77, 64
1, 86880, Note_on_c, 0, 65, 54
1, 86880, Note_on_c, 0, 40, 55
1, 86880, Note_on_c, 0, 52, 65
1, 86880, Control_c, 0, 64, 0
1, 86887, Note_on_c, 0, 53, 0
1, 86962, Tempo, 410959
1, 87000, Note_on_c, 0, 77, 0
1, 87000, Note_on_c, 0, 65, 0
1, 87000, Control_c, 0, 64, 127
1, 87120, Note_on_c, 0, 77, 65
1, 87120, Note_on_c, 0, 65, 55
1, 87162, Tempo, 412371
1, 87240, Note_on_c, 0, 65, 0
1, 87240, Note_on_c, 0, 77, 0
1, 87360, Note_on_c, 0, 40, 0
1, 87360, Note_on_c, 0, 52, 0
1, 87360, Note_on_c, 0, 77, 65
1, 87360, Note_on_c, 0, 65, 55
1, 87360, Note_on_c, 0, 38, 57
1, 87360, Note_on_c, 0, 50, 68
1, 87362, Tempo, 413793
1, 87375, Control_c, 0, 64, 0
1, 87445, Control_c, 0, 64, 127
1, 87480, Note_on_c, 0, 65, 0
1, 87480, Note_on_c, 0, 77, 0
1, 87562, Tempo, 415225
1, 87600, Note_on_c, 0, 77, 67
1, 87600, Note_on_c, 0, 65, 56
1, 87720, Note_on_c, 0, 65, 0
1, 87720, Note_on_c, 0, 77, 0
1, 87742, Tempo, 416667
1, 87840, Note_on_c, 0, 38, 0
1, 87840, Note_on_c, 0, 50, 0
1, 87840, Note_on_c, 0, 77, 69
1, 87840, Note_on_c, 0, 65, 58
1, 87840, Note_on_c, 0, 48, 69
1, 87840, Note_on_c, 0, 36, 58
1, 87864, Control_c, 0, 64, 0
1, 87942, Tempo, 418118
1, 87946, Control_c, 0, 64, 127
1, 87960, Note_on_c, 0, 65, 0
1, 87960, Note_on_c, 0, 77, 0
1, 88080, Note_on_c, 0, 77, 70
1, 88080, Note_on_c, 0, 65, 59
1, 88142, Tempo, 419580
1, 88200, Note_on_c, 0, 65, 0
1, 88200, Note_on_c, 0, 77, 0
1, 88320, Note_on_c, 0, 48, 0
1, 88320, Note_on_c, 0, 36, 0
1, 88320, Note_on_c, 0, 77, 77
1, 88320, Note_on_c, 0, 67, 65
1, 88320, Note_on_c, 0, 79, 77
1, 88320, Note_on_c, 0, 46, 70
1, 88320, Note_on_c, 0, 34, 59
1, 88322, Tempo, 421053
1, 88326, Control_c, 0, 64, 0
1, 88396, Control_c, 0, 64, 127
1, 88440, Note_on_c, 0, 79, 0
1, 88440, Note_on_c, 0, 77, 0
1, 88440, Note_on_c, 0, 67, 0
1, 88560, Tempo, 415225
1, 88560, Note_on_c, 0, 79, 69
1, 88560, Note_on_c, 0, 67, 58
1, 88560, Note_on_c, 0, 77, 69
1, 88680, Note_on_c, 0, 77, 0
1, 88680, Note_on_c, 0, 79, 0
1, 88680, Note_on_c, 0, 67, 0
1, 88800, Note_on_c, 0, 46, 0
1, 88800, Note_on_c, 0, 34, 0
1, 88800, Note_on_c, 0, 77, 71
1, 88800, Note_on_c, 0, 67, 60
1, 88800, Note_on_c, 0, 79, 71
1, 88800, Note_on_c, 0, 47, 64
1, 88800, Note_on_c, 0, 35, 54
1, 88817, Control_c, 0, 64, 0
1, 88882, Control_c, 0, 64, 127
1, 88920, Note_on_c, 0, 79, 0
1, 88920, Note_on_c, 0, 77, 0
1, 88920, Note_on_c, 0, 67, 0
1, 89040, Note_on_c, 0, 77, 72
1, 89040, Note_on_c, 0, 67, 61
1, 89040, Note_on_c, 0, 79, 72
1, 89160, Note_on_c, 0, 79, 0
1, 89160, Note_on_c, 0, 77, 0
1, 89160, Note_on_c, 0, 67, 0
1, 89280, Note_on_c, 0, 47, 0
1, 89280, Note_on_c, 0, 35, 0
1, 89280, Note_on_c, 0, 76, 73
1, 89280, Note_on_c, 0, 67, 62
1, 89280, Note_on_c, 0, 79, 73
1, 89280, Note_on_c, 0, 48, 67
1, 89280, Note_on_c, 0, 36, 56
1, 89290, Control_c, 0, 64, 0
1, 89362, Control_c, 0, 64, 127
1, 89400, Note_on_c, 0, 79, 0
1, 89400, Note_on_c, 0, 76, 0
1, 89400, Note_on_c, 0, 67, 0
1, 89520, Note_on_c, 0, 79, 73
1, 89520, Note_on_c, 0, 67, 62
1, 89520, Note_on_c, 0, 76, 73
1, 89640, Note_on_c, 0, 76, 0
1, 89640, Note_on_c, 0, 79, 0
1, 89640, Note_on_c, 0, 67, 0
1, 89760, Tempo, 419580
1, 89760, Note_on_c, 0, 48, 0
1, 89760, Note_on_c, 0, 36, 0
1, 89760, Note_on_c, 0, 81, 73
1, 89760, Note_on_c, 0, 79, 73
1, 89760, Note_on_c, 0, 69, 62
1, 89760, Note_on_c, 0, 76, 62
1, 89760, Note_on_c, 0, 49, 70
1, 89760, Note_on_c, 0, 37, 59
1, 89781, Control_c, 0, 64, 0
1, 89868, Control_c, 0, 64, 127
1, 89880, Note_on_c, 0, 76, 0
1, 89880, Note_on_c, 0, 69, 0
1, 89880, Note_on_c, 0, 81, 0
1, 89880, Note_on_c, 0, 79, 0
1, 90000, Tempo, 433213
1, 90000, Note_on_c, 0, 81, 73
1, 90000, Note_on_c, 0, 79, 73
1, 90000, Note_on_c, 0, 69, 62
1, 90000, Note_on_c, 0, 76, 62
1, 90120, Note_on_c, 0, 76, 0
1, 90120, Note_on_c, 0, 79, 0
1, 90120, Note_on_c, 0, 81, 0
1, 90120, Note_on_c, 0, 69, 0
1, 90240, Tempo, 416667
1, 90240, Note_on_c, 0, 49, 0
1, 90240, Note_on_c, 0, 37, 0
1, 90240, Note_on_c, 0, 77, 78
1, 90240, Note_on_c, 0, 69, 66
1, 90240, Note_on_c, 0, 81, 78
1, 90240, Note_on_c, 0, 38, 58
1, 90240, Note_on_c, 0, 50, 69
1, 90245, Control_c, 0, 64, 0
1, 90312, Control_c, 0, 64, 127
1, 90360, Note_on_c, 0, 81, 0
1, 90360, Note_on_c, 0, 77, 0
1, 90360, Note_on_c, 0, 69, 0
1, 90480, Note_on_c, 0, 77, 70
1, 90480, Note_on_c, 0, 69, 59
1, 90480, Note_on_c, 0, 81, 70
1, 90600, Note_on_c, 0, 81, 0
1, 90600, Note_on_c, 0, 77, 0
1, 90600, Note_on_c, 0, 69, 0
1, 90720, Note_on_c, 0, 38, 0
1, 90720, Note_on_c, 0, 50, 0
1, 90720, Note_on_c, 0, 81, 74
1, 90720, Note_on_c, 0, 69, 62
1, 90720, Note_on_c, 0, 77, 74
1, 90720, Note_on_c, 0, 51, 70
1, 90720, Note_on_c, 0, 39, 59
1, 90731, Control_c, 0, 64, 0
1, 90808, Control_c, 0, 64, 127
1, 90840, Note_on_c, 0, 77, 0
1, 90840, Note_on_c, 0, 81, 0
1, 90840, Note_on_c, 0, 69, 0
1, 90960, Note_on_c, 0, 81, 76
1, 90960, Note_on_c, 0, 69, 64
1, 90960, Note_on_c, 0, 77, 76
1, 91080, Note_on_c, 0, 77, 0
1, 91080, Note_on_c, 0, 81, 0
1, 91080, Note_on_c, 0, 69, 0
1, 91162, Tempo, 421053
1, 91200, Note_on_c, 0, 51, 0
1, 91200, Note_on_c, 0, 39, 0
1, 91200, Note_on_c, 0, 82, 77
1, 91200, Note_on_c, 0, 70, 65
1, 91200, Note_on_c, 0, 77, 77
1, 91200, Note_on_c, 0, 50, 73
1, 91200, Note_on_c, 0, 38, 62
1, 91216, Control_c, 0, 64, 0
1, 91242, Tempo, 422535
1, 91291, Control_c, 0, 64, 127
1, 91302, Tempo, 424028
1, 91320, Note_on_c, 0, 77, 0
1, 91320, Note_on_c, 0, 82, 0
1, 91320, Note_on_c, 0, 70, 0
1, 91362, Tempo, 425532
1, 91440, Note_on_c, 0, 82, 79
1, 91440, Note_on_c, 0, 70, 67
1, 91440, Note_on_c, 0, 77, 79
1, 91442, Tempo, 427046
1, 91502, Tempo, 428571
1, 91560, Note_on_c, 0, 77, 0
1, 91560, Note_on_c, 0, 82, 0
1, 91560, Note_on_c, 0, 70, 0
1, 91562, Tempo, 430108
1, 91642, Tempo, 431655
1, 91680, Note_on_c, 0, 50, 0
1, 91680, Note_on_c, 0, 38, 0
1, 91680, Note_on_c, 0, 83, 81
1, 91680, Note_on_c, 0, 80, 81
1, 91680, Note_on_c, 0, 71, 68
1, 91680, Note_on_c, 0, 77, 68
1, 91680, Note_on_c, 0, 49, 77
1, 91680, Note_on_c, 0, 37, 65
1, 91691, Control_c, 0, 64, 0
1, 91702, Tempo, 433213
1, 91735, Control_c, 0, 64, 127
1, 91762, Tempo, 434783
1, 91800, Note_on_c, 0, 77, 0
1, 91800, Note_on_c, 0, 71, 0
1, 91800, Note_on_c, 0, 83, 0
1, 91800, Note_on_c, 0, 80, 0
1, 91842, Tempo, 436364
1, 91902, Tempo, 437956
1, 91920, Note_on_c, 0, 77, 72
1, 91920, Note_on_c, 0, 71, 72
1, 91920, Note_on_c, 0, 80, 85
1, 91920, Note_on_c, 0, 83, 85
1, 91962, Tempo, 439560
1, 92040, Note_on_c, 0, 83, 0
1, 92040, Note_on_c, 0, 71, 0
1, 92040, Note_on_c, 0, 77, 0
1, 92040, Note_on_c, 0, 80, 0
1, 92042, Tempo, 441176
1, 92102, Tempo, 442804
1, 92160, Tempo, 428571
1, 92160, Note_on_c, 0, 49, 0
1, 92160, Note_on_c, 0, 37, 0
1, 92160, Note_on_c, 0, 84, 94
1, 92160, Note_on_c, 0, 81, 79
1, 92160, Note_on_c, 0, 77, 79
1, 92160, Note_on_c, 0, 72, 79
1, 92160, Note_on_c, 0, 48, 85
1, 92160, Note_on_c, 0, 36, 72
1, 92180, Control_c, 0, 64, 0
1, 92280, Note_on_c, 0, 36, 0
1, 92280, Note_on_c, 0, 81, 0
1, 92280, Note_on_c, 0, 77, 0
1, 92280, Note_on_c, 0, 84, 0
1, 92280, Note_on_c, 0, 48, 0
1, 92280, Note_on_c, 0, 72, 0
1, 92280, Control_c, 0, 64, 127
1, 92400, Note_on_c, 0, 84, 84
1, 92400, Note_on_c, 0, 72, 71
1, 92400, Note_on_c, 0, 60, 69
1, 92400, Note_on_c, 0, 48, 58
1, 92520, Note_on_c, 0, 48, 0
1, 92520, Note_on_c, 0, 84, 0
1, 92520, Note_on_c, 0, 72, 0
1, 92520, Note_on_c, 0, 60, 0
1, 92640, Note_on_c, 0, 84, 84
1, 92640, Note_on_c, 0, 72, 71
1, 92640, Note_on_c, 0, 60, 69
1, 92640, Note_on_c, 0, 48, 58
1, 92760, Note_on_c, 0, 48, 0
1, 92760, Note_on_c, 0, 84, 0
1, 92760, Note_on_c, 0, 72, 0
1, 92760, Note_on_c, 0, 60, 0
1, 92880, Note_on_c, 0, 72, 66
1, 92880, Note_on_c, 0, 84, 78
1, 92880, Note_on_c, 0, 60, 69
1, 92880, Note_on_c, 0, 48, 58
1, 93000, Note_on_c, 0, 48, 0
1, 93000, Note_on_c, 0, 72, 0
1, 93000, Note_on_c, 0, 84, 0
1, 93000, Note_on_c, 0, 60, 0
1, 93120, Tempo, 430108
1, 93120, Note_on_c, 0, 84, 94
1, 93120, Note_on_c, 0, 79, 79
1, 93120, Note_on_c, 0, 76, 79
1, 93120, Note_on_c, 0, 72, 79
1, 93120, Note_on_c, 0, 48, 85
1, 93120, Note_on_c, 0, 36, 72
1, 93140, Control_c, 0, 64, 0
1, 93240, Note_on_c, 0, 36, 0
1, 93240, Note_on_c, 0, 79, 0
1, 93240, Note_on_c, 0, 76, 0
1, 93240, Note_on_c, 0, 84, 0
1, 93240, Note_on_c, 0, 48, 0
1, 93240, Note_on_c, 0, 72, 0
1, 93240, Control_c, 0, 64, 127
1, 93360, Note_on_c, 0, 84, 84
1, 93360, Note_on_c, 0, 72, 71
1, 93360, Note_on_c, 0, 60, 69
1, 93360, Note_on_c, 0, 48, 58
1, 93480, Note_on_c, 0, 48, 0
1, 93480, Note_on_c, 0, 84, 0
1, 93480, Note_on_c, 0, 72, 0
1, 93480, Note_on_c, 0, 60, 0
1, 93600, Tempo, 433213
1, 93600, Note_on_c, 0, 84, 84
1, 93600, Note_on_c, 0, 72, 71
1, 93600, Note_on_c, 0, 60, 69
1, 93600, Note_on_c, 0, 48, 58
1, 93720, Note_on_c, 0, 48, 0
1, 93720, Note_on_c, 0, 84, 0
1, 93720, Note_on_c, 0, 72, 0
1, 93720, Note_on_c, 0, 60, 0
1, 93840, Tempo, 480000
1, 93840, Note_on_c, 0, 72, 66
1, 93840, Note_on_c, 0, 84, 78
1, 93840, Note_on_c, 0, 60, 69
1, 93840, Note_on_c, 0, 48, 58
1, 93960, Note_on_c, 0, 48, 0
1, 93960, Note_on_c, 0, 72, 0
1, 93960, Note_on_c, 0, 84, 0
1, 93960, Note_on_c, 0, 60, 0
1, 94080, Note_on_c, 0, 41, 76
1, 94080, Control_c, 0, 64, 0
1, 94110, Note_on_c, 0, 53, 80
1, 94140, Note_on_c, 0, 77, 86
1, 94168, Control_c, 0, 64, 127
1, 94170, Note_on_c, 0, 81, 86
1, 94200, Note_on_c, 0, 84, 86
1, 94230, Note_on_c, 0, 89, 103
1, 94320, Tempo, 476569
1, 94320, Note_on_c, 0, 89, 0
1, 94320, Note_on_c, 0, 53, 0
1, 94320, Note_on_c, 0, 77, 0
1, 94320, Note_on_c, 0, 41, 0
1, 94320, Note_on_c, 0, 84, 0
1, 94320, Note_on_c, 0, 81, 0
1, 94617, Control_c, 0, 64, 0
1, 94617, End_track
0, 0, End_of_file
