0, 0, Header, 0, 1, 480
1, 0, Start_track
1, 0, Title_t, "Chopin Nocturne Opus 27 Nr. 2"
1, 0, Copyright_t, "Copyright © 2003 by Bernd Krueger "
1, 0, Text_t, "Frederic Chopin"
1, 0, Text_t, "lento sostenuto"
1, 0, Text_t, "Fertiggestellt am  26.5.2003\012"
1, 0, Text_t, "Update am 17.6.2003\012"
1, 0, Text_t, "Update am 28.7.2010\012"
1, 0, Text_t, "Update am 19.2.2014\012"
1, 0, Text_t, "Dauer: 5:13 Minuten\012"
1, 0, SMPTE_offset, 96, 0, 3, 0, 0
1, 0, Time_signature, 6, 3, 12, 8
1, 0, Key_signature, -5, "major"
1, 0, Tempo, 1411765
1, 0, Program_c, 0, 0
1, 0, Control_c, 0, 7, 100
1, 0, Control_c, 0, 10, 64
1, 0, Text_t, "bdca426d104a26ac9dcb070447587523"
1, 0, Control_c, 0, 91, 127
1, 0, Program_c, 0, 0
1, 0, Control_c, 0, 7, 100
1, 0, Control_c, 0, 10, 64
1, 0, Note_on_c, 0, 37, 30
1, 0, Control_c, 0, 64, 127
1, 20, Tempo, 1395349
1, 40, Tempo, 1379310
1, 60, Tempo, 1363636
1, 80, Tempo, 1348315
1, 100, Tempo, 1333333
1, 120, Tempo, 1318681
1, 120, Note_on_c, 0, 37, 0
1, 120, Note_on_c, 0, 65, 26
1, 140, Tempo, 1304348
1, 160, Tempo, 1290323
1, 180, Tempo, 1276596
1, 200, Tempo, 1263158
1, 220, Tempo, 1250000
1, 240, Tempo, 1200000
1, 240, Note_on_c, 0, 65, 0
1, 240, Note_on_c, 0, 56, 26
1, 360, Note_on_c, 0, 56, 0
1, 360, Note_on_c, 0, 65, 26
1, 480, Tempo, 1237113
1, 480, Note_on_c, 0, 65, 0
1, 480, Note_on_c, 0, 61, 26
1, 600, Note_on_c, 0, 61, 0
1, 600, Note_on_c, 0, 53, 26
1, 720, Tempo, 1290323
1, 720, Note_on_c, 0, 53, 0
1, 720, Note_on_c, 0, 49, 30
1, 760, Tempo, 1276596
1, 800, Tempo, 1263158
1, 840, Tempo, 1250000
1, 840, Note_on_c, 0, 49, 0
1, 840, Note_on_c, 0, 65, 26
1, 880, Tempo, 1237113
1, 920, Tempo, 1224490
1, 960, Tempo, 1212121
1, 960, Note_on_c, 0, 65, 0
1, 960, Note_on_c, 0, 56, 26
1, 1080, Note_on_c, 0, 56, 0
1, 1080, Note_on_c, 0, 65, 25
1, 1180, Tempo, 1263158
1, 1200, Note_on_c, 0, 65, 0
1, 1200, Note_on_c, 0, 61, 28
1, 1300, Tempo, 1224490
1, 1320, Tempo, 1250000
1, 1320, Note_on_c, 0, 61, 0
1, 1320, Note_on_c, 0, 53, 25
1, 1340, Tempo, 1290323
1, 1360, Tempo, 1333333
1, 1380, Tempo, 1363636
1, 1400, Tempo, 1411765
1, 1420, Tempo, 1463415
1, 1440, Tempo, 1348315
1, 1440, Note_on_c, 0, 53, 0
1, 1440, Note_on_c, 0, 77, 55
1, 1440, Text_t, "bdca426d104a26ac9dcb070447587523"
1, 1440, Control_c, 0, 91, 127
1, 1440, Note_on_c, 0, 49, 30
1, 1480, Tempo, 1333333
1, 1500, Tempo, 1318681
1, 1540, Tempo, 1304348
1, 1560, Tempo, 1290323
1, 1560, Note_on_c, 0, 49, 0
1, 1560, Note_on_c, 0, 65, 26
1, 1580, Tempo, 1276596
1, 1620, Tempo, 1263158
1, 1640, Tempo, 1250000
1, 1660, Tempo, 1237113
1, 1680, Tempo, 1188119
1, 1680, Note_on_c, 0, 65, 0
1, 1680, Note_on_c, 0, 56, 26
1, 1800, Note_on_c, 0, 56, 0
1, 1800, Note_on_c, 0, 65, 26
1, 1920, Note_on_c, 0, 65, 0
1, 1920, Note_on_c, 0, 61, 26
1, 2040, Note_on_c, 0, 61, 0
1, 2040, Note_on_c, 0, 53, 26
1, 2160, Tempo, 1237113
1, 2160, Note_on_c, 0, 53, 0
1, 2160, Note_on_c, 0, 77, 0
1, 2160, Note_on_c, 0, 75, 55
1, 2160, Note_on_c, 0, 49, 30
1, 2280, Note_on_c, 0, 49, 0
1, 2280, Note_on_c, 0, 65, 26
1, 2400, Tempo, 1276596
1, 2400, Note_on_c, 0, 65, 0
1, 2400, Note_on_c, 0, 75, 0
1, 2400, Note_on_c, 0, 73, 55
1, 2400, Note_on_c, 0, 56, 26
1, 2520, Note_on_c, 0, 56, 0
1, 2520, Note_on_c, 0, 65, 26
1, 2640, Note_on_c, 0, 65, 0
1, 2640, Note_on_c, 0, 61, 26
1, 2720, Tempo, 1224490
1, 2740, Tempo, 1250000
1, 2760, Tempo, 1276596
1, 2760, Note_on_c, 0, 61, 0
1, 2760, Note_on_c, 0, 73, 0
1, 2760, Note_on_c, 0, 65, 50
1, 2760, Note_on_c, 0, 53, 26
1, 2780, Tempo, 1304348
1, 2800, Tempo, 1333333
1, 2820, Tempo, 1363636
1, 2840, Tempo, 1395349
1, 2860, Tempo, 1428571
1, 2880, Tempo, 1363636
1, 2880, Note_on_c, 0, 53, 0
1, 2880, Note_on_c, 0, 65, 0
1, 2880, Note_on_c, 0, 68, 55
1, 2880, Note_on_c, 0, 49, 30
1, 2900, Tempo, 1348315
1, 2920, Tempo, 1333333
1, 2940, Tempo, 1318681
1, 2960, Tempo, 1304348
1, 2980, Tempo, 1290323
1, 3000, Tempo, 1276596
1, 3000, Note_on_c, 0, 49, 0
1, 3000, Note_on_c, 0, 65, 28
1, 3020, Tempo, 1263158
1, 3040, Tempo, 1237113
1, 3120, Tempo, 1176471
1, 3120, Note_on_c, 0, 65, 0
1, 3120, Note_on_c, 0, 56, 28
1, 3240, Note_on_c, 0, 56, 0
1, 3240, Note_on_c, 0, 65, 27
1, 3360, Tempo, 1212121
1, 3360, Note_on_c, 0, 65, 0
1, 3360, Note_on_c, 0, 61, 27
1, 3480, Note_on_c, 0, 61, 0
1, 3480, Note_on_c, 0, 53, 27
1, 3600, Tempo, 1212121
1, 3600, Note_on_c, 0, 53, 0
1, 3600, Note_on_c, 0, 49, 31
1, 3720, Note_on_c, 0, 49, 0
1, 3720, Note_on_c, 0, 65, 27
1, 3840, Tempo, 1200000
1, 3840, Note_on_c, 0, 65, 0
1, 3840, Note_on_c, 0, 68, 0
1, 3840, Note_on_c, 0, 73, 58
1, 3840, Note_on_c, 0, 56, 27
1, 3960, Note_on_c, 0, 56, 0
1, 3960, Note_on_c, 0, 65, 28
1, 4080, Tempo, 1200000
1, 4080, Note_on_c, 0, 65, 0
1, 4080, Note_on_c, 0, 73, 0
1, 4080, Note_on_c, 0, 77, 61
1, 4080, Note_on_c, 0, 61, 28
1, 4100, Tempo, 1212121
1, 4120, Tempo, 1224490
1, 4140, Tempo, 1237113
1, 4160, Tempo, 1250000
1, 4180, Tempo, 1263158
1, 4200, Tempo, 1276596
1, 4200, Note_on_c, 0, 61, 0
1, 4200, Note_on_c, 0, 53, 30
1, 4220, Tempo, 1290323
1, 4240, Tempo, 1304348
1, 4260, Tempo, 1318681
1, 4280, Tempo, 1333333
1, 4300, Tempo, 1348315
1, 4320, Tempo, 1238646
1, 4320, Note_on_c, 0, 53, 0
1, 4320, Note_on_c, 0, 77, 0
1, 4320, Note_on_c, 0, 82, 68
1, 4320, Note_on_c, 0, 49, 34
1, 4440, Note_on_c, 0, 49, 0
1, 4440, Note_on_c, 0, 65, 29
1, 4560, Tempo, 1188119
1, 4560, Note_on_c, 0, 65, 0
1, 4560, Note_on_c, 0, 56, 28
1, 4680, Note_on_c, 0, 56, 0
1, 4680, Note_on_c, 0, 65, 28
1, 4800, Note_on_c, 0, 65, 0
1, 4800, Note_on_c, 0, 61, 28
1, 4920, Note_on_c, 0, 61, 0
1, 4920, Note_on_c, 0, 53, 27
1, 5040, Tempo, 1237113
1, 5040, Note_on_c, 0, 53, 0
1, 5040, Note_on_c, 0, 49, 30
1, 5160, Tempo, 1261830
1, 5160, Note_on_c, 0, 49, 0
1, 5160, Note_on_c, 0, 82, 0
1, 5160, Note_on_c, 0, 80, 50
1, 5160, Note_on_c, 0, 65, 26
1, 5280, Tempo, 1224490
1, 5280, Note_on_c, 0, 65, 0
1, 5280, Note_on_c, 0, 80, 0
1, 5280, Note_on_c, 0, 76, 56
1, 5280, Note_on_c, 0, 56, 26
1, 5400, Note_on_c, 0, 56, 0
1, 5400, Note_on_c, 0, 76, 0
1, 5400, Note_on_c, 0, 77, 50
1, 5400, Note_on_c, 0, 65, 25
1, 5520, Tempo, 1250260
1, 5520, Note_on_c, 0, 65, 0
1, 5520, Note_on_c, 0, 77, 0
1, 5520, Note_on_c, 0, 72, 55
1, 5520, Note_on_c, 0, 61, 25
1, 5560, Tempo, 1261830
1, 5580, Tempo, 1273885
1, 5620, Tempo, 1285898
1, 5640, Tempo, 1298701
1, 5640, Note_on_c, 0, 61, 0
1, 5640, Note_on_c, 0, 72, 0
1, 5640, Note_on_c, 0, 73, 50
1, 5640, Note_on_c, 0, 53, 24
1, 5660, Tempo, 1311189
1, 5700, Tempo, 1324503
1, 5720, Tempo, 1337793
1, 5740, Tempo, 1351047
1, 5760, Tempo, 1318681
1, 5760, Note_on_c, 0, 53, 0
1, 5760, Note_on_c, 0, 73, 0
1, 5760, Note_on_c, 0, 69, 63
1, 5760, Text_t, "bdca426d104a26ac9dcb070447587523"
1, 5760, Control_c, 0, 91, 127
1, 5760, Note_on_c, 0, 37, 30
1, 5772, Control_c, 0, 64, 0
1, 5800, Tempo, 1304348
1, 5820, Tempo, 1290323
1, 5829, Control_c, 0, 64, 127
1, 5860, Tempo, 1276596
1, 5880, Tempo, 1263158
1, 5880, Note_on_c, 0, 37, 0
1, 5880, Note_on_c, 0, 66, 26
1, 5920, Tempo, 1250000
1, 5940, Tempo, 1237113
1, 5980, Tempo, 1224490
1, 6000, Tempo, 1188119
1, 6000, Note_on_c, 0, 66, 0
1, 6000, Note_on_c, 0, 57, 26
1, 6120, Note_on_c, 0, 57, 0
1, 6120, Note_on_c, 0, 66, 26
1, 6240, Note_on_c, 0, 66, 0
1, 6240, Note_on_c, 0, 63, 26
1, 6360, Note_on_c, 0, 63, 0
1, 6360, Note_on_c, 0, 54, 26
1, 6480, Tempo, 1153846
1, 6480, Note_on_c, 0, 54, 0
1, 6480, Note_on_c, 0, 49, 30
1, 6600, Note_on_c, 0, 49, 0
1, 6600, Note_on_c, 0, 66, 26
1, 6720, Tempo, 1200000
1, 6720, Note_on_c, 0, 66, 0
1, 6720, Note_on_c, 0, 57, 26
1, 6840, Note_on_c, 0, 57, 0
1, 6840, Note_on_c, 0, 66, 25
1, 6960, Note_on_c, 0, 66, 0
1, 6960, Note_on_c, 0, 63, 28
1, 6980, Tempo, 1212121
1, 7020, Tempo, 1224490
1, 7040, Tempo, 1237113
1, 7080, Tempo, 1250000
1, 7080, Note_on_c, 0, 63, 0
1, 7080, Note_on_c, 0, 57, 25
1, 7100, Tempo, 1263158
1, 7140, Tempo, 1276596
1, 7160, Tempo, 1290323
1, 7180, Tempo, 1333333
1, 7200, Note_on_c, 0, 57, 0
1, 7200, Note_on_c, 0, 69, 0
1, 7200, Note_on_c, 0, 70, 58
1, 7200, Text_t, "bdca426d104a26ac9dcb070447587523"
1, 7200, Control_c, 0, 91, 127
1, 7200, Note_on_c, 0, 49, 30
1, 7213, Control_c, 0, 64, 0
1, 7220, Tempo, 1318681
1, 7240, Tempo, 1304348
1, 7269, Control_c, 0, 64, 127
1, 7280, Tempo, 1290323
1, 7300, Tempo, 1276596
1, 7320, Note_on_c, 0, 49, 0
1, 7320, Note_on_c, 0, 66, 26
1, 7340, Tempo, 1263158
1, 7360, Tempo, 1250000
1, 7400, Tempo, 1237113
1, 7420, Tempo, 1224490
1, 7440, Note_on_c, 0, 66, 0
1, 7440, Note_on_c, 0, 58, 26
1, 7560, Note_on_c, 0, 58, 0
1, 7560, Note_on_c, 0, 66, 26
1, 7680, Note_on_c, 0, 66, 0
1, 7680, Note_on_c, 0, 63, 26
1, 7800, Note_on_c, 0, 63, 0
1, 7800, Note_on_c, 0, 54, 26
1, 7920, Tempo, 1290323
1, 7920, Note_on_c, 0, 54, 0
1, 7920, Note_on_c, 0, 70, 0
1, 7920, Note_on_c, 0, 49, 30
1, 8040, Tempo, 1212121
1, 8040, Note_on_c, 0, 49, 0
1, 8040, Note_on_c, 0, 84, 56
1, 8040, Note_on_c, 0, 66, 26
1, 8140, Tempo, 1333333
1, 8160, Tempo, 1237113
1, 8160, Note_on_c, 0, 66, 0
1, 8160, Note_on_c, 0, 84, 0
1, 8160, Note_on_c, 0, 82, 58
1, 8160, Note_on_c, 0, 58, 26
1, 8220, Tempo, 1250000
1, 8280, Tempo, 1263158
1, 8280, Note_on_c, 0, 58, 0
1, 8280, Note_on_c, 0, 82, 0
1, 8280, Note_on_c, 0, 77, 52
1, 8280, Note_on_c, 0, 66, 25
1, 8340, Tempo, 1276596
1, 8400, Tempo, 1290323
1, 8400, Note_on_c, 0, 66, 0
1, 8400, Note_on_c, 0, 77, 0
1, 8400, Note_on_c, 0, 80, 56
1, 8400, Note_on_c, 0, 63, 28
1, 8460, Tempo, 1304348
1, 8520, Tempo, 1318681
1, 8520, Note_on_c, 0, 63, 0
1, 8520, Note_on_c, 0, 80, 0
1, 8520, Note_on_c, 0, 78, 51
1, 8520, Note_on_c, 0, 54, 25
1, 8580, Tempo, 1333333
1, 8600, Tempo, 1348315
1, 8640, Tempo, 1333333
1, 8640, Note_on_c, 0, 54, 0
1, 8640, Note_on_c, 0, 78, 0
1, 8640, Note_on_c, 0, 77, 57
1, 8640, Note_on_c, 0, 48, 30
1, 8657, Control_c, 0, 64, 0
1, 8680, Tempo, 1318681
1, 8714, Control_c, 0, 64, 127
1, 8720, Tempo, 1304348
1, 8740, Tempo, 1290323
1, 8760, Note_on_c, 0, 48, 0
1, 8760, Note_on_c, 0, 66, 26
1, 8780, Tempo, 1276596
1, 8820, Tempo, 1263158
1, 8860, Tempo, 1250000
1, 8880, Tempo, 1212121
1, 8880, Note_on_c, 0, 66, 0
1, 8880, Note_on_c, 0, 57, 25
1, 9000, Note_on_c, 0, 57, 0
1, 9000, Note_on_c, 0, 66, 24
1, 9120, Note_on_c, 0, 66, 0
1, 9120, Note_on_c, 0, 77, 0
1, 9120, Note_on_c, 0, 75, 58
1, 9120, Note_on_c, 0, 63, 23
1, 9240, Note_on_c, 0, 63, 0
1, 9240, Note_on_c, 0, 54, 23
1, 9360, Note_on_c, 0, 54, 0
1, 9360, Note_on_c, 0, 46, 31
1, 9377, Control_c, 0, 64, 0
1, 9440, Control_c, 0, 64, 127
1, 9480, Note_on_c, 0, 46, 0
1, 9480, Note_on_c, 0, 75, 0
1, 9480, Note_on_c, 0, 77, 52
1, 9480, Note_on_c, 0, 66, 27
1, 9510, Note_on_c, 0, 77, 0
1, 9510, Note_on_c, 0, 75, 52
1, 9540, Note_on_c, 0, 75, 0
1, 9540, Note_on_c, 0, 74, 52
1, 9570, Note_on_c, 0, 74, 0
1, 9570, Note_on_c, 0, 75, 52
1, 9600, Tempo, 1261830
1, 9600, Note_on_c, 0, 75, 0
1, 9600, Note_on_c, 0, 66, 0
1, 9600, Note_on_c, 0, 77, 61
1, 9600, Note_on_c, 0, 58, 28
1, 9720, Note_on_c, 0, 58, 0
1, 9720, Note_on_c, 0, 66, 30
1, 9840, Tempo, 1250000
1, 9840, Note_on_c, 0, 66, 0
1, 9840, Note_on_c, 0, 77, 0
1, 9840, Note_on_c, 0, 78, 69
1, 9840, Note_on_c, 0, 63, 31
1, 9860, Tempo, 1263158
1, 9880, Tempo, 1276596
1, 9900, Tempo, 1290323
1, 9920, Tempo, 1304348
1, 9940, Tempo, 1318681
1, 9960, Tempo, 1348315
1, 9960, Note_on_c, 0, 63, 0
1, 9960, Note_on_c, 0, 54, 34
1, 9980, Tempo, 1363636
1, 10000, Tempo, 1379310
1, 10020, Tempo, 1395349
1, 10020, Note_on_c, 0, 78, 0
1, 10020, Note_on_c, 0, 78, 57
1, 10040, Tempo, 1411765
1, 10060, Tempo, 1445783
1, 10080, Tempo, 1238646
1, 10080, Note_on_c, 0, 78, 0
1, 10080, Note_on_c, 0, 54, 0
1, 10080, Note_on_c, 0, 90, 79
1, 10080, Note_on_c, 0, 45, 38
1, 10092, Control_c, 0, 64, 0
1, 10135, Control_c, 0, 64, 127
1, 10200, Note_on_c, 0, 45, 0
1, 10200, Note_on_c, 0, 66, 28
1, 10320, Note_on_c, 0, 66, 0
1, 10320, Note_on_c, 0, 57, 27
1, 10440, Note_on_c, 0, 57, 0
1, 10440, Note_on_c, 0, 66, 25
1, 10500, Tempo, 1153846
1, 10500, Note_on_c, 0, 87, 56
1, 10560, Tempo, 1153846
1, 10560, Note_on_c, 0, 87, 0
1, 10560, Note_on_c, 0, 66, 0
1, 10560, Note_on_c, 0, 90, 0
1, 10560, Note_on_c, 0, 85, 55
1, 10560, Note_on_c, 0, 61, 24
1, 10620, Note_on_c, 0, 85, 0
1, 10620, Note_on_c, 0, 81, 54
1, 10680, Note_on_c, 0, 81, 0
1, 10680, Note_on_c, 0, 61, 0
1, 10680, Note_on_c, 0, 78, 52
1, 10680, Note_on_c, 0, 51, 23
1, 10740, Note_on_c, 0, 78, 0
1, 10740, Note_on_c, 0, 75, 49
1, 10800, Tempo, 1212121
1, 10800, Note_on_c, 0, 75, 0
1, 10800, Note_on_c, 0, 51, 0
1, 10800, Note_on_c, 0, 72, 53
1, 10800, Note_on_c, 0, 44, 30
1, 10817, Control_c, 0, 64, 0
1, 10860, Note_on_c, 0, 72, 0
1, 10865, Control_c, 0, 64, 127
1, 10920, Tempo, 1261830
1, 10920, Note_on_c, 0, 44, 0
1, 10920, Note_on_c, 0, 73, 54
1, 10920, Note_on_c, 0, 66, 24
1, 10980, Note_on_c, 0, 73, 0
1, 11040, Note_on_c, 0, 66, 0
1, 11040, Note_on_c, 0, 74, 55
1, 11040, Note_on_c, 0, 56, 26
1, 11100, Note_on_c, 0, 74, 0
1, 11160, Note_on_c, 0, 56, 0
1, 11160, Note_on_c, 0, 75, 56
1, 11160, Note_on_c, 0, 66, 28
1, 11220, Note_on_c, 0, 75, 0
1, 11280, Tempo, 1250260
1, 11280, Note_on_c, 0, 66, 0
1, 11280, Note_on_c, 0, 77, 57
1, 11280, Note_on_c, 0, 60, 29
1, 11320, Tempo, 1261830
1, 11340, Tempo, 1273885
1, 11340, Note_on_c, 0, 77, 0
1, 11380, Tempo, 1285898
1, 11400, Tempo, 1298701
1, 11400, Note_on_c, 0, 60, 0
1, 11400, Note_on_c, 0, 78, 58
1, 11400, Note_on_c, 0, 51, 30
1, 11420, Tempo, 1311189
1, 11460, Tempo, 1324503
1, 11460, Note_on_c, 0, 78, 0
1, 11480, Tempo, 1337793
1, 11500, Tempo, 1351047
1, 11520, Tempo, 1238646
1, 11520, Note_on_c, 0, 51, 0
1, 11520, Note_on_c, 0, 79, 69
1, 11520, Note_on_c, 0, 37, 38
1, 11536, Control_c, 0, 64, 0
1, 11575, Control_c, 0, 64, 127
1, 11640, Note_on_c, 0, 37, 0
1, 11640, Note_on_c, 0, 64, 29
1, 11700, Note_on_c, 0, 64, 0
1, 11760, Note_on_c, 0, 55, 28
1, 11880, Note_on_c, 0, 55, 0
1, 11880, Note_on_c, 0, 64, 28
1, 11940, Note_on_c, 0, 64, 0
1, 12000, Tempo, 1311189
1, 12000, Note_on_c, 0, 58, 28
1, 12060, Note_on_c, 0, 79, 0
1, 12060, Note_on_c, 0, 80, 54
1, 12120, Note_on_c, 0, 80, 0
1, 12120, Note_on_c, 0, 58, 0
1, 12120, Note_on_c, 0, 82, 59
1, 12120, Note_on_c, 0, 53, 27
1, 12180, Note_on_c, 0, 82, 0
1, 12180, Note_on_c, 0, 80, 50
1, 12240, Note_on_c, 0, 80, 0
1, 12240, Note_on_c, 0, 53, 0
1, 12240, Note_on_c, 0, 77, 56
1, 12240, Note_on_c, 0, 37, 28
1, 12257, Control_c, 0, 64, 0
1, 12305, Control_c, 0, 64, 127
1, 12360, Tempo, 1261830
1, 12360, Note_on_c, 0, 37, 0
1, 12360, Note_on_c, 0, 65, 23
1, 12480, Note_on_c, 0, 65, 0
1, 12480, Note_on_c, 0, 56, 23
1, 12600, Note_on_c, 0, 56, 0
1, 12600, Note_on_c, 0, 65, 23
1, 12720, Tempo, 1250260
1, 12720, Note_on_c, 0, 65, 0
1, 12720, Note_on_c, 0, 61, 24
1, 12760, Tempo, 1261830
1, 12780, Tempo, 1273885
1, 12820, Tempo, 1285898
1, 12840, Tempo, 1298701
1, 12840, Note_on_c, 0, 61, 0
1, 12840, Note_on_c, 0, 53, 25
1, 12960, Tempo, 1276596
1, 12960, Note_on_c, 0, 53, 0
1, 12960, Note_on_c, 0, 73, 53
1, 12960, Note_on_c, 0, 46, 38
1, 12970, Control_c, 0, 64, 0
1, 13015, Control_c, 0, 64, 127
1, 13080, Note_on_c, 0, 46, 0
1, 13080, Note_on_c, 0, 65, 28
1, 13200, Tempo, 1188119
1, 13200, Note_on_c, 0, 65, 0
1, 13200, Note_on_c, 0, 73, 0
1, 13200, Note_on_c, 0, 77, 0
1, 13200, Note_on_c, 0, 75, 55
1, 13200, Note_on_c, 0, 78, 65
1, 13200, Note_on_c, 0, 58, 28
1, 13320, Note_on_c, 0, 58, 0
1, 13320, Note_on_c, 0, 65, 27
1, 13440, Tempo, 1153846
1, 13440, Note_on_c, 0, 65, 0
1, 13440, Note_on_c, 0, 61, 26
1, 13560, Tempo, 1276596
1, 13560, Note_on_c, 0, 61, 0
1, 13560, Note_on_c, 0, 78, 0
1, 13560, Note_on_c, 0, 75, 0
1, 13560, Note_on_c, 0, 70, 51
1, 13560, Note_on_c, 0, 73, 60
1, 13560, Note_on_c, 0, 53, 26
1, 13680, Tempo, 1176471
1, 13680, Note_on_c, 0, 53, 0
1, 13680, Note_on_c, 0, 73, 0
1, 13680, Note_on_c, 0, 70, 0
1, 13680, Note_on_c, 0, 72, 55
1, 13680, Note_on_c, 0, 75, 65
1, 13680, Note_on_c, 0, 46, 33
1, 13697, Control_c, 0, 64, 0
1, 13745, Control_c, 0, 64, 127
1, 13800, Note_on_c, 0, 46, 0
1, 13800, Note_on_c, 0, 65, 28
1, 13920, Tempo, 1212121
1, 13920, Note_on_c, 0, 65, 0
1, 13920, Note_on_c, 0, 75, 0
1, 13920, Note_on_c, 0, 72, 0
1, 13920, Note_on_c, 0, 73, 53
1, 13920, Note_on_c, 0, 77, 62
1, 13920, Note_on_c, 0, 57, 28
1, 14040, Note_on_c, 0, 57, 0
1, 14040, Note_on_c, 0, 65, 28
1, 14160, Tempo, 1250260
1, 14160, Note_on_c, 0, 65, 0
1, 14160, Note_on_c, 0, 77, 0
1, 14160, Note_on_c, 0, 73, 0
1, 14160, Note_on_c, 0, 69, 52
1, 14160, Note_on_c, 0, 72, 61
1, 14160, Note_on_c, 0, 63, 28
1, 14200, Tempo, 1261830
1, 14220, Tempo, 1273885
1, 14260, Tempo, 1285898
1, 14280, Tempo, 1298701
1, 14280, Note_on_c, 0, 63, 0
1, 14280, Note_on_c, 0, 53, 27
1, 14400, Tempo, 1238646
1, 14400, Note_on_c, 0, 53, 0
1, 14400, Note_on_c, 0, 72, 0
1, 14400, Note_on_c, 0, 69, 0
1, 14400, Note_on_c, 0, 72, 55
1, 14400, Note_on_c, 0, 75, 65
1, 14400, Note_on_c, 0, 46, 38
1, 14413, Control_c, 0, 64, 0
1, 14455, Control_c, 0, 64, 127
1, 14520, Note_on_c, 0, 46, 0
1, 14520, Note_on_c, 0, 65, 28
1, 14640, Tempo, 1188119
1, 14640, Note_on_c, 0, 65, 0
1, 14640, Note_on_c, 0, 75, 0
1, 14640, Note_on_c, 0, 72, 0
1, 14640, Note_on_c, 0, 70, 50
1, 14640, Note_on_c, 0, 73, 59
1, 14640, Note_on_c, 0, 58, 28
1, 14760, Note_on_c, 0, 58, 0
1, 14760, Note_on_c, 0, 73, 0
1, 14760, Note_on_c, 0, 70, 0
1, 14760, Note_on_c, 0, 65, 27
1, 14820, Tempo, 1318681
1, 14820, Note_on_c, 0, 82, 64
1, 14820, Note_on_c, 0, 73, 54
1, 14880, Tempo, 1165049
1, 14880, Note_on_c, 0, 73, 0
1, 14880, Note_on_c, 0, 82, 0
1, 14880, Note_on_c, 0, 65, 0
1, 14880, Note_on_c, 0, 73, 56
1, 14880, Note_on_c, 0, 82, 66
1, 14880, Note_on_c, 0, 61, 26
1, 14900, Tempo, 1176471
1, 14920, Tempo, 1188119
1, 14940, Tempo, 1200000
1, 14960, Tempo, 1212121
1, 14960, Note_on_c, 0, 82, 0
1, 14960, Note_on_c, 0, 73, 0
1, 14960, Note_on_c, 0, 72, 55
1, 14960, Note_on_c, 0, 80, 65
1, 14980, Tempo, 1224490
1, 15000, Tempo, 1237113
1, 15000, Note_on_c, 0, 61, 0
1, 15000, Note_on_c, 0, 53, 26
1, 15020, Tempo, 1263158
1, 15040, Note_on_c, 0, 80, 0
1, 15040, Note_on_c, 0, 72, 0
1, 15040, Note_on_c, 0, 70, 54
1, 15040, Note_on_c, 0, 78, 64
1, 15120, Note_on_c, 0, 78, 0
1, 15120, Note_on_c, 0, 70, 0
1, 15120, Note_on_c, 0, 53, 0
1, 15120, Note_on_c, 0, 70, 53
1, 15120, Note_on_c, 0, 77, 63
1, 15120, Note_on_c, 0, 41, 33
1, 15137, Control_c, 0, 64, 0
1, 15185, Control_c, 0, 64, 127
1, 15240, Tempo, 1200000
1, 15240, Note_on_c, 0, 41, 0
1, 15240, Note_on_c, 0, 65, 28
1, 15360, Tempo, 1212121
1, 15360, Note_on_c, 0, 65, 0
1, 15360, Note_on_c, 0, 70, 0
1, 15360, Note_on_c, 0, 69, 52
1, 15360, Note_on_c, 0, 60, 28
1, 15440, Note_on_c, 0, 69, 0
1, 15440, Note_on_c, 0, 70, 54
1, 15480, Note_on_c, 0, 60, 0
1, 15480, Note_on_c, 0, 65, 26
1, 15520, Note_on_c, 0, 70, 0
1, 15520, Note_on_c, 0, 71, 56
1, 15600, Tempo, 1250260
1, 15600, Note_on_c, 0, 71, 0
1, 15600, Note_on_c, 0, 65, 0
1, 15600, Note_on_c, 0, 77, 0
1, 15600, Note_on_c, 0, 77, 58
1, 15600, Note_on_c, 0, 72, 49
1, 15600, Note_on_c, 0, 63, 28
1, 15640, Tempo, 1261830
1, 15640, Note_on_c, 0, 72, 0
1, 15640, Note_on_c, 0, 77, 0
1, 15660, Tempo, 1273885
1, 15680, Note_on_c, 0, 77, 60
1, 15680, Note_on_c, 0, 73, 51
1, 15700, Tempo, 1285898
1, 15720, Tempo, 1298701
1, 15720, Note_on_c, 0, 73, 0
1, 15720, Note_on_c, 0, 77, 0
1, 15720, Note_on_c, 0, 63, 0
1, 15720, Note_on_c, 0, 57, 30
1, 15760, Note_on_c, 0, 77, 62
1, 15760, Note_on_c, 0, 75, 52
1, 15800, Note_on_c, 0, 75, 0
1, 15800, Note_on_c, 0, 77, 0
1, 15840, Tempo, 1276596
1, 15840, Note_on_c, 0, 57, 0
1, 15840, Note_on_c, 0, 73, 53
1, 15840, Note_on_c, 0, 77, 63
1, 15840, Note_on_c, 0, 46, 38
1, 15854, Control_c, 0, 64, 0
1, 15895, Control_c, 0, 64, 127
1, 15960, Note_on_c, 0, 46, 0
1, 15960, Note_on_c, 0, 65, 28
1, 16080, Tempo, 1188119
1, 16080, Note_on_c, 0, 65, 0
1, 16080, Note_on_c, 0, 77, 0
1, 16080, Note_on_c, 0, 73, 0
1, 16080, Note_on_c, 0, 75, 55
1, 16080, Note_on_c, 0, 78, 65
1, 16080, Note_on_c, 0, 58, 28
1, 16200, Note_on_c, 0, 58, 0
1, 16200, Note_on_c, 0, 65, 27
1, 16320, Tempo, 1153846
1, 16320, Note_on_c, 0, 65, 0
1, 16320, Note_on_c, 0, 61, 26
1, 16440, Tempo, 1276596
1, 16440, Note_on_c, 0, 61, 0
1, 16440, Note_on_c, 0, 78, 0
1, 16440, Note_on_c, 0, 75, 0
1, 16440, Note_on_c, 0, 70, 51
1, 16440, Note_on_c, 0, 73, 60
1, 16440, Note_on_c, 0, 53, 26
1, 16560, Tempo, 1176471
1, 16560, Note_on_c, 0, 53, 0
1, 16560, Note_on_c, 0, 73, 0
1, 16560, Note_on_c, 0, 70, 0
1, 16560, Note_on_c, 0, 70, 49
1, 16560, Note_on_c, 0, 73, 58
1, 16560, Note_on_c, 0, 46, 33
1, 16577, Control_c, 0, 64, 0
1, 16605, Note_on_c, 0, 73, 0
1, 16605, Note_on_c, 0, 70, 0
1, 16605, Note_on_c, 0, 73, 55
1, 16605, Note_on_c, 0, 77, 65
1, 16625, Control_c, 0, 64, 127
1, 16680, Note_on_c, 0, 46, 0
1, 16680, Note_on_c, 0, 65, 28
1, 16740, Note_on_c, 0, 77, 0
1, 16740, Note_on_c, 0, 73, 0
1, 16740, Note_on_c, 0, 72, 58
1, 16740, Note_on_c, 0, 75, 58
1, 16770, Note_on_c, 0, 75, 0
1, 16770, Note_on_c, 0, 77, 53
1, 16800, Tempo, 1212121
1, 16800, Note_on_c, 0, 77, 0
1, 16800, Note_on_c, 0, 65, 0
1, 16800, Note_on_c, 0, 75, 62
1, 16800, Note_on_c, 0, 57, 28
1, 16880, Note_on_c, 0, 75, 0
1, 16880, Note_on_c, 0, 72, 0
1, 16880, Note_on_c, 0, 70, 47
1, 16880, Note_on_c, 0, 73, 55
1, 16920, Note_on_c, 0, 57, 0
1, 16920, Note_on_c, 0, 65, 28
1, 16960, Note_on_c, 0, 73, 0
1, 16960, Note_on_c, 0, 70, 0
1, 16960, Note_on_c, 0, 72, 47
1, 16960, Note_on_c, 0, 75, 55
1, 17040, Tempo, 1250260
1, 17040, Note_on_c, 0, 75, 0
1, 17040, Note_on_c, 0, 72, 0
1, 17040, Note_on_c, 0, 65, 0
1, 17040, Note_on_c, 0, 73, 52
1, 17040, Note_on_c, 0, 77, 61
1, 17040, Note_on_c, 0, 63, 28
1, 17080, Tempo, 1261830
1, 17100, Tempo, 1273885
1, 17100, Note_on_c, 0, 77, 0
1, 17100, Note_on_c, 0, 73, 0
1, 17140, Tempo, 1285898
1, 17160, Tempo, 1298701
1, 17160, Note_on_c, 0, 63, 0
1, 17160, Note_on_c, 0, 53, 27
1, 17220, Note_on_c, 0, 69, 52
1, 17220, Note_on_c, 0, 72, 61
1, 17280, Tempo, 1238646
1, 17280, Note_on_c, 0, 72, 0
1, 17280, Note_on_c, 0, 69, 0
1, 17280, Note_on_c, 0, 53, 0
1, 17280, Note_on_c, 0, 72, 55
1, 17280, Note_on_c, 0, 75, 65
1, 17280, Note_on_c, 0, 46, 38
1, 17296, Control_c, 0, 64, 0
1, 17335, Control_c, 0, 64, 127
1, 17400, Note_on_c, 0, 46, 0
1, 17400, Note_on_c, 0, 65, 28
1, 17520, Tempo, 1188119
1, 17520, Note_on_c, 0, 65, 0
1, 17520, Note_on_c, 0, 75, 0
1, 17520, Note_on_c, 0, 72, 0
1, 17520, Note_on_c, 0, 70, 50
1, 17520, Note_on_c, 0, 73, 59
1, 17520, Note_on_c, 0, 58, 28
1, 17640, Note_on_c, 0, 58, 0
1, 17640, Note_on_c, 0, 73, 0
1, 17640, Note_on_c, 0, 70, 0
1, 17640, Note_on_c, 0, 65, 27
1, 17760, Note_on_c, 0, 65, 0
1, 17760, Note_on_c, 0, 73, 47
1, 17760, Note_on_c, 0, 82, 66
1, 17760, Note_on_c, 0, 61, 26
1, 17880, Tempo, 1142857
1, 17880, Note_on_c, 0, 61, 0
1, 17880, Note_on_c, 0, 53, 26
1, 18000, Note_on_c, 0, 53, 0
1, 18000, Note_on_c, 0, 73, 0
1, 18000, Note_on_c, 0, 74, 66
1, 18000, Note_on_c, 0, 46, 34
1, 18018, Control_c, 0, 64, 0
1, 18065, Control_c, 0, 64, 127
1, 18120, Tempo, 1153846
1, 18120, Note_on_c, 0, 46, 0
1, 18120, Note_on_c, 0, 74, 0
1, 18120, Note_on_c, 0, 82, 0
1, 18120, Note_on_c, 0, 80, 53
1, 18120, Note_on_c, 0, 83, 62
1, 18120, Note_on_c, 0, 68, 28
1, 18240, Tempo, 1212121
1, 18240, Note_on_c, 0, 68, 0
1, 18240, Note_on_c, 0, 83, 0
1, 18240, Note_on_c, 0, 80, 0
1, 18240, Note_on_c, 0, 73, 53
1, 18240, Note_on_c, 0, 82, 62
1, 18240, Note_on_c, 0, 58, 26
1, 18320, Note_on_c, 0, 82, 0
1, 18320, Note_on_c, 0, 73, 0
1, 18320, Note_on_c, 0, 80, 54
1, 18320, Note_on_c, 0, 81, 58
1, 18360, Note_on_c, 0, 58, 0
1, 18360, Note_on_c, 0, 68, 28
1, 18400, Note_on_c, 0, 81, 0
1, 18400, Note_on_c, 0, 80, 0
1, 18400, Note_on_c, 0, 73, 57
1, 18400, Note_on_c, 0, 82, 67
1, 18480, Tempo, 1250260
1, 18480, Note_on_c, 0, 82, 0
1, 18480, Note_on_c, 0, 73, 0
1, 18480, Note_on_c, 0, 68, 0
1, 18480, Note_on_c, 0, 89, 70
1, 18480, Note_on_c, 0, 80, 58
1, 18480, Note_on_c, 0, 62, 30
1, 18520, Tempo, 1261830
1, 18540, Tempo, 1273885
1, 18540, Note_on_c, 0, 80, 0
1, 18540, Note_on_c, 0, 89, 0
1, 18580, Tempo, 1285898
1, 18600, Tempo, 1298701
1, 18600, Note_on_c, 0, 62, 0
1, 18600, Note_on_c, 0, 53, 32
1, 18660, Note_on_c, 0, 80, 57
1, 18660, Note_on_c, 0, 82, 67
1, 18720, Tempo, 1276596
1, 18720, Note_on_c, 0, 82, 0
1, 18720, Note_on_c, 0, 53, 0
1, 18720, Note_on_c, 0, 82, 68
1, 18720, Note_on_c, 0, 78, 57
1, 18720, Note_on_c, 0, 39, 38
1, 18731, Control_c, 0, 64, 0
1, 18740, Note_on_c, 0, 80, 0
1, 18775, Control_c, 0, 64, 127
1, 18840, Note_on_c, 0, 39, 0
1, 18840, Note_on_c, 0, 66, 31
1, 18960, Tempo, 1188119
1, 18960, Note_on_c, 0, 66, 0
1, 18960, Note_on_c, 0, 78, 0
1, 18960, Note_on_c, 0, 82, 0
1, 18960, Note_on_c, 0, 80, 56
1, 18960, Note_on_c, 0, 83, 66
1, 18960, Note_on_c, 0, 58, 29
1, 19080, Note_on_c, 0, 58, 0
1, 19080, Note_on_c, 0, 66, 29
1, 19200, Tempo, 1153846
1, 19200, Note_on_c, 0, 66, 0
1, 19200, Note_on_c, 0, 83, 0
1, 19200, Note_on_c, 0, 80, 0
1, 19200, Note_on_c, 0, 75, 54
1, 19200, Note_on_c, 0, 78, 64
1, 19200, Note_on_c, 0, 63, 29
1, 19320, Tempo, 1276596
1, 19320, Note_on_c, 0, 63, 0
1, 19320, Note_on_c, 0, 54, 29
1, 19440, Tempo, 1176471
1, 19440, Note_on_c, 0, 54, 0
1, 19440, Note_on_c, 0, 78, 0
1, 19440, Note_on_c, 0, 75, 0
1, 19440, Note_on_c, 0, 78, 54
1, 19440, Note_on_c, 0, 82, 64
1, 19440, Note_on_c, 0, 51, 39
1, 19457, Control_c, 0, 64, 0
1, 19505, Control_c, 0, 64, 127
1, 19520, Note_on_c, 0, 82, 0
1, 19520, Note_on_c, 0, 78, 0
1, 19520, Note_on_c, 0, 77, 52
1, 19520, Note_on_c, 0, 80, 61
1, 19560, Note_on_c, 0, 51, 0
1, 19560, Note_on_c, 0, 68, 30
1, 19600, Note_on_c, 0, 80, 0
1, 19600, Note_on_c, 0, 77, 0
1, 19600, Note_on_c, 0, 78, 52
1, 19600, Note_on_c, 0, 82, 61
1, 19680, Tempo, 1212121
1, 19680, Note_on_c, 0, 82, 0
1, 19680, Note_on_c, 0, 78, 0
1, 19680, Note_on_c, 0, 68, 0
1, 19680, Note_on_c, 0, 77, 55
1, 19680, Note_on_c, 0, 80, 65
1, 19680, Note_on_c, 0, 58, 30
1, 19760, Note_on_c, 0, 80, 0
1, 19760, Note_on_c, 0, 77, 0
1, 19760, Note_on_c, 0, 75, 52
1, 19760, Note_on_c, 0, 78, 61
1, 19800, Note_on_c, 0, 58, 0
1, 19800, Note_on_c, 0, 68, 30
1, 19840, Note_on_c, 0, 78, 0
1, 19840, Note_on_c, 0, 75, 0
1, 19840, Note_on_c, 0, 77, 52
1, 19840, Note_on_c, 0, 80, 61
1, 19920, Tempo, 1250260
1, 19920, Note_on_c, 0, 80, 0
1, 19920, Note_on_c, 0, 77, 0
1, 19920, Note_on_c, 0, 68, 0
1, 19920, Note_on_c, 0, 78, 55
1, 19920, Note_on_c, 0, 82, 65
1, 19920, Note_on_c, 0, 62, 30
1, 19960, Tempo, 1261830
1, 19980, Tempo, 1273885
1, 19980, Note_on_c, 0, 82, 0
1, 19980, Note_on_c, 0, 78, 0
1, 20020, Tempo, 1285898
1, 20040, Tempo, 1298701
1, 20040, Note_on_c, 0, 62, 0
1, 20040, Note_on_c, 0, 53, 30
1, 20100, Note_on_c, 0, 77, 60
1, 20100, Note_on_c, 0, 74, 51
1, 20160, Tempo, 1238646
1, 20160, Note_on_c, 0, 74, 0
1, 20160, Note_on_c, 0, 77, 0
1, 20160, Note_on_c, 0, 53, 0
1, 20160, Note_on_c, 0, 77, 56
1, 20160, Note_on_c, 0, 80, 66
1, 20160, Note_on_c, 0, 51, 39
1, 20178, Control_c, 0, 64, 0
1, 20215, Control_c, 0, 64, 127
1, 20280, Note_on_c, 0, 51, 0
1, 20280, Note_on_c, 0, 66, 31
1, 20400, Tempo, 1188119
1, 20400, Note_on_c, 0, 66, 0
1, 20400, Note_on_c, 0, 80, 0
1, 20400, Note_on_c, 0, 77, 0
1, 20400, Note_on_c, 0, 75, 51
1, 20400, Note_on_c, 0, 78, 60
1, 20400, Note_on_c, 0, 58, 31
1, 20520, Note_on_c, 0, 58, 0
1, 20520, Note_on_c, 0, 78, 0
1, 20520, Note_on_c, 0, 75, 0
1, 20520, Note_on_c, 0, 66, 31
1, 20580, Tempo, 1333333
1, 20580, Note_on_c, 0, 87, 63
1, 20580, Note_on_c, 0, 78, 53
1, 20640, Tempo, 1176471
1, 20640, Note_on_c, 0, 78, 0
1, 20640, Note_on_c, 0, 87, 0
1, 20640, Note_on_c, 0, 66, 0
1, 20640, Note_on_c, 0, 78, 57
1, 20640, Note_on_c, 0, 87, 68
1, 20640, Note_on_c, 0, 63, 29
1, 20660, Tempo, 1188119
1, 20680, Tempo, 1200000
1, 20700, Tempo, 1224490
1, 20720, Tempo, 1237113
1, 20720, Note_on_c, 0, 87, 0
1, 20720, Note_on_c, 0, 78, 0
1, 20720, Note_on_c, 0, 77, 57
1, 20720, Note_on_c, 0, 85, 67
1, 20740, Tempo, 1250000
1, 20760, Tempo, 1276596
1, 20760, Note_on_c, 0, 63, 0
1, 20760, Note_on_c, 0, 54, 29
1, 20800, Note_on_c, 0, 85, 0
1, 20800, Note_on_c, 0, 77, 0
1, 20800, Note_on_c, 0, 75, 55
1, 20800, Note_on_c, 0, 83, 65
1, 20880, Note_on_c, 0, 83, 0
1, 20880, Note_on_c, 0, 75, 0
1, 20880, Note_on_c, 0, 54, 0
1, 20880, Note_on_c, 0, 74, 50
1, 20880, Note_on_c, 0, 82, 59
1, 20880, Note_on_c, 0, 46, 40
1, 20898, Control_c, 0, 64, 0
1, 20945, Control_c, 0, 64, 127
1, 20960, Note_on_c, 0, 82, 0
1, 20960, Note_on_c, 0, 74, 0
1, 20960, Note_on_c, 0, 70, 50
1, 20960, Note_on_c, 0, 82, 59
1, 21000, Tempo, 1200000
1, 21000, Note_on_c, 0, 82, 0
1, 21000, Note_on_c, 0, 70, 0
1, 21000, Note_on_c, 0, 46, 0
1, 21000, Note_on_c, 0, 68, 30
1, 21040, Note_on_c, 0, 71, 50
1, 21040, Note_on_c, 0, 82, 59
1, 21080, Note_on_c, 0, 82, 0
1, 21080, Note_on_c, 0, 71, 0
1, 21120, Note_on_c, 0, 68, 0
1, 21120, Note_on_c, 0, 72, 51
1, 21120, Note_on_c, 0, 82, 60
1, 21120, Note_on_c, 0, 58, 32
1, 21160, Note_on_c, 0, 82, 0
1, 21160, Note_on_c, 0, 72, 0
1, 21200, Note_on_c, 0, 73, 52
1, 21200, Note_on_c, 0, 82, 61
1, 21240, Note_on_c, 0, 82, 0
1, 21240, Note_on_c, 0, 73, 0
1, 21240, Note_on_c, 0, 58, 0
1, 21240, Note_on_c, 0, 68, 34
1, 21280, Note_on_c, 0, 74, 53
1, 21280, Note_on_c, 0, 82, 62
1, 21320, Note_on_c, 0, 82, 0
1, 21320, Note_on_c, 0, 74, 0
1, 21340, Tempo, 1224490
1, 21360, Tempo, 1237113
1, 21360, Note_on_c, 0, 68, 0
1, 21360, Note_on_c, 0, 82, 64
1, 21360, Note_on_c, 0, 75, 54
1, 21360, Note_on_c, 0, 62, 35
1, 21380, Tempo, 1250000
1, 21400, Tempo, 1263158
1, 21400, Note_on_c, 0, 75, 0
1, 21400, Note_on_c, 0, 82, 0
1, 21420, Tempo, 1276596
1, 21440, Tempo, 1290323
1, 21440, Note_on_c, 0, 82, 65
1, 21440, Note_on_c, 0, 76, 55
1, 21460, Tempo, 1304348
1, 21480, Tempo, 1318681
1, 21480, Note_on_c, 0, 76, 0
1, 21480, Note_on_c, 0, 82, 0
1, 21480, Note_on_c, 0, 62, 0
1, 21480, Note_on_c, 0, 53, 37
1, 21500, Tempo, 1333333
1, 21520, Tempo, 1348315
1, 21520, Note_on_c, 0, 82, 66
1, 21520, Note_on_c, 0, 77, 56
1, 21540, Tempo, 1363636
1, 21560, Tempo, 1379310
1, 21560, Note_on_c, 0, 77, 0
1, 21560, Note_on_c, 0, 82, 0
1, 21580, Tempo, 1395349
1, 21600, Tempo, 1276596
1, 21600, Note_on_c, 0, 53, 0
1, 21600, Note_on_c, 0, 78, 45
1, 21600, Note_on_c, 0, 82, 54
1, 21600, Note_on_c, 0, 39, 38
1, 21618, Control_c, 0, 64, 0
1, 21655, Control_c, 0, 64, 127
1, 21696, Note_on_c, 0, 82, 0
1, 21696, Note_on_c, 0, 78, 0
1, 21696, Note_on_c, 0, 80, 47
1, 21696, Note_on_c, 0, 83, 57
1, 21720, Note_on_c, 0, 39, 0
1, 21720, Note_on_c, 0, 66, 28
1, 21792, Note_on_c, 0, 83, 0
1, 21792, Note_on_c, 0, 80, 0
1, 21792, Note_on_c, 0, 82, 60
1, 21792, Note_on_c, 0, 78, 50
1, 21840, Tempo, 1188119
1, 21840, Note_on_c, 0, 66, 0
1, 21840, Note_on_c, 0, 58, 28
1, 21888, Note_on_c, 0, 78, 0
1, 21888, Note_on_c, 0, 82, 0
1, 21888, Note_on_c, 0, 77, 53
1, 21888, Note_on_c, 0, 80, 63
1, 21960, Note_on_c, 0, 58, 0
1, 21960, Note_on_c, 0, 66, 27
1, 21984, Note_on_c, 0, 80, 0
1, 21984, Note_on_c, 0, 77, 0
1, 21984, Note_on_c, 0, 78, 54
1, 21984, Note_on_c, 0, 82, 65
1, 22080, Tempo, 1153846
1, 22080, Note_on_c, 0, 82, 0
1, 22080, Note_on_c, 0, 78, 0
1, 22080, Note_on_c, 0, 66, 0
1, 22080, Note_on_c, 0, 80, 58
1, 22080, Note_on_c, 0, 83, 69
1, 22080, Note_on_c, 0, 63, 26
1, 22140, Note_on_c, 0, 83, 0
1, 22140, Note_on_c, 0, 80, 0
1, 22200, Tempo, 1276596
1, 22200, Note_on_c, 0, 63, 0
1, 22200, Note_on_c, 0, 54, 26
1, 22260, Note_on_c, 0, 78, 66
1, 22260, Note_on_c, 0, 75, 56
1, 22273, Control_c, 0, 64, 0
1, 22310, Note_on_c, 0, 75, 0
1, 22310, Note_on_c, 0, 78, 0
1, 22320, Tempo, 1237113
1, 22320, Note_on_c, 0, 54, 0
1, 22320, Note_on_c, 0, 75, 53
1, 22320, Note_on_c, 0, 78, 63
1, 22320, Note_on_c, 0, 51, 33
1, 22380, Note_on_c, 0, 78, 0
1, 22380, Note_on_c, 0, 75, 0
1, 22380, Note_on_c, 0, 78, 59
1, 22380, Note_on_c, 0, 82, 70
1, 22385, Control_c, 0, 64, 127
1, 22440, Note_on_c, 0, 82, 0
1, 22440, Note_on_c, 0, 78, 0
1, 22440, Note_on_c, 0, 51, 0
1, 22440, Note_on_c, 0, 68, 28
1, 22500, Note_on_c, 0, 80, 64
1, 22500, Note_on_c, 0, 77, 54
1, 22560, Tempo, 1445783
1, 22560, Note_on_c, 0, 77, 0
1, 22560, Note_on_c, 0, 80, 0
1, 22560, Note_on_c, 0, 68, 0
1, 22560, Note_on_c, 0, 77, 62
1, 22560, Note_on_c, 0, 80, 62
1, 22560, Note_on_c, 0, 58, 28
1, 22580, Note_on_c, 0, 80, 0
1, 22580, Note_on_c, 0, 77, 0
1, 22580, Note_on_c, 0, 82, 55
1, 22580, Note_on_c, 0, 78, 55
1, 22600, Note_on_c, 0, 78, 0
1, 22600, Note_on_c, 0, 82, 0
1, 22600, Note_on_c, 0, 80, 61
1, 22600, Note_on_c, 0, 77, 61
1, 22640, Tempo, 1212121
1, 22640, Note_on_c, 0, 77, 0
1, 22640, Note_on_c, 0, 80, 0
1, 22640, Note_on_c, 0, 75, 53
1, 22640, Note_on_c, 0, 78, 63
1, 22680, Note_on_c, 0, 58, 0
1, 22680, Note_on_c, 0, 68, 28
1, 22720, Note_on_c, 0, 78, 0
1, 22720, Note_on_c, 0, 75, 0
1, 22760, Note_on_c, 0, 77, 54
1, 22760, Note_on_c, 0, 80, 64
1, 22790, Note_on_c, 0, 80, 0
1, 22790, Note_on_c, 0, 77, 0
1, 22800, Tempo, 1250260
1, 22800, Note_on_c, 0, 68, 0
1, 22800, Note_on_c, 0, 77, 55
1, 22800, Note_on_c, 0, 80, 65
1, 22800, Note_on_c, 0, 62, 28
1, 22840, Tempo, 1261830
1, 22860, Tempo, 1273885
1, 22880, Note_on_c, 0, 80, 0
1, 22880, Note_on_c, 0, 77, 0
1, 22880, Note_on_c, 0, 78, 57
1, 22880, Note_on_c, 0, 82, 67
1, 22900, Tempo, 1285898
1, 22920, Tempo, 1298701
1, 22920, Note_on_c, 0, 82, 0
1, 22920, Note_on_c, 0, 78, 0
1, 22920, Note_on_c, 0, 62, 0
1, 22920, Note_on_c, 0, 53, 27
1, 23000, Note_on_c, 0, 74, 55
1, 23000, Note_on_c, 0, 77, 65
1, 23030, Note_on_c, 0, 77, 0
1, 23030, Note_on_c, 0, 74, 0
1, 23040, Tempo, 1333333
1, 23040, Note_on_c, 0, 53, 0
1, 23040, Note_on_c, 0, 74, 59
1, 23040, Note_on_c, 0, 77, 59
1, 23040, Note_on_c, 0, 51, 44
1, 23055, Control_c, 0, 64, 0
1, 23095, Control_c, 0, 64, 127
1, 23100, Tempo, 1237113
1, 23100, Note_on_c, 0, 77, 0
1, 23100, Note_on_c, 0, 74, 0
1, 23100, Note_on_c, 0, 77, 53
1, 23100, Note_on_c, 0, 80, 62
1, 23160, Note_on_c, 0, 51, 0
1, 23160, Note_on_c, 0, 66, 34
1, 23220, Note_on_c, 0, 80, 0
1, 23220, Note_on_c, 0, 77, 0
1, 23280, Tempo, 1188119
1, 23280, Note_on_c, 0, 66, 0
1, 23280, Note_on_c, 0, 58, 34
1, 23400, Note_on_c, 0, 58, 0
1, 23400, Note_on_c, 0, 66, 34
1, 23520, Note_on_c, 0, 66, 0
1, 23520, Note_on_c, 0, 75, 61
1, 23520, Note_on_c, 0, 78, 73
1, 23520, Note_on_c, 0, 63, 34
1, 23640, Tempo, 1276596
1, 23640, Note_on_c, 0, 63, 0
1, 23640, Note_on_c, 0, 54, 34
1, 23760, Note_on_c, 0, 54, 0
1, 23760, Note_on_c, 0, 45, 64
1, 23777, Control_c, 0, 64, 0
1, 23825, Control_c, 0, 64, 127
1, 23880, Tempo, 1200000
1, 23880, Note_on_c, 0, 61, 40
1, 23980, Tempo, 1224490
1, 24000, Note_on_c, 0, 61, 0
1, 24000, Note_on_c, 0, 75, 0
1, 24000, Note_on_c, 0, 78, 0
1, 24000, Note_on_c, 0, 74, 61
1, 24000, Note_on_c, 0, 78, 73
1, 24000, Note_on_c, 0, 51, 42
1, 24020, Tempo, 1165049
1, 24060, Tempo, 1176471
1, 24120, Note_on_c, 0, 51, 0
1, 24120, Note_on_c, 0, 78, 0
1, 24120, Note_on_c, 0, 74, 0
1, 24120, Note_on_c, 0, 61, 44
1, 24240, Tempo, 1153846
1, 24240, Note_on_c, 0, 61, 0
1, 24240, Note_on_c, 0, 78, 76
1, 24240, Note_on_c, 0, 73, 64
1, 24240, Note_on_c, 0, 54, 46
1, 24280, Tempo, 1165049
1, 24300, Tempo, 1176471
1, 24320, Tempo, 1188119
1, 24340, Tempo, 1200000
1, 24360, Tempo, 1212121
1, 24360, Note_on_c, 0, 54, 0
1, 24360, Note_on_c, 0, 73, 0
1, 24360, Note_on_c, 0, 78, 0
1, 24360, Note_on_c, 0, 45, 48
1, 24380, Tempo, 1224490
1, 24400, Tempo, 1237113
1, 24420, Tempo, 1250000
1, 24440, Tempo, 1263158
1, 24460, Tempo, 1276596
1, 24480, Tempo, 1263158
1, 24480, Note_on_c, 0, 45, 0
1, 24480, Note_on_c, 0, 45, 0
1, 24480, Note_on_c, 0, 72, 64
1, 24480, Note_on_c, 0, 78, 78
1, 24480, Note_on_c, 0, 44, 54
1, 24497, Control_c, 0, 64, 0
1, 24540, Control_c, 0, 64, 127
1, 24600, Tempo, 1188119
1, 24600, Note_on_c, 0, 44, 0
1, 24600, Note_on_c, 0, 60, 47
1, 24720, Note_on_c, 0, 60, 0
1, 24720, Note_on_c, 0, 51, 47
1, 24840, Tempo, 1318681
1, 24840, Note_on_c, 0, 51, 0
1, 24840, Note_on_c, 0, 78, 0
1, 24840, Note_on_c, 0, 72, 0
1, 24840, Note_on_c, 0, 69, 62
1, 24840, Note_on_c, 0, 81, 74
1, 24840, Note_on_c, 0, 60, 47
1, 24960, Tempo, 1224490
1, 24960, Note_on_c, 0, 60, 0
1, 24960, Note_on_c, 0, 81, 0
1, 24960, Note_on_c, 0, 69, 0
1, 24960, Note_on_c, 0, 68, 64
1, 24960, Note_on_c, 0, 80, 76
1, 24960, Note_on_c, 0, 54, 46
1, 25080, Note_on_c, 0, 54, 0
1, 25080, Note_on_c, 0, 51, 46
1, 25200, Note_on_c, 0, 51, 0
1, 25200, Note_on_c, 0, 45, 67
1, 25216, Control_c, 0, 64, 0
1, 25270, Control_c, 0, 64, 127
1, 25320, Tempo, 1263158
1, 25320, Note_on_c, 0, 57, 51
1, 25440, Note_on_c, 0, 57, 0
1, 25440, Note_on_c, 0, 68, 0
1, 25440, Note_on_c, 0, 80, 0
1, 25440, Note_on_c, 0, 66, 60
1, 25440, Note_on_c, 0, 78, 72
1, 25440, Note_on_c, 0, 51, 51
1, 25560, Note_on_c, 0, 51, 0
1, 25560, Note_on_c, 0, 57, 51
1, 25580, Tempo, 1304348
1, 25640, Tempo, 1318681
1, 25680, Tempo, 1333333
1, 25680, Note_on_c, 0, 57, 0
1, 25680, Note_on_c, 0, 78, 0
1, 25680, Note_on_c, 0, 66, 0
1, 25680, Note_on_c, 0, 61, 58
1, 25680, Note_on_c, 0, 73, 70
1, 25680, Note_on_c, 0, 54, 51
1, 25740, Tempo, 1348315
1, 25780, Tempo, 1363636
1, 25800, Note_on_c, 0, 54, 0
1, 25800, Note_on_c, 0, 51, 51
1, 25840, Tempo, 1379310
1, 25880, Tempo, 1395349
1, 25920, Tempo, 1341082
1, 25920, Note_on_c, 0, 51, 0
1, 25920, Note_on_c, 0, 73, 0
1, 25920, Note_on_c, 0, 61, 0
1, 25920, Note_on_c, 0, 45, 0
1, 25920, Note_on_c, 0, 60, 56
1, 25920, Note_on_c, 0, 72, 66
1, 25920, Note_on_c, 0, 44, 44
1, 25933, Control_c, 0, 64, 0
1, 25940, Tempo, 1214083
1, 25983, Control_c, 0, 64, 127
1, 26040, Note_on_c, 0, 44, 0
1, 26040, Note_on_c, 0, 56, 32
1, 26160, Note_on_c, 0, 56, 0
1, 26160, Note_on_c, 0, 51, 30
1, 26280, Note_on_c, 0, 51, 0
1, 26280, Note_on_c, 0, 56, 28
1, 26400, Note_on_c, 0, 56, 0
1, 26400, Note_on_c, 0, 72, 0
1, 26400, Note_on_c, 0, 60, 0
1, 26400, Note_on_c, 0, 68, 52
1, 26400, Note_on_c, 0, 54, 27
1, 26520, Tempo, 1295896
1, 26520, Note_on_c, 0, 54, 0
1, 26520, Note_on_c, 0, 51, 25
1, 26640, Tempo, 1214083
1, 26640, Note_on_c, 0, 51, 0
1, 26640, Note_on_c, 0, 68, 0
1, 26640, Note_on_c, 0, 69, 57
1, 26640, Note_on_c, 0, 49, 31
1, 26658, Control_c, 0, 64, 0
1, 26686, Control_c, 0, 64, 127
1, 26720, Note_on_c, 0, 69, 0
1, 26720, Note_on_c, 0, 71, 50
1, 26760, Note_on_c, 0, 49, 0
1, 26760, Note_on_c, 0, 64, 27
1, 26800, Note_on_c, 0, 71, 0
1, 26800, Note_on_c, 0, 69, 52
1, 26880, Tempo, 1189061
1, 26880, Note_on_c, 0, 69, 0
1, 26880, Note_on_c, 0, 64, 0
1, 26880, Note_on_c, 0, 68, 51
1, 26880, Note_on_c, 0, 54, 27
1, 27000, Note_on_c, 0, 54, 0
1, 27000, Note_on_c, 0, 68, 0
1, 27000, Note_on_c, 0, 69, 51
1, 27000, Note_on_c, 0, 64, 27
1, 27040, Tempo, 1295896
1, 27120, Tempo, 1240182
1, 27120, Note_on_c, 0, 64, 0
1, 27120, Note_on_c, 0, 69, 0
1, 27120, Note_on_c, 0, 76, 57
1, 27120, Note_on_c, 0, 57, 27
1, 27140, Tempo, 1253656
1, 27160, Tempo, 1267427
1, 27180, Tempo, 1281504
1, 27200, Tempo, 1295896
1, 27220, Tempo, 1310616
1, 27240, Tempo, 1325674
1, 27240, Note_on_c, 0, 57, 0
1, 27240, Note_on_c, 0, 49, 28
1, 27260, Tempo, 1341082
1, 27280, Tempo, 1356852
1, 27300, Tempo, 1372998
1, 27300, Note_on_c, 0, 76, 0
1, 27300, Note_on_c, 0, 75, 53
1, 27360, Tempo, 1325674
1, 27360, Note_on_c, 0, 75, 0
1, 27360, Note_on_c, 0, 49, 0
1, 27360, Note_on_c, 0, 75, 57
1, 27360, Note_on_c, 0, 48, 44
1, 27375, Control_c, 0, 64, 0
1, 27423, Control_c, 0, 64, 127
1, 27480, Tempo, 1165049
1, 27480, Note_on_c, 0, 48, 0
1, 27480, Note_on_c, 0, 63, 30
1, 27600, Tempo, 1214083
1, 27600, Note_on_c, 0, 63, 0
1, 27600, Note_on_c, 0, 75, 0
1, 27600, Note_on_c, 0, 54, 32
1, 27720, Note_on_c, 0, 54, 0
1, 27720, Note_on_c, 0, 69, 61
1, 27720, Note_on_c, 0, 81, 73
1, 27720, Note_on_c, 0, 63, 39
1, 27780, Tempo, 1348315
1, 27840, Tempo, 1200000
1, 27840, Note_on_c, 0, 63, 0
1, 27840, Note_on_c, 0, 81, 0
1, 27840, Note_on_c, 0, 69, 0
1, 27840, Note_on_c, 0, 68, 58
1, 27840, Note_on_c, 0, 80, 70
1, 27840, Note_on_c, 0, 56, 42
1, 27960, Tempo, 1295896
1, 27960, Note_on_c, 0, 56, 0
1, 27960, Note_on_c, 0, 54, 43
1, 28080, Tempo, 1214083
1, 28080, Note_on_c, 0, 54, 0
1, 28080, Note_on_c, 0, 45, 49
1, 28098, Control_c, 0, 64, 0
1, 28143, Control_c, 0, 64, 127
1, 28200, Note_on_c, 0, 45, 0
1, 28200, Note_on_c, 0, 61, 40
1, 28320, Tempo, 1281504
1, 28320, Note_on_c, 0, 61, 0
1, 28320, Note_on_c, 0, 80, 0
1, 28320, Note_on_c, 0, 68, 0
1, 28320, Note_on_c, 0, 68, 55
1, 28320, Note_on_c, 0, 80, 65
1, 28320, Note_on_c, 0, 51, 38
1, 28380, Note_on_c, 0, 80, 0
1, 28380, Note_on_c, 0, 68, 0
1, 28380, Note_on_c, 0, 66, 54
1, 28380, Note_on_c, 0, 78, 64
1, 28440, Note_on_c, 0, 78, 0
1, 28440, Note_on_c, 0, 66, 0
1, 28440, Note_on_c, 0, 51, 0
1, 28440, Note_on_c, 0, 68, 53
1, 28440, Note_on_c, 0, 80, 63
1, 28440, Note_on_c, 0, 61, 35
1, 28500, Note_on_c, 0, 80, 0
1, 28500, Note_on_c, 0, 68, 0
1, 28500, Note_on_c, 0, 66, 53
1, 28500, Note_on_c, 0, 78, 62
1, 28560, Tempo, 1201442
1, 28560, Note_on_c, 0, 78, 0
1, 28560, Note_on_c, 0, 66, 0
1, 28560, Note_on_c, 0, 61, 0
1, 28560, Note_on_c, 0, 64, 53
1, 28560, Note_on_c, 0, 76, 62
1, 28560, Note_on_c, 0, 54, 35
1, 28572, Tempo, 1253656
1, 28612, Tempo, 1267427
1, 28620, Note_on_c, 0, 76, 0
1, 28620, Note_on_c, 0, 64, 0
1, 28620, Note_on_c, 0, 63, 52
1, 28620, Note_on_c, 0, 75, 61
1, 28652, Tempo, 1281504
1, 28680, Note_on_c, 0, 75, 0
1, 28680, Note_on_c, 0, 63, 0
1, 28680, Note_on_c, 0, 54, 0
1, 28680, Note_on_c, 0, 64, 51
1, 28680, Note_on_c, 0, 76, 60
1, 28680, Note_on_c, 0, 51, 33
1, 28692, Tempo, 1295896
1, 28732, Tempo, 1310616
1, 28740, Note_on_c, 0, 76, 0
1, 28740, Note_on_c, 0, 64, 0
1, 28740, Note_on_c, 0, 63, 50
1, 28740, Note_on_c, 0, 75, 59
1, 28772, Tempo, 1325674
1, 28800, Tempo, 1341082
1, 28800, Note_on_c, 0, 75, 0
1, 28800, Note_on_c, 0, 63, 0
1, 28800, Note_on_c, 0, 51, 0
1, 28800, Note_on_c, 0, 60, 56
1, 28800, Note_on_c, 0, 72, 66
1, 28800, Note_on_c, 0, 44, 44
1, 28815, Control_c, 0, 64, 0
1, 28820, Tempo, 1214083
1, 28863, Control_c, 0, 64, 127
1, 28920, Note_on_c, 0, 44, 0
1, 28920, Note_on_c, 0, 72, 0
1, 28920, Note_on_c, 0, 60, 0
1, 28920, Note_on_c, 0, 56, 32
1, 29040, Note_on_c, 0, 56, 0
1, 29040, Note_on_c, 0, 51, 30
1, 29160, Note_on_c, 0, 51, 0
1, 29160, Note_on_c, 0, 56, 28
1, 29280, Note_on_c, 0, 56, 0
1, 29280, Note_on_c, 0, 54, 23
1, 29400, Tempo, 1295896
1, 29400, Note_on_c, 0, 54, 0
1, 29400, Note_on_c, 0, 68, 46
1, 29400, Note_on_c, 0, 44, 22
1, 29520, Tempo, 1214083
1, 29520, Note_on_c, 0, 44, 0
1, 29520, Note_on_c, 0, 68, 0
1, 29520, Note_on_c, 0, 69, 51
1, 29520, Note_on_c, 0, 49, 28
1, 29537, Control_c, 0, 64, 0
1, 29559, Control_c, 0, 64, 127
1, 29600, Note_on_c, 0, 69, 0
1, 29600, Note_on_c, 0, 71, 45
1, 29640, Note_on_c, 0, 49, 0
1, 29640, Note_on_c, 0, 64, 23
1, 29680, Note_on_c, 0, 71, 0
1, 29680, Note_on_c, 0, 69, 46
1, 29760, Tempo, 1189061
1, 29760, Note_on_c, 0, 69, 0
1, 29760, Note_on_c, 0, 64, 0
1, 29760, Note_on_c, 0, 68, 45
1, 29760, Note_on_c, 0, 54, 23
1, 29880, Note_on_c, 0, 54, 0
1, 29880, Note_on_c, 0, 68, 0
1, 29880, Note_on_c, 0, 69, 45
1, 29880, Note_on_c, 0, 64, 23
1, 29920, Tempo, 1295896
1, 29940, Note_on_c, 0, 69, 0
1, 29940, Note_on_c, 0, 69, 46
1, 30000, Tempo, 1240182
1, 30000, Note_on_c, 0, 69, 0
1, 30000, Note_on_c, 0, 64, 0
1, 30000, Note_on_c, 0, 76, 52
1, 30000, Note_on_c, 0, 57, 23
1, 30020, Tempo, 1253656
1, 30040, Tempo, 1267427
1, 30060, Tempo, 1281504
1, 30080, Tempo, 1295896
1, 30100, Tempo, 1310616
1, 30120, Tempo, 1325674
1, 30120, Note_on_c, 0, 57, 0
1, 30120, Note_on_c, 0, 76, 0
1, 30120, Note_on_c, 0, 49, 24
1, 30140, Tempo, 1341082
1, 30160, Tempo, 1356852
1, 30180, Tempo, 1372998
1, 30180, Note_on_c, 0, 75, 49
1, 30240, Tempo, 1325674
1, 30240, Note_on_c, 0, 75, 0
1, 30240, Note_on_c, 0, 49, 0
1, 30240, Note_on_c, 0, 75, 54
1, 30240, Note_on_c, 0, 48, 31
1, 30255, Control_c, 0, 64, 0
1, 30303, Control_c, 0, 64, 127
1, 30360, Tempo, 1165049
1, 30360, Note_on_c, 0, 48, 0
1, 30360, Note_on_c, 0, 63, 24
1, 30480, Tempo, 1214083
1, 30480, Note_on_c, 0, 63, 0
1, 30480, Note_on_c, 0, 75, 0
1, 30480, Note_on_c, 0, 54, 24
1, 30600, Note_on_c, 0, 54, 0
1, 30600, Note_on_c, 0, 63, 24
1, 30660, Tempo, 1348315
1, 30720, Tempo, 1200000
1, 30720, Note_on_c, 0, 63, 0
1, 30720, Note_on_c, 0, 57, 24
1, 30840, Tempo, 1295896
1, 30840, Note_on_c, 0, 57, 0
1, 30840, Note_on_c, 0, 54, 24
1, 30960, Tempo, 1214083
1, 30960, Note_on_c, 0, 54, 0
1, 30960, Note_on_c, 0, 75, 51
1, 30960, Note_on_c, 0, 47, 28
1, 30978, Control_c, 0, 64, 0
1, 31032, Control_c, 0, 64, 127
1, 31080, Note_on_c, 0, 47, 0
1, 31080, Note_on_c, 0, 63, 24
1, 31200, Note_on_c, 0, 63, 0
1, 31200, Note_on_c, 0, 54, 24
1, 31320, Note_on_c, 0, 54, 0
1, 31320, Note_on_c, 0, 63, 24
1, 31440, Tempo, 1201442
1, 31440, Note_on_c, 0, 63, 0
1, 31440, Note_on_c, 0, 57, 24
1, 31452, Tempo, 1253656
1, 31492, Tempo, 1267427
1, 31532, Tempo, 1281504
1, 31560, Note_on_c, 0, 57, 0
1, 31560, Note_on_c, 0, 54, 24
1, 31572, Tempo, 1295896
1, 31612, Tempo, 1310616
1, 31652, Tempo, 1325674
1, 31680, Tempo, 1325674
1, 31680, Note_on_c, 0, 54, 0
1, 31680, Note_on_c, 0, 47, 31
1, 31695, Control_c, 0, 64, 0
1, 31743, Control_c, 0, 64, 127
1, 31800, Tempo, 1165049
1, 31800, Note_on_c, 0, 47, 0
1, 31800, Note_on_c, 0, 63, 24
1, 31920, Tempo, 1214083
1, 31920, Note_on_c, 0, 63, 0
1, 31920, Note_on_c, 0, 53, 24
1, 32040, Note_on_c, 0, 53, 0
1, 32040, Note_on_c, 0, 63, 24
1, 32100, Tempo, 1348315
1, 32160, Tempo, 1200000
1, 32160, Note_on_c, 0, 63, 0
1, 32160, Note_on_c, 0, 56, 24
1, 32280, Tempo, 1295896
1, 32280, Note_on_c, 0, 56, 0
1, 32280, Note_on_c, 0, 53, 24
1, 32400, Tempo, 1214083
1, 32400, Note_on_c, 0, 75, 0
1, 32400, Note_on_c, 0, 74, 51
1, 32400, Note_on_c, 0, 47, 28
1, 32417, Control_c, 0, 64, 0
1, 32492, Control_c, 0, 64, 127
1, 32520, Note_on_c, 0, 47, 0
1, 32520, Note_on_c, 0, 53, 0
1, 32520, Note_on_c, 0, 62, 24
1, 32640, Tempo, 1281504
1, 32640, Note_on_c, 0, 62, 0
1, 32640, Note_on_c, 0, 52, 24
1, 32680, Tempo, 1188119
1, 32740, Tempo, 1200000
1, 32760, Note_on_c, 0, 62, 24
1, 32780, Tempo, 1212121
1, 32840, Tempo, 1224490
1, 32880, Tempo, 1237113
1, 32880, Note_on_c, 0, 62, 0
1, 32880, Note_on_c, 0, 52, 0
1, 32880, Note_on_c, 0, 56, 24
1, 32940, Tempo, 1250000
1, 32980, Tempo, 1263158
1, 33000, Note_on_c, 0, 56, 0
1, 33000, Note_on_c, 0, 52, 24
1, 33040, Tempo, 1276596
1, 33080, Tempo, 1290323
1, 33092, Tempo, 1325674
1, 33120, Tempo, 1325674
1, 33120, Note_on_c, 0, 52, 0
1, 33120, Note_on_c, 0, 74, 0
1, 33120, Note_on_c, 0, 73, 54
1, 33120, Note_on_c, 0, 45, 31
1, 33133, Control_c, 0, 64, 0
1, 33183, Control_c, 0, 64, 127
1, 33240, Tempo, 1165049
1, 33240, Note_on_c, 0, 45, 0
1, 33240, Note_on_c, 0, 61, 24
1, 33360, Tempo, 1214083
1, 33360, Note_on_c, 0, 61, 0
1, 33360, Note_on_c, 0, 52, 24
1, 33480, Note_on_c, 0, 52, 0
1, 33480, Note_on_c, 0, 61, 24
1, 33540, Tempo, 1348315
1, 33600, Tempo, 1200000
1, 33600, Note_on_c, 0, 61, 0
1, 33600, Note_on_c, 0, 73, 0
1, 33600, Note_on_c, 0, 57, 24
1, 33720, Tempo, 1295896
1, 33720, Note_on_c, 0, 57, 0
1, 33720, Note_on_c, 0, 52, 24
1, 33840, Tempo, 1214083
1, 33840, Note_on_c, 0, 52, 0
1, 33840, Note_on_c, 0, 73, 51
1, 33840, Note_on_c, 0, 45, 28
1, 33856, Control_c, 0, 64, 0
1, 33893, Control_c, 0, 64, 127
1, 33960, Note_on_c, 0, 45, 0
1, 33960, Note_on_c, 0, 61, 24
1, 34080, Note_on_c, 0, 61, 0
1, 34080, Note_on_c, 0, 51, 24
1, 34200, Note_on_c, 0, 51, 0
1, 34200, Note_on_c, 0, 61, 24
1, 34320, Tempo, 1201442
1, 34320, Note_on_c, 0, 61, 0
1, 34320, Note_on_c, 0, 54, 24
1, 34332, Tempo, 1253656
1, 34372, Tempo, 1267427
1, 34412, Tempo, 1281504
1, 34440, Note_on_c, 0, 54, 0
1, 34440, Note_on_c, 0, 51, 24
1, 34452, Tempo, 1295896
1, 34492, Tempo, 1310616
1, 34532, Tempo, 1325674
1, 34560, Tempo, 1325674
1, 34560, Note_on_c, 0, 51, 0
1, 34560, Note_on_c, 0, 44, 31
1, 34575, Control_c, 0, 64, 0
1, 34623, Control_c, 0, 64, 127
1, 34680, Tempo, 1165049
1, 34680, Note_on_c, 0, 44, 0
1, 34680, Note_on_c, 0, 60, 24
1, 34800, Tempo, 1214083
1, 34800, Note_on_c, 0, 60, 0
1, 34800, Note_on_c, 0, 73, 0
1, 34800, Note_on_c, 0, 72, 49
1, 34800, Note_on_c, 0, 51, 24
1, 34920, Note_on_c, 0, 51, 0
1, 34920, Note_on_c, 0, 60, 24
1, 35040, Tempo, 1200000
1, 35040, Note_on_c, 0, 60, 0
1, 35040, Note_on_c, 0, 72, 0
1, 35040, Note_on_c, 0, 70, 48
1, 35040, Note_on_c, 0, 54, 24
1, 35160, Tempo, 1295896
1, 35160, Note_on_c, 0, 54, 0
1, 35160, Note_on_c, 0, 49, 24
1, 35280, Tempo, 1290323
1, 35280, Note_on_c, 0, 49, 0
1, 35280, Note_on_c, 0, 44, 28
1, 35296, Control_c, 0, 64, 0
1, 35344, Control_c, 0, 64, 127
1, 35400, Note_on_c, 0, 44, 0
1, 35400, Note_on_c, 0, 70, 0
1, 35400, Note_on_c, 0, 68, 42
1, 35400, Note_on_c, 0, 56, 24
1, 35520, Tempo, 1281504
1, 35520, Note_on_c, 0, 56, 0
1, 35520, Note_on_c, 0, 68, 0
1, 35520, Note_on_c, 0, 70, 44
1, 35520, Note_on_c, 0, 48, 24
1, 35540, Tempo, 1290323
1, 35580, Tempo, 1304348
1, 35620, Tempo, 1318681
1, 35640, Note_on_c, 0, 48, 0
1, 35640, Note_on_c, 0, 70, 0
1, 35640, Note_on_c, 0, 72, 45
1, 35640, Note_on_c, 0, 56, 24
1, 35660, Tempo, 1333333
1, 35700, Tempo, 1348315
1, 35740, Tempo, 1363636
1, 35760, Note_on_c, 0, 56, 0
1, 35760, Note_on_c, 0, 72, 0
1, 35760, Note_on_c, 0, 73, 47
1, 35760, Note_on_c, 0, 54, 24
1, 35780, Tempo, 1379310
1, 35820, Tempo, 1395349
1, 35860, Tempo, 1411765
1, 35880, Note_on_c, 0, 54, 0
1, 35880, Note_on_c, 0, 73, 0
1, 35880, Note_on_c, 0, 75, 48
1, 35880, Note_on_c, 0, 51, 24
1, 35900, Tempo, 1428571
1, 35940, Tempo, 1445783
1, 35980, Tempo, 1463415
1, 36000, Tempo, 1348315
1, 36000, Note_on_c, 0, 51, 0
1, 36000, Note_on_c, 0, 75, 0
1, 36000, Note_on_c, 0, 77, 49
1, 36000, Text_t, "bdca426d104a26ac9dcb070447587523"
1, 36000, Control_c, 0, 91, 127
1, 36000, Note_on_c, 0, 37, 27
1, 36021, Control_c, 0, 64, 0
1, 36040, Tempo, 1333333
1, 36060, Tempo, 1318681
1, 36078, Control_c, 0, 64, 127
1, 36100, Tempo, 1304348
1, 36120, Tempo, 1290323
1, 36120, Note_on_c, 0, 37, 0
1, 36120, Note_on_c, 0, 65, 22
1, 36140, Tempo, 1276596
1, 36180, Tempo, 1263158
1, 36200, Tempo, 1250000
1, 36220, Tempo, 1237113
1, 36240, Tempo, 1188119
1, 36240, Note_on_c, 0, 65, 0
1, 36240, Note_on_c, 0, 56, 22
1, 36360, Note_on_c, 0, 56, 0
1, 36360, Note_on_c, 0, 65, 22
1, 36480, Note_on_c, 0, 65, 0
1, 36480, Note_on_c, 0, 61, 22
1, 36600, Note_on_c, 0, 61, 0
1, 36600, Note_on_c, 0, 53, 22
1, 36720, Tempo, 1237113
1, 36720, Note_on_c, 0, 53, 0
1, 36720, Note_on_c, 0, 77, 0
1, 36720, Note_on_c, 0, 75, 49
1, 36720, Note_on_c, 0, 49, 27
1, 36840, Note_on_c, 0, 49, 0
1, 36840, Note_on_c, 0, 65, 22
1, 36960, Tempo, 1237113
1, 36960, Note_on_c, 0, 65, 0
1, 36960, Note_on_c, 0, 75, 0
1, 36960, Note_on_c, 0, 73, 49
1, 36960, Note_on_c, 0, 56, 22
1, 37080, Tempo, 1276596
1, 37080, Note_on_c, 0, 56, 0
1, 37080, Note_on_c, 0, 65, 22
1, 37200, Note_on_c, 0, 65, 0
1, 37200, Note_on_c, 0, 61, 22
1, 37280, Tempo, 1224490
1, 37300, Tempo, 1250000
1, 37320, Tempo, 1276596
1, 37320, Note_on_c, 0, 61, 0
1, 37320, Note_on_c, 0, 73, 0
1, 37320, Note_on_c, 0, 65, 45
1, 37320, Note_on_c, 0, 53, 22
1, 37340, Tempo, 1318681
1, 37360, Tempo, 1395349
1, 37380, Tempo, 1481481
1, 37400, Tempo, 1578947
1, 37420, Tempo, 1690141
1, 37440, Tempo, 1818182
1, 37440, Note_on_c, 0, 53, 0
1, 37440, Note_on_c, 0, 65, 0
1, 37440, Note_on_c, 0, 68, 49
1, 37440, Note_on_c, 0, 49, 27
1, 37460, Tempo, 1348315
1, 37480, Tempo, 1333333
1, 37500, Tempo, 1318681
1, 37520, Tempo, 1304348
1, 37540, Tempo, 1290323
1, 37560, Tempo, 1276596
1, 37560, Note_on_c, 0, 49, 0
1, 37560, Note_on_c, 0, 65, 24
1, 37580, Tempo, 1263158
1, 37600, Tempo, 1237113
1, 37680, Tempo, 1176471
1, 37680, Note_on_c, 0, 65, 0
1, 37680, Note_on_c, 0, 56, 24
1, 37800, Note_on_c, 0, 56, 0
1, 37800, Note_on_c, 0, 65, 23
1, 37920, Tempo, 1212121
1, 37920, Note_on_c, 0, 65, 0
1, 37920, Note_on_c, 0, 61, 23
1, 38040, Note_on_c, 0, 61, 0
1, 38040, Note_on_c, 0, 53, 23
1, 38160, Tempo, 1212121
1, 38160, Note_on_c, 0, 53, 0
1, 38160, Note_on_c, 0, 49, 28
1, 38280, Note_on_c, 0, 49, 0
1, 38280, Note_on_c, 0, 65, 23
1, 38400, Tempo, 1263158
1, 38400, Note_on_c, 0, 65, 0
1, 38400, Note_on_c, 0, 68, 0
1, 38400, Note_on_c, 0, 73, 52
1, 38400, Note_on_c, 0, 56, 23
1, 38520, Note_on_c, 0, 56, 0
1, 38520, Note_on_c, 0, 65, 24
1, 38620, Tempo, 1250000
1, 38640, Note_on_c, 0, 65, 0
1, 38640, Note_on_c, 0, 73, 0
1, 38640, Note_on_c, 0, 77, 54
1, 38640, Note_on_c, 0, 61, 25
1, 38660, Tempo, 1263158
1, 38680, Tempo, 1276596
1, 38700, Tempo, 1290323
1, 38720, Tempo, 1304348
1, 38740, Tempo, 1318681
1, 38760, Note_on_c, 0, 61, 0
1, 38760, Note_on_c, 0, 53, 27
1, 38780, Tempo, 1333333
1, 38800, Tempo, 1348315
1, 38820, Tempo, 1363636
1, 38840, Tempo, 1379310
1, 38860, Tempo, 1395349
1, 38880, Tempo, 1238646
1, 38880, Note_on_c, 0, 53, 0
1, 38880, Note_on_c, 0, 77, 0
1, 38880, Note_on_c, 0, 82, 61
1, 38880, Note_on_c, 0, 49, 30
1, 39000, Note_on_c, 0, 49, 0
1, 39000, Note_on_c, 0, 65, 26
1, 39120, Tempo, 1188119
1, 39120, Note_on_c, 0, 65, 0
1, 39120, Note_on_c, 0, 56, 25
1, 39240, Note_on_c, 0, 56, 0
1, 39240, Note_on_c, 0, 65, 24
1, 39360, Note_on_c, 0, 65, 0
1, 39360, Note_on_c, 0, 61, 24
1, 39480, Note_on_c, 0, 61, 0
1, 39480, Note_on_c, 0, 53, 23
1, 39600, Tempo, 1237113
1, 39600, Note_on_c, 0, 53, 0
1, 39600, Note_on_c, 0, 49, 27
1, 39720, Tempo, 1290323
1, 39720, Note_on_c, 0, 49, 0
1, 39720, Note_on_c, 0, 82, 0
1, 39720, Note_on_c, 0, 80, 45
1, 39720, Note_on_c, 0, 65, 22
1, 39840, Tempo, 1290323
1, 39840, Note_on_c, 0, 65, 0
1, 39840, Note_on_c, 0, 80, 0
1, 39840, Note_on_c, 0, 76, 50
1, 39840, Note_on_c, 0, 56, 22
1, 39900, Tempo, 1304348
1, 39960, Tempo, 1318681
1, 39960, Note_on_c, 0, 56, 0
1, 39960, Note_on_c, 0, 76, 0
1, 39960, Note_on_c, 0, 77, 45
1, 39960, Note_on_c, 0, 65, 22
1, 40020, Tempo, 1333333
1, 40060, Tempo, 1333333
1, 40080, Note_on_c, 0, 65, 0
1, 40080, Note_on_c, 0, 77, 0
1, 40080, Note_on_c, 0, 72, 49
1, 40080, Note_on_c, 0, 61, 22
1, 40100, Tempo, 1348315
1, 40120, Tempo, 1363636
1, 40140, Tempo, 1379310
1, 40180, Tempo, 1395349
1, 40200, Tempo, 1411765
1, 40200, Note_on_c, 0, 61, 0
1, 40200, Note_on_c, 0, 72, 0
1, 40200, Note_on_c, 0, 73, 45
1, 40200, Note_on_c, 0, 53, 22
1, 40220, Tempo, 1428571
1, 40240, Tempo, 1445783
1, 40260, Tempo, 1500000
1, 40280, Tempo, 1578947
1, 40300, Tempo, 1463415
1, 40320, Tempo, 1445783
1, 40320, Note_on_c, 0, 53, 0
1, 40320, Note_on_c, 0, 73, 0
1, 40320, Note_on_c, 0, 69, 56
1, 40320, Text_t, "bdca426d104a26ac9dcb070447587523"
1, 40320, Control_c, 0, 91, 127
1, 40320, Note_on_c, 0, 37, 28
1, 40333, Control_c, 0, 64, 0
1, 40340, Tempo, 1428571
1, 40360, Tempo, 1411765
1, 40380, Tempo, 1395349
1, 40389, Control_c, 0, 64, 127
1, 40400, Tempo, 1379310
1, 40420, Tempo, 1363636
1, 40440, Tempo, 1348315
1, 40440, Note_on_c, 0, 66, 22
1, 40460, Tempo, 1333333
1, 40480, Tempo, 1318681
1, 40500, Tempo, 1304348
1, 40520, Tempo, 1290323
1, 40540, Tempo, 1276596
1, 40560, Tempo, 1250000
1, 40560, Note_on_c, 0, 66, 0
1, 40560, Note_on_c, 0, 37, 0
1, 40560, Note_on_c, 0, 57, 22
1, 40680, Note_on_c, 0, 57, 0
1, 40680, Note_on_c, 0, 66, 22
1, 40800, Tempo, 1263158
1, 40800, Note_on_c, 0, 66, 0
1, 40800, Note_on_c, 0, 61, 22
1, 40920, Note_on_c, 0, 61, 0
1, 40920, Note_on_c, 0, 54, 22
1, 41040, Tempo, 1224490
1, 41040, Note_on_c, 0, 54, 0
1, 41040, Note_on_c, 0, 49, 27
1, 41160, Note_on_c, 0, 49, 0
1, 41160, Note_on_c, 0, 66, 22
1, 41280, Note_on_c, 0, 66, 0
1, 41280, Note_on_c, 0, 57, 22
1, 41400, Note_on_c, 0, 57, 0
1, 41400, Note_on_c, 0, 66, 22
1, 41520, Note_on_c, 0, 66, 0
1, 41520, Note_on_c, 0, 62, 26
1, 41540, Tempo, 1212121
1, 41580, Tempo, 1224490
1, 41600, Tempo, 1237113
1, 41640, Tempo, 1250000
1, 41640, Note_on_c, 0, 62, 0
1, 41640, Note_on_c, 0, 54, 22
1, 41660, Tempo, 1263158
1, 41700, Tempo, 1276596
1, 41720, Tempo, 1290323
1, 41740, Tempo, 1333333
1, 41760, Note_on_c, 0, 54, 0
1, 41760, Note_on_c, 0, 69, 0
1, 41760, Note_on_c, 0, 70, 52
1, 41760, Text_t, "bdca426d104a26ac9dcb070447587523"
1, 41760, Control_c, 0, 91, 127
1, 41760, Note_on_c, 0, 49, 28
1, 41775, Control_c, 0, 64, 0
1, 41780, Tempo, 1318681
1, 41800, Tempo, 1304348
1, 41829, Control_c, 0, 64, 127
1, 41840, Tempo, 1290323
1, 41860, Tempo, 1276596
1, 41880, Note_on_c, 0, 66, 22
1, 41900, Tempo, 1263158
1, 41920, Tempo, 1250000
1, 41960, Tempo, 1237113
1, 41980, Tempo, 1224490
1, 42000, Note_on_c, 0, 66, 0
1, 42000, Note_on_c, 0, 49, 0
1, 42000, Note_on_c, 0, 58, 22
1, 42120, Note_on_c, 0, 58, 0
1, 42120, Note_on_c, 0, 66, 22
1, 42240, Note_on_c, 0, 66, 0
1, 42240, Note_on_c, 0, 63, 22
1, 42360, Note_on_c, 0, 63, 0
1, 42360, Note_on_c, 0, 54, 22
1, 42480, Tempo, 1348315
1, 42480, Note_on_c, 0, 54, 0
1, 42480, Note_on_c, 0, 70, 0
1, 42480, Note_on_c, 0, 49, 27
1, 42600, Tempo, 1250000
1, 42600, Note_on_c, 0, 49, 0
1, 42600, Note_on_c, 0, 84, 50
1, 42600, Note_on_c, 0, 66, 22
1, 42700, Tempo, 1333333
1, 42720, Tempo, 1250000
1, 42720, Note_on_c, 0, 66, 0
1, 42720, Note_on_c, 0, 84, 0
1, 42720, Note_on_c, 0, 82, 52
1, 42720, Note_on_c, 0, 58, 22
1, 42780, Tempo, 1263158
1, 42840, Tempo, 1276596
1, 42840, Note_on_c, 0, 58, 0
1, 42840, Note_on_c, 0, 82, 0
1, 42840, Note_on_c, 0, 77, 46
1, 42840, Note_on_c, 0, 66, 22
1, 42900, Tempo, 1290323
1, 42960, Tempo, 1304348
1, 42960, Note_on_c, 0, 66, 0
1, 42960, Note_on_c, 0, 77, 0
1, 42960, Note_on_c, 0, 80, 50
1, 42960, Note_on_c, 0, 63, 24
1, 43020, Tempo, 1318681
1, 43080, Tempo, 1333333
1, 43080, Note_on_c, 0, 63, 0
1, 43080, Note_on_c, 0, 80, 0
1, 43080, Note_on_c, 0, 78, 45
1, 43080, Note_on_c, 0, 54, 22
1, 43140, Tempo, 1348315
1, 43180, Tempo, 1363636
1, 43200, Tempo, 1333333
1, 43200, Note_on_c, 0, 54, 0
1, 43200, Note_on_c, 0, 78, 0
1, 43200, Note_on_c, 0, 77, 51
1, 43200, Note_on_c, 0, 48, 27
1, 43218, Control_c, 0, 64, 0
1, 43235, Control_c, 0, 64, 127
1, 43240, Tempo, 1318681
1, 43280, Tempo, 1304348
1, 43300, Tempo, 1290323
1, 43320, Note_on_c, 0, 48, 0
1, 43320, Note_on_c, 0, 66, 22
1, 43340, Tempo, 1276596
1, 43380, Tempo, 1263158
1, 43420, Tempo, 1250000
1, 43440, Tempo, 1212121
1, 43440, Note_on_c, 0, 66, 0
1, 43440, Note_on_c, 0, 57, 22
1, 43560, Note_on_c, 0, 57, 0
1, 43560, Note_on_c, 0, 66, 22
1, 43680, Note_on_c, 0, 66, 0
1, 43680, Note_on_c, 0, 77, 0
1, 43680, Note_on_c, 0, 75, 52
1, 43680, Note_on_c, 0, 63, 21
1, 43800, Note_on_c, 0, 63, 0
1, 43800, Note_on_c, 0, 54, 21
1, 43920, Tempo, 1212121
1, 43920, Note_on_c, 0, 54, 0
1, 43920, Note_on_c, 0, 46, 28
1, 43937, Control_c, 0, 64, 0
1, 43960, Tempo, 1224490
1, 43980, Tempo, 1237113
1, 44000, Tempo, 1250000
1, 44000, Control_c, 0, 64, 127
1, 44040, Tempo, 1263158
1, 44040, Note_on_c, 0, 46, 0
1, 44040, Note_on_c, 0, 74, 57
1, 44040, Note_on_c, 0, 66, 23
1, 44060, Tempo, 1276596
1, 44080, Tempo, 1290323
1, 44100, Tempo, 1304348
1, 44100, Note_on_c, 0, 75, 0
1, 44160, Tempo, 1318681
1, 44160, Note_on_c, 0, 66, 0
1, 44160, Note_on_c, 0, 74, 0
1, 44160, Note_on_c, 0, 75, 57
1, 44160, Note_on_c, 0, 58, 25
1, 44280, Note_on_c, 0, 58, 0
1, 44280, Note_on_c, 0, 75, 0
1, 44280, Note_on_c, 0, 76, 57
1, 44280, Note_on_c, 0, 66, 27
1, 44400, Tempo, 1250000
1, 44400, Note_on_c, 0, 66, 0
1, 44400, Note_on_c, 0, 76, 0
1, 44400, Note_on_c, 0, 77, 62
1, 44400, Note_on_c, 0, 63, 28
1, 44420, Tempo, 1318681
1, 44460, Tempo, 1333333
1, 44480, Tempo, 1348315
1, 44520, Tempo, 1363636
1, 44520, Note_on_c, 0, 63, 0
1, 44520, Note_on_c, 0, 54, 30
1, 44540, Tempo, 1379310
1, 44560, Tempo, 1395349
1, 44580, Note_on_c, 0, 77, 0
1, 44580, Note_on_c, 0, 78, 51
1, 44610, Note_on_c, 0, 78, 0
1, 44610, Note_on_c, 0, 78, 51
1, 44612, Tempo, 1714286
1, 44640, Tempo, 1238646
1, 44640, Note_on_c, 0, 78, 0
1, 44640, Note_on_c, 0, 54, 0
1, 44640, Note_on_c, 0, 90, 71
1, 44640, Note_on_c, 0, 45, 34
1, 44653, Control_c, 0, 64, 0
1, 44695, Control_c, 0, 64, 127
1, 44760, Note_on_c, 0, 45, 0
1, 44760, Note_on_c, 0, 66, 24
1, 44880, Note_on_c, 0, 66, 0
1, 44880, Note_on_c, 0, 57, 23
1, 44960, Note_on_c, 0, 90, 0
1, 44960, Note_on_c, 0, 87, 65
1, 45000, Note_on_c, 0, 57, 0
1, 45000, Note_on_c, 0, 66, 22
1, 45040, Note_on_c, 0, 87, 0
1, 45040, Note_on_c, 0, 85, 62
1, 45060, Tempo, 1153846
1, 45120, Tempo, 1153846
1, 45120, Note_on_c, 0, 85, 0
1, 45120, Note_on_c, 0, 66, 0
1, 45120, Note_on_c, 0, 81, 60
1, 45120, Note_on_c, 0, 61, 22
1, 45200, Note_on_c, 0, 81, 0
1, 45200, Note_on_c, 0, 78, 58
1, 45240, Note_on_c, 0, 61, 0
1, 45240, Note_on_c, 0, 51, 21
1, 45280, Note_on_c, 0, 78, 0
1, 45280, Note_on_c, 0, 75, 55
1, 45360, Tempo, 1212121
1, 45360, Note_on_c, 0, 75, 0
1, 45360, Note_on_c, 0, 51, 0
1, 45360, Note_on_c, 0, 72, 47
1, 45360, Note_on_c, 0, 44, 27
1, 45378, Control_c, 0, 64, 0
1, 45425, Control_c, 0, 64, 127
1, 45480, Tempo, 1261830
1, 45480, Note_on_c, 0, 44, 0
1, 45480, Note_on_c, 0, 72, 0
1, 45480, Note_on_c, 0, 66, 22
1, 45540, Note_on_c, 0, 68, 49
1, 45600, Tempo, 1290323
1, 45600, Note_on_c, 0, 68, 0
1, 45600, Note_on_c, 0, 66, 0
1, 45600, Note_on_c, 0, 75, 50
1, 45600, Note_on_c, 0, 56, 22
1, 45640, Note_on_c, 0, 75, 0
1, 45640, Note_on_c, 0, 84, 50
1, 45680, Note_on_c, 0, 84, 0
1, 45680, Note_on_c, 0, 69, 48
1, 45720, Note_on_c, 0, 69, 0
1, 45720, Note_on_c, 0, 56, 0
1, 45720, Note_on_c, 0, 76, 52
1, 45720, Note_on_c, 0, 66, 24
1, 45760, Note_on_c, 0, 76, 0
1, 45760, Note_on_c, 0, 85, 53
1, 45800, Note_on_c, 0, 85, 0
1, 45800, Note_on_c, 0, 70, 50
1, 45820, Tempo, 1290323
1, 45840, Note_on_c, 0, 70, 0
1, 45840, Note_on_c, 0, 66, 0
1, 45840, Note_on_c, 0, 77, 54
1, 45840, Note_on_c, 0, 60, 26
1, 45880, Note_on_c, 0, 77, 0
1, 45880, Note_on_c, 0, 86, 55
1, 45900, Tempo, 1304348
1, 45904, Tempo, 1304348
1, 45920, Tempo, 1318681
1, 45920, Note_on_c, 0, 86, 0
1, 45920, Note_on_c, 0, 71, 53
1, 45932, Tempo, 1348315
1, 45944, Tempo, 1379310
1, 45960, Tempo, 1411765
1, 45960, Note_on_c, 0, 71, 0
1, 45960, Note_on_c, 0, 60, 0
1, 45960, Note_on_c, 0, 78, 56
1, 45960, Note_on_c, 0, 51, 27
1, 45972, Tempo, 1428571
1, 45984, Tempo, 1463415
1, 46000, Tempo, 1500000
1, 46000, Note_on_c, 0, 78, 0
1, 46000, Note_on_c, 0, 87, 57
1, 46012, Tempo, 1538462
1, 46024, Tempo, 1578947
1, 46040, Tempo, 1621622
1, 46040, Note_on_c, 0, 87, 0
1, 46040, Note_on_c, 0, 72, 54
1, 46080, Tempo, 1290323
1, 46080, Note_on_c, 0, 72, 0
1, 46080, Note_on_c, 0, 51, 0
1, 46080, Note_on_c, 0, 88, 64
1, 46080, Note_on_c, 0, 79, 54
1, 46080, Note_on_c, 0, 37, 28
1, 46090, Control_c, 0, 64, 0
1, 46126, Control_c, 0, 64, 127
1, 46200, Tempo, 1142857
1, 46200, Note_on_c, 0, 37, 0
1, 46200, Note_on_c, 0, 68, 24
1, 46320, Tempo, 1237113
1, 46320, Note_on_c, 0, 68, 0
1, 46320, Note_on_c, 0, 56, 24
1, 46440, Note_on_c, 0, 56, 0
1, 46440, Note_on_c, 0, 79, 0
1, 46440, Note_on_c, 0, 88, 0
1, 46440, Note_on_c, 0, 89, 58
1, 46440, Note_on_c, 0, 80, 49
1, 46440, Note_on_c, 0, 68, 24
1, 46560, Note_on_c, 0, 68, 0
1, 46560, Note_on_c, 0, 80, 0
1, 46560, Note_on_c, 0, 89, 0
1, 46560, Note_on_c, 0, 89, 57
1, 46560, Note_on_c, 0, 80, 48
1, 46560, Note_on_c, 0, 61, 24
1, 46640, Note_on_c, 0, 80, 0
1, 46640, Note_on_c, 0, 89, 0
1, 46640, Note_on_c, 0, 90, 61
1, 46640, Note_on_c, 0, 82, 51
1, 46680, Note_on_c, 0, 82, 0
1, 46680, Note_on_c, 0, 90, 0
1, 46680, Note_on_c, 0, 61, 0
1, 46680, Note_on_c, 0, 53, 24
1, 46740, Tempo, 1318681
1, 46760, Note_on_c, 0, 80, 45
1, 46760, Note_on_c, 0, 89, 54
1, 46800, Note_on_c, 0, 89, 0
1, 46800, Note_on_c, 0, 80, 0
1, 46800, Note_on_c, 0, 53, 0
1, 46800, Note_on_c, 0, 89, 58
1, 46800, Note_on_c, 0, 80, 49
1, 46800, Note_on_c, 0, 49, 28
1, 46811, Control_c, 0, 64, 0
1, 46860, Note_on_c, 0, 80, 0
1, 46860, Note_on_c, 0, 89, 0
1, 46860, Note_on_c, 0, 85, 54
1, 46860, Note_on_c, 0, 77, 45
1, 46871, Control_c, 0, 64, 127
1, 46920, Tempo, 1290323
1, 46920, Note_on_c, 0, 49, 0
1, 46920, Note_on_c, 0, 65, 24
1, 46960, Tempo, 1276596
1, 46980, Tempo, 1263158
1, 47020, Tempo, 1250000
1, 47040, Tempo, 1237113
1, 47040, Note_on_c, 0, 65, 0
1, 47040, Note_on_c, 0, 56, 24
1, 47080, Tempo, 1224490
1, 47100, Tempo, 1212121
1, 47140, Tempo, 1200000
1, 47160, Tempo, 1188119
1, 47160, Note_on_c, 0, 56, 0
1, 47160, Note_on_c, 0, 65, 25
1, 47260, Tempo, 1188119
1, 47280, Note_on_c, 0, 65, 0
1, 47280, Note_on_c, 0, 61, 25
1, 47300, Tempo, 1200000
1, 47320, Tempo, 1212121
1, 47340, Tempo, 1224490
1, 47360, Tempo, 1237113
1, 47380, Tempo, 1250000
1, 47400, Note_on_c, 0, 61, 0
1, 47400, Note_on_c, 0, 56, 25
1, 47420, Tempo, 1263158
1, 47440, Tempo, 1276596
1, 47460, Tempo, 1290323
1, 47480, Tempo, 1304348
1, 47500, Tempo, 1318681
1, 47520, Tempo, 1333333
1, 47520, Note_on_c, 0, 56, 0
1, 47520, Note_on_c, 0, 77, 0
1, 47520, Note_on_c, 0, 85, 0
1, 47520, Note_on_c, 0, 85, 60
1, 47520, Note_on_c, 0, 76, 51
1, 47520, Note_on_c, 0, 49, 29
1, 47532, Control_c, 0, 64, 0
1, 47540, Tempo, 1318681
1, 47560, Tempo, 1304348
1, 47562, Control_c, 0, 64, 127
1, 47580, Tempo, 1276596
1, 47600, Tempo, 1263158
1, 47620, Tempo, 1250000
1, 47640, Tempo, 1224490
1, 47640, Note_on_c, 0, 49, 0
1, 47640, Note_on_c, 0, 64, 27
1, 47660, Tempo, 1212121
1, 47680, Tempo, 1188119
1, 47760, Note_on_c, 0, 64, 0
1, 47760, Note_on_c, 0, 76, 0
1, 47760, Note_on_c, 0, 85, 0
1, 47760, Note_on_c, 0, 86, 57
1, 47760, Note_on_c, 0, 78, 48
1, 47760, Note_on_c, 0, 52, 26
1, 47880, Note_on_c, 0, 52, 0
1, 47880, Note_on_c, 0, 64, 26
1, 48000, Note_on_c, 0, 64, 0
1, 48000, Note_on_c, 0, 78, 0
1, 48000, Note_on_c, 0, 86, 0
1, 48000, Note_on_c, 0, 81, 54
1, 48000, Note_on_c, 0, 73, 45
1, 48000, Note_on_c, 0, 57, 26
1, 48120, Note_on_c, 0, 57, 0
1, 48120, Note_on_c, 0, 52, 26
1, 48240, Tempo, 1200000
1, 48240, Note_on_c, 0, 52, 0
1, 48240, Note_on_c, 0, 73, 0
1, 48240, Note_on_c, 0, 81, 0
1, 48240, Note_on_c, 0, 85, 61
1, 48240, Note_on_c, 0, 76, 61
1, 48240, Note_on_c, 0, 50, 23
1, 48258, Control_c, 0, 64, 0
1, 48295, Control_c, 0, 64, 127
1, 48360, Tempo, 1142857
1, 48360, Note_on_c, 0, 50, 0
1, 48360, Note_on_c, 0, 76, 0
1, 48360, Note_on_c, 0, 85, 0
1, 48360, Note_on_c, 0, 74, 43
1, 48360, Note_on_c, 0, 83, 51
1, 48360, Note_on_c, 0, 64, 24
1, 48390, Note_on_c, 0, 83, 0
1, 48390, Note_on_c, 0, 74, 0
1, 48390, Note_on_c, 0, 76, 51
1, 48390, Note_on_c, 0, 85, 51
1, 48420, Note_on_c, 0, 85, 0
1, 48420, Note_on_c, 0, 76, 0
1, 48420, Note_on_c, 0, 74, 45
1, 48420, Note_on_c, 0, 83, 54
1, 48480, Note_on_c, 0, 83, 0
1, 48480, Note_on_c, 0, 74, 0
1, 48480, Note_on_c, 0, 64, 0
1, 48480, Note_on_c, 0, 82, 54
1, 48480, Note_on_c, 0, 73, 45
1, 48480, Note_on_c, 0, 52, 25
1, 48600, Note_on_c, 0, 52, 0
1, 48600, Note_on_c, 0, 73, 0
1, 48600, Note_on_c, 0, 82, 0
1, 48600, Note_on_c, 0, 74, 48
1, 48600, Note_on_c, 0, 83, 57
1, 48600, Note_on_c, 0, 64, 26
1, 48700, Tempo, 1142857
1, 48720, Tempo, 1153846
1, 48720, Note_on_c, 0, 64, 0
1, 48720, Note_on_c, 0, 83, 0
1, 48720, Note_on_c, 0, 74, 0
1, 48720, Note_on_c, 0, 85, 60
1, 48720, Note_on_c, 0, 76, 51
1, 48720, Note_on_c, 0, 56, 27
1, 48740, Tempo, 1165049
1, 48760, Tempo, 1176471
1, 48780, Tempo, 1188119
1, 48780, Note_on_c, 0, 76, 0
1, 48780, Note_on_c, 0, 85, 0
1, 48800, Tempo, 1200000
1, 48820, Tempo, 1212121
1, 48840, Tempo, 1224490
1, 48840, Note_on_c, 0, 56, 0
1, 48840, Note_on_c, 0, 52, 28
1, 48860, Tempo, 1237113
1, 48880, Tempo, 1250000
1, 48900, Tempo, 1263158
1, 48900, Note_on_c, 0, 71, 45
1, 48900, Note_on_c, 0, 80, 54
1, 48920, Tempo, 1290323
1, 48940, Tempo, 1348315
1, 48960, Tempo, 1333333
1, 48960, Note_on_c, 0, 80, 0
1, 48960, Note_on_c, 0, 71, 0
1, 48960, Note_on_c, 0, 52, 0
1, 48960, Note_on_c, 0, 74, 54
1, 48960, Note_on_c, 0, 83, 64
1, 48960, Note_on_c, 0, 49, 31
1, 48975, Control_c, 0, 64, 0
1, 48980, Tempo, 1304348
1, 49000, Tempo, 1276596
1, 49015, Control_c, 0, 64, 127
1, 49020, Tempo, 1263158
1, 49040, Tempo, 1237113
1, 49060, Tempo, 1212121
1, 49080, Tempo, 1188119
1, 49080, Note_on_c, 0, 49, 0
1, 49080, Note_on_c, 0, 83, 0
1, 49080, Note_on_c, 0, 74, 0
1, 49080, Note_on_c, 0, 64, 29
1, 49200, Note_on_c, 0, 64, 0
1, 49200, Note_on_c, 0, 52, 29
1, 49320, Note_on_c, 0, 52, 0
1, 49320, Note_on_c, 0, 81, 61
1, 49320, Note_on_c, 0, 73, 51
1, 49320, Note_on_c, 0, 64, 29
1, 49380, Tempo, 1276596
1, 49440, Note_on_c, 0, 64, 0
1, 49440, Note_on_c, 0, 73, 0
1, 49440, Note_on_c, 0, 81, 0
1, 49440, Note_on_c, 0, 73, 51
1, 49440, Note_on_c, 0, 81, 61
1, 49440, Note_on_c, 0, 57, 29
1, 49480, Note_on_c, 0, 81, 0
1, 49480, Note_on_c, 0, 73, 0
1, 49520, Note_on_c, 0, 73, 50
1, 49520, Note_on_c, 0, 80, 59
1, 49560, Note_on_c, 0, 80, 0
1, 49560, Note_on_c, 0, 73, 0
1, 49560, Note_on_c, 0, 57, 0
1, 49560, Note_on_c, 0, 52, 29
1, 49600, Note_on_c, 0, 73, 50
1, 49600, Note_on_c, 0, 78, 59
1, 49640, Note_on_c, 0, 78, 0
1, 49640, Note_on_c, 0, 73, 0
1, 49660, Tempo, 1263158
1, 49680, Note_on_c, 0, 52, 0
1, 49680, Note_on_c, 0, 74, 51
1, 49680, Note_on_c, 0, 76, 61
1, 49680, Note_on_c, 0, 44, 34
1, 49694, Control_c, 0, 64, 0
1, 49700, Tempo, 1250000
1, 49720, Tempo, 1237113
1, 49720, Control_c, 0, 64, 127
1, 49760, Tempo, 1224490
1, 49780, Tempo, 1212121
1, 49800, Note_on_c, 0, 44, 0
1, 49800, Note_on_c, 0, 64, 26
1, 49920, Note_on_c, 0, 64, 0
1, 49920, Note_on_c, 0, 52, 28
1, 50020, Tempo, 1224490
1, 50040, Note_on_c, 0, 52, 0
1, 50040, Note_on_c, 0, 76, 0
1, 50040, Note_on_c, 0, 74, 0
1, 50040, Note_on_c, 0, 70, 49
1, 50040, Note_on_c, 0, 76, 58
1, 50040, Note_on_c, 0, 64, 30
1, 50100, Note_on_c, 0, 76, 0
1, 50100, Note_on_c, 0, 70, 0
1, 50120, Tempo, 1237113
1, 50160, Note_on_c, 0, 64, 0
1, 50160, Note_on_c, 0, 71, 52
1, 50160, Note_on_c, 0, 76, 61
1, 50160, Note_on_c, 0, 62, 32
1, 50220, Tempo, 1250000
1, 50220, Note_on_c, 0, 76, 0
1, 50220, Note_on_c, 0, 71, 0
1, 50280, Note_on_c, 0, 62, 0
1, 50280, Note_on_c, 0, 72, 55
1, 50280, Note_on_c, 0, 76, 66
1, 50280, Note_on_c, 0, 52, 34
1, 50320, Tempo, 1263158
1, 50340, Note_on_c, 0, 76, 0
1, 50340, Note_on_c, 0, 72, 0
1, 50400, Tempo, 1276596
1, 50400, Note_on_c, 0, 52, 0
1, 50400, Note_on_c, 0, 73, 59
1, 50400, Note_on_c, 0, 76, 67
1, 50400, Note_on_c, 0, 45, 40
1, 50412, Control_c, 0, 64, 0
1, 50455, Control_c, 0, 64, 127
1, 50520, Note_on_c, 0, 45, 0
1, 50520, Note_on_c, 0, 64, 32
1, 50640, Tempo, 1188119
1, 50640, Note_on_c, 0, 64, 0
1, 50640, Note_on_c, 0, 52, 32
1, 50760, Note_on_c, 0, 52, 0
1, 50760, Note_on_c, 0, 64, 32
1, 50880, Tempo, 1153846
1, 50880, Note_on_c, 0, 64, 0
1, 50880, Note_on_c, 0, 76, 0
1, 50880, Note_on_c, 0, 73, 0
1, 50880, Note_on_c, 0, 74, 55
1, 50880, Note_on_c, 0, 78, 61
1, 50880, Note_on_c, 0, 61, 32
1, 51000, Tempo, 1276596
1, 51000, Note_on_c, 0, 61, 0
1, 51000, Note_on_c, 0, 78, 0
1, 51000, Note_on_c, 0, 74, 0
1, 51000, Note_on_c, 0, 69, 55
1, 51000, Note_on_c, 0, 73, 65
1, 51000, Note_on_c, 0, 52, 32
1, 51120, Tempo, 1237113
1, 51120, Note_on_c, 0, 52, 0
1, 51120, Note_on_c, 0, 73, 0
1, 51120, Note_on_c, 0, 69, 0
1, 51120, Note_on_c, 0, 68, 50
1, 51120, Note_on_c, 0, 73, 59
1, 51120, Note_on_c, 0, 40, 40
1, 51136, Control_c, 0, 64, 0
1, 51180, Note_on_c, 0, 73, 0
1, 51180, Note_on_c, 0, 68, 0
1, 51180, Note_on_c, 0, 73, 56
1, 51180, Note_on_c, 0, 76, 66
1, 51185, Control_c, 0, 64, 127
1, 51240, Note_on_c, 0, 40, 0
1, 51240, Note_on_c, 0, 64, 34
1, 51300, Note_on_c, 0, 76, 0
1, 51300, Note_on_c, 0, 73, 0
1, 51300, Note_on_c, 0, 74, 60
1, 51300, Note_on_c, 0, 71, 51
1, 51360, Tempo, 1445783
1, 51360, Note_on_c, 0, 71, 0
1, 51360, Note_on_c, 0, 74, 0
1, 51360, Note_on_c, 0, 64, 0
1, 51360, Note_on_c, 0, 74, 58
1, 51360, Note_on_c, 0, 71, 58
1, 51360, Note_on_c, 0, 56, 35
1, 51380, Note_on_c, 0, 71, 0
1, 51380, Note_on_c, 0, 74, 0
1, 51380, Note_on_c, 0, 76, 52
1, 51380, Note_on_c, 0, 73, 52
1, 51400, Note_on_c, 0, 73, 0
1, 51400, Note_on_c, 0, 76, 0
1, 51400, Note_on_c, 0, 74, 57
1, 51400, Note_on_c, 0, 71, 57
1, 51440, Tempo, 1212121
1, 51440, Note_on_c, 0, 71, 0
1, 51440, Note_on_c, 0, 74, 0
1, 51440, Note_on_c, 0, 70, 50
1, 51440, Note_on_c, 0, 73, 59
1, 51480, Note_on_c, 0, 56, 0
1, 51480, Note_on_c, 0, 64, 35
1, 51520, Note_on_c, 0, 73, 0
1, 51520, Note_on_c, 0, 70, 0
1, 51520, Note_on_c, 0, 71, 51
1, 51520, Note_on_c, 0, 74, 60
1, 51600, Tempo, 1250260
1, 51600, Note_on_c, 0, 74, 0
1, 51600, Note_on_c, 0, 71, 0
1, 51600, Note_on_c, 0, 64, 0
1, 51600, Note_on_c, 0, 71, 52
1, 51600, Note_on_c, 0, 74, 61
1, 51600, Note_on_c, 0, 62, 35
1, 51640, Tempo, 1261830
1, 51660, Tempo, 1273885
1, 51680, Note_on_c, 0, 74, 0
1, 51680, Note_on_c, 0, 71, 0
1, 51680, Note_on_c, 0, 73, 54
1, 51680, Note_on_c, 0, 76, 63
1, 51700, Tempo, 1285898
1, 51720, Tempo, 1298701
1, 51720, Note_on_c, 0, 73, 0
1, 51720, Note_on_c, 0, 62, 0
1, 51720, Note_on_c, 0, 52, 35
1, 51760, Note_on_c, 0, 76, 0
1, 51800, Note_on_c, 0, 68, 55
1, 51800, Note_on_c, 0, 71, 65
1, 51840, Tempo, 1333333
1, 51840, Note_on_c, 0, 71, 0
1, 51840, Note_on_c, 0, 68, 0
1, 51840, Note_on_c, 0, 52, 0
1, 51840, Note_on_c, 0, 74, 62
1, 51840, Note_on_c, 0, 71, 53
1, 51840, Note_on_c, 0, 45, 50
1, 51853, Control_c, 0, 64, 0
1, 51895, Control_c, 0, 64, 127
1, 51900, Tempo, 1237113
1, 51960, Note_on_c, 0, 45, 0
1, 51960, Note_on_c, 0, 64, 39
1, 52080, Tempo, 1188119
1, 52080, Note_on_c, 0, 64, 0
1, 52080, Note_on_c, 0, 71, 0
1, 52080, Note_on_c, 0, 74, 0
1, 52080, Note_on_c, 0, 73, 62
1, 52080, Note_on_c, 0, 69, 53
1, 52080, Note_on_c, 0, 57, 39
1, 52200, Note_on_c, 0, 57, 0
1, 52200, Note_on_c, 0, 64, 39
1, 52320, Note_on_c, 0, 64, 0
1, 52320, Note_on_c, 0, 69, 0
1, 52320, Note_on_c, 0, 73, 0
1, 52320, Note_on_c, 0, 73, 59
1, 52320, Note_on_c, 0, 81, 70
1, 52320, Note_on_c, 0, 61, 39
1, 52440, Tempo, 1276596
1, 52440, Note_on_c, 0, 61, 0
1, 52440, Note_on_c, 0, 52, 39
1, 52560, Note_on_c, 0, 52, 0
1, 52560, Note_on_c, 0, 39, 65
1, 52578, Control_c, 0, 64, 0
1, 52625, Control_c, 0, 64, 127
1, 52680, Tempo, 1200000
1, 52680, Note_on_c, 0, 39, 0
1, 52680, Note_on_c, 0, 66, 40
1, 52780, Tempo, 1224490
1, 52800, Note_on_c, 0, 66, 0
1, 52800, Note_on_c, 0, 81, 0
1, 52800, Note_on_c, 0, 73, 0
1, 52800, Note_on_c, 0, 73, 59
1, 52800, Note_on_c, 0, 81, 70
1, 52800, Note_on_c, 0, 57, 42
1, 52820, Tempo, 1165049
1, 52860, Tempo, 1176471
1, 52920, Note_on_c, 0, 57, 0
1, 52920, Note_on_c, 0, 66, 44
1, 53040, Tempo, 1153846
1, 53040, Note_on_c, 0, 66, 0
1, 53040, Note_on_c, 0, 81, 0
1, 53040, Note_on_c, 0, 73, 0
1, 53040, Note_on_c, 0, 81, 76
1, 53040, Note_on_c, 0, 73, 64
1, 53040, Note_on_c, 0, 61, 46
1, 53080, Tempo, 1165049
1, 53100, Tempo, 1176471
1, 53120, Tempo, 1188119
1, 53140, Tempo, 1200000
1, 53160, Tempo, 1212121
1, 53160, Note_on_c, 0, 61, 0
1, 53160, Note_on_c, 0, 51, 48
1, 53180, Tempo, 1224490
1, 53200, Tempo, 1237113
1, 53220, Tempo, 1250000
1, 53240, Tempo, 1263158
1, 53260, Tempo, 1276596
1, 53280, Tempo, 1333333
1, 53280, Note_on_c, 0, 51, 0
1, 53280, Note_on_c, 0, 73, 0
1, 53280, Note_on_c, 0, 81, 0
1, 53280, Note_on_c, 0, 73, 63
1, 53280, Note_on_c, 0, 80, 75
1, 53280, Note_on_c, 0, 44, 50
1, 53293, Control_c, 0, 64, 0
1, 53335, Control_c, 0, 64, 127
1, 53340, Tempo, 1237113
1, 53400, Note_on_c, 0, 44, 0
1, 53400, Note_on_c, 0, 66, 39
1, 53520, Tempo, 1188119
1, 53520, Note_on_c, 0, 66, 0
1, 53520, Note_on_c, 0, 80, 0
1, 53520, Note_on_c, 0, 81, 74
1, 53520, Note_on_c, 0, 56, 39
1, 53640, Note_on_c, 0, 56, 0
1, 53640, Note_on_c, 0, 66, 39
1, 53760, Note_on_c, 0, 66, 0
1, 53760, Note_on_c, 0, 61, 39
1, 53880, Tempo, 1276596
1, 53880, Note_on_c, 0, 61, 0
1, 53880, Note_on_c, 0, 81, 0
1, 53880, Note_on_c, 0, 80, 75
1, 53880, Note_on_c, 0, 51, 39
1, 54000, Note_on_c, 0, 51, 0
1, 54000, Note_on_c, 0, 80, 0
1, 54000, Note_on_c, 0, 78, 73
1, 54000, Note_on_c, 0, 44, 63
1, 54018, Control_c, 0, 64, 0
1, 54065, Control_c, 0, 64, 127
1, 54080, Note_on_c, 0, 73, 0
1, 54080, Note_on_c, 0, 75, 72
1, 54120, Tempo, 1276596
1, 54120, Note_on_c, 0, 44, 0
1, 54120, Note_on_c, 0, 66, 40
1, 54160, Note_on_c, 0, 75, 0
1, 54160, Note_on_c, 0, 73, 70
1, 54220, Tempo, 1224490
1, 54240, Note_on_c, 0, 73, 0
1, 54240, Note_on_c, 0, 66, 0
1, 54240, Note_on_c, 0, 72, 70
1, 54240, Note_on_c, 0, 56, 42
1, 54260, Tempo, 1237113
1, 54300, Tempo, 1224490
1, 54320, Note_on_c, 0, 78, 0
1, 54320, Note_on_c, 0, 76, 70
1, 54340, Tempo, 1212121
1, 54360, Tempo, 1200000
1, 54360, Note_on_c, 0, 56, 0
1, 54360, Note_on_c, 0, 66, 44
1, 54400, Tempo, 1188119
1, 54400, Note_on_c, 0, 76, 0
1, 54400, Note_on_c, 0, 78, 75
1, 54420, Tempo, 1176471
1, 54460, Tempo, 1165049
1, 54480, Tempo, 1153846
1, 54480, Note_on_c, 0, 78, 0
1, 54480, Note_on_c, 0, 66, 0
1, 54480, Note_on_c, 0, 80, 75
1, 54480, Note_on_c, 0, 60, 46
1, 54520, Tempo, 1165049
1, 54540, Tempo, 1176471
1, 54540, Note_on_c, 0, 80, 0
1, 54560, Tempo, 1188119
1, 54580, Tempo, 1200000
1, 54600, Tempo, 1212121
1, 54600, Note_on_c, 0, 60, 0
1, 54600, Note_on_c, 0, 72, 0
1, 54600, Note_on_c, 0, 51, 48
1, 54660, Note_on_c, 0, 72, 61
1, 54660, Note_on_c, 0, 75, 72
1, 54720, Tempo, 1333333
1, 54720, Note_on_c, 0, 75, 0
1, 54720, Note_on_c, 0, 72, 0
1, 54720, Note_on_c, 0, 51, 0
1, 54720, Note_on_c, 0, 75, 64
1, 54720, Note_on_c, 0, 78, 76
1, 54720, Note_on_c, 0, 44, 50
1, 54732, Control_c, 0, 64, 0
1, 54775, Control_c, 0, 64, 127
1, 54780, Tempo, 1237113
1, 54840, Note_on_c, 0, 44, 0
1, 54840, Note_on_c, 0, 64, 39
1, 54960, Tempo, 1188119
1, 54960, Note_on_c, 0, 64, 0
1, 54960, Note_on_c, 0, 56, 39
1, 55040, Note_on_c, 0, 78, 0
1, 55040, Note_on_c, 0, 75, 0
1, 55040, Note_on_c, 0, 73, 62
1, 55040, Note_on_c, 0, 76, 73
1, 55080, Note_on_c, 0, 76, 0
1, 55080, Note_on_c, 0, 73, 0
1, 55080, Note_on_c, 0, 56, 0
1, 55080, Note_on_c, 0, 64, 39
1, 55140, Tempo, 1276596
1, 55160, Note_on_c, 0, 76, 62
1, 55160, Note_on_c, 0, 85, 73
1, 55200, Tempo, 1200000
1, 55200, Note_on_c, 0, 85, 0
1, 55200, Note_on_c, 0, 76, 0
1, 55200, Note_on_c, 0, 64, 0
1, 55200, Note_on_c, 0, 76, 63
1, 55200, Note_on_c, 0, 85, 75
1, 55200, Note_on_c, 0, 61, 39
1, 55280, Note_on_c, 0, 85, 0
1, 55280, Note_on_c, 0, 76, 0
1, 55280, Note_on_c, 0, 80, 62
1, 55280, Note_on_c, 0, 83, 73
1, 55320, Tempo, 1276596
1, 55320, Note_on_c, 0, 61, 0
1, 55320, Note_on_c, 0, 52, 39
1, 55360, Note_on_c, 0, 83, 0
1, 55360, Note_on_c, 0, 80, 0
1, 55400, Note_on_c, 0, 78, 59
1, 55400, Note_on_c, 0, 81, 70
1, 55440, Note_on_c, 0, 81, 0
1, 55440, Note_on_c, 0, 78, 0
1, 55440, Note_on_c, 0, 52, 0
1, 55440, Note_on_c, 0, 76, 64
1, 55440, Note_on_c, 0, 80, 76
1, 55440, Note_on_c, 0, 32, 58
1, 55456, Control_c, 0, 64, 0
1, 55480, Note_on_c, 0, 80, 0
1, 55480, Note_on_c, 0, 76, 0
1, 55500, Tempo, 1224490
1, 55505, Control_c, 0, 64, 127
1, 55520, Tempo, 1176471
1, 55520, Note_on_c, 0, 68, 57
1, 55520, Note_on_c, 0, 80, 68
1, 55560, Note_on_c, 0, 80, 0
1, 55560, Note_on_c, 0, 68, 0
1, 55560, Note_on_c, 0, 32, 0
1, 55560, Note_on_c, 0, 64, 40
1, 55580, Tempo, 1188119
1, 55600, Note_on_c, 0, 69, 58
1, 55600, Note_on_c, 0, 80, 69
1, 55640, Tempo, 1200000
1, 55640, Note_on_c, 0, 80, 0
1, 55640, Note_on_c, 0, 69, 0
1, 55680, Note_on_c, 0, 64, 0
1, 55680, Note_on_c, 0, 70, 58
1, 55680, Note_on_c, 0, 80, 70
1, 55680, Note_on_c, 0, 56, 42
1, 55700, Tempo, 1212121
1, 55720, Note_on_c, 0, 80, 0
1, 55720, Note_on_c, 0, 70, 0
1, 55760, Tempo, 1224490
1, 55760, Note_on_c, 0, 71, 59
1, 55760, Note_on_c, 0, 80, 71
1, 55800, Note_on_c, 0, 80, 0
1, 55800, Note_on_c, 0, 71, 0
1, 55800, Note_on_c, 0, 56, 0
1, 55800, Note_on_c, 0, 64, 44
1, 55820, Tempo, 1237113
1, 55840, Note_on_c, 0, 72, 60
1, 55840, Note_on_c, 0, 80, 72
1, 55860, Tempo, 1290323
1, 55880, Note_on_c, 0, 80, 0
1, 55880, Note_on_c, 0, 72, 0
1, 55900, Tempo, 1237113
1, 55920, Tempo, 1250000
1, 55920, Note_on_c, 0, 64, 0
1, 55920, Note_on_c, 0, 73, 61
1, 55920, Note_on_c, 0, 80, 73
1, 55920, Note_on_c, 0, 61, 46
1, 55940, Tempo, 1276596
1, 55960, Tempo, 1304348
1, 55960, Note_on_c, 0, 80, 0
1, 55960, Note_on_c, 0, 73, 0
1, 55968, Note_on_c, 0, 74, 61
1, 55968, Note_on_c, 0, 80, 73
1, 55980, Tempo, 1333333
1, 56000, Tempo, 1348315
1, 56008, Note_on_c, 0, 80, 0
1, 56008, Note_on_c, 0, 74, 0
1, 56016, Note_on_c, 0, 75, 63
1, 56016, Note_on_c, 0, 80, 74
1, 56020, Tempo, 1379310
1, 56040, Tempo, 1411765
1, 56040, Note_on_c, 0, 61, 0
1, 56040, Note_on_c, 0, 52, 48
1, 56056, Note_on_c, 0, 80, 0
1, 56056, Note_on_c, 0, 75, 0
1, 56060, Tempo, 1445783
1, 56064, Note_on_c, 0, 76, 63
1, 56064, Note_on_c, 0, 80, 74
1, 56080, Tempo, 1463415
1, 56100, Tempo, 1500000
1, 56104, Note_on_c, 0, 80, 0
1, 56104, Note_on_c, 0, 76, 0
1, 56112, Note_on_c, 0, 77, 64
1, 56112, Note_on_c, 0, 80, 75
1, 56120, Tempo, 1538462
1, 56140, Tempo, 1578947
1, 56152, Note_on_c, 0, 80, 0
1, 56152, Note_on_c, 0, 77, 0
1, 56160, Tempo, 1333333
1, 56160, Note_on_c, 0, 52, 0
1, 56160, Note_on_c, 0, 80, 79
1, 56160, Note_on_c, 0, 78, 67
1, 56160, Note_on_c, 0, 44, 65
1, 56173, Control_c, 0, 64, 0
1, 56215, Control_c, 0, 64, 127
1, 56220, Tempo, 1237113
1, 56280, Note_on_c, 0, 44, 0
1, 56280, Note_on_c, 0, 63, 51
1, 56340, Tempo, 1153846
1, 56340, Note_on_c, 0, 78, 0
1, 56340, Note_on_c, 0, 80, 0
1, 56340, Note_on_c, 0, 83, 63
1, 56400, Tempo, 1188119
1, 56400, Note_on_c, 0, 83, 0
1, 56400, Note_on_c, 0, 63, 0
1, 56400, Note_on_c, 0, 81, 78
1, 56400, Note_on_c, 0, 78, 66
1, 56400, Note_on_c, 0, 54, 51
1, 56520, Note_on_c, 0, 54, 0
1, 56520, Note_on_c, 0, 63, 51
1, 56580, Tempo, 1276596
1, 56640, Tempo, 1200000
1, 56640, Note_on_c, 0, 63, 0
1, 56640, Note_on_c, 0, 78, 0
1, 56640, Note_on_c, 0, 81, 0
1, 56640, Note_on_c, 0, 80, 79
1, 56640, Note_on_c, 0, 78, 67
1, 56640, Note_on_c, 0, 60, 51
1, 56760, Tempo, 1263158
1, 56760, Note_on_c, 0, 60, 0
1, 56760, Note_on_c, 0, 51, 51
1, 56880, Note_on_c, 0, 51, 0
1, 56880, Note_on_c, 0, 78, 0
1, 56880, Note_on_c, 0, 80, 0
1, 56880, Note_on_c, 0, 87, 88
1, 56880, Note_on_c, 0, 78, 74
1, 56880, Note_on_c, 0, 32, 64
1, 56896, Control_c, 0, 64, 0
1, 56940, Tempo, 1224490
1, 56940, Note_on_c, 0, 78, 0
1, 56940, Note_on_c, 0, 87, 0
1, 56945, Control_c, 0, 64, 127
1, 56960, Tempo, 1176471
1, 57000, Note_on_c, 0, 32, 0
1, 57000, Note_on_c, 0, 63, 48
1, 57020, Tempo, 1188119
1, 57080, Tempo, 1200000
1, 57120, Note_on_c, 0, 63, 0
1, 57120, Note_on_c, 0, 76, 69
1, 57120, Note_on_c, 0, 80, 81
1, 57120, Note_on_c, 0, 54, 51
1, 57140, Tempo, 1212121
1, 57200, Tempo, 1224490
1, 57240, Note_on_c, 0, 54, 0
1, 57240, Note_on_c, 0, 63, 54
1, 57360, Note_on_c, 0, 63, 0
1, 57360, Note_on_c, 0, 80, 0
1, 57360, Note_on_c, 0, 76, 0
1, 57360, Note_on_c, 0, 75, 72
1, 57360, Note_on_c, 0, 80, 85
1, 57360, Note_on_c, 0, 60, 57
1, 57480, Tempo, 1276596
1, 57480, Note_on_c, 0, 60, 0
1, 57480, Note_on_c, 0, 51, 59
1, 57600, Tempo, 1333333
1, 57600, Note_on_c, 0, 51, 0
1, 57600, Note_on_c, 0, 80, 0
1, 57600, Note_on_c, 0, 75, 0
1, 57600, Note_on_c, 0, 75, 75
1, 57600, Note_on_c, 0, 80, 89
1, 57600, Note_on_c, 0, 45, 76
1, 57611, Control_c, 0, 64, 0
1, 57655, Control_c, 0, 64, 127
1, 57660, Tempo, 1237113
1, 57720, Note_on_c, 0, 45, 0
1, 57720, Note_on_c, 0, 63, 55
1, 57840, Tempo, 1188119
1, 57840, Note_on_c, 0, 63, 0
1, 57840, Note_on_c, 0, 54, 56
1, 57960, Note_on_c, 0, 54, 0
1, 57960, Note_on_c, 0, 63, 57
1, 58020, Tempo, 1276596
1, 58080, Tempo, 1200000
1, 58080, Note_on_c, 0, 63, 0
1, 58080, Note_on_c, 0, 80, 0
1, 58080, Note_on_c, 0, 78, 80
1, 58080, Note_on_c, 0, 60, 57
1, 58200, Tempo, 1276596
1, 58200, Note_on_c, 0, 60, 0
1, 58200, Note_on_c, 0, 51, 57
1, 58320, Note_on_c, 0, 51, 0
1, 58320, Note_on_c, 0, 78, 0
1, 58320, Note_on_c, 0, 75, 0
1, 58320, Note_on_c, 0, 33, 82
1, 58337, Control_c, 0, 64, 0
1, 58380, Tempo, 1224490
1, 58400, Tempo, 1176471
1, 58429, Control_c, 0, 64, 127
1, 58440, Note_on_c, 0, 33, 0
1, 58440, Note_on_c, 0, 63, 57
1, 58460, Tempo, 1188119
1, 58560, Note_on_c, 0, 63, 0
1, 58560, Note_on_c, 0, 72, 64
1, 58560, Note_on_c, 0, 75, 64
1, 58560, Note_on_c, 0, 78, 76
1, 58560, Note_on_c, 0, 54, 58
1, 58680, Note_on_c, 0, 54, 0
1, 58680, Note_on_c, 0, 63, 59
1, 58800, Tempo, 1176471
1, 58800, Note_on_c, 0, 63, 0
1, 58800, Note_on_c, 0, 78, 0
1, 58800, Note_on_c, 0, 75, 0
1, 58800, Note_on_c, 0, 72, 0
1, 58800, Note_on_c, 0, 71, 68
1, 58800, Note_on_c, 0, 75, 68
1, 58800, Note_on_c, 0, 78, 80
1, 58800, Note_on_c, 0, 59, 62
1, 58840, Tempo, 1188119
1, 58860, Tempo, 1200000
1, 58880, Tempo, 1212121
1, 58900, Tempo, 1224490
1, 58920, Note_on_c, 0, 59, 0
1, 58920, Note_on_c, 0, 51, 63
1, 58940, Tempo, 1237113
1, 58960, Tempo, 1250000
1, 58980, Tempo, 1263158
1, 59000, Tempo, 1276596
1, 59040, Tempo, 1333333
1, 59040, Note_on_c, 0, 51, 0
1, 59040, Note_on_c, 0, 78, 0
1, 59040, Note_on_c, 0, 75, 0
1, 59040, Note_on_c, 0, 71, 0
1, 59040, Note_on_c, 0, 70, 71
1, 59040, Note_on_c, 0, 75, 71
1, 59040, Note_on_c, 0, 78, 84
1, 59040, Note_on_c, 0, 46, 84
1, 59053, Control_c, 0, 64, 0
1, 59095, Control_c, 0, 64, 127
1, 59160, Tempo, 1224490
1, 59160, Note_on_c, 0, 46, 0
1, 59160, Note_on_c, 0, 70, 0
1, 59160, Note_on_c, 0, 75, 0
1, 59160, Note_on_c, 0, 78, 0
1, 59160, Note_on_c, 0, 63, 52
1, 59220, Note_on_c, 0, 78, 78
1, 59280, Tempo, 1188119
1, 59280, Note_on_c, 0, 78, 0
1, 59280, Note_on_c, 0, 63, 0
1, 59280, Note_on_c, 0, 90, 97
1, 59280, Note_on_c, 0, 54, 52
1, 59400, Note_on_c, 0, 54, 0
1, 59400, Note_on_c, 0, 63, 54
1, 59460, Tempo, 1276596
1, 59520, Tempo, 1200000
1, 59520, Note_on_c, 0, 63, 0
1, 59520, Note_on_c, 0, 58, 54
1, 59640, Tempo, 1276596
1, 59640, Note_on_c, 0, 58, 0
1, 59640, Note_on_c, 0, 51, 52
1, 59760, Tempo, 1121495
1, 59760, Note_on_c, 0, 51, 0
1, 59760, Note_on_c, 0, 34, 80
1, 59776, Control_c, 0, 64, 0
1, 59825, Control_c, 0, 64, 127
1, 59880, Note_on_c, 0, 34, 0
1, 59880, Note_on_c, 0, 90, 0
1, 59880, Note_on_c, 0, 86, 86
1, 59880, Note_on_c, 0, 63, 56
1, 60000, Tempo, 1121495
1, 60000, Note_on_c, 0, 63, 0
1, 60000, Note_on_c, 0, 86, 0
1, 60000, Note_on_c, 0, 87, 79
1, 60000, Note_on_c, 0, 54, 56
1, 60080, Tempo, 1132075
1, 60080, Note_on_c, 0, 87, 0
1, 60080, Note_on_c, 0, 81, 77
1, 60120, Note_on_c, 0, 54, 0
1, 60120, Note_on_c, 0, 63, 56
1, 60140, Tempo, 1142857
1, 60160, Note_on_c, 0, 81, 0
1, 60160, Note_on_c, 0, 82, 77
1, 60200, Tempo, 1153846
1, 60240, Note_on_c, 0, 82, 0
1, 60240, Note_on_c, 0, 63, 0
1, 60240, Note_on_c, 0, 77, 76
1, 60240, Note_on_c, 0, 58, 56
1, 60260, Tempo, 1165049
1, 60320, Note_on_c, 0, 77, 0
1, 60320, Note_on_c, 0, 78, 75
1, 60360, Note_on_c, 0, 58, 0
1, 60360, Note_on_c, 0, 51, 56
1, 60400, Note_on_c, 0, 78, 0
1, 60400, Note_on_c, 0, 74, 75
1, 60480, Tempo, 1333333
1, 60480, Note_on_c, 0, 74, 0
1, 60480, Note_on_c, 0, 51, 0
1, 60480, Note_on_c, 0, 69, 71
1, 60480, Note_on_c, 0, 75, 71
1, 60480, Note_on_c, 0, 78, 84
1, 60480, Note_on_c, 0, 47, 71
1, 60498, Control_c, 0, 64, 0
1, 60535, Control_c, 0, 64, 127
1, 60600, Tempo, 1224490
1, 60600, Note_on_c, 0, 47, 0
1, 60600, Note_on_c, 0, 69, 0
1, 60600, Note_on_c, 0, 75, 0
1, 60600, Note_on_c, 0, 78, 0
1, 60600, Note_on_c, 0, 63, 52
1, 60660, Note_on_c, 0, 78, 78
1, 60720, Tempo, 1188119
1, 60720, Note_on_c, 0, 78, 0
1, 60720, Note_on_c, 0, 63, 0
1, 60720, Note_on_c, 0, 90, 97
1, 60720, Note_on_c, 0, 54, 52
1, 60840, Note_on_c, 0, 54, 0
1, 60840, Note_on_c, 0, 63, 54
1, 60900, Tempo, 1276596
1, 60960, Tempo, 1200000
1, 60960, Note_on_c, 0, 63, 0
1, 60960, Note_on_c, 0, 57, 54
1, 61080, Tempo, 1276596
1, 61080, Note_on_c, 0, 57, 0
1, 61080, Note_on_c, 0, 51, 52
1, 61200, Tempo, 1121495
1, 61200, Note_on_c, 0, 51, 0
1, 61200, Note_on_c, 0, 35, 79
1, 61217, Control_c, 0, 64, 0
1, 61265, Control_c, 0, 64, 127
1, 61320, Note_on_c, 0, 35, 0
1, 61320, Note_on_c, 0, 90, 0
1, 61320, Note_on_c, 0, 86, 86
1, 61320, Note_on_c, 0, 63, 56
1, 61440, Tempo, 1121495
1, 61440, Note_on_c, 0, 63, 0
1, 61440, Note_on_c, 0, 86, 0
1, 61440, Note_on_c, 0, 87, 79
1, 61440, Note_on_c, 0, 54, 56
1, 61520, Tempo, 1132075
1, 61520, Note_on_c, 0, 87, 0
1, 61520, Note_on_c, 0, 80, 77
1, 61560, Note_on_c, 0, 54, 0
1, 61560, Note_on_c, 0, 63, 56
1, 61580, Tempo, 1142857
1, 61600, Note_on_c, 0, 80, 0
1, 61600, Note_on_c, 0, 81, 77
1, 61640, Tempo, 1153846
1, 61680, Note_on_c, 0, 81, 0
1, 61680, Note_on_c, 0, 63, 0
1, 61680, Note_on_c, 0, 77, 76
1, 61680, Note_on_c, 0, 57, 56
1, 61700, Tempo, 1165049
1, 61760, Note_on_c, 0, 77, 0
1, 61760, Note_on_c, 0, 78, 75
1, 61800, Note_on_c, 0, 57, 0
1, 61800, Note_on_c, 0, 51, 56
1, 61840, Note_on_c, 0, 78, 0
1, 61840, Note_on_c, 0, 74, 75
1, 61920, Tempo, 1333333
1, 61920, Note_on_c, 0, 74, 0
1, 61920, Note_on_c, 0, 51, 0
1, 61920, Note_on_c, 0, 69, 71
1, 61920, Note_on_c, 0, 75, 71
1, 61920, Note_on_c, 0, 78, 84
1, 61920, Note_on_c, 0, 48, 70
1, 61936, Control_c, 0, 64, 0
1, 61975, Control_c, 0, 64, 127
1, 62040, Tempo, 1224490
1, 62040, Note_on_c, 0, 78, 0
1, 62040, Note_on_c, 0, 69, 0
1, 62040, Note_on_c, 0, 75, 0
1, 62040, Note_on_c, 0, 63, 52
1, 62100, Note_on_c, 0, 78, 78
1, 62160, Tempo, 1188119
1, 62160, Note_on_c, 0, 78, 0
1, 62160, Note_on_c, 0, 63, 0
1, 62160, Note_on_c, 0, 90, 97
1, 62160, Note_on_c, 0, 54, 52
1, 62280, Note_on_c, 0, 54, 0
1, 62280, Note_on_c, 0, 63, 54
1, 62340, Tempo, 1276596
1, 62400, Tempo, 1200000
1, 62400, Note_on_c, 0, 63, 0
1, 62400, Note_on_c, 0, 48, 0
1, 62400, Note_on_c, 0, 57, 54
1, 62520, Tempo, 1276596
1, 62520, Note_on_c, 0, 57, 0
1, 62520, Note_on_c, 0, 51, 52
1, 62640, Tempo, 1333333
1, 62640, Note_on_c, 0, 51, 0
1, 62640, Note_on_c, 0, 90, 0
1, 62640, Note_on_c, 0, 69, 71
1, 62640, Note_on_c, 0, 73, 71
1, 62640, Note_on_c, 0, 78, 84
1, 62640, Note_on_c, 0, 49, 66
1, 62652, Control_c, 0, 64, 0
1, 62695, Control_c, 0, 64, 127
1, 62760, Tempo, 1224490
1, 62760, Note_on_c, 0, 78, 0
1, 62760, Note_on_c, 0, 69, 0
1, 62760, Note_on_c, 0, 73, 0
1, 62760, Note_on_c, 0, 61, 52
1, 62820, Note_on_c, 0, 78, 78
1, 62880, Tempo, 1188119
1, 62880, Note_on_c, 0, 78, 0
1, 62880, Note_on_c, 0, 61, 0
1, 62880, Note_on_c, 0, 90, 97
1, 62880, Note_on_c, 0, 54, 52
1, 63000, Note_on_c, 0, 54, 0
1, 63000, Note_on_c, 0, 57, 54
1, 63060, Tempo, 1276596
1, 63120, Tempo, 1333333
1, 63120, Note_on_c, 0, 57, 0
1, 63120, Note_on_c, 0, 90, 0
1, 63120, Note_on_c, 0, 49, 0
1, 63120, Note_on_c, 0, 69, 71
1, 63120, Note_on_c, 0, 72, 71
1, 63120, Note_on_c, 0, 78, 84
1, 63120, Note_on_c, 0, 50, 66
1, 63134, Control_c, 0, 64, 0
1, 63175, Control_c, 0, 64, 127
1, 63240, Tempo, 1224490
1, 63240, Note_on_c, 0, 78, 0
1, 63240, Note_on_c, 0, 69, 0
1, 63240, Note_on_c, 0, 72, 0
1, 63240, Note_on_c, 0, 60, 52
1, 63300, Note_on_c, 0, 78, 78
1, 63360, Tempo, 1188119
1, 63360, Note_on_c, 0, 78, 0
1, 63360, Note_on_c, 0, 60, 0
1, 63360, Note_on_c, 0, 90, 97
1, 63360, Note_on_c, 0, 54, 52
1, 63480, Note_on_c, 0, 54, 0
1, 63480, Note_on_c, 0, 57, 54
1, 63540, Tempo, 1276596
1, 63580, Tempo, 1237113
1, 63600, Tempo, 1263158
1, 63600, Note_on_c, 0, 57, 0
1, 63600, Note_on_c, 0, 50, 0
1, 63600, Note_on_c, 0, 51, 66
1, 63618, Control_c, 0, 64, 0
1, 63634, Control_c, 0, 64, 127
1, 63680, Note_on_c, 0, 90, 0
1, 63680, Note_on_c, 0, 89, 86
1, 63720, Note_on_c, 0, 63, 52
1, 63760, Note_on_c, 0, 89, 0
1, 63760, Note_on_c, 0, 88, 84
1, 63840, Note_on_c, 0, 88, 0
1, 63840, Note_on_c, 0, 63, 0
1, 63840, Note_on_c, 0, 78, 89
1, 63840, Note_on_c, 0, 54, 52
1, 63920, Note_on_c, 0, 78, 0
1, 63920, Note_on_c, 0, 87, 82
1, 63960, Note_on_c, 0, 54, 0
1, 63960, Note_on_c, 0, 56, 55
1, 64000, Note_on_c, 0, 87, 0
1, 64000, Note_on_c, 0, 86, 82
1, 64060, Tempo, 1250000
1, 64080, Note_on_c, 0, 86, 0
1, 64080, Note_on_c, 0, 56, 0
1, 64080, Note_on_c, 0, 51, 0
1, 64080, Note_on_c, 0, 85, 87
1, 64080, Note_on_c, 0, 44, 66
1, 64160, Note_on_c, 0, 85, 0
1, 64160, Note_on_c, 0, 75, 79
1, 64200, Tempo, 1263158
1, 64200, Note_on_c, 0, 44, 0
1, 64200, Note_on_c, 0, 66, 52
1, 64240, Note_on_c, 0, 75, 0
1, 64240, Note_on_c, 0, 84, 79
1, 64320, Note_on_c, 0, 84, 0
1, 64320, Note_on_c, 0, 66, 0
1, 64320, Note_on_c, 0, 82, 83
1, 64320, Note_on_c, 0, 56, 51
1, 64340, Tempo, 1276596
1, 64400, Note_on_c, 0, 82, 0
1, 64400, Note_on_c, 0, 81, 77
1, 64440, Note_on_c, 0, 56, 0
1, 64440, Note_on_c, 0, 66, 50
1, 64480, Tempo, 1290323
1, 64480, Note_on_c, 0, 81, 0
1, 64480, Note_on_c, 0, 72, 74
1, 64520, Tempo, 1276596
1, 64540, Tempo, 1290323
1, 64560, Tempo, 1304348
1, 64560, Note_on_c, 0, 72, 0
1, 64560, Note_on_c, 0, 66, 0
1, 64560, Note_on_c, 0, 80, 81
1, 64560, Note_on_c, 0, 60, 49
1, 64580, Tempo, 1318681
1, 64600, Tempo, 1348315
1, 64620, Tempo, 1363636
1, 64640, Tempo, 1379310
1, 64640, Note_on_c, 0, 80, 0
1, 64640, Note_on_c, 0, 79, 75
1, 64660, Tempo, 1395349
1, 64680, Tempo, 1428571
1, 64680, Note_on_c, 0, 60, 0
1, 64680, Note_on_c, 0, 54, 47
1, 64700, Tempo, 1445783
1, 64720, Tempo, 1463415
1, 64720, Note_on_c, 0, 79, 0
1, 64720, Note_on_c, 0, 78, 73
1, 64740, Tempo, 1500000
1, 64760, Tempo, 1318681
1, 64800, Tempo, 1348315
1, 64800, Note_on_c, 0, 78, 0
1, 64800, Note_on_c, 0, 54, 0
1, 64800, Note_on_c, 0, 77, 79
1, 64800, Text_t, "bdca426d104a26ac9dcb070447587523"
1, 64800, Control_c, 0, 91, 127
1, 64800, Note_on_c, 0, 37, 76
1, 64815, Control_c, 0, 64, 0
1, 64840, Tempo, 1333333
1, 64860, Tempo, 1318681
1, 64900, Tempo, 1304348
1, 64920, Tempo, 1290323
1, 64920, Note_on_c, 0, 37, 0
1, 64920, Note_on_c, 0, 65, 44
1, 64934, Control_c, 0, 64, 127
1, 64940, Tempo, 1276596
1, 64980, Tempo, 1263158
1, 65000, Tempo, 1250000
1, 65020, Tempo, 1237113
1, 65040, Tempo, 1188119
1, 65040, Note_on_c, 0, 65, 0
1, 65040, Note_on_c, 0, 56, 48
1, 65160, Note_on_c, 0, 56, 0
1, 65160, Note_on_c, 0, 65, 48
1, 65280, Note_on_c, 0, 65, 0
1, 65280, Note_on_c, 0, 61, 48
1, 65400, Note_on_c, 0, 61, 0
1, 65400, Note_on_c, 0, 53, 47
1, 65520, Tempo, 1237113
1, 65520, Note_on_c, 0, 53, 0
1, 65520, Note_on_c, 0, 77, 0
1, 65520, Note_on_c, 0, 75, 82
1, 65520, Note_on_c, 0, 49, 56
1, 65640, Note_on_c, 0, 49, 0
1, 65640, Note_on_c, 0, 65, 44
1, 65760, Tempo, 1237113
1, 65760, Note_on_c, 0, 65, 0
1, 65760, Note_on_c, 0, 75, 0
1, 65760, Note_on_c, 0, 73, 77
1, 65760, Note_on_c, 0, 56, 44
1, 65880, Note_on_c, 0, 56, 0
1, 65880, Note_on_c, 0, 65, 44
1, 66000, Note_on_c, 0, 65, 0
1, 66000, Note_on_c, 0, 61, 44
1, 66080, Tempo, 1224490
1, 66100, Tempo, 1250000
1, 66120, Tempo, 1276596
1, 66120, Note_on_c, 0, 61, 0
1, 66120, Note_on_c, 0, 73, 0
1, 66120, Note_on_c, 0, 65, 74
1, 66120, Note_on_c, 0, 53, 44
1, 66140, Tempo, 1304348
1, 66160, Tempo, 1333333
1, 66180, Tempo, 1363636
1, 66200, Tempo, 1395349
1, 66220, Tempo, 1428571
1, 66240, Tempo, 1363636
1, 66240, Note_on_c, 0, 53, 0
1, 66240, Note_on_c, 0, 65, 0
1, 66240, Note_on_c, 0, 68, 81
1, 66240, Note_on_c, 0, 49, 52
1, 66260, Tempo, 1348315
1, 66280, Tempo, 1333333
1, 66300, Tempo, 1318681
1, 66320, Tempo, 1304348
1, 66340, Tempo, 1290323
1, 66360, Tempo, 1276596
1, 66360, Note_on_c, 0, 49, 0
1, 66360, Note_on_c, 0, 65, 48
1, 66380, Tempo, 1263158
1, 66400, Tempo, 1237113
1, 66480, Tempo, 1176471
1, 66480, Note_on_c, 0, 65, 0
1, 66480, Note_on_c, 0, 56, 48
1, 66600, Note_on_c, 0, 56, 0
1, 66600, Note_on_c, 0, 65, 46
1, 66720, Tempo, 1212121
1, 66720, Note_on_c, 0, 65, 0
1, 66720, Note_on_c, 0, 61, 46
1, 66840, Note_on_c, 0, 61, 0
1, 66840, Note_on_c, 0, 53, 46
1, 66960, Tempo, 1212121
1, 66960, Note_on_c, 0, 53, 0
1, 66960, Note_on_c, 0, 49, 54
1, 67080, Note_on_c, 0, 49, 0
1, 67080, Note_on_c, 0, 65, 46
1, 67200, Tempo, 1200000
1, 67200, Note_on_c, 0, 65, 0
1, 67200, Note_on_c, 0, 68, 0
1, 67200, Note_on_c, 0, 73, 81
1, 67200, Note_on_c, 0, 56, 46
1, 67320, Note_on_c, 0, 56, 0
1, 67320, Note_on_c, 0, 65, 48
1, 67440, Tempo, 1200000
1, 67440, Note_on_c, 0, 65, 0
1, 67440, Note_on_c, 0, 73, 0
1, 67440, Note_on_c, 0, 77, 85
1, 67440, Note_on_c, 0, 61, 49
1, 67460, Tempo, 1212121
1, 67480, Tempo, 1224490
1, 67500, Tempo, 1237113
1, 67520, Tempo, 1250000
1, 67540, Tempo, 1263158
1, 67560, Tempo, 1276596
1, 67560, Note_on_c, 0, 61, 0
1, 67560, Note_on_c, 0, 53, 52
1, 67580, Tempo, 1290323
1, 67600, Tempo, 1304348
1, 67620, Tempo, 1318681
1, 67640, Tempo, 1333333
1, 67660, Tempo, 1348315
1, 67680, Tempo, 1238646
1, 67680, Note_on_c, 0, 53, 0
1, 67680, Note_on_c, 0, 77, 0
1, 67680, Note_on_c, 0, 82, 95
1, 67680, Note_on_c, 0, 49, 59
1, 67800, Note_on_c, 0, 49, 0
1, 67800, Note_on_c, 0, 65, 51
1, 67920, Tempo, 1188119
1, 67920, Note_on_c, 0, 65, 0
1, 67920, Note_on_c, 0, 56, 49
1, 68040, Note_on_c, 0, 56, 0
1, 68040, Note_on_c, 0, 65, 48
1, 68160, Note_on_c, 0, 65, 0
1, 68160, Note_on_c, 0, 61, 48
1, 68280, Note_on_c, 0, 61, 0
1, 68280, Note_on_c, 0, 53, 46
1, 68400, Tempo, 1237113
1, 68400, Note_on_c, 0, 53, 0
1, 68400, Note_on_c, 0, 49, 52
1, 68520, Tempo, 1261830
1, 68520, Note_on_c, 0, 49, 0
1, 68520, Note_on_c, 0, 82, 0
1, 68520, Note_on_c, 0, 80, 69
1, 68520, Note_on_c, 0, 65, 44
1, 68640, Tempo, 1224490
1, 68640, Note_on_c, 0, 65, 0
1, 68640, Note_on_c, 0, 80, 0
1, 68640, Note_on_c, 0, 76, 76
1, 68640, Note_on_c, 0, 56, 44
1, 68760, Note_on_c, 0, 56, 0
1, 68760, Note_on_c, 0, 76, 0
1, 68760, Note_on_c, 0, 77, 70
1, 68760, Note_on_c, 0, 65, 44
1, 68880, Tempo, 1250260
1, 68880, Note_on_c, 0, 65, 0
1, 68880, Note_on_c, 0, 77, 0
1, 68880, Note_on_c, 0, 72, 75
1, 68880, Note_on_c, 0, 61, 44
1, 68920, Tempo, 1261830
1, 68940, Tempo, 1273885
1, 68980, Tempo, 1285898
1, 69000, Tempo, 1298701
1, 69000, Note_on_c, 0, 61, 0
1, 69000, Note_on_c, 0, 72, 0
1, 69000, Note_on_c, 0, 73, 69
1, 69000, Note_on_c, 0, 53, 42
1, 69020, Tempo, 1311189
1, 69060, Tempo, 1324503
1, 69080, Tempo, 1337793
1, 69100, Tempo, 1351047
1, 69120, Tempo, 1318681
1, 69120, Note_on_c, 0, 53, 0
1, 69120, Note_on_c, 0, 73, 0
1, 69120, Note_on_c, 0, 71, 79
1, 69120, Text_t, "bdca426d104a26ac9dcb070447587523"
1, 69120, Control_c, 0, 91, 127
1, 69120, Note_on_c, 0, 37, 52
1, 69131, Control_c, 0, 64, 0
1, 69160, Tempo, 1304348
1, 69180, Tempo, 1290323
1, 69189, Control_c, 0, 64, 127
1, 69220, Tempo, 1276596
1, 69240, Tempo, 1263158
1, 69240, Note_on_c, 0, 37, 0
1, 69240, Note_on_c, 0, 65, 44
1, 69280, Tempo, 1250000
1, 69300, Tempo, 1237113
1, 69340, Tempo, 1224490
1, 69360, Tempo, 1188119
1, 69360, Note_on_c, 0, 65, 0
1, 69360, Note_on_c, 0, 56, 44
1, 69480, Note_on_c, 0, 56, 0
1, 69480, Note_on_c, 0, 65, 44
1, 69600, Note_on_c, 0, 65, 0
1, 69600, Note_on_c, 0, 61, 44
1, 69720, Note_on_c, 0, 61, 0
1, 69720, Note_on_c, 0, 53, 44
1, 69840, Note_on_c, 0, 53, 0
1, 69840, Note_on_c, 0, 49, 52
1, 69960, Note_on_c, 0, 49, 0
1, 69960, Note_on_c, 0, 65, 44
1, 70080, Note_on_c, 0, 65, 0
1, 70080, Note_on_c, 0, 56, 44
1, 70200, Note_on_c, 0, 56, 0
1, 70200, Note_on_c, 0, 65, 37
1, 70320, Note_on_c, 0, 65, 0
1, 70320, Note_on_c, 0, 61, 42
1, 70340, Tempo, 1212121
1, 70380, Tempo, 1224490
1, 70400, Tempo, 1237113
1, 70440, Tempo, 1250000
1, 70440, Note_on_c, 0, 61, 0
1, 70440, Note_on_c, 0, 53, 32
1, 70460, Tempo, 1263158
1, 70500, Tempo, 1276596
1, 70520, Tempo, 1290323
1, 70540, Tempo, 1333333
1, 70560, Note_on_c, 0, 53, 0
1, 70560, Note_on_c, 0, 71, 0
1, 70560, Note_on_c, 0, 83, 61
1, 70560, Text_t, "bdca426d104a26ac9dcb070447587523"
1, 70560, Control_c, 0, 91, 127
1, 70560, Note_on_c, 0, 49, 28
1, 70572, Control_c, 0, 64, 0
1, 70580, Tempo, 1318681
1, 70600, Tempo, 1304348
1, 70606, Control_c, 0, 64, 127
1, 70640, Tempo, 1290323
1, 70660, Tempo, 1276596
1, 70680, Note_on_c, 0, 49, 0
1, 70680, Note_on_c, 0, 65, 22
1, 70700, Tempo, 1263158
1, 70720, Tempo, 1250000
1, 70760, Tempo, 1237113
1, 70780, Tempo, 1224490
1, 70800, Note_on_c, 0, 65, 0
1, 70800, Note_on_c, 0, 56, 22
1, 70920, Note_on_c, 0, 56, 0
1, 70920, Note_on_c, 0, 65, 22
1, 71040, Note_on_c, 0, 65, 0
1, 71040, Note_on_c, 0, 61, 22
1, 71160, Note_on_c, 0, 61, 0
1, 71160, Note_on_c, 0, 53, 22
1, 71280, Tempo, 1290323
1, 71280, Note_on_c, 0, 53, 0
1, 71280, Note_on_c, 0, 49, 27
1, 71360, Note_on_c, 0, 83, 0
1, 71360, Note_on_c, 0, 79, 50
1, 71400, Tempo, 1212121
1, 71400, Note_on_c, 0, 49, 0
1, 71400, Note_on_c, 0, 65, 22
1, 71440, Note_on_c, 0, 79, 0
1, 71440, Note_on_c, 0, 80, 50
1, 71500, Tempo, 1333333
1, 71520, Tempo, 1237113
1, 71520, Note_on_c, 0, 80, 0
1, 71520, Note_on_c, 0, 65, 0
1, 71520, Note_on_c, 0, 79, 53
1, 71520, Note_on_c, 0, 56, 22
1, 71580, Tempo, 1250000
1, 71600, Note_on_c, 0, 79, 0
1, 71600, Note_on_c, 0, 78, 50
1, 71640, Tempo, 1263158
1, 71640, Note_on_c, 0, 56, 0
1, 71640, Note_on_c, 0, 65, 22
1, 71680, Note_on_c, 0, 78, 0
1, 71680, Note_on_c, 0, 79, 50
1, 71700, Tempo, 1276596
1, 71760, Tempo, 1290323
1, 71760, Note_on_c, 0, 79, 0
1, 71760, Note_on_c, 0, 65, 0
1, 71760, Note_on_c, 0, 82, 56
1, 71760, Note_on_c, 0, 61, 24
1, 71820, Tempo, 1304348
1, 71840, Note_on_c, 0, 82, 0
1, 71840, Note_on_c, 0, 80, 52
1, 71880, Tempo, 1318681
1, 71880, Note_on_c, 0, 61, 0
1, 71880, Note_on_c, 0, 53, 22
1, 71920, Note_on_c, 0, 80, 0
1, 71920, Note_on_c, 0, 77, 50
1, 71940, Tempo, 1333333
1, 71960, Tempo, 1348315
1, 72000, Tempo, 1333333
1, 72000, Note_on_c, 0, 77, 0
1, 72000, Note_on_c, 0, 53, 0
1, 72000, Note_on_c, 0, 75, 51
1, 72000, Note_on_c, 0, 37, 27
1, 72021, Control_c, 0, 64, 0
1, 72040, Tempo, 1318681
1, 72074, Control_c, 0, 64, 127
1, 72080, Tempo, 1304348
1, 72100, Tempo, 1290323
1, 72120, Note_on_c, 0, 37, 0
1, 72120, Note_on_c, 0, 65, 22
1, 72140, Tempo, 1276596
1, 72180, Tempo, 1263158
1, 72220, Tempo, 1250000
1, 72240, Tempo, 1212121
1, 72240, Note_on_c, 0, 65, 0
1, 72240, Note_on_c, 0, 56, 22
1, 72360, Note_on_c, 0, 56, 0
1, 72360, Note_on_c, 0, 65, 22
1, 72480, Note_on_c, 0, 65, 0
1, 72480, Note_on_c, 0, 59, 21
1, 72492, Tempo, 1200000
1, 72532, Tempo, 1212121
1, 72560, Tempo, 1224490
1, 72584, Tempo, 1237113
1, 72600, Note_on_c, 0, 59, 0
1, 72600, Note_on_c, 0, 53, 21
1, 72624, Tempo, 1250000
1, 72652, Tempo, 1263158
1, 72680, Tempo, 1276596
1, 72704, Tempo, 1290323
1, 72720, Tempo, 1621622
1, 72720, Note_on_c, 0, 53, 0
1, 72720, Note_on_c, 0, 75, 0
1, 72720, Note_on_c, 0, 73, 47
1, 72720, Note_on_c, 0, 49, 28
1, 72732, Tempo, 1558442
1, 72737, Control_c, 0, 64, 0
1, 72744, Tempo, 1500000
1, 72745, Note_on_c, 0, 75, 43
1, 72750, Note_on_c, 0, 73, 0
1, 72760, Tempo, 1445783
1, 72770, Note_on_c, 0, 73, 47
1, 72772, Tempo, 1395349
1, 72775, Note_on_c, 0, 75, 0
1, 72784, Tempo, 1348315
1, 72795, Note_on_c, 0, 75, 43
1, 72800, Tempo, 1290323
1, 72800, Note_on_c, 0, 73, 0
1, 72800, Control_c, 0, 64, 127
1, 72812, Tempo, 1276596
1, 72820, Note_on_c, 0, 73, 47
1, 72824, Tempo, 1263158
1, 72825, Note_on_c, 0, 75, 0
1, 72840, Tempo, 1250000
1, 72840, Note_on_c, 0, 49, 0
1, 72840, Note_on_c, 0, 75, 43
1, 72840, Note_on_c, 0, 65, 23
1, 72850, Note_on_c, 0, 73, 0
1, 72852, Tempo, 1237113
1, 72860, Note_on_c, 0, 73, 47
1, 72870, Note_on_c, 0, 75, 0
1, 72880, Note_on_c, 0, 75, 43
1, 72890, Note_on_c, 0, 73, 0
1, 72892, Tempo, 1250000
1, 72900, Note_on_c, 0, 73, 47
1, 72910, Note_on_c, 0, 75, 0
1, 72920, Tempo, 1263158
1, 72920, Note_on_c, 0, 75, 43
1, 72930, Note_on_c, 0, 73, 0
1, 72940, Note_on_c, 0, 73, 47
1, 72944, Tempo, 1276596
1, 72950, Note_on_c, 0, 75, 0
1, 72960, Tempo, 1261830
1, 72960, Note_on_c, 0, 65, 0
1, 72960, Note_on_c, 0, 72, 47
1, 72960, Note_on_c, 0, 56, 25
1, 72970, Note_on_c, 0, 73, 0
1, 73000, Note_on_c, 0, 72, 0
1, 73000, Note_on_c, 0, 73, 46
1, 73040, Note_on_c, 0, 73, 0
1, 73040, Note_on_c, 0, 75, 47
1, 73080, Note_on_c, 0, 75, 0
1, 73080, Note_on_c, 0, 56, 0
1, 73080, Note_on_c, 0, 77, 48
1, 73080, Note_on_c, 0, 65, 27
1, 73120, Note_on_c, 0, 77, 0
1, 73120, Note_on_c, 0, 78, 49
1, 73160, Note_on_c, 0, 78, 0
1, 73160, Note_on_c, 0, 80, 50
1, 73200, Tempo, 1250000
1, 73200, Note_on_c, 0, 80, 0
1, 73200, Note_on_c, 0, 65, 0
1, 73200, Note_on_c, 0, 82, 51
1, 73200, Note_on_c, 0, 59, 28
1, 73220, Tempo, 1263158
1, 73240, Tempo, 1276596
1, 73240, Note_on_c, 0, 82, 0
1, 73240, Note_on_c, 0, 83, 52
1, 73260, Tempo, 1290323
1, 73280, Tempo, 1304348
1, 73280, Note_on_c, 0, 83, 0
1, 73280, Note_on_c, 0, 85, 53
1, 73300, Tempo, 1318681
1, 73320, Tempo, 1348315
1, 73320, Note_on_c, 0, 85, 0
1, 73320, Note_on_c, 0, 59, 0
1, 73320, Note_on_c, 0, 87, 54
1, 73320, Note_on_c, 0, 53, 30
1, 73340, Tempo, 1363636
1, 73360, Tempo, 1379310
1, 73360, Note_on_c, 0, 87, 0
1, 73360, Note_on_c, 0, 89, 55
1, 73380, Tempo, 1395349
1, 73400, Tempo, 1411765
1, 73400, Note_on_c, 0, 89, 0
1, 73400, Note_on_c, 0, 90, 55
1, 73420, Tempo, 1445783
1, 73440, Time_signature, 6, 2, 24, 8
1, 73440, Tempo, 722892
1, 73440, Note_on_c, 0, 90, 0
1, 73440, Note_on_c, 0, 53, 0
1, 73440, Note_on_c, 0, 94, 57
1, 73440, Note_on_c, 0, 49, 33
1, 73455, Control_c, 0, 64, 0
1, 73480, Tempo, 718563
1, 73490, Control_c, 0, 64, 127
1, 73500, Note_on_c, 0, 94, 0
1, 73500, Note_on_c, 0, 92, 55
1, 73520, Tempo, 710059
1, 73560, Tempo, 705882
1, 73560, Note_on_c, 0, 92, 0
1, 73560, Note_on_c, 0, 95, 52
1, 73600, Tempo, 697674
1, 73620, Note_on_c, 0, 95, 0
1, 73620, Note_on_c, 0, 91, 52
1, 73640, Tempo, 693642
1, 73680, Tempo, 685714
1, 73680, Note_on_c, 0, 91, 0
1, 73680, Note_on_c, 0, 49, 0
1, 73680, Note_on_c, 0, 92, 52
1, 73680, Note_on_c, 0, 65, 28
1, 73720, Tempo, 677966
1, 73740, Note_on_c, 0, 92, 0
1, 73740, Note_on_c, 0, 91, 52
1, 73760, Tempo, 674157
1, 73800, Tempo, 666667
1, 73800, Note_on_c, 0, 91, 0
1, 73800, Note_on_c, 0, 95, 52
1, 73840, Tempo, 662983
1, 73860, Note_on_c, 0, 95, 0
1, 73860, Note_on_c, 0, 90, 52
1, 73880, Tempo, 655738
1, 73920, Tempo, 652174
1, 73920, Note_on_c, 0, 90, 0
1, 73920, Note_on_c, 0, 65, 0
1, 73920, Note_on_c, 0, 91, 49
1, 73920, Note_on_c, 0, 56, 28
1, 73960, Tempo, 631579
1, 73980, Note_on_c, 0, 91, 0
1, 73980, Note_on_c, 0, 90, 49
1, 74040, Tempo, 628272
1, 74040, Note_on_c, 0, 90, 0
1, 74040, Note_on_c, 0, 95, 50
1, 74080, Tempo, 625000
1, 74100, Note_on_c, 0, 95, 0
1, 74100, Note_on_c, 0, 89, 50
1, 74160, Tempo, 621762
1, 74160, Note_on_c, 0, 89, 0
1, 74160, Note_on_c, 0, 56, 0
1, 74160, Note_on_c, 0, 90, 51
1, 74160, Note_on_c, 0, 65, 28
1, 74200, Tempo, 618557
1, 74220, Note_on_c, 0, 90, 0
1, 74220, Note_on_c, 0, 89, 52
1, 74240, Tempo, 615385
1, 74280, Note_on_c, 0, 89, 0
1, 74280, Note_on_c, 0, 95, 52
1, 74320, Tempo, 612245
1, 74340, Note_on_c, 0, 95, 0
1, 74340, Note_on_c, 0, 88, 53
1, 74360, Tempo, 609137
1, 74400, Tempo, 606061
1, 74400, Note_on_c, 0, 88, 0
1, 74400, Note_on_c, 0, 65, 0
1, 74400, Note_on_c, 0, 89, 53
1, 74400, Note_on_c, 0, 59, 28
1, 74460, Tempo, 603015
1, 74460, Note_on_c, 0, 89, 0
1, 74460, Note_on_c, 0, 88, 54
1, 74520, Note_on_c, 0, 88, 0
1, 74520, Note_on_c, 0, 95, 55
1, 74560, Tempo, 606061
1, 74580, Note_on_c, 0, 95, 0
1, 74580, Note_on_c, 0, 87, 55
1, 74640, Tempo, 609137
1, 74640, Note_on_c, 0, 87, 0
1, 74640, Note_on_c, 0, 59, 0
1, 74640, Note_on_c, 0, 88, 56
1, 74640, Note_on_c, 0, 53, 28
1, 74700, Note_on_c, 0, 88, 0
1, 74700, Note_on_c, 0, 87, 57
1, 74720, Tempo, 612245
1, 74740, Tempo, 618557
1, 74760, Tempo, 628272
1, 74760, Note_on_c, 0, 87, 0
1, 74760, Note_on_c, 0, 95, 57
1, 74780, Tempo, 638298
1, 74800, Tempo, 648649
1, 74820, Tempo, 659341
1, 74820, Note_on_c, 0, 95, 0
1, 74820, Note_on_c, 0, 86, 57
1, 74840, Tempo, 670391
1, 74860, Tempo, 681818
1, 74880, Tempo, 670391
1, 74880, Note_on_c, 0, 86, 0
1, 74880, Note_on_c, 0, 53, 0
1, 74880, Note_on_c, 0, 85, 57
1, 74880, Note_on_c, 0, 49, 28
1, 74898, Control_c, 0, 64, 0
1, 74920, Control_c, 0, 64, 127
1, 74940, Note_on_c, 0, 85, 0
1, 74940, Note_on_c, 0, 87, 58
1, 74960, Tempo, 628272
1, 75000, Note_on_c, 0, 87, 0
1, 75000, Note_on_c, 0, 85, 59
1, 75040, Tempo, 631579
1, 75060, Note_on_c, 0, 85, 0
1, 75060, Note_on_c, 0, 84, 59
1, 75120, Tempo, 634921
1, 75120, Note_on_c, 0, 84, 0
1, 75120, Note_on_c, 0, 49, 0
1, 75120, Note_on_c, 0, 85, 60
1, 75120, Note_on_c, 0, 65, 29
1, 75180, Note_on_c, 0, 85, 0
1, 75180, Note_on_c, 0, 87, 61
1, 75200, Tempo, 638298
1, 75240, Note_on_c, 0, 87, 0
1, 75240, Note_on_c, 0, 89, 61
1, 75280, Tempo, 641711
1, 75300, Note_on_c, 0, 89, 0
1, 75300, Note_on_c, 0, 90, 62
1, 75320, Tempo, 634921
1, 75340, Tempo, 641711
1, 75360, Tempo, 652174
1, 75360, Note_on_c, 0, 90, 0
1, 75360, Note_on_c, 0, 65, 0
1, 75360, Note_on_c, 0, 92, 62
1, 75360, Note_on_c, 0, 56, 30
1, 75380, Tempo, 662983
1, 75400, Tempo, 674157
1, 75420, Tempo, 685714
1, 75420, Note_on_c, 0, 92, 0
1, 75420, Note_on_c, 0, 94, 62
1, 75440, Tempo, 697674
1, 75460, Tempo, 710059
1, 75480, Tempo, 722892
1, 75480, Note_on_c, 0, 94, 0
1, 75480, Note_on_c, 0, 95, 64
1, 75500, Tempo, 736196
1, 75520, Tempo, 750000
1, 75540, Tempo, 764331
1, 75540, Note_on_c, 0, 95, 0
1, 75540, Note_on_c, 0, 97, 66
1, 75560, Tempo, 779221
1, 75580, Tempo, 800000
1, 75600, Tempo, 701754
1, 75600, Note_on_c, 0, 97, 0
1, 75600, Note_on_c, 0, 56, 0
1, 75600, Note_on_c, 0, 101, 65
1, 75600, Note_on_c, 0, 65, 30
1, 75660, Note_on_c, 0, 101, 0
1, 75660, Note_on_c, 0, 99, 64
1, 75680, Tempo, 705882
1, 75720, Note_on_c, 0, 99, 0
1, 75720, Note_on_c, 0, 97, 62
1, 75760, Tempo, 710059
1, 75780, Note_on_c, 0, 97, 0
1, 75780, Note_on_c, 0, 95, 61
1, 75840, Tempo, 710059
1, 75840, Note_on_c, 0, 95, 0
1, 75840, Note_on_c, 0, 65, 0
1, 75840, Note_on_c, 0, 92, 59
1, 75840, Note_on_c, 0, 59, 29
1, 75860, Tempo, 714286
1, 75880, Tempo, 718563
1, 75900, Tempo, 722892
1, 75900, Note_on_c, 0, 92, 0
1, 75900, Note_on_c, 0, 89, 58
1, 75920, Tempo, 727273
1, 75940, Tempo, 731707
1, 75960, Tempo, 736196
1, 75960, Note_on_c, 0, 89, 0
1, 75960, Note_on_c, 0, 85, 57
1, 75980, Tempo, 740741
1, 76000, Tempo, 745342
1, 76020, Tempo, 750000
1, 76020, Note_on_c, 0, 85, 0
1, 76020, Note_on_c, 0, 83, 56
1, 76040, Tempo, 754717
1, 76060, Tempo, 759494
1, 76080, Tempo, 764331
1, 76080, Note_on_c, 0, 83, 0
1, 76080, Note_on_c, 0, 59, 0
1, 76080, Note_on_c, 0, 80, 54
1, 76080, Note_on_c, 0, 53, 28
1, 76100, Tempo, 769231
1, 76120, Tempo, 774194
1, 76140, Tempo, 779221
1, 76140, Note_on_c, 0, 80, 0
1, 76140, Note_on_c, 0, 77, 53
1, 76160, Tempo, 784314
1, 76180, Tempo, 789474
1, 76200, Tempo, 794702
1, 76200, Note_on_c, 0, 77, 0
1, 76200, Note_on_c, 0, 73, 51
1, 76220, Tempo, 800000
1, 76240, Tempo, 805369
1, 76260, Tempo, 810811
1, 76260, Note_on_c, 0, 73, 0
1, 76260, Note_on_c, 0, 71, 50
1, 76320, Time_signature, 6, 3, 12, 8
1, 76320, Tempo, 1463415
1, 76320, Note_on_c, 0, 71, 0
1, 76320, Note_on_c, 0, 53, 0
1, 76320, Note_on_c, 0, 70, 53
1, 76320, Note_on_c, 0, 50, 29
1, 76340, Tempo, 1463415
1, 76344, Control_c, 0, 64, 0
1, 76380, Tempo, 1445783
1, 76394, Control_c, 0, 64, 127
1, 76400, Tempo, 1428571
1, 76420, Tempo, 1411765
1, 76440, Tempo, 1395349
1, 76440, Note_on_c, 0, 50, 0
1, 76440, Note_on_c, 0, 65, 22
1, 76460, Tempo, 1379310
1, 76480, Tempo, 1363636
1, 76500, Tempo, 1348315
1, 76520, Tempo, 1333333
1, 76540, Tempo, 1318681
1, 76560, Tempo, 1304348
1, 76560, Note_on_c, 0, 65, 0
1, 76560, Note_on_c, 0, 56, 22
1, 76680, Note_on_c, 0, 56, 0
1, 76680, Note_on_c, 0, 70, 0
1, 76680, Note_on_c, 0, 69, 48
1, 76680, Note_on_c, 0, 65, 22
1, 76740, Note_on_c, 0, 69, 0
1, 76740, Note_on_c, 0, 70, 50
1, 76800, Tempo, 1304348
1, 76800, Note_on_c, 0, 70, 0
1, 76800, Note_on_c, 0, 65, 0
1, 76800, Note_on_c, 0, 71, 53
1, 76800, Note_on_c, 0, 58, 21
1, 76840, Tempo, 1318681
1, 76860, Tempo, 1333333
1, 76860, Note_on_c, 0, 71, 0
1, 76860, Note_on_c, 0, 70, 50
1, 76900, Tempo, 1348315
1, 76920, Tempo, 1363636
1, 76920, Note_on_c, 0, 70, 0
1, 76920, Note_on_c, 0, 58, 0
1, 76920, Note_on_c, 0, 73, 52
1, 76920, Note_on_c, 0, 53, 21
1, 76940, Tempo, 1379310
1, 76960, Tempo, 1395349
1, 76960, Note_on_c, 0, 73, 0
1, 76960, Note_on_c, 0, 71, 50
1, 76984, Tempo, 1411765
1, 77000, Tempo, 1428571
1, 77000, Note_on_c, 0, 71, 0
1, 77000, Note_on_c, 0, 70, 48
1, 77020, Tempo, 1500000
1, 77040, Tempo, 1578947
1, 77040, Note_on_c, 0, 70, 0
1, 77040, Note_on_c, 0, 53, 0
1, 77040, Note_on_c, 0, 70, 50
1, 77040, Note_on_c, 0, 50, 28
1, 77052, Tempo, 1558442
1, 77057, Control_c, 0, 64, 0
1, 77064, Tempo, 1500000
1, 77080, Tempo, 1445783
1, 77092, Tempo, 1395349
1, 77104, Tempo, 1348315
1, 77120, Tempo, 1290323
1, 77120, Control_c, 0, 64, 127
1, 77160, Note_on_c, 0, 50, 0
1, 77160, Note_on_c, 0, 65, 23
1, 77280, Tempo, 1261830
1, 77280, Note_on_c, 0, 65, 0
1, 77280, Note_on_c, 0, 56, 25
1, 77400, Note_on_c, 0, 56, 0
1, 77400, Note_on_c, 0, 65, 27
1, 77520, Tempo, 1250000
1, 77520, Note_on_c, 0, 65, 0
1, 77520, Note_on_c, 0, 70, 0
1, 77520, Note_on_c, 0, 82, 54
1, 77520, Note_on_c, 0, 58, 28
1, 77540, Tempo, 1263158
1, 77560, Tempo, 1276596
1, 77580, Tempo, 1290323
1, 77600, Tempo, 1304348
1, 77620, Tempo, 1318681
1, 77640, Tempo, 1395349
1, 77640, Note_on_c, 0, 58, 0
1, 77640, Note_on_c, 0, 53, 30
1, 77760, Tempo, 1263158
1, 77760, Note_on_c, 0, 53, 0
1, 77760, Note_on_c, 0, 78, 59
1, 77760, Note_on_c, 0, 51, 35
1, 77774, Control_c, 0, 64, 0
1, 77815, Control_c, 0, 64, 127
1, 77880, Note_on_c, 0, 51, 0
1, 77880, Note_on_c, 0, 66, 28
1, 78000, Tempo, 1237113
1, 78000, Note_on_c, 0, 66, 0
1, 78000, Note_on_c, 0, 78, 0
1, 78000, Note_on_c, 0, 82, 0
1, 78000, Note_on_c, 0, 83, 61
1, 78000, Note_on_c, 0, 80, 55
1, 78000, Note_on_c, 0, 58, 28
1, 78120, Note_on_c, 0, 58, 0
1, 78120, Note_on_c, 0, 66, 28
1, 78240, Tempo, 1153846
1, 78240, Note_on_c, 0, 66, 0
1, 78240, Note_on_c, 0, 80, 0
1, 78240, Note_on_c, 0, 83, 0
1, 78240, Note_on_c, 0, 75, 51
1, 78240, Note_on_c, 0, 78, 61
1, 78240, Note_on_c, 0, 63, 28
1, 78360, Tempo, 1276596
1, 78360, Note_on_c, 0, 63, 0
1, 78360, Note_on_c, 0, 54, 28
1, 78420, Note_on_c, 0, 78, 0
1, 78420, Note_on_c, 0, 75, 0
1, 78420, Note_on_c, 0, 75, 50
1, 78420, Note_on_c, 0, 78, 59
1, 78480, Tempo, 1237113
1, 78480, Note_on_c, 0, 78, 0
1, 78480, Note_on_c, 0, 75, 0
1, 78480, Note_on_c, 0, 54, 0
1, 78480, Note_on_c, 0, 78, 56
1, 78480, Note_on_c, 0, 82, 66
1, 78480, Note_on_c, 0, 51, 35
1, 78497, Control_c, 0, 64, 0
1, 78545, Control_c, 0, 64, 127
1, 78600, Note_on_c, 0, 51, 0
1, 78600, Note_on_c, 0, 82, 0
1, 78600, Note_on_c, 0, 78, 0
1, 78600, Note_on_c, 0, 68, 30
1, 78660, Note_on_c, 0, 80, 60
1, 78660, Note_on_c, 0, 77, 51
1, 78720, Tempo, 1445783
1, 78720, Note_on_c, 0, 77, 0
1, 78720, Note_on_c, 0, 80, 0
1, 78720, Note_on_c, 0, 68, 0
1, 78720, Note_on_c, 0, 80, 58
1, 78720, Note_on_c, 0, 77, 58
1, 78720, Note_on_c, 0, 58, 31
1, 78740, Note_on_c, 0, 77, 0
1, 78740, Note_on_c, 0, 80, 0
1, 78740, Note_on_c, 0, 82, 52
1, 78740, Note_on_c, 0, 78, 52
1, 78760, Note_on_c, 0, 78, 0
1, 78760, Note_on_c, 0, 82, 0
1, 78760, Note_on_c, 0, 80, 57
1, 78760, Note_on_c, 0, 77, 57
1, 78800, Tempo, 1212121
1, 78800, Note_on_c, 0, 77, 0
1, 78800, Note_on_c, 0, 80, 0
1, 78800, Note_on_c, 0, 75, 50
1, 78800, Note_on_c, 0, 78, 59
1, 78840, Note_on_c, 0, 58, 0
1, 78840, Note_on_c, 0, 68, 31
1, 78880, Note_on_c, 0, 78, 0
1, 78880, Note_on_c, 0, 75, 0
1, 78880, Note_on_c, 0, 77, 51
1, 78880, Note_on_c, 0, 80, 60
1, 78960, Tempo, 1250260
1, 78960, Note_on_c, 0, 80, 0
1, 78960, Note_on_c, 0, 77, 0
1, 78960, Note_on_c, 0, 68, 0
1, 78960, Note_on_c, 0, 82, 63
1, 78960, Note_on_c, 0, 78, 54
1, 78960, Note_on_c, 0, 62, 31
1, 79000, Tempo, 1261830
1, 79000, Note_on_c, 0, 78, 0
1, 79020, Tempo, 1273885
1, 79040, Note_on_c, 0, 82, 0
1, 79060, Tempo, 1285898
1, 79080, Tempo, 1298701
1, 79080, Note_on_c, 0, 62, 0
1, 79080, Note_on_c, 0, 53, 31
1, 79160, Note_on_c, 0, 74, 55
1, 79160, Note_on_c, 0, 77, 65
1, 79200, Tempo, 1333333
1, 79200, Note_on_c, 0, 77, 0
1, 79200, Note_on_c, 0, 74, 0
1, 79200, Note_on_c, 0, 53, 0
1, 79200, Note_on_c, 0, 80, 62
1, 79200, Note_on_c, 0, 77, 53
1, 79200, Note_on_c, 0, 51, 44
1, 79214, Control_c, 0, 64, 0
1, 79255, Control_c, 0, 64, 127
1, 79260, Tempo, 1237113
1, 79320, Note_on_c, 0, 51, 0
1, 79320, Note_on_c, 0, 66, 34
1, 79440, Tempo, 1188119
1, 79440, Note_on_c, 0, 66, 0
1, 79440, Note_on_c, 0, 77, 0
1, 79440, Note_on_c, 0, 80, 0
1, 79440, Note_on_c, 0, 78, 57
1, 79440, Note_on_c, 0, 75, 57
1, 79440, Note_on_c, 0, 58, 34
1, 79560, Note_on_c, 0, 58, 0
1, 79560, Note_on_c, 0, 75, 0
1, 79560, Note_on_c, 0, 78, 0
1, 79560, Note_on_c, 0, 66, 34
1, 79620, Note_on_c, 0, 78, 56
1, 79620, Note_on_c, 0, 87, 66
1, 79680, Note_on_c, 0, 87, 0
1, 79680, Note_on_c, 0, 78, 0
1, 79680, Note_on_c, 0, 66, 0
1, 79680, Note_on_c, 0, 78, 55
1, 79680, Note_on_c, 0, 87, 65
1, 79680, Note_on_c, 0, 63, 34
1, 79760, Note_on_c, 0, 87, 0
1, 79760, Note_on_c, 0, 78, 0
1, 79760, Note_on_c, 0, 77, 52
1, 79760, Note_on_c, 0, 85, 61
1, 79800, Tempo, 1276596
1, 79800, Note_on_c, 0, 63, 0
1, 79800, Note_on_c, 0, 54, 34
1, 79840, Note_on_c, 0, 85, 0
1, 79840, Note_on_c, 0, 77, 0
1, 79840, Note_on_c, 0, 75, 52
1, 79840, Note_on_c, 0, 83, 61
1, 79920, Note_on_c, 0, 83, 0
1, 79920, Note_on_c, 0, 75, 0
1, 79920, Note_on_c, 0, 54, 0
1, 79920, Note_on_c, 0, 74, 57
1, 79920, Note_on_c, 0, 82, 68
1, 79920, Note_on_c, 0, 46, 45
1, 79937, Control_c, 0, 64, 0
1, 79985, Control_c, 0, 64, 127
1, 80000, Note_on_c, 0, 82, 0
1, 80000, Note_on_c, 0, 74, 0
1, 80000, Note_on_c, 0, 70, 49
1, 80000, Note_on_c, 0, 82, 58
1, 80040, Tempo, 1200000
1, 80040, Note_on_c, 0, 82, 0
1, 80040, Note_on_c, 0, 70, 0
1, 80040, Note_on_c, 0, 46, 0
1, 80040, Note_on_c, 0, 65, 35
1, 80080, Note_on_c, 0, 71, 50
1, 80080, Note_on_c, 0, 82, 60
1, 80120, Tempo, 1224490
1, 80120, Note_on_c, 0, 82, 0
1, 80120, Note_on_c, 0, 71, 0
1, 80160, Note_on_c, 0, 65, 0
1, 80160, Note_on_c, 0, 72, 52
1, 80160, Note_on_c, 0, 82, 62
1, 80160, Note_on_c, 0, 58, 37
1, 80200, Tempo, 1237113
1, 80200, Note_on_c, 0, 82, 0
1, 80200, Note_on_c, 0, 72, 0
1, 80240, Note_on_c, 0, 73, 53
1, 80240, Note_on_c, 0, 82, 63
1, 80260, Tempo, 1250000
1, 80280, Note_on_c, 0, 82, 0
1, 80280, Note_on_c, 0, 73, 0
1, 80280, Note_on_c, 0, 58, 0
1, 80280, Note_on_c, 0, 65, 39
1, 80320, Tempo, 1263158
1, 80320, Note_on_c, 0, 74, 56
1, 80320, Note_on_c, 0, 82, 66
1, 80360, Note_on_c, 0, 82, 0
1, 80360, Note_on_c, 0, 74, 0
1, 80380, Tempo, 1276596
1, 80400, Note_on_c, 0, 65, 0
1, 80400, Note_on_c, 0, 75, 57
1, 80400, Note_on_c, 0, 82, 68
1, 80400, Note_on_c, 0, 62, 40
1, 80420, Tempo, 1276596
1, 80440, Tempo, 1290323
1, 80440, Note_on_c, 0, 82, 0
1, 80440, Note_on_c, 0, 75, 0
1, 80460, Tempo, 1304348
1, 80480, Tempo, 1318681
1, 80480, Note_on_c, 0, 76, 59
1, 80480, Note_on_c, 0, 82, 70
1, 80500, Tempo, 1333333
1, 80520, Tempo, 1348315
1, 80520, Note_on_c, 0, 82, 0
1, 80520, Note_on_c, 0, 76, 0
1, 80520, Note_on_c, 0, 62, 0
1, 80520, Note_on_c, 0, 53, 42
1, 80540, Tempo, 1363636
1, 80560, Tempo, 1379310
1, 80560, Note_on_c, 0, 77, 60
1, 80560, Note_on_c, 0, 82, 71
1, 80580, Tempo, 1395349
1, 80600, Tempo, 1411765
1, 80600, Note_on_c, 0, 82, 0
1, 80600, Note_on_c, 0, 77, 0
1, 80620, Tempo, 1428571
1, 80640, Tempo, 1276596
1, 80640, Note_on_c, 0, 53, 0
1, 80640, Note_on_c, 0, 78, 59
1, 80640, Note_on_c, 0, 82, 67
1, 80640, Note_on_c, 0, 39, 35
1, 80653, Control_c, 0, 64, 0
1, 80695, Control_c, 0, 64, 127
1, 80760, Note_on_c, 0, 39, 0
1, 80760, Note_on_c, 0, 66, 28
1, 80880, Tempo, 1188119
1, 80880, Note_on_c, 0, 66, 0
1, 80880, Note_on_c, 0, 82, 0
1, 80880, Note_on_c, 0, 78, 0
1, 80880, Note_on_c, 0, 83, 61
1, 80880, Note_on_c, 0, 80, 55
1, 80880, Note_on_c, 0, 58, 28
1, 81000, Note_on_c, 0, 58, 0
1, 81000, Note_on_c, 0, 66, 28
1, 81120, Tempo, 1153846
1, 81120, Note_on_c, 0, 66, 0
1, 81120, Note_on_c, 0, 63, 28
1, 81240, Tempo, 1276596
1, 81240, Note_on_c, 0, 63, 0
1, 81240, Note_on_c, 0, 80, 0
1, 81240, Note_on_c, 0, 83, 0
1, 81240, Note_on_c, 0, 75, 55
1, 81240, Note_on_c, 0, 78, 65
1, 81240, Note_on_c, 0, 54, 28
1, 81300, Note_on_c, 0, 78, 0
1, 81300, Note_on_c, 0, 75, 0
1, 81300, Note_on_c, 0, 75, 50
1, 81300, Note_on_c, 0, 78, 59
1, 81360, Tempo, 1237113
1, 81360, Note_on_c, 0, 78, 0
1, 81360, Note_on_c, 0, 75, 0
1, 81360, Note_on_c, 0, 54, 0
1, 81360, Note_on_c, 0, 78, 56
1, 81360, Note_on_c, 0, 82, 66
1, 81360, Note_on_c, 0, 51, 35
1, 81376, Control_c, 0, 64, 0
1, 81425, Control_c, 0, 64, 127
1, 81480, Note_on_c, 0, 51, 0
1, 81480, Note_on_c, 0, 82, 0
1, 81480, Note_on_c, 0, 78, 0
1, 81480, Note_on_c, 0, 68, 30
1, 81540, Note_on_c, 0, 80, 60
1, 81540, Note_on_c, 0, 77, 51
1, 81600, Tempo, 1445783
1, 81600, Note_on_c, 0, 77, 0
1, 81600, Note_on_c, 0, 80, 0
1, 81600, Note_on_c, 0, 68, 0
1, 81600, Note_on_c, 0, 80, 58
1, 81600, Note_on_c, 0, 77, 58
1, 81600, Note_on_c, 0, 58, 31
1, 81620, Note_on_c, 0, 77, 0
1, 81620, Note_on_c, 0, 80, 0
1, 81620, Note_on_c, 0, 82, 52
1, 81620, Note_on_c, 0, 78, 52
1, 81640, Note_on_c, 0, 78, 0
1, 81640, Note_on_c, 0, 82, 0
1, 81640, Note_on_c, 0, 80, 57
1, 81640, Note_on_c, 0, 77, 57
1, 81680, Tempo, 1212121
1, 81680, Note_on_c, 0, 77, 0
1, 81680, Note_on_c, 0, 80, 0
1, 81680, Note_on_c, 0, 75, 50
1, 81680, Note_on_c, 0, 78, 59
1, 81720, Note_on_c, 0, 58, 0
1, 81720, Note_on_c, 0, 68, 31
1, 81760, Note_on_c, 0, 78, 0
1, 81760, Note_on_c, 0, 75, 0
1, 81760, Note_on_c, 0, 77, 51
1, 81760, Note_on_c, 0, 80, 60
1, 81840, Tempo, 1250260
1, 81840, Note_on_c, 0, 80, 0
1, 81840, Note_on_c, 0, 77, 0
1, 81840, Note_on_c, 0, 68, 0
1, 81840, Note_on_c, 0, 77, 52
1, 81840, Note_on_c, 0, 80, 61
1, 81840, Note_on_c, 0, 62, 31
1, 81880, Tempo, 1261830
1, 81900, Tempo, 1273885
1, 81920, Note_on_c, 0, 80, 0
1, 81920, Note_on_c, 0, 77, 0
1, 81920, Note_on_c, 0, 78, 54
1, 81920, Note_on_c, 0, 82, 63
1, 81940, Tempo, 1285898
1, 81960, Tempo, 1298701
1, 81960, Note_on_c, 0, 78, 0
1, 81960, Note_on_c, 0, 62, 0
1, 81960, Note_on_c, 0, 53, 31
1, 82000, Note_on_c, 0, 82, 0
1, 82040, Note_on_c, 0, 74, 55
1, 82040, Note_on_c, 0, 77, 65
1, 82080, Tempo, 1333333
1, 82080, Note_on_c, 0, 77, 0
1, 82080, Note_on_c, 0, 74, 0
1, 82080, Note_on_c, 0, 53, 0
1, 82080, Note_on_c, 0, 80, 62
1, 82080, Note_on_c, 0, 77, 53
1, 82080, Note_on_c, 0, 51, 44
1, 82094, Control_c, 0, 64, 0
1, 82135, Control_c, 0, 64, 127
1, 82140, Tempo, 1237113
1, 82200, Note_on_c, 0, 51, 0
1, 82200, Note_on_c, 0, 66, 34
1, 82320, Tempo, 1188119
1, 82320, Note_on_c, 0, 66, 0
1, 82320, Note_on_c, 0, 77, 0
1, 82320, Note_on_c, 0, 80, 0
1, 82320, Note_on_c, 0, 78, 57
1, 82320, Note_on_c, 0, 75, 57
1, 82320, Note_on_c, 0, 58, 34
1, 82440, Note_on_c, 0, 58, 0
1, 82440, Note_on_c, 0, 75, 0
1, 82440, Note_on_c, 0, 78, 0
1, 82440, Note_on_c, 0, 66, 34
1, 82560, Note_on_c, 0, 66, 0
1, 82560, Note_on_c, 0, 90, 71
1, 82560, Note_on_c, 0, 82, 60
1, 82560, Note_on_c, 0, 63, 34
1, 82680, Tempo, 1276596
1, 82680, Note_on_c, 0, 63, 0
1, 82680, Note_on_c, 0, 54, 34
1, 82800, Tempo, 1153846
1, 82800, Note_on_c, 0, 54, 0
1, 82800, Note_on_c, 0, 42, 65
1, 82817, Control_c, 0, 64, 0
1, 82865, Control_c, 0, 64, 127
1, 82920, Tempo, 1200000
1, 82920, Note_on_c, 0, 42, 0
1, 82920, Note_on_c, 0, 82, 0
1, 82920, Note_on_c, 0, 90, 0
1, 82920, Note_on_c, 0, 89, 73
1, 82920, Note_on_c, 0, 80, 62
1, 82920, Note_on_c, 0, 63, 40
1, 82980, Note_on_c, 0, 80, 0
1, 82980, Note_on_c, 0, 89, 0
1, 83000, Tempo, 1224490
1, 83020, Tempo, 1142857
1, 83040, Note_on_c, 0, 63, 0
1, 83040, Note_on_c, 0, 78, 56
1, 83040, Note_on_c, 0, 87, 67
1, 83040, Note_on_c, 0, 54, 42
1, 83080, Tempo, 1153846
1, 83080, Note_on_c, 0, 87, 0
1, 83080, Note_on_c, 0, 78, 0
1, 83120, Tempo, 1165049
1, 83120, Note_on_c, 0, 77, 57
1, 83120, Note_on_c, 0, 85, 68
1, 83160, Tempo, 1176471
1, 83160, Note_on_c, 0, 85, 0
1, 83160, Note_on_c, 0, 77, 0
1, 83160, Note_on_c, 0, 54, 0
1, 83160, Note_on_c, 0, 63, 44
1, 83200, Tempo, 1188119
1, 83200, Note_on_c, 0, 75, 59
1, 83200, Note_on_c, 0, 84, 70
1, 83240, Tempo, 1200000
1, 83240, Note_on_c, 0, 84, 0
1, 83240, Note_on_c, 0, 75, 0
1, 83280, Tempo, 1224490
1, 83280, Note_on_c, 0, 63, 0
1, 83280, Note_on_c, 0, 73, 60
1, 83280, Note_on_c, 0, 82, 71
1, 83280, Note_on_c, 0, 58, 46
1, 83300, Tempo, 1237113
1, 83320, Tempo, 1250000
1, 83320, Note_on_c, 0, 82, 0
1, 83320, Note_on_c, 0, 73, 0
1, 83340, Tempo, 1263158
1, 83360, Tempo, 1276596
1, 83360, Note_on_c, 0, 72, 61
1, 83360, Note_on_c, 0, 80, 72
1, 83380, Tempo, 1290323
1, 83400, Tempo, 1304348
1, 83400, Note_on_c, 0, 80, 0
1, 83400, Note_on_c, 0, 72, 0
1, 83400, Note_on_c, 0, 58, 0
1, 83400, Note_on_c, 0, 51, 48
1, 83420, Tempo, 1318681
1, 83440, Tempo, 1333333
1, 83440, Note_on_c, 0, 70, 62
1, 83440, Note_on_c, 0, 78, 73
1, 83460, Tempo, 1363636
1, 83480, Tempo, 1411765
1, 83480, Note_on_c, 0, 78, 0
1, 83480, Note_on_c, 0, 70, 0
1, 83500, Tempo, 1428571
1, 83520, Tempo, 1333333
1, 83520, Note_on_c, 0, 51, 0
1, 83520, Note_on_c, 0, 68, 61
1, 83520, Note_on_c, 0, 77, 72
1, 83520, Note_on_c, 0, 44, 52
1, 83534, Control_c, 0, 64, 0
1, 83575, Control_c, 0, 64, 127
1, 83580, Tempo, 1237113
1, 83640, Note_on_c, 0, 44, 0
1, 83640, Note_on_c, 0, 61, 44
1, 83760, Tempo, 1188119
1, 83760, Note_on_c, 0, 61, 0
1, 83760, Note_on_c, 0, 77, 0
1, 83760, Note_on_c, 0, 68, 0
1, 83760, Note_on_c, 0, 70, 64
1, 83760, Note_on_c, 0, 78, 76
1, 83760, Note_on_c, 0, 53, 44
1, 83880, Note_on_c, 0, 53, 0
1, 83880, Note_on_c, 0, 61, 44
1, 84000, Note_on_c, 0, 61, 0
1, 84000, Note_on_c, 0, 78, 0
1, 84000, Note_on_c, 0, 70, 0
1, 84000, Note_on_c, 0, 68, 62
1, 84000, Note_on_c, 0, 77, 74
1, 84000, Note_on_c, 0, 56, 44
1, 84120, Tempo, 1276596
1, 84120, Note_on_c, 0, 56, 0
1, 84120, Note_on_c, 0, 44, 44
1, 84240, Tempo, 1188119
1, 84240, Note_on_c, 0, 44, 0
1, 84240, Note_on_c, 0, 77, 0
1, 84240, Note_on_c, 0, 68, 0
1, 84240, Note_on_c, 0, 66, 62
1, 84240, Note_on_c, 0, 75, 73
1, 84240, Note_on_c, 0, 46, 57
1, 84257, Control_c, 0, 64, 0
1, 84305, Control_c, 0, 64, 127
1, 84360, Tempo, 1200000
1, 84360, Note_on_c, 0, 46, 0
1, 84360, Note_on_c, 0, 61, 48
1, 84480, Note_on_c, 0, 61, 0
1, 84480, Note_on_c, 0, 75, 0
1, 84480, Note_on_c, 0, 66, 0
1, 84480, Note_on_c, 0, 65, 60
1, 84480, Note_on_c, 0, 73, 71
1, 84480, Note_on_c, 0, 53, 48
1, 84600, Note_on_c, 0, 53, 0
1, 84600, Note_on_c, 0, 61, 48
1, 84720, Tempo, 1224490
1, 84720, Note_on_c, 0, 61, 0
1, 84720, Note_on_c, 0, 73, 0
1, 84720, Note_on_c, 0, 65, 0
1, 84720, Note_on_c, 0, 61, 60
1, 84720, Note_on_c, 0, 65, 71
1, 84720, Note_on_c, 0, 58, 48
1, 84740, Tempo, 1237113
1, 84760, Tempo, 1250000
1, 84780, Tempo, 1263158
1, 84800, Tempo, 1276596
1, 84820, Tempo, 1290323
1, 84840, Tempo, 1304348
1, 84840, Note_on_c, 0, 58, 0
1, 84840, Note_on_c, 0, 46, 49
1, 84960, Tempo, 1250000
1, 84960, Note_on_c, 0, 46, 0
1, 84960, Note_on_c, 0, 65, 0
1, 84960, Note_on_c, 0, 61, 0
1, 84960, Note_on_c, 0, 61, 65
1, 84960, Note_on_c, 0, 68, 77
1, 84960, Note_on_c, 0, 41, 58
1, 84973, Control_c, 0, 64, 0
1, 85015, Control_c, 0, 64, 127
1, 85080, Note_on_c, 0, 41, 0
1, 85080, Note_on_c, 0, 56, 51
1, 85200, Tempo, 1200000
1, 85200, Note_on_c, 0, 56, 0
1, 85200, Note_on_c, 0, 49, 51
1, 85320, Note_on_c, 0, 49, 0
1, 85320, Note_on_c, 0, 56, 51
1, 85440, Tempo, 1224490
1, 85440, Note_on_c, 0, 56, 0
1, 85440, Note_on_c, 0, 49, 51
1, 85560, Tempo, 1363636
1, 85560, Note_on_c, 0, 49, 0
1, 85560, Note_on_c, 0, 41, 52
1, 85680, Tempo, 1276596
1, 85680, Note_on_c, 0, 41, 0
1, 85680, Note_on_c, 0, 68, 0
1, 85680, Note_on_c, 0, 61, 0
1, 85680, Note_on_c, 0, 63, 66
1, 85680, Note_on_c, 0, 61, 66
1, 85680, Note_on_c, 0, 70, 78
1, 85680, Note_on_c, 0, 42, 64
1, 85697, Control_c, 0, 64, 0
1, 85745, Control_c, 0, 64, 127
1, 85800, Note_on_c, 0, 42, 0
1, 85800, Note_on_c, 0, 58, 51
1, 85920, Tempo, 1212121
1, 85920, Note_on_c, 0, 58, 0
1, 85920, Note_on_c, 0, 49, 52
1, 86040, Tempo, 1276596
1, 86040, Note_on_c, 0, 49, 0
1, 86040, Note_on_c, 0, 58, 54
1, 86100, Tempo, 1290323
1, 86140, Tempo, 1304348
1, 86160, Note_on_c, 0, 58, 0
1, 86160, Note_on_c, 0, 51, 55
1, 86200, Tempo, 1318681
1, 86260, Tempo, 1333333
1, 86280, Note_on_c, 0, 51, 0
1, 86280, Note_on_c, 0, 42, 56
1, 86300, Tempo, 1348315
1, 86400, Tempo, 1290323
1, 86400, Note_on_c, 0, 42, 0
1, 86400, Note_on_c, 0, 70, 0
1, 86400, Note_on_c, 0, 61, 0
1, 86400, Note_on_c, 0, 63, 0
1, 86400, Note_on_c, 0, 56, 66
1, 86400, Note_on_c, 0, 61, 66
1, 86400, Note_on_c, 0, 63, 78
1, 86400, Note_on_c, 0, 32, 58
1, 86415, Control_c, 0, 64, 0
1, 86455, Control_c, 0, 64, 127
1, 86520, Note_on_c, 0, 32, 0
1, 86520, Note_on_c, 0, 61, 51
1, 86640, Tempo, 1263158
1, 86640, Note_on_c, 0, 61, 0
1, 86640, Note_on_c, 0, 51, 51
1, 86760, Note_on_c, 0, 51, 0
1, 86760, Note_on_c, 0, 61, 51
1, 86800, Note_on_c, 0, 63, 0
1, 86800, Note_on_c, 0, 68, 61
1, 86840, Note_on_c, 0, 68, 0
1, 86840, Note_on_c, 0, 73, 63
1, 86880, Note_on_c, 0, 73, 0
1, 86880, Note_on_c, 0, 61, 0
1, 86880, Note_on_c, 0, 75, 65
1, 86880, Note_on_c, 0, 56, 51
1, 86920, Note_on_c, 0, 75, 0
1, 86920, Note_on_c, 0, 80, 67
1, 86960, Note_on_c, 0, 80, 0
1, 86960, Note_on_c, 0, 85, 68
1, 86964, Tempo, 1200000
1, 86968, Tempo, 1224490
1, 86980, Tempo, 1237113
1, 86988, Tempo, 1250000
1, 87000, Tempo, 1263158
1, 87000, Note_on_c, 0, 85, 0
1, 87000, Note_on_c, 0, 56, 0
1, 87000, Note_on_c, 0, 87, 70
1, 87000, Note_on_c, 0, 51, 52
1, 87008, Tempo, 1276596
1, 87020, Tempo, 1290323
1, 87028, Tempo, 1304348
1, 87040, Tempo, 1333333
1, 87040, Note_on_c, 0, 87, 0
1, 87040, Note_on_c, 0, 92, 72
1, 87048, Tempo, 1348315
1, 87060, Tempo, 1363636
1, 87068, Tempo, 1379310
1, 87080, Tempo, 1395349
1, 87080, Note_on_c, 0, 92, 0
1, 87080, Note_on_c, 0, 97, 73
1, 87088, Tempo, 1411765
1, 87100, Tempo, 1428571
1, 87108, Tempo, 1463415
1, 87120, Tempo, 1318681
1, 87120, Note_on_c, 0, 97, 0
1, 87120, Note_on_c, 0, 56, 0
1, 87120, Note_on_c, 0, 61, 0
1, 87120, Note_on_c, 0, 51, 0
1, 87120, Note_on_c, 0, 99, 92
1, 87120, Note_on_c, 0, 44, 64
1, 87240, Note_on_c, 0, 44, 0
1, 87240, Note_on_c, 0, 61, 51
1, 87360, Note_on_c, 0, 61, 0
1, 87360, Note_on_c, 0, 51, 52
1, 87400, Tempo, 1318681
1, 87460, Tempo, 1333333
1, 87480, Note_on_c, 0, 51, 0
1, 87480, Note_on_c, 0, 61, 54
1, 87520, Tempo, 1348315
1, 87520, Note_on_c, 0, 99, 0
1, 87520, Note_on_c, 0, 97, 78
1, 87560, Note_on_c, 0, 97, 0
1, 87560, Note_on_c, 0, 92, 76
1, 87580, Tempo, 1379310
1, 87600, Tempo, 1395349
1, 87600, Note_on_c, 0, 92, 0
1, 87600, Note_on_c, 0, 61, 0
1, 87600, Note_on_c, 0, 87, 74
1, 87600, Note_on_c, 0, 56, 55
1, 87620, Tempo, 1411765
1, 87640, Tempo, 1428571
1, 87640, Note_on_c, 0, 87, 0
1, 87640, Note_on_c, 0, 85, 72
1, 87660, Tempo, 1463415
1, 87680, Tempo, 1481481
1, 87680, Note_on_c, 0, 85, 0
1, 87680, Note_on_c, 0, 80, 69
1, 87700, Tempo, 1500000
1, 87720, Tempo, 1518987
1, 87720, Note_on_c, 0, 80, 0
1, 87720, Note_on_c, 0, 56, 0
1, 87720, Note_on_c, 0, 75, 67
1, 87720, Note_on_c, 0, 51, 56
1, 87740, Tempo, 1558442
1, 87760, Tempo, 1578947
1, 87760, Note_on_c, 0, 75, 0
1, 87760, Note_on_c, 0, 73, 65
1, 87780, Tempo, 1600000
1, 87800, Tempo, 1621622
1, 87800, Note_on_c, 0, 73, 0
1, 87800, Note_on_c, 0, 68, 63
1, 87820, Tempo, 1666667
1, 87840, Tempo, 1348315
1, 87840, Note_on_c, 0, 68, 0
1, 87840, Note_on_c, 0, 51, 0
1, 87840, Note_on_c, 0, 63, 78
1, 87840, Note_on_c, 0, 32, 58
1, 87960, Note_on_c, 0, 32, 0
1, 87960, Note_on_c, 0, 61, 51
1, 88080, Tempo, 1290323
1, 88080, Note_on_c, 0, 61, 0
1, 88080, Note_on_c, 0, 51, 51
1, 88200, Note_on_c, 0, 51, 0
1, 88200, Note_on_c, 0, 61, 51
1, 88300, Tempo, 1237113
1, 88320, Tempo, 1263158
1, 88320, Note_on_c, 0, 61, 0
1, 88320, Note_on_c, 0, 54, 51
1, 88360, Tempo, 1276596
1, 88380, Tempo, 1290323
1, 88400, Tempo, 1304348
1, 88420, Tempo, 1318681
1, 88440, Tempo, 1333333
1, 88440, Note_on_c, 0, 54, 0
1, 88440, Note_on_c, 0, 51, 52
1, 88480, Tempo, 1348315
1, 88500, Tempo, 1363636
1, 88520, Tempo, 1379310
1, 88540, Tempo, 1395349
1, 88560, Tempo, 1363636
1, 88560, Note_on_c, 0, 51, 0
1, 88560, Note_on_c, 0, 63, 0
1, 88560, Note_on_c, 0, 65, 66
1, 88560, Note_on_c, 0, 56, 66
1, 88560, Note_on_c, 0, 68, 78
1, 88560, Note_on_c, 0, 44, 64
1, 88577, Control_c, 0, 64, 0
1, 88625, Control_c, 0, 64, 127
1, 88680, Note_on_c, 0, 44, 0
1, 88680, Note_on_c, 0, 60, 51
1, 88800, Tempo, 1379310
1, 88800, Note_on_c, 0, 60, 0
1, 88800, Note_on_c, 0, 51, 52
1, 88920, Note_on_c, 0, 51, 0
1, 88920, Note_on_c, 0, 65, 0
1, 88920, Note_on_c, 0, 63, 72
1, 88920, Note_on_c, 0, 60, 54
1, 89020, Tempo, 1538462
1, 89040, Tempo, 1558442
1, 89040, Note_on_c, 0, 60, 0
1, 89040, Note_on_c, 0, 63, 0
1, 89040, Note_on_c, 0, 65, 78
1, 89040, Note_on_c, 0, 54, 55
1, 89060, Tempo, 1578947
1, 89080, Tempo, 1600000
1, 89100, Tempo, 1621622
1, 89120, Tempo, 1643836
1, 89120, Note_on_c, 0, 65, 0
1, 89120, Note_on_c, 0, 63, 75
1, 89140, Tempo, 1666667
1, 89160, Tempo, 1690141
1, 89160, Note_on_c, 0, 54, 0
1, 89160, Note_on_c, 0, 44, 56
1, 89180, Tempo, 1714286
1, 89200, Note_on_c, 0, 63, 0
1, 89200, Note_on_c, 0, 61, 75
1, 89228, Tempo, 1643836
1, 89240, Tempo, 1846154
1, 89248, Tempo, 2142857
1, 89260, Tempo, 2500000
1, 89268, Tempo, 3076923
1, 89280, Tempo, 1348315
1, 89280, Note_on_c, 0, 61, 0
1, 89280, Note_on_c, 0, 44, 0
1, 89280, Note_on_c, 0, 68, 0
1, 89280, Note_on_c, 0, 56, 0
1, 89280, Note_on_c, 0, 61, 78
1, 89280, Note_on_c, 0, 37, 64
1, 89293, Control_c, 0, 64, 0
1, 89320, Tempo, 1333333
1, 89331, Control_c, 0, 64, 127
1, 89340, Tempo, 1318681
1, 89380, Tempo, 1304348
1, 89400, Tempo, 1290323
1, 89400, Note_on_c, 0, 37, 0
1, 89400, Note_on_c, 0, 65, 26
1, 89420, Tempo, 1276596
1, 89460, Tempo, 1263158
1, 89480, Tempo, 1250000
1, 89500, Tempo, 1237113
1, 89520, Tempo, 1188119
1, 89520, Note_on_c, 0, 65, 0
1, 89520, Note_on_c, 0, 56, 26
1, 89640, Note_on_c, 0, 56, 0
1, 89640, Note_on_c, 0, 65, 26
1, 89760, Note_on_c, 0, 65, 0
1, 89760, Note_on_c, 0, 61, 0
1, 89760, Note_on_c, 0, 61, 26
1, 89880, Tempo, 1333333
1, 89880, Note_on_c, 0, 61, 0
1, 89880, Note_on_c, 0, 53, 26
1, 90000, Tempo, 1237113
1, 90000, Note_on_c, 0, 53, 0
1, 90000, Note_on_c, 0, 85, 62
1, 90000, Note_on_c, 0, 49, 30
1, 90015, Control_c, 0, 64, 0
1, 90080, Control_c, 0, 64, 127
1, 90120, Note_on_c, 0, 49, 0
1, 90120, Note_on_c, 0, 64, 26
1, 90240, Tempo, 1188119
1, 90240, Note_on_c, 0, 64, 0
1, 90240, Note_on_c, 0, 85, 0
1, 90240, Note_on_c, 0, 79, 55
1, 90240, Note_on_c, 0, 58, 26
1, 90360, Note_on_c, 0, 58, 0
1, 90360, Note_on_c, 0, 64, 26
1, 90480, Note_on_c, 0, 64, 0
1, 90480, Note_on_c, 0, 61, 26
1, 90560, Tempo, 1224490
1, 90580, Tempo, 1250000
1, 90600, Tempo, 1333333
1, 90600, Note_on_c, 0, 61, 0
1, 90600, Note_on_c, 0, 55, 26
1, 90720, Tempo, 1237113
1, 90720, Note_on_c, 0, 55, 0
1, 90720, Note_on_c, 0, 79, 0
1, 90720, Note_on_c, 0, 84, 62
1, 90720, Note_on_c, 0, 49, 30
1, 90739, Control_c, 0, 64, 0
1, 90800, Control_c, 0, 64, 127
1, 90840, Note_on_c, 0, 49, 0
1, 90840, Note_on_c, 0, 63, 26
1, 90960, Tempo, 1188119
1, 90960, Note_on_c, 0, 63, 0
1, 90960, Note_on_c, 0, 84, 0
1, 90960, Note_on_c, 0, 78, 55
1, 90960, Note_on_c, 0, 57, 26
1, 91080, Note_on_c, 0, 57, 0
1, 91080, Note_on_c, 0, 63, 26
1, 91200, Note_on_c, 0, 63, 0
1, 91200, Note_on_c, 0, 60, 26
1, 91280, Tempo, 1224490
1, 91300, Tempo, 1250000
1, 91320, Tempo, 1333333
1, 91320, Note_on_c, 0, 60, 0
1, 91320, Note_on_c, 0, 54, 26
1, 91440, Tempo, 1237113
1, 91440, Note_on_c, 0, 54, 0
1, 91440, Note_on_c, 0, 78, 0
1, 91440, Note_on_c, 0, 83, 62
1, 91440, Note_on_c, 0, 49, 30
1, 91459, Control_c, 0, 64, 0
1, 91520, Control_c, 0, 64, 127
1, 91560, Note_on_c, 0, 62, 26
1, 91680, Tempo, 1188119
1, 91680, Note_on_c, 0, 62, 0
1, 91680, Note_on_c, 0, 83, 0
1, 91680, Note_on_c, 0, 77, 54
1, 91680, Note_on_c, 0, 56, 25
1, 91800, Note_on_c, 0, 56, 0
1, 91800, Note_on_c, 0, 62, 25
1, 91920, Note_on_c, 0, 62, 0
1, 91920, Note_on_c, 0, 59, 25
1, 92000, Tempo, 1224490
1, 92020, Tempo, 1250000
1, 92040, Tempo, 1333333
1, 92040, Note_on_c, 0, 59, 0
1, 92040, Note_on_c, 0, 53, 25
1, 92160, Tempo, 1237113
1, 92160, Note_on_c, 0, 53, 0
1, 92160, Note_on_c, 0, 77, 0
1, 92160, Note_on_c, 0, 49, 0
1, 92160, Note_on_c, 0, 82, 60
1, 92160, Note_on_c, 0, 49, 28
1, 92178, Control_c, 0, 64, 0
1, 92205, Control_c, 0, 64, 127
1, 92280, Note_on_c, 0, 61, 25
1, 92400, Tempo, 1188119
1, 92400, Note_on_c, 0, 61, 0
1, 92400, Note_on_c, 0, 82, 0
1, 92400, Note_on_c, 0, 76, 52
1, 92400, Note_on_c, 0, 55, 24
1, 92520, Note_on_c, 0, 55, 0
1, 92520, Note_on_c, 0, 61, 24
1, 92640, Note_on_c, 0, 61, 0
1, 92640, Note_on_c, 0, 58, 24
1, 92720, Tempo, 1224490
1, 92740, Tempo, 1250000
1, 92760, Tempo, 1333333
1, 92760, Note_on_c, 0, 58, 0
1, 92760, Note_on_c, 0, 52, 24
1, 92880, Tempo, 1237113
1, 92880, Note_on_c, 0, 52, 0
1, 92880, Note_on_c, 0, 76, 0
1, 92880, Note_on_c, 0, 49, 0
1, 92880, Note_on_c, 0, 81, 58
1, 92880, Note_on_c, 0, 49, 28
1, 92897, Control_c, 0, 64, 0
1, 92960, Control_c, 0, 64, 127
1, 93000, Note_on_c, 0, 61, 23
1, 93120, Tempo, 1188119
1, 93120, Note_on_c, 0, 61, 0
1, 93120, Note_on_c, 0, 81, 0
1, 93120, Note_on_c, 0, 75, 51
1, 93120, Note_on_c, 0, 54, 23
1, 93240, Note_on_c, 0, 54, 0
1, 93240, Note_on_c, 0, 61, 23
1, 93360, Note_on_c, 0, 61, 0
1, 93360, Note_on_c, 0, 57, 23
1, 93440, Tempo, 1224490
1, 93460, Tempo, 1250000
1, 93480, Tempo, 1333333
1, 93480, Note_on_c, 0, 57, 0
1, 93480, Note_on_c, 0, 51, 23
1, 93600, Tempo, 1237113
1, 93600, Note_on_c, 0, 51, 0
1, 93600, Note_on_c, 0, 75, 0
1, 93600, Note_on_c, 0, 49, 0
1, 93600, Note_on_c, 0, 80, 60
1, 93600, Note_on_c, 0, 49, 27
1, 93617, Control_c, 0, 64, 0
1, 93645, Control_c, 0, 64, 127
1, 93720, Note_on_c, 0, 49, 0
1, 93720, Note_on_c, 0, 60, 22
1, 93840, Tempo, 1188119
1, 93840, Note_on_c, 0, 60, 0
1, 93840, Note_on_c, 0, 54, 22
1, 93960, Note_on_c, 0, 54, 0
1, 93960, Note_on_c, 0, 60, 22
1, 94080, Note_on_c, 0, 60, 0
1, 94080, Note_on_c, 0, 68, 43
1, 94080, Note_on_c, 0, 56, 22
1, 94170, Note_on_c, 0, 68, 0
1, 94200, Note_on_c, 0, 56, 0
1, 94200, Note_on_c, 0, 70, 44
1, 94200, Note_on_c, 0, 51, 22
1, 94290, Note_on_c, 0, 70, 0
1, 94320, Note_on_c, 0, 51, 0
1, 94320, Note_on_c, 0, 72, 45
1, 94320, Note_on_c, 0, 49, 27
1, 94338, Control_c, 0, 64, 0
1, 94340, Tempo, 1212121
1, 94374, Control_c, 0, 64, 127
1, 94410, Note_on_c, 0, 72, 0
1, 94420, Tempo, 1224490
1, 94440, Note_on_c, 0, 49, 0
1, 94440, Note_on_c, 0, 73, 46
1, 94440, Note_on_c, 0, 60, 22
1, 94500, Tempo, 1237113
1, 94530, Note_on_c, 0, 73, 0
1, 94560, Note_on_c, 0, 60, 0
1, 94560, Note_on_c, 0, 74, 47
1, 94560, Note_on_c, 0, 54, 22
1, 94580, Tempo, 1250000
1, 94650, Note_on_c, 0, 74, 0
1, 94660, Tempo, 1263158
1, 94680, Note_on_c, 0, 54, 0
1, 94680, Note_on_c, 0, 75, 48
1, 94680, Note_on_c, 0, 60, 22
1, 94740, Tempo, 1276596
1, 94770, Note_on_c, 0, 75, 0
1, 94800, Note_on_c, 0, 60, 0
1, 94800, Note_on_c, 0, 77, 50
1, 94800, Note_on_c, 0, 56, 22
1, 94820, Tempo, 1290323
1, 94880, Tempo, 1304348
1, 94890, Note_on_c, 0, 77, 0
1, 94900, Tempo, 1250000
1, 94920, Tempo, 1333333
1, 94920, Note_on_c, 0, 56, 0
1, 94920, Note_on_c, 0, 78, 51
1, 94920, Note_on_c, 0, 51, 22
1, 95010, Note_on_c, 0, 78, 0
1, 95040, Tempo, 1348315
1, 95040, Note_on_c, 0, 51, 0
1, 95040, Note_on_c, 0, 77, 54
1, 95040, Note_on_c, 0, 37, 27
1, 95052, Control_c, 0, 64, 0
1, 95080, Tempo, 1333333
1, 95091, Control_c, 0, 64, 127
1, 95100, Tempo, 1318681
1, 95140, Tempo, 1304348
1, 95160, Tempo, 1290323
1, 95160, Note_on_c, 0, 37, 0
1, 95160, Note_on_c, 0, 65, 22
1, 95180, Tempo, 1276596
1, 95220, Tempo, 1263158
1, 95240, Tempo, 1250000
1, 95260, Tempo, 1237113
1, 95280, Tempo, 1188119
1, 95280, Note_on_c, 0, 65, 0
1, 95280, Note_on_c, 0, 56, 22
1, 95400, Note_on_c, 0, 56, 0
1, 95400, Note_on_c, 0, 65, 22
1, 95520, Note_on_c, 0, 65, 0
1, 95520, Note_on_c, 0, 77, 0
1, 95520, Note_on_c, 0, 80, 0
1, 95520, Note_on_c, 0, 61, 22
1, 95640, Tempo, 1333333
1, 95640, Note_on_c, 0, 61, 0
1, 95640, Note_on_c, 0, 53, 22
1, 95760, Tempo, 1237113
1, 95760, Note_on_c, 0, 53, 0
1, 95760, Note_on_c, 0, 85, 55
1, 95760, Note_on_c, 0, 49, 27
1, 95776, Control_c, 0, 64, 0
1, 95817, Control_c, 0, 64, 127
1, 95880, Note_on_c, 0, 49, 0
1, 95880, Note_on_c, 0, 64, 22
1, 95940, Note_on_c, 0, 64, 0
1, 95940, Note_on_c, 0, 94, 41
1, 96000, Tempo, 1188119
1, 96000, Note_on_c, 0, 94, 0
1, 96000, Note_on_c, 0, 85, 0
1, 96000, Note_on_c, 0, 79, 49
1, 96000, Note_on_c, 0, 58, 22
1, 96120, Note_on_c, 0, 58, 0
1, 96120, Note_on_c, 0, 64, 22
1, 96180, Note_on_c, 0, 64, 0
1, 96240, Note_on_c, 0, 61, 22
1, 96320, Tempo, 1224490
1, 96340, Tempo, 1250000
1, 96360, Tempo, 1333333
1, 96360, Note_on_c, 0, 61, 0
1, 96360, Note_on_c, 0, 55, 22
1, 96480, Tempo, 1237113
1, 96480, Note_on_c, 0, 55, 0
1, 96480, Note_on_c, 0, 79, 0
1, 96480, Note_on_c, 0, 84, 55
1, 96480, Note_on_c, 0, 49, 27
1, 96499, Control_c, 0, 64, 0
1, 96560, Control_c, 0, 64, 127
1, 96600, Note_on_c, 0, 49, 0
1, 96600, Note_on_c, 0, 63, 22
1, 96660, Note_on_c, 0, 93, 41
1, 96720, Tempo, 1188119
1, 96720, Note_on_c, 0, 93, 0
1, 96720, Note_on_c, 0, 63, 0
1, 96720, Note_on_c, 0, 84, 0
1, 96720, Note_on_c, 0, 78, 49
1, 96720, Note_on_c, 0, 57, 22
1, 96840, Note_on_c, 0, 57, 0
1, 96840, Note_on_c, 0, 63, 22
1, 96960, Note_on_c, 0, 63, 0
1, 96960, Note_on_c, 0, 60, 22
1, 97040, Tempo, 1224490
1, 97060, Tempo, 1250000
1, 97080, Tempo, 1333333
1, 97080, Note_on_c, 0, 60, 0
1, 97080, Note_on_c, 0, 54, 22
1, 97200, Tempo, 1237113
1, 97200, Note_on_c, 0, 54, 0
1, 97200, Note_on_c, 0, 78, 0
1, 97200, Note_on_c, 0, 83, 55
1, 97200, Note_on_c, 0, 49, 27
1, 97216, Control_c, 0, 64, 0
1, 97280, Control_c, 0, 64, 127
1, 97320, Note_on_c, 0, 49, 0
1, 97320, Note_on_c, 0, 62, 22
1, 97380, Note_on_c, 0, 92, 41
1, 97440, Tempo, 1188119
1, 97440, Note_on_c, 0, 92, 0
1, 97440, Note_on_c, 0, 62, 0
1, 97440, Note_on_c, 0, 83, 0
1, 97440, Note_on_c, 0, 77, 49
1, 97440, Note_on_c, 0, 56, 22
1, 97560, Note_on_c, 0, 56, 0
1, 97560, Note_on_c, 0, 62, 22
1, 97680, Note_on_c, 0, 62, 0
1, 97680, Note_on_c, 0, 59, 22
1, 97760, Tempo, 1224490
1, 97780, Tempo, 1250000
1, 97800, Tempo, 1333333
1, 97800, Note_on_c, 0, 59, 0
1, 97800, Note_on_c, 0, 53, 22
1, 97920, Tempo, 1237113
1, 97920, Note_on_c, 0, 53, 0
1, 97920, Note_on_c, 0, 77, 0
1, 97920, Note_on_c, 0, 82, 55
1, 97920, Note_on_c, 0, 49, 27
1, 97938, Control_c, 0, 64, 0
1, 97965, Control_c, 0, 64, 127
1, 98040, Note_on_c, 0, 61, 22
1, 98100, Note_on_c, 0, 91, 41
1, 98160, Tempo, 1188119
1, 98160, Note_on_c, 0, 91, 0
1, 98160, Note_on_c, 0, 61, 0
1, 98160, Note_on_c, 0, 82, 0
1, 98160, Note_on_c, 0, 76, 49
1, 98160, Note_on_c, 0, 55, 22
1, 98280, Note_on_c, 0, 55, 0
1, 98280, Note_on_c, 0, 61, 22
1, 98400, Note_on_c, 0, 61, 0
1, 98400, Note_on_c, 0, 58, 22
1, 98480, Tempo, 1224490
1, 98500, Tempo, 1250000
1, 98520, Tempo, 1333333
1, 98520, Note_on_c, 0, 58, 0
1, 98520, Note_on_c, 0, 52, 22
1, 98640, Tempo, 1237113
1, 98640, Note_on_c, 0, 52, 0
1, 98640, Note_on_c, 0, 76, 0
1, 98640, Note_on_c, 0, 49, 0
1, 98640, Note_on_c, 0, 81, 55
1, 98640, Note_on_c, 0, 49, 27
1, 98656, Control_c, 0, 64, 0
1, 98720, Control_c, 0, 64, 127
1, 98760, Note_on_c, 0, 61, 22
1, 98820, Note_on_c, 0, 90, 41
1, 98880, Tempo, 1188119
1, 98880, Note_on_c, 0, 90, 0
1, 98880, Note_on_c, 0, 61, 0
1, 98880, Note_on_c, 0, 81, 0
1, 98880, Note_on_c, 0, 75, 49
1, 98880, Note_on_c, 0, 54, 22
1, 99000, Note_on_c, 0, 54, 0
1, 99000, Note_on_c, 0, 61, 22
1, 99120, Note_on_c, 0, 61, 0
1, 99120, Note_on_c, 0, 57, 22
1, 99200, Tempo, 1224490
1, 99220, Tempo, 1250000
1, 99240, Tempo, 1333333
1, 99240, Note_on_c, 0, 57, 0
1, 99240, Note_on_c, 0, 51, 22
1, 99360, Tempo, 1276596
1, 99360, Note_on_c, 0, 51, 0
1, 99360, Note_on_c, 0, 75, 0
1, 99360, Note_on_c, 0, 49, 0
1, 99360, Note_on_c, 0, 80, 55
1, 99360, Note_on_c, 0, 49, 27
1, 99379, Control_c, 0, 64, 0
1, 99405, Control_c, 0, 64, 127
1, 99480, Note_on_c, 0, 49, 0
1, 99480, Note_on_c, 0, 60, 22
1, 99600, Tempo, 1237113
1, 99600, Note_on_c, 0, 60, 0
1, 99600, Note_on_c, 0, 54, 22
1, 99720, Note_on_c, 0, 54, 0
1, 99720, Note_on_c, 0, 60, 22
1, 99840, Note_on_c, 0, 60, 0
1, 99840, Note_on_c, 0, 56, 22
1, 99960, Note_on_c, 0, 56, 0
1, 99960, Note_on_c, 0, 51, 22
1, 100080, Tempo, 1250000
1, 100080, Note_on_c, 0, 51, 0
1, 100080, Note_on_c, 0, 49, 27
1, 100100, Control_c, 0, 64, 0
1, 100140, Tempo, 1263158
1, 100160, Control_c, 0, 64, 127
1, 100200, Tempo, 1276596
1, 100200, Note_on_c, 0, 49, 0
1, 100200, Note_on_c, 0, 79, 47
1, 100200, Note_on_c, 0, 60, 22
1, 100220, Tempo, 1237113
1, 100260, Tempo, 1224490
1, 100280, Tempo, 1263158
1, 100290, Note_on_c, 0, 79, 0
1, 100300, Tempo, 1263158
1, 100320, Note_on_c, 0, 60, 0
1, 100320, Note_on_c, 0, 78, 46
1, 100320, Note_on_c, 0, 54, 22
1, 100340, Tempo, 1276596
1, 100380, Tempo, 1290323
1, 100410, Note_on_c, 0, 78, 0
1, 100420, Tempo, 1304348
1, 100440, Tempo, 1318681
1, 100440, Note_on_c, 0, 54, 0
1, 100440, Note_on_c, 0, 77, 45
1, 100440, Note_on_c, 0, 60, 22
1, 100480, Tempo, 1333333
1, 100520, Tempo, 1348315
1, 100530, Note_on_c, 0, 77, 0
1, 100540, Tempo, 1363636
1, 100560, Note_on_c, 0, 60, 0
1, 100560, Note_on_c, 0, 75, 45
1, 100560, Note_on_c, 0, 56, 22
1, 100580, Tempo, 1379310
1, 100620, Tempo, 1395349
1, 100650, Note_on_c, 0, 75, 0
1, 100660, Tempo, 1411765
1, 100680, Tempo, 1428571
1, 100680, Note_on_c, 0, 56, 0
1, 100680, Note_on_c, 0, 77, 43
1, 100680, Note_on_c, 0, 51, 22
1, 100720, Tempo, 1445783
1, 100760, Tempo, 1463415
1, 100770, Note_on_c, 0, 77, 0
1, 100780, Tempo, 1481481
1, 100800, Tempo, 1378993
1, 100800, Note_on_c, 0, 51, 0
1, 100800, Note_on_c, 0, 73, 52
1, 100800, Note_on_c, 0, 37, 27
1, 100818, Control_c, 0, 64, 0
1, 100845, Control_c, 0, 64, 127
1, 100920, Note_on_c, 0, 37, 0
1, 100920, Note_on_c, 0, 61, 22
1, 101040, Tempo, 1295057
1, 101040, Note_on_c, 0, 61, 0
1, 101040, Note_on_c, 0, 49, 22
1, 101160, Note_on_c, 0, 49, 0
1, 101160, Note_on_c, 0, 61, 22
1, 101280, Note_on_c, 0, 61, 0
1, 101280, Note_on_c, 0, 53, 22
1, 101400, Note_on_c, 0, 53, 0
1, 101400, Note_on_c, 0, 44, 22
1, 101480, Tempo, 1394052
1, 101500, Tempo, 1311189
1, 101520, Note_on_c, 0, 44, 0
1, 101520, Note_on_c, 0, 80, 0
1, 101520, Note_on_c, 0, 77, 46
1, 101520, Note_on_c, 0, 37, 26
1, 101539, Control_c, 0, 64, 0
1, 101560, Tempo, 1324211
1, 101600, Tempo, 1337494
1, 101600, Control_c, 0, 64, 127
1, 101640, Note_on_c, 0, 37, 0
1, 101640, Note_on_c, 0, 77, 0
1, 101640, Note_on_c, 0, 78, 45
1, 101640, Note_on_c, 0, 61, 22
1, 101660, Tempo, 1351656
1, 101700, Tempo, 1364877
1, 101740, Tempo, 1378993
1, 101760, Note_on_c, 0, 61, 0
1, 101760, Note_on_c, 0, 78, 0
1, 101760, Note_on_c, 0, 79, 46
1, 101760, Note_on_c, 0, 49, 22
1, 101800, Tempo, 1394052
1, 101840, Tempo, 1407790
1, 101880, Note_on_c, 0, 49, 0
1, 101880, Note_on_c, 0, 79, 0
1, 101880, Note_on_c, 0, 80, 48
1, 101880, Note_on_c, 0, 61, 22
1, 101900, Tempo, 1423150
1, 101940, Tempo, 1438504
1, 101980, Tempo, 1453841
1, 102000, Note_on_c, 0, 61, 0
1, 102000, Note_on_c, 0, 80, 0
1, 102000, Note_on_c, 0, 84, 48
1, 102000, Note_on_c, 0, 53, 22
1, 102020, Tempo, 1438504
1, 102120, Note_on_c, 0, 53, 0
1, 102120, Note_on_c, 0, 84, 0
1, 102120, Note_on_c, 0, 82, 47
1, 102120, Note_on_c, 0, 44, 22
1, 102240, Tempo, 1387283
1, 102240, Note_on_c, 0, 44, 0
1, 102240, Note_on_c, 0, 82, 0
1, 102240, Note_on_c, 0, 73, 0
1, 102240, Note_on_c, 0, 72, 45
1, 102240, Note_on_c, 0, 80, 53
1, 102240, Note_on_c, 0, 37, 26
1, 102259, Control_c, 0, 64, 0
1, 102285, Control_c, 0, 64, 127
1, 102360, Note_on_c, 0, 37, 0
1, 102360, Note_on_c, 0, 72, 0
1, 102360, Note_on_c, 0, 73, 45
1, 102360, Note_on_c, 0, 60, 21
1, 102480, Tempo, 1339286
1, 102480, Note_on_c, 0, 60, 0
1, 102480, Note_on_c, 0, 73, 0
1, 102480, Note_on_c, 0, 74, 45
1, 102480, Note_on_c, 0, 51, 21
1, 102600, Note_on_c, 0, 51, 0
1, 102600, Note_on_c, 0, 74, 0
1, 102600, Note_on_c, 0, 75, 45
1, 102600, Note_on_c, 0, 60, 21
1, 102720, Tempo, 1324503
1, 102720, Note_on_c, 0, 60, 0
1, 102720, Note_on_c, 0, 75, 0
1, 102720, Note_on_c, 0, 78, 44
1, 102720, Note_on_c, 0, 54, 21
1, 102840, Note_on_c, 0, 54, 0
1, 102840, Note_on_c, 0, 78, 0
1, 102840, Note_on_c, 0, 77, 44
1, 102840, Note_on_c, 0, 44, 21
1, 102960, Note_on_c, 0, 44, 0
1, 102960, Note_on_c, 0, 77, 0
1, 102960, Note_on_c, 0, 75, 44
1, 102960, Note_on_c, 0, 37, 25
1, 102978, Control_c, 0, 64, 0
1, 102980, Tempo, 1280956
1, 103040, Control_c, 0, 64, 127
1, 103060, Tempo, 1295057
1, 103080, Note_on_c, 0, 37, 0
1, 103080, Note_on_c, 0, 80, 0
1, 103080, Note_on_c, 0, 79, 44
1, 103080, Note_on_c, 0, 60, 21
1, 103140, Tempo, 1309472
1, 103200, Tempo, 1324503
1, 103200, Note_on_c, 0, 60, 0
1, 103200, Note_on_c, 0, 79, 0
1, 103200, Note_on_c, 0, 78, 43
1, 103200, Note_on_c, 0, 51, 21
1, 103280, Tempo, 1339585
1, 103320, Note_on_c, 0, 51, 0
1, 103320, Note_on_c, 0, 78, 0
1, 103320, Note_on_c, 0, 77, 42
1, 103320, Note_on_c, 0, 60, 21
1, 103360, Tempo, 1355320
1, 103420, Tempo, 1371429
1, 103440, Note_on_c, 0, 60, 0
1, 103440, Note_on_c, 0, 77, 0
1, 103440, Note_on_c, 0, 75, 0
1, 103440, Note_on_c, 0, 68, 40
1, 103440, Note_on_c, 0, 75, 42
1, 103440, Note_on_c, 0, 54, 21
1, 103460, Tempo, 1387283
1, 103560, Tempo, 1573152
1, 103560, Note_on_c, 0, 54, 0
1, 103560, Note_on_c, 0, 75, 0
1, 103560, Note_on_c, 0, 77, 39
1, 103560, Note_on_c, 0, 44, 21
1, 103680, Tempo, 1430274
1, 103680, Note_on_c, 0, 44, 0
1, 103680, Note_on_c, 0, 77, 0
1, 103680, Note_on_c, 0, 68, 0
1, 103680, Note_on_c, 0, 69, 43
1, 103680, Note_on_c, 0, 73, 48
1, 103680, Note_on_c, 0, 37, 24
1, 103698, Control_c, 0, 64, 0
1, 103725, Control_c, 0, 64, 127
1, 103800, Note_on_c, 0, 37, 0
1, 103800, Note_on_c, 0, 69, 0
1, 103800, Note_on_c, 0, 68, 43
1, 103800, Note_on_c, 0, 61, 21
1, 103920, Tempo, 1383126
1, 103920, Note_on_c, 0, 61, 0
1, 103920, Note_on_c, 0, 68, 0
1, 103920, Note_on_c, 0, 67, 43
1, 103920, Note_on_c, 0, 49, 20
1, 103940, Tempo, 1324503
1, 104040, Note_on_c, 0, 49, 0
1, 104040, Note_on_c, 0, 67, 0
1, 104040, Note_on_c, 0, 68, 43
1, 104040, Note_on_c, 0, 61, 20
1, 104100, Note_on_c, 0, 72, 37
1, 104160, Tempo, 1371429
1, 104160, Note_on_c, 0, 72, 0
1, 104160, Note_on_c, 0, 61, 0
1, 104160, Note_on_c, 0, 68, 0
1, 104160, Note_on_c, 0, 70, 43
1, 104160, Note_on_c, 0, 53, 20
1, 104280, Tempo, 1510574
1, 104280, Note_on_c, 0, 53, 0
1, 104280, Note_on_c, 0, 70, 0
1, 104280, Note_on_c, 0, 68, 42
1, 104280, Note_on_c, 0, 44, 20
1, 104400, Tempo, 1398927
1, 104400, Note_on_c, 0, 44, 0
1, 104400, Note_on_c, 0, 68, 0
1, 104400, Note_on_c, 0, 73, 0
1, 104400, Note_on_c, 0, 68, 42
1, 104400, Note_on_c, 0, 77, 42
1, 104400, Note_on_c, 0, 37, 24
1, 104417, Control_c, 0, 64, 0
1, 104480, Tempo, 1383126
1, 104480, Control_c, 0, 64, 127
1, 104520, Note_on_c, 0, 37, 0
1, 104520, Note_on_c, 0, 77, 0
1, 104520, Note_on_c, 0, 78, 41
1, 104520, Note_on_c, 0, 61, 20
1, 104540, Tempo, 1398927
1, 104600, Tempo, 1414761
1, 104640, Note_on_c, 0, 61, 0
1, 104640, Note_on_c, 0, 78, 0
1, 104640, Note_on_c, 0, 79, 42
1, 104640, Note_on_c, 0, 49, 20
1, 104680, Tempo, 1430274
1, 104740, Tempo, 1447178
1, 104760, Note_on_c, 0, 49, 0
1, 104760, Note_on_c, 0, 79, 0
1, 104760, Note_on_c, 0, 80, 44
1, 104760, Note_on_c, 0, 61, 20
1, 104800, Tempo, 1463772
1, 104820, Tempo, 1438504
1, 104860, Tempo, 1453841
1, 104880, Note_on_c, 0, 61, 0
1, 104880, Note_on_c, 0, 80, 0
1, 104880, Note_on_c, 0, 68, 0
1, 104880, Note_on_c, 0, 84, 45
1, 104880, Note_on_c, 0, 53, 20
1, 104900, Tempo, 1438504
1, 105000, Note_on_c, 0, 53, 0
1, 105000, Note_on_c, 0, 84, 0
1, 105000, Note_on_c, 0, 82, 44
1, 105000, Note_on_c, 0, 44, 20
1, 105120, Tempo, 1472754
1, 105120, Note_on_c, 0, 44, 0
1, 105120, Note_on_c, 0, 82, 0
1, 105120, Note_on_c, 0, 72, 41
1, 105120, Note_on_c, 0, 80, 48
1, 105120, Note_on_c, 0, 37, 23
1, 105139, Control_c, 0, 64, 0
1, 105165, Control_c, 0, 64, 127
1, 105240, Note_on_c, 0, 37, 0
1, 105240, Note_on_c, 0, 72, 0
1, 105240, Note_on_c, 0, 73, 41
1, 105240, Note_on_c, 0, 60, 20
1, 105360, Tempo, 1393728
1, 105360, Note_on_c, 0, 60, 0
1, 105360, Note_on_c, 0, 73, 0
1, 105360, Note_on_c, 0, 74, 41
1, 105360, Note_on_c, 0, 51, 20
1, 105480, Note_on_c, 0, 51, 0
1, 105480, Note_on_c, 0, 74, 0
1, 105480, Note_on_c, 0, 75, 41
1, 105480, Note_on_c, 0, 60, 19
1, 105600, Note_on_c, 0, 60, 0
1, 105600, Note_on_c, 0, 75, 0
1, 105600, Note_on_c, 0, 78, 41
1, 105600, Note_on_c, 0, 54, 19
1, 105720, Note_on_c, 0, 54, 0
1, 105720, Note_on_c, 0, 78, 0
1, 105720, Note_on_c, 0, 77, 41
1, 105720, Note_on_c, 0, 44, 19
1, 105820, Tempo, 1378993
1, 105840, Note_on_c, 0, 44, 0
1, 105840, Note_on_c, 0, 77, 0
1, 105840, Note_on_c, 0, 75, 40
1, 105840, Note_on_c, 0, 37, 22
1, 105858, Control_c, 0, 64, 0
1, 105920, Tempo, 1393728
1, 105920, Control_c, 0, 64, 127
1, 105960, Note_on_c, 0, 37, 0
1, 105960, Note_on_c, 0, 80, 0
1, 105960, Note_on_c, 0, 79, 40
1, 105960, Note_on_c, 0, 60, 19
1, 106000, Tempo, 1408781
1, 106080, Tempo, 1424163
1, 106080, Note_on_c, 0, 60, 0
1, 106080, Note_on_c, 0, 79, 0
1, 106080, Note_on_c, 0, 78, 40
1, 106080, Note_on_c, 0, 51, 19
1, 106160, Tempo, 1440230
1, 106200, Note_on_c, 0, 51, 0
1, 106200, Note_on_c, 0, 78, 0
1, 106200, Note_on_c, 0, 77, 38
1, 106200, Note_on_c, 0, 60, 19
1, 106240, Tempo, 1456311
1, 106320, Tempo, 1472754
1, 106320, Note_on_c, 0, 60, 0
1, 106320, Note_on_c, 0, 77, 0
1, 106320, Note_on_c, 0, 75, 0
1, 106320, Note_on_c, 0, 68, 36
1, 106320, Note_on_c, 0, 75, 38
1, 106320, Note_on_c, 0, 54, 19
1, 106440, Note_on_c, 0, 54, 0
1, 106440, Note_on_c, 0, 75, 0
1, 106440, Note_on_c, 0, 77, 36
1, 106440, Note_on_c, 0, 44, 19
1, 106560, Tempo, 1472754
1, 106560, Note_on_c, 0, 44, 0
1, 106560, Note_on_c, 0, 77, 0
1, 106560, Note_on_c, 0, 68, 0
1, 106560, Note_on_c, 0, 65, 34
1, 106560, Note_on_c, 0, 73, 39
1, 106560, Note_on_c, 0, 37, 22
1, 106578, Control_c, 0, 64, 0
1, 106605, Control_c, 0, 64, 127
1, 106680, Note_on_c, 0, 37, 0
1, 106680, Note_on_c, 0, 61, 18
1, 106800, Tempo, 1408781
1, 106800, Note_on_c, 0, 61, 0
1, 106800, Note_on_c, 0, 49, 18
1, 106920, Note_on_c, 0, 49, 0
1, 106920, Note_on_c, 0, 61, 18
1, 107040, Note_on_c, 0, 61, 0
1, 107040, Note_on_c, 0, 53, 18
1, 107160, Note_on_c, 0, 53, 0
1, 107160, Note_on_c, 0, 44, 18
1, 107240, Tempo, 1393728
1, 107280, Note_on_c, 0, 44, 0
1, 107280, Note_on_c, 0, 37, 22
1, 107320, Tempo, 1408781
1, 107400, Tempo, 1424163
1, 107400, Note_on_c, 0, 37, 0
1, 107400, Note_on_c, 0, 61, 18
1, 107480, Tempo, 1440230
1, 107520, Note_on_c, 0, 61, 0
1, 107520, Note_on_c, 0, 49, 18
1, 107540, Tempo, 1456311
1, 107620, Tempo, 1472754
1, 107640, Note_on_c, 0, 49, 0
1, 107640, Note_on_c, 0, 61, 18
1, 107740, Tempo, 1456311
1, 107760, Tempo, 1472754
1, 107760, Note_on_c, 0, 61, 0
1, 107760, Note_on_c, 0, 53, 18
1, 107780, Tempo, 1489943
1, 107800, Tempo, 1507159
1, 107820, Tempo, 1524778
1, 107840, Tempo, 1561687
1, 107860, Tempo, 1580611
1, 107880, Tempo, 1600427
1, 107880, Note_on_c, 0, 53, 0
1, 107880, Note_on_c, 0, 44, 18
1, 107900, Tempo, 1619870
1, 107920, Tempo, 1640689
1, 107940, Tempo, 1683029
1, 107960, Tempo, 1705514
1, 107980, Tempo, 1728608
1, 108000, Tempo, 1751313
1, 108000, Note_on_c, 0, 44, 0
1, 108000, Note_on_c, 0, 73, 0
1, 108000, Note_on_c, 0, 65, 0
1, 108000, Note_on_c, 0, 68, 31
1, 108000, Note_on_c, 0, 77, 37
1, 108000, Note_on_c, 0, 37, 22
1, 108020, Tempo, 1800720
1, 108090, Note_on_c, 0, 77, 0
1, 108090, Note_on_c, 0, 68, 0
1, 108102, Note_on_c, 0, 70, 31
1, 108102, Note_on_c, 0, 78, 37
1, 108120, Note_on_c, 0, 37, 0
1, 108120, Note_on_c, 0, 61, 18
1, 108192, Note_on_c, 0, 78, 0
1, 108192, Note_on_c, 0, 70, 0
1, 108204, Note_on_c, 0, 72, 31
1, 108204, Note_on_c, 0, 80, 37
1, 108240, Note_on_c, 0, 61, 0
1, 108240, Note_on_c, 0, 49, 18
1, 108294, Note_on_c, 0, 80, 0
1, 108294, Note_on_c, 0, 72, 0
1, 108306, Note_on_c, 0, 73, 30
1, 108306, Note_on_c, 0, 82, 36
1, 108360, Note_on_c, 0, 49, 0
1, 108360, Note_on_c, 0, 61, 18
1, 108396, Note_on_c, 0, 82, 0
1, 108396, Note_on_c, 0, 73, 0
1, 108408, Note_on_c, 0, 75, 30
1, 108408, Note_on_c, 0, 84, 36
1, 108480, Note_on_c, 0, 61, 0
1, 108480, Note_on_c, 0, 53, 18
1, 108498, Note_on_c, 0, 84, 0
1, 108498, Note_on_c, 0, 75, 0
1, 108510, Note_on_c, 0, 77, 29
1, 108510, Note_on_c, 0, 85, 35
1, 108600, Note_on_c, 0, 85, 0
1, 108600, Note_on_c, 0, 77, 0
1, 108600, Note_on_c, 0, 53, 0
1, 108600, Note_on_c, 0, 44, 18
1, 108612, Note_on_c, 0, 78, 29
1, 108612, Note_on_c, 0, 87, 35
1, 108702, Note_on_c, 0, 87, 0
1, 108702, Note_on_c, 0, 78, 0
1, 108720, Tempo, 1800720
1, 108720, Note_on_c, 0, 44, 0
1, 108720, Note_on_c, 0, 80, 28
1, 108720, Note_on_c, 0, 89, 34
1, 108720, Note_on_c, 0, 37, 22
1, 108800, Tempo, 1825373
1, 108810, Note_on_c, 0, 89, 0
1, 108810, Note_on_c, 0, 80, 0
1, 108822, Note_on_c, 0, 82, 28
1, 108822, Note_on_c, 0, 90, 34
1, 108840, Note_on_c, 0, 37, 0
1, 108840, Note_on_c, 0, 61, 18
1, 108880, Tempo, 1851852
1, 108912, Note_on_c, 0, 90, 0
1, 108912, Note_on_c, 0, 82, 0
1, 108924, Note_on_c, 0, 84, 28
1, 108924, Note_on_c, 0, 92, 33
1, 108940, Tempo, 1878522
1, 108960, Tempo, 1851852
1, 108960, Note_on_c, 0, 61, 0
1, 108960, Note_on_c, 0, 49, 18
1, 108980, Tempo, 1878522
1, 109000, Tempo, 1905972
1, 109014, Note_on_c, 0, 92, 0
1, 109014, Note_on_c, 0, 84, 0
1, 109020, Tempo, 1934860
1, 109026, Note_on_c, 0, 85, 28
1, 109026, Note_on_c, 0, 94, 33
1, 109040, Tempo, 1963993
1, 109060, Tempo, 1994018
1, 109080, Tempo, 2025658
1, 109080, Note_on_c, 0, 49, 0
1, 109080, Note_on_c, 0, 61, 18
1, 109100, Tempo, 2057613
1, 109116, Note_on_c, 0, 94, 0
1, 109116, Note_on_c, 0, 85, 0
1, 109120, Tempo, 2090592
1, 109128, Note_on_c, 0, 87, 27
1, 109128, Note_on_c, 0, 96, 32
1, 109140, Tempo, 2125399
1, 109160, Tempo, 2160605
1, 109180, Tempo, 2196997
1, 109200, Tempo, 2235469
1, 109200, Note_on_c, 0, 61, 0
1, 109200, Note_on_c, 0, 53, 18
1, 109218, Note_on_c, 0, 96, 0
1, 109218, Note_on_c, 0, 87, 0
1, 109220, Tempo, 2314815
1, 109230, Note_on_c, 0, 89, 27
1, 109230, Note_on_c, 0, 97, 32
1, 109240, Tempo, 2356638
1, 109260, Tempo, 2400960
1, 109280, Tempo, 2492730
1, 109300, Tempo, 2542373
1, 109320, Tempo, 2645503
1, 109320, Note_on_c, 0, 97, 0
1, 109320, Note_on_c, 0, 89, 0
1, 109320, Note_on_c, 0, 53, 0
1, 109320, Note_on_c, 0, 44, 18
1, 109332, Note_on_c, 0, 90, 27
1, 109332, Note_on_c, 0, 99, 32
1, 109340, Tempo, 2701486
1, 109360, Tempo, 2758621
1, 109380, Tempo, 2881844
1, 109400, Tempo, 2945508
1, 109420, Tempo, 3088008
1, 109422, Note_on_c, 0, 99, 0
1, 109422, Note_on_c, 0, 90, 0
1, 109440, Tempo, 2592913
1, 109440, Note_on_c, 0, 44, 0
1, 109440, Note_on_c, 0, 101, 36
1, 109440, Note_on_c, 0, 92, 30
1, 109440, Note_on_c, 0, 37, 17
1, 109458, Control_c, 0, 64, 0
1, 109460, Tempo, 2758621
1, 109653, Control_c, 0, 64, 127
1, 109920, Note_on_c, 0, 37, 0
1, 109920, Note_on_c, 0, 92, 0
1, 109920, Note_on_c, 0, 101, 0
1, 110160, Tempo, 2314815
1, 110160, Note_on_c, 0, 68, 30
1, 110160, Note_on_c, 0, 77, 36
1, 110160, Note_on_c, 0, 44, 16
1, 110160, Note_on_c, 0, 56, 20
1, 110880, Tempo, 2916869
1, 110880, Note_on_c, 0, 56, 0
1, 110880, Note_on_c, 0, 68, 0
1, 110880, Note_on_c, 0, 77, 0
1, 110880, Note_on_c, 0, 44, 0
1, 110880, Note_on_c, 0, 65, 28
1, 110880, Note_on_c, 0, 73, 33
1, 110880, Note_on_c, 0, 49, 16
1, 110880, Note_on_c, 0, 56, 20
1, 112320, Note_on_c, 0, 56, 0
1, 112320, Note_on_c, 0, 65, 0
1, 112320, Note_on_c, 0, 73, 0
1, 112320, Note_on_c, 0, 49, 0
1, 113587, Control_c, 0, 64, 0
1, 113760, Tempo, 1500000
1, 113760, End_track
0, 0, End_of_file
