0, 0, Header, 0, 1, 480
1, 0, Start_track
1, 0, Title_t, "Chopin Nocturne Opus 27 Nr. 1"
1, 0, Copyright_t, "Copyright © 2003 by Bernd Krueger "
1, 0, Text_t, "Frederic Chopin"
1, 0, Text_t, "Larghetto"
1, 0, Text_t, "Fertiggestellt am  24.5.2003\012"
1, 0, Text_t, "Update am 26.7.2010\012"
1, 0, Text_t, "Update am 19.2.2014\012"
1, 0, Text_t, "Dauer: 4:52 Minuten\012"
1, 0, SMPTE_offset, 96, 0, 3, 0, 0
1, 0, Time_signature, 4, 2, 24, 8
1, 0, Key_signature, 4, "major"
1, 0, Tempo, 1111111
1, 0, Program_c, 0, 0
1, 0, Control_c, 0, 7, 100
1, 0, Control_c, 0, 10, 64
1, 0, Text_t, "bdca426d104a26ac9dcb070447587523"
1, 0, Control_c, 0, 91, 127
1, 0, Program_c, 0, 0
1, 0, Control_c, 0, 7, 100
1, 0, Control_c, 0, 10, 64
1, 0, Note_on_c, 0, 37, 20
1, 0, Control_c, 0, 64, 127
1, 160, Tempo, 1000000
1, 160, Note_on_c, 0, 37, 0
1, 160, Note_on_c, 0, 44, 21
1, 320, Note_on_c, 0, 44, 0
1, 320, Note_on_c, 0, 56, 22
1, 480, Tempo, 993213
1, 480, Note_on_c, 0, 56, 0
1, 480, Note_on_c, 0, 49, 23
1, 640, Note_on_c, 0, 49, 0
1, 640, Note_on_c, 0, 44, 24
1, 800, Note_on_c, 0, 44, 0
1, 800, Note_on_c, 0, 37, 26
1, 960, Tempo, 952381
1, 960, Note_on_c, 0, 37, 0
1, 960, Note_on_c, 0, 44, 27
1, 1120, Note_on_c, 0, 44, 0
1, 1120, Note_on_c, 0, 49, 28
1, 1280, Note_on_c, 0, 49, 0
1, 1280, Note_on_c, 0, 56, 29
1, 1400, Tempo, 944882
1, 1440, Note_on_c, 0, 56, 0
1, 1440, Note_on_c, 0, 49, 31
1, 1520, Tempo, 952381
1, 1600, Note_on_c, 0, 49, 0
1, 1600, Note_on_c, 0, 44, 32
1, 1640, Tempo, 960000
1, 1760, Tempo, 967742
1, 1760, Note_on_c, 0, 44, 0
1, 1760, Note_on_c, 0, 37, 33
1, 1920, Tempo, 974817
1, 1920, Note_on_c, 0, 37, 0
1, 1920, Note_on_c, 0, 44, 34
1, 2080, Note_on_c, 0, 44, 0
1, 2080, Note_on_c, 0, 49, 34
1, 2240, Note_on_c, 0, 49, 0
1, 2240, Note_on_c, 0, 56, 33
1, 2320, Tempo, 980873
1, 2400, Note_on_c, 0, 56, 0
1, 2400, Note_on_c, 0, 49, 32
1, 2560, Note_on_c, 0, 49, 0
1, 2560, Note_on_c, 0, 44, 31
1, 2720, Tempo, 987004
1, 2720, Note_on_c, 0, 44, 0
1, 2720, Note_on_c, 0, 37, 30
1, 2880, Tempo, 952381
1, 2880, Note_on_c, 0, 37, 0
1, 2880, Note_on_c, 0, 44, 30
1, 3040, Note_on_c, 0, 44, 0
1, 3040, Note_on_c, 0, 49, 29
1, 3200, Note_on_c, 0, 49, 0
1, 3200, Note_on_c, 0, 56, 28
1, 3360, Tempo, 983607
1, 3360, Note_on_c, 0, 56, 0
1, 3360, Note_on_c, 0, 49, 27
1, 3400, Tempo, 1000000
1, 3440, Tempo, 1025641
1, 3480, Tempo, 1043478
1, 3520, Tempo, 1071429
1, 3520, Note_on_c, 0, 49, 0
1, 3520, Note_on_c, 0, 44, 26
1, 3560, Tempo, 1100917
1, 3600, Tempo, 1121495
1, 3640, Tempo, 1153846
1, 3680, Tempo, 1188119
1, 3680, Note_on_c, 0, 44, 0
1, 3680, Note_on_c, 0, 37, 25
1, 3840, Tempo, 1153846
1, 3840, Note_on_c, 0, 37, 0
1, 3840, Note_on_c, 0, 76, 52
1, 3840, Note_on_c, 0, 44, 26
1, 3854, Control_c, 0, 64, 0
1, 3880, Tempo, 1142857
1, 3920, Tempo, 1132075
1, 3932, Control_c, 0, 64, 127
1, 3960, Tempo, 1111111
1, 4000, Tempo, 1100917
1, 4000, Note_on_c, 0, 44, 0
1, 4000, Note_on_c, 0, 49, 25
1, 4040, Tempo, 1081081
1, 4080, Tempo, 1071429
1, 4120, Tempo, 1061947
1, 4160, Tempo, 1043478
1, 4160, Note_on_c, 0, 49, 0
1, 4160, Note_on_c, 0, 56, 26
1, 4200, Tempo, 1034483
1, 4240, Tempo, 1016949
1, 4320, Tempo, 983607
1, 4320, Note_on_c, 0, 56, 0
1, 4320, Note_on_c, 0, 49, 27
1, 4440, Tempo, 975610
1, 4480, Note_on_c, 0, 49, 0
1, 4480, Note_on_c, 0, 44, 28
1, 4520, Tempo, 967742
1, 4640, Tempo, 960000
1, 4640, Note_on_c, 0, 44, 0
1, 4640, Note_on_c, 0, 37, 29
1, 4720, Tempo, 952381
1, 4800, Tempo, 952381
1, 4800, Note_on_c, 0, 37, 0
1, 4800, Note_on_c, 0, 76, 0
1, 4800, Note_on_c, 0, 77, 51
1, 4800, Note_on_c, 0, 44, 28
1, 4816, Control_c, 0, 64, 0
1, 4878, Control_c, 0, 64, 127
1, 4960, Note_on_c, 0, 44, 0
1, 4960, Note_on_c, 0, 49, 29
1, 5120, Note_on_c, 0, 49, 0
1, 5120, Note_on_c, 0, 59, 30
1, 5280, Tempo, 960000
1, 5280, Note_on_c, 0, 59, 0
1, 5280, Note_on_c, 0, 77, 0
1, 5280, Note_on_c, 0, 77, 54
1, 5280, Note_on_c, 0, 49, 30
1, 5320, Tempo, 967742
1, 5360, Tempo, 975610
1, 5400, Tempo, 983607
1, 5440, Tempo, 991736
1, 5440, Note_on_c, 0, 49, 0
1, 5440, Note_on_c, 0, 44, 31
1, 5480, Tempo, 1000000
1, 5520, Tempo, 1008403
1, 5560, Tempo, 1016949
1, 5600, Tempo, 1025641
1, 5600, Note_on_c, 0, 44, 0
1, 5600, Note_on_c, 0, 37, 32
1, 5640, Tempo, 1034483
1, 5680, Tempo, 1043478
1, 5720, Tempo, 1061947
1, 5760, Tempo, 1052632
1, 5760, Note_on_c, 0, 37, 0
1, 5760, Note_on_c, 0, 77, 0
1, 5760, Note_on_c, 0, 77, 56
1, 5760, Note_on_c, 0, 44, 33
1, 5774, Control_c, 0, 64, 0
1, 5800, Tempo, 1043478
1, 5824, Control_c, 0, 64, 127
1, 5840, Tempo, 1034483
1, 5880, Tempo, 1025641
1, 5920, Tempo, 1016949
1, 5920, Note_on_c, 0, 44, 0
1, 5920, Note_on_c, 0, 49, 31
1, 5960, Tempo, 1008403
1, 6000, Tempo, 1000000
1, 6040, Tempo, 991736
1, 6080, Tempo, 983607
1, 6080, Note_on_c, 0, 49, 0
1, 6080, Note_on_c, 0, 59, 30
1, 6120, Tempo, 975610
1, 6160, Tempo, 967742
1, 6240, Tempo, 960000
1, 6240, Note_on_c, 0, 59, 0
1, 6240, Note_on_c, 0, 49, 30
1, 6400, Note_on_c, 0, 49, 0
1, 6400, Note_on_c, 0, 44, 29
1, 6560, Note_on_c, 0, 44, 0
1, 6560, Note_on_c, 0, 37, 28
1, 6720, Tempo, 960000
1, 6720, Note_on_c, 0, 37, 0
1, 6720, Note_on_c, 0, 77, 0
1, 6720, Note_on_c, 0, 78, 55
1, 6720, Note_on_c, 0, 45, 28
1, 6733, Control_c, 0, 64, 0
1, 6812, Control_c, 0, 64, 127
1, 6880, Note_on_c, 0, 45, 0
1, 6880, Note_on_c, 0, 49, 28
1, 7040, Note_on_c, 0, 49, 0
1, 7040, Note_on_c, 0, 57, 28
1, 7200, Tempo, 975610
1, 7200, Note_on_c, 0, 57, 0
1, 7200, Note_on_c, 0, 49, 28
1, 7360, Note_on_c, 0, 49, 0
1, 7360, Note_on_c, 0, 45, 28
1, 7520, Note_on_c, 0, 45, 0
1, 7520, Note_on_c, 0, 37, 28
1, 7560, Tempo, 1090909
1, 7680, Tempo, 1025816
1, 7680, Note_on_c, 0, 37, 0
1, 7680, Note_on_c, 0, 45, 32
1, 7691, Control_c, 0, 64, 0
1, 7737, Control_c, 0, 64, 127
1, 7840, Note_on_c, 0, 45, 0
1, 7840, Note_on_c, 0, 50, 29
1, 8000, Note_on_c, 0, 50, 0
1, 8000, Note_on_c, 0, 57, 29
1, 8160, Tempo, 987004
1, 8160, Note_on_c, 0, 57, 0
1, 8160, Note_on_c, 0, 78, 0
1, 8160, Note_on_c, 0, 76, 55
1, 8160, Note_on_c, 0, 50, 28
1, 8320, Note_on_c, 0, 50, 0
1, 8320, Note_on_c, 0, 45, 27
1, 8480, Note_on_c, 0, 45, 0
1, 8480, Note_on_c, 0, 37, 26
1, 8520, Note_on_c, 0, 76, 0
1, 8520, Note_on_c, 0, 74, 51
1, 8640, Note_on_c, 0, 74, 0
1, 8640, Note_on_c, 0, 37, 0
1, 8640, Note_on_c, 0, 73, 51
1, 8640, Note_on_c, 0, 45, 25
1, 8652, Control_c, 0, 64, 0
1, 8680, Tempo, 1006036
1, 8720, Control_c, 0, 64, 127
1, 8800, Note_on_c, 0, 45, 0
1, 8800, Note_on_c, 0, 50, 24
1, 8960, Note_on_c, 0, 50, 0
1, 8960, Note_on_c, 0, 57, 24
1, 9120, Tempo, 1034483
1, 9120, Note_on_c, 0, 57, 0
1, 9120, Note_on_c, 0, 73, 0
1, 9120, Note_on_c, 0, 72, 51
1, 9120, Note_on_c, 0, 50, 24
1, 9160, Tempo, 1043478
1, 9200, Tempo, 1052632
1, 9240, Tempo, 1061947
1, 9280, Tempo, 1071429
1, 9280, Note_on_c, 0, 50, 0
1, 9280, Note_on_c, 0, 45, 24
1, 9320, Tempo, 1081081
1, 9360, Tempo, 1090909
1, 9400, Tempo, 1100917
1, 9440, Tempo, 1111111
1, 9440, Note_on_c, 0, 45, 0
1, 9440, Note_on_c, 0, 37, 24
1, 9600, Tempo, 1025641
1, 9600, Note_on_c, 0, 37, 0
1, 9600, Note_on_c, 0, 72, 0
1, 9600, Note_on_c, 0, 73, 53
1, 9600, Note_on_c, 0, 44, 26
1, 9615, Control_c, 0, 64, 0
1, 9667, Control_c, 0, 64, 127
1, 9760, Note_on_c, 0, 44, 0
1, 9760, Note_on_c, 0, 52, 24
1, 9920, Note_on_c, 0, 52, 0
1, 9920, Note_on_c, 0, 61, 23
1, 10080, Tempo, 999667
1, 10080, Note_on_c, 0, 61, 0
1, 10080, Note_on_c, 0, 73, 0
1, 10080, Note_on_c, 0, 80, 56
1, 10080, Note_on_c, 0, 52, 23
1, 10240, Note_on_c, 0, 52, 0
1, 10240, Note_on_c, 0, 44, 23
1, 10400, Note_on_c, 0, 44, 0
1, 10400, Note_on_c, 0, 37, 23
1, 10560, Tempo, 1008403
1, 10560, Note_on_c, 0, 37, 0
1, 10560, Note_on_c, 0, 35, 26
1, 10575, Control_c, 0, 64, 0
1, 10640, Tempo, 1016949
1, 10641, Control_c, 0, 64, 127
1, 10680, Tempo, 1025641
1, 10720, Note_on_c, 0, 35, 0
1, 10720, Note_on_c, 0, 47, 24
1, 10760, Tempo, 1034483
1, 10800, Tempo, 1043478
1, 10880, Tempo, 1052632
1, 10880, Note_on_c, 0, 47, 0
1, 10880, Note_on_c, 0, 63, 24
1, 10920, Tempo, 1061947
1, 11000, Tempo, 1071429
1, 11040, Tempo, 1081081
1, 11040, Note_on_c, 0, 63, 0
1, 11040, Note_on_c, 0, 80, 0
1, 11040, Note_on_c, 0, 80, 54
1, 11040, Note_on_c, 0, 57, 24
1, 11120, Tempo, 1071429
1, 11160, Tempo, 1090909
1, 11200, Tempo, 1121495
1, 11200, Note_on_c, 0, 57, 0
1, 11200, Note_on_c, 0, 80, 0
1, 11200, Note_on_c, 0, 78, 51
1, 11200, Note_on_c, 0, 47, 24
1, 11240, Tempo, 1153846
1, 11280, Tempo, 1176471
1, 11320, Tempo, 1212121
1, 11360, Tempo, 1250000
1, 11360, Note_on_c, 0, 47, 0
1, 11360, Note_on_c, 0, 35, 24
1, 11400, Tempo, 1333333
1, 11440, Note_on_c, 0, 78, 0
1, 11440, Note_on_c, 0, 76, 49
1, 11520, Tempo, 1052632
1, 11520, Note_on_c, 0, 76, 0
1, 11520, Note_on_c, 0, 35, 0
1, 11520, Note_on_c, 0, 76, 53
1, 11520, Note_on_c, 0, 40, 26
1, 11534, Control_c, 0, 64, 0
1, 11560, Tempo, 1043478
1, 11600, Tempo, 1034483
1, 11626, Control_c, 0, 64, 127
1, 11640, Tempo, 1025641
1, 11680, Tempo, 1016949
1, 11680, Note_on_c, 0, 40, 0
1, 11680, Note_on_c, 0, 47, 27
1, 11720, Tempo, 1008403
1, 11760, Tempo, 1000000
1, 11840, Note_on_c, 0, 47, 0
1, 11840, Note_on_c, 0, 64, 28
1, 12000, Tempo, 983607
1, 12000, Note_on_c, 0, 64, 0
1, 12000, Note_on_c, 0, 56, 28
1, 12160, Tempo, 975610
1, 12160, Note_on_c, 0, 56, 0
1, 12160, Note_on_c, 0, 47, 29
1, 12320, Tempo, 967742
1, 12320, Note_on_c, 0, 47, 0
1, 12320, Note_on_c, 0, 39, 30
1, 12440, Tempo, 960000
1, 12480, Tempo, 944882
1, 12480, Note_on_c, 0, 39, 0
1, 12480, Note_on_c, 0, 76, 0
1, 12480, Note_on_c, 0, 76, 52
1, 12480, Note_on_c, 0, 37, 31
1, 12496, Control_c, 0, 64, 0
1, 12558, Control_c, 0, 64, 127
1, 12640, Tempo, 937500
1, 12640, Note_on_c, 0, 37, 0
1, 12640, Note_on_c, 0, 44, 32
1, 12800, Tempo, 930233
1, 12800, Note_on_c, 0, 44, 0
1, 12800, Note_on_c, 0, 56, 33
1, 12920, Tempo, 923077
1, 12960, Note_on_c, 0, 56, 0
1, 12960, Note_on_c, 0, 76, 0
1, 12960, Note_on_c, 0, 76, 56
1, 12960, Note_on_c, 0, 49, 34
1, 13000, Tempo, 909091
1, 13040, Tempo, 923077
1, 13080, Tempo, 937500
1, 13120, Tempo, 952381
1, 13120, Note_on_c, 0, 49, 0
1, 13120, Note_on_c, 0, 44, 35
1, 13160, Tempo, 967742
1, 13200, Tempo, 983607
1, 13280, Note_on_c, 0, 44, 0
1, 13280, Note_on_c, 0, 37, 36
1, 13400, Tempo, 991736
1, 13440, Note_on_c, 0, 37, 0
1, 13440, Note_on_c, 0, 76, 0
1, 13440, Note_on_c, 0, 77, 63
1, 13440, Note_on_c, 0, 44, 39
1, 13454, Control_c, 0, 64, 0
1, 13504, Control_c, 0, 64, 127
1, 13560, Tempo, 983607
1, 13600, Note_on_c, 0, 44, 0
1, 13600, Note_on_c, 0, 49, 39
1, 13720, Tempo, 975610
1, 13760, Note_on_c, 0, 49, 0
1, 13760, Note_on_c, 0, 59, 38
1, 13880, Tempo, 967742
1, 13920, Note_on_c, 0, 59, 0
1, 13920, Note_on_c, 0, 49, 38
1, 14080, Tempo, 975610
1, 14080, Note_on_c, 0, 49, 0
1, 14080, Note_on_c, 0, 44, 37
1, 14240, Tempo, 983607
1, 14240, Note_on_c, 0, 44, 0
1, 14240, Note_on_c, 0, 37, 37
1, 14400, Tempo, 975610
1, 14400, Note_on_c, 0, 37, 0
1, 14400, Note_on_c, 0, 77, 0
1, 14400, Note_on_c, 0, 78, 63
1, 14400, Note_on_c, 0, 45, 36
1, 14418, Control_c, 0, 64, 0
1, 14492, Control_c, 0, 64, 127
1, 14560, Tempo, 967742
1, 14560, Note_on_c, 0, 45, 0
1, 14560, Note_on_c, 0, 49, 36
1, 14680, Tempo, 960000
1, 14720, Note_on_c, 0, 49, 0
1, 14720, Note_on_c, 0, 57, 35
1, 14800, Tempo, 952381
1, 14880, Tempo, 983607
1, 14880, Note_on_c, 0, 57, 0
1, 14880, Note_on_c, 0, 49, 34
1, 15040, Note_on_c, 0, 49, 0
1, 15040, Note_on_c, 0, 45, 34
1, 15200, Note_on_c, 0, 45, 0
1, 15200, Note_on_c, 0, 37, 33
1, 15360, Tempo, 1025816
1, 15360, Note_on_c, 0, 37, 0
1, 15360, Note_on_c, 0, 45, 30
1, 15375, Control_c, 0, 64, 0
1, 15417, Control_c, 0, 64, 127
1, 15520, Note_on_c, 0, 45, 0
1, 15520, Note_on_c, 0, 50, 28
1, 15680, Note_on_c, 0, 50, 0
1, 15680, Note_on_c, 0, 57, 26
1, 15840, Tempo, 987004
1, 15840, Note_on_c, 0, 57, 0
1, 15840, Note_on_c, 0, 78, 0
1, 15840, Note_on_c, 0, 76, 48
1, 15840, Note_on_c, 0, 50, 27
1, 16000, Note_on_c, 0, 50, 0
1, 16000, Note_on_c, 0, 45, 25
1, 16160, Note_on_c, 0, 45, 0
1, 16160, Note_on_c, 0, 37, 25
1, 16200, Note_on_c, 0, 76, 0
1, 16200, Note_on_c, 0, 74, 45
1, 16320, Tempo, 983607
1, 16320, Note_on_c, 0, 74, 0
1, 16320, Note_on_c, 0, 37, 0
1, 16320, Note_on_c, 0, 73, 43
1, 16320, Note_on_c, 0, 45, 25
1, 16332, Control_c, 0, 64, 0
1, 16395, Control_c, 0, 64, 127
1, 16480, Note_on_c, 0, 45, 0
1, 16480, Note_on_c, 0, 50, 24
1, 16640, Note_on_c, 0, 50, 0
1, 16640, Note_on_c, 0, 57, 24
1, 16800, Tempo, 1032525
1, 16800, Note_on_c, 0, 57, 0
1, 16800, Note_on_c, 0, 73, 0
1, 16800, Note_on_c, 0, 72, 42
1, 16800, Note_on_c, 0, 50, 24
1, 16960, Note_on_c, 0, 50, 0
1, 16960, Note_on_c, 0, 45, 24
1, 17080, Tempo, 1025641
1, 17120, Tempo, 1034483
1, 17120, Note_on_c, 0, 45, 0
1, 17120, Note_on_c, 0, 37, 24
1, 17160, Tempo, 1052632
1, 17200, Tempo, 1061947
1, 17240, Tempo, 1081081
1, 17280, Tempo, 1111111
1, 17280, Note_on_c, 0, 37, 0
1, 17280, Note_on_c, 0, 72, 0
1, 17280, Note_on_c, 0, 45, 26
1, 17320, Tempo, 1090909
1, 17360, Tempo, 1071429
1, 17400, Tempo, 1043478
1, 17440, Tempo, 1025641
1, 17440, Note_on_c, 0, 45, 0
1, 17440, Note_on_c, 0, 50, 24
1, 17480, Tempo, 1008403
1, 17520, Tempo, 983607
1, 17600, Note_on_c, 0, 50, 0
1, 17600, Note_on_c, 0, 57, 23
1, 17640, Tempo, 991736
1, 17720, Tempo, 983607
1, 17760, Note_on_c, 0, 57, 0
1, 17760, Note_on_c, 0, 50, 23
1, 17800, Tempo, 975610
1, 17920, Note_on_c, 0, 50, 0
1, 17920, Note_on_c, 0, 45, 23
1, 18080, Note_on_c, 0, 45, 0
1, 18080, Note_on_c, 0, 37, 23
1, 18240, Tempo, 1019022
1, 18240, Note_on_c, 0, 37, 0
1, 18240, Note_on_c, 0, 45, 26
1, 18400, Note_on_c, 0, 45, 0
1, 18400, Note_on_c, 0, 50, 24
1, 18560, Note_on_c, 0, 50, 0
1, 18560, Note_on_c, 0, 57, 24
1, 18720, Tempo, 1060445
1, 18720, Note_on_c, 0, 57, 0
1, 18720, Note_on_c, 0, 50, 24
1, 18800, Tempo, 1067616
1, 18880, Tempo, 1074884
1, 18880, Note_on_c, 0, 50, 0
1, 18880, Note_on_c, 0, 45, 24
1, 18960, Tempo, 1071429
1, 19000, Tempo, 1132075
1, 19040, Tempo, 1200000
1, 19040, Note_on_c, 0, 45, 0
1, 19040, Note_on_c, 0, 37, 24
1, 19080, Tempo, 1276596
1, 19120, Tempo, 1363636
1, 19160, Tempo, 1463415
1, 19200, Tempo, 1006036
1, 19200, Note_on_c, 0, 37, 0
1, 19200, Note_on_c, 0, 73, 57
1, 19200, Note_on_c, 0, 85, 57
1, 19200, Note_on_c, 0, 44, 34
1, 19214, Control_c, 0, 64, 0
1, 19263, Control_c, 0, 64, 127
1, 19360, Note_on_c, 0, 44, 0
1, 19360, Note_on_c, 0, 56, 28
1, 19520, Note_on_c, 0, 56, 0
1, 19520, Note_on_c, 0, 61, 28
1, 19640, Tempo, 983607
1, 19680, Note_on_c, 0, 61, 0
1, 19680, Note_on_c, 0, 85, 0
1, 19680, Note_on_c, 0, 73, 0
1, 19680, Note_on_c, 0, 80, 60
1, 19680, Note_on_c, 0, 52, 28
1, 19760, Tempo, 975610
1, 19840, Tempo, 967742
1, 19840, Note_on_c, 0, 52, 0
1, 19840, Note_on_c, 0, 44, 29
1, 19960, Tempo, 960000
1, 20000, Note_on_c, 0, 44, 0
1, 20000, Note_on_c, 0, 37, 29
1, 20040, Tempo, 952381
1, 20120, Tempo, 944882
1, 20160, Tempo, 1016949
1, 20160, Note_on_c, 0, 37, 0
1, 20160, Note_on_c, 0, 80, 0
1, 20160, Note_on_c, 0, 78, 59
1, 20160, Note_on_c, 0, 37, 31
1, 20181, Control_c, 0, 64, 0
1, 20238, Control_c, 0, 64, 127
1, 20320, Tempo, 952381
1, 20320, Note_on_c, 0, 37, 0
1, 20320, Note_on_c, 0, 78, 0
1, 20320, Note_on_c, 0, 80, 52
1, 20320, Note_on_c, 0, 44, 24
1, 20480, Note_on_c, 0, 44, 0
1, 20480, Note_on_c, 0, 80, 0
1, 20480, Note_on_c, 0, 78, 52
1, 20480, Note_on_c, 0, 60, 24
1, 20640, Tempo, 1006036
1, 20640, Note_on_c, 0, 60, 0
1, 20640, Note_on_c, 0, 78, 0
1, 20640, Note_on_c, 0, 76, 56
1, 20640, Note_on_c, 0, 54, 24
1, 20800, Note_on_c, 0, 54, 0
1, 20800, Note_on_c, 0, 44, 24
1, 20960, Note_on_c, 0, 44, 0
1, 20960, Note_on_c, 0, 37, 24
1, 21000, Tempo, 1071429
1, 21000, Note_on_c, 0, 76, 0
1, 21000, Note_on_c, 0, 75, 54
1, 21120, Tempo, 1006036
1, 21120, Note_on_c, 0, 75, 0
1, 21120, Note_on_c, 0, 37, 0
1, 21120, Note_on_c, 0, 73, 62
1, 21120, Note_on_c, 0, 37, 27
1, 21134, Control_c, 0, 64, 0
1, 21226, Control_c, 0, 64, 127
1, 21280, Note_on_c, 0, 37, 0
1, 21280, Note_on_c, 0, 44, 27
1, 21440, Note_on_c, 0, 44, 0
1, 21440, Note_on_c, 0, 61, 28
1, 21560, Tempo, 975610
1, 21600, Note_on_c, 0, 61, 0
1, 21600, Note_on_c, 0, 52, 29
1, 21760, Note_on_c, 0, 52, 0
1, 21760, Note_on_c, 0, 44, 29
1, 21840, Tempo, 967742
1, 21920, Note_on_c, 0, 44, 0
1, 21920, Note_on_c, 0, 37, 30
1, 22080, Tempo, 960000
1, 22080, Note_on_c, 0, 37, 0
1, 22080, Note_on_c, 0, 73, 0
1, 22080, Note_on_c, 0, 75, 57
1, 22080, Note_on_c, 0, 37, 30
1, 22099, Control_c, 0, 64, 0
1, 22158, Control_c, 0, 64, 127
1, 22240, Note_on_c, 0, 37, 0
1, 22240, Note_on_c, 0, 44, 31
1, 22400, Note_on_c, 0, 44, 0
1, 22400, Note_on_c, 0, 60, 32
1, 22560, Tempo, 952381
1, 22560, Note_on_c, 0, 60, 0
1, 22560, Note_on_c, 0, 54, 32
1, 22600, Tempo, 960000
1, 22640, Tempo, 967742
1, 22680, Tempo, 975610
1, 22720, Tempo, 983607
1, 22720, Note_on_c, 0, 54, 0
1, 22720, Note_on_c, 0, 44, 33
1, 22760, Tempo, 991736
1, 22800, Tempo, 1000000
1, 22880, Note_on_c, 0, 44, 0
1, 22880, Note_on_c, 0, 37, 33
1, 23040, Tempo, 1006036
1, 23040, Note_on_c, 0, 37, 0
1, 23040, Note_on_c, 0, 75, 0
1, 23040, Note_on_c, 0, 76, 62
1, 23040, Note_on_c, 0, 37, 34
1, 23054, Control_c, 0, 64, 0
1, 23146, Control_c, 0, 64, 127
1, 23200, Note_on_c, 0, 37, 0
1, 23200, Note_on_c, 0, 44, 29
1, 23360, Note_on_c, 0, 44, 0
1, 23360, Note_on_c, 0, 61, 30
1, 23400, Tempo, 960000
1, 23400, Note_on_c, 0, 76, 0
1, 23400, Note_on_c, 0, 78, 63
1, 23520, Note_on_c, 0, 78, 0
1, 23520, Note_on_c, 0, 61, 0
1, 23520, Note_on_c, 0, 80, 65
1, 23520, Note_on_c, 0, 52, 30
1, 23680, Note_on_c, 0, 52, 0
1, 23680, Note_on_c, 0, 44, 30
1, 23840, Note_on_c, 0, 44, 0
1, 23840, Note_on_c, 0, 37, 30
1, 24000, Tempo, 1019022
1, 24000, Note_on_c, 0, 37, 0
1, 24000, Note_on_c, 0, 80, 0
1, 24000, Note_on_c, 0, 78, 58
1, 24000, Note_on_c, 0, 32, 26
1, 24018, Control_c, 0, 64, 0
1, 24078, Control_c, 0, 64, 127
1, 24160, Note_on_c, 0, 32, 0
1, 24160, Note_on_c, 0, 44, 24
1, 24320, Note_on_c, 0, 44, 0
1, 24320, Note_on_c, 0, 60, 24
1, 24480, Tempo, 1016949
1, 24480, Note_on_c, 0, 60, 0
1, 24480, Note_on_c, 0, 78, 0
1, 24480, Note_on_c, 0, 74, 56
1, 24480, Note_on_c, 0, 54, 24
1, 24520, Tempo, 1025641
1, 24560, Tempo, 1043478
1, 24600, Tempo, 1052632
1, 24640, Tempo, 1071429
1, 24640, Note_on_c, 0, 54, 0
1, 24640, Note_on_c, 0, 44, 24
1, 24680, Tempo, 1081081
1, 24720, Tempo, 1100917
1, 24760, Tempo, 1111111
1, 24800, Tempo, 1132075
1, 24800, Note_on_c, 0, 44, 0
1, 24800, Note_on_c, 0, 32, 24
1, 24840, Tempo, 1142857
1, 24880, Tempo, 1165049
1, 24920, Tempo, 1188119
1, 24960, Tempo, 1090909
1, 24960, Note_on_c, 0, 32, 0
1, 24960, Note_on_c, 0, 74, 0
1, 24960, Note_on_c, 0, 73, 59
1, 24960, Note_on_c, 0, 37, 26
1, 24974, Control_c, 0, 64, 0
1, 25000, Tempo, 1071429
1, 25040, Tempo, 1052632
1, 25066, Control_c, 0, 64, 127
1, 25080, Tempo, 1034483
1, 25120, Tempo, 1016949
1, 25120, Note_on_c, 0, 37, 0
1, 25120, Note_on_c, 0, 44, 23
1, 25160, Tempo, 1000000
1, 25280, Note_on_c, 0, 44, 0
1, 25280, Note_on_c, 0, 61, 24
1, 25440, Note_on_c, 0, 61, 0
1, 25440, Note_on_c, 0, 52, 24
1, 25600, Note_on_c, 0, 52, 0
1, 25600, Note_on_c, 0, 44, 24
1, 25760, Note_on_c, 0, 44, 0
1, 25760, Note_on_c, 0, 37, 24
1, 25920, Tempo, 1032525
1, 25920, Note_on_c, 0, 37, 0
1, 25920, Note_on_c, 0, 73, 0
1, 25920, Note_on_c, 0, 68, 51
1, 25920, Note_on_c, 0, 37, 26
1, 25938, Control_c, 0, 64, 0
1, 25998, Control_c, 0, 64, 127
1, 26080, Note_on_c, 0, 37, 0
1, 26080, Note_on_c, 0, 44, 24
1, 26240, Tempo, 1089918
1, 26240, Note_on_c, 0, 44, 0
1, 26240, Note_on_c, 0, 60, 24
1, 26400, Tempo, 1006036
1, 26400, Note_on_c, 0, 60, 0
1, 26400, Note_on_c, 0, 68, 0
1, 26400, Note_on_c, 0, 80, 59
1, 26400, Note_on_c, 0, 54, 24
1, 26560, Note_on_c, 0, 54, 0
1, 26560, Note_on_c, 0, 44, 24
1, 26720, Tempo, 1067616
1, 26720, Note_on_c, 0, 44, 0
1, 26720, Note_on_c, 0, 37, 24
1, 26760, Tempo, 1200000
1, 26880, Tempo, 1006036
1, 26880, Note_on_c, 0, 37, 0
1, 26880, Note_on_c, 0, 80, 0
1, 26880, Note_on_c, 0, 85, 60
1, 26880, Note_on_c, 0, 37, 34
1, 26894, Control_c, 0, 64, 0
1, 26986, Control_c, 0, 64, 127
1, 27040, Note_on_c, 0, 37, 0
1, 27040, Note_on_c, 0, 44, 32
1, 27200, Note_on_c, 0, 44, 0
1, 27200, Note_on_c, 0, 61, 32
1, 27360, Note_on_c, 0, 61, 0
1, 27360, Note_on_c, 0, 85, 0
1, 27360, Note_on_c, 0, 80, 59
1, 27360, Note_on_c, 0, 52, 32
1, 27400, Tempo, 991736
1, 27520, Tempo, 983607
1, 27520, Note_on_c, 0, 52, 0
1, 27520, Note_on_c, 0, 44, 31
1, 27640, Tempo, 975610
1, 27680, Note_on_c, 0, 44, 0
1, 27680, Note_on_c, 0, 37, 31
1, 27760, Tempo, 967742
1, 27840, Tempo, 960000
1, 27840, Note_on_c, 0, 37, 0
1, 27840, Note_on_c, 0, 80, 0
1, 27840, Note_on_c, 0, 78, 58
1, 27840, Note_on_c, 0, 37, 26
1, 27858, Control_c, 0, 64, 0
1, 27918, Control_c, 0, 64, 127
1, 28000, Tempo, 960000
1, 28000, Note_on_c, 0, 37, 0
1, 28000, Note_on_c, 0, 78, 0
1, 28000, Note_on_c, 0, 80, 52
1, 28000, Note_on_c, 0, 44, 24
1, 28160, Note_on_c, 0, 44, 0
1, 28160, Note_on_c, 0, 80, 0
1, 28160, Note_on_c, 0, 78, 52
1, 28160, Note_on_c, 0, 60, 24
1, 28320, Tempo, 1006036
1, 28320, Note_on_c, 0, 60, 0
1, 28320, Note_on_c, 0, 78, 0
1, 28320, Note_on_c, 0, 76, 56
1, 28320, Note_on_c, 0, 54, 24
1, 28480, Note_on_c, 0, 54, 0
1, 28480, Note_on_c, 0, 44, 24
1, 28640, Note_on_c, 0, 44, 0
1, 28640, Note_on_c, 0, 37, 24
1, 28680, Tempo, 1090909
1, 28680, Note_on_c, 0, 76, 0
1, 28680, Note_on_c, 0, 75, 54
1, 28800, Tempo, 1006036
1, 28800, Note_on_c, 0, 75, 0
1, 28800, Note_on_c, 0, 37, 0
1, 28800, Note_on_c, 0, 73, 62
1, 28800, Note_on_c, 0, 37, 26
1, 28814, Control_c, 0, 64, 0
1, 28906, Control_c, 0, 64, 127
1, 28960, Note_on_c, 0, 37, 0
1, 28960, Note_on_c, 0, 44, 26
1, 29120, Note_on_c, 0, 44, 0
1, 29120, Note_on_c, 0, 61, 27
1, 29280, Tempo, 991736
1, 29280, Note_on_c, 0, 61, 0
1, 29280, Note_on_c, 0, 52, 27
1, 29360, Tempo, 983607
1, 29440, Tempo, 975610
1, 29440, Note_on_c, 0, 52, 0
1, 29440, Note_on_c, 0, 44, 28
1, 29520, Tempo, 967742
1, 29600, Tempo, 960000
1, 29600, Note_on_c, 0, 44, 0
1, 29600, Note_on_c, 0, 37, 29
1, 29680, Tempo, 952381
1, 29720, Tempo, 944882
1, 29760, Tempo, 967742
1, 29760, Note_on_c, 0, 37, 0
1, 29760, Note_on_c, 0, 73, 0
1, 29760, Note_on_c, 0, 75, 57
1, 29760, Note_on_c, 0, 32, 29
1, 29778, Control_c, 0, 64, 0
1, 29838, Control_c, 0, 64, 127
1, 29880, Tempo, 960000
1, 29920, Note_on_c, 0, 32, 0
1, 29920, Note_on_c, 0, 44, 30
1, 29960, Tempo, 952381
1, 30040, Tempo, 944882
1, 30080, Note_on_c, 0, 44, 0
1, 30080, Note_on_c, 0, 60, 30
1, 30120, Tempo, 937500
1, 30200, Tempo, 930233
1, 30240, Tempo, 937500
1, 30240, Note_on_c, 0, 60, 0
1, 30240, Note_on_c, 0, 54, 31
1, 30280, Tempo, 944882
1, 30320, Tempo, 952381
1, 30360, Tempo, 960000
1, 30400, Tempo, 967742
1, 30400, Note_on_c, 0, 54, 0
1, 30400, Note_on_c, 0, 44, 32
1, 30440, Tempo, 975610
1, 30480, Tempo, 983607
1, 30520, Tempo, 991736
1, 30560, Note_on_c, 0, 44, 0
1, 30560, Note_on_c, 0, 32, 32
1, 30720, Tempo, 1006036
1, 30720, Note_on_c, 0, 32, 0
1, 30720, Note_on_c, 0, 75, 0
1, 30720, Note_on_c, 0, 76, 62
1, 30720, Note_on_c, 0, 37, 35
1, 30734, Control_c, 0, 64, 0
1, 30789, Control_c, 0, 64, 127
1, 30880, Note_on_c, 0, 37, 0
1, 30880, Note_on_c, 0, 44, 34
1, 31040, Note_on_c, 0, 44, 0
1, 31040, Note_on_c, 0, 61, 33
1, 31080, Note_on_c, 0, 76, 0
1, 31080, Note_on_c, 0, 78, 63
1, 31200, Tempo, 975610
1, 31200, Note_on_c, 0, 78, 0
1, 31200, Note_on_c, 0, 61, 0
1, 31200, Note_on_c, 0, 80, 65
1, 31200, Note_on_c, 0, 52, 32
1, 31360, Note_on_c, 0, 52, 0
1, 31360, Note_on_c, 0, 44, 31
1, 31520, Note_on_c, 0, 44, 0
1, 31520, Note_on_c, 0, 37, 29
1, 31680, Tempo, 1019022
1, 31680, Note_on_c, 0, 37, 0
1, 31680, Note_on_c, 0, 80, 0
1, 31680, Note_on_c, 0, 78, 58
1, 31680, Note_on_c, 0, 42, 26
1, 31697, Control_c, 0, 64, 0
1, 31758, Control_c, 0, 64, 127
1, 31840, Note_on_c, 0, 42, 0
1, 31840, Note_on_c, 0, 50, 24
1, 32000, Note_on_c, 0, 50, 0
1, 32000, Note_on_c, 0, 57, 24
1, 32160, Tempo, 1025641
1, 32160, Note_on_c, 0, 57, 0
1, 32160, Note_on_c, 0, 78, 0
1, 32160, Note_on_c, 0, 74, 56
1, 32160, Note_on_c, 0, 44, 24
1, 32200, Tempo, 1034483
1, 32240, Tempo, 1043478
1, 32280, Tempo, 1061947
1, 32320, Tempo, 1071429
1, 32320, Note_on_c, 0, 44, 0
1, 32320, Note_on_c, 0, 54, 24
1, 32360, Tempo, 1090909
1, 32400, Tempo, 1100917
1, 32440, Tempo, 1121495
1, 32480, Tempo, 1132075
1, 32480, Note_on_c, 0, 54, 0
1, 32480, Note_on_c, 0, 60, 24
1, 32520, Tempo, 1153846
1, 32560, Tempo, 1165049
1, 32600, Tempo, 1188119
1, 32640, Tempo, 1052632
1, 32640, Note_on_c, 0, 60, 0
1, 32640, Note_on_c, 0, 74, 0
1, 32640, Note_on_c, 0, 73, 62
1, 32640, Note_on_c, 0, 37, 26
1, 32654, Control_c, 0, 64, 0
1, 32680, Tempo, 1043478
1, 32720, Tempo, 1034483
1, 32746, Control_c, 0, 64, 127
1, 32760, Tempo, 1016949
1, 32800, Tempo, 1008403
1, 32800, Note_on_c, 0, 37, 0
1, 32800, Note_on_c, 0, 44, 23
1, 32840, Tempo, 991736
1, 32960, Note_on_c, 0, 44, 0
1, 32960, Note_on_c, 0, 61, 24
1, 33120, Note_on_c, 0, 61, 0
1, 33120, Note_on_c, 0, 52, 24
1, 33280, Note_on_c, 0, 52, 0
1, 33280, Note_on_c, 0, 44, 24
1, 33440, Note_on_c, 0, 44, 0
1, 33440, Note_on_c, 0, 37, 24
1, 33597, Note_on_c, 0, 37, 0
1, 33600, Tempo, 1032525
1, 33600, Note_on_c, 0, 37, 26
1, 33618, Control_c, 0, 64, 0
1, 33699, Control_c, 0, 64, 127
1, 33760, Note_on_c, 0, 37, 0
1, 33760, Note_on_c, 0, 44, 24
1, 33920, Note_on_c, 0, 44, 0
1, 33920, Note_on_c, 0, 56, 24
1, 34040, Tempo, 1034483
1, 34080, Tempo, 1043478
1, 34080, Note_on_c, 0, 56, 0
1, 34080, Note_on_c, 0, 49, 24
1, 34120, Tempo, 1061947
1, 34160, Tempo, 1052632
1, 34200, Tempo, 1081081
1, 34240, Tempo, 1111111
1, 34240, Note_on_c, 0, 49, 0
1, 34240, Note_on_c, 0, 44, 24
1, 34280, Tempo, 1142857
1, 34320, Tempo, 1176471
1, 34360, Tempo, 1212121
1, 34400, Tempo, 1250000
1, 34400, Note_on_c, 0, 44, 0
1, 34400, Note_on_c, 0, 37, 24
1, 34440, Tempo, 1290323
1, 34480, Tempo, 1333333
1, 34520, Tempo, 1379310
1, 34560, Tempo, 1318681
1, 34560, Note_on_c, 0, 37, 0
1, 34560, Note_on_c, 0, 73, 0
1, 34560, Note_on_c, 0, 76, 54
1, 34560, Note_on_c, 0, 44, 26
1, 34574, Control_c, 0, 64, 0
1, 34600, Tempo, 1250000
1, 34640, Tempo, 1188119
1, 34680, Tempo, 1132075
1, 34708, Control_c, 0, 64, 127
1, 34720, Tempo, 1081081
1, 34720, Note_on_c, 0, 44, 0
1, 34720, Note_on_c, 0, 49, 26
1, 34760, Tempo, 1034483
1, 34800, Tempo, 991736
1, 34840, Tempo, 952381
1, 34880, Note_on_c, 0, 49, 0
1, 34880, Note_on_c, 0, 56, 26
1, 35040, Tempo, 983607
1, 35040, Note_on_c, 0, 56, 0
1, 35040, Note_on_c, 0, 49, 27
1, 35160, Tempo, 975610
1, 35200, Note_on_c, 0, 49, 0
1, 35200, Note_on_c, 0, 44, 28
1, 35240, Tempo, 967742
1, 35360, Tempo, 960000
1, 35360, Note_on_c, 0, 44, 0
1, 35360, Note_on_c, 0, 37, 28
1, 35440, Tempo, 952381
1, 35520, Tempo, 952381
1, 35520, Note_on_c, 0, 37, 0
1, 35520, Note_on_c, 0, 76, 0
1, 35520, Note_on_c, 0, 76, 51
1, 35520, Note_on_c, 0, 44, 29
1, 35538, Control_c, 0, 64, 0
1, 35598, Control_c, 0, 64, 127
1, 35680, Note_on_c, 0, 44, 0
1, 35680, Note_on_c, 0, 49, 29
1, 35840, Note_on_c, 0, 49, 0
1, 35840, Note_on_c, 0, 56, 30
1, 36000, Tempo, 944882
1, 36000, Note_on_c, 0, 56, 0
1, 36000, Note_on_c, 0, 76, 0
1, 36000, Note_on_c, 0, 76, 54
1, 36000, Note_on_c, 0, 49, 30
1, 36080, Tempo, 952381
1, 36160, Tempo, 960000
1, 36160, Note_on_c, 0, 49, 0
1, 36160, Note_on_c, 0, 44, 31
1, 36200, Tempo, 967742
1, 36280, Tempo, 975610
1, 36320, Tempo, 983607
1, 36320, Note_on_c, 0, 44, 0
1, 36320, Note_on_c, 0, 37, 32
1, 36480, Tempo, 991736
1, 36480, Note_on_c, 0, 37, 0
1, 36480, Note_on_c, 0, 76, 0
1, 36480, Note_on_c, 0, 71, 48
1, 36480, Note_on_c, 0, 77, 56
1, 36480, Note_on_c, 0, 44, 32
1, 36494, Control_c, 0, 64, 0
1, 36560, Tempo, 983607
1, 36586, Control_c, 0, 64, 127
1, 36640, Tempo, 975610
1, 36640, Note_on_c, 0, 44, 0
1, 36640, Note_on_c, 0, 49, 32
1, 36720, Tempo, 967742
1, 36760, Tempo, 960000
1, 36800, Note_on_c, 0, 49, 0
1, 36800, Note_on_c, 0, 56, 31
1, 36840, Tempo, 952381
1, 36920, Tempo, 944882
1, 36960, Tempo, 937500
1, 36960, Note_on_c, 0, 56, 0
1, 36960, Note_on_c, 0, 71, 0
1, 36960, Note_on_c, 0, 73, 53
1, 36960, Note_on_c, 0, 49, 30
1, 37120, Note_on_c, 0, 49, 0
1, 37120, Note_on_c, 0, 44, 30
1, 37280, Note_on_c, 0, 44, 0
1, 37280, Note_on_c, 0, 37, 29
1, 37320, Tempo, 1052632
1, 37320, Note_on_c, 0, 73, 0
1, 37320, Note_on_c, 0, 71, 49
1, 37440, Tempo, 987004
1, 37440, Note_on_c, 0, 71, 0
1, 37440, Note_on_c, 0, 37, 0
1, 37440, Note_on_c, 0, 77, 0
1, 37440, Note_on_c, 0, 71, 50
1, 37440, Note_on_c, 0, 78, 55
1, 37440, Note_on_c, 0, 42, 28
1, 37450, Control_c, 0, 64, 0
1, 37532, Control_c, 0, 64, 127
1, 37600, Note_on_c, 0, 42, 0
1, 37600, Note_on_c, 0, 49, 27
1, 37760, Note_on_c, 0, 49, 0
1, 37760, Note_on_c, 0, 61, 27
1, 37920, Tempo, 967742
1, 37920, Note_on_c, 0, 61, 0
1, 37920, Note_on_c, 0, 71, 0
1, 37920, Note_on_c, 0, 69, 51
1, 37920, Note_on_c, 0, 54, 26
1, 38000, Tempo, 975610
1, 38040, Tempo, 983607
1, 38080, Tempo, 991736
1, 38080, Note_on_c, 0, 54, 0
1, 38080, Note_on_c, 0, 49, 25
1, 38120, Tempo, 1000000
1, 38160, Tempo, 1008403
1, 38240, Note_on_c, 0, 49, 0
1, 38240, Note_on_c, 0, 42, 23
1, 38280, Tempo, 1061947
1, 38280, Note_on_c, 0, 69, 0
1, 38280, Note_on_c, 0, 68, 48
1, 38400, Tempo, 1025816
1, 38400, Note_on_c, 0, 68, 0
1, 38400, Note_on_c, 0, 42, 0
1, 38400, Note_on_c, 0, 66, 50
1, 38400, Note_on_c, 0, 30, 26
1, 38410, Control_c, 0, 64, 0
1, 38480, Tempo, 1008403
1, 38497, Control_c, 0, 64, 127
1, 38560, Note_on_c, 0, 30, 0
1, 38560, Note_on_c, 0, 42, 24
1, 38600, Tempo, 1000000
1, 38680, Tempo, 991736
1, 38720, Note_on_c, 0, 42, 0
1, 38720, Note_on_c, 0, 57, 24
1, 38760, Tempo, 983607
1, 38840, Tempo, 975610
1, 38880, Tempo, 987004
1, 38880, Note_on_c, 0, 57, 0
1, 38880, Note_on_c, 0, 78, 0
1, 38880, Note_on_c, 0, 76, 56
1, 38880, Note_on_c, 0, 50, 24
1, 39040, Note_on_c, 0, 50, 0
1, 39040, Note_on_c, 0, 42, 24
1, 39200, Note_on_c, 0, 42, 0
1, 39200, Note_on_c, 0, 30, 24
1, 39240, Tempo, 1043478
1, 39240, Note_on_c, 0, 76, 0
1, 39240, Note_on_c, 0, 74, 55
1, 39360, Tempo, 1008403
1, 39360, Note_on_c, 0, 74, 0
1, 39360, Note_on_c, 0, 30, 0
1, 39360, Note_on_c, 0, 73, 54
1, 39360, Note_on_c, 0, 32, 26
1, 39373, Control_c, 0, 64, 0
1, 39423, Control_c, 0, 64, 127
1, 39520, Note_on_c, 0, 32, 0
1, 39520, Note_on_c, 0, 44, 24
1, 39680, Note_on_c, 0, 44, 0
1, 39680, Note_on_c, 0, 56, 24
1, 39840, Tempo, 1034483
1, 39840, Note_on_c, 0, 56, 0
1, 39840, Note_on_c, 0, 73, 0
1, 39840, Note_on_c, 0, 72, 51
1, 39840, Note_on_c, 0, 51, 24
1, 39880, Tempo, 1043478
1, 39920, Tempo, 1052632
1, 39960, Tempo, 1061947
1, 40000, Tempo, 1071429
1, 40000, Note_on_c, 0, 51, 0
1, 40000, Note_on_c, 0, 44, 24
1, 40040, Tempo, 1081081
1, 40080, Tempo, 1090909
1, 40120, Tempo, 1100917
1, 40160, Tempo, 1111111
1, 40160, Note_on_c, 0, 44, 0
1, 40160, Note_on_c, 0, 32, 24
1, 40320, Tempo, 1025641
1, 40320, Note_on_c, 0, 32, 0
1, 40320, Note_on_c, 0, 72, 0
1, 40320, Note_on_c, 0, 66, 0
1, 40320, Note_on_c, 0, 64, 45
1, 40320, Note_on_c, 0, 73, 54
1, 40324, Note_on_c, 0, 37, 26
1, 40335, Control_c, 0, 64, 0
1, 40387, Control_c, 0, 64, 127
1, 40482, Note_on_c, 0, 44, 24
1, 40484, Note_on_c, 0, 37, 0
1, 40640, Note_on_c, 0, 61, 23
1, 40642, Note_on_c, 0, 44, 0
1, 40800, Tempo, 999667
1, 40800, Note_on_c, 0, 64, 0
1, 40800, Note_on_c, 0, 73, 0
1, 40800, Note_on_c, 0, 61, 0
1, 40800, Note_on_c, 0, 80, 60
1, 40800, Note_on_c, 0, 52, 23
1, 40960, Note_on_c, 0, 52, 0
1, 40960, Note_on_c, 0, 44, 23
1, 41120, Note_on_c, 0, 44, 0
1, 41120, Note_on_c, 0, 37, 23
1, 41280, Tempo, 1043478
1, 41280, Note_on_c, 0, 37, 0
1, 41280, Note_on_c, 0, 69, 41
1, 41280, Note_on_c, 0, 35, 26
1, 41295, Control_c, 0, 64, 0
1, 41320, Tempo, 1052632
1, 41329, Control_c, 0, 64, 127
1, 41360, Tempo, 1061947
1, 41360, Note_on_c, 0, 69, 0
1, 41376, Note_on_c, 0, 71, 39
1, 41400, Tempo, 1071429
1, 41440, Tempo, 1081081
1, 41440, Note_on_c, 0, 35, 0
1, 41440, Note_on_c, 0, 47, 24
1, 41456, Note_on_c, 0, 71, 0
1, 41472, Note_on_c, 0, 69, 39
1, 41480, Tempo, 1090909
1, 41520, Tempo, 1100917
1, 41552, Note_on_c, 0, 69, 0
1, 41560, Tempo, 1111111
1, 41568, Note_on_c, 0, 68, 41
1, 41600, Tempo, 1121495
1, 41600, Note_on_c, 0, 47, 0
1, 41600, Note_on_c, 0, 63, 24
1, 41640, Tempo, 1132075
1, 41648, Note_on_c, 0, 68, 0
1, 41664, Note_on_c, 0, 69, 39
1, 41680, Tempo, 1142857
1, 41720, Tempo, 1153846
1, 41744, Note_on_c, 0, 69, 0
1, 41760, Tempo, 1200000
1, 41760, Note_on_c, 0, 63, 0
1, 41760, Note_on_c, 0, 80, 0
1, 41760, Note_on_c, 0, 78, 54
1, 41760, Note_on_c, 0, 71, 42
1, 41760, Note_on_c, 0, 57, 24
1, 41840, Tempo, 1212121
1, 41880, Tempo, 1224490
1, 41920, Tempo, 1237113
1, 41920, Note_on_c, 0, 57, 0
1, 41920, Note_on_c, 0, 47, 24
1, 41960, Tempo, 1250000
1, 42040, Tempo, 1263158
1, 42080, Tempo, 1276596
1, 42080, Note_on_c, 0, 47, 0
1, 42080, Note_on_c, 0, 35, 24
1, 42120, Tempo, 1290323
1, 42120, Note_on_c, 0, 71, 0
1, 42120, Note_on_c, 0, 66, 40
1, 42160, Tempo, 1304348
1, 42240, Tempo, 1176471
1, 42240, Note_on_c, 0, 66, 0
1, 42240, Note_on_c, 0, 35, 0
1, 42240, Note_on_c, 0, 78, 0
1, 42240, Note_on_c, 0, 68, 46
1, 42240, Note_on_c, 0, 76, 54
1, 42240, Note_on_c, 0, 40, 30
1, 42254, Control_c, 0, 64, 0
1, 42280, Tempo, 1153846
1, 42320, Tempo, 1121495
1, 42346, Control_c, 0, 64, 127
1, 42360, Tempo, 1090909
1, 42400, Tempo, 1061947
1, 42400, Note_on_c, 0, 40, 0
1, 42400, Note_on_c, 0, 47, 31
1, 42440, Tempo, 1034483
1, 42480, Tempo, 1008403
1, 42520, Tempo, 983607
1, 42560, Note_on_c, 0, 47, 0
1, 42560, Note_on_c, 0, 64, 31
1, 42720, Tempo, 983607
1, 42720, Note_on_c, 0, 64, 0
1, 42720, Note_on_c, 0, 56, 32
1, 42880, Tempo, 975610
1, 42880, Note_on_c, 0, 56, 0
1, 42880, Note_on_c, 0, 47, 32
1, 43040, Tempo, 967742
1, 43040, Note_on_c, 0, 47, 0
1, 43040, Note_on_c, 0, 39, 33
1, 43160, Tempo, 960000
1, 43200, Tempo, 960000
1, 43200, Note_on_c, 0, 39, 0
1, 43200, Note_on_c, 0, 76, 0
1, 43200, Note_on_c, 0, 76, 54
1, 43200, Note_on_c, 0, 37, 34
1, 43217, Control_c, 0, 64, 0
1, 43278, Control_c, 0, 64, 127
1, 43360, Note_on_c, 0, 37, 0
1, 43360, Note_on_c, 0, 44, 34
1, 43520, Note_on_c, 0, 44, 0
1, 43520, Note_on_c, 0, 56, 35
1, 43640, Tempo, 960000
1, 43680, Note_on_c, 0, 56, 0
1, 43680, Note_on_c, 0, 76, 0
1, 43680, Note_on_c, 0, 76, 58
1, 43680, Note_on_c, 0, 49, 35
1, 43720, Tempo, 967742
1, 43800, Tempo, 975610
1, 43840, Note_on_c, 0, 49, 0
1, 43840, Note_on_c, 0, 44, 36
1, 43880, Tempo, 983607
1, 43960, Tempo, 991736
1, 44000, Note_on_c, 0, 44, 0
1, 44000, Note_on_c, 0, 37, 36
1, 44040, Tempo, 1000000
1, 44120, Tempo, 991736
1, 44160, Note_on_c, 0, 37, 0
1, 44160, Note_on_c, 0, 76, 0
1, 44160, Note_on_c, 0, 68, 0
1, 44160, Note_on_c, 0, 71, 55
1, 44160, Note_on_c, 0, 77, 62
1, 44160, Note_on_c, 0, 37, 37
1, 44174, Control_c, 0, 64, 0
1, 44200, Tempo, 991736
1, 44224, Control_c, 0, 64, 127
1, 44280, Tempo, 983607
1, 44320, Note_on_c, 0, 37, 0
1, 44320, Note_on_c, 0, 44, 37
1, 44360, Tempo, 975610
1, 44440, Tempo, 967742
1, 44480, Note_on_c, 0, 44, 0
1, 44480, Note_on_c, 0, 61, 36
1, 44520, Tempo, 960000
1, 44600, Tempo, 952381
1, 44640, Note_on_c, 0, 61, 0
1, 44640, Note_on_c, 0, 71, 0
1, 44640, Note_on_c, 0, 73, 56
1, 44640, Note_on_c, 0, 53, 35
1, 44800, Tempo, 975610
1, 44800, Note_on_c, 0, 53, 0
1, 44800, Note_on_c, 0, 44, 34
1, 44960, Tempo, 983607
1, 44960, Note_on_c, 0, 44, 0
1, 44960, Note_on_c, 0, 37, 33
1, 45000, Tempo, 1061947
1, 45000, Note_on_c, 0, 73, 0
1, 45000, Note_on_c, 0, 71, 51
1, 45120, Tempo, 975610
1, 45120, Note_on_c, 0, 71, 0
1, 45120, Note_on_c, 0, 37, 0
1, 45120, Note_on_c, 0, 77, 0
1, 45120, Note_on_c, 0, 71, 54
1, 45120, Note_on_c, 0, 78, 60
1, 45120, Note_on_c, 0, 37, 32
1, 45137, Control_c, 0, 64, 0
1, 45217, Control_c, 0, 64, 127
1, 45280, Tempo, 967742
1, 45280, Note_on_c, 0, 37, 0
1, 45280, Note_on_c, 0, 45, 31
1, 45400, Tempo, 960000
1, 45440, Note_on_c, 0, 45, 0
1, 45440, Note_on_c, 0, 61, 30
1, 45520, Tempo, 952381
1, 45600, Tempo, 952381
1, 45600, Note_on_c, 0, 61, 0
1, 45600, Note_on_c, 0, 71, 0
1, 45600, Note_on_c, 0, 69, 57
1, 45600, Note_on_c, 0, 54, 29
1, 45760, Note_on_c, 0, 54, 0
1, 45760, Note_on_c, 0, 45, 29
1, 45920, Note_on_c, 0, 45, 0
1, 45920, Note_on_c, 0, 37, 28
1, 45960, Tempo, 1043478
1, 45960, Note_on_c, 0, 69, 0
1, 45960, Note_on_c, 0, 68, 52
1, 46080, Tempo, 1025816
1, 46080, Note_on_c, 0, 68, 0
1, 46080, Note_on_c, 0, 37, 0
1, 46080, Note_on_c, 0, 66, 53
1, 46080, Note_on_c, 0, 37, 26
1, 46089, Control_c, 0, 64, 0
1, 46137, Control_c, 0, 64, 127
1, 46240, Note_on_c, 0, 37, 0
1, 46240, Note_on_c, 0, 45, 24
1, 46400, Note_on_c, 0, 45, 0
1, 46400, Note_on_c, 0, 57, 24
1, 46560, Tempo, 987004
1, 46560, Note_on_c, 0, 57, 0
1, 46560, Note_on_c, 0, 78, 0
1, 46560, Note_on_c, 0, 76, 56
1, 46560, Note_on_c, 0, 50, 24
1, 46720, Note_on_c, 0, 50, 0
1, 46720, Note_on_c, 0, 45, 24
1, 46880, Note_on_c, 0, 45, 0
1, 46880, Note_on_c, 0, 37, 24
1, 46920, Tempo, 1081081
1, 46920, Note_on_c, 0, 76, 0
1, 46920, Note_on_c, 0, 74, 55
1, 47040, Tempo, 975610
1, 47040, Note_on_c, 0, 74, 0
1, 47040, Note_on_c, 0, 37, 0
1, 47040, Note_on_c, 0, 73, 54
1, 47040, Note_on_c, 0, 37, 26
1, 47058, Control_c, 0, 64, 0
1, 47115, Control_c, 0, 64, 127
1, 47200, Note_on_c, 0, 37, 0
1, 47200, Note_on_c, 0, 45, 24
1, 47360, Note_on_c, 0, 45, 0
1, 47360, Note_on_c, 0, 57, 24
1, 47520, Tempo, 983607
1, 47520, Note_on_c, 0, 57, 0
1, 47520, Note_on_c, 0, 73, 0
1, 47520, Note_on_c, 0, 72, 52
1, 47520, Note_on_c, 0, 50, 24
1, 47680, Note_on_c, 0, 50, 0
1, 47680, Note_on_c, 0, 45, 24
1, 47840, Note_on_c, 0, 45, 0
1, 47840, Note_on_c, 0, 37, 24
1, 48000, Tempo, 1000000
1, 48000, Note_on_c, 0, 37, 0
1, 48000, Note_on_c, 0, 66, 0
1, 48000, Note_on_c, 0, 66, 41
1, 48000, Note_on_c, 0, 37, 26
1, 48017, Control_c, 0, 64, 0
1, 48080, Control_c, 0, 64, 127
1, 48160, Note_on_c, 0, 37, 0
1, 48160, Note_on_c, 0, 45, 22
1, 48320, Note_on_c, 0, 45, 0
1, 48320, Note_on_c, 0, 57, 24
1, 48480, Tempo, 1016949
1, 48480, Note_on_c, 0, 57, 0
1, 48480, Note_on_c, 0, 66, 0
1, 48480, Note_on_c, 0, 64, 45
1, 48480, Note_on_c, 0, 50, 27
1, 48640, Note_on_c, 0, 50, 0
1, 48640, Note_on_c, 0, 45, 23
1, 48800, Note_on_c, 0, 45, 0
1, 48800, Note_on_c, 0, 37, 23
1, 48840, Tempo, 1081081
1, 48840, Note_on_c, 0, 64, 0
1, 48840, Note_on_c, 0, 62, 34
1, 48960, Tempo, 1019022
1, 48960, Note_on_c, 0, 62, 0
1, 48960, Note_on_c, 0, 37, 0
1, 48960, Note_on_c, 0, 72, 0
1, 48960, Note_on_c, 0, 61, 40
1, 48960, Note_on_c, 0, 37, 26
1, 48977, Control_c, 0, 64, 0
1, 49051, Control_c, 0, 64, 127
1, 49120, Note_on_c, 0, 37, 0
1, 49120, Note_on_c, 0, 45, 24
1, 49280, Note_on_c, 0, 45, 0
1, 49280, Note_on_c, 0, 57, 24
1, 49440, Tempo, 1060445
1, 49440, Note_on_c, 0, 57, 0
1, 49440, Note_on_c, 0, 61, 0
1, 49440, Note_on_c, 0, 60, 36
1, 49440, Note_on_c, 0, 50, 24
1, 49480, Tempo, 1052632
1, 49520, Tempo, 1071429
1, 49560, Tempo, 1090909
1, 49600, Tempo, 1111111
1, 49600, Note_on_c, 0, 50, 0
1, 49600, Note_on_c, 0, 45, 24
1, 49640, Tempo, 1132075
1, 49680, Tempo, 1165049
1, 49720, Tempo, 1200000
1, 49760, Tempo, 1237113
1, 49760, Note_on_c, 0, 45, 0
1, 49760, Note_on_c, 0, 37, 24
1, 49800, Tempo, 1276596
1, 49840, Tempo, 1237113
1, 49880, Tempo, 1212121
1, 49920, Tempo, 1188119
1, 49920, Note_on_c, 0, 37, 0
1, 49920, Note_on_c, 0, 60, 0
1, 49920, Note_on_c, 0, 45, 26
1, 49937, Control_c, 0, 64, 0
1, 49960, Tempo, 1165049
1, 49995, Control_c, 0, 64, 127
1, 50000, Tempo, 1142857
1, 50040, Tempo, 1121495
1, 50080, Tempo, 1100917
1, 50080, Note_on_c, 0, 45, 0
1, 50080, Note_on_c, 0, 50, 22
1, 50120, Tempo, 1081081
1, 50160, Tempo, 1061947
1, 50200, Tempo, 1043478
1, 50240, Tempo, 1025641
1, 50240, Note_on_c, 0, 50, 0
1, 50240, Note_on_c, 0, 57, 24
1, 50400, Note_on_c, 0, 57, 0
1, 50400, Note_on_c, 0, 62, 27
1, 50440, Tempo, 1016949
1, 50560, Note_on_c, 0, 62, 0
1, 50560, Note_on_c, 0, 57, 23
1, 50680, Tempo, 1008403
1, 50720, Note_on_c, 0, 57, 0
1, 50720, Note_on_c, 0, 50, 23
1, 50880, Tempo, 1000000
1, 50880, Note_on_c, 0, 50, 0
1, 50880, Note_on_c, 0, 45, 26
1, 51040, Note_on_c, 0, 45, 0
1, 51040, Note_on_c, 0, 50, 24
1, 51200, Note_on_c, 0, 50, 0
1, 51200, Note_on_c, 0, 57, 25
1, 51320, Tempo, 983607
1, 51360, Note_on_c, 0, 57, 0
1, 51360, Note_on_c, 0, 50, 24
1, 51400, Tempo, 991736
1, 51440, Tempo, 1000000
1, 51520, Tempo, 1008403
1, 51520, Note_on_c, 0, 50, 0
1, 51520, Note_on_c, 0, 45, 24
1, 51560, Tempo, 1016949
1, 51600, Tempo, 1025641
1, 51680, Tempo, 1034483
1, 51680, Note_on_c, 0, 45, 0
1, 51680, Note_on_c, 0, 37, 24
1, 51720, Tempo, 1043478
1, 51800, Tempo, 1052632
1, 51840, Tempo, 1061947
1, 51840, Note_on_c, 0, 37, 0
1, 51840, Note_on_c, 0, 50, 26
1, 51880, Tempo, 1071429
1, 52000, Tempo, 1061947
1, 52000, Note_on_c, 0, 50, 0
1, 52000, Note_on_c, 0, 57, 23
1, 52120, Tempo, 1052632
1, 52160, Note_on_c, 0, 57, 0
1, 52160, Note_on_c, 0, 62, 25
1, 52240, Tempo, 1043478
1, 52320, Tempo, 1034483
1, 52320, Note_on_c, 0, 62, 0
1, 52320, Note_on_c, 0, 66, 27
1, 52440, Tempo, 1025641
1, 52480, Note_on_c, 0, 66, 0
1, 52480, Note_on_c, 0, 62, 23
1, 52560, Tempo, 1016949
1, 52640, Note_on_c, 0, 62, 0
1, 52640, Note_on_c, 0, 57, 23
1, 52680, Tempo, 1008403
1, 52720, Tempo, 1000000
1, 52800, Note_on_c, 0, 57, 0
1, 52800, Note_on_c, 0, 45, 26
1, 52840, Tempo, 1008403
1, 52960, Tempo, 1016949
1, 52960, Note_on_c, 0, 45, 0
1, 52960, Note_on_c, 0, 50, 24
1, 53080, Tempo, 1025641
1, 53120, Note_on_c, 0, 50, 0
1, 53120, Note_on_c, 0, 57, 24
1, 53200, Tempo, 1034483
1, 53280, Tempo, 1043478
1, 53280, Note_on_c, 0, 57, 0
1, 53280, Note_on_c, 0, 50, 26
1, 53360, Tempo, 1067616
1, 53440, Tempo, 1074884
1, 53440, Note_on_c, 0, 50, 0
1, 53440, Note_on_c, 0, 45, 24
1, 53520, Tempo, 1071429
1, 53560, Tempo, 1132075
1, 53600, Tempo, 1200000
1, 53600, Note_on_c, 0, 45, 0
1, 53600, Note_on_c, 0, 37, 24
1, 53720, Tempo, 600000
1, 53760, Time_signature, 3, 2, 24, 8
1, 53760, Tempo, 560748
1, 53760, Note_on_c, 0, 37, 0
1, 53760, Note_on_c, 0, 56, 32
1, 53760, Note_on_c, 0, 63, 32
1, 53760, Note_on_c, 0, 66, 32
1, 53760, Note_on_c, 0, 68, 38
1, 53760, Note_on_c, 0, 36, 31
1, 53763, Control_c, 0, 64, 0
1, 53800, Tempo, 555556
1, 53840, Tempo, 547945
1, 53880, Tempo, 540541
1, 53920, Tempo, 533333
1, 53920, Note_on_c, 0, 43, 26
1, 53960, Tempo, 528634
1, 54000, Tempo, 521739
1, 54040, Tempo, 515021
1, 54080, Tempo, 508475
1, 54080, Note_on_c, 0, 44, 26
1, 54090, Note_on_c, 0, 43, 0
1, 54120, Tempo, 504202
1, 54160, Tempo, 497925
1, 54200, Tempo, 491803
1, 54240, Tempo, 485830
1, 54240, Note_on_c, 0, 45, 26
1, 54250, Note_on_c, 0, 44, 0
1, 54400, Note_on_c, 0, 44, 26
1, 54410, Note_on_c, 0, 45, 0
1, 54480, Note_on_c, 0, 56, 0
1, 54480, Note_on_c, 0, 68, 0
1, 54480, Note_on_c, 0, 56, 33
1, 54480, Note_on_c, 0, 68, 38
1, 54560, Note_on_c, 0, 45, 26
1, 54570, Note_on_c, 0, 44, 0
1, 54720, Tempo, 506329
1, 54720, Note_on_c, 0, 56, 0
1, 54720, Note_on_c, 0, 68, 0
1, 54720, Note_on_c, 0, 56, 34
1, 54720, Note_on_c, 0, 68, 41
1, 54720, Note_on_c, 0, 44, 26
1, 54730, Note_on_c, 0, 45, 0
1, 54880, Note_on_c, 0, 45, 26
1, 54890, Note_on_c, 0, 44, 0
1, 55040, Note_on_c, 0, 44, 26
1, 55050, Note_on_c, 0, 45, 0
1, 55200, Tempo, 478088
1, 55200, Note_on_c, 0, 68, 0
1, 55200, Note_on_c, 0, 66, 0
1, 55200, Note_on_c, 0, 36, 0
1, 55200, Note_on_c, 0, 63, 0
1, 55200, Note_on_c, 0, 44, 0
1, 55200, Note_on_c, 0, 56, 0
1, 55200, Note_on_c, 0, 56, 34
1, 55200, Note_on_c, 0, 61, 41
1, 55200, Note_on_c, 0, 68, 41
1, 55200, Note_on_c, 0, 37, 30
1, 55360, Note_on_c, 0, 43, 26
1, 55520, Note_on_c, 0, 44, 27
1, 55530, Note_on_c, 0, 43, 0
1, 55680, Note_on_c, 0, 45, 27
1, 55690, Note_on_c, 0, 44, 0
1, 55840, Note_on_c, 0, 44, 27
1, 55850, Note_on_c, 0, 45, 0
1, 55920, Tempo, 485830
1, 55920, Note_on_c, 0, 61, 0
1, 55920, Note_on_c, 0, 64, 38
1, 56000, Note_on_c, 0, 45, 27
1, 56010, Note_on_c, 0, 44, 0
1, 56160, Note_on_c, 0, 64, 0
1, 56160, Note_on_c, 0, 61, 39
1, 56160, Note_on_c, 0, 44, 27
1, 56170, Note_on_c, 0, 45, 0
1, 56320, Note_on_c, 0, 45, 27
1, 56330, Note_on_c, 0, 44, 0
1, 56480, Note_on_c, 0, 44, 27
1, 56490, Note_on_c, 0, 45, 0
1, 56640, Tempo, 500000
1, 56640, Note_on_c, 0, 68, 0
1, 56640, Note_on_c, 0, 37, 0
1, 56640, Note_on_c, 0, 56, 0
1, 56640, Note_on_c, 0, 44, 0
1, 56640, Note_on_c, 0, 61, 0
1, 56640, Note_on_c, 0, 56, 39
1, 56640, Note_on_c, 0, 60, 39
1, 56640, Note_on_c, 0, 68, 47
1, 56640, Note_on_c, 0, 39, 33
1, 56680, Tempo, 495868
1, 56720, Tempo, 491803
1, 56760, Tempo, 487805
1, 56800, Tempo, 481928
1, 56800, Note_on_c, 0, 43, 33
1, 56840, Tempo, 478088
1, 56880, Tempo, 474308
1, 56920, Tempo, 468750
1, 56960, Tempo, 465116
1, 56960, Note_on_c, 0, 44, 29
1, 56970, Note_on_c, 0, 43, 0
1, 57000, Tempo, 461538
1, 57040, Tempo, 456274
1, 57080, Tempo, 459770
1, 57120, Tempo, 458015
1, 57120, Note_on_c, 0, 45, 29
1, 57130, Note_on_c, 0, 44, 0
1, 57280, Note_on_c, 0, 44, 29
1, 57290, Note_on_c, 0, 45, 0
1, 57360, Note_on_c, 0, 68, 0
1, 57360, Note_on_c, 0, 56, 0
1, 57360, Note_on_c, 0, 56, 38
1, 57360, Note_on_c, 0, 68, 45
1, 57440, Note_on_c, 0, 45, 29
1, 57450, Note_on_c, 0, 44, 0
1, 57600, Tempo, 480000
1, 57600, Note_on_c, 0, 68, 0
1, 57600, Note_on_c, 0, 56, 0
1, 57600, Note_on_c, 0, 56, 40
1, 57600, Note_on_c, 0, 68, 48
1, 57600, Note_on_c, 0, 44, 30
1, 57610, Note_on_c, 0, 45, 0
1, 57760, Note_on_c, 0, 45, 30
1, 57770, Note_on_c, 0, 44, 0
1, 57920, Note_on_c, 0, 44, 29
1, 57930, Note_on_c, 0, 45, 0
1, 58080, Tempo, 459770
1, 58080, Note_on_c, 0, 60, 0
1, 58080, Note_on_c, 0, 56, 0
1, 58080, Note_on_c, 0, 39, 0
1, 58080, Note_on_c, 0, 44, 0
1, 58080, Note_on_c, 0, 68, 0
1, 58080, Note_on_c, 0, 56, 40
1, 58080, Note_on_c, 0, 61, 48
1, 58080, Note_on_c, 0, 68, 48
1, 58080, Note_on_c, 0, 40, 34
1, 58240, Note_on_c, 0, 43, 30
1, 58400, Note_on_c, 0, 44, 30
1, 58410, Note_on_c, 0, 43, 0
1, 58560, Note_on_c, 0, 45, 30
1, 58570, Note_on_c, 0, 44, 0
1, 58720, Note_on_c, 0, 44, 30
1, 58730, Note_on_c, 0, 45, 0
1, 58800, Note_on_c, 0, 61, 0
1, 58800, Note_on_c, 0, 64, 45
1, 58880, Note_on_c, 0, 45, 30
1, 58890, Note_on_c, 0, 44, 0
1, 59040, Note_on_c, 0, 64, 0
1, 59040, Note_on_c, 0, 61, 45
1, 59040, Note_on_c, 0, 44, 30
1, 59050, Note_on_c, 0, 45, 0
1, 59200, Note_on_c, 0, 45, 30
1, 59210, Note_on_c, 0, 44, 0
1, 59360, Note_on_c, 0, 44, 30
1, 59370, Note_on_c, 0, 45, 0
1, 59480, Tempo, 459770
1, 59520, Tempo, 481928
1, 59520, Note_on_c, 0, 68, 0
1, 59520, Note_on_c, 0, 40, 0
1, 59520, Note_on_c, 0, 56, 0
1, 59520, Note_on_c, 0, 44, 0
1, 59520, Note_on_c, 0, 61, 0
1, 59520, Note_on_c, 0, 61, 45
1, 59520, Note_on_c, 0, 68, 45
1, 59520, Note_on_c, 0, 71, 45
1, 59520, Note_on_c, 0, 73, 55
1, 59520, Note_on_c, 0, 41, 45
1, 59560, Tempo, 478088
1, 59600, Tempo, 474308
1, 59640, Tempo, 470588
1, 59680, Tempo, 466926
1, 59680, Note_on_c, 0, 48, 45
1, 59720, Tempo, 463320
1, 59760, Tempo, 458015
1, 59800, Tempo, 454545
1, 59840, Tempo, 451128
1, 59840, Note_on_c, 0, 49, 40
1, 59850, Note_on_c, 0, 48, 0
1, 59880, Tempo, 447761
1, 59920, Tempo, 444444
1, 59960, Tempo, 441176
1, 60000, Tempo, 436364
1, 60000, Note_on_c, 0, 50, 41
1, 60010, Note_on_c, 0, 49, 0
1, 60160, Note_on_c, 0, 49, 41
1, 60170, Note_on_c, 0, 50, 0
1, 60240, Note_on_c, 0, 61, 0
1, 60240, Note_on_c, 0, 73, 0
1, 60240, Note_on_c, 0, 61, 45
1, 60240, Note_on_c, 0, 73, 53
1, 60320, Note_on_c, 0, 50, 41
1, 60330, Note_on_c, 0, 49, 0
1, 60480, Tempo, 446097
1, 60480, Note_on_c, 0, 61, 0
1, 60480, Note_on_c, 0, 73, 0
1, 60480, Note_on_c, 0, 61, 46
1, 60480, Note_on_c, 0, 73, 55
1, 60480, Note_on_c, 0, 49, 41
1, 60490, Note_on_c, 0, 50, 0
1, 60640, Note_on_c, 0, 50, 41
1, 60650, Note_on_c, 0, 49, 0
1, 60800, Note_on_c, 0, 49, 40
1, 60810, Note_on_c, 0, 50, 0
1, 60960, Tempo, 437956
1, 60960, Note_on_c, 0, 73, 0
1, 60960, Note_on_c, 0, 71, 0
1, 60960, Note_on_c, 0, 41, 0
1, 60960, Note_on_c, 0, 68, 0
1, 60960, Note_on_c, 0, 49, 0
1, 60960, Note_on_c, 0, 61, 0
1, 60960, Note_on_c, 0, 61, 46
1, 60960, Note_on_c, 0, 66, 57
1, 60960, Note_on_c, 0, 73, 57
1, 60960, Note_on_c, 0, 42, 46
1, 61120, Note_on_c, 0, 48, 41
1, 61280, Note_on_c, 0, 49, 43
1, 61290, Note_on_c, 0, 48, 0
1, 61440, Note_on_c, 0, 50, 44
1, 61450, Note_on_c, 0, 49, 0
1, 61600, Note_on_c, 0, 49, 44
1, 61610, Note_on_c, 0, 50, 0
1, 61680, Note_on_c, 0, 66, 0
1, 61680, Note_on_c, 0, 69, 56
1, 61760, Note_on_c, 0, 50, 44
1, 61770, Note_on_c, 0, 49, 0
1, 61920, Tempo, 447761
1, 61920, Note_on_c, 0, 69, 0
1, 61920, Note_on_c, 0, 66, 57
1, 61920, Note_on_c, 0, 49, 44
1, 61930, Note_on_c, 0, 50, 0
1, 62080, Note_on_c, 0, 50, 44
1, 62090, Note_on_c, 0, 49, 0
1, 62240, Note_on_c, 0, 49, 44
1, 62250, Note_on_c, 0, 50, 0
1, 62400, Tempo, 463320
1, 62400, Note_on_c, 0, 73, 0
1, 62400, Note_on_c, 0, 42, 0
1, 62400, Note_on_c, 0, 61, 0
1, 62400, Note_on_c, 0, 49, 0
1, 62400, Note_on_c, 0, 66, 0
1, 62400, Note_on_c, 0, 61, 56
1, 62400, Note_on_c, 0, 65, 56
1, 62400, Note_on_c, 0, 73, 66
1, 62400, Note_on_c, 0, 44, 55
1, 62440, Tempo, 459770
1, 62480, Tempo, 456274
1, 62520, Tempo, 452830
1, 62560, Tempo, 449438
1, 62560, Note_on_c, 0, 48, 55
1, 62600, Tempo, 446097
1, 62640, Tempo, 442804
1, 62680, Tempo, 439560
1, 62720, Tempo, 436364
1, 62720, Note_on_c, 0, 49, 49
1, 62730, Note_on_c, 0, 48, 0
1, 62760, Tempo, 433213
1, 62800, Tempo, 430108
1, 62840, Tempo, 427046
1, 62880, Tempo, 422535
1, 62880, Note_on_c, 0, 50, 49
1, 62890, Note_on_c, 0, 49, 0
1, 63040, Note_on_c, 0, 49, 50
1, 63050, Note_on_c, 0, 50, 0
1, 63120, Note_on_c, 0, 73, 0
1, 63120, Note_on_c, 0, 61, 0
1, 63120, Note_on_c, 0, 61, 54
1, 63120, Note_on_c, 0, 73, 65
1, 63200, Note_on_c, 0, 50, 50
1, 63210, Note_on_c, 0, 49, 0
1, 63360, Tempo, 434783
1, 63360, Note_on_c, 0, 73, 0
1, 63360, Note_on_c, 0, 61, 0
1, 63360, Note_on_c, 0, 61, 57
1, 63360, Note_on_c, 0, 73, 67
1, 63360, Note_on_c, 0, 49, 50
1, 63370, Note_on_c, 0, 50, 0
1, 63520, Note_on_c, 0, 50, 50
1, 63530, Note_on_c, 0, 49, 0
1, 63680, Note_on_c, 0, 49, 50
1, 63690, Note_on_c, 0, 50, 0
1, 63840, Tempo, 422535
1, 63840, Note_on_c, 0, 65, 0
1, 63840, Note_on_c, 0, 61, 0
1, 63840, Note_on_c, 0, 44, 0
1, 63840, Note_on_c, 0, 49, 0
1, 63840, Note_on_c, 0, 73, 0
1, 63840, Note_on_c, 0, 61, 58
1, 63840, Note_on_c, 0, 66, 69
1, 63840, Note_on_c, 0, 73, 69
1, 63840, Note_on_c, 0, 45, 58
1, 64000, Note_on_c, 0, 48, 51
1, 64160, Note_on_c, 0, 49, 52
1, 64170, Note_on_c, 0, 48, 0
1, 64320, Note_on_c, 0, 50, 52
1, 64330, Note_on_c, 0, 49, 0
1, 64480, Note_on_c, 0, 49, 52
1, 64490, Note_on_c, 0, 50, 0
1, 64560, Note_on_c, 0, 66, 0
1, 64560, Note_on_c, 0, 69, 71
1, 64640, Note_on_c, 0, 50, 53
1, 64650, Note_on_c, 0, 49, 0
1, 64800, Note_on_c, 0, 69, 0
1, 64800, Note_on_c, 0, 66, 73
1, 64800, Note_on_c, 0, 49, 54
1, 64810, Note_on_c, 0, 50, 0
1, 64840, Tempo, 422535
1, 64880, Tempo, 425532
1, 64920, Tempo, 430108
1, 64960, Tempo, 434783
1, 64960, Note_on_c, 0, 50, 54
1, 64970, Note_on_c, 0, 49, 0
1, 65000, Tempo, 439560
1, 65040, Tempo, 444444
1, 65060, Tempo, 444444
1, 65100, Tempo, 485830
1, 65120, Note_on_c, 0, 49, 54
1, 65130, Note_on_c, 0, 50, 0
1, 65140, Tempo, 535714
1, 65180, Tempo, 600000
1, 65220, Tempo, 677966
1, 65260, Tempo, 784314
1, 65280, Tempo, 615385
1, 65280, Note_on_c, 0, 73, 0
1, 65280, Note_on_c, 0, 45, 0
1, 65280, Note_on_c, 0, 61, 0
1, 65280, Note_on_c, 0, 49, 0
1, 65280, Note_on_c, 0, 66, 0
1, 65280, Note_on_c, 0, 68, 66
1, 65280, Note_on_c, 0, 75, 66
1, 65280, Note_on_c, 0, 78, 66
1, 65280, Note_on_c, 0, 80, 78
1, 65280, Note_on_c, 0, 36, 65
1, 65280, Note_on_c, 0, 48, 65
1, 65320, Tempo, 568720
1, 65331, Control_c, 0, 64, 127
1, 65360, Tempo, 528634
1, 65400, Tempo, 493827
1, 65440, Tempo, 463320
1, 65440, Note_on_c, 0, 48, 0
1, 65440, Note_on_c, 0, 36, 0
1, 65440, Note_on_c, 0, 55, 65
1, 65480, Tempo, 434783
1, 65520, Tempo, 432744
1, 65560, Tempo, 431282
1, 65600, Tempo, 429861
1, 65600, Note_on_c, 0, 55, 0
1, 65600, Note_on_c, 0, 56, 58
1, 65640, Tempo, 428418
1, 65680, Tempo, 426985
1, 65720, Tempo, 425592
1, 65760, Tempo, 424178
1, 65760, Note_on_c, 0, 56, 0
1, 65760, Note_on_c, 0, 57, 58
1, 65920, Note_on_c, 0, 57, 0
1, 65920, Note_on_c, 0, 56, 58
1, 66080, Note_on_c, 0, 56, 0
1, 66080, Note_on_c, 0, 57, 58
1, 66120, Tempo, 443197
1, 66120, Note_on_c, 0, 68, 0
1, 66120, Note_on_c, 0, 80, 0
1, 66120, Note_on_c, 0, 68, 61
1, 66120, Note_on_c, 0, 80, 74
1, 66240, Tempo, 443197
1, 66240, Note_on_c, 0, 80, 0
1, 66240, Note_on_c, 0, 57, 0
1, 66240, Note_on_c, 0, 68, 0
1, 66240, Note_on_c, 0, 68, 66
1, 66240, Note_on_c, 0, 80, 78
1, 66240, Note_on_c, 0, 56, 58
1, 66400, Note_on_c, 0, 56, 0
1, 66400, Note_on_c, 0, 63, 58
1, 66560, Note_on_c, 0, 63, 0
1, 66560, Note_on_c, 0, 56, 56
1, 66720, Tempo, 428418
1, 66720, Note_on_c, 0, 56, 0
1, 66720, Note_on_c, 0, 68, 0
1, 66720, Note_on_c, 0, 75, 0
1, 66720, Note_on_c, 0, 78, 0
1, 66720, Note_on_c, 0, 80, 0
1, 66720, Note_on_c, 0, 68, 66
1, 66720, Note_on_c, 0, 73, 66
1, 66720, Note_on_c, 0, 80, 78
1, 66720, Note_on_c, 0, 37, 66
1, 66720, Note_on_c, 0, 49, 66
1, 66727, Control_c, 0, 64, 0
1, 66811, Control_c, 0, 64, 127
1, 66880, Note_on_c, 0, 49, 0
1, 66880, Note_on_c, 0, 37, 0
1, 66880, Note_on_c, 0, 55, 58
1, 67040, Note_on_c, 0, 55, 0
1, 67040, Note_on_c, 0, 56, 59
1, 67200, Note_on_c, 0, 56, 0
1, 67200, Note_on_c, 0, 57, 59
1, 67360, Note_on_c, 0, 57, 0
1, 67360, Note_on_c, 0, 56, 59
1, 67520, Note_on_c, 0, 56, 0
1, 67520, Note_on_c, 0, 57, 59
1, 67560, Tempo, 449405
1, 67560, Note_on_c, 0, 73, 0
1, 67560, Note_on_c, 0, 76, 79
1, 67680, Tempo, 428418
1, 67680, Note_on_c, 0, 76, 0
1, 67680, Note_on_c, 0, 57, 0
1, 67680, Note_on_c, 0, 73, 79
1, 67680, Note_on_c, 0, 56, 59
1, 67840, Note_on_c, 0, 56, 0
1, 67840, Note_on_c, 0, 64, 59
1, 68000, Note_on_c, 0, 64, 0
1, 68000, Note_on_c, 0, 56, 59
1, 68120, Tempo, 440173
1, 68160, Tempo, 438661
1, 68160, Note_on_c, 0, 56, 0
1, 68160, Note_on_c, 0, 68, 0
1, 68160, Note_on_c, 0, 80, 0
1, 68160, Note_on_c, 0, 73, 0
1, 68160, Note_on_c, 0, 68, 66
1, 68160, Note_on_c, 0, 72, 66
1, 68160, Note_on_c, 0, 80, 78
1, 68160, Note_on_c, 0, 39, 65
1, 68160, Note_on_c, 0, 51, 65
1, 68170, Control_c, 0, 64, 0
1, 68200, Tempo, 437158
1, 68240, Tempo, 435667
1, 68246, Control_c, 0, 64, 127
1, 68280, Tempo, 434216
1, 68320, Tempo, 431282
1, 68320, Note_on_c, 0, 51, 0
1, 68320, Note_on_c, 0, 39, 0
1, 68320, Note_on_c, 0, 55, 65
1, 68360, Tempo, 429861
1, 68400, Tempo, 428418
1, 68440, Tempo, 426985
1, 68480, Tempo, 424178
1, 68480, Note_on_c, 0, 55, 0
1, 68480, Note_on_c, 0, 56, 58
1, 68520, Tempo, 422773
1, 68560, Tempo, 421408
1, 68600, Tempo, 420021
1, 68640, Tempo, 417304
1, 68640, Note_on_c, 0, 56, 0
1, 68640, Note_on_c, 0, 57, 58
1, 68800, Note_on_c, 0, 57, 0
1, 68800, Note_on_c, 0, 56, 58
1, 68960, Note_on_c, 0, 56, 0
1, 68960, Note_on_c, 0, 57, 58
1, 69000, Tempo, 429861
1, 69000, Note_on_c, 0, 80, 0
1, 69000, Note_on_c, 0, 68, 0
1, 69000, Note_on_c, 0, 68, 61
1, 69000, Note_on_c, 0, 80, 74
1, 69120, Tempo, 431282
1, 69120, Note_on_c, 0, 80, 0
1, 69120, Note_on_c, 0, 68, 0
1, 69120, Note_on_c, 0, 57, 0
1, 69120, Note_on_c, 0, 68, 66
1, 69120, Note_on_c, 0, 80, 78
1, 69120, Note_on_c, 0, 56, 58
1, 69280, Note_on_c, 0, 56, 0
1, 69280, Note_on_c, 0, 66, 58
1, 69440, Note_on_c, 0, 66, 0
1, 69440, Note_on_c, 0, 56, 56
1, 69600, Tempo, 425592
1, 69600, Note_on_c, 0, 56, 0
1, 69600, Note_on_c, 0, 72, 0
1, 69600, Note_on_c, 0, 68, 0
1, 69600, Note_on_c, 0, 80, 0
1, 69600, Note_on_c, 0, 68, 66
1, 69600, Note_on_c, 0, 73, 78
1, 69600, Note_on_c, 0, 80, 78
1, 69600, Note_on_c, 0, 40, 66
1, 69600, Note_on_c, 0, 52, 66
1, 69615, Control_c, 0, 64, 0
1, 69663, Control_c, 0, 64, 127
1, 69760, Note_on_c, 0, 52, 0
1, 69760, Note_on_c, 0, 40, 0
1, 69760, Note_on_c, 0, 55, 58
1, 69920, Note_on_c, 0, 55, 0
1, 69920, Note_on_c, 0, 56, 59
1, 70080, Note_on_c, 0, 56, 0
1, 70080, Note_on_c, 0, 57, 59
1, 70240, Note_on_c, 0, 57, 0
1, 70240, Note_on_c, 0, 56, 59
1, 70400, Note_on_c, 0, 56, 0
1, 70400, Note_on_c, 0, 57, 59
1, 70440, Tempo, 443197
1, 70440, Note_on_c, 0, 73, 0
1, 70440, Note_on_c, 0, 76, 79
1, 70560, Tempo, 425592
1, 70560, Note_on_c, 0, 76, 0
1, 70560, Note_on_c, 0, 57, 0
1, 70560, Note_on_c, 0, 73, 79
1, 70560, Note_on_c, 0, 56, 59
1, 70720, Note_on_c, 0, 56, 0
1, 70720, Note_on_c, 0, 68, 59
1, 70800, Tempo, 493827
1, 70880, Note_on_c, 0, 68, 0
1, 70880, Note_on_c, 0, 56, 59
1, 71000, Tempo, 487805
1, 71040, Tempo, 474308
1, 71040, Note_on_c, 0, 56, 0
1, 71040, Note_on_c, 0, 68, 0
1, 71040, Note_on_c, 0, 80, 0
1, 71040, Note_on_c, 0, 73, 0
1, 71040, Note_on_c, 0, 73, 69
1, 71040, Note_on_c, 0, 80, 69
1, 71040, Note_on_c, 0, 83, 69
1, 71040, Note_on_c, 0, 85, 80
1, 71040, Note_on_c, 0, 41, 68
1, 71040, Note_on_c, 0, 53, 68
1, 71050, Control_c, 0, 64, 0
1, 71080, Tempo, 459770
1, 71091, Control_c, 0, 64, 127
1, 71120, Tempo, 447761
1, 71160, Tempo, 434783
1, 71200, Tempo, 422535
1, 71200, Note_on_c, 0, 53, 0
1, 71200, Note_on_c, 0, 41, 0
1, 71200, Note_on_c, 0, 60, 68
1, 71240, Tempo, 428418
1, 71280, Tempo, 426985
1, 71320, Tempo, 425592
1, 71360, Tempo, 424178
1, 71360, Note_on_c, 0, 60, 0
1, 71360, Note_on_c, 0, 61, 59
1, 71400, Tempo, 422773
1, 71440, Tempo, 421408
1, 71480, Tempo, 420021
1, 71520, Tempo, 418644
1, 71520, Note_on_c, 0, 61, 0
1, 71520, Note_on_c, 0, 62, 59
1, 71560, Tempo, 417304
1, 71680, Note_on_c, 0, 62, 0
1, 71680, Note_on_c, 0, 61, 60
1, 71840, Note_on_c, 0, 61, 0
1, 71840, Note_on_c, 0, 62, 60
1, 71880, Tempo, 459770
1, 71880, Note_on_c, 0, 73, 0
1, 71880, Note_on_c, 0, 85, 0
1, 71880, Note_on_c, 0, 73, 53
1, 71880, Note_on_c, 0, 85, 78
1, 72000, Tempo, 442804
1, 72000, Note_on_c, 0, 85, 0
1, 72000, Note_on_c, 0, 62, 0
1, 72000, Note_on_c, 0, 73, 0
1, 72000, Note_on_c, 0, 73, 59
1, 72000, Note_on_c, 0, 85, 71
1, 72000, Note_on_c, 0, 61, 60
1, 72140, Note_on_c, 0, 85, 0
1, 72140, Note_on_c, 0, 73, 0
1, 72160, Note_on_c, 0, 61, 0
1, 72160, Note_on_c, 0, 73, 62
1, 72160, Note_on_c, 0, 85, 73
1, 72160, Note_on_c, 0, 71, 60
1, 72300, Note_on_c, 0, 85, 0
1, 72300, Note_on_c, 0, 73, 0
1, 72320, Note_on_c, 0, 71, 0
1, 72320, Note_on_c, 0, 73, 68
1, 72320, Note_on_c, 0, 85, 80
1, 72320, Note_on_c, 0, 61, 59
1, 72460, Note_on_c, 0, 85, 0
1, 72460, Note_on_c, 0, 73, 0
1, 72480, Tempo, 428418
1, 72480, Note_on_c, 0, 80, 0
1, 72480, Note_on_c, 0, 83, 0
1, 72480, Note_on_c, 0, 61, 0
1, 72480, Note_on_c, 0, 73, 71
1, 72480, Note_on_c, 0, 78, 75
1, 72480, Note_on_c, 0, 85, 82
1, 72480, Note_on_c, 0, 42, 72
1, 72480, Note_on_c, 0, 54, 72
1, 72490, Control_c, 0, 64, 0
1, 72571, Control_c, 0, 64, 127
1, 72640, Note_on_c, 0, 54, 0
1, 72640, Note_on_c, 0, 42, 0
1, 72640, Note_on_c, 0, 60, 61
1, 72800, Note_on_c, 0, 60, 0
1, 72800, Note_on_c, 0, 61, 65
1, 72960, Note_on_c, 0, 61, 0
1, 72960, Note_on_c, 0, 62, 65
1, 73120, Note_on_c, 0, 62, 0
1, 73120, Note_on_c, 0, 61, 65
1, 73280, Note_on_c, 0, 61, 0
1, 73280, Note_on_c, 0, 62, 65
1, 73320, Tempo, 449405
1, 73320, Note_on_c, 0, 78, 0
1, 73320, Note_on_c, 0, 81, 84
1, 73440, Tempo, 428418
1, 73440, Note_on_c, 0, 81, 0
1, 73440, Note_on_c, 0, 62, 0
1, 73440, Note_on_c, 0, 78, 84
1, 73440, Note_on_c, 0, 61, 66
1, 73600, Note_on_c, 0, 61, 0
1, 73600, Note_on_c, 0, 69, 66
1, 73680, Tempo, 458015
1, 73760, Note_on_c, 0, 69, 0
1, 73760, Note_on_c, 0, 61, 66
1, 73880, Tempo, 440173
1, 73920, Tempo, 438661
1, 73920, Note_on_c, 0, 61, 0
1, 73920, Note_on_c, 0, 73, 0
1, 73920, Note_on_c, 0, 85, 0
1, 73920, Note_on_c, 0, 78, 0
1, 73920, Note_on_c, 0, 73, 79
1, 73920, Note_on_c, 0, 77, 79
1, 73920, Note_on_c, 0, 85, 93
1, 73920, Note_on_c, 0, 44, 74
1, 73920, Note_on_c, 0, 56, 74
1, 73929, Control_c, 0, 64, 0
1, 73959, Control_c, 0, 64, 127
1, 73960, Tempo, 437158
1, 74000, Tempo, 435667
1, 74040, Tempo, 434216
1, 74080, Tempo, 431282
1, 74080, Note_on_c, 0, 56, 0
1, 74080, Note_on_c, 0, 44, 0
1, 74080, Note_on_c, 0, 60, 74
1, 74120, Tempo, 429861
1, 74160, Tempo, 428418
1, 74200, Tempo, 426985
1, 74240, Tempo, 424178
1, 74240, Note_on_c, 0, 60, 0
1, 74240, Note_on_c, 0, 61, 66
1, 74280, Tempo, 422773
1, 74320, Tempo, 421408
1, 74360, Tempo, 420021
1, 74400, Tempo, 417304
1, 74400, Note_on_c, 0, 61, 0
1, 74400, Note_on_c, 0, 62, 66
1, 74560, Note_on_c, 0, 62, 0
1, 74560, Note_on_c, 0, 85, 0
1, 74560, Note_on_c, 0, 73, 0
1, 74560, Note_on_c, 0, 73, 59
1, 74560, Note_on_c, 0, 85, 71
1, 74560, Note_on_c, 0, 61, 68
1, 74640, Note_on_c, 0, 85, 0
1, 74640, Note_on_c, 0, 73, 0
1, 74720, Note_on_c, 0, 61, 0
1, 74720, Note_on_c, 0, 73, 61
1, 74720, Note_on_c, 0, 85, 71
1, 74720, Note_on_c, 0, 62, 68
1, 74760, Tempo, 449438
1, 74800, Note_on_c, 0, 85, 0
1, 74800, Note_on_c, 0, 73, 0
1, 74880, Tempo, 447761
1, 74880, Note_on_c, 0, 62, 0
1, 74880, Note_on_c, 0, 73, 63
1, 74880, Note_on_c, 0, 85, 73
1, 74880, Note_on_c, 0, 61, 69
1, 74960, Note_on_c, 0, 85, 0
1, 74960, Note_on_c, 0, 73, 0
1, 75040, Note_on_c, 0, 61, 0
1, 75040, Note_on_c, 0, 73, 63
1, 75040, Note_on_c, 0, 85, 75
1, 75040, Note_on_c, 0, 68, 69
1, 75120, Note_on_c, 0, 85, 0
1, 75120, Note_on_c, 0, 73, 0
1, 75200, Note_on_c, 0, 68, 0
1, 75200, Note_on_c, 0, 73, 64
1, 75200, Note_on_c, 0, 85, 78
1, 75200, Note_on_c, 0, 61, 66
1, 75280, Note_on_c, 0, 85, 0
1, 75280, Note_on_c, 0, 73, 0
1, 75360, Tempo, 425592
1, 75360, Note_on_c, 0, 77, 0
1, 75360, Note_on_c, 0, 61, 0
1, 75360, Note_on_c, 0, 73, 79
1, 75360, Note_on_c, 0, 78, 93
1, 75360, Note_on_c, 0, 85, 93
1, 75360, Note_on_c, 0, 45, 79
1, 75360, Note_on_c, 0, 57, 79
1, 75376, Control_c, 0, 64, 0
1, 75480, Control_c, 0, 64, 127
1, 75520, Note_on_c, 0, 57, 0
1, 75520, Note_on_c, 0, 45, 0
1, 75520, Note_on_c, 0, 60, 70
1, 75680, Note_on_c, 0, 60, 0
1, 75680, Note_on_c, 0, 61, 71
1, 75840, Note_on_c, 0, 61, 0
1, 75840, Note_on_c, 0, 62, 71
1, 76000, Note_on_c, 0, 62, 0
1, 76000, Note_on_c, 0, 61, 72
1, 76160, Note_on_c, 0, 61, 0
1, 76160, Note_on_c, 0, 62, 72
1, 76200, Tempo, 443197
1, 76200, Note_on_c, 0, 78, 0
1, 76200, Note_on_c, 0, 81, 90
1, 76320, Tempo, 425592
1, 76320, Note_on_c, 0, 81, 0
1, 76320, Note_on_c, 0, 62, 0
1, 76320, Note_on_c, 0, 78, 90
1, 76320, Note_on_c, 0, 61, 72
1, 76480, Note_on_c, 0, 61, 0
1, 76480, Note_on_c, 0, 73, 72
1, 76560, Tempo, 489796
1, 76640, Note_on_c, 0, 73, 0
1, 76640, Note_on_c, 0, 61, 73
1, 76800, Tempo, 497471
1, 76800, Note_on_c, 0, 61, 0
1, 76800, Note_on_c, 0, 73, 0
1, 76800, Note_on_c, 0, 85, 0
1, 76800, Note_on_c, 0, 78, 0
1, 76800, Note_on_c, 0, 79, 88
1, 76800, Note_on_c, 0, 76, 88
1, 76800, Note_on_c, 0, 85, 88
1, 76800, Note_on_c, 0, 88, 103
1, 76800, Note_on_c, 0, 34, 79
1, 76809, Control_c, 0, 64, 0
1, 76840, Tempo, 495376
1, 76880, Tempo, 491199
1, 76880, Note_on_c, 0, 34, 0
1, 76882, Control_c, 0, 64, 127
1, 76920, Tempo, 487132
1, 76960, Tempo, 485084
1, 76960, Note_on_c, 0, 49, 69
1, 77000, Tempo, 481116
1, 77040, Tempo, 477175
1, 77040, Note_on_c, 0, 49, 0
1, 77080, Tempo, 475248
1, 77120, Tempo, 471402
1, 77120, Note_on_c, 0, 37, 69
1, 77160, Tempo, 467654
1, 77200, Tempo, 465766
1, 77200, Note_on_c, 0, 37, 0
1, 77240, Tempo, 462107
1, 77280, Note_on_c, 0, 52, 69
1, 77360, Note_on_c, 0, 52, 0
1, 77460, Note_on_c, 0, 40, 69
1, 77540, Note_on_c, 0, 40, 0
1, 77600, Note_on_c, 0, 55, 69
1, 77640, Note_on_c, 0, 85, 0
1, 77640, Note_on_c, 0, 88, 0
1, 77640, Note_on_c, 0, 79, 0
1, 77640, Note_on_c, 0, 76, 0
1, 77640, Note_on_c, 0, 76, 81
1, 77640, Note_on_c, 0, 79, 81
1, 77640, Note_on_c, 0, 85, 84
1, 77640, Note_on_c, 0, 88, 99
1, 77680, Note_on_c, 0, 55, 0
1, 77760, Note_on_c, 0, 85, 0
1, 77760, Note_on_c, 0, 76, 0
1, 77760, Note_on_c, 0, 79, 0
1, 77760, Note_on_c, 0, 88, 0
1, 77760, Note_on_c, 0, 76, 87
1, 77760, Note_on_c, 0, 79, 87
1, 77760, Note_on_c, 0, 85, 87
1, 77760, Note_on_c, 0, 88, 102
1, 77760, Note_on_c, 0, 43, 70
1, 77840, Note_on_c, 0, 43, 0
1, 77920, Note_on_c, 0, 58, 69
1, 78000, Note_on_c, 0, 58, 0
1, 78080, Note_on_c, 0, 46, 69
1, 78160, Note_on_c, 0, 46, 0
1, 78200, Tempo, 460264
1, 78240, Tempo, 421053
1, 78240, Note_on_c, 0, 85, 0
1, 78240, Note_on_c, 0, 76, 0
1, 78240, Note_on_c, 0, 79, 0
1, 78240, Note_on_c, 0, 88, 0
1, 78240, Note_on_c, 0, 76, 80
1, 78240, Note_on_c, 0, 80, 95
1, 78240, Note_on_c, 0, 88, 95
1, 78240, Note_on_c, 0, 47, 72
1, 78247, Control_c, 0, 64, 0
1, 78311, Control_c, 0, 64, 127
1, 78320, Note_on_c, 0, 47, 0
1, 78400, Note_on_c, 0, 59, 70
1, 78560, Note_on_c, 0, 59, 0
1, 78560, Note_on_c, 0, 56, 69
1, 78720, Tempo, 436364
1, 78720, Note_on_c, 0, 56, 0
1, 78720, Note_on_c, 0, 76, 0
1, 78720, Note_on_c, 0, 80, 0
1, 78720, Note_on_c, 0, 88, 0
1, 78720, Note_on_c, 0, 83, 91
1, 78720, Note_on_c, 0, 80, 91
1, 78720, Note_on_c, 0, 76, 76
1, 78720, Note_on_c, 0, 64, 68
1, 78880, Note_on_c, 0, 64, 0
1, 78880, Note_on_c, 0, 59, 66
1, 79040, Note_on_c, 0, 59, 0
1, 79040, Note_on_c, 0, 68, 65
1, 79200, Tempo, 451128
1, 79200, Note_on_c, 0, 68, 0
1, 79200, Note_on_c, 0, 83, 0
1, 79200, Note_on_c, 0, 80, 0
1, 79200, Note_on_c, 0, 76, 0
1, 79200, Note_on_c, 0, 71, 73
1, 79200, Note_on_c, 0, 76, 86
1, 79200, Note_on_c, 0, 80, 86
1, 79200, Note_on_c, 0, 64, 63
1, 79360, Note_on_c, 0, 64, 0
1, 79360, Note_on_c, 0, 59, 60
1, 79520, Note_on_c, 0, 59, 0
1, 79520, Note_on_c, 0, 56, 59
1, 79560, Tempo, 424028
1, 79620, Note_on_c, 0, 80, 0
1, 79620, Note_on_c, 0, 71, 0
1, 79620, Note_on_c, 0, 76, 0
1, 79620, Note_on_c, 0, 80, 79
1, 79680, Tempo, 431655
1, 79680, Note_on_c, 0, 80, 0
1, 79680, Note_on_c, 0, 56, 0
1, 79680, Note_on_c, 0, 69, 74
1, 79680, Note_on_c, 0, 71, 74
1, 79680, Note_on_c, 0, 75, 87
1, 79680, Note_on_c, 0, 78, 87
1, 79680, Note_on_c, 0, 35, 60
1, 79695, Control_c, 0, 64, 0
1, 79736, Control_c, 0, 64, 127
1, 79760, Note_on_c, 0, 35, 0
1, 79840, Note_on_c, 0, 47, 61
1, 80000, Note_on_c, 0, 47, 0
1, 80000, Note_on_c, 0, 54, 63
1, 80160, Tempo, 441176
1, 80160, Note_on_c, 0, 54, 0
1, 80160, Note_on_c, 0, 75, 0
1, 80160, Note_on_c, 0, 69, 0
1, 80160, Note_on_c, 0, 71, 0
1, 80160, Note_on_c, 0, 78, 0
1, 80160, Note_on_c, 0, 71, 75
1, 80160, Note_on_c, 0, 69, 75
1, 80160, Note_on_c, 0, 73, 75
1, 80160, Note_on_c, 0, 76, 88
1, 80160, Note_on_c, 0, 59, 65
1, 80320, Note_on_c, 0, 59, 0
1, 80320, Note_on_c, 0, 54, 66
1, 80480, Note_on_c, 0, 54, 0
1, 80480, Note_on_c, 0, 63, 67
1, 80640, Tempo, 463929
1, 80640, Note_on_c, 0, 63, 0
1, 80640, Note_on_c, 0, 73, 0
1, 80640, Note_on_c, 0, 71, 0
1, 80640, Note_on_c, 0, 69, 0
1, 80640, Note_on_c, 0, 76, 0
1, 80640, Note_on_c, 0, 69, 75
1, 80640, Note_on_c, 0, 71, 75
1, 80640, Note_on_c, 0, 75, 89
1, 80640, Note_on_c, 0, 78, 89
1, 80640, Note_on_c, 0, 59, 68
1, 80800, Note_on_c, 0, 59, 0
1, 80800, Note_on_c, 0, 54, 69
1, 80960, Note_on_c, 0, 54, 0
1, 80960, Note_on_c, 0, 47, 70
1, 81120, Note_on_c, 0, 47, 0
1, 81120, Note_on_c, 0, 75, 0
1, 81120, Note_on_c, 0, 69, 0
1, 81120, Note_on_c, 0, 71, 0
1, 81120, Note_on_c, 0, 78, 0
1, 81120, Note_on_c, 0, 76, 90
1, 81120, Note_on_c, 0, 68, 75
1, 81120, Note_on_c, 0, 80, 90
1, 81120, Note_on_c, 0, 40, 71
1, 81131, Control_c, 0, 64, 0
1, 81160, Tempo, 453138
1, 81205, Control_c, 0, 64, 127
1, 81240, Tempo, 454890
1, 81280, Tempo, 456691
1, 81280, Note_on_c, 0, 40, 0
1, 81280, Note_on_c, 0, 52, 66
1, 81360, Tempo, 458470
1, 81400, Tempo, 460264
1, 81440, Tempo, 462107
1, 81440, Note_on_c, 0, 52, 0
1, 81440, Note_on_c, 0, 47, 66
1, 81520, Tempo, 463929
1, 81560, Tempo, 465766
1, 81600, Tempo, 467654
1, 81600, Note_on_c, 0, 47, 0
1, 81600, Note_on_c, 0, 40, 74
1, 81680, Tempo, 469520
1, 81720, Tempo, 471402
1, 81760, Note_on_c, 0, 40, 0
1, 81760, Note_on_c, 0, 56, 68
1, 81800, Tempo, 473298
1, 81840, Tempo, 475248
1, 81840, Note_on_c, 0, 76, 0
1, 81840, Note_on_c, 0, 75, 91
1, 81880, Tempo, 477175
1, 81920, Note_on_c, 0, 56, 0
1, 81920, Note_on_c, 0, 47, 70
1, 81960, Tempo, 479118
1, 82000, Tempo, 481116
1, 82040, Tempo, 493827
1, 82080, Tempo, 491803
1, 82080, Note_on_c, 0, 47, 0
1, 82080, Note_on_c, 0, 75, 0
1, 82080, Note_on_c, 0, 74, 94
1, 82080, Note_on_c, 0, 40, 78
1, 82098, Control_c, 0, 64, 0
1, 82120, Tempo, 493827
1, 82160, Tempo, 497925
1, 82200, Tempo, 502092
1, 82240, Tempo, 504202
1, 82240, Note_on_c, 0, 40, 0
1, 82240, Note_on_c, 0, 59, 71
1, 82280, Tempo, 508475
1, 82292, Control_c, 0, 64, 127
1, 82320, Tempo, 512821
1, 82360, Tempo, 517241
1, 82400, Tempo, 519481
1, 82400, Note_on_c, 0, 59, 0
1, 82400, Note_on_c, 0, 47, 73
1, 82440, Tempo, 524017
1, 82480, Tempo, 528634
1, 82520, Tempo, 533333
1, 82560, Key_signature, -4, "major"
1, 82560, Tempo, 458575
1, 82560, Note_on_c, 0, 47, 0
1, 82560, Note_on_c, 0, 68, 0
1, 82560, Note_on_c, 0, 80, 0
1, 82560, Note_on_c, 0, 74, 0
1, 82560, Note_on_c, 0, 72, 88
1, 82560, Note_on_c, 0, 68, 88
1, 82560, Note_on_c, 0, 75, 88
1, 82560, Note_on_c, 0, 80, 103
1, 82560, Note_on_c, 0, 39, 79
1, 82560, Control_c, 0, 64, 0
1, 82640, Tempo, 457038
1, 82640, Note_on_c, 0, 39, 0
1, 82642, Control_c, 0, 64, 127
1, 82720, Note_on_c, 0, 51, 69
1, 82800, Note_on_c, 0, 51, 0
1, 82880, Note_on_c, 0, 39, 69
1, 82960, Note_on_c, 0, 39, 0
1, 83040, Tempo, 470662
1, 83040, Note_on_c, 0, 56, 69
1, 83120, Note_on_c, 0, 56, 0
1, 83200, Note_on_c, 0, 39, 69
1, 83280, Note_on_c, 0, 39, 0
1, 83360, Note_on_c, 0, 60, 69
1, 83400, Note_on_c, 0, 75, 0
1, 83400, Note_on_c, 0, 80, 0
1, 83400, Note_on_c, 0, 72, 0
1, 83400, Note_on_c, 0, 68, 0
1, 83400, Note_on_c, 0, 68, 81
1, 83400, Note_on_c, 0, 72, 81
1, 83400, Note_on_c, 0, 75, 84
1, 83400, Note_on_c, 0, 80, 99
1, 83440, Note_on_c, 0, 60, 0
1, 83520, Note_on_c, 0, 75, 0
1, 83520, Note_on_c, 0, 68, 0
1, 83520, Note_on_c, 0, 72, 0
1, 83520, Note_on_c, 0, 80, 0
1, 83520, Note_on_c, 0, 68, 87
1, 83520, Note_on_c, 0, 72, 87
1, 83520, Note_on_c, 0, 75, 87
1, 83520, Note_on_c, 0, 80, 102
1, 83520, Note_on_c, 0, 39, 70
1, 83600, Note_on_c, 0, 39, 0
1, 83680, Note_on_c, 0, 63, 69
1, 83760, Note_on_c, 0, 63, 0
1, 83840, Note_on_c, 0, 39, 69
1, 83920, Note_on_c, 0, 39, 0
1, 84000, Tempo, 439496
1, 84000, Note_on_c, 0, 75, 0
1, 84000, Note_on_c, 0, 68, 0
1, 84000, Note_on_c, 0, 72, 0
1, 84000, Note_on_c, 0, 80, 0
1, 84000, Note_on_c, 0, 72, 85
1, 84000, Note_on_c, 0, 75, 85
1, 84000, Note_on_c, 0, 80, 100
1, 84000, Note_on_c, 0, 68, 72
1, 84080, Note_on_c, 0, 68, 0
1, 84160, Note_on_c, 0, 63, 70
1, 84240, Note_on_c, 0, 63, 0
1, 84320, Note_on_c, 0, 72, 69
1, 84400, Note_on_c, 0, 72, 0
1, 84480, Tempo, 454890
1, 84480, Note_on_c, 0, 68, 68
1, 84560, Note_on_c, 0, 68, 0
1, 84640, Note_on_c, 0, 63, 66
1, 84720, Note_on_c, 0, 63, 0
1, 84720, Note_on_c, 0, 72, 0
1, 84720, Note_on_c, 0, 75, 0
1, 84720, Note_on_c, 0, 80, 0
1, 84720, Note_on_c, 0, 68, 72
1, 84720, Note_on_c, 0, 72, 86
1, 84720, Note_on_c, 0, 75, 86
1, 84800, Note_on_c, 0, 60, 65
1, 84880, Note_on_c, 0, 60, 0
1, 84960, Tempo, 488639
1, 84960, Note_on_c, 0, 68, 0
1, 84960, Note_on_c, 0, 72, 0
1, 84960, Note_on_c, 0, 75, 0
1, 84960, Note_on_c, 0, 63, 69
1, 84960, Note_on_c, 0, 68, 81
1, 84960, Note_on_c, 0, 72, 81
1, 84960, Note_on_c, 0, 56, 63
1, 85040, Note_on_c, 0, 56, 0
1, 85120, Note_on_c, 0, 51, 60
1, 85200, Note_on_c, 0, 51, 0
1, 85280, Note_on_c, 0, 39, 59
1, 85440, Tempo, 460476
1, 85440, Note_on_c, 0, 39, 0
1, 85440, Note_on_c, 0, 63, 0
1, 85440, Note_on_c, 0, 68, 0
1, 85440, Note_on_c, 0, 72, 0
1, 85440, Note_on_c, 0, 72, 85
1, 85440, Note_on_c, 0, 61, 72
1, 85440, Note_on_c, 0, 63, 72
1, 85440, Note_on_c, 0, 67, 85
1, 85440, Note_on_c, 0, 75, 85
1, 85440, Note_on_c, 0, 27, 57
1, 85455, Control_c, 0, 64, 0
1, 85592, Control_c, 0, 64, 127
1, 85600, Note_on_c, 0, 27, 0
1, 85600, Note_on_c, 0, 39, 56
1, 85760, Note_on_c, 0, 39, 0
1, 85760, Note_on_c, 0, 46, 56
1, 85920, Note_on_c, 0, 46, 0
1, 85920, Note_on_c, 0, 55, 56
1, 86080, Note_on_c, 0, 55, 0
1, 86080, Note_on_c, 0, 51, 56
1, 86160, Tempo, 514095
1, 86160, Note_on_c, 0, 72, 0
1, 86160, Note_on_c, 0, 70, 76
1, 86240, Note_on_c, 0, 51, 0
1, 86240, Note_on_c, 0, 46, 55
1, 86400, Note_on_c, 0, 46, 0
1, 86400, Note_on_c, 0, 70, 0
1, 86400, Note_on_c, 0, 67, 0
1, 86400, Note_on_c, 0, 61, 0
1, 86400, Note_on_c, 0, 63, 0
1, 86400, Note_on_c, 0, 75, 0
1, 86400, Note_on_c, 0, 67, 63
1, 86400, Note_on_c, 0, 61, 63
1, 86400, Note_on_c, 0, 73, 75
1, 86400, Note_on_c, 0, 39, 54
1, 86560, Note_on_c, 0, 39, 0
1, 86560, Note_on_c, 0, 51, 54
1, 86720, Note_on_c, 0, 51, 0
1, 86720, Note_on_c, 0, 63, 53
1, 86760, Tempo, 574108
1, 86760, Note_on_c, 0, 73, 0
1, 86760, Note_on_c, 0, 72, 71
1, 86880, Tempo, 589275
1, 86880, Note_on_c, 0, 72, 0
1, 86880, Note_on_c, 0, 63, 0
1, 86880, Note_on_c, 0, 61, 0
1, 86880, Note_on_c, 0, 67, 0
1, 86880, Note_on_c, 0, 68, 59
1, 86880, Note_on_c, 0, 60, 50
1, 86880, Note_on_c, 0, 32, 52
1, 86891, Control_c, 0, 64, 0
1, 86920, Tempo, 456239
1, 86993, Control_c, 0, 64, 127
1, 87000, Tempo, 457841
1, 87040, Tempo, 459453
1, 87040, Note_on_c, 0, 32, 0
1, 87040, Note_on_c, 0, 51, 47
1, 87120, Tempo, 461042
1, 87160, Tempo, 462677
1, 87200, Note_on_c, 0, 51, 0
1, 87200, Note_on_c, 0, 44, 46
1, 87240, Tempo, 464324
1, 87280, Tempo, 465947
1, 87360, Tempo, 467617
1, 87360, Note_on_c, 0, 44, 0
1, 87360, Note_on_c, 0, 51, 45
1, 87400, Tempo, 469300
1, 87440, Tempo, 470958
1, 87520, Tempo, 472664
1, 87520, Note_on_c, 0, 51, 0
1, 87520, Note_on_c, 0, 44, 44
1, 87560, Tempo, 474383
1, 87640, Tempo, 476077
1, 87680, Tempo, 477821
1, 87680, Note_on_c, 0, 44, 0
1, 87680, Note_on_c, 0, 51, 42
1, 87760, Tempo, 479578
1, 87800, Tempo, 481309
1, 87840, Tempo, 483092
1, 87840, Note_on_c, 0, 51, 0
1, 87840, Note_on_c, 0, 44, 46
1, 88000, Note_on_c, 0, 44, 0
1, 88000, Note_on_c, 0, 51, 40
1, 88160, Note_on_c, 0, 51, 0
1, 88160, Note_on_c, 0, 44, 39
1, 88320, Tempo, 454545
1, 88320, Note_on_c, 0, 44, 0
1, 88320, Note_on_c, 0, 60, 0
1, 88320, Note_on_c, 0, 68, 0
1, 88320, Note_on_c, 0, 61, 44
1, 88320, Note_on_c, 0, 69, 54
1, 88320, Note_on_c, 0, 52, 52
1, 88331, Control_c, 0, 64, 0
1, 88400, Tempo, 452830
1, 88400, Control_c, 0, 64, 127
1, 88440, Tempo, 451128
1, 88480, Tempo, 449438
1, 88480, Note_on_c, 0, 52, 0
1, 88480, Note_on_c, 0, 44, 35
1, 88560, Tempo, 447761
1, 88600, Tempo, 446097
1, 88640, Tempo, 444444
1, 88640, Note_on_c, 0, 44, 0
1, 88640, Note_on_c, 0, 52, 35
1, 88720, Tempo, 442804
1, 88760, Tempo, 441176
1, 88800, Tempo, 439560
1, 88800, Note_on_c, 0, 52, 0
1, 88800, Note_on_c, 0, 44, 35
1, 88840, Tempo, 437956
1, 88960, Note_on_c, 0, 44, 0
1, 88960, Note_on_c, 0, 52, 35
1, 89040, Note_on_c, 0, 69, 0
1, 89040, Note_on_c, 0, 69, 53
1, 89120, Note_on_c, 0, 52, 0
1, 89120, Note_on_c, 0, 44, 35
1, 89160, Tempo, 436364
1, 89280, Note_on_c, 0, 44, 0
1, 89280, Note_on_c, 0, 69, 0
1, 89280, Note_on_c, 0, 69, 53
1, 89280, Note_on_c, 0, 52, 36
1, 89440, Tempo, 434783
1, 89440, Note_on_c, 0, 52, 0
1, 89440, Note_on_c, 0, 44, 36
1, 89600, Note_on_c, 0, 44, 0
1, 89600, Note_on_c, 0, 52, 36
1, 89720, Tempo, 433213
1, 89760, Note_on_c, 0, 52, 0
1, 89760, Note_on_c, 0, 69, 0
1, 89760, Note_on_c, 0, 61, 0
1, 89760, Note_on_c, 0, 60, 45
1, 89760, Note_on_c, 0, 69, 56
1, 89760, Note_on_c, 0, 44, 44
1, 89768, Control_c, 0, 64, 0
1, 89859, Control_c, 0, 64, 127
1, 89920, Tempo, 434783
1, 89920, Note_on_c, 0, 44, 0
1, 89920, Note_on_c, 0, 51, 48
1, 90080, Tempo, 436364
1, 90080, Note_on_c, 0, 51, 0
1, 90080, Note_on_c, 0, 44, 37
1, 90240, Note_on_c, 0, 44, 0
1, 90240, Note_on_c, 0, 51, 37
1, 90280, Tempo, 437956
1, 90400, Note_on_c, 0, 51, 0
1, 90400, Note_on_c, 0, 44, 37
1, 90440, Tempo, 439560
1, 90480, Note_on_c, 0, 69, 0
1, 90480, Note_on_c, 0, 68, 55
1, 90560, Note_on_c, 0, 44, 0
1, 90560, Note_on_c, 0, 51, 37
1, 90720, Tempo, 439560
1, 90720, Note_on_c, 0, 51, 0
1, 90720, Note_on_c, 0, 68, 0
1, 90720, Note_on_c, 0, 63, 56
1, 90720, Note_on_c, 0, 44, 37
1, 90760, Tempo, 442804
1, 90800, Tempo, 447761
1, 90840, Tempo, 452830
1, 90880, Tempo, 456274
1, 90880, Note_on_c, 0, 44, 0
1, 90880, Note_on_c, 0, 51, 37
1, 90920, Tempo, 461538
1, 90960, Tempo, 466926
1, 91000, Tempo, 472441
1, 91040, Tempo, 476190
1, 91040, Note_on_c, 0, 51, 0
1, 91040, Note_on_c, 0, 44, 38
1, 91080, Tempo, 481928
1, 91120, Tempo, 487805
1, 91160, Tempo, 493827
1, 91200, Tempo, 439560
1, 91200, Note_on_c, 0, 44, 0
1, 91200, Note_on_c, 0, 63, 0
1, 91200, Note_on_c, 0, 60, 0
1, 91200, Note_on_c, 0, 62, 48
1, 91200, Note_on_c, 0, 71, 59
1, 91200, Note_on_c, 0, 53, 56
1, 91206, Control_c, 0, 64, 0
1, 91280, Tempo, 437956
1, 91292, Control_c, 0, 64, 127
1, 91320, Tempo, 436364
1, 91360, Tempo, 434783
1, 91360, Note_on_c, 0, 53, 0
1, 91360, Note_on_c, 0, 44, 38
1, 91400, Tempo, 433213
1, 91440, Tempo, 431655
1, 91520, Tempo, 430108
1, 91520, Note_on_c, 0, 44, 0
1, 91520, Note_on_c, 0, 53, 38
1, 91560, Tempo, 428571
1, 91600, Tempo, 427046
1, 91640, Tempo, 425532
1, 91680, Tempo, 424028
1, 91680, Note_on_c, 0, 53, 0
1, 91680, Note_on_c, 0, 44, 38
1, 91720, Tempo, 424028
1, 91840, Note_on_c, 0, 44, 0
1, 91840, Note_on_c, 0, 53, 39
1, 91920, Note_on_c, 0, 71, 0
1, 91920, Note_on_c, 0, 71, 58
1, 92000, Note_on_c, 0, 53, 0
1, 92000, Note_on_c, 0, 44, 39
1, 92160, Tempo, 422535
1, 92160, Note_on_c, 0, 44, 0
1, 92160, Note_on_c, 0, 71, 0
1, 92160, Note_on_c, 0, 71, 58
1, 92160, Note_on_c, 0, 53, 39
1, 92320, Note_on_c, 0, 53, 0
1, 92320, Note_on_c, 0, 44, 39
1, 92480, Note_on_c, 0, 44, 0
1, 92480, Note_on_c, 0, 53, 39
1, 92600, Tempo, 421053
1, 92640, Note_on_c, 0, 53, 0
1, 92640, Note_on_c, 0, 71, 0
1, 92640, Note_on_c, 0, 62, 0
1, 92640, Note_on_c, 0, 63, 50
1, 92640, Note_on_c, 0, 71, 61
1, 92640, Note_on_c, 0, 44, 48
1, 92654, Control_c, 0, 64, 0
1, 92715, Control_c, 0, 64, 127
1, 92800, Tempo, 422535
1, 92800, Note_on_c, 0, 44, 0
1, 92800, Note_on_c, 0, 54, 50
1, 92960, Note_on_c, 0, 54, 0
1, 92960, Note_on_c, 0, 44, 40
1, 93000, Tempo, 424028
1, 93120, Note_on_c, 0, 44, 0
1, 93120, Note_on_c, 0, 54, 40
1, 93160, Tempo, 425532
1, 93280, Note_on_c, 0, 54, 0
1, 93280, Note_on_c, 0, 44, 40
1, 93360, Tempo, 427046
1, 93360, Note_on_c, 0, 71, 0
1, 93360, Note_on_c, 0, 70, 60
1, 93440, Note_on_c, 0, 44, 0
1, 93440, Note_on_c, 0, 54, 40
1, 93520, Tempo, 428571
1, 93560, Tempo, 424028
1, 93600, Tempo, 427046
1, 93600, Note_on_c, 0, 54, 0
1, 93600, Note_on_c, 0, 70, 0
1, 93600, Note_on_c, 0, 75, 61
1, 93600, Note_on_c, 0, 44, 41
1, 93640, Tempo, 431655
1, 93680, Tempo, 436364
1, 93720, Tempo, 439560
1, 93760, Tempo, 444444
1, 93760, Note_on_c, 0, 44, 0
1, 93760, Note_on_c, 0, 54, 41
1, 93800, Tempo, 449438
1, 93840, Tempo, 452830
1, 93880, Tempo, 458015
1, 93920, Tempo, 463320
1, 93920, Note_on_c, 0, 54, 0
1, 93920, Note_on_c, 0, 44, 41
1, 93960, Tempo, 466926
1, 94000, Tempo, 472441
1, 94040, Tempo, 478088
1, 94080, Tempo, 431655
1, 94080, Note_on_c, 0, 44, 0
1, 94080, Note_on_c, 0, 75, 0
1, 94080, Note_on_c, 0, 63, 0
1, 94080, Note_on_c, 0, 62, 52
1, 94080, Note_on_c, 0, 71, 65
1, 94080, Note_on_c, 0, 53, 55
1, 94089, Control_c, 0, 64, 0
1, 94120, Tempo, 430108
1, 94160, Tempo, 428571
1, 94165, Control_c, 0, 64, 127
1, 94200, Tempo, 427046
1, 94240, Tempo, 425532
1, 94240, Note_on_c, 0, 53, 0
1, 94240, Note_on_c, 0, 44, 42
1, 94280, Tempo, 424028
1, 94320, Tempo, 422535
1, 94360, Tempo, 421053
1, 94400, Tempo, 419580
1, 94400, Note_on_c, 0, 44, 0
1, 94400, Note_on_c, 0, 53, 42
1, 94440, Tempo, 418118
1, 94480, Tempo, 416667
1, 94520, Tempo, 415225
1, 94560, Tempo, 413793
1, 94560, Note_on_c, 0, 53, 0
1, 94560, Note_on_c, 0, 44, 42
1, 94600, Tempo, 413793
1, 94720, Note_on_c, 0, 44, 0
1, 94720, Note_on_c, 0, 53, 42
1, 94800, Note_on_c, 0, 71, 0
1, 94800, Note_on_c, 0, 71, 63
1, 94840, Tempo, 412371
1, 94880, Note_on_c, 0, 53, 0
1, 94880, Note_on_c, 0, 44, 42
1, 95040, Note_on_c, 0, 44, 0
1, 95040, Note_on_c, 0, 71, 0
1, 95040, Note_on_c, 0, 71, 63
1, 95040, Note_on_c, 0, 53, 43
1, 95080, Tempo, 410959
1, 95200, Note_on_c, 0, 53, 0
1, 95200, Note_on_c, 0, 44, 43
1, 95320, Tempo, 409556
1, 95360, Note_on_c, 0, 44, 0
1, 95360, Note_on_c, 0, 53, 43
1, 95520, Note_on_c, 0, 53, 0
1, 95520, Note_on_c, 0, 71, 0
1, 95520, Note_on_c, 0, 62, 0
1, 95520, Note_on_c, 0, 63, 56
1, 95520, Note_on_c, 0, 71, 69
1, 95520, Note_on_c, 0, 44, 46
1, 95528, Control_c, 0, 64, 0
1, 95560, Tempo, 408163
1, 95577, Control_c, 0, 64, 127
1, 95680, Note_on_c, 0, 44, 0
1, 95680, Note_on_c, 0, 54, 55
1, 95800, Tempo, 409556
1, 95840, Note_on_c, 0, 54, 0
1, 95840, Note_on_c, 0, 44, 44
1, 96000, Tempo, 410959
1, 96000, Note_on_c, 0, 44, 0
1, 96000, Note_on_c, 0, 54, 44
1, 96160, Note_on_c, 0, 54, 0
1, 96160, Note_on_c, 0, 44, 44
1, 96240, Tempo, 412371
1, 96240, Note_on_c, 0, 71, 0
1, 96240, Note_on_c, 0, 70, 67
1, 96320, Note_on_c, 0, 44, 0
1, 96320, Note_on_c, 0, 54, 44
1, 96440, Tempo, 413793
1, 96480, Note_on_c, 0, 54, 0
1, 96480, Note_on_c, 0, 70, 0
1, 96480, Note_on_c, 0, 63, 0
1, 96480, Note_on_c, 0, 63, 67
1, 96480, Note_on_c, 0, 44, 44
1, 96520, Tempo, 415225
1, 96560, Tempo, 418118
1, 96600, Tempo, 422535
1, 96640, Tempo, 425532
1, 96640, Note_on_c, 0, 44, 0
1, 96640, Note_on_c, 0, 54, 44
1, 96680, Tempo, 430108
1, 96720, Tempo, 433213
1, 96760, Tempo, 437956
1, 96800, Tempo, 441176
1, 96800, Note_on_c, 0, 54, 0
1, 96800, Note_on_c, 0, 44, 45
1, 96840, Tempo, 446097
1, 96880, Tempo, 422535
1, 96960, Tempo, 421053
1, 96960, Note_on_c, 0, 44, 0
1, 96960, Note_on_c, 0, 63, 0
1, 96960, Note_on_c, 0, 64, 57
1, 96960, Note_on_c, 0, 73, 71
1, 96960, Note_on_c, 0, 55, 59
1, 96972, Control_c, 0, 64, 0
1, 97000, Tempo, 419580
1, 97038, Control_c, 0, 64, 127
1, 97080, Tempo, 418118
1, 97120, Tempo, 416667
1, 97120, Note_on_c, 0, 55, 0
1, 97120, Note_on_c, 0, 44, 45
1, 97160, Tempo, 415225
1, 97240, Tempo, 413793
1, 97280, Tempo, 412371
1, 97280, Note_on_c, 0, 44, 0
1, 97280, Note_on_c, 0, 55, 45
1, 97320, Tempo, 410959
1, 97400, Tempo, 409556
1, 97440, Tempo, 408163
1, 97440, Note_on_c, 0, 55, 0
1, 97440, Note_on_c, 0, 44, 45
1, 97520, Tempo, 406780
1, 97560, Tempo, 405405
1, 97600, Tempo, 404040
1, 97600, Note_on_c, 0, 44, 0
1, 97600, Note_on_c, 0, 55, 46
1, 97680, Tempo, 402685
1, 97680, Note_on_c, 0, 73, 0
1, 97680, Note_on_c, 0, 73, 69
1, 97720, Tempo, 401338
1, 97760, Tempo, 400000
1, 97760, Note_on_c, 0, 55, 0
1, 97760, Note_on_c, 0, 44, 46
1, 97840, Tempo, 398671
1, 97880, Tempo, 397351
1, 97920, Tempo, 396040
1, 97920, Note_on_c, 0, 44, 0
1, 97920, Note_on_c, 0, 73, 0
1, 97920, Note_on_c, 0, 73, 70
1, 97920, Note_on_c, 0, 55, 46
1, 98080, Tempo, 396040
1, 98080, Note_on_c, 0, 55, 0
1, 98080, Note_on_c, 0, 44, 46
1, 98240, Note_on_c, 0, 44, 0
1, 98240, Note_on_c, 0, 55, 46
1, 98360, Tempo, 394737
1, 98400, Note_on_c, 0, 55, 0
1, 98400, Note_on_c, 0, 73, 0
1, 98400, Note_on_c, 0, 64, 0
1, 98400, Note_on_c, 0, 65, 60
1, 98400, Note_on_c, 0, 73, 74
1, 98400, Note_on_c, 0, 44, 51
1, 98409, Control_c, 0, 64, 0
1, 98471, Control_c, 0, 64, 127
1, 98560, Note_on_c, 0, 44, 0
1, 98560, Note_on_c, 0, 56, 62
1, 98600, Tempo, 396040
1, 98720, Note_on_c, 0, 56, 0
1, 98720, Note_on_c, 0, 44, 49
1, 98840, Tempo, 397351
1, 98880, Note_on_c, 0, 44, 0
1, 98880, Note_on_c, 0, 56, 48
1, 99040, Note_on_c, 0, 56, 0
1, 99040, Note_on_c, 0, 44, 48
1, 99080, Tempo, 398671
1, 99120, Note_on_c, 0, 73, 0
1, 99120, Note_on_c, 0, 72, 73
1, 99200, Note_on_c, 0, 44, 0
1, 99200, Note_on_c, 0, 56, 48
1, 99320, Tempo, 400000
1, 99360, Tempo, 398671
1, 99360, Note_on_c, 0, 56, 0
1, 99360, Note_on_c, 0, 72, 0
1, 99360, Note_on_c, 0, 77, 73
1, 99360, Note_on_c, 0, 44, 49
1, 99400, Tempo, 401338
1, 99440, Tempo, 404040
1, 99480, Tempo, 406780
1, 99520, Tempo, 409556
1, 99520, Note_on_c, 0, 44, 0
1, 99520, Note_on_c, 0, 56, 49
1, 99560, Tempo, 413793
1, 99600, Tempo, 416667
1, 99640, Tempo, 419580
1, 99680, Tempo, 422535
1, 99680, Note_on_c, 0, 56, 0
1, 99680, Note_on_c, 0, 44, 49
1, 99720, Tempo, 427046
1, 99760, Tempo, 430108
1, 99800, Tempo, 433213
1, 99840, Tempo, 436364
1, 99840, Note_on_c, 0, 44, 0
1, 99840, Note_on_c, 0, 77, 0
1, 99840, Note_on_c, 0, 65, 0
1, 99840, Note_on_c, 0, 64, 62
1, 99840, Note_on_c, 0, 73, 77
1, 99840, Note_on_c, 0, 55, 67
1, 99849, Control_c, 0, 64, 0
1, 99880, Tempo, 441176
1, 99911, Control_c, 0, 64, 127
1, 99920, Tempo, 410959
1, 99960, Tempo, 409556
1, 100000, Tempo, 408163
1, 100000, Note_on_c, 0, 55, 0
1, 100000, Note_on_c, 0, 44, 50
1, 100040, Tempo, 406780
1, 100080, Tempo, 405405
1, 100120, Tempo, 404040
1, 100160, Tempo, 402685
1, 100160, Note_on_c, 0, 44, 0
1, 100160, Note_on_c, 0, 55, 50
1, 100200, Tempo, 401338
1, 100240, Tempo, 400000
1, 100280, Tempo, 398671
1, 100320, Tempo, 397351
1, 100320, Note_on_c, 0, 55, 0
1, 100320, Note_on_c, 0, 44, 50
1, 100360, Tempo, 396040
1, 100400, Tempo, 394737
1, 100440, Tempo, 393443
1, 100480, Tempo, 392157
1, 100480, Note_on_c, 0, 44, 0
1, 100480, Note_on_c, 0, 55, 50
1, 100520, Tempo, 390879
1, 100560, Tempo, 389610
1, 100560, Note_on_c, 0, 73, 0
1, 100560, Note_on_c, 0, 73, 75
1, 100600, Tempo, 388350
1, 100640, Tempo, 387097
1, 100640, Note_on_c, 0, 55, 0
1, 100640, Note_on_c, 0, 44, 50
1, 100680, Tempo, 385852
1, 100720, Tempo, 384615
1, 100760, Tempo, 382166
1, 100800, Tempo, 383387
1, 100800, Note_on_c, 0, 44, 0
1, 100800, Note_on_c, 0, 73, 0
1, 100800, Note_on_c, 0, 73, 76
1, 100800, Note_on_c, 0, 55, 51
1, 100840, Tempo, 382166
1, 100960, Note_on_c, 0, 55, 0
1, 100960, Note_on_c, 0, 44, 51
1, 101120, Note_on_c, 0, 44, 0
1, 101120, Note_on_c, 0, 55, 51
1, 101280, Note_on_c, 0, 55, 0
1, 101280, Note_on_c, 0, 73, 0
1, 101280, Note_on_c, 0, 64, 0
1, 101280, Note_on_c, 0, 65, 64
1, 101280, Note_on_c, 0, 73, 80
1, 101280, Note_on_c, 0, 44, 58
1, 101289, Control_c, 0, 64, 0
1, 101351, Control_c, 0, 64, 127
1, 101440, Note_on_c, 0, 44, 0
1, 101440, Note_on_c, 0, 56, 69
1, 101600, Note_on_c, 0, 56, 0
1, 101600, Note_on_c, 0, 44, 52
1, 101760, Note_on_c, 0, 44, 0
1, 101760, Note_on_c, 0, 56, 52
1, 101920, Note_on_c, 0, 56, 0
1, 101920, Note_on_c, 0, 44, 52
1, 102000, Note_on_c, 0, 73, 0
1, 102000, Note_on_c, 0, 72, 78
1, 102080, Note_on_c, 0, 44, 0
1, 102080, Note_on_c, 0, 56, 52
1, 102240, Note_on_c, 0, 56, 0
1, 102240, Note_on_c, 0, 72, 0
1, 102240, Note_on_c, 0, 65, 0
1, 102240, Note_on_c, 0, 65, 79
1, 102240, Note_on_c, 0, 44, 53
1, 102280, Tempo, 398671
1, 102320, Tempo, 401338
1, 102360, Tempo, 404040
1, 102400, Tempo, 406780
1, 102400, Note_on_c, 0, 44, 0
1, 102400, Note_on_c, 0, 56, 53
1, 102440, Tempo, 409556
1, 102480, Tempo, 412371
1, 102520, Tempo, 415225
1, 102560, Tempo, 418118
1, 102560, Note_on_c, 0, 56, 0
1, 102560, Note_on_c, 0, 44, 54
1, 102600, Tempo, 421053
1, 102640, Tempo, 425532
1, 102720, Tempo, 382166
1, 102720, Note_on_c, 0, 44, 0
1, 102720, Note_on_c, 0, 65, 0
1, 102720, Note_on_c, 0, 66, 67
1, 102720, Note_on_c, 0, 72, 67
1, 102720, Note_on_c, 0, 75, 80
1, 102720, Note_on_c, 0, 57, 64
1, 102733, Control_c, 0, 64, 0
1, 102790, Control_c, 0, 64, 127
1, 102880, Tempo, 383387
1, 102880, Note_on_c, 0, 57, 0
1, 102880, Note_on_c, 0, 44, 60
1, 103000, Tempo, 384615
1, 103040, Note_on_c, 0, 44, 0
1, 103040, Note_on_c, 0, 57, 60
1, 103160, Tempo, 385852
1, 103200, Note_on_c, 0, 57, 0
1, 103200, Note_on_c, 0, 66, 0
1, 103200, Note_on_c, 0, 72, 0
1, 103200, Note_on_c, 0, 75, 0
1, 103200, Note_on_c, 0, 66, 67
1, 103200, Note_on_c, 0, 72, 67
1, 103200, Note_on_c, 0, 75, 80
1, 103200, Note_on_c, 0, 44, 60
1, 103280, Tempo, 387097
1, 103360, Note_on_c, 0, 44, 0
1, 103360, Note_on_c, 0, 57, 61
1, 103440, Tempo, 388350
1, 103520, Note_on_c, 0, 57, 0
1, 103520, Note_on_c, 0, 44, 61
1, 103560, Tempo, 389610
1, 103680, Tempo, 390879
1, 103680, Note_on_c, 0, 44, 0
1, 103680, Note_on_c, 0, 66, 0
1, 103680, Note_on_c, 0, 72, 0
1, 103680, Note_on_c, 0, 75, 0
1, 103680, Note_on_c, 0, 66, 68
1, 103680, Note_on_c, 0, 72, 68
1, 103680, Note_on_c, 0, 75, 82
1, 103680, Note_on_c, 0, 57, 61
1, 103720, Tempo, 397351
1, 103840, Note_on_c, 0, 57, 0
1, 103840, Note_on_c, 0, 44, 61
1, 104000, Note_on_c, 0, 44, 0
1, 104000, Note_on_c, 0, 57, 62
1, 104160, Tempo, 402685
1, 104160, Note_on_c, 0, 57, 0
1, 104160, Note_on_c, 0, 66, 0
1, 104160, Note_on_c, 0, 72, 0
1, 104160, Note_on_c, 0, 75, 0
1, 104160, Note_on_c, 0, 66, 70
1, 104160, Note_on_c, 0, 72, 70
1, 104160, Note_on_c, 0, 75, 83
1, 104160, Note_on_c, 0, 44, 56
1, 104160, Note_on_c, 0, 57, 67
1, 104635, Note_on_c, 0, 57, 0
1, 104635, Note_on_c, 0, 75, 0
1, 104635, Note_on_c, 0, 66, 0
1, 104635, Note_on_c, 0, 72, 0
1, 104635, Note_on_c, 0, 44, 0
1, 104640, Tempo, 422535
1, 104640, Note_on_c, 0, 66, 73
1, 104640, Note_on_c, 0, 72, 73
1, 104640, Note_on_c, 0, 75, 86
1, 104640, Note_on_c, 0, 44, 58
1, 104640, Note_on_c, 0, 57, 68
1, 105115, Note_on_c, 0, 57, 0
1, 105115, Note_on_c, 0, 75, 0
1, 105115, Note_on_c, 0, 66, 0
1, 105115, Note_on_c, 0, 72, 0
1, 105115, Note_on_c, 0, 44, 0
1, 105120, Tempo, 512821
1, 105120, Note_on_c, 0, 66, 76
1, 105120, Note_on_c, 0, 72, 76
1, 105120, Note_on_c, 0, 76, 91
1, 105120, Note_on_c, 0, 44, 60
1, 105120, Note_on_c, 0, 56, 71
1, 105600, Tempo, 360360
1, 105600, Note_on_c, 0, 56, 0
1, 105600, Note_on_c, 0, 76, 0
1, 105600, Note_on_c, 0, 66, 0
1, 105600, Note_on_c, 0, 72, 0
1, 105600, Note_on_c, 0, 44, 0
1, 105600, Note_on_c, 0, 68, 73
1, 105600, Note_on_c, 0, 73, 78
1, 105600, Note_on_c, 0, 77, 92
1, 105600, Note_on_c, 0, 49, 59
1, 105600, Note_on_c, 0, 56, 59
1, 105600, Note_on_c, 0, 61, 72
1, 105608, Control_c, 0, 64, 0
1, 105920, Control_c, 0, 64, 127
1, 106075, Note_on_c, 0, 61, 0
1, 106075, Note_on_c, 0, 73, 0
1, 106075, Note_on_c, 0, 77, 0
1, 106075, Note_on_c, 0, 68, 0
1, 106075, Note_on_c, 0, 56, 0
1, 106075, Note_on_c, 0, 49, 0
1, 106080, Tempo, 311688
1, 106080, Note_on_c, 0, 65, 71
1, 106080, Note_on_c, 0, 73, 85
1, 106080, Note_on_c, 0, 49, 47
1, 106080, Note_on_c, 0, 56, 47
1, 106080, Note_on_c, 0, 61, 57
1, 106555, Note_on_c, 0, 61, 0
1, 106555, Note_on_c, 0, 49, 0
1, 106555, Note_on_c, 0, 65, 0
1, 106555, Note_on_c, 0, 73, 0
1, 106555, Note_on_c, 0, 56, 0
1, 106560, Tempo, 324324
1, 106560, Note_on_c, 0, 65, 68
1, 106560, Note_on_c, 0, 68, 80
1, 106560, Note_on_c, 0, 49, 47
1, 106560, Note_on_c, 0, 56, 47
1, 106560, Note_on_c, 0, 61, 57
1, 107035, Note_on_c, 0, 61, 0
1, 107035, Note_on_c, 0, 49, 0
1, 107035, Note_on_c, 0, 65, 0
1, 107035, Note_on_c, 0, 68, 0
1, 107035, Note_on_c, 0, 56, 0
1, 107040, Tempo, 317712
1, 107040, Note_on_c, 0, 66, 71
1, 107040, Note_on_c, 0, 70, 85
1, 107040, Note_on_c, 0, 54, 54
1, 107040, Note_on_c, 0, 61, 64
1, 107056, Control_c, 0, 64, 0
1, 107234, Control_c, 0, 64, 127
1, 107520, Tempo, 309502
1, 107520, Note_on_c, 0, 42, 62
1, 107760, Note_on_c, 0, 42, 0
1, 108000, Tempo, 328371
1, 108000, Note_on_c, 0, 30, 62
1, 108240, Note_on_c, 0, 30, 0
1, 108423, Control_c, 0, 64, 0
1, 108480, Tempo, 322477
1, 108480, Note_on_c, 0, 61, 0
1, 108480, Note_on_c, 0, 66, 0
1, 108480, Note_on_c, 0, 70, 0
1, 108480, Note_on_c, 0, 54, 0
1, 108480, Note_on_c, 0, 65, 59
1, 108480, Note_on_c, 0, 68, 66
1, 108480, Note_on_c, 0, 37, 62
1, 108537, Control_c, 0, 64, 127
1, 108540, Note_on_c, 0, 68, 0
1, 108540, Note_on_c, 0, 70, 66
1, 108600, Note_on_c, 0, 70, 0
1, 108600, Note_on_c, 0, 68, 65
1, 108720, Note_on_c, 0, 68, 0
1, 108720, Note_on_c, 0, 37, 0
1, 108720, Note_on_c, 0, 67, 69
1, 108960, Tempo, 294276
1, 108960, Note_on_c, 0, 67, 0
1, 108960, Note_on_c, 0, 65, 0
1, 108960, Note_on_c, 0, 65, 58
1, 108960, Note_on_c, 0, 68, 70
1, 108960, Note_on_c, 0, 49, 46
1, 108960, Note_on_c, 0, 56, 46
1, 108960, Note_on_c, 0, 61, 55
1, 109080, Tempo, 293470
1, 109080, Note_on_c, 0, 61, 0
1, 109080, Note_on_c, 0, 49, 0
1, 109080, Note_on_c, 0, 65, 0
1, 109080, Note_on_c, 0, 68, 0
1, 109080, Note_on_c, 0, 56, 0
1, 109200, Tempo, 292683
1, 109200, Note_on_c, 0, 65, 60
1, 109200, Note_on_c, 0, 70, 73
1, 109200, Note_on_c, 0, 49, 46
1, 109200, Note_on_c, 0, 56, 46
1, 109200, Note_on_c, 0, 61, 55
1, 109280, Tempo, 291886
1, 109320, Note_on_c, 0, 61, 0
1, 109320, Note_on_c, 0, 49, 0
1, 109320, Note_on_c, 0, 65, 0
1, 109320, Note_on_c, 0, 70, 0
1, 109320, Note_on_c, 0, 56, 0
1, 109400, Tempo, 291093
1, 109440, Note_on_c, 0, 65, 62
1, 109440, Note_on_c, 0, 72, 74
1, 109440, Note_on_c, 0, 49, 46
1, 109440, Note_on_c, 0, 56, 46
1, 109440, Note_on_c, 0, 61, 56
1, 109480, Tempo, 290318
1, 109560, Note_on_c, 0, 61, 0
1, 109560, Note_on_c, 0, 49, 0
1, 109560, Note_on_c, 0, 65, 0
1, 109560, Note_on_c, 0, 72, 0
1, 109560, Note_on_c, 0, 56, 0
1, 109600, Tempo, 289533
1, 109680, Tempo, 308483
1, 109680, Note_on_c, 0, 65, 64
1, 109680, Note_on_c, 0, 73, 76
1, 109680, Note_on_c, 0, 49, 47
1, 109680, Note_on_c, 0, 56, 47
1, 109680, Note_on_c, 0, 61, 57
1, 109800, Note_on_c, 0, 61, 0
1, 109800, Note_on_c, 0, 49, 0
1, 109800, Note_on_c, 0, 65, 0
1, 109800, Note_on_c, 0, 73, 0
1, 109800, Note_on_c, 0, 56, 0
1, 109853, Control_c, 0, 64, 0
1, 109920, Tempo, 297030
1, 109920, Note_on_c, 0, 66, 67
1, 109920, Note_on_c, 0, 74, 80
1, 109920, Note_on_c, 0, 49, 49
1, 109920, Note_on_c, 0, 57, 49
1, 109920, Note_on_c, 0, 60, 59
1, 109960, Tempo, 296296
1, 110400, Tempo, 314136
1, 110400, Note_on_c, 0, 60, 0
1, 110400, Note_on_c, 0, 49, 0
1, 110400, Note_on_c, 0, 66, 0
1, 110400, Note_on_c, 0, 74, 0
1, 110400, Note_on_c, 0, 57, 0
1, 110400, Note_on_c, 0, 66, 70
1, 110400, Note_on_c, 0, 75, 83
1, 110400, Note_on_c, 0, 49, 51
1, 110400, Note_on_c, 0, 57, 51
1, 110400, Note_on_c, 0, 60, 61
1, 110880, Tempo, 341880
1, 110880, Note_on_c, 0, 60, 0
1, 110880, Note_on_c, 0, 49, 0
1, 110880, Note_on_c, 0, 66, 0
1, 110880, Note_on_c, 0, 75, 0
1, 110880, Note_on_c, 0, 57, 0
1, 110880, Note_on_c, 0, 66, 73
1, 110880, Note_on_c, 0, 76, 87
1, 110880, Note_on_c, 0, 49, 52
1, 110880, Note_on_c, 0, 56, 52
1, 110880, Note_on_c, 0, 60, 62
1, 110920, Tempo, 352941
1, 111360, Tempo, 348837
1, 111360, Note_on_c, 0, 60, 0
1, 111360, Note_on_c, 0, 49, 0
1, 111360, Note_on_c, 0, 66, 0
1, 111360, Note_on_c, 0, 76, 0
1, 111360, Note_on_c, 0, 56, 0
1, 111360, Note_on_c, 0, 68, 76
1, 111360, Note_on_c, 0, 73, 76
1, 111360, Note_on_c, 0, 77, 89
1, 111360, Note_on_c, 0, 49, 57
1, 111360, Note_on_c, 0, 56, 57
1, 111360, Note_on_c, 0, 61, 69
1, 111369, Control_c, 0, 64, 0
1, 111680, Control_c, 0, 64, 127
1, 111835, Note_on_c, 0, 61, 0
1, 111835, Note_on_c, 0, 73, 0
1, 111835, Note_on_c, 0, 77, 0
1, 111835, Note_on_c, 0, 68, 0
1, 111835, Note_on_c, 0, 56, 0
1, 111835, Note_on_c, 0, 49, 0
1, 111840, Tempo, 306122
1, 111840, Note_on_c, 0, 65, 71
1, 111840, Note_on_c, 0, 73, 85
1, 111840, Note_on_c, 0, 49, 47
1, 111840, Note_on_c, 0, 56, 47
1, 111840, Note_on_c, 0, 61, 57
1, 112315, Note_on_c, 0, 61, 0
1, 112315, Note_on_c, 0, 49, 0
1, 112315, Note_on_c, 0, 65, 0
1, 112315, Note_on_c, 0, 73, 0
1, 112315, Note_on_c, 0, 56, 0
1, 112320, Tempo, 314928
1, 112320, Note_on_c, 0, 65, 68
1, 112320, Note_on_c, 0, 68, 80
1, 112320, Note_on_c, 0, 49, 47
1, 112320, Note_on_c, 0, 56, 47
1, 112320, Note_on_c, 0, 61, 57
1, 112795, Note_on_c, 0, 61, 0
1, 112795, Note_on_c, 0, 49, 0
1, 112795, Note_on_c, 0, 65, 0
1, 112795, Note_on_c, 0, 68, 0
1, 112795, Note_on_c, 0, 56, 0
1, 112800, Tempo, 317712
1, 112800, Note_on_c, 0, 66, 71
1, 112800, Note_on_c, 0, 70, 85
1, 112800, Note_on_c, 0, 54, 54
1, 112800, Note_on_c, 0, 61, 64
1, 112816, Control_c, 0, 64, 0
1, 112994, Control_c, 0, 64, 127
1, 113280, Tempo, 309502
1, 113280, Note_on_c, 0, 42, 62
1, 113520, Note_on_c, 0, 42, 0
1, 113760, Tempo, 328371
1, 113760, Note_on_c, 0, 30, 62
1, 114000, Note_on_c, 0, 30, 0
1, 114183, Control_c, 0, 64, 0
1, 114240, Tempo, 322477
1, 114240, Note_on_c, 0, 61, 0
1, 114240, Note_on_c, 0, 66, 0
1, 114240, Note_on_c, 0, 70, 0
1, 114240, Note_on_c, 0, 54, 0
1, 114240, Note_on_c, 0, 65, 59
1, 114240, Note_on_c, 0, 68, 66
1, 114240, Note_on_c, 0, 37, 62
1, 114290, Control_c, 0, 64, 127
1, 114300, Note_on_c, 0, 68, 0
1, 114300, Note_on_c, 0, 70, 66
1, 114360, Note_on_c, 0, 70, 0
1, 114360, Note_on_c, 0, 68, 65
1, 114480, Note_on_c, 0, 68, 0
1, 114480, Note_on_c, 0, 37, 0
1, 114480, Note_on_c, 0, 67, 61
1, 114720, Tempo, 292683
1, 114720, Note_on_c, 0, 67, 0
1, 114720, Note_on_c, 0, 65, 0
1, 114720, Note_on_c, 0, 65, 58
1, 114720, Note_on_c, 0, 68, 70
1, 114720, Note_on_c, 0, 49, 46
1, 114720, Note_on_c, 0, 56, 46
1, 114720, Note_on_c, 0, 61, 55
1, 114840, Note_on_c, 0, 61, 0
1, 114840, Note_on_c, 0, 49, 0
1, 114840, Note_on_c, 0, 65, 0
1, 114840, Note_on_c, 0, 68, 0
1, 114840, Note_on_c, 0, 56, 0
1, 114880, Tempo, 291886
1, 114960, Note_on_c, 0, 65, 60
1, 114960, Note_on_c, 0, 70, 73
1, 114960, Note_on_c, 0, 49, 46
1, 114960, Note_on_c, 0, 56, 46
1, 114960, Note_on_c, 0, 61, 55
1, 115000, Tempo, 291093
1, 115080, Note_on_c, 0, 61, 0
1, 115080, Note_on_c, 0, 49, 0
1, 115080, Note_on_c, 0, 65, 0
1, 115080, Note_on_c, 0, 70, 0
1, 115080, Note_on_c, 0, 56, 0
1, 115120, Tempo, 290318
1, 115200, Note_on_c, 0, 65, 62
1, 115200, Note_on_c, 0, 72, 74
1, 115200, Note_on_c, 0, 49, 46
1, 115200, Note_on_c, 0, 56, 46
1, 115200, Note_on_c, 0, 61, 56
1, 115240, Tempo, 289533
1, 115320, Note_on_c, 0, 61, 0
1, 115320, Note_on_c, 0, 49, 0
1, 115320, Note_on_c, 0, 65, 0
1, 115320, Note_on_c, 0, 72, 0
1, 115320, Note_on_c, 0, 56, 0
1, 115440, Tempo, 333463
1, 115440, Note_on_c, 0, 65, 64
1, 115440, Note_on_c, 0, 73, 76
1, 115440, Note_on_c, 0, 49, 47
1, 115440, Note_on_c, 0, 56, 47
1, 115440, Note_on_c, 0, 61, 57
1, 115560, Note_on_c, 0, 61, 0
1, 115560, Note_on_c, 0, 49, 0
1, 115560, Note_on_c, 0, 65, 0
1, 115560, Note_on_c, 0, 73, 0
1, 115560, Note_on_c, 0, 56, 0
1, 115613, Control_c, 0, 64, 0
1, 115680, Tempo, 303797
1, 115680, Note_on_c, 0, 65, 55
1, 115680, Note_on_c, 0, 71, 67
1, 115680, Note_on_c, 0, 49, 39
1, 115680, Note_on_c, 0, 55, 49
1, 116160, Tempo, 327368
1, 116160, Note_on_c, 0, 55, 0
1, 116160, Note_on_c, 0, 65, 0
1, 116160, Note_on_c, 0, 71, 0
1, 116160, Note_on_c, 0, 49, 0
1, 116160, Note_on_c, 0, 64, 58
1, 116160, Note_on_c, 0, 72, 69
1, 116160, Note_on_c, 0, 48, 41
1, 116160, Note_on_c, 0, 55, 50
1, 116640, Tempo, 357824
1, 116640, Note_on_c, 0, 55, 0
1, 116640, Note_on_c, 0, 64, 0
1, 116640, Note_on_c, 0, 72, 0
1, 116640, Note_on_c, 0, 48, 0
1, 116640, Note_on_c, 0, 65, 53
1, 116640, Note_on_c, 0, 74, 63
1, 116640, Note_on_c, 0, 48, 37
1, 116640, Note_on_c, 0, 55, 37
1, 116640, Note_on_c, 0, 59, 45
1, 116680, Tempo, 375000
1, 117120, Tempo, 356633
1, 117120, Note_on_c, 0, 59, 0
1, 117120, Note_on_c, 0, 48, 0
1, 117120, Note_on_c, 0, 65, 0
1, 117120, Note_on_c, 0, 74, 0
1, 117120, Note_on_c, 0, 55, 0
1, 117120, Note_on_c, 0, 64, 35
1, 117120, Note_on_c, 0, 76, 42
1, 117120, Note_on_c, 0, 48, 26
1, 117120, Note_on_c, 0, 55, 26
1, 117120, Note_on_c, 0, 60, 32
1, 117128, Control_c, 0, 64, 0
1, 117440, Control_c, 0, 64, 127
1, 117595, Note_on_c, 0, 60, 0
1, 117595, Note_on_c, 0, 48, 0
1, 117595, Note_on_c, 0, 64, 0
1, 117595, Note_on_c, 0, 76, 0
1, 117595, Note_on_c, 0, 55, 0
1, 117600, Tempo, 334262
1, 117600, Note_on_c, 0, 64, 33
1, 117600, Note_on_c, 0, 72, 39
1, 117600, Note_on_c, 0, 48, 22
1, 117600, Note_on_c, 0, 55, 22
1, 117600, Note_on_c, 0, 60, 26
1, 118075, Note_on_c, 0, 60, 0
1, 118075, Note_on_c, 0, 48, 0
1, 118075, Note_on_c, 0, 64, 0
1, 118075, Note_on_c, 0, 72, 0
1, 118075, Note_on_c, 0, 55, 0
1, 118080, Note_on_c, 0, 64, 31
1, 118080, Note_on_c, 0, 67, 37
1, 118080, Note_on_c, 0, 48, 22
1, 118080, Note_on_c, 0, 55, 22
1, 118080, Note_on_c, 0, 60, 26
1, 118120, Tempo, 341880
1, 118555, Note_on_c, 0, 60, 0
1, 118555, Note_on_c, 0, 48, 0
1, 118555, Note_on_c, 0, 64, 0
1, 118555, Note_on_c, 0, 67, 0
1, 118555, Note_on_c, 0, 55, 0
1, 118560, Tempo, 334485
1, 118560, Note_on_c, 0, 65, 33
1, 118560, Note_on_c, 0, 69, 39
1, 118560, Note_on_c, 0, 53, 25
1, 118560, Note_on_c, 0, 60, 30
1, 118576, Control_c, 0, 64, 0
1, 118754, Control_c, 0, 64, 127
1, 119040, Tempo, 324412
1, 119040, Note_on_c, 0, 41, 28
1, 119280, Note_on_c, 0, 41, 0
1, 119520, Tempo, 339770
1, 119520, Note_on_c, 0, 29, 28
1, 119760, Note_on_c, 0, 29, 0
1, 119943, Control_c, 0, 64, 0
1, 120000, Tempo, 322477
1, 120000, Note_on_c, 0, 60, 0
1, 120000, Note_on_c, 0, 65, 0
1, 120000, Note_on_c, 0, 69, 0
1, 120000, Note_on_c, 0, 53, 0
1, 120000, Note_on_c, 0, 64, 35
1, 120000, Note_on_c, 0, 67, 39
1, 120000, Note_on_c, 0, 36, 37
1, 120043, Control_c, 0, 64, 127
1, 120060, Note_on_c, 0, 67, 0
1, 120060, Note_on_c, 0, 69, 39
1, 120120, Note_on_c, 0, 69, 0
1, 120120, Note_on_c, 0, 67, 38
1, 120240, Note_on_c, 0, 67, 0
1, 120240, Note_on_c, 0, 36, 0
1, 120240, Note_on_c, 0, 66, 37
1, 120480, Tempo, 295902
1, 120480, Note_on_c, 0, 66, 0
1, 120480, Note_on_c, 0, 64, 0
1, 120480, Note_on_c, 0, 64, 35
1, 120480, Note_on_c, 0, 67, 42
1, 120480, Note_on_c, 0, 48, 27
1, 120480, Note_on_c, 0, 55, 27
1, 120480, Note_on_c, 0, 60, 32
1, 120560, Tempo, 295087
1, 120600, Note_on_c, 0, 60, 0
1, 120600, Note_on_c, 0, 48, 0
1, 120600, Note_on_c, 0, 64, 0
1, 120600, Note_on_c, 0, 67, 0
1, 120600, Note_on_c, 0, 55, 0
1, 120640, Tempo, 294276
1, 120720, Tempo, 293470
1, 120720, Note_on_c, 0, 64, 36
1, 120720, Note_on_c, 0, 69, 44
1, 120720, Note_on_c, 0, 48, 28
1, 120720, Note_on_c, 0, 55, 28
1, 120720, Note_on_c, 0, 60, 33
1, 120800, Tempo, 292683
1, 120840, Note_on_c, 0, 60, 0
1, 120840, Note_on_c, 0, 48, 0
1, 120840, Note_on_c, 0, 64, 0
1, 120840, Note_on_c, 0, 69, 0
1, 120840, Note_on_c, 0, 55, 0
1, 120880, Tempo, 291886
1, 120960, Tempo, 291093
1, 120960, Note_on_c, 0, 64, 37
1, 120960, Note_on_c, 0, 71, 44
1, 120960, Note_on_c, 0, 48, 28
1, 120960, Note_on_c, 0, 55, 28
1, 120960, Note_on_c, 0, 60, 33
1, 121040, Tempo, 290318
1, 121080, Note_on_c, 0, 60, 0
1, 121080, Note_on_c, 0, 48, 0
1, 121080, Note_on_c, 0, 64, 0
1, 121080, Note_on_c, 0, 71, 0
1, 121080, Note_on_c, 0, 55, 0
1, 121120, Tempo, 289533
1, 121200, Tempo, 319149
1, 121200, Note_on_c, 0, 64, 39
1, 121200, Note_on_c, 0, 72, 46
1, 121200, Note_on_c, 0, 48, 29
1, 121200, Note_on_c, 0, 55, 29
1, 121200, Note_on_c, 0, 60, 34
1, 121320, Note_on_c, 0, 60, 0
1, 121320, Note_on_c, 0, 48, 0
1, 121320, Note_on_c, 0, 64, 0
1, 121320, Note_on_c, 0, 72, 0
1, 121320, Note_on_c, 0, 55, 0
1, 121373, Control_c, 0, 64, 0
1, 121440, Tempo, 301705
1, 121440, Note_on_c, 0, 65, 39
1, 121440, Note_on_c, 0, 73, 47
1, 121440, Note_on_c, 0, 48, 28
1, 121440, Note_on_c, 0, 56, 28
1, 121440, Note_on_c, 0, 59, 35
1, 121920, Tempo, 319608
1, 121920, Note_on_c, 0, 59, 0
1, 121920, Note_on_c, 0, 48, 0
1, 121920, Note_on_c, 0, 65, 0
1, 121920, Note_on_c, 0, 73, 0
1, 121920, Note_on_c, 0, 56, 0
1, 121920, Note_on_c, 0, 65, 42
1, 121920, Note_on_c, 0, 74, 50
1, 121920, Note_on_c, 0, 48, 30
1, 121920, Note_on_c, 0, 56, 30
1, 121920, Note_on_c, 0, 59, 37
1, 122400, Note_on_c, 0, 59, 0
1, 122400, Note_on_c, 0, 48, 0
1, 122400, Note_on_c, 0, 65, 0
1, 122400, Note_on_c, 0, 74, 0
1, 122400, Note_on_c, 0, 56, 0
1, 122400, Note_on_c, 0, 65, 45
1, 122400, Note_on_c, 0, 75, 54
1, 122400, Note_on_c, 0, 48, 31
1, 122400, Note_on_c, 0, 55, 31
1, 122400, Note_on_c, 0, 59, 39
1, 122440, Tempo, 332410
1, 122880, Tempo, 332428
1, 122880, Note_on_c, 0, 59, 0
1, 122880, Note_on_c, 0, 48, 0
1, 122880, Note_on_c, 0, 65, 0
1, 122880, Note_on_c, 0, 75, 0
1, 122880, Note_on_c, 0, 55, 0
1, 122880, Note_on_c, 0, 64, 48
1, 122880, Note_on_c, 0, 76, 57
1, 122880, Note_on_c, 0, 48, 36
1, 122880, Note_on_c, 0, 55, 36
1, 122880, Note_on_c, 0, 60, 44
1, 123355, Note_on_c, 0, 60, 0
1, 123355, Note_on_c, 0, 48, 0
1, 123355, Note_on_c, 0, 64, 0
1, 123355, Note_on_c, 0, 76, 0
1, 123355, Note_on_c, 0, 55, 0
1, 123360, Tempo, 315789
1, 123360, Note_on_c, 0, 64, 46
1, 123360, Note_on_c, 0, 72, 55
1, 123360, Note_on_c, 0, 48, 30
1, 123360, Note_on_c, 0, 55, 30
1, 123360, Note_on_c, 0, 60, 36
1, 123835, Note_on_c, 0, 60, 0
1, 123835, Note_on_c, 0, 48, 0
1, 123835, Note_on_c, 0, 64, 0
1, 123835, Note_on_c, 0, 72, 0
1, 123835, Note_on_c, 0, 55, 0
1, 123840, Tempo, 303030
1, 123840, Note_on_c, 0, 64, 42
1, 123840, Note_on_c, 0, 67, 51
1, 123840, Note_on_c, 0, 48, 30
1, 123840, Note_on_c, 0, 55, 30
1, 123840, Note_on_c, 0, 60, 36
1, 124315, Note_on_c, 0, 60, 0
1, 124315, Note_on_c, 0, 48, 0
1, 124315, Note_on_c, 0, 64, 0
1, 124315, Note_on_c, 0, 67, 0
1, 124315, Note_on_c, 0, 55, 0
1, 124320, Tempo, 291262
1, 124320, Note_on_c, 0, 65, 48
1, 124320, Note_on_c, 0, 74, 59
1, 124320, Note_on_c, 0, 56, 36
1, 124320, Note_on_c, 0, 59, 44
1, 124360, Tempo, 285036
1, 124800, Tempo, 291971
1, 124800, Note_on_c, 0, 59, 0
1, 124800, Note_on_c, 0, 65, 0
1, 124800, Note_on_c, 0, 74, 0
1, 124800, Note_on_c, 0, 56, 0
1, 124800, Note_on_c, 0, 66, 52
1, 124800, Note_on_c, 0, 75, 63
1, 124800, Note_on_c, 0, 57, 38
1, 124800, Note_on_c, 0, 60, 46
1, 125280, Note_on_c, 0, 60, 0
1, 125280, Note_on_c, 0, 66, 0
1, 125280, Note_on_c, 0, 75, 0
1, 125280, Note_on_c, 0, 57, 0
1, 125280, Note_on_c, 0, 68, 57
1, 125280, Note_on_c, 0, 77, 68
1, 125280, Note_on_c, 0, 59, 40
1, 125280, Note_on_c, 0, 62, 49
1, 125760, Tempo, 299252
1, 125760, Note_on_c, 0, 62, 0
1, 125760, Note_on_c, 0, 68, 0
1, 125760, Note_on_c, 0, 77, 0
1, 125760, Note_on_c, 0, 59, 0
1, 125760, Note_on_c, 0, 69, 61
1, 125760, Note_on_c, 0, 78, 72
1, 125760, Note_on_c, 0, 60, 45
1, 125760, Note_on_c, 0, 63, 55
1, 126235, Note_on_c, 0, 63, 0
1, 126235, Note_on_c, 0, 69, 0
1, 126235, Note_on_c, 0, 78, 0
1, 126235, Note_on_c, 0, 60, 0
1, 126240, Note_on_c, 0, 69, 59
1, 126240, Note_on_c, 0, 75, 72
1, 126240, Note_on_c, 0, 60, 39
1, 126240, Note_on_c, 0, 63, 47
1, 126280, Tempo, 293399
1, 126715, Note_on_c, 0, 63, 0
1, 126715, Note_on_c, 0, 69, 0
1, 126715, Note_on_c, 0, 75, 0
1, 126715, Note_on_c, 0, 60, 0
1, 126720, Note_on_c, 0, 69, 77
1, 126720, Note_on_c, 0, 60, 41
1, 126720, Note_on_c, 0, 63, 49
1, 126760, Tempo, 289157
1, 127195, Note_on_c, 0, 63, 0
1, 127195, Note_on_c, 0, 60, 0
1, 127195, Note_on_c, 0, 69, 0
1, 127200, Tempo, 279720
1, 127200, Note_on_c, 0, 68, 66
1, 127200, Note_on_c, 0, 77, 78
1, 127200, Note_on_c, 0, 59, 46
1, 127200, Note_on_c, 0, 62, 55
1, 127680, Tempo, 288462
1, 127680, Note_on_c, 0, 62, 0
1, 127680, Note_on_c, 0, 68, 0
1, 127680, Note_on_c, 0, 77, 0
1, 127680, Note_on_c, 0, 59, 0
1, 127680, Note_on_c, 0, 69, 69
1, 127680, Note_on_c, 0, 78, 82
1, 127680, Note_on_c, 0, 60, 48
1, 127680, Note_on_c, 0, 63, 57
1, 128160, Tempo, 297767
1, 128160, Note_on_c, 0, 63, 0
1, 128160, Note_on_c, 0, 69, 0
1, 128160, Note_on_c, 0, 78, 0
1, 128160, Note_on_c, 0, 60, 0
1, 128160, Note_on_c, 0, 71, 73
1, 128160, Note_on_c, 0, 80, 86
1, 128160, Note_on_c, 0, 62, 51
1, 128160, Note_on_c, 0, 65, 60
1, 128640, Key_signature, 4, "major"
1, 128640, Tempo, 306905
1, 128640, Note_on_c, 0, 65, 0
1, 128640, Note_on_c, 0, 71, 0
1, 128640, Note_on_c, 0, 80, 0
1, 128640, Note_on_c, 0, 62, 0
1, 128640, Note_on_c, 0, 72, 74
1, 128640, Note_on_c, 0, 81, 87
1, 128640, Note_on_c, 0, 63, 48
1, 128640, Note_on_c, 0, 66, 57
1, 129115, Note_on_c, 0, 66, 0
1, 129115, Note_on_c, 0, 72, 0
1, 129115, Note_on_c, 0, 81, 0
1, 129115, Note_on_c, 0, 63, 0
1, 129120, Tempo, 294840
1, 129120, Note_on_c, 0, 69, 75
1, 129120, Note_on_c, 0, 72, 75
1, 129120, Note_on_c, 0, 81, 89
1, 129120, Note_on_c, 0, 63, 51
1, 129120, Note_on_c, 0, 66, 60
1, 129160, Tempo, 295567
1, 129200, Tempo, 296296
1, 129240, Tempo, 297030
1, 129280, Tempo, 298507
1, 129320, Tempo, 299252
1, 129360, Tempo, 300000
1, 129400, Tempo, 300752
1, 129440, Tempo, 302267
1, 129480, Tempo, 303030
1, 129520, Tempo, 303797
1, 129560, Tempo, 304569
1, 129595, Note_on_c, 0, 66, 0
1, 129595, Note_on_c, 0, 81, 0
1, 129595, Note_on_c, 0, 69, 0
1, 129595, Note_on_c, 0, 72, 0
1, 129595, Note_on_c, 0, 63, 0
1, 129600, Tempo, 306122
1, 129600, Note_on_c, 0, 69, 76
1, 129600, Note_on_c, 0, 72, 76
1, 129600, Note_on_c, 0, 81, 91
1, 129600, Note_on_c, 0, 63, 53
1, 129600, Note_on_c, 0, 66, 63
1, 129640, Tempo, 308483
1, 129680, Tempo, 309278
1, 129720, Tempo, 310078
1, 129800, Tempo, 310881
1, 129840, Tempo, 311688
1, 129880, Tempo, 310881
1, 129960, Tempo, 311688
1, 130040, Tempo, 312500
1, 130075, Note_on_c, 0, 66, 0
1, 130075, Note_on_c, 0, 81, 0
1, 130075, Note_on_c, 0, 69, 0
1, 130075, Note_on_c, 0, 72, 0
1, 130075, Note_on_c, 0, 63, 0
1, 130080, Note_on_c, 0, 69, 78
1, 130080, Note_on_c, 0, 72, 78
1, 130080, Note_on_c, 0, 81, 93
1, 130080, Note_on_c, 0, 63, 56
1, 130080, Note_on_c, 0, 66, 66
1, 130120, Tempo, 313316
1, 130160, Tempo, 314136
1, 130240, Tempo, 314961
1, 130320, Tempo, 315789
1, 130400, Tempo, 316623
1, 130440, Tempo, 317460
1, 130520, Tempo, 318302
1, 130555, Note_on_c, 0, 66, 0
1, 130555, Note_on_c, 0, 81, 0
1, 130555, Note_on_c, 0, 69, 0
1, 130555, Note_on_c, 0, 72, 0
1, 130555, Note_on_c, 0, 63, 0
1, 130560, Note_on_c, 0, 69, 80
1, 130560, Note_on_c, 0, 72, 80
1, 130560, Note_on_c, 0, 81, 95
1, 130560, Note_on_c, 0, 63, 58
1, 130560, Note_on_c, 0, 66, 69
1, 130600, Tempo, 319149
1, 130680, Tempo, 320000
1, 130720, Tempo, 320856
1, 130800, Tempo, 321716
1, 130880, Tempo, 322581
1, 130960, Tempo, 323450
1, 131000, Tempo, 324324
1, 131035, Note_on_c, 0, 66, 0
1, 131035, Note_on_c, 0, 81, 0
1, 131035, Note_on_c, 0, 69, 0
1, 131035, Note_on_c, 0, 72, 0
1, 131035, Note_on_c, 0, 63, 0
1, 131040, Note_on_c, 0, 69, 81
1, 131040, Note_on_c, 0, 73, 81
1, 131040, Note_on_c, 0, 81, 96
1, 131040, Note_on_c, 0, 61, 61
1, 131040, Note_on_c, 0, 66, 73
1, 131080, Tempo, 325203
1, 131160, Tempo, 326087
1, 131240, Tempo, 326975
1, 131280, Tempo, 327869
1, 131360, Tempo, 328767
1, 131440, Tempo, 329670
1, 131480, Tempo, 330579
1, 131515, Note_on_c, 0, 66, 0
1, 131515, Note_on_c, 0, 81, 0
1, 131515, Note_on_c, 0, 69, 0
1, 131515, Note_on_c, 0, 73, 0
1, 131515, Note_on_c, 0, 61, 0
1, 131520, Tempo, 357143
1, 131520, Note_on_c, 0, 76, 84
1, 131520, Note_on_c, 0, 69, 84
1, 131520, Note_on_c, 0, 81, 99
1, 131520, Note_on_c, 0, 60, 64
1, 131520, Note_on_c, 0, 66, 76
1, 132000, Tempo, 470588
1, 132000, Note_on_c, 0, 76, 0
1, 132000, Note_on_c, 0, 75, 89
1, 132480, Tempo, 634921
1, 132480, Note_on_c, 0, 69, 0
1, 132480, Note_on_c, 0, 81, 0
1, 132480, Note_on_c, 0, 68, 59
1, 132480, Note_on_c, 0, 78, 85
1, 132480, Note_on_c, 0, 80, 85
1, 132960, Time_signature, 10, 2, 24, 8
1, 132960, Note_on_c, 0, 80, 0
1, 132960, Note_on_c, 0, 66, 0
1, 132960, Note_on_c, 0, 60, 0
1, 132960, Note_on_c, 0, 75, 0
1, 132960, Note_on_c, 0, 78, 0
1, 132960, Note_on_c, 0, 68, 0
1, 132960, Note_on_c, 0, 48, 73
1, 132960, Note_on_c, 0, 60, 86
1, 133000, Tempo, 345821
1, 133000, Control_c, 0, 64, 127
1, 133200, Tempo, 344828
1, 133400, Tempo, 330579
1, 133440, Tempo, 303797
1, 133440, Note_on_c, 0, 60, 0
1, 133440, Note_on_c, 0, 48, 0
1, 133440, Note_on_c, 0, 49, 77
1, 133440, Note_on_c, 0, 61, 91
1, 133920, Tempo, 309278
1, 133920, Note_on_c, 0, 61, 0
1, 133920, Note_on_c, 0, 49, 0
1, 133920, Note_on_c, 0, 50, 81
1, 133920, Note_on_c, 0, 62, 96
1, 134400, Note_on_c, 0, 62, 0
1, 134400, Note_on_c, 0, 50, 0
1, 134400, Note_on_c, 0, 52, 84
1, 134400, Note_on_c, 0, 64, 99
1, 134420, Control_c, 0, 64, 0
1, 134520, Tempo, 314961
1, 134680, Tempo, 314136
1, 134840, Tempo, 313316
1, 134880, Tempo, 325203
1, 134900, Tempo, 406780
1, 134940, Tempo, 404040
1, 134980, Tempo, 402685
1, 135020, Tempo, 400000
1, 135060, Tempo, 398671
1, 135100, Tempo, 396040
1, 135120, Note_on_c, 0, 64, 0
1, 135120, Note_on_c, 0, 52, 0
1, 135120, Note_on_c, 0, 51, 79
1, 135120, Note_on_c, 0, 63, 94
1, 135140, Tempo, 393443
1, 135180, Tempo, 392157
1, 135220, Tempo, 389610
1, 135260, Tempo, 388350
1, 135280, Tempo, 371517
1, 135320, Tempo, 370370
1, 135360, Tempo, 368098
1, 135360, Note_on_c, 0, 63, 0
1, 135360, Note_on_c, 0, 51, 0
1, 135360, Note_on_c, 0, 49, 79
1, 135360, Note_on_c, 0, 61, 93
1, 135400, Tempo, 365854
1, 135440, Tempo, 363636
1, 135480, Tempo, 362538
1, 135520, Tempo, 360360
1, 135560, Tempo, 358209
1, 135600, Tempo, 356083
1, 135600, Note_on_c, 0, 61, 0
1, 135600, Note_on_c, 0, 49, 0
1, 135600, Note_on_c, 0, 48, 78
1, 135600, Note_on_c, 0, 60, 92
1, 135640, Tempo, 355030
1, 135680, Tempo, 352941
1, 135720, Tempo, 350877
1, 135760, Tempo, 348837
1, 135800, Tempo, 347826
1, 135840, Tempo, 345821
1, 135840, Note_on_c, 0, 60, 0
1, 135840, Note_on_c, 0, 48, 0
1, 135840, Note_on_c, 0, 45, 77
1, 135840, Note_on_c, 0, 57, 91
1, 135874, Control_c, 0, 64, 127
1, 135880, Tempo, 343840
1, 135920, Tempo, 341880
1, 135960, Tempo, 340909
1, 136000, Tempo, 338983
1, 136040, Tempo, 337079
1, 136080, Tempo, 335196
1, 136080, Note_on_c, 0, 57, 0
1, 136080, Note_on_c, 0, 45, 0
1, 136080, Note_on_c, 0, 44, 77
1, 136080, Note_on_c, 0, 56, 91
1, 136120, Tempo, 333333
1, 136160, Tempo, 332410
1, 136200, Tempo, 330579
1, 136240, Tempo, 328767
1, 136280, Tempo, 326975
1, 136320, Tempo, 326087
1, 136320, Note_on_c, 0, 56, 0
1, 136320, Note_on_c, 0, 44, 0
1, 136320, Note_on_c, 0, 43, 76
1, 136320, Note_on_c, 0, 55, 90
1, 136360, Tempo, 324324
1, 136400, Tempo, 320856
1, 136440, Tempo, 326975
1, 136480, Tempo, 334262
1, 136520, Tempo, 341880
1, 136560, Tempo, 349854
1, 136560, Note_on_c, 0, 55, 0
1, 136560, Note_on_c, 0, 43, 0
1, 136560, Note_on_c, 0, 44, 71
1, 136560, Note_on_c, 0, 56, 84
1, 136600, Tempo, 357143
1, 136640, Tempo, 365854
1, 136680, Tempo, 375000
1, 136720, Tempo, 384615
1, 136760, Tempo, 394737
1, 136800, Tempo, 352941
1, 136800, Note_on_c, 0, 56, 0
1, 136800, Note_on_c, 0, 44, 0
1, 136800, Note_on_c, 0, 47, 74
1, 136800, Note_on_c, 0, 59, 88
1, 136834, Control_c, 0, 64, 0
1, 136880, Tempo, 348837
1, 136920, Note_on_c, 0, 59, 0
1, 136920, Note_on_c, 0, 47, 0
1, 136960, Tempo, 347826
1, 137040, Tempo, 346821
1, 137040, Note_on_c, 0, 45, 74
1, 137040, Note_on_c, 0, 57, 88
1, 137120, Tempo, 345821
1, 137160, Note_on_c, 0, 57, 0
1, 137160, Note_on_c, 0, 45, 0
1, 137200, Tempo, 344828
1, 137280, Tempo, 343840
1, 137280, Note_on_c, 0, 44, 74
1, 137280, Note_on_c, 0, 56, 88
1, 137320, Tempo, 342857
1, 137400, Tempo, 341880
1, 137400, Note_on_c, 0, 56, 0
1, 137400, Note_on_c, 0, 44, 0
1, 137480, Tempo, 340909
1, 137520, Note_on_c, 0, 42, 73
1, 137520, Note_on_c, 0, 54, 87
1, 137560, Tempo, 339943
1, 137640, Tempo, 338983
1, 137640, Note_on_c, 0, 54, 0
1, 137640, Note_on_c, 0, 42, 0
1, 137680, Tempo, 338028
1, 137720, Tempo, 338028
1, 137760, Time_signature, 5, 3, 12, 8
1, 137760, Tempo, 336134
1, 137760, Note_on_c, 0, 40, 73
1, 137760, Note_on_c, 0, 52, 87
1, 137840, Tempo, 337079
1, 137880, Note_on_c, 0, 52, 0
1, 137880, Note_on_c, 0, 40, 0
1, 137920, Tempo, 338028
1, 137960, Tempo, 338983
1, 138000, Note_on_c, 0, 39, 73
1, 138000, Note_on_c, 0, 51, 87
1, 138040, Tempo, 339943
1, 138080, Tempo, 340909
1, 138120, Note_on_c, 0, 51, 0
1, 138120, Note_on_c, 0, 39, 0
1, 138160, Tempo, 341880
1, 138240, Tempo, 342857
1, 138240, Note_on_c, 0, 37, 73
1, 138240, Note_on_c, 0, 49, 86
1, 138280, Tempo, 343840
1, 138360, Tempo, 344828
1, 138360, Note_on_c, 0, 49, 0
1, 138360, Note_on_c, 0, 37, 0
1, 138400, Tempo, 345821
1, 138440, Tempo, 353982
1, 138480, Tempo, 363636
1, 138480, Note_on_c, 0, 36, 73
1, 138480, Note_on_c, 0, 48, 86
1, 138520, Tempo, 373832
1, 138560, Tempo, 383387
1, 138600, Tempo, 394737
1, 138600, Note_on_c, 0, 48, 0
1, 138600, Note_on_c, 0, 36, 0
1, 138640, Tempo, 406780
1, 138660, Tempo, 409556
1, 138680, Tempo, 419580
1, 138700, Tempo, 430108
1, 138720, Tempo, 441176
1, 138720, Note_on_c, 0, 39, 73
1, 138720, Note_on_c, 0, 51, 86
1, 138740, Tempo, 452830
1, 138760, Tempo, 465116
1, 138780, Tempo, 478088
1, 138800, Tempo, 491803
1, 138820, Tempo, 506329
1, 138840, Tempo, 521739
1, 138840, Note_on_c, 0, 51, 0
1, 138840, Note_on_c, 0, 39, 0
1, 138860, Tempo, 538117
1, 138880, Tempo, 555556
1, 138900, Tempo, 574163
1, 138920, Tempo, 594059
1, 138940, Tempo, 618557
1, 138960, Time_signature, 8, 2, 24, 8
1, 138960, Tempo, 430108
1, 138960, Note_on_c, 0, 33, 86
1, 138960, Note_on_c, 0, 45, 102
1, 139920, Note_on_c, 0, 45, 0
1, 139920, Note_on_c, 0, 33, 0
1, 139920, Note_on_c, 0, 32, 78
1, 139920, Note_on_c, 0, 44, 92
1, 139960, Tempo, 416667
1, 140400, Note_on_c, 0, 44, 0
1, 140400, Note_on_c, 0, 32, 0
1, 140400, Note_on_c, 0, 31, 82
1, 140400, Note_on_c, 0, 43, 97
1, 140880, Note_on_c, 0, 43, 0
1, 140880, Note_on_c, 0, 31, 0
1, 140880, Note_on_c, 0, 32, 82
1, 140880, Note_on_c, 0, 44, 97
1, 141360, Tempo, 406780
1, 141360, Note_on_c, 0, 44, 0
1, 141360, Note_on_c, 0, 32, 0
1, 141360, Note_on_c, 0, 27, 83
1, 141360, Note_on_c, 0, 39, 98
1, 141840, Tempo, 397351
1, 141840, Note_on_c, 0, 39, 0
1, 141840, Note_on_c, 0, 27, 0
1, 141840, Note_on_c, 0, 30, 79
1, 141840, Note_on_c, 0, 42, 94
1, 142560, Tempo, 461538
1, 142560, Note_on_c, 0, 42, 0
1, 142560, Note_on_c, 0, 30, 0
1, 142560, Note_on_c, 0, 28, 76
1, 142560, Note_on_c, 0, 40, 90
1, 142800, Time_signature, 4, 2, 24, 8
1, 142800, Tempo, 1111111
1, 142800, Note_on_c, 0, 40, 0
1, 142800, Note_on_c, 0, 28, 0
1, 142800, Text_t, "bdca426d104a26ac9dcb070447587523"
1, 142800, Control_c, 0, 91, 127
1, 142800, Note_on_c, 0, 37, 102
1, 142885, Control_c, 0, 64, 127
1, 142960, Tempo, 1000000
1, 142960, Note_on_c, 0, 37, 0
1, 142960, Note_on_c, 0, 44, 38
1, 143120, Note_on_c, 0, 44, 0
1, 143120, Note_on_c, 0, 56, 39
1, 143280, Tempo, 993213
1, 143280, Note_on_c, 0, 56, 0
1, 143280, Note_on_c, 0, 49, 41
1, 143440, Note_on_c, 0, 49, 0
1, 143440, Note_on_c, 0, 44, 43
1, 143600, Note_on_c, 0, 44, 0
1, 143600, Note_on_c, 0, 37, 45
1, 143760, Tempo, 952381
1, 143760, Note_on_c, 0, 37, 0
1, 143760, Note_on_c, 0, 44, 47
1, 143920, Note_on_c, 0, 44, 0
1, 143920, Note_on_c, 0, 49, 46
1, 144080, Note_on_c, 0, 49, 0
1, 144080, Note_on_c, 0, 56, 44
1, 144200, Tempo, 944882
1, 144240, Note_on_c, 0, 56, 0
1, 144240, Note_on_c, 0, 49, 43
1, 144320, Tempo, 952381
1, 144400, Note_on_c, 0, 49, 0
1, 144400, Note_on_c, 0, 44, 42
1, 144440, Tempo, 960000
1, 144560, Tempo, 967742
1, 144560, Note_on_c, 0, 44, 0
1, 144560, Note_on_c, 0, 37, 40
1, 144720, Tempo, 974817
1, 144720, Note_on_c, 0, 37, 0
1, 144720, Note_on_c, 0, 44, 42
1, 144880, Note_on_c, 0, 44, 0
1, 144880, Note_on_c, 0, 49, 40
1, 145040, Note_on_c, 0, 49, 0
1, 145040, Note_on_c, 0, 56, 38
1, 145120, Tempo, 980873
1, 145200, Note_on_c, 0, 56, 0
1, 145200, Note_on_c, 0, 49, 36
1, 145360, Note_on_c, 0, 49, 0
1, 145360, Note_on_c, 0, 44, 34
1, 145520, Tempo, 987004
1, 145520, Note_on_c, 0, 44, 0
1, 145520, Note_on_c, 0, 37, 31
1, 145680, Tempo, 952381
1, 145680, Note_on_c, 0, 37, 0
1, 145680, Note_on_c, 0, 44, 30
1, 145840, Note_on_c, 0, 44, 0
1, 145840, Note_on_c, 0, 49, 29
1, 146000, Note_on_c, 0, 49, 0
1, 146000, Note_on_c, 0, 56, 28
1, 146160, Tempo, 983607
1, 146160, Note_on_c, 0, 56, 0
1, 146160, Note_on_c, 0, 49, 27
1, 146200, Tempo, 1000000
1, 146240, Tempo, 1025641
1, 146280, Tempo, 1043478
1, 146320, Tempo, 1071429
1, 146320, Note_on_c, 0, 49, 0
1, 146320, Note_on_c, 0, 44, 26
1, 146360, Tempo, 1100917
1, 146400, Tempo, 1121495
1, 146440, Tempo, 1153846
1, 146480, Tempo, 1188119
1, 146480, Note_on_c, 0, 44, 0
1, 146480, Note_on_c, 0, 37, 25
1, 146620, Tempo, 1153846
1, 146640, Note_on_c, 0, 37, 0
1, 146640, Note_on_c, 0, 76, 52
1, 146640, Note_on_c, 0, 44, 26
1, 146654, Control_c, 0, 64, 0
1, 146660, Tempo, 1121495
1, 146700, Tempo, 1090909
1, 146740, Tempo, 1061947
1, 146746, Control_c, 0, 64, 127
1, 146780, Tempo, 1034483
1, 146800, Note_on_c, 0, 44, 0
1, 146800, Note_on_c, 0, 49, 25
1, 146820, Tempo, 1000000
1, 146960, Note_on_c, 0, 49, 0
1, 146960, Note_on_c, 0, 56, 26
1, 147120, Tempo, 983607
1, 147120, Note_on_c, 0, 56, 0
1, 147120, Note_on_c, 0, 49, 27
1, 147240, Tempo, 975610
1, 147280, Note_on_c, 0, 49, 0
1, 147280, Note_on_c, 0, 44, 28
1, 147320, Tempo, 967742
1, 147440, Tempo, 960000
1, 147440, Note_on_c, 0, 44, 0
1, 147440, Note_on_c, 0, 37, 29
1, 147520, Tempo, 952381
1, 147600, Tempo, 952381
1, 147600, Note_on_c, 0, 37, 0
1, 147600, Note_on_c, 0, 76, 0
1, 147600, Note_on_c, 0, 77, 51
1, 147600, Note_on_c, 0, 44, 28
1, 147615, Control_c, 0, 64, 0
1, 147678, Control_c, 0, 64, 127
1, 147760, Note_on_c, 0, 44, 0
1, 147760, Note_on_c, 0, 49, 29
1, 147920, Note_on_c, 0, 49, 0
1, 147920, Note_on_c, 0, 59, 30
1, 148080, Tempo, 960000
1, 148080, Note_on_c, 0, 59, 0
1, 148080, Note_on_c, 0, 77, 0
1, 148080, Note_on_c, 0, 77, 54
1, 148080, Note_on_c, 0, 49, 30
1, 148160, Tempo, 967742
1, 148240, Tempo, 975610
1, 148240, Note_on_c, 0, 49, 0
1, 148240, Note_on_c, 0, 44, 31
1, 148320, Tempo, 983607
1, 148360, Tempo, 991736
1, 148400, Note_on_c, 0, 44, 0
1, 148400, Note_on_c, 0, 37, 32
1, 148560, Tempo, 983607
1, 148560, Note_on_c, 0, 37, 0
1, 148560, Note_on_c, 0, 77, 0
1, 148560, Note_on_c, 0, 77, 56
1, 148560, Note_on_c, 0, 44, 33
1, 148574, Control_c, 0, 64, 0
1, 148624, Control_c, 0, 64, 127
1, 148720, Note_on_c, 0, 44, 0
1, 148720, Note_on_c, 0, 49, 31
1, 148800, Tempo, 975610
1, 148880, Note_on_c, 0, 49, 0
1, 148880, Note_on_c, 0, 59, 30
1, 149040, Tempo, 960000
1, 149040, Note_on_c, 0, 59, 0
1, 149040, Note_on_c, 0, 49, 30
1, 149200, Note_on_c, 0, 49, 0
1, 149200, Note_on_c, 0, 44, 29
1, 149360, Note_on_c, 0, 44, 0
1, 149360, Note_on_c, 0, 37, 28
1, 149520, Tempo, 960000
1, 149520, Note_on_c, 0, 37, 0
1, 149520, Note_on_c, 0, 77, 0
1, 149520, Note_on_c, 0, 78, 55
1, 149520, Note_on_c, 0, 45, 28
1, 149529, Control_c, 0, 64, 0
1, 149605, Control_c, 0, 64, 127
1, 149680, Note_on_c, 0, 45, 0
1, 149680, Note_on_c, 0, 49, 28
1, 149840, Note_on_c, 0, 49, 0
1, 149840, Note_on_c, 0, 57, 28
1, 150000, Tempo, 975610
1, 150000, Note_on_c, 0, 57, 0
1, 150000, Note_on_c, 0, 49, 28
1, 150160, Note_on_c, 0, 49, 0
1, 150160, Note_on_c, 0, 45, 28
1, 150320, Note_on_c, 0, 45, 0
1, 150320, Note_on_c, 0, 37, 28
1, 150480, Tempo, 1025816
1, 150480, Note_on_c, 0, 37, 0
1, 150480, Note_on_c, 0, 45, 32
1, 150491, Control_c, 0, 64, 0
1, 150537, Control_c, 0, 64, 127
1, 150640, Note_on_c, 0, 45, 0
1, 150640, Note_on_c, 0, 50, 29
1, 150800, Note_on_c, 0, 50, 0
1, 150800, Note_on_c, 0, 57, 29
1, 150960, Tempo, 987004
1, 150960, Note_on_c, 0, 57, 0
1, 150960, Note_on_c, 0, 78, 0
1, 150960, Note_on_c, 0, 76, 55
1, 150960, Note_on_c, 0, 50, 28
1, 151120, Note_on_c, 0, 50, 0
1, 151120, Note_on_c, 0, 45, 27
1, 151280, Note_on_c, 0, 45, 0
1, 151280, Note_on_c, 0, 37, 26
1, 151320, Note_on_c, 0, 76, 0
1, 151320, Note_on_c, 0, 74, 51
1, 151440, Note_on_c, 0, 74, 0
1, 151440, Note_on_c, 0, 37, 0
1, 151440, Note_on_c, 0, 73, 51
1, 151440, Note_on_c, 0, 45, 25
1, 151451, Control_c, 0, 64, 0
1, 151480, Tempo, 1006036
1, 151497, Control_c, 0, 64, 127
1, 151600, Note_on_c, 0, 45, 0
1, 151600, Note_on_c, 0, 50, 24
1, 151760, Note_on_c, 0, 50, 0
1, 151760, Note_on_c, 0, 57, 24
1, 151920, Tempo, 1034483
1, 151920, Note_on_c, 0, 57, 0
1, 151920, Note_on_c, 0, 73, 0
1, 151920, Note_on_c, 0, 72, 51
1, 151920, Note_on_c, 0, 50, 24
1, 151960, Tempo, 1043478
1, 152000, Tempo, 1052632
1, 152020, Tempo, 1052632
1, 152060, Tempo, 1071429
1, 152080, Note_on_c, 0, 50, 0
1, 152080, Note_on_c, 0, 45, 24
1, 152100, Tempo, 1090909
1, 152140, Tempo, 1121495
1, 152180, Tempo, 1142857
1, 152220, Tempo, 1165049
1, 152240, Note_on_c, 0, 45, 0
1, 152240, Note_on_c, 0, 37, 24
1, 152260, Tempo, 1200000
1, 152300, Tempo, 1224490
1, 152340, Tempo, 1250000
1, 152380, Tempo, 1290323
1, 152400, Note_on_c, 0, 37, 0
1, 152400, Note_on_c, 0, 72, 0
1, 152400, Note_on_c, 0, 73, 54
1, 152400, Note_on_c, 0, 44, 26
1, 152415, Control_c, 0, 64, 0
1, 152420, Tempo, 1224490
1, 152460, Tempo, 1165049
1, 152467, Control_c, 0, 64, 127
1, 152500, Tempo, 1100917
1, 152540, Tempo, 1052632
1, 152560, Note_on_c, 0, 44, 0
1, 152560, Note_on_c, 0, 52, 24
1, 152580, Tempo, 1000000
1, 152720, Note_on_c, 0, 52, 0
1, 152720, Note_on_c, 0, 61, 23
1, 152880, Tempo, 999667
1, 152880, Note_on_c, 0, 61, 0
1, 152880, Note_on_c, 0, 73, 0
1, 152880, Note_on_c, 0, 80, 60
1, 152880, Note_on_c, 0, 52, 23
1, 153040, Note_on_c, 0, 52, 0
1, 153040, Note_on_c, 0, 44, 23
1, 153200, Note_on_c, 0, 44, 0
1, 153200, Note_on_c, 0, 37, 23
1, 153240, Tempo, 1100917
1, 153240, Note_on_c, 0, 69, 36
1, 153300, Tempo, 1111111
1, 153340, Tempo, 1071429
1, 153360, Note_on_c, 0, 69, 0
1, 153360, Note_on_c, 0, 37, 0
1, 153360, Note_on_c, 0, 69, 41
1, 153360, Note_on_c, 0, 35, 26
1, 153375, Control_c, 0, 64, 0
1, 153409, Control_c, 0, 64, 127
1, 153420, Tempo, 1081081
1, 153440, Note_on_c, 0, 69, 0
1, 153456, Note_on_c, 0, 71, 39
1, 153460, Tempo, 1090909
1, 153500, Tempo, 1100917
1, 153520, Note_on_c, 0, 35, 0
1, 153520, Note_on_c, 0, 47, 24
1, 153536, Note_on_c, 0, 71, 0
1, 153552, Note_on_c, 0, 69, 39
1, 153580, Tempo, 1111111
1, 153620, Tempo, 1121495
1, 153632, Note_on_c, 0, 69, 0
1, 153648, Note_on_c, 0, 68, 41
1, 153660, Tempo, 1132075
1, 153680, Note_on_c, 0, 47, 0
1, 153680, Note_on_c, 0, 63, 24
1, 153728, Note_on_c, 0, 68, 0
1, 153740, Tempo, 1188119
1, 153744, Note_on_c, 0, 69, 39
1, 153820, Tempo, 1200000
1, 153824, Note_on_c, 0, 69, 0
1, 153840, Note_on_c, 0, 63, 0
1, 153840, Note_on_c, 0, 80, 0
1, 153840, Note_on_c, 0, 78, 54
1, 153840, Note_on_c, 0, 71, 40
1, 153840, Note_on_c, 0, 57, 24
1, 153860, Tempo, 1212121
1, 153900, Tempo, 1224490
1, 153940, Tempo, 1237113
1, 154000, Note_on_c, 0, 57, 0
1, 154000, Note_on_c, 0, 47, 24
1, 154020, Tempo, 1250000
1, 154060, Tempo, 1263158
1, 154100, Tempo, 1276596
1, 154140, Tempo, 1290323
1, 154160, Note_on_c, 0, 47, 0
1, 154160, Note_on_c, 0, 35, 24
1, 154180, Tempo, 1304348
1, 154200, Note_on_c, 0, 71, 0
1, 154200, Note_on_c, 0, 66, 40
1, 154260, Tempo, 1224490
1, 154300, Tempo, 1188119
1, 154320, Note_on_c, 0, 66, 0
1, 154320, Note_on_c, 0, 35, 0
1, 154320, Note_on_c, 0, 78, 0
1, 154320, Note_on_c, 0, 68, 46
1, 154320, Note_on_c, 0, 76, 54
1, 154320, Note_on_c, 0, 40, 30
1, 154334, Control_c, 0, 64, 0
1, 154340, Tempo, 1153846
1, 154380, Tempo, 1121495
1, 154420, Tempo, 1081081
1, 154426, Control_c, 0, 64, 127
1, 154460, Tempo, 1052632
1, 154480, Note_on_c, 0, 40, 0
1, 154480, Note_on_c, 0, 47, 31
1, 154500, Tempo, 1025641
1, 154540, Tempo, 991736
1, 154640, Note_on_c, 0, 47, 0
1, 154640, Note_on_c, 0, 64, 31
1, 154800, Tempo, 983607
1, 154800, Note_on_c, 0, 64, 0
1, 154800, Note_on_c, 0, 56, 32
1, 154960, Tempo, 975610
1, 154960, Note_on_c, 0, 56, 0
1, 154960, Note_on_c, 0, 47, 32
1, 155120, Tempo, 967742
1, 155120, Note_on_c, 0, 47, 0
1, 155120, Note_on_c, 0, 39, 33
1, 155240, Tempo, 960000
1, 155280, Tempo, 960000
1, 155280, Note_on_c, 0, 39, 0
1, 155280, Note_on_c, 0, 76, 0
1, 155280, Note_on_c, 0, 76, 54
1, 155280, Note_on_c, 0, 37, 34
1, 155298, Control_c, 0, 64, 0
1, 155358, Control_c, 0, 64, 127
1, 155440, Note_on_c, 0, 37, 0
1, 155440, Note_on_c, 0, 44, 34
1, 155600, Note_on_c, 0, 44, 0
1, 155600, Note_on_c, 0, 56, 35
1, 155720, Tempo, 960000
1, 155760, Note_on_c, 0, 56, 0
1, 155760, Note_on_c, 0, 76, 0
1, 155760, Note_on_c, 0, 76, 58
1, 155760, Note_on_c, 0, 49, 35
1, 155800, Tempo, 967742
1, 155880, Tempo, 975610
1, 155920, Note_on_c, 0, 49, 0
1, 155920, Note_on_c, 0, 44, 36
1, 155960, Tempo, 983607
1, 156040, Tempo, 991736
1, 156080, Note_on_c, 0, 44, 0
1, 156080, Note_on_c, 0, 37, 36
1, 156120, Tempo, 1000000
1, 156200, Tempo, 991736
1, 156240, Note_on_c, 0, 37, 0
1, 156240, Note_on_c, 0, 76, 0
1, 156240, Note_on_c, 0, 68, 0
1, 156240, Note_on_c, 0, 71, 55
1, 156240, Note_on_c, 0, 77, 62
1, 156240, Note_on_c, 0, 37, 37
1, 156254, Control_c, 0, 64, 0
1, 156280, Tempo, 991736
1, 156304, Control_c, 0, 64, 127
1, 156360, Tempo, 983607
1, 156400, Note_on_c, 0, 37, 0
1, 156400, Note_on_c, 0, 44, 37
1, 156440, Tempo, 975610
1, 156520, Tempo, 967742
1, 156560, Note_on_c, 0, 44, 0
1, 156560, Note_on_c, 0, 61, 36
1, 156600, Tempo, 960000
1, 156680, Tempo, 952381
1, 156720, Note_on_c, 0, 61, 0
1, 156720, Note_on_c, 0, 71, 0
1, 156720, Note_on_c, 0, 73, 56
1, 156720, Note_on_c, 0, 53, 35
1, 156880, Tempo, 975610
1, 156880, Note_on_c, 0, 53, 0
1, 156880, Note_on_c, 0, 44, 34
1, 157040, Tempo, 983607
1, 157040, Note_on_c, 0, 44, 0
1, 157040, Note_on_c, 0, 37, 33
1, 157080, Tempo, 1061947
1, 157080, Note_on_c, 0, 73, 0
1, 157080, Note_on_c, 0, 71, 51
1, 157200, Tempo, 975610
1, 157200, Note_on_c, 0, 71, 0
1, 157200, Note_on_c, 0, 37, 0
1, 157200, Note_on_c, 0, 77, 0
1, 157200, Note_on_c, 0, 71, 55
1, 157200, Note_on_c, 0, 78, 60
1, 157200, Note_on_c, 0, 37, 32
1, 157219, Control_c, 0, 64, 0
1, 157303, Control_c, 0, 64, 127
1, 157360, Tempo, 967742
1, 157360, Note_on_c, 0, 37, 0
1, 157360, Note_on_c, 0, 45, 31
1, 157480, Tempo, 960000
1, 157520, Note_on_c, 0, 45, 0
1, 157520, Note_on_c, 0, 61, 30
1, 157600, Tempo, 952381
1, 157680, Tempo, 952381
1, 157680, Note_on_c, 0, 61, 0
1, 157680, Note_on_c, 0, 71, 0
1, 157680, Note_on_c, 0, 69, 57
1, 157680, Note_on_c, 0, 54, 29
1, 157840, Note_on_c, 0, 54, 0
1, 157840, Note_on_c, 0, 45, 29
1, 158000, Note_on_c, 0, 45, 0
1, 158000, Note_on_c, 0, 37, 28
1, 158040, Tempo, 1043478
1, 158040, Note_on_c, 0, 69, 0
1, 158040, Note_on_c, 0, 68, 52
1, 158160, Tempo, 1025816
1, 158160, Note_on_c, 0, 68, 0
1, 158160, Note_on_c, 0, 37, 0
1, 158160, Note_on_c, 0, 66, 53
1, 158160, Note_on_c, 0, 37, 26
1, 158170, Control_c, 0, 64, 0
1, 158217, Control_c, 0, 64, 127
1, 158320, Note_on_c, 0, 37, 0
1, 158320, Note_on_c, 0, 45, 24
1, 158480, Note_on_c, 0, 45, 0
1, 158480, Note_on_c, 0, 57, 24
1, 158640, Tempo, 987004
1, 158640, Note_on_c, 0, 57, 0
1, 158640, Note_on_c, 0, 78, 0
1, 158640, Note_on_c, 0, 76, 56
1, 158640, Note_on_c, 0, 50, 24
1, 158800, Note_on_c, 0, 50, 0
1, 158800, Note_on_c, 0, 45, 24
1, 158960, Note_on_c, 0, 45, 0
1, 158960, Note_on_c, 0, 37, 24
1, 159000, Tempo, 1081081
1, 159000, Note_on_c, 0, 76, 0
1, 159000, Note_on_c, 0, 74, 55
1, 159120, Tempo, 975610
1, 159120, Note_on_c, 0, 74, 0
1, 159120, Note_on_c, 0, 37, 0
1, 159120, Note_on_c, 0, 73, 54
1, 159120, Note_on_c, 0, 37, 26
1, 159132, Control_c, 0, 64, 0
1, 159183, Control_c, 0, 64, 127
1, 159280, Note_on_c, 0, 37, 0
1, 159280, Note_on_c, 0, 45, 24
1, 159440, Note_on_c, 0, 45, 0
1, 159440, Note_on_c, 0, 57, 24
1, 159600, Tempo, 983607
1, 159600, Note_on_c, 0, 57, 0
1, 159600, Note_on_c, 0, 73, 0
1, 159600, Note_on_c, 0, 72, 52
1, 159600, Note_on_c, 0, 50, 24
1, 159760, Note_on_c, 0, 50, 0
1, 159760, Note_on_c, 0, 45, 24
1, 159920, Note_on_c, 0, 45, 0
1, 159920, Note_on_c, 0, 37, 24
1, 160080, Tempo, 1000000
1, 160080, Note_on_c, 0, 37, 0
1, 160080, Note_on_c, 0, 66, 0
1, 160080, Note_on_c, 0, 66, 60
1, 160080, Note_on_c, 0, 37, 31
1, 160097, Control_c, 0, 64, 0
1, 160177, Control_c, 0, 64, 127
1, 160240, Note_on_c, 0, 37, 0
1, 160240, Note_on_c, 0, 45, 26
1, 160400, Note_on_c, 0, 45, 0
1, 160400, Note_on_c, 0, 57, 28
1, 160560, Tempo, 1016949
1, 160560, Note_on_c, 0, 57, 0
1, 160560, Note_on_c, 0, 66, 0
1, 160560, Note_on_c, 0, 64, 58
1, 160560, Note_on_c, 0, 50, 32
1, 160720, Note_on_c, 0, 50, 0
1, 160720, Note_on_c, 0, 45, 27
1, 160880, Note_on_c, 0, 45, 0
1, 160880, Note_on_c, 0, 37, 27
1, 160920, Tempo, 1081081
1, 160920, Note_on_c, 0, 64, 0
1, 160920, Note_on_c, 0, 62, 47
1, 161040, Tempo, 1019022
1, 161040, Note_on_c, 0, 62, 0
1, 161040, Note_on_c, 0, 37, 0
1, 161040, Note_on_c, 0, 72, 0
1, 161040, Note_on_c, 0, 61, 57
1, 161040, Note_on_c, 0, 37, 31
1, 161055, Control_c, 0, 64, 0
1, 161131, Control_c, 0, 64, 127
1, 161200, Note_on_c, 0, 37, 0
1, 161200, Note_on_c, 0, 45, 28
1, 161360, Note_on_c, 0, 45, 0
1, 161360, Note_on_c, 0, 57, 28
1, 161520, Tempo, 1060445
1, 161520, Note_on_c, 0, 57, 0
1, 161520, Note_on_c, 0, 61, 0
1, 161520, Note_on_c, 0, 60, 56
1, 161520, Note_on_c, 0, 50, 28
1, 161600, Tempo, 1067616
1, 161680, Tempo, 1074884
1, 161680, Note_on_c, 0, 50, 0
1, 161680, Note_on_c, 0, 45, 28
1, 161760, Tempo, 1081081
1, 161800, Tempo, 1090909
1, 161820, Tempo, 1100917
1, 161840, Tempo, 1111111
1, 161840, Note_on_c, 0, 45, 0
1, 161840, Note_on_c, 0, 37, 28
1, 161860, Tempo, 1121495
1, 161880, Tempo, 1132075
1, 161900, Tempo, 1142857
1, 161920, Tempo, 1153846
1, 161940, Tempo, 1165049
1, 161960, Tempo, 1176471
1, 161980, Tempo, 1188119
1, 162000, Tempo, 1176471
1, 162000, Note_on_c, 0, 37, 0
1, 162000, Note_on_c, 0, 60, 0
1, 162000, Note_on_c, 0, 61, 61
1, 162000, Note_on_c, 0, 37, 35
1, 162017, Control_c, 0, 64, 0
1, 162040, Tempo, 1165049
1, 162056, Control_c, 0, 64, 127
1, 162080, Tempo, 1153846
1, 162120, Tempo, 1142857
1, 162160, Tempo, 1132075
1, 162160, Note_on_c, 0, 37, 0
1, 162160, Note_on_c, 0, 44, 25
1, 162200, Tempo, 1121495
1, 162240, Tempo, 1111111
1, 162280, Tempo, 1100917
1, 162320, Tempo, 1090909
1, 162320, Note_on_c, 0, 44, 0
1, 162320, Note_on_c, 0, 61, 30
1, 162360, Tempo, 1081081
1, 162400, Tempo, 1071429
1, 162440, Tempo, 1061947
1, 162480, Tempo, 1052632
1, 162480, Note_on_c, 0, 61, 0
1, 162480, Note_on_c, 0, 61, 0
1, 162480, Note_on_c, 0, 73, 45
1, 162480, Note_on_c, 0, 77, 54
1, 162480, Note_on_c, 0, 53, 27
1, 162640, Note_on_c, 0, 53, 0
1, 162640, Note_on_c, 0, 44, 27
1, 162800, Note_on_c, 0, 44, 0
1, 162800, Note_on_c, 0, 37, 27
1, 162960, Note_on_c, 0, 37, 0
1, 162960, Note_on_c, 0, 77, 0
1, 162960, Note_on_c, 0, 73, 0
1, 162960, Note_on_c, 0, 66, 40
1, 162960, Note_on_c, 0, 70, 48
1, 162960, Note_on_c, 0, 37, 31
1, 162976, Control_c, 0, 64, 0
1, 163024, Control_c, 0, 64, 127
1, 163120, Note_on_c, 0, 37, 0
1, 163120, Note_on_c, 0, 44, 28
1, 163280, Note_on_c, 0, 44, 0
1, 163280, Note_on_c, 0, 60, 32
1, 163440, Tempo, 1016949
1, 163440, Note_on_c, 0, 60, 0
1, 163440, Note_on_c, 0, 70, 0
1, 163440, Note_on_c, 0, 66, 0
1, 163440, Note_on_c, 0, 72, 54
1, 163440, Note_on_c, 0, 75, 54
1, 163440, Note_on_c, 0, 51, 28
1, 163600, Note_on_c, 0, 51, 0
1, 163600, Note_on_c, 0, 44, 27
1, 163760, Note_on_c, 0, 44, 0
1, 163760, Note_on_c, 0, 37, 27
1, 163800, Tempo, 1132075
1, 163800, Note_on_c, 0, 72, 0
1, 163800, Note_on_c, 0, 70, 47
1, 163920, Tempo, 1081081
1, 163920, Note_on_c, 0, 70, 0
1, 163920, Note_on_c, 0, 37, 0
1, 163920, Note_on_c, 0, 75, 0
1, 163920, Note_on_c, 0, 65, 42
1, 163920, Note_on_c, 0, 68, 50
1, 163920, Note_on_c, 0, 37, 37
1, 163939, Control_c, 0, 64, 0
1, 163976, Control_c, 0, 64, 127
1, 164040, Tempo, 1071429
1, 164080, Note_on_c, 0, 37, 0
1, 164080, Note_on_c, 0, 44, 26
1, 164120, Tempo, 1061947
1, 164240, Tempo, 1052632
1, 164240, Note_on_c, 0, 44, 0
1, 164240, Note_on_c, 0, 58, 34
1, 164320, Tempo, 1043478
1, 164400, Tempo, 1034483
1, 164400, Note_on_c, 0, 58, 0
1, 164400, Note_on_c, 0, 68, 0
1, 164400, Note_on_c, 0, 65, 0
1, 164400, Note_on_c, 0, 70, 43
1, 164400, Note_on_c, 0, 73, 51
1, 164400, Note_on_c, 0, 49, 26
1, 164560, Note_on_c, 0, 49, 0
1, 164560, Note_on_c, 0, 44, 26
1, 164720, Note_on_c, 0, 44, 0
1, 164720, Note_on_c, 0, 37, 26
1, 164880, Note_on_c, 0, 37, 0
1, 164880, Note_on_c, 0, 73, 0
1, 164880, Note_on_c, 0, 70, 0
1, 164880, Note_on_c, 0, 63, 40
1, 164880, Note_on_c, 0, 66, 48
1, 164880, Note_on_c, 0, 37, 29
1, 164896, Control_c, 0, 64, 0
1, 164956, Control_c, 0, 64, 127
1, 165040, Note_on_c, 0, 37, 0
1, 165040, Note_on_c, 0, 44, 26
1, 165200, Note_on_c, 0, 44, 0
1, 165200, Note_on_c, 0, 56, 33
1, 165360, Tempo, 1008403
1, 165360, Note_on_c, 0, 56, 0
1, 165360, Note_on_c, 0, 66, 0
1, 165360, Note_on_c, 0, 63, 0
1, 165360, Note_on_c, 0, 68, 42
1, 165360, Note_on_c, 0, 72, 50
1, 165360, Note_on_c, 0, 48, 26
1, 165520, Note_on_c, 0, 48, 0
1, 165520, Note_on_c, 0, 44, 26
1, 165680, Note_on_c, 0, 44, 0
1, 165680, Note_on_c, 0, 37, 26
1, 165720, Tempo, 1318681
1, 165720, Note_on_c, 0, 72, 0
1, 165720, Note_on_c, 0, 68, 0
1, 165720, Note_on_c, 0, 66, 35
1, 165720, Note_on_c, 0, 70, 42
1, 165840, Tempo, 1121495
1, 165840, Note_on_c, 0, 70, 0
1, 165840, Note_on_c, 0, 66, 0
1, 165840, Note_on_c, 0, 37, 0
1, 165840, Note_on_c, 0, 65, 40
1, 165840, Note_on_c, 0, 68, 47
1, 165840, Note_on_c, 0, 37, 35
1, 165858, Control_c, 0, 64, 0
1, 165896, Control_c, 0, 64, 127
1, 166000, Note_on_c, 0, 37, 0
1, 166000, Note_on_c, 0, 44, 25
1, 166160, Note_on_c, 0, 44, 0
1, 166160, Note_on_c, 0, 61, 30
1, 166290, Tempo, 1090909
1, 166320, Tempo, 1224490
1, 166320, Note_on_c, 0, 61, 0
1, 166320, Note_on_c, 0, 73, 40
1, 166320, Note_on_c, 0, 77, 47
1, 166320, Note_on_c, 0, 53, 25
1, 166480, Tempo, 1090909
1, 166480, Note_on_c, 0, 53, 0
1, 166480, Note_on_c, 0, 44, 25
1, 166640, Note_on_c, 0, 44, 0
1, 166640, Note_on_c, 0, 37, 25
1, 166800, Note_on_c, 0, 37, 0
1, 166800, Note_on_c, 0, 65, 0
1, 166800, Note_on_c, 0, 68, 0
1, 166800, Note_on_c, 0, 66, 36
1, 166800, Note_on_c, 0, 70, 44
1, 166800, Note_on_c, 0, 37, 28
1, 166816, Control_c, 0, 64, 0
1, 166897, Control_c, 0, 64, 127
1, 166960, Note_on_c, 0, 37, 0
1, 166960, Note_on_c, 0, 44, 25
1, 167120, Note_on_c, 0, 44, 0
1, 167120, Note_on_c, 0, 60, 31
1, 167280, Tempo, 1121495
1, 167280, Note_on_c, 0, 60, 0
1, 167280, Note_on_c, 0, 77, 0
1, 167280, Note_on_c, 0, 73, 0
1, 167280, Note_on_c, 0, 72, 38
1, 167280, Note_on_c, 0, 75, 45
1, 167280, Note_on_c, 0, 51, 25
1, 167360, Tempo, 1132075
1, 167400, Tempo, 1142857
1, 167440, Tempo, 1153846
1, 167440, Note_on_c, 0, 51, 0
1, 167440, Note_on_c, 0, 44, 25
1, 167480, Tempo, 1165049
1, 167560, Tempo, 1176471
1, 167600, Tempo, 1188119
1, 167600, Note_on_c, 0, 44, 0
1, 167600, Note_on_c, 0, 37, 25
1, 167640, Tempo, 1200000
1, 167680, Tempo, 1212121
1, 167720, Tempo, 1224490
1, 167760, Tempo, 1200000
1, 167760, Note_on_c, 0, 37, 0
1, 167760, Note_on_c, 0, 70, 0
1, 167760, Note_on_c, 0, 66, 0
1, 167760, Note_on_c, 0, 65, 36
1, 167760, Note_on_c, 0, 68, 43
1, 167760, Note_on_c, 0, 37, 33
1, 167781, Control_c, 0, 64, 0
1, 167863, Control_c, 0, 64, 127
1, 167920, Note_on_c, 0, 37, 0
1, 167920, Note_on_c, 0, 44, 24
1, 168080, Note_on_c, 0, 44, 0
1, 168080, Note_on_c, 0, 58, 29
1, 168240, Tempo, 1138736
1, 168240, Note_on_c, 0, 58, 0
1, 168240, Note_on_c, 0, 75, 0
1, 168240, Note_on_c, 0, 72, 0
1, 168240, Note_on_c, 0, 70, 37
1, 168240, Note_on_c, 0, 73, 45
1, 168240, Note_on_c, 0, 49, 23
1, 168400, Note_on_c, 0, 49, 0
1, 168400, Note_on_c, 0, 44, 23
1, 168560, Note_on_c, 0, 44, 0
1, 168560, Note_on_c, 0, 37, 23
1, 168720, Note_on_c, 0, 37, 0
1, 168720, Note_on_c, 0, 68, 0
1, 168720, Note_on_c, 0, 65, 0
1, 168720, Note_on_c, 0, 66, 42
1, 168720, Note_on_c, 0, 63, 35
1, 168720, Note_on_c, 0, 37, 26
1, 168736, Control_c, 0, 64, 0
1, 168793, Control_c, 0, 64, 127
1, 168880, Note_on_c, 0, 37, 0
1, 168880, Note_on_c, 0, 44, 24
1, 169040, Note_on_c, 0, 44, 0
1, 169040, Note_on_c, 0, 56, 28
1, 169200, Tempo, 1180870
1, 169200, Note_on_c, 0, 56, 0
1, 169200, Note_on_c, 0, 73, 0
1, 169200, Note_on_c, 0, 66, 0
1, 169200, Note_on_c, 0, 70, 0
1, 169200, Note_on_c, 0, 68, 36
1, 169200, Note_on_c, 0, 72, 43
1, 169200, Note_on_c, 0, 48, 23
1, 169360, Note_on_c, 0, 48, 0
1, 169360, Note_on_c, 0, 44, 23
1, 169520, Note_on_c, 0, 44, 0
1, 169520, Note_on_c, 0, 37, 23
1, 169560, Tempo, 1417100
1, 169560, Note_on_c, 0, 72, 0
1, 169560, Note_on_c, 0, 68, 0
1, 169560, Note_on_c, 0, 66, 34
1, 169560, Note_on_c, 0, 70, 40
1, 169680, Tempo, 1428571
1, 169680, Note_on_c, 0, 70, 0
1, 169680, Note_on_c, 0, 37, 0
1, 169680, Note_on_c, 0, 63, 0
1, 169680, Note_on_c, 0, 66, 0
1, 169680, Note_on_c, 0, 65, 35
1, 169680, Note_on_c, 0, 68, 42
1, 169680, Note_on_c, 0, 37, 31
1, 169698, Control_c, 0, 64, 0
1, 169772, Control_c, 0, 64, 127
1, 169840, Tempo, 1237113
1, 169840, Note_on_c, 0, 37, 0
1, 169840, Note_on_c, 0, 44, 22
1, 170000, Note_on_c, 0, 44, 0
1, 170000, Note_on_c, 0, 56, 27
1, 170160, Note_on_c, 0, 56, 0
1, 170160, Note_on_c, 0, 49, 22
1, 170320, Note_on_c, 0, 49, 0
1, 170320, Note_on_c, 0, 44, 22
1, 170480, Note_on_c, 0, 44, 0
1, 170480, Note_on_c, 0, 37, 22
1, 170600, Tempo, 1226242
1, 170640, Tempo, 1379310
1, 170640, Note_on_c, 0, 37, 0
1, 170640, Note_on_c, 0, 44, 31
1, 170680, Tempo, 1333333
1, 170720, Tempo, 1290323
1, 170760, Tempo, 1250000
1, 170800, Tempo, 1288383
1, 170800, Note_on_c, 0, 44, 0
1, 170800, Note_on_c, 0, 49, 26
1, 170840, Tempo, 1301518
1, 170880, Tempo, 1314924
1, 170920, Tempo, 1328609
1, 170960, Tempo, 1342582
1, 170960, Note_on_c, 0, 49, 0
1, 170960, Note_on_c, 0, 56, 28
1, 171000, Tempo, 1356852
1, 171040, Tempo, 1371429
1, 171080, Tempo, 1386322
1, 171120, Tempo, 1401542
1, 171120, Note_on_c, 0, 56, 0
1, 171120, Note_on_c, 0, 49, 30
1, 171160, Tempo, 1417100
1, 171200, Tempo, 1433007
1, 171240, Tempo, 1449275
1, 171280, Tempo, 1465917
1, 171280, Note_on_c, 0, 49, 0
1, 171280, Note_on_c, 0, 44, 32
1, 171320, Tempo, 1482946
1, 171360, Tempo, 1500375
1, 171400, Tempo, 1518219
1, 171440, Note_on_c, 0, 44, 0
1, 171440, Note_on_c, 0, 37, 35
1, 171600, Tempo, 1791045
1, 171600, Note_on_c, 0, 37, 0
1, 171600, Note_on_c, 0, 68, 0
1, 171600, Note_on_c, 0, 65, 0
1, 171600, Note_on_c, 0, 61, 50
1, 171600, Note_on_c, 0, 68, 50
1, 171600, Note_on_c, 0, 70, 59
1, 171600, Note_on_c, 0, 42, 42
1, 171617, Control_c, 0, 64, 0
1, 171706, Control_c, 0, 64, 127
1, 171760, Tempo, 1463415
1, 171760, Note_on_c, 0, 42, 0
1, 171760, Note_on_c, 0, 49, 30
1, 171920, Tempo, 1518987
1, 171920, Note_on_c, 0, 49, 0
1, 171920, Note_on_c, 0, 61, 31
1, 172080, Note_on_c, 0, 61, 0
1, 172080, Note_on_c, 0, 54, 33
1, 172240, Tempo, 1445783
1, 172240, Note_on_c, 0, 54, 0
1, 172240, Note_on_c, 0, 49, 35
1, 172360, Tempo, 1666667
1, 172400, Note_on_c, 0, 49, 0
1, 172400, Note_on_c, 0, 42, 36
1, 172560, Tempo, 1764706
1, 172560, Note_on_c, 0, 42, 0
1, 172560, Note_on_c, 0, 70, 0
1, 172560, Note_on_c, 0, 68, 0
1, 172560, Note_on_c, 0, 61, 0
1, 172560, Note_on_c, 0, 61, 56
1, 172560, Note_on_c, 0, 66, 56
1, 172560, Note_on_c, 0, 70, 66
1, 172560, Note_on_c, 0, 30, 44
1, 172577, Control_c, 0, 64, 0
1, 172673, Control_c, 0, 64, 127
1, 172720, Tempo, 1578947
1, 172720, Note_on_c, 0, 30, 0
1, 172720, Note_on_c, 0, 49, 37
1, 172880, Tempo, 1690141
1, 172880, Note_on_c, 0, 49, 0
1, 172880, Note_on_c, 0, 61, 37
1, 173040, Tempo, 2000000
1, 173040, Note_on_c, 0, 61, 0
1, 173040, Note_on_c, 0, 54, 37
1, 173200, Note_on_c, 0, 54, 0
1, 173200, Note_on_c, 0, 49, 37
1, 173280, Tempo, 3000000
1, 173360, Note_on_c, 0, 49, 0
1, 173360, Note_on_c, 0, 42, 37
1, 173520, Tempo, 2727273
1, 173520, Note_on_c, 0, 42, 0
1, 173520, Note_on_c, 0, 70, 0
1, 173520, Note_on_c, 0, 66, 0
1, 173520, Note_on_c, 0, 61, 0
1, 173520, Note_on_c, 0, 66, 56
1, 173520, Note_on_c, 0, 68, 56
1, 173520, Note_on_c, 0, 73, 66
1, 173520, Note_on_c, 0, 25, 55
1, 173537, Control_c, 0, 64, 0
1, 173566, Control_c, 0, 64, 127
1, 173600, Note_on_c, 0, 25, 0
1, 173680, Tempo, 2068966
1, 173680, Note_on_c, 0, 37, 44
1, 173760, Note_on_c, 0, 37, 0
1, 173840, Note_on_c, 0, 44, 46
1, 173920, Note_on_c, 0, 44, 0
1, 174000, Tempo, 2000000
1, 174000, Note_on_c, 0, 49, 48
1, 174040, Tempo, 2033898
1, 174060, Tempo, 2068966
1, 174080, Tempo, 2105263
1, 174080, Note_on_c, 0, 49, 0
1, 174100, Tempo, 2142857
1, 174120, Tempo, 2181818
1, 174140, Tempo, 2222222
1, 174160, Tempo, 2264151
1, 174160, Note_on_c, 0, 56, 50
1, 174180, Tempo, 2307692
1, 174200, Tempo, 2352941
1, 174220, Tempo, 2400000
1, 174240, Tempo, 2448980
1, 174240, Note_on_c, 0, 56, 0
1, 174260, Tempo, 2500000
1, 174280, Tempo, 2553191
1, 174300, Tempo, 2608696
1, 174320, Tempo, 2666667
1, 174320, Note_on_c, 0, 61, 51
1, 174340, Tempo, 2727273
1, 174360, Tempo, 2790698
1, 174380, Tempo, 2857143
1, 174400, Tempo, 2926829
1, 174400, Note_on_c, 0, 61, 0
1, 174420, Tempo, 3000000
1, 174440, Tempo, 3076923
1, 174460, Tempo, 3157895
1, 174480, Tempo, 3243243
1, 174480, Note_on_c, 0, 66, 0
1, 174480, Note_on_c, 0, 65, 58
1, 174960, Note_on_c, 0, 65, 0
1, 174960, Note_on_c, 0, 73, 0
1, 174960, Note_on_c, 0, 68, 0
1, 174960, Note_on_c, 0, 44, 22
1, 174960, Note_on_c, 0, 49, 22
1, 174960, Note_on_c, 0, 53, 22
1, 174960, Note_on_c, 0, 56, 27
1, 175440, Tempo, 2926829
1, 175440, Note_on_c, 0, 65, 33
1, 175440, Note_on_c, 0, 61, 27
1, 175440, Note_on_c, 0, 37, 25
1, 177360, Note_on_c, 0, 37, 0
1, 177360, Note_on_c, 0, 65, 0
1, 177360, Note_on_c, 0, 49, 0
1, 177360, Note_on_c, 0, 53, 0
1, 177360, Note_on_c, 0, 44, 0
1, 177360, Note_on_c, 0, 61, 0
1, 177360, Note_on_c, 0, 56, 0
1, 178800, Control_c, 0, 64, 0
1, 178800, End_track
0, 0, End_of_file
