0, 0, Header, 0, 1, 480
1, 0, Start_track
1, 0, Title_t, "Chopin Etude  No. 3, Opus 25"
1, 0, Copyright_t, "Copyright © 2003 by Bernd Krueger "
1, 0, Text_t, "Frederic Chopin"
1, 0, Text_t, "Allegro"
1, 0, Text_t, "Fertiggestellt am  27.2.2003\012"
1, 0, Text_t, "Update am 14.5.2010\012"
1, 0, Text_t, "Update am 17.2.2014\012"
1, 0, Text_t, "Dauer: 1:47 Minuten\012"
1, 0, SMPTE_offset, 96, 0, 3, 0, 0
1, 0, Time_signature, 3, 2, 24, 8
1, 0, Key_signature, -1, "major"
1, 0, Tempo, 414508
1, 0, Program_c, 0, 0
1, 0, Control_c, 0, 7, 100
1, 0, Control_c, 0, 10, 64
1, 0, Text_t, "bdca426d104a26ac9dcb070447587523"
1, 0, Control_c, 0, 91, 127
1, 0, Program_c, 0, 0
1, 0, Control_c, 0, 7, 100
1, 0, Control_c, 0, 10, 64
1, 0, Control_c, 0, 64, 0
1, 960, Note_on_c, 0, 72, 61
1, 1440, Tempo, 388199
1, 1440, Note_on_c, 0, 72, 0
1, 1440, Note_on_c, 0, 65, 50
1, 1440, Note_on_c, 0, 74, 73
1, 1440, Note_on_c, 0, 57, 38
1, 1440, Note_on_c, 0, 48, 31
1, 1452, Control_c, 0, 64, 127
1, 1560, Tempo, 446462
1, 1560, Note_on_c, 0, 57, 0
1, 1560, Note_on_c, 0, 74, 0
1, 1560, Note_on_c, 0, 72, 52
1, 1560, Note_on_c, 0, 53, 35
1, 1680, Note_on_c, 0, 53, 0
1, 1680, Note_on_c, 0, 48, 0
1, 1680, Note_on_c, 0, 65, 0
1, 1680, Note_on_c, 0, 77, 64
1, 1680, Note_on_c, 0, 41, 31
1, 1683, Control_c, 0, 64, 0
1, 1800, Tempo, 481928
1, 1800, Note_on_c, 0, 41, 0
1, 1800, Note_on_c, 0, 77, 0
1, 1800, Note_on_c, 0, 72, 0
1, 1920, Tempo, 388199
1, 1920, Note_on_c, 0, 60, 46
1, 1920, Note_on_c, 0, 67, 67
1, 1920, Note_on_c, 0, 57, 36
1, 1920, Note_on_c, 0, 48, 29
1, 1949, Control_c, 0, 64, 127
1, 2040, Tempo, 438468
1, 2040, Note_on_c, 0, 57, 0
1, 2040, Note_on_c, 0, 67, 0
1, 2040, Note_on_c, 0, 65, 47
1, 2040, Note_on_c, 0, 53, 33
1, 2160, Note_on_c, 0, 53, 0
1, 2160, Note_on_c, 0, 48, 0
1, 2160, Note_on_c, 0, 60, 0
1, 2160, Note_on_c, 0, 72, 63
1, 2160, Note_on_c, 0, 41, 29
1, 2171, Control_c, 0, 64, 0
1, 2280, Tempo, 461432
1, 2280, Note_on_c, 0, 41, 0
1, 2280, Note_on_c, 0, 72, 0
1, 2280, Note_on_c, 0, 65, 0
1, 2400, Tempo, 388199
1, 2400, Note_on_c, 0, 65, 48
1, 2400, Note_on_c, 0, 74, 69
1, 2400, Note_on_c, 0, 57, 36
1, 2400, Note_on_c, 0, 48, 29
1, 2419, Control_c, 0, 64, 127
1, 2520, Tempo, 435098
1, 2520, Note_on_c, 0, 57, 0
1, 2520, Note_on_c, 0, 74, 0
1, 2520, Note_on_c, 0, 72, 49
1, 2520, Note_on_c, 0, 53, 33
1, 2640, Note_on_c, 0, 53, 0
1, 2640, Note_on_c, 0, 48, 0
1, 2640, Note_on_c, 0, 65, 0
1, 2640, Note_on_c, 0, 77, 63
1, 2640, Note_on_c, 0, 41, 28
1, 2643, Control_c, 0, 64, 0
1, 2760, Tempo, 462107
1, 2760, Note_on_c, 0, 41, 0
1, 2760, Note_on_c, 0, 77, 0
1, 2760, Note_on_c, 0, 72, 0
1, 2880, Tempo, 389509
1, 2880, Note_on_c, 0, 67, 50
1, 2880, Note_on_c, 0, 74, 73
1, 2880, Note_on_c, 0, 58, 38
1, 2880, Note_on_c, 0, 48, 31
1, 2895, Control_c, 0, 64, 127
1, 3000, Tempo, 435098
1, 3000, Note_on_c, 0, 58, 0
1, 3000, Note_on_c, 0, 74, 0
1, 3000, Note_on_c, 0, 72, 51
1, 3000, Note_on_c, 0, 52, 35
1, 3120, Note_on_c, 0, 52, 0
1, 3120, Note_on_c, 0, 48, 0
1, 3120, Note_on_c, 0, 67, 0
1, 3120, Note_on_c, 0, 79, 61
1, 3120, Note_on_c, 0, 41, 30
1, 3134, Control_c, 0, 64, 0
1, 3240, Tempo, 462107
1, 3240, Note_on_c, 0, 41, 0
1, 3240, Note_on_c, 0, 79, 0
1, 3240, Note_on_c, 0, 72, 0
1, 3360, Tempo, 388199
1, 3360, Note_on_c, 0, 60, 44
1, 3360, Note_on_c, 0, 69, 64
1, 3360, Note_on_c, 0, 58, 32
1, 3360, Note_on_c, 0, 48, 29
1, 3424, Control_c, 0, 64, 127
1, 3480, Tempo, 433463
1, 3480, Note_on_c, 0, 58, 0
1, 3480, Note_on_c, 0, 69, 0
1, 3480, Note_on_c, 0, 67, 47
1, 3480, Note_on_c, 0, 52, 33
1, 3600, Note_on_c, 0, 52, 0
1, 3600, Note_on_c, 0, 48, 0
1, 3600, Note_on_c, 0, 60, 0
1, 3600, Note_on_c, 0, 72, 59
1, 3600, Note_on_c, 0, 41, 28
1, 3611, Control_c, 0, 64, 0
1, 3720, Tempo, 460653
1, 3720, Note_on_c, 0, 41, 0
1, 3720, Note_on_c, 0, 72, 0
1, 3720, Note_on_c, 0, 67, 0
1, 3840, Tempo, 389509
1, 3840, Note_on_c, 0, 67, 48
1, 3840, Note_on_c, 0, 74, 69
1, 3840, Note_on_c, 0, 58, 36
1, 3840, Note_on_c, 0, 48, 29
1, 3904, Control_c, 0, 64, 127
1, 3960, Tempo, 431810
1, 3960, Note_on_c, 0, 58, 0
1, 3960, Note_on_c, 0, 74, 0
1, 3960, Note_on_c, 0, 72, 52
1, 3960, Note_on_c, 0, 52, 33
1, 4080, Note_on_c, 0, 52, 0
1, 4080, Note_on_c, 0, 48, 0
1, 4080, Note_on_c, 0, 67, 0
1, 4080, Note_on_c, 0, 79, 66
1, 4080, Note_on_c, 0, 41, 28
1, 4108, Control_c, 0, 64, 0
1, 4200, Tempo, 452318
1, 4200, Note_on_c, 0, 41, 0
1, 4200, Note_on_c, 0, 79, 0
1, 4200, Note_on_c, 0, 72, 0
1, 4320, Tempo, 388199
1, 4320, Note_on_c, 0, 69, 52
1, 4320, Note_on_c, 0, 74, 76
1, 4320, Note_on_c, 0, 57, 39
1, 4320, Note_on_c, 0, 48, 32
1, 4349, Control_c, 0, 64, 127
1, 4440, Tempo, 431810
1, 4440, Note_on_c, 0, 57, 0
1, 4440, Note_on_c, 0, 74, 0
1, 4440, Note_on_c, 0, 72, 53
1, 4440, Note_on_c, 0, 53, 36
1, 4560, Note_on_c, 0, 53, 0
1, 4560, Note_on_c, 0, 48, 0
1, 4560, Note_on_c, 0, 69, 0
1, 4560, Note_on_c, 0, 81, 65
1, 4560, Note_on_c, 0, 41, 32
1, 4578, Control_c, 0, 64, 0
1, 4680, Tempo, 452318
1, 4680, Note_on_c, 0, 41, 0
1, 4680, Note_on_c, 0, 81, 0
1, 4680, Note_on_c, 0, 72, 0
1, 4800, Tempo, 386897
1, 4800, Note_on_c, 0, 65, 49
1, 4800, Note_on_c, 0, 74, 71
1, 4800, Note_on_c, 0, 57, 37
1, 4800, Note_on_c, 0, 50, 30
1, 4851, Control_c, 0, 64, 127
1, 4920, Tempo, 435098
1, 4920, Note_on_c, 0, 57, 0
1, 4920, Note_on_c, 0, 74, 0
1, 4920, Note_on_c, 0, 72, 49
1, 4920, Note_on_c, 0, 53, 34
1, 5040, Note_on_c, 0, 53, 0
1, 5040, Note_on_c, 0, 50, 0
1, 5040, Note_on_c, 0, 65, 0
1, 5040, Note_on_c, 0, 77, 63
1, 5040, Note_on_c, 0, 41, 29
1, 5054, Control_c, 0, 64, 0
1, 5160, Tempo, 462107
1, 5160, Note_on_c, 0, 41, 0
1, 5160, Note_on_c, 0, 77, 0
1, 5160, Note_on_c, 0, 72, 0
1, 5280, Tempo, 388199
1, 5280, Note_on_c, 0, 74, 50
1, 5280, Note_on_c, 0, 81, 72
1, 5280, Note_on_c, 0, 59, 37
1, 5280, Note_on_c, 0, 50, 30
1, 5326, Control_c, 0, 64, 127
1, 5400, Tempo, 436777
1, 5400, Note_on_c, 0, 59, 0
1, 5400, Note_on_c, 0, 81, 0
1, 5400, Note_on_c, 0, 79, 54
1, 5400, Note_on_c, 0, 53, 34
1, 5520, Note_on_c, 0, 53, 0
1, 5520, Note_on_c, 0, 50, 0
1, 5520, Note_on_c, 0, 74, 0
1, 5520, Note_on_c, 0, 86, 66
1, 5520, Note_on_c, 0, 43, 30
1, 5531, Control_c, 0, 64, 0
1, 5640, Tempo, 469153
1, 5640, Note_on_c, 0, 43, 0
1, 5640, Note_on_c, 0, 86, 0
1, 5640, Note_on_c, 0, 79, 0
1, 5760, Tempo, 388199
1, 5760, Note_on_c, 0, 67, 52
1, 5760, Note_on_c, 0, 74, 76
1, 5760, Control_c, 0, 64, 127
1, 5760, Note_on_c, 0, 64, 40
1, 5760, Note_on_c, 0, 55, 33
1, 5880, Tempo, 436777
1, 5880, Note_on_c, 0, 64, 0
1, 5880, Note_on_c, 0, 74, 0
1, 5880, Note_on_c, 0, 72, 57
1, 5880, Note_on_c, 0, 58, 37
1, 6000, Note_on_c, 0, 58, 0
1, 6000, Note_on_c, 0, 55, 0
1, 6000, Note_on_c, 0, 67, 0
1, 6000, Note_on_c, 0, 79, 66
1, 6000, Note_on_c, 0, 48, 32
1, 6120, Tempo, 460653
1, 6120, Note_on_c, 0, 48, 0
1, 6120, Note_on_c, 0, 79, 0
1, 6120, Note_on_c, 0, 72, 0
1, 6240, Tempo, 392182
1, 6240, Note_on_c, 0, 72, 51
1, 6240, Note_on_c, 0, 81, 72
1, 6240, Note_on_c, 0, 70, 38
1, 6240, Note_on_c, 0, 60, 31
1, 6360, Tempo, 441826
1, 6360, Note_on_c, 0, 70, 0
1, 6360, Note_on_c, 0, 81, 0
1, 6360, Note_on_c, 0, 79, 51
1, 6360, Note_on_c, 0, 64, 35
1, 6480, Note_on_c, 0, 64, 0
1, 6480, Note_on_c, 0, 60, 0
1, 6480, Note_on_c, 0, 72, 0
1, 6480, Note_on_c, 0, 84, 64
1, 6480, Note_on_c, 0, 55, 28
1, 6600, Tempo, 465188
1, 6600, Note_on_c, 0, 55, 0
1, 6600, Note_on_c, 0, 84, 0
1, 6600, Note_on_c, 0, 79, 0
1, 6720, Tempo, 425200
1, 6720, Note_on_c, 0, 84, 51
1, 6720, Note_on_c, 0, 93, 75
1, 6720, Note_on_c, 0, 76, 38
1, 6720, Note_on_c, 0, 67, 31
1, 6840, Tempo, 464288
1, 6840, Note_on_c, 0, 76, 0
1, 6840, Note_on_c, 0, 93, 0
1, 6840, Note_on_c, 0, 91, 53
1, 6840, Note_on_c, 0, 70, 35
1, 6960, Tempo, 558243
1, 6960, Note_on_c, 0, 70, 0
1, 6960, Note_on_c, 0, 67, 0
1, 6960, Note_on_c, 0, 84, 0
1, 6960, Note_on_c, 0, 96, 69
1, 6960, Note_on_c, 0, 60, 30
1, 7080, Note_on_c, 0, 60, 0
1, 7080, Note_on_c, 0, 96, 0
1, 7080, Note_on_c, 0, 91, 0
1, 7136, Control_c, 0, 64, 0
1, 7200, Tempo, 388199
1, 7200, Note_on_c, 0, 65, 50
1, 7200, Note_on_c, 0, 74, 73
1, 7200, Note_on_c, 0, 57, 38
1, 7200, Note_on_c, 0, 48, 31
1, 7221, Control_c, 0, 64, 127
1, 7320, Tempo, 446462
1, 7320, Note_on_c, 0, 57, 0
1, 7320, Note_on_c, 0, 74, 0
1, 7320, Note_on_c, 0, 72, 51
1, 7320, Note_on_c, 0, 53, 35
1, 7429, Control_c, 0, 64, 0
1, 7440, Note_on_c, 0, 53, 0
1, 7440, Note_on_c, 0, 48, 0
1, 7440, Note_on_c, 0, 65, 0
1, 7440, Note_on_c, 0, 77, 69
1, 7440, Note_on_c, 0, 41, 31
1, 7560, Tempo, 503609
1, 7560, Note_on_c, 0, 41, 0
1, 7560, Note_on_c, 0, 77, 0
1, 7560, Note_on_c, 0, 72, 0
1, 7680, Tempo, 388199
1, 7680, Note_on_c, 0, 60, 46
1, 7680, Note_on_c, 0, 67, 67
1, 7680, Note_on_c, 0, 57, 36
1, 7680, Note_on_c, 0, 48, 29
1, 7715, Control_c, 0, 64, 127
1, 7800, Tempo, 440141
1, 7800, Note_on_c, 0, 57, 0
1, 7800, Note_on_c, 0, 67, 0
1, 7800, Note_on_c, 0, 65, 47
1, 7800, Note_on_c, 0, 53, 33
1, 7920, Note_on_c, 0, 53, 0
1, 7920, Note_on_c, 0, 48, 0
1, 7920, Note_on_c, 0, 60, 0
1, 7920, Note_on_c, 0, 72, 65
1, 7920, Note_on_c, 0, 41, 29
1, 7931, Control_c, 0, 64, 0
1, 8040, Tempo, 480808
1, 8040, Note_on_c, 0, 41, 0
1, 8040, Note_on_c, 0, 72, 0
1, 8040, Note_on_c, 0, 65, 0
1, 8160, Tempo, 388199
1, 8160, Note_on_c, 0, 65, 48
1, 8160, Note_on_c, 0, 74, 69
1, 8160, Note_on_c, 0, 57, 36
1, 8160, Note_on_c, 0, 48, 29
1, 8195, Control_c, 0, 64, 127
1, 8280, Tempo, 444708
1, 8280, Note_on_c, 0, 57, 0
1, 8280, Note_on_c, 0, 74, 0
1, 8280, Note_on_c, 0, 72, 53
1, 8280, Note_on_c, 0, 53, 33
1, 8400, Note_on_c, 0, 53, 0
1, 8400, Note_on_c, 0, 48, 0
1, 8400, Note_on_c, 0, 65, 0
1, 8400, Note_on_c, 0, 77, 67
1, 8400, Note_on_c, 0, 41, 28
1, 8403, Control_c, 0, 64, 0
1, 8520, Tempo, 459559
1, 8520, Note_on_c, 0, 41, 0
1, 8520, Note_on_c, 0, 77, 0
1, 8520, Note_on_c, 0, 72, 0
1, 8640, Tempo, 389509
1, 8640, Note_on_c, 0, 67, 50
1, 8640, Note_on_c, 0, 74, 73
1, 8640, Note_on_c, 0, 58, 38
1, 8640, Note_on_c, 0, 48, 31
1, 8661, Control_c, 0, 64, 127
1, 8760, Tempo, 438468
1, 8760, Note_on_c, 0, 58, 0
1, 8760, Note_on_c, 0, 74, 0
1, 8760, Note_on_c, 0, 72, 51
1, 8760, Note_on_c, 0, 52, 35
1, 8880, Note_on_c, 0, 52, 0
1, 8880, Note_on_c, 0, 48, 0
1, 8880, Note_on_c, 0, 67, 0
1, 8880, Note_on_c, 0, 79, 65
1, 8880, Note_on_c, 0, 41, 30
1, 8894, Control_c, 0, 64, 0
1, 9000, Tempo, 465585
1, 9000, Note_on_c, 0, 41, 0
1, 9000, Note_on_c, 0, 79, 0
1, 9000, Note_on_c, 0, 72, 0
1, 9120, Tempo, 388199
1, 9120, Note_on_c, 0, 60, 40
1, 9120, Note_on_c, 0, 69, 64
1, 9120, Note_on_c, 0, 58, 32
1, 9120, Note_on_c, 0, 48, 29
1, 9184, Control_c, 0, 64, 127
1, 9240, Tempo, 436777
1, 9240, Note_on_c, 0, 58, 0
1, 9240, Note_on_c, 0, 69, 0
1, 9240, Note_on_c, 0, 67, 47
1, 9240, Note_on_c, 0, 52, 33
1, 9360, Note_on_c, 0, 52, 0
1, 9360, Note_on_c, 0, 48, 0
1, 9360, Note_on_c, 0, 60, 0
1, 9360, Note_on_c, 0, 72, 63
1, 9360, Note_on_c, 0, 41, 28
1, 9371, Control_c, 0, 64, 0
1, 9480, Tempo, 461432
1, 9480, Note_on_c, 0, 41, 0
1, 9480, Note_on_c, 0, 72, 0
1, 9480, Note_on_c, 0, 67, 0
1, 9600, Tempo, 389509
1, 9600, Note_on_c, 0, 67, 48
1, 9600, Note_on_c, 0, 74, 69
1, 9600, Note_on_c, 0, 58, 36
1, 9600, Note_on_c, 0, 48, 29
1, 9664, Control_c, 0, 64, 127
1, 9720, Tempo, 435098
1, 9720, Note_on_c, 0, 58, 0
1, 9720, Note_on_c, 0, 74, 0
1, 9720, Note_on_c, 0, 72, 49
1, 9720, Note_on_c, 0, 52, 33
1, 9840, Note_on_c, 0, 52, 0
1, 9840, Note_on_c, 0, 48, 0
1, 9840, Note_on_c, 0, 67, 0
1, 9840, Note_on_c, 0, 79, 66
1, 9840, Note_on_c, 0, 41, 28
1, 9857, Control_c, 0, 64, 0
1, 9960, Tempo, 465585
1, 9960, Note_on_c, 0, 41, 0
1, 9960, Note_on_c, 0, 79, 0
1, 9960, Note_on_c, 0, 72, 0
1, 10080, Tempo, 388199
1, 10080, Note_on_c, 0, 69, 52
1, 10080, Note_on_c, 0, 74, 76
1, 10080, Note_on_c, 0, 57, 39
1, 10080, Note_on_c, 0, 48, 32
1, 10109, Control_c, 0, 64, 127
1, 10200, Tempo, 436777
1, 10200, Note_on_c, 0, 57, 0
1, 10200, Note_on_c, 0, 74, 0
1, 10200, Note_on_c, 0, 72, 53
1, 10200, Note_on_c, 0, 53, 36
1, 10320, Note_on_c, 0, 53, 0
1, 10320, Note_on_c, 0, 48, 0
1, 10320, Note_on_c, 0, 69, 0
1, 10320, Note_on_c, 0, 81, 70
1, 10320, Note_on_c, 0, 41, 32
1, 10338, Control_c, 0, 64, 0
1, 10440, Tempo, 460653
1, 10440, Note_on_c, 0, 41, 0
1, 10440, Note_on_c, 0, 81, 0
1, 10440, Note_on_c, 0, 72, 0
1, 10560, Tempo, 386897
1, 10560, Note_on_c, 0, 69, 49
1, 10560, Note_on_c, 0, 76, 71
1, 10560, Note_on_c, 0, 59, 37
1, 10560, Note_on_c, 0, 50, 30
1, 10611, Control_c, 0, 64, 127
1, 10680, Tempo, 436777
1, 10680, Note_on_c, 0, 59, 0
1, 10680, Note_on_c, 0, 76, 0
1, 10680, Note_on_c, 0, 74, 49
1, 10680, Note_on_c, 0, 53, 34
1, 10800, Note_on_c, 0, 53, 0
1, 10800, Note_on_c, 0, 50, 0
1, 10800, Note_on_c, 0, 69, 0
1, 10800, Note_on_c, 0, 81, 66
1, 10800, Note_on_c, 0, 43, 29
1, 10814, Control_c, 0, 64, 0
1, 10920, Tempo, 465585
1, 10920, Note_on_c, 0, 43, 0
1, 10920, Note_on_c, 0, 81, 0
1, 10920, Note_on_c, 0, 74, 0
1, 11040, Tempo, 388199
1, 11040, Note_on_c, 0, 67, 50
1, 11040, Note_on_c, 0, 74, 72
1, 11040, Note_on_c, 0, 64, 37
1, 11040, Note_on_c, 0, 55, 30
1, 11086, Control_c, 0, 64, 127
1, 11160, Tempo, 448163
1, 11160, Note_on_c, 0, 64, 0
1, 11160, Note_on_c, 0, 74, 0
1, 11160, Note_on_c, 0, 72, 53
1, 11160, Note_on_c, 0, 58, 34
1, 11280, Note_on_c, 0, 58, 0
1, 11280, Note_on_c, 0, 55, 0
1, 11280, Note_on_c, 0, 67, 0
1, 11280, Note_on_c, 0, 79, 65
1, 11280, Note_on_c, 0, 48, 30
1, 11291, Control_c, 0, 64, 0
1, 11400, Tempo, 469153
1, 11400, Note_on_c, 0, 48, 0
1, 11400, Note_on_c, 0, 79, 0
1, 11400, Note_on_c, 0, 72, 0
1, 11520, Tempo, 388199
1, 11520, Note_on_c, 0, 65, 54
1, 11520, Note_on_c, 0, 74, 80
1, 11520, Control_c, 0, 64, 127
1, 11520, Note_on_c, 0, 57, 40
1, 11520, Note_on_c, 0, 48, 33
1, 11640, Tempo, 448163
1, 11640, Note_on_c, 0, 57, 0
1, 11640, Note_on_c, 0, 74, 0
1, 11640, Note_on_c, 0, 72, 57
1, 11640, Note_on_c, 0, 53, 37
1, 11760, Note_on_c, 0, 53, 0
1, 11760, Note_on_c, 0, 48, 0
1, 11760, Note_on_c, 0, 65, 0
1, 11760, Note_on_c, 0, 77, 71
1, 11760, Note_on_c, 0, 41, 32
1, 11880, Tempo, 472701
1, 11880, Note_on_c, 0, 41, 0
1, 11880, Note_on_c, 0, 77, 0
1, 11880, Note_on_c, 0, 72, 0
1, 12000, Tempo, 392182
1, 12000, Note_on_c, 0, 77, 51
1, 12000, Note_on_c, 0, 86, 72
1, 12000, Note_on_c, 0, 69, 38
1, 12000, Note_on_c, 0, 60, 31
1, 12120, Tempo, 458821
1, 12120, Note_on_c, 0, 69, 0
1, 12120, Note_on_c, 0, 86, 0
1, 12120, Note_on_c, 0, 84, 51
1, 12120, Note_on_c, 0, 65, 35
1, 12240, Note_on_c, 0, 65, 0
1, 12240, Note_on_c, 0, 60, 0
1, 12240, Note_on_c, 0, 77, 0
1, 12240, Note_on_c, 0, 89, 65
1, 12240, Note_on_c, 0, 53, 28
1, 12360, Tempo, 491844
1, 12360, Note_on_c, 0, 53, 0
1, 12360, Note_on_c, 0, 89, 0
1, 12360, Note_on_c, 0, 84, 0
1, 12480, Tempo, 425200
1, 12480, Note_on_c, 0, 89, 51
1, 12480, Note_on_c, 0, 98, 75
1, 12480, Note_on_c, 0, 81, 38
1, 12480, Note_on_c, 0, 72, 31
1, 12600, Tempo, 464288
1, 12600, Note_on_c, 0, 81, 0
1, 12600, Note_on_c, 0, 98, 0
1, 12600, Note_on_c, 0, 96, 58
1, 12600, Note_on_c, 0, 77, 35
1, 12720, Tempo, 550206
1, 12720, Note_on_c, 0, 77, 0
1, 12720, Note_on_c, 0, 72, 0
1, 12720, Note_on_c, 0, 89, 0
1, 12720, Note_on_c, 0, 101, 71
1, 12720, Note_on_c, 0, 65, 30
1, 12840, Note_on_c, 0, 65, 0
1, 12840, Note_on_c, 0, 101, 0
1, 12840, Note_on_c, 0, 96, 0
1, 12847, Control_c, 0, 64, 0
1, 12960, Tempo, 388199
1, 12960, Note_on_c, 0, 65, 50
1, 12960, Note_on_c, 0, 74, 73
1, 12960, Note_on_c, 0, 57, 38
1, 12960, Note_on_c, 0, 48, 31
1, 12981, Control_c, 0, 64, 127
1, 13020, Note_on_c, 0, 74, 0
1, 13020, Note_on_c, 0, 72, 58
1, 13080, Tempo, 446462
1, 13080, Note_on_c, 0, 72, 0
1, 13080, Note_on_c, 0, 57, 0
1, 13080, Note_on_c, 0, 74, 63
1, 13080, Note_on_c, 0, 53, 35
1, 13140, Note_on_c, 0, 74, 0
1, 13140, Note_on_c, 0, 72, 52
1, 13200, Note_on_c, 0, 48, 0
1, 13200, Note_on_c, 0, 53, 0
1, 13200, Note_on_c, 0, 65, 0
1, 13200, Note_on_c, 0, 77, 67
1, 13200, Note_on_c, 0, 41, 31
1, 13207, Control_c, 0, 64, 0
1, 13320, Tempo, 481928
1, 13320, Note_on_c, 0, 41, 0
1, 13320, Note_on_c, 0, 77, 0
1, 13320, Note_on_c, 0, 72, 0
1, 13440, Tempo, 388199
1, 13440, Note_on_c, 0, 60, 46
1, 13440, Note_on_c, 0, 67, 67
1, 13440, Note_on_c, 0, 57, 36
1, 13440, Note_on_c, 0, 48, 29
1, 13475, Control_c, 0, 64, 127
1, 13500, Note_on_c, 0, 67, 0
1, 13500, Note_on_c, 0, 65, 53
1, 13560, Tempo, 438468
1, 13560, Note_on_c, 0, 65, 0
1, 13560, Note_on_c, 0, 57, 0
1, 13560, Note_on_c, 0, 67, 57
1, 13560, Note_on_c, 0, 53, 33
1, 13620, Note_on_c, 0, 67, 0
1, 13620, Note_on_c, 0, 65, 47
1, 13680, Note_on_c, 0, 48, 0
1, 13680, Note_on_c, 0, 53, 0
1, 13680, Note_on_c, 0, 60, 0
1, 13680, Note_on_c, 0, 72, 66
1, 13680, Note_on_c, 0, 41, 29
1, 13691, Control_c, 0, 64, 0
1, 13800, Tempo, 461432
1, 13800, Note_on_c, 0, 41, 0
1, 13800, Note_on_c, 0, 72, 0
1, 13800, Note_on_c, 0, 65, 0
1, 13920, Tempo, 388199
1, 13920, Note_on_c, 0, 65, 48
1, 13920, Note_on_c, 0, 74, 69
1, 13920, Note_on_c, 0, 57, 36
1, 13920, Note_on_c, 0, 48, 29
1, 13955, Control_c, 0, 64, 127
1, 13980, Note_on_c, 0, 74, 0
1, 13980, Note_on_c, 0, 72, 55
1, 14040, Tempo, 435098
1, 14040, Note_on_c, 0, 72, 0
1, 14040, Note_on_c, 0, 57, 0
1, 14040, Note_on_c, 0, 74, 59
1, 14040, Note_on_c, 0, 53, 33
1, 14100, Note_on_c, 0, 74, 0
1, 14100, Note_on_c, 0, 72, 49
1, 14160, Note_on_c, 0, 48, 0
1, 14160, Note_on_c, 0, 53, 0
1, 14160, Note_on_c, 0, 65, 0
1, 14160, Note_on_c, 0, 77, 66
1, 14160, Note_on_c, 0, 41, 28
1, 14166, Control_c, 0, 64, 0
1, 14280, Tempo, 462107
1, 14280, Note_on_c, 0, 41, 0
1, 14280, Note_on_c, 0, 77, 0
1, 14280, Note_on_c, 0, 72, 0
1, 14400, Tempo, 389509
1, 14400, Note_on_c, 0, 67, 50
1, 14400, Note_on_c, 0, 74, 73
1, 14400, Note_on_c, 0, 58, 38
1, 14400, Note_on_c, 0, 48, 31
1, 14421, Control_c, 0, 64, 127
1, 14460, Note_on_c, 0, 74, 0
1, 14460, Note_on_c, 0, 72, 57
1, 14520, Tempo, 435098
1, 14520, Note_on_c, 0, 72, 0
1, 14520, Note_on_c, 0, 58, 0
1, 14520, Note_on_c, 0, 74, 63
1, 14520, Note_on_c, 0, 52, 35
1, 14580, Note_on_c, 0, 74, 0
1, 14580, Note_on_c, 0, 72, 51
1, 14640, Note_on_c, 0, 48, 0
1, 14640, Note_on_c, 0, 52, 0
1, 14640, Note_on_c, 0, 67, 0
1, 14640, Note_on_c, 0, 79, 66
1, 14640, Note_on_c, 0, 41, 30
1, 14654, Control_c, 0, 64, 0
1, 14760, Tempo, 462107
1, 14760, Note_on_c, 0, 41, 0
1, 14760, Note_on_c, 0, 79, 0
1, 14760, Note_on_c, 0, 72, 0
1, 14880, Tempo, 388199
1, 14880, Note_on_c, 0, 60, 40
1, 14880, Note_on_c, 0, 69, 64
1, 14880, Note_on_c, 0, 58, 32
1, 14880, Note_on_c, 0, 48, 29
1, 14940, Note_on_c, 0, 69, 0
1, 14940, Note_on_c, 0, 67, 53
1, 14944, Control_c, 0, 64, 127
1, 15000, Tempo, 433463
1, 15000, Note_on_c, 0, 67, 0
1, 15000, Note_on_c, 0, 58, 0
1, 15000, Note_on_c, 0, 69, 57
1, 15000, Note_on_c, 0, 52, 33
1, 15060, Note_on_c, 0, 69, 0
1, 15060, Note_on_c, 0, 67, 57
1, 15120, Note_on_c, 0, 48, 0
1, 15120, Note_on_c, 0, 52, 0
1, 15120, Note_on_c, 0, 60, 0
1, 15120, Note_on_c, 0, 72, 64
1, 15120, Note_on_c, 0, 41, 28
1, 15131, Control_c, 0, 64, 0
1, 15240, Tempo, 460653
1, 15240, Note_on_c, 0, 41, 0
1, 15240, Note_on_c, 0, 72, 0
1, 15240, Note_on_c, 0, 67, 0
1, 15360, Tempo, 389509
1, 15360, Note_on_c, 0, 67, 48
1, 15360, Note_on_c, 0, 74, 69
1, 15360, Note_on_c, 0, 58, 36
1, 15360, Note_on_c, 0, 48, 29
1, 15420, Note_on_c, 0, 74, 0
1, 15420, Note_on_c, 0, 72, 59
1, 15424, Control_c, 0, 64, 127
1, 15480, Tempo, 431810
1, 15480, Note_on_c, 0, 72, 0
1, 15480, Note_on_c, 0, 58, 0
1, 15480, Note_on_c, 0, 74, 61
1, 15480, Note_on_c, 0, 52, 33
1, 15540, Note_on_c, 0, 74, 0
1, 15540, Note_on_c, 0, 72, 52
1, 15600, Note_on_c, 0, 48, 0
1, 15600, Note_on_c, 0, 52, 0
1, 15600, Note_on_c, 0, 67, 0
1, 15600, Note_on_c, 0, 79, 65
1, 15600, Note_on_c, 0, 41, 28
1, 15625, Control_c, 0, 64, 0
1, 15720, Tempo, 452318
1, 15720, Note_on_c, 0, 41, 0
1, 15720, Note_on_c, 0, 79, 0
1, 15720, Note_on_c, 0, 72, 0
1, 15840, Tempo, 388199
1, 15840, Note_on_c, 0, 69, 52
1, 15840, Note_on_c, 0, 74, 76
1, 15840, Note_on_c, 0, 57, 39
1, 15840, Note_on_c, 0, 48, 32
1, 15869, Control_c, 0, 64, 127
1, 15900, Note_on_c, 0, 74, 0
1, 15900, Note_on_c, 0, 72, 57
1, 15960, Tempo, 431810
1, 15960, Note_on_c, 0, 72, 0
1, 15960, Note_on_c, 0, 57, 0
1, 15960, Note_on_c, 0, 74, 64
1, 15960, Note_on_c, 0, 53, 36
1, 16020, Note_on_c, 0, 74, 0
1, 16020, Note_on_c, 0, 72, 53
1, 16080, Note_on_c, 0, 48, 0
1, 16080, Note_on_c, 0, 53, 0
1, 16080, Note_on_c, 0, 69, 0
1, 16080, Note_on_c, 0, 81, 66
1, 16080, Note_on_c, 0, 41, 32
1, 16098, Control_c, 0, 64, 0
1, 16200, Tempo, 452318
1, 16200, Note_on_c, 0, 41, 0
1, 16200, Note_on_c, 0, 81, 0
1, 16200, Note_on_c, 0, 72, 0
1, 16320, Tempo, 386897
1, 16320, Note_on_c, 0, 65, 49
1, 16320, Note_on_c, 0, 74, 71
1, 16320, Note_on_c, 0, 57, 37
1, 16320, Note_on_c, 0, 50, 30
1, 16371, Control_c, 0, 64, 127
1, 16380, Note_on_c, 0, 74, 0
1, 16380, Note_on_c, 0, 72, 57
1, 16440, Tempo, 435098
1, 16440, Note_on_c, 0, 72, 0
1, 16440, Note_on_c, 0, 57, 0
1, 16440, Note_on_c, 0, 74, 63
1, 16440, Note_on_c, 0, 53, 34
1, 16500, Note_on_c, 0, 74, 0
1, 16500, Note_on_c, 0, 72, 49
1, 16560, Note_on_c, 0, 50, 0
1, 16560, Note_on_c, 0, 53, 0
1, 16560, Note_on_c, 0, 65, 0
1, 16560, Note_on_c, 0, 77, 67
1, 16560, Note_on_c, 0, 41, 29
1, 16574, Control_c, 0, 64, 0
1, 16680, Tempo, 462107
1, 16680, Note_on_c, 0, 41, 0
1, 16680, Note_on_c, 0, 77, 0
1, 16680, Note_on_c, 0, 72, 0
1, 16800, Tempo, 388199
1, 16800, Note_on_c, 0, 74, 50
1, 16800, Note_on_c, 0, 81, 72
1, 16800, Note_on_c, 0, 59, 37
1, 16800, Note_on_c, 0, 50, 30
1, 16846, Control_c, 0, 64, 127
1, 16860, Note_on_c, 0, 81, 0
1, 16860, Note_on_c, 0, 79, 58
1, 16920, Tempo, 436777
1, 16920, Note_on_c, 0, 79, 0
1, 16920, Note_on_c, 0, 59, 0
1, 16920, Note_on_c, 0, 81, 64
1, 16920, Note_on_c, 0, 53, 34
1, 16980, Note_on_c, 0, 81, 0
1, 16980, Note_on_c, 0, 79, 54
1, 17040, Note_on_c, 0, 50, 0
1, 17040, Note_on_c, 0, 53, 0
1, 17040, Note_on_c, 0, 74, 0
1, 17040, Note_on_c, 0, 86, 71
1, 17040, Note_on_c, 0, 43, 30
1, 17051, Control_c, 0, 64, 0
1, 17160, Tempo, 469153
1, 17160, Note_on_c, 0, 43, 0
1, 17160, Note_on_c, 0, 86, 0
1, 17160, Note_on_c, 0, 79, 0
1, 17280, Tempo, 388199
1, 17280, Note_on_c, 0, 67, 52
1, 17280, Note_on_c, 0, 74, 76
1, 17280, Control_c, 0, 64, 127
1, 17280, Note_on_c, 0, 64, 40
1, 17280, Note_on_c, 0, 55, 33
1, 17340, Note_on_c, 0, 74, 0
1, 17340, Note_on_c, 0, 72, 57
1, 17400, Tempo, 436777
1, 17400, Note_on_c, 0, 72, 0
1, 17400, Note_on_c, 0, 64, 0
1, 17400, Note_on_c, 0, 74, 65
1, 17400, Note_on_c, 0, 58, 37
1, 17460, Note_on_c, 0, 74, 0
1, 17460, Note_on_c, 0, 72, 57
1, 17520, Note_on_c, 0, 55, 0
1, 17520, Note_on_c, 0, 58, 0
1, 17520, Note_on_c, 0, 67, 0
1, 17520, Note_on_c, 0, 79, 70
1, 17520, Note_on_c, 0, 48, 32
1, 17640, Tempo, 460653
1, 17640, Note_on_c, 0, 48, 0
1, 17640, Note_on_c, 0, 79, 0
1, 17640, Note_on_c, 0, 72, 0
1, 17760, Tempo, 392182
1, 17760, Note_on_c, 0, 72, 51
1, 17760, Note_on_c, 0, 81, 72
1, 17760, Note_on_c, 0, 70, 38
1, 17760, Note_on_c, 0, 60, 31
1, 17820, Note_on_c, 0, 81, 0
1, 17820, Note_on_c, 0, 79, 55
1, 17880, Tempo, 441826
1, 17880, Note_on_c, 0, 79, 0
1, 17880, Note_on_c, 0, 70, 0
1, 17880, Note_on_c, 0, 81, 61
1, 17880, Note_on_c, 0, 64, 35
1, 17940, Note_on_c, 0, 81, 0
1, 17940, Note_on_c, 0, 79, 51
1, 18000, Note_on_c, 0, 60, 0
1, 18000, Note_on_c, 0, 64, 0
1, 18000, Note_on_c, 0, 72, 0
1, 18000, Note_on_c, 0, 84, 64
1, 18000, Note_on_c, 0, 55, 28
1, 18120, Tempo, 465188
1, 18120, Note_on_c, 0, 55, 0
1, 18120, Note_on_c, 0, 84, 0
1, 18120, Note_on_c, 0, 79, 0
1, 18240, Tempo, 425200
1, 18240, Note_on_c, 0, 84, 51
1, 18240, Note_on_c, 0, 93, 75
1, 18240, Note_on_c, 0, 76, 38
1, 18240, Note_on_c, 0, 67, 31
1, 18300, Note_on_c, 0, 93, 0
1, 18300, Note_on_c, 0, 91, 59
1, 18360, Tempo, 464288
1, 18360, Note_on_c, 0, 91, 0
1, 18360, Note_on_c, 0, 76, 0
1, 18360, Note_on_c, 0, 93, 63
1, 18360, Note_on_c, 0, 70, 35
1, 18420, Note_on_c, 0, 93, 0
1, 18420, Note_on_c, 0, 91, 53
1, 18480, Tempo, 558243
1, 18480, Note_on_c, 0, 67, 0
1, 18480, Note_on_c, 0, 70, 0
1, 18480, Note_on_c, 0, 84, 0
1, 18480, Note_on_c, 0, 96, 72
1, 18480, Note_on_c, 0, 60, 30
1, 18600, Note_on_c, 0, 60, 0
1, 18600, Note_on_c, 0, 96, 0
1, 18600, Note_on_c, 0, 91, 0
1, 18656, Control_c, 0, 64, 0
1, 18720, Tempo, 388199
1, 18720, Note_on_c, 0, 65, 50
1, 18720, Note_on_c, 0, 74, 73
1, 18720, Note_on_c, 0, 57, 38
1, 18720, Note_on_c, 0, 48, 31
1, 18741, Control_c, 0, 64, 127
1, 18780, Note_on_c, 0, 74, 0
1, 18780, Note_on_c, 0, 72, 53
1, 18840, Tempo, 446462
1, 18840, Note_on_c, 0, 72, 0
1, 18840, Note_on_c, 0, 57, 0
1, 18840, Note_on_c, 0, 74, 61
1, 18840, Note_on_c, 0, 53, 35
1, 18900, Note_on_c, 0, 74, 0
1, 18900, Note_on_c, 0, 72, 51
1, 18949, Control_c, 0, 64, 0
1, 18960, Note_on_c, 0, 48, 0
1, 18960, Note_on_c, 0, 53, 0
1, 18960, Note_on_c, 0, 65, 0
1, 18960, Note_on_c, 0, 77, 69
1, 18960, Note_on_c, 0, 41, 31
1, 19080, Tempo, 503609
1, 19080, Note_on_c, 0, 41, 0
1, 19080, Note_on_c, 0, 77, 0
1, 19080, Note_on_c, 0, 72, 0
1, 19200, Tempo, 388199
1, 19200, Note_on_c, 0, 60, 46
1, 19200, Note_on_c, 0, 67, 67
1, 19200, Note_on_c, 0, 57, 36
1, 19200, Note_on_c, 0, 48, 29
1, 19235, Control_c, 0, 64, 127
1, 19260, Note_on_c, 0, 67, 0
1, 19260, Note_on_c, 0, 65, 51
1, 19320, Tempo, 440141
1, 19320, Note_on_c, 0, 65, 0
1, 19320, Note_on_c, 0, 57, 0
1, 19320, Note_on_c, 0, 67, 59
1, 19320, Note_on_c, 0, 53, 33
1, 19380, Note_on_c, 0, 67, 0
1, 19380, Note_on_c, 0, 65, 47
1, 19440, Note_on_c, 0, 48, 0
1, 19440, Note_on_c, 0, 53, 0
1, 19440, Note_on_c, 0, 60, 0
1, 19440, Note_on_c, 0, 72, 65
1, 19440, Note_on_c, 0, 41, 29
1, 19451, Control_c, 0, 64, 0
1, 19560, Tempo, 480808
1, 19560, Note_on_c, 0, 41, 0
1, 19560, Note_on_c, 0, 72, 0
1, 19560, Note_on_c, 0, 65, 0
1, 19680, Tempo, 388199
1, 19680, Note_on_c, 0, 65, 48
1, 19680, Note_on_c, 0, 74, 69
1, 19680, Note_on_c, 0, 57, 36
1, 19680, Note_on_c, 0, 48, 29
1, 19715, Control_c, 0, 64, 127
1, 19740, Note_on_c, 0, 74, 0
1, 19740, Note_on_c, 0, 72, 54
1, 19800, Tempo, 444708
1, 19800, Note_on_c, 0, 72, 0
1, 19800, Note_on_c, 0, 57, 0
1, 19800, Note_on_c, 0, 74, 61
1, 19800, Note_on_c, 0, 53, 33
1, 19860, Note_on_c, 0, 74, 0
1, 19860, Note_on_c, 0, 72, 53
1, 19920, Note_on_c, 0, 48, 0
1, 19920, Note_on_c, 0, 53, 0
1, 19920, Note_on_c, 0, 65, 0
1, 19920, Note_on_c, 0, 77, 67
1, 19920, Note_on_c, 0, 41, 28
1, 19923, Control_c, 0, 64, 0
1, 20040, Tempo, 459559
1, 20040, Note_on_c, 0, 41, 0
1, 20040, Note_on_c, 0, 77, 0
1, 20040, Note_on_c, 0, 72, 0
1, 20160, Tempo, 389509
1, 20160, Note_on_c, 0, 67, 50
1, 20160, Note_on_c, 0, 74, 73
1, 20160, Note_on_c, 0, 58, 38
1, 20160, Note_on_c, 0, 48, 31
1, 20181, Control_c, 0, 64, 127
1, 20220, Note_on_c, 0, 74, 0
1, 20220, Note_on_c, 0, 72, 58
1, 20280, Tempo, 438468
1, 20280, Note_on_c, 0, 72, 0
1, 20280, Note_on_c, 0, 58, 0
1, 20280, Note_on_c, 0, 74, 65
1, 20280, Note_on_c, 0, 52, 35
1, 20340, Note_on_c, 0, 74, 0
1, 20340, Note_on_c, 0, 72, 51
1, 20400, Note_on_c, 0, 48, 0
1, 20400, Note_on_c, 0, 52, 0
1, 20400, Note_on_c, 0, 67, 0
1, 20400, Note_on_c, 0, 79, 65
1, 20400, Note_on_c, 0, 41, 30
1, 20414, Control_c, 0, 64, 0
1, 20520, Tempo, 465585
1, 20520, Note_on_c, 0, 41, 0
1, 20520, Note_on_c, 0, 79, 0
1, 20520, Note_on_c, 0, 72, 0
1, 20640, Tempo, 388199
1, 20640, Note_on_c, 0, 60, 40
1, 20640, Note_on_c, 0, 69, 64
1, 20640, Note_on_c, 0, 58, 32
1, 20640, Note_on_c, 0, 48, 29
1, 20700, Note_on_c, 0, 69, 0
1, 20700, Note_on_c, 0, 67, 51
1, 20704, Control_c, 0, 64, 127
1, 20760, Tempo, 436777
1, 20760, Note_on_c, 0, 67, 0
1, 20760, Note_on_c, 0, 58, 0
1, 20760, Note_on_c, 0, 69, 57
1, 20760, Note_on_c, 0, 52, 33
1, 20820, Note_on_c, 0, 69, 0
1, 20820, Note_on_c, 0, 67, 47
1, 20880, Note_on_c, 0, 48, 0
1, 20880, Note_on_c, 0, 52, 0
1, 20880, Note_on_c, 0, 60, 0
1, 20880, Note_on_c, 0, 72, 63
1, 20880, Note_on_c, 0, 41, 28
1, 20891, Control_c, 0, 64, 0
1, 21000, Tempo, 461432
1, 21000, Note_on_c, 0, 41, 0
1, 21000, Note_on_c, 0, 72, 0
1, 21000, Note_on_c, 0, 67, 0
1, 21120, Tempo, 389509
1, 21120, Note_on_c, 0, 67, 48
1, 21120, Note_on_c, 0, 74, 69
1, 21120, Note_on_c, 0, 58, 36
1, 21120, Note_on_c, 0, 48, 29
1, 21180, Note_on_c, 0, 74, 0
1, 21180, Note_on_c, 0, 72, 54
1, 21184, Control_c, 0, 64, 127
1, 21240, Tempo, 435098
1, 21240, Note_on_c, 0, 72, 0
1, 21240, Note_on_c, 0, 58, 0
1, 21240, Note_on_c, 0, 74, 61
1, 21240, Note_on_c, 0, 52, 33
1, 21300, Note_on_c, 0, 74, 0
1, 21300, Note_on_c, 0, 72, 49
1, 21360, Note_on_c, 0, 48, 0
1, 21360, Note_on_c, 0, 52, 0
1, 21360, Note_on_c, 0, 67, 0
1, 21360, Note_on_c, 0, 79, 66
1, 21360, Note_on_c, 0, 41, 28
1, 21382, Control_c, 0, 64, 0
1, 21480, Tempo, 465585
1, 21480, Note_on_c, 0, 41, 0
1, 21480, Note_on_c, 0, 79, 0
1, 21480, Note_on_c, 0, 72, 0
1, 21600, Tempo, 388199
1, 21600, Note_on_c, 0, 69, 52
1, 21600, Note_on_c, 0, 74, 76
1, 21600, Note_on_c, 0, 57, 39
1, 21600, Note_on_c, 0, 48, 32
1, 21629, Control_c, 0, 64, 127
1, 21660, Note_on_c, 0, 74, 0
1, 21660, Note_on_c, 0, 72, 59
1, 21720, Tempo, 436777
1, 21720, Note_on_c, 0, 72, 0
1, 21720, Note_on_c, 0, 57, 0
1, 21720, Note_on_c, 0, 74, 67
1, 21720, Note_on_c, 0, 53, 36
1, 21780, Note_on_c, 0, 74, 0
1, 21780, Note_on_c, 0, 72, 53
1, 21840, Note_on_c, 0, 48, 0
1, 21840, Note_on_c, 0, 53, 0
1, 21840, Note_on_c, 0, 69, 0
1, 21840, Note_on_c, 0, 81, 70
1, 21840, Note_on_c, 0, 41, 32
1, 21858, Control_c, 0, 64, 0
1, 21960, Tempo, 460653
1, 21960, Note_on_c, 0, 41, 0
1, 21960, Note_on_c, 0, 81, 0
1, 21960, Note_on_c, 0, 72, 0
1, 22080, Tempo, 386897
1, 22080, Note_on_c, 0, 69, 49
1, 22080, Note_on_c, 0, 76, 71
1, 22080, Note_on_c, 0, 59, 37
1, 22080, Note_on_c, 0, 50, 30
1, 22131, Control_c, 0, 64, 127
1, 22140, Note_on_c, 0, 76, 0
1, 22140, Note_on_c, 0, 74, 58
1, 22200, Tempo, 436777
1, 22200, Note_on_c, 0, 74, 0
1, 22200, Note_on_c, 0, 59, 0
1, 22200, Note_on_c, 0, 76, 65
1, 22200, Note_on_c, 0, 53, 34
1, 22260, Note_on_c, 0, 76, 0
1, 22260, Note_on_c, 0, 74, 49
1, 22320, Note_on_c, 0, 50, 0
1, 22320, Note_on_c, 0, 53, 0
1, 22320, Note_on_c, 0, 69, 0
1, 22320, Note_on_c, 0, 81, 66
1, 22320, Note_on_c, 0, 43, 29
1, 22334, Control_c, 0, 64, 0
1, 22440, Tempo, 465585
1, 22440, Note_on_c, 0, 43, 0
1, 22440, Note_on_c, 0, 81, 0
1, 22440, Note_on_c, 0, 74, 0
1, 22560, Tempo, 388199
1, 22560, Note_on_c, 0, 67, 50
1, 22560, Note_on_c, 0, 74, 72
1, 22560, Note_on_c, 0, 58, 37
1, 22560, Note_on_c, 0, 48, 30
1, 22606, Control_c, 0, 64, 127
1, 22620, Note_on_c, 0, 74, 0
1, 22620, Note_on_c, 0, 72, 58
1, 22680, Tempo, 448163
1, 22680, Note_on_c, 0, 72, 0
1, 22680, Note_on_c, 0, 58, 0
1, 22680, Note_on_c, 0, 74, 64
1, 22680, Note_on_c, 0, 52, 34
1, 22740, Note_on_c, 0, 74, 0
1, 22740, Note_on_c, 0, 72, 53
1, 22800, Note_on_c, 0, 48, 0
1, 22800, Note_on_c, 0, 52, 0
1, 22800, Note_on_c, 0, 67, 0
1, 22800, Note_on_c, 0, 79, 65
1, 22800, Note_on_c, 0, 36, 30
1, 22811, Control_c, 0, 64, 0
1, 22920, Tempo, 469153
1, 22920, Note_on_c, 0, 36, 0
1, 22920, Note_on_c, 0, 79, 0
1, 22920, Note_on_c, 0, 72, 0
1, 23040, Tempo, 402685
1, 23040, Note_on_c, 0, 65, 54
1, 23040, Note_on_c, 0, 74, 80
1, 23040, Control_c, 0, 64, 127
1, 23040, Note_on_c, 0, 57, 40
1, 23040, Note_on_c, 0, 48, 33
1, 23100, Note_on_c, 0, 74, 0
1, 23100, Note_on_c, 0, 72, 59
1, 23160, Tempo, 459770
1, 23160, Note_on_c, 0, 72, 0
1, 23160, Note_on_c, 0, 57, 0
1, 23160, Note_on_c, 0, 74, 66
1, 23160, Note_on_c, 0, 53, 37
1, 23220, Note_on_c, 0, 74, 0
1, 23220, Note_on_c, 0, 72, 57
1, 23280, Note_on_c, 0, 48, 0
1, 23280, Note_on_c, 0, 53, 0
1, 23280, Note_on_c, 0, 65, 0
1, 23280, Note_on_c, 0, 77, 71
1, 23280, Note_on_c, 0, 41, 32
1, 23400, Tempo, 489796
1, 23400, Note_on_c, 0, 41, 0
1, 23400, Note_on_c, 0, 77, 0
1, 23400, Note_on_c, 0, 72, 0
1, 23520, Tempo, 413793
1, 23520, Note_on_c, 0, 77, 51
1, 23520, Note_on_c, 0, 86, 72
1, 23520, Note_on_c, 0, 69, 38
1, 23520, Note_on_c, 0, 60, 31
1, 23580, Note_on_c, 0, 86, 0
1, 23580, Note_on_c, 0, 84, 55
1, 23640, Tempo, 480000
1, 23640, Note_on_c, 0, 84, 0
1, 23640, Note_on_c, 0, 69, 0
1, 23640, Note_on_c, 0, 86, 61
1, 23640, Note_on_c, 0, 65, 35
1, 23700, Note_on_c, 0, 86, 0
1, 23700, Note_on_c, 0, 84, 51
1, 23760, Note_on_c, 0, 60, 0
1, 23760, Note_on_c, 0, 65, 0
1, 23760, Note_on_c, 0, 77, 0
1, 23760, Note_on_c, 0, 89, 65
1, 23760, Note_on_c, 0, 53, 28
1, 23880, Tempo, 517241
1, 23880, Note_on_c, 0, 53, 0
1, 23880, Note_on_c, 0, 89, 0
1, 23880, Note_on_c, 0, 84, 0
1, 24000, Tempo, 425200
1, 24000, Note_on_c, 0, 89, 51
1, 24000, Note_on_c, 0, 98, 75
1, 24000, Note_on_c, 0, 81, 38
1, 24000, Note_on_c, 0, 72, 31
1, 24060, Note_on_c, 0, 98, 0
1, 24060, Note_on_c, 0, 96, 60
1, 24120, Tempo, 464288
1, 24120, Note_on_c, 0, 96, 0
1, 24120, Note_on_c, 0, 81, 0
1, 24120, Note_on_c, 0, 98, 66
1, 24120, Note_on_c, 0, 77, 35
1, 24180, Note_on_c, 0, 98, 0
1, 24180, Note_on_c, 0, 96, 58
1, 24240, Tempo, 591133
1, 24240, Note_on_c, 0, 72, 0
1, 24240, Note_on_c, 0, 77, 0
1, 24240, Note_on_c, 0, 89, 0
1, 24240, Note_on_c, 0, 101, 71
1, 24240, Note_on_c, 0, 65, 30
1, 24360, Note_on_c, 0, 65, 0
1, 24360, Note_on_c, 0, 101, 0
1, 24360, Note_on_c, 0, 96, 0
1, 24367, Control_c, 0, 64, 0
1, 24480, Tempo, 388199
1, 24480, Note_on_c, 0, 67, 39
1, 24480, Note_on_c, 0, 74, 58
1, 24480, Note_on_c, 0, 64, 30
1, 24480, Note_on_c, 0, 55, 25
1, 24501, Control_c, 0, 64, 127
1, 24600, Tempo, 453858
1, 24600, Note_on_c, 0, 64, 0
1, 24600, Note_on_c, 0, 74, 0
1, 24600, Note_on_c, 0, 72, 47
1, 24600, Note_on_c, 0, 60, 31
1, 24720, Note_on_c, 0, 60, 0
1, 24720, Note_on_c, 0, 55, 0
1, 24720, Note_on_c, 0, 67, 0
1, 24720, Note_on_c, 0, 79, 65
1, 24720, Note_on_c, 0, 48, 31
1, 24840, Tempo, 481928
1, 24960, Tempo, 388199
1, 24960, Note_on_c, 0, 48, 0
1, 24960, Note_on_c, 0, 79, 0
1, 24960, Note_on_c, 0, 72, 0
1, 24960, Note_on_c, 0, 67, 37
1, 24960, Note_on_c, 0, 74, 56
1, 24960, Note_on_c, 0, 63, 29
1, 24960, Note_on_c, 0, 55, 24
1, 24964, Control_c, 0, 64, 0
1, 25035, Control_c, 0, 64, 127
1, 25080, Tempo, 442152
1, 25080, Note_on_c, 0, 63, 0
1, 25080, Note_on_c, 0, 74, 0
1, 25080, Note_on_c, 0, 72, 44
1, 25080, Note_on_c, 0, 60, 30
1, 25200, Note_on_c, 0, 60, 0
1, 25200, Note_on_c, 0, 55, 0
1, 25200, Note_on_c, 0, 67, 0
1, 25200, Note_on_c, 0, 79, 66
1, 25200, Note_on_c, 0, 48, 30
1, 25320, Tempo, 461432
1, 25440, Tempo, 388199
1, 25440, Note_on_c, 0, 48, 0
1, 25440, Note_on_c, 0, 79, 0
1, 25440, Note_on_c, 0, 72, 0
1, 25440, Note_on_c, 0, 69, 38
1, 25440, Note_on_c, 0, 74, 58
1, 25440, Note_on_c, 0, 65, 31
1, 25440, Note_on_c, 0, 60, 25
1, 25444, Control_c, 0, 64, 0
1, 25509, Control_c, 0, 64, 127
1, 25560, Tempo, 435098
1, 25560, Note_on_c, 0, 65, 0
1, 25560, Note_on_c, 0, 74, 0
1, 25560, Note_on_c, 0, 72, 47
1, 25560, Note_on_c, 0, 63, 32
1, 25680, Note_on_c, 0, 63, 0
1, 25680, Note_on_c, 0, 60, 0
1, 25680, Note_on_c, 0, 69, 0
1, 25680, Note_on_c, 0, 81, 70
1, 25680, Note_on_c, 0, 53, 31
1, 25800, Tempo, 462107
1, 25920, Tempo, 389509
1, 25920, Note_on_c, 0, 53, 0
1, 25920, Note_on_c, 0, 81, 0
1, 25920, Note_on_c, 0, 72, 0
1, 25920, Note_on_c, 0, 65, 42
1, 25920, Note_on_c, 0, 72, 61
1, 25920, Note_on_c, 0, 63, 31
1, 25920, Note_on_c, 0, 53, 26
1, 25924, Control_c, 0, 64, 0
1, 26017, Control_c, 0, 64, 127
1, 26040, Tempo, 442804
1, 26040, Note_on_c, 0, 63, 0
1, 26040, Note_on_c, 0, 72, 0
1, 26040, Note_on_c, 0, 70, 47
1, 26040, Note_on_c, 0, 58, 32
1, 26160, Note_on_c, 0, 58, 0
1, 26160, Note_on_c, 0, 53, 0
1, 26160, Note_on_c, 0, 65, 0
1, 26160, Note_on_c, 0, 82, 64
1, 26160, Note_on_c, 0, 46, 31
1, 26280, Tempo, 462107
1, 26400, Tempo, 388199
1, 26400, Note_on_c, 0, 46, 0
1, 26400, Note_on_c, 0, 82, 0
1, 26400, Note_on_c, 0, 70, 0
1, 26400, Note_on_c, 0, 65, 34
1, 26400, Note_on_c, 0, 72, 52
1, 26400, Note_on_c, 0, 62, 29
1, 26400, Note_on_c, 0, 53, 23
1, 26406, Control_c, 0, 64, 0
1, 26464, Control_c, 0, 64, 127
1, 26520, Tempo, 444444
1, 26520, Note_on_c, 0, 62, 0
1, 26520, Note_on_c, 0, 72, 0
1, 26520, Note_on_c, 0, 70, 44
1, 26520, Note_on_c, 0, 58, 30
1, 26640, Note_on_c, 0, 58, 0
1, 26640, Note_on_c, 0, 53, 0
1, 26640, Note_on_c, 0, 65, 0
1, 26640, Note_on_c, 0, 77, 59
1, 26640, Note_on_c, 0, 46, 29
1, 26760, Tempo, 460653
1, 26880, Tempo, 389509
1, 26880, Note_on_c, 0, 46, 0
1, 26880, Note_on_c, 0, 77, 0
1, 26880, Note_on_c, 0, 70, 0
1, 26880, Note_on_c, 0, 65, 32
1, 26880, Note_on_c, 0, 72, 50
1, 26880, Note_on_c, 0, 62, 29
1, 26880, Note_on_c, 0, 53, 24
1, 27000, Tempo, 447761
1, 27000, Note_on_c, 0, 62, 0
1, 27000, Note_on_c, 0, 72, 0
1, 27000, Note_on_c, 0, 70, 44
1, 27000, Note_on_c, 0, 58, 30
1, 27120, Note_on_c, 0, 58, 0
1, 27120, Note_on_c, 0, 53, 0
1, 27120, Note_on_c, 0, 65, 0
1, 27120, Note_on_c, 0, 77, 59
1, 27120, Note_on_c, 0, 46, 29
1, 27240, Tempo, 452318
1, 27360, Tempo, 388199
1, 27360, Note_on_c, 0, 46, 0
1, 27360, Note_on_c, 0, 77, 0
1, 27360, Note_on_c, 0, 70, 0
1, 27360, Note_on_c, 0, 65, 38
1, 27360, Note_on_c, 0, 72, 56
1, 27360, Control_c, 0, 64, 0
1, 27360, Note_on_c, 0, 61, 30
1, 27360, Note_on_c, 0, 53, 24
1, 27429, Control_c, 0, 64, 127
1, 27480, Tempo, 446462
1, 27480, Note_on_c, 0, 61, 0
1, 27480, Note_on_c, 0, 72, 0
1, 27480, Note_on_c, 0, 70, 47
1, 27480, Note_on_c, 0, 58, 31
1, 27600, Note_on_c, 0, 58, 0
1, 27600, Note_on_c, 0, 53, 0
1, 27600, Note_on_c, 0, 65, 0
1, 27600, Note_on_c, 0, 77, 65
1, 27600, Note_on_c, 0, 46, 31
1, 27720, Tempo, 481928
1, 27840, Tempo, 388199
1, 27840, Note_on_c, 0, 46, 0
1, 27840, Note_on_c, 0, 77, 0
1, 27840, Note_on_c, 0, 70, 0
1, 27840, Note_on_c, 0, 65, 37
1, 27840, Note_on_c, 0, 72, 56
1, 27840, Note_on_c, 0, 61, 29
1, 27840, Note_on_c, 0, 53, 24
1, 27844, Control_c, 0, 64, 0
1, 27909, Control_c, 0, 64, 127
1, 27960, Tempo, 438468
1, 27960, Note_on_c, 0, 61, 0
1, 27960, Note_on_c, 0, 72, 0
1, 27960, Note_on_c, 0, 70, 44
1, 27960, Note_on_c, 0, 58, 30
1, 28080, Note_on_c, 0, 58, 0
1, 28080, Note_on_c, 0, 53, 0
1, 28080, Note_on_c, 0, 65, 0
1, 28080, Note_on_c, 0, 77, 66
1, 28080, Note_on_c, 0, 46, 30
1, 28200, Tempo, 461432
1, 28320, Tempo, 388199
1, 28320, Note_on_c, 0, 46, 0
1, 28320, Note_on_c, 0, 77, 0
1, 28320, Note_on_c, 0, 70, 0
1, 28320, Note_on_c, 0, 67, 38
1, 28320, Note_on_c, 0, 72, 58
1, 28320, Note_on_c, 0, 61, 31
1, 28320, Note_on_c, 0, 51, 25
1, 28328, Control_c, 0, 64, 0
1, 28400, Control_c, 0, 64, 127
1, 28440, Tempo, 435098
1, 28440, Note_on_c, 0, 61, 0
1, 28440, Note_on_c, 0, 72, 0
1, 28440, Note_on_c, 0, 70, 47
1, 28440, Note_on_c, 0, 58, 32
1, 28560, Note_on_c, 0, 58, 0
1, 28560, Note_on_c, 0, 51, 0
1, 28560, Note_on_c, 0, 67, 0
1, 28560, Note_on_c, 0, 79, 70
1, 28560, Note_on_c, 0, 39, 31
1, 28680, Tempo, 462107
1, 28800, Tempo, 389509
1, 28800, Note_on_c, 0, 39, 0
1, 28800, Note_on_c, 0, 79, 0
1, 28800, Note_on_c, 0, 70, 0
1, 28800, Note_on_c, 0, 63, 42
1, 28800, Note_on_c, 0, 70, 61
1, 28800, Control_c, 0, 64, 0
1, 28800, Note_on_c, 0, 61, 31
1, 28800, Note_on_c, 0, 51, 26
1, 28897, Control_c, 0, 64, 127
1, 28920, Tempo, 442804
1, 28920, Note_on_c, 0, 61, 0
1, 28920, Note_on_c, 0, 70, 0
1, 28920, Note_on_c, 0, 68, 47
1, 28920, Note_on_c, 0, 56, 32
1, 29040, Note_on_c, 0, 56, 0
1, 29040, Note_on_c, 0, 51, 0
1, 29040, Note_on_c, 0, 63, 0
1, 29040, Note_on_c, 0, 80, 64
1, 29040, Note_on_c, 0, 44, 31
1, 29160, Tempo, 462107
1, 29280, Tempo, 388199
1, 29280, Note_on_c, 0, 44, 0
1, 29280, Note_on_c, 0, 80, 0
1, 29280, Note_on_c, 0, 68, 0
1, 29280, Note_on_c, 0, 63, 34
1, 29280, Note_on_c, 0, 70, 52
1, 29280, Note_on_c, 0, 60, 29
1, 29280, Note_on_c, 0, 51, 23
1, 29286, Control_c, 0, 64, 0
1, 29344, Control_c, 0, 64, 127
1, 29400, Tempo, 446097
1, 29400, Note_on_c, 0, 60, 0
1, 29400, Note_on_c, 0, 70, 0
1, 29400, Note_on_c, 0, 68, 44
1, 29400, Note_on_c, 0, 56, 30
1, 29520, Note_on_c, 0, 56, 0
1, 29520, Note_on_c, 0, 51, 0
1, 29520, Note_on_c, 0, 63, 0
1, 29520, Note_on_c, 0, 75, 59
1, 29520, Note_on_c, 0, 44, 29
1, 29640, Tempo, 460653
1, 29760, Tempo, 389509
1, 29760, Note_on_c, 0, 44, 0
1, 29760, Note_on_c, 0, 75, 0
1, 29760, Note_on_c, 0, 68, 0
1, 29760, Note_on_c, 0, 63, 32
1, 29760, Note_on_c, 0, 70, 50
1, 29760, Note_on_c, 0, 60, 29
1, 29760, Note_on_c, 0, 51, 24
1, 29880, Tempo, 447761
1, 29880, Note_on_c, 0, 60, 0
1, 29880, Note_on_c, 0, 70, 0
1, 29880, Note_on_c, 0, 68, 44
1, 29880, Note_on_c, 0, 56, 30
1, 30000, Note_on_c, 0, 56, 0
1, 30000, Note_on_c, 0, 51, 0
1, 30000, Note_on_c, 0, 63, 0
1, 30000, Note_on_c, 0, 75, 59
1, 30000, Note_on_c, 0, 44, 29
1, 30120, Tempo, 452318
1, 30240, Tempo, 388199
1, 30240, Note_on_c, 0, 44, 0
1, 30240, Note_on_c, 0, 75, 0
1, 30240, Note_on_c, 0, 68, 0
1, 30240, Note_on_c, 0, 63, 38
1, 30240, Note_on_c, 0, 70, 56
1, 30240, Control_c, 0, 64, 0
1, 30240, Note_on_c, 0, 60, 30
1, 30240, Note_on_c, 0, 51, 24
1, 30309, Control_c, 0, 64, 127
1, 30360, Tempo, 446462
1, 30360, Note_on_c, 0, 60, 0
1, 30360, Note_on_c, 0, 70, 0
1, 30360, Note_on_c, 0, 68, 47
1, 30360, Note_on_c, 0, 56, 31
1, 30480, Note_on_c, 0, 56, 0
1, 30480, Note_on_c, 0, 51, 0
1, 30480, Note_on_c, 0, 63, 0
1, 30480, Note_on_c, 0, 75, 65
1, 30480, Note_on_c, 0, 43, 31
1, 30600, Tempo, 481928
1, 30720, Tempo, 388199
1, 30720, Note_on_c, 0, 43, 0
1, 30720, Note_on_c, 0, 75, 0
1, 30720, Note_on_c, 0, 68, 0
1, 30720, Note_on_c, 0, 63, 37
1, 30720, Note_on_c, 0, 70, 56
1, 30720, Note_on_c, 0, 60, 29
1, 30720, Note_on_c, 0, 51, 24
1, 30727, Control_c, 0, 64, 0
1, 30772, Control_c, 0, 64, 127
1, 30840, Tempo, 438468
1, 30840, Note_on_c, 0, 60, 0
1, 30840, Note_on_c, 0, 70, 0
1, 30840, Note_on_c, 0, 68, 44
1, 30840, Note_on_c, 0, 56, 30
1, 30960, Note_on_c, 0, 56, 0
1, 30960, Note_on_c, 0, 51, 0
1, 30960, Note_on_c, 0, 63, 0
1, 30960, Note_on_c, 0, 75, 66
1, 30960, Note_on_c, 0, 43, 30
1, 31080, Tempo, 461432
1, 31200, Tempo, 388199
1, 31200, Note_on_c, 0, 43, 0
1, 31200, Note_on_c, 0, 75, 0
1, 31200, Note_on_c, 0, 68, 0
1, 31200, Note_on_c, 0, 63, 40
1, 31200, Note_on_c, 0, 70, 59
1, 31200, Note_on_c, 0, 60, 31
1, 31200, Note_on_c, 0, 51, 25
1, 31210, Control_c, 0, 64, 0
1, 31297, Control_c, 0, 64, 127
1, 31320, Tempo, 449438
1, 31320, Note_on_c, 0, 60, 0
1, 31320, Note_on_c, 0, 70, 0
1, 31320, Note_on_c, 0, 68, 47
1, 31320, Note_on_c, 0, 56, 32
1, 31440, Note_on_c, 0, 56, 0
1, 31440, Note_on_c, 0, 51, 0
1, 31440, Note_on_c, 0, 63, 0
1, 31440, Note_on_c, 0, 77, 68
1, 31440, Note_on_c, 0, 43, 31
1, 31560, Tempo, 462107
1, 31680, Tempo, 389509
1, 31680, Note_on_c, 0, 43, 0
1, 31680, Note_on_c, 0, 77, 0
1, 31680, Note_on_c, 0, 68, 0
1, 31680, Note_on_c, 0, 63, 33
1, 31680, Note_on_c, 0, 68, 58
1, 31680, Control_c, 0, 64, 0
1, 31680, Note_on_c, 0, 60, 27
1, 31680, Note_on_c, 0, 50, 23
1, 31777, Control_c, 0, 64, 127
1, 31800, Tempo, 458015
1, 31800, Note_on_c, 0, 60, 0
1, 31800, Note_on_c, 0, 68, 0
1, 31800, Note_on_c, 0, 67, 46
1, 31800, Note_on_c, 0, 55, 31
1, 31920, Note_on_c, 0, 55, 0
1, 31920, Note_on_c, 0, 50, 0
1, 31920, Note_on_c, 0, 63, 0
1, 31920, Note_on_c, 0, 75, 61
1, 31920, Note_on_c, 0, 43, 30
1, 32040, Tempo, 478088
1, 32160, Tempo, 388199
1, 32160, Note_on_c, 0, 43, 0
1, 32160, Note_on_c, 0, 75, 0
1, 32160, Note_on_c, 0, 67, 0
1, 32160, Note_on_c, 0, 62, 30
1, 32160, Note_on_c, 0, 68, 52
1, 32160, Note_on_c, 0, 59, 29
1, 32160, Note_on_c, 0, 50, 23
1, 32166, Control_c, 0, 64, 0
1, 32224, Control_c, 0, 64, 127
1, 32280, Tempo, 452830
1, 32280, Note_on_c, 0, 59, 0
1, 32280, Note_on_c, 0, 68, 0
1, 32280, Note_on_c, 0, 67, 44
1, 32280, Note_on_c, 0, 55, 30
1, 32400, Note_on_c, 0, 55, 0
1, 32400, Note_on_c, 0, 50, 0
1, 32400, Note_on_c, 0, 62, 0
1, 32400, Note_on_c, 0, 74, 59
1, 32400, Note_on_c, 0, 43, 29
1, 32520, Tempo, 460653
1, 32640, Tempo, 389509
1, 32640, Note_on_c, 0, 43, 0
1, 32640, Note_on_c, 0, 74, 0
1, 32640, Note_on_c, 0, 67, 0
1, 32640, Note_on_c, 0, 62, 27
1, 32640, Note_on_c, 0, 68, 50
1, 32640, Note_on_c, 0, 59, 29
1, 32640, Note_on_c, 0, 50, 24
1, 32760, Tempo, 456274
1, 32760, Note_on_c, 0, 59, 0
1, 32760, Note_on_c, 0, 68, 0
1, 32760, Note_on_c, 0, 67, 44
1, 32760, Note_on_c, 0, 55, 30
1, 32880, Note_on_c, 0, 55, 0
1, 32880, Note_on_c, 0, 50, 0
1, 32880, Note_on_c, 0, 62, 0
1, 32880, Note_on_c, 0, 74, 59
1, 32880, Note_on_c, 0, 43, 29
1, 33000, Tempo, 478088
1, 33120, Tempo, 388199
1, 33120, Note_on_c, 0, 43, 0
1, 33120, Note_on_c, 0, 74, 0
1, 33120, Note_on_c, 0, 67, 0
1, 33120, Note_on_c, 0, 63, 28
1, 33120, Note_on_c, 0, 70, 48
1, 33120, Control_c, 0, 64, 0
1, 33120, Note_on_c, 0, 60, 25
1, 33120, Note_on_c, 0, 51, 18
1, 33189, Control_c, 0, 64, 127
1, 33240, Tempo, 446462
1, 33240, Note_on_c, 0, 60, 0
1, 33240, Note_on_c, 0, 70, 0
1, 33240, Note_on_c, 0, 68, 38
1, 33240, Note_on_c, 0, 56, 26
1, 33360, Note_on_c, 0, 56, 0
1, 33360, Note_on_c, 0, 51, 0
1, 33360, Note_on_c, 0, 63, 0
1, 33360, Note_on_c, 0, 75, 55
1, 33360, Note_on_c, 0, 43, 26
1, 33480, Tempo, 481928
1, 33600, Tempo, 388199
1, 33600, Note_on_c, 0, 43, 0
1, 33600, Note_on_c, 0, 75, 0
1, 33600, Note_on_c, 0, 68, 0
1, 33600, Note_on_c, 0, 75, 34
1, 33600, Note_on_c, 0, 82, 52
1, 33600, Note_on_c, 0, 72, 28
1, 33600, Note_on_c, 0, 63, 22
1, 33608, Control_c, 0, 64, 0
1, 33675, Control_c, 0, 64, 127
1, 33720, Tempo, 438468
1, 33720, Note_on_c, 0, 72, 0
1, 33720, Note_on_c, 0, 82, 0
1, 33720, Note_on_c, 0, 80, 42
1, 33720, Note_on_c, 0, 68, 29
1, 33840, Note_on_c, 0, 68, 0
1, 33840, Note_on_c, 0, 63, 0
1, 33840, Note_on_c, 0, 75, 0
1, 33840, Note_on_c, 0, 87, 64
1, 33840, Note_on_c, 0, 55, 28
1, 33960, Tempo, 461432
1, 34080, Tempo, 388199
1, 34080, Note_on_c, 0, 55, 0
1, 34080, Note_on_c, 0, 87, 0
1, 34080, Note_on_c, 0, 80, 0
1, 34080, Note_on_c, 0, 75, 38
1, 34080, Note_on_c, 0, 82, 58
1, 34080, Note_on_c, 0, 72, 29
1, 34080, Note_on_c, 0, 63, 23
1, 34087, Control_c, 0, 64, 0
1, 34149, Control_c, 0, 64, 127
1, 34200, Tempo, 449438
1, 34200, Note_on_c, 0, 72, 0
1, 34200, Note_on_c, 0, 82, 0
1, 34200, Note_on_c, 0, 80, 45
1, 34200, Note_on_c, 0, 68, 30
1, 34320, Note_on_c, 0, 68, 0
1, 34320, Note_on_c, 0, 63, 0
1, 34320, Note_on_c, 0, 75, 0
1, 34320, Note_on_c, 0, 89, 66
1, 34320, Note_on_c, 0, 55, 29
1, 34440, Tempo, 462107
1, 34560, Tempo, 389509
1, 34560, Note_on_c, 0, 55, 0
1, 34560, Note_on_c, 0, 89, 0
1, 34560, Note_on_c, 0, 80, 0
1, 34560, Note_on_c, 0, 75, 37
1, 34560, Note_on_c, 0, 80, 56
1, 34560, Note_on_c, 0, 72, 28
1, 34560, Note_on_c, 0, 62, 23
1, 34562, Control_c, 0, 64, 0
1, 34657, Control_c, 0, 64, 127
1, 34680, Tempo, 444444
1, 34680, Note_on_c, 0, 72, 0
1, 34680, Note_on_c, 0, 80, 0
1, 34680, Note_on_c, 0, 79, 44
1, 34680, Note_on_c, 0, 67, 29
1, 34800, Note_on_c, 0, 67, 0
1, 34800, Note_on_c, 0, 62, 0
1, 34800, Note_on_c, 0, 75, 0
1, 34800, Note_on_c, 0, 87, 58
1, 34800, Note_on_c, 0, 55, 28
1, 34920, Tempo, 462107
1, 35040, Tempo, 388199
1, 35040, Note_on_c, 0, 55, 0
1, 35040, Note_on_c, 0, 87, 0
1, 35040, Note_on_c, 0, 79, 0
1, 35040, Note_on_c, 0, 74, 33
1, 35040, Note_on_c, 0, 80, 50
1, 35040, Note_on_c, 0, 71, 28
1, 35040, Note_on_c, 0, 62, 21
1, 35046, Control_c, 0, 64, 0
1, 35104, Control_c, 0, 64, 127
1, 35160, Tempo, 462606
1, 35160, Note_on_c, 0, 71, 0
1, 35160, Note_on_c, 0, 80, 0
1, 35160, Note_on_c, 0, 79, 42
1, 35160, Note_on_c, 0, 67, 29
1, 35280, Note_on_c, 0, 67, 0
1, 35280, Note_on_c, 0, 62, 0
1, 35280, Note_on_c, 0, 74, 0
1, 35280, Note_on_c, 0, 86, 57
1, 35280, Note_on_c, 0, 55, 27
1, 35400, Tempo, 460653
1, 35520, Tempo, 389509
1, 35520, Note_on_c, 0, 55, 0
1, 35520, Note_on_c, 0, 86, 0
1, 35520, Note_on_c, 0, 79, 0
1, 35520, Note_on_c, 0, 74, 29
1, 35520, Note_on_c, 0, 80, 49
1, 35520, Note_on_c, 0, 71, 28
1, 35520, Note_on_c, 0, 62, 22
1, 35640, Tempo, 468019
1, 35640, Note_on_c, 0, 71, 0
1, 35640, Note_on_c, 0, 80, 0
1, 35640, Note_on_c, 0, 79, 42
1, 35640, Note_on_c, 0, 67, 29
1, 35760, Note_on_c, 0, 67, 0
1, 35760, Note_on_c, 0, 62, 0
1, 35760, Note_on_c, 0, 74, 0
1, 35760, Note_on_c, 0, 86, 57
1, 35760, Note_on_c, 0, 55, 27
1, 35880, Tempo, 452318
1, 36000, Tempo, 388199
1, 36000, Note_on_c, 0, 55, 0
1, 36000, Note_on_c, 0, 86, 0
1, 36000, Note_on_c, 0, 79, 0
1, 36000, Note_on_c, 0, 74, 34
1, 36000, Note_on_c, 0, 79, 50
1, 36000, Control_c, 0, 64, 0
1, 36000, Note_on_c, 0, 71, 27
1, 36000, Note_on_c, 0, 62, 19
1, 36069, Control_c, 0, 64, 127
1, 36120, Tempo, 446462
1, 36120, Note_on_c, 0, 71, 0
1, 36120, Note_on_c, 0, 79, 0
1, 36120, Note_on_c, 0, 78, 42
1, 36120, Note_on_c, 0, 66, 28
1, 36240, Note_on_c, 0, 66, 0
1, 36240, Note_on_c, 0, 62, 0
1, 36240, Note_on_c, 0, 74, 0
1, 36240, Note_on_c, 0, 86, 59
1, 36240, Note_on_c, 0, 54, 27
1, 36360, Tempo, 481928
1, 36480, Tempo, 388199
1, 36480, Note_on_c, 0, 54, 0
1, 36480, Note_on_c, 0, 86, 0
1, 36480, Note_on_c, 0, 78, 0
1, 36480, Note_on_c, 0, 62, 30
1, 36480, Note_on_c, 0, 67, 47
1, 36480, Note_on_c, 0, 59, 25
1, 36480, Note_on_c, 0, 50, 18
1, 36488, Control_c, 0, 64, 0
1, 36555, Control_c, 0, 64, 127
1, 36600, Tempo, 438468
1, 36600, Note_on_c, 0, 59, 0
1, 36600, Note_on_c, 0, 67, 0
1, 36600, Note_on_c, 0, 66, 36
1, 36600, Note_on_c, 0, 54, 26
1, 36720, Note_on_c, 0, 54, 0
1, 36720, Note_on_c, 0, 50, 0
1, 36720, Note_on_c, 0, 62, 0
1, 36720, Note_on_c, 0, 74, 57
1, 36720, Note_on_c, 0, 42, 25
1, 36840, Tempo, 461432
1, 36960, Tempo, 388199
1, 36960, Note_on_c, 0, 42, 0
1, 36960, Note_on_c, 0, 74, 0
1, 36960, Note_on_c, 0, 66, 0
1, 36960, Note_on_c, 0, 64, 33
1, 36960, Note_on_c, 0, 67, 51
1, 36960, Note_on_c, 0, 61, 26
1, 36960, Note_on_c, 0, 50, 19
1, 36967, Control_c, 0, 64, 0
1, 37040, Control_c, 0, 64, 127
1, 37080, Tempo, 435098
1, 37080, Note_on_c, 0, 61, 0
1, 37080, Note_on_c, 0, 67, 0
1, 37080, Note_on_c, 0, 66, 38
1, 37080, Note_on_c, 0, 54, 27
1, 37200, Note_on_c, 0, 54, 0
1, 37200, Note_on_c, 0, 50, 0
1, 37200, Note_on_c, 0, 64, 0
1, 37200, Note_on_c, 0, 76, 59
1, 37200, Note_on_c, 0, 42, 26
1, 37320, Tempo, 462107
1, 37440, Tempo, 389509
1, 37440, Note_on_c, 0, 42, 0
1, 37440, Note_on_c, 0, 76, 0
1, 37440, Note_on_c, 0, 66, 0
1, 37440, Note_on_c, 0, 62, 33
1, 37440, Note_on_c, 0, 67, 50
1, 37440, Note_on_c, 0, 59, 25
1, 37440, Note_on_c, 0, 49, 19
1, 37445, Control_c, 0, 64, 0
1, 37537, Control_c, 0, 64, 127
1, 37560, Tempo, 444444
1, 37560, Note_on_c, 0, 59, 0
1, 37560, Note_on_c, 0, 67, 0
1, 37560, Note_on_c, 0, 66, 37
1, 37560, Note_on_c, 0, 54, 26
1, 37680, Note_on_c, 0, 54, 0
1, 37680, Note_on_c, 0, 49, 0
1, 37680, Note_on_c, 0, 62, 0
1, 37680, Note_on_c, 0, 74, 51
1, 37680, Note_on_c, 0, 42, 25
1, 37800, Tempo, 462107
1, 37920, Tempo, 388199
1, 37920, Note_on_c, 0, 42, 0
1, 37920, Note_on_c, 0, 74, 0
1, 37920, Note_on_c, 0, 66, 0
1, 37920, Note_on_c, 0, 61, 29
1, 37920, Note_on_c, 0, 67, 46
1, 37920, Note_on_c, 0, 58, 25
1, 37920, Note_on_c, 0, 49, 18
1, 37926, Control_c, 0, 64, 0
1, 37984, Control_c, 0, 64, 127
1, 38040, Tempo, 446097
1, 38040, Note_on_c, 0, 58, 0
1, 38040, Note_on_c, 0, 67, 0
1, 38040, Note_on_c, 0, 66, 36
1, 38040, Note_on_c, 0, 54, 26
1, 38160, Note_on_c, 0, 54, 0
1, 38160, Note_on_c, 0, 49, 0
1, 38160, Note_on_c, 0, 61, 0
1, 38160, Note_on_c, 0, 73, 51
1, 38160, Note_on_c, 0, 42, 24
1, 38280, Tempo, 460653
1, 38400, Tempo, 389509
1, 38400, Note_on_c, 0, 42, 0
1, 38400, Note_on_c, 0, 73, 0
1, 38400, Note_on_c, 0, 66, 0
1, 38400, Note_on_c, 0, 61, 27
1, 38400, Note_on_c, 0, 67, 43
1, 38400, Note_on_c, 0, 58, 25
1, 38400, Note_on_c, 0, 49, 18
1, 38520, Tempo, 447761
1, 38520, Note_on_c, 0, 58, 0
1, 38520, Note_on_c, 0, 67, 0
1, 38520, Note_on_c, 0, 66, 36
1, 38520, Note_on_c, 0, 54, 26
1, 38640, Note_on_c, 0, 54, 0
1, 38640, Note_on_c, 0, 49, 0
1, 38640, Note_on_c, 0, 61, 0
1, 38640, Note_on_c, 0, 73, 51
1, 38640, Note_on_c, 0, 42, 24
1, 38760, Tempo, 480808
1, 38880, Tempo, 394737
1, 38880, Note_on_c, 0, 42, 0
1, 38880, Note_on_c, 0, 73, 0
1, 38880, Note_on_c, 0, 66, 0
1, 38880, Note_on_c, 0, 59, 37
1, 38880, Note_on_c, 0, 67, 56
1, 38880, Control_c, 0, 64, 0
1, 38880, Note_on_c, 0, 55, 29
1, 38880, Note_on_c, 0, 50, 23
1, 38949, Control_c, 0, 64, 127
1, 39000, Tempo, 446462
1, 39000, Note_on_c, 0, 55, 0
1, 39000, Note_on_c, 0, 67, 0
1, 39000, Note_on_c, 0, 66, 47
1, 39000, Note_on_c, 0, 54, 30
1, 39120, Note_on_c, 0, 54, 0
1, 39120, Note_on_c, 0, 50, 0
1, 39120, Note_on_c, 0, 59, 0
1, 39120, Note_on_c, 0, 71, 65
1, 39120, Note_on_c, 0, 42, 30
1, 39240, Tempo, 481928
1, 39360, Tempo, 400000
1, 39360, Note_on_c, 0, 42, 0
1, 39360, Note_on_c, 0, 71, 0
1, 39360, Note_on_c, 0, 66, 0
1, 39360, Note_on_c, 0, 59, 36
1, 39360, Note_on_c, 0, 67, 56
1, 39360, Note_on_c, 0, 55, 29
1, 39360, Note_on_c, 0, 50, 23
1, 39367, Control_c, 0, 64, 0
1, 39435, Control_c, 0, 64, 127
1, 39480, Tempo, 448766
1, 39480, Note_on_c, 0, 55, 0
1, 39480, Note_on_c, 0, 67, 0
1, 39480, Note_on_c, 0, 66, 44
1, 39480, Note_on_c, 0, 54, 31
1, 39600, Note_on_c, 0, 54, 0
1, 39600, Note_on_c, 0, 50, 0
1, 39600, Note_on_c, 0, 59, 0
1, 39600, Note_on_c, 0, 71, 67
1, 39600, Note_on_c, 0, 42, 29
1, 39720, Tempo, 461432
1, 39840, Tempo, 418118
1, 39840, Note_on_c, 0, 42, 0
1, 39840, Note_on_c, 0, 71, 0
1, 39840, Note_on_c, 0, 66, 0
1, 39840, Note_on_c, 0, 61, 38
1, 39840, Note_on_c, 0, 67, 60
1, 39840, Note_on_c, 0, 55, 31
1, 39840, Note_on_c, 0, 52, 25
1, 39850, Control_c, 0, 64, 0
1, 39949, Control_c, 0, 64, 127
1, 39960, Tempo, 458015
1, 39960, Note_on_c, 0, 55, 0
1, 39960, Note_on_c, 0, 67, 0
1, 39960, Note_on_c, 0, 66, 47
1, 39960, Note_on_c, 0, 54, 32
1, 39980, Tempo, 466926
1, 40080, Note_on_c, 0, 54, 0
1, 40080, Note_on_c, 0, 52, 0
1, 40080, Note_on_c, 0, 61, 0
1, 40080, Note_on_c, 0, 73, 72
1, 40080, Note_on_c, 0, 42, 31
1, 40200, Tempo, 485830
1, 40320, Tempo, 428571
1, 40320, Note_on_c, 0, 42, 0
1, 40320, Note_on_c, 0, 73, 0
1, 40320, Note_on_c, 0, 66, 0
1, 40320, Note_on_c, 0, 59, 40
1, 40320, Note_on_c, 0, 67, 61
1, 40320, Note_on_c, 0, 55, 31
1, 40320, Note_on_c, 0, 50, 25
1, 40327, Control_c, 0, 64, 0
1, 40417, Control_c, 0, 64, 127
1, 40440, Tempo, 487013
1, 40440, Note_on_c, 0, 55, 0
1, 40440, Note_on_c, 0, 67, 0
1, 40440, Note_on_c, 0, 66, 47
1, 40440, Note_on_c, 0, 54, 32
1, 40560, Note_on_c, 0, 54, 0
1, 40560, Note_on_c, 0, 50, 0
1, 40560, Note_on_c, 0, 59, 0
1, 40560, Note_on_c, 0, 71, 63
1, 40560, Note_on_c, 0, 42, 29
1, 40680, Tempo, 500000
1, 40800, Tempo, 451128
1, 40800, Note_on_c, 0, 42, 0
1, 40800, Note_on_c, 0, 71, 0
1, 40800, Note_on_c, 0, 66, 0
1, 40800, Note_on_c, 0, 58, 35
1, 40800, Note_on_c, 0, 67, 54
1, 40800, Note_on_c, 0, 55, 29
1, 40800, Note_on_c, 0, 49, 22
1, 40806, Control_c, 0, 64, 0
1, 40864, Control_c, 0, 64, 127
1, 40920, Tempo, 525394
1, 40920, Note_on_c, 0, 55, 0
1, 40920, Note_on_c, 0, 67, 0
1, 40920, Note_on_c, 0, 66, 44
1, 40920, Note_on_c, 0, 54, 30
1, 41040, Note_on_c, 0, 54, 0
1, 41040, Note_on_c, 0, 49, 0
1, 41040, Note_on_c, 0, 58, 0
1, 41040, Note_on_c, 0, 70, 59
1, 41040, Note_on_c, 0, 42, 28
1, 41160, Tempo, 535714
1, 41280, Tempo, 468750
1, 41280, Note_on_c, 0, 42, 0
1, 41280, Note_on_c, 0, 70, 0
1, 41280, Note_on_c, 0, 66, 0
1, 41280, Note_on_c, 0, 58, 31
1, 41280, Note_on_c, 0, 68, 50
1, 41280, Note_on_c, 0, 54, 29
1, 41280, Note_on_c, 0, 49, 23
1, 41400, Tempo, 557103
1, 41400, Note_on_c, 0, 54, 0
1, 41400, Note_on_c, 0, 68, 0
1, 41400, Note_on_c, 0, 66, 43
1, 41400, Note_on_c, 0, 52, 30
1, 41520, Note_on_c, 0, 52, 0
1, 41520, Note_on_c, 0, 49, 0
1, 41520, Note_on_c, 0, 58, 0
1, 41520, Note_on_c, 0, 70, 59
1, 41520, Note_on_c, 0, 42, 27
1, 41640, Tempo, 576923
1, 41674, Control_c, 0, 64, 0
1, 41760, Key_signature, 5, "major"
1, 41760, Tempo, 388199
1, 41760, Note_on_c, 0, 42, 0
1, 41760, Note_on_c, 0, 70, 0
1, 41760, Note_on_c, 0, 66, 0
1, 41760, Note_on_c, 0, 59, 48
1, 41760, Note_on_c, 0, 68, 72
1, 41760, Note_on_c, 0, 51, 42
1, 41820, Control_c, 0, 64, 127
1, 41880, Tempo, 446462
1, 41880, Note_on_c, 0, 51, 0
1, 41880, Note_on_c, 0, 68, 0
1, 41880, Note_on_c, 0, 66, 57
1, 41880, Note_on_c, 0, 42, 38
1, 42000, Note_on_c, 0, 42, 0
1, 42000, Note_on_c, 0, 59, 0
1, 42000, Note_on_c, 0, 71, 78
1, 42000, Note_on_c, 0, 35, 34
1, 42120, Tempo, 481928
1, 42240, Tempo, 388199
1, 42240, Note_on_c, 0, 35, 0
1, 42240, Note_on_c, 0, 71, 0
1, 42240, Note_on_c, 0, 66, 0
1, 42240, Note_on_c, 0, 54, 45
1, 42240, Note_on_c, 0, 61, 66
1, 42240, Note_on_c, 0, 51, 39
1, 42247, Control_c, 0, 64, 0
1, 42284, Control_c, 0, 64, 127
1, 42360, Tempo, 438468
1, 42360, Note_on_c, 0, 51, 0
1, 42360, Note_on_c, 0, 61, 0
1, 42360, Note_on_c, 0, 59, 51
1, 42360, Note_on_c, 0, 42, 36
1, 42480, Note_on_c, 0, 42, 0
1, 42480, Note_on_c, 0, 54, 0
1, 42480, Note_on_c, 0, 66, 74
1, 42480, Note_on_c, 0, 35, 31
1, 42600, Tempo, 461432
1, 42707, Control_c, 0, 64, 0
1, 42720, Tempo, 388199
1, 42720, Note_on_c, 0, 35, 0
1, 42720, Note_on_c, 0, 66, 0
1, 42720, Note_on_c, 0, 59, 0
1, 42720, Note_on_c, 0, 59, 46
1, 42720, Note_on_c, 0, 68, 67
1, 42720, Note_on_c, 0, 51, 39
1, 42812, Control_c, 0, 64, 127
1, 42840, Tempo, 435098
1, 42840, Note_on_c, 0, 51, 0
1, 42840, Note_on_c, 0, 68, 0
1, 42840, Note_on_c, 0, 66, 53
1, 42840, Note_on_c, 0, 42, 36
1, 42960, Note_on_c, 0, 42, 0
1, 42960, Note_on_c, 0, 59, 0
1, 42960, Note_on_c, 0, 71, 78
1, 42960, Note_on_c, 0, 35, 30
1, 43080, Tempo, 462107
1, 43200, Tempo, 389509
1, 43200, Note_on_c, 0, 35, 0
1, 43200, Note_on_c, 0, 71, 0
1, 43200, Note_on_c, 0, 66, 0
1, 43200, Note_on_c, 0, 61, 48
1, 43200, Note_on_c, 0, 68, 72
1, 43200, Control_c, 0, 64, 0
1, 43200, Note_on_c, 0, 52, 42
1, 43242, Control_c, 0, 64, 127
1, 43320, Tempo, 435098
1, 43320, Note_on_c, 0, 52, 0
1, 43320, Note_on_c, 0, 68, 0
1, 43320, Note_on_c, 0, 66, 55
1, 43320, Note_on_c, 0, 42, 38
1, 43440, Note_on_c, 0, 42, 0
1, 43440, Note_on_c, 0, 61, 0
1, 43440, Note_on_c, 0, 73, 81
1, 43440, Note_on_c, 0, 35, 32
1, 43560, Tempo, 462107
1, 43680, Tempo, 388199
1, 43680, Note_on_c, 0, 35, 0
1, 43680, Note_on_c, 0, 73, 0
1, 43680, Note_on_c, 0, 66, 0
1, 43680, Note_on_c, 0, 54, 47
1, 43680, Note_on_c, 0, 63, 66
1, 43680, Note_on_c, 0, 52, 40
1, 43685, Control_c, 0, 64, 0
1, 43744, Control_c, 0, 64, 127
1, 43800, Tempo, 433463
1, 43800, Note_on_c, 0, 52, 0
1, 43800, Note_on_c, 0, 63, 0
1, 43800, Note_on_c, 0, 61, 53
1, 43800, Note_on_c, 0, 42, 37
1, 43920, Note_on_c, 0, 42, 0
1, 43920, Note_on_c, 0, 54, 0
1, 43920, Note_on_c, 0, 66, 75
1, 43920, Note_on_c, 0, 35, 31
1, 44040, Tempo, 460653
1, 44160, Tempo, 389509
1, 44160, Note_on_c, 0, 35, 0
1, 44160, Note_on_c, 0, 66, 0
1, 44160, Note_on_c, 0, 61, 0
1, 44160, Note_on_c, 0, 61, 46
1, 44160, Note_on_c, 0, 68, 67
1, 44160, Note_on_c, 0, 52, 39
1, 44167, Control_c, 0, 64, 0
1, 44224, Control_c, 0, 64, 127
1, 44280, Tempo, 431810
1, 44280, Note_on_c, 0, 52, 0
1, 44280, Note_on_c, 0, 68, 0
1, 44280, Note_on_c, 0, 66, 57
1, 44280, Note_on_c, 0, 42, 36
1, 44400, Note_on_c, 0, 42, 0
1, 44400, Note_on_c, 0, 61, 0
1, 44400, Note_on_c, 0, 73, 76
1, 44400, Note_on_c, 0, 35, 30
1, 44520, Tempo, 452318
1, 44640, Tempo, 388199
1, 44640, Note_on_c, 0, 35, 0
1, 44640, Note_on_c, 0, 73, 0
1, 44640, Note_on_c, 0, 66, 0
1, 44640, Note_on_c, 0, 63, 51
1, 44640, Note_on_c, 0, 68, 75
1, 44640, Note_on_c, 0, 51, 43
1, 44646, Control_c, 0, 64, 0
1, 44709, Control_c, 0, 64, 127
1, 44760, Tempo, 431810
1, 44760, Note_on_c, 0, 51, 0
1, 44760, Note_on_c, 0, 68, 0
1, 44760, Note_on_c, 0, 66, 58
1, 44760, Note_on_c, 0, 42, 39
1, 44880, Note_on_c, 0, 42, 0
1, 44880, Note_on_c, 0, 63, 0
1, 44880, Note_on_c, 0, 75, 78
1, 44880, Note_on_c, 0, 35, 35
1, 45000, Tempo, 452318
1, 45120, Tempo, 386897
1, 45120, Note_on_c, 0, 35, 0
1, 45120, Note_on_c, 0, 75, 0
1, 45120, Note_on_c, 0, 66, 0
1, 45120, Note_on_c, 0, 59, 47
1, 45120, Note_on_c, 0, 68, 69
1, 45120, Note_on_c, 0, 51, 40
1, 45124, Control_c, 0, 64, 0
1, 45171, Control_c, 0, 64, 127
1, 45240, Tempo, 435098
1, 45240, Note_on_c, 0, 51, 0
1, 45240, Note_on_c, 0, 68, 0
1, 45240, Note_on_c, 0, 66, 53
1, 45240, Note_on_c, 0, 42, 37
1, 45360, Note_on_c, 0, 42, 0
1, 45360, Note_on_c, 0, 59, 0
1, 45360, Note_on_c, 0, 71, 76
1, 45360, Note_on_c, 0, 35, 31
1, 45480, Tempo, 462107
1, 45600, Tempo, 388199
1, 45600, Note_on_c, 0, 35, 0
1, 45600, Note_on_c, 0, 71, 0
1, 45600, Note_on_c, 0, 66, 0
1, 45600, Note_on_c, 0, 68, 48
1, 45600, Note_on_c, 0, 75, 70
1, 45600, Note_on_c, 0, 53, 40
1, 45611, Control_c, 0, 64, 0
1, 45692, Control_c, 0, 64, 127
1, 45720, Tempo, 436777
1, 45720, Note_on_c, 0, 53, 0
1, 45720, Note_on_c, 0, 75, 0
1, 45720, Note_on_c, 0, 73, 59
1, 45720, Note_on_c, 0, 47, 37
1, 45840, Note_on_c, 0, 47, 0
1, 45840, Note_on_c, 0, 68, 0
1, 45840, Note_on_c, 0, 80, 76
1, 45840, Note_on_c, 0, 37, 32
1, 45960, Tempo, 469153
1, 46080, Tempo, 388199
1, 46080, Note_on_c, 0, 37, 0
1, 46080, Note_on_c, 0, 80, 0
1, 46080, Note_on_c, 0, 73, 0
1, 46080, Note_on_c, 0, 61, 51
1, 46080, Note_on_c, 0, 68, 75
1, 46080, Note_on_c, 0, 58, 44
1, 46080, Note_on_c, 0, 49, 36
1, 46083, Control_c, 0, 64, 0
1, 46186, Control_c, 0, 64, 127
1, 46200, Tempo, 436777
1, 46200, Note_on_c, 0, 58, 0
1, 46200, Note_on_c, 0, 68, 0
1, 46200, Note_on_c, 0, 66, 63
1, 46200, Note_on_c, 0, 52, 40
1, 46320, Note_on_c, 0, 52, 0
1, 46320, Note_on_c, 0, 49, 0
1, 46320, Note_on_c, 0, 61, 0
1, 46320, Note_on_c, 0, 73, 81
1, 46320, Note_on_c, 0, 42, 35
1, 46440, Tempo, 460653
1, 46560, Tempo, 392182
1, 46560, Note_on_c, 0, 42, 0
1, 46560, Note_on_c, 0, 73, 0
1, 46560, Note_on_c, 0, 66, 0
1, 46560, Note_on_c, 0, 66, 49
1, 46560, Note_on_c, 0, 75, 70
1, 46560, Note_on_c, 0, 64, 42
1, 46560, Note_on_c, 0, 54, 34
1, 46680, Tempo, 441826
1, 46680, Note_on_c, 0, 64, 0
1, 46680, Note_on_c, 0, 75, 0
1, 46680, Note_on_c, 0, 73, 55
1, 46680, Note_on_c, 0, 58, 38
1, 46800, Note_on_c, 0, 58, 0
1, 46800, Note_on_c, 0, 54, 0
1, 46800, Note_on_c, 0, 66, 0
1, 46800, Note_on_c, 0, 78, 76
1, 46800, Note_on_c, 0, 49, 30
1, 46920, Tempo, 465188
1, 47040, Tempo, 425200
1, 47040, Note_on_c, 0, 49, 0
1, 47040, Note_on_c, 0, 78, 0
1, 47040, Note_on_c, 0, 73, 0
1, 47040, Note_on_c, 0, 78, 49
1, 47040, Note_on_c, 0, 87, 74
1, 47040, Note_on_c, 0, 70, 42
1, 47040, Note_on_c, 0, 61, 34
1, 47160, Tempo, 464288
1, 47160, Note_on_c, 0, 70, 0
1, 47160, Note_on_c, 0, 87, 0
1, 47160, Note_on_c, 0, 85, 58
1, 47160, Note_on_c, 0, 64, 38
1, 47280, Tempo, 558243
1, 47280, Note_on_c, 0, 64, 0
1, 47280, Note_on_c, 0, 61, 0
1, 47280, Note_on_c, 0, 78, 0
1, 47280, Note_on_c, 0, 90, 82
1, 47280, Note_on_c, 0, 54, 32
1, 47456, Control_c, 0, 64, 0
1, 47490, Note_on_c, 0, 54, 0
1, 47490, Note_on_c, 0, 90, 0
1, 47520, Tempo, 388199
1, 47520, Note_on_c, 0, 85, 0
1, 47520, Note_on_c, 0, 59, 48
1, 47520, Note_on_c, 0, 68, 72
1, 47520, Note_on_c, 0, 51, 42
1, 47580, Control_c, 0, 64, 127
1, 47640, Tempo, 446462
1, 47640, Note_on_c, 0, 51, 0
1, 47640, Note_on_c, 0, 68, 0
1, 47640, Note_on_c, 0, 66, 57
1, 47640, Note_on_c, 0, 42, 38
1, 47760, Note_on_c, 0, 42, 0
1, 47760, Note_on_c, 0, 59, 0
1, 47760, Note_on_c, 0, 71, 78
1, 47760, Note_on_c, 0, 35, 34
1, 47880, Tempo, 481928
1, 48000, Tempo, 388199
1, 48000, Note_on_c, 0, 35, 0
1, 48000, Note_on_c, 0, 71, 0
1, 48000, Note_on_c, 0, 66, 0
1, 48000, Note_on_c, 0, 54, 45
1, 48000, Note_on_c, 0, 61, 66
1, 48000, Note_on_c, 0, 51, 39
1, 48005, Control_c, 0, 64, 0
1, 48078, Control_c, 0, 64, 127
1, 48120, Tempo, 438468
1, 48120, Note_on_c, 0, 51, 0
1, 48120, Note_on_c, 0, 61, 0
1, 48120, Note_on_c, 0, 59, 46
1, 48120, Note_on_c, 0, 42, 36
1, 48240, Note_on_c, 0, 42, 0
1, 48240, Note_on_c, 0, 54, 0
1, 48240, Note_on_c, 0, 66, 74
1, 48240, Note_on_c, 0, 35, 31
1, 48360, Tempo, 461432
1, 48480, Tempo, 388199
1, 48480, Note_on_c, 0, 35, 0
1, 48480, Note_on_c, 0, 66, 0
1, 48480, Note_on_c, 0, 59, 0
1, 48480, Note_on_c, 0, 59, 46
1, 48480, Note_on_c, 0, 68, 67
1, 48480, Note_on_c, 0, 51, 39
1, 48486, Control_c, 0, 64, 0
1, 48565, Control_c, 0, 64, 127
1, 48600, Tempo, 435098
1, 48600, Note_on_c, 0, 51, 0
1, 48600, Note_on_c, 0, 68, 0
1, 48600, Note_on_c, 0, 66, 53
1, 48600, Note_on_c, 0, 42, 36
1, 48720, Note_on_c, 0, 42, 0
1, 48720, Note_on_c, 0, 59, 0
1, 48720, Note_on_c, 0, 71, 78
1, 48720, Note_on_c, 0, 35, 30
1, 48840, Tempo, 462107
1, 48960, Tempo, 389509
1, 48960, Note_on_c, 0, 35, 0
1, 48960, Note_on_c, 0, 71, 0
1, 48960, Note_on_c, 0, 66, 0
1, 48960, Note_on_c, 0, 61, 48
1, 48960, Note_on_c, 0, 68, 72
1, 48960, Control_c, 0, 64, 0
1, 48960, Note_on_c, 0, 52, 42
1, 49009, Control_c, 0, 64, 127
1, 49080, Tempo, 435098
1, 49080, Note_on_c, 0, 52, 0
1, 49080, Note_on_c, 0, 68, 0
1, 49080, Note_on_c, 0, 66, 55
1, 49080, Note_on_c, 0, 42, 38
1, 49200, Note_on_c, 0, 42, 0
1, 49200, Note_on_c, 0, 61, 0
1, 49200, Note_on_c, 0, 73, 81
1, 49200, Note_on_c, 0, 35, 32
1, 49320, Tempo, 462107
1, 49440, Tempo, 388199
1, 49440, Note_on_c, 0, 35, 0
1, 49440, Note_on_c, 0, 73, 0
1, 49440, Note_on_c, 0, 66, 0
1, 49440, Note_on_c, 0, 54, 47
1, 49440, Note_on_c, 0, 63, 66
1, 49440, Note_on_c, 0, 52, 40
1, 49450, Control_c, 0, 64, 0
1, 49504, Control_c, 0, 64, 127
1, 49560, Tempo, 433463
1, 49560, Note_on_c, 0, 52, 0
1, 49560, Note_on_c, 0, 63, 0
1, 49560, Note_on_c, 0, 61, 53
1, 49560, Note_on_c, 0, 42, 37
1, 49680, Note_on_c, 0, 42, 0
1, 49680, Note_on_c, 0, 54, 0
1, 49680, Note_on_c, 0, 66, 75
1, 49680, Note_on_c, 0, 35, 31
1, 49800, Tempo, 460653
1, 49920, Tempo, 389509
1, 49920, Note_on_c, 0, 35, 0
1, 49920, Note_on_c, 0, 66, 0
1, 49920, Note_on_c, 0, 61, 0
1, 49920, Note_on_c, 0, 61, 46
1, 49920, Note_on_c, 0, 68, 67
1, 49920, Note_on_c, 0, 52, 39
1, 49929, Control_c, 0, 64, 0
1, 49984, Control_c, 0, 64, 127
1, 50040, Tempo, 431810
1, 50040, Note_on_c, 0, 52, 0
1, 50040, Note_on_c, 0, 68, 0
1, 50040, Note_on_c, 0, 66, 57
1, 50040, Note_on_c, 0, 42, 36
1, 50160, Note_on_c, 0, 42, 0
1, 50160, Note_on_c, 0, 61, 0
1, 50160, Note_on_c, 0, 73, 76
1, 50160, Note_on_c, 0, 35, 30
1, 50280, Tempo, 452318
1, 50400, Tempo, 388199
1, 50400, Note_on_c, 0, 35, 0
1, 50400, Note_on_c, 0, 73, 0
1, 50400, Note_on_c, 0, 66, 0
1, 50400, Note_on_c, 0, 63, 51
1, 50400, Note_on_c, 0, 68, 75
1, 50400, Control_c, 0, 64, 0
1, 50400, Note_on_c, 0, 51, 43
1, 50474, Control_c, 0, 64, 127
1, 50520, Tempo, 431810
1, 50520, Note_on_c, 0, 51, 0
1, 50520, Note_on_c, 0, 68, 0
1, 50520, Note_on_c, 0, 66, 58
1, 50520, Note_on_c, 0, 42, 39
1, 50640, Note_on_c, 0, 42, 0
1, 50640, Note_on_c, 0, 63, 0
1, 50640, Note_on_c, 0, 75, 78
1, 50640, Note_on_c, 0, 35, 35
1, 50760, Tempo, 452318
1, 50880, Tempo, 386897
1, 50880, Note_on_c, 0, 35, 0
1, 50880, Note_on_c, 0, 75, 0
1, 50880, Note_on_c, 0, 66, 0
1, 50880, Note_on_c, 0, 63, 47
1, 50880, Note_on_c, 0, 70, 69
1, 50880, Note_on_c, 0, 53, 40
1, 50893, Control_c, 0, 64, 0
1, 50931, Control_c, 0, 64, 127
1, 51000, Tempo, 435098
1, 51000, Note_on_c, 0, 53, 0
1, 51000, Note_on_c, 0, 70, 0
1, 51000, Note_on_c, 0, 68, 53
1, 51000, Note_on_c, 0, 47, 37
1, 51120, Note_on_c, 0, 47, 0
1, 51120, Note_on_c, 0, 63, 0
1, 51120, Note_on_c, 0, 75, 76
1, 51120, Note_on_c, 0, 37, 31
1, 51240, Tempo, 462107
1, 51360, Tempo, 388199
1, 51360, Note_on_c, 0, 37, 0
1, 51360, Note_on_c, 0, 75, 0
1, 51360, Note_on_c, 0, 68, 0
1, 51360, Note_on_c, 0, 61, 48
1, 51360, Note_on_c, 0, 68, 70
1, 51360, Note_on_c, 0, 58, 40
1, 51369, Control_c, 0, 64, 0
1, 51452, Control_c, 0, 64, 127
1, 51480, Tempo, 436777
1, 51480, Note_on_c, 0, 58, 0
1, 51480, Note_on_c, 0, 68, 0
1, 51480, Note_on_c, 0, 66, 59
1, 51480, Note_on_c, 0, 52, 37
1, 51600, Note_on_c, 0, 52, 0
1, 51600, Note_on_c, 0, 61, 0
1, 51600, Note_on_c, 0, 73, 76
1, 51600, Note_on_c, 0, 42, 32
1, 51720, Tempo, 469153
1, 51840, Tempo, 388199
1, 51840, Note_on_c, 0, 42, 0
1, 51840, Note_on_c, 0, 73, 0
1, 51840, Note_on_c, 0, 66, 0
1, 51840, Note_on_c, 0, 59, 51
1, 51840, Note_on_c, 0, 68, 75
1, 51840, Note_on_c, 0, 51, 44
1, 51847, Control_c, 0, 64, 0
1, 51939, Control_c, 0, 64, 127
1, 51960, Tempo, 436777
1, 51960, Note_on_c, 0, 51, 0
1, 51960, Note_on_c, 0, 68, 0
1, 51960, Note_on_c, 0, 66, 63
1, 51960, Note_on_c, 0, 42, 40
1, 52080, Note_on_c, 0, 42, 0
1, 52080, Note_on_c, 0, 59, 0
1, 52080, Note_on_c, 0, 71, 81
1, 52080, Note_on_c, 0, 35, 35
1, 52200, Tempo, 460653
1, 52320, Tempo, 392182
1, 52320, Note_on_c, 0, 35, 0
1, 52320, Note_on_c, 0, 71, 0
1, 52320, Note_on_c, 0, 66, 0
1, 52320, Note_on_c, 0, 71, 49
1, 52320, Note_on_c, 0, 80, 70
1, 52320, Note_on_c, 0, 63, 42
1, 52440, Tempo, 441826
1, 52440, Note_on_c, 0, 63, 0
1, 52440, Note_on_c, 0, 80, 0
1, 52440, Note_on_c, 0, 78, 55
1, 52440, Note_on_c, 0, 54, 38
1, 52560, Note_on_c, 0, 54, 0
1, 52560, Note_on_c, 0, 71, 0
1, 52560, Note_on_c, 0, 83, 76
1, 52560, Note_on_c, 0, 47, 30
1, 52680, Tempo, 465188
1, 52800, Tempo, 425200
1, 52800, Note_on_c, 0, 47, 0
1, 52800, Note_on_c, 0, 83, 0
1, 52800, Note_on_c, 0, 78, 0
1, 52800, Note_on_c, 0, 83, 49
1, 52800, Note_on_c, 0, 92, 74
1, 52800, Note_on_c, 0, 75, 42
1, 52920, Tempo, 464288
1, 52920, Note_on_c, 0, 75, 0
1, 52920, Note_on_c, 0, 92, 0
1, 52920, Note_on_c, 0, 90, 58
1, 52920, Note_on_c, 0, 66, 38
1, 53040, Tempo, 558243
1, 53040, Note_on_c, 0, 66, 0
1, 53040, Note_on_c, 0, 83, 0
1, 53040, Note_on_c, 0, 95, 82
1, 53040, Note_on_c, 0, 59, 32
1, 53216, Control_c, 0, 64, 0
1, 53250, Note_on_c, 0, 59, 0
1, 53250, Note_on_c, 0, 95, 0
1, 53280, Tempo, 388199
1, 53280, Note_on_c, 0, 90, 0
1, 53280, Note_on_c, 0, 61, 44
1, 53280, Note_on_c, 0, 68, 65
1, 53280, Note_on_c, 0, 58, 33
1, 53340, Control_c, 0, 64, 127
1, 53400, Tempo, 457317
1, 53400, Note_on_c, 0, 58, 0
1, 53400, Note_on_c, 0, 68, 0
1, 53400, Note_on_c, 0, 66, 51
1, 53400, Note_on_c, 0, 49, 34
1, 53520, Note_on_c, 0, 49, 0
1, 53520, Note_on_c, 0, 61, 0
1, 53520, Note_on_c, 0, 73, 71
1, 53520, Note_on_c, 0, 42, 31
1, 53640, Tempo, 481928
1, 53760, Tempo, 388199
1, 53760, Note_on_c, 0, 42, 0
1, 53760, Note_on_c, 0, 73, 0
1, 53760, Note_on_c, 0, 66, 0
1, 53760, Note_on_c, 0, 61, 40
1, 53760, Note_on_c, 0, 68, 59
1, 53760, Note_on_c, 0, 57, 32
1, 53764, Control_c, 0, 64, 0
1, 53840, Control_c, 0, 64, 127
1, 53880, Tempo, 450450
1, 53880, Note_on_c, 0, 57, 0
1, 53880, Note_on_c, 0, 68, 0
1, 53880, Note_on_c, 0, 66, 48
1, 53880, Note_on_c, 0, 49, 33
1, 54000, Note_on_c, 0, 49, 0
1, 54000, Note_on_c, 0, 61, 0
1, 54000, Note_on_c, 0, 73, 70
1, 54000, Note_on_c, 0, 42, 29
1, 54120, Tempo, 461432
1, 54240, Tempo, 388199
1, 54240, Note_on_c, 0, 42, 0
1, 54240, Note_on_c, 0, 73, 0
1, 54240, Note_on_c, 0, 66, 0
1, 54240, Note_on_c, 0, 63, 44
1, 54240, Note_on_c, 0, 68, 65
1, 54240, Note_on_c, 0, 57, 33
1, 54262, Control_c, 0, 64, 0
1, 54320, Control_c, 0, 64, 127
1, 54360, Tempo, 441176
1, 54360, Note_on_c, 0, 57, 0
1, 54360, Note_on_c, 0, 68, 0
1, 54360, Note_on_c, 0, 66, 51
1, 54360, Note_on_c, 0, 47, 34
1, 54480, Note_on_c, 0, 47, 0
1, 54480, Note_on_c, 0, 63, 0
1, 54480, Note_on_c, 0, 75, 76
1, 54480, Note_on_c, 0, 42, 29
1, 54600, Tempo, 462107
1, 54720, Tempo, 389509
1, 54720, Note_on_c, 0, 42, 0
1, 54720, Note_on_c, 0, 75, 0
1, 54720, Note_on_c, 0, 66, 0
1, 54720, Note_on_c, 0, 64, 46
1, 54720, Note_on_c, 0, 69, 68
1, 54720, Note_on_c, 0, 57, 35
1, 54728, Control_c, 0, 64, 0
1, 54783, Control_c, 0, 64, 127
1, 54840, Tempo, 442804
1, 54840, Note_on_c, 0, 57, 0
1, 54840, Note_on_c, 0, 69, 0
1, 54840, Note_on_c, 0, 68, 52
1, 54840, Note_on_c, 0, 47, 36
1, 54960, Note_on_c, 0, 47, 0
1, 54960, Note_on_c, 0, 64, 0
1, 54960, Note_on_c, 0, 76, 76
1, 54960, Note_on_c, 0, 40, 29
1, 55080, Tempo, 462107
1, 55200, Tempo, 388199
1, 55200, Note_on_c, 0, 40, 0
1, 55200, Note_on_c, 0, 76, 0
1, 55200, Note_on_c, 0, 68, 0
1, 55200, Note_on_c, 0, 59, 39
1, 55200, Note_on_c, 0, 66, 56
1, 55200, Note_on_c, 0, 56, 31
1, 55203, Control_c, 0, 64, 0
1, 55264, Control_c, 0, 64, 127
1, 55320, Tempo, 446097
1, 55320, Note_on_c, 0, 56, 0
1, 55320, Note_on_c, 0, 66, 0
1, 55320, Note_on_c, 0, 64, 46
1, 55320, Note_on_c, 0, 47, 32
1, 55440, Note_on_c, 0, 47, 0
1, 55440, Note_on_c, 0, 59, 0
1, 55440, Note_on_c, 0, 71, 63
1, 55440, Note_on_c, 0, 40, 26
1, 55560, Tempo, 460653
1, 55680, Tempo, 389509
1, 55680, Note_on_c, 0, 40, 0
1, 55680, Note_on_c, 0, 71, 0
1, 55680, Note_on_c, 0, 64, 0
1, 55680, Note_on_c, 0, 59, 39
1, 55680, Note_on_c, 0, 66, 59
1, 55680, Note_on_c, 0, 56, 30
1, 55686, Control_c, 0, 64, 0
1, 55744, Control_c, 0, 64, 127
1, 55800, Tempo, 442804
1, 55800, Note_on_c, 0, 56, 0
1, 55800, Note_on_c, 0, 66, 0
1, 55800, Note_on_c, 0, 64, 49
1, 55800, Note_on_c, 0, 47, 31
1, 55920, Note_on_c, 0, 47, 0
1, 55920, Note_on_c, 0, 59, 0
1, 55920, Note_on_c, 0, 71, 66
1, 55920, Note_on_c, 0, 40, 25
1, 56040, Tempo, 452318
1, 56160, Tempo, 388199
1, 56160, Note_on_c, 0, 40, 0
1, 56160, Note_on_c, 0, 71, 0
1, 56160, Note_on_c, 0, 64, 0
1, 56160, Note_on_c, 0, 59, 44
1, 56160, Note_on_c, 0, 66, 65
1, 56160, Note_on_c, 0, 55, 33
1, 56169, Control_c, 0, 64, 0
1, 56220, Control_c, 0, 64, 127
1, 56280, Tempo, 466200
1, 56280, Note_on_c, 0, 55, 0
1, 56280, Note_on_c, 0, 66, 0
1, 56280, Note_on_c, 0, 64, 51
1, 56280, Note_on_c, 0, 47, 34
1, 56400, Note_on_c, 0, 47, 0
1, 56400, Note_on_c, 0, 59, 0
1, 56400, Note_on_c, 0, 71, 71
1, 56400, Note_on_c, 0, 40, 31
1, 56520, Tempo, 481928
1, 56640, Tempo, 388199
1, 56640, Note_on_c, 0, 40, 0
1, 56640, Note_on_c, 0, 71, 0
1, 56640, Note_on_c, 0, 64, 0
1, 56640, Note_on_c, 0, 59, 40
1, 56640, Note_on_c, 0, 66, 59
1, 56640, Note_on_c, 0, 55, 32
1, 56651, Control_c, 0, 64, 0
1, 56720, Control_c, 0, 64, 127
1, 56760, Tempo, 455581
1, 56760, Note_on_c, 0, 55, 0
1, 56760, Note_on_c, 0, 66, 0
1, 56760, Note_on_c, 0, 64, 48
1, 56760, Note_on_c, 0, 47, 33
1, 56880, Note_on_c, 0, 47, 0
1, 56880, Note_on_c, 0, 59, 0
1, 56880, Note_on_c, 0, 71, 70
1, 56880, Note_on_c, 0, 40, 29
1, 57000, Tempo, 461432
1, 57120, Tempo, 388199
1, 57120, Note_on_c, 0, 40, 0
1, 57120, Note_on_c, 0, 71, 0
1, 57120, Note_on_c, 0, 64, 0
1, 57120, Note_on_c, 0, 61, 44
1, 57120, Note_on_c, 0, 66, 65
1, 57120, Note_on_c, 0, 55, 33
1, 57133, Control_c, 0, 64, 0
1, 57200, Control_c, 0, 64, 127
1, 57240, Tempo, 442804
1, 57240, Note_on_c, 0, 55, 0
1, 57240, Note_on_c, 0, 66, 0
1, 57240, Note_on_c, 0, 64, 51
1, 57240, Note_on_c, 0, 45, 34
1, 57360, Note_on_c, 0, 45, 0
1, 57360, Note_on_c, 0, 61, 0
1, 57360, Note_on_c, 0, 73, 76
1, 57360, Note_on_c, 0, 40, 29
1, 57480, Tempo, 462107
1, 57600, Tempo, 389509
1, 57600, Note_on_c, 0, 40, 0
1, 57600, Note_on_c, 0, 73, 0
1, 57600, Note_on_c, 0, 64, 0
1, 57600, Note_on_c, 0, 62, 46
1, 57600, Note_on_c, 0, 67, 68
1, 57600, Note_on_c, 0, 55, 35
1, 57605, Control_c, 0, 64, 0
1, 57663, Control_c, 0, 64, 127
1, 57720, Tempo, 442804
1, 57720, Note_on_c, 0, 55, 0
1, 57720, Note_on_c, 0, 67, 0
1, 57720, Note_on_c, 0, 66, 52
1, 57720, Note_on_c, 0, 45, 36
1, 57840, Note_on_c, 0, 45, 0
1, 57840, Note_on_c, 0, 62, 0
1, 57840, Note_on_c, 0, 74, 76
1, 57840, Note_on_c, 0, 38, 29
1, 57960, Tempo, 462107
1, 58080, Tempo, 388199
1, 58080, Note_on_c, 0, 38, 0
1, 58080, Note_on_c, 0, 74, 0
1, 58080, Note_on_c, 0, 66, 0
1, 58080, Note_on_c, 0, 57, 39
1, 58080, Note_on_c, 0, 64, 56
1, 58080, Note_on_c, 0, 54, 31
1, 58088, Control_c, 0, 64, 0
1, 58144, Control_c, 0, 64, 127
1, 58200, Tempo, 446097
1, 58200, Note_on_c, 0, 54, 0
1, 58200, Note_on_c, 0, 64, 0
1, 58200, Note_on_c, 0, 62, 46
1, 58200, Note_on_c, 0, 45, 32
1, 58320, Note_on_c, 0, 45, 0
1, 58320, Note_on_c, 0, 57, 0
1, 58320, Note_on_c, 0, 69, 63
1, 58320, Note_on_c, 0, 38, 26
1, 58440, Tempo, 460653
1, 58560, Tempo, 389509
1, 58560, Note_on_c, 0, 38, 0
1, 58560, Note_on_c, 0, 69, 0
1, 58560, Note_on_c, 0, 62, 0
1, 58560, Note_on_c, 0, 57, 39
1, 58560, Note_on_c, 0, 64, 59
1, 58560, Note_on_c, 0, 54, 30
1, 58566, Control_c, 0, 64, 0
1, 58624, Control_c, 0, 64, 127
1, 58680, Tempo, 442804
1, 58680, Note_on_c, 0, 54, 0
1, 58680, Note_on_c, 0, 64, 0
1, 58680, Note_on_c, 0, 62, 49
1, 58680, Note_on_c, 0, 45, 31
1, 58800, Note_on_c, 0, 45, 0
1, 58800, Note_on_c, 0, 57, 0
1, 58800, Note_on_c, 0, 69, 66
1, 58800, Note_on_c, 0, 38, 25
1, 58920, Tempo, 452318
1, 59040, Tempo, 388199
1, 59040, Note_on_c, 0, 38, 0
1, 59040, Note_on_c, 0, 69, 0
1, 59040, Note_on_c, 0, 62, 0
1, 59040, Note_on_c, 0, 57, 40
1, 59040, Note_on_c, 0, 62, 60
1, 59040, Note_on_c, 0, 54, 31
1, 59046, Control_c, 0, 64, 0
1, 59100, Control_c, 0, 64, 127
1, 59160, Tempo, 446462
1, 59160, Note_on_c, 0, 54, 0
1, 59160, Note_on_c, 0, 62, 0
1, 59160, Note_on_c, 0, 61, 48
1, 59160, Note_on_c, 0, 45, 32
1, 59280, Note_on_c, 0, 45, 0
1, 59280, Note_on_c, 0, 57, 0
1, 59280, Note_on_c, 0, 69, 67
1, 59280, Note_on_c, 0, 37, 29
1, 59400, Tempo, 481928
1, 59520, Tempo, 388199
1, 59520, Note_on_c, 0, 37, 0
1, 59520, Note_on_c, 0, 69, 0
1, 59520, Note_on_c, 0, 61, 0
1, 59520, Note_on_c, 0, 69, 37
1, 59520, Note_on_c, 0, 74, 56
1, 59520, Note_on_c, 0, 57, 24
1, 59520, Note_on_c, 0, 66, 30
1, 59529, Control_c, 0, 64, 0
1, 59612, Control_c, 0, 64, 127
1, 59640, Tempo, 438468
1, 59640, Note_on_c, 0, 66, 0
1, 59640, Note_on_c, 0, 74, 0
1, 59640, Note_on_c, 0, 73, 45
1, 59640, Note_on_c, 0, 61, 31
1, 59760, Note_on_c, 0, 61, 0
1, 59760, Note_on_c, 0, 69, 0
1, 59760, Note_on_c, 0, 57, 0
1, 59760, Note_on_c, 0, 81, 66
1, 59760, Note_on_c, 0, 49, 27
1, 59880, Tempo, 461432
1, 60000, Tempo, 388199
1, 60000, Note_on_c, 0, 49, 0
1, 60000, Note_on_c, 0, 81, 0
1, 60000, Note_on_c, 0, 73, 0
1, 60000, Note_on_c, 0, 71, 40
1, 60000, Note_on_c, 0, 74, 60
1, 60000, Note_on_c, 0, 57, 24
1, 60000, Note_on_c, 0, 68, 31
1, 60014, Control_c, 0, 64, 0
1, 60080, Control_c, 0, 64, 127
1, 60120, Tempo, 435098
1, 60120, Note_on_c, 0, 68, 0
1, 60120, Note_on_c, 0, 74, 0
1, 60120, Note_on_c, 0, 73, 48
1, 60120, Note_on_c, 0, 61, 32
1, 60240, Note_on_c, 0, 61, 0
1, 60240, Note_on_c, 0, 71, 0
1, 60240, Note_on_c, 0, 57, 0
1, 60240, Note_on_c, 0, 83, 70
1, 60240, Note_on_c, 0, 49, 27
1, 60360, Tempo, 462107
1, 60480, Tempo, 389509
1, 60480, Note_on_c, 0, 49, 0
1, 60480, Note_on_c, 0, 83, 0
1, 60480, Note_on_c, 0, 73, 0
1, 60480, Note_on_c, 0, 69, 46
1, 60480, Note_on_c, 0, 74, 68
1, 60480, Note_on_c, 0, 56, 24
1, 60480, Note_on_c, 0, 66, 35
1, 60486, Control_c, 0, 64, 0
1, 60543, Control_c, 0, 64, 127
1, 60600, Tempo, 441176
1, 60600, Note_on_c, 0, 66, 0
1, 60600, Note_on_c, 0, 74, 0
1, 60600, Note_on_c, 0, 73, 52
1, 60600, Note_on_c, 0, 61, 36
1, 60720, Note_on_c, 0, 61, 0
1, 60720, Note_on_c, 0, 69, 0
1, 60720, Note_on_c, 0, 56, 0
1, 60720, Note_on_c, 0, 81, 72
1, 60720, Note_on_c, 0, 49, 29
1, 60840, Tempo, 462107
1, 60960, Tempo, 388199
1, 60960, Note_on_c, 0, 49, 0
1, 60960, Note_on_c, 0, 81, 0
1, 60960, Note_on_c, 0, 73, 0
1, 60960, Note_on_c, 0, 68, 39
1, 60960, Note_on_c, 0, 74, 52
1, 60960, Note_on_c, 0, 56, 24
1, 60960, Note_on_c, 0, 65, 31
1, 60969, Control_c, 0, 64, 0
1, 61024, Control_c, 0, 64, 127
1, 61080, Tempo, 442804
1, 61080, Note_on_c, 0, 65, 0
1, 61080, Note_on_c, 0, 74, 0
1, 61080, Note_on_c, 0, 73, 46
1, 61080, Note_on_c, 0, 61, 32
1, 61200, Note_on_c, 0, 61, 0
1, 61200, Note_on_c, 0, 68, 0
1, 61200, Note_on_c, 0, 56, 0
1, 61200, Note_on_c, 0, 80, 63
1, 61200, Note_on_c, 0, 49, 26
1, 61320, Tempo, 460653
1, 61440, Tempo, 389509
1, 61440, Note_on_c, 0, 49, 0
1, 61440, Note_on_c, 0, 80, 0
1, 61440, Note_on_c, 0, 73, 0
1, 61440, Note_on_c, 0, 68, 39
1, 61440, Note_on_c, 0, 74, 55
1, 61440, Note_on_c, 0, 56, 24
1, 61440, Note_on_c, 0, 65, 30
1, 61448, Control_c, 0, 64, 0
1, 61504, Control_c, 0, 64, 127
1, 61560, Tempo, 442804
1, 61560, Note_on_c, 0, 65, 0
1, 61560, Note_on_c, 0, 74, 0
1, 61560, Note_on_c, 0, 73, 49
1, 61560, Note_on_c, 0, 61, 31
1, 61680, Note_on_c, 0, 61, 0
1, 61680, Note_on_c, 0, 68, 0
1, 61680, Note_on_c, 0, 56, 0
1, 61680, Note_on_c, 0, 80, 66
1, 61680, Note_on_c, 0, 49, 25
1, 61800, Tempo, 452318
1, 61920, Tempo, 388199
1, 61920, Note_on_c, 0, 49, 0
1, 61920, Note_on_c, 0, 80, 0
1, 61920, Note_on_c, 0, 73, 0
1, 61920, Note_on_c, 0, 69, 34
1, 61920, Note_on_c, 0, 74, 51
1, 61920, Note_on_c, 0, 57, 19
1, 61920, Note_on_c, 0, 66, 26
1, 61927, Control_c, 0, 64, 0
1, 61980, Control_c, 0, 64, 127
1, 62040, Tempo, 446462
1, 62040, Note_on_c, 0, 66, 0
1, 62040, Note_on_c, 0, 74, 0
1, 62040, Note_on_c, 0, 73, 40
1, 62040, Note_on_c, 0, 61, 27
1, 62160, Note_on_c, 0, 61, 0
1, 62160, Note_on_c, 0, 69, 0
1, 62160, Note_on_c, 0, 57, 0
1, 62160, Note_on_c, 0, 81, 55
1, 62160, Note_on_c, 0, 49, 25
1, 62280, Tempo, 481928
1, 62400, Tempo, 388199
1, 62400, Note_on_c, 0, 49, 0
1, 62400, Note_on_c, 0, 81, 0
1, 62400, Note_on_c, 0, 73, 0
1, 62400, Note_on_c, 0, 81, 36
1, 62400, Note_on_c, 0, 86, 53
1, 62400, Note_on_c, 0, 69, 23
1, 62400, Note_on_c, 0, 78, 29
1, 62414, Control_c, 0, 64, 0
1, 62486, Control_c, 0, 64, 127
1, 62520, Tempo, 438468
1, 62520, Note_on_c, 0, 78, 0
1, 62520, Note_on_c, 0, 86, 0
1, 62520, Note_on_c, 0, 85, 37
1, 62520, Note_on_c, 0, 73, 26
1, 62640, Note_on_c, 0, 73, 0
1, 62640, Note_on_c, 0, 81, 0
1, 62640, Note_on_c, 0, 69, 0
1, 62640, Note_on_c, 0, 93, 54
1, 62640, Note_on_c, 0, 61, 23
1, 62760, Tempo, 461432
1, 62880, Tempo, 388199
1, 62880, Note_on_c, 0, 61, 0
1, 62880, Note_on_c, 0, 93, 0
1, 62880, Note_on_c, 0, 85, 0
1, 62880, Note_on_c, 0, 83, 38
1, 62880, Note_on_c, 0, 86, 57
1, 62880, Note_on_c, 0, 69, 23
1, 62880, Note_on_c, 0, 80, 29
1, 62893, Control_c, 0, 64, 0
1, 62960, Control_c, 0, 64, 127
1, 63000, Tempo, 435098
1, 63000, Note_on_c, 0, 80, 0
1, 63000, Note_on_c, 0, 86, 0
1, 63000, Note_on_c, 0, 85, 40
1, 63000, Note_on_c, 0, 73, 27
1, 63120, Note_on_c, 0, 73, 0
1, 63120, Note_on_c, 0, 83, 0
1, 63120, Note_on_c, 0, 69, 0
1, 63120, Note_on_c, 0, 95, 60
1, 63120, Note_on_c, 0, 61, 23
1, 63240, Tempo, 462107
1, 63360, Tempo, 389509
1, 63360, Note_on_c, 0, 61, 0
1, 63360, Note_on_c, 0, 95, 0
1, 63360, Note_on_c, 0, 85, 0
1, 63360, Note_on_c, 0, 81, 43
1, 63360, Note_on_c, 0, 86, 64
1, 63360, Note_on_c, 0, 68, 23
1, 63360, Note_on_c, 0, 78, 33
1, 63366, Control_c, 0, 64, 0
1, 63423, Control_c, 0, 64, 127
1, 63480, Tempo, 442804
1, 63480, Note_on_c, 0, 78, 0
1, 63480, Note_on_c, 0, 86, 0
1, 63480, Note_on_c, 0, 85, 44
1, 63480, Note_on_c, 0, 73, 30
1, 63600, Note_on_c, 0, 73, 0
1, 63600, Note_on_c, 0, 81, 0
1, 63600, Note_on_c, 0, 68, 0
1, 63600, Note_on_c, 0, 93, 64
1, 63600, Note_on_c, 0, 61, 25
1, 63720, Tempo, 462107
1, 63840, Tempo, 388199
1, 63840, Note_on_c, 0, 61, 0
1, 63840, Note_on_c, 0, 93, 0
1, 63840, Note_on_c, 0, 85, 0
1, 63840, Note_on_c, 0, 80, 37
1, 63840, Note_on_c, 0, 86, 53
1, 63840, Note_on_c, 0, 68, 23
1, 63840, Note_on_c, 0, 77, 29
1, 63848, Control_c, 0, 64, 0
1, 63904, Control_c, 0, 64, 127
1, 63960, Tempo, 450450
1, 63960, Note_on_c, 0, 77, 0
1, 63960, Note_on_c, 0, 86, 0
1, 63960, Note_on_c, 0, 85, 38
1, 63960, Note_on_c, 0, 73, 27
1, 64080, Note_on_c, 0, 73, 0
1, 64080, Note_on_c, 0, 80, 0
1, 64080, Note_on_c, 0, 68, 0
1, 64080, Note_on_c, 0, 92, 53
1, 64080, Note_on_c, 0, 61, 22
1, 64200, Tempo, 460653
1, 64320, Tempo, 389509
1, 64320, Note_on_c, 0, 61, 0
1, 64320, Note_on_c, 0, 92, 0
1, 64320, Note_on_c, 0, 85, 0
1, 64320, Note_on_c, 0, 80, 37
1, 64320, Note_on_c, 0, 86, 55
1, 64320, Note_on_c, 0, 68, 23
1, 64320, Note_on_c, 0, 77, 29
1, 64328, Control_c, 0, 64, 0
1, 64384, Control_c, 0, 64, 127
1, 64440, Tempo, 457317
1, 64440, Note_on_c, 0, 77, 0
1, 64440, Note_on_c, 0, 86, 0
1, 64440, Note_on_c, 0, 85, 40
1, 64440, Note_on_c, 0, 73, 26
1, 64560, Note_on_c, 0, 73, 0
1, 64560, Note_on_c, 0, 80, 0
1, 64560, Note_on_c, 0, 68, 0
1, 64560, Note_on_c, 0, 92, 54
1, 64560, Note_on_c, 0, 61, 21
1, 64680, Tempo, 475436
1, 64800, Key_signature, -1, "major"
1, 64800, Tempo, 388199
1, 64800, Note_on_c, 0, 61, 0
1, 64800, Note_on_c, 0, 92, 0
1, 64800, Note_on_c, 0, 85, 0
1, 64800, Note_on_c, 0, 80, 38
1, 64800, Note_on_c, 0, 85, 57
1, 64800, Control_c, 0, 64, 0
1, 64800, Note_on_c, 0, 68, 23
1, 64800, Note_on_c, 0, 77, 29
1, 64860, Control_c, 0, 64, 127
1, 64920, Tempo, 446462
1, 64920, Note_on_c, 0, 77, 0
1, 64920, Note_on_c, 0, 85, 0
1, 64920, Note_on_c, 0, 84, 40
1, 64920, Note_on_c, 0, 72, 27
1, 65040, Note_on_c, 0, 72, 0
1, 65040, Note_on_c, 0, 80, 0
1, 65040, Note_on_c, 0, 68, 0
1, 65040, Note_on_c, 0, 92, 55
1, 65040, Note_on_c, 0, 60, 25
1, 65160, Tempo, 481928
1, 65280, Tempo, 388199
1, 65280, Note_on_c, 0, 60, 0
1, 65280, Note_on_c, 0, 92, 0
1, 65280, Note_on_c, 0, 84, 0
1, 65280, Note_on_c, 0, 68, 35
1, 65280, Note_on_c, 0, 73, 52
1, 65280, Note_on_c, 0, 56, 22
1, 65280, Note_on_c, 0, 65, 28
1, 65289, Control_c, 0, 64, 0
1, 65355, Control_c, 0, 64, 127
1, 65400, Tempo, 438468
1, 65400, Note_on_c, 0, 65, 0
1, 65400, Note_on_c, 0, 73, 0
1, 65400, Note_on_c, 0, 72, 36
1, 65400, Note_on_c, 0, 60, 25
1, 65520, Note_on_c, 0, 60, 0
1, 65520, Note_on_c, 0, 68, 0
1, 65520, Note_on_c, 0, 56, 0
1, 65520, Note_on_c, 0, 80, 53
1, 65520, Note_on_c, 0, 48, 22
1, 65640, Tempo, 461432
1, 65760, Tempo, 388199
1, 65760, Note_on_c, 0, 48, 0
1, 65760, Note_on_c, 0, 80, 0
1, 65760, Note_on_c, 0, 72, 0
1, 65760, Note_on_c, 0, 70, 37
1, 65760, Note_on_c, 0, 73, 55
1, 65760, Note_on_c, 0, 56, 22
1, 65760, Note_on_c, 0, 67, 28
1, 65774, Control_c, 0, 64, 0
1, 65840, Control_c, 0, 64, 127
1, 65880, Tempo, 435098
1, 65880, Note_on_c, 0, 67, 0
1, 65880, Note_on_c, 0, 73, 0
1, 65880, Note_on_c, 0, 72, 39
1, 65880, Note_on_c, 0, 60, 26
1, 66000, Note_on_c, 0, 60, 0
1, 66000, Note_on_c, 0, 70, 0
1, 66000, Note_on_c, 0, 56, 0
1, 66000, Note_on_c, 0, 82, 58
1, 66000, Note_on_c, 0, 48, 22
1, 66120, Tempo, 462107
1, 66240, Tempo, 389509
1, 66240, Note_on_c, 0, 48, 0
1, 66240, Note_on_c, 0, 82, 0
1, 66240, Note_on_c, 0, 72, 0
1, 66240, Note_on_c, 0, 68, 40
1, 66240, Note_on_c, 0, 73, 61
1, 66240, Note_on_c, 0, 55, 22
1, 66240, Note_on_c, 0, 65, 32
1, 66250, Control_c, 0, 64, 0
1, 66303, Control_c, 0, 64, 127
1, 66360, Tempo, 444444
1, 66360, Note_on_c, 0, 65, 0
1, 66360, Note_on_c, 0, 73, 0
1, 66360, Note_on_c, 0, 72, 42
1, 66360, Note_on_c, 0, 60, 28
1, 66480, Note_on_c, 0, 60, 0
1, 66480, Note_on_c, 0, 68, 0
1, 66480, Note_on_c, 0, 55, 0
1, 66480, Note_on_c, 0, 80, 60
1, 66480, Note_on_c, 0, 48, 24
1, 66600, Tempo, 462107
1, 66720, Tempo, 388199
1, 66720, Note_on_c, 0, 48, 0
1, 66720, Note_on_c, 0, 80, 0
1, 66720, Note_on_c, 0, 72, 0
1, 66720, Note_on_c, 0, 67, 35
1, 66720, Note_on_c, 0, 73, 50
1, 66720, Note_on_c, 0, 55, 21
1, 66720, Note_on_c, 0, 64, 27
1, 66731, Control_c, 0, 64, 0
1, 66784, Control_c, 0, 64, 127
1, 66840, Tempo, 446097
1, 66840, Note_on_c, 0, 64, 0
1, 66840, Note_on_c, 0, 73, 0
1, 66840, Note_on_c, 0, 72, 36
1, 66840, Note_on_c, 0, 60, 25
1, 66960, Note_on_c, 0, 60, 0
1, 66960, Note_on_c, 0, 67, 0
1, 66960, Note_on_c, 0, 55, 0
1, 66960, Note_on_c, 0, 79, 50
1, 66960, Note_on_c, 0, 48, 19
1, 67080, Tempo, 460653
1, 67200, Tempo, 389509
1, 67200, Note_on_c, 0, 48, 0
1, 67200, Note_on_c, 0, 79, 0
1, 67200, Note_on_c, 0, 72, 0
1, 67200, Note_on_c, 0, 67, 35
1, 67200, Note_on_c, 0, 73, 52
1, 67200, Note_on_c, 0, 55, 21
1, 67200, Note_on_c, 0, 64, 27
1, 67210, Control_c, 0, 64, 0
1, 67264, Control_c, 0, 64, 127
1, 67320, Tempo, 431810
1, 67320, Note_on_c, 0, 64, 0
1, 67320, Note_on_c, 0, 73, 0
1, 67320, Note_on_c, 0, 72, 37
1, 67320, Note_on_c, 0, 60, 24
1, 67440, Note_on_c, 0, 60, 0
1, 67440, Note_on_c, 0, 67, 0
1, 67440, Note_on_c, 0, 55, 0
1, 67440, Note_on_c, 0, 79, 51
1, 67440, Note_on_c, 0, 48, 18
1, 67560, Tempo, 484888
1, 67680, Tempo, 398751
1, 67680, Note_on_c, 0, 48, 0
1, 67680, Note_on_c, 0, 79, 0
1, 67680, Note_on_c, 0, 72, 0
1, 67680, Note_on_c, 0, 65, 35
1, 67680, Note_on_c, 0, 74, 52
1, 67680, Note_on_c, 0, 55, 21
1, 67680, Note_on_c, 0, 62, 27
1, 67687, Control_c, 0, 64, 0
1, 67740, Control_c, 0, 64, 127
1, 67800, Tempo, 462606
1, 67800, Note_on_c, 0, 62, 0
1, 67800, Note_on_c, 0, 74, 0
1, 67800, Note_on_c, 0, 72, 37
1, 67800, Note_on_c, 0, 60, 25
1, 67920, Note_on_c, 0, 60, 0
1, 67920, Note_on_c, 0, 65, 0
1, 67920, Note_on_c, 0, 55, 0
1, 67920, Note_on_c, 0, 77, 51
1, 67920, Note_on_c, 0, 48, 23
1, 68040, Tempo, 481928
1, 68160, Tempo, 402928
1, 68160, Note_on_c, 0, 48, 0
1, 68160, Note_on_c, 0, 77, 0
1, 68160, Note_on_c, 0, 72, 0
1, 68160, Note_on_c, 0, 65, 32
1, 68160, Note_on_c, 0, 74, 49
1, 68160, Note_on_c, 0, 55, 21
1, 68160, Note_on_c, 0, 62, 26
1, 68168, Control_c, 0, 64, 0
1, 68245, Control_c, 0, 64, 127
1, 68280, Tempo, 466200
1, 68280, Note_on_c, 0, 62, 0
1, 68280, Note_on_c, 0, 74, 0
1, 68280, Note_on_c, 0, 72, 34
1, 68280, Note_on_c, 0, 60, 23
1, 68400, Note_on_c, 0, 60, 0
1, 68400, Note_on_c, 0, 65, 0
1, 68400, Note_on_c, 0, 55, 0
1, 68400, Note_on_c, 0, 77, 49
1, 68400, Note_on_c, 0, 48, 21
1, 68520, Tempo, 478813
1, 68640, Tempo, 405817
1, 68640, Note_on_c, 0, 48, 0
1, 68640, Note_on_c, 0, 77, 0
1, 68640, Note_on_c, 0, 72, 0
1, 68640, Note_on_c, 0, 67, 34
1, 68640, Note_on_c, 0, 74, 51
1, 68640, Note_on_c, 0, 55, 19
1, 68640, Note_on_c, 0, 64, 26
1, 68654, Control_c, 0, 64, 0
1, 68720, Control_c, 0, 64, 127
1, 68760, Tempo, 490998
1, 68760, Note_on_c, 0, 64, 0
1, 68760, Note_on_c, 0, 74, 0
1, 68760, Note_on_c, 0, 72, 36
1, 68760, Note_on_c, 0, 60, 24
1, 68880, Note_on_c, 0, 60, 0
1, 68880, Note_on_c, 0, 67, 0
1, 68880, Note_on_c, 0, 55, 0
1, 68880, Note_on_c, 0, 79, 53
1, 68880, Note_on_c, 0, 48, 19
1, 69000, Tempo, 497925
1, 69120, Tempo, 420728
1, 69120, Note_on_c, 0, 48, 0
1, 69120, Note_on_c, 0, 79, 0
1, 69120, Note_on_c, 0, 72, 0
1, 69120, Note_on_c, 0, 65, 37
1, 69120, Note_on_c, 0, 74, 55
1, 69120, Note_on_c, 0, 55, 19
1, 69120, Control_c, 0, 64, 0
1, 69120, Note_on_c, 0, 62, 29
1, 69183, Control_c, 0, 64, 127
1, 69240, Tempo, 501253
1, 69240, Note_on_c, 0, 62, 0
1, 69240, Note_on_c, 0, 74, 0
1, 69240, Note_on_c, 0, 72, 38
1, 69240, Note_on_c, 0, 60, 26
1, 69360, Note_on_c, 0, 60, 0
1, 69360, Note_on_c, 0, 65, 0
1, 69360, Note_on_c, 0, 55, 0
1, 69360, Note_on_c, 0, 77, 55
1, 69360, Note_on_c, 0, 48, 22
1, 69480, Tempo, 521739
1, 69600, Tempo, 441176
1, 69600, Note_on_c, 0, 48, 0
1, 69600, Note_on_c, 0, 77, 0
1, 69600, Note_on_c, 0, 72, 0
1, 69600, Note_on_c, 0, 64, 32
1, 69600, Note_on_c, 0, 74, 47
1, 69600, Note_on_c, 0, 55, 19
1, 69600, Note_on_c, 0, 62, 25
1, 69610, Control_c, 0, 64, 0
1, 69664, Control_c, 0, 64, 127
1, 69720, Tempo, 518583
1, 69720, Note_on_c, 0, 62, 0
1, 69720, Note_on_c, 0, 74, 0
1, 69720, Note_on_c, 0, 72, 32
1, 69720, Note_on_c, 0, 60, 23
1, 69840, Note_on_c, 0, 60, 0
1, 69840, Note_on_c, 0, 64, 0
1, 69840, Note_on_c, 0, 55, 0
1, 69840, Note_on_c, 0, 76, 46
1, 69840, Note_on_c, 0, 48, 18
1, 69960, Tempo, 530973
1, 70080, Tempo, 458015
1, 70080, Note_on_c, 0, 48, 0
1, 70080, Note_on_c, 0, 76, 0
1, 70080, Note_on_c, 0, 72, 0
1, 70080, Note_on_c, 0, 64, 31
1, 70080, Note_on_c, 0, 74, 48
1, 70080, Note_on_c, 0, 55, 19
1, 70080, Note_on_c, 0, 60, 25
1, 70089, Control_c, 0, 64, 0
1, 70144, Control_c, 0, 64, 127
1, 70200, Tempo, 501924
1, 70200, Note_on_c, 0, 60, 0
1, 70200, Note_on_c, 0, 74, 0
1, 70200, Note_on_c, 0, 72, 34
1, 70200, Note_on_c, 0, 58, 22
1, 70220, Tempo, 499750
1, 70320, Tempo, 614125
1, 70320, Note_on_c, 0, 58, 0
1, 70320, Note_on_c, 0, 64, 0
1, 70320, Note_on_c, 0, 55, 0
1, 70320, Note_on_c, 0, 76, 47
1, 70320, Note_on_c, 0, 48, 17
1, 70489, Control_c, 0, 64, 0
1, 70530, Note_on_c, 0, 48, 0
1, 70530, Note_on_c, 0, 76, 0
1, 70560, Tempo, 388199
1, 70560, Note_on_c, 0, 72, 0
1, 70560, Note_on_c, 0, 65, 59
1, 70560, Note_on_c, 0, 74, 87
1, 70560, Note_on_c, 0, 57, 46
1, 70560, Note_on_c, 0, 48, 37
1, 70581, Control_c, 0, 64, 127
1, 70680, Tempo, 446462
1, 70680, Note_on_c, 0, 57, 0
1, 70680, Note_on_c, 0, 74, 0
1, 70680, Note_on_c, 0, 72, 63
1, 70680, Note_on_c, 0, 53, 42
1, 70800, Note_on_c, 0, 53, 0
1, 70800, Note_on_c, 0, 48, 0
1, 70800, Note_on_c, 0, 65, 0
1, 70800, Note_on_c, 0, 72, 0
1, 70800, Note_on_c, 0, 77, 76
1, 70800, Note_on_c, 0, 41, 37
1, 70804, Control_c, 0, 64, 0
1, 70860, Note_on_c, 0, 41, 0
1, 70860, Note_on_c, 0, 77, 0
1, 70920, Tempo, 481928
1, 71040, Tempo, 388199
1, 71040, Note_on_c, 0, 60, 54
1, 71040, Note_on_c, 0, 67, 80
1, 71040, Note_on_c, 0, 57, 44
1, 71040, Note_on_c, 0, 48, 34
1, 71075, Control_c, 0, 64, 127
1, 71160, Tempo, 438468
1, 71160, Note_on_c, 0, 57, 0
1, 71160, Note_on_c, 0, 67, 0
1, 71160, Note_on_c, 0, 65, 55
1, 71160, Note_on_c, 0, 53, 39
1, 71280, Note_on_c, 0, 53, 0
1, 71280, Note_on_c, 0, 48, 0
1, 71280, Note_on_c, 0, 60, 0
1, 71280, Note_on_c, 0, 65, 0
1, 71280, Note_on_c, 0, 72, 75
1, 71280, Note_on_c, 0, 41, 34
1, 71291, Control_c, 0, 64, 0
1, 71340, Note_on_c, 0, 41, 0
1, 71340, Note_on_c, 0, 72, 0
1, 71400, Tempo, 461432
1, 71520, Tempo, 388199
1, 71520, Note_on_c, 0, 65, 57
1, 71520, Note_on_c, 0, 74, 82
1, 71520, Note_on_c, 0, 57, 44
1, 71520, Note_on_c, 0, 48, 34
1, 71555, Control_c, 0, 64, 127
1, 71640, Tempo, 435098
1, 71640, Note_on_c, 0, 57, 0
1, 71640, Note_on_c, 0, 74, 0
1, 71640, Note_on_c, 0, 72, 58
1, 71640, Note_on_c, 0, 53, 39
1, 71760, Note_on_c, 0, 53, 0
1, 71760, Note_on_c, 0, 48, 0
1, 71760, Note_on_c, 0, 65, 0
1, 71760, Note_on_c, 0, 72, 0
1, 71760, Note_on_c, 0, 77, 75
1, 71760, Note_on_c, 0, 41, 33
1, 71769, Control_c, 0, 64, 0
1, 71820, Note_on_c, 0, 41, 0
1, 71820, Note_on_c, 0, 77, 0
1, 71880, Tempo, 462107
1, 72000, Tempo, 389509
1, 72000, Note_on_c, 0, 67, 59
1, 72000, Note_on_c, 0, 74, 87
1, 72000, Note_on_c, 0, 58, 46
1, 72000, Note_on_c, 0, 48, 37
1, 72021, Control_c, 0, 64, 127
1, 72120, Tempo, 435098
1, 72120, Note_on_c, 0, 58, 0
1, 72120, Note_on_c, 0, 74, 0
1, 72120, Note_on_c, 0, 72, 61
1, 72120, Note_on_c, 0, 52, 42
1, 72240, Note_on_c, 0, 52, 0
1, 72240, Note_on_c, 0, 48, 0
1, 72240, Note_on_c, 0, 67, 0
1, 72240, Note_on_c, 0, 72, 0
1, 72240, Note_on_c, 0, 79, 73
1, 72240, Note_on_c, 0, 41, 35
1, 72254, Control_c, 0, 64, 0
1, 72300, Note_on_c, 0, 41, 0
1, 72300, Note_on_c, 0, 79, 0
1, 72360, Tempo, 462107
1, 72480, Tempo, 388199
1, 72480, Note_on_c, 0, 60, 54
1, 72480, Note_on_c, 0, 69, 76
1, 72480, Note_on_c, 0, 58, 44
1, 72480, Note_on_c, 0, 48, 34
1, 72544, Control_c, 0, 64, 127
1, 72600, Tempo, 433463
1, 72600, Note_on_c, 0, 58, 0
1, 72600, Note_on_c, 0, 69, 0
1, 72600, Note_on_c, 0, 67, 55
1, 72600, Note_on_c, 0, 52, 39
1, 72720, Note_on_c, 0, 52, 0
1, 72720, Note_on_c, 0, 48, 0
1, 72720, Note_on_c, 0, 60, 0
1, 72720, Note_on_c, 0, 67, 0
1, 72720, Note_on_c, 0, 72, 71
1, 72720, Note_on_c, 0, 41, 33
1, 72731, Control_c, 0, 64, 0
1, 72780, Note_on_c, 0, 41, 0
1, 72780, Note_on_c, 0, 72, 0
1, 72840, Tempo, 460653
1, 72960, Tempo, 389509
1, 72960, Note_on_c, 0, 67, 57
1, 72960, Note_on_c, 0, 74, 82
1, 72960, Note_on_c, 0, 58, 44
1, 72960, Note_on_c, 0, 48, 34
1, 73024, Control_c, 0, 64, 127
1, 73080, Tempo, 431810
1, 73080, Note_on_c, 0, 58, 0
1, 73080, Note_on_c, 0, 74, 0
1, 73080, Note_on_c, 0, 72, 63
1, 73080, Note_on_c, 0, 52, 39
1, 73200, Note_on_c, 0, 52, 0
1, 73200, Note_on_c, 0, 48, 0
1, 73200, Note_on_c, 0, 67, 0
1, 73200, Note_on_c, 0, 72, 0
1, 73200, Note_on_c, 0, 79, 78
1, 73200, Note_on_c, 0, 41, 33
1, 73228, Control_c, 0, 64, 0
1, 73260, Note_on_c, 0, 41, 0
1, 73260, Note_on_c, 0, 79, 0
1, 73320, Tempo, 452318
1, 73440, Tempo, 388199
1, 73440, Note_on_c, 0, 69, 63
1, 73440, Note_on_c, 0, 74, 92
1, 73440, Note_on_c, 0, 57, 47
1, 73440, Note_on_c, 0, 48, 38
1, 73469, Control_c, 0, 64, 127
1, 73560, Tempo, 431810
1, 73560, Note_on_c, 0, 57, 0
1, 73560, Note_on_c, 0, 74, 0
1, 73560, Note_on_c, 0, 72, 64
1, 73560, Note_on_c, 0, 53, 44
1, 73680, Note_on_c, 0, 53, 0
1, 73680, Note_on_c, 0, 48, 0
1, 73680, Note_on_c, 0, 69, 0
1, 73680, Note_on_c, 0, 72, 0
1, 73680, Note_on_c, 0, 81, 77
1, 73680, Note_on_c, 0, 41, 38
1, 73698, Control_c, 0, 64, 0
1, 73740, Note_on_c, 0, 41, 0
1, 73740, Note_on_c, 0, 81, 0
1, 73800, Tempo, 452318
1, 73920, Tempo, 386897
1, 73920, Note_on_c, 0, 65, 58
1, 73920, Note_on_c, 0, 74, 85
1, 73920, Note_on_c, 0, 57, 45
1, 73920, Note_on_c, 0, 50, 35
1, 73971, Control_c, 0, 64, 127
1, 74040, Tempo, 435098
1, 74040, Note_on_c, 0, 57, 0
1, 74040, Note_on_c, 0, 74, 0
1, 74040, Note_on_c, 0, 72, 58
1, 74040, Note_on_c, 0, 53, 40
1, 74160, Note_on_c, 0, 53, 0
1, 74160, Note_on_c, 0, 50, 0
1, 74160, Note_on_c, 0, 65, 0
1, 74160, Note_on_c, 0, 72, 0
1, 74160, Note_on_c, 0, 77, 75
1, 74160, Note_on_c, 0, 41, 34
1, 74174, Control_c, 0, 64, 0
1, 74220, Note_on_c, 0, 41, 0
1, 74220, Note_on_c, 0, 77, 0
1, 74280, Tempo, 462107
1, 74400, Tempo, 388199
1, 74400, Note_on_c, 0, 74, 59
1, 74400, Note_on_c, 0, 81, 86
1, 74400, Note_on_c, 0, 59, 45
1, 74400, Note_on_c, 0, 50, 35
1, 74446, Control_c, 0, 64, 127
1, 74520, Tempo, 436777
1, 74520, Note_on_c, 0, 59, 0
1, 74520, Note_on_c, 0, 81, 0
1, 74520, Note_on_c, 0, 79, 65
1, 74520, Note_on_c, 0, 53, 40
1, 74640, Note_on_c, 0, 53, 0
1, 74640, Note_on_c, 0, 50, 0
1, 74640, Note_on_c, 0, 74, 0
1, 74640, Note_on_c, 0, 79, 0
1, 74640, Note_on_c, 0, 86, 78
1, 74640, Note_on_c, 0, 43, 35
1, 74651, Control_c, 0, 64, 0
1, 74700, Note_on_c, 0, 43, 0
1, 74700, Note_on_c, 0, 86, 0
1, 74760, Tempo, 469153
1, 74880, Tempo, 388199
1, 74880, Note_on_c, 0, 67, 63
1, 74880, Note_on_c, 0, 74, 92
1, 74880, Control_c, 0, 64, 127
1, 74880, Note_on_c, 0, 64, 48
1, 74880, Note_on_c, 0, 55, 39
1, 75000, Tempo, 436777
1, 75000, Note_on_c, 0, 64, 0
1, 75000, Note_on_c, 0, 74, 0
1, 75000, Note_on_c, 0, 72, 69
1, 75000, Note_on_c, 0, 58, 45
1, 75120, Note_on_c, 0, 58, 0
1, 75120, Note_on_c, 0, 55, 0
1, 75120, Note_on_c, 0, 67, 0
1, 75120, Note_on_c, 0, 79, 78
1, 75120, Note_on_c, 0, 48, 38
1, 75180, Note_on_c, 0, 48, 0
1, 75180, Note_on_c, 0, 79, 0
1, 75180, Note_on_c, 0, 72, 0
1, 75240, Tempo, 460653
1, 75360, Tempo, 392182
1, 75360, Note_on_c, 0, 72, 61
1, 75360, Note_on_c, 0, 81, 86
1, 75360, Note_on_c, 0, 70, 46
1, 75360, Note_on_c, 0, 60, 37
1, 75480, Tempo, 441826
1, 75480, Note_on_c, 0, 70, 0
1, 75480, Note_on_c, 0, 81, 0
1, 75480, Note_on_c, 0, 79, 61
1, 75480, Note_on_c, 0, 64, 42
1, 75600, Note_on_c, 0, 64, 0
1, 75600, Note_on_c, 0, 60, 0
1, 75600, Note_on_c, 0, 72, 0
1, 75600, Note_on_c, 0, 79, 0
1, 75600, Note_on_c, 0, 84, 76
1, 75600, Note_on_c, 0, 55, 33
1, 75660, Note_on_c, 0, 55, 0
1, 75660, Note_on_c, 0, 84, 0
1, 75720, Tempo, 465188
1, 75840, Tempo, 425200
1, 75840, Note_on_c, 0, 84, 61
1, 75840, Note_on_c, 0, 93, 90
1, 75840, Note_on_c, 0, 76, 46
1, 75840, Note_on_c, 0, 67, 37
1, 75960, Tempo, 464288
1, 75960, Note_on_c, 0, 76, 0
1, 75960, Note_on_c, 0, 93, 0
1, 75960, Note_on_c, 0, 91, 64
1, 75960, Note_on_c, 0, 70, 42
1, 76080, Tempo, 558243
1, 76080, Note_on_c, 0, 70, 0
1, 76080, Note_on_c, 0, 67, 0
1, 76080, Note_on_c, 0, 84, 0
1, 76080, Note_on_c, 0, 91, 0
1, 76080, Note_on_c, 0, 96, 82
1, 76080, Note_on_c, 0, 60, 35
1, 76140, Note_on_c, 0, 60, 0
1, 76140, Note_on_c, 0, 96, 0
1, 76256, Control_c, 0, 64, 0
1, 76320, Tempo, 388199
1, 76320, Note_on_c, 0, 65, 59
1, 76320, Note_on_c, 0, 74, 87
1, 76320, Note_on_c, 0, 57, 46
1, 76320, Note_on_c, 0, 48, 37
1, 76341, Control_c, 0, 64, 127
1, 76440, Tempo, 446462
1, 76440, Note_on_c, 0, 57, 0
1, 76440, Note_on_c, 0, 74, 0
1, 76440, Note_on_c, 0, 72, 61
1, 76440, Note_on_c, 0, 53, 42
1, 76560, Note_on_c, 0, 53, 0
1, 76560, Note_on_c, 0, 48, 0
1, 76560, Note_on_c, 0, 65, 0
1, 76560, Note_on_c, 0, 72, 0
1, 76560, Note_on_c, 0, 77, 82
1, 76560, Note_on_c, 0, 41, 37
1, 76569, Control_c, 0, 64, 0
1, 76620, Note_on_c, 0, 41, 0
1, 76620, Note_on_c, 0, 77, 0
1, 76680, Tempo, 503609
1, 76800, Tempo, 388199
1, 76800, Note_on_c, 0, 60, 54
1, 76800, Note_on_c, 0, 67, 80
1, 76800, Note_on_c, 0, 57, 44
1, 76800, Note_on_c, 0, 48, 34
1, 76835, Control_c, 0, 64, 127
1, 76920, Tempo, 440141
1, 76920, Note_on_c, 0, 57, 0
1, 76920, Note_on_c, 0, 67, 0
1, 76920, Note_on_c, 0, 65, 55
1, 76920, Note_on_c, 0, 53, 39
1, 77040, Note_on_c, 0, 53, 0
1, 77040, Note_on_c, 0, 48, 0
1, 77040, Note_on_c, 0, 60, 0
1, 77040, Note_on_c, 0, 65, 0
1, 77040, Note_on_c, 0, 72, 77
1, 77040, Note_on_c, 0, 41, 34
1, 77051, Control_c, 0, 64, 0
1, 77100, Note_on_c, 0, 41, 0
1, 77100, Note_on_c, 0, 72, 0
1, 77160, Tempo, 480808
1, 77280, Tempo, 388199
1, 77280, Note_on_c, 0, 65, 57
1, 77280, Note_on_c, 0, 74, 82
1, 77280, Note_on_c, 0, 57, 44
1, 77280, Note_on_c, 0, 48, 34
1, 77315, Control_c, 0, 64, 127
1, 77400, Tempo, 444708
1, 77400, Note_on_c, 0, 57, 0
1, 77400, Note_on_c, 0, 74, 0
1, 77400, Note_on_c, 0, 72, 64
1, 77400, Note_on_c, 0, 53, 39
1, 77520, Note_on_c, 0, 53, 0
1, 77520, Note_on_c, 0, 48, 0
1, 77520, Note_on_c, 0, 65, 0
1, 77520, Note_on_c, 0, 72, 0
1, 77520, Note_on_c, 0, 77, 80
1, 77520, Note_on_c, 0, 41, 33
1, 77529, Control_c, 0, 64, 0
1, 77580, Note_on_c, 0, 41, 0
1, 77580, Note_on_c, 0, 77, 0
1, 77640, Tempo, 459559
1, 77760, Tempo, 389509
1, 77760, Note_on_c, 0, 67, 59
1, 77760, Note_on_c, 0, 74, 87
1, 77760, Note_on_c, 0, 58, 46
1, 77760, Note_on_c, 0, 48, 37
1, 77781, Control_c, 0, 64, 127
1, 77880, Tempo, 438468
1, 77880, Note_on_c, 0, 58, 0
1, 77880, Note_on_c, 0, 74, 0
1, 77880, Note_on_c, 0, 72, 61
1, 77880, Note_on_c, 0, 52, 42
1, 78000, Note_on_c, 0, 52, 0
1, 78000, Note_on_c, 0, 48, 0
1, 78000, Note_on_c, 0, 67, 0
1, 78000, Note_on_c, 0, 72, 0
1, 78000, Note_on_c, 0, 79, 77
1, 78000, Note_on_c, 0, 41, 35
1, 78014, Control_c, 0, 64, 0
1, 78060, Note_on_c, 0, 41, 0
1, 78060, Note_on_c, 0, 79, 0
1, 78120, Tempo, 465585
1, 78240, Tempo, 388199
1, 78240, Note_on_c, 0, 60, 54
1, 78240, Note_on_c, 0, 69, 76
1, 78240, Note_on_c, 0, 58, 44
1, 78240, Note_on_c, 0, 48, 34
1, 78304, Control_c, 0, 64, 127
1, 78360, Tempo, 436777
1, 78360, Note_on_c, 0, 58, 0
1, 78360, Note_on_c, 0, 69, 0
1, 78360, Note_on_c, 0, 67, 55
1, 78360, Note_on_c, 0, 52, 39
1, 78480, Note_on_c, 0, 52, 0
1, 78480, Note_on_c, 0, 48, 0
1, 78480, Note_on_c, 0, 60, 0
1, 78480, Note_on_c, 0, 67, 0
1, 78480, Note_on_c, 0, 72, 75
1, 78480, Note_on_c, 0, 41, 33
1, 78491, Control_c, 0, 64, 0
1, 78540, Note_on_c, 0, 41, 0
1, 78540, Note_on_c, 0, 72, 0
1, 78600, Tempo, 461432
1, 78720, Tempo, 389509
1, 78720, Note_on_c, 0, 67, 57
1, 78720, Note_on_c, 0, 74, 82
1, 78720, Note_on_c, 0, 58, 44
1, 78720, Note_on_c, 0, 48, 34
1, 78784, Control_c, 0, 64, 127
1, 78840, Tempo, 435098
1, 78840, Note_on_c, 0, 58, 0
1, 78840, Note_on_c, 0, 74, 0
1, 78840, Note_on_c, 0, 72, 58
1, 78840, Note_on_c, 0, 52, 39
1, 78960, Note_on_c, 0, 52, 0
1, 78960, Note_on_c, 0, 48, 0
1, 78960, Note_on_c, 0, 67, 0
1, 78960, Note_on_c, 0, 72, 0
1, 78960, Note_on_c, 0, 79, 78
1, 78960, Note_on_c, 0, 41, 33
1, 78988, Control_c, 0, 64, 0
1, 79020, Note_on_c, 0, 41, 0
1, 79020, Note_on_c, 0, 79, 0
1, 79080, Tempo, 465585
1, 79200, Tempo, 388199
1, 79200, Note_on_c, 0, 69, 63
1, 79200, Note_on_c, 0, 74, 92
1, 79200, Note_on_c, 0, 57, 47
1, 79200, Note_on_c, 0, 48, 38
1, 79229, Control_c, 0, 64, 127
1, 79320, Tempo, 436777
1, 79320, Note_on_c, 0, 57, 0
1, 79320, Note_on_c, 0, 74, 0
1, 79320, Note_on_c, 0, 72, 64
1, 79320, Note_on_c, 0, 53, 44
1, 79440, Note_on_c, 0, 53, 0
1, 79440, Note_on_c, 0, 48, 0
1, 79440, Note_on_c, 0, 69, 0
1, 79440, Note_on_c, 0, 72, 0
1, 79440, Note_on_c, 0, 81, 84
1, 79440, Note_on_c, 0, 41, 38
1, 79458, Control_c, 0, 64, 0
1, 79500, Note_on_c, 0, 41, 0
1, 79500, Note_on_c, 0, 81, 0
1, 79560, Tempo, 460653
1, 79680, Tempo, 386897
1, 79680, Note_on_c, 0, 69, 58
1, 79680, Note_on_c, 0, 76, 85
1, 79680, Note_on_c, 0, 59, 45
1, 79680, Note_on_c, 0, 50, 35
1, 79731, Control_c, 0, 64, 127
1, 79800, Tempo, 436777
1, 79800, Note_on_c, 0, 59, 0
1, 79800, Note_on_c, 0, 76, 0
1, 79800, Note_on_c, 0, 74, 58
1, 79800, Note_on_c, 0, 53, 40
1, 79920, Note_on_c, 0, 53, 0
1, 79920, Note_on_c, 0, 50, 0
1, 79920, Note_on_c, 0, 69, 0
1, 79920, Note_on_c, 0, 74, 0
1, 79920, Note_on_c, 0, 81, 78
1, 79920, Note_on_c, 0, 43, 34
1, 79934, Control_c, 0, 64, 0
1, 79980, Note_on_c, 0, 43, 0
1, 79980, Note_on_c, 0, 81, 0
1, 80040, Tempo, 465585
1, 80160, Tempo, 388199
1, 80160, Note_on_c, 0, 67, 59
1, 80160, Note_on_c, 0, 74, 86
1, 80160, Note_on_c, 0, 64, 45
1, 80160, Note_on_c, 0, 55, 35
1, 80206, Control_c, 0, 64, 127
1, 80280, Tempo, 448163
1, 80280, Note_on_c, 0, 64, 0
1, 80280, Note_on_c, 0, 74, 0
1, 80280, Note_on_c, 0, 72, 64
1, 80280, Note_on_c, 0, 58, 40
1, 80400, Note_on_c, 0, 58, 0
1, 80400, Note_on_c, 0, 55, 0
1, 80400, Note_on_c, 0, 67, 0
1, 80400, Note_on_c, 0, 72, 0
1, 80400, Note_on_c, 0, 79, 77
1, 80400, Note_on_c, 0, 48, 35
1, 80411, Control_c, 0, 64, 0
1, 80460, Note_on_c, 0, 48, 0
1, 80460, Note_on_c, 0, 79, 0
1, 80520, Tempo, 469153
1, 80640, Tempo, 388199
1, 80640, Note_on_c, 0, 65, 65
1, 80640, Note_on_c, 0, 74, 96
1, 80640, Control_c, 0, 64, 127
1, 80640, Note_on_c, 0, 57, 48
1, 80640, Note_on_c, 0, 48, 35
1, 80760, Tempo, 448163
1, 80760, Note_on_c, 0, 57, 0
1, 80760, Note_on_c, 0, 74, 0
1, 80760, Note_on_c, 0, 72, 69
1, 80760, Note_on_c, 0, 53, 45
1, 80880, Note_on_c, 0, 53, 0
1, 80880, Note_on_c, 0, 48, 0
1, 80880, Note_on_c, 0, 65, 0
1, 80880, Note_on_c, 0, 72, 0
1, 80880, Note_on_c, 0, 77, 85
1, 80880, Note_on_c, 0, 41, 38
1, 80940, Note_on_c, 0, 41, 0
1, 80940, Note_on_c, 0, 77, 0
1, 81000, Tempo, 472701
1, 81120, Tempo, 392182
1, 81120, Note_on_c, 0, 72, 61
1, 81120, Note_on_c, 0, 79, 86
1, 81120, Note_on_c, 0, 69, 46
1, 81120, Note_on_c, 0, 60, 33
1, 81124, Control_c, 0, 64, 0
1, 81148, Control_c, 0, 64, 127
1, 81240, Tempo, 445269
1, 81240, Note_on_c, 0, 69, 0
1, 81240, Note_on_c, 0, 79, 0
1, 81240, Note_on_c, 0, 77, 61
1, 81240, Note_on_c, 0, 65, 42
1, 81360, Note_on_c, 0, 65, 0
1, 81360, Note_on_c, 0, 60, 0
1, 81360, Note_on_c, 0, 72, 0
1, 81360, Note_on_c, 0, 77, 0
1, 81360, Note_on_c, 0, 84, 77
1, 81360, Note_on_c, 0, 53, 33
1, 81420, Note_on_c, 0, 53, 0
1, 81420, Note_on_c, 0, 84, 0
1, 81480, Tempo, 474834
1, 81600, Tempo, 389231
1, 81600, Note_on_c, 0, 72, 55
1, 81600, Note_on_c, 0, 81, 80
1, 81600, Note_on_c, 0, 70, 37
1, 81600, Note_on_c, 0, 60, 30
1, 81616, Control_c, 0, 64, 0
1, 81671, Control_c, 0, 64, 127
1, 81720, Tempo, 457317
1, 81720, Note_on_c, 0, 70, 0
1, 81720, Note_on_c, 0, 81, 0
1, 81720, Note_on_c, 0, 79, 63
1, 81720, Note_on_c, 0, 64, 37
1, 81840, Note_on_c, 0, 64, 0
1, 81840, Note_on_c, 0, 60, 0
1, 81840, Note_on_c, 0, 72, 0
1, 81840, Note_on_c, 0, 79, 0
1, 81840, Note_on_c, 0, 84, 73
1, 81840, Note_on_c, 0, 53, 29
1, 81900, Note_on_c, 0, 53, 0
1, 81900, Note_on_c, 0, 84, 0
1, 81960, Tempo, 476834
1, 82080, Tempo, 388199
1, 82080, Note_on_c, 0, 65, 57
1, 82080, Note_on_c, 0, 79, 86
1, 82080, Note_on_c, 0, 69, 43
1, 82080, Note_on_c, 0, 60, 32
1, 82119, Control_c, 0, 64, 0
1, 82151, Control_c, 0, 64, 127
1, 82200, Tempo, 448163
1, 82200, Note_on_c, 0, 69, 0
1, 82200, Note_on_c, 0, 79, 0
1, 82200, Note_on_c, 0, 77, 61
1, 82200, Note_on_c, 0, 65, 39
1, 82320, Note_on_c, 0, 65, 0
1, 82320, Note_on_c, 0, 60, 0
1, 82320, Note_on_c, 0, 65, 0
1, 82320, Note_on_c, 0, 77, 0
1, 82320, Note_on_c, 0, 84, 75
1, 82320, Note_on_c, 0, 53, 34
1, 82380, Note_on_c, 0, 53, 0
1, 82380, Note_on_c, 0, 84, 0
1, 82440, Tempo, 472701
1, 82560, Tempo, 392182
1, 82560, Note_on_c, 0, 84, 54
1, 82560, Note_on_c, 0, 91, 76
1, 82560, Note_on_c, 0, 81, 40
1, 82560, Note_on_c, 0, 72, 28
1, 82575, Control_c, 0, 64, 0
1, 82624, Control_c, 0, 64, 127
1, 82680, Tempo, 443557
1, 82680, Note_on_c, 0, 81, 0
1, 82680, Note_on_c, 0, 91, 0
1, 82680, Note_on_c, 0, 89, 54
1, 82680, Note_on_c, 0, 77, 37
1, 82800, Note_on_c, 0, 77, 0
1, 82800, Note_on_c, 0, 72, 0
1, 82800, Note_on_c, 0, 84, 0
1, 82800, Note_on_c, 0, 89, 0
1, 82800, Note_on_c, 0, 96, 70
1, 82800, Note_on_c, 0, 65, 29
1, 82860, Note_on_c, 0, 65, 0
1, 82860, Note_on_c, 0, 96, 0
1, 82920, Tempo, 465188
1, 83040, Tempo, 391901
1, 83040, Note_on_c, 0, 84, 49
1, 83040, Note_on_c, 0, 93, 77
1, 83040, Note_on_c, 0, 82, 36
1, 83040, Note_on_c, 0, 72, 24
1, 83055, Control_c, 0, 64, 0
1, 83093, Control_c, 0, 64, 127
1, 83160, Tempo, 441826
1, 83160, Note_on_c, 0, 82, 0
1, 83160, Note_on_c, 0, 93, 0
1, 83160, Note_on_c, 0, 91, 58
1, 83160, Note_on_c, 0, 76, 35
1, 83280, Note_on_c, 0, 76, 0
1, 83280, Note_on_c, 0, 72, 0
1, 83280, Note_on_c, 0, 84, 0
1, 83280, Note_on_c, 0, 91, 0
1, 83280, Note_on_c, 0, 96, 69
1, 83280, Note_on_c, 0, 65, 27
1, 83340, Note_on_c, 0, 65, 0
1, 83340, Note_on_c, 0, 96, 0
1, 83400, Tempo, 476834
1, 83520, Tempo, 388199
1, 83520, Note_on_c, 0, 84, 58
1, 83520, Note_on_c, 0, 91, 86
1, 83520, Control_c, 0, 64, 0
1, 83520, Note_on_c, 0, 81, 43
1, 83520, Note_on_c, 0, 72, 35
1, 83591, Control_c, 0, 64, 127
1, 83640, Tempo, 448163
1, 83640, Note_on_c, 0, 81, 0
1, 83640, Note_on_c, 0, 91, 0
1, 83640, Note_on_c, 0, 89, 61
1, 83640, Note_on_c, 0, 77, 39
1, 83760, Note_on_c, 0, 77, 0
1, 83760, Note_on_c, 0, 72, 0
1, 83760, Note_on_c, 0, 84, 0
1, 83760, Note_on_c, 0, 89, 0
1, 83760, Note_on_c, 0, 96, 75
1, 83760, Note_on_c, 0, 65, 34
1, 83820, Note_on_c, 0, 65, 0
1, 83820, Note_on_c, 0, 96, 0
1, 83880, Tempo, 472701
1, 84000, Tempo, 392182
1, 84000, Note_on_c, 0, 72, 44
1, 84000, Note_on_c, 0, 79, 61
1, 84000, Note_on_c, 0, 69, 36
1, 84000, Note_on_c, 0, 60, 29
1, 84007, Control_c, 0, 64, 0
1, 84064, Control_c, 0, 64, 127
1, 84120, Tempo, 443557
1, 84120, Note_on_c, 0, 69, 0
1, 84120, Note_on_c, 0, 79, 0
1, 84120, Note_on_c, 0, 77, 49
1, 84120, Note_on_c, 0, 65, 33
1, 84240, Note_on_c, 0, 65, 0
1, 84240, Note_on_c, 0, 60, 0
1, 84240, Note_on_c, 0, 72, 0
1, 84240, Note_on_c, 0, 77, 0
1, 84240, Note_on_c, 0, 84, 61
1, 84240, Note_on_c, 0, 53, 26
1, 84360, Tempo, 465188
1, 84480, Tempo, 391901
1, 84480, Note_on_c, 0, 53, 0
1, 84480, Note_on_c, 0, 84, 0
1, 84480, Note_on_c, 0, 72, 44
1, 84480, Note_on_c, 0, 81, 65
1, 84480, Note_on_c, 0, 70, 36
1, 84480, Note_on_c, 0, 60, 29
1, 84487, Control_c, 0, 64, 0
1, 84526, Control_c, 0, 64, 127
1, 84600, Tempo, 441826
1, 84600, Note_on_c, 0, 70, 0
1, 84600, Note_on_c, 0, 81, 0
1, 84600, Note_on_c, 0, 79, 54
1, 84600, Note_on_c, 0, 64, 33
1, 84720, Note_on_c, 0, 64, 0
1, 84720, Note_on_c, 0, 60, 0
1, 84720, Note_on_c, 0, 72, 0
1, 84720, Note_on_c, 0, 79, 0
1, 84720, Note_on_c, 0, 84, 65
1, 84720, Note_on_c, 0, 53, 26
1, 84840, Tempo, 476834
1, 84960, Tempo, 388199
1, 84960, Note_on_c, 0, 53, 0
1, 84960, Note_on_c, 0, 84, 0
1, 84960, Note_on_c, 0, 65, 46
1, 84960, Note_on_c, 0, 79, 68
1, 84960, Note_on_c, 0, 69, 37
1, 84960, Note_on_c, 0, 60, 31
1, 84967, Control_c, 0, 64, 0
1, 85038, Control_c, 0, 64, 127
1, 85080, Tempo, 448163
1, 85080, Note_on_c, 0, 69, 0
1, 85080, Note_on_c, 0, 79, 0
1, 85080, Note_on_c, 0, 77, 54
1, 85080, Note_on_c, 0, 65, 35
1, 85200, Note_on_c, 0, 65, 0
1, 85200, Note_on_c, 0, 60, 0
1, 85200, Note_on_c, 0, 65, 0
1, 85200, Note_on_c, 0, 77, 0
1, 85200, Note_on_c, 0, 84, 67
1, 85200, Note_on_c, 0, 53, 30
1, 85320, Tempo, 472701
1, 85440, Tempo, 392182
1, 85440, Note_on_c, 0, 53, 0
1, 85440, Note_on_c, 0, 84, 0
1, 85440, Note_on_c, 0, 84, 44
1, 85440, Note_on_c, 0, 91, 61
1, 85440, Note_on_c, 0, 81, 36
1, 85440, Note_on_c, 0, 72, 29
1, 85447, Control_c, 0, 64, 0
1, 85511, Control_c, 0, 64, 127
1, 85560, Tempo, 455581
1, 85560, Note_on_c, 0, 81, 0
1, 85560, Note_on_c, 0, 91, 0
1, 85560, Note_on_c, 0, 89, 49
1, 85560, Note_on_c, 0, 77, 33
1, 85680, Note_on_c, 0, 77, 0
1, 85680, Note_on_c, 0, 72, 0
1, 85680, Note_on_c, 0, 84, 0
1, 85680, Note_on_c, 0, 89, 0
1, 85680, Note_on_c, 0, 96, 61
1, 85680, Note_on_c, 0, 65, 26
1, 85800, Tempo, 465188
1, 85920, Tempo, 391901
1, 85920, Note_on_c, 0, 65, 0
1, 85920, Note_on_c, 0, 96, 0
1, 85920, Note_on_c, 0, 84, 42
1, 85920, Note_on_c, 0, 93, 65
1, 85920, Note_on_c, 0, 82, 33
1, 85920, Note_on_c, 0, 72, 27
1, 85934, Control_c, 0, 64, 0
1, 85991, Control_c, 0, 64, 127
1, 86040, Tempo, 469851
1, 86040, Note_on_c, 0, 82, 0
1, 86040, Note_on_c, 0, 93, 0
1, 86040, Note_on_c, 0, 91, 54
1, 86040, Note_on_c, 0, 76, 33
1, 86160, Note_on_c, 0, 76, 0
1, 86160, Note_on_c, 0, 72, 0
1, 86160, Note_on_c, 0, 84, 0
1, 86160, Note_on_c, 0, 91, 0
1, 86160, Note_on_c, 0, 96, 65
1, 86160, Note_on_c, 0, 65, 26
1, 86280, Tempo, 490998
1, 86400, Tempo, 388199
1, 86400, Note_on_c, 0, 65, 0
1, 86400, Note_on_c, 0, 96, 0
1, 86400, Note_on_c, 0, 84, 46
1, 86400, Note_on_c, 0, 91, 68
1, 86400, Note_on_c, 0, 81, 37
1, 86400, Note_on_c, 0, 72, 31
1, 86405, Control_c, 0, 64, 0
1, 86471, Control_c, 0, 64, 127
1, 86520, Tempo, 448163
1, 86520, Note_on_c, 0, 81, 0
1, 86520, Note_on_c, 0, 91, 0
1, 86520, Note_on_c, 0, 89, 54
1, 86520, Note_on_c, 0, 77, 35
1, 86640, Note_on_c, 0, 77, 0
1, 86640, Note_on_c, 0, 72, 0
1, 86640, Note_on_c, 0, 84, 0
1, 86640, Note_on_c, 0, 89, 0
1, 86640, Note_on_c, 0, 96, 67
1, 86640, Note_on_c, 0, 65, 30
1, 86700, Note_on_c, 0, 65, 0
1, 86760, Tempo, 472701
1, 86880, Tempo, 392182
1, 86880, Note_on_c, 0, 96, 0
1, 86880, Note_on_c, 0, 83, 46
1, 86880, Note_on_c, 0, 91, 65
1, 86880, Note_on_c, 0, 81, 37
1, 86880, Note_on_c, 0, 71, 30
1, 86896, Control_c, 0, 64, 0
1, 86926, Control_c, 0, 64, 127
1, 87000, Tempo, 443557
1, 87000, Note_on_c, 0, 81, 0
1, 87000, Note_on_c, 0, 91, 0
1, 87000, Note_on_c, 0, 90, 46
1, 87000, Note_on_c, 0, 75, 34
1, 87120, Note_on_c, 0, 75, 0
1, 87120, Note_on_c, 0, 71, 0
1, 87120, Note_on_c, 0, 83, 0
1, 87120, Note_on_c, 0, 90, 0
1, 87120, Note_on_c, 0, 95, 56
1, 87120, Note_on_c, 0, 59, 27
1, 87180, Note_on_c, 0, 59, 0
1, 87180, Note_on_c, 0, 95, 0
1, 87240, Tempo, 465188
1, 87360, Tempo, 391901
1, 87360, Note_on_c, 0, 83, 45
1, 87360, Note_on_c, 0, 89, 66
1, 87360, Note_on_c, 0, 80, 37
1, 87360, Note_on_c, 0, 71, 29
1, 87367, Control_c, 0, 64, 0
1, 87395, Control_c, 0, 64, 127
1, 87480, Tempo, 441826
1, 87480, Note_on_c, 0, 80, 0
1, 87480, Note_on_c, 0, 89, 0
1, 87480, Note_on_c, 0, 88, 49
1, 87480, Note_on_c, 0, 74, 33
1, 87600, Note_on_c, 0, 74, 0
1, 87600, Note_on_c, 0, 71, 0
1, 87600, Note_on_c, 0, 83, 0
1, 87600, Note_on_c, 0, 88, 0
1, 87600, Note_on_c, 0, 95, 61
1, 87600, Note_on_c, 0, 64, 28
1, 87660, Note_on_c, 0, 64, 0
1, 87660, Note_on_c, 0, 95, 0
1, 87720, Tempo, 476834
1, 87840, Tempo, 388199
1, 87840, Note_on_c, 0, 81, 46
1, 87840, Note_on_c, 0, 89, 68
1, 87840, Note_on_c, 0, 79, 37
1, 87840, Note_on_c, 0, 69, 31
1, 87847, Control_c, 0, 64, 0
1, 87911, Control_c, 0, 64, 127
1, 87960, Tempo, 448163
1, 87960, Note_on_c, 0, 79, 0
1, 87960, Note_on_c, 0, 89, 0
1, 87960, Note_on_c, 0, 88, 48
1, 87960, Note_on_c, 0, 73, 35
1, 88080, Note_on_c, 0, 73, 0
1, 88080, Note_on_c, 0, 69, 0
1, 88080, Note_on_c, 0, 81, 0
1, 88080, Note_on_c, 0, 88, 0
1, 88080, Note_on_c, 0, 93, 59
1, 88080, Note_on_c, 0, 57, 30
1, 88140, Note_on_c, 0, 57, 0
1, 88140, Note_on_c, 0, 93, 0
1, 88200, Tempo, 472701
1, 88320, Tempo, 392182
1, 88320, Note_on_c, 0, 81, 45
1, 88320, Note_on_c, 0, 88, 61
1, 88320, Note_on_c, 0, 74, 36
1, 88320, Note_on_c, 0, 67, 29
1, 88335, Control_c, 0, 64, 0
1, 88366, Control_c, 0, 64, 127
1, 88440, Tempo, 443557
1, 88440, Note_on_c, 0, 74, 0
1, 88440, Note_on_c, 0, 88, 0
1, 88440, Note_on_c, 0, 86, 45
1, 88440, Note_on_c, 0, 70, 33
1, 88560, Note_on_c, 0, 70, 0
1, 88560, Note_on_c, 0, 67, 0
1, 88560, Note_on_c, 0, 81, 0
1, 88560, Note_on_c, 0, 86, 0
1, 88560, Note_on_c, 0, 93, 55
1, 88560, Note_on_c, 0, 58, 26
1, 88620, Note_on_c, 0, 58, 0
1, 88620, Note_on_c, 0, 93, 0
1, 88680, Tempo, 465188
1, 88800, Tempo, 391901
1, 88800, Note_on_c, 0, 79, 42
1, 88800, Note_on_c, 0, 86, 63
1, 88800, Note_on_c, 0, 76, 34
1, 88800, Note_on_c, 0, 67, 28
1, 88806, Control_c, 0, 64, 0
1, 88835, Control_c, 0, 64, 127
1, 88920, Tempo, 441826
1, 88920, Note_on_c, 0, 76, 0
1, 88920, Note_on_c, 0, 86, 0
1, 88920, Note_on_c, 0, 84, 47
1, 88920, Note_on_c, 0, 70, 32
1, 89040, Note_on_c, 0, 70, 0
1, 89040, Note_on_c, 0, 67, 0
1, 89040, Note_on_c, 0, 79, 0
1, 89040, Note_on_c, 0, 84, 0
1, 89040, Note_on_c, 0, 91, 56
1, 89040, Note_on_c, 0, 60, 26
1, 89100, Note_on_c, 0, 60, 0
1, 89100, Note_on_c, 0, 91, 0
1, 89160, Tempo, 476834
1, 89280, Tempo, 388199
1, 89280, Note_on_c, 0, 77, 43
1, 89280, Note_on_c, 0, 86, 65
1, 89280, Note_on_c, 0, 69, 35
1, 89280, Note_on_c, 0, 60, 29
1, 89287, Control_c, 0, 64, 0
1, 89351, Control_c, 0, 64, 127
1, 89400, Tempo, 448163
1, 89400, Note_on_c, 0, 69, 0
1, 89400, Note_on_c, 0, 86, 0
1, 89400, Note_on_c, 0, 84, 46
1, 89400, Note_on_c, 0, 65, 33
1, 89520, Note_on_c, 0, 65, 0
1, 89520, Note_on_c, 0, 60, 0
1, 89520, Note_on_c, 0, 77, 0
1, 89520, Note_on_c, 0, 84, 0
1, 89520, Note_on_c, 0, 89, 56
1, 89520, Note_on_c, 0, 53, 28
1, 89580, Note_on_c, 0, 53, 0
1, 89580, Note_on_c, 0, 89, 0
1, 89640, Tempo, 472701
1, 89760, Tempo, 392182
1, 89760, Note_on_c, 0, 71, 43
1, 89760, Note_on_c, 0, 79, 59
1, 89760, Note_on_c, 0, 69, 35
1, 89760, Note_on_c, 0, 59, 28
1, 89767, Control_c, 0, 64, 0
1, 89812, Control_c, 0, 64, 127
1, 89880, Tempo, 443557
1, 89880, Note_on_c, 0, 69, 0
1, 89880, Note_on_c, 0, 79, 0
1, 89880, Note_on_c, 0, 78, 43
1, 89880, Note_on_c, 0, 63, 32
1, 90000, Note_on_c, 0, 63, 0
1, 90000, Note_on_c, 0, 59, 0
1, 90000, Note_on_c, 0, 71, 0
1, 90000, Note_on_c, 0, 78, 0
1, 90000, Note_on_c, 0, 83, 54
1, 90000, Note_on_c, 0, 47, 25
1, 90060, Note_on_c, 0, 47, 0
1, 90060, Note_on_c, 0, 83, 0
1, 90120, Tempo, 465188
1, 90240, Tempo, 391901
1, 90240, Note_on_c, 0, 71, 39
1, 90240, Note_on_c, 0, 77, 58
1, 90240, Note_on_c, 0, 68, 33
1, 90240, Note_on_c, 0, 59, 25
1, 90245, Control_c, 0, 64, 0
1, 90275, Control_c, 0, 64, 127
1, 90360, Tempo, 441826
1, 90360, Note_on_c, 0, 68, 0
1, 90360, Note_on_c, 0, 77, 0
1, 90360, Note_on_c, 0, 76, 44
1, 90360, Note_on_c, 0, 62, 29
1, 90480, Note_on_c, 0, 62, 0
1, 90480, Note_on_c, 0, 59, 0
1, 90480, Note_on_c, 0, 71, 0
1, 90480, Note_on_c, 0, 76, 0
1, 90480, Note_on_c, 0, 83, 54
1, 90480, Note_on_c, 0, 52, 24
1, 90540, Note_on_c, 0, 52, 0
1, 90540, Note_on_c, 0, 83, 0
1, 90600, Tempo, 476834
1, 90720, Tempo, 388199
1, 90720, Note_on_c, 0, 69, 39
1, 90720, Note_on_c, 0, 77, 60
1, 90720, Note_on_c, 0, 67, 33
1, 90720, Note_on_c, 0, 57, 27
1, 90727, Control_c, 0, 64, 0
1, 90791, Control_c, 0, 64, 127
1, 90840, Tempo, 448163
1, 90840, Note_on_c, 0, 67, 0
1, 90840, Note_on_c, 0, 77, 0
1, 90840, Note_on_c, 0, 76, 43
1, 90840, Note_on_c, 0, 61, 31
1, 90960, Note_on_c, 0, 61, 0
1, 90960, Note_on_c, 0, 57, 0
1, 90960, Note_on_c, 0, 69, 0
1, 90960, Note_on_c, 0, 76, 0
1, 90960, Note_on_c, 0, 81, 53
1, 90960, Note_on_c, 0, 45, 26
1, 91020, Note_on_c, 0, 45, 0
1, 91020, Note_on_c, 0, 81, 0
1, 91080, Tempo, 472701
1, 91200, Tempo, 392182
1, 91200, Note_on_c, 0, 69, 39
1, 91200, Note_on_c, 0, 76, 58
1, 91200, Note_on_c, 0, 62, 34
1, 91200, Note_on_c, 0, 55, 27
1, 91217, Control_c, 0, 64, 0
1, 91267, Control_c, 0, 64, 127
1, 91320, Tempo, 443557
1, 91320, Note_on_c, 0, 62, 0
1, 91320, Note_on_c, 0, 76, 0
1, 91320, Note_on_c, 0, 74, 39
1, 91320, Note_on_c, 0, 58, 31
1, 91440, Note_on_c, 0, 58, 0
1, 91440, Note_on_c, 0, 55, 0
1, 91440, Note_on_c, 0, 69, 0
1, 91440, Note_on_c, 0, 74, 0
1, 91440, Note_on_c, 0, 81, 51
1, 91440, Note_on_c, 0, 46, 24
1, 91500, Note_on_c, 0, 46, 0
1, 91500, Note_on_c, 0, 81, 0
1, 91560, Tempo, 465188
1, 91680, Tempo, 391901
1, 91680, Note_on_c, 0, 67, 37
1, 91680, Note_on_c, 0, 74, 57
1, 91680, Note_on_c, 0, 64, 32
1, 91680, Note_on_c, 0, 55, 26
1, 91689, Control_c, 0, 64, 0
1, 91747, Control_c, 0, 64, 127
1, 91800, Tempo, 441826
1, 91800, Note_on_c, 0, 64, 0
1, 91800, Note_on_c, 0, 74, 0
1, 91800, Note_on_c, 0, 72, 44
1, 91800, Note_on_c, 0, 58, 30
1, 91920, Note_on_c, 0, 58, 0
1, 91920, Note_on_c, 0, 55, 0
1, 91920, Note_on_c, 0, 67, 0
1, 91920, Note_on_c, 0, 72, 0
1, 91920, Note_on_c, 0, 79, 54
1, 91920, Note_on_c, 0, 48, 24
1, 91980, Note_on_c, 0, 48, 0
1, 91980, Note_on_c, 0, 79, 0
1, 92040, Tempo, 476834
1, 92160, Tempo, 388199
1, 92160, Note_on_c, 0, 65, 39
1, 92160, Note_on_c, 0, 74, 60
1, 92160, Control_c, 0, 64, 0
1, 92160, Note_on_c, 0, 57, 33
1, 92160, Note_on_c, 0, 48, 27
1, 92231, Control_c, 0, 64, 127
1, 92280, Tempo, 448163
1, 92280, Note_on_c, 0, 57, 0
1, 92280, Note_on_c, 0, 74, 0
1, 92280, Note_on_c, 0, 72, 43
1, 92280, Note_on_c, 0, 53, 31
1, 92400, Note_on_c, 0, 53, 0
1, 92400, Note_on_c, 0, 48, 0
1, 92400, Note_on_c, 0, 65, 0
1, 92400, Note_on_c, 0, 72, 0
1, 92400, Note_on_c, 0, 77, 54
1, 92400, Note_on_c, 0, 41, 26
1, 92520, Tempo, 472701
1, 92640, Tempo, 392182
1, 92640, Note_on_c, 0, 41, 0
1, 92640, Note_on_c, 0, 77, 0
1, 92640, Note_on_c, 0, 72, 43
1, 92640, Note_on_c, 0, 79, 61
1, 92640, Note_on_c, 0, 57, 35
1, 92640, Note_on_c, 0, 48, 27
1, 92760, Tempo, 443557
1, 92760, Note_on_c, 0, 57, 0
1, 92760, Note_on_c, 0, 79, 0
1, 92760, Note_on_c, 0, 77, 44
1, 92760, Note_on_c, 0, 53, 33
1, 92880, Note_on_c, 0, 53, 0
1, 92880, Note_on_c, 0, 48, 0
1, 92880, Note_on_c, 0, 72, 0
1, 92880, Note_on_c, 0, 77, 0
1, 92880, Note_on_c, 0, 84, 55
1, 92880, Note_on_c, 0, 41, 25
1, 93000, Tempo, 465188
1, 93120, Tempo, 391901
1, 93120, Note_on_c, 0, 41, 0
1, 93120, Note_on_c, 0, 84, 0
1, 93120, Note_on_c, 0, 72, 39
1, 93120, Note_on_c, 0, 81, 61
1, 93120, Note_on_c, 0, 58, 34
1, 93120, Note_on_c, 0, 48, 27
1, 93129, Control_c, 0, 64, 0
1, 93212, Control_c, 0, 64, 127
1, 93240, Tempo, 441826
1, 93240, Note_on_c, 0, 58, 0
1, 93240, Note_on_c, 0, 81, 0
1, 93240, Note_on_c, 0, 79, 46
1, 93240, Note_on_c, 0, 52, 32
1, 93360, Note_on_c, 0, 52, 0
1, 93360, Note_on_c, 0, 48, 0
1, 93360, Note_on_c, 0, 72, 0
1, 93360, Note_on_c, 0, 79, 0
1, 93360, Note_on_c, 0, 84, 59
1, 93360, Note_on_c, 0, 41, 25
1, 93480, Tempo, 476834
1, 93600, Tempo, 388199
1, 93600, Note_on_c, 0, 41, 0
1, 93600, Note_on_c, 0, 84, 0
1, 93600, Note_on_c, 0, 72, 43
1, 93600, Note_on_c, 0, 79, 63
1, 93600, Note_on_c, 0, 57, 35
1, 93600, Note_on_c, 0, 48, 29
1, 93603, Control_c, 0, 64, 0
1, 93671, Control_c, 0, 64, 127
1, 93720, Tempo, 448163
1, 93720, Note_on_c, 0, 57, 0
1, 93720, Note_on_c, 0, 79, 0
1, 93720, Note_on_c, 0, 77, 46
1, 93720, Note_on_c, 0, 53, 33
1, 93840, Note_on_c, 0, 53, 0
1, 93840, Note_on_c, 0, 48, 0
1, 93840, Note_on_c, 0, 72, 0
1, 93840, Note_on_c, 0, 77, 0
1, 93840, Note_on_c, 0, 84, 56
1, 93840, Note_on_c, 0, 41, 27
1, 93960, Tempo, 472701
1, 94080, Tempo, 392182
1, 94080, Note_on_c, 0, 41, 0
1, 94080, Note_on_c, 0, 84, 0
1, 94080, Note_on_c, 0, 72, 43
1, 94080, Note_on_c, 0, 79, 63
1, 94080, Note_on_c, 0, 57, 34
1, 94080, Note_on_c, 0, 48, 27
1, 94200, Tempo, 443557
1, 94200, Note_on_c, 0, 57, 0
1, 94200, Note_on_c, 0, 79, 0
1, 94200, Note_on_c, 0, 77, 44
1, 94200, Note_on_c, 0, 53, 32
1, 94320, Note_on_c, 0, 53, 0
1, 94320, Note_on_c, 0, 48, 0
1, 94320, Note_on_c, 0, 72, 0
1, 94320, Note_on_c, 0, 77, 0
1, 94320, Note_on_c, 0, 84, 54
1, 94320, Note_on_c, 0, 41, 24
1, 94440, Tempo, 465188
1, 94560, Tempo, 391901
1, 94560, Note_on_c, 0, 41, 0
1, 94560, Note_on_c, 0, 84, 0
1, 94560, Note_on_c, 0, 72, 37
1, 94560, Note_on_c, 0, 81, 58
1, 94560, Note_on_c, 0, 58, 32
1, 94560, Note_on_c, 0, 48, 26
1, 94564, Control_c, 0, 64, 0
1, 94659, Control_c, 0, 64, 127
1, 94680, Tempo, 441826
1, 94680, Note_on_c, 0, 58, 0
1, 94680, Note_on_c, 0, 81, 0
1, 94680, Note_on_c, 0, 79, 44
1, 94680, Note_on_c, 0, 52, 30
1, 94800, Note_on_c, 0, 52, 0
1, 94800, Note_on_c, 0, 48, 0
1, 94800, Note_on_c, 0, 72, 0
1, 94800, Note_on_c, 0, 79, 0
1, 94800, Note_on_c, 0, 84, 54
1, 94800, Note_on_c, 0, 41, 23
1, 94920, Tempo, 476834
1, 95040, Tempo, 388199
1, 95040, Note_on_c, 0, 41, 0
1, 95040, Note_on_c, 0, 84, 0
1, 95040, Note_on_c, 0, 72, 38
1, 95040, Note_on_c, 0, 79, 59
1, 95040, Note_on_c, 0, 57, 33
1, 95040, Note_on_c, 0, 48, 27
1, 95045, Control_c, 0, 64, 0
1, 95111, Control_c, 0, 64, 127
1, 95160, Tempo, 448163
1, 95160, Note_on_c, 0, 57, 0
1, 95160, Note_on_c, 0, 79, 0
1, 95160, Note_on_c, 0, 77, 43
1, 95160, Note_on_c, 0, 53, 31
1, 95280, Note_on_c, 0, 53, 0
1, 95280, Note_on_c, 0, 48, 0
1, 95280, Note_on_c, 0, 72, 0
1, 95280, Note_on_c, 0, 77, 0
1, 95280, Note_on_c, 0, 84, 54
1, 95280, Note_on_c, 0, 41, 25
1, 95400, Tempo, 472701
1, 95520, Tempo, 392182
1, 95520, Note_on_c, 0, 41, 0
1, 95520, Note_on_c, 0, 84, 0
1, 95520, Note_on_c, 0, 72, 40
1, 95520, Note_on_c, 0, 79, 58
1, 95520, Note_on_c, 0, 29, 27
1, 95640, Tempo, 443557
1, 95640, Note_on_c, 0, 79, 0
1, 95640, Note_on_c, 0, 77, 40
1, 95760, Note_on_c, 0, 77, 0
1, 95760, Note_on_c, 0, 29, 0
1, 95760, Note_on_c, 0, 72, 0
1, 95760, Note_on_c, 0, 84, 52
1, 95880, Tempo, 465188
1, 96000, Tempo, 391901
1, 96000, Note_on_c, 0, 84, 0
1, 96000, Note_on_c, 0, 72, 35
1, 96000, Note_on_c, 0, 79, 56
1, 96000, Note_on_c, 0, 41, 22
1, 96000, Note_on_c, 0, 48, 22
1, 96000, Note_on_c, 0, 57, 26
1, 96120, Tempo, 441826
1, 96120, Note_on_c, 0, 79, 0
1, 96120, Note_on_c, 0, 77, 42
1, 96240, Note_on_c, 0, 77, 0
1, 96240, Note_on_c, 0, 72, 0
1, 96240, Note_on_c, 0, 84, 51
1, 96360, Tempo, 476834
1, 96480, Tempo, 388199
1, 96480, Note_on_c, 0, 84, 0
1, 96480, Note_on_c, 0, 57, 0
1, 96480, Note_on_c, 0, 41, 0
1, 96480, Note_on_c, 0, 48, 0
1, 96480, Note_on_c, 0, 72, 37
1, 96480, Note_on_c, 0, 79, 56
1, 96480, Note_on_c, 0, 53, 21
1, 96480, Note_on_c, 0, 60, 21
1, 96480, Note_on_c, 0, 69, 26
1, 96540, Note_on_c, 0, 79, 0
1, 96540, Note_on_c, 0, 77, 40
1, 96600, Tempo, 448163
1, 96600, Note_on_c, 0, 77, 0
1, 96600, Note_on_c, 0, 79, 46
1, 96660, Note_on_c, 0, 79, 0
1, 96660, Note_on_c, 0, 77, 38
1, 96720, Note_on_c, 0, 77, 0
1, 96720, Note_on_c, 0, 72, 0
1, 96720, Note_on_c, 0, 84, 49
1, 96840, Tempo, 472701
1, 96960, Tempo, 392182
1, 96960, Note_on_c, 0, 84, 0
1, 96960, Note_on_c, 0, 69, 0
1, 96960, Note_on_c, 0, 53, 0
1, 96960, Note_on_c, 0, 60, 0
1, 96960, Note_on_c, 0, 72, 37
1, 96960, Note_on_c, 0, 79, 54
1, 96960, Note_on_c, 0, 29, 25
1, 97020, Note_on_c, 0, 79, 0
1, 97020, Note_on_c, 0, 77, 37
1, 97080, Tempo, 443557
1, 97080, Note_on_c, 0, 77, 0
1, 97080, Note_on_c, 0, 79, 40
1, 97140, Note_on_c, 0, 79, 0
1, 97140, Note_on_c, 0, 77, 37
1, 97200, Note_on_c, 0, 77, 0
1, 97200, Note_on_c, 0, 29, 0
1, 97200, Note_on_c, 0, 72, 0
1, 97200, Note_on_c, 0, 84, 47
1, 97320, Tempo, 465188
1, 97440, Tempo, 391901
1, 97440, Note_on_c, 0, 84, 0
1, 97440, Note_on_c, 0, 72, 32
1, 97440, Note_on_c, 0, 79, 51
1, 97440, Note_on_c, 0, 41, 19
1, 97440, Note_on_c, 0, 48, 19
1, 97440, Note_on_c, 0, 57, 24
1, 97500, Note_on_c, 0, 79, 0
1, 97500, Note_on_c, 0, 77, 37
1, 97560, Tempo, 441826
1, 97560, Note_on_c, 0, 77, 0
1, 97560, Note_on_c, 0, 79, 38
1, 97620, Note_on_c, 0, 79, 0
1, 97620, Note_on_c, 0, 77, 37
1, 97680, Note_on_c, 0, 77, 0
1, 97680, Note_on_c, 0, 72, 0
1, 97680, Note_on_c, 0, 84, 46
1, 97800, Tempo, 506329
1, 97920, Tempo, 422535
1, 97920, Note_on_c, 0, 84, 0
1, 97920, Note_on_c, 0, 57, 0
1, 97920, Note_on_c, 0, 41, 0
1, 97920, Note_on_c, 0, 48, 0
1, 97920, Note_on_c, 0, 72, 33
1, 97920, Note_on_c, 0, 79, 51
1, 97920, Note_on_c, 0, 53, 18
1, 97920, Note_on_c, 0, 60, 18
1, 97920, Note_on_c, 0, 69, 23
1, 97932, Tempo, 419580
1, 97944, Tempo, 418118
1, 97972, Tempo, 424028
1, 97980, Note_on_c, 0, 79, 0
1, 97980, Note_on_c, 0, 77, 36
1, 98012, Tempo, 422535
1, 98024, Tempo, 424028
1, 98040, Tempo, 448163
1, 98040, Note_on_c, 0, 77, 0
1, 98040, Note_on_c, 0, 79, 40
1, 98052, Tempo, 446097
1, 98080, Tempo, 444444
1, 98100, Note_on_c, 0, 79, 0
1, 98100, Note_on_c, 0, 77, 34
1, 98104, Tempo, 441176
1, 98120, Tempo, 439560
1, 98132, Tempo, 451128
1, 98144, Tempo, 447761
1, 98160, Tempo, 444444
1, 98160, Note_on_c, 0, 77, 0
1, 98160, Note_on_c, 0, 72, 0
1, 98160, Note_on_c, 0, 79, 48
1, 98160, Note_on_c, 0, 84, 45
1, 98184, Tempo, 442804
1, 98200, Tempo, 444444
1, 98212, Tempo, 451128
1, 98220, Note_on_c, 0, 79, 0
1, 98220, Note_on_c, 0, 77, 34
1, 98252, Tempo, 447761
1, 98264, Tempo, 446097
1, 98280, Tempo, 444444
1, 98280, Note_on_c, 0, 77, 0
1, 98280, Note_on_c, 0, 79, 48
1, 98292, Tempo, 456274
1, 98304, Tempo, 458015
1, 98332, Tempo, 466926
1, 98340, Note_on_c, 0, 79, 0
1, 98340, Note_on_c, 0, 77, 34
1, 98344, Tempo, 470588
1, 98360, Tempo, 466926
1, 98372, Tempo, 465116
1, 98400, Tempo, 419580
1, 98400, Note_on_c, 0, 77, 0
1, 98400, Note_on_c, 0, 84, 0
1, 98400, Note_on_c, 0, 69, 0
1, 98400, Note_on_c, 0, 53, 0
1, 98400, Note_on_c, 0, 60, 0
1, 98400, Note_on_c, 0, 72, 33
1, 98400, Note_on_c, 0, 79, 47
1, 98412, Tempo, 415225
1, 98424, Tempo, 413793
1, 98452, Tempo, 419580
1, 98460, Note_on_c, 0, 79, 0
1, 98460, Note_on_c, 0, 77, 33
1, 98480, Tempo, 418118
1, 98492, Tempo, 422535
1, 98520, Note_on_c, 0, 77, 0
1, 98520, Note_on_c, 0, 79, 35
1, 98580, Note_on_c, 0, 79, 0
1, 98580, Note_on_c, 0, 77, 33
1, 98584, Tempo, 436364
1, 98600, Tempo, 433213
1, 98612, Tempo, 446097
1, 98624, Tempo, 444444
1, 98640, Tempo, 441176
1, 98640, Note_on_c, 0, 77, 0
1, 98640, Note_on_c, 0, 72, 0
1, 98640, Note_on_c, 0, 79, 35
1, 98640, Note_on_c, 0, 84, 42
1, 98664, Tempo, 446097
1, 98680, Tempo, 447761
1, 98700, Note_on_c, 0, 79, 0
1, 98700, Note_on_c, 0, 77, 33
1, 98720, Tempo, 444444
1, 98744, Tempo, 442804
1, 98760, Tempo, 446097
1, 98760, Note_on_c, 0, 77, 0
1, 98760, Note_on_c, 0, 79, 35
1, 98772, Tempo, 449438
1, 98812, Tempo, 444444
1, 98820, Note_on_c, 0, 79, 0
1, 98820, Note_on_c, 0, 77, 32
1, 98824, Tempo, 447761
1, 98840, Tempo, 449438
1, 98880, Tempo, 415225
1, 98880, Note_on_c, 0, 77, 0
1, 98880, Note_on_c, 0, 84, 0
1, 98880, Note_on_c, 0, 72, 28
1, 98880, Note_on_c, 0, 79, 45
1, 98932, Tempo, 418118
1, 98940, Note_on_c, 0, 79, 0
1, 98940, Note_on_c, 0, 77, 32
1, 98984, Tempo, 441176
1, 99000, Tempo, 439560
1, 99000, Note_on_c, 0, 77, 0
1, 99000, Note_on_c, 0, 79, 34
1, 99012, Tempo, 436364
1, 99024, Tempo, 434783
1, 99040, Tempo, 433213
1, 99052, Tempo, 431655
1, 99060, Note_on_c, 0, 79, 0
1, 99060, Note_on_c, 0, 77, 32
1, 99064, Tempo, 441176
1, 99080, Tempo, 442804
1, 99104, Tempo, 441176
1, 99120, Tempo, 437956
1, 99120, Note_on_c, 0, 77, 0
1, 99120, Note_on_c, 0, 72, 0
1, 99120, Note_on_c, 0, 79, 33
1, 99120, Note_on_c, 0, 84, 40
1, 99132, Tempo, 436364
1, 99144, Tempo, 437956
1, 99160, Tempo, 444444
1, 99172, Tempo, 447761
1, 99180, Note_on_c, 0, 79, 0
1, 99180, Note_on_c, 0, 77, 32
1, 99200, Tempo, 446097
1, 99212, Tempo, 442804
1, 99224, Tempo, 437956
1, 99240, Tempo, 436364
1, 99240, Note_on_c, 0, 77, 0
1, 99240, Note_on_c, 0, 79, 33
1, 99252, Tempo, 434783
1, 99264, Tempo, 444444
1, 99280, Tempo, 452830
1, 99292, Tempo, 451128
1, 99300, Note_on_c, 0, 79, 0
1, 99300, Note_on_c, 0, 77, 31
1, 99304, Tempo, 452830
1, 99344, Tempo, 427046
1, 99360, Note_on_c, 0, 77, 0
1, 99360, Note_on_c, 0, 84, 0
1, 99360, Note_on_c, 0, 72, 28
1, 99360, Note_on_c, 0, 77, 45
1, 99400, Tempo, 437956
1, 99412, Tempo, 436364
1, 99420, Note_on_c, 0, 77, 0
1, 99420, Note_on_c, 0, 79, 32
1, 99424, Tempo, 434783
1, 99440, Tempo, 430108
1, 99452, Tempo, 428571
1, 99480, Tempo, 430108
1, 99480, Note_on_c, 0, 79, 0
1, 99480, Note_on_c, 0, 77, 34
1, 99492, Tempo, 434783
1, 99520, Tempo, 433213
1, 99532, Tempo, 430108
1, 99540, Note_on_c, 0, 77, 0
1, 99540, Note_on_c, 0, 79, 32
1, 99560, Tempo, 433213
1, 99572, Tempo, 439560
1, 99584, Tempo, 442804
1, 99600, Note_on_c, 0, 79, 0
1, 99600, Note_on_c, 0, 72, 0
1, 99600, Note_on_c, 0, 77, 33
1, 99612, Tempo, 439560
1, 99624, Tempo, 436364
1, 99640, Tempo, 439560
1, 99652, Tempo, 442804
1, 99660, Note_on_c, 0, 77, 0
1, 99660, Note_on_c, 0, 79, 32
1, 99664, Tempo, 444444
1, 99680, Tempo, 446097
1, 99720, Tempo, 476834
1, 99720, Note_on_c, 0, 79, 0
1, 99720, Note_on_c, 0, 76, 33
1, 99840, Note_on_c, 0, 76, 0
1, 99840, Note_on_c, 0, 77, 44
1, 99860, Tempo, 474834
1, 99900, Note_on_c, 0, 77, 0
1, 99900, Note_on_c, 0, 80, 44
1, 99940, Tempo, 476834
1, 99960, Note_on_c, 0, 80, 0
1, 99960, Note_on_c, 0, 82, 45
1, 100000, Tempo, 478813
1, 100020, Note_on_c, 0, 82, 0
1, 100020, Note_on_c, 0, 81, 46
1, 100060, Tempo, 480808
1, 100080, Note_on_c, 0, 81, 0
1, 100080, Note_on_c, 0, 83, 46
1, 100120, Tempo, 482859
1, 100140, Note_on_c, 0, 83, 0
1, 100140, Note_on_c, 0, 86, 47
1, 100200, Tempo, 484888
1, 100200, Note_on_c, 0, 86, 0
1, 100200, Note_on_c, 0, 84, 48
1, 100260, Tempo, 486973
1, 100260, Note_on_c, 0, 84, 0
1, 100260, Note_on_c, 0, 88, 48
1, 100300, Tempo, 484888
1, 100320, Note_on_c, 0, 88, 0
1, 100320, Note_on_c, 0, 91, 49
1, 100340, Tempo, 486973
1, 100360, Tempo, 489037
1, 100380, Tempo, 491159
1, 100380, Note_on_c, 0, 91, 0
1, 100380, Note_on_c, 0, 89, 50
1, 100400, Tempo, 493259
1, 100420, Tempo, 495376
1, 100440, Tempo, 497554
1, 100440, Note_on_c, 0, 89, 0
1, 100440, Note_on_c, 0, 92, 50
1, 100460, Tempo, 499750
1, 100480, Tempo, 501924
1, 100500, Tempo, 504117
1, 100500, Note_on_c, 0, 92, 0
1, 100500, Note_on_c, 0, 94, 51
1, 100520, Tempo, 506329
1, 100540, Tempo, 508604
1, 100560, Note_on_c, 0, 94, 0
1, 100560, Note_on_c, 0, 93, 51
1, 100580, Tempo, 510899
1, 100600, Tempo, 513171
1, 100620, Tempo, 515464
1, 100620, Note_on_c, 0, 93, 0
1, 100620, Note_on_c, 0, 95, 52
1, 100640, Tempo, 517822
1, 100660, Tempo, 520156
1, 100680, Tempo, 522557
1, 100680, Note_on_c, 0, 95, 0
1, 100680, Note_on_c, 0, 98, 53
1, 100700, Tempo, 524934
1, 100720, Tempo, 527380
1, 100740, Tempo, 529801
1, 100740, Note_on_c, 0, 98, 0
1, 100740, Note_on_c, 0, 96, 53
1, 100760, Tempo, 532245
1, 100780, Tempo, 534759
1, 100800, Tempo, 750000
1, 100800, Note_on_c, 0, 96, 0
1, 100800, Note_on_c, 0, 101, 60
1, 101280, Note_on_c, 0, 101, 0
1, 101280, Control_c, 0, 64, 0
1, 101760, Note_on_c, 0, 57, 31
1, 101760, Note_on_c, 0, 60, 31
1, 101760, Note_on_c, 0, 69, 36
1, 101760, Note_on_c, 0, 36, 23
1, 101760, Note_on_c, 0, 48, 29
1, 102240, Note_on_c, 0, 48, 0
1, 102240, Note_on_c, 0, 69, 0
1, 102240, Note_on_c, 0, 57, 0
1, 102240, Note_on_c, 0, 60, 0
1, 102240, Note_on_c, 0, 36, 0
1, 102240, Note_on_c, 0, 57, 31
1, 102240, Note_on_c, 0, 65, 31
1, 102240, Note_on_c, 0, 69, 36
1, 102240, Note_on_c, 0, 29, 23
1, 102240, Note_on_c, 0, 41, 29
1, 102720, Control_c, 0, 64, 127
1, 103680, Tempo, 2000000
1, 103680, Note_on_c, 0, 41, 0
1, 103680, Note_on_c, 0, 69, 0
1, 103680, Note_on_c, 0, 57, 0
1, 103680, Note_on_c, 0, 65, 0
1, 103680, Note_on_c, 0, 29, 0
1, 103680, Note_on_c, 0, 57, 31
1, 103680, Note_on_c, 0, 65, 31
1, 103680, Note_on_c, 0, 69, 36
1, 103680, Note_on_c, 0, 41, 23
1, 103680, Note_on_c, 0, 48, 29
1, 104640, Note_on_c, 0, 48, 0
1, 104640, Note_on_c, 0, 69, 0
1, 104640, Note_on_c, 0, 57, 0
1, 104640, Note_on_c, 0, 65, 0
1, 104640, Note_on_c, 0, 41, 0
1, 105120, Tempo, 600000
1, 106080, Control_c, 0, 64, 0
1, 106080, End_track
0, 0, End_of_file
