0, 0, Header, 0, 1, 480
1, 0, Start_track
1, 0, Title_t, "Clementi: Sonatine Opus 36 Nr. 3, 3. Satz"
1, 0, Copyright_t, "Copyright © 2010 by Bernd Krueger"
1, 0, Text_t, "Muzio Clementi"
1, 0, Text_t, "Allegro"
1, 0, Text_t, "Erstellt:  18.12.2010\012"
1, 0, Text_t, "Dauer: 1:19 Minuten\012"
1, 0, Time_signature, 2, 2, 24, 8
1, 0, Key_signature, 0, "major"
1, 0, Tempo, 480038
1, 0, Program_c, 0, 0
1, 0, Note_on_c, 0, 72, 60
1, 0, Program_c, 0, 0
1, 0, Note_on_c, 0, 60, 34
1, 0, Note_on_c, 0, 64, 40
1, 0, Program_c, 0, 0
1, 120, Note_on_c, 0, 64, 0
1, 120, Note_on_c, 0, 60, 0
1, 240, Note_on_c, 0, 64, 36
1, 240, Note_on_c, 0, 60, 30
1, 360, Note_on_c, 0, 60, 0
1, 360, Note_on_c, 0, 64, 0
1, 480, Note_on_c, 0, 64, 36
1, 480, Note_on_c, 0, 60, 30
1, 600, Note_on_c, 0, 60, 0
1, 600, Note_on_c, 0, 64, 0
1, 720, Tempo, 498215
1, 720, Note_on_c, 0, 72, 0
1, 720, Note_on_c, 0, 76, 56
1, 720, Note_on_c, 0, 64, 36
1, 720, Note_on_c, 0, 60, 30
1, 840, Note_on_c, 0, 60, 0
1, 840, Note_on_c, 0, 64, 0
1, 960, Tempo, 466962
1, 960, Note_on_c, 0, 76, 0
1, 960, Note_on_c, 0, 74, 60
1, 960, Note_on_c, 0, 60, 34
1, 960, Note_on_c, 0, 65, 40
1, 1080, Note_on_c, 0, 65, 0
1, 1080, Note_on_c, 0, 60, 0
1, 1080, Note_on_c, 0, 74, 0
1, 1080, Note_on_c, 0, 72, 57
1, 1200, Note_on_c, 0, 72, 0
1, 1200, Note_on_c, 0, 71, 57
1, 1200, Note_on_c, 0, 65, 37
1, 1200, Note_on_c, 0, 60, 31
1, 1320, Note_on_c, 0, 60, 0
1, 1320, Note_on_c, 0, 65, 0
1, 1320, Note_on_c, 0, 71, 0
1, 1320, Note_on_c, 0, 74, 57
1, 1440, Tempo, 476342
1, 1440, Note_on_c, 0, 74, 0
1, 1440, Note_on_c, 0, 72, 60
1, 1440, Note_on_c, 0, 64, 37
1, 1440, Note_on_c, 0, 60, 31
1, 1560, Note_on_c, 0, 60, 0
1, 1560, Note_on_c, 0, 64, 0
1, 1560, Note_on_c, 0, 72, 0
1, 1680, Tempo, 504329
1, 1680, Note_on_c, 0, 64, 37
1, 1680, Note_on_c, 0, 60, 31
1, 1800, Note_on_c, 0, 60, 0
1, 1800, Note_on_c, 0, 64, 0
1, 1920, Tempo, 470625
1, 1920, Note_on_c, 0, 72, 60
1, 1920, Note_on_c, 0, 60, 34
1, 1920, Note_on_c, 0, 64, 40
1, 2040, Note_on_c, 0, 64, 0
1, 2040, Note_on_c, 0, 60, 0
1, 2040, Note_on_c, 0, 72, 0
1, 2040, Note_on_c, 0, 74, 55
1, 2160, Note_on_c, 0, 74, 0
1, 2160, Note_on_c, 0, 72, 55
1, 2160, Note_on_c, 0, 64, 37
1, 2160, Note_on_c, 0, 60, 31
1, 2280, Tempo, 489836
1, 2280, Note_on_c, 0, 60, 0
1, 2280, Note_on_c, 0, 64, 0
1, 2280, Note_on_c, 0, 72, 0
1, 2280, Note_on_c, 0, 71, 55
1, 2400, Tempo, 476228
1, 2400, Note_on_c, 0, 71, 0
1, 2400, Note_on_c, 0, 72, 60
1, 2400, Note_on_c, 0, 64, 37
1, 2400, Note_on_c, 0, 60, 31
1, 2520, Note_on_c, 0, 60, 0
1, 2520, Note_on_c, 0, 64, 0
1, 2520, Note_on_c, 0, 72, 0
1, 2520, Note_on_c, 0, 74, 56
1, 2640, Tempo, 478164
1, 2640, Note_on_c, 0, 74, 0
1, 2640, Note_on_c, 0, 76, 58
1, 2640, Note_on_c, 0, 64, 37
1, 2640, Note_on_c, 0, 60, 31
1, 2760, Tempo, 514845
1, 2760, Note_on_c, 0, 60, 0
1, 2760, Note_on_c, 0, 64, 0
1, 2760, Note_on_c, 0, 76, 0
1, 2760, Note_on_c, 0, 77, 63
1, 2880, Tempo, 484535
1, 2880, Note_on_c, 0, 77, 0
1, 2880, Note_on_c, 0, 79, 68
1, 2880, Note_on_c, 0, 60, 34
1, 2880, Note_on_c, 0, 64, 40
1, 3000, Note_on_c, 0, 64, 0
1, 3000, Note_on_c, 0, 60, 0
1, 3000, Note_on_c, 0, 79, 0
1, 3120, Note_on_c, 0, 79, 63
1, 3120, Note_on_c, 0, 64, 38
1, 3120, Note_on_c, 0, 60, 32
1, 3240, Note_on_c, 0, 60, 0
1, 3240, Note_on_c, 0, 64, 0
1, 3240, Note_on_c, 0, 79, 0
1, 3360, Tempo, 497141
1, 3360, Note_on_c, 0, 79, 60
1, 3360, Note_on_c, 0, 64, 40
1, 3360, Note_on_c, 0, 60, 34
1, 3480, Note_on_c, 0, 60, 0
1, 3480, Note_on_c, 0, 64, 0
1, 3480, Note_on_c, 0, 79, 0
1, 3600, Note_on_c, 0, 60, 35
1, 3600, Note_on_c, 0, 64, 42
1, 3720, Note_on_c, 0, 64, 0
1, 3720, Note_on_c, 0, 60, 0
1, 3840, Tempo, 466273
1, 3840, Note_on_c, 0, 84, 59
1, 3840, Note_on_c, 0, 60, 34
1, 3840, Note_on_c, 0, 64, 40
1, 3960, Note_on_c, 0, 84, 0
1, 3960, Note_on_c, 0, 86, 61
1, 4080, Note_on_c, 0, 86, 0
1, 4080, Note_on_c, 0, 64, 0
1, 4080, Note_on_c, 0, 60, 0
1, 4080, Note_on_c, 0, 88, 66
1, 4200, Note_on_c, 0, 88, 0
1, 4200, Note_on_c, 0, 86, 63
1, 4320, Note_on_c, 0, 86, 0
1, 4320, Note_on_c, 0, 84, 63
1, 4440, Note_on_c, 0, 84, 0
1, 4440, Note_on_c, 0, 83, 62
1, 4560, Note_on_c, 0, 83, 0
1, 4560, Note_on_c, 0, 81, 62
1, 4680, Tempo, 498215
1, 4680, Note_on_c, 0, 81, 0
1, 4680, Note_on_c, 0, 79, 61
1, 4800, Tempo, 464504
1, 4800, Note_on_c, 0, 79, 0
1, 4800, Note_on_c, 0, 77, 62
1, 4800, Note_on_c, 0, 59, 34
1, 4800, Note_on_c, 0, 67, 40
1, 4920, Note_on_c, 0, 77, 0
1, 4920, Note_on_c, 0, 83, 65
1, 5040, Note_on_c, 0, 83, 0
1, 5040, Note_on_c, 0, 67, 0
1, 5040, Note_on_c, 0, 59, 0
1, 5040, Note_on_c, 0, 86, 69
1, 5160, Note_on_c, 0, 86, 0
1, 5160, Note_on_c, 0, 84, 66
1, 5280, Note_on_c, 0, 84, 0
1, 5280, Note_on_c, 0, 83, 64
1, 5400, Note_on_c, 0, 83, 0
1, 5400, Note_on_c, 0, 81, 63
1, 5520, Note_on_c, 0, 81, 0
1, 5520, Note_on_c, 0, 79, 62
1, 5640, Tempo, 504329
1, 5640, Note_on_c, 0, 79, 0
1, 5640, Note_on_c, 0, 77, 59
1, 5760, Tempo, 462749
1, 5760, Note_on_c, 0, 77, 0
1, 5760, Note_on_c, 0, 76, 58
1, 5760, Note_on_c, 0, 60, 34
1, 5760, Note_on_c, 0, 67, 40
1, 5880, Note_on_c, 0, 76, 0
1, 5880, Note_on_c, 0, 79, 58
1, 6000, Note_on_c, 0, 79, 0
1, 6000, Note_on_c, 0, 67, 0
1, 6000, Note_on_c, 0, 60, 0
1, 6000, Note_on_c, 0, 84, 61
1, 6120, Note_on_c, 0, 84, 0
1, 6120, Note_on_c, 0, 83, 62
1, 6240, Note_on_c, 0, 83, 0
1, 6240, Note_on_c, 0, 81, 58
1, 6360, Note_on_c, 0, 81, 0
1, 6360, Note_on_c, 0, 79, 57
1, 6480, Note_on_c, 0, 79, 0
1, 6480, Note_on_c, 0, 77, 56
1, 6600, Tempo, 500250
1, 6600, Note_on_c, 0, 77, 0
1, 6600, Note_on_c, 0, 76, 54
1, 6700, Tempo, 486460
1, 6720, Note_on_c, 0, 76, 0
1, 6720, Note_on_c, 0, 74, 61
1, 6720, Note_on_c, 0, 55, 46
1, 6740, Tempo, 484535
1, 6760, Tempo, 482664
1, 6800, Tempo, 480769
1, 6820, Tempo, 478927
1, 6840, Tempo, 477061
1, 6840, Note_on_c, 0, 55, 0
1, 6840, Note_on_c, 0, 59, 40
1, 6880, Tempo, 475210
1, 6900, Tempo, 473410
1, 6920, Tempo, 471587
1, 6960, Tempo, 469814
1, 6960, Note_on_c, 0, 59, 0
1, 6960, Note_on_c, 0, 74, 0
1, 6960, Note_on_c, 0, 62, 40
1, 6980, Tempo, 468019
1, 7020, Tempo, 466273
1, 7040, Tempo, 464504
1, 7060, Tempo, 462749
1, 7080, Note_on_c, 0, 62, 0
1, 7080, Note_on_c, 0, 67, 40
1, 7100, Tempo, 461042
1, 7120, Tempo, 459313
1, 7140, Tempo, 457631
1, 7200, Note_on_c, 0, 67, 0
1, 7200, Note_on_c, 0, 79, 59
1, 7220, Tempo, 455927
1, 7240, Tempo, 457631
1, 7260, Tempo, 459313
1, 7280, Tempo, 461042
1, 7300, Tempo, 462749
1, 7320, Tempo, 464504
1, 7320, Note_on_c, 0, 79, 0
1, 7320, Note_on_c, 0, 77, 57
1, 7340, Tempo, 466273
1, 7360, Tempo, 468019
1, 7380, Tempo, 469814
1, 7400, Tempo, 471587
1, 7420, Tempo, 473410
1, 7440, Tempo, 475210
1, 7440, Note_on_c, 0, 77, 0
1, 7440, Note_on_c, 0, 76, 55
1, 7460, Tempo, 477061
1, 7480, Tempo, 478927
1, 7500, Tempo, 480769
1, 7520, Tempo, 482664
1, 7540, Tempo, 484535
1, 7560, Tempo, 486460
1, 7560, Note_on_c, 0, 76, 0
1, 7560, Note_on_c, 0, 74, 55
1, 7580, Tempo, 488361
1, 7600, Tempo, 490316
1, 7620, Tempo, 494234
1, 7680, Tempo, 478164
1, 7680, Note_on_c, 0, 74, 0
1, 7680, Note_on_c, 0, 72, 60
1, 7680, Note_on_c, 0, 60, 34
1, 7680, Note_on_c, 0, 64, 40
1, 7800, Note_on_c, 0, 64, 0
1, 7800, Note_on_c, 0, 60, 0
1, 7920, Note_on_c, 0, 64, 36
1, 7920, Note_on_c, 0, 60, 30
1, 8040, Note_on_c, 0, 60, 0
1, 8040, Note_on_c, 0, 64, 0
1, 8160, Note_on_c, 0, 64, 36
1, 8160, Note_on_c, 0, 60, 30
1, 8280, Note_on_c, 0, 60, 0
1, 8280, Note_on_c, 0, 64, 0
1, 8400, Tempo, 496237
1, 8400, Note_on_c, 0, 72, 0
1, 8400, Note_on_c, 0, 76, 56
1, 8400, Note_on_c, 0, 64, 36
1, 8400, Note_on_c, 0, 60, 30
1, 8520, Note_on_c, 0, 60, 0
1, 8520, Note_on_c, 0, 64, 0
1, 8640, Tempo, 473597
1, 8640, Note_on_c, 0, 76, 0
1, 8640, Note_on_c, 0, 74, 60
1, 8640, Note_on_c, 0, 60, 34
1, 8640, Note_on_c, 0, 65, 40
1, 8760, Note_on_c, 0, 65, 0
1, 8760, Note_on_c, 0, 60, 0
1, 8760, Note_on_c, 0, 74, 0
1, 8760, Note_on_c, 0, 72, 57
1, 8880, Note_on_c, 0, 72, 0
1, 8880, Note_on_c, 0, 71, 57
1, 8880, Note_on_c, 0, 65, 37
1, 8880, Note_on_c, 0, 60, 31
1, 9000, Note_on_c, 0, 60, 0
1, 9000, Note_on_c, 0, 65, 0
1, 9000, Note_on_c, 0, 71, 0
1, 9000, Note_on_c, 0, 74, 57
1, 9120, Tempo, 473597
1, 9120, Note_on_c, 0, 74, 0
1, 9120, Note_on_c, 0, 72, 60
1, 9120, Note_on_c, 0, 64, 37
1, 9120, Note_on_c, 0, 60, 31
1, 9240, Note_on_c, 0, 60, 0
1, 9240, Note_on_c, 0, 64, 0
1, 9240, Note_on_c, 0, 72, 0
1, 9360, Tempo, 498215
1, 9360, Note_on_c, 0, 64, 37
1, 9360, Note_on_c, 0, 60, 31
1, 9480, Note_on_c, 0, 60, 0
1, 9480, Note_on_c, 0, 64, 0
1, 9600, Tempo, 466237
1, 9600, Note_on_c, 0, 72, 60
1, 9600, Note_on_c, 0, 60, 34
1, 9600, Note_on_c, 0, 64, 40
1, 9720, Note_on_c, 0, 64, 0
1, 9720, Note_on_c, 0, 60, 0
1, 9720, Note_on_c, 0, 72, 0
1, 9720, Note_on_c, 0, 74, 55
1, 9840, Note_on_c, 0, 74, 0
1, 9840, Note_on_c, 0, 72, 55
1, 9840, Note_on_c, 0, 64, 37
1, 9840, Note_on_c, 0, 60, 31
1, 9960, Tempo, 468055
1, 9960, Note_on_c, 0, 60, 0
1, 9960, Note_on_c, 0, 64, 0
1, 9960, Note_on_c, 0, 72, 0
1, 9960, Note_on_c, 0, 71, 55
1, 10080, Tempo, 476228
1, 10080, Note_on_c, 0, 71, 0
1, 10080, Note_on_c, 0, 72, 60
1, 10080, Note_on_c, 0, 64, 37
1, 10080, Note_on_c, 0, 60, 31
1, 10200, Note_on_c, 0, 60, 0
1, 10200, Note_on_c, 0, 64, 0
1, 10200, Note_on_c, 0, 72, 0
1, 10200, Note_on_c, 0, 74, 56
1, 10320, Tempo, 477061
1, 10320, Note_on_c, 0, 74, 0
1, 10320, Note_on_c, 0, 76, 58
1, 10320, Note_on_c, 0, 64, 37
1, 10320, Note_on_c, 0, 60, 31
1, 10440, Tempo, 532576
1, 10440, Note_on_c, 0, 60, 0
1, 10440, Note_on_c, 0, 64, 0
1, 10440, Note_on_c, 0, 76, 0
1, 10440, Note_on_c, 0, 77, 63
1, 10560, Tempo, 488361
1, 10560, Note_on_c, 0, 77, 0
1, 10560, Note_on_c, 0, 79, 68
1, 10560, Note_on_c, 0, 60, 34
1, 10560, Note_on_c, 0, 64, 40
1, 10680, Note_on_c, 0, 64, 0
1, 10680, Note_on_c, 0, 60, 0
1, 10680, Note_on_c, 0, 79, 0
1, 10800, Note_on_c, 0, 79, 63
1, 10800, Note_on_c, 0, 64, 38
1, 10800, Note_on_c, 0, 60, 32
1, 10920, Note_on_c, 0, 60, 0
1, 10920, Note_on_c, 0, 64, 0
1, 10920, Note_on_c, 0, 79, 0
1, 11040, Tempo, 499210
1, 11040, Note_on_c, 0, 79, 60
1, 11040, Note_on_c, 0, 64, 40
1, 11040, Note_on_c, 0, 60, 34
1, 11160, Note_on_c, 0, 60, 0
1, 11160, Note_on_c, 0, 64, 0
1, 11160, Note_on_c, 0, 79, 0
1, 11280, Note_on_c, 0, 60, 35
1, 11280, Note_on_c, 0, 64, 42
1, 11400, Note_on_c, 0, 64, 0
1, 11400, Note_on_c, 0, 60, 0
1, 11520, Tempo, 475210
1, 11520, Note_on_c, 0, 84, 59
1, 11520, Note_on_c, 0, 60, 34
1, 11520, Note_on_c, 0, 64, 40
1, 11640, Note_on_c, 0, 84, 0
1, 11640, Note_on_c, 0, 86, 61
1, 11760, Note_on_c, 0, 86, 0
1, 11760, Note_on_c, 0, 64, 0
1, 11760, Note_on_c, 0, 60, 0
1, 11760, Note_on_c, 0, 88, 66
1, 11880, Note_on_c, 0, 88, 0
1, 11880, Note_on_c, 0, 86, 63
1, 12000, Note_on_c, 0, 86, 0
1, 12000, Note_on_c, 0, 84, 63
1, 12120, Note_on_c, 0, 84, 0
1, 12120, Note_on_c, 0, 83, 62
1, 12240, Note_on_c, 0, 83, 0
1, 12240, Note_on_c, 0, 81, 62
1, 12360, Tempo, 516974
1, 12360, Note_on_c, 0, 81, 0
1, 12360, Note_on_c, 0, 80, 61
1, 12480, Tempo, 473410
1, 12480, Note_on_c, 0, 80, 0
1, 12480, Note_on_c, 0, 81, 62
1, 12480, Note_on_c, 0, 53, 34
1, 12480, Note_on_c, 0, 65, 40
1, 12600, Note_on_c, 0, 81, 0
1, 12600, Note_on_c, 0, 83, 65
1, 12720, Note_on_c, 0, 83, 0
1, 12720, Note_on_c, 0, 65, 0
1, 12720, Note_on_c, 0, 53, 0
1, 12720, Note_on_c, 0, 84, 69
1, 12840, Note_on_c, 0, 84, 0
1, 12840, Note_on_c, 0, 83, 66
1, 12960, Note_on_c, 0, 83, 0
1, 12960, Note_on_c, 0, 81, 64
1, 13080, Note_on_c, 0, 81, 0
1, 13080, Note_on_c, 0, 79, 63
1, 13200, Note_on_c, 0, 79, 0
1, 13200, Note_on_c, 0, 77, 62
1, 13320, Tempo, 514845
1, 13320, Note_on_c, 0, 77, 0
1, 13320, Note_on_c, 0, 76, 59
1, 13440, Tempo, 490316
1, 13440, Note_on_c, 0, 76, 0
1, 13440, Note_on_c, 0, 74, 63
1, 13440, Note_on_c, 0, 55, 34
1, 13440, Note_on_c, 0, 59, 40
1, 13480, Tempo, 488361
1, 13520, Tempo, 486460
1, 13560, Tempo, 484535
1, 13560, Note_on_c, 0, 74, 0
1, 13560, Note_on_c, 0, 72, 59
1, 13580, Tempo, 482664
1, 13620, Tempo, 480769
1, 13660, Tempo, 478927
1, 13680, Tempo, 477061
1, 13680, Note_on_c, 0, 72, 0
1, 13680, Note_on_c, 0, 59, 0
1, 13680, Note_on_c, 0, 55, 0
1, 13680, Note_on_c, 0, 71, 58
1, 13720, Tempo, 475210
1, 13760, Tempo, 473410
1, 13780, Tempo, 471587
1, 13800, Note_on_c, 0, 71, 0
1, 13800, Note_on_c, 0, 69, 58
1, 13820, Tempo, 469814
1, 13860, Tempo, 468019
1, 13880, Tempo, 466273
1, 13920, Tempo, 468019
1, 13920, Note_on_c, 0, 69, 0
1, 13920, Note_on_c, 0, 67, 57
1, 13940, Tempo, 469814
1, 13960, Tempo, 471587
1, 13980, Tempo, 473410
1, 14000, Tempo, 475210
1, 14040, Tempo, 477061
1, 14040, Note_on_c, 0, 67, 0
1, 14040, Note_on_c, 0, 65, 57
1, 14060, Tempo, 478927
1, 14080, Tempo, 480769
1, 14100, Tempo, 482664
1, 14120, Tempo, 484535
1, 14160, Tempo, 486460
1, 14160, Note_on_c, 0, 65, 0
1, 14160, Note_on_c, 0, 64, 56
1, 14180, Tempo, 488361
1, 14200, Tempo, 490316
1, 14220, Tempo, 492287
1, 14240, Tempo, 494234
1, 14280, Tempo, 496237
1, 14280, Note_on_c, 0, 64, 0
1, 14280, Note_on_c, 0, 62, 59
1, 14300, Tempo, 498215
1, 14320, Tempo, 500250
1, 14340, Tempo, 502260
1, 14360, Tempo, 504329
1, 14400, Tempo, 477365
1, 14400, Note_on_c, 0, 62, 0
1, 14400, Note_on_c, 0, 60, 61
1, 14400, Note_on_c, 0, 48, 46
1, 14640, Note_on_c, 0, 48, 0
1, 14640, Note_on_c, 0, 60, 0
1, 14640, Note_on_c, 0, 52, 34
1, 14640, Note_on_c, 0, 55, 40
1, 14760, Note_on_c, 0, 55, 0
1, 14760, Note_on_c, 0, 52, 0
1, 14880, Note_on_c, 0, 52, 34
1, 14880, Note_on_c, 0, 55, 41
1, 15000, Note_on_c, 0, 55, 0
1, 15000, Note_on_c, 0, 52, 0
1, 15120, Tempo, 510595
1, 15120, Note_on_c, 0, 52, 34
1, 15120, Note_on_c, 0, 55, 41
1, 15240, Note_on_c, 0, 55, 0
1, 15240, Note_on_c, 0, 52, 0
1, 15360, Tempo, 487053
1, 15360, Note_on_c, 0, 67, 62
1, 15360, Note_on_c, 0, 47, 55
1, 15600, Note_on_c, 0, 47, 0
1, 15600, Note_on_c, 0, 50, 34
1, 15600, Note_on_c, 0, 55, 40
1, 15720, Note_on_c, 0, 55, 0
1, 15720, Note_on_c, 0, 50, 0
1, 15840, Note_on_c, 0, 50, 34
1, 15840, Note_on_c, 0, 55, 41
1, 15960, Note_on_c, 0, 55, 0
1, 15960, Note_on_c, 0, 50, 0
1, 16080, Tempo, 502260
1, 16080, Note_on_c, 0, 67, 0
1, 16080, Note_on_c, 0, 67, 42
1, 16080, Note_on_c, 0, 50, 34
1, 16080, Note_on_c, 0, 55, 41
1, 16200, Note_on_c, 0, 55, 0
1, 16200, Note_on_c, 0, 50, 0
1, 16320, Tempo, 459313
1, 16320, Note_on_c, 0, 67, 0
1, 16320, Note_on_c, 0, 69, 50
1, 16320, Note_on_c, 0, 48, 46
1, 16440, Note_on_c, 0, 69, 0
1, 16440, Note_on_c, 0, 67, 41
1, 16560, Note_on_c, 0, 67, 0
1, 16560, Note_on_c, 0, 48, 0
1, 16560, Note_on_c, 0, 65, 41
1, 16560, Note_on_c, 0, 52, 34
1, 16560, Note_on_c, 0, 55, 40
1, 16680, Tempo, 554068
1, 16680, Note_on_c, 0, 55, 0
1, 16680, Note_on_c, 0, 52, 0
1, 16680, Note_on_c, 0, 65, 0
1, 16680, Note_on_c, 0, 64, 41
1, 16800, Tempo, 469814
1, 16800, Note_on_c, 0, 64, 0
1, 16800, Note_on_c, 0, 64, 47
1, 16800, Note_on_c, 0, 52, 34
1, 16800, Note_on_c, 0, 55, 41
1, 16920, Note_on_c, 0, 55, 0
1, 16920, Note_on_c, 0, 52, 0
1, 17040, Tempo, 502260
1, 17040, Note_on_c, 0, 52, 34
1, 17040, Note_on_c, 0, 55, 41
1, 17160, Note_on_c, 0, 55, 0
1, 17160, Note_on_c, 0, 52, 0
1, 17280, Tempo, 469814
1, 17280, Note_on_c, 0, 64, 0
1, 17280, Note_on_c, 0, 62, 46
1, 17280, Note_on_c, 0, 47, 46
1, 17400, Note_on_c, 0, 62, 0
1, 17520, Note_on_c, 0, 47, 0
1, 17520, Note_on_c, 0, 62, 42
1, 17520, Note_on_c, 0, 50, 34
1, 17520, Note_on_c, 0, 55, 40
1, 17640, Note_on_c, 0, 55, 0
1, 17640, Note_on_c, 0, 50, 0
1, 17640, Note_on_c, 0, 62, 0
1, 17640, Note_on_c, 0, 64, 42
1, 17760, Tempo, 490316
1, 17760, Note_on_c, 0, 64, 0
1, 17760, Note_on_c, 0, 65, 46
1, 17760, Note_on_c, 0, 50, 34
1, 17760, Note_on_c, 0, 55, 41
1, 17850, Note_on_c, 0, 55, 0
1, 17850, Note_on_c, 0, 50, 0
1, 17850, Note_on_c, 0, 65, 0
1, 18000, Tempo, 525440
1, 18000, Note_on_c, 0, 67, 41
1, 18000, Note_on_c, 0, 50, 34
1, 18000, Note_on_c, 0, 55, 41
1, 18090, Note_on_c, 0, 55, 0
1, 18090, Note_on_c, 0, 50, 0
1, 18090, Note_on_c, 0, 67, 0
1, 18240, Tempo, 492287
1, 18240, Note_on_c, 0, 65, 46
1, 18240, Note_on_c, 0, 48, 46
1, 18480, Note_on_c, 0, 48, 0
1, 18480, Note_on_c, 0, 52, 28
1, 18480, Note_on_c, 0, 55, 34
1, 18600, Note_on_c, 0, 55, 0
1, 18600, Note_on_c, 0, 52, 0
1, 18720, Note_on_c, 0, 65, 0
1, 18720, Note_on_c, 0, 64, 43
1, 18720, Note_on_c, 0, 52, 28
1, 18720, Note_on_c, 0, 55, 34
1, 18840, Note_on_c, 0, 55, 0
1, 18840, Note_on_c, 0, 52, 0
1, 18960, Note_on_c, 0, 64, 0
1, 18960, Note_on_c, 0, 52, 28
1, 18960, Note_on_c, 0, 55, 34
1, 19080, Note_on_c, 0, 55, 0
1, 19080, Note_on_c, 0, 52, 0
1, 19200, Tempo, 475473
1, 19200, Note_on_c, 0, 67, 62
1, 19200, Note_on_c, 0, 47, 55
1, 19440, Note_on_c, 0, 47, 0
1, 19440, Note_on_c, 0, 50, 34
1, 19440, Note_on_c, 0, 55, 40
1, 19560, Note_on_c, 0, 55, 0
1, 19560, Note_on_c, 0, 50, 0
1, 19680, Note_on_c, 0, 50, 34
1, 19680, Note_on_c, 0, 55, 41
1, 19800, Note_on_c, 0, 55, 0
1, 19800, Note_on_c, 0, 50, 0
1, 19920, Tempo, 489037
1, 19920, Note_on_c, 0, 67, 0
1, 19920, Note_on_c, 0, 67, 42
1, 19920, Note_on_c, 0, 50, 34
1, 19920, Note_on_c, 0, 55, 41
1, 20040, Note_on_c, 0, 55, 0
1, 20040, Note_on_c, 0, 50, 0
1, 20160, Tempo, 480769
1, 20160, Note_on_c, 0, 67, 0
1, 20160, Note_on_c, 0, 69, 50
1, 20160, Note_on_c, 0, 48, 46
1, 20280, Note_on_c, 0, 69, 0
1, 20280, Note_on_c, 0, 67, 41
1, 20400, Tempo, 493868
1, 20400, Note_on_c, 0, 67, 0
1, 20400, Note_on_c, 0, 48, 0
1, 20400, Note_on_c, 0, 65, 41
1, 20400, Note_on_c, 0, 52, 34
1, 20400, Note_on_c, 0, 55, 40
1, 20520, Tempo, 541956
1, 20520, Note_on_c, 0, 55, 0
1, 20520, Note_on_c, 0, 52, 0
1, 20520, Note_on_c, 0, 65, 0
1, 20520, Note_on_c, 0, 64, 41
1, 20640, Tempo, 478927
1, 20640, Note_on_c, 0, 64, 0
1, 20640, Note_on_c, 0, 76, 65
1, 20640, Note_on_c, 0, 52, 38
1, 20640, Note_on_c, 0, 55, 49
1, 20760, Note_on_c, 0, 55, 0
1, 20760, Note_on_c, 0, 52, 0
1, 20880, Note_on_c, 0, 52, 34
1, 20880, Note_on_c, 0, 55, 41
1, 21000, Note_on_c, 0, 55, 0
1, 21000, Note_on_c, 0, 52, 0
1, 21120, Tempo, 469814
1, 21120, Note_on_c, 0, 76, 0
1, 21120, Note_on_c, 0, 66, 52
1, 21120, Note_on_c, 0, 50, 52
1, 21240, Note_on_c, 0, 66, 0
1, 21360, Note_on_c, 0, 50, 0
1, 21360, Note_on_c, 0, 66, 48
1, 21360, Note_on_c, 0, 57, 39
1, 21360, Note_on_c, 0, 60, 46
1, 21480, Note_on_c, 0, 60, 0
1, 21480, Note_on_c, 0, 57, 0
1, 21480, Note_on_c, 0, 66, 0
1, 21480, Note_on_c, 0, 67, 48
1, 21600, Tempo, 505519
1, 21600, Note_on_c, 0, 67, 0
1, 21600, Note_on_c, 0, 69, 52
1, 21600, Note_on_c, 0, 57, 39
1, 21600, Note_on_c, 0, 60, 47
1, 21720, Note_on_c, 0, 60, 0
1, 21720, Note_on_c, 0, 57, 0
1, 21720, Note_on_c, 0, 69, 0
1, 21840, Tempo, 537201
1, 21840, Note_on_c, 0, 74, 47
1, 21840, Note_on_c, 0, 57, 39
1, 21840, Note_on_c, 0, 60, 47
1, 21930, Note_on_c, 0, 60, 0
1, 21930, Note_on_c, 0, 57, 0
1, 21930, Note_on_c, 0, 74, 0
1, 22080, Tempo, 492287
1, 22080, Note_on_c, 0, 67, 52
1, 22080, Note_on_c, 0, 55, 52
1, 22320, Note_on_c, 0, 55, 0
1, 22320, Note_on_c, 0, 67, 0
1, 22320, Note_on_c, 0, 59, 35
1, 22320, Note_on_c, 0, 62, 41
1, 22440, Note_on_c, 0, 62, 0
1, 22440, Note_on_c, 0, 59, 0
1, 22560, Tempo, 509814
1, 22560, Note_on_c, 0, 59, 35
1, 22560, Note_on_c, 0, 62, 42
1, 22680, Note_on_c, 0, 62, 0
1, 22680, Note_on_c, 0, 59, 0
1, 22800, Note_on_c, 0, 59, 35
1, 22800, Note_on_c, 0, 62, 42
1, 22920, Note_on_c, 0, 62, 0
1, 22920, Note_on_c, 0, 59, 0
1, 23040, Tempo, 480769
1, 23040, Note_on_c, 0, 74, 70
1, 23040, Note_on_c, 0, 54, 64
1, 23040, Control_c, 0, 64, 127
1, 23160, Note_on_c, 0, 74, 0
1, 23160, Note_on_c, 0, 86, 62
1, 23280, Note_on_c, 0, 86, 0
1, 23280, Note_on_c, 0, 54, 0
1, 23280, Note_on_c, 0, 74, 71
1, 23280, Note_on_c, 0, 62, 49
1, 23280, Note_on_c, 0, 57, 41
1, 23400, Note_on_c, 0, 57, 0
1, 23400, Note_on_c, 0, 62, 0
1, 23400, Note_on_c, 0, 74, 0
1, 23400, Note_on_c, 0, 86, 62
1, 23520, Tempo, 469814
1, 23520, Note_on_c, 0, 86, 0
1, 23520, Note_on_c, 0, 74, 67
1, 23520, Note_on_c, 0, 62, 41
1, 23520, Note_on_c, 0, 57, 34
1, 23538, Control_c, 0, 64, 0
1, 23640, Note_on_c, 0, 57, 0
1, 23640, Note_on_c, 0, 62, 0
1, 23640, Note_on_c, 0, 74, 0
1, 23760, Tempo, 502260
1, 23760, Note_on_c, 0, 74, 47
1, 23760, Note_on_c, 0, 57, 28
1, 23760, Note_on_c, 0, 62, 34
1, 23880, Note_on_c, 0, 62, 0
1, 23880, Note_on_c, 0, 57, 0
1, 23880, Note_on_c, 0, 74, 0
1, 24000, Tempo, 459313
1, 24000, Note_on_c, 0, 76, 50
1, 24000, Note_on_c, 0, 55, 46
1, 24120, Note_on_c, 0, 76, 0
1, 24120, Note_on_c, 0, 74, 41
1, 24240, Note_on_c, 0, 74, 0
1, 24240, Note_on_c, 0, 55, 0
1, 24240, Note_on_c, 0, 72, 41
1, 24240, Note_on_c, 0, 59, 34
1, 24240, Note_on_c, 0, 62, 40
1, 24360, Tempo, 554068
1, 24360, Note_on_c, 0, 62, 0
1, 24360, Note_on_c, 0, 59, 0
1, 24360, Note_on_c, 0, 72, 0
1, 24360, Note_on_c, 0, 71, 41
1, 24480, Tempo, 469814
1, 24480, Note_on_c, 0, 71, 0
1, 24480, Note_on_c, 0, 71, 47
1, 24480, Note_on_c, 0, 59, 28
1, 24480, Note_on_c, 0, 62, 34
1, 24600, Note_on_c, 0, 62, 0
1, 24600, Note_on_c, 0, 59, 0
1, 24720, Tempo, 502260
1, 24720, Note_on_c, 0, 59, 28
1, 24720, Note_on_c, 0, 62, 34
1, 24840, Note_on_c, 0, 62, 0
1, 24840, Note_on_c, 0, 59, 0
1, 24960, Tempo, 469814
1, 24960, Note_on_c, 0, 71, 0
1, 24960, Note_on_c, 0, 69, 46
1, 24960, Note_on_c, 0, 54, 46
1, 25080, Note_on_c, 0, 69, 0
1, 25200, Note_on_c, 0, 54, 0
1, 25200, Note_on_c, 0, 69, 42
1, 25200, Note_on_c, 0, 57, 34
1, 25200, Note_on_c, 0, 62, 40
1, 25320, Note_on_c, 0, 62, 0
1, 25320, Note_on_c, 0, 57, 0
1, 25320, Note_on_c, 0, 69, 0
1, 25320, Note_on_c, 0, 71, 42
1, 25440, Tempo, 505519
1, 25440, Note_on_c, 0, 71, 0
1, 25440, Note_on_c, 0, 72, 46
1, 25440, Note_on_c, 0, 57, 34
1, 25440, Note_on_c, 0, 62, 41
1, 25530, Note_on_c, 0, 62, 0
1, 25530, Note_on_c, 0, 57, 0
1, 25530, Note_on_c, 0, 72, 0
1, 25680, Tempo, 519166
1, 25680, Note_on_c, 0, 74, 41
1, 25680, Note_on_c, 0, 57, 34
1, 25680, Note_on_c, 0, 62, 41
1, 25770, Note_on_c, 0, 62, 0
1, 25770, Note_on_c, 0, 57, 0
1, 25770, Note_on_c, 0, 74, 0
1, 25920, Tempo, 492287
1, 25920, Note_on_c, 0, 72, 46
1, 25920, Note_on_c, 0, 55, 46
1, 26160, Note_on_c, 0, 55, 0
1, 26160, Note_on_c, 0, 59, 28
1, 26160, Note_on_c, 0, 62, 34
1, 26280, Note_on_c, 0, 62, 0
1, 26280, Note_on_c, 0, 59, 0
1, 26400, Tempo, 505519
1, 26400, Note_on_c, 0, 72, 0
1, 26400, Note_on_c, 0, 71, 43
1, 26400, Note_on_c, 0, 59, 23
1, 26400, Note_on_c, 0, 62, 28
1, 26520, Note_on_c, 0, 62, 0
1, 26520, Note_on_c, 0, 59, 0
1, 26640, Note_on_c, 0, 71, 0
1, 26640, Note_on_c, 0, 59, 23
1, 26640, Note_on_c, 0, 62, 28
1, 26760, Note_on_c, 0, 62, 0
1, 26760, Note_on_c, 0, 59, 0
1, 26880, Tempo, 482664
1, 26880, Note_on_c, 0, 86, 70
1, 26880, Note_on_c, 0, 54, 64
1, 26880, Control_c, 0, 64, 127
1, 27000, Note_on_c, 0, 86, 0
1, 27000, Note_on_c, 0, 74, 62
1, 27120, Note_on_c, 0, 74, 0
1, 27120, Note_on_c, 0, 54, 0
1, 27120, Note_on_c, 0, 86, 71
1, 27120, Note_on_c, 0, 62, 49
1, 27120, Note_on_c, 0, 57, 41
1, 27240, Note_on_c, 0, 57, 0
1, 27240, Note_on_c, 0, 62, 0
1, 27240, Note_on_c, 0, 86, 0
1, 27240, Note_on_c, 0, 74, 62
1, 27360, Tempo, 468019
1, 27360, Note_on_c, 0, 74, 0
1, 27360, Note_on_c, 0, 86, 73
1, 27360, Note_on_c, 0, 62, 41
1, 27360, Note_on_c, 0, 57, 34
1, 27378, Control_c, 0, 64, 0
1, 27480, Note_on_c, 0, 57, 0
1, 27480, Note_on_c, 0, 62, 0
1, 27480, Note_on_c, 0, 86, 0
1, 27600, Tempo, 502260
1, 27600, Note_on_c, 0, 86, 57
1, 27600, Note_on_c, 0, 57, 28
1, 27600, Note_on_c, 0, 62, 34
1, 27720, Note_on_c, 0, 62, 0
1, 27720, Note_on_c, 0, 57, 0
1, 27720, Note_on_c, 0, 86, 0
1, 27840, Tempo, 466273
1, 27840, Note_on_c, 0, 86, 59
1, 27840, Note_on_c, 0, 55, 41
1, 27840, Note_on_c, 0, 59, 41
1, 27840, Note_on_c, 0, 62, 49
1, 27960, Note_on_c, 0, 86, 0
1, 27960, Note_on_c, 0, 88, 58
1, 28080, Note_on_c, 0, 88, 0
1, 28080, Note_on_c, 0, 62, 0
1, 28080, Note_on_c, 0, 59, 0
1, 28080, Note_on_c, 0, 55, 0
1, 28080, Note_on_c, 0, 86, 57
1, 28200, Tempo, 508475
1, 28200, Note_on_c, 0, 86, 0
1, 28200, Note_on_c, 0, 84, 55
1, 28320, Tempo, 464504
1, 28320, Note_on_c, 0, 84, 0
1, 28320, Note_on_c, 0, 83, 51
1, 28440, Note_on_c, 0, 83, 0
1, 28440, Note_on_c, 0, 84, 49
1, 28560, Note_on_c, 0, 84, 0
1, 28560, Note_on_c, 0, 83, 48
1, 28680, Tempo, 500250
1, 28680, Note_on_c, 0, 83, 0
1, 28680, Note_on_c, 0, 81, 45
1, 28800, Tempo, 464504
1, 28800, Note_on_c, 0, 81, 0
1, 28800, Note_on_c, 0, 79, 50
1, 28800, Note_on_c, 0, 67, 39
1, 28800, Note_on_c, 0, 64, 33
1, 28920, Note_on_c, 0, 64, 0
1, 28920, Note_on_c, 0, 67, 0
1, 28920, Note_on_c, 0, 79, 0
1, 28920, Note_on_c, 0, 81, 45
1, 29040, Note_on_c, 0, 81, 0
1, 29040, Note_on_c, 0, 79, 45
1, 29160, Note_on_c, 0, 79, 0
1, 29160, Note_on_c, 0, 78, 45
1, 29280, Note_on_c, 0, 78, 0
1, 29280, Note_on_c, 0, 79, 50
1, 29280, Note_on_c, 0, 60, 29
1, 29280, Note_on_c, 0, 64, 35
1, 29400, Note_on_c, 0, 64, 0
1, 29400, Note_on_c, 0, 60, 0
1, 29400, Note_on_c, 0, 79, 0
1, 29400, Note_on_c, 0, 81, 46
1, 29520, Note_on_c, 0, 81, 0
1, 29520, Note_on_c, 0, 79, 46
1, 29640, Tempo, 514845
1, 29640, Note_on_c, 0, 79, 0
1, 29640, Note_on_c, 0, 78, 46
1, 29760, Tempo, 464504
1, 29760, Note_on_c, 0, 78, 0
1, 29760, Note_on_c, 0, 79, 50
1, 29760, Note_on_c, 0, 59, 29
1, 29760, Note_on_c, 0, 62, 35
1, 29800, Tempo, 466273
1, 29880, Note_on_c, 0, 62, 0
1, 29880, Note_on_c, 0, 59, 0
1, 29880, Note_on_c, 0, 79, 0
1, 29880, Note_on_c, 0, 81, 47
1, 29900, Tempo, 464504
1, 30000, Tempo, 462749
1, 30000, Note_on_c, 0, 81, 0
1, 30000, Note_on_c, 0, 83, 49
1, 30100, Tempo, 461042
1, 30120, Note_on_c, 0, 83, 0
1, 30120, Note_on_c, 0, 84, 52
1, 30180, Tempo, 459313
1, 30240, Note_on_c, 0, 84, 0
1, 30240, Note_on_c, 0, 86, 56
1, 30260, Tempo, 461042
1, 30320, Tempo, 462749
1, 30360, Note_on_c, 0, 86, 0
1, 30360, Note_on_c, 0, 84, 54
1, 30380, Tempo, 464504
1, 30460, Tempo, 466273
1, 30480, Note_on_c, 0, 84, 0
1, 30480, Note_on_c, 0, 83, 51
1, 30520, Tempo, 468019
1, 30580, Tempo, 469814
1, 30600, Tempo, 512689
1, 30600, Note_on_c, 0, 83, 0
1, 30600, Note_on_c, 0, 81, 49
1, 30720, Tempo, 464504
1, 30720, Note_on_c, 0, 81, 0
1, 30720, Note_on_c, 0, 79, 50
1, 30720, Note_on_c, 0, 67, 39
1, 30720, Note_on_c, 0, 64, 33
1, 30840, Note_on_c, 0, 64, 0
1, 30840, Note_on_c, 0, 67, 0
1, 30840, Note_on_c, 0, 79, 0
1, 30840, Note_on_c, 0, 81, 45
1, 30960, Note_on_c, 0, 81, 0
1, 30960, Note_on_c, 0, 79, 45
1, 31080, Note_on_c, 0, 79, 0
1, 31080, Note_on_c, 0, 78, 45
1, 31200, Note_on_c, 0, 78, 0
1, 31200, Note_on_c, 0, 79, 50
1, 31200, Note_on_c, 0, 60, 29
1, 31200, Note_on_c, 0, 64, 35
1, 31320, Note_on_c, 0, 64, 0
1, 31320, Note_on_c, 0, 60, 0
1, 31320, Note_on_c, 0, 79, 0
1, 31320, Note_on_c, 0, 81, 46
1, 31440, Note_on_c, 0, 81, 0
1, 31440, Note_on_c, 0, 79, 46
1, 31560, Tempo, 514845
1, 31560, Note_on_c, 0, 79, 0
1, 31560, Note_on_c, 0, 78, 46
1, 31680, Tempo, 464504
1, 31680, Note_on_c, 0, 78, 0
1, 31680, Note_on_c, 0, 79, 50
1, 31680, Note_on_c, 0, 59, 29
1, 31680, Note_on_c, 0, 62, 35
1, 31720, Tempo, 466273
1, 31800, Note_on_c, 0, 62, 0
1, 31800, Note_on_c, 0, 59, 0
1, 31800, Note_on_c, 0, 79, 0
1, 31800, Note_on_c, 0, 81, 47
1, 31820, Tempo, 464504
1, 31920, Tempo, 462749
1, 31920, Note_on_c, 0, 81, 0
1, 31920, Note_on_c, 0, 83, 49
1, 32020, Tempo, 461042
1, 32040, Note_on_c, 0, 83, 0
1, 32040, Note_on_c, 0, 84, 52
1, 32100, Tempo, 459313
1, 32160, Note_on_c, 0, 84, 0
1, 32160, Note_on_c, 0, 86, 56
1, 32180, Tempo, 461042
1, 32240, Tempo, 462749
1, 32280, Note_on_c, 0, 86, 0
1, 32280, Note_on_c, 0, 84, 54
1, 32300, Tempo, 464504
1, 32380, Tempo, 466273
1, 32400, Note_on_c, 0, 84, 0
1, 32400, Note_on_c, 0, 83, 51
1, 32440, Tempo, 468019
1, 32500, Tempo, 469814
1, 32520, Tempo, 512689
1, 32520, Note_on_c, 0, 83, 0
1, 32520, Note_on_c, 0, 81, 49
1, 32640, Tempo, 464504
1, 32640, Note_on_c, 0, 81, 0
1, 32640, Note_on_c, 0, 79, 60
1, 32640, Note_on_c, 0, 52, 36
1, 32640, Note_on_c, 0, 55, 43
1, 32760, Note_on_c, 0, 55, 0
1, 32760, Note_on_c, 0, 52, 0
1, 32760, Note_on_c, 0, 79, 0
1, 32760, Note_on_c, 0, 81, 49
1, 32880, Note_on_c, 0, 81, 0
1, 32880, Note_on_c, 0, 79, 49
1, 33000, Note_on_c, 0, 79, 0
1, 33000, Note_on_c, 0, 78, 49
1, 33120, Note_on_c, 0, 78, 0
1, 33120, Note_on_c, 0, 79, 64
1, 33120, Note_on_c, 0, 52, 49
1, 33120, Note_on_c, 0, 48, 41
1, 33240, Note_on_c, 0, 48, 0
1, 33240, Note_on_c, 0, 52, 0
1, 33240, Note_on_c, 0, 79, 0
1, 33240, Note_on_c, 0, 81, 55
1, 33360, Note_on_c, 0, 81, 0
1, 33360, Note_on_c, 0, 79, 60
1, 33480, Tempo, 514845
1, 33480, Note_on_c, 0, 79, 0
1, 33480, Note_on_c, 0, 78, 64
1, 33600, Tempo, 475210
1, 33600, Note_on_c, 0, 78, 0
1, 33600, Note_on_c, 0, 79, 69
1, 33600, Note_on_c, 0, 47, 54
1, 33600, Note_on_c, 0, 50, 64
1, 33685, Control_c, 0, 64, 127
1, 33720, Note_on_c, 0, 50, 0
1, 33720, Note_on_c, 0, 47, 0
1, 33720, Note_on_c, 0, 79, 0
1, 33720, Note_on_c, 0, 83, 58
1, 33840, Note_on_c, 0, 83, 0
1, 33840, Note_on_c, 0, 79, 58
1, 33960, Tempo, 516974
1, 33960, Note_on_c, 0, 79, 0
1, 33960, Note_on_c, 0, 74, 58
1, 34080, Tempo, 475210
1, 34080, Note_on_c, 0, 74, 0
1, 34080, Note_on_c, 0, 74, 71
1, 34080, Note_on_c, 0, 55, 55
1, 34080, Note_on_c, 0, 50, 46
1, 34080, Note_on_c, 0, 47, 46
1, 34200, Note_on_c, 0, 47, 0
1, 34200, Note_on_c, 0, 74, 0
1, 34200, Note_on_c, 0, 55, 0
1, 34200, Note_on_c, 0, 50, 0
1, 34200, Note_on_c, 0, 79, 58
1, 34320, Note_on_c, 0, 79, 0
1, 34320, Note_on_c, 0, 74, 58
1, 34440, Tempo, 519166
1, 34440, Note_on_c, 0, 74, 0
1, 34440, Note_on_c, 0, 71, 58
1, 34560, Tempo, 486460
1, 34560, Note_on_c, 0, 71, 0
1, 34560, Note_on_c, 0, 71, 72
1, 34560, Note_on_c, 0, 47, 54
1, 34560, Note_on_c, 0, 50, 54
1, 34560, Note_on_c, 0, 55, 64
1, 34680, Note_on_c, 0, 55, 0
1, 34680, Note_on_c, 0, 71, 0
1, 34680, Note_on_c, 0, 47, 0
1, 34680, Note_on_c, 0, 50, 0
1, 34680, Note_on_c, 0, 74, 58
1, 34800, Note_on_c, 0, 74, 0
1, 34800, Note_on_c, 0, 71, 58
1, 34920, Tempo, 566786
1, 34920, Note_on_c, 0, 71, 0
1, 34920, Note_on_c, 0, 67, 58
1, 35040, Tempo, 528030
1, 35040, Note_on_c, 0, 67, 0
1, 35040, Note_on_c, 0, 67, 71
1, 35040, Note_on_c, 0, 55, 58
1, 35040, Note_on_c, 0, 50, 49
1, 35040, Note_on_c, 0, 47, 49
1, 35160, Note_on_c, 0, 47, 0
1, 35160, Note_on_c, 0, 67, 0
1, 35160, Note_on_c, 0, 55, 0
1, 35160, Note_on_c, 0, 50, 0
1, 35160, Note_on_c, 0, 71, 58
1, 35280, Note_on_c, 0, 71, 0
1, 35280, Note_on_c, 0, 67, 58
1, 35400, Tempo, 702083
1, 35400, Note_on_c, 0, 67, 0
1, 35400, Note_on_c, 0, 62, 58
1, 35520, Tempo, 584283
1, 35520, Note_on_c, 0, 62, 0
1, 35520, Note_on_c, 0, 64, 72
1, 35520, Note_on_c, 0, 48, 54
1, 35520, Note_on_c, 0, 55, 64
1, 35520, Control_c, 0, 64, 0
1, 35760, Note_on_c, 0, 55, 0
1, 35760, Note_on_c, 0, 48, 0
1, 35760, Note_on_c, 0, 64, 0
1, 36000, Tempo, 475210
1, 36000, Note_on_c, 0, 72, 71
1, 36000, Note_on_c, 0, 57, 55
1, 36000, Note_on_c, 0, 48, 46
1, 36120, Note_on_c, 0, 48, 0
1, 36120, Note_on_c, 0, 57, 0
1, 36120, Note_on_c, 0, 72, 0
1, 36120, Note_on_c, 0, 76, 58
1, 36240, Note_on_c, 0, 76, 0
1, 36240, Note_on_c, 0, 72, 58
1, 36360, Tempo, 519166
1, 36360, Note_on_c, 0, 72, 0
1, 36360, Note_on_c, 0, 69, 58
1, 36480, Tempo, 508475
1, 36480, Note_on_c, 0, 69, 0
1, 36480, Note_on_c, 0, 67, 71
1, 36480, Note_on_c, 0, 50, 46
1, 36480, Note_on_c, 0, 59, 55
1, 36600, Note_on_c, 0, 59, 0
1, 36600, Note_on_c, 0, 50, 0
1, 36600, Note_on_c, 0, 67, 0
1, 36720, Note_on_c, 0, 67, 67
1, 36840, Note_on_c, 0, 67, 0
1, 36960, Tempo, 475210
1, 36960, Note_on_c, 0, 69, 71
1, 36960, Note_on_c, 0, 60, 55
1, 36960, Note_on_c, 0, 50, 46
1, 37080, Note_on_c, 0, 50, 0
1, 37080, Note_on_c, 0, 60, 0
1, 37080, Note_on_c, 0, 69, 0
1, 37080, Note_on_c, 0, 72, 58
1, 37200, Note_on_c, 0, 72, 0
1, 37200, Note_on_c, 0, 69, 58
1, 37320, Tempo, 519166
1, 37320, Note_on_c, 0, 69, 0
1, 37320, Note_on_c, 0, 66, 58
1, 37440, Tempo, 508475
1, 37440, Note_on_c, 0, 66, 0
1, 37440, Note_on_c, 0, 67, 71
1, 37440, Note_on_c, 0, 55, 46
1, 37440, Note_on_c, 0, 59, 55
1, 37560, Note_on_c, 0, 67, 0
1, 37680, Note_on_c, 0, 67, 58
1, 37800, Note_on_c, 0, 67, 0
1, 37920, Note_on_c, 0, 79, 66
1, 38040, Note_on_c, 0, 79, 0
1, 38160, Tempo, 534902
1, 38160, Note_on_c, 0, 79, 56
1, 38280, Note_on_c, 0, 79, 0
1, 38400, Tempo, 508475
1, 38400, Note_on_c, 0, 59, 0
1, 38400, Note_on_c, 0, 55, 0
1, 38400, Note_on_c, 0, 69, 67
1, 38400, Note_on_c, 0, 55, 35
1, 38400, Note_on_c, 0, 60, 42
1, 38520, Note_on_c, 0, 69, 0
1, 38640, Note_on_c, 0, 69, 48
1, 38760, Note_on_c, 0, 69, 0
1, 38880, Tempo, 519166
1, 38880, Note_on_c, 0, 81, 59
1, 39000, Note_on_c, 0, 81, 0
1, 39120, Tempo, 588408
1, 39120, Note_on_c, 0, 81, 38
1, 39240, Note_on_c, 0, 81, 0
1, 39360, Tempo, 559076
1, 39360, Note_on_c, 0, 60, 0
1, 39360, Note_on_c, 0, 55, 0
1, 39360, Note_on_c, 0, 71, 50
1, 39360, Note_on_c, 0, 62, 26
1, 39360, Note_on_c, 0, 55, 22
1, 39480, Note_on_c, 0, 71, 0
1, 39600, Note_on_c, 0, 71, 35
1, 39720, Note_on_c, 0, 71, 0
1, 39840, Tempo, 594059
1, 39840, Note_on_c, 0, 83, 49
1, 39960, Note_on_c, 0, 83, 0
1, 40080, Tempo, 617792
1, 40080, Note_on_c, 0, 83, 34
1, 40200, Note_on_c, 0, 83, 0
1, 40320, Tempo, 506372
1, 40320, Note_on_c, 0, 55, 0
1, 40320, Note_on_c, 0, 62, 0
1, 40560, Note_on_c, 0, 67, 30
1, 40782, Tempo, 510595
1, 40800, Note_on_c, 0, 67, 0
1, 40800, Note_on_c, 0, 66, 34
1, 40962, Tempo, 512689
1, 41040, Note_on_c, 0, 66, 0
1, 41040, Note_on_c, 0, 67, 36
1, 41122, Tempo, 514845
1, 41222, Tempo, 514845
1, 41280, Note_on_c, 0, 67, 0
1, 41280, Note_on_c, 0, 68, 36
1, 41302, Tempo, 516974
1, 41382, Tempo, 519166
1, 41462, Tempo, 521331
1, 41520, Note_on_c, 0, 68, 0
1, 41520, Note_on_c, 0, 69, 30
1, 41522, Tempo, 523560
1, 41602, Tempo, 525808
1, 41682, Tempo, 528030
1, 41742, Tempo, 530316
1, 41760, Note_on_c, 0, 69, 0
1, 41760, Note_on_c, 0, 70, 36
1, 41762, Tempo, 554068
1, 42000, Tempo, 599820
1, 42000, Note_on_c, 0, 70, 0
1, 42000, Note_on_c, 0, 71, 29
1, 42240, Tempo, 489037
1, 42240, Note_on_c, 0, 71, 0
1, 42240, Note_on_c, 0, 72, 60
1, 42240, Note_on_c, 0, 60, 34
1, 42240, Note_on_c, 0, 64, 40
1, 42360, Note_on_c, 0, 64, 0
1, 42360, Note_on_c, 0, 60, 0
1, 42480, Note_on_c, 0, 64, 36
1, 42480, Note_on_c, 0, 60, 30
1, 42600, Note_on_c, 0, 60, 0
1, 42600, Note_on_c, 0, 64, 0
1, 42720, Note_on_c, 0, 64, 36
1, 42720, Note_on_c, 0, 60, 30
1, 42840, Note_on_c, 0, 60, 0
1, 42840, Note_on_c, 0, 64, 0
1, 42960, Tempo, 503398
1, 42960, Note_on_c, 0, 72, 0
1, 42960, Note_on_c, 0, 76, 56
1, 42960, Note_on_c, 0, 64, 36
1, 42960, Note_on_c, 0, 60, 30
1, 43080, Note_on_c, 0, 60, 0
1, 43080, Note_on_c, 0, 64, 0
1, 43200, Tempo, 468055
1, 43200, Note_on_c, 0, 76, 0
1, 43200, Note_on_c, 0, 74, 60
1, 43200, Note_on_c, 0, 60, 34
1, 43200, Note_on_c, 0, 65, 40
1, 43320, Note_on_c, 0, 65, 0
1, 43320, Note_on_c, 0, 60, 0
1, 43320, Note_on_c, 0, 74, 0
1, 43320, Note_on_c, 0, 72, 57
1, 43440, Tempo, 475473
1, 43440, Note_on_c, 0, 72, 0
1, 43440, Note_on_c, 0, 71, 57
1, 43440, Note_on_c, 0, 65, 37
1, 43440, Note_on_c, 0, 60, 31
1, 43560, Note_on_c, 0, 60, 0
1, 43560, Note_on_c, 0, 65, 0
1, 43560, Note_on_c, 0, 71, 0
1, 43560, Note_on_c, 0, 74, 57
1, 43680, Tempo, 477365
1, 43680, Note_on_c, 0, 74, 0
1, 43680, Note_on_c, 0, 72, 60
1, 43680, Note_on_c, 0, 64, 37
1, 43680, Note_on_c, 0, 60, 31
1, 43800, Note_on_c, 0, 60, 0
1, 43800, Note_on_c, 0, 64, 0
1, 43800, Note_on_c, 0, 72, 0
1, 43920, Tempo, 493056
1, 43920, Note_on_c, 0, 64, 37
1, 43920, Note_on_c, 0, 60, 31
1, 44040, Note_on_c, 0, 60, 0
1, 44040, Note_on_c, 0, 64, 0
1, 44160, Tempo, 468055
1, 44160, Note_on_c, 0, 72, 60
1, 44160, Note_on_c, 0, 60, 34
1, 44160, Note_on_c, 0, 64, 40
1, 44280, Note_on_c, 0, 64, 0
1, 44280, Note_on_c, 0, 60, 0
1, 44280, Note_on_c, 0, 72, 0
1, 44280, Note_on_c, 0, 74, 55
1, 44400, Note_on_c, 0, 74, 0
1, 44400, Note_on_c, 0, 72, 55
1, 44400, Note_on_c, 0, 64, 37
1, 44400, Note_on_c, 0, 60, 31
1, 44520, Tempo, 472478
1, 44520, Note_on_c, 0, 60, 0
1, 44520, Note_on_c, 0, 64, 0
1, 44520, Note_on_c, 0, 72, 0
1, 44520, Note_on_c, 0, 71, 55
1, 44640, Tempo, 472478
1, 44640, Note_on_c, 0, 71, 0
1, 44640, Note_on_c, 0, 72, 60
1, 44640, Note_on_c, 0, 64, 37
1, 44640, Note_on_c, 0, 60, 31
1, 44760, Note_on_c, 0, 60, 0
1, 44760, Note_on_c, 0, 64, 0
1, 44760, Note_on_c, 0, 72, 0
1, 44760, Note_on_c, 0, 74, 56
1, 44880, Tempo, 478164
1, 44880, Note_on_c, 0, 74, 0
1, 44880, Note_on_c, 0, 76, 58
1, 44880, Note_on_c, 0, 64, 37
1, 44880, Note_on_c, 0, 60, 31
1, 45000, Tempo, 514845
1, 45000, Note_on_c, 0, 60, 0
1, 45000, Note_on_c, 0, 64, 0
1, 45000, Note_on_c, 0, 76, 0
1, 45000, Note_on_c, 0, 77, 63
1, 45120, Tempo, 484535
1, 45120, Note_on_c, 0, 77, 0
1, 45120, Note_on_c, 0, 79, 68
1, 45120, Note_on_c, 0, 60, 34
1, 45120, Note_on_c, 0, 64, 40
1, 45240, Note_on_c, 0, 64, 0
1, 45240, Note_on_c, 0, 60, 0
1, 45240, Note_on_c, 0, 79, 0
1, 45360, Note_on_c, 0, 79, 63
1, 45360, Note_on_c, 0, 64, 38
1, 45360, Note_on_c, 0, 60, 32
1, 45480, Note_on_c, 0, 60, 0
1, 45480, Note_on_c, 0, 64, 0
1, 45480, Note_on_c, 0, 79, 0
1, 45600, Note_on_c, 0, 79, 60
1, 45600, Note_on_c, 0, 64, 40
1, 45600, Note_on_c, 0, 60, 34
1, 45720, Note_on_c, 0, 60, 0
1, 45720, Note_on_c, 0, 64, 0
1, 45720, Note_on_c, 0, 79, 0
1, 45840, Note_on_c, 0, 60, 35
1, 45840, Note_on_c, 0, 64, 42
1, 45960, Note_on_c, 0, 64, 0
1, 45960, Note_on_c, 0, 60, 0
1, 46080, Tempo, 466273
1, 46080, Note_on_c, 0, 84, 59
1, 46080, Note_on_c, 0, 60, 34
1, 46080, Note_on_c, 0, 64, 40
1, 46200, Note_on_c, 0, 84, 0
1, 46200, Note_on_c, 0, 86, 61
1, 46320, Note_on_c, 0, 86, 0
1, 46320, Note_on_c, 0, 64, 0
1, 46320, Note_on_c, 0, 60, 0
1, 46320, Note_on_c, 0, 88, 66
1, 46440, Note_on_c, 0, 88, 0
1, 46440, Note_on_c, 0, 86, 63
1, 46560, Note_on_c, 0, 86, 0
1, 46560, Note_on_c, 0, 84, 63
1, 46680, Note_on_c, 0, 84, 0
1, 46680, Note_on_c, 0, 83, 62
1, 46800, Note_on_c, 0, 83, 0
1, 46800, Note_on_c, 0, 81, 62
1, 46920, Tempo, 498215
1, 46920, Note_on_c, 0, 81, 0
1, 46920, Note_on_c, 0, 79, 61
1, 47040, Tempo, 464504
1, 47040, Note_on_c, 0, 79, 0
1, 47040, Note_on_c, 0, 77, 62
1, 47040, Note_on_c, 0, 59, 34
1, 47040, Note_on_c, 0, 67, 40
1, 47160, Note_on_c, 0, 77, 0
1, 47160, Note_on_c, 0, 83, 65
1, 47280, Note_on_c, 0, 83, 0
1, 47280, Note_on_c, 0, 67, 0
1, 47280, Note_on_c, 0, 59, 0
1, 47280, Note_on_c, 0, 86, 69
1, 47400, Note_on_c, 0, 86, 0
1, 47400, Note_on_c, 0, 84, 66
1, 47520, Note_on_c, 0, 84, 0
1, 47520, Note_on_c, 0, 83, 64
1, 47640, Note_on_c, 0, 83, 0
1, 47640, Note_on_c, 0, 81, 63
1, 47760, Note_on_c, 0, 81, 0
1, 47760, Note_on_c, 0, 79, 62
1, 47880, Tempo, 504329
1, 47880, Note_on_c, 0, 79, 0
1, 47880, Note_on_c, 0, 77, 59
1, 48000, Tempo, 462749
1, 48000, Note_on_c, 0, 77, 0
1, 48000, Note_on_c, 0, 76, 58
1, 48000, Note_on_c, 0, 60, 34
1, 48000, Note_on_c, 0, 67, 40
1, 48120, Note_on_c, 0, 76, 0
1, 48120, Note_on_c, 0, 79, 58
1, 48240, Note_on_c, 0, 79, 0
1, 48240, Note_on_c, 0, 67, 0
1, 48240, Note_on_c, 0, 60, 0
1, 48240, Note_on_c, 0, 84, 61
1, 48360, Note_on_c, 0, 84, 0
1, 48360, Note_on_c, 0, 83, 62
1, 48480, Note_on_c, 0, 83, 0
1, 48480, Note_on_c, 0, 81, 58
1, 48600, Note_on_c, 0, 81, 0
1, 48600, Note_on_c, 0, 79, 57
1, 48720, Note_on_c, 0, 79, 0
1, 48720, Note_on_c, 0, 77, 56
1, 48840, Tempo, 500250
1, 48840, Note_on_c, 0, 77, 0
1, 48840, Note_on_c, 0, 76, 54
1, 48940, Tempo, 486460
1, 48960, Note_on_c, 0, 76, 0
1, 48960, Note_on_c, 0, 74, 61
1, 48960, Note_on_c, 0, 55, 46
1, 48980, Tempo, 484535
1, 49000, Tempo, 482664
1, 49040, Tempo, 480769
1, 49060, Tempo, 478927
1, 49080, Tempo, 477061
1, 49080, Note_on_c, 0, 55, 0
1, 49080, Note_on_c, 0, 59, 40
1, 49120, Tempo, 475210
1, 49140, Tempo, 473410
1, 49160, Tempo, 471587
1, 49200, Tempo, 469814
1, 49200, Note_on_c, 0, 59, 0
1, 49200, Note_on_c, 0, 74, 0
1, 49200, Note_on_c, 0, 62, 40
1, 49220, Tempo, 468019
1, 49260, Tempo, 466273
1, 49280, Tempo, 464504
1, 49300, Tempo, 462749
1, 49320, Note_on_c, 0, 62, 0
1, 49320, Note_on_c, 0, 67, 40
1, 49340, Tempo, 461042
1, 49360, Tempo, 459313
1, 49380, Tempo, 457631
1, 49440, Note_on_c, 0, 67, 0
1, 49440, Note_on_c, 0, 79, 59
1, 49460, Tempo, 455927
1, 49480, Tempo, 457631
1, 49500, Tempo, 459313
1, 49520, Tempo, 461042
1, 49540, Tempo, 462749
1, 49560, Tempo, 464504
1, 49560, Note_on_c, 0, 79, 0
1, 49560, Note_on_c, 0, 77, 57
1, 49580, Tempo, 466273
1, 49600, Tempo, 468019
1, 49620, Tempo, 469814
1, 49640, Tempo, 471587
1, 49660, Tempo, 473410
1, 49680, Tempo, 475210
1, 49680, Note_on_c, 0, 77, 0
1, 49680, Note_on_c, 0, 76, 55
1, 49700, Tempo, 477061
1, 49720, Tempo, 478927
1, 49740, Tempo, 480769
1, 49760, Tempo, 482664
1, 49780, Tempo, 484535
1, 49800, Tempo, 486460
1, 49800, Note_on_c, 0, 76, 0
1, 49800, Note_on_c, 0, 74, 55
1, 49820, Tempo, 488361
1, 49840, Tempo, 490316
1, 49860, Tempo, 494234
1, 49920, Tempo, 472664
1, 49920, Note_on_c, 0, 74, 0
1, 49920, Note_on_c, 0, 72, 60
1, 49920, Note_on_c, 0, 60, 34
1, 49920, Note_on_c, 0, 64, 40
1, 50040, Note_on_c, 0, 64, 0
1, 50040, Note_on_c, 0, 60, 0
1, 50160, Note_on_c, 0, 64, 36
1, 50160, Note_on_c, 0, 60, 30
1, 50280, Note_on_c, 0, 60, 0
1, 50280, Note_on_c, 0, 64, 0
1, 50400, Note_on_c, 0, 64, 36
1, 50400, Note_on_c, 0, 60, 30
1, 50520, Note_on_c, 0, 60, 0
1, 50520, Note_on_c, 0, 64, 0
1, 50640, Tempo, 496237
1, 50640, Note_on_c, 0, 72, 0
1, 50640, Note_on_c, 0, 76, 56
1, 50640, Note_on_c, 0, 64, 36
1, 50640, Note_on_c, 0, 60, 30
1, 50760, Note_on_c, 0, 60, 0
1, 50760, Note_on_c, 0, 64, 0
1, 50880, Tempo, 469888
1, 50880, Note_on_c, 0, 76, 0
1, 50880, Note_on_c, 0, 74, 60
1, 50880, Note_on_c, 0, 60, 34
1, 50880, Note_on_c, 0, 65, 40
1, 51000, Note_on_c, 0, 65, 0
1, 51000, Note_on_c, 0, 60, 0
1, 51000, Note_on_c, 0, 74, 0
1, 51000, Note_on_c, 0, 72, 57
1, 51120, Note_on_c, 0, 72, 0
1, 51120, Note_on_c, 0, 71, 57
1, 51120, Note_on_c, 0, 65, 37
1, 51120, Note_on_c, 0, 60, 31
1, 51240, Note_on_c, 0, 60, 0
1, 51240, Note_on_c, 0, 65, 0
1, 51240, Note_on_c, 0, 71, 0
1, 51240, Note_on_c, 0, 74, 57
1, 51360, Tempo, 474496
1, 51360, Note_on_c, 0, 74, 0
1, 51360, Note_on_c, 0, 72, 60
1, 51360, Note_on_c, 0, 64, 37
1, 51360, Note_on_c, 0, 60, 31
1, 51480, Note_on_c, 0, 60, 0
1, 51480, Note_on_c, 0, 64, 0
1, 51480, Note_on_c, 0, 72, 0
1, 51600, Tempo, 498215
1, 51600, Note_on_c, 0, 64, 37
1, 51600, Note_on_c, 0, 60, 31
1, 51720, Note_on_c, 0, 60, 0
1, 51720, Note_on_c, 0, 64, 0
1, 51840, Tempo, 466962
1, 51840, Note_on_c, 0, 72, 60
1, 51840, Note_on_c, 0, 60, 34
1, 51840, Note_on_c, 0, 64, 40
1, 51960, Note_on_c, 0, 64, 0
1, 51960, Note_on_c, 0, 60, 0
1, 51960, Note_on_c, 0, 72, 0
1, 51960, Note_on_c, 0, 74, 55
1, 52080, Note_on_c, 0, 74, 0
1, 52080, Note_on_c, 0, 72, 55
1, 52080, Note_on_c, 0, 64, 37
1, 52080, Note_on_c, 0, 60, 31
1, 52200, Tempo, 466962
1, 52200, Note_on_c, 0, 60, 0
1, 52200, Note_on_c, 0, 64, 0
1, 52200, Note_on_c, 0, 72, 0
1, 52200, Note_on_c, 0, 71, 55
1, 52320, Tempo, 472478
1, 52320, Note_on_c, 0, 71, 0
1, 52320, Note_on_c, 0, 72, 60
1, 52320, Note_on_c, 0, 64, 37
1, 52320, Note_on_c, 0, 60, 31
1, 52440, Tempo, 472478
1, 52440, Note_on_c, 0, 60, 0
1, 52440, Note_on_c, 0, 64, 0
1, 52440, Note_on_c, 0, 72, 0
1, 52440, Note_on_c, 0, 74, 56
1, 52560, Tempo, 477061
1, 52560, Note_on_c, 0, 74, 0
1, 52560, Note_on_c, 0, 76, 58
1, 52560, Note_on_c, 0, 64, 37
1, 52560, Note_on_c, 0, 60, 31
1, 52680, Tempo, 532576
1, 52680, Note_on_c, 0, 60, 0
1, 52680, Note_on_c, 0, 64, 0
1, 52680, Note_on_c, 0, 76, 0
1, 52680, Note_on_c, 0, 77, 63
1, 52800, Tempo, 488361
1, 52800, Note_on_c, 0, 77, 0
1, 52800, Note_on_c, 0, 79, 68
1, 52800, Note_on_c, 0, 60, 34
1, 52800, Note_on_c, 0, 64, 40
1, 52920, Note_on_c, 0, 64, 0
1, 52920, Note_on_c, 0, 60, 0
1, 52920, Note_on_c, 0, 79, 0
1, 53040, Note_on_c, 0, 79, 63
1, 53040, Note_on_c, 0, 64, 38
1, 53040, Note_on_c, 0, 60, 32
1, 53160, Note_on_c, 0, 60, 0
1, 53160, Note_on_c, 0, 64, 0
1, 53160, Note_on_c, 0, 79, 0
1, 53280, Note_on_c, 0, 79, 60
1, 53280, Note_on_c, 0, 64, 40
1, 53280, Note_on_c, 0, 60, 34
1, 53400, Note_on_c, 0, 60, 0
1, 53400, Note_on_c, 0, 64, 0
1, 53400, Note_on_c, 0, 79, 0
1, 53520, Note_on_c, 0, 60, 35
1, 53520, Note_on_c, 0, 64, 42
1, 53640, Note_on_c, 0, 64, 0
1, 53640, Note_on_c, 0, 60, 0
1, 53760, Tempo, 475210
1, 53760, Note_on_c, 0, 84, 59
1, 53760, Note_on_c, 0, 60, 34
1, 53760, Note_on_c, 0, 64, 40
1, 53880, Note_on_c, 0, 84, 0
1, 53880, Note_on_c, 0, 86, 61
1, 54000, Note_on_c, 0, 86, 0
1, 54000, Note_on_c, 0, 64, 0
1, 54000, Note_on_c, 0, 60, 0
1, 54000, Note_on_c, 0, 88, 66
1, 54120, Note_on_c, 0, 88, 0
1, 54120, Note_on_c, 0, 86, 63
1, 54240, Note_on_c, 0, 86, 0
1, 54240, Note_on_c, 0, 84, 63
1, 54360, Note_on_c, 0, 84, 0
1, 54360, Note_on_c, 0, 83, 62
1, 54480, Note_on_c, 0, 83, 0
1, 54480, Note_on_c, 0, 81, 62
1, 54600, Tempo, 516974
1, 54600, Note_on_c, 0, 81, 0
1, 54600, Note_on_c, 0, 80, 61
1, 54720, Tempo, 473410
1, 54720, Note_on_c, 0, 80, 0
1, 54720, Note_on_c, 0, 81, 62
1, 54720, Note_on_c, 0, 53, 34
1, 54720, Note_on_c, 0, 65, 40
1, 54840, Note_on_c, 0, 81, 0
1, 54840, Note_on_c, 0, 83, 65
1, 54960, Note_on_c, 0, 83, 0
1, 54960, Note_on_c, 0, 65, 0
1, 54960, Note_on_c, 0, 53, 0
1, 54960, Note_on_c, 0, 84, 69
1, 55080, Note_on_c, 0, 84, 0
1, 55080, Note_on_c, 0, 83, 66
1, 55200, Note_on_c, 0, 83, 0
1, 55200, Note_on_c, 0, 81, 64
1, 55320, Note_on_c, 0, 81, 0
1, 55320, Note_on_c, 0, 79, 63
1, 55440, Note_on_c, 0, 79, 0
1, 55440, Note_on_c, 0, 77, 62
1, 55560, Tempo, 514845
1, 55560, Note_on_c, 0, 77, 0
1, 55560, Note_on_c, 0, 76, 59
1, 55680, Tempo, 490316
1, 55680, Note_on_c, 0, 76, 0
1, 55680, Note_on_c, 0, 74, 63
1, 55680, Note_on_c, 0, 55, 34
1, 55680, Note_on_c, 0, 59, 40
1, 55720, Tempo, 488361
1, 55760, Tempo, 486460
1, 55800, Tempo, 484535
1, 55800, Note_on_c, 0, 74, 0
1, 55800, Note_on_c, 0, 72, 59
1, 55820, Tempo, 482664
1, 55860, Tempo, 480769
1, 55900, Tempo, 478927
1, 55920, Tempo, 477061
1, 55920, Note_on_c, 0, 72, 0
1, 55920, Note_on_c, 0, 59, 0
1, 55920, Note_on_c, 0, 55, 0
1, 55920, Note_on_c, 0, 71, 58
1, 55960, Tempo, 475210
1, 56000, Tempo, 473410
1, 56020, Tempo, 471587
1, 56040, Note_on_c, 0, 71, 0
1, 56040, Note_on_c, 0, 69, 58
1, 56060, Tempo, 469814
1, 56100, Tempo, 468019
1, 56120, Tempo, 466273
1, 56160, Tempo, 468019
1, 56160, Note_on_c, 0, 69, 0
1, 56160, Note_on_c, 0, 67, 57
1, 56180, Tempo, 469814
1, 56200, Tempo, 471587
1, 56220, Tempo, 473410
1, 56240, Tempo, 475210
1, 56280, Tempo, 477061
1, 56280, Note_on_c, 0, 67, 0
1, 56280, Note_on_c, 0, 65, 57
1, 56300, Tempo, 478927
1, 56320, Tempo, 480769
1, 56340, Tempo, 482664
1, 56360, Tempo, 484535
1, 56400, Tempo, 486460
1, 56400, Note_on_c, 0, 65, 0
1, 56400, Note_on_c, 0, 64, 56
1, 56420, Tempo, 488361
1, 56440, Tempo, 490316
1, 56460, Tempo, 492287
1, 56480, Tempo, 494234
1, 56520, Tempo, 496237
1, 56520, Note_on_c, 0, 64, 0
1, 56520, Note_on_c, 0, 62, 59
1, 56540, Tempo, 498215
1, 56560, Tempo, 500250
1, 56580, Tempo, 502260
1, 56600, Tempo, 504329
1, 56620, Tempo, 506372
1, 56640, Tempo, 471587
1, 56640, Note_on_c, 0, 62, 0
1, 56640, Note_on_c, 0, 60, 61
1, 56640, Note_on_c, 0, 48, 46
1, 56880, Note_on_c, 0, 48, 0
1, 56880, Note_on_c, 0, 60, 0
1, 56880, Note_on_c, 0, 52, 34
1, 56880, Note_on_c, 0, 55, 40
1, 57000, Note_on_c, 0, 55, 0
1, 57000, Note_on_c, 0, 52, 0
1, 57120, Note_on_c, 0, 52, 34
1, 57120, Note_on_c, 0, 55, 41
1, 57240, Note_on_c, 0, 55, 0
1, 57240, Note_on_c, 0, 52, 0
1, 57360, Tempo, 510595
1, 57360, Note_on_c, 0, 52, 34
1, 57360, Note_on_c, 0, 55, 41
1, 57480, Note_on_c, 0, 55, 0
1, 57480, Note_on_c, 0, 52, 0
1, 57600, Tempo, 487053
1, 57600, Note_on_c, 0, 67, 62
1, 57600, Note_on_c, 0, 47, 55
1, 57840, Note_on_c, 0, 47, 0
1, 57840, Note_on_c, 0, 50, 34
1, 57840, Note_on_c, 0, 55, 40
1, 57960, Note_on_c, 0, 55, 0
1, 57960, Note_on_c, 0, 50, 0
1, 58080, Note_on_c, 0, 50, 34
1, 58080, Note_on_c, 0, 55, 41
1, 58200, Note_on_c, 0, 55, 0
1, 58200, Note_on_c, 0, 50, 0
1, 58320, Tempo, 502260
1, 58320, Note_on_c, 0, 67, 0
1, 58320, Note_on_c, 0, 67, 42
1, 58320, Note_on_c, 0, 50, 34
1, 58320, Note_on_c, 0, 55, 41
1, 58440, Note_on_c, 0, 55, 0
1, 58440, Note_on_c, 0, 50, 0
1, 58560, Tempo, 459313
1, 58560, Note_on_c, 0, 67, 0
1, 58560, Note_on_c, 0, 69, 50
1, 58560, Note_on_c, 0, 48, 46
1, 58680, Note_on_c, 0, 69, 0
1, 58680, Note_on_c, 0, 67, 41
1, 58800, Note_on_c, 0, 67, 0
1, 58800, Note_on_c, 0, 48, 0
1, 58800, Note_on_c, 0, 65, 41
1, 58800, Note_on_c, 0, 52, 34
1, 58800, Note_on_c, 0, 55, 40
1, 58920, Tempo, 554068
1, 58920, Note_on_c, 0, 55, 0
1, 58920, Note_on_c, 0, 52, 0
1, 58920, Note_on_c, 0, 65, 0
1, 58920, Note_on_c, 0, 64, 41
1, 59040, Tempo, 469814
1, 59040, Note_on_c, 0, 64, 0
1, 59040, Note_on_c, 0, 64, 47
1, 59040, Note_on_c, 0, 52, 34
1, 59040, Note_on_c, 0, 55, 41
1, 59160, Note_on_c, 0, 55, 0
1, 59160, Note_on_c, 0, 52, 0
1, 59280, Tempo, 502260
1, 59280, Note_on_c, 0, 52, 34
1, 59280, Note_on_c, 0, 55, 41
1, 59400, Note_on_c, 0, 55, 0
1, 59400, Note_on_c, 0, 52, 0
1, 59520, Tempo, 469814
1, 59520, Note_on_c, 0, 64, 0
1, 59520, Note_on_c, 0, 62, 46
1, 59520, Note_on_c, 0, 47, 46
1, 59640, Note_on_c, 0, 62, 0
1, 59760, Note_on_c, 0, 47, 0
1, 59760, Note_on_c, 0, 62, 42
1, 59760, Note_on_c, 0, 50, 34
1, 59760, Note_on_c, 0, 55, 40
1, 59880, Note_on_c, 0, 55, 0
1, 59880, Note_on_c, 0, 50, 0
1, 59880, Note_on_c, 0, 62, 0
1, 59880, Note_on_c, 0, 64, 42
1, 60000, Tempo, 495090
1, 60000, Note_on_c, 0, 64, 0
1, 60000, Note_on_c, 0, 65, 41
1, 60000, Note_on_c, 0, 50, 30
1, 60000, Note_on_c, 0, 55, 36
1, 60090, Note_on_c, 0, 55, 0
1, 60090, Note_on_c, 0, 50, 0
1, 60090, Note_on_c, 0, 65, 0
1, 60240, Tempo, 532434
1, 60240, Note_on_c, 0, 67, 36
1, 60240, Note_on_c, 0, 50, 30
1, 60240, Note_on_c, 0, 55, 36
1, 60330, Note_on_c, 0, 55, 0
1, 60330, Note_on_c, 0, 50, 0
1, 60330, Note_on_c, 0, 67, 0
1, 60480, Tempo, 492287
1, 60480, Note_on_c, 0, 65, 46
1, 60480, Note_on_c, 0, 48, 46
1, 60720, Note_on_c, 0, 48, 0
1, 60720, Note_on_c, 0, 52, 28
1, 60720, Note_on_c, 0, 55, 34
1, 60840, Note_on_c, 0, 55, 0
1, 60840, Note_on_c, 0, 52, 0
1, 60960, Note_on_c, 0, 65, 0
1, 60960, Note_on_c, 0, 64, 43
1, 60960, Note_on_c, 0, 52, 28
1, 60960, Note_on_c, 0, 55, 34
1, 61080, Note_on_c, 0, 55, 0
1, 61080, Note_on_c, 0, 52, 0
1, 61200, Note_on_c, 0, 64, 0
1, 61200, Note_on_c, 0, 52, 28
1, 61200, Note_on_c, 0, 55, 34
1, 61320, Note_on_c, 0, 55, 0
1, 61320, Note_on_c, 0, 52, 0
1, 61440, Tempo, 469814
1, 61440, Note_on_c, 0, 72, 56
1, 61440, Note_on_c, 0, 52, 46
1, 61560, Note_on_c, 0, 72, 0
1, 61680, Note_on_c, 0, 52, 0
1, 61680, Note_on_c, 0, 72, 50
1, 61680, Note_on_c, 0, 55, 34
1, 61680, Note_on_c, 0, 60, 40
1, 61800, Note_on_c, 0, 60, 0
1, 61800, Note_on_c, 0, 55, 0
1, 61800, Note_on_c, 0, 72, 0
1, 61800, Note_on_c, 0, 74, 51
1, 61920, Tempo, 490316
1, 61920, Note_on_c, 0, 74, 0
1, 61920, Note_on_c, 0, 76, 60
1, 61920, Note_on_c, 0, 60, 41
1, 61920, Note_on_c, 0, 55, 34
1, 62010, Note_on_c, 0, 55, 0
1, 62010, Note_on_c, 0, 60, 0
1, 62010, Note_on_c, 0, 76, 0
1, 62160, Tempo, 519166
1, 62160, Note_on_c, 0, 72, 52
1, 62160, Note_on_c, 0, 55, 34
1, 62160, Note_on_c, 0, 60, 41
1, 62250, Note_on_c, 0, 60, 0
1, 62250, Note_on_c, 0, 55, 0
1, 62250, Note_on_c, 0, 72, 0
1, 62400, Tempo, 469814
1, 62400, Note_on_c, 0, 69, 56
1, 62400, Note_on_c, 0, 53, 46
1, 62520, Note_on_c, 0, 69, 0
1, 62640, Note_on_c, 0, 53, 0
1, 62640, Note_on_c, 0, 81, 50
1, 62640, Note_on_c, 0, 57, 34
1, 62640, Note_on_c, 0, 62, 40
1, 62760, Note_on_c, 0, 62, 0
1, 62760, Note_on_c, 0, 57, 0
1, 62760, Note_on_c, 0, 81, 0
1, 62760, Note_on_c, 0, 77, 51
1, 62880, Tempo, 475473
1, 62880, Note_on_c, 0, 77, 0
1, 62880, Note_on_c, 0, 74, 56
1, 62880, Note_on_c, 0, 57, 34
1, 62880, Note_on_c, 0, 62, 41
1, 63000, Note_on_c, 0, 62, 0
1, 63000, Note_on_c, 0, 57, 0
1, 63000, Note_on_c, 0, 74, 0
1, 63120, Tempo, 483131
1, 63120, Note_on_c, 0, 77, 50
1, 63120, Note_on_c, 0, 62, 41
1, 63120, Note_on_c, 0, 57, 34
1, 63240, Note_on_c, 0, 57, 0
1, 63240, Note_on_c, 0, 62, 0
1, 63240, Note_on_c, 0, 77, 0
1, 63240, Note_on_c, 0, 74, 51
1, 63360, Tempo, 469814
1, 63360, Note_on_c, 0, 74, 0
1, 63360, Note_on_c, 0, 71, 56
1, 63360, Note_on_c, 0, 55, 46
1, 63480, Note_on_c, 0, 71, 0
1, 63600, Note_on_c, 0, 55, 0
1, 63600, Note_on_c, 0, 74, 50
1, 63600, Note_on_c, 0, 65, 40
1, 63600, Note_on_c, 0, 62, 34
1, 63720, Note_on_c, 0, 62, 0
1, 63720, Note_on_c, 0, 65, 0
1, 63720, Note_on_c, 0, 74, 0
1, 63720, Note_on_c, 0, 71, 51
1, 63840, Tempo, 490316
1, 63840, Note_on_c, 0, 71, 0
1, 63840, Note_on_c, 0, 67, 60
1, 63840, Note_on_c, 0, 65, 36
1, 63840, Note_on_c, 0, 62, 30
1, 63960, Note_on_c, 0, 62, 0
1, 63960, Note_on_c, 0, 65, 0
1, 63960, Note_on_c, 0, 67, 0
1, 64080, Tempo, 519166
1, 64080, Note_on_c, 0, 71, 52
1, 64080, Note_on_c, 0, 62, 30
1, 64080, Note_on_c, 0, 65, 36
1, 64200, Note_on_c, 0, 65, 0
1, 64200, Note_on_c, 0, 62, 0
1, 64200, Note_on_c, 0, 71, 0
1, 64320, Note_on_c, 0, 72, 50
1, 64320, Note_on_c, 0, 60, 40
1, 64320, Note_on_c, 0, 64, 40
1, 64440, Note_on_c, 0, 72, 0
1, 64440, Note_on_c, 0, 71, 42
1, 64560, Note_on_c, 0, 71, 0
1, 64560, Note_on_c, 0, 64, 0
1, 64560, Note_on_c, 0, 60, 0
1, 64560, Note_on_c, 0, 72, 42
1, 64680, Note_on_c, 0, 72, 0
1, 64680, Note_on_c, 0, 76, 51
1, 64737, Tempo, 488361
1, 64797, Tempo, 490316
1, 64800, Note_on_c, 0, 76, 0
1, 64800, Note_on_c, 0, 74, 45
1, 64837, Tempo, 492287
1, 64877, Tempo, 494234
1, 64920, Note_on_c, 0, 74, 0
1, 64920, Note_on_c, 0, 72, 47
1, 64937, Tempo, 496237
1, 64977, Tempo, 498215
1, 65017, Tempo, 500250
1, 65040, Note_on_c, 0, 72, 0
1, 65040, Note_on_c, 0, 71, 50
1, 65160, Tempo, 574713
1, 65160, Note_on_c, 0, 71, 0
1, 65160, Note_on_c, 0, 69, 52
1, 65280, Tempo, 481193
1, 65280, Note_on_c, 0, 69, 0
1, 65280, Note_on_c, 0, 67, 62
1, 65280, Note_on_c, 0, 47, 55
1, 65520, Note_on_c, 0, 47, 0
1, 65520, Note_on_c, 0, 55, 36
1, 65520, Note_on_c, 0, 50, 30
1, 65640, Note_on_c, 0, 50, 0
1, 65640, Note_on_c, 0, 55, 0
1, 65760, Note_on_c, 0, 55, 36
1, 65760, Note_on_c, 0, 50, 30
1, 65880, Note_on_c, 0, 50, 0
1, 65880, Note_on_c, 0, 55, 0
1, 66000, Tempo, 502260
1, 66000, Note_on_c, 0, 67, 0
1, 66000, Note_on_c, 0, 67, 42
1, 66000, Note_on_c, 0, 50, 30
1, 66000, Note_on_c, 0, 55, 36
1, 66120, Note_on_c, 0, 55, 0
1, 66120, Note_on_c, 0, 50, 0
1, 66240, Tempo, 467326
1, 66240, Note_on_c, 0, 67, 0
1, 66240, Note_on_c, 0, 69, 50
1, 66240, Note_on_c, 0, 48, 46
1, 66360, Note_on_c, 0, 69, 0
1, 66360, Note_on_c, 0, 67, 41
1, 66480, Note_on_c, 0, 67, 0
1, 66480, Note_on_c, 0, 48, 0
1, 66480, Note_on_c, 0, 65, 41
1, 66480, Note_on_c, 0, 52, 34
1, 66480, Note_on_c, 0, 55, 40
1, 66600, Tempo, 554068
1, 66600, Note_on_c, 0, 55, 0
1, 66600, Note_on_c, 0, 52, 0
1, 66600, Note_on_c, 0, 65, 0
1, 66600, Note_on_c, 0, 64, 41
1, 66720, Tempo, 469814
1, 66720, Note_on_c, 0, 64, 0
1, 66720, Note_on_c, 0, 64, 47
1, 66720, Note_on_c, 0, 52, 34
1, 66720, Note_on_c, 0, 55, 41
1, 66840, Note_on_c, 0, 55, 0
1, 66840, Note_on_c, 0, 52, 0
1, 66960, Tempo, 502260
1, 66960, Note_on_c, 0, 52, 34
1, 66960, Note_on_c, 0, 55, 41
1, 67080, Note_on_c, 0, 55, 0
1, 67080, Note_on_c, 0, 52, 0
1, 67200, Tempo, 469814
1, 67200, Note_on_c, 0, 64, 0
1, 67200, Note_on_c, 0, 62, 46
1, 67200, Note_on_c, 0, 47, 46
1, 67320, Note_on_c, 0, 62, 0
1, 67440, Note_on_c, 0, 47, 0
1, 67440, Note_on_c, 0, 62, 42
1, 67440, Note_on_c, 0, 55, 40
1, 67440, Note_on_c, 0, 50, 34
1, 67560, Note_on_c, 0, 50, 0
1, 67560, Note_on_c, 0, 55, 0
1, 67560, Note_on_c, 0, 62, 0
1, 67560, Note_on_c, 0, 64, 42
1, 67680, Tempo, 499210
1, 67680, Note_on_c, 0, 64, 0
1, 67680, Note_on_c, 0, 65, 41
1, 67680, Note_on_c, 0, 50, 30
1, 67680, Note_on_c, 0, 55, 36
1, 67770, Note_on_c, 0, 55, 0
1, 67770, Note_on_c, 0, 50, 0
1, 67770, Note_on_c, 0, 65, 0
1, 67920, Tempo, 530082
1, 67920, Note_on_c, 0, 67, 36
1, 67920, Note_on_c, 0, 50, 30
1, 67920, Note_on_c, 0, 55, 36
1, 68010, Note_on_c, 0, 55, 0
1, 68010, Note_on_c, 0, 50, 0
1, 68010, Note_on_c, 0, 67, 0
1, 68160, Tempo, 492287
1, 68160, Note_on_c, 0, 65, 46
1, 68160, Note_on_c, 0, 48, 46
1, 68400, Note_on_c, 0, 48, 0
1, 68400, Note_on_c, 0, 52, 28
1, 68400, Note_on_c, 0, 55, 34
1, 68520, Note_on_c, 0, 55, 0
1, 68520, Note_on_c, 0, 52, 0
1, 68640, Note_on_c, 0, 65, 0
1, 68640, Note_on_c, 0, 64, 43
1, 68640, Note_on_c, 0, 52, 28
1, 68640, Note_on_c, 0, 55, 34
1, 68760, Note_on_c, 0, 55, 0
1, 68760, Note_on_c, 0, 52, 0
1, 68880, Note_on_c, 0, 64, 0
1, 68880, Note_on_c, 0, 52, 28
1, 68880, Note_on_c, 0, 55, 34
1, 69000, Tempo, 492287
1, 69000, Note_on_c, 0, 55, 0
1, 69000, Note_on_c, 0, 52, 0
1, 69120, Tempo, 483131
1, 69120, Note_on_c, 0, 72, 53
1, 69120, Note_on_c, 0, 52, 46
1, 69240, Note_on_c, 0, 72, 0
1, 69240, Note_on_c, 0, 74, 54
1, 69360, Note_on_c, 0, 74, 0
1, 69360, Note_on_c, 0, 52, 0
1, 69360, Note_on_c, 0, 76, 55
1, 69360, Note_on_c, 0, 60, 40
1, 69360, Note_on_c, 0, 55, 34
1, 69480, Note_on_c, 0, 55, 0
1, 69480, Note_on_c, 0, 60, 0
1, 69480, Note_on_c, 0, 76, 0
1, 69480, Note_on_c, 0, 77, 56
1, 69600, Note_on_c, 0, 77, 0
1, 69600, Note_on_c, 0, 79, 58
1, 69600, Note_on_c, 0, 55, 34
1, 69600, Note_on_c, 0, 60, 41
1, 69720, Note_on_c, 0, 60, 0
1, 69720, Note_on_c, 0, 55, 0
1, 69720, Note_on_c, 0, 79, 0
1, 69720, Note_on_c, 0, 81, 60
1, 69840, Tempo, 485084
1, 69840, Note_on_c, 0, 81, 0
1, 69840, Note_on_c, 0, 83, 60
1, 69840, Note_on_c, 0, 55, 34
1, 69840, Note_on_c, 0, 60, 41
1, 69960, Note_on_c, 0, 60, 0
1, 69960, Note_on_c, 0, 55, 0
1, 69960, Note_on_c, 0, 83, 0
1, 69960, Note_on_c, 0, 84, 62
1, 70080, Tempo, 469814
1, 70080, Note_on_c, 0, 84, 0
1, 70080, Note_on_c, 0, 81, 63
1, 70080, Note_on_c, 0, 53, 52
1, 70200, Note_on_c, 0, 81, 0
1, 70320, Note_on_c, 0, 53, 0
1, 70320, Note_on_c, 0, 81, 48
1, 70320, Note_on_c, 0, 57, 37
1, 70320, Note_on_c, 0, 62, 44
1, 70440, Note_on_c, 0, 62, 0
1, 70440, Note_on_c, 0, 57, 0
1, 70440, Note_on_c, 0, 81, 0
1, 70440, Note_on_c, 0, 77, 49
1, 70560, Tempo, 490316
1, 70560, Note_on_c, 0, 77, 0
1, 70560, Note_on_c, 0, 74, 53
1, 70560, Note_on_c, 0, 62, 45
1, 70560, Note_on_c, 0, 57, 37
1, 70680, Note_on_c, 0, 57, 0
1, 70680, Note_on_c, 0, 62, 0
1, 70680, Note_on_c, 0, 74, 0
1, 70800, Tempo, 519166
1, 70800, Note_on_c, 0, 77, 48
1, 70800, Note_on_c, 0, 57, 37
1, 70800, Note_on_c, 0, 62, 45
1, 70920, Note_on_c, 0, 62, 0
1, 70920, Note_on_c, 0, 57, 0
1, 70920, Note_on_c, 0, 77, 0
1, 70920, Note_on_c, 0, 74, 49
1, 71040, Tempo, 469814
1, 71040, Note_on_c, 0, 74, 0
1, 71040, Note_on_c, 0, 71, 53
1, 71040, Note_on_c, 0, 55, 50
1, 71160, Note_on_c, 0, 71, 0
1, 71280, Note_on_c, 0, 55, 0
1, 71280, Note_on_c, 0, 74, 48
1, 71280, Note_on_c, 0, 65, 44
1, 71280, Note_on_c, 0, 62, 37
1, 71400, Note_on_c, 0, 62, 0
1, 71400, Note_on_c, 0, 65, 0
1, 71400, Note_on_c, 0, 74, 0
1, 71400, Note_on_c, 0, 71, 49
1, 71520, Tempo, 490316
1, 71520, Note_on_c, 0, 71, 0
1, 71520, Note_on_c, 0, 67, 58
1, 71520, Note_on_c, 0, 62, 33
1, 71520, Note_on_c, 0, 65, 39
1, 71640, Note_on_c, 0, 65, 0
1, 71640, Note_on_c, 0, 62, 0
1, 71640, Note_on_c, 0, 67, 0
1, 71760, Tempo, 519166
1, 71760, Note_on_c, 0, 71, 50
1, 71760, Note_on_c, 0, 65, 39
1, 71760, Note_on_c, 0, 62, 33
1, 71880, Note_on_c, 0, 62, 0
1, 71880, Note_on_c, 0, 65, 0
1, 71880, Note_on_c, 0, 71, 0
1, 72000, Tempo, 487053
1, 72000, Note_on_c, 0, 72, 41
1, 72000, Note_on_c, 0, 64, 33
1, 72000, Note_on_c, 0, 67, 39
1, 72120, Note_on_c, 0, 67, 0
1, 72120, Note_on_c, 0, 64, 0
1, 72120, Note_on_c, 0, 72, 0
1, 72120, Note_on_c, 0, 74, 34
1, 72240, Note_on_c, 0, 74, 0
1, 72240, Note_on_c, 0, 72, 34
1, 72360, Note_on_c, 0, 72, 0
1, 72360, Note_on_c, 0, 71, 34
1, 72480, Note_on_c, 0, 71, 0
1, 72480, Note_on_c, 0, 72, 41
1, 72600, Note_on_c, 0, 72, 0
1, 72600, Note_on_c, 0, 74, 33
1, 72720, Note_on_c, 0, 74, 0
1, 72720, Note_on_c, 0, 72, 33
1, 72840, Tempo, 514183
1, 72840, Note_on_c, 0, 72, 0
1, 72840, Note_on_c, 0, 71, 33
1, 72960, Tempo, 483131
1, 72960, Note_on_c, 0, 71, 0
1, 72960, Note_on_c, 0, 72, 41
1, 72960, Note_on_c, 0, 67, 39
1, 72960, Note_on_c, 0, 64, 33
1, 73080, Note_on_c, 0, 64, 0
1, 73080, Note_on_c, 0, 67, 0
1, 73080, Note_on_c, 0, 72, 0
1, 73080, Note_on_c, 0, 74, 34
1, 73200, Note_on_c, 0, 74, 0
1, 73200, Note_on_c, 0, 72, 34
1, 73320, Note_on_c, 0, 72, 0
1, 73320, Note_on_c, 0, 71, 34
1, 73440, Tempo, 495090
1, 73440, Note_on_c, 0, 71, 0
1, 73440, Note_on_c, 0, 72, 41
1, 73440, Note_on_c, 0, 62, 31
1, 73440, Note_on_c, 0, 65, 31
1, 73560, Note_on_c, 0, 65, 0
1, 73560, Note_on_c, 0, 62, 0
1, 73560, Note_on_c, 0, 72, 0
1, 73560, Note_on_c, 0, 74, 33
1, 73680, Note_on_c, 0, 74, 0
1, 73680, Note_on_c, 0, 72, 33
1, 73800, Tempo, 509814
1, 73800, Note_on_c, 0, 72, 0
1, 73800, Note_on_c, 0, 71, 33
1, 73920, Tempo, 475473
1, 73920, Note_on_c, 0, 71, 0
1, 73920, Note_on_c, 0, 72, 41
1, 73920, Note_on_c, 0, 64, 39
1, 73920, Note_on_c, 0, 60, 33
1, 74040, Note_on_c, 0, 60, 0
1, 74040, Note_on_c, 0, 64, 0
1, 74040, Note_on_c, 0, 72, 0
1, 74040, Note_on_c, 0, 74, 34
1, 74160, Note_on_c, 0, 74, 0
1, 74160, Note_on_c, 0, 72, 34
1, 74280, Note_on_c, 0, 72, 0
1, 74280, Note_on_c, 0, 71, 34
1, 74400, Tempo, 483131
1, 74400, Note_on_c, 0, 71, 0
1, 74400, Note_on_c, 0, 72, 41
1, 74520, Note_on_c, 0, 72, 0
1, 74520, Note_on_c, 0, 74, 33
1, 74640, Note_on_c, 0, 74, 0
1, 74640, Note_on_c, 0, 72, 33
1, 74760, Tempo, 514845
1, 74760, Note_on_c, 0, 72, 0
1, 74760, Note_on_c, 0, 71, 33
1, 74880, Tempo, 485084
1, 74880, Note_on_c, 0, 71, 0
1, 74880, Note_on_c, 0, 72, 41
1, 74880, Note_on_c, 0, 55, 39
1, 74880, Note_on_c, 0, 52, 33
1, 75000, Tempo, 485084
1, 75000, Note_on_c, 0, 52, 0
1, 75000, Note_on_c, 0, 55, 0
1, 75000, Note_on_c, 0, 72, 0
1, 75000, Note_on_c, 0, 74, 34
1, 75120, Note_on_c, 0, 74, 0
1, 75120, Note_on_c, 0, 72, 34
1, 75240, Note_on_c, 0, 72, 0
1, 75240, Note_on_c, 0, 71, 34
1, 75360, Tempo, 495090
1, 75360, Note_on_c, 0, 71, 0
1, 75360, Note_on_c, 0, 72, 41
1, 75360, Note_on_c, 0, 50, 31
1, 75360, Note_on_c, 0, 53, 31
1, 75480, Note_on_c, 0, 53, 0
1, 75480, Note_on_c, 0, 50, 0
1, 75480, Note_on_c, 0, 72, 0
1, 75480, Note_on_c, 0, 74, 33
1, 75600, Note_on_c, 0, 74, 0
1, 75600, Note_on_c, 0, 72, 33
1, 75720, Tempo, 520879
1, 75720, Note_on_c, 0, 72, 0
1, 75720, Note_on_c, 0, 71, 33
1, 75840, Tempo, 471735
1, 75840, Note_on_c, 0, 71, 0
1, 75840, Note_on_c, 0, 72, 41
1, 75840, Note_on_c, 0, 52, 39
1, 75840, Note_on_c, 0, 48, 33
1, 75960, Note_on_c, 0, 48, 0
1, 75960, Note_on_c, 0, 52, 0
1, 75960, Note_on_c, 0, 72, 0
1, 76320, Tempo, 468055
1, 76560, Tempo, 455615
1, 76560, Note_on_c, 0, 67, 72
1, 76617, Control_c, 0, 64, 127
1, 76680, Note_on_c, 0, 67, 0
1, 76680, Note_on_c, 0, 72, 73
1, 76800, Tempo, 448799
1, 76800, Note_on_c, 0, 72, 0
1, 76800, Note_on_c, 0, 76, 83
1, 76800, Note_on_c, 0, 48, 58
1, 76800, Note_on_c, 0, 52, 70
1, 76885, Control_c, 0, 64, 0
1, 76920, Note_on_c, 0, 52, 0
1, 76920, Note_on_c, 0, 48, 0
1, 76920, Note_on_c, 0, 76, 0
1, 77040, Tempo, 435761
1, 77040, Note_on_c, 0, 72, 72
1, 77160, Note_on_c, 0, 72, 0
1, 77160, Note_on_c, 0, 76, 72
1, 77196, Control_c, 0, 64, 127
1, 77280, Tempo, 452182
1, 77280, Note_on_c, 0, 76, 0
1, 77280, Note_on_c, 0, 79, 83
1, 77280, Note_on_c, 0, 48, 58
1, 77280, Note_on_c, 0, 52, 70
1, 77372, Control_c, 0, 64, 0
1, 77400, Note_on_c, 0, 52, 0
1, 77400, Note_on_c, 0, 48, 0
1, 77400, Note_on_c, 0, 79, 0
1, 77520, Note_on_c, 0, 76, 72
1, 77626, Control_c, 0, 64, 127
1, 77640, Tempo, 549501
1, 77640, Note_on_c, 0, 76, 0
1, 77640, Note_on_c, 0, 79, 87
1, 77760, Tempo, 459102
1, 77760, Note_on_c, 0, 79, 0
1, 77760, Note_on_c, 0, 84, 85
1, 77760, Note_on_c, 0, 48, 58
1, 77760, Note_on_c, 0, 52, 70
1, 77880, Note_on_c, 0, 52, 0
1, 77880, Note_on_c, 0, 48, 0
1, 77880, Note_on_c, 0, 84, 0
1, 77958, Control_c, 0, 64, 0
1, 77958, End_track
0, 0, End_of_file
