0, 0, Header, 0, 1, 480
1, 0, Start_track
1, 0, Title_t, "Clementi: Sonatine Opus 36 Nr. 2, 3. Satz"
1, 0, Copyright_t, "Copyright © 2010 by Bernd Krueger"
1, 0, Text_t, "Muzio Clementi"
1, 0, Text_t, "Allegro"
1, 0, Text_t, "Erstellt: 7.12.2010\012"
1, 0, Text_t, "Dauer: 1:34 Minuten\012"
1, 0, Time_signature, 3, 3, 12, 8
1, 0, Key_signature, 1, "major"
1, 0, Tempo, 557673
1, 0, Program_c, 0, 0
1, 0, Note_on_c, 0, 67, 50
1, 0, Program_c, 0, 0
1, 0, Note_on_c, 0, 55, 30
1, 0, Program_c, 0, 0
1, 120, Note_on_c, 0, 67, 0
1, 240, Note_on_c, 0, 55, 0
1, 240, Note_on_c, 0, 67, 43
1, 240, Note_on_c, 0, 59, 29
1, 360, Note_on_c, 0, 67, 0
1, 480, Tempo, 568397
1, 480, Note_on_c, 0, 59, 0
1, 480, Note_on_c, 0, 67, 43
1, 480, Note_on_c, 0, 62, 29
1, 600, Note_on_c, 0, 67, 0
1, 720, Tempo, 537875
1, 720, Note_on_c, 0, 62, 0
1, 720, Note_on_c, 0, 69, 46
1, 720, Note_on_c, 0, 54, 30
1, 960, Note_on_c, 0, 54, 0
1, 960, Note_on_c, 0, 69, 0
1, 960, Note_on_c, 0, 74, 50
1, 960, Note_on_c, 0, 57, 26
1, 1200, Note_on_c, 0, 57, 0
1, 1200, Note_on_c, 0, 74, 0
1, 1200, Note_on_c, 0, 72, 47
1, 1200, Note_on_c, 0, 62, 26
1, 1440, Tempo, 556225
1, 1440, Note_on_c, 0, 62, 0
1, 1440, Note_on_c, 0, 72, 0
1, 1440, Note_on_c, 0, 71, 50
1, 1440, Note_on_c, 0, 55, 30
1, 1560, Note_on_c, 0, 71, 0
1, 1680, Tempo, 535666
1, 1680, Note_on_c, 0, 55, 0
1, 1680, Note_on_c, 0, 67, 43
1, 1680, Note_on_c, 0, 59, 25
1, 1800, Note_on_c, 0, 67, 0
1, 1800, Note_on_c, 0, 69, 40
1, 1920, Tempo, 524843
1, 1920, Note_on_c, 0, 69, 0
1, 1920, Note_on_c, 0, 59, 0
1, 1920, Note_on_c, 0, 71, 43
1, 1920, Note_on_c, 0, 62, 24
1, 2040, Note_on_c, 0, 71, 0
1, 2040, Note_on_c, 0, 67, 42
1, 2160, Tempo, 550005
1, 2160, Note_on_c, 0, 67, 0
1, 2160, Note_on_c, 0, 62, 0
1, 2160, Note_on_c, 0, 69, 46
1, 2160, Note_on_c, 0, 54, 30
1, 2280, Note_on_c, 0, 69, 0
1, 2400, Tempo, 545009
1, 2400, Note_on_c, 0, 54, 0
1, 2400, Note_on_c, 0, 57, 25
1, 2640, Tempo, 558607
1, 2640, Note_on_c, 0, 57, 0
1, 2640, Note_on_c, 0, 62, 21
1, 2880, Tempo, 535666
1, 2880, Note_on_c, 0, 62, 0
1, 2880, Note_on_c, 0, 79, 50
1, 2880, Note_on_c, 0, 55, 30
1, 3000, Note_on_c, 0, 79, 0
1, 3120, Note_on_c, 0, 55, 0
1, 3120, Note_on_c, 0, 79, 50
1, 3120, Note_on_c, 0, 59, 29
1, 3240, Note_on_c, 0, 79, 0
1, 3360, Tempo, 551521
1, 3360, Note_on_c, 0, 59, 0
1, 3360, Note_on_c, 0, 79, 50
1, 3360, Note_on_c, 0, 62, 31
1, 3480, Note_on_c, 0, 79, 0
1, 3576, Tempo, 527009
1, 3600, Note_on_c, 0, 62, 0
1, 3600, Note_on_c, 0, 81, 56
1, 3600, Note_on_c, 0, 54, 36
1, 3672, Tempo, 529147
1, 3720, Note_on_c, 0, 81, 0
1, 3720, Note_on_c, 0, 79, 50
1, 3768, Tempo, 531303
1, 3840, Note_on_c, 0, 79, 0
1, 3840, Note_on_c, 0, 54, 0
1, 3840, Note_on_c, 0, 78, 49
1, 3840, Note_on_c, 0, 57, 30
1, 3864, Tempo, 533476
1, 3960, Tempo, 535666
1, 3960, Note_on_c, 0, 78, 0
1, 3960, Note_on_c, 0, 76, 48
1, 4056, Tempo, 537875
1, 4080, Note_on_c, 0, 76, 0
1, 4080, Note_on_c, 0, 57, 0
1, 4080, Note_on_c, 0, 74, 47
1, 4080, Note_on_c, 0, 62, 30
1, 4152, Tempo, 540103
1, 4200, Note_on_c, 0, 74, 0
1, 4200, Note_on_c, 0, 72, 46
1, 4248, Tempo, 542348
1, 4320, Tempo, 558607
1, 4320, Note_on_c, 0, 72, 0
1, 4320, Note_on_c, 0, 62, 0
1, 4320, Note_on_c, 0, 71, 50
1, 4320, Note_on_c, 0, 55, 30
1, 4440, Note_on_c, 0, 71, 0
1, 4560, Tempo, 540103
1, 4560, Note_on_c, 0, 55, 0
1, 4560, Note_on_c, 0, 67, 43
1, 4560, Note_on_c, 0, 59, 25
1, 4680, Note_on_c, 0, 67, 0
1, 4680, Note_on_c, 0, 69, 40
1, 4800, Note_on_c, 0, 69, 0
1, 4800, Note_on_c, 0, 59, 0
1, 4800, Note_on_c, 0, 71, 43
1, 4800, Note_on_c, 0, 62, 24
1, 4920, Note_on_c, 0, 71, 0
1, 4920, Note_on_c, 0, 67, 42
1, 5040, Tempo, 568236
1, 5040, Note_on_c, 0, 67, 0
1, 5040, Note_on_c, 0, 62, 0
1, 5040, Note_on_c, 0, 69, 46
1, 5040, Note_on_c, 0, 54, 30
1, 5160, Note_on_c, 0, 69, 0
1, 5280, Tempo, 545009
1, 5280, Note_on_c, 0, 54, 0
1, 5280, Note_on_c, 0, 57, 25
1, 5520, Note_on_c, 0, 57, 0
1, 5520, Note_on_c, 0, 62, 23
1, 5760, Tempo, 540103
1, 5760, Note_on_c, 0, 62, 0
1, 5760, Note_on_c, 0, 60, 30
1, 5880, Note_on_c, 0, 64, 40
1, 5928, Tempo, 553863
1, 6000, Tempo, 551521
1, 6000, Note_on_c, 0, 64, 0
1, 6000, Note_on_c, 0, 66, 44
1, 6048, Tempo, 549199
1, 6096, Tempo, 546896
1, 6120, Note_on_c, 0, 66, 0
1, 6120, Note_on_c, 0, 68, 47
1, 6144, Tempo, 544613
1, 6216, Tempo, 542348
1, 6240, Note_on_c, 0, 68, 0
1, 6240, Note_on_c, 0, 69, 49
1, 6264, Tempo, 540103
1, 6312, Tempo, 537875
1, 6360, Tempo, 535666
1, 6360, Note_on_c, 0, 69, 0
1, 6360, Note_on_c, 0, 71, 50
1, 6408, Tempo, 533476
1, 6480, Tempo, 537875
1, 6480, Note_on_c, 0, 71, 0
1, 6480, Note_on_c, 0, 60, 0
1, 6480, Note_on_c, 0, 72, 56
1, 6600, Tempo, 591599
1, 6600, Note_on_c, 0, 72, 0
1, 6600, Note_on_c, 0, 74, 58
1, 6720, Tempo, 570885
1, 6720, Note_on_c, 0, 74, 0
1, 6720, Note_on_c, 0, 76, 64
1, 6720, Note_on_c, 0, 60, 30
1, 6840, Note_on_c, 0, 60, 0
1, 6840, Note_on_c, 0, 76, 0
1, 6960, Note_on_c, 0, 76, 60
1, 6960, Note_on_c, 0, 60, 28
1, 7080, Note_on_c, 0, 60, 0
1, 7080, Note_on_c, 0, 76, 0
1, 7200, Tempo, 537875
1, 7200, Note_on_c, 0, 59, 30
1, 7320, Note_on_c, 0, 62, 40
1, 7344, Tempo, 553863
1, 7416, Tempo, 551521
1, 7440, Note_on_c, 0, 62, 0
1, 7440, Note_on_c, 0, 64, 44
1, 7488, Tempo, 549199
1, 7560, Tempo, 546896
1, 7560, Note_on_c, 0, 64, 0
1, 7560, Note_on_c, 0, 66, 47
1, 7632, Tempo, 544613
1, 7680, Note_on_c, 0, 66, 0
1, 7680, Note_on_c, 0, 67, 49
1, 7704, Tempo, 542348
1, 7776, Tempo, 540103
1, 7800, Note_on_c, 0, 67, 0
1, 7800, Note_on_c, 0, 69, 50
1, 7848, Tempo, 537875
1, 7896, Tempo, 535666
1, 7920, Note_on_c, 0, 69, 0
1, 7920, Note_on_c, 0, 59, 0
1, 7920, Note_on_c, 0, 71, 54
1, 8040, Tempo, 588928
1, 8040, Note_on_c, 0, 71, 0
1, 8040, Note_on_c, 0, 72, 57
1, 8160, Tempo, 565931
1, 8160, Note_on_c, 0, 72, 0
1, 8160, Note_on_c, 0, 74, 62
1, 8160, Note_on_c, 0, 59, 30
1, 8280, Note_on_c, 0, 59, 0
1, 8280, Note_on_c, 0, 74, 0
1, 8400, Note_on_c, 0, 74, 53
1, 8400, Note_on_c, 0, 59, 28
1, 8520, Tempo, 586281
1, 8520, Note_on_c, 0, 59, 0
1, 8520, Note_on_c, 0, 74, 0
1, 8640, Tempo, 537875
1, 8640, Note_on_c, 0, 72, 65
1, 8640, Note_on_c, 0, 57, 47
1, 8661, Control_c, 0, 64, 127
1, 8664, Tempo, 533476
1, 8760, Tempo, 535666
1, 8760, Note_on_c, 0, 72, 0
1, 8760, Note_on_c, 0, 62, 51
1, 8856, Tempo, 537875
1, 8880, Note_on_c, 0, 62, 0
1, 8880, Note_on_c, 0, 57, 0
1, 8880, Note_on_c, 0, 71, 58
1, 8880, Note_on_c, 0, 55, 30
1, 8894, Control_c, 0, 64, 0
1, 8928, Tempo, 540103
1, 8937, Control_c, 0, 64, 127
1, 9000, Note_on_c, 0, 71, 0
1, 9000, Note_on_c, 0, 62, 49
1, 9024, Tempo, 542348
1, 9120, Tempo, 544613
1, 9120, Note_on_c, 0, 62, 0
1, 9120, Note_on_c, 0, 55, 0
1, 9120, Note_on_c, 0, 69, 59
1, 9120, Note_on_c, 0, 54, 30
1, 9127, Control_c, 0, 64, 0
1, 9177, Control_c, 0, 64, 127
1, 9192, Tempo, 546896
1, 9240, Tempo, 568397
1, 9240, Note_on_c, 0, 69, 0
1, 9240, Note_on_c, 0, 62, 48
1, 9360, Tempo, 529147
1, 9360, Note_on_c, 0, 62, 0
1, 9360, Note_on_c, 0, 54, 0
1, 9360, Note_on_c, 0, 71, 62
1, 9360, Note_on_c, 0, 55, 46
1, 9365, Control_c, 0, 64, 0
1, 9408, Tempo, 531303
1, 9431, Control_c, 0, 64, 127
1, 9456, Tempo, 533476
1, 9480, Note_on_c, 0, 71, 0
1, 9480, Note_on_c, 0, 62, 47
1, 9504, Tempo, 535666
1, 9552, Tempo, 537875
1, 9600, Tempo, 540103
1, 9600, Note_on_c, 0, 62, 0
1, 9600, Note_on_c, 0, 55, 0
1, 9600, Note_on_c, 0, 69, 55
1, 9600, Note_on_c, 0, 54, 30
1, 9615, Control_c, 0, 64, 0
1, 9648, Tempo, 542348
1, 9692, Control_c, 0, 64, 127
1, 9696, Tempo, 544613
1, 9720, Note_on_c, 0, 69, 0
1, 9720, Note_on_c, 0, 62, 48
1, 9744, Tempo, 546896
1, 9792, Tempo, 549199
1, 9840, Tempo, 563486
1, 9840, Note_on_c, 0, 62, 0
1, 9840, Note_on_c, 0, 54, 0
1, 9840, Note_on_c, 0, 67, 55
1, 9840, Note_on_c, 0, 52, 30
1, 9856, Control_c, 0, 64, 0
1, 9946, Control_c, 0, 64, 127
1, 9960, Note_on_c, 0, 67, 0
1, 9960, Note_on_c, 0, 62, 49
1, 10080, Tempo, 537875
1, 10080, Note_on_c, 0, 62, 0
1, 10080, Note_on_c, 0, 52, 0
1, 10080, Note_on_c, 0, 66, 57
1, 10080, Note_on_c, 0, 50, 34
1, 10085, Control_c, 0, 64, 0
1, 10200, Note_on_c, 0, 66, 0
1, 10200, Note_on_c, 0, 64, 47
1, 10320, Note_on_c, 0, 64, 0
1, 10320, Note_on_c, 0, 62, 47
1, 10440, Note_on_c, 0, 62, 0
1, 10440, Note_on_c, 0, 64, 47
1, 10560, Note_on_c, 0, 64, 0
1, 10560, Note_on_c, 0, 66, 43
1, 10680, Tempo, 540103
1, 10680, Note_on_c, 0, 66, 0
1, 10680, Note_on_c, 0, 67, 44
1, 10776, Tempo, 551521
1, 10800, Tempo, 573669
1, 10800, Note_on_c, 0, 67, 0
1, 10800, Note_on_c, 0, 50, 0
1, 10800, Note_on_c, 0, 69, 52
1, 10824, Tempo, 570939
1, 10848, Tempo, 568236
1, 10872, Tempo, 565558
1, 10896, Tempo, 560276
1, 10920, Tempo, 557673
1, 10920, Note_on_c, 0, 69, 0
1, 10920, Note_on_c, 0, 71, 46
1, 10944, Tempo, 555093
1, 10968, Tempo, 552537
1, 10992, Tempo, 547495
1, 11016, Tempo, 540103
1, 11040, Tempo, 542545
1, 11040, Note_on_c, 0, 71, 0
1, 11040, Note_on_c, 0, 74, 47
1, 11064, Tempo, 547495
1, 11088, Tempo, 552537
1, 11112, Tempo, 555093
1, 11136, Tempo, 560276
1, 11160, Tempo, 565558
1, 11160, Note_on_c, 0, 74, 0
1, 11160, Note_on_c, 0, 72, 45
1, 11184, Tempo, 568236
1, 11208, Tempo, 573669
1, 11232, Tempo, 579206
1, 11256, Tempo, 584852
1, 11280, Tempo, 587717
1, 11280, Note_on_c, 0, 72, 0
1, 11280, Note_on_c, 0, 71, 41
1, 11304, Tempo, 593531
1, 11328, Tempo, 599460
1, 11352, Tempo, 602470
1, 11376, Tempo, 608581
1, 11400, Tempo, 614817
1, 11400, Note_on_c, 0, 71, 0
1, 11400, Note_on_c, 0, 69, 40
1, 11424, Tempo, 617983
1, 11448, Tempo, 624415
1, 11472, Tempo, 630981
1, 11496, Tempo, 637687
1, 11520, Tempo, 568236
1, 11520, Note_on_c, 0, 69, 0
1, 11520, Note_on_c, 0, 67, 50
1, 11520, Note_on_c, 0, 55, 30
1, 11640, Note_on_c, 0, 67, 0
1, 11760, Tempo, 547495
1, 11760, Note_on_c, 0, 55, 0
1, 11760, Note_on_c, 0, 67, 43
1, 11760, Note_on_c, 0, 59, 29
1, 11880, Note_on_c, 0, 67, 0
1, 12000, Tempo, 568397
1, 12000, Note_on_c, 0, 59, 0
1, 12000, Note_on_c, 0, 67, 43
1, 12000, Note_on_c, 0, 62, 29
1, 12120, Note_on_c, 0, 67, 0
1, 12240, Tempo, 537875
1, 12240, Note_on_c, 0, 62, 0
1, 12240, Note_on_c, 0, 69, 46
1, 12240, Note_on_c, 0, 54, 30
1, 12480, Note_on_c, 0, 54, 0
1, 12480, Note_on_c, 0, 69, 0
1, 12480, Note_on_c, 0, 74, 50
1, 12480, Note_on_c, 0, 57, 26
1, 12720, Note_on_c, 0, 57, 0
1, 12720, Note_on_c, 0, 74, 0
1, 12720, Note_on_c, 0, 72, 47
1, 12720, Note_on_c, 0, 62, 26
1, 12960, Tempo, 556225
1, 12960, Note_on_c, 0, 62, 0
1, 12960, Note_on_c, 0, 72, 0
1, 12960, Note_on_c, 0, 71, 50
1, 12960, Note_on_c, 0, 55, 30
1, 13080, Note_on_c, 0, 71, 0
1, 13200, Tempo, 535666
1, 13200, Note_on_c, 0, 55, 0
1, 13200, Note_on_c, 0, 67, 43
1, 13200, Note_on_c, 0, 59, 25
1, 13320, Note_on_c, 0, 67, 0
1, 13320, Note_on_c, 0, 69, 40
1, 13440, Tempo, 524843
1, 13440, Note_on_c, 0, 69, 0
1, 13440, Note_on_c, 0, 59, 0
1, 13440, Note_on_c, 0, 71, 43
1, 13440, Note_on_c, 0, 62, 24
1, 13560, Note_on_c, 0, 71, 0
1, 13560, Note_on_c, 0, 67, 42
1, 13680, Tempo, 573669
1, 13680, Note_on_c, 0, 67, 0
1, 13680, Note_on_c, 0, 62, 0
1, 13680, Note_on_c, 0, 69, 46
1, 13680, Note_on_c, 0, 54, 30
1, 13800, Note_on_c, 0, 69, 0
1, 13920, Tempo, 560276
1, 13920, Note_on_c, 0, 54, 0
1, 13920, Note_on_c, 0, 57, 25
1, 14160, Tempo, 558607
1, 14160, Note_on_c, 0, 57, 0
1, 14160, Note_on_c, 0, 62, 21
1, 14400, Tempo, 535666
1, 14400, Note_on_c, 0, 62, 0
1, 14400, Note_on_c, 0, 79, 50
1, 14400, Note_on_c, 0, 55, 30
1, 14520, Note_on_c, 0, 79, 0
1, 14640, Note_on_c, 0, 55, 0
1, 14640, Note_on_c, 0, 79, 50
1, 14640, Note_on_c, 0, 59, 29
1, 14760, Note_on_c, 0, 79, 0
1, 14880, Tempo, 551521
1, 14880, Note_on_c, 0, 59, 0
1, 14880, Note_on_c, 0, 79, 50
1, 14880, Note_on_c, 0, 62, 31
1, 15000, Note_on_c, 0, 79, 0
1, 15096, Tempo, 527009
1, 15120, Note_on_c, 0, 62, 0
1, 15120, Note_on_c, 0, 81, 56
1, 15120, Note_on_c, 0, 54, 36
1, 15192, Tempo, 529147
1, 15240, Note_on_c, 0, 81, 0
1, 15240, Note_on_c, 0, 79, 50
1, 15288, Tempo, 531303
1, 15360, Note_on_c, 0, 79, 0
1, 15360, Note_on_c, 0, 54, 0
1, 15360, Note_on_c, 0, 78, 49
1, 15360, Note_on_c, 0, 57, 30
1, 15384, Tempo, 533476
1, 15480, Tempo, 535666
1, 15480, Note_on_c, 0, 78, 0
1, 15480, Note_on_c, 0, 76, 48
1, 15576, Tempo, 537875
1, 15600, Note_on_c, 0, 76, 0
1, 15600, Note_on_c, 0, 57, 0
1, 15600, Note_on_c, 0, 74, 47
1, 15600, Note_on_c, 0, 62, 30
1, 15672, Tempo, 540103
1, 15720, Note_on_c, 0, 74, 0
1, 15720, Note_on_c, 0, 72, 46
1, 15768, Tempo, 542348
1, 15840, Tempo, 558607
1, 15840, Note_on_c, 0, 72, 0
1, 15840, Note_on_c, 0, 62, 0
1, 15840, Note_on_c, 0, 71, 50
1, 15840, Note_on_c, 0, 55, 30
1, 15960, Note_on_c, 0, 71, 0
1, 16080, Tempo, 540103
1, 16080, Note_on_c, 0, 55, 0
1, 16080, Note_on_c, 0, 67, 43
1, 16080, Note_on_c, 0, 59, 25
1, 16200, Note_on_c, 0, 67, 0
1, 16200, Note_on_c, 0, 69, 40
1, 16320, Note_on_c, 0, 69, 0
1, 16320, Note_on_c, 0, 59, 0
1, 16320, Note_on_c, 0, 71, 43
1, 16320, Note_on_c, 0, 62, 24
1, 16440, Note_on_c, 0, 71, 0
1, 16440, Note_on_c, 0, 67, 42
1, 16560, Tempo, 560276
1, 16560, Note_on_c, 0, 67, 0
1, 16560, Note_on_c, 0, 62, 0
1, 16560, Note_on_c, 0, 69, 46
1, 16560, Note_on_c, 0, 54, 30
1, 16680, Note_on_c, 0, 69, 0
1, 16800, Note_on_c, 0, 54, 0
1, 16800, Note_on_c, 0, 57, 25
1, 17040, Note_on_c, 0, 57, 0
1, 17040, Note_on_c, 0, 62, 23
1, 17280, Tempo, 540103
1, 17280, Note_on_c, 0, 62, 0
1, 17280, Note_on_c, 0, 60, 30
1, 17400, Note_on_c, 0, 64, 40
1, 17448, Tempo, 553863
1, 17520, Tempo, 551521
1, 17520, Note_on_c, 0, 64, 0
1, 17520, Note_on_c, 0, 66, 44
1, 17568, Tempo, 549199
1, 17616, Tempo, 546896
1, 17640, Note_on_c, 0, 66, 0
1, 17640, Note_on_c, 0, 68, 47
1, 17664, Tempo, 544613
1, 17736, Tempo, 542348
1, 17760, Note_on_c, 0, 68, 0
1, 17760, Note_on_c, 0, 69, 49
1, 17784, Tempo, 540103
1, 17832, Tempo, 537875
1, 17880, Tempo, 535666
1, 17880, Note_on_c, 0, 69, 0
1, 17880, Note_on_c, 0, 71, 53
1, 17928, Tempo, 533476
1, 18000, Tempo, 537875
1, 18000, Note_on_c, 0, 71, 0
1, 18000, Note_on_c, 0, 60, 0
1, 18000, Note_on_c, 0, 72, 55
1, 18120, Tempo, 591599
1, 18120, Note_on_c, 0, 72, 0
1, 18120, Note_on_c, 0, 74, 58
1, 18240, Tempo, 570885
1, 18240, Note_on_c, 0, 74, 0
1, 18240, Note_on_c, 0, 76, 66
1, 18240, Note_on_c, 0, 60, 30
1, 18360, Note_on_c, 0, 60, 0
1, 18360, Note_on_c, 0, 76, 0
1, 18480, Note_on_c, 0, 76, 53
1, 18480, Note_on_c, 0, 60, 28
1, 18600, Note_on_c, 0, 60, 0
1, 18600, Note_on_c, 0, 76, 0
1, 18720, Tempo, 537875
1, 18720, Note_on_c, 0, 59, 30
1, 18840, Note_on_c, 0, 62, 40
1, 18864, Tempo, 553863
1, 18936, Tempo, 551521
1, 18960, Note_on_c, 0, 62, 0
1, 18960, Note_on_c, 0, 64, 44
1, 19008, Tempo, 549199
1, 19080, Tempo, 546896
1, 19080, Note_on_c, 0, 64, 0
1, 19080, Note_on_c, 0, 66, 47
1, 19152, Tempo, 544613
1, 19200, Note_on_c, 0, 66, 0
1, 19200, Note_on_c, 0, 67, 49
1, 19224, Tempo, 542348
1, 19296, Tempo, 540103
1, 19320, Note_on_c, 0, 67, 0
1, 19320, Note_on_c, 0, 69, 50
1, 19368, Tempo, 537875
1, 19416, Tempo, 535666
1, 19440, Tempo, 542348
1, 19440, Note_on_c, 0, 69, 0
1, 19440, Note_on_c, 0, 59, 0
1, 19440, Note_on_c, 0, 71, 52
1, 19560, Note_on_c, 0, 71, 0
1, 19560, Note_on_c, 0, 72, 53
1, 19680, Tempo, 553863
1, 19680, Note_on_c, 0, 72, 0
1, 19680, Note_on_c, 0, 74, 58
1, 19680, Note_on_c, 0, 59, 35
1, 19800, Note_on_c, 0, 59, 0
1, 19800, Note_on_c, 0, 74, 0
1, 19800, Note_on_c, 0, 76, 58
1, 19920, Tempo, 573394
1, 19920, Note_on_c, 0, 76, 0
1, 19920, Note_on_c, 0, 78, 53
1, 19920, Note_on_c, 0, 59, 37
1, 20040, Tempo, 619771
1, 20040, Note_on_c, 0, 59, 0
1, 20040, Note_on_c, 0, 78, 0
1, 20040, Note_on_c, 0, 79, 53
1, 20160, Tempo, 558607
1, 20160, Note_on_c, 0, 79, 0
1, 20160, Note_on_c, 0, 78, 62
1, 20160, Note_on_c, 0, 48, 46
1, 20280, Note_on_c, 0, 78, 0
1, 20280, Note_on_c, 0, 76, 57
1, 20400, Note_on_c, 0, 76, 0
1, 20400, Note_on_c, 0, 48, 0
1, 20400, Note_on_c, 0, 74, 54
1, 20400, Note_on_c, 0, 60, 30
1, 20520, Note_on_c, 0, 60, 0
1, 20520, Note_on_c, 0, 74, 0
1, 20520, Note_on_c, 0, 72, 51
1, 20640, Note_on_c, 0, 72, 0
1, 20640, Note_on_c, 0, 71, 50
1, 20640, Note_on_c, 0, 60, 30
1, 20760, Tempo, 594295
1, 20760, Note_on_c, 0, 60, 0
1, 20760, Note_on_c, 0, 71, 0
1, 20760, Note_on_c, 0, 69, 48
1, 20880, Tempo, 551521
1, 20880, Note_on_c, 0, 69, 0
1, 20880, Note_on_c, 0, 67, 54
1, 20880, Note_on_c, 0, 50, 45
1, 21120, Note_on_c, 0, 50, 0
1, 21120, Note_on_c, 0, 62, 30
1, 21240, Note_on_c, 0, 62, 0
1, 21360, Tempo, 575926
1, 21360, Note_on_c, 0, 67, 0
1, 21360, Note_on_c, 0, 71, 51
1, 21360, Note_on_c, 0, 62, 30
1, 21480, Note_on_c, 0, 62, 0
1, 21480, Note_on_c, 0, 71, 0
1, 21480, Note_on_c, 0, 69, 45
1, 21600, Tempo, 551521
1, 21600, Note_on_c, 0, 69, 0
1, 21600, Note_on_c, 0, 67, 50
1, 21600, Note_on_c, 0, 55, 41
1, 21840, Note_on_c, 0, 55, 0
1, 21840, Note_on_c, 0, 59, 32
1, 22080, Tempo, 576424
1, 22080, Note_on_c, 0, 59, 0
1, 22080, Note_on_c, 0, 67, 0
1, 22080, Note_on_c, 0, 62, 32
1, 22320, Tempo, 562905
1, 22320, Note_on_c, 0, 62, 0
1, 22320, Note_on_c, 0, 86, 73
1, 22320, Note_on_c, 0, 55, 48
1, 22377, Control_c, 0, 64, 127
1, 22560, Tempo, 547495
1, 22560, Note_on_c, 0, 55, 0
1, 22560, Note_on_c, 0, 59, 38
1, 22680, Note_on_c, 0, 86, 0
1, 22680, Note_on_c, 0, 83, 43
1, 22800, Tempo, 532907
1, 22800, Note_on_c, 0, 83, 0
1, 22800, Note_on_c, 0, 59, 0
1, 22800, Note_on_c, 0, 86, 50
1, 22800, Note_on_c, 0, 62, 38
1, 22920, Note_on_c, 0, 86, 0
1, 22920, Note_on_c, 0, 83, 43
1, 23040, Tempo, 565558
1, 23040, Note_on_c, 0, 83, 0
1, 23040, Note_on_c, 0, 62, 0
1, 23040, Note_on_c, 0, 79, 58
1, 23040, Note_on_c, 0, 55, 45
1, 23062, Control_c, 0, 64, 0
1, 23160, Note_on_c, 0, 79, 0
1, 23280, Note_on_c, 0, 55, 0
1, 23280, Note_on_c, 0, 79, 50
1, 23280, Note_on_c, 0, 59, 40
1, 23400, Note_on_c, 0, 79, 0
1, 23520, Note_on_c, 0, 59, 0
1, 23520, Note_on_c, 0, 79, 50
1, 23520, Note_on_c, 0, 62, 41
1, 23640, Note_on_c, 0, 79, 0
1, 23760, Tempo, 562905
1, 23760, Note_on_c, 0, 62, 0
1, 23760, Note_on_c, 0, 83, 66
1, 23760, Note_on_c, 0, 55, 48
1, 23831, Control_c, 0, 64, 127
1, 23880, Tempo, 547495
1, 24000, Note_on_c, 0, 55, 0
1, 24000, Note_on_c, 0, 59, 38
1, 24120, Note_on_c, 0, 83, 0
1, 24120, Note_on_c, 0, 79, 43
1, 24240, Tempo, 532907
1, 24240, Note_on_c, 0, 79, 0
1, 24240, Note_on_c, 0, 59, 0
1, 24240, Note_on_c, 0, 83, 50
1, 24240, Note_on_c, 0, 62, 38
1, 24360, Note_on_c, 0, 83, 0
1, 24360, Note_on_c, 0, 79, 43
1, 24480, Tempo, 562905
1, 24480, Note_on_c, 0, 79, 0
1, 24480, Note_on_c, 0, 62, 0
1, 24480, Note_on_c, 0, 76, 58
1, 24480, Note_on_c, 0, 55, 45
1, 24486, Control_c, 0, 64, 0
1, 24600, Note_on_c, 0, 76, 0
1, 24720, Note_on_c, 0, 55, 0
1, 24720, Note_on_c, 0, 76, 50
1, 24720, Note_on_c, 0, 61, 40
1, 24840, Note_on_c, 0, 76, 0
1, 24960, Note_on_c, 0, 61, 0
1, 24960, Note_on_c, 0, 76, 50
1, 24960, Note_on_c, 0, 64, 41
1, 25080, Note_on_c, 0, 76, 0
1, 25200, Tempo, 550005
1, 25200, Note_on_c, 0, 64, 0
1, 25200, Note_on_c, 0, 78, 58
1, 25200, Note_on_c, 0, 55, 45
1, 25320, Note_on_c, 0, 78, 0
1, 25320, Note_on_c, 0, 76, 49
1, 25440, Note_on_c, 0, 76, 0
1, 25440, Note_on_c, 0, 55, 0
1, 25440, Note_on_c, 0, 75, 53
1, 25440, Note_on_c, 0, 61, 40
1, 25560, Note_on_c, 0, 75, 0
1, 25560, Note_on_c, 0, 76, 48
1, 25680, Tempo, 555093
1, 25680, Note_on_c, 0, 76, 0
1, 25680, Note_on_c, 0, 61, 0
1, 25680, Note_on_c, 0, 78, 53
1, 25680, Note_on_c, 0, 64, 41
1, 25800, Tempo, 605510
1, 25800, Note_on_c, 0, 78, 0
1, 25800, Note_on_c, 0, 79, 49
1, 25920, Tempo, 550005
1, 25920, Note_on_c, 0, 79, 0
1, 25920, Note_on_c, 0, 64, 0
1, 25920, Note_on_c, 0, 83, 63
1, 25920, Note_on_c, 0, 54, 45
1, 26040, Note_on_c, 0, 83, 0
1, 26040, Note_on_c, 0, 81, 61
1, 26160, Note_on_c, 0, 81, 0
1, 26160, Note_on_c, 0, 54, 0
1, 26160, Note_on_c, 0, 79, 61
1, 26160, Note_on_c, 0, 57, 40
1, 26280, Note_on_c, 0, 79, 0
1, 26280, Note_on_c, 0, 78, 58
1, 26400, Note_on_c, 0, 78, 0
1, 26400, Note_on_c, 0, 57, 0
1, 26400, Note_on_c, 0, 76, 56
1, 26400, Note_on_c, 0, 62, 41
1, 26520, Note_on_c, 0, 76, 0
1, 26520, Note_on_c, 0, 74, 56
1, 26640, Note_on_c, 0, 74, 0
1, 26640, Note_on_c, 0, 62, 0
1, 26640, Note_on_c, 0, 73, 54
1, 26640, Note_on_c, 0, 54, 41
1, 26691, Tempo, 550005
1, 26760, Note_on_c, 0, 73, 0
1, 26760, Note_on_c, 0, 71, 50
1, 26763, Tempo, 552537
1, 26835, Tempo, 555093
1, 26880, Note_on_c, 0, 71, 0
1, 26880, Note_on_c, 0, 69, 49
1, 26907, Tempo, 557673
1, 26979, Tempo, 560276
1, 27000, Note_on_c, 0, 69, 0
1, 27000, Note_on_c, 0, 67, 48
1, 27027, Tempo, 562905
1, 27051, Tempo, 565558
1, 27075, Tempo, 568236
1, 27099, Tempo, 570939
1, 27120, Note_on_c, 0, 67, 0
1, 27120, Note_on_c, 0, 54, 0
1, 27120, Note_on_c, 0, 66, 46
1, 27120, Note_on_c, 0, 56, 32
1, 27123, Tempo, 573669
1, 27147, Tempo, 576424
1, 27171, Tempo, 579206
1, 27195, Tempo, 582016
1, 27219, Tempo, 584852
1, 27240, Note_on_c, 0, 66, 0
1, 27240, Note_on_c, 0, 64, 43
1, 27243, Tempo, 587717
1, 27267, Tempo, 590609
1, 27291, Tempo, 593531
1, 27315, Tempo, 596481
1, 27339, Tempo, 602470
1, 27360, Tempo, 576424
1, 27360, Note_on_c, 0, 64, 0
1, 27360, Note_on_c, 0, 56, 0
1, 27360, Note_on_c, 0, 62, 51
1, 27360, Note_on_c, 0, 45, 39
1, 27600, Note_on_c, 0, 45, 0
1, 27600, Note_on_c, 0, 57, 33
1, 27720, Note_on_c, 0, 57, 0
1, 27840, Note_on_c, 0, 62, 0
1, 27840, Note_on_c, 0, 61, 41
1, 27840, Note_on_c, 0, 57, 29
1, 27960, Note_on_c, 0, 57, 0
1, 28080, Tempo, 568236
1, 28080, Note_on_c, 0, 61, 0
1, 28080, Note_on_c, 0, 57, 31
1, 28200, Note_on_c, 0, 57, 0
1, 28320, Note_on_c, 0, 57, 25
1, 28440, Note_on_c, 0, 57, 0
1, 28560, Note_on_c, 0, 57, 25
1, 28680, Note_on_c, 0, 57, 0
1, 28800, Tempo, 584852
1, 28800, Note_on_c, 0, 66, 48
1, 28800, Note_on_c, 0, 62, 31
1, 29040, Tempo, 562905
1, 29040, Note_on_c, 0, 62, 0
1, 29040, Note_on_c, 0, 57, 23
1, 29160, Note_on_c, 0, 57, 0
1, 29280, Note_on_c, 0, 66, 0
1, 29280, Note_on_c, 0, 69, 43
1, 29280, Note_on_c, 0, 57, 23
1, 29400, Note_on_c, 0, 57, 0
1, 29520, Tempo, 576424
1, 29520, Note_on_c, 0, 69, 0
1, 29520, Note_on_c, 0, 64, 48
1, 29520, Note_on_c, 0, 61, 31
1, 29760, Tempo, 557673
1, 29760, Note_on_c, 0, 61, 0
1, 29760, Note_on_c, 0, 57, 23
1, 29880, Note_on_c, 0, 57, 0
1, 30000, Note_on_c, 0, 64, 0
1, 30000, Note_on_c, 0, 69, 45
1, 30000, Note_on_c, 0, 57, 23
1, 30120, Note_on_c, 0, 57, 0
1, 30240, Tempo, 570939
1, 30240, Note_on_c, 0, 69, 0
1, 30240, Note_on_c, 0, 67, 48
1, 30240, Note_on_c, 0, 62, 31
1, 30480, Tempo, 557673
1, 30480, Note_on_c, 0, 62, 0
1, 30480, Note_on_c, 0, 57, 26
1, 30600, Note_on_c, 0, 57, 0
1, 30720, Note_on_c, 0, 67, 0
1, 30720, Note_on_c, 0, 66, 42
1, 30720, Note_on_c, 0, 57, 26
1, 30840, Note_on_c, 0, 57, 0
1, 30960, Tempo, 573669
1, 30960, Note_on_c, 0, 66, 0
1, 30960, Note_on_c, 0, 64, 49
1, 30960, Note_on_c, 0, 61, 31
1, 31200, Tempo, 557673
1, 31200, Note_on_c, 0, 61, 0
1, 31200, Note_on_c, 0, 64, 0
1, 31200, Note_on_c, 0, 57, 24
1, 31320, Note_on_c, 0, 57, 0
1, 31440, Note_on_c, 0, 57, 24
1, 31560, Note_on_c, 0, 57, 0
1, 31680, Tempo, 584852
1, 31680, Note_on_c, 0, 66, 48
1, 31680, Note_on_c, 0, 62, 31
1, 31920, Tempo, 562905
1, 31920, Note_on_c, 0, 62, 0
1, 31920, Note_on_c, 0, 57, 23
1, 32040, Note_on_c, 0, 57, 0
1, 32160, Tempo, 545009
1, 32160, Note_on_c, 0, 66, 0
1, 32160, Note_on_c, 0, 71, 43
1, 32160, Note_on_c, 0, 57, 23
1, 32280, Tempo, 596481
1, 32280, Note_on_c, 0, 57, 0
1, 32280, Note_on_c, 0, 71, 0
1, 32280, Note_on_c, 0, 69, 40
1, 32400, Tempo, 576424
1, 32400, Note_on_c, 0, 69, 0
1, 32400, Note_on_c, 0, 64, 48
1, 32400, Note_on_c, 0, 61, 31
1, 32640, Tempo, 557673
1, 32640, Note_on_c, 0, 61, 0
1, 32640, Note_on_c, 0, 57, 23
1, 32760, Note_on_c, 0, 57, 0
1, 32880, Tempo, 537683
1, 32880, Note_on_c, 0, 64, 0
1, 32880, Note_on_c, 0, 71, 45
1, 32880, Note_on_c, 0, 57, 23
1, 33000, Tempo, 596481
1, 33000, Note_on_c, 0, 57, 0
1, 33000, Note_on_c, 0, 71, 0
1, 33000, Note_on_c, 0, 69, 41
1, 33120, Tempo, 570939
1, 33120, Note_on_c, 0, 69, 0
1, 33120, Note_on_c, 0, 67, 48
1, 33120, Note_on_c, 0, 62, 31
1, 33360, Tempo, 557673
1, 33360, Note_on_c, 0, 62, 0
1, 33360, Note_on_c, 0, 57, 26
1, 33480, Note_on_c, 0, 57, 0
1, 33600, Note_on_c, 0, 67, 0
1, 33600, Note_on_c, 0, 66, 42
1, 33600, Note_on_c, 0, 57, 26
1, 33720, Note_on_c, 0, 57, 0
1, 33840, Tempo, 573669
1, 33840, Note_on_c, 0, 66, 0
1, 33840, Note_on_c, 0, 64, 49
1, 33840, Note_on_c, 0, 61, 31
1, 34080, Tempo, 557673
1, 34080, Note_on_c, 0, 61, 0
1, 34080, Note_on_c, 0, 64, 0
1, 34080, Note_on_c, 0, 57, 24
1, 34200, Note_on_c, 0, 57, 0
1, 34320, Note_on_c, 0, 57, 24
1, 34440, Note_on_c, 0, 57, 0
1, 34560, Note_on_c, 0, 50, 58
1, 34560, Note_on_c, 0, 54, 58
1, 34560, Note_on_c, 0, 57, 69
1, 34680, Tempo, 542545
1, 34680, Note_on_c, 0, 74, 63
1, 34800, Note_on_c, 0, 74, 0
1, 34800, Note_on_c, 0, 73, 68
1, 34920, Note_on_c, 0, 73, 0
1, 34920, Note_on_c, 0, 74, 64
1, 35040, Note_on_c, 0, 74, 0
1, 35040, Note_on_c, 0, 76, 68
1, 35160, Tempo, 596481
1, 35160, Note_on_c, 0, 76, 0
1, 35160, Note_on_c, 0, 74, 62
1, 35280, Tempo, 545009
1, 35280, Note_on_c, 0, 74, 0
1, 35280, Note_on_c, 0, 50, 0
1, 35280, Note_on_c, 0, 54, 0
1, 35280, Note_on_c, 0, 57, 0
1, 35280, Note_on_c, 0, 71, 68
1, 35280, Note_on_c, 0, 55, 56
1, 35400, Note_on_c, 0, 55, 0
1, 35400, Note_on_c, 0, 71, 0
1, 35400, Note_on_c, 0, 74, 62
1, 35520, Note_on_c, 0, 74, 0
1, 35520, Note_on_c, 0, 69, 68
1, 35520, Note_on_c, 0, 57, 52
1, 35640, Note_on_c, 0, 57, 0
1, 35640, Note_on_c, 0, 69, 0
1, 35640, Note_on_c, 0, 74, 63
1, 35760, Note_on_c, 0, 74, 0
1, 35760, Note_on_c, 0, 67, 68
1, 35760, Note_on_c, 0, 59, 52
1, 35880, Tempo, 611683
1, 35880, Note_on_c, 0, 59, 0
1, 35880, Note_on_c, 0, 67, 0
1, 35880, Note_on_c, 0, 74, 62
1, 36000, Tempo, 557673
1, 36000, Note_on_c, 0, 74, 0
1, 36000, Note_on_c, 0, 50, 58
1, 36000, Note_on_c, 0, 54, 58
1, 36000, Note_on_c, 0, 57, 69
1, 36120, Tempo, 542545
1, 36120, Note_on_c, 0, 74, 63
1, 36240, Note_on_c, 0, 74, 0
1, 36240, Note_on_c, 0, 73, 68
1, 36360, Note_on_c, 0, 73, 0
1, 36360, Note_on_c, 0, 74, 64
1, 36480, Note_on_c, 0, 74, 0
1, 36480, Note_on_c, 0, 76, 68
1, 36600, Tempo, 596481
1, 36600, Note_on_c, 0, 76, 0
1, 36600, Note_on_c, 0, 74, 62
1, 36720, Tempo, 545009
1, 36720, Note_on_c, 0, 74, 0
1, 36720, Note_on_c, 0, 50, 0
1, 36720, Note_on_c, 0, 54, 0
1, 36720, Note_on_c, 0, 57, 0
1, 36720, Note_on_c, 0, 71, 68
1, 36720, Note_on_c, 0, 56, 56
1, 36840, Note_on_c, 0, 56, 0
1, 36840, Note_on_c, 0, 71, 0
1, 36840, Note_on_c, 0, 74, 62
1, 36960, Note_on_c, 0, 74, 0
1, 36960, Note_on_c, 0, 69, 68
1, 36960, Note_on_c, 0, 57, 52
1, 37080, Note_on_c, 0, 57, 0
1, 37080, Note_on_c, 0, 69, 0
1, 37080, Note_on_c, 0, 74, 63
1, 37200, Note_on_c, 0, 74, 0
1, 37200, Note_on_c, 0, 68, 68
1, 37200, Note_on_c, 0, 59, 52
1, 37320, Tempo, 611683
1, 37320, Note_on_c, 0, 59, 0
1, 37320, Note_on_c, 0, 68, 0
1, 37320, Note_on_c, 0, 74, 62
1, 37440, Tempo, 573669
1, 37440, Note_on_c, 0, 74, 0
1, 37440, Note_on_c, 0, 69, 68
1, 37440, Note_on_c, 0, 45, 56
1, 37511, Control_c, 0, 64, 127
1, 37560, Note_on_c, 0, 45, 0
1, 37560, Note_on_c, 0, 57, 51
1, 37680, Tempo, 562905
1, 37680, Note_on_c, 0, 57, 0
1, 37680, Note_on_c, 0, 69, 0
1, 37680, Note_on_c, 0, 74, 73
1, 37680, Note_on_c, 0, 45, 56
1, 37800, Note_on_c, 0, 45, 0
1, 37800, Note_on_c, 0, 57, 51
1, 37920, Tempo, 587717
1, 37920, Note_on_c, 0, 57, 0
1, 37920, Note_on_c, 0, 74, 0
1, 37920, Note_on_c, 0, 66, 64
1, 37920, Note_on_c, 0, 45, 56
1, 38040, Note_on_c, 0, 45, 0
1, 38040, Note_on_c, 0, 57, 53
1, 38160, Tempo, 576424
1, 38160, Note_on_c, 0, 57, 0
1, 38160, Note_on_c, 0, 66, 0
1, 38160, Note_on_c, 0, 64, 51
1, 38160, Note_on_c, 0, 45, 56
1, 38164, Tempo, 602470
1, 38168, Control_c, 0, 64, 0
1, 38199, Control_c, 0, 64, 127
1, 38212, Tempo, 599460
1, 38220, Note_on_c, 0, 64, 0
1, 38220, Note_on_c, 0, 66, 49
1, 38236, Tempo, 596481
1, 38260, Tempo, 593531
1, 38280, Note_on_c, 0, 66, 0
1, 38280, Note_on_c, 0, 45, 0
1, 38280, Note_on_c, 0, 64, 58
1, 38280, Note_on_c, 0, 57, 50
1, 38284, Tempo, 590609
1, 38308, Tempo, 587717
1, 38340, Note_on_c, 0, 64, 0
1, 38340, Note_on_c, 0, 66, 51
1, 38356, Tempo, 584852
1, 38380, Tempo, 582016
1, 38400, Note_on_c, 0, 66, 0
1, 38400, Note_on_c, 0, 57, 0
1, 38400, Note_on_c, 0, 64, 62
1, 38400, Note_on_c, 0, 45, 56
1, 38404, Tempo, 579206
1, 38428, Tempo, 576424
1, 38452, Tempo, 573669
1, 38460, Note_on_c, 0, 64, 0
1, 38460, Note_on_c, 0, 66, 55
1, 38476, Tempo, 570939
1, 38500, Tempo, 565558
1, 38520, Note_on_c, 0, 66, 0
1, 38520, Note_on_c, 0, 45, 0
1, 38520, Note_on_c, 0, 64, 63
1, 38520, Note_on_c, 0, 57, 50
1, 38524, Tempo, 562905
1, 38548, Tempo, 557673
1, 38572, Tempo, 555093
1, 38580, Note_on_c, 0, 64, 0
1, 38580, Note_on_c, 0, 66, 56
1, 38596, Tempo, 550005
1, 38620, Tempo, 545009
1, 38640, Note_on_c, 0, 66, 0
1, 38640, Note_on_c, 0, 57, 0
1, 38640, Note_on_c, 0, 64, 65
1, 38640, Note_on_c, 0, 45, 56
1, 38644, Tempo, 547495
1, 38668, Tempo, 550005
1, 38692, Tempo, 552537
1, 38716, Tempo, 555093
1, 38720, Note_on_c, 0, 64, 0
1, 38720, Note_on_c, 0, 62, 58
1, 38740, Tempo, 557673
1, 38760, Note_on_c, 0, 45, 0
1, 38760, Note_on_c, 0, 57, 50
1, 38764, Tempo, 560276
1, 38788, Tempo, 562905
1, 38800, Note_on_c, 0, 62, 0
1, 38800, Note_on_c, 0, 64, 60
1, 38812, Tempo, 565558
1, 38836, Tempo, 568236
1, 38859, Control_c, 0, 64, 0
1, 38860, Tempo, 573669
1, 38880, Note_on_c, 0, 64, 0
1, 38880, Note_on_c, 0, 57, 0
1, 38880, Note_on_c, 0, 62, 70
1, 38880, Note_on_c, 0, 50, 50
1, 38884, Tempo, 579206
1, 39120, Note_on_c, 0, 50, 0
1, 39120, Note_on_c, 0, 62, 0
1, 39120, Note_on_c, 0, 54, 46
1, 39360, Note_on_c, 0, 54, 0
1, 39360, Note_on_c, 0, 57, 46
1, 39480, Note_on_c, 0, 57, 0
1, 39600, Tempo, 590609
1, 39600, Note_on_c, 0, 57, 43
1, 39720, Note_on_c, 0, 57, 0
1, 39840, Tempo, 576424
1, 39840, Note_on_c, 0, 57, 39
1, 39960, Note_on_c, 0, 57, 0
1, 40080, Note_on_c, 0, 57, 38
1, 40200, Note_on_c, 0, 57, 0
1, 40320, Tempo, 584852
1, 40320, Note_on_c, 0, 66, 48
1, 40320, Note_on_c, 0, 62, 31
1, 40560, Tempo, 573669
1, 40560, Note_on_c, 0, 62, 0
1, 40560, Note_on_c, 0, 57, 23
1, 40680, Note_on_c, 0, 57, 0
1, 40800, Tempo, 545009
1, 40800, Note_on_c, 0, 66, 0
1, 40800, Note_on_c, 0, 71, 43
1, 40800, Note_on_c, 0, 57, 23
1, 40920, Tempo, 596481
1, 40920, Note_on_c, 0, 57, 0
1, 40920, Note_on_c, 0, 71, 0
1, 40920, Note_on_c, 0, 69, 40
1, 41040, Tempo, 576424
1, 41040, Note_on_c, 0, 69, 0
1, 41040, Note_on_c, 0, 64, 48
1, 41040, Note_on_c, 0, 61, 31
1, 41280, Tempo, 557673
1, 41280, Note_on_c, 0, 61, 0
1, 41280, Note_on_c, 0, 57, 23
1, 41400, Note_on_c, 0, 57, 0
1, 41520, Tempo, 537683
1, 41520, Note_on_c, 0, 64, 0
1, 41520, Note_on_c, 0, 71, 45
1, 41520, Note_on_c, 0, 57, 23
1, 41640, Tempo, 596481
1, 41640, Note_on_c, 0, 57, 0
1, 41640, Note_on_c, 0, 71, 0
1, 41640, Note_on_c, 0, 69, 41
1, 41760, Note_on_c, 0, 69, 0
1, 41760, Note_on_c, 0, 67, 48
1, 41760, Note_on_c, 0, 62, 31
1, 42000, Tempo, 557673
1, 42000, Note_on_c, 0, 62, 0
1, 42000, Note_on_c, 0, 57, 26
1, 42120, Note_on_c, 0, 57, 0
1, 42240, Note_on_c, 0, 67, 0
1, 42240, Note_on_c, 0, 66, 42
1, 42240, Note_on_c, 0, 57, 26
1, 42360, Note_on_c, 0, 57, 0
1, 42480, Tempo, 573669
1, 42480, Note_on_c, 0, 66, 0
1, 42480, Note_on_c, 0, 64, 49
1, 42480, Note_on_c, 0, 61, 31
1, 42720, Tempo, 557673
1, 42720, Note_on_c, 0, 61, 0
1, 42720, Note_on_c, 0, 64, 0
1, 42720, Note_on_c, 0, 57, 24
1, 42840, Note_on_c, 0, 57, 0
1, 42960, Note_on_c, 0, 57, 24
1, 43080, Note_on_c, 0, 57, 0
1, 43200, Tempo, 583147
1, 43200, Note_on_c, 0, 66, 48
1, 43200, Note_on_c, 0, 62, 31
1, 43320, Tempo, 568236
1, 43320, Note_on_c, 0, 66, 0
1, 43320, Note_on_c, 0, 69, 39
1, 43440, Tempo, 562905
1, 43440, Note_on_c, 0, 69, 0
1, 43440, Note_on_c, 0, 62, 0
1, 43440, Note_on_c, 0, 68, 42
1, 43440, Note_on_c, 0, 57, 23
1, 43560, Note_on_c, 0, 57, 0
1, 43560, Note_on_c, 0, 68, 0
1, 43560, Note_on_c, 0, 69, 38
1, 43680, Tempo, 540103
1, 43680, Note_on_c, 0, 69, 0
1, 43680, Note_on_c, 0, 71, 43
1, 43680, Note_on_c, 0, 57, 23
1, 43800, Tempo, 584852
1, 43800, Note_on_c, 0, 57, 0
1, 43800, Note_on_c, 0, 71, 0
1, 43800, Note_on_c, 0, 69, 40
1, 43920, Tempo, 580327
1, 43920, Note_on_c, 0, 69, 0
1, 43920, Note_on_c, 0, 64, 48
1, 43920, Note_on_c, 0, 61, 31
1, 44040, Tempo, 562905
1, 44040, Note_on_c, 0, 64, 0
1, 44040, Note_on_c, 0, 69, 39
1, 44160, Tempo, 557673
1, 44160, Note_on_c, 0, 69, 0
1, 44160, Note_on_c, 0, 61, 0
1, 44160, Note_on_c, 0, 68, 42
1, 44160, Note_on_c, 0, 57, 23
1, 44280, Note_on_c, 0, 57, 0
1, 44280, Note_on_c, 0, 68, 0
1, 44280, Note_on_c, 0, 69, 38
1, 44400, Tempo, 535284
1, 44400, Note_on_c, 0, 69, 0
1, 44400, Note_on_c, 0, 71, 45
1, 44400, Note_on_c, 0, 57, 23
1, 44520, Tempo, 587717
1, 44520, Note_on_c, 0, 57, 0
1, 44520, Note_on_c, 0, 71, 0
1, 44520, Note_on_c, 0, 69, 44
1, 44640, Tempo, 570939
1, 44640, Note_on_c, 0, 69, 0
1, 44640, Note_on_c, 0, 67, 48
1, 44640, Note_on_c, 0, 62, 31
1, 44880, Tempo, 557673
1, 44880, Note_on_c, 0, 62, 0
1, 44880, Note_on_c, 0, 57, 26
1, 45000, Note_on_c, 0, 57, 0
1, 45120, Note_on_c, 0, 67, 0
1, 45120, Note_on_c, 0, 66, 42
1, 45120, Note_on_c, 0, 57, 26
1, 45240, Note_on_c, 0, 57, 0
1, 45360, Tempo, 573669
1, 45360, Note_on_c, 0, 66, 0
1, 45360, Note_on_c, 0, 64, 49
1, 45360, Note_on_c, 0, 61, 31
1, 45600, Tempo, 557673
1, 45600, Note_on_c, 0, 61, 0
1, 45600, Note_on_c, 0, 64, 0
1, 45600, Note_on_c, 0, 57, 24
1, 45720, Note_on_c, 0, 57, 0
1, 45840, Note_on_c, 0, 57, 24
1, 45960, Note_on_c, 0, 57, 0
1, 46080, Note_on_c, 0, 50, 58
1, 46080, Note_on_c, 0, 54, 58
1, 46080, Note_on_c, 0, 57, 69
1, 46200, Tempo, 540103
1, 46200, Note_on_c, 0, 74, 63
1, 46320, Note_on_c, 0, 74, 0
1, 46320, Note_on_c, 0, 76, 68
1, 46440, Note_on_c, 0, 76, 0
1, 46440, Note_on_c, 0, 74, 64
1, 46560, Note_on_c, 0, 74, 0
1, 46560, Note_on_c, 0, 73, 68
1, 46680, Tempo, 596481
1, 46680, Note_on_c, 0, 73, 0
1, 46680, Note_on_c, 0, 74, 62
1, 46800, Tempo, 545009
1, 46800, Note_on_c, 0, 74, 0
1, 46800, Note_on_c, 0, 50, 0
1, 46800, Note_on_c, 0, 54, 0
1, 46800, Note_on_c, 0, 57, 0
1, 46800, Note_on_c, 0, 67, 68
1, 46800, Note_on_c, 0, 59, 56
1, 46920, Note_on_c, 0, 59, 0
1, 46920, Note_on_c, 0, 67, 0
1, 46920, Note_on_c, 0, 74, 62
1, 47040, Note_on_c, 0, 74, 0
1, 47040, Note_on_c, 0, 69, 68
1, 47040, Note_on_c, 0, 57, 52
1, 47160, Note_on_c, 0, 57, 0
1, 47160, Note_on_c, 0, 69, 0
1, 47160, Note_on_c, 0, 74, 63
1, 47280, Note_on_c, 0, 74, 0
1, 47280, Note_on_c, 0, 71, 68
1, 47280, Note_on_c, 0, 55, 52
1, 47400, Tempo, 611683
1, 47400, Note_on_c, 0, 55, 0
1, 47400, Note_on_c, 0, 71, 0
1, 47400, Note_on_c, 0, 74, 62
1, 47520, Tempo, 557673
1, 47520, Note_on_c, 0, 74, 0
1, 47520, Note_on_c, 0, 50, 58
1, 47520, Note_on_c, 0, 54, 58
1, 47520, Note_on_c, 0, 57, 69
1, 47640, Tempo, 540103
1, 47640, Note_on_c, 0, 74, 63
1, 47760, Note_on_c, 0, 74, 0
1, 47760, Note_on_c, 0, 76, 68
1, 47880, Note_on_c, 0, 76, 0
1, 47880, Note_on_c, 0, 74, 64
1, 48000, Note_on_c, 0, 74, 0
1, 48000, Note_on_c, 0, 73, 68
1, 48120, Tempo, 596481
1, 48120, Note_on_c, 0, 73, 0
1, 48120, Note_on_c, 0, 74, 62
1, 48240, Tempo, 545009
1, 48240, Note_on_c, 0, 74, 0
1, 48240, Note_on_c, 0, 50, 0
1, 48240, Note_on_c, 0, 54, 0
1, 48240, Note_on_c, 0, 57, 0
1, 48240, Note_on_c, 0, 68, 68
1, 48240, Note_on_c, 0, 59, 56
1, 48360, Note_on_c, 0, 59, 0
1, 48360, Note_on_c, 0, 68, 0
1, 48360, Note_on_c, 0, 74, 62
1, 48480, Note_on_c, 0, 74, 0
1, 48480, Note_on_c, 0, 69, 68
1, 48480, Note_on_c, 0, 57, 52
1, 48600, Note_on_c, 0, 57, 0
1, 48600, Note_on_c, 0, 69, 0
1, 48600, Note_on_c, 0, 74, 63
1, 48720, Note_on_c, 0, 74, 0
1, 48720, Note_on_c, 0, 71, 68
1, 48720, Note_on_c, 0, 56, 52
1, 48840, Tempo, 611683
1, 48840, Note_on_c, 0, 56, 0
1, 48840, Note_on_c, 0, 71, 0
1, 48840, Note_on_c, 0, 74, 62
1, 48960, Tempo, 573669
1, 48960, Note_on_c, 0, 74, 0
1, 48960, Note_on_c, 0, 69, 68
1, 48960, Note_on_c, 0, 45, 56
1, 49031, Control_c, 0, 64, 127
1, 49080, Note_on_c, 0, 45, 0
1, 49080, Note_on_c, 0, 57, 51
1, 49200, Tempo, 562905
1, 49200, Note_on_c, 0, 57, 0
1, 49200, Note_on_c, 0, 69, 0
1, 49200, Note_on_c, 0, 74, 73
1, 49200, Note_on_c, 0, 45, 56
1, 49320, Note_on_c, 0, 45, 0
1, 49320, Note_on_c, 0, 57, 51
1, 49440, Tempo, 587717
1, 49440, Note_on_c, 0, 57, 0
1, 49440, Note_on_c, 0, 74, 0
1, 49440, Note_on_c, 0, 66, 64
1, 49440, Note_on_c, 0, 45, 56
1, 49560, Note_on_c, 0, 45, 0
1, 49560, Note_on_c, 0, 57, 53
1, 49680, Tempo, 547495
1, 49680, Note_on_c, 0, 57, 0
1, 49680, Note_on_c, 0, 66, 0
1, 49680, Note_on_c, 0, 69, 68
1, 49680, Note_on_c, 0, 45, 56
1, 49696, Control_c, 0, 64, 0
1, 49758, Control_c, 0, 64, 127
1, 49800, Note_on_c, 0, 45, 0
1, 49800, Note_on_c, 0, 57, 51
1, 49920, Note_on_c, 0, 57, 0
1, 49920, Note_on_c, 0, 69, 0
1, 49920, Note_on_c, 0, 67, 63
1, 49920, Note_on_c, 0, 45, 56
1, 50040, Note_on_c, 0, 45, 0
1, 50040, Note_on_c, 0, 57, 51
1, 50160, Tempo, 565558
1, 50160, Note_on_c, 0, 57, 0
1, 50160, Note_on_c, 0, 67, 0
1, 50160, Note_on_c, 0, 64, 68
1, 50160, Note_on_c, 0, 45, 56
1, 50176, Control_c, 0, 64, 0
1, 50252, Control_c, 0, 64, 127
1, 50280, Tempo, 596481
1, 50280, Note_on_c, 0, 45, 0
1, 50280, Note_on_c, 0, 64, 0
1, 50280, Note_on_c, 0, 66, 63
1, 50280, Note_on_c, 0, 57, 53
1, 50400, Tempo, 562905
1, 50400, Note_on_c, 0, 57, 0
1, 50400, Note_on_c, 0, 66, 0
1, 50400, Note_on_c, 0, 62, 68
1, 50400, Note_on_c, 0, 50, 36
1, 50420, Control_c, 0, 64, 0
1, 50427, Tempo, 568236
1, 50520, Note_on_c, 0, 62, 0
1, 50619, Tempo, 570939
1, 50640, Note_on_c, 0, 62, 54
1, 50760, Note_on_c, 0, 62, 0
1, 50787, Tempo, 573669
1, 50880, Note_on_c, 0, 62, 54
1, 50955, Tempo, 576424
1, 51000, Note_on_c, 0, 62, 0
1, 51099, Tempo, 582016
1, 51120, Note_on_c, 0, 50, 0
1, 51120, Note_on_c, 0, 64, 58
1, 51120, Note_on_c, 0, 61, 49
1, 51131, Tempo, 596481
1, 51179, Tempo, 599460
1, 51227, Tempo, 602470
1, 51240, Note_on_c, 0, 61, 0
1, 51240, Note_on_c, 0, 64, 0
1, 51275, Tempo, 605510
1, 51323, Tempo, 608581
1, 51360, Note_on_c, 0, 64, 43
1, 51360, Note_on_c, 0, 61, 36
1, 51371, Tempo, 611683
1, 51419, Tempo, 614817
1, 51467, Tempo, 617983
1, 51480, Note_on_c, 0, 61, 0
1, 51480, Note_on_c, 0, 64, 0
1, 51515, Tempo, 621182
1, 51563, Tempo, 624415
1, 51600, Note_on_c, 0, 64, 43
1, 51600, Note_on_c, 0, 61, 36
1, 51611, Tempo, 627681
1, 51659, Tempo, 630981
1, 51707, Tempo, 634317
1, 51720, Note_on_c, 0, 61, 0
1, 51720, Note_on_c, 0, 64, 0
1, 51755, Tempo, 637687
1, 51803, Tempo, 641094
1, 51840, Note_on_c, 0, 60, 42
1, 51840, Note_on_c, 0, 66, 50
1, 51840, Note_on_c, 0, 50, 27
1, 51851, Tempo, 644538
1, 51899, Tempo, 648018
1, 51923, Tempo, 651537
1, 51947, Tempo, 655093
1, 51960, Note_on_c, 0, 66, 0
1, 51960, Note_on_c, 0, 60, 0
1, 51971, Tempo, 658689
1, 51995, Tempo, 662325
1, 52019, Tempo, 666001
1, 52043, Tempo, 669718
1, 52067, Tempo, 673476
1, 52080, Note_on_c, 0, 66, 40
1, 52080, Note_on_c, 0, 60, 34
1, 52091, Tempo, 677277
1, 52115, Tempo, 681122
1, 52139, Tempo, 685010
1, 52163, Tempo, 688942
1, 52187, Tempo, 692921
1, 52200, Note_on_c, 0, 60, 0
1, 52200, Note_on_c, 0, 66, 0
1, 52211, Tempo, 696945
1, 52235, Tempo, 701016
1, 52259, Tempo, 705136
1, 52283, Tempo, 709304
1, 52320, Tempo, 592359
1, 52320, Note_on_c, 0, 66, 40
1, 52320, Note_on_c, 0, 60, 34
1, 52440, Note_on_c, 0, 60, 0
1, 52440, Note_on_c, 0, 66, 0
1, 52560, Tempo, 551521
1, 52560, Note_on_c, 0, 50, 0
1, 53280, Tempo, 579206
1, 53280, Note_on_c, 0, 67, 50
1, 53280, Note_on_c, 0, 55, 30
1, 53400, Note_on_c, 0, 67, 0
1, 53520, Tempo, 557673
1, 53520, Note_on_c, 0, 55, 0
1, 53520, Note_on_c, 0, 67, 43
1, 53520, Note_on_c, 0, 59, 29
1, 53640, Note_on_c, 0, 67, 0
1, 53760, Tempo, 568397
1, 53760, Note_on_c, 0, 59, 0
1, 53760, Note_on_c, 0, 67, 43
1, 53760, Note_on_c, 0, 62, 29
1, 53880, Note_on_c, 0, 67, 0
1, 54000, Tempo, 537875
1, 54000, Note_on_c, 0, 62, 0
1, 54000, Note_on_c, 0, 69, 46
1, 54000, Note_on_c, 0, 54, 30
1, 54240, Note_on_c, 0, 54, 0
1, 54240, Note_on_c, 0, 69, 0
1, 54240, Note_on_c, 0, 74, 50
1, 54240, Note_on_c, 0, 57, 26
1, 54480, Note_on_c, 0, 57, 0
1, 54480, Note_on_c, 0, 74, 0
1, 54480, Note_on_c, 0, 72, 47
1, 54480, Note_on_c, 0, 62, 26
1, 54720, Tempo, 556225
1, 54720, Note_on_c, 0, 62, 0
1, 54720, Note_on_c, 0, 72, 0
1, 54720, Note_on_c, 0, 71, 50
1, 54720, Note_on_c, 0, 55, 30
1, 54840, Note_on_c, 0, 71, 0
1, 54960, Tempo, 535666
1, 54960, Note_on_c, 0, 55, 0
1, 54960, Note_on_c, 0, 67, 43
1, 54960, Note_on_c, 0, 59, 25
1, 55080, Note_on_c, 0, 67, 0
1, 55080, Note_on_c, 0, 69, 40
1, 55200, Tempo, 524843
1, 55200, Note_on_c, 0, 69, 0
1, 55200, Note_on_c, 0, 59, 0
1, 55200, Note_on_c, 0, 71, 43
1, 55200, Note_on_c, 0, 62, 24
1, 55320, Note_on_c, 0, 71, 0
1, 55320, Note_on_c, 0, 67, 42
1, 55440, Tempo, 570939
1, 55440, Note_on_c, 0, 67, 0
1, 55440, Note_on_c, 0, 62, 0
1, 55440, Note_on_c, 0, 69, 46
1, 55440, Note_on_c, 0, 54, 30
1, 55560, Note_on_c, 0, 69, 0
1, 55680, Tempo, 552537
1, 55680, Note_on_c, 0, 54, 0
1, 55680, Note_on_c, 0, 57, 25
1, 55920, Tempo, 558607
1, 55920, Note_on_c, 0, 57, 0
1, 55920, Note_on_c, 0, 62, 21
1, 56160, Tempo, 535666
1, 56160, Note_on_c, 0, 62, 0
1, 56160, Note_on_c, 0, 79, 50
1, 56160, Note_on_c, 0, 55, 30
1, 56280, Note_on_c, 0, 79, 0
1, 56400, Note_on_c, 0, 55, 0
1, 56400, Note_on_c, 0, 79, 50
1, 56400, Note_on_c, 0, 59, 29
1, 56520, Note_on_c, 0, 79, 0
1, 56640, Tempo, 551521
1, 56640, Note_on_c, 0, 59, 0
1, 56640, Note_on_c, 0, 79, 50
1, 56640, Note_on_c, 0, 62, 31
1, 56760, Note_on_c, 0, 79, 0
1, 56856, Tempo, 527009
1, 56880, Note_on_c, 0, 62, 0
1, 56880, Note_on_c, 0, 81, 56
1, 56880, Note_on_c, 0, 54, 36
1, 56952, Tempo, 529147
1, 57000, Note_on_c, 0, 81, 0
1, 57000, Note_on_c, 0, 79, 50
1, 57048, Tempo, 531303
1, 57120, Note_on_c, 0, 79, 0
1, 57120, Note_on_c, 0, 54, 0
1, 57120, Note_on_c, 0, 78, 49
1, 57120, Note_on_c, 0, 57, 30
1, 57144, Tempo, 533476
1, 57240, Tempo, 535666
1, 57240, Note_on_c, 0, 78, 0
1, 57240, Note_on_c, 0, 76, 48
1, 57336, Tempo, 537875
1, 57360, Note_on_c, 0, 76, 0
1, 57360, Note_on_c, 0, 57, 0
1, 57360, Note_on_c, 0, 74, 47
1, 57360, Note_on_c, 0, 62, 30
1, 57432, Tempo, 540103
1, 57480, Note_on_c, 0, 74, 0
1, 57480, Note_on_c, 0, 72, 46
1, 57528, Tempo, 542348
1, 57600, Tempo, 558607
1, 57600, Note_on_c, 0, 72, 0
1, 57600, Note_on_c, 0, 62, 0
1, 57600, Note_on_c, 0, 71, 50
1, 57600, Note_on_c, 0, 55, 30
1, 57720, Note_on_c, 0, 71, 0
1, 57840, Tempo, 540103
1, 57840, Note_on_c, 0, 55, 0
1, 57840, Note_on_c, 0, 67, 43
1, 57840, Note_on_c, 0, 59, 25
1, 57960, Note_on_c, 0, 67, 0
1, 57960, Note_on_c, 0, 69, 40
1, 58080, Note_on_c, 0, 69, 0
1, 58080, Note_on_c, 0, 59, 0
1, 58080, Note_on_c, 0, 71, 43
1, 58080, Note_on_c, 0, 62, 24
1, 58200, Note_on_c, 0, 71, 0
1, 58200, Note_on_c, 0, 67, 42
1, 58320, Tempo, 560276
1, 58320, Note_on_c, 0, 67, 0
1, 58320, Note_on_c, 0, 62, 0
1, 58320, Note_on_c, 0, 69, 46
1, 58320, Note_on_c, 0, 54, 30
1, 58440, Note_on_c, 0, 69, 0
1, 58560, Tempo, 551015
1, 58560, Note_on_c, 0, 54, 0
1, 58560, Note_on_c, 0, 57, 25
1, 58800, Note_on_c, 0, 57, 0
1, 58800, Note_on_c, 0, 62, 23
1, 59040, Tempo, 540103
1, 59040, Note_on_c, 0, 62, 0
1, 59040, Note_on_c, 0, 60, 30
1, 59160, Note_on_c, 0, 64, 40
1, 59208, Tempo, 553863
1, 59280, Tempo, 551521
1, 59280, Note_on_c, 0, 64, 0
1, 59280, Note_on_c, 0, 66, 44
1, 59328, Tempo, 549199
1, 59376, Tempo, 546896
1, 59400, Note_on_c, 0, 66, 0
1, 59400, Note_on_c, 0, 68, 47
1, 59424, Tempo, 544613
1, 59496, Tempo, 542348
1, 59520, Note_on_c, 0, 68, 0
1, 59520, Note_on_c, 0, 69, 49
1, 59544, Tempo, 540103
1, 59592, Tempo, 537875
1, 59640, Tempo, 535666
1, 59640, Note_on_c, 0, 69, 0
1, 59640, Note_on_c, 0, 71, 50
1, 59688, Tempo, 533476
1, 59760, Tempo, 537875
1, 59760, Note_on_c, 0, 71, 0
1, 59760, Note_on_c, 0, 60, 0
1, 59760, Note_on_c, 0, 72, 52
1, 59880, Tempo, 591599
1, 59880, Note_on_c, 0, 72, 0
1, 59880, Note_on_c, 0, 74, 53
1, 60000, Tempo, 570885
1, 60000, Note_on_c, 0, 74, 0
1, 60000, Note_on_c, 0, 76, 58
1, 60000, Note_on_c, 0, 60, 30
1, 60120, Note_on_c, 0, 60, 0
1, 60120, Note_on_c, 0, 76, 0
1, 60240, Note_on_c, 0, 76, 53
1, 60240, Note_on_c, 0, 60, 28
1, 60360, Note_on_c, 0, 60, 0
1, 60360, Note_on_c, 0, 76, 0
1, 60480, Tempo, 537875
1, 60480, Note_on_c, 0, 59, 30
1, 60600, Note_on_c, 0, 62, 40
1, 60624, Tempo, 553863
1, 60696, Tempo, 551521
1, 60720, Note_on_c, 0, 62, 0
1, 60720, Note_on_c, 0, 64, 44
1, 60768, Tempo, 549199
1, 60840, Tempo, 546896
1, 60840, Note_on_c, 0, 64, 0
1, 60840, Note_on_c, 0, 66, 47
1, 60912, Tempo, 544613
1, 60960, Note_on_c, 0, 66, 0
1, 60960, Note_on_c, 0, 67, 49
1, 60984, Tempo, 542348
1, 61056, Tempo, 540103
1, 61080, Note_on_c, 0, 67, 0
1, 61080, Note_on_c, 0, 69, 50
1, 61128, Tempo, 537875
1, 61176, Tempo, 535666
1, 61200, Note_on_c, 0, 69, 0
1, 61200, Note_on_c, 0, 59, 0
1, 61200, Note_on_c, 0, 71, 52
1, 61320, Tempo, 588928
1, 61320, Note_on_c, 0, 71, 0
1, 61320, Note_on_c, 0, 72, 53
1, 61440, Tempo, 565931
1, 61440, Note_on_c, 0, 72, 0
1, 61440, Note_on_c, 0, 74, 58
1, 61440, Note_on_c, 0, 59, 30
1, 61560, Note_on_c, 0, 59, 0
1, 61560, Note_on_c, 0, 74, 0
1, 61680, Note_on_c, 0, 74, 53
1, 61680, Note_on_c, 0, 59, 28
1, 61800, Tempo, 586281
1, 61800, Note_on_c, 0, 59, 0
1, 61800, Note_on_c, 0, 74, 0
1, 61920, Tempo, 537875
1, 61920, Note_on_c, 0, 72, 65
1, 61920, Note_on_c, 0, 57, 47
1, 61944, Tempo, 533476
1, 61963, Control_c, 0, 64, 127
1, 62040, Tempo, 535666
1, 62040, Note_on_c, 0, 72, 0
1, 62040, Note_on_c, 0, 62, 51
1, 62136, Tempo, 537875
1, 62160, Note_on_c, 0, 62, 0
1, 62160, Note_on_c, 0, 57, 0
1, 62160, Note_on_c, 0, 71, 58
1, 62160, Note_on_c, 0, 55, 30
1, 62174, Control_c, 0, 64, 0
1, 62208, Tempo, 540103
1, 62252, Control_c, 0, 64, 127
1, 62280, Note_on_c, 0, 71, 0
1, 62280, Note_on_c, 0, 62, 49
1, 62304, Tempo, 542348
1, 62400, Tempo, 544613
1, 62400, Note_on_c, 0, 62, 0
1, 62400, Note_on_c, 0, 55, 0
1, 62400, Note_on_c, 0, 69, 59
1, 62400, Note_on_c, 0, 54, 30
1, 62413, Control_c, 0, 64, 0
1, 62471, Control_c, 0, 64, 127
1, 62472, Tempo, 546896
1, 62520, Tempo, 568397
1, 62520, Note_on_c, 0, 69, 0
1, 62520, Note_on_c, 0, 62, 48
1, 62640, Tempo, 529147
1, 62640, Note_on_c, 0, 62, 0
1, 62640, Note_on_c, 0, 54, 0
1, 62640, Note_on_c, 0, 71, 62
1, 62640, Note_on_c, 0, 55, 46
1, 62647, Control_c, 0, 64, 0
1, 62688, Tempo, 531303
1, 62711, Control_c, 0, 64, 127
1, 62736, Tempo, 533476
1, 62760, Note_on_c, 0, 71, 0
1, 62760, Note_on_c, 0, 62, 47
1, 62784, Tempo, 535666
1, 62832, Tempo, 537875
1, 62880, Tempo, 540103
1, 62880, Note_on_c, 0, 62, 0
1, 62880, Note_on_c, 0, 55, 0
1, 62880, Note_on_c, 0, 69, 55
1, 62880, Note_on_c, 0, 54, 30
1, 62899, Control_c, 0, 64, 0
1, 62928, Tempo, 542348
1, 62965, Control_c, 0, 64, 127
1, 62976, Tempo, 544613
1, 63000, Note_on_c, 0, 69, 0
1, 63000, Note_on_c, 0, 62, 48
1, 63024, Tempo, 546896
1, 63072, Tempo, 549199
1, 63120, Tempo, 563486
1, 63120, Note_on_c, 0, 62, 0
1, 63120, Note_on_c, 0, 54, 0
1, 63120, Note_on_c, 0, 67, 55
1, 63120, Note_on_c, 0, 52, 30
1, 63130, Control_c, 0, 64, 0
1, 63191, Control_c, 0, 64, 127
1, 63240, Note_on_c, 0, 67, 0
1, 63240, Note_on_c, 0, 62, 49
1, 63360, Tempo, 537875
1, 63360, Note_on_c, 0, 62, 0
1, 63360, Note_on_c, 0, 52, 0
1, 63360, Note_on_c, 0, 66, 57
1, 63360, Note_on_c, 0, 50, 34
1, 63367, Control_c, 0, 64, 0
1, 63480, Note_on_c, 0, 66, 0
1, 63480, Note_on_c, 0, 64, 47
1, 63600, Note_on_c, 0, 64, 0
1, 63600, Note_on_c, 0, 62, 47
1, 63720, Note_on_c, 0, 62, 0
1, 63720, Note_on_c, 0, 64, 47
1, 63840, Note_on_c, 0, 64, 0
1, 63840, Note_on_c, 0, 66, 43
1, 63960, Tempo, 570939
1, 63960, Note_on_c, 0, 66, 0
1, 63960, Note_on_c, 0, 67, 44
1, 64056, Tempo, 551521
1, 64080, Note_on_c, 0, 67, 0
1, 64080, Note_on_c, 0, 50, 0
1, 64080, Note_on_c, 0, 69, 52
1, 64083, Tempo, 568236
1, 64131, Tempo, 565558
1, 64155, Tempo, 562905
1, 64179, Tempo, 560276
1, 64200, Note_on_c, 0, 69, 0
1, 64200, Note_on_c, 0, 71, 46
1, 64227, Tempo, 557673
1, 64251, Tempo, 555093
1, 64275, Tempo, 552537
1, 64320, Note_on_c, 0, 71, 0
1, 64320, Note_on_c, 0, 74, 47
1, 64323, Tempo, 550005
1, 64347, Tempo, 547495
1, 64371, Tempo, 545009
1, 64395, Tempo, 542545
1, 64419, Tempo, 547495
1, 64440, Note_on_c, 0, 74, 0
1, 64440, Note_on_c, 0, 72, 45
1, 64443, Tempo, 552537
1, 64467, Tempo, 557673
1, 64491, Tempo, 562905
1, 64515, Tempo, 568236
1, 64539, Tempo, 573669
1, 64560, Note_on_c, 0, 72, 0
1, 64560, Note_on_c, 0, 71, 41
1, 64563, Tempo, 579206
1, 64587, Tempo, 584852
1, 64611, Tempo, 590609
1, 64635, Tempo, 596481
1, 64659, Tempo, 602470
1, 64680, Note_on_c, 0, 71, 0
1, 64680, Note_on_c, 0, 69, 40
1, 64683, Tempo, 608581
1, 64707, Tempo, 614817
1, 64731, Tempo, 621182
1, 64755, Tempo, 627681
1, 64779, Tempo, 637687
1, 64800, Tempo, 562905
1, 64800, Note_on_c, 0, 69, 0
1, 64800, Note_on_c, 0, 67, 50
1, 64800, Note_on_c, 0, 55, 30
1, 64920, Note_on_c, 0, 67, 0
1, 65040, Tempo, 537683
1, 65040, Note_on_c, 0, 55, 0
1, 65040, Note_on_c, 0, 67, 43
1, 65040, Note_on_c, 0, 59, 29
1, 65160, Note_on_c, 0, 67, 0
1, 65280, Tempo, 568397
1, 65280, Note_on_c, 0, 59, 0
1, 65280, Note_on_c, 0, 67, 43
1, 65280, Note_on_c, 0, 62, 29
1, 65400, Note_on_c, 0, 67, 0
1, 65520, Tempo, 537875
1, 65520, Note_on_c, 0, 62, 0
1, 65520, Note_on_c, 0, 69, 46
1, 65520, Note_on_c, 0, 54, 30
1, 65760, Note_on_c, 0, 54, 0
1, 65760, Note_on_c, 0, 69, 0
1, 65760, Note_on_c, 0, 74, 50
1, 65760, Note_on_c, 0, 57, 26
1, 66000, Note_on_c, 0, 57, 0
1, 66000, Note_on_c, 0, 74, 0
1, 66000, Note_on_c, 0, 72, 47
1, 66000, Note_on_c, 0, 62, 26
1, 66240, Tempo, 556225
1, 66240, Note_on_c, 0, 62, 0
1, 66240, Note_on_c, 0, 72, 0
1, 66240, Note_on_c, 0, 71, 50
1, 66240, Note_on_c, 0, 55, 30
1, 66360, Note_on_c, 0, 71, 0
1, 66480, Tempo, 535666
1, 66480, Note_on_c, 0, 55, 0
1, 66480, Note_on_c, 0, 67, 43
1, 66480, Note_on_c, 0, 59, 25
1, 66600, Note_on_c, 0, 67, 0
1, 66600, Note_on_c, 0, 69, 40
1, 66720, Tempo, 524843
1, 66720, Note_on_c, 0, 69, 0
1, 66720, Note_on_c, 0, 59, 0
1, 66720, Note_on_c, 0, 71, 43
1, 66720, Note_on_c, 0, 62, 24
1, 66840, Note_on_c, 0, 71, 0
1, 66840, Note_on_c, 0, 67, 42
1, 66960, Tempo, 565558
1, 66960, Note_on_c, 0, 67, 0
1, 66960, Note_on_c, 0, 62, 0
1, 66960, Note_on_c, 0, 69, 46
1, 66960, Note_on_c, 0, 54, 30
1, 67080, Note_on_c, 0, 69, 0
1, 67200, Tempo, 542545
1, 67200, Note_on_c, 0, 54, 0
1, 67200, Note_on_c, 0, 57, 25
1, 67440, Tempo, 558607
1, 67440, Note_on_c, 0, 57, 0
1, 67440, Note_on_c, 0, 62, 21
1, 67680, Tempo, 548496
1, 67680, Note_on_c, 0, 62, 0
1, 67680, Note_on_c, 0, 79, 50
1, 67680, Note_on_c, 0, 55, 30
1, 67800, Note_on_c, 0, 79, 0
1, 67920, Tempo, 531491
1, 67920, Note_on_c, 0, 55, 0
1, 67920, Note_on_c, 0, 79, 50
1, 67920, Note_on_c, 0, 59, 29
1, 68040, Note_on_c, 0, 79, 0
1, 68160, Tempo, 551521
1, 68160, Note_on_c, 0, 59, 0
1, 68160, Note_on_c, 0, 79, 50
1, 68160, Note_on_c, 0, 62, 31
1, 68280, Note_on_c, 0, 79, 0
1, 68376, Tempo, 527009
1, 68400, Note_on_c, 0, 62, 0
1, 68400, Note_on_c, 0, 81, 56
1, 68400, Note_on_c, 0, 54, 36
1, 68472, Tempo, 529147
1, 68520, Note_on_c, 0, 81, 0
1, 68520, Note_on_c, 0, 79, 50
1, 68568, Tempo, 531303
1, 68640, Note_on_c, 0, 79, 0
1, 68640, Note_on_c, 0, 54, 0
1, 68640, Note_on_c, 0, 78, 49
1, 68640, Note_on_c, 0, 57, 30
1, 68664, Tempo, 533476
1, 68760, Tempo, 535666
1, 68760, Note_on_c, 0, 78, 0
1, 68760, Note_on_c, 0, 76, 48
1, 68856, Tempo, 537875
1, 68880, Note_on_c, 0, 76, 0
1, 68880, Note_on_c, 0, 57, 0
1, 68880, Note_on_c, 0, 74, 47
1, 68880, Note_on_c, 0, 62, 30
1, 68952, Tempo, 540103
1, 69000, Note_on_c, 0, 74, 0
1, 69000, Note_on_c, 0, 72, 46
1, 69048, Tempo, 542348
1, 69120, Tempo, 558607
1, 69120, Note_on_c, 0, 72, 0
1, 69120, Note_on_c, 0, 62, 0
1, 69120, Note_on_c, 0, 71, 50
1, 69120, Note_on_c, 0, 55, 30
1, 69240, Note_on_c, 0, 71, 0
1, 69360, Tempo, 540103
1, 69360, Note_on_c, 0, 55, 0
1, 69360, Note_on_c, 0, 67, 43
1, 69360, Note_on_c, 0, 59, 25
1, 69480, Note_on_c, 0, 67, 0
1, 69480, Note_on_c, 0, 69, 40
1, 69600, Note_on_c, 0, 69, 0
1, 69600, Note_on_c, 0, 59, 0
1, 69600, Note_on_c, 0, 71, 43
1, 69600, Note_on_c, 0, 62, 24
1, 69720, Note_on_c, 0, 71, 0
1, 69720, Note_on_c, 0, 67, 42
1, 69840, Tempo, 562905
1, 69840, Note_on_c, 0, 67, 0
1, 69840, Note_on_c, 0, 62, 0
1, 69840, Note_on_c, 0, 69, 46
1, 69840, Note_on_c, 0, 54, 30
1, 69960, Note_on_c, 0, 69, 0
1, 70080, Tempo, 555093
1, 70080, Note_on_c, 0, 54, 0
1, 70080, Note_on_c, 0, 57, 25
1, 70320, Note_on_c, 0, 57, 0
1, 70320, Note_on_c, 0, 62, 23
1, 70560, Tempo, 540103
1, 70560, Note_on_c, 0, 62, 0
1, 70560, Note_on_c, 0, 60, 30
1, 70680, Note_on_c, 0, 64, 40
1, 70728, Tempo, 553863
1, 70800, Tempo, 551521
1, 70800, Note_on_c, 0, 64, 0
1, 70800, Note_on_c, 0, 66, 44
1, 70848, Tempo, 549199
1, 70896, Tempo, 546896
1, 70920, Note_on_c, 0, 66, 0
1, 70920, Note_on_c, 0, 68, 47
1, 70944, Tempo, 544613
1, 71016, Tempo, 542348
1, 71040, Note_on_c, 0, 68, 0
1, 71040, Note_on_c, 0, 69, 49
1, 71064, Tempo, 540103
1, 71112, Tempo, 537875
1, 71160, Tempo, 535666
1, 71160, Note_on_c, 0, 69, 0
1, 71160, Note_on_c, 0, 71, 53
1, 71208, Tempo, 533476
1, 71280, Tempo, 537875
1, 71280, Note_on_c, 0, 71, 0
1, 71280, Note_on_c, 0, 60, 0
1, 71280, Note_on_c, 0, 72, 57
1, 71400, Tempo, 591599
1, 71400, Note_on_c, 0, 72, 0
1, 71400, Note_on_c, 0, 74, 62
1, 71520, Tempo, 570885
1, 71520, Note_on_c, 0, 74, 0
1, 71520, Note_on_c, 0, 76, 68
1, 71520, Note_on_c, 0, 60, 30
1, 71640, Note_on_c, 0, 60, 0
1, 71640, Note_on_c, 0, 76, 0
1, 71760, Note_on_c, 0, 76, 63
1, 71760, Note_on_c, 0, 60, 28
1, 71880, Note_on_c, 0, 60, 0
1, 71880, Note_on_c, 0, 76, 0
1, 72000, Tempo, 537875
1, 72000, Note_on_c, 0, 59, 30
1, 72120, Note_on_c, 0, 62, 40
1, 72144, Tempo, 553863
1, 72216, Tempo, 551521
1, 72240, Note_on_c, 0, 62, 0
1, 72240, Note_on_c, 0, 64, 44
1, 72288, Tempo, 549199
1, 72360, Tempo, 546896
1, 72360, Note_on_c, 0, 64, 0
1, 72360, Note_on_c, 0, 66, 47
1, 72432, Tempo, 544613
1, 72480, Note_on_c, 0, 66, 0
1, 72480, Note_on_c, 0, 67, 49
1, 72504, Tempo, 542348
1, 72576, Tempo, 540103
1, 72600, Note_on_c, 0, 67, 0
1, 72600, Note_on_c, 0, 69, 50
1, 72648, Tempo, 537875
1, 72696, Tempo, 535666
1, 72720, Tempo, 542348
1, 72720, Note_on_c, 0, 69, 0
1, 72720, Note_on_c, 0, 59, 0
1, 72720, Note_on_c, 0, 71, 52
1, 72840, Note_on_c, 0, 71, 0
1, 72840, Note_on_c, 0, 72, 53
1, 72960, Tempo, 553863
1, 72960, Note_on_c, 0, 72, 0
1, 72960, Note_on_c, 0, 74, 58
1, 72960, Note_on_c, 0, 59, 35
1, 73080, Note_on_c, 0, 59, 0
1, 73080, Note_on_c, 0, 74, 0
1, 73080, Note_on_c, 0, 76, 58
1, 73200, Tempo, 573394
1, 73200, Note_on_c, 0, 76, 0
1, 73200, Note_on_c, 0, 78, 53
1, 73200, Note_on_c, 0, 59, 37
1, 73320, Tempo, 619771
1, 73320, Note_on_c, 0, 59, 0
1, 73320, Note_on_c, 0, 78, 0
1, 73320, Note_on_c, 0, 79, 53
1, 73440, Tempo, 558607
1, 73440, Note_on_c, 0, 79, 0
1, 73440, Note_on_c, 0, 78, 69
1, 73440, Note_on_c, 0, 48, 46
1, 73560, Note_on_c, 0, 78, 0
1, 73560, Note_on_c, 0, 76, 57
1, 73680, Note_on_c, 0, 76, 0
1, 73680, Note_on_c, 0, 48, 0
1, 73680, Note_on_c, 0, 74, 54
1, 73680, Note_on_c, 0, 60, 30
1, 73800, Note_on_c, 0, 60, 0
1, 73800, Note_on_c, 0, 74, 0
1, 73800, Note_on_c, 0, 72, 51
1, 73920, Note_on_c, 0, 72, 0
1, 73920, Note_on_c, 0, 71, 50
1, 73920, Note_on_c, 0, 60, 30
1, 74040, Tempo, 594295
1, 74040, Note_on_c, 0, 60, 0
1, 74040, Note_on_c, 0, 71, 0
1, 74040, Note_on_c, 0, 69, 48
1, 74160, Tempo, 551521
1, 74160, Note_on_c, 0, 69, 0
1, 74160, Note_on_c, 0, 67, 54
1, 74160, Note_on_c, 0, 50, 45
1, 74400, Note_on_c, 0, 50, 0
1, 74400, Note_on_c, 0, 62, 30
1, 74520, Note_on_c, 0, 62, 0
1, 74640, Tempo, 575926
1, 74640, Note_on_c, 0, 67, 0
1, 74640, Note_on_c, 0, 71, 51
1, 74640, Note_on_c, 0, 62, 30
1, 74760, Note_on_c, 0, 62, 0
1, 74760, Note_on_c, 0, 71, 0
1, 74760, Note_on_c, 0, 69, 45
1, 74880, Tempo, 551521
1, 74880, Note_on_c, 0, 69, 0
1, 74880, Note_on_c, 0, 71, 57
1, 74880, Note_on_c, 0, 43, 41
1, 75000, Note_on_c, 0, 71, 0
1, 75000, Note_on_c, 0, 69, 54
1, 75120, Note_on_c, 0, 69, 0
1, 75120, Note_on_c, 0, 43, 0
1, 75120, Note_on_c, 0, 67, 55
1, 75120, Note_on_c, 0, 47, 36
1, 75240, Note_on_c, 0, 67, 0
1, 75240, Note_on_c, 0, 66, 60
1, 75360, Tempo, 576424
1, 75360, Note_on_c, 0, 66, 0
1, 75360, Note_on_c, 0, 47, 0
1, 75360, Note_on_c, 0, 67, 61
1, 75360, Note_on_c, 0, 50, 45
1, 75480, Note_on_c, 0, 67, 0
1, 75480, Note_on_c, 0, 69, 61
1, 75600, Tempo, 550005
1, 75600, Note_on_c, 0, 69, 0
1, 75600, Note_on_c, 0, 50, 0
1, 75600, Note_on_c, 0, 71, 69
1, 75600, Note_on_c, 0, 55, 47
1, 75720, Note_on_c, 0, 71, 0
1, 75720, Note_on_c, 0, 72, 62
1, 75840, Note_on_c, 0, 72, 0
1, 75840, Note_on_c, 0, 55, 0
1, 75840, Note_on_c, 0, 74, 66
1, 75840, Note_on_c, 0, 59, 42
1, 75960, Note_on_c, 0, 74, 0
1, 75960, Note_on_c, 0, 76, 68
1, 76080, Tempo, 576424
1, 76080, Note_on_c, 0, 76, 0
1, 76080, Note_on_c, 0, 59, 0
1, 76080, Note_on_c, 0, 78, 70
1, 76080, Note_on_c, 0, 55, 48
1, 76200, Note_on_c, 0, 78, 0
1, 76200, Note_on_c, 0, 79, 70
1, 76320, Tempo, 552537
1, 76320, Note_on_c, 0, 79, 0
1, 76320, Note_on_c, 0, 55, 0
1, 76320, Note_on_c, 0, 78, 77
1, 76320, Note_on_c, 0, 48, 54
1, 76440, Note_on_c, 0, 78, 0
1, 76440, Note_on_c, 0, 76, 76
1, 76560, Note_on_c, 0, 76, 0
1, 76560, Note_on_c, 0, 48, 0
1, 76560, Note_on_c, 0, 74, 73
1, 76560, Note_on_c, 0, 60, 46
1, 76680, Note_on_c, 0, 60, 0
1, 76680, Note_on_c, 0, 74, 0
1, 76680, Note_on_c, 0, 72, 72
1, 76800, Tempo, 590609
1, 76800, Note_on_c, 0, 72, 0
1, 76800, Note_on_c, 0, 71, 68
1, 76800, Note_on_c, 0, 60, 42
1, 76920, Note_on_c, 0, 60, 0
1, 76920, Note_on_c, 0, 71, 0
1, 76920, Note_on_c, 0, 69, 68
1, 77040, Tempo, 552537
1, 77040, Note_on_c, 0, 69, 0
1, 77040, Note_on_c, 0, 67, 73
1, 77040, Note_on_c, 0, 50, 53
1, 77280, Note_on_c, 0, 50, 0
1, 77280, Note_on_c, 0, 62, 46
1, 77400, Note_on_c, 0, 62, 0
1, 77520, Tempo, 562905
1, 77520, Note_on_c, 0, 67, 0
1, 77520, Note_on_c, 0, 71, 68
1, 77520, Note_on_c, 0, 62, 46
1, 77640, Tempo, 596481
1, 77640, Note_on_c, 0, 62, 0
1, 77640, Note_on_c, 0, 71, 0
1, 77640, Note_on_c, 0, 69, 63
1, 77760, Tempo, 579206
1, 77760, Note_on_c, 0, 69, 0
1, 77760, Note_on_c, 0, 67, 72
1, 77760, Note_on_c, 0, 43, 53
1, 77814, Control_c, 0, 64, 127
1, 78000, Note_on_c, 0, 43, 0
1, 78000, Note_on_c, 0, 67, 0
1, 78000, Note_on_c, 0, 55, 46
1, 78240, Tempo, 605510
1, 78240, Note_on_c, 0, 55, 0
1, 78240, Note_on_c, 0, 50, 46
1, 78480, Tempo, 587717
1, 78480, Note_on_c, 0, 50, 0
1, 78480, Note_on_c, 0, 71, 73
1, 78480, Note_on_c, 0, 74, 73
1, 78480, Note_on_c, 0, 79, 87
1, 78480, Note_on_c, 0, 47, 56
1, 78720, Tempo, 627681
1, 78720, Note_on_c, 0, 47, 0
1, 78720, Note_on_c, 0, 71, 0
1, 78720, Note_on_c, 0, 74, 0
1, 78720, Note_on_c, 0, 79, 0
1, 78720, Note_on_c, 0, 50, 41
1, 78960, Tempo, 677277
1, 78960, Note_on_c, 0, 50, 0
1, 78960, Note_on_c, 0, 47, 41
1, 79200, Tempo, 749157
1, 79200, Note_on_c, 0, 47, 0
1, 79200, Note_on_c, 0, 59, 66
1, 79200, Note_on_c, 0, 62, 66
1, 79200, Note_on_c, 0, 67, 78
1, 79200, Note_on_c, 0, 43, 56
1, 79920, Note_on_c, 0, 43, 0
1, 79920, Note_on_c, 0, 59, 0
1, 79920, Note_on_c, 0, 62, 0
1, 79920, Note_on_c, 0, 67, 0
1, 80240, Control_c, 0, 64, 0
1, 80240, End_track
0, 0, End_of_file
