0, 0, Header, 0, 1, 480
1, 0, Start_track
1, 0, Title_t, "Clementi: Sonatine Opus 36 Nr. 1, 3. Satz"
1, 0, Copyright_t, "Copyright © 2010 by Bernd Krueger"
1, 0, Text_t, "Muzio Clementi"
1, 0, Text_t, "Vivace"
1, 0, Text_t, "Erstellt: 20.11.2010\012"
1, 0, Text_t, "Dauer: 0:56 Minuten\012"
1, 0, Time_signature, 3, 3, 12, 8
1, 0, Key_signature, 0, "major"
1, 0, Tempo, 520879
1, 0, Program_c, 0, 0
1, 0, Note_on_c, 0, 76, 42
1, 0, Program_c, 0, 0
1, 0, Note_on_c, 0, 48, 28
1, 0, Program_c, 0, 0
1, 120, Note_on_c, 0, 76, 0
1, 120, Note_on_c, 0, 74, 39
1, 240, Tempo, 537201
1, 240, Note_on_c, 0, 74, 0
1, 240, Note_on_c, 0, 48, 0
1, 240, Note_on_c, 0, 72, 42
1, 240, Note_on_c, 0, 52, 24
1, 300, Note_on_c, 0, 72, 0
1, 480, Tempo, 575871
1, 480, Note_on_c, 0, 52, 0
1, 480, Note_on_c, 0, 72, 39
1, 480, Note_on_c, 0, 55, 24
1, 540, Note_on_c, 0, 72, 0
1, 720, Tempo, 532434
1, 720, Note_on_c, 0, 55, 0
1, 720, Note_on_c, 0, 79, 59
1, 720, Note_on_c, 0, 48, 28
1, 812, Control_c, 0, 64, 127
1, 960, Note_on_c, 0, 48, 0
1, 960, Note_on_c, 0, 52, 26
1, 1200, Note_on_c, 0, 52, 0
1, 1200, Note_on_c, 0, 79, 0
1, 1200, Note_on_c, 0, 77, 42
1, 1200, Note_on_c, 0, 55, 26
1, 1216, Control_c, 0, 64, 0
1, 1306, Control_c, 0, 64, 127
1, 1320, Note_on_c, 0, 77, 0
1, 1320, Note_on_c, 0, 76, 38
1, 1440, Note_on_c, 0, 76, 0
1, 1440, Note_on_c, 0, 55, 0
1, 1440, Note_on_c, 0, 74, 46
1, 1440, Note_on_c, 0, 48, 28
1, 1440, Control_c, 0, 64, 0
1, 1680, Note_on_c, 0, 48, 0
1, 1680, Note_on_c, 0, 74, 0
1, 1680, Note_on_c, 0, 77, 42
1, 1680, Note_on_c, 0, 50, 23
1, 1920, Tempo, 546996
1, 1920, Note_on_c, 0, 50, 0
1, 1920, Note_on_c, 0, 77, 0
1, 1920, Note_on_c, 0, 71, 39
1, 1920, Note_on_c, 0, 53, 23
1, 2160, Tempo, 530082
1, 2160, Note_on_c, 0, 53, 0
1, 2160, Note_on_c, 0, 71, 0
1, 2160, Note_on_c, 0, 72, 45
1, 2160, Note_on_c, 0, 48, 28
1, 2231, Control_c, 0, 64, 127
1, 2400, Note_on_c, 0, 48, 0
1, 2400, Note_on_c, 0, 72, 0
1, 2400, Note_on_c, 0, 67, 42
1, 2400, Note_on_c, 0, 52, 26
1, 2423, Control_c, 0, 64, 0
1, 2520, Note_on_c, 0, 67, 0
1, 2640, Note_on_c, 0, 52, 0
1, 2640, Note_on_c, 0, 67, 42
1, 2640, Note_on_c, 0, 55, 26
1, 2760, Note_on_c, 0, 67, 0
1, 2880, Tempo, 516396
1, 2880, Note_on_c, 0, 55, 0
1, 2880, Note_on_c, 0, 76, 42
1, 2880, Note_on_c, 0, 48, 28
1, 3000, Note_on_c, 0, 76, 0
1, 3000, Note_on_c, 0, 74, 39
1, 3120, Tempo, 534807
1, 3120, Note_on_c, 0, 74, 0
1, 3120, Note_on_c, 0, 48, 0
1, 3120, Note_on_c, 0, 72, 42
1, 3120, Note_on_c, 0, 52, 24
1, 3180, Note_on_c, 0, 72, 0
1, 3360, Tempo, 573121
1, 3360, Note_on_c, 0, 52, 0
1, 3360, Note_on_c, 0, 72, 39
1, 3360, Note_on_c, 0, 55, 24
1, 3420, Note_on_c, 0, 72, 0
1, 3600, Tempo, 532434
1, 3600, Note_on_c, 0, 55, 0
1, 3600, Note_on_c, 0, 79, 63
1, 3600, Note_on_c, 0, 48, 28
1, 3671, Control_c, 0, 64, 127
1, 3840, Note_on_c, 0, 48, 0
1, 3840, Note_on_c, 0, 52, 26
1, 4080, Note_on_c, 0, 52, 0
1, 4080, Note_on_c, 0, 79, 0
1, 4080, Note_on_c, 0, 77, 42
1, 4080, Note_on_c, 0, 55, 26
1, 4092, Control_c, 0, 64, 0
1, 4186, Control_c, 0, 64, 127
1, 4200, Note_on_c, 0, 77, 0
1, 4200, Note_on_c, 0, 76, 38
1, 4282, Tempo, 530082
1, 4320, Note_on_c, 0, 76, 0
1, 4320, Note_on_c, 0, 55, 0
1, 4320, Note_on_c, 0, 74, 46
1, 4320, Note_on_c, 0, 43, 28
1, 4320, Control_c, 0, 64, 0
1, 4378, Tempo, 527751
1, 4398, Control_c, 0, 64, 127
1, 4440, Note_on_c, 0, 74, 0
1, 4440, Note_on_c, 0, 76, 40
1, 4474, Tempo, 525440
1, 4560, Note_on_c, 0, 76, 0
1, 4560, Note_on_c, 0, 43, 0
1, 4560, Note_on_c, 0, 77, 45
1, 4560, Note_on_c, 0, 50, 23
1, 4570, Tempo, 523149
1, 4574, Control_c, 0, 64, 0
1, 4659, Control_c, 0, 64, 127
1, 4666, Tempo, 520879
1, 4680, Note_on_c, 0, 77, 0
1, 4680, Note_on_c, 0, 76, 39
1, 4800, Note_on_c, 0, 76, 0
1, 4800, Note_on_c, 0, 50, 0
1, 4800, Note_on_c, 0, 77, 39
1, 4800, Note_on_c, 0, 55, 23
1, 4811, Control_c, 0, 64, 0
1, 4906, Control_c, 0, 64, 127
1, 4920, Tempo, 562377
1, 4920, Note_on_c, 0, 77, 0
1, 4920, Note_on_c, 0, 74, 36
1, 5040, Tempo, 530082
1, 5040, Note_on_c, 0, 74, 0
1, 5040, Note_on_c, 0, 55, 0
1, 5040, Note_on_c, 0, 72, 45
1, 5040, Note_on_c, 0, 48, 28
1, 5040, Control_c, 0, 64, 0
1, 5134, Control_c, 0, 64, 127
1, 5280, Note_on_c, 0, 48, 0
1, 5280, Note_on_c, 0, 72, 0
1, 5280, Note_on_c, 0, 52, 23
1, 5300, Control_c, 0, 64, 0
1, 5520, Note_on_c, 0, 52, 0
1, 5520, Note_on_c, 0, 55, 23
1, 5760, Tempo, 514183
1, 5760, Note_on_c, 0, 55, 0
1, 5760, Note_on_c, 0, 76, 67
1, 5760, Note_on_c, 0, 48, 45
1, 5880, Note_on_c, 0, 76, 0
1, 5880, Note_on_c, 0, 74, 62
1, 6000, Tempo, 527751
1, 6000, Note_on_c, 0, 74, 0
1, 6000, Note_on_c, 0, 48, 0
1, 6000, Note_on_c, 0, 72, 67
1, 6000, Note_on_c, 0, 52, 39
1, 6060, Note_on_c, 0, 72, 0
1, 6240, Tempo, 562377
1, 6240, Note_on_c, 0, 52, 0
1, 6240, Note_on_c, 0, 72, 63
1, 6240, Note_on_c, 0, 55, 39
1, 6300, Note_on_c, 0, 72, 0
1, 6480, Tempo, 527751
1, 6480, Note_on_c, 0, 55, 0
1, 6480, Note_on_c, 0, 79, 78
1, 6480, Note_on_c, 0, 48, 45
1, 6544, Control_c, 0, 64, 127
1, 6720, Note_on_c, 0, 48, 0
1, 6720, Note_on_c, 0, 52, 41
1, 6960, Note_on_c, 0, 52, 0
1, 6960, Note_on_c, 0, 79, 0
1, 6960, Note_on_c, 0, 77, 67
1, 6960, Note_on_c, 0, 55, 41
1, 6977, Control_c, 0, 64, 0
1, 7066, Control_c, 0, 64, 127
1, 7080, Note_on_c, 0, 77, 0
1, 7080, Note_on_c, 0, 76, 60
1, 7200, Note_on_c, 0, 76, 0
1, 7200, Note_on_c, 0, 55, 0
1, 7200, Note_on_c, 0, 74, 74
1, 7200, Note_on_c, 0, 48, 45
1, 7200, Control_c, 0, 64, 0
1, 7440, Note_on_c, 0, 48, 0
1, 7440, Note_on_c, 0, 74, 0
1, 7440, Note_on_c, 0, 77, 67
1, 7440, Note_on_c, 0, 50, 38
1, 7680, Tempo, 544514
1, 7680, Note_on_c, 0, 50, 0
1, 7680, Note_on_c, 0, 77, 0
1, 7680, Note_on_c, 0, 71, 63
1, 7680, Note_on_c, 0, 53, 38
1, 7920, Tempo, 523149
1, 7920, Note_on_c, 0, 53, 0
1, 7920, Note_on_c, 0, 71, 0
1, 7920, Note_on_c, 0, 72, 71
1, 7920, Note_on_c, 0, 48, 45
1, 8012, Control_c, 0, 64, 127
1, 8160, Note_on_c, 0, 48, 0
1, 8160, Note_on_c, 0, 72, 0
1, 8160, Note_on_c, 0, 67, 67
1, 8160, Note_on_c, 0, 52, 41
1, 8177, Control_c, 0, 64, 0
1, 8280, Note_on_c, 0, 67, 0
1, 8400, Note_on_c, 0, 52, 0
1, 8400, Note_on_c, 0, 67, 67
1, 8400, Note_on_c, 0, 55, 41
1, 8520, Note_on_c, 0, 67, 0
1, 8640, Tempo, 509814
1, 8640, Note_on_c, 0, 55, 0
1, 8640, Note_on_c, 0, 76, 67
1, 8640, Note_on_c, 0, 48, 45
1, 8760, Note_on_c, 0, 76, 0
1, 8760, Note_on_c, 0, 74, 62
1, 8880, Tempo, 523149
1, 8880, Note_on_c, 0, 74, 0
1, 8880, Note_on_c, 0, 48, 0
1, 8880, Note_on_c, 0, 72, 67
1, 8880, Note_on_c, 0, 52, 39
1, 8940, Note_on_c, 0, 72, 0
1, 9120, Tempo, 578648
1, 9120, Note_on_c, 0, 52, 0
1, 9120, Note_on_c, 0, 72, 63
1, 9120, Note_on_c, 0, 55, 39
1, 9180, Note_on_c, 0, 72, 0
1, 9360, Tempo, 523149
1, 9360, Note_on_c, 0, 55, 0
1, 9360, Note_on_c, 0, 79, 78
1, 9360, Note_on_c, 0, 48, 45
1, 9417, Control_c, 0, 64, 127
1, 9600, Note_on_c, 0, 48, 0
1, 9600, Note_on_c, 0, 52, 41
1, 9840, Note_on_c, 0, 52, 0
1, 9840, Note_on_c, 0, 79, 0
1, 9840, Note_on_c, 0, 77, 67
1, 9840, Note_on_c, 0, 55, 41
1, 9850, Control_c, 0, 64, 0
1, 9932, Control_c, 0, 64, 127
1, 9960, Note_on_c, 0, 77, 0
1, 9960, Note_on_c, 0, 76, 60
1, 10080, Note_on_c, 0, 76, 0
1, 10080, Note_on_c, 0, 55, 0
1, 10080, Note_on_c, 0, 74, 74
1, 10080, Note_on_c, 0, 43, 45
1, 10087, Control_c, 0, 64, 0
1, 10179, Control_c, 0, 64, 127
1, 10200, Note_on_c, 0, 74, 0
1, 10200, Note_on_c, 0, 76, 64
1, 10320, Tempo, 516396
1, 10320, Note_on_c, 0, 76, 0
1, 10320, Note_on_c, 0, 43, 0
1, 10320, Note_on_c, 0, 77, 71
1, 10320, Note_on_c, 0, 50, 38
1, 10334, Control_c, 0, 64, 0
1, 10391, Control_c, 0, 64, 127
1, 10440, Note_on_c, 0, 77, 0
1, 10440, Note_on_c, 0, 76, 63
1, 10560, Note_on_c, 0, 76, 0
1, 10560, Note_on_c, 0, 50, 0
1, 10560, Note_on_c, 0, 77, 63
1, 10560, Note_on_c, 0, 55, 38
1, 10573, Control_c, 0, 64, 0
1, 10638, Control_c, 0, 64, 127
1, 10680, Tempo, 570396
1, 10680, Note_on_c, 0, 77, 0
1, 10680, Note_on_c, 0, 74, 58
1, 10800, Tempo, 520879
1, 10800, Note_on_c, 0, 74, 0
1, 10800, Note_on_c, 0, 55, 0
1, 10800, Note_on_c, 0, 72, 71
1, 10800, Note_on_c, 0, 48, 45
1, 10800, Control_c, 0, 64, 0
1, 10960, Control_c, 0, 64, 127
1, 11040, Note_on_c, 0, 48, 0
1, 11040, Note_on_c, 0, 72, 0
1, 11040, Note_on_c, 0, 52, 38
1, 11060, Control_c, 0, 64, 0
1, 11280, Note_on_c, 0, 52, 0
1, 11280, Note_on_c, 0, 55, 38
1, 11520, Tempo, 505519
1, 11520, Note_on_c, 0, 55, 0
1, 11520, Note_on_c, 0, 67, 42
1, 11520, Note_on_c, 0, 60, 28
1, 11640, Note_on_c, 0, 67, 0
1, 11640, Note_on_c, 0, 65, 39
1, 11760, Tempo, 516396
1, 11760, Note_on_c, 0, 65, 0
1, 11760, Note_on_c, 0, 64, 42
1, 11880, Note_on_c, 0, 64, 0
1, 12000, Note_on_c, 0, 60, 0
1, 12000, Note_on_c, 0, 64, 39
1, 12120, Note_on_c, 0, 64, 0
1, 12240, Tempo, 503398
1, 12240, Note_on_c, 0, 69, 42
1, 12240, Note_on_c, 0, 60, 28
1, 12360, Note_on_c, 0, 69, 0
1, 12360, Note_on_c, 0, 67, 39
1, 12480, Tempo, 518627
1, 12480, Note_on_c, 0, 67, 0
1, 12480, Note_on_c, 0, 65, 42
1, 12600, Note_on_c, 0, 65, 0
1, 12720, Note_on_c, 0, 60, 0
1, 12720, Note_on_c, 0, 65, 39
1, 12840, Note_on_c, 0, 65, 0
1, 12960, Note_on_c, 0, 62, 63
1, 12960, Note_on_c, 0, 60, 45
1, 13003, Control_c, 0, 64, 127
1, 13080, Note_on_c, 0, 62, 0
1, 13080, Note_on_c, 0, 65, 57
1, 13200, Tempo, 509814
1, 13200, Note_on_c, 0, 65, 0
1, 13200, Note_on_c, 0, 60, 0
1, 13200, Note_on_c, 0, 71, 63
1, 13200, Note_on_c, 0, 60, 39
1, 13320, Note_on_c, 0, 71, 0
1, 13320, Note_on_c, 0, 65, 55
1, 13440, Note_on_c, 0, 65, 0
1, 13440, Note_on_c, 0, 60, 0
1, 13440, Note_on_c, 0, 71, 62
1, 13440, Note_on_c, 0, 60, 39
1, 13560, Tempo, 567698
1, 13560, Note_on_c, 0, 71, 0
1, 13560, Note_on_c, 0, 65, 55
1, 13680, Tempo, 525440
1, 13680, Note_on_c, 0, 65, 0
1, 13680, Note_on_c, 0, 60, 0
1, 13680, Note_on_c, 0, 64, 68
1, 13680, Note_on_c, 0, 60, 45
1, 13689, Control_c, 0, 64, 0
1, 13814, Control_c, 0, 64, 127
1, 13920, Note_on_c, 0, 60, 0
1, 13920, Note_on_c, 0, 64, 0
1, 13920, Note_on_c, 0, 67, 55
1, 13920, Note_on_c, 0, 60, 39
1, 14160, Tempo, 539617
1, 14160, Note_on_c, 0, 60, 0
1, 14160, Note_on_c, 0, 67, 0
1, 14160, Note_on_c, 0, 72, 63
1, 14160, Note_on_c, 0, 60, 39
1, 14400, Tempo, 507657
1, 14400, Note_on_c, 0, 60, 0
1, 14400, Note_on_c, 0, 72, 0
1, 14400, Note_on_c, 0, 67, 42
1, 14400, Note_on_c, 0, 60, 28
1, 14400, Control_c, 0, 64, 0
1, 14520, Note_on_c, 0, 67, 0
1, 14520, Note_on_c, 0, 65, 39
1, 14640, Tempo, 520879
1, 14640, Note_on_c, 0, 65, 0
1, 14640, Note_on_c, 0, 64, 42
1, 14760, Note_on_c, 0, 64, 0
1, 14880, Tempo, 557155
1, 14880, Note_on_c, 0, 60, 0
1, 14880, Note_on_c, 0, 64, 39
1, 15000, Note_on_c, 0, 64, 0
1, 15120, Tempo, 501295
1, 15120, Note_on_c, 0, 76, 42
1, 15120, Note_on_c, 0, 55, 28
1, 15120, Note_on_c, 0, 60, 28
1, 15240, Note_on_c, 0, 76, 0
1, 15240, Note_on_c, 0, 74, 39
1, 15360, Tempo, 520879
1, 15360, Note_on_c, 0, 74, 0
1, 15360, Note_on_c, 0, 72, 42
1, 15480, Note_on_c, 0, 72, 0
1, 15600, Tempo, 549501
1, 15600, Note_on_c, 0, 60, 0
1, 15600, Note_on_c, 0, 55, 0
1, 15600, Note_on_c, 0, 72, 39
1, 15720, Note_on_c, 0, 72, 0
1, 15840, Tempo, 523149
1, 15840, Note_on_c, 0, 66, 63
1, 15840, Note_on_c, 0, 50, 38
1, 15840, Note_on_c, 0, 57, 45
1, 15892, Control_c, 0, 64, 127
1, 15960, Note_on_c, 0, 66, 0
1, 15960, Note_on_c, 0, 67, 57
1, 16080, Note_on_c, 0, 67, 0
1, 16080, Note_on_c, 0, 57, 0
1, 16080, Note_on_c, 0, 50, 0
1, 16080, Note_on_c, 0, 69, 63
1, 16080, Note_on_c, 0, 50, 33
1, 16080, Note_on_c, 0, 57, 39
1, 16097, Control_c, 0, 64, 0
1, 16155, Control_c, 0, 64, 127
1, 16200, Note_on_c, 0, 69, 0
1, 16200, Note_on_c, 0, 71, 55
1, 16320, Tempo, 530082
1, 16320, Note_on_c, 0, 71, 0
1, 16320, Note_on_c, 0, 57, 0
1, 16320, Note_on_c, 0, 50, 0
1, 16320, Note_on_c, 0, 72, 62
1, 16320, Note_on_c, 0, 50, 33
1, 16320, Note_on_c, 0, 57, 39
1, 16331, Control_c, 0, 64, 0
1, 16406, Control_c, 0, 64, 127
1, 16440, Tempo, 575871
1, 16440, Note_on_c, 0, 72, 0
1, 16440, Note_on_c, 0, 69, 55
1, 16560, Tempo, 523149
1, 16560, Note_on_c, 0, 69, 0
1, 16560, Note_on_c, 0, 57, 0
1, 16560, Note_on_c, 0, 50, 0
1, 16560, Note_on_c, 0, 67, 63
1, 16560, Note_on_c, 0, 55, 38
1, 16560, Note_on_c, 0, 59, 45
1, 16560, Control_c, 0, 64, 0
1, 16694, Control_c, 0, 64, 127
1, 16800, Note_on_c, 0, 59, 0
1, 16800, Note_on_c, 0, 55, 0
1, 16800, Note_on_c, 0, 55, 33
1, 16800, Note_on_c, 0, 59, 39
1, 17040, Note_on_c, 0, 59, 0
1, 17040, Note_on_c, 0, 55, 0
1, 17040, Note_on_c, 0, 67, 0
1, 17040, Note_on_c, 0, 83, 64
1, 17040, Note_on_c, 0, 55, 33
1, 17040, Note_on_c, 0, 59, 39
1, 17058, Control_c, 0, 64, 0
1, 17132, Control_c, 0, 64, 127
1, 17160, Note_on_c, 0, 83, 0
1, 17160, Note_on_c, 0, 84, 67
1, 17261, Tempo, 530082
1, 17280, Note_on_c, 0, 84, 0
1, 17280, Note_on_c, 0, 59, 0
1, 17280, Note_on_c, 0, 55, 0
1, 17280, Note_on_c, 0, 86, 71
1, 17280, Note_on_c, 0, 55, 38
1, 17280, Note_on_c, 0, 59, 45
1, 17280, Control_c, 0, 64, 0
1, 17337, Control_c, 0, 64, 127
1, 17338, Tempo, 527751
1, 17400, Note_on_c, 0, 86, 0
1, 17400, Note_on_c, 0, 84, 66
1, 17415, Tempo, 525440
1, 17491, Tempo, 523149
1, 17520, Note_on_c, 0, 84, 0
1, 17520, Note_on_c, 0, 59, 0
1, 17520, Note_on_c, 0, 55, 0
1, 17520, Note_on_c, 0, 83, 68
1, 17520, Note_on_c, 0, 55, 33
1, 17520, Note_on_c, 0, 59, 39
1, 17534, Control_c, 0, 64, 0
1, 17568, Tempo, 520879
1, 17595, Control_c, 0, 64, 127
1, 17640, Note_on_c, 0, 83, 0
1, 17640, Note_on_c, 0, 81, 63
1, 17645, Tempo, 518627
1, 17760, Note_on_c, 0, 81, 0
1, 17760, Note_on_c, 0, 59, 0
1, 17760, Note_on_c, 0, 55, 0
1, 17760, Note_on_c, 0, 79, 65
1, 17760, Note_on_c, 0, 55, 33
1, 17760, Note_on_c, 0, 59, 39
1, 17777, Control_c, 0, 64, 0
1, 17779, Tempo, 520879
1, 17829, Control_c, 0, 64, 127
1, 17880, Note_on_c, 0, 79, 0
1, 17880, Note_on_c, 0, 78, 63
1, 17914, Tempo, 523149
1, 18000, Note_on_c, 0, 78, 0
1, 18000, Note_on_c, 0, 59, 0
1, 18000, Note_on_c, 0, 55, 0
1, 18000, Note_on_c, 0, 76, 63
1, 18000, Note_on_c, 0, 55, 38
1, 18000, Note_on_c, 0, 60, 45
1, 18007, Control_c, 0, 64, 0
1, 18029, Tempo, 525440
1, 18048, Tempo, 525440
1, 18092, Control_c, 0, 64, 127
1, 18120, Note_on_c, 0, 76, 0
1, 18120, Note_on_c, 0, 74, 61
1, 18202, Tempo, 523149
1, 18240, Note_on_c, 0, 74, 0
1, 18240, Note_on_c, 0, 60, 0
1, 18240, Note_on_c, 0, 55, 0
1, 18240, Note_on_c, 0, 72, 63
1, 18240, Note_on_c, 0, 55, 33
1, 18240, Note_on_c, 0, 60, 39
1, 18258, Control_c, 0, 64, 0
1, 18311, Control_c, 0, 64, 127
1, 18336, Tempo, 520879
1, 18360, Note_on_c, 0, 72, 0
1, 18360, Note_on_c, 0, 71, 60
1, 18480, Note_on_c, 0, 71, 0
1, 18480, Note_on_c, 0, 60, 0
1, 18480, Note_on_c, 0, 55, 0
1, 18480, Note_on_c, 0, 69, 63
1, 18480, Note_on_c, 0, 55, 33
1, 18480, Note_on_c, 0, 60, 39
1, 18494, Control_c, 0, 64, 0
1, 18509, Tempo, 523149
1, 18579, Control_c, 0, 64, 127
1, 18600, Note_on_c, 0, 69, 0
1, 18600, Note_on_c, 0, 67, 62
1, 18682, Tempo, 525440
1, 18720, Note_on_c, 0, 67, 0
1, 18720, Note_on_c, 0, 60, 0
1, 18720, Note_on_c, 0, 55, 0
1, 18720, Note_on_c, 0, 66, 63
1, 18720, Note_on_c, 0, 50, 38
1, 18720, Note_on_c, 0, 57, 45
1, 18720, Control_c, 0, 64, 0
1, 18759, Tempo, 525440
1, 18789, Control_c, 0, 64, 127
1, 18840, Note_on_c, 0, 66, 0
1, 18840, Note_on_c, 0, 67, 57
1, 18855, Tempo, 523149
1, 18951, Tempo, 520879
1, 18960, Note_on_c, 0, 67, 0
1, 18960, Note_on_c, 0, 57, 0
1, 18960, Note_on_c, 0, 50, 0
1, 18960, Note_on_c, 0, 69, 63
1, 18960, Note_on_c, 0, 50, 33
1, 18960, Note_on_c, 0, 57, 39
1, 18977, Control_c, 0, 64, 0
1, 19023, Control_c, 0, 64, 127
1, 19047, Tempo, 518627
1, 19080, Note_on_c, 0, 69, 0
1, 19080, Note_on_c, 0, 71, 55
1, 19085, Tempo, 520879
1, 19104, Tempo, 523149
1, 19143, Tempo, 525440
1, 19162, Tempo, 527751
1, 19200, Tempo, 530082
1, 19200, Note_on_c, 0, 71, 0
1, 19200, Note_on_c, 0, 57, 0
1, 19200, Note_on_c, 0, 50, 0
1, 19200, Note_on_c, 0, 72, 62
1, 19200, Note_on_c, 0, 50, 33
1, 19200, Note_on_c, 0, 57, 39
1, 19212, Control_c, 0, 64, 0
1, 19219, Tempo, 532434
1, 19258, Tempo, 534807
1, 19275, Control_c, 0, 64, 127
1, 19277, Tempo, 537201
1, 19296, Tempo, 539617
1, 19320, Tempo, 578648
1, 19320, Note_on_c, 0, 72, 0
1, 19320, Note_on_c, 0, 69, 55
1, 19440, Tempo, 523149
1, 19440, Note_on_c, 0, 69, 0
1, 19440, Note_on_c, 0, 57, 0
1, 19440, Note_on_c, 0, 50, 0
1, 19440, Note_on_c, 0, 67, 63
1, 19440, Note_on_c, 0, 55, 38
1, 19440, Note_on_c, 0, 59, 45
1, 19449, Control_c, 0, 64, 0
1, 19567, Control_c, 0, 64, 127
1, 19680, Note_on_c, 0, 59, 0
1, 19680, Note_on_c, 0, 55, 0
1, 19680, Note_on_c, 0, 55, 33
1, 19680, Note_on_c, 0, 59, 39
1, 19920, Note_on_c, 0, 59, 0
1, 19920, Note_on_c, 0, 55, 0
1, 19920, Note_on_c, 0, 67, 0
1, 19920, Note_on_c, 0, 83, 64
1, 19920, Note_on_c, 0, 55, 33
1, 19920, Note_on_c, 0, 59, 39
1, 19931, Control_c, 0, 64, 0
1, 20005, Control_c, 0, 64, 127
1, 20040, Tempo, 573121
1, 20040, Note_on_c, 0, 83, 0
1, 20040, Note_on_c, 0, 84, 67
1, 20160, Tempo, 520879
1, 20160, Note_on_c, 0, 84, 0
1, 20160, Note_on_c, 0, 59, 0
1, 20160, Note_on_c, 0, 55, 0
1, 20160, Note_on_c, 0, 86, 71
1, 20160, Note_on_c, 0, 55, 38
1, 20160, Note_on_c, 0, 59, 45
1, 20172, Control_c, 0, 64, 0
1, 20252, Control_c, 0, 64, 127
1, 20280, Note_on_c, 0, 86, 0
1, 20280, Note_on_c, 0, 84, 66
1, 20400, Note_on_c, 0, 84, 0
1, 20400, Note_on_c, 0, 59, 0
1, 20400, Note_on_c, 0, 55, 0
1, 20400, Note_on_c, 0, 83, 68
1, 20400, Note_on_c, 0, 55, 33
1, 20400, Note_on_c, 0, 59, 39
1, 20416, Control_c, 0, 64, 0
1, 20475, Control_c, 0, 64, 127
1, 20520, Note_on_c, 0, 83, 0
1, 20520, Note_on_c, 0, 81, 63
1, 20640, Tempo, 534807
1, 20640, Note_on_c, 0, 81, 0
1, 20640, Note_on_c, 0, 59, 0
1, 20640, Note_on_c, 0, 55, 0
1, 20640, Note_on_c, 0, 79, 65
1, 20640, Note_on_c, 0, 55, 33
1, 20640, Note_on_c, 0, 59, 39
1, 20653, Control_c, 0, 64, 0
1, 20715, Control_c, 0, 64, 127
1, 20760, Note_on_c, 0, 79, 0
1, 20760, Note_on_c, 0, 78, 63
1, 20880, Tempo, 544514
1, 20880, Note_on_c, 0, 78, 0
1, 20880, Note_on_c, 0, 59, 0
1, 20880, Note_on_c, 0, 55, 0
1, 20880, Note_on_c, 0, 77, 63
1, 20880, Note_on_c, 0, 55, 38
1, 20880, Note_on_c, 0, 59, 45
1, 20885, Control_c, 0, 64, 0
1, 20940, Note_on_c, 0, 77, 0
1, 21000, Note_on_c, 0, 59, 0
1, 21000, Note_on_c, 0, 55, 0
1, 21120, Note_on_c, 0, 77, 59
1, 21180, Note_on_c, 0, 77, 0
1, 21360, Tempo, 520879
1, 21360, Note_on_c, 0, 86, 59
1, 21410, Control_c, 0, 64, 127
1, 21480, Note_on_c, 0, 86, 0
1, 21480, Note_on_c, 0, 83, 53
1, 21600, Tempo, 539617
1, 21600, Note_on_c, 0, 83, 0
1, 21600, Note_on_c, 0, 77, 63
1, 21600, Note_on_c, 0, 55, 38
1, 21600, Note_on_c, 0, 59, 45
1, 21600, Control_c, 0, 64, 0
1, 21660, Note_on_c, 0, 77, 0
1, 21720, Note_on_c, 0, 59, 0
1, 21720, Note_on_c, 0, 55, 0
1, 21840, Note_on_c, 0, 77, 61
1, 21900, Note_on_c, 0, 77, 0
1, 22080, Tempo, 520879
1, 22080, Note_on_c, 0, 86, 62
1, 22101, Control_c, 0, 64, 127
1, 22200, Note_on_c, 0, 86, 0
1, 22200, Note_on_c, 0, 83, 57
1, 22320, Tempo, 532434
1, 22320, Note_on_c, 0, 83, 0
1, 22320, Note_on_c, 0, 77, 63
1, 22320, Note_on_c, 0, 55, 41
1, 22320, Control_c, 0, 64, 0
1, 22440, Note_on_c, 0, 77, 0
1, 22560, Note_on_c, 0, 55, 0
1, 22560, Note_on_c, 0, 59, 38
1, 22800, Tempo, 559754
1, 22800, Note_on_c, 0, 59, 0
1, 22800, Note_on_c, 0, 62, 34
1, 23040, Tempo, 534807
1, 23040, Note_on_c, 0, 62, 0
1, 23040, Note_on_c, 0, 74, 47
1, 23040, Note_on_c, 0, 55, 30
1, 23160, Note_on_c, 0, 74, 0
1, 23280, Note_on_c, 0, 55, 0
1, 23280, Note_on_c, 0, 59, 29
1, 23520, Tempo, 552029
1, 23520, Note_on_c, 0, 59, 0
1, 23520, Note_on_c, 0, 62, 24
1, 23760, Tempo, 532434
1, 23760, Note_on_c, 0, 62, 0
1, 23760, Note_on_c, 0, 71, 47
1, 23789, Tempo, 532434
1, 23827, Tempo, 530082
1, 23866, Tempo, 527751
1, 23880, Note_on_c, 0, 71, 0
1, 23880, Note_on_c, 0, 67, 39
1, 23885, Tempo, 525440
1, 23923, Tempo, 523149
1, 23943, Tempo, 520879
1, 23981, Tempo, 518627
1, 24000, Tempo, 516396
1, 24000, Note_on_c, 0, 67, 0
1, 24000, Note_on_c, 0, 69, 40
1, 24039, Tempo, 514183
1, 24058, Tempo, 511989
1, 24079, Tempo, 514183
1, 24098, Tempo, 516396
1, 24118, Tempo, 520879
1, 24120, Note_on_c, 0, 69, 0
1, 24120, Note_on_c, 0, 71, 42
1, 24137, Tempo, 523149
1, 24156, Tempo, 527751
1, 24175, Tempo, 532434
1, 24194, Tempo, 534807
1, 24214, Tempo, 539617
1, 24233, Tempo, 542054
1, 24240, Note_on_c, 0, 71, 0
1, 24240, Note_on_c, 0, 72, 44
1, 24252, Tempo, 546996
1, 24271, Tempo, 552029
1, 24290, Tempo, 554580
1, 24310, Tempo, 559754
1, 24329, Tempo, 565025
1, 24360, Tempo, 611060
1, 24360, Note_on_c, 0, 72, 0
1, 24360, Note_on_c, 0, 74, 45
1, 24480, Tempo, 520879
1, 24480, Note_on_c, 0, 74, 0
1, 24480, Note_on_c, 0, 76, 37
1, 24480, Note_on_c, 0, 48, 25
1, 24600, Note_on_c, 0, 76, 0
1, 24600, Note_on_c, 0, 74, 35
1, 24720, Tempo, 537201
1, 24720, Note_on_c, 0, 74, 0
1, 24720, Note_on_c, 0, 48, 0
1, 24720, Note_on_c, 0, 72, 37
1, 24720, Note_on_c, 0, 52, 21
1, 24780, Note_on_c, 0, 72, 0
1, 24960, Tempo, 573121
1, 24960, Note_on_c, 0, 52, 0
1, 24960, Note_on_c, 0, 72, 35
1, 24960, Note_on_c, 0, 55, 21
1, 25020, Note_on_c, 0, 72, 0
1, 25200, Tempo, 532434
1, 25200, Note_on_c, 0, 55, 0
1, 25200, Note_on_c, 0, 79, 47
1, 25200, Note_on_c, 0, 48, 25
1, 25264, Control_c, 0, 64, 127
1, 25440, Note_on_c, 0, 48, 0
1, 25440, Note_on_c, 0, 52, 23
1, 25680, Note_on_c, 0, 52, 0
1, 25680, Note_on_c, 0, 79, 0
1, 25680, Note_on_c, 0, 77, 37
1, 25680, Note_on_c, 0, 55, 23
1, 25694, Control_c, 0, 64, 0
1, 25751, Control_c, 0, 64, 127
1, 25800, Note_on_c, 0, 77, 0
1, 25800, Note_on_c, 0, 76, 34
1, 25920, Note_on_c, 0, 76, 0
1, 25920, Note_on_c, 0, 55, 0
1, 25920, Note_on_c, 0, 74, 41
1, 25920, Note_on_c, 0, 48, 25
1, 25920, Control_c, 0, 64, 0
1, 26160, Note_on_c, 0, 48, 0
1, 26160, Note_on_c, 0, 74, 0
1, 26160, Note_on_c, 0, 77, 37
1, 26160, Note_on_c, 0, 50, 20
1, 26400, Tempo, 546996
1, 26400, Note_on_c, 0, 50, 0
1, 26400, Note_on_c, 0, 77, 0
1, 26400, Note_on_c, 0, 71, 35
1, 26400, Note_on_c, 0, 53, 20
1, 26640, Tempo, 530082
1, 26640, Note_on_c, 0, 53, 0
1, 26640, Note_on_c, 0, 71, 0
1, 26640, Note_on_c, 0, 72, 40
1, 26640, Note_on_c, 0, 48, 25
1, 26683, Control_c, 0, 64, 127
1, 26880, Note_on_c, 0, 48, 0
1, 26880, Note_on_c, 0, 72, 0
1, 26880, Note_on_c, 0, 67, 37
1, 26880, Note_on_c, 0, 52, 23
1, 26899, Control_c, 0, 64, 0
1, 27000, Note_on_c, 0, 67, 0
1, 27120, Note_on_c, 0, 52, 0
1, 27120, Note_on_c, 0, 67, 37
1, 27120, Note_on_c, 0, 55, 23
1, 27240, Note_on_c, 0, 67, 0
1, 27360, Tempo, 516396
1, 27360, Note_on_c, 0, 55, 0
1, 27360, Note_on_c, 0, 76, 37
1, 27360, Note_on_c, 0, 48, 25
1, 27480, Note_on_c, 0, 76, 0
1, 27480, Note_on_c, 0, 74, 35
1, 27600, Tempo, 534807
1, 27600, Note_on_c, 0, 74, 0
1, 27600, Note_on_c, 0, 48, 0
1, 27600, Note_on_c, 0, 72, 37
1, 27600, Note_on_c, 0, 52, 21
1, 27660, Note_on_c, 0, 72, 0
1, 27840, Tempo, 573121
1, 27840, Note_on_c, 0, 52, 0
1, 27840, Note_on_c, 0, 72, 35
1, 27840, Note_on_c, 0, 55, 21
1, 27900, Note_on_c, 0, 72, 0
1, 28080, Tempo, 532434
1, 28080, Note_on_c, 0, 55, 0
1, 28080, Note_on_c, 0, 79, 47
1, 28080, Note_on_c, 0, 48, 25
1, 28179, Control_c, 0, 64, 127
1, 28320, Note_on_c, 0, 48, 0
1, 28320, Note_on_c, 0, 52, 23
1, 28560, Note_on_c, 0, 52, 0
1, 28560, Note_on_c, 0, 79, 0
1, 28560, Note_on_c, 0, 77, 37
1, 28560, Note_on_c, 0, 55, 23
1, 28573, Control_c, 0, 64, 0
1, 28659, Control_c, 0, 64, 127
1, 28680, Note_on_c, 0, 77, 0
1, 28680, Note_on_c, 0, 76, 34
1, 28762, Tempo, 530082
1, 28800, Note_on_c, 0, 76, 0
1, 28800, Note_on_c, 0, 55, 0
1, 28800, Note_on_c, 0, 74, 41
1, 28800, Note_on_c, 0, 43, 25
1, 28800, Control_c, 0, 64, 0
1, 28858, Tempo, 527751
1, 28878, Control_c, 0, 64, 127
1, 28920, Note_on_c, 0, 74, 0
1, 28920, Note_on_c, 0, 76, 36
1, 28954, Tempo, 525440
1, 29040, Note_on_c, 0, 76, 0
1, 29040, Note_on_c, 0, 43, 0
1, 29040, Note_on_c, 0, 77, 40
1, 29040, Note_on_c, 0, 50, 20
1, 29050, Tempo, 523149
1, 29055, Control_c, 0, 64, 0
1, 29139, Control_c, 0, 64, 127
1, 29146, Tempo, 520879
1, 29160, Note_on_c, 0, 77, 0
1, 29160, Note_on_c, 0, 76, 35
1, 29280, Note_on_c, 0, 76, 0
1, 29280, Note_on_c, 0, 50, 0
1, 29280, Note_on_c, 0, 77, 35
1, 29280, Note_on_c, 0, 55, 20
1, 29299, Control_c, 0, 64, 0
1, 29351, Control_c, 0, 64, 127
1, 29400, Tempo, 562377
1, 29400, Note_on_c, 0, 77, 0
1, 29400, Note_on_c, 0, 74, 32
1, 29520, Tempo, 530082
1, 29520, Note_on_c, 0, 74, 0
1, 29520, Note_on_c, 0, 55, 0
1, 29520, Note_on_c, 0, 72, 40
1, 29520, Note_on_c, 0, 48, 25
1, 29520, Control_c, 0, 64, 0
1, 29614, Control_c, 0, 64, 127
1, 29760, Note_on_c, 0, 48, 0
1, 29760, Note_on_c, 0, 72, 0
1, 29760, Note_on_c, 0, 52, 20
1, 29780, Control_c, 0, 64, 0
1, 30000, Note_on_c, 0, 52, 0
1, 30000, Note_on_c, 0, 55, 20
1, 30240, Tempo, 514183
1, 30240, Note_on_c, 0, 55, 0
1, 30240, Note_on_c, 0, 76, 67
1, 30240, Note_on_c, 0, 48, 45
1, 30360, Note_on_c, 0, 76, 0
1, 30360, Note_on_c, 0, 74, 62
1, 30480, Tempo, 527751
1, 30480, Note_on_c, 0, 74, 0
1, 30480, Note_on_c, 0, 48, 0
1, 30480, Note_on_c, 0, 72, 67
1, 30480, Note_on_c, 0, 52, 39
1, 30540, Note_on_c, 0, 72, 0
1, 30720, Tempo, 587142
1, 30720, Note_on_c, 0, 52, 0
1, 30720, Note_on_c, 0, 72, 63
1, 30720, Note_on_c, 0, 55, 39
1, 30780, Note_on_c, 0, 72, 0
1, 30960, Tempo, 527751
1, 30960, Note_on_c, 0, 55, 0
1, 30960, Note_on_c, 0, 79, 78
1, 30960, Note_on_c, 0, 48, 45
1, 31017, Control_c, 0, 64, 127
1, 31200, Note_on_c, 0, 48, 0
1, 31200, Note_on_c, 0, 52, 41
1, 31440, Note_on_c, 0, 52, 0
1, 31440, Note_on_c, 0, 79, 0
1, 31440, Note_on_c, 0, 77, 67
1, 31440, Note_on_c, 0, 55, 41
1, 31450, Control_c, 0, 64, 0
1, 31511, Control_c, 0, 64, 127
1, 31560, Note_on_c, 0, 77, 0
1, 31560, Note_on_c, 0, 76, 60
1, 31680, Note_on_c, 0, 76, 0
1, 31680, Note_on_c, 0, 55, 0
1, 31680, Note_on_c, 0, 74, 74
1, 31680, Note_on_c, 0, 48, 45
1, 31687, Control_c, 0, 64, 0
1, 31920, Note_on_c, 0, 48, 0
1, 31920, Note_on_c, 0, 74, 0
1, 31920, Note_on_c, 0, 77, 67
1, 31920, Note_on_c, 0, 50, 38
1, 32160, Tempo, 544514
1, 32160, Note_on_c, 0, 50, 0
1, 32160, Note_on_c, 0, 77, 0
1, 32160, Note_on_c, 0, 71, 63
1, 32160, Note_on_c, 0, 53, 38
1, 32400, Tempo, 523149
1, 32400, Note_on_c, 0, 53, 0
1, 32400, Note_on_c, 0, 71, 0
1, 32400, Note_on_c, 0, 72, 71
1, 32400, Note_on_c, 0, 48, 45
1, 32471, Control_c, 0, 64, 127
1, 32640, Note_on_c, 0, 48, 0
1, 32640, Note_on_c, 0, 72, 0
1, 32640, Note_on_c, 0, 67, 67
1, 32640, Note_on_c, 0, 52, 41
1, 32656, Control_c, 0, 64, 0
1, 32760, Note_on_c, 0, 67, 0
1, 32880, Note_on_c, 0, 52, 0
1, 32880, Note_on_c, 0, 67, 67
1, 32880, Note_on_c, 0, 55, 41
1, 33000, Note_on_c, 0, 67, 0
1, 33120, Tempo, 509814
1, 33120, Note_on_c, 0, 55, 0
1, 33120, Note_on_c, 0, 76, 67
1, 33120, Note_on_c, 0, 48, 45
1, 33240, Note_on_c, 0, 76, 0
1, 33240, Note_on_c, 0, 74, 62
1, 33360, Tempo, 523149
1, 33360, Note_on_c, 0, 74, 0
1, 33360, Note_on_c, 0, 48, 0
1, 33360, Note_on_c, 0, 72, 67
1, 33360, Note_on_c, 0, 52, 39
1, 33420, Note_on_c, 0, 72, 0
1, 33600, Tempo, 567698
1, 33600, Note_on_c, 0, 52, 0
1, 33600, Note_on_c, 0, 72, 63
1, 33600, Note_on_c, 0, 55, 39
1, 33660, Note_on_c, 0, 72, 0
1, 33840, Tempo, 523149
1, 33840, Note_on_c, 0, 55, 0
1, 33840, Note_on_c, 0, 79, 78
1, 33840, Note_on_c, 0, 48, 45
1, 33911, Control_c, 0, 64, 127
1, 34080, Note_on_c, 0, 48, 0
1, 34080, Note_on_c, 0, 52, 41
1, 34320, Note_on_c, 0, 52, 0
1, 34320, Note_on_c, 0, 79, 0
1, 34320, Note_on_c, 0, 77, 67
1, 34320, Note_on_c, 0, 55, 41
1, 34332, Control_c, 0, 64, 0
1, 34419, Control_c, 0, 64, 127
1, 34440, Note_on_c, 0, 77, 0
1, 34440, Note_on_c, 0, 76, 60
1, 34560, Note_on_c, 0, 76, 0
1, 34560, Note_on_c, 0, 55, 0
1, 34560, Note_on_c, 0, 74, 74
1, 34560, Note_on_c, 0, 43, 45
1, 34576, Control_c, 0, 64, 0
1, 34645, Control_c, 0, 64, 127
1, 34680, Note_on_c, 0, 74, 0
1, 34680, Note_on_c, 0, 76, 64
1, 34800, Tempo, 516396
1, 34800, Note_on_c, 0, 76, 0
1, 34800, Note_on_c, 0, 43, 0
1, 34800, Note_on_c, 0, 77, 71
1, 34800, Note_on_c, 0, 50, 38
1, 34817, Control_c, 0, 64, 0
1, 34899, Control_c, 0, 64, 127
1, 34920, Note_on_c, 0, 77, 0
1, 34920, Note_on_c, 0, 76, 63
1, 35040, Note_on_c, 0, 76, 0
1, 35040, Note_on_c, 0, 50, 0
1, 35040, Note_on_c, 0, 77, 63
1, 35040, Note_on_c, 0, 55, 38
1, 35061, Control_c, 0, 64, 0
1, 35118, Control_c, 0, 64, 127
1, 35160, Tempo, 570396
1, 35160, Note_on_c, 0, 77, 0
1, 35160, Note_on_c, 0, 74, 58
1, 35280, Tempo, 520879
1, 35280, Note_on_c, 0, 74, 0
1, 35280, Note_on_c, 0, 55, 0
1, 35280, Note_on_c, 0, 72, 71
1, 35280, Note_on_c, 0, 48, 45
1, 35280, Control_c, 0, 64, 0
1, 35387, Control_c, 0, 64, 127
1, 35520, Note_on_c, 0, 48, 0
1, 35520, Note_on_c, 0, 72, 0
1, 35520, Note_on_c, 0, 52, 38
1, 35534, Control_c, 0, 64, 0
1, 35760, Note_on_c, 0, 52, 0
1, 35760, Note_on_c, 0, 55, 38
1, 36000, Tempo, 505519
1, 36000, Note_on_c, 0, 55, 0
1, 36000, Note_on_c, 0, 67, 42
1, 36000, Note_on_c, 0, 60, 28
1, 36120, Note_on_c, 0, 67, 0
1, 36120, Note_on_c, 0, 65, 39
1, 36240, Tempo, 516396
1, 36240, Note_on_c, 0, 65, 0
1, 36240, Note_on_c, 0, 64, 42
1, 36360, Note_on_c, 0, 64, 0
1, 36480, Note_on_c, 0, 60, 0
1, 36480, Note_on_c, 0, 64, 39
1, 36600, Note_on_c, 0, 64, 0
1, 36720, Tempo, 503398
1, 36720, Note_on_c, 0, 69, 42
1, 36720, Note_on_c, 0, 60, 28
1, 36840, Note_on_c, 0, 69, 0
1, 36840, Note_on_c, 0, 67, 39
1, 36960, Tempo, 518627
1, 36960, Note_on_c, 0, 67, 0
1, 36960, Note_on_c, 0, 65, 42
1, 37080, Note_on_c, 0, 65, 0
1, 37200, Note_on_c, 0, 60, 0
1, 37200, Note_on_c, 0, 65, 39
1, 37320, Note_on_c, 0, 65, 0
1, 37440, Note_on_c, 0, 62, 63
1, 37440, Note_on_c, 0, 60, 45
1, 37525, Control_c, 0, 64, 127
1, 37560, Note_on_c, 0, 62, 0
1, 37560, Note_on_c, 0, 65, 57
1, 37680, Tempo, 509814
1, 37680, Note_on_c, 0, 65, 0
1, 37680, Note_on_c, 0, 60, 0
1, 37680, Note_on_c, 0, 71, 63
1, 37680, Note_on_c, 0, 60, 39
1, 37800, Note_on_c, 0, 71, 0
1, 37800, Note_on_c, 0, 65, 55
1, 37920, Note_on_c, 0, 65, 0
1, 37920, Note_on_c, 0, 60, 0
1, 37920, Note_on_c, 0, 71, 62
1, 37920, Note_on_c, 0, 60, 39
1, 38040, Tempo, 567698
1, 38040, Note_on_c, 0, 71, 0
1, 38040, Note_on_c, 0, 65, 55
1, 38160, Tempo, 525440
1, 38160, Note_on_c, 0, 65, 0
1, 38160, Note_on_c, 0, 60, 0
1, 38160, Note_on_c, 0, 64, 63
1, 38160, Note_on_c, 0, 60, 45
1, 38160, Control_c, 0, 64, 0
1, 38280, Control_c, 0, 64, 127
1, 38400, Note_on_c, 0, 60, 0
1, 38400, Note_on_c, 0, 64, 0
1, 38400, Note_on_c, 0, 55, 39
1, 38417, Control_c, 0, 64, 0
1, 38640, Note_on_c, 0, 55, 0
1, 38640, Note_on_c, 0, 76, 64
1, 38640, Note_on_c, 0, 52, 39
1, 38725, Control_c, 0, 64, 127
1, 38760, Note_on_c, 0, 76, 0
1, 38760, Note_on_c, 0, 77, 67
1, 38880, Tempo, 514183
1, 38880, Note_on_c, 0, 77, 0
1, 38880, Note_on_c, 0, 52, 0
1, 38880, Note_on_c, 0, 79, 71
1, 38880, Note_on_c, 0, 48, 45
1, 38880, Control_c, 0, 64, 0
1, 38882, Tempo, 520879
1, 38940, Tempo, 518627
1, 38958, Control_c, 0, 64, 127
1, 38997, Tempo, 516396
1, 39000, Note_on_c, 0, 79, 0
1, 39000, Note_on_c, 0, 77, 66
1, 39055, Tempo, 514183
1, 39113, Tempo, 511989
1, 39120, Note_on_c, 0, 77, 0
1, 39120, Note_on_c, 0, 48, 0
1, 39120, Note_on_c, 0, 76, 68
1, 39120, Note_on_c, 0, 50, 39
1, 39141, Control_c, 0, 64, 0
1, 39170, Tempo, 509814
1, 39219, Control_c, 0, 64, 127
1, 39240, Note_on_c, 0, 76, 0
1, 39240, Note_on_c, 0, 74, 63
1, 39360, Note_on_c, 0, 74, 0
1, 39360, Note_on_c, 0, 50, 0
1, 39360, Note_on_c, 0, 72, 65
1, 39360, Note_on_c, 0, 52, 39
1, 39373, Control_c, 0, 64, 0
1, 39381, Tempo, 511989
1, 39431, Control_c, 0, 64, 127
1, 39480, Note_on_c, 0, 72, 0
1, 39480, Note_on_c, 0, 71, 63
1, 39593, Tempo, 514183
1, 39600, Note_on_c, 0, 71, 0
1, 39600, Note_on_c, 0, 52, 0
1, 39600, Note_on_c, 0, 69, 63
1, 39600, Note_on_c, 0, 53, 45
1, 39600, Control_c, 0, 64, 0
1, 39720, Note_on_c, 0, 67, 61
1, 39732, Note_on_c, 0, 69, 0
1, 39746, Tempo, 511989
1, 39840, Note_on_c, 0, 65, 63
1, 39852, Note_on_c, 0, 67, 0
1, 39900, Tempo, 509814
1, 39960, Note_on_c, 0, 64, 60
1, 39972, Note_on_c, 0, 65, 0
1, 39996, Tempo, 511989
1, 40073, Tempo, 514183
1, 40080, Note_on_c, 0, 53, 0
1, 40080, Note_on_c, 0, 62, 63
1, 40092, Note_on_c, 0, 64, 0
1, 40149, Tempo, 516396
1, 40200, Note_on_c, 0, 60, 62
1, 40212, Note_on_c, 0, 62, 0
1, 40226, Tempo, 518627
1, 40303, Tempo, 520879
1, 40320, Note_on_c, 0, 59, 63
1, 40320, Note_on_c, 0, 43, 45
1, 40332, Note_on_c, 0, 60, 0
1, 40341, Tempo, 523149
1, 40437, Tempo, 520879
1, 40440, Note_on_c, 0, 60, 57
1, 40452, Note_on_c, 0, 59, 0
1, 40514, Tempo, 518627
1, 40560, Note_on_c, 0, 62, 63
1, 40572, Note_on_c, 0, 60, 0
1, 40591, Tempo, 516396
1, 40649, Tempo, 514183
1, 40668, Tempo, 516396
1, 40680, Note_on_c, 0, 64, 55
1, 40687, Tempo, 518627
1, 40692, Note_on_c, 0, 62, 0
1, 40706, Tempo, 520879
1, 40725, Tempo, 523149
1, 40745, Tempo, 525440
1, 40764, Tempo, 527751
1, 40783, Tempo, 530082
1, 40800, Note_on_c, 0, 43, 0
1, 40800, Note_on_c, 0, 65, 62
1, 40802, Tempo, 532434
1, 40812, Note_on_c, 0, 64, 0
1, 40821, Tempo, 534807
1, 40841, Tempo, 537201
1, 40860, Tempo, 539617
1, 40879, Tempo, 542054
1, 40898, Tempo, 544514
1, 40917, Tempo, 546996
1, 40920, Note_on_c, 0, 62, 55
1, 40932, Note_on_c, 0, 65, 0
1, 40937, Tempo, 549501
1, 40956, Tempo, 552029
1, 40975, Tempo, 554580
1, 40994, Tempo, 559754
1, 41040, Tempo, 534807
1, 41040, Note_on_c, 0, 60, 71
1, 41040, Note_on_c, 0, 48, 45
1, 41052, Note_on_c, 0, 62, 0
1, 41080, Control_c, 0, 64, 127
1, 41280, Note_on_c, 0, 48, 0
1, 41280, Note_on_c, 0, 60, 0
1, 41280, Note_on_c, 0, 52, 38
1, 41298, Control_c, 0, 64, 0
1, 41520, Tempo, 549501
1, 41520, Note_on_c, 0, 52, 0
1, 41520, Note_on_c, 0, 55, 38
1, 41760, Tempo, 509814
1, 41760, Note_on_c, 0, 55, 0
1, 41760, Note_on_c, 0, 67, 42
1, 41760, Note_on_c, 0, 60, 28
1, 41880, Note_on_c, 0, 67, 0
1, 41880, Note_on_c, 0, 65, 39
1, 42000, Tempo, 518627
1, 42000, Note_on_c, 0, 65, 0
1, 42000, Note_on_c, 0, 64, 42
1, 42120, Note_on_c, 0, 64, 0
1, 42240, Tempo, 546996
1, 42240, Note_on_c, 0, 60, 0
1, 42240, Note_on_c, 0, 64, 39
1, 42360, Note_on_c, 0, 64, 0
1, 42480, Tempo, 509814
1, 42480, Note_on_c, 0, 69, 42
1, 42480, Note_on_c, 0, 60, 28
1, 42600, Note_on_c, 0, 69, 0
1, 42600, Note_on_c, 0, 67, 39
1, 42720, Tempo, 520879
1, 42720, Note_on_c, 0, 67, 0
1, 42720, Note_on_c, 0, 65, 42
1, 42840, Note_on_c, 0, 65, 0
1, 42960, Tempo, 546996
1, 42960, Note_on_c, 0, 60, 0
1, 42960, Note_on_c, 0, 65, 39
1, 43080, Note_on_c, 0, 65, 0
1, 43200, Tempo, 520879
1, 43200, Note_on_c, 0, 62, 63
1, 43200, Note_on_c, 0, 60, 45
1, 43292, Control_c, 0, 64, 127
1, 43320, Note_on_c, 0, 62, 0
1, 43320, Note_on_c, 0, 65, 57
1, 43440, Tempo, 509814
1, 43440, Note_on_c, 0, 65, 0
1, 43440, Note_on_c, 0, 60, 0
1, 43440, Note_on_c, 0, 71, 63
1, 43440, Note_on_c, 0, 60, 39
1, 43560, Note_on_c, 0, 71, 0
1, 43560, Note_on_c, 0, 65, 55
1, 43680, Note_on_c, 0, 65, 0
1, 43680, Note_on_c, 0, 60, 0
1, 43680, Note_on_c, 0, 71, 62
1, 43680, Note_on_c, 0, 60, 39
1, 43800, Tempo, 567698
1, 43800, Note_on_c, 0, 71, 0
1, 43800, Note_on_c, 0, 65, 55
1, 43920, Tempo, 520879
1, 43920, Note_on_c, 0, 65, 0
1, 43920, Note_on_c, 0, 60, 0
1, 43920, Note_on_c, 0, 64, 63
1, 43920, Note_on_c, 0, 60, 45
1, 43920, Control_c, 0, 64, 0
1, 44005, Control_c, 0, 64, 127
1, 44160, Note_on_c, 0, 60, 0
1, 44160, Note_on_c, 0, 64, 0
1, 44160, Note_on_c, 0, 55, 39
1, 44176, Control_c, 0, 64, 0
1, 44400, Note_on_c, 0, 55, 0
1, 44400, Note_on_c, 0, 76, 64
1, 44400, Note_on_c, 0, 52, 39
1, 44464, Control_c, 0, 64, 127
1, 44520, Note_on_c, 0, 76, 0
1, 44520, Note_on_c, 0, 77, 67
1, 44604, Tempo, 525440
1, 44640, Note_on_c, 0, 77, 0
1, 44640, Note_on_c, 0, 52, 0
1, 44640, Note_on_c, 0, 79, 71
1, 44640, Note_on_c, 0, 48, 45
1, 44648, Control_c, 0, 64, 0
1, 44700, Tempo, 523149
1, 44704, Control_c, 0, 64, 127
1, 44760, Note_on_c, 0, 79, 0
1, 44760, Note_on_c, 0, 77, 66
1, 44796, Tempo, 520879
1, 44880, Note_on_c, 0, 77, 0
1, 44880, Note_on_c, 0, 48, 0
1, 44880, Note_on_c, 0, 76, 68
1, 44880, Note_on_c, 0, 50, 39
1, 44892, Tempo, 518627
1, 44897, Control_c, 0, 64, 0
1, 44972, Control_c, 0, 64, 127
1, 44988, Tempo, 516396
1, 45000, Note_on_c, 0, 76, 0
1, 45000, Note_on_c, 0, 74, 63
1, 45084, Tempo, 514183
1, 45120, Note_on_c, 0, 74, 0
1, 45120, Note_on_c, 0, 50, 0
1, 45120, Note_on_c, 0, 72, 65
1, 45120, Note_on_c, 0, 52, 39
1, 45134, Control_c, 0, 64, 0
1, 45161, Tempo, 516396
1, 45184, Control_c, 0, 64, 127
1, 45237, Tempo, 518627
1, 45240, Note_on_c, 0, 72, 0
1, 45240, Note_on_c, 0, 71, 63
1, 45314, Tempo, 520879
1, 45360, Note_on_c, 0, 71, 0
1, 45360, Note_on_c, 0, 52, 0
1, 45360, Note_on_c, 0, 69, 63
1, 45360, Note_on_c, 0, 53, 47
1, 45368, Control_c, 0, 64, 0
1, 45372, Tempo, 525440
1, 45438, Control_c, 0, 64, 127
1, 45480, Note_on_c, 0, 69, 0
1, 45480, Note_on_c, 0, 67, 61
1, 45545, Tempo, 523149
1, 45600, Note_on_c, 0, 67, 0
1, 45600, Note_on_c, 0, 53, 0
1, 45600, Note_on_c, 0, 65, 63
1, 45600, Note_on_c, 0, 53, 39
1, 45614, Control_c, 0, 64, 0
1, 45678, Control_c, 0, 64, 127
1, 45698, Tempo, 520879
1, 45720, Note_on_c, 0, 65, 0
1, 45720, Note_on_c, 0, 64, 60
1, 45840, Note_on_c, 0, 64, 0
1, 45840, Note_on_c, 0, 53, 0
1, 45840, Note_on_c, 0, 62, 63
1, 45840, Note_on_c, 0, 53, 39
1, 45852, Control_c, 0, 64, 0
1, 45871, Tempo, 518627
1, 45918, Control_c, 0, 64, 127
1, 45960, Note_on_c, 0, 62, 0
1, 45960, Note_on_c, 0, 60, 62
1, 46025, Tempo, 516396
1, 46080, Note_on_c, 0, 60, 0
1, 46080, Note_on_c, 0, 53, 0
1, 46080, Note_on_c, 0, 59, 63
1, 46080, Note_on_c, 0, 43, 48
1, 46089, Control_c, 0, 64, 0
1, 46151, Control_c, 0, 64, 127
1, 46159, Tempo, 518627
1, 46200, Note_on_c, 0, 59, 0
1, 46200, Note_on_c, 0, 60, 57
1, 46293, Tempo, 520879
1, 46320, Note_on_c, 0, 60, 0
1, 46320, Note_on_c, 0, 43, 0
1, 46320, Note_on_c, 0, 62, 63
1, 46320, Note_on_c, 0, 43, 41
1, 46337, Control_c, 0, 64, 0
1, 46426, Control_c, 0, 64, 127
1, 46428, Tempo, 523149
1, 46440, Note_on_c, 0, 62, 0
1, 46440, Note_on_c, 0, 64, 55
1, 46560, Note_on_c, 0, 64, 0
1, 46560, Note_on_c, 0, 43, 0
1, 46560, Note_on_c, 0, 65, 62
1, 46560, Note_on_c, 0, 43, 42
1, 46562, Tempo, 525440
1, 46576, Control_c, 0, 64, 0
1, 46601, Tempo, 527751
1, 46620, Tempo, 530082
1, 46645, Control_c, 0, 64, 127
1, 46658, Tempo, 532434
1, 46677, Tempo, 534807
1, 46680, Note_on_c, 0, 65, 0
1, 46680, Note_on_c, 0, 62, 55
1, 46716, Tempo, 537201
1, 46735, Tempo, 539617
1, 46773, Tempo, 542054
1, 46793, Tempo, 544514
1, 46800, Tempo, 532434
1, 46800, Note_on_c, 0, 62, 0
1, 46800, Note_on_c, 0, 43, 0
1, 46800, Note_on_c, 0, 60, 76
1, 46800, Note_on_c, 0, 48, 53
1, 46802, Control_c, 0, 64, 0
1, 46960, Control_c, 0, 64, 127
1, 47040, Tempo, 544514
1, 47040, Note_on_c, 0, 48, 0
1, 47040, Note_on_c, 0, 60, 0
1, 47040, Note_on_c, 0, 52, 40
1, 47280, Note_on_c, 0, 52, 0
1, 47280, Note_on_c, 0, 55, 40
1, 47520, Tempo, 534807
1, 47520, Note_on_c, 0, 55, 0
1, 47520, Note_on_c, 0, 67, 76
1, 47520, Note_on_c, 0, 64, 69
1, 47520, Note_on_c, 0, 48, 53
1, 47520, Control_c, 0, 64, 0
1, 47694, Control_c, 0, 64, 127
1, 47760, Tempo, 546996
1, 47760, Note_on_c, 0, 48, 0
1, 47760, Note_on_c, 0, 64, 0
1, 47760, Note_on_c, 0, 67, 0
1, 47760, Note_on_c, 0, 52, 40
1, 48000, Note_on_c, 0, 52, 0
1, 48000, Note_on_c, 0, 55, 40
1, 48240, Note_on_c, 0, 55, 0
1, 48240, Note_on_c, 0, 67, 69
1, 48240, Note_on_c, 0, 72, 76
1, 48240, Note_on_c, 0, 64, 69
1, 48240, Note_on_c, 0, 48, 53
1, 48247, Control_c, 0, 64, 0
1, 48480, Note_on_c, 0, 48, 0
1, 48480, Note_on_c, 0, 67, 0
1, 48480, Note_on_c, 0, 72, 0
1, 48480, Note_on_c, 0, 64, 0
1, 48480, Note_on_c, 0, 52, 40
1, 48480, Control_c, 0, 64, 127
1, 48720, Tempo, 581452
1, 48720, Note_on_c, 0, 52, 0
1, 48720, Note_on_c, 0, 55, 40
1, 48960, Tempo, 565025
1, 48960, Note_on_c, 0, 55, 0
1, 48960, Note_on_c, 0, 79, 76
1, 48960, Note_on_c, 0, 76, 69
1, 48960, Note_on_c, 0, 48, 53
1, 48965, Control_c, 0, 64, 0
1, 49094, Control_c, 0, 64, 127
1, 49200, Note_on_c, 0, 48, 0
1, 49200, Note_on_c, 0, 76, 0
1, 49200, Note_on_c, 0, 79, 0
1, 49200, Note_on_c, 0, 52, 40
1, 49440, Tempo, 617347
1, 49440, Note_on_c, 0, 52, 0
1, 49440, Note_on_c, 0, 55, 40
1, 49680, Note_on_c, 0, 55, 0
1, 49680, Note_on_c, 0, 79, 75
1, 49680, Note_on_c, 0, 84, 83
1, 49680, Note_on_c, 0, 76, 75
1, 49680, Note_on_c, 0, 48, 53
1, 49680, Control_c, 0, 64, 0
1, 49814, Control_c, 0, 64, 127
1, 50160, Note_on_c, 0, 48, 0
1, 50160, Note_on_c, 0, 79, 0
1, 50160, Note_on_c, 0, 84, 0
1, 50160, Note_on_c, 0, 76, 0
1, 50880, Control_c, 0, 64, 0
1, 50880, End_track
0, 0, End_of_file
