0, 0, Header, 0, 1, 480
1, 0, Start_track
1, 0, Title_t, "Suite bergamasque"
1, 0, Title_t, "Clair de Lune"
1, 0, Copyright_t, "Copyright © 1998 von Bernd Krüger. http://www.piano-midi.de"
1, 0, Text_t, "Claude Debussy"
1, 0, Text_t, "Andante tres expressif"
1, 0, Text_t, "Fertiggestellt am 6.8.98\012"
1, 0, Text_t, "Korrekturen am 20.8.98\012"
1, 0, Text_t, "Beide Tracks auf Kanal 1 am 9.11.98\012"
1, 0, Text_t, "Update am 21.4.99\012"
1, 0, Text_t, "Normierung: 23.12.2002\012"
1, 0, Text_t, "Update am 20.8.2011\012"
1, 0, Text_t, "Dauer: 4:07 Minuten\012"
1, 0, Time_signature, 9, 3, 12, 8
1, 0, Key_signature, -5, "major"
1, 0, Tempo, 600000
1, 0, Marker_t, "Andante tres expressif"
1, 0, Program_c, 0, 0
1, 0, Control_c, 0, 7, 100
1, 0, Control_c, 0, 10, 64
1, 0, Control_c, 0, 91, 127
1, 0, Control_c, 0, 64, 0
1, 0, Control_c, 0, 91, 127
1, 0, Text_t, "bdca426d104a26ac9dcb070447587523"
1, 0, Program_c, 0, 0
1, 0, Control_c, 0, 7, 100
1, 0, Control_c, 0, 10, 64
1, 0, Control_c, 0, 91, 127
1, 240, Tempo, 1875000
1, 240, Control_c, 0, 64, 127
1, 240, Note_on_c, 0, 65, 36
1, 240, Note_on_c, 0, 68, 43
1, 480, Tempo, 888889
1, 480, Note_on_c, 0, 80, 43
1, 480, Note_on_c, 0, 77, 36
1, 1440, Note_on_c, 0, 77, 0
1, 1440, Note_on_c, 0, 80, 0
1, 1440, Note_on_c, 0, 77, 39
1, 1440, Note_on_c, 0, 73, 33
1, 2160, Tempo, 821918
1, 2160, Note_on_c, 0, 68, 0
1, 2160, Note_on_c, 0, 65, 0
1, 2160, Control_c, 0, 64, 0
1, 2160, Note_on_c, 0, 69, 36
1, 2160, Note_on_c, 0, 66, 30
1, 2400, Tempo, 789474
1, 2400, Note_on_c, 0, 77, 0
1, 2400, Note_on_c, 0, 73, 0
1, 2400, Note_on_c, 0, 72, 31
1, 2400, Note_on_c, 0, 75, 37
1, 2640, Tempo, 863309
1, 2640, Note_on_c, 0, 75, 0
1, 2640, Note_on_c, 0, 72, 0
1, 2640, Note_on_c, 0, 73, 27
1, 2640, Note_on_c, 0, 77, 32
1, 2880, Tempo, 845070
1, 2880, Note_on_c, 0, 77, 0
1, 2880, Note_on_c, 0, 73, 0
1, 2880, Note_on_c, 0, 75, 30
1, 2880, Note_on_c, 0, 72, 25
1, 4320, Tempo, 869565
1, 4320, Note_on_c, 0, 69, 0
1, 4320, Note_on_c, 0, 66, 0
1, 4320, Note_on_c, 0, 65, 33
1, 4320, Note_on_c, 0, 68, 39
1, 4560, Tempo, 827586
1, 4560, Note_on_c, 0, 75, 0
1, 4560, Note_on_c, 0, 72, 0
1, 4560, Note_on_c, 0, 73, 40
1, 4560, Note_on_c, 0, 70, 34
1, 4800, Tempo, 800000
1, 4800, Note_on_c, 0, 70, 0
1, 4800, Note_on_c, 0, 73, 0
1, 4800, Note_on_c, 0, 75, 34
1, 4800, Note_on_c, 0, 72, 28
1, 5040, Tempo, 895522
1, 5040, Note_on_c, 0, 72, 0
1, 5040, Note_on_c, 0, 75, 0
1, 5040, Note_on_c, 0, 70, 27
1, 5040, Note_on_c, 0, 73, 32
1, 5132, Control_c, 0, 64, 127
1, 5400, Note_on_c, 0, 73, 0
1, 5400, Note_on_c, 0, 77, 46
1, 5520, Tempo, 863309
1, 6120, Note_on_c, 0, 77, 0
1, 6120, Note_on_c, 0, 73, 45
1, 6480, Tempo, 839161
1, 6480, Note_on_c, 0, 65, 0
1, 6480, Note_on_c, 0, 68, 0
1, 6480, Control_c, 0, 64, 0
1, 6480, Note_on_c, 0, 63, 32
1, 6480, Note_on_c, 0, 66, 38
1, 6713, Control_c, 0, 64, 127
1, 6720, Tempo, 805369
1, 6720, Note_on_c, 0, 70, 0
1, 6720, Note_on_c, 0, 73, 0
1, 6720, Note_on_c, 0, 72, 34
1, 6720, Note_on_c, 0, 68, 28
1, 6960, Tempo, 833333
1, 6960, Note_on_c, 0, 68, 0
1, 6960, Note_on_c, 0, 72, 0
1, 6960, Note_on_c, 0, 70, 26
1, 6960, Note_on_c, 0, 73, 31
1, 7200, Tempo, 845070
1, 7200, Note_on_c, 0, 73, 0
1, 7200, Note_on_c, 0, 70, 0
1, 7200, Note_on_c, 0, 72, 27
1, 7200, Note_on_c, 0, 68, 22
1, 7221, Control_c, 0, 64, 0
1, 8636, Note_on_c, 0, 66, 0
1, 8640, Note_on_c, 0, 63, 0
1, 8640, Note_on_c, 0, 66, 33
1, 8640, Note_on_c, 0, 63, 37
1, 8640, Note_on_c, 0, 61, 31
1, 8880, Tempo, 827586
1, 8880, Note_on_c, 0, 72, 0
1, 8880, Note_on_c, 0, 68, 0
1, 8880, Note_on_c, 0, 70, 39
1, 9100, Tempo, 800000
1, 9120, Note_on_c, 0, 70, 0
1, 9120, Note_on_c, 0, 72, 36
1, 9360, Tempo, 816327
1, 9360, Note_on_c, 0, 72, 0
1, 9360, Note_on_c, 0, 70, 36
1, 9586, Control_c, 0, 64, 127
1, 9600, Tempo, 759494
1, 9600, Note_on_c, 0, 70, 0
1, 9600, Note_on_c, 0, 75, 39
1, 9840, Tempo, 789474
1, 9840, Note_on_c, 0, 75, 0
1, 9840, Note_on_c, 0, 70, 37
1, 10080, Tempo, 779221
1, 10080, Note_on_c, 0, 70, 0
1, 10080, Note_on_c, 0, 61, 0
1, 10080, Note_on_c, 0, 66, 0
1, 10080, Note_on_c, 0, 63, 0
1, 10080, Note_on_c, 0, 68, 40
1, 10080, Note_on_c, 0, 66, 28
1, 10080, Note_on_c, 0, 60, 28
1, 10080, Note_on_c, 0, 63, 33
1, 10106, Control_c, 0, 64, 0
1, 10320, Tempo, 764331
1, 10320, Note_on_c, 0, 68, 0
1, 10320, Note_on_c, 0, 70, 37
1, 10560, Tempo, 774194
1, 10560, Note_on_c, 0, 70, 0
1, 10560, Note_on_c, 0, 68, 36
1, 10798, Note_on_c, 0, 63, 0
1, 10800, Tempo, 805369
1, 10800, Note_on_c, 0, 66, 0
1, 10800, Note_on_c, 0, 60, 0
1, 10800, Note_on_c, 0, 63, 30
1, 10800, Note_on_c, 0, 58, 30
1, 10800, Note_on_c, 0, 61, 33
1, 11040, Tempo, 774194
1, 11040, Note_on_c, 0, 68, 0
1, 11040, Note_on_c, 0, 66, 34
1, 11280, Tempo, 750000
1, 11280, Note_on_c, 0, 66, 0
1, 11280, Note_on_c, 0, 68, 33
1, 11520, Tempo, 784314
1, 11520, Note_on_c, 0, 68, 0
1, 11520, Note_on_c, 0, 66, 33
1, 12240, Note_on_c, 0, 66, 0
1, 12240, Note_on_c, 0, 61, 0
1, 12240, Note_on_c, 0, 58, 0
1, 12240, Note_on_c, 0, 63, 0
1, 12240, Note_on_c, 0, 63, 30
1, 12240, Note_on_c, 0, 65, 34
1, 12240, Note_on_c, 0, 57, 28
1, 12240, Note_on_c, 0, 60, 33
1, 12960, Tempo, 827586
1, 12960, Note_on_c, 0, 60, 0
1, 12960, Note_on_c, 0, 57, 0
1, 12960, Note_on_c, 0, 63, 0
1, 12960, Note_on_c, 0, 61, 28
1, 12960, Note_on_c, 0, 56, 28
1, 12960, Note_on_c, 0, 58, 33
1, 13200, Tempo, 810811
1, 13200, Note_on_c, 0, 65, 0
1, 13200, Note_on_c, 0, 65, 38
1, 13440, Tempo, 794702
1, 13440, Note_on_c, 0, 65, 0
1, 13440, Note_on_c, 0, 66, 37
1, 13680, Tempo, 816327
1, 13680, Note_on_c, 0, 66, 0
1, 13680, Note_on_c, 0, 65, 37
1, 13779, Control_c, 0, 64, 127
1, 13920, Tempo, 774194
1, 13920, Note_on_c, 0, 65, 0
1, 13920, Note_on_c, 0, 70, 39
1, 14160, Tempo, 784314
1, 14160, Note_on_c, 0, 70, 0
1, 14160, Note_on_c, 0, 65, 37
1, 14400, Tempo, 769231
1, 14400, Note_on_c, 0, 65, 0
1, 14400, Note_on_c, 0, 61, 0
1, 14400, Note_on_c, 0, 56, 0
1, 14400, Note_on_c, 0, 63, 39
1, 14400, Note_on_c, 0, 54, 38
1, 14422, Control_c, 0, 64, 0
1, 14640, Tempo, 784314
1, 14640, Note_on_c, 0, 63, 0
1, 14640, Note_on_c, 0, 65, 37
1, 14880, Tempo, 784314
1, 14880, Note_on_c, 0, 65, 0
1, 14880, Note_on_c, 0, 63, 37
1, 15118, Note_on_c, 0, 58, 0
1, 15120, Tempo, 784314
1, 15120, Note_on_c, 0, 54, 0
1, 15120, Note_on_c, 0, 58, 28
1, 15120, Note_on_c, 0, 53, 26
1, 15120, Note_on_c, 0, 56, 31
1, 15360, Tempo, 779221
1, 15360, Note_on_c, 0, 63, 0
1, 15360, Note_on_c, 0, 61, 34
1, 15600, Note_on_c, 0, 61, 0
1, 15600, Note_on_c, 0, 63, 34
1, 15838, Note_on_c, 0, 56, 0
1, 15840, Note_on_c, 0, 63, 0
1, 15840, Note_on_c, 0, 61, 34
1, 16560, Tempo, 952381
1, 16560, Note_on_c, 0, 61, 0
1, 16560, Note_on_c, 0, 53, 0
1, 16560, Note_on_c, 0, 58, 0
1, 16560, Note_on_c, 0, 56, 22
1, 16560, Note_on_c, 0, 60, 27
1, 16560, Note_on_c, 0, 51, 23
1, 16560, Note_on_c, 0, 54, 28
1, 16624, Control_c, 0, 64, 127
1, 16920, Note_on_c, 0, 51, 0
1, 16920, Note_on_c, 0, 44, 28
1, 17040, Tempo, 1395349
1, 17280, Tempo, 888889
1, 17280, Note_on_c, 0, 56, 0
1, 17280, Note_on_c, 0, 54, 0
1, 17280, Note_on_c, 0, 60, 0
1, 17280, Note_on_c, 0, 37, 30
1, 17301, Control_c, 0, 64, 0
1, 17520, Tempo, 784314
1, 17520, Note_on_c, 0, 37, 0
1, 17520, Note_on_c, 0, 44, 0
1, 17520, Note_on_c, 0, 56, 28
1, 17520, Note_on_c, 0, 53, 23
1, 17520, Control_c, 0, 64, 127
1, 17760, Tempo, 1111111
1, 17760, Note_on_c, 0, 53, 0
1, 17760, Note_on_c, 0, 56, 0
1, 17760, Note_on_c, 0, 65, 30
1, 17760, Note_on_c, 0, 68, 36
1, 18000, Tempo, 888889
1, 18000, Note_on_c, 0, 80, 39
1, 18000, Note_on_c, 0, 77, 33
1, 18720, Note_on_c, 0, 77, 0
1, 18720, Note_on_c, 0, 80, 0
1, 18720, Note_on_c, 0, 73, 29
1, 18720, Note_on_c, 0, 77, 35
1, 19440, Tempo, 821918
1, 19440, Note_on_c, 0, 68, 0
1, 19440, Note_on_c, 0, 65, 0
1, 19440, Control_c, 0, 64, 0
1, 19440, Note_on_c, 0, 42, 28
1, 19440, Note_on_c, 0, 49, 33
1, 19680, Tempo, 789474
1, 19680, Note_on_c, 0, 73, 0
1, 19680, Note_on_c, 0, 77, 0
1, 19680, Note_on_c, 0, 66, 27
1, 19680, Note_on_c, 0, 75, 42
1, 19680, Note_on_c, 0, 70, 27
1, 19680, Note_on_c, 0, 61, 27
1, 19680, Note_on_c, 0, 58, 22
1, 19680, Note_on_c, 0, 54, 22
1, 19680, Note_on_c, 0, 49, 22
1, 19920, Tempo, 863309
1, 19920, Note_on_c, 0, 75, 0
1, 19920, Note_on_c, 0, 77, 37
1, 20160, Tempo, 845070
1, 20160, Note_on_c, 0, 77, 0
1, 20160, Note_on_c, 0, 75, 31
1, 20640, Tempo, 821918
1, 20880, Note_on_c, 0, 42, 0
1, 20880, Note_on_c, 0, 49, 0
1, 21600, Tempo, 869565
1, 21600, Note_on_c, 0, 49, 0
1, 21600, Note_on_c, 0, 61, 0
1, 21600, Note_on_c, 0, 66, 0
1, 21600, Note_on_c, 0, 70, 0
1, 21600, Note_on_c, 0, 54, 0
1, 21600, Note_on_c, 0, 58, 0
1, 21600, Note_on_c, 0, 41, 30
1, 21600, Note_on_c, 0, 49, 36
1, 21713, Control_c, 0, 64, 127
1, 21840, Tempo, 827586
1, 21840, Note_on_c, 0, 75, 0
1, 21840, Note_on_c, 0, 73, 39
1, 21840, Note_on_c, 0, 68, 39
1, 21840, Note_on_c, 0, 61, 33
1, 21840, Note_on_c, 0, 53, 28
1, 21840, Note_on_c, 0, 56, 33
1, 22080, Tempo, 937500
1, 22080, Note_on_c, 0, 61, 0
1, 22080, Note_on_c, 0, 73, 0
1, 22080, Note_on_c, 0, 75, 40
1, 22080, Note_on_c, 0, 63, 34
1, 22320, Tempo, 845070
1, 22320, Note_on_c, 0, 63, 0
1, 22320, Note_on_c, 0, 53, 0
1, 22320, Note_on_c, 0, 56, 0
1, 22320, Note_on_c, 0, 68, 0
1, 22320, Note_on_c, 0, 75, 0
1, 22320, Note_on_c, 0, 68, 34
1, 22320, Note_on_c, 0, 73, 34
1, 22320, Note_on_c, 0, 80, 40
1, 22320, Note_on_c, 0, 65, 33
1, 22320, Note_on_c, 0, 61, 28
1, 22337, Control_c, 0, 64, 0
1, 22476, Control_c, 0, 64, 127
1, 23038, Note_on_c, 0, 65, 0
1, 23040, Note_on_c, 0, 80, 0
1, 23040, Note_on_c, 0, 41, 0
1, 23040, Note_on_c, 0, 68, 0
1, 23040, Note_on_c, 0, 49, 0
1, 23040, Note_on_c, 0, 61, 0
1, 23040, Note_on_c, 0, 73, 0
1, 23040, Note_on_c, 0, 73, 32
1, 23040, Note_on_c, 0, 65, 32
1, 23040, Note_on_c, 0, 77, 38
1, 23040, Note_on_c, 0, 56, 27
1, 23040, Note_on_c, 0, 61, 32
1, 23760, Tempo, 821918
1, 23760, Note_on_c, 0, 61, 0
1, 23760, Note_on_c, 0, 65, 0
1, 23760, Note_on_c, 0, 73, 0
1, 23760, Note_on_c, 0, 56, 0
1, 23760, Control_c, 0, 64, 0
1, 23760, Note_on_c, 0, 42, 28
1, 23760, Note_on_c, 0, 49, 33
1, 23930, Control_c, 0, 64, 127
1, 24000, Tempo, 789474
1, 24000, Note_on_c, 0, 77, 0
1, 24000, Note_on_c, 0, 75, 42
1, 24000, Note_on_c, 0, 66, 27
1, 24000, Note_on_c, 0, 70, 27
1, 24000, Note_on_c, 0, 61, 27
1, 24000, Note_on_c, 0, 58, 22
1, 24000, Note_on_c, 0, 54, 22
1, 24000, Note_on_c, 0, 49, 22
1, 24240, Tempo, 863309
1, 24240, Note_on_c, 0, 75, 0
1, 24240, Note_on_c, 0, 77, 37
1, 24480, Tempo, 845070
1, 24480, Note_on_c, 0, 77, 0
1, 24480, Note_on_c, 0, 75, 31
1, 24486, Control_c, 0, 64, 0
1, 25200, Note_on_c, 0, 75, 0
1, 25200, Note_on_c, 0, 42, 0
1, 25200, Note_on_c, 0, 49, 0
1, 25200, Note_on_c, 0, 73, 37
1, 25920, Tempo, 869565
1, 25920, Note_on_c, 0, 58, 0
1, 25920, Note_on_c, 0, 54, 0
1, 25920, Note_on_c, 0, 61, 0
1, 25920, Note_on_c, 0, 70, 0
1, 25920, Note_on_c, 0, 49, 0
1, 25920, Note_on_c, 0, 66, 0
1, 25920, Note_on_c, 0, 44, 36
1, 26040, Control_c, 0, 64, 127
1, 26160, Tempo, 827586
1, 26160, Note_on_c, 0, 73, 0
1, 26160, Note_on_c, 0, 68, 33
1, 26160, Note_on_c, 0, 73, 39
1, 26160, Note_on_c, 0, 61, 33
1, 26160, Note_on_c, 0, 53, 28
1, 26160, Note_on_c, 0, 59, 33
1, 26400, Tempo, 944882
1, 26400, Note_on_c, 0, 61, 0
1, 26400, Note_on_c, 0, 73, 0
1, 26400, Note_on_c, 0, 63, 34
1, 26400, Note_on_c, 0, 75, 40
1, 26640, Tempo, 930233
1, 26640, Note_on_c, 0, 75, 0
1, 26640, Note_on_c, 0, 59, 0
1, 26640, Note_on_c, 0, 68, 0
1, 26640, Note_on_c, 0, 53, 0
1, 26640, Note_on_c, 0, 63, 0
1, 26640, Note_on_c, 0, 70, 40
1, 26640, Note_on_c, 0, 82, 48
1, 26640, Note_on_c, 0, 77, 45
1, 26640, Note_on_c, 0, 65, 33
1, 26640, Note_on_c, 0, 61, 28
1, 26640, Note_on_c, 0, 59, 28
1, 26653, Control_c, 0, 64, 0
1, 27000, Note_on_c, 0, 82, 0
1, 27000, Note_on_c, 0, 70, 0
1, 27000, Note_on_c, 0, 80, 46
1, 27000, Note_on_c, 0, 68, 39
1, 27113, Control_c, 0, 64, 127
1, 27120, Tempo, 845070
1, 27360, Tempo, 845070
1, 27600, Note_on_c, 0, 61, 0
1, 27600, Note_on_c, 0, 65, 0
1, 27600, Note_on_c, 0, 59, 0
1, 27720, Note_on_c, 0, 68, 0
1, 27720, Note_on_c, 0, 80, 0
1, 27720, Note_on_c, 0, 65, 37
1, 27720, Note_on_c, 0, 77, 44
1, 28080, Tempo, 821918
1, 28080, Note_on_c, 0, 44, 0
1, 28080, Note_on_c, 0, 77, 0
1, 28080, Note_on_c, 0, 46, 39
1, 28116, Control_c, 0, 64, 0
1, 28320, Tempo, 759494
1, 28320, Note_on_c, 0, 65, 0
1, 28320, Note_on_c, 0, 77, 0
1, 28320, Note_on_c, 0, 65, 32
1, 28320, Note_on_c, 0, 75, 40
1, 28320, Note_on_c, 0, 70, 32
1, 28320, Note_on_c, 0, 63, 40
1, 28320, Note_on_c, 0, 53, 32
1, 28320, Note_on_c, 0, 58, 32
1, 28560, Tempo, 821918
1, 28560, Note_on_c, 0, 75, 0
1, 28560, Note_on_c, 0, 77, 37
1, 28800, Tempo, 952381
1, 28800, Note_on_c, 0, 77, 0
1, 28800, Note_on_c, 0, 75, 33
1, 29160, Note_on_c, 0, 75, 0
1, 29160, Note_on_c, 0, 63, 0
1, 29160, Note_on_c, 0, 73, 37
1, 29160, Note_on_c, 0, 61, 37
1, 29224, Control_c, 0, 64, 127
1, 29260, Tempo, 909091
1, 29520, Note_on_c, 0, 46, 0
1, 29880, Note_on_c, 0, 73, 0
1, 29880, Note_on_c, 0, 70, 33
1, 30000, Tempo, 1846154
1, 30240, Tempo, 863309
1, 30240, Marker_t, "Tempo rubato"
1, 30240, Note_on_c, 0, 70, 0
1, 30240, Note_on_c, 0, 61, 0
1, 30240, Note_on_c, 0, 70, 0
1, 30240, Note_on_c, 0, 65, 0
1, 30240, Note_on_c, 0, 53, 0
1, 30240, Note_on_c, 0, 58, 0
1, 30240, Note_on_c, 0, 27, 30
1, 30240, Note_on_c, 0, 39, 36
1, 30244, Control_c, 0, 64, 0
1, 30280, Tempo, 857756
1, 30329, Control_c, 0, 64, 127
1, 30600, Note_on_c, 0, 82, 37
1, 30600, Note_on_c, 0, 77, 37
1, 30600, Note_on_c, 0, 89, 40
1, 30600, Note_on_c, 0, 70, 32
1, 30600, Note_on_c, 0, 66, 32
1, 30600, Note_on_c, 0, 65, 32
1, 30720, Tempo, 827929
1, 31200, Tempo, 764234
1, 31200, Note_on_c, 0, 87, 39
1, 31200, Note_on_c, 0, 82, 36
1, 31200, Note_on_c, 0, 75, 36
1, 31200, Note_on_c, 0, 63, 31
1, 31200, Note_on_c, 0, 66, 31
1, 31200, Note_on_c, 0, 70, 31
1, 31217, Control_c, 0, 64, 0
1, 31282, Control_c, 0, 64, 127
1, 31440, Note_on_c, 0, 70, 0
1, 31440, Note_on_c, 0, 82, 0
1, 31440, Note_on_c, 0, 87, 0
1, 31440, Note_on_c, 0, 66, 0
1, 31440, Note_on_c, 0, 75, 0
1, 31440, Note_on_c, 0, 63, 0
1, 31440, Note_on_c, 0, 82, 36
1, 31440, Note_on_c, 0, 87, 39
1, 31440, Note_on_c, 0, 75, 36
1, 31440, Note_on_c, 0, 63, 31
1, 31440, Note_on_c, 0, 66, 31
1, 31440, Note_on_c, 0, 70, 31
1, 31660, Note_on_c, 0, 70, 0
1, 31660, Note_on_c, 0, 87, 0
1, 31660, Note_on_c, 0, 82, 0
1, 31660, Note_on_c, 0, 66, 0
1, 31660, Note_on_c, 0, 75, 0
1, 31660, Note_on_c, 0, 63, 0
1, 31680, Tempo, 789578
1, 31680, Note_on_c, 0, 66, 0
1, 31680, Note_on_c, 0, 27, 0
1, 31680, Note_on_c, 0, 77, 0
1, 31680, Note_on_c, 0, 39, 0
1, 31680, Note_on_c, 0, 65, 0
1, 31680, Note_on_c, 0, 70, 0
1, 31680, Note_on_c, 0, 89, 0
1, 31680, Note_on_c, 0, 82, 0
1, 31680, Note_on_c, 0, 75, 38
1, 31680, Note_on_c, 0, 87, 41
1, 31680, Note_on_c, 0, 82, 38
1, 31680, Note_on_c, 0, 63, 32
1, 31680, Note_on_c, 0, 66, 32
1, 31680, Note_on_c, 0, 70, 32
1, 31920, Tempo, 764234
1, 31920, Note_on_c, 0, 70, 0
1, 31920, Note_on_c, 0, 87, 0
1, 31920, Note_on_c, 0, 82, 0
1, 31920, Note_on_c, 0, 75, 0
1, 31920, Note_on_c, 0, 66, 0
1, 31920, Note_on_c, 0, 63, 0
1, 31920, Note_on_c, 0, 82, 37
1, 31920, Note_on_c, 0, 73, 37
1, 31920, Note_on_c, 0, 85, 40
1, 31920, Note_on_c, 0, 61, 31
1, 31920, Note_on_c, 0, 66, 31
1, 31920, Note_on_c, 0, 70, 31
1, 31929, Control_c, 0, 64, 0
1, 32009, Control_c, 0, 64, 127
1, 32160, Note_on_c, 0, 70, 0
1, 32160, Note_on_c, 0, 73, 0
1, 32160, Note_on_c, 0, 85, 0
1, 32160, Note_on_c, 0, 82, 0
1, 32160, Note_on_c, 0, 66, 0
1, 32160, Note_on_c, 0, 61, 0
1, 32160, Note_on_c, 0, 73, 37
1, 32160, Note_on_c, 0, 85, 40
1, 32160, Note_on_c, 0, 82, 37
1, 32160, Note_on_c, 0, 61, 31
1, 32160, Note_on_c, 0, 66, 31
1, 32160, Note_on_c, 0, 70, 31
1, 32380, Note_on_c, 0, 70, 0
1, 32380, Note_on_c, 0, 85, 0
1, 32380, Note_on_c, 0, 82, 0
1, 32380, Note_on_c, 0, 73, 0
1, 32380, Note_on_c, 0, 66, 0
1, 32380, Note_on_c, 0, 61, 0
1, 32400, Tempo, 789578
1, 32400, Note_on_c, 0, 85, 41
1, 32400, Note_on_c, 0, 73, 38
1, 32400, Note_on_c, 0, 82, 38
1, 32400, Note_on_c, 0, 61, 34
1, 32400, Note_on_c, 0, 66, 34
1, 32400, Note_on_c, 0, 70, 34
1, 32640, Tempo, 764234
1, 32640, Note_on_c, 0, 70, 0
1, 32640, Note_on_c, 0, 73, 0
1, 32640, Note_on_c, 0, 82, 0
1, 32640, Note_on_c, 0, 85, 0
1, 32640, Note_on_c, 0, 66, 0
1, 32640, Note_on_c, 0, 61, 0
1, 32640, Note_on_c, 0, 82, 36
1, 32640, Note_on_c, 0, 78, 36
1, 32640, Note_on_c, 0, 72, 36
1, 32640, Note_on_c, 0, 84, 39
1, 32640, Note_on_c, 0, 60, 32
1, 32640, Note_on_c, 0, 66, 32
1, 32640, Note_on_c, 0, 70, 32
1, 32654, Control_c, 0, 64, 0
1, 32774, Control_c, 0, 64, 127
1, 32880, Note_on_c, 0, 70, 0
1, 32880, Note_on_c, 0, 60, 0
1, 32880, Note_on_c, 0, 78, 0
1, 32880, Note_on_c, 0, 72, 0
1, 32880, Note_on_c, 0, 82, 0
1, 32880, Note_on_c, 0, 66, 0
1, 32880, Note_on_c, 0, 84, 0
1, 32880, Note_on_c, 0, 72, 36
1, 32880, Note_on_c, 0, 82, 36
1, 32880, Note_on_c, 0, 84, 39
1, 32880, Note_on_c, 0, 78, 36
1, 32880, Note_on_c, 0, 60, 32
1, 32880, Note_on_c, 0, 66, 32
1, 32880, Note_on_c, 0, 70, 32
1, 33100, Note_on_c, 0, 70, 0
1, 33100, Note_on_c, 0, 60, 0
1, 33100, Note_on_c, 0, 82, 0
1, 33100, Note_on_c, 0, 84, 0
1, 33100, Note_on_c, 0, 72, 0
1, 33100, Note_on_c, 0, 66, 0
1, 33100, Note_on_c, 0, 78, 0
1, 33120, Tempo, 779221
1, 33120, Note_on_c, 0, 84, 39
1, 33120, Note_on_c, 0, 72, 36
1, 33120, Note_on_c, 0, 82, 36
1, 33120, Note_on_c, 0, 78, 36
1, 33120, Note_on_c, 0, 60, 31
1, 33120, Note_on_c, 0, 66, 31
1, 33120, Note_on_c, 0, 70, 31
1, 33360, Tempo, 851547
1, 33480, Note_on_c, 0, 70, 0
1, 33480, Note_on_c, 0, 60, 0
1, 33480, Note_on_c, 0, 72, 0
1, 33480, Note_on_c, 0, 82, 0
1, 33480, Note_on_c, 0, 84, 0
1, 33480, Note_on_c, 0, 66, 0
1, 33480, Note_on_c, 0, 78, 0
1, 33480, Note_on_c, 0, 82, 33
1, 33480, Note_on_c, 0, 73, 33
1, 33480, Note_on_c, 0, 85, 36
1, 33480, Note_on_c, 0, 61, 30
1, 33480, Note_on_c, 0, 66, 30
1, 33480, Note_on_c, 0, 70, 30
1, 33600, Tempo, 930233
1, 33840, Note_on_c, 0, 70, 0
1, 33840, Note_on_c, 0, 73, 0
1, 33840, Note_on_c, 0, 85, 0
1, 33840, Note_on_c, 0, 82, 0
1, 33840, Note_on_c, 0, 66, 0
1, 33840, Note_on_c, 0, 61, 0
1, 33840, Note_on_c, 0, 70, 33
1, 33840, Note_on_c, 0, 82, 36
1, 33840, Note_on_c, 0, 78, 33
1, 33840, Note_on_c, 0, 58, 28
1, 33840, Note_on_c, 0, 61, 28
1, 33840, Note_on_c, 0, 66, 28
1, 33846, Control_c, 0, 64, 0
1, 33939, Control_c, 0, 64, 127
1, 34541, Tempo, 902256
1, 34560, Tempo, 863309
1, 34560, Note_on_c, 0, 66, 0
1, 34560, Note_on_c, 0, 82, 0
1, 34560, Note_on_c, 0, 78, 0
1, 34560, Note_on_c, 0, 70, 0
1, 34560, Note_on_c, 0, 61, 0
1, 34560, Note_on_c, 0, 58, 0
1, 34560, Control_c, 0, 64, 0
1, 34560, Note_on_c, 0, 46, 36
1, 34560, Note_on_c, 0, 27, 30
1, 34560, Note_on_c, 0, 39, 30
1, 34600, Tempo, 857756
1, 34655, Control_c, 0, 64, 127
1, 34920, Note_on_c, 0, 82, 46
1, 34920, Note_on_c, 0, 89, 48
1, 34920, Note_on_c, 0, 77, 46
1, 34920, Note_on_c, 0, 70, 34
1, 34920, Note_on_c, 0, 66, 34
1, 34920, Note_on_c, 0, 65, 34
1, 35040, Tempo, 827929
1, 35520, Tempo, 745342
1, 35520, Note_on_c, 0, 78, 40
1, 35520, Note_on_c, 0, 90, 42
1, 35520, Note_on_c, 0, 82, 40
1, 35520, Note_on_c, 0, 66, 34
1, 35520, Note_on_c, 0, 75, 34
1, 35520, Note_on_c, 0, 70, 34
1, 35533, Control_c, 0, 64, 0
1, 35640, Control_c, 0, 64, 127
1, 35760, Tempo, 745342
1, 35760, Note_on_c, 0, 70, 0
1, 35760, Note_on_c, 0, 82, 0
1, 35760, Note_on_c, 0, 78, 0
1, 35760, Note_on_c, 0, 75, 0
1, 35760, Note_on_c, 0, 90, 0
1, 35760, Note_on_c, 0, 66, 0
1, 35760, Note_on_c, 0, 82, 37
1, 35760, Note_on_c, 0, 89, 38
1, 35760, Note_on_c, 0, 77, 37
1, 35760, Note_on_c, 0, 65, 32
1, 35760, Note_on_c, 0, 66, 32
1, 35760, Note_on_c, 0, 70, 32
1, 35980, Note_on_c, 0, 89, 0
1, 35980, Note_on_c, 0, 70, 0
1, 35980, Note_on_c, 0, 82, 0
1, 35980, Note_on_c, 0, 65, 0
1, 35980, Note_on_c, 0, 66, 0
1, 35980, Note_on_c, 0, 77, 0
1, 36000, Tempo, 759494
1, 36000, Note_on_c, 0, 82, 0
1, 36000, Note_on_c, 0, 39, 0
1, 36000, Note_on_c, 0, 46, 0
1, 36000, Note_on_c, 0, 70, 0
1, 36000, Note_on_c, 0, 77, 0
1, 36000, Note_on_c, 0, 27, 0
1, 36000, Note_on_c, 0, 66, 0
1, 36000, Note_on_c, 0, 89, 0
1, 36000, Note_on_c, 0, 65, 0
1, 36000, Note_on_c, 0, 87, 40
1, 36000, Note_on_c, 0, 75, 39
1, 36000, Note_on_c, 0, 82, 39
1, 36000, Note_on_c, 0, 63, 33
1, 36000, Note_on_c, 0, 66, 33
1, 36000, Note_on_c, 0, 70, 33
1, 36011, Control_c, 0, 64, 0
1, 36070, Control_c, 0, 64, 127
1, 36220, Note_on_c, 0, 70, 0
1, 36220, Note_on_c, 0, 75, 0
1, 36220, Note_on_c, 0, 82, 0
1, 36220, Note_on_c, 0, 87, 0
1, 36220, Note_on_c, 0, 66, 0
1, 36220, Note_on_c, 0, 63, 0
1, 36240, Tempo, 740741
1, 36240, Note_on_c, 0, 77, 38
1, 36240, Note_on_c, 0, 89, 39
1, 36240, Note_on_c, 0, 82, 38
1, 36240, Note_on_c, 0, 65, 32
1, 36240, Note_on_c, 0, 66, 32
1, 36240, Note_on_c, 0, 70, 32
1, 36480, Tempo, 736196
1, 36480, Note_on_c, 0, 70, 0
1, 36480, Note_on_c, 0, 89, 0
1, 36480, Note_on_c, 0, 82, 0
1, 36480, Note_on_c, 0, 77, 0
1, 36480, Note_on_c, 0, 66, 0
1, 36480, Note_on_c, 0, 65, 0
1, 36480, Note_on_c, 0, 82, 38
1, 36480, Note_on_c, 0, 87, 39
1, 36480, Note_on_c, 0, 75, 38
1, 36480, Note_on_c, 0, 63, 32
1, 36480, Note_on_c, 0, 66, 32
1, 36480, Note_on_c, 0, 70, 32
1, 36720, Tempo, 779221
1, 36720, Note_on_c, 0, 70, 0
1, 36720, Note_on_c, 0, 87, 0
1, 36720, Note_on_c, 0, 75, 0
1, 36720, Note_on_c, 0, 82, 0
1, 36720, Note_on_c, 0, 66, 0
1, 36720, Note_on_c, 0, 63, 0
1, 36720, Note_on_c, 0, 85, 40
1, 36720, Note_on_c, 0, 82, 39
1, 36720, Note_on_c, 0, 73, 39
1, 36720, Control_c, 0, 64, 0
1, 36720, Note_on_c, 0, 61, 35
1, 36720, Note_on_c, 0, 66, 35
1, 36720, Note_on_c, 0, 70, 35
1, 36752, Control_c, 0, 64, 127
1, 36940, Note_on_c, 0, 70, 0
1, 36940, Note_on_c, 0, 82, 0
1, 36940, Note_on_c, 0, 73, 0
1, 36940, Note_on_c, 0, 85, 0
1, 36940, Note_on_c, 0, 66, 0
1, 36940, Note_on_c, 0, 61, 0
1, 36960, Tempo, 764234
1, 36960, Note_on_c, 0, 82, 37
1, 36960, Note_on_c, 0, 75, 37
1, 36960, Note_on_c, 0, 87, 38
1, 36960, Note_on_c, 0, 63, 33
1, 36960, Note_on_c, 0, 66, 33
1, 36960, Note_on_c, 0, 70, 33
1, 37200, Note_on_c, 0, 70, 0
1, 37200, Note_on_c, 0, 75, 0
1, 37200, Note_on_c, 0, 87, 0
1, 37200, Note_on_c, 0, 82, 0
1, 37200, Note_on_c, 0, 66, 0
1, 37200, Note_on_c, 0, 63, 0
1, 37200, Note_on_c, 0, 73, 37
1, 37200, Note_on_c, 0, 82, 37
1, 37200, Note_on_c, 0, 85, 38
1, 37200, Note_on_c, 0, 61, 33
1, 37200, Note_on_c, 0, 66, 33
1, 37200, Note_on_c, 0, 70, 33
1, 37420, Note_on_c, 0, 70, 0
1, 37420, Note_on_c, 0, 82, 0
1, 37420, Note_on_c, 0, 85, 0
1, 37420, Note_on_c, 0, 73, 0
1, 37420, Note_on_c, 0, 66, 0
1, 37420, Note_on_c, 0, 61, 0
1, 37440, Tempo, 779221
1, 37440, Note_on_c, 0, 82, 37
1, 37440, Note_on_c, 0, 72, 37
1, 37440, Note_on_c, 0, 84, 38
1, 37440, Note_on_c, 0, 60, 32
1, 37440, Note_on_c, 0, 66, 32
1, 37440, Note_on_c, 0, 70, 32
1, 37453, Control_c, 0, 64, 0
1, 37500, Control_c, 0, 64, 127
1, 37680, Tempo, 851547
1, 37770, Note_on_c, 0, 84, 0
1, 37770, Note_on_c, 0, 82, 0
1, 37770, Note_on_c, 0, 72, 0
1, 37770, Note_on_c, 0, 87, 43
1, 37800, Note_on_c, 0, 87, 0
1, 37800, Note_on_c, 0, 70, 0
1, 37800, Note_on_c, 0, 66, 0
1, 37800, Note_on_c, 0, 60, 0
1, 37800, Note_on_c, 0, 85, 37
1, 37800, Note_on_c, 0, 73, 34
1, 37800, Note_on_c, 0, 82, 34
1, 37800, Note_on_c, 0, 61, 31
1, 37800, Note_on_c, 0, 66, 31
1, 37800, Note_on_c, 0, 70, 31
1, 37920, Tempo, 930233
1, 38160, Note_on_c, 0, 70, 0
1, 38160, Note_on_c, 0, 73, 0
1, 38160, Note_on_c, 0, 82, 0
1, 38160, Note_on_c, 0, 85, 0
1, 38160, Note_on_c, 0, 66, 0
1, 38160, Note_on_c, 0, 61, 0
1, 38160, Note_on_c, 0, 70, 33
1, 38160, Note_on_c, 0, 78, 33
1, 38160, Note_on_c, 0, 82, 35
1, 38160, Note_on_c, 0, 58, 30
1, 38160, Note_on_c, 0, 63, 30
1, 38160, Note_on_c, 0, 66, 30
1, 38179, Control_c, 0, 64, 0
1, 38252, Control_c, 0, 64, 127
1, 38400, Tempo, 857143
1, 38880, Tempo, 755572
1, 38880, Note_on_c, 0, 66, 0
1, 38880, Note_on_c, 0, 58, 0
1, 38880, Note_on_c, 0, 63, 0
1, 38880, Note_on_c, 0, 32, 35
1, 38880, Note_on_c, 0, 44, 42
1, 38930, Control_c, 0, 64, 0
1, 39028, Control_c, 0, 64, 127
1, 39120, Tempo, 690369
1, 39240, Note_on_c, 0, 70, 0
1, 39240, Note_on_c, 0, 78, 0
1, 39240, Note_on_c, 0, 82, 0
1, 39240, Note_on_c, 0, 78, 51
1, 39240, Note_on_c, 0, 66, 49
1, 39240, Note_on_c, 0, 54, 48
1, 39600, Tempo, 678580
1, 39600, Note_on_c, 0, 54, 0
1, 39600, Note_on_c, 0, 78, 0
1, 39600, Note_on_c, 0, 66, 0
1, 39600, Note_on_c, 0, 75, 45
1, 39600, Note_on_c, 0, 80, 47
1, 39600, Note_on_c, 0, 68, 45
1, 39600, Note_on_c, 0, 63, 39
1, 39600, Note_on_c, 0, 60, 33
1, 39600, Note_on_c, 0, 56, 38
1, 39840, Tempo, 711069
1, 39960, Note_on_c, 0, 56, 0
1, 39960, Note_on_c, 0, 68, 0
1, 39960, Note_on_c, 0, 80, 0
1, 39960, Note_on_c, 0, 75, 0
1, 39960, Note_on_c, 0, 72, 49
1, 39960, Note_on_c, 0, 84, 51
1, 39960, Note_on_c, 0, 60, 50
1, 40320, Tempo, 728509
1, 40320, Note_on_c, 0, 60, 0
1, 40320, Note_on_c, 0, 72, 0
1, 40320, Note_on_c, 0, 60, 0
1, 40320, Note_on_c, 0, 32, 0
1, 40320, Note_on_c, 0, 44, 0
1, 40320, Note_on_c, 0, 84, 0
1, 40320, Note_on_c, 0, 63, 0
1, 40320, Note_on_c, 0, 70, 46
1, 40320, Note_on_c, 0, 82, 48
1, 40320, Note_on_c, 0, 78, 46
1, 40320, Note_on_c, 0, 66, 40
1, 40320, Note_on_c, 0, 63, 34
1, 40320, Note_on_c, 0, 58, 39
1, 40334, Control_c, 0, 64, 0
1, 40412, Control_c, 0, 64, 127
1, 40680, Note_on_c, 0, 58, 0
1, 40680, Note_on_c, 0, 82, 0
1, 40680, Note_on_c, 0, 70, 0
1, 40680, Note_on_c, 0, 78, 0
1, 40680, Note_on_c, 0, 66, 44
1, 40680, Note_on_c, 0, 78, 46
1, 40680, Note_on_c, 0, 54, 44
1, 40981, Tempo, 744786
1, 41020, Tempo, 704391
1, 41040, Note_on_c, 0, 54, 0
1, 41040, Note_on_c, 0, 66, 0
1, 41040, Note_on_c, 0, 63, 0
1, 41040, Note_on_c, 0, 66, 0
1, 41040, Note_on_c, 0, 78, 0
1, 41040, Control_c, 0, 64, 0
1, 41040, Note_on_c, 0, 33, 35
1, 41040, Note_on_c, 0, 45, 42
1, 41041, Tempo, 732332
1, 41210, Control_c, 0, 64, 127
1, 41280, Tempo, 670391
1, 41280, Note_on_c, 0, 75, 36
1, 41280, Note_on_c, 0, 66, 36
1, 41280, Note_on_c, 0, 78, 39
1, 41280, Note_on_c, 0, 72, 36
1, 41280, Note_on_c, 0, 63, 30
1, 41280, Note_on_c, 0, 60, 30
1, 41280, Note_on_c, 0, 54, 30
1, 41520, Tempo, 652174
1, 41520, Note_on_c, 0, 54, 0
1, 41520, Note_on_c, 0, 66, 0
1, 41520, Note_on_c, 0, 60, 0
1, 41520, Note_on_c, 0, 78, 0
1, 41520, Note_on_c, 0, 63, 0
1, 41520, Note_on_c, 0, 75, 0
1, 41520, Note_on_c, 0, 72, 0
1, 41520, Note_on_c, 0, 66, 36
1, 41520, Note_on_c, 0, 72, 36
1, 41520, Note_on_c, 0, 75, 36
1, 41520, Note_on_c, 0, 78, 39
1, 41520, Note_on_c, 0, 63, 30
1, 41520, Note_on_c, 0, 60, 30
1, 41520, Note_on_c, 0, 54, 30
1, 41750, Note_on_c, 0, 54, 0
1, 41750, Note_on_c, 0, 66, 0
1, 41750, Note_on_c, 0, 60, 0
1, 41750, Note_on_c, 0, 75, 0
1, 41750, Note_on_c, 0, 63, 0
1, 41750, Note_on_c, 0, 78, 0
1, 41760, Tempo, 659341
1, 41760, Note_on_c, 0, 72, 0
1, 41760, Note_on_c, 0, 75, 39
1, 41760, Note_on_c, 0, 78, 42
1, 41760, Note_on_c, 0, 66, 39
1, 41760, Note_on_c, 0, 72, 39
1, 41760, Note_on_c, 0, 63, 33
1, 41760, Note_on_c, 0, 60, 33
1, 41760, Note_on_c, 0, 54, 33
1, 42000, Tempo, 641711
1, 42000, Note_on_c, 0, 54, 0
1, 42000, Note_on_c, 0, 78, 0
1, 42000, Note_on_c, 0, 60, 0
1, 42000, Note_on_c, 0, 66, 0
1, 42000, Note_on_c, 0, 63, 0
1, 42000, Note_on_c, 0, 75, 0
1, 42000, Note_on_c, 0, 72, 0
1, 42000, Note_on_c, 0, 72, 37
1, 42000, Note_on_c, 0, 75, 37
1, 42000, Note_on_c, 0, 78, 40
1, 42000, Note_on_c, 0, 66, 37
1, 42000, Note_on_c, 0, 63, 31
1, 42000, Note_on_c, 0, 60, 31
1, 42000, Note_on_c, 0, 54, 31
1, 42220, Note_on_c, 0, 54, 0
1, 42220, Note_on_c, 0, 75, 0
1, 42220, Note_on_c, 0, 60, 0
1, 42220, Note_on_c, 0, 78, 0
1, 42220, Note_on_c, 0, 63, 0
1, 42220, Note_on_c, 0, 72, 0
1, 42220, Note_on_c, 0, 66, 0
1, 42240, Tempo, 687758
1, 42240, Note_on_c, 0, 80, 44
1, 42240, Note_on_c, 0, 72, 40
1, 42240, Note_on_c, 0, 68, 40
1, 42240, Note_on_c, 0, 75, 40
1, 42240, Note_on_c, 0, 56, 34
1, 42240, Note_on_c, 0, 60, 34
1, 42240, Note_on_c, 0, 63, 34
1, 42480, Note_on_c, 0, 63, 0
1, 42480, Note_on_c, 0, 72, 0
1, 42480, Note_on_c, 0, 45, 0
1, 42480, Note_on_c, 0, 68, 0
1, 42480, Note_on_c, 0, 33, 0
1, 42480, Note_on_c, 0, 80, 0
1, 42480, Note_on_c, 0, 56, 0
1, 42480, Note_on_c, 0, 75, 0
1, 42480, Note_on_c, 0, 60, 0
1, 42480, Note_on_c, 0, 66, 39
1, 42480, Note_on_c, 0, 78, 42
1, 42480, Note_on_c, 0, 72, 39
1, 42480, Note_on_c, 0, 75, 39
1, 42480, Note_on_c, 0, 54, 33
1, 42480, Note_on_c, 0, 60, 33
1, 42480, Note_on_c, 0, 63, 33
1, 42492, Control_c, 0, 64, 0
1, 42636, Control_c, 0, 64, 127
1, 43200, Tempo, 718563
1, 43200, Note_on_c, 0, 63, 0
1, 43200, Note_on_c, 0, 54, 0
1, 43200, Note_on_c, 0, 78, 0
1, 43200, Note_on_c, 0, 72, 0
1, 43200, Note_on_c, 0, 66, 0
1, 43200, Note_on_c, 0, 60, 0
1, 43200, Note_on_c, 0, 75, 0
1, 43200, Note_on_c, 0, 34, 39
1, 43200, Note_on_c, 0, 46, 46
1, 43221, Control_c, 0, 64, 0
1, 43313, Control_c, 0, 64, 127
1, 43440, Tempo, 675676
1, 43560, Note_on_c, 0, 66, 41
1, 43560, Note_on_c, 0, 78, 53
1, 43560, Note_on_c, 0, 73, 45
1, 43560, Note_on_c, 0, 61, 38
1, 43560, Note_on_c, 0, 58, 38
1, 43560, Note_on_c, 0, 54, 40
1, 43920, Tempo, 664158
1, 43920, Note_on_c, 0, 54, 0
1, 43920, Note_on_c, 0, 78, 0
1, 43920, Note_on_c, 0, 66, 0
1, 43920, Note_on_c, 0, 68, 55
1, 43920, Note_on_c, 0, 80, 60
1, 43920, Note_on_c, 0, 56, 45
1, 44160, Tempo, 685714
1, 44280, Note_on_c, 0, 56, 0
1, 44280, Note_on_c, 0, 80, 0
1, 44280, Note_on_c, 0, 61, 0
1, 44280, Note_on_c, 0, 58, 0
1, 44280, Note_on_c, 0, 73, 0
1, 44280, Note_on_c, 0, 68, 0
1, 44280, Note_on_c, 0, 85, 60
1, 44280, Note_on_c, 0, 73, 55
1, 44280, Note_on_c, 0, 61, 44
1, 44640, Tempo, 713012
1, 44640, Note_on_c, 0, 61, 0
1, 44640, Note_on_c, 0, 85, 0
1, 44640, Note_on_c, 0, 46, 0
1, 44640, Note_on_c, 0, 34, 0
1, 44640, Note_on_c, 0, 73, 0
1, 44640, Note_on_c, 0, 70, 44
1, 44640, Note_on_c, 0, 82, 57
1, 44640, Note_on_c, 0, 78, 52
1, 44640, Note_on_c, 0, 66, 43
1, 44640, Note_on_c, 0, 61, 43
1, 44640, Note_on_c, 0, 58, 43
1, 44662, Control_c, 0, 64, 0
1, 44732, Control_c, 0, 64, 127
1, 45000, Note_on_c, 0, 58, 0
1, 45000, Note_on_c, 0, 70, 0
1, 45000, Note_on_c, 0, 82, 0
1, 45000, Note_on_c, 0, 78, 52
1, 45000, Note_on_c, 0, 66, 48
1, 45000, Note_on_c, 0, 54, 41
1, 45360, Tempo, 693642
1, 45360, Note_on_c, 0, 54, 0
1, 45360, Note_on_c, 0, 61, 0
1, 45360, Note_on_c, 0, 66, 0
1, 45360, Note_on_c, 0, 78, 0
1, 45360, Note_on_c, 0, 66, 0
1, 45360, Note_on_c, 0, 78, 0
1, 45360, Control_c, 0, 64, 0
1, 45360, Note_on_c, 0, 36, 38
1, 45360, Note_on_c, 0, 48, 45
1, 45586, Control_c, 0, 64, 127
1, 45600, Tempo, 650266
1, 45600, Note_on_c, 0, 70, 39
1, 45600, Note_on_c, 0, 66, 39
1, 45600, Note_on_c, 0, 75, 39
1, 45600, Note_on_c, 0, 78, 42
1, 45600, Note_on_c, 0, 63, 33
1, 45600, Note_on_c, 0, 58, 33
1, 45600, Note_on_c, 0, 54, 33
1, 45840, Tempo, 638978
1, 45840, Note_on_c, 0, 54, 0
1, 45840, Note_on_c, 0, 66, 0
1, 45840, Note_on_c, 0, 58, 0
1, 45840, Note_on_c, 0, 75, 0
1, 45840, Note_on_c, 0, 63, 0
1, 45840, Note_on_c, 0, 70, 0
1, 45840, Note_on_c, 0, 78, 0
1, 45840, Note_on_c, 0, 70, 39
1, 45840, Note_on_c, 0, 75, 39
1, 45840, Note_on_c, 0, 66, 39
1, 45840, Note_on_c, 0, 78, 42
1, 45840, Note_on_c, 0, 63, 33
1, 45840, Note_on_c, 0, 58, 33
1, 45840, Note_on_c, 0, 54, 33
1, 46070, Note_on_c, 0, 54, 0
1, 46070, Note_on_c, 0, 75, 0
1, 46070, Note_on_c, 0, 58, 0
1, 46070, Note_on_c, 0, 66, 0
1, 46070, Note_on_c, 0, 63, 0
1, 46070, Note_on_c, 0, 78, 0
1, 46080, Tempo, 650266
1, 46080, Note_on_c, 0, 70, 0
1, 46080, Note_on_c, 0, 70, 42
1, 46080, Note_on_c, 0, 78, 46
1, 46080, Note_on_c, 0, 66, 42
1, 46080, Note_on_c, 0, 75, 42
1, 46080, Note_on_c, 0, 63, 35
1, 46080, Note_on_c, 0, 58, 35
1, 46080, Note_on_c, 0, 54, 35
1, 46320, Tempo, 638638
1, 46320, Note_on_c, 0, 54, 0
1, 46320, Note_on_c, 0, 78, 0
1, 46320, Note_on_c, 0, 58, 0
1, 46320, Note_on_c, 0, 66, 0
1, 46320, Note_on_c, 0, 63, 0
1, 46320, Note_on_c, 0, 70, 0
1, 46320, Note_on_c, 0, 75, 0
1, 46320, Note_on_c, 0, 66, 40
1, 46320, Note_on_c, 0, 70, 40
1, 46320, Note_on_c, 0, 75, 40
1, 46320, Note_on_c, 0, 78, 44
1, 46320, Note_on_c, 0, 63, 34
1, 46320, Note_on_c, 0, 58, 34
1, 46320, Note_on_c, 0, 54, 34
1, 46540, Note_on_c, 0, 54, 0
1, 46540, Note_on_c, 0, 70, 0
1, 46540, Note_on_c, 0, 58, 0
1, 46540, Note_on_c, 0, 75, 0
1, 46540, Note_on_c, 0, 63, 0
1, 46540, Note_on_c, 0, 66, 0
1, 46540, Note_on_c, 0, 78, 0
1, 46560, Tempo, 669792
1, 46560, Note_on_c, 0, 72, 43
1, 46560, Note_on_c, 0, 68, 43
1, 46560, Note_on_c, 0, 80, 47
1, 46560, Note_on_c, 0, 77, 43
1, 46560, Note_on_c, 0, 56, 36
1, 46560, Note_on_c, 0, 60, 36
1, 46560, Note_on_c, 0, 65, 36
1, 46800, Note_on_c, 0, 65, 0
1, 46800, Note_on_c, 0, 68, 0
1, 46800, Note_on_c, 0, 48, 0
1, 46800, Note_on_c, 0, 80, 0
1, 46800, Note_on_c, 0, 36, 0
1, 46800, Note_on_c, 0, 72, 0
1, 46800, Note_on_c, 0, 56, 0
1, 46800, Note_on_c, 0, 77, 0
1, 46800, Note_on_c, 0, 60, 0
1, 46800, Note_on_c, 0, 70, 42
1, 46800, Note_on_c, 0, 75, 42
1, 46800, Note_on_c, 0, 78, 46
1, 46800, Note_on_c, 0, 66, 42
1, 46800, Note_on_c, 0, 54, 35
1, 46800, Note_on_c, 0, 58, 35
1, 46800, Note_on_c, 0, 63, 35
1, 46813, Control_c, 0, 64, 0
1, 46984, Control_c, 0, 64, 127
1, 47520, Tempo, 718563
1, 47520, Note_on_c, 0, 63, 0
1, 47520, Note_on_c, 0, 54, 0
1, 47520, Note_on_c, 0, 75, 0
1, 47520, Note_on_c, 0, 78, 0
1, 47520, Note_on_c, 0, 70, 0
1, 47520, Note_on_c, 0, 58, 0
1, 47520, Note_on_c, 0, 66, 0
1, 47520, Control_c, 0, 64, 0
1, 47520, Note_on_c, 0, 37, 43
1, 47520, Note_on_c, 0, 49, 51
1, 47598, Control_c, 0, 64, 127
1, 47760, Tempo, 675676
1, 47880, Note_on_c, 0, 78, 61
1, 47880, Note_on_c, 0, 73, 49
1, 47880, Note_on_c, 0, 70, 49
1, 47880, Note_on_c, 0, 66, 54
1, 47880, Note_on_c, 0, 61, 41
1, 47880, Note_on_c, 0, 58, 41
1, 47880, Note_on_c, 0, 54, 44
1, 48240, Tempo, 664158
1, 48240, Note_on_c, 0, 54, 0
1, 48240, Note_on_c, 0, 66, 0
1, 48240, Note_on_c, 0, 78, 0
1, 48240, Note_on_c, 0, 68, 61
1, 48240, Note_on_c, 0, 80, 70
1, 48240, Note_on_c, 0, 56, 49
1, 48480, Tempo, 674157
1, 48600, Note_on_c, 0, 56, 0
1, 48600, Note_on_c, 0, 58, 0
1, 48600, Note_on_c, 0, 80, 0
1, 48600, Note_on_c, 0, 61, 0
1, 48600, Note_on_c, 0, 68, 0
1, 48600, Note_on_c, 0, 73, 0
1, 48600, Note_on_c, 0, 70, 0
1, 48600, Note_on_c, 0, 87, 71
1, 48600, Note_on_c, 0, 75, 62
1, 48600, Note_on_c, 0, 63, 51
1, 48960, Tempo, 713012
1, 48960, Note_on_c, 0, 63, 0
1, 48960, Note_on_c, 0, 87, 0
1, 48960, Note_on_c, 0, 49, 0
1, 48960, Note_on_c, 0, 37, 0
1, 48960, Note_on_c, 0, 75, 0
1, 48960, Note_on_c, 0, 73, 48
1, 48960, Note_on_c, 0, 78, 49
1, 48960, Note_on_c, 0, 82, 49
1, 48960, Note_on_c, 0, 85, 65
1, 48960, Note_on_c, 0, 70, 47
1, 48960, Note_on_c, 0, 66, 47
1, 48960, Note_on_c, 0, 61, 47
1, 48981, Control_c, 0, 64, 0
1, 49045, Control_c, 0, 64, 127
1, 49320, Note_on_c, 0, 61, 0
1, 49320, Note_on_c, 0, 73, 0
1, 49320, Note_on_c, 0, 85, 0
1, 49320, Note_on_c, 0, 70, 57
1, 49320, Note_on_c, 0, 82, 65
1, 49320, Note_on_c, 0, 58, 49
1, 49680, Tempo, 693642
1, 49680, Note_on_c, 0, 58, 0
1, 49680, Note_on_c, 0, 70, 0
1, 49680, Note_on_c, 0, 82, 0
1, 49680, Note_on_c, 0, 66, 0
1, 49680, Note_on_c, 0, 78, 0
1, 49680, Note_on_c, 0, 82, 0
1, 49680, Note_on_c, 0, 70, 0
1, 49680, Control_c, 0, 64, 0
1, 49680, Note_on_c, 0, 39, 41
1, 49680, Note_on_c, 0, 51, 49
1, 49726, Control_c, 0, 64, 127
1, 49920, Tempo, 650266
1, 49920, Note_on_c, 0, 82, 50
1, 49920, Note_on_c, 0, 70, 48
1, 49920, Note_on_c, 0, 78, 48
1, 49920, Note_on_c, 0, 63, 40
1, 49920, Note_on_c, 0, 58, 40
1, 49920, Note_on_c, 0, 54, 40
1, 50160, Tempo, 638978
1, 50160, Note_on_c, 0, 54, 0
1, 50160, Note_on_c, 0, 58, 0
1, 50160, Note_on_c, 0, 78, 0
1, 50160, Note_on_c, 0, 70, 0
1, 50160, Note_on_c, 0, 82, 0
1, 50160, Note_on_c, 0, 63, 0
1, 50160, Note_on_c, 0, 82, 50
1, 50160, Note_on_c, 0, 78, 48
1, 50160, Note_on_c, 0, 70, 48
1, 50160, Note_on_c, 0, 63, 40
1, 50160, Note_on_c, 0, 58, 40
1, 50160, Note_on_c, 0, 54, 40
1, 50390, Note_on_c, 0, 54, 0
1, 50390, Note_on_c, 0, 58, 0
1, 50390, Note_on_c, 0, 78, 0
1, 50390, Note_on_c, 0, 82, 0
1, 50390, Note_on_c, 0, 63, 0
1, 50400, Tempo, 650266
1, 50400, Note_on_c, 0, 70, 0
1, 50400, Note_on_c, 0, 82, 53
1, 50400, Note_on_c, 0, 70, 51
1, 50400, Note_on_c, 0, 78, 51
1, 50400, Note_on_c, 0, 63, 43
1, 50400, Note_on_c, 0, 58, 43
1, 50400, Note_on_c, 0, 54, 43
1, 50640, Tempo, 638638
1, 50640, Note_on_c, 0, 54, 0
1, 50640, Note_on_c, 0, 58, 0
1, 50640, Note_on_c, 0, 78, 0
1, 50640, Note_on_c, 0, 70, 0
1, 50640, Note_on_c, 0, 82, 0
1, 50640, Note_on_c, 0, 63, 0
1, 50640, Note_on_c, 0, 70, 49
1, 50640, Note_on_c, 0, 82, 51
1, 50640, Note_on_c, 0, 78, 49
1, 50640, Note_on_c, 0, 63, 41
1, 50640, Note_on_c, 0, 58, 41
1, 50640, Note_on_c, 0, 54, 41
1, 50860, Note_on_c, 0, 54, 0
1, 50860, Note_on_c, 0, 58, 0
1, 50860, Note_on_c, 0, 78, 0
1, 50860, Note_on_c, 0, 82, 0
1, 50860, Note_on_c, 0, 70, 0
1, 50860, Note_on_c, 0, 63, 0
1, 50880, Tempo, 669792
1, 50880, Note_on_c, 0, 80, 50
1, 50880, Note_on_c, 0, 72, 50
1, 50880, Note_on_c, 0, 84, 52
1, 50880, Note_on_c, 0, 56, 42
1, 50880, Note_on_c, 0, 60, 42
1, 50880, Note_on_c, 0, 65, 42
1, 51120, Tempo, 693642
1, 51120, Note_on_c, 0, 65, 0
1, 51120, Note_on_c, 0, 51, 0
1, 51120, Note_on_c, 0, 84, 0
1, 51120, Note_on_c, 0, 39, 0
1, 51120, Note_on_c, 0, 80, 0
1, 51120, Note_on_c, 0, 72, 0
1, 51120, Note_on_c, 0, 56, 0
1, 51120, Note_on_c, 0, 60, 0
1, 51120, Note_on_c, 0, 78, 50
1, 51120, Note_on_c, 0, 70, 50
1, 51120, Note_on_c, 0, 82, 52
1, 51120, Note_on_c, 0, 63, 42
1, 51120, Note_on_c, 0, 58, 42
1, 51120, Note_on_c, 0, 54, 42
1, 51131, Control_c, 0, 64, 0
1, 51223, Control_c, 0, 64, 127
1, 51340, Note_on_c, 0, 54, 0
1, 51340, Note_on_c, 0, 70, 0
1, 51340, Note_on_c, 0, 82, 0
1, 51340, Note_on_c, 0, 78, 0
1, 51340, Note_on_c, 0, 58, 0
1, 51340, Note_on_c, 0, 63, 0
1, 51360, Tempo, 666667
1, 51360, Note_on_c, 0, 82, 51
1, 51360, Note_on_c, 0, 73, 51
1, 51360, Note_on_c, 0, 85, 53
1, 51360, Note_on_c, 0, 61, 43
1, 51360, Note_on_c, 0, 66, 43
1, 51360, Note_on_c, 0, 70, 43
1, 51600, Tempo, 693642
1, 51600, Note_on_c, 0, 70, 0
1, 51600, Note_on_c, 0, 73, 0
1, 51600, Note_on_c, 0, 85, 0
1, 51600, Note_on_c, 0, 82, 0
1, 51600, Note_on_c, 0, 66, 0
1, 51600, Note_on_c, 0, 61, 0
1, 51600, Note_on_c, 0, 87, 57
1, 51600, Note_on_c, 0, 75, 55
1, 51600, Note_on_c, 0, 82, 55
1, 51600, Note_on_c, 0, 63, 45
1, 51600, Note_on_c, 0, 66, 45
1, 51600, Note_on_c, 0, 70, 45
1, 51720, Tempo, 1121495
1, 51720, Note_on_c, 0, 70, 0
1, 51720, Note_on_c, 0, 75, 0
1, 51720, Note_on_c, 0, 82, 0
1, 51720, Note_on_c, 0, 87, 0
1, 51720, Note_on_c, 0, 66, 0
1, 51720, Note_on_c, 0, 63, 0
1, 51720, Note_on_c, 0, 65, 38
1, 51723, Control_c, 0, 64, 0
1, 51740, Note_on_c, 0, 68, 39
1, 51760, Note_on_c, 0, 73, 40
1, 51780, Note_on_c, 0, 77, 42
1, 51784, Control_c, 0, 64, 127
1, 51800, Note_on_c, 0, 80, 51
1, 51820, Note_on_c, 0, 85, 56
1, 51840, Tempo, 652174
1, 51840, Note_on_c, 0, 92, 65
1, 53137, Control_c, 0, 64, 0
1, 53160, Tempo, 1121495
1, 53160, Note_on_c, 0, 92, 0
1, 53160, Note_on_c, 0, 80, 0
1, 53160, Note_on_c, 0, 68, 0
1, 53160, Note_on_c, 0, 73, 0
1, 53160, Note_on_c, 0, 65, 0
1, 53160, Note_on_c, 0, 85, 0
1, 53160, Note_on_c, 0, 77, 0
1, 53160, Note_on_c, 0, 64, 33
1, 53175, Control_c, 0, 64, 127
1, 53177, Note_on_c, 0, 68, 34
1, 53194, Note_on_c, 0, 70, 34
1, 53211, Note_on_c, 0, 73, 36
1, 53228, Note_on_c, 0, 76, 37
1, 53245, Note_on_c, 0, 80, 45
1, 53262, Note_on_c, 0, 85, 50
1, 53280, Tempo, 677966
1, 53280, Note_on_c, 0, 92, 55
1, 53880, Tempo, 1250000
1, 53880, Note_on_c, 0, 92, 0
1, 53880, Note_on_c, 0, 64, 0
1, 53880, Note_on_c, 0, 76, 0
1, 53880, Note_on_c, 0, 68, 0
1, 53880, Note_on_c, 0, 70, 0
1, 53880, Note_on_c, 0, 73, 0
1, 53880, Note_on_c, 0, 80, 0
1, 53880, Note_on_c, 0, 85, 0
1, 53880, Note_on_c, 0, 63, 33
1, 53886, Control_c, 0, 64, 0
1, 53897, Note_on_c, 0, 66, 34
1, 53914, Note_on_c, 0, 68, 34
1, 53917, Control_c, 0, 64, 127
1, 53931, Note_on_c, 0, 73, 36
1, 53948, Note_on_c, 0, 75, 37
1, 53965, Note_on_c, 0, 80, 45
1, 53982, Note_on_c, 0, 85, 50
1, 54000, Tempo, 648649
1, 54000, Note_on_c, 0, 92, 55
1, 55310, Control_c, 0, 64, 0
1, 55320, Tempo, 1904762
1, 55320, Note_on_c, 0, 92, 0
1, 55320, Note_on_c, 0, 63, 0
1, 55320, Note_on_c, 0, 75, 0
1, 55320, Note_on_c, 0, 66, 0
1, 55320, Note_on_c, 0, 68, 0
1, 55320, Note_on_c, 0, 73, 0
1, 55320, Note_on_c, 0, 80, 0
1, 55320, Note_on_c, 0, 85, 0
1, 55320, Note_on_c, 0, 56, 27
1, 55340, Tempo, 2000000
1, 55340, Note_on_c, 0, 63, 28
1, 55345, Control_c, 0, 64, 127
1, 55360, Tempo, 2105263
1, 55360, Note_on_c, 0, 66, 30
1, 55380, Tempo, 2222222
1, 55380, Note_on_c, 0, 72, 31
1, 55400, Tempo, 2352941
1, 55400, Note_on_c, 0, 68, 32
1, 55420, Tempo, 2500000
1, 55420, Note_on_c, 0, 75, 33
1, 55440, Tempo, 652174
1, 55440, Note_on_c, 0, 80, 39
1, 55920, Tempo, 1212121
1, 56160, Tempo, 685714
1, 56160, Note_on_c, 0, 80, 0
1, 56160, Note_on_c, 0, 68, 0
1, 56160, Note_on_c, 0, 63, 0
1, 56160, Note_on_c, 0, 66, 0
1, 56160, Note_on_c, 0, 56, 0
1, 56160, Note_on_c, 0, 75, 0
1, 56160, Note_on_c, 0, 72, 0
1, 56160, Note_on_c, 0, 68, 40
1, 56160, Note_on_c, 0, 65, 37
1, 56160, Control_c, 0, 64, 0
1, 56160, Note_on_c, 0, 37, 32
1, 56246, Control_c, 0, 64, 127
1, 56280, Note_on_c, 0, 44, 30
1, 56400, Note_on_c, 0, 44, 0
1, 56400, Note_on_c, 0, 49, 30
1, 56520, Note_on_c, 0, 49, 0
1, 56520, Note_on_c, 0, 37, 0
1, 56520, Note_on_c, 0, 53, 30
1, 56640, Note_on_c, 0, 53, 0
1, 56640, Note_on_c, 0, 56, 30
1, 56760, Tempo, 722892
1, 56760, Note_on_c, 0, 56, 0
1, 56760, Note_on_c, 0, 61, 30
1, 56880, Tempo, 685714
1, 56880, Note_on_c, 0, 61, 0
1, 56880, Note_on_c, 0, 41, 33
1, 56890, Control_c, 0, 64, 0
1, 56954, Control_c, 0, 64, 127
1, 57000, Note_on_c, 0, 48, 26
1, 57120, Note_on_c, 0, 48, 0
1, 57120, Note_on_c, 0, 53, 27
1, 57240, Note_on_c, 0, 53, 0
1, 57240, Note_on_c, 0, 41, 0
1, 57240, Note_on_c, 0, 56, 28
1, 57360, Note_on_c, 0, 56, 0
1, 57360, Note_on_c, 0, 60, 30
1, 57480, Tempo, 710059
1, 57480, Note_on_c, 0, 60, 0
1, 57480, Note_on_c, 0, 65, 31
1, 57600, Tempo, 693642
1, 57600, Note_on_c, 0, 65, 0
1, 57600, Note_on_c, 0, 65, 0
1, 57600, Note_on_c, 0, 68, 0
1, 57600, Note_on_c, 0, 68, 36
1, 57600, Note_on_c, 0, 71, 39
1, 57600, Note_on_c, 0, 44, 34
1, 57609, Control_c, 0, 64, 0
1, 57669, Control_c, 0, 64, 127
1, 57720, Note_on_c, 0, 52, 32
1, 57840, Note_on_c, 0, 52, 0
1, 57840, Note_on_c, 0, 56, 32
1, 57960, Note_on_c, 0, 56, 0
1, 57960, Note_on_c, 0, 44, 0
1, 57960, Note_on_c, 0, 59, 32
1, 58080, Tempo, 774194
1, 58080, Note_on_c, 0, 59, 0
1, 58080, Note_on_c, 0, 71, 0
1, 58080, Note_on_c, 0, 73, 37
1, 58080, Note_on_c, 0, 64, 32
1, 58200, Tempo, 810811
1, 58200, Note_on_c, 0, 64, 0
1, 58200, Note_on_c, 0, 68, 32
1, 58318, Note_on_c, 0, 68, 0
1, 58320, Tempo, 685714
1, 58320, Note_on_c, 0, 73, 0
1, 58320, Note_on_c, 0, 68, 0
1, 58320, Note_on_c, 0, 65, 37
1, 58320, Note_on_c, 0, 68, 40
1, 58320, Control_c, 0, 64, 0
1, 58320, Note_on_c, 0, 37, 33
1, 58394, Control_c, 0, 64, 127
1, 58440, Note_on_c, 0, 44, 30
1, 58560, Note_on_c, 0, 44, 0
1, 58560, Note_on_c, 0, 49, 30
1, 58680, Note_on_c, 0, 49, 0
1, 58680, Note_on_c, 0, 37, 0
1, 58680, Note_on_c, 0, 53, 30
1, 58800, Note_on_c, 0, 53, 0
1, 58800, Note_on_c, 0, 56, 30
1, 58920, Tempo, 718563
1, 58920, Note_on_c, 0, 56, 0
1, 58920, Note_on_c, 0, 61, 30
1, 59040, Tempo, 655738
1, 59040, Note_on_c, 0, 61, 0
1, 59040, Note_on_c, 0, 41, 33
1, 59053, Control_c, 0, 64, 0
1, 59097, Control_c, 0, 64, 127
1, 59160, Note_on_c, 0, 48, 30
1, 59280, Note_on_c, 0, 48, 0
1, 59280, Note_on_c, 0, 53, 30
1, 59400, Note_on_c, 0, 53, 0
1, 59400, Note_on_c, 0, 41, 0
1, 59400, Note_on_c, 0, 56, 31
1, 59520, Note_on_c, 0, 56, 0
1, 59520, Note_on_c, 0, 60, 32
1, 59630, Note_on_c, 0, 65, 0
1, 59640, Tempo, 714286
1, 59640, Note_on_c, 0, 60, 0
1, 59640, Note_on_c, 0, 65, 32
1, 59760, Tempo, 652174
1, 59760, Note_on_c, 0, 65, 0
1, 59760, Note_on_c, 0, 68, 0
1, 59760, Note_on_c, 0, 68, 37
1, 59760, Note_on_c, 0, 71, 40
1, 59760, Note_on_c, 0, 44, 34
1, 59769, Control_c, 0, 64, 0
1, 59823, Control_c, 0, 64, 127
1, 59880, Note_on_c, 0, 52, 32
1, 60000, Note_on_c, 0, 52, 0
1, 60000, Note_on_c, 0, 56, 32
1, 60120, Note_on_c, 0, 56, 0
1, 60120, Note_on_c, 0, 44, 0
1, 60120, Note_on_c, 0, 59, 32
1, 60240, Tempo, 638298
1, 60240, Note_on_c, 0, 59, 0
1, 60240, Note_on_c, 0, 71, 0
1, 60240, Note_on_c, 0, 68, 0
1, 60240, Note_on_c, 0, 68, 40
1, 60360, Note_on_c, 0, 64, 32
1, 60480, Tempo, 634921
1, 60480, Note_on_c, 0, 64, 0
1, 60480, Note_on_c, 0, 68, 0
1, 60480, Note_on_c, 0, 65, 42
1, 60480, Note_on_c, 0, 73, 46
1, 60480, Control_c, 0, 64, 0
1, 60480, Note_on_c, 0, 37, 33
1, 60586, Control_c, 0, 64, 127
1, 60600, Note_on_c, 0, 37, 0
1, 60600, Note_on_c, 0, 44, 33
1, 60720, Note_on_c, 0, 44, 0
1, 60720, Note_on_c, 0, 49, 33
1, 60840, Note_on_c, 0, 49, 0
1, 60840, Note_on_c, 0, 53, 33
1, 60960, Tempo, 618557
1, 60960, Note_on_c, 0, 53, 0
1, 60960, Note_on_c, 0, 73, 0
1, 60960, Note_on_c, 0, 65, 0
1, 60960, Note_on_c, 0, 75, 44
1, 60960, Note_on_c, 0, 68, 40
1, 60960, Note_on_c, 0, 56, 33
1, 61020, Tempo, 631247
1, 61080, Note_on_c, 0, 56, 0
1, 61080, Note_on_c, 0, 61, 33
1, 61160, Tempo, 644745
1, 61200, Tempo, 618557
1, 61200, Note_on_c, 0, 61, 0
1, 61200, Note_on_c, 0, 68, 0
1, 61200, Note_on_c, 0, 75, 0
1, 61200, Note_on_c, 0, 77, 48
1, 61200, Note_on_c, 0, 73, 44
1, 61200, Note_on_c, 0, 65, 34
1, 61207, Control_c, 0, 64, 0
1, 61271, Control_c, 0, 64, 127
1, 61320, Note_on_c, 0, 65, 0
1, 61320, Note_on_c, 0, 68, 34
1, 61440, Note_on_c, 0, 68, 0
1, 61440, Note_on_c, 0, 65, 34
1, 61560, Note_on_c, 0, 65, 0
1, 61560, Note_on_c, 0, 61, 34
1, 61680, Note_on_c, 0, 61, 0
1, 61680, Note_on_c, 0, 56, 34
1, 61800, Note_on_c, 0, 56, 0
1, 61800, Note_on_c, 0, 53, 36
1, 61920, Tempo, 638298
1, 61920, Note_on_c, 0, 53, 0
1, 61920, Note_on_c, 0, 73, 0
1, 61920, Note_on_c, 0, 77, 0
1, 61920, Note_on_c, 0, 65, 43
1, 61920, Note_on_c, 0, 73, 47
1, 61920, Note_on_c, 0, 56, 36
1, 61927, Control_c, 0, 64, 0
1, 62012, Control_c, 0, 64, 127
1, 62040, Note_on_c, 0, 56, 0
1, 62040, Note_on_c, 0, 53, 36
1, 62160, Note_on_c, 0, 53, 0
1, 62160, Note_on_c, 0, 49, 36
1, 62280, Note_on_c, 0, 49, 0
1, 62280, Note_on_c, 0, 44, 36
1, 62400, Tempo, 644538
1, 62400, Note_on_c, 0, 44, 0
1, 62400, Note_on_c, 0, 73, 0
1, 62400, Note_on_c, 0, 65, 0
1, 62400, Note_on_c, 0, 73, 44
1, 62400, Note_on_c, 0, 77, 48
1, 62400, Note_on_c, 0, 49, 36
1, 62520, Tempo, 684151
1, 62520, Note_on_c, 0, 49, 0
1, 62520, Note_on_c, 0, 44, 37
1, 62640, Tempo, 622342
1, 62640, Note_on_c, 0, 44, 0
1, 62640, Note_on_c, 0, 77, 0
1, 62640, Note_on_c, 0, 73, 0
1, 62640, Note_on_c, 0, 79, 53
1, 62640, Note_on_c, 0, 75, 49
1, 62640, Note_on_c, 0, 39, 37
1, 62649, Control_c, 0, 64, 0
1, 62703, Control_c, 0, 64, 127
1, 62760, Note_on_c, 0, 39, 0
1, 62760, Note_on_c, 0, 46, 37
1, 62880, Tempo, 613183
1, 62880, Note_on_c, 0, 46, 0
1, 62880, Note_on_c, 0, 75, 0
1, 62880, Note_on_c, 0, 79, 0
1, 62880, Note_on_c, 0, 77, 47
1, 62880, Note_on_c, 0, 73, 43
1, 62880, Note_on_c, 0, 51, 37
1, 63000, Note_on_c, 0, 51, 0
1, 63000, Note_on_c, 0, 55, 37
1, 63120, Tempo, 595652
1, 63120, Note_on_c, 0, 55, 0
1, 63120, Note_on_c, 0, 73, 0
1, 63120, Note_on_c, 0, 77, 0
1, 63120, Note_on_c, 0, 73, 47
1, 63120, Note_on_c, 0, 70, 43
1, 63120, Note_on_c, 0, 58, 37
1, 63240, Tempo, 631247
1, 63240, Note_on_c, 0, 58, 0
1, 63240, Note_on_c, 0, 63, 37
1, 63360, Tempo, 625456
1, 63360, Note_on_c, 0, 63, 0
1, 63360, Note_on_c, 0, 70, 0
1, 63360, Note_on_c, 0, 73, 0
1, 63360, Note_on_c, 0, 70, 39
1, 63360, Note_on_c, 0, 67, 43
1, 63360, Note_on_c, 0, 73, 42
1, 63361, Tempo, 612870
1, 63380, Control_c, 0, 64, 0
1, 63446, Control_c, 0, 64, 127
1, 63480, Note_on_c, 0, 63, 36
1, 63600, Note_on_c, 0, 63, 0
1, 63600, Note_on_c, 0, 67, 0
1, 63600, Note_on_c, 0, 65, 36
1, 63600, Note_on_c, 0, 58, 36
1, 63720, Note_on_c, 0, 58, 0
1, 63720, Note_on_c, 0, 55, 34
1, 63840, Note_on_c, 0, 55, 0
1, 63840, Note_on_c, 0, 65, 0
1, 63840, Note_on_c, 0, 61, 34
1, 63840, Note_on_c, 0, 51, 34
1, 63960, Tempo, 638298
1, 63960, Note_on_c, 0, 51, 0
1, 63960, Note_on_c, 0, 46, 34
1, 64080, Tempo, 609137
1, 64080, Note_on_c, 0, 46, 0
1, 64080, Note_on_c, 0, 61, 0
1, 64080, Note_on_c, 0, 73, 0
1, 64080, Note_on_c, 0, 70, 0
1, 64080, Note_on_c, 0, 61, 38
1, 64080, Note_on_c, 0, 39, 33
1, 64088, Control_c, 0, 64, 0
1, 64143, Control_c, 0, 64, 127
1, 64180, Tempo, 612245
1, 64200, Note_on_c, 0, 39, 0
1, 64200, Note_on_c, 0, 46, 33
1, 64280, Tempo, 615385
1, 64320, Note_on_c, 0, 46, 0
1, 64320, Note_on_c, 0, 51, 33
1, 64380, Tempo, 618557
1, 64440, Note_on_c, 0, 51, 0
1, 64440, Note_on_c, 0, 61, 0
1, 64440, Note_on_c, 0, 58, 36
1, 64440, Note_on_c, 0, 55, 33
1, 64480, Tempo, 621762
1, 64560, Note_on_c, 0, 55, 0
1, 64560, Note_on_c, 0, 51, 33
1, 64580, Tempo, 625000
1, 64680, Tempo, 674157
1, 64680, Note_on_c, 0, 51, 0
1, 64680, Note_on_c, 0, 46, 33
1, 64760, Tempo, 631579
1, 64800, Tempo, 591133
1, 64800, Note_on_c, 0, 46, 0
1, 64800, Note_on_c, 0, 58, 0
1, 64800, Note_on_c, 0, 70, 52
1, 64800, Note_on_c, 0, 44, 37
1, 64805, Control_c, 0, 64, 0
1, 64864, Control_c, 0, 64, 127
1, 64920, Note_on_c, 0, 51, 33
1, 65040, Note_on_c, 0, 51, 0
1, 65040, Note_on_c, 0, 54, 33
1, 65160, Note_on_c, 0, 54, 0
1, 65160, Note_on_c, 0, 58, 33
1, 65280, Note_on_c, 0, 58, 0
1, 65280, Note_on_c, 0, 60, 33
1, 65400, Tempo, 618557
1, 65400, Note_on_c, 0, 60, 0
1, 65400, Note_on_c, 0, 66, 33
1, 65520, Tempo, 591133
1, 65520, Note_on_c, 0, 66, 0
1, 65520, Note_on_c, 0, 44, 0
1, 65520, Note_on_c, 0, 42, 38
1, 65527, Control_c, 0, 64, 0
1, 65605, Control_c, 0, 64, 127
1, 65640, Note_on_c, 0, 49, 32
1, 65760, Note_on_c, 0, 49, 0
1, 65760, Note_on_c, 0, 54, 33
1, 65880, Note_on_c, 0, 54, 0
1, 65880, Note_on_c, 0, 58, 34
1, 66000, Note_on_c, 0, 58, 0
1, 66000, Note_on_c, 0, 61, 34
1, 66120, Tempo, 628272
1, 66120, Note_on_c, 0, 61, 0
1, 66120, Note_on_c, 0, 66, 36
1, 66240, Tempo, 591133
1, 66240, Note_on_c, 0, 66, 0
1, 66240, Note_on_c, 0, 42, 0
1, 66240, Note_on_c, 0, 70, 0
1, 66240, Note_on_c, 0, 72, 51
1, 66240, Note_on_c, 0, 41, 40
1, 66252, Control_c, 0, 64, 0
1, 66325, Control_c, 0, 64, 127
1, 66360, Note_on_c, 0, 48, 36
1, 66480, Tempo, 615385
1, 66480, Note_on_c, 0, 48, 0
1, 66480, Note_on_c, 0, 53, 37
1, 66600, Note_on_c, 0, 53, 0
1, 66600, Note_on_c, 0, 56, 38
1, 66720, Tempo, 652174
1, 66720, Note_on_c, 0, 56, 0
1, 66720, Note_on_c, 0, 72, 0
1, 66720, Note_on_c, 0, 77, 56
1, 66720, Note_on_c, 0, 60, 39
1, 66727, Note_on_c, 0, 68, 38
1, 66833, Note_on_c, 0, 65, 38
1, 66847, Note_on_c, 0, 68, 0
1, 66953, Note_on_c, 0, 65, 0
1, 66960, Note_on_c, 0, 41, 0
1, 66960, Note_on_c, 0, 77, 0
1, 66960, Note_on_c, 0, 60, 0
1, 66968, Control_c, 0, 64, 0
1, 66975, Tempo, 591133
1, 66975, Note_on_c, 0, 70, 52
1, 66975, Note_on_c, 0, 44, 37
1, 67031, Control_c, 0, 64, 127
1, 67095, Note_on_c, 0, 51, 33
1, 67215, Note_on_c, 0, 51, 0
1, 67215, Note_on_c, 0, 54, 33
1, 67335, Note_on_c, 0, 54, 0
1, 67335, Note_on_c, 0, 58, 33
1, 67455, Note_on_c, 0, 58, 0
1, 67455, Note_on_c, 0, 60, 33
1, 67575, Tempo, 618557
1, 67575, Note_on_c, 0, 60, 0
1, 67575, Note_on_c, 0, 66, 34
1, 67689, Control_c, 0, 64, 0
1, 67695, Tempo, 591133
1, 67695, Note_on_c, 0, 66, 0
1, 67695, Note_on_c, 0, 44, 0
1, 67695, Note_on_c, 0, 42, 39
1, 67786, Control_c, 0, 64, 127
1, 67800, Tempo, 582524
1, 67815, Note_on_c, 0, 49, 34
1, 67935, Note_on_c, 0, 49, 0
1, 67935, Note_on_c, 0, 54, 37
1, 68055, Note_on_c, 0, 54, 0
1, 68055, Note_on_c, 0, 58, 38
1, 68175, Note_on_c, 0, 58, 0
1, 68175, Note_on_c, 0, 61, 38
1, 68280, Tempo, 606061
1, 68295, Note_on_c, 0, 61, 0
1, 68295, Note_on_c, 0, 66, 39
1, 68407, Control_c, 0, 64, 0
1, 68415, Tempo, 591133
1, 68415, Note_on_c, 0, 66, 0
1, 68415, Note_on_c, 0, 42, 0
1, 68415, Note_on_c, 0, 70, 0
1, 68415, Note_on_c, 0, 72, 56
1, 68415, Note_on_c, 0, 41, 44
1, 68513, Control_c, 0, 64, 127
1, 68535, Note_on_c, 0, 48, 39
1, 68640, Tempo, 579710
1, 68655, Note_on_c, 0, 48, 0
1, 68655, Note_on_c, 0, 53, 40
1, 68775, Note_on_c, 0, 53, 0
1, 68775, Note_on_c, 0, 56, 43
1, 68895, Tempo, 652174
1, 68895, Note_on_c, 0, 56, 0
1, 68895, Note_on_c, 0, 72, 0
1, 68895, Note_on_c, 0, 77, 60
1, 68895, Note_on_c, 0, 60, 44
1, 68902, Note_on_c, 0, 68, 38
1, 69008, Note_on_c, 0, 65, 38
1, 69022, Note_on_c, 0, 68, 0
1, 69120, Tempo, 594059
1, 69120, Note_on_c, 0, 78, 64
1, 69120, Control_c, 0, 64, 0
1, 69120, Note_on_c, 0, 39, 45
1, 69128, Note_on_c, 0, 65, 0
1, 69135, Note_on_c, 0, 60, 0
1, 69135, Note_on_c, 0, 41, 0
1, 69135, Note_on_c, 0, 77, 0
1, 69240, Note_on_c, 0, 46, 40
1, 69247, Control_c, 0, 64, 127
1, 69360, Note_on_c, 0, 46, 0
1, 69360, Note_on_c, 0, 51, 40
1, 69480, Note_on_c, 0, 51, 0
1, 69480, Note_on_c, 0, 54, 40
1, 69600, Note_on_c, 0, 54, 0
1, 69600, Note_on_c, 0, 58, 40
1, 69720, Note_on_c, 0, 58, 0
1, 69720, Note_on_c, 0, 63, 40
1, 69840, Tempo, 579710
1, 69840, Note_on_c, 0, 63, 0
1, 69840, Note_on_c, 0, 39, 0
1, 69840, Note_on_c, 0, 66, 60
1, 69857, Control_c, 0, 64, 0
1, 69958, Note_on_c, 0, 66, 0
1, 69960, Note_on_c, 0, 66, 46
1, 70080, Note_on_c, 0, 70, 46
1, 70200, Note_on_c, 0, 70, 0
1, 70200, Note_on_c, 0, 66, 0
1, 70200, Note_on_c, 0, 78, 0
1, 70200, Note_on_c, 0, 77, 58
1, 70200, Note_on_c, 0, 65, 58
1, 70320, Note_on_c, 0, 66, 46
1, 70440, Note_on_c, 0, 66, 0
1, 70440, Note_on_c, 0, 70, 46
1, 70560, Note_on_c, 0, 70, 0
1, 70560, Note_on_c, 0, 65, 0
1, 70560, Note_on_c, 0, 77, 0
1, 70560, Note_on_c, 0, 74, 58
1, 70560, Note_on_c, 0, 62, 57
1, 70680, Note_on_c, 0, 66, 46
1, 70800, Note_on_c, 0, 66, 0
1, 70800, Note_on_c, 0, 70, 46
1, 70920, Tempo, 563380
1, 70920, Note_on_c, 0, 70, 0
1, 70920, Note_on_c, 0, 62, 0
1, 70920, Note_on_c, 0, 74, 0
1, 70920, Note_on_c, 0, 75, 60
1, 70920, Note_on_c, 0, 63, 58
1, 71040, Note_on_c, 0, 66, 49
1, 71160, Note_on_c, 0, 66, 0
1, 71160, Note_on_c, 0, 70, 49
1, 71280, Note_on_c, 0, 70, 0
1, 71280, Note_on_c, 0, 63, 0
1, 71280, Note_on_c, 0, 75, 0
1, 71280, Note_on_c, 0, 82, 67
1, 71280, Note_on_c, 0, 62, 55
1, 71366, Control_c, 0, 64, 127
1, 71400, Note_on_c, 0, 66, 43
1, 71520, Note_on_c, 0, 66, 0
1, 71520, Note_on_c, 0, 70, 43
1, 71640, Note_on_c, 0, 70, 0
1, 71640, Note_on_c, 0, 62, 0
1, 71640, Note_on_c, 0, 70, 43
1, 71760, Note_on_c, 0, 70, 0
1, 71760, Note_on_c, 0, 78, 43
1, 71875, Note_on_c, 0, 82, 0
1, 71880, Note_on_c, 0, 78, 0
1, 71880, Note_on_c, 0, 82, 43
1, 72000, Note_on_c, 0, 63, 50
1, 72006, Control_c, 0, 64, 0
1, 72080, Control_c, 0, 64, 127
1, 72120, Note_on_c, 0, 66, 38
1, 72240, Note_on_c, 0, 66, 0
1, 72240, Note_on_c, 0, 70, 38
1, 72360, Note_on_c, 0, 70, 0
1, 72360, Note_on_c, 0, 63, 0
1, 72360, Note_on_c, 0, 70, 38
1, 72480, Note_on_c, 0, 70, 0
1, 72480, Note_on_c, 0, 78, 38
1, 72600, Tempo, 585366
1, 72600, Note_on_c, 0, 78, 0
1, 72600, Note_on_c, 0, 82, 0
1, 72600, Note_on_c, 0, 82, 38
1, 72720, Tempo, 574163
1, 72720, Note_on_c, 0, 82, 0
1, 72720, Note_on_c, 0, 80, 51
1, 72720, Note_on_c, 0, 60, 44
1, 72720, Note_on_c, 0, 56, 44
1, 72737, Control_c, 0, 64, 0
1, 72780, Tempo, 576923
1, 72794, Control_c, 0, 64, 127
1, 72820, Tempo, 579710
1, 72840, Note_on_c, 0, 60, 0
1, 72840, Note_on_c, 0, 64, 37
1, 72860, Tempo, 582524
1, 72900, Tempo, 585366
1, 72960, Tempo, 588235
1, 72960, Note_on_c, 0, 64, 0
1, 72960, Note_on_c, 0, 68, 36
1, 73000, Tempo, 591133
1, 73040, Tempo, 594059
1, 73080, Tempo, 597015
1, 73080, Note_on_c, 0, 68, 0
1, 73080, Note_on_c, 0, 56, 0
1, 73080, Note_on_c, 0, 72, 34
1, 73140, Tempo, 600000
1, 73180, Tempo, 603015
1, 73200, Tempo, 606061
1, 73200, Note_on_c, 0, 72, 0
1, 73200, Note_on_c, 0, 76, 34
1, 73220, Tempo, 609137
1, 73240, Tempo, 615385
1, 73260, Tempo, 621762
1, 73280, Tempo, 628272
1, 73300, Tempo, 634921
1, 73315, Note_on_c, 0, 80, 0
1, 73320, Tempo, 641711
1, 73320, Note_on_c, 0, 76, 0
1, 73320, Note_on_c, 0, 80, 33
1, 73340, Tempo, 648649
1, 73360, Tempo, 655738
1, 73380, Tempo, 662983
1, 73400, Tempo, 670391
1, 73420, Tempo, 677966
1, 73438, Note_on_c, 0, 80, 0
1, 73440, Note_on_c, 0, 80, 51
1, 73440, Note_on_c, 0, 77, 51
1, 73440, Note_on_c, 0, 49, 43
1, 73450, Control_c, 0, 64, 0
1, 73480, Tempo, 606061
1, 73540, Tempo, 603015
1, 73560, Note_on_c, 0, 56, 37
1, 73566, Control_c, 0, 64, 127
1, 73600, Tempo, 600000
1, 73660, Tempo, 597015
1, 73680, Note_on_c, 0, 56, 0
1, 73680, Note_on_c, 0, 61, 37
1, 73720, Tempo, 594059
1, 73780, Tempo, 591133
1, 73800, Note_on_c, 0, 61, 0
1, 73800, Note_on_c, 0, 65, 37
1, 73820, Tempo, 588235
1, 73880, Tempo, 585366
1, 73920, Note_on_c, 0, 65, 0
1, 73920, Note_on_c, 0, 68, 37
1, 73940, Tempo, 582524
1, 74000, Tempo, 579710
1, 74040, Note_on_c, 0, 68, 0
1, 74040, Note_on_c, 0, 73, 37
1, 74060, Tempo, 576923
1, 74120, Tempo, 574163
1, 74160, Tempo, 571429
1, 74160, Note_on_c, 0, 73, 0
1, 74160, Note_on_c, 0, 49, 0
1, 74160, Note_on_c, 0, 56, 46
1, 74160, Note_on_c, 0, 53, 39
1, 74169, Control_c, 0, 64, 0
1, 74234, Control_c, 0, 64, 127
1, 74280, Note_on_c, 0, 56, 0
1, 74280, Note_on_c, 0, 60, 38
1, 74400, Note_on_c, 0, 60, 0
1, 74400, Note_on_c, 0, 65, 40
1, 74520, Note_on_c, 0, 65, 0
1, 74520, Note_on_c, 0, 68, 42
1, 74640, Note_on_c, 0, 68, 0
1, 74640, Note_on_c, 0, 72, 44
1, 74760, Tempo, 585366
1, 74760, Note_on_c, 0, 72, 0
1, 74760, Note_on_c, 0, 77, 46
1, 74880, Tempo, 555556
1, 74880, Note_on_c, 0, 77, 0
1, 74880, Note_on_c, 0, 53, 0
1, 74880, Note_on_c, 0, 77, 0
1, 74880, Note_on_c, 0, 80, 0
1, 74880, Note_on_c, 0, 80, 57
1, 74880, Note_on_c, 0, 83, 57
1, 74880, Note_on_c, 0, 59, 50
1, 74880, Note_on_c, 0, 56, 42
1, 74895, Control_c, 0, 64, 0
1, 74960, Control_c, 0, 64, 127
1, 75000, Note_on_c, 0, 59, 0
1, 75000, Note_on_c, 0, 64, 43
1, 75120, Tempo, 579710
1, 75120, Note_on_c, 0, 64, 0
1, 75120, Note_on_c, 0, 68, 43
1, 75240, Note_on_c, 0, 68, 0
1, 75240, Note_on_c, 0, 71, 43
1, 75360, Tempo, 625000
1, 75360, Note_on_c, 0, 71, 0
1, 75360, Note_on_c, 0, 80, 0
1, 75360, Note_on_c, 0, 83, 0
1, 75360, Note_on_c, 0, 85, 60
1, 75360, Note_on_c, 0, 76, 43
1, 75480, Note_on_c, 0, 76, 0
1, 75480, Note_on_c, 0, 80, 43
1, 75598, Note_on_c, 0, 80, 0
1, 75600, Tempo, 574163
1, 75600, Note_on_c, 0, 85, 0
1, 75600, Note_on_c, 0, 56, 0
1, 75600, Note_on_c, 0, 77, 57
1, 75600, Note_on_c, 0, 80, 57
1, 75600, Note_on_c, 0, 49, 48
1, 75603, Control_c, 0, 64, 0
1, 75663, Control_c, 0, 64, 127
1, 75720, Note_on_c, 0, 56, 43
1, 75840, Note_on_c, 0, 56, 0
1, 75840, Note_on_c, 0, 61, 43
1, 75960, Note_on_c, 0, 61, 0
1, 75960, Note_on_c, 0, 65, 43
1, 76080, Note_on_c, 0, 65, 0
1, 76080, Note_on_c, 0, 68, 43
1, 76200, Note_on_c, 0, 68, 0
1, 76200, Note_on_c, 0, 73, 43
1, 76220, Tempo, 576923
1, 76280, Tempo, 574163
1, 76320, Tempo, 571429
1, 76320, Note_on_c, 0, 73, 0
1, 76320, Note_on_c, 0, 49, 0
1, 76320, Note_on_c, 0, 56, 51
1, 76320, Note_on_c, 0, 53, 43
1, 76328, Control_c, 0, 64, 0
1, 76371, Control_c, 0, 64, 127
1, 76440, Note_on_c, 0, 56, 0
1, 76440, Note_on_c, 0, 60, 40
1, 76560, Note_on_c, 0, 60, 0
1, 76560, Note_on_c, 0, 65, 42
1, 76680, Note_on_c, 0, 65, 0
1, 76680, Note_on_c, 0, 68, 43
1, 76800, Note_on_c, 0, 68, 0
1, 76800, Note_on_c, 0, 72, 44
1, 76920, Tempo, 585366
1, 76920, Note_on_c, 0, 72, 0
1, 76920, Note_on_c, 0, 77, 45
1, 77040, Tempo, 535714
1, 77040, Note_on_c, 0, 77, 0
1, 77040, Note_on_c, 0, 53, 0
1, 77040, Note_on_c, 0, 80, 0
1, 77040, Note_on_c, 0, 77, 0
1, 77040, Note_on_c, 0, 83, 62
1, 77040, Note_on_c, 0, 80, 62
1, 77040, Note_on_c, 0, 59, 54
1, 77040, Note_on_c, 0, 56, 45
1, 77052, Control_c, 0, 64, 0
1, 77149, Control_c, 0, 64, 127
1, 77160, Note_on_c, 0, 59, 0
1, 77160, Note_on_c, 0, 64, 45
1, 77280, Note_on_c, 0, 64, 0
1, 77280, Note_on_c, 0, 68, 45
1, 77400, Note_on_c, 0, 68, 0
1, 77400, Note_on_c, 0, 71, 45
1, 77520, Tempo, 515818
1, 77520, Note_on_c, 0, 71, 0
1, 77520, Note_on_c, 0, 83, 0
1, 77520, Note_on_c, 0, 80, 0
1, 77520, Note_on_c, 0, 80, 70
1, 77520, Note_on_c, 0, 80, 45
1, 77640, Note_on_c, 0, 80, 0
1, 77640, Note_on_c, 0, 76, 45
1, 77760, Key_signature, 4, "major"
1, 77760, Tempo, 524017
1, 77760, Marker_t, "En animant"
1, 77760, Note_on_c, 0, 76, 0
1, 77760, Note_on_c, 0, 80, 0
1, 77760, Note_on_c, 0, 56, 0
1, 77760, Note_on_c, 0, 85, 87
1, 77760, Control_c, 0, 64, 0
1, 77760, Note_on_c, 0, 59, 44
1, 77760, Note_on_c, 0, 61, 52
1, 77831, Control_c, 0, 64, 127
1, 77880, Note_on_c, 0, 61, 0
1, 77880, Note_on_c, 0, 64, 50
1, 78000, Note_on_c, 0, 64, 0
1, 78000, Note_on_c, 0, 68, 50
1, 78120, Note_on_c, 0, 68, 0
1, 78120, Note_on_c, 0, 59, 0
1, 78120, Note_on_c, 0, 73, 51
1, 78120, Note_on_c, 0, 71, 50
1, 78240, Tempo, 481618
1, 78240, Note_on_c, 0, 73, 0
1, 78240, Note_on_c, 0, 80, 73
1, 78360, Note_on_c, 0, 76, 51
1, 78480, Tempo, 498132
1, 78480, Note_on_c, 0, 76, 0
1, 78480, Note_on_c, 0, 85, 0
1, 78480, Note_on_c, 0, 71, 0
1, 78480, Note_on_c, 0, 80, 0
1, 78480, Note_on_c, 0, 88, 86
1, 78480, Note_on_c, 0, 61, 44
1, 78480, Note_on_c, 0, 64, 52
1, 78494, Control_c, 0, 64, 0
1, 78565, Control_c, 0, 64, 127
1, 78600, Note_on_c, 0, 64, 0
1, 78600, Note_on_c, 0, 68, 50
1, 78720, Note_on_c, 0, 68, 0
1, 78720, Note_on_c, 0, 71, 50
1, 78840, Note_on_c, 0, 71, 0
1, 78840, Note_on_c, 0, 61, 0
1, 78840, Note_on_c, 0, 76, 54
1, 78840, Note_on_c, 0, 73, 50
1, 78960, Tempo, 473709
1, 78960, Note_on_c, 0, 76, 0
1, 78960, Note_on_c, 0, 85, 70
1, 79080, Note_on_c, 0, 80, 54
1, 79200, Tempo, 495991
1, 79200, Note_on_c, 0, 80, 0
1, 79200, Note_on_c, 0, 88, 0
1, 79200, Note_on_c, 0, 73, 0
1, 79200, Note_on_c, 0, 85, 0
1, 79200, Note_on_c, 0, 92, 90
1, 79200, Note_on_c, 0, 64, 46
1, 79200, Note_on_c, 0, 68, 55
1, 79208, Control_c, 0, 64, 0
1, 79285, Control_c, 0, 64, 127
1, 79320, Note_on_c, 0, 68, 0
1, 79320, Note_on_c, 0, 71, 52
1, 79440, Note_on_c, 0, 71, 0
1, 79440, Note_on_c, 0, 73, 52
1, 79560, Note_on_c, 0, 73, 0
1, 79560, Note_on_c, 0, 64, 0
1, 79560, Note_on_c, 0, 80, 56
1, 79560, Note_on_c, 0, 76, 52
1, 79680, Tempo, 452830
1, 79680, Note_on_c, 0, 80, 0
1, 79680, Note_on_c, 0, 88, 70
1, 79800, Tempo, 532434
1, 79800, Note_on_c, 0, 83, 56
1, 79920, Tempo, 495991
1, 79920, Note_on_c, 0, 83, 0
1, 79920, Note_on_c, 0, 92, 0
1, 79920, Note_on_c, 0, 76, 0
1, 79920, Note_on_c, 0, 88, 0
1, 79920, Note_on_c, 0, 92, 92
1, 79920, Note_on_c, 0, 68, 57
1, 79930, Control_c, 0, 64, 0
1, 80040, Control_c, 0, 64, 127
1, 80040, Note_on_c, 0, 69, 54
1, 80160, Note_on_c, 0, 69, 0
1, 80160, Note_on_c, 0, 73, 54
1, 80280, Note_on_c, 0, 73, 0
1, 80280, Note_on_c, 0, 68, 0
1, 80280, Note_on_c, 0, 80, 56
1, 80400, Note_on_c, 0, 80, 0
1, 80400, Note_on_c, 0, 85, 56
1, 80520, Note_on_c, 0, 85, 0
1, 80520, Note_on_c, 0, 81, 56
1, 80640, Note_on_c, 0, 81, 0
1, 80640, Note_on_c, 0, 92, 0
1, 80640, Note_on_c, 0, 90, 91
1, 80640, Note_on_c, 0, 66, 56
1, 80649, Control_c, 0, 64, 0
1, 80725, Control_c, 0, 64, 127
1, 80760, Note_on_c, 0, 69, 52
1, 80880, Note_on_c, 0, 69, 0
1, 80880, Note_on_c, 0, 73, 52
1, 81000, Note_on_c, 0, 73, 0
1, 81000, Note_on_c, 0, 66, 0
1, 81000, Note_on_c, 0, 78, 52
1, 81120, Note_on_c, 0, 78, 0
1, 81120, Note_on_c, 0, 85, 52
1, 81240, Note_on_c, 0, 85, 0
1, 81240, Note_on_c, 0, 81, 52
1, 81360, Note_on_c, 0, 81, 0
1, 81360, Note_on_c, 0, 66, 56
1, 81360, Note_on_c, 0, 65, 47
1, 81369, Control_c, 0, 64, 0
1, 81431, Control_c, 0, 64, 127
1, 81480, Note_on_c, 0, 66, 0
1, 81480, Note_on_c, 0, 69, 52
1, 81600, Note_on_c, 0, 69, 0
1, 81600, Note_on_c, 0, 73, 52
1, 81720, Note_on_c, 0, 73, 0
1, 81720, Note_on_c, 0, 65, 0
1, 81720, Note_on_c, 0, 78, 52
1, 81840, Note_on_c, 0, 78, 0
1, 81840, Note_on_c, 0, 85, 52
1, 81960, Tempo, 524017
1, 81960, Note_on_c, 0, 85, 0
1, 81960, Note_on_c, 0, 81, 52
1, 82060, Tempo, 493827
1, 82080, Note_on_c, 0, 81, 0
1, 82080, Note_on_c, 0, 90, 0
1, 82080, Note_on_c, 0, 90, 91
1, 82080, Note_on_c, 0, 64, 56
1, 82089, Control_c, 0, 64, 0
1, 82144, Control_c, 0, 64, 127
1, 82200, Note_on_c, 0, 66, 52
1, 82320, Note_on_c, 0, 66, 0
1, 82320, Note_on_c, 0, 69, 52
1, 82440, Note_on_c, 0, 69, 0
1, 82440, Note_on_c, 0, 64, 0
1, 82440, Note_on_c, 0, 78, 52
1, 82560, Note_on_c, 0, 78, 0
1, 82560, Note_on_c, 0, 85, 52
1, 82680, Note_on_c, 0, 85, 0
1, 82680, Note_on_c, 0, 81, 52
1, 82800, Note_on_c, 0, 81, 0
1, 82800, Note_on_c, 0, 66, 56
1, 82800, Note_on_c, 0, 63, 47
1, 82814, Control_c, 0, 64, 0
1, 82878, Control_c, 0, 64, 127
1, 82920, Note_on_c, 0, 66, 0
1, 82920, Note_on_c, 0, 69, 52
1, 83040, Note_on_c, 0, 69, 0
1, 83040, Note_on_c, 0, 73, 52
1, 83160, Note_on_c, 0, 73, 0
1, 83160, Note_on_c, 0, 63, 0
1, 83160, Note_on_c, 0, 78, 52
1, 83280, Note_on_c, 0, 78, 0
1, 83280, Note_on_c, 0, 85, 52
1, 83400, Note_on_c, 0, 85, 0
1, 83400, Note_on_c, 0, 81, 52
1, 83520, Tempo, 504202
1, 83520, Note_on_c, 0, 81, 0
1, 83520, Note_on_c, 0, 90, 0
1, 83520, Note_on_c, 0, 93, 91
1, 83520, Note_on_c, 0, 64, 56
1, 83520, Note_on_c, 0, 61, 47
1, 83539, Control_c, 0, 64, 0
1, 83619, Control_c, 0, 64, 127
1, 83640, Note_on_c, 0, 64, 0
1, 83640, Note_on_c, 0, 69, 52
1, 83760, Note_on_c, 0, 69, 0
1, 83760, Note_on_c, 0, 73, 52
1, 83880, Note_on_c, 0, 73, 0
1, 83880, Note_on_c, 0, 61, 0
1, 83880, Note_on_c, 0, 76, 52
1, 84000, Tempo, 526316
1, 84000, Note_on_c, 0, 76, 0
1, 84000, Note_on_c, 0, 93, 0
1, 84000, Note_on_c, 0, 97, 91
1, 84120, Note_on_c, 0, 85, 52
1, 84240, Tempo, 493827
1, 84240, Note_on_c, 0, 85, 0
1, 84240, Note_on_c, 0, 97, 0
1, 84240, Note_on_c, 0, 78, 82
1, 84240, Note_on_c, 0, 59, 56
1, 84244, Control_c, 0, 64, 0
1, 84339, Control_c, 0, 64, 127
1, 84360, Note_on_c, 0, 63, 52
1, 84480, Note_on_c, 0, 63, 0
1, 84480, Note_on_c, 0, 66, 52
1, 84600, Note_on_c, 0, 66, 0
1, 84600, Note_on_c, 0, 59, 0
1, 84600, Note_on_c, 0, 66, 52
1, 84720, Note_on_c, 0, 66, 0
1, 84720, Note_on_c, 0, 73, 52
1, 84840, Note_on_c, 0, 73, 0
1, 84840, Note_on_c, 0, 69, 52
1, 84960, Note_on_c, 0, 69, 0
1, 84960, Note_on_c, 0, 57, 56
1, 84974, Control_c, 0, 64, 0
1, 85045, Control_c, 0, 64, 127
1, 85080, Note_on_c, 0, 61, 52
1, 85200, Note_on_c, 0, 61, 0
1, 85200, Note_on_c, 0, 64, 52
1, 85320, Note_on_c, 0, 64, 0
1, 85320, Note_on_c, 0, 57, 0
1, 85320, Note_on_c, 0, 66, 52
1, 85440, Note_on_c, 0, 66, 0
1, 85440, Note_on_c, 0, 73, 52
1, 85560, Note_on_c, 0, 73, 0
1, 85560, Note_on_c, 0, 69, 52
1, 85680, Tempo, 504202
1, 85680, Note_on_c, 0, 69, 0
1, 85680, Note_on_c, 0, 78, 0
1, 85680, Note_on_c, 0, 81, 84
1, 85680, Note_on_c, 0, 56, 56
1, 85686, Control_c, 0, 64, 0
1, 85786, Control_c, 0, 64, 127
1, 85800, Note_on_c, 0, 61, 52
1, 85920, Note_on_c, 0, 61, 0
1, 85920, Note_on_c, 0, 64, 52
1, 86040, Note_on_c, 0, 64, 0
1, 86040, Note_on_c, 0, 56, 0
1, 86040, Note_on_c, 0, 69, 52
1, 86160, Tempo, 550459
1, 86160, Note_on_c, 0, 69, 0
1, 86160, Note_on_c, 0, 81, 0
1, 86160, Note_on_c, 0, 76, 52
1, 86160, Note_on_c, 0, 85, 79
1, 86280, Note_on_c, 0, 76, 0
1, 86280, Note_on_c, 0, 81, 52
1, 86400, Tempo, 560748
1, 86400, Note_on_c, 0, 81, 0
1, 86400, Note_on_c, 0, 85, 0
1, 86400, Note_on_c, 0, 88, 79
1, 86400, Note_on_c, 0, 85, 79
1, 86400, Control_c, 0, 64, 0
1, 86400, Note_on_c, 0, 54, 56
1, 86471, Control_c, 0, 64, 127
1, 86520, Note_on_c, 0, 61, 43
1, 86640, Note_on_c, 0, 61, 0
1, 86640, Note_on_c, 0, 88, 0
1, 86640, Note_on_c, 0, 85, 0
1, 86640, Note_on_c, 0, 87, 69
1, 86640, Note_on_c, 0, 83, 69
1, 86640, Note_on_c, 0, 64, 45
1, 86654, Control_c, 0, 64, 0
1, 86704, Control_c, 0, 64, 127
1, 86760, Note_on_c, 0, 64, 0
1, 86760, Note_on_c, 0, 66, 46
1, 86880, Tempo, 550459
1, 86880, Note_on_c, 0, 66, 0
1, 86880, Note_on_c, 0, 83, 0
1, 86880, Note_on_c, 0, 87, 0
1, 86880, Note_on_c, 0, 85, 69
1, 86880, Note_on_c, 0, 81, 69
1, 86880, Note_on_c, 0, 69, 49
1, 87000, Note_on_c, 0, 69, 0
1, 87000, Note_on_c, 0, 73, 50
1, 87120, Tempo, 588235
1, 87120, Note_on_c, 0, 73, 0
1, 87120, Note_on_c, 0, 81, 0
1, 87120, Note_on_c, 0, 85, 0
1, 87120, Note_on_c, 0, 80, 74
1, 87120, Note_on_c, 0, 83, 74
1, 87120, Note_on_c, 0, 76, 50
1, 87156, Control_c, 0, 64, 0
1, 87226, Control_c, 0, 64, 127
1, 87240, Note_on_c, 0, 76, 0
1, 87240, Note_on_c, 0, 78, 50
1, 87360, Note_on_c, 0, 78, 0
1, 87360, Note_on_c, 0, 76, 49
1, 87480, Note_on_c, 0, 76, 0
1, 87480, Note_on_c, 0, 83, 0
1, 87480, Note_on_c, 0, 80, 0
1, 87480, Note_on_c, 0, 78, 67
1, 87480, Note_on_c, 0, 81, 67
1, 87480, Note_on_c, 0, 73, 48
1, 87486, Control_c, 0, 64, 0
1, 87579, Control_c, 0, 64, 127
1, 87600, Tempo, 550459
1, 87600, Note_on_c, 0, 73, 0
1, 87600, Note_on_c, 0, 69, 46
1, 87720, Note_on_c, 0, 69, 0
1, 87720, Note_on_c, 0, 66, 46
1, 87840, Note_on_c, 0, 66, 0
1, 87840, Note_on_c, 0, 64, 43
1, 87960, Note_on_c, 0, 64, 0
1, 87960, Note_on_c, 0, 66, 42
1, 88080, Note_on_c, 0, 66, 0
1, 88080, Note_on_c, 0, 81, 0
1, 88080, Note_on_c, 0, 78, 0
1, 88080, Note_on_c, 0, 80, 60
1, 88080, Note_on_c, 0, 76, 60
1, 88080, Note_on_c, 0, 64, 40
1, 88200, Note_on_c, 0, 64, 0
1, 88200, Note_on_c, 0, 61, 39
1, 88223, Control_c, 0, 64, 0
1, 88285, Control_c, 0, 64, 127
1, 88320, Note_on_c, 0, 61, 0
1, 88320, Note_on_c, 0, 76, 0
1, 88320, Note_on_c, 0, 80, 0
1, 88320, Note_on_c, 0, 78, 60
1, 88320, Note_on_c, 0, 75, 60
1, 88320, Note_on_c, 0, 57, 38
1, 88440, Note_on_c, 0, 57, 0
1, 88440, Note_on_c, 0, 54, 37
1, 88560, Tempo, 563380
1, 88560, Note_on_c, 0, 54, 0
1, 88560, Note_on_c, 0, 75, 0
1, 88560, Note_on_c, 0, 78, 0
1, 88560, Note_on_c, 0, 54, 0
1, 88560, Note_on_c, 0, 73, 62
1, 88560, Note_on_c, 0, 76, 62
1, 88560, Note_on_c, 0, 42, 43
1, 88567, Control_c, 0, 64, 0
1, 88638, Control_c, 0, 64, 127
1, 88680, Note_on_c, 0, 42, 0
1, 88680, Note_on_c, 0, 49, 38
1, 88800, Note_on_c, 0, 49, 0
1, 88800, Note_on_c, 0, 76, 0
1, 88800, Note_on_c, 0, 73, 0
1, 88800, Note_on_c, 0, 75, 58
1, 88800, Note_on_c, 0, 71, 58
1, 88800, Note_on_c, 0, 52, 39
1, 88818, Control_c, 0, 64, 0
1, 88892, Control_c, 0, 64, 127
1, 88920, Note_on_c, 0, 52, 0
1, 88920, Note_on_c, 0, 54, 40
1, 89040, Tempo, 555556
1, 89040, Note_on_c, 0, 54, 0
1, 89040, Note_on_c, 0, 71, 0
1, 89040, Note_on_c, 0, 75, 0
1, 89040, Note_on_c, 0, 69, 56
1, 89040, Note_on_c, 0, 73, 56
1, 89040, Note_on_c, 0, 57, 42
1, 89160, Note_on_c, 0, 57, 0
1, 89160, Note_on_c, 0, 61, 43
1, 89280, Tempo, 597015
1, 89280, Note_on_c, 0, 61, 0
1, 89280, Note_on_c, 0, 73, 0
1, 89280, Note_on_c, 0, 69, 0
1, 89280, Note_on_c, 0, 71, 57
1, 89280, Note_on_c, 0, 68, 57
1, 89280, Note_on_c, 0, 64, 42
1, 89301, Control_c, 0, 64, 0
1, 89393, Control_c, 0, 64, 127
1, 89400, Note_on_c, 0, 64, 0
1, 89400, Note_on_c, 0, 61, 42
1, 89520, Note_on_c, 0, 61, 0
1, 89520, Note_on_c, 0, 68, 0
1, 89520, Note_on_c, 0, 71, 0
1, 89520, Note_on_c, 0, 66, 52
1, 89520, Note_on_c, 0, 69, 52
1, 89520, Note_on_c, 0, 57, 40
1, 89640, Note_on_c, 0, 57, 0
1, 89640, Note_on_c, 0, 54, 40
1, 89760, Tempo, 558140
1, 89760, Note_on_c, 0, 54, 0
1, 89760, Note_on_c, 0, 69, 0
1, 89760, Note_on_c, 0, 66, 0
1, 89760, Note_on_c, 0, 68, 49
1, 89760, Note_on_c, 0, 64, 49
1, 89760, Note_on_c, 0, 52, 39
1, 89767, Control_c, 0, 64, 0
1, 89824, Control_c, 0, 64, 127
1, 89880, Note_on_c, 0, 52, 0
1, 89880, Note_on_c, 0, 49, 38
1, 90000, Note_on_c, 0, 49, 0
1, 90000, Note_on_c, 0, 57, 46
1, 90000, Note_on_c, 0, 42, 37
1, 90016, Control_c, 0, 64, 0
1, 90099, Control_c, 0, 64, 127
1, 90120, Note_on_c, 0, 42, 0
1, 90120, Note_on_c, 0, 49, 34
1, 90240, Tempo, 579710
1, 90240, Note_on_c, 0, 49, 0
1, 90240, Note_on_c, 0, 64, 0
1, 90240, Note_on_c, 0, 68, 0
1, 90240, Note_on_c, 0, 66, 43
1, 90240, Note_on_c, 0, 63, 43
1, 90240, Note_on_c, 0, 42, 37
1, 90261, Control_c, 0, 64, 0
1, 90332, Control_c, 0, 64, 127
1, 90360, Note_on_c, 0, 42, 0
1, 90360, Note_on_c, 0, 49, 34
1, 90480, Tempo, 606061
1, 90480, Note_on_c, 0, 49, 0
1, 90480, Note_on_c, 0, 63, 0
1, 90480, Note_on_c, 0, 66, 0
1, 90480, Note_on_c, 0, 61, 40
1, 90480, Note_on_c, 0, 64, 40
1, 90480, Note_on_c, 0, 42, 37
1, 90600, Note_on_c, 0, 42, 0
1, 90600, Note_on_c, 0, 49, 34
1, 90720, Key_signature, -5, "major"
1, 90720, Tempo, 674157
1, 90720, Marker_t, "Calmato"
1, 90720, Note_on_c, 0, 49, 0
1, 90720, Note_on_c, 0, 64, 0
1, 90720, Note_on_c, 0, 61, 0
1, 90720, Note_on_c, 0, 57, 0
1, 90720, Note_on_c, 0, 61, 37
1, 90720, Note_on_c, 0, 63, 40
1, 90720, Note_on_c, 0, 54, 37
1, 90720, Control_c, 0, 64, 0
1, 90720, Note_on_c, 0, 44, 32
1, 90840, Note_on_c, 0, 44, 0
1, 90840, Control_c, 0, 64, 127
1, 90840, Note_on_c, 0, 51, 31
1, 90960, Note_on_c, 0, 51, 0
1, 90960, Note_on_c, 0, 44, 33
1, 91080, Note_on_c, 0, 44, 0
1, 91080, Note_on_c, 0, 51, 31
1, 91200, Tempo, 652174
1, 91200, Note_on_c, 0, 51, 0
1, 91200, Note_on_c, 0, 54, 0
1, 91200, Note_on_c, 0, 56, 36
1, 91200, Note_on_c, 0, 44, 33
1, 91320, Note_on_c, 0, 44, 0
1, 91320, Note_on_c, 0, 51, 32
1, 91440, Tempo, 603015
1, 91440, Note_on_c, 0, 51, 0
1, 91440, Note_on_c, 0, 56, 0
1, 91440, Note_on_c, 0, 58, 38
1, 91440, Note_on_c, 0, 44, 34
1, 91455, Control_c, 0, 64, 0
1, 91553, Control_c, 0, 64, 127
1, 91560, Note_on_c, 0, 44, 0
1, 91560, Note_on_c, 0, 51, 32
1, 91680, Note_on_c, 0, 51, 0
1, 91680, Note_on_c, 0, 44, 34
1, 91800, Note_on_c, 0, 44, 0
1, 91800, Note_on_c, 0, 51, 34
1, 91920, Tempo, 594059
1, 91920, Note_on_c, 0, 51, 0
1, 91920, Note_on_c, 0, 58, 0
1, 91920, Note_on_c, 0, 61, 37
1, 91920, Note_on_c, 0, 44, 36
1, 92040, Note_on_c, 0, 44, 0
1, 92040, Note_on_c, 0, 51, 34
1, 92160, Tempo, 600000
1, 92160, Note_on_c, 0, 51, 0
1, 92160, Note_on_c, 0, 61, 0
1, 92160, Note_on_c, 0, 63, 0
1, 92160, Note_on_c, 0, 61, 0
1, 92160, Note_on_c, 0, 66, 44
1, 92160, Note_on_c, 0, 60, 37
1, 92160, Note_on_c, 0, 63, 37
1, 92160, Note_on_c, 0, 44, 33
1, 92170, Control_c, 0, 64, 0
1, 92224, Control_c, 0, 64, 127
1, 92280, Note_on_c, 0, 44, 0
1, 92280, Note_on_c, 0, 51, 31
1, 92400, Note_on_c, 0, 51, 0
1, 92400, Note_on_c, 0, 44, 33
1, 92520, Note_on_c, 0, 44, 0
1, 92520, Note_on_c, 0, 51, 31
1, 92640, Tempo, 634921
1, 92640, Note_on_c, 0, 51, 0
1, 92640, Note_on_c, 0, 63, 0
1, 92640, Note_on_c, 0, 66, 0
1, 92640, Note_on_c, 0, 63, 40
1, 92640, Note_on_c, 0, 66, 37
1, 92640, Note_on_c, 0, 70, 44
1, 92640, Note_on_c, 0, 44, 33
1, 92760, Note_on_c, 0, 44, 0
1, 92760, Note_on_c, 0, 51, 31
1, 92880, Tempo, 652174
1, 92880, Note_on_c, 0, 51, 0
1, 92880, Note_on_c, 0, 70, 0
1, 92880, Note_on_c, 0, 60, 0
1, 92880, Note_on_c, 0, 63, 0
1, 92880, Note_on_c, 0, 66, 0
1, 92880, Note_on_c, 0, 61, 37
1, 92880, Note_on_c, 0, 63, 40
1, 92880, Note_on_c, 0, 54, 37
1, 92880, Note_on_c, 0, 44, 32
1, 92886, Control_c, 0, 64, 0
1, 92979, Control_c, 0, 64, 127
1, 93000, Note_on_c, 0, 44, 0
1, 93000, Note_on_c, 0, 51, 31
1, 93120, Note_on_c, 0, 51, 0
1, 93120, Note_on_c, 0, 44, 33
1, 93240, Note_on_c, 0, 44, 0
1, 93240, Note_on_c, 0, 51, 31
1, 93360, Tempo, 638298
1, 93360, Note_on_c, 0, 51, 0
1, 93360, Note_on_c, 0, 54, 0
1, 93360, Note_on_c, 0, 56, 34
1, 93360, Note_on_c, 0, 44, 33
1, 93480, Note_on_c, 0, 44, 0
1, 93480, Note_on_c, 0, 51, 32
1, 93600, Tempo, 600000
1, 93600, Note_on_c, 0, 51, 0
1, 93600, Note_on_c, 0, 56, 0
1, 93600, Note_on_c, 0, 58, 38
1, 93600, Note_on_c, 0, 44, 34
1, 93621, Control_c, 0, 64, 0
1, 93692, Control_c, 0, 64, 127
1, 93720, Note_on_c, 0, 44, 0
1, 93720, Note_on_c, 0, 51, 32
1, 93840, Note_on_c, 0, 51, 0
1, 93840, Note_on_c, 0, 44, 34
1, 93960, Note_on_c, 0, 44, 0
1, 93960, Note_on_c, 0, 51, 33
1, 94080, Tempo, 594059
1, 94080, Note_on_c, 0, 51, 0
1, 94080, Note_on_c, 0, 58, 0
1, 94080, Note_on_c, 0, 61, 37
1, 94080, Note_on_c, 0, 44, 36
1, 94200, Note_on_c, 0, 44, 0
1, 94200, Note_on_c, 0, 51, 34
1, 94320, Tempo, 600000
1, 94320, Note_on_c, 0, 51, 0
1, 94320, Note_on_c, 0, 61, 0
1, 94320, Note_on_c, 0, 63, 0
1, 94320, Note_on_c, 0, 61, 0
1, 94320, Note_on_c, 0, 66, 40
1, 94320, Note_on_c, 0, 60, 37
1, 94320, Note_on_c, 0, 63, 37
1, 94320, Note_on_c, 0, 44, 33
1, 94338, Control_c, 0, 64, 0
1, 94405, Control_c, 0, 64, 127
1, 94440, Note_on_c, 0, 44, 0
1, 94440, Note_on_c, 0, 51, 31
1, 94560, Note_on_c, 0, 51, 0
1, 94560, Note_on_c, 0, 44, 33
1, 94680, Note_on_c, 0, 44, 0
1, 94680, Note_on_c, 0, 51, 31
1, 94800, Tempo, 612245
1, 94800, Note_on_c, 0, 51, 0
1, 94800, Note_on_c, 0, 63, 0
1, 94800, Note_on_c, 0, 66, 0
1, 94800, Note_on_c, 0, 63, 36
1, 94800, Note_on_c, 0, 66, 36
1, 94800, Note_on_c, 0, 70, 39
1, 94800, Note_on_c, 0, 44, 33
1, 94920, Note_on_c, 0, 44, 0
1, 94920, Note_on_c, 0, 51, 31
1, 95040, Note_on_c, 0, 51, 0
1, 95040, Note_on_c, 0, 63, 0
1, 95040, Note_on_c, 0, 60, 0
1, 95040, Note_on_c, 0, 61, 34
1, 95040, Note_on_c, 0, 44, 37
1, 95046, Control_c, 0, 64, 0
1, 95146, Control_c, 0, 64, 127
1, 95160, Note_on_c, 0, 44, 0
1, 95160, Note_on_c, 0, 39, 33
1, 95260, Note_on_c, 0, 70, 0
1, 95260, Note_on_c, 0, 61, 0
1, 95260, Note_on_c, 0, 66, 0
1, 95280, Tempo, 585366
1, 95280, Note_on_c, 0, 39, 0
1, 95280, Note_on_c, 0, 68, 39
1, 95280, Note_on_c, 0, 77, 42
1, 95280, Note_on_c, 0, 72, 39
1, 95280, Note_on_c, 0, 44, 37
1, 95400, Note_on_c, 0, 44, 0
1, 95400, Note_on_c, 0, 51, 36
1, 95520, Note_on_c, 0, 51, 0
1, 95520, Note_on_c, 0, 72, 0
1, 95520, Note_on_c, 0, 77, 0
1, 95520, Note_on_c, 0, 68, 0
1, 95520, Note_on_c, 0, 70, 38
1, 95520, Note_on_c, 0, 75, 41
1, 95520, Note_on_c, 0, 66, 38
1, 95520, Note_on_c, 0, 44, 37
1, 95640, Note_on_c, 0, 44, 0
1, 95640, Note_on_c, 0, 51, 36
1, 95760, Tempo, 597015
1, 95760, Note_on_c, 0, 51, 0
1, 95760, Note_on_c, 0, 66, 0
1, 95760, Note_on_c, 0, 75, 0
1, 95760, Note_on_c, 0, 70, 0
1, 95760, Note_on_c, 0, 61, 36
1, 95760, Note_on_c, 0, 66, 36
1, 95760, Note_on_c, 0, 70, 39
1, 95760, Note_on_c, 0, 56, 39
1, 95770, Control_c, 0, 64, 0
1, 95824, Control_c, 0, 64, 127
1, 95880, Note_on_c, 0, 56, 0
1, 95880, Note_on_c, 0, 51, 34
1, 96000, Tempo, 588235
1, 96000, Note_on_c, 0, 51, 0
1, 96000, Note_on_c, 0, 61, 0
1, 96000, Note_on_c, 0, 58, 34
1, 96000, Note_on_c, 0, 56, 37
1, 96120, Note_on_c, 0, 56, 0
1, 96120, Note_on_c, 0, 63, 34
1, 96240, Tempo, 582524
1, 96240, Note_on_c, 0, 63, 0
1, 96240, Note_on_c, 0, 58, 0
1, 96240, Note_on_c, 0, 61, 34
1, 96240, Note_on_c, 0, 56, 36
1, 96360, Note_on_c, 0, 56, 0
1, 96360, Note_on_c, 0, 51, 34
1, 96480, Tempo, 588235
1, 96480, Note_on_c, 0, 51, 0
1, 96480, Note_on_c, 0, 61, 0
1, 96480, Note_on_c, 0, 70, 0
1, 96480, Note_on_c, 0, 66, 0
1, 96480, Note_on_c, 0, 58, 31
1, 96480, Note_on_c, 0, 68, 36
1, 96480, Note_on_c, 0, 66, 33
1, 96480, Note_on_c, 0, 56, 37
1, 96491, Control_c, 0, 64, 0
1, 96558, Control_c, 0, 64, 127
1, 96600, Note_on_c, 0, 56, 0
1, 96600, Note_on_c, 0, 51, 34
1, 96720, Tempo, 582524
1, 96720, Note_on_c, 0, 51, 0
1, 96720, Note_on_c, 0, 58, 0
1, 96720, Note_on_c, 0, 60, 34
1, 96720, Note_on_c, 0, 44, 34
1, 96840, Note_on_c, 0, 44, 0
1, 96840, Note_on_c, 0, 51, 33
1, 96960, Tempo, 576923
1, 96960, Note_on_c, 0, 51, 0
1, 96960, Note_on_c, 0, 60, 0
1, 96960, Note_on_c, 0, 63, 34
1, 96960, Note_on_c, 0, 44, 34
1, 97080, Note_on_c, 0, 44, 0
1, 97080, Note_on_c, 0, 39, 33
1, 97200, Tempo, 582524
1, 97200, Note_on_c, 0, 39, 0
1, 97200, Note_on_c, 0, 63, 0
1, 97200, Note_on_c, 0, 66, 0
1, 97200, Note_on_c, 0, 68, 0
1, 97200, Note_on_c, 0, 66, 34
1, 97200, Note_on_c, 0, 70, 34
1, 97200, Note_on_c, 0, 61, 34
1, 97200, Note_on_c, 0, 44, 37
1, 97202, Control_c, 0, 64, 0
1, 97278, Control_c, 0, 64, 127
1, 97320, Note_on_c, 0, 44, 0
1, 97320, Note_on_c, 0, 39, 33
1, 97420, Note_on_c, 0, 66, 0
1, 97420, Note_on_c, 0, 61, 0
1, 97420, Note_on_c, 0, 70, 0
1, 97440, Tempo, 579710
1, 97440, Note_on_c, 0, 39, 0
1, 97440, Note_on_c, 0, 68, 39
1, 97440, Note_on_c, 0, 77, 42
1, 97440, Note_on_c, 0, 72, 39
1, 97440, Note_on_c, 0, 44, 37
1, 97560, Note_on_c, 0, 44, 0
1, 97560, Note_on_c, 0, 51, 36
1, 97680, Note_on_c, 0, 51, 0
1, 97680, Note_on_c, 0, 72, 0
1, 97680, Note_on_c, 0, 77, 0
1, 97680, Note_on_c, 0, 68, 0
1, 97680, Note_on_c, 0, 66, 38
1, 97680, Note_on_c, 0, 75, 41
1, 97680, Note_on_c, 0, 70, 38
1, 97680, Note_on_c, 0, 44, 37
1, 97800, Note_on_c, 0, 44, 0
1, 97800, Note_on_c, 0, 51, 36
1, 97920, Tempo, 603015
1, 97920, Note_on_c, 0, 51, 0
1, 97920, Note_on_c, 0, 70, 0
1, 97920, Note_on_c, 0, 75, 0
1, 97920, Note_on_c, 0, 66, 0
1, 97920, Note_on_c, 0, 66, 36
1, 97920, Note_on_c, 0, 70, 39
1, 97920, Note_on_c, 0, 61, 36
1, 97920, Note_on_c, 0, 56, 39
1, 97929, Control_c, 0, 64, 0
1, 97991, Control_c, 0, 64, 127
1, 98040, Note_on_c, 0, 56, 0
1, 98040, Note_on_c, 0, 51, 34
1, 98160, Tempo, 588235
1, 98160, Note_on_c, 0, 51, 0
1, 98160, Note_on_c, 0, 61, 0
1, 98160, Note_on_c, 0, 58, 34
1, 98160, Note_on_c, 0, 56, 37
1, 98280, Note_on_c, 0, 56, 0
1, 98280, Note_on_c, 0, 63, 34
1, 98400, Tempo, 582524
1, 98400, Note_on_c, 0, 63, 0
1, 98400, Note_on_c, 0, 58, 0
1, 98400, Note_on_c, 0, 61, 34
1, 98400, Note_on_c, 0, 56, 36
1, 98520, Note_on_c, 0, 56, 0
1, 98520, Note_on_c, 0, 51, 34
1, 98640, Tempo, 600000
1, 98640, Note_on_c, 0, 51, 0
1, 98640, Note_on_c, 0, 61, 0
1, 98640, Note_on_c, 0, 70, 0
1, 98640, Note_on_c, 0, 66, 0
1, 98640, Note_on_c, 0, 58, 31
1, 98640, Note_on_c, 0, 68, 36
1, 98640, Note_on_c, 0, 66, 33
1, 98640, Note_on_c, 0, 56, 37
1, 98649, Control_c, 0, 64, 0
1, 98704, Control_c, 0, 64, 127
1, 98760, Note_on_c, 0, 56, 0
1, 98760, Note_on_c, 0, 51, 37
1, 98880, Tempo, 588235
1, 98880, Note_on_c, 0, 51, 0
1, 98880, Note_on_c, 0, 58, 0
1, 98880, Note_on_c, 0, 60, 34
1, 98880, Note_on_c, 0, 56, 34
1, 99000, Note_on_c, 0, 56, 0
1, 99000, Note_on_c, 0, 51, 33
1, 99120, Tempo, 606061
1, 99120, Note_on_c, 0, 51, 0
1, 99120, Note_on_c, 0, 60, 0
1, 99120, Note_on_c, 0, 63, 34
1, 99120, Note_on_c, 0, 56, 34
1, 99240, Tempo, 662983
1, 99240, Note_on_c, 0, 56, 0
1, 99240, Note_on_c, 0, 51, 33
1, 99360, Tempo, 618557
1, 99360, Note_on_c, 0, 51, 0
1, 99360, Note_on_c, 0, 63, 0
1, 99360, Note_on_c, 0, 66, 0
1, 99360, Note_on_c, 0, 68, 0
1, 99360, Note_on_c, 0, 75, 48
1, 99360, Note_on_c, 0, 61, 40
1, 99360, Note_on_c, 0, 54, 40
1, 99370, Control_c, 0, 64, 0
1, 99438, Control_c, 0, 64, 127
1, 99480, Note_on_c, 0, 63, 32
1, 99600, Note_on_c, 0, 63, 0
1, 99600, Note_on_c, 0, 66, 34
1, 99720, Note_on_c, 0, 66, 0
1, 99720, Note_on_c, 0, 70, 32
1, 99820, Tempo, 621762
1, 99840, Tempo, 600000
1, 99840, Note_on_c, 0, 70, 0
1, 99840, Note_on_c, 0, 54, 0
1, 99840, Note_on_c, 0, 66, 34
1, 99840, Note_on_c, 0, 56, 39
1, 99960, Note_on_c, 0, 66, 0
1, 99960, Note_on_c, 0, 63, 32
1, 100080, Tempo, 612245
1, 100080, Note_on_c, 0, 63, 0
1, 100080, Note_on_c, 0, 56, 0
1, 100080, Note_on_c, 0, 58, 42
1, 100089, Control_c, 0, 64, 0
1, 100158, Control_c, 0, 64, 127
1, 100200, Note_on_c, 0, 63, 32
1, 100320, Note_on_c, 0, 63, 0
1, 100320, Note_on_c, 0, 66, 36
1, 100440, Note_on_c, 0, 66, 0
1, 100440, Note_on_c, 0, 70, 32
1, 100560, Tempo, 594059
1, 100560, Note_on_c, 0, 70, 0
1, 100560, Note_on_c, 0, 58, 0
1, 100560, Note_on_c, 0, 66, 36
1, 100560, Note_on_c, 0, 61, 40
1, 100680, Note_on_c, 0, 66, 0
1, 100680, Note_on_c, 0, 63, 32
1, 100800, Tempo, 625000
1, 100800, Note_on_c, 0, 63, 0
1, 100800, Note_on_c, 0, 61, 0
1, 100800, Note_on_c, 0, 61, 0
1, 100800, Note_on_c, 0, 75, 0
1, 100800, Note_on_c, 0, 78, 53
1, 100800, Note_on_c, 0, 60, 40
1, 100806, Control_c, 0, 64, 0
1, 100878, Control_c, 0, 64, 127
1, 100920, Note_on_c, 0, 63, 30
1, 101040, Note_on_c, 0, 63, 0
1, 101040, Note_on_c, 0, 66, 30
1, 101160, Note_on_c, 0, 66, 0
1, 101160, Note_on_c, 0, 70, 30
1, 101280, Tempo, 662983
1, 101280, Note_on_c, 0, 70, 0
1, 101280, Note_on_c, 0, 78, 0
1, 101280, Note_on_c, 0, 82, 50
1, 101280, Note_on_c, 0, 72, 30
1, 101400, Note_on_c, 0, 72, 0
1, 101400, Note_on_c, 0, 75, 32
1, 101520, Tempo, 628272
1, 101520, Note_on_c, 0, 75, 0
1, 101520, Note_on_c, 0, 82, 0
1, 101520, Note_on_c, 0, 60, 0
1, 101520, Note_on_c, 0, 75, 48
1, 101520, Note_on_c, 0, 61, 40
1, 101520, Note_on_c, 0, 54, 40
1, 101528, Control_c, 0, 64, 0
1, 101591, Control_c, 0, 64, 127
1, 101640, Note_on_c, 0, 63, 32
1, 101760, Note_on_c, 0, 63, 0
1, 101760, Note_on_c, 0, 66, 34
1, 101880, Note_on_c, 0, 66, 0
1, 101880, Note_on_c, 0, 70, 32
1, 101980, Tempo, 621762
1, 102000, Tempo, 618557
1, 102000, Note_on_c, 0, 70, 0
1, 102000, Note_on_c, 0, 54, 0
1, 102000, Note_on_c, 0, 66, 34
1, 102000, Note_on_c, 0, 56, 39
1, 102120, Note_on_c, 0, 66, 0
1, 102120, Note_on_c, 0, 63, 32
1, 102240, Tempo, 648649
1, 102240, Note_on_c, 0, 63, 0
1, 102240, Note_on_c, 0, 56, 0
1, 102240, Note_on_c, 0, 58, 42
1, 102261, Control_c, 0, 64, 0
1, 102353, Control_c, 0, 64, 127
1, 102360, Note_on_c, 0, 63, 32
1, 102480, Note_on_c, 0, 63, 0
1, 102480, Note_on_c, 0, 66, 36
1, 102600, Note_on_c, 0, 66, 0
1, 102600, Note_on_c, 0, 70, 32
1, 102720, Tempo, 693642
1, 102720, Note_on_c, 0, 70, 0
1, 102720, Note_on_c, 0, 58, 0
1, 102720, Note_on_c, 0, 66, 36
1, 102720, Note_on_c, 0, 61, 40
1, 102840, Note_on_c, 0, 66, 0
1, 102840, Note_on_c, 0, 63, 32
1, 102960, Tempo, 674157
1, 102960, Note_on_c, 0, 63, 0
1, 102960, Note_on_c, 0, 61, 0
1, 102960, Note_on_c, 0, 61, 0
1, 102960, Note_on_c, 0, 75, 0
1, 102960, Note_on_c, 0, 78, 53
1, 102960, Note_on_c, 0, 60, 40
1, 102979, Control_c, 0, 64, 0
1, 103052, Control_c, 0, 64, 127
1, 103080, Note_on_c, 0, 63, 30
1, 103200, Note_on_c, 0, 63, 0
1, 103200, Note_on_c, 0, 66, 30
1, 103320, Note_on_c, 0, 66, 0
1, 103320, Note_on_c, 0, 70, 30
1, 103440, Tempo, 800000
1, 103440, Note_on_c, 0, 70, 0
1, 103440, Note_on_c, 0, 78, 0
1, 103440, Note_on_c, 0, 72, 32
1, 103440, Note_on_c, 0, 82, 52
1, 103560, Note_on_c, 0, 72, 0
1, 103560, Note_on_c, 0, 75, 32
1, 103680, Tempo, 648649
1, 103680, Note_on_c, 0, 75, 0
1, 103680, Note_on_c, 0, 82, 0
1, 103680, Note_on_c, 0, 60, 0
1, 103680, Note_on_c, 0, 87, 52
1, 103680, Control_c, 0, 64, 0
1, 103680, Note_on_c, 0, 66, 44
1, 103765, Control_c, 0, 64, 127
1, 103800, Tempo, 628272
1, 103800, Note_on_c, 0, 70, 37
1, 103920, Note_on_c, 0, 70, 0
1, 103920, Note_on_c, 0, 73, 37
1, 103960, Tempo, 625000
1, 104040, Note_on_c, 0, 73, 0
1, 104040, Note_on_c, 0, 75, 36
1, 104100, Tempo, 621762
1, 104160, Note_on_c, 0, 75, 0
1, 104160, Note_on_c, 0, 78, 33
1, 104240, Tempo, 618557
1, 104280, Note_on_c, 0, 78, 0
1, 104280, Note_on_c, 0, 82, 32
1, 104380, Tempo, 615385
1, 104400, Tempo, 641711
1, 104400, Note_on_c, 0, 82, 0
1, 104400, Note_on_c, 0, 66, 36
1, 104419, Control_c, 0, 64, 0
1, 104485, Control_c, 0, 64, 127
1, 104520, Tempo, 618557
1, 104520, Note_on_c, 0, 66, 0
1, 104520, Note_on_c, 0, 70, 32
1, 104640, Note_on_c, 0, 70, 0
1, 104640, Note_on_c, 0, 73, 32
1, 104760, Note_on_c, 0, 73, 0
1, 104760, Note_on_c, 0, 75, 36
1, 104880, Note_on_c, 0, 75, 0
1, 104880, Note_on_c, 0, 78, 33
1, 105000, Note_on_c, 0, 78, 0
1, 105000, Note_on_c, 0, 84, 32
1, 105120, Tempo, 638298
1, 105120, Note_on_c, 0, 84, 0
1, 105120, Note_on_c, 0, 66, 37
1, 105129, Control_c, 0, 64, 0
1, 105191, Control_c, 0, 64, 127
1, 105240, Tempo, 618557
1, 105240, Note_on_c, 0, 66, 0
1, 105240, Note_on_c, 0, 70, 31
1, 105260, Tempo, 618557
1, 105360, Tempo, 618557
1, 105360, Note_on_c, 0, 70, 0
1, 105360, Note_on_c, 0, 73, 31
1, 105440, Tempo, 621762
1, 105480, Note_on_c, 0, 73, 0
1, 105480, Note_on_c, 0, 75, 33
1, 105500, Tempo, 625000
1, 105580, Tempo, 628272
1, 105600, Note_on_c, 0, 75, 0
1, 105600, Note_on_c, 0, 78, 32
1, 105640, Tempo, 631579
1, 105720, Tempo, 634921
1, 105720, Note_on_c, 0, 78, 0
1, 105720, Note_on_c, 0, 82, 31
1, 105780, Tempo, 638298
1, 105840, Tempo, 670391
1, 105840, Note_on_c, 0, 82, 0
1, 105840, Note_on_c, 0, 66, 0
1, 105840, Note_on_c, 0, 66, 39
1, 105850, Control_c, 0, 64, 0
1, 105926, Control_c, 0, 64, 127
1, 105960, Tempo, 641711
1, 105960, Note_on_c, 0, 69, 30
1, 106080, Note_on_c, 0, 69, 0
1, 106080, Note_on_c, 0, 73, 30
1, 106200, Note_on_c, 0, 73, 0
1, 106200, Note_on_c, 0, 75, 32
1, 106320, Note_on_c, 0, 75, 0
1, 106320, Note_on_c, 0, 78, 31
1, 106440, Note_on_c, 0, 78, 0
1, 106440, Note_on_c, 0, 81, 31
1, 106560, Tempo, 662983
1, 106560, Note_on_c, 0, 81, 0
1, 106560, Note_on_c, 0, 87, 0
1, 106560, Note_on_c, 0, 85, 52
1, 106560, Note_on_c, 0, 66, 34
1, 106569, Control_c, 0, 64, 0
1, 106623, Control_c, 0, 64, 127
1, 106680, Note_on_c, 0, 66, 0
1, 106680, Note_on_c, 0, 69, 30
1, 106800, Note_on_c, 0, 69, 0
1, 106800, Note_on_c, 0, 73, 28
1, 106920, Note_on_c, 0, 73, 0
1, 106920, Note_on_c, 0, 75, 31
1, 107040, Note_on_c, 0, 75, 0
1, 107040, Note_on_c, 0, 78, 30
1, 107160, Note_on_c, 0, 78, 0
1, 107160, Note_on_c, 0, 83, 28
1, 107280, Tempo, 685714
1, 107280, Note_on_c, 0, 83, 0
1, 107280, Note_on_c, 0, 85, 0
1, 107280, Note_on_c, 0, 87, 52
1, 107280, Note_on_c, 0, 66, 34
1, 107286, Control_c, 0, 64, 0
1, 107320, Tempo, 689655
1, 107340, Tempo, 693642
1, 107360, Tempo, 697674
1, 107360, Control_c, 0, 64, 127
1, 107380, Tempo, 701754
1, 107400, Tempo, 705882
1, 107400, Note_on_c, 0, 66, 0
1, 107400, Note_on_c, 0, 69, 28
1, 107420, Tempo, 710059
1, 107460, Tempo, 714286
1, 107480, Tempo, 718563
1, 107500, Tempo, 722892
1, 107520, Tempo, 727273
1, 107520, Note_on_c, 0, 69, 0
1, 107520, Note_on_c, 0, 73, 28
1, 107540, Tempo, 731707
1, 107560, Tempo, 736196
1, 107580, Tempo, 740741
1, 107620, Tempo, 745342
1, 107640, Tempo, 750000
1, 107640, Note_on_c, 0, 73, 0
1, 107640, Note_on_c, 0, 75, 28
1, 107660, Tempo, 754717
1, 107680, Tempo, 759494
1, 107700, Tempo, 764331
1, 107720, Tempo, 769231
1, 107760, Tempo, 774194
1, 107760, Note_on_c, 0, 75, 0
1, 107760, Note_on_c, 0, 78, 28
1, 107780, Tempo, 779221
1, 107800, Tempo, 784314
1, 107820, Tempo, 789474
1, 107840, Tempo, 794702
1, 107860, Tempo, 800000
1, 107880, Tempo, 1081081
1, 107880, Note_on_c, 0, 78, 0
1, 107880, Note_on_c, 0, 81, 27
1, 108000, Tempo, 1000000
1, 108000, Marker_t, "Tempo I"
1, 108000, Note_on_c, 0, 81, 0
1, 108000, Note_on_c, 0, 87, 0
1, 108000, Note_on_c, 0, 66, 0
1, 108000, Control_c, 0, 91, 127
1, 108000, Control_c, 0, 64, 0
1, 108000, Note_on_c, 0, 65, 32
1, 108040, Tempo, 991736
1, 108060, Tempo, 983607
1, 108064, Control_c, 0, 64, 127
1, 108100, Tempo, 975610
1, 108120, Tempo, 882353
1, 108120, Note_on_c, 0, 68, 32
1, 108140, Tempo, 875912
1, 108220, Tempo, 845070
1, 108240, Tempo, 800000
1, 108240, Note_on_c, 0, 68, 0
1, 108240, Note_on_c, 0, 72, 32
1, 108360, Tempo, 764331
1, 108360, Note_on_c, 0, 72, 0
1, 108360, Note_on_c, 0, 77, 32
1, 108460, Tempo, 764331
1, 108480, Tempo, 745342
1, 108480, Note_on_c, 0, 77, 0
1, 108480, Note_on_c, 0, 80, 32
1, 108580, Tempo, 693642
1, 108600, Tempo, 1111111
1, 108600, Note_on_c, 0, 80, 0
1, 108600, Note_on_c, 0, 84, 32
1, 108700, Tempo, 857143
1, 108720, Tempo, 888889
1, 108720, Note_on_c, 0, 84, 0
1, 108720, Note_on_c, 0, 89, 38
1, 108720, Note_on_c, 0, 92, 38
1, 109440, Note_on_c, 0, 92, 0
1, 109440, Note_on_c, 0, 89, 0
1, 109440, Note_on_c, 0, 65, 0
1, 109440, Note_on_c, 0, 89, 39
1, 109440, Note_on_c, 0, 65, 29
1, 109449, Control_c, 0, 64, 0
1, 110160, Tempo, 821918
1, 110160, Note_on_c, 0, 65, 0
1, 110160, Note_on_c, 0, 65, 30
1, 110200, Tempo, 816327
1, 110206, Control_c, 0, 64, 127
1, 110240, Tempo, 810811
1, 110260, Tempo, 805369
1, 110280, Note_on_c, 0, 69, 30
1, 110300, Tempo, 800000
1, 110320, Tempo, 794702
1, 110360, Tempo, 789474
1, 110380, Tempo, 784314
1, 110400, Tempo, 764331
1, 110400, Note_on_c, 0, 69, 0
1, 110400, Note_on_c, 0, 89, 0
1, 110400, Note_on_c, 0, 84, 33
1, 110400, Note_on_c, 0, 87, 36
1, 110400, Note_on_c, 0, 72, 29
1, 110520, Note_on_c, 0, 72, 0
1, 110520, Note_on_c, 0, 75, 28
1, 110640, Tempo, 774194
1, 110640, Note_on_c, 0, 75, 0
1, 110640, Note_on_c, 0, 87, 0
1, 110640, Note_on_c, 0, 84, 0
1, 110640, Note_on_c, 0, 89, 31
1, 110640, Note_on_c, 0, 85, 29
1, 110640, Note_on_c, 0, 77, 27
1, 110700, Tempo, 779221
1, 110740, Tempo, 784314
1, 110760, Note_on_c, 0, 77, 0
1, 110760, Note_on_c, 0, 81, 27
1, 110780, Tempo, 789474
1, 110820, Tempo, 794702
1, 110860, Tempo, 800000
1, 110880, Tempo, 845070
1, 110880, Note_on_c, 0, 81, 0
1, 110880, Note_on_c, 0, 85, 0
1, 110880, Note_on_c, 0, 89, 0
1, 110880, Note_on_c, 0, 87, 29
1, 110880, Note_on_c, 0, 84, 27
1, 110914, Control_c, 0, 64, 0
1, 110972, Control_c, 0, 64, 127
1, 111600, Note_on_c, 0, 65, 0
1, 111600, Note_on_c, 0, 65, 28
1, 112300, Tempo, 845070
1, 112320, Tempo, 800000
1, 112320, Note_on_c, 0, 65, 0
1, 112320, Control_c, 0, 64, 0
1, 112320, Note_on_c, 0, 65, 29
1, 112360, Tempo, 794702
1, 112380, Tempo, 789474
1, 112400, Tempo, 784314
1, 112419, Control_c, 0, 64, 127
1, 112440, Tempo, 779221
1, 112440, Note_on_c, 0, 68, 29
1, 112460, Tempo, 774194
1, 112480, Tempo, 769231
1, 112520, Tempo, 764331
1, 112540, Tempo, 759494
1, 112560, Tempo, 754717
1, 112560, Note_on_c, 0, 68, 0
1, 112560, Note_on_c, 0, 87, 0
1, 112560, Note_on_c, 0, 84, 0
1, 112560, Note_on_c, 0, 82, 36
1, 112560, Note_on_c, 0, 85, 39
1, 112560, Note_on_c, 0, 70, 28
1, 112680, Note_on_c, 0, 70, 0
1, 112680, Note_on_c, 0, 73, 28
1, 112800, Tempo, 769231
1, 112800, Note_on_c, 0, 73, 0
1, 112800, Note_on_c, 0, 85, 0
1, 112800, Note_on_c, 0, 82, 0
1, 112800, Note_on_c, 0, 84, 30
1, 112800, Note_on_c, 0, 87, 33
1, 112800, Note_on_c, 0, 77, 27
1, 112860, Tempo, 774194
1, 112920, Tempo, 779221
1, 112920, Note_on_c, 0, 77, 0
1, 112920, Note_on_c, 0, 80, 27
1, 112980, Tempo, 784314
1, 113020, Tempo, 789474
1, 113040, Tempo, 895522
1, 113040, Note_on_c, 0, 80, 0
1, 113040, Note_on_c, 0, 87, 0
1, 113040, Note_on_c, 0, 84, 0
1, 113040, Note_on_c, 0, 85, 30
1, 113040, Note_on_c, 0, 82, 28
1, 113054, Control_c, 0, 64, 0
1, 113160, Control_c, 0, 64, 127
1, 113400, Note_on_c, 0, 82, 0
1, 113400, Note_on_c, 0, 85, 0
1, 113400, Note_on_c, 0, 89, 41
1, 113400, Note_on_c, 0, 85, 38
1, 113520, Tempo, 863309
1, 113760, Note_on_c, 0, 65, 0
1, 113760, Note_on_c, 0, 65, 28
1, 114120, Note_on_c, 0, 85, 0
1, 114120, Note_on_c, 0, 89, 0
1, 114120, Note_on_c, 0, 85, 36
1, 114120, Note_on_c, 0, 82, 33
1, 114480, Tempo, 810811
1, 114480, Note_on_c, 0, 65, 0
1, 114480, Control_c, 0, 64, 0
1, 114480, Note_on_c, 0, 63, 28
1, 114520, Tempo, 805369
1, 114540, Tempo, 800000
1, 114558, Control_c, 0, 64, 127
1, 114560, Tempo, 794702
1, 114580, Tempo, 789474
1, 114600, Tempo, 784314
1, 114600, Note_on_c, 0, 66, 28
1, 114620, Tempo, 779221
1, 114640, Tempo, 774194
1, 114660, Tempo, 769231
1, 114680, Tempo, 764331
1, 114700, Tempo, 759494
1, 114720, Tempo, 736196
1, 114720, Note_on_c, 0, 66, 0
1, 114720, Note_on_c, 0, 85, 0
1, 114720, Note_on_c, 0, 82, 0
1, 114720, Note_on_c, 0, 84, 30
1, 114720, Note_on_c, 0, 80, 28
1, 114720, Note_on_c, 0, 68, 26
1, 114840, Note_on_c, 0, 68, 0
1, 114840, Note_on_c, 0, 72, 25
1, 114960, Tempo, 750000
1, 114960, Note_on_c, 0, 72, 0
1, 114960, Note_on_c, 0, 80, 0
1, 114960, Note_on_c, 0, 84, 0
1, 114960, Note_on_c, 0, 82, 27
1, 114960, Note_on_c, 0, 85, 29
1, 114960, Note_on_c, 0, 75, 25
1, 115000, Tempo, 754717
1, 115040, Tempo, 759494
1, 115060, Tempo, 764331
1, 115080, Note_on_c, 0, 75, 0
1, 115080, Note_on_c, 0, 78, 23
1, 115100, Tempo, 769231
1, 115120, Tempo, 774194
1, 115160, Tempo, 779221
1, 115180, Tempo, 784314
1, 115200, Tempo, 845070
1, 115200, Note_on_c, 0, 78, 0
1, 115200, Note_on_c, 0, 85, 0
1, 115200, Note_on_c, 0, 82, 0
1, 115200, Note_on_c, 0, 84, 26
1, 115200, Note_on_c, 0, 80, 24
1, 115206, Control_c, 0, 64, 0
1, 115285, Control_c, 0, 64, 127
1, 115920, Note_on_c, 0, 63, 0
1, 115920, Note_on_c, 0, 63, 27
1, 116640, Tempo, 779221
1, 116640, Note_on_c, 0, 63, 0
1, 116640, Note_on_c, 0, 80, 0
1, 116640, Note_on_c, 0, 84, 0
1, 116640, Control_c, 0, 64, 0
1, 116640, Note_on_c, 0, 61, 32
1, 116680, Tempo, 774194
1, 116686, Control_c, 0, 64, 127
1, 116720, Tempo, 769231
1, 116760, Tempo, 764331
1, 116760, Note_on_c, 0, 63, 32
1, 116780, Tempo, 759494
1, 116820, Tempo, 754717
1, 116860, Tempo, 750000
1, 116880, Tempo, 745342
1, 116880, Note_on_c, 0, 63, 0
1, 116880, Note_on_c, 0, 78, 35
1, 116880, Note_on_c, 0, 82, 38
1, 116880, Note_on_c, 0, 66, 32
1, 117000, Note_on_c, 0, 66, 0
1, 117000, Note_on_c, 0, 70, 32
1, 117080, Tempo, 750000
1, 117120, Note_on_c, 0, 70, 0
1, 117120, Note_on_c, 0, 82, 0
1, 117120, Note_on_c, 0, 78, 0
1, 117120, Note_on_c, 0, 84, 35
1, 117120, Note_on_c, 0, 80, 32
1, 117120, Note_on_c, 0, 73, 32
1, 117140, Tempo, 754717
1, 117200, Tempo, 759494
1, 117240, Tempo, 764331
1, 117240, Note_on_c, 0, 73, 0
1, 117240, Note_on_c, 0, 75, 32
1, 117300, Tempo, 769231
1, 117340, Tempo, 774194
1, 117360, Tempo, 816327
1, 117360, Note_on_c, 0, 75, 0
1, 117360, Note_on_c, 0, 80, 0
1, 117360, Note_on_c, 0, 84, 0
1, 117360, Note_on_c, 0, 82, 35
1, 117360, Note_on_c, 0, 78, 29
1, 117368, Control_c, 0, 64, 0
1, 117600, Tempo, 759494
1, 117600, Note_on_c, 0, 82, 0
1, 117600, Note_on_c, 0, 87, 38
1, 117611, Control_c, 0, 64, 127
1, 117840, Tempo, 794702
1, 117840, Note_on_c, 0, 87, 0
1, 117840, Note_on_c, 0, 82, 36
1, 117840, Note_on_c, 0, 60, 24
1, 117860, Tempo, 789474
1, 117865, Control_c, 0, 64, 0
1, 117880, Tempo, 779221
1, 117900, Tempo, 774194
1, 117900, Note_on_c, 0, 63, 24
1, 117920, Tempo, 764331
1, 117940, Tempo, 759494
1, 117960, Tempo, 750000
1, 117960, Note_on_c, 0, 65, 24
1, 117980, Tempo, 745342
1, 118000, Tempo, 736196
1, 118020, Tempo, 731707
1, 118020, Note_on_c, 0, 68, 24
1, 118040, Tempo, 722892
1, 118060, Tempo, 714286
1, 118080, Tempo, 769231
1, 118080, Note_on_c, 0, 82, 0
1, 118080, Note_on_c, 0, 61, 0
1, 118080, Note_on_c, 0, 78, 0
1, 118080, Note_on_c, 0, 77, 29
1, 118080, Note_on_c, 0, 80, 39
1, 118080, Note_on_c, 0, 72, 24
1, 118320, Tempo, 745342
1, 118320, Note_on_c, 0, 80, 0
1, 118320, Note_on_c, 0, 82, 36
1, 118560, Tempo, 774194
1, 118560, Note_on_c, 0, 82, 0
1, 118560, Note_on_c, 0, 80, 35
1, 118800, Tempo, 769231
1, 118800, Note_on_c, 0, 72, 0
1, 118800, Note_on_c, 0, 68, 0
1, 118800, Note_on_c, 0, 65, 0
1, 118800, Note_on_c, 0, 60, 0
1, 118800, Note_on_c, 0, 63, 0
1, 118800, Note_on_c, 0, 48, 30
1, 118820, Tempo, 774194
1, 118840, Tempo, 769231
1, 118860, Tempo, 764331
1, 118878, Control_c, 0, 64, 127
1, 118880, Tempo, 759494
1, 118900, Tempo, 750000
1, 118920, Tempo, 745342
1, 118920, Note_on_c, 0, 54, 30
1, 118940, Tempo, 740741
1, 118960, Tempo, 731707
1, 118980, Tempo, 727273
1, 119040, Note_on_c, 0, 54, 0
1, 119040, Note_on_c, 0, 77, 0
1, 119040, Note_on_c, 0, 80, 0
1, 119040, Note_on_c, 0, 78, 33
1, 119040, Note_on_c, 0, 75, 30
1, 119040, Note_on_c, 0, 58, 29
1, 119160, Note_on_c, 0, 58, 0
1, 119160, Note_on_c, 0, 60, 29
1, 119280, Tempo, 750000
1, 119280, Note_on_c, 0, 60, 0
1, 119280, Note_on_c, 0, 75, 0
1, 119280, Note_on_c, 0, 78, 0
1, 119280, Note_on_c, 0, 80, 31
1, 119280, Note_on_c, 0, 77, 29
1, 119280, Note_on_c, 0, 63, 28
1, 119400, Note_on_c, 0, 63, 0
1, 119400, Note_on_c, 0, 66, 28
1, 119520, Tempo, 784314
1, 119520, Note_on_c, 0, 66, 0
1, 119520, Note_on_c, 0, 77, 0
1, 119520, Note_on_c, 0, 80, 0
1, 119520, Note_on_c, 0, 78, 31
1, 119520, Note_on_c, 0, 75, 29
1, 119520, Note_on_c, 0, 70, 29
1, 119532, Control_c, 0, 64, 0
1, 119605, Control_c, 0, 64, 127
1, 120240, Note_on_c, 0, 70, 0
1, 120240, Note_on_c, 0, 48, 0
1, 120240, Note_on_c, 0, 78, 0
1, 120240, Note_on_c, 0, 75, 0
1, 120240, Note_on_c, 0, 69, 32
1, 120240, Note_on_c, 0, 77, 33
1, 120240, Note_on_c, 0, 63, 29
1, 120240, Note_on_c, 0, 60, 29
1, 120240, Note_on_c, 0, 53, 29
1, 120255, Control_c, 0, 64, 0
1, 120339, Control_c, 0, 64, 127
1, 120960, Tempo, 789474
1, 120960, Note_on_c, 0, 53, 0
1, 120960, Note_on_c, 0, 63, 0
1, 120960, Note_on_c, 0, 60, 0
1, 120960, Note_on_c, 0, 69, 0
1, 120960, Note_on_c, 0, 56, 30
1, 120974, Control_c, 0, 64, 0
1, 121000, Tempo, 784314
1, 121020, Control_c, 0, 64, 127
1, 121040, Tempo, 779221
1, 121080, Tempo, 774194
1, 121080, Note_on_c, 0, 58, 28
1, 121100, Tempo, 769231
1, 121140, Tempo, 764331
1, 121180, Tempo, 759494
1, 121200, Tempo, 754717
1, 121200, Note_on_c, 0, 58, 0
1, 121200, Note_on_c, 0, 77, 0
1, 121200, Note_on_c, 0, 77, 37
1, 121200, Note_on_c, 0, 73, 34
1, 121200, Note_on_c, 0, 61, 28
1, 121320, Note_on_c, 0, 61, 0
1, 121320, Note_on_c, 0, 65, 27
1, 121440, Tempo, 754717
1, 121440, Note_on_c, 0, 65, 0
1, 121440, Note_on_c, 0, 73, 0
1, 121440, Note_on_c, 0, 77, 0
1, 121440, Note_on_c, 0, 75, 33
1, 121440, Note_on_c, 0, 78, 36
1, 121440, Note_on_c, 0, 68, 27
1, 121560, Tempo, 759494
1, 121560, Note_on_c, 0, 68, 0
1, 121560, Note_on_c, 0, 70, 27
1, 121660, Tempo, 764331
1, 121680, Tempo, 816327
1, 121680, Note_on_c, 0, 70, 0
1, 121680, Note_on_c, 0, 78, 0
1, 121680, Note_on_c, 0, 75, 0
1, 121680, Note_on_c, 0, 77, 36
1, 121680, Note_on_c, 0, 73, 29
1, 121688, Control_c, 0, 64, 0
1, 121751, Control_c, 0, 64, 127
1, 121920, Tempo, 774194
1, 121920, Note_on_c, 0, 77, 0
1, 121920, Note_on_c, 0, 82, 38
1, 122160, Tempo, 794702
1, 122160, Note_on_c, 0, 82, 0
1, 122160, Note_on_c, 0, 77, 36
1, 122174, Control_c, 0, 64, 0
1, 122200, Tempo, 789474
1, 122220, Tempo, 784314
1, 122220, Note_on_c, 0, 54, 27
1, 122227, Control_c, 0, 64, 127
1, 122240, Tempo, 779221
1, 122280, Tempo, 774194
1, 122280, Note_on_c, 0, 58, 27
1, 122300, Tempo, 769231
1, 122320, Tempo, 764331
1, 122340, Note_on_c, 0, 61, 27
1, 122360, Tempo, 759494
1, 122380, Tempo, 754717
1, 122400, Tempo, 727273
1, 122400, Note_on_c, 0, 77, 0
1, 122400, Note_on_c, 0, 56, 0
1, 122400, Note_on_c, 0, 73, 0
1, 122400, Note_on_c, 0, 73, 28
1, 122400, Note_on_c, 0, 75, 37
1, 122400, Note_on_c, 0, 63, 27
1, 122640, Tempo, 740741
1, 122640, Note_on_c, 0, 75, 0
1, 122640, Note_on_c, 0, 77, 36
1, 122880, Tempo, 784314
1, 122880, Note_on_c, 0, 77, 0
1, 122880, Note_on_c, 0, 75, 36
1, 123120, Tempo, 759494
1, 123120, Note_on_c, 0, 63, 0
1, 123120, Note_on_c, 0, 73, 0
1, 123120, Note_on_c, 0, 54, 0
1, 123120, Note_on_c, 0, 61, 0
1, 123120, Note_on_c, 0, 58, 0
1, 123120, Control_c, 0, 64, 0
1, 123120, Note_on_c, 0, 53, 29
1, 123160, Tempo, 754717
1, 123200, Tempo, 750000
1, 123219, Control_c, 0, 64, 127
1, 123240, Tempo, 745342
1, 123240, Note_on_c, 0, 56, 29
1, 123280, Tempo, 740741
1, 123320, Tempo, 736196
1, 123360, Tempo, 731707
1, 123360, Note_on_c, 0, 56, 0
1, 123360, Note_on_c, 0, 75, 0
1, 123360, Note_on_c, 0, 73, 33
1, 123360, Note_on_c, 0, 70, 30
1, 123360, Note_on_c, 0, 58, 28
1, 123480, Note_on_c, 0, 58, 0
1, 123480, Note_on_c, 0, 61, 28
1, 123580, Tempo, 736196
1, 123600, Note_on_c, 0, 61, 0
1, 123600, Note_on_c, 0, 70, 0
1, 123600, Note_on_c, 0, 73, 0
1, 123600, Note_on_c, 0, 75, 31
1, 123600, Note_on_c, 0, 72, 29
1, 123600, Note_on_c, 0, 65, 27
1, 123620, Tempo, 740741
1, 123640, Tempo, 745342
1, 123680, Tempo, 750000
1, 123700, Tempo, 754717
1, 123720, Note_on_c, 0, 65, 0
1, 123720, Note_on_c, 0, 68, 27
1, 123740, Tempo, 759494
1, 123760, Tempo, 764331
1, 123800, Tempo, 769231
1, 123820, Tempo, 774194
1, 123840, Tempo, 805369
1, 123840, Note_on_c, 0, 68, 0
1, 123840, Note_on_c, 0, 72, 0
1, 123840, Note_on_c, 0, 75, 0
1, 123840, Note_on_c, 0, 73, 31
1, 123840, Note_on_c, 0, 70, 29
1, 123857, Control_c, 0, 64, 0
1, 123925, Control_c, 0, 64, 127
1, 124560, Tempo, 991736
1, 124560, Note_on_c, 0, 70, 0
1, 124560, Note_on_c, 0, 73, 0
1, 124560, Note_on_c, 0, 53, 0
1, 124560, Note_on_c, 0, 72, 26
1, 124560, Note_on_c, 0, 68, 24
1, 124560, Note_on_c, 0, 51, 32
1, 124560, Note_on_c, 0, 54, 32
1, 124560, Note_on_c, 0, 60, 32
1, 124581, Control_c, 0, 64, 0
1, 124680, Control_c, 0, 64, 127
1, 124920, Note_on_c, 0, 51, 0
1, 124920, Note_on_c, 0, 44, 32
1, 125040, Tempo, 1538462
1, 125280, Tempo, 943396
1, 125280, Note_on_c, 0, 54, 0
1, 125280, Note_on_c, 0, 60, 0
1, 125280, Note_on_c, 0, 72, 0
1, 125280, Note_on_c, 0, 68, 0
1, 125280, Control_c, 0, 64, 0
1, 125280, Note_on_c, 0, 37, 28
1, 125520, Tempo, 832408
1, 125520, Note_on_c, 0, 53, 26
1, 125520, Note_on_c, 0, 56, 26
1, 125548, Control_c, 0, 64, 127
1, 125760, Tempo, 1237113
1, 125760, Note_on_c, 0, 56, 0
1, 125760, Note_on_c, 0, 53, 0
1, 125760, Note_on_c, 0, 65, 33
1, 125760, Note_on_c, 0, 68, 33
1, 126000, Tempo, 967742
1, 126000, Note_on_c, 0, 80, 36
1, 126000, Note_on_c, 0, 77, 36
1, 126000, Note_on_c, 0, 59, 28
1, 126720, Tempo, 944882
1, 126720, Note_on_c, 0, 77, 0
1, 126720, Note_on_c, 0, 37, 0
1, 126720, Note_on_c, 0, 44, 0
1, 126720, Note_on_c, 0, 80, 0
1, 126720, Note_on_c, 0, 73, 33
1, 126720, Note_on_c, 0, 77, 33
1, 127440, Tempo, 872347
1, 127440, Note_on_c, 0, 68, 0
1, 127440, Note_on_c, 0, 65, 0
1, 127440, Note_on_c, 0, 59, 0
1, 127440, Control_c, 0, 64, 0
1, 127440, Note_on_c, 0, 42, 26
1, 127440, Note_on_c, 0, 49, 31
1, 127624, Control_c, 0, 64, 127
1, 127680, Tempo, 837872
1, 127680, Note_on_c, 0, 73, 0
1, 127680, Note_on_c, 0, 77, 0
1, 127680, Note_on_c, 0, 70, 25
1, 127680, Note_on_c, 0, 75, 39
1, 127680, Note_on_c, 0, 66, 25
1, 127680, Note_on_c, 0, 61, 25
1, 127680, Note_on_c, 0, 58, 21
1, 127680, Note_on_c, 0, 54, 21
1, 127680, Note_on_c, 0, 49, 21
1, 127920, Tempo, 916310
1, 127920, Note_on_c, 0, 75, 0
1, 127920, Note_on_c, 0, 77, 34
1, 128160, Tempo, 896861
1, 128160, Note_on_c, 0, 77, 0
1, 128160, Note_on_c, 0, 75, 29
1, 128175, Control_c, 0, 64, 0
1, 128344, Control_c, 0, 64, 127
1, 128640, Tempo, 872347
1, 128880, Note_on_c, 0, 42, 0
1, 128880, Note_on_c, 0, 49, 0
1, 129600, Tempo, 922935
1, 129600, Note_on_c, 0, 49, 0
1, 129600, Note_on_c, 0, 61, 0
1, 129600, Note_on_c, 0, 70, 0
1, 129600, Note_on_c, 0, 66, 0
1, 129600, Note_on_c, 0, 54, 0
1, 129600, Note_on_c, 0, 58, 0
1, 129600, Control_c, 0, 64, 0
1, 129600, Note_on_c, 0, 44, 33
1, 129727, Control_c, 0, 64, 127
1, 129840, Tempo, 878349
1, 129840, Note_on_c, 0, 75, 0
1, 129840, Note_on_c, 0, 68, 36
1, 129840, Note_on_c, 0, 61, 36
1, 129840, Note_on_c, 0, 73, 36
1, 129840, Note_on_c, 0, 53, 31
1, 129840, Note_on_c, 0, 56, 31
1, 130080, Tempo, 995025
1, 130080, Note_on_c, 0, 73, 0
1, 130080, Note_on_c, 0, 61, 0
1, 130080, Note_on_c, 0, 75, 37
1, 130080, Note_on_c, 0, 63, 37
1, 130320, Tempo, 896861
1, 130320, Note_on_c, 0, 63, 0
1, 130320, Note_on_c, 0, 56, 0
1, 130320, Note_on_c, 0, 68, 0
1, 130320, Note_on_c, 0, 53, 0
1, 130320, Note_on_c, 0, 75, 0
1, 130320, Note_on_c, 0, 68, 37
1, 130320, Note_on_c, 0, 80, 37
1, 130320, Note_on_c, 0, 77, 37
1, 130320, Note_on_c, 0, 59, 26
1, 130320, Note_on_c, 0, 65, 31
1, 130320, Note_on_c, 0, 61, 31
1, 130333, Control_c, 0, 64, 0
1, 130461, Control_c, 0, 64, 127
1, 131038, Note_on_c, 0, 65, 0
1, 131040, Note_on_c, 0, 77, 0
1, 131040, Note_on_c, 0, 68, 0
1, 131040, Note_on_c, 0, 80, 0
1, 131040, Note_on_c, 0, 44, 0
1, 131040, Note_on_c, 0, 61, 0
1, 131040, Note_on_c, 0, 73, 33
1, 131040, Note_on_c, 0, 77, 33
1, 131040, Note_on_c, 0, 65, 33
1, 131040, Note_on_c, 0, 61, 30
1, 131054, Control_c, 0, 64, 0
1, 131196, Control_c, 0, 64, 127
1, 131760, Tempo, 872347
1, 131760, Note_on_c, 0, 61, 0
1, 131760, Note_on_c, 0, 73, 0
1, 131760, Note_on_c, 0, 59, 0
1, 131760, Note_on_c, 0, 65, 0
1, 131760, Note_on_c, 0, 46, 31
1, 131774, Control_c, 0, 64, 0
1, 131916, Control_c, 0, 64, 127
1, 132000, Tempo, 837872
1, 132000, Note_on_c, 0, 77, 0
1, 132000, Note_on_c, 0, 65, 25
1, 132000, Note_on_c, 0, 70, 25
1, 132000, Note_on_c, 0, 75, 39
1, 132000, Note_on_c, 0, 63, 25
1, 132000, Note_on_c, 0, 58, 25
1, 132000, Note_on_c, 0, 53, 21
1, 132240, Tempo, 916310
1, 132240, Note_on_c, 0, 75, 0
1, 132240, Note_on_c, 0, 77, 34
1, 132480, Tempo, 896861
1, 132480, Note_on_c, 0, 77, 0
1, 132480, Note_on_c, 0, 75, 29
1, 132493, Control_c, 0, 64, 0
1, 133200, Tempo, 952381
1, 133200, Note_on_c, 0, 75, 0
1, 133200, Note_on_c, 0, 63, 0
1, 133200, Note_on_c, 0, 46, 0
1, 133200, Note_on_c, 0, 73, 29
1, 133200, Note_on_c, 0, 61, 30
1, 133920, Tempo, 967742
1, 133920, Note_on_c, 0, 61, 0
1, 133920, Note_on_c, 0, 70, 0
1, 133920, Note_on_c, 0, 53, 0
1, 133920, Note_on_c, 0, 65, 0
1, 133920, Note_on_c, 0, 73, 0
1, 133920, Note_on_c, 0, 58, 0
1, 133920, Control_c, 0, 64, 127
1, 133920, Note_on_c, 0, 41, 34
1, 134160, Tempo, 944882
1, 134160, Note_on_c, 0, 61, 37
1, 134160, Note_on_c, 0, 56, 33
1, 134400, Tempo, 1200000
1, 134400, Note_on_c, 0, 61, 0
1, 134400, Note_on_c, 0, 63, 40
1, 134640, Tempo, 930233
1, 134640, Note_on_c, 0, 63, 0
1, 134640, Note_on_c, 0, 56, 0
1, 134640, Note_on_c, 0, 65, 33
1, 134640, Note_on_c, 0, 70, 37
1, 134640, Note_on_c, 0, 61, 33
1, 134650, Control_c, 0, 64, 0
1, 134852, Control_c, 0, 64, 127
1, 135360, Note_on_c, 0, 61, 0
1, 135360, Note_on_c, 0, 70, 0
1, 135360, Note_on_c, 0, 65, 0
1, 135360, Note_on_c, 0, 56, 27
1, 135360, Note_on_c, 0, 61, 27
1, 135360, Note_on_c, 0, 65, 31
1, 135375, Control_c, 0, 64, 0
1, 135572, Control_c, 0, 64, 127
1, 136080, Tempo, 983607
1, 136080, Note_on_c, 0, 65, 0
1, 136080, Note_on_c, 0, 41, 0
1, 136080, Note_on_c, 0, 56, 0
1, 136080, Note_on_c, 0, 61, 0
1, 136080, Note_on_c, 0, 39, 34
1, 136086, Control_c, 0, 64, 0
1, 136236, Control_c, 0, 64, 127
1, 136320, Tempo, 944882
1, 136320, Note_on_c, 0, 58, 33
1, 136320, Note_on_c, 0, 61, 33
1, 136320, Note_on_c, 0, 66, 37
1, 136560, Tempo, 1188119
1, 136560, Note_on_c, 0, 66, 0
1, 136560, Note_on_c, 0, 68, 40
1, 136800, Tempo, 944882
1, 136800, Note_on_c, 0, 68, 0
1, 136800, Note_on_c, 0, 61, 0
1, 136800, Note_on_c, 0, 58, 0
1, 136800, Note_on_c, 0, 66, 29
1, 136800, Note_on_c, 0, 70, 29
1, 136800, Note_on_c, 0, 73, 33
1, 136800, Note_on_c, 0, 51, 25
1, 136814, Control_c, 0, 64, 0
1, 136998, Control_c, 0, 64, 127
1, 137520, Note_on_c, 0, 51, 0
1, 137520, Note_on_c, 0, 70, 0
1, 137520, Note_on_c, 0, 39, 0
1, 137520, Note_on_c, 0, 66, 0
1, 137520, Note_on_c, 0, 73, 0
1, 137520, Note_on_c, 0, 70, 29
1, 137520, Note_on_c, 0, 61, 26
1, 137520, Note_on_c, 0, 66, 26
1, 137520, Note_on_c, 0, 63, 26
1, 137528, Control_c, 0, 64, 0
1, 137732, Control_c, 0, 64, 127
1, 138240, Tempo, 983607
1, 138240, Note_on_c, 0, 63, 0
1, 138240, Note_on_c, 0, 70, 0
1, 138240, Note_on_c, 0, 61, 0
1, 138240, Note_on_c, 0, 66, 0
1, 138240, Control_c, 0, 64, 0
1, 138240, Note_on_c, 0, 44, 34
1, 138325, Control_c, 0, 64, 127
1, 138480, Tempo, 944882
1, 138480, Note_on_c, 0, 60, 35
1, 138480, Note_on_c, 0, 70, 35
1, 138480, Note_on_c, 0, 66, 35
1, 138600, Note_on_c, 0, 51, 31
1, 138720, Tempo, 1188119
1, 138720, Note_on_c, 0, 70, 0
1, 138720, Note_on_c, 0, 72, 37
1, 138960, Tempo, 1043478
1, 138960, Note_on_c, 0, 72, 0
1, 138960, Note_on_c, 0, 51, 0
1, 138960, Note_on_c, 0, 66, 0
1, 138960, Note_on_c, 0, 60, 0
1, 138960, Note_on_c, 0, 72, 29
1, 138960, Note_on_c, 0, 77, 29
1, 138960, Note_on_c, 0, 68, 24
1, 138960, Note_on_c, 0, 80, 25
1, 138976, Control_c, 0, 64, 0
1, 139094, Control_c, 0, 64, 127
1, 139680, Tempo, 1090909
1, 139680, Note_on_c, 0, 80, 0
1, 139680, Note_on_c, 0, 77, 0
1, 139680, Note_on_c, 0, 44, 0
1, 139680, Note_on_c, 0, 72, 0
1, 139680, Note_on_c, 0, 68, 0
1, 139680, Note_on_c, 0, 60, 21
1, 139680, Note_on_c, 0, 68, 25
1, 139680, Note_on_c, 0, 66, 25
1, 139680, Note_on_c, 0, 56, 25
1, 139701, Control_c, 0, 64, 0
1, 139779, Control_c, 0, 64, 127
1, 140400, Tempo, 1165049
1, 140400, Note_on_c, 0, 56, 0
1, 140400, Note_on_c, 0, 60, 0
1, 140400, Note_on_c, 0, 68, 0
1, 140400, Note_on_c, 0, 66, 0
1, 140400, Control_c, 0, 64, 0
1, 140400, Note_on_c, 0, 37, 31
1, 140520, Tempo, 944882
1, 140520, Control_c, 0, 64, 127
1, 140520, Note_on_c, 0, 44, 27
1, 140640, Tempo, 916031
1, 140640, Note_on_c, 0, 44, 0
1, 140640, Note_on_c, 0, 49, 26
1, 140680, Tempo, 909091
1, 140720, Tempo, 902256
1, 140760, Tempo, 895522
1, 140760, Note_on_c, 0, 49, 0
1, 140760, Note_on_c, 0, 53, 26
1, 140800, Tempo, 888889
1, 140840, Tempo, 882353
1, 140880, Tempo, 875912
1, 140880, Note_on_c, 0, 53, 0
1, 140880, Note_on_c, 0, 56, 25
1, 140920, Tempo, 869565
1, 140960, Tempo, 863309
1, 141000, Tempo, 857143
1, 141000, Note_on_c, 0, 56, 0
1, 141000, Note_on_c, 0, 61, 25
1, 141040, Tempo, 851064
1, 141080, Tempo, 845070
1, 141100, Tempo, 839161
1, 141120, Tempo, 916031
1, 141120, Note_on_c, 0, 61, 0
1, 141120, Note_on_c, 0, 37, 0
1, 141120, Note_on_c, 0, 41, 31
1, 141130, Control_c, 0, 64, 0
1, 141212, Control_c, 0, 64, 127
1, 141240, Tempo, 857143
1, 141240, Note_on_c, 0, 48, 28
1, 141280, Tempo, 851064
1, 141320, Tempo, 845070
1, 141360, Tempo, 839161
1, 141360, Note_on_c, 0, 48, 0
1, 141360, Note_on_c, 0, 53, 27
1, 141400, Tempo, 833333
1, 141440, Tempo, 827586
1, 141480, Tempo, 821918
1, 141480, Note_on_c, 0, 53, 0
1, 141480, Note_on_c, 0, 56, 26
1, 141520, Tempo, 816327
1, 141560, Tempo, 810811
1, 141600, Tempo, 805369
1, 141600, Note_on_c, 0, 56, 0
1, 141600, Note_on_c, 0, 60, 26
1, 141640, Tempo, 800000
1, 141680, Tempo, 794702
1, 141720, Tempo, 789474
1, 141720, Note_on_c, 0, 60, 0
1, 141720, Note_on_c, 0, 65, 26
1, 141760, Tempo, 784314
1, 141800, Tempo, 779221
1, 141820, Tempo, 774194
1, 141840, Tempo, 902256
1, 141840, Note_on_c, 0, 65, 0
1, 141840, Note_on_c, 0, 41, 0
1, 141840, Note_on_c, 0, 37, 31
1, 141848, Control_c, 0, 64, 0
1, 141953, Control_c, 0, 64, 127
1, 141960, Tempo, 827586
1, 141960, Note_on_c, 0, 44, 28
1, 142020, Tempo, 821918
1, 142080, Tempo, 816327
1, 142080, Note_on_c, 0, 44, 0
1, 142080, Note_on_c, 0, 49, 28
1, 142140, Tempo, 810811
1, 142200, Tempo, 805369
1, 142200, Note_on_c, 0, 49, 0
1, 142200, Note_on_c, 0, 53, 27
1, 142260, Tempo, 800000
1, 142320, Tempo, 794702
1, 142320, Note_on_c, 0, 53, 0
1, 142320, Note_on_c, 0, 56, 28
1, 142380, Tempo, 789474
1, 142440, Tempo, 784314
1, 142440, Note_on_c, 0, 56, 0
1, 142440, Note_on_c, 0, 61, 26
1, 142500, Tempo, 779221
1, 142540, Tempo, 774194
1, 142560, Tempo, 909091
1, 142560, Note_on_c, 0, 61, 0
1, 142560, Note_on_c, 0, 37, 0
1, 142560, Control_c, 0, 64, 0
1, 142560, Note_on_c, 0, 41, 31
1, 142652, Control_c, 0, 64, 127
1, 142680, Tempo, 833333
1, 142680, Note_on_c, 0, 48, 28
1, 142740, Tempo, 827586
1, 142780, Tempo, 821918
1, 142800, Note_on_c, 0, 48, 0
1, 142800, Note_on_c, 0, 53, 28
1, 142820, Tempo, 816327
1, 142860, Tempo, 810811
1, 142920, Tempo, 805369
1, 142920, Note_on_c, 0, 53, 0
1, 142920, Note_on_c, 0, 56, 27
1, 142960, Tempo, 800000
1, 143000, Tempo, 794702
1, 143040, Tempo, 794702
1, 143040, Note_on_c, 0, 56, 0
1, 143040, Note_on_c, 0, 60, 27
1, 143080, Tempo, 800000
1, 143100, Tempo, 805369
1, 143120, Tempo, 810811
1, 143140, Tempo, 816327
1, 143160, Tempo, 944882
1, 143160, Note_on_c, 0, 60, 0
1, 143160, Note_on_c, 0, 65, 27
1, 143280, Tempo, 895522
1, 143280, Note_on_c, 0, 65, 0
1, 143280, Note_on_c, 0, 41, 0
1, 143280, Note_on_c, 0, 68, 30
1, 143280, Note_on_c, 0, 71, 33
1, 143280, Note_on_c, 0, 44, 31
1, 143286, Control_c, 0, 64, 0
1, 143400, Tempo, 821918
1, 143400, Control_c, 0, 64, 127
1, 143400, Note_on_c, 0, 52, 28
1, 143460, Tempo, 827586
1, 143500, Tempo, 833333
1, 143520, Note_on_c, 0, 52, 0
1, 143520, Note_on_c, 0, 56, 28
1, 143560, Tempo, 839161
1, 143600, Tempo, 845070
1, 143640, Note_on_c, 0, 56, 0
1, 143640, Note_on_c, 0, 59, 27
1, 143660, Tempo, 851064
1, 143700, Tempo, 857143
1, 143760, Tempo, 937500
1, 143760, Note_on_c, 0, 59, 0
1, 143760, Note_on_c, 0, 64, 27
1, 143880, Tempo, 991736
1, 143880, Note_on_c, 0, 64, 0
1, 143880, Note_on_c, 0, 66, 27
1, 144000, Tempo, 930233
1, 144000, Note_on_c, 0, 66, 0
1, 144000, Note_on_c, 0, 68, 0
1, 144000, Note_on_c, 0, 71, 0
1, 144000, Note_on_c, 0, 73, 29
1, 144000, Note_on_c, 0, 64, 27
1, 144000, Note_on_c, 0, 68, 27
1, 144017, Control_c, 0, 64, 0
1, 144143, Control_c, 0, 64, 127
1, 144720, Tempo, 1034483
1, 144720, Note_on_c, 0, 68, 0
1, 144720, Note_on_c, 0, 44, 0
1, 144720, Note_on_c, 0, 73, 0
1, 144720, Note_on_c, 0, 64, 0
1, 144720, Note_on_c, 0, 49, 31
1, 144728, Control_c, 0, 64, 0
1, 144833, Control_c, 0, 64, 127
1, 144840, Tempo, 930233
1, 144840, Note_on_c, 0, 56, 30
1, 144880, Tempo, 923077
1, 144920, Tempo, 916031
1, 144940, Tempo, 909091
1, 144960, Note_on_c, 0, 56, 0
1, 144960, Note_on_c, 0, 61, 26
1, 144980, Tempo, 902256
1, 145020, Tempo, 895522
1, 145040, Tempo, 888889
1, 145080, Tempo, 882353
1, 145080, Note_on_c, 0, 61, 0
1, 145080, Note_on_c, 0, 65, 26
1, 145100, Tempo, 875912
1, 145140, Tempo, 869565
1, 145180, Tempo, 863309
1, 145200, Tempo, 857143
1, 145200, Note_on_c, 0, 65, 0
1, 145200, Note_on_c, 0, 68, 25
1, 145240, Tempo, 851064
1, 145260, Tempo, 845070
1, 145300, Tempo, 839161
1, 145320, Note_on_c, 0, 68, 0
1, 145320, Note_on_c, 0, 73, 25
1, 145340, Tempo, 833333
1, 145360, Tempo, 827586
1, 145400, Tempo, 821918
1, 145420, Tempo, 816327
1, 145440, Tempo, 916031
1, 145440, Note_on_c, 0, 73, 0
1, 145440, Note_on_c, 0, 49, 0
1, 145440, Note_on_c, 0, 53, 31
1, 145454, Control_c, 0, 64, 0
1, 145553, Control_c, 0, 64, 127
1, 145560, Tempo, 857143
1, 145560, Note_on_c, 0, 60, 28
1, 145600, Tempo, 851064
1, 145640, Tempo, 845070
1, 145680, Tempo, 839161
1, 145680, Note_on_c, 0, 60, 0
1, 145680, Note_on_c, 0, 65, 27
1, 145720, Tempo, 833333
1, 145760, Tempo, 827586
1, 145800, Tempo, 821918
1, 145800, Note_on_c, 0, 65, 0
1, 145800, Note_on_c, 0, 68, 26
1, 145840, Tempo, 816327
1, 145880, Tempo, 810811
1, 145920, Tempo, 805369
1, 145920, Note_on_c, 0, 68, 0
1, 145920, Note_on_c, 0, 72, 26
1, 145960, Tempo, 800000
1, 146000, Tempo, 794702
1, 146040, Tempo, 789474
1, 146040, Note_on_c, 0, 72, 0
1, 146040, Note_on_c, 0, 77, 26
1, 146080, Tempo, 784314
1, 146120, Tempo, 779221
1, 146140, Tempo, 774194
1, 146160, Tempo, 902256
1, 146160, Note_on_c, 0, 77, 0
1, 146160, Note_on_c, 0, 53, 0
1, 146160, Note_on_c, 0, 49, 31
1, 146167, Control_c, 0, 64, 0
1, 146259, Control_c, 0, 64, 127
1, 146280, Tempo, 827586
1, 146280, Note_on_c, 0, 56, 28
1, 146340, Tempo, 821918
1, 146400, Tempo, 816327
1, 146400, Note_on_c, 0, 56, 0
1, 146400, Note_on_c, 0, 61, 28
1, 146460, Tempo, 810811
1, 146520, Tempo, 805369
1, 146520, Note_on_c, 0, 61, 0
1, 146520, Note_on_c, 0, 65, 27
1, 146580, Tempo, 800000
1, 146640, Tempo, 794702
1, 146640, Note_on_c, 0, 65, 0
1, 146640, Note_on_c, 0, 68, 28
1, 146700, Tempo, 789474
1, 146760, Tempo, 784314
1, 146760, Note_on_c, 0, 68, 0
1, 146760, Note_on_c, 0, 73, 26
1, 146820, Tempo, 779221
1, 146860, Tempo, 774194
1, 146880, Tempo, 909091
1, 146880, Note_on_c, 0, 73, 0
1, 146880, Note_on_c, 0, 49, 0
1, 146880, Note_on_c, 0, 53, 31
1, 146887, Control_c, 0, 64, 0
1, 146977, Control_c, 0, 64, 127
1, 147000, Tempo, 833333
1, 147000, Note_on_c, 0, 60, 28
1, 147060, Tempo, 827586
1, 147100, Tempo, 821918
1, 147120, Note_on_c, 0, 60, 0
1, 147120, Note_on_c, 0, 65, 28
1, 147140, Tempo, 816327
1, 147180, Tempo, 810811
1, 147240, Tempo, 805369
1, 147240, Note_on_c, 0, 65, 0
1, 147240, Note_on_c, 0, 68, 27
1, 147280, Tempo, 800000
1, 147320, Tempo, 794702
1, 147360, Tempo, 794702
1, 147360, Note_on_c, 0, 68, 0
1, 147360, Note_on_c, 0, 72, 27
1, 147400, Tempo, 800000
1, 147420, Tempo, 805369
1, 147440, Tempo, 810811
1, 147460, Tempo, 816327
1, 147480, Tempo, 944882
1, 147480, Note_on_c, 0, 72, 0
1, 147480, Note_on_c, 0, 77, 27
1, 147600, Tempo, 895522
1, 147600, Note_on_c, 0, 77, 0
1, 147600, Note_on_c, 0, 53, 0
1, 147600, Note_on_c, 0, 83, 33
1, 147600, Note_on_c, 0, 80, 30
1, 147600, Note_on_c, 0, 56, 31
1, 147612, Control_c, 0, 64, 0
1, 147709, Control_c, 0, 64, 127
1, 147720, Tempo, 821918
1, 147720, Note_on_c, 0, 59, 25
1, 147780, Tempo, 827586
1, 147820, Tempo, 833333
1, 147840, Note_on_c, 0, 59, 0
1, 147840, Note_on_c, 0, 64, 25
1, 147880, Tempo, 839161
1, 147920, Tempo, 845070
1, 147960, Note_on_c, 0, 64, 0
1, 147960, Note_on_c, 0, 68, 24
1, 147980, Tempo, 851064
1, 148020, Tempo, 857143
1, 148080, Tempo, 937500
1, 148080, Note_on_c, 0, 68, 0
1, 148080, Note_on_c, 0, 71, 24
1, 148200, Tempo, 991736
1, 148200, Note_on_c, 0, 71, 0
1, 148200, Note_on_c, 0, 76, 22
1, 148320, Tempo, 930233
1, 148320, Note_on_c, 0, 83, 0
1, 148320, Note_on_c, 0, 85, 34
1, 149040, Tempo, 895522
1, 149040, Note_on_c, 0, 85, 0
1, 149040, Note_on_c, 0, 76, 0
1, 149040, Note_on_c, 0, 56, 0
1, 149040, Note_on_c, 0, 80, 0
1, 149040, Note_on_c, 0, 83, 33
1, 149040, Note_on_c, 0, 80, 30
1, 149040, Note_on_c, 0, 56, 31
1, 149086, Control_c, 0, 64, 0
1, 149149, Control_c, 0, 64, 127
1, 149160, Tempo, 821918
1, 149160, Note_on_c, 0, 59, 25
1, 149220, Tempo, 827586
1, 149260, Tempo, 833333
1, 149280, Note_on_c, 0, 59, 0
1, 149280, Note_on_c, 0, 64, 25
1, 149320, Tempo, 839161
1, 149360, Tempo, 845070
1, 149400, Note_on_c, 0, 64, 0
1, 149400, Note_on_c, 0, 68, 24
1, 149420, Tempo, 851064
1, 149460, Tempo, 857143
1, 149520, Tempo, 937500
1, 149520, Note_on_c, 0, 68, 0
1, 149520, Note_on_c, 0, 71, 24
1, 149640, Tempo, 991736
1, 149640, Note_on_c, 0, 71, 0
1, 149640, Note_on_c, 0, 76, 22
1, 149760, Tempo, 930233
1, 149760, Note_on_c, 0, 83, 0
1, 149760, Note_on_c, 0, 85, 34
1, 150480, Tempo, 952381
1, 150480, Note_on_c, 0, 85, 0
1, 150480, Note_on_c, 0, 76, 0
1, 150480, Note_on_c, 0, 56, 0
1, 150480, Note_on_c, 0, 88, 37
1, 150480, Note_on_c, 0, 44, 30
1, 151200, Tempo, 1061947
1, 151200, Note_on_c, 0, 44, 0
1, 151200, Note_on_c, 0, 88, 0
1, 151200, Note_on_c, 0, 80, 0
1, 151200, Note_on_c, 0, 89, 37
1, 151200, Note_on_c, 0, 92, 40
1, 151200, Note_on_c, 0, 37, 33
1, 151205, Control_c, 0, 64, 0
1, 151288, Control_c, 0, 64, 127
1, 151320, Note_on_c, 0, 44, 26
1, 151440, Note_on_c, 0, 44, 0
1, 151440, Note_on_c, 0, 49, 24
1, 151560, Note_on_c, 0, 49, 0
1, 151560, Note_on_c, 0, 53, 22
1, 151680, Note_on_c, 0, 53, 0
1, 151680, Note_on_c, 0, 56, 21
1, 151800, Note_on_c, 0, 56, 0
1, 151800, Note_on_c, 0, 61, 20
1, 151920, Tempo, 1111111
1, 151920, Note_on_c, 0, 61, 0
1, 151920, Note_on_c, 0, 65, 27
1, 152160, Note_on_c, 0, 65, 0
1, 152160, Note_on_c, 0, 68, 22
1, 152400, Note_on_c, 0, 68, 0
1, 152400, Note_on_c, 0, 73, 22
1, 152640, Tempo, 1111111
1, 152640, Note_on_c, 0, 73, 0
1, 152640, Note_on_c, 0, 37, 0
1, 152640, Note_on_c, 0, 77, 27
1, 152720, Tempo, 1121495
1, 152780, Tempo, 1132075
1, 152860, Tempo, 1142857
1, 152880, Note_on_c, 0, 77, 0
1, 152880, Note_on_c, 0, 80, 22
1, 152920, Tempo, 1153846
1, 153000, Tempo, 1165049
1, 153060, Tempo, 1176471
1, 153120, Tempo, 1188119
1, 153120, Note_on_c, 0, 80, 0
1, 153120, Note_on_c, 0, 85, 22
1, 153276, Tempo, 3529412
1, 153284, Tempo, 3750000
1, 153290, Note_on_c, 0, 85, 0
1, 153290, Note_on_c, 0, 61, 20
1, 153292, Tempo, 4137931
1, 153300, Tempo, 4444444
1, 153300, Note_on_c, 0, 68, 22
1, 153306, Control_c, 0, 64, 0
1, 153308, Tempo, 5217391
1, 153310, Note_on_c, 0, 73, 22
1, 153316, Tempo, 7500000
1, 153320, Note_on_c, 0, 77, 25
1, 153324, Tempo, 7500000
1, 153330, Note_on_c, 0, 80, 24
1, 153332, Tempo, 7500000
1, 153340, Tempo, 7500000
1, 153340, Note_on_c, 0, 85, 26
1, 153348, Tempo, 7500000
1, 153350, Note_on_c, 0, 89, 28
1, 153356, Tempo, 7500000
1, 153360, Tempo, 1212121
1, 153360, Note_on_c, 0, 92, 0
1, 153360, Note_on_c, 0, 89, 0
1, 153360, Note_on_c, 0, 92, 34
1, 153360, Control_c, 0, 64, 127
1, 154800, Marker_t, "Fine"
1, 154800, Note_on_c, 0, 92, 0
1, 154800, Note_on_c, 0, 89, 0
1, 154800, Note_on_c, 0, 77, 0
1, 154800, Note_on_c, 0, 61, 0
1, 154800, Note_on_c, 0, 73, 0
1, 154800, Note_on_c, 0, 85, 0
1, 154800, Note_on_c, 0, 80, 0
1, 154800, Note_on_c, 0, 68, 0
1, 155181, Control_c, 0, 64, 0
1, 155181, End_track
0, 0, End_of_file
