0, 0, Header, 0, 1, 480
1, 0, Start_track
1, 0, Title_t, "Debussy: Childrens Corner 1"
1, 0, Title_t, "Doctor Gradus ad Parnassum"
1, 0, Copyright_t, "Copyright © 2011 by Bernd Krueger"
1, 0, Text_t, "Bernd Krueger"
1, 0, Text_t, "Erstellt: 12.5.2011\012"
1, 0, Text_t, "Dauer: 2:24 Minuten\012"
1, 0, Time_signature, 4, 2, 24, 8
1, 0, Key_signature, 0, "major"
1, 0, Tempo, 488440
1, 0, Program_c, 0, 0
1, 0, Program_c, 0, 0
1, 0, Note_on_c, 0, 36, 28
1, 0, Program_c, 0, 0
1, 7, Control_c, 0, 64, 127
1, 60, Note_on_c, 0, 36, 0
1, 60, Note_on_c, 0, 48, 28
1, 120, Tempo, 529147
1, 120, Note_on_c, 0, 55, 25
1, 211, Tempo, 507014
1, 240, Tempo, 521694
1, 240, Note_on_c, 0, 55, 0
1, 240, Note_on_c, 0, 60, 26
1, 360, Note_on_c, 0, 60, 0
1, 360, Note_on_c, 0, 62, 24
1, 480, Note_on_c, 0, 62, 0
1, 480, Note_on_c, 0, 64, 29
1, 595, Tempo, 512777
1, 600, Note_on_c, 0, 64, 0
1, 600, Note_on_c, 0, 55, 27
1, 634, Tempo, 510595
1, 672, Tempo, 508431
1, 691, Tempo, 506286
1, 720, Note_on_c, 0, 55, 0
1, 720, Note_on_c, 0, 60, 27
1, 730, Tempo, 504159
1, 749, Tempo, 502050
1, 787, Tempo, 499958
1, 826, Tempo, 497884
1, 840, Note_on_c, 0, 60, 0
1, 840, Note_on_c, 0, 64, 26
1, 845, Tempo, 495827
1, 883, Tempo, 493787
1, 903, Tempo, 491763
1, 941, Tempo, 489756
1, 960, Tempo, 487765
1, 960, Note_on_c, 0, 64, 0
1, 960, Note_on_c, 0, 62, 31
1, 974, Control_c, 0, 64, 0
1, 1017, Control_c, 0, 64, 127
1, 1080, Note_on_c, 0, 62, 0
1, 1080, Note_on_c, 0, 53, 29
1, 1200, Note_on_c, 0, 53, 0
1, 1200, Note_on_c, 0, 60, 30
1, 1320, Note_on_c, 0, 60, 0
1, 1320, Note_on_c, 0, 62, 27
1, 1440, Tempo, 481889
1, 1440, Note_on_c, 0, 62, 0
1, 1440, Note_on_c, 0, 65, 34
1, 1450, Control_c, 0, 64, 0
1, 1486, Control_c, 0, 64, 127
1, 1560, Note_on_c, 0, 65, 0
1, 1560, Note_on_c, 0, 57, 31
1, 1680, Note_on_c, 0, 57, 0
1, 1680, Note_on_c, 0, 59, 32
1, 1800, Note_on_c, 0, 59, 0
1, 1800, Note_on_c, 0, 65, 30
1, 1920, Tempo, 472404
1, 1920, Note_on_c, 0, 65, 0
1, 1920, Note_on_c, 0, 64, 37
1, 1935, Control_c, 0, 64, 0
1, 1998, Control_c, 0, 64, 127
1, 2040, Note_on_c, 0, 64, 0
1, 2040, Note_on_c, 0, 55, 34
1, 2160, Note_on_c, 0, 55, 0
1, 2160, Note_on_c, 0, 60, 34
1, 2280, Note_on_c, 0, 60, 0
1, 2280, Note_on_c, 0, 64, 32
1, 2400, Tempo, 468713
1, 2400, Note_on_c, 0, 64, 0
1, 2400, Note_on_c, 0, 67, 37
1, 2520, Note_on_c, 0, 67, 0
1, 2520, Note_on_c, 0, 59, 34
1, 2640, Note_on_c, 0, 59, 0
1, 2640, Note_on_c, 0, 60, 34
1, 2760, Note_on_c, 0, 60, 0
1, 2760, Note_on_c, 0, 67, 32
1, 2880, Note_on_c, 0, 67, 0
1, 2880, Note_on_c, 0, 65, 38
1, 2892, Control_c, 0, 64, 0
1, 2979, Control_c, 0, 64, 127
1, 3000, Note_on_c, 0, 65, 0
1, 3000, Note_on_c, 0, 57, 35
1, 3120, Note_on_c, 0, 57, 0
1, 3120, Note_on_c, 0, 60, 35
1, 3240, Tempo, 502050
1, 3240, Note_on_c, 0, 60, 0
1, 3240, Note_on_c, 0, 65, 32
1, 3360, Tempo, 507743
1, 3360, Note_on_c, 0, 65, 0
1, 3360, Note_on_c, 0, 69, 38
1, 3378, Control_c, 0, 64, 0
1, 3399, Tempo, 509901
1, 3418, Tempo, 512076
1, 3431, Control_c, 0, 64, 127
1, 3456, Tempo, 514271
1, 3475, Tempo, 516484
1, 3480, Note_on_c, 0, 69, 0
1, 3480, Note_on_c, 0, 59, 35
1, 3514, Tempo, 518717
1, 3533, Tempo, 520969
1, 3552, Tempo, 523241
1, 3591, Tempo, 525532
1, 3600, Note_on_c, 0, 59, 0
1, 3600, Note_on_c, 0, 65, 35
1, 3610, Tempo, 527844
1, 3648, Tempo, 530176
1, 3667, Tempo, 532529
1, 3687, Tempo, 534902
1, 3720, Note_on_c, 0, 65, 0
1, 3720, Note_on_c, 0, 69, 32
1, 3725, Tempo, 537297
1, 3744, Tempo, 539714
1, 3783, Tempo, 542152
1, 3802, Tempo, 544613
1, 3821, Tempo, 547096
1, 3840, Tempo, 468128
1, 3840, Note_on_c, 0, 69, 0
1, 3840, Note_on_c, 0, 67, 42
1, 3849, Control_c, 0, 64, 0
1, 3890, Control_c, 0, 64, 127
1, 3960, Note_on_c, 0, 67, 0
1, 3960, Note_on_c, 0, 60, 36
1, 4080, Note_on_c, 0, 60, 0
1, 4080, Note_on_c, 0, 64, 36
1, 4200, Tempo, 539714
1, 4200, Note_on_c, 0, 64, 0
1, 4200, Note_on_c, 0, 67, 30
1, 4320, Tempo, 479731
1, 4320, Note_on_c, 0, 67, 0
1, 4320, Note_on_c, 0, 48, 0
1, 4320, Note_on_c, 0, 72, 50
1, 4320, Note_on_c, 0, 60, 35
1, 4334, Control_c, 0, 64, 0
1, 4387, Control_c, 0, 64, 127
1, 4440, Note_on_c, 0, 64, 38
1, 4500, Note_on_c, 0, 72, 0
1, 4560, Note_on_c, 0, 64, 0
1, 4560, Note_on_c, 0, 67, 38
1, 4680, Note_on_c, 0, 67, 0
1, 4680, Note_on_c, 0, 72, 32
1, 4800, Tempo, 473410
1, 4800, Note_on_c, 0, 72, 0
1, 4800, Note_on_c, 0, 74, 53
1, 4800, Note_on_c, 0, 59, 29
1, 4811, Control_c, 0, 64, 0
1, 4853, Control_c, 0, 64, 127
1, 4920, Note_on_c, 0, 64, 42
1, 4980, Note_on_c, 0, 74, 0
1, 5040, Note_on_c, 0, 64, 0
1, 5040, Note_on_c, 0, 67, 42
1, 5160, Note_on_c, 0, 67, 0
1, 5160, Note_on_c, 0, 74, 35
1, 5280, Note_on_c, 0, 74, 0
1, 5280, Note_on_c, 0, 59, 0
1, 5280, Note_on_c, 0, 72, 52
1, 5280, Note_on_c, 0, 57, 29
1, 5291, Control_c, 0, 64, 0
1, 5358, Control_c, 0, 64, 127
1, 5400, Note_on_c, 0, 64, 41
1, 5460, Note_on_c, 0, 72, 0
1, 5520, Note_on_c, 0, 64, 0
1, 5520, Note_on_c, 0, 67, 41
1, 5640, Note_on_c, 0, 67, 0
1, 5640, Note_on_c, 0, 72, 38
1, 5760, Note_on_c, 0, 72, 0
1, 5760, Note_on_c, 0, 57, 0
1, 5760, Note_on_c, 0, 71, 47
1, 5760, Note_on_c, 0, 59, 29
1, 5760, Control_c, 0, 64, 0
1, 5824, Control_c, 0, 64, 127
1, 5880, Note_on_c, 0, 64, 38
1, 5940, Note_on_c, 0, 71, 0
1, 6000, Note_on_c, 0, 64, 0
1, 6000, Note_on_c, 0, 67, 38
1, 6120, Note_on_c, 0, 67, 0
1, 6120, Note_on_c, 0, 71, 27
1, 6240, Note_on_c, 0, 71, 0
1, 6240, Note_on_c, 0, 59, 0
1, 6240, Note_on_c, 0, 60, 0
1, 6240, Note_on_c, 0, 69, 47
1, 6240, Note_on_c, 0, 60, 28
1, 6246, Control_c, 0, 64, 0
1, 6314, Control_c, 0, 64, 127
1, 6360, Note_on_c, 0, 64, 35
1, 6420, Note_on_c, 0, 69, 0
1, 6480, Note_on_c, 0, 64, 0
1, 6480, Note_on_c, 0, 67, 35
1, 6600, Tempo, 491119
1, 6600, Note_on_c, 0, 67, 0
1, 6600, Note_on_c, 0, 69, 27
1, 6720, Tempo, 473672
1, 6720, Note_on_c, 0, 69, 0
1, 6720, Note_on_c, 0, 60, 0
1, 6720, Note_on_c, 0, 67, 45
1, 6720, Note_on_c, 0, 59, 28
1, 6731, Control_c, 0, 64, 0
1, 6798, Control_c, 0, 64, 127
1, 6840, Note_on_c, 0, 60, 35
1, 6900, Note_on_c, 0, 67, 0
1, 6960, Note_on_c, 0, 60, 0
1, 6960, Note_on_c, 0, 64, 35
1, 7080, Note_on_c, 0, 64, 0
1, 7080, Note_on_c, 0, 67, 27
1, 7200, Note_on_c, 0, 67, 0
1, 7200, Note_on_c, 0, 59, 0
1, 7200, Note_on_c, 0, 65, 46
1, 7200, Note_on_c, 0, 57, 28
1, 7218, Control_c, 0, 64, 0
1, 7281, Control_c, 0, 64, 127
1, 7320, Note_on_c, 0, 60, 35
1, 7380, Note_on_c, 0, 65, 0
1, 7440, Note_on_c, 0, 60, 0
1, 7440, Note_on_c, 0, 64, 35
1, 7560, Note_on_c, 0, 64, 0
1, 7560, Note_on_c, 0, 65, 27
1, 7680, Tempo, 469962
1, 7680, Note_on_c, 0, 65, 0
1, 7680, Note_on_c, 0, 57, 0
1, 7680, Note_on_c, 0, 64, 41
1, 7680, Note_on_c, 0, 55, 29
1, 7683, Control_c, 0, 64, 0
1, 7772, Control_c, 0, 64, 127
1, 7800, Note_on_c, 0, 59, 32
1, 7920, Note_on_c, 0, 59, 0
1, 7920, Note_on_c, 0, 60, 32
1, 8030, Note_on_c, 0, 64, 0
1, 8040, Note_on_c, 0, 60, 0
1, 8040, Note_on_c, 0, 64, 27
1, 8160, Note_on_c, 0, 64, 0
1, 8160, Note_on_c, 0, 55, 0
1, 8160, Note_on_c, 0, 62, 35
1, 8160, Note_on_c, 0, 53, 27
1, 8180, Control_c, 0, 64, 0
1, 8259, Control_c, 0, 64, 127
1, 8280, Note_on_c, 0, 57, 32
1, 8400, Note_on_c, 0, 57, 0
1, 8400, Note_on_c, 0, 60, 32
1, 8510, Note_on_c, 0, 62, 0
1, 8520, Tempo, 516484
1, 8520, Note_on_c, 0, 60, 0
1, 8520, Note_on_c, 0, 62, 27
1, 8640, Tempo, 473410
1, 8640, Note_on_c, 0, 62, 0
1, 8640, Note_on_c, 0, 53, 0
1, 8640, Note_on_c, 0, 67, 41
1, 8640, Note_on_c, 0, 52, 27
1, 8661, Control_c, 0, 64, 0
1, 8760, Note_on_c, 0, 59, 32
1, 8760, Control_c, 0, 64, 127
1, 8880, Note_on_c, 0, 59, 0
1, 8880, Note_on_c, 0, 64, 32
1, 8990, Note_on_c, 0, 67, 0
1, 9000, Tempo, 557258
1, 9000, Note_on_c, 0, 64, 0
1, 9000, Note_on_c, 0, 67, 33
1, 9101, Tempo, 514271
1, 9120, Note_on_c, 0, 67, 0
1, 9120, Note_on_c, 0, 52, 0
1, 9120, Note_on_c, 0, 69, 47
1, 9120, Note_on_c, 0, 57, 27
1, 9139, Tempo, 516484
1, 9141, Control_c, 0, 64, 0
1, 9159, Tempo, 518717
1, 9178, Tempo, 520969
1, 9197, Tempo, 523241
1, 9216, Tempo, 525532
1, 9233, Control_c, 0, 64, 127
1, 9235, Tempo, 527844
1, 9240, Note_on_c, 0, 60, 37
1, 9255, Tempo, 530176
1, 9293, Tempo, 532529
1, 9312, Tempo, 534902
1, 9331, Tempo, 537297
1, 9351, Tempo, 539714
1, 9360, Note_on_c, 0, 60, 0
1, 9360, Note_on_c, 0, 64, 32
1, 9370, Tempo, 542152
1, 9389, Tempo, 544613
1, 9408, Tempo, 547096
1, 9470, Note_on_c, 0, 69, 0
1, 9480, Tempo, 633781
1, 9480, Note_on_c, 0, 64, 0
1, 9480, Note_on_c, 0, 69, 27
1, 9600, Tempo, 557776
1, 9600, Note_on_c, 0, 69, 0
1, 9600, Note_on_c, 0, 57, 0
1, 9600, Note_on_c, 0, 64, 40
1, 9600, Note_on_c, 0, 55, 29
1, 9608, Control_c, 0, 64, 0
1, 9685, Control_c, 0, 64, 127
1, 9720, Tempo, 469962
1, 9720, Note_on_c, 0, 57, 32
1, 9840, Tempo, 468494
1, 9840, Note_on_c, 0, 57, 0
1, 9840, Note_on_c, 0, 60, 32
1, 9950, Note_on_c, 0, 64, 0
1, 9960, Note_on_c, 0, 60, 0
1, 9960, Note_on_c, 0, 64, 27
1, 10080, Note_on_c, 0, 64, 0
1, 10080, Note_on_c, 0, 55, 0
1, 10080, Note_on_c, 0, 62, 39
1, 10080, Note_on_c, 0, 53, 27
1, 10090, Control_c, 0, 64, 0
1, 10165, Control_c, 0, 64, 127
1, 10200, Note_on_c, 0, 57, 32
1, 10320, Note_on_c, 0, 57, 0
1, 10320, Note_on_c, 0, 60, 32
1, 10430, Note_on_c, 0, 62, 0
1, 10440, Note_on_c, 0, 60, 0
1, 10440, Note_on_c, 0, 62, 27
1, 10560, Tempo, 477631
1, 10560, Note_on_c, 0, 62, 0
1, 10560, Note_on_c, 0, 53, 0
1, 10560, Note_on_c, 0, 60, 35
1, 10560, Note_on_c, 0, 52, 27
1, 10577, Control_c, 0, 64, 0
1, 10659, Control_c, 0, 64, 127
1, 10680, Note_on_c, 0, 55, 32
1, 10800, Note_on_c, 0, 55, 0
1, 10800, Note_on_c, 0, 57, 32
1, 10910, Note_on_c, 0, 60, 0
1, 10920, Note_on_c, 0, 57, 0
1, 10920, Note_on_c, 0, 60, 27
1, 11040, Tempo, 486224
1, 11040, Note_on_c, 0, 60, 0
1, 11040, Note_on_c, 0, 52, 0
1, 11040, Note_on_c, 0, 59, 35
1, 11040, Note_on_c, 0, 50, 27
1, 11048, Control_c, 0, 64, 0
1, 11139, Control_c, 0, 64, 127
1, 11160, Note_on_c, 0, 53, 32
1, 11280, Note_on_c, 0, 53, 0
1, 11280, Note_on_c, 0, 55, 32
1, 11390, Note_on_c, 0, 59, 0
1, 11400, Note_on_c, 0, 55, 0
1, 11400, Note_on_c, 0, 59, 27
1, 11520, Tempo, 539714
1, 11520, Note_on_c, 0, 59, 0
1, 11520, Note_on_c, 0, 50, 0
1, 11520, Note_on_c, 0, 41, 21
1, 11527, Control_c, 0, 64, 0
1, 11626, Control_c, 0, 64, 127
1, 11640, Tempo, 484027
1, 11640, Note_on_c, 0, 48, 20
1, 11760, Note_on_c, 0, 48, 0
1, 11760, Note_on_c, 0, 50, 21
1, 11880, Note_on_c, 0, 50, 0
1, 11880, Note_on_c, 0, 52, 23
1, 12000, Tempo, 477631
1, 12000, Note_on_c, 0, 52, 0
1, 12000, Note_on_c, 0, 53, 28
1, 12058, Tempo, 479731
1, 12115, Tempo, 481889
1, 12120, Note_on_c, 0, 53, 0
1, 12120, Note_on_c, 0, 57, 31
1, 12173, Tempo, 484027
1, 12231, Tempo, 486224
1, 12240, Note_on_c, 0, 57, 0
1, 12240, Note_on_c, 0, 60, 34
1, 12288, Tempo, 488440
1, 12346, Tempo, 490637
1, 12360, Note_on_c, 0, 60, 0
1, 12360, Note_on_c, 0, 62, 36
1, 12403, Tempo, 492894
1, 12430, Tempo, 486224
1, 12480, Note_on_c, 0, 62, 0
1, 12480, Note_on_c, 0, 64, 41
1, 12600, Note_on_c, 0, 64, 0
1, 12600, Note_on_c, 0, 62, 41
1, 12602, Tempo, 484027
1, 12720, Note_on_c, 0, 62, 0
1, 12720, Note_on_c, 0, 60, 38
1, 12775, Tempo, 481889
1, 12840, Note_on_c, 0, 60, 0
1, 12840, Note_on_c, 0, 57, 35
1, 12948, Tempo, 479731
1, 12960, Note_on_c, 0, 57, 0
1, 12960, Note_on_c, 0, 53, 32
1, 13080, Note_on_c, 0, 53, 0
1, 13080, Note_on_c, 0, 52, 30
1, 13200, Note_on_c, 0, 52, 0
1, 13200, Note_on_c, 0, 50, 26
1, 13320, Note_on_c, 0, 50, 0
1, 13320, Note_on_c, 0, 48, 24
1, 13440, Tempo, 556380
1, 13440, Note_on_c, 0, 48, 0
1, 13440, Note_on_c, 0, 41, 0
1, 13440, Note_on_c, 0, 41, 21
1, 13500, Control_c, 0, 64, 0
1, 13539, Control_c, 0, 64, 127
1, 13560, Tempo, 479731
1, 13560, Note_on_c, 0, 48, 21
1, 13680, Note_on_c, 0, 48, 0
1, 13680, Note_on_c, 0, 50, 22
1, 13800, Note_on_c, 0, 50, 0
1, 13800, Note_on_c, 0, 52, 25
1, 13901, Tempo, 469300
1, 13920, Note_on_c, 0, 52, 0
1, 13920, Note_on_c, 0, 53, 30
1, 13959, Tempo, 471365
1, 13997, Tempo, 473410
1, 14035, Tempo, 475511
1, 14040, Note_on_c, 0, 53, 0
1, 14040, Note_on_c, 0, 57, 34
1, 14074, Tempo, 477631
1, 14112, Tempo, 479731
1, 14151, Tempo, 481889
1, 14160, Note_on_c, 0, 57, 0
1, 14160, Note_on_c, 0, 60, 38
1, 14189, Tempo, 484027
1, 14227, Tempo, 486224
1, 14266, Tempo, 488440
1, 14280, Note_on_c, 0, 60, 0
1, 14280, Note_on_c, 0, 62, 42
1, 14304, Tempo, 490637
1, 14343, Tempo, 492894
1, 14381, Tempo, 495131
1, 14400, Note_on_c, 0, 62, 0
1, 14400, Note_on_c, 0, 64, 48
1, 14407, Tempo, 488440
1, 14503, Tempo, 486224
1, 14520, Note_on_c, 0, 64, 0
1, 14520, Note_on_c, 0, 62, 41
1, 14599, Tempo, 484027
1, 14640, Note_on_c, 0, 62, 0
1, 14640, Note_on_c, 0, 60, 38
1, 14695, Tempo, 481889
1, 14760, Note_on_c, 0, 60, 0
1, 14760, Note_on_c, 0, 59, 35
1, 14791, Tempo, 479731
1, 14880, Note_on_c, 0, 59, 0
1, 14880, Note_on_c, 0, 57, 32
1, 14887, Tempo, 477631
1, 15000, Note_on_c, 0, 57, 0
1, 15000, Note_on_c, 0, 52, 30
1, 15120, Note_on_c, 0, 52, 0
1, 15120, Note_on_c, 0, 50, 26
1, 15240, Note_on_c, 0, 50, 0
1, 15240, Note_on_c, 0, 48, 24
1, 15360, Tempo, 545157
1, 15360, Note_on_c, 0, 48, 0
1, 15360, Note_on_c, 0, 41, 0
1, 15360, Note_on_c, 0, 41, 21
1, 15410, Control_c, 0, 64, 0
1, 15452, Control_c, 0, 64, 127
1, 15480, Tempo, 479731
1, 15480, Note_on_c, 0, 48, 21
1, 15600, Note_on_c, 0, 48, 0
1, 15600, Note_on_c, 0, 50, 22
1, 15720, Note_on_c, 0, 50, 0
1, 15720, Note_on_c, 0, 52, 25
1, 15840, Note_on_c, 0, 52, 0
1, 15840, Note_on_c, 0, 53, 30
1, 15879, Tempo, 475511
1, 15955, Tempo, 477631
1, 15960, Note_on_c, 0, 53, 0
1, 15960, Note_on_c, 0, 56, 34
1, 16032, Tempo, 479731
1, 16080, Note_on_c, 0, 56, 0
1, 16080, Note_on_c, 0, 60, 39
1, 16109, Tempo, 481889
1, 16186, Tempo, 484027
1, 16200, Note_on_c, 0, 60, 0
1, 16200, Note_on_c, 0, 62, 42
1, 16263, Tempo, 486224
1, 16320, Tempo, 488440
1, 16320, Note_on_c, 0, 62, 0
1, 16320, Note_on_c, 0, 64, 48
1, 16359, Tempo, 484027
1, 16435, Tempo, 481889
1, 16440, Note_on_c, 0, 64, 0
1, 16440, Note_on_c, 0, 62, 42
1, 16512, Tempo, 479731
1, 16560, Note_on_c, 0, 62, 0
1, 16560, Note_on_c, 0, 60, 40
1, 16589, Tempo, 477631
1, 16680, Note_on_c, 0, 60, 0
1, 16680, Note_on_c, 0, 56, 36
1, 16800, Note_on_c, 0, 56, 0
1, 16800, Note_on_c, 0, 53, 33
1, 16920, Note_on_c, 0, 53, 0
1, 16920, Note_on_c, 0, 52, 30
1, 17040, Note_on_c, 0, 52, 0
1, 17040, Note_on_c, 0, 50, 26
1, 17160, Note_on_c, 0, 50, 0
1, 17160, Note_on_c, 0, 48, 24
1, 17280, Tempo, 550711
1, 17280, Note_on_c, 0, 48, 0
1, 17280, Note_on_c, 0, 41, 0
1, 17280, Note_on_c, 0, 41, 21
1, 17335, Control_c, 0, 64, 0
1, 17372, Control_c, 0, 64, 127
1, 17400, Tempo, 479731
1, 17400, Note_on_c, 0, 48, 21
1, 17520, Note_on_c, 0, 48, 0
1, 17520, Note_on_c, 0, 50, 22
1, 17640, Note_on_c, 0, 50, 0
1, 17640, Note_on_c, 0, 52, 25
1, 17729, Tempo, 469300
1, 17760, Note_on_c, 0, 52, 0
1, 17760, Note_on_c, 0, 53, 31
1, 17786, Tempo, 471365
1, 17844, Tempo, 473410
1, 17880, Note_on_c, 0, 53, 0
1, 17880, Note_on_c, 0, 56, 35
1, 17902, Tempo, 475511
1, 17940, Tempo, 477631
1, 17998, Tempo, 479731
1, 18000, Note_on_c, 0, 56, 0
1, 18000, Note_on_c, 0, 60, 39
1, 18055, Tempo, 481889
1, 18094, Tempo, 484027
1, 18120, Note_on_c, 0, 60, 0
1, 18120, Note_on_c, 0, 62, 42
1, 18151, Tempo, 486224
1, 18209, Tempo, 488440
1, 18240, Note_on_c, 0, 62, 0
1, 18240, Note_on_c, 0, 64, 48
1, 18247, Tempo, 488440
1, 18324, Tempo, 486224
1, 18360, Note_on_c, 0, 64, 0
1, 18360, Note_on_c, 0, 62, 41
1, 18382, Tempo, 484027
1, 18458, Tempo, 481889
1, 18480, Note_on_c, 0, 62, 0
1, 18480, Note_on_c, 0, 60, 40
1, 18516, Tempo, 479731
1, 18593, Tempo, 477631
1, 18600, Note_on_c, 0, 60, 0
1, 18600, Note_on_c, 0, 58, 35
1, 18650, Tempo, 475511
1, 18708, Tempo, 473410
1, 18720, Note_on_c, 0, 58, 0
1, 18720, Note_on_c, 0, 56, 33
1, 18840, Note_on_c, 0, 56, 0
1, 18840, Note_on_c, 0, 52, 30
1, 18960, Note_on_c, 0, 52, 0
1, 18960, Note_on_c, 0, 50, 26
1, 19080, Note_on_c, 0, 50, 0
1, 19080, Note_on_c, 0, 48, 24
1, 19200, Note_on_c, 0, 48, 0
1, 19200, Note_on_c, 0, 41, 0
1, 19200, Note_on_c, 0, 40, 28
1, 19219, Control_c, 0, 64, 0
1, 19275, Control_c, 0, 64, 127
1, 19320, Note_on_c, 0, 40, 0
1, 19320, Note_on_c, 0, 47, 23
1, 19440, Note_on_c, 0, 47, 0
1, 19440, Note_on_c, 0, 52, 26
1, 19560, Tempo, 509165
1, 19560, Note_on_c, 0, 52, 0
1, 19560, Note_on_c, 0, 56, 26
1, 19680, Tempo, 479731
1, 19680, Note_on_c, 0, 56, 0
1, 19680, Note_on_c, 0, 47, 35
1, 19800, Note_on_c, 0, 47, 0
1, 19800, Note_on_c, 0, 52, 30
1, 19920, Note_on_c, 0, 52, 0
1, 19920, Note_on_c, 0, 56, 31
1, 20040, Tempo, 511553
1, 20040, Note_on_c, 0, 56, 0
1, 20040, Note_on_c, 0, 59, 32
1, 20160, Tempo, 479731
1, 20160, Note_on_c, 0, 59, 0
1, 20160, Note_on_c, 0, 52, 42
1, 20280, Note_on_c, 0, 52, 0
1, 20280, Note_on_c, 0, 56, 39
1, 20400, Note_on_c, 0, 56, 0
1, 20400, Note_on_c, 0, 59, 43
1, 20520, Tempo, 514007
1, 20520, Note_on_c, 0, 59, 0
1, 20520, Note_on_c, 0, 64, 43
1, 20640, Tempo, 479731
1, 20640, Note_on_c, 0, 64, 0
1, 20640, Note_on_c, 0, 56, 49
1, 20657, Tempo, 480615
1, 20695, Tempo, 482548
1, 20733, Tempo, 484496
1, 20760, Note_on_c, 0, 56, 0
1, 20760, Note_on_c, 0, 59, 40
1, 20772, Tempo, 486460
1, 20810, Tempo, 488440
1, 20849, Tempo, 490436
1, 20880, Note_on_c, 0, 59, 0
1, 20880, Note_on_c, 0, 64, 47
1, 20887, Tempo, 492449
1, 20925, Tempo, 494478
1, 20964, Tempo, 496524
1, 20983, Tempo, 498587
1, 21000, Tempo, 646273
1, 21000, Note_on_c, 0, 64, 0
1, 21000, Note_on_c, 0, 68, 47
1, 21120, Tempo, 479731
1, 21120, Note_on_c, 0, 68, 0
1, 21120, Note_on_c, 0, 64, 61
1, 21974, Control_c, 0, 64, 0
1, 23040, Note_on_c, 0, 64, 0
1, 23040, Note_on_c, 0, 64, 32
1, 23040, Control_c, 0, 64, 0
1, 23104, Control_c, 0, 64, 127
1, 23130, Note_on_c, 0, 64, 0
1, 23160, Tempo, 463285
1, 23160, Note_on_c, 0, 69, 32
1, 23280, Note_on_c, 0, 69, 0
1, 23280, Note_on_c, 0, 65, 32
1, 23400, Note_on_c, 0, 65, 0
1, 23400, Note_on_c, 0, 62, 27
1, 23520, Note_on_c, 0, 62, 0
1, 23520, Note_on_c, 0, 64, 34
1, 23610, Note_on_c, 0, 64, 0
1, 23640, Note_on_c, 0, 65, 32
1, 23760, Note_on_c, 0, 65, 0
1, 23760, Note_on_c, 0, 62, 32
1, 23880, Tempo, 477631
1, 23880, Note_on_c, 0, 62, 0
1, 23880, Note_on_c, 0, 59, 27
1, 24000, Tempo, 477631
1, 24000, Note_on_c, 0, 59, 0
1, 24000, Note_on_c, 0, 64, 34
1, 24011, Control_c, 0, 64, 0
1, 24078, Control_c, 0, 64, 127
1, 24090, Note_on_c, 0, 64, 0
1, 24120, Tempo, 463285
1, 24120, Note_on_c, 0, 69, 32
1, 24240, Note_on_c, 0, 69, 0
1, 24240, Note_on_c, 0, 65, 32
1, 24360, Note_on_c, 0, 65, 0
1, 24360, Note_on_c, 0, 62, 27
1, 24480, Note_on_c, 0, 62, 0
1, 24480, Note_on_c, 0, 64, 31
1, 24570, Note_on_c, 0, 64, 0
1, 24600, Note_on_c, 0, 65, 34
1, 24720, Note_on_c, 0, 65, 0
1, 24720, Note_on_c, 0, 62, 38
1, 24840, Tempo, 479731
1, 24840, Note_on_c, 0, 62, 0
1, 24840, Note_on_c, 0, 59, 38
1, 24960, Tempo, 521467
1, 24960, Note_on_c, 0, 59, 0
1, 24960, Note_on_c, 0, 67, 53
1, 24960, Control_c, 0, 64, 0
1, 25024, Control_c, 0, 64, 127
1, 25050, Note_on_c, 0, 67, 0
1, 25080, Tempo, 473410
1, 25080, Note_on_c, 0, 72, 44
1, 25200, Tempo, 457387
1, 25200, Note_on_c, 0, 72, 0
1, 25200, Note_on_c, 0, 69, 35
1, 25320, Note_on_c, 0, 69, 0
1, 25320, Note_on_c, 0, 65, 30
1, 25440, Note_on_c, 0, 65, 0
1, 25440, Note_on_c, 0, 64, 37
1, 25530, Note_on_c, 0, 64, 0
1, 25560, Note_on_c, 0, 69, 38
1, 25680, Note_on_c, 0, 69, 0
1, 25680, Note_on_c, 0, 65, 32
1, 25800, Tempo, 467290
1, 25800, Note_on_c, 0, 65, 0
1, 25800, Note_on_c, 0, 62, 27
1, 25920, Tempo, 477631
1, 25920, Note_on_c, 0, 62, 0
1, 25920, Note_on_c, 0, 60, 33
1, 25931, Control_c, 0, 64, 0
1, 25998, Control_c, 0, 64, 127
1, 26010, Note_on_c, 0, 60, 0
1, 26040, Tempo, 457387
1, 26040, Note_on_c, 0, 65, 31
1, 26160, Note_on_c, 0, 65, 0
1, 26160, Note_on_c, 0, 62, 32
1, 26280, Note_on_c, 0, 62, 0
1, 26280, Note_on_c, 0, 59, 27
1, 26400, Note_on_c, 0, 59, 0
1, 26400, Note_on_c, 0, 57, 30
1, 26490, Note_on_c, 0, 57, 0
1, 26520, Note_on_c, 0, 62, 30
1, 26640, Note_on_c, 0, 62, 0
1, 26640, Note_on_c, 0, 59, 32
1, 26760, Tempo, 511553
1, 26760, Note_on_c, 0, 59, 0
1, 26760, Note_on_c, 0, 55, 25
1, 26880, Tempo, 479731
1, 26880, Note_on_c, 0, 55, 0
1, 26880, Note_on_c, 0, 64, 32
1, 26880, Control_c, 0, 64, 0
1, 26944, Control_c, 0, 64, 127
1, 26970, Note_on_c, 0, 64, 0
1, 27000, Tempo, 463285
1, 27000, Note_on_c, 0, 69, 32
1, 27120, Note_on_c, 0, 69, 0
1, 27120, Note_on_c, 0, 65, 32
1, 27240, Note_on_c, 0, 65, 0
1, 27240, Note_on_c, 0, 62, 27
1, 27360, Note_on_c, 0, 62, 0
1, 27360, Note_on_c, 0, 64, 34
1, 27450, Note_on_c, 0, 64, 0
1, 27480, Note_on_c, 0, 65, 32
1, 27600, Note_on_c, 0, 65, 0
1, 27600, Note_on_c, 0, 62, 32
1, 27720, Tempo, 477631
1, 27720, Note_on_c, 0, 62, 0
1, 27720, Note_on_c, 0, 59, 27
1, 27840, Tempo, 477631
1, 27840, Note_on_c, 0, 59, 0
1, 27840, Note_on_c, 0, 64, 34
1, 27851, Control_c, 0, 64, 0
1, 27918, Control_c, 0, 64, 127
1, 27930, Note_on_c, 0, 64, 0
1, 27960, Tempo, 463285
1, 27960, Note_on_c, 0, 69, 32
1, 28080, Note_on_c, 0, 69, 0
1, 28080, Note_on_c, 0, 65, 32
1, 28200, Note_on_c, 0, 65, 0
1, 28200, Note_on_c, 0, 62, 27
1, 28320, Note_on_c, 0, 62, 0
1, 28320, Note_on_c, 0, 64, 31
1, 28410, Note_on_c, 0, 64, 0
1, 28440, Note_on_c, 0, 65, 33
1, 28560, Note_on_c, 0, 65, 0
1, 28560, Note_on_c, 0, 62, 37
1, 28680, Tempo, 530176
1, 28680, Note_on_c, 0, 62, 0
1, 28680, Note_on_c, 0, 59, 38
1, 28800, Tempo, 521467
1, 28800, Note_on_c, 0, 59, 0
1, 28800, Note_on_c, 0, 67, 48
1, 28800, Control_c, 0, 64, 0
1, 28864, Control_c, 0, 64, 127
1, 28890, Note_on_c, 0, 67, 0
1, 28920, Tempo, 477631
1, 28920, Note_on_c, 0, 72, 43
1, 29040, Tempo, 467290
1, 29040, Note_on_c, 0, 72, 0
1, 29040, Note_on_c, 0, 69, 40
1, 29160, Note_on_c, 0, 69, 0
1, 29160, Note_on_c, 0, 65, 30
1, 29280, Note_on_c, 0, 65, 0
1, 29280, Note_on_c, 0, 64, 37
1, 29370, Note_on_c, 0, 64, 0
1, 29400, Note_on_c, 0, 69, 40
1, 29520, Note_on_c, 0, 69, 0
1, 29520, Note_on_c, 0, 65, 32
1, 29640, Tempo, 477631
1, 29640, Note_on_c, 0, 65, 0
1, 29640, Note_on_c, 0, 62, 27
1, 29760, Tempo, 465261
1, 29760, Note_on_c, 0, 62, 0
1, 29760, Note_on_c, 0, 60, 33
1, 29771, Control_c, 0, 64, 0
1, 29838, Control_c, 0, 64, 127
1, 29850, Note_on_c, 0, 60, 0
1, 29880, Tempo, 463285
1, 29880, Note_on_c, 0, 65, 31
1, 30000, Note_on_c, 0, 65, 0
1, 30000, Note_on_c, 0, 62, 32
1, 30120, Note_on_c, 0, 62, 0
1, 30120, Note_on_c, 0, 59, 27
1, 30240, Note_on_c, 0, 59, 0
1, 30240, Note_on_c, 0, 57, 30
1, 30330, Note_on_c, 0, 57, 0
1, 30360, Note_on_c, 0, 62, 30
1, 30480, Note_on_c, 0, 62, 0
1, 30480, Note_on_c, 0, 59, 32
1, 30600, Tempo, 479731
1, 30600, Note_on_c, 0, 59, 0
1, 30600, Note_on_c, 0, 55, 25
1, 30720, Tempo, 479731
1, 30720, Note_on_c, 0, 55, 0
1, 30720, Note_on_c, 0, 53, 32
1, 30720, Control_c, 0, 64, 0
1, 30784, Control_c, 0, 64, 127
1, 30810, Note_on_c, 0, 53, 0
1, 30840, Tempo, 463285
1, 30840, Note_on_c, 0, 59, 32
1, 30960, Note_on_c, 0, 59, 0
1, 30960, Note_on_c, 0, 56, 32
1, 31080, Note_on_c, 0, 56, 0
1, 31080, Note_on_c, 0, 52, 27
1, 31200, Note_on_c, 0, 52, 0
1, 31200, Note_on_c, 0, 55, 46
1, 31215, Control_c, 0, 64, 0
1, 31286, Control_c, 0, 64, 127
1, 31290, Note_on_c, 0, 55, 0
1, 31320, Note_on_c, 0, 61, 38
1, 31440, Note_on_c, 0, 61, 0
1, 31440, Note_on_c, 0, 58, 32
1, 31560, Tempo, 477631
1, 31560, Note_on_c, 0, 58, 0
1, 31560, Note_on_c, 0, 54, 27
1, 31680, Tempo, 479731
1, 31680, Note_on_c, 0, 54, 0
1, 31680, Note_on_c, 0, 53, 32
1, 31680, Control_c, 0, 64, 0
1, 31744, Control_c, 0, 64, 127
1, 31770, Note_on_c, 0, 53, 0
1, 31800, Tempo, 463285
1, 31800, Note_on_c, 0, 59, 32
1, 31920, Note_on_c, 0, 59, 0
1, 31920, Note_on_c, 0, 56, 32
1, 32040, Note_on_c, 0, 56, 0
1, 32040, Note_on_c, 0, 52, 27
1, 32160, Note_on_c, 0, 52, 0
1, 32160, Note_on_c, 0, 55, 46
1, 32175, Control_c, 0, 64, 0
1, 32246, Control_c, 0, 64, 127
1, 32250, Note_on_c, 0, 55, 0
1, 32280, Note_on_c, 0, 61, 39
1, 32400, Note_on_c, 0, 61, 0
1, 32400, Note_on_c, 0, 58, 32
1, 32520, Tempo, 477631
1, 32520, Note_on_c, 0, 58, 0
1, 32520, Note_on_c, 0, 54, 27
1, 32640, Tempo, 479731
1, 32640, Note_on_c, 0, 54, 0
1, 32640, Note_on_c, 0, 53, 32
1, 32640, Control_c, 0, 64, 0
1, 32704, Control_c, 0, 64, 127
1, 32730, Note_on_c, 0, 53, 0
1, 32760, Tempo, 463285
1, 32760, Note_on_c, 0, 59, 32
1, 32880, Note_on_c, 0, 59, 0
1, 32880, Note_on_c, 0, 56, 32
1, 33000, Note_on_c, 0, 56, 0
1, 33000, Note_on_c, 0, 52, 27
1, 33120, Note_on_c, 0, 52, 0
1, 33120, Note_on_c, 0, 53, 34
1, 33210, Note_on_c, 0, 53, 0
1, 33240, Note_on_c, 0, 59, 32
1, 33360, Note_on_c, 0, 59, 0
1, 33360, Note_on_c, 0, 56, 32
1, 33480, Tempo, 467290
1, 33480, Note_on_c, 0, 56, 0
1, 33480, Note_on_c, 0, 52, 27
1, 33600, Tempo, 465261
1, 33600, Note_on_c, 0, 52, 0
1, 33600, Note_on_c, 0, 53, 32
1, 33690, Note_on_c, 0, 53, 0
1, 33720, Tempo, 463285
1, 33720, Note_on_c, 0, 59, 32
1, 33840, Note_on_c, 0, 59, 0
1, 33840, Note_on_c, 0, 56, 32
1, 33960, Note_on_c, 0, 56, 0
1, 33960, Note_on_c, 0, 52, 27
1, 34080, Note_on_c, 0, 52, 0
1, 34080, Note_on_c, 0, 53, 34
1, 34170, Note_on_c, 0, 53, 0
1, 34200, Note_on_c, 0, 59, 30
1, 34320, Note_on_c, 0, 59, 0
1, 34320, Note_on_c, 0, 56, 32
1, 34440, Tempo, 477631
1, 34440, Note_on_c, 0, 56, 0
1, 34440, Note_on_c, 0, 52, 27
1, 34560, Tempo, 479731
1, 34560, Note_on_c, 0, 52, 0
1, 34560, Note_on_c, 0, 52, 32
1, 34560, Control_c, 0, 64, 0
1, 34624, Control_c, 0, 64, 127
1, 34650, Note_on_c, 0, 52, 0
1, 34680, Tempo, 463285
1, 34680, Note_on_c, 0, 57, 32
1, 34800, Note_on_c, 0, 57, 0
1, 34800, Note_on_c, 0, 53, 32
1, 34920, Note_on_c, 0, 53, 0
1, 34920, Note_on_c, 0, 50, 27
1, 35040, Note_on_c, 0, 50, 0
1, 35040, Note_on_c, 0, 55, 46
1, 35055, Control_c, 0, 64, 0
1, 35126, Control_c, 0, 64, 127
1, 35130, Note_on_c, 0, 55, 0
1, 35160, Note_on_c, 0, 60, 39
1, 35280, Note_on_c, 0, 60, 0
1, 35280, Note_on_c, 0, 56, 32
1, 35400, Tempo, 477631
1, 35400, Note_on_c, 0, 56, 0
1, 35400, Note_on_c, 0, 53, 27
1, 35520, Tempo, 479731
1, 35520, Note_on_c, 0, 53, 0
1, 35520, Note_on_c, 0, 52, 32
1, 35520, Control_c, 0, 64, 0
1, 35584, Control_c, 0, 64, 127
1, 35610, Note_on_c, 0, 52, 0
1, 35640, Tempo, 463285
1, 35640, Note_on_c, 0, 57, 32
1, 35760, Note_on_c, 0, 57, 0
1, 35760, Note_on_c, 0, 53, 32
1, 35880, Note_on_c, 0, 53, 0
1, 35880, Note_on_c, 0, 50, 27
1, 36000, Note_on_c, 0, 50, 0
1, 36000, Note_on_c, 0, 55, 46
1, 36015, Control_c, 0, 64, 0
1, 36086, Control_c, 0, 64, 127
1, 36090, Note_on_c, 0, 55, 0
1, 36120, Note_on_c, 0, 60, 38
1, 36240, Note_on_c, 0, 60, 0
1, 36240, Note_on_c, 0, 56, 32
1, 36360, Tempo, 477631
1, 36360, Note_on_c, 0, 56, 0
1, 36360, Note_on_c, 0, 53, 27
1, 36480, Tempo, 479731
1, 36480, Note_on_c, 0, 53, 0
1, 36480, Note_on_c, 0, 52, 32
1, 36480, Control_c, 0, 64, 0
1, 36544, Control_c, 0, 64, 127
1, 36570, Note_on_c, 0, 52, 0
1, 36600, Tempo, 463285
1, 36600, Note_on_c, 0, 57, 32
1, 36720, Note_on_c, 0, 57, 0
1, 36720, Note_on_c, 0, 53, 32
1, 36840, Note_on_c, 0, 53, 0
1, 36840, Note_on_c, 0, 50, 27
1, 36960, Note_on_c, 0, 50, 0
1, 36960, Note_on_c, 0, 52, 34
1, 37050, Note_on_c, 0, 52, 0
1, 37080, Note_on_c, 0, 57, 32
1, 37200, Note_on_c, 0, 57, 0
1, 37200, Note_on_c, 0, 53, 32
1, 37320, Tempo, 467290
1, 37320, Note_on_c, 0, 53, 0
1, 37320, Note_on_c, 0, 50, 27
1, 37440, Tempo, 465261
1, 37440, Note_on_c, 0, 50, 0
1, 37440, Note_on_c, 0, 52, 32
1, 37530, Note_on_c, 0, 52, 0
1, 37560, Tempo, 463285
1, 37560, Note_on_c, 0, 57, 32
1, 37680, Note_on_c, 0, 57, 0
1, 37680, Note_on_c, 0, 53, 32
1, 37800, Note_on_c, 0, 53, 0
1, 37800, Note_on_c, 0, 50, 27
1, 37920, Note_on_c, 0, 50, 0
1, 37920, Note_on_c, 0, 52, 34
1, 38010, Note_on_c, 0, 52, 0
1, 38040, Note_on_c, 0, 57, 30
1, 38160, Note_on_c, 0, 57, 0
1, 38160, Note_on_c, 0, 53, 32
1, 38280, Tempo, 477631
1, 38280, Note_on_c, 0, 53, 0
1, 38280, Note_on_c, 0, 50, 27
1, 38400, Tempo, 479731
1, 38400, Note_on_c, 0, 50, 0
1, 38400, Note_on_c, 0, 52, 28
1, 38400, Control_c, 0, 64, 0
1, 38464, Control_c, 0, 64, 127
1, 38490, Note_on_c, 0, 52, 0
1, 38520, Tempo, 463285
1, 38520, Note_on_c, 0, 59, 28
1, 38640, Note_on_c, 0, 59, 0
1, 38640, Note_on_c, 0, 56, 28
1, 38760, Note_on_c, 0, 56, 0
1, 38760, Note_on_c, 0, 50, 23
1, 38880, Tempo, 471180
1, 38880, Note_on_c, 0, 50, 0
1, 38880, Note_on_c, 0, 52, 28
1, 38970, Note_on_c, 0, 52, 0
1, 39000, Note_on_c, 0, 59, 26
1, 39120, Note_on_c, 0, 59, 0
1, 39120, Note_on_c, 0, 56, 26
1, 39240, Tempo, 534426
1, 39240, Note_on_c, 0, 56, 0
1, 39240, Note_on_c, 0, 50, 22
1, 39360, Tempo, 525072
1, 39360, Note_on_c, 0, 50, 0
1, 39360, Note_on_c, 0, 52, 25
1, 39450, Note_on_c, 0, 52, 0
1, 39480, Tempo, 518269
1, 39480, Note_on_c, 0, 59, 25
1, 39600, Tempo, 513831
1, 39600, Note_on_c, 0, 59, 0
1, 39600, Note_on_c, 0, 56, 24
1, 39720, Note_on_c, 0, 56, 0
1, 39720, Note_on_c, 0, 50, 20
1, 39830, Tempo, 497224
1, 39840, Note_on_c, 0, 50, 0
1, 39840, Note_on_c, 0, 52, 25
1, 39869, Tempo, 499293
1, 39869, Tempo, 514271
1, 39889, Tempo, 518717
1, 39908, Tempo, 525532
1, 39927, Tempo, 532529
1, 39930, Note_on_c, 0, 52, 0
1, 39946, Tempo, 537297
1, 39960, Note_on_c, 0, 59, 22
1, 39965, Tempo, 544613
1, 39985, Tempo, 552130
1, 40004, Tempo, 557258
1, 40023, Tempo, 565131
1, 40042, Tempo, 573230
1, 40061, Tempo, 581564
1, 40080, Note_on_c, 0, 59, 0
1, 40080, Note_on_c, 0, 56, 23
1, 40081, Tempo, 587257
1, 40100, Tempo, 596007
1, 40119, Tempo, 605022
1, 40138, Tempo, 611185
1, 40157, Tempo, 620668
1, 40196, Tempo, 640547
1, 40200, Tempo, 853849
1, 40200, Note_on_c, 0, 56, 0
1, 40200, Note_on_c, 0, 50, 19
1, 40320, Tempo, 586682
1, 40320, Note_on_c, 0, 50, 0
1, 40320, Note_on_c, 0, 36, 23
1, 40320, Control_c, 0, 64, 0
1, 40373, Control_c, 0, 64, 127
1, 40380, Note_on_c, 0, 36, 0
1, 40380, Note_on_c, 0, 48, 30
1, 40440, Tempo, 620027
1, 40440, Note_on_c, 0, 55, 24
1, 40560, Tempo, 539714
1, 40560, Note_on_c, 0, 55, 0
1, 40560, Note_on_c, 0, 60, 24
1, 40637, Tempo, 537297
1, 40680, Note_on_c, 0, 60, 0
1, 40680, Note_on_c, 0, 62, 21
1, 40694, Tempo, 534902
1, 40771, Tempo, 532529
1, 40800, Note_on_c, 0, 62, 0
1, 40800, Note_on_c, 0, 64, 28
1, 40829, Tempo, 530176
1, 40886, Tempo, 527844
1, 40920, Note_on_c, 0, 64, 0
1, 40920, Note_on_c, 0, 55, 24
1, 40925, Tempo, 525532
1, 40963, Tempo, 523241
1, 41021, Tempo, 520969
1, 41040, Note_on_c, 0, 55, 0
1, 41040, Note_on_c, 0, 60, 24
1, 41059, Tempo, 518717
1, 41097, Tempo, 516484
1, 41099, Tempo, 498587
1, 41118, Tempo, 496524
1, 41137, Tempo, 494478
1, 41157, Tempo, 492449
1, 41160, Note_on_c, 0, 60, 0
1, 41160, Note_on_c, 0, 64, 24
1, 41176, Tempo, 490436
1, 41280, Note_on_c, 0, 64, 0
1, 41280, Note_on_c, 0, 62, 31
1, 41294, Control_c, 0, 64, 0
1, 41337, Control_c, 0, 64, 127
1, 41400, Note_on_c, 0, 62, 0
1, 41400, Note_on_c, 0, 53, 29
1, 41520, Note_on_c, 0, 53, 0
1, 41520, Note_on_c, 0, 60, 30
1, 41640, Note_on_c, 0, 60, 0
1, 41640, Note_on_c, 0, 62, 27
1, 41760, Tempo, 481889
1, 41760, Note_on_c, 0, 62, 0
1, 41760, Note_on_c, 0, 65, 34
1, 41770, Control_c, 0, 64, 0
1, 41806, Control_c, 0, 64, 127
1, 41880, Note_on_c, 0, 65, 0
1, 41880, Note_on_c, 0, 57, 31
1, 42000, Note_on_c, 0, 57, 0
1, 42000, Note_on_c, 0, 59, 32
1, 42120, Note_on_c, 0, 59, 0
1, 42120, Note_on_c, 0, 65, 30
1, 42240, Tempo, 473410
1, 42240, Note_on_c, 0, 65, 0
1, 42240, Note_on_c, 0, 64, 37
1, 42255, Control_c, 0, 64, 0
1, 42318, Control_c, 0, 64, 127
1, 42360, Note_on_c, 0, 64, 0
1, 42360, Note_on_c, 0, 55, 34
1, 42480, Note_on_c, 0, 55, 0
1, 42480, Note_on_c, 0, 60, 34
1, 42600, Note_on_c, 0, 60, 0
1, 42600, Note_on_c, 0, 64, 32
1, 42720, Note_on_c, 0, 64, 0
1, 42720, Note_on_c, 0, 48, 0
1, 42720, Note_on_c, 0, 67, 37
1, 42720, Note_on_c, 0, 45, 30
1, 42732, Control_c, 0, 64, 0
1, 42835, Control_c, 0, 64, 127
1, 42840, Note_on_c, 0, 67, 0
1, 42840, Note_on_c, 0, 59, 34
1, 42960, Note_on_c, 0, 59, 0
1, 42960, Note_on_c, 0, 60, 34
1, 43080, Note_on_c, 0, 60, 0
1, 43080, Note_on_c, 0, 67, 32
1, 43200, Note_on_c, 0, 67, 0
1, 43200, Note_on_c, 0, 45, 0
1, 43200, Note_on_c, 0, 66, 38
1, 43200, Note_on_c, 0, 50, 30
1, 43212, Control_c, 0, 64, 0
1, 43299, Control_c, 0, 64, 127
1, 43320, Note_on_c, 0, 66, 0
1, 43320, Note_on_c, 0, 57, 35
1, 43440, Note_on_c, 0, 57, 0
1, 43440, Note_on_c, 0, 62, 35
1, 43560, Tempo, 502050
1, 43560, Note_on_c, 0, 62, 0
1, 43560, Note_on_c, 0, 66, 32
1, 43680, Tempo, 473410
1, 43680, Note_on_c, 0, 66, 0
1, 43680, Note_on_c, 0, 50, 0
1, 43680, Note_on_c, 0, 69, 38
1, 43680, Note_on_c, 0, 47, 30
1, 43698, Control_c, 0, 64, 0
1, 43751, Control_c, 0, 64, 127
1, 43800, Note_on_c, 0, 69, 0
1, 43800, Note_on_c, 0, 60, 35
1, 43920, Note_on_c, 0, 60, 0
1, 43920, Note_on_c, 0, 66, 35
1, 44040, Note_on_c, 0, 66, 0
1, 44040, Note_on_c, 0, 69, 32
1, 44160, Note_on_c, 0, 69, 0
1, 44160, Note_on_c, 0, 47, 0
1, 44160, Note_on_c, 0, 67, 39
1, 44160, Note_on_c, 0, 52, 43
1, 44169, Control_c, 0, 64, 0
1, 44210, Control_c, 0, 64, 127
1, 44280, Note_on_c, 0, 67, 0
1, 44280, Note_on_c, 0, 62, 37
1, 44400, Note_on_c, 0, 62, 0
1, 44400, Note_on_c, 0, 67, 40
1, 44520, Tempo, 539714
1, 44520, Note_on_c, 0, 67, 0
1, 44520, Note_on_c, 0, 71, 42
1, 44640, Tempo, 479731
1, 44640, Note_on_c, 0, 71, 0
1, 44640, Note_on_c, 0, 76, 62
1, 44760, Note_on_c, 0, 71, 38
1, 44880, Tempo, 468128
1, 44880, Note_on_c, 0, 71, 0
1, 44880, Note_on_c, 0, 76, 0
1, 44880, Note_on_c, 0, 67, 38
1, 45000, Tempo, 466309
1, 45000, Note_on_c, 0, 67, 0
1, 45000, Note_on_c, 0, 62, 32
1, 45120, Tempo, 468128
1, 45120, Note_on_c, 0, 62, 0
1, 45120, Note_on_c, 0, 61, 50
1, 45133, Control_c, 0, 64, 0
1, 45210, Note_on_c, 0, 61, 0
1, 45212, Control_c, 0, 64, 127
1, 45240, Note_on_c, 0, 64, 36
1, 45360, Note_on_c, 0, 64, 0
1, 45360, Note_on_c, 0, 67, 39
1, 45480, Tempo, 532529
1, 45480, Note_on_c, 0, 67, 0
1, 45480, Note_on_c, 0, 69, 36
1, 45600, Tempo, 475549
1, 45600, Note_on_c, 0, 69, 0
1, 45600, Note_on_c, 0, 78, 62
1, 45720, Note_on_c, 0, 69, 40
1, 45840, Tempo, 464504
1, 45840, Note_on_c, 0, 69, 0
1, 45840, Note_on_c, 0, 78, 0
1, 45840, Note_on_c, 0, 67, 37
1, 45960, Note_on_c, 0, 67, 0
1, 45960, Note_on_c, 0, 64, 35
1, 46080, Tempo, 473410
1, 46080, Note_on_c, 0, 64, 0
1, 46080, Note_on_c, 0, 52, 0
1, 46080, Note_on_c, 0, 52, 43
1, 46089, Control_c, 0, 64, 0
1, 46130, Control_c, 0, 64, 127
1, 46200, Note_on_c, 0, 62, 37
1, 46320, Note_on_c, 0, 62, 0
1, 46320, Note_on_c, 0, 67, 40
1, 46440, Tempo, 497224
1, 46440, Note_on_c, 0, 67, 0
1, 46440, Note_on_c, 0, 71, 42
1, 46560, Tempo, 479731
1, 46560, Note_on_c, 0, 71, 0
1, 46560, Note_on_c, 0, 76, 63
1, 46680, Note_on_c, 0, 71, 38
1, 46800, Tempo, 468128
1, 46800, Note_on_c, 0, 71, 0
1, 46800, Note_on_c, 0, 76, 0
1, 46800, Note_on_c, 0, 67, 38
1, 46920, Tempo, 466309
1, 46920, Note_on_c, 0, 67, 0
1, 46920, Note_on_c, 0, 62, 32
1, 47040, Tempo, 468128
1, 47040, Note_on_c, 0, 62, 0
1, 47040, Note_on_c, 0, 52, 0
1, 47040, Note_on_c, 0, 61, 50
1, 47053, Control_c, 0, 64, 0
1, 47130, Note_on_c, 0, 61, 0
1, 47132, Control_c, 0, 64, 127
1, 47160, Note_on_c, 0, 64, 36
1, 47280, Note_on_c, 0, 64, 0
1, 47280, Note_on_c, 0, 67, 39
1, 47400, Tempo, 532529
1, 47400, Note_on_c, 0, 67, 0
1, 47400, Note_on_c, 0, 70, 36
1, 47520, Tempo, 475549
1, 47520, Note_on_c, 0, 70, 0
1, 47520, Note_on_c, 0, 78, 61
1, 47640, Note_on_c, 0, 70, 40
1, 47760, Tempo, 464504
1, 47760, Note_on_c, 0, 70, 0
1, 47760, Note_on_c, 0, 78, 0
1, 47760, Note_on_c, 0, 67, 37
1, 47880, Note_on_c, 0, 67, 0
1, 47880, Note_on_c, 0, 64, 35
1, 48000, Tempo, 473410
1, 48000, Note_on_c, 0, 64, 0
1, 48000, Note_on_c, 0, 59, 43
1, 48009, Control_c, 0, 64, 0
1, 48050, Control_c, 0, 64, 127
1, 48120, Note_on_c, 0, 64, 37
1, 48240, Note_on_c, 0, 64, 0
1, 48240, Note_on_c, 0, 67, 40
1, 48360, Tempo, 497224
1, 48360, Note_on_c, 0, 67, 0
1, 48360, Note_on_c, 0, 74, 42
1, 48480, Tempo, 479731
1, 48480, Note_on_c, 0, 74, 0
1, 48480, Note_on_c, 0, 78, 63
1, 48600, Note_on_c, 0, 74, 38
1, 48720, Tempo, 468128
1, 48720, Note_on_c, 0, 74, 0
1, 48720, Note_on_c, 0, 67, 38
1, 48840, Tempo, 466309
1, 48840, Note_on_c, 0, 67, 0
1, 48840, Note_on_c, 0, 64, 32
1, 48960, Tempo, 468128
1, 48960, Note_on_c, 0, 64, 0
1, 48960, Note_on_c, 0, 78, 0
1, 48960, Note_on_c, 0, 59, 0
1, 48960, Note_on_c, 0, 58, 50
1, 48973, Control_c, 0, 64, 0
1, 49052, Control_c, 0, 64, 127
1, 49080, Note_on_c, 0, 64, 36
1, 49200, Note_on_c, 0, 64, 0
1, 49200, Note_on_c, 0, 67, 39
1, 49320, Tempo, 532529
1, 49320, Note_on_c, 0, 67, 0
1, 49320, Note_on_c, 0, 73, 36
1, 49440, Tempo, 475549
1, 49440, Note_on_c, 0, 73, 0
1, 49440, Note_on_c, 0, 78, 63
1, 49560, Note_on_c, 0, 73, 40
1, 49680, Tempo, 464504
1, 49680, Note_on_c, 0, 73, 0
1, 49680, Note_on_c, 0, 67, 37
1, 49800, Note_on_c, 0, 67, 0
1, 49800, Note_on_c, 0, 64, 35
1, 49920, Tempo, 473410
1, 49920, Note_on_c, 0, 64, 0
1, 49920, Note_on_c, 0, 78, 0
1, 49920, Note_on_c, 0, 58, 0
1, 49920, Note_on_c, 0, 57, 43
1, 49929, Control_c, 0, 64, 0
1, 49970, Control_c, 0, 64, 127
1, 50040, Note_on_c, 0, 64, 37
1, 50160, Note_on_c, 0, 64, 0
1, 50160, Note_on_c, 0, 67, 40
1, 50280, Tempo, 497224
1, 50280, Note_on_c, 0, 67, 0
1, 50280, Note_on_c, 0, 72, 42
1, 50400, Tempo, 469962
1, 50400, Note_on_c, 0, 72, 0
1, 50400, Note_on_c, 0, 79, 63
1, 50520, Note_on_c, 0, 72, 38
1, 50640, Tempo, 468128
1, 50640, Note_on_c, 0, 72, 0
1, 50640, Note_on_c, 0, 67, 38
1, 50760, Tempo, 466309
1, 50760, Note_on_c, 0, 67, 0
1, 50760, Note_on_c, 0, 79, 0
1, 50760, Note_on_c, 0, 64, 32
1, 50880, Tempo, 468128
1, 50880, Note_on_c, 0, 64, 0
1, 50880, Note_on_c, 0, 78, 63
1, 51000, Note_on_c, 0, 72, 38
1, 51120, Tempo, 468128
1, 51120, Note_on_c, 0, 72, 0
1, 51120, Note_on_c, 0, 67, 38
1, 51240, Tempo, 466309
1, 51240, Note_on_c, 0, 67, 0
1, 51240, Note_on_c, 0, 78, 0
1, 51240, Note_on_c, 0, 64, 32
1, 51360, Note_on_c, 0, 64, 0
1, 51360, Note_on_c, 0, 76, 63
1, 51480, Note_on_c, 0, 72, 38
1, 51600, Note_on_c, 0, 72, 0
1, 51600, Note_on_c, 0, 67, 38
1, 51720, Tempo, 495172
1, 51720, Note_on_c, 0, 67, 0
1, 51720, Note_on_c, 0, 76, 0
1, 51720, Note_on_c, 0, 64, 32
1, 51840, Tempo, 473410
1, 51840, Note_on_c, 0, 64, 0
1, 51840, Note_on_c, 0, 57, 0
1, 51840, Note_on_c, 0, 58, 43
1, 51849, Control_c, 0, 64, 0
1, 51890, Control_c, 0, 64, 127
1, 51960, Note_on_c, 0, 64, 41
1, 52080, Note_on_c, 0, 64, 0
1, 52080, Note_on_c, 0, 67, 41
1, 52200, Tempo, 481271
1, 52200, Note_on_c, 0, 67, 0
1, 52200, Note_on_c, 0, 72, 45
1, 52320, Tempo, 469962
1, 52320, Note_on_c, 0, 72, 0
1, 52320, Note_on_c, 0, 74, 58
1, 52440, Note_on_c, 0, 72, 46
1, 52560, Tempo, 468128
1, 52560, Note_on_c, 0, 72, 0
1, 52560, Note_on_c, 0, 74, 0
1, 52560, Note_on_c, 0, 67, 54
1, 52560, Note_on_c, 0, 76, 54
1, 52680, Tempo, 512076
1, 52680, Note_on_c, 0, 67, 0
1, 52680, Note_on_c, 0, 64, 47
1, 52800, Tempo, 468128
1, 52800, Note_on_c, 0, 64, 0
1, 52800, Note_on_c, 0, 76, 0
1, 52800, Note_on_c, 0, 78, 63
1, 52920, Note_on_c, 0, 72, 51
1, 53040, Tempo, 468128
1, 53040, Note_on_c, 0, 72, 0
1, 53040, Note_on_c, 0, 67, 41
1, 53160, Tempo, 466309
1, 53160, Note_on_c, 0, 67, 0
1, 53160, Note_on_c, 0, 64, 32
1, 53400, Note_on_c, 0, 64, 0
1, 53400, Note_on_c, 0, 72, 41
1, 53520, Note_on_c, 0, 72, 0
1, 53520, Note_on_c, 0, 67, 41
1, 53640, Tempo, 495172
1, 53640, Note_on_c, 0, 67, 0
1, 53640, Note_on_c, 0, 64, 34
1, 53760, Tempo, 473410
1, 53760, Note_on_c, 0, 64, 0
1, 53760, Note_on_c, 0, 78, 0
1, 53760, Note_on_c, 0, 58, 0
1, 53760, Note_on_c, 0, 59, 49
1, 53769, Control_c, 0, 64, 0
1, 53810, Control_c, 0, 64, 127
1, 53880, Note_on_c, 0, 64, 41
1, 54000, Note_on_c, 0, 64, 0
1, 54000, Note_on_c, 0, 67, 41
1, 54120, Tempo, 481271
1, 54120, Note_on_c, 0, 67, 0
1, 54120, Note_on_c, 0, 71, 45
1, 54240, Tempo, 503905
1, 54240, Note_on_c, 0, 71, 0
1, 54240, Note_on_c, 0, 74, 58
1, 54360, Note_on_c, 0, 71, 46
1, 54480, Tempo, 528309
1, 54480, Note_on_c, 0, 71, 0
1, 54480, Note_on_c, 0, 74, 0
1, 54480, Note_on_c, 0, 67, 55
1, 54480, Note_on_c, 0, 76, 55
1, 54600, Tempo, 545108
1, 54600, Note_on_c, 0, 67, 0
1, 54600, Note_on_c, 0, 64, 47
1, 54720, Tempo, 468128
1, 54720, Note_on_c, 0, 64, 0
1, 54720, Note_on_c, 0, 76, 0
1, 54720, Note_on_c, 0, 78, 63
1, 54840, Note_on_c, 0, 71, 51
1, 54960, Tempo, 468128
1, 54960, Note_on_c, 0, 71, 0
1, 54960, Note_on_c, 0, 67, 41
1, 55080, Tempo, 466309
1, 55080, Note_on_c, 0, 67, 0
1, 55080, Note_on_c, 0, 64, 32
1, 55320, Note_on_c, 0, 64, 0
1, 55320, Note_on_c, 0, 71, 41
1, 55440, Note_on_c, 0, 71, 0
1, 55440, Note_on_c, 0, 67, 41
1, 55560, Tempo, 495172
1, 55560, Note_on_c, 0, 67, 0
1, 55560, Note_on_c, 0, 64, 34
1, 55680, Tempo, 473410
1, 55680, Note_on_c, 0, 64, 0
1, 55680, Note_on_c, 0, 78, 0
1, 55680, Note_on_c, 0, 59, 0
1, 55680, Note_on_c, 0, 60, 58
1, 55689, Control_c, 0, 64, 0
1, 55730, Control_c, 0, 64, 127
1, 55800, Note_on_c, 0, 64, 37
1, 55920, Note_on_c, 0, 64, 0
1, 55920, Note_on_c, 0, 67, 40
1, 56040, Tempo, 497224
1, 56040, Note_on_c, 0, 67, 0
1, 56040, Note_on_c, 0, 70, 42
1, 56160, Tempo, 469962
1, 56160, Note_on_c, 0, 70, 0
1, 56160, Note_on_c, 0, 74, 55
1, 56280, Note_on_c, 0, 70, 38
1, 56400, Tempo, 468128
1, 56400, Note_on_c, 0, 70, 0
1, 56400, Note_on_c, 0, 67, 38
1, 56520, Tempo, 466309
1, 56520, Note_on_c, 0, 67, 0
1, 56520, Note_on_c, 0, 74, 0
1, 56520, Note_on_c, 0, 64, 32
1, 56640, Tempo, 468128
1, 56640, Note_on_c, 0, 64, 0
1, 56640, Note_on_c, 0, 76, 57
1, 56760, Note_on_c, 0, 70, 37
1, 56880, Tempo, 468128
1, 56880, Note_on_c, 0, 70, 0
1, 56880, Note_on_c, 0, 67, 35
1, 57000, Tempo, 466309
1, 57000, Note_on_c, 0, 67, 0
1, 57000, Note_on_c, 0, 76, 0
1, 57000, Note_on_c, 0, 64, 32
1, 57120, Note_on_c, 0, 64, 0
1, 57120, Note_on_c, 0, 72, 53
1, 57240, Note_on_c, 0, 70, 38
1, 57360, Note_on_c, 0, 70, 0
1, 57360, Note_on_c, 0, 67, 38
1, 57480, Tempo, 534902
1, 57480, Note_on_c, 0, 67, 0
1, 57480, Note_on_c, 0, 72, 0
1, 57480, Note_on_c, 0, 64, 32
1, 57598, Tempo, 453961
1, 57600, Note_on_c, 0, 64, 0
1, 57600, Note_on_c, 0, 60, 0
1, 57600, Note_on_c, 0, 74, 41
1, 57600, Control_c, 0, 64, 0
1, 57692, Control_c, 0, 64, 127
1, 57720, Note_on_c, 0, 74, 0
1, 57720, Note_on_c, 0, 70, 41
1, 57770, Tempo, 455685
1, 57840, Note_on_c, 0, 70, 0
1, 57840, Note_on_c, 0, 69, 40
1, 57943, Tempo, 457422
1, 57960, Note_on_c, 0, 69, 0
1, 57960, Note_on_c, 0, 67, 40
1, 58080, Note_on_c, 0, 67, 0
1, 58080, Note_on_c, 0, 65, 39
1, 58116, Tempo, 459172
1, 58200, Note_on_c, 0, 65, 0
1, 58200, Note_on_c, 0, 64, 39
1, 58270, Tempo, 460936
1, 58320, Note_on_c, 0, 64, 0
1, 58320, Note_on_c, 0, 62, 39
1, 58440, Note_on_c, 0, 62, 0
1, 58440, Note_on_c, 0, 60, 38
1, 58442, Tempo, 462713
1, 58560, Note_on_c, 0, 60, 0
1, 58560, Note_on_c, 0, 62, 38
1, 58615, Tempo, 464504
1, 58680, Note_on_c, 0, 62, 0
1, 58680, Note_on_c, 0, 58, 37
1, 58788, Tempo, 466309
1, 58800, Note_on_c, 0, 58, 0
1, 58800, Note_on_c, 0, 57, 35
1, 58920, Note_on_c, 0, 57, 0
1, 58920, Note_on_c, 0, 55, 31
1, 58942, Tempo, 468128
1, 59040, Note_on_c, 0, 55, 0
1, 59040, Note_on_c, 0, 53, 37
1, 59114, Tempo, 469962
1, 59160, Note_on_c, 0, 53, 0
1, 59160, Note_on_c, 0, 52, 34
1, 59280, Note_on_c, 0, 52, 0
1, 59280, Note_on_c, 0, 50, 34
1, 59287, Tempo, 471809
1, 59400, Note_on_c, 0, 50, 0
1, 59400, Note_on_c, 0, 48, 34
1, 59441, Tempo, 473672
1, 59479, Tempo, 471809
1, 59520, Note_on_c, 0, 48, 0
1, 59520, Note_on_c, 0, 46, 33
1, 59537, Tempo, 473672
1, 59594, Tempo, 475549
1, 59640, Note_on_c, 0, 46, 0
1, 59640, Note_on_c, 0, 45, 33
1, 59652, Tempo, 477441
1, 59710, Tempo, 479348
1, 59748, Tempo, 481271
1, 59760, Note_on_c, 0, 45, 0
1, 59760, Note_on_c, 0, 43, 33
1, 59806, Tempo, 483209
1, 59863, Tempo, 485162
1, 59880, Note_on_c, 0, 43, 0
1, 59880, Note_on_c, 0, 41, 33
1, 59921, Tempo, 487132
1, 59978, Tempo, 489117
1, 60000, Tempo, 567269
1, 60000, Note_on_c, 0, 41, 0
1, 60000, Note_on_c, 0, 62, 38
1, 60000, Note_on_c, 0, 40, 31
1, 60007, Control_c, 0, 64, 0
1, 60086, Control_c, 0, 64, 127
1, 60120, Note_on_c, 0, 58, 30
1, 60240, Tempo, 581001
1, 60240, Note_on_c, 0, 58, 0
1, 60240, Note_on_c, 0, 55, 30
1, 60360, Note_on_c, 0, 55, 0
1, 60360, Note_on_c, 0, 58, 30
1, 60480, Tempo, 556741
1, 60480, Note_on_c, 0, 58, 0
1, 60480, Note_on_c, 0, 40, 0
1, 60480, Note_on_c, 0, 62, 0
1, 60480, Note_on_c, 0, 64, 38
1, 60480, Note_on_c, 0, 38, 35
1, 60492, Control_c, 0, 64, 0
1, 60572, Control_c, 0, 64, 127
1, 60600, Note_on_c, 0, 58, 31
1, 60720, Note_on_c, 0, 58, 0
1, 60720, Note_on_c, 0, 55, 31
1, 60840, Note_on_c, 0, 55, 0
1, 60840, Note_on_c, 0, 58, 31
1, 60960, Tempo, 565131
1, 60960, Note_on_c, 0, 58, 0
1, 60960, Note_on_c, 0, 38, 0
1, 60960, Note_on_c, 0, 64, 0
1, 60960, Note_on_c, 0, 60, 39
1, 60960, Note_on_c, 0, 36, 29
1, 60968, Control_c, 0, 64, 0
1, 60976, Tempo, 540492
1, 60979, Tempo, 556741
1, 60998, Tempo, 559336
1, 61017, Tempo, 561956
1, 61037, Tempo, 564600
1, 61056, Tempo, 567269
1, 61057, Control_c, 0, 64, 127
1, 61075, Tempo, 569963
1, 61080, Note_on_c, 0, 58, 32
1, 61094, Tempo, 572683
1, 61113, Tempo, 575429
1, 61133, Tempo, 578202
1, 61152, Tempo, 581001
1, 61171, Tempo, 583828
1, 61190, Tempo, 586682
1, 61200, Note_on_c, 0, 58, 0
1, 61200, Note_on_c, 0, 55, 32
1, 61209, Tempo, 589565
1, 61229, Tempo, 592476
1, 61248, Tempo, 595415
1, 61267, Tempo, 598384
1, 61286, Tempo, 601383
1, 61320, Tempo, 724900
1, 61320, Note_on_c, 0, 55, 0
1, 61320, Note_on_c, 0, 58, 32
1, 61440, Key_signature, -2, "major"
1, 61440, Tempo, 606244
1, 61440, Note_on_c, 0, 58, 0
1, 61440, Note_on_c, 0, 36, 0
1, 61440, Note_on_c, 0, 60, 0
1, 61440, Note_on_c, 0, 34, 26
1, 61467, Control_c, 0, 64, 0
1, 61610, Control_c, 0, 64, 127
1, 61680, Note_on_c, 0, 53, 25
1, 61920, Note_on_c, 0, 53, 0
1, 61920, Note_on_c, 0, 58, 25
1, 62160, Note_on_c, 0, 58, 0
1, 62160, Note_on_c, 0, 60, 29
1, 62400, Tempo, 574328
1, 62400, Note_on_c, 0, 60, 0
1, 62400, Note_on_c, 0, 62, 32
1, 62408, Control_c, 0, 64, 0
1, 62598, Control_c, 0, 64, 127
1, 62640, Tempo, 603197
1, 62640, Note_on_c, 0, 65, 25
1, 62880, Note_on_c, 0, 65, 0
1, 62880, Note_on_c, 0, 62, 0
1, 62880, Note_on_c, 0, 70, 29
1, 63120, Note_on_c, 0, 70, 0
1, 63120, Note_on_c, 0, 72, 32
1, 63360, Tempo, 574328
1, 63360, Note_on_c, 0, 72, 0
1, 63360, Note_on_c, 0, 74, 37
1, 63380, Control_c, 0, 64, 0
1, 63572, Control_c, 0, 64, 127
1, 63600, Tempo, 597193
1, 63600, Note_on_c, 0, 53, 25
1, 63840, Note_on_c, 0, 53, 0
1, 63840, Note_on_c, 0, 74, 0
1, 63840, Note_on_c, 0, 58, 25
1, 64080, Note_on_c, 0, 58, 0
1, 64080, Note_on_c, 0, 62, 29
1, 64320, Tempo, 568882
1, 64320, Note_on_c, 0, 62, 0
1, 64320, Note_on_c, 0, 60, 33
1, 64334, Control_c, 0, 64, 0
1, 64476, Control_c, 0, 64, 127
1, 64560, Tempo, 600180
1, 64560, Note_on_c, 0, 60, 0
1, 64560, Note_on_c, 0, 54, 32
1, 64800, Tempo, 597193
1, 64800, Note_on_c, 0, 58, 32
1, 65040, Note_on_c, 0, 60, 31
1, 65280, Note_on_c, 0, 34, 0
1, 65280, Note_on_c, 0, 63, 33
1, 65280, Note_on_c, 0, 34, 26
1, 66240, Tempo, 577090
1, 66240, Note_on_c, 0, 34, 0
1, 66240, Note_on_c, 0, 39, 23
1, 66720, Note_on_c, 0, 39, 0
1, 66720, Note_on_c, 0, 34, 26
1, 67200, Tempo, 596007
1, 67680, Note_on_c, 0, 34, 0
1, 67680, Note_on_c, 0, 39, 22
1, 68640, Tempo, 824516
1, 68640, Note_on_c, 0, 39, 0
1, 68640, Note_on_c, 0, 34, 23
1, 69120, Key_signature, -5, "major"
1, 69120, Tempo, 549099
1, 69120, Note_on_c, 0, 34, 0
1, 69120, Note_on_c, 0, 54, 0
1, 69120, Note_on_c, 0, 60, 0
1, 69120, Note_on_c, 0, 58, 0
1, 69120, Note_on_c, 0, 63, 0
1, 69134, Note_on_c, 0, 32, 26
1, 69147, Control_c, 0, 64, 0
1, 69290, Control_c, 0, 64, 127
1, 69360, Tempo, 503060
1, 69360, Note_on_c, 0, 51, 22
1, 69600, Tempo, 486736
1, 69600, Note_on_c, 0, 51, 0
1, 69600, Note_on_c, 0, 56, 22
1, 69840, Note_on_c, 0, 56, 0
1, 69840, Note_on_c, 0, 58, 26
1, 70080, Note_on_c, 0, 58, 0
1, 70080, Note_on_c, 0, 60, 33
1, 70320, Note_on_c, 0, 60, 0
1, 70320, Note_on_c, 0, 51, 28
1, 70560, Note_on_c, 0, 51, 0
1, 70560, Note_on_c, 0, 56, 28
1, 70800, Tempo, 534426
1, 70800, Note_on_c, 0, 56, 0
1, 70800, Note_on_c, 0, 60, 28
1, 71040, Tempo, 486736
1, 71040, Note_on_c, 0, 60, 0
1, 71040, Note_on_c, 0, 58, 31
1, 71040, Control_c, 0, 64, 0
1, 71252, Control_c, 0, 64, 127
1, 71280, Tempo, 516040
1, 71280, Note_on_c, 0, 58, 0
1, 71280, Note_on_c, 0, 51, 28
1, 71520, Tempo, 480885
1, 71520, Note_on_c, 0, 51, 0
1, 71520, Note_on_c, 0, 54, 28
1, 71520, Note_on_c, 0, 70, 41
1, 71520, Note_on_c, 0, 66, 41
1, 71760, Note_on_c, 0, 54, 0
1, 71760, Note_on_c, 0, 58, 28
1, 72000, Note_on_c, 0, 58, 0
1, 72000, Note_on_c, 0, 61, 33
1, 72017, Control_c, 0, 64, 0
1, 72141, Control_c, 0, 64, 127
1, 72240, Note_on_c, 0, 61, 0
1, 72240, Note_on_c, 0, 51, 28
1, 72480, Note_on_c, 0, 51, 0
1, 72480, Note_on_c, 0, 66, 0
1, 72480, Note_on_c, 0, 70, 0
1, 72480, Note_on_c, 0, 54, 28
1, 72480, Note_on_c, 0, 68, 35
1, 72480, Note_on_c, 0, 65, 35
1, 72720, Tempo, 511640
1, 72720, Note_on_c, 0, 54, 0
1, 72720, Note_on_c, 0, 61, 28
1, 72960, Tempo, 549099
1, 72960, Note_on_c, 0, 61, 0
1, 72960, Note_on_c, 0, 65, 0
1, 72960, Note_on_c, 0, 68, 0
1, 72974, Note_on_c, 0, 32, 0
1, 72974, Note_on_c, 0, 32, 26
1, 72987, Control_c, 0, 64, 0
1, 73130, Control_c, 0, 64, 127
1, 73200, Tempo, 503060
1, 73200, Note_on_c, 0, 51, 22
1, 73440, Tempo, 486736
1, 73440, Note_on_c, 0, 51, 0
1, 73440, Note_on_c, 0, 56, 22
1, 73680, Note_on_c, 0, 56, 0
1, 73680, Note_on_c, 0, 58, 26
1, 73920, Note_on_c, 0, 58, 0
1, 73920, Note_on_c, 0, 60, 33
1, 73920, Note_on_c, 0, 63, 41
1, 73920, Note_on_c, 0, 66, 41
1, 74160, Note_on_c, 0, 60, 0
1, 74160, Note_on_c, 0, 51, 28
1, 74400, Note_on_c, 0, 51, 0
1, 74400, Note_on_c, 0, 56, 28
1, 74640, Tempo, 534426
1, 74640, Note_on_c, 0, 56, 0
1, 74640, Note_on_c, 0, 60, 28
1, 74880, Tempo, 486736
1, 74880, Note_on_c, 0, 60, 0
1, 74880, Note_on_c, 0, 66, 0
1, 74880, Note_on_c, 0, 63, 0
1, 74880, Note_on_c, 0, 58, 31
1, 74880, Control_c, 0, 64, 0
1, 75092, Control_c, 0, 64, 127
1, 75120, Tempo, 516040
1, 75120, Note_on_c, 0, 58, 0
1, 75120, Note_on_c, 0, 51, 28
1, 75360, Tempo, 480885
1, 75360, Note_on_c, 0, 51, 0
1, 75360, Note_on_c, 0, 54, 28
1, 75360, Note_on_c, 0, 70, 41
1, 75360, Note_on_c, 0, 66, 41
1, 75600, Note_on_c, 0, 54, 0
1, 75600, Note_on_c, 0, 58, 28
1, 75840, Note_on_c, 0, 58, 0
1, 75840, Note_on_c, 0, 61, 33
1, 75857, Control_c, 0, 64, 0
1, 75981, Control_c, 0, 64, 127
1, 76080, Note_on_c, 0, 61, 0
1, 76080, Note_on_c, 0, 51, 28
1, 76320, Note_on_c, 0, 51, 0
1, 76320, Note_on_c, 0, 66, 0
1, 76320, Note_on_c, 0, 70, 0
1, 76320, Note_on_c, 0, 54, 28
1, 76320, Note_on_c, 0, 68, 35
1, 76320, Note_on_c, 0, 65, 35
1, 76560, Tempo, 511640
1, 76560, Note_on_c, 0, 54, 0
1, 76560, Note_on_c, 0, 61, 28
1, 76800, Tempo, 549099
1, 76800, Note_on_c, 0, 61, 0
1, 76800, Note_on_c, 0, 65, 0
1, 76800, Note_on_c, 0, 68, 0
1, 76814, Note_on_c, 0, 32, 0
1, 76814, Note_on_c, 0, 32, 26
1, 76827, Control_c, 0, 64, 0
1, 77026, Control_c, 0, 64, 127
1, 77040, Tempo, 503060
1, 77040, Note_on_c, 0, 54, 22
1, 77280, Tempo, 486736
1, 77280, Note_on_c, 0, 54, 0
1, 77280, Note_on_c, 0, 60, 22
1, 77520, Note_on_c, 0, 60, 0
1, 77520, Note_on_c, 0, 61, 26
1, 77760, Tempo, 475172
1, 77760, Note_on_c, 0, 61, 0
1, 77760, Note_on_c, 0, 63, 33
1, 78000, Note_on_c, 0, 63, 0
1, 78000, Note_on_c, 0, 54, 29
1, 78240, Note_on_c, 0, 54, 0
1, 78240, Note_on_c, 0, 60, 29
1, 78480, Note_on_c, 0, 60, 0
1, 78480, Note_on_c, 0, 63, 29
1, 78720, Tempo, 460582
1, 78720, Note_on_c, 0, 63, 0
1, 78720, Note_on_c, 0, 61, 41
1, 78727, Control_c, 0, 64, 0
1, 78918, Control_c, 0, 64, 127
1, 78960, Note_on_c, 0, 61, 0
1, 78960, Note_on_c, 0, 54, 34
1, 79200, Note_on_c, 0, 54, 0
1, 79200, Note_on_c, 0, 58, 34
1, 79440, Note_on_c, 0, 58, 0
1, 79440, Note_on_c, 0, 61, 41
1, 79680, Note_on_c, 0, 61, 0
1, 79680, Note_on_c, 0, 65, 31
1, 79920, Note_on_c, 0, 65, 0
1, 79920, Note_on_c, 0, 54, 37
1, 80160, Note_on_c, 0, 54, 0
1, 80160, Note_on_c, 0, 58, 43
1, 80400, Tempo, 534426
1, 80400, Note_on_c, 0, 58, 0
1, 80400, Note_on_c, 0, 65, 49
1, 80640, Tempo, 458821
1, 80640, Note_on_c, 0, 68, 60
1, 80646, Control_c, 0, 64, 0
1, 80781, Control_c, 0, 64, 127
1, 80880, Tempo, 503060
1, 80880, Note_on_c, 0, 65, 0
1, 80880, Note_on_c, 0, 54, 29
1, 81000, Tempo, 460582
1, 81120, Note_on_c, 0, 54, 0
1, 81120, Note_on_c, 0, 60, 29
1, 81360, Note_on_c, 0, 60, 0
1, 81360, Note_on_c, 0, 61, 29
1, 81600, Note_on_c, 0, 61, 0
1, 81600, Note_on_c, 0, 63, 35
1, 81840, Note_on_c, 0, 63, 0
1, 81840, Note_on_c, 0, 54, 27
1, 82080, Note_on_c, 0, 54, 0
1, 82080, Note_on_c, 0, 60, 27
1, 82320, Tempo, 482820
1, 82320, Note_on_c, 0, 60, 0
1, 82320, Note_on_c, 0, 63, 26
1, 82560, Tempo, 464145
1, 82560, Note_on_c, 0, 63, 0
1, 82560, Note_on_c, 0, 68, 0
1, 82560, Note_on_c, 0, 61, 30
1, 82560, Note_on_c, 0, 51, 27
1, 82566, Control_c, 0, 64, 0
1, 82758, Control_c, 0, 64, 127
1, 82800, Note_on_c, 0, 61, 0
1, 82800, Note_on_c, 0, 54, 25
1, 83040, Note_on_c, 0, 54, 0
1, 83040, Note_on_c, 0, 58, 24
1, 83280, Note_on_c, 0, 58, 0
1, 83280, Note_on_c, 0, 61, 24
1, 83330, Tempo, 490717
1, 83407, Tempo, 492732
1, 83465, Tempo, 494764
1, 83520, Note_on_c, 0, 61, 0
1, 83520, Note_on_c, 0, 51, 0
1, 83520, Note_on_c, 0, 65, 30
1, 83520, Note_on_c, 0, 44, 26
1, 83522, Tempo, 496812
1, 83561, Tempo, 498878
1, 83599, Tempo, 500960
1, 83637, Tempo, 503060
1, 83676, Tempo, 505178
1, 83714, Tempo, 539229
1, 83753, Tempo, 541663
1, 83760, Note_on_c, 0, 65, 0
1, 83760, Note_on_c, 0, 54, 23
1, 83772, Tempo, 544119
1, 83810, Tempo, 546597
1, 83829, Tempo, 549099
1, 83868, Tempo, 551623
1, 83887, Tempo, 554170
1, 83925, Tempo, 556741
1, 83945, Tempo, 559336
1, 83983, Tempo, 561956
1, 84000, Note_on_c, 0, 54, 0
1, 84000, Note_on_c, 0, 58, 23
1, 84002, Tempo, 564600
1, 84041, Tempo, 567269
1, 84060, Tempo, 569963
1, 84098, Tempo, 572683
1, 84117, Tempo, 575429
1, 84156, Tempo, 578202
1, 84175, Tempo, 581001
1, 84213, Tempo, 583828
1, 84233, Tempo, 586682
1, 84240, Note_on_c, 0, 58, 0
1, 84240, Note_on_c, 0, 65, 22
1, 84271, Tempo, 589565
1, 84290, Tempo, 592476
1, 84329, Tempo, 595415
1, 84348, Tempo, 598384
1, 84386, Tempo, 601383
1, 84405, Tempo, 604412
1, 84444, Tempo, 607472
1, 84463, Tempo, 610563
1, 84480, Key_signature, 0, "major"
1, 84480, Tempo, 467654
1, 84480, Note_on_c, 0, 65, 0
1, 84480, Note_on_c, 0, 44, 0
1, 84480, Note_on_c, 0, 31, 24
1, 84480, Note_on_c, 0, 43, 28
1, 84490, Control_c, 0, 64, 0
1, 84494, Note_on_c, 0, 32, 0
1, 84579, Control_c, 0, 64, 127
1, 84600, Tempo, 517286
1, 84600, Note_on_c, 0, 55, 25
1, 84691, Tempo, 485437
1, 84720, Tempo, 500042
1, 84720, Note_on_c, 0, 55, 0
1, 84720, Note_on_c, 0, 60, 26
1, 84840, Note_on_c, 0, 60, 0
1, 84840, Note_on_c, 0, 62, 24
1, 84960, Note_on_c, 0, 62, 0
1, 84960, Note_on_c, 0, 64, 29
1, 85075, Tempo, 485437
1, 85080, Note_on_c, 0, 64, 0
1, 85080, Note_on_c, 0, 55, 27
1, 85081, Tempo, 497967
1, 85119, Tempo, 495909
1, 85138, Tempo, 493868
1, 85157, Tempo, 491844
1, 85196, Tempo, 489836
1, 85200, Note_on_c, 0, 55, 0
1, 85200, Note_on_c, 0, 60, 27
1, 85215, Tempo, 487845
1, 85234, Tempo, 485869
1, 85253, Tempo, 483910
1, 85292, Tempo, 481966
1, 85311, Tempo, 480038
1, 85320, Note_on_c, 0, 60, 0
1, 85320, Note_on_c, 0, 64, 26
1, 85330, Tempo, 478126
1, 85349, Tempo, 476228
1, 85388, Tempo, 474346
1, 85407, Tempo, 472478
1, 85426, Tempo, 470625
1, 85440, Note_on_c, 0, 64, 0
1, 85440, Note_on_c, 0, 62, 31
1, 85445, Tempo, 468787
1, 85454, Control_c, 0, 64, 0
1, 85497, Control_c, 0, 64, 127
1, 85560, Note_on_c, 0, 62, 0
1, 85560, Note_on_c, 0, 53, 29
1, 85680, Note_on_c, 0, 53, 0
1, 85680, Note_on_c, 0, 60, 30
1, 85800, Note_on_c, 0, 60, 0
1, 85800, Note_on_c, 0, 62, 27
1, 85920, Tempo, 461396
1, 85920, Note_on_c, 0, 62, 0
1, 85920, Note_on_c, 0, 65, 34
1, 85930, Control_c, 0, 64, 0
1, 85966, Control_c, 0, 64, 127
1, 86040, Note_on_c, 0, 65, 0
1, 86040, Note_on_c, 0, 57, 31
1, 86160, Note_on_c, 0, 57, 0
1, 86160, Note_on_c, 0, 59, 32
1, 86280, Note_on_c, 0, 59, 0
1, 86280, Note_on_c, 0, 65, 30
1, 86400, Tempo, 453275
1, 86400, Note_on_c, 0, 65, 0
1, 86400, Note_on_c, 0, 64, 37
1, 86415, Control_c, 0, 64, 0
1, 86478, Control_c, 0, 64, 127
1, 86520, Note_on_c, 0, 64, 0
1, 86520, Note_on_c, 0, 55, 34
1, 86640, Note_on_c, 0, 55, 0
1, 86640, Note_on_c, 0, 60, 34
1, 86760, Note_on_c, 0, 60, 0
1, 86760, Note_on_c, 0, 64, 32
1, 86880, Note_on_c, 0, 64, 0
1, 86880, Note_on_c, 0, 67, 37
1, 87000, Note_on_c, 0, 67, 0
1, 87000, Note_on_c, 0, 59, 34
1, 87120, Note_on_c, 0, 59, 0
1, 87120, Note_on_c, 0, 60, 34
1, 87240, Note_on_c, 0, 60, 0
1, 87240, Note_on_c, 0, 67, 32
1, 87360, Note_on_c, 0, 67, 0
1, 87360, Note_on_c, 0, 65, 38
1, 87372, Control_c, 0, 64, 0
1, 87459, Control_c, 0, 64, 127
1, 87480, Note_on_c, 0, 65, 0
1, 87480, Note_on_c, 0, 57, 35
1, 87600, Note_on_c, 0, 57, 0
1, 87600, Note_on_c, 0, 60, 35
1, 87720, Tempo, 480692
1, 87720, Note_on_c, 0, 60, 0
1, 87720, Note_on_c, 0, 65, 32
1, 87840, Tempo, 475172
1, 87840, Note_on_c, 0, 65, 0
1, 87840, Note_on_c, 0, 69, 38
1, 87858, Control_c, 0, 64, 0
1, 87911, Control_c, 0, 64, 127
1, 87960, Note_on_c, 0, 69, 0
1, 87960, Note_on_c, 0, 59, 35
1, 88080, Note_on_c, 0, 59, 0
1, 88080, Note_on_c, 0, 65, 35
1, 88200, Note_on_c, 0, 65, 0
1, 88200, Note_on_c, 0, 69, 32
1, 88320, Tempo, 453618
1, 88320, Note_on_c, 0, 69, 0
1, 88320, Note_on_c, 0, 31, 0
1, 88320, Note_on_c, 0, 67, 42
1, 88320, Note_on_c, 0, 36, 28
1, 88329, Control_c, 0, 64, 0
1, 88370, Control_c, 0, 64, 127
1, 88440, Note_on_c, 0, 67, 0
1, 88440, Note_on_c, 0, 60, 36
1, 88560, Note_on_c, 0, 60, 0
1, 88560, Note_on_c, 0, 64, 36
1, 88680, Tempo, 516751
1, 88680, Note_on_c, 0, 64, 0
1, 88680, Note_on_c, 0, 67, 30
1, 88800, Tempo, 459313
1, 88800, Note_on_c, 0, 67, 0
1, 88800, Note_on_c, 0, 36, 0
1, 88800, Note_on_c, 0, 43, 0
1, 88800, Note_on_c, 0, 72, 50
1, 88800, Note_on_c, 0, 60, 35
1, 88814, Control_c, 0, 64, 0
1, 88867, Control_c, 0, 64, 127
1, 88920, Note_on_c, 0, 64, 38
1, 88980, Note_on_c, 0, 72, 0
1, 89040, Note_on_c, 0, 64, 0
1, 89040, Note_on_c, 0, 67, 38
1, 89160, Note_on_c, 0, 67, 0
1, 89160, Note_on_c, 0, 72, 32
1, 89280, Tempo, 453275
1, 89280, Note_on_c, 0, 72, 0
1, 89280, Note_on_c, 0, 74, 53
1, 89280, Note_on_c, 0, 59, 29
1, 89291, Control_c, 0, 64, 0
1, 89333, Control_c, 0, 64, 127
1, 89400, Note_on_c, 0, 64, 42
1, 89460, Note_on_c, 0, 74, 0
1, 89520, Note_on_c, 0, 64, 0
1, 89520, Note_on_c, 0, 67, 42
1, 89640, Note_on_c, 0, 67, 0
1, 89640, Note_on_c, 0, 74, 35
1, 89760, Note_on_c, 0, 74, 0
1, 89760, Note_on_c, 0, 59, 0
1, 89760, Note_on_c, 0, 72, 52
1, 89760, Note_on_c, 0, 57, 29
1, 89771, Control_c, 0, 64, 0
1, 89838, Control_c, 0, 64, 127
1, 89880, Note_on_c, 0, 64, 41
1, 89940, Note_on_c, 0, 72, 0
1, 90000, Note_on_c, 0, 64, 0
1, 90000, Note_on_c, 0, 67, 41
1, 90120, Note_on_c, 0, 67, 0
1, 90120, Note_on_c, 0, 72, 38
1, 90240, Note_on_c, 0, 72, 0
1, 90240, Note_on_c, 0, 57, 0
1, 90240, Note_on_c, 0, 71, 47
1, 90240, Note_on_c, 0, 59, 29
1, 90240, Control_c, 0, 64, 0
1, 90304, Control_c, 0, 64, 127
1, 90360, Note_on_c, 0, 64, 38
1, 90420, Note_on_c, 0, 71, 0
1, 90480, Note_on_c, 0, 64, 0
1, 90480, Note_on_c, 0, 67, 38
1, 90600, Note_on_c, 0, 67, 0
1, 90600, Note_on_c, 0, 71, 27
1, 90720, Note_on_c, 0, 71, 0
1, 90720, Note_on_c, 0, 59, 0
1, 90720, Note_on_c, 0, 60, 0
1, 90720, Note_on_c, 0, 69, 47
1, 90720, Note_on_c, 0, 60, 28
1, 90726, Control_c, 0, 64, 0
1, 90794, Control_c, 0, 64, 127
1, 90840, Note_on_c, 0, 64, 35
1, 90900, Note_on_c, 0, 69, 0
1, 90960, Note_on_c, 0, 64, 0
1, 90960, Note_on_c, 0, 67, 35
1, 91080, Note_on_c, 0, 67, 0
1, 91080, Note_on_c, 0, 69, 27
1, 91200, Note_on_c, 0, 69, 0
1, 91200, Note_on_c, 0, 60, 0
1, 91200, Note_on_c, 0, 67, 45
1, 91200, Note_on_c, 0, 59, 28
1, 91211, Control_c, 0, 64, 0
1, 91278, Control_c, 0, 64, 127
1, 91320, Note_on_c, 0, 60, 35
1, 91380, Note_on_c, 0, 67, 0
1, 91440, Note_on_c, 0, 60, 0
1, 91440, Note_on_c, 0, 64, 35
1, 91560, Note_on_c, 0, 64, 0
1, 91560, Note_on_c, 0, 67, 27
1, 91680, Note_on_c, 0, 67, 0
1, 91680, Note_on_c, 0, 59, 0
1, 91680, Note_on_c, 0, 65, 46
1, 91680, Note_on_c, 0, 57, 28
1, 91698, Control_c, 0, 64, 0
1, 91761, Control_c, 0, 64, 127
1, 91800, Note_on_c, 0, 60, 35
1, 91860, Note_on_c, 0, 65, 0
1, 91920, Note_on_c, 0, 60, 0
1, 91920, Note_on_c, 0, 64, 35
1, 92040, Note_on_c, 0, 64, 0
1, 92040, Note_on_c, 0, 65, 27
1, 92160, Tempo, 455270
1, 92160, Note_on_c, 0, 65, 0
1, 92160, Note_on_c, 0, 57, 0
1, 92160, Note_on_c, 0, 64, 41
1, 92160, Note_on_c, 0, 55, 29
1, 92163, Control_c, 0, 64, 0
1, 92252, Control_c, 0, 64, 127
1, 92280, Note_on_c, 0, 57, 32
1, 92400, Note_on_c, 0, 57, 0
1, 92400, Note_on_c, 0, 60, 32
1, 92510, Note_on_c, 0, 64, 0
1, 92520, Note_on_c, 0, 60, 0
1, 92520, Note_on_c, 0, 64, 27
1, 92640, Note_on_c, 0, 64, 0
1, 92640, Note_on_c, 0, 55, 0
1, 92640, Note_on_c, 0, 62, 35
1, 92640, Note_on_c, 0, 53, 27
1, 92660, Control_c, 0, 64, 0
1, 92739, Control_c, 0, 64, 127
1, 92760, Note_on_c, 0, 57, 32
1, 92880, Note_on_c, 0, 57, 0
1, 92880, Note_on_c, 0, 60, 32
1, 92990, Note_on_c, 0, 62, 0
1, 93000, Tempo, 494519
1, 93000, Note_on_c, 0, 60, 0
1, 93000, Note_on_c, 0, 62, 27
1, 93120, Tempo, 453275
1, 93120, Note_on_c, 0, 62, 0
1, 93120, Note_on_c, 0, 53, 0
1, 93120, Note_on_c, 0, 67, 41
1, 93120, Note_on_c, 0, 52, 27
1, 93141, Control_c, 0, 64, 0
1, 93240, Note_on_c, 0, 59, 32
1, 93240, Control_c, 0, 64, 127
1, 93360, Note_on_c, 0, 59, 0
1, 93360, Note_on_c, 0, 64, 32
1, 93470, Note_on_c, 0, 67, 0
1, 93480, Tempo, 533570
1, 93480, Note_on_c, 0, 64, 0
1, 93480, Note_on_c, 0, 67, 33
1, 93600, Note_on_c, 0, 67, 0
1, 93600, Note_on_c, 0, 52, 0
1, 93600, Note_on_c, 0, 69, 47
1, 93600, Note_on_c, 0, 57, 27
1, 93607, Tempo, 520517
1, 93608, Tempo, 494764
1, 93621, Control_c, 0, 64, 0
1, 93627, Tempo, 496812
1, 93646, Tempo, 498878
1, 93666, Tempo, 503060
1, 93685, Tempo, 505178
1, 93704, Tempo, 509468
1, 93713, Control_c, 0, 64, 127
1, 93720, Note_on_c, 0, 60, 37
1, 93723, Tempo, 511640
1, 93742, Tempo, 516040
1, 93762, Tempo, 518269
1, 93781, Tempo, 522785
1, 93800, Tempo, 525072
1, 93819, Tempo, 529708
1, 93838, Tempo, 532056
1, 93840, Note_on_c, 0, 60, 0
1, 93840, Note_on_c, 0, 64, 32
1, 93858, Tempo, 536817
1, 93877, Tempo, 539229
1, 93896, Tempo, 544119
1, 93915, Tempo, 546597
1, 93934, Tempo, 551623
1, 93950, Note_on_c, 0, 69, 0
1, 93954, Tempo, 554170
1, 93960, Note_on_c, 0, 64, 0
1, 93960, Note_on_c, 0, 69, 27
1, 93973, Tempo, 559336
1, 93992, Tempo, 561956
1, 94011, Tempo, 567269
1, 94030, Tempo, 569963
1, 94050, Tempo, 575429
1, 94068, Tempo, 581001
1, 94080, Tempo, 516040
1, 94080, Note_on_c, 0, 69, 0
1, 94080, Note_on_c, 0, 57, 0
1, 94080, Note_on_c, 0, 64, 40
1, 94080, Note_on_c, 0, 55, 29
1, 94088, Control_c, 0, 64, 0
1, 94165, Control_c, 0, 64, 127
1, 94200, Note_on_c, 0, 57, 32
1, 94320, Tempo, 453618
1, 94320, Note_on_c, 0, 57, 0
1, 94320, Note_on_c, 0, 60, 32
1, 94430, Note_on_c, 0, 64, 0
1, 94440, Note_on_c, 0, 60, 0
1, 94440, Note_on_c, 0, 64, 27
1, 94560, Note_on_c, 0, 64, 0
1, 94560, Note_on_c, 0, 55, 0
1, 94560, Note_on_c, 0, 62, 39
1, 94560, Note_on_c, 0, 53, 27
1, 94570, Control_c, 0, 64, 0
1, 94645, Control_c, 0, 64, 127
1, 94680, Note_on_c, 0, 57, 32
1, 94800, Note_on_c, 0, 57, 0
1, 94800, Note_on_c, 0, 60, 32
1, 94910, Note_on_c, 0, 62, 0
1, 94920, Note_on_c, 0, 60, 0
1, 94920, Note_on_c, 0, 62, 27
1, 95040, Tempo, 457317
1, 95040, Note_on_c, 0, 62, 0
1, 95040, Note_on_c, 0, 53, 0
1, 95040, Note_on_c, 0, 60, 35
1, 95040, Note_on_c, 0, 52, 27
1, 95057, Control_c, 0, 64, 0
1, 95139, Control_c, 0, 64, 127
1, 95160, Note_on_c, 0, 55, 32
1, 95280, Note_on_c, 0, 55, 0
1, 95280, Note_on_c, 0, 57, 32
1, 95390, Note_on_c, 0, 60, 0
1, 95400, Note_on_c, 0, 57, 0
1, 95400, Note_on_c, 0, 60, 27
1, 95520, Tempo, 465549
1, 95520, Note_on_c, 0, 60, 0
1, 95520, Note_on_c, 0, 52, 0
1, 95520, Note_on_c, 0, 59, 35
1, 95520, Note_on_c, 0, 50, 27
1, 95528, Control_c, 0, 64, 0
1, 95619, Control_c, 0, 64, 127
1, 95640, Note_on_c, 0, 53, 32
1, 95760, Note_on_c, 0, 53, 0
1, 95760, Note_on_c, 0, 55, 32
1, 95870, Note_on_c, 0, 59, 0
1, 95880, Note_on_c, 0, 55, 0
1, 95880, Note_on_c, 0, 59, 27
1, 96000, Tempo, 516751
1, 96000, Note_on_c, 0, 59, 0
1, 96000, Note_on_c, 0, 50, 0
1, 96000, Note_on_c, 0, 41, 21
1, 96007, Control_c, 0, 64, 0
1, 96106, Control_c, 0, 64, 127
1, 96120, Tempo, 463428
1, 96120, Note_on_c, 0, 48, 20
1, 96240, Note_on_c, 0, 48, 0
1, 96240, Note_on_c, 0, 50, 21
1, 96360, Note_on_c, 0, 50, 0
1, 96360, Note_on_c, 0, 52, 23
1, 96480, Tempo, 457317
1, 96480, Note_on_c, 0, 52, 0
1, 96480, Note_on_c, 0, 53, 28
1, 96538, Tempo, 459313
1, 96595, Tempo, 461396
1, 96600, Note_on_c, 0, 53, 0
1, 96600, Note_on_c, 0, 57, 31
1, 96653, Tempo, 463428
1, 96711, Tempo, 465549
1, 96720, Note_on_c, 0, 57, 0
1, 96720, Note_on_c, 0, 60, 34
1, 96768, Tempo, 467654
1, 96826, Tempo, 469778
1, 96840, Note_on_c, 0, 60, 0
1, 96840, Note_on_c, 0, 62, 36
1, 96883, Tempo, 471921
1, 96910, Tempo, 465549
1, 96960, Note_on_c, 0, 62, 0
1, 96960, Note_on_c, 0, 64, 41
1, 97080, Note_on_c, 0, 64, 0
1, 97080, Note_on_c, 0, 62, 41
1, 97082, Tempo, 463428
1, 97200, Note_on_c, 0, 62, 0
1, 97200, Note_on_c, 0, 60, 38
1, 97255, Tempo, 461396
1, 97320, Note_on_c, 0, 60, 0
1, 97320, Note_on_c, 0, 57, 35
1, 97428, Tempo, 459313
1, 97440, Note_on_c, 0, 57, 0
1, 97440, Note_on_c, 0, 53, 32
1, 97560, Note_on_c, 0, 53, 0
1, 97560, Note_on_c, 0, 52, 30
1, 97680, Note_on_c, 0, 52, 0
1, 97680, Note_on_c, 0, 50, 26
1, 97800, Note_on_c, 0, 50, 0
1, 97800, Note_on_c, 0, 48, 24
1, 97920, Tempo, 532718
1, 97920, Note_on_c, 0, 48, 0
1, 97920, Note_on_c, 0, 41, 0
1, 97920, Note_on_c, 0, 41, 21
1, 97970, Control_c, 0, 64, 0
1, 98040, Tempo, 459313
1, 98040, Note_on_c, 0, 48, 21
1, 98040, Control_c, 0, 64, 127
1, 98160, Note_on_c, 0, 48, 0
1, 98160, Note_on_c, 0, 50, 22
1, 98280, Note_on_c, 0, 50, 0
1, 98280, Note_on_c, 0, 52, 25
1, 98381, Tempo, 449337
1, 98400, Note_on_c, 0, 52, 0
1, 98400, Note_on_c, 0, 53, 30
1, 98439, Tempo, 451297
1, 98477, Tempo, 453275
1, 98515, Tempo, 455270
1, 98520, Note_on_c, 0, 53, 0
1, 98520, Note_on_c, 0, 57, 34
1, 98554, Tempo, 457317
1, 98592, Tempo, 459313
1, 98631, Tempo, 461396
1, 98640, Note_on_c, 0, 57, 0
1, 98640, Note_on_c, 0, 60, 38
1, 98669, Tempo, 463428
1, 98707, Tempo, 465549
1, 98746, Tempo, 467654
1, 98760, Note_on_c, 0, 60, 0
1, 98760, Note_on_c, 0, 62, 42
1, 98784, Tempo, 469778
1, 98823, Tempo, 471921
1, 98861, Tempo, 474083
1, 98880, Note_on_c, 0, 62, 0
1, 98880, Note_on_c, 0, 64, 48
1, 98887, Tempo, 467654
1, 98983, Tempo, 465549
1, 99000, Note_on_c, 0, 64, 0
1, 99000, Note_on_c, 0, 62, 41
1, 99079, Tempo, 463428
1, 99120, Note_on_c, 0, 62, 0
1, 99120, Note_on_c, 0, 60, 38
1, 99175, Tempo, 461396
1, 99240, Note_on_c, 0, 60, 0
1, 99240, Note_on_c, 0, 59, 35
1, 99271, Tempo, 459313
1, 99360, Note_on_c, 0, 59, 0
1, 99360, Note_on_c, 0, 57, 32
1, 99367, Tempo, 457317
1, 99480, Note_on_c, 0, 57, 0
1, 99480, Note_on_c, 0, 52, 30
1, 99600, Note_on_c, 0, 52, 0
1, 99600, Note_on_c, 0, 50, 26
1, 99720, Note_on_c, 0, 50, 0
1, 99720, Note_on_c, 0, 48, 24
1, 99840, Tempo, 521966
1, 99840, Note_on_c, 0, 48, 0
1, 99840, Note_on_c, 0, 41, 0
1, 99840, Note_on_c, 0, 41, 21
1, 99890, Control_c, 0, 64, 0
1, 99932, Control_c, 0, 64, 127
1, 99960, Tempo, 459313
1, 99960, Note_on_c, 0, 48, 21
1, 100080, Note_on_c, 0, 48, 0
1, 100080, Note_on_c, 0, 50, 22
1, 100200, Note_on_c, 0, 50, 0
1, 100200, Note_on_c, 0, 52, 25
1, 100320, Note_on_c, 0, 52, 0
1, 100320, Note_on_c, 0, 53, 30
1, 100359, Tempo, 455270
1, 100435, Tempo, 457317
1, 100440, Note_on_c, 0, 53, 0
1, 100440, Note_on_c, 0, 56, 34
1, 100512, Tempo, 459313
1, 100560, Note_on_c, 0, 56, 0
1, 100560, Note_on_c, 0, 60, 39
1, 100589, Tempo, 461396
1, 100666, Tempo, 463428
1, 100680, Note_on_c, 0, 60, 0
1, 100680, Note_on_c, 0, 62, 42
1, 100743, Tempo, 465549
1, 100800, Tempo, 467654
1, 100800, Note_on_c, 0, 62, 0
1, 100800, Note_on_c, 0, 64, 48
1, 100839, Tempo, 463428
1, 100915, Tempo, 461396
1, 100920, Note_on_c, 0, 64, 0
1, 100920, Note_on_c, 0, 62, 42
1, 100992, Tempo, 459313
1, 101040, Note_on_c, 0, 62, 0
1, 101040, Note_on_c, 0, 60, 40
1, 101069, Tempo, 457317
1, 101160, Note_on_c, 0, 60, 0
1, 101160, Note_on_c, 0, 56, 36
1, 101280, Note_on_c, 0, 56, 0
1, 101280, Note_on_c, 0, 53, 33
1, 101400, Note_on_c, 0, 53, 0
1, 101400, Note_on_c, 0, 52, 30
1, 101520, Note_on_c, 0, 52, 0
1, 101520, Note_on_c, 0, 50, 26
1, 101640, Note_on_c, 0, 50, 0
1, 101640, Note_on_c, 0, 48, 24
1, 101760, Tempo, 527287
1, 101760, Note_on_c, 0, 48, 0
1, 101760, Note_on_c, 0, 41, 0
1, 101760, Note_on_c, 0, 41, 21
1, 101810, Control_c, 0, 64, 0
1, 101863, Control_c, 0, 64, 127
1, 101880, Tempo, 459313
1, 101880, Note_on_c, 0, 48, 21
1, 102000, Note_on_c, 0, 48, 0
1, 102000, Note_on_c, 0, 50, 22
1, 102120, Note_on_c, 0, 50, 0
1, 102120, Note_on_c, 0, 52, 25
1, 102209, Tempo, 449337
1, 102240, Note_on_c, 0, 52, 0
1, 102240, Note_on_c, 0, 53, 31
1, 102266, Tempo, 451297
1, 102324, Tempo, 453275
1, 102360, Note_on_c, 0, 53, 0
1, 102360, Note_on_c, 0, 56, 35
1, 102382, Tempo, 455270
1, 102420, Tempo, 457317
1, 102478, Tempo, 459313
1, 102480, Note_on_c, 0, 56, 0
1, 102480, Note_on_c, 0, 60, 39
1, 102535, Tempo, 461396
1, 102574, Tempo, 463428
1, 102600, Note_on_c, 0, 60, 0
1, 102600, Note_on_c, 0, 62, 42
1, 102631, Tempo, 465549
1, 102689, Tempo, 467654
1, 102720, Note_on_c, 0, 62, 0
1, 102720, Note_on_c, 0, 64, 48
1, 102727, Tempo, 467654
1, 102804, Tempo, 465549
1, 102840, Note_on_c, 0, 64, 0
1, 102840, Note_on_c, 0, 62, 41
1, 102862, Tempo, 463428
1, 102938, Tempo, 461396
1, 102960, Note_on_c, 0, 62, 0
1, 102960, Note_on_c, 0, 60, 40
1, 102996, Tempo, 459313
1, 103073, Tempo, 457317
1, 103080, Note_on_c, 0, 60, 0
1, 103080, Note_on_c, 0, 58, 35
1, 103130, Tempo, 455270
1, 103188, Tempo, 453275
1, 103200, Note_on_c, 0, 58, 0
1, 103200, Note_on_c, 0, 56, 33
1, 103320, Note_on_c, 0, 56, 0
1, 103320, Note_on_c, 0, 52, 30
1, 103440, Note_on_c, 0, 52, 0
1, 103440, Note_on_c, 0, 50, 26
1, 103560, Note_on_c, 0, 50, 0
1, 103560, Note_on_c, 0, 48, 24
1, 103680, Note_on_c, 0, 48, 0
1, 103680, Note_on_c, 0, 41, 0
1, 103680, Note_on_c, 0, 40, 28
1, 103686, Control_c, 0, 64, 0
1, 103755, Control_c, 0, 64, 127
1, 103800, Note_on_c, 0, 40, 0
1, 103800, Note_on_c, 0, 48, 23
1, 103920, Note_on_c, 0, 48, 0
1, 103920, Note_on_c, 0, 52, 26
1, 104040, Tempo, 487488
1, 104040, Note_on_c, 0, 52, 0
1, 104040, Note_on_c, 0, 56, 26
1, 104160, Tempo, 459313
1, 104160, Note_on_c, 0, 56, 0
1, 104160, Note_on_c, 0, 48, 35
1, 104280, Note_on_c, 0, 48, 0
1, 104280, Note_on_c, 0, 52, 30
1, 104400, Note_on_c, 0, 52, 0
1, 104400, Note_on_c, 0, 56, 31
1, 104520, Tempo, 489796
1, 104520, Note_on_c, 0, 56, 0
1, 104520, Note_on_c, 0, 60, 32
1, 104640, Tempo, 459313
1, 104640, Note_on_c, 0, 60, 0
1, 104640, Note_on_c, 0, 52, 42
1, 104760, Note_on_c, 0, 52, 0
1, 104760, Note_on_c, 0, 56, 39
1, 104880, Note_on_c, 0, 56, 0
1, 104880, Note_on_c, 0, 60, 43
1, 105000, Tempo, 492126
1, 105000, Note_on_c, 0, 60, 0
1, 105000, Note_on_c, 0, 64, 43
1, 105120, Tempo, 459313
1, 105120, Note_on_c, 0, 64, 0
1, 105120, Note_on_c, 0, 56, 49
1, 105137, Tempo, 460158
1, 105240, Note_on_c, 0, 56, 0
1, 105240, Note_on_c, 0, 60, 40
1, 105360, Note_on_c, 0, 60, 0
1, 105360, Note_on_c, 0, 64, 47
1, 105463, Tempo, 477365
1, 105480, Tempo, 471772
1, 105480, Note_on_c, 0, 64, 0
1, 105480, Note_on_c, 0, 68, 47
1, 105600, Tempo, 460440
1, 105600, Note_on_c, 0, 68, 0
1, 105600, Note_on_c, 0, 56, 52
1, 105720, Note_on_c, 0, 56, 0
1, 105720, Note_on_c, 0, 60, 45
1, 105840, Note_on_c, 0, 60, 0
1, 105840, Note_on_c, 0, 64, 50
1, 105960, Tempo, 469851
1, 105960, Note_on_c, 0, 64, 0
1, 105960, Note_on_c, 0, 68, 50
1, 106080, Tempo, 459313
1, 106080, Note_on_c, 0, 68, 0
1, 106080, Note_on_c, 0, 60, 55
1, 106200, Note_on_c, 0, 60, 0
1, 106200, Note_on_c, 0, 64, 46
1, 106320, Note_on_c, 0, 64, 0
1, 106320, Note_on_c, 0, 68, 55
1, 106440, Tempo, 489796
1, 106440, Note_on_c, 0, 68, 0
1, 106440, Note_on_c, 0, 72, 53
1, 106560, Tempo, 459313
1, 106560, Note_on_c, 0, 72, 0
1, 106560, Note_on_c, 0, 64, 67
1, 106680, Note_on_c, 0, 64, 0
1, 106680, Note_on_c, 0, 68, 56
1, 106800, Note_on_c, 0, 68, 0
1, 106800, Note_on_c, 0, 72, 65
1, 106920, Tempo, 492126
1, 106920, Note_on_c, 0, 72, 0
1, 106920, Note_on_c, 0, 76, 62
1, 107040, Tempo, 459313
1, 107040, Note_on_c, 0, 76, 0
1, 107040, Note_on_c, 0, 68, 71
1, 107057, Tempo, 460158
1, 107160, Note_on_c, 0, 68, 0
1, 107160, Note_on_c, 0, 72, 64
1, 107280, Note_on_c, 0, 72, 0
1, 107280, Note_on_c, 0, 76, 68
1, 107364, Tempo, 475398
1, 107383, Tempo, 477365
1, 107400, Tempo, 479655
1, 107400, Note_on_c, 0, 76, 0
1, 107400, Note_on_c, 0, 80, 63
1, 107520, Tempo, 458961
1, 107520, Note_on_c, 0, 80, 0
1, 107520, Note_on_c, 0, 72, 79
1, 107520, Control_c, 0, 64, 0
1, 107626, Control_c, 0, 64, 127
1, 107640, Note_on_c, 0, 76, 72
1, 107760, Tempo, 443885
1, 107760, Note_on_c, 0, 76, 0
1, 107760, Note_on_c, 0, 79, 68
1, 107880, Note_on_c, 0, 79, 0
1, 107880, Note_on_c, 0, 84, 64
1, 108000, Tempo, 451433
1, 108000, Note_on_c, 0, 84, 0
1, 108000, Note_on_c, 0, 72, 0
1, 108000, Note_on_c, 0, 72, 71
1, 108120, Note_on_c, 0, 76, 64
1, 108240, Note_on_c, 0, 76, 0
1, 108240, Note_on_c, 0, 79, 68
1, 108360, Note_on_c, 0, 79, 0
1, 108360, Note_on_c, 0, 84, 67
1, 108480, Tempo, 441469
1, 108480, Note_on_c, 0, 84, 0
1, 108480, Note_on_c, 0, 72, 0
1, 108480, Note_on_c, 0, 74, 74
1, 108600, Note_on_c, 0, 76, 68
1, 108720, Note_on_c, 0, 76, 0
1, 108720, Note_on_c, 0, 79, 68
1, 108840, Note_on_c, 0, 79, 0
1, 108840, Note_on_c, 0, 86, 64
1, 108960, Note_on_c, 0, 86, 0
1, 108960, Note_on_c, 0, 74, 0
1, 108960, Note_on_c, 0, 72, 71
1, 109080, Note_on_c, 0, 76, 64
1, 109200, Note_on_c, 0, 76, 0
1, 109200, Note_on_c, 0, 79, 68
1, 109320, Tempo, 511640
1, 109320, Note_on_c, 0, 79, 0
1, 109320, Note_on_c, 0, 84, 64
1, 109440, Tempo, 567269
1, 109440, Note_on_c, 0, 84, 0
1, 109440, Note_on_c, 0, 72, 0
1, 109440, Note_on_c, 0, 77, 63
1, 109440, Control_c, 0, 64, 0
1, 109546, Control_c, 0, 64, 127
1, 109560, Note_on_c, 0, 80, 57
1, 109660, Tempo, 503060
1, 109680, Tempo, 498878
1, 109680, Note_on_c, 0, 80, 0
1, 109680, Note_on_c, 0, 84, 54
1, 109699, Tempo, 494764
1, 109718, Tempo, 490717
1, 109737, Tempo, 486736
1, 109756, Tempo, 482820
1, 109776, Tempo, 478965
1, 109795, Tempo, 475172
1, 109800, Note_on_c, 0, 84, 0
1, 109800, Note_on_c, 0, 89, 51
1, 109814, Tempo, 471439
1, 109833, Tempo, 467763
1, 109852, Tempo, 464145
1, 109872, Tempo, 460582
1, 109891, Tempo, 455339
1, 109920, Note_on_c, 0, 89, 0
1, 109920, Note_on_c, 0, 77, 0
1, 109920, Note_on_c, 0, 75, 57
1, 109967, Tempo, 453961
1, 110025, Tempo, 452250
1, 110040, Note_on_c, 0, 80, 51
1, 110082, Tempo, 450552
1, 110140, Tempo, 448867
1, 110160, Note_on_c, 0, 80, 0
1, 110160, Note_on_c, 0, 84, 54
1, 110217, Tempo, 447194
1, 110274, Tempo, 445534
1, 110280, Note_on_c, 0, 84, 0
1, 110280, Note_on_c, 0, 87, 53
1, 110332, Tempo, 443885
1, 110389, Tempo, 442250
1, 110400, Note_on_c, 0, 87, 0
1, 110400, Note_on_c, 0, 75, 0
1, 110400, Note_on_c, 0, 74, 58
1, 110520, Note_on_c, 0, 75, 54
1, 110640, Note_on_c, 0, 75, 0
1, 110640, Note_on_c, 0, 80, 54
1, 110760, Note_on_c, 0, 80, 0
1, 110760, Note_on_c, 0, 86, 51
1, 110880, Note_on_c, 0, 86, 0
1, 110880, Note_on_c, 0, 74, 0
1, 110880, Note_on_c, 0, 72, 57
1, 111000, Note_on_c, 0, 75, 51
1, 111120, Note_on_c, 0, 75, 0
1, 111120, Note_on_c, 0, 80, 54
1, 111240, Tempo, 511640
1, 111240, Note_on_c, 0, 80, 0
1, 111240, Note_on_c, 0, 84, 51
1, 111360, Tempo, 460936
1, 111360, Note_on_c, 0, 84, 0
1, 111360, Note_on_c, 0, 72, 0
1, 111360, Note_on_c, 0, 74, 63
1, 111360, Control_c, 0, 64, 0
1, 111466, Control_c, 0, 64, 127
1, 111480, Note_on_c, 0, 76, 57
1, 111600, Tempo, 448867
1, 111600, Note_on_c, 0, 76, 0
1, 111600, Note_on_c, 0, 79, 54
1, 111720, Note_on_c, 0, 79, 0
1, 111720, Note_on_c, 0, 86, 51
1, 111840, Note_on_c, 0, 86, 0
1, 111840, Note_on_c, 0, 74, 0
1, 111840, Note_on_c, 0, 72, 57
1, 111960, Note_on_c, 0, 76, 51
1, 112002, Tempo, 450552
1, 112060, Tempo, 448867
1, 112080, Note_on_c, 0, 76, 0
1, 112080, Note_on_c, 0, 79, 54
1, 112137, Tempo, 447194
1, 112194, Tempo, 445534
1, 112200, Note_on_c, 0, 79, 0
1, 112200, Note_on_c, 0, 84, 53
1, 112252, Tempo, 443885
1, 112309, Tempo, 442250
1, 112320, Note_on_c, 0, 84, 0
1, 112320, Note_on_c, 0, 72, 0
1, 112320, Note_on_c, 0, 71, 58
1, 112440, Note_on_c, 0, 72, 54
1, 112560, Note_on_c, 0, 72, 0
1, 112560, Note_on_c, 0, 76, 54
1, 112680, Note_on_c, 0, 76, 0
1, 112680, Note_on_c, 0, 83, 51
1, 112800, Note_on_c, 0, 83, 0
1, 112800, Note_on_c, 0, 71, 0
1, 112800, Note_on_c, 0, 69, 57
1, 112920, Note_on_c, 0, 72, 51
1, 113040, Note_on_c, 0, 72, 0
1, 113040, Note_on_c, 0, 76, 54
1, 113160, Note_on_c, 0, 76, 0
1, 113160, Note_on_c, 0, 81, 51
1, 113280, Tempo, 430385
1, 113280, Note_on_c, 0, 81, 0
1, 113280, Note_on_c, 0, 69, 0
1, 113280, Note_on_c, 0, 67, 63
1, 113280, Control_c, 0, 64, 0
1, 113386, Control_c, 0, 64, 127
1, 113400, Note_on_c, 0, 69, 57
1, 113520, Tempo, 433495
1, 113520, Note_on_c, 0, 69, 0
1, 113520, Note_on_c, 0, 72, 53
1, 113640, Note_on_c, 0, 72, 0
1, 113640, Note_on_c, 0, 79, 49
1, 113760, Note_on_c, 0, 79, 0
1, 113760, Note_on_c, 0, 67, 0
1, 113760, Note_on_c, 0, 65, 55
1, 113880, Note_on_c, 0, 69, 48
1, 113922, Tempo, 450552
1, 114000, Tempo, 440626
1, 114000, Note_on_c, 0, 69, 0
1, 114000, Note_on_c, 0, 72, 51
1, 114057, Tempo, 447194
1, 114114, Tempo, 445534
1, 114120, Note_on_c, 0, 72, 0
1, 114120, Note_on_c, 0, 77, 49
1, 114172, Tempo, 443885
1, 114229, Tempo, 442250
1, 114240, Note_on_c, 0, 77, 0
1, 114240, Note_on_c, 0, 65, 0
1, 114240, Note_on_c, 0, 64, 54
1, 114360, Note_on_c, 0, 65, 49
1, 114480, Note_on_c, 0, 65, 0
1, 114480, Note_on_c, 0, 68, 48
1, 114600, Note_on_c, 0, 68, 0
1, 114600, Note_on_c, 0, 76, 45
1, 114720, Note_on_c, 0, 76, 0
1, 114720, Note_on_c, 0, 64, 0
1, 114720, Note_on_c, 0, 62, 50
1, 114840, Note_on_c, 0, 65, 44
1, 114960, Note_on_c, 0, 65, 0
1, 114960, Note_on_c, 0, 68, 46
1, 115080, Tempo, 567269
1, 115080, Note_on_c, 0, 68, 0
1, 115080, Note_on_c, 0, 74, 43
1, 115200, Tempo, 435066
1, 115200, Note_on_c, 0, 74, 0
1, 115200, Note_on_c, 0, 62, 0
1, 115200, Note_on_c, 0, 62, 48
1, 115208, Control_c, 0, 64, 0
1, 115299, Control_c, 0, 64, 127
1, 115320, Note_on_c, 0, 64, 45
1, 115440, Note_on_c, 0, 64, 0
1, 115440, Note_on_c, 0, 67, 48
1, 115560, Tempo, 452250
1, 115560, Note_on_c, 0, 67, 0
1, 115560, Note_on_c, 0, 74, 45
1, 115680, Tempo, 443885
1, 115680, Note_on_c, 0, 74, 0
1, 115680, Note_on_c, 0, 62, 0
1, 115680, Note_on_c, 0, 60, 63
1, 115800, Note_on_c, 0, 64, 57
1, 115920, Note_on_c, 0, 64, 0
1, 115920, Note_on_c, 0, 67, 61
1, 116040, Tempo, 436649
1, 116040, Note_on_c, 0, 67, 0
1, 116040, Note_on_c, 0, 72, 60
1, 116160, Note_on_c, 0, 72, 0
1, 116160, Note_on_c, 0, 60, 0
1, 116160, Note_on_c, 0, 62, 66
1, 116280, Note_on_c, 0, 64, 61
1, 116400, Note_on_c, 0, 64, 0
1, 116400, Note_on_c, 0, 67, 61
1, 116520, Note_on_c, 0, 67, 0
1, 116520, Note_on_c, 0, 74, 57
1, 116640, Note_on_c, 0, 74, 0
1, 116640, Note_on_c, 0, 62, 0
1, 116640, Note_on_c, 0, 60, 63
1, 116760, Note_on_c, 0, 64, 57
1, 116880, Note_on_c, 0, 64, 0
1, 116880, Note_on_c, 0, 67, 61
1, 117000, Tempo, 453961
1, 117000, Note_on_c, 0, 67, 0
1, 117000, Note_on_c, 0, 72, 57
1, 117120, Tempo, 447194
1, 117120, Note_on_c, 0, 72, 0
1, 117120, Note_on_c, 0, 60, 0
1, 117120, Note_on_c, 0, 65, 63
1, 117127, Control_c, 0, 64, 0
1, 117219, Control_c, 0, 64, 127
1, 117240, Note_on_c, 0, 68, 57
1, 117360, Note_on_c, 0, 68, 0
1, 117360, Note_on_c, 0, 72, 61
1, 117475, Note_on_c, 0, 77, 60
1, 117480, Note_on_c, 0, 72, 0
1, 117595, Note_on_c, 0, 77, 0
1, 117600, Tempo, 443885
1, 117600, Note_on_c, 0, 65, 0
1, 117600, Note_on_c, 0, 63, 63
1, 117720, Note_on_c, 0, 68, 57
1, 117840, Note_on_c, 0, 68, 0
1, 117840, Note_on_c, 0, 72, 61
1, 117960, Note_on_c, 0, 72, 0
1, 117960, Note_on_c, 0, 75, 60
1, 118080, Tempo, 431934
1, 118080, Note_on_c, 0, 75, 0
1, 118080, Note_on_c, 0, 63, 0
1, 118080, Note_on_c, 0, 62, 66
1, 118200, Note_on_c, 0, 63, 61
1, 118320, Note_on_c, 0, 63, 0
1, 118320, Note_on_c, 0, 68, 61
1, 118440, Note_on_c, 0, 68, 0
1, 118440, Note_on_c, 0, 74, 57
1, 118560, Note_on_c, 0, 74, 0
1, 118560, Note_on_c, 0, 62, 0
1, 118560, Note_on_c, 0, 60, 63
1, 118680, Note_on_c, 0, 63, 57
1, 118800, Note_on_c, 0, 63, 0
1, 118800, Note_on_c, 0, 68, 61
1, 118920, Tempo, 496812
1, 118920, Note_on_c, 0, 68, 0
1, 118920, Note_on_c, 0, 72, 57
1, 119040, Tempo, 439850
1, 119040, Note_on_c, 0, 72, 0
1, 119040, Note_on_c, 0, 60, 0
1, 119040, Note_on_c, 0, 62, 63
1, 119047, Control_c, 0, 64, 0
1, 119139, Control_c, 0, 64, 127
1, 119160, Note_on_c, 0, 64, 57
1, 119280, Note_on_c, 0, 64, 0
1, 119280, Note_on_c, 0, 67, 61
1, 119400, Note_on_c, 0, 67, 0
1, 119400, Note_on_c, 0, 74, 60
1, 119520, Tempo, 433495
1, 119520, Note_on_c, 0, 74, 0
1, 119520, Note_on_c, 0, 62, 0
1, 119520, Note_on_c, 0, 60, 63
1, 119640, Note_on_c, 0, 64, 57
1, 119760, Note_on_c, 0, 64, 0
1, 119760, Note_on_c, 0, 67, 61
1, 119880, Note_on_c, 0, 67, 0
1, 119880, Note_on_c, 0, 72, 60
1, 120000, Note_on_c, 0, 72, 0
1, 120000, Note_on_c, 0, 60, 0
1, 120000, Note_on_c, 0, 59, 66
1, 120120, Note_on_c, 0, 60, 61
1, 120233, Note_on_c, 0, 64, 61
1, 120240, Note_on_c, 0, 60, 0
1, 120353, Note_on_c, 0, 64, 0
1, 120360, Note_on_c, 0, 71, 57
1, 120480, Note_on_c, 0, 71, 0
1, 120480, Note_on_c, 0, 59, 0
1, 120480, Note_on_c, 0, 57, 63
1, 120600, Note_on_c, 0, 60, 57
1, 120713, Note_on_c, 0, 64, 61
1, 120720, Note_on_c, 0, 60, 0
1, 120833, Note_on_c, 0, 64, 0
1, 120840, Tempo, 460936
1, 120840, Note_on_c, 0, 69, 57
1, 120960, Tempo, 443099
1, 120960, Note_on_c, 0, 69, 0
1, 120960, Note_on_c, 0, 57, 0
1, 120960, Note_on_c, 0, 55, 59
1, 121080, Note_on_c, 0, 57, 53
1, 121200, Note_on_c, 0, 57, 0
1, 121200, Note_on_c, 0, 60, 56
1, 121320, Note_on_c, 0, 60, 0
1, 121320, Note_on_c, 0, 67, 55
1, 121440, Tempo, 438244
1, 121440, Note_on_c, 0, 67, 0
1, 121440, Note_on_c, 0, 55, 0
1, 121440, Note_on_c, 0, 53, 56
1, 121560, Note_on_c, 0, 57, 50
1, 121680, Note_on_c, 0, 57, 0
1, 121680, Note_on_c, 0, 60, 53
1, 121800, Note_on_c, 0, 60, 0
1, 121800, Note_on_c, 0, 65, 52
1, 121920, Note_on_c, 0, 65, 0
1, 121920, Note_on_c, 0, 53, 0
1, 121920, Note_on_c, 0, 52, 56
1, 122040, Note_on_c, 0, 53, 51
1, 122160, Note_on_c, 0, 53, 0
1, 122160, Note_on_c, 0, 56, 50
1, 122280, Note_on_c, 0, 56, 0
1, 122280, Note_on_c, 0, 64, 46
1, 122400, Note_on_c, 0, 64, 0
1, 122400, Note_on_c, 0, 52, 0
1, 122400, Note_on_c, 0, 50, 50
1, 122520, Note_on_c, 0, 53, 45
1, 122640, Note_on_c, 0, 53, 0
1, 122640, Note_on_c, 0, 56, 47
1, 122760, Tempo, 460936
1, 122760, Note_on_c, 0, 56, 0
1, 122760, Note_on_c, 0, 62, 43
1, 122880, Tempo, 435066
1, 122880, Note_on_c, 0, 62, 0
1, 122880, Note_on_c, 0, 50, 0
1, 122880, Note_on_c, 0, 50, 66
1, 122908, Control_c, 0, 64, 0
1, 122944, Control_c, 0, 64, 127
1, 123000, Note_on_c, 0, 52, 59
1, 123120, Note_on_c, 0, 52, 0
1, 123120, Note_on_c, 0, 55, 56
1, 123240, Note_on_c, 0, 55, 0
1, 123240, Note_on_c, 0, 62, 51
1, 123360, Tempo, 443885
1, 123360, Note_on_c, 0, 62, 0
1, 123360, Note_on_c, 0, 50, 0
1, 123360, Note_on_c, 0, 48, 55
1, 123480, Note_on_c, 0, 52, 48
1, 123600, Note_on_c, 0, 52, 0
1, 123600, Note_on_c, 0, 55, 53
1, 123720, Tempo, 460936
1, 123720, Note_on_c, 0, 55, 0
1, 123720, Note_on_c, 0, 60, 48
1, 123840, Tempo, 435066
1, 123840, Note_on_c, 0, 60, 0
1, 123840, Note_on_c, 0, 48, 0
1, 123840, Note_on_c, 0, 50, 61
1, 123840, Note_on_c, 0, 41, 61
1, 123854, Control_c, 0, 64, 0
1, 123939, Control_c, 0, 64, 127
1, 123960, Note_on_c, 0, 53, 46
1, 124080, Note_on_c, 0, 53, 0
1, 124080, Note_on_c, 0, 57, 48
1, 124200, Note_on_c, 0, 57, 0
1, 124200, Note_on_c, 0, 62, 50
1, 124320, Tempo, 447194
1, 124320, Note_on_c, 0, 62, 0
1, 124320, Note_on_c, 0, 50, 0
1, 124320, Note_on_c, 0, 48, 55
1, 124440, Note_on_c, 0, 53, 56
1, 124560, Note_on_c, 0, 53, 0
1, 124560, Note_on_c, 0, 57, 60
1, 124680, Note_on_c, 0, 57, 0
1, 124680, Note_on_c, 0, 60, 63
1, 124800, Tempo, 439014
1, 124800, Note_on_c, 0, 60, 0
1, 124800, Note_on_c, 0, 48, 0
1, 124800, Note_on_c, 0, 41, 0
1, 124800, Note_on_c, 0, 62, 66
1, 124828, Control_c, 0, 64, 0
1, 124864, Control_c, 0, 64, 127
1, 124920, Note_on_c, 0, 64, 59
1, 125040, Note_on_c, 0, 64, 0
1, 125040, Note_on_c, 0, 67, 56
1, 125160, Note_on_c, 0, 67, 0
1, 125160, Note_on_c, 0, 74, 51
1, 125280, Tempo, 443885
1, 125280, Note_on_c, 0, 74, 0
1, 125280, Note_on_c, 0, 62, 0
1, 125280, Note_on_c, 0, 60, 55
1, 125400, Note_on_c, 0, 64, 48
1, 125520, Note_on_c, 0, 64, 0
1, 125520, Note_on_c, 0, 67, 53
1, 125640, Tempo, 460936
1, 125640, Note_on_c, 0, 67, 0
1, 125640, Note_on_c, 0, 72, 48
1, 125760, Tempo, 440626
1, 125760, Note_on_c, 0, 72, 0
1, 125760, Note_on_c, 0, 60, 0
1, 125760, Note_on_c, 0, 53, 57
1, 125760, Note_on_c, 0, 62, 66
1, 125774, Control_c, 0, 64, 0
1, 125859, Control_c, 0, 64, 127
1, 125880, Note_on_c, 0, 65, 47
1, 126000, Note_on_c, 0, 65, 0
1, 126000, Note_on_c, 0, 69, 50
1, 126120, Note_on_c, 0, 69, 0
1, 126120, Note_on_c, 0, 74, 54
1, 126240, Tempo, 447194
1, 126240, Note_on_c, 0, 74, 0
1, 126240, Note_on_c, 0, 62, 0
1, 126240, Note_on_c, 0, 60, 55
1, 126360, Note_on_c, 0, 65, 57
1, 126480, Note_on_c, 0, 65, 0
1, 126480, Note_on_c, 0, 69, 61
1, 126600, Note_on_c, 0, 69, 0
1, 126600, Note_on_c, 0, 72, 62
1, 126720, Tempo, 432682
1, 126720, Note_on_c, 0, 72, 0
1, 126720, Note_on_c, 0, 60, 0
1, 126720, Note_on_c, 0, 53, 0
1, 126720, Note_on_c, 0, 60, 57
1, 126720, Note_on_c, 0, 67, 55
1, 126734, Control_c, 0, 64, 0
1, 126819, Control_c, 0, 64, 127
1, 126840, Note_on_c, 0, 76, 50
1, 126960, Note_on_c, 0, 76, 0
1, 126960, Note_on_c, 0, 72, 57
1, 127080, Note_on_c, 0, 72, 0
1, 127080, Note_on_c, 0, 64, 61
1, 127200, Tempo, 440626
1, 127200, Note_on_c, 0, 64, 0
1, 127200, Note_on_c, 0, 67, 0
1, 127200, Note_on_c, 0, 69, 61
1, 127320, Note_on_c, 0, 76, 55
1, 127440, Note_on_c, 0, 76, 0
1, 127440, Note_on_c, 0, 69, 0
1, 127440, Note_on_c, 0, 71, 62
1, 127560, Note_on_c, 0, 64, 54
1, 127680, Tempo, 432682
1, 127680, Note_on_c, 0, 64, 0
1, 127680, Note_on_c, 0, 71, 0
1, 127680, Note_on_c, 0, 60, 0
1, 127680, Note_on_c, 0, 60, 57
1, 127680, Note_on_c, 0, 67, 55
1, 127694, Control_c, 0, 64, 0
1, 127779, Control_c, 0, 64, 127
1, 127800, Note_on_c, 0, 76, 50
1, 127920, Note_on_c, 0, 76, 0
1, 127920, Note_on_c, 0, 72, 57
1, 128040, Note_on_c, 0, 72, 0
1, 128040, Note_on_c, 0, 64, 61
1, 128160, Tempo, 435825
1, 128160, Note_on_c, 0, 64, 0
1, 128160, Note_on_c, 0, 67, 0
1, 128160, Note_on_c, 0, 69, 61
1, 128280, Note_on_c, 0, 76, 55
1, 128400, Note_on_c, 0, 76, 0
1, 128400, Note_on_c, 0, 69, 0
1, 128400, Note_on_c, 0, 71, 62
1, 128520, Note_on_c, 0, 64, 54
1, 128640, Tempo, 432682
1, 128640, Note_on_c, 0, 64, 0
1, 128640, Note_on_c, 0, 71, 0
1, 128640, Note_on_c, 0, 60, 0
1, 128640, Note_on_c, 0, 60, 47
1, 128640, Note_on_c, 0, 67, 56
1, 128656, Control_c, 0, 64, 0
1, 128732, Control_c, 0, 64, 127
1, 128760, Note_on_c, 0, 76, 55
1, 128880, Note_on_c, 0, 76, 0
1, 128880, Note_on_c, 0, 72, 50
1, 129000, Note_on_c, 0, 72, 0
1, 129000, Note_on_c, 0, 64, 50
1, 129120, Tempo, 428052
1, 129120, Note_on_c, 0, 64, 0
1, 129120, Note_on_c, 0, 67, 0
1, 129120, Note_on_c, 0, 60, 0
1, 129120, Note_on_c, 0, 63, 51
1, 129120, Note_on_c, 0, 70, 61
1, 129137, Control_c, 0, 64, 0
1, 129217, Control_c, 0, 64, 127
1, 129240, Note_on_c, 0, 79, 59
1, 129360, Note_on_c, 0, 79, 0
1, 129360, Note_on_c, 0, 75, 50
1, 129480, Note_on_c, 0, 75, 0
1, 129480, Note_on_c, 0, 67, 55
1, 129600, Tempo, 421319
1, 129600, Note_on_c, 0, 67, 0
1, 129600, Note_on_c, 0, 70, 0
1, 129600, Note_on_c, 0, 63, 0
1, 129600, Note_on_c, 0, 73, 64
1, 129600, Note_on_c, 0, 66, 54
1, 129615, Control_c, 0, 64, 0
1, 129686, Control_c, 0, 64, 127
1, 129720, Note_on_c, 0, 82, 61
1, 129840, Note_on_c, 0, 82, 0
1, 129840, Note_on_c, 0, 78, 56
1, 129960, Note_on_c, 0, 78, 0
1, 129960, Note_on_c, 0, 70, 55
1, 130080, Note_on_c, 0, 70, 0
1, 130080, Note_on_c, 0, 66, 0
1, 130080, Note_on_c, 0, 73, 0
1, 130080, Note_on_c, 0, 67, 56
1, 130080, Note_on_c, 0, 74, 67
1, 130100, Control_c, 0, 64, 0
1, 130183, Control_c, 0, 64, 127
1, 130200, Note_on_c, 0, 83, 64
1, 130320, Note_on_c, 0, 83, 0
1, 130320, Note_on_c, 0, 79, 55
1, 130440, Tempo, 462713
1, 130440, Note_on_c, 0, 79, 0
1, 130440, Note_on_c, 0, 71, 55
1, 130560, Tempo, 432682
1, 130560, Note_on_c, 0, 71, 0
1, 130560, Note_on_c, 0, 74, 0
1, 130560, Note_on_c, 0, 67, 0
1, 130560, Note_on_c, 0, 60, 57
1, 130560, Note_on_c, 0, 67, 55
1, 130574, Control_c, 0, 64, 0
1, 130659, Control_c, 0, 64, 127
1, 130680, Note_on_c, 0, 76, 50
1, 130800, Note_on_c, 0, 76, 0
1, 130800, Note_on_c, 0, 72, 57
1, 130920, Note_on_c, 0, 72, 0
1, 130920, Note_on_c, 0, 64, 61
1, 131040, Tempo, 440626
1, 131040, Note_on_c, 0, 64, 0
1, 131040, Note_on_c, 0, 67, 0
1, 131040, Note_on_c, 0, 69, 61
1, 131160, Note_on_c, 0, 76, 55
1, 131280, Note_on_c, 0, 76, 0
1, 131280, Note_on_c, 0, 69, 0
1, 131280, Note_on_c, 0, 71, 62
1, 131400, Note_on_c, 0, 64, 54
1, 131520, Tempo, 432682
1, 131520, Note_on_c, 0, 64, 0
1, 131520, Note_on_c, 0, 71, 0
1, 131520, Note_on_c, 0, 60, 0
1, 131520, Note_on_c, 0, 60, 57
1, 131520, Note_on_c, 0, 67, 55
1, 131534, Control_c, 0, 64, 0
1, 131619, Control_c, 0, 64, 127
1, 131640, Note_on_c, 0, 76, 50
1, 131760, Note_on_c, 0, 76, 0
1, 131760, Note_on_c, 0, 72, 57
1, 131880, Note_on_c, 0, 72, 0
1, 131880, Note_on_c, 0, 64, 61
1, 132000, Tempo, 435825
1, 132000, Note_on_c, 0, 64, 0
1, 132000, Note_on_c, 0, 67, 0
1, 132000, Note_on_c, 0, 69, 61
1, 132120, Note_on_c, 0, 76, 55
1, 132240, Note_on_c, 0, 76, 0
1, 132240, Note_on_c, 0, 69, 0
1, 132240, Note_on_c, 0, 71, 62
1, 132360, Note_on_c, 0, 64, 54
1, 132480, Tempo, 432682
1, 132480, Note_on_c, 0, 64, 0
1, 132480, Note_on_c, 0, 71, 0
1, 132480, Note_on_c, 0, 60, 0
1, 132480, Note_on_c, 0, 60, 47
1, 132480, Note_on_c, 0, 67, 56
1, 132496, Control_c, 0, 64, 0
1, 132572, Control_c, 0, 64, 127
1, 132600, Note_on_c, 0, 76, 55
1, 132720, Note_on_c, 0, 76, 0
1, 132720, Note_on_c, 0, 72, 50
1, 132840, Note_on_c, 0, 72, 0
1, 132840, Note_on_c, 0, 64, 50
1, 132960, Tempo, 428052
1, 132960, Note_on_c, 0, 64, 0
1, 132960, Note_on_c, 0, 67, 0
1, 132960, Note_on_c, 0, 60, 0
1, 132960, Note_on_c, 0, 63, 51
1, 132960, Note_on_c, 0, 70, 61
1, 132977, Control_c, 0, 64, 0
1, 133057, Control_c, 0, 64, 127
1, 133080, Note_on_c, 0, 79, 59
1, 133200, Note_on_c, 0, 79, 0
1, 133200, Note_on_c, 0, 75, 50
1, 133320, Note_on_c, 0, 75, 0
1, 133320, Note_on_c, 0, 67, 55
1, 133440, Tempo, 422803
1, 133440, Note_on_c, 0, 67, 0
1, 133440, Note_on_c, 0, 70, 0
1, 133440, Note_on_c, 0, 63, 0
1, 133440, Note_on_c, 0, 73, 64
1, 133440, Note_on_c, 0, 66, 54
1, 133455, Control_c, 0, 64, 0
1, 133526, Control_c, 0, 64, 127
1, 133560, Note_on_c, 0, 82, 61
1, 133680, Note_on_c, 0, 82, 0
1, 133680, Note_on_c, 0, 78, 56
1, 133800, Note_on_c, 0, 78, 0
1, 133800, Note_on_c, 0, 70, 55
1, 133920, Note_on_c, 0, 70, 0
1, 133920, Note_on_c, 0, 66, 0
1, 133920, Note_on_c, 0, 73, 0
1, 133920, Note_on_c, 0, 67, 56
1, 133920, Note_on_c, 0, 74, 67
1, 133940, Control_c, 0, 64, 0
1, 134023, Control_c, 0, 64, 127
1, 134040, Note_on_c, 0, 83, 64
1, 134160, Note_on_c, 0, 83, 0
1, 134160, Note_on_c, 0, 79, 55
1, 134280, Tempo, 462713
1, 134280, Note_on_c, 0, 79, 0
1, 134280, Note_on_c, 0, 71, 55
1, 134400, Tempo, 416175
1, 134400, Note_on_c, 0, 71, 0
1, 134400, Note_on_c, 0, 74, 0
1, 134400, Note_on_c, 0, 67, 0
1, 134400, Note_on_c, 0, 79, 70
1, 134414, Control_c, 0, 64, 0
1, 134499, Control_c, 0, 64, 127
1, 134520, Note_on_c, 0, 88, 73
1, 134640, Note_on_c, 0, 88, 0
1, 134640, Note_on_c, 0, 84, 59
1, 134760, Note_on_c, 0, 84, 0
1, 134760, Note_on_c, 0, 76, 59
1, 134880, Note_on_c, 0, 76, 0
1, 134880, Note_on_c, 0, 72, 65
1, 135000, Note_on_c, 0, 88, 72
1, 135120, Note_on_c, 0, 88, 0
1, 135120, Note_on_c, 0, 84, 60
1, 135240, Note_on_c, 0, 84, 0
1, 135240, Note_on_c, 0, 76, 60
1, 135360, Note_on_c, 0, 76, 0
1, 135360, Note_on_c, 0, 72, 0
1, 135360, Note_on_c, 0, 79, 0
1, 135360, Note_on_c, 0, 67, 67
1, 135480, Note_on_c, 0, 76, 71
1, 135600, Note_on_c, 0, 76, 0
1, 135600, Note_on_c, 0, 72, 58
1, 135720, Note_on_c, 0, 72, 0
1, 135720, Note_on_c, 0, 64, 58
1, 135840, Note_on_c, 0, 64, 0
1, 135840, Note_on_c, 0, 60, 64
1, 135960, Note_on_c, 0, 76, 71
1, 136080, Note_on_c, 0, 76, 0
1, 136080, Note_on_c, 0, 72, 59
1, 136200, Note_on_c, 0, 72, 0
1, 136200, Note_on_c, 0, 64, 59
1, 136320, Note_on_c, 0, 64, 0
1, 136320, Note_on_c, 0, 60, 0
1, 136320, Note_on_c, 0, 67, 0
1, 136320, Note_on_c, 0, 55, 70
1, 136322, Tempo, 432682
1, 136341, Tempo, 417624
1, 136440, Note_on_c, 0, 64, 73
1, 136476, Tempo, 416175
1, 136560, Note_on_c, 0, 64, 0
1, 136560, Note_on_c, 0, 60, 60
1, 136610, Tempo, 414737
1, 136680, Note_on_c, 0, 60, 0
1, 136680, Note_on_c, 0, 52, 60
1, 136745, Tempo, 413309
1, 136800, Note_on_c, 0, 52, 0
1, 136800, Note_on_c, 0, 55, 0
1, 136800, Note_on_c, 0, 48, 66
1, 136879, Tempo, 411890
1, 136920, Note_on_c, 0, 64, 73
1, 137013, Tempo, 410481
1, 137040, Note_on_c, 0, 64, 0
1, 137040, Note_on_c, 0, 60, 61
1, 137148, Tempo, 409082
1, 137160, Note_on_c, 0, 60, 0
1, 137160, Note_on_c, 0, 52, 61
1, 137280, Note_on_c, 0, 52, 0
1, 137280, Note_on_c, 0, 48, 0
1, 137280, Note_on_c, 0, 43, 73
1, 137282, Tempo, 407692
1, 137400, Note_on_c, 0, 64, 76
1, 137417, Tempo, 406311
1, 137520, Note_on_c, 0, 64, 0
1, 137520, Note_on_c, 0, 60, 62
1, 137551, Tempo, 404940
1, 137640, Note_on_c, 0, 60, 0
1, 137640, Note_on_c, 0, 52, 62
1, 137685, Tempo, 403578
1, 137724, Tempo, 407692
1, 137760, Note_on_c, 0, 52, 0
1, 137760, Note_on_c, 0, 43, 0
1, 137760, Note_on_c, 0, 36, 68
1, 137762, Tempo, 409082
1, 137801, Tempo, 410481
1, 137820, Tempo, 411890
1, 137858, Tempo, 413309
1, 137877, Tempo, 414737
1, 137880, Note_on_c, 0, 64, 75
1, 137916, Tempo, 416175
1, 137935, Tempo, 417624
1, 137973, Tempo, 419082
1, 138000, Note_on_c, 0, 64, 0
1, 138000, Note_on_c, 0, 60, 63
1, 138012, Tempo, 420551
1, 138031, Tempo, 422030
1, 138069, Tempo, 423519
1, 138120, Tempo, 1036807
1, 138120, Note_on_c, 0, 60, 0
1, 138120, Note_on_c, 0, 52, 63
1, 138240, Tempo, 425019
1, 138240, Note_on_c, 0, 52, 0
1, 138240, Note_on_c, 0, 36, 0
1, 138240, Note_on_c, 0, 52, 85
1, 138240, Note_on_c, 0, 48, 72
1, 138240, Note_on_c, 0, 41, 64
1, 138240, Note_on_c, 0, 45, 76
1, 138240, Control_c, 0, 64, 0
1, 138720, Control_c, 0, 64, 127
1, 141120, Tempo, 477441
1, 141120, Note_on_c, 0, 48, 0
1, 141120, Note_on_c, 0, 52, 0
1, 141120, Note_on_c, 0, 47, 79
1, 141120, Note_on_c, 0, 50, 79
1, 141134, Control_c, 0, 64, 0
1, 142080, Note_on_c, 0, 50, 0
1, 142080, Note_on_c, 0, 45, 0
1, 142080, Note_on_c, 0, 41, 0
1, 142080, Note_on_c, 0, 47, 0
1, 142080, Note_on_c, 0, 52, 81
1, 142080, Note_on_c, 0, 48, 81
1, 142080, Note_on_c, 0, 43, 61
1, 142080, Note_on_c, 0, 36, 61
1, 142193, Control_c, 0, 64, 127
1, 142320, Note_on_c, 0, 36, 0
1, 142320, Note_on_c, 0, 52, 0
1, 142320, Note_on_c, 0, 48, 0
1, 142320, Note_on_c, 0, 43, 0
1, 142518, Control_c, 0, 64, 0
1, 143999, Note_on_c, 0, 24, 69
1, 144000, Note_on_c, 0, 36, 92
1, 144085, Control_c, 0, 64, 127
1, 144239, Note_on_c, 0, 24, 0
1, 144240, Note_on_c, 0, 36, 0
1, 144847, Control_c, 0, 64, 0
1, 144847, End_track
0, 0, End_of_file
