0, 0, Header, 0, 1, 480
1, 0, Start_track
1, 0, Title_t, "Grieg: Lyrische Stücke, Es war einmal, Opus 71 Nr. 1"
1, 0, Copyright_t, "Copyright © 2012 by Bernd Krueger"
1, 0, Text_t, "Bernd Krueger"
1, 0, Text_t, "Andante con moto"
1, 0, Text_t, "Erstellt:    23.10.2012\012"
1, 0, Text_t, "Dauer: 4:17 Minuten\012"
1, 0, Time_signature, 4, 2, 24, 8
1, 0, Key_signature, 1, "major"
1, 0, Tempo, 593472
1, 0, Program_c, 0, 0
1, 0, Program_c, 0, 0
1, 0, Program_c, 0, 0
1, 1440, Tempo, 952381
1, 1440, Note_on_c, 0, 71, 39
1, 1920, Note_on_c, 0, 71, 0
1, 1920, Note_on_c, 0, 64, 42
1, 2047, Control_c, 0, 64, 127
1, 2280, Note_on_c, 0, 66, 36
1, 2395, Note_on_c, 0, 64, 0
1, 2400, Note_on_c, 0, 66, 0
1, 2400, Note_on_c, 0, 67, 43
1, 2400, Note_on_c, 0, 64, 30
1, 2400, Note_on_c, 0, 62, 25
1, 2416, Control_c, 0, 64, 0
1, 2556, Control_c, 0, 64, 127
1, 2760, Note_on_c, 0, 67, 0
1, 2760, Note_on_c, 0, 69, 37
1, 2760, Note_on_c, 0, 66, 29
1, 2880, Note_on_c, 0, 66, 0
1, 2880, Note_on_c, 0, 69, 0
1, 2880, Note_on_c, 0, 62, 0
1, 2880, Note_on_c, 0, 67, 36
1, 2880, Note_on_c, 0, 71, 45
1, 2880, Note_on_c, 0, 61, 30
1, 2892, Control_c, 0, 64, 0
1, 3043, Control_c, 0, 64, 127
1, 3240, Note_on_c, 0, 71, 0
1, 3240, Note_on_c, 0, 76, 37
1, 3360, Note_on_c, 0, 76, 0
1, 3360, Note_on_c, 0, 61, 0
1, 3360, Note_on_c, 0, 67, 0
1, 3360, Note_on_c, 0, 64, 0
1, 3360, Note_on_c, 0, 72, 36
1, 3360, Note_on_c, 0, 79, 45
1, 3360, Note_on_c, 0, 60, 22
1, 3360, Note_on_c, 0, 64, 26
1, 3378, Control_c, 0, 64, 0
1, 3473, Control_c, 0, 64, 127
1, 3720, Note_on_c, 0, 79, 0
1, 3720, Note_on_c, 0, 78, 37
1, 3840, Note_on_c, 0, 78, 0
1, 3840, Note_on_c, 0, 64, 0
1, 3840, Note_on_c, 0, 60, 0
1, 3840, Note_on_c, 0, 72, 0
1, 3840, Note_on_c, 0, 66, 40
1, 3840, Note_on_c, 0, 74, 50
1, 3840, Note_on_c, 0, 59, 25
1, 3840, Note_on_c, 0, 62, 30
1, 3851, Control_c, 0, 64, 0
1, 3932, Control_c, 0, 64, 127
1, 4200, Note_on_c, 0, 74, 0
1, 4200, Note_on_c, 0, 72, 43
1, 4320, Note_on_c, 0, 72, 0
1, 4320, Note_on_c, 0, 62, 0
1, 4320, Note_on_c, 0, 59, 0
1, 4320, Note_on_c, 0, 66, 0
1, 4320, Note_on_c, 0, 76, 54
1, 4320, Note_on_c, 0, 69, 43
1, 4320, Note_on_c, 0, 57, 27
1, 4320, Note_on_c, 0, 60, 32
1, 4331, Control_c, 0, 64, 0
1, 4454, Control_c, 0, 64, 127
1, 4680, Tempo, 1100917
1, 4680, Note_on_c, 0, 76, 0
1, 4680, Note_on_c, 0, 74, 46
1, 4800, Tempo, 1061947
1, 4800, Note_on_c, 0, 74, 0
1, 4800, Note_on_c, 0, 60, 0
1, 4800, Note_on_c, 0, 57, 0
1, 4800, Note_on_c, 0, 69, 0
1, 4800, Note_on_c, 0, 71, 40
1, 4800, Note_on_c, 0, 63, 32
1, 4800, Note_on_c, 0, 55, 25
1, 4800, Note_on_c, 0, 59, 30
1, 4813, Control_c, 0, 64, 0
1, 4899, Control_c, 0, 64, 127
1, 5280, Tempo, 1008403
1, 5280, Note_on_c, 0, 59, 0
1, 5280, Note_on_c, 0, 55, 0
1, 5280, Note_on_c, 0, 54, 22
1, 5280, Note_on_c, 0, 57, 26
1, 5292, Control_c, 0, 64, 0
1, 5520, Note_on_c, 0, 71, 0
1, 5520, Note_on_c, 0, 72, 36
1, 5760, Tempo, 975610
1, 5760, Note_on_c, 0, 72, 0
1, 5760, Note_on_c, 0, 57, 0
1, 5760, Note_on_c, 0, 54, 0
1, 5760, Note_on_c, 0, 63, 0
1, 5760, Note_on_c, 0, 69, 43
1, 5760, Note_on_c, 0, 65, 34
1, 5760, Note_on_c, 0, 53, 25
1, 5760, Note_on_c, 0, 60, 30
1, 5817, Control_c, 0, 64, 127
1, 6120, Note_on_c, 0, 69, 0
1, 6120, Note_on_c, 0, 71, 36
1, 6240, Note_on_c, 0, 71, 0
1, 6240, Note_on_c, 0, 60, 0
1, 6240, Note_on_c, 0, 53, 0
1, 6240, Note_on_c, 0, 65, 0
1, 6240, Note_on_c, 0, 64, 36
1, 6240, Note_on_c, 0, 67, 45
1, 6240, Note_on_c, 0, 59, 26
1, 6240, Note_on_c, 0, 48, 22
1, 6255, Control_c, 0, 64, 0
1, 6424, Control_c, 0, 64, 127
1, 6600, Note_on_c, 0, 67, 0
1, 6600, Note_on_c, 0, 69, 39
1, 6720, Tempo, 1034483
1, 6720, Note_on_c, 0, 69, 0
1, 6720, Note_on_c, 0, 48, 0
1, 6720, Note_on_c, 0, 59, 0
1, 6720, Note_on_c, 0, 64, 0
1, 6720, Note_on_c, 0, 62, 36
1, 6720, Note_on_c, 0, 66, 45
1, 6720, Note_on_c, 0, 50, 25
1, 6720, Note_on_c, 0, 57, 30
1, 6736, Control_c, 0, 64, 0
1, 6812, Control_c, 0, 64, 127
1, 7080, Note_on_c, 0, 66, 0
1, 7080, Note_on_c, 0, 67, 36
1, 7200, Note_on_c, 0, 67, 0
1, 7200, Note_on_c, 0, 57, 0
1, 7200, Note_on_c, 0, 50, 0
1, 7200, Note_on_c, 0, 62, 0
1, 7200, Note_on_c, 0, 64, 43
1, 7200, Note_on_c, 0, 60, 34
1, 7200, Note_on_c, 0, 55, 26
1, 7200, Note_on_c, 0, 45, 22
1, 7212, Control_c, 0, 64, 0
1, 7306, Control_c, 0, 64, 127
1, 7560, Tempo, 1142857
1, 7560, Note_on_c, 0, 64, 0
1, 7560, Note_on_c, 0, 66, 35
1, 7680, Tempo, 1034483
1, 7680, Note_on_c, 0, 66, 0
1, 7680, Note_on_c, 0, 45, 0
1, 7680, Note_on_c, 0, 55, 0
1, 7680, Note_on_c, 0, 60, 0
1, 7680, Note_on_c, 0, 63, 41
1, 7680, Note_on_c, 0, 59, 32
1, 7680, Note_on_c, 0, 54, 27
1, 7680, Note_on_c, 0, 47, 22
1, 7689, Control_c, 0, 64, 0
1, 7747, Control_c, 0, 64, 127
1, 8160, Note_on_c, 0, 47, 0
1, 8160, Note_on_c, 0, 63, 0
1, 8160, Note_on_c, 0, 59, 0
1, 8160, Note_on_c, 0, 54, 0
1, 8160, Note_on_c, 0, 64, 36
1, 8160, Note_on_c, 0, 59, 28
1, 8160, Note_on_c, 0, 55, 28
1, 8160, Note_on_c, 0, 40, 25
1, 8177, Control_c, 0, 64, 0
1, 8308, Control_c, 0, 64, 127
1, 8640, Tempo, 967742
1, 8640, Note_on_c, 0, 40, 0
1, 8640, Note_on_c, 0, 52, 46
1, 8880, Note_on_c, 0, 64, 0
1, 8880, Note_on_c, 0, 55, 0
1, 8880, Note_on_c, 0, 59, 0
1, 9120, Note_on_c, 0, 63, 31
1, 9120, Note_on_c, 0, 71, 39
1, 9120, Note_on_c, 0, 54, 25
1, 9131, Control_c, 0, 64, 0
1, 9570, Note_on_c, 0, 60, 38
1, 9600, Tempo, 952381
1, 9600, Note_on_c, 0, 54, 0
1, 9600, Note_on_c, 0, 71, 0
1, 9600, Note_on_c, 0, 63, 0
1, 9600, Note_on_c, 0, 64, 42
1, 9600, Note_on_c, 0, 59, 35
1, 9643, Control_c, 0, 64, 127
1, 9960, Note_on_c, 0, 59, 0
1, 9960, Note_on_c, 0, 64, 0
1, 9960, Note_on_c, 0, 66, 36
1, 9960, Note_on_c, 0, 57, 30
1, 10080, Note_on_c, 0, 57, 0
1, 10080, Note_on_c, 0, 66, 0
1, 10080, Note_on_c, 0, 60, 0
1, 10080, Note_on_c, 0, 64, 36
1, 10080, Note_on_c, 0, 67, 43
1, 10080, Note_on_c, 0, 62, 30
1, 10090, Control_c, 0, 64, 0
1, 10200, Control_c, 0, 64, 127
1, 10440, Note_on_c, 0, 62, 0
1, 10440, Note_on_c, 0, 67, 0
1, 10440, Note_on_c, 0, 64, 0
1, 10440, Note_on_c, 0, 69, 37
1, 10440, Note_on_c, 0, 66, 29
1, 10440, Note_on_c, 0, 60, 24
1, 10560, Note_on_c, 0, 60, 0
1, 10560, Note_on_c, 0, 66, 0
1, 10560, Note_on_c, 0, 69, 0
1, 10560, Note_on_c, 0, 67, 36
1, 10560, Note_on_c, 0, 71, 45
1, 10560, Note_on_c, 0, 59, 30
1, 10571, Control_c, 0, 64, 0
1, 10680, Control_c, 0, 64, 127
1, 10920, Note_on_c, 0, 71, 0
1, 10920, Note_on_c, 0, 76, 37
1, 11040, Note_on_c, 0, 76, 0
1, 11040, Note_on_c, 0, 59, 0
1, 11040, Note_on_c, 0, 67, 0
1, 11040, Note_on_c, 0, 52, 0
1, 11040, Note_on_c, 0, 69, 36
1, 11040, Note_on_c, 0, 79, 45
1, 11040, Note_on_c, 0, 54, 22
1, 11040, Note_on_c, 0, 64, 26
1, 11053, Control_c, 0, 64, 0
1, 11174, Control_c, 0, 64, 127
1, 11400, Note_on_c, 0, 79, 0
1, 11400, Note_on_c, 0, 78, 37
1, 11520, Note_on_c, 0, 78, 0
1, 11520, Note_on_c, 0, 64, 0
1, 11520, Note_on_c, 0, 54, 0
1, 11520, Note_on_c, 0, 69, 0
1, 11520, Note_on_c, 0, 66, 40
1, 11520, Note_on_c, 0, 74, 50
1, 11520, Note_on_c, 0, 55, 25
1, 11520, Note_on_c, 0, 59, 30
1, 11533, Control_c, 0, 64, 0
1, 11619, Control_c, 0, 64, 127
1, 11880, Note_on_c, 0, 74, 0
1, 11880, Note_on_c, 0, 72, 43
1, 12000, Note_on_c, 0, 72, 0
1, 12000, Note_on_c, 0, 59, 0
1, 12000, Note_on_c, 0, 55, 0
1, 12000, Note_on_c, 0, 66, 0
1, 12000, Note_on_c, 0, 76, 54
1, 12000, Note_on_c, 0, 67, 43
1, 12000, Note_on_c, 0, 57, 27
1, 12000, Note_on_c, 0, 60, 32
1, 12012, Control_c, 0, 64, 0
1, 12099, Control_c, 0, 64, 127
1, 12360, Tempo, 1071429
1, 12360, Note_on_c, 0, 76, 0
1, 12360, Note_on_c, 0, 74, 46
1, 12480, Tempo, 1025641
1, 12480, Note_on_c, 0, 74, 0
1, 12480, Note_on_c, 0, 60, 0
1, 12480, Note_on_c, 0, 57, 0
1, 12480, Note_on_c, 0, 67, 0
1, 12480, Note_on_c, 0, 71, 40
1, 12480, Note_on_c, 0, 66, 32
1, 12480, Note_on_c, 0, 59, 25
1, 12480, Note_on_c, 0, 62, 30
1, 12495, Control_c, 0, 64, 0
1, 12607, Control_c, 0, 64, 127
1, 12720, Tempo, 1100917
1, 12960, Tempo, 1071429
1, 12960, Note_on_c, 0, 59, 0
1, 12960, Note_on_c, 0, 66, 0
1, 12960, Note_on_c, 0, 65, 32
1, 12960, Note_on_c, 0, 55, 26
1, 12974, Control_c, 0, 64, 0
1, 13059, Control_c, 0, 64, 127
1, 13200, Note_on_c, 0, 71, 0
1, 13200, Note_on_c, 0, 72, 27
1, 13440, Tempo, 944882
1, 13440, Note_on_c, 0, 72, 0
1, 13440, Note_on_c, 0, 55, 0
1, 13440, Note_on_c, 0, 65, 0
1, 13440, Note_on_c, 0, 62, 0
1, 13440, Note_on_c, 0, 69, 32
1, 13440, Note_on_c, 0, 60, 25
1, 13440, Note_on_c, 0, 53, 18
1, 13440, Note_on_c, 0, 57, 22
1, 13440, Control_c, 0, 64, 0
1, 13680, Tempo, 1008403
1, 13680, Note_on_c, 0, 57, 0
1, 13680, Note_on_c, 0, 60, 0
1, 13680, Note_on_c, 0, 62, 18
1, 13680, Note_on_c, 0, 59, 16
1, 13800, Note_on_c, 0, 69, 0
1, 13800, Note_on_c, 0, 71, 27
1, 13920, Tempo, 975610
1, 13920, Note_on_c, 0, 71, 0
1, 13920, Note_on_c, 0, 59, 0
1, 13920, Note_on_c, 0, 62, 0
1, 13920, Note_on_c, 0, 53, 0
1, 13920, Note_on_c, 0, 64, 27
1, 13920, Note_on_c, 0, 67, 33
1, 13920, Note_on_c, 0, 60, 19
1, 13920, Note_on_c, 0, 48, 16
1, 13984, Control_c, 0, 64, 127
1, 14160, Tempo, 1043478
1, 14280, Note_on_c, 0, 67, 0
1, 14280, Note_on_c, 0, 69, 29
1, 14400, Tempo, 975610
1, 14400, Note_on_c, 0, 69, 0
1, 14400, Note_on_c, 0, 48, 0
1, 14400, Note_on_c, 0, 60, 0
1, 14400, Note_on_c, 0, 64, 0
1, 14400, Note_on_c, 0, 57, 27
1, 14400, Note_on_c, 0, 66, 33
1, 14400, Note_on_c, 0, 50, 18
1, 14400, Note_on_c, 0, 54, 22
1, 14412, Control_c, 0, 64, 0
1, 14640, Tempo, 1052632
1, 14640, Note_on_c, 0, 54, 0
1, 14640, Note_on_c, 0, 57, 0
1, 14640, Note_on_c, 0, 59, 20
1, 14640, Note_on_c, 0, 55, 16
1, 14760, Note_on_c, 0, 66, 0
1, 14760, Note_on_c, 0, 67, 27
1, 14880, Tempo, 1008403
1, 14880, Note_on_c, 0, 67, 0
1, 14880, Note_on_c, 0, 55, 0
1, 14880, Note_on_c, 0, 59, 0
1, 14880, Note_on_c, 0, 50, 0
1, 14880, Note_on_c, 0, 64, 32
1, 14880, Note_on_c, 0, 60, 25
1, 14880, Note_on_c, 0, 57, 19
1, 14880, Note_on_c, 0, 45, 16
1, 14951, Control_c, 0, 64, 127
1, 15240, Tempo, 1188119
1, 15240, Note_on_c, 0, 64, 0
1, 15240, Note_on_c, 0, 66, 26
1, 15360, Note_on_c, 0, 66, 0
1, 15360, Note_on_c, 0, 45, 0
1, 15360, Note_on_c, 0, 57, 0
1, 15360, Note_on_c, 0, 60, 0
1, 15360, Note_on_c, 0, 63, 30
1, 15360, Note_on_c, 0, 59, 24
1, 15360, Note_on_c, 0, 54, 20
1, 15360, Note_on_c, 0, 47, 16
1, 15368, Control_c, 0, 64, 0
1, 15680, Control_c, 0, 64, 127
1, 15840, Note_on_c, 0, 47, 0
1, 15840, Note_on_c, 0, 63, 0
1, 15840, Note_on_c, 0, 59, 0
1, 15840, Note_on_c, 0, 54, 0
1, 15840, Note_on_c, 0, 64, 27
1, 15840, Note_on_c, 0, 59, 21
1, 15840, Note_on_c, 0, 55, 21
1, 15840, Note_on_c, 0, 40, 18
1, 15857, Control_c, 0, 64, 0
1, 16160, Control_c, 0, 64, 127
1, 16800, Tempo, 937500
1, 16800, Marker_t, "Animato"
1, 16800, Note_on_c, 0, 40, 0
1, 16800, Note_on_c, 0, 64, 0
1, 16800, Note_on_c, 0, 59, 0
1, 16800, Note_on_c, 0, 55, 0
1, 16800, Note_on_c, 0, 62, 58
1, 16800, Note_on_c, 0, 66, 58
1, 16800, Note_on_c, 0, 50, 48
1, 16800, Note_on_c, 0, 57, 55
1, 16800, Control_c, 0, 64, 0
1, 17280, Tempo, 888889
1, 17280, Note_on_c, 0, 57, 0
1, 17280, Note_on_c, 0, 62, 0
1, 17280, Note_on_c, 0, 66, 0
1, 17280, Note_on_c, 0, 50, 0
1, 17280, Note_on_c, 0, 62, 43
1, 17280, Note_on_c, 0, 67, 63
1, 17280, Note_on_c, 0, 55, 55
1, 17280, Note_on_c, 0, 59, 55
1, 17407, Control_c, 0, 64, 127
1, 17640, Note_on_c, 0, 67, 0
1, 17640, Note_on_c, 0, 69, 54
1, 17760, Note_on_c, 0, 69, 0
1, 17760, Note_on_c, 0, 59, 0
1, 17760, Note_on_c, 0, 62, 0
1, 17760, Note_on_c, 0, 64, 43
1, 17760, Note_on_c, 0, 71, 64
1, 17760, Note_on_c, 0, 61, 49
1, 17776, Control_c, 0, 64, 0
1, 17916, Control_c, 0, 64, 127
1, 18000, Note_on_c, 0, 71, 0
1, 18000, Note_on_c, 0, 67, 55
1, 18210, Note_on_c, 0, 66, 54
1, 18240, Tempo, 851064
1, 18240, Note_on_c, 0, 67, 0
1, 18240, Note_on_c, 0, 55, 0
1, 18240, Note_on_c, 0, 61, 0
1, 18240, Note_on_c, 0, 64, 0
1, 18240, Note_on_c, 0, 71, 67
1, 18240, Note_on_c, 0, 62, 53
1, 18240, Note_on_c, 0, 50, 53
1, 18252, Control_c, 0, 64, 0
1, 18403, Control_c, 0, 64, 127
1, 18480, Tempo, 888889
1, 18480, Note_on_c, 0, 62, 0
1, 18480, Note_on_c, 0, 66, 0
1, 18480, Note_on_c, 0, 71, 0
1, 18480, Note_on_c, 0, 64, 55
1, 18480, Note_on_c, 0, 69, 55
1, 18480, Note_on_c, 0, 57, 45
1, 18720, Note_on_c, 0, 57, 0
1, 18720, Note_on_c, 0, 69, 0
1, 18720, Note_on_c, 0, 64, 0
1, 18720, Note_on_c, 0, 62, 54
1, 18720, Note_on_c, 0, 69, 67
1, 18720, Note_on_c, 0, 54, 39
1, 18738, Control_c, 0, 64, 0
1, 18833, Control_c, 0, 64, 127
1, 18950, Note_on_c, 0, 62, 0
1, 18960, Note_on_c, 0, 69, 0
1, 18960, Note_on_c, 0, 62, 55
1, 19200, Tempo, 888889
1, 19200, Note_on_c, 0, 62, 0
1, 19200, Note_on_c, 0, 50, 0
1, 19200, Note_on_c, 0, 54, 0
1, 19200, Note_on_c, 0, 64, 43
1, 19200, Note_on_c, 0, 72, 63
1, 19200, Note_on_c, 0, 48, 55
1, 19200, Note_on_c, 0, 55, 55
1, 19217, Control_c, 0, 64, 0
1, 19327, Control_c, 0, 64, 127
1, 19560, Note_on_c, 0, 72, 0
1, 19560, Note_on_c, 0, 74, 56
1, 19680, Note_on_c, 0, 74, 0
1, 19680, Note_on_c, 0, 55, 0
1, 19680, Note_on_c, 0, 64, 0
1, 19680, Note_on_c, 0, 66, 46
1, 19680, Note_on_c, 0, 76, 68
1, 19680, Note_on_c, 0, 57, 52
1, 19696, Control_c, 0, 64, 0
1, 19836, Control_c, 0, 64, 127
1, 19920, Note_on_c, 0, 76, 0
1, 19920, Note_on_c, 0, 72, 61
1, 20130, Note_on_c, 0, 67, 61
1, 20160, Tempo, 952381
1, 20160, Note_on_c, 0, 72, 0
1, 20160, Note_on_c, 0, 48, 0
1, 20160, Note_on_c, 0, 57, 0
1, 20160, Note_on_c, 0, 66, 0
1, 20160, Note_on_c, 0, 74, 77
1, 20160, Note_on_c, 0, 59, 60
1, 20160, Note_on_c, 0, 43, 60
1, 20172, Control_c, 0, 64, 0
1, 20323, Control_c, 0, 64, 127
1, 20640, Note_on_c, 0, 59, 0
1, 20640, Note_on_c, 0, 67, 0
1, 20640, Note_on_c, 0, 69, 62
1, 20640, Note_on_c, 0, 62, 44
1, 20658, Control_c, 0, 64, 0
1, 20753, Control_c, 0, 64, 127
1, 20880, Note_on_c, 0, 74, 0
1, 20880, Note_on_c, 0, 74, 77
1, 21000, Tempo, 1250000
1, 21120, Tempo, 888889
1, 21120, Note_on_c, 0, 74, 0
1, 21120, Note_on_c, 0, 62, 0
1, 21120, Note_on_c, 0, 69, 0
1, 21120, Note_on_c, 0, 43, 0
1, 21120, Note_on_c, 0, 71, 49
1, 21120, Note_on_c, 0, 76, 72
1, 21120, Note_on_c, 0, 55, 63
1, 21120, Note_on_c, 0, 67, 63
1, 21128, Control_c, 0, 64, 0
1, 21247, Control_c, 0, 64, 127
1, 21480, Note_on_c, 0, 76, 0
1, 21480, Note_on_c, 0, 78, 62
1, 21600, Note_on_c, 0, 78, 0
1, 21600, Note_on_c, 0, 67, 0
1, 21600, Note_on_c, 0, 71, 0
1, 21600, Note_on_c, 0, 69, 49
1, 21600, Note_on_c, 0, 74, 73
1, 21600, Note_on_c, 0, 66, 56
1, 21616, Control_c, 0, 64, 0
1, 21756, Control_c, 0, 64, 127
1, 21840, Note_on_c, 0, 74, 0
1, 21840, Note_on_c, 0, 71, 63
1, 22080, Note_on_c, 0, 71, 0
1, 22080, Note_on_c, 0, 66, 0
1, 22080, Note_on_c, 0, 69, 0
1, 22080, Note_on_c, 0, 72, 70
1, 22080, Note_on_c, 0, 67, 59
1, 22080, Note_on_c, 0, 64, 60
1, 22092, Control_c, 0, 64, 0
1, 22243, Control_c, 0, 64, 127
1, 22440, Note_on_c, 0, 72, 0
1, 22440, Note_on_c, 0, 74, 56
1, 22560, Note_on_c, 0, 74, 0
1, 22560, Note_on_c, 0, 64, 0
1, 22560, Note_on_c, 0, 67, 0
1, 22560, Note_on_c, 0, 71, 68
1, 22560, Note_on_c, 0, 66, 57
1, 22560, Note_on_c, 0, 62, 44
1, 22578, Control_c, 0, 64, 0
1, 22673, Control_c, 0, 64, 127
1, 22800, Note_on_c, 0, 71, 0
1, 22800, Note_on_c, 0, 67, 57
1, 23040, Tempo, 944882
1, 23040, Note_on_c, 0, 67, 0
1, 23040, Note_on_c, 0, 62, 0
1, 23040, Note_on_c, 0, 66, 0
1, 23040, Note_on_c, 0, 64, 58
1, 23040, Note_on_c, 0, 69, 69
1, 23040, Note_on_c, 0, 60, 44
1, 23054, Control_c, 0, 64, 0
1, 23177, Control_c, 0, 64, 127
1, 23490, Note_on_c, 0, 63, 48
1, 23520, Tempo, 1016949
1, 23520, Note_on_c, 0, 60, 0
1, 23520, Note_on_c, 0, 69, 0
1, 23520, Note_on_c, 0, 64, 0
1, 23520, Note_on_c, 0, 71, 57
1, 23520, Note_on_c, 0, 59, 44
1, 23539, Control_c, 0, 64, 0
1, 23692, Control_c, 0, 64, 127
1, 24000, Tempo, 1100917
1, 24000, Note_on_c, 0, 59, 0
1, 24000, Note_on_c, 0, 55, 0
1, 24000, Note_on_c, 0, 58, 33
1, 24000, Note_on_c, 0, 54, 28
1, 24016, Control_c, 0, 64, 0
1, 24160, Control_c, 0, 64, 127
1, 24480, Tempo, 1176471
1, 24480, Note_on_c, 0, 54, 0
1, 24480, Note_on_c, 0, 63, 0
1, 24480, Note_on_c, 0, 71, 0
1, 24480, Note_on_c, 0, 58, 0
1, 24480, Note_on_c, 0, 71, 46
1, 24480, Note_on_c, 0, 63, 39
1, 24480, Note_on_c, 0, 53, 27
1, 24480, Note_on_c, 0, 57, 32
1, 24495, Control_c, 0, 64, 0
1, 24663, Control_c, 0, 64, 127
1, 24720, Tempo, 1463415
1, 24720, Note_on_c, 0, 57, 0
1, 24720, Note_on_c, 0, 56, 29
1, 24960, Tempo, 1025641
1, 24960, Note_on_c, 0, 56, 0
1, 24960, Note_on_c, 0, 53, 0
1, 24960, Note_on_c, 0, 63, 0
1, 24960, Note_on_c, 0, 71, 0
1, 24960, Note_on_c, 0, 59, 36
1, 24960, Note_on_c, 0, 64, 42
1, 24960, Note_on_c, 0, 52, 25
1, 24960, Note_on_c, 0, 55, 30
1, 24960, Control_c, 0, 64, 0
1, 25087, Control_c, 0, 64, 127
1, 25320, Note_on_c, 0, 64, 0
1, 25320, Note_on_c, 0, 66, 36
1, 25440, Tempo, 952381
1, 25440, Note_on_c, 0, 66, 0
1, 25440, Note_on_c, 0, 55, 0
1, 25440, Note_on_c, 0, 52, 0
1, 25440, Note_on_c, 0, 59, 0
1, 25440, Note_on_c, 0, 59, 29
1, 25440, Note_on_c, 0, 64, 29
1, 25440, Note_on_c, 0, 67, 43
1, 25440, Note_on_c, 0, 62, 30
1, 25440, Note_on_c, 0, 50, 25
1, 25456, Control_c, 0, 64, 0
1, 25596, Control_c, 0, 64, 127
1, 25800, Note_on_c, 0, 67, 0
1, 25800, Note_on_c, 0, 69, 37
1, 25920, Note_on_c, 0, 69, 0
1, 25920, Note_on_c, 0, 50, 0
1, 25920, Note_on_c, 0, 59, 0
1, 25920, Note_on_c, 0, 64, 0
1, 25920, Note_on_c, 0, 62, 0
1, 25920, Note_on_c, 0, 64, 36
1, 25920, Note_on_c, 0, 67, 36
1, 25920, Note_on_c, 0, 71, 45
1, 25920, Note_on_c, 0, 49, 25
1, 25920, Note_on_c, 0, 61, 30
1, 25932, Control_c, 0, 64, 0
1, 26083, Control_c, 0, 64, 127
1, 26280, Note_on_c, 0, 71, 0
1, 26280, Note_on_c, 0, 76, 37
1, 26400, Note_on_c, 0, 76, 0
1, 26400, Note_on_c, 0, 61, 0
1, 26400, Note_on_c, 0, 64, 0
1, 26400, Note_on_c, 0, 67, 0
1, 26400, Note_on_c, 0, 49, 0
1, 26400, Note_on_c, 0, 64, 36
1, 26400, Note_on_c, 0, 72, 36
1, 26400, Note_on_c, 0, 79, 45
1, 26400, Note_on_c, 0, 48, 22
1, 26400, Note_on_c, 0, 60, 26
1, 26418, Control_c, 0, 64, 0
1, 26513, Control_c, 0, 64, 127
1, 26760, Note_on_c, 0, 79, 0
1, 26760, Note_on_c, 0, 78, 37
1, 26880, Tempo, 937500
1, 26880, Note_on_c, 0, 78, 0
1, 26880, Note_on_c, 0, 60, 0
1, 26880, Note_on_c, 0, 64, 0
1, 26880, Note_on_c, 0, 72, 0
1, 26880, Note_on_c, 0, 48, 0
1, 26880, Note_on_c, 0, 71, 40
1, 26880, Note_on_c, 0, 66, 40
1, 26880, Note_on_c, 0, 74, 50
1, 26880, Note_on_c, 0, 47, 25
1, 26880, Note_on_c, 0, 59, 30
1, 26891, Control_c, 0, 64, 0
1, 26972, Control_c, 0, 64, 127
1, 27240, Note_on_c, 0, 74, 0
1, 27240, Note_on_c, 0, 72, 43
1, 27360, Note_on_c, 0, 72, 0
1, 27360, Note_on_c, 0, 59, 0
1, 27360, Note_on_c, 0, 71, 0
1, 27360, Note_on_c, 0, 66, 0
1, 27360, Note_on_c, 0, 47, 0
1, 27360, Note_on_c, 0, 60, 43
1, 27360, Note_on_c, 0, 76, 54
1, 27360, Note_on_c, 0, 69, 43
1, 27360, Note_on_c, 0, 45, 27
1, 27360, Note_on_c, 0, 57, 32
1, 27371, Control_c, 0, 64, 0
1, 27494, Control_c, 0, 64, 127
1, 27720, Tempo, 1100917
1, 27720, Note_on_c, 0, 76, 0
1, 27720, Note_on_c, 0, 74, 46
1, 27840, Tempo, 1071429
1, 27840, Note_on_c, 0, 74, 0
1, 27840, Note_on_c, 0, 57, 0
1, 27840, Note_on_c, 0, 60, 0
1, 27840, Note_on_c, 0, 69, 0
1, 27840, Note_on_c, 0, 45, 0
1, 27840, Note_on_c, 0, 59, 43
1, 27840, Note_on_c, 0, 71, 40
1, 27840, Note_on_c, 0, 63, 32
1, 27840, Note_on_c, 0, 43, 25
1, 27840, Note_on_c, 0, 55, 30
1, 27853, Control_c, 0, 64, 0
1, 27939, Control_c, 0, 64, 127
1, 28320, Tempo, 1008403
1, 28320, Note_on_c, 0, 55, 0
1, 28320, Note_on_c, 0, 59, 0
1, 28320, Note_on_c, 0, 43, 0
1, 28320, Note_on_c, 0, 57, 43
1, 28320, Note_on_c, 0, 42, 22
1, 28320, Note_on_c, 0, 54, 26
1, 28332, Control_c, 0, 64, 0
1, 28560, Note_on_c, 0, 71, 0
1, 28560, Note_on_c, 0, 72, 36
1, 28800, Tempo, 975610
1, 28800, Note_on_c, 0, 72, 0
1, 28800, Note_on_c, 0, 54, 0
1, 28800, Note_on_c, 0, 63, 0
1, 28800, Note_on_c, 0, 57, 0
1, 28800, Note_on_c, 0, 42, 0
1, 28800, Note_on_c, 0, 60, 25
1, 28800, Note_on_c, 0, 69, 32
1, 28800, Note_on_c, 0, 65, 25
1, 28800, Note_on_c, 0, 41, 18
1, 28800, Note_on_c, 0, 53, 22
1, 28857, Control_c, 0, 64, 127
1, 29160, Note_on_c, 0, 69, 0
1, 29160, Note_on_c, 0, 71, 27
1, 29280, Note_on_c, 0, 71, 0
1, 29280, Note_on_c, 0, 53, 0
1, 29280, Note_on_c, 0, 60, 0
1, 29280, Note_on_c, 0, 65, 0
1, 29280, Note_on_c, 0, 41, 0
1, 29280, Note_on_c, 0, 59, 27
1, 29280, Note_on_c, 0, 64, 27
1, 29280, Note_on_c, 0, 67, 33
1, 29280, Note_on_c, 0, 48, 19
1, 29280, Note_on_c, 0, 36, 16
1, 29295, Control_c, 0, 64, 0
1, 29464, Control_c, 0, 64, 127
1, 29640, Note_on_c, 0, 67, 0
1, 29640, Note_on_c, 0, 69, 29
1, 29760, Tempo, 1034483
1, 29760, Note_on_c, 0, 69, 0
1, 29760, Note_on_c, 0, 36, 0
1, 29760, Note_on_c, 0, 59, 0
1, 29760, Note_on_c, 0, 64, 0
1, 29760, Note_on_c, 0, 48, 0
1, 29760, Note_on_c, 0, 57, 27
1, 29760, Note_on_c, 0, 62, 27
1, 29760, Note_on_c, 0, 66, 33
1, 29760, Note_on_c, 0, 38, 18
1, 29760, Note_on_c, 0, 50, 22
1, 29776, Control_c, 0, 64, 0
1, 29852, Control_c, 0, 64, 127
1, 30120, Note_on_c, 0, 66, 0
1, 30120, Note_on_c, 0, 67, 27
1, 30240, Note_on_c, 0, 67, 0
1, 30240, Note_on_c, 0, 50, 0
1, 30240, Note_on_c, 0, 57, 0
1, 30240, Note_on_c, 0, 62, 0
1, 30240, Note_on_c, 0, 38, 0
1, 30240, Note_on_c, 0, 55, 25
1, 30240, Note_on_c, 0, 64, 32
1, 30240, Note_on_c, 0, 60, 25
1, 30240, Note_on_c, 0, 45, 19
1, 30240, Note_on_c, 0, 33, 16
1, 30252, Control_c, 0, 64, 0
1, 30346, Control_c, 0, 64, 127
1, 30600, Tempo, 1142857
1, 30600, Note_on_c, 0, 64, 0
1, 30600, Note_on_c, 0, 66, 26
1, 30720, Tempo, 1090909
1, 30720, Note_on_c, 0, 66, 0
1, 30720, Note_on_c, 0, 33, 0
1, 30720, Note_on_c, 0, 55, 0
1, 30720, Note_on_c, 0, 60, 0
1, 30720, Note_on_c, 0, 45, 0
1, 30720, Note_on_c, 0, 54, 24
1, 30720, Note_on_c, 0, 63, 30
1, 30720, Note_on_c, 0, 59, 24
1, 30720, Note_on_c, 0, 47, 20
1, 30720, Note_on_c, 0, 35, 16
1, 30729, Control_c, 0, 64, 0
1, 30787, Control_c, 0, 64, 127
1, 31200, Note_on_c, 0, 35, 0
1, 31200, Note_on_c, 0, 59, 0
1, 31200, Note_on_c, 0, 54, 0
1, 31200, Note_on_c, 0, 63, 0
1, 31200, Note_on_c, 0, 47, 0
1, 31200, Note_on_c, 0, 64, 27
1, 31200, Note_on_c, 0, 59, 21
1, 31200, Note_on_c, 0, 55, 21
1, 31200, Note_on_c, 0, 28, 13
1, 31200, Note_on_c, 0, 40, 18
1, 31217, Control_c, 0, 64, 0
1, 31440, Control_c, 0, 64, 127
1, 32160, Tempo, 937500
1, 32160, Marker_t, "Animato Wiederholung"
1, 32160, Note_on_c, 0, 40, 0
1, 32160, Note_on_c, 0, 55, 0
1, 32160, Note_on_c, 0, 64, 0
1, 32160, Note_on_c, 0, 59, 0
1, 32160, Note_on_c, 0, 28, 0
1, 32160, Note_on_c, 0, 62, 58
1, 32160, Note_on_c, 0, 66, 58
1, 32160, Note_on_c, 0, 50, 48
1, 32160, Note_on_c, 0, 57, 55
1, 32160, Control_c, 0, 64, 0
1, 32160, Control_c, 0, 64, 0
1, 32640, Tempo, 888889
1, 32640, Note_on_c, 0, 57, 0
1, 32640, Note_on_c, 0, 62, 0
1, 32640, Note_on_c, 0, 66, 0
1, 32640, Note_on_c, 0, 50, 0
1, 32640, Note_on_c, 0, 62, 43
1, 32640, Note_on_c, 0, 67, 63
1, 32640, Note_on_c, 0, 55, 55
1, 32640, Note_on_c, 0, 59, 55
1, 32767, Control_c, 0, 64, 127
1, 33000, Note_on_c, 0, 67, 0
1, 33000, Note_on_c, 0, 69, 54
1, 33120, Note_on_c, 0, 69, 0
1, 33120, Note_on_c, 0, 59, 0
1, 33120, Note_on_c, 0, 62, 0
1, 33120, Note_on_c, 0, 64, 43
1, 33120, Note_on_c, 0, 71, 64
1, 33120, Note_on_c, 0, 61, 49
1, 33136, Control_c, 0, 64, 0
1, 33276, Control_c, 0, 64, 127
1, 33360, Note_on_c, 0, 71, 0
1, 33360, Note_on_c, 0, 67, 55
1, 33570, Note_on_c, 0, 66, 54
1, 33600, Tempo, 851064
1, 33600, Note_on_c, 0, 67, 0
1, 33600, Note_on_c, 0, 55, 0
1, 33600, Note_on_c, 0, 61, 0
1, 33600, Note_on_c, 0, 64, 0
1, 33600, Note_on_c, 0, 71, 67
1, 33600, Note_on_c, 0, 62, 53
1, 33600, Note_on_c, 0, 50, 53
1, 33612, Control_c, 0, 64, 0
1, 33763, Control_c, 0, 64, 127
1, 33840, Tempo, 888889
1, 33840, Note_on_c, 0, 62, 0
1, 33840, Note_on_c, 0, 66, 0
1, 33840, Note_on_c, 0, 71, 0
1, 33840, Note_on_c, 0, 64, 55
1, 33840, Note_on_c, 0, 69, 55
1, 33840, Note_on_c, 0, 57, 45
1, 34080, Note_on_c, 0, 57, 0
1, 34080, Note_on_c, 0, 69, 0
1, 34080, Note_on_c, 0, 64, 0
1, 34080, Note_on_c, 0, 62, 54
1, 34080, Note_on_c, 0, 69, 67
1, 34080, Note_on_c, 0, 54, 39
1, 34098, Control_c, 0, 64, 0
1, 34193, Control_c, 0, 64, 127
1, 34310, Note_on_c, 0, 62, 0
1, 34320, Note_on_c, 0, 69, 0
1, 34320, Note_on_c, 0, 62, 55
1, 34560, Tempo, 888889
1, 34560, Note_on_c, 0, 62, 0
1, 34560, Note_on_c, 0, 50, 0
1, 34560, Note_on_c, 0, 54, 0
1, 34560, Note_on_c, 0, 64, 43
1, 34560, Note_on_c, 0, 72, 63
1, 34560, Note_on_c, 0, 48, 55
1, 34560, Note_on_c, 0, 55, 55
1, 34577, Control_c, 0, 64, 0
1, 34687, Control_c, 0, 64, 127
1, 34920, Note_on_c, 0, 72, 0
1, 34920, Note_on_c, 0, 74, 56
1, 35040, Note_on_c, 0, 74, 0
1, 35040, Note_on_c, 0, 55, 0
1, 35040, Note_on_c, 0, 64, 0
1, 35040, Note_on_c, 0, 66, 46
1, 35040, Note_on_c, 0, 76, 68
1, 35040, Note_on_c, 0, 57, 52
1, 35056, Control_c, 0, 64, 0
1, 35196, Control_c, 0, 64, 127
1, 35280, Note_on_c, 0, 76, 0
1, 35280, Note_on_c, 0, 72, 61
1, 35490, Note_on_c, 0, 67, 61
1, 35520, Tempo, 952381
1, 35520, Note_on_c, 0, 72, 0
1, 35520, Note_on_c, 0, 48, 0
1, 35520, Note_on_c, 0, 57, 0
1, 35520, Note_on_c, 0, 66, 0
1, 35520, Note_on_c, 0, 74, 77
1, 35520, Note_on_c, 0, 59, 60
1, 35520, Note_on_c, 0, 43, 60
1, 35532, Control_c, 0, 64, 0
1, 35683, Control_c, 0, 64, 127
1, 36000, Note_on_c, 0, 59, 0
1, 36000, Note_on_c, 0, 67, 0
1, 36000, Note_on_c, 0, 69, 62
1, 36000, Note_on_c, 0, 62, 44
1, 36018, Control_c, 0, 64, 0
1, 36113, Control_c, 0, 64, 127
1, 36240, Note_on_c, 0, 74, 0
1, 36240, Note_on_c, 0, 74, 77
1, 36360, Tempo, 1250000
1, 36480, Tempo, 888889
1, 36480, Note_on_c, 0, 74, 0
1, 36480, Note_on_c, 0, 62, 0
1, 36480, Note_on_c, 0, 69, 0
1, 36480, Note_on_c, 0, 43, 0
1, 36480, Note_on_c, 0, 71, 49
1, 36480, Note_on_c, 0, 76, 72
1, 36480, Note_on_c, 0, 55, 63
1, 36480, Note_on_c, 0, 67, 63
1, 36488, Control_c, 0, 64, 0
1, 36607, Control_c, 0, 64, 127
1, 36840, Note_on_c, 0, 76, 0
1, 36840, Note_on_c, 0, 78, 62
1, 36960, Note_on_c, 0, 78, 0
1, 36960, Note_on_c, 0, 67, 0
1, 36960, Note_on_c, 0, 71, 0
1, 36960, Note_on_c, 0, 69, 49
1, 36960, Note_on_c, 0, 74, 73
1, 36960, Note_on_c, 0, 66, 56
1, 36976, Control_c, 0, 64, 0
1, 37116, Control_c, 0, 64, 127
1, 37200, Note_on_c, 0, 74, 0
1, 37200, Note_on_c, 0, 71, 63
1, 37440, Note_on_c, 0, 71, 0
1, 37440, Note_on_c, 0, 66, 0
1, 37440, Note_on_c, 0, 69, 0
1, 37440, Note_on_c, 0, 72, 70
1, 37440, Note_on_c, 0, 67, 59
1, 37440, Note_on_c, 0, 64, 60
1, 37452, Control_c, 0, 64, 0
1, 37603, Control_c, 0, 64, 127
1, 37800, Note_on_c, 0, 72, 0
1, 37800, Note_on_c, 0, 74, 56
1, 37920, Note_on_c, 0, 74, 0
1, 37920, Note_on_c, 0, 64, 0
1, 37920, Note_on_c, 0, 67, 0
1, 37920, Note_on_c, 0, 71, 68
1, 37920, Note_on_c, 0, 66, 57
1, 37920, Note_on_c, 0, 62, 44
1, 37938, Control_c, 0, 64, 0
1, 38033, Control_c, 0, 64, 127
1, 38160, Note_on_c, 0, 71, 0
1, 38160, Note_on_c, 0, 67, 57
1, 38400, Tempo, 944882
1, 38400, Note_on_c, 0, 67, 0
1, 38400, Note_on_c, 0, 62, 0
1, 38400, Note_on_c, 0, 66, 0
1, 38400, Note_on_c, 0, 64, 58
1, 38400, Note_on_c, 0, 69, 69
1, 38400, Note_on_c, 0, 60, 44
1, 38414, Control_c, 0, 64, 0
1, 38537, Control_c, 0, 64, 127
1, 38850, Note_on_c, 0, 63, 48
1, 38880, Tempo, 1016949
1, 38880, Note_on_c, 0, 60, 0
1, 38880, Note_on_c, 0, 69, 0
1, 38880, Note_on_c, 0, 64, 0
1, 38880, Note_on_c, 0, 71, 57
1, 38880, Note_on_c, 0, 59, 44
1, 38899, Control_c, 0, 64, 0
1, 39052, Control_c, 0, 64, 127
1, 39360, Tempo, 1100917
1, 39360, Note_on_c, 0, 59, 0
1, 39360, Note_on_c, 0, 55, 0
1, 39360, Note_on_c, 0, 58, 33
1, 39360, Note_on_c, 0, 54, 28
1, 39376, Control_c, 0, 64, 0
1, 39520, Control_c, 0, 64, 127
1, 39840, Tempo, 1176471
1, 39840, Note_on_c, 0, 54, 0
1, 39840, Note_on_c, 0, 63, 0
1, 39840, Note_on_c, 0, 71, 0
1, 39840, Note_on_c, 0, 58, 0
1, 39840, Note_on_c, 0, 71, 46
1, 39840, Note_on_c, 0, 63, 39
1, 39840, Note_on_c, 0, 53, 27
1, 39840, Note_on_c, 0, 57, 32
1, 39855, Control_c, 0, 64, 0
1, 40023, Control_c, 0, 64, 127
1, 40080, Tempo, 1463415
1, 40080, Note_on_c, 0, 57, 0
1, 40080, Note_on_c, 0, 56, 29
1, 40320, Tempo, 1025641
1, 40320, Note_on_c, 0, 56, 0
1, 40320, Note_on_c, 0, 53, 0
1, 40320, Note_on_c, 0, 63, 0
1, 40320, Note_on_c, 0, 71, 0
1, 40320, Note_on_c, 0, 59, 36
1, 40320, Note_on_c, 0, 64, 42
1, 40320, Note_on_c, 0, 52, 25
1, 40320, Note_on_c, 0, 55, 30
1, 40320, Control_c, 0, 64, 0
1, 40447, Control_c, 0, 64, 127
1, 40680, Note_on_c, 0, 64, 0
1, 40680, Note_on_c, 0, 66, 36
1, 40800, Tempo, 952381
1, 40800, Note_on_c, 0, 66, 0
1, 40800, Note_on_c, 0, 55, 0
1, 40800, Note_on_c, 0, 52, 0
1, 40800, Note_on_c, 0, 59, 0
1, 40800, Note_on_c, 0, 59, 29
1, 40800, Note_on_c, 0, 64, 29
1, 40800, Note_on_c, 0, 67, 43
1, 40800, Note_on_c, 0, 62, 30
1, 40800, Note_on_c, 0, 50, 25
1, 40816, Control_c, 0, 64, 0
1, 40956, Control_c, 0, 64, 127
1, 41160, Note_on_c, 0, 67, 0
1, 41160, Note_on_c, 0, 69, 37
1, 41280, Note_on_c, 0, 69, 0
1, 41280, Note_on_c, 0, 50, 0
1, 41280, Note_on_c, 0, 59, 0
1, 41280, Note_on_c, 0, 64, 0
1, 41280, Note_on_c, 0, 62, 0
1, 41280, Note_on_c, 0, 64, 36
1, 41280, Note_on_c, 0, 67, 36
1, 41280, Note_on_c, 0, 71, 45
1, 41280, Note_on_c, 0, 49, 25
1, 41280, Note_on_c, 0, 61, 30
1, 41292, Control_c, 0, 64, 0
1, 41443, Control_c, 0, 64, 127
1, 41640, Note_on_c, 0, 71, 0
1, 41640, Note_on_c, 0, 76, 37
1, 41760, Note_on_c, 0, 76, 0
1, 41760, Note_on_c, 0, 61, 0
1, 41760, Note_on_c, 0, 64, 0
1, 41760, Note_on_c, 0, 67, 0
1, 41760, Note_on_c, 0, 49, 0
1, 41760, Note_on_c, 0, 64, 36
1, 41760, Note_on_c, 0, 72, 36
1, 41760, Note_on_c, 0, 79, 45
1, 41760, Note_on_c, 0, 48, 22
1, 41760, Note_on_c, 0, 60, 26
1, 41778, Control_c, 0, 64, 0
1, 41873, Control_c, 0, 64, 127
1, 42120, Note_on_c, 0, 79, 0
1, 42120, Note_on_c, 0, 78, 37
1, 42240, Tempo, 937500
1, 42240, Note_on_c, 0, 78, 0
1, 42240, Note_on_c, 0, 60, 0
1, 42240, Note_on_c, 0, 64, 0
1, 42240, Note_on_c, 0, 72, 0
1, 42240, Note_on_c, 0, 48, 0
1, 42240, Note_on_c, 0, 71, 40
1, 42240, Note_on_c, 0, 66, 40
1, 42240, Note_on_c, 0, 74, 50
1, 42240, Note_on_c, 0, 47, 25
1, 42240, Note_on_c, 0, 59, 30
1, 42251, Control_c, 0, 64, 0
1, 42332, Control_c, 0, 64, 127
1, 42600, Note_on_c, 0, 74, 0
1, 42600, Note_on_c, 0, 72, 43
1, 42720, Note_on_c, 0, 72, 0
1, 42720, Note_on_c, 0, 59, 0
1, 42720, Note_on_c, 0, 71, 0
1, 42720, Note_on_c, 0, 66, 0
1, 42720, Note_on_c, 0, 47, 0
1, 42720, Note_on_c, 0, 60, 43
1, 42720, Note_on_c, 0, 76, 54
1, 42720, Note_on_c, 0, 69, 43
1, 42720, Note_on_c, 0, 45, 27
1, 42720, Note_on_c, 0, 57, 32
1, 42731, Control_c, 0, 64, 0
1, 42854, Control_c, 0, 64, 127
1, 43080, Tempo, 1100917
1, 43080, Note_on_c, 0, 76, 0
1, 43080, Note_on_c, 0, 74, 46
1, 43200, Tempo, 1071429
1, 43200, Note_on_c, 0, 74, 0
1, 43200, Note_on_c, 0, 57, 0
1, 43200, Note_on_c, 0, 60, 0
1, 43200, Note_on_c, 0, 69, 0
1, 43200, Note_on_c, 0, 45, 0
1, 43200, Note_on_c, 0, 59, 43
1, 43200, Note_on_c, 0, 71, 40
1, 43200, Note_on_c, 0, 63, 32
1, 43200, Note_on_c, 0, 43, 25
1, 43200, Note_on_c, 0, 55, 30
1, 43213, Control_c, 0, 64, 0
1, 43299, Control_c, 0, 64, 127
1, 43680, Tempo, 1008403
1, 43680, Note_on_c, 0, 55, 0
1, 43680, Note_on_c, 0, 59, 0
1, 43680, Note_on_c, 0, 43, 0
1, 43680, Note_on_c, 0, 57, 43
1, 43680, Note_on_c, 0, 42, 22
1, 43680, Note_on_c, 0, 54, 26
1, 43692, Control_c, 0, 64, 0
1, 43920, Note_on_c, 0, 71, 0
1, 43920, Note_on_c, 0, 72, 36
1, 44160, Tempo, 975610
1, 44160, Note_on_c, 0, 72, 0
1, 44160, Note_on_c, 0, 54, 0
1, 44160, Note_on_c, 0, 63, 0
1, 44160, Note_on_c, 0, 57, 0
1, 44160, Note_on_c, 0, 42, 0
1, 44160, Note_on_c, 0, 60, 25
1, 44160, Note_on_c, 0, 69, 32
1, 44160, Note_on_c, 0, 65, 25
1, 44160, Note_on_c, 0, 41, 18
1, 44160, Note_on_c, 0, 53, 22
1, 44217, Control_c, 0, 64, 127
1, 44520, Note_on_c, 0, 69, 0
1, 44520, Note_on_c, 0, 71, 27
1, 44640, Note_on_c, 0, 71, 0
1, 44640, Note_on_c, 0, 53, 0
1, 44640, Note_on_c, 0, 60, 0
1, 44640, Note_on_c, 0, 65, 0
1, 44640, Note_on_c, 0, 41, 0
1, 44640, Note_on_c, 0, 59, 27
1, 44640, Note_on_c, 0, 64, 27
1, 44640, Note_on_c, 0, 67, 33
1, 44640, Note_on_c, 0, 48, 19
1, 44640, Note_on_c, 0, 36, 16
1, 44655, Control_c, 0, 64, 0
1, 44824, Control_c, 0, 64, 127
1, 45000, Note_on_c, 0, 67, 0
1, 45000, Note_on_c, 0, 69, 29
1, 45120, Tempo, 1034483
1, 45120, Note_on_c, 0, 69, 0
1, 45120, Note_on_c, 0, 36, 0
1, 45120, Note_on_c, 0, 59, 0
1, 45120, Note_on_c, 0, 64, 0
1, 45120, Note_on_c, 0, 48, 0
1, 45120, Note_on_c, 0, 57, 27
1, 45120, Note_on_c, 0, 62, 27
1, 45120, Note_on_c, 0, 66, 33
1, 45120, Note_on_c, 0, 38, 18
1, 45120, Note_on_c, 0, 50, 22
1, 45136, Control_c, 0, 64, 0
1, 45212, Control_c, 0, 64, 127
1, 45480, Note_on_c, 0, 66, 0
1, 45480, Note_on_c, 0, 67, 27
1, 45600, Note_on_c, 0, 67, 0
1, 45600, Note_on_c, 0, 50, 0
1, 45600, Note_on_c, 0, 57, 0
1, 45600, Note_on_c, 0, 62, 0
1, 45600, Note_on_c, 0, 38, 0
1, 45600, Note_on_c, 0, 55, 25
1, 45600, Note_on_c, 0, 64, 32
1, 45600, Note_on_c, 0, 60, 25
1, 45600, Note_on_c, 0, 45, 19
1, 45600, Note_on_c, 0, 33, 16
1, 45612, Control_c, 0, 64, 0
1, 45706, Control_c, 0, 64, 127
1, 45960, Tempo, 1142857
1, 45960, Note_on_c, 0, 64, 0
1, 45960, Note_on_c, 0, 66, 26
1, 46080, Tempo, 1090909
1, 46080, Note_on_c, 0, 66, 0
1, 46080, Note_on_c, 0, 33, 0
1, 46080, Note_on_c, 0, 55, 0
1, 46080, Note_on_c, 0, 60, 0
1, 46080, Note_on_c, 0, 45, 0
1, 46080, Control_c, 0, 64, 0
1, 46537, Control_c, 0, 64, 127
1, 46560, Note_on_c, 0, 54, 18
1, 46560, Note_on_c, 0, 63, 22
1, 46560, Note_on_c, 0, 59, 18
1, 46560, Note_on_c, 0, 47, 15
1, 46560, Note_on_c, 0, 35, 12
1, 47040, Note_on_c, 0, 35, 0
1, 47040, Note_on_c, 0, 59, 0
1, 47040, Note_on_c, 0, 54, 0
1, 47040, Note_on_c, 0, 63, 0
1, 47040, Note_on_c, 0, 47, 0
1, 47292, Control_c, 0, 64, 0
1, 48000, Time_signature, 3, 2, 24, 8
1, 48000, Key_signature, 4, "major"
1, 48000, Tempo, 262697
1, 48000, Note_on_c, 0, 47, 24
1, 48000, Note_on_c, 0, 40, 24
1, 48007, Marker_t, "Allegro brioso"
1, 48054, Control_c, 0, 64, 127
1, 49440, Note_on_c, 0, 40, 0
1, 49440, Note_on_c, 0, 47, 0
1, 49440, Note_on_c, 0, 47, 21
1, 49440, Note_on_c, 0, 40, 21
1, 50880, Note_on_c, 0, 40, 0
1, 50880, Note_on_c, 0, 47, 0
1, 50880, Note_on_c, 0, 47, 21
1, 50880, Note_on_c, 0, 40, 21
1, 50880, Control_c, 0, 64, 0
1, 51360, Note_on_c, 0, 68, 34
1, 51360, Note_on_c, 0, 64, 30
1, 51403, Control_c, 0, 64, 127
1, 51600, Note_on_c, 0, 68, 0
1, 51600, Note_on_c, 0, 71, 28
1, 51840, Tempo, 258732
1, 51840, Note_on_c, 0, 71, 0
1, 51840, Note_on_c, 0, 64, 0
1, 51840, Note_on_c, 0, 64, 29
1, 51840, Note_on_c, 0, 68, 33
1, 52080, Note_on_c, 0, 68, 0
1, 52080, Note_on_c, 0, 71, 25
1, 52320, Tempo, 253807
1, 52320, Note_on_c, 0, 71, 0
1, 52320, Note_on_c, 0, 64, 0
1, 52320, Note_on_c, 0, 40, 0
1, 52320, Note_on_c, 0, 47, 0
1, 52320, Note_on_c, 0, 73, 43
1, 52320, Note_on_c, 0, 40, 21
1, 52320, Note_on_c, 0, 47, 21
1, 52320, Control_c, 0, 64, 0
1, 52504, Control_c, 0, 64, 127
1, 52560, Note_on_c, 0, 73, 0
1, 52560, Note_on_c, 0, 69, 25
1, 52800, Note_on_c, 0, 69, 0
1, 52800, Note_on_c, 0, 61, 32
1, 52800, Note_on_c, 0, 73, 36
1, 53040, Note_on_c, 0, 73, 0
1, 53040, Note_on_c, 0, 69, 25
1, 53280, Tempo, 274098
1, 53280, Note_on_c, 0, 69, 0
1, 53280, Note_on_c, 0, 61, 0
1, 53280, Note_on_c, 0, 61, 32
1, 53280, Note_on_c, 0, 66, 36
1, 53294, Control_c, 0, 64, 0
1, 53400, Note_on_c, 0, 66, 0
1, 53400, Note_on_c, 0, 61, 0
1, 53760, Tempo, 262123
1, 53760, Note_on_c, 0, 47, 0
1, 53760, Note_on_c, 0, 40, 0
1, 53760, Note_on_c, 0, 40, 21
1, 53760, Note_on_c, 0, 47, 21
1, 54240, Note_on_c, 0, 66, 34
1, 54240, Note_on_c, 0, 61, 30
1, 54339, Control_c, 0, 64, 127
1, 54480, Note_on_c, 0, 66, 0
1, 54480, Note_on_c, 0, 69, 28
1, 54720, Tempo, 267977
1, 54720, Note_on_c, 0, 69, 0
1, 54720, Note_on_c, 0, 61, 0
1, 54720, Note_on_c, 0, 61, 29
1, 54720, Note_on_c, 0, 66, 33
1, 54960, Note_on_c, 0, 66, 0
1, 54960, Note_on_c, 0, 69, 25
1, 55200, Tempo, 287219
1, 55200, Note_on_c, 0, 69, 0
1, 55200, Note_on_c, 0, 61, 0
1, 55200, Note_on_c, 0, 47, 0
1, 55200, Note_on_c, 0, 40, 0
1, 55200, Note_on_c, 0, 71, 42
1, 55200, Note_on_c, 0, 40, 21
1, 55200, Note_on_c, 0, 47, 21
1, 55211, Control_c, 0, 64, 0
1, 55384, Control_c, 0, 64, 127
1, 55680, Tempo, 297915
1, 55680, Note_on_c, 0, 63, 30
1, 55680, Note_on_c, 0, 68, 30
1, 55800, Note_on_c, 0, 68, 0
1, 55800, Note_on_c, 0, 63, 0
1, 56160, Note_on_c, 0, 63, 30
1, 56160, Note_on_c, 0, 68, 30
1, 56280, Note_on_c, 0, 68, 0
1, 56280, Note_on_c, 0, 63, 0
1, 56428, Control_c, 0, 64, 0
1, 56640, Tempo, 262697
1, 56640, Note_on_c, 0, 47, 0
1, 56640, Note_on_c, 0, 40, 0
1, 56640, Note_on_c, 0, 71, 0
1, 56640, Note_on_c, 0, 47, 21
1, 56640, Note_on_c, 0, 40, 21
1, 57120, Note_on_c, 0, 64, 34
1, 57120, Note_on_c, 0, 63, 30
1, 57304, Control_c, 0, 64, 127
1, 57360, Note_on_c, 0, 64, 0
1, 57360, Note_on_c, 0, 68, 28
1, 57600, Tempo, 258176
1, 57600, Note_on_c, 0, 68, 0
1, 57600, Note_on_c, 0, 63, 0
1, 57600, Note_on_c, 0, 63, 29
1, 57600, Note_on_c, 0, 64, 33
1, 57840, Note_on_c, 0, 64, 0
1, 57840, Note_on_c, 0, 68, 25
1, 58080, Tempo, 253807
1, 58080, Note_on_c, 0, 68, 0
1, 58080, Note_on_c, 0, 63, 0
1, 58080, Note_on_c, 0, 40, 0
1, 58080, Note_on_c, 0, 47, 0
1, 58080, Note_on_c, 0, 69, 46
1, 58080, Note_on_c, 0, 40, 21
1, 58080, Note_on_c, 0, 47, 21
1, 58089, Control_c, 0, 64, 0
1, 58260, Control_c, 0, 64, 127
1, 58320, Note_on_c, 0, 69, 0
1, 58320, Note_on_c, 0, 66, 25
1, 58560, Note_on_c, 0, 66, 0
1, 58560, Note_on_c, 0, 57, 32
1, 58560, Note_on_c, 0, 69, 36
1, 58800, Note_on_c, 0, 69, 0
1, 58800, Note_on_c, 0, 66, 25
1, 59040, Tempo, 285171
1, 59040, Note_on_c, 0, 66, 0
1, 59040, Note_on_c, 0, 57, 0
1, 59040, Note_on_c, 0, 57, 32
1, 59040, Note_on_c, 0, 61, 36
1, 59047, Control_c, 0, 64, 0
1, 59160, Note_on_c, 0, 61, 0
1, 59160, Note_on_c, 0, 57, 0
1, 59520, Tempo, 262123
1, 59520, Note_on_c, 0, 47, 0
1, 59520, Note_on_c, 0, 40, 0
1, 59520, Note_on_c, 0, 40, 21
1, 59520, Note_on_c, 0, 47, 21
1, 60000, Note_on_c, 0, 59, 34
1, 60000, Note_on_c, 0, 54, 30
1, 60000, Control_c, 0, 64, 127
1, 60240, Note_on_c, 0, 59, 0
1, 60240, Note_on_c, 0, 63, 28
1, 60480, Tempo, 267977
1, 60480, Note_on_c, 0, 63, 0
1, 60480, Note_on_c, 0, 54, 0
1, 60480, Note_on_c, 0, 54, 29
1, 60480, Note_on_c, 0, 59, 33
1, 60720, Note_on_c, 0, 59, 0
1, 60720, Note_on_c, 0, 63, 25
1, 60960, Tempo, 288600
1, 60960, Note_on_c, 0, 63, 0
1, 60960, Note_on_c, 0, 54, 0
1, 60960, Note_on_c, 0, 47, 0
1, 60960, Note_on_c, 0, 40, 0
1, 60960, Note_on_c, 0, 64, 42
1, 60960, Note_on_c, 0, 40, 21
1, 60960, Note_on_c, 0, 47, 21
1, 60969, Control_c, 0, 64, 0
1, 61140, Control_c, 0, 64, 127
1, 61440, Tempo, 299401
1, 61440, Note_on_c, 0, 56, 30
1, 61440, Note_on_c, 0, 59, 30
1, 61560, Note_on_c, 0, 59, 0
1, 61560, Note_on_c, 0, 56, 0
1, 61920, Tempo, 299401
1, 61920, Note_on_c, 0, 56, 30
1, 61920, Note_on_c, 0, 59, 30
1, 62040, Note_on_c, 0, 59, 0
1, 62040, Note_on_c, 0, 56, 0
1, 62160, Control_c, 0, 64, 0
1, 62400, Tempo, 262697
1, 62400, Marker_t, "Wiederholung Beginn1"
1, 62400, Note_on_c, 0, 47, 0
1, 62400, Note_on_c, 0, 40, 0
1, 62400, Note_on_c, 0, 64, 0
1, 62400, Note_on_c, 0, 35, 21
1, 62400, Control_c, 0, 64, 0
1, 62880, Note_on_c, 0, 63, 39
1, 62880, Note_on_c, 0, 59, 30
1, 62880, Note_on_c, 0, 42, 21
1, 62923, Control_c, 0, 64, 127
1, 63120, Note_on_c, 0, 63, 0
1, 63120, Note_on_c, 0, 66, 32
1, 63360, Tempo, 258732
1, 63360, Note_on_c, 0, 66, 0
1, 63360, Note_on_c, 0, 42, 0
1, 63360, Note_on_c, 0, 59, 0
1, 63360, Note_on_c, 0, 59, 29
1, 63360, Note_on_c, 0, 63, 37
1, 63360, Note_on_c, 0, 42, 21
1, 63586, Note_on_c, 0, 66, 28
1, 63600, Note_on_c, 0, 63, 0
1, 63826, Note_on_c, 0, 66, 0
1, 63840, Tempo, 253807
1, 63840, Note_on_c, 0, 35, 0
1, 63840, Note_on_c, 0, 59, 0
1, 63840, Note_on_c, 0, 42, 0
1, 63840, Note_on_c, 0, 68, 49
1, 63840, Note_on_c, 0, 35, 21
1, 63840, Control_c, 0, 64, 0
1, 64024, Control_c, 0, 64, 127
1, 64080, Note_on_c, 0, 68, 0
1, 64080, Note_on_c, 0, 64, 28
1, 64320, Note_on_c, 0, 64, 0
1, 64320, Note_on_c, 0, 56, 32
1, 64320, Note_on_c, 0, 68, 41
1, 64320, Note_on_c, 0, 42, 21
1, 64560, Note_on_c, 0, 68, 0
1, 64560, Note_on_c, 0, 64, 28
1, 64800, Tempo, 274098
1, 64800, Note_on_c, 0, 64, 0
1, 64800, Note_on_c, 0, 42, 0
1, 64800, Note_on_c, 0, 56, 0
1, 64800, Note_on_c, 0, 56, 32
1, 64800, Note_on_c, 0, 61, 41
1, 64800, Note_on_c, 0, 42, 21
1, 64814, Control_c, 0, 64, 0
1, 64920, Note_on_c, 0, 42, 0
1, 64920, Note_on_c, 0, 61, 0
1, 64920, Note_on_c, 0, 56, 0
1, 65280, Tempo, 262123
1, 65280, Note_on_c, 0, 35, 0
1, 65280, Note_on_c, 0, 35, 21
1, 65760, Note_on_c, 0, 61, 39
1, 65760, Note_on_c, 0, 56, 30
1, 65760, Note_on_c, 0, 42, 21
1, 65859, Control_c, 0, 64, 127
1, 66000, Note_on_c, 0, 61, 0
1, 66000, Note_on_c, 0, 64, 32
1, 66240, Tempo, 267977
1, 66240, Note_on_c, 0, 64, 0
1, 66240, Note_on_c, 0, 42, 0
1, 66240, Note_on_c, 0, 56, 0
1, 66240, Note_on_c, 0, 56, 29
1, 66240, Note_on_c, 0, 61, 37
1, 66240, Note_on_c, 0, 42, 21
1, 66480, Note_on_c, 0, 61, 0
1, 66480, Note_on_c, 0, 64, 28
1, 66720, Tempo, 286533
1, 66720, Note_on_c, 0, 64, 0
1, 66720, Note_on_c, 0, 42, 0
1, 66720, Note_on_c, 0, 56, 0
1, 66720, Note_on_c, 0, 35, 0
1, 66720, Note_on_c, 0, 66, 48
1, 66720, Note_on_c, 0, 35, 21
1, 66731, Control_c, 0, 64, 0
1, 66904, Control_c, 0, 64, 127
1, 67200, Tempo, 292826
1, 67200, Note_on_c, 0, 58, 30
1, 67200, Note_on_c, 0, 63, 30
1, 67200, Note_on_c, 0, 42, 21
1, 67320, Note_on_c, 0, 42, 0
1, 67320, Note_on_c, 0, 58, 0
1, 67320, Note_on_c, 0, 63, 0
1, 67680, Note_on_c, 0, 58, 30
1, 67680, Note_on_c, 0, 63, 30
1, 67680, Note_on_c, 0, 42, 21
1, 67800, Note_on_c, 0, 42, 0
1, 67800, Note_on_c, 0, 58, 0
1, 67800, Note_on_c, 0, 63, 0
1, 67948, Control_c, 0, 64, 0
1, 68160, Tempo, 262697
1, 68160, Note_on_c, 0, 35, 0
1, 68160, Note_on_c, 0, 66, 0
1, 68160, Note_on_c, 0, 35, 21
1, 68160, Control_c, 0, 64, 0
1, 68640, Note_on_c, 0, 59, 39
1, 68640, Note_on_c, 0, 58, 30
1, 68640, Note_on_c, 0, 42, 21
1, 68683, Control_c, 0, 64, 127
1, 68880, Note_on_c, 0, 59, 0
1, 68880, Note_on_c, 0, 63, 32
1, 69120, Tempo, 258732
1, 69120, Note_on_c, 0, 63, 0
1, 69120, Note_on_c, 0, 42, 0
1, 69120, Note_on_c, 0, 58, 0
1, 69120, Note_on_c, 0, 58, 29
1, 69120, Note_on_c, 0, 59, 37
1, 69120, Note_on_c, 0, 42, 21
1, 69360, Note_on_c, 0, 59, 0
1, 69360, Note_on_c, 0, 63, 28
1, 69600, Tempo, 253807
1, 69600, Note_on_c, 0, 63, 0
1, 69600, Note_on_c, 0, 42, 0
1, 69600, Note_on_c, 0, 58, 0
1, 69600, Note_on_c, 0, 35, 0
1, 69600, Note_on_c, 0, 64, 49
1, 69600, Note_on_c, 0, 35, 21
1, 69600, Control_c, 0, 64, 0
1, 69784, Control_c, 0, 64, 127
1, 69840, Note_on_c, 0, 64, 0
1, 69840, Note_on_c, 0, 61, 28
1, 70080, Note_on_c, 0, 61, 0
1, 70080, Note_on_c, 0, 52, 32
1, 70080, Note_on_c, 0, 64, 41
1, 70080, Note_on_c, 0, 42, 21
1, 70320, Note_on_c, 0, 64, 0
1, 70320, Note_on_c, 0, 61, 28
1, 70560, Tempo, 283152
1, 70560, Note_on_c, 0, 61, 0
1, 70560, Note_on_c, 0, 42, 0
1, 70560, Note_on_c, 0, 52, 0
1, 70560, Note_on_c, 0, 52, 32
1, 70560, Note_on_c, 0, 56, 41
1, 70560, Note_on_c, 0, 42, 21
1, 70574, Control_c, 0, 64, 0
1, 70680, Note_on_c, 0, 42, 0
1, 70680, Note_on_c, 0, 56, 0
1, 70680, Note_on_c, 0, 52, 0
1, 71040, Tempo, 262123
1, 71040, Note_on_c, 0, 35, 0
1, 71040, Note_on_c, 0, 35, 21
1, 71520, Note_on_c, 0, 54, 39
1, 71520, Note_on_c, 0, 49, 30
1, 71520, Note_on_c, 0, 42, 21
1, 71619, Control_c, 0, 64, 127
1, 71760, Note_on_c, 0, 54, 0
1, 71760, Note_on_c, 0, 58, 32
1, 72000, Tempo, 267977
1, 72000, Note_on_c, 0, 58, 0
1, 72000, Note_on_c, 0, 42, 0
1, 72000, Note_on_c, 0, 49, 0
1, 72000, Note_on_c, 0, 49, 29
1, 72000, Note_on_c, 0, 54, 37
1, 72000, Note_on_c, 0, 42, 21
1, 72240, Note_on_c, 0, 54, 0
1, 72240, Note_on_c, 0, 58, 28
1, 72480, Tempo, 289995
1, 72480, Note_on_c, 0, 58, 0
1, 72480, Note_on_c, 0, 42, 0
1, 72480, Note_on_c, 0, 49, 0
1, 72480, Note_on_c, 0, 35, 0
1, 72480, Note_on_c, 0, 59, 48
1, 72480, Note_on_c, 0, 35, 21
1, 72491, Control_c, 0, 64, 0
1, 72664, Control_c, 0, 64, 127
1, 72960, Tempo, 301659
1, 72960, Note_on_c, 0, 51, 30
1, 72960, Note_on_c, 0, 54, 30
1, 72960, Note_on_c, 0, 42, 21
1, 73080, Note_on_c, 0, 42, 0
1, 73080, Note_on_c, 0, 51, 0
1, 73080, Note_on_c, 0, 54, 0
1, 73440, Tempo, 303183
1, 73440, Note_on_c, 0, 51, 30
1, 73440, Note_on_c, 0, 54, 30
1, 73440, Note_on_c, 0, 42, 21
1, 73560, Note_on_c, 0, 42, 0
1, 73560, Note_on_c, 0, 51, 0
1, 73560, Note_on_c, 0, 54, 0
1, 73708, Control_c, 0, 64, 0
1, 73920, Key_signature, -5, "major"
1, 73920, Tempo, 262697
1, 73920, Note_on_c, 0, 35, 0
1, 73920, Note_on_c, 0, 59, 0
1, 73920, Note_on_c, 0, 70, 21
1, 73920, Note_on_c, 0, 63, 21
1, 74400, Note_on_c, 0, 78, 30
1, 74400, Note_on_c, 0, 75, 30
1, 74443, Control_c, 0, 64, 127
1, 74640, Note_on_c, 0, 78, 0
1, 74640, Note_on_c, 0, 82, 25
1, 74880, Tempo, 258732
1, 74880, Note_on_c, 0, 82, 0
1, 74880, Note_on_c, 0, 75, 0
1, 74880, Note_on_c, 0, 75, 29
1, 74880, Note_on_c, 0, 78, 29
1, 75120, Note_on_c, 0, 78, 0
1, 75120, Note_on_c, 0, 82, 22
1, 75360, Tempo, 253807
1, 75360, Note_on_c, 0, 82, 0
1, 75360, Note_on_c, 0, 75, 0
1, 75360, Note_on_c, 0, 63, 0
1, 75360, Note_on_c, 0, 70, 0
1, 75360, Note_on_c, 0, 84, 38
1, 75360, Note_on_c, 0, 56, 21
1, 75360, Note_on_c, 0, 63, 21
1, 75360, Control_c, 0, 64, 0
1, 75544, Control_c, 0, 64, 127
1, 75600, Note_on_c, 0, 84, 0
1, 75600, Note_on_c, 0, 80, 22
1, 75840, Note_on_c, 0, 80, 0
1, 75840, Note_on_c, 0, 72, 32
1, 75840, Note_on_c, 0, 84, 32
1, 76080, Note_on_c, 0, 84, 0
1, 76080, Note_on_c, 0, 80, 22
1, 76320, Tempo, 274098
1, 76320, Note_on_c, 0, 80, 0
1, 76320, Note_on_c, 0, 72, 0
1, 76320, Note_on_c, 0, 72, 32
1, 76320, Note_on_c, 0, 75, 32
1, 76334, Control_c, 0, 64, 0
1, 76440, Note_on_c, 0, 75, 0
1, 76440, Note_on_c, 0, 72, 0
1, 76800, Tempo, 262123
1, 76800, Note_on_c, 0, 63, 0
1, 76800, Note_on_c, 0, 56, 0
1, 76800, Note_on_c, 0, 63, 21
1, 76800, Note_on_c, 0, 70, 21
1, 77280, Note_on_c, 0, 78, 30
1, 77280, Note_on_c, 0, 75, 30
1, 77379, Control_c, 0, 64, 127
1, 77520, Note_on_c, 0, 78, 0
1, 77520, Note_on_c, 0, 82, 25
1, 77760, Tempo, 267977
1, 77760, Note_on_c, 0, 82, 0
1, 77760, Note_on_c, 0, 75, 0
1, 77760, Note_on_c, 0, 75, 29
1, 77760, Note_on_c, 0, 78, 29
1, 78000, Note_on_c, 0, 78, 0
1, 78000, Note_on_c, 0, 82, 22
1, 78240, Tempo, 287219
1, 78240, Note_on_c, 0, 82, 0
1, 78240, Note_on_c, 0, 75, 0
1, 78240, Note_on_c, 0, 70, 0
1, 78240, Note_on_c, 0, 63, 0
1, 78240, Note_on_c, 0, 77, 37
1, 78240, Note_on_c, 0, 58, 21
1, 78240, Note_on_c, 0, 65, 21
1, 78251, Control_c, 0, 64, 0
1, 78424, Control_c, 0, 64, 127
1, 78720, Tempo, 297915
1, 78720, Note_on_c, 0, 70, 30
1, 78720, Note_on_c, 0, 74, 30
1, 78840, Note_on_c, 0, 74, 0
1, 78840, Note_on_c, 0, 70, 0
1, 79200, Note_on_c, 0, 70, 30
1, 79200, Note_on_c, 0, 74, 30
1, 79320, Note_on_c, 0, 74, 0
1, 79320, Note_on_c, 0, 70, 0
1, 79468, Control_c, 0, 64, 0
1, 79680, Tempo, 262697
1, 79680, Note_on_c, 0, 65, 0
1, 79680, Note_on_c, 0, 58, 0
1, 79680, Note_on_c, 0, 77, 0
1, 79680, Note_on_c, 0, 77, 21
1, 79680, Note_on_c, 0, 70, 21
1, 80160, Note_on_c, 0, 85, 33
1, 80160, Note_on_c, 0, 82, 33
1, 80344, Control_c, 0, 64, 127
1, 80400, Note_on_c, 0, 85, 0
1, 80400, Note_on_c, 0, 89, 27
1, 80640, Tempo, 258176
1, 80640, Note_on_c, 0, 89, 0
1, 80640, Note_on_c, 0, 82, 0
1, 80640, Note_on_c, 0, 82, 31
1, 80640, Note_on_c, 0, 85, 31
1, 80880, Note_on_c, 0, 85, 0
1, 80880, Note_on_c, 0, 89, 24
1, 81120, Tempo, 253807
1, 81120, Note_on_c, 0, 89, 0
1, 81120, Note_on_c, 0, 82, 0
1, 81120, Note_on_c, 0, 70, 0
1, 81120, Note_on_c, 0, 77, 0
1, 81120, Note_on_c, 0, 91, 44
1, 81120, Note_on_c, 0, 63, 21
1, 81120, Note_on_c, 0, 70, 21
1, 81129, Control_c, 0, 64, 0
1, 81300, Control_c, 0, 64, 127
1, 81360, Note_on_c, 0, 91, 0
1, 81360, Note_on_c, 0, 87, 24
1, 81600, Note_on_c, 0, 87, 0
1, 81600, Note_on_c, 0, 79, 35
1, 81600, Note_on_c, 0, 91, 35
1, 81840, Note_on_c, 0, 91, 0
1, 81840, Note_on_c, 0, 87, 24
1, 82080, Tempo, 285171
1, 82080, Note_on_c, 0, 87, 0
1, 82080, Note_on_c, 0, 79, 0
1, 82080, Note_on_c, 0, 79, 35
1, 82080, Note_on_c, 0, 82, 35
1, 82087, Control_c, 0, 64, 0
1, 82200, Note_on_c, 0, 82, 0
1, 82200, Note_on_c, 0, 79, 0
1, 82560, Tempo, 262123
1, 82560, Note_on_c, 0, 70, 0
1, 82560, Note_on_c, 0, 63, 0
1, 82560, Note_on_c, 0, 70, 21
1, 82560, Note_on_c, 0, 77, 21
1, 83040, Note_on_c, 0, 85, 33
1, 83040, Note_on_c, 0, 82, 33
1, 83040, Control_c, 0, 64, 127
1, 83280, Note_on_c, 0, 85, 0
1, 83280, Note_on_c, 0, 89, 27
1, 83520, Tempo, 267977
1, 83520, Note_on_c, 0, 89, 0
1, 83520, Note_on_c, 0, 82, 0
1, 83520, Note_on_c, 0, 82, 31
1, 83520, Note_on_c, 0, 85, 31
1, 83760, Note_on_c, 0, 85, 0
1, 83760, Note_on_c, 0, 89, 24
1, 84000, Tempo, 288600
1, 84000, Note_on_c, 0, 89, 0
1, 84000, Note_on_c, 0, 82, 0
1, 84000, Note_on_c, 0, 77, 0
1, 84000, Note_on_c, 0, 70, 0
1, 84000, Note_on_c, 0, 84, 40
1, 84000, Note_on_c, 0, 65, 21
1, 84000, Note_on_c, 0, 72, 21
1, 84009, Control_c, 0, 64, 0
1, 84180, Control_c, 0, 64, 127
1, 84480, Tempo, 299401
1, 84480, Note_on_c, 0, 77, 33
1, 84480, Note_on_c, 0, 81, 33
1, 84600, Note_on_c, 0, 81, 0
1, 84600, Note_on_c, 0, 77, 0
1, 84960, Tempo, 299401
1, 84960, Note_on_c, 0, 77, 33
1, 84960, Note_on_c, 0, 81, 33
1, 85080, Note_on_c, 0, 81, 0
1, 85080, Note_on_c, 0, 77, 0
1, 85200, Control_c, 0, 64, 0
1, 85440, Tempo, 262697
1, 85440, Note_on_c, 0, 72, 0
1, 85440, Note_on_c, 0, 65, 0
1, 85440, Note_on_c, 0, 84, 0
1, 85440, Note_on_c, 0, 60, 21
1, 85440, Note_on_c, 0, 53, 21
1, 85920, Note_on_c, 0, 68, 30
1, 85920, Note_on_c, 0, 65, 30
1, 85963, Control_c, 0, 64, 127
1, 86160, Note_on_c, 0, 68, 0
1, 86160, Note_on_c, 0, 72, 25
1, 86400, Tempo, 258732
1, 86400, Note_on_c, 0, 72, 0
1, 86400, Note_on_c, 0, 65, 0
1, 86400, Note_on_c, 0, 65, 29
1, 86400, Note_on_c, 0, 68, 29
1, 86640, Note_on_c, 0, 68, 0
1, 86640, Note_on_c, 0, 72, 22
1, 86880, Tempo, 253807
1, 86880, Note_on_c, 0, 72, 0
1, 86880, Note_on_c, 0, 65, 0
1, 86880, Note_on_c, 0, 53, 0
1, 86880, Note_on_c, 0, 60, 0
1, 86880, Note_on_c, 0, 74, 38
1, 86880, Note_on_c, 0, 46, 21
1, 86880, Note_on_c, 0, 53, 21
1, 86880, Control_c, 0, 64, 0
1, 87064, Control_c, 0, 64, 127
1, 87120, Note_on_c, 0, 74, 0
1, 87120, Note_on_c, 0, 70, 22
1, 87360, Note_on_c, 0, 70, 0
1, 87360, Note_on_c, 0, 62, 32
1, 87360, Note_on_c, 0, 74, 32
1, 87600, Note_on_c, 0, 74, 0
1, 87600, Note_on_c, 0, 70, 22
1, 87840, Tempo, 274098
1, 87840, Note_on_c, 0, 70, 0
1, 87840, Note_on_c, 0, 62, 0
1, 87840, Note_on_c, 0, 62, 32
1, 87840, Note_on_c, 0, 65, 32
1, 87854, Control_c, 0, 64, 0
1, 87960, Note_on_c, 0, 65, 0
1, 87960, Note_on_c, 0, 62, 0
1, 88320, Tempo, 262123
1, 88320, Note_on_c, 0, 53, 0
1, 88320, Note_on_c, 0, 46, 0
1, 88320, Note_on_c, 0, 53, 21
1, 88320, Note_on_c, 0, 60, 21
1, 88800, Note_on_c, 0, 68, 30
1, 88800, Note_on_c, 0, 65, 30
1, 88899, Control_c, 0, 64, 127
1, 89040, Note_on_c, 0, 68, 0
1, 89040, Note_on_c, 0, 72, 25
1, 89280, Tempo, 267977
1, 89280, Note_on_c, 0, 72, 0
1, 89280, Note_on_c, 0, 65, 0
1, 89280, Note_on_c, 0, 65, 29
1, 89280, Note_on_c, 0, 68, 29
1, 89520, Note_on_c, 0, 68, 0
1, 89520, Note_on_c, 0, 72, 22
1, 89760, Tempo, 287219
1, 89760, Note_on_c, 0, 72, 0
1, 89760, Note_on_c, 0, 65, 0
1, 89760, Note_on_c, 0, 60, 0
1, 89760, Note_on_c, 0, 53, 0
1, 89760, Note_on_c, 0, 67, 37
1, 89760, Note_on_c, 0, 48, 21
1, 89760, Note_on_c, 0, 55, 21
1, 89771, Control_c, 0, 64, 0
1, 89944, Control_c, 0, 64, 127
1, 90240, Tempo, 297915
1, 90240, Note_on_c, 0, 60, 30
1, 90240, Note_on_c, 0, 64, 30
1, 90360, Note_on_c, 0, 64, 0
1, 90360, Note_on_c, 0, 60, 0
1, 90720, Note_on_c, 0, 60, 30
1, 90720, Note_on_c, 0, 64, 30
1, 90840, Note_on_c, 0, 64, 0
1, 90840, Note_on_c, 0, 60, 0
1, 90988, Control_c, 0, 64, 0
1, 91200, Tempo, 262697
1, 91200, Note_on_c, 0, 55, 0
1, 91200, Note_on_c, 0, 48, 0
1, 91200, Note_on_c, 0, 67, 0
1, 91200, Note_on_c, 0, 67, 28
1, 91200, Note_on_c, 0, 60, 28
1, 91680, Note_on_c, 0, 75, 41
1, 91680, Note_on_c, 0, 72, 41
1, 91864, Control_c, 0, 64, 127
1, 91920, Note_on_c, 0, 75, 0
1, 91920, Note_on_c, 0, 79, 35
1, 92160, Tempo, 258176
1, 92160, Note_on_c, 0, 79, 0
1, 92160, Note_on_c, 0, 72, 0
1, 92160, Note_on_c, 0, 72, 40
1, 92160, Note_on_c, 0, 75, 40
1, 92400, Note_on_c, 0, 75, 0
1, 92400, Note_on_c, 0, 79, 31
1, 92640, Tempo, 253807
1, 92640, Note_on_c, 0, 79, 0
1, 92640, Note_on_c, 0, 72, 0
1, 92640, Note_on_c, 0, 60, 0
1, 92640, Note_on_c, 0, 67, 0
1, 92640, Note_on_c, 0, 81, 59
1, 92640, Note_on_c, 0, 53, 30
1, 92640, Note_on_c, 0, 60, 30
1, 92649, Control_c, 0, 64, 0
1, 92820, Control_c, 0, 64, 127
1, 92880, Note_on_c, 0, 81, 0
1, 92880, Note_on_c, 0, 77, 32
1, 93120, Note_on_c, 0, 77, 0
1, 93120, Note_on_c, 0, 69, 48
1, 93120, Note_on_c, 0, 81, 48
1, 93360, Note_on_c, 0, 81, 0
1, 93360, Note_on_c, 0, 77, 33
1, 93600, Tempo, 285171
1, 93600, Note_on_c, 0, 77, 0
1, 93600, Note_on_c, 0, 69, 0
1, 93600, Note_on_c, 0, 69, 49
1, 93600, Note_on_c, 0, 72, 49
1, 93607, Control_c, 0, 64, 0
1, 93720, Note_on_c, 0, 72, 0
1, 93720, Note_on_c, 0, 69, 0
1, 94080, Tempo, 262697
1, 94080, Note_on_c, 0, 60, 0
1, 94080, Note_on_c, 0, 53, 0
1, 94080, Note_on_c, 0, 79, 35
1, 94080, Note_on_c, 0, 72, 35
1, 94560, Note_on_c, 0, 87, 53
1, 94560, Note_on_c, 0, 84, 53
1, 94744, Control_c, 0, 64, 127
1, 94800, Note_on_c, 0, 87, 0
1, 94800, Note_on_c, 0, 91, 43
1, 95040, Tempo, 258176
1, 95040, Note_on_c, 0, 91, 0
1, 95040, Note_on_c, 0, 84, 0
1, 95040, Note_on_c, 0, 84, 51
1, 95040, Note_on_c, 0, 87, 51
1, 95280, Note_on_c, 0, 87, 0
1, 95280, Note_on_c, 0, 91, 38
1, 95520, Tempo, 253807
1, 95520, Note_on_c, 0, 91, 0
1, 95520, Note_on_c, 0, 84, 0
1, 95520, Note_on_c, 0, 72, 0
1, 95520, Note_on_c, 0, 79, 0
1, 95520, Note_on_c, 0, 93, 74
1, 95520, Note_on_c, 0, 65, 38
1, 95520, Note_on_c, 0, 72, 38
1, 95529, Control_c, 0, 64, 0
1, 95700, Control_c, 0, 64, 127
1, 95760, Note_on_c, 0, 93, 0
1, 95760, Note_on_c, 0, 89, 39
1, 96000, Note_on_c, 0, 89, 0
1, 96000, Note_on_c, 0, 81, 59
1, 96000, Note_on_c, 0, 93, 59
1, 96240, Note_on_c, 0, 93, 0
1, 96240, Note_on_c, 0, 89, 40
1, 96480, Tempo, 285171
1, 96480, Note_on_c, 0, 89, 0
1, 96480, Note_on_c, 0, 81, 0
1, 96480, Note_on_c, 0, 81, 61
1, 96480, Note_on_c, 0, 84, 61
1, 96487, Control_c, 0, 64, 0
1, 96600, Note_on_c, 0, 84, 0
1, 96600, Note_on_c, 0, 81, 0
1, 96960, Tempo, 254248
1, 96960, Note_on_c, 0, 72, 0
1, 96960, Note_on_c, 0, 65, 0
1, 96960, Note_on_c, 0, 75, 63
1, 96960, Note_on_c, 0, 72, 53
1, 96960, Note_on_c, 0, 67, 53
1, 96960, Note_on_c, 0, 60, 45
1, 97073, Control_c, 0, 64, 127
1, 97200, Note_on_c, 0, 75, 0
1, 97200, Note_on_c, 0, 79, 70
1, 97440, Tempo, 284374
1, 97440, Note_on_c, 0, 79, 0
1, 97440, Note_on_c, 0, 60, 0
1, 97440, Note_on_c, 0, 67, 0
1, 97440, Note_on_c, 0, 72, 0
1, 97440, Note_on_c, 0, 72, 60
1, 97440, Note_on_c, 0, 77, 71
1, 97440, Note_on_c, 0, 81, 71
1, 97440, Note_on_c, 0, 69, 50
1, 97440, Note_on_c, 0, 65, 41
1, 97457, Control_c, 0, 64, 0
1, 97680, Control_c, 0, 64, 127
1, 98400, Tempo, 254248
1, 98400, Note_on_c, 0, 65, 0
1, 98400, Note_on_c, 0, 81, 0
1, 98400, Note_on_c, 0, 72, 0
1, 98400, Note_on_c, 0, 77, 0
1, 98400, Note_on_c, 0, 69, 0
1, 98400, Note_on_c, 0, 87, 72
1, 98400, Note_on_c, 0, 84, 61
1, 98400, Note_on_c, 0, 79, 62
1, 98400, Note_on_c, 0, 72, 51
1, 98414, Control_c, 0, 64, 0
1, 98513, Control_c, 0, 64, 127
1, 98640, Note_on_c, 0, 87, 0
1, 98640, Note_on_c, 0, 91, 80
1, 98880, Tempo, 284374
1, 98880, Note_on_c, 0, 91, 0
1, 98880, Note_on_c, 0, 72, 0
1, 98880, Note_on_c, 0, 79, 0
1, 98880, Note_on_c, 0, 84, 0
1, 98880, Note_on_c, 0, 84, 68
1, 98880, Note_on_c, 0, 89, 81
1, 98880, Note_on_c, 0, 93, 81
1, 98880, Note_on_c, 0, 81, 56
1, 98880, Note_on_c, 0, 77, 47
1, 98897, Control_c, 0, 64, 0
1, 99120, Control_c, 0, 64, 127
1, 99840, Tempo, 254248
1, 99840, Note_on_c, 0, 77, 0
1, 99840, Note_on_c, 0, 93, 0
1, 99840, Note_on_c, 0, 84, 0
1, 99840, Note_on_c, 0, 89, 0
1, 99840, Note_on_c, 0, 81, 0
1, 99840, Note_on_c, 0, 75, 70
1, 99840, Note_on_c, 0, 72, 58
1, 99840, Note_on_c, 0, 67, 58
1, 99840, Note_on_c, 0, 60, 47
1, 99840, Control_c, 0, 64, 0
1, 99953, Control_c, 0, 64, 127
1, 100080, Note_on_c, 0, 75, 0
1, 100080, Note_on_c, 0, 79, 76
1, 100320, Tempo, 284374
1, 100320, Note_on_c, 0, 79, 0
1, 100320, Note_on_c, 0, 60, 0
1, 100320, Note_on_c, 0, 67, 0
1, 100320, Note_on_c, 0, 72, 0
1, 100320, Note_on_c, 0, 72, 65
1, 100320, Note_on_c, 0, 77, 77
1, 100320, Note_on_c, 0, 81, 77
1, 100320, Note_on_c, 0, 69, 53
1, 100320, Note_on_c, 0, 65, 45
1, 100337, Control_c, 0, 64, 0
1, 100560, Control_c, 0, 64, 127
1, 101280, Tempo, 254248
1, 101280, Note_on_c, 0, 65, 0
1, 101280, Note_on_c, 0, 81, 0
1, 101280, Note_on_c, 0, 72, 0
1, 101280, Note_on_c, 0, 77, 0
1, 101280, Note_on_c, 0, 69, 0
1, 101280, Note_on_c, 0, 87, 78
1, 101280, Note_on_c, 0, 84, 66
1, 101280, Note_on_c, 0, 79, 68
1, 101280, Note_on_c, 0, 72, 56
1, 101294, Control_c, 0, 64, 0
1, 101393, Control_c, 0, 64, 127
1, 101520, Note_on_c, 0, 87, 0
1, 101520, Note_on_c, 0, 91, 87
1, 101760, Tempo, 284374
1, 101760, Note_on_c, 0, 91, 0
1, 101760, Note_on_c, 0, 72, 0
1, 101760, Note_on_c, 0, 79, 0
1, 101760, Note_on_c, 0, 84, 0
1, 101760, Note_on_c, 0, 84, 75
1, 101760, Note_on_c, 0, 89, 88
1, 101760, Note_on_c, 0, 93, 88
1, 101760, Note_on_c, 0, 81, 60
1, 101760, Note_on_c, 0, 77, 52
1, 101777, Control_c, 0, 64, 0
1, 102000, Control_c, 0, 64, 127
1, 102711, Note_on_c, 0, 77, 0
1, 102711, Note_on_c, 0, 93, 0
1, 102711, Note_on_c, 0, 84, 0
1, 102711, Note_on_c, 0, 89, 0
1, 102711, Note_on_c, 0, 81, 0
1, 102720, Tempo, 272121
1, 102720, Note_on_c, 0, 72, 85
1, 102720, Note_on_c, 0, 77, 85
1, 102720, Note_on_c, 0, 81, 85
1, 102720, Note_on_c, 0, 65, 47
1, 102720, Note_on_c, 0, 69, 58
1, 102720, Control_c, 0, 64, 0
1, 103063, Control_c, 0, 64, 127
1, 103671, Note_on_c, 0, 69, 0
1, 103671, Note_on_c, 0, 81, 0
1, 103671, Note_on_c, 0, 72, 0
1, 103671, Note_on_c, 0, 77, 0
1, 103671, Note_on_c, 0, 65, 0
1, 103680, Tempo, 282366
1, 103680, Note_on_c, 0, 84, 88
1, 103680, Note_on_c, 0, 89, 88
1, 103680, Note_on_c, 0, 93, 88
1, 103680, Note_on_c, 0, 77, 52
1, 103680, Note_on_c, 0, 81, 60
1, 104631, Note_on_c, 0, 81, 0
1, 104631, Note_on_c, 0, 93, 0
1, 104631, Note_on_c, 0, 84, 0
1, 104631, Note_on_c, 0, 89, 0
1, 104631, Note_on_c, 0, 77, 0
1, 104640, Tempo, 271505
1, 104640, Note_on_c, 0, 72, 85
1, 104640, Note_on_c, 0, 77, 85
1, 104640, Note_on_c, 0, 81, 85
1, 104640, Note_on_c, 0, 65, 47
1, 104640, Note_on_c, 0, 69, 58
1, 105591, Note_on_c, 0, 69, 0
1, 105591, Note_on_c, 0, 81, 0
1, 105591, Note_on_c, 0, 72, 0
1, 105591, Note_on_c, 0, 77, 0
1, 105591, Note_on_c, 0, 65, 0
1, 105600, Tempo, 281703
1, 105600, Note_on_c, 0, 84, 88
1, 105600, Note_on_c, 0, 89, 88
1, 105600, Note_on_c, 0, 93, 88
1, 105600, Note_on_c, 0, 77, 52
1, 105600, Note_on_c, 0, 81, 60
1, 106551, Note_on_c, 0, 81, 0
1, 106551, Note_on_c, 0, 93, 0
1, 106551, Note_on_c, 0, 84, 0
1, 106551, Note_on_c, 0, 89, 0
1, 106551, Note_on_c, 0, 77, 0
1, 106560, Tempo, 272740
1, 106560, Note_on_c, 0, 72, 85
1, 106560, Note_on_c, 0, 77, 85
1, 106560, Note_on_c, 0, 81, 85
1, 106560, Note_on_c, 0, 65, 47
1, 106560, Note_on_c, 0, 69, 58
1, 107511, Note_on_c, 0, 69, 0
1, 107511, Note_on_c, 0, 81, 0
1, 107511, Note_on_c, 0, 72, 0
1, 107511, Note_on_c, 0, 77, 0
1, 107511, Note_on_c, 0, 65, 0
1, 107520, Tempo, 303813
1, 107520, Note_on_c, 0, 84, 88
1, 107520, Note_on_c, 0, 89, 88
1, 107520, Note_on_c, 0, 93, 88
1, 107520, Note_on_c, 0, 77, 52
1, 107520, Note_on_c, 0, 81, 60
1, 108471, Note_on_c, 0, 81, 0
1, 108471, Note_on_c, 0, 93, 0
1, 108471, Note_on_c, 0, 84, 0
1, 108471, Note_on_c, 0, 89, 0
1, 108471, Note_on_c, 0, 77, 0
1, 108480, Key_signature, 4, "major"
1, 108480, Tempo, 281703
1, 108480, Note_on_c, 0, 71, 92
1, 108480, Note_on_c, 0, 78, 92
1, 108480, Note_on_c, 0, 83, 92
1, 108480, Note_on_c, 0, 59, 42
1, 108480, Note_on_c, 0, 66, 51
1, 108480, Control_c, 0, 64, 0
1, 108823, Control_c, 0, 64, 127
1, 109431, Note_on_c, 0, 66, 0
1, 109431, Note_on_c, 0, 83, 0
1, 109431, Note_on_c, 0, 71, 0
1, 109431, Note_on_c, 0, 78, 0
1, 109431, Note_on_c, 0, 59, 0
1, 109440, Tempo, 289869
1, 109440, Note_on_c, 0, 83, 97
1, 109440, Note_on_c, 0, 90, 97
1, 109440, Note_on_c, 0, 95, 97
1, 109440, Note_on_c, 0, 71, 46
1, 109440, Note_on_c, 0, 78, 52
1, 109920, Tempo, 289869
1, 110391, Note_on_c, 0, 78, 0
1, 110391, Note_on_c, 0, 95, 0
1, 110391, Note_on_c, 0, 83, 0
1, 110391, Note_on_c, 0, 90, 0
1, 110391, Note_on_c, 0, 71, 0
1, 110400, Tempo, 285049
1, 110400, Note_on_c, 0, 71, 92
1, 110400, Note_on_c, 0, 78, 92
1, 110400, Note_on_c, 0, 83, 92
1, 110400, Note_on_c, 0, 59, 42
1, 110400, Note_on_c, 0, 66, 51
1, 111351, Note_on_c, 0, 66, 0
1, 111351, Note_on_c, 0, 83, 0
1, 111351, Note_on_c, 0, 71, 0
1, 111351, Note_on_c, 0, 78, 0
1, 111351, Note_on_c, 0, 59, 0
1, 111360, Tempo, 292697
1, 111360, Note_on_c, 0, 83, 97
1, 111360, Note_on_c, 0, 90, 97
1, 111360, Note_on_c, 0, 95, 97
1, 111360, Note_on_c, 0, 71, 46
1, 111360, Note_on_c, 0, 78, 52
1, 112311, Note_on_c, 0, 78, 0
1, 112311, Note_on_c, 0, 95, 0
1, 112311, Note_on_c, 0, 83, 0
1, 112311, Note_on_c, 0, 90, 0
1, 112311, Note_on_c, 0, 71, 0
1, 112320, Tempo, 319166
1, 112320, Note_on_c, 0, 71, 92
1, 112320, Note_on_c, 0, 78, 92
1, 112320, Note_on_c, 0, 83, 92
1, 112320, Note_on_c, 0, 59, 42
1, 112320, Note_on_c, 0, 66, 51
1, 112800, Tempo, 321733
1, 113271, Note_on_c, 0, 66, 0
1, 113271, Note_on_c, 0, 83, 0
1, 113271, Note_on_c, 0, 71, 0
1, 113271, Note_on_c, 0, 78, 0
1, 113271, Note_on_c, 0, 59, 0
1, 113280, Tempo, 282366
1, 113280, Note_on_c, 0, 83, 97
1, 113280, Note_on_c, 0, 90, 97
1, 113280, Note_on_c, 0, 95, 97
1, 113280, Note_on_c, 0, 71, 46
1, 113280, Note_on_c, 0, 78, 52
1, 114231, Note_on_c, 0, 78, 0
1, 114231, Note_on_c, 0, 95, 0
1, 114231, Note_on_c, 0, 83, 0
1, 114231, Note_on_c, 0, 90, 0
1, 114231, Note_on_c, 0, 71, 0
1, 114240, Tempo, 262697
1, 114240, Note_on_c, 0, 47, 94
1, 114240, Note_on_c, 0, 40, 79
1, 114240, Control_c, 0, 64, 0
1, 114410, Control_c, 0, 64, 127
1, 114480, Note_on_c, 0, 40, 0
1, 114480, Note_on_c, 0, 47, 0
1, 114720, Note_on_c, 0, 76, 76
1, 114720, Note_on_c, 0, 80, 92
1, 114720, Note_on_c, 0, 59, 71
1, 114720, Note_on_c, 0, 52, 60
1, 114960, Note_on_c, 0, 80, 0
1, 114960, Note_on_c, 0, 83, 76
1, 115200, Tempo, 258732
1, 115200, Note_on_c, 0, 83, 0
1, 115200, Note_on_c, 0, 76, 0
1, 115200, Note_on_c, 0, 80, 90
1, 115200, Note_on_c, 0, 76, 75
1, 115440, Note_on_c, 0, 80, 0
1, 115440, Note_on_c, 0, 83, 76
1, 115680, Tempo, 253807
1, 115680, Note_on_c, 0, 83, 0
1, 115680, Note_on_c, 0, 76, 0
1, 115680, Note_on_c, 0, 59, 0
1, 115680, Note_on_c, 0, 52, 0
1, 115680, Note_on_c, 0, 85, 92
1, 115680, Note_on_c, 0, 47, 80
1, 115680, Note_on_c, 0, 40, 68
1, 115680, Control_c, 0, 64, 0
1, 115786, Control_c, 0, 64, 127
1, 115920, Note_on_c, 0, 40, 0
1, 115920, Note_on_c, 0, 47, 0
1, 115920, Note_on_c, 0, 85, 0
1, 115920, Note_on_c, 0, 81, 77
1, 116160, Tempo, 261449
1, 116160, Note_on_c, 0, 81, 0
1, 116160, Note_on_c, 0, 73, 55
1, 116160, Note_on_c, 0, 85, 75
1, 116160, Note_on_c, 0, 59, 70
1, 116160, Note_on_c, 0, 52, 59
1, 116400, Note_on_c, 0, 85, 0
1, 116400, Note_on_c, 0, 81, 72
1, 116640, Tempo, 274098
1, 116640, Note_on_c, 0, 81, 0
1, 116640, Note_on_c, 0, 73, 0
1, 116640, Note_on_c, 0, 73, 71
1, 116640, Note_on_c, 0, 78, 80
1, 116760, Note_on_c, 0, 78, 0
1, 116760, Note_on_c, 0, 73, 0
1, 116873, Control_c, 0, 64, 0
1, 117120, Tempo, 262697
1, 117120, Note_on_c, 0, 59, 0
1, 117120, Note_on_c, 0, 52, 0
1, 117120, Note_on_c, 0, 47, 75
1, 117120, Note_on_c, 0, 40, 63
1, 117120, Control_c, 0, 64, 0
1, 117290, Control_c, 0, 64, 127
1, 117360, Note_on_c, 0, 40, 0
1, 117360, Note_on_c, 0, 47, 0
1, 117600, Note_on_c, 0, 78, 87
1, 117600, Note_on_c, 0, 73, 87
1, 117600, Note_on_c, 0, 59, 71
1, 117600, Note_on_c, 0, 52, 60
1, 117840, Note_on_c, 0, 78, 0
1, 117840, Note_on_c, 0, 81, 76
1, 118080, Tempo, 258732
1, 118080, Note_on_c, 0, 81, 0
1, 118080, Note_on_c, 0, 73, 0
1, 118080, Note_on_c, 0, 73, 86
1, 118080, Note_on_c, 0, 78, 86
1, 118320, Note_on_c, 0, 78, 0
1, 118320, Note_on_c, 0, 81, 75
1, 118560, Tempo, 269070
1, 118560, Note_on_c, 0, 81, 0
1, 118560, Note_on_c, 0, 73, 0
1, 118560, Note_on_c, 0, 59, 0
1, 118560, Note_on_c, 0, 52, 0
1, 118560, Note_on_c, 0, 83, 88
1, 118560, Note_on_c, 0, 47, 80
1, 118560, Note_on_c, 0, 40, 68
1, 118560, Control_c, 0, 64, 0
1, 118666, Control_c, 0, 64, 127
1, 118800, Note_on_c, 0, 40, 0
1, 118800, Note_on_c, 0, 47, 0
1, 119040, Tempo, 295581
1, 119040, Note_on_c, 0, 80, 72
1, 119040, Note_on_c, 0, 75, 72
1, 119040, Note_on_c, 0, 59, 70
1, 119040, Note_on_c, 0, 52, 59
1, 119160, Note_on_c, 0, 75, 0
1, 119160, Note_on_c, 0, 80, 0
1, 119520, Tempo, 297782
1, 119520, Note_on_c, 0, 75, 72
1, 119520, Note_on_c, 0, 80, 72
1, 119640, Note_on_c, 0, 80, 0
1, 119640, Note_on_c, 0, 75, 0
1, 119753, Control_c, 0, 64, 0
1, 120000, Tempo, 262697
1, 120000, Note_on_c, 0, 52, 0
1, 120000, Note_on_c, 0, 59, 0
1, 120000, Note_on_c, 0, 83, 0
1, 120000, Note_on_c, 0, 47, 63
1, 120000, Note_on_c, 0, 40, 52
1, 120000, Control_c, 0, 64, 0
1, 120170, Control_c, 0, 64, 127
1, 120240, Note_on_c, 0, 40, 0
1, 120240, Note_on_c, 0, 47, 0
1, 120480, Note_on_c, 0, 76, 75
1, 120480, Note_on_c, 0, 75, 75
1, 120480, Note_on_c, 0, 59, 59
1, 120480, Note_on_c, 0, 52, 50
1, 120720, Note_on_c, 0, 76, 0
1, 120720, Note_on_c, 0, 80, 63
1, 120960, Tempo, 258732
1, 120960, Note_on_c, 0, 80, 0
1, 120960, Note_on_c, 0, 75, 0
1, 120960, Note_on_c, 0, 75, 74
1, 120960, Note_on_c, 0, 76, 74
1, 121200, Note_on_c, 0, 76, 0
1, 121200, Note_on_c, 0, 80, 63
1, 121440, Tempo, 253807
1, 121440, Note_on_c, 0, 80, 0
1, 121440, Note_on_c, 0, 75, 0
1, 121440, Note_on_c, 0, 59, 0
1, 121440, Note_on_c, 0, 52, 0
1, 121440, Note_on_c, 0, 81, 73
1, 121440, Note_on_c, 0, 47, 65
1, 121440, Note_on_c, 0, 40, 55
1, 121440, Control_c, 0, 64, 0
1, 121546, Control_c, 0, 64, 127
1, 121680, Note_on_c, 0, 40, 0
1, 121680, Note_on_c, 0, 47, 0
1, 121680, Note_on_c, 0, 81, 0
1, 121680, Note_on_c, 0, 78, 63
1, 121920, Tempo, 261449
1, 121920, Note_on_c, 0, 78, 0
1, 121920, Note_on_c, 0, 81, 65
1, 121920, Note_on_c, 0, 69, 62
1, 121920, Note_on_c, 0, 59, 57
1, 121920, Note_on_c, 0, 52, 49
1, 122160, Note_on_c, 0, 81, 0
1, 122160, Note_on_c, 0, 78, 58
1, 122400, Tempo, 274098
1, 122400, Note_on_c, 0, 78, 0
1, 122400, Note_on_c, 0, 69, 0
1, 122400, Note_on_c, 0, 69, 65
1, 122400, Note_on_c, 0, 73, 65
1, 122520, Note_on_c, 0, 73, 0
1, 122520, Note_on_c, 0, 69, 0
1, 122633, Control_c, 0, 64, 0
1, 122880, Tempo, 262697
1, 122880, Note_on_c, 0, 59, 0
1, 122880, Note_on_c, 0, 52, 0
1, 122880, Note_on_c, 0, 47, 63
1, 122880, Note_on_c, 0, 40, 52
1, 122880, Control_c, 0, 64, 0
1, 123050, Control_c, 0, 64, 127
1, 123120, Note_on_c, 0, 40, 0
1, 123120, Note_on_c, 0, 47, 0
1, 123360, Note_on_c, 0, 66, 53
1, 123360, Note_on_c, 0, 71, 63
1, 123360, Note_on_c, 0, 59, 59
1, 123360, Note_on_c, 0, 52, 50
1, 123600, Note_on_c, 0, 71, 0
1, 123600, Note_on_c, 0, 75, 53
1, 123840, Tempo, 258732
1, 123840, Note_on_c, 0, 75, 0
1, 123840, Note_on_c, 0, 66, 0
1, 123840, Note_on_c, 0, 71, 63
1, 123840, Note_on_c, 0, 66, 52
1, 124080, Note_on_c, 0, 71, 0
1, 124080, Note_on_c, 0, 75, 53
1, 124320, Tempo, 279083
1, 124320, Note_on_c, 0, 75, 0
1, 124320, Note_on_c, 0, 66, 0
1, 124320, Note_on_c, 0, 59, 0
1, 124320, Note_on_c, 0, 52, 0
1, 124320, Note_on_c, 0, 76, 65
1, 124320, Note_on_c, 0, 47, 65
1, 124320, Note_on_c, 0, 40, 55
1, 124320, Control_c, 0, 64, 0
1, 124426, Control_c, 0, 64, 127
1, 124560, Note_on_c, 0, 40, 0
1, 124560, Note_on_c, 0, 47, 0
1, 124800, Tempo, 306138
1, 124800, Note_on_c, 0, 71, 47
1, 124800, Note_on_c, 0, 68, 47
1, 124800, Note_on_c, 0, 59, 51
1, 124800, Note_on_c, 0, 52, 44
1, 124920, Note_on_c, 0, 68, 0
1, 124920, Note_on_c, 0, 71, 0
1, 125280, Tempo, 306921
1, 125280, Note_on_c, 0, 68, 45
1, 125280, Note_on_c, 0, 71, 45
1, 125400, Note_on_c, 0, 71, 0
1, 125400, Note_on_c, 0, 68, 0
1, 125513, Control_c, 0, 64, 0
1, 125760, Tempo, 262697
1, 125760, Marker_t, "Wiederholung Beginn2"
1, 125760, Note_on_c, 0, 52, 0
1, 125760, Note_on_c, 0, 59, 0
1, 125760, Note_on_c, 0, 76, 0
1, 125760, Note_on_c, 0, 35, 21
1, 125760, Control_c, 0, 64, 0
1, 126240, Note_on_c, 0, 63, 39
1, 126240, Note_on_c, 0, 59, 30
1, 126240, Note_on_c, 0, 42, 21
1, 126283, Control_c, 0, 64, 127
1, 126480, Note_on_c, 0, 63, 0
1, 126480, Note_on_c, 0, 66, 32
1, 126720, Tempo, 258732
1, 126720, Note_on_c, 0, 66, 0
1, 126720, Note_on_c, 0, 42, 0
1, 126720, Note_on_c, 0, 59, 0
1, 126720, Note_on_c, 0, 59, 29
1, 126720, Note_on_c, 0, 63, 37
1, 126720, Note_on_c, 0, 42, 21
1, 126960, Note_on_c, 0, 63, 0
1, 126960, Note_on_c, 0, 66, 28
1, 127200, Tempo, 253807
1, 127200, Note_on_c, 0, 66, 0
1, 127200, Note_on_c, 0, 42, 0
1, 127200, Note_on_c, 0, 59, 0
1, 127200, Note_on_c, 0, 35, 0
1, 127200, Note_on_c, 0, 68, 49
1, 127200, Note_on_c, 0, 35, 21
1, 127200, Control_c, 0, 64, 0
1, 127384, Control_c, 0, 64, 127
1, 127440, Note_on_c, 0, 68, 0
1, 127440, Note_on_c, 0, 64, 28
1, 127680, Note_on_c, 0, 64, 0
1, 127680, Note_on_c, 0, 56, 32
1, 127680, Note_on_c, 0, 68, 41
1, 127680, Note_on_c, 0, 42, 21
1, 127920, Note_on_c, 0, 68, 0
1, 127920, Note_on_c, 0, 64, 28
1, 128160, Tempo, 274098
1, 128160, Note_on_c, 0, 64, 0
1, 128160, Note_on_c, 0, 42, 0
1, 128160, Note_on_c, 0, 56, 0
1, 128160, Note_on_c, 0, 56, 32
1, 128160, Note_on_c, 0, 61, 41
1, 128160, Note_on_c, 0, 42, 21
1, 128174, Control_c, 0, 64, 0
1, 128280, Note_on_c, 0, 42, 0
1, 128280, Note_on_c, 0, 61, 0
1, 128280, Note_on_c, 0, 56, 0
1, 128640, Tempo, 262123
1, 128640, Note_on_c, 0, 35, 0
1, 128640, Note_on_c, 0, 35, 21
1, 129120, Note_on_c, 0, 61, 39
1, 129120, Note_on_c, 0, 56, 30
1, 129120, Note_on_c, 0, 42, 21
1, 129219, Control_c, 0, 64, 127
1, 129360, Note_on_c, 0, 61, 0
1, 129360, Note_on_c, 0, 64, 32
1, 129600, Tempo, 267977
1, 129600, Note_on_c, 0, 64, 0
1, 129600, Note_on_c, 0, 42, 0
1, 129600, Note_on_c, 0, 56, 0
1, 129600, Note_on_c, 0, 56, 29
1, 129600, Note_on_c, 0, 61, 37
1, 129600, Note_on_c, 0, 42, 21
1, 129840, Note_on_c, 0, 61, 0
1, 129840, Note_on_c, 0, 64, 28
1, 130080, Tempo, 286533
1, 130080, Note_on_c, 0, 64, 0
1, 130080, Note_on_c, 0, 42, 0
1, 130080, Note_on_c, 0, 56, 0
1, 130080, Note_on_c, 0, 35, 0
1, 130080, Note_on_c, 0, 66, 48
1, 130080, Note_on_c, 0, 35, 21
1, 130091, Control_c, 0, 64, 0
1, 130264, Control_c, 0, 64, 127
1, 130560, Tempo, 292826
1, 130560, Note_on_c, 0, 58, 30
1, 130560, Note_on_c, 0, 63, 30
1, 130560, Note_on_c, 0, 42, 21
1, 130680, Note_on_c, 0, 42, 0
1, 130680, Note_on_c, 0, 58, 0
1, 130680, Note_on_c, 0, 63, 0
1, 131040, Note_on_c, 0, 58, 30
1, 131040, Note_on_c, 0, 63, 30
1, 131040, Note_on_c, 0, 42, 21
1, 131160, Note_on_c, 0, 42, 0
1, 131160, Note_on_c, 0, 58, 0
1, 131160, Note_on_c, 0, 63, 0
1, 131308, Control_c, 0, 64, 0
1, 131520, Tempo, 262697
1, 131520, Note_on_c, 0, 35, 0
1, 131520, Note_on_c, 0, 66, 0
1, 131520, Note_on_c, 0, 35, 21
1, 131520, Control_c, 0, 64, 0
1, 132000, Note_on_c, 0, 59, 39
1, 132000, Note_on_c, 0, 58, 30
1, 132000, Note_on_c, 0, 42, 21
1, 132043, Control_c, 0, 64, 127
1, 132240, Note_on_c, 0, 59, 0
1, 132240, Note_on_c, 0, 63, 32
1, 132480, Tempo, 258732
1, 132480, Note_on_c, 0, 63, 0
1, 132480, Note_on_c, 0, 42, 0
1, 132480, Note_on_c, 0, 58, 0
1, 132480, Note_on_c, 0, 58, 29
1, 132480, Note_on_c, 0, 59, 37
1, 132480, Note_on_c, 0, 42, 21
1, 132720, Note_on_c, 0, 59, 0
1, 132720, Note_on_c, 0, 63, 28
1, 132960, Tempo, 253807
1, 132960, Note_on_c, 0, 63, 0
1, 132960, Note_on_c, 0, 42, 0
1, 132960, Note_on_c, 0, 58, 0
1, 132960, Note_on_c, 0, 35, 0
1, 132960, Note_on_c, 0, 64, 49
1, 132960, Note_on_c, 0, 35, 21
1, 132960, Control_c, 0, 64, 0
1, 133144, Control_c, 0, 64, 127
1, 133200, Note_on_c, 0, 64, 0
1, 133200, Note_on_c, 0, 61, 28
1, 133440, Note_on_c, 0, 61, 0
1, 133440, Note_on_c, 0, 52, 32
1, 133440, Note_on_c, 0, 64, 41
1, 133440, Note_on_c, 0, 42, 21
1, 133680, Note_on_c, 0, 64, 0
1, 133680, Note_on_c, 0, 61, 28
1, 133920, Tempo, 283152
1, 133920, Note_on_c, 0, 61, 0
1, 133920, Note_on_c, 0, 42, 0
1, 133920, Note_on_c, 0, 52, 0
1, 133920, Note_on_c, 0, 52, 32
1, 133920, Note_on_c, 0, 56, 41
1, 133920, Note_on_c, 0, 42, 21
1, 133934, Control_c, 0, 64, 0
1, 134040, Note_on_c, 0, 42, 0
1, 134040, Note_on_c, 0, 56, 0
1, 134040, Note_on_c, 0, 52, 0
1, 134400, Tempo, 262123
1, 134400, Note_on_c, 0, 35, 0
1, 134400, Note_on_c, 0, 35, 21
1, 134880, Note_on_c, 0, 54, 39
1, 134880, Note_on_c, 0, 49, 30
1, 134880, Note_on_c, 0, 42, 21
1, 134979, Control_c, 0, 64, 127
1, 135120, Note_on_c, 0, 54, 0
1, 135120, Note_on_c, 0, 58, 32
1, 135360, Tempo, 267977
1, 135360, Note_on_c, 0, 58, 0
1, 135360, Note_on_c, 0, 42, 0
1, 135360, Note_on_c, 0, 49, 0
1, 135360, Note_on_c, 0, 49, 29
1, 135360, Note_on_c, 0, 54, 37
1, 135360, Note_on_c, 0, 42, 21
1, 135600, Note_on_c, 0, 54, 0
1, 135600, Note_on_c, 0, 58, 28
1, 135840, Tempo, 289995
1, 135840, Note_on_c, 0, 58, 0
1, 135840, Note_on_c, 0, 42, 0
1, 135840, Note_on_c, 0, 49, 0
1, 135840, Note_on_c, 0, 35, 0
1, 135840, Note_on_c, 0, 59, 48
1, 135840, Note_on_c, 0, 35, 21
1, 135851, Control_c, 0, 64, 0
1, 136024, Control_c, 0, 64, 127
1, 136320, Tempo, 301659
1, 136320, Note_on_c, 0, 51, 30
1, 136320, Note_on_c, 0, 54, 30
1, 136320, Note_on_c, 0, 42, 21
1, 136440, Note_on_c, 0, 42, 0
1, 136440, Note_on_c, 0, 51, 0
1, 136440, Note_on_c, 0, 54, 0
1, 136800, Tempo, 303183
1, 136800, Note_on_c, 0, 51, 30
1, 136800, Note_on_c, 0, 54, 30
1, 136800, Note_on_c, 0, 42, 21
1, 136920, Note_on_c, 0, 42, 0
1, 136920, Note_on_c, 0, 51, 0
1, 136920, Note_on_c, 0, 54, 0
1, 137068, Control_c, 0, 64, 0
1, 137280, Key_signature, -5, "major"
1, 137280, Tempo, 262697
1, 137280, Note_on_c, 0, 35, 0
1, 137280, Note_on_c, 0, 59, 0
1, 137280, Note_on_c, 0, 70, 21
1, 137280, Note_on_c, 0, 63, 21
1, 137760, Note_on_c, 0, 78, 30
1, 137760, Note_on_c, 0, 75, 30
1, 137803, Control_c, 0, 64, 127
1, 138000, Note_on_c, 0, 78, 0
1, 138000, Note_on_c, 0, 82, 25
1, 138240, Tempo, 258732
1, 138240, Note_on_c, 0, 82, 0
1, 138240, Note_on_c, 0, 75, 0
1, 138240, Note_on_c, 0, 75, 29
1, 138240, Note_on_c, 0, 78, 29
1, 138480, Note_on_c, 0, 78, 0
1, 138480, Note_on_c, 0, 82, 22
1, 138720, Tempo, 253807
1, 138720, Note_on_c, 0, 82, 0
1, 138720, Note_on_c, 0, 75, 0
1, 138720, Note_on_c, 0, 63, 0
1, 138720, Note_on_c, 0, 70, 0
1, 138720, Note_on_c, 0, 84, 38
1, 138720, Note_on_c, 0, 56, 21
1, 138720, Note_on_c, 0, 63, 21
1, 138720, Control_c, 0, 64, 0
1, 138904, Control_c, 0, 64, 127
1, 138960, Note_on_c, 0, 84, 0
1, 138960, Note_on_c, 0, 80, 22
1, 139200, Note_on_c, 0, 80, 0
1, 139200, Note_on_c, 0, 72, 32
1, 139200, Note_on_c, 0, 84, 32
1, 139440, Note_on_c, 0, 84, 0
1, 139440, Note_on_c, 0, 80, 22
1, 139680, Tempo, 274098
1, 139680, Note_on_c, 0, 80, 0
1, 139680, Note_on_c, 0, 72, 0
1, 139680, Note_on_c, 0, 72, 32
1, 139680, Note_on_c, 0, 75, 32
1, 139694, Control_c, 0, 64, 0
1, 139800, Note_on_c, 0, 75, 0
1, 139800, Note_on_c, 0, 72, 0
1, 140160, Tempo, 262123
1, 140160, Note_on_c, 0, 63, 0
1, 140160, Note_on_c, 0, 56, 0
1, 140160, Note_on_c, 0, 63, 21
1, 140160, Note_on_c, 0, 70, 21
1, 140640, Note_on_c, 0, 78, 30
1, 140640, Note_on_c, 0, 75, 30
1, 140739, Control_c, 0, 64, 127
1, 140880, Note_on_c, 0, 78, 0
1, 140880, Note_on_c, 0, 82, 25
1, 141120, Tempo, 267977
1, 141120, Note_on_c, 0, 82, 0
1, 141120, Note_on_c, 0, 75, 0
1, 141120, Note_on_c, 0, 75, 29
1, 141120, Note_on_c, 0, 78, 29
1, 141360, Note_on_c, 0, 78, 0
1, 141360, Note_on_c, 0, 82, 22
1, 141600, Tempo, 287219
1, 141600, Note_on_c, 0, 82, 0
1, 141600, Note_on_c, 0, 75, 0
1, 141600, Note_on_c, 0, 70, 0
1, 141600, Note_on_c, 0, 63, 0
1, 141600, Note_on_c, 0, 77, 37
1, 141600, Note_on_c, 0, 58, 21
1, 141600, Note_on_c, 0, 65, 21
1, 141611, Control_c, 0, 64, 0
1, 141784, Control_c, 0, 64, 127
1, 142080, Tempo, 297915
1, 142080, Note_on_c, 0, 70, 30
1, 142080, Note_on_c, 0, 74, 30
1, 142200, Note_on_c, 0, 74, 0
1, 142200, Note_on_c, 0, 70, 0
1, 142560, Note_on_c, 0, 70, 30
1, 142560, Note_on_c, 0, 74, 30
1, 142680, Note_on_c, 0, 74, 0
1, 142680, Note_on_c, 0, 70, 0
1, 142828, Control_c, 0, 64, 0
1, 143040, Tempo, 262697
1, 143040, Note_on_c, 0, 65, 0
1, 143040, Note_on_c, 0, 58, 0
1, 143040, Note_on_c, 0, 77, 0
1, 143040, Note_on_c, 0, 77, 21
1, 143040, Note_on_c, 0, 70, 21
1, 143520, Note_on_c, 0, 85, 33
1, 143520, Note_on_c, 0, 82, 33
1, 143704, Control_c, 0, 64, 127
1, 143760, Note_on_c, 0, 85, 0
1, 143760, Note_on_c, 0, 89, 27
1, 144000, Tempo, 258176
1, 144000, Note_on_c, 0, 89, 0
1, 144000, Note_on_c, 0, 82, 0
1, 144000, Note_on_c, 0, 82, 31
1, 144000, Note_on_c, 0, 85, 31
1, 144240, Note_on_c, 0, 85, 0
1, 144240, Note_on_c, 0, 89, 24
1, 144480, Tempo, 253807
1, 144480, Note_on_c, 0, 89, 0
1, 144480, Note_on_c, 0, 82, 0
1, 144480, Note_on_c, 0, 70, 0
1, 144480, Note_on_c, 0, 77, 0
1, 144480, Note_on_c, 0, 91, 44
1, 144480, Note_on_c, 0, 63, 21
1, 144480, Note_on_c, 0, 70, 21
1, 144489, Control_c, 0, 64, 0
1, 144660, Control_c, 0, 64, 127
1, 144720, Note_on_c, 0, 91, 0
1, 144720, Note_on_c, 0, 87, 24
1, 144960, Note_on_c, 0, 87, 0
1, 144960, Note_on_c, 0, 79, 35
1, 144960, Note_on_c, 0, 91, 35
1, 145200, Note_on_c, 0, 91, 0
1, 145200, Note_on_c, 0, 87, 24
1, 145440, Tempo, 285171
1, 145440, Note_on_c, 0, 87, 0
1, 145440, Note_on_c, 0, 79, 0
1, 145440, Note_on_c, 0, 79, 35
1, 145440, Note_on_c, 0, 82, 35
1, 145447, Control_c, 0, 64, 0
1, 145560, Note_on_c, 0, 82, 0
1, 145560, Note_on_c, 0, 79, 0
1, 145920, Tempo, 262123
1, 145920, Note_on_c, 0, 70, 0
1, 145920, Note_on_c, 0, 63, 0
1, 145920, Note_on_c, 0, 70, 21
1, 145920, Note_on_c, 0, 77, 21
1, 146400, Note_on_c, 0, 85, 33
1, 146400, Note_on_c, 0, 82, 33
1, 146400, Control_c, 0, 64, 127
1, 146640, Note_on_c, 0, 85, 0
1, 146640, Note_on_c, 0, 89, 27
1, 146880, Tempo, 267977
1, 146880, Note_on_c, 0, 89, 0
1, 146880, Note_on_c, 0, 82, 0
1, 146880, Note_on_c, 0, 82, 31
1, 146880, Note_on_c, 0, 85, 31
1, 147120, Note_on_c, 0, 85, 0
1, 147120, Note_on_c, 0, 89, 24
1, 147360, Tempo, 288600
1, 147360, Note_on_c, 0, 89, 0
1, 147360, Note_on_c, 0, 82, 0
1, 147360, Note_on_c, 0, 77, 0
1, 147360, Note_on_c, 0, 70, 0
1, 147360, Note_on_c, 0, 84, 40
1, 147360, Note_on_c, 0, 65, 21
1, 147360, Note_on_c, 0, 72, 21
1, 147369, Control_c, 0, 64, 0
1, 147540, Control_c, 0, 64, 127
1, 147840, Tempo, 299401
1, 147840, Note_on_c, 0, 77, 33
1, 147840, Note_on_c, 0, 81, 33
1, 147960, Note_on_c, 0, 81, 0
1, 147960, Note_on_c, 0, 77, 0
1, 148320, Tempo, 299401
1, 148320, Note_on_c, 0, 77, 33
1, 148320, Note_on_c, 0, 81, 33
1, 148440, Note_on_c, 0, 81, 0
1, 148440, Note_on_c, 0, 77, 0
1, 148560, Control_c, 0, 64, 0
1, 148800, Tempo, 262697
1, 148800, Note_on_c, 0, 72, 0
1, 148800, Note_on_c, 0, 65, 0
1, 148800, Note_on_c, 0, 84, 0
1, 148800, Note_on_c, 0, 60, 21
1, 148800, Note_on_c, 0, 53, 21
1, 149280, Note_on_c, 0, 68, 30
1, 149280, Note_on_c, 0, 65, 30
1, 149323, Control_c, 0, 64, 127
1, 149520, Note_on_c, 0, 68, 0
1, 149520, Note_on_c, 0, 72, 25
1, 149760, Tempo, 258732
1, 149760, Note_on_c, 0, 72, 0
1, 149760, Note_on_c, 0, 65, 0
1, 149760, Note_on_c, 0, 65, 29
1, 149760, Note_on_c, 0, 68, 29
1, 150000, Note_on_c, 0, 68, 0
1, 150000, Note_on_c, 0, 72, 22
1, 150240, Tempo, 253807
1, 150240, Note_on_c, 0, 72, 0
1, 150240, Note_on_c, 0, 65, 0
1, 150240, Note_on_c, 0, 53, 0
1, 150240, Note_on_c, 0, 60, 0
1, 150240, Note_on_c, 0, 74, 38
1, 150240, Note_on_c, 0, 46, 21
1, 150240, Note_on_c, 0, 53, 21
1, 150240, Control_c, 0, 64, 0
1, 150424, Control_c, 0, 64, 127
1, 150480, Note_on_c, 0, 74, 0
1, 150480, Note_on_c, 0, 70, 22
1, 150720, Note_on_c, 0, 70, 0
1, 150720, Note_on_c, 0, 62, 32
1, 150720, Note_on_c, 0, 74, 32
1, 150960, Note_on_c, 0, 74, 0
1, 150960, Note_on_c, 0, 70, 22
1, 151200, Tempo, 274098
1, 151200, Note_on_c, 0, 70, 0
1, 151200, Note_on_c, 0, 62, 0
1, 151200, Note_on_c, 0, 62, 32
1, 151200, Note_on_c, 0, 65, 32
1, 151214, Control_c, 0, 64, 0
1, 151320, Note_on_c, 0, 65, 0
1, 151320, Note_on_c, 0, 62, 0
1, 151680, Tempo, 262123
1, 151680, Note_on_c, 0, 53, 0
1, 151680, Note_on_c, 0, 46, 0
1, 151680, Note_on_c, 0, 53, 21
1, 151680, Note_on_c, 0, 60, 21
1, 152160, Note_on_c, 0, 68, 30
1, 152160, Note_on_c, 0, 65, 30
1, 152259, Control_c, 0, 64, 127
1, 152400, Note_on_c, 0, 68, 0
1, 152400, Note_on_c, 0, 72, 25
1, 152640, Tempo, 267977
1, 152640, Note_on_c, 0, 72, 0
1, 152640, Note_on_c, 0, 65, 0
1, 152640, Note_on_c, 0, 65, 29
1, 152640, Note_on_c, 0, 68, 29
1, 152880, Note_on_c, 0, 68, 0
1, 152880, Note_on_c, 0, 72, 22
1, 153120, Tempo, 287219
1, 153120, Note_on_c, 0, 72, 0
1, 153120, Note_on_c, 0, 65, 0
1, 153120, Note_on_c, 0, 60, 0
1, 153120, Note_on_c, 0, 53, 0
1, 153120, Note_on_c, 0, 67, 37
1, 153120, Note_on_c, 0, 48, 21
1, 153120, Note_on_c, 0, 55, 21
1, 153131, Control_c, 0, 64, 0
1, 153304, Control_c, 0, 64, 127
1, 153600, Tempo, 297915
1, 153600, Note_on_c, 0, 60, 30
1, 153600, Note_on_c, 0, 64, 30
1, 153720, Note_on_c, 0, 64, 0
1, 153720, Note_on_c, 0, 60, 0
1, 154080, Note_on_c, 0, 60, 30
1, 154080, Note_on_c, 0, 64, 30
1, 154200, Note_on_c, 0, 64, 0
1, 154200, Note_on_c, 0, 60, 0
1, 154348, Control_c, 0, 64, 0
1, 154560, Tempo, 262697
1, 154560, Note_on_c, 0, 55, 0
1, 154560, Note_on_c, 0, 48, 0
1, 154560, Note_on_c, 0, 67, 0
1, 154560, Note_on_c, 0, 67, 28
1, 154560, Note_on_c, 0, 60, 28
1, 155040, Note_on_c, 0, 75, 41
1, 155040, Note_on_c, 0, 72, 41
1, 155224, Control_c, 0, 64, 127
1, 155280, Note_on_c, 0, 75, 0
1, 155280, Note_on_c, 0, 79, 35
1, 155520, Tempo, 258176
1, 155520, Note_on_c, 0, 79, 0
1, 155520, Note_on_c, 0, 72, 0
1, 155520, Note_on_c, 0, 72, 40
1, 155520, Note_on_c, 0, 75, 40
1, 155760, Note_on_c, 0, 75, 0
1, 155760, Note_on_c, 0, 79, 31
1, 156000, Tempo, 253807
1, 156000, Note_on_c, 0, 79, 0
1, 156000, Note_on_c, 0, 72, 0
1, 156000, Note_on_c, 0, 60, 0
1, 156000, Note_on_c, 0, 67, 0
1, 156000, Note_on_c, 0, 81, 59
1, 156000, Note_on_c, 0, 53, 30
1, 156000, Note_on_c, 0, 60, 30
1, 156009, Control_c, 0, 64, 0
1, 156180, Control_c, 0, 64, 127
1, 156240, Note_on_c, 0, 81, 0
1, 156240, Note_on_c, 0, 77, 32
1, 156480, Note_on_c, 0, 77, 0
1, 156480, Note_on_c, 0, 69, 48
1, 156480, Note_on_c, 0, 81, 48
1, 156720, Note_on_c, 0, 81, 0
1, 156720, Note_on_c, 0, 77, 33
1, 156960, Tempo, 285171
1, 156960, Note_on_c, 0, 77, 0
1, 156960, Note_on_c, 0, 69, 0
1, 156960, Note_on_c, 0, 69, 49
1, 156960, Note_on_c, 0, 72, 49
1, 156967, Control_c, 0, 64, 0
1, 157080, Note_on_c, 0, 72, 0
1, 157080, Note_on_c, 0, 69, 0
1, 157440, Tempo, 262697
1, 157440, Note_on_c, 0, 60, 0
1, 157440, Note_on_c, 0, 53, 0
1, 157440, Note_on_c, 0, 79, 35
1, 157440, Note_on_c, 0, 72, 35
1, 157920, Note_on_c, 0, 87, 53
1, 157920, Note_on_c, 0, 84, 53
1, 158104, Control_c, 0, 64, 127
1, 158160, Note_on_c, 0, 87, 0
1, 158160, Note_on_c, 0, 91, 43
1, 158400, Tempo, 258176
1, 158400, Note_on_c, 0, 91, 0
1, 158400, Note_on_c, 0, 84, 0
1, 158400, Note_on_c, 0, 84, 51
1, 158400, Note_on_c, 0, 87, 51
1, 158640, Note_on_c, 0, 87, 0
1, 158640, Note_on_c, 0, 91, 38
1, 158880, Tempo, 253807
1, 158880, Note_on_c, 0, 91, 0
1, 158880, Note_on_c, 0, 84, 0
1, 158880, Note_on_c, 0, 72, 0
1, 158880, Note_on_c, 0, 79, 0
1, 158880, Note_on_c, 0, 93, 74
1, 158880, Note_on_c, 0, 65, 38
1, 158880, Note_on_c, 0, 72, 38
1, 158889, Control_c, 0, 64, 0
1, 159060, Control_c, 0, 64, 127
1, 159120, Note_on_c, 0, 93, 0
1, 159120, Note_on_c, 0, 89, 39
1, 159360, Note_on_c, 0, 89, 0
1, 159360, Note_on_c, 0, 81, 59
1, 159360, Note_on_c, 0, 93, 59
1, 159600, Note_on_c, 0, 93, 0
1, 159600, Note_on_c, 0, 89, 40
1, 159840, Tempo, 285171
1, 159840, Note_on_c, 0, 89, 0
1, 159840, Note_on_c, 0, 81, 0
1, 159840, Note_on_c, 0, 81, 61
1, 159840, Note_on_c, 0, 84, 61
1, 159847, Control_c, 0, 64, 0
1, 159960, Note_on_c, 0, 84, 0
1, 159960, Note_on_c, 0, 81, 0
1, 160320, Tempo, 254248
1, 160320, Note_on_c, 0, 72, 0
1, 160320, Note_on_c, 0, 65, 0
1, 160320, Note_on_c, 0, 75, 63
1, 160320, Note_on_c, 0, 72, 53
1, 160320, Note_on_c, 0, 67, 53
1, 160320, Note_on_c, 0, 60, 45
1, 160433, Control_c, 0, 64, 127
1, 160560, Note_on_c, 0, 75, 0
1, 160560, Note_on_c, 0, 79, 70
1, 160800, Tempo, 284374
1, 160800, Note_on_c, 0, 79, 0
1, 160800, Note_on_c, 0, 60, 0
1, 160800, Note_on_c, 0, 67, 0
1, 160800, Note_on_c, 0, 72, 0
1, 160800, Note_on_c, 0, 72, 60
1, 160800, Note_on_c, 0, 77, 71
1, 160800, Note_on_c, 0, 81, 71
1, 160800, Note_on_c, 0, 69, 50
1, 160800, Note_on_c, 0, 65, 41
1, 160817, Control_c, 0, 64, 0
1, 161040, Control_c, 0, 64, 127
1, 161760, Tempo, 254248
1, 161760, Note_on_c, 0, 65, 0
1, 161760, Note_on_c, 0, 81, 0
1, 161760, Note_on_c, 0, 72, 0
1, 161760, Note_on_c, 0, 77, 0
1, 161760, Note_on_c, 0, 69, 0
1, 161760, Note_on_c, 0, 87, 72
1, 161760, Note_on_c, 0, 84, 61
1, 161760, Note_on_c, 0, 79, 62
1, 161760, Note_on_c, 0, 72, 51
1, 161774, Control_c, 0, 64, 0
1, 161873, Control_c, 0, 64, 127
1, 162000, Note_on_c, 0, 87, 0
1, 162000, Note_on_c, 0, 91, 80
1, 162240, Tempo, 284374
1, 162240, Note_on_c, 0, 91, 0
1, 162240, Note_on_c, 0, 72, 0
1, 162240, Note_on_c, 0, 79, 0
1, 162240, Note_on_c, 0, 84, 0
1, 162240, Note_on_c, 0, 84, 68
1, 162240, Note_on_c, 0, 89, 81
1, 162240, Note_on_c, 0, 93, 81
1, 162240, Note_on_c, 0, 81, 56
1, 162240, Note_on_c, 0, 77, 47
1, 162257, Control_c, 0, 64, 0
1, 162480, Control_c, 0, 64, 127
1, 163200, Tempo, 254248
1, 163200, Note_on_c, 0, 77, 0
1, 163200, Note_on_c, 0, 93, 0
1, 163200, Note_on_c, 0, 84, 0
1, 163200, Note_on_c, 0, 89, 0
1, 163200, Note_on_c, 0, 81, 0
1, 163200, Note_on_c, 0, 75, 70
1, 163200, Note_on_c, 0, 72, 58
1, 163200, Note_on_c, 0, 67, 58
1, 163200, Note_on_c, 0, 60, 47
1, 163200, Control_c, 0, 64, 0
1, 163313, Control_c, 0, 64, 127
1, 163440, Note_on_c, 0, 75, 0
1, 163440, Note_on_c, 0, 79, 76
1, 163680, Tempo, 284374
1, 163680, Note_on_c, 0, 79, 0
1, 163680, Note_on_c, 0, 60, 0
1, 163680, Note_on_c, 0, 67, 0
1, 163680, Note_on_c, 0, 72, 0
1, 163680, Note_on_c, 0, 72, 65
1, 163680, Note_on_c, 0, 77, 77
1, 163680, Note_on_c, 0, 81, 77
1, 163680, Note_on_c, 0, 69, 53
1, 163680, Note_on_c, 0, 65, 45
1, 163697, Control_c, 0, 64, 0
1, 163920, Control_c, 0, 64, 127
1, 164640, Tempo, 254248
1, 164640, Note_on_c, 0, 65, 0
1, 164640, Note_on_c, 0, 81, 0
1, 164640, Note_on_c, 0, 72, 0
1, 164640, Note_on_c, 0, 77, 0
1, 164640, Note_on_c, 0, 69, 0
1, 164640, Note_on_c, 0, 87, 78
1, 164640, Note_on_c, 0, 84, 66
1, 164640, Note_on_c, 0, 79, 68
1, 164640, Note_on_c, 0, 72, 56
1, 164654, Control_c, 0, 64, 0
1, 164753, Control_c, 0, 64, 127
1, 164880, Note_on_c, 0, 87, 0
1, 164880, Note_on_c, 0, 91, 87
1, 165120, Tempo, 284374
1, 165120, Note_on_c, 0, 91, 0
1, 165120, Note_on_c, 0, 72, 0
1, 165120, Note_on_c, 0, 79, 0
1, 165120, Note_on_c, 0, 84, 0
1, 165120, Note_on_c, 0, 84, 75
1, 165120, Note_on_c, 0, 89, 88
1, 165120, Note_on_c, 0, 93, 88
1, 165120, Note_on_c, 0, 81, 60
1, 165120, Note_on_c, 0, 77, 52
1, 165137, Control_c, 0, 64, 0
1, 165360, Control_c, 0, 64, 127
1, 166071, Note_on_c, 0, 77, 0
1, 166071, Note_on_c, 0, 93, 0
1, 166071, Note_on_c, 0, 84, 0
1, 166071, Note_on_c, 0, 89, 0
1, 166071, Note_on_c, 0, 81, 0
1, 166080, Tempo, 272121
1, 166080, Note_on_c, 0, 72, 85
1, 166080, Note_on_c, 0, 77, 85
1, 166080, Note_on_c, 0, 81, 85
1, 166080, Note_on_c, 0, 65, 47
1, 166080, Note_on_c, 0, 69, 58
1, 166080, Control_c, 0, 64, 0
1, 166423, Control_c, 0, 64, 127
1, 167031, Note_on_c, 0, 69, 0
1, 167031, Note_on_c, 0, 81, 0
1, 167031, Note_on_c, 0, 72, 0
1, 167031, Note_on_c, 0, 77, 0
1, 167031, Note_on_c, 0, 65, 0
1, 167040, Tempo, 282366
1, 167040, Note_on_c, 0, 84, 88
1, 167040, Note_on_c, 0, 89, 88
1, 167040, Note_on_c, 0, 93, 88
1, 167040, Note_on_c, 0, 77, 52
1, 167040, Note_on_c, 0, 81, 60
1, 167991, Note_on_c, 0, 81, 0
1, 167991, Note_on_c, 0, 93, 0
1, 167991, Note_on_c, 0, 84, 0
1, 167991, Note_on_c, 0, 89, 0
1, 167991, Note_on_c, 0, 77, 0
1, 168000, Tempo, 271505
1, 168000, Note_on_c, 0, 72, 85
1, 168000, Note_on_c, 0, 77, 85
1, 168000, Note_on_c, 0, 81, 85
1, 168000, Note_on_c, 0, 65, 47
1, 168000, Note_on_c, 0, 69, 58
1, 168951, Note_on_c, 0, 69, 0
1, 168951, Note_on_c, 0, 81, 0
1, 168951, Note_on_c, 0, 72, 0
1, 168951, Note_on_c, 0, 77, 0
1, 168951, Note_on_c, 0, 65, 0
1, 168960, Tempo, 281703
1, 168960, Note_on_c, 0, 84, 88
1, 168960, Note_on_c, 0, 89, 88
1, 168960, Note_on_c, 0, 93, 88
1, 168960, Note_on_c, 0, 77, 52
1, 168960, Note_on_c, 0, 81, 60
1, 169911, Note_on_c, 0, 81, 0
1, 169911, Note_on_c, 0, 93, 0
1, 169911, Note_on_c, 0, 84, 0
1, 169911, Note_on_c, 0, 89, 0
1, 169911, Note_on_c, 0, 77, 0
1, 169920, Tempo, 272740
1, 169920, Note_on_c, 0, 72, 85
1, 169920, Note_on_c, 0, 77, 85
1, 169920, Note_on_c, 0, 81, 85
1, 169920, Note_on_c, 0, 65, 47
1, 169920, Note_on_c, 0, 69, 58
1, 170871, Note_on_c, 0, 69, 0
1, 170871, Note_on_c, 0, 81, 0
1, 170871, Note_on_c, 0, 72, 0
1, 170871, Note_on_c, 0, 77, 0
1, 170871, Note_on_c, 0, 65, 0
1, 170880, Tempo, 303813
1, 170880, Note_on_c, 0, 84, 88
1, 170880, Note_on_c, 0, 89, 88
1, 170880, Note_on_c, 0, 93, 88
1, 170880, Note_on_c, 0, 77, 52
1, 170880, Note_on_c, 0, 81, 60
1, 171831, Note_on_c, 0, 81, 0
1, 171831, Note_on_c, 0, 93, 0
1, 171831, Note_on_c, 0, 84, 0
1, 171831, Note_on_c, 0, 89, 0
1, 171831, Note_on_c, 0, 77, 0
1, 171840, Key_signature, 4, "major"
1, 171840, Tempo, 281703
1, 171840, Note_on_c, 0, 71, 92
1, 171840, Note_on_c, 0, 78, 92
1, 171840, Note_on_c, 0, 83, 92
1, 171840, Note_on_c, 0, 59, 42
1, 171840, Note_on_c, 0, 66, 51
1, 171840, Control_c, 0, 64, 0
1, 172183, Control_c, 0, 64, 127
1, 172791, Note_on_c, 0, 66, 0
1, 172791, Note_on_c, 0, 83, 0
1, 172791, Note_on_c, 0, 71, 0
1, 172791, Note_on_c, 0, 78, 0
1, 172791, Note_on_c, 0, 59, 0
1, 172800, Tempo, 289869
1, 172800, Note_on_c, 0, 83, 97
1, 172800, Note_on_c, 0, 90, 97
1, 172800, Note_on_c, 0, 95, 97
1, 172800, Note_on_c, 0, 71, 46
1, 172800, Note_on_c, 0, 78, 52
1, 173280, Tempo, 289869
1, 173751, Note_on_c, 0, 78, 0
1, 173751, Note_on_c, 0, 95, 0
1, 173751, Note_on_c, 0, 83, 0
1, 173751, Note_on_c, 0, 90, 0
1, 173751, Note_on_c, 0, 71, 0
1, 173760, Tempo, 285049
1, 173760, Note_on_c, 0, 71, 92
1, 173760, Note_on_c, 0, 78, 92
1, 173760, Note_on_c, 0, 83, 92
1, 173760, Note_on_c, 0, 59, 42
1, 173760, Note_on_c, 0, 66, 51
1, 174711, Note_on_c, 0, 66, 0
1, 174711, Note_on_c, 0, 83, 0
1, 174711, Note_on_c, 0, 71, 0
1, 174711, Note_on_c, 0, 78, 0
1, 174711, Note_on_c, 0, 59, 0
1, 174720, Tempo, 292697
1, 174720, Note_on_c, 0, 83, 97
1, 174720, Note_on_c, 0, 90, 97
1, 174720, Note_on_c, 0, 95, 97
1, 174720, Note_on_c, 0, 71, 46
1, 174720, Note_on_c, 0, 78, 52
1, 175671, Note_on_c, 0, 78, 0
1, 175671, Note_on_c, 0, 95, 0
1, 175671, Note_on_c, 0, 83, 0
1, 175671, Note_on_c, 0, 90, 0
1, 175671, Note_on_c, 0, 71, 0
1, 175680, Tempo, 319166
1, 175680, Note_on_c, 0, 71, 92
1, 175680, Note_on_c, 0, 78, 92
1, 175680, Note_on_c, 0, 83, 92
1, 175680, Note_on_c, 0, 59, 42
1, 175680, Note_on_c, 0, 66, 51
1, 176160, Tempo, 321733
1, 176631, Note_on_c, 0, 66, 0
1, 176631, Note_on_c, 0, 83, 0
1, 176631, Note_on_c, 0, 71, 0
1, 176631, Note_on_c, 0, 78, 0
1, 176631, Note_on_c, 0, 59, 0
1, 176640, Tempo, 282366
1, 176640, Note_on_c, 0, 83, 97
1, 176640, Note_on_c, 0, 90, 97
1, 176640, Note_on_c, 0, 95, 97
1, 176640, Note_on_c, 0, 71, 46
1, 176640, Note_on_c, 0, 78, 52
1, 177591, Note_on_c, 0, 78, 0
1, 177591, Note_on_c, 0, 95, 0
1, 177591, Note_on_c, 0, 83, 0
1, 177591, Note_on_c, 0, 90, 0
1, 177591, Note_on_c, 0, 71, 0
1, 177600, Tempo, 262697
1, 177600, Note_on_c, 0, 47, 94
1, 177600, Note_on_c, 0, 40, 79
1, 177600, Control_c, 0, 64, 0
1, 177770, Control_c, 0, 64, 127
1, 177840, Note_on_c, 0, 40, 0
1, 177840, Note_on_c, 0, 47, 0
1, 178080, Note_on_c, 0, 76, 76
1, 178080, Note_on_c, 0, 80, 92
1, 178080, Note_on_c, 0, 59, 71
1, 178080, Note_on_c, 0, 52, 60
1, 178320, Note_on_c, 0, 80, 0
1, 178320, Note_on_c, 0, 83, 76
1, 178560, Tempo, 258732
1, 178560, Note_on_c, 0, 83, 0
1, 178560, Note_on_c, 0, 76, 0
1, 178560, Note_on_c, 0, 80, 90
1, 178560, Note_on_c, 0, 76, 75
1, 178800, Note_on_c, 0, 80, 0
1, 178800, Note_on_c, 0, 83, 76
1, 179040, Tempo, 253807
1, 179040, Note_on_c, 0, 83, 0
1, 179040, Note_on_c, 0, 76, 0
1, 179040, Note_on_c, 0, 59, 0
1, 179040, Note_on_c, 0, 52, 0
1, 179040, Note_on_c, 0, 85, 92
1, 179040, Note_on_c, 0, 47, 80
1, 179040, Note_on_c, 0, 40, 68
1, 179040, Control_c, 0, 64, 0
1, 179146, Control_c, 0, 64, 127
1, 179280, Note_on_c, 0, 40, 0
1, 179280, Note_on_c, 0, 47, 0
1, 179280, Note_on_c, 0, 85, 0
1, 179280, Note_on_c, 0, 81, 77
1, 179520, Tempo, 261449
1, 179520, Note_on_c, 0, 81, 0
1, 179520, Note_on_c, 0, 73, 55
1, 179520, Note_on_c, 0, 85, 75
1, 179520, Note_on_c, 0, 59, 70
1, 179520, Note_on_c, 0, 52, 59
1, 179760, Note_on_c, 0, 85, 0
1, 179760, Note_on_c, 0, 81, 72
1, 180000, Tempo, 274098
1, 180000, Note_on_c, 0, 81, 0
1, 180000, Note_on_c, 0, 73, 0
1, 180000, Note_on_c, 0, 73, 71
1, 180000, Note_on_c, 0, 78, 80
1, 180120, Note_on_c, 0, 78, 0
1, 180120, Note_on_c, 0, 73, 0
1, 180233, Control_c, 0, 64, 0
1, 180480, Tempo, 262697
1, 180480, Note_on_c, 0, 59, 0
1, 180480, Note_on_c, 0, 52, 0
1, 180480, Note_on_c, 0, 47, 75
1, 180480, Note_on_c, 0, 40, 63
1, 180480, Control_c, 0, 64, 0
1, 180650, Control_c, 0, 64, 127
1, 180720, Note_on_c, 0, 40, 0
1, 180720, Note_on_c, 0, 47, 0
1, 180960, Note_on_c, 0, 78, 87
1, 180960, Note_on_c, 0, 73, 87
1, 180960, Note_on_c, 0, 59, 71
1, 180960, Note_on_c, 0, 52, 60
1, 181200, Note_on_c, 0, 78, 0
1, 181200, Note_on_c, 0, 81, 76
1, 181440, Tempo, 258732
1, 181440, Note_on_c, 0, 81, 0
1, 181440, Note_on_c, 0, 73, 0
1, 181440, Note_on_c, 0, 73, 86
1, 181440, Note_on_c, 0, 78, 86
1, 181680, Note_on_c, 0, 78, 0
1, 181680, Note_on_c, 0, 81, 75
1, 181920, Tempo, 269070
1, 181920, Note_on_c, 0, 81, 0
1, 181920, Note_on_c, 0, 73, 0
1, 181920, Note_on_c, 0, 59, 0
1, 181920, Note_on_c, 0, 52, 0
1, 181920, Note_on_c, 0, 83, 88
1, 181920, Note_on_c, 0, 47, 80
1, 181920, Note_on_c, 0, 40, 68
1, 181920, Control_c, 0, 64, 0
1, 182026, Control_c, 0, 64, 127
1, 182160, Note_on_c, 0, 40, 0
1, 182160, Note_on_c, 0, 47, 0
1, 182400, Tempo, 295581
1, 182400, Note_on_c, 0, 80, 72
1, 182400, Note_on_c, 0, 75, 72
1, 182400, Note_on_c, 0, 59, 70
1, 182400, Note_on_c, 0, 52, 59
1, 182520, Note_on_c, 0, 75, 0
1, 182520, Note_on_c, 0, 80, 0
1, 182880, Tempo, 297782
1, 182880, Note_on_c, 0, 75, 72
1, 182880, Note_on_c, 0, 80, 72
1, 183000, Note_on_c, 0, 80, 0
1, 183000, Note_on_c, 0, 75, 0
1, 183113, Control_c, 0, 64, 0
1, 183360, Tempo, 262697
1, 183360, Note_on_c, 0, 52, 0
1, 183360, Note_on_c, 0, 59, 0
1, 183360, Note_on_c, 0, 83, 0
1, 183360, Note_on_c, 0, 47, 63
1, 183360, Note_on_c, 0, 40, 52
1, 183360, Control_c, 0, 64, 0
1, 183530, Control_c, 0, 64, 127
1, 183600, Note_on_c, 0, 40, 0
1, 183600, Note_on_c, 0, 47, 0
1, 183840, Note_on_c, 0, 76, 75
1, 183840, Note_on_c, 0, 75, 75
1, 183840, Note_on_c, 0, 59, 59
1, 183840, Note_on_c, 0, 52, 50
1, 184080, Note_on_c, 0, 76, 0
1, 184080, Note_on_c, 0, 80, 63
1, 184320, Tempo, 258732
1, 184320, Note_on_c, 0, 80, 0
1, 184320, Note_on_c, 0, 75, 0
1, 184320, Note_on_c, 0, 75, 74
1, 184320, Note_on_c, 0, 76, 74
1, 184560, Note_on_c, 0, 76, 0
1, 184560, Note_on_c, 0, 80, 63
1, 184800, Tempo, 253807
1, 184800, Note_on_c, 0, 80, 0
1, 184800, Note_on_c, 0, 75, 0
1, 184800, Note_on_c, 0, 59, 0
1, 184800, Note_on_c, 0, 52, 0
1, 184800, Note_on_c, 0, 81, 73
1, 184800, Note_on_c, 0, 47, 65
1, 184800, Note_on_c, 0, 40, 55
1, 184800, Control_c, 0, 64, 0
1, 184906, Control_c, 0, 64, 127
1, 185040, Note_on_c, 0, 40, 0
1, 185040, Note_on_c, 0, 47, 0
1, 185040, Note_on_c, 0, 81, 0
1, 185040, Note_on_c, 0, 78, 63
1, 185280, Tempo, 261449
1, 185280, Note_on_c, 0, 78, 0
1, 185280, Note_on_c, 0, 81, 64
1, 185280, Note_on_c, 0, 69, 62
1, 185280, Note_on_c, 0, 59, 57
1, 185280, Note_on_c, 0, 52, 49
1, 185520, Note_on_c, 0, 81, 0
1, 185520, Note_on_c, 0, 78, 58
1, 185760, Tempo, 274098
1, 185760, Note_on_c, 0, 78, 0
1, 185760, Note_on_c, 0, 69, 0
1, 185760, Note_on_c, 0, 69, 65
1, 185760, Note_on_c, 0, 73, 65
1, 185880, Note_on_c, 0, 73, 0
1, 185880, Note_on_c, 0, 69, 0
1, 185993, Control_c, 0, 64, 0
1, 186240, Tempo, 262697
1, 186240, Note_on_c, 0, 59, 0
1, 186240, Note_on_c, 0, 52, 0
1, 186240, Note_on_c, 0, 47, 63
1, 186240, Note_on_c, 0, 40, 52
1, 186240, Control_c, 0, 64, 0
1, 186410, Control_c, 0, 64, 127
1, 186480, Note_on_c, 0, 40, 0
1, 186480, Note_on_c, 0, 47, 0
1, 186720, Note_on_c, 0, 66, 53
1, 186720, Note_on_c, 0, 71, 63
1, 186720, Note_on_c, 0, 59, 59
1, 186720, Note_on_c, 0, 52, 50
1, 186960, Note_on_c, 0, 71, 0
1, 186960, Note_on_c, 0, 75, 53
1, 187200, Tempo, 258732
1, 187200, Note_on_c, 0, 75, 0
1, 187200, Note_on_c, 0, 66, 0
1, 187200, Note_on_c, 0, 71, 63
1, 187200, Note_on_c, 0, 66, 52
1, 187440, Note_on_c, 0, 71, 0
1, 187440, Note_on_c, 0, 75, 53
1, 187680, Tempo, 279083
1, 187680, Note_on_c, 0, 75, 0
1, 187680, Note_on_c, 0, 66, 0
1, 187680, Note_on_c, 0, 59, 0
1, 187680, Note_on_c, 0, 52, 0
1, 187680, Note_on_c, 0, 76, 65
1, 187680, Note_on_c, 0, 47, 65
1, 187680, Note_on_c, 0, 40, 55
1, 187680, Control_c, 0, 64, 0
1, 187786, Control_c, 0, 64, 127
1, 187920, Note_on_c, 0, 40, 0
1, 187920, Note_on_c, 0, 47, 0
1, 188160, Tempo, 306138
1, 188160, Note_on_c, 0, 71, 47
1, 188160, Note_on_c, 0, 68, 47
1, 188160, Note_on_c, 0, 59, 51
1, 188160, Note_on_c, 0, 52, 44
1, 188280, Note_on_c, 0, 68, 0
1, 188280, Note_on_c, 0, 71, 0
1, 188640, Tempo, 306921
1, 188640, Note_on_c, 0, 68, 45
1, 188640, Note_on_c, 0, 71, 45
1, 188760, Note_on_c, 0, 71, 0
1, 188760, Note_on_c, 0, 68, 0
1, 188873, Control_c, 0, 64, 0
1, 189120, Note_on_c, 0, 52, 0
1, 189120, Note_on_c, 0, 59, 0
1, 189120, Note_on_c, 0, 76, 0
1, 190560, Tempo, 262697
1, 190560, Note_on_c, 0, 40, 30
1, 190560, Control_c, 0, 64, 0
1, 190730, Control_c, 0, 64, 127
1, 191040, Note_on_c, 0, 54, 31
1, 191040, Note_on_c, 0, 59, 37
1, 191040, Note_on_c, 0, 47, 35
1, 191280, Note_on_c, 0, 59, 0
1, 191280, Note_on_c, 0, 63, 31
1, 191520, Tempo, 258732
1, 191520, Note_on_c, 0, 63, 0
1, 191520, Note_on_c, 0, 54, 0
1, 191520, Note_on_c, 0, 59, 37
1, 191520, Note_on_c, 0, 54, 30
1, 191760, Note_on_c, 0, 59, 0
1, 191760, Note_on_c, 0, 63, 31
1, 192000, Tempo, 279083
1, 192000, Note_on_c, 0, 63, 0
1, 192000, Note_on_c, 0, 54, 0
1, 192000, Note_on_c, 0, 40, 0
1, 192000, Note_on_c, 0, 47, 0
1, 192000, Note_on_c, 0, 64, 38
1, 192000, Note_on_c, 0, 40, 33
1, 192000, Control_c, 0, 64, 0
1, 192240, Control_c, 0, 64, 127
1, 192480, Tempo, 306138
1, 192480, Note_on_c, 0, 59, 26
1, 192480, Note_on_c, 0, 56, 26
1, 192480, Note_on_c, 0, 47, 30
1, 192600, Note_on_c, 0, 56, 0
1, 192600, Note_on_c, 0, 59, 0
1, 192960, Tempo, 306921
1, 192960, Note_on_c, 0, 56, 25
1, 192960, Note_on_c, 0, 59, 25
1, 193080, Note_on_c, 0, 59, 0
1, 193080, Note_on_c, 0, 56, 0
1, 193193, Control_c, 0, 64, 0
1, 193440, Note_on_c, 0, 47, 0
1, 193440, Note_on_c, 0, 40, 0
1, 193440, Note_on_c, 0, 64, 0
1, 194880, Tempo, 262697
1, 194880, Note_on_c, 0, 40, 25
1, 194880, Control_c, 0, 64, 0
1, 195050, Control_c, 0, 64, 127
1, 195360, Note_on_c, 0, 54, 26
1, 195360, Note_on_c, 0, 59, 31
1, 195360, Note_on_c, 0, 47, 29
1, 195600, Note_on_c, 0, 59, 0
1, 195600, Note_on_c, 0, 63, 26
1, 195840, Tempo, 258732
1, 195840, Note_on_c, 0, 63, 0
1, 195840, Note_on_c, 0, 54, 0
1, 195840, Note_on_c, 0, 59, 31
1, 195840, Note_on_c, 0, 54, 25
1, 196080, Note_on_c, 0, 59, 0
1, 196080, Note_on_c, 0, 63, 26
1, 196320, Tempo, 283701
1, 196320, Note_on_c, 0, 63, 0
1, 196320, Note_on_c, 0, 54, 0
1, 196320, Note_on_c, 0, 40, 0
1, 196320, Note_on_c, 0, 47, 0
1, 196320, Control_c, 0, 64, 0
1, 197760, Tempo, 262697
1, 197760, Note_on_c, 0, 40, 21
1, 197760, Control_c, 0, 64, 0
1, 197930, Control_c, 0, 64, 127
1, 198240, Note_on_c, 0, 54, 22
1, 198240, Note_on_c, 0, 59, 26
1, 198240, Note_on_c, 0, 47, 24
1, 198480, Note_on_c, 0, 59, 0
1, 198480, Note_on_c, 0, 63, 22
1, 198720, Tempo, 258732
1, 198720, Note_on_c, 0, 63, 0
1, 198720, Note_on_c, 0, 54, 0
1, 198720, Note_on_c, 0, 59, 26
1, 198720, Note_on_c, 0, 54, 21
1, 198960, Note_on_c, 0, 59, 0
1, 198960, Note_on_c, 0, 63, 22
1, 199200, Time_signature, 2, 2, 24, 8
1, 199200, Key_signature, 1, "major"
1, 199200, Tempo, 1739635
1, 199200, Marker_t, "Andante"
1, 199200, Note_on_c, 0, 63, 0
1, 199200, Note_on_c, 0, 54, 0
1, 199200, Note_on_c, 0, 40, 0
1, 199200, Note_on_c, 0, 47, 0
1, 199254, Control_c, 0, 64, 0
1, 199680, Tempo, 952381
1, 199680, Note_on_c, 0, 71, 39
1, 200160, Time_signature, 4, 2, 24, 8
1, 200160, Note_on_c, 0, 71, 0
1, 200160, Note_on_c, 0, 64, 42
1, 200287, Control_c, 0, 64, 127
1, 200520, Note_on_c, 0, 66, 36
1, 200635, Note_on_c, 0, 64, 0
1, 200640, Note_on_c, 0, 66, 0
1, 200640, Note_on_c, 0, 67, 43
1, 200640, Note_on_c, 0, 64, 30
1, 200640, Note_on_c, 0, 62, 25
1, 200656, Control_c, 0, 64, 0
1, 200796, Control_c, 0, 64, 127
1, 201000, Note_on_c, 0, 67, 0
1, 201000, Note_on_c, 0, 69, 37
1, 201000, Note_on_c, 0, 66, 29
1, 201120, Note_on_c, 0, 66, 0
1, 201120, Note_on_c, 0, 69, 0
1, 201120, Note_on_c, 0, 62, 0
1, 201120, Note_on_c, 0, 67, 36
1, 201120, Note_on_c, 0, 71, 45
1, 201120, Note_on_c, 0, 61, 30
1, 201132, Control_c, 0, 64, 0
1, 201283, Control_c, 0, 64, 127
1, 201480, Note_on_c, 0, 71, 0
1, 201480, Note_on_c, 0, 76, 37
1, 201600, Note_on_c, 0, 76, 0
1, 201600, Note_on_c, 0, 61, 0
1, 201600, Note_on_c, 0, 67, 0
1, 201600, Note_on_c, 0, 64, 0
1, 201600, Note_on_c, 0, 72, 36
1, 201600, Note_on_c, 0, 79, 45
1, 201600, Note_on_c, 0, 60, 22
1, 201600, Note_on_c, 0, 64, 26
1, 201618, Control_c, 0, 64, 0
1, 201713, Control_c, 0, 64, 127
1, 201960, Note_on_c, 0, 79, 0
1, 201960, Note_on_c, 0, 78, 37
1, 202080, Note_on_c, 0, 78, 0
1, 202080, Note_on_c, 0, 64, 0
1, 202080, Note_on_c, 0, 60, 0
1, 202080, Note_on_c, 0, 72, 0
1, 202080, Note_on_c, 0, 66, 40
1, 202080, Note_on_c, 0, 74, 50
1, 202080, Note_on_c, 0, 59, 25
1, 202080, Note_on_c, 0, 62, 30
1, 202091, Control_c, 0, 64, 0
1, 202172, Control_c, 0, 64, 127
1, 202440, Note_on_c, 0, 74, 0
1, 202440, Note_on_c, 0, 72, 43
1, 202560, Note_on_c, 0, 72, 0
1, 202560, Note_on_c, 0, 62, 0
1, 202560, Note_on_c, 0, 59, 0
1, 202560, Note_on_c, 0, 66, 0
1, 202560, Note_on_c, 0, 76, 54
1, 202560, Note_on_c, 0, 69, 43
1, 202560, Note_on_c, 0, 57, 27
1, 202560, Note_on_c, 0, 60, 32
1, 202571, Control_c, 0, 64, 0
1, 202694, Control_c, 0, 64, 127
1, 202920, Tempo, 1100917
1, 202920, Note_on_c, 0, 76, 0
1, 202920, Note_on_c, 0, 74, 46
1, 203040, Tempo, 1061947
1, 203040, Note_on_c, 0, 74, 0
1, 203040, Note_on_c, 0, 60, 0
1, 203040, Note_on_c, 0, 57, 0
1, 203040, Note_on_c, 0, 69, 0
1, 203040, Note_on_c, 0, 71, 40
1, 203040, Note_on_c, 0, 63, 32
1, 203040, Note_on_c, 0, 55, 25
1, 203040, Note_on_c, 0, 59, 30
1, 203053, Control_c, 0, 64, 0
1, 203139, Control_c, 0, 64, 127
1, 203520, Tempo, 1008403
1, 203520, Note_on_c, 0, 59, 0
1, 203520, Note_on_c, 0, 55, 0
1, 203520, Note_on_c, 0, 54, 22
1, 203520, Note_on_c, 0, 57, 26
1, 203532, Control_c, 0, 64, 0
1, 203760, Note_on_c, 0, 71, 0
1, 203760, Note_on_c, 0, 72, 36
1, 204000, Tempo, 975610
1, 204000, Note_on_c, 0, 72, 0
1, 204000, Note_on_c, 0, 57, 0
1, 204000, Note_on_c, 0, 54, 0
1, 204000, Note_on_c, 0, 63, 0
1, 204000, Note_on_c, 0, 69, 43
1, 204000, Note_on_c, 0, 65, 34
1, 204000, Note_on_c, 0, 53, 25
1, 204000, Note_on_c, 0, 60, 30
1, 204057, Control_c, 0, 64, 127
1, 204360, Note_on_c, 0, 69, 0
1, 204360, Note_on_c, 0, 71, 36
1, 204480, Note_on_c, 0, 71, 0
1, 204480, Note_on_c, 0, 60, 0
1, 204480, Note_on_c, 0, 53, 0
1, 204480, Note_on_c, 0, 65, 0
1, 204480, Note_on_c, 0, 64, 36
1, 204480, Note_on_c, 0, 67, 45
1, 204480, Note_on_c, 0, 59, 26
1, 204480, Note_on_c, 0, 48, 22
1, 204495, Control_c, 0, 64, 0
1, 204664, Control_c, 0, 64, 127
1, 204840, Note_on_c, 0, 67, 0
1, 204840, Note_on_c, 0, 69, 39
1, 204960, Tempo, 1034483
1, 204960, Note_on_c, 0, 69, 0
1, 204960, Note_on_c, 0, 48, 0
1, 204960, Note_on_c, 0, 59, 0
1, 204960, Note_on_c, 0, 64, 0
1, 204960, Note_on_c, 0, 62, 36
1, 204960, Note_on_c, 0, 66, 45
1, 204960, Note_on_c, 0, 50, 25
1, 204960, Note_on_c, 0, 57, 30
1, 204976, Control_c, 0, 64, 0
1, 205052, Control_c, 0, 64, 127
1, 205320, Note_on_c, 0, 66, 0
1, 205320, Note_on_c, 0, 67, 36
1, 205440, Note_on_c, 0, 67, 0
1, 205440, Note_on_c, 0, 57, 0
1, 205440, Note_on_c, 0, 50, 0
1, 205440, Note_on_c, 0, 62, 0
1, 205440, Note_on_c, 0, 64, 43
1, 205440, Note_on_c, 0, 60, 34
1, 205440, Note_on_c, 0, 55, 26
1, 205440, Note_on_c, 0, 45, 22
1, 205452, Control_c, 0, 64, 0
1, 205546, Control_c, 0, 64, 127
1, 205800, Tempo, 1142857
1, 205800, Note_on_c, 0, 64, 0
1, 205800, Note_on_c, 0, 66, 35
1, 205920, Tempo, 1034483
1, 205920, Note_on_c, 0, 66, 0
1, 205920, Note_on_c, 0, 45, 0
1, 205920, Note_on_c, 0, 55, 0
1, 205920, Note_on_c, 0, 60, 0
1, 205920, Note_on_c, 0, 63, 41
1, 205920, Note_on_c, 0, 59, 32
1, 205920, Note_on_c, 0, 54, 27
1, 205920, Note_on_c, 0, 47, 22
1, 205929, Control_c, 0, 64, 0
1, 205987, Control_c, 0, 64, 127
1, 206400, Note_on_c, 0, 47, 0
1, 206400, Note_on_c, 0, 63, 0
1, 206400, Note_on_c, 0, 59, 0
1, 206400, Note_on_c, 0, 54, 0
1, 206400, Note_on_c, 0, 64, 36
1, 206400, Note_on_c, 0, 59, 28
1, 206400, Note_on_c, 0, 55, 28
1, 206400, Note_on_c, 0, 40, 25
1, 206417, Control_c, 0, 64, 0
1, 206548, Control_c, 0, 64, 127
1, 206880, Tempo, 967742
1, 206880, Note_on_c, 0, 40, 0
1, 206880, Note_on_c, 0, 52, 46
1, 207120, Note_on_c, 0, 64, 0
1, 207120, Note_on_c, 0, 55, 0
1, 207120, Note_on_c, 0, 59, 0
1, 207360, Note_on_c, 0, 63, 31
1, 207360, Note_on_c, 0, 71, 39
1, 207360, Note_on_c, 0, 54, 25
1, 207371, Control_c, 0, 64, 0
1, 207810, Note_on_c, 0, 60, 38
1, 207840, Tempo, 952381
1, 207840, Note_on_c, 0, 54, 0
1, 207840, Note_on_c, 0, 71, 0
1, 207840, Note_on_c, 0, 63, 0
1, 207840, Note_on_c, 0, 64, 42
1, 207840, Note_on_c, 0, 59, 35
1, 207883, Control_c, 0, 64, 127
1, 208080, Note_on_c, 0, 59, 0
1, 208080, Note_on_c, 0, 57, 30
1, 208200, Note_on_c, 0, 64, 0
1, 208200, Note_on_c, 0, 66, 36
1, 208320, Note_on_c, 0, 66, 0
1, 208320, Note_on_c, 0, 57, 0
1, 208320, Note_on_c, 0, 60, 0
1, 208320, Note_on_c, 0, 64, 36
1, 208320, Note_on_c, 0, 67, 43
1, 208320, Note_on_c, 0, 62, 30
1, 208330, Control_c, 0, 64, 0
1, 208440, Control_c, 0, 64, 127
1, 208560, Note_on_c, 0, 62, 0
1, 208560, Note_on_c, 0, 60, 24
1, 208680, Note_on_c, 0, 67, 0
1, 208680, Note_on_c, 0, 64, 0
1, 208680, Note_on_c, 0, 69, 37
1, 208680, Note_on_c, 0, 66, 29
1, 208800, Note_on_c, 0, 66, 0
1, 208800, Note_on_c, 0, 69, 0
1, 208800, Note_on_c, 0, 60, 0
1, 208800, Note_on_c, 0, 67, 36
1, 208800, Note_on_c, 0, 71, 45
1, 208800, Note_on_c, 0, 59, 30
1, 208811, Control_c, 0, 64, 0
1, 208920, Control_c, 0, 64, 127
1, 209160, Note_on_c, 0, 71, 0
1, 209160, Note_on_c, 0, 76, 37
1, 209280, Note_on_c, 0, 76, 0
1, 209280, Note_on_c, 0, 59, 0
1, 209280, Note_on_c, 0, 67, 0
1, 209280, Note_on_c, 0, 52, 0
1, 209280, Note_on_c, 0, 69, 36
1, 209280, Note_on_c, 0, 79, 45
1, 209280, Note_on_c, 0, 54, 22
1, 209280, Note_on_c, 0, 64, 26
1, 209293, Control_c, 0, 64, 0
1, 209414, Control_c, 0, 64, 127
1, 209640, Note_on_c, 0, 79, 0
1, 209640, Note_on_c, 0, 78, 37
1, 209760, Note_on_c, 0, 78, 0
1, 209760, Note_on_c, 0, 64, 0
1, 209760, Note_on_c, 0, 54, 0
1, 209760, Note_on_c, 0, 69, 0
1, 209760, Note_on_c, 0, 66, 40
1, 209760, Note_on_c, 0, 74, 50
1, 209760, Note_on_c, 0, 55, 25
1, 209760, Note_on_c, 0, 59, 30
1, 209773, Control_c, 0, 64, 0
1, 209859, Control_c, 0, 64, 127
1, 210120, Note_on_c, 0, 74, 0
1, 210120, Note_on_c, 0, 72, 43
1, 210240, Note_on_c, 0, 72, 0
1, 210240, Note_on_c, 0, 59, 0
1, 210240, Note_on_c, 0, 55, 0
1, 210240, Note_on_c, 0, 66, 0
1, 210240, Note_on_c, 0, 76, 54
1, 210240, Note_on_c, 0, 67, 43
1, 210240, Note_on_c, 0, 57, 27
1, 210240, Note_on_c, 0, 60, 32
1, 210252, Control_c, 0, 64, 0
1, 210339, Control_c, 0, 64, 127
1, 210600, Tempo, 1071429
1, 210600, Note_on_c, 0, 76, 0
1, 210600, Note_on_c, 0, 74, 46
1, 210720, Tempo, 1025641
1, 210720, Note_on_c, 0, 74, 0
1, 210720, Note_on_c, 0, 60, 0
1, 210720, Note_on_c, 0, 57, 0
1, 210720, Note_on_c, 0, 67, 0
1, 210720, Note_on_c, 0, 71, 40
1, 210720, Note_on_c, 0, 66, 32
1, 210720, Note_on_c, 0, 59, 25
1, 210720, Note_on_c, 0, 62, 30
1, 210735, Control_c, 0, 64, 0
1, 210847, Control_c, 0, 64, 127
1, 210960, Tempo, 1100917
1, 211200, Tempo, 1071429
1, 211200, Note_on_c, 0, 59, 0
1, 211200, Note_on_c, 0, 66, 0
1, 211200, Note_on_c, 0, 65, 32
1, 211200, Note_on_c, 0, 55, 26
1, 211214, Control_c, 0, 64, 0
1, 211299, Control_c, 0, 64, 127
1, 211440, Note_on_c, 0, 71, 0
1, 211440, Note_on_c, 0, 72, 27
1, 211680, Tempo, 944882
1, 211680, Note_on_c, 0, 72, 0
1, 211680, Note_on_c, 0, 55, 0
1, 211680, Note_on_c, 0, 65, 0
1, 211680, Note_on_c, 0, 62, 0
1, 211680, Note_on_c, 0, 69, 32
1, 211680, Note_on_c, 0, 60, 25
1, 211680, Note_on_c, 0, 53, 18
1, 211680, Note_on_c, 0, 57, 22
1, 211680, Control_c, 0, 64, 0
1, 211920, Tempo, 1008403
1, 211920, Note_on_c, 0, 57, 0
1, 211920, Note_on_c, 0, 60, 0
1, 211920, Note_on_c, 0, 62, 18
1, 211920, Note_on_c, 0, 59, 16
1, 212040, Note_on_c, 0, 69, 0
1, 212040, Note_on_c, 0, 71, 27
1, 212160, Tempo, 975610
1, 212160, Note_on_c, 0, 71, 0
1, 212160, Note_on_c, 0, 59, 0
1, 212160, Note_on_c, 0, 62, 0
1, 212160, Note_on_c, 0, 53, 0
1, 212160, Note_on_c, 0, 64, 27
1, 212160, Note_on_c, 0, 67, 33
1, 212160, Note_on_c, 0, 60, 19
1, 212160, Note_on_c, 0, 48, 16
1, 212224, Control_c, 0, 64, 127
1, 212400, Tempo, 1043478
1, 212520, Note_on_c, 0, 67, 0
1, 212520, Note_on_c, 0, 69, 29
1, 212640, Tempo, 975610
1, 212640, Note_on_c, 0, 69, 0
1, 212640, Note_on_c, 0, 48, 0
1, 212640, Note_on_c, 0, 60, 0
1, 212640, Note_on_c, 0, 64, 0
1, 212640, Note_on_c, 0, 57, 27
1, 212640, Note_on_c, 0, 66, 33
1, 212640, Note_on_c, 0, 50, 18
1, 212640, Note_on_c, 0, 54, 22
1, 212652, Control_c, 0, 64, 0
1, 212880, Tempo, 1052632
1, 212880, Note_on_c, 0, 54, 0
1, 212880, Note_on_c, 0, 57, 0
1, 212880, Note_on_c, 0, 59, 20
1, 212880, Note_on_c, 0, 55, 16
1, 213000, Note_on_c, 0, 66, 0
1, 213000, Note_on_c, 0, 67, 27
1, 213120, Tempo, 1008403
1, 213120, Note_on_c, 0, 67, 0
1, 213120, Note_on_c, 0, 55, 0
1, 213120, Note_on_c, 0, 59, 0
1, 213120, Note_on_c, 0, 50, 0
1, 213120, Note_on_c, 0, 64, 32
1, 213120, Note_on_c, 0, 60, 25
1, 213120, Note_on_c, 0, 57, 19
1, 213120, Note_on_c, 0, 45, 16
1, 213191, Control_c, 0, 64, 127
1, 213480, Tempo, 1188119
1, 213480, Note_on_c, 0, 64, 0
1, 213480, Note_on_c, 0, 66, 26
1, 213600, Note_on_c, 0, 66, 0
1, 213600, Note_on_c, 0, 45, 0
1, 213600, Note_on_c, 0, 57, 0
1, 213600, Note_on_c, 0, 60, 0
1, 213600, Note_on_c, 0, 63, 30
1, 213600, Note_on_c, 0, 59, 24
1, 213600, Note_on_c, 0, 54, 20
1, 213600, Note_on_c, 0, 47, 16
1, 213608, Control_c, 0, 64, 0
1, 213920, Control_c, 0, 64, 127
1, 214080, Note_on_c, 0, 47, 0
1, 214080, Note_on_c, 0, 63, 0
1, 214080, Note_on_c, 0, 59, 0
1, 214080, Note_on_c, 0, 54, 0
1, 214080, Note_on_c, 0, 64, 27
1, 214080, Note_on_c, 0, 59, 21
1, 214080, Note_on_c, 0, 55, 21
1, 214080, Note_on_c, 0, 40, 18
1, 214097, Control_c, 0, 64, 0
1, 214400, Control_c, 0, 64, 127
1, 215040, Tempo, 937500
1, 215040, Note_on_c, 0, 40, 0
1, 215040, Note_on_c, 0, 64, 0
1, 215040, Note_on_c, 0, 59, 0
1, 215040, Note_on_c, 0, 55, 0
1, 215040, Note_on_c, 0, 62, 58
1, 215040, Note_on_c, 0, 66, 58
1, 215040, Note_on_c, 0, 50, 48
1, 215040, Note_on_c, 0, 57, 55
1, 215040, Control_c, 0, 64, 0
1, 215520, Tempo, 888889
1, 215520, Note_on_c, 0, 57, 0
1, 215520, Note_on_c, 0, 62, 0
1, 215520, Note_on_c, 0, 66, 0
1, 215520, Note_on_c, 0, 50, 0
1, 215520, Note_on_c, 0, 62, 43
1, 215520, Note_on_c, 0, 67, 63
1, 215520, Note_on_c, 0, 55, 55
1, 215520, Note_on_c, 0, 59, 55
1, 215647, Control_c, 0, 64, 127
1, 215880, Note_on_c, 0, 67, 0
1, 215880, Note_on_c, 0, 69, 54
1, 216000, Note_on_c, 0, 69, 0
1, 216000, Note_on_c, 0, 59, 0
1, 216000, Note_on_c, 0, 62, 0
1, 216000, Note_on_c, 0, 64, 43
1, 216000, Note_on_c, 0, 71, 64
1, 216000, Note_on_c, 0, 61, 49
1, 216016, Control_c, 0, 64, 0
1, 216156, Control_c, 0, 64, 127
1, 216240, Note_on_c, 0, 71, 0
1, 216240, Note_on_c, 0, 67, 55
1, 216450, Note_on_c, 0, 66, 54
1, 216480, Tempo, 851064
1, 216480, Note_on_c, 0, 67, 0
1, 216480, Note_on_c, 0, 55, 0
1, 216480, Note_on_c, 0, 61, 0
1, 216480, Note_on_c, 0, 64, 0
1, 216480, Note_on_c, 0, 71, 67
1, 216480, Note_on_c, 0, 62, 53
1, 216480, Note_on_c, 0, 50, 53
1, 216492, Control_c, 0, 64, 0
1, 216643, Control_c, 0, 64, 127
1, 216720, Tempo, 888889
1, 216720, Note_on_c, 0, 62, 0
1, 216720, Note_on_c, 0, 66, 0
1, 216720, Note_on_c, 0, 71, 0
1, 216720, Note_on_c, 0, 64, 55
1, 216720, Note_on_c, 0, 69, 55
1, 216720, Note_on_c, 0, 57, 45
1, 216960, Note_on_c, 0, 57, 0
1, 216960, Note_on_c, 0, 69, 0
1, 216960, Note_on_c, 0, 64, 0
1, 216960, Note_on_c, 0, 62, 54
1, 216960, Note_on_c, 0, 69, 67
1, 216960, Note_on_c, 0, 54, 39
1, 216978, Control_c, 0, 64, 0
1, 217073, Control_c, 0, 64, 127
1, 217190, Note_on_c, 0, 62, 0
1, 217200, Note_on_c, 0, 69, 0
1, 217200, Note_on_c, 0, 62, 55
1, 217440, Tempo, 888889
1, 217440, Note_on_c, 0, 62, 0
1, 217440, Note_on_c, 0, 50, 0
1, 217440, Note_on_c, 0, 54, 0
1, 217440, Note_on_c, 0, 64, 43
1, 217440, Note_on_c, 0, 72, 63
1, 217440, Note_on_c, 0, 48, 55
1, 217440, Note_on_c, 0, 55, 55
1, 217457, Control_c, 0, 64, 0
1, 217567, Control_c, 0, 64, 127
1, 217800, Note_on_c, 0, 72, 0
1, 217800, Note_on_c, 0, 74, 56
1, 217920, Note_on_c, 0, 74, 0
1, 217920, Note_on_c, 0, 55, 0
1, 217920, Note_on_c, 0, 64, 0
1, 217920, Note_on_c, 0, 66, 46
1, 217920, Note_on_c, 0, 76, 68
1, 217920, Note_on_c, 0, 57, 52
1, 217936, Control_c, 0, 64, 0
1, 218076, Control_c, 0, 64, 127
1, 218160, Note_on_c, 0, 76, 0
1, 218160, Note_on_c, 0, 72, 61
1, 218370, Note_on_c, 0, 67, 61
1, 218400, Tempo, 952381
1, 218400, Note_on_c, 0, 72, 0
1, 218400, Note_on_c, 0, 48, 0
1, 218400, Note_on_c, 0, 57, 0
1, 218400, Note_on_c, 0, 66, 0
1, 218400, Note_on_c, 0, 74, 77
1, 218400, Note_on_c, 0, 59, 60
1, 218400, Note_on_c, 0, 43, 60
1, 218412, Control_c, 0, 64, 0
1, 218563, Control_c, 0, 64, 127
1, 218880, Note_on_c, 0, 59, 0
1, 218880, Note_on_c, 0, 67, 0
1, 218880, Note_on_c, 0, 69, 62
1, 218880, Note_on_c, 0, 62, 44
1, 218898, Control_c, 0, 64, 0
1, 218993, Control_c, 0, 64, 127
1, 219120, Note_on_c, 0, 74, 0
1, 219120, Note_on_c, 0, 74, 77
1, 219240, Tempo, 1250000
1, 219360, Tempo, 888889
1, 219360, Note_on_c, 0, 74, 0
1, 219360, Note_on_c, 0, 62, 0
1, 219360, Note_on_c, 0, 69, 0
1, 219360, Note_on_c, 0, 43, 0
1, 219360, Note_on_c, 0, 71, 49
1, 219360, Note_on_c, 0, 76, 72
1, 219360, Note_on_c, 0, 55, 63
1, 219360, Note_on_c, 0, 67, 63
1, 219368, Control_c, 0, 64, 0
1, 219487, Control_c, 0, 64, 127
1, 219720, Note_on_c, 0, 76, 0
1, 219720, Note_on_c, 0, 78, 62
1, 219840, Note_on_c, 0, 78, 0
1, 219840, Note_on_c, 0, 67, 0
1, 219840, Note_on_c, 0, 71, 0
1, 219840, Note_on_c, 0, 69, 49
1, 219840, Note_on_c, 0, 74, 73
1, 219840, Note_on_c, 0, 66, 56
1, 219856, Control_c, 0, 64, 0
1, 219996, Control_c, 0, 64, 127
1, 220080, Note_on_c, 0, 74, 0
1, 220080, Note_on_c, 0, 71, 63
1, 220320, Note_on_c, 0, 71, 0
1, 220320, Note_on_c, 0, 66, 0
1, 220320, Note_on_c, 0, 69, 0
1, 220320, Note_on_c, 0, 72, 70
1, 220320, Note_on_c, 0, 67, 59
1, 220320, Note_on_c, 0, 64, 60
1, 220332, Control_c, 0, 64, 0
1, 220483, Control_c, 0, 64, 127
1, 220680, Note_on_c, 0, 72, 0
1, 220680, Note_on_c, 0, 74, 56
1, 220800, Note_on_c, 0, 74, 0
1, 220800, Note_on_c, 0, 64, 0
1, 220800, Note_on_c, 0, 67, 0
1, 220800, Note_on_c, 0, 71, 68
1, 220800, Note_on_c, 0, 66, 57
1, 220800, Note_on_c, 0, 62, 44
1, 220818, Control_c, 0, 64, 0
1, 220913, Control_c, 0, 64, 127
1, 221040, Note_on_c, 0, 71, 0
1, 221040, Note_on_c, 0, 67, 57
1, 221280, Tempo, 944882
1, 221280, Note_on_c, 0, 67, 0
1, 221280, Note_on_c, 0, 62, 0
1, 221280, Note_on_c, 0, 66, 0
1, 221280, Note_on_c, 0, 64, 58
1, 221280, Note_on_c, 0, 69, 69
1, 221280, Note_on_c, 0, 60, 44
1, 221294, Control_c, 0, 64, 0
1, 221417, Control_c, 0, 64, 127
1, 221730, Note_on_c, 0, 63, 48
1, 221760, Tempo, 1016949
1, 221760, Note_on_c, 0, 60, 0
1, 221760, Note_on_c, 0, 69, 0
1, 221760, Note_on_c, 0, 64, 0
1, 221760, Note_on_c, 0, 71, 57
1, 221760, Note_on_c, 0, 59, 44
1, 221779, Control_c, 0, 64, 0
1, 221932, Control_c, 0, 64, 127
1, 222240, Tempo, 1100917
1, 222240, Note_on_c, 0, 59, 0
1, 222240, Note_on_c, 0, 55, 0
1, 222240, Note_on_c, 0, 58, 33
1, 222240, Note_on_c, 0, 54, 28
1, 222256, Control_c, 0, 64, 0
1, 222400, Control_c, 0, 64, 127
1, 222720, Tempo, 1176471
1, 222720, Note_on_c, 0, 54, 0
1, 222720, Note_on_c, 0, 63, 0
1, 222720, Note_on_c, 0, 71, 0
1, 222720, Note_on_c, 0, 58, 0
1, 222720, Note_on_c, 0, 71, 46
1, 222720, Note_on_c, 0, 63, 39
1, 222720, Note_on_c, 0, 53, 27
1, 222720, Note_on_c, 0, 57, 32
1, 222735, Control_c, 0, 64, 0
1, 222903, Control_c, 0, 64, 127
1, 222960, Tempo, 1463415
1, 222960, Note_on_c, 0, 57, 0
1, 222960, Note_on_c, 0, 56, 29
1, 223200, Tempo, 1025641
1, 223200, Note_on_c, 0, 56, 0
1, 223200, Note_on_c, 0, 53, 0
1, 223200, Note_on_c, 0, 63, 0
1, 223200, Note_on_c, 0, 71, 0
1, 223200, Note_on_c, 0, 59, 36
1, 223200, Note_on_c, 0, 64, 42
1, 223200, Note_on_c, 0, 52, 25
1, 223200, Note_on_c, 0, 55, 30
1, 223200, Control_c, 0, 64, 0
1, 223327, Control_c, 0, 64, 127
1, 223560, Note_on_c, 0, 64, 0
1, 223560, Note_on_c, 0, 66, 36
1, 223680, Tempo, 952381
1, 223680, Note_on_c, 0, 66, 0
1, 223680, Note_on_c, 0, 55, 0
1, 223680, Note_on_c, 0, 52, 0
1, 223680, Note_on_c, 0, 59, 0
1, 223680, Note_on_c, 0, 59, 29
1, 223680, Note_on_c, 0, 64, 29
1, 223680, Note_on_c, 0, 67, 43
1, 223680, Note_on_c, 0, 62, 30
1, 223680, Note_on_c, 0, 50, 25
1, 223696, Control_c, 0, 64, 0
1, 223836, Control_c, 0, 64, 127
1, 224040, Note_on_c, 0, 67, 0
1, 224040, Note_on_c, 0, 69, 37
1, 224160, Note_on_c, 0, 69, 0
1, 224160, Note_on_c, 0, 50, 0
1, 224160, Note_on_c, 0, 59, 0
1, 224160, Note_on_c, 0, 64, 0
1, 224160, Note_on_c, 0, 62, 0
1, 224160, Note_on_c, 0, 64, 36
1, 224160, Note_on_c, 0, 67, 36
1, 224160, Note_on_c, 0, 71, 45
1, 224160, Note_on_c, 0, 49, 25
1, 224160, Note_on_c, 0, 61, 30
1, 224172, Control_c, 0, 64, 0
1, 224323, Control_c, 0, 64, 127
1, 224520, Note_on_c, 0, 71, 0
1, 224520, Note_on_c, 0, 76, 37
1, 224640, Note_on_c, 0, 76, 0
1, 224640, Note_on_c, 0, 61, 0
1, 224640, Note_on_c, 0, 64, 0
1, 224640, Note_on_c, 0, 67, 0
1, 224640, Note_on_c, 0, 49, 0
1, 224640, Note_on_c, 0, 64, 36
1, 224640, Note_on_c, 0, 72, 36
1, 224640, Note_on_c, 0, 79, 45
1, 224640, Note_on_c, 0, 48, 22
1, 224640, Note_on_c, 0, 60, 26
1, 224658, Control_c, 0, 64, 0
1, 224753, Control_c, 0, 64, 127
1, 225000, Note_on_c, 0, 79, 0
1, 225000, Note_on_c, 0, 78, 37
1, 225120, Tempo, 937500
1, 225120, Note_on_c, 0, 78, 0
1, 225120, Note_on_c, 0, 60, 0
1, 225120, Note_on_c, 0, 64, 0
1, 225120, Note_on_c, 0, 72, 0
1, 225120, Note_on_c, 0, 48, 0
1, 225120, Note_on_c, 0, 71, 40
1, 225120, Note_on_c, 0, 66, 40
1, 225120, Note_on_c, 0, 74, 50
1, 225120, Note_on_c, 0, 47, 25
1, 225120, Note_on_c, 0, 59, 30
1, 225131, Control_c, 0, 64, 0
1, 225212, Control_c, 0, 64, 127
1, 225480, Note_on_c, 0, 74, 0
1, 225480, Note_on_c, 0, 72, 43
1, 225600, Note_on_c, 0, 72, 0
1, 225600, Note_on_c, 0, 59, 0
1, 225600, Note_on_c, 0, 71, 0
1, 225600, Note_on_c, 0, 66, 0
1, 225600, Note_on_c, 0, 47, 0
1, 225600, Note_on_c, 0, 60, 43
1, 225600, Note_on_c, 0, 76, 54
1, 225600, Note_on_c, 0, 69, 43
1, 225600, Note_on_c, 0, 45, 27
1, 225600, Note_on_c, 0, 57, 32
1, 225611, Control_c, 0, 64, 0
1, 225734, Control_c, 0, 64, 127
1, 225960, Tempo, 1100917
1, 225960, Note_on_c, 0, 76, 0
1, 225960, Note_on_c, 0, 74, 46
1, 226080, Tempo, 1071429
1, 226080, Note_on_c, 0, 74, 0
1, 226080, Note_on_c, 0, 57, 0
1, 226080, Note_on_c, 0, 60, 0
1, 226080, Note_on_c, 0, 69, 0
1, 226080, Note_on_c, 0, 45, 0
1, 226080, Note_on_c, 0, 59, 43
1, 226080, Note_on_c, 0, 71, 40
1, 226080, Note_on_c, 0, 63, 32
1, 226080, Note_on_c, 0, 43, 25
1, 226080, Note_on_c, 0, 55, 30
1, 226093, Control_c, 0, 64, 0
1, 226179, Control_c, 0, 64, 127
1, 226560, Tempo, 1008403
1, 226560, Note_on_c, 0, 55, 0
1, 226560, Note_on_c, 0, 59, 0
1, 226560, Note_on_c, 0, 43, 0
1, 226560, Note_on_c, 0, 57, 43
1, 226560, Note_on_c, 0, 42, 22
1, 226560, Note_on_c, 0, 54, 26
1, 226572, Control_c, 0, 64, 0
1, 226800, Tempo, 1249740
1, 226800, Note_on_c, 0, 71, 0
1, 226800, Note_on_c, 0, 72, 36
1, 227040, Tempo, 1131862
1, 227040, Note_on_c, 0, 72, 0
1, 227040, Note_on_c, 0, 54, 0
1, 227040, Note_on_c, 0, 63, 0
1, 227040, Note_on_c, 0, 57, 0
1, 227040, Note_on_c, 0, 42, 0
1, 227040, Note_on_c, 0, 60, 25
1, 227040, Note_on_c, 0, 69, 32
1, 227040, Note_on_c, 0, 65, 25
1, 227040, Note_on_c, 0, 41, 18
1, 227040, Note_on_c, 0, 53, 22
1, 227097, Control_c, 0, 64, 127
1, 227400, Note_on_c, 0, 69, 0
1, 227400, Note_on_c, 0, 71, 27
1, 227520, Note_on_c, 0, 71, 0
1, 227520, Note_on_c, 0, 53, 0
1, 227520, Note_on_c, 0, 60, 0
1, 227520, Note_on_c, 0, 65, 0
1, 227520, Note_on_c, 0, 41, 0
1, 227520, Note_on_c, 0, 59, 27
1, 227520, Note_on_c, 0, 64, 27
1, 227520, Note_on_c, 0, 67, 33
1, 227520, Note_on_c, 0, 48, 19
1, 227520, Note_on_c, 0, 36, 16
1, 227535, Control_c, 0, 64, 0
1, 227704, Control_c, 0, 64, 127
1, 227880, Note_on_c, 0, 67, 0
1, 227880, Note_on_c, 0, 69, 29
1, 228000, Tempo, 1262892
1, 228000, Note_on_c, 0, 69, 0
1, 228000, Note_on_c, 0, 36, 0
1, 228000, Note_on_c, 0, 59, 0
1, 228000, Note_on_c, 0, 64, 0
1, 228000, Note_on_c, 0, 48, 0
1, 228000, Note_on_c, 0, 57, 27
1, 228000, Note_on_c, 0, 62, 27
1, 228000, Note_on_c, 0, 66, 33
1, 228000, Note_on_c, 0, 38, 18
1, 228000, Note_on_c, 0, 50, 22
1, 228016, Control_c, 0, 64, 0
1, 228092, Control_c, 0, 64, 127
1, 228360, Note_on_c, 0, 66, 0
1, 228360, Note_on_c, 0, 67, 27
1, 228480, Note_on_c, 0, 67, 0
1, 228480, Note_on_c, 0, 50, 0
1, 228480, Note_on_c, 0, 57, 0
1, 228480, Note_on_c, 0, 62, 0
1, 228480, Note_on_c, 0, 38, 0
1, 228480, Note_on_c, 0, 55, 25
1, 228480, Note_on_c, 0, 64, 32
1, 228480, Note_on_c, 0, 60, 25
1, 228480, Note_on_c, 0, 45, 19
1, 228480, Note_on_c, 0, 33, 16
1, 228492, Control_c, 0, 64, 0
1, 228586, Control_c, 0, 64, 127
1, 228840, Tempo, 1538067
1, 228840, Note_on_c, 0, 64, 0
1, 228840, Note_on_c, 0, 66, 26
1, 228960, Tempo, 1428231
1, 228960, Note_on_c, 0, 66, 0
1, 228960, Note_on_c, 0, 33, 0
1, 228960, Note_on_c, 0, 55, 0
1, 228960, Note_on_c, 0, 60, 0
1, 228960, Note_on_c, 0, 45, 0
1, 228960, Control_c, 0, 64, 0
1, 229440, Note_on_c, 0, 54, 20
1, 229440, Note_on_c, 0, 63, 25
1, 229440, Note_on_c, 0, 59, 20
1, 229440, Note_on_c, 0, 47, 17
1, 229440, Note_on_c, 0, 35, 13
1, 229507, Control_c, 0, 64, 127
1, 229920, Note_on_c, 0, 35, 0
1, 229920, Note_on_c, 0, 59, 0
1, 229920, Note_on_c, 0, 54, 0
1, 229920, Note_on_c, 0, 63, 0
1, 229920, Note_on_c, 0, 47, 0
1, 230035, Control_c, 0, 64, 0
1, 230400, Note_on_c, 0, 64, 22
1, 230400, Note_on_c, 0, 59, 17
1, 230400, Note_on_c, 0, 55, 17
1, 230400, Note_on_c, 0, 28, 11
1, 230400, Note_on_c, 0, 40, 15
1, 230640, Control_c, 0, 64, 127
1, 231840, Note_on_c, 0, 40, 0
1, 231840, Note_on_c, 0, 55, 0
1, 231840, Note_on_c, 0, 64, 0
1, 231840, Note_on_c, 0, 59, 0
1, 231840, Note_on_c, 0, 28, 0
1, 232480, Control_c, 0, 64, 0
1, 232480, End_track
0, 0, End_of_file
