0, 0, Header, 0, 1, 480
1, 0, Start_track
1, 0, Title_t, "Grieg: Lyrische Stücke, Norwegischer Bauernmarsch, Opus 54 Nr. 2"
1, 0, Copyright_t, "Copyright © 2012 by Bernd Krueger"
1, 0, Text_t, "Bernd Krueger"
1, 0, Text_t, "Allegretto marcato"
1, 0, Text_t, "Erstellt:  4.10.2012\012"
1, 0, Text_t, "Dauer: 3:01 Minuten\012"
1, 0, Time_signature, 6, 3, 12, 8
1, 0, Key_signature, 0, "major"
1, 0, Tempo, 383142
1, 0, Program_c, 0, 0
1, 0, Program_c, 0, 0
1, 0, Note_on_c, 0, 48, 40
1, 0, Note_on_c, 0, 60, 96
1, 0, Program_c, 0, 0
1, 720, Tempo, 374766
1, 720, Note_on_c, 0, 60, 0
1, 720, Note_on_c, 0, 59, 32
1, 960, Note_on_c, 0, 72, 40
1, 1200, Note_on_c, 0, 72, 0
1, 1200, Note_on_c, 0, 74, 37
1, 1440, Note_on_c, 0, 74, 0
1, 1440, Note_on_c, 0, 59, 0
1, 1440, Note_on_c, 0, 65, 34
1, 1440, Note_on_c, 0, 76, 45
1, 1440, Note_on_c, 0, 57, 33
1, 1680, Note_on_c, 0, 76, 0
1, 1680, Note_on_c, 0, 72, 38
1, 1920, Note_on_c, 0, 72, 0
1, 1920, Note_on_c, 0, 76, 38
1, 2160, Tempo, 370142
1, 2160, Note_on_c, 0, 57, 0
1, 2160, Note_on_c, 0, 65, 0
1, 2160, Note_on_c, 0, 67, 34
1, 2160, Note_on_c, 0, 59, 27
1, 2280, Note_on_c, 0, 76, 0
1, 2280, Note_on_c, 0, 74, 34
1, 2340, Note_on_c, 0, 74, 0
1, 2340, Note_on_c, 0, 76, 34
1, 2400, Note_on_c, 0, 76, 0
1, 2400, Note_on_c, 0, 74, 43
1, 2640, Tempo, 380711
1, 2640, Note_on_c, 0, 74, 0
1, 2640, Note_on_c, 0, 71, 38
1, 2880, Tempo, 391901
1, 2880, Note_on_c, 0, 71, 0
1, 2880, Note_on_c, 0, 59, 0
1, 2880, Note_on_c, 0, 67, 0
1, 2880, Note_on_c, 0, 64, 34
1, 2880, Note_on_c, 0, 74, 40
1, 2880, Note_on_c, 0, 55, 31
1, 3000, Note_on_c, 0, 74, 0
1, 3120, Tempo, 374766
1, 3360, Note_on_c, 0, 74, 49
1, 3600, Note_on_c, 0, 55, 0
1, 3600, Note_on_c, 0, 64, 0
1, 3600, Note_on_c, 0, 65, 34
1, 3600, Note_on_c, 0, 57, 29
1, 3840, Tempo, 369004
1, 3840, Note_on_c, 0, 74, 0
1, 3840, Note_on_c, 0, 72, 40
1, 4080, Note_on_c, 0, 72, 0
1, 4080, Note_on_c, 0, 69, 37
1, 4320, Tempo, 369004
1, 4320, Note_on_c, 0, 69, 0
1, 4320, Note_on_c, 0, 57, 0
1, 4320, Note_on_c, 0, 65, 0
1, 4320, Note_on_c, 0, 62, 34
1, 4320, Note_on_c, 0, 72, 45
1, 4320, Note_on_c, 0, 53, 33
1, 4560, Note_on_c, 0, 72, 0
1, 4560, Note_on_c, 0, 69, 38
1, 4800, Tempo, 378310
1, 4800, Note_on_c, 0, 69, 0
1, 4800, Note_on_c, 0, 72, 38
1, 5040, Tempo, 370142
1, 5040, Note_on_c, 0, 72, 0
1, 5040, Note_on_c, 0, 53, 0
1, 5040, Note_on_c, 0, 62, 0
1, 5040, Note_on_c, 0, 71, 45
1, 5040, Note_on_c, 0, 60, 34
1, 5040, Note_on_c, 0, 52, 27
1, 5280, Note_on_c, 0, 71, 0
1, 5280, Note_on_c, 0, 67, 43
1, 5520, Tempo, 379507
1, 5520, Note_on_c, 0, 67, 0
1, 5520, Note_on_c, 0, 71, 38
1, 5760, Tempo, 391901
1, 5760, Note_on_c, 0, 71, 0
1, 5760, Note_on_c, 0, 52, 0
1, 5760, Note_on_c, 0, 60, 0
1, 5760, Note_on_c, 0, 59, 34
1, 5760, Note_on_c, 0, 69, 40
1, 5760, Note_on_c, 0, 50, 31
1, 5880, Note_on_c, 0, 69, 0
1, 6000, Tempo, 372439
1, 6240, Note_on_c, 0, 69, 46
1, 6480, Note_on_c, 0, 50, 0
1, 6480, Note_on_c, 0, 59, 0
1, 6480, Note_on_c, 0, 60, 34
1, 6480, Note_on_c, 0, 52, 27
1, 6720, Tempo, 365631
1, 6720, Note_on_c, 0, 69, 0
1, 6720, Note_on_c, 0, 67, 40
1, 6960, Tempo, 379507
1, 6960, Note_on_c, 0, 67, 0
1, 6960, Note_on_c, 0, 64, 37
1, 7200, Tempo, 369004
1, 7200, Note_on_c, 0, 64, 0
1, 7200, Note_on_c, 0, 48, 0
1, 7200, Note_on_c, 0, 60, 0
1, 7200, Note_on_c, 0, 52, 0
1, 7200, Note_on_c, 0, 59, 34
1, 7200, Note_on_c, 0, 67, 45
1, 7200, Note_on_c, 0, 43, 28
1, 7200, Note_on_c, 0, 50, 33
1, 7440, Note_on_c, 0, 67, 0
1, 7440, Note_on_c, 0, 62, 38
1, 7680, Tempo, 385604
1, 7680, Note_on_c, 0, 62, 0
1, 7680, Note_on_c, 0, 67, 38
1, 7920, Tempo, 374766
1, 7920, Note_on_c, 0, 50, 0
1, 7920, Note_on_c, 0, 59, 0
1, 7920, Note_on_c, 0, 57, 34
1, 7920, Note_on_c, 0, 48, 27
1, 8040, Note_on_c, 0, 67, 0
1, 8040, Note_on_c, 0, 64, 34
1, 8100, Note_on_c, 0, 64, 0
1, 8100, Note_on_c, 0, 66, 34
1, 8160, Note_on_c, 0, 66, 0
1, 8160, Note_on_c, 0, 64, 43
1, 8400, Tempo, 390625
1, 8400, Note_on_c, 0, 64, 0
1, 8400, Note_on_c, 0, 62, 38
1, 8640, Tempo, 372439
1, 8640, Note_on_c, 0, 62, 0
1, 8640, Note_on_c, 0, 48, 0
1, 8640, Note_on_c, 0, 57, 0
1, 8640, Note_on_c, 0, 59, 30
1, 8640, Note_on_c, 0, 67, 40
1, 8640, Note_on_c, 0, 50, 29
1, 8880, Note_on_c, 0, 67, 0
1, 8880, Note_on_c, 0, 62, 33
1, 9120, Tempo, 391901
1, 9120, Note_on_c, 0, 62, 0
1, 9120, Note_on_c, 0, 67, 32
1, 9360, Tempo, 378310
1, 9360, Note_on_c, 0, 50, 0
1, 9360, Note_on_c, 0, 59, 0
1, 9360, Note_on_c, 0, 57, 28
1, 9360, Note_on_c, 0, 48, 22
1, 9480, Note_on_c, 0, 67, 0
1, 9480, Note_on_c, 0, 64, 27
1, 9540, Note_on_c, 0, 64, 0
1, 9540, Note_on_c, 0, 66, 27
1, 9600, Tempo, 380711
1, 9600, Note_on_c, 0, 66, 0
1, 9600, Note_on_c, 0, 64, 34
1, 9840, Tempo, 390625
1, 9840, Note_on_c, 0, 64, 0
1, 9840, Note_on_c, 0, 62, 29
1, 10080, Tempo, 405132
1, 10080, Note_on_c, 0, 62, 0
1, 10080, Note_on_c, 0, 43, 0
1, 10080, Note_on_c, 0, 57, 0
1, 10080, Note_on_c, 0, 48, 0
1, 10080, Note_on_c, 0, 59, 25
1, 10080, Note_on_c, 0, 67, 30
1, 10080, Note_on_c, 0, 43, 19
1, 10080, Note_on_c, 0, 50, 23
1, 10200, Note_on_c, 0, 67, 0
1, 10200, Note_on_c, 0, 59, 0
1, 10497, Control_c, 0, 64, 127
1, 10560, Tempo, 431344
1, 10560, Note_on_c, 0, 59, 24
1, 10560, Note_on_c, 0, 67, 29
1, 10800, Tempo, 405132
1, 10800, Note_on_c, 0, 43, 0
1, 10800, Note_on_c, 0, 50, 0
1, 10800, Note_on_c, 0, 31, 19
1, 10800, Note_on_c, 0, 38, 23
1, 11520, Tempo, 383142
1, 11520, Note_on_c, 0, 38, 0
1, 11520, Note_on_c, 0, 67, 0
1, 11520, Note_on_c, 0, 59, 0
1, 11520, Note_on_c, 0, 31, 0
1, 11520, Note_on_c, 0, 48, 40
1, 11520, Note_on_c, 0, 60, 96
1, 11537, Control_c, 0, 64, 0
1, 12240, Tempo, 374766
1, 12240, Note_on_c, 0, 60, 0
1, 12240, Note_on_c, 0, 59, 32
1, 12480, Note_on_c, 0, 72, 40
1, 12720, Note_on_c, 0, 72, 0
1, 12720, Note_on_c, 0, 74, 37
1, 12960, Note_on_c, 0, 74, 0
1, 12960, Note_on_c, 0, 59, 0
1, 12960, Note_on_c, 0, 65, 34
1, 12960, Note_on_c, 0, 76, 45
1, 12960, Note_on_c, 0, 57, 33
1, 13200, Note_on_c, 0, 76, 0
1, 13200, Note_on_c, 0, 72, 38
1, 13440, Note_on_c, 0, 72, 0
1, 13440, Note_on_c, 0, 76, 38
1, 13680, Tempo, 370142
1, 13680, Note_on_c, 0, 57, 0
1, 13680, Note_on_c, 0, 65, 0
1, 13680, Note_on_c, 0, 67, 34
1, 13680, Note_on_c, 0, 59, 27
1, 13800, Note_on_c, 0, 76, 0
1, 13800, Note_on_c, 0, 74, 34
1, 13860, Note_on_c, 0, 74, 0
1, 13860, Note_on_c, 0, 76, 34
1, 13920, Note_on_c, 0, 76, 0
1, 13920, Note_on_c, 0, 74, 43
1, 14160, Tempo, 380711
1, 14160, Note_on_c, 0, 74, 0
1, 14160, Note_on_c, 0, 71, 38
1, 14400, Tempo, 391901
1, 14400, Note_on_c, 0, 71, 0
1, 14400, Note_on_c, 0, 59, 0
1, 14400, Note_on_c, 0, 67, 0
1, 14400, Note_on_c, 0, 64, 34
1, 14400, Note_on_c, 0, 74, 40
1, 14400, Note_on_c, 0, 55, 31
1, 14520, Note_on_c, 0, 74, 0
1, 14640, Tempo, 374766
1, 14880, Note_on_c, 0, 74, 49
1, 15120, Note_on_c, 0, 55, 0
1, 15120, Note_on_c, 0, 64, 0
1, 15120, Note_on_c, 0, 65, 34
1, 15120, Note_on_c, 0, 57, 29
1, 15360, Tempo, 369004
1, 15360, Note_on_c, 0, 74, 0
1, 15360, Note_on_c, 0, 72, 40
1, 15600, Note_on_c, 0, 72, 0
1, 15600, Note_on_c, 0, 69, 37
1, 15840, Tempo, 369004
1, 15840, Note_on_c, 0, 69, 0
1, 15840, Note_on_c, 0, 57, 0
1, 15840, Note_on_c, 0, 65, 0
1, 15840, Note_on_c, 0, 62, 34
1, 15840, Note_on_c, 0, 72, 45
1, 15840, Note_on_c, 0, 53, 33
1, 16080, Note_on_c, 0, 72, 0
1, 16080, Note_on_c, 0, 69, 38
1, 16320, Tempo, 378310
1, 16320, Note_on_c, 0, 69, 0
1, 16320, Note_on_c, 0, 72, 38
1, 16560, Tempo, 370142
1, 16560, Note_on_c, 0, 72, 0
1, 16560, Note_on_c, 0, 53, 0
1, 16560, Note_on_c, 0, 62, 0
1, 16560, Note_on_c, 0, 71, 45
1, 16560, Note_on_c, 0, 60, 34
1, 16560, Note_on_c, 0, 52, 27
1, 16800, Note_on_c, 0, 71, 0
1, 16800, Note_on_c, 0, 67, 43
1, 17040, Tempo, 379507
1, 17040, Note_on_c, 0, 67, 0
1, 17040, Note_on_c, 0, 71, 38
1, 17280, Tempo, 391901
1, 17280, Note_on_c, 0, 71, 0
1, 17280, Note_on_c, 0, 52, 0
1, 17280, Note_on_c, 0, 60, 0
1, 17280, Note_on_c, 0, 59, 34
1, 17280, Note_on_c, 0, 69, 40
1, 17280, Note_on_c, 0, 50, 31
1, 17400, Note_on_c, 0, 69, 0
1, 17520, Tempo, 372439
1, 17760, Note_on_c, 0, 69, 46
1, 18000, Note_on_c, 0, 50, 0
1, 18000, Note_on_c, 0, 59, 0
1, 18000, Note_on_c, 0, 60, 34
1, 18000, Note_on_c, 0, 52, 27
1, 18240, Tempo, 365631
1, 18240, Note_on_c, 0, 69, 0
1, 18240, Note_on_c, 0, 67, 40
1, 18480, Tempo, 379507
1, 18480, Note_on_c, 0, 67, 0
1, 18480, Note_on_c, 0, 64, 37
1, 18720, Tempo, 369004
1, 18720, Note_on_c, 0, 64, 0
1, 18720, Note_on_c, 0, 48, 0
1, 18720, Note_on_c, 0, 60, 0
1, 18720, Note_on_c, 0, 52, 0
1, 18720, Note_on_c, 0, 59, 34
1, 18720, Note_on_c, 0, 67, 45
1, 18720, Note_on_c, 0, 43, 28
1, 18720, Note_on_c, 0, 50, 33
1, 18960, Note_on_c, 0, 67, 0
1, 18960, Note_on_c, 0, 62, 38
1, 19200, Tempo, 385604
1, 19200, Note_on_c, 0, 62, 0
1, 19200, Note_on_c, 0, 67, 38
1, 19440, Tempo, 374766
1, 19440, Note_on_c, 0, 50, 0
1, 19440, Note_on_c, 0, 59, 0
1, 19440, Note_on_c, 0, 57, 34
1, 19440, Note_on_c, 0, 48, 27
1, 19560, Note_on_c, 0, 67, 0
1, 19560, Note_on_c, 0, 64, 34
1, 19620, Note_on_c, 0, 64, 0
1, 19620, Note_on_c, 0, 66, 34
1, 19680, Note_on_c, 0, 66, 0
1, 19680, Note_on_c, 0, 64, 43
1, 19920, Tempo, 390625
1, 19920, Note_on_c, 0, 64, 0
1, 19920, Note_on_c, 0, 62, 38
1, 20160, Tempo, 372439
1, 20160, Note_on_c, 0, 62, 0
1, 20160, Note_on_c, 0, 48, 0
1, 20160, Note_on_c, 0, 57, 0
1, 20160, Note_on_c, 0, 59, 30
1, 20160, Note_on_c, 0, 67, 40
1, 20160, Note_on_c, 0, 50, 29
1, 20400, Note_on_c, 0, 67, 0
1, 20400, Note_on_c, 0, 62, 33
1, 20640, Tempo, 391901
1, 20640, Note_on_c, 0, 62, 0
1, 20640, Note_on_c, 0, 67, 32
1, 20880, Tempo, 378310
1, 20880, Note_on_c, 0, 50, 0
1, 20880, Note_on_c, 0, 59, 0
1, 20880, Note_on_c, 0, 57, 28
1, 20880, Note_on_c, 0, 48, 22
1, 21000, Note_on_c, 0, 67, 0
1, 21000, Note_on_c, 0, 64, 27
1, 21060, Note_on_c, 0, 64, 0
1, 21060, Note_on_c, 0, 66, 27
1, 21120, Tempo, 380711
1, 21120, Note_on_c, 0, 66, 0
1, 21120, Note_on_c, 0, 64, 34
1, 21360, Tempo, 390625
1, 21360, Note_on_c, 0, 64, 0
1, 21360, Note_on_c, 0, 62, 29
1, 21600, Tempo, 405132
1, 21600, Note_on_c, 0, 62, 0
1, 21600, Note_on_c, 0, 43, 0
1, 21600, Note_on_c, 0, 57, 0
1, 21600, Note_on_c, 0, 48, 0
1, 21600, Note_on_c, 0, 59, 25
1, 21600, Note_on_c, 0, 67, 30
1, 21600, Note_on_c, 0, 43, 19
1, 21600, Note_on_c, 0, 50, 23
1, 21720, Note_on_c, 0, 67, 0
1, 21720, Note_on_c, 0, 59, 0
1, 22017, Control_c, 0, 64, 127
1, 22080, Tempo, 431344
1, 22080, Note_on_c, 0, 59, 24
1, 22080, Note_on_c, 0, 67, 29
1, 22320, Tempo, 405132
1, 22320, Note_on_c, 0, 43, 0
1, 22320, Note_on_c, 0, 50, 0
1, 22320, Note_on_c, 0, 31, 19
1, 22320, Note_on_c, 0, 38, 23
1, 23040, Note_on_c, 0, 38, 0
1, 23040, Note_on_c, 0, 31, 0
1, 23040, Note_on_c, 0, 43, 22
1, 23040, Note_on_c, 0, 50, 26
1, 23520, Tempo, 428266
1, 23520, Note_on_c, 0, 59, 0
1, 23520, Note_on_c, 0, 67, 0
1, 23520, Note_on_c, 0, 59, 17
1, 23520, Note_on_c, 0, 67, 20
1, 24000, Tempo, 374766
1, 24000, Note_on_c, 0, 67, 0
1, 24000, Note_on_c, 0, 50, 0
1, 24000, Note_on_c, 0, 43, 0
1, 24000, Note_on_c, 0, 59, 0
1, 24000, Note_on_c, 0, 62, 79
1, 24000, Control_c, 0, 64, 0
1, 24120, Note_on_c, 0, 62, 0
1, 24240, Note_on_c, 0, 64, 73
1, 24360, Note_on_c, 0, 64, 0
1, 24480, Tempo, 369004
1, 24480, Note_on_c, 0, 68, 73
1, 24480, Note_on_c, 0, 71, 75
1, 24480, Note_on_c, 0, 65, 89
1, 24600, Note_on_c, 0, 65, 0
1, 24720, Note_on_c, 0, 62, 74
1, 24840, Note_on_c, 0, 62, 0
1, 24960, Tempo, 379507
1, 24960, Note_on_c, 0, 65, 74
1, 25200, Tempo, 370142
1, 25200, Note_on_c, 0, 71, 0
1, 25200, Note_on_c, 0, 68, 0
1, 25200, Note_on_c, 0, 69, 62
1, 25200, Note_on_c, 0, 72, 75
1, 25320, Note_on_c, 0, 65, 0
1, 25320, Note_on_c, 0, 64, 67
1, 25380, Note_on_c, 0, 64, 0
1, 25380, Note_on_c, 0, 65, 67
1, 25440, Note_on_c, 0, 65, 0
1, 25440, Note_on_c, 0, 64, 84
1, 25560, Note_on_c, 0, 64, 0
1, 25680, Tempo, 380711
1, 25680, Note_on_c, 0, 63, 74
1, 25800, Note_on_c, 0, 63, 0
1, 25920, Tempo, 391901
1, 25920, Note_on_c, 0, 72, 0
1, 25920, Note_on_c, 0, 69, 0
1, 25920, Note_on_c, 0, 68, 72
1, 25920, Note_on_c, 0, 71, 75
1, 25920, Note_on_c, 0, 64, 74
1, 26040, Note_on_c, 0, 71, 0
1, 26040, Note_on_c, 0, 68, 0
1, 26332, Control_c, 0, 64, 127
1, 26400, Tempo, 379507
1, 26400, Note_on_c, 0, 68, 48
1, 26400, Note_on_c, 0, 71, 75
1, 26640, Note_on_c, 0, 64, 0
1, 26640, Note_on_c, 0, 59, 54
1, 26640, Note_on_c, 0, 52, 50
1, 26880, Tempo, 374766
1, 26880, Note_on_c, 0, 52, 0
1, 26880, Note_on_c, 0, 68, 0
1, 26880, Note_on_c, 0, 71, 0
1, 26880, Note_on_c, 0, 59, 0
1, 26880, Note_on_c, 0, 71, 40
1, 26886, Control_c, 0, 64, 0
1, 27120, Note_on_c, 0, 71, 0
1, 27120, Note_on_c, 0, 73, 37
1, 27360, Note_on_c, 0, 73, 0
1, 27360, Note_on_c, 0, 64, 34
1, 27360, Note_on_c, 0, 75, 45
1, 27360, Note_on_c, 0, 47, 28
1, 27360, Note_on_c, 0, 56, 33
1, 27600, Note_on_c, 0, 75, 0
1, 27600, Note_on_c, 0, 71, 38
1, 27840, Note_on_c, 0, 71, 0
1, 27840, Note_on_c, 0, 75, 38
1, 28080, Tempo, 370142
1, 28080, Note_on_c, 0, 56, 0
1, 28080, Note_on_c, 0, 64, 0
1, 28080, Note_on_c, 0, 63, 34
1, 28080, Note_on_c, 0, 57, 27
1, 28200, Note_on_c, 0, 75, 0
1, 28200, Note_on_c, 0, 73, 34
1, 28260, Note_on_c, 0, 73, 0
1, 28260, Note_on_c, 0, 75, 34
1, 28320, Note_on_c, 0, 75, 0
1, 28320, Note_on_c, 0, 73, 43
1, 28560, Tempo, 380711
1, 28560, Note_on_c, 0, 73, 0
1, 28560, Note_on_c, 0, 69, 38
1, 28800, Tempo, 391901
1, 28800, Note_on_c, 0, 69, 0
1, 28800, Note_on_c, 0, 47, 0
1, 28800, Note_on_c, 0, 63, 0
1, 28800, Note_on_c, 0, 57, 0
1, 28800, Note_on_c, 0, 64, 27
1, 28800, Note_on_c, 0, 68, 27
1, 28800, Note_on_c, 0, 71, 34
1, 28800, Note_on_c, 0, 52, 22
1, 28800, Note_on_c, 0, 59, 26
1, 28920, Note_on_c, 0, 71, 0
1, 28920, Note_on_c, 0, 64, 0
1, 28920, Note_on_c, 0, 68, 0
1, 29040, Tempo, 374766
1, 29126, Control_c, 0, 64, 127
1, 29280, Note_on_c, 0, 64, 33
1, 29280, Note_on_c, 0, 68, 33
1, 29280, Note_on_c, 0, 71, 41
1, 29520, Note_on_c, 0, 52, 0
1, 29520, Note_on_c, 0, 59, 0
1, 29520, Note_on_c, 0, 40, 22
1, 29520, Note_on_c, 0, 47, 26
1, 29760, Tempo, 370142
1, 29760, Note_on_c, 0, 47, 0
1, 29760, Note_on_c, 0, 68, 0
1, 29760, Note_on_c, 0, 71, 0
1, 29760, Note_on_c, 0, 64, 0
1, 29760, Note_on_c, 0, 40, 0
1, 29760, Note_on_c, 0, 65, 79
1, 29760, Control_c, 0, 64, 0
1, 29760, Control_c, 0, 64, 0
1, 29880, Note_on_c, 0, 65, 0
1, 30000, Note_on_c, 0, 67, 73
1, 30120, Note_on_c, 0, 67, 0
1, 30240, Tempo, 366748
1, 30240, Note_on_c, 0, 71, 73
1, 30240, Note_on_c, 0, 74, 75
1, 30240, Note_on_c, 0, 68, 89
1, 30360, Note_on_c, 0, 68, 0
1, 30480, Note_on_c, 0, 65, 74
1, 30600, Note_on_c, 0, 65, 0
1, 30720, Tempo, 379507
1, 30720, Note_on_c, 0, 68, 74
1, 30960, Tempo, 370142
1, 30960, Note_on_c, 0, 74, 0
1, 30960, Note_on_c, 0, 71, 0
1, 30960, Note_on_c, 0, 72, 62
1, 30960, Note_on_c, 0, 75, 75
1, 31080, Note_on_c, 0, 68, 0
1, 31080, Note_on_c, 0, 67, 67
1, 31140, Note_on_c, 0, 67, 0
1, 31140, Note_on_c, 0, 68, 67
1, 31200, Note_on_c, 0, 68, 0
1, 31200, Note_on_c, 0, 67, 84
1, 31320, Note_on_c, 0, 67, 0
1, 31440, Tempo, 380711
1, 31440, Note_on_c, 0, 66, 74
1, 31560, Note_on_c, 0, 66, 0
1, 31680, Tempo, 391901
1, 31680, Note_on_c, 0, 75, 0
1, 31680, Note_on_c, 0, 72, 0
1, 31680, Note_on_c, 0, 71, 72
1, 31680, Note_on_c, 0, 74, 75
1, 31680, Note_on_c, 0, 67, 74
1, 31800, Note_on_c, 0, 74, 0
1, 31800, Note_on_c, 0, 71, 0
1, 32092, Control_c, 0, 64, 127
1, 32160, Tempo, 379507
1, 32160, Note_on_c, 0, 71, 48
1, 32160, Note_on_c, 0, 74, 75
1, 32400, Note_on_c, 0, 67, 0
1, 32400, Note_on_c, 0, 62, 54
1, 32400, Note_on_c, 0, 55, 50
1, 32640, Tempo, 374766
1, 32640, Note_on_c, 0, 55, 0
1, 32640, Note_on_c, 0, 71, 0
1, 32640, Note_on_c, 0, 74, 0
1, 32640, Note_on_c, 0, 62, 0
1, 32640, Note_on_c, 0, 74, 40
1, 32646, Control_c, 0, 64, 0
1, 32880, Note_on_c, 0, 74, 0
1, 32880, Note_on_c, 0, 76, 37
1, 33120, Note_on_c, 0, 76, 0
1, 33120, Note_on_c, 0, 67, 34
1, 33120, Note_on_c, 0, 78, 45
1, 33120, Note_on_c, 0, 50, 28
1, 33120, Note_on_c, 0, 59, 33
1, 33360, Note_on_c, 0, 78, 0
1, 33360, Note_on_c, 0, 74, 38
1, 33600, Note_on_c, 0, 74, 0
1, 33600, Note_on_c, 0, 78, 38
1, 33840, Tempo, 370142
1, 33840, Note_on_c, 0, 59, 0
1, 33840, Note_on_c, 0, 67, 0
1, 33840, Note_on_c, 0, 66, 34
1, 33840, Note_on_c, 0, 60, 27
1, 33960, Note_on_c, 0, 78, 0
1, 33960, Note_on_c, 0, 76, 34
1, 34020, Note_on_c, 0, 76, 0
1, 34020, Note_on_c, 0, 78, 34
1, 34080, Note_on_c, 0, 78, 0
1, 34080, Note_on_c, 0, 76, 43
1, 34320, Tempo, 380711
1, 34320, Note_on_c, 0, 76, 0
1, 34320, Note_on_c, 0, 72, 38
1, 34560, Tempo, 391901
1, 34560, Note_on_c, 0, 72, 0
1, 34560, Note_on_c, 0, 50, 0
1, 34560, Note_on_c, 0, 66, 0
1, 34560, Note_on_c, 0, 60, 0
1, 34560, Note_on_c, 0, 67, 27
1, 34560, Note_on_c, 0, 71, 27
1, 34560, Note_on_c, 0, 74, 34
1, 34560, Note_on_c, 0, 55, 22
1, 34560, Note_on_c, 0, 62, 26
1, 34680, Note_on_c, 0, 74, 0
1, 34680, Note_on_c, 0, 67, 0
1, 34680, Note_on_c, 0, 71, 0
1, 34800, Tempo, 374766
1, 34886, Control_c, 0, 64, 127
1, 35040, Note_on_c, 0, 67, 33
1, 35040, Note_on_c, 0, 71, 33
1, 35040, Note_on_c, 0, 74, 41
1, 35280, Tempo, 385604
1, 35280, Note_on_c, 0, 55, 0
1, 35280, Note_on_c, 0, 62, 0
1, 35280, Note_on_c, 0, 43, 22
1, 35280, Note_on_c, 0, 50, 26
1, 35520, Tempo, 362319
1, 35520, Note_on_c, 0, 71, 0
1, 35520, Note_on_c, 0, 74, 0
1, 35520, Note_on_c, 0, 67, 0
1, 35520, Note_on_c, 0, 74, 43
1, 35540, Control_c, 0, 64, 0
1, 35640, Note_on_c, 0, 74, 0
1, 35640, Note_on_c, 0, 76, 43
1, 35760, Note_on_c, 0, 76, 0
1, 35760, Note_on_c, 0, 43, 0
1, 35760, Note_on_c, 0, 50, 0
1, 35760, Note_on_c, 0, 69, 30
1, 35760, Note_on_c, 0, 72, 30
1, 35760, Note_on_c, 0, 78, 38
1, 35774, Tempo, 380711
1, 36000, Note_on_c, 0, 78, 0
1, 36000, Note_on_c, 0, 72, 0
1, 36000, Note_on_c, 0, 69, 0
1, 36014, Tempo, 391901
1, 36014, Note_on_c, 0, 67, 27
1, 36014, Note_on_c, 0, 71, 27
1, 36014, Note_on_c, 0, 74, 34
1, 36014, Note_on_c, 0, 55, 22
1, 36014, Note_on_c, 0, 62, 26
1, 36134, Note_on_c, 0, 74, 0
1, 36134, Note_on_c, 0, 67, 0
1, 36134, Note_on_c, 0, 71, 0
1, 36254, Tempo, 374766
1, 36340, Control_c, 0, 64, 127
1, 36480, Note_on_c, 0, 67, 33
1, 36480, Note_on_c, 0, 71, 33
1, 36480, Note_on_c, 0, 74, 41
1, 36734, Note_on_c, 0, 55, 0
1, 36734, Note_on_c, 0, 62, 0
1, 36734, Note_on_c, 0, 43, 22
1, 36734, Note_on_c, 0, 50, 26
1, 36960, Tempo, 362319
1, 36960, Note_on_c, 0, 71, 0
1, 36960, Note_on_c, 0, 74, 0
1, 36960, Note_on_c, 0, 67, 0
1, 36960, Note_on_c, 0, 74, 43
1, 36980, Control_c, 0, 64, 0
1, 37080, Note_on_c, 0, 74, 0
1, 37080, Note_on_c, 0, 76, 43
1, 37200, Note_on_c, 0, 76, 0
1, 37200, Note_on_c, 0, 69, 30
1, 37200, Note_on_c, 0, 72, 30
1, 37200, Note_on_c, 0, 77, 38
1, 37214, Tempo, 380711
1, 37214, Note_on_c, 0, 43, 0
1, 37214, Note_on_c, 0, 50, 0
1, 37440, Tempo, 381922
1, 37440, Note_on_c, 0, 72, 0
1, 37440, Note_on_c, 0, 69, 0
1, 37440, Note_on_c, 0, 77, 0
1, 37454, Note_on_c, 0, 55, 22
1, 37454, Note_on_c, 0, 62, 26
1, 37560, Control_c, 0, 64, 127
1, 37680, Tempo, 362319
1, 37680, Note_on_c, 0, 74, 43
1, 37800, Note_on_c, 0, 74, 0
1, 37800, Note_on_c, 0, 76, 43
1, 37920, Note_on_c, 0, 76, 0
1, 37920, Note_on_c, 0, 69, 30
1, 37920, Note_on_c, 0, 72, 30
1, 37920, Note_on_c, 0, 78, 38
1, 37927, Control_c, 0, 64, 0
1, 37934, Tempo, 380711
1, 37934, Note_on_c, 0, 62, 0
1, 37934, Note_on_c, 0, 55, 0
1, 38000, Control_c, 0, 64, 127
1, 38040, Note_on_c, 0, 72, 0
1, 38040, Note_on_c, 0, 69, 0
1, 38040, Note_on_c, 0, 78, 0
1, 38174, Note_on_c, 0, 43, 22
1, 38174, Note_on_c, 0, 50, 26
1, 38177, Control_c, 0, 64, 0
1, 38252, Control_c, 0, 64, 127
1, 38400, Tempo, 362319
1, 38400, Note_on_c, 0, 74, 43
1, 38520, Note_on_c, 0, 74, 0
1, 38520, Note_on_c, 0, 76, 43
1, 38640, Note_on_c, 0, 76, 0
1, 38640, Note_on_c, 0, 69, 30
1, 38640, Note_on_c, 0, 72, 30
1, 38640, Note_on_c, 0, 77, 38
1, 38654, Tempo, 380711
1, 38654, Note_on_c, 0, 50, 0
1, 38654, Note_on_c, 0, 43, 0
1, 38658, Control_c, 0, 64, 0
1, 38720, Control_c, 0, 64, 127
1, 38760, Note_on_c, 0, 72, 0
1, 38760, Note_on_c, 0, 69, 0
1, 38760, Note_on_c, 0, 77, 0
1, 38880, Tempo, 381922
1, 38894, Note_on_c, 0, 55, 22
1, 38894, Note_on_c, 0, 62, 26
1, 38902, Control_c, 0, 64, 0
1, 39000, Control_c, 0, 64, 127
1, 39120, Tempo, 362319
1, 39120, Note_on_c, 0, 74, 43
1, 39240, Note_on_c, 0, 74, 0
1, 39240, Note_on_c, 0, 76, 43
1, 39360, Note_on_c, 0, 76, 0
1, 39360, Note_on_c, 0, 69, 30
1, 39360, Note_on_c, 0, 72, 30
1, 39360, Note_on_c, 0, 78, 38
1, 39367, Control_c, 0, 64, 0
1, 39374, Tempo, 380711
1, 39374, Note_on_c, 0, 62, 0
1, 39374, Note_on_c, 0, 55, 0
1, 39440, Control_c, 0, 64, 127
1, 39480, Note_on_c, 0, 72, 0
1, 39480, Note_on_c, 0, 69, 0
1, 39480, Note_on_c, 0, 78, 0
1, 39614, Note_on_c, 0, 43, 22
1, 39614, Note_on_c, 0, 50, 26
1, 39617, Control_c, 0, 64, 0
1, 39692, Control_c, 0, 64, 127
1, 39840, Tempo, 362319
1, 39840, Note_on_c, 0, 74, 43
1, 39960, Note_on_c, 0, 74, 0
1, 39960, Note_on_c, 0, 76, 43
1, 40080, Note_on_c, 0, 76, 0
1, 40080, Note_on_c, 0, 69, 30
1, 40080, Note_on_c, 0, 72, 30
1, 40080, Note_on_c, 0, 77, 38
1, 40094, Tempo, 380711
1, 40094, Note_on_c, 0, 50, 0
1, 40094, Note_on_c, 0, 43, 0
1, 40098, Control_c, 0, 64, 0
1, 40160, Control_c, 0, 64, 127
1, 40200, Note_on_c, 0, 72, 0
1, 40200, Note_on_c, 0, 69, 0
1, 40200, Note_on_c, 0, 77, 0
1, 40320, Tempo, 381922
1, 40332, Control_c, 0, 64, 0
1, 40334, Note_on_c, 0, 55, 22
1, 40334, Note_on_c, 0, 62, 26
1, 40440, Control_c, 0, 64, 127
1, 40560, Tempo, 362319
1, 40560, Note_on_c, 0, 77, 43
1, 40680, Note_on_c, 0, 77, 0
1, 40680, Note_on_c, 0, 79, 43
1, 40800, Tempo, 375940
1, 40800, Note_on_c, 0, 79, 0
1, 40800, Note_on_c, 0, 72, 30
1, 40800, Note_on_c, 0, 74, 30
1, 40800, Note_on_c, 0, 81, 38
1, 40807, Control_c, 0, 64, 0
1, 40814, Tempo, 380711
1, 40814, Note_on_c, 0, 62, 0
1, 40814, Note_on_c, 0, 55, 0
1, 40880, Control_c, 0, 64, 127
1, 40920, Note_on_c, 0, 74, 0
1, 40920, Note_on_c, 0, 72, 0
1, 40920, Note_on_c, 0, 81, 0
1, 41054, Note_on_c, 0, 43, 22
1, 41054, Note_on_c, 0, 50, 26
1, 41057, Control_c, 0, 64, 0
1, 41132, Control_c, 0, 64, 127
1, 41280, Tempo, 362319
1, 41280, Note_on_c, 0, 77, 43
1, 41400, Note_on_c, 0, 77, 0
1, 41400, Note_on_c, 0, 79, 43
1, 41520, Tempo, 374766
1, 41520, Note_on_c, 0, 79, 0
1, 41520, Note_on_c, 0, 71, 30
1, 41520, Note_on_c, 0, 74, 30
1, 41520, Note_on_c, 0, 81, 38
1, 41534, Note_on_c, 0, 50, 0
1, 41534, Note_on_c, 0, 43, 0
1, 41538, Control_c, 0, 64, 0
1, 41600, Control_c, 0, 64, 127
1, 41640, Note_on_c, 0, 74, 0
1, 41640, Note_on_c, 0, 71, 0
1, 41640, Note_on_c, 0, 81, 0
1, 41760, Tempo, 381922
1, 41760, Note_on_c, 0, 55, 26
1, 41760, Note_on_c, 0, 48, 22
1, 41772, Control_c, 0, 64, 0
1, 41880, Control_c, 0, 64, 127
1, 42000, Tempo, 362319
1, 42000, Note_on_c, 0, 76, 43
1, 42120, Note_on_c, 0, 76, 0
1, 42120, Note_on_c, 0, 77, 43
1, 42240, Tempo, 372439
1, 42240, Note_on_c, 0, 77, 0
1, 42240, Note_on_c, 0, 48, 0
1, 42240, Note_on_c, 0, 55, 0
1, 42240, Note_on_c, 0, 71, 30
1, 42240, Note_on_c, 0, 72, 30
1, 42240, Note_on_c, 0, 79, 38
1, 42247, Control_c, 0, 64, 0
1, 42320, Control_c, 0, 64, 127
1, 42360, Note_on_c, 0, 79, 0
1, 42360, Note_on_c, 0, 72, 0
1, 42360, Note_on_c, 0, 71, 0
1, 42480, Note_on_c, 0, 43, 26
1, 42480, Note_on_c, 0, 36, 22
1, 42497, Control_c, 0, 64, 0
1, 42572, Control_c, 0, 64, 127
1, 42720, Tempo, 362319
1, 42720, Note_on_c, 0, 76, 43
1, 42840, Note_on_c, 0, 76, 0
1, 42840, Note_on_c, 0, 77, 43
1, 42960, Note_on_c, 0, 77, 0
1, 42960, Note_on_c, 0, 36, 0
1, 42960, Note_on_c, 0, 43, 0
1, 42960, Note_on_c, 0, 71, 29
1, 42960, Note_on_c, 0, 72, 29
1, 42960, Note_on_c, 0, 79, 37
1, 42974, Tempo, 380711
1, 42978, Control_c, 0, 64, 0
1, 43040, Control_c, 0, 64, 127
1, 43080, Note_on_c, 0, 79, 0
1, 43080, Note_on_c, 0, 72, 0
1, 43080, Note_on_c, 0, 71, 0
1, 43200, Tempo, 381922
1, 43200, Note_on_c, 0, 60, 25
1, 43200, Note_on_c, 0, 53, 21
1, 43216, Control_c, 0, 64, 0
1, 43320, Control_c, 0, 64, 127
1, 43440, Tempo, 362319
1, 43440, Note_on_c, 0, 76, 41
1, 43560, Note_on_c, 0, 76, 0
1, 43560, Note_on_c, 0, 77, 41
1, 43680, Note_on_c, 0, 77, 0
1, 43680, Note_on_c, 0, 53, 0
1, 43680, Note_on_c, 0, 60, 0
1, 43680, Note_on_c, 0, 69, 28
1, 43680, Note_on_c, 0, 72, 28
1, 43680, Note_on_c, 0, 79, 36
1, 43687, Control_c, 0, 64, 0
1, 43694, Tempo, 380711
1, 43760, Control_c, 0, 64, 127
1, 43800, Note_on_c, 0, 79, 0
1, 43800, Note_on_c, 0, 72, 0
1, 43800, Note_on_c, 0, 69, 0
1, 43920, Note_on_c, 0, 48, 24
1, 43920, Note_on_c, 0, 41, 20
1, 43937, Control_c, 0, 64, 0
1, 44012, Control_c, 0, 64, 127
1, 44160, Tempo, 362319
1, 44160, Note_on_c, 0, 76, 39
1, 44280, Note_on_c, 0, 76, 0
1, 44280, Note_on_c, 0, 77, 39
1, 44400, Tempo, 401070
1, 44400, Note_on_c, 0, 77, 0
1, 44400, Note_on_c, 0, 41, 0
1, 44400, Note_on_c, 0, 48, 0
1, 44400, Note_on_c, 0, 69, 27
1, 44400, Note_on_c, 0, 72, 27
1, 44400, Note_on_c, 0, 79, 34
1, 44418, Control_c, 0, 64, 0
1, 44480, Control_c, 0, 64, 127
1, 44520, Note_on_c, 0, 79, 0
1, 44520, Note_on_c, 0, 72, 0
1, 44520, Note_on_c, 0, 69, 0
1, 44640, Tempo, 381922
1, 44640, Note_on_c, 0, 53, 23
1, 44640, Note_on_c, 0, 47, 19
1, 44656, Control_c, 0, 64, 0
1, 44760, Control_c, 0, 64, 127
1, 44880, Tempo, 362319
1, 44880, Note_on_c, 0, 74, 37
1, 45000, Note_on_c, 0, 74, 0
1, 45000, Note_on_c, 0, 76, 37
1, 45120, Note_on_c, 0, 76, 0
1, 45120, Note_on_c, 0, 47, 0
1, 45120, Note_on_c, 0, 53, 0
1, 45120, Note_on_c, 0, 69, 26
1, 45120, Note_on_c, 0, 71, 26
1, 45120, Note_on_c, 0, 77, 33
1, 45127, Control_c, 0, 64, 0
1, 45134, Tempo, 380711
1, 45200, Control_c, 0, 64, 127
1, 45240, Note_on_c, 0, 77, 0
1, 45240, Note_on_c, 0, 71, 0
1, 45240, Note_on_c, 0, 69, 0
1, 45360, Note_on_c, 0, 41, 22
1, 45360, Note_on_c, 0, 35, 18
1, 45377, Control_c, 0, 64, 0
1, 45452, Control_c, 0, 64, 127
1, 45600, Tempo, 362319
1, 45600, Note_on_c, 0, 74, 36
1, 45720, Note_on_c, 0, 74, 0
1, 45720, Note_on_c, 0, 76, 36
1, 45840, Note_on_c, 0, 76, 0
1, 45840, Note_on_c, 0, 35, 0
1, 45840, Note_on_c, 0, 41, 0
1, 45840, Note_on_c, 0, 69, 24
1, 45840, Note_on_c, 0, 71, 24
1, 45840, Note_on_c, 0, 77, 31
1, 45854, Tempo, 380711
1, 45858, Control_c, 0, 64, 0
1, 45920, Control_c, 0, 64, 127
1, 45960, Note_on_c, 0, 77, 0
1, 45960, Note_on_c, 0, 71, 0
1, 45960, Note_on_c, 0, 69, 0
1, 46080, Tempo, 374766
1, 46080, Note_on_c, 0, 59, 21
1, 46080, Note_on_c, 0, 52, 18
1, 46096, Control_c, 0, 64, 0
1, 46200, Control_c, 0, 64, 127
1, 46320, Tempo, 362319
1, 46320, Note_on_c, 0, 74, 34
1, 46440, Note_on_c, 0, 74, 0
1, 46440, Note_on_c, 0, 76, 34
1, 46560, Tempo, 370142
1, 46560, Note_on_c, 0, 76, 0
1, 46560, Note_on_c, 0, 52, 0
1, 46560, Note_on_c, 0, 59, 0
1, 46560, Note_on_c, 0, 67, 23
1, 46560, Note_on_c, 0, 71, 23
1, 46560, Note_on_c, 0, 77, 30
1, 46567, Control_c, 0, 64, 0
1, 46640, Control_c, 0, 64, 127
1, 46680, Note_on_c, 0, 77, 0
1, 46680, Note_on_c, 0, 71, 0
1, 46680, Note_on_c, 0, 67, 0
1, 46800, Note_on_c, 0, 47, 20
1, 46800, Note_on_c, 0, 40, 17
1, 46817, Control_c, 0, 64, 0
1, 46892, Control_c, 0, 64, 127
1, 47040, Tempo, 362319
1, 47040, Note_on_c, 0, 74, 32
1, 47160, Note_on_c, 0, 74, 0
1, 47160, Note_on_c, 0, 76, 32
1, 47280, Note_on_c, 0, 76, 0
1, 47280, Note_on_c, 0, 40, 0
1, 47280, Note_on_c, 0, 47, 0
1, 47280, Note_on_c, 0, 67, 22
1, 47280, Note_on_c, 0, 71, 22
1, 47280, Note_on_c, 0, 77, 28
1, 47294, Tempo, 380711
1, 47298, Control_c, 0, 64, 0
1, 47360, Control_c, 0, 64, 127
1, 47400, Note_on_c, 0, 77, 0
1, 47400, Note_on_c, 0, 71, 0
1, 47400, Note_on_c, 0, 67, 0
1, 47520, Tempo, 381922
1, 47520, Note_on_c, 0, 52, 19
1, 47520, Note_on_c, 0, 45, 16
1, 47536, Control_c, 0, 64, 0
1, 47640, Control_c, 0, 64, 127
1, 47760, Tempo, 362319
1, 47760, Note_on_c, 0, 72, 30
1, 47880, Note_on_c, 0, 72, 0
1, 47880, Note_on_c, 0, 74, 30
1, 48000, Tempo, 367872
1, 48000, Note_on_c, 0, 74, 0
1, 48000, Note_on_c, 0, 45, 0
1, 48000, Note_on_c, 0, 52, 0
1, 48000, Note_on_c, 0, 67, 21
1, 48000, Note_on_c, 0, 69, 21
1, 48000, Note_on_c, 0, 76, 26
1, 48007, Control_c, 0, 64, 0
1, 48080, Control_c, 0, 64, 127
1, 48120, Note_on_c, 0, 76, 0
1, 48120, Note_on_c, 0, 69, 0
1, 48120, Note_on_c, 0, 67, 0
1, 48240, Note_on_c, 0, 40, 18
1, 48240, Note_on_c, 0, 33, 15
1, 48257, Control_c, 0, 64, 0
1, 48332, Control_c, 0, 64, 127
1, 48480, Tempo, 362319
1, 48480, Note_on_c, 0, 72, 29
1, 48600, Note_on_c, 0, 72, 0
1, 48600, Note_on_c, 0, 74, 29
1, 48720, Note_on_c, 0, 74, 0
1, 48720, Note_on_c, 0, 33, 0
1, 48720, Note_on_c, 0, 40, 0
1, 48720, Note_on_c, 0, 67, 20
1, 48720, Note_on_c, 0, 69, 20
1, 48720, Note_on_c, 0, 76, 25
1, 48734, Tempo, 380711
1, 48738, Control_c, 0, 64, 0
1, 48800, Control_c, 0, 64, 127
1, 48840, Note_on_c, 0, 76, 0
1, 48840, Note_on_c, 0, 69, 0
1, 48840, Note_on_c, 0, 67, 0
1, 48960, Tempo, 371287
1, 48960, Note_on_c, 0, 57, 16
1, 48960, Note_on_c, 0, 50, 14
1, 48976, Control_c, 0, 64, 0
1, 49080, Control_c, 0, 64, 127
1, 49200, Tempo, 362319
1, 49200, Note_on_c, 0, 72, 27
1, 49320, Note_on_c, 0, 72, 0
1, 49320, Note_on_c, 0, 74, 27
1, 49440, Tempo, 371287
1, 49440, Note_on_c, 0, 74, 0
1, 49440, Note_on_c, 0, 50, 0
1, 49440, Note_on_c, 0, 57, 0
1, 49440, Note_on_c, 0, 65, 19
1, 49440, Note_on_c, 0, 69, 19
1, 49440, Note_on_c, 0, 76, 24
1, 49447, Control_c, 0, 64, 0
1, 49520, Control_c, 0, 64, 127
1, 49560, Note_on_c, 0, 76, 0
1, 49560, Note_on_c, 0, 69, 0
1, 49560, Note_on_c, 0, 65, 0
1, 49680, Note_on_c, 0, 45, 16
1, 49680, Note_on_c, 0, 38, 14
1, 49697, Control_c, 0, 64, 0
1, 49772, Control_c, 0, 64, 127
1, 49920, Tempo, 362319
1, 50160, Note_on_c, 0, 38, 0
1, 50160, Note_on_c, 0, 45, 0
1, 50174, Tempo, 380711
1, 50400, Tempo, 381922
1, 50400, Note_on_c, 0, 57, 16
1, 50400, Note_on_c, 0, 50, 14
1, 50640, Tempo, 362319
1, 50880, Note_on_c, 0, 50, 0
1, 50880, Note_on_c, 0, 57, 0
1, 50894, Tempo, 380711
1, 51120, Note_on_c, 0, 45, 16
1, 51120, Note_on_c, 0, 38, 14
1, 51360, Tempo, 362319
1, 51600, Note_on_c, 0, 38, 0
1, 51600, Note_on_c, 0, 45, 0
1, 51614, Tempo, 380711
1, 51840, Tempo, 381922
1, 51840, Note_on_c, 0, 50, 16
1, 51840, Note_on_c, 0, 43, 14
1, 51856, Control_c, 0, 64, 0
1, 51960, Control_c, 0, 64, 127
1, 52080, Tempo, 362319
1, 52080, Note_on_c, 0, 71, 27
1, 52200, Note_on_c, 0, 71, 0
1, 52200, Note_on_c, 0, 72, 27
1, 52320, Note_on_c, 0, 72, 0
1, 52320, Note_on_c, 0, 43, 0
1, 52320, Note_on_c, 0, 50, 0
1, 52320, Note_on_c, 0, 65, 19
1, 52320, Note_on_c, 0, 69, 19
1, 52320, Note_on_c, 0, 74, 24
1, 52327, Control_c, 0, 64, 0
1, 52334, Tempo, 380711
1, 52400, Control_c, 0, 64, 127
1, 52440, Note_on_c, 0, 74, 0
1, 52440, Note_on_c, 0, 69, 0
1, 52440, Note_on_c, 0, 65, 0
1, 52560, Note_on_c, 0, 38, 16
1, 52560, Note_on_c, 0, 31, 14
1, 52577, Control_c, 0, 64, 0
1, 52652, Control_c, 0, 64, 127
1, 52800, Tempo, 362319
1, 52800, Note_on_c, 0, 31, 0
1, 52800, Note_on_c, 0, 38, 0
1, 53054, Tempo, 380711
1, 53280, Tempo, 381922
1, 53280, Note_on_c, 0, 50, 16
1, 53280, Note_on_c, 0, 43, 14
1, 53520, Tempo, 362319
1, 53520, Note_on_c, 0, 43, 0
1, 53520, Note_on_c, 0, 50, 0
1, 53774, Tempo, 380711
1, 54000, Note_on_c, 0, 38, 16
1, 54000, Note_on_c, 0, 31, 14
1, 54240, Tempo, 362319
1, 54240, Note_on_c, 0, 31, 0
1, 54240, Note_on_c, 0, 38, 0
1, 54494, Tempo, 380711
1, 54720, Tempo, 381922
1, 54720, Note_on_c, 0, 50, 16
1, 54720, Note_on_c, 0, 43, 14
1, 54960, Tempo, 362319
1, 54960, Note_on_c, 0, 43, 0
1, 54960, Note_on_c, 0, 50, 0
1, 55214, Tempo, 380711
1, 55440, Note_on_c, 0, 62, 16
1, 55440, Note_on_c, 0, 55, 14
1, 55680, Tempo, 362319
1, 55680, Note_on_c, 0, 55, 0
1, 55680, Note_on_c, 0, 62, 0
1, 55934, Tempo, 380711
1, 56160, Tempo, 381922
1, 56160, Note_on_c, 0, 67, 14
1, 56160, Note_on_c, 0, 74, 16
1, 56400, Tempo, 362319
1, 56400, Note_on_c, 0, 74, 0
1, 56400, Note_on_c, 0, 67, 0
1, 56654, Tempo, 380711
1, 56880, Note_on_c, 0, 86, 16
1, 56880, Note_on_c, 0, 79, 14
1, 57120, Tempo, 374766
1, 57120, Note_on_c, 0, 79, 0
1, 57120, Note_on_c, 0, 86, 0
1, 57120, Note_on_c, 0, 84, 32
1, 57120, Control_c, 0, 64, 0
1, 57360, Note_on_c, 0, 84, 0
1, 57360, Note_on_c, 0, 86, 29
1, 57600, Note_on_c, 0, 86, 0
1, 57600, Note_on_c, 0, 88, 36
1, 57600, Note_on_c, 0, 79, 26
1, 57720, Note_on_c, 0, 79, 0
1, 57840, Note_on_c, 0, 88, 0
1, 57840, Note_on_c, 0, 84, 30
1, 58080, Note_on_c, 0, 84, 0
1, 58080, Note_on_c, 0, 88, 30
1, 58320, Tempo, 370142
1, 58320, Note_on_c, 0, 79, 21
1, 58440, Note_on_c, 0, 79, 0
1, 58440, Note_on_c, 0, 88, 0
1, 58440, Note_on_c, 0, 86, 27
1, 58500, Note_on_c, 0, 86, 0
1, 58500, Note_on_c, 0, 88, 27
1, 58560, Note_on_c, 0, 88, 0
1, 58560, Note_on_c, 0, 86, 34
1, 58800, Tempo, 380711
1, 58800, Note_on_c, 0, 86, 0
1, 58800, Note_on_c, 0, 84, 30
1, 59040, Tempo, 391901
1, 59040, Note_on_c, 0, 84, 0
1, 59040, Note_on_c, 0, 88, 32
1, 59040, Note_on_c, 0, 79, 24
1, 59160, Note_on_c, 0, 79, 0
1, 59160, Note_on_c, 0, 88, 0
1, 59280, Tempo, 374766
1, 59520, Note_on_c, 0, 88, 39
1, 59760, Note_on_c, 0, 79, 24
1, 59880, Note_on_c, 0, 79, 0
1, 60000, Tempo, 370142
1, 60000, Note_on_c, 0, 88, 0
1, 60000, Note_on_c, 0, 84, 32
1, 60000, Control_c, 0, 64, 0
1, 60240, Tempo, 381922
1, 60240, Note_on_c, 0, 84, 0
1, 60240, Note_on_c, 0, 86, 29
1, 60480, Tempo, 375940
1, 60480, Note_on_c, 0, 86, 0
1, 60480, Note_on_c, 0, 88, 36
1, 60480, Note_on_c, 0, 91, 26
1, 60600, Note_on_c, 0, 91, 0
1, 60720, Note_on_c, 0, 88, 0
1, 60720, Note_on_c, 0, 84, 30
1, 60960, Note_on_c, 0, 84, 0
1, 60960, Note_on_c, 0, 88, 30
1, 61200, Tempo, 370142
1, 61200, Note_on_c, 0, 91, 21
1, 61320, Note_on_c, 0, 91, 0
1, 61320, Note_on_c, 0, 88, 0
1, 61320, Note_on_c, 0, 86, 27
1, 61380, Note_on_c, 0, 86, 0
1, 61380, Note_on_c, 0, 88, 27
1, 61440, Note_on_c, 0, 88, 0
1, 61440, Note_on_c, 0, 86, 34
1, 61680, Tempo, 380711
1, 61680, Note_on_c, 0, 86, 0
1, 61680, Note_on_c, 0, 84, 30
1, 61920, Tempo, 391901
1, 61920, Note_on_c, 0, 84, 0
1, 61920, Note_on_c, 0, 88, 32
1, 61920, Note_on_c, 0, 91, 24
1, 62040, Note_on_c, 0, 91, 0
1, 62040, Note_on_c, 0, 88, 0
1, 62160, Tempo, 374766
1, 62400, Note_on_c, 0, 88, 39
1, 62640, Note_on_c, 0, 91, 24
1, 62760, Note_on_c, 0, 91, 0
1, 62880, Tempo, 374766
1, 62880, Note_on_c, 0, 88, 0
1, 62880, Note_on_c, 0, 84, 35
1, 63120, Note_on_c, 0, 84, 0
1, 63120, Note_on_c, 0, 86, 31
1, 63360, Tempo, 370142
1, 63360, Note_on_c, 0, 86, 0
1, 63360, Note_on_c, 0, 96, 28
1, 63360, Note_on_c, 0, 93, 24
1, 63360, Note_on_c, 0, 89, 24
1, 63360, Note_on_c, 0, 88, 39
1, 63600, Tempo, 375940
1, 63600, Note_on_c, 0, 88, 0
1, 63600, Note_on_c, 0, 96, 0
1, 63600, Note_on_c, 0, 93, 0
1, 63600, Note_on_c, 0, 89, 0
1, 63600, Note_on_c, 0, 84, 33
1, 63840, Note_on_c, 0, 84, 0
1, 63840, Note_on_c, 0, 88, 33
1, 64080, Tempo, 370142
1, 64080, Note_on_c, 0, 89, 24
1, 64080, Note_on_c, 0, 95, 28
1, 64080, Note_on_c, 0, 91, 24
1, 64200, Note_on_c, 0, 88, 0
1, 64200, Note_on_c, 0, 86, 29
1, 64260, Note_on_c, 0, 86, 0
1, 64260, Note_on_c, 0, 88, 29
1, 64320, Note_on_c, 0, 88, 0
1, 64320, Note_on_c, 0, 89, 0
1, 64320, Note_on_c, 0, 95, 0
1, 64320, Note_on_c, 0, 91, 0
1, 64320, Note_on_c, 0, 86, 37
1, 64560, Tempo, 380711
1, 64560, Note_on_c, 0, 86, 0
1, 64560, Note_on_c, 0, 83, 33
1, 64800, Tempo, 391901
1, 64800, Note_on_c, 0, 83, 0
1, 64800, Note_on_c, 0, 95, 28
1, 64800, Note_on_c, 0, 91, 24
1, 64800, Note_on_c, 0, 88, 24
1, 64800, Note_on_c, 0, 86, 35
1, 64920, Note_on_c, 0, 86, 0
1, 65040, Tempo, 374766
1, 65040, Note_on_c, 0, 95, 0
1, 65040, Note_on_c, 0, 91, 0
1, 65040, Note_on_c, 0, 88, 0
1, 65280, Note_on_c, 0, 84, 42
1, 65520, Note_on_c, 0, 93, 28
1, 65520, Note_on_c, 0, 89, 24
1, 65520, Note_on_c, 0, 88, 24
1, 65760, Tempo, 369004
1, 65760, Note_on_c, 0, 88, 0
1, 65760, Note_on_c, 0, 84, 0
1, 65760, Note_on_c, 0, 93, 0
1, 65760, Note_on_c, 0, 89, 0
1, 65760, Note_on_c, 0, 81, 35
1, 66000, Tempo, 377121
1, 66000, Note_on_c, 0, 81, 0
1, 66000, Note_on_c, 0, 83, 31
1, 66240, Tempo, 374766
1, 66240, Note_on_c, 0, 83, 0
1, 66240, Note_on_c, 0, 93, 28
1, 66240, Note_on_c, 0, 89, 24
1, 66240, Note_on_c, 0, 86, 24
1, 66240, Note_on_c, 0, 84, 39
1, 66480, Note_on_c, 0, 84, 0
1, 66480, Note_on_c, 0, 93, 0
1, 66480, Note_on_c, 0, 89, 0
1, 66480, Note_on_c, 0, 86, 0
1, 66480, Note_on_c, 0, 81, 33
1, 66720, Note_on_c, 0, 81, 0
1, 66720, Note_on_c, 0, 84, 33
1, 66960, Tempo, 370142
1, 66960, Note_on_c, 0, 86, 24
1, 66960, Note_on_c, 0, 91, 28
1, 66960, Note_on_c, 0, 88, 24
1, 67080, Note_on_c, 0, 84, 0
1, 67080, Note_on_c, 0, 83, 29
1, 67140, Note_on_c, 0, 83, 0
1, 67140, Note_on_c, 0, 84, 29
1, 67200, Note_on_c, 0, 84, 0
1, 67200, Note_on_c, 0, 86, 0
1, 67200, Note_on_c, 0, 91, 0
1, 67200, Note_on_c, 0, 88, 0
1, 67200, Note_on_c, 0, 83, 37
1, 67440, Tempo, 380711
1, 67440, Note_on_c, 0, 83, 0
1, 67440, Note_on_c, 0, 79, 33
1, 67680, Tempo, 391901
1, 67680, Note_on_c, 0, 79, 0
1, 67680, Note_on_c, 0, 91, 28
1, 67680, Note_on_c, 0, 88, 24
1, 67680, Note_on_c, 0, 84, 24
1, 67680, Note_on_c, 0, 83, 35
1, 67800, Note_on_c, 0, 83, 0
1, 67920, Tempo, 374766
1, 67920, Note_on_c, 0, 91, 0
1, 67920, Note_on_c, 0, 88, 0
1, 67920, Note_on_c, 0, 84, 0
1, 68160, Note_on_c, 0, 81, 42
1, 68400, Note_on_c, 0, 89, 28
1, 68400, Note_on_c, 0, 86, 24
1, 68400, Note_on_c, 0, 84, 24
1, 68640, Tempo, 374766
1, 68640, Note_on_c, 0, 84, 0
1, 68640, Note_on_c, 0, 81, 0
1, 68640, Note_on_c, 0, 89, 0
1, 68640, Note_on_c, 0, 86, 0
1, 68640, Note_on_c, 0, 77, 35
1, 68880, Note_on_c, 0, 77, 0
1, 68880, Note_on_c, 0, 79, 31
1, 69120, Tempo, 366748
1, 69120, Note_on_c, 0, 79, 0
1, 69120, Note_on_c, 0, 89, 28
1, 69120, Note_on_c, 0, 86, 24
1, 69120, Note_on_c, 0, 83, 24
1, 69120, Note_on_c, 0, 81, 39
1, 69360, Tempo, 378310
1, 69360, Note_on_c, 0, 81, 0
1, 69360, Note_on_c, 0, 89, 0
1, 69360, Note_on_c, 0, 86, 0
1, 69360, Note_on_c, 0, 83, 0
1, 69360, Note_on_c, 0, 77, 33
1, 69600, Note_on_c, 0, 77, 0
1, 69600, Note_on_c, 0, 81, 33
1, 69840, Tempo, 370142
1, 69840, Note_on_c, 0, 83, 24
1, 69840, Note_on_c, 0, 88, 28
1, 69840, Note_on_c, 0, 84, 24
1, 69960, Note_on_c, 0, 81, 0
1, 69960, Note_on_c, 0, 79, 29
1, 70020, Note_on_c, 0, 79, 0
1, 70020, Note_on_c, 0, 81, 29
1, 70080, Note_on_c, 0, 81, 0
1, 70080, Note_on_c, 0, 83, 0
1, 70080, Note_on_c, 0, 88, 0
1, 70080, Note_on_c, 0, 84, 0
1, 70080, Note_on_c, 0, 79, 37
1, 70320, Tempo, 380711
1, 70320, Note_on_c, 0, 79, 0
1, 70320, Note_on_c, 0, 76, 33
1, 70560, Tempo, 374766
1, 70560, Note_on_c, 0, 76, 0
1, 70560, Note_on_c, 0, 88, 28
1, 70560, Note_on_c, 0, 84, 24
1, 70560, Note_on_c, 0, 81, 24
1, 70560, Note_on_c, 0, 79, 39
1, 70800, Note_on_c, 0, 79, 0
1, 70800, Note_on_c, 0, 88, 0
1, 70800, Note_on_c, 0, 84, 0
1, 70800, Note_on_c, 0, 81, 0
1, 70800, Note_on_c, 0, 76, 33
1, 71040, Note_on_c, 0, 76, 0
1, 71040, Note_on_c, 0, 79, 33
1, 71280, Tempo, 370142
1, 71280, Note_on_c, 0, 81, 24
1, 71280, Note_on_c, 0, 86, 28
1, 71280, Note_on_c, 0, 83, 24
1, 71400, Note_on_c, 0, 79, 0
1, 71400, Note_on_c, 0, 77, 29
1, 71460, Note_on_c, 0, 77, 0
1, 71460, Note_on_c, 0, 79, 29
1, 71520, Note_on_c, 0, 79, 0
1, 71520, Note_on_c, 0, 81, 0
1, 71520, Note_on_c, 0, 86, 0
1, 71520, Note_on_c, 0, 83, 0
1, 71520, Note_on_c, 0, 77, 37
1, 71760, Tempo, 380711
1, 71760, Note_on_c, 0, 77, 0
1, 71760, Note_on_c, 0, 74, 33
1, 72000, Tempo, 364520
1, 72000, Note_on_c, 0, 74, 0
1, 72000, Note_on_c, 0, 86, 28
1, 72000, Note_on_c, 0, 83, 24
1, 72000, Note_on_c, 0, 79, 24
1, 72000, Note_on_c, 0, 77, 39
1, 72240, Tempo, 374766
1, 72240, Note_on_c, 0, 77, 0
1, 72240, Note_on_c, 0, 86, 0
1, 72240, Note_on_c, 0, 83, 0
1, 72240, Note_on_c, 0, 79, 0
1, 72240, Note_on_c, 0, 74, 33
1, 72480, Note_on_c, 0, 74, 0
1, 72480, Note_on_c, 0, 77, 33
1, 72720, Tempo, 370142
1, 72720, Note_on_c, 0, 79, 24
1, 72720, Note_on_c, 0, 84, 28
1, 72720, Note_on_c, 0, 81, 24
1, 72840, Note_on_c, 0, 77, 0
1, 72840, Note_on_c, 0, 76, 29
1, 72900, Note_on_c, 0, 76, 0
1, 72900, Note_on_c, 0, 77, 29
1, 72960, Note_on_c, 0, 77, 0
1, 72960, Note_on_c, 0, 79, 0
1, 72960, Note_on_c, 0, 84, 0
1, 72960, Note_on_c, 0, 81, 0
1, 72960, Note_on_c, 0, 76, 37
1, 73200, Tempo, 380711
1, 73200, Note_on_c, 0, 76, 0
1, 73200, Note_on_c, 0, 72, 33
1, 73440, Tempo, 391901
1, 73440, Note_on_c, 0, 72, 0
1, 73440, Note_on_c, 0, 84, 28
1, 73440, Note_on_c, 0, 81, 24
1, 73440, Note_on_c, 0, 77, 24
1, 73440, Note_on_c, 0, 76, 35
1, 73560, Note_on_c, 0, 76, 0
1, 73680, Tempo, 374766
1, 73680, Note_on_c, 0, 84, 0
1, 73680, Note_on_c, 0, 81, 0
1, 73680, Note_on_c, 0, 77, 0
1, 73920, Note_on_c, 0, 74, 42
1, 74160, Note_on_c, 0, 77, 24
1, 74160, Note_on_c, 0, 83, 28
1, 74160, Note_on_c, 0, 79, 24
1, 74400, Tempo, 370142
1, 74400, Note_on_c, 0, 79, 0
1, 74400, Note_on_c, 0, 74, 0
1, 74400, Note_on_c, 0, 77, 0
1, 74400, Note_on_c, 0, 83, 0
1, 74400, Note_on_c, 0, 72, 37
1, 74640, Tempo, 380711
1, 74640, Note_on_c, 0, 72, 0
1, 74640, Note_on_c, 0, 74, 33
1, 74880, Tempo, 374766
1, 74880, Note_on_c, 0, 74, 0
1, 74880, Note_on_c, 0, 84, 29
1, 74880, Note_on_c, 0, 81, 25
1, 74880, Note_on_c, 0, 77, 25
1, 74880, Note_on_c, 0, 76, 41
1, 75120, Note_on_c, 0, 76, 0
1, 75120, Note_on_c, 0, 84, 0
1, 75120, Note_on_c, 0, 81, 0
1, 75120, Note_on_c, 0, 77, 0
1, 75120, Note_on_c, 0, 72, 34
1, 75360, Note_on_c, 0, 72, 0
1, 75360, Note_on_c, 0, 76, 34
1, 75600, Tempo, 370142
1, 75600, Note_on_c, 0, 77, 25
1, 75600, Note_on_c, 0, 83, 30
1, 75600, Note_on_c, 0, 79, 25
1, 75720, Note_on_c, 0, 76, 0
1, 75720, Note_on_c, 0, 74, 31
1, 75780, Note_on_c, 0, 74, 0
1, 75780, Note_on_c, 0, 76, 31
1, 75840, Note_on_c, 0, 76, 0
1, 75840, Note_on_c, 0, 77, 0
1, 75840, Note_on_c, 0, 83, 0
1, 75840, Note_on_c, 0, 79, 0
1, 75840, Note_on_c, 0, 74, 39
1, 76080, Tempo, 380711
1, 76080, Note_on_c, 0, 74, 0
1, 76080, Note_on_c, 0, 71, 34
1, 76320, Tempo, 391901
1, 76320, Note_on_c, 0, 71, 0
1, 76320, Note_on_c, 0, 83, 30
1, 76320, Note_on_c, 0, 79, 25
1, 76320, Note_on_c, 0, 76, 25
1, 76320, Note_on_c, 0, 74, 38
1, 76440, Note_on_c, 0, 74, 0
1, 76560, Tempo, 374766
1, 76560, Note_on_c, 0, 83, 0
1, 76560, Note_on_c, 0, 79, 0
1, 76560, Note_on_c, 0, 76, 0
1, 76800, Note_on_c, 0, 72, 46
1, 77040, Note_on_c, 0, 76, 26
1, 77040, Note_on_c, 0, 81, 31
1, 77040, Note_on_c, 0, 77, 26
1, 77280, Tempo, 370142
1, 77280, Note_on_c, 0, 77, 0
1, 77280, Note_on_c, 0, 72, 0
1, 77280, Note_on_c, 0, 76, 0
1, 77280, Note_on_c, 0, 81, 0
1, 77280, Note_on_c, 0, 69, 42
1, 77520, Tempo, 380711
1, 77520, Note_on_c, 0, 69, 0
1, 77520, Note_on_c, 0, 71, 37
1, 77760, Tempo, 366748
1, 77760, Note_on_c, 0, 71, 0
1, 77760, Note_on_c, 0, 81, 31
1, 77760, Note_on_c, 0, 77, 27
1, 77760, Note_on_c, 0, 74, 27
1, 77760, Note_on_c, 0, 72, 44
1, 78000, Tempo, 377121
1, 78000, Note_on_c, 0, 72, 0
1, 78000, Note_on_c, 0, 81, 0
1, 78000, Note_on_c, 0, 77, 0
1, 78000, Note_on_c, 0, 74, 0
1, 78000, Note_on_c, 0, 69, 37
1, 78240, Note_on_c, 0, 69, 0
1, 78240, Note_on_c, 0, 72, 37
1, 78480, Tempo, 370142
1, 78480, Note_on_c, 0, 74, 28
1, 78480, Note_on_c, 0, 79, 33
1, 78480, Note_on_c, 0, 76, 28
1, 78600, Note_on_c, 0, 72, 0
1, 78600, Note_on_c, 0, 71, 34
1, 78660, Note_on_c, 0, 71, 0
1, 78660, Note_on_c, 0, 72, 34
1, 78720, Note_on_c, 0, 72, 0
1, 78720, Note_on_c, 0, 74, 0
1, 78720, Note_on_c, 0, 79, 0
1, 78720, Note_on_c, 0, 76, 0
1, 78720, Note_on_c, 0, 71, 43
1, 78960, Tempo, 380711
1, 78960, Note_on_c, 0, 71, 0
1, 78960, Note_on_c, 0, 67, 39
1, 79200, Tempo, 391901
1, 79200, Note_on_c, 0, 67, 0
1, 79200, Note_on_c, 0, 79, 33
1, 79200, Note_on_c, 0, 76, 28
1, 79200, Note_on_c, 0, 72, 28
1, 79200, Note_on_c, 0, 71, 41
1, 79320, Note_on_c, 0, 71, 0
1, 79440, Tempo, 374766
1, 79440, Note_on_c, 0, 79, 0
1, 79440, Note_on_c, 0, 76, 0
1, 79440, Note_on_c, 0, 72, 0
1, 79680, Note_on_c, 0, 69, 51
1, 79920, Note_on_c, 0, 72, 28
1, 79920, Note_on_c, 0, 77, 34
1, 79920, Note_on_c, 0, 74, 28
1, 80160, Tempo, 370142
1, 80160, Note_on_c, 0, 74, 0
1, 80160, Note_on_c, 0, 69, 0
1, 80160, Note_on_c, 0, 72, 0
1, 80160, Note_on_c, 0, 77, 0
1, 80160, Note_on_c, 0, 65, 45
1, 80400, Tempo, 383142
1, 80400, Note_on_c, 0, 65, 0
1, 80400, Note_on_c, 0, 67, 40
1, 80640, Tempo, 369004
1, 80640, Note_on_c, 0, 67, 0
1, 80640, Note_on_c, 0, 77, 35
1, 80640, Note_on_c, 0, 74, 30
1, 80640, Note_on_c, 0, 71, 30
1, 80640, Note_on_c, 0, 69, 49
1, 80880, Tempo, 375940
1, 80880, Note_on_c, 0, 69, 0
1, 80880, Note_on_c, 0, 77, 0
1, 80880, Note_on_c, 0, 74, 0
1, 80880, Note_on_c, 0, 71, 0
1, 80880, Note_on_c, 0, 65, 40
1, 81120, Note_on_c, 0, 65, 0
1, 81120, Note_on_c, 0, 69, 41
1, 81360, Tempo, 370142
1, 81360, Note_on_c, 0, 71, 30
1, 81360, Note_on_c, 0, 76, 36
1, 81360, Note_on_c, 0, 72, 30
1, 81480, Note_on_c, 0, 69, 0
1, 81480, Note_on_c, 0, 67, 37
1, 81540, Note_on_c, 0, 67, 0
1, 81540, Note_on_c, 0, 69, 37
1, 81600, Note_on_c, 0, 69, 0
1, 81600, Note_on_c, 0, 71, 0
1, 81600, Note_on_c, 0, 76, 0
1, 81600, Note_on_c, 0, 72, 0
1, 81600, Note_on_c, 0, 67, 48
1, 81840, Tempo, 380711
1, 81840, Note_on_c, 0, 67, 0
1, 81840, Note_on_c, 0, 64, 42
1, 82080, Tempo, 374766
1, 82080, Note_on_c, 0, 64, 0
1, 82080, Note_on_c, 0, 76, 37
1, 82080, Note_on_c, 0, 72, 31
1, 82080, Note_on_c, 0, 69, 31
1, 82080, Note_on_c, 0, 67, 52
1, 82320, Note_on_c, 0, 67, 0
1, 82320, Note_on_c, 0, 76, 0
1, 82320, Note_on_c, 0, 72, 0
1, 82320, Note_on_c, 0, 69, 0
1, 82320, Note_on_c, 0, 64, 44
1, 82560, Note_on_c, 0, 64, 0
1, 82560, Note_on_c, 0, 67, 44
1, 82800, Tempo, 370142
1, 82800, Note_on_c, 0, 69, 33
1, 82800, Note_on_c, 0, 74, 40
1, 82800, Note_on_c, 0, 71, 33
1, 82920, Note_on_c, 0, 67, 0
1, 82920, Note_on_c, 0, 65, 41
1, 82980, Note_on_c, 0, 65, 0
1, 82980, Note_on_c, 0, 67, 41
1, 83040, Note_on_c, 0, 67, 0
1, 83040, Note_on_c, 0, 69, 0
1, 83040, Note_on_c, 0, 74, 0
1, 83040, Note_on_c, 0, 71, 0
1, 83040, Note_on_c, 0, 65, 53
1, 83280, Tempo, 380711
1, 83280, Note_on_c, 0, 65, 0
1, 83280, Note_on_c, 0, 62, 47
1, 83520, Tempo, 374766
1, 83520, Note_on_c, 0, 62, 0
1, 83520, Note_on_c, 0, 76, 41
1, 83520, Note_on_c, 0, 72, 35
1, 83520, Note_on_c, 0, 69, 35
1, 83520, Note_on_c, 0, 65, 58
1, 83760, Note_on_c, 0, 65, 0
1, 83760, Note_on_c, 0, 76, 0
1, 83760, Note_on_c, 0, 72, 0
1, 83760, Note_on_c, 0, 69, 0
1, 83760, Note_on_c, 0, 62, 50
1, 84000, Note_on_c, 0, 62, 0
1, 84000, Note_on_c, 0, 65, 50
1, 84240, Tempo, 370142
1, 84240, Note_on_c, 0, 69, 37
1, 84240, Note_on_c, 0, 74, 44
1, 84240, Note_on_c, 0, 71, 37
1, 84360, Note_on_c, 0, 65, 0
1, 84360, Note_on_c, 0, 64, 47
1, 84420, Note_on_c, 0, 64, 0
1, 84420, Note_on_c, 0, 65, 47
1, 84480, Note_on_c, 0, 65, 0
1, 84480, Note_on_c, 0, 69, 0
1, 84480, Note_on_c, 0, 74, 0
1, 84480, Note_on_c, 0, 71, 0
1, 84480, Note_on_c, 0, 64, 59
1, 84720, Tempo, 380711
1, 84720, Note_on_c, 0, 64, 0
1, 84720, Note_on_c, 0, 60, 54
1, 84960, Tempo, 391901
1, 84960, Note_on_c, 0, 60, 0
1, 84960, Note_on_c, 0, 72, 47
1, 84960, Note_on_c, 0, 69, 40
1, 84960, Note_on_c, 0, 65, 40
1, 84960, Note_on_c, 0, 64, 58
1, 85080, Note_on_c, 0, 64, 0
1, 85200, Tempo, 374766
1, 85200, Note_on_c, 0, 72, 0
1, 85200, Note_on_c, 0, 69, 0
1, 85200, Note_on_c, 0, 65, 0
1, 85440, Note_on_c, 0, 62, 75
1, 85680, Tempo, 397088
1, 85680, Note_on_c, 0, 65, 42
1, 85680, Note_on_c, 0, 71, 50
1, 85680, Note_on_c, 0, 67, 42
1, 85920, Tempo, 383142
1, 85920, Note_on_c, 0, 67, 0
1, 85920, Note_on_c, 0, 62, 0
1, 85920, Note_on_c, 0, 65, 0
1, 85920, Note_on_c, 0, 71, 0
1, 85920, Note_on_c, 0, 48, 62
1, 85920, Note_on_c, 0, 60, 74
1, 86004, Note_on_c, 0, 60, 0
1, 86004, Note_on_c, 0, 48, 0
1, 86160, Tempo, 398406
1, 86160, Note_on_c, 0, 50, 56
1, 86160, Note_on_c, 0, 62, 66
1, 86244, Note_on_c, 0, 62, 0
1, 86244, Note_on_c, 0, 50, 0
1, 86400, Tempo, 379507
1, 86400, Note_on_c, 0, 72, 52
1, 86400, Note_on_c, 0, 69, 44
1, 86400, Note_on_c, 0, 65, 44
1, 86400, Note_on_c, 0, 52, 67
1, 86400, Note_on_c, 0, 64, 79
1, 86484, Note_on_c, 0, 64, 0
1, 86484, Note_on_c, 0, 52, 0
1, 86640, Note_on_c, 0, 72, 0
1, 86640, Note_on_c, 0, 69, 0
1, 86640, Note_on_c, 0, 65, 0
1, 86640, Note_on_c, 0, 48, 56
1, 86640, Note_on_c, 0, 60, 66
1, 86724, Note_on_c, 0, 60, 0
1, 86724, Note_on_c, 0, 48, 0
1, 86880, Note_on_c, 0, 52, 56
1, 86880, Note_on_c, 0, 64, 66
1, 87120, Tempo, 370142
1, 87120, Note_on_c, 0, 65, 44
1, 87120, Note_on_c, 0, 71, 52
1, 87120, Note_on_c, 0, 67, 44
1, 87360, Note_on_c, 0, 67, 0
1, 87360, Note_on_c, 0, 65, 0
1, 87360, Note_on_c, 0, 52, 0
1, 87360, Note_on_c, 0, 64, 0
1, 87360, Note_on_c, 0, 71, 0
1, 87360, Note_on_c, 0, 50, 62
1, 87360, Note_on_c, 0, 62, 74
1, 87444, Note_on_c, 0, 62, 0
1, 87444, Note_on_c, 0, 50, 0
1, 87600, Tempo, 380711
1, 87600, Note_on_c, 0, 47, 56
1, 87600, Note_on_c, 0, 59, 66
1, 87684, Note_on_c, 0, 59, 0
1, 87684, Note_on_c, 0, 47, 0
1, 87840, Tempo, 391901
1, 87840, Note_on_c, 0, 71, 52
1, 87840, Note_on_c, 0, 67, 44
1, 87840, Note_on_c, 0, 64, 44
1, 87840, Note_on_c, 0, 50, 59
1, 87840, Note_on_c, 0, 62, 70
1, 87960, Note_on_c, 0, 62, 0
1, 87960, Note_on_c, 0, 50, 0
1, 88080, Tempo, 374766
1, 88080, Note_on_c, 0, 71, 0
1, 88080, Note_on_c, 0, 67, 0
1, 88080, Note_on_c, 0, 64, 0
1, 88320, Note_on_c, 0, 48, 72
1, 88320, Note_on_c, 0, 60, 85
1, 88560, Note_on_c, 0, 64, 44
1, 88560, Note_on_c, 0, 69, 52
1, 88560, Note_on_c, 0, 65, 44
1, 88800, Tempo, 383142
1, 88800, Note_on_c, 0, 65, 0
1, 88800, Note_on_c, 0, 64, 0
1, 88800, Note_on_c, 0, 48, 0
1, 88800, Note_on_c, 0, 60, 0
1, 88800, Note_on_c, 0, 69, 0
1, 88800, Note_on_c, 0, 45, 62
1, 88800, Note_on_c, 0, 57, 74
1, 88884, Note_on_c, 0, 57, 0
1, 88884, Note_on_c, 0, 45, 0
1, 89040, Tempo, 398406
1, 89040, Note_on_c, 0, 47, 56
1, 89040, Note_on_c, 0, 59, 66
1, 89124, Note_on_c, 0, 59, 0
1, 89124, Note_on_c, 0, 47, 0
1, 89280, Tempo, 375940
1, 89280, Note_on_c, 0, 69, 52
1, 89280, Note_on_c, 0, 65, 44
1, 89280, Note_on_c, 0, 62, 44
1, 89280, Note_on_c, 0, 48, 67
1, 89280, Note_on_c, 0, 60, 79
1, 89364, Note_on_c, 0, 60, 0
1, 89364, Note_on_c, 0, 48, 0
1, 89520, Note_on_c, 0, 69, 0
1, 89520, Note_on_c, 0, 65, 0
1, 89520, Note_on_c, 0, 62, 0
1, 89520, Note_on_c, 0, 45, 56
1, 89520, Note_on_c, 0, 57, 66
1, 89604, Note_on_c, 0, 57, 0
1, 89604, Note_on_c, 0, 45, 0
1, 89760, Note_on_c, 0, 48, 56
1, 89760, Note_on_c, 0, 60, 66
1, 90000, Tempo, 370142
1, 90000, Note_on_c, 0, 62, 44
1, 90000, Note_on_c, 0, 67, 52
1, 90000, Note_on_c, 0, 64, 44
1, 90240, Note_on_c, 0, 64, 0
1, 90240, Note_on_c, 0, 62, 0
1, 90240, Note_on_c, 0, 48, 0
1, 90240, Note_on_c, 0, 60, 0
1, 90240, Note_on_c, 0, 67, 0
1, 90240, Note_on_c, 0, 47, 62
1, 90240, Note_on_c, 0, 59, 74
1, 90324, Note_on_c, 0, 59, 0
1, 90324, Note_on_c, 0, 47, 0
1, 90480, Tempo, 380711
1, 90480, Note_on_c, 0, 43, 56
1, 90480, Note_on_c, 0, 55, 66
1, 90564, Note_on_c, 0, 55, 0
1, 90564, Note_on_c, 0, 43, 0
1, 90720, Tempo, 391901
1, 90720, Note_on_c, 0, 67, 52
1, 90720, Note_on_c, 0, 64, 44
1, 90720, Note_on_c, 0, 60, 44
1, 90720, Note_on_c, 0, 47, 59
1, 90720, Note_on_c, 0, 59, 70
1, 90840, Note_on_c, 0, 59, 0
1, 90840, Note_on_c, 0, 47, 0
1, 90960, Tempo, 374766
1, 90960, Note_on_c, 0, 67, 0
1, 90960, Note_on_c, 0, 64, 0
1, 90960, Note_on_c, 0, 60, 0
1, 91200, Note_on_c, 0, 45, 69
1, 91200, Note_on_c, 0, 57, 82
1, 91440, Note_on_c, 0, 60, 44
1, 91440, Note_on_c, 0, 65, 52
1, 91440, Note_on_c, 0, 62, 44
1, 91680, Tempo, 383142
1, 91680, Note_on_c, 0, 62, 0
1, 91680, Note_on_c, 0, 60, 0
1, 91680, Note_on_c, 0, 45, 0
1, 91680, Note_on_c, 0, 57, 0
1, 91680, Note_on_c, 0, 65, 0
1, 91680, Note_on_c, 0, 41, 62
1, 91680, Note_on_c, 0, 53, 74
1, 91764, Note_on_c, 0, 53, 0
1, 91764, Note_on_c, 0, 41, 0
1, 91920, Tempo, 398406
1, 91920, Note_on_c, 0, 43, 56
1, 91920, Note_on_c, 0, 55, 66
1, 92004, Note_on_c, 0, 55, 0
1, 92004, Note_on_c, 0, 43, 0
1, 92160, Tempo, 375940
1, 92160, Note_on_c, 0, 65, 52
1, 92160, Note_on_c, 0, 62, 44
1, 92160, Note_on_c, 0, 59, 44
1, 92160, Note_on_c, 0, 45, 67
1, 92160, Note_on_c, 0, 57, 79
1, 92244, Note_on_c, 0, 57, 0
1, 92244, Note_on_c, 0, 45, 0
1, 92400, Note_on_c, 0, 65, 0
1, 92400, Note_on_c, 0, 62, 0
1, 92400, Note_on_c, 0, 59, 0
1, 92400, Note_on_c, 0, 41, 56
1, 92400, Note_on_c, 0, 53, 66
1, 92484, Note_on_c, 0, 53, 0
1, 92484, Note_on_c, 0, 41, 0
1, 92640, Note_on_c, 0, 45, 56
1, 92640, Note_on_c, 0, 57, 66
1, 92880, Tempo, 370142
1, 92880, Note_on_c, 0, 59, 44
1, 92880, Note_on_c, 0, 64, 52
1, 92880, Note_on_c, 0, 60, 44
1, 93120, Note_on_c, 0, 60, 0
1, 93120, Note_on_c, 0, 59, 0
1, 93120, Note_on_c, 0, 45, 0
1, 93120, Note_on_c, 0, 57, 0
1, 93120, Note_on_c, 0, 64, 0
1, 93120, Note_on_c, 0, 43, 62
1, 93120, Note_on_c, 0, 55, 74
1, 93204, Note_on_c, 0, 55, 0
1, 93204, Note_on_c, 0, 43, 0
1, 93360, Tempo, 380711
1, 93360, Note_on_c, 0, 40, 56
1, 93360, Note_on_c, 0, 52, 66
1, 93444, Note_on_c, 0, 52, 0
1, 93444, Note_on_c, 0, 40, 0
1, 93600, Tempo, 367872
1, 93600, Note_on_c, 0, 64, 52
1, 93600, Note_on_c, 0, 60, 44
1, 93600, Note_on_c, 0, 57, 44
1, 93600, Note_on_c, 0, 43, 67
1, 93600, Note_on_c, 0, 55, 79
1, 93684, Note_on_c, 0, 55, 0
1, 93684, Note_on_c, 0, 43, 0
1, 93840, Tempo, 377121
1, 93840, Note_on_c, 0, 64, 0
1, 93840, Note_on_c, 0, 60, 0
1, 93840, Note_on_c, 0, 57, 0
1, 93840, Note_on_c, 0, 40, 56
1, 93840, Note_on_c, 0, 52, 66
1, 93924, Note_on_c, 0, 52, 0
1, 93924, Note_on_c, 0, 40, 0
1, 94080, Note_on_c, 0, 43, 56
1, 94080, Note_on_c, 0, 55, 66
1, 94320, Tempo, 370142
1, 94320, Note_on_c, 0, 57, 44
1, 94320, Note_on_c, 0, 62, 52
1, 94320, Note_on_c, 0, 59, 44
1, 94560, Note_on_c, 0, 59, 0
1, 94560, Note_on_c, 0, 57, 0
1, 94560, Note_on_c, 0, 43, 0
1, 94560, Note_on_c, 0, 55, 0
1, 94560, Note_on_c, 0, 62, 0
1, 94560, Note_on_c, 0, 41, 62
1, 94560, Note_on_c, 0, 53, 74
1, 94644, Note_on_c, 0, 53, 0
1, 94644, Note_on_c, 0, 41, 0
1, 94800, Tempo, 380711
1, 94800, Note_on_c, 0, 38, 56
1, 94800, Note_on_c, 0, 50, 66
1, 94884, Note_on_c, 0, 50, 0
1, 94884, Note_on_c, 0, 38, 0
1, 95040, Tempo, 375940
1, 95040, Note_on_c, 0, 62, 52
1, 95040, Note_on_c, 0, 59, 44
1, 95040, Note_on_c, 0, 55, 44
1, 95040, Note_on_c, 0, 41, 67
1, 95040, Note_on_c, 0, 53, 79
1, 95124, Note_on_c, 0, 53, 0
1, 95124, Note_on_c, 0, 41, 0
1, 95280, Note_on_c, 0, 62, 0
1, 95280, Note_on_c, 0, 59, 0
1, 95280, Note_on_c, 0, 55, 0
1, 95280, Note_on_c, 0, 38, 56
1, 95280, Note_on_c, 0, 50, 66
1, 95364, Note_on_c, 0, 50, 0
1, 95364, Note_on_c, 0, 38, 0
1, 95520, Note_on_c, 0, 41, 56
1, 95520, Note_on_c, 0, 53, 66
1, 95760, Tempo, 370142
1, 95760, Note_on_c, 0, 55, 44
1, 95760, Note_on_c, 0, 60, 52
1, 95760, Note_on_c, 0, 57, 44
1, 96000, Note_on_c, 0, 57, 0
1, 96000, Note_on_c, 0, 55, 0
1, 96000, Note_on_c, 0, 41, 0
1, 96000, Note_on_c, 0, 53, 0
1, 96000, Note_on_c, 0, 60, 0
1, 96000, Note_on_c, 0, 40, 62
1, 96000, Note_on_c, 0, 52, 74
1, 96084, Note_on_c, 0, 52, 0
1, 96084, Note_on_c, 0, 40, 0
1, 96240, Tempo, 380711
1, 96240, Note_on_c, 0, 36, 56
1, 96240, Note_on_c, 0, 48, 66
1, 96324, Note_on_c, 0, 48, 0
1, 96324, Note_on_c, 0, 36, 0
1, 96480, Tempo, 391901
1, 96480, Note_on_c, 0, 64, 52
1, 96480, Note_on_c, 0, 60, 44
1, 96480, Note_on_c, 0, 57, 44
1, 96480, Note_on_c, 0, 40, 59
1, 96480, Note_on_c, 0, 52, 70
1, 96600, Note_on_c, 0, 52, 0
1, 96600, Note_on_c, 0, 40, 0
1, 96720, Tempo, 374766
1, 96720, Note_on_c, 0, 64, 0
1, 96720, Note_on_c, 0, 60, 0
1, 96720, Note_on_c, 0, 57, 0
1, 96960, Note_on_c, 0, 38, 72
1, 96960, Note_on_c, 0, 50, 85
1, 97200, Tempo, 391901
1, 97200, Note_on_c, 0, 57, 44
1, 97200, Note_on_c, 0, 62, 52
1, 97200, Note_on_c, 0, 59, 44
1, 97440, Tempo, 401070
1, 97440, Note_on_c, 0, 59, 0
1, 97440, Note_on_c, 0, 57, 0
1, 97440, Note_on_c, 0, 38, 0
1, 97440, Note_on_c, 0, 50, 0
1, 97440, Note_on_c, 0, 62, 0
1, 97440, Note_on_c, 0, 48, 68
1, 97440, Note_on_c, 0, 60, 81
1, 97524, Note_on_c, 0, 60, 0
1, 97524, Note_on_c, 0, 48, 0
1, 97680, Tempo, 409277
1, 97680, Note_on_c, 0, 49, 61
1, 97680, Note_on_c, 0, 61, 72
1, 97764, Note_on_c, 0, 61, 0
1, 97764, Note_on_c, 0, 49, 0
1, 97920, Tempo, 388098
1, 97920, Note_on_c, 0, 60, 73
1, 97920, Note_on_c, 0, 56, 73
1, 97920, Note_on_c, 0, 51, 73
1, 97920, Note_on_c, 0, 63, 86
1, 97920, Note_on_c, 0, 32, 49
1, 97920, Note_on_c, 0, 39, 49
1, 97920, Note_on_c, 0, 44, 62
1, 97980, Note_on_c, 0, 56, 0
1, 97980, Note_on_c, 0, 60, 0
1, 98004, Note_on_c, 0, 63, 0
1, 98004, Note_on_c, 0, 51, 0
1, 98160, Tempo, 375940
1, 98160, Note_on_c, 0, 44, 0
1, 98160, Note_on_c, 0, 32, 0
1, 98160, Note_on_c, 0, 39, 0
1, 98160, Note_on_c, 0, 48, 67
1, 98160, Note_on_c, 0, 60, 79
1, 98244, Note_on_c, 0, 60, 0
1, 98244, Note_on_c, 0, 48, 0
1, 98400, Note_on_c, 0, 51, 63
1, 98400, Note_on_c, 0, 63, 76
1, 98640, Tempo, 370142
1, 98640, Note_on_c, 0, 53, 61
1, 98640, Note_on_c, 0, 56, 61
1, 98640, Note_on_c, 0, 41, 55
1, 98640, Note_on_c, 0, 32, 44
1, 98640, Note_on_c, 0, 29, 44
1, 98880, Note_on_c, 0, 29, 0
1, 98880, Note_on_c, 0, 41, 0
1, 98880, Note_on_c, 0, 63, 0
1, 98880, Note_on_c, 0, 53, 0
1, 98880, Note_on_c, 0, 51, 0
1, 98880, Note_on_c, 0, 32, 0
1, 98880, Note_on_c, 0, 56, 0
1, 98880, Note_on_c, 0, 49, 68
1, 98880, Note_on_c, 0, 61, 81
1, 98964, Note_on_c, 0, 61, 0
1, 98964, Note_on_c, 0, 49, 0
1, 99120, Tempo, 380711
1, 99120, Note_on_c, 0, 48, 61
1, 99120, Note_on_c, 0, 60, 72
1, 99204, Note_on_c, 0, 60, 0
1, 99204, Note_on_c, 0, 48, 0
1, 99360, Tempo, 391901
1, 99360, Note_on_c, 0, 60, 64
1, 99360, Note_on_c, 0, 56, 64
1, 99360, Note_on_c, 0, 51, 64
1, 99360, Note_on_c, 0, 63, 77
1, 99360, Note_on_c, 0, 32, 49
1, 99360, Note_on_c, 0, 39, 49
1, 99360, Note_on_c, 0, 44, 62
1, 99480, Note_on_c, 0, 63, 0
1, 99480, Note_on_c, 0, 51, 0
1, 99480, Note_on_c, 0, 60, 0
1, 99480, Note_on_c, 0, 56, 0
1, 99600, Tempo, 374766
1, 99600, Note_on_c, 0, 44, 0
1, 99600, Note_on_c, 0, 32, 0
1, 99600, Note_on_c, 0, 39, 0
1, 99840, Note_on_c, 0, 51, 79
1, 99840, Note_on_c, 0, 63, 93
1, 100080, Note_on_c, 0, 53, 61
1, 100080, Note_on_c, 0, 56, 61
1, 100080, Note_on_c, 0, 41, 57
1, 100080, Note_on_c, 0, 32, 45
1, 100080, Note_on_c, 0, 29, 45
1, 100320, Tempo, 384369
1, 100320, Note_on_c, 0, 29, 0
1, 100320, Note_on_c, 0, 41, 0
1, 100320, Note_on_c, 0, 63, 0
1, 100320, Note_on_c, 0, 53, 0
1, 100320, Note_on_c, 0, 51, 0
1, 100320, Note_on_c, 0, 32, 0
1, 100320, Note_on_c, 0, 56, 0
1, 100320, Note_on_c, 0, 48, 68
1, 100320, Note_on_c, 0, 60, 81
1, 100404, Note_on_c, 0, 60, 0
1, 100404, Note_on_c, 0, 48, 0
1, 100560, Tempo, 394477
1, 100560, Note_on_c, 0, 49, 61
1, 100560, Note_on_c, 0, 61, 72
1, 100644, Note_on_c, 0, 61, 0
1, 100644, Note_on_c, 0, 49, 0
1, 100800, Tempo, 388098
1, 100800, Note_on_c, 0, 60, 73
1, 100800, Note_on_c, 0, 56, 73
1, 100800, Note_on_c, 0, 51, 73
1, 100800, Note_on_c, 0, 63, 86
1, 100800, Note_on_c, 0, 32, 49
1, 100800, Note_on_c, 0, 39, 49
1, 100800, Note_on_c, 0, 44, 62
1, 100860, Note_on_c, 0, 56, 0
1, 100860, Note_on_c, 0, 60, 0
1, 100884, Note_on_c, 0, 63, 0
1, 100884, Note_on_c, 0, 51, 0
1, 101040, Tempo, 375940
1, 101040, Note_on_c, 0, 44, 0
1, 101040, Note_on_c, 0, 32, 0
1, 101040, Note_on_c, 0, 39, 0
1, 101040, Note_on_c, 0, 48, 67
1, 101040, Note_on_c, 0, 60, 79
1, 101124, Note_on_c, 0, 60, 0
1, 101124, Note_on_c, 0, 48, 0
1, 101280, Note_on_c, 0, 51, 63
1, 101280, Note_on_c, 0, 63, 76
1, 101520, Tempo, 370142
1, 101520, Note_on_c, 0, 53, 61
1, 101520, Note_on_c, 0, 56, 61
1, 101520, Note_on_c, 0, 41, 55
1, 101520, Note_on_c, 0, 32, 44
1, 101520, Note_on_c, 0, 29, 44
1, 101760, Note_on_c, 0, 29, 0
1, 101760, Note_on_c, 0, 41, 0
1, 101760, Note_on_c, 0, 63, 0
1, 101760, Note_on_c, 0, 53, 0
1, 101760, Note_on_c, 0, 51, 0
1, 101760, Note_on_c, 0, 32, 0
1, 101760, Note_on_c, 0, 56, 0
1, 101760, Note_on_c, 0, 49, 68
1, 101760, Note_on_c, 0, 61, 81
1, 101844, Note_on_c, 0, 61, 0
1, 101844, Note_on_c, 0, 49, 0
1, 102000, Tempo, 380711
1, 102000, Note_on_c, 0, 48, 61
1, 102000, Note_on_c, 0, 60, 72
1, 102084, Note_on_c, 0, 60, 0
1, 102084, Note_on_c, 0, 48, 0
1, 102240, Tempo, 391901
1, 102240, Note_on_c, 0, 60, 64
1, 102240, Note_on_c, 0, 56, 64
1, 102240, Note_on_c, 0, 51, 64
1, 102240, Note_on_c, 0, 63, 77
1, 102240, Note_on_c, 0, 32, 49
1, 102240, Note_on_c, 0, 39, 49
1, 102240, Note_on_c, 0, 44, 62
1, 102360, Note_on_c, 0, 63, 0
1, 102360, Note_on_c, 0, 51, 0
1, 102360, Note_on_c, 0, 60, 0
1, 102360, Note_on_c, 0, 56, 0
1, 102480, Tempo, 374766
1, 102480, Note_on_c, 0, 44, 0
1, 102480, Note_on_c, 0, 32, 0
1, 102480, Note_on_c, 0, 39, 0
1, 102720, Note_on_c, 0, 51, 79
1, 102720, Note_on_c, 0, 63, 93
1, 102960, Tempo, 386847
1, 102960, Note_on_c, 0, 53, 61
1, 102960, Note_on_c, 0, 56, 61
1, 102960, Note_on_c, 0, 41, 57
1, 102960, Note_on_c, 0, 32, 45
1, 102960, Note_on_c, 0, 29, 45
1, 103200, Tempo, 401070
1, 103200, Note_on_c, 0, 29, 0
1, 103200, Note_on_c, 0, 41, 0
1, 103200, Note_on_c, 0, 63, 0
1, 103200, Note_on_c, 0, 53, 0
1, 103200, Note_on_c, 0, 51, 0
1, 103200, Note_on_c, 0, 32, 0
1, 103200, Note_on_c, 0, 56, 0
1, 103200, Note_on_c, 0, 48, 74
1, 103200, Note_on_c, 0, 60, 89
1, 103284, Note_on_c, 0, 60, 0
1, 103284, Note_on_c, 0, 48, 0
1, 103440, Tempo, 425230
1, 103440, Note_on_c, 0, 50, 67
1, 103440, Note_on_c, 0, 62, 79
1, 103524, Note_on_c, 0, 62, 0
1, 103524, Note_on_c, 0, 50, 0
1, 103680, Tempo, 388098
1, 103680, Note_on_c, 0, 60, 80
1, 103680, Note_on_c, 0, 55, 68
1, 103680, Note_on_c, 0, 52, 68
1, 103680, Note_on_c, 0, 64, 94
1, 103680, Note_on_c, 0, 36, 53
1, 103680, Note_on_c, 0, 43, 53
1, 103680, Note_on_c, 0, 48, 68
1, 103740, Note_on_c, 0, 55, 0
1, 103740, Note_on_c, 0, 60, 0
1, 103764, Note_on_c, 0, 64, 0
1, 103764, Note_on_c, 0, 52, 0
1, 103920, Tempo, 375940
1, 103920, Note_on_c, 0, 48, 0
1, 103920, Note_on_c, 0, 36, 0
1, 103920, Note_on_c, 0, 43, 0
1, 103920, Note_on_c, 0, 48, 73
1, 103920, Note_on_c, 0, 60, 86
1, 104004, Note_on_c, 0, 60, 0
1, 104004, Note_on_c, 0, 48, 0
1, 104160, Note_on_c, 0, 52, 69
1, 104160, Note_on_c, 0, 64, 83
1, 104400, Tempo, 370142
1, 104400, Note_on_c, 0, 53, 67
1, 104400, Note_on_c, 0, 57, 67
1, 104400, Note_on_c, 0, 41, 60
1, 104400, Note_on_c, 0, 36, 48
1, 104400, Note_on_c, 0, 29, 48
1, 104640, Note_on_c, 0, 29, 0
1, 104640, Note_on_c, 0, 41, 0
1, 104640, Note_on_c, 0, 64, 0
1, 104640, Note_on_c, 0, 53, 0
1, 104640, Note_on_c, 0, 52, 0
1, 104640, Note_on_c, 0, 36, 0
1, 104640, Note_on_c, 0, 57, 0
1, 104640, Note_on_c, 0, 50, 74
1, 104640, Note_on_c, 0, 62, 89
1, 104724, Note_on_c, 0, 62, 0
1, 104724, Note_on_c, 0, 50, 0
1, 104880, Tempo, 380711
1, 104880, Note_on_c, 0, 48, 67
1, 104880, Note_on_c, 0, 60, 79
1, 104964, Note_on_c, 0, 60, 0
1, 104964, Note_on_c, 0, 48, 0
1, 105120, Tempo, 405132
1, 105120, Note_on_c, 0, 60, 70
1, 105120, Note_on_c, 0, 55, 70
1, 105120, Note_on_c, 0, 52, 70
1, 105120, Note_on_c, 0, 64, 84
1, 105120, Note_on_c, 0, 36, 53
1, 105120, Note_on_c, 0, 43, 53
1, 105120, Note_on_c, 0, 48, 68
1, 105240, Note_on_c, 0, 64, 0
1, 105240, Note_on_c, 0, 52, 0
1, 105240, Note_on_c, 0, 60, 0
1, 105240, Note_on_c, 0, 55, 0
1, 105360, Tempo, 374766
1, 105360, Note_on_c, 0, 48, 0
1, 105360, Note_on_c, 0, 36, 0
1, 105360, Note_on_c, 0, 43, 0
1, 105600, Note_on_c, 0, 52, 83
1, 105600, Note_on_c, 0, 64, 98
1, 105840, Note_on_c, 0, 53, 67
1, 105840, Note_on_c, 0, 57, 67
1, 105840, Note_on_c, 0, 41, 62
1, 105840, Note_on_c, 0, 36, 49
1, 105840, Note_on_c, 0, 29, 49
1, 106080, Tempo, 384369
1, 106080, Note_on_c, 0, 29, 0
1, 106080, Note_on_c, 0, 41, 0
1, 106080, Note_on_c, 0, 64, 0
1, 106080, Note_on_c, 0, 53, 0
1, 106080, Note_on_c, 0, 52, 0
1, 106080, Note_on_c, 0, 36, 0
1, 106080, Note_on_c, 0, 57, 0
1, 106080, Note_on_c, 0, 48, 74
1, 106080, Note_on_c, 0, 60, 89
1, 106164, Note_on_c, 0, 60, 0
1, 106164, Note_on_c, 0, 48, 0
1, 106320, Tempo, 394477
1, 106320, Note_on_c, 0, 50, 67
1, 106320, Note_on_c, 0, 62, 79
1, 106404, Note_on_c, 0, 62, 0
1, 106404, Note_on_c, 0, 50, 0
1, 106560, Tempo, 388098
1, 106560, Note_on_c, 0, 60, 80
1, 106560, Note_on_c, 0, 55, 80
1, 106560, Note_on_c, 0, 52, 80
1, 106560, Note_on_c, 0, 64, 94
1, 106560, Note_on_c, 0, 36, 53
1, 106560, Note_on_c, 0, 43, 53
1, 106560, Note_on_c, 0, 48, 68
1, 106620, Note_on_c, 0, 55, 0
1, 106620, Note_on_c, 0, 60, 0
1, 106644, Note_on_c, 0, 64, 0
1, 106644, Note_on_c, 0, 52, 0
1, 106800, Tempo, 375940
1, 106800, Note_on_c, 0, 48, 0
1, 106800, Note_on_c, 0, 36, 0
1, 106800, Note_on_c, 0, 43, 0
1, 106800, Note_on_c, 0, 48, 73
1, 106800, Note_on_c, 0, 60, 86
1, 106884, Note_on_c, 0, 60, 0
1, 106884, Note_on_c, 0, 48, 0
1, 107040, Note_on_c, 0, 52, 69
1, 107040, Note_on_c, 0, 64, 83
1, 107280, Tempo, 370142
1, 107280, Note_on_c, 0, 53, 67
1, 107280, Note_on_c, 0, 57, 67
1, 107280, Note_on_c, 0, 41, 60
1, 107280, Note_on_c, 0, 36, 48
1, 107280, Note_on_c, 0, 29, 48
1, 107520, Note_on_c, 0, 29, 0
1, 107520, Note_on_c, 0, 41, 0
1, 107520, Note_on_c, 0, 64, 0
1, 107520, Note_on_c, 0, 53, 0
1, 107520, Note_on_c, 0, 52, 0
1, 107520, Note_on_c, 0, 36, 0
1, 107520, Note_on_c, 0, 57, 0
1, 107520, Note_on_c, 0, 50, 74
1, 107520, Note_on_c, 0, 62, 89
1, 107604, Note_on_c, 0, 62, 0
1, 107604, Note_on_c, 0, 50, 0
1, 107760, Tempo, 380711
1, 107760, Note_on_c, 0, 48, 67
1, 107760, Note_on_c, 0, 60, 79
1, 107844, Note_on_c, 0, 60, 0
1, 107844, Note_on_c, 0, 48, 0
1, 108000, Tempo, 406504
1, 108000, Note_on_c, 0, 60, 70
1, 108000, Note_on_c, 0, 55, 70
1, 108000, Note_on_c, 0, 52, 70
1, 108000, Note_on_c, 0, 64, 84
1, 108000, Note_on_c, 0, 36, 53
1, 108000, Note_on_c, 0, 43, 53
1, 108000, Note_on_c, 0, 48, 68
1, 108120, Note_on_c, 0, 64, 0
1, 108120, Note_on_c, 0, 52, 0
1, 108120, Note_on_c, 0, 60, 0
1, 108120, Note_on_c, 0, 55, 0
1, 108240, Tempo, 374766
1, 108240, Note_on_c, 0, 48, 0
1, 108240, Note_on_c, 0, 36, 0
1, 108240, Note_on_c, 0, 43, 0
1, 108480, Note_on_c, 0, 52, 83
1, 108480, Note_on_c, 0, 64, 98
1, 108720, Note_on_c, 0, 53, 67
1, 108720, Note_on_c, 0, 57, 67
1, 108720, Note_on_c, 0, 41, 62
1, 108720, Note_on_c, 0, 36, 49
1, 108720, Note_on_c, 0, 29, 49
1, 108960, Note_on_c, 0, 29, 0
1, 108960, Note_on_c, 0, 41, 0
1, 108960, Note_on_c, 0, 64, 0
1, 108960, Note_on_c, 0, 53, 0
1, 108960, Note_on_c, 0, 52, 0
1, 108960, Note_on_c, 0, 36, 0
1, 108960, Note_on_c, 0, 57, 0
1, 108960, Note_on_c, 0, 48, 70
1, 108967, Note_on_c, 0, 60, 70
1, 109020, Note_on_c, 0, 48, 0
1, 109027, Note_on_c, 0, 60, 0
1, 109200, Tempo, 406504
1, 109200, Note_on_c, 0, 50, 70
1, 109200, Note_on_c, 0, 62, 70
1, 109260, Note_on_c, 0, 62, 0
1, 109260, Note_on_c, 0, 50, 0
1, 109440, Tempo, 406504
1, 109440, Note_on_c, 0, 36, 45
1, 109440, Note_on_c, 0, 43, 45
1, 109440, Note_on_c, 0, 48, 57
1, 109680, Tempo, 374766
1, 109680, Note_on_c, 0, 48, 0
1, 109680, Note_on_c, 0, 43, 0
1, 109680, Note_on_c, 0, 36, 0
1, 109920, Tempo, 375940
1, 110160, Tempo, 370142
1, 110160, Note_on_c, 0, 41, 52
1, 110160, Note_on_c, 0, 36, 41
1, 110160, Note_on_c, 0, 29, 41
1, 110400, Note_on_c, 0, 29, 0
1, 110400, Note_on_c, 0, 36, 0
1, 110400, Note_on_c, 0, 41, 0
1, 110640, Tempo, 380711
1, 110880, Tempo, 406504
1, 110880, Note_on_c, 0, 36, 37
1, 110880, Note_on_c, 0, 43, 37
1, 110880, Note_on_c, 0, 48, 47
1, 111120, Tempo, 374766
1, 111120, Note_on_c, 0, 48, 0
1, 111120, Note_on_c, 0, 43, 0
1, 111120, Note_on_c, 0, 36, 0
1, 111360, Tempo, 375940
1, 111360, Note_on_c, 0, 52, 58
1, 111600, Tempo, 370142
1, 111600, Note_on_c, 0, 41, 43
1, 111600, Note_on_c, 0, 36, 34
1, 111600, Note_on_c, 0, 29, 34
1, 111840, Tempo, 383142
1, 111840, Note_on_c, 0, 29, 0
1, 111840, Note_on_c, 0, 52, 0
1, 111840, Note_on_c, 0, 41, 0
1, 111840, Note_on_c, 0, 36, 0
1, 111840, Note_on_c, 0, 48, 62
1, 111924, Note_on_c, 0, 48, 0
1, 112080, Tempo, 399734
1, 112080, Note_on_c, 0, 50, 55
1, 112164, Note_on_c, 0, 50, 0
1, 112320, Tempo, 420757
1, 112320, Note_on_c, 0, 36, 26
1, 112320, Note_on_c, 0, 43, 26
1, 112320, Note_on_c, 0, 48, 34
1, 112560, Tempo, 409277
1, 112560, Note_on_c, 0, 48, 0
1, 112560, Note_on_c, 0, 43, 0
1, 112560, Note_on_c, 0, 36, 0
1, 113040, Note_on_c, 0, 41, 31
1, 113040, Note_on_c, 0, 36, 24
1, 113040, Note_on_c, 0, 29, 24
1, 113280, Note_on_c, 0, 29, 0
1, 113280, Note_on_c, 0, 36, 0
1, 113280, Note_on_c, 0, 41, 0
1, 113760, Tempo, 383142
1, 113760, Note_on_c, 0, 36, 40
1, 113760, Note_on_c, 0, 48, 35
1, 114480, Tempo, 374766
1, 114480, Note_on_c, 0, 48, 0
1, 114480, Note_on_c, 0, 47, 32
1, 114720, Note_on_c, 0, 60, 40
1, 114960, Note_on_c, 0, 60, 0
1, 114960, Note_on_c, 0, 62, 37
1, 115200, Note_on_c, 0, 62, 0
1, 115200, Note_on_c, 0, 47, 0
1, 115200, Note_on_c, 0, 53, 34
1, 115200, Note_on_c, 0, 64, 45
1, 115200, Note_on_c, 0, 45, 33
1, 115440, Note_on_c, 0, 64, 0
1, 115440, Note_on_c, 0, 60, 38
1, 115680, Note_on_c, 0, 60, 0
1, 115680, Note_on_c, 0, 64, 38
1, 115920, Tempo, 370142
1, 115920, Note_on_c, 0, 45, 0
1, 115920, Note_on_c, 0, 53, 0
1, 115920, Note_on_c, 0, 55, 34
1, 115920, Note_on_c, 0, 47, 27
1, 116040, Note_on_c, 0, 64, 0
1, 116040, Note_on_c, 0, 62, 34
1, 116100, Note_on_c, 0, 62, 0
1, 116100, Note_on_c, 0, 64, 34
1, 116160, Note_on_c, 0, 64, 0
1, 116160, Note_on_c, 0, 62, 43
1, 116400, Tempo, 380711
1, 116400, Note_on_c, 0, 62, 0
1, 116400, Note_on_c, 0, 59, 42
1, 116640, Tempo, 391901
1, 116640, Note_on_c, 0, 59, 0
1, 116640, Note_on_c, 0, 36, 0
1, 116640, Note_on_c, 0, 55, 0
1, 116640, Note_on_c, 0, 47, 0
1, 116640, Note_on_c, 0, 60, 47
1, 116640, Note_on_c, 0, 36, 40
1, 116640, Note_on_c, 0, 48, 31
1, 116760, Note_on_c, 0, 60, 0
1, 116880, Tempo, 374766
1, 117120, Note_on_c, 0, 60, 49
1, 117360, Note_on_c, 0, 48, 0
1, 117360, Note_on_c, 0, 47, 27
1, 117540, Note_on_c, 0, 60, 0
1, 117600, Tempo, 374766
1, 117600, Note_on_c, 0, 60, 40
1, 117840, Note_on_c, 0, 60, 0
1, 117840, Note_on_c, 0, 62, 37
1, 118080, Note_on_c, 0, 62, 0
1, 118080, Note_on_c, 0, 47, 0
1, 118080, Note_on_c, 0, 53, 34
1, 118080, Note_on_c, 0, 64, 45
1, 118080, Note_on_c, 0, 45, 33
1, 118320, Note_on_c, 0, 64, 0
1, 118320, Note_on_c, 0, 60, 38
1, 118560, Note_on_c, 0, 60, 0
1, 118560, Note_on_c, 0, 64, 38
1, 118800, Tempo, 370142
1, 118800, Note_on_c, 0, 45, 0
1, 118800, Note_on_c, 0, 53, 0
1, 118800, Note_on_c, 0, 55, 34
1, 118800, Note_on_c, 0, 47, 27
1, 118920, Note_on_c, 0, 64, 0
1, 118920, Note_on_c, 0, 62, 34
1, 118980, Note_on_c, 0, 62, 0
1, 118980, Note_on_c, 0, 64, 34
1, 119040, Note_on_c, 0, 64, 0
1, 119040, Note_on_c, 0, 62, 43
1, 119280, Tempo, 380711
1, 119280, Note_on_c, 0, 62, 0
1, 119280, Note_on_c, 0, 59, 42
1, 119520, Tempo, 391901
1, 119520, Note_on_c, 0, 59, 0
1, 119520, Note_on_c, 0, 36, 0
1, 119520, Note_on_c, 0, 55, 0
1, 119520, Note_on_c, 0, 47, 0
1, 119520, Note_on_c, 0, 60, 47
1, 119520, Note_on_c, 0, 36, 40
1, 119520, Note_on_c, 0, 48, 31
1, 119640, Note_on_c, 0, 60, 0
1, 119760, Tempo, 374766
1, 120000, Note_on_c, 0, 60, 49
1, 120480, Tempo, 374766
1, 120480, Note_on_c, 0, 60, 0
1, 120480, Note_on_c, 0, 48, 0
1, 120480, Note_on_c, 0, 36, 0
1, 120480, Note_on_c, 0, 62, 79
1, 120480, Control_c, 0, 64, 0
1, 120600, Note_on_c, 0, 62, 0
1, 120720, Note_on_c, 0, 64, 73
1, 120840, Note_on_c, 0, 64, 0
1, 120960, Tempo, 369004
1, 120960, Note_on_c, 0, 68, 73
1, 120960, Note_on_c, 0, 71, 75
1, 120960, Note_on_c, 0, 65, 89
1, 121080, Note_on_c, 0, 65, 0
1, 121200, Note_on_c, 0, 62, 74
1, 121320, Note_on_c, 0, 62, 0
1, 121440, Tempo, 379507
1, 121440, Note_on_c, 0, 65, 74
1, 121680, Tempo, 370142
1, 121680, Note_on_c, 0, 71, 0
1, 121680, Note_on_c, 0, 68, 0
1, 121680, Note_on_c, 0, 69, 62
1, 121680, Note_on_c, 0, 72, 75
1, 121800, Note_on_c, 0, 65, 0
1, 121800, Note_on_c, 0, 64, 67
1, 121860, Note_on_c, 0, 64, 0
1, 121860, Note_on_c, 0, 65, 67
1, 121920, Note_on_c, 0, 65, 0
1, 121920, Note_on_c, 0, 64, 84
1, 122040, Note_on_c, 0, 64, 0
1, 122160, Tempo, 380711
1, 122160, Note_on_c, 0, 63, 74
1, 122280, Note_on_c, 0, 63, 0
1, 122400, Tempo, 391901
1, 122400, Note_on_c, 0, 72, 0
1, 122400, Note_on_c, 0, 69, 0
1, 122400, Note_on_c, 0, 68, 72
1, 122400, Note_on_c, 0, 71, 75
1, 122400, Note_on_c, 0, 64, 74
1, 122520, Note_on_c, 0, 71, 0
1, 122520, Note_on_c, 0, 68, 0
1, 122812, Control_c, 0, 64, 127
1, 122880, Tempo, 379507
1, 122880, Note_on_c, 0, 68, 48
1, 122880, Note_on_c, 0, 71, 75
1, 123120, Note_on_c, 0, 64, 0
1, 123120, Note_on_c, 0, 59, 54
1, 123120, Note_on_c, 0, 52, 50
1, 123360, Tempo, 374766
1, 123360, Note_on_c, 0, 52, 0
1, 123360, Note_on_c, 0, 68, 0
1, 123360, Note_on_c, 0, 71, 0
1, 123360, Note_on_c, 0, 59, 0
1, 123360, Note_on_c, 0, 71, 40
1, 123366, Control_c, 0, 64, 0
1, 123600, Note_on_c, 0, 71, 0
1, 123600, Note_on_c, 0, 73, 37
1, 123840, Note_on_c, 0, 73, 0
1, 123840, Note_on_c, 0, 64, 34
1, 123840, Note_on_c, 0, 75, 45
1, 123840, Note_on_c, 0, 47, 28
1, 123840, Note_on_c, 0, 56, 33
1, 124080, Note_on_c, 0, 75, 0
1, 124080, Note_on_c, 0, 71, 38
1, 124320, Note_on_c, 0, 71, 0
1, 124320, Note_on_c, 0, 75, 38
1, 124560, Tempo, 370142
1, 124560, Note_on_c, 0, 56, 0
1, 124560, Note_on_c, 0, 64, 0
1, 124560, Note_on_c, 0, 63, 34
1, 124560, Note_on_c, 0, 57, 27
1, 124680, Note_on_c, 0, 75, 0
1, 124680, Note_on_c, 0, 73, 34
1, 124740, Note_on_c, 0, 73, 0
1, 124740, Note_on_c, 0, 75, 34
1, 124800, Note_on_c, 0, 75, 0
1, 124800, Note_on_c, 0, 73, 43
1, 125040, Tempo, 380711
1, 125040, Note_on_c, 0, 73, 0
1, 125040, Note_on_c, 0, 69, 38
1, 125280, Tempo, 391901
1, 125280, Note_on_c, 0, 69, 0
1, 125280, Note_on_c, 0, 47, 0
1, 125280, Note_on_c, 0, 63, 0
1, 125280, Note_on_c, 0, 57, 0
1, 125280, Note_on_c, 0, 64, 27
1, 125280, Note_on_c, 0, 68, 27
1, 125280, Note_on_c, 0, 71, 34
1, 125280, Note_on_c, 0, 52, 22
1, 125280, Note_on_c, 0, 59, 26
1, 125400, Note_on_c, 0, 71, 0
1, 125400, Note_on_c, 0, 64, 0
1, 125400, Note_on_c, 0, 68, 0
1, 125520, Tempo, 374766
1, 125606, Control_c, 0, 64, 127
1, 125760, Note_on_c, 0, 64, 33
1, 125760, Note_on_c, 0, 68, 33
1, 125760, Note_on_c, 0, 71, 41
1, 126000, Note_on_c, 0, 52, 0
1, 126000, Note_on_c, 0, 59, 0
1, 126000, Note_on_c, 0, 40, 22
1, 126000, Note_on_c, 0, 47, 26
1, 126240, Tempo, 371287
1, 126240, Note_on_c, 0, 47, 0
1, 126240, Note_on_c, 0, 68, 0
1, 126240, Note_on_c, 0, 71, 0
1, 126240, Note_on_c, 0, 64, 0
1, 126240, Note_on_c, 0, 40, 0
1, 126240, Note_on_c, 0, 65, 79
1, 126240, Control_c, 0, 64, 0
1, 126240, Control_c, 0, 64, 0
1, 126360, Note_on_c, 0, 65, 0
1, 126480, Tempo, 365631
1, 126480, Note_on_c, 0, 67, 73
1, 126600, Note_on_c, 0, 67, 0
1, 126720, Tempo, 369004
1, 126720, Note_on_c, 0, 71, 73
1, 126720, Note_on_c, 0, 74, 75
1, 126720, Note_on_c, 0, 68, 89
1, 126840, Note_on_c, 0, 68, 0
1, 126960, Note_on_c, 0, 65, 74
1, 127080, Note_on_c, 0, 65, 0
1, 127200, Tempo, 385604
1, 127200, Note_on_c, 0, 68, 74
1, 127440, Tempo, 370142
1, 127440, Note_on_c, 0, 74, 0
1, 127440, Note_on_c, 0, 71, 0
1, 127440, Note_on_c, 0, 72, 62
1, 127440, Note_on_c, 0, 75, 75
1, 127560, Note_on_c, 0, 68, 0
1, 127560, Note_on_c, 0, 67, 67
1, 127620, Note_on_c, 0, 67, 0
1, 127620, Note_on_c, 0, 68, 67
1, 127680, Note_on_c, 0, 68, 0
1, 127680, Note_on_c, 0, 67, 84
1, 127800, Note_on_c, 0, 67, 0
1, 127920, Tempo, 380711
1, 127920, Note_on_c, 0, 66, 74
1, 128040, Note_on_c, 0, 66, 0
1, 128160, Tempo, 391901
1, 128160, Note_on_c, 0, 75, 0
1, 128160, Note_on_c, 0, 72, 0
1, 128160, Note_on_c, 0, 71, 72
1, 128160, Note_on_c, 0, 74, 75
1, 128160, Note_on_c, 0, 67, 74
1, 128280, Note_on_c, 0, 74, 0
1, 128280, Note_on_c, 0, 71, 0
1, 128572, Control_c, 0, 64, 127
1, 128640, Tempo, 379507
1, 128640, Note_on_c, 0, 71, 48
1, 128640, Note_on_c, 0, 74, 75
1, 128880, Note_on_c, 0, 67, 0
1, 128880, Note_on_c, 0, 62, 54
1, 128880, Note_on_c, 0, 55, 50
1, 129120, Tempo, 374766
1, 129120, Note_on_c, 0, 55, 0
1, 129120, Note_on_c, 0, 71, 0
1, 129120, Note_on_c, 0, 74, 0
1, 129120, Note_on_c, 0, 62, 0
1, 129120, Note_on_c, 0, 74, 40
1, 129126, Control_c, 0, 64, 0
1, 129360, Note_on_c, 0, 74, 0
1, 129360, Note_on_c, 0, 76, 37
1, 129600, Note_on_c, 0, 76, 0
1, 129600, Note_on_c, 0, 67, 34
1, 129600, Note_on_c, 0, 78, 45
1, 129600, Note_on_c, 0, 50, 28
1, 129600, Note_on_c, 0, 59, 33
1, 129840, Note_on_c, 0, 78, 0
1, 129840, Note_on_c, 0, 74, 38
1, 130080, Note_on_c, 0, 74, 0
1, 130080, Note_on_c, 0, 78, 38
1, 130320, Tempo, 370142
1, 130320, Note_on_c, 0, 59, 0
1, 130320, Note_on_c, 0, 67, 0
1, 130320, Note_on_c, 0, 66, 34
1, 130320, Note_on_c, 0, 60, 27
1, 130440, Note_on_c, 0, 78, 0
1, 130440, Note_on_c, 0, 76, 34
1, 130500, Note_on_c, 0, 76, 0
1, 130500, Note_on_c, 0, 78, 34
1, 130560, Note_on_c, 0, 78, 0
1, 130560, Note_on_c, 0, 76, 43
1, 130800, Tempo, 380711
1, 130800, Note_on_c, 0, 76, 0
1, 130800, Note_on_c, 0, 72, 38
1, 131040, Tempo, 391901
1, 131040, Note_on_c, 0, 72, 0
1, 131040, Note_on_c, 0, 50, 0
1, 131040, Note_on_c, 0, 66, 0
1, 131040, Note_on_c, 0, 60, 0
1, 131040, Note_on_c, 0, 67, 27
1, 131040, Note_on_c, 0, 71, 27
1, 131040, Note_on_c, 0, 74, 34
1, 131040, Note_on_c, 0, 55, 22
1, 131040, Note_on_c, 0, 62, 26
1, 131160, Note_on_c, 0, 74, 0
1, 131160, Note_on_c, 0, 67, 0
1, 131160, Note_on_c, 0, 71, 0
1, 131280, Tempo, 374766
1, 131366, Control_c, 0, 64, 127
1, 131520, Note_on_c, 0, 67, 33
1, 131520, Note_on_c, 0, 71, 33
1, 131520, Note_on_c, 0, 74, 41
1, 131760, Tempo, 385604
1, 131760, Note_on_c, 0, 55, 0
1, 131760, Note_on_c, 0, 62, 0
1, 131760, Note_on_c, 0, 43, 22
1, 131760, Note_on_c, 0, 50, 26
1, 132000, Tempo, 362319
1, 132000, Note_on_c, 0, 71, 0
1, 132000, Note_on_c, 0, 74, 0
1, 132000, Note_on_c, 0, 67, 0
1, 132000, Note_on_c, 0, 74, 43
1, 132020, Control_c, 0, 64, 0
1, 132120, Note_on_c, 0, 74, 0
1, 132120, Note_on_c, 0, 76, 43
1, 132240, Note_on_c, 0, 76, 0
1, 132240, Note_on_c, 0, 43, 0
1, 132240, Note_on_c, 0, 50, 0
1, 132240, Note_on_c, 0, 69, 30
1, 132240, Note_on_c, 0, 72, 30
1, 132240, Note_on_c, 0, 78, 38
1, 132254, Tempo, 380711
1, 132480, Note_on_c, 0, 78, 0
1, 132480, Note_on_c, 0, 72, 0
1, 132480, Note_on_c, 0, 69, 0
1, 132494, Tempo, 391901
1, 132494, Note_on_c, 0, 67, 27
1, 132494, Note_on_c, 0, 71, 27
1, 132494, Note_on_c, 0, 74, 34
1, 132494, Note_on_c, 0, 55, 22
1, 132494, Note_on_c, 0, 62, 26
1, 132614, Note_on_c, 0, 74, 0
1, 132614, Note_on_c, 0, 67, 0
1, 132614, Note_on_c, 0, 71, 0
1, 132734, Tempo, 374766
1, 132820, Control_c, 0, 64, 127
1, 132960, Note_on_c, 0, 74, 41
1, 132960, Note_on_c, 0, 67, 33
1, 132960, Note_on_c, 0, 71, 33
1, 133214, Note_on_c, 0, 55, 0
1, 133214, Note_on_c, 0, 62, 0
1, 133214, Note_on_c, 0, 43, 22
1, 133214, Note_on_c, 0, 50, 26
1, 133440, Tempo, 362319
1, 133440, Note_on_c, 0, 67, 0
1, 133440, Note_on_c, 0, 71, 0
1, 133440, Note_on_c, 0, 74, 0
1, 133440, Note_on_c, 0, 74, 43
1, 133460, Control_c, 0, 64, 0
1, 133560, Note_on_c, 0, 74, 0
1, 133560, Note_on_c, 0, 76, 43
1, 133680, Note_on_c, 0, 76, 0
1, 133680, Note_on_c, 0, 69, 30
1, 133680, Note_on_c, 0, 72, 30
1, 133680, Note_on_c, 0, 77, 38
1, 133694, Tempo, 380711
1, 133694, Note_on_c, 0, 43, 0
1, 133694, Note_on_c, 0, 50, 0
1, 133920, Tempo, 381922
1, 133920, Note_on_c, 0, 72, 0
1, 133920, Note_on_c, 0, 69, 0
1, 133920, Note_on_c, 0, 77, 0
1, 133934, Note_on_c, 0, 55, 22
1, 133934, Note_on_c, 0, 62, 26
1, 134040, Control_c, 0, 64, 127
1, 134160, Tempo, 362319
1, 134160, Note_on_c, 0, 74, 43
1, 134280, Note_on_c, 0, 74, 0
1, 134280, Note_on_c, 0, 76, 43
1, 134400, Note_on_c, 0, 76, 0
1, 134400, Note_on_c, 0, 69, 30
1, 134400, Note_on_c, 0, 72, 30
1, 134400, Note_on_c, 0, 78, 38
1, 134407, Control_c, 0, 64, 0
1, 134414, Tempo, 380711
1, 134414, Note_on_c, 0, 62, 0
1, 134414, Note_on_c, 0, 55, 0
1, 134480, Control_c, 0, 64, 127
1, 134520, Note_on_c, 0, 72, 0
1, 134520, Note_on_c, 0, 69, 0
1, 134520, Note_on_c, 0, 78, 0
1, 134654, Note_on_c, 0, 43, 22
1, 134654, Note_on_c, 0, 50, 26
1, 134657, Control_c, 0, 64, 0
1, 134732, Control_c, 0, 64, 127
1, 134880, Tempo, 362319
1, 134880, Note_on_c, 0, 74, 43
1, 135000, Note_on_c, 0, 74, 0
1, 135000, Note_on_c, 0, 76, 43
1, 135120, Note_on_c, 0, 76, 0
1, 135120, Note_on_c, 0, 69, 30
1, 135120, Note_on_c, 0, 72, 30
1, 135120, Note_on_c, 0, 77, 38
1, 135134, Tempo, 380711
1, 135134, Note_on_c, 0, 50, 0
1, 135134, Note_on_c, 0, 43, 0
1, 135138, Control_c, 0, 64, 0
1, 135200, Control_c, 0, 64, 127
1, 135240, Note_on_c, 0, 72, 0
1, 135240, Note_on_c, 0, 69, 0
1, 135240, Note_on_c, 0, 77, 0
1, 135360, Tempo, 381922
1, 135374, Note_on_c, 0, 55, 22
1, 135374, Note_on_c, 0, 62, 26
1, 135382, Control_c, 0, 64, 0
1, 135480, Control_c, 0, 64, 127
1, 135600, Tempo, 362319
1, 135600, Note_on_c, 0, 74, 43
1, 135720, Note_on_c, 0, 74, 0
1, 135720, Note_on_c, 0, 76, 43
1, 135840, Tempo, 370142
1, 135840, Note_on_c, 0, 76, 0
1, 135840, Note_on_c, 0, 69, 30
1, 135840, Note_on_c, 0, 72, 30
1, 135840, Note_on_c, 0, 78, 38
1, 135847, Control_c, 0, 64, 0
1, 135854, Note_on_c, 0, 62, 0
1, 135854, Note_on_c, 0, 55, 0
1, 135920, Control_c, 0, 64, 127
1, 135960, Note_on_c, 0, 72, 0
1, 135960, Note_on_c, 0, 69, 0
1, 135960, Note_on_c, 0, 78, 0
1, 136094, Note_on_c, 0, 43, 22
1, 136094, Note_on_c, 0, 50, 26
1, 136097, Control_c, 0, 64, 0
1, 136172, Control_c, 0, 64, 127
1, 136320, Tempo, 362319
1, 136320, Note_on_c, 0, 74, 43
1, 136440, Note_on_c, 0, 74, 0
1, 136440, Note_on_c, 0, 76, 43
1, 136560, Note_on_c, 0, 76, 0
1, 136560, Note_on_c, 0, 69, 30
1, 136560, Note_on_c, 0, 72, 30
1, 136560, Note_on_c, 0, 77, 38
1, 136574, Tempo, 380711
1, 136574, Note_on_c, 0, 50, 0
1, 136574, Note_on_c, 0, 43, 0
1, 136578, Control_c, 0, 64, 0
1, 136640, Control_c, 0, 64, 127
1, 136680, Note_on_c, 0, 72, 0
1, 136680, Note_on_c, 0, 69, 0
1, 136680, Note_on_c, 0, 77, 0
1, 136800, Tempo, 381922
1, 136812, Control_c, 0, 64, 0
1, 136814, Note_on_c, 0, 55, 22
1, 136814, Note_on_c, 0, 62, 26
1, 136920, Control_c, 0, 64, 127
1, 137040, Tempo, 362319
1, 137040, Note_on_c, 0, 77, 43
1, 137160, Note_on_c, 0, 77, 0
1, 137160, Note_on_c, 0, 79, 43
1, 137280, Tempo, 367872
1, 137280, Note_on_c, 0, 79, 0
1, 137280, Note_on_c, 0, 72, 30
1, 137280, Note_on_c, 0, 74, 30
1, 137280, Note_on_c, 0, 81, 38
1, 137287, Control_c, 0, 64, 0
1, 137294, Note_on_c, 0, 62, 0
1, 137294, Note_on_c, 0, 55, 0
1, 137360, Control_c, 0, 64, 127
1, 137400, Note_on_c, 0, 74, 0
1, 137400, Note_on_c, 0, 72, 0
1, 137400, Note_on_c, 0, 81, 0
1, 137534, Note_on_c, 0, 43, 22
1, 137534, Note_on_c, 0, 50, 26
1, 137537, Control_c, 0, 64, 0
1, 137612, Control_c, 0, 64, 127
1, 137760, Tempo, 362319
1, 137760, Note_on_c, 0, 77, 43
1, 137880, Note_on_c, 0, 77, 0
1, 137880, Note_on_c, 0, 79, 43
1, 138000, Note_on_c, 0, 79, 0
1, 138000, Note_on_c, 0, 71, 30
1, 138000, Note_on_c, 0, 74, 30
1, 138000, Note_on_c, 0, 81, 38
1, 138014, Tempo, 380711
1, 138014, Note_on_c, 0, 50, 0
1, 138014, Note_on_c, 0, 43, 0
1, 138018, Control_c, 0, 64, 0
1, 138080, Control_c, 0, 64, 127
1, 138120, Note_on_c, 0, 74, 0
1, 138120, Note_on_c, 0, 71, 0
1, 138120, Note_on_c, 0, 81, 0
1, 138240, Tempo, 381922
1, 138240, Note_on_c, 0, 55, 26
1, 138240, Note_on_c, 0, 48, 22
1, 138252, Control_c, 0, 64, 0
1, 138360, Control_c, 0, 64, 127
1, 138480, Tempo, 362319
1, 138480, Note_on_c, 0, 76, 43
1, 138600, Note_on_c, 0, 76, 0
1, 138600, Note_on_c, 0, 77, 43
1, 138720, Tempo, 369004
1, 138720, Note_on_c, 0, 77, 0
1, 138720, Note_on_c, 0, 48, 0
1, 138720, Note_on_c, 0, 55, 0
1, 138720, Note_on_c, 0, 71, 30
1, 138720, Note_on_c, 0, 72, 30
1, 138720, Note_on_c, 0, 79, 38
1, 138727, Control_c, 0, 64, 0
1, 138800, Control_c, 0, 64, 127
1, 138840, Note_on_c, 0, 79, 0
1, 138840, Note_on_c, 0, 72, 0
1, 138840, Note_on_c, 0, 71, 0
1, 138960, Note_on_c, 0, 43, 26
1, 138960, Note_on_c, 0, 36, 22
1, 138977, Control_c, 0, 64, 0
1, 139052, Control_c, 0, 64, 127
1, 139200, Tempo, 362319
1, 139200, Note_on_c, 0, 76, 43
1, 139320, Note_on_c, 0, 76, 0
1, 139320, Note_on_c, 0, 77, 43
1, 139440, Note_on_c, 0, 77, 0
1, 139440, Note_on_c, 0, 36, 0
1, 139440, Note_on_c, 0, 43, 0
1, 139440, Note_on_c, 0, 71, 29
1, 139440, Note_on_c, 0, 72, 29
1, 139440, Note_on_c, 0, 79, 37
1, 139454, Tempo, 380711
1, 139458, Control_c, 0, 64, 0
1, 139520, Control_c, 0, 64, 127
1, 139560, Note_on_c, 0, 79, 0
1, 139560, Note_on_c, 0, 72, 0
1, 139560, Note_on_c, 0, 71, 0
1, 139680, Tempo, 381922
1, 139680, Note_on_c, 0, 60, 25
1, 139680, Note_on_c, 0, 53, 21
1, 139696, Control_c, 0, 64, 0
1, 139800, Control_c, 0, 64, 127
1, 139920, Tempo, 362319
1, 139920, Note_on_c, 0, 76, 41
1, 140040, Note_on_c, 0, 76, 0
1, 140040, Note_on_c, 0, 77, 41
1, 140160, Tempo, 370142
1, 140160, Note_on_c, 0, 77, 0
1, 140160, Note_on_c, 0, 53, 0
1, 140160, Note_on_c, 0, 60, 0
1, 140160, Note_on_c, 0, 69, 28
1, 140160, Note_on_c, 0, 72, 28
1, 140160, Note_on_c, 0, 79, 36
1, 140167, Control_c, 0, 64, 0
1, 140240, Control_c, 0, 64, 127
1, 140280, Note_on_c, 0, 79, 0
1, 140280, Note_on_c, 0, 72, 0
1, 140280, Note_on_c, 0, 69, 0
1, 140400, Note_on_c, 0, 48, 24
1, 140400, Note_on_c, 0, 41, 20
1, 140417, Control_c, 0, 64, 0
1, 140492, Control_c, 0, 64, 127
1, 140640, Tempo, 362319
1, 140640, Note_on_c, 0, 76, 39
1, 140760, Note_on_c, 0, 76, 0
1, 140760, Note_on_c, 0, 77, 39
1, 140880, Tempo, 390625
1, 140880, Note_on_c, 0, 77, 0
1, 140880, Note_on_c, 0, 41, 0
1, 140880, Note_on_c, 0, 48, 0
1, 140880, Note_on_c, 0, 69, 27
1, 140880, Note_on_c, 0, 72, 27
1, 140880, Note_on_c, 0, 79, 34
1, 140898, Control_c, 0, 64, 0
1, 140960, Control_c, 0, 64, 127
1, 141000, Note_on_c, 0, 79, 0
1, 141000, Note_on_c, 0, 72, 0
1, 141000, Note_on_c, 0, 69, 0
1, 141120, Tempo, 381922
1, 141120, Note_on_c, 0, 53, 23
1, 141120, Note_on_c, 0, 47, 19
1, 141136, Control_c, 0, 64, 0
1, 141240, Control_c, 0, 64, 127
1, 141360, Tempo, 362319
1, 141360, Note_on_c, 0, 74, 37
1, 141480, Note_on_c, 0, 74, 0
1, 141480, Note_on_c, 0, 76, 37
1, 141600, Note_on_c, 0, 76, 0
1, 141600, Note_on_c, 0, 47, 0
1, 141600, Note_on_c, 0, 53, 0
1, 141600, Note_on_c, 0, 69, 26
1, 141600, Note_on_c, 0, 71, 26
1, 141600, Note_on_c, 0, 77, 33
1, 141607, Control_c, 0, 64, 0
1, 141614, Tempo, 380711
1, 141680, Control_c, 0, 64, 127
1, 141720, Note_on_c, 0, 77, 0
1, 141720, Note_on_c, 0, 71, 0
1, 141720, Note_on_c, 0, 69, 0
1, 141840, Note_on_c, 0, 41, 22
1, 141840, Note_on_c, 0, 35, 18
1, 141857, Control_c, 0, 64, 0
1, 141932, Control_c, 0, 64, 127
1, 142080, Tempo, 362319
1, 142080, Note_on_c, 0, 74, 36
1, 142200, Note_on_c, 0, 74, 0
1, 142200, Note_on_c, 0, 76, 36
1, 142320, Note_on_c, 0, 76, 0
1, 142320, Note_on_c, 0, 35, 0
1, 142320, Note_on_c, 0, 41, 0
1, 142320, Note_on_c, 0, 69, 24
1, 142320, Note_on_c, 0, 71, 24
1, 142320, Note_on_c, 0, 77, 31
1, 142334, Tempo, 380711
1, 142338, Control_c, 0, 64, 0
1, 142400, Control_c, 0, 64, 127
1, 142440, Note_on_c, 0, 77, 0
1, 142440, Note_on_c, 0, 71, 0
1, 142440, Note_on_c, 0, 69, 0
1, 142560, Tempo, 381922
1, 142560, Note_on_c, 0, 59, 21
1, 142560, Note_on_c, 0, 52, 18
1, 142576, Control_c, 0, 64, 0
1, 142680, Control_c, 0, 64, 127
1, 142800, Tempo, 362319
1, 142800, Note_on_c, 0, 74, 34
1, 142920, Note_on_c, 0, 74, 0
1, 142920, Note_on_c, 0, 76, 34
1, 143040, Tempo, 371287
1, 143040, Note_on_c, 0, 76, 0
1, 143040, Note_on_c, 0, 52, 0
1, 143040, Note_on_c, 0, 59, 0
1, 143040, Note_on_c, 0, 67, 23
1, 143040, Note_on_c, 0, 71, 23
1, 143040, Note_on_c, 0, 77, 30
1, 143047, Control_c, 0, 64, 0
1, 143120, Control_c, 0, 64, 127
1, 143160, Note_on_c, 0, 77, 0
1, 143160, Note_on_c, 0, 71, 0
1, 143160, Note_on_c, 0, 67, 0
1, 143280, Note_on_c, 0, 47, 20
1, 143280, Note_on_c, 0, 40, 17
1, 143297, Control_c, 0, 64, 0
1, 143372, Control_c, 0, 64, 127
1, 143520, Tempo, 362319
1, 143520, Note_on_c, 0, 74, 32
1, 143640, Note_on_c, 0, 74, 0
1, 143640, Note_on_c, 0, 76, 32
1, 143760, Note_on_c, 0, 76, 0
1, 143760, Note_on_c, 0, 40, 0
1, 143760, Note_on_c, 0, 47, 0
1, 143760, Note_on_c, 0, 67, 22
1, 143760, Note_on_c, 0, 71, 22
1, 143760, Note_on_c, 0, 77, 28
1, 143774, Tempo, 380711
1, 143778, Control_c, 0, 64, 0
1, 143840, Control_c, 0, 64, 127
1, 143880, Note_on_c, 0, 77, 0
1, 143880, Note_on_c, 0, 71, 0
1, 143880, Note_on_c, 0, 67, 0
1, 144000, Tempo, 381922
1, 144000, Note_on_c, 0, 52, 19
1, 144000, Note_on_c, 0, 45, 16
1, 144016, Control_c, 0, 64, 0
1, 144120, Control_c, 0, 64, 127
1, 144240, Tempo, 362319
1, 144240, Note_on_c, 0, 72, 30
1, 144360, Note_on_c, 0, 72, 0
1, 144360, Note_on_c, 0, 74, 30
1, 144480, Tempo, 370142
1, 144480, Note_on_c, 0, 74, 0
1, 144480, Note_on_c, 0, 45, 0
1, 144480, Note_on_c, 0, 52, 0
1, 144480, Note_on_c, 0, 67, 21
1, 144480, Note_on_c, 0, 69, 21
1, 144480, Note_on_c, 0, 76, 26
1, 144487, Control_c, 0, 64, 0
1, 144560, Control_c, 0, 64, 127
1, 144600, Note_on_c, 0, 76, 0
1, 144600, Note_on_c, 0, 69, 0
1, 144600, Note_on_c, 0, 67, 0
1, 144720, Note_on_c, 0, 40, 18
1, 144720, Note_on_c, 0, 33, 15
1, 144737, Control_c, 0, 64, 0
1, 144812, Control_c, 0, 64, 127
1, 144960, Tempo, 362319
1, 144960, Note_on_c, 0, 72, 29
1, 145080, Note_on_c, 0, 72, 0
1, 145080, Note_on_c, 0, 74, 29
1, 145200, Note_on_c, 0, 74, 0
1, 145200, Note_on_c, 0, 33, 0
1, 145200, Note_on_c, 0, 40, 0
1, 145200, Note_on_c, 0, 67, 20
1, 145200, Note_on_c, 0, 69, 20
1, 145200, Note_on_c, 0, 76, 25
1, 145214, Tempo, 380711
1, 145218, Control_c, 0, 64, 0
1, 145280, Control_c, 0, 64, 127
1, 145320, Note_on_c, 0, 76, 0
1, 145320, Note_on_c, 0, 69, 0
1, 145320, Note_on_c, 0, 67, 0
1, 145440, Tempo, 381922
1, 145440, Note_on_c, 0, 57, 16
1, 145440, Note_on_c, 0, 50, 14
1, 145456, Control_c, 0, 64, 0
1, 145560, Control_c, 0, 64, 127
1, 145680, Tempo, 362319
1, 145680, Note_on_c, 0, 72, 27
1, 145800, Note_on_c, 0, 72, 0
1, 145800, Note_on_c, 0, 74, 27
1, 145920, Tempo, 370142
1, 145920, Note_on_c, 0, 74, 0
1, 145920, Note_on_c, 0, 50, 0
1, 145920, Note_on_c, 0, 57, 0
1, 145920, Note_on_c, 0, 65, 19
1, 145920, Note_on_c, 0, 69, 19
1, 145920, Note_on_c, 0, 76, 24
1, 145927, Control_c, 0, 64, 0
1, 146000, Control_c, 0, 64, 127
1, 146040, Note_on_c, 0, 76, 0
1, 146040, Note_on_c, 0, 69, 0
1, 146040, Note_on_c, 0, 65, 0
1, 146160, Note_on_c, 0, 45, 16
1, 146160, Note_on_c, 0, 38, 14
1, 146177, Control_c, 0, 64, 0
1, 146252, Control_c, 0, 64, 127
1, 146400, Tempo, 362319
1, 146640, Note_on_c, 0, 38, 0
1, 146640, Note_on_c, 0, 45, 0
1, 146654, Tempo, 380711
1, 146880, Tempo, 381922
1, 146880, Note_on_c, 0, 57, 16
1, 146880, Note_on_c, 0, 50, 14
1, 147120, Tempo, 362319
1, 147360, Note_on_c, 0, 50, 0
1, 147360, Note_on_c, 0, 57, 0
1, 147374, Tempo, 380711
1, 147600, Note_on_c, 0, 45, 16
1, 147600, Note_on_c, 0, 38, 14
1, 147840, Tempo, 362319
1, 148080, Note_on_c, 0, 38, 0
1, 148080, Note_on_c, 0, 45, 0
1, 148094, Tempo, 380711
1, 148320, Tempo, 381922
1, 148320, Note_on_c, 0, 50, 16
1, 148320, Note_on_c, 0, 43, 14
1, 148336, Control_c, 0, 64, 0
1, 148440, Control_c, 0, 64, 127
1, 148560, Tempo, 362319
1, 148560, Note_on_c, 0, 71, 27
1, 148680, Note_on_c, 0, 71, 0
1, 148680, Note_on_c, 0, 72, 27
1, 148800, Note_on_c, 0, 72, 0
1, 148800, Note_on_c, 0, 43, 0
1, 148800, Note_on_c, 0, 50, 0
1, 148800, Note_on_c, 0, 65, 19
1, 148800, Note_on_c, 0, 69, 19
1, 148800, Note_on_c, 0, 74, 24
1, 148807, Control_c, 0, 64, 0
1, 148814, Tempo, 380711
1, 148880, Control_c, 0, 64, 127
1, 148920, Note_on_c, 0, 74, 0
1, 148920, Note_on_c, 0, 69, 0
1, 148920, Note_on_c, 0, 65, 0
1, 149040, Note_on_c, 0, 38, 16
1, 149040, Note_on_c, 0, 31, 14
1, 149057, Control_c, 0, 64, 0
1, 149132, Control_c, 0, 64, 127
1, 149280, Tempo, 362319
1, 149280, Note_on_c, 0, 31, 0
1, 149280, Note_on_c, 0, 38, 0
1, 149534, Tempo, 380711
1, 149760, Tempo, 381922
1, 149760, Note_on_c, 0, 50, 16
1, 149760, Note_on_c, 0, 43, 14
1, 150000, Tempo, 362319
1, 150000, Note_on_c, 0, 43, 0
1, 150000, Note_on_c, 0, 50, 0
1, 150254, Tempo, 380711
1, 150480, Note_on_c, 0, 38, 16
1, 150480, Note_on_c, 0, 31, 14
1, 150720, Tempo, 362319
1, 150720, Note_on_c, 0, 31, 0
1, 150720, Note_on_c, 0, 38, 0
1, 150974, Tempo, 380711
1, 151200, Tempo, 381922
1, 151200, Note_on_c, 0, 50, 16
1, 151200, Note_on_c, 0, 43, 14
1, 151440, Tempo, 362319
1, 151440, Note_on_c, 0, 43, 0
1, 151440, Note_on_c, 0, 50, 0
1, 151694, Tempo, 380711
1, 151920, Note_on_c, 0, 62, 16
1, 151920, Note_on_c, 0, 55, 14
1, 152160, Tempo, 362319
1, 152160, Note_on_c, 0, 55, 0
1, 152160, Note_on_c, 0, 62, 0
1, 152414, Tempo, 380711
1, 152640, Tempo, 381922
1, 152640, Note_on_c, 0, 67, 14
1, 152640, Note_on_c, 0, 74, 16
1, 152880, Tempo, 362319
1, 152880, Note_on_c, 0, 74, 0
1, 152880, Note_on_c, 0, 67, 0
1, 153134, Tempo, 380711
1, 153360, Note_on_c, 0, 86, 16
1, 153360, Note_on_c, 0, 79, 14
1, 153600, Tempo, 374766
1, 153600, Note_on_c, 0, 79, 0
1, 153600, Note_on_c, 0, 86, 0
1, 153600, Note_on_c, 0, 84, 32
1, 153600, Control_c, 0, 64, 0
1, 153840, Note_on_c, 0, 84, 0
1, 153840, Note_on_c, 0, 86, 29
1, 154080, Note_on_c, 0, 86, 0
1, 154080, Note_on_c, 0, 88, 36
1, 154080, Note_on_c, 0, 79, 26
1, 154200, Note_on_c, 0, 79, 0
1, 154320, Note_on_c, 0, 88, 0
1, 154320, Note_on_c, 0, 84, 30
1, 154560, Note_on_c, 0, 84, 0
1, 154560, Note_on_c, 0, 88, 30
1, 154800, Tempo, 370142
1, 154800, Note_on_c, 0, 79, 21
1, 154920, Note_on_c, 0, 79, 0
1, 154920, Note_on_c, 0, 88, 0
1, 154920, Note_on_c, 0, 86, 27
1, 154980, Note_on_c, 0, 86, 0
1, 154980, Note_on_c, 0, 88, 27
1, 155040, Note_on_c, 0, 88, 0
1, 155040, Note_on_c, 0, 86, 34
1, 155280, Tempo, 380711
1, 155280, Note_on_c, 0, 86, 0
1, 155280, Note_on_c, 0, 84, 30
1, 155520, Tempo, 391901
1, 155520, Note_on_c, 0, 84, 0
1, 155520, Note_on_c, 0, 88, 32
1, 155520, Note_on_c, 0, 79, 24
1, 155640, Note_on_c, 0, 79, 0
1, 155640, Note_on_c, 0, 88, 0
1, 155760, Tempo, 374766
1, 156000, Note_on_c, 0, 88, 39
1, 156240, Note_on_c, 0, 79, 24
1, 156360, Note_on_c, 0, 79, 0
1, 156480, Tempo, 374766
1, 156480, Note_on_c, 0, 88, 0
1, 156480, Note_on_c, 0, 84, 32
1, 156480, Control_c, 0, 64, 0
1, 156720, Note_on_c, 0, 84, 0
1, 156720, Note_on_c, 0, 86, 29
1, 156960, Note_on_c, 0, 86, 0
1, 156960, Note_on_c, 0, 88, 36
1, 156960, Note_on_c, 0, 91, 26
1, 157080, Note_on_c, 0, 91, 0
1, 157200, Note_on_c, 0, 88, 0
1, 157200, Note_on_c, 0, 84, 30
1, 157440, Note_on_c, 0, 84, 0
1, 157440, Note_on_c, 0, 88, 30
1, 157680, Tempo, 370142
1, 157680, Note_on_c, 0, 91, 21
1, 157800, Note_on_c, 0, 91, 0
1, 157800, Note_on_c, 0, 88, 0
1, 157800, Note_on_c, 0, 86, 27
1, 157860, Note_on_c, 0, 86, 0
1, 157860, Note_on_c, 0, 88, 27
1, 157920, Note_on_c, 0, 88, 0
1, 157920, Note_on_c, 0, 86, 34
1, 158160, Tempo, 380711
1, 158160, Note_on_c, 0, 86, 0
1, 158160, Note_on_c, 0, 84, 30
1, 158400, Tempo, 391901
1, 158400, Note_on_c, 0, 84, 0
1, 158400, Note_on_c, 0, 88, 32
1, 158400, Note_on_c, 0, 91, 24
1, 158520, Note_on_c, 0, 91, 0
1, 158520, Note_on_c, 0, 88, 0
1, 158640, Tempo, 374766
1, 158880, Note_on_c, 0, 88, 39
1, 159120, Note_on_c, 0, 91, 24
1, 159240, Note_on_c, 0, 91, 0
1, 159360, Tempo, 369004
1, 159360, Note_on_c, 0, 88, 0
1, 159360, Note_on_c, 0, 84, 35
1, 159600, Note_on_c, 0, 84, 0
1, 159600, Note_on_c, 0, 86, 31
1, 159840, Tempo, 374766
1, 159840, Note_on_c, 0, 86, 0
1, 159840, Note_on_c, 0, 96, 28
1, 159840, Note_on_c, 0, 93, 24
1, 159840, Note_on_c, 0, 89, 24
1, 159840, Note_on_c, 0, 88, 39
1, 160080, Note_on_c, 0, 88, 0
1, 160080, Note_on_c, 0, 96, 0
1, 160080, Note_on_c, 0, 93, 0
1, 160080, Note_on_c, 0, 89, 0
1, 160080, Note_on_c, 0, 84, 33
1, 160320, Note_on_c, 0, 84, 0
1, 160320, Note_on_c, 0, 88, 33
1, 160560, Tempo, 370142
1, 160560, Note_on_c, 0, 89, 24
1, 160560, Note_on_c, 0, 95, 28
1, 160560, Note_on_c, 0, 91, 24
1, 160680, Note_on_c, 0, 88, 0
1, 160680, Note_on_c, 0, 86, 29
1, 160740, Note_on_c, 0, 86, 0
1, 160740, Note_on_c, 0, 88, 29
1, 160800, Note_on_c, 0, 88, 0
1, 160800, Note_on_c, 0, 89, 0
1, 160800, Note_on_c, 0, 95, 0
1, 160800, Note_on_c, 0, 91, 0
1, 160800, Note_on_c, 0, 86, 37
1, 161040, Tempo, 380711
1, 161040, Note_on_c, 0, 86, 0
1, 161040, Note_on_c, 0, 83, 33
1, 161280, Tempo, 391901
1, 161280, Note_on_c, 0, 83, 0
1, 161280, Note_on_c, 0, 95, 28
1, 161280, Note_on_c, 0, 91, 24
1, 161280, Note_on_c, 0, 88, 24
1, 161280, Note_on_c, 0, 86, 35
1, 161400, Note_on_c, 0, 86, 0
1, 161520, Tempo, 374766
1, 161520, Note_on_c, 0, 95, 0
1, 161520, Note_on_c, 0, 91, 0
1, 161520, Note_on_c, 0, 88, 0
1, 161760, Note_on_c, 0, 84, 42
1, 162000, Note_on_c, 0, 93, 28
1, 162000, Note_on_c, 0, 89, 24
1, 162000, Note_on_c, 0, 88, 24
1, 162240, Tempo, 374766
1, 162240, Note_on_c, 0, 88, 0
1, 162240, Note_on_c, 0, 84, 0
1, 162240, Note_on_c, 0, 93, 0
1, 162240, Note_on_c, 0, 89, 0
1, 162240, Note_on_c, 0, 81, 35
1, 162480, Note_on_c, 0, 81, 0
1, 162480, Note_on_c, 0, 83, 31
1, 162720, Tempo, 363416
1, 162720, Note_on_c, 0, 83, 0
1, 162720, Note_on_c, 0, 93, 28
1, 162720, Note_on_c, 0, 89, 24
1, 162720, Note_on_c, 0, 86, 24
1, 162720, Note_on_c, 0, 84, 39
1, 162960, Tempo, 383142
1, 162960, Note_on_c, 0, 84, 0
1, 162960, Note_on_c, 0, 93, 0
1, 162960, Note_on_c, 0, 89, 0
1, 162960, Note_on_c, 0, 86, 0
1, 162960, Note_on_c, 0, 81, 33
1, 163200, Tempo, 374766
1, 163200, Note_on_c, 0, 81, 0
1, 163200, Note_on_c, 0, 84, 33
1, 163440, Tempo, 370142
1, 163440, Note_on_c, 0, 86, 24
1, 163440, Note_on_c, 0, 91, 28
1, 163440, Note_on_c, 0, 88, 24
1, 163560, Note_on_c, 0, 84, 0
1, 163560, Note_on_c, 0, 83, 29
1, 163620, Note_on_c, 0, 83, 0
1, 163620, Note_on_c, 0, 84, 29
1, 163680, Note_on_c, 0, 84, 0
1, 163680, Note_on_c, 0, 86, 0
1, 163680, Note_on_c, 0, 91, 0
1, 163680, Note_on_c, 0, 88, 0
1, 163680, Note_on_c, 0, 83, 37
1, 163920, Tempo, 380711
1, 163920, Note_on_c, 0, 83, 0
1, 163920, Note_on_c, 0, 79, 33
1, 164160, Tempo, 391901
1, 164160, Note_on_c, 0, 79, 0
1, 164160, Note_on_c, 0, 91, 28
1, 164160, Note_on_c, 0, 88, 24
1, 164160, Note_on_c, 0, 84, 24
1, 164160, Note_on_c, 0, 83, 35
1, 164280, Note_on_c, 0, 83, 0
1, 164400, Tempo, 374766
1, 164400, Note_on_c, 0, 91, 0
1, 164400, Note_on_c, 0, 88, 0
1, 164400, Note_on_c, 0, 84, 0
1, 164640, Note_on_c, 0, 81, 42
1, 164880, Note_on_c, 0, 89, 28
1, 164880, Note_on_c, 0, 86, 24
1, 164880, Note_on_c, 0, 84, 24
1, 165120, Tempo, 366748
1, 165120, Note_on_c, 0, 84, 0
1, 165120, Note_on_c, 0, 81, 0
1, 165120, Note_on_c, 0, 89, 0
1, 165120, Note_on_c, 0, 86, 0
1, 165120, Note_on_c, 0, 77, 35
1, 165360, Tempo, 380711
1, 165360, Note_on_c, 0, 77, 0
1, 165360, Note_on_c, 0, 79, 31
1, 165600, Tempo, 375940
1, 165600, Note_on_c, 0, 79, 0
1, 165600, Note_on_c, 0, 89, 28
1, 165600, Note_on_c, 0, 86, 24
1, 165600, Note_on_c, 0, 83, 24
1, 165600, Note_on_c, 0, 81, 39
1, 165840, Note_on_c, 0, 81, 0
1, 165840, Note_on_c, 0, 89, 0
1, 165840, Note_on_c, 0, 86, 0
1, 165840, Note_on_c, 0, 83, 0
1, 165840, Note_on_c, 0, 77, 33
1, 166080, Note_on_c, 0, 77, 0
1, 166080, Note_on_c, 0, 81, 33
1, 166320, Tempo, 370142
1, 166320, Note_on_c, 0, 83, 24
1, 166320, Note_on_c, 0, 88, 28
1, 166320, Note_on_c, 0, 84, 24
1, 166440, Note_on_c, 0, 81, 0
1, 166440, Note_on_c, 0, 79, 29
1, 166500, Note_on_c, 0, 79, 0
1, 166500, Note_on_c, 0, 81, 29
1, 166560, Note_on_c, 0, 81, 0
1, 166560, Note_on_c, 0, 83, 0
1, 166560, Note_on_c, 0, 88, 0
1, 166560, Note_on_c, 0, 84, 0
1, 166560, Note_on_c, 0, 79, 37
1, 166800, Tempo, 380711
1, 166800, Note_on_c, 0, 79, 0
1, 166800, Note_on_c, 0, 76, 33
1, 167040, Tempo, 374766
1, 167040, Note_on_c, 0, 76, 0
1, 167040, Note_on_c, 0, 88, 28
1, 167040, Note_on_c, 0, 84, 24
1, 167040, Note_on_c, 0, 81, 24
1, 167040, Note_on_c, 0, 79, 39
1, 167280, Note_on_c, 0, 79, 0
1, 167280, Note_on_c, 0, 88, 0
1, 167280, Note_on_c, 0, 84, 0
1, 167280, Note_on_c, 0, 81, 0
1, 167280, Note_on_c, 0, 76, 33
1, 167520, Note_on_c, 0, 76, 0
1, 167520, Note_on_c, 0, 79, 33
1, 167760, Tempo, 362319
1, 167760, Note_on_c, 0, 81, 24
1, 167760, Note_on_c, 0, 86, 28
1, 167760, Note_on_c, 0, 83, 24
1, 167880, Note_on_c, 0, 79, 0
1, 167880, Note_on_c, 0, 77, 29
1, 167940, Note_on_c, 0, 77, 0
1, 167940, Note_on_c, 0, 79, 29
1, 168000, Tempo, 371287
1, 168000, Note_on_c, 0, 79, 0
1, 168000, Note_on_c, 0, 81, 0
1, 168000, Note_on_c, 0, 86, 0
1, 168000, Note_on_c, 0, 83, 0
1, 168000, Note_on_c, 0, 77, 37
1, 168240, Tempo, 380711
1, 168240, Note_on_c, 0, 77, 0
1, 168240, Note_on_c, 0, 74, 33
1, 168480, Tempo, 374766
1, 168480, Note_on_c, 0, 74, 0
1, 168480, Note_on_c, 0, 86, 28
1, 168480, Note_on_c, 0, 83, 24
1, 168480, Note_on_c, 0, 79, 24
1, 168480, Note_on_c, 0, 77, 39
1, 168720, Note_on_c, 0, 77, 0
1, 168720, Note_on_c, 0, 86, 0
1, 168720, Note_on_c, 0, 83, 0
1, 168720, Note_on_c, 0, 79, 0
1, 168720, Note_on_c, 0, 74, 33
1, 168960, Note_on_c, 0, 74, 0
1, 168960, Note_on_c, 0, 77, 33
1, 169200, Tempo, 370142
1, 169200, Note_on_c, 0, 79, 24
1, 169200, Note_on_c, 0, 84, 28
1, 169200, Note_on_c, 0, 81, 24
1, 169320, Note_on_c, 0, 77, 0
1, 169320, Note_on_c, 0, 76, 29
1, 169380, Note_on_c, 0, 76, 0
1, 169380, Note_on_c, 0, 77, 29
1, 169440, Note_on_c, 0, 77, 0
1, 169440, Note_on_c, 0, 79, 0
1, 169440, Note_on_c, 0, 84, 0
1, 169440, Note_on_c, 0, 81, 0
1, 169440, Note_on_c, 0, 76, 37
1, 169680, Tempo, 380711
1, 169680, Note_on_c, 0, 76, 0
1, 169680, Note_on_c, 0, 72, 33
1, 169920, Tempo, 391901
1, 169920, Note_on_c, 0, 72, 0
1, 169920, Note_on_c, 0, 84, 28
1, 169920, Note_on_c, 0, 81, 24
1, 169920, Note_on_c, 0, 77, 24
1, 169920, Note_on_c, 0, 76, 35
1, 170040, Note_on_c, 0, 76, 0
1, 170160, Tempo, 374766
1, 170160, Note_on_c, 0, 84, 0
1, 170160, Note_on_c, 0, 81, 0
1, 170160, Note_on_c, 0, 77, 0
1, 170400, Note_on_c, 0, 74, 42
1, 170640, Note_on_c, 0, 77, 24
1, 170640, Note_on_c, 0, 83, 28
1, 170640, Note_on_c, 0, 79, 24
1, 170880, Tempo, 370142
1, 170880, Note_on_c, 0, 79, 0
1, 170880, Note_on_c, 0, 74, 0
1, 170880, Note_on_c, 0, 77, 0
1, 170880, Note_on_c, 0, 83, 0
1, 170880, Note_on_c, 0, 72, 37
1, 171120, Tempo, 380711
1, 171120, Note_on_c, 0, 72, 0
1, 171120, Note_on_c, 0, 74, 33
1, 171360, Tempo, 374766
1, 171360, Note_on_c, 0, 74, 0
1, 171360, Note_on_c, 0, 84, 29
1, 171360, Note_on_c, 0, 81, 25
1, 171360, Note_on_c, 0, 77, 25
1, 171360, Note_on_c, 0, 76, 41
1, 171600, Note_on_c, 0, 76, 0
1, 171600, Note_on_c, 0, 84, 0
1, 171600, Note_on_c, 0, 81, 0
1, 171600, Note_on_c, 0, 77, 0
1, 171600, Note_on_c, 0, 72, 34
1, 171840, Note_on_c, 0, 72, 0
1, 171840, Note_on_c, 0, 76, 34
1, 172080, Tempo, 370142
1, 172080, Note_on_c, 0, 77, 25
1, 172080, Note_on_c, 0, 83, 30
1, 172080, Note_on_c, 0, 79, 25
1, 172200, Note_on_c, 0, 76, 0
1, 172200, Note_on_c, 0, 74, 31
1, 172260, Note_on_c, 0, 74, 0
1, 172260, Note_on_c, 0, 76, 31
1, 172320, Tempo, 364520
1, 172320, Note_on_c, 0, 76, 0
1, 172320, Note_on_c, 0, 77, 0
1, 172320, Note_on_c, 0, 83, 0
1, 172320, Note_on_c, 0, 79, 0
1, 172320, Note_on_c, 0, 74, 39
1, 172560, Tempo, 380711
1, 172560, Note_on_c, 0, 74, 0
1, 172560, Note_on_c, 0, 71, 34
1, 172800, Tempo, 391901
1, 172800, Note_on_c, 0, 71, 0
1, 172800, Note_on_c, 0, 83, 30
1, 172800, Note_on_c, 0, 79, 25
1, 172800, Note_on_c, 0, 76, 25
1, 172800, Note_on_c, 0, 74, 38
1, 172920, Note_on_c, 0, 74, 0
1, 173040, Tempo, 374766
1, 173040, Note_on_c, 0, 83, 0
1, 173040, Note_on_c, 0, 79, 0
1, 173040, Note_on_c, 0, 76, 0
1, 173280, Note_on_c, 0, 72, 46
1, 173520, Note_on_c, 0, 76, 26
1, 173520, Note_on_c, 0, 81, 31
1, 173520, Note_on_c, 0, 77, 26
1, 173760, Tempo, 370142
1, 173760, Note_on_c, 0, 77, 0
1, 173760, Note_on_c, 0, 72, 0
1, 173760, Note_on_c, 0, 76, 0
1, 173760, Note_on_c, 0, 81, 0
1, 173760, Note_on_c, 0, 69, 42
1, 174000, Tempo, 380711
1, 174000, Note_on_c, 0, 69, 0
1, 174000, Note_on_c, 0, 71, 37
1, 174240, Tempo, 374766
1, 174240, Note_on_c, 0, 71, 0
1, 174240, Note_on_c, 0, 81, 31
1, 174240, Note_on_c, 0, 77, 27
1, 174240, Note_on_c, 0, 74, 27
1, 174240, Note_on_c, 0, 72, 44
1, 174480, Note_on_c, 0, 72, 0
1, 174480, Note_on_c, 0, 81, 0
1, 174480, Note_on_c, 0, 77, 0
1, 174480, Note_on_c, 0, 74, 0
1, 174480, Note_on_c, 0, 69, 37
1, 174720, Note_on_c, 0, 69, 0
1, 174720, Note_on_c, 0, 72, 37
1, 174960, Tempo, 363416
1, 174960, Note_on_c, 0, 74, 28
1, 174960, Note_on_c, 0, 79, 33
1, 174960, Note_on_c, 0, 76, 28
1, 175080, Note_on_c, 0, 72, 0
1, 175080, Note_on_c, 0, 71, 34
1, 175140, Note_on_c, 0, 71, 0
1, 175140, Note_on_c, 0, 72, 34
1, 175200, Tempo, 371287
1, 175200, Note_on_c, 0, 72, 0
1, 175200, Note_on_c, 0, 74, 0
1, 175200, Note_on_c, 0, 79, 0
1, 175200, Note_on_c, 0, 76, 0
1, 175200, Note_on_c, 0, 71, 43
1, 175440, Tempo, 380711
1, 175440, Note_on_c, 0, 71, 0
1, 175440, Note_on_c, 0, 67, 39
1, 175680, Tempo, 391901
1, 175680, Note_on_c, 0, 67, 0
1, 175680, Note_on_c, 0, 79, 33
1, 175680, Note_on_c, 0, 76, 28
1, 175680, Note_on_c, 0, 72, 28
1, 175680, Note_on_c, 0, 71, 41
1, 175800, Note_on_c, 0, 71, 0
1, 175920, Tempo, 374766
1, 175920, Note_on_c, 0, 79, 0
1, 175920, Note_on_c, 0, 76, 0
1, 175920, Note_on_c, 0, 72, 0
1, 176160, Note_on_c, 0, 69, 51
1, 176400, Note_on_c, 0, 72, 28
1, 176400, Note_on_c, 0, 77, 34
1, 176400, Note_on_c, 0, 74, 28
1, 176640, Tempo, 363416
1, 176640, Note_on_c, 0, 74, 0
1, 176640, Note_on_c, 0, 69, 0
1, 176640, Note_on_c, 0, 72, 0
1, 176640, Note_on_c, 0, 77, 0
1, 176640, Note_on_c, 0, 65, 45
1, 176880, Tempo, 380711
1, 176880, Note_on_c, 0, 65, 0
1, 176880, Note_on_c, 0, 67, 40
1, 177120, Tempo, 374766
1, 177120, Note_on_c, 0, 67, 0
1, 177120, Note_on_c, 0, 77, 35
1, 177120, Note_on_c, 0, 74, 30
1, 177120, Note_on_c, 0, 71, 30
1, 177120, Note_on_c, 0, 69, 49
1, 177360, Note_on_c, 0, 69, 0
1, 177360, Note_on_c, 0, 77, 0
1, 177360, Note_on_c, 0, 74, 0
1, 177360, Note_on_c, 0, 71, 0
1, 177360, Note_on_c, 0, 65, 40
1, 177600, Note_on_c, 0, 65, 0
1, 177600, Note_on_c, 0, 69, 41
1, 177840, Tempo, 370142
1, 177840, Note_on_c, 0, 71, 30
1, 177840, Note_on_c, 0, 76, 36
1, 177840, Note_on_c, 0, 72, 30
1, 177960, Note_on_c, 0, 69, 0
1, 177960, Note_on_c, 0, 67, 37
1, 178020, Note_on_c, 0, 67, 0
1, 178020, Note_on_c, 0, 69, 37
1, 178080, Note_on_c, 0, 69, 0
1, 178080, Note_on_c, 0, 71, 0
1, 178080, Note_on_c, 0, 76, 0
1, 178080, Note_on_c, 0, 72, 0
1, 178080, Note_on_c, 0, 67, 48
1, 178320, Tempo, 380711
1, 178320, Note_on_c, 0, 67, 0
1, 178320, Note_on_c, 0, 64, 42
1, 178560, Tempo, 374766
1, 178560, Note_on_c, 0, 64, 0
1, 178560, Note_on_c, 0, 76, 37
1, 178560, Note_on_c, 0, 72, 31
1, 178560, Note_on_c, 0, 69, 31
1, 178560, Note_on_c, 0, 67, 52
1, 178800, Note_on_c, 0, 67, 0
1, 178800, Note_on_c, 0, 76, 0
1, 178800, Note_on_c, 0, 72, 0
1, 178800, Note_on_c, 0, 69, 0
1, 178800, Note_on_c, 0, 64, 44
1, 179040, Note_on_c, 0, 64, 0
1, 179040, Note_on_c, 0, 67, 44
1, 179280, Tempo, 370142
1, 179280, Note_on_c, 0, 69, 33
1, 179280, Note_on_c, 0, 74, 40
1, 179280, Note_on_c, 0, 71, 33
1, 179400, Note_on_c, 0, 67, 0
1, 179400, Note_on_c, 0, 65, 41
1, 179460, Note_on_c, 0, 65, 0
1, 179460, Note_on_c, 0, 67, 41
1, 179520, Note_on_c, 0, 67, 0
1, 179520, Note_on_c, 0, 69, 0
1, 179520, Note_on_c, 0, 74, 0
1, 179520, Note_on_c, 0, 71, 0
1, 179520, Note_on_c, 0, 65, 53
1, 179760, Tempo, 380711
1, 179760, Note_on_c, 0, 65, 0
1, 179760, Note_on_c, 0, 62, 47
1, 180000, Tempo, 374766
1, 180000, Note_on_c, 0, 62, 0
1, 180000, Note_on_c, 0, 76, 41
1, 180000, Note_on_c, 0, 72, 35
1, 180000, Note_on_c, 0, 69, 35
1, 180000, Note_on_c, 0, 65, 58
1, 180240, Note_on_c, 0, 65, 0
1, 180240, Note_on_c, 0, 76, 0
1, 180240, Note_on_c, 0, 72, 0
1, 180240, Note_on_c, 0, 69, 0
1, 180240, Note_on_c, 0, 62, 50
1, 180480, Note_on_c, 0, 62, 0
1, 180480, Note_on_c, 0, 65, 50
1, 180720, Tempo, 370142
1, 180720, Note_on_c, 0, 69, 37
1, 180720, Note_on_c, 0, 74, 44
1, 180720, Note_on_c, 0, 71, 37
1, 180840, Note_on_c, 0, 65, 0
1, 180840, Note_on_c, 0, 64, 47
1, 180900, Note_on_c, 0, 64, 0
1, 180900, Note_on_c, 0, 65, 47
1, 180960, Note_on_c, 0, 65, 0
1, 180960, Note_on_c, 0, 69, 0
1, 180960, Note_on_c, 0, 74, 0
1, 180960, Note_on_c, 0, 71, 0
1, 180960, Note_on_c, 0, 64, 59
1, 181200, Tempo, 380711
1, 181200, Note_on_c, 0, 64, 0
1, 181200, Note_on_c, 0, 60, 54
1, 181440, Tempo, 391901
1, 181440, Note_on_c, 0, 60, 0
1, 181440, Note_on_c, 0, 72, 47
1, 181440, Note_on_c, 0, 69, 40
1, 181440, Note_on_c, 0, 65, 40
1, 181440, Note_on_c, 0, 64, 58
1, 181560, Note_on_c, 0, 64, 0
1, 181680, Tempo, 374766
1, 181680, Note_on_c, 0, 72, 0
1, 181680, Note_on_c, 0, 69, 0
1, 181680, Note_on_c, 0, 65, 0
1, 181920, Note_on_c, 0, 62, 75
1, 182160, Tempo, 397088
1, 182160, Note_on_c, 0, 65, 42
1, 182160, Note_on_c, 0, 71, 50
1, 182160, Note_on_c, 0, 67, 42
1, 182400, Tempo, 383142
1, 182400, Note_on_c, 0, 67, 0
1, 182400, Note_on_c, 0, 62, 0
1, 182400, Note_on_c, 0, 65, 0
1, 182400, Note_on_c, 0, 71, 0
1, 182400, Note_on_c, 0, 48, 62
1, 182400, Note_on_c, 0, 60, 74
1, 182484, Note_on_c, 0, 60, 0
1, 182484, Note_on_c, 0, 48, 0
1, 182640, Tempo, 398406
1, 182640, Note_on_c, 0, 50, 56
1, 182640, Note_on_c, 0, 62, 66
1, 182724, Note_on_c, 0, 62, 0
1, 182724, Note_on_c, 0, 50, 0
1, 182880, Tempo, 375940
1, 182880, Note_on_c, 0, 72, 52
1, 182880, Note_on_c, 0, 69, 44
1, 182880, Note_on_c, 0, 65, 44
1, 182880, Note_on_c, 0, 52, 67
1, 182880, Note_on_c, 0, 64, 79
1, 182964, Note_on_c, 0, 64, 0
1, 182964, Note_on_c, 0, 52, 0
1, 183120, Note_on_c, 0, 72, 0
1, 183120, Note_on_c, 0, 69, 0
1, 183120, Note_on_c, 0, 65, 0
1, 183120, Note_on_c, 0, 48, 56
1, 183120, Note_on_c, 0, 60, 66
1, 183204, Note_on_c, 0, 60, 0
1, 183204, Note_on_c, 0, 48, 0
1, 183360, Note_on_c, 0, 52, 56
1, 183360, Note_on_c, 0, 64, 66
1, 183600, Tempo, 370142
1, 183600, Note_on_c, 0, 65, 44
1, 183600, Note_on_c, 0, 71, 52
1, 183600, Note_on_c, 0, 67, 44
1, 183840, Note_on_c, 0, 67, 0
1, 183840, Note_on_c, 0, 65, 0
1, 183840, Note_on_c, 0, 52, 0
1, 183840, Note_on_c, 0, 64, 0
1, 183840, Note_on_c, 0, 71, 0
1, 183840, Note_on_c, 0, 50, 62
1, 183840, Note_on_c, 0, 62, 74
1, 183924, Note_on_c, 0, 62, 0
1, 183924, Note_on_c, 0, 50, 0
1, 184080, Tempo, 380711
1, 184080, Note_on_c, 0, 47, 56
1, 184080, Note_on_c, 0, 59, 66
1, 184164, Note_on_c, 0, 59, 0
1, 184164, Note_on_c, 0, 47, 0
1, 184320, Tempo, 391901
1, 184320, Note_on_c, 0, 71, 52
1, 184320, Note_on_c, 0, 67, 44
1, 184320, Note_on_c, 0, 64, 44
1, 184320, Note_on_c, 0, 50, 59
1, 184320, Note_on_c, 0, 62, 70
1, 184440, Note_on_c, 0, 62, 0
1, 184440, Note_on_c, 0, 50, 0
1, 184560, Tempo, 374766
1, 184560, Note_on_c, 0, 71, 0
1, 184560, Note_on_c, 0, 67, 0
1, 184560, Note_on_c, 0, 64, 0
1, 184800, Note_on_c, 0, 48, 72
1, 184800, Note_on_c, 0, 60, 85
1, 185040, Note_on_c, 0, 64, 44
1, 185040, Note_on_c, 0, 69, 52
1, 185040, Note_on_c, 0, 65, 44
1, 185280, Tempo, 383142
1, 185280, Note_on_c, 0, 65, 0
1, 185280, Note_on_c, 0, 64, 0
1, 185280, Note_on_c, 0, 48, 0
1, 185280, Note_on_c, 0, 60, 0
1, 185280, Note_on_c, 0, 69, 0
1, 185280, Note_on_c, 0, 45, 62
1, 185280, Note_on_c, 0, 57, 74
1, 185364, Note_on_c, 0, 57, 0
1, 185364, Note_on_c, 0, 45, 0
1, 185520, Tempo, 398406
1, 185520, Note_on_c, 0, 47, 56
1, 185520, Note_on_c, 0, 59, 66
1, 185604, Note_on_c, 0, 59, 0
1, 185604, Note_on_c, 0, 47, 0
1, 185760, Tempo, 375940
1, 185760, Note_on_c, 0, 69, 52
1, 185760, Note_on_c, 0, 65, 44
1, 185760, Note_on_c, 0, 62, 44
1, 185760, Note_on_c, 0, 48, 67
1, 185760, Note_on_c, 0, 60, 79
1, 185844, Note_on_c, 0, 60, 0
1, 185844, Note_on_c, 0, 48, 0
1, 186000, Note_on_c, 0, 69, 0
1, 186000, Note_on_c, 0, 65, 0
1, 186000, Note_on_c, 0, 62, 0
1, 186000, Note_on_c, 0, 45, 56
1, 186000, Note_on_c, 0, 57, 66
1, 186084, Note_on_c, 0, 57, 0
1, 186084, Note_on_c, 0, 45, 0
1, 186240, Note_on_c, 0, 48, 56
1, 186240, Note_on_c, 0, 60, 66
1, 186480, Tempo, 370142
1, 186480, Note_on_c, 0, 62, 44
1, 186480, Note_on_c, 0, 67, 52
1, 186480, Note_on_c, 0, 64, 44
1, 186720, Note_on_c, 0, 64, 0
1, 186720, Note_on_c, 0, 62, 0
1, 186720, Note_on_c, 0, 48, 0
1, 186720, Note_on_c, 0, 60, 0
1, 186720, Note_on_c, 0, 67, 0
1, 186720, Note_on_c, 0, 47, 62
1, 186720, Note_on_c, 0, 59, 74
1, 186804, Note_on_c, 0, 59, 0
1, 186804, Note_on_c, 0, 47, 0
1, 186960, Tempo, 380711
1, 186960, Note_on_c, 0, 43, 56
1, 186960, Note_on_c, 0, 55, 66
1, 187044, Note_on_c, 0, 55, 0
1, 187044, Note_on_c, 0, 43, 0
1, 187200, Tempo, 391901
1, 187200, Note_on_c, 0, 67, 52
1, 187200, Note_on_c, 0, 64, 44
1, 187200, Note_on_c, 0, 60, 44
1, 187200, Note_on_c, 0, 47, 59
1, 187200, Note_on_c, 0, 59, 70
1, 187320, Note_on_c, 0, 59, 0
1, 187320, Note_on_c, 0, 47, 0
1, 187440, Tempo, 374766
1, 187440, Note_on_c, 0, 67, 0
1, 187440, Note_on_c, 0, 64, 0
1, 187440, Note_on_c, 0, 60, 0
1, 187680, Note_on_c, 0, 45, 69
1, 187680, Note_on_c, 0, 57, 82
1, 187920, Note_on_c, 0, 60, 44
1, 187920, Note_on_c, 0, 65, 52
1, 187920, Note_on_c, 0, 62, 44
1, 188160, Tempo, 383142
1, 188160, Note_on_c, 0, 62, 0
1, 188160, Note_on_c, 0, 60, 0
1, 188160, Note_on_c, 0, 45, 0
1, 188160, Note_on_c, 0, 57, 0
1, 188160, Note_on_c, 0, 65, 0
1, 188160, Note_on_c, 0, 41, 62
1, 188160, Note_on_c, 0, 53, 74
1, 188244, Note_on_c, 0, 53, 0
1, 188244, Note_on_c, 0, 41, 0
1, 188400, Tempo, 398406
1, 188400, Note_on_c, 0, 43, 56
1, 188400, Note_on_c, 0, 55, 66
1, 188484, Note_on_c, 0, 55, 0
1, 188484, Note_on_c, 0, 43, 0
1, 188640, Tempo, 375940
1, 188640, Note_on_c, 0, 65, 52
1, 188640, Note_on_c, 0, 62, 44
1, 188640, Note_on_c, 0, 59, 44
1, 188640, Note_on_c, 0, 45, 67
1, 188640, Note_on_c, 0, 57, 79
1, 188724, Note_on_c, 0, 57, 0
1, 188724, Note_on_c, 0, 45, 0
1, 188880, Note_on_c, 0, 65, 0
1, 188880, Note_on_c, 0, 62, 0
1, 188880, Note_on_c, 0, 59, 0
1, 188880, Note_on_c, 0, 41, 56
1, 188880, Note_on_c, 0, 53, 66
1, 188964, Note_on_c, 0, 53, 0
1, 188964, Note_on_c, 0, 41, 0
1, 189120, Note_on_c, 0, 45, 56
1, 189120, Note_on_c, 0, 57, 66
1, 189360, Tempo, 370142
1, 189360, Note_on_c, 0, 59, 44
1, 189360, Note_on_c, 0, 64, 52
1, 189360, Note_on_c, 0, 60, 44
1, 189600, Note_on_c, 0, 60, 0
1, 189600, Note_on_c, 0, 59, 0
1, 189600, Note_on_c, 0, 45, 0
1, 189600, Note_on_c, 0, 57, 0
1, 189600, Note_on_c, 0, 64, 0
1, 189600, Note_on_c, 0, 43, 62
1, 189600, Note_on_c, 0, 55, 74
1, 189684, Note_on_c, 0, 55, 0
1, 189684, Note_on_c, 0, 43, 0
1, 189840, Tempo, 380711
1, 189840, Note_on_c, 0, 40, 56
1, 189840, Note_on_c, 0, 52, 66
1, 189924, Note_on_c, 0, 52, 0
1, 189924, Note_on_c, 0, 40, 0
1, 190080, Tempo, 375940
1, 190080, Note_on_c, 0, 64, 52
1, 190080, Note_on_c, 0, 60, 44
1, 190080, Note_on_c, 0, 57, 44
1, 190080, Note_on_c, 0, 43, 67
1, 190080, Note_on_c, 0, 55, 79
1, 190164, Note_on_c, 0, 55, 0
1, 190164, Note_on_c, 0, 43, 0
1, 190320, Note_on_c, 0, 64, 0
1, 190320, Note_on_c, 0, 60, 0
1, 190320, Note_on_c, 0, 57, 0
1, 190320, Note_on_c, 0, 40, 56
1, 190320, Note_on_c, 0, 52, 66
1, 190404, Note_on_c, 0, 52, 0
1, 190404, Note_on_c, 0, 40, 0
1, 190560, Note_on_c, 0, 43, 56
1, 190560, Note_on_c, 0, 55, 66
1, 190800, Tempo, 364520
1, 190800, Note_on_c, 0, 57, 44
1, 190800, Note_on_c, 0, 62, 52
1, 190800, Note_on_c, 0, 59, 44
1, 191040, Note_on_c, 0, 59, 0
1, 191040, Note_on_c, 0, 57, 0
1, 191040, Note_on_c, 0, 43, 0
1, 191040, Note_on_c, 0, 55, 0
1, 191040, Note_on_c, 0, 62, 0
1, 191040, Note_on_c, 0, 41, 62
1, 191040, Note_on_c, 0, 53, 74
1, 191124, Note_on_c, 0, 53, 0
1, 191124, Note_on_c, 0, 41, 0
1, 191280, Tempo, 389358
1, 191280, Note_on_c, 0, 38, 56
1, 191280, Note_on_c, 0, 50, 66
1, 191364, Note_on_c, 0, 50, 0
1, 191364, Note_on_c, 0, 38, 0
1, 191520, Tempo, 375940
1, 191520, Note_on_c, 0, 62, 52
1, 191520, Note_on_c, 0, 59, 44
1, 191520, Note_on_c, 0, 55, 44
1, 191520, Note_on_c, 0, 41, 67
1, 191520, Note_on_c, 0, 53, 79
1, 191604, Note_on_c, 0, 53, 0
1, 191604, Note_on_c, 0, 41, 0
1, 191760, Note_on_c, 0, 62, 0
1, 191760, Note_on_c, 0, 59, 0
1, 191760, Note_on_c, 0, 55, 0
1, 191760, Note_on_c, 0, 38, 56
1, 191760, Note_on_c, 0, 50, 66
1, 191844, Note_on_c, 0, 50, 0
1, 191844, Note_on_c, 0, 38, 0
1, 192000, Note_on_c, 0, 41, 56
1, 192000, Note_on_c, 0, 53, 66
1, 192240, Tempo, 370142
1, 192240, Note_on_c, 0, 55, 44
1, 192240, Note_on_c, 0, 60, 52
1, 192240, Note_on_c, 0, 57, 44
1, 192480, Note_on_c, 0, 57, 0
1, 192480, Note_on_c, 0, 55, 0
1, 192480, Note_on_c, 0, 41, 0
1, 192480, Note_on_c, 0, 53, 0
1, 192480, Note_on_c, 0, 60, 0
1, 192480, Note_on_c, 0, 40, 62
1, 192480, Note_on_c, 0, 52, 74
1, 192564, Note_on_c, 0, 52, 0
1, 192564, Note_on_c, 0, 40, 0
1, 192720, Tempo, 380711
1, 192720, Note_on_c, 0, 36, 56
1, 192720, Note_on_c, 0, 48, 66
1, 192804, Note_on_c, 0, 48, 0
1, 192804, Note_on_c, 0, 36, 0
1, 192960, Tempo, 391901
1, 192960, Note_on_c, 0, 64, 52
1, 192960, Note_on_c, 0, 60, 44
1, 192960, Note_on_c, 0, 57, 44
1, 192960, Note_on_c, 0, 40, 59
1, 192960, Note_on_c, 0, 52, 70
1, 193080, Note_on_c, 0, 52, 0
1, 193080, Note_on_c, 0, 40, 0
1, 193200, Tempo, 374766
1, 193200, Note_on_c, 0, 64, 0
1, 193200, Note_on_c, 0, 60, 0
1, 193200, Note_on_c, 0, 57, 0
1, 193440, Note_on_c, 0, 38, 72
1, 193440, Note_on_c, 0, 50, 85
1, 193680, Tempo, 391901
1, 193680, Note_on_c, 0, 57, 44
1, 193680, Note_on_c, 0, 62, 52
1, 193680, Note_on_c, 0, 59, 44
1, 193920, Tempo, 401070
1, 193920, Note_on_c, 0, 59, 0
1, 193920, Note_on_c, 0, 57, 0
1, 193920, Note_on_c, 0, 38, 0
1, 193920, Note_on_c, 0, 50, 0
1, 193920, Note_on_c, 0, 62, 0
1, 193920, Note_on_c, 0, 48, 68
1, 193920, Note_on_c, 0, 60, 81
1, 194004, Note_on_c, 0, 60, 0
1, 194004, Note_on_c, 0, 48, 0
1, 194160, Tempo, 409277
1, 194160, Note_on_c, 0, 49, 61
1, 194160, Note_on_c, 0, 61, 72
1, 194244, Note_on_c, 0, 61, 0
1, 194244, Note_on_c, 0, 49, 0
1, 194400, Tempo, 388098
1, 194400, Note_on_c, 0, 60, 73
1, 194400, Note_on_c, 0, 56, 73
1, 194400, Note_on_c, 0, 51, 73
1, 194400, Note_on_c, 0, 63, 86
1, 194400, Note_on_c, 0, 32, 49
1, 194400, Note_on_c, 0, 39, 49
1, 194400, Note_on_c, 0, 44, 62
1, 194460, Note_on_c, 0, 56, 0
1, 194460, Note_on_c, 0, 60, 0
1, 194484, Note_on_c, 0, 63, 0
1, 194484, Note_on_c, 0, 51, 0
1, 194640, Tempo, 375940
1, 194640, Note_on_c, 0, 44, 0
1, 194640, Note_on_c, 0, 32, 0
1, 194640, Note_on_c, 0, 39, 0
1, 194640, Note_on_c, 0, 48, 67
1, 194640, Note_on_c, 0, 60, 79
1, 194724, Note_on_c, 0, 60, 0
1, 194724, Note_on_c, 0, 48, 0
1, 194880, Note_on_c, 0, 51, 63
1, 194880, Note_on_c, 0, 63, 76
1, 195120, Tempo, 370142
1, 195120, Note_on_c, 0, 53, 61
1, 195120, Note_on_c, 0, 56, 61
1, 195120, Note_on_c, 0, 41, 55
1, 195120, Note_on_c, 0, 32, 44
1, 195120, Note_on_c, 0, 29, 44
1, 195360, Note_on_c, 0, 29, 0
1, 195360, Note_on_c, 0, 41, 0
1, 195360, Note_on_c, 0, 63, 0
1, 195360, Note_on_c, 0, 53, 0
1, 195360, Note_on_c, 0, 51, 0
1, 195360, Note_on_c, 0, 32, 0
1, 195360, Note_on_c, 0, 56, 0
1, 195360, Note_on_c, 0, 49, 68
1, 195360, Note_on_c, 0, 61, 81
1, 195444, Note_on_c, 0, 61, 0
1, 195444, Note_on_c, 0, 49, 0
1, 195600, Tempo, 380711
1, 195600, Note_on_c, 0, 48, 61
1, 195600, Note_on_c, 0, 60, 72
1, 195684, Note_on_c, 0, 60, 0
1, 195684, Note_on_c, 0, 48, 0
1, 195840, Tempo, 391901
1, 195840, Note_on_c, 0, 60, 64
1, 195840, Note_on_c, 0, 56, 64
1, 195840, Note_on_c, 0, 51, 64
1, 195840, Note_on_c, 0, 63, 77
1, 195840, Note_on_c, 0, 32, 49
1, 195840, Note_on_c, 0, 39, 49
1, 195840, Note_on_c, 0, 44, 62
1, 195960, Note_on_c, 0, 63, 0
1, 195960, Note_on_c, 0, 51, 0
1, 195960, Note_on_c, 0, 60, 0
1, 195960, Note_on_c, 0, 56, 0
1, 196080, Tempo, 374766
1, 196080, Note_on_c, 0, 44, 0
1, 196080, Note_on_c, 0, 32, 0
1, 196080, Note_on_c, 0, 39, 0
1, 196320, Note_on_c, 0, 51, 79
1, 196320, Note_on_c, 0, 63, 93
1, 196560, Note_on_c, 0, 53, 61
1, 196560, Note_on_c, 0, 56, 61
1, 196560, Note_on_c, 0, 41, 57
1, 196560, Note_on_c, 0, 32, 45
1, 196560, Note_on_c, 0, 29, 45
1, 196800, Tempo, 384369
1, 196800, Note_on_c, 0, 29, 0
1, 196800, Note_on_c, 0, 41, 0
1, 196800, Note_on_c, 0, 63, 0
1, 196800, Note_on_c, 0, 53, 0
1, 196800, Note_on_c, 0, 51, 0
1, 196800, Note_on_c, 0, 32, 0
1, 196800, Note_on_c, 0, 56, 0
1, 196800, Note_on_c, 0, 48, 68
1, 196800, Note_on_c, 0, 60, 81
1, 196884, Note_on_c, 0, 60, 0
1, 196884, Note_on_c, 0, 48, 0
1, 197040, Tempo, 394477
1, 197040, Note_on_c, 0, 49, 61
1, 197040, Note_on_c, 0, 61, 72
1, 197124, Note_on_c, 0, 61, 0
1, 197124, Note_on_c, 0, 49, 0
1, 197280, Tempo, 388098
1, 197280, Note_on_c, 0, 60, 73
1, 197280, Note_on_c, 0, 56, 73
1, 197280, Note_on_c, 0, 51, 73
1, 197280, Note_on_c, 0, 63, 86
1, 197280, Note_on_c, 0, 32, 49
1, 197280, Note_on_c, 0, 39, 49
1, 197280, Note_on_c, 0, 44, 62
1, 197340, Note_on_c, 0, 56, 0
1, 197340, Note_on_c, 0, 60, 0
1, 197364, Note_on_c, 0, 63, 0
1, 197364, Note_on_c, 0, 51, 0
1, 197520, Tempo, 375940
1, 197520, Note_on_c, 0, 44, 0
1, 197520, Note_on_c, 0, 32, 0
1, 197520, Note_on_c, 0, 39, 0
1, 197520, Note_on_c, 0, 48, 67
1, 197520, Note_on_c, 0, 60, 79
1, 197604, Note_on_c, 0, 60, 0
1, 197604, Note_on_c, 0, 48, 0
1, 197760, Note_on_c, 0, 51, 63
1, 197760, Note_on_c, 0, 63, 76
1, 198000, Tempo, 370142
1, 198000, Note_on_c, 0, 53, 61
1, 198000, Note_on_c, 0, 56, 61
1, 198000, Note_on_c, 0, 41, 55
1, 198000, Note_on_c, 0, 32, 44
1, 198000, Note_on_c, 0, 29, 44
1, 198240, Note_on_c, 0, 29, 0
1, 198240, Note_on_c, 0, 41, 0
1, 198240, Note_on_c, 0, 63, 0
1, 198240, Note_on_c, 0, 53, 0
1, 198240, Note_on_c, 0, 51, 0
1, 198240, Note_on_c, 0, 32, 0
1, 198240, Note_on_c, 0, 56, 0
1, 198240, Note_on_c, 0, 49, 68
1, 198240, Note_on_c, 0, 61, 81
1, 198324, Note_on_c, 0, 61, 0
1, 198324, Note_on_c, 0, 49, 0
1, 198480, Tempo, 380711
1, 198480, Note_on_c, 0, 48, 61
1, 198480, Note_on_c, 0, 60, 72
1, 198564, Note_on_c, 0, 60, 0
1, 198564, Note_on_c, 0, 48, 0
1, 198720, Tempo, 391901
1, 198720, Note_on_c, 0, 60, 64
1, 198720, Note_on_c, 0, 56, 64
1, 198720, Note_on_c, 0, 51, 64
1, 198720, Note_on_c, 0, 63, 77
1, 198720, Note_on_c, 0, 32, 49
1, 198720, Note_on_c, 0, 39, 49
1, 198720, Note_on_c, 0, 44, 62
1, 198840, Note_on_c, 0, 63, 0
1, 198840, Note_on_c, 0, 51, 0
1, 198840, Note_on_c, 0, 60, 0
1, 198840, Note_on_c, 0, 56, 0
1, 198960, Tempo, 374766
1, 198960, Note_on_c, 0, 44, 0
1, 198960, Note_on_c, 0, 32, 0
1, 198960, Note_on_c, 0, 39, 0
1, 199200, Note_on_c, 0, 51, 79
1, 199200, Note_on_c, 0, 63, 93
1, 199440, Tempo, 386847
1, 199440, Note_on_c, 0, 53, 61
1, 199440, Note_on_c, 0, 56, 61
1, 199440, Note_on_c, 0, 41, 57
1, 199440, Note_on_c, 0, 32, 45
1, 199440, Note_on_c, 0, 29, 45
1, 199680, Tempo, 401070
1, 199680, Note_on_c, 0, 29, 0
1, 199680, Note_on_c, 0, 41, 0
1, 199680, Note_on_c, 0, 63, 0
1, 199680, Note_on_c, 0, 53, 0
1, 199680, Note_on_c, 0, 51, 0
1, 199680, Note_on_c, 0, 32, 0
1, 199680, Note_on_c, 0, 56, 0
1, 199680, Note_on_c, 0, 48, 74
1, 199680, Note_on_c, 0, 60, 89
1, 199764, Note_on_c, 0, 60, 0
1, 199764, Note_on_c, 0, 48, 0
1, 199920, Tempo, 425230
1, 199920, Note_on_c, 0, 50, 67
1, 199920, Note_on_c, 0, 62, 79
1, 200004, Note_on_c, 0, 62, 0
1, 200004, Note_on_c, 0, 50, 0
1, 200160, Tempo, 388098
1, 200160, Note_on_c, 0, 60, 80
1, 200160, Note_on_c, 0, 55, 68
1, 200160, Note_on_c, 0, 52, 68
1, 200160, Note_on_c, 0, 64, 94
1, 200160, Note_on_c, 0, 36, 53
1, 200160, Note_on_c, 0, 43, 53
1, 200160, Note_on_c, 0, 48, 68
1, 200220, Note_on_c, 0, 55, 0
1, 200220, Note_on_c, 0, 60, 0
1, 200244, Note_on_c, 0, 64, 0
1, 200244, Note_on_c, 0, 52, 0
1, 200400, Tempo, 375940
1, 200400, Note_on_c, 0, 48, 0
1, 200400, Note_on_c, 0, 36, 0
1, 200400, Note_on_c, 0, 43, 0
1, 200400, Note_on_c, 0, 48, 73
1, 200400, Note_on_c, 0, 60, 86
1, 200484, Note_on_c, 0, 60, 0
1, 200484, Note_on_c, 0, 48, 0
1, 200640, Note_on_c, 0, 52, 69
1, 200640, Note_on_c, 0, 64, 83
1, 200880, Tempo, 370142
1, 200880, Note_on_c, 0, 53, 67
1, 200880, Note_on_c, 0, 57, 67
1, 200880, Note_on_c, 0, 41, 60
1, 200880, Note_on_c, 0, 36, 48
1, 200880, Note_on_c, 0, 29, 48
1, 201120, Note_on_c, 0, 29, 0
1, 201120, Note_on_c, 0, 41, 0
1, 201120, Note_on_c, 0, 64, 0
1, 201120, Note_on_c, 0, 53, 0
1, 201120, Note_on_c, 0, 52, 0
1, 201120, Note_on_c, 0, 36, 0
1, 201120, Note_on_c, 0, 57, 0
1, 201120, Note_on_c, 0, 50, 74
1, 201120, Note_on_c, 0, 62, 89
1, 201204, Note_on_c, 0, 62, 0
1, 201204, Note_on_c, 0, 50, 0
1, 201360, Tempo, 380711
1, 201360, Note_on_c, 0, 48, 67
1, 201360, Note_on_c, 0, 60, 79
1, 201444, Note_on_c, 0, 60, 0
1, 201444, Note_on_c, 0, 48, 0
1, 201600, Tempo, 405132
1, 201600, Note_on_c, 0, 60, 70
1, 201600, Note_on_c, 0, 55, 70
1, 201600, Note_on_c, 0, 52, 70
1, 201600, Note_on_c, 0, 64, 84
1, 201600, Note_on_c, 0, 36, 53
1, 201600, Note_on_c, 0, 43, 53
1, 201600, Note_on_c, 0, 48, 68
1, 201720, Note_on_c, 0, 64, 0
1, 201720, Note_on_c, 0, 52, 0
1, 201720, Note_on_c, 0, 60, 0
1, 201720, Note_on_c, 0, 55, 0
1, 201840, Tempo, 374766
1, 201840, Note_on_c, 0, 48, 0
1, 201840, Note_on_c, 0, 36, 0
1, 201840, Note_on_c, 0, 43, 0
1, 202080, Note_on_c, 0, 52, 83
1, 202080, Note_on_c, 0, 64, 98
1, 202320, Note_on_c, 0, 53, 67
1, 202320, Note_on_c, 0, 57, 67
1, 202320, Note_on_c, 0, 41, 62
1, 202320, Note_on_c, 0, 36, 49
1, 202320, Note_on_c, 0, 29, 49
1, 202560, Tempo, 384369
1, 202560, Note_on_c, 0, 29, 0
1, 202560, Note_on_c, 0, 41, 0
1, 202560, Note_on_c, 0, 64, 0
1, 202560, Note_on_c, 0, 53, 0
1, 202560, Note_on_c, 0, 52, 0
1, 202560, Note_on_c, 0, 36, 0
1, 202560, Note_on_c, 0, 57, 0
1, 202560, Note_on_c, 0, 48, 74
1, 202560, Note_on_c, 0, 60, 89
1, 202644, Note_on_c, 0, 60, 0
1, 202644, Note_on_c, 0, 48, 0
1, 202800, Tempo, 394477
1, 202800, Note_on_c, 0, 50, 67
1, 202800, Note_on_c, 0, 62, 79
1, 202884, Note_on_c, 0, 62, 0
1, 202884, Note_on_c, 0, 50, 0
1, 203040, Tempo, 388098
1, 203040, Note_on_c, 0, 60, 80
1, 203040, Note_on_c, 0, 55, 80
1, 203040, Note_on_c, 0, 52, 80
1, 203040, Note_on_c, 0, 64, 94
1, 203040, Note_on_c, 0, 36, 53
1, 203040, Note_on_c, 0, 43, 53
1, 203040, Note_on_c, 0, 48, 68
1, 203100, Note_on_c, 0, 55, 0
1, 203100, Note_on_c, 0, 60, 0
1, 203124, Note_on_c, 0, 64, 0
1, 203124, Note_on_c, 0, 52, 0
1, 203280, Tempo, 375940
1, 203280, Note_on_c, 0, 48, 0
1, 203280, Note_on_c, 0, 36, 0
1, 203280, Note_on_c, 0, 43, 0
1, 203280, Note_on_c, 0, 48, 73
1, 203280, Note_on_c, 0, 60, 86
1, 203364, Note_on_c, 0, 60, 0
1, 203364, Note_on_c, 0, 48, 0
1, 203520, Note_on_c, 0, 52, 69
1, 203520, Note_on_c, 0, 64, 83
1, 203760, Tempo, 370142
1, 203760, Note_on_c, 0, 53, 67
1, 203760, Note_on_c, 0, 57, 67
1, 203760, Note_on_c, 0, 41, 60
1, 203760, Note_on_c, 0, 36, 48
1, 203760, Note_on_c, 0, 29, 48
1, 204000, Note_on_c, 0, 29, 0
1, 204000, Note_on_c, 0, 41, 0
1, 204000, Note_on_c, 0, 64, 0
1, 204000, Note_on_c, 0, 53, 0
1, 204000, Note_on_c, 0, 52, 0
1, 204000, Note_on_c, 0, 36, 0
1, 204000, Note_on_c, 0, 57, 0
1, 204000, Note_on_c, 0, 50, 74
1, 204000, Note_on_c, 0, 62, 89
1, 204084, Note_on_c, 0, 62, 0
1, 204084, Note_on_c, 0, 50, 0
1, 204240, Tempo, 380711
1, 204240, Note_on_c, 0, 48, 67
1, 204240, Note_on_c, 0, 60, 79
1, 204324, Note_on_c, 0, 60, 0
1, 204324, Note_on_c, 0, 48, 0
1, 204480, Tempo, 406504
1, 204480, Note_on_c, 0, 60, 70
1, 204480, Note_on_c, 0, 55, 70
1, 204480, Note_on_c, 0, 52, 70
1, 204480, Note_on_c, 0, 64, 84
1, 204480, Note_on_c, 0, 36, 53
1, 204480, Note_on_c, 0, 43, 53
1, 204480, Note_on_c, 0, 48, 68
1, 204600, Note_on_c, 0, 64, 0
1, 204600, Note_on_c, 0, 52, 0
1, 204600, Note_on_c, 0, 60, 0
1, 204600, Note_on_c, 0, 55, 0
1, 204720, Tempo, 374766
1, 204720, Note_on_c, 0, 48, 0
1, 204720, Note_on_c, 0, 36, 0
1, 204720, Note_on_c, 0, 43, 0
1, 204960, Note_on_c, 0, 52, 83
1, 204960, Note_on_c, 0, 64, 98
1, 205200, Note_on_c, 0, 53, 67
1, 205200, Note_on_c, 0, 57, 67
1, 205200, Note_on_c, 0, 41, 62
1, 205200, Note_on_c, 0, 36, 49
1, 205200, Note_on_c, 0, 29, 49
1, 205440, Tempo, 386847
1, 205440, Note_on_c, 0, 29, 0
1, 205440, Note_on_c, 0, 41, 0
1, 205440, Note_on_c, 0, 64, 0
1, 205440, Note_on_c, 0, 53, 0
1, 205440, Note_on_c, 0, 52, 0
1, 205440, Note_on_c, 0, 36, 0
1, 205440, Note_on_c, 0, 57, 0
1, 205440, Note_on_c, 0, 48, 70
1, 205440, Note_on_c, 0, 60, 70
1, 205500, Note_on_c, 0, 60, 0
1, 205500, Note_on_c, 0, 48, 0
1, 205680, Tempo, 406504
1, 205680, Note_on_c, 0, 50, 70
1, 205680, Note_on_c, 0, 62, 70
1, 205740, Note_on_c, 0, 62, 0
1, 205740, Note_on_c, 0, 50, 0
1, 205920, Tempo, 406504
1, 205920, Note_on_c, 0, 36, 45
1, 205920, Note_on_c, 0, 43, 45
1, 205920, Note_on_c, 0, 48, 57
1, 206160, Tempo, 374766
1, 206160, Note_on_c, 0, 48, 0
1, 206160, Note_on_c, 0, 43, 0
1, 206160, Note_on_c, 0, 36, 0
1, 206400, Tempo, 375940
1, 206640, Tempo, 370142
1, 206640, Note_on_c, 0, 41, 52
1, 206640, Note_on_c, 0, 36, 41
1, 206640, Note_on_c, 0, 29, 41
1, 206880, Note_on_c, 0, 29, 0
1, 206880, Note_on_c, 0, 36, 0
1, 206880, Note_on_c, 0, 41, 0
1, 207120, Tempo, 380711
1, 207360, Tempo, 406504
1, 207360, Note_on_c, 0, 36, 37
1, 207360, Note_on_c, 0, 43, 37
1, 207360, Note_on_c, 0, 48, 47
1, 207600, Tempo, 374766
1, 207600, Note_on_c, 0, 48, 0
1, 207600, Note_on_c, 0, 43, 0
1, 207600, Note_on_c, 0, 36, 0
1, 207840, Tempo, 375940
1, 207840, Note_on_c, 0, 52, 58
1, 208080, Tempo, 370142
1, 208080, Note_on_c, 0, 41, 43
1, 208080, Note_on_c, 0, 36, 34
1, 208080, Note_on_c, 0, 29, 34
1, 208320, Tempo, 383142
1, 208320, Note_on_c, 0, 29, 0
1, 208320, Note_on_c, 0, 52, 0
1, 208320, Note_on_c, 0, 41, 0
1, 208320, Note_on_c, 0, 36, 0
1, 208320, Note_on_c, 0, 48, 62
1, 208404, Note_on_c, 0, 48, 0
1, 208560, Tempo, 399734
1, 208560, Note_on_c, 0, 50, 55
1, 208644, Note_on_c, 0, 50, 0
1, 208800, Tempo, 420757
1, 208800, Note_on_c, 0, 36, 26
1, 208800, Note_on_c, 0, 43, 26
1, 208800, Note_on_c, 0, 48, 34
1, 209040, Tempo, 409277
1, 209040, Note_on_c, 0, 48, 0
1, 209040, Note_on_c, 0, 43, 0
1, 209040, Note_on_c, 0, 36, 0
1, 209520, Note_on_c, 0, 41, 31
1, 209520, Note_on_c, 0, 36, 24
1, 209520, Note_on_c, 0, 29, 24
1, 209760, Note_on_c, 0, 29, 0
1, 209760, Note_on_c, 0, 36, 0
1, 209760, Note_on_c, 0, 41, 0
1, 210240, Tempo, 383142
1, 210240, Note_on_c, 0, 36, 40
1, 210240, Note_on_c, 0, 48, 35
1, 210960, Tempo, 374766
1, 210960, Note_on_c, 0, 48, 0
1, 210960, Note_on_c, 0, 47, 32
1, 211200, Note_on_c, 0, 60, 40
1, 211440, Note_on_c, 0, 60, 0
1, 211440, Note_on_c, 0, 62, 37
1, 211680, Note_on_c, 0, 62, 0
1, 211680, Note_on_c, 0, 47, 0
1, 211680, Note_on_c, 0, 53, 34
1, 211680, Note_on_c, 0, 64, 45
1, 211680, Note_on_c, 0, 45, 33
1, 211920, Note_on_c, 0, 64, 0
1, 211920, Note_on_c, 0, 60, 38
1, 212160, Note_on_c, 0, 60, 0
1, 212160, Note_on_c, 0, 64, 38
1, 212400, Tempo, 370142
1, 212400, Note_on_c, 0, 45, 0
1, 212400, Note_on_c, 0, 53, 0
1, 212400, Note_on_c, 0, 55, 34
1, 212400, Note_on_c, 0, 47, 27
1, 212520, Note_on_c, 0, 64, 0
1, 212520, Note_on_c, 0, 62, 34
1, 212580, Note_on_c, 0, 62, 0
1, 212580, Note_on_c, 0, 64, 34
1, 212640, Note_on_c, 0, 64, 0
1, 212640, Note_on_c, 0, 62, 43
1, 212880, Tempo, 380711
1, 212880, Note_on_c, 0, 62, 0
1, 212880, Note_on_c, 0, 59, 42
1, 213120, Tempo, 391901
1, 213120, Note_on_c, 0, 59, 0
1, 213120, Note_on_c, 0, 36, 0
1, 213120, Note_on_c, 0, 55, 0
1, 213120, Note_on_c, 0, 47, 0
1, 213120, Note_on_c, 0, 60, 47
1, 213120, Note_on_c, 0, 36, 40
1, 213120, Note_on_c, 0, 48, 31
1, 213240, Note_on_c, 0, 60, 0
1, 213360, Tempo, 374766
1, 213600, Note_on_c, 0, 60, 49
1, 213840, Note_on_c, 0, 48, 0
1, 213840, Note_on_c, 0, 47, 27
1, 214020, Note_on_c, 0, 60, 0
1, 214080, Tempo, 374766
1, 214080, Note_on_c, 0, 60, 40
1, 214320, Note_on_c, 0, 60, 0
1, 214320, Note_on_c, 0, 62, 37
1, 214560, Tempo, 371287
1, 214560, Note_on_c, 0, 62, 0
1, 214560, Note_on_c, 0, 47, 0
1, 214560, Note_on_c, 0, 53, 34
1, 214560, Note_on_c, 0, 64, 45
1, 214560, Note_on_c, 0, 45, 33
1, 214800, Tempo, 379507
1, 214800, Note_on_c, 0, 64, 0
1, 214800, Note_on_c, 0, 60, 38
1, 215040, Tempo, 374766
1, 215040, Note_on_c, 0, 60, 0
1, 215040, Note_on_c, 0, 64, 38
1, 215280, Tempo, 370142
1, 215280, Note_on_c, 0, 45, 0
1, 215280, Note_on_c, 0, 53, 0
1, 215280, Note_on_c, 0, 55, 34
1, 215280, Note_on_c, 0, 47, 27
1, 215400, Note_on_c, 0, 64, 0
1, 215400, Note_on_c, 0, 62, 34
1, 215460, Note_on_c, 0, 62, 0
1, 215460, Note_on_c, 0, 64, 34
1, 215520, Note_on_c, 0, 64, 0
1, 215520, Note_on_c, 0, 62, 43
1, 215760, Tempo, 380711
1, 215760, Note_on_c, 0, 62, 0
1, 215760, Note_on_c, 0, 59, 42
1, 216000, Tempo, 391901
1, 216000, Note_on_c, 0, 59, 0
1, 216000, Note_on_c, 0, 36, 0
1, 216000, Note_on_c, 0, 55, 0
1, 216000, Note_on_c, 0, 47, 0
1, 216000, Note_on_c, 0, 60, 47
1, 216000, Note_on_c, 0, 36, 40
1, 216000, Note_on_c, 0, 48, 31
1, 216120, Note_on_c, 0, 60, 0
1, 216240, Tempo, 374766
1, 216480, Note_on_c, 0, 60, 49
1, 216720, Note_on_c, 0, 48, 0
1, 216720, Note_on_c, 0, 36, 0
1, 216720, Note_on_c, 0, 69, 27
1, 216720, Note_on_c, 0, 72, 27
1, 216720, Note_on_c, 0, 77, 36
1, 216960, Tempo, 370142
1, 216960, Note_on_c, 0, 60, 0
1, 216960, Note_on_c, 0, 62, 43
1, 217200, Tempo, 380711
1, 217200, Note_on_c, 0, 62, 0
1, 217200, Note_on_c, 0, 64, 42
1, 217440, Tempo, 391901
1, 217440, Note_on_c, 0, 64, 0
1, 217440, Note_on_c, 0, 69, 0
1, 217440, Note_on_c, 0, 72, 0
1, 217440, Note_on_c, 0, 77, 0
1, 217440, Note_on_c, 0, 60, 47
1, 217440, Note_on_c, 0, 67, 31
1, 217440, Note_on_c, 0, 72, 31
1, 217440, Note_on_c, 0, 76, 40
1, 217560, Note_on_c, 0, 60, 0
1, 217680, Tempo, 374766
1, 217920, Tempo, 374766
1, 217920, Note_on_c, 0, 60, 49
1, 218160, Note_on_c, 0, 67, 0
1, 218160, Note_on_c, 0, 76, 0
1, 218160, Note_on_c, 0, 72, 0
1, 218160, Note_on_c, 0, 65, 27
1, 218160, Note_on_c, 0, 72, 27
1, 218160, Note_on_c, 0, 74, 36
1, 218400, Tempo, 370142
1, 218400, Note_on_c, 0, 60, 0
1, 218400, Note_on_c, 0, 59, 43
1, 218640, Tempo, 380711
1, 218640, Note_on_c, 0, 59, 0
1, 218640, Note_on_c, 0, 55, 42
1, 218880, Tempo, 391901
1, 218880, Note_on_c, 0, 55, 0
1, 218880, Note_on_c, 0, 65, 0
1, 218880, Note_on_c, 0, 72, 0
1, 218880, Note_on_c, 0, 74, 0
1, 218880, Note_on_c, 0, 60, 47
1, 218880, Note_on_c, 0, 64, 31
1, 218880, Note_on_c, 0, 72, 40
1, 219000, Note_on_c, 0, 60, 0
1, 219360, Tempo, 374766
1, 219360, Note_on_c, 0, 60, 41
1, 219600, Note_on_c, 0, 72, 0
1, 219600, Note_on_c, 0, 64, 0
1, 219600, Note_on_c, 0, 53, 34
1, 219600, Note_on_c, 0, 36, 22
1, 219600, Note_on_c, 0, 45, 30
1, 219840, Tempo, 370142
1, 219840, Note_on_c, 0, 60, 0
1, 219840, Note_on_c, 0, 62, 36
1, 220080, Tempo, 380711
1, 220080, Note_on_c, 0, 62, 0
1, 220080, Note_on_c, 0, 64, 35
1, 220320, Tempo, 391901
1, 220320, Note_on_c, 0, 64, 0
1, 220320, Note_on_c, 0, 53, 0
1, 220320, Note_on_c, 0, 45, 0
1, 220320, Note_on_c, 0, 52, 34
1, 220320, Note_on_c, 0, 60, 39
1, 220320, Note_on_c, 0, 43, 34
1, 220440, Note_on_c, 0, 60, 0
1, 220560, Tempo, 374766
1, 220800, Tempo, 374766
1, 220800, Note_on_c, 0, 60, 34
1, 221040, Note_on_c, 0, 43, 0
1, 221040, Note_on_c, 0, 52, 0
1, 221040, Note_on_c, 0, 50, 28
1, 221040, Note_on_c, 0, 41, 25
1, 221280, Tempo, 370142
1, 221280, Note_on_c, 0, 60, 0
1, 221280, Note_on_c, 0, 59, 30
1, 221520, Tempo, 380711
1, 221520, Note_on_c, 0, 59, 0
1, 221520, Note_on_c, 0, 55, 29
1, 221760, Tempo, 391901
1, 221760, Note_on_c, 0, 55, 0
1, 221760, Note_on_c, 0, 41, 0
1, 221760, Note_on_c, 0, 50, 0
1, 221760, Note_on_c, 0, 52, 28
1, 221760, Note_on_c, 0, 60, 33
1, 221760, Note_on_c, 0, 43, 28
1, 221880, Note_on_c, 0, 60, 0
1, 221880, Note_on_c, 0, 52, 0
1, 222000, Tempo, 381922
1, 222240, Note_on_c, 0, 52, 28
1, 222240, Note_on_c, 0, 60, 33
1, 222480, Note_on_c, 0, 36, 0
1, 222480, Note_on_c, 0, 43, 0
1, 222480, Note_on_c, 0, 36, 22
1, 222480, Note_on_c, 0, 43, 22
1, 222565, Control_c, 0, 64, 127
1, 223200, Tempo, 410678
1, 223200, Note_on_c, 0, 52, 0
1, 223200, Note_on_c, 0, 60, 0
1, 223200, Note_on_c, 0, 72, 28
1, 223200, Note_on_c, 0, 64, 23
1, 223320, Note_on_c, 0, 64, 0
1, 223320, Note_on_c, 0, 72, 0
1, 223440, Tempo, 399734
1, 223680, Note_on_c, 0, 72, 28
1, 223680, Note_on_c, 0, 64, 23
1, 223920, Note_on_c, 0, 36, 0
1, 223920, Note_on_c, 0, 43, 0
1, 223920, Note_on_c, 0, 48, 18
1, 223920, Note_on_c, 0, 55, 18
1, 224400, Tempo, 439239
1, 224640, Tempo, 489396
1, 224640, Note_on_c, 0, 72, 0
1, 224640, Note_on_c, 0, 64, 0
1, 224640, Note_on_c, 0, 76, 19
1, 224640, Note_on_c, 0, 84, 23
1, 224760, Note_on_c, 0, 84, 0
1, 224760, Note_on_c, 0, 76, 0
1, 224880, Tempo, 532860
1, 225120, Note_on_c, 0, 76, 19
1, 225120, Note_on_c, 0, 84, 23
1, 225360, Note_on_c, 0, 48, 0
1, 225360, Note_on_c, 0, 55, 0
1, 225360, Note_on_c, 0, 60, 15
1, 225360, Note_on_c, 0, 67, 15
1, 228000, Note_on_c, 0, 67, 0
1, 228000, Note_on_c, 0, 84, 0
1, 228000, Note_on_c, 0, 76, 0
1, 228000, Note_on_c, 0, 60, 0
1, 228960, Control_c, 0, 64, 0
1, 228960, End_track
0, 0, End_of_file
