0, 0, Header, 0, 1, 480
1, 0, Start_track
1, 0, Title_t, "Vöglein Op 43, No. 4"
1, 0, Copyright_t, "Copyright © 1998 by Krüger http://www.piano-midi.de"
1, 0, Text_t, "Edvard Grieg"
1, 0, Text_t, "Allegro leggiore"
1, 0, Text_t, "Fertiggestellt am 16.3.98\012"
1, 0, Text_t, "Korrekturen am 4.9.98\012"
1, 0, Text_t, "Anpassungen an Digitalpiano am 28.12.98\012"
1, 0, Text_t, "Update am 19.8.99\012"
1, 0, Text_t, "Normierung: 23.12.2002\012"
1, 0, Text_t, "Update: 27.4.2007 (Umstellung auf cwp)\012"
1, 0, Text_t, "Update: 6.11.2012\012"
1, 0, Text_t, "Dauer: 1:37 Minuten\012"
1, 0, SMPTE_offset, 96, 0, 3, 0, 0
1, 0, Time_signature, 6, 3, 12, 8
1, 0, Key_signature, -1, "major"
1, 0, Tempo, 340522
1, 0, Marker_t, "Little Bird"
1, 0, Program_c, 0, 0
1, 0, Control_c, 0, 7, 100
1, 0, Control_c, 0, 10, 64
1, 0, Control_c, 0, 91, 127
1, 0, Text_t, "bdca426d104a26ac9dcb070447587523"
1, 0, Program_c, 0, 0
1, 0, Control_c, 0, 7, 100
1, 0, Control_c, 0, 10, 64
1, 0, Control_c, 0, 64, 0
1, 1196, Control_c, 0, 91, 127
1, 1196, Control_c, 0, 91, 127
1, 1200, Tempo, 445005
1, 1200, Note_on_c, 0, 81, 43
1, 1200, Note_on_c, 0, 74, 42
1, 1200, Control_c, 0, 64, 0
1, 1260, Note_on_c, 0, 74, 0
1, 1260, Note_on_c, 0, 81, 0
1, 1260, Note_on_c, 0, 82, 38
1, 1260, Note_on_c, 0, 77, 38
1, 1320, Note_on_c, 0, 77, 0
1, 1320, Note_on_c, 0, 82, 0
1, 1320, Note_on_c, 0, 81, 43
1, 1320, Note_on_c, 0, 74, 42
1, 1380, Note_on_c, 0, 74, 0
1, 1380, Note_on_c, 0, 81, 0
1, 1380, Note_on_c, 0, 82, 39
1, 1380, Note_on_c, 0, 77, 38
1, 1440, Tempo, 536241
1, 1440, Note_on_c, 0, 77, 0
1, 1440, Note_on_c, 0, 82, 0
1, 1440, Note_on_c, 0, 81, 49
1, 1440, Note_on_c, 0, 74, 50
1, 1474, Control_c, 0, 64, 127
1, 1560, Note_on_c, 0, 74, 0
1, 1560, Note_on_c, 0, 81, 0
1, 1920, Tempo, 594059
1, 1920, Note_on_c, 0, 69, 30
1, 1920, Note_on_c, 0, 62, 30
1, 2160, Note_on_c, 0, 62, 0
1, 2160, Note_on_c, 0, 69, 0
1, 2160, Note_on_c, 0, 69, 30
1, 2160, Note_on_c, 0, 62, 30
1, 2208, Control_c, 0, 64, 0
1, 2280, Note_on_c, 0, 62, 0
1, 2280, Note_on_c, 0, 69, 0
1, 2640, Tempo, 458295
1, 2640, Note_on_c, 0, 86, 44
1, 2640, Note_on_c, 0, 79, 44
1, 2700, Note_on_c, 0, 79, 0
1, 2700, Note_on_c, 0, 86, 0
1, 2700, Note_on_c, 0, 88, 40
1, 2700, Note_on_c, 0, 83, 40
1, 2760, Note_on_c, 0, 83, 0
1, 2760, Note_on_c, 0, 88, 0
1, 2760, Note_on_c, 0, 86, 44
1, 2760, Note_on_c, 0, 79, 44
1, 2820, Note_on_c, 0, 79, 0
1, 2820, Note_on_c, 0, 86, 0
1, 2820, Note_on_c, 0, 88, 42
1, 2820, Note_on_c, 0, 83, 40
1, 2880, Tempo, 536241
1, 2880, Note_on_c, 0, 83, 0
1, 2880, Note_on_c, 0, 88, 0
1, 2880, Note_on_c, 0, 86, 50
1, 2880, Note_on_c, 0, 79, 50
1, 2919, Control_c, 0, 64, 127
1, 3000, Note_on_c, 0, 79, 0
1, 3000, Note_on_c, 0, 86, 0
1, 3360, Tempo, 612245
1, 3360, Note_on_c, 0, 74, 30
1, 3360, Note_on_c, 0, 67, 30
1, 3600, Note_on_c, 0, 67, 0
1, 3600, Note_on_c, 0, 74, 0
1, 3600, Note_on_c, 0, 74, 30
1, 3600, Note_on_c, 0, 67, 30
1, 3652, Control_c, 0, 64, 0
1, 3720, Note_on_c, 0, 67, 0
1, 3720, Note_on_c, 0, 74, 0
1, 4080, Tempo, 450620
1, 4080, Note_on_c, 0, 81, 49
1, 4080, Note_on_c, 0, 74, 48
1, 4140, Note_on_c, 0, 74, 0
1, 4140, Note_on_c, 0, 81, 0
1, 4140, Note_on_c, 0, 82, 44
1, 4140, Note_on_c, 0, 77, 43
1, 4200, Note_on_c, 0, 77, 0
1, 4200, Note_on_c, 0, 82, 0
1, 4200, Note_on_c, 0, 81, 49
1, 4200, Note_on_c, 0, 74, 48
1, 4260, Note_on_c, 0, 74, 0
1, 4260, Note_on_c, 0, 81, 0
1, 4260, Note_on_c, 0, 82, 44
1, 4260, Note_on_c, 0, 77, 44
1, 4320, Tempo, 460264
1, 4320, Note_on_c, 0, 77, 0
1, 4320, Note_on_c, 0, 82, 0
1, 4320, Note_on_c, 0, 81, 52
1, 4320, Note_on_c, 0, 74, 51
1, 4440, Note_on_c, 0, 74, 0
1, 4440, Note_on_c, 0, 81, 0
1, 4800, Tempo, 448732
1, 4800, Note_on_c, 0, 77, 48
1, 4800, Note_on_c, 0, 70, 48
1, 4860, Note_on_c, 0, 70, 0
1, 4860, Note_on_c, 0, 77, 0
1, 4860, Note_on_c, 0, 79, 45
1, 4860, Note_on_c, 0, 74, 45
1, 4920, Note_on_c, 0, 74, 0
1, 4920, Note_on_c, 0, 79, 0
1, 4920, Note_on_c, 0, 77, 48
1, 4920, Note_on_c, 0, 70, 48
1, 4980, Note_on_c, 0, 70, 0
1, 4980, Note_on_c, 0, 77, 0
1, 4980, Note_on_c, 0, 79, 45
1, 4980, Note_on_c, 0, 74, 44
1, 5040, Tempo, 458295
1, 5040, Note_on_c, 0, 74, 0
1, 5040, Note_on_c, 0, 79, 0
1, 5040, Note_on_c, 0, 77, 56
1, 5040, Note_on_c, 0, 70, 55
1, 5160, Note_on_c, 0, 70, 0
1, 5160, Note_on_c, 0, 77, 0
1, 5520, Tempo, 450620
1, 5520, Note_on_c, 0, 81, 49
1, 5520, Note_on_c, 0, 74, 49
1, 5580, Note_on_c, 0, 74, 0
1, 5580, Note_on_c, 0, 81, 0
1, 5580, Note_on_c, 0, 82, 44
1, 5580, Note_on_c, 0, 77, 44
1, 5640, Note_on_c, 0, 77, 0
1, 5640, Note_on_c, 0, 82, 0
1, 5640, Note_on_c, 0, 81, 49
1, 5640, Note_on_c, 0, 74, 49
1, 5700, Note_on_c, 0, 74, 0
1, 5700, Note_on_c, 0, 81, 0
1, 5700, Note_on_c, 0, 82, 44
1, 5700, Note_on_c, 0, 77, 45
1, 5760, Tempo, 536241
1, 5760, Note_on_c, 0, 77, 0
1, 5760, Note_on_c, 0, 82, 0
1, 5760, Note_on_c, 0, 81, 54
1, 5760, Note_on_c, 0, 74, 56
1, 5806, Control_c, 0, 64, 127
1, 5880, Note_on_c, 0, 74, 0
1, 5880, Note_on_c, 0, 81, 0
1, 6240, Tempo, 585366
1, 6240, Note_on_c, 0, 69, 32
1, 6240, Note_on_c, 0, 62, 32
1, 6480, Note_on_c, 0, 62, 0
1, 6480, Note_on_c, 0, 69, 0
1, 6480, Note_on_c, 0, 62, 32
1, 6480, Note_on_c, 0, 69, 32
1, 6552, Control_c, 0, 64, 0
1, 6600, Note_on_c, 0, 69, 0
1, 6600, Note_on_c, 0, 62, 0
1, 6960, Tempo, 487488
1, 6960, Note_on_c, 0, 84, 48
1, 6960, Note_on_c, 0, 77, 48
1, 7020, Note_on_c, 0, 77, 0
1, 7020, Note_on_c, 0, 84, 0
1, 7020, Note_on_c, 0, 86, 45
1, 7020, Note_on_c, 0, 81, 44
1, 7080, Note_on_c, 0, 81, 0
1, 7080, Note_on_c, 0, 86, 0
1, 7080, Note_on_c, 0, 84, 48
1, 7080, Note_on_c, 0, 77, 48
1, 7140, Note_on_c, 0, 77, 0
1, 7140, Note_on_c, 0, 84, 0
1, 7140, Note_on_c, 0, 86, 45
1, 7140, Note_on_c, 0, 81, 45
1, 7200, Tempo, 536241
1, 7200, Note_on_c, 0, 81, 0
1, 7200, Note_on_c, 0, 86, 0
1, 7200, Note_on_c, 0, 84, 68
1, 7200, Note_on_c, 0, 77, 69
1, 7235, Control_c, 0, 64, 127
1, 7320, Note_on_c, 0, 77, 0
1, 7320, Note_on_c, 0, 84, 0
1, 7680, Tempo, 549954
1, 7680, Note_on_c, 0, 65, 40
1, 7680, Note_on_c, 0, 72, 40
1, 7920, Note_on_c, 0, 72, 0
1, 7920, Note_on_c, 0, 65, 0
1, 7920, Note_on_c, 0, 65, 40
1, 7920, Note_on_c, 0, 72, 40
1, 7976, Control_c, 0, 64, 0
1, 8040, Note_on_c, 0, 72, 0
1, 8040, Note_on_c, 0, 65, 0
1, 8400, Tempo, 496483
1, 8400, Note_on_c, 0, 88, 48
1, 8400, Note_on_c, 0, 81, 49
1, 8460, Note_on_c, 0, 81, 0
1, 8460, Note_on_c, 0, 88, 0
1, 8460, Note_on_c, 0, 89, 44
1, 8460, Note_on_c, 0, 84, 44
1, 8520, Note_on_c, 0, 84, 0
1, 8520, Note_on_c, 0, 89, 0
1, 8520, Note_on_c, 0, 88, 48
1, 8520, Note_on_c, 0, 81, 49
1, 8580, Note_on_c, 0, 81, 0
1, 8580, Note_on_c, 0, 88, 0
1, 8580, Note_on_c, 0, 89, 45
1, 8580, Note_on_c, 0, 84, 45
1, 8640, Tempo, 549954
1, 8640, Note_on_c, 0, 84, 0
1, 8640, Note_on_c, 0, 89, 0
1, 8640, Note_on_c, 0, 88, 67
1, 8640, Note_on_c, 0, 81, 69
1, 8691, Control_c, 0, 64, 127
1, 8760, Note_on_c, 0, 81, 0
1, 8760, Note_on_c, 0, 88, 0
1, 9120, Tempo, 592534
1, 9120, Note_on_c, 0, 72, 45
1, 9120, Note_on_c, 0, 64, 45
1, 9360, Note_on_c, 0, 64, 0
1, 9360, Note_on_c, 0, 72, 0
1, 9360, Note_on_c, 0, 72, 45
1, 9360, Note_on_c, 0, 64, 45
1, 9436, Control_c, 0, 64, 0
1, 9480, Note_on_c, 0, 64, 0
1, 9480, Note_on_c, 0, 72, 0
1, 9720, Tempo, 356295
1, 9720, Note_on_c, 0, 80, 54
1, 9840, Tempo, 466273
1, 9840, Note_on_c, 0, 80, 0
1, 9840, Note_on_c, 0, 76, 54
1, 9960, Note_on_c, 0, 76, 0
1, 10060, Tempo, 549954
1, 10080, Note_on_c, 0, 72, 49
1, 10080, Note_on_c, 0, 68, 49
1, 10080, Note_on_c, 0, 62, 44
1, 10080, Note_on_c, 0, 52, 44
1, 10320, Note_on_c, 0, 52, 0
1, 10320, Note_on_c, 0, 72, 0
1, 10320, Note_on_c, 0, 68, 0
1, 10320, Note_on_c, 0, 62, 0
1, 10420, Tempo, 430694
1, 10440, Tempo, 358680
1, 10440, Note_on_c, 0, 80, 54
1, 10560, Tempo, 466273
1, 10560, Note_on_c, 0, 80, 0
1, 10560, Note_on_c, 0, 76, 54
1, 10680, Note_on_c, 0, 76, 0
1, 10800, Tempo, 549954
1, 10800, Note_on_c, 0, 68, 50
1, 10800, Note_on_c, 0, 72, 50
1, 10800, Note_on_c, 0, 52, 44
1, 10800, Note_on_c, 0, 62, 44
1, 11040, Note_on_c, 0, 62, 0
1, 11040, Note_on_c, 0, 68, 0
1, 11040, Note_on_c, 0, 72, 0
1, 11040, Note_on_c, 0, 52, 0
1, 11160, Tempo, 358680
1, 11160, Note_on_c, 0, 81, 54
1, 11280, Tempo, 470367
1, 11280, Note_on_c, 0, 81, 0
1, 11280, Note_on_c, 0, 76, 54
1, 11400, Note_on_c, 0, 76, 0
1, 11520, Tempo, 518090
1, 11520, Note_on_c, 0, 69, 56
1, 11520, Control_c, 0, 64, 127
1, 11760, Note_on_c, 0, 69, 0
1, 12000, Tempo, 570451
1, 12000, Note_on_c, 0, 60, 55
1, 12000, Note_on_c, 0, 69, 55
1, 12000, Note_on_c, 0, 52, 50
1, 12000, Note_on_c, 0, 45, 50
1, 12240, Note_on_c, 0, 45, 0
1, 12240, Note_on_c, 0, 60, 0
1, 12240, Note_on_c, 0, 69, 0
1, 12240, Note_on_c, 0, 52, 0
1, 12240, Note_on_c, 0, 69, 55
1, 12240, Note_on_c, 0, 60, 55
1, 12240, Note_on_c, 0, 45, 50
1, 12240, Note_on_c, 0, 52, 50
1, 12480, Note_on_c, 0, 52, 0
1, 12480, Note_on_c, 0, 69, 0
1, 12480, Note_on_c, 0, 60, 0
1, 12480, Note_on_c, 0, 45, 0
1, 12480, Control_c, 0, 64, 0
1, 12720, Tempo, 445005
1, 12720, Note_on_c, 0, 81, 43
1, 12720, Note_on_c, 0, 74, 42
1, 12780, Note_on_c, 0, 74, 0
1, 12780, Note_on_c, 0, 81, 0
1, 12780, Note_on_c, 0, 82, 38
1, 12780, Note_on_c, 0, 77, 38
1, 12840, Note_on_c, 0, 77, 0
1, 12840, Note_on_c, 0, 82, 0
1, 12840, Note_on_c, 0, 81, 43
1, 12840, Note_on_c, 0, 74, 42
1, 12900, Note_on_c, 0, 74, 0
1, 12900, Note_on_c, 0, 81, 0
1, 12900, Note_on_c, 0, 82, 39
1, 12900, Note_on_c, 0, 77, 38
1, 12960, Tempo, 536241
1, 12960, Note_on_c, 0, 77, 0
1, 12960, Note_on_c, 0, 82, 0
1, 12960, Note_on_c, 0, 81, 49
1, 12960, Note_on_c, 0, 74, 50
1, 13000, Control_c, 0, 64, 127
1, 13080, Note_on_c, 0, 74, 0
1, 13080, Note_on_c, 0, 81, 0
1, 13440, Tempo, 591133
1, 13440, Note_on_c, 0, 62, 30
1, 13440, Note_on_c, 0, 69, 30
1, 13680, Note_on_c, 0, 69, 0
1, 13680, Note_on_c, 0, 62, 0
1, 13680, Note_on_c, 0, 62, 30
1, 13680, Note_on_c, 0, 69, 30
1, 13728, Control_c, 0, 64, 0
1, 13800, Note_on_c, 0, 69, 0
1, 13800, Note_on_c, 0, 62, 0
1, 14160, Tempo, 458295
1, 14160, Note_on_c, 0, 86, 44
1, 14160, Note_on_c, 0, 79, 44
1, 14220, Note_on_c, 0, 79, 0
1, 14220, Note_on_c, 0, 86, 0
1, 14220, Note_on_c, 0, 88, 40
1, 14220, Note_on_c, 0, 83, 40
1, 14280, Note_on_c, 0, 83, 0
1, 14280, Note_on_c, 0, 88, 0
1, 14280, Note_on_c, 0, 86, 44
1, 14280, Note_on_c, 0, 79, 44
1, 14340, Note_on_c, 0, 79, 0
1, 14340, Note_on_c, 0, 86, 0
1, 14340, Note_on_c, 0, 88, 42
1, 14340, Note_on_c, 0, 83, 40
1, 14400, Tempo, 536241
1, 14400, Note_on_c, 0, 83, 0
1, 14400, Note_on_c, 0, 88, 0
1, 14400, Note_on_c, 0, 86, 50
1, 14400, Note_on_c, 0, 79, 50
1, 14439, Control_c, 0, 64, 127
1, 14520, Note_on_c, 0, 79, 0
1, 14520, Note_on_c, 0, 86, 0
1, 14880, Tempo, 609137
1, 14880, Note_on_c, 0, 67, 30
1, 14880, Note_on_c, 0, 74, 30
1, 15120, Note_on_c, 0, 74, 0
1, 15120, Note_on_c, 0, 67, 0
1, 15120, Note_on_c, 0, 67, 30
1, 15120, Note_on_c, 0, 74, 30
1, 15172, Control_c, 0, 64, 0
1, 15240, Note_on_c, 0, 74, 0
1, 15240, Note_on_c, 0, 67, 0
1, 15600, Tempo, 450620
1, 15600, Note_on_c, 0, 81, 49
1, 15600, Note_on_c, 0, 74, 48
1, 15660, Note_on_c, 0, 74, 0
1, 15660, Note_on_c, 0, 81, 0
1, 15660, Note_on_c, 0, 82, 44
1, 15660, Note_on_c, 0, 77, 43
1, 15720, Note_on_c, 0, 77, 0
1, 15720, Note_on_c, 0, 82, 0
1, 15720, Note_on_c, 0, 81, 49
1, 15720, Note_on_c, 0, 74, 48
1, 15780, Note_on_c, 0, 74, 0
1, 15780, Note_on_c, 0, 81, 0
1, 15780, Note_on_c, 0, 82, 44
1, 15780, Note_on_c, 0, 77, 44
1, 15840, Tempo, 460264
1, 15840, Note_on_c, 0, 77, 0
1, 15840, Note_on_c, 0, 82, 0
1, 15840, Note_on_c, 0, 81, 52
1, 15840, Note_on_c, 0, 74, 51
1, 15960, Note_on_c, 0, 74, 0
1, 15960, Note_on_c, 0, 81, 0
1, 16320, Tempo, 448732
1, 16320, Note_on_c, 0, 77, 48
1, 16320, Note_on_c, 0, 70, 48
1, 16380, Note_on_c, 0, 70, 0
1, 16380, Note_on_c, 0, 77, 0
1, 16380, Note_on_c, 0, 79, 45
1, 16380, Note_on_c, 0, 74, 45
1, 16440, Note_on_c, 0, 74, 0
1, 16440, Note_on_c, 0, 79, 0
1, 16440, Note_on_c, 0, 77, 48
1, 16440, Note_on_c, 0, 70, 48
1, 16500, Note_on_c, 0, 70, 0
1, 16500, Note_on_c, 0, 77, 0
1, 16500, Note_on_c, 0, 79, 45
1, 16500, Note_on_c, 0, 74, 44
1, 16560, Tempo, 458295
1, 16560, Note_on_c, 0, 74, 0
1, 16560, Note_on_c, 0, 79, 0
1, 16560, Note_on_c, 0, 77, 56
1, 16560, Note_on_c, 0, 70, 55
1, 16680, Note_on_c, 0, 70, 0
1, 16680, Note_on_c, 0, 77, 0
1, 17040, Tempo, 450620
1, 17040, Note_on_c, 0, 81, 49
1, 17040, Note_on_c, 0, 74, 49
1, 17100, Note_on_c, 0, 74, 0
1, 17100, Note_on_c, 0, 81, 0
1, 17100, Note_on_c, 0, 82, 44
1, 17100, Note_on_c, 0, 77, 44
1, 17160, Note_on_c, 0, 77, 0
1, 17160, Note_on_c, 0, 82, 0
1, 17160, Note_on_c, 0, 81, 49
1, 17160, Note_on_c, 0, 74, 49
1, 17220, Note_on_c, 0, 74, 0
1, 17220, Note_on_c, 0, 81, 0
1, 17220, Note_on_c, 0, 82, 44
1, 17220, Note_on_c, 0, 77, 45
1, 17280, Tempo, 536241
1, 17280, Note_on_c, 0, 77, 0
1, 17280, Note_on_c, 0, 82, 0
1, 17280, Note_on_c, 0, 81, 54
1, 17280, Note_on_c, 0, 74, 56
1, 17319, Control_c, 0, 64, 127
1, 17400, Note_on_c, 0, 74, 0
1, 17400, Note_on_c, 0, 81, 0
1, 17760, Tempo, 576923
1, 17760, Note_on_c, 0, 62, 32
1, 17760, Note_on_c, 0, 69, 32
1, 18000, Note_on_c, 0, 69, 0
1, 18000, Note_on_c, 0, 62, 0
1, 18000, Note_on_c, 0, 62, 32
1, 18000, Note_on_c, 0, 69, 32
1, 18072, Control_c, 0, 64, 0
1, 18120, Note_on_c, 0, 69, 0
1, 18120, Note_on_c, 0, 62, 0
1, 18480, Tempo, 487488
1, 18480, Note_on_c, 0, 84, 48
1, 18480, Note_on_c, 0, 77, 48
1, 18540, Note_on_c, 0, 77, 0
1, 18540, Note_on_c, 0, 84, 0
1, 18540, Note_on_c, 0, 86, 45
1, 18540, Note_on_c, 0, 81, 44
1, 18600, Note_on_c, 0, 81, 0
1, 18600, Note_on_c, 0, 86, 0
1, 18600, Note_on_c, 0, 84, 48
1, 18600, Note_on_c, 0, 77, 48
1, 18660, Note_on_c, 0, 77, 0
1, 18660, Note_on_c, 0, 84, 0
1, 18660, Note_on_c, 0, 86, 45
1, 18660, Note_on_c, 0, 81, 45
1, 18720, Tempo, 536241
1, 18720, Note_on_c, 0, 81, 0
1, 18720, Note_on_c, 0, 86, 0
1, 18720, Note_on_c, 0, 84, 68
1, 18720, Note_on_c, 0, 77, 69
1, 18755, Control_c, 0, 64, 127
1, 18840, Note_on_c, 0, 77, 0
1, 18840, Note_on_c, 0, 84, 0
1, 19200, Tempo, 549954
1, 19200, Note_on_c, 0, 65, 40
1, 19200, Note_on_c, 0, 72, 40
1, 19440, Note_on_c, 0, 72, 0
1, 19440, Note_on_c, 0, 65, 0
1, 19440, Note_on_c, 0, 65, 40
1, 19440, Note_on_c, 0, 72, 40
1, 19496, Control_c, 0, 64, 0
1, 19560, Note_on_c, 0, 72, 0
1, 19560, Note_on_c, 0, 65, 0
1, 19920, Tempo, 496483
1, 19920, Note_on_c, 0, 88, 48
1, 19920, Note_on_c, 0, 81, 49
1, 19980, Note_on_c, 0, 81, 0
1, 19980, Note_on_c, 0, 88, 0
1, 19980, Note_on_c, 0, 89, 44
1, 19980, Note_on_c, 0, 84, 44
1, 20040, Note_on_c, 0, 84, 0
1, 20040, Note_on_c, 0, 89, 0
1, 20040, Note_on_c, 0, 88, 48
1, 20040, Note_on_c, 0, 81, 49
1, 20100, Note_on_c, 0, 81, 0
1, 20100, Note_on_c, 0, 88, 0
1, 20100, Note_on_c, 0, 89, 45
1, 20100, Note_on_c, 0, 84, 45
1, 20160, Tempo, 549954
1, 20160, Note_on_c, 0, 84, 0
1, 20160, Note_on_c, 0, 89, 0
1, 20160, Note_on_c, 0, 88, 67
1, 20160, Note_on_c, 0, 81, 69
1, 20234, Control_c, 0, 64, 127
1, 20280, Note_on_c, 0, 81, 0
1, 20280, Note_on_c, 0, 88, 0
1, 20640, Tempo, 606061
1, 20640, Note_on_c, 0, 64, 45
1, 20640, Note_on_c, 0, 72, 45
1, 20880, Note_on_c, 0, 72, 0
1, 20880, Note_on_c, 0, 64, 0
1, 20880, Note_on_c, 0, 64, 45
1, 20880, Note_on_c, 0, 72, 45
1, 20956, Control_c, 0, 64, 0
1, 21000, Note_on_c, 0, 72, 0
1, 21000, Note_on_c, 0, 64, 0
1, 21240, Tempo, 356295
1, 21240, Note_on_c, 0, 80, 54
1, 21360, Tempo, 466273
1, 21360, Note_on_c, 0, 80, 0
1, 21360, Note_on_c, 0, 76, 54
1, 21480, Note_on_c, 0, 76, 0
1, 21580, Tempo, 549954
1, 21600, Note_on_c, 0, 68, 49
1, 21600, Note_on_c, 0, 72, 49
1, 21600, Note_on_c, 0, 62, 44
1, 21600, Note_on_c, 0, 52, 44
1, 21840, Note_on_c, 0, 52, 0
1, 21840, Note_on_c, 0, 68, 0
1, 21840, Note_on_c, 0, 72, 0
1, 21840, Note_on_c, 0, 62, 0
1, 21940, Tempo, 430694
1, 21960, Tempo, 358680
1, 21960, Note_on_c, 0, 80, 54
1, 22080, Tempo, 466273
1, 22080, Note_on_c, 0, 80, 0
1, 22080, Note_on_c, 0, 76, 54
1, 22200, Note_on_c, 0, 76, 0
1, 22320, Tempo, 549954
1, 22320, Note_on_c, 0, 68, 50
1, 22320, Note_on_c, 0, 72, 50
1, 22320, Note_on_c, 0, 62, 44
1, 22320, Note_on_c, 0, 52, 44
1, 22560, Note_on_c, 0, 52, 0
1, 22560, Note_on_c, 0, 68, 0
1, 22560, Note_on_c, 0, 72, 0
1, 22560, Note_on_c, 0, 62, 0
1, 22680, Tempo, 358680
1, 22680, Note_on_c, 0, 81, 54
1, 22800, Tempo, 470367
1, 22800, Note_on_c, 0, 81, 0
1, 22800, Note_on_c, 0, 76, 54
1, 22920, Note_on_c, 0, 76, 0
1, 23040, Tempo, 494193
1, 23040, Note_on_c, 0, 69, 56
1, 23040, Control_c, 0, 64, 127
1, 23280, Note_on_c, 0, 69, 0
1, 23520, Tempo, 570451
1, 23520, Note_on_c, 0, 60, 57
1, 23520, Note_on_c, 0, 69, 57
1, 23520, Note_on_c, 0, 52, 52
1, 23520, Note_on_c, 0, 45, 52
1, 23760, Note_on_c, 0, 45, 0
1, 23760, Note_on_c, 0, 60, 0
1, 23760, Note_on_c, 0, 69, 0
1, 23760, Note_on_c, 0, 52, 0
1, 23760, Note_on_c, 0, 60, 57
1, 23760, Note_on_c, 0, 69, 57
1, 23760, Note_on_c, 0, 45, 52
1, 23760, Note_on_c, 0, 52, 52
1, 24000, Tempo, 638298
1, 24000, Note_on_c, 0, 52, 0
1, 24000, Note_on_c, 0, 60, 0
1, 24000, Note_on_c, 0, 69, 0
1, 24000, Note_on_c, 0, 45, 0
1, 24000, Control_c, 0, 64, 0
1, 24240, Tempo, 502092
1, 24240, Note_on_c, 0, 46, 43
1, 24300, Note_on_c, 0, 46, 0
1, 24300, Note_on_c, 0, 48, 43
1, 24360, Note_on_c, 0, 48, 0
1, 24360, Note_on_c, 0, 46, 43
1, 24420, Note_on_c, 0, 46, 0
1, 24420, Note_on_c, 0, 48, 43
1, 24480, Tempo, 638298
1, 24480, Note_on_c, 0, 48, 0
1, 24480, Note_on_c, 0, 46, 61
1, 24720, Tempo, 456274
1, 24840, Note_on_c, 0, 52, 40
1, 24840, Note_on_c, 0, 62, 40
1, 24960, Note_on_c, 0, 62, 0
1, 24960, Note_on_c, 0, 52, 0
1, 24960, Note_on_c, 0, 64, 43
1, 25080, Note_on_c, 0, 64, 0
1, 25200, Tempo, 474308
1, 25200, Note_on_c, 0, 64, 49
1, 25200, Note_on_c, 0, 62, 49
1, 25200, Note_on_c, 0, 52, 49
1, 25680, Tempo, 502092
1, 25680, Note_on_c, 0, 46, 0
1, 25680, Note_on_c, 0, 46, 43
1, 25740, Note_on_c, 0, 46, 0
1, 25740, Note_on_c, 0, 48, 43
1, 25800, Note_on_c, 0, 48, 0
1, 25800, Note_on_c, 0, 46, 43
1, 25860, Note_on_c, 0, 46, 0
1, 25860, Note_on_c, 0, 48, 43
1, 25920, Tempo, 634921
1, 25920, Note_on_c, 0, 48, 0
1, 25920, Note_on_c, 0, 64, 0
1, 25920, Note_on_c, 0, 62, 0
1, 25920, Note_on_c, 0, 52, 0
1, 25920, Note_on_c, 0, 46, 61
1, 26160, Tempo, 459770
1, 26280, Note_on_c, 0, 62, 40
1, 26280, Note_on_c, 0, 52, 40
1, 26400, Note_on_c, 0, 52, 0
1, 26400, Note_on_c, 0, 62, 0
1, 26400, Note_on_c, 0, 64, 45
1, 26520, Note_on_c, 0, 64, 0
1, 26640, Tempo, 472441
1, 26640, Note_on_c, 0, 62, 48
1, 26640, Note_on_c, 0, 64, 48
1, 26640, Note_on_c, 0, 52, 48
1, 27120, Tempo, 502092
1, 27120, Note_on_c, 0, 46, 0
1, 27120, Note_on_c, 0, 46, 42
1, 27180, Note_on_c, 0, 46, 0
1, 27180, Note_on_c, 0, 48, 42
1, 27240, Note_on_c, 0, 48, 0
1, 27240, Note_on_c, 0, 46, 42
1, 27300, Note_on_c, 0, 46, 0
1, 27300, Note_on_c, 0, 48, 40
1, 27360, Tempo, 465116
1, 27360, Note_on_c, 0, 48, 0
1, 27360, Note_on_c, 0, 62, 0
1, 27360, Note_on_c, 0, 64, 0
1, 27360, Note_on_c, 0, 52, 0
1, 27360, Note_on_c, 0, 46, 64
1, 27600, Note_on_c, 0, 46, 0
1, 27720, Note_on_c, 0, 46, 45
1, 27840, Tempo, 497925
1, 27840, Note_on_c, 0, 46, 0
1, 27840, Note_on_c, 0, 64, 40
1, 27840, Note_on_c, 0, 62, 40
1, 27840, Note_on_c, 0, 52, 40
1, 27840, Note_on_c, 0, 48, 45
1, 27960, Note_on_c, 0, 48, 0
1, 27960, Note_on_c, 0, 64, 0
1, 27960, Note_on_c, 0, 62, 0
1, 27960, Note_on_c, 0, 52, 0
1, 28080, Tempo, 465116
1, 28080, Note_on_c, 0, 46, 63
1, 28320, Note_on_c, 0, 46, 0
1, 28440, Note_on_c, 0, 46, 43
1, 28560, Tempo, 493827
1, 28560, Note_on_c, 0, 46, 0
1, 28560, Note_on_c, 0, 64, 40
1, 28560, Note_on_c, 0, 62, 40
1, 28560, Note_on_c, 0, 52, 40
1, 28560, Note_on_c, 0, 48, 43
1, 28680, Note_on_c, 0, 48, 0
1, 28680, Note_on_c, 0, 64, 0
1, 28680, Note_on_c, 0, 62, 0
1, 28680, Note_on_c, 0, 52, 0
1, 28800, Tempo, 465694
1, 28800, Note_on_c, 0, 45, 60
1, 29160, Note_on_c, 0, 61, 48
1, 29160, Note_on_c, 0, 52, 48
1, 29280, Note_on_c, 0, 52, 0
1, 29280, Note_on_c, 0, 61, 0
1, 29280, Note_on_c, 0, 64, 48
1, 29400, Note_on_c, 0, 64, 0
1, 29520, Tempo, 487805
1, 29520, Note_on_c, 0, 52, 48
1, 29520, Note_on_c, 0, 61, 48
1, 29520, Note_on_c, 0, 64, 48
1, 29760, Tempo, 461538
1, 29760, Note_on_c, 0, 45, 0
1, 29760, Note_on_c, 0, 42, 48
1, 29880, Note_on_c, 0, 42, 0
1, 30000, Note_on_c, 0, 44, 48
1, 30120, Note_on_c, 0, 44, 0
1, 30240, Tempo, 483871
1, 30240, Note_on_c, 0, 52, 0
1, 30240, Note_on_c, 0, 61, 0
1, 30240, Note_on_c, 0, 64, 0
1, 30240, Control_c, 0, 91, 127
1, 30240, Control_c, 0, 91, 127
1, 30240, Note_on_c, 0, 40, 64
1, 30480, Note_on_c, 0, 40, 0
1, 30720, Tempo, 382482
1, 30720, Note_on_c, 0, 69, 76
1, 30720, Note_on_c, 0, 64, 76
1, 30720, Note_on_c, 0, 61, 76
1, 30780, Note_on_c, 0, 69, 0
1, 30780, Note_on_c, 0, 71, 69
1, 30840, Note_on_c, 0, 71, 0
1, 30840, Note_on_c, 0, 69, 69
1, 30900, Note_on_c, 0, 69, 0
1, 30900, Note_on_c, 0, 71, 69
1, 30960, Note_on_c, 0, 71, 0
1, 30960, Note_on_c, 0, 61, 0
1, 30960, Note_on_c, 0, 64, 0
1, 30960, Note_on_c, 0, 68, 68
1, 30960, Note_on_c, 0, 63, 67
1, 30960, Note_on_c, 0, 60, 67
1, 31080, Note_on_c, 0, 60, 0
1, 31080, Note_on_c, 0, 63, 0
1, 31080, Note_on_c, 0, 68, 0
1, 31440, Tempo, 388400
1, 31440, Note_on_c, 0, 67, 73
1, 31440, Note_on_c, 0, 62, 73
1, 31440, Note_on_c, 0, 59, 73
1, 31500, Note_on_c, 0, 67, 0
1, 31500, Note_on_c, 0, 69, 67
1, 31560, Note_on_c, 0, 69, 0
1, 31560, Note_on_c, 0, 67, 67
1, 31620, Note_on_c, 0, 67, 0
1, 31620, Note_on_c, 0, 69, 67
1, 31680, Note_on_c, 0, 69, 0
1, 31680, Note_on_c, 0, 59, 0
1, 31680, Note_on_c, 0, 62, 0
1, 31680, Note_on_c, 0, 66, 67
1, 31680, Note_on_c, 0, 58, 67
1, 31680, Note_on_c, 0, 61, 67
1, 31800, Note_on_c, 0, 61, 0
1, 31800, Note_on_c, 0, 58, 0
1, 31800, Note_on_c, 0, 66, 0
1, 32160, Tempo, 402685
1, 32160, Note_on_c, 0, 65, 70
1, 32160, Note_on_c, 0, 60, 70
1, 32160, Note_on_c, 0, 57, 70
1, 32220, Note_on_c, 0, 65, 0
1, 32220, Note_on_c, 0, 67, 62
1, 32280, Note_on_c, 0, 67, 0
1, 32280, Note_on_c, 0, 65, 62
1, 32340, Note_on_c, 0, 65, 0
1, 32340, Note_on_c, 0, 67, 62
1, 32400, Note_on_c, 0, 67, 0
1, 32400, Note_on_c, 0, 57, 0
1, 32400, Note_on_c, 0, 60, 0
1, 32400, Note_on_c, 0, 64, 62
1, 32400, Note_on_c, 0, 56, 62
1, 32400, Note_on_c, 0, 59, 62
1, 32520, Note_on_c, 0, 59, 0
1, 32520, Note_on_c, 0, 56, 0
1, 32520, Note_on_c, 0, 64, 0
1, 32640, Tempo, 419580
1, 32880, Tempo, 433213
1, 32880, Note_on_c, 0, 62, 68
1, 32880, Note_on_c, 0, 54, 68
1, 32880, Note_on_c, 0, 57, 68
1, 32940, Note_on_c, 0, 62, 0
1, 32940, Note_on_c, 0, 64, 60
1, 33000, Note_on_c, 0, 64, 0
1, 33000, Note_on_c, 0, 62, 60
1, 33060, Note_on_c, 0, 62, 0
1, 33060, Note_on_c, 0, 64, 60
1, 33120, Note_on_c, 0, 64, 0
1, 33120, Note_on_c, 0, 54, 0
1, 33120, Note_on_c, 0, 61, 60
1, 33120, Note_on_c, 0, 53, 61
1, 33240, Note_on_c, 0, 53, 0
1, 33240, Note_on_c, 0, 61, 0
1, 33240, Note_on_c, 0, 57, 0
1, 33600, Tempo, 442804
1, 33600, Note_on_c, 0, 60, 64
1, 33600, Note_on_c, 0, 52, 64
1, 33600, Note_on_c, 0, 57, 64
1, 33660, Note_on_c, 0, 60, 0
1, 33660, Note_on_c, 0, 64, 57
1, 33720, Note_on_c, 0, 64, 0
1, 33720, Note_on_c, 0, 60, 58
1, 33780, Note_on_c, 0, 60, 0
1, 33780, Note_on_c, 0, 64, 58
1, 33840, Note_on_c, 0, 64, 0
1, 33840, Note_on_c, 0, 52, 0
1, 33840, Note_on_c, 0, 59, 58
1, 33840, Note_on_c, 0, 51, 58
1, 33960, Note_on_c, 0, 51, 0
1, 33960, Note_on_c, 0, 59, 0
1, 33960, Note_on_c, 0, 57, 0
1, 34320, Tempo, 452830
1, 34320, Note_on_c, 0, 58, 62
1, 34320, Note_on_c, 0, 50, 62
1, 34320, Note_on_c, 0, 52, 62
1, 34380, Note_on_c, 0, 58, 0
1, 34380, Note_on_c, 0, 64, 55
1, 34440, Note_on_c, 0, 64, 0
1, 34440, Note_on_c, 0, 58, 54
1, 34500, Note_on_c, 0, 58, 0
1, 34500, Note_on_c, 0, 64, 54
1, 34560, Note_on_c, 0, 64, 0
1, 34560, Note_on_c, 0, 52, 0
1, 34560, Note_on_c, 0, 57, 68
1, 34560, Note_on_c, 0, 49, 56
1, 34680, Tempo, 478088
1, 34680, Note_on_c, 0, 49, 0
1, 34680, Note_on_c, 0, 57, 0
1, 34680, Note_on_c, 0, 50, 0
1, 34920, Note_on_c, 0, 40, 67
1, 35040, Tempo, 606061
1, 35040, Note_on_c, 0, 40, 0
1, 35040, Note_on_c, 0, 45, 75
1, 35160, Note_on_c, 0, 45, 0
1, 35280, Tempo, 483637
1, 35280, Note_on_c, 0, 33, 64
1, 35400, Note_on_c, 0, 33, 0
1, 35760, Tempo, 402685
1, 35760, Note_on_c, 0, 70, 74
1, 35760, Note_on_c, 0, 62, 72
1, 35760, Note_on_c, 0, 64, 72
1, 35820, Note_on_c, 0, 70, 0
1, 35820, Note_on_c, 0, 76, 64
1, 35880, Note_on_c, 0, 76, 0
1, 35880, Note_on_c, 0, 70, 64
1, 35940, Note_on_c, 0, 70, 0
1, 35940, Note_on_c, 0, 76, 64
1, 36000, Note_on_c, 0, 76, 0
1, 36000, Note_on_c, 0, 62, 0
1, 36000, Note_on_c, 0, 69, 64
1, 36000, Note_on_c, 0, 61, 64
1, 36120, Note_on_c, 0, 61, 0
1, 36120, Note_on_c, 0, 69, 0
1, 36120, Note_on_c, 0, 64, 0
1, 36360, Note_on_c, 0, 52, 61
1, 36480, Tempo, 547945
1, 36480, Note_on_c, 0, 52, 0
1, 36480, Note_on_c, 0, 57, 72
1, 36600, Note_on_c, 0, 57, 0
1, 36720, Tempo, 466926
1, 36720, Note_on_c, 0, 45, 56
1, 36840, Note_on_c, 0, 45, 0
1, 37200, Tempo, 404040
1, 37200, Note_on_c, 0, 82, 81
1, 37200, Note_on_c, 0, 74, 81
1, 37200, Note_on_c, 0, 76, 81
1, 37260, Note_on_c, 0, 82, 0
1, 37260, Note_on_c, 0, 88, 74
1, 37320, Note_on_c, 0, 88, 0
1, 37320, Note_on_c, 0, 82, 74
1, 37380, Note_on_c, 0, 82, 0
1, 37380, Note_on_c, 0, 88, 74
1, 37440, Note_on_c, 0, 88, 0
1, 37440, Note_on_c, 0, 74, 0
1, 37440, Note_on_c, 0, 81, 74
1, 37440, Note_on_c, 0, 73, 74
1, 37560, Note_on_c, 0, 73, 0
1, 37560, Note_on_c, 0, 81, 0
1, 37560, Note_on_c, 0, 76, 0
1, 37800, Note_on_c, 0, 64, 69
1, 37880, Tempo, 429892
1, 37920, Tempo, 558140
1, 37920, Note_on_c, 0, 64, 0
1, 37920, Note_on_c, 0, 69, 76
1, 38040, Note_on_c, 0, 69, 0
1, 38160, Tempo, 441176
1, 38160, Note_on_c, 0, 57, 55
1, 38280, Note_on_c, 0, 57, 0
1, 38640, Tempo, 383951
1, 38640, Note_on_c, 0, 94, 86
1, 38640, Note_on_c, 0, 88, 84
1, 38640, Note_on_c, 0, 86, 84
1, 38700, Note_on_c, 0, 94, 0
1, 38700, Note_on_c, 0, 100, 78
1, 38760, Note_on_c, 0, 100, 0
1, 38760, Note_on_c, 0, 94, 78
1, 38820, Note_on_c, 0, 94, 0
1, 38820, Note_on_c, 0, 100, 78
1, 38880, Note_on_c, 0, 100, 0
1, 38880, Note_on_c, 0, 86, 0
1, 38880, Note_on_c, 0, 93, 78
1, 38880, Note_on_c, 0, 85, 80
1, 39000, Note_on_c, 0, 85, 0
1, 39000, Note_on_c, 0, 93, 0
1, 39000, Note_on_c, 0, 88, 0
1, 39360, Note_on_c, 0, 82, 81
1, 39360, Note_on_c, 0, 74, 80
1, 39360, Note_on_c, 0, 76, 80
1, 39420, Note_on_c, 0, 82, 0
1, 39420, Note_on_c, 0, 88, 68
1, 39480, Note_on_c, 0, 88, 0
1, 39480, Note_on_c, 0, 82, 68
1, 39540, Note_on_c, 0, 82, 0
1, 39540, Note_on_c, 0, 88, 68
1, 39600, Note_on_c, 0, 88, 0
1, 39600, Note_on_c, 0, 74, 0
1, 39600, Note_on_c, 0, 81, 68
1, 39600, Note_on_c, 0, 73, 68
1, 39720, Note_on_c, 0, 73, 0
1, 39720, Note_on_c, 0, 81, 0
1, 39720, Note_on_c, 0, 76, 0
1, 40080, Tempo, 402361
1, 40080, Note_on_c, 0, 70, 69
1, 40080, Note_on_c, 0, 62, 68
1, 40080, Note_on_c, 0, 64, 68
1, 40140, Note_on_c, 0, 70, 0
1, 40140, Note_on_c, 0, 76, 55
1, 40200, Note_on_c, 0, 76, 0
1, 40200, Note_on_c, 0, 70, 55
1, 40260, Note_on_c, 0, 70, 0
1, 40260, Note_on_c, 0, 76, 55
1, 40320, Note_on_c, 0, 76, 0
1, 40320, Note_on_c, 0, 62, 0
1, 40320, Note_on_c, 0, 69, 55
1, 40320, Note_on_c, 0, 61, 56
1, 40440, Note_on_c, 0, 61, 0
1, 40440, Note_on_c, 0, 69, 0
1, 40440, Note_on_c, 0, 64, 0
1, 40800, Tempo, 636672
1, 40800, Note_on_c, 0, 58, 56
1, 40800, Note_on_c, 0, 50, 55
1, 40800, Note_on_c, 0, 52, 55
1, 40860, Note_on_c, 0, 58, 0
1, 40860, Note_on_c, 0, 64, 44
1, 40920, Note_on_c, 0, 64, 0
1, 40920, Note_on_c, 0, 58, 44
1, 40980, Note_on_c, 0, 58, 0
1, 40980, Note_on_c, 0, 64, 46
1, 41040, Note_on_c, 0, 64, 0
1, 41040, Note_on_c, 0, 50, 0
1, 41040, Note_on_c, 0, 57, 46
1, 41040, Note_on_c, 0, 49, 44
1, 41160, Note_on_c, 0, 49, 0
1, 41160, Note_on_c, 0, 57, 0
1, 41160, Note_on_c, 0, 52, 0
1, 41520, Tempo, 500000
1, 41520, Note_on_c, 0, 81, 49
1, 41520, Note_on_c, 0, 74, 48
1, 41580, Tempo, 450450
1, 41580, Note_on_c, 0, 74, 0
1, 41580, Note_on_c, 0, 81, 0
1, 41580, Note_on_c, 0, 82, 43
1, 41580, Note_on_c, 0, 77, 43
1, 41640, Note_on_c, 0, 77, 0
1, 41640, Note_on_c, 0, 82, 0
1, 41640, Note_on_c, 0, 81, 49
1, 41640, Note_on_c, 0, 74, 48
1, 41700, Note_on_c, 0, 74, 0
1, 41700, Note_on_c, 0, 81, 0
1, 41700, Note_on_c, 0, 82, 44
1, 41700, Note_on_c, 0, 77, 43
1, 41760, Tempo, 537875
1, 41760, Note_on_c, 0, 77, 0
1, 41760, Note_on_c, 0, 82, 0
1, 41760, Note_on_c, 0, 81, 57
1, 41760, Note_on_c, 0, 74, 55
1, 41777, Control_c, 0, 64, 127
1, 41880, Note_on_c, 0, 74, 0
1, 41880, Note_on_c, 0, 81, 0
1, 42240, Tempo, 579710
1, 42240, Note_on_c, 0, 82, 60
1, 42288, Note_on_c, 0, 82, 0
1, 42288, Note_on_c, 0, 81, 58
1, 42336, Note_on_c, 0, 81, 0
1, 42336, Note_on_c, 0, 77, 55
1, 42384, Note_on_c, 0, 77, 0
1, 42384, Note_on_c, 0, 74, 52
1, 42432, Note_on_c, 0, 74, 0
1, 42432, Note_on_c, 0, 69, 50
1, 42480, Note_on_c, 0, 69, 0
1, 42480, Note_on_c, 0, 62, 50
1, 42528, Control_c, 0, 64, 0
1, 42600, Note_on_c, 0, 62, 0
1, 42960, Tempo, 448531
1, 42960, Note_on_c, 0, 86, 50
1, 42960, Note_on_c, 0, 79, 50
1, 43020, Note_on_c, 0, 79, 0
1, 43020, Note_on_c, 0, 86, 0
1, 43020, Note_on_c, 0, 88, 46
1, 43020, Note_on_c, 0, 83, 46
1, 43080, Note_on_c, 0, 83, 0
1, 43080, Note_on_c, 0, 88, 0
1, 43080, Note_on_c, 0, 86, 50
1, 43080, Note_on_c, 0, 79, 50
1, 43140, Note_on_c, 0, 79, 0
1, 43140, Note_on_c, 0, 86, 0
1, 43140, Note_on_c, 0, 88, 48
1, 43140, Note_on_c, 0, 83, 46
1, 43200, Tempo, 540541
1, 43200, Note_on_c, 0, 83, 0
1, 43200, Note_on_c, 0, 88, 0
1, 43200, Note_on_c, 0, 86, 57
1, 43200, Note_on_c, 0, 79, 57
1, 43223, Control_c, 0, 64, 127
1, 43320, Note_on_c, 0, 79, 0
1, 43320, Note_on_c, 0, 86, 0
1, 43680, Tempo, 579710
1, 43680, Note_on_c, 0, 88, 56
1, 43728, Note_on_c, 0, 88, 0
1, 43728, Note_on_c, 0, 86, 55
1, 43776, Note_on_c, 0, 86, 0
1, 43776, Note_on_c, 0, 83, 52
1, 43824, Note_on_c, 0, 83, 0
1, 43824, Note_on_c, 0, 79, 51
1, 43872, Note_on_c, 0, 79, 0
1, 43872, Note_on_c, 0, 74, 49
1, 43920, Note_on_c, 0, 74, 0
1, 43920, Note_on_c, 0, 67, 45
1, 43972, Control_c, 0, 64, 0
1, 44040, Note_on_c, 0, 67, 0
1, 44400, Tempo, 446694
1, 44400, Note_on_c, 0, 81, 56
1, 44400, Note_on_c, 0, 74, 55
1, 44460, Note_on_c, 0, 74, 0
1, 44460, Note_on_c, 0, 81, 0
1, 44460, Note_on_c, 0, 82, 50
1, 44460, Note_on_c, 0, 77, 49
1, 44520, Note_on_c, 0, 77, 0
1, 44520, Note_on_c, 0, 82, 0
1, 44520, Note_on_c, 0, 81, 56
1, 44520, Note_on_c, 0, 74, 55
1, 44580, Note_on_c, 0, 74, 0
1, 44580, Note_on_c, 0, 81, 0
1, 44580, Note_on_c, 0, 82, 50
1, 44580, Note_on_c, 0, 77, 50
1, 44640, Tempo, 458050
1, 44640, Note_on_c, 0, 77, 0
1, 44640, Note_on_c, 0, 82, 0
1, 44640, Note_on_c, 0, 81, 60
1, 44640, Note_on_c, 0, 74, 58
1, 44760, Note_on_c, 0, 74, 0
1, 44760, Note_on_c, 0, 81, 0
1, 45120, Tempo, 444840
1, 45120, Note_on_c, 0, 77, 55
1, 45120, Note_on_c, 0, 70, 55
1, 45180, Note_on_c, 0, 70, 0
1, 45180, Note_on_c, 0, 77, 0
1, 45180, Note_on_c, 0, 79, 51
1, 45180, Note_on_c, 0, 74, 51
1, 45240, Note_on_c, 0, 74, 0
1, 45240, Note_on_c, 0, 79, 0
1, 45240, Note_on_c, 0, 77, 55
1, 45240, Note_on_c, 0, 70, 55
1, 45300, Note_on_c, 0, 70, 0
1, 45300, Note_on_c, 0, 77, 0
1, 45300, Note_on_c, 0, 79, 51
1, 45300, Note_on_c, 0, 74, 50
1, 45360, Tempo, 458050
1, 45360, Note_on_c, 0, 74, 0
1, 45360, Note_on_c, 0, 79, 0
1, 45360, Note_on_c, 0, 77, 64
1, 45360, Note_on_c, 0, 70, 62
1, 45480, Note_on_c, 0, 70, 0
1, 45480, Note_on_c, 0, 77, 0
1, 45840, Tempo, 444840
1, 45840, Note_on_c, 0, 81, 56
1, 45840, Note_on_c, 0, 74, 56
1, 45900, Note_on_c, 0, 74, 0
1, 45900, Note_on_c, 0, 81, 0
1, 45900, Note_on_c, 0, 82, 50
1, 45900, Note_on_c, 0, 77, 50
1, 45960, Note_on_c, 0, 77, 0
1, 45960, Note_on_c, 0, 82, 0
1, 45960, Note_on_c, 0, 81, 56
1, 45960, Note_on_c, 0, 74, 56
1, 46020, Note_on_c, 0, 74, 0
1, 46020, Note_on_c, 0, 81, 0
1, 46020, Note_on_c, 0, 82, 50
1, 46020, Note_on_c, 0, 77, 51
1, 46080, Tempo, 476228
1, 46080, Note_on_c, 0, 77, 0
1, 46080, Note_on_c, 0, 82, 0
1, 46080, Note_on_c, 0, 81, 61
1, 46080, Note_on_c, 0, 74, 64
1, 46103, Control_c, 0, 64, 127
1, 46200, Note_on_c, 0, 74, 0
1, 46200, Note_on_c, 0, 81, 0
1, 46560, Tempo, 491360
1, 46560, Note_on_c, 0, 82, 56
1, 46608, Note_on_c, 0, 82, 0
1, 46608, Note_on_c, 0, 81, 51
1, 46656, Note_on_c, 0, 81, 0
1, 46656, Note_on_c, 0, 77, 49
1, 46704, Note_on_c, 0, 77, 0
1, 46704, Note_on_c, 0, 74, 44
1, 46752, Note_on_c, 0, 74, 0
1, 46752, Note_on_c, 0, 69, 42
1, 46800, Note_on_c, 0, 69, 0
1, 46800, Note_on_c, 0, 62, 50
1, 46872, Control_c, 0, 64, 0
1, 46920, Note_on_c, 0, 62, 0
1, 47280, Tempo, 450450
1, 47280, Note_on_c, 0, 81, 55
1, 47280, Note_on_c, 0, 73, 55
1, 47340, Note_on_c, 0, 73, 0
1, 47340, Note_on_c, 0, 81, 0
1, 47340, Note_on_c, 0, 82, 51
1, 47340, Note_on_c, 0, 77, 50
1, 47400, Note_on_c, 0, 77, 0
1, 47400, Note_on_c, 0, 82, 0
1, 47400, Note_on_c, 0, 81, 55
1, 47400, Note_on_c, 0, 73, 55
1, 47460, Note_on_c, 0, 73, 0
1, 47460, Note_on_c, 0, 81, 0
1, 47460, Note_on_c, 0, 82, 51
1, 47460, Note_on_c, 0, 77, 51
1, 47520, Tempo, 540541
1, 47520, Note_on_c, 0, 77, 0
1, 47520, Note_on_c, 0, 82, 0
1, 47520, Note_on_c, 0, 81, 72
1, 47520, Control_c, 0, 64, 127
1, 47520, Note_on_c, 0, 73, 73
1, 47640, Note_on_c, 0, 73, 0
1, 47640, Note_on_c, 0, 81, 0
1, 48000, Tempo, 571973
1, 48000, Note_on_c, 0, 82, 64
1, 48048, Note_on_c, 0, 82, 0
1, 48048, Note_on_c, 0, 81, 61
1, 48096, Note_on_c, 0, 81, 0
1, 48096, Note_on_c, 0, 77, 57
1, 48144, Note_on_c, 0, 77, 0
1, 48144, Note_on_c, 0, 73, 54
1, 48192, Note_on_c, 0, 73, 0
1, 48192, Note_on_c, 0, 69, 51
1, 48240, Note_on_c, 0, 69, 0
1, 48240, Note_on_c, 0, 61, 52
1, 48296, Control_c, 0, 64, 0
1, 48360, Note_on_c, 0, 61, 0
1, 48480, Tempo, 502092
1, 48720, Tempo, 452318
1, 48720, Note_on_c, 0, 84, 55
1, 48720, Note_on_c, 0, 77, 56
1, 48780, Note_on_c, 0, 77, 0
1, 48780, Note_on_c, 0, 84, 0
1, 48780, Note_on_c, 0, 86, 50
1, 48780, Note_on_c, 0, 81, 50
1, 48840, Note_on_c, 0, 81, 0
1, 48840, Note_on_c, 0, 86, 0
1, 48840, Note_on_c, 0, 84, 55
1, 48840, Note_on_c, 0, 77, 56
1, 48900, Note_on_c, 0, 77, 0
1, 48900, Note_on_c, 0, 84, 0
1, 48900, Note_on_c, 0, 86, 51
1, 48900, Note_on_c, 0, 81, 51
1, 48960, Tempo, 554324
1, 48960, Note_on_c, 0, 81, 0
1, 48960, Note_on_c, 0, 86, 0
1, 48960, Note_on_c, 0, 84, 87
1, 48960, Control_c, 0, 64, 127
1, 48960, Note_on_c, 0, 81, 74
1, 49080, Note_on_c, 0, 81, 0
1, 49080, Note_on_c, 0, 84, 0
1, 49440, Tempo, 615385
1, 49440, Note_on_c, 0, 86, 70
1, 49480, Note_on_c, 0, 86, 0
1, 49480, Note_on_c, 0, 84, 66
1, 49520, Note_on_c, 0, 84, 0
1, 49520, Note_on_c, 0, 81, 64
1, 49560, Note_on_c, 0, 81, 0
1, 49560, Note_on_c, 0, 77, 62
1, 49600, Note_on_c, 0, 77, 0
1, 49600, Note_on_c, 0, 72, 58
1, 49640, Note_on_c, 0, 72, 0
1, 49640, Note_on_c, 0, 69, 56
1, 49680, Tempo, 526316
1, 49680, Note_on_c, 0, 69, 0
1, 49680, Note_on_c, 0, 60, 54
1, 49756, Control_c, 0, 64, 0
1, 49800, Note_on_c, 0, 60, 0
1, 50040, Tempo, 359109
1, 50040, Note_on_c, 0, 85, 61
1, 50160, Tempo, 435888
1, 50160, Note_on_c, 0, 85, 0
1, 50160, Note_on_c, 0, 81, 61
1, 50280, Note_on_c, 0, 81, 0
1, 50380, Tempo, 554324
1, 50400, Tempo, 514801
1, 50400, Note_on_c, 0, 73, 58
1, 50400, Note_on_c, 0, 77, 58
1, 50400, Control_c, 0, 64, 127
1, 50400, Note_on_c, 0, 67, 54
1, 50400, Note_on_c, 0, 57, 54
1, 50520, Note_on_c, 0, 57, 0
1, 50520, Note_on_c, 0, 67, 0
1, 50640, Note_on_c, 0, 77, 0
1, 50640, Note_on_c, 0, 73, 0
1, 50740, Tempo, 434153
1, 50760, Tempo, 361511
1, 50760, Note_on_c, 0, 85, 62
1, 50880, Tempo, 443033
1, 50880, Note_on_c, 0, 85, 0
1, 50880, Note_on_c, 0, 81, 62
1, 51000, Note_on_c, 0, 81, 0
1, 51120, Tempo, 509901
1, 51120, Note_on_c, 0, 73, 58
1, 51120, Note_on_c, 0, 77, 58
1, 51120, Note_on_c, 0, 67, 54
1, 51120, Note_on_c, 0, 57, 54
1, 51240, Note_on_c, 0, 57, 0
1, 51240, Note_on_c, 0, 67, 0
1, 51360, Note_on_c, 0, 77, 0
1, 51360, Note_on_c, 0, 73, 0
1, 51429, Control_c, 0, 64, 0
1, 51480, Tempo, 361511
1, 51480, Note_on_c, 0, 86, 62
1, 51600, Tempo, 446694
1, 51600, Note_on_c, 0, 86, 0
1, 51600, Note_on_c, 0, 81, 62
1, 51720, Note_on_c, 0, 81, 0
1, 51840, Tempo, 463965
1, 51840, Note_on_c, 0, 74, 61
1, 51840, Control_c, 0, 64, 127
1, 52080, Note_on_c, 0, 74, 0
1, 52320, Tempo, 574988
1, 52320, Note_on_c, 0, 65, 52
1, 52320, Note_on_c, 0, 74, 52
1, 52320, Note_on_c, 0, 57, 50
1, 52320, Note_on_c, 0, 50, 50
1, 52560, Note_on_c, 0, 50, 0
1, 52560, Note_on_c, 0, 65, 0
1, 52560, Note_on_c, 0, 74, 0
1, 52560, Note_on_c, 0, 57, 0
1, 52560, Note_on_c, 0, 65, 52
1, 52560, Note_on_c, 0, 74, 52
1, 52560, Note_on_c, 0, 50, 50
1, 52560, Note_on_c, 0, 57, 50
1, 52641, Tempo, 638298
1, 52800, Note_on_c, 0, 57, 0
1, 52800, Note_on_c, 0, 65, 0
1, 52800, Note_on_c, 0, 74, 0
1, 52800, Note_on_c, 0, 50, 0
1, 52800, Control_c, 0, 64, 0
1, 53040, Tempo, 497925
1, 53040, Control_c, 0, 91, 127
1, 53040, Control_c, 0, 91, 127
1, 53040, Note_on_c, 0, 46, 42
1, 53100, Note_on_c, 0, 46, 0
1, 53100, Note_on_c, 0, 48, 42
1, 53160, Note_on_c, 0, 48, 0
1, 53160, Note_on_c, 0, 46, 42
1, 53220, Note_on_c, 0, 46, 0
1, 53220, Note_on_c, 0, 48, 42
1, 53280, Tempo, 638298
1, 53280, Note_on_c, 0, 48, 0
1, 53280, Note_on_c, 0, 46, 61
1, 53520, Tempo, 456274
1, 53640, Note_on_c, 0, 52, 40
1, 53640, Note_on_c, 0, 62, 40
1, 53760, Note_on_c, 0, 62, 0
1, 53760, Note_on_c, 0, 52, 0
1, 53760, Note_on_c, 0, 64, 43
1, 53880, Note_on_c, 0, 64, 0
1, 54000, Tempo, 474308
1, 54000, Note_on_c, 0, 64, 49
1, 54000, Note_on_c, 0, 62, 49
1, 54000, Note_on_c, 0, 52, 49
1, 54480, Tempo, 502092
1, 54480, Note_on_c, 0, 46, 0
1, 54480, Note_on_c, 0, 46, 43
1, 54540, Note_on_c, 0, 46, 0
1, 54540, Note_on_c, 0, 48, 43
1, 54600, Note_on_c, 0, 48, 0
1, 54600, Note_on_c, 0, 46, 43
1, 54660, Note_on_c, 0, 46, 0
1, 54660, Note_on_c, 0, 48, 43
1, 54720, Tempo, 634921
1, 54720, Note_on_c, 0, 48, 0
1, 54720, Note_on_c, 0, 64, 0
1, 54720, Note_on_c, 0, 62, 0
1, 54720, Note_on_c, 0, 52, 0
1, 54720, Note_on_c, 0, 46, 61
1, 54960, Tempo, 459770
1, 55080, Note_on_c, 0, 62, 40
1, 55080, Note_on_c, 0, 52, 40
1, 55200, Note_on_c, 0, 52, 0
1, 55200, Note_on_c, 0, 62, 0
1, 55200, Note_on_c, 0, 64, 45
1, 55320, Note_on_c, 0, 64, 0
1, 55440, Tempo, 472441
1, 55440, Note_on_c, 0, 62, 48
1, 55440, Note_on_c, 0, 64, 48
1, 55440, Note_on_c, 0, 52, 48
1, 55920, Tempo, 502092
1, 55920, Note_on_c, 0, 46, 0
1, 55920, Note_on_c, 0, 46, 42
1, 55980, Note_on_c, 0, 46, 0
1, 55980, Note_on_c, 0, 48, 42
1, 56040, Note_on_c, 0, 48, 0
1, 56040, Note_on_c, 0, 46, 42
1, 56100, Note_on_c, 0, 46, 0
1, 56100, Note_on_c, 0, 48, 40
1, 56160, Tempo, 465116
1, 56160, Note_on_c, 0, 48, 0
1, 56160, Note_on_c, 0, 62, 0
1, 56160, Note_on_c, 0, 64, 0
1, 56160, Note_on_c, 0, 52, 0
1, 56160, Note_on_c, 0, 46, 64
1, 56400, Note_on_c, 0, 46, 0
1, 56520, Note_on_c, 0, 46, 45
1, 56640, Tempo, 497925
1, 56640, Note_on_c, 0, 46, 0
1, 56640, Note_on_c, 0, 64, 40
1, 56640, Note_on_c, 0, 62, 40
1, 56640, Note_on_c, 0, 52, 40
1, 56640, Note_on_c, 0, 48, 45
1, 56760, Note_on_c, 0, 48, 0
1, 56760, Note_on_c, 0, 64, 0
1, 56760, Note_on_c, 0, 62, 0
1, 56760, Note_on_c, 0, 52, 0
1, 56880, Tempo, 465116
1, 56880, Note_on_c, 0, 46, 63
1, 57120, Note_on_c, 0, 46, 0
1, 57240, Note_on_c, 0, 46, 43
1, 57360, Tempo, 493827
1, 57360, Note_on_c, 0, 46, 0
1, 57360, Note_on_c, 0, 64, 40
1, 57360, Note_on_c, 0, 62, 40
1, 57360, Note_on_c, 0, 52, 40
1, 57360, Note_on_c, 0, 48, 43
1, 57480, Note_on_c, 0, 48, 0
1, 57480, Note_on_c, 0, 64, 0
1, 57480, Note_on_c, 0, 62, 0
1, 57480, Note_on_c, 0, 52, 0
1, 57600, Tempo, 465694
1, 57600, Note_on_c, 0, 45, 60
1, 57960, Note_on_c, 0, 61, 48
1, 57960, Note_on_c, 0, 52, 48
1, 58080, Note_on_c, 0, 52, 0
1, 58080, Note_on_c, 0, 61, 0
1, 58080, Note_on_c, 0, 64, 48
1, 58200, Note_on_c, 0, 64, 0
1, 58320, Tempo, 487805
1, 58320, Note_on_c, 0, 52, 48
1, 58320, Note_on_c, 0, 61, 48
1, 58320, Note_on_c, 0, 64, 48
1, 58560, Tempo, 461538
1, 58560, Note_on_c, 0, 45, 0
1, 58560, Note_on_c, 0, 42, 48
1, 58680, Note_on_c, 0, 42, 0
1, 58800, Note_on_c, 0, 44, 48
1, 58920, Note_on_c, 0, 44, 0
1, 59040, Tempo, 483871
1, 59040, Note_on_c, 0, 52, 0
1, 59040, Note_on_c, 0, 61, 0
1, 59040, Note_on_c, 0, 64, 0
1, 59040, Control_c, 0, 91, 127
1, 59040, Note_on_c, 0, 40, 64
1, 59040, Control_c, 0, 91, 127
1, 59280, Note_on_c, 0, 40, 0
1, 59520, Tempo, 382482
1, 59520, Note_on_c, 0, 69, 76
1, 59520, Note_on_c, 0, 61, 76
1, 59520, Note_on_c, 0, 64, 76
1, 59580, Note_on_c, 0, 69, 0
1, 59580, Note_on_c, 0, 71, 69
1, 59640, Note_on_c, 0, 71, 0
1, 59640, Note_on_c, 0, 69, 69
1, 59700, Note_on_c, 0, 69, 0
1, 59700, Note_on_c, 0, 71, 69
1, 59760, Note_on_c, 0, 71, 0
1, 59760, Note_on_c, 0, 64, 0
1, 59760, Note_on_c, 0, 61, 0
1, 59760, Note_on_c, 0, 68, 68
1, 59760, Note_on_c, 0, 63, 67
1, 59760, Note_on_c, 0, 60, 67
1, 59880, Note_on_c, 0, 60, 0
1, 59880, Note_on_c, 0, 63, 0
1, 59880, Note_on_c, 0, 68, 0
1, 60240, Tempo, 388400
1, 60240, Note_on_c, 0, 67, 73
1, 60240, Note_on_c, 0, 62, 73
1, 60240, Note_on_c, 0, 59, 73
1, 60300, Note_on_c, 0, 67, 0
1, 60300, Note_on_c, 0, 69, 67
1, 60360, Note_on_c, 0, 69, 0
1, 60360, Note_on_c, 0, 67, 67
1, 60420, Note_on_c, 0, 67, 0
1, 60420, Note_on_c, 0, 69, 67
1, 60480, Note_on_c, 0, 69, 0
1, 60480, Note_on_c, 0, 59, 0
1, 60480, Note_on_c, 0, 62, 0
1, 60480, Note_on_c, 0, 66, 67
1, 60480, Note_on_c, 0, 58, 67
1, 60480, Note_on_c, 0, 61, 67
1, 60600, Note_on_c, 0, 61, 0
1, 60600, Note_on_c, 0, 58, 0
1, 60600, Note_on_c, 0, 66, 0
1, 60960, Tempo, 402685
1, 60960, Note_on_c, 0, 65, 70
1, 60960, Note_on_c, 0, 60, 70
1, 60960, Note_on_c, 0, 57, 70
1, 61020, Note_on_c, 0, 65, 0
1, 61020, Note_on_c, 0, 67, 62
1, 61080, Note_on_c, 0, 67, 0
1, 61080, Note_on_c, 0, 65, 62
1, 61140, Note_on_c, 0, 65, 0
1, 61140, Note_on_c, 0, 67, 62
1, 61200, Note_on_c, 0, 67, 0
1, 61200, Note_on_c, 0, 57, 0
1, 61200, Note_on_c, 0, 60, 0
1, 61200, Note_on_c, 0, 64, 62
1, 61200, Note_on_c, 0, 59, 62
1, 61200, Note_on_c, 0, 56, 62
1, 61320, Note_on_c, 0, 56, 0
1, 61320, Note_on_c, 0, 59, 0
1, 61320, Note_on_c, 0, 64, 0
1, 61440, Tempo, 419580
1, 61680, Tempo, 433213
1, 61680, Note_on_c, 0, 62, 68
1, 61680, Note_on_c, 0, 54, 68
1, 61680, Note_on_c, 0, 57, 68
1, 61740, Note_on_c, 0, 62, 0
1, 61740, Note_on_c, 0, 64, 60
1, 61800, Note_on_c, 0, 64, 0
1, 61800, Note_on_c, 0, 62, 60
1, 61860, Note_on_c, 0, 62, 0
1, 61860, Note_on_c, 0, 64, 60
1, 61920, Note_on_c, 0, 64, 0
1, 61920, Note_on_c, 0, 54, 0
1, 61920, Note_on_c, 0, 61, 60
1, 61920, Note_on_c, 0, 53, 61
1, 62040, Note_on_c, 0, 53, 0
1, 62040, Note_on_c, 0, 61, 0
1, 62040, Note_on_c, 0, 57, 0
1, 62400, Tempo, 442804
1, 62400, Note_on_c, 0, 60, 64
1, 62400, Note_on_c, 0, 57, 64
1, 62400, Note_on_c, 0, 52, 64
1, 62460, Note_on_c, 0, 60, 0
1, 62460, Note_on_c, 0, 64, 57
1, 62520, Note_on_c, 0, 64, 0
1, 62520, Note_on_c, 0, 60, 58
1, 62580, Note_on_c, 0, 60, 0
1, 62580, Note_on_c, 0, 64, 58
1, 62640, Note_on_c, 0, 64, 0
1, 62640, Note_on_c, 0, 52, 0
1, 62640, Note_on_c, 0, 59, 58
1, 62640, Note_on_c, 0, 51, 58
1, 62760, Note_on_c, 0, 51, 0
1, 62760, Note_on_c, 0, 59, 0
1, 62760, Note_on_c, 0, 57, 0
1, 63120, Tempo, 452830
1, 63120, Note_on_c, 0, 58, 62
1, 63120, Note_on_c, 0, 50, 62
1, 63120, Note_on_c, 0, 52, 62
1, 63180, Note_on_c, 0, 58, 0
1, 63180, Note_on_c, 0, 64, 55
1, 63240, Note_on_c, 0, 64, 0
1, 63240, Note_on_c, 0, 58, 54
1, 63300, Note_on_c, 0, 58, 0
1, 63300, Note_on_c, 0, 64, 54
1, 63360, Note_on_c, 0, 64, 0
1, 63360, Note_on_c, 0, 52, 0
1, 63360, Note_on_c, 0, 57, 68
1, 63360, Note_on_c, 0, 49, 56
1, 63480, Tempo, 478088
1, 63480, Note_on_c, 0, 49, 0
1, 63480, Note_on_c, 0, 57, 0
1, 63480, Note_on_c, 0, 50, 0
1, 63720, Note_on_c, 0, 40, 67
1, 63840, Tempo, 606061
1, 63840, Note_on_c, 0, 40, 0
1, 63840, Note_on_c, 0, 45, 75
1, 63960, Note_on_c, 0, 45, 0
1, 64080, Tempo, 483637
1, 64080, Note_on_c, 0, 33, 64
1, 64200, Note_on_c, 0, 33, 0
1, 64560, Tempo, 402685
1, 64560, Note_on_c, 0, 70, 74
1, 64560, Note_on_c, 0, 64, 72
1, 64560, Note_on_c, 0, 62, 72
1, 64620, Note_on_c, 0, 70, 0
1, 64620, Note_on_c, 0, 76, 64
1, 64680, Note_on_c, 0, 76, 0
1, 64680, Note_on_c, 0, 70, 64
1, 64740, Note_on_c, 0, 70, 0
1, 64740, Note_on_c, 0, 76, 64
1, 64800, Note_on_c, 0, 76, 0
1, 64800, Note_on_c, 0, 62, 0
1, 64800, Note_on_c, 0, 69, 64
1, 64800, Note_on_c, 0, 61, 64
1, 64920, Note_on_c, 0, 61, 0
1, 64920, Note_on_c, 0, 69, 0
1, 64920, Note_on_c, 0, 64, 0
1, 65160, Note_on_c, 0, 52, 61
1, 65280, Tempo, 547945
1, 65280, Note_on_c, 0, 52, 0
1, 65280, Note_on_c, 0, 57, 72
1, 65400, Note_on_c, 0, 57, 0
1, 65520, Tempo, 466926
1, 65520, Note_on_c, 0, 45, 56
1, 65640, Note_on_c, 0, 45, 0
1, 66000, Tempo, 404040
1, 66000, Note_on_c, 0, 82, 81
1, 66000, Note_on_c, 0, 74, 81
1, 66000, Note_on_c, 0, 76, 81
1, 66060, Note_on_c, 0, 82, 0
1, 66060, Note_on_c, 0, 88, 74
1, 66120, Note_on_c, 0, 88, 0
1, 66120, Note_on_c, 0, 82, 74
1, 66180, Note_on_c, 0, 82, 0
1, 66180, Note_on_c, 0, 88, 74
1, 66240, Note_on_c, 0, 88, 0
1, 66240, Note_on_c, 0, 74, 0
1, 66240, Note_on_c, 0, 81, 74
1, 66240, Note_on_c, 0, 73, 74
1, 66360, Note_on_c, 0, 73, 0
1, 66360, Note_on_c, 0, 81, 0
1, 66360, Note_on_c, 0, 76, 0
1, 66600, Note_on_c, 0, 64, 69
1, 66680, Tempo, 429892
1, 66720, Tempo, 558140
1, 66720, Note_on_c, 0, 64, 0
1, 66720, Note_on_c, 0, 69, 76
1, 66840, Note_on_c, 0, 69, 0
1, 66960, Tempo, 441176
1, 66960, Note_on_c, 0, 57, 55
1, 67080, Note_on_c, 0, 57, 0
1, 67440, Tempo, 383951
1, 67440, Note_on_c, 0, 94, 86
1, 67440, Note_on_c, 0, 88, 86
1, 67440, Note_on_c, 0, 86, 86
1, 67500, Note_on_c, 0, 94, 0
1, 67500, Note_on_c, 0, 100, 78
1, 67560, Note_on_c, 0, 100, 0
1, 67560, Note_on_c, 0, 94, 78
1, 67620, Note_on_c, 0, 94, 0
1, 67620, Note_on_c, 0, 100, 78
1, 67680, Note_on_c, 0, 100, 0
1, 67680, Note_on_c, 0, 86, 0
1, 67680, Note_on_c, 0, 93, 78
1, 67680, Note_on_c, 0, 85, 80
1, 67800, Note_on_c, 0, 85, 0
1, 67800, Note_on_c, 0, 93, 0
1, 67800, Note_on_c, 0, 88, 0
1, 68160, Note_on_c, 0, 82, 81
1, 68160, Note_on_c, 0, 74, 80
1, 68160, Note_on_c, 0, 76, 80
1, 68220, Note_on_c, 0, 82, 0
1, 68220, Note_on_c, 0, 88, 68
1, 68280, Note_on_c, 0, 88, 0
1, 68280, Note_on_c, 0, 82, 68
1, 68340, Note_on_c, 0, 82, 0
1, 68340, Note_on_c, 0, 88, 68
1, 68400, Note_on_c, 0, 88, 0
1, 68400, Note_on_c, 0, 74, 0
1, 68400, Note_on_c, 0, 81, 68
1, 68400, Note_on_c, 0, 73, 68
1, 68520, Note_on_c, 0, 73, 0
1, 68520, Note_on_c, 0, 81, 0
1, 68520, Note_on_c, 0, 76, 0
1, 68880, Tempo, 402361
1, 68880, Note_on_c, 0, 70, 69
1, 68880, Note_on_c, 0, 64, 68
1, 68880, Note_on_c, 0, 62, 68
1, 68940, Note_on_c, 0, 70, 0
1, 68940, Note_on_c, 0, 76, 55
1, 69000, Note_on_c, 0, 76, 0
1, 69000, Note_on_c, 0, 70, 55
1, 69060, Note_on_c, 0, 70, 0
1, 69060, Note_on_c, 0, 76, 55
1, 69120, Note_on_c, 0, 76, 0
1, 69120, Note_on_c, 0, 62, 0
1, 69120, Note_on_c, 0, 69, 55
1, 69120, Note_on_c, 0, 61, 56
1, 69240, Note_on_c, 0, 61, 0
1, 69240, Note_on_c, 0, 69, 0
1, 69240, Note_on_c, 0, 64, 0
1, 69600, Tempo, 636672
1, 69600, Note_on_c, 0, 58, 56
1, 69600, Note_on_c, 0, 52, 55
1, 69600, Note_on_c, 0, 50, 55
1, 69660, Note_on_c, 0, 58, 0
1, 69660, Note_on_c, 0, 64, 44
1, 69720, Note_on_c, 0, 64, 0
1, 69720, Note_on_c, 0, 58, 44
1, 69780, Note_on_c, 0, 58, 0
1, 69780, Note_on_c, 0, 64, 46
1, 69840, Note_on_c, 0, 64, 0
1, 69840, Note_on_c, 0, 50, 0
1, 69840, Note_on_c, 0, 57, 46
1, 69840, Note_on_c, 0, 49, 44
1, 69960, Note_on_c, 0, 49, 0
1, 69960, Note_on_c, 0, 57, 0
1, 69960, Note_on_c, 0, 52, 0
1, 70320, Tempo, 500000
1, 70320, Note_on_c, 0, 81, 49
1, 70320, Note_on_c, 0, 74, 48
1, 70380, Tempo, 450450
1, 70380, Note_on_c, 0, 74, 0
1, 70380, Note_on_c, 0, 81, 0
1, 70380, Note_on_c, 0, 82, 43
1, 70380, Note_on_c, 0, 77, 43
1, 70440, Note_on_c, 0, 77, 0
1, 70440, Note_on_c, 0, 82, 0
1, 70440, Note_on_c, 0, 81, 49
1, 70440, Note_on_c, 0, 74, 48
1, 70500, Note_on_c, 0, 74, 0
1, 70500, Note_on_c, 0, 81, 0
1, 70500, Note_on_c, 0, 82, 44
1, 70500, Note_on_c, 0, 77, 43
1, 70560, Tempo, 537875
1, 70560, Note_on_c, 0, 77, 0
1, 70560, Note_on_c, 0, 82, 0
1, 70560, Note_on_c, 0, 81, 57
1, 70560, Note_on_c, 0, 74, 55
1, 70594, Control_c, 0, 64, 127
1, 70680, Note_on_c, 0, 74, 0
1, 70680, Note_on_c, 0, 81, 0
1, 71040, Tempo, 579710
1, 71040, Note_on_c, 0, 82, 60
1, 71088, Note_on_c, 0, 82, 0
1, 71088, Note_on_c, 0, 81, 58
1, 71136, Note_on_c, 0, 81, 0
1, 71136, Note_on_c, 0, 77, 55
1, 71184, Note_on_c, 0, 77, 0
1, 71184, Note_on_c, 0, 74, 52
1, 71232, Note_on_c, 0, 74, 0
1, 71232, Note_on_c, 0, 69, 50
1, 71280, Note_on_c, 0, 69, 0
1, 71280, Note_on_c, 0, 62, 50
1, 71328, Control_c, 0, 64, 0
1, 71400, Note_on_c, 0, 62, 0
1, 71760, Tempo, 448531
1, 71760, Note_on_c, 0, 86, 50
1, 71760, Note_on_c, 0, 79, 50
1, 71820, Note_on_c, 0, 79, 0
1, 71820, Note_on_c, 0, 86, 0
1, 71820, Note_on_c, 0, 88, 46
1, 71820, Note_on_c, 0, 83, 46
1, 71880, Note_on_c, 0, 83, 0
1, 71880, Note_on_c, 0, 88, 0
1, 71880, Note_on_c, 0, 86, 50
1, 71880, Note_on_c, 0, 79, 50
1, 71940, Note_on_c, 0, 79, 0
1, 71940, Note_on_c, 0, 86, 0
1, 71940, Note_on_c, 0, 88, 48
1, 71940, Note_on_c, 0, 83, 46
1, 72000, Tempo, 540541
1, 72000, Note_on_c, 0, 83, 0
1, 72000, Note_on_c, 0, 88, 0
1, 72000, Note_on_c, 0, 86, 57
1, 72000, Note_on_c, 0, 79, 57
1, 72020, Control_c, 0, 64, 127
1, 72120, Note_on_c, 0, 79, 0
1, 72120, Note_on_c, 0, 86, 0
1, 72480, Tempo, 585366
1, 72480, Note_on_c, 0, 88, 56
1, 72528, Note_on_c, 0, 88, 0
1, 72528, Note_on_c, 0, 86, 55
1, 72576, Note_on_c, 0, 86, 0
1, 72576, Note_on_c, 0, 83, 52
1, 72624, Note_on_c, 0, 83, 0
1, 72624, Note_on_c, 0, 79, 51
1, 72672, Note_on_c, 0, 79, 0
1, 72672, Note_on_c, 0, 74, 49
1, 72720, Note_on_c, 0, 74, 0
1, 72720, Note_on_c, 0, 67, 45
1, 72772, Control_c, 0, 64, 0
1, 72840, Note_on_c, 0, 67, 0
1, 73200, Tempo, 446694
1, 73200, Note_on_c, 0, 81, 56
1, 73200, Note_on_c, 0, 74, 55
1, 73260, Note_on_c, 0, 74, 0
1, 73260, Note_on_c, 0, 81, 0
1, 73260, Note_on_c, 0, 82, 50
1, 73260, Note_on_c, 0, 77, 49
1, 73320, Note_on_c, 0, 77, 0
1, 73320, Note_on_c, 0, 82, 0
1, 73320, Note_on_c, 0, 81, 56
1, 73320, Note_on_c, 0, 74, 55
1, 73380, Note_on_c, 0, 74, 0
1, 73380, Note_on_c, 0, 81, 0
1, 73380, Note_on_c, 0, 82, 50
1, 73380, Note_on_c, 0, 77, 50
1, 73440, Tempo, 458050
1, 73440, Note_on_c, 0, 77, 0
1, 73440, Note_on_c, 0, 82, 0
1, 73440, Note_on_c, 0, 81, 60
1, 73440, Note_on_c, 0, 74, 58
1, 73560, Note_on_c, 0, 74, 0
1, 73560, Note_on_c, 0, 81, 0
1, 73920, Tempo, 444840
1, 73920, Note_on_c, 0, 77, 55
1, 73920, Note_on_c, 0, 70, 55
1, 73980, Note_on_c, 0, 70, 0
1, 73980, Note_on_c, 0, 77, 0
1, 73980, Note_on_c, 0, 79, 51
1, 73980, Note_on_c, 0, 74, 51
1, 74040, Note_on_c, 0, 74, 0
1, 74040, Note_on_c, 0, 79, 0
1, 74040, Note_on_c, 0, 77, 55
1, 74040, Note_on_c, 0, 70, 55
1, 74100, Note_on_c, 0, 70, 0
1, 74100, Note_on_c, 0, 77, 0
1, 74100, Note_on_c, 0, 79, 51
1, 74100, Note_on_c, 0, 74, 50
1, 74160, Tempo, 458050
1, 74160, Note_on_c, 0, 74, 0
1, 74160, Note_on_c, 0, 79, 0
1, 74160, Note_on_c, 0, 77, 64
1, 74160, Note_on_c, 0, 70, 62
1, 74280, Note_on_c, 0, 70, 0
1, 74280, Note_on_c, 0, 77, 0
1, 74640, Tempo, 444840
1, 74640, Note_on_c, 0, 81, 56
1, 74640, Note_on_c, 0, 74, 56
1, 74700, Note_on_c, 0, 74, 0
1, 74700, Note_on_c, 0, 81, 0
1, 74700, Note_on_c, 0, 82, 50
1, 74700, Note_on_c, 0, 77, 50
1, 74760, Note_on_c, 0, 77, 0
1, 74760, Note_on_c, 0, 82, 0
1, 74760, Note_on_c, 0, 81, 56
1, 74760, Note_on_c, 0, 74, 56
1, 74820, Note_on_c, 0, 74, 0
1, 74820, Note_on_c, 0, 81, 0
1, 74820, Note_on_c, 0, 82, 50
1, 74820, Note_on_c, 0, 77, 51
1, 74880, Tempo, 476228
1, 74880, Note_on_c, 0, 77, 0
1, 74880, Note_on_c, 0, 82, 0
1, 74880, Note_on_c, 0, 81, 61
1, 74880, Note_on_c, 0, 74, 64
1, 74903, Control_c, 0, 64, 127
1, 75000, Note_on_c, 0, 74, 0
1, 75000, Note_on_c, 0, 81, 0
1, 75360, Tempo, 491360
1, 75360, Note_on_c, 0, 82, 56
1, 75408, Note_on_c, 0, 82, 0
1, 75408, Note_on_c, 0, 81, 51
1, 75456, Note_on_c, 0, 81, 0
1, 75456, Note_on_c, 0, 77, 49
1, 75504, Note_on_c, 0, 77, 0
1, 75504, Note_on_c, 0, 74, 44
1, 75552, Note_on_c, 0, 74, 0
1, 75552, Note_on_c, 0, 69, 42
1, 75600, Note_on_c, 0, 69, 0
1, 75600, Note_on_c, 0, 62, 50
1, 75672, Control_c, 0, 64, 0
1, 75720, Note_on_c, 0, 62, 0
1, 76080, Tempo, 450450
1, 76080, Note_on_c, 0, 81, 55
1, 76080, Note_on_c, 0, 73, 55
1, 76140, Note_on_c, 0, 73, 0
1, 76140, Note_on_c, 0, 81, 0
1, 76140, Note_on_c, 0, 82, 51
1, 76140, Note_on_c, 0, 77, 50
1, 76200, Note_on_c, 0, 77, 0
1, 76200, Note_on_c, 0, 82, 0
1, 76200, Note_on_c, 0, 81, 55
1, 76200, Note_on_c, 0, 73, 55
1, 76260, Note_on_c, 0, 73, 0
1, 76260, Note_on_c, 0, 81, 0
1, 76260, Note_on_c, 0, 82, 51
1, 76260, Note_on_c, 0, 77, 51
1, 76320, Tempo, 540541
1, 76320, Note_on_c, 0, 77, 0
1, 76320, Note_on_c, 0, 82, 0
1, 76320, Note_on_c, 0, 81, 72
1, 76320, Note_on_c, 0, 73, 73
1, 76346, Control_c, 0, 64, 127
1, 76440, Note_on_c, 0, 73, 0
1, 76440, Note_on_c, 0, 81, 0
1, 76800, Tempo, 571973
1, 76800, Note_on_c, 0, 82, 64
1, 76848, Note_on_c, 0, 82, 0
1, 76848, Note_on_c, 0, 81, 61
1, 76896, Note_on_c, 0, 81, 0
1, 76896, Note_on_c, 0, 77, 57
1, 76944, Note_on_c, 0, 77, 0
1, 76944, Note_on_c, 0, 73, 54
1, 76992, Note_on_c, 0, 73, 0
1, 76992, Note_on_c, 0, 69, 51
1, 77040, Tempo, 517241
1, 77040, Note_on_c, 0, 69, 0
1, 77040, Note_on_c, 0, 61, 52
1, 77096, Control_c, 0, 64, 0
1, 77160, Note_on_c, 0, 61, 0
1, 77280, Tempo, 512821
1, 77520, Tempo, 452318
1, 77520, Note_on_c, 0, 84, 55
1, 77520, Note_on_c, 0, 77, 56
1, 77580, Note_on_c, 0, 77, 0
1, 77580, Note_on_c, 0, 84, 0
1, 77580, Note_on_c, 0, 86, 50
1, 77580, Note_on_c, 0, 81, 50
1, 77640, Note_on_c, 0, 81, 0
1, 77640, Note_on_c, 0, 86, 0
1, 77640, Note_on_c, 0, 84, 55
1, 77640, Note_on_c, 0, 77, 56
1, 77700, Note_on_c, 0, 77, 0
1, 77700, Note_on_c, 0, 84, 0
1, 77700, Note_on_c, 0, 86, 51
1, 77700, Note_on_c, 0, 81, 51
1, 77760, Tempo, 554324
1, 77760, Note_on_c, 0, 81, 0
1, 77760, Note_on_c, 0, 86, 0
1, 77760, Note_on_c, 0, 84, 87
1, 77760, Control_c, 0, 64, 127
1, 77760, Note_on_c, 0, 81, 74
1, 77880, Note_on_c, 0, 81, 0
1, 77880, Note_on_c, 0, 84, 0
1, 78240, Tempo, 597253
1, 78240, Note_on_c, 0, 86, 70
1, 78280, Note_on_c, 0, 86, 0
1, 78280, Note_on_c, 0, 84, 66
1, 78320, Note_on_c, 0, 84, 0
1, 78320, Note_on_c, 0, 81, 64
1, 78360, Note_on_c, 0, 81, 0
1, 78360, Note_on_c, 0, 77, 62
1, 78400, Note_on_c, 0, 77, 0
1, 78400, Note_on_c, 0, 72, 58
1, 78440, Note_on_c, 0, 72, 0
1, 78440, Note_on_c, 0, 69, 56
1, 78480, Tempo, 526316
1, 78480, Note_on_c, 0, 69, 0
1, 78480, Note_on_c, 0, 60, 54
1, 78556, Control_c, 0, 64, 0
1, 78600, Note_on_c, 0, 60, 0
1, 78840, Tempo, 359109
1, 78840, Note_on_c, 0, 85, 61
1, 78960, Tempo, 435888
1, 78960, Note_on_c, 0, 85, 0
1, 78960, Note_on_c, 0, 81, 61
1, 79080, Note_on_c, 0, 81, 0
1, 79180, Tempo, 554324
1, 79200, Tempo, 514801
1, 79200, Note_on_c, 0, 73, 58
1, 79200, Note_on_c, 0, 77, 58
1, 79200, Control_c, 0, 64, 127
1, 79200, Note_on_c, 0, 57, 54
1, 79200, Note_on_c, 0, 67, 54
1, 79320, Note_on_c, 0, 67, 0
1, 79320, Note_on_c, 0, 57, 0
1, 79440, Note_on_c, 0, 77, 0
1, 79440, Note_on_c, 0, 73, 0
1, 79540, Tempo, 434153
1, 79560, Tempo, 361511
1, 79560, Note_on_c, 0, 85, 62
1, 79680, Tempo, 443033
1, 79680, Note_on_c, 0, 85, 0
1, 79680, Note_on_c, 0, 81, 62
1, 79800, Note_on_c, 0, 81, 0
1, 79920, Tempo, 509901
1, 79920, Note_on_c, 0, 73, 58
1, 79920, Note_on_c, 0, 77, 58
1, 79920, Note_on_c, 0, 57, 54
1, 79920, Note_on_c, 0, 67, 54
1, 80040, Note_on_c, 0, 67, 0
1, 80040, Note_on_c, 0, 57, 0
1, 80160, Note_on_c, 0, 77, 0
1, 80160, Note_on_c, 0, 73, 0
1, 80217, Control_c, 0, 64, 0
1, 80280, Tempo, 361511
1, 80280, Note_on_c, 0, 86, 62
1, 80400, Tempo, 446694
1, 80400, Note_on_c, 0, 86, 0
1, 80400, Note_on_c, 0, 81, 62
1, 80520, Note_on_c, 0, 81, 0
1, 80640, Tempo, 463965
1, 80640, Note_on_c, 0, 74, 61
1, 80640, Control_c, 0, 64, 127
1, 80880, Note_on_c, 0, 74, 0
1, 81120, Tempo, 574988
1, 81120, Note_on_c, 0, 65, 52
1, 81120, Note_on_c, 0, 74, 52
1, 81120, Note_on_c, 0, 57, 50
1, 81120, Note_on_c, 0, 50, 50
1, 81360, Note_on_c, 0, 50, 0
1, 81360, Note_on_c, 0, 65, 0
1, 81360, Note_on_c, 0, 74, 0
1, 81360, Note_on_c, 0, 57, 0
1, 81360, Note_on_c, 0, 65, 52
1, 81360, Note_on_c, 0, 74, 52
1, 81360, Note_on_c, 0, 50, 50
1, 81360, Note_on_c, 0, 57, 50
1, 81441, Tempo, 638298
1, 81600, Note_on_c, 0, 57, 0
1, 81600, Note_on_c, 0, 65, 0
1, 81600, Note_on_c, 0, 74, 0
1, 81600, Note_on_c, 0, 50, 0
1, 81600, Control_c, 0, 64, 0
1, 81840, Tempo, 502092
1, 81840, Note_on_c, 0, 39, 45
1, 81900, Note_on_c, 0, 39, 0
1, 81900, Note_on_c, 0, 41, 45
1, 81960, Note_on_c, 0, 41, 0
1, 81960, Note_on_c, 0, 39, 45
1, 82020, Note_on_c, 0, 39, 0
1, 82020, Note_on_c, 0, 41, 45
1, 82080, Tempo, 638298
1, 82080, Note_on_c, 0, 41, 0
1, 82080, Note_on_c, 0, 39, 76
1, 82320, Tempo, 456274
1, 82440, Note_on_c, 0, 45, 38
1, 82440, Note_on_c, 0, 55, 38
1, 82560, Note_on_c, 0, 55, 0
1, 82560, Note_on_c, 0, 45, 0
1, 82560, Note_on_c, 0, 57, 42
1, 82680, Note_on_c, 0, 57, 0
1, 82800, Tempo, 474308
1, 82800, Note_on_c, 0, 57, 45
1, 82800, Note_on_c, 0, 55, 45
1, 82800, Note_on_c, 0, 45, 45
1, 83280, Tempo, 502092
1, 83280, Note_on_c, 0, 39, 0
1, 83280, Note_on_c, 0, 39, 45
1, 83340, Note_on_c, 0, 39, 0
1, 83340, Note_on_c, 0, 41, 45
1, 83400, Note_on_c, 0, 41, 0
1, 83400, Note_on_c, 0, 39, 45
1, 83460, Note_on_c, 0, 39, 0
1, 83460, Note_on_c, 0, 41, 45
1, 83520, Tempo, 634921
1, 83520, Note_on_c, 0, 41, 0
1, 83520, Note_on_c, 0, 57, 0
1, 83520, Note_on_c, 0, 55, 0
1, 83520, Note_on_c, 0, 45, 0
1, 83520, Note_on_c, 0, 39, 76
1, 83760, Tempo, 459770
1, 83880, Note_on_c, 0, 55, 37
1, 83880, Note_on_c, 0, 45, 37
1, 84000, Note_on_c, 0, 45, 0
1, 84000, Note_on_c, 0, 55, 0
1, 84000, Note_on_c, 0, 57, 39
1, 84120, Note_on_c, 0, 57, 0
1, 84240, Tempo, 472441
1, 84240, Note_on_c, 0, 57, 44
1, 84240, Note_on_c, 0, 55, 44
1, 84240, Note_on_c, 0, 45, 44
1, 84720, Tempo, 502092
1, 84720, Note_on_c, 0, 39, 0
1, 84720, Note_on_c, 0, 39, 42
1, 84780, Note_on_c, 0, 39, 0
1, 84780, Note_on_c, 0, 41, 42
1, 84840, Note_on_c, 0, 41, 0
1, 84840, Note_on_c, 0, 39, 42
1, 84900, Note_on_c, 0, 39, 0
1, 84900, Note_on_c, 0, 41, 42
1, 84960, Tempo, 451128
1, 84960, Note_on_c, 0, 41, 0
1, 84960, Note_on_c, 0, 57, 0
1, 84960, Note_on_c, 0, 55, 0
1, 84960, Note_on_c, 0, 45, 0
1, 84960, Note_on_c, 0, 39, 75
1, 85200, Note_on_c, 0, 39, 0
1, 85320, Note_on_c, 0, 39, 57
1, 85440, Tempo, 470588
1, 85440, Note_on_c, 0, 39, 0
1, 85440, Note_on_c, 0, 57, 40
1, 85440, Note_on_c, 0, 55, 40
1, 85440, Note_on_c, 0, 45, 40
1, 85440, Note_on_c, 0, 41, 57
1, 85560, Note_on_c, 0, 41, 0
1, 85560, Note_on_c, 0, 57, 0
1, 85560, Note_on_c, 0, 55, 0
1, 85560, Note_on_c, 0, 45, 0
1, 85680, Tempo, 449438
1, 85680, Note_on_c, 0, 39, 74
1, 85920, Note_on_c, 0, 39, 0
1, 86040, Note_on_c, 0, 39, 54
1, 86160, Tempo, 468750
1, 86160, Note_on_c, 0, 39, 0
1, 86160, Note_on_c, 0, 57, 38
1, 86160, Note_on_c, 0, 55, 38
1, 86160, Note_on_c, 0, 45, 38
1, 86160, Note_on_c, 0, 41, 54
1, 86280, Note_on_c, 0, 41, 0
1, 86280, Note_on_c, 0, 57, 0
1, 86280, Note_on_c, 0, 55, 0
1, 86280, Note_on_c, 0, 45, 0
1, 86400, Note_on_c, 0, 39, 64
1, 86640, Tempo, 449438
1, 86640, Note_on_c, 0, 39, 0
1, 86760, Note_on_c, 0, 39, 45
1, 86880, Note_on_c, 0, 39, 0
1, 86880, Note_on_c, 0, 57, 33
1, 86880, Note_on_c, 0, 55, 33
1, 86880, Note_on_c, 0, 45, 33
1, 86880, Note_on_c, 0, 41, 45
1, 87000, Note_on_c, 0, 41, 0
1, 87000, Note_on_c, 0, 57, 0
1, 87000, Note_on_c, 0, 55, 0
1, 87000, Note_on_c, 0, 45, 0
1, 87120, Tempo, 441176
1, 87120, Note_on_c, 0, 39, 55
1, 87360, Tempo, 449438
1, 87360, Note_on_c, 0, 39, 0
1, 87480, Note_on_c, 0, 39, 36
1, 87600, Note_on_c, 0, 39, 0
1, 87600, Note_on_c, 0, 55, 33
1, 87600, Note_on_c, 0, 45, 33
1, 87600, Note_on_c, 0, 57, 33
1, 87600, Note_on_c, 0, 41, 36
1, 87720, Note_on_c, 0, 41, 0
1, 87720, Note_on_c, 0, 55, 0
1, 87720, Note_on_c, 0, 45, 0
1, 87720, Note_on_c, 0, 57, 0
1, 87840, Note_on_c, 0, 38, 49
1, 87840, Control_c, 0, 64, 127
1, 88080, Tempo, 433589
1, 88080, Note_on_c, 0, 38, 0
1, 88200, Note_on_c, 0, 54, 36
1, 88200, Note_on_c, 0, 45, 37
1, 88320, Note_on_c, 0, 45, 0
1, 88320, Note_on_c, 0, 54, 0
1, 88320, Note_on_c, 0, 57, 36
1, 88320, Note_on_c, 0, 50, 37
1, 88440, Note_on_c, 0, 50, 0
1, 88440, Note_on_c, 0, 57, 0
1, 88560, Note_on_c, 0, 62, 43
1, 88560, Note_on_c, 0, 54, 43
1, 88680, Note_on_c, 0, 54, 0
1, 88680, Note_on_c, 0, 62, 0
1, 88800, Tempo, 439239
1, 88920, Note_on_c, 0, 66, 40
1, 88920, Note_on_c, 0, 57, 39
1, 89040, Note_on_c, 0, 57, 0
1, 89040, Note_on_c, 0, 66, 0
1, 89040, Note_on_c, 0, 69, 40
1, 89040, Note_on_c, 0, 62, 39
1, 89160, Note_on_c, 0, 62, 0
1, 89160, Note_on_c, 0, 69, 0
1, 89280, Note_on_c, 0, 74, 44
1, 89280, Note_on_c, 0, 66, 44
1, 89400, Note_on_c, 0, 66, 0
1, 89400, Note_on_c, 0, 74, 0
1, 89640, Note_on_c, 0, 66, 42
1, 89640, Note_on_c, 0, 57, 42
1, 89760, Note_on_c, 0, 57, 0
1, 89760, Note_on_c, 0, 66, 0
1, 89760, Note_on_c, 0, 69, 42
1, 89760, Note_on_c, 0, 62, 42
1, 89880, Note_on_c, 0, 62, 0
1, 89880, Note_on_c, 0, 69, 0
1, 90000, Note_on_c, 0, 74, 45
1, 90000, Note_on_c, 0, 66, 45
1, 90120, Note_on_c, 0, 66, 0
1, 90120, Note_on_c, 0, 74, 0
1, 90240, Tempo, 481309
1, 90360, Note_on_c, 0, 78, 42
1, 90360, Note_on_c, 0, 69, 42
1, 90480, Tempo, 505476
1, 90480, Note_on_c, 0, 69, 0
1, 90480, Note_on_c, 0, 78, 0
1, 90480, Note_on_c, 0, 81, 42
1, 90480, Note_on_c, 0, 74, 42
1, 90600, Note_on_c, 0, 74, 0
1, 90600, Note_on_c, 0, 81, 0
1, 90720, Tempo, 521739
1, 90720, Note_on_c, 0, 86, 44
1, 90720, Note_on_c, 0, 78, 43
1, 90840, Note_on_c, 0, 78, 0
1, 90840, Note_on_c, 0, 86, 0
1, 90956, Control_c, 0, 64, 0
1, 91440, Tempo, 612245
1, 91440, Note_on_c, 0, 55, 39
1, 91440, Note_on_c, 0, 52, 39
1, 91440, Note_on_c, 0, 62, 39
1, 91440, Note_on_c, 0, 58, 39
1, 91440, Note_on_c, 0, 33, 38
1, 91440, Note_on_c, 0, 45, 38
1, 91440, Control_c, 0, 64, 127
1, 91560, Note_on_c, 0, 45, 0
1, 91560, Note_on_c, 0, 52, 0
1, 91560, Note_on_c, 0, 62, 0
1, 91560, Note_on_c, 0, 55, 0
1, 91560, Note_on_c, 0, 33, 0
1, 91560, Note_on_c, 0, 58, 0
1, 91708, Control_c, 0, 64, 0
1, 92160, Note_on_c, 0, 62, 39
1, 92160, Note_on_c, 0, 54, 39
1, 92160, Note_on_c, 0, 57, 39
1, 92160, Note_on_c, 0, 26, 38
1, 92160, Control_c, 0, 64, 127
1, 92160, Note_on_c, 0, 38, 38
1, 92280, Note_on_c, 0, 38, 0
1, 92280, Note_on_c, 0, 57, 0
1, 92280, Note_on_c, 0, 62, 0
1, 92280, Note_on_c, 0, 54, 0
1, 92280, Note_on_c, 0, 26, 0
1, 92428, Control_c, 0, 64, 0
1, 92448, Marker_t, "Fine"
1, 92448, End_track
0, 0, End_of_file
