0, 0, Header, 0, 1, 480
1, 0, Start_track
1, 0, Title_t, "Grieg: Lyrische Stücke Op. 43 Nr. 6 Book III - An den Frühling"
1, 0, Copyright_t, "Copyright © 2007 by Bernd Krueger"
1, 0, Text_t, "Bernd Krueger"
1, 0, Text_t, "Allegro appassionato"
1, 0, Text_t, "Erstfassung,  nicht veröffentlicht: 24.5.2007\012"
1, 0, Text_t, "Erstellt: 14.9.2012\012"
1, 0, Text_t, "Dauer: 2:34 Minuten\012"
1, 0, Time_signature, 6, 2, 24, 8
1, 0, Key_signature, 6, "major"
1, 0, Tempo, 260926
1, 0, Program_c, 0, 0
1, 0, Program_c, 0, 0
1, 0, Program_c, 0, 0
1, 320, Control_c, 0, 64, 127
1, 480, Note_on_c, 0, 78, 15
1, 480, Note_on_c, 0, 85, 22
1, 480, Note_on_c, 0, 82, 15
1, 936, Note_on_c, 0, 82, 0
1, 936, Note_on_c, 0, 85, 0
1, 936, Note_on_c, 0, 78, 0
1, 960, Note_on_c, 0, 78, 15
1, 960, Note_on_c, 0, 85, 22
1, 960, Note_on_c, 0, 82, 15
1, 1416, Note_on_c, 0, 82, 0
1, 1416, Note_on_c, 0, 85, 0
1, 1416, Note_on_c, 0, 78, 0
1, 1440, Tempo, 258866
1, 1440, Note_on_c, 0, 78, 16
1, 1440, Note_on_c, 0, 85, 24
1, 1440, Note_on_c, 0, 82, 16
1, 1896, Note_on_c, 0, 82, 0
1, 1896, Note_on_c, 0, 85, 0
1, 1896, Note_on_c, 0, 78, 0
1, 1920, Note_on_c, 0, 78, 15
1, 1920, Note_on_c, 0, 85, 22
1, 1920, Note_on_c, 0, 82, 15
1, 2376, Note_on_c, 0, 82, 0
1, 2376, Note_on_c, 0, 85, 0
1, 2376, Note_on_c, 0, 78, 0
1, 2400, Tempo, 261974
1, 2400, Note_on_c, 0, 78, 15
1, 2400, Note_on_c, 0, 85, 22
1, 2400, Note_on_c, 0, 82, 15
1, 2856, Note_on_c, 0, 82, 0
1, 2856, Note_on_c, 0, 85, 0
1, 2856, Note_on_c, 0, 78, 0
1, 2880, Tempo, 260926
1, 2880, Control_c, 0, 64, 0
1, 3360, Note_on_c, 0, 78, 15
1, 3360, Note_on_c, 0, 85, 22
1, 3360, Note_on_c, 0, 82, 15
1, 3600, Control_c, 0, 64, 127
1, 3816, Note_on_c, 0, 82, 0
1, 3816, Note_on_c, 0, 85, 0
1, 3816, Note_on_c, 0, 78, 0
1, 3840, Note_on_c, 0, 78, 15
1, 3840, Note_on_c, 0, 85, 22
1, 3840, Note_on_c, 0, 82, 15
1, 4296, Note_on_c, 0, 82, 0
1, 4296, Note_on_c, 0, 85, 0
1, 4296, Note_on_c, 0, 78, 0
1, 4320, Tempo, 258866
1, 4320, Note_on_c, 0, 78, 16
1, 4320, Note_on_c, 0, 85, 24
1, 4320, Note_on_c, 0, 82, 16
1, 4776, Note_on_c, 0, 82, 0
1, 4776, Note_on_c, 0, 85, 0
1, 4776, Note_on_c, 0, 78, 0
1, 4800, Note_on_c, 0, 78, 14
1, 4800, Note_on_c, 0, 85, 21
1, 4800, Note_on_c, 0, 82, 14
1, 5256, Note_on_c, 0, 82, 0
1, 5256, Note_on_c, 0, 85, 0
1, 5256, Note_on_c, 0, 78, 0
1, 5280, Tempo, 261974
1, 5280, Note_on_c, 0, 78, 14
1, 5280, Note_on_c, 0, 85, 21
1, 5280, Note_on_c, 0, 82, 14
1, 5736, Note_on_c, 0, 82, 0
1, 5736, Note_on_c, 0, 85, 0
1, 5736, Note_on_c, 0, 78, 0
1, 5760, Tempo, 275229
1, 5760, Note_on_c, 0, 73, 35
1, 5760, Control_c, 0, 64, 0
1, 5986, Control_c, 0, 64, 127
1, 6240, Tempo, 260926
1, 6240, Note_on_c, 0, 78, 15
1, 6240, Note_on_c, 0, 85, 22
1, 6240, Note_on_c, 0, 82, 15
1, 6696, Note_on_c, 0, 82, 0
1, 6696, Note_on_c, 0, 85, 0
1, 6696, Note_on_c, 0, 78, 0
1, 6720, Note_on_c, 0, 78, 15
1, 6720, Note_on_c, 0, 85, 22
1, 6720, Note_on_c, 0, 82, 15
1, 7176, Note_on_c, 0, 82, 0
1, 7176, Note_on_c, 0, 85, 0
1, 7176, Note_on_c, 0, 78, 0
1, 7200, Tempo, 257843
1, 7200, Note_on_c, 0, 78, 16
1, 7200, Note_on_c, 0, 85, 24
1, 7200, Note_on_c, 0, 82, 16
1, 7656, Note_on_c, 0, 82, 0
1, 7656, Note_on_c, 0, 85, 0
1, 7656, Note_on_c, 0, 78, 0
1, 7680, Tempo, 259898
1, 7680, Note_on_c, 0, 78, 14
1, 7680, Note_on_c, 0, 85, 21
1, 7680, Note_on_c, 0, 82, 14
1, 7920, Note_on_c, 0, 73, 0
1, 7920, Note_on_c, 0, 75, 34
1, 8136, Note_on_c, 0, 78, 0
1, 8136, Note_on_c, 0, 82, 0
1, 8136, Note_on_c, 0, 85, 0
1, 8160, Tempo, 270673
1, 8160, Note_on_c, 0, 78, 14
1, 8160, Note_on_c, 0, 87, 21
1, 8160, Note_on_c, 0, 82, 14
1, 8616, Note_on_c, 0, 82, 0
1, 8616, Note_on_c, 0, 87, 0
1, 8616, Note_on_c, 0, 78, 0
1, 8640, Tempo, 258866
1, 8640, Note_on_c, 0, 75, 0
1, 8640, Note_on_c, 0, 75, 38
1, 8640, Control_c, 0, 64, 0
1, 8810, Control_c, 0, 64, 127
1, 9120, Tempo, 255831
1, 9120, Note_on_c, 0, 78, 16
1, 9120, Note_on_c, 0, 82, 16
1, 9120, Note_on_c, 0, 87, 24
1, 9576, Note_on_c, 0, 87, 0
1, 9576, Note_on_c, 0, 82, 0
1, 9576, Note_on_c, 0, 78, 0
1, 9600, Tempo, 258866
1, 9600, Note_on_c, 0, 78, 16
1, 9600, Note_on_c, 0, 82, 16
1, 9600, Note_on_c, 0, 87, 24
1, 10056, Note_on_c, 0, 87, 0
1, 10056, Note_on_c, 0, 82, 0
1, 10056, Note_on_c, 0, 78, 0
1, 10080, Tempo, 255831
1, 10080, Note_on_c, 0, 75, 0
1, 10080, Note_on_c, 0, 73, 35
1, 10123, Control_c, 0, 64, 0
1, 10391, Control_c, 0, 64, 127
1, 10560, Note_on_c, 0, 78, 16
1, 10560, Note_on_c, 0, 82, 16
1, 10560, Note_on_c, 0, 85, 26
1, 10800, Note_on_c, 0, 73, 0
1, 10800, Note_on_c, 0, 70, 33
1, 11016, Note_on_c, 0, 78, 0
1, 11016, Note_on_c, 0, 85, 0
1, 11016, Note_on_c, 0, 82, 0
1, 11040, Tempo, 266241
1, 11040, Note_on_c, 0, 73, 16
1, 11040, Note_on_c, 0, 82, 26
1, 11040, Note_on_c, 0, 78, 16
1, 11496, Note_on_c, 0, 78, 0
1, 11496, Note_on_c, 0, 82, 0
1, 11496, Note_on_c, 0, 73, 0
1, 11520, Tempo, 257843
1, 11520, Note_on_c, 0, 70, 0
1, 11520, Note_on_c, 0, 66, 37
1, 11520, Control_c, 0, 64, 0
1, 11920, Control_c, 0, 64, 127
1, 12000, Tempo, 255831
1, 12000, Note_on_c, 0, 71, 19
1, 12000, Note_on_c, 0, 75, 19
1, 12000, Note_on_c, 0, 78, 28
1, 12456, Note_on_c, 0, 78, 0
1, 12456, Note_on_c, 0, 75, 0
1, 12456, Note_on_c, 0, 71, 0
1, 12480, Tempo, 257843
1, 12480, Note_on_c, 0, 71, 19
1, 12480, Note_on_c, 0, 75, 19
1, 12480, Note_on_c, 0, 78, 28
1, 12936, Note_on_c, 0, 78, 0
1, 12936, Note_on_c, 0, 75, 0
1, 12936, Note_on_c, 0, 71, 0
1, 12960, Note_on_c, 0, 66, 0
1, 12960, Note_on_c, 0, 68, 35
1, 12972, Control_c, 0, 64, 0
1, 13307, Control_c, 0, 64, 127
1, 13440, Tempo, 255831
1, 13440, Note_on_c, 0, 71, 18
1, 13440, Note_on_c, 0, 75, 18
1, 13440, Note_on_c, 0, 80, 28
1, 13896, Note_on_c, 0, 80, 0
1, 13896, Note_on_c, 0, 75, 0
1, 13896, Note_on_c, 0, 71, 0
1, 13920, Tempo, 267833
1, 13920, Note_on_c, 0, 71, 18
1, 13920, Note_on_c, 0, 75, 18
1, 13920, Note_on_c, 0, 80, 27
1, 14376, Note_on_c, 0, 80, 0
1, 14376, Note_on_c, 0, 75, 0
1, 14376, Note_on_c, 0, 71, 0
1, 14400, Tempo, 255831
1, 14400, Note_on_c, 0, 68, 0
1, 14400, Note_on_c, 0, 70, 38
1, 14405, Control_c, 0, 64, 0
1, 14800, Control_c, 0, 64, 127
1, 14880, Tempo, 256827
1, 14880, Note_on_c, 0, 73, 16
1, 14880, Note_on_c, 0, 78, 16
1, 14880, Note_on_c, 0, 82, 24
1, 15336, Note_on_c, 0, 82, 0
1, 15336, Note_on_c, 0, 78, 0
1, 15336, Note_on_c, 0, 73, 0
1, 15360, Note_on_c, 0, 73, 16
1, 15360, Note_on_c, 0, 78, 16
1, 15360, Note_on_c, 0, 82, 24
1, 15816, Note_on_c, 0, 82, 0
1, 15816, Note_on_c, 0, 78, 0
1, 15816, Note_on_c, 0, 73, 0
1, 15840, Tempo, 252855
1, 15840, Note_on_c, 0, 73, 18
1, 15840, Note_on_c, 0, 78, 18
1, 15840, Note_on_c, 0, 82, 27
1, 16296, Note_on_c, 0, 82, 0
1, 16296, Note_on_c, 0, 78, 0
1, 16296, Note_on_c, 0, 73, 0
1, 16320, Tempo, 255831
1, 16320, Note_on_c, 0, 73, 16
1, 16320, Note_on_c, 0, 78, 16
1, 16320, Note_on_c, 0, 82, 24
1, 16776, Note_on_c, 0, 82, 0
1, 16776, Note_on_c, 0, 78, 0
1, 16776, Note_on_c, 0, 73, 0
1, 16800, Tempo, 268432
1, 16800, Note_on_c, 0, 73, 16
1, 16800, Note_on_c, 0, 78, 16
1, 16800, Note_on_c, 0, 82, 24
1, 17256, Note_on_c, 0, 82, 0
1, 17256, Note_on_c, 0, 78, 0
1, 17256, Note_on_c, 0, 73, 0
1, 17280, Tempo, 258866
1, 17280, Note_on_c, 0, 70, 0
1, 17280, Note_on_c, 0, 73, 39
1, 17280, Control_c, 0, 64, 0
1, 17707, Control_c, 0, 64, 127
1, 17760, Tempo, 255831
1, 17760, Note_on_c, 0, 78, 20
1, 17760, Note_on_c, 0, 85, 30
1, 17760, Note_on_c, 0, 82, 20
1, 18216, Note_on_c, 0, 82, 0
1, 18216, Note_on_c, 0, 85, 0
1, 18216, Note_on_c, 0, 78, 0
1, 18240, Tempo, 284225
1, 18240, Note_on_c, 0, 78, 20
1, 18240, Note_on_c, 0, 82, 20
1, 18240, Note_on_c, 0, 85, 30
1, 18696, Note_on_c, 0, 85, 0
1, 18696, Note_on_c, 0, 82, 0
1, 18696, Note_on_c, 0, 78, 0
1, 18720, Tempo, 256827
1, 18720, Note_on_c, 0, 73, 0
1, 18720, Note_on_c, 0, 78, 23
1, 18720, Note_on_c, 0, 82, 23
1, 18720, Note_on_c, 0, 89, 34
1, 18720, Note_on_c, 0, 77, 41
1, 18726, Control_c, 0, 64, 0
1, 18987, Control_c, 0, 64, 127
1, 19176, Note_on_c, 0, 89, 0
1, 19176, Note_on_c, 0, 78, 0
1, 19176, Note_on_c, 0, 82, 0
1, 19200, Tempo, 256717
1, 19200, Note_on_c, 0, 77, 0
1, 19200, Note_on_c, 0, 87, 32
1, 19200, Note_on_c, 0, 82, 21
1, 19200, Note_on_c, 0, 78, 21
1, 19200, Note_on_c, 0, 75, 39
1, 19656, Note_on_c, 0, 78, 0
1, 19656, Note_on_c, 0, 87, 0
1, 19656, Note_on_c, 0, 82, 0
1, 19680, Tempo, 263043
1, 19680, Note_on_c, 0, 75, 0
1, 19680, Note_on_c, 0, 78, 21
1, 19680, Note_on_c, 0, 82, 21
1, 19680, Note_on_c, 0, 85, 32
1, 19680, Note_on_c, 0, 73, 39
1, 20136, Note_on_c, 0, 85, 0
1, 20136, Note_on_c, 0, 78, 0
1, 20136, Note_on_c, 0, 82, 0
1, 20160, Tempo, 258866
1, 20160, Note_on_c, 0, 73, 0
1, 20160, Note_on_c, 0, 75, 44
1, 20164, Control_c, 0, 64, 0
1, 20400, Control_c, 0, 64, 127
1, 20640, Tempo, 254831
1, 20640, Note_on_c, 0, 78, 23
1, 20640, Note_on_c, 0, 87, 35
1, 20640, Note_on_c, 0, 82, 23
1, 20880, Note_on_c, 0, 75, 0
1, 20880, Note_on_c, 0, 73, 42
1, 21096, Note_on_c, 0, 78, 0
1, 21096, Note_on_c, 0, 82, 0
1, 21096, Note_on_c, 0, 87, 0
1, 21120, Tempo, 260926
1, 21120, Note_on_c, 0, 78, 21
1, 21120, Note_on_c, 0, 82, 21
1, 21120, Note_on_c, 0, 85, 33
1, 21576, Note_on_c, 0, 85, 0
1, 21576, Note_on_c, 0, 82, 0
1, 21576, Note_on_c, 0, 78, 0
1, 21600, Tempo, 258866
1, 21600, Note_on_c, 0, 73, 0
1, 21600, Note_on_c, 0, 70, 41
1, 21612, Control_c, 0, 64, 0
1, 21798, Control_c, 0, 64, 127
1, 22080, Tempo, 261974
1, 22080, Note_on_c, 0, 73, 23
1, 22080, Note_on_c, 0, 82, 34
1, 22080, Note_on_c, 0, 78, 29
1, 22320, Note_on_c, 0, 70, 0
1, 22320, Note_on_c, 0, 66, 39
1, 22536, Note_on_c, 0, 73, 0
1, 22536, Note_on_c, 0, 78, 0
1, 22536, Note_on_c, 0, 82, 0
1, 22560, Note_on_c, 0, 70, 21
1, 22560, Note_on_c, 0, 73, 21
1, 22560, Note_on_c, 0, 78, 32
1, 23016, Note_on_c, 0, 78, 0
1, 23016, Note_on_c, 0, 73, 0
1, 23016, Note_on_c, 0, 70, 0
1, 23040, Tempo, 261974
1, 23040, Note_on_c, 0, 66, 0
1, 23040, Note_on_c, 0, 66, 42
1, 23040, Control_c, 0, 64, 0
1, 23307, Control_c, 0, 64, 127
1, 23520, Tempo, 257843
1, 23520, Note_on_c, 0, 71, 20
1, 23520, Note_on_c, 0, 75, 20
1, 23520, Note_on_c, 0, 78, 30
1, 23976, Note_on_c, 0, 78, 0
1, 23976, Note_on_c, 0, 75, 0
1, 23976, Note_on_c, 0, 71, 0
1, 24000, Tempo, 275786
1, 24000, Note_on_c, 0, 71, 20
1, 24000, Note_on_c, 0, 75, 20
1, 24000, Note_on_c, 0, 78, 30
1, 24456, Note_on_c, 0, 78, 0
1, 24456, Note_on_c, 0, 75, 0
1, 24456, Note_on_c, 0, 71, 0
1, 24480, Tempo, 257843
1, 24480, Note_on_c, 0, 66, 0
1, 24480, Note_on_c, 0, 71, 23
1, 24480, Note_on_c, 0, 75, 23
1, 24480, Note_on_c, 0, 82, 35
1, 24480, Note_on_c, 0, 70, 42
1, 24490, Control_c, 0, 64, 0
1, 24936, Note_on_c, 0, 82, 0
1, 24936, Note_on_c, 0, 71, 0
1, 24936, Note_on_c, 0, 75, 0
1, 24960, Note_on_c, 0, 70, 0
1, 24960, Note_on_c, 0, 71, 20
1, 24960, Note_on_c, 0, 75, 20
1, 24960, Note_on_c, 0, 80, 31
1, 24960, Note_on_c, 0, 68, 37
1, 25416, Note_on_c, 0, 80, 0
1, 25416, Note_on_c, 0, 71, 0
1, 25416, Note_on_c, 0, 75, 0
1, 25440, Tempo, 264096
1, 25440, Note_on_c, 0, 68, 0
1, 25440, Note_on_c, 0, 71, 20
1, 25440, Note_on_c, 0, 75, 20
1, 25440, Note_on_c, 0, 78, 31
1, 25440, Note_on_c, 0, 66, 37
1, 25896, Note_on_c, 0, 78, 0
1, 25896, Note_on_c, 0, 71, 0
1, 25896, Note_on_c, 0, 75, 0
1, 25920, Tempo, 260926
1, 25920, Note_on_c, 0, 66, 0
1, 25920, Note_on_c, 0, 70, 42
1, 26107, Control_c, 0, 64, 127
1, 26400, Note_on_c, 0, 73, 20
1, 26400, Note_on_c, 0, 78, 20
1, 26400, Note_on_c, 0, 82, 30
1, 26856, Note_on_c, 0, 82, 0
1, 26856, Note_on_c, 0, 78, 0
1, 26856, Note_on_c, 0, 73, 0
1, 26880, Tempo, 258866
1, 26880, Note_on_c, 0, 73, 20
1, 26880, Note_on_c, 0, 78, 20
1, 26880, Note_on_c, 0, 82, 30
1, 27336, Note_on_c, 0, 82, 0
1, 27336, Note_on_c, 0, 78, 0
1, 27336, Note_on_c, 0, 73, 0
1, 27360, Tempo, 253829
1, 27360, Note_on_c, 0, 73, 21
1, 27360, Note_on_c, 0, 78, 21
1, 27360, Note_on_c, 0, 82, 33
1, 27816, Note_on_c, 0, 82, 0
1, 27816, Note_on_c, 0, 78, 0
1, 27816, Note_on_c, 0, 73, 0
1, 27840, Tempo, 256827
1, 27840, Note_on_c, 0, 73, 20
1, 27840, Note_on_c, 0, 78, 20
1, 27840, Note_on_c, 0, 82, 30
1, 28296, Note_on_c, 0, 82, 0
1, 28296, Note_on_c, 0, 78, 0
1, 28296, Note_on_c, 0, 73, 0
1, 28320, Tempo, 284954
1, 28320, Note_on_c, 0, 70, 0
1, 28320, Note_on_c, 0, 73, 20
1, 28320, Note_on_c, 0, 78, 20
1, 28320, Note_on_c, 0, 82, 30
1, 28776, Note_on_c, 0, 82, 0
1, 28776, Note_on_c, 0, 78, 0
1, 28776, Note_on_c, 0, 73, 0
1, 28800, Tempo, 260926
1, 28800, Note_on_c, 0, 70, 42
1, 28800, Control_c, 0, 64, 0
1, 29068, Control_c, 0, 64, 127
1, 29280, Note_on_c, 0, 74, 27
1, 29280, Note_on_c, 0, 78, 27
1, 29280, Note_on_c, 0, 82, 32
1, 29736, Note_on_c, 0, 82, 0
1, 29736, Note_on_c, 0, 78, 0
1, 29736, Note_on_c, 0, 74, 0
1, 29760, Tempo, 252855
1, 29760, Note_on_c, 0, 74, 27
1, 29760, Note_on_c, 0, 78, 27
1, 29760, Note_on_c, 0, 82, 32
1, 30216, Note_on_c, 0, 82, 0
1, 30216, Note_on_c, 0, 78, 0
1, 30216, Note_on_c, 0, 74, 0
1, 30240, Tempo, 260926
1, 30240, Note_on_c, 0, 62, 42
1, 30240, Note_on_c, 0, 54, 34
1, 30480, Tempo, 258866
1, 30720, Note_on_c, 0, 54, 0
1, 30720, Note_on_c, 0, 62, 0
1, 30720, Note_on_c, 0, 74, 30
1, 30720, Note_on_c, 0, 78, 30
1, 30720, Note_on_c, 0, 82, 36
1, 30960, Note_on_c, 0, 70, 0
1, 30960, Note_on_c, 0, 70, 49
1, 31176, Note_on_c, 0, 74, 0
1, 31176, Note_on_c, 0, 82, 0
1, 31176, Note_on_c, 0, 78, 0
1, 31200, Tempo, 265170
1, 31200, Note_on_c, 0, 74, 33
1, 31200, Note_on_c, 0, 78, 33
1, 31200, Note_on_c, 0, 82, 39
1, 31656, Note_on_c, 0, 82, 0
1, 31656, Note_on_c, 0, 78, 0
1, 31656, Note_on_c, 0, 74, 0
1, 31680, Tempo, 260926
1, 31680, Note_on_c, 0, 70, 0
1, 31680, Note_on_c, 0, 70, 52
1, 31680, Control_c, 0, 64, 0
1, 32027, Control_c, 0, 64, 127
1, 32160, Tempo, 258866
1, 32160, Note_on_c, 0, 75, 32
1, 32160, Note_on_c, 0, 78, 32
1, 32160, Note_on_c, 0, 82, 38
1, 32616, Note_on_c, 0, 82, 0
1, 32616, Note_on_c, 0, 78, 0
1, 32616, Note_on_c, 0, 75, 0
1, 32640, Tempo, 265170
1, 32640, Note_on_c, 0, 75, 32
1, 32640, Note_on_c, 0, 78, 32
1, 32640, Note_on_c, 0, 82, 38
1, 33096, Note_on_c, 0, 82, 0
1, 33096, Note_on_c, 0, 78, 0
1, 33096, Note_on_c, 0, 75, 0
1, 33120, Tempo, 260926
1, 33120, Note_on_c, 0, 70, 0
1, 33120, Note_on_c, 0, 63, 48
1, 33600, Tempo, 257843
1, 33600, Note_on_c, 0, 66, 27
1, 33600, Note_on_c, 0, 70, 27
1, 33600, Note_on_c, 0, 75, 33
1, 34056, Note_on_c, 0, 75, 0
1, 34056, Note_on_c, 0, 70, 0
1, 34056, Note_on_c, 0, 66, 0
1, 34080, Tempo, 266241
1, 34080, Note_on_c, 0, 66, 27
1, 34080, Note_on_c, 0, 70, 27
1, 34080, Note_on_c, 0, 75, 33
1, 34536, Note_on_c, 0, 75, 0
1, 34536, Note_on_c, 0, 70, 0
1, 34536, Note_on_c, 0, 66, 0
1, 34560, Tempo, 260926
1, 34560, Note_on_c, 0, 63, 0
1, 34560, Note_on_c, 0, 70, 42
1, 34560, Control_c, 0, 64, 0
1, 34828, Control_c, 0, 64, 127
1, 35040, Note_on_c, 0, 74, 27
1, 35040, Note_on_c, 0, 78, 27
1, 35040, Note_on_c, 0, 82, 32
1, 35496, Note_on_c, 0, 82, 0
1, 35496, Note_on_c, 0, 78, 0
1, 35496, Note_on_c, 0, 74, 0
1, 35520, Tempo, 252855
1, 35520, Note_on_c, 0, 74, 27
1, 35520, Note_on_c, 0, 78, 27
1, 35520, Note_on_c, 0, 82, 32
1, 35976, Note_on_c, 0, 82, 0
1, 35976, Note_on_c, 0, 78, 0
1, 35976, Note_on_c, 0, 74, 0
1, 36000, Tempo, 260926
1, 36000, Note_on_c, 0, 54, 34
1, 36000, Note_on_c, 0, 62, 42
1, 36240, Tempo, 258866
1, 36480, Note_on_c, 0, 62, 0
1, 36480, Note_on_c, 0, 54, 0
1, 36480, Note_on_c, 0, 70, 0
1, 36480, Note_on_c, 0, 74, 30
1, 36480, Note_on_c, 0, 78, 30
1, 36480, Note_on_c, 0, 83, 36
1, 36480, Note_on_c, 0, 71, 49
1, 36936, Note_on_c, 0, 83, 0
1, 36936, Note_on_c, 0, 74, 0
1, 36936, Note_on_c, 0, 78, 0
1, 36960, Tempo, 265170
1, 36960, Note_on_c, 0, 71, 0
1, 36960, Note_on_c, 0, 74, 33
1, 36960, Note_on_c, 0, 78, 33
1, 36960, Note_on_c, 0, 85, 39
1, 36960, Note_on_c, 0, 73, 49
1, 37416, Note_on_c, 0, 85, 0
1, 37416, Note_on_c, 0, 74, 0
1, 37416, Note_on_c, 0, 78, 0
1, 37440, Tempo, 260926
1, 37440, Note_on_c, 0, 73, 0
1, 37440, Note_on_c, 0, 70, 52
1, 37440, Control_c, 0, 64, 0
1, 37867, Control_c, 0, 64, 127
1, 37920, Tempo, 255831
1, 37920, Note_on_c, 0, 75, 35
1, 37920, Note_on_c, 0, 78, 35
1, 37920, Note_on_c, 0, 82, 42
1, 38376, Note_on_c, 0, 82, 0
1, 38376, Note_on_c, 0, 78, 0
1, 38376, Note_on_c, 0, 75, 0
1, 38400, Tempo, 265170
1, 38400, Note_on_c, 0, 75, 36
1, 38400, Note_on_c, 0, 78, 36
1, 38400, Note_on_c, 0, 82, 43
1, 38856, Note_on_c, 0, 82, 0
1, 38856, Note_on_c, 0, 78, 0
1, 38856, Note_on_c, 0, 75, 0
1, 38880, Tempo, 260926
1, 38880, Note_on_c, 0, 75, 37
1, 38880, Note_on_c, 0, 78, 37
1, 38880, Note_on_c, 0, 82, 45
1, 39336, Note_on_c, 0, 82, 0
1, 39336, Note_on_c, 0, 78, 0
1, 39336, Note_on_c, 0, 75, 0
1, 39360, Tempo, 257843
1, 39360, Note_on_c, 0, 75, 39
1, 39360, Note_on_c, 0, 78, 39
1, 39360, Note_on_c, 0, 82, 46
1, 39816, Note_on_c, 0, 82, 0
1, 39816, Note_on_c, 0, 78, 0
1, 39816, Note_on_c, 0, 75, 0
1, 39840, Tempo, 295537
1, 39840, Note_on_c, 0, 75, 40
1, 39840, Note_on_c, 0, 78, 40
1, 39840, Note_on_c, 0, 82, 48
1, 40296, Note_on_c, 0, 82, 0
1, 40296, Note_on_c, 0, 78, 0
1, 40296, Note_on_c, 0, 75, 0
1, 40320, Tempo, 268432
1, 40320, Note_on_c, 0, 70, 0
1, 40320, Note_on_c, 0, 70, 54
1, 40320, Control_c, 0, 64, 0
1, 40480, Control_c, 0, 64, 127
1, 40800, Note_on_c, 0, 74, 33
1, 40800, Note_on_c, 0, 78, 33
1, 40800, Note_on_c, 0, 82, 40
1, 41256, Note_on_c, 0, 82, 0
1, 41256, Note_on_c, 0, 78, 0
1, 41256, Note_on_c, 0, 74, 0
1, 41280, Tempo, 263043
1, 41280, Note_on_c, 0, 74, 33
1, 41280, Note_on_c, 0, 78, 33
1, 41280, Note_on_c, 0, 82, 40
1, 41736, Note_on_c, 0, 82, 0
1, 41736, Note_on_c, 0, 78, 0
1, 41736, Note_on_c, 0, 74, 0
1, 41760, Tempo, 271788
1, 41760, Note_on_c, 0, 74, 33
1, 41760, Note_on_c, 0, 78, 33
1, 41760, Note_on_c, 0, 82, 40
1, 42216, Note_on_c, 0, 82, 0
1, 42216, Note_on_c, 0, 78, 0
1, 42216, Note_on_c, 0, 74, 0
1, 42240, Tempo, 275875
1, 42240, Note_on_c, 0, 74, 34
1, 42240, Note_on_c, 0, 78, 34
1, 42240, Note_on_c, 0, 82, 41
1, 42412, Control_c, 0, 64, 0
1, 42480, Note_on_c, 0, 70, 0
1, 42480, Note_on_c, 0, 69, 48
1, 42696, Note_on_c, 0, 74, 0
1, 42696, Note_on_c, 0, 82, 0
1, 42696, Note_on_c, 0, 78, 0
1, 42720, Tempo, 292697
1, 42720, Note_on_c, 0, 74, 34
1, 42720, Note_on_c, 0, 78, 34
1, 42720, Note_on_c, 0, 81, 41
1, 42840, Tempo, 294855
1, 43176, Note_on_c, 0, 81, 0
1, 43176, Note_on_c, 0, 78, 0
1, 43176, Note_on_c, 0, 74, 0
1, 43200, Tempo, 261974
1, 43200, Note_on_c, 0, 69, 0
1, 43200, Note_on_c, 0, 69, 45
1, 43292, Control_c, 0, 64, 127
1, 43680, Tempo, 257843
1, 43680, Note_on_c, 0, 73, 33
1, 43680, Note_on_c, 0, 77, 33
1, 43680, Note_on_c, 0, 81, 39
1, 44136, Note_on_c, 0, 81, 0
1, 44136, Note_on_c, 0, 77, 0
1, 44136, Note_on_c, 0, 73, 0
1, 44160, Tempo, 265170
1, 44160, Note_on_c, 0, 73, 32
1, 44160, Note_on_c, 0, 77, 32
1, 44160, Note_on_c, 0, 81, 38
1, 44616, Note_on_c, 0, 81, 0
1, 44616, Note_on_c, 0, 77, 0
1, 44616, Note_on_c, 0, 73, 0
1, 44640, Tempo, 263043
1, 44640, Note_on_c, 0, 69, 0
1, 44640, Note_on_c, 0, 68, 44
1, 44652, Control_c, 0, 64, 0
1, 45006, Control_c, 0, 64, 127
1, 45120, Tempo, 259898
1, 45120, Note_on_c, 0, 73, 31
1, 45120, Note_on_c, 0, 77, 31
1, 45120, Note_on_c, 0, 80, 37
1, 45576, Note_on_c, 0, 80, 0
1, 45576, Note_on_c, 0, 77, 0
1, 45576, Note_on_c, 0, 73, 0
1, 45600, Tempo, 267344
1, 45600, Note_on_c, 0, 73, 31
1, 45600, Note_on_c, 0, 77, 31
1, 45600, Note_on_c, 0, 80, 37
1, 46056, Note_on_c, 0, 80, 0
1, 46056, Note_on_c, 0, 77, 0
1, 46056, Note_on_c, 0, 73, 0
1, 46080, Tempo, 261974
1, 46080, Note_on_c, 0, 68, 0
1, 46080, Note_on_c, 0, 68, 48
1, 46107, Control_c, 0, 64, 0
1, 46366, Control_c, 0, 64, 127
1, 46560, Tempo, 258866
1, 46560, Note_on_c, 0, 72, 33
1, 46560, Note_on_c, 0, 76, 33
1, 46560, Note_on_c, 0, 80, 39
1, 47016, Note_on_c, 0, 80, 0
1, 47016, Note_on_c, 0, 76, 0
1, 47016, Note_on_c, 0, 72, 0
1, 47040, Note_on_c, 0, 72, 33
1, 47040, Note_on_c, 0, 76, 33
1, 47040, Note_on_c, 0, 80, 39
1, 47496, Note_on_c, 0, 80, 0
1, 47496, Note_on_c, 0, 76, 0
1, 47496, Note_on_c, 0, 72, 0
1, 47520, Tempo, 253829
1, 47520, Note_on_c, 0, 68, 0
1, 47520, Note_on_c, 0, 70, 51
1, 47533, Control_c, 0, 64, 0
1, 48000, Tempo, 261974
1, 48000, Note_on_c, 0, 72, 33
1, 48000, Note_on_c, 0, 76, 33
1, 48000, Note_on_c, 0, 82, 39
1, 48238, Note_on_c, 0, 72, 0
1, 48240, Note_on_c, 0, 70, 0
1, 48240, Note_on_c, 0, 72, 50
1, 48456, Note_on_c, 0, 76, 0
1, 48456, Note_on_c, 0, 82, 0
1, 48480, Tempo, 268432
1, 48480, Note_on_c, 0, 76, 34
1, 48480, Note_on_c, 0, 84, 41
1, 48936, Note_on_c, 0, 84, 0
1, 48936, Note_on_c, 0, 76, 0
1, 48960, Tempo, 259898
1, 48960, Note_on_c, 0, 72, 0
1, 48960, Note_on_c, 0, 68, 57
1, 49120, Control_c, 0, 64, 127
1, 49440, Note_on_c, 0, 73, 34
1, 49440, Note_on_c, 0, 77, 34
1, 49440, Note_on_c, 0, 80, 41
1, 49896, Note_on_c, 0, 80, 0
1, 49896, Note_on_c, 0, 77, 0
1, 49896, Note_on_c, 0, 73, 0
1, 49920, Note_on_c, 0, 73, 34
1, 49920, Note_on_c, 0, 77, 34
1, 49920, Note_on_c, 0, 80, 41
1, 50376, Note_on_c, 0, 80, 0
1, 50376, Note_on_c, 0, 77, 0
1, 50376, Note_on_c, 0, 73, 0
1, 50400, Tempo, 266241
1, 50400, Note_on_c, 0, 68, 0
1, 50400, Note_on_c, 0, 89, 53
1, 50400, Note_on_c, 0, 77, 58
1, 50412, Control_c, 0, 64, 0
1, 50720, Control_c, 0, 64, 127
1, 50856, Note_on_c, 0, 89, 0
1, 50878, Note_on_c, 0, 77, 0
1, 50880, Tempo, 264096
1, 50880, Note_on_c, 0, 77, 39
1, 50880, Note_on_c, 0, 80, 39
1, 50880, Note_on_c, 0, 85, 47
1, 50880, Note_on_c, 0, 73, 56
1, 51336, Note_on_c, 0, 85, 0
1, 51336, Note_on_c, 0, 77, 0
1, 51336, Note_on_c, 0, 80, 0
1, 51360, Tempo, 266241
1, 51360, Note_on_c, 0, 73, 0
1, 51360, Note_on_c, 0, 77, 39
1, 51360, Note_on_c, 0, 80, 39
1, 51360, Note_on_c, 0, 84, 47
1, 51360, Note_on_c, 0, 72, 56
1, 51816, Note_on_c, 0, 84, 0
1, 51816, Note_on_c, 0, 77, 0
1, 51816, Note_on_c, 0, 80, 0
1, 51840, Tempo, 260926
1, 51840, Note_on_c, 0, 72, 0
1, 51840, Note_on_c, 0, 71, 57
1, 51840, Control_c, 0, 64, 0
1, 52115, Control_c, 0, 64, 127
1, 52320, Note_on_c, 0, 73, 38
1, 52320, Note_on_c, 0, 77, 38
1, 52320, Note_on_c, 0, 83, 45
1, 52776, Note_on_c, 0, 83, 0
1, 52776, Note_on_c, 0, 77, 0
1, 52776, Note_on_c, 0, 73, 0
1, 52800, Note_on_c, 0, 73, 38
1, 52800, Note_on_c, 0, 77, 38
1, 52800, Note_on_c, 0, 83, 45
1, 53256, Note_on_c, 0, 83, 0
1, 53256, Note_on_c, 0, 77, 0
1, 53256, Note_on_c, 0, 73, 0
1, 53280, Tempo, 256827
1, 53280, Note_on_c, 0, 73, 39
1, 53280, Note_on_c, 0, 77, 39
1, 53280, Note_on_c, 0, 83, 47
1, 53736, Note_on_c, 0, 83, 0
1, 53736, Note_on_c, 0, 77, 0
1, 53736, Note_on_c, 0, 73, 0
1, 53760, Tempo, 260926
1, 53760, Note_on_c, 0, 71, 0
1, 53760, Note_on_c, 0, 73, 37
1, 53760, Note_on_c, 0, 77, 37
1, 53760, Note_on_c, 0, 82, 44
1, 53760, Note_on_c, 0, 70, 53
1, 53765, Control_c, 0, 64, 0
1, 54216, Note_on_c, 0, 82, 0
1, 54216, Note_on_c, 0, 73, 0
1, 54216, Note_on_c, 0, 77, 0
1, 54240, Tempo, 282074
1, 54240, Note_on_c, 0, 70, 0
1, 54240, Note_on_c, 0, 73, 37
1, 54240, Note_on_c, 0, 77, 37
1, 54240, Note_on_c, 0, 81, 44
1, 54240, Note_on_c, 0, 69, 53
1, 54696, Note_on_c, 0, 81, 0
1, 54696, Note_on_c, 0, 73, 0
1, 54696, Note_on_c, 0, 77, 0
1, 54720, Tempo, 260926
1, 54720, Note_on_c, 0, 69, 0
1, 54720, Note_on_c, 0, 69, 55
1, 54720, Control_c, 0, 64, 127
1, 55200, Tempo, 257843
1, 55200, Note_on_c, 0, 73, 37
1, 55200, Note_on_c, 0, 77, 37
1, 55200, Note_on_c, 0, 81, 44
1, 55656, Note_on_c, 0, 81, 0
1, 55656, Note_on_c, 0, 77, 0
1, 55656, Note_on_c, 0, 73, 0
1, 55680, Tempo, 260926
1, 55680, Note_on_c, 0, 73, 37
1, 55680, Note_on_c, 0, 77, 37
1, 55680, Note_on_c, 0, 81, 44
1, 56136, Note_on_c, 0, 81, 0
1, 56136, Note_on_c, 0, 77, 0
1, 56136, Note_on_c, 0, 73, 0
1, 56160, Tempo, 259898
1, 56160, Note_on_c, 0, 69, 0
1, 56160, Note_on_c, 0, 68, 56
1, 56183, Control_c, 0, 64, 0
1, 56640, Tempo, 256827
1, 56640, Note_on_c, 0, 73, 37
1, 56640, Note_on_c, 0, 77, 37
1, 56640, Note_on_c, 0, 80, 44
1, 57096, Note_on_c, 0, 80, 0
1, 57096, Note_on_c, 0, 77, 0
1, 57096, Note_on_c, 0, 73, 0
1, 57120, Tempo, 264096
1, 57120, Note_on_c, 0, 68, 0
1, 57120, Note_on_c, 0, 73, 37
1, 57120, Note_on_c, 0, 77, 37
1, 57120, Note_on_c, 0, 81, 44
1, 57120, Note_on_c, 0, 69, 58
1, 57576, Note_on_c, 0, 81, 0
1, 57576, Note_on_c, 0, 73, 0
1, 57576, Note_on_c, 0, 77, 0
1, 57600, Tempo, 259898
1, 57600, Note_on_c, 0, 69, 0
1, 57600, Note_on_c, 0, 70, 57
1, 57760, Control_c, 0, 64, 127
1, 58080, Tempo, 256827
1, 58080, Note_on_c, 0, 75, 37
1, 58080, Note_on_c, 0, 78, 37
1, 58080, Note_on_c, 0, 82, 44
1, 58536, Note_on_c, 0, 82, 0
1, 58536, Note_on_c, 0, 78, 0
1, 58536, Note_on_c, 0, 75, 0
1, 58560, Tempo, 295537
1, 58560, Note_on_c, 0, 75, 39
1, 58560, Note_on_c, 0, 78, 39
1, 58560, Note_on_c, 0, 82, 46
1, 59016, Note_on_c, 0, 82, 0
1, 59016, Note_on_c, 0, 78, 0
1, 59016, Note_on_c, 0, 75, 0
1, 59040, Tempo, 270893
1, 59040, Note_on_c, 0, 70, 0
1, 59040, Note_on_c, 0, 78, 44
1, 59040, Note_on_c, 0, 75, 44
1, 59040, Note_on_c, 0, 85, 52
1, 59040, Note_on_c, 0, 73, 60
1, 59052, Control_c, 0, 64, 0
1, 59400, Tempo, 279083
1, 59496, Note_on_c, 0, 85, 0
1, 59518, Note_on_c, 0, 73, 0
1, 59520, Note_on_c, 0, 75, 0
1, 59520, Note_on_c, 0, 78, 0
1, 59520, Note_on_c, 0, 75, 40
1, 59520, Note_on_c, 0, 78, 40
1, 59520, Note_on_c, 0, 84, 48
1, 59520, Note_on_c, 0, 72, 54
1, 59976, Note_on_c, 0, 84, 0
1, 59976, Note_on_c, 0, 75, 0
1, 59976, Note_on_c, 0, 78, 0
1, 60000, Tempo, 298522
1, 60000, Note_on_c, 0, 72, 0
1, 60000, Note_on_c, 0, 75, 40
1, 60000, Note_on_c, 0, 78, 40
1, 60000, Note_on_c, 0, 82, 48
1, 60000, Note_on_c, 0, 70, 54
1, 60456, Note_on_c, 0, 82, 0
1, 60456, Note_on_c, 0, 75, 0
1, 60456, Note_on_c, 0, 78, 0
1, 60480, Tempo, 274060
1, 60480, Note_on_c, 0, 70, 0
1, 60480, Note_on_c, 0, 73, 60
1, 60800, Control_c, 0, 64, 127
1, 60960, Tempo, 264096
1, 60960, Note_on_c, 0, 77, 41
1, 60960, Note_on_c, 0, 80, 41
1, 60960, Note_on_c, 0, 85, 48
1, 61416, Note_on_c, 0, 85, 0
1, 61416, Note_on_c, 0, 80, 0
1, 61416, Note_on_c, 0, 77, 0
1, 61440, Note_on_c, 0, 77, 36
1, 61440, Note_on_c, 0, 80, 36
1, 61440, Note_on_c, 0, 85, 44
1, 61896, Note_on_c, 0, 85, 0
1, 61896, Note_on_c, 0, 80, 0
1, 61896, Note_on_c, 0, 77, 0
1, 61920, Tempo, 267344
1, 61920, Note_on_c, 0, 77, 33
1, 61920, Note_on_c, 0, 80, 33
1, 61920, Note_on_c, 0, 85, 39
1, 62376, Note_on_c, 0, 85, 0
1, 62376, Note_on_c, 0, 80, 0
1, 62376, Note_on_c, 0, 77, 0
1, 62400, Note_on_c, 0, 77, 29
1, 62400, Note_on_c, 0, 80, 29
1, 62400, Note_on_c, 0, 85, 34
1, 62856, Note_on_c, 0, 85, 0
1, 62856, Note_on_c, 0, 80, 0
1, 62856, Note_on_c, 0, 77, 0
1, 62880, Tempo, 317427
1, 62880, Note_on_c, 0, 77, 26
1, 62880, Note_on_c, 0, 80, 26
1, 62880, Note_on_c, 0, 85, 31
1, 63336, Note_on_c, 0, 85, 0
1, 63336, Note_on_c, 0, 80, 0
1, 63336, Note_on_c, 0, 77, 0
1, 63360, Tempo, 275229
1, 63360, Note_on_c, 0, 73, 0
1, 63360, Note_on_c, 0, 73, 35
1, 63360, Control_c, 0, 64, 0
1, 63600, Control_c, 0, 64, 127
1, 63840, Tempo, 260926
1, 63840, Note_on_c, 0, 78, 15
1, 63840, Note_on_c, 0, 85, 22
1, 63840, Note_on_c, 0, 82, 15
1, 64296, Note_on_c, 0, 82, 0
1, 64296, Note_on_c, 0, 85, 0
1, 64296, Note_on_c, 0, 78, 0
1, 64320, Note_on_c, 0, 78, 15
1, 64320, Note_on_c, 0, 85, 22
1, 64320, Note_on_c, 0, 82, 15
1, 64776, Note_on_c, 0, 82, 0
1, 64776, Note_on_c, 0, 85, 0
1, 64776, Note_on_c, 0, 78, 0
1, 64800, Tempo, 257843
1, 64800, Note_on_c, 0, 78, 16
1, 64800, Note_on_c, 0, 85, 24
1, 64800, Note_on_c, 0, 82, 16
1, 65256, Note_on_c, 0, 82, 0
1, 65256, Note_on_c, 0, 85, 0
1, 65256, Note_on_c, 0, 78, 0
1, 65280, Tempo, 266679
1, 65280, Note_on_c, 0, 78, 14
1, 65280, Note_on_c, 0, 85, 21
1, 65280, Note_on_c, 0, 82, 14
1, 65520, Note_on_c, 0, 73, 0
1, 65520, Note_on_c, 0, 75, 34
1, 65736, Note_on_c, 0, 78, 0
1, 65736, Note_on_c, 0, 82, 0
1, 65736, Note_on_c, 0, 85, 0
1, 65760, Tempo, 303813
1, 65760, Note_on_c, 0, 78, 14
1, 65760, Note_on_c, 0, 87, 21
1, 65760, Note_on_c, 0, 82, 14
1, 66216, Note_on_c, 0, 82, 0
1, 66216, Note_on_c, 0, 87, 0
1, 66216, Note_on_c, 0, 78, 0
1, 66240, Tempo, 258866
1, 66240, Note_on_c, 0, 75, 0
1, 66240, Note_on_c, 0, 75, 38
1, 66240, Control_c, 0, 64, 0
1, 66452, Control_c, 0, 64, 127
1, 66720, Tempo, 255831
1, 66720, Note_on_c, 0, 78, 16
1, 66720, Note_on_c, 0, 82, 16
1, 66720, Note_on_c, 0, 87, 24
1, 67176, Note_on_c, 0, 87, 0
1, 67176, Note_on_c, 0, 82, 0
1, 67176, Note_on_c, 0, 78, 0
1, 67200, Tempo, 258866
1, 67200, Note_on_c, 0, 78, 16
1, 67200, Note_on_c, 0, 82, 16
1, 67200, Note_on_c, 0, 87, 24
1, 67656, Note_on_c, 0, 87, 0
1, 67656, Note_on_c, 0, 82, 0
1, 67656, Note_on_c, 0, 78, 0
1, 67680, Tempo, 255831
1, 67680, Note_on_c, 0, 75, 0
1, 67680, Note_on_c, 0, 73, 35
1, 67723, Control_c, 0, 64, 0
1, 67906, Control_c, 0, 64, 127
1, 68160, Note_on_c, 0, 78, 16
1, 68160, Note_on_c, 0, 82, 16
1, 68160, Note_on_c, 0, 85, 26
1, 68400, Note_on_c, 0, 73, 0
1, 68400, Note_on_c, 0, 70, 33
1, 68616, Note_on_c, 0, 78, 0
1, 68616, Note_on_c, 0, 85, 0
1, 68616, Note_on_c, 0, 82, 0
1, 68640, Tempo, 266241
1, 68640, Note_on_c, 0, 73, 16
1, 68640, Note_on_c, 0, 82, 26
1, 68640, Note_on_c, 0, 78, 16
1, 69096, Note_on_c, 0, 78, 0
1, 69096, Note_on_c, 0, 82, 0
1, 69096, Note_on_c, 0, 73, 0
1, 69120, Tempo, 257843
1, 69120, Note_on_c, 0, 70, 0
1, 69120, Note_on_c, 0, 66, 37
1, 69120, Control_c, 0, 64, 0
1, 69520, Control_c, 0, 64, 127
1, 69600, Tempo, 255831
1, 69600, Note_on_c, 0, 71, 19
1, 69600, Note_on_c, 0, 75, 19
1, 69600, Note_on_c, 0, 78, 28
1, 70056, Note_on_c, 0, 78, 0
1, 70056, Note_on_c, 0, 75, 0
1, 70056, Note_on_c, 0, 71, 0
1, 70080, Tempo, 257843
1, 70080, Note_on_c, 0, 71, 19
1, 70080, Note_on_c, 0, 75, 19
1, 70080, Note_on_c, 0, 78, 28
1, 70536, Note_on_c, 0, 78, 0
1, 70536, Note_on_c, 0, 75, 0
1, 70536, Note_on_c, 0, 71, 0
1, 70560, Note_on_c, 0, 66, 0
1, 70560, Note_on_c, 0, 68, 35
1, 70572, Control_c, 0, 64, 0
1, 70907, Control_c, 0, 64, 127
1, 71040, Tempo, 255831
1, 71040, Note_on_c, 0, 71, 18
1, 71040, Note_on_c, 0, 75, 18
1, 71040, Note_on_c, 0, 80, 28
1, 71496, Note_on_c, 0, 80, 0
1, 71496, Note_on_c, 0, 75, 0
1, 71496, Note_on_c, 0, 71, 0
1, 71520, Tempo, 258866
1, 71520, Note_on_c, 0, 71, 18
1, 71520, Note_on_c, 0, 75, 18
1, 71520, Note_on_c, 0, 80, 27
1, 71976, Note_on_c, 0, 80, 0
1, 71976, Note_on_c, 0, 75, 0
1, 71976, Note_on_c, 0, 71, 0
1, 72000, Tempo, 255831
1, 72000, Note_on_c, 0, 68, 0
1, 72000, Note_on_c, 0, 70, 38
1, 72005, Control_c, 0, 64, 0
1, 72400, Control_c, 0, 64, 127
1, 72480, Tempo, 256827
1, 72480, Note_on_c, 0, 73, 16
1, 72480, Note_on_c, 0, 78, 16
1, 72480, Note_on_c, 0, 82, 24
1, 72936, Note_on_c, 0, 82, 0
1, 72936, Note_on_c, 0, 78, 0
1, 72936, Note_on_c, 0, 73, 0
1, 72960, Note_on_c, 0, 73, 16
1, 72960, Note_on_c, 0, 78, 16
1, 72960, Note_on_c, 0, 82, 24
1, 73416, Note_on_c, 0, 82, 0
1, 73416, Note_on_c, 0, 78, 0
1, 73416, Note_on_c, 0, 73, 0
1, 73440, Tempo, 252855
1, 73440, Note_on_c, 0, 73, 18
1, 73440, Note_on_c, 0, 78, 18
1, 73440, Note_on_c, 0, 82, 27
1, 73896, Note_on_c, 0, 82, 0
1, 73896, Note_on_c, 0, 78, 0
1, 73896, Note_on_c, 0, 73, 0
1, 73920, Tempo, 255831
1, 73920, Note_on_c, 0, 73, 16
1, 73920, Note_on_c, 0, 78, 16
1, 73920, Note_on_c, 0, 82, 24
1, 74376, Note_on_c, 0, 82, 0
1, 74376, Note_on_c, 0, 78, 0
1, 74376, Note_on_c, 0, 73, 0
1, 74400, Tempo, 268432
1, 74400, Note_on_c, 0, 73, 16
1, 74400, Note_on_c, 0, 78, 16
1, 74400, Note_on_c, 0, 82, 24
1, 74856, Note_on_c, 0, 82, 0
1, 74856, Note_on_c, 0, 78, 0
1, 74856, Note_on_c, 0, 73, 0
1, 74880, Tempo, 258866
1, 74880, Note_on_c, 0, 70, 0
1, 74880, Note_on_c, 0, 73, 39
1, 74880, Control_c, 0, 64, 0
1, 75307, Control_c, 0, 64, 127
1, 75360, Tempo, 255831
1, 75360, Note_on_c, 0, 78, 20
1, 75360, Note_on_c, 0, 85, 30
1, 75360, Note_on_c, 0, 82, 20
1, 75816, Note_on_c, 0, 82, 0
1, 75816, Note_on_c, 0, 85, 0
1, 75816, Note_on_c, 0, 78, 0
1, 75840, Tempo, 281360
1, 75840, Note_on_c, 0, 78, 20
1, 75840, Note_on_c, 0, 82, 20
1, 75840, Note_on_c, 0, 85, 30
1, 76296, Note_on_c, 0, 85, 0
1, 76296, Note_on_c, 0, 82, 0
1, 76296, Note_on_c, 0, 78, 0
1, 76320, Tempo, 256827
1, 76320, Note_on_c, 0, 73, 0
1, 76320, Note_on_c, 0, 78, 23
1, 76320, Note_on_c, 0, 82, 23
1, 76320, Note_on_c, 0, 89, 34
1, 76320, Note_on_c, 0, 77, 41
1, 76326, Control_c, 0, 64, 0
1, 76720, Control_c, 0, 64, 127
1, 76776, Note_on_c, 0, 89, 0
1, 76776, Note_on_c, 0, 78, 0
1, 76776, Note_on_c, 0, 82, 0
1, 76800, Note_on_c, 0, 77, 0
1, 76800, Note_on_c, 0, 87, 32
1, 76800, Note_on_c, 0, 82, 21
1, 76800, Note_on_c, 0, 78, 21
1, 76800, Note_on_c, 0, 75, 39
1, 77256, Note_on_c, 0, 78, 0
1, 77256, Note_on_c, 0, 87, 0
1, 77256, Note_on_c, 0, 82, 0
1, 77280, Tempo, 263043
1, 77280, Note_on_c, 0, 75, 0
1, 77280, Note_on_c, 0, 78, 21
1, 77280, Note_on_c, 0, 82, 21
1, 77280, Note_on_c, 0, 85, 32
1, 77280, Note_on_c, 0, 73, 39
1, 77736, Note_on_c, 0, 85, 0
1, 77736, Note_on_c, 0, 78, 0
1, 77736, Note_on_c, 0, 82, 0
1, 77760, Tempo, 258866
1, 77760, Note_on_c, 0, 73, 0
1, 77760, Note_on_c, 0, 75, 44
1, 77760, Control_c, 0, 64, 0
1, 77972, Control_c, 0, 64, 127
1, 78240, Tempo, 254831
1, 78240, Note_on_c, 0, 78, 23
1, 78240, Note_on_c, 0, 87, 35
1, 78240, Note_on_c, 0, 82, 23
1, 78480, Note_on_c, 0, 75, 0
1, 78480, Note_on_c, 0, 73, 42
1, 78696, Note_on_c, 0, 78, 0
1, 78696, Note_on_c, 0, 82, 0
1, 78696, Note_on_c, 0, 87, 0
1, 78720, Tempo, 260926
1, 78720, Note_on_c, 0, 78, 21
1, 78720, Note_on_c, 0, 82, 21
1, 78720, Note_on_c, 0, 85, 33
1, 79176, Note_on_c, 0, 85, 0
1, 79176, Note_on_c, 0, 82, 0
1, 79176, Note_on_c, 0, 78, 0
1, 79200, Tempo, 258866
1, 79200, Note_on_c, 0, 73, 0
1, 79200, Note_on_c, 0, 70, 41
1, 79212, Control_c, 0, 64, 0
1, 79525, Control_c, 0, 64, 127
1, 79680, Tempo, 261974
1, 79680, Note_on_c, 0, 73, 23
1, 79680, Note_on_c, 0, 82, 34
1, 79680, Note_on_c, 0, 78, 23
1, 79920, Note_on_c, 0, 70, 0
1, 79920, Note_on_c, 0, 66, 39
1, 80136, Note_on_c, 0, 73, 0
1, 80136, Note_on_c, 0, 78, 0
1, 80136, Note_on_c, 0, 82, 0
1, 80160, Note_on_c, 0, 70, 21
1, 80160, Note_on_c, 0, 73, 21
1, 80160, Note_on_c, 0, 78, 32
1, 80616, Note_on_c, 0, 78, 0
1, 80616, Note_on_c, 0, 73, 0
1, 80616, Note_on_c, 0, 70, 0
1, 80640, Tempo, 261974
1, 80640, Note_on_c, 0, 66, 0
1, 80640, Note_on_c, 0, 66, 42
1, 80640, Control_c, 0, 64, 0
1, 80907, Control_c, 0, 64, 127
1, 81120, Tempo, 257843
1, 81120, Note_on_c, 0, 71, 20
1, 81120, Note_on_c, 0, 75, 20
1, 81120, Note_on_c, 0, 78, 30
1, 81576, Note_on_c, 0, 78, 0
1, 81576, Note_on_c, 0, 75, 0
1, 81576, Note_on_c, 0, 71, 0
1, 81600, Tempo, 266548
1, 81600, Note_on_c, 0, 71, 20
1, 81600, Note_on_c, 0, 75, 20
1, 81600, Note_on_c, 0, 78, 30
1, 82056, Note_on_c, 0, 78, 0
1, 82056, Note_on_c, 0, 75, 0
1, 82056, Note_on_c, 0, 71, 0
1, 82080, Tempo, 257843
1, 82080, Note_on_c, 0, 66, 0
1, 82080, Note_on_c, 0, 71, 23
1, 82080, Note_on_c, 0, 75, 23
1, 82080, Note_on_c, 0, 82, 35
1, 82080, Note_on_c, 0, 70, 42
1, 82090, Control_c, 0, 64, 0
1, 82536, Note_on_c, 0, 82, 0
1, 82536, Note_on_c, 0, 71, 0
1, 82536, Note_on_c, 0, 75, 0
1, 82560, Note_on_c, 0, 70, 0
1, 82560, Note_on_c, 0, 71, 20
1, 82560, Note_on_c, 0, 75, 20
1, 82560, Note_on_c, 0, 80, 31
1, 82560, Note_on_c, 0, 68, 37
1, 82560, Control_c, 0, 64, 127
1, 83016, Note_on_c, 0, 80, 0
1, 83016, Note_on_c, 0, 71, 0
1, 83016, Note_on_c, 0, 75, 0
1, 83040, Tempo, 264096
1, 83040, Note_on_c, 0, 68, 0
1, 83040, Note_on_c, 0, 71, 20
1, 83040, Note_on_c, 0, 75, 20
1, 83040, Note_on_c, 0, 78, 31
1, 83040, Note_on_c, 0, 66, 37
1, 83496, Note_on_c, 0, 78, 0
1, 83496, Note_on_c, 0, 71, 0
1, 83496, Note_on_c, 0, 75, 0
1, 83520, Tempo, 260926
1, 83520, Note_on_c, 0, 66, 0
1, 83520, Note_on_c, 0, 70, 42
1, 83520, Control_c, 0, 64, 0
1, 83947, Control_c, 0, 64, 127
1, 84000, Note_on_c, 0, 73, 20
1, 84000, Note_on_c, 0, 78, 20
1, 84000, Note_on_c, 0, 82, 30
1, 84456, Note_on_c, 0, 82, 0
1, 84456, Note_on_c, 0, 78, 0
1, 84456, Note_on_c, 0, 73, 0
1, 84480, Tempo, 258866
1, 84480, Note_on_c, 0, 73, 20
1, 84480, Note_on_c, 0, 78, 20
1, 84480, Note_on_c, 0, 82, 30
1, 84936, Note_on_c, 0, 82, 0
1, 84936, Note_on_c, 0, 78, 0
1, 84936, Note_on_c, 0, 73, 0
1, 84960, Tempo, 253829
1, 84960, Note_on_c, 0, 73, 21
1, 84960, Note_on_c, 0, 78, 21
1, 84960, Note_on_c, 0, 82, 33
1, 85416, Note_on_c, 0, 82, 0
1, 85416, Note_on_c, 0, 78, 0
1, 85416, Note_on_c, 0, 73, 0
1, 85440, Tempo, 256827
1, 85440, Note_on_c, 0, 73, 20
1, 85440, Note_on_c, 0, 78, 20
1, 85440, Note_on_c, 0, 82, 30
1, 85896, Note_on_c, 0, 82, 0
1, 85896, Note_on_c, 0, 78, 0
1, 85896, Note_on_c, 0, 73, 0
1, 85920, Tempo, 295537
1, 85920, Note_on_c, 0, 70, 0
1, 85920, Note_on_c, 0, 73, 20
1, 85920, Note_on_c, 0, 78, 20
1, 85920, Note_on_c, 0, 82, 30
1, 86376, Note_on_c, 0, 82, 0
1, 86376, Note_on_c, 0, 78, 0
1, 86376, Note_on_c, 0, 73, 0
1, 86400, Tempo, 260926
1, 86400, Note_on_c, 0, 70, 42
1, 86400, Control_c, 0, 64, 0
1, 86668, Control_c, 0, 64, 127
1, 86880, Note_on_c, 0, 74, 27
1, 86880, Note_on_c, 0, 78, 27
1, 86880, Note_on_c, 0, 82, 32
1, 87336, Note_on_c, 0, 82, 0
1, 87336, Note_on_c, 0, 78, 0
1, 87336, Note_on_c, 0, 74, 0
1, 87360, Tempo, 252855
1, 87360, Note_on_c, 0, 74, 27
1, 87360, Note_on_c, 0, 78, 27
1, 87360, Note_on_c, 0, 82, 32
1, 87816, Note_on_c, 0, 82, 0
1, 87816, Note_on_c, 0, 78, 0
1, 87816, Note_on_c, 0, 74, 0
1, 87840, Tempo, 260926
1, 87840, Note_on_c, 0, 54, 30
1, 87840, Note_on_c, 0, 62, 37
1, 88080, Tempo, 258866
1, 88320, Note_on_c, 0, 62, 0
1, 88320, Note_on_c, 0, 54, 0
1, 88320, Note_on_c, 0, 74, 30
1, 88320, Note_on_c, 0, 78, 30
1, 88320, Note_on_c, 0, 82, 36
1, 88560, Note_on_c, 0, 70, 0
1, 88560, Note_on_c, 0, 70, 49
1, 88776, Note_on_c, 0, 74, 0
1, 88776, Note_on_c, 0, 82, 0
1, 88776, Note_on_c, 0, 78, 0
1, 88800, Tempo, 281360
1, 88800, Note_on_c, 0, 74, 33
1, 88800, Note_on_c, 0, 78, 33
1, 88800, Note_on_c, 0, 82, 39
1, 89256, Note_on_c, 0, 82, 0
1, 89256, Note_on_c, 0, 78, 0
1, 89256, Note_on_c, 0, 74, 0
1, 89280, Tempo, 260926
1, 89280, Note_on_c, 0, 70, 0
1, 89280, Note_on_c, 0, 70, 52
1, 89280, Control_c, 0, 64, 0
1, 89627, Control_c, 0, 64, 127
1, 89760, Tempo, 258866
1, 89760, Note_on_c, 0, 75, 32
1, 89760, Note_on_c, 0, 78, 32
1, 89760, Note_on_c, 0, 82, 38
1, 90216, Note_on_c, 0, 82, 0
1, 90216, Note_on_c, 0, 78, 0
1, 90216, Note_on_c, 0, 75, 0
1, 90240, Tempo, 265170
1, 90240, Note_on_c, 0, 75, 32
1, 90240, Note_on_c, 0, 78, 32
1, 90240, Note_on_c, 0, 82, 38
1, 90696, Note_on_c, 0, 82, 0
1, 90696, Note_on_c, 0, 78, 0
1, 90696, Note_on_c, 0, 75, 0
1, 90720, Tempo, 260926
1, 90720, Note_on_c, 0, 70, 0
1, 90720, Note_on_c, 0, 63, 48
1, 91200, Tempo, 257843
1, 91200, Note_on_c, 0, 66, 27
1, 91200, Note_on_c, 0, 70, 27
1, 91200, Note_on_c, 0, 75, 33
1, 91656, Note_on_c, 0, 75, 0
1, 91656, Note_on_c, 0, 70, 0
1, 91656, Note_on_c, 0, 66, 0
1, 91680, Tempo, 266241
1, 91680, Note_on_c, 0, 66, 27
1, 91680, Note_on_c, 0, 70, 27
1, 91680, Note_on_c, 0, 75, 33
1, 92136, Note_on_c, 0, 75, 0
1, 92136, Note_on_c, 0, 70, 0
1, 92136, Note_on_c, 0, 66, 0
1, 92160, Tempo, 260926
1, 92160, Note_on_c, 0, 63, 0
1, 92160, Note_on_c, 0, 70, 42
1, 92160, Control_c, 0, 64, 0
1, 92428, Control_c, 0, 64, 127
1, 92640, Note_on_c, 0, 74, 27
1, 92640, Note_on_c, 0, 78, 27
1, 92640, Note_on_c, 0, 82, 32
1, 93096, Note_on_c, 0, 82, 0
1, 93096, Note_on_c, 0, 78, 0
1, 93096, Note_on_c, 0, 74, 0
1, 93120, Tempo, 252855
1, 93120, Note_on_c, 0, 74, 27
1, 93120, Note_on_c, 0, 78, 27
1, 93120, Note_on_c, 0, 82, 32
1, 93576, Note_on_c, 0, 82, 0
1, 93576, Note_on_c, 0, 78, 0
1, 93576, Note_on_c, 0, 74, 0
1, 93600, Tempo, 260926
1, 93600, Note_on_c, 0, 54, 30
1, 93600, Note_on_c, 0, 62, 37
1, 93840, Tempo, 258866
1, 94080, Note_on_c, 0, 62, 0
1, 94080, Note_on_c, 0, 54, 0
1, 94080, Note_on_c, 0, 70, 0
1, 94080, Note_on_c, 0, 74, 30
1, 94080, Note_on_c, 0, 78, 30
1, 94080, Note_on_c, 0, 83, 36
1, 94080, Note_on_c, 0, 71, 49
1, 94536, Note_on_c, 0, 83, 0
1, 94536, Note_on_c, 0, 74, 0
1, 94536, Note_on_c, 0, 78, 0
1, 94560, Tempo, 265170
1, 94560, Note_on_c, 0, 71, 0
1, 94560, Note_on_c, 0, 74, 33
1, 94560, Note_on_c, 0, 78, 33
1, 94560, Note_on_c, 0, 85, 39
1, 94560, Note_on_c, 0, 73, 49
1, 95016, Note_on_c, 0, 85, 0
1, 95016, Note_on_c, 0, 74, 0
1, 95016, Note_on_c, 0, 78, 0
1, 95040, Tempo, 260926
1, 95040, Note_on_c, 0, 73, 0
1, 95040, Note_on_c, 0, 70, 52
1, 95040, Control_c, 0, 64, 0
1, 95467, Control_c, 0, 64, 127
1, 95520, Tempo, 255831
1, 95520, Note_on_c, 0, 75, 35
1, 95520, Note_on_c, 0, 78, 35
1, 95520, Note_on_c, 0, 82, 42
1, 95976, Note_on_c, 0, 82, 0
1, 95976, Note_on_c, 0, 78, 0
1, 95976, Note_on_c, 0, 75, 0
1, 96000, Tempo, 265170
1, 96000, Note_on_c, 0, 75, 36
1, 96000, Note_on_c, 0, 78, 36
1, 96000, Note_on_c, 0, 82, 43
1, 96456, Note_on_c, 0, 82, 0
1, 96456, Note_on_c, 0, 78, 0
1, 96456, Note_on_c, 0, 75, 0
1, 96480, Tempo, 260926
1, 96480, Note_on_c, 0, 75, 37
1, 96480, Note_on_c, 0, 78, 37
1, 96480, Note_on_c, 0, 82, 45
1, 96936, Note_on_c, 0, 82, 0
1, 96936, Note_on_c, 0, 78, 0
1, 96936, Note_on_c, 0, 75, 0
1, 96960, Tempo, 257843
1, 96960, Note_on_c, 0, 75, 39
1, 96960, Note_on_c, 0, 78, 39
1, 96960, Note_on_c, 0, 82, 46
1, 97416, Note_on_c, 0, 82, 0
1, 97416, Note_on_c, 0, 78, 0
1, 97416, Note_on_c, 0, 75, 0
1, 97440, Tempo, 289394
1, 97440, Note_on_c, 0, 75, 40
1, 97440, Note_on_c, 0, 78, 40
1, 97440, Note_on_c, 0, 82, 48
1, 97896, Note_on_c, 0, 82, 0
1, 97896, Note_on_c, 0, 78, 0
1, 97896, Note_on_c, 0, 75, 0
1, 97920, Tempo, 268432
1, 97920, Note_on_c, 0, 70, 0
1, 97920, Note_on_c, 0, 70, 54
1, 97920, Control_c, 0, 64, 0
1, 98080, Control_c, 0, 64, 127
1, 98400, Note_on_c, 0, 74, 33
1, 98400, Note_on_c, 0, 78, 33
1, 98400, Note_on_c, 0, 82, 40
1, 98856, Note_on_c, 0, 82, 0
1, 98856, Note_on_c, 0, 78, 0
1, 98856, Note_on_c, 0, 74, 0
1, 98880, Tempo, 263043
1, 98880, Note_on_c, 0, 74, 33
1, 98880, Note_on_c, 0, 78, 33
1, 98880, Note_on_c, 0, 82, 40
1, 99336, Note_on_c, 0, 82, 0
1, 99336, Note_on_c, 0, 78, 0
1, 99336, Note_on_c, 0, 74, 0
1, 99360, Tempo, 275242
1, 99360, Note_on_c, 0, 74, 33
1, 99360, Note_on_c, 0, 78, 33
1, 99360, Note_on_c, 0, 82, 40
1, 99816, Note_on_c, 0, 82, 0
1, 99816, Note_on_c, 0, 78, 0
1, 99816, Note_on_c, 0, 74, 0
1, 99840, Note_on_c, 0, 74, 34
1, 99840, Note_on_c, 0, 78, 34
1, 99840, Note_on_c, 0, 82, 41
1, 99960, Tempo, 279733
1, 100012, Control_c, 0, 64, 0
1, 100080, Note_on_c, 0, 70, 0
1, 100080, Note_on_c, 0, 69, 48
1, 100296, Note_on_c, 0, 74, 0
1, 100296, Note_on_c, 0, 82, 0
1, 100296, Note_on_c, 0, 78, 0
1, 100320, Tempo, 291163
1, 100320, Note_on_c, 0, 74, 34
1, 100320, Note_on_c, 0, 78, 34
1, 100320, Note_on_c, 0, 81, 41
1, 100776, Note_on_c, 0, 81, 0
1, 100776, Note_on_c, 0, 78, 0
1, 100776, Note_on_c, 0, 74, 0
1, 100800, Tempo, 261974
1, 100800, Note_on_c, 0, 69, 0
1, 100800, Note_on_c, 0, 69, 45
1, 100892, Control_c, 0, 64, 127
1, 101280, Tempo, 257843
1, 101280, Note_on_c, 0, 73, 33
1, 101280, Note_on_c, 0, 77, 33
1, 101280, Note_on_c, 0, 81, 39
1, 101736, Note_on_c, 0, 81, 0
1, 101736, Note_on_c, 0, 77, 0
1, 101736, Note_on_c, 0, 73, 0
1, 101760, Tempo, 265170
1, 101760, Note_on_c, 0, 73, 32
1, 101760, Note_on_c, 0, 77, 32
1, 101760, Note_on_c, 0, 81, 38
1, 102216, Note_on_c, 0, 81, 0
1, 102216, Note_on_c, 0, 77, 0
1, 102216, Note_on_c, 0, 73, 0
1, 102240, Tempo, 263043
1, 102240, Note_on_c, 0, 69, 0
1, 102240, Note_on_c, 0, 68, 44
1, 102252, Control_c, 0, 64, 0
1, 102606, Control_c, 0, 64, 127
1, 102720, Tempo, 259898
1, 102720, Note_on_c, 0, 73, 31
1, 102720, Note_on_c, 0, 77, 31
1, 102720, Note_on_c, 0, 80, 37
1, 103176, Note_on_c, 0, 80, 0
1, 103176, Note_on_c, 0, 77, 0
1, 103176, Note_on_c, 0, 73, 0
1, 103200, Tempo, 267344
1, 103200, Note_on_c, 0, 73, 31
1, 103200, Note_on_c, 0, 77, 31
1, 103200, Note_on_c, 0, 80, 37
1, 103656, Note_on_c, 0, 80, 0
1, 103656, Note_on_c, 0, 77, 0
1, 103656, Note_on_c, 0, 73, 0
1, 103680, Tempo, 261974
1, 103680, Note_on_c, 0, 68, 0
1, 103680, Note_on_c, 0, 68, 48
1, 103707, Control_c, 0, 64, 0
1, 103966, Control_c, 0, 64, 127
1, 104160, Tempo, 258866
1, 104160, Note_on_c, 0, 72, 33
1, 104160, Note_on_c, 0, 76, 33
1, 104160, Note_on_c, 0, 80, 39
1, 104616, Note_on_c, 0, 80, 0
1, 104616, Note_on_c, 0, 76, 0
1, 104616, Note_on_c, 0, 72, 0
1, 104640, Note_on_c, 0, 72, 33
1, 104640, Note_on_c, 0, 76, 33
1, 104640, Note_on_c, 0, 80, 39
1, 105096, Note_on_c, 0, 80, 0
1, 105096, Note_on_c, 0, 76, 0
1, 105096, Note_on_c, 0, 72, 0
1, 105120, Tempo, 253829
1, 105120, Note_on_c, 0, 68, 0
1, 105120, Note_on_c, 0, 70, 51
1, 105133, Control_c, 0, 64, 0
1, 105600, Tempo, 261974
1, 105600, Note_on_c, 0, 72, 33
1, 105600, Note_on_c, 0, 76, 33
1, 105600, Note_on_c, 0, 82, 39
1, 105838, Note_on_c, 0, 72, 0
1, 105840, Note_on_c, 0, 70, 0
1, 105840, Note_on_c, 0, 72, 50
1, 106056, Note_on_c, 0, 76, 0
1, 106056, Note_on_c, 0, 82, 0
1, 106080, Tempo, 268432
1, 106080, Note_on_c, 0, 76, 34
1, 106080, Note_on_c, 0, 84, 41
1, 106536, Note_on_c, 0, 84, 0
1, 106536, Note_on_c, 0, 76, 0
1, 106560, Tempo, 259898
1, 106560, Note_on_c, 0, 72, 0
1, 106560, Note_on_c, 0, 68, 57
1, 106720, Control_c, 0, 64, 127
1, 107040, Note_on_c, 0, 73, 34
1, 107040, Note_on_c, 0, 77, 34
1, 107040, Note_on_c, 0, 80, 41
1, 107496, Note_on_c, 0, 80, 0
1, 107496, Note_on_c, 0, 77, 0
1, 107496, Note_on_c, 0, 73, 0
1, 107520, Tempo, 287894
1, 107520, Note_on_c, 0, 73, 34
1, 107520, Note_on_c, 0, 77, 34
1, 107520, Note_on_c, 0, 80, 41
1, 107976, Note_on_c, 0, 80, 0
1, 107976, Note_on_c, 0, 77, 0
1, 107976, Note_on_c, 0, 73, 0
1, 108000, Tempo, 266241
1, 108000, Note_on_c, 0, 68, 0
1, 108000, Note_on_c, 0, 89, 53
1, 108000, Note_on_c, 0, 77, 58
1, 108012, Control_c, 0, 64, 0
1, 108456, Note_on_c, 0, 89, 0
1, 108478, Note_on_c, 0, 77, 0
1, 108480, Tempo, 264096
1, 108480, Note_on_c, 0, 77, 39
1, 108480, Note_on_c, 0, 80, 39
1, 108480, Note_on_c, 0, 85, 47
1, 108480, Note_on_c, 0, 73, 56
1, 108936, Note_on_c, 0, 85, 0
1, 108936, Note_on_c, 0, 77, 0
1, 108936, Note_on_c, 0, 80, 0
1, 108960, Tempo, 297915
1, 108960, Note_on_c, 0, 73, 0
1, 108960, Note_on_c, 0, 77, 39
1, 108960, Note_on_c, 0, 80, 39
1, 108960, Note_on_c, 0, 84, 47
1, 108960, Note_on_c, 0, 72, 56
1, 109416, Note_on_c, 0, 84, 0
1, 109416, Note_on_c, 0, 77, 0
1, 109416, Note_on_c, 0, 80, 0
1, 109440, Tempo, 260926
1, 109440, Note_on_c, 0, 72, 0
1, 109440, Note_on_c, 0, 71, 57
1, 109600, Control_c, 0, 64, 127
1, 109920, Note_on_c, 0, 73, 38
1, 109920, Note_on_c, 0, 77, 38
1, 109920, Note_on_c, 0, 83, 45
1, 110376, Note_on_c, 0, 83, 0
1, 110376, Note_on_c, 0, 77, 0
1, 110376, Note_on_c, 0, 73, 0
1, 110400, Note_on_c, 0, 73, 38
1, 110400, Note_on_c, 0, 77, 38
1, 110400, Note_on_c, 0, 83, 45
1, 110856, Note_on_c, 0, 83, 0
1, 110856, Note_on_c, 0, 77, 0
1, 110856, Note_on_c, 0, 73, 0
1, 110880, Tempo, 256827
1, 110880, Note_on_c, 0, 73, 39
1, 110880, Note_on_c, 0, 77, 39
1, 110880, Note_on_c, 0, 83, 47
1, 111336, Note_on_c, 0, 83, 0
1, 111336, Note_on_c, 0, 77, 0
1, 111336, Note_on_c, 0, 73, 0
1, 111360, Tempo, 260926
1, 111360, Note_on_c, 0, 71, 0
1, 111360, Note_on_c, 0, 73, 37
1, 111360, Note_on_c, 0, 77, 37
1, 111360, Note_on_c, 0, 82, 44
1, 111360, Note_on_c, 0, 70, 53
1, 111365, Control_c, 0, 64, 0
1, 111816, Note_on_c, 0, 82, 0
1, 111816, Note_on_c, 0, 73, 0
1, 111816, Note_on_c, 0, 77, 0
1, 111840, Tempo, 272926
1, 111840, Note_on_c, 0, 70, 0
1, 111840, Note_on_c, 0, 73, 37
1, 111840, Note_on_c, 0, 77, 37
1, 111840, Note_on_c, 0, 81, 44
1, 111840, Note_on_c, 0, 69, 53
1, 112296, Note_on_c, 0, 81, 0
1, 112296, Note_on_c, 0, 73, 0
1, 112296, Note_on_c, 0, 77, 0
1, 112320, Tempo, 260926
1, 112320, Note_on_c, 0, 69, 0
1, 112320, Note_on_c, 0, 69, 55
1, 112457, Control_c, 0, 64, 127
1, 112800, Tempo, 257843
1, 112800, Note_on_c, 0, 73, 37
1, 112800, Note_on_c, 0, 77, 37
1, 112800, Note_on_c, 0, 81, 44
1, 113256, Note_on_c, 0, 81, 0
1, 113256, Note_on_c, 0, 77, 0
1, 113256, Note_on_c, 0, 73, 0
1, 113280, Tempo, 260926
1, 113280, Note_on_c, 0, 73, 37
1, 113280, Note_on_c, 0, 77, 37
1, 113280, Note_on_c, 0, 81, 44
1, 113736, Note_on_c, 0, 81, 0
1, 113736, Note_on_c, 0, 77, 0
1, 113736, Note_on_c, 0, 73, 0
1, 113760, Tempo, 259898
1, 113760, Note_on_c, 0, 69, 0
1, 113760, Note_on_c, 0, 68, 56
1, 113783, Control_c, 0, 64, 0
1, 114240, Tempo, 256827
1, 114240, Note_on_c, 0, 73, 37
1, 114240, Note_on_c, 0, 77, 37
1, 114240, Note_on_c, 0, 80, 44
1, 114696, Note_on_c, 0, 80, 0
1, 114696, Note_on_c, 0, 77, 0
1, 114696, Note_on_c, 0, 73, 0
1, 114720, Tempo, 264096
1, 114720, Note_on_c, 0, 68, 0
1, 114720, Note_on_c, 0, 73, 37
1, 114720, Note_on_c, 0, 77, 37
1, 114720, Note_on_c, 0, 81, 44
1, 114720, Note_on_c, 0, 69, 58
1, 115176, Note_on_c, 0, 81, 0
1, 115176, Note_on_c, 0, 73, 0
1, 115176, Note_on_c, 0, 77, 0
1, 115200, Tempo, 259898
1, 115200, Note_on_c, 0, 69, 0
1, 115200, Note_on_c, 0, 70, 57
1, 115360, Control_c, 0, 64, 127
1, 115680, Tempo, 256827
1, 115680, Note_on_c, 0, 75, 37
1, 115680, Note_on_c, 0, 78, 37
1, 115680, Note_on_c, 0, 82, 44
1, 116136, Note_on_c, 0, 82, 0
1, 116136, Note_on_c, 0, 78, 0
1, 116136, Note_on_c, 0, 75, 0
1, 116160, Tempo, 281783
1, 116160, Note_on_c, 0, 75, 39
1, 116160, Note_on_c, 0, 78, 39
1, 116160, Note_on_c, 0, 82, 46
1, 116616, Note_on_c, 0, 82, 0
1, 116616, Note_on_c, 0, 78, 0
1, 116616, Note_on_c, 0, 75, 0
1, 116640, Tempo, 272121
1, 116640, Note_on_c, 0, 70, 0
1, 116640, Note_on_c, 0, 78, 44
1, 116640, Note_on_c, 0, 75, 44
1, 116640, Note_on_c, 0, 85, 52
1, 116640, Note_on_c, 0, 73, 60
1, 116652, Control_c, 0, 64, 0
1, 117096, Note_on_c, 0, 85, 0
1, 117118, Note_on_c, 0, 73, 0
1, 117120, Note_on_c, 0, 75, 0
1, 117120, Note_on_c, 0, 78, 0
1, 117120, Note_on_c, 0, 75, 40
1, 117120, Note_on_c, 0, 78, 40
1, 117120, Note_on_c, 0, 84, 48
1, 117120, Note_on_c, 0, 72, 54
1, 117240, Tempo, 278435
1, 117576, Note_on_c, 0, 84, 0
1, 117576, Note_on_c, 0, 75, 0
1, 117576, Note_on_c, 0, 78, 0
1, 117600, Tempo, 291985
1, 117600, Note_on_c, 0, 72, 0
1, 117600, Note_on_c, 0, 75, 40
1, 117600, Note_on_c, 0, 78, 40
1, 117600, Note_on_c, 0, 82, 48
1, 117600, Note_on_c, 0, 70, 54
1, 118056, Note_on_c, 0, 82, 0
1, 118056, Note_on_c, 0, 75, 0
1, 118056, Note_on_c, 0, 78, 0
1, 118080, Tempo, 274060
1, 118080, Note_on_c, 0, 70, 0
1, 118080, Note_on_c, 0, 73, 60
1, 118126, Control_c, 0, 64, 127
1, 118560, Tempo, 264096
1, 118560, Note_on_c, 0, 77, 40
1, 118560, Note_on_c, 0, 80, 40
1, 118560, Note_on_c, 0, 85, 48
1, 119016, Note_on_c, 0, 85, 0
1, 119016, Note_on_c, 0, 80, 0
1, 119016, Note_on_c, 0, 77, 0
1, 119040, Note_on_c, 0, 77, 36
1, 119040, Note_on_c, 0, 80, 36
1, 119040, Note_on_c, 0, 85, 44
1, 119496, Note_on_c, 0, 85, 0
1, 119496, Note_on_c, 0, 80, 0
1, 119496, Note_on_c, 0, 77, 0
1, 119520, Tempo, 267344
1, 119520, Note_on_c, 0, 77, 33
1, 119520, Note_on_c, 0, 80, 33
1, 119520, Note_on_c, 0, 85, 40
1, 119976, Note_on_c, 0, 85, 0
1, 119976, Note_on_c, 0, 80, 0
1, 119976, Note_on_c, 0, 77, 0
1, 120000, Tempo, 278966
1, 120000, Note_on_c, 0, 77, 30
1, 120000, Note_on_c, 0, 80, 30
1, 120000, Note_on_c, 0, 85, 36
1, 120456, Note_on_c, 0, 85, 0
1, 120456, Note_on_c, 0, 80, 0
1, 120456, Note_on_c, 0, 77, 0
1, 120480, Note_on_c, 0, 77, 27
1, 120480, Note_on_c, 0, 80, 27
1, 120480, Note_on_c, 0, 85, 33
1, 120720, Control_c, 0, 64, 0
1, 120819, Control_c, 0, 64, 127
1, 120840, Note_on_c, 0, 85, 0
1, 120840, Note_on_c, 0, 80, 0
1, 120840, Note_on_c, 0, 77, 0
1, 120840, Note_on_c, 0, 37, 35
1, 120960, Tempo, 290599
1, 120960, Note_on_c, 0, 37, 0
1, 120960, Note_on_c, 0, 73, 0
1, 120960, Note_on_c, 0, 61, 40
1, 120960, Note_on_c, 0, 49, 37
1, 121440, Tempo, 261301
1, 121440, Note_on_c, 0, 53, 20
1, 121440, Note_on_c, 0, 56, 20
1, 121440, Note_on_c, 0, 59, 25
1, 121920, Note_on_c, 0, 59, 0
1, 121920, Note_on_c, 0, 53, 0
1, 121920, Note_on_c, 0, 56, 0
1, 121920, Note_on_c, 0, 53, 20
1, 121920, Note_on_c, 0, 56, 20
1, 121920, Note_on_c, 0, 59, 25
1, 122400, Tempo, 254140
1, 122400, Note_on_c, 0, 59, 0
1, 122400, Note_on_c, 0, 53, 0
1, 122400, Note_on_c, 0, 56, 0
1, 122400, Note_on_c, 0, 53, 20
1, 122400, Note_on_c, 0, 56, 20
1, 122400, Note_on_c, 0, 59, 25
1, 122880, Tempo, 260688
1, 122880, Note_on_c, 0, 59, 0
1, 122880, Note_on_c, 0, 53, 0
1, 122880, Note_on_c, 0, 56, 0
1, 122880, Note_on_c, 0, 53, 20
1, 122880, Note_on_c, 0, 56, 20
1, 122880, Note_on_c, 0, 59, 25
1, 123360, Tempo, 330615
1, 123360, Note_on_c, 0, 59, 0
1, 123360, Note_on_c, 0, 53, 0
1, 123360, Note_on_c, 0, 61, 0
1, 123360, Note_on_c, 0, 49, 0
1, 123360, Note_on_c, 0, 56, 0
1, 123360, Note_on_c, 0, 62, 39
1, 123360, Note_on_c, 0, 50, 37
1, 123368, Control_c, 0, 64, 0
1, 123840, Tempo, 266288
1, 123840, Note_on_c, 0, 50, 0
1, 123840, Note_on_c, 0, 62, 0
1, 123840, Note_on_c, 0, 62, 43
1, 123840, Note_on_c, 0, 50, 44
1, 123867, Control_c, 0, 64, 127
1, 124320, Tempo, 258264
1, 124320, Note_on_c, 0, 53, 20
1, 124320, Note_on_c, 0, 56, 20
1, 124320, Note_on_c, 0, 59, 25
1, 124800, Tempo, 258264
1, 124800, Note_on_c, 0, 59, 0
1, 124800, Note_on_c, 0, 53, 0
1, 124800, Note_on_c, 0, 56, 0
1, 124800, Note_on_c, 0, 53, 20
1, 124800, Note_on_c, 0, 56, 20
1, 124800, Note_on_c, 0, 59, 25
1, 125280, Tempo, 254140
1, 125280, Note_on_c, 0, 59, 0
1, 125280, Note_on_c, 0, 53, 0
1, 125280, Note_on_c, 0, 62, 0
1, 125280, Note_on_c, 0, 50, 0
1, 125280, Note_on_c, 0, 56, 0
1, 125280, Note_on_c, 0, 61, 37
1, 125280, Note_on_c, 0, 49, 37
1, 125284, Control_c, 0, 64, 0
1, 125734, Control_c, 0, 64, 127
1, 125760, Tempo, 260688
1, 125760, Note_on_c, 0, 53, 20
1, 125760, Note_on_c, 0, 56, 20
1, 125760, Note_on_c, 0, 59, 25
1, 126240, Tempo, 278966
1, 126240, Note_on_c, 0, 59, 0
1, 126240, Note_on_c, 0, 53, 0
1, 126240, Note_on_c, 0, 56, 0
1, 126240, Note_on_c, 0, 53, 20
1, 126240, Note_on_c, 0, 56, 20
1, 126240, Note_on_c, 0, 59, 25
1, 126694, Control_c, 0, 64, 0
1, 126720, Tempo, 270173
1, 126720, Note_on_c, 0, 59, 0
1, 126720, Note_on_c, 0, 53, 0
1, 126720, Note_on_c, 0, 61, 0
1, 126720, Note_on_c, 0, 49, 0
1, 126720, Note_on_c, 0, 56, 0
1, 126720, Note_on_c, 0, 62, 41
1, 126720, Note_on_c, 0, 50, 37
1, 127109, Control_c, 0, 64, 127
1, 127200, Tempo, 255308
1, 127200, Note_on_c, 0, 56, 20
1, 127200, Note_on_c, 0, 59, 25
1, 127680, Note_on_c, 0, 59, 0
1, 127680, Note_on_c, 0, 56, 0
1, 127680, Note_on_c, 0, 56, 20
1, 127680, Note_on_c, 0, 59, 25
1, 128160, Tempo, 251847
1, 128160, Note_on_c, 0, 59, 0
1, 128160, Note_on_c, 0, 62, 0
1, 128160, Note_on_c, 0, 50, 0
1, 128160, Note_on_c, 0, 56, 0
1, 128160, Note_on_c, 0, 66, 45
1, 128160, Note_on_c, 0, 54, 43
1, 128173, Control_c, 0, 64, 0
1, 128640, Tempo, 256487
1, 128640, Note_on_c, 0, 54, 0
1, 128640, Note_on_c, 0, 66, 0
1, 128640, Note_on_c, 0, 56, 20
1, 128640, Note_on_c, 0, 59, 25
1, 128640, Note_on_c, 0, 62, 42
1, 128640, Note_on_c, 0, 50, 39
1, 129120, Tempo, 261906
1, 129120, Note_on_c, 0, 50, 0
1, 129120, Note_on_c, 0, 56, 0
1, 129120, Note_on_c, 0, 59, 0
1, 129120, Note_on_c, 0, 62, 0
1, 129120, Note_on_c, 0, 64, 44
1, 129120, Note_on_c, 0, 52, 41
1, 129600, Note_on_c, 0, 52, 0
1, 129600, Note_on_c, 0, 64, 0
1, 129600, Note_on_c, 0, 61, 40
1, 129600, Note_on_c, 0, 49, 39
1, 129814, Control_c, 0, 64, 127
1, 130080, Tempo, 265663
1, 130080, Note_on_c, 0, 53, 20
1, 130080, Note_on_c, 0, 56, 20
1, 130080, Note_on_c, 0, 59, 25
1, 130560, Tempo, 257080
1, 130560, Note_on_c, 0, 59, 0
1, 130560, Note_on_c, 0, 53, 0
1, 130560, Note_on_c, 0, 56, 0
1, 130560, Note_on_c, 0, 53, 20
1, 130560, Note_on_c, 0, 56, 20
1, 130560, Note_on_c, 0, 59, 25
1, 131040, Tempo, 252419
1, 131040, Note_on_c, 0, 59, 0
1, 131040, Note_on_c, 0, 53, 0
1, 131040, Note_on_c, 0, 56, 0
1, 131040, Note_on_c, 0, 53, 20
1, 131040, Note_on_c, 0, 56, 20
1, 131040, Note_on_c, 0, 59, 25
1, 131520, Tempo, 260078
1, 131520, Note_on_c, 0, 59, 0
1, 131520, Note_on_c, 0, 53, 0
1, 131520, Note_on_c, 0, 56, 0
1, 131520, Note_on_c, 0, 53, 20
1, 131520, Note_on_c, 0, 56, 20
1, 131520, Note_on_c, 0, 59, 25
1, 132000, Tempo, 297915
1, 132000, Note_on_c, 0, 59, 0
1, 132000, Note_on_c, 0, 53, 0
1, 132000, Note_on_c, 0, 56, 0
1, 132000, Note_on_c, 0, 53, 20
1, 132000, Note_on_c, 0, 56, 20
1, 132000, Note_on_c, 0, 59, 25
1, 132212, Control_c, 0, 64, 0
1, 132360, Note_on_c, 0, 59, 0
1, 132360, Note_on_c, 0, 53, 0
1, 132360, Note_on_c, 0, 56, 0
1, 132360, Note_on_c, 0, 41, 40
1, 132480, Tempo, 273486
1, 132480, Note_on_c, 0, 41, 0
1, 132480, Note_on_c, 0, 49, 0
1, 132480, Note_on_c, 0, 61, 0
1, 132480, Note_on_c, 0, 65, 55
1, 132480, Note_on_c, 0, 53, 51
1, 132480, Control_c, 0, 64, 127
1, 132960, Tempo, 257677
1, 132960, Note_on_c, 0, 56, 31
1, 132960, Note_on_c, 0, 59, 31
1, 132960, Note_on_c, 0, 62, 39
1, 133200, Tempo, 259471
1, 133440, Tempo, 258866
1, 133440, Note_on_c, 0, 62, 0
1, 133440, Note_on_c, 0, 56, 0
1, 133440, Note_on_c, 0, 59, 0
1, 133440, Note_on_c, 0, 56, 31
1, 133440, Note_on_c, 0, 59, 31
1, 133440, Note_on_c, 0, 62, 39
1, 133920, Tempo, 254140
1, 133920, Note_on_c, 0, 62, 0
1, 133920, Note_on_c, 0, 56, 0
1, 133920, Note_on_c, 0, 59, 0
1, 133920, Note_on_c, 0, 56, 31
1, 133920, Note_on_c, 0, 59, 31
1, 133920, Note_on_c, 0, 62, 39
1, 134160, Tempo, 255896
1, 134400, Tempo, 284954
1, 134400, Note_on_c, 0, 62, 0
1, 134400, Note_on_c, 0, 56, 0
1, 134400, Note_on_c, 0, 59, 0
1, 134400, Note_on_c, 0, 56, 31
1, 134400, Note_on_c, 0, 59, 31
1, 134400, Note_on_c, 0, 62, 39
1, 134880, Tempo, 268865
1, 134880, Note_on_c, 0, 62, 0
1, 134880, Note_on_c, 0, 56, 0
1, 134880, Note_on_c, 0, 65, 0
1, 134880, Note_on_c, 0, 53, 0
1, 134880, Note_on_c, 0, 59, 0
1, 134880, Note_on_c, 0, 66, 55
1, 134880, Note_on_c, 0, 54, 53
1, 134888, Control_c, 0, 64, 0
1, 135360, Tempo, 274160
1, 135360, Note_on_c, 0, 54, 0
1, 135360, Note_on_c, 0, 66, 0
1, 135360, Note_on_c, 0, 66, 61
1, 135360, Note_on_c, 0, 54, 62
1, 135387, Control_c, 0, 64, 127
1, 135840, Tempo, 256487
1, 135840, Note_on_c, 0, 56, 32
1, 135840, Note_on_c, 0, 59, 32
1, 135840, Note_on_c, 0, 62, 40
1, 136320, Note_on_c, 0, 62, 0
1, 136320, Note_on_c, 0, 56, 0
1, 136320, Note_on_c, 0, 59, 0
1, 136320, Note_on_c, 0, 56, 32
1, 136320, Note_on_c, 0, 59, 32
1, 136320, Note_on_c, 0, 62, 41
1, 136800, Tempo, 252994
1, 136800, Note_on_c, 0, 62, 0
1, 136800, Note_on_c, 0, 56, 0
1, 136800, Note_on_c, 0, 66, 0
1, 136800, Note_on_c, 0, 54, 0
1, 136800, Note_on_c, 0, 59, 0
1, 136800, Note_on_c, 0, 65, 54
1, 136800, Note_on_c, 0, 53, 54
1, 136804, Control_c, 0, 64, 0
1, 137254, Control_c, 0, 64, 127
1, 137280, Tempo, 261301
1, 137280, Note_on_c, 0, 56, 33
1, 137280, Note_on_c, 0, 59, 33
1, 137280, Note_on_c, 0, 62, 41
1, 137760, Tempo, 264399
1, 137760, Note_on_c, 0, 62, 0
1, 137760, Note_on_c, 0, 56, 0
1, 137760, Note_on_c, 0, 59, 0
1, 137760, Note_on_c, 0, 56, 33
1, 137760, Note_on_c, 0, 59, 33
1, 137760, Note_on_c, 0, 62, 41
1, 138214, Control_c, 0, 64, 0
1, 138240, Tempo, 262525
1, 138240, Note_on_c, 0, 62, 0
1, 138240, Note_on_c, 0, 56, 0
1, 138240, Note_on_c, 0, 65, 0
1, 138240, Note_on_c, 0, 53, 0
1, 138240, Note_on_c, 0, 59, 0
1, 138240, Note_on_c, 0, 66, 60
1, 138240, Note_on_c, 0, 54, 54
1, 138629, Control_c, 0, 64, 127
1, 138720, Tempo, 252994
1, 138720, Note_on_c, 0, 59, 33
1, 138720, Note_on_c, 0, 62, 42
1, 139200, Tempo, 280649
1, 139200, Note_on_c, 0, 62, 0
1, 139200, Note_on_c, 0, 59, 0
1, 139200, Note_on_c, 0, 59, 33
1, 139200, Note_on_c, 0, 62, 42
1, 139680, Tempo, 256487
1, 139680, Note_on_c, 0, 62, 0
1, 139680, Note_on_c, 0, 66, 0
1, 139680, Note_on_c, 0, 54, 0
1, 139680, Note_on_c, 0, 59, 0
1, 139680, Note_on_c, 0, 69, 67
1, 139680, Note_on_c, 0, 57, 64
1, 139693, Control_c, 0, 64, 0
1, 140160, Tempo, 259471
1, 140160, Note_on_c, 0, 57, 0
1, 140160, Note_on_c, 0, 69, 0
1, 140160, Note_on_c, 0, 59, 34
1, 140160, Note_on_c, 0, 62, 43
1, 140160, Note_on_c, 0, 66, 63
1, 140160, Note_on_c, 0, 54, 58
1, 140400, Tempo, 260688
1, 140640, Tempo, 268216
1, 140640, Note_on_c, 0, 54, 0
1, 140640, Note_on_c, 0, 59, 0
1, 140640, Note_on_c, 0, 62, 0
1, 140640, Note_on_c, 0, 66, 0
1, 140640, Note_on_c, 0, 68, 66
1, 140640, Note_on_c, 0, 56, 62
1, 141120, Tempo, 266288
1, 141120, Note_on_c, 0, 56, 0
1, 141120, Note_on_c, 0, 68, 0
1, 141120, Note_on_c, 0, 65, 65
1, 141120, Note_on_c, 0, 53, 59
1, 141334, Control_c, 0, 64, 127
1, 141600, Tempo, 252994
1, 141600, Note_on_c, 0, 59, 39
1, 141600, Note_on_c, 0, 62, 48
1, 142080, Tempo, 255308
1, 142080, Note_on_c, 0, 62, 0
1, 142080, Note_on_c, 0, 59, 0
1, 142080, Note_on_c, 0, 59, 39
1, 142080, Note_on_c, 0, 62, 48
1, 142560, Tempo, 256487
1, 142560, Note_on_c, 0, 62, 0
1, 142560, Note_on_c, 0, 59, 0
1, 142560, Note_on_c, 0, 59, 39
1, 142560, Note_on_c, 0, 62, 49
1, 143040, Tempo, 266928
1, 143040, Note_on_c, 0, 62, 0
1, 143040, Note_on_c, 0, 59, 0
1, 143040, Note_on_c, 0, 59, 39
1, 143040, Note_on_c, 0, 62, 49
1, 143520, Tempo, 263771
1, 143520, Note_on_c, 0, 62, 0
1, 143520, Note_on_c, 0, 59, 0
1, 143520, Note_on_c, 0, 59, 39
1, 143520, Note_on_c, 0, 62, 49
1, 144000, Tempo, 251847
1, 144000, Note_on_c, 0, 62, 0
1, 144000, Note_on_c, 0, 65, 0
1, 144000, Note_on_c, 0, 53, 0
1, 144000, Note_on_c, 0, 59, 0
1, 144000, Note_on_c, 0, 69, 70
1, 144000, Note_on_c, 0, 57, 67
1, 144013, Control_c, 0, 64, 0
1, 144480, Tempo, 256487
1, 144480, Note_on_c, 0, 57, 0
1, 144480, Note_on_c, 0, 69, 0
1, 144480, Note_on_c, 0, 59, 39
1, 144480, Note_on_c, 0, 62, 50
1, 144480, Note_on_c, 0, 66, 66
1, 144480, Note_on_c, 0, 54, 60
1, 144960, Tempo, 265029
1, 144960, Note_on_c, 0, 54, 0
1, 144960, Note_on_c, 0, 59, 0
1, 144960, Note_on_c, 0, 62, 0
1, 144960, Note_on_c, 0, 66, 0
1, 144960, Note_on_c, 0, 68, 69
1, 144960, Note_on_c, 0, 56, 65
1, 145440, Tempo, 258264
1, 145440, Note_on_c, 0, 56, 0
1, 145440, Note_on_c, 0, 68, 0
1, 145440, Note_on_c, 0, 65, 63
1, 145440, Note_on_c, 0, 53, 61
1, 145654, Control_c, 0, 64, 127
1, 145920, Tempo, 263146
1, 145920, Note_on_c, 0, 59, 40
1, 145920, Note_on_c, 0, 62, 50
1, 146160, Tempo, 260688
1, 146400, Tempo, 266288
1, 146400, Note_on_c, 0, 62, 0
1, 146400, Note_on_c, 0, 59, 0
1, 146400, Note_on_c, 0, 59, 40
1, 146400, Note_on_c, 0, 62, 51
1, 146880, Tempo, 249252
1, 146880, Note_on_c, 0, 62, 0
1, 146880, Note_on_c, 0, 65, 0
1, 146880, Note_on_c, 0, 53, 0
1, 146880, Note_on_c, 0, 59, 0
1, 146880, Note_on_c, 0, 69, 71
1, 146880, Note_on_c, 0, 57, 68
1, 146893, Control_c, 0, 64, 0
1, 147360, Tempo, 254723
1, 147360, Note_on_c, 0, 57, 0
1, 147360, Note_on_c, 0, 69, 0
1, 147360, Note_on_c, 0, 59, 39
1, 147360, Note_on_c, 0, 62, 51
1, 147360, Note_on_c, 0, 66, 67
1, 147360, Note_on_c, 0, 54, 61
1, 147840, Tempo, 258264
1, 147840, Note_on_c, 0, 54, 0
1, 147840, Note_on_c, 0, 59, 0
1, 147840, Note_on_c, 0, 62, 0
1, 147840, Note_on_c, 0, 66, 0
1, 147840, Note_on_c, 0, 68, 71
1, 147840, Note_on_c, 0, 56, 66
1, 148320, Tempo, 259471
1, 148320, Note_on_c, 0, 56, 0
1, 148320, Note_on_c, 0, 68, 0
1, 148320, Note_on_c, 0, 65, 64
1, 148320, Note_on_c, 0, 53, 62
1, 148534, Control_c, 0, 64, 127
1, 148800, Tempo, 258264
1, 148800, Note_on_c, 0, 59, 41
1, 148800, Note_on_c, 0, 62, 52
1, 149040, Tempo, 258264
1, 149280, Tempo, 263146
1, 149280, Note_on_c, 0, 62, 0
1, 149280, Note_on_c, 0, 59, 0
1, 149280, Note_on_c, 0, 59, 41
1, 149280, Note_on_c, 0, 62, 52
1, 149760, Tempo, 248149
1, 149760, Note_on_c, 0, 62, 0
1, 149760, Note_on_c, 0, 65, 0
1, 149760, Note_on_c, 0, 53, 0
1, 149760, Note_on_c, 0, 59, 0
1, 149760, Note_on_c, 0, 73, 80
1, 149760, Note_on_c, 0, 61, 76
1, 149773, Control_c, 0, 64, 0
1, 150240, Tempo, 255896
1, 150240, Note_on_c, 0, 61, 0
1, 150240, Note_on_c, 0, 73, 0
1, 150240, Note_on_c, 0, 62, 44
1, 150240, Note_on_c, 0, 65, 57
1, 150240, Note_on_c, 0, 69, 75
1, 150240, Note_on_c, 0, 57, 69
1, 150720, Tempo, 263146
1, 150720, Note_on_c, 0, 57, 0
1, 150720, Note_on_c, 0, 62, 0
1, 150720, Note_on_c, 0, 65, 0
1, 150720, Note_on_c, 0, 69, 0
1, 150720, Note_on_c, 0, 71, 76
1, 150720, Note_on_c, 0, 59, 69
1, 151200, Tempo, 259471
1, 151200, Note_on_c, 0, 59, 0
1, 151200, Note_on_c, 0, 71, 0
1, 151200, Note_on_c, 0, 68, 73
1, 151200, Note_on_c, 0, 56, 71
1, 151414, Control_c, 0, 64, 127
1, 151680, Tempo, 254140
1, 151680, Note_on_c, 0, 62, 46
1, 151680, Note_on_c, 0, 65, 58
1, 152160, Tempo, 260078
1, 152160, Note_on_c, 0, 65, 0
1, 152160, Note_on_c, 0, 62, 0
1, 152160, Note_on_c, 0, 62, 47
1, 152160, Note_on_c, 0, 65, 58
1, 152640, Tempo, 248149
1, 152640, Note_on_c, 0, 65, 0
1, 152640, Note_on_c, 0, 68, 0
1, 152640, Note_on_c, 0, 56, 0
1, 152640, Note_on_c, 0, 62, 0
1, 152640, Note_on_c, 0, 73, 82
1, 152640, Note_on_c, 0, 61, 78
1, 152653, Control_c, 0, 64, 0
1, 153120, Tempo, 254723
1, 153120, Note_on_c, 0, 61, 0
1, 153120, Note_on_c, 0, 73, 0
1, 153120, Note_on_c, 0, 62, 44
1, 153120, Note_on_c, 0, 65, 58
1, 153120, Note_on_c, 0, 69, 77
1, 153120, Note_on_c, 0, 57, 70
1, 153600, Tempo, 256487
1, 153600, Note_on_c, 0, 57, 0
1, 153600, Note_on_c, 0, 62, 0
1, 153600, Note_on_c, 0, 65, 0
1, 153600, Note_on_c, 0, 69, 0
1, 153600, Note_on_c, 0, 71, 78
1, 153600, Note_on_c, 0, 59, 71
1, 154080, Tempo, 258866
1, 154080, Note_on_c, 0, 59, 0
1, 154080, Note_on_c, 0, 71, 0
1, 154080, Note_on_c, 0, 68, 74
1, 154080, Note_on_c, 0, 56, 72
1, 154294, Control_c, 0, 64, 127
1, 154560, Tempo, 252994
1, 154560, Note_on_c, 0, 62, 47
1, 154560, Note_on_c, 0, 65, 59
1, 155040, Tempo, 259471
1, 155040, Note_on_c, 0, 65, 0
1, 155040, Note_on_c, 0, 62, 0
1, 155040, Note_on_c, 0, 62, 47
1, 155040, Note_on_c, 0, 65, 59
1, 155520, Tempo, 240125
1, 155520, Note_on_c, 0, 65, 0
1, 155520, Note_on_c, 0, 68, 0
1, 155520, Note_on_c, 0, 56, 0
1, 155520, Note_on_c, 0, 62, 0
1, 155520, Note_on_c, 0, 76, 80
1, 155520, Note_on_c, 0, 64, 69
1, 155548, Control_c, 0, 64, 0
1, 155795, Control_c, 0, 64, 127
1, 156000, Tempo, 247596
1, 156000, Note_on_c, 0, 64, 0
1, 156000, Note_on_c, 0, 76, 0
1, 156000, Note_on_c, 0, 65, 47
1, 156000, Note_on_c, 0, 68, 47
1, 156000, Note_on_c, 0, 73, 60
1, 156000, Note_on_c, 0, 61, 64
1, 156023, Control_c, 0, 64, 0
1, 156480, Tempo, 238067
1, 156480, Note_on_c, 0, 61, 0
1, 156480, Note_on_c, 0, 65, 0
1, 156480, Note_on_c, 0, 68, 0
1, 156480, Note_on_c, 0, 73, 0
1, 156480, Note_on_c, 0, 74, 81
1, 156480, Note_on_c, 0, 62, 71
1, 156617, Control_c, 0, 64, 127
1, 156960, Tempo, 243803
1, 156960, Note_on_c, 0, 62, 0
1, 156960, Note_on_c, 0, 74, 0
1, 156960, Note_on_c, 0, 65, 52
1, 156960, Note_on_c, 0, 68, 52
1, 156960, Note_on_c, 0, 71, 66
1, 156960, Note_on_c, 0, 59, 67
1, 157020, Control_c, 0, 64, 0
1, 157440, Tempo, 236053
1, 157440, Note_on_c, 0, 59, 0
1, 157440, Note_on_c, 0, 65, 0
1, 157440, Note_on_c, 0, 68, 0
1, 157440, Note_on_c, 0, 71, 0
1, 157440, Note_on_c, 0, 76, 86
1, 157440, Note_on_c, 0, 64, 76
1, 157509, Control_c, 0, 64, 127
1, 157920, Tempo, 242209
1, 157920, Note_on_c, 0, 64, 0
1, 157920, Note_on_c, 0, 76, 0
1, 157920, Note_on_c, 0, 65, 54
1, 157920, Note_on_c, 0, 68, 54
1, 157920, Note_on_c, 0, 73, 69
1, 157920, Note_on_c, 0, 61, 72
1, 157960, Control_c, 0, 64, 0
1, 158400, Tempo, 232603
1, 158400, Note_on_c, 0, 61, 0
1, 158400, Note_on_c, 0, 65, 0
1, 158400, Note_on_c, 0, 68, 0
1, 158400, Note_on_c, 0, 73, 0
1, 158400, Note_on_c, 0, 74, 94
1, 158400, Note_on_c, 0, 62, 81
1, 158492, Control_c, 0, 64, 127
1, 158880, Tempo, 237060
1, 158880, Note_on_c, 0, 62, 0
1, 158880, Note_on_c, 0, 74, 0
1, 158880, Note_on_c, 0, 65, 57
1, 158880, Note_on_c, 0, 68, 57
1, 158880, Note_on_c, 0, 71, 72
1, 158880, Note_on_c, 0, 59, 75
1, 158920, Control_c, 0, 64, 0
1, 159360, Tempo, 229727
1, 159360, Note_on_c, 0, 59, 0
1, 159360, Note_on_c, 0, 65, 0
1, 159360, Note_on_c, 0, 68, 0
1, 159360, Note_on_c, 0, 71, 0
1, 159360, Note_on_c, 0, 76, 98
1, 159360, Note_on_c, 0, 64, 85
1, 159520, Control_c, 0, 64, 127
1, 159840, Tempo, 234558
1, 159840, Note_on_c, 0, 64, 0
1, 159840, Note_on_c, 0, 76, 0
1, 159840, Note_on_c, 0, 65, 61
1, 159840, Note_on_c, 0, 68, 61
1, 159840, Note_on_c, 0, 73, 77
1, 159840, Note_on_c, 0, 61, 80
1, 159900, Control_c, 0, 64, 0
1, 160320, Tempo, 227842
1, 160320, Note_on_c, 0, 61, 0
1, 160320, Note_on_c, 0, 65, 0
1, 160320, Note_on_c, 0, 68, 0
1, 160320, Note_on_c, 0, 73, 0
1, 160320, Note_on_c, 0, 74, 103
1, 160320, Note_on_c, 0, 62, 90
1, 160686, Control_c, 0, 64, 127
1, 160800, Tempo, 297915
1, 160800, Note_on_c, 0, 62, 0
1, 160800, Note_on_c, 0, 74, 0
1, 160800, Note_on_c, 0, 65, 63
1, 160800, Note_on_c, 0, 68, 63
1, 160800, Note_on_c, 0, 71, 80
1, 160800, Note_on_c, 0, 59, 85
1, 161280, Tempo, 263146
1, 161280, Note_on_c, 0, 59, 0
1, 161280, Note_on_c, 0, 65, 0
1, 161280, Note_on_c, 0, 68, 0
1, 161280, Note_on_c, 0, 71, 0
1, 161280, Note_on_c, 0, 65, 88
1, 161280, Note_on_c, 0, 77, 101
1, 161280, Control_c, 0, 64, 0
1, 161734, Control_c, 0, 64, 127
1, 161760, Tempo, 252419
1, 161760, Note_on_c, 0, 49, 55
1, 161760, Note_on_c, 0, 53, 55
1, 161760, Note_on_c, 0, 61, 69
1, 161760, Note_on_c, 0, 56, 55
1, 162240, Note_on_c, 0, 56, 0
1, 162240, Note_on_c, 0, 53, 0
1, 162240, Note_on_c, 0, 49, 0
1, 162240, Note_on_c, 0, 61, 0
1, 162240, Note_on_c, 0, 49, 54
1, 162240, Note_on_c, 0, 53, 54
1, 162240, Note_on_c, 0, 56, 54
1, 162240, Note_on_c, 0, 61, 67
1, 162720, Note_on_c, 0, 61, 0
1, 162720, Note_on_c, 0, 53, 0
1, 162720, Note_on_c, 0, 49, 0
1, 162720, Note_on_c, 0, 56, 0
1, 162720, Note_on_c, 0, 61, 66
1, 162720, Note_on_c, 0, 49, 52
1, 162720, Note_on_c, 0, 53, 52
1, 162720, Note_on_c, 0, 56, 52
1, 162773, Tempo, 251425
1, 162800, Tempo, 249594
1, 162838, Tempo, 245198
1, 163104, Tempo, 244658
1, 163200, Note_on_c, 0, 56, 0
1, 163200, Note_on_c, 0, 49, 0
1, 163200, Note_on_c, 0, 61, 0
1, 163200, Note_on_c, 0, 53, 0
1, 163200, Note_on_c, 0, 61, 65
1, 163200, Note_on_c, 0, 49, 51
1, 163200, Note_on_c, 0, 53, 51
1, 163200, Note_on_c, 0, 56, 51
1, 163318, Tempo, 244121
1, 163531, Tempo, 243586
1, 163680, Note_on_c, 0, 56, 0
1, 163680, Note_on_c, 0, 49, 0
1, 163680, Note_on_c, 0, 61, 0
1, 163680, Note_on_c, 0, 53, 0
1, 163680, Note_on_c, 0, 61, 64
1, 163680, Note_on_c, 0, 49, 50
1, 163680, Note_on_c, 0, 53, 50
1, 163680, Note_on_c, 0, 56, 50
1, 163798, Tempo, 243053
1, 164011, Tempo, 242522
1, 164160, Note_on_c, 0, 56, 0
1, 164160, Note_on_c, 0, 49, 0
1, 164160, Note_on_c, 0, 61, 0
1, 164160, Note_on_c, 0, 53, 0
1, 164160, Note_on_c, 0, 61, 63
1, 164160, Note_on_c, 0, 49, 50
1, 164160, Note_on_c, 0, 53, 50
1, 164160, Note_on_c, 0, 56, 50
1, 164224, Tempo, 242004
1, 164491, Tempo, 241478
1, 164640, Note_on_c, 0, 56, 0
1, 164640, Note_on_c, 0, 49, 0
1, 164640, Note_on_c, 0, 61, 0
1, 164640, Note_on_c, 0, 53, 0
1, 164640, Note_on_c, 0, 61, 62
1, 164640, Note_on_c, 0, 49, 49
1, 164640, Note_on_c, 0, 53, 49
1, 164640, Note_on_c, 0, 56, 49
1, 164704, Tempo, 240954
1, 164918, Tempo, 240433
1, 165120, Note_on_c, 0, 56, 0
1, 165120, Note_on_c, 0, 49, 0
1, 165120, Note_on_c, 0, 61, 0
1, 165120, Note_on_c, 0, 53, 0
1, 165120, Note_on_c, 0, 61, 60
1, 165120, Note_on_c, 0, 49, 48
1, 165120, Note_on_c, 0, 53, 48
1, 165120, Note_on_c, 0, 56, 48
1, 165184, Tempo, 239914
1, 165398, Tempo, 239397
1, 165600, Note_on_c, 0, 56, 0
1, 165600, Note_on_c, 0, 49, 0
1, 165600, Note_on_c, 0, 61, 0
1, 165600, Note_on_c, 0, 53, 0
1, 165600, Note_on_c, 0, 49, 47
1, 165600, Note_on_c, 0, 53, 47
1, 165600, Note_on_c, 0, 56, 47
1, 165600, Note_on_c, 0, 61, 59
1, 165611, Tempo, 238892
1, 165824, Tempo, 238379
1, 166080, Tempo, 269518
1, 166080, Note_on_c, 0, 61, 0
1, 166080, Note_on_c, 0, 77, 0
1, 166080, Note_on_c, 0, 49, 0
1, 166080, Note_on_c, 0, 65, 0
1, 166080, Note_on_c, 0, 56, 0
1, 166080, Note_on_c, 0, 53, 0
1, 166080, Note_on_c, 0, 49, 46
1, 166080, Note_on_c, 0, 53, 46
1, 166080, Note_on_c, 0, 56, 46
1, 166080, Note_on_c, 0, 61, 58
1, 166560, Tempo, 242522
1, 166560, Note_on_c, 0, 61, 0
1, 166560, Note_on_c, 0, 49, 0
1, 166560, Note_on_c, 0, 53, 0
1, 166560, Note_on_c, 0, 56, 0
1, 166603, Control_c, 0, 64, 0
1, 166800, Note_on_c, 0, 65, 88
1, 166800, Note_on_c, 0, 77, 101
1, 167040, Tempo, 261301
1, 167040, Note_on_c, 0, 77, 0
1, 167040, Note_on_c, 0, 65, 0
1, 167067, Note_on_c, 0, 66, 88
1, 167067, Note_on_c, 0, 78, 101
1, 167226, Control_c, 0, 64, 127
1, 167520, Tempo, 252419
1, 167520, Note_on_c, 0, 47, 55
1, 167520, Note_on_c, 0, 62, 69
1, 167520, Note_on_c, 0, 54, 55
1, 167520, Note_on_c, 0, 59, 55
1, 168000, Note_on_c, 0, 59, 0
1, 168000, Note_on_c, 0, 62, 0
1, 168000, Note_on_c, 0, 47, 0
1, 168000, Note_on_c, 0, 54, 0
1, 168000, Note_on_c, 0, 47, 54
1, 168000, Note_on_c, 0, 59, 54
1, 168000, Note_on_c, 0, 54, 54
1, 168000, Note_on_c, 0, 62, 67
1, 168331, Tempo, 243053
1, 168480, Note_on_c, 0, 62, 0
1, 168480, Note_on_c, 0, 59, 0
1, 168480, Note_on_c, 0, 47, 0
1, 168480, Note_on_c, 0, 54, 0
1, 168480, Note_on_c, 0, 47, 52
1, 168480, Note_on_c, 0, 59, 52
1, 168480, Note_on_c, 0, 54, 52
1, 168480, Note_on_c, 0, 62, 66
1, 168598, Tempo, 242522
1, 168864, Tempo, 242004
1, 168960, Note_on_c, 0, 62, 0
1, 168960, Note_on_c, 0, 59, 0
1, 168960, Note_on_c, 0, 47, 0
1, 168960, Note_on_c, 0, 54, 0
1, 168960, Note_on_c, 0, 47, 51
1, 168960, Note_on_c, 0, 59, 51
1, 168960, Note_on_c, 0, 54, 51
1, 168960, Note_on_c, 0, 62, 65
1, 169131, Tempo, 241478
1, 169398, Tempo, 240954
1, 169440, Note_on_c, 0, 62, 0
1, 169440, Note_on_c, 0, 59, 0
1, 169440, Note_on_c, 0, 47, 0
1, 169440, Note_on_c, 0, 54, 0
1, 169440, Note_on_c, 0, 47, 50
1, 169440, Note_on_c, 0, 59, 50
1, 169440, Note_on_c, 0, 54, 50
1, 169440, Note_on_c, 0, 62, 64
1, 169664, Tempo, 240433
1, 169920, Note_on_c, 0, 62, 0
1, 169920, Note_on_c, 0, 59, 0
1, 169920, Note_on_c, 0, 47, 0
1, 169920, Note_on_c, 0, 54, 0
1, 169920, Note_on_c, 0, 47, 50
1, 169920, Note_on_c, 0, 59, 50
1, 169920, Note_on_c, 0, 54, 50
1, 169920, Note_on_c, 0, 62, 63
1, 169931, Tempo, 239914
1, 170198, Tempo, 239397
1, 170400, Note_on_c, 0, 62, 0
1, 170400, Note_on_c, 0, 59, 0
1, 170400, Note_on_c, 0, 47, 0
1, 170400, Note_on_c, 0, 54, 0
1, 170400, Note_on_c, 0, 54, 49
1, 170400, Note_on_c, 0, 47, 49
1, 170400, Note_on_c, 0, 59, 49
1, 170400, Note_on_c, 0, 62, 62
1, 170464, Tempo, 238892
1, 170731, Tempo, 238379
1, 170880, Note_on_c, 0, 62, 0
1, 170880, Note_on_c, 0, 47, 0
1, 170880, Note_on_c, 0, 54, 0
1, 170880, Note_on_c, 0, 59, 0
1, 170880, Note_on_c, 0, 47, 48
1, 170880, Note_on_c, 0, 54, 48
1, 170880, Note_on_c, 0, 59, 48
1, 170880, Note_on_c, 0, 62, 60
1, 170998, Tempo, 237869
1, 171264, Tempo, 237361
1, 171360, Note_on_c, 0, 62, 0
1, 171360, Note_on_c, 0, 54, 0
1, 171360, Note_on_c, 0, 47, 0
1, 171360, Note_on_c, 0, 59, 0
1, 171360, Note_on_c, 0, 47, 47
1, 171360, Note_on_c, 0, 54, 47
1, 171360, Note_on_c, 0, 62, 59
1, 171360, Note_on_c, 0, 59, 47
1, 171531, Tempo, 236855
1, 171798, Tempo, 236351
1, 171811, Tempo, 241293
1, 171840, Tempo, 266928
1, 171840, Note_on_c, 0, 59, 0
1, 171840, Note_on_c, 0, 54, 0
1, 171840, Note_on_c, 0, 47, 0
1, 171840, Note_on_c, 0, 62, 0
1, 171840, Note_on_c, 0, 54, 46
1, 171840, Note_on_c, 0, 47, 46
1, 171840, Note_on_c, 0, 62, 58
1, 171840, Note_on_c, 0, 59, 46
1, 171867, Note_on_c, 0, 66, 0
1, 171867, Note_on_c, 0, 78, 0
1, 172320, Tempo, 244658
1, 172320, Note_on_c, 0, 62, 0
1, 172320, Note_on_c, 0, 47, 0
1, 172320, Note_on_c, 0, 59, 0
1, 172320, Note_on_c, 0, 54, 0
1, 172363, Control_c, 0, 64, 0
1, 172560, Tempo, 244121
1, 172560, Note_on_c, 0, 66, 88
1, 172560, Note_on_c, 0, 78, 101
1, 172800, Tempo, 262525
1, 172800, Note_on_c, 0, 78, 0
1, 172800, Note_on_c, 0, 66, 0
1, 172800, Note_on_c, 0, 69, 88
1, 172800, Note_on_c, 0, 81, 101
1, 172987, Control_c, 0, 64, 127
1, 173280, Tempo, 253571
1, 173280, Note_on_c, 0, 54, 55
1, 173280, Note_on_c, 0, 45, 55
1, 173280, Note_on_c, 0, 57, 55
1, 173280, Note_on_c, 0, 62, 69
1, 173760, Note_on_c, 0, 62, 0
1, 173760, Note_on_c, 0, 45, 0
1, 173760, Note_on_c, 0, 54, 0
1, 173760, Note_on_c, 0, 57, 0
1, 173760, Note_on_c, 0, 54, 54
1, 173760, Note_on_c, 0, 45, 54
1, 173760, Note_on_c, 0, 62, 67
1, 173760, Note_on_c, 0, 57, 54
1, 174240, Tempo, 248643
1, 174240, Note_on_c, 0, 57, 0
1, 174240, Note_on_c, 0, 45, 0
1, 174240, Note_on_c, 0, 54, 0
1, 174240, Note_on_c, 0, 62, 0
1, 174240, Note_on_c, 0, 54, 52
1, 174240, Note_on_c, 0, 45, 52
1, 174240, Note_on_c, 0, 62, 66
1, 174240, Note_on_c, 0, 57, 52
1, 174251, Tempo, 245198
1, 174411, Tempo, 244658
1, 174571, Tempo, 244121
1, 174720, Note_on_c, 0, 57, 0
1, 174720, Note_on_c, 0, 45, 0
1, 174720, Note_on_c, 0, 54, 0
1, 174720, Note_on_c, 0, 62, 0
1, 174720, Note_on_c, 0, 54, 51
1, 174720, Note_on_c, 0, 45, 51
1, 174720, Note_on_c, 0, 62, 65
1, 174720, Note_on_c, 0, 57, 51
1, 174731, Tempo, 243586
1, 174838, Tempo, 243053
1, 174998, Tempo, 242522
1, 175158, Tempo, 242004
1, 175200, Note_on_c, 0, 57, 0
1, 175200, Note_on_c, 0, 45, 0
1, 175200, Note_on_c, 0, 54, 0
1, 175200, Note_on_c, 0, 62, 0
1, 175200, Note_on_c, 0, 62, 64
1, 175200, Note_on_c, 0, 45, 50
1, 175200, Note_on_c, 0, 54, 50
1, 175200, Note_on_c, 0, 57, 50
1, 175264, Tempo, 241478
1, 175424, Tempo, 240954
1, 175584, Tempo, 240433
1, 175680, Note_on_c, 0, 57, 0
1, 175680, Note_on_c, 0, 45, 0
1, 175680, Note_on_c, 0, 62, 0
1, 175680, Note_on_c, 0, 54, 0
1, 175680, Note_on_c, 0, 54, 50
1, 175680, Note_on_c, 0, 57, 50
1, 175680, Note_on_c, 0, 62, 63
1, 175680, Note_on_c, 0, 45, 50
1, 175691, Tempo, 239914
1, 175704, Tempo, 243932
1, 175707, Tempo, 242522
1, 175744, Tempo, 238892
1, 176160, Note_on_c, 0, 45, 0
1, 176160, Note_on_c, 0, 57, 0
1, 176160, Note_on_c, 0, 54, 0
1, 176160, Note_on_c, 0, 62, 0
1, 176160, Note_on_c, 0, 54, 49
1, 176160, Note_on_c, 0, 57, 49
1, 176160, Note_on_c, 0, 62, 62
1, 176160, Note_on_c, 0, 45, 49
1, 176640, Note_on_c, 0, 45, 0
1, 176640, Note_on_c, 0, 57, 0
1, 176640, Note_on_c, 0, 54, 0
1, 176640, Note_on_c, 0, 62, 0
1, 176640, Note_on_c, 0, 62, 60
1, 176640, Note_on_c, 0, 45, 48
1, 176640, Note_on_c, 0, 54, 48
1, 176640, Note_on_c, 0, 57, 48
1, 177120, Note_on_c, 0, 57, 0
1, 177120, Note_on_c, 0, 45, 0
1, 177120, Note_on_c, 0, 62, 0
1, 177120, Note_on_c, 0, 54, 0
1, 177120, Note_on_c, 0, 62, 59
1, 177120, Note_on_c, 0, 45, 47
1, 177120, Note_on_c, 0, 54, 47
1, 177120, Note_on_c, 0, 57, 47
1, 177200, Tempo, 242004
1, 177546, Tempo, 243932
1, 177600, Tempo, 272146
1, 177600, Note_on_c, 0, 57, 0
1, 177600, Note_on_c, 0, 81, 0
1, 177600, Note_on_c, 0, 62, 0
1, 177600, Note_on_c, 0, 69, 0
1, 177600, Note_on_c, 0, 54, 0
1, 177600, Note_on_c, 0, 45, 0
1, 177600, Note_on_c, 0, 62, 58
1, 177600, Note_on_c, 0, 45, 46
1, 177600, Note_on_c, 0, 54, 46
1, 177600, Note_on_c, 0, 57, 46
1, 177967, Control_c, 0, 64, 0
1, 178080, Tempo, 247372
1, 178080, Note_on_c, 0, 57, 0
1, 178080, Note_on_c, 0, 62, 0
1, 178080, Note_on_c, 0, 45, 0
1, 178080, Note_on_c, 0, 54, 0
1, 178320, Tempo, 247270
1, 178320, Note_on_c, 0, 69, 88
1, 178320, Note_on_c, 0, 81, 101
1, 178560, Tempo, 257080
1, 178560, Note_on_c, 0, 81, 0
1, 178560, Note_on_c, 0, 69, 0
1, 178560, Note_on_c, 0, 71, 92
1, 178560, Note_on_c, 0, 83, 105
1, 178747, Control_c, 0, 64, 127
1, 179040, Tempo, 249813
1, 179040, Note_on_c, 0, 66, 75
1, 179040, Note_on_c, 0, 62, 59
1, 179040, Note_on_c, 0, 44, 59
1, 179040, Note_on_c, 0, 54, 59
1, 179040, Note_on_c, 0, 59, 59
1, 179520, Note_on_c, 0, 59, 0
1, 179520, Note_on_c, 0, 44, 0
1, 179520, Note_on_c, 0, 62, 0
1, 179520, Note_on_c, 0, 66, 0
1, 179520, Note_on_c, 0, 54, 0
1, 179520, Note_on_c, 0, 54, 59
1, 179520, Note_on_c, 0, 62, 59
1, 179520, Note_on_c, 0, 44, 59
1, 179520, Note_on_c, 0, 66, 75
1, 179520, Note_on_c, 0, 59, 59
1, 179920, Tempo, 243803
1, 180000, Note_on_c, 0, 59, 0
1, 180000, Note_on_c, 0, 44, 0
1, 180000, Note_on_c, 0, 62, 0
1, 180000, Note_on_c, 0, 54, 0
1, 180000, Note_on_c, 0, 66, 0
1, 180000, Note_on_c, 0, 54, 59
1, 180000, Note_on_c, 0, 62, 59
1, 180000, Note_on_c, 0, 44, 59
1, 180000, Note_on_c, 0, 59, 59
1, 180000, Note_on_c, 0, 66, 75
1, 180048, Tempo, 243270
1, 180176, Tempo, 242738
1, 180272, Tempo, 242209
1, 180400, Tempo, 241682
1, 180480, Note_on_c, 0, 66, 0
1, 180480, Note_on_c, 0, 44, 0
1, 180480, Note_on_c, 0, 62, 0
1, 180480, Note_on_c, 0, 54, 0
1, 180480, Note_on_c, 0, 59, 0
1, 180480, Note_on_c, 0, 62, 58
1, 180480, Note_on_c, 0, 44, 58
1, 180480, Note_on_c, 0, 54, 58
1, 180480, Note_on_c, 0, 59, 58
1, 180480, Note_on_c, 0, 66, 75
1, 180496, Tempo, 241158
1, 180624, Tempo, 240645
1, 180720, Tempo, 240125
1, 180848, Tempo, 239607
1, 180944, Tempo, 239091
1, 180960, Tempo, 253571
1, 180960, Note_on_c, 0, 66, 0
1, 180960, Note_on_c, 0, 54, 0
1, 180960, Note_on_c, 0, 44, 0
1, 180960, Note_on_c, 0, 62, 0
1, 180960, Note_on_c, 0, 59, 0
1, 180960, Note_on_c, 0, 62, 58
1, 180960, Note_on_c, 0, 66, 75
1, 180960, Note_on_c, 0, 44, 58
1, 180960, Note_on_c, 0, 54, 58
1, 180960, Note_on_c, 0, 59, 58
1, 181440, Tempo, 251277
1, 181440, Note_on_c, 0, 59, 0
1, 181440, Note_on_c, 0, 44, 0
1, 181440, Note_on_c, 0, 83, 0
1, 181440, Note_on_c, 0, 62, 0
1, 181440, Note_on_c, 0, 71, 0
1, 181440, Note_on_c, 0, 54, 0
1, 181440, Note_on_c, 0, 66, 0
1, 181440, Note_on_c, 0, 72, 95
1, 181440, Note_on_c, 0, 84, 109
1, 181440, Control_c, 0, 64, 0
1, 181887, Control_c, 0, 64, 127
1, 181894, Tempo, 265498
1, 181920, Note_on_c, 0, 59, 69
1, 181920, Note_on_c, 0, 61, 69
1, 181920, Note_on_c, 0, 43, 69
1, 181920, Note_on_c, 0, 53, 69
1, 181920, Note_on_c, 0, 65, 86
1, 181926, Tempo, 266087
1, 181958, Tempo, 266679
1, 181990, Tempo, 267272
1, 182022, Tempo, 267869
1, 182054, Tempo, 268468
1, 182086, Tempo, 269070
1, 182118, Tempo, 269675
1, 182150, Tempo, 270282
1, 182182, Tempo, 270893
1, 182214, Tempo, 271505
1, 182246, Tempo, 272121
1, 182278, Tempo, 272740
1, 182310, Tempo, 273361
1, 182342, Tempo, 273985
1, 182374, Tempo, 274612
1, 182400, Note_on_c, 0, 65, 0
1, 182400, Note_on_c, 0, 43, 0
1, 182400, Note_on_c, 0, 61, 0
1, 182400, Note_on_c, 0, 59, 0
1, 182400, Note_on_c, 0, 53, 0
1, 182400, Note_on_c, 0, 53, 70
1, 182400, Note_on_c, 0, 61, 70
1, 182400, Note_on_c, 0, 43, 70
1, 182400, Note_on_c, 0, 65, 88
1, 182400, Note_on_c, 0, 59, 70
1, 182406, Tempo, 275242
1, 182438, Tempo, 275875
1, 182470, Tempo, 276510
1, 182502, Tempo, 277149
1, 182534, Tempo, 277791
1, 182566, Tempo, 278435
1, 182598, Tempo, 279083
1, 182630, Tempo, 279733
1, 182662, Tempo, 280387
1, 182694, Tempo, 281044
1, 182726, Tempo, 281703
1, 182758, Tempo, 282366
1, 182790, Tempo, 283032
1, 182822, Tempo, 283701
1, 182854, Tempo, 284374
1, 182880, Note_on_c, 0, 59, 0
1, 182880, Note_on_c, 0, 43, 0
1, 182880, Note_on_c, 0, 61, 0
1, 182880, Note_on_c, 0, 53, 0
1, 182880, Note_on_c, 0, 65, 0
1, 182880, Note_on_c, 0, 43, 72
1, 182880, Note_on_c, 0, 61, 72
1, 182880, Note_on_c, 0, 59, 72
1, 182880, Note_on_c, 0, 53, 72
1, 182880, Note_on_c, 0, 65, 90
1, 182886, Tempo, 285049
1, 182918, Tempo, 285728
1, 182950, Tempo, 286410
1, 182982, Tempo, 287095
1, 183014, Tempo, 287784
1, 183046, Tempo, 288475
1, 183078, Tempo, 289171
1, 183110, Tempo, 289869
1, 183142, Tempo, 290571
1, 183174, Tempo, 291276
1, 183206, Tempo, 291985
1, 183238, Tempo, 292697
1, 183270, Tempo, 293413
1, 183302, Tempo, 294132
1, 183334, Tempo, 294855
1, 183360, Tempo, 314153
1, 183360, Note_on_c, 0, 65, 0
1, 183360, Note_on_c, 0, 59, 0
1, 183360, Note_on_c, 0, 61, 0
1, 183360, Note_on_c, 0, 43, 0
1, 183360, Note_on_c, 0, 53, 0
1, 183360, Note_on_c, 0, 65, 93
1, 183360, Note_on_c, 0, 61, 73
1, 183360, Note_on_c, 0, 43, 73
1, 183360, Note_on_c, 0, 53, 73
1, 183360, Note_on_c, 0, 59, 73
1, 183840, Tempo, 884304
1, 183840, Note_on_c, 0, 59, 0
1, 183840, Note_on_c, 0, 43, 0
1, 183840, Note_on_c, 0, 72, 0
1, 183840, Note_on_c, 0, 65, 0
1, 183840, Note_on_c, 0, 84, 0
1, 183840, Note_on_c, 0, 53, 0
1, 183840, Note_on_c, 0, 61, 0
1, 183840, Note_on_c, 0, 85, 98
1, 183840, Note_on_c, 0, 73, 80
1, 184080, Control_c, 0, 64, 0
1, 184200, Tempo, 331602
1, 184200, Note_on_c, 0, 73, 0
1, 184200, Note_on_c, 0, 85, 0
1, 184200, Note_on_c, 0, 73, 50
1, 184320, Tempo, 275229
1, 184320, Marker_t, "Tempo I"
1, 184320, Note_on_c, 0, 85, 57
1, 184320, Control_c, 0, 64, 127
1, 184560, Note_on_c, 0, 42, 27
1, 184752, Tempo, 264644
1, 184800, Note_on_c, 0, 42, 0
1, 184800, Note_on_c, 0, 78, 27
1, 184800, Note_on_c, 0, 82, 32
1, 184800, Note_on_c, 0, 49, 29
1, 184859, Tempo, 264026
1, 184966, Tempo, 263401
1, 185040, Note_on_c, 0, 49, 0
1, 185040, Note_on_c, 0, 54, 31
1, 185072, Tempo, 262778
1, 185179, Tempo, 262158
1, 185256, Note_on_c, 0, 78, 0
1, 185256, Note_on_c, 0, 82, 0
1, 185280, Note_on_c, 0, 54, 0
1, 185280, Note_on_c, 0, 78, 29
1, 185280, Note_on_c, 0, 82, 35
1, 185280, Note_on_c, 0, 58, 32
1, 185286, Tempo, 261540
1, 185392, Tempo, 260926
1, 185499, Tempo, 260315
1, 185520, Note_on_c, 0, 58, 0
1, 185520, Note_on_c, 0, 61, 34
1, 185552, Tempo, 259718
1, 185736, Note_on_c, 0, 78, 0
1, 185736, Note_on_c, 0, 82, 0
1, 185760, Tempo, 257843
1, 185760, Note_on_c, 0, 61, 0
1, 185760, Note_on_c, 0, 78, 27
1, 185760, Note_on_c, 0, 82, 32
1, 185760, Note_on_c, 0, 66, 35
1, 186000, Note_on_c, 0, 66, 0
1, 186000, Note_on_c, 0, 61, 31
1, 186216, Note_on_c, 0, 78, 0
1, 186216, Note_on_c, 0, 82, 0
1, 186240, Tempo, 259898
1, 186240, Note_on_c, 0, 61, 0
1, 186240, Note_on_c, 0, 78, 27
1, 186240, Note_on_c, 0, 82, 32
1, 186240, Note_on_c, 0, 66, 36
1, 186480, Note_on_c, 0, 66, 0
1, 186480, Note_on_c, 0, 70, 31
1, 186600, Note_on_c, 0, 73, 0
1, 186600, Note_on_c, 0, 85, 0
1, 186600, Note_on_c, 0, 75, 49
1, 186692, Control_c, 0, 64, 0
1, 186696, Note_on_c, 0, 82, 0
1, 186696, Note_on_c, 0, 78, 0
1, 186720, Tempo, 293198
1, 186720, Note_on_c, 0, 70, 0
1, 186720, Note_on_c, 0, 87, 59
1, 187080, Tempo, 267189
1, 187200, Tempo, 258866
1, 187200, Note_on_c, 0, 87, 0
1, 187200, Note_on_c, 0, 75, 0
1, 187200, Note_on_c, 0, 87, 65
1, 187200, Note_on_c, 0, 75, 54
1, 187271, Control_c, 0, 64, 127
1, 187440, Note_on_c, 0, 42, 27
1, 187680, Tempo, 255831
1, 187680, Note_on_c, 0, 42, 0
1, 187680, Note_on_c, 0, 78, 30
1, 187680, Note_on_c, 0, 82, 36
1, 187680, Note_on_c, 0, 49, 29
1, 187920, Note_on_c, 0, 49, 0
1, 187920, Note_on_c, 0, 54, 31
1, 188136, Note_on_c, 0, 78, 0
1, 188136, Note_on_c, 0, 82, 0
1, 188160, Tempo, 258866
1, 188160, Note_on_c, 0, 54, 0
1, 188160, Note_on_c, 0, 78, 30
1, 188160, Note_on_c, 0, 82, 36
1, 188160, Note_on_c, 0, 58, 32
1, 188400, Note_on_c, 0, 58, 0
1, 188400, Note_on_c, 0, 61, 34
1, 188616, Note_on_c, 0, 78, 0
1, 188616, Note_on_c, 0, 82, 0
1, 188640, Tempo, 255831
1, 188640, Note_on_c, 0, 87, 0
1, 188640, Note_on_c, 0, 75, 0
1, 188640, Note_on_c, 0, 61, 0
1, 188640, Note_on_c, 0, 85, 57
1, 188640, Note_on_c, 0, 73, 50
1, 188640, Note_on_c, 0, 66, 35
1, 188880, Note_on_c, 0, 66, 0
1, 188880, Note_on_c, 0, 61, 31
1, 189120, Note_on_c, 0, 61, 0
1, 189120, Note_on_c, 0, 78, 29
1, 189120, Note_on_c, 0, 82, 35
1, 189120, Note_on_c, 0, 66, 36
1, 189360, Note_on_c, 0, 66, 0
1, 189360, Note_on_c, 0, 70, 31
1, 189576, Note_on_c, 0, 78, 0
1, 189576, Note_on_c, 0, 82, 0
1, 189600, Tempo, 274424
1, 189600, Note_on_c, 0, 85, 0
1, 189600, Note_on_c, 0, 73, 0
1, 189600, Note_on_c, 0, 70, 0
1, 189600, Note_on_c, 0, 82, 55
1, 189600, Note_on_c, 0, 70, 46
1, 189960, Tempo, 257312
1, 189960, Note_on_c, 0, 70, 0
1, 189960, Note_on_c, 0, 82, 0
1, 189960, Note_on_c, 0, 66, 54
1, 189965, Control_c, 0, 64, 0
1, 190080, Tempo, 257843
1, 190080, Note_on_c, 0, 78, 61
1, 190080, Control_c, 0, 64, 127
1, 190320, Note_on_c, 0, 42, 27
1, 190560, Tempo, 255831
1, 190560, Note_on_c, 0, 42, 0
1, 190560, Note_on_c, 0, 71, 27
1, 190560, Note_on_c, 0, 75, 32
1, 190560, Note_on_c, 0, 51, 29
1, 190800, Note_on_c, 0, 51, 0
1, 190800, Note_on_c, 0, 54, 31
1, 191016, Note_on_c, 0, 71, 0
1, 191016, Note_on_c, 0, 75, 0
1, 191040, Tempo, 257843
1, 191040, Note_on_c, 0, 54, 0
1, 191040, Note_on_c, 0, 71, 29
1, 191040, Note_on_c, 0, 75, 35
1, 191040, Note_on_c, 0, 59, 32
1, 191280, Note_on_c, 0, 59, 0
1, 191280, Note_on_c, 0, 63, 34
1, 191496, Note_on_c, 0, 71, 0
1, 191496, Note_on_c, 0, 75, 0
1, 191520, Note_on_c, 0, 66, 0
1, 191520, Note_on_c, 0, 78, 0
1, 191520, Note_on_c, 0, 63, 0
1, 191520, Note_on_c, 0, 80, 57
1, 191520, Note_on_c, 0, 68, 50
1, 191661, Control_c, 0, 64, 0
1, 191859, Control_c, 0, 64, 127
1, 192000, Tempo, 255831
1, 192000, Note_on_c, 0, 75, 32
1, 192000, Note_on_c, 0, 71, 27
1, 192456, Note_on_c, 0, 71, 0
1, 192456, Note_on_c, 0, 75, 0
1, 192480, Tempo, 268480
1, 192480, Note_on_c, 0, 75, 32
1, 192480, Note_on_c, 0, 71, 27
1, 192840, Tempo, 256137
1, 192840, Note_on_c, 0, 68, 0
1, 192840, Note_on_c, 0, 80, 0
1, 192840, Note_on_c, 0, 70, 54
1, 192936, Note_on_c, 0, 75, 0
1, 192936, Note_on_c, 0, 71, 0
1, 192960, Tempo, 255831
1, 192960, Note_on_c, 0, 82, 62
1, 192987, Control_c, 0, 64, 0
1, 193200, Control_c, 0, 64, 127
1, 193200, Note_on_c, 0, 42, 27
1, 193440, Tempo, 256827
1, 193440, Note_on_c, 0, 42, 0
1, 193440, Note_on_c, 0, 73, 27
1, 193440, Note_on_c, 0, 78, 32
1, 193440, Note_on_c, 0, 49, 29
1, 193680, Note_on_c, 0, 49, 0
1, 193680, Note_on_c, 0, 54, 31
1, 193896, Note_on_c, 0, 73, 0
1, 193896, Note_on_c, 0, 78, 0
1, 193920, Note_on_c, 0, 54, 0
1, 193920, Note_on_c, 0, 73, 29
1, 193920, Note_on_c, 0, 78, 35
1, 193920, Note_on_c, 0, 58, 32
1, 194160, Note_on_c, 0, 58, 0
1, 194160, Note_on_c, 0, 61, 34
1, 194376, Note_on_c, 0, 73, 0
1, 194376, Note_on_c, 0, 78, 0
1, 194400, Tempo, 252855
1, 194400, Note_on_c, 0, 61, 0
1, 194400, Note_on_c, 0, 73, 27
1, 194400, Note_on_c, 0, 78, 32
1, 194400, Note_on_c, 0, 66, 35
1, 194640, Note_on_c, 0, 66, 0
1, 194640, Note_on_c, 0, 61, 31
1, 194856, Note_on_c, 0, 73, 0
1, 194856, Note_on_c, 0, 78, 0
1, 194880, Tempo, 255831
1, 194880, Note_on_c, 0, 61, 0
1, 194880, Note_on_c, 0, 73, 27
1, 194880, Note_on_c, 0, 78, 32
1, 194880, Note_on_c, 0, 66, 36
1, 195120, Note_on_c, 0, 66, 0
1, 195120, Note_on_c, 0, 70, 31
1, 195336, Note_on_c, 0, 73, 0
1, 195336, Note_on_c, 0, 78, 0
1, 195360, Tempo, 301129
1, 195360, Note_on_c, 0, 70, 0
1, 195360, Note_on_c, 0, 73, 27
1, 195360, Note_on_c, 0, 78, 32
1, 195710, Note_on_c, 0, 73, 0
1, 195713, Control_c, 0, 64, 0
1, 195720, Tempo, 265275
1, 195720, Note_on_c, 0, 70, 0
1, 195720, Note_on_c, 0, 82, 0
1, 195720, Note_on_c, 0, 73, 55
1, 195816, Note_on_c, 0, 78, 0
1, 195840, Tempo, 258866
1, 195840, Note_on_c, 0, 85, 63
1, 195861, Control_c, 0, 64, 127
1, 196080, Note_on_c, 0, 42, 31
1, 196320, Tempo, 255831
1, 196320, Note_on_c, 0, 42, 0
1, 196320, Note_on_c, 0, 82, 41
1, 196320, Note_on_c, 0, 78, 34
1, 196320, Note_on_c, 0, 49, 33
1, 196560, Note_on_c, 0, 49, 0
1, 196560, Note_on_c, 0, 54, 35
1, 196776, Note_on_c, 0, 82, 0
1, 196776, Note_on_c, 0, 78, 0
1, 196800, Tempo, 289394
1, 196800, Note_on_c, 0, 54, 0
1, 196800, Note_on_c, 0, 78, 34
1, 196800, Note_on_c, 0, 82, 41
1, 196800, Note_on_c, 0, 58, 36
1, 197040, Note_on_c, 0, 58, 0
1, 197040, Note_on_c, 0, 61, 39
1, 197256, Note_on_c, 0, 78, 0
1, 197256, Note_on_c, 0, 82, 0
1, 197280, Tempo, 259112
1, 197280, Note_on_c, 0, 73, 0
1, 197280, Note_on_c, 0, 85, 0
1, 197280, Note_on_c, 0, 61, 0
1, 197280, Note_on_c, 0, 89, 65
1, 197280, Note_on_c, 0, 77, 57
1, 197280, Note_on_c, 0, 65, 40
1, 197280, Note_on_c, 0, 66, 33
1, 197280, Note_on_c, 0, 70, 33
1, 197286, Control_c, 0, 64, 0
1, 197421, Control_c, 0, 64, 127
1, 197760, Note_on_c, 0, 70, 0
1, 197760, Note_on_c, 0, 65, 0
1, 197760, Note_on_c, 0, 89, 0
1, 197760, Note_on_c, 0, 77, 0
1, 197760, Note_on_c, 0, 66, 0
1, 197760, Note_on_c, 0, 87, 64
1, 197760, Note_on_c, 0, 75, 56
1, 197760, Note_on_c, 0, 63, 37
1, 197760, Note_on_c, 0, 66, 32
1, 197760, Note_on_c, 0, 70, 32
1, 198240, Tempo, 263043
1, 198240, Note_on_c, 0, 70, 0
1, 198240, Note_on_c, 0, 63, 0
1, 198240, Note_on_c, 0, 87, 0
1, 198240, Note_on_c, 0, 75, 0
1, 198240, Note_on_c, 0, 66, 0
1, 198240, Note_on_c, 0, 85, 64
1, 198240, Note_on_c, 0, 73, 56
1, 198240, Note_on_c, 0, 61, 36
1, 198240, Note_on_c, 0, 66, 30
1, 198240, Note_on_c, 0, 70, 30
1, 198586, Control_c, 0, 64, 0
1, 198600, Note_on_c, 0, 73, 0
1, 198600, Note_on_c, 0, 85, 0
1, 198600, Note_on_c, 0, 75, 63
1, 198720, Tempo, 258866
1, 198720, Note_on_c, 0, 66, 0
1, 198720, Note_on_c, 0, 70, 0
1, 198720, Note_on_c, 0, 61, 0
1, 198720, Note_on_c, 0, 87, 72
1, 198756, Control_c, 0, 64, 127
1, 198960, Note_on_c, 0, 42, 31
1, 199200, Tempo, 254831
1, 199200, Note_on_c, 0, 42, 0
1, 199200, Note_on_c, 0, 78, 35
1, 199200, Note_on_c, 0, 82, 42
1, 199200, Note_on_c, 0, 49, 33
1, 199440, Note_on_c, 0, 49, 0
1, 199440, Note_on_c, 0, 54, 35
1, 199680, Tempo, 260926
1, 199680, Note_on_c, 0, 54, 0
1, 199680, Note_on_c, 0, 87, 0
1, 199680, Note_on_c, 0, 75, 0
1, 199680, Note_on_c, 0, 85, 64
1, 199680, Note_on_c, 0, 73, 58
1, 199680, Note_on_c, 0, 58, 36
1, 199920, Note_on_c, 0, 58, 0
1, 199920, Note_on_c, 0, 61, 39
1, 200160, Tempo, 258866
1, 200160, Note_on_c, 0, 61, 0
1, 200160, Note_on_c, 0, 73, 0
1, 200160, Note_on_c, 0, 82, 0
1, 200160, Note_on_c, 0, 78, 0
1, 200160, Note_on_c, 0, 85, 0
1, 200160, Note_on_c, 0, 82, 67
1, 200160, Note_on_c, 0, 70, 59
1, 200640, Tempo, 261974
1, 200640, Note_on_c, 0, 73, 35
1, 200640, Note_on_c, 0, 78, 42
1, 201120, Tempo, 285687
1, 201120, Note_on_c, 0, 70, 0
1, 201120, Note_on_c, 0, 82, 0
1, 201120, Note_on_c, 0, 78, 63
1, 201120, Note_on_c, 0, 66, 55
1, 201480, Tempo, 271751
1, 201480, Note_on_c, 0, 66, 0
1, 201480, Note_on_c, 0, 78, 0
1, 201480, Note_on_c, 0, 66, 60
1, 201516, Control_c, 0, 64, 0
1, 201600, Tempo, 261540
1, 201600, Note_on_c, 0, 73, 0
1, 201600, Note_on_c, 0, 78, 0
1, 201600, Note_on_c, 0, 78, 68
1, 201600, Control_c, 0, 64, 127
1, 201840, Note_on_c, 0, 42, 27
1, 202080, Tempo, 257843
1, 202080, Note_on_c, 0, 42, 0
1, 202080, Note_on_c, 0, 71, 34
1, 202080, Note_on_c, 0, 75, 41
1, 202080, Note_on_c, 0, 51, 29
1, 202320, Note_on_c, 0, 51, 0
1, 202320, Note_on_c, 0, 54, 31
1, 202536, Note_on_c, 0, 71, 0
1, 202536, Note_on_c, 0, 75, 0
1, 202560, Tempo, 261974
1, 202560, Note_on_c, 0, 54, 0
1, 202560, Note_on_c, 0, 75, 41
1, 202560, Note_on_c, 0, 71, 34
1, 202560, Note_on_c, 0, 59, 32
1, 202800, Note_on_c, 0, 59, 0
1, 202800, Note_on_c, 0, 63, 34
1, 203016, Note_on_c, 0, 75, 0
1, 203016, Note_on_c, 0, 71, 0
1, 203040, Tempo, 265275
1, 203040, Note_on_c, 0, 66, 0
1, 203040, Note_on_c, 0, 78, 0
1, 203040, Note_on_c, 0, 63, 0
1, 203040, Note_on_c, 0, 82, 68
1, 203040, Note_on_c, 0, 70, 60
1, 203040, Note_on_c, 0, 58, 40
1, 203040, Note_on_c, 0, 59, 33
1, 203040, Note_on_c, 0, 63, 33
1, 203049, Control_c, 0, 64, 0
1, 203160, Control_c, 0, 64, 127
1, 203520, Note_on_c, 0, 63, 0
1, 203520, Note_on_c, 0, 58, 0
1, 203520, Note_on_c, 0, 82, 0
1, 203520, Note_on_c, 0, 70, 0
1, 203520, Note_on_c, 0, 59, 0
1, 203520, Note_on_c, 0, 80, 61
1, 203520, Note_on_c, 0, 68, 54
1, 203520, Note_on_c, 0, 56, 37
1, 203520, Note_on_c, 0, 59, 32
1, 203520, Note_on_c, 0, 63, 32
1, 204000, Tempo, 271751
1, 204000, Note_on_c, 0, 63, 0
1, 204000, Note_on_c, 0, 56, 0
1, 204000, Note_on_c, 0, 80, 0
1, 204000, Note_on_c, 0, 68, 0
1, 204000, Note_on_c, 0, 59, 0
1, 204000, Note_on_c, 0, 78, 61
1, 204000, Note_on_c, 0, 66, 54
1, 204000, Note_on_c, 0, 54, 36
1, 204000, Note_on_c, 0, 59, 30
1, 204000, Note_on_c, 0, 63, 30
1, 204332, Control_c, 0, 64, 0
1, 204360, Note_on_c, 0, 66, 0
1, 204360, Note_on_c, 0, 78, 0
1, 204360, Note_on_c, 0, 70, 60
1, 204480, Tempo, 260926
1, 204480, Note_on_c, 0, 59, 0
1, 204480, Note_on_c, 0, 63, 0
1, 204480, Note_on_c, 0, 54, 0
1, 204480, Note_on_c, 0, 82, 68
1, 204480, Control_c, 0, 64, 127
1, 204720, Note_on_c, 0, 42, 27
1, 204960, Note_on_c, 0, 42, 0
1, 204960, Note_on_c, 0, 78, 36
1, 204960, Note_on_c, 0, 73, 31
1, 204960, Note_on_c, 0, 49, 29
1, 205200, Note_on_c, 0, 49, 0
1, 205200, Note_on_c, 0, 54, 31
1, 205416, Note_on_c, 0, 78, 0
1, 205416, Note_on_c, 0, 73, 0
1, 205440, Tempo, 258866
1, 205440, Note_on_c, 0, 54, 0
1, 205440, Note_on_c, 0, 78, 39
1, 205440, Note_on_c, 0, 73, 33
1, 205440, Note_on_c, 0, 58, 32
1, 205680, Note_on_c, 0, 58, 0
1, 205680, Note_on_c, 0, 61, 34
1, 205896, Note_on_c, 0, 78, 0
1, 205896, Note_on_c, 0, 73, 0
1, 205920, Tempo, 253829
1, 205920, Note_on_c, 0, 61, 0
1, 205920, Note_on_c, 0, 78, 36
1, 205920, Note_on_c, 0, 73, 31
1, 205920, Note_on_c, 0, 66, 35
1, 206160, Note_on_c, 0, 66, 0
1, 206160, Note_on_c, 0, 61, 31
1, 206376, Note_on_c, 0, 78, 0
1, 206376, Note_on_c, 0, 73, 0
1, 206400, Tempo, 256827
1, 206400, Note_on_c, 0, 61, 0
1, 206400, Note_on_c, 0, 78, 36
1, 206400, Note_on_c, 0, 73, 31
1, 206400, Note_on_c, 0, 66, 36
1, 206640, Note_on_c, 0, 66, 0
1, 206640, Note_on_c, 0, 70, 31
1, 206856, Note_on_c, 0, 78, 0
1, 206856, Note_on_c, 0, 73, 0
1, 206880, Tempo, 317427
1, 206880, Note_on_c, 0, 70, 0
1, 206880, Note_on_c, 0, 78, 36
1, 206880, Note_on_c, 0, 73, 31
1, 207240, Tempo, 264644
1, 207240, Note_on_c, 0, 82, 0
1, 207240, Note_on_c, 0, 70, 0
1, 207240, Note_on_c, 0, 70, 60
1, 207254, Control_c, 0, 64, 0
1, 207336, Note_on_c, 0, 78, 0
1, 207336, Note_on_c, 0, 73, 0
1, 207360, Tempo, 260926
1, 207360, Note_on_c, 0, 82, 68
1, 207367, Control_c, 0, 64, 127
1, 207600, Note_on_c, 0, 42, 33
1, 207840, Note_on_c, 0, 42, 0
1, 207840, Note_on_c, 0, 77, 36
1, 207840, Note_on_c, 0, 74, 31
1, 207840, Note_on_c, 0, 50, 34
1, 208080, Note_on_c, 0, 50, 0
1, 208080, Note_on_c, 0, 53, 35
1, 208296, Note_on_c, 0, 77, 0
1, 208296, Note_on_c, 0, 74, 0
1, 208320, Tempo, 256137
1, 208320, Note_on_c, 0, 53, 0
1, 208320, Note_on_c, 0, 77, 39
1, 208320, Note_on_c, 0, 74, 33
1, 208320, Note_on_c, 0, 58, 36
1, 208560, Note_on_c, 0, 58, 0
1, 208560, Note_on_c, 0, 62, 37
1, 208776, Note_on_c, 0, 77, 0
1, 208776, Note_on_c, 0, 74, 0
1, 208800, Tempo, 260926
1, 208800, Note_on_c, 0, 62, 0
1, 208800, Note_on_c, 0, 77, 36
1, 208800, Note_on_c, 0, 74, 31
1, 209040, Tempo, 258866
1, 209256, Note_on_c, 0, 74, 0
1, 209256, Note_on_c, 0, 77, 0
1, 209280, Note_on_c, 0, 77, 36
1, 209280, Note_on_c, 0, 74, 31
1, 209736, Note_on_c, 0, 74, 0
1, 209736, Note_on_c, 0, 77, 0
1, 209760, Tempo, 273087
1, 209760, Note_on_c, 0, 82, 0
1, 209760, Note_on_c, 0, 70, 0
1, 209760, Note_on_c, 0, 82, 72
1, 209760, Note_on_c, 0, 70, 63
1, 210113, Control_c, 0, 64, 0
1, 210120, Note_on_c, 0, 70, 0
1, 210120, Note_on_c, 0, 82, 0
1, 210120, Note_on_c, 0, 70, 67
1, 210240, Tempo, 260926
1, 210240, Note_on_c, 0, 82, 77
1, 210290, Control_c, 0, 64, 127
1, 210480, Note_on_c, 0, 42, 36
1, 210720, Tempo, 258866
1, 210720, Note_on_c, 0, 42, 0
1, 210720, Note_on_c, 0, 78, 41
1, 210720, Note_on_c, 0, 75, 34
1, 210720, Note_on_c, 0, 51, 38
1, 210960, Note_on_c, 0, 51, 0
1, 210960, Note_on_c, 0, 54, 41
1, 211176, Note_on_c, 0, 78, 0
1, 211176, Note_on_c, 0, 75, 0
1, 211200, Tempo, 265170
1, 211200, Note_on_c, 0, 54, 0
1, 211200, Note_on_c, 0, 78, 41
1, 211200, Note_on_c, 0, 75, 34
1, 211200, Note_on_c, 0, 58, 43
1, 211440, Note_on_c, 0, 58, 0
1, 211440, Note_on_c, 0, 63, 45
1, 211656, Note_on_c, 0, 78, 0
1, 211656, Note_on_c, 0, 75, 0
1, 211680, Tempo, 260926
1, 211680, Note_on_c, 0, 70, 0
1, 211680, Note_on_c, 0, 82, 0
1, 211680, Note_on_c, 0, 63, 0
1, 211680, Note_on_c, 0, 75, 72
1, 211680, Note_on_c, 0, 63, 60
1, 212160, Tempo, 257843
1, 212160, Note_on_c, 0, 70, 40
1, 212160, Note_on_c, 0, 66, 33
1, 212616, Note_on_c, 0, 66, 0
1, 212616, Note_on_c, 0, 70, 0
1, 212640, Tempo, 266241
1, 212640, Note_on_c, 0, 70, 40
1, 212640, Note_on_c, 0, 66, 33
1, 212993, Control_c, 0, 64, 0
1, 213000, Note_on_c, 0, 63, 0
1, 213000, Note_on_c, 0, 75, 0
1, 213000, Note_on_c, 0, 70, 72
1, 213096, Note_on_c, 0, 70, 0
1, 213096, Note_on_c, 0, 66, 0
1, 213120, Tempo, 260926
1, 213120, Note_on_c, 0, 82, 82
1, 213141, Control_c, 0, 64, 127
1, 213360, Note_on_c, 0, 42, 37
1, 213600, Note_on_c, 0, 42, 0
1, 213600, Note_on_c, 0, 77, 43
1, 213600, Note_on_c, 0, 74, 36
1, 213600, Note_on_c, 0, 50, 39
1, 213840, Note_on_c, 0, 50, 0
1, 213840, Note_on_c, 0, 53, 41
1, 214056, Note_on_c, 0, 77, 0
1, 214056, Note_on_c, 0, 74, 0
1, 214080, Tempo, 252855
1, 214080, Note_on_c, 0, 53, 0
1, 214080, Note_on_c, 0, 77, 43
1, 214080, Note_on_c, 0, 74, 36
1, 214080, Note_on_c, 0, 58, 43
1, 214320, Note_on_c, 0, 58, 0
1, 214320, Note_on_c, 0, 62, 44
1, 214536, Note_on_c, 0, 77, 0
1, 214536, Note_on_c, 0, 74, 0
1, 214560, Tempo, 271751
1, 214560, Note_on_c, 0, 62, 0
1, 214560, Note_on_c, 0, 77, 39
1, 214560, Note_on_c, 0, 74, 27
1, 215016, Note_on_c, 0, 74, 0
1, 215016, Note_on_c, 0, 77, 0
1, 215040, Tempo, 277791
1, 215040, Note_on_c, 0, 82, 0
1, 215040, Note_on_c, 0, 70, 0
1, 215040, Note_on_c, 0, 83, 76
1, 215040, Note_on_c, 0, 71, 67
1, 215040, Note_on_c, 0, 62, 35
1, 215040, Note_on_c, 0, 65, 42
1, 215040, Control_c, 0, 64, 0
1, 215040, Note_on_c, 0, 59, 50
1, 215146, Control_c, 0, 64, 127
1, 215496, Note_on_c, 0, 65, 0
1, 215496, Note_on_c, 0, 62, 0
1, 215520, Tempo, 283701
1, 215520, Note_on_c, 0, 83, 0
1, 215520, Note_on_c, 0, 71, 0
1, 215520, Note_on_c, 0, 59, 0
1, 215520, Note_on_c, 0, 85, 76
1, 215520, Note_on_c, 0, 73, 65
1, 215520, Note_on_c, 0, 62, 26
1, 215520, Note_on_c, 0, 65, 36
1, 215520, Note_on_c, 0, 61, 54
1, 215880, Note_on_c, 0, 73, 0
1, 215880, Note_on_c, 0, 85, 0
1, 215880, Note_on_c, 0, 70, 75
1, 215901, Control_c, 0, 64, 0
1, 215976, Note_on_c, 0, 65, 0
1, 215976, Note_on_c, 0, 62, 0
1, 216000, Tempo, 260926
1, 216000, Note_on_c, 0, 61, 0
1, 216000, Note_on_c, 0, 82, 86
1, 216106, Control_c, 0, 64, 127
1, 216240, Note_on_c, 0, 42, 36
1, 216480, Tempo, 257909
1, 216480, Note_on_c, 0, 42, 0
1, 216480, Note_on_c, 0, 78, 45
1, 216480, Note_on_c, 0, 75, 45
1, 216480, Note_on_c, 0, 51, 37
1, 216720, Note_on_c, 0, 51, 0
1, 216720, Note_on_c, 0, 54, 38
1, 216936, Note_on_c, 0, 78, 0
1, 216936, Note_on_c, 0, 75, 0
1, 216960, Tempo, 265170
1, 216960, Note_on_c, 0, 54, 0
1, 216960, Note_on_c, 0, 78, 46
1, 216960, Note_on_c, 0, 75, 46
1, 216960, Note_on_c, 0, 58, 39
1, 217200, Note_on_c, 0, 58, 0
1, 217200, Note_on_c, 0, 63, 41
1, 217416, Note_on_c, 0, 78, 0
1, 217416, Note_on_c, 0, 75, 0
1, 217440, Tempo, 260926
1, 217440, Note_on_c, 0, 63, 0
1, 217440, Note_on_c, 0, 78, 50
1, 217440, Note_on_c, 0, 75, 50
1, 217440, Note_on_c, 0, 66, 42
1, 217680, Note_on_c, 0, 66, 0
1, 217680, Note_on_c, 0, 54, 44
1, 217896, Note_on_c, 0, 78, 0
1, 217896, Note_on_c, 0, 75, 0
1, 217920, Tempo, 257843
1, 217920, Note_on_c, 0, 54, 0
1, 217920, Note_on_c, 0, 78, 52
1, 217920, Note_on_c, 0, 75, 52
1, 217920, Note_on_c, 0, 58, 45
1, 218160, Note_on_c, 0, 58, 0
1, 218160, Note_on_c, 0, 63, 45
1, 218376, Note_on_c, 0, 78, 0
1, 218376, Note_on_c, 0, 75, 0
1, 218400, Tempo, 277162
1, 218400, Note_on_c, 0, 63, 0
1, 218400, Note_on_c, 0, 78, 55
1, 218400, Note_on_c, 0, 75, 55
1, 218400, Note_on_c, 0, 66, 47
1, 218633, Control_c, 0, 64, 0
1, 218640, Note_on_c, 0, 66, 0
1, 218640, Note_on_c, 0, 70, 48
1, 218746, Control_c, 0, 64, 127
1, 218750, Note_on_c, 0, 75, 0
1, 218760, Tempo, 263401
1, 218760, Note_on_c, 0, 82, 0
1, 218760, Note_on_c, 0, 70, 0
1, 218760, Note_on_c, 0, 75, 86
1, 218856, Note_on_c, 0, 78, 0
1, 218880, Tempo, 260926
1, 218880, Note_on_c, 0, 70, 0
1, 218880, Note_on_c, 0, 87, 102
1, 219120, Note_on_c, 0, 48, 58
1, 219360, Note_on_c, 0, 82, 64
1, 219360, Note_on_c, 0, 78, 64
1, 219600, Note_on_c, 0, 48, 0
1, 219600, Note_on_c, 0, 54, 48
1, 219816, Note_on_c, 0, 82, 0
1, 219816, Note_on_c, 0, 78, 0
1, 219840, Tempo, 256137
1, 219840, Note_on_c, 0, 54, 0
1, 219840, Note_on_c, 0, 82, 66
1, 219840, Note_on_c, 0, 78, 66
1, 219840, Note_on_c, 0, 58, 50
1, 220080, Note_on_c, 0, 58, 0
1, 220080, Note_on_c, 0, 63, 52
1, 220296, Note_on_c, 0, 82, 0
1, 220296, Note_on_c, 0, 78, 0
1, 220320, Tempo, 260926
1, 220320, Note_on_c, 0, 75, 0
1, 220320, Note_on_c, 0, 82, 66
1, 220320, Note_on_c, 0, 78, 66
1, 220560, Tempo, 258866
1, 220776, Note_on_c, 0, 78, 0
1, 220776, Note_on_c, 0, 82, 0
1, 220800, Tempo, 269675
1, 220800, Note_on_c, 0, 82, 66
1, 220800, Note_on_c, 0, 78, 66
1, 220800, Note_on_c, 0, 66, 54
1, 220800, Note_on_c, 0, 70, 54
1, 221256, Note_on_c, 0, 78, 0
1, 221256, Note_on_c, 0, 82, 0
1, 221280, Tempo, 320017
1, 221280, Note_on_c, 0, 66, 0
1, 221280, Note_on_c, 0, 63, 0
1, 221280, Note_on_c, 0, 70, 0
1, 221280, Note_on_c, 0, 87, 0
1, 221280, Note_on_c, 0, 86, 82
1, 221280, Note_on_c, 0, 74, 70
1, 221280, Note_on_c, 0, 62, 53
1, 221280, Note_on_c, 0, 66, 53
1, 221280, Note_on_c, 0, 70, 53
1, 221286, Control_c, 0, 64, 0
1, 221365, Control_c, 0, 64, 127
1, 221640, Note_on_c, 0, 74, 0
1, 221640, Note_on_c, 0, 86, 0
1, 221640, Note_on_c, 0, 74, 78
1, 221646, Control_c, 0, 64, 0
1, 221760, Tempo, 260926
1, 221760, Note_on_c, 0, 66, 0
1, 221760, Note_on_c, 0, 70, 0
1, 221760, Note_on_c, 0, 62, 0
1, 221760, Note_on_c, 0, 86, 95
1, 221760, Control_c, 0, 64, 127
1, 222000, Note_on_c, 0, 49, 47
1, 222240, Tempo, 258866
1, 222240, Note_on_c, 0, 49, 0
1, 222240, Note_on_c, 0, 82, 61
1, 222240, Note_on_c, 0, 78, 61
1, 222240, Note_on_c, 0, 58, 50
1, 222480, Note_on_c, 0, 58, 0
1, 222480, Note_on_c, 0, 61, 52
1, 222696, Note_on_c, 0, 82, 0
1, 222696, Note_on_c, 0, 78, 0
1, 222720, Tempo, 265170
1, 222720, Note_on_c, 0, 61, 0
1, 222720, Note_on_c, 0, 78, 61
1, 222720, Note_on_c, 0, 82, 61
1, 222720, Note_on_c, 0, 66, 55
1, 222960, Note_on_c, 0, 66, 0
1, 222960, Note_on_c, 0, 70, 57
1, 223176, Note_on_c, 0, 78, 0
1, 223176, Note_on_c, 0, 82, 0
1, 223200, Tempo, 260926
1, 223200, Note_on_c, 0, 74, 0
1, 223200, Note_on_c, 0, 86, 0
1, 223200, Note_on_c, 0, 70, 0
1, 223200, Note_on_c, 0, 85, 82
1, 223200, Note_on_c, 0, 73, 70
1, 223680, Tempo, 257843
1, 223680, Note_on_c, 0, 78, 62
1, 223680, Note_on_c, 0, 82, 62
1, 224136, Note_on_c, 0, 82, 0
1, 224136, Note_on_c, 0, 78, 0
1, 224160, Tempo, 266241
1, 224160, Note_on_c, 0, 78, 62
1, 224160, Note_on_c, 0, 82, 62
1, 224464, Control_c, 0, 64, 0
1, 224520, Note_on_c, 0, 73, 0
1, 224520, Note_on_c, 0, 85, 0
1, 224520, Note_on_c, 0, 73, 76
1, 224616, Note_on_c, 0, 78, 0
1, 224616, Note_on_c, 0, 82, 0
1, 224640, Tempo, 260926
1, 224640, Note_on_c, 0, 85, 88
1, 224640, Control_c, 0, 64, 127
1, 224880, Note_on_c, 0, 49, 45
1, 225120, Note_on_c, 0, 49, 0
1, 225120, Note_on_c, 0, 77, 50
1, 225120, Note_on_c, 0, 81, 50
1, 225120, Note_on_c, 0, 57, 47
1, 225360, Note_on_c, 0, 57, 0
1, 225360, Note_on_c, 0, 61, 49
1, 225576, Note_on_c, 0, 77, 0
1, 225576, Note_on_c, 0, 81, 0
1, 225600, Tempo, 252855
1, 225600, Note_on_c, 0, 61, 0
1, 225600, Note_on_c, 0, 77, 50
1, 225600, Note_on_c, 0, 81, 50
1, 225600, Note_on_c, 0, 65, 52
1, 225840, Note_on_c, 0, 65, 0
1, 225840, Note_on_c, 0, 69, 54
1, 225960, Note_on_c, 0, 73, 0
1, 225960, Note_on_c, 0, 85, 0
1, 225960, Note_on_c, 0, 75, 74
1, 226056, Note_on_c, 0, 81, 0
1, 226056, Note_on_c, 0, 77, 0
1, 226080, Tempo, 271751
1, 226080, Note_on_c, 0, 69, 0
1, 226080, Note_on_c, 0, 87, 85
1, 226560, Tempo, 269119
1, 226560, Note_on_c, 0, 81, 58
1, 226560, Note_on_c, 0, 77, 58
1, 226560, Note_on_c, 0, 63, 47
1, 226560, Note_on_c, 0, 65, 47
1, 226560, Note_on_c, 0, 69, 56
1, 227016, Note_on_c, 0, 77, 0
1, 227016, Note_on_c, 0, 81, 0
1, 227040, Tempo, 268480
1, 227040, Note_on_c, 0, 87, 0
1, 227040, Note_on_c, 0, 63, 0
1, 227040, Note_on_c, 0, 75, 0
1, 227040, Note_on_c, 0, 69, 0
1, 227040, Note_on_c, 0, 65, 0
1, 227040, Note_on_c, 0, 89, 86
1, 227040, Note_on_c, 0, 77, 73
1, 227040, Note_on_c, 0, 65, 60
1, 227379, Control_c, 0, 64, 0
1, 227400, Note_on_c, 0, 77, 0
1, 227400, Note_on_c, 0, 89, 0
1, 227400, Note_on_c, 0, 73, 83
1, 227520, Tempo, 260926
1, 227520, Note_on_c, 0, 65, 0
1, 227520, Note_on_c, 0, 85, 94
1, 227623, Control_c, 0, 64, 127
1, 227760, Note_on_c, 0, 42, 53
1, 228000, Tempo, 257909
1, 228000, Note_on_c, 0, 42, 0
1, 228000, Note_on_c, 0, 78, 55
1, 228000, Note_on_c, 0, 82, 55
1, 228000, Note_on_c, 0, 49, 56
1, 228240, Note_on_c, 0, 49, 0
1, 228240, Note_on_c, 0, 54, 60
1, 228456, Note_on_c, 0, 78, 0
1, 228456, Note_on_c, 0, 82, 0
1, 228480, Tempo, 265170
1, 228480, Note_on_c, 0, 54, 0
1, 228480, Note_on_c, 0, 78, 63
1, 228480, Note_on_c, 0, 82, 63
1, 228480, Note_on_c, 0, 58, 64
1, 228720, Note_on_c, 0, 58, 0
1, 228720, Note_on_c, 0, 61, 67
1, 228936, Note_on_c, 0, 78, 0
1, 228936, Note_on_c, 0, 82, 0
1, 228960, Tempo, 287784
1, 228960, Note_on_c, 0, 73, 0
1, 228960, Note_on_c, 0, 85, 0
1, 228960, Note_on_c, 0, 61, 0
1, 228960, Note_on_c, 0, 94, 97
1, 228960, Note_on_c, 0, 82, 82
1, 228960, Note_on_c, 0, 70, 68
1, 228969, Control_c, 0, 64, 0
1, 229069, Control_c, 0, 64, 127
1, 229440, Tempo, 304584
1, 229440, Note_on_c, 0, 70, 0
1, 229440, Note_on_c, 0, 82, 0
1, 229440, Note_on_c, 0, 94, 0
1, 229440, Note_on_c, 0, 90, 89
1, 229440, Note_on_c, 0, 78, 75
1, 229440, Note_on_c, 0, 66, 66
1, 229440, Note_on_c, 0, 70, 66
1, 229920, Tempo, 326993
1, 229920, Note_on_c, 0, 70, 0
1, 229920, Note_on_c, 0, 90, 0
1, 229920, Note_on_c, 0, 78, 0
1, 229920, Note_on_c, 0, 66, 0
1, 229920, Note_on_c, 0, 89, 87
1, 229920, Note_on_c, 0, 77, 73
1, 229920, Note_on_c, 0, 65, 74
1, 229920, Note_on_c, 0, 66, 62
1, 229920, Note_on_c, 0, 70, 62
1, 230223, Control_c, 0, 64, 0
1, 230280, Tempo, 265275
1, 230280, Note_on_c, 0, 77, 0
1, 230280, Note_on_c, 0, 89, 0
1, 230280, Note_on_c, 0, 76, 90
1, 230400, Tempo, 260926
1, 230400, Note_on_c, 0, 66, 0
1, 230400, Note_on_c, 0, 70, 0
1, 230400, Note_on_c, 0, 65, 0
1, 230400, Note_on_c, 0, 88, 98
1, 230400, Control_c, 0, 64, 127
1, 230640, Tempo, 260926
1, 230640, Note_on_c, 0, 48, 54
1, 230880, Note_on_c, 0, 78, 66
1, 230880, Note_on_c, 0, 82, 66
1, 231120, Note_on_c, 0, 48, 0
1, 231120, Note_on_c, 0, 54, 56
1, 231360, Tempo, 256137
1, 231360, Note_on_c, 0, 54, 0
1, 231360, Note_on_c, 0, 82, 0
1, 231360, Note_on_c, 0, 78, 0
1, 231360, Note_on_c, 0, 78, 66
1, 231360, Note_on_c, 0, 82, 66
1, 231360, Note_on_c, 0, 58, 60
1, 231600, Note_on_c, 0, 58, 0
1, 231600, Note_on_c, 0, 64, 64
1, 231840, Tempo, 260926
1, 231840, Note_on_c, 0, 78, 0
1, 231840, Note_on_c, 0, 82, 0
1, 231840, Note_on_c, 0, 78, 64
1, 231840, Note_on_c, 0, 82, 64
1, 232080, Tempo, 258866
1, 232320, Note_on_c, 0, 82, 0
1, 232320, Note_on_c, 0, 76, 0
1, 232320, Note_on_c, 0, 78, 0
1, 232320, Note_on_c, 0, 88, 0
1, 232320, Note_on_c, 0, 75, 72
1, 232320, Note_on_c, 0, 87, 85
1, 232320, Note_on_c, 0, 78, 64
1, 232320, Note_on_c, 0, 82, 64
1, 232320, Note_on_c, 0, 63, 62
1, 232320, Note_on_c, 0, 66, 62
1, 232320, Note_on_c, 0, 70, 62
1, 232800, Tempo, 273087
1, 232800, Note_on_c, 0, 70, 0
1, 232800, Note_on_c, 0, 64, 0
1, 232800, Note_on_c, 0, 82, 0
1, 232800, Note_on_c, 0, 75, 0
1, 232800, Note_on_c, 0, 87, 0
1, 232800, Note_on_c, 0, 78, 0
1, 232800, Note_on_c, 0, 63, 0
1, 232800, Note_on_c, 0, 66, 0
1, 232800, Note_on_c, 0, 74, 71
1, 232800, Note_on_c, 0, 86, 84
1, 232800, Note_on_c, 0, 78, 64
1, 232800, Note_on_c, 0, 82, 64
1, 232800, Note_on_c, 0, 62, 59
1, 232800, Note_on_c, 0, 66, 59
1, 232800, Note_on_c, 0, 70, 59
1, 233150, Note_on_c, 0, 74, 0
1, 233160, Tempo, 266241
1, 233160, Note_on_c, 0, 74, 82
1, 233160, Control_c, 0, 64, 0
1, 233280, Tempo, 260926
1, 233280, Note_on_c, 0, 66, 0
1, 233280, Note_on_c, 0, 62, 0
1, 233280, Note_on_c, 0, 78, 0
1, 233280, Note_on_c, 0, 82, 0
1, 233280, Note_on_c, 0, 86, 0
1, 233280, Note_on_c, 0, 70, 0
1, 233280, Note_on_c, 0, 86, 97
1, 233280, Control_c, 0, 64, 127
1, 233520, Note_on_c, 0, 49, 58
1, 233760, Note_on_c, 0, 49, 0
1, 233760, Note_on_c, 0, 78, 58
1, 233760, Note_on_c, 0, 82, 58
1, 233760, Note_on_c, 0, 58, 61
1, 234000, Note_on_c, 0, 58, 0
1, 234000, Note_on_c, 0, 61, 63
1, 234216, Note_on_c, 0, 78, 0
1, 234216, Note_on_c, 0, 82, 0
1, 234240, Tempo, 252855
1, 234240, Note_on_c, 0, 61, 0
1, 234240, Note_on_c, 0, 78, 66
1, 234240, Note_on_c, 0, 82, 66
1, 234240, Note_on_c, 0, 66, 66
1, 234480, Note_on_c, 0, 66, 0
1, 234480, Note_on_c, 0, 70, 69
1, 234696, Note_on_c, 0, 78, 0
1, 234696, Note_on_c, 0, 82, 0
1, 234720, Tempo, 271751
1, 234720, Note_on_c, 0, 74, 0
1, 234720, Note_on_c, 0, 86, 0
1, 234720, Note_on_c, 0, 70, 0
1, 234720, Note_on_c, 0, 73, 73
1, 234720, Note_on_c, 0, 85, 86
1, 235200, Tempo, 269119
1, 235200, Note_on_c, 0, 82, 60
1, 235200, Note_on_c, 0, 78, 60
1, 235200, Note_on_c, 0, 61, 66
1, 235200, Note_on_c, 0, 66, 66
1, 235200, Note_on_c, 0, 70, 66
1, 235656, Note_on_c, 0, 78, 0
1, 235656, Note_on_c, 0, 82, 0
1, 235680, Tempo, 268480
1, 235680, Note_on_c, 0, 85, 0
1, 235680, Note_on_c, 0, 61, 0
1, 235680, Note_on_c, 0, 73, 0
1, 235680, Note_on_c, 0, 70, 0
1, 235680, Note_on_c, 0, 66, 0
1, 235680, Note_on_c, 0, 86, 83
1, 235680, Note_on_c, 0, 74, 70
1, 235680, Note_on_c, 0, 82, 60
1, 235680, Note_on_c, 0, 78, 60
1, 235680, Note_on_c, 0, 62, 66
1, 235680, Note_on_c, 0, 66, 66
1, 235680, Note_on_c, 0, 70, 66
1, 236040, Note_on_c, 0, 74, 0
1, 236040, Note_on_c, 0, 86, 0
1, 236040, Note_on_c, 0, 75, 84
1, 236040, Control_c, 0, 64, 0
1, 236160, Tempo, 260926
1, 236160, Note_on_c, 0, 82, 0
1, 236160, Note_on_c, 0, 66, 0
1, 236160, Note_on_c, 0, 62, 0
1, 236160, Note_on_c, 0, 78, 0
1, 236160, Note_on_c, 0, 70, 0
1, 236160, Note_on_c, 0, 87, 99
1, 236160, Control_c, 0, 64, 127
1, 236400, Note_on_c, 0, 49, 63
1, 236640, Tempo, 257909
1, 236640, Note_on_c, 0, 49, 0
1, 236640, Note_on_c, 0, 80, 58
1, 236640, Note_on_c, 0, 83, 58
1, 236640, Note_on_c, 0, 56, 65
1, 236880, Note_on_c, 0, 56, 0
1, 236880, Note_on_c, 0, 59, 66
1, 237096, Note_on_c, 0, 80, 0
1, 237096, Note_on_c, 0, 83, 0
1, 237120, Tempo, 269772
1, 237120, Note_on_c, 0, 59, 0
1, 237120, Note_on_c, 0, 80, 61
1, 237120, Note_on_c, 0, 83, 61
1, 237120, Note_on_c, 0, 63, 68
1, 237360, Note_on_c, 0, 63, 0
1, 237360, Note_on_c, 0, 68, 70
1, 237576, Note_on_c, 0, 80, 0
1, 237576, Note_on_c, 0, 83, 0
1, 237600, Tempo, 280649
1, 237600, Note_on_c, 0, 75, 0
1, 237600, Note_on_c, 0, 87, 0
1, 237600, Note_on_c, 0, 68, 0
1, 237600, Note_on_c, 0, 90, 98
1, 237600, Note_on_c, 0, 78, 83
1, 237600, Note_on_c, 0, 80, 49
1, 237600, Note_on_c, 0, 83, 62
1, 237600, Note_on_c, 0, 68, 43
1, 237600, Note_on_c, 0, 66, 43
1, 237600, Note_on_c, 0, 71, 69
1, 237609, Control_c, 0, 64, 0
1, 237734, Control_c, 0, 64, 127
1, 238080, Tempo, 290909
1, 238080, Note_on_c, 0, 71, 0
1, 238080, Note_on_c, 0, 68, 0
1, 238080, Note_on_c, 0, 78, 0
1, 238080, Note_on_c, 0, 80, 0
1, 238080, Note_on_c, 0, 90, 0
1, 238080, Note_on_c, 0, 66, 0
1, 238080, Note_on_c, 0, 83, 0
1, 238080, Note_on_c, 0, 89, 87
1, 238080, Note_on_c, 0, 77, 73
1, 238080, Note_on_c, 0, 80, 67
1, 238080, Note_on_c, 0, 83, 67
1, 238080, Note_on_c, 0, 68, 41
1, 238080, Note_on_c, 0, 65, 41
1, 238080, Note_on_c, 0, 71, 65
1, 238560, Tempo, 463356
1, 238560, Note_on_c, 0, 71, 0
1, 238560, Note_on_c, 0, 68, 0
1, 238560, Note_on_c, 0, 77, 0
1, 238560, Note_on_c, 0, 80, 0
1, 238560, Note_on_c, 0, 89, 0
1, 238560, Note_on_c, 0, 65, 0
1, 238560, Note_on_c, 0, 83, 0
1, 238560, Note_on_c, 0, 87, 83
1, 238560, Note_on_c, 0, 75, 70
1, 238560, Note_on_c, 0, 83, 62
1, 238560, Note_on_c, 0, 80, 49
1, 238560, Note_on_c, 0, 63, 40
1, 238560, Note_on_c, 0, 68, 40
1, 238560, Note_on_c, 0, 71, 64
1, 238871, Control_c, 0, 64, 0
1, 238920, Tempo, 256137
1, 238920, Note_on_c, 0, 75, 0
1, 238920, Note_on_c, 0, 87, 0
1, 238920, Note_on_c, 0, 78, 60
1, 239040, Tempo, 255831
1, 239040, Note_on_c, 0, 83, 0
1, 239040, Note_on_c, 0, 68, 0
1, 239040, Note_on_c, 0, 63, 0
1, 239040, Note_on_c, 0, 80, 0
1, 239040, Note_on_c, 0, 71, 0
1, 239040, Note_on_c, 0, 90, 67
1, 239280, Control_c, 0, 64, 127
1, 239280, Note_on_c, 0, 47, 30
1, 239520, Tempo, 260315
1, 239520, Note_on_c, 0, 47, 0
1, 239520, Note_on_c, 0, 86, 36
1, 239520, Note_on_c, 0, 83, 30
1, 239520, Note_on_c, 0, 54, 32
1, 239760, Note_on_c, 0, 54, 0
1, 239760, Note_on_c, 0, 59, 34
1, 239976, Note_on_c, 0, 86, 0
1, 239976, Note_on_c, 0, 83, 0
1, 240000, Note_on_c, 0, 59, 0
1, 240000, Note_on_c, 0, 86, 38
1, 240000, Note_on_c, 0, 83, 32
1, 240000, Note_on_c, 0, 62, 35
1, 240240, Note_on_c, 0, 62, 0
1, 240240, Note_on_c, 0, 66, 36
1, 240456, Note_on_c, 0, 86, 0
1, 240456, Note_on_c, 0, 83, 0
1, 240480, Tempo, 256137
1, 240480, Note_on_c, 0, 66, 0
1, 240480, Note_on_c, 0, 86, 36
1, 240480, Note_on_c, 0, 83, 29
1, 240480, Note_on_c, 0, 71, 37
1, 240720, Note_on_c, 0, 71, 0
1, 240720, Note_on_c, 0, 74, 33
1, 240936, Note_on_c, 0, 86, 0
1, 240936, Note_on_c, 0, 83, 0
1, 240960, Tempo, 261540
1, 240960, Note_on_c, 0, 74, 0
1, 240960, Note_on_c, 0, 86, 36
1, 240960, Note_on_c, 0, 83, 29
1, 241416, Note_on_c, 0, 83, 0
1, 241416, Note_on_c, 0, 86, 0
1, 241440, Tempo, 287894
1, 241440, Note_on_c, 0, 86, 35
1, 241440, Note_on_c, 0, 83, 29
1, 241800, Tempo, 260926
1, 241800, Note_on_c, 0, 90, 0
1, 241800, Note_on_c, 0, 78, 0
1, 241800, Note_on_c, 0, 79, 58
1, 241896, Note_on_c, 0, 86, 0
1, 241896, Note_on_c, 0, 83, 0
1, 241920, Tempo, 260315
1, 241920, Note_on_c, 0, 91, 66
1, 241947, Control_c, 0, 64, 0
1, 242160, Control_c, 0, 64, 127
1, 242160, Note_on_c, 0, 43, 29
1, 242400, Tempo, 263401
1, 242400, Note_on_c, 0, 43, 0
1, 242400, Note_on_c, 0, 86, 35
1, 242400, Note_on_c, 0, 83, 29
1, 242400, Note_on_c, 0, 50, 31
1, 242640, Note_on_c, 0, 50, 0
1, 242640, Note_on_c, 0, 55, 32
1, 242856, Note_on_c, 0, 86, 0
1, 242856, Note_on_c, 0, 83, 0
1, 242880, Note_on_c, 0, 55, 0
1, 242880, Note_on_c, 0, 86, 36
1, 242880, Note_on_c, 0, 83, 29
1, 242880, Note_on_c, 0, 59, 33
1, 243120, Note_on_c, 0, 59, 0
1, 243120, Note_on_c, 0, 62, 34
1, 243336, Note_on_c, 0, 86, 0
1, 243336, Note_on_c, 0, 83, 0
1, 243360, Tempo, 259718
1, 243360, Note_on_c, 0, 62, 0
1, 243360, Note_on_c, 0, 86, 34
1, 243360, Note_on_c, 0, 83, 28
1, 243360, Note_on_c, 0, 67, 35
1, 243600, Note_on_c, 0, 67, 0
1, 243600, Note_on_c, 0, 71, 31
1, 243816, Note_on_c, 0, 86, 0
1, 243816, Note_on_c, 0, 83, 0
1, 243840, Tempo, 262158
1, 243840, Note_on_c, 0, 71, 0
1, 243840, Note_on_c, 0, 86, 32
1, 243840, Note_on_c, 0, 83, 27
1, 244296, Note_on_c, 0, 83, 0
1, 244296, Note_on_c, 0, 86, 0
1, 244320, Tempo, 286424
1, 244320, Note_on_c, 0, 86, 32
1, 244320, Note_on_c, 0, 83, 27
1, 244680, Tempo, 265910
1, 244680, Note_on_c, 0, 91, 0
1, 244680, Note_on_c, 0, 79, 0
1, 244680, Note_on_c, 0, 80, 54
1, 244776, Note_on_c, 0, 86, 0
1, 244776, Note_on_c, 0, 83, 0
1, 244800, Tempo, 264026
1, 244800, Note_on_c, 0, 92, 60
1, 244827, Control_c, 0, 64, 0
1, 245040, Control_c, 0, 64, 127
1, 245040, Note_on_c, 0, 40, 26
1, 245280, Tempo, 269119
1, 245280, Note_on_c, 0, 40, 0
1, 245280, Note_on_c, 0, 88, 31
1, 245280, Note_on_c, 0, 83, 27
1, 245280, Note_on_c, 0, 47, 28
1, 245520, Note_on_c, 0, 47, 0
1, 245520, Note_on_c, 0, 52, 30
1, 245736, Note_on_c, 0, 88, 0
1, 245736, Note_on_c, 0, 83, 0
1, 245760, Note_on_c, 0, 52, 0
1, 245760, Note_on_c, 0, 83, 27
1, 245760, Note_on_c, 0, 88, 33
1, 245760, Note_on_c, 0, 56, 31
1, 246000, Note_on_c, 0, 56, 0
1, 246000, Note_on_c, 0, 59, 31
1, 246216, Note_on_c, 0, 83, 0
1, 246216, Note_on_c, 0, 88, 0
1, 246240, Tempo, 265910
1, 246240, Note_on_c, 0, 59, 0
1, 246240, Note_on_c, 0, 83, 25
1, 246240, Note_on_c, 0, 88, 30
1, 246240, Note_on_c, 0, 64, 32
1, 246480, Note_on_c, 0, 64, 0
1, 246480, Note_on_c, 0, 68, 28
1, 246696, Note_on_c, 0, 83, 0
1, 246696, Note_on_c, 0, 88, 0
1, 246720, Tempo, 271751
1, 246720, Note_on_c, 0, 68, 0
1, 246720, Note_on_c, 0, 83, 25
1, 246720, Note_on_c, 0, 88, 29
1, 247176, Note_on_c, 0, 88, 0
1, 247176, Note_on_c, 0, 83, 0
1, 247200, Tempo, 300315
1, 247200, Note_on_c, 0, 83, 25
1, 247200, Note_on_c, 0, 88, 29
1, 247560, Tempo, 272418
1, 247560, Note_on_c, 0, 92, 0
1, 247560, Note_on_c, 0, 80, 0
1, 247560, Note_on_c, 0, 81, 49
1, 247656, Note_on_c, 0, 83, 0
1, 247656, Note_on_c, 0, 88, 0
1, 247680, Tempo, 273087
1, 247680, Note_on_c, 0, 93, 56
1, 247707, Control_c, 0, 64, 0
1, 247920, Control_c, 0, 64, 127
1, 247920, Note_on_c, 0, 38, 24
1, 248160, Tempo, 286410
1, 248160, Note_on_c, 0, 38, 0
1, 248160, Note_on_c, 0, 86, 24
1, 248160, Note_on_c, 0, 90, 29
1, 248160, Note_on_c, 0, 45, 25
1, 248400, Note_on_c, 0, 45, 0
1, 248400, Note_on_c, 0, 50, 27
1, 248616, Note_on_c, 0, 86, 0
1, 248616, Note_on_c, 0, 90, 0
1, 248640, Note_on_c, 0, 50, 0
1, 248640, Note_on_c, 0, 86, 26
1, 248640, Note_on_c, 0, 90, 29
1, 248640, Note_on_c, 0, 54, 27
1, 248880, Note_on_c, 0, 54, 0
1, 248880, Note_on_c, 0, 57, 29
1, 249096, Note_on_c, 0, 86, 0
1, 249096, Note_on_c, 0, 90, 0
1, 249120, Tempo, 277855
1, 249120, Note_on_c, 0, 57, 0
1, 249120, Note_on_c, 0, 86, 24
1, 249120, Note_on_c, 0, 90, 27
1, 249120, Note_on_c, 0, 62, 30
1, 249360, Note_on_c, 0, 62, 0
1, 249360, Note_on_c, 0, 66, 27
1, 249576, Note_on_c, 0, 86, 0
1, 249576, Note_on_c, 0, 90, 0
1, 249600, Tempo, 284954
1, 249600, Note_on_c, 0, 66, 0
1, 249600, Note_on_c, 0, 86, 22
1, 249600, Note_on_c, 0, 90, 27
1, 250056, Note_on_c, 0, 90, 0
1, 250056, Note_on_c, 0, 86, 0
1, 250080, Tempo, 307787
1, 250080, Note_on_c, 0, 86, 22
1, 250080, Note_on_c, 0, 90, 27
1, 250440, Tempo, 285687
1, 250440, Note_on_c, 0, 93, 0
1, 250440, Note_on_c, 0, 81, 0
1, 250440, Note_on_c, 0, 82, 45
1, 250536, Note_on_c, 0, 86, 0
1, 250536, Note_on_c, 0, 90, 0
1, 250560, Tempo, 313857
1, 250560, Note_on_c, 0, 94, 47
1, 250587, Control_c, 0, 64, 0
1, 250800, Control_c, 0, 64, 127
1, 250800, Note_on_c, 0, 30, 21
1, 250920, Tempo, 307708
1, 251040, Note_on_c, 0, 30, 0
1, 251040, Note_on_c, 0, 85, 20
1, 251040, Note_on_c, 0, 90, 25
1, 251040, Note_on_c, 0, 37, 21
1, 251280, Note_on_c, 0, 37, 0
1, 251280, Note_on_c, 0, 42, 23
1, 251496, Note_on_c, 0, 85, 0
1, 251496, Note_on_c, 0, 90, 0
1, 251520, Tempo, 303813
1, 251520, Note_on_c, 0, 42, 0
1, 251520, Note_on_c, 0, 85, 21
1, 251520, Note_on_c, 0, 90, 27
1, 251520, Note_on_c, 0, 46, 24
1, 251760, Note_on_c, 0, 46, 0
1, 251760, Note_on_c, 0, 49, 25
1, 251976, Note_on_c, 0, 85, 0
1, 251976, Note_on_c, 0, 90, 0
1, 252000, Note_on_c, 0, 49, 0
1, 252000, Note_on_c, 0, 85, 20
1, 252000, Note_on_c, 0, 90, 25
1, 252000, Note_on_c, 0, 54, 27
1, 252120, Tempo, 309294
1, 252240, Note_on_c, 0, 54, 0
1, 252240, Note_on_c, 0, 49, 27
1, 252456, Note_on_c, 0, 85, 0
1, 252456, Note_on_c, 0, 90, 0
1, 252480, Note_on_c, 0, 49, 0
1, 252480, Note_on_c, 0, 85, 20
1, 252480, Note_on_c, 0, 90, 25
1, 252480, Note_on_c, 0, 54, 27
1, 252720, Note_on_c, 0, 54, 0
1, 252720, Note_on_c, 0, 58, 27
1, 252936, Note_on_c, 0, 85, 0
1, 252936, Note_on_c, 0, 90, 0
1, 252960, Tempo, 310350
1, 252960, Note_on_c, 0, 58, 0
1, 252960, Note_on_c, 0, 85, 20
1, 252960, Note_on_c, 0, 90, 25
1, 252960, Note_on_c, 0, 61, 28
1, 253200, Note_on_c, 0, 61, 0
1, 253200, Note_on_c, 0, 63, 28
1, 253416, Note_on_c, 0, 85, 0
1, 253416, Note_on_c, 0, 90, 0
1, 253440, Note_on_c, 0, 63, 0
1, 253440, Note_on_c, 0, 85, 20
1, 253440, Note_on_c, 0, 90, 25
1, 253440, Note_on_c, 0, 66, 29
1, 253503, Tempo, 311219
1, 253680, Note_on_c, 0, 66, 0
1, 253680, Note_on_c, 0, 70, 29
1, 253823, Tempo, 312094
1, 253896, Note_on_c, 0, 85, 0
1, 253896, Note_on_c, 0, 90, 0
1, 253920, Note_on_c, 0, 70, 0
1, 253920, Note_on_c, 0, 85, 20
1, 253920, Note_on_c, 0, 90, 25
1, 253920, Note_on_c, 0, 73, 30
1, 254143, Tempo, 312973
1, 254160, Note_on_c, 0, 73, 0
1, 254160, Note_on_c, 0, 75, 30
1, 254371, Tempo, 314153
1, 254376, Note_on_c, 0, 85, 0
1, 254376, Note_on_c, 0, 90, 0
1, 254400, Note_on_c, 0, 75, 0
1, 254400, Note_on_c, 0, 90, 25
1, 254400, Note_on_c, 0, 85, 20
1, 254400, Note_on_c, 0, 78, 30
1, 254467, Tempo, 314977
1, 254531, Tempo, 315806
1, 254595, Tempo, 316639
1, 254640, Note_on_c, 0, 78, 0
1, 254640, Note_on_c, 0, 82, 31
1, 254691, Tempo, 317477
1, 254755, Tempo, 318319
1, 254819, Tempo, 319166
1, 254856, Note_on_c, 0, 90, 0
1, 254856, Note_on_c, 0, 85, 0
1, 254880, Note_on_c, 0, 82, 0
1, 254880, Note_on_c, 0, 94, 0
1, 254880, Note_on_c, 0, 82, 0
1, 254880, Note_on_c, 0, 85, 31
1, 254883, Tempo, 320017
1, 254979, Tempo, 320873
1, 255043, Tempo, 321733
1, 255107, Tempo, 322598
1, 255120, Note_on_c, 0, 85, 0
1, 255120, Note_on_c, 0, 87, 34
1, 255203, Tempo, 323468
1, 255267, Tempo, 324342
1, 255331, Tempo, 325221
1, 255336, Note_on_c, 0, 87, 0
1, 255360, Note_on_c, 0, 90, 36
1, 255395, Tempo, 326105
1, 255427, Tempo, 326993
1, 255459, Tempo, 327887
1, 255491, Tempo, 329688
1, 255523, Tempo, 330597
1, 255555, Tempo, 331510
1, 255576, Note_on_c, 0, 90, 0
1, 255587, Tempo, 333352
1, 255600, Note_on_c, 0, 94, 37
1, 255619, Tempo, 334280
1, 255651, Tempo, 335214
1, 255683, Tempo, 337098
1, 255715, Tempo, 338047
1, 255747, Tempo, 339002
1, 255779, Tempo, 340928
1, 255811, Tempo, 341900
1, 255816, Note_on_c, 0, 94, 0
1, 255840, Tempo, 365876
1, 255840, Note_on_c, 0, 97, 39
1, 256056, Note_on_c, 0, 97, 0
1, 256080, Tempo, 612182
1, 256080, Note_on_c, 0, 99, 41
1, 256296, Note_on_c, 0, 99, 0
1, 256320, Tempo, 433526
1, 256320, Note_on_c, 0, 102, 42
1, 256970, Control_c, 0, 64, 0
1, 257280, Note_on_c, 0, 102, 0
1, 258900, Note_on_c, 0, 35, 27
1, 258921, Control_c, 0, 64, 127
1, 258960, Tempo, 515818
1, 258960, Note_on_c, 0, 47, 29
1, 259020, Note_on_c, 0, 57, 30
1, 259080, Note_on_c, 0, 63, 33
1, 259140, Note_on_c, 0, 66, 36
1, 259200, Tempo, 528076
1, 259200, Note_on_c, 0, 69, 39
1, 259260, Note_on_c, 0, 78, 44
1, 260640, Tempo, 518224
1, 260640, Note_on_c, 0, 63, 0
1, 260640, Note_on_c, 0, 62, 33
1, 261120, Tempo, 518224
1, 262080, Tempo, 504159
1, 262080, Note_on_c, 0, 62, 0
1, 262080, Note_on_c, 0, 78, 0
1, 262080, Note_on_c, 0, 47, 0
1, 262080, Note_on_c, 0, 57, 0
1, 262080, Note_on_c, 0, 35, 0
1, 262080, Note_on_c, 0, 69, 0
1, 262080, Note_on_c, 0, 66, 0
1, 262080, Note_on_c, 0, 30, 30
1, 262080, Control_c, 0, 64, 0
1, 262560, Note_on_c, 0, 42, 25
1, 262640, Control_c, 0, 64, 127
1, 263040, Note_on_c, 0, 49, 25
1, 263520, Note_on_c, 0, 54, 25
1, 264000, Tempo, 508776
1, 264000, Note_on_c, 0, 58, 25
1, 264480, Tempo, 625978
1, 264480, Note_on_c, 0, 61, 24
1, 264960, Note_on_c, 0, 66, 36
1, 267840, Note_on_c, 0, 66, 0
1, 267840, Note_on_c, 0, 58, 0
1, 267840, Note_on_c, 0, 42, 0
1, 267840, Note_on_c, 0, 49, 0
1, 267840, Note_on_c, 0, 30, 0
1, 267840, Note_on_c, 0, 61, 0
1, 267840, Note_on_c, 0, 54, 0
1, 269174, Tempo, 625978
1, 269174, Control_c, 0, 64, 0
1, 269174, End_track
0, 0, End_of_file
