0, 0, Header, 0, 1, 480
1, 0, Start_track
1, 0, Title_t, "Grieg: Lyrische Stücke Op. 12 Nr. 4 Elfentanz"
1, 0, Copyright_t, "Copyright © 2007 by Bernd Krueger"
1, 0, Text_t, "Edvard Grieg"
1, 0, Text_t, "Erstellt: 6.5.2007\012"
1, 0, Text_t, "Update: 29.10.2012\012"
1, 0, Text_t, "Dauer: 1:54 Minuten\012"
1, 0, Text_t, "Takt auf 3/8 statt 3/4 gesetzt wegen hoher Geschwindigkeit\012"
1, 0, Time_signature, 3, 3, 12, 8
1, 0, Key_signature, 1, "major"
1, 0, Tempo, 505136
1, 0, Program_c, 0, 0
1, 0, Note_on_c, 0, 71, 34
1, 0, Note_on_c, 0, 76, 40
1, 0, Program_c, 0, 0
1, 0, Note_on_c, 0, 67, 40
1, 0, Note_on_c, 0, 64, 34
1, 0, Program_c, 0, 0
1, 60, Note_on_c, 0, 64, 0
1, 60, Note_on_c, 0, 71, 0
1, 60, Note_on_c, 0, 76, 0
1, 60, Note_on_c, 0, 67, 0
1, 240, Note_on_c, 0, 71, 31
1, 240, Note_on_c, 0, 76, 37
1, 240, Note_on_c, 0, 64, 29
1, 240, Note_on_c, 0, 67, 35
1, 300, Note_on_c, 0, 67, 0
1, 300, Note_on_c, 0, 71, 0
1, 300, Note_on_c, 0, 76, 0
1, 300, Note_on_c, 0, 64, 0
1, 480, Tempo, 530833
1, 480, Note_on_c, 0, 76, 37
1, 480, Note_on_c, 0, 72, 31
1, 480, Note_on_c, 0, 67, 30
1, 480, Note_on_c, 0, 60, 25
1, 540, Note_on_c, 0, 60, 0
1, 540, Note_on_c, 0, 76, 0
1, 540, Note_on_c, 0, 72, 0
1, 540, Note_on_c, 0, 67, 0
1, 720, Tempo, 514183
1, 720, Note_on_c, 0, 71, 34
1, 720, Note_on_c, 0, 76, 40
1, 720, Note_on_c, 0, 64, 29
1, 720, Note_on_c, 0, 67, 35
1, 780, Note_on_c, 0, 67, 0
1, 780, Note_on_c, 0, 71, 0
1, 780, Note_on_c, 0, 76, 0
1, 780, Note_on_c, 0, 64, 0
1, 960, Note_on_c, 0, 76, 36
1, 960, Note_on_c, 0, 71, 30
1, 960, Note_on_c, 0, 67, 31
1, 960, Note_on_c, 0, 64, 26
1, 1020, Note_on_c, 0, 64, 0
1, 1020, Note_on_c, 0, 76, 0
1, 1020, Note_on_c, 0, 71, 0
1, 1020, Note_on_c, 0, 67, 0
1, 1200, Tempo, 500709
1, 1200, Note_on_c, 0, 67, 40
1, 1200, Control_c, 0, 64, 127
1, 1320, Note_on_c, 0, 67, 0
1, 1320, Note_on_c, 0, 69, 35
1, 1440, Tempo, 481928
1, 1440, Note_on_c, 0, 69, 0
1, 1440, Note_on_c, 0, 71, 40
1, 1440, Note_on_c, 0, 64, 29
1, 1440, Note_on_c, 0, 67, 35
1, 1445, Control_c, 0, 64, 0
1, 1493, Control_c, 0, 64, 127
1, 1500, Note_on_c, 0, 67, 0
1, 1500, Note_on_c, 0, 64, 0
1, 1560, Note_on_c, 0, 71, 0
1, 1560, Note_on_c, 0, 72, 36
1, 1680, Note_on_c, 0, 72, 0
1, 1680, Note_on_c, 0, 71, 40
1, 1680, Note_on_c, 0, 67, 32
1, 1680, Note_on_c, 0, 64, 27
1, 1740, Note_on_c, 0, 64, 0
1, 1740, Note_on_c, 0, 67, 0
1, 1800, Note_on_c, 0, 71, 0
1, 1800, Note_on_c, 0, 78, 45
1, 1920, Note_on_c, 0, 78, 0
1, 1920, Note_on_c, 0, 76, 43
1, 1920, Note_on_c, 0, 69, 33
1, 1920, Note_on_c, 0, 64, 28
1, 1932, Control_c, 0, 64, 0
1, 1980, Note_on_c, 0, 64, 0
1, 1980, Note_on_c, 0, 69, 0
1, 1991, Control_c, 0, 64, 127
1, 2040, Note_on_c, 0, 76, 0
1, 2040, Note_on_c, 0, 74, 40
1, 2150, Tempo, 498546
1, 2160, Note_on_c, 0, 74, 0
1, 2160, Note_on_c, 0, 71, 39
1, 2160, Note_on_c, 0, 64, 29
1, 2160, Note_on_c, 0, 67, 35
1, 2164, Control_c, 0, 64, 0
1, 2208, Tempo, 496401
1, 2246, Tempo, 494234
1, 2252, Control_c, 0, 64, 127
1, 2280, Note_on_c, 0, 71, 0
1, 2280, Note_on_c, 0, 76, 41
1, 2285, Tempo, 492126
1, 2323, Tempo, 490036
1, 2362, Tempo, 487924
1, 2400, Note_on_c, 0, 76, 0
1, 2400, Note_on_c, 0, 67, 0
1, 2400, Note_on_c, 0, 64, 0
1, 2400, Note_on_c, 0, 79, 43
1, 2419, Tempo, 485869
1, 2458, Tempo, 483832
1, 2496, Tempo, 481773
1, 2520, Note_on_c, 0, 79, 0
1, 2520, Note_on_c, 0, 82, 45
1, 2534, Tempo, 479770
1, 2573, Tempo, 477783
1, 2611, Tempo, 475775
1, 2640, Note_on_c, 0, 82, 0
1, 2640, Note_on_c, 0, 83, 48
1, 2760, Tempo, 568720
1, 2760, Note_on_c, 0, 83, 0
1, 2795, Control_c, 0, 64, 0
1, 2880, Tempo, 505136
1, 2880, Note_on_c, 0, 74, 34
1, 2880, Note_on_c, 0, 78, 34
1, 2880, Note_on_c, 0, 83, 40
1, 2880, Note_on_c, 0, 71, 40
1, 2940, Note_on_c, 0, 71, 0
1, 2940, Note_on_c, 0, 74, 0
1, 2940, Note_on_c, 0, 78, 0
1, 2940, Note_on_c, 0, 83, 0
1, 3120, Note_on_c, 0, 83, 37
1, 3120, Note_on_c, 0, 74, 31
1, 3120, Note_on_c, 0, 78, 31
1, 3120, Note_on_c, 0, 71, 35
1, 3180, Note_on_c, 0, 71, 0
1, 3180, Note_on_c, 0, 83, 0
1, 3180, Note_on_c, 0, 74, 0
1, 3180, Note_on_c, 0, 78, 0
1, 3360, Tempo, 530833
1, 3360, Note_on_c, 0, 83, 37
1, 3360, Note_on_c, 0, 74, 31
1, 3360, Note_on_c, 0, 79, 31
1, 3360, Note_on_c, 0, 67, 30
1, 3420, Note_on_c, 0, 67, 0
1, 3420, Note_on_c, 0, 83, 0
1, 3420, Note_on_c, 0, 74, 0
1, 3420, Note_on_c, 0, 79, 0
1, 3600, Tempo, 514183
1, 3600, Note_on_c, 0, 74, 34
1, 3600, Note_on_c, 0, 78, 34
1, 3600, Note_on_c, 0, 83, 40
1, 3600, Note_on_c, 0, 71, 35
1, 3660, Note_on_c, 0, 71, 0
1, 3660, Note_on_c, 0, 74, 0
1, 3660, Note_on_c, 0, 78, 0
1, 3660, Note_on_c, 0, 83, 0
1, 3840, Note_on_c, 0, 74, 30
1, 3840, Note_on_c, 0, 83, 36
1, 3840, Note_on_c, 0, 78, 30
1, 3840, Note_on_c, 0, 71, 31
1, 3900, Note_on_c, 0, 71, 0
1, 3900, Note_on_c, 0, 74, 0
1, 3900, Note_on_c, 0, 83, 0
1, 3900, Note_on_c, 0, 78, 0
1, 4080, Tempo, 500709
1, 4080, Note_on_c, 0, 71, 40
1, 4080, Control_c, 0, 64, 127
1, 4200, Note_on_c, 0, 71, 0
1, 4200, Note_on_c, 0, 73, 35
1, 4320, Tempo, 485869
1, 4320, Note_on_c, 0, 73, 0
1, 4320, Note_on_c, 0, 74, 40
1, 4320, Note_on_c, 0, 66, 35
1, 4325, Control_c, 0, 64, 0
1, 4373, Control_c, 0, 64, 127
1, 4380, Note_on_c, 0, 66, 0
1, 4440, Note_on_c, 0, 74, 0
1, 4440, Note_on_c, 0, 78, 36
1, 4560, Note_on_c, 0, 78, 0
1, 4560, Note_on_c, 0, 71, 40
1, 4560, Note_on_c, 0, 74, 40
1, 4560, Note_on_c, 0, 62, 32
1, 4620, Note_on_c, 0, 62, 0
1, 4680, Tempo, 540882
1, 4680, Note_on_c, 0, 74, 0
1, 4680, Note_on_c, 0, 71, 0
1, 4680, Note_on_c, 0, 78, 45
1, 4680, Note_on_c, 0, 64, 39
1, 4740, Note_on_c, 0, 64, 0
1, 4800, Tempo, 485869
1, 4800, Note_on_c, 0, 78, 0
1, 4800, Note_on_c, 0, 73, 63
1, 4800, Note_on_c, 0, 70, 53
1, 4800, Note_on_c, 0, 66, 56
1, 4812, Control_c, 0, 64, 0
1, 4860, Note_on_c, 0, 66, 0
1, 4871, Control_c, 0, 64, 127
1, 4920, Note_on_c, 0, 73, 0
1, 4920, Note_on_c, 0, 78, 60
1, 5011, Tempo, 492126
1, 5040, Note_on_c, 0, 78, 0
1, 5040, Note_on_c, 0, 70, 0
1, 5040, Note_on_c, 0, 71, 52
1, 5040, Note_on_c, 0, 75, 62
1, 5040, Note_on_c, 0, 66, 66
1, 5044, Control_c, 0, 64, 0
1, 5069, Tempo, 490036
1, 5107, Tempo, 487924
1, 5132, Control_c, 0, 64, 127
1, 5160, Note_on_c, 0, 75, 0
1, 5160, Note_on_c, 0, 71, 0
1, 5160, Note_on_c, 0, 78, 57
1, 5165, Tempo, 485869
1, 5203, Tempo, 483832
1, 5242, Tempo, 481773
1, 5280, Note_on_c, 0, 78, 0
1, 5280, Note_on_c, 0, 71, 53
1, 5280, Note_on_c, 0, 75, 63
1, 5299, Tempo, 479770
1, 5338, Tempo, 477783
1, 5376, Tempo, 475775
1, 5400, Note_on_c, 0, 75, 0
1, 5400, Note_on_c, 0, 71, 0
1, 5400, Note_on_c, 0, 78, 59
1, 5434, Tempo, 473821
1, 5472, Tempo, 471884
1, 5510, Tempo, 469925
1, 5520, Note_on_c, 0, 78, 0
1, 5520, Note_on_c, 0, 66, 0
1, 5520, Note_on_c, 0, 75, 64
1, 5520, Note_on_c, 0, 71, 54
1, 5520, Note_on_c, 0, 59, 60
1, 5640, Tempo, 647808
1, 5640, Note_on_c, 0, 71, 0
1, 5640, Note_on_c, 0, 75, 0
1, 5640, Note_on_c, 0, 78, 57
1, 5760, Tempo, 505136
1, 5760, Note_on_c, 0, 78, 0
1, 5760, Note_on_c, 0, 59, 0
1, 5760, Note_on_c, 0, 71, 34
1, 5760, Note_on_c, 0, 76, 40
1, 5760, Note_on_c, 0, 64, 34
1, 5760, Note_on_c, 0, 67, 40
1, 5760, Control_c, 0, 64, 0
1, 5820, Note_on_c, 0, 67, 0
1, 5820, Note_on_c, 0, 71, 0
1, 5820, Note_on_c, 0, 76, 0
1, 5820, Note_on_c, 0, 64, 0
1, 6000, Note_on_c, 0, 76, 37
1, 6000, Note_on_c, 0, 71, 31
1, 6000, Note_on_c, 0, 67, 35
1, 6000, Note_on_c, 0, 64, 29
1, 6060, Note_on_c, 0, 64, 0
1, 6060, Note_on_c, 0, 76, 0
1, 6060, Note_on_c, 0, 71, 0
1, 6060, Note_on_c, 0, 67, 0
1, 6240, Tempo, 530833
1, 6240, Note_on_c, 0, 72, 31
1, 6240, Note_on_c, 0, 76, 37
1, 6240, Note_on_c, 0, 67, 30
1, 6240, Note_on_c, 0, 60, 25
1, 6300, Note_on_c, 0, 60, 0
1, 6300, Note_on_c, 0, 72, 0
1, 6300, Note_on_c, 0, 76, 0
1, 6300, Note_on_c, 0, 67, 0
1, 6480, Tempo, 514183
1, 6480, Note_on_c, 0, 71, 34
1, 6480, Note_on_c, 0, 76, 40
1, 6480, Note_on_c, 0, 64, 29
1, 6480, Note_on_c, 0, 67, 35
1, 6540, Note_on_c, 0, 67, 0
1, 6540, Note_on_c, 0, 71, 0
1, 6540, Note_on_c, 0, 76, 0
1, 6540, Note_on_c, 0, 64, 0
1, 6720, Tempo, 521739
1, 6720, Note_on_c, 0, 76, 36
1, 6720, Note_on_c, 0, 71, 30
1, 6720, Note_on_c, 0, 67, 31
1, 6720, Note_on_c, 0, 64, 26
1, 6780, Note_on_c, 0, 64, 0
1, 6780, Note_on_c, 0, 76, 0
1, 6780, Note_on_c, 0, 71, 0
1, 6780, Note_on_c, 0, 67, 0
1, 6960, Tempo, 500709
1, 6960, Note_on_c, 0, 67, 40
1, 6960, Control_c, 0, 64, 127
1, 7080, Note_on_c, 0, 67, 0
1, 7080, Note_on_c, 0, 69, 35
1, 7200, Tempo, 480000
1, 7200, Note_on_c, 0, 69, 0
1, 7200, Note_on_c, 0, 71, 40
1, 7200, Note_on_c, 0, 64, 29
1, 7200, Note_on_c, 0, 67, 35
1, 7205, Control_c, 0, 64, 0
1, 7253, Control_c, 0, 64, 127
1, 7260, Note_on_c, 0, 67, 0
1, 7260, Note_on_c, 0, 64, 0
1, 7320, Note_on_c, 0, 71, 0
1, 7320, Note_on_c, 0, 72, 36
1, 7440, Note_on_c, 0, 72, 0
1, 7440, Note_on_c, 0, 71, 40
1, 7440, Note_on_c, 0, 67, 32
1, 7440, Note_on_c, 0, 64, 27
1, 7500, Note_on_c, 0, 64, 0
1, 7500, Note_on_c, 0, 67, 0
1, 7560, Note_on_c, 0, 71, 0
1, 7560, Note_on_c, 0, 78, 45
1, 7680, Note_on_c, 0, 78, 0
1, 7680, Note_on_c, 0, 76, 43
1, 7680, Note_on_c, 0, 69, 33
1, 7680, Note_on_c, 0, 64, 28
1, 7692, Control_c, 0, 64, 0
1, 7740, Note_on_c, 0, 64, 0
1, 7740, Note_on_c, 0, 69, 0
1, 7751, Control_c, 0, 64, 127
1, 7800, Note_on_c, 0, 76, 0
1, 7800, Note_on_c, 0, 74, 40
1, 7910, Tempo, 498546
1, 7920, Note_on_c, 0, 74, 0
1, 7920, Note_on_c, 0, 71, 39
1, 7920, Note_on_c, 0, 67, 35
1, 7920, Note_on_c, 0, 64, 29
1, 7924, Control_c, 0, 64, 0
1, 7968, Tempo, 496401
1, 8006, Tempo, 494234
1, 8012, Control_c, 0, 64, 127
1, 8040, Note_on_c, 0, 71, 0
1, 8040, Note_on_c, 0, 76, 41
1, 8045, Tempo, 492126
1, 8083, Tempo, 490036
1, 8122, Tempo, 487924
1, 8160, Note_on_c, 0, 76, 0
1, 8160, Note_on_c, 0, 64, 0
1, 8160, Note_on_c, 0, 67, 0
1, 8160, Note_on_c, 0, 79, 43
1, 8179, Tempo, 485869
1, 8218, Tempo, 483832
1, 8256, Tempo, 481773
1, 8280, Note_on_c, 0, 79, 0
1, 8280, Note_on_c, 0, 82, 45
1, 8294, Tempo, 479770
1, 8333, Tempo, 477783
1, 8371, Tempo, 475775
1, 8400, Note_on_c, 0, 82, 0
1, 8400, Note_on_c, 0, 83, 48
1, 8520, Tempo, 566038
1, 8520, Note_on_c, 0, 83, 0
1, 8555, Control_c, 0, 64, 0
1, 8640, Tempo, 505136
1, 8640, Note_on_c, 0, 83, 40
1, 8640, Note_on_c, 0, 74, 34
1, 8640, Note_on_c, 0, 78, 34
1, 8640, Note_on_c, 0, 71, 40
1, 8700, Note_on_c, 0, 71, 0
1, 8700, Note_on_c, 0, 83, 0
1, 8700, Note_on_c, 0, 74, 0
1, 8700, Note_on_c, 0, 78, 0
1, 8880, Note_on_c, 0, 74, 31
1, 8880, Note_on_c, 0, 78, 31
1, 8880, Note_on_c, 0, 83, 37
1, 8880, Note_on_c, 0, 71, 35
1, 8940, Note_on_c, 0, 71, 0
1, 8940, Note_on_c, 0, 74, 0
1, 8940, Note_on_c, 0, 78, 0
1, 8940, Note_on_c, 0, 83, 0
1, 9120, Tempo, 530833
1, 9120, Note_on_c, 0, 74, 31
1, 9120, Note_on_c, 0, 79, 31
1, 9120, Note_on_c, 0, 83, 37
1, 9120, Note_on_c, 0, 67, 30
1, 9180, Note_on_c, 0, 67, 0
1, 9180, Note_on_c, 0, 74, 0
1, 9180, Note_on_c, 0, 79, 0
1, 9180, Note_on_c, 0, 83, 0
1, 9360, Tempo, 514183
1, 9360, Note_on_c, 0, 83, 40
1, 9360, Note_on_c, 0, 74, 34
1, 9360, Note_on_c, 0, 78, 34
1, 9360, Note_on_c, 0, 71, 35
1, 9420, Note_on_c, 0, 71, 0
1, 9420, Note_on_c, 0, 83, 0
1, 9420, Note_on_c, 0, 74, 0
1, 9420, Note_on_c, 0, 78, 0
1, 9600, Note_on_c, 0, 74, 30
1, 9600, Note_on_c, 0, 78, 30
1, 9600, Note_on_c, 0, 83, 36
1, 9600, Note_on_c, 0, 71, 31
1, 9660, Note_on_c, 0, 71, 0
1, 9660, Note_on_c, 0, 74, 0
1, 9660, Note_on_c, 0, 78, 0
1, 9660, Note_on_c, 0, 83, 0
1, 9840, Tempo, 500709
1, 9840, Note_on_c, 0, 71, 40
1, 9840, Control_c, 0, 64, 127
1, 9960, Note_on_c, 0, 71, 0
1, 9960, Note_on_c, 0, 73, 35
1, 10080, Tempo, 483871
1, 10080, Note_on_c, 0, 73, 0
1, 10080, Note_on_c, 0, 74, 40
1, 10080, Note_on_c, 0, 66, 35
1, 10085, Control_c, 0, 64, 0
1, 10133, Control_c, 0, 64, 127
1, 10140, Note_on_c, 0, 66, 0
1, 10200, Note_on_c, 0, 74, 0
1, 10200, Note_on_c, 0, 78, 36
1, 10320, Note_on_c, 0, 78, 0
1, 10320, Note_on_c, 0, 74, 40
1, 10320, Note_on_c, 0, 71, 40
1, 10320, Note_on_c, 0, 62, 32
1, 10380, Note_on_c, 0, 62, 0
1, 10440, Tempo, 540882
1, 10440, Note_on_c, 0, 71, 0
1, 10440, Note_on_c, 0, 74, 0
1, 10440, Note_on_c, 0, 78, 45
1, 10440, Note_on_c, 0, 64, 39
1, 10500, Note_on_c, 0, 64, 0
1, 10560, Tempo, 485869
1, 10560, Note_on_c, 0, 78, 0
1, 10560, Note_on_c, 0, 70, 53
1, 10560, Note_on_c, 0, 73, 63
1, 10560, Note_on_c, 0, 66, 56
1, 10572, Control_c, 0, 64, 0
1, 10620, Note_on_c, 0, 66, 0
1, 10631, Control_c, 0, 64, 127
1, 10680, Note_on_c, 0, 73, 0
1, 10680, Note_on_c, 0, 78, 60
1, 10771, Tempo, 492126
1, 10800, Note_on_c, 0, 78, 0
1, 10800, Note_on_c, 0, 70, 0
1, 10800, Note_on_c, 0, 71, 52
1, 10800, Note_on_c, 0, 75, 62
1, 10800, Note_on_c, 0, 66, 66
1, 10804, Control_c, 0, 64, 0
1, 10829, Tempo, 490036
1, 10867, Tempo, 487924
1, 10892, Control_c, 0, 64, 127
1, 10920, Note_on_c, 0, 75, 0
1, 10920, Note_on_c, 0, 71, 0
1, 10920, Note_on_c, 0, 78, 57
1, 10925, Tempo, 485869
1, 10963, Tempo, 483832
1, 11002, Tempo, 481773
1, 11040, Note_on_c, 0, 78, 0
1, 11040, Note_on_c, 0, 71, 53
1, 11040, Note_on_c, 0, 75, 63
1, 11059, Tempo, 479770
1, 11098, Tempo, 477783
1, 11136, Tempo, 475775
1, 11160, Note_on_c, 0, 75, 0
1, 11160, Note_on_c, 0, 71, 0
1, 11160, Note_on_c, 0, 78, 59
1, 11194, Tempo, 473821
1, 11232, Tempo, 471884
1, 11270, Tempo, 469925
1, 11280, Note_on_c, 0, 78, 0
1, 11280, Note_on_c, 0, 66, 0
1, 11280, Note_on_c, 0, 75, 64
1, 11280, Note_on_c, 0, 71, 54
1, 11280, Note_on_c, 0, 59, 60
1, 11400, Tempo, 644192
1, 11400, Note_on_c, 0, 71, 0
1, 11400, Note_on_c, 0, 75, 0
1, 11400, Note_on_c, 0, 78, 57
1, 11520, Tempo, 505136
1, 11520, Note_on_c, 0, 78, 0
1, 11520, Note_on_c, 0, 59, 0
1, 11520, Note_on_c, 0, 59, 88
1, 11520, Note_on_c, 0, 47, 88
1, 11520, Control_c, 0, 64, 0
1, 11580, Note_on_c, 0, 47, 0
1, 11580, Note_on_c, 0, 59, 0
1, 11760, Note_on_c, 0, 59, 80
1, 11760, Note_on_c, 0, 47, 76
1, 11820, Note_on_c, 0, 47, 0
1, 11820, Note_on_c, 0, 59, 0
1, 12000, Tempo, 530833
1, 12000, Note_on_c, 0, 54, 80
1, 12000, Note_on_c, 0, 42, 66
1, 12060, Note_on_c, 0, 42, 0
1, 12060, Note_on_c, 0, 54, 0
1, 12240, Tempo, 514183
1, 12240, Note_on_c, 0, 59, 88
1, 12240, Note_on_c, 0, 47, 76
1, 12300, Note_on_c, 0, 47, 0
1, 12300, Note_on_c, 0, 59, 0
1, 12480, Tempo, 521739
1, 12480, Note_on_c, 0, 59, 79
1, 12480, Note_on_c, 0, 47, 67
1, 12540, Note_on_c, 0, 47, 0
1, 12540, Note_on_c, 0, 59, 0
1, 12720, Tempo, 500709
1, 12720, Note_on_c, 0, 64, 40
1, 12720, Control_c, 0, 64, 127
1, 12840, Note_on_c, 0, 64, 0
1, 12840, Note_on_c, 0, 66, 35
1, 12960, Tempo, 481928
1, 12960, Note_on_c, 0, 66, 0
1, 12960, Note_on_c, 0, 67, 40
1, 12960, Note_on_c, 0, 52, 28
1, 12960, Note_on_c, 0, 61, 34
1, 12965, Control_c, 0, 64, 0
1, 13003, Control_c, 0, 64, 127
1, 13020, Note_on_c, 0, 61, 0
1, 13020, Note_on_c, 0, 52, 0
1, 13080, Note_on_c, 0, 67, 0
1, 13080, Note_on_c, 0, 70, 36
1, 13090, Control_c, 0, 64, 0
1, 13200, Note_on_c, 0, 70, 0
1, 13200, Note_on_c, 0, 67, 40
1, 13200, Note_on_c, 0, 52, 28
1, 13200, Note_on_c, 0, 61, 34
1, 13220, Control_c, 0, 64, 127
1, 13260, Note_on_c, 0, 61, 0
1, 13260, Note_on_c, 0, 52, 0
1, 13320, Tempo, 497925
1, 13320, Note_on_c, 0, 67, 0
1, 13320, Note_on_c, 0, 70, 34
1, 13330, Control_c, 0, 64, 0
1, 13440, Tempo, 485869
1, 13440, Note_on_c, 0, 70, 0
1, 13440, Note_on_c, 0, 66, 41
1, 13440, Note_on_c, 0, 61, 34
1, 13440, Note_on_c, 0, 54, 28
1, 13460, Control_c, 0, 64, 127
1, 13500, Note_on_c, 0, 54, 0
1, 13500, Note_on_c, 0, 61, 0
1, 13560, Note_on_c, 0, 66, 0
1, 13560, Note_on_c, 0, 70, 36
1, 13570, Control_c, 0, 64, 0
1, 13651, Tempo, 492126
1, 13680, Note_on_c, 0, 70, 0
1, 13680, Note_on_c, 0, 64, 41
1, 13680, Note_on_c, 0, 61, 34
1, 13680, Note_on_c, 0, 55, 28
1, 13689, Control_c, 0, 64, 127
1, 13709, Tempo, 490036
1, 13740, Note_on_c, 0, 55, 0
1, 13740, Note_on_c, 0, 61, 0
1, 13747, Tempo, 487924
1, 13800, Note_on_c, 0, 64, 0
1, 13800, Note_on_c, 0, 70, 36
1, 13805, Tempo, 485869
1, 13810, Control_c, 0, 64, 0
1, 13843, Tempo, 483832
1, 13882, Tempo, 481773
1, 13920, Note_on_c, 0, 70, 0
1, 13920, Note_on_c, 0, 64, 41
1, 13920, Note_on_c, 0, 61, 35
1, 13920, Note_on_c, 0, 55, 29
1, 13939, Tempo, 479770
1, 13946, Control_c, 0, 64, 127
1, 13978, Tempo, 477783
1, 13980, Note_on_c, 0, 55, 0
1, 13980, Note_on_c, 0, 61, 0
1, 14016, Tempo, 475775
1, 14040, Note_on_c, 0, 64, 0
1, 14040, Note_on_c, 0, 70, 35
1, 14050, Control_c, 0, 64, 0
1, 14074, Tempo, 473821
1, 14112, Tempo, 471884
1, 14150, Tempo, 469925
1, 14160, Note_on_c, 0, 70, 0
1, 14280, Tempo, 644192
1, 14400, Tempo, 505136
1, 14400, Note_on_c, 0, 59, 88
1, 14400, Note_on_c, 0, 47, 88
1, 14400, Control_c, 0, 64, 0
1, 14460, Note_on_c, 0, 47, 0
1, 14460, Note_on_c, 0, 59, 0
1, 14640, Note_on_c, 0, 59, 80
1, 14640, Note_on_c, 0, 47, 76
1, 14700, Note_on_c, 0, 47, 0
1, 14700, Note_on_c, 0, 59, 0
1, 14880, Tempo, 530833
1, 14880, Note_on_c, 0, 54, 80
1, 14880, Note_on_c, 0, 42, 66
1, 14940, Note_on_c, 0, 42, 0
1, 14940, Note_on_c, 0, 54, 0
1, 15120, Tempo, 514183
1, 15120, Note_on_c, 0, 59, 88
1, 15120, Note_on_c, 0, 47, 76
1, 15180, Note_on_c, 0, 47, 0
1, 15180, Note_on_c, 0, 59, 0
1, 15360, Note_on_c, 0, 59, 79
1, 15360, Note_on_c, 0, 47, 67
1, 15420, Note_on_c, 0, 47, 0
1, 15420, Note_on_c, 0, 59, 0
1, 15600, Tempo, 500709
1, 15600, Note_on_c, 0, 64, 40
1, 15600, Control_c, 0, 64, 127
1, 15720, Note_on_c, 0, 64, 0
1, 15720, Note_on_c, 0, 66, 35
1, 15840, Tempo, 485869
1, 15840, Note_on_c, 0, 66, 0
1, 15840, Note_on_c, 0, 67, 40
1, 15840, Note_on_c, 0, 52, 28
1, 15840, Note_on_c, 0, 61, 34
1, 15845, Control_c, 0, 64, 0
1, 15883, Control_c, 0, 64, 127
1, 15900, Note_on_c, 0, 61, 0
1, 15900, Note_on_c, 0, 52, 0
1, 15960, Note_on_c, 0, 67, 0
1, 15960, Note_on_c, 0, 70, 36
1, 15970, Control_c, 0, 64, 0
1, 16080, Note_on_c, 0, 70, 0
1, 16080, Note_on_c, 0, 67, 40
1, 16080, Note_on_c, 0, 52, 28
1, 16080, Note_on_c, 0, 61, 34
1, 16100, Control_c, 0, 64, 127
1, 16140, Note_on_c, 0, 61, 0
1, 16140, Note_on_c, 0, 52, 0
1, 16200, Tempo, 496401
1, 16200, Note_on_c, 0, 67, 0
1, 16200, Note_on_c, 0, 70, 34
1, 16210, Control_c, 0, 64, 0
1, 16320, Tempo, 485869
1, 16320, Note_on_c, 0, 70, 0
1, 16320, Note_on_c, 0, 66, 41
1, 16320, Note_on_c, 0, 54, 28
1, 16320, Note_on_c, 0, 61, 34
1, 16340, Control_c, 0, 64, 127
1, 16380, Note_on_c, 0, 61, 0
1, 16380, Note_on_c, 0, 54, 0
1, 16440, Note_on_c, 0, 66, 0
1, 16440, Note_on_c, 0, 70, 36
1, 16450, Control_c, 0, 64, 0
1, 16531, Tempo, 492126
1, 16560, Tempo, 487924
1, 16560, Note_on_c, 0, 70, 0
1, 16560, Note_on_c, 0, 64, 41
1, 16560, Note_on_c, 0, 55, 28
1, 16560, Note_on_c, 0, 61, 34
1, 16569, Control_c, 0, 64, 127
1, 16620, Note_on_c, 0, 61, 0
1, 16620, Note_on_c, 0, 55, 0
1, 16680, Note_on_c, 0, 64, 0
1, 16680, Note_on_c, 0, 70, 36
1, 16690, Control_c, 0, 64, 0
1, 16800, Note_on_c, 0, 70, 0
1, 16800, Note_on_c, 0, 64, 41
1, 16800, Note_on_c, 0, 61, 35
1, 16800, Note_on_c, 0, 55, 29
1, 16826, Control_c, 0, 64, 127
1, 16860, Note_on_c, 0, 55, 0
1, 16860, Note_on_c, 0, 61, 0
1, 16920, Tempo, 502934
1, 16920, Note_on_c, 0, 64, 0
1, 16920, Note_on_c, 0, 70, 35
1, 16930, Control_c, 0, 64, 0
1, 17040, Tempo, 487924
1, 17040, Note_on_c, 0, 70, 0
1, 17040, Note_on_c, 0, 67, 41
1, 17100, Control_c, 0, 64, 127
1, 17160, Note_on_c, 0, 67, 0
1, 17160, Note_on_c, 0, 69, 35
1, 17280, Note_on_c, 0, 69, 0
1, 17280, Note_on_c, 0, 70, 44
1, 17280, Note_on_c, 0, 55, 30
1, 17280, Note_on_c, 0, 64, 37
1, 17285, Control_c, 0, 64, 0
1, 17323, Control_c, 0, 64, 127
1, 17340, Note_on_c, 0, 64, 0
1, 17340, Note_on_c, 0, 55, 0
1, 17400, Tempo, 481928
1, 17400, Note_on_c, 0, 70, 0
1, 17400, Note_on_c, 0, 73, 40
1, 17410, Control_c, 0, 64, 0
1, 17520, Note_on_c, 0, 73, 0
1, 17520, Note_on_c, 0, 70, 46
1, 17520, Note_on_c, 0, 64, 39
1, 17520, Note_on_c, 0, 55, 32
1, 17540, Control_c, 0, 64, 127
1, 17580, Note_on_c, 0, 55, 0
1, 17580, Note_on_c, 0, 64, 0
1, 17640, Note_on_c, 0, 70, 0
1, 17640, Note_on_c, 0, 73, 39
1, 17650, Control_c, 0, 64, 0
1, 17760, Note_on_c, 0, 73, 0
1, 17760, Note_on_c, 0, 69, 51
1, 17760, Note_on_c, 0, 64, 40
1, 17760, Note_on_c, 0, 55, 33
1, 17780, Control_c, 0, 64, 127
1, 17820, Note_on_c, 0, 55, 0
1, 17820, Note_on_c, 0, 64, 0
1, 17880, Tempo, 489796
1, 17880, Note_on_c, 0, 69, 0
1, 17880, Note_on_c, 0, 73, 45
1, 17890, Control_c, 0, 64, 0
1, 18000, Tempo, 481773
1, 18000, Note_on_c, 0, 73, 0
1, 18000, Note_on_c, 0, 67, 54
1, 18000, Note_on_c, 0, 58, 35
1, 18000, Note_on_c, 0, 64, 42
1, 18009, Control_c, 0, 64, 127
1, 18060, Note_on_c, 0, 64, 0
1, 18060, Note_on_c, 0, 58, 0
1, 18120, Note_on_c, 0, 67, 0
1, 18120, Note_on_c, 0, 73, 48
1, 18130, Control_c, 0, 64, 0
1, 18240, Note_on_c, 0, 73, 0
1, 18240, Note_on_c, 0, 67, 57
1, 18240, Note_on_c, 0, 64, 45
1, 18240, Note_on_c, 0, 58, 37
1, 18266, Control_c, 0, 64, 127
1, 18300, Note_on_c, 0, 58, 0
1, 18300, Note_on_c, 0, 64, 0
1, 18360, Tempo, 502934
1, 18360, Note_on_c, 0, 67, 0
1, 18360, Note_on_c, 0, 73, 53
1, 18370, Control_c, 0, 64, 0
1, 18480, Tempo, 487924
1, 18480, Note_on_c, 0, 73, 0
1, 18480, Note_on_c, 0, 70, 59
1, 18540, Control_c, 0, 64, 127
1, 18600, Note_on_c, 0, 70, 0
1, 18600, Note_on_c, 0, 71, 52
1, 18720, Note_on_c, 0, 71, 0
1, 18720, Note_on_c, 0, 72, 62
1, 18720, Note_on_c, 0, 58, 42
1, 18720, Note_on_c, 0, 67, 51
1, 18725, Control_c, 0, 64, 0
1, 18763, Control_c, 0, 64, 127
1, 18780, Note_on_c, 0, 67, 0
1, 18780, Note_on_c, 0, 58, 0
1, 18840, Tempo, 481928
1, 18840, Note_on_c, 0, 72, 0
1, 18840, Note_on_c, 0, 76, 55
1, 18850, Control_c, 0, 64, 0
1, 18960, Note_on_c, 0, 76, 0
1, 18960, Note_on_c, 0, 72, 62
1, 18960, Note_on_c, 0, 67, 51
1, 18960, Note_on_c, 0, 64, 42
1, 18980, Control_c, 0, 64, 127
1, 19020, Note_on_c, 0, 64, 0
1, 19020, Note_on_c, 0, 67, 0
1, 19080, Note_on_c, 0, 72, 0
1, 19080, Note_on_c, 0, 76, 55
1, 19090, Control_c, 0, 64, 0
1, 19200, Note_on_c, 0, 76, 0
1, 19200, Note_on_c, 0, 71, 61
1, 19200, Note_on_c, 0, 62, 42
1, 19200, Note_on_c, 0, 67, 51
1, 19220, Control_c, 0, 64, 127
1, 19260, Note_on_c, 0, 67, 0
1, 19260, Note_on_c, 0, 62, 0
1, 19320, Tempo, 495868
1, 19320, Note_on_c, 0, 71, 0
1, 19320, Note_on_c, 0, 76, 50
1, 19330, Control_c, 0, 64, 0
1, 19440, Tempo, 481773
1, 19440, Note_on_c, 0, 76, 0
1, 19440, Note_on_c, 0, 70, 62
1, 19440, Note_on_c, 0, 60, 42
1, 19440, Note_on_c, 0, 66, 51
1, 19445, Control_c, 0, 64, 0
1, 19483, Control_c, 0, 64, 127
1, 19500, Note_on_c, 0, 66, 0
1, 19500, Note_on_c, 0, 60, 0
1, 19560, Note_on_c, 0, 70, 0
1, 19560, Note_on_c, 0, 76, 55
1, 19570, Control_c, 0, 64, 0
1, 19680, Note_on_c, 0, 76, 0
1, 19680, Note_on_c, 0, 70, 58
1, 19680, Note_on_c, 0, 66, 44
1, 19680, Note_on_c, 0, 60, 36
1, 19700, Control_c, 0, 64, 127
1, 19740, Note_on_c, 0, 60, 0
1, 19740, Note_on_c, 0, 66, 0
1, 19800, Note_on_c, 0, 70, 0
1, 19800, Note_on_c, 0, 76, 50
1, 19810, Control_c, 0, 64, 0
1, 19920, Tempo, 494234
1, 19920, Note_on_c, 0, 76, 0
1, 19920, Note_on_c, 0, 70, 55
1, 19920, Note_on_c, 0, 60, 33
1, 19920, Note_on_c, 0, 66, 40
1, 19940, Control_c, 0, 64, 127
1, 19980, Note_on_c, 0, 66, 0
1, 19980, Note_on_c, 0, 60, 0
1, 20040, Tempo, 540882
1, 20040, Note_on_c, 0, 70, 0
1, 20040, Note_on_c, 0, 76, 46
1, 20050, Control_c, 0, 64, 0
1, 20160, Tempo, 496401
1, 20160, Note_on_c, 0, 76, 0
1, 20160, Note_on_c, 0, 71, 40
1, 20160, Note_on_c, 0, 59, 28
1, 20160, Note_on_c, 0, 66, 34
1, 20165, Control_c, 0, 64, 0
1, 20203, Control_c, 0, 64, 127
1, 20220, Note_on_c, 0, 66, 0
1, 20220, Note_on_c, 0, 59, 0
1, 20280, Note_on_c, 0, 71, 0
1, 20280, Note_on_c, 0, 76, 36
1, 20400, Note_on_c, 0, 76, 0
1, 20400, Note_on_c, 0, 71, 40
1, 20400, Note_on_c, 0, 59, 28
1, 20400, Note_on_c, 0, 66, 34
1, 20460, Note_on_c, 0, 66, 0
1, 20460, Note_on_c, 0, 59, 0
1, 20520, Note_on_c, 0, 71, 0
1, 20520, Note_on_c, 0, 76, 34
1, 20640, Note_on_c, 0, 76, 0
1, 20640, Note_on_c, 0, 71, 41
1, 20640, Note_on_c, 0, 59, 28
1, 20640, Note_on_c, 0, 66, 34
1, 20700, Note_on_c, 0, 66, 0
1, 20700, Note_on_c, 0, 59, 0
1, 20760, Note_on_c, 0, 71, 0
1, 20760, Note_on_c, 0, 76, 36
1, 20880, Tempo, 505136
1, 20880, Note_on_c, 0, 76, 0
1, 20880, Note_on_c, 0, 71, 40
1, 20880, Note_on_c, 0, 59, 28
1, 20880, Note_on_c, 0, 66, 34
1, 20885, Control_c, 0, 64, 0
1, 20923, Control_c, 0, 64, 127
1, 20940, Note_on_c, 0, 66, 0
1, 20940, Note_on_c, 0, 59, 0
1, 21000, Note_on_c, 0, 71, 0
1, 21000, Note_on_c, 0, 75, 36
1, 21120, Note_on_c, 0, 75, 0
1, 21120, Note_on_c, 0, 71, 40
1, 21120, Note_on_c, 0, 66, 34
1, 21120, Note_on_c, 0, 59, 28
1, 21180, Note_on_c, 0, 59, 0
1, 21180, Note_on_c, 0, 66, 0
1, 21240, Note_on_c, 0, 71, 0
1, 21240, Note_on_c, 0, 75, 34
1, 21360, Note_on_c, 0, 75, 0
1, 21360, Note_on_c, 0, 71, 41
1, 21360, Note_on_c, 0, 59, 28
1, 21360, Note_on_c, 0, 66, 34
1, 21420, Note_on_c, 0, 66, 0
1, 21420, Note_on_c, 0, 59, 0
1, 21480, Tempo, 589217
1, 21480, Note_on_c, 0, 71, 0
1, 21480, Note_on_c, 0, 75, 36
1, 21600, Tempo, 504923
1, 21600, Note_on_c, 0, 75, 0
1, 21600, Note_on_c, 0, 76, 40
1, 21600, Note_on_c, 0, 71, 34
1, 21600, Note_on_c, 0, 67, 40
1, 21600, Note_on_c, 0, 64, 34
1, 21600, Control_c, 0, 64, 0
1, 21660, Note_on_c, 0, 64, 0
1, 21660, Note_on_c, 0, 76, 0
1, 21660, Note_on_c, 0, 71, 0
1, 21660, Note_on_c, 0, 67, 0
1, 21840, Note_on_c, 0, 71, 31
1, 21840, Note_on_c, 0, 76, 37
1, 21840, Note_on_c, 0, 67, 35
1, 21840, Note_on_c, 0, 64, 29
1, 21900, Note_on_c, 0, 64, 0
1, 21900, Note_on_c, 0, 71, 0
1, 21900, Note_on_c, 0, 76, 0
1, 21900, Note_on_c, 0, 67, 0
1, 22080, Tempo, 530833
1, 22080, Note_on_c, 0, 72, 31
1, 22080, Note_on_c, 0, 76, 37
1, 22080, Note_on_c, 0, 60, 25
1, 22080, Note_on_c, 0, 67, 30
1, 22140, Note_on_c, 0, 67, 0
1, 22140, Note_on_c, 0, 72, 0
1, 22140, Note_on_c, 0, 76, 0
1, 22140, Note_on_c, 0, 60, 0
1, 22320, Tempo, 514183
1, 22320, Note_on_c, 0, 71, 34
1, 22320, Note_on_c, 0, 76, 40
1, 22320, Note_on_c, 0, 64, 29
1, 22320, Note_on_c, 0, 67, 35
1, 22380, Note_on_c, 0, 67, 0
1, 22380, Note_on_c, 0, 71, 0
1, 22380, Note_on_c, 0, 76, 0
1, 22380, Note_on_c, 0, 64, 0
1, 22560, Tempo, 521739
1, 22560, Note_on_c, 0, 71, 30
1, 22560, Note_on_c, 0, 76, 36
1, 22560, Note_on_c, 0, 67, 31
1, 22560, Note_on_c, 0, 64, 26
1, 22620, Note_on_c, 0, 64, 0
1, 22620, Note_on_c, 0, 71, 0
1, 22620, Note_on_c, 0, 76, 0
1, 22620, Note_on_c, 0, 67, 0
1, 22800, Tempo, 500709
1, 22800, Note_on_c, 0, 67, 40
1, 22800, Control_c, 0, 64, 127
1, 22920, Note_on_c, 0, 67, 0
1, 22920, Note_on_c, 0, 69, 35
1, 23040, Tempo, 480000
1, 23040, Note_on_c, 0, 69, 0
1, 23040, Note_on_c, 0, 71, 40
1, 23040, Note_on_c, 0, 64, 29
1, 23040, Note_on_c, 0, 67, 35
1, 23045, Control_c, 0, 64, 0
1, 23093, Control_c, 0, 64, 127
1, 23100, Note_on_c, 0, 67, 0
1, 23100, Note_on_c, 0, 64, 0
1, 23160, Note_on_c, 0, 71, 0
1, 23160, Note_on_c, 0, 72, 36
1, 23280, Note_on_c, 0, 72, 0
1, 23280, Note_on_c, 0, 71, 40
1, 23280, Note_on_c, 0, 64, 27
1, 23280, Note_on_c, 0, 67, 32
1, 23340, Note_on_c, 0, 67, 0
1, 23340, Note_on_c, 0, 64, 0
1, 23400, Note_on_c, 0, 71, 0
1, 23400, Note_on_c, 0, 78, 45
1, 23520, Note_on_c, 0, 78, 0
1, 23520, Note_on_c, 0, 76, 43
1, 23520, Note_on_c, 0, 64, 28
1, 23520, Note_on_c, 0, 69, 33
1, 23532, Control_c, 0, 64, 0
1, 23580, Note_on_c, 0, 69, 0
1, 23580, Note_on_c, 0, 64, 0
1, 23591, Control_c, 0, 64, 127
1, 23640, Note_on_c, 0, 76, 0
1, 23640, Note_on_c, 0, 74, 40
1, 23750, Tempo, 498546
1, 23760, Note_on_c, 0, 74, 0
1, 23760, Note_on_c, 0, 71, 39
1, 23760, Note_on_c, 0, 67, 35
1, 23760, Note_on_c, 0, 64, 29
1, 23764, Control_c, 0, 64, 0
1, 23808, Tempo, 496401
1, 23846, Tempo, 494234
1, 23852, Control_c, 0, 64, 127
1, 23880, Note_on_c, 0, 71, 0
1, 23880, Note_on_c, 0, 76, 41
1, 23885, Tempo, 492126
1, 23923, Tempo, 490036
1, 23962, Tempo, 487924
1, 24000, Note_on_c, 0, 76, 0
1, 24000, Note_on_c, 0, 64, 0
1, 24000, Note_on_c, 0, 67, 0
1, 24000, Note_on_c, 0, 79, 43
1, 24019, Tempo, 485869
1, 24058, Tempo, 483832
1, 24096, Tempo, 481773
1, 24120, Note_on_c, 0, 79, 0
1, 24120, Note_on_c, 0, 82, 45
1, 24134, Tempo, 479770
1, 24173, Tempo, 477783
1, 24211, Tempo, 475775
1, 24240, Note_on_c, 0, 82, 0
1, 24240, Note_on_c, 0, 83, 48
1, 24360, Tempo, 566038
1, 24360, Note_on_c, 0, 83, 0
1, 24395, Control_c, 0, 64, 0
1, 24480, Tempo, 505136
1, 24480, Note_on_c, 0, 83, 40
1, 24480, Note_on_c, 0, 74, 34
1, 24480, Note_on_c, 0, 78, 34
1, 24480, Note_on_c, 0, 71, 40
1, 24540, Note_on_c, 0, 71, 0
1, 24540, Note_on_c, 0, 83, 0
1, 24540, Note_on_c, 0, 74, 0
1, 24540, Note_on_c, 0, 78, 0
1, 24720, Note_on_c, 0, 74, 31
1, 24720, Note_on_c, 0, 83, 37
1, 24720, Note_on_c, 0, 78, 31
1, 24720, Note_on_c, 0, 71, 35
1, 24780, Note_on_c, 0, 71, 0
1, 24780, Note_on_c, 0, 74, 0
1, 24780, Note_on_c, 0, 83, 0
1, 24780, Note_on_c, 0, 78, 0
1, 24960, Tempo, 530833
1, 24960, Note_on_c, 0, 83, 37
1, 24960, Note_on_c, 0, 74, 31
1, 24960, Note_on_c, 0, 79, 31
1, 24960, Note_on_c, 0, 67, 30
1, 25020, Note_on_c, 0, 67, 0
1, 25020, Note_on_c, 0, 83, 0
1, 25020, Note_on_c, 0, 74, 0
1, 25020, Note_on_c, 0, 79, 0
1, 25200, Tempo, 514183
1, 25200, Note_on_c, 0, 74, 34
1, 25200, Note_on_c, 0, 78, 34
1, 25200, Note_on_c, 0, 83, 40
1, 25200, Note_on_c, 0, 71, 35
1, 25260, Note_on_c, 0, 71, 0
1, 25260, Note_on_c, 0, 74, 0
1, 25260, Note_on_c, 0, 78, 0
1, 25260, Note_on_c, 0, 83, 0
1, 25440, Note_on_c, 0, 78, 30
1, 25440, Note_on_c, 0, 83, 36
1, 25440, Note_on_c, 0, 74, 30
1, 25440, Note_on_c, 0, 71, 31
1, 25500, Note_on_c, 0, 71, 0
1, 25500, Note_on_c, 0, 78, 0
1, 25500, Note_on_c, 0, 83, 0
1, 25500, Note_on_c, 0, 74, 0
1, 25680, Tempo, 500709
1, 25680, Note_on_c, 0, 71, 40
1, 25680, Control_c, 0, 64, 127
1, 25800, Note_on_c, 0, 71, 0
1, 25800, Note_on_c, 0, 73, 35
1, 25920, Tempo, 483871
1, 25920, Note_on_c, 0, 73, 0
1, 25920, Note_on_c, 0, 74, 40
1, 25920, Note_on_c, 0, 66, 35
1, 25925, Control_c, 0, 64, 0
1, 25973, Control_c, 0, 64, 127
1, 25980, Note_on_c, 0, 66, 0
1, 26040, Note_on_c, 0, 74, 0
1, 26040, Note_on_c, 0, 78, 36
1, 26160, Note_on_c, 0, 78, 0
1, 26160, Note_on_c, 0, 74, 40
1, 26160, Note_on_c, 0, 71, 40
1, 26160, Note_on_c, 0, 62, 32
1, 26220, Note_on_c, 0, 62, 0
1, 26280, Tempo, 540882
1, 26280, Note_on_c, 0, 71, 0
1, 26280, Note_on_c, 0, 74, 0
1, 26280, Note_on_c, 0, 78, 45
1, 26280, Note_on_c, 0, 64, 39
1, 26340, Note_on_c, 0, 64, 0
1, 26400, Tempo, 485869
1, 26400, Note_on_c, 0, 78, 0
1, 26400, Note_on_c, 0, 70, 53
1, 26400, Note_on_c, 0, 73, 63
1, 26400, Note_on_c, 0, 66, 56
1, 26412, Control_c, 0, 64, 0
1, 26460, Note_on_c, 0, 66, 0
1, 26471, Control_c, 0, 64, 127
1, 26520, Note_on_c, 0, 73, 0
1, 26520, Note_on_c, 0, 78, 60
1, 26611, Tempo, 492126
1, 26640, Note_on_c, 0, 78, 0
1, 26640, Note_on_c, 0, 70, 0
1, 26640, Note_on_c, 0, 71, 52
1, 26640, Note_on_c, 0, 75, 62
1, 26640, Note_on_c, 0, 66, 66
1, 26644, Control_c, 0, 64, 0
1, 26669, Tempo, 490036
1, 26707, Tempo, 487924
1, 26732, Control_c, 0, 64, 127
1, 26760, Note_on_c, 0, 75, 0
1, 26760, Note_on_c, 0, 71, 0
1, 26760, Note_on_c, 0, 78, 57
1, 26765, Tempo, 485869
1, 26803, Tempo, 483832
1, 26842, Tempo, 481773
1, 26880, Note_on_c, 0, 78, 0
1, 26880, Note_on_c, 0, 71, 53
1, 26880, Note_on_c, 0, 75, 63
1, 26899, Tempo, 479770
1, 26938, Tempo, 477783
1, 26976, Tempo, 475775
1, 27000, Note_on_c, 0, 75, 0
1, 27000, Note_on_c, 0, 71, 0
1, 27000, Note_on_c, 0, 78, 59
1, 27034, Tempo, 473821
1, 27072, Tempo, 471884
1, 27110, Tempo, 469925
1, 27120, Note_on_c, 0, 78, 0
1, 27120, Note_on_c, 0, 66, 0
1, 27120, Note_on_c, 0, 71, 54
1, 27120, Note_on_c, 0, 75, 64
1, 27120, Note_on_c, 0, 59, 60
1, 27240, Tempo, 644192
1, 27240, Note_on_c, 0, 75, 0
1, 27240, Note_on_c, 0, 71, 0
1, 27240, Note_on_c, 0, 78, 57
1, 27360, Tempo, 505136
1, 27360, Note_on_c, 0, 78, 0
1, 27360, Note_on_c, 0, 59, 0
1, 27360, Note_on_c, 0, 59, 88
1, 27360, Note_on_c, 0, 47, 88
1, 27360, Control_c, 0, 64, 0
1, 27420, Note_on_c, 0, 47, 0
1, 27420, Note_on_c, 0, 59, 0
1, 27600, Note_on_c, 0, 59, 80
1, 27600, Note_on_c, 0, 47, 76
1, 27660, Note_on_c, 0, 47, 0
1, 27660, Note_on_c, 0, 59, 0
1, 27840, Tempo, 530833
1, 27840, Note_on_c, 0, 54, 80
1, 27840, Note_on_c, 0, 42, 66
1, 27900, Note_on_c, 0, 42, 0
1, 27900, Note_on_c, 0, 54, 0
1, 28080, Tempo, 514183
1, 28080, Note_on_c, 0, 59, 88
1, 28080, Note_on_c, 0, 47, 76
1, 28140, Note_on_c, 0, 47, 0
1, 28140, Note_on_c, 0, 59, 0
1, 28320, Tempo, 521739
1, 28320, Note_on_c, 0, 59, 79
1, 28320, Note_on_c, 0, 47, 67
1, 28380, Note_on_c, 0, 47, 0
1, 28380, Note_on_c, 0, 59, 0
1, 28560, Tempo, 500709
1, 28560, Note_on_c, 0, 64, 40
1, 28560, Control_c, 0, 64, 127
1, 28680, Note_on_c, 0, 64, 0
1, 28680, Note_on_c, 0, 66, 35
1, 28800, Tempo, 481928
1, 28800, Note_on_c, 0, 66, 0
1, 28800, Note_on_c, 0, 67, 40
1, 28800, Note_on_c, 0, 52, 28
1, 28800, Note_on_c, 0, 61, 34
1, 28805, Control_c, 0, 64, 0
1, 28843, Control_c, 0, 64, 127
1, 28860, Note_on_c, 0, 61, 0
1, 28860, Note_on_c, 0, 52, 0
1, 28920, Note_on_c, 0, 67, 0
1, 28920, Note_on_c, 0, 70, 36
1, 28930, Control_c, 0, 64, 0
1, 29040, Note_on_c, 0, 70, 0
1, 29040, Note_on_c, 0, 67, 40
1, 29040, Note_on_c, 0, 61, 34
1, 29040, Note_on_c, 0, 52, 28
1, 29060, Control_c, 0, 64, 127
1, 29100, Note_on_c, 0, 52, 0
1, 29100, Note_on_c, 0, 61, 0
1, 29160, Tempo, 497925
1, 29160, Note_on_c, 0, 67, 0
1, 29160, Note_on_c, 0, 70, 34
1, 29170, Control_c, 0, 64, 0
1, 29280, Tempo, 485869
1, 29280, Note_on_c, 0, 70, 0
1, 29280, Note_on_c, 0, 66, 41
1, 29280, Note_on_c, 0, 54, 28
1, 29280, Note_on_c, 0, 61, 34
1, 29300, Control_c, 0, 64, 127
1, 29340, Note_on_c, 0, 61, 0
1, 29340, Note_on_c, 0, 54, 0
1, 29400, Note_on_c, 0, 66, 0
1, 29400, Note_on_c, 0, 70, 36
1, 29410, Control_c, 0, 64, 0
1, 29491, Tempo, 492126
1, 29520, Note_on_c, 0, 70, 0
1, 29520, Note_on_c, 0, 64, 41
1, 29520, Note_on_c, 0, 61, 34
1, 29520, Note_on_c, 0, 55, 28
1, 29529, Control_c, 0, 64, 127
1, 29549, Tempo, 490036
1, 29580, Note_on_c, 0, 55, 0
1, 29580, Note_on_c, 0, 61, 0
1, 29587, Tempo, 487924
1, 29640, Note_on_c, 0, 64, 0
1, 29640, Note_on_c, 0, 70, 36
1, 29645, Tempo, 485869
1, 29650, Control_c, 0, 64, 0
1, 29683, Tempo, 483832
1, 29722, Tempo, 481773
1, 29760, Note_on_c, 0, 70, 0
1, 29760, Note_on_c, 0, 64, 41
1, 29760, Note_on_c, 0, 61, 35
1, 29760, Note_on_c, 0, 55, 29
1, 29779, Tempo, 479770
1, 29786, Control_c, 0, 64, 127
1, 29818, Tempo, 477783
1, 29820, Note_on_c, 0, 55, 0
1, 29820, Note_on_c, 0, 61, 0
1, 29856, Tempo, 475775
1, 29880, Note_on_c, 0, 64, 0
1, 29880, Note_on_c, 0, 70, 35
1, 29890, Control_c, 0, 64, 0
1, 29914, Tempo, 473821
1, 29952, Tempo, 471884
1, 29990, Tempo, 469925
1, 30000, Note_on_c, 0, 70, 0
1, 30120, Tempo, 644192
1, 30240, Tempo, 505136
1, 30240, Note_on_c, 0, 59, 88
1, 30240, Note_on_c, 0, 47, 88
1, 30240, Control_c, 0, 64, 0
1, 30300, Note_on_c, 0, 47, 0
1, 30300, Note_on_c, 0, 59, 0
1, 30480, Note_on_c, 0, 59, 80
1, 30480, Note_on_c, 0, 47, 76
1, 30540, Note_on_c, 0, 47, 0
1, 30540, Note_on_c, 0, 59, 0
1, 30720, Tempo, 530833
1, 30720, Note_on_c, 0, 54, 80
1, 30720, Note_on_c, 0, 42, 66
1, 30780, Note_on_c, 0, 42, 0
1, 30780, Note_on_c, 0, 54, 0
1, 30960, Tempo, 514183
1, 30960, Note_on_c, 0, 59, 88
1, 30960, Note_on_c, 0, 47, 76
1, 31020, Note_on_c, 0, 47, 0
1, 31020, Note_on_c, 0, 59, 0
1, 31200, Note_on_c, 0, 59, 79
1, 31200, Note_on_c, 0, 47, 67
1, 31260, Note_on_c, 0, 47, 0
1, 31260, Note_on_c, 0, 59, 0
1, 31440, Tempo, 500709
1, 31440, Note_on_c, 0, 64, 40
1, 31440, Control_c, 0, 64, 127
1, 31560, Note_on_c, 0, 64, 0
1, 31560, Note_on_c, 0, 66, 35
1, 31680, Tempo, 485869
1, 31680, Note_on_c, 0, 66, 0
1, 31680, Note_on_c, 0, 67, 40
1, 31680, Note_on_c, 0, 52, 28
1, 31680, Note_on_c, 0, 61, 34
1, 31685, Control_c, 0, 64, 0
1, 31723, Control_c, 0, 64, 127
1, 31740, Note_on_c, 0, 61, 0
1, 31740, Note_on_c, 0, 52, 0
1, 31800, Note_on_c, 0, 67, 0
1, 31800, Note_on_c, 0, 70, 36
1, 31810, Control_c, 0, 64, 0
1, 31920, Note_on_c, 0, 70, 0
1, 31920, Note_on_c, 0, 67, 40
1, 31920, Note_on_c, 0, 52, 28
1, 31920, Note_on_c, 0, 61, 34
1, 31940, Control_c, 0, 64, 127
1, 31980, Note_on_c, 0, 61, 0
1, 31980, Note_on_c, 0, 52, 0
1, 32040, Tempo, 496401
1, 32040, Note_on_c, 0, 67, 0
1, 32040, Note_on_c, 0, 70, 34
1, 32050, Control_c, 0, 64, 0
1, 32160, Tempo, 485869
1, 32160, Note_on_c, 0, 70, 0
1, 32160, Note_on_c, 0, 66, 41
1, 32160, Note_on_c, 0, 54, 28
1, 32160, Note_on_c, 0, 61, 34
1, 32180, Control_c, 0, 64, 127
1, 32220, Note_on_c, 0, 61, 0
1, 32220, Note_on_c, 0, 54, 0
1, 32280, Note_on_c, 0, 66, 0
1, 32280, Note_on_c, 0, 70, 36
1, 32290, Control_c, 0, 64, 0
1, 32371, Tempo, 492126
1, 32400, Tempo, 487924
1, 32400, Note_on_c, 0, 70, 0
1, 32400, Note_on_c, 0, 64, 41
1, 32400, Note_on_c, 0, 55, 28
1, 32400, Note_on_c, 0, 61, 34
1, 32409, Control_c, 0, 64, 127
1, 32460, Note_on_c, 0, 61, 0
1, 32460, Note_on_c, 0, 55, 0
1, 32520, Note_on_c, 0, 64, 0
1, 32520, Note_on_c, 0, 70, 36
1, 32530, Control_c, 0, 64, 0
1, 32640, Note_on_c, 0, 70, 0
1, 32640, Note_on_c, 0, 64, 41
1, 32640, Note_on_c, 0, 55, 29
1, 32640, Note_on_c, 0, 61, 35
1, 32666, Control_c, 0, 64, 127
1, 32700, Note_on_c, 0, 61, 0
1, 32700, Note_on_c, 0, 55, 0
1, 32760, Tempo, 502934
1, 32760, Note_on_c, 0, 64, 0
1, 32760, Note_on_c, 0, 70, 35
1, 32770, Control_c, 0, 64, 0
1, 32880, Tempo, 487924
1, 32880, Note_on_c, 0, 70, 0
1, 32880, Note_on_c, 0, 67, 41
1, 32940, Control_c, 0, 64, 127
1, 33000, Note_on_c, 0, 67, 0
1, 33000, Note_on_c, 0, 69, 35
1, 33120, Note_on_c, 0, 69, 0
1, 33120, Note_on_c, 0, 70, 44
1, 33120, Note_on_c, 0, 64, 37
1, 33120, Note_on_c, 0, 55, 30
1, 33125, Control_c, 0, 64, 0
1, 33163, Control_c, 0, 64, 127
1, 33180, Note_on_c, 0, 55, 0
1, 33180, Note_on_c, 0, 64, 0
1, 33240, Tempo, 481928
1, 33240, Note_on_c, 0, 70, 0
1, 33240, Note_on_c, 0, 73, 40
1, 33250, Control_c, 0, 64, 0
1, 33360, Note_on_c, 0, 73, 0
1, 33360, Note_on_c, 0, 70, 46
1, 33360, Note_on_c, 0, 55, 32
1, 33360, Note_on_c, 0, 64, 39
1, 33380, Control_c, 0, 64, 127
1, 33420, Note_on_c, 0, 64, 0
1, 33420, Note_on_c, 0, 55, 0
1, 33480, Note_on_c, 0, 70, 0
1, 33480, Note_on_c, 0, 73, 39
1, 33490, Control_c, 0, 64, 0
1, 33600, Note_on_c, 0, 73, 0
1, 33600, Note_on_c, 0, 69, 51
1, 33600, Note_on_c, 0, 55, 33
1, 33600, Note_on_c, 0, 64, 40
1, 33620, Control_c, 0, 64, 127
1, 33660, Note_on_c, 0, 64, 0
1, 33660, Note_on_c, 0, 55, 0
1, 33720, Tempo, 489796
1, 33720, Note_on_c, 0, 69, 0
1, 33720, Note_on_c, 0, 73, 45
1, 33730, Control_c, 0, 64, 0
1, 33840, Tempo, 481773
1, 33840, Note_on_c, 0, 73, 0
1, 33840, Note_on_c, 0, 67, 54
1, 33840, Note_on_c, 0, 64, 42
1, 33840, Note_on_c, 0, 58, 35
1, 33849, Control_c, 0, 64, 127
1, 33900, Note_on_c, 0, 58, 0
1, 33900, Note_on_c, 0, 64, 0
1, 33960, Note_on_c, 0, 67, 0
1, 33960, Note_on_c, 0, 73, 48
1, 33970, Control_c, 0, 64, 0
1, 34080, Note_on_c, 0, 73, 0
1, 34080, Note_on_c, 0, 67, 57
1, 34080, Note_on_c, 0, 64, 45
1, 34080, Note_on_c, 0, 58, 37
1, 34106, Control_c, 0, 64, 127
1, 34140, Note_on_c, 0, 58, 0
1, 34140, Note_on_c, 0, 64, 0
1, 34200, Tempo, 502934
1, 34200, Note_on_c, 0, 67, 0
1, 34200, Note_on_c, 0, 73, 53
1, 34210, Control_c, 0, 64, 0
1, 34320, Tempo, 487924
1, 34320, Note_on_c, 0, 73, 0
1, 34320, Note_on_c, 0, 70, 59
1, 34380, Control_c, 0, 64, 127
1, 34440, Note_on_c, 0, 70, 0
1, 34440, Note_on_c, 0, 71, 52
1, 34560, Note_on_c, 0, 71, 0
1, 34560, Note_on_c, 0, 72, 62
1, 34560, Note_on_c, 0, 67, 51
1, 34560, Note_on_c, 0, 58, 42
1, 34565, Control_c, 0, 64, 0
1, 34603, Control_c, 0, 64, 127
1, 34620, Note_on_c, 0, 58, 0
1, 34620, Note_on_c, 0, 67, 0
1, 34680, Tempo, 481928
1, 34680, Note_on_c, 0, 72, 0
1, 34680, Note_on_c, 0, 76, 55
1, 34690, Control_c, 0, 64, 0
1, 34800, Note_on_c, 0, 76, 0
1, 34800, Note_on_c, 0, 72, 62
1, 34800, Note_on_c, 0, 64, 42
1, 34800, Note_on_c, 0, 67, 51
1, 34820, Control_c, 0, 64, 127
1, 34860, Note_on_c, 0, 67, 0
1, 34860, Note_on_c, 0, 64, 0
1, 34920, Note_on_c, 0, 72, 0
1, 34920, Note_on_c, 0, 76, 55
1, 34930, Control_c, 0, 64, 0
1, 35040, Note_on_c, 0, 76, 0
1, 35040, Note_on_c, 0, 71, 61
1, 35040, Note_on_c, 0, 67, 51
1, 35040, Note_on_c, 0, 62, 42
1, 35060, Control_c, 0, 64, 127
1, 35100, Note_on_c, 0, 62, 0
1, 35100, Note_on_c, 0, 67, 0
1, 35160, Tempo, 495868
1, 35160, Note_on_c, 0, 71, 0
1, 35160, Note_on_c, 0, 76, 50
1, 35170, Control_c, 0, 64, 0
1, 35280, Tempo, 481773
1, 35280, Note_on_c, 0, 76, 0
1, 35280, Note_on_c, 0, 70, 62
1, 35280, Note_on_c, 0, 60, 42
1, 35280, Note_on_c, 0, 66, 51
1, 35285, Control_c, 0, 64, 0
1, 35323, Control_c, 0, 64, 127
1, 35340, Note_on_c, 0, 66, 0
1, 35340, Note_on_c, 0, 60, 0
1, 35400, Note_on_c, 0, 70, 0
1, 35400, Note_on_c, 0, 76, 55
1, 35520, Note_on_c, 0, 76, 0
1, 35520, Note_on_c, 0, 70, 58
1, 35520, Note_on_c, 0, 66, 44
1, 35520, Note_on_c, 0, 60, 36
1, 35580, Note_on_c, 0, 60, 0
1, 35580, Note_on_c, 0, 66, 0
1, 35640, Note_on_c, 0, 70, 0
1, 35640, Note_on_c, 0, 76, 50
1, 35760, Tempo, 494234
1, 35760, Note_on_c, 0, 76, 0
1, 35760, Note_on_c, 0, 70, 55
1, 35760, Note_on_c, 0, 66, 40
1, 35760, Note_on_c, 0, 60, 33
1, 35820, Note_on_c, 0, 60, 0
1, 35820, Note_on_c, 0, 66, 0
1, 35880, Tempo, 540882
1, 35880, Note_on_c, 0, 70, 0
1, 35880, Note_on_c, 0, 76, 46
1, 36000, Tempo, 496401
1, 36000, Note_on_c, 0, 76, 0
1, 36000, Note_on_c, 0, 71, 40
1, 36000, Note_on_c, 0, 66, 34
1, 36000, Note_on_c, 0, 59, 28
1, 36005, Control_c, 0, 64, 0
1, 36043, Control_c, 0, 64, 127
1, 36060, Note_on_c, 0, 59, 0
1, 36060, Note_on_c, 0, 66, 0
1, 36120, Note_on_c, 0, 71, 0
1, 36120, Note_on_c, 0, 76, 36
1, 36240, Note_on_c, 0, 76, 0
1, 36240, Note_on_c, 0, 71, 40
1, 36240, Note_on_c, 0, 66, 34
1, 36240, Note_on_c, 0, 59, 28
1, 36300, Note_on_c, 0, 59, 0
1, 36300, Note_on_c, 0, 66, 0
1, 36360, Note_on_c, 0, 71, 0
1, 36360, Note_on_c, 0, 76, 34
1, 36480, Note_on_c, 0, 76, 0
1, 36480, Note_on_c, 0, 71, 41
1, 36480, Note_on_c, 0, 66, 34
1, 36480, Note_on_c, 0, 59, 28
1, 36540, Note_on_c, 0, 59, 0
1, 36540, Note_on_c, 0, 66, 0
1, 36600, Note_on_c, 0, 71, 0
1, 36600, Note_on_c, 0, 76, 36
1, 36720, Tempo, 505136
1, 36720, Note_on_c, 0, 76, 0
1, 36720, Note_on_c, 0, 71, 40
1, 36720, Note_on_c, 0, 59, 28
1, 36720, Note_on_c, 0, 66, 34
1, 36725, Control_c, 0, 64, 0
1, 36770, Control_c, 0, 64, 127
1, 36780, Note_on_c, 0, 66, 0
1, 36780, Note_on_c, 0, 59, 0
1, 36840, Note_on_c, 0, 71, 0
1, 36840, Note_on_c, 0, 75, 36
1, 36960, Note_on_c, 0, 75, 0
1, 36960, Note_on_c, 0, 71, 40
1, 36960, Note_on_c, 0, 66, 34
1, 36960, Note_on_c, 0, 59, 28
1, 37020, Note_on_c, 0, 59, 0
1, 37020, Note_on_c, 0, 66, 0
1, 37080, Note_on_c, 0, 71, 0
1, 37080, Note_on_c, 0, 75, 34
1, 37200, Note_on_c, 0, 75, 0
1, 37200, Note_on_c, 0, 71, 41
1, 37200, Note_on_c, 0, 59, 28
1, 37200, Note_on_c, 0, 66, 34
1, 37260, Note_on_c, 0, 66, 0
1, 37260, Note_on_c, 0, 59, 0
1, 37320, Tempo, 636065
1, 37320, Note_on_c, 0, 71, 0
1, 37320, Note_on_c, 0, 75, 36
1, 37440, Tempo, 504923
1, 37440, Note_on_c, 0, 75, 0
1, 37440, Note_on_c, 0, 76, 40
1, 37440, Note_on_c, 0, 71, 34
1, 37440, Note_on_c, 0, 67, 40
1, 37440, Note_on_c, 0, 64, 34
1, 37440, Control_c, 0, 64, 0
1, 37500, Note_on_c, 0, 64, 0
1, 37500, Note_on_c, 0, 76, 0
1, 37500, Note_on_c, 0, 71, 0
1, 37500, Note_on_c, 0, 67, 0
1, 37680, Note_on_c, 0, 71, 31
1, 37680, Note_on_c, 0, 76, 37
1, 37680, Note_on_c, 0, 64, 29
1, 37680, Note_on_c, 0, 67, 35
1, 37740, Note_on_c, 0, 67, 0
1, 37740, Note_on_c, 0, 71, 0
1, 37740, Note_on_c, 0, 76, 0
1, 37740, Note_on_c, 0, 64, 0
1, 37920, Tempo, 530833
1, 37920, Note_on_c, 0, 76, 37
1, 37920, Note_on_c, 0, 72, 31
1, 37920, Note_on_c, 0, 67, 30
1, 37920, Note_on_c, 0, 60, 25
1, 37980, Note_on_c, 0, 60, 0
1, 37980, Note_on_c, 0, 76, 0
1, 37980, Note_on_c, 0, 72, 0
1, 37980, Note_on_c, 0, 67, 0
1, 38160, Tempo, 514183
1, 38160, Note_on_c, 0, 76, 40
1, 38160, Note_on_c, 0, 71, 34
1, 38160, Note_on_c, 0, 67, 35
1, 38160, Note_on_c, 0, 64, 29
1, 38220, Note_on_c, 0, 64, 0
1, 38220, Note_on_c, 0, 76, 0
1, 38220, Note_on_c, 0, 71, 0
1, 38220, Note_on_c, 0, 67, 0
1, 38400, Note_on_c, 0, 76, 36
1, 38400, Note_on_c, 0, 71, 30
1, 38400, Note_on_c, 0, 67, 31
1, 38400, Note_on_c, 0, 64, 26
1, 38460, Note_on_c, 0, 64, 0
1, 38460, Note_on_c, 0, 76, 0
1, 38460, Note_on_c, 0, 71, 0
1, 38460, Note_on_c, 0, 67, 0
1, 38640, Tempo, 500709
1, 38640, Note_on_c, 0, 67, 40
1, 38640, Control_c, 0, 64, 127
1, 38760, Note_on_c, 0, 67, 0
1, 38760, Note_on_c, 0, 69, 35
1, 38880, Tempo, 481928
1, 38880, Note_on_c, 0, 69, 0
1, 38880, Note_on_c, 0, 71, 40
1, 38880, Note_on_c, 0, 64, 29
1, 38880, Note_on_c, 0, 67, 35
1, 38885, Control_c, 0, 64, 0
1, 38933, Control_c, 0, 64, 127
1, 38940, Note_on_c, 0, 67, 0
1, 38940, Note_on_c, 0, 64, 0
1, 39000, Note_on_c, 0, 71, 0
1, 39000, Note_on_c, 0, 72, 36
1, 39120, Note_on_c, 0, 72, 0
1, 39120, Note_on_c, 0, 71, 40
1, 39120, Note_on_c, 0, 64, 27
1, 39120, Note_on_c, 0, 67, 32
1, 39180, Note_on_c, 0, 67, 0
1, 39180, Note_on_c, 0, 64, 0
1, 39240, Note_on_c, 0, 71, 0
1, 39240, Note_on_c, 0, 78, 45
1, 39360, Note_on_c, 0, 78, 0
1, 39360, Note_on_c, 0, 76, 43
1, 39360, Note_on_c, 0, 64, 28
1, 39360, Note_on_c, 0, 69, 33
1, 39372, Control_c, 0, 64, 0
1, 39420, Note_on_c, 0, 69, 0
1, 39420, Note_on_c, 0, 64, 0
1, 39431, Control_c, 0, 64, 127
1, 39480, Note_on_c, 0, 76, 0
1, 39480, Note_on_c, 0, 74, 40
1, 39590, Tempo, 498546
1, 39600, Note_on_c, 0, 74, 0
1, 39600, Note_on_c, 0, 71, 39
1, 39600, Note_on_c, 0, 67, 35
1, 39600, Note_on_c, 0, 64, 29
1, 39604, Control_c, 0, 64, 0
1, 39648, Tempo, 496401
1, 39686, Tempo, 494234
1, 39692, Control_c, 0, 64, 127
1, 39720, Note_on_c, 0, 71, 0
1, 39720, Note_on_c, 0, 76, 41
1, 39725, Tempo, 492126
1, 39763, Tempo, 490036
1, 39802, Tempo, 487924
1, 39840, Note_on_c, 0, 76, 0
1, 39840, Note_on_c, 0, 64, 0
1, 39840, Note_on_c, 0, 67, 0
1, 39840, Note_on_c, 0, 79, 43
1, 39859, Tempo, 485869
1, 39898, Tempo, 483832
1, 39936, Tempo, 481773
1, 39960, Note_on_c, 0, 79, 0
1, 39960, Note_on_c, 0, 82, 45
1, 39974, Tempo, 479770
1, 40013, Tempo, 477783
1, 40051, Tempo, 475775
1, 40080, Note_on_c, 0, 82, 0
1, 40080, Note_on_c, 0, 83, 48
1, 40200, Tempo, 568720
1, 40200, Note_on_c, 0, 83, 0
1, 40235, Control_c, 0, 64, 0
1, 40320, Tempo, 505136
1, 40320, Note_on_c, 0, 74, 34
1, 40320, Note_on_c, 0, 78, 34
1, 40320, Note_on_c, 0, 83, 40
1, 40320, Note_on_c, 0, 71, 40
1, 40380, Note_on_c, 0, 71, 0
1, 40380, Note_on_c, 0, 74, 0
1, 40380, Note_on_c, 0, 78, 0
1, 40380, Note_on_c, 0, 83, 0
1, 40560, Note_on_c, 0, 78, 31
1, 40560, Note_on_c, 0, 74, 31
1, 40560, Note_on_c, 0, 83, 37
1, 40560, Note_on_c, 0, 71, 35
1, 40620, Note_on_c, 0, 71, 0
1, 40620, Note_on_c, 0, 78, 0
1, 40620, Note_on_c, 0, 74, 0
1, 40620, Note_on_c, 0, 83, 0
1, 40800, Tempo, 530833
1, 40800, Note_on_c, 0, 79, 31
1, 40800, Note_on_c, 0, 74, 31
1, 40800, Note_on_c, 0, 83, 37
1, 40800, Note_on_c, 0, 67, 30
1, 40860, Note_on_c, 0, 67, 0
1, 40860, Note_on_c, 0, 79, 0
1, 40860, Note_on_c, 0, 74, 0
1, 40860, Note_on_c, 0, 83, 0
1, 41040, Tempo, 514183
1, 41040, Note_on_c, 0, 74, 34
1, 41040, Note_on_c, 0, 78, 34
1, 41040, Note_on_c, 0, 83, 40
1, 41040, Note_on_c, 0, 71, 35
1, 41100, Note_on_c, 0, 71, 0
1, 41100, Note_on_c, 0, 74, 0
1, 41100, Note_on_c, 0, 78, 0
1, 41100, Note_on_c, 0, 83, 0
1, 41280, Note_on_c, 0, 74, 30
1, 41280, Note_on_c, 0, 83, 36
1, 41280, Note_on_c, 0, 78, 30
1, 41280, Note_on_c, 0, 71, 31
1, 41340, Note_on_c, 0, 71, 0
1, 41340, Note_on_c, 0, 74, 0
1, 41340, Note_on_c, 0, 83, 0
1, 41340, Note_on_c, 0, 78, 0
1, 41520, Tempo, 500709
1, 41520, Note_on_c, 0, 71, 40
1, 41520, Control_c, 0, 64, 127
1, 41640, Note_on_c, 0, 71, 0
1, 41640, Note_on_c, 0, 73, 35
1, 41760, Tempo, 485869
1, 41760, Note_on_c, 0, 73, 0
1, 41760, Note_on_c, 0, 74, 40
1, 41760, Note_on_c, 0, 66, 35
1, 41765, Control_c, 0, 64, 0
1, 41813, Control_c, 0, 64, 127
1, 41820, Note_on_c, 0, 66, 0
1, 41880, Note_on_c, 0, 74, 0
1, 41880, Note_on_c, 0, 78, 36
1, 42000, Note_on_c, 0, 78, 0
1, 42000, Note_on_c, 0, 71, 40
1, 42000, Note_on_c, 0, 74, 40
1, 42000, Note_on_c, 0, 62, 32
1, 42060, Note_on_c, 0, 62, 0
1, 42120, Tempo, 540882
1, 42120, Note_on_c, 0, 74, 0
1, 42120, Note_on_c, 0, 71, 0
1, 42120, Note_on_c, 0, 78, 45
1, 42120, Note_on_c, 0, 64, 39
1, 42180, Note_on_c, 0, 64, 0
1, 42240, Tempo, 485869
1, 42240, Note_on_c, 0, 78, 0
1, 42240, Note_on_c, 0, 73, 63
1, 42240, Note_on_c, 0, 70, 53
1, 42240, Note_on_c, 0, 66, 56
1, 42252, Control_c, 0, 64, 0
1, 42300, Note_on_c, 0, 66, 0
1, 42311, Control_c, 0, 64, 127
1, 42360, Note_on_c, 0, 73, 0
1, 42360, Note_on_c, 0, 78, 60
1, 42451, Tempo, 492126
1, 42480, Note_on_c, 0, 78, 0
1, 42480, Note_on_c, 0, 70, 0
1, 42480, Note_on_c, 0, 75, 62
1, 42480, Note_on_c, 0, 71, 52
1, 42480, Note_on_c, 0, 66, 66
1, 42484, Control_c, 0, 64, 0
1, 42509, Tempo, 490036
1, 42547, Tempo, 487924
1, 42572, Control_c, 0, 64, 127
1, 42600, Note_on_c, 0, 71, 0
1, 42600, Note_on_c, 0, 75, 0
1, 42600, Note_on_c, 0, 78, 57
1, 42605, Tempo, 485869
1, 42643, Tempo, 483832
1, 42682, Tempo, 481773
1, 42720, Note_on_c, 0, 78, 0
1, 42720, Note_on_c, 0, 75, 63
1, 42720, Note_on_c, 0, 71, 53
1, 42739, Tempo, 479770
1, 42778, Tempo, 477783
1, 42816, Tempo, 475775
1, 42840, Note_on_c, 0, 71, 0
1, 42840, Note_on_c, 0, 75, 0
1, 42840, Note_on_c, 0, 78, 59
1, 42874, Tempo, 473821
1, 42912, Tempo, 471884
1, 42950, Tempo, 469925
1, 42960, Note_on_c, 0, 78, 0
1, 42960, Note_on_c, 0, 66, 0
1, 42960, Note_on_c, 0, 75, 64
1, 42960, Note_on_c, 0, 71, 54
1, 42960, Note_on_c, 0, 59, 60
1, 43080, Tempo, 647808
1, 43080, Note_on_c, 0, 71, 0
1, 43080, Note_on_c, 0, 75, 0
1, 43080, Note_on_c, 0, 78, 57
1, 43200, Tempo, 505136
1, 43200, Note_on_c, 0, 78, 0
1, 43200, Note_on_c, 0, 59, 0
1, 43200, Note_on_c, 0, 71, 34
1, 43200, Note_on_c, 0, 76, 40
1, 43200, Note_on_c, 0, 64, 34
1, 43200, Note_on_c, 0, 67, 40
1, 43200, Control_c, 0, 64, 0
1, 43260, Note_on_c, 0, 67, 0
1, 43260, Note_on_c, 0, 71, 0
1, 43260, Note_on_c, 0, 76, 0
1, 43260, Note_on_c, 0, 64, 0
1, 43440, Note_on_c, 0, 71, 31
1, 43440, Note_on_c, 0, 76, 37
1, 43440, Note_on_c, 0, 64, 29
1, 43440, Note_on_c, 0, 67, 35
1, 43500, Note_on_c, 0, 67, 0
1, 43500, Note_on_c, 0, 71, 0
1, 43500, Note_on_c, 0, 76, 0
1, 43500, Note_on_c, 0, 64, 0
1, 43680, Tempo, 530833
1, 43680, Note_on_c, 0, 76, 37
1, 43680, Note_on_c, 0, 72, 31
1, 43680, Note_on_c, 0, 60, 25
1, 43680, Note_on_c, 0, 67, 30
1, 43740, Note_on_c, 0, 67, 0
1, 43740, Note_on_c, 0, 76, 0
1, 43740, Note_on_c, 0, 72, 0
1, 43740, Note_on_c, 0, 60, 0
1, 43920, Tempo, 514183
1, 43920, Note_on_c, 0, 71, 34
1, 43920, Note_on_c, 0, 76, 40
1, 43920, Note_on_c, 0, 64, 29
1, 43920, Note_on_c, 0, 67, 35
1, 43980, Note_on_c, 0, 67, 0
1, 43980, Note_on_c, 0, 71, 0
1, 43980, Note_on_c, 0, 76, 0
1, 43980, Note_on_c, 0, 64, 0
1, 44160, Tempo, 521739
1, 44160, Note_on_c, 0, 76, 36
1, 44160, Note_on_c, 0, 71, 30
1, 44160, Note_on_c, 0, 67, 31
1, 44160, Note_on_c, 0, 64, 26
1, 44220, Note_on_c, 0, 64, 0
1, 44220, Note_on_c, 0, 76, 0
1, 44220, Note_on_c, 0, 71, 0
1, 44220, Note_on_c, 0, 67, 0
1, 44400, Tempo, 500709
1, 44400, Note_on_c, 0, 67, 40
1, 44400, Control_c, 0, 64, 127
1, 44520, Note_on_c, 0, 67, 0
1, 44520, Note_on_c, 0, 69, 35
1, 44640, Tempo, 480000
1, 44640, Note_on_c, 0, 69, 0
1, 44640, Note_on_c, 0, 71, 40
1, 44640, Note_on_c, 0, 64, 29
1, 44640, Note_on_c, 0, 67, 35
1, 44645, Control_c, 0, 64, 0
1, 44693, Control_c, 0, 64, 127
1, 44700, Note_on_c, 0, 67, 0
1, 44700, Note_on_c, 0, 64, 0
1, 44760, Note_on_c, 0, 71, 0
1, 44760, Note_on_c, 0, 72, 36
1, 44880, Note_on_c, 0, 72, 0
1, 44880, Note_on_c, 0, 71, 40
1, 44880, Note_on_c, 0, 64, 27
1, 44880, Note_on_c, 0, 67, 32
1, 44940, Note_on_c, 0, 67, 0
1, 44940, Note_on_c, 0, 64, 0
1, 45000, Note_on_c, 0, 71, 0
1, 45000, Note_on_c, 0, 78, 45
1, 45120, Note_on_c, 0, 78, 0
1, 45120, Note_on_c, 0, 76, 43
1, 45120, Note_on_c, 0, 64, 28
1, 45120, Note_on_c, 0, 69, 33
1, 45132, Control_c, 0, 64, 0
1, 45180, Note_on_c, 0, 69, 0
1, 45180, Note_on_c, 0, 64, 0
1, 45191, Control_c, 0, 64, 127
1, 45240, Note_on_c, 0, 76, 0
1, 45240, Note_on_c, 0, 74, 40
1, 45350, Tempo, 498546
1, 45360, Note_on_c, 0, 74, 0
1, 45360, Note_on_c, 0, 71, 39
1, 45360, Note_on_c, 0, 64, 29
1, 45360, Note_on_c, 0, 67, 35
1, 45364, Control_c, 0, 64, 0
1, 45408, Tempo, 496401
1, 45446, Tempo, 494234
1, 45452, Control_c, 0, 64, 127
1, 45480, Note_on_c, 0, 71, 0
1, 45480, Note_on_c, 0, 76, 41
1, 45485, Tempo, 492126
1, 45523, Tempo, 490036
1, 45562, Tempo, 487924
1, 45600, Note_on_c, 0, 76, 0
1, 45600, Note_on_c, 0, 67, 0
1, 45600, Note_on_c, 0, 64, 0
1, 45600, Note_on_c, 0, 79, 43
1, 45619, Tempo, 485869
1, 45658, Tempo, 483832
1, 45696, Tempo, 481773
1, 45720, Note_on_c, 0, 79, 0
1, 45720, Note_on_c, 0, 82, 45
1, 45734, Tempo, 479770
1, 45773, Tempo, 477783
1, 45811, Tempo, 475775
1, 45840, Note_on_c, 0, 82, 0
1, 45840, Note_on_c, 0, 83, 48
1, 45960, Tempo, 566038
1, 45960, Note_on_c, 0, 83, 0
1, 45995, Control_c, 0, 64, 0
1, 46080, Tempo, 498546
1, 46080, Note_on_c, 0, 64, 31
1, 46080, Note_on_c, 0, 60, 26
1, 46128, Tempo, 496401
1, 46166, Tempo, 494234
1, 46172, Control_c, 0, 64, 127
1, 46200, Note_on_c, 0, 68, 36
1, 46205, Tempo, 492126
1, 46243, Tempo, 490036
1, 46282, Tempo, 487924
1, 46320, Note_on_c, 0, 68, 0
1, 46320, Note_on_c, 0, 60, 0
1, 46320, Note_on_c, 0, 64, 0
1, 46320, Note_on_c, 0, 69, 38
1, 46339, Tempo, 485869
1, 46378, Tempo, 483832
1, 46416, Tempo, 481773
1, 46440, Note_on_c, 0, 69, 0
1, 46440, Note_on_c, 0, 72, 40
1, 46454, Tempo, 479770
1, 46493, Tempo, 477783
1, 46531, Tempo, 475775
1, 46560, Note_on_c, 0, 72, 0
1, 46560, Note_on_c, 0, 76, 43
1, 46680, Tempo, 566038
1, 46680, Note_on_c, 0, 76, 0
1, 46715, Control_c, 0, 64, 0
1, 46766, Tempo, 522512
1, 46800, Note_on_c, 0, 57, 26
1, 46800, Note_on_c, 0, 60, 31
1, 46805, Tempo, 520246
1, 46843, Tempo, 518001
1, 46881, Tempo, 515774
1, 46892, Control_c, 0, 64, 127
1, 46920, Tempo, 513567
1, 46920, Note_on_c, 0, 64, 36
1, 46958, Tempo, 511378
1, 46997, Tempo, 509208
1, 47035, Tempo, 507057
1, 47040, Note_on_c, 0, 64, 0
1, 47040, Note_on_c, 0, 60, 0
1, 47040, Note_on_c, 0, 57, 0
1, 47040, Note_on_c, 0, 65, 38
1, 47073, Tempo, 504923
1, 47112, Tempo, 502807
1, 47150, Tempo, 500709
1, 47160, Note_on_c, 0, 65, 0
1, 47160, Note_on_c, 0, 69, 40
1, 47189, Tempo, 498629
1, 47227, Tempo, 496565
1, 47265, Tempo, 494519
1, 47280, Note_on_c, 0, 69, 0
1, 47280, Note_on_c, 0, 72, 43
1, 47400, Tempo, 707297
1, 47400, Note_on_c, 0, 72, 0
1, 47435, Control_c, 0, 64, 0
1, 47496, Tempo, 569638
1, 47519, Tempo, 592125
1, 47520, Note_on_c, 0, 54, 24
1, 47520, Note_on_c, 0, 47, 21
1, 47520, Note_on_c, 0, 57, 29
1, 47576, Tempo, 589217
1, 47612, Control_c, 0, 64, 127
1, 47634, Tempo, 586338
1, 47640, Note_on_c, 0, 62, 34
1, 47672, Tempo, 583487
1, 47730, Tempo, 580664
1, 47760, Note_on_c, 0, 62, 0
1, 47760, Note_on_c, 0, 54, 0
1, 47760, Note_on_c, 0, 47, 0
1, 47760, Note_on_c, 0, 57, 0
1, 47760, Note_on_c, 0, 63, 36
1, 47768, Tempo, 577868
1, 47826, Tempo, 575098
1, 47864, Tempo, 572355
1, 47880, Note_on_c, 0, 63, 0
1, 47880, Note_on_c, 0, 66, 38
1, 47922, Tempo, 569638
1, 47960, Tempo, 566947
1, 48000, Tempo, 575098
1, 48000, Note_on_c, 0, 66, 0
1, 48000, Note_on_c, 0, 71, 40
1, 48120, Tempo, 1168907
1, 48120, Note_on_c, 0, 71, 0
1, 48155, Control_c, 0, 64, 0
1, 48240, Tempo, 505136
1, 48240, Note_on_c, 0, 59, 22
1, 48240, Note_on_c, 0, 64, 27
1, 48240, Note_on_c, 0, 55, 22
1, 48240, Note_on_c, 0, 40, 18
1, 48240, Note_on_c, 0, 47, 18
1, 48240, Note_on_c, 0, 52, 22
1, 48300, Note_on_c, 0, 52, 0
1, 48300, Note_on_c, 0, 64, 0
1, 48300, Note_on_c, 0, 55, 0
1, 48300, Note_on_c, 0, 59, 0
1, 48300, Note_on_c, 0, 47, 0
1, 48300, Note_on_c, 0, 40, 0
1, 48480, Note_on_c, 0, 59, 20
1, 48480, Note_on_c, 0, 64, 24
1, 48480, Note_on_c, 0, 55, 20
1, 48480, Note_on_c, 0, 47, 16
1, 48480, Note_on_c, 0, 40, 16
1, 48480, Note_on_c, 0, 52, 19
1, 48540, Note_on_c, 0, 52, 0
1, 48540, Note_on_c, 0, 64, 0
1, 48540, Note_on_c, 0, 55, 0
1, 48540, Note_on_c, 0, 59, 0
1, 48540, Note_on_c, 0, 40, 0
1, 48540, Note_on_c, 0, 47, 0
1, 48720, Tempo, 530833
1, 48720, Note_on_c, 0, 60, 20
1, 48720, Note_on_c, 0, 64, 24
1, 48720, Note_on_c, 0, 55, 20
1, 48720, Note_on_c, 0, 52, 16
1, 48720, Note_on_c, 0, 45, 13
1, 48720, Note_on_c, 0, 40, 13
1, 48780, Note_on_c, 0, 40, 0
1, 48780, Note_on_c, 0, 64, 0
1, 48780, Note_on_c, 0, 55, 0
1, 48780, Note_on_c, 0, 60, 0
1, 48780, Note_on_c, 0, 45, 0
1, 48780, Note_on_c, 0, 52, 0
1, 48960, Tempo, 505136
1, 48960, Note_on_c, 0, 59, 22
1, 48960, Note_on_c, 0, 55, 22
1, 48960, Note_on_c, 0, 64, 27
1, 48960, Note_on_c, 0, 40, 18
1, 48960, Note_on_c, 0, 52, 22
1, 48960, Note_on_c, 0, 47, 18
1, 49020, Note_on_c, 0, 47, 0
1, 49020, Note_on_c, 0, 55, 0
1, 49020, Note_on_c, 0, 64, 0
1, 49020, Note_on_c, 0, 59, 0
1, 49020, Note_on_c, 0, 52, 0
1, 49020, Note_on_c, 0, 40, 0
1, 49200, Note_on_c, 0, 64, 24
1, 49200, Note_on_c, 0, 59, 20
1, 49200, Note_on_c, 0, 55, 20
1, 49200, Note_on_c, 0, 40, 16
1, 49200, Note_on_c, 0, 47, 16
1, 49200, Note_on_c, 0, 52, 19
1, 49260, Note_on_c, 0, 52, 0
1, 49260, Note_on_c, 0, 59, 0
1, 49260, Note_on_c, 0, 55, 0
1, 49260, Note_on_c, 0, 64, 0
1, 49260, Note_on_c, 0, 47, 0
1, 49260, Note_on_c, 0, 40, 0
1, 49440, Tempo, 530833
1, 49440, Note_on_c, 0, 55, 20
1, 49440, Note_on_c, 0, 57, 20
1, 49440, Note_on_c, 0, 64, 24
1, 49440, Note_on_c, 0, 52, 16
1, 49440, Note_on_c, 0, 40, 13
1, 49440, Note_on_c, 0, 48, 13
1, 49500, Note_on_c, 0, 48, 0
1, 49500, Note_on_c, 0, 57, 0
1, 49500, Note_on_c, 0, 64, 0
1, 49500, Note_on_c, 0, 55, 0
1, 49500, Note_on_c, 0, 40, 0
1, 49500, Note_on_c, 0, 52, 0
1, 49680, Tempo, 505136
1, 49680, Note_on_c, 0, 59, 22
1, 49680, Note_on_c, 0, 55, 22
1, 49680, Note_on_c, 0, 64, 27
1, 49680, Note_on_c, 0, 52, 22
1, 49680, Note_on_c, 0, 40, 18
1, 49680, Note_on_c, 0, 47, 18
1, 49712, Control_c, 0, 64, 127
1, 49740, Note_on_c, 0, 47, 0
1, 49740, Note_on_c, 0, 55, 0
1, 49740, Note_on_c, 0, 64, 0
1, 49740, Note_on_c, 0, 59, 0
1, 49740, Note_on_c, 0, 40, 0
1, 49740, Note_on_c, 0, 52, 0
1, 49829, Control_c, 0, 64, 0
1, 50280, Tempo, 656958
1, 50280, Note_on_c, 0, 71, 22
1, 50309, Control_c, 0, 64, 127
1, 50340, Tempo, 720029
1, 50340, Note_on_c, 0, 71, 0
1, 50340, Note_on_c, 0, 75, 22
1, 50400, Tempo, 543823
1, 50400, Note_on_c, 0, 75, 0
1, 50400, Note_on_c, 0, 76, 32
1, 50400, Note_on_c, 0, 67, 27
1, 50400, Note_on_c, 0, 52, 22
1, 50400, Note_on_c, 0, 59, 27
1, 50400, Control_c, 0, 64, 0
1, 50440, Control_c, 0, 64, 127
1, 50460, Note_on_c, 0, 59, 0
1, 50460, Note_on_c, 0, 76, 0
1, 50460, Note_on_c, 0, 67, 0
1, 50460, Note_on_c, 0, 52, 0
1, 50577, Control_c, 0, 64, 0
1, 51000, Tempo, 695008
1, 51000, Note_on_c, 0, 83, 22
1, 51015, Control_c, 0, 64, 127
1, 51060, Tempo, 761132
1, 51060, Note_on_c, 0, 83, 0
1, 51060, Note_on_c, 0, 87, 22
1, 51120, Note_on_c, 0, 87, 0
1, 51120, Note_on_c, 0, 88, 32
1, 51120, Note_on_c, 0, 79, 27
1, 51120, Note_on_c, 0, 71, 27
1, 51120, Note_on_c, 0, 64, 22
1, 51120, Control_c, 0, 64, 0
1, 51163, Control_c, 0, 64, 127
1, 51180, Note_on_c, 0, 64, 0
1, 51180, Note_on_c, 0, 88, 0
1, 51180, Note_on_c, 0, 79, 0
1, 51180, Note_on_c, 0, 71, 0
1, 51297, Control_c, 0, 64, 0
1, 51297, End_track
0, 0, End_of_file
